<?xml version="1.0" encoding="UTF-8"?>
<svg xmlns="http://www.w3.org/2000/svg" xmlns:xlink="http://www.w3.org/1999/xlink" version="1.2" >
<font id="AntennaComp RegularItalic">
<font-face  font-family="AntennaComp" units-per-em="1000" ascent="800" descent="-200" font-style="italic" font-weight="400" font-stretch="normal" slope="-6" cap-height="741" x-height="555" underline-position="-75" underline-thickness="50" />
<missing-glyph  horiz-adv-x="86" d="" />
<glyph glyph-name="NULL" d="" />
<glyph glyph-name="CR" unicode="&#xd;" horiz-adv-x="250" d="" />
<glyph glyph-name="&amp;#x20;" unicode="&#x20;" horiz-adv-x="86" d="" />
<glyph glyph-name="&amp;#xa0;" unicode="&#xa0;" horiz-adv-x="86" d="" />
<glyph glyph-name="exclam" unicode="&#x21;" horiz-adv-x="176" d="M37 207 L104 207 L168 741 L87 741 L37 207 Z M8 0 L89 0 L100 111 L19 111 L8 0 Z " />
<glyph glyph-name="quotedbl" unicode="&#x22;" horiz-adv-x="256" d="M52 465 L119 465 L151 741 L77 741 L52 465 Z M157 465 L224 465 L257 741 L182 741 L157 465 Z " />
<glyph glyph-name="numbersign" unicode="&#x23;" horiz-adv-x="298" d="M26 0 L94 0 L119 245 L154 245 L129 0 L198 0 L223 245 L266 245 L274 318 L231 318 L240 407 L284 407 L292 480 L248 480 L274 741 L206 741 L179 480 L144 480 L172 741 L102 741 L76 480 L32 480 L25 407 L68 407 L59 318 L15 318 L7 245 L51 245 L26 0 Z M123 312 L134 413 L175 413 L164 312 L123 312 Z " />
<glyph glyph-name="dollar" unicode="&#x24;" horiz-adv-x="230" d="M28 -92 L92 -92 L101 0 C198 18 186 103 175 192 L125 578 C118 629 119 670 166 670 C179 670 198 668 210 664 L232 735 C218 738 198 742 179 743 L188 825 L124 825 L114 737 C42 713 42 633 52 556 L104 163 C114 88 107 68 60 68 C45 68 18 72 3 76 L-21 7 C-6 3 14 -1 37 -2 L28 -92 Z " />
<glyph glyph-name="percent" unicode="&#x25;" horiz-adv-x="499" d="M100 283 C188 283 194 340 212 511 C220 576 224 622 224 655 C224 721 205 746 144 746 C55 746 50 692 32 519 C25 454 21 407 21 375 C21 308 39 283 100 283 L100 283 Z M104 344 C92 344 87 350 87 380 C87 405 90 447 98 516 C114 668 117 683 139 683 C151 683 157 678 157 647 C157 623 153 580 146 512 C130 359 126 344 104 344 L104 344 Z M355 -5 C445 -5 450 52 468 223 C476 288 480 335 480 367 C480 433 462 458 401 458 C312 458 306 405 288 232 C281 167 276 120 276 88 C276 21 295 -5 355 -5 L355 -5 Z M361 57 C349 57 343 62 343 92 C343 118 347 159 354 228 C370 381 374 396 395 396 C407 396 414 390 414 360 C414 335 409 293 402 224 C387 72 383 57 361 57 L361 57 Z M101 0 L169 0 L398 741 L330 741 L101 0 Z " />
<glyph glyph-name="ampersand" unicode="&#x26;" horiz-adv-x="326" d="M101 -4 C144 -4 175 8 198 34 L208 0 L286 0 L246 132 C253 154 259 179 265 207 L308 433 L245 433 L211 251 L189 325 C182 346 175 366 170 385 C227 465 269 544 269 647 C269 713 250 746 174 746 C137 746 110 735 93 709 C71 676 68 624 68 572 C68 520 75 471 90 411 C32 331 -18 240 -18 109 C-18 28 16 -4 101 -4 L101 -4 Z M108 61 C66 61 55 80 55 119 C55 204 78 271 112 334 C116 321 120 308 125 294 L177 109 C159 68 138 61 108 61 L108 61 Z M137 575 C137 614 138 647 146 665 C151 676 161 681 174 681 C195 681 201 670 201 641 C201 576 185 519 150 463 C141 504 137 541 137 575 L137 575 Z " />
<glyph glyph-name="quotesingle" unicode="&#x27;" horiz-adv-x="151" d="M52 465 L120 465 L153 741 L77 741 L52 465 Z " />
<glyph glyph-name="parenleft" unicode="&#x28;" horiz-adv-x="214" d="M71 -150 L134 -117 C119 -70 101 8 101 135 C101 183 104 240 110 306 C135 538 185 653 223 728 L166 761 C124 687 61 543 37 305 C30 239 27 181 27 130 C27 -10 51 -96 71 -150 L71 -150 Z " />
<glyph glyph-name="parenright" unicode="&#x29;" horiz-adv-x="214" d="M35 -150 C77 -76 140 68 164 306 C171 373 174 431 174 481 C174 621 151 706 131 761 L67 728 C82 681 100 604 100 478 C100 428 97 372 91 306 C66 73 15 -43 -23 -117 L35 -150 Z " />
<glyph glyph-name="asterisk" unicode="&#x2a;" horiz-adv-x="271" d="M172 435 L179 545 L239 480 L281 526 L200 581 L292 627 L259 679 L187 628 L204 737 L143 745 L137 634 L78 699 L36 652 L114 589 L25 553 L58 500 L128 550 L112 441 L172 435 Z " />
<glyph glyph-name="plus" unicode="&#x2b;" horiz-adv-x="293" d="M92 200 L165 200 L179 327 L249 327 L256 399 L186 399 L200 524 L126 524 L114 399 L44 399 L36 327 L106 327 L92 200 Z " />
<glyph glyph-name="comma" unicode="&#x2c;" horiz-adv-x="133" d="M2 -95 C53 -71 63 -49 71 27 L80 112 L-1 112 L-13 0 L18 0 C15 -33 11 -35 -20 -55 L2 -95 Z " />
<glyph glyph-name="&amp;#x2d;" unicode="&#x2d;" horiz-adv-x="176" d="M9 281 L149 281 L156 353 L16 353 L9 281 Z " />
<glyph glyph-name="&amp;#xad;" unicode="&#xad;" horiz-adv-x="176" d="M9 281 L149 281 L156 353 L16 353 L9 281 Z " />
<glyph glyph-name="period" unicode="&#x2e;" horiz-adv-x="133" d="M-13 0 L69 0 L80 112 L-1 112 L-13 0 Z " />
<glyph glyph-name="slash" unicode="&#x2f;" horiz-adv-x="238" d="M-41 0 L36 0 L278 741 L202 741 L-41 0 Z " />
<glyph glyph-name="zero" unicode="0" horiz-adv-x="278" d="M105 -5 C221 -5 217 58 251 364 C268 519 273 581 273 625 C273 711 251 746 174 746 C60 746 60 673 28 377 C15 259 6 164 6 116 C6 29 29 -5 105 -5 L105 -5 Z M108 66 C89 66 81 75 81 118 C81 160 88 236 103 373 C132 644 133 672 170 672 C190 672 199 664 199 621 C199 580 191 505 176 368 C147 96 145 66 108 66 L108 66 Z " />
<glyph glyph-name="one" unicode="1" horiz-adv-x="179" d="M24 0 L99 0 L177 741 L48 741 L40 668 L95 668 L24 0 Z " />
<glyph glyph-name="two" unicode="2" horiz-adv-x="222" d="M-28 0 L169 0 L177 70 L55 70 L214 545 C230 593 239 622 239 660 C239 712 216 746 144 746 C93 746 66 739 45 730 L71 663 C85 668 103 674 128 674 C177 674 169 633 149 575 L-20 69 L-28 0 Z " />
<glyph glyph-name="three" unicode="3" horiz-adv-x="222" d="M47 -5 C149 -5 167 48 184 209 C189 255 194 313 194 338 C194 377 189 397 165 407 C200 426 206 469 217 575 C220 605 223 628 223 648 C223 714 199 746 132 746 C92 746 70 743 42 735 L63 668 C82 674 101 675 114 675 C155 675 151 640 142 562 C132 458 127 435 68 435 L50 435 L41 363 L60 363 C128 362 125 351 111 216 C99 99 92 65 47 65 C27 65 13 68 -7 76 L-36 9 C-12 -2 16 -5 47 -5 L47 -5 Z " />
<glyph glyph-name="four" unicode="4" horiz-adv-x="271" d="M-6 157 L122 157 L106 0 L175 0 L191 157 L236 157 L243 224 L198 224 L221 439 L167 439 L130 224 L75 224 L242 741 L170 741 L1 220 L-6 157 Z " />
<glyph glyph-name="five" unicode="5" horiz-adv-x="235" d="M69 -5 C168 -5 184 41 204 234 C209 283 217 359 217 389 C217 458 199 485 146 485 C119 485 107 481 96 472 L122 668 L228 668 L236 741 L65 741 L22 403 L70 393 C79 402 86 410 109 410 C132 410 141 403 141 370 C141 346 136 306 130 239 C115 94 110 65 62 65 C39 65 19 70 3 76 L-25 10 C-2 2 25 -5 69 -5 L69 -5 Z " />
<glyph glyph-name="six" unicode="6" horiz-adv-x="268" d="M103 -5 C211 -5 217 66 239 270 C245 325 250 370 250 405 C250 468 231 496 177 496 C138 496 120 485 112 476 C132 646 139 668 231 668 L246 668 L253 741 L237 741 C55 741 58 676 21 309 C12 217 5 158 5 116 C5 26 37 -5 103 -5 L103 -5 Z M107 64 C87 64 80 71 80 111 C80 142 84 193 93 276 C107 403 112 426 147 426 C167 426 175 419 175 384 C175 361 171 327 165 275 C146 89 140 64 107 64 L107 64 Z " />
<glyph glyph-name="seven" unicode="7" horiz-adv-x="226" d="M44 668 L166 668 L0 0 L78 0 L243 676 L250 741 L51 741 L44 668 Z " />
<glyph glyph-name="eight" unicode="8" horiz-adv-x="265" d="M96 -5 C198 -5 209 37 226 201 C231 252 235 302 235 329 C235 368 229 394 210 406 C238 423 245 469 256 567 C260 606 263 633 263 654 C263 717 238 746 170 746 C81 746 67 707 52 578 C48 533 44 500 44 477 C44 446 49 424 64 412 C22 389 18 324 6 211 C2 174 -3 125 -3 97 C-3 25 26 -5 96 -5 L96 -5 Z M100 61 C80 61 73 71 73 101 C73 124 77 159 83 214 C96 342 97 371 133 371 C153 371 161 360 161 329 C161 305 157 267 152 212 C138 85 137 61 100 61 L100 61 Z M140 439 C123 439 116 446 116 471 C116 489 119 517 123 559 C134 659 136 679 166 679 C184 679 190 671 190 643 C190 625 187 597 183 557 C172 456 170 439 140 439 L140 439 Z " />
<glyph glyph-name="nine" unicode="9" horiz-adv-x="268" d="M15 1 L31 1 C213 1 210 66 247 432 C256 524 263 584 263 626 C263 715 231 746 165 746 C57 746 51 676 29 471 C23 416 18 371 18 336 C18 272 37 244 91 244 C129 244 147 255 156 265 C136 94 128 70 36 70 L22 70 L15 1 Z M121 316 C101 316 93 323 93 355 C93 378 97 412 103 465 C122 650 127 674 160 674 C180 674 188 667 188 627 C188 595 183 545 175 464 C161 338 155 316 121 316 L121 316 Z " />
<glyph glyph-name="colon" unicode="&#x3a;" horiz-adv-x="138" d="M-10 0 L70 0 L82 112 L2 112 L-10 0 Z M37 443 L117 443 L129 555 L48 555 L37 443 Z " />
<glyph glyph-name="semicolon" unicode="&#x3b;" horiz-adv-x="138" d="M37 443 L117 443 L129 555 L48 555 L37 443 Z M5 -95 C56 -71 65 -49 73 27 L82 112 L2 112 L-10 0 L21 0 C18 -33 12 -36 -15 -54 L5 -95 Z " />
<glyph glyph-name="less" unicode="&#x3c;" horiz-adv-x="293" d="M209 171 L218 257 L116 360 L239 464 L249 549 L46 389 L41 332 L209 171 Z " />
<glyph glyph-name="equal" unicode="&#x3d;" horiz-adv-x="293" d="M44 391 L255 391 L262 463 L51 463 L44 391 Z M29 244 L239 244 L247 316 L36 316 L29 244 Z " />
<glyph glyph-name="greater" unicode="&#x3e;" horiz-adv-x="293" d="M43 171 L245 332 L251 389 L83 549 L74 464 L176 360 L52 256 L43 171 Z " />
<glyph glyph-name="question" unicode="&#x3f;" horiz-adv-x="234" d="M54 207 L126 207 C132 280 136 313 157 375 L218 555 C235 605 243 627 243 664 C243 711 217 746 139 746 C96 746 66 740 46 732 L69 665 C81 669 101 674 128 674 C178 674 174 637 154 580 L88 392 C64 324 62 294 54 207 L54 207 Z M30 0 L110 0 L121 102 L41 102 L30 0 Z " />
<glyph glyph-name="at" unicode="&#x40;" horiz-adv-x="410" d="M160 -145 L257 -145 L260 -108 L166 -108 C67 -108 39 -72 39 41 C39 101 49 185 60 301 C94 633 109 708 237 708 C330 708 358 673 358 566 C358 511 351 435 340 330 L317 120 C314 84 310 76 294 76 C276 76 273 87 277 118 L322 544 L264 547 L254 531 C244 543 228 552 193 552 C124 552 117 501 96 298 C87 216 81 163 81 126 C81 63 98 40 158 40 C198 40 221 49 235 63 C243 46 266 39 290 39 C342 39 351 67 357 118 L379 326 C390 432 397 511 397 570 C397 695 365 746 239 746 C77 746 57 662 20 302 C8 188 0 104 0 41 C0 -90 38 -145 160 -145 L160 -145 Z M176 101 C158 101 150 103 150 142 C150 171 155 217 163 294 C181 479 186 486 211 486 C235 486 241 477 241 441 C241 411 236 366 229 294 C212 128 211 101 176 101 L176 101 Z " />
<glyph glyph-name="A" unicode="A" horiz-adv-x="272" d="M-34 0 L41 0 L72 158 L152 158 L151 0 L228 0 L217 744 L131 744 L-34 0 Z M88 231 L137 474 L156 572 L153 474 L152 231 L88 231 Z " />
<glyph glyph-name="B" unicode="B" horiz-adv-x="272" d="M-9 0 L104 0 C194 0 217 56 232 193 C237 234 240 269 240 298 C240 344 231 372 203 384 C244 402 255 456 264 549 C267 577 271 613 271 636 C271 706 248 741 162 741 L70 741 L-9 0 Z M73 69 L101 341 L123 341 C156 341 167 324 167 283 C167 264 164 230 160 202 C149 101 144 69 100 69 L73 69 Z M109 414 L137 671 L156 671 C187 671 197 657 197 619 C197 602 195 581 191 539 C181 442 173 414 133 414 L109 414 Z " />
<glyph glyph-name="C" unicode="C" horiz-adv-x="212" d="M112 -5 C135 -5 160 -2 174 5 L163 72 C152 69 134 67 121 67 C87 67 75 78 75 132 C75 177 85 270 96 372 C125 644 126 671 179 671 C196 671 214 669 226 666 L249 737 C239 740 215 745 180 745 C135 745 107 736 86 715 C45 673 38 568 19 379 C8 271 -2 184 -2 127 C-2 35 18 -5 112 -5 L112 -5 Z " />
<glyph glyph-name="D" unicode="D" horiz-adv-x="285" d="M-8 0 L108 0 C149 0 180 8 201 35 C236 77 243 141 266 364 C280 490 287 564 287 612 C287 707 255 741 181 741 L70 741 L-8 0 Z M75 67 L138 672 L171 672 C195 672 212 661 212 605 C212 574 202 468 192 368 C170 167 163 110 143 85 C134 70 120 67 104 67 L75 67 Z " />
<glyph glyph-name="E" unicode="E" horiz-adv-x="230" d="M-8 0 L172 0 L179 70 L73 70 L102 343 L205 343 L212 414 L110 414 L137 668 L242 668 L250 741 L70 741 L-8 0 Z " />
<glyph glyph-name="F" unicode="F" horiz-adv-x="213" d="M-8 0 L67 0 L102 336 L201 336 L208 408 L109 408 L137 668 L239 668 L246 741 L70 741 L-8 0 Z " />
<glyph glyph-name="G" unicode="G" horiz-adv-x="265" d="M108 -4 C209 -4 217 53 237 245 L256 417 L133 417 L124 347 L177 347 L165 244 C148 89 149 61 111 61 C82 61 72 75 72 125 C72 172 81 252 93 372 C122 645 123 672 181 672 C211 672 231 668 247 663 L271 733 C249 740 218 745 178 745 C136 745 107 737 88 717 C48 677 40 578 19 379 C7 265 -2 181 -2 125 C-2 26 20 -4 108 -4 L108 -4 Z " />
<glyph glyph-name="H" unicode="H" horiz-adv-x="298" d="M-8 0 L67 0 L102 343 L190 343 L154 0 L229 0 L307 741 L232 741 L198 420 L111 420 L145 741 L70 741 L-8 0 Z " />
<glyph glyph-name="I" unicode="I" horiz-adv-x="141" d="M-6 0 L69 0 L147 741 L72 741 L-6 0 Z " />
<glyph glyph-name="J" unicode="J" horiz-adv-x="163" d="M0 0 C70 0 100 35 108 105 L174 741 L99 741 L33 112 C30 84 24 71 -13 71 L-25 71 L-33 0 L0 0 Z " />
<glyph glyph-name="K" unicode="K" horiz-adv-x="265" d="M-10 0 L66 0 L91 238 L124 339 L147 0 L223 0 L186 457 L291 741 L217 741 L112 446 L144 741 L69 741 L-10 0 Z " />
<glyph glyph-name="L" unicode="L" horiz-adv-x="211" d="M-8 0 L166 0 L172 70 L73 70 L145 741 L70 741 L-8 0 Z " />
<glyph glyph-name="M" unicode="M" horiz-adv-x="357" d="M-9 0 L59 0 L100 391 L112 508 L109 391 L107 0 L167 0 L245 385 L269 508 L256 385 L215 0 L288 0 L366 741 L263 741 L184 356 L165 251 L168 357 L171 741 L70 741 L-9 0 Z " />
<glyph glyph-name="N" unicode="N" horiz-adv-x="295" d="M-9 0 L62 0 L113 485 L121 370 L154 0 L226 0 L304 741 L233 741 L186 306 L178 435 L152 741 L70 741 L-9 0 Z " />
<glyph glyph-name="O" unicode="O" horiz-adv-x="283" d="M107 -5 C148 -5 175 1 195 21 C233 58 242 148 264 364 C278 496 285 567 285 614 C285 708 265 746 175 746 C134 746 106 738 87 716 C48 676 39 583 18 379 C5 259 -4 180 -4 126 C-4 31 18 -5 107 -5 L107 -5 Z M111 66 C83 66 73 77 73 126 C73 169 81 243 94 372 C123 649 123 671 172 671 C200 671 211 661 211 612 C211 569 202 495 189 367 C159 89 159 66 111 66 L111 66 Z " />
<glyph glyph-name="P" unicode="P" horiz-adv-x="268" d="M-8 0 L67 0 L97 287 L138 287 C236 287 252 362 267 511 C272 553 276 590 276 620 C276 699 252 741 163 741 L70 741 L-8 0 Z M104 356 L138 673 L157 673 C191 673 201 655 201 613 C201 589 198 554 193 510 C180 394 175 356 132 356 L104 356 Z " />
<glyph glyph-name="Q" unicode="Q" horiz-adv-x="283" d="M148 -140 L168 -140 L174 -73 L157 -73 C125 -73 118 -64 122 -30 L124 -2 C156 0 178 7 195 23 C234 60 242 148 264 364 C278 496 285 567 285 614 C285 708 265 746 175 746 C135 746 106 738 87 717 C48 676 39 584 18 379 C5 259 -4 180 -4 126 C-4 51 9 14 58 2 L56 -23 C47 -111 68 -140 148 -140 L148 -140 Z M111 66 C84 66 73 76 73 126 C73 169 81 243 94 372 C123 649 123 671 172 671 C200 671 211 661 211 612 C211 569 202 495 189 367 C159 89 159 66 111 66 L111 66 Z " />
<glyph glyph-name="R" unicode="R" horiz-adv-x="268" d="M133 0 L207 0 L186 311 C243 341 255 412 267 518 C271 557 273 591 273 620 C273 699 251 741 166 741 L70 741 L-8 0 L65 0 L96 297 L114 297 L133 0 Z M103 366 L136 673 L159 673 C189 673 199 655 199 615 C199 591 196 559 191 517 C180 407 173 366 131 366 L103 366 Z " />
<glyph glyph-name="S" unicode="S" horiz-adv-x="233" d="M68 -6 C161 -6 193 47 193 115 C193 140 190 154 184 194 L122 579 C113 633 119 671 170 671 C184 671 203 669 217 665 L241 738 C224 743 207 746 163 746 C80 746 43 693 43 623 C43 594 46 578 50 555 L114 160 C126 84 109 66 66 66 C49 66 18 69 0 74 L-24 3 C-3 -2 32 -6 68 -6 L68 -6 Z " />
<glyph glyph-name="T" unicode="T" horiz-adv-x="233" d="M38 0 L115 0 L185 669 L257 669 L265 741 L46 741 L39 669 L110 669 L38 0 Z " />
<glyph glyph-name="U" unicode="U" horiz-adv-x="293" d="M111 -5 C222 -5 233 63 246 188 L304 741 L231 741 L173 187 C163 97 161 66 116 66 C71 66 75 97 84 187 L142 741 L67 741 L10 188 C-4 64 -7 -5 111 -5 L111 -5 Z " />
<glyph glyph-name="V" unicode="V" horiz-adv-x="270" d="M49 -3 L143 -3 L304 741 L228 741 L142 303 L114 159 L117 305 L120 741 L44 741 L49 -3 Z " />
<glyph glyph-name="W" unicode="W" horiz-adv-x="404" d="M40 -3 L119 -3 L190 357 L212 475 L211 356 L211 -3 L289 -3 L426 741 L354 741 L296 397 L271 248 L274 397 L279 741 L204 741 L141 403 L114 250 L119 403 L130 741 L52 741 L40 -3 Z " />
<glyph glyph-name="X" unicode="X" horiz-adv-x="266" d="M153 0 L224 0 L172 386 L293 741 L221 741 L153 530 L125 741 L52 741 L99 395 L-36 0 L37 0 L118 252 L153 0 Z " />
<glyph glyph-name="Y" unicode="Y" horiz-adv-x="254" d="M52 0 L126 0 L151 240 L294 741 L219 741 L132 398 L118 741 L41 741 L77 249 L52 0 Z " />
<glyph glyph-name="Z" unicode="Z" horiz-adv-x="236" d="M-26 0 L184 0 L191 70 L63 70 L250 675 L256 741 L59 741 L53 668 L171 668 L-19 60 L-26 0 Z " />
<glyph glyph-name="bracketleft" unicode="&#x5b;" horiz-adv-x="223" d="M-6 -145 L133 -145 L139 -83 L74 -83 L155 691 L219 691 L225 756 L88 756 L-6 -145 Z " />
<glyph glyph-name="backslash" unicode="&#x5c;" horiz-adv-x="238" d="M127 0 L198 0 L112 741 L41 741 L127 0 Z " />
<glyph glyph-name="bracketright" unicode="&#x5d;" horiz-adv-x="223" d="M-13 -145 L128 -145 L222 756 L84 756 L77 691 L142 691 L61 -83 L-6 -83 L-13 -145 Z " />
<glyph glyph-name="asciicircum" unicode="&#x5e;" horiz-adv-x="238" d="M49 607 L110 607 L150 677 L178 607 L237 607 L193 729 L119 729 L49 607 Z " />
<glyph glyph-name="underscore" unicode="&#x5f;" horiz-adv-x="183" d="M-66 -112 L148 -112 L153 -57 L-61 -57 L-66 -112 Z " />
<glyph glyph-name="grave" unicode="&#x60;" horiz-adv-x="238" d="M127 607 L186 607 L156 729 L76 729 L127 607 Z " />
<glyph glyph-name="a" unicode="a" horiz-adv-x="250" d="M56 -4 C95 -4 118 3 132 20 C137 6 143 -1 180 -1 C186 -1 197 -1 202 0 L209 70 C187 70 186 76 190 109 L221 411 C232 519 229 561 138 561 C106 561 73 557 53 550 L69 482 C83 486 110 489 124 489 C159 489 157 474 149 397 C36 394 13 359 -7 175 C-11 140 -13 109 -13 87 C-13 28 3 -4 56 -4 L56 -4 Z M80 63 C64 63 58 73 58 101 C58 118 60 142 64 176 C78 312 84 327 142 329 L129 208 C115 74 114 63 80 63 L80 63 Z " />
<glyph glyph-name="b" unicode="b" horiz-adv-x="265" d="M128 -5 C153 -5 169 -1 185 16 C215 45 222 110 239 273 C250 369 256 427 256 466 C256 534 230 561 182 561 C153 561 129 554 116 540 L138 756 L66 756 L-14 1 L49 -2 L60 18 C72 2 96 -5 128 -5 L128 -5 Z M106 63 C84 63 75 74 75 114 C75 146 80 196 89 278 C108 455 110 488 150 488 C172 488 180 481 180 443 C180 413 175 362 166 276 C146 81 145 63 106 63 L106 63 Z " />
<glyph glyph-name="c" unicode="c" horiz-adv-x="193" d="M88 -4 C111 -4 132 -1 147 5 L136 69 C125 66 110 65 100 65 C74 65 67 81 67 115 C67 144 74 211 81 279 C100 464 103 487 143 487 C155 487 166 485 177 482 L202 551 C186 556 168 559 140 559 C34 559 28 497 6 287 C-1 221 -8 149 -8 112 C-8 40 9 -4 88 -4 L88 -4 Z " />
<glyph glyph-name="d" unicode="d" horiz-adv-x="265" d="M65 -5 C105 -5 131 10 140 22 L140 -1 L201 2 L280 756 L207 756 L184 541 C172 555 151 561 119 561 C94 561 78 556 62 541 C31 511 24 446 7 284 C-5 188 -10 129 -10 91 C-10 23 17 -5 65 -5 L65 -5 Z M96 63 C74 63 66 70 66 107 C66 138 72 188 80 275 C101 469 101 487 140 487 C162 487 171 476 171 437 C171 405 165 354 157 272 C138 95 135 63 96 63 L96 63 Z " />
<glyph glyph-name="e" unicode="e" horiz-adv-x="230" d="M88 -5 C119 -5 150 -1 174 9 L158 74 C139 69 117 65 98 65 C78 65 65 72 65 115 C65 136 69 190 74 241 L204 241 L207 276 C216 365 223 424 223 459 C223 526 208 561 134 561 C100 561 75 552 59 534 C28 500 22 440 6 285 C-4 204 -9 150 -9 110 C-9 30 18 -5 88 -5 L88 -5 Z M111 483 C116 488 123 489 131 489 C150 489 154 479 154 452 C154 432 148 379 141 309 L81 309 C92 428 98 467 111 483 L111 483 Z " />
<glyph glyph-name="f" unicode="f" horiz-adv-x="179" d="M22 487 L62 487 L-4 -145 L68 -145 L134 487 L187 487 L194 555 L141 555 L150 636 C155 673 161 685 197 685 L208 685 L215 756 C212 757 199 757 197 757 C112 757 87 728 79 644 L69 555 L28 555 L22 487 Z " />
<glyph glyph-name="g" unicode="g" horiz-adv-x="251" d="M112 199 C198 199 217 233 231 370 C234 403 236 427 236 447 C236 476 232 500 224 515 L259 515 L265 575 L171 558 C160 560 149 561 140 561 C53 561 36 520 22 386 C18 348 16 320 16 298 C16 263 22 238 37 222 C24 202 18 178 18 152 C18 136 20 123 27 111 C-19 90 -32 42 -36 -47 C-39 -113 -11 -150 78 -150 C179 -150 204 -101 208 35 C210 97 191 115 114 136 C90 143 80 150 80 167 C80 177 82 189 87 200 C95 199 103 199 112 199 L112 199 Z M114 263 C93 263 86 273 86 299 C86 317 88 344 93 381 C104 473 105 493 138 493 C160 493 166 482 166 453 C166 436 164 411 160 376 C149 283 146 263 114 263 L114 263 Z M99 68 C128 59 138 51 137 20 C133 -65 126 -86 79 -86 C40 -86 32 -66 34 -34 C37 27 43 61 72 77 C80 74 89 71 99 68 L99 68 Z " />
<glyph glyph-name="h" unicode="h" horiz-adv-x="268" d="M-14 0 L60 0 L99 375 C109 465 119 488 151 488 C181 488 181 473 174 413 L131 0 L204 0 L251 438 C259 514 256 561 181 561 C146 561 127 553 114 540 L138 756 L66 756 L-14 0 Z " />
<glyph glyph-name="i" unicode="i" horiz-adv-x="128" d="M-13 0 L62 0 L120 555 L47 555 L-13 0 Z M54 622 L127 622 L138 726 L65 726 L54 622 Z " />
<glyph glyph-name="j" unicode="j" horiz-adv-x="128" d="M-50 -145 C24 -145 49 -121 56 -54 L120 555 L47 555 L-17 -45 C-20 -69 -21 -75 -44 -75 L-50 -145 Z M54 622 L127 622 L138 726 L65 726 L54 622 Z " />
<glyph glyph-name="k" unicode="k" horiz-adv-x="241" d="M-14 0 L58 0 L75 168 L99 226 L129 0 L202 0 L156 332 L248 555 L177 555 L94 351 L137 756 L66 756 L-14 0 Z " />
<glyph glyph-name="l" unicode="l" horiz-adv-x="147" d="M66 -1 C70 -1 88 -1 93 0 L100 71 L89 71 C72 71 70 77 73 104 L141 756 L67 756 L-2 102 C-8 34 2 -1 66 -1 L66 -1 Z " />
<glyph glyph-name="m" unicode="m" horiz-adv-x="408" d="M-14 0 L59 0 L99 374 C108 463 118 488 150 488 C182 488 179 471 172 412 L129 0 L201 0 L241 374 C249 463 259 488 292 488 C322 488 320 471 314 412 L270 0 L343 0 L390 438 C398 517 395 561 322 561 C284 561 258 550 244 533 C235 552 217 561 178 561 C141 561 117 549 107 533 L106 555 L45 551 L-14 0 Z " />
<glyph glyph-name="n" unicode="n" horiz-adv-x="268" d="M-14 0 L60 0 L99 375 C109 465 119 488 151 488 C181 488 181 473 174 413 L131 0 L204 0 L251 438 C259 514 256 561 181 561 C136 561 116 548 107 533 L106 555 L45 551 L-14 0 Z " />
<glyph glyph-name="o" unicode="o" horiz-adv-x="255" d="M93 -5 C203 -5 207 51 230 272 C239 348 245 405 245 444 C245 522 223 561 142 561 C33 561 28 497 6 287 C-1 224 -8 146 -8 110 C-8 30 13 -5 93 -5 L93 -5 Z M96 63 C73 63 64 73 64 110 C64 140 71 193 79 280 C99 466 99 488 139 488 C163 488 171 478 171 439 C171 409 166 358 158 275 C138 82 137 63 96 63 L96 63 Z " />
<glyph glyph-name="p" unicode="p" horiz-adv-x="265" d="M-28 -145 L45 -145 L62 15 C75 1 96 -4 128 -4 C153 -4 169 0 185 16 C215 45 222 110 239 273 C250 369 256 427 256 466 C256 534 230 561 182 561 C150 561 122 553 107 533 L106 555 L45 551 L-28 -145 Z M106 63 C84 63 75 74 75 114 C75 146 80 196 89 278 C108 455 110 488 150 488 C172 488 180 481 180 443 C180 413 175 362 165 276 C145 81 145 63 106 63 L106 63 Z " />
<glyph glyph-name="q" unicode="q" horiz-adv-x="265" d="M113 -145 L186 -145 L258 552 L197 556 L187 537 C174 554 151 561 119 561 C94 561 77 556 62 541 C31 511 24 446 7 284 C-3 188 -9 129 -9 91 C-9 19 17 -5 65 -5 C91 -5 115 1 130 13 L113 -145 Z M96 63 C74 63 66 70 66 107 C66 138 71 188 81 275 C101 469 101 487 140 487 C162 487 171 476 171 437 C171 405 166 354 157 272 C138 95 136 63 96 63 L96 63 Z " />
<glyph glyph-name="r" unicode="r" horiz-adv-x="165" d="M-14 0 L61 0 L100 370 C110 462 119 483 173 486 L180 558 C140 557 118 546 106 531 L106 555 L45 551 L-14 0 Z " />
<glyph glyph-name="s" unicode="s" horiz-adv-x="197" d="M53 -5 C133 -5 157 42 157 97 C157 124 154 135 148 168 L99 422 C91 461 96 489 131 489 C146 489 162 487 171 485 L195 554 C180 558 157 561 121 561 C48 561 22 513 22 457 C22 433 27 412 31 391 L80 138 C91 80 77 63 41 63 C22 63 4 67 -10 71 L-34 4 C-12 -2 17 -5 53 -5 L53 -5 Z " />
<glyph glyph-name="t" unicode="t" horiz-adv-x="186" d="M106 -1 C111 -1 129 -1 135 0 L142 71 L125 71 C96 71 92 80 96 112 L134 487 L186 487 L194 555 L142 555 L158 707 L94 687 L71 555 L28 555 L22 487 L62 487 L22 106 C14 37 29 -1 106 -1 L106 -1 Z " />
<glyph glyph-name="u" unicode="u" horiz-adv-x="263" d="M96 -5 C193 -5 204 45 215 143 L257 555 L187 555 L144 149 C137 83 137 63 101 63 C65 63 68 83 76 148 L118 555 L45 555 L2 143 C-9 48 -5 -5 96 -5 L96 -5 Z " />
<glyph glyph-name="v" unicode="v" horiz-adv-x="224" d="M28 -4 L119 -4 L241 555 L169 555 L109 245 L90 142 L94 246 L97 555 L22 555 L28 -4 Z " />
<glyph glyph-name="w" unicode="w" horiz-adv-x="348" d="M19 -4 L94 -4 L152 261 L171 357 L171 261 L173 -4 L245 -4 L360 555 L294 555 L248 312 L227 196 L227 312 L226 555 L161 555 L110 317 L85 196 L89 317 L95 555 L26 555 L19 -4 Z " />
<glyph glyph-name="x" unicode="x" horiz-adv-x="230" d="M-39 0 L29 0 L90 176 L119 0 L190 0 L143 285 L241 555 L174 555 L123 406 L99 555 L27 555 L69 298 L-39 0 Z " />
<glyph glyph-name="y" unicode="y" horiz-adv-x="227" d="M-19 -145 L-2 -145 C52 -145 82 -128 97 -67 L243 555 L173 555 L119 300 L97 192 L98 301 L96 555 L22 555 L40 -14 L33 -51 C27 -71 26 -75 0 -75 L-12 -75 L-19 -145 Z " />
<glyph glyph-name="z" unicode="z" horiz-adv-x="195" d="M-31 0 L148 0 L154 64 L54 64 L199 503 L205 555 L33 555 L27 487 L118 487 L-26 52 L-31 0 Z " />
<glyph glyph-name="braceleft" unicode="&#x7b;" horiz-adv-x="237" d="M99 -146 L148 -146 L155 -83 L129 -83 C97 -83 89 -75 94 -28 C99 29 135 174 142 240 C146 273 140 295 119 306 C143 317 152 338 155 371 C162 437 157 580 163 636 C169 683 179 691 210 691 L235 691 L242 756 L193 756 C129 756 99 735 90 650 C83 586 90 441 84 384 C80 345 69 340 27 340 L20 271 C62 271 71 266 67 227 C62 170 25 29 18 -36 C9 -121 36 -146 99 -146 L99 -146 Z " />
<glyph glyph-name="bar" unicode="&#x7c;" horiz-adv-x="165" d="M45 -145 L118 -145 L118 757 L45 757 L45 -145 Z " />
<glyph glyph-name="braceright" unicode="&#x7d;" horiz-adv-x="237" d="M-18 -146 L31 -146 C95 -146 125 -124 135 -40 C141 25 135 170 140 227 C144 266 155 271 197 271 L204 340 C162 340 153 345 157 384 C163 441 200 583 206 647 C216 732 188 756 125 756 L77 756 L70 691 L95 691 C126 691 136 683 131 636 C125 580 89 437 82 371 C79 338 84 317 105 306 C82 295 72 273 69 240 C62 174 67 29 62 -28 C56 -75 46 -83 14 -83 L-12 -83 L-18 -146 Z " />
<glyph glyph-name="asciitilde" unicode="&#x7e;" horiz-adv-x="238" d="M50 402 L105 402 C107 423 112 428 121 428 C135 428 160 402 191 402 C220 402 240 414 246 487 L191 487 C189 466 186 462 176 462 C162 462 136 487 104 487 C79 487 57 474 50 402 L50 402 Z " />
<glyph glyph-name="exclamdown" unicode="&#xa1;" horiz-adv-x="176" d="M8 0 L89 0 L138 535 L72 535 L8 0 Z M76 630 L157 630 L169 741 L88 741 L76 630 Z " />
<glyph glyph-name="cent" unicode="&#xa2;" horiz-adv-x="212" d="M43 -97 L106 -97 L116 -3 C132 -2 146 0 157 5 L147 67 C136 65 120 63 110 63 C84 63 77 81 77 115 C77 144 84 211 91 279 C110 464 113 488 154 488 C166 488 177 486 188 483 L213 551 C203 554 190 557 175 558 L184 643 L120 643 L111 555 C42 538 35 467 17 287 C9 221 2 149 2 112 C2 56 12 17 53 2 L43 -97 Z " />
<glyph glyph-name="sterling" unicode="&#xa3;" horiz-adv-x="267" d="M132 -2 C195 -2 208 22 218 119 L223 161 L162 161 L158 125 C152 71 149 63 123 63 C117 63 111 63 105 64 C111 86 112 114 113 149 L119 348 L183 348 L188 411 L121 411 L127 603 C128 648 136 674 176 674 C194 674 209 672 224 665 L258 730 C234 741 213 746 174 746 C87 746 59 707 56 603 L49 411 L19 411 L13 348 L47 348 L41 154 C40 76 38 70 -16 70 L-23 0 C14 0 41 3 61 11 C80 1 101 -2 132 -2 L132 -2 Z " />
<glyph glyph-name="currency" unicode="&#xa4;" horiz-adv-x="269" d="M15 389 L61 389 C60 385 60 381 60 378 C59 368 58 359 57 350 L10 350 L3 288 L50 288 C43 221 39 166 39 126 C39 37 59 -4 148 -4 C172 -4 195 2 210 7 L195 72 C187 70 169 66 156 66 C125 66 113 79 113 134 C113 166 116 211 124 288 L207 288 L214 350 L130 350 C131 357 132 364 133 372 C133 378 134 383 135 389 L218 389 L225 452 L141 452 C160 623 169 673 218 673 C232 673 250 670 261 667 L283 737 C273 740 248 746 218 746 C173 746 144 734 124 706 C93 667 85 611 68 452 L21 452 L15 389 Z " />
<glyph glyph-name="yen" unicode="&#xa5;" horiz-adv-x="268" d="M12 195 L80 195 L76 157 L9 157 L1 94 L70 94 L60 0 L129 0 L139 94 L207 94 L214 157 L145 157 L149 195 L218 195 L223 257 L156 257 L158 275 L291 741 L216 741 L139 410 L130 741 L55 741 L90 287 L87 257 L18 257 L12 195 Z " />
<glyph glyph-name="brokenbar" unicode="&#xa6;" horiz-adv-x="165" d="M45 386 L118 386 L118 756 L45 756 L45 386 Z M45 -145 L118 -145 L118 226 L45 226 L45 -145 Z " />
<glyph glyph-name="section" unicode="&#xa7;" horiz-adv-x="262" d="M9 0 C104 0 136 24 144 112 L152 187 C216 197 227 242 242 379 C247 424 251 458 251 484 C251 543 227 567 183 574 L188 620 C193 660 201 673 246 673 L255 741 C159 741 128 717 118 629 L113 573 C52 563 37 517 23 384 C18 339 14 304 14 278 C14 216 38 194 81 187 L74 121 C70 81 62 69 16 69 L9 0 Z M118 240 C96 240 87 248 87 284 C87 305 90 336 94 380 C107 499 113 518 147 518 C170 518 179 511 179 473 C179 453 176 423 171 380 C159 260 153 240 118 240 L118 240 Z " />
<glyph glyph-name="dieresis" unicode="&#xa8;" horiz-adv-x="238" d="M62 607 L125 607 L135 700 L72 700 L62 607 Z M162 607 L225 607 L236 700 L172 700 L162 607 Z " />
<glyph glyph-name="copyright" unicode="&#xa9;" horiz-adv-x="320" d="M168 127 C188 127 203 131 216 136 L205 181 C196 178 181 176 171 176 C140 176 137 204 137 366 C137 525 139 557 170 557 C181 557 193 556 204 553 L215 603 C205 605 187 608 169 608 C142 608 123 601 112 589 C85 560 85 495 85 368 C85 238 86 172 112 144 C123 133 142 127 168 127 L168 127 Z M160 -4 C201 -4 230 6 250 26 C292 68 304 165 304 371 C304 568 293 665 255 709 C235 734 204 745 160 745 C117 745 86 735 66 711 C27 667 16 569 16 371 C16 161 28 64 72 24 C93 6 121 -4 160 -4 L160 -4 Z M160 32 C65 32 53 98 53 371 C53 645 66 709 160 709 C254 709 267 645 267 371 C267 98 254 32 160 32 L160 32 Z " />
<glyph glyph-name="ordfeminine" unicode="&#xaa;" horiz-adv-x="232" d="M86 289 C117 289 132 295 141 315 C144 297 156 291 183 291 C187 291 199 291 203 292 L210 351 C192 351 190 356 192 381 L218 624 C227 713 224 746 150 746 C123 746 95 743 78 736 L93 680 C108 685 129 687 140 687 C163 687 164 675 158 613 C63 608 49 569 35 437 C31 410 29 386 29 366 C29 318 42 289 86 289 L86 289 Z M105 344 C93 344 89 352 89 374 C89 388 90 408 94 436 C104 536 109 558 152 560 L142 460 C132 357 132 344 105 344 L105 344 Z M21 180 L171 180 L177 237 L27 237 L21 180 Z " />
<glyph glyph-name="guillemotleft" unicode="&#xab;" horiz-adv-x="308" d="M54 0 L119 0 L91 277 L177 555 L111 555 L22 277 L54 0 Z M166 0 L231 0 L203 277 L289 555 L224 555 L135 277 L166 0 Z " />
<glyph glyph-name="logicalnot" unicode="&#xac;" horiz-adv-x="832" d="M126 120 C126 120 129 123 134 127 C79 193 46 278 46 371 C46 464 79 549 133 615 C129 619 126 621 126 621 C70 554 36 466 36 371 C36 275 70 187 126 120 L126 120 Z M228 211 C230 213 233 215 235 218 C201 259 181 313 181 371 C181 429 202 483 235 524 C232 526 230 529 227 531 C192 487 171 432 171 371 C171 310 193 254 228 211 L228 211 Z M264 243 C267 245 269 248 272 250 C245 283 229 325 229 371 C229 417 245 459 272 492 C269 494 267 497 264 499 C236 464 219 419 219 371 C219 322 236 278 264 243 L264 243 Z M316 289 C319 291 321 294 324 296 C308 317 298 343 298 371 C298 399 308 425 323 445 C321 448 318 450 316 452 C298 430 288 402 288 371 C288 340 298 312 316 289 L316 289 Z M349 320 C352 323 354 325 357 327 C348 340 343 355 343 371 C343 387 348 402 357 415 C354 417 352 420 349 422 C339 408 333 390 333 371 C333 352 339 334 349 320 L349 320 Z M378 346 C382 349 384 351 384 351 C381 357 379 364 379 371 C379 378 381 385 384 391 C384 391 382 393 378 396 C374 389 371 380 371 371 C371 362 374 353 378 346 L378 346 Z M416 60 C493 60 563 89 616 136 C614 139 611 141 609 144 C558 98 490 70 416 70 C342 70 274 98 222 144 C222 145 215 137 215 137 C268 89 338 60 416 60 L416 60 Z M416 324 C426 324 435 327 442 333 C439 337 437 339 437 339 C431 334 424 332 416 332 C408 332 401 335 395 339 C395 339 391 334 389 333 C397 327 406 324 416 324 L416 324 Z M482 319 C493 334 499 352 499 371 C499 390 493 408 482 422 C483 422 475 415 475 415 C484 403 489 388 489 371 C489 355 484 339 475 326 C478 324 480 322 482 319 L482 319 Z M292 269 C295 271 298 274 300 276 C280 302 267 335 267 371 C267 407 280 440 300 466 L293 473 C270 445 257 410 257 371 C257 333 270 297 292 269 L292 269 Z M416 -17 C512 -17 600 19 667 80 C667 80 660 88 660 87 C595 29 510 -7 416 -7 C322 -7 236 29 171 88 L164 80 C231 20 320 -17 416 -17 L416 -17 Z M416 121 C478 121 534 144 576 182 C574 185 571 187 569 190 C529 153 475 131 416 131 C357 131 303 153 262 190 L255 182 C298 144 354 121 416 121 L416 121 Z M416 170 C465 170 510 188 544 218 C542 221 539 223 537 226 C505 197 462 180 416 180 C369 180 327 197 294 226 L287 219 C322 189 367 170 416 170 L416 170 Z M416 209 C455 209 491 224 518 247 C516 250 514 253 512 255 C486 233 452 219 416 219 C380 219 346 233 320 255 L313 247 C341 224 377 209 416 209 L416 209 Z M416 265 C441 265 463 274 481 289 C479 292 476 294 474 297 C458 283 438 275 416 275 C394 275 373 283 357 297 L350 289 C368 274 391 265 416 265 L416 265 Z M358 445 C374 459 394 467 416 467 C438 467 458 459 474 445 L482 453 C464 468 441 477 416 477 C391 477 368 468 350 453 C351 452 354 448 358 445 L358 445 Z M570 552 C572 554 575 557 577 560 C534 598 478 621 416 621 C355 621 299 598 256 560 L263 553 C304 589 357 611 416 611 C475 611 529 589 570 552 L570 552 Z M454 346 C458 353 461 362 461 371 C461 380 458 389 454 396 L448 391 C451 385 453 378 453 371 C453 364 451 357 448 351 C448 351 450 349 454 346 L454 346 Z M468 333 C476 344 480 357 480 371 C480 385 476 398 468 409 L460 402 C466 393 470 382 470 371 C470 360 466 349 460 340 C463 338 465 336 468 333 L468 333 Z M498 306 C511 325 519 347 519 371 C519 395 511 418 497 436 L490 429 C502 413 509 393 509 371 C509 349 502 329 490 313 C492 311 495 308 498 306 L498 306 Z M540 269 C562 297 575 332 575 371 C575 410 562 445 539 473 L531 466 C552 440 565 407 565 371 C565 335 552 302 532 276 C535 274 537 271 540 269 L540 269 Z M568 243 C596 278 613 322 613 371 C613 420 596 464 568 499 L560 492 C587 459 603 417 603 371 C603 325 587 283 560 250 C563 248 566 245 568 243 L568 243 Z M604 211 C640 254 661 310 661 371 C661 432 640 488 604 531 L596 524 C631 483 651 429 651 371 C651 313 631 260 596 218 C601 213 604 211 604 211 L604 211 Z M649 171 C694 225 721 295 721 371 C721 447 694 517 649 571 L641 564 C685 512 711 445 711 371 C711 297 685 230 642 177 C644 175 647 173 649 171 L649 171 Z M706 120 C762 188 796 276 796 371 C796 467 762 555 706 622 L698 615 C753 549 786 464 786 371 C786 278 753 193 698 127 C703 123 706 120 706 120 L706 120 Z M183 170 L190 177 C147 229 121 297 121 371 C121 444 147 512 190 564 C187 567 184 569 182 571 C138 517 111 447 111 371 C111 294 138 225 183 170 L183 170 Z M334 306 L342 314 C330 330 323 350 323 371 C323 393 330 413 342 429 C340 431 337 434 334 436 C321 418 313 395 313 371 C313 346 321 324 334 306 L334 306 Z M364 333 L371 340 C366 349 362 360 362 371 C362 382 366 393 371 402 C369 404 366 406 364 409 C356 398 352 385 352 371 C352 357 356 344 364 333 L364 333 Z M395 403 C401 408 408 410 416 410 C424 410 431 407 437 403 C437 403 439 406 442 409 C435 415 426 418 416 418 C406 418 397 415 390 409 L395 403 Z M384 416 C393 423 404 428 416 428 C428 428 439 424 448 416 C450 419 452 421 454 423 C443 432 430 437 416 437 C401 437 388 432 377 423 L384 416 Z M371 430 C383 441 399 447 416 447 C433 447 449 441 461 430 C461 430 464 434 468 438 C454 450 436 457 416 457 C397 457 378 450 364 438 L371 430 Z M295 516 C327 545 370 562 416 562 C462 562 505 545 538 516 C538 516 545 523 544 523 C510 554 465 572 416 572 C367 572 322 554 288 524 L295 516 Z M416 240 C448 240 476 252 498 271 L491 278 C471 261 445 250 416 250 C388 250 361 261 340 278 L333 270 C355 251 384 240 416 240 L416 240 Z M416 285 C436 285 454 292 468 304 L461 312 C448 301 433 295 416 295 C399 295 383 302 370 312 L363 304 C378 292 396 285 416 285 L416 285 Z M416 305 C430 305 444 310 455 319 L448 326 C439 319 428 314 416 314 C404 314 393 319 383 326 L376 319 C388 310 401 305 416 305 L416 305 Z M341 464 C362 482 388 492 416 492 C445 492 471 481 491 464 L498 472 C476 491 447 502 416 502 C385 502 356 490 334 471 L341 464 Z M320 487 C346 509 380 523 416 523 C453 523 486 510 512 487 L518 494 C491 518 455 533 416 533 C377 533 341 519 313 495 L320 487 Z M610 597 L617 605 C563 653 493 682 416 682 C339 682 269 653 215 605 L222 598 C274 644 342 672 416 672 C491 672 559 644 610 597 L610 597 Z M172 654 C237 713 322 749 416 749 C510 749 596 713 661 654 L668 662 C601 722 512 759 416 759 C320 759 232 723 165 662 L172 654 Z M516 290 C534 312 544 340 544 371 C544 402 534 430 516 453 L508 446 C524 425 534 399 534 371 C534 343 524 317 509 297 L516 290 Z " />
<glyph glyph-name="registered" unicode="&#xae;" horiz-adv-x="320" d="M160 -4 C201 -4 230 6 250 26 C292 68 304 165 304 371 C304 568 293 665 255 709 C235 734 204 745 160 745 C117 745 86 735 66 711 C27 667 16 569 16 371 C16 161 28 64 72 24 C93 6 121 -4 160 -4 L160 -4 Z M160 32 C65 32 53 98 53 371 C53 645 66 709 160 709 C254 709 267 645 267 371 C267 98 254 32 160 32 L160 32 Z M180 141 L227 141 L193 336 C228 354 232 397 232 465 C232 555 226 600 162 600 L92 600 L92 141 L138 141 L138 329 L148 329 L180 141 Z M138 370 L138 556 L157 556 C184 556 185 531 185 462 C185 394 184 370 157 370 L138 370 Z " />
<glyph glyph-name="&amp;#xaf;" unicode="&#xaf;" horiz-adv-x="238" d="M61 608 L227 608 L235 675 L68 675 L61 608 Z " />
<glyph glyph-name="&amp;#x2c9;" unicode="&#x2c9;" horiz-adv-x="238" d="M61 608 L227 608 L235 675 L68 675 L61 608 Z " />
<glyph glyph-name="degree" unicode="&#xb0;" horiz-adv-x="239" d="M111 284 C200 284 210 325 230 512 C237 573 241 618 241 650 C241 720 221 746 158 746 C70 746 59 701 40 517 C35 467 29 411 29 380 C29 308 52 284 111 284 L111 284 Z M117 347 C100 347 93 355 93 390 C93 415 97 453 103 513 C118 655 123 678 152 678 C169 678 176 671 176 636 C176 612 172 573 166 513 C151 371 146 347 117 347 L117 347 Z " />
<glyph glyph-name="plusminus" unicode="&#xb1;" horiz-adv-x="452" d="M136 -145 L209 -145 L275 487 L316 487 L323 555 L282 555 L291 636 C295 673 301 685 333 685 L337 685 L344 756 C340 757 333 757 329 757 C252 757 227 728 219 644 L209 555 L139 555 L148 636 C152 673 159 685 190 685 L194 685 L201 756 C198 757 190 757 187 757 C110 757 85 728 76 644 L66 555 L26 555 L20 487 L59 487 L-8 -145 L66 -145 L132 487 L202 487 L136 -145 Z M372 -1 C376 -1 393 -1 398 0 L405 71 L395 71 C378 71 375 77 378 104 L446 756 L373 756 L305 102 C298 34 305 -1 372 -1 L372 -1 Z " />
<glyph glyph-name="twosuperior" unicode="&#xb2;" horiz-adv-x="223" d="M28 277 L174 277 L179 331 L96 331 L200 611 C209 635 216 655 216 685 C216 726 195 744 138 744 C108 744 87 741 73 734 L87 681 C98 685 112 687 128 687 C147 687 155 681 155 667 C155 657 152 648 147 635 L33 331 L28 277 Z " />
<glyph glyph-name="threesuperior" unicode="&#xb3;" horiz-adv-x="215" d="M82 274 C112 274 132 280 145 292 C167 310 172 347 179 411 C187 491 191 522 168 534 C189 547 192 574 199 639 C204 682 203 711 191 726 C181 739 164 744 134 744 C116 744 93 743 71 737 L80 683 C95 687 112 687 119 687 C145 687 146 677 140 627 C134 562 131 555 96 555 L77 555 L71 498 L86 498 C127 498 129 494 120 413 C113 342 110 331 78 331 C67 331 55 334 41 338 L20 284 C38 277 66 274 82 274 L82 274 Z " />
<glyph glyph-name="acute" unicode="&#xb4;" horiz-adv-x="238" d="M101 607 L161 607 L239 729 L158 729 L101 607 Z " />
<glyph glyph-name="&amp;#xb5;" unicode="&#xb5;" horiz-adv-x="265" d="M-29 -145 L45 -145 L60 7 C67 0 79 -5 97 -5 C192 -5 207 41 217 150 L260 555 L188 555 L146 157 C138 76 134 63 100 63 C67 63 70 89 77 164 L118 555 L45 555 L-29 -145 Z " />
<glyph glyph-name="&amp;#x3bc;" unicode="&#x3bc;" horiz-adv-x="265" d="M-29 -145 L45 -145 L60 7 C67 0 79 -5 97 -5 C192 -5 207 41 217 150 L260 555 L188 555 L146 157 C138 76 134 63 100 63 C67 63 70 89 77 164 L118 555 L45 555 L-29 -145 Z " />
<glyph glyph-name="paragraph" unicode="&#xb6;" horiz-adv-x="271" d="M42 0 L111 0 L142 295 L163 295 L133 0 L202 0 L280 741 L163 741 C63 741 49 667 35 526 C31 486 27 450 27 420 C27 362 38 322 74 304 L42 0 Z M140 356 C109 356 99 376 99 422 C99 444 103 480 106 513 C118 630 125 673 173 673 L203 673 L171 356 L140 356 Z " />
<glyph glyph-name="&amp;#xb7;" unicode="&#xb7;" horiz-adv-x="133" d="M18 291 L99 291 L111 404 L30 404 L18 291 Z " />
<glyph glyph-name="&amp;#x2219;" unicode="&#x2219;" horiz-adv-x="133" d="M18 291 L99 291 L111 404 L30 404 L18 291 Z " />
<glyph glyph-name="cedilla" unicode="&#xb8;" horiz-adv-x="238" d="M76 -184 C123 -184 141 -171 149 -104 C154 -49 136 -35 102 -37 L115 8 L71 8 L56 -51 L71 -65 C95 -64 104 -66 101 -97 C97 -131 93 -136 69 -136 C58 -136 46 -135 33 -130 L15 -175 C36 -182 50 -184 76 -184 L76 -184 Z " />
<glyph glyph-name="onesuperior" unicode="&#xb9;" horiz-adv-x="190" d="M61 277 L124 277 L173 741 L74 741 L68 683 L104 683 L61 277 Z " />
<glyph glyph-name="ordmasculine" unicode="&#xba;" horiz-adv-x="234" d="M116 287 C194 287 204 338 223 514 C227 549 233 626 233 650 C233 716 217 746 150 746 C67 746 59 692 41 522 C34 461 30 415 30 383 C30 317 45 287 116 287 L116 287 Z M114 345 C99 345 92 352 92 387 C92 412 95 452 103 516 C118 667 122 686 149 686 C165 686 172 679 172 643 C172 624 165 556 161 516 C145 366 140 345 114 345 L114 345 Z M19 180 L174 180 L180 237 L26 237 L19 180 Z " />
<glyph glyph-name="guillemotright" unicode="&#xbb;" horiz-adv-x="308" d="M0 0 L66 0 L154 277 L123 555 L59 555 L86 277 L0 0 Z M113 0 L177 0 L266 277 L236 555 L170 555 L198 277 L113 0 Z " />
<glyph glyph-name="onequarter" unicode="&#xbc;" horiz-adv-x="420" d="M50 0 L117 0 L346 741 L279 741 L50 0 Z M198 89 L288 89 L279 0 L336 0 L345 89 L373 89 L378 143 L351 143 L363 255 L324 255 L295 143 L263 143 L373 465 L315 465 L203 140 L198 89 Z M44 277 L108 277 L157 741 L58 741 L52 683 L87 683 L44 277 Z " />
<glyph glyph-name="onehalf" unicode="&#xbd;" horiz-adv-x="442" d="M50 0 L117 0 L346 741 L279 741 L50 0 Z M44 277 L108 277 L157 741 L58 741 L52 683 L87 683 L44 277 Z M228 0 L375 0 L380 54 L297 54 L401 334 C410 357 417 378 417 408 C417 449 395 467 338 467 C309 467 287 464 273 457 L288 405 C299 409 313 410 329 410 C348 410 356 404 356 390 C356 380 352 371 348 358 L234 54 L228 0 Z " />
<glyph glyph-name="threequarters" unicode="&#xbe;" horiz-adv-x="453" d="M82 0 L149 0 L378 741 L311 741 L82 0 Z M232 89 L320 89 L310 0 L367 0 L376 89 L405 89 L411 143 L382 143 L394 255 L355 255 L327 143 L295 143 L405 465 L348 465 L237 140 L232 89 Z M70 274 C100 274 120 280 134 292 C156 310 161 347 167 411 C176 491 179 522 156 534 C177 547 181 574 188 639 C192 682 192 711 179 726 C170 739 151 744 122 744 C104 744 81 743 59 737 L68 683 C82 687 100 687 107 687 C134 687 134 677 128 627 C122 562 118 555 84 555 L65 555 L59 498 L76 498 C116 498 118 494 109 413 C101 342 98 331 67 331 C54 331 43 334 29 338 L8 284 C26 277 55 274 70 274 L70 274 Z " />
<glyph glyph-name="questiondown" unicode="&#xbf;" horiz-adv-x="234" d="M95 -5 C138 -5 168 1 188 9 L165 76 C153 72 133 67 106 67 C56 67 60 104 80 161 L146 349 C170 417 172 447 180 534 L108 534 C102 461 98 428 77 366 L16 186 C-1 136 -9 114 -9 77 C-9 30 17 -5 95 -5 L95 -5 Z M113 639 L193 639 L204 741 L124 741 L113 639 Z " />
<glyph glyph-name="Agrave" unicode="&#xc0;" horiz-adv-x="272" d="M-34 0 L41 0 L72 158 L152 158 L151 0 L228 0 L217 744 L131 744 L-34 0 Z M88 231 L137 474 L156 572 L153 474 L152 231 L88 231 Z M161 779 L220 779 L190 901 L110 901 L161 779 Z " />
<glyph glyph-name="Aacute" unicode="&#xc1;" horiz-adv-x="272" d="M-34 0 L41 0 L72 158 L152 158 L151 0 L228 0 L217 744 L131 744 L-34 0 Z M88 231 L137 474 L156 572 L153 474 L152 231 L88 231 Z M135 779 L195 779 L273 901 L192 901 L135 779 Z " />
<glyph glyph-name="Acircumflex" unicode="&#xc2;" horiz-adv-x="272" d="M-34 0 L41 0 L72 158 L152 158 L151 0 L228 0 L217 744 L131 744 L-34 0 Z M88 231 L137 474 L156 572 L153 474 L152 231 L88 231 Z M83 779 L144 779 L184 849 L212 779 L271 779 L227 901 L153 901 L83 779 Z " />
<glyph glyph-name="Atilde" unicode="&#xc3;" horiz-adv-x="272" d="M-34 0 L41 0 L72 158 L152 158 L151 0 L228 0 L217 744 L131 744 L-34 0 Z M88 231 L137 474 L156 572 L153 474 L152 231 L88 231 Z M84 779 L139 779 C141 800 146 805 155 805 C169 805 194 779 225 779 C254 779 274 791 280 864 L225 864 C223 843 220 839 210 839 C196 839 170 864 138 864 C113 864 91 851 84 779 L84 779 Z " />
<glyph glyph-name="Adieresis" unicode="&#xc4;" horiz-adv-x="272" d="M-34 0 L41 0 L72 158 L152 158 L151 0 L228 0 L217 744 L131 744 L-34 0 Z M88 231 L137 474 L156 572 L153 474 L152 231 L88 231 Z M96 779 L159 779 L169 872 L106 872 L96 779 Z M196 779 L259 779 L270 872 L206 872 L196 779 Z " />
<glyph glyph-name="Aring" unicode="&#xc5;" horiz-adv-x="272" d="M-34 0 L41 0 L72 158 L152 158 L151 0 L228 0 L217 722 C233 736 237 760 240 791 C246 842 244 880 186 880 C133 880 124 847 119 796 C115 766 114 741 126 725 L-34 0 Z M88 231 L137 474 L156 572 L153 474 L152 231 L88 231 Z M175 745 C156 745 155 756 159 792 C162 829 165 841 184 841 C203 841 204 829 201 792 C197 756 193 745 175 745 L175 745 Z " />
<glyph glyph-name="AE" unicode="&#xc6;" horiz-adv-x="381" d="M-35 0 L40 0 L85 171 L162 171 L144 0 L323 0 L330 70 L225 70 L253 343 L351 343 L359 414 L261 414 L287 668 L392 668 L400 741 L175 741 L-35 0 Z M102 233 L213 655 L169 233 L102 233 Z " />
<glyph glyph-name="Ccedilla" unicode="&#xc7;" horiz-adv-x="212" d="M65 -184 C112 -184 130 -171 138 -104 C143 -49 125 -35 91 -37 L100 -5 L112 -5 C135 -5 160 -2 174 5 L163 72 C152 69 134 67 121 67 C87 67 75 78 75 132 C75 177 85 270 96 372 C125 644 126 671 179 671 C196 671 214 669 226 666 L249 737 C239 740 215 745 180 745 C135 745 107 736 86 715 C45 673 38 568 19 379 C8 271 -2 184 -2 127 C-2 56 9 15 58 1 L45 -51 L60 -65 C84 -64 93 -66 90 -97 C86 -131 82 -136 58 -136 C47 -136 35 -135 22 -130 L4 -175 C25 -182 39 -184 65 -184 L65 -184 Z " />
<glyph glyph-name="Egrave" unicode="&#xc8;" horiz-adv-x="230" d="M-8 0 L172 0 L179 70 L73 70 L102 343 L205 343 L212 414 L110 414 L137 668 L242 668 L250 741 L70 741 L-8 0 Z M141 779 L200 779 L170 901 L90 901 L141 779 Z " />
<glyph glyph-name="Eacute" unicode="&#xc9;" horiz-adv-x="230" d="M115 779 L175 779 L253 901 L172 901 L115 779 Z M-8 0 L172 0 L179 70 L73 70 L102 343 L205 343 L212 414 L110 414 L137 668 L242 668 L250 741 L70 741 L-8 0 Z " />
<glyph glyph-name="Ecircumflex" unicode="&#xca;" horiz-adv-x="230" d="M63 779 L124 779 L164 849 L192 779 L251 779 L207 901 L133 901 L63 779 Z M-8 0 L172 0 L179 70 L73 70 L102 343 L205 343 L212 414 L110 414 L137 668 L242 668 L250 741 L70 741 L-8 0 Z " />
<glyph glyph-name="Edieresis" unicode="&#xcb;" horiz-adv-x="230" d="M76 779 L139 779 L149 872 L86 872 L76 779 Z M176 779 L239 779 L250 872 L186 872 L176 779 Z M-8 0 L172 0 L179 70 L73 70 L102 343 L205 343 L212 414 L110 414 L137 668 L242 668 L250 741 L70 741 L-8 0 Z " />
<glyph glyph-name="Igrave" unicode="&#xcc;" horiz-adv-x="141" d="M85 779 L145 779 L125 902 L46 902 L85 779 Z M-7 0 L68 0 L146 741 L71 741 L-7 0 Z " />
<glyph glyph-name="Iacute" unicode="&#xcd;" horiz-adv-x="141" d="M80 779 L141 779 L209 902 L126 902 L80 779 Z M-7 0 L68 0 L146 741 L71 741 L-7 0 Z " />
<glyph glyph-name="Icircumflex" unicode="&#xce;" horiz-adv-x="141" d="M-7 0 L68 0 L146 741 L71 741 L-7 0 Z M19 779 L80 779 L120 849 L148 779 L207 779 L163 901 L89 901 L19 779 Z " />
<glyph glyph-name="Idieresis" unicode="&#xcf;" horiz-adv-x="141" d="M-7 0 L68 0 L146 741 L71 741 L-7 0 Z M32 779 L95 779 L105 872 L42 872 L32 779 Z M132 779 L195 779 L206 872 L142 872 L132 779 Z " />
<glyph glyph-name="Eth" unicode="&#xd0;" horiz-adv-x="285" d="M0 346 L28 346 L-8 0 L108 0 C149 0 180 8 201 35 C236 77 243 141 266 364 C280 490 287 564 287 612 C287 707 255 741 181 741 L70 741 L35 412 L9 412 L0 346 Z M75 67 L104 346 L147 346 L154 412 L111 412 L138 672 L171 672 C195 672 212 661 212 605 C212 574 202 468 192 368 C170 167 163 110 143 85 C134 70 120 67 104 67 L75 67 Z " />
<glyph glyph-name="Ntilde" unicode="&#xd1;" horiz-adv-x="295" d="M-9 0 L62 0 L113 485 L121 370 L154 0 L226 0 L304 741 L233 741 L186 306 L178 435 L152 741 L70 741 L-9 0 Z M96 779 L151 779 C153 800 158 805 167 805 C181 805 206 779 237 779 C266 779 286 791 292 864 L237 864 C235 843 232 839 222 839 C208 839 182 864 150 864 C125 864 103 851 96 779 L96 779 Z " />
<glyph glyph-name="Ograve" unicode="&#xd2;" horiz-adv-x="283" d="M107 -5 C148 -5 175 1 195 21 C233 58 242 148 264 364 C278 496 285 567 285 614 C285 708 265 746 175 746 C134 746 106 738 87 716 C48 676 39 583 18 379 C5 259 -4 180 -4 126 C-4 31 18 -5 107 -5 L107 -5 Z M111 66 C83 66 73 77 73 126 C73 169 81 243 94 372 C123 649 123 671 172 671 C200 671 211 661 211 612 C211 569 202 495 189 367 C159 89 159 66 111 66 L111 66 Z M167 779 L226 779 L196 901 L116 901 L167 779 Z " />
<glyph glyph-name="Oacute" unicode="&#xd3;" horiz-adv-x="283" d="M141 779 L201 779 L279 901 L198 901 L141 779 Z M107 -5 C148 -5 175 1 195 21 C233 58 242 148 264 364 C278 496 285 567 285 614 C285 708 265 746 175 746 C134 746 106 738 87 716 C48 676 39 583 18 379 C5 259 -4 180 -4 126 C-4 31 18 -5 107 -5 L107 -5 Z M111 66 C83 66 73 77 73 126 C73 169 81 243 94 372 C123 649 123 671 172 671 C200 671 211 661 211 612 C211 569 202 495 189 367 C159 89 159 66 111 66 L111 66 Z " />
<glyph glyph-name="Ocircumflex" unicode="&#xd4;" horiz-adv-x="283" d="M89 779 L150 779 L190 849 L218 779 L277 779 L233 901 L159 901 L89 779 Z M107 -5 C148 -5 175 1 195 21 C233 58 242 148 264 364 C278 496 285 567 285 614 C285 708 265 746 175 746 C134 746 106 738 87 716 C48 676 39 583 18 379 C5 259 -4 180 -4 126 C-4 31 18 -5 107 -5 L107 -5 Z M111 66 C83 66 73 77 73 126 C73 169 81 243 94 372 C123 649 123 671 172 671 C200 671 211 661 211 612 C211 569 202 495 189 367 C159 89 159 66 111 66 L111 66 Z " />
<glyph glyph-name="Otilde" unicode="&#xd5;" horiz-adv-x="283" d="M107 -5 C148 -5 175 1 195 21 C233 58 242 148 264 364 C278 496 285 567 285 614 C285 708 265 746 175 746 C134 746 106 738 87 716 C48 676 39 583 18 379 C5 259 -4 180 -4 126 C-4 31 18 -5 107 -5 L107 -5 Z M111 66 C83 66 73 77 73 126 C73 169 81 243 94 372 C123 649 123 671 172 671 C200 671 211 661 211 612 C211 569 202 495 189 367 C159 89 159 66 111 66 L111 66 Z M90 779 L145 779 C147 800 152 805 161 805 C175 805 200 779 231 779 C260 779 280 791 286 864 L231 864 C229 843 226 839 216 839 C202 839 176 864 144 864 C119 864 97 851 90 779 L90 779 Z " />
<glyph glyph-name="Odieresis" unicode="&#xd6;" horiz-adv-x="283" d="M102 779 L165 779 L175 872 L112 872 L102 779 Z M202 779 L265 779 L276 872 L212 872 L202 779 Z M107 -5 C148 -5 175 1 195 21 C233 58 242 148 264 364 C278 496 285 567 285 614 C285 708 265 746 175 746 C134 746 106 738 87 716 C48 676 39 583 18 379 C5 259 -4 180 -4 126 C-4 31 18 -5 107 -5 L107 -5 Z M111 66 C83 66 73 77 73 126 C73 169 81 243 94 372 C123 649 123 671 172 671 C200 671 211 661 211 612 C211 569 202 495 189 367 C159 89 159 66 111 66 L111 66 Z " />
<glyph glyph-name="multiply" unicode="&#xd7;" horiz-adv-x="293" d="M71 254 L142 318 L200 254 L248 298 L190 362 L262 427 L222 471 L150 406 L93 471 L44 427 L102 363 L30 298 L71 254 Z " />
<glyph glyph-name="Oslash" unicode="&#xd8;" horiz-adv-x="283" d="M106 -5 C148 -5 175 1 195 21 C234 58 242 148 264 364 C278 496 286 567 286 614 C286 667 279 702 257 723 L273 783 L213 783 L203 744 C195 745 186 746 176 746 C134 746 106 738 86 716 C49 676 39 583 18 379 C6 259 -2 180 -2 126 C-2 73 4 38 25 18 L11 -41 L70 -41 L79 -4 C87 -5 96 -5 106 -5 L106 -5 Z M110 57 C103 57 97 58 92 59 L211 550 C207 506 201 447 193 367 C162 81 159 57 110 57 L110 57 Z M91 372 C121 658 124 680 173 680 C179 680 185 680 190 678 L72 196 C76 239 83 296 91 372 L91 372 Z " />
<glyph glyph-name="Ugrave" unicode="&#xd9;" horiz-adv-x="293" d="M111 -5 C222 -5 233 63 246 188 L304 741 L231 741 L173 187 C163 97 161 66 116 66 C71 66 75 97 84 187 L142 741 L67 741 L10 188 C-4 64 -7 -5 111 -5 L111 -5 Z M172 779 L231 779 L201 901 L121 901 L172 779 Z " />
<glyph glyph-name="Uacute" unicode="&#xda;" horiz-adv-x="293" d="M146 779 L206 779 L284 901 L203 901 L146 779 Z M111 -5 C222 -5 233 63 246 188 L304 741 L231 741 L173 187 C163 97 161 66 116 66 C71 66 75 97 84 187 L142 741 L67 741 L10 188 C-4 64 -7 -5 111 -5 L111 -5 Z " />
<glyph glyph-name="Ucircumflex" unicode="&#xdb;" horiz-adv-x="293" d="M94 779 L155 779 L195 849 L223 779 L282 779 L238 901 L164 901 L94 779 Z M111 -5 C222 -5 233 63 246 188 L304 741 L231 741 L173 187 C163 97 161 66 116 66 C71 66 75 97 84 187 L142 741 L67 741 L10 188 C-4 64 -7 -5 111 -5 L111 -5 Z " />
<glyph glyph-name="Udieresis" unicode="&#xdc;" horiz-adv-x="293" d="M107 779 L170 779 L180 872 L117 872 L107 779 Z M207 779 L270 779 L281 872 L217 872 L207 779 Z M111 -5 C222 -5 233 63 246 188 L304 741 L231 741 L173 187 C163 97 161 66 116 66 C71 66 75 97 84 187 L142 741 L67 741 L10 188 C-4 64 -7 -5 111 -5 L111 -5 Z " />
<glyph glyph-name="Yacute" unicode="&#xdd;" horiz-adv-x="254" d="M52 0 L126 0 L151 240 L294 741 L219 741 L132 398 L118 741 L41 741 L77 249 L52 0 Z M127 779 L187 779 L265 901 L184 901 L127 779 Z " />
<glyph glyph-name="Thorn" unicode="&#xde;" horiz-adv-x="269" d="M-8 0 L67 0 L83 162 L125 162 C225 162 238 234 255 383 C259 425 262 462 262 492 C262 571 239 613 150 613 L130 613 L145 741 L70 741 L-8 0 Z M90 227 L123 544 L144 544 C177 544 187 526 187 484 C187 460 184 426 179 382 C167 265 161 227 119 227 L90 227 Z " />
<glyph glyph-name="germandbls" unicode="&#xdf;" horiz-adv-x="266" d="M-29 -145 L45 -145 L127 641 C131 675 135 695 171 695 C193 695 202 688 202 652 C202 630 199 599 194 552 C181 429 176 420 141 420 L133 420 L126 353 L136 353 C163 353 172 345 172 297 C172 276 171 248 167 207 C152 68 140 66 105 66 L96 66 L88 0 L99 0 C198 0 216 15 235 195 C240 248 243 285 243 313 C243 361 234 380 213 393 C240 409 250 445 262 562 C267 607 269 639 269 664 C269 740 246 762 177 762 C93 762 63 728 55 645 L-29 -145 Z " />
<glyph glyph-name="agrave" unicode="&#xe0;" horiz-adv-x="250" d="M56 -4 C95 -4 118 3 132 20 C137 6 143 -1 180 -1 C186 -1 197 -1 202 0 L209 70 C187 70 186 76 190 109 L221 411 C232 519 229 561 138 561 C106 561 73 557 53 550 L69 482 C83 486 110 489 124 489 C159 489 157 474 149 397 C36 394 13 359 -7 175 C-11 140 -13 109 -13 87 C-13 28 3 -4 56 -4 L56 -4 Z M80 63 C64 63 58 73 58 101 C58 118 60 142 64 176 C78 312 84 327 142 329 L129 208 C115 74 114 63 80 63 L80 63 Z M132 607 L191 607 L161 729 L81 729 L132 607 Z " />
<glyph glyph-name="aacute" unicode="&#xe1;" horiz-adv-x="250" d="M56 -4 C95 -4 118 3 132 20 C137 6 143 -1 180 -1 C186 -1 197 -1 202 0 L209 70 C187 70 186 76 190 109 L221 411 C232 519 229 561 138 561 C106 561 73 557 53 550 L69 482 C83 486 110 489 124 489 C159 489 157 474 149 397 C36 394 13 359 -7 175 C-11 140 -13 109 -13 87 C-13 28 3 -4 56 -4 L56 -4 Z M80 63 C64 63 58 73 58 101 C58 118 60 142 64 176 C78 312 84 327 142 329 L129 208 C115 74 114 63 80 63 L80 63 Z M106 607 L166 607 L244 729 L163 729 L106 607 Z " />
<glyph glyph-name="acircumflex" unicode="&#xe2;" horiz-adv-x="250" d="M56 -4 C95 -4 118 3 132 20 C137 6 143 -1 180 -1 C186 -1 197 -1 202 0 L209 70 C187 70 186 76 190 109 L221 411 C232 519 229 561 138 561 C106 561 73 557 53 550 L69 482 C83 486 110 489 124 489 C159 489 157 474 149 397 C36 394 13 359 -7 175 C-11 140 -13 109 -13 87 C-13 28 3 -4 56 -4 L56 -4 Z M80 63 C64 63 58 73 58 101 C58 118 60 142 64 176 C78 312 84 327 142 329 L129 208 C115 74 114 63 80 63 L80 63 Z M54 607 L115 607 L155 677 L183 607 L242 607 L198 729 L124 729 L54 607 Z " />
<glyph glyph-name="atilde" unicode="&#xe3;" horiz-adv-x="250" d="M56 -4 C95 -4 118 3 132 20 C137 6 143 -1 180 -1 C186 -1 197 -1 202 0 L209 70 C187 70 186 76 190 109 L221 411 C232 519 229 561 138 561 C106 561 73 557 53 550 L69 482 C83 486 110 489 124 489 C159 489 157 474 149 397 C36 394 13 359 -7 175 C-11 140 -13 109 -13 87 C-13 28 3 -4 56 -4 L56 -4 Z M80 63 C64 63 58 73 58 101 C58 118 60 142 64 176 C78 312 84 327 142 329 L129 208 C115 74 114 63 80 63 L80 63 Z M55 607 L110 607 C112 628 117 633 126 633 C140 633 165 607 196 607 C225 607 245 619 251 692 L196 692 C194 671 191 667 181 667 C167 667 141 692 109 692 C84 692 62 679 55 607 L55 607 Z " />
<glyph glyph-name="adieresis" unicode="&#xe4;" horiz-adv-x="250" d="M56 -4 C95 -4 118 3 132 20 C137 6 143 -1 180 -1 C186 -1 197 -1 202 0 L209 70 C187 70 186 76 190 109 L221 411 C232 519 229 561 138 561 C106 561 73 557 53 550 L69 482 C83 486 110 489 124 489 C159 489 157 474 149 397 C36 394 13 359 -7 175 C-11 140 -13 109 -13 87 C-13 28 3 -4 56 -4 L56 -4 Z M80 63 C64 63 58 73 58 101 C58 118 60 142 64 176 C78 312 84 327 142 329 L129 208 C115 74 114 63 80 63 L80 63 Z M67 607 L130 607 L140 700 L77 700 L67 607 Z M167 607 L230 607 L241 700 L177 700 L167 607 Z " />
<glyph glyph-name="aring" unicode="&#xe5;" horiz-adv-x="250" d="M56 -4 C95 -4 118 3 132 20 C137 6 143 -1 180 -1 C186 -1 197 -1 202 0 L209 70 C187 70 186 76 190 109 L221 411 C232 519 229 561 138 561 C106 561 73 557 53 550 L69 482 C83 486 110 489 124 489 C159 489 157 474 149 397 C36 394 13 359 -7 175 C-11 140 -13 109 -13 87 C-13 28 3 -4 56 -4 L56 -4 Z M80 63 C64 63 58 73 58 101 C58 118 60 142 64 176 C78 312 84 327 142 329 L129 208 C115 74 114 63 80 63 L80 63 Z M150 605 C204 605 214 637 218 688 C224 739 222 777 164 777 C111 777 102 744 97 693 C91 643 93 605 150 605 L150 605 Z M153 642 C134 642 133 653 137 689 C140 726 143 738 162 738 C181 738 182 726 179 689 C175 653 171 642 153 642 L153 642 Z " />
<glyph glyph-name="ae" unicode="&#xe6;" horiz-adv-x="357" d="M56 -4 C101 -4 124 7 141 28 C153 5 176 -5 214 -5 C247 -5 275 -1 301 9 L285 73 C266 67 243 64 224 64 C204 64 191 71 191 115 C191 136 195 190 200 241 L330 241 L334 276 C343 363 349 424 349 459 C349 526 334 561 261 561 C231 561 216 554 202 542 C190 554 169 561 137 561 C105 561 72 557 52 550 L69 482 C84 486 111 489 125 489 C158 489 156 474 148 395 C36 392 13 358 -7 175 C-11 140 -13 109 -13 87 C-13 28 4 -4 56 -4 L56 -4 Z M80 63 C63 63 58 73 58 101 C58 118 60 142 64 176 C78 311 85 328 141 330 L129 208 C115 74 114 63 80 63 L80 63 Z M237 483 C242 488 249 489 257 489 C277 489 280 479 280 452 C280 432 275 379 267 309 L207 309 C219 428 225 467 237 483 L237 483 Z " />
<glyph glyph-name="ccedilla" unicode="&#xe7;" horiz-adv-x="193" d="M55 -184 C102 -184 120 -171 128 -104 C133 -49 115 -35 81 -37 L90 -4 C112 -4 132 -1 147 5 L136 69 C125 66 110 65 100 65 C74 65 67 81 67 115 C67 144 74 211 81 279 C100 464 103 487 143 487 C155 487 166 485 177 482 L202 551 C186 556 168 559 140 559 C34 559 28 497 6 287 C-1 221 -8 149 -8 112 C-8 54 3 14 48 1 L35 -51 L50 -65 C74 -64 83 -66 80 -97 C76 -131 72 -136 48 -136 C37 -136 25 -135 12 -130 L-6 -175 C15 -182 29 -184 55 -184 L55 -184 Z " />
<glyph glyph-name="egrave" unicode="&#xe8;" horiz-adv-x="230" d="M88 -5 C119 -5 150 -1 174 9 L158 74 C139 69 117 65 98 65 C78 65 65 72 65 115 C65 136 69 190 74 241 L204 241 L207 276 C216 365 223 424 223 459 C223 526 208 561 134 561 C100 561 75 552 59 534 C28 500 22 440 6 285 C-4 204 -9 150 -9 110 C-9 30 18 -5 88 -5 L88 -5 Z M111 483 C116 488 123 489 131 489 C150 489 154 479 154 452 C154 432 148 379 141 309 L81 309 C92 428 98 467 111 483 L111 483 Z M124 607 L183 607 L153 729 L73 729 L124 607 Z " />
<glyph glyph-name="eacute" unicode="&#xe9;" horiz-adv-x="230" d="M98 607 L158 607 L236 729 L155 729 L98 607 Z M88 -5 C119 -5 150 -1 174 9 L158 74 C139 69 117 65 98 65 C78 65 65 72 65 115 C65 136 69 190 74 241 L204 241 L207 276 C216 365 223 424 223 459 C223 526 208 561 134 561 C100 561 75 552 59 534 C28 500 22 440 6 285 C-4 204 -9 150 -9 110 C-9 30 18 -5 88 -5 L88 -5 Z M111 483 C116 488 123 489 131 489 C150 489 154 479 154 452 C154 432 148 379 141 309 L81 309 C92 428 98 467 111 483 L111 483 Z " />
<glyph glyph-name="ecircumflex" unicode="&#xea;" horiz-adv-x="230" d="M46 607 L107 607 L147 677 L175 607 L234 607 L190 729 L116 729 L46 607 Z M88 -5 C119 -5 150 -1 174 9 L158 74 C139 69 117 65 98 65 C78 65 65 72 65 115 C65 136 69 190 74 241 L204 241 L207 276 C216 365 223 424 223 459 C223 526 208 561 134 561 C100 561 75 552 59 534 C28 500 22 440 6 285 C-4 204 -9 150 -9 110 C-9 30 18 -5 88 -5 L88 -5 Z M111 483 C116 488 123 489 131 489 C150 489 154 479 154 452 C154 432 148 379 141 309 L81 309 C92 428 98 467 111 483 L111 483 Z " />
<glyph glyph-name="edieresis" unicode="&#xeb;" horiz-adv-x="230" d="M59 607 L122 607 L132 700 L69 700 L59 607 Z M159 607 L222 607 L233 700 L169 700 L159 607 Z M88 -5 C119 -5 150 -1 174 9 L158 74 C139 69 117 65 98 65 C78 65 65 72 65 115 C65 136 69 190 74 241 L204 241 L207 276 C216 365 223 424 223 459 C223 526 208 561 134 561 C100 561 75 552 59 534 C28 500 22 440 6 285 C-4 204 -9 150 -9 110 C-9 30 18 -5 88 -5 L88 -5 Z M111 483 C116 488 123 489 131 489 C150 489 154 479 154 452 C154 432 148 379 141 309 L81 309 C92 428 98 467 111 483 L111 483 Z " />
<glyph glyph-name="igrave" unicode="&#xec;" horiz-adv-x="128" d="M60 607 L119 607 L101 729 L21 729 L60 607 Z M-13 0 L62 0 L120 555 L47 555 L-13 0 Z " />
<glyph glyph-name="iacute" unicode="&#xed;" horiz-adv-x="128" d="M55 607 L117 607 L186 729 L103 729 L55 607 Z M-13 0 L62 0 L120 555 L47 555 L-13 0 Z " />
<glyph glyph-name="icircumflex" unicode="&#xee;" horiz-adv-x="128" d="M-2 607 L59 607 L96 676 L119 607 L178 607 L138 729 L65 729 L-2 607 Z M-13 0 L62 0 L120 555 L47 555 L-13 0 Z " />
<glyph glyph-name="idieresis" unicode="&#xef;" horiz-adv-x="128" d="M8 607 L71 607 L81 700 L18 700 L8 607 Z M108 607 L171 607 L182 700 L118 700 L108 607 Z M-13 0 L62 0 L120 555 L47 555 L-13 0 Z " />
<glyph glyph-name="eth" unicode="&#xf0;" horiz-adv-x="255" d="M117 598 L172 615 C176 591 179 565 180 539 C170 548 155 554 129 554 C40 554 28 494 6 285 C-1 212 -7 158 -7 117 C-7 36 14 -5 93 -5 C197 -5 206 51 230 273 C238 347 242 399 243 437 C245 517 240 582 233 634 L275 647 L281 705 L223 687 C217 717 210 741 203 761 L141 741 C148 722 156 698 162 669 L123 657 L117 598 Z M96 63 C74 63 66 76 66 117 C66 149 71 200 79 277 C99 469 104 488 139 488 C161 488 170 476 170 433 C170 402 166 352 158 275 C138 92 135 63 96 63 L96 63 Z " />
<glyph glyph-name="ntilde" unicode="&#xf1;" horiz-adv-x="268" d="M-14 0 L60 0 L99 375 C109 465 119 488 151 488 C181 488 181 473 174 413 L131 0 L204 0 L251 438 C259 514 256 561 181 561 C136 561 116 548 107 533 L106 555 L45 551 L-14 0 Z M65 607 L120 607 C122 628 127 633 136 633 C150 633 175 607 206 607 C235 607 255 619 261 692 L206 692 C204 671 201 667 191 667 C177 667 151 692 119 692 C94 692 72 679 65 607 L65 607 Z " />
<glyph glyph-name="ograve" unicode="&#xf2;" horiz-adv-x="255" d="M93 -5 C203 -5 207 51 230 272 C239 348 245 405 245 444 C245 522 223 561 142 561 C33 561 28 497 6 287 C-1 224 -8 146 -8 110 C-8 30 13 -5 93 -5 L93 -5 Z M96 63 C73 63 64 73 64 110 C64 140 71 193 79 280 C99 466 99 488 139 488 C163 488 171 478 171 439 C171 409 166 358 158 275 C138 82 137 63 96 63 L96 63 Z M135 607 L194 607 L164 729 L84 729 L135 607 Z " />
<glyph glyph-name="oacute" unicode="&#xf3;" horiz-adv-x="255" d="M109 607 L169 607 L247 729 L166 729 L109 607 Z M93 -5 C203 -5 207 51 230 272 C239 348 245 405 245 444 C245 522 223 561 142 561 C33 561 28 497 6 287 C-1 224 -8 146 -8 110 C-8 30 13 -5 93 -5 L93 -5 Z M96 63 C73 63 64 73 64 110 C64 140 71 193 79 280 C99 466 99 488 139 488 C163 488 171 478 171 439 C171 409 166 358 158 275 C138 82 137 63 96 63 L96 63 Z " />
<glyph glyph-name="ocircumflex" unicode="&#xf4;" horiz-adv-x="255" d="M57 607 L118 607 L158 677 L186 607 L245 607 L201 729 L127 729 L57 607 Z M93 -5 C203 -5 207 51 230 272 C239 348 245 405 245 444 C245 522 223 561 142 561 C33 561 28 497 6 287 C-1 224 -8 146 -8 110 C-8 30 13 -5 93 -5 L93 -5 Z M96 63 C73 63 64 73 64 110 C64 140 71 193 79 280 C99 466 99 488 139 488 C163 488 171 478 171 439 C171 409 166 358 158 275 C138 82 137 63 96 63 L96 63 Z " />
<glyph glyph-name="otilde" unicode="&#xf5;" horiz-adv-x="255" d="M93 -5 C203 -5 207 51 230 272 C239 348 245 405 245 444 C245 522 223 561 142 561 C33 561 28 497 6 287 C-1 224 -8 146 -8 110 C-8 30 13 -5 93 -5 L93 -5 Z M96 63 C73 63 64 73 64 110 C64 140 71 193 79 280 C99 466 99 488 139 488 C163 488 171 478 171 439 C171 409 166 358 158 275 C138 82 137 63 96 63 L96 63 Z M58 607 L113 607 C115 628 120 633 129 633 C143 633 168 607 199 607 C228 607 248 619 254 692 L199 692 C197 671 194 667 184 667 C170 667 144 692 112 692 C87 692 65 679 58 607 L58 607 Z " />
<glyph glyph-name="odieresis" unicode="&#xf6;" horiz-adv-x="255" d="M70 607 L133 607 L143 700 L80 700 L70 607 Z M170 607 L233 607 L244 700 L180 700 L170 607 Z M93 -5 C203 -5 207 51 230 272 C239 348 245 405 245 444 C245 522 223 561 142 561 C33 561 28 497 6 287 C-1 224 -8 146 -8 110 C-8 30 13 -5 93 -5 L93 -5 Z M96 63 C73 63 64 73 64 110 C64 140 71 193 79 280 C99 466 99 488 139 488 C163 488 171 478 171 439 C171 409 166 358 158 275 C138 82 137 63 96 63 L96 63 Z " />
<glyph glyph-name="divide" unicode="&#xf7;" horiz-adv-x="293" d="M93 189 L164 189 L172 269 L101 269 L93 189 Z M37 327 L249 327 L256 398 L44 398 L37 327 Z M121 453 L191 453 L199 534 L129 534 L121 453 Z " />
<glyph glyph-name="oslash" unicode="&#xf8;" horiz-adv-x="255" d="M100 -5 C202 -5 207 54 230 273 C239 350 245 405 245 445 C245 482 240 511 225 530 L245 597 L184 597 L172 558 C162 560 151 561 139 561 C34 561 28 499 6 286 C0 224 -8 146 -8 109 C-8 71 -4 43 11 24 L-9 -42 L52 -42 L63 -2 C74 -4 86 -5 100 -5 L100 -5 Z M96 57 C88 57 82 58 77 60 L172 375 C170 348 166 315 162 275 C142 77 136 57 96 57 L96 57 Z M75 280 C94 471 100 494 139 494 C146 494 152 493 157 491 L65 187 C68 213 71 243 75 280 L75 280 Z " />
<glyph glyph-name="ugrave" unicode="&#xf9;" horiz-adv-x="263" d="M96 -5 C193 -5 204 45 215 143 L257 555 L187 555 L144 149 C137 83 137 63 101 63 C65 63 68 83 76 148 L118 555 L45 555 L2 143 C-9 48 -5 -5 96 -5 L96 -5 Z M139 607 L198 607 L168 729 L88 729 L139 607 Z " />
<glyph glyph-name="uacute" unicode="&#xfa;" horiz-adv-x="263" d="M113 607 L173 607 L251 729 L170 729 L113 607 Z M96 -5 C193 -5 204 45 215 143 L257 555 L187 555 L144 149 C137 83 137 63 101 63 C65 63 68 83 76 148 L118 555 L45 555 L2 143 C-9 48 -5 -5 96 -5 L96 -5 Z " />
<glyph glyph-name="ucircumflex" unicode="&#xfb;" horiz-adv-x="263" d="M61 607 L122 607 L162 677 L190 607 L249 607 L205 729 L131 729 L61 607 Z M96 -5 C193 -5 204 45 215 143 L257 555 L187 555 L144 149 C137 83 137 63 101 63 C65 63 68 83 76 148 L118 555 L45 555 L2 143 C-9 48 -5 -5 96 -5 L96 -5 Z " />
<glyph glyph-name="udieresis" unicode="&#xfc;" horiz-adv-x="263" d="M74 607 L137 607 L147 700 L84 700 L74 607 Z M174 607 L237 607 L248 700 L184 700 L174 607 Z M96 -5 C193 -5 204 45 215 143 L257 555 L187 555 L144 149 C137 83 137 63 101 63 C65 63 68 83 76 148 L118 555 L45 555 L2 143 C-9 48 -5 -5 96 -5 L96 -5 Z " />
<glyph glyph-name="yacute" unicode="&#xfd;" horiz-adv-x="227" d="M-19 -145 L-2 -145 C52 -145 82 -128 97 -67 L243 555 L173 555 L119 300 L97 192 L98 301 L96 555 L22 555 L40 -14 L33 -51 C27 -71 26 -75 0 -75 L-12 -75 L-19 -145 Z M96 607 L156 607 L234 729 L153 729 L96 607 Z " />
<glyph glyph-name="thorn" unicode="&#xfe;" horiz-adv-x="265" d="M-29 -145 L45 -145 L62 15 C76 1 95 -4 128 -4 C152 -4 170 0 185 16 C215 45 223 110 240 273 C249 369 255 427 255 466 C255 534 230 561 182 561 C155 561 132 555 116 541 L138 756 L66 756 L-29 -145 Z M106 63 C83 63 74 74 74 114 C74 146 81 196 89 278 C108 455 111 488 151 488 C172 488 180 481 180 443 C180 413 174 362 166 276 C145 81 145 63 106 63 L106 63 Z " />
<glyph glyph-name="ydieresis" unicode="&#xff;" horiz-adv-x="227" d="M-19 -145 L-2 -145 C52 -145 82 -128 97 -67 L243 555 L173 555 L119 300 L97 192 L98 301 L96 555 L22 555 L40 -14 L33 -51 C27 -71 26 -75 0 -75 L-12 -75 L-19 -145 Z M57 607 L120 607 L130 700 L67 700 L57 607 Z M157 607 L220 607 L231 700 L167 700 L157 607 Z " />
<glyph glyph-name="dotlessi" unicode="&#x131;" horiz-adv-x="128" d="M-13 0 L62 0 L120 555 L47 555 L-13 0 Z " />
<glyph glyph-name="Lslash" unicode="&#x141;" horiz-adv-x="212" d="M2 344 L30 359 L-8 0 L166 0 L173 70 L73 70 L108 403 L161 432 L169 500 L116 470 L145 741 L70 741 L37 427 L8 411 L2 344 Z " />
<glyph glyph-name="lslash" unicode="&#x142;" horiz-adv-x="187" d="M21 440 L57 460 L20 102 C13 34 21 -1 87 -1 C91 -1 109 -1 114 0 L121 71 L110 71 C93 71 91 77 94 104 L135 503 L178 527 L186 594 L142 570 L162 756 L88 756 L64 528 L27 508 L21 440 Z " />
<glyph glyph-name="OE" unicode="&#x152;" horiz-adv-x="375" d="M104 0 L316 0 L324 70 L218 70 L246 343 L349 343 L357 414 L254 414 L281 668 L386 668 L393 741 L177 741 C137 741 106 733 83 704 C50 661 42 597 19 378 C5 251 -2 177 -2 128 C-2 33 29 0 104 0 L104 0 Z M115 67 C90 67 74 78 74 134 C74 173 82 252 95 371 C115 569 122 626 141 653 C151 669 165 672 182 672 L211 672 L147 67 L115 67 Z " />
<glyph glyph-name="oe" unicode="&#x153;" horiz-adv-x="378" d="M93 -5 C129 -5 152 1 169 18 C182 2 204 -5 237 -5 C269 -5 298 -1 322 10 L306 74 C288 68 265 64 246 64 C226 64 212 71 212 115 C212 136 217 190 222 241 L351 241 L355 276 C365 363 370 424 370 459 C370 526 357 561 283 561 C247 561 231 552 216 535 C203 552 180 561 142 561 C33 561 28 497 6 287 C-2 224 -9 146 -9 110 C-9 30 13 -5 93 -5 L93 -5 Z M96 63 C73 63 64 73 64 110 C64 140 70 193 79 280 C99 466 99 488 138 488 C163 488 171 478 171 439 C171 409 166 358 157 275 C137 82 137 63 96 63 L96 63 Z M260 483 C265 488 270 489 279 489 C299 489 302 479 302 452 C302 432 296 373 289 309 L229 309 C241 428 247 467 260 483 L260 483 Z " />
<glyph glyph-name="Scaron" unicode="&#x160;" horiz-adv-x="233" d="M122 779 L195 779 L266 903 L206 903 L165 833 L138 903 L78 903 L122 779 Z M68 -6 C161 -6 193 47 193 115 C193 140 190 154 184 194 L122 579 C113 633 119 671 170 671 C184 671 203 669 217 665 L241 738 C224 743 207 746 163 746 C80 746 43 693 43 623 C43 594 46 578 50 555 L114 160 C126 84 109 66 66 66 C49 66 18 69 0 74 L-24 3 C-3 -2 32 -6 68 -6 L68 -6 Z " />
<glyph glyph-name="scaron" unicode="&#x161;" horiz-adv-x="197" d="M87 607 L160 607 L231 731 L171 731 L130 661 L103 731 L43 731 L87 607 Z M53 -5 C133 -5 157 42 157 97 C157 124 154 135 148 168 L99 422 C91 461 96 489 131 489 C146 489 162 487 171 485 L195 554 C180 558 157 561 121 561 C48 561 22 513 22 457 C22 433 27 412 31 391 L80 138 C91 80 77 63 41 63 C22 63 4 67 -10 71 L-34 4 C-12 -2 17 -5 53 -5 L53 -5 Z " />
<glyph glyph-name="Ydieresis" unicode="&#x178;" horiz-adv-x="254" d="M52 0 L126 0 L151 240 L294 741 L219 741 L132 398 L118 741 L41 741 L77 249 L52 0 Z M88 779 L151 779 L161 872 L98 872 L88 779 Z M188 779 L251 779 L262 872 L198 872 L188 779 Z " />
<glyph glyph-name="Zcaron" unicode="&#x17d;" horiz-adv-x="236" d="M124 779 L197 779 L268 903 L208 903 L167 833 L140 903 L80 903 L124 779 Z M-26 0 L184 0 L191 70 L63 70 L250 675 L256 741 L59 741 L53 668 L171 668 L-19 60 L-26 0 Z " />
<glyph glyph-name="zcaron" unicode="&#x17e;" horiz-adv-x="195" d="M87 607 L160 607 L231 731 L171 731 L130 661 L103 731 L43 731 L87 607 Z M-31 0 L148 0 L154 64 L54 64 L199 503 L205 555 L33 555 L27 487 L118 487 L-26 52 L-31 0 Z " />
<glyph glyph-name="florin" unicode="&#x192;" horiz-adv-x="262" d="M30 384 L78 384 L24 -145 L96 -145 L151 384 L214 384 L222 451 L158 451 L176 620 C180 657 184 669 218 669 L226 669 L234 741 L212 741 C132 741 112 712 103 629 L85 451 L38 451 L30 384 Z " />
<glyph glyph-name="circumflex" unicode="&#x2c6;" horiz-adv-x="238" d="M49 607 L110 607 L150 677 L178 607 L237 607 L193 729 L119 729 L49 607 Z " />
<glyph glyph-name="caron" unicode="&#x2c7;" horiz-adv-x="238" d="M107 607 L180 607 L251 731 L191 731 L150 661 L123 731 L63 731 L107 607 Z " />
<glyph glyph-name="breve" unicode="&#x2d8;" horiz-adv-x="238" d="M150 605 C212 605 229 636 239 718 L184 718 C180 679 176 659 149 659 C123 659 123 679 128 718 L74 718 C65 636 76 605 150 605 L150 605 Z " />
<glyph glyph-name="dotaccent" unicode="&#x2d9;" horiz-adv-x="238" d="M107 608 L180 608 L192 716 L119 716 L107 608 Z " />
<glyph glyph-name="ring" unicode="&#x2da;" horiz-adv-x="238" d="M145 605 C199 605 209 637 213 688 C219 739 217 777 159 777 C106 777 97 744 92 693 C86 643 88 605 145 605 L145 605 Z M148 642 C129 642 128 653 132 689 C135 726 138 738 157 738 C176 738 177 726 174 689 C170 653 166 642 148 642 L148 642 Z " />
<glyph glyph-name="ogonek" unicode="&#x2db;" horiz-adv-x="241" d="M107 -175 L112 -127 L107 -127 C72 -127 63 -119 67 -85 C70 -55 84 -33 119 5 L67 5 C40 -20 17 -49 13 -88 C7 -146 22 -175 91 -175 L107 -175 Z " />
<glyph glyph-name="tilde" unicode="&#x2dc;" horiz-adv-x="238" d="M50 607 L105 607 C107 628 112 633 121 633 C135 633 160 607 191 607 C220 607 240 619 246 692 L191 692 C189 671 186 667 176 667 C162 667 136 692 104 692 C79 692 57 679 50 607 L50 607 Z " />
<glyph glyph-name="hungarumlaut" unicode="&#x2dd;" horiz-adv-x="238" d="M55 607 L113 607 L164 731 L89 731 L55 607 Z M169 607 L226 607 L278 731 L203 731 L169 607 Z " />
<glyph glyph-name="&amp;#x394;" unicode="&#x394;" horiz-adv-x="291" d="M20 487 L59 487 L-8 -145 L66 -145 L132 487 L173 487 L180 555 L139 555 L148 636 C152 673 159 685 190 685 L194 685 L201 756 C198 757 190 757 187 757 C110 757 85 728 76 644 L66 555 L26 555 L20 487 Z M113 -145 C187 -145 212 -121 219 -54 L283 555 L210 555 L147 -45 C144 -69 143 -75 120 -75 L113 -145 Z M216 622 L290 622 L302 728 L228 728 L216 622 Z " />
<glyph glyph-name="&amp;#x2206;" unicode="&#x2206;" horiz-adv-x="291" d="M20 487 L59 487 L-8 -145 L66 -145 L132 487 L173 487 L180 555 L139 555 L148 636 C152 673 159 685 190 685 L194 685 L201 756 C198 757 190 757 187 757 C110 757 85 728 76 644 L66 555 L26 555 L20 487 Z M113 -145 C187 -145 212 -121 219 -54 L283 555 L210 555 L147 -45 C144 -69 143 -75 120 -75 L113 -145 Z M216 622 L290 622 L302 728 L228 728 L216 622 Z " />
<glyph glyph-name="&amp;#x3a9;" unicode="&#x3a9;" horiz-adv-x="832" d="M126 120 C126 120 129 123 134 127 C79 193 46 278 46 371 C46 464 79 549 133 615 C129 619 126 621 126 621 C70 554 36 466 36 371 C36 275 70 187 126 120 L126 120 Z M228 211 C230 213 233 215 235 218 C201 259 181 313 181 371 C181 429 202 483 235 524 C232 526 230 529 227 531 C192 487 171 432 171 371 C171 310 193 254 228 211 L228 211 Z M264 243 C267 245 269 248 272 250 C245 283 229 325 229 371 C229 417 245 459 272 492 C269 494 267 497 264 499 C236 464 219 419 219 371 C219 322 236 278 264 243 L264 243 Z M316 289 C319 291 321 294 324 296 C308 317 298 343 298 371 C298 399 308 425 323 445 C321 448 318 450 316 452 C298 430 288 402 288 371 C288 340 298 312 316 289 L316 289 Z M349 320 C352 323 354 325 357 327 C348 340 343 355 343 371 C343 387 348 402 357 415 C354 417 352 420 349 422 C339 408 333 390 333 371 C333 352 339 334 349 320 L349 320 Z M378 346 C382 349 384 351 384 351 C381 357 379 364 379 371 C379 378 381 385 384 391 C384 391 382 393 378 396 C374 389 371 380 371 371 C371 362 374 353 378 346 L378 346 Z M416 60 C493 60 563 89 616 136 C614 139 611 141 609 144 C558 98 490 70 416 70 C342 70 274 98 222 144 C222 145 215 137 215 137 C268 89 338 60 416 60 L416 60 Z M416 324 C426 324 435 327 442 333 C439 337 437 339 437 339 C431 334 424 332 416 332 C408 332 401 335 395 339 C395 339 391 334 389 333 C397 327 406 324 416 324 L416 324 Z M482 319 C493 334 499 352 499 371 C499 390 493 408 482 422 C483 422 475 415 475 415 C484 403 489 388 489 371 C489 355 484 339 475 326 C478 324 480 322 482 319 L482 319 Z M292 269 C295 271 298 274 300 276 C280 302 267 335 267 371 C267 407 280 440 300 466 L293 473 C270 445 257 410 257 371 C257 333 270 297 292 269 L292 269 Z M416 -17 C512 -17 600 19 667 80 C667 80 660 88 660 87 C595 29 510 -7 416 -7 C322 -7 236 29 171 88 L164 80 C231 20 320 -17 416 -17 L416 -17 Z M416 121 C478 121 534 144 576 182 C574 185 571 187 569 190 C529 153 475 131 416 131 C357 131 303 153 262 190 L255 182 C298 144 354 121 416 121 L416 121 Z M416 170 C465 170 510 188 544 218 C542 221 539 223 537 226 C505 197 462 180 416 180 C369 180 327 197 294 226 L287 219 C322 189 367 170 416 170 L416 170 Z M416 209 C455 209 491 224 518 247 C516 250 514 253 512 255 C486 233 452 219 416 219 C380 219 346 233 320 255 L313 247 C341 224 377 209 416 209 L416 209 Z M416 265 C441 265 463 274 481 289 C479 292 476 294 474 297 C458 283 438 275 416 275 C394 275 373 283 357 297 L350 289 C368 274 391 265 416 265 L416 265 Z M358 445 C374 459 394 467 416 467 C438 467 458 459 474 445 L482 453 C464 468 441 477 416 477 C391 477 368 468 350 453 C351 452 354 448 358 445 L358 445 Z M570 552 C572 554 575 557 577 560 C534 598 478 621 416 621 C355 621 299 598 256 560 L263 553 C304 589 357 611 416 611 C475 611 529 589 570 552 L570 552 Z M454 346 C458 353 461 362 461 371 C461 380 458 389 454 396 L448 391 C451 385 453 378 453 371 C453 364 451 357 448 351 C448 351 450 349 454 346 L454 346 Z M468 333 C476 344 480 357 480 371 C480 385 476 398 468 409 L460 402 C466 393 470 382 470 371 C470 360 466 349 460 340 C463 338 465 336 468 333 L468 333 Z M498 306 C511 325 519 347 519 371 C519 395 511 418 497 436 L490 429 C502 413 509 393 509 371 C509 349 502 329 490 313 C492 311 495 308 498 306 L498 306 Z M540 269 C562 297 575 332 575 371 C575 410 562 445 539 473 L531 466 C552 440 565 407 565 371 C565 335 552 302 532 276 C535 274 537 271 540 269 L540 269 Z M568 243 C596 278 613 322 613 371 C613 420 596 464 568 499 L560 492 C587 459 603 417 603 371 C603 325 587 283 560 250 C563 248 566 245 568 243 L568 243 Z M604 211 C640 254 661 310 661 371 C661 432 640 488 604 531 L596 524 C631 483 651 429 651 371 C651 313 631 260 596 218 C601 213 604 211 604 211 L604 211 Z M649 171 C694 225 721 295 721 371 C721 447 694 517 649 571 L641 564 C685 512 711 445 711 371 C711 297 685 230 642 177 C644 175 647 173 649 171 L649 171 Z M706 120 C762 188 796 276 796 371 C796 467 762 555 706 622 L698 615 C753 549 786 464 786 371 C786 278 753 193 698 127 C703 123 706 120 706 120 L706 120 Z M183 170 L190 177 C147 229 121 297 121 371 C121 444 147 512 190 564 C187 567 184 569 182 571 C138 517 111 447 111 371 C111 294 138 225 183 170 L183 170 Z M334 306 L342 314 C330 330 323 350 323 371 C323 393 330 413 342 429 C340 431 337 434 334 436 C321 418 313 395 313 371 C313 346 321 324 334 306 L334 306 Z M364 333 L371 340 C366 349 362 360 362 371 C362 382 366 393 371 402 C369 404 366 406 364 409 C356 398 352 385 352 371 C352 357 356 344 364 333 L364 333 Z M395 403 C401 408 408 410 416 410 C424 410 431 407 437 403 C437 403 439 406 442 409 C435 415 426 418 416 418 C406 418 397 415 390 409 L395 403 Z M384 416 C393 423 404 428 416 428 C428 428 439 424 448 416 C450 419 452 421 454 423 C443 432 430 437 416 437 C401 437 388 432 377 423 L384 416 Z M371 430 C383 441 399 447 416 447 C433 447 449 441 461 430 C461 430 464 434 468 438 C454 450 436 457 416 457 C397 457 378 450 364 438 L371 430 Z M295 516 C327 545 370 562 416 562 C462 562 505 545 538 516 C538 516 545 523 544 523 C510 554 465 572 416 572 C367 572 322 554 288 524 L295 516 Z M416 240 C448 240 476 252 498 271 L491 278 C471 261 445 250 416 250 C388 250 361 261 340 278 L333 270 C355 251 384 240 416 240 L416 240 Z M416 285 C436 285 454 292 468 304 L461 312 C448 301 433 295 416 295 C399 295 383 302 370 312 L363 304 C378 292 396 285 416 285 L416 285 Z M416 305 C430 305 444 310 455 319 L448 326 C439 319 428 314 416 314 C404 314 393 319 383 326 L376 319 C388 310 401 305 416 305 L416 305 Z M341 464 C362 482 388 492 416 492 C445 492 471 481 491 464 L498 472 C476 491 447 502 416 502 C385 502 356 490 334 471 L341 464 Z M320 487 C346 509 380 523 416 523 C453 523 486 510 512 487 L518 494 C491 518 455 533 416 533 C377 533 341 519 313 495 L320 487 Z M610 597 L617 605 C563 653 493 682 416 682 C339 682 269 653 215 605 L222 598 C274 644 342 672 416 672 C491 672 559 644 610 597 L610 597 Z M172 654 C237 713 322 749 416 749 C510 749 596 713 661 654 L668 662 C601 722 512 759 416 759 C320 759 232 723 165 662 L172 654 Z M516 290 C534 312 544 340 544 371 C544 402 534 430 516 453 L508 446 C524 425 534 399 534 371 C534 343 524 317 509 297 L516 290 Z " />
<glyph glyph-name="&amp;#x2126;" unicode="&#x2126;" horiz-adv-x="832" d="M126 120 C126 120 129 123 134 127 C79 193 46 278 46 371 C46 464 79 549 133 615 C129 619 126 621 126 621 C70 554 36 466 36 371 C36 275 70 187 126 120 L126 120 Z M228 211 C230 213 233 215 235 218 C201 259 181 313 181 371 C181 429 202 483 235 524 C232 526 230 529 227 531 C192 487 171 432 171 371 C171 310 193 254 228 211 L228 211 Z M264 243 C267 245 269 248 272 250 C245 283 229 325 229 371 C229 417 245 459 272 492 C269 494 267 497 264 499 C236 464 219 419 219 371 C219 322 236 278 264 243 L264 243 Z M316 289 C319 291 321 294 324 296 C308 317 298 343 298 371 C298 399 308 425 323 445 C321 448 318 450 316 452 C298 430 288 402 288 371 C288 340 298 312 316 289 L316 289 Z M349 320 C352 323 354 325 357 327 C348 340 343 355 343 371 C343 387 348 402 357 415 C354 417 352 420 349 422 C339 408 333 390 333 371 C333 352 339 334 349 320 L349 320 Z M378 346 C382 349 384 351 384 351 C381 357 379 364 379 371 C379 378 381 385 384 391 C384 391 382 393 378 396 C374 389 371 380 371 371 C371 362 374 353 378 346 L378 346 Z M416 60 C493 60 563 89 616 136 C614 139 611 141 609 144 C558 98 490 70 416 70 C342 70 274 98 222 144 C222 145 215 137 215 137 C268 89 338 60 416 60 L416 60 Z M416 324 C426 324 435 327 442 333 C439 337 437 339 437 339 C431 334 424 332 416 332 C408 332 401 335 395 339 C395 339 391 334 389 333 C397 327 406 324 416 324 L416 324 Z M482 319 C493 334 499 352 499 371 C499 390 493 408 482 422 C483 422 475 415 475 415 C484 403 489 388 489 371 C489 355 484 339 475 326 C478 324 480 322 482 319 L482 319 Z M292 269 C295 271 298 274 300 276 C280 302 267 335 267 371 C267 407 280 440 300 466 L293 473 C270 445 257 410 257 371 C257 333 270 297 292 269 L292 269 Z M416 -17 C512 -17 600 19 667 80 C667 80 660 88 660 87 C595 29 510 -7 416 -7 C322 -7 236 29 171 88 L164 80 C231 20 320 -17 416 -17 L416 -17 Z M416 121 C478 121 534 144 576 182 C574 185 571 187 569 190 C529 153 475 131 416 131 C357 131 303 153 262 190 L255 182 C298 144 354 121 416 121 L416 121 Z M416 170 C465 170 510 188 544 218 C542 221 539 223 537 226 C505 197 462 180 416 180 C369 180 327 197 294 226 L287 219 C322 189 367 170 416 170 L416 170 Z M416 209 C455 209 491 224 518 247 C516 250 514 253 512 255 C486 233 452 219 416 219 C380 219 346 233 320 255 L313 247 C341 224 377 209 416 209 L416 209 Z M416 265 C441 265 463 274 481 289 C479 292 476 294 474 297 C458 283 438 275 416 275 C394 275 373 283 357 297 L350 289 C368 274 391 265 416 265 L416 265 Z M358 445 C374 459 394 467 416 467 C438 467 458 459 474 445 L482 453 C464 468 441 477 416 477 C391 477 368 468 350 453 C351 452 354 448 358 445 L358 445 Z M570 552 C572 554 575 557 577 560 C534 598 478 621 416 621 C355 621 299 598 256 560 L263 553 C304 589 357 611 416 611 C475 611 529 589 570 552 L570 552 Z M454 346 C458 353 461 362 461 371 C461 380 458 389 454 396 L448 391 C451 385 453 378 453 371 C453 364 451 357 448 351 C448 351 450 349 454 346 L454 346 Z M468 333 C476 344 480 357 480 371 C480 385 476 398 468 409 L460 402 C466 393 470 382 470 371 C470 360 466 349 460 340 C463 338 465 336 468 333 L468 333 Z M498 306 C511 325 519 347 519 371 C519 395 511 418 497 436 L490 429 C502 413 509 393 509 371 C509 349 502 329 490 313 C492 311 495 308 498 306 L498 306 Z M540 269 C562 297 575 332 575 371 C575 410 562 445 539 473 L531 466 C552 440 565 407 565 371 C565 335 552 302 532 276 C535 274 537 271 540 269 L540 269 Z M568 243 C596 278 613 322 613 371 C613 420 596 464 568 499 L560 492 C587 459 603 417 603 371 C603 325 587 283 560 250 C563 248 566 245 568 243 L568 243 Z M604 211 C640 254 661 310 661 371 C661 432 640 488 604 531 L596 524 C631 483 651 429 651 371 C651 313 631 260 596 218 C601 213 604 211 604 211 L604 211 Z M649 171 C694 225 721 295 721 371 C721 447 694 517 649 571 L641 564 C685 512 711 445 711 371 C711 297 685 230 642 177 C644 175 647 173 649 171 L649 171 Z M706 120 C762 188 796 276 796 371 C796 467 762 555 706 622 L698 615 C753 549 786 464 786 371 C786 278 753 193 698 127 C703 123 706 120 706 120 L706 120 Z M183 170 L190 177 C147 229 121 297 121 371 C121 444 147 512 190 564 C187 567 184 569 182 571 C138 517 111 447 111 371 C111 294 138 225 183 170 L183 170 Z M334 306 L342 314 C330 330 323 350 323 371 C323 393 330 413 342 429 C340 431 337 434 334 436 C321 418 313 395 313 371 C313 346 321 324 334 306 L334 306 Z M364 333 L371 340 C366 349 362 360 362 371 C362 382 366 393 371 402 C369 404 366 406 364 409 C356 398 352 385 352 371 C352 357 356 344 364 333 L364 333 Z M395 403 C401 408 408 410 416 410 C424 410 431 407 437 403 C437 403 439 406 442 409 C435 415 426 418 416 418 C406 418 397 415 390 409 L395 403 Z M384 416 C393 423 404 428 416 428 C428 428 439 424 448 416 C450 419 452 421 454 423 C443 432 430 437 416 437 C401 437 388 432 377 423 L384 416 Z M371 430 C383 441 399 447 416 447 C433 447 449 441 461 430 C461 430 464 434 468 438 C454 450 436 457 416 457 C397 457 378 450 364 438 L371 430 Z M295 516 C327 545 370 562 416 562 C462 562 505 545 538 516 C538 516 545 523 544 523 C510 554 465 572 416 572 C367 572 322 554 288 524 L295 516 Z M416 240 C448 240 476 252 498 271 L491 278 C471 261 445 250 416 250 C388 250 361 261 340 278 L333 270 C355 251 384 240 416 240 L416 240 Z M416 285 C436 285 454 292 468 304 L461 312 C448 301 433 295 416 295 C399 295 383 302 370 312 L363 304 C378 292 396 285 416 285 L416 285 Z M416 305 C430 305 444 310 455 319 L448 326 C439 319 428 314 416 314 C404 314 393 319 383 326 L376 319 C388 310 401 305 416 305 L416 305 Z M341 464 C362 482 388 492 416 492 C445 492 471 481 491 464 L498 472 C476 491 447 502 416 502 C385 502 356 490 334 471 L341 464 Z M320 487 C346 509 380 523 416 523 C453 523 486 510 512 487 L518 494 C491 518 455 533 416 533 C377 533 341 519 313 495 L320 487 Z M610 597 L617 605 C563 653 493 682 416 682 C339 682 269 653 215 605 L222 598 C274 644 342 672 416 672 C491 672 559 644 610 597 L610 597 Z M172 654 C237 713 322 749 416 749 C510 749 596 713 661 654 L668 662 C601 722 512 759 416 759 C320 759 232 723 165 662 L172 654 Z M516 290 C534 312 544 340 544 371 C544 402 534 430 516 453 L508 446 C524 425 534 399 534 371 C534 343 524 317 509 297 L516 290 Z " />
<glyph glyph-name="pi" unicode="&#x3c0;" horiz-adv-x="320" d="M160 -4 C201 -4 230 6 250 26 C292 68 304 165 304 371 C304 568 293 665 255 709 C235 734 204 745 160 745 C117 745 86 735 66 711 C27 667 16 569 16 371 C16 161 28 64 72 24 C93 6 121 -4 160 -4 L160 -4 Z M160 32 C65 32 53 98 53 371 C53 645 66 709 160 709 C254 709 267 645 267 371 C267 98 254 32 160 32 L160 32 Z M91 130 L141 130 L141 316 L166 316 C235 316 239 365 239 462 C239 558 235 605 165 605 L91 605 L91 130 Z M141 361 L141 558 L161 558 C189 558 190 532 190 459 C190 385 189 361 161 361 L141 361 Z " />
<glyph glyph-name="endash" unicode="&#x2013;" horiz-adv-x="290" d="M9 281 L263 281 L271 353 L16 353 L9 281 Z " />
<glyph glyph-name="emdash" unicode="&#x2014;" horiz-adv-x="372" d="M9 281 L345 281 L353 353 L16 353 L9 281 Z " />
<glyph glyph-name="quoteleft" unicode="&#x2018;" horiz-adv-x="133" d="M43 530 L124 530 L137 651 L107 651 C110 684 113 685 143 705 L123 746 C71 720 60 699 53 624 L43 530 Z " />
<glyph glyph-name="quoteright" unicode="&#x2019;" horiz-adv-x="133" d="M66 525 C118 551 129 571 137 646 L147 741 L66 741 L53 620 L84 620 C80 587 76 585 47 565 L66 525 Z " />
<glyph glyph-name="quotesinglbase" unicode="&#x201a;" horiz-adv-x="133" d="M2 -95 C53 -69 63 -49 71 27 L81 122 L0 122 L-13 0 L18 0 C15 -33 11 -35 -20 -55 L2 -95 Z " />
<glyph glyph-name="quotedblleft" unicode="&#x201c;" horiz-adv-x="241" d="M43 530 L123 530 L135 651 L104 651 C108 684 112 685 141 705 L122 744 C70 718 60 699 53 624 L43 530 Z M151 530 L231 530 L244 651 L212 651 C216 684 220 685 249 705 L231 744 C179 718 169 699 161 624 L151 530 Z " />
<glyph glyph-name="quotedblright" unicode="&#x201d;" horiz-adv-x="239" d="M65 527 C118 553 127 571 135 646 L145 741 L66 741 L53 620 L84 620 C80 587 76 585 47 565 L65 527 Z M174 527 C226 553 235 571 243 646 L253 741 L174 741 L161 620 L191 620 C187 587 184 585 155 565 L174 527 Z " />
<glyph glyph-name="quotedblbase" unicode="&#x201e;" horiz-adv-x="239" d="M1 -93 C52 -67 62 -49 70 27 L80 122 L0 122 L-13 0 L18 0 C15 -33 11 -35 -20 -55 L1 -93 Z M109 -93 C160 -67 170 -49 178 27 L188 122 L108 122 L96 0 L126 0 C123 -33 119 -35 89 -55 L109 -93 Z " />
<glyph glyph-name="dagger" unicode="&#x2020;" horiz-adv-x="256" d="M33 473 L102 473 L38 -146 L111 -146 L175 473 L245 473 L253 545 L183 545 L205 756 L132 756 L110 545 L41 545 L33 473 Z " />
<glyph glyph-name="daggerdbl" unicode="&#x2021;" horiz-adv-x="255" d="M38 -146 L111 -146 L133 65 L202 65 L210 138 L140 138 L176 473 L245 473 L253 545 L183 545 L205 756 L132 756 L110 545 L41 545 L33 473 L102 473 L67 138 L-2 138 L-11 65 L60 65 L38 -146 Z " />
<glyph glyph-name="bullet" unicode="&#x2022;" horiz-adv-x="174" d="M23 220 L120 220 L138 389 L41 389 L23 220 Z " />
<glyph glyph-name="ellipsis" unicode="&#x2026;" horiz-adv-x="376" d="M-13 0 L69 0 L80 112 L-1 112 L-13 0 Z M110 0 L192 0 L203 112 L122 112 L110 0 Z M230 0 L312 0 L322 112 L242 112 L230 0 Z " />
<glyph glyph-name="perthousand" unicode="&#x2030;" horiz-adv-x="699" d="M100 283 C188 283 194 340 212 511 C220 576 224 622 224 655 C224 721 205 746 144 746 C55 746 50 692 32 519 C25 454 21 407 21 375 C21 308 39 283 100 283 L100 283 Z M104 344 C92 344 87 350 87 380 C87 405 90 447 98 516 C114 668 117 683 139 683 C151 683 157 678 157 647 C157 623 153 580 146 512 C130 359 126 344 104 344 L104 344 Z M355 -5 C445 -5 450 52 468 223 C476 288 480 335 480 367 C480 433 462 458 401 458 C312 458 306 405 288 232 C281 167 276 120 276 88 C276 21 295 -5 355 -5 L355 -5 Z M361 57 C349 57 343 62 343 92 C343 118 347 159 354 228 C370 381 374 396 395 396 C407 396 414 390 414 360 C414 335 409 293 402 224 C387 72 383 57 361 57 L361 57 Z M557 -5 C645 -5 650 52 669 223 C676 288 680 335 680 367 C680 433 661 458 601 458 C512 458 507 405 488 232 C481 167 477 120 477 88 C477 21 496 -5 557 -5 L557 -5 Z M561 57 C548 57 544 62 544 92 C544 118 547 159 555 228 C571 381 574 396 595 396 C608 396 614 390 614 360 C614 335 610 293 602 224 C587 72 583 57 561 57 L561 57 Z M101 0 L169 0 L398 741 L330 741 L101 0 Z " />
<glyph glyph-name="guilsinglleft" unicode="&#x2039;" horiz-adv-x="199" d="M54 0 L121 0 L94 277 L180 555 L111 555 L22 277 L54 0 Z " />
<glyph glyph-name="guilsinglright" unicode="&#x203a;" horiz-adv-x="199" d="M0 0 L68 0 L157 277 L126 555 L59 555 L85 277 L0 0 Z " />
<glyph glyph-name="&amp;#x2044;" unicode="&#x2044;" horiz-adv-x="236" d="M-39 0 L29 0 L276 741 L209 741 L-39 0 Z " />
<glyph glyph-name="&amp;#x2215;" unicode="&#x2215;" horiz-adv-x="236" d="M-39 0 L29 0 L276 741 L209 741 L-39 0 Z " />
<glyph glyph-name="Euro" unicode="&#x20ac;" horiz-adv-x="269" d="M15 389 L61 389 C60 385 60 381 60 378 C59 368 58 359 57 350 L10 350 L3 288 L50 288 C43 221 39 166 39 126 C39 37 59 -4 148 -4 C172 -4 195 2 210 7 L195 72 C187 70 169 66 156 66 C125 66 113 79 113 134 C113 166 116 211 124 288 L207 288 L214 350 L130 350 C131 357 132 364 133 372 C133 378 134 383 135 389 L218 389 L225 452 L141 452 C160 623 169 673 218 673 C232 673 250 670 261 667 L283 737 C273 740 248 746 218 746 C173 746 144 734 124 706 C93 667 85 611 68 452 L21 452 L15 389 Z " />
<glyph glyph-name="trademark" unicode="&#x2122;" horiz-adv-x="422" d="M46 260 L102 260 L147 688 L195 688 L200 741 L49 741 L44 688 L90 688 L46 260 Z M163 260 L211 260 L245 582 L246 260 L285 260 L352 581 L319 260 L372 260 L422 741 L352 741 L283 419 L282 741 L213 741 L163 260 Z " />
<glyph glyph-name="partialdiff" unicode="&#x2202;" horiz-adv-x="832" d="M126 120 C126 120 129 123 134 127 C79 193 46 278 46 371 C46 464 79 549 133 615 C129 619 126 621 126 621 C70 554 36 466 36 371 C36 275 70 187 126 120 L126 120 Z M228 211 C230 213 233 215 235 218 C201 259 181 313 181 371 C181 429 202 483 235 524 C232 526 230 529 227 531 C192 487 171 432 171 371 C171 310 193 254 228 211 L228 211 Z M264 243 C267 245 269 248 272 250 C245 283 229 325 229 371 C229 417 245 459 272 492 C269 494 267 497 264 499 C236 464 219 419 219 371 C219 322 236 278 264 243 L264 243 Z M316 289 C319 291 321 294 324 296 C308 317 298 343 298 371 C298 399 308 425 323 445 C321 448 318 450 316 452 C298 430 288 402 288 371 C288 340 298 312 316 289 L316 289 Z M349 320 C352 323 354 325 357 327 C348 340 343 355 343 371 C343 387 348 402 357 415 C354 417 352 420 349 422 C339 408 333 390 333 371 C333 352 339 334 349 320 L349 320 Z M378 346 C382 349 384 351 384 351 C381 357 379 364 379 371 C379 378 381 385 384 391 C384 391 382 393 378 396 C374 389 371 380 371 371 C371 362 374 353 378 346 L378 346 Z M416 60 C493 60 563 89 616 136 C614 139 611 141 609 144 C558 98 490 70 416 70 C342 70 274 98 222 144 C222 145 215 137 215 137 C268 89 338 60 416 60 L416 60 Z M416 324 C426 324 435 327 442 333 C439 337 437 339 437 339 C431 334 424 332 416 332 C408 332 401 335 395 339 C395 339 391 334 389 333 C397 327 406 324 416 324 L416 324 Z M482 319 C493 334 499 352 499 371 C499 390 493 408 482 422 C483 422 475 415 475 415 C484 403 489 388 489 371 C489 355 484 339 475 326 C478 324 480 322 482 319 L482 319 Z M292 269 C295 271 298 274 300 276 C280 302 267 335 267 371 C267 407 280 440 300 466 L293 473 C270 445 257 410 257 371 C257 333 270 297 292 269 L292 269 Z M416 -17 C512 -17 600 19 667 80 C667 80 660 88 660 87 C595 29 510 -7 416 -7 C322 -7 236 29 171 88 L164 80 C231 20 320 -17 416 -17 L416 -17 Z M416 121 C478 121 534 144 576 182 C574 185 571 187 569 190 C529 153 475 131 416 131 C357 131 303 153 262 190 L255 182 C298 144 354 121 416 121 L416 121 Z M416 170 C465 170 510 188 544 218 C542 221 539 223 537 226 C505 197 462 180 416 180 C369 180 327 197 294 226 L287 219 C322 189 367 170 416 170 L416 170 Z M416 209 C455 209 491 224 518 247 C516 250 514 253 512 255 C486 233 452 219 416 219 C380 219 346 233 320 255 L313 247 C341 224 377 209 416 209 L416 209 Z M416 265 C441 265 463 274 481 289 C479 292 476 294 474 297 C458 283 438 275 416 275 C394 275 373 283 357 297 L350 289 C368 274 391 265 416 265 L416 265 Z M358 445 C374 459 394 467 416 467 C438 467 458 459 474 445 L482 453 C464 468 441 477 416 477 C391 477 368 468 350 453 C351 452 354 448 358 445 L358 445 Z M570 552 C572 554 575 557 577 560 C534 598 478 621 416 621 C355 621 299 598 256 560 L263 553 C304 589 357 611 416 611 C475 611 529 589 570 552 L570 552 Z M454 346 C458 353 461 362 461 371 C461 380 458 389 454 396 L448 391 C451 385 453 378 453 371 C453 364 451 357 448 351 C448 351 450 349 454 346 L454 346 Z M468 333 C476 344 480 357 480 371 C480 385 476 398 468 409 L460 402 C466 393 470 382 470 371 C470 360 466 349 460 340 C463 338 465 336 468 333 L468 333 Z M498 306 C511 325 519 347 519 371 C519 395 511 418 497 436 L490 429 C502 413 509 393 509 371 C509 349 502 329 490 313 C492 311 495 308 498 306 L498 306 Z M540 269 C562 297 575 332 575 371 C575 410 562 445 539 473 L531 466 C552 440 565 407 565 371 C565 335 552 302 532 276 C535 274 537 271 540 269 L540 269 Z M568 243 C596 278 613 322 613 371 C613 420 596 464 568 499 L560 492 C587 459 603 417 603 371 C603 325 587 283 560 250 C563 248 566 245 568 243 L568 243 Z M604 211 C640 254 661 310 661 371 C661 432 640 488 604 531 L596 524 C631 483 651 429 651 371 C651 313 631 260 596 218 C601 213 604 211 604 211 L604 211 Z M649 171 C694 225 721 295 721 371 C721 447 694 517 649 571 L641 564 C685 512 711 445 711 371 C711 297 685 230 642 177 C644 175 647 173 649 171 L649 171 Z M706 120 C762 188 796 276 796 371 C796 467 762 555 706 622 L698 615 C753 549 786 464 786 371 C786 278 753 193 698 127 C703 123 706 120 706 120 L706 120 Z M183 170 L190 177 C147 229 121 297 121 371 C121 444 147 512 190 564 C187 567 184 569 182 571 C138 517 111 447 111 371 C111 294 138 225 183 170 L183 170 Z M334 306 L342 314 C330 330 323 350 323 371 C323 393 330 413 342 429 C340 431 337 434 334 436 C321 418 313 395 313 371 C313 346 321 324 334 306 L334 306 Z M364 333 L371 340 C366 349 362 360 362 371 C362 382 366 393 371 402 C369 404 366 406 364 409 C356 398 352 385 352 371 C352 357 356 344 364 333 L364 333 Z M395 403 C401 408 408 410 416 410 C424 410 431 407 437 403 C437 403 439 406 442 409 C435 415 426 418 416 418 C406 418 397 415 390 409 L395 403 Z M384 416 C393 423 404 428 416 428 C428 428 439 424 448 416 C450 419 452 421 454 423 C443 432 430 437 416 437 C401 437 388 432 377 423 L384 416 Z M371 430 C383 441 399 447 416 447 C433 447 449 441 461 430 C461 430 464 434 468 438 C454 450 436 457 416 457 C397 457 378 450 364 438 L371 430 Z M295 516 C327 545 370 562 416 562 C462 562 505 545 538 516 C538 516 545 523 544 523 C510 554 465 572 416 572 C367 572 322 554 288 524 L295 516 Z M416 240 C448 240 476 252 498 271 L491 278 C471 261 445 250 416 250 C388 250 361 261 340 278 L333 270 C355 251 384 240 416 240 L416 240 Z M416 285 C436 285 454 292 468 304 L461 312 C448 301 433 295 416 295 C399 295 383 302 370 312 L363 304 C378 292 396 285 416 285 L416 285 Z M416 305 C430 305 444 310 455 319 L448 326 C439 319 428 314 416 314 C404 314 393 319 383 326 L376 319 C388 310 401 305 416 305 L416 305 Z M341 464 C362 482 388 492 416 492 C445 492 471 481 491 464 L498 472 C476 491 447 502 416 502 C385 502 356 490 334 471 L341 464 Z M320 487 C346 509 380 523 416 523 C453 523 486 510 512 487 L518 494 C491 518 455 533 416 533 C377 533 341 519 313 495 L320 487 Z M610 597 L617 605 C563 653 493 682 416 682 C339 682 269 653 215 605 L222 598 C274 644 342 672 416 672 C491 672 559 644 610 597 L610 597 Z M172 654 C237 713 322 749 416 749 C510 749 596 713 661 654 L668 662 C601 722 512 759 416 759 C320 759 232 723 165 662 L172 654 Z M516 290 C534 312 544 340 544 371 C544 402 534 430 516 453 L508 446 C524 425 534 399 534 371 C534 343 524 317 509 297 L516 290 Z " />
<glyph glyph-name="product" unicode="&#x220f;" horiz-adv-x="832" d="M126 120 C126 120 129 123 134 127 C79 193 46 278 46 371 C46 464 79 549 133 615 C129 619 126 621 126 621 C70 554 36 466 36 371 C36 275 70 187 126 120 L126 120 Z M228 211 C230 213 233 215 235 218 C201 259 181 313 181 371 C181 429 202 483 235 524 C232 526 230 529 227 531 C192 487 171 432 171 371 C171 310 193 254 228 211 L228 211 Z M264 243 C267 245 269 248 272 250 C245 283 229 325 229 371 C229 417 245 459 272 492 C269 494 267 497 264 499 C236 464 219 419 219 371 C219 322 236 278 264 243 L264 243 Z M316 289 C319 291 321 294 324 296 C308 317 298 343 298 371 C298 399 308 425 323 445 C321 448 318 450 316 452 C298 430 288 402 288 371 C288 340 298 312 316 289 L316 289 Z M349 320 C352 323 354 325 357 327 C348 340 343 355 343 371 C343 387 348 402 357 415 C354 417 352 420 349 422 C339 408 333 390 333 371 C333 352 339 334 349 320 L349 320 Z M378 346 C382 349 384 351 384 351 C381 357 379 364 379 371 C379 378 381 385 384 391 C384 391 382 393 378 396 C374 389 371 380 371 371 C371 362 374 353 378 346 L378 346 Z M416 60 C493 60 563 89 616 136 C614 139 611 141 609 144 C558 98 490 70 416 70 C342 70 274 98 222 144 C222 145 215 137 215 137 C268 89 338 60 416 60 L416 60 Z M416 324 C426 324 435 327 442 333 C439 337 437 339 437 339 C431 334 424 332 416 332 C408 332 401 335 395 339 C395 339 391 334 389 333 C397 327 406 324 416 324 L416 324 Z M482 319 C493 334 499 352 499 371 C499 390 493 408 482 422 C483 422 475 415 475 415 C484 403 489 388 489 371 C489 355 484 339 475 326 C478 324 480 322 482 319 L482 319 Z M292 269 C295 271 298 274 300 276 C280 302 267 335 267 371 C267 407 280 440 300 466 L293 473 C270 445 257 410 257 371 C257 333 270 297 292 269 L292 269 Z M416 -17 C512 -17 600 19 667 80 C667 80 660 88 660 87 C595 29 510 -7 416 -7 C322 -7 236 29 171 88 L164 80 C231 20 320 -17 416 -17 L416 -17 Z M416 121 C478 121 534 144 576 182 C574 185 571 187 569 190 C529 153 475 131 416 131 C357 131 303 153 262 190 L255 182 C298 144 354 121 416 121 L416 121 Z M416 170 C465 170 510 188 544 218 C542 221 539 223 537 226 C505 197 462 180 416 180 C369 180 327 197 294 226 L287 219 C322 189 367 170 416 170 L416 170 Z M416 209 C455 209 491 224 518 247 C516 250 514 253 512 255 C486 233 452 219 416 219 C380 219 346 233 320 255 L313 247 C341 224 377 209 416 209 L416 209 Z M416 265 C441 265 463 274 481 289 C479 292 476 294 474 297 C458 283 438 275 416 275 C394 275 373 283 357 297 L350 289 C368 274 391 265 416 265 L416 265 Z M358 445 C374 459 394 467 416 467 C438 467 458 459 474 445 L482 453 C464 468 441 477 416 477 C391 477 368 468 350 453 C351 452 354 448 358 445 L358 445 Z M570 552 C572 554 575 557 577 560 C534 598 478 621 416 621 C355 621 299 598 256 560 L263 553 C304 589 357 611 416 611 C475 611 529 589 570 552 L570 552 Z M454 346 C458 353 461 362 461 371 C461 380 458 389 454 396 L448 391 C451 385 453 378 453 371 C453 364 451 357 448 351 C448 351 450 349 454 346 L454 346 Z M468 333 C476 344 480 357 480 371 C480 385 476 398 468 409 L460 402 C466 393 470 382 470 371 C470 360 466 349 460 340 C463 338 465 336 468 333 L468 333 Z M498 306 C511 325 519 347 519 371 C519 395 511 418 497 436 L490 429 C502 413 509 393 509 371 C509 349 502 329 490 313 C492 311 495 308 498 306 L498 306 Z M540 269 C562 297 575 332 575 371 C575 410 562 445 539 473 L531 466 C552 440 565 407 565 371 C565 335 552 302 532 276 C535 274 537 271 540 269 L540 269 Z M568 243 C596 278 613 322 613 371 C613 420 596 464 568 499 L560 492 C587 459 603 417 603 371 C603 325 587 283 560 250 C563 248 566 245 568 243 L568 243 Z M604 211 C640 254 661 310 661 371 C661 432 640 488 604 531 L596 524 C631 483 651 429 651 371 C651 313 631 260 596 218 C601 213 604 211 604 211 L604 211 Z M649 171 C694 225 721 295 721 371 C721 447 694 517 649 571 L641 564 C685 512 711 445 711 371 C711 297 685 230 642 177 C644 175 647 173 649 171 L649 171 Z M706 120 C762 188 796 276 796 371 C796 467 762 555 706 622 L698 615 C753 549 786 464 786 371 C786 278 753 193 698 127 C703 123 706 120 706 120 L706 120 Z M183 170 L190 177 C147 229 121 297 121 371 C121 444 147 512 190 564 C187 567 184 569 182 571 C138 517 111 447 111 371 C111 294 138 225 183 170 L183 170 Z M334 306 L342 314 C330 330 323 350 323 371 C323 393 330 413 342 429 C340 431 337 434 334 436 C321 418 313 395 313 371 C313 346 321 324 334 306 L334 306 Z M364 333 L371 340 C366 349 362 360 362 371 C362 382 366 393 371 402 C369 404 366 406 364 409 C356 398 352 385 352 371 C352 357 356 344 364 333 L364 333 Z M395 403 C401 408 408 410 416 410 C424 410 431 407 437 403 C437 403 439 406 442 409 C435 415 426 418 416 418 C406 418 397 415 390 409 L395 403 Z M384 416 C393 423 404 428 416 428 C428 428 439 424 448 416 C450 419 452 421 454 423 C443 432 430 437 416 437 C401 437 388 432 377 423 L384 416 Z M371 430 C383 441 399 447 416 447 C433 447 449 441 461 430 C461 430 464 434 468 438 C454 450 436 457 416 457 C397 457 378 450 364 438 L371 430 Z M295 516 C327 545 370 562 416 562 C462 562 505 545 538 516 C538 516 545 523 544 523 C510 554 465 572 416 572 C367 572 322 554 288 524 L295 516 Z M416 240 C448 240 476 252 498 271 L491 278 C471 261 445 250 416 250 C388 250 361 261 340 278 L333 270 C355 251 384 240 416 240 L416 240 Z M416 285 C436 285 454 292 468 304 L461 312 C448 301 433 295 416 295 C399 295 383 302 370 312 L363 304 C378 292 396 285 416 285 L416 285 Z M416 305 C430 305 444 310 455 319 L448 326 C439 319 428 314 416 314 C404 314 393 319 383 326 L376 319 C388 310 401 305 416 305 L416 305 Z M341 464 C362 482 388 492 416 492 C445 492 471 481 491 464 L498 472 C476 491 447 502 416 502 C385 502 356 490 334 471 L341 464 Z M320 487 C346 509 380 523 416 523 C453 523 486 510 512 487 L518 494 C491 518 455 533 416 533 C377 533 341 519 313 495 L320 487 Z M610 597 L617 605 C563 653 493 682 416 682 C339 682 269 653 215 605 L222 598 C274 644 342 672 416 672 C491 672 559 644 610 597 L610 597 Z M172 654 C237 713 322 749 416 749 C510 749 596 713 661 654 L668 662 C601 722 512 759 416 759 C320 759 232 723 165 662 L172 654 Z M516 290 C534 312 544 340 544 371 C544 402 534 430 516 453 L508 446 C524 425 534 399 534 371 C534 343 524 317 509 297 L516 290 Z " />
<glyph glyph-name="summation" unicode="&#x2211;" horiz-adv-x="832" d="M126 120 C126 120 129 123 134 127 C79 193 46 278 46 371 C46 464 79 549 133 615 C129 619 126 621 126 621 C70 554 36 466 36 371 C36 275 70 187 126 120 L126 120 Z M228 211 C230 213 233 215 235 218 C201 259 181 313 181 371 C181 429 202 483 235 524 C232 526 230 529 227 531 C192 487 171 432 171 371 C171 310 193 254 228 211 L228 211 Z M264 243 C267 245 269 248 272 250 C245 283 229 325 229 371 C229 417 245 459 272 492 C269 494 267 497 264 499 C236 464 219 419 219 371 C219 322 236 278 264 243 L264 243 Z M316 289 C319 291 321 294 324 296 C308 317 298 343 298 371 C298 399 308 425 323 445 C321 448 318 450 316 452 C298 430 288 402 288 371 C288 340 298 312 316 289 L316 289 Z M349 320 C352 323 354 325 357 327 C348 340 343 355 343 371 C343 387 348 402 357 415 C354 417 352 420 349 422 C339 408 333 390 333 371 C333 352 339 334 349 320 L349 320 Z M378 346 C382 349 384 351 384 351 C381 357 379 364 379 371 C379 378 381 385 384 391 C384 391 382 393 378 396 C374 389 371 380 371 371 C371 362 374 353 378 346 L378 346 Z M416 60 C493 60 563 89 616 136 C614 139 611 141 609 144 C558 98 490 70 416 70 C342 70 274 98 222 144 C222 145 215 137 215 137 C268 89 338 60 416 60 L416 60 Z M416 324 C426 324 435 327 442 333 C439 337 437 339 437 339 C431 334 424 332 416 332 C408 332 401 335 395 339 C395 339 391 334 389 333 C397 327 406 324 416 324 L416 324 Z M482 319 C493 334 499 352 499 371 C499 390 493 408 482 422 C483 422 475 415 475 415 C484 403 489 388 489 371 C489 355 484 339 475 326 C478 324 480 322 482 319 L482 319 Z M292 269 C295 271 298 274 300 276 C280 302 267 335 267 371 C267 407 280 440 300 466 L293 473 C270 445 257 410 257 371 C257 333 270 297 292 269 L292 269 Z M416 -17 C512 -17 600 19 667 80 C667 80 660 88 660 87 C595 29 510 -7 416 -7 C322 -7 236 29 171 88 L164 80 C231 20 320 -17 416 -17 L416 -17 Z M416 121 C478 121 534 144 576 182 C574 185 571 187 569 190 C529 153 475 131 416 131 C357 131 303 153 262 190 L255 182 C298 144 354 121 416 121 L416 121 Z M416 170 C465 170 510 188 544 218 C542 221 539 223 537 226 C505 197 462 180 416 180 C369 180 327 197 294 226 L287 219 C322 189 367 170 416 170 L416 170 Z M416 209 C455 209 491 224 518 247 C516 250 514 253 512 255 C486 233 452 219 416 219 C380 219 346 233 320 255 L313 247 C341 224 377 209 416 209 L416 209 Z M416 265 C441 265 463 274 481 289 C479 292 476 294 474 297 C458 283 438 275 416 275 C394 275 373 283 357 297 L350 289 C368 274 391 265 416 265 L416 265 Z M358 445 C374 459 394 467 416 467 C438 467 458 459 474 445 L482 453 C464 468 441 477 416 477 C391 477 368 468 350 453 C351 452 354 448 358 445 L358 445 Z M570 552 C572 554 575 557 577 560 C534 598 478 621 416 621 C355 621 299 598 256 560 L263 553 C304 589 357 611 416 611 C475 611 529 589 570 552 L570 552 Z M454 346 C458 353 461 362 461 371 C461 380 458 389 454 396 L448 391 C451 385 453 378 453 371 C453 364 451 357 448 351 C448 351 450 349 454 346 L454 346 Z M468 333 C476 344 480 357 480 371 C480 385 476 398 468 409 L460 402 C466 393 470 382 470 371 C470 360 466 349 460 340 C463 338 465 336 468 333 L468 333 Z M498 306 C511 325 519 347 519 371 C519 395 511 418 497 436 L490 429 C502 413 509 393 509 371 C509 349 502 329 490 313 C492 311 495 308 498 306 L498 306 Z M540 269 C562 297 575 332 575 371 C575 410 562 445 539 473 L531 466 C552 440 565 407 565 371 C565 335 552 302 532 276 C535 274 537 271 540 269 L540 269 Z M568 243 C596 278 613 322 613 371 C613 420 596 464 568 499 L560 492 C587 459 603 417 603 371 C603 325 587 283 560 250 C563 248 566 245 568 243 L568 243 Z M604 211 C640 254 661 310 661 371 C661 432 640 488 604 531 L596 524 C631 483 651 429 651 371 C651 313 631 260 596 218 C601 213 604 211 604 211 L604 211 Z M649 171 C694 225 721 295 721 371 C721 447 694 517 649 571 L641 564 C685 512 711 445 711 371 C711 297 685 230 642 177 C644 175 647 173 649 171 L649 171 Z M706 120 C762 188 796 276 796 371 C796 467 762 555 706 622 L698 615 C753 549 786 464 786 371 C786 278 753 193 698 127 C703 123 706 120 706 120 L706 120 Z M183 170 L190 177 C147 229 121 297 121 371 C121 444 147 512 190 564 C187 567 184 569 182 571 C138 517 111 447 111 371 C111 294 138 225 183 170 L183 170 Z M334 306 L342 314 C330 330 323 350 323 371 C323 393 330 413 342 429 C340 431 337 434 334 436 C321 418 313 395 313 371 C313 346 321 324 334 306 L334 306 Z M364 333 L371 340 C366 349 362 360 362 371 C362 382 366 393 371 402 C369 404 366 406 364 409 C356 398 352 385 352 371 C352 357 356 344 364 333 L364 333 Z M395 403 C401 408 408 410 416 410 C424 410 431 407 437 403 C437 403 439 406 442 409 C435 415 426 418 416 418 C406 418 397 415 390 409 L395 403 Z M384 416 C393 423 404 428 416 428 C428 428 439 424 448 416 C450 419 452 421 454 423 C443 432 430 437 416 437 C401 437 388 432 377 423 L384 416 Z M371 430 C383 441 399 447 416 447 C433 447 449 441 461 430 C461 430 464 434 468 438 C454 450 436 457 416 457 C397 457 378 450 364 438 L371 430 Z M295 516 C327 545 370 562 416 562 C462 562 505 545 538 516 C538 516 545 523 544 523 C510 554 465 572 416 572 C367 572 322 554 288 524 L295 516 Z M416 240 C448 240 476 252 498 271 L491 278 C471 261 445 250 416 250 C388 250 361 261 340 278 L333 270 C355 251 384 240 416 240 L416 240 Z M416 285 C436 285 454 292 468 304 L461 312 C448 301 433 295 416 295 C399 295 383 302 370 312 L363 304 C378 292 396 285 416 285 L416 285 Z M416 305 C430 305 444 310 455 319 L448 326 C439 319 428 314 416 314 C404 314 393 319 383 326 L376 319 C388 310 401 305 416 305 L416 305 Z M341 464 C362 482 388 492 416 492 C445 492 471 481 491 464 L498 472 C476 491 447 502 416 502 C385 502 356 490 334 471 L341 464 Z M320 487 C346 509 380 523 416 523 C453 523 486 510 512 487 L518 494 C491 518 455 533 416 533 C377 533 341 519 313 495 L320 487 Z M610 597 L617 605 C563 653 493 682 416 682 C339 682 269 653 215 605 L222 598 C274 644 342 672 416 672 C491 672 559 644 610 597 L610 597 Z M172 654 C237 713 322 749 416 749 C510 749 596 713 661 654 L668 662 C601 722 512 759 416 759 C320 759 232 723 165 662 L172 654 Z M516 290 C534 312 544 340 544 371 C544 402 534 430 516 453 L508 446 C524 425 534 399 534 371 C534 343 524 317 509 297 L516 290 Z " />
<glyph glyph-name="minus" unicode="&#x2212;" horiz-adv-x="293" d="M37 327 L249 327 L256 398 L44 398 L37 327 Z " />
<glyph glyph-name="radical" unicode="&#x221a;" horiz-adv-x="273" d="M42 -4 L118 -4 L305 741 L233 741 L96 134 L97 420 L22 420 L42 -4 Z " />
<glyph glyph-name="infinity" unicode="&#x221e;" horiz-adv-x="436" d="M138 -145 L211 -145 L276 487 L318 487 L324 555 L283 555 L292 636 C297 673 305 685 336 685 L338 685 L346 756 C342 757 336 757 332 757 C255 757 230 728 221 644 L211 555 L141 555 L150 636 C155 673 162 685 193 685 L196 685 L203 756 C200 757 193 757 189 757 C112 757 87 728 79 644 L69 555 L28 555 L22 487 L62 487 L-4 -145 L68 -145 L134 487 L204 487 L138 -145 Z M296 0 L370 0 L427 555 L354 555 L296 0 Z M362 622 L435 622 L446 728 L372 728 L362 622 Z " />
<glyph glyph-name="integral" unicode="&#x222b;" horiz-adv-x="832" d="M126 120 C126 120 129 123 134 127 C79 193 46 278 46 371 C46 464 79 549 133 615 C129 619 126 621 126 621 C70 554 36 466 36 371 C36 275 70 187 126 120 L126 120 Z M228 211 C230 213 233 215 235 218 C201 259 181 313 181 371 C181 429 202 483 235 524 C232 526 230 529 227 531 C192 487 171 432 171 371 C171 310 193 254 228 211 L228 211 Z M264 243 C267 245 269 248 272 250 C245 283 229 325 229 371 C229 417 245 459 272 492 C269 494 267 497 264 499 C236 464 219 419 219 371 C219 322 236 278 264 243 L264 243 Z M316 289 C319 291 321 294 324 296 C308 317 298 343 298 371 C298 399 308 425 323 445 C321 448 318 450 316 452 C298 430 288 402 288 371 C288 340 298 312 316 289 L316 289 Z M349 320 C352 323 354 325 357 327 C348 340 343 355 343 371 C343 387 348 402 357 415 C354 417 352 420 349 422 C339 408 333 390 333 371 C333 352 339 334 349 320 L349 320 Z M378 346 C382 349 384 351 384 351 C381 357 379 364 379 371 C379 378 381 385 384 391 C384 391 382 393 378 396 C374 389 371 380 371 371 C371 362 374 353 378 346 L378 346 Z M416 60 C493 60 563 89 616 136 C614 139 611 141 609 144 C558 98 490 70 416 70 C342 70 274 98 222 144 C222 145 215 137 215 137 C268 89 338 60 416 60 L416 60 Z M416 324 C426 324 435 327 442 333 C439 337 437 339 437 339 C431 334 424 332 416 332 C408 332 401 335 395 339 C395 339 391 334 389 333 C397 327 406 324 416 324 L416 324 Z M482 319 C493 334 499 352 499 371 C499 390 493 408 482 422 C483 422 475 415 475 415 C484 403 489 388 489 371 C489 355 484 339 475 326 C478 324 480 322 482 319 L482 319 Z M292 269 C295 271 298 274 300 276 C280 302 267 335 267 371 C267 407 280 440 300 466 L293 473 C270 445 257 410 257 371 C257 333 270 297 292 269 L292 269 Z M416 -17 C512 -17 600 19 667 80 C667 80 660 88 660 87 C595 29 510 -7 416 -7 C322 -7 236 29 171 88 L164 80 C231 20 320 -17 416 -17 L416 -17 Z M416 121 C478 121 534 144 576 182 C574 185 571 187 569 190 C529 153 475 131 416 131 C357 131 303 153 262 190 L255 182 C298 144 354 121 416 121 L416 121 Z M416 170 C465 170 510 188 544 218 C542 221 539 223 537 226 C505 197 462 180 416 180 C369 180 327 197 294 226 L287 219 C322 189 367 170 416 170 L416 170 Z M416 209 C455 209 491 224 518 247 C516 250 514 253 512 255 C486 233 452 219 416 219 C380 219 346 233 320 255 L313 247 C341 224 377 209 416 209 L416 209 Z M416 265 C441 265 463 274 481 289 C479 292 476 294 474 297 C458 283 438 275 416 275 C394 275 373 283 357 297 L350 289 C368 274 391 265 416 265 L416 265 Z M358 445 C374 459 394 467 416 467 C438 467 458 459 474 445 L482 453 C464 468 441 477 416 477 C391 477 368 468 350 453 C351 452 354 448 358 445 L358 445 Z M570 552 C572 554 575 557 577 560 C534 598 478 621 416 621 C355 621 299 598 256 560 L263 553 C304 589 357 611 416 611 C475 611 529 589 570 552 L570 552 Z M454 346 C458 353 461 362 461 371 C461 380 458 389 454 396 L448 391 C451 385 453 378 453 371 C453 364 451 357 448 351 C448 351 450 349 454 346 L454 346 Z M468 333 C476 344 480 357 480 371 C480 385 476 398 468 409 L460 402 C466 393 470 382 470 371 C470 360 466 349 460 340 C463 338 465 336 468 333 L468 333 Z M498 306 C511 325 519 347 519 371 C519 395 511 418 497 436 L490 429 C502 413 509 393 509 371 C509 349 502 329 490 313 C492 311 495 308 498 306 L498 306 Z M540 269 C562 297 575 332 575 371 C575 410 562 445 539 473 L531 466 C552 440 565 407 565 371 C565 335 552 302 532 276 C535 274 537 271 540 269 L540 269 Z M568 243 C596 278 613 322 613 371 C613 420 596 464 568 499 L560 492 C587 459 603 417 603 371 C603 325 587 283 560 250 C563 248 566 245 568 243 L568 243 Z M604 211 C640 254 661 310 661 371 C661 432 640 488 604 531 L596 524 C631 483 651 429 651 371 C651 313 631 260 596 218 C601 213 604 211 604 211 L604 211 Z M649 171 C694 225 721 295 721 371 C721 447 694 517 649 571 L641 564 C685 512 711 445 711 371 C711 297 685 230 642 177 C644 175 647 173 649 171 L649 171 Z M706 120 C762 188 796 276 796 371 C796 467 762 555 706 622 L698 615 C753 549 786 464 786 371 C786 278 753 193 698 127 C703 123 706 120 706 120 L706 120 Z M183 170 L190 177 C147 229 121 297 121 371 C121 444 147 512 190 564 C187 567 184 569 182 571 C138 517 111 447 111 371 C111 294 138 225 183 170 L183 170 Z M334 306 L342 314 C330 330 323 350 323 371 C323 393 330 413 342 429 C340 431 337 434 334 436 C321 418 313 395 313 371 C313 346 321 324 334 306 L334 306 Z M364 333 L371 340 C366 349 362 360 362 371 C362 382 366 393 371 402 C369 404 366 406 364 409 C356 398 352 385 352 371 C352 357 356 344 364 333 L364 333 Z M395 403 C401 408 408 410 416 410 C424 410 431 407 437 403 C437 403 439 406 442 409 C435 415 426 418 416 418 C406 418 397 415 390 409 L395 403 Z M384 416 C393 423 404 428 416 428 C428 428 439 424 448 416 C450 419 452 421 454 423 C443 432 430 437 416 437 C401 437 388 432 377 423 L384 416 Z M371 430 C383 441 399 447 416 447 C433 447 449 441 461 430 C461 430 464 434 468 438 C454 450 436 457 416 457 C397 457 378 450 364 438 L371 430 Z M295 516 C327 545 370 562 416 562 C462 562 505 545 538 516 C538 516 545 523 544 523 C510 554 465 572 416 572 C367 572 322 554 288 524 L295 516 Z M416 240 C448 240 476 252 498 271 L491 278 C471 261 445 250 416 250 C388 250 361 261 340 278 L333 270 C355 251 384 240 416 240 L416 240 Z M416 285 C436 285 454 292 468 304 L461 312 C448 301 433 295 416 295 C399 295 383 302 370 312 L363 304 C378 292 396 285 416 285 L416 285 Z M416 305 C430 305 444 310 455 319 L448 326 C439 319 428 314 416 314 C404 314 393 319 383 326 L376 319 C388 310 401 305 416 305 L416 305 Z M341 464 C362 482 388 492 416 492 C445 492 471 481 491 464 L498 472 C476 491 447 502 416 502 C385 502 356 490 334 471 L341 464 Z M320 487 C346 509 380 523 416 523 C453 523 486 510 512 487 L518 494 C491 518 455 533 416 533 C377 533 341 519 313 495 L320 487 Z M610 597 L617 605 C563 653 493 682 416 682 C339 682 269 653 215 605 L222 598 C274 644 342 672 416 672 C491 672 559 644 610 597 L610 597 Z M172 654 C237 713 322 749 416 749 C510 749 596 713 661 654 L668 662 C601 722 512 759 416 759 C320 759 232 723 165 662 L172 654 Z M516 290 C534 312 544 340 544 371 C544 402 534 430 516 453 L508 446 C524 425 534 399 534 371 C534 343 524 317 509 297 L516 290 Z " />
<glyph glyph-name="approxequal" unicode="&#x2248;" horiz-adv-x="293" d="M33 245 L88 245 C91 265 95 270 104 270 C118 270 167 246 194 246 C227 246 247 257 253 333 L199 333 C197 313 193 308 184 308 C169 308 120 333 94 333 C63 333 40 322 33 245 L33 245 Z M37 370 L92 370 C95 391 99 396 107 396 C121 396 171 371 197 371 C231 371 251 382 257 459 L202 459 C200 438 197 433 188 433 C173 433 124 459 98 459 C67 459 44 446 37 370 L37 370 Z " />
<glyph glyph-name="notequal" unicode="&#x2260;" horiz-adv-x="319" d="M136 -145 L209 -145 L275 487 L328 487 L335 555 L282 555 L291 636 C295 673 301 685 337 685 L349 685 L356 756 C352 757 340 757 337 757 C255 757 227 728 219 644 L209 555 L139 555 L148 636 C152 673 159 685 190 685 L194 685 L201 756 C198 757 190 757 187 757 C110 757 85 728 76 644 L66 555 L26 555 L20 487 L59 487 L-8 -145 L66 -145 L132 487 L202 487 L136 -145 Z " />
<glyph glyph-name="lessequal" unicode="&#x2264;" horiz-adv-x="293" d="M209 171 L218 257 L116 360 L239 464 L249 549 L46 389 L41 332 L209 171 Z M15 90 L200 90 L208 162 L22 162 L15 90 Z " />
<glyph glyph-name="greaterequal" unicode="&#x2265;" horiz-adv-x="293" d="M43 171 L245 332 L251 389 L83 549 L74 464 L176 360 L52 256 L43 171 Z M34 90 L220 90 L228 162 L43 162 L34 90 Z " />
<glyph glyph-name="lozenge" unicode="&#x25ca;" horiz-adv-x="325" d="M-8 -145 L66 -145 L133 487 L200 487 L160 106 C152 37 165 -1 244 -1 C250 -1 267 -1 273 0 L280 71 L262 71 C234 71 230 80 233 112 L273 487 L325 487 L332 555 L279 555 L296 707 L231 687 L210 555 L139 555 L148 636 C152 673 159 685 190 685 L194 685 L201 756 C198 757 190 757 187 757 C110 757 85 728 76 644 L67 555 L26 555 L20 487 L60 487 L-8 -145 Z " />
<glyph glyph-name="apple" unicode="&#xf8ff;" horiz-adv-x="832" d="M126 120 C126 120 129 123 134 127 C79 193 46 278 46 371 C46 464 79 549 133 615 C129 619 126 621 126 621 C70 554 36 466 36 371 C36 275 70 187 126 120 L126 120 Z M228 211 C230 213 233 215 235 218 C201 259 181 313 181 371 C181 429 202 483 235 524 C232 526 230 529 227 531 C192 487 171 432 171 371 C171 310 193 254 228 211 L228 211 Z M264 243 C267 245 269 248 272 250 C245 283 229 325 229 371 C229 417 245 459 272 492 C269 494 267 497 264 499 C236 464 219 419 219 371 C219 322 236 278 264 243 L264 243 Z M316 289 C319 291 321 294 324 296 C308 317 298 343 298 371 C298 399 308 425 323 445 C321 448 318 450 316 452 C298 430 288 402 288 371 C288 340 298 312 316 289 L316 289 Z M349 320 C352 323 354 325 357 327 C348 340 343 355 343 371 C343 387 348 402 357 415 C354 417 352 420 349 422 C339 408 333 390 333 371 C333 352 339 334 349 320 L349 320 Z M378 346 C382 349 384 351 384 351 C381 357 379 364 379 371 C379 378 381 385 384 391 C384 391 382 393 378 396 C374 389 371 380 371 371 C371 362 374 353 378 346 L378 346 Z M416 60 C493 60 563 89 616 136 C614 139 611 141 609 144 C558 98 490 70 416 70 C342 70 274 98 222 144 C222 145 215 137 215 137 C268 89 338 60 416 60 L416 60 Z M416 324 C426 324 435 327 442 333 C439 337 437 339 437 339 C431 334 424 332 416 332 C408 332 401 335 395 339 C395 339 391 334 389 333 C397 327 406 324 416 324 L416 324 Z M482 319 C493 334 499 352 499 371 C499 390 493 408 482 422 C483 422 475 415 475 415 C484 403 489 388 489 371 C489 355 484 339 475 326 C478 324 480 322 482 319 L482 319 Z M292 269 C295 271 298 274 300 276 C280 302 267 335 267 371 C267 407 280 440 300 466 L293 473 C270 445 257 410 257 371 C257 333 270 297 292 269 L292 269 Z M416 -17 C512 -17 600 19 667 80 C667 80 660 88 660 87 C595 29 510 -7 416 -7 C322 -7 236 29 171 88 L164 80 C231 20 320 -17 416 -17 L416 -17 Z M416 121 C478 121 534 144 576 182 C574 185 571 187 569 190 C529 153 475 131 416 131 C357 131 303 153 262 190 L255 182 C298 144 354 121 416 121 L416 121 Z M416 170 C465 170 510 188 544 218 C542 221 539 223 537 226 C505 197 462 180 416 180 C369 180 327 197 294 226 L287 219 C322 189 367 170 416 170 L416 170 Z M416 209 C455 209 491 224 518 247 C516 250 514 253 512 255 C486 233 452 219 416 219 C380 219 346 233 320 255 L313 247 C341 224 377 209 416 209 L416 209 Z M416 265 C441 265 463 274 481 289 C479 292 476 294 474 297 C458 283 438 275 416 275 C394 275 373 283 357 297 L350 289 C368 274 391 265 416 265 L416 265 Z M358 445 C374 459 394 467 416 467 C438 467 458 459 474 445 L482 453 C464 468 441 477 416 477 C391 477 368 468 350 453 C351 452 354 448 358 445 L358 445 Z M570 552 C572 554 575 557 577 560 C534 598 478 621 416 621 C355 621 299 598 256 560 L263 553 C304 589 357 611 416 611 C475 611 529 589 570 552 L570 552 Z M454 346 C458 353 461 362 461 371 C461 380 458 389 454 396 L448 391 C451 385 453 378 453 371 C453 364 451 357 448 351 C448 351 450 349 454 346 L454 346 Z M468 333 C476 344 480 357 480 371 C480 385 476 398 468 409 L460 402 C466 393 470 382 470 371 C470 360 466 349 460 340 C463 338 465 336 468 333 L468 333 Z M498 306 C511 325 519 347 519 371 C519 395 511 418 497 436 L490 429 C502 413 509 393 509 371 C509 349 502 329 490 313 C492 311 495 308 498 306 L498 306 Z M540 269 C562 297 575 332 575 371 C575 410 562 445 539 473 L531 466 C552 440 565 407 565 371 C565 335 552 302 532 276 C535 274 537 271 540 269 L540 269 Z M568 243 C596 278 613 322 613 371 C613 420 596 464 568 499 L560 492 C587 459 603 417 603 371 C603 325 587 283 560 250 C563 248 566 245 568 243 L568 243 Z M604 211 C640 254 661 310 661 371 C661 432 640 488 604 531 L596 524 C631 483 651 429 651 371 C651 313 631 260 596 218 C601 213 604 211 604 211 L604 211 Z M649 171 C694 225 721 295 721 371 C721 447 694 517 649 571 L641 564 C685 512 711 445 711 371 C711 297 685 230 642 177 C644 175 647 173 649 171 L649 171 Z M706 120 C762 188 796 276 796 371 C796 467 762 555 706 622 L698 615 C753 549 786 464 786 371 C786 278 753 193 698 127 C703 123 706 120 706 120 L706 120 Z M183 170 L190 177 C147 229 121 297 121 371 C121 444 147 512 190 564 C187 567 184 569 182 571 C138 517 111 447 111 371 C111 294 138 225 183 170 L183 170 Z M334 306 L342 314 C330 330 323 350 323 371 C323 393 330 413 342 429 C340 431 337 434 334 436 C321 418 313 395 313 371 C313 346 321 324 334 306 L334 306 Z M364 333 L371 340 C366 349 362 360 362 371 C362 382 366 393 371 402 C369 404 366 406 364 409 C356 398 352 385 352 371 C352 357 356 344 364 333 L364 333 Z M395 403 C401 408 408 410 416 410 C424 410 431 407 437 403 C437 403 439 406 442 409 C435 415 426 418 416 418 C406 418 397 415 390 409 L395 403 Z M384 416 C393 423 404 428 416 428 C428 428 439 424 448 416 C450 419 452 421 454 423 C443 432 430 437 416 437 C401 437 388 432 377 423 L384 416 Z M371 430 C383 441 399 447 416 447 C433 447 449 441 461 430 C461 430 464 434 468 438 C454 450 436 457 416 457 C397 457 378 450 364 438 L371 430 Z M295 516 C327 545 370 562 416 562 C462 562 505 545 538 516 C538 516 545 523 544 523 C510 554 465 572 416 572 C367 572 322 554 288 524 L295 516 Z M416 240 C448 240 476 252 498 271 L491 278 C471 261 445 250 416 250 C388 250 361 261 340 278 L333 270 C355 251 384 240 416 240 L416 240 Z M416 285 C436 285 454 292 468 304 L461 312 C448 301 433 295 416 295 C399 295 383 302 370 312 L363 304 C378 292 396 285 416 285 L416 285 Z M416 305 C430 305 444 310 455 319 L448 326 C439 319 428 314 416 314 C404 314 393 319 383 326 L376 319 C388 310 401 305 416 305 L416 305 Z M341 464 C362 482 388 492 416 492 C445 492 471 481 491 464 L498 472 C476 491 447 502 416 502 C385 502 356 490 334 471 L341 464 Z M320 487 C346 509 380 523 416 523 C453 523 486 510 512 487 L518 494 C491 518 455 533 416 533 C377 533 341 519 313 495 L320 487 Z M610 597 L617 605 C563 653 493 682 416 682 C339 682 269 653 215 605 L222 598 C274 644 342 672 416 672 C491 672 559 644 610 597 L610 597 Z M172 654 C237 713 322 749 416 749 C510 749 596 713 661 654 L668 662 C601 722 512 759 416 759 C320 759 232 723 165 662 L172 654 Z M516 290 C534 312 544 340 544 371 C544 402 534 430 516 453 L508 446 C524 425 534 399 534 371 C534 343 524 317 509 297 L516 290 Z " />
<glyph glyph-name="fi" unicode="&#xfb01;" horiz-adv-x="294" d="M22 487 L62 487 L-4 -145 L68 -145 L134 487 L176 487 L182 555 L141 555 L150 636 C155 673 162 685 193 685 L196 685 L203 756 C200 757 193 757 189 757 C112 757 87 728 79 644 L69 555 L28 555 L22 487 Z M154 0 L227 0 L285 555 L211 555 L154 0 Z M219 622 L292 622 L303 726 L230 726 L219 622 Z " />
<glyph glyph-name="fl" unicode="&#xfb02;" horiz-adv-x="311" d="M22 487 L62 487 L-4 -145 L68 -145 L134 487 L176 487 L182 555 L141 555 L150 636 C155 673 162 685 193 685 L196 685 L203 756 C200 757 193 757 189 757 C112 757 87 728 79 644 L69 555 L28 555 L22 487 Z M231 -1 C235 -1 254 -1 258 0 L265 71 L255 71 C237 71 235 77 238 104 L306 756 L233 756 L164 102 C157 34 165 -1 231 -1 L231 -1 Z " />
</font>
</svg>
