<?xml version="1.0" encoding="UTF-8"?>
<svg xmlns="http://www.w3.org/2000/svg" xmlns:xlink="http://www.w3.org/1999/xlink" version="1.2" >
<font id="AntennaExtraCond MediumItalic">
<font-face  font-family="AntennaExtraCond" units-per-em="1000" ascent="800" descent="-200" font-style="italic" font-weight="500" font-stretch="normal" slope="-8" cap-height="741" x-height="559" underline-position="-75" underline-thickness="50" />
<missing-glyph  horiz-adv-x="131" d="" />
<glyph glyph-name="NULL" d="" />
<glyph glyph-name="CR" unicode="&#xd;" horiz-adv-x="250" d="" />
<glyph glyph-name="&amp;#x20;" unicode="&#x20;" horiz-adv-x="131" d="" />
<glyph glyph-name="&amp;#xa0;" unicode="&#xa0;" horiz-adv-x="131" d="" />
<glyph glyph-name="exclam" unicode="&#x21;" horiz-adv-x="256" d="M18 0 L134 0 L153 134 L36 134 L18 0 Z M61 214 L152 214 L236 741 L125 741 L61 214 Z " />
<glyph glyph-name="quotedbl" unicode="&#x22;" horiz-adv-x="372" d="M72 441 L165 441 L211 741 L108 741 L72 441 Z M229 441 L321 441 L370 741 L265 741 L229 441 Z " />
<glyph glyph-name="numbersign" unicode="&#x23;" horiz-adv-x="471" d="M56 0 L150 0 L180 218 L243 218 L213 0 L307 0 L337 218 L418 218 L431 314 L350 314 L364 408 L444 408 L458 504 L377 504 L410 741 L317 741 L283 504 L220 504 L253 741 L160 741 L126 504 L53 504 L40 408 L113 408 L99 314 L26 314 L13 218 L86 218 L56 0 Z M187 307 L202 415 L276 415 L261 307 L187 307 Z " />
<glyph glyph-name="dollar" unicode="&#x24;" horiz-adv-x="390" d="M85 -92 L182 -92 L195 4 C284 23 335 96 335 196 C335 262 302 308 237 412 C180 503 163 529 163 561 C163 618 200 650 248 650 C293 650 329 639 352 627 L400 716 C372 728 342 737 299 741 L310 823 L213 823 L201 740 C109 721 61 644 61 552 C61 489 93 447 150 356 C216 250 235 220 235 188 C235 118 192 89 140 89 C81 89 34 108 8 122 L-36 38 C0 19 35 5 98 0 L85 -92 Z " />
<glyph glyph-name="percent" unicode="&#x25;" horiz-adv-x="747" d="M157 276 C278 276 300 361 319 502 C326 550 331 590 331 618 C331 701 290 749 206 749 C84 749 63 664 43 521 C37 477 32 439 32 406 C32 326 67 276 157 276 L157 276 Z M161 356 C132 356 122 371 122 408 C122 433 126 468 133 515 C149 629 154 666 201 666 C230 666 239 651 239 615 C239 590 234 554 228 507 C212 393 206 356 161 356 L161 356 Z M542 -5 C663 -5 684 79 704 220 C711 270 716 309 716 337 C716 419 675 468 591 468 C469 468 447 383 427 240 C421 196 417 157 417 126 C417 45 452 -5 542 -5 L542 -5 Z M545 75 C517 75 507 90 507 127 C507 153 511 188 517 233 C534 348 539 385 585 385 C614 385 624 370 624 334 C624 308 619 274 612 227 C597 112 590 75 545 75 L545 75 Z M154 0 L242 0 L593 741 L505 741 L154 0 Z " />
<glyph glyph-name="ampersand" unicode="&#x26;" horiz-adv-x="522" d="M189 -5 C241 -5 284 6 321 32 L337 0 L452 0 L395 116 C434 186 463 288 483 431 L391 431 C378 341 364 271 345 217 L291 328 C281 347 272 365 265 382 C347 450 403 525 403 639 C403 704 370 748 271 748 C163 748 121 670 121 548 C121 508 128 467 143 421 C60 358 -11 284 -11 153 C-11 52 42 -5 189 -5 L189 -5 Z M193 83 C113 83 91 113 91 166 C91 245 126 289 175 339 C184 319 194 299 206 277 L283 114 C258 93 229 83 193 83 L193 83 Z M215 555 C215 617 228 661 269 661 C300 661 308 644 308 621 C308 555 283 511 232 462 C220 497 215 526 215 555 L215 555 Z " />
<glyph glyph-name="quotesingle" unicode="&#x27;" horiz-adv-x="215" d="M72 441 L166 441 L213 741 L108 741 L72 441 Z " />
<glyph glyph-name="parenleft" unicode="&#x28;" horiz-adv-x="327" d="M118 -163 L202 -117 C178 -67 147 20 147 155 C147 200 151 251 159 307 C189 528 264 649 321 724 L249 772 C182 697 89 545 56 312 C49 256 45 203 45 155 C45 -1 83 -105 118 -163 L118 -163 Z " />
<glyph glyph-name="parenright" unicode="&#x29;" horiz-adv-x="327" d="M59 -163 C126 -88 221 69 253 302 C261 358 265 409 265 456 C265 612 226 714 190 771 L106 725 C132 676 161 589 161 453 C161 409 158 358 151 302 C119 81 45 -40 -12 -115 L59 -163 Z " />
<glyph glyph-name="asterisk" unicode="&#x2a;" horiz-adv-x="401" d="M234 326 L247 465 L329 376 L387 443 L283 526 L406 580 L369 660 L265 595 L292 733 L211 744 L199 606 L118 695 L59 628 L162 544 L41 492 L78 411 L181 474 L154 337 L234 326 Z " />
<glyph glyph-name="plus" unicode="&#x2b;" horiz-adv-x="452" d="M145 158 L246 158 L268 318 L384 318 L398 414 L282 414 L304 574 L204 574 L182 414 L66 414 L52 318 L167 318 L145 158 Z " />
<glyph glyph-name="comma" unicode="&#x2c;" horiz-adv-x="191" d="M1 -119 C79 -81 94 -50 101 4 L120 136 L5 136 L-15 0 L33 0 C28 -36 23 -39 -24 -67 L1 -119 Z " />
<glyph glyph-name="&amp;#x2d;" unicode="&#x2d;" horiz-adv-x="267" d="M13 274 L228 274 L241 370 L26 370 L13 274 Z " />
<glyph glyph-name="&amp;#xad;" unicode="&#xad;" horiz-adv-x="267" d="M13 274 L228 274 L241 370 L26 370 L13 274 Z " />
<glyph glyph-name="period" unicode="&#x2e;" horiz-adv-x="191" d="M-15 0 L101 0 L120 136 L5 136 L-15 0 Z " />
<glyph glyph-name="slash" unicode="&#x2f;" horiz-adv-x="358" d="M-54 0 L52 0 L411 741 L306 741 L-54 0 Z " />
<glyph glyph-name="zero" unicode="0" horiz-adv-x="447" d="M184 -5 C342 -5 371 108 406 361 C417 444 428 518 428 574 C428 685 387 749 266 749 C106 749 75 634 40 384 C29 300 21 231 21 176 C21 63 61 -5 184 -5 L184 -5 Z M190 89 C141 89 123 113 123 177 C123 221 133 286 145 377 C176 599 187 652 259 652 C307 652 324 628 324 566 C324 522 315 458 302 365 C271 142 261 89 190 89 L190 89 Z " />
<glyph glyph-name="one" unicode="1" horiz-adv-x="264" d="M46 0 L148 0 L252 741 L69 741 L55 644 L137 644 L46 0 Z " />
<glyph glyph-name="two" unicode="2" horiz-adv-x="367" d="M-31 0 L279 0 L291 91 L95 91 L299 425 C349 506 367 549 367 619 C367 696 326 749 217 749 C154 749 105 740 66 723 L101 637 C130 648 164 654 194 654 C247 654 261 629 261 593 C261 552 247 521 218 473 L-19 86 L-31 0 Z " />
<glyph glyph-name="three" unicode="3" horiz-adv-x="353" d="M117 -5 C243 -5 282 60 303 206 C309 247 313 281 313 309 C313 361 298 394 263 409 C316 431 330 475 343 566 C347 588 349 609 349 629 C349 705 314 749 202 749 C137 749 88 738 61 727 L93 642 C119 651 147 655 178 655 C231 655 245 633 245 596 C245 583 243 567 240 551 C229 478 217 446 131 446 L90 446 L77 353 L99 353 C187 353 208 333 208 282 C208 264 205 242 202 216 C189 124 176 87 113 87 C72 87 30 103 8 114 L-36 30 C-5 15 38 -5 117 -5 L117 -5 Z " />
<glyph glyph-name="four" unicode="4" horiz-adv-x="426" d="M-4 161 L213 161 L190 0 L285 0 L307 161 L378 161 L391 254 L320 254 L349 453 L274 453 L228 254 L114 254 L369 741 L266 741 L8 247 L-4 161 Z " />
<glyph glyph-name="five" unicode="5" horiz-adv-x="373" d="M137 -5 C264 -5 301 50 327 234 C334 285 339 327 339 362 C339 454 307 494 216 494 C184 494 164 488 145 479 L174 644 L353 644 L366 741 L99 741 L40 399 L111 376 C127 388 144 398 174 398 C218 398 235 383 235 331 C235 308 231 279 225 241 C208 115 192 87 130 87 C80 87 36 104 14 114 L-32 30 C3 13 47 -5 137 -5 L137 -5 Z " />
<glyph glyph-name="six" unicode="6" horiz-adv-x="424" d="M184 -5 C319 -5 354 75 380 258 C386 299 390 337 390 371 C390 451 364 504 259 504 C212 504 178 495 154 469 C177 590 186 644 340 644 L374 644 L387 741 L352 741 C246 741 185 732 139 689 C84 635 62 549 42 403 L31 319 C22 260 17 210 17 168 C17 61 61 -5 184 -5 L184 -5 Z M185 85 C137 85 120 108 120 160 C120 188 124 223 130 270 C148 396 182 411 226 411 C271 411 285 388 285 342 C285 320 282 293 277 260 C259 127 249 85 185 85 L185 85 Z " />
<glyph glyph-name="seven" unicode="7" horiz-adv-x="333" d="M-1 0 L104 0 L361 654 L374 741 L57 741 L43 644 L253 644 L-1 0 Z " />
<glyph glyph-name="eight" unicode="8" horiz-adv-x="431" d="M176 -7 C312 -7 353 61 372 197 C377 232 381 264 381 294 C381 346 369 383 330 402 C383 427 397 484 408 563 C411 582 413 602 413 620 C413 705 367 749 254 749 C143 749 94 693 78 581 C74 552 71 523 71 499 C71 457 80 426 109 407 C40 381 24 313 11 215 C7 187 5 161 5 138 C5 43 52 -7 176 -7 L176 -7 Z M177 81 C127 81 110 104 110 150 C110 169 112 193 116 219 C129 310 144 350 209 350 C262 350 277 327 277 281 C277 261 275 239 270 211 C257 122 243 81 177 81 L177 81 Z M228 444 C184 444 170 466 170 504 C170 519 172 537 175 556 C185 627 199 661 252 661 C296 661 311 640 311 600 C311 585 309 569 306 549 C296 479 281 444 228 444 L228 444 Z " />
<glyph glyph-name="nine" unicode="9" horiz-adv-x="424" d="M42 0 L77 0 C183 0 244 9 290 52 C345 106 367 195 387 341 L398 425 C407 484 412 534 412 576 C412 683 374 749 245 749 C110 749 75 668 49 486 C43 444 39 407 39 372 C39 293 68 239 171 239 C217 239 251 249 275 275 C250 144 242 95 89 95 L54 95 L42 0 Z M203 329 C158 329 145 352 145 399 C145 419 148 447 152 481 C170 613 181 655 244 655 C293 655 310 632 310 579 C310 551 306 517 299 470 C282 344 248 329 203 329 L203 329 Z " />
<glyph glyph-name="colon" unicode="&#x3a;" horiz-adv-x="206" d="M-6 0 L108 0 L127 135 L13 135 L-6 0 Z M54 424 L167 424 L186 559 L73 559 L54 424 Z " />
<glyph glyph-name="semicolon" unicode="&#x3b;" horiz-adv-x="206" d="M9 -119 C88 -81 101 -46 108 4 L127 135 L13 135 L-6 0 L42 0 C37 -36 30 -41 -14 -67 L9 -119 Z M54 424 L167 424 L186 559 L73 559 L54 424 Z " />
<glyph glyph-name="less" unicode="&#x3c;" horiz-adv-x="452" d="M321 142 L336 244 L178 361 L369 477 L383 582 L81 399 L71 326 L321 142 Z " />
<glyph glyph-name="equal" unicode="&#x3d;" horiz-adv-x="452" d="M42 217 L368 217 L381 313 L56 313 L42 217 Z M68 402 L394 402 L408 498 L81 498 L68 402 Z " />
<glyph glyph-name="greater" unicode="&#x3e;" horiz-adv-x="452" d="M66 142 L368 324 L378 398 L129 582 L114 480 L273 363 L81 246 L66 142 Z " />
<glyph glyph-name="question" unicode="&#x3f;" horiz-adv-x="411" d="M121 210 L220 210 C234 308 239 329 276 379 L343 469 C379 517 397 557 397 615 C397 683 360 749 240 749 C184 749 135 744 90 727 L123 639 C153 648 184 654 222 654 C276 654 293 625 293 594 C293 562 287 539 263 508 L191 415 C141 350 138 316 121 210 L121 210 Z M83 0 L199 0 L216 123 L101 123 L83 0 Z " />
<glyph glyph-name="at" unicode="&#x40;" horiz-adv-x="594" d="M259 -152 L381 -152 L389 -93 L261 -93 C100 -93 58 -25 58 91 C58 151 70 227 82 312 C117 563 130 690 321 690 C477 690 518 623 518 510 C518 451 506 375 494 288 L476 156 C470 114 462 102 433 102 C401 102 405 130 408 152 L461 530 L395 535 L380 504 C366 526 345 539 279 539 C177 539 158 445 138 305 C132 259 125 214 125 178 C125 103 148 50 240 50 C299 50 328 63 351 86 C360 67 381 50 426 50 C491 50 522 65 533 149 L552 283 C564 372 576 450 576 515 C576 657 524 749 321 749 C86 749 62 587 25 316 C12 230 1 152 1 87 C1 -58 53 -152 259 -152 L259 -152 Z M261 125 C222 125 211 150 211 196 C211 223 215 259 221 299 C237 409 245 458 299 458 C343 458 354 436 354 390 C354 365 351 333 344 290 C327 167 320 125 261 125 L261 125 Z " />
<glyph glyph-name="A" unicode="A" horiz-adv-x="453" d="M-41 0 L63 0 L110 140 L275 140 L284 0 L391 0 L334 743 L222 743 L-41 0 Z M142 235 L213 449 L249 562 L256 448 L267 235 L142 235 Z " />
<glyph glyph-name="B" unicode="B" horiz-adv-x="447" d="M-7 0 L208 0 C320 0 378 48 398 189 C402 221 406 249 406 275 C406 334 390 370 350 385 C412 407 427 462 438 543 C442 564 443 584 443 601 C443 690 403 741 261 741 L98 741 L-7 0 Z M107 91 L140 330 L217 330 C278 330 304 316 304 255 C304 241 302 224 300 203 C288 113 263 91 206 91 L107 91 Z M154 423 L186 647 L257 647 C320 647 340 627 340 576 C340 564 339 549 337 531 C328 457 311 423 246 423 L154 423 Z " />
<glyph glyph-name="C" unicode="C" horiz-adv-x="376" d="M196 -5 C244 -5 281 3 317 18 L286 107 C261 97 237 93 208 93 C140 93 116 125 116 204 C116 247 122 302 132 374 C163 584 181 648 273 648 C311 648 345 639 367 629 L408 725 C374 739 336 749 272 749 C104 749 62 633 26 379 C16 306 9 246 9 198 C9 70 62 -5 196 -5 L196 -5 Z " />
<glyph glyph-name="D" unicode="D" horiz-adv-x="462" d="M-7 0 L184 0 C374 0 402 116 436 357 C446 429 454 490 454 541 C454 669 406 741 236 741 L98 741 L-7 0 Z M111 91 L189 646 L231 646 C320 646 347 615 347 532 C347 490 340 435 330 362 C299 143 284 91 182 91 L111 91 Z " />
<glyph glyph-name="E" unicode="E" horiz-adv-x="395" d="M-6 0 L313 0 L325 95 L111 95 L145 330 L349 330 L363 427 L159 427 L189 644 L403 644 L417 741 L98 741 L-6 0 Z " />
<glyph glyph-name="F" unicode="F" horiz-adv-x="380" d="M-6 0 L98 0 L143 319 L346 319 L360 416 L157 416 L189 644 L402 644 L416 741 L98 741 L-6 0 Z " />
<glyph glyph-name="G" unicode="G" horiz-adv-x="438" d="M191 -5 C332 -5 370 44 407 295 L427 430 L218 430 L205 335 L313 335 L305 282 C282 118 263 85 196 85 C131 85 112 127 112 196 C112 241 120 302 130 376 C160 586 181 649 277 649 C330 649 367 638 393 626 L437 718 C406 732 360 748 277 748 C98 748 61 628 26 385 C17 311 9 246 9 192 C9 72 50 -5 191 -5 L191 -5 Z " />
<glyph glyph-name="H" unicode="H" horiz-adv-x="480" d="M-6 0 L98 0 L145 330 L324 330 L277 0 L382 0 L486 741 L381 741 L339 433 L159 433 L202 741 L98 741 L-6 0 Z " />
<glyph glyph-name="I" unicode="I" horiz-adv-x="208" d="M0 0 L105 0 L209 741 L104 741 L0 0 Z " />
<glyph glyph-name="J" unicode="J" horiz-adv-x="279" d="M-36 0 C-27 0 19 0 48 0 C132 0 190 37 205 149 L289 741 L184 741 L102 160 C96 113 79 95 27 95 C18 95 -13 95 -22 95 L-36 0 Z " />
<glyph glyph-name="K" unicode="K" horiz-adv-x="444" d="M-6 0 L97 0 L127 218 L202 343 L272 0 L379 0 L284 454 L467 741 L358 741 L156 424 L201 741 L98 741 L-6 0 Z " />
<glyph glyph-name="L" unicode="L" horiz-adv-x="366" d="M-6 0 L304 0 L317 95 L111 95 L202 741 L98 741 L-6 0 Z " />
<glyph glyph-name="M" unicode="M" horiz-adv-x="574" d="M-6 0 L85 0 L157 513 L163 396 L191 0 L272 0 L405 379 L449 511 L378 0 L477 0 L581 741 L444 741 L314 370 L266 225 L259 373 L236 741 L98 741 L-6 0 Z " />
<glyph glyph-name="N" unicode="N" horiz-adv-x="470" d="M-6 0 L91 0 L164 510 L191 376 L278 0 L372 0 L476 741 L379 741 L311 259 L286 380 L206 741 L98 741 L-6 0 Z " />
<glyph glyph-name="O" unicode="O" horiz-adv-x="479" d="M202 -5 C382 -5 420 129 452 357 C462 426 471 495 471 547 C471 667 424 749 281 749 C98 749 60 620 27 385 C17 314 9 252 9 200 C9 78 56 -5 202 -5 L202 -5 Z M209 91 C138 91 115 126 115 205 C115 248 123 304 132 377 C162 583 180 649 273 649 C341 649 364 614 364 537 C364 493 357 436 346 361 C317 156 300 91 209 91 L209 91 Z " />
<glyph glyph-name="P" unicode="P" horiz-adv-x="444" d="M-6 0 L97 0 L135 271 L231 271 C368 271 416 330 441 498 C446 530 448 559 448 584 C448 690 401 741 255 741 L98 741 L-6 0 Z M148 366 L188 646 L250 646 C321 646 345 627 345 567 C345 550 343 529 339 502 C323 391 298 366 233 366 L148 366 Z " />
<glyph glyph-name="Q" unicode="Q" horiz-adv-x="478" d="M293 -162 L305 -71 L264 -71 C223 -71 217 -59 224 -1 C385 9 421 138 452 357 C462 426 471 495 471 547 C471 667 424 749 281 749 C98 749 60 620 27 385 C17 314 9 252 9 200 C9 102 39 31 126 7 C106 -113 129 -162 247 -162 L293 -162 Z M208 89 C138 89 115 124 115 202 C115 246 123 304 132 377 C162 583 180 649 273 649 C341 649 364 614 364 537 C364 493 357 436 346 361 C317 156 300 89 208 89 L208 89 Z " />
<glyph glyph-name="R" unicode="R" horiz-adv-x="446" d="M256 0 L359 0 L308 300 C390 329 422 398 438 510 C442 541 445 567 445 591 C445 692 401 741 255 741 L98 741 L-6 0 L96 0 L136 287 L209 287 L256 0 Z M149 381 L187 646 L247 646 C317 646 341 627 341 569 C341 554 339 533 335 510 C321 407 296 381 229 381 L149 381 Z " />
<glyph glyph-name="S" unicode="S" horiz-adv-x="388" d="M138 -5 C268 -5 334 72 334 187 C334 256 303 308 240 412 C185 502 168 533 168 566 C168 618 200 648 247 648 C291 648 326 639 350 628 L393 723 C350 741 314 748 249 748 C123 748 61 671 61 564 C61 499 92 451 148 359 C213 253 230 221 230 186 C230 120 192 90 140 90 C86 90 46 106 18 122 L-35 35 C1 16 52 -5 138 -5 L138 -5 Z " />
<glyph glyph-name="T" unicode="T" horiz-adv-x="409" d="M100 0 L205 0 L295 644 L438 644 L451 741 L62 741 L48 644 L190 644 L100 0 Z " />
<glyph glyph-name="U" unicode="U" horiz-adv-x="471" d="M199 -8 C349 -8 386 69 408 222 L481 741 L379 741 L307 230 C293 127 271 89 201 89 C117 89 115 145 127 225 L199 741 L94 741 L21 222 C2 84 25 -8 199 -8 L199 -8 Z " />
<glyph glyph-name="V" unicode="V" horiz-adv-x="451" d="M118 -2 L230 -2 L492 741 L386 741 L239 303 L200 181 L193 310 L169 741 L64 741 L118 -2 Z " />
<glyph glyph-name="W" unicode="W" horiz-adv-x="663" d="M86 -2 L199 -2 L323 404 L347 484 L348 404 L362 -2 L473 -2 L693 741 L595 741 L484 358 L450 240 L449 359 L437 741 L336 741 L219 362 L181 240 L182 362 L178 741 L74 741 L86 -2 Z " />
<glyph glyph-name="X" unicode="X" horiz-adv-x="454" d="M282 0 L387 0 L284 382 L476 741 L367 741 L250 512 L189 741 L83 741 L176 395 L-39 0 L70 0 L210 268 L282 0 Z " />
<glyph glyph-name="Y" unicode="Y" horiz-adv-x="437" d="M113 0 L217 0 L254 259 L487 741 L379 741 L222 399 L162 741 L54 741 L150 259 L113 0 Z " />
<glyph glyph-name="Z" unicode="Z" horiz-adv-x="397" d="M-32 0 L325 0 L338 95 L102 95 L409 652 L421 741 L83 741 L69 644 L289 644 L-20 81 L-32 0 Z " />
<glyph glyph-name="bracketleft" unicode="&#x5b;" horiz-adv-x="328" d="M-3 -152 L201 -152 L213 -65 L111 -65 L215 671 L315 671 L327 763 L125 763 L-3 -152 Z " />
<glyph glyph-name="backslash" unicode="&#x5c;" horiz-adv-x="358" d="M205 0 L304 0 L152 741 L54 741 L205 0 Z " />
<glyph glyph-name="bracketright" unicode="&#x5d;" horiz-adv-x="328" d="M-19 -152 L185 -152 L313 763 L110 763 L98 671 L198 671 L95 -65 L-7 -65 L-19 -152 Z " />
<glyph glyph-name="asciicircum" unicode="&#x5e;" horiz-adv-x="366" d="M70 594 L160 594 L229 679 L274 594 L361 594 L288 748 L187 748 L70 594 Z " />
<glyph glyph-name="underscore" unicode="&#x5f;" horiz-adv-x="277" d="M-92 -125 L230 -125 L241 -50 L-82 -50 L-92 -125 Z " />
<glyph glyph-name="grave" unicode="&#x60;" horiz-adv-x="366" d="M186 608 L274 608 L218 762 L102 762 L186 608 Z " />
<glyph glyph-name="a" unicode="a" horiz-adv-x="395" d="M114 -4 C164 -4 200 9 224 31 C229 11 244 -1 284 -1 C292 -1 317 -1 324 0 L336 90 C304 90 306 103 310 133 L346 393 C361 497 340 565 213 565 C152 565 104 557 73 545 L103 455 C129 463 161 468 192 468 C252 468 251 424 245 379 L220 379 C75 379 17 349 -6 189 C-10 164 -11 141 -11 121 C-10 42 23 -4 114 -4 L114 -4 Z M135 81 C98 81 87 103 87 138 C87 153 89 172 92 194 C106 285 133 295 233 295 L217 180 C206 104 186 81 135 81 L135 81 Z " />
<glyph glyph-name="b" unicode="b" horiz-adv-x="409" d="M67 -3 L86 35 C102 9 132 -4 208 -4 C327 -4 351 104 374 270 C382 323 389 374 389 417 C389 502 362 565 261 565 C222 565 187 556 161 532 L194 763 L93 763 L-13 3 L67 -3 Z M179 87 C130 87 114 113 114 165 C114 195 119 231 126 281 C146 422 157 468 225 468 C269 468 284 440 284 388 C284 357 279 317 272 271 C255 143 241 87 179 87 L179 87 Z " />
<glyph glyph-name="c" unicode="c" horiz-adv-x="298" d="M147 -4 C180 -4 205 -2 234 7 L214 93 C197 88 180 86 164 86 C119 86 102 111 102 167 C102 196 107 234 113 282 C132 413 146 467 208 467 C233 467 249 462 264 456 L305 548 C283 557 255 565 206 565 C73 565 34 461 10 292 C3 243 -1 200 -1 162 C-1 66 36 -4 147 -4 L147 -4 Z " />
<glyph glyph-name="d" unicode="d" horiz-adv-x="411" d="M124 -4 C167 -4 210 5 238 33 L236 -1 L321 4 L428 763 L327 763 L293 526 C278 551 241 565 177 565 C59 565 34 457 11 293 C4 240 -4 187 -4 144 C-4 59 24 -4 124 -4 L124 -4 Z M159 86 C115 86 100 114 100 167 C100 197 106 238 112 285 C130 411 143 468 205 468 C254 468 270 442 270 389 C270 361 265 324 258 275 C237 133 227 86 159 86 L159 86 Z " />
<glyph glyph-name="e" unicode="e" horiz-adv-x="368" d="M154 -5 C210 -5 246 0 294 16 L267 99 C234 88 201 84 167 84 C113 84 96 108 96 163 C96 181 98 204 101 231 L329 231 C342 314 350 376 350 422 C350 517 311 565 208 565 C77 565 36 470 10 292 C3 244 -1 201 -1 164 C-1 64 39 -5 154 -5 L154 -5 Z M203 471 C242 471 256 456 256 411 C256 388 253 366 247 322 L113 322 C129 427 145 471 203 471 L203 471 Z " />
<glyph glyph-name="f" unicode="f" horiz-adv-x="278" d="M25 468 L93 468 L6 -152 L106 -152 L193 468 L286 468 L299 559 L205 559 L213 612 C219 660 230 672 281 672 L315 672 L327 763 C322 764 300 764 280 764 C175 764 129 730 116 634 L105 559 L38 559 L25 468 Z " />
<glyph glyph-name="g" unicode="g" horiz-adv-x="392" d="M176 204 C275 204 334 249 352 370 C355 389 356 408 356 424 C355 458 348 486 334 506 L394 506 L406 589 L252 564 C236 566 220 567 206 567 C107 567 49 513 32 391 C30 373 28 355 28 339 C27 298 38 265 59 243 C42 220 34 192 34 165 C34 143 40 121 54 109 C-21 91 -50 30 -50 -42 C-50 -119 1 -157 136 -157 C250 -157 335 -116 335 23 C335 103 292 144 168 148 C125 150 118 158 118 176 C118 186 120 198 126 208 C141 205 157 204 176 204 L176 204 Z M137 -80 C71 -80 51 -59 51 -24 C51 20 62 64 137 64 C206 64 233 44 233 10 C233 -60 194 -80 137 -80 L137 -80 Z M179 289 C141 289 127 304 126 338 C126 351 128 367 131 386 C140 450 158 478 203 478 C243 478 258 461 258 427 C258 413 256 397 253 380 C243 316 226 289 179 289 L179 289 Z " />
<glyph glyph-name="h" unicode="h" horiz-adv-x="410" d="M-13 0 L87 0 L137 352 C150 446 171 468 221 468 C284 468 280 423 271 359 L221 0 L322 0 L377 392 C388 479 390 565 261 565 C220 565 183 557 161 535 L194 763 L94 763 L-13 0 Z " />
<glyph glyph-name="i" unicode="i" horiz-adv-x="185" d="M-10 0 L91 0 L170 559 L69 559 L-10 0 Z M77 621 L178 621 L195 739 L93 739 L77 621 Z " />
<glyph glyph-name="j" unicode="j" horiz-adv-x="185" d="M-66 -152 C36 -152 73 -134 88 -28 L170 559 L69 559 L-12 -16 C-17 -55 -21 -63 -54 -63 L-66 -152 Z M77 621 L178 621 L195 739 L93 739 L77 621 Z " />
<glyph glyph-name="k" unicode="k" horiz-adv-x="375" d="M-14 0 L84 0 L105 152 L153 227 L215 0 L317 0 L230 323 L385 559 L281 559 L130 329 L191 763 L93 763 L-14 0 Z " />
<glyph glyph-name="l" unicode="l" horiz-adv-x="214" d="M118 -1 C122 -1 135 -1 138 0 L151 90 L145 90 C106 90 104 98 111 139 L198 763 L97 763 L8 131 C-5 31 16 -1 118 -1 L118 -1 Z " />
<glyph glyph-name="m" unicode="m" horiz-adv-x="629" d="M-13 0 L87 0 L137 352 C150 446 169 468 218 468 C280 468 272 421 263 359 L213 0 L314 0 L364 352 C377 446 396 468 445 468 C507 468 498 417 491 359 L440 0 L541 0 L596 392 C609 480 606 565 482 565 C422 565 383 553 360 523 C343 556 308 565 258 565 C213 565 167 554 148 531 L149 558 L64 553 L-13 0 Z " />
<glyph glyph-name="n" unicode="n" horiz-adv-x="410" d="M-13 0 L87 0 L137 352 C150 446 171 468 221 468 C284 468 280 423 271 359 L221 0 L322 0 L377 392 C388 479 390 565 261 565 C211 565 171 556 148 531 L149 558 L64 553 L-13 0 Z " />
<glyph glyph-name="o" unicode="o" horiz-adv-x="399" d="M158 -5 C304 -5 340 100 363 268 C370 316 375 360 375 398 C375 492 339 565 215 565 C70 565 34 460 10 292 C3 245 -1 202 -1 164 C-1 68 34 -5 158 -5 L158 -5 Z M164 86 C115 86 99 112 99 166 C99 195 104 233 111 282 C130 417 142 468 209 468 C258 468 272 442 272 388 C272 359 269 320 261 272 C242 137 231 86 164 86 L164 86 Z " />
<glyph glyph-name="p" unicode="p" horiz-adv-x="411" d="M-35 -152 L66 -152 L92 35 C108 9 144 -4 208 -4 C327 -4 351 104 374 270 C382 323 389 374 389 417 C389 502 362 565 261 565 C219 565 176 556 148 528 L149 558 L64 553 L-35 -152 Z M179 87 C130 87 114 113 114 165 C114 195 119 231 126 281 C146 422 157 468 225 468 C269 468 284 440 284 388 C284 357 279 317 272 271 C255 143 241 87 179 87 L179 87 Z " />
<glyph glyph-name="q" unicode="q" horiz-adv-x="411" d="M199 -152 L300 -152 L398 555 L319 560 L299 525 C284 551 254 565 177 565 C59 565 34 457 11 293 C4 240 -4 187 -4 144 C-4 59 24 -4 124 -4 C163 -4 198 4 224 27 L199 -152 Z M159 86 C115 86 100 114 100 167 C100 197 106 238 112 285 C130 411 143 468 205 468 C254 468 270 442 270 389 C270 361 265 324 258 275 C237 133 227 86 159 86 L159 86 Z " />
<glyph glyph-name="r" unicode="r" horiz-adv-x="248" d="M-14 0 L88 0 L136 337 C147 424 179 456 251 460 L265 559 C206 556 169 542 147 519 L149 558 L64 553 L-14 0 Z " />
<glyph glyph-name="s" unicode="s" horiz-adv-x="329" d="M115 -5 C217 -5 273 45 273 142 C273 192 251 232 192 316 C150 375 139 399 139 420 C139 453 159 470 193 470 C221 470 255 463 277 454 L312 547 C277 561 235 566 199 566 C92 566 42 508 42 419 C42 373 62 327 111 259 C163 186 175 164 175 139 C175 98 151 84 120 84 C72 84 32 98 8 109 L-30 22 C14 4 55 -5 115 -5 L115 -5 Z " />
<glyph glyph-name="t" unicode="t" horiz-adv-x="294" d="M25 468 L89 468 L44 148 C29 42 50 -1 166 -1 C179 -1 204 -1 217 0 L229 93 L189 93 C142 93 139 110 144 150 L189 468 L282 468 L295 559 L202 559 L222 700 L137 679 L105 559 L38 559 L25 468 Z " />
<glyph glyph-name="u" unicode="u" horiz-adv-x="404" d="M166 -5 C278 -5 324 58 340 169 L394 559 L295 559 L243 185 C233 116 217 86 165 86 C107 86 102 125 110 184 L163 559 L63 559 L9 182 C-7 69 25 -5 166 -5 L166 -5 Z " />
<glyph glyph-name="v" unicode="v" horiz-adv-x="365" d="M74 -1 L186 -1 L388 559 L287 559 L188 265 L154 156 L149 266 L134 559 L30 559 L74 -1 Z " />
<glyph glyph-name="w" unicode="w" horiz-adv-x="549" d="M48 -1 L156 -1 L251 278 L270 344 L274 278 L291 -1 L396 -1 L566 559 L469 559 L391 287 L364 182 L361 289 L348 559 L260 559 L172 291 L139 181 L141 291 L139 559 L35 559 L48 -1 Z " />
<glyph glyph-name="x" unicode="x" horiz-adv-x="359" d="M199 0 L300 0 L221 281 L376 559 L275 559 L189 397 L144 559 L42 559 L114 301 L-49 0 L53 0 L147 184 L199 0 Z " />
<glyph glyph-name="y" unicode="y" horiz-adv-x="359" d="M9 -153 C87 -153 121 -134 151 -56 L381 559 L281 559 L193 300 L154 178 L148 303 L131 559 L29 559 L80 3 L65 -38 C58 -57 49 -62 13 -63 L-19 -63 L-32 -152 C-25 -153 -2 -153 9 -153 L9 -153 Z " />
<glyph glyph-name="z" unicode="z" horiz-adv-x="314" d="M-41 0 L250 0 L262 84 L89 84 L313 489 L323 559 L48 559 L36 468 L190 468 L-32 69 L-41 0 Z " />
<glyph glyph-name="braceleft" unicode="&#x7b;" horiz-adv-x="352" d="M144 -152 L224 -152 L236 -65 L194 -65 C152 -65 136 -51 142 -6 C149 43 197 169 206 233 C211 266 203 293 173 306 C208 318 222 345 227 380 C236 445 223 566 229 614 C236 659 256 671 298 671 L340 671 L352 763 L269 763 C186 763 142 731 129 643 C121 584 135 447 128 397 C122 355 102 350 41 350 L29 261 C92 261 108 256 102 212 C95 161 44 29 36 -28 C24 -113 60 -152 144 -152 L144 -152 Z " />
<glyph glyph-name="bar" unicode="&#x7c;" horiz-adv-x="242" d="M68 -152 L170 -152 L170 763 L68 763 L68 -152 Z " />
<glyph glyph-name="braceright" unicode="&#x7d;" horiz-adv-x="352" d="M-18 -152 L64 -152 C146 -152 191 -122 204 -36 C212 21 198 161 205 212 C211 256 228 261 291 261 L303 350 C242 350 225 355 231 397 C238 447 289 576 298 634 C310 722 276 763 190 763 L110 763 L97 671 L138 671 C181 671 197 659 191 614 C184 566 137 445 128 380 C123 345 129 318 161 306 C128 293 111 266 106 233 C98 169 111 43 104 -6 C97 -51 77 -65 35 -65 L-6 -65 L-18 -152 Z " />
<glyph glyph-name="asciitilde" unicode="&#x7e;" horiz-adv-x="366" d="M150 382 C157 410 164 417 182 417 C201 417 234 386 271 386 C333 386 357 422 373 491 L296 504 C289 476 282 470 264 470 C244 470 211 501 175 501 C111 501 88 464 72 395 L150 382 Z " />
<glyph glyph-name="exclamdown" unicode="&#xa1;" horiz-adv-x="255" d="M20 0 L130 0 L195 527 L103 527 L20 0 Z M103 607 L219 607 L238 741 L122 741 L103 607 Z " />
<glyph glyph-name="cent" unicode="&#xa2;" horiz-adv-x="341" d="M81 -96 L166 -96 L179 -2 C203 -1 223 2 247 9 L227 93 C210 88 193 86 177 86 C132 86 115 111 115 167 C115 196 120 234 126 282 C145 413 159 467 221 467 C246 467 262 462 277 456 L317 547 C301 553 284 558 259 560 L270 643 L185 643 L173 557 C76 535 44 439 23 292 C16 243 12 200 12 162 C12 87 34 30 96 8 L81 -96 Z " />
<glyph glyph-name="sterling" unicode="&#xa3;" horiz-adv-x="409" d="M226 -3 C300 -3 341 32 355 146 L361 195 L272 195 L266 153 C258 100 247 83 212 83 C194 83 178 87 164 94 C170 116 173 141 174 172 L178 338 L280 338 L291 417 L181 417 L185 560 C187 615 203 653 257 653 C297 653 334 645 359 633 L402 721 C367 736 325 749 256 749 C146 749 91 681 88 566 L84 417 L27 417 L15 338 L82 338 L78 179 C76 115 72 91 -19 91 L-31 1 C34 0 80 7 112 24 C140 7 175 -3 226 -3 L226 -3 Z " />
<glyph glyph-name="currency" unicode="&#xa4;" horiz-adv-x="414" d="M22 397 L90 397 C89 392 88 388 88 384 C86 373 85 362 83 352 L16 352 L4 265 L73 265 C69 230 67 199 67 174 C67 58 115 -5 233 -5 C272 -5 311 2 341 14 L312 99 C290 91 264 87 239 87 C187 87 169 115 169 180 C169 203 170 231 174 265 L304 265 L317 352 L186 352 C187 360 188 368 190 377 C191 384 192 390 193 397 L323 397 L335 483 L206 483 C227 614 245 652 304 652 C337 652 369 645 389 636 L430 726 C397 738 359 749 307 749 C179 749 136 665 103 483 L34 483 L22 397 Z " />
<glyph glyph-name="yen" unicode="&#xa5;" horiz-adv-x="415" d="M23 205 L134 205 L128 159 L17 159 L4 73 L116 73 L106 0 L203 0 L213 73 L327 73 L338 159 L226 159 L232 205 L344 205 L357 291 L246 291 L456 741 L353 741 L213 403 L166 741 L64 741 L146 291 L34 291 L23 205 Z " />
<glyph glyph-name="brokenbar" unicode="&#xa6;" horiz-adv-x="242" d="M68 -152 L170 -152 L170 228 L68 228 L68 -152 Z M68 383 L170 383 L170 763 L68 763 L68 383 Z " />
<glyph glyph-name="section" unicode="&#xa7;" horiz-adv-x="382" d="M51 0 C146 0 188 43 203 140 L209 187 C304 196 331 249 348 364 C352 395 355 422 355 445 C355 509 333 549 261 562 L267 604 C273 645 284 663 335 664 L364 664 L375 750 C370 751 354 751 329 751 C229 751 186 708 173 611 L165 565 C76 555 52 506 35 387 C31 356 28 330 28 306 C28 244 48 206 114 192 L108 148 C103 107 92 88 41 87 L12 87 L-1 1 C5 1 22 0 51 0 L51 0 Z M179 256 C136 256 118 270 118 317 C118 333 120 353 123 379 C137 476 155 494 204 494 C247 494 266 479 266 431 C266 416 264 397 260 371 C247 273 230 256 179 256 L179 256 Z " />
<glyph glyph-name="dieresis" unicode="&#xa8;" horiz-adv-x="366" d="M99 608 L187 608 L203 717 L114 717 L99 608 Z M247 608 L334 608 L350 717 L262 717 L247 608 Z " />
<glyph glyph-name="copyright" unicode="&#xa9;" horiz-adv-x="502" d="M263 125 C301 125 327 132 350 142 L325 204 C306 196 290 191 266 191 C202 191 197 235 197 368 C197 502 202 547 266 547 C286 547 305 543 322 537 L348 601 C322 609 299 615 263 615 C219 615 187 603 167 581 C130 542 125 475 125 370 C125 262 131 195 169 158 C189 137 219 125 263 125 L263 125 Z M251 -8 C454 -8 478 116 478 371 C478 624 454 750 251 750 C50 750 26 624 26 371 C26 116 50 -8 251 -8 L251 -8 Z M251 34 C87 34 70 146 70 371 C70 596 86 707 251 707 C417 707 434 596 434 371 C434 146 417 34 251 34 L251 34 Z " />
<glyph glyph-name="ordfeminine" unicode="&#xaa;" horiz-adv-x="364" d="M135 286 C183 286 210 300 229 327 C232 300 250 288 286 288 C292 288 309 288 314 289 L324 362 C299 362 299 370 302 398 L332 608 C345 700 332 749 225 749 C175 749 138 742 112 734 L130 660 C152 665 184 669 212 669 C256 669 256 646 250 597 L232 597 C122 597 66 574 48 444 C46 424 43 408 43 389 C43 322 70 286 135 286 L135 286 Z M25 153 L280 153 L291 228 L36 228 L25 153 Z M161 356 C134 356 124 370 124 401 C124 412 126 429 128 446 C140 521 160 530 235 530 L241 530 L231 458 C222 396 214 356 161 356 L161 356 Z " />
<glyph glyph-name="guillemotleft" unicode="&#xab;" horiz-adv-x="471" d="M90 0 L179 0 L131 279 L258 559 L169 559 L35 279 L90 0 Z M267 0 L356 0 L309 279 L435 559 L346 559 L213 279 L267 0 Z " />
<glyph glyph-name="logicalnot" unicode="&#xac;" horiz-adv-x="832" d="M126 120 C126 120 129 123 134 127 C79 193 46 278 46 371 C46 464 79 549 133 615 C129 619 126 621 126 621 C70 554 36 466 36 371 C36 275 70 187 126 120 L126 120 Z M228 211 C230 213 233 215 235 218 C201 259 181 313 181 371 C181 429 202 483 235 524 C232 526 230 529 227 531 C192 487 171 432 171 371 C171 310 193 254 228 211 L228 211 Z M264 243 C267 245 269 248 272 250 C245 283 229 325 229 371 C229 417 245 459 272 492 C269 494 267 497 264 499 C236 464 219 419 219 371 C219 322 236 278 264 243 L264 243 Z M316 289 C319 291 321 294 324 296 C308 317 298 343 298 371 C298 399 308 425 323 445 C321 448 318 450 316 452 C298 430 288 402 288 371 C288 340 298 312 316 289 L316 289 Z M349 320 C352 323 354 325 357 327 C348 340 343 355 343 371 C343 387 348 402 357 415 C354 417 352 420 349 422 C339 408 333 390 333 371 C333 352 339 334 349 320 L349 320 Z M378 346 C382 349 384 351 384 351 C381 357 379 364 379 371 C379 378 381 385 384 391 C384 391 382 393 378 396 C374 389 371 380 371 371 C371 362 374 353 378 346 L378 346 Z M416 60 C493 60 563 89 616 136 C614 139 611 141 609 144 C558 98 490 70 416 70 C342 70 274 98 222 144 C222 145 215 137 215 137 C268 89 338 60 416 60 L416 60 Z M416 324 C426 324 435 327 442 333 C439 337 437 339 437 339 C431 334 424 332 416 332 C408 332 401 335 395 339 C395 339 391 334 389 333 C397 327 406 324 416 324 L416 324 Z M482 319 C493 334 499 352 499 371 C499 390 493 408 482 422 C483 422 475 415 475 415 C484 403 489 388 489 371 C489 355 484 339 475 326 C478 324 480 322 482 319 L482 319 Z M292 269 C295 271 298 274 300 276 C280 302 267 335 267 371 C267 407 280 440 300 466 L293 473 C270 445 257 410 257 371 C257 333 270 297 292 269 L292 269 Z M416 -17 C512 -17 600 19 667 80 C667 80 660 88 660 87 C595 29 510 -7 416 -7 C322 -7 236 29 171 88 L164 80 C231 20 320 -17 416 -17 L416 -17 Z M416 121 C478 121 534 144 576 182 C574 185 571 187 569 190 C529 153 475 131 416 131 C357 131 303 153 262 190 L255 182 C298 144 354 121 416 121 L416 121 Z M416 170 C465 170 510 188 544 218 C542 221 539 223 537 226 C505 197 462 180 416 180 C369 180 327 197 294 226 L287 219 C322 189 367 170 416 170 L416 170 Z M416 209 C455 209 491 224 518 247 C516 250 514 253 512 255 C486 233 452 219 416 219 C380 219 346 233 320 255 L313 247 C341 224 377 209 416 209 L416 209 Z M416 265 C441 265 463 274 481 289 C479 292 476 294 474 297 C458 283 438 275 416 275 C394 275 373 283 357 297 L350 289 C368 274 391 265 416 265 L416 265 Z M358 445 C374 459 394 467 416 467 C438 467 458 459 474 445 L482 453 C464 468 441 477 416 477 C391 477 368 468 350 453 C351 452 354 448 358 445 L358 445 Z M570 552 C572 554 575 557 577 560 C534 598 478 621 416 621 C355 621 299 598 256 560 L263 553 C304 589 357 611 416 611 C475 611 529 589 570 552 L570 552 Z M454 346 C458 353 461 362 461 371 C461 380 458 389 454 396 L448 391 C451 385 453 378 453 371 C453 364 451 357 448 351 C448 351 450 349 454 346 L454 346 Z M468 333 C476 344 480 357 480 371 C480 385 476 398 468 409 L460 402 C466 393 470 382 470 371 C470 360 466 349 460 340 C463 338 465 336 468 333 L468 333 Z M498 306 C511 325 519 347 519 371 C519 395 511 418 497 436 L490 429 C502 413 509 393 509 371 C509 349 502 329 490 313 C492 311 495 308 498 306 L498 306 Z M540 269 C562 297 575 332 575 371 C575 410 562 445 539 473 L531 466 C552 440 565 407 565 371 C565 335 552 302 532 276 C535 274 537 271 540 269 L540 269 Z M568 243 C596 278 613 322 613 371 C613 420 596 464 568 499 L560 492 C587 459 603 417 603 371 C603 325 587 283 560 250 C563 248 566 245 568 243 L568 243 Z M604 211 C640 254 661 310 661 371 C661 432 640 488 604 531 L596 524 C631 483 651 429 651 371 C651 313 631 260 596 218 C601 213 604 211 604 211 L604 211 Z M649 171 C694 225 721 295 721 371 C721 447 694 517 649 571 L641 564 C685 512 711 445 711 371 C711 297 685 230 642 177 C644 175 647 173 649 171 L649 171 Z M706 120 C762 188 796 276 796 371 C796 467 762 555 706 622 L698 615 C753 549 786 464 786 371 C786 278 753 193 698 127 C703 123 706 120 706 120 L706 120 Z M183 170 L190 177 C147 229 121 297 121 371 C121 444 147 512 190 564 C187 567 184 569 182 571 C138 517 111 447 111 371 C111 294 138 225 183 170 L183 170 Z M334 306 L342 314 C330 330 323 350 323 371 C323 393 330 413 342 429 C340 431 337 434 334 436 C321 418 313 395 313 371 C313 346 321 324 334 306 L334 306 Z M364 333 L371 340 C366 349 362 360 362 371 C362 382 366 393 371 402 C369 404 366 406 364 409 C356 398 352 385 352 371 C352 357 356 344 364 333 L364 333 Z M395 403 C401 408 408 410 416 410 C424 410 431 407 437 403 C437 403 439 406 442 409 C435 415 426 418 416 418 C406 418 397 415 390 409 L395 403 Z M384 416 C393 423 404 428 416 428 C428 428 439 424 448 416 C450 419 452 421 454 423 C443 432 430 437 416 437 C401 437 388 432 377 423 L384 416 Z M371 430 C383 441 399 447 416 447 C433 447 449 441 461 430 C461 430 464 434 468 438 C454 450 436 457 416 457 C397 457 378 450 364 438 L371 430 Z M295 516 C327 545 370 562 416 562 C462 562 505 545 538 516 C538 516 545 523 544 523 C510 554 465 572 416 572 C367 572 322 554 288 524 L295 516 Z M416 240 C448 240 476 252 498 271 L491 278 C471 261 445 250 416 250 C388 250 361 261 340 278 L333 270 C355 251 384 240 416 240 L416 240 Z M416 285 C436 285 454 292 468 304 L461 312 C448 301 433 295 416 295 C399 295 383 302 370 312 L363 304 C378 292 396 285 416 285 L416 285 Z M416 305 C430 305 444 310 455 319 L448 326 C439 319 428 314 416 314 C404 314 393 319 383 326 L376 319 C388 310 401 305 416 305 L416 305 Z M341 464 C362 482 388 492 416 492 C445 492 471 481 491 464 L498 472 C476 491 447 502 416 502 C385 502 356 490 334 471 L341 464 Z M320 487 C346 509 380 523 416 523 C453 523 486 510 512 487 L518 494 C491 518 455 533 416 533 C377 533 341 519 313 495 L320 487 Z M610 597 L617 605 C563 653 493 682 416 682 C339 682 269 653 215 605 L222 598 C274 644 342 672 416 672 C491 672 559 644 610 597 L610 597 Z M172 654 C237 713 322 749 416 749 C510 749 596 713 661 654 L668 662 C601 722 512 759 416 759 C320 759 232 723 165 662 L172 654 Z M516 290 C534 312 544 340 544 371 C544 402 534 430 516 453 L508 446 C524 425 534 399 534 371 C534 343 524 317 509 297 L516 290 Z " />
<glyph glyph-name="registered" unicode="&#xae;" horiz-adv-x="502" d="M251 -8 C454 -8 478 116 478 371 C478 624 454 750 251 750 C50 750 26 624 26 371 C26 116 50 -8 251 -8 L251 -8 Z M251 34 C87 34 70 146 70 371 C70 596 86 707 251 707 C417 707 434 596 434 371 C434 146 417 34 251 34 L251 34 Z M303 141 L371 141 L312 333 C360 353 374 398 374 464 C374 563 348 600 248 600 L141 600 L141 141 L207 141 L207 321 L248 321 L303 141 Z M207 381 L207 541 L245 541 C296 541 308 527 308 461 C308 396 296 381 245 381 L207 381 Z " />
<glyph glyph-name="&amp;#xaf;" unicode="&#xaf;" horiz-adv-x="366" d="M88 608 L345 608 L357 697 L101 697 L88 608 Z " />
<glyph glyph-name="&amp;#x2c9;" unicode="&#x2c9;" horiz-adv-x="366" d="M88 608 L345 608 L357 697 L101 697 L88 608 Z " />
<glyph glyph-name="degree" unicode="&#xb0;" horiz-adv-x="352" d="M171 277 C300 277 319 360 339 502 C345 545 350 583 350 616 C350 696 323 749 222 749 C93 749 72 666 52 524 C46 482 43 445 43 411 C43 330 69 277 171 277 L171 277 Z M174 351 C138 351 127 370 127 413 C127 439 131 472 136 513 C153 624 159 666 216 666 C252 666 264 647 264 604 C264 579 260 546 254 504 C238 392 231 351 174 351 L174 351 Z " />
<glyph glyph-name="plusminus" unicode="&#xb1;" horiz-adv-x="677" d="M219 -152 L319 -152 L406 468 L475 468 L487 559 L419 559 L427 616 C434 663 444 674 484 674 L503 674 L516 763 C511 764 493 764 489 764 C383 764 342 727 329 631 L319 559 L206 559 L214 616 C220 663 231 674 270 674 L294 674 L306 763 C302 764 285 764 275 764 C170 764 128 727 115 631 L105 559 L38 559 L25 468 L92 468 L6 -152 L106 -152 L193 468 L306 468 L219 -152 Z M581 -1 C584 -1 598 -1 601 0 L614 90 L607 90 C569 90 567 98 573 139 L661 763 L560 763 L471 131 C457 31 479 -1 581 -1 L581 -1 Z " />
<glyph glyph-name="twosuperior" unicode="&#xb2;" horiz-adv-x="314" d="M30 273 L248 273 L258 345 L131 345 L260 538 C292 586 304 618 304 662 C304 712 272 746 191 746 C152 746 118 741 90 732 L112 661 C133 668 152 671 172 671 C207 671 218 660 218 641 C218 618 215 605 189 567 L41 345 L30 273 Z " />
<glyph glyph-name="threesuperior" unicode="&#xb3;" horiz-adv-x="305" d="M142 270 C218 270 249 308 263 401 C267 427 270 451 270 470 C270 501 261 522 239 533 C271 547 281 570 289 626 C291 638 292 651 292 663 C292 717 266 746 180 746 C139 746 104 740 86 734 L108 664 C126 670 149 672 166 672 C199 672 207 663 207 642 C207 634 206 626 205 616 C198 570 189 560 140 560 L108 560 L99 491 L115 491 C171 491 185 482 185 451 C185 440 184 428 182 412 C173 358 165 342 127 342 C99 342 74 354 62 360 L23 292 C42 283 75 270 142 270 L142 270 Z " />
<glyph glyph-name="acute" unicode="&#xb4;" horiz-adv-x="366" d="M153 608 L242 608 L369 762 L253 762 L153 608 Z " />
<glyph glyph-name="&amp;#xb5;" unicode="&#xb5;" horiz-adv-x="406" d="M-35 -152 L66 -152 L90 28 C104 8 131 -3 168 -3 C280 -3 327 58 342 169 L397 559 L298 559 L245 185 C236 116 221 86 167 86 C107 86 105 125 113 184 L166 559 L65 559 L-35 -152 Z " />
<glyph glyph-name="&amp;#x3bc;" unicode="&#x3bc;" horiz-adv-x="406" d="M-35 -152 L66 -152 L90 28 C104 8 131 -3 168 -3 C280 -3 327 58 342 169 L397 559 L298 559 L245 185 C236 116 221 86 167 86 C107 86 105 125 113 184 L166 559 L65 559 L-35 -152 Z " />
<glyph glyph-name="paragraph" unicode="&#xb6;" horiz-adv-x="416" d="M80 0 L175 0 L213 278 L255 278 L216 0 L312 0 L416 741 L266 741 C123 741 73 689 50 520 C46 490 43 463 43 438 C43 364 65 318 120 295 L80 0 Z M238 366 C167 366 141 388 141 451 C141 467 143 488 146 511 C161 623 187 648 258 648 L307 648 L268 366 L238 366 Z " />
<glyph glyph-name="&amp;#xb7;" unicode="&#xb7;" horiz-adv-x="191" d="M25 278 L140 278 L159 416 L44 416 L25 278 Z " />
<glyph glyph-name="&amp;#x2219;" unicode="&#x2219;" horiz-adv-x="191" d="M25 278 L140 278 L159 416 L44 416 L25 278 Z " />
<glyph glyph-name="cedilla" unicode="&#xb8;" horiz-adv-x="366" d="M113 -217 C177 -217 219 -197 219 -106 C219 -58 190 -46 152 -47 L172 18 L114 18 L87 -66 L105 -82 C132 -80 154 -83 154 -109 C154 -147 141 -157 110 -157 C88 -157 70 -150 53 -141 L22 -194 C43 -206 74 -217 113 -217 L113 -217 Z " />
<glyph glyph-name="onesuperior" unicode="&#xb9;" horiz-adv-x="251" d="M79 273 L167 273 L233 741 L93 741 L82 665 L134 665 L79 273 Z " />
<glyph glyph-name="ordmasculine" unicode="&#xba;" horiz-adv-x="366" d="M179 284 C300 284 328 374 347 509 C353 548 357 584 357 614 C357 694 327 749 229 749 C109 749 78 661 60 525 C55 488 51 452 51 419 C51 342 80 284 179 284 L179 284 Z M183 360 C146 360 134 381 134 422 C134 445 138 477 144 517 C158 626 168 669 223 669 C261 669 273 648 273 607 C273 583 269 551 263 511 C247 402 238 360 183 360 L183 360 Z M24 153 L280 153 L291 228 L35 228 L24 153 Z " />
<glyph glyph-name="guillemotright" unicode="&#xbb;" horiz-adv-x="471" d="M10 0 L101 0 L233 279 L179 559 L89 559 L138 279 L10 0 Z M188 0 L278 0 L410 279 L356 559 L267 559 L315 279 L188 0 Z " />
<glyph glyph-name="onequarter" unicode="&#xbc;" horiz-adv-x="617" d="M73 0 L158 0 L510 741 L424 741 L73 0 Z M288 88 L428 88 L416 0 L496 0 L508 88 L551 88 L562 161 L519 161 L534 269 L475 269 L440 161 L384 161 L545 468 L462 468 L298 157 L288 88 Z M67 273 L154 273 L220 741 L81 741 L69 665 L122 665 L67 273 Z " />
<glyph glyph-name="onehalf" unicode="&#xbd;" horiz-adv-x="659" d="M73 0 L158 0 L510 741 L424 741 L73 0 Z M67 273 L154 273 L220 741 L81 741 L69 665 L122 665 L67 273 Z M346 0 L564 0 L574 72 L447 72 L575 264 C608 313 620 345 620 389 C620 439 588 473 507 473 C467 473 433 468 405 458 L428 388 C449 395 467 398 488 398 C522 398 533 387 533 367 C533 344 528 328 505 293 L357 72 L346 0 Z " />
<glyph glyph-name="threequarters" unicode="&#xbe;" horiz-adv-x="672" d="M128 0 L214 0 L565 741 L479 741 L128 0 Z M140 270 C216 270 247 308 261 401 C265 427 268 451 268 470 C268 501 259 522 237 533 C269 547 279 570 287 626 C289 638 290 651 290 663 C290 717 264 746 178 746 C137 746 102 740 84 734 L106 664 C124 670 147 672 164 672 C197 672 205 663 205 642 C205 634 204 626 203 616 C196 570 187 560 138 560 L106 560 L97 491 L113 491 C169 491 183 482 183 451 C183 440 182 428 180 412 C171 358 163 342 125 342 C97 342 72 354 60 360 L21 292 C40 283 73 270 140 270 L140 270 Z M344 88 L484 88 L471 0 L551 0 L564 88 L607 88 L617 161 L574 161 L590 269 L530 269 L496 161 L439 161 L601 468 L517 468 L354 157 L344 88 Z " />
<glyph glyph-name="questiondown" unicode="&#xbf;" horiz-adv-x="411" d="M173 -8 C229 -8 278 -3 323 14 L290 102 C260 93 229 87 191 87 C137 87 120 116 120 147 C120 179 126 202 150 233 L222 326 C272 391 275 425 292 531 L193 531 C179 433 174 412 137 362 L70 272 C34 224 16 184 16 126 C16 58 53 -8 173 -8 L173 -8 Z M197 618 L312 618 L330 741 L214 741 L197 618 Z " />
<glyph glyph-name="Agrave" unicode="&#xc0;" horiz-adv-x="453" d="M-41 0 L63 0 L110 140 L275 140 L284 0 L391 0 L334 743 L222 743 L-41 0 Z M142 235 L213 449 L249 562 L256 448 L267 235 L142 235 Z M252 775 L340 775 L284 929 L168 929 L252 775 Z " />
<glyph glyph-name="Aacute" unicode="&#xc1;" horiz-adv-x="453" d="M-41 0 L63 0 L110 140 L275 140 L284 0 L391 0 L334 743 L222 743 L-41 0 Z M142 235 L213 449 L249 562 L256 448 L267 235 L142 235 Z M219 775 L308 775 L435 929 L319 929 L219 775 Z " />
<glyph glyph-name="Acircumflex" unicode="&#xc2;" horiz-adv-x="453" d="M-41 0 L63 0 L110 140 L275 140 L284 0 L391 0 L334 743 L222 743 L-41 0 Z M142 235 L213 449 L249 562 L256 448 L267 235 L142 235 Z M136 775 L226 775 L295 860 L340 775 L427 775 L354 929 L253 929 L136 775 Z " />
<glyph glyph-name="Atilde" unicode="&#xc3;" horiz-adv-x="453" d="M-41 0 L63 0 L110 140 L275 140 L284 0 L391 0 L334 743 L222 743 L-41 0 Z M142 235 L213 449 L249 562 L256 448 L267 235 L142 235 Z M216 771 C223 799 230 806 248 806 C267 806 300 775 337 775 C399 775 423 811 439 880 L362 893 C355 865 348 859 330 859 C310 859 277 890 241 890 C177 890 154 853 138 784 L216 771 Z " />
<glyph glyph-name="Adieresis" unicode="&#xc4;" horiz-adv-x="453" d="M-41 0 L63 0 L110 140 L275 140 L284 0 L391 0 L334 743 L222 743 L-41 0 Z M142 235 L213 449 L249 562 L256 448 L267 235 L142 235 Z M165 775 L253 775 L269 884 L180 884 L165 775 Z M313 775 L400 775 L416 884 L328 884 L313 775 Z " />
<glyph glyph-name="Aring" unicode="&#xc5;" horiz-adv-x="453" d="M-41 0 L63 0 L110 140 L275 140 L284 0 L391 0 L336 712 C358 730 367 760 372 797 C374 809 375 821 375 833 C375 882 357 917 290 917 C221 917 200 875 192 810 C191 798 190 788 190 776 C189 749 194 726 211 711 L-41 0 Z M142 235 L213 449 L249 562 L256 448 L267 235 L142 235 Z M276 744 C251 744 242 758 242 781 C242 789 243 797 244 805 C249 843 256 866 288 866 C313 866 321 851 321 828 C321 820 320 811 319 801 C314 765 308 744 276 744 L276 744 Z " />
<glyph glyph-name="AE" unicode="&#xc6;" horiz-adv-x="634" d="M-55 0 L51 0 L127 170 L273 170 L249 0 L562 0 L575 95 L361 95 L394 330 L595 330 L609 426 L407 426 L438 644 L652 644 L665 741 L283 741 L-55 0 Z M166 259 L339 642 L285 259 L166 259 Z " />
<glyph glyph-name="Ccedilla" unicode="&#xc7;" horiz-adv-x="376" d="M118 -217 C182 -217 224 -197 224 -106 C224 -58 195 -46 157 -47 L170 -4 C178 -4 187 -5 196 -5 C244 -5 281 3 317 18 L286 107 C261 97 237 93 208 93 C140 93 116 125 116 204 C116 247 122 302 132 374 C163 584 181 648 273 648 C311 648 345 639 367 629 L408 725 C374 739 336 749 272 749 C104 749 62 633 26 379 C16 306 9 246 9 198 C9 100 40 33 115 7 L92 -66 L110 -82 C137 -80 159 -83 159 -109 C159 -147 146 -157 115 -157 C93 -157 75 -150 58 -141 L27 -194 C48 -206 79 -217 118 -217 L118 -217 Z " />
<glyph glyph-name="Egrave" unicode="&#xc8;" horiz-adv-x="395" d="M-6 0 L313 0 L325 95 L111 95 L145 330 L349 330 L363 427 L159 427 L189 644 L403 644 L417 741 L98 741 L-6 0 Z M224 775 L312 775 L256 929 L140 929 L224 775 Z " />
<glyph glyph-name="Eacute" unicode="&#xc9;" horiz-adv-x="395" d="M191 775 L280 775 L407 929 L291 929 L191 775 Z M-6 0 L313 0 L325 95 L111 95 L145 330 L349 330 L363 427 L159 427 L189 644 L403 644 L417 741 L98 741 L-6 0 Z " />
<glyph glyph-name="Ecircumflex" unicode="&#xca;" horiz-adv-x="395" d="M108 775 L198 775 L267 860 L312 775 L399 775 L326 929 L225 929 L108 775 Z M-6 0 L313 0 L325 95 L111 95 L145 330 L349 330 L363 427 L159 427 L189 644 L403 644 L417 741 L98 741 L-6 0 Z " />
<glyph glyph-name="Edieresis" unicode="&#xcb;" horiz-adv-x="395" d="M137 775 L225 775 L241 884 L152 884 L137 775 Z M285 775 L372 775 L388 884 L300 884 L285 775 Z M-6 0 L313 0 L325 95 L111 95 L145 330 L349 330 L363 427 L159 427 L189 644 L403 644 L417 741 L98 741 L-6 0 Z " />
<glyph glyph-name="Igrave" unicode="&#xcc;" horiz-adv-x="208" d="M116 776 L205 776 L165 930 L49 930 L116 776 Z M0 0 L105 0 L209 741 L104 741 L0 0 Z " />
<glyph glyph-name="Iacute" unicode="&#xcd;" horiz-adv-x="208" d="M114 776 L202 776 L316 930 L200 930 L114 776 Z M0 0 L105 0 L209 741 L104 741 L0 0 Z " />
<glyph glyph-name="Icircumflex" unicode="&#xce;" horiz-adv-x="208" d="M0 0 L105 0 L209 741 L104 741 L0 0 Z M15 775 L105 775 L174 860 L219 775 L306 775 L233 929 L132 929 L15 775 Z " />
<glyph glyph-name="Idieresis" unicode="&#xcf;" horiz-adv-x="208" d="M0 0 L105 0 L209 741 L104 741 L0 0 Z M44 775 L132 775 L148 884 L59 884 L44 775 Z M192 775 L279 775 L295 884 L207 884 L192 775 Z " />
<glyph glyph-name="Eth" unicode="&#xd0;" horiz-adv-x="462" d="M-4 332 L40 332 L-7 0 L184 0 C374 0 402 116 436 357 C446 429 454 490 454 541 C454 669 406 741 236 741 L98 741 L52 420 L9 420 L-4 332 Z M111 91 L145 332 L225 332 L238 420 L157 420 L189 646 L231 646 C320 646 347 615 347 532 C347 490 340 435 330 362 C299 143 284 91 182 91 L111 91 Z " />
<glyph glyph-name="Ntilde" unicode="&#xd1;" horiz-adv-x="470" d="M-6 0 L91 0 L164 510 L191 376 L278 0 L372 0 L476 741 L379 741 L311 259 L286 380 L206 741 L98 741 L-6 0 Z M225 771 C232 799 239 806 257 806 C276 806 309 775 346 775 C408 775 432 811 448 880 L371 893 C364 865 357 859 339 859 C319 859 286 890 250 890 C186 890 163 853 147 784 L225 771 Z " />
<glyph glyph-name="Ograve" unicode="&#xd2;" horiz-adv-x="479" d="M202 -5 C382 -5 420 129 452 357 C462 426 471 495 471 547 C471 667 424 749 281 749 C98 749 60 620 27 385 C17 314 9 252 9 200 C9 78 56 -5 202 -5 L202 -5 Z M209 91 C138 91 115 126 115 205 C115 248 123 304 132 377 C162 583 180 649 273 649 C341 649 364 614 364 537 C364 493 357 436 346 361 C317 156 300 91 209 91 L209 91 Z M265 775 L353 775 L297 929 L181 929 L265 775 Z " />
<glyph glyph-name="Oacute" unicode="&#xd3;" horiz-adv-x="479" d="M232 775 L321 775 L448 929 L332 929 L232 775 Z M202 -5 C382 -5 420 129 452 357 C462 426 471 495 471 547 C471 667 424 749 281 749 C98 749 60 620 27 385 C17 314 9 252 9 200 C9 78 56 -5 202 -5 L202 -5 Z M209 91 C138 91 115 126 115 205 C115 248 123 304 132 377 C162 583 180 649 273 649 C341 649 364 614 364 537 C364 493 357 436 346 361 C317 156 300 91 209 91 L209 91 Z " />
<glyph glyph-name="Ocircumflex" unicode="&#xd4;" horiz-adv-x="479" d="M149 775 L239 775 L308 860 L353 775 L440 775 L367 929 L266 929 L149 775 Z M202 -5 C382 -5 420 129 452 357 C462 426 471 495 471 547 C471 667 424 749 281 749 C98 749 60 620 27 385 C17 314 9 252 9 200 C9 78 56 -5 202 -5 L202 -5 Z M209 91 C138 91 115 126 115 205 C115 248 123 304 132 377 C162 583 180 649 273 649 C341 649 364 614 364 537 C364 493 357 436 346 361 C317 156 300 91 209 91 L209 91 Z " />
<glyph glyph-name="Otilde" unicode="&#xd5;" horiz-adv-x="479" d="M202 -5 C382 -5 420 129 452 357 C462 426 471 495 471 547 C471 667 424 749 281 749 C98 749 60 620 27 385 C17 314 9 252 9 200 C9 78 56 -5 202 -5 L202 -5 Z M209 91 C138 91 115 126 115 205 C115 248 123 304 132 377 C162 583 180 649 273 649 C341 649 364 614 364 537 C364 493 357 436 346 361 C317 156 300 91 209 91 L209 91 Z M229 771 C236 799 243 806 261 806 C280 806 313 775 350 775 C412 775 436 811 452 880 L375 893 C368 865 361 859 343 859 C323 859 290 890 254 890 C190 890 167 853 151 784 L229 771 Z " />
<glyph glyph-name="Odieresis" unicode="&#xd6;" horiz-adv-x="479" d="M178 775 L266 775 L282 884 L193 884 L178 775 Z M326 775 L413 775 L429 884 L341 884 L326 775 Z M202 -5 C382 -5 420 129 452 357 C462 426 471 495 471 547 C471 667 424 749 281 749 C98 749 60 620 27 385 C17 314 9 252 9 200 C9 78 56 -5 202 -5 L202 -5 Z M209 91 C138 91 115 126 115 205 C115 248 123 304 132 377 C162 583 180 649 273 649 C341 649 364 614 364 537 C364 493 357 436 346 361 C317 156 300 91 209 91 L209 91 Z " />
<glyph glyph-name="multiply" unicode="&#xd7;" horiz-adv-x="452" d="M120 225 L217 310 L291 225 L351 278 L278 363 L379 452 L330 508 L229 420 L156 506 L97 452 L169 367 L70 281 L120 225 Z " />
<glyph glyph-name="Oslash" unicode="&#xd8;" horiz-adv-x="479" d="M202 -5 C382 -5 420 129 452 357 C462 426 471 495 471 547 C471 617 454 674 412 710 L440 783 L349 783 L334 744 C318 747 300 749 281 749 C98 749 60 620 27 385 C17 314 9 252 9 200 C9 129 24 71 66 35 L38 -41 L128 -41 L143 0 C161 -3 180 -5 202 -5 L202 -5 Z M207 84 C193 84 181 85 171 88 L362 593 C366 578 367 561 367 541 C367 497 360 437 349 361 C319 150 300 84 207 84 L207 84 Z M112 200 C112 244 120 303 130 377 C160 589 180 655 275 655 C286 655 297 654 306 652 L116 150 C113 164 112 181 112 200 L112 200 Z " />
<glyph glyph-name="Ugrave" unicode="&#xd9;" horiz-adv-x="471" d="M199 -8 C349 -8 386 69 408 222 L481 741 L379 741 L307 230 C293 127 271 89 201 89 C117 89 115 145 127 225 L199 741 L94 741 L21 222 C2 84 25 -8 199 -8 L199 -8 Z M261 775 L349 775 L293 929 L177 929 L261 775 Z " />
<glyph glyph-name="Uacute" unicode="&#xda;" horiz-adv-x="471" d="M228 775 L317 775 L444 929 L328 929 L228 775 Z M199 -8 C349 -8 386 69 408 222 L481 741 L379 741 L307 230 C293 127 271 89 201 89 C117 89 115 145 127 225 L199 741 L94 741 L21 222 C2 84 25 -8 199 -8 L199 -8 Z " />
<glyph glyph-name="Ucircumflex" unicode="&#xdb;" horiz-adv-x="471" d="M145 775 L235 775 L304 860 L349 775 L436 775 L363 929 L262 929 L145 775 Z M199 -8 C349 -8 386 69 408 222 L481 741 L379 741 L307 230 C293 127 271 89 201 89 C117 89 115 145 127 225 L199 741 L94 741 L21 222 C2 84 25 -8 199 -8 L199 -8 Z " />
<glyph glyph-name="Udieresis" unicode="&#xdc;" horiz-adv-x="471" d="M174 775 L262 775 L278 884 L189 884 L174 775 Z M322 775 L409 775 L425 884 L337 884 L322 775 Z M199 -8 C349 -8 386 69 408 222 L481 741 L379 741 L307 230 C293 127 271 89 201 89 C117 89 115 145 127 225 L199 741 L94 741 L21 222 C2 84 25 -8 199 -8 L199 -8 Z " />
<glyph glyph-name="Yacute" unicode="&#xdd;" horiz-adv-x="437" d="M113 0 L217 0 L254 259 L487 741 L379 741 L222 399 L162 741 L54 741 L150 259 L113 0 Z M211 775 L300 775 L427 929 L311 929 L211 775 Z " />
<glyph glyph-name="Thorn" unicode="&#xde;" horiz-adv-x="444" d="M-6 0 L97 0 L119 153 L212 153 C348 153 397 209 421 377 C426 409 428 438 428 463 C428 569 382 620 236 620 L185 620 L201 741 L98 741 L-6 0 Z M132 245 L171 527 L230 527 C301 527 325 506 325 446 C325 429 323 408 320 381 C304 270 279 245 214 245 L132 245 Z " />
<glyph glyph-name="germandbls" unicode="&#xdf;" horiz-adv-x="415" d="M-35 -152 L66 -152 L169 583 C176 629 186 676 246 676 C296 676 310 654 310 608 C310 592 309 571 305 548 C294 467 281 434 224 434 L206 434 L194 349 L202 349 C263 349 283 335 283 278 C283 262 281 242 278 217 C262 110 236 90 180 90 L141 90 L130 0 L181 0 C293 0 348 28 372 200 C377 238 381 271 381 298 C381 355 367 389 323 405 C375 424 383 469 398 566 C402 592 404 617 404 639 C404 724 367 771 250 771 C128 771 85 698 70 593 L-35 -152 Z " />
<glyph glyph-name="agrave" unicode="&#xe0;" horiz-adv-x="395" d="M114 -4 C164 -4 200 9 224 31 C229 11 244 -1 284 -1 C292 -1 317 -1 324 0 L336 90 C304 90 306 103 310 133 L346 393 C361 497 340 565 213 565 C152 565 104 557 73 545 L103 455 C129 463 161 468 192 468 C252 468 251 424 245 379 L220 379 C75 379 17 349 -6 189 C-10 164 -11 141 -11 121 C-10 42 23 -4 114 -4 L114 -4 Z M135 81 C98 81 87 103 87 138 C87 153 89 172 92 194 C106 285 133 295 233 295 L217 180 C206 104 186 81 135 81 L135 81 Z M200 608 L288 608 L232 762 L116 762 L200 608 Z " />
<glyph glyph-name="aacute" unicode="&#xe1;" horiz-adv-x="395" d="M114 -4 C164 -4 200 9 224 31 C229 11 244 -1 284 -1 C292 -1 317 -1 324 0 L336 90 C304 90 306 103 310 133 L346 393 C361 497 340 565 213 565 C152 565 104 557 73 545 L103 455 C129 463 161 468 192 468 C252 468 251 424 245 379 L220 379 C75 379 17 349 -6 189 C-10 164 -11 141 -11 121 C-10 42 23 -4 114 -4 L114 -4 Z M135 81 C98 81 87 103 87 138 C87 153 89 172 92 194 C106 285 133 295 233 295 L217 180 C206 104 186 81 135 81 L135 81 Z M167 608 L256 608 L383 762 L267 762 L167 608 Z " />
<glyph glyph-name="acircumflex" unicode="&#xe2;" horiz-adv-x="395" d="M114 -4 C164 -4 200 9 224 31 C229 11 244 -1 284 -1 C292 -1 317 -1 324 0 L336 90 C304 90 306 103 310 133 L346 393 C361 497 340 565 213 565 C152 565 104 557 73 545 L103 455 C129 463 161 468 192 468 C252 468 251 424 245 379 L220 379 C75 379 17 349 -6 189 C-10 164 -11 141 -11 121 C-10 42 23 -4 114 -4 L114 -4 Z M135 81 C98 81 87 103 87 138 C87 153 89 172 92 194 C106 285 133 295 233 295 L217 180 C206 104 186 81 135 81 L135 81 Z M84 608 L174 608 L243 693 L288 608 L375 608 L302 762 L201 762 L84 608 Z " />
<glyph glyph-name="atilde" unicode="&#xe3;" horiz-adv-x="395" d="M114 -4 C164 -4 200 9 224 31 C229 11 244 -1 284 -1 C292 -1 317 -1 324 0 L336 90 C304 90 306 103 310 133 L346 393 C361 497 340 565 213 565 C152 565 104 557 73 545 L103 455 C129 463 161 468 192 468 C252 468 251 424 245 379 L220 379 C75 379 17 349 -6 189 C-10 164 -11 141 -11 121 C-10 42 23 -4 114 -4 L114 -4 Z M135 81 C98 81 87 103 87 138 C87 153 89 172 92 194 C106 285 133 295 233 295 L217 180 C206 104 186 81 135 81 L135 81 Z M164 604 C171 632 178 639 196 639 C215 639 248 608 285 608 C347 608 371 644 387 713 L310 726 C303 698 296 692 278 692 C258 692 225 723 189 723 C125 723 102 686 86 617 L164 604 Z " />
<glyph glyph-name="adieresis" unicode="&#xe4;" horiz-adv-x="395" d="M114 -4 C164 -4 200 9 224 31 C229 11 244 -1 284 -1 C292 -1 317 -1 324 0 L336 90 C304 90 306 103 310 133 L346 393 C361 497 340 565 213 565 C152 565 104 557 73 545 L103 455 C129 463 161 468 192 468 C252 468 251 424 245 379 L220 379 C75 379 17 349 -6 189 C-10 164 -11 141 -11 121 C-10 42 23 -4 114 -4 L114 -4 Z M135 81 C98 81 87 103 87 138 C87 153 89 172 92 194 C106 285 133 295 233 295 L217 180 C206 104 186 81 135 81 L135 81 Z M113 608 L201 608 L217 717 L128 717 L113 608 Z M261 608 L348 608 L364 717 L276 717 L261 608 Z " />
<glyph glyph-name="aring" unicode="&#xe5;" horiz-adv-x="395" d="M114 -4 C164 -4 200 9 224 31 C229 11 244 -1 284 -1 C292 -1 317 -1 324 0 L336 90 C304 90 306 103 310 133 L346 393 C361 497 340 565 213 565 C152 565 104 557 73 545 L103 455 C129 463 161 468 192 468 C252 468 251 424 245 379 L220 379 C75 379 17 349 -6 189 C-10 164 -11 141 -11 121 C-10 42 23 -4 114 -4 L114 -4 Z M135 81 C98 81 87 103 87 138 C87 153 89 172 92 194 C106 285 133 295 233 295 L217 180 C206 104 186 81 135 81 L135 81 Z M234 603 C306 603 327 644 335 707 C337 719 338 731 338 743 C338 792 320 827 253 827 C184 827 163 785 155 720 C154 708 153 698 153 686 C152 638 169 603 234 603 L234 603 Z M239 654 C214 654 205 668 205 691 C205 699 206 707 207 715 C212 753 219 776 251 776 C276 776 284 761 284 738 C284 730 283 721 282 711 C277 675 271 654 239 654 L239 654 Z " />
<glyph glyph-name="ae" unicode="&#xe6;" horiz-adv-x="588" d="M375 -5 C430 -5 467 0 514 16 L487 99 C454 88 421 84 387 84 C333 84 316 108 316 163 C316 181 318 204 321 231 L549 231 C563 314 571 376 571 422 C571 517 531 565 429 565 C381 565 346 552 321 527 C303 551 269 565 213 565 C152 565 104 557 73 545 L103 455 C129 463 161 468 192 468 C252 468 251 424 245 379 L220 379 C75 379 18 348 -5 188 C-9 163 -11 141 -11 121 C-10 42 23 -4 114 -4 C179 -4 217 6 253 52 C273 16 310 -5 375 -5 L375 -5 Z M135 81 C98 81 87 103 87 138 C87 153 89 172 92 194 C105 282 132 295 233 295 L220 200 C209 124 198 81 135 81 L135 81 Z M423 471 C462 471 477 456 477 411 C477 388 473 363 467 322 L333 322 C350 427 365 471 423 471 L423 471 Z " />
<glyph glyph-name="ccedilla" unicode="&#xe7;" horiz-adv-x="298" d="M80 -217 C144 -217 186 -197 186 -106 C186 -58 157 -46 119 -47 L132 -3 C137 -4 142 -4 147 -4 C180 -4 205 -2 234 7 L214 93 C197 88 180 86 164 86 C119 86 102 111 102 167 C102 196 107 234 113 282 C132 413 146 467 208 467 C233 467 249 462 264 456 L305 548 C283 557 255 565 206 565 C73 565 34 461 10 292 C3 243 -1 200 -1 162 C-1 89 20 32 78 8 L54 -66 L72 -82 C99 -80 121 -83 121 -109 C121 -147 108 -157 77 -157 C55 -157 37 -150 20 -141 L-11 -194 C10 -206 41 -217 80 -217 L80 -217 Z " />
<glyph glyph-name="egrave" unicode="&#xe8;" horiz-adv-x="368" d="M154 -5 C210 -5 246 0 294 16 L267 99 C234 88 201 84 167 84 C113 84 96 108 96 163 C96 181 98 204 101 231 L329 231 C342 314 350 376 350 422 C350 517 311 565 208 565 C77 565 36 470 10 292 C3 244 -1 201 -1 164 C-1 64 39 -5 154 -5 L154 -5 Z M203 471 C242 471 256 456 256 411 C256 388 253 366 247 322 L113 322 C129 427 145 471 203 471 L203 471 Z M187 608 L275 608 L219 762 L103 762 L187 608 Z " />
<glyph glyph-name="eacute" unicode="&#xe9;" horiz-adv-x="368" d="M154 608 L243 608 L370 762 L254 762 L154 608 Z M154 -5 C210 -5 246 0 294 16 L267 99 C234 88 201 84 167 84 C113 84 96 108 96 163 C96 181 98 204 101 231 L329 231 C342 314 350 376 350 422 C350 517 311 565 208 565 C77 565 36 470 10 292 C3 244 -1 201 -1 164 C-1 64 39 -5 154 -5 L154 -5 Z M203 471 C242 471 256 456 256 411 C256 388 253 366 247 322 L113 322 C129 427 145 471 203 471 L203 471 Z " />
<glyph glyph-name="ecircumflex" unicode="&#xea;" horiz-adv-x="368" d="M71 608 L161 608 L230 693 L275 608 L362 608 L289 762 L188 762 L71 608 Z M154 -5 C210 -5 246 0 294 16 L267 99 C234 88 201 84 167 84 C113 84 96 108 96 163 C96 181 98 204 101 231 L329 231 C342 314 350 376 350 422 C350 517 311 565 208 565 C77 565 36 470 10 292 C3 244 -1 201 -1 164 C-1 64 39 -5 154 -5 L154 -5 Z M203 471 C242 471 256 456 256 411 C256 388 253 366 247 322 L113 322 C129 427 145 471 203 471 L203 471 Z " />
<glyph glyph-name="edieresis" unicode="&#xeb;" horiz-adv-x="368" d="M100 608 L188 608 L204 717 L115 717 L100 608 Z M248 608 L335 608 L351 717 L263 717 L248 608 Z M154 -5 C210 -5 246 0 294 16 L267 99 C234 88 201 84 167 84 C113 84 96 108 96 163 C96 181 98 204 101 231 L329 231 C342 314 350 376 350 422 C350 517 311 565 208 565 C77 565 36 470 10 292 C3 244 -1 201 -1 164 C-1 64 39 -5 154 -5 L154 -5 Z M203 471 C242 471 256 456 256 411 C256 388 253 366 247 322 L113 322 C129 427 145 471 203 471 L203 471 Z " />
<glyph glyph-name="igrave" unicode="&#xec;" horiz-adv-x="185" d="M83 608 L172 608 L144 762 L34 762 L83 608 Z M-10 0 L91 0 L170 559 L69 559 L-10 0 Z " />
<glyph glyph-name="iacute" unicode="&#xed;" horiz-adv-x="185" d="M79 608 L169 608 L264 762 L153 762 L79 608 Z M-10 0 L91 0 L170 559 L69 559 L-10 0 Z " />
<glyph glyph-name="icircumflex" unicode="&#xee;" horiz-adv-x="185" d="M-11 608 L78 608 L138 693 L175 608 L262 608 L197 762 L96 762 L-11 608 Z M-10 0 L91 0 L170 559 L69 559 L-10 0 Z " />
<glyph glyph-name="idieresis" unicode="&#xef;" horiz-adv-x="185" d="M9 608 L97 608 L113 717 L24 717 L9 608 Z M152 608 L240 608 L255 717 L167 717 L152 608 Z M-10 0 L91 0 L170 559 L69 559 L-10 0 Z " />
<glyph glyph-name="eth" unicode="&#xf0;" horiz-adv-x="399" d="M191 591 L270 610 C277 581 281 555 283 536 C269 552 246 562 193 562 C66 562 32 448 11 291 C3 241 -1 198 -1 162 C-1 62 38 -5 162 -5 C294 -5 335 81 365 276 C375 351 380 409 380 470 C380 530 373 584 362 632 L415 645 L426 727 L339 706 C330 730 319 752 308 772 L224 742 C233 724 241 704 248 684 L202 673 L191 591 Z M164 86 C114 86 99 112 99 164 C99 194 104 232 111 279 C129 412 141 468 209 468 C259 468 272 441 272 389 C272 360 268 317 261 269 C242 137 232 86 164 86 L164 86 Z " />
<glyph glyph-name="ntilde" unicode="&#xf1;" horiz-adv-x="410" d="M-13 0 L87 0 L137 352 C150 446 171 468 221 468 C284 468 280 423 271 359 L221 0 L322 0 L377 392 C388 479 390 565 261 565 C211 565 171 556 148 531 L149 558 L64 553 L-13 0 Z M172 604 C179 632 186 639 204 639 C223 639 256 608 293 608 C355 608 379 644 395 713 L318 726 C311 698 304 692 286 692 C266 692 233 723 197 723 C133 723 110 686 94 617 L172 604 Z " />
<glyph glyph-name="ograve" unicode="&#xf2;" horiz-adv-x="399" d="M158 -5 C304 -5 340 100 363 268 C370 316 375 360 375 398 C375 492 339 565 215 565 C70 565 34 460 10 292 C3 245 -1 202 -1 164 C-1 68 34 -5 158 -5 L158 -5 Z M164 86 C115 86 99 112 99 166 C99 195 104 233 111 282 C130 417 142 468 209 468 C258 468 272 442 272 388 C272 359 269 320 261 272 C242 137 231 86 164 86 L164 86 Z M202 608 L290 608 L234 762 L118 762 L202 608 Z " />
<glyph glyph-name="oacute" unicode="&#xf3;" horiz-adv-x="399" d="M169 608 L258 608 L385 762 L269 762 L169 608 Z M158 -5 C304 -5 340 100 363 268 C370 316 375 360 375 398 C375 492 339 565 215 565 C70 565 34 460 10 292 C3 245 -1 202 -1 164 C-1 68 34 -5 158 -5 L158 -5 Z M164 86 C115 86 99 112 99 166 C99 195 104 233 111 282 C130 417 142 468 209 468 C258 468 272 442 272 388 C272 359 269 320 261 272 C242 137 231 86 164 86 L164 86 Z " />
<glyph glyph-name="ocircumflex" unicode="&#xf4;" horiz-adv-x="399" d="M86 608 L176 608 L245 693 L290 608 L377 608 L304 762 L203 762 L86 608 Z M158 -5 C304 -5 340 100 363 268 C370 316 375 360 375 398 C375 492 339 565 215 565 C70 565 34 460 10 292 C3 245 -1 202 -1 164 C-1 68 34 -5 158 -5 L158 -5 Z M164 86 C115 86 99 112 99 166 C99 195 104 233 111 282 C130 417 142 468 209 468 C258 468 272 442 272 388 C272 359 269 320 261 272 C242 137 231 86 164 86 L164 86 Z " />
<glyph glyph-name="otilde" unicode="&#xf5;" horiz-adv-x="399" d="M158 -5 C304 -5 340 100 363 268 C370 316 375 360 375 398 C375 492 339 565 215 565 C70 565 34 460 10 292 C3 245 -1 202 -1 164 C-1 68 34 -5 158 -5 L158 -5 Z M164 86 C115 86 99 112 99 166 C99 195 104 233 111 282 C130 417 142 468 209 468 C258 468 272 442 272 388 C272 359 269 320 261 272 C242 137 231 86 164 86 L164 86 Z M166 604 C173 632 180 639 198 639 C217 639 250 608 287 608 C349 608 373 644 389 713 L312 726 C305 698 298 692 280 692 C260 692 227 723 191 723 C127 723 104 686 88 617 L166 604 Z " />
<glyph glyph-name="odieresis" unicode="&#xf6;" horiz-adv-x="399" d="M115 608 L203 608 L219 717 L130 717 L115 608 Z M263 608 L350 608 L366 717 L278 717 L263 608 Z M158 -5 C304 -5 340 100 363 268 C370 316 375 360 375 398 C375 492 339 565 215 565 C70 565 34 460 10 292 C3 245 -1 202 -1 164 C-1 68 34 -5 158 -5 L158 -5 Z M164 86 C115 86 99 112 99 166 C99 195 104 233 111 282 C130 417 142 468 209 468 C258 468 272 442 272 388 C272 359 269 320 261 272 C242 137 231 86 164 86 L164 86 Z " />
<glyph glyph-name="divide" unicode="&#xf7;" horiz-adv-x="452" d="M145 152 L246 152 L260 252 L159 252 L145 152 Z M52 318 L384 318 L398 414 L66 414 L52 318 Z M191 479 L292 479 L306 579 L205 579 L191 479 Z " />
<glyph glyph-name="oslash" unicode="&#xf8;" horiz-adv-x="400" d="M158 -5 C304 -5 340 100 363 268 C370 316 375 360 375 398 C375 449 364 493 334 524 L368 601 L286 601 L268 559 C252 563 235 565 215 565 C70 565 34 460 10 292 C3 245 -1 202 -1 164 C-1 111 9 65 39 35 L6 -42 L88 -42 L106 0 C121 -3 138 -5 158 -5 L158 -5 Z M163 82 C153 82 144 83 136 85 L276 401 L276 391 C276 361 271 321 265 272 C244 133 232 82 163 82 L163 82 Z M96 163 C96 193 101 233 108 282 C127 421 141 472 210 472 C219 472 227 471 235 469 L96 153 L96 163 Z " />
<glyph glyph-name="ugrave" unicode="&#xf9;" horiz-adv-x="404" d="M166 -5 C278 -5 324 58 340 169 L394 559 L295 559 L243 185 C233 116 217 86 165 86 C107 86 102 125 110 184 L163 559 L63 559 L9 182 C-7 69 25 -5 166 -5 L166 -5 Z M205 608 L293 608 L237 762 L121 762 L205 608 Z " />
<glyph glyph-name="uacute" unicode="&#xfa;" horiz-adv-x="404" d="M172 608 L261 608 L388 762 L272 762 L172 608 Z M166 -5 C278 -5 324 58 340 169 L394 559 L295 559 L243 185 C233 116 217 86 165 86 C107 86 102 125 110 184 L163 559 L63 559 L9 182 C-7 69 25 -5 166 -5 L166 -5 Z " />
<glyph glyph-name="ucircumflex" unicode="&#xfb;" horiz-adv-x="404" d="M89 608 L179 608 L248 693 L293 608 L380 608 L307 762 L206 762 L89 608 Z M166 -5 C278 -5 324 58 340 169 L394 559 L295 559 L243 185 C233 116 217 86 165 86 C107 86 102 125 110 184 L163 559 L63 559 L9 182 C-7 69 25 -5 166 -5 L166 -5 Z " />
<glyph glyph-name="udieresis" unicode="&#xfc;" horiz-adv-x="404" d="M118 608 L206 608 L222 717 L133 717 L118 608 Z M266 608 L353 608 L369 717 L281 717 L266 608 Z M166 -5 C278 -5 324 58 340 169 L394 559 L295 559 L243 185 C233 116 217 86 165 86 C107 86 102 125 110 184 L163 559 L63 559 L9 182 C-7 69 25 -5 166 -5 L166 -5 Z " />
<glyph glyph-name="yacute" unicode="&#xfd;" horiz-adv-x="359" d="M9 -153 C87 -153 121 -134 151 -56 L381 559 L281 559 L193 300 L154 178 L148 303 L131 559 L29 559 L80 3 L65 -38 C58 -57 49 -62 13 -63 L-19 -63 L-32 -152 C-25 -153 -2 -153 9 -153 L9 -153 Z M150 608 L239 608 L366 762 L250 762 L150 608 Z " />
<glyph glyph-name="thorn" unicode="&#xfe;" horiz-adv-x="411" d="M-35 -152 L66 -152 L92 35 C108 9 144 -4 208 -4 C327 -4 351 104 374 270 C382 323 389 374 389 417 C389 502 362 565 261 565 C222 565 186 556 161 532 L194 763 L93 763 L-35 -152 Z M179 87 C130 87 114 113 114 165 C114 195 119 231 126 281 C146 422 157 468 225 468 C269 468 284 440 284 388 C284 357 279 317 272 271 C255 143 241 87 179 87 L179 87 Z " />
<glyph glyph-name="ydieresis" unicode="&#xff;" horiz-adv-x="359" d="M9 -153 C87 -153 121 -134 151 -56 L381 559 L281 559 L193 300 L154 178 L148 303 L131 559 L29 559 L80 3 L65 -38 C58 -57 49 -62 13 -63 L-19 -63 L-32 -152 C-25 -153 -2 -153 9 -153 L9 -153 Z M96 608 L184 608 L200 717 L111 717 L96 608 Z M244 608 L331 608 L347 717 L259 717 L244 608 Z " />
<glyph glyph-name="dotlessi" unicode="&#x131;" horiz-adv-x="185" d="M-10 0 L91 0 L170 559 L69 559 L-10 0 Z " />
<glyph glyph-name="Lslash" unicode="&#x141;" horiz-adv-x="366" d="M-8 298 L38 312 L-6 0 L304 0 L317 95 L111 95 L146 345 L239 373 L252 462 L158 433 L202 741 L98 741 L50 401 L4 387 L-8 298 Z " />
<glyph glyph-name="lslash" unicode="&#x142;" horiz-adv-x="254" d="M5 401 L71 436 L28 131 C15 31 36 -1 138 -1 C142 -1 155 -1 158 0 L171 90 L165 90 C126 90 124 98 131 139 L180 494 L259 536 L272 626 L193 584 L218 763 L117 763 L83 526 L18 491 L5 401 Z " />
<glyph glyph-name="OE" unicode="&#x152;" horiz-adv-x="691" d="M297 0 L608 0 L622 95 L407 95 L441 330 L645 330 L659 426 L454 426 L485 644 L699 644 L712 741 L401 741 L398 721 C371 739 333 749 281 749 C98 749 60 620 27 385 C17 314 9 252 9 200 C9 78 56 -5 202 -5 C241 -5 273 1 299 13 L297 0 Z M209 91 C138 91 115 126 115 205 C115 248 123 304 132 377 C162 583 180 649 273 649 C341 649 364 614 364 537 C364 493 357 436 346 361 C317 156 300 91 209 91 L209 91 Z " />
<glyph glyph-name="oe" unicode="&#x153;" horiz-adv-x="617" d="M404 -5 C459 -5 495 0 543 16 L516 99 C483 88 450 84 416 84 C362 84 344 108 344 163 C344 180 346 204 349 231 L578 231 C591 314 600 376 600 422 C600 517 560 565 457 565 C401 565 364 547 337 514 C316 545 279 565 215 565 C70 565 34 460 10 292 C3 245 -1 202 -1 164 C-1 68 34 -5 158 -5 C218 -5 258 13 285 46 C307 14 343 -5 404 -5 L404 -5 Z M164 86 C115 86 99 112 99 166 C99 195 104 233 111 282 C130 417 142 468 209 468 C258 468 272 442 272 388 C272 359 269 320 261 272 C242 137 231 86 164 86 L164 86 Z M452 471 C491 471 505 456 505 411 C505 388 502 363 496 322 L362 322 C379 427 394 471 452 471 L452 471 Z " />
<glyph glyph-name="Scaron" unicode="&#x160;" horiz-adv-x="388" d="M199 775 L301 775 L418 929 L329 929 L259 843 L214 929 L126 929 L199 775 Z M138 -5 C268 -5 334 72 334 187 C334 256 303 308 240 412 C185 502 168 533 168 566 C168 618 200 648 247 648 C291 648 326 639 350 628 L393 723 C350 741 314 748 249 748 C123 748 61 671 61 564 C61 499 92 451 148 359 C213 253 230 221 230 186 C230 120 192 90 140 90 C86 90 46 106 18 122 L-35 35 C1 16 52 -5 138 -5 L138 -5 Z " />
<glyph glyph-name="scaron" unicode="&#x161;" horiz-adv-x="329" d="M147 608 L249 608 L366 762 L277 762 L207 676 L162 762 L74 762 L147 608 Z M115 -5 C217 -5 273 45 273 142 C273 192 251 232 192 316 C150 375 139 399 139 420 C139 453 159 470 193 470 C221 470 255 463 277 454 L312 547 C277 561 235 566 199 566 C92 566 42 508 42 419 C42 373 62 327 111 259 C163 186 175 164 175 139 C175 98 151 84 120 84 C72 84 32 98 8 109 L-30 22 C14 4 55 -5 115 -5 L115 -5 Z " />
<glyph glyph-name="Ydieresis" unicode="&#x178;" horiz-adv-x="437" d="M113 0 L217 0 L254 259 L487 741 L379 741 L222 399 L162 741 L54 741 L150 259 L113 0 Z M157 775 L245 775 L261 884 L172 884 L157 775 Z M305 775 L392 775 L408 884 L320 884 L305 775 Z " />
<glyph glyph-name="Zcaron" unicode="&#x17d;" horiz-adv-x="397" d="M203 775 L305 775 L422 929 L333 929 L263 843 L218 929 L130 929 L203 775 Z M-32 0 L325 0 L338 95 L102 95 L409 652 L421 741 L83 741 L69 644 L289 644 L-20 81 L-32 0 Z " />
<glyph glyph-name="zcaron" unicode="&#x17e;" horiz-adv-x="314" d="M139 608 L241 608 L358 762 L269 762 L199 676 L154 762 L66 762 L139 608 Z M-41 0 L250 0 L262 84 L89 84 L313 489 L323 559 L48 559 L36 468 L190 468 L-32 69 L-41 0 Z " />
<glyph glyph-name="florin" unicode="&#x192;" horiz-adv-x="377" d="M33 358 L106 358 L36 -152 L136 -152 L207 358 L314 358 L325 443 L219 443 L238 578 C243 625 250 648 292 648 L317 648 L330 740 C324 740 297 741 286 741 C177 741 153 694 140 601 L118 443 L44 443 L33 358 Z " />
<glyph glyph-name="circumflex" unicode="&#x2c6;" horiz-adv-x="366" d="M70 608 L160 608 L229 693 L274 608 L361 608 L288 762 L187 762 L70 608 Z " />
<glyph glyph-name="caron" unicode="&#x2c7;" horiz-adv-x="366" d="M165 608 L267 608 L384 762 L295 762 L225 676 L180 762 L92 762 L165 608 Z " />
<glyph glyph-name="breve" unicode="&#x2d8;" horiz-adv-x="366" d="M226 603 C312 603 351 650 366 747 L293 753 C281 703 270 680 227 680 C181 680 177 713 178 753 L105 747 C101 659 118 603 226 603 L226 603 Z " />
<glyph glyph-name="dotaccent" unicode="&#x2d9;" horiz-adv-x="366" d="M166 608 L267 608 L283 728 L181 728 L166 608 Z " />
<glyph glyph-name="ring" unicode="&#x2da;" horiz-adv-x="366" d="M220 603 C292 603 313 644 321 707 C323 719 324 731 324 743 C324 792 306 827 239 827 C170 827 149 785 141 720 C140 708 139 698 139 686 C138 638 155 603 220 603 L220 603 Z M225 654 C200 654 191 668 191 691 C191 699 192 707 193 715 C198 753 205 776 237 776 C262 776 270 761 270 738 C270 730 269 721 268 711 C263 675 257 654 225 654 L225 654 Z " />
<glyph glyph-name="ogonek" unicode="&#x2db;" horiz-adv-x="366" d="M129 -201 L165 -201 L173 -141 L135 -141 C115 -141 104 -133 104 -112 C104 -70 140 -32 181 13 L108 13 C72 -22 32 -60 32 -128 C32 -176 59 -201 129 -201 L129 -201 Z " />
<glyph glyph-name="tilde" unicode="&#x2dc;" horiz-adv-x="366" d="M150 604 C157 632 164 639 182 639 C201 639 234 608 271 608 C333 608 357 644 373 713 L296 726 C289 698 282 692 264 692 C244 692 211 723 175 723 C111 723 88 686 72 617 L150 604 Z " />
<glyph glyph-name="hungarumlaut" unicode="&#x2dd;" horiz-adv-x="366" d="M94 608 L165 608 L274 767 L176 767 L94 608 Z M247 608 L317 608 L426 767 L329 767 L247 608 Z " />
<glyph glyph-name="&amp;#x394;" unicode="&#x394;" horiz-adv-x="434" d="M25 468 L92 468 L6 -152 L106 -152 L193 468 L261 468 L274 559 L206 559 L214 616 C220 663 231 674 270 674 L290 674 L302 763 C298 764 280 764 275 764 C170 764 128 727 115 631 L105 559 L38 559 L25 468 Z M183 -152 C285 -152 322 -134 337 -28 L419 559 L318 559 L237 -16 C232 -55 228 -63 195 -63 L183 -152 Z M326 621 L428 621 L444 739 L343 739 L326 621 Z " />
<glyph glyph-name="&amp;#x2206;" unicode="&#x2206;" horiz-adv-x="434" d="M25 468 L92 468 L6 -152 L106 -152 L193 468 L261 468 L274 559 L206 559 L214 616 C220 663 231 674 270 674 L290 674 L302 763 C298 764 280 764 275 764 C170 764 128 727 115 631 L105 559 L38 559 L25 468 Z M183 -152 C285 -152 322 -134 337 -28 L419 559 L318 559 L237 -16 C232 -55 228 -63 195 -63 L183 -152 Z M326 621 L428 621 L444 739 L343 739 L326 621 Z " />
<glyph glyph-name="&amp;#x3a9;" unicode="&#x3a9;" horiz-adv-x="832" d="M126 120 C126 120 129 123 134 127 C79 193 46 278 46 371 C46 464 79 549 133 615 C129 619 126 621 126 621 C70 554 36 466 36 371 C36 275 70 187 126 120 L126 120 Z M228 211 C230 213 233 215 235 218 C201 259 181 313 181 371 C181 429 202 483 235 524 C232 526 230 529 227 531 C192 487 171 432 171 371 C171 310 193 254 228 211 L228 211 Z M264 243 C267 245 269 248 272 250 C245 283 229 325 229 371 C229 417 245 459 272 492 C269 494 267 497 264 499 C236 464 219 419 219 371 C219 322 236 278 264 243 L264 243 Z M316 289 C319 291 321 294 324 296 C308 317 298 343 298 371 C298 399 308 425 323 445 C321 448 318 450 316 452 C298 430 288 402 288 371 C288 340 298 312 316 289 L316 289 Z M349 320 C352 323 354 325 357 327 C348 340 343 355 343 371 C343 387 348 402 357 415 C354 417 352 420 349 422 C339 408 333 390 333 371 C333 352 339 334 349 320 L349 320 Z M378 346 C382 349 384 351 384 351 C381 357 379 364 379 371 C379 378 381 385 384 391 C384 391 382 393 378 396 C374 389 371 380 371 371 C371 362 374 353 378 346 L378 346 Z M416 60 C493 60 563 89 616 136 C614 139 611 141 609 144 C558 98 490 70 416 70 C342 70 274 98 222 144 C222 145 215 137 215 137 C268 89 338 60 416 60 L416 60 Z M416 324 C426 324 435 327 442 333 C439 337 437 339 437 339 C431 334 424 332 416 332 C408 332 401 335 395 339 C395 339 391 334 389 333 C397 327 406 324 416 324 L416 324 Z M482 319 C493 334 499 352 499 371 C499 390 493 408 482 422 C483 422 475 415 475 415 C484 403 489 388 489 371 C489 355 484 339 475 326 C478 324 480 322 482 319 L482 319 Z M292 269 C295 271 298 274 300 276 C280 302 267 335 267 371 C267 407 280 440 300 466 L293 473 C270 445 257 410 257 371 C257 333 270 297 292 269 L292 269 Z M416 -17 C512 -17 600 19 667 80 C667 80 660 88 660 87 C595 29 510 -7 416 -7 C322 -7 236 29 171 88 L164 80 C231 20 320 -17 416 -17 L416 -17 Z M416 121 C478 121 534 144 576 182 C574 185 571 187 569 190 C529 153 475 131 416 131 C357 131 303 153 262 190 L255 182 C298 144 354 121 416 121 L416 121 Z M416 170 C465 170 510 188 544 218 C542 221 539 223 537 226 C505 197 462 180 416 180 C369 180 327 197 294 226 L287 219 C322 189 367 170 416 170 L416 170 Z M416 209 C455 209 491 224 518 247 C516 250 514 253 512 255 C486 233 452 219 416 219 C380 219 346 233 320 255 L313 247 C341 224 377 209 416 209 L416 209 Z M416 265 C441 265 463 274 481 289 C479 292 476 294 474 297 C458 283 438 275 416 275 C394 275 373 283 357 297 L350 289 C368 274 391 265 416 265 L416 265 Z M358 445 C374 459 394 467 416 467 C438 467 458 459 474 445 L482 453 C464 468 441 477 416 477 C391 477 368 468 350 453 C351 452 354 448 358 445 L358 445 Z M570 552 C572 554 575 557 577 560 C534 598 478 621 416 621 C355 621 299 598 256 560 L263 553 C304 589 357 611 416 611 C475 611 529 589 570 552 L570 552 Z M454 346 C458 353 461 362 461 371 C461 380 458 389 454 396 L448 391 C451 385 453 378 453 371 C453 364 451 357 448 351 C448 351 450 349 454 346 L454 346 Z M468 333 C476 344 480 357 480 371 C480 385 476 398 468 409 L460 402 C466 393 470 382 470 371 C470 360 466 349 460 340 C463 338 465 336 468 333 L468 333 Z M498 306 C511 325 519 347 519 371 C519 395 511 418 497 436 L490 429 C502 413 509 393 509 371 C509 349 502 329 490 313 C492 311 495 308 498 306 L498 306 Z M540 269 C562 297 575 332 575 371 C575 410 562 445 539 473 L531 466 C552 440 565 407 565 371 C565 335 552 302 532 276 C535 274 537 271 540 269 L540 269 Z M568 243 C596 278 613 322 613 371 C613 420 596 464 568 499 L560 492 C587 459 603 417 603 371 C603 325 587 283 560 250 C563 248 566 245 568 243 L568 243 Z M604 211 C640 254 661 310 661 371 C661 432 640 488 604 531 L596 524 C631 483 651 429 651 371 C651 313 631 260 596 218 C601 213 604 211 604 211 L604 211 Z M649 171 C694 225 721 295 721 371 C721 447 694 517 649 571 L641 564 C685 512 711 445 711 371 C711 297 685 230 642 177 C644 175 647 173 649 171 L649 171 Z M706 120 C762 188 796 276 796 371 C796 467 762 555 706 622 L698 615 C753 549 786 464 786 371 C786 278 753 193 698 127 C703 123 706 120 706 120 L706 120 Z M183 170 L190 177 C147 229 121 297 121 371 C121 444 147 512 190 564 C187 567 184 569 182 571 C138 517 111 447 111 371 C111 294 138 225 183 170 L183 170 Z M334 306 L342 314 C330 330 323 350 323 371 C323 393 330 413 342 429 C340 431 337 434 334 436 C321 418 313 395 313 371 C313 346 321 324 334 306 L334 306 Z M364 333 L371 340 C366 349 362 360 362 371 C362 382 366 393 371 402 C369 404 366 406 364 409 C356 398 352 385 352 371 C352 357 356 344 364 333 L364 333 Z M395 403 C401 408 408 410 416 410 C424 410 431 407 437 403 C437 403 439 406 442 409 C435 415 426 418 416 418 C406 418 397 415 390 409 L395 403 Z M384 416 C393 423 404 428 416 428 C428 428 439 424 448 416 C450 419 452 421 454 423 C443 432 430 437 416 437 C401 437 388 432 377 423 L384 416 Z M371 430 C383 441 399 447 416 447 C433 447 449 441 461 430 C461 430 464 434 468 438 C454 450 436 457 416 457 C397 457 378 450 364 438 L371 430 Z M295 516 C327 545 370 562 416 562 C462 562 505 545 538 516 C538 516 545 523 544 523 C510 554 465 572 416 572 C367 572 322 554 288 524 L295 516 Z M416 240 C448 240 476 252 498 271 L491 278 C471 261 445 250 416 250 C388 250 361 261 340 278 L333 270 C355 251 384 240 416 240 L416 240 Z M416 285 C436 285 454 292 468 304 L461 312 C448 301 433 295 416 295 C399 295 383 302 370 312 L363 304 C378 292 396 285 416 285 L416 285 Z M416 305 C430 305 444 310 455 319 L448 326 C439 319 428 314 416 314 C404 314 393 319 383 326 L376 319 C388 310 401 305 416 305 L416 305 Z M341 464 C362 482 388 492 416 492 C445 492 471 481 491 464 L498 472 C476 491 447 502 416 502 C385 502 356 490 334 471 L341 464 Z M320 487 C346 509 380 523 416 523 C453 523 486 510 512 487 L518 494 C491 518 455 533 416 533 C377 533 341 519 313 495 L320 487 Z M610 597 L617 605 C563 653 493 682 416 682 C339 682 269 653 215 605 L222 598 C274 644 342 672 416 672 C491 672 559 644 610 597 L610 597 Z M172 654 C237 713 322 749 416 749 C510 749 596 713 661 654 L668 662 C601 722 512 759 416 759 C320 759 232 723 165 662 L172 654 Z M516 290 C534 312 544 340 544 371 C544 402 534 430 516 453 L508 446 C524 425 534 399 534 371 C534 343 524 317 509 297 L516 290 Z " />
<glyph glyph-name="&amp;#x2126;" unicode="&#x2126;" horiz-adv-x="832" d="M126 120 C126 120 129 123 134 127 C79 193 46 278 46 371 C46 464 79 549 133 615 C129 619 126 621 126 621 C70 554 36 466 36 371 C36 275 70 187 126 120 L126 120 Z M228 211 C230 213 233 215 235 218 C201 259 181 313 181 371 C181 429 202 483 235 524 C232 526 230 529 227 531 C192 487 171 432 171 371 C171 310 193 254 228 211 L228 211 Z M264 243 C267 245 269 248 272 250 C245 283 229 325 229 371 C229 417 245 459 272 492 C269 494 267 497 264 499 C236 464 219 419 219 371 C219 322 236 278 264 243 L264 243 Z M316 289 C319 291 321 294 324 296 C308 317 298 343 298 371 C298 399 308 425 323 445 C321 448 318 450 316 452 C298 430 288 402 288 371 C288 340 298 312 316 289 L316 289 Z M349 320 C352 323 354 325 357 327 C348 340 343 355 343 371 C343 387 348 402 357 415 C354 417 352 420 349 422 C339 408 333 390 333 371 C333 352 339 334 349 320 L349 320 Z M378 346 C382 349 384 351 384 351 C381 357 379 364 379 371 C379 378 381 385 384 391 C384 391 382 393 378 396 C374 389 371 380 371 371 C371 362 374 353 378 346 L378 346 Z M416 60 C493 60 563 89 616 136 C614 139 611 141 609 144 C558 98 490 70 416 70 C342 70 274 98 222 144 C222 145 215 137 215 137 C268 89 338 60 416 60 L416 60 Z M416 324 C426 324 435 327 442 333 C439 337 437 339 437 339 C431 334 424 332 416 332 C408 332 401 335 395 339 C395 339 391 334 389 333 C397 327 406 324 416 324 L416 324 Z M482 319 C493 334 499 352 499 371 C499 390 493 408 482 422 C483 422 475 415 475 415 C484 403 489 388 489 371 C489 355 484 339 475 326 C478 324 480 322 482 319 L482 319 Z M292 269 C295 271 298 274 300 276 C280 302 267 335 267 371 C267 407 280 440 300 466 L293 473 C270 445 257 410 257 371 C257 333 270 297 292 269 L292 269 Z M416 -17 C512 -17 600 19 667 80 C667 80 660 88 660 87 C595 29 510 -7 416 -7 C322 -7 236 29 171 88 L164 80 C231 20 320 -17 416 -17 L416 -17 Z M416 121 C478 121 534 144 576 182 C574 185 571 187 569 190 C529 153 475 131 416 131 C357 131 303 153 262 190 L255 182 C298 144 354 121 416 121 L416 121 Z M416 170 C465 170 510 188 544 218 C542 221 539 223 537 226 C505 197 462 180 416 180 C369 180 327 197 294 226 L287 219 C322 189 367 170 416 170 L416 170 Z M416 209 C455 209 491 224 518 247 C516 250 514 253 512 255 C486 233 452 219 416 219 C380 219 346 233 320 255 L313 247 C341 224 377 209 416 209 L416 209 Z M416 265 C441 265 463 274 481 289 C479 292 476 294 474 297 C458 283 438 275 416 275 C394 275 373 283 357 297 L350 289 C368 274 391 265 416 265 L416 265 Z M358 445 C374 459 394 467 416 467 C438 467 458 459 474 445 L482 453 C464 468 441 477 416 477 C391 477 368 468 350 453 C351 452 354 448 358 445 L358 445 Z M570 552 C572 554 575 557 577 560 C534 598 478 621 416 621 C355 621 299 598 256 560 L263 553 C304 589 357 611 416 611 C475 611 529 589 570 552 L570 552 Z M454 346 C458 353 461 362 461 371 C461 380 458 389 454 396 L448 391 C451 385 453 378 453 371 C453 364 451 357 448 351 C448 351 450 349 454 346 L454 346 Z M468 333 C476 344 480 357 480 371 C480 385 476 398 468 409 L460 402 C466 393 470 382 470 371 C470 360 466 349 460 340 C463 338 465 336 468 333 L468 333 Z M498 306 C511 325 519 347 519 371 C519 395 511 418 497 436 L490 429 C502 413 509 393 509 371 C509 349 502 329 490 313 C492 311 495 308 498 306 L498 306 Z M540 269 C562 297 575 332 575 371 C575 410 562 445 539 473 L531 466 C552 440 565 407 565 371 C565 335 552 302 532 276 C535 274 537 271 540 269 L540 269 Z M568 243 C596 278 613 322 613 371 C613 420 596 464 568 499 L560 492 C587 459 603 417 603 371 C603 325 587 283 560 250 C563 248 566 245 568 243 L568 243 Z M604 211 C640 254 661 310 661 371 C661 432 640 488 604 531 L596 524 C631 483 651 429 651 371 C651 313 631 260 596 218 C601 213 604 211 604 211 L604 211 Z M649 171 C694 225 721 295 721 371 C721 447 694 517 649 571 L641 564 C685 512 711 445 711 371 C711 297 685 230 642 177 C644 175 647 173 649 171 L649 171 Z M706 120 C762 188 796 276 796 371 C796 467 762 555 706 622 L698 615 C753 549 786 464 786 371 C786 278 753 193 698 127 C703 123 706 120 706 120 L706 120 Z M183 170 L190 177 C147 229 121 297 121 371 C121 444 147 512 190 564 C187 567 184 569 182 571 C138 517 111 447 111 371 C111 294 138 225 183 170 L183 170 Z M334 306 L342 314 C330 330 323 350 323 371 C323 393 330 413 342 429 C340 431 337 434 334 436 C321 418 313 395 313 371 C313 346 321 324 334 306 L334 306 Z M364 333 L371 340 C366 349 362 360 362 371 C362 382 366 393 371 402 C369 404 366 406 364 409 C356 398 352 385 352 371 C352 357 356 344 364 333 L364 333 Z M395 403 C401 408 408 410 416 410 C424 410 431 407 437 403 C437 403 439 406 442 409 C435 415 426 418 416 418 C406 418 397 415 390 409 L395 403 Z M384 416 C393 423 404 428 416 428 C428 428 439 424 448 416 C450 419 452 421 454 423 C443 432 430 437 416 437 C401 437 388 432 377 423 L384 416 Z M371 430 C383 441 399 447 416 447 C433 447 449 441 461 430 C461 430 464 434 468 438 C454 450 436 457 416 457 C397 457 378 450 364 438 L371 430 Z M295 516 C327 545 370 562 416 562 C462 562 505 545 538 516 C538 516 545 523 544 523 C510 554 465 572 416 572 C367 572 322 554 288 524 L295 516 Z M416 240 C448 240 476 252 498 271 L491 278 C471 261 445 250 416 250 C388 250 361 261 340 278 L333 270 C355 251 384 240 416 240 L416 240 Z M416 285 C436 285 454 292 468 304 L461 312 C448 301 433 295 416 295 C399 295 383 302 370 312 L363 304 C378 292 396 285 416 285 L416 285 Z M416 305 C430 305 444 310 455 319 L448 326 C439 319 428 314 416 314 C404 314 393 319 383 326 L376 319 C388 310 401 305 416 305 L416 305 Z M341 464 C362 482 388 492 416 492 C445 492 471 481 491 464 L498 472 C476 491 447 502 416 502 C385 502 356 490 334 471 L341 464 Z M320 487 C346 509 380 523 416 523 C453 523 486 510 512 487 L518 494 C491 518 455 533 416 533 C377 533 341 519 313 495 L320 487 Z M610 597 L617 605 C563 653 493 682 416 682 C339 682 269 653 215 605 L222 598 C274 644 342 672 416 672 C491 672 559 644 610 597 L610 597 Z M172 654 C237 713 322 749 416 749 C510 749 596 713 661 654 L668 662 C601 722 512 759 416 759 C320 759 232 723 165 662 L172 654 Z M516 290 C534 312 544 340 544 371 C544 402 534 430 516 453 L508 446 C524 425 534 399 534 371 C534 343 524 317 509 297 L516 290 Z " />
<glyph glyph-name="pi" unicode="&#x3c0;" horiz-adv-x="502" d="M251 -8 C454 -8 478 116 478 371 C478 624 454 750 251 750 C50 750 26 624 26 371 C26 116 50 -8 251 -8 L251 -8 Z M251 34 C87 34 70 146 70 371 C70 596 86 707 251 707 C417 707 434 596 434 371 C434 146 417 34 251 34 L251 34 Z M141 126 L211 126 L211 305 L254 305 C360 305 386 348 386 457 C386 566 360 608 254 608 L141 608 L141 126 Z M211 365 L211 544 L253 544 C308 544 317 525 317 455 C317 385 308 365 254 365 L211 365 Z " />
<glyph glyph-name="endash" unicode="&#x2013;" horiz-adv-x="445" d="M13 273 L405 273 L418 370 L26 370 L13 273 Z " />
<glyph glyph-name="emdash" unicode="&#x2014;" horiz-adv-x="588" d="M13 273 L549 273 L562 370 L26 370 L13 273 Z " />
<glyph glyph-name="quoteleft" unicode="&#x2018;" horiz-adv-x="190" d="M54 482 L169 482 L189 619 L141 619 C146 656 152 665 199 693 L174 744 C95 705 81 673 73 614 L54 482 Z " />
<glyph glyph-name="quoteright" unicode="&#x2019;" horiz-adv-x="191" d="M85 479 C164 519 179 551 187 609 L206 741 L90 741 L71 604 L119 604 C114 567 108 558 62 531 L85 479 Z " />
<glyph glyph-name="quotesinglbase" unicode="&#x201a;" horiz-adv-x="191" d="M1 -125 C79 -86 94 -54 102 5 L121 137 L6 137 L-14 0 L34 0 C29 -37 23 -46 -23 -74 L1 -125 Z " />
<glyph glyph-name="quotedblleft" unicode="&#x201c;" horiz-adv-x="344" d="M54 484 L166 484 L185 620 L136 620 C141 657 149 666 195 693 L172 742 C95 703 80 666 73 614 L54 484 Z M210 484 L323 484 L342 620 L293 620 C298 657 305 666 352 693 L328 742 C251 703 236 666 228 614 L210 484 Z " />
<glyph glyph-name="quotedblright" unicode="&#x201d;" horiz-adv-x="344" d="M85 483 C162 523 177 559 185 612 L203 741 L90 741 L71 605 L121 605 C115 568 107 559 62 533 L85 483 Z M241 483 C319 523 333 559 341 612 L359 741 L247 741 L228 605 L277 605 C271 568 263 559 218 533 L241 483 Z " />
<glyph glyph-name="quotedblbase" unicode="&#x201e;" horiz-adv-x="344" d="M-1 -123 C77 -83 92 -47 99 6 L118 136 L6 136 L-14 0 L35 0 C30 -37 22 -46 -23 -74 L-1 -123 Z M156 -123 C234 -83 248 -47 256 6 L274 136 L162 136 L143 0 L191 0 C186 -37 179 -46 133 -74 L156 -123 Z " />
<glyph glyph-name="dagger" unicode="&#x2020;" horiz-adv-x="379" d="M66 -152 L166 -152 L251 449 L358 449 L372 546 L264 546 L294 763 L194 763 L163 546 L55 546 L42 449 L150 449 L66 -152 Z " />
<glyph glyph-name="daggerdbl" unicode="&#x2021;" horiz-adv-x="379" d="M66 -153 L166 -153 L197 67 L305 67 L319 164 L210 164 L251 449 L358 449 L372 546 L264 546 L294 763 L194 763 L163 546 L55 546 L42 449 L150 449 L110 164 L2 164 L-12 67 L96 67 L66 -153 Z " />
<glyph glyph-name="bullet" unicode="&#x2022;" horiz-adv-x="251" d="M35 209 L171 209 L198 399 L62 399 L35 209 Z " />
<glyph glyph-name="ellipsis" unicode="&#x2026;" horiz-adv-x="544" d="M-15 0 L100 0 L120 136 L4 136 L-15 0 Z M163 0 L278 0 L298 136 L182 136 L163 0 Z M339 0 L455 0 L474 136 L359 136 L339 0 Z " />
<glyph glyph-name="perthousand" unicode="&#x2030;" horiz-adv-x="1059" d="M157 276 C278 276 300 361 319 502 C326 550 331 590 331 618 C331 701 290 749 206 749 C84 749 63 664 43 521 C37 477 32 439 32 406 C32 326 67 276 157 276 L157 276 Z M161 356 C132 356 122 371 122 408 C122 433 126 468 133 515 C149 629 154 666 201 666 C230 666 239 651 239 615 C239 590 234 554 228 507 C212 393 206 356 161 356 L161 356 Z M542 -5 C663 -5 684 79 704 220 C711 270 716 309 716 337 C716 419 675 468 591 468 C469 468 447 383 427 240 C421 196 417 157 417 126 C417 45 452 -5 542 -5 L542 -5 Z M545 75 C517 75 507 90 507 127 C507 153 511 188 517 233 C534 348 539 385 585 385 C614 385 624 370 624 334 C624 308 619 274 612 227 C597 112 590 75 545 75 L545 75 Z M854 -5 C975 -5 996 79 1016 220 C1023 270 1028 309 1028 337 C1028 419 987 468 903 468 C781 468 759 383 739 240 C733 196 729 157 729 126 C729 45 764 -5 854 -5 L854 -5 Z M857 75 C829 75 818 90 818 127 C818 153 823 188 829 233 C846 348 851 385 897 385 C926 385 936 370 936 334 C936 308 931 274 924 227 C909 112 902 75 857 75 L857 75 Z M154 0 L242 0 L593 741 L505 741 L154 0 Z " />
<glyph glyph-name="guilsinglleft" unicode="&#x2039;" horiz-adv-x="297" d="M90 0 L183 0 L134 279 L262 559 L169 559 L35 279 L90 0 Z " />
<glyph glyph-name="guilsinglright" unicode="&#x203a;" horiz-adv-x="297" d="M10 0 L104 0 L236 279 L182 559 L89 559 L137 279 L10 0 Z " />
<glyph glyph-name="&amp;#x2044;" unicode="&#x2044;" horiz-adv-x="350" d="M-47 0 L45 0 L401 741 L309 741 L-47 0 Z " />
<glyph glyph-name="&amp;#x2215;" unicode="&#x2215;" horiz-adv-x="350" d="M-47 0 L45 0 L401 741 L309 741 L-47 0 Z " />
<glyph glyph-name="Euro" unicode="&#x20ac;" horiz-adv-x="414" d="M22 397 L90 397 C89 392 88 388 88 384 C86 373 85 362 83 352 L16 352 L4 265 L73 265 C69 230 67 199 67 174 C67 58 115 -5 233 -5 C272 -5 311 2 341 14 L312 99 C290 91 264 87 239 87 C187 87 169 115 169 180 C169 203 170 231 174 265 L304 265 L317 352 L186 352 C187 360 188 368 190 377 C191 384 192 390 193 397 L323 397 L335 483 L206 483 C227 614 245 652 304 652 C337 652 369 645 389 636 L430 726 C397 738 359 749 307 749 C179 749 136 665 103 483 L34 483 L22 397 Z " />
<glyph glyph-name="trademark" unicode="&#x2122;" horiz-adv-x="673" d="M277 263 L345 263 L389 577 L407 263 L457 263 L564 576 L520 263 L592 263 L659 741 L569 741 L455 415 L434 741 L344 741 L277 263 Z M92 263 L169 263 L226 670 L311 670 L321 741 L77 741 L67 670 L150 670 L92 263 Z " />
<glyph glyph-name="partialdiff" unicode="&#x2202;" horiz-adv-x="832" d="M126 120 C126 120 129 123 134 127 C79 193 46 278 46 371 C46 464 79 549 133 615 C129 619 126 621 126 621 C70 554 36 466 36 371 C36 275 70 187 126 120 L126 120 Z M228 211 C230 213 233 215 235 218 C201 259 181 313 181 371 C181 429 202 483 235 524 C232 526 230 529 227 531 C192 487 171 432 171 371 C171 310 193 254 228 211 L228 211 Z M264 243 C267 245 269 248 272 250 C245 283 229 325 229 371 C229 417 245 459 272 492 C269 494 267 497 264 499 C236 464 219 419 219 371 C219 322 236 278 264 243 L264 243 Z M316 289 C319 291 321 294 324 296 C308 317 298 343 298 371 C298 399 308 425 323 445 C321 448 318 450 316 452 C298 430 288 402 288 371 C288 340 298 312 316 289 L316 289 Z M349 320 C352 323 354 325 357 327 C348 340 343 355 343 371 C343 387 348 402 357 415 C354 417 352 420 349 422 C339 408 333 390 333 371 C333 352 339 334 349 320 L349 320 Z M378 346 C382 349 384 351 384 351 C381 357 379 364 379 371 C379 378 381 385 384 391 C384 391 382 393 378 396 C374 389 371 380 371 371 C371 362 374 353 378 346 L378 346 Z M416 60 C493 60 563 89 616 136 C614 139 611 141 609 144 C558 98 490 70 416 70 C342 70 274 98 222 144 C222 145 215 137 215 137 C268 89 338 60 416 60 L416 60 Z M416 324 C426 324 435 327 442 333 C439 337 437 339 437 339 C431 334 424 332 416 332 C408 332 401 335 395 339 C395 339 391 334 389 333 C397 327 406 324 416 324 L416 324 Z M482 319 C493 334 499 352 499 371 C499 390 493 408 482 422 C483 422 475 415 475 415 C484 403 489 388 489 371 C489 355 484 339 475 326 C478 324 480 322 482 319 L482 319 Z M292 269 C295 271 298 274 300 276 C280 302 267 335 267 371 C267 407 280 440 300 466 L293 473 C270 445 257 410 257 371 C257 333 270 297 292 269 L292 269 Z M416 -17 C512 -17 600 19 667 80 C667 80 660 88 660 87 C595 29 510 -7 416 -7 C322 -7 236 29 171 88 L164 80 C231 20 320 -17 416 -17 L416 -17 Z M416 121 C478 121 534 144 576 182 C574 185 571 187 569 190 C529 153 475 131 416 131 C357 131 303 153 262 190 L255 182 C298 144 354 121 416 121 L416 121 Z M416 170 C465 170 510 188 544 218 C542 221 539 223 537 226 C505 197 462 180 416 180 C369 180 327 197 294 226 L287 219 C322 189 367 170 416 170 L416 170 Z M416 209 C455 209 491 224 518 247 C516 250 514 253 512 255 C486 233 452 219 416 219 C380 219 346 233 320 255 L313 247 C341 224 377 209 416 209 L416 209 Z M416 265 C441 265 463 274 481 289 C479 292 476 294 474 297 C458 283 438 275 416 275 C394 275 373 283 357 297 L350 289 C368 274 391 265 416 265 L416 265 Z M358 445 C374 459 394 467 416 467 C438 467 458 459 474 445 L482 453 C464 468 441 477 416 477 C391 477 368 468 350 453 C351 452 354 448 358 445 L358 445 Z M570 552 C572 554 575 557 577 560 C534 598 478 621 416 621 C355 621 299 598 256 560 L263 553 C304 589 357 611 416 611 C475 611 529 589 570 552 L570 552 Z M454 346 C458 353 461 362 461 371 C461 380 458 389 454 396 L448 391 C451 385 453 378 453 371 C453 364 451 357 448 351 C448 351 450 349 454 346 L454 346 Z M468 333 C476 344 480 357 480 371 C480 385 476 398 468 409 L460 402 C466 393 470 382 470 371 C470 360 466 349 460 340 C463 338 465 336 468 333 L468 333 Z M498 306 C511 325 519 347 519 371 C519 395 511 418 497 436 L490 429 C502 413 509 393 509 371 C509 349 502 329 490 313 C492 311 495 308 498 306 L498 306 Z M540 269 C562 297 575 332 575 371 C575 410 562 445 539 473 L531 466 C552 440 565 407 565 371 C565 335 552 302 532 276 C535 274 537 271 540 269 L540 269 Z M568 243 C596 278 613 322 613 371 C613 420 596 464 568 499 L560 492 C587 459 603 417 603 371 C603 325 587 283 560 250 C563 248 566 245 568 243 L568 243 Z M604 211 C640 254 661 310 661 371 C661 432 640 488 604 531 L596 524 C631 483 651 429 651 371 C651 313 631 260 596 218 C601 213 604 211 604 211 L604 211 Z M649 171 C694 225 721 295 721 371 C721 447 694 517 649 571 L641 564 C685 512 711 445 711 371 C711 297 685 230 642 177 C644 175 647 173 649 171 L649 171 Z M706 120 C762 188 796 276 796 371 C796 467 762 555 706 622 L698 615 C753 549 786 464 786 371 C786 278 753 193 698 127 C703 123 706 120 706 120 L706 120 Z M183 170 L190 177 C147 229 121 297 121 371 C121 444 147 512 190 564 C187 567 184 569 182 571 C138 517 111 447 111 371 C111 294 138 225 183 170 L183 170 Z M334 306 L342 314 C330 330 323 350 323 371 C323 393 330 413 342 429 C340 431 337 434 334 436 C321 418 313 395 313 371 C313 346 321 324 334 306 L334 306 Z M364 333 L371 340 C366 349 362 360 362 371 C362 382 366 393 371 402 C369 404 366 406 364 409 C356 398 352 385 352 371 C352 357 356 344 364 333 L364 333 Z M395 403 C401 408 408 410 416 410 C424 410 431 407 437 403 C437 403 439 406 442 409 C435 415 426 418 416 418 C406 418 397 415 390 409 L395 403 Z M384 416 C393 423 404 428 416 428 C428 428 439 424 448 416 C450 419 452 421 454 423 C443 432 430 437 416 437 C401 437 388 432 377 423 L384 416 Z M371 430 C383 441 399 447 416 447 C433 447 449 441 461 430 C461 430 464 434 468 438 C454 450 436 457 416 457 C397 457 378 450 364 438 L371 430 Z M295 516 C327 545 370 562 416 562 C462 562 505 545 538 516 C538 516 545 523 544 523 C510 554 465 572 416 572 C367 572 322 554 288 524 L295 516 Z M416 240 C448 240 476 252 498 271 L491 278 C471 261 445 250 416 250 C388 250 361 261 340 278 L333 270 C355 251 384 240 416 240 L416 240 Z M416 285 C436 285 454 292 468 304 L461 312 C448 301 433 295 416 295 C399 295 383 302 370 312 L363 304 C378 292 396 285 416 285 L416 285 Z M416 305 C430 305 444 310 455 319 L448 326 C439 319 428 314 416 314 C404 314 393 319 383 326 L376 319 C388 310 401 305 416 305 L416 305 Z M341 464 C362 482 388 492 416 492 C445 492 471 481 491 464 L498 472 C476 491 447 502 416 502 C385 502 356 490 334 471 L341 464 Z M320 487 C346 509 380 523 416 523 C453 523 486 510 512 487 L518 494 C491 518 455 533 416 533 C377 533 341 519 313 495 L320 487 Z M610 597 L617 605 C563 653 493 682 416 682 C339 682 269 653 215 605 L222 598 C274 644 342 672 416 672 C491 672 559 644 610 597 L610 597 Z M172 654 C237 713 322 749 416 749 C510 749 596 713 661 654 L668 662 C601 722 512 759 416 759 C320 759 232 723 165 662 L172 654 Z M516 290 C534 312 544 340 544 371 C544 402 534 430 516 453 L508 446 C524 425 534 399 534 371 C534 343 524 317 509 297 L516 290 Z " />
<glyph glyph-name="product" unicode="&#x220f;" horiz-adv-x="832" d="M126 120 C126 120 129 123 134 127 C79 193 46 278 46 371 C46 464 79 549 133 615 C129 619 126 621 126 621 C70 554 36 466 36 371 C36 275 70 187 126 120 L126 120 Z M228 211 C230 213 233 215 235 218 C201 259 181 313 181 371 C181 429 202 483 235 524 C232 526 230 529 227 531 C192 487 171 432 171 371 C171 310 193 254 228 211 L228 211 Z M264 243 C267 245 269 248 272 250 C245 283 229 325 229 371 C229 417 245 459 272 492 C269 494 267 497 264 499 C236 464 219 419 219 371 C219 322 236 278 264 243 L264 243 Z M316 289 C319 291 321 294 324 296 C308 317 298 343 298 371 C298 399 308 425 323 445 C321 448 318 450 316 452 C298 430 288 402 288 371 C288 340 298 312 316 289 L316 289 Z M349 320 C352 323 354 325 357 327 C348 340 343 355 343 371 C343 387 348 402 357 415 C354 417 352 420 349 422 C339 408 333 390 333 371 C333 352 339 334 349 320 L349 320 Z M378 346 C382 349 384 351 384 351 C381 357 379 364 379 371 C379 378 381 385 384 391 C384 391 382 393 378 396 C374 389 371 380 371 371 C371 362 374 353 378 346 L378 346 Z M416 60 C493 60 563 89 616 136 C614 139 611 141 609 144 C558 98 490 70 416 70 C342 70 274 98 222 144 C222 145 215 137 215 137 C268 89 338 60 416 60 L416 60 Z M416 324 C426 324 435 327 442 333 C439 337 437 339 437 339 C431 334 424 332 416 332 C408 332 401 335 395 339 C395 339 391 334 389 333 C397 327 406 324 416 324 L416 324 Z M482 319 C493 334 499 352 499 371 C499 390 493 408 482 422 C483 422 475 415 475 415 C484 403 489 388 489 371 C489 355 484 339 475 326 C478 324 480 322 482 319 L482 319 Z M292 269 C295 271 298 274 300 276 C280 302 267 335 267 371 C267 407 280 440 300 466 L293 473 C270 445 257 410 257 371 C257 333 270 297 292 269 L292 269 Z M416 -17 C512 -17 600 19 667 80 C667 80 660 88 660 87 C595 29 510 -7 416 -7 C322 -7 236 29 171 88 L164 80 C231 20 320 -17 416 -17 L416 -17 Z M416 121 C478 121 534 144 576 182 C574 185 571 187 569 190 C529 153 475 131 416 131 C357 131 303 153 262 190 L255 182 C298 144 354 121 416 121 L416 121 Z M416 170 C465 170 510 188 544 218 C542 221 539 223 537 226 C505 197 462 180 416 180 C369 180 327 197 294 226 L287 219 C322 189 367 170 416 170 L416 170 Z M416 209 C455 209 491 224 518 247 C516 250 514 253 512 255 C486 233 452 219 416 219 C380 219 346 233 320 255 L313 247 C341 224 377 209 416 209 L416 209 Z M416 265 C441 265 463 274 481 289 C479 292 476 294 474 297 C458 283 438 275 416 275 C394 275 373 283 357 297 L350 289 C368 274 391 265 416 265 L416 265 Z M358 445 C374 459 394 467 416 467 C438 467 458 459 474 445 L482 453 C464 468 441 477 416 477 C391 477 368 468 350 453 C351 452 354 448 358 445 L358 445 Z M570 552 C572 554 575 557 577 560 C534 598 478 621 416 621 C355 621 299 598 256 560 L263 553 C304 589 357 611 416 611 C475 611 529 589 570 552 L570 552 Z M454 346 C458 353 461 362 461 371 C461 380 458 389 454 396 L448 391 C451 385 453 378 453 371 C453 364 451 357 448 351 C448 351 450 349 454 346 L454 346 Z M468 333 C476 344 480 357 480 371 C480 385 476 398 468 409 L460 402 C466 393 470 382 470 371 C470 360 466 349 460 340 C463 338 465 336 468 333 L468 333 Z M498 306 C511 325 519 347 519 371 C519 395 511 418 497 436 L490 429 C502 413 509 393 509 371 C509 349 502 329 490 313 C492 311 495 308 498 306 L498 306 Z M540 269 C562 297 575 332 575 371 C575 410 562 445 539 473 L531 466 C552 440 565 407 565 371 C565 335 552 302 532 276 C535 274 537 271 540 269 L540 269 Z M568 243 C596 278 613 322 613 371 C613 420 596 464 568 499 L560 492 C587 459 603 417 603 371 C603 325 587 283 560 250 C563 248 566 245 568 243 L568 243 Z M604 211 C640 254 661 310 661 371 C661 432 640 488 604 531 L596 524 C631 483 651 429 651 371 C651 313 631 260 596 218 C601 213 604 211 604 211 L604 211 Z M649 171 C694 225 721 295 721 371 C721 447 694 517 649 571 L641 564 C685 512 711 445 711 371 C711 297 685 230 642 177 C644 175 647 173 649 171 L649 171 Z M706 120 C762 188 796 276 796 371 C796 467 762 555 706 622 L698 615 C753 549 786 464 786 371 C786 278 753 193 698 127 C703 123 706 120 706 120 L706 120 Z M183 170 L190 177 C147 229 121 297 121 371 C121 444 147 512 190 564 C187 567 184 569 182 571 C138 517 111 447 111 371 C111 294 138 225 183 170 L183 170 Z M334 306 L342 314 C330 330 323 350 323 371 C323 393 330 413 342 429 C340 431 337 434 334 436 C321 418 313 395 313 371 C313 346 321 324 334 306 L334 306 Z M364 333 L371 340 C366 349 362 360 362 371 C362 382 366 393 371 402 C369 404 366 406 364 409 C356 398 352 385 352 371 C352 357 356 344 364 333 L364 333 Z M395 403 C401 408 408 410 416 410 C424 410 431 407 437 403 C437 403 439 406 442 409 C435 415 426 418 416 418 C406 418 397 415 390 409 L395 403 Z M384 416 C393 423 404 428 416 428 C428 428 439 424 448 416 C450 419 452 421 454 423 C443 432 430 437 416 437 C401 437 388 432 377 423 L384 416 Z M371 430 C383 441 399 447 416 447 C433 447 449 441 461 430 C461 430 464 434 468 438 C454 450 436 457 416 457 C397 457 378 450 364 438 L371 430 Z M295 516 C327 545 370 562 416 562 C462 562 505 545 538 516 C538 516 545 523 544 523 C510 554 465 572 416 572 C367 572 322 554 288 524 L295 516 Z M416 240 C448 240 476 252 498 271 L491 278 C471 261 445 250 416 250 C388 250 361 261 340 278 L333 270 C355 251 384 240 416 240 L416 240 Z M416 285 C436 285 454 292 468 304 L461 312 C448 301 433 295 416 295 C399 295 383 302 370 312 L363 304 C378 292 396 285 416 285 L416 285 Z M416 305 C430 305 444 310 455 319 L448 326 C439 319 428 314 416 314 C404 314 393 319 383 326 L376 319 C388 310 401 305 416 305 L416 305 Z M341 464 C362 482 388 492 416 492 C445 492 471 481 491 464 L498 472 C476 491 447 502 416 502 C385 502 356 490 334 471 L341 464 Z M320 487 C346 509 380 523 416 523 C453 523 486 510 512 487 L518 494 C491 518 455 533 416 533 C377 533 341 519 313 495 L320 487 Z M610 597 L617 605 C563 653 493 682 416 682 C339 682 269 653 215 605 L222 598 C274 644 342 672 416 672 C491 672 559 644 610 597 L610 597 Z M172 654 C237 713 322 749 416 749 C510 749 596 713 661 654 L668 662 C601 722 512 759 416 759 C320 759 232 723 165 662 L172 654 Z M516 290 C534 312 544 340 544 371 C544 402 534 430 516 453 L508 446 C524 425 534 399 534 371 C534 343 524 317 509 297 L516 290 Z " />
<glyph glyph-name="summation" unicode="&#x2211;" horiz-adv-x="832" d="M126 120 C126 120 129 123 134 127 C79 193 46 278 46 371 C46 464 79 549 133 615 C129 619 126 621 126 621 C70 554 36 466 36 371 C36 275 70 187 126 120 L126 120 Z M228 211 C230 213 233 215 235 218 C201 259 181 313 181 371 C181 429 202 483 235 524 C232 526 230 529 227 531 C192 487 171 432 171 371 C171 310 193 254 228 211 L228 211 Z M264 243 C267 245 269 248 272 250 C245 283 229 325 229 371 C229 417 245 459 272 492 C269 494 267 497 264 499 C236 464 219 419 219 371 C219 322 236 278 264 243 L264 243 Z M316 289 C319 291 321 294 324 296 C308 317 298 343 298 371 C298 399 308 425 323 445 C321 448 318 450 316 452 C298 430 288 402 288 371 C288 340 298 312 316 289 L316 289 Z M349 320 C352 323 354 325 357 327 C348 340 343 355 343 371 C343 387 348 402 357 415 C354 417 352 420 349 422 C339 408 333 390 333 371 C333 352 339 334 349 320 L349 320 Z M378 346 C382 349 384 351 384 351 C381 357 379 364 379 371 C379 378 381 385 384 391 C384 391 382 393 378 396 C374 389 371 380 371 371 C371 362 374 353 378 346 L378 346 Z M416 60 C493 60 563 89 616 136 C614 139 611 141 609 144 C558 98 490 70 416 70 C342 70 274 98 222 144 C222 145 215 137 215 137 C268 89 338 60 416 60 L416 60 Z M416 324 C426 324 435 327 442 333 C439 337 437 339 437 339 C431 334 424 332 416 332 C408 332 401 335 395 339 C395 339 391 334 389 333 C397 327 406 324 416 324 L416 324 Z M482 319 C493 334 499 352 499 371 C499 390 493 408 482 422 C483 422 475 415 475 415 C484 403 489 388 489 371 C489 355 484 339 475 326 C478 324 480 322 482 319 L482 319 Z M292 269 C295 271 298 274 300 276 C280 302 267 335 267 371 C267 407 280 440 300 466 L293 473 C270 445 257 410 257 371 C257 333 270 297 292 269 L292 269 Z M416 -17 C512 -17 600 19 667 80 C667 80 660 88 660 87 C595 29 510 -7 416 -7 C322 -7 236 29 171 88 L164 80 C231 20 320 -17 416 -17 L416 -17 Z M416 121 C478 121 534 144 576 182 C574 185 571 187 569 190 C529 153 475 131 416 131 C357 131 303 153 262 190 L255 182 C298 144 354 121 416 121 L416 121 Z M416 170 C465 170 510 188 544 218 C542 221 539 223 537 226 C505 197 462 180 416 180 C369 180 327 197 294 226 L287 219 C322 189 367 170 416 170 L416 170 Z M416 209 C455 209 491 224 518 247 C516 250 514 253 512 255 C486 233 452 219 416 219 C380 219 346 233 320 255 L313 247 C341 224 377 209 416 209 L416 209 Z M416 265 C441 265 463 274 481 289 C479 292 476 294 474 297 C458 283 438 275 416 275 C394 275 373 283 357 297 L350 289 C368 274 391 265 416 265 L416 265 Z M358 445 C374 459 394 467 416 467 C438 467 458 459 474 445 L482 453 C464 468 441 477 416 477 C391 477 368 468 350 453 C351 452 354 448 358 445 L358 445 Z M570 552 C572 554 575 557 577 560 C534 598 478 621 416 621 C355 621 299 598 256 560 L263 553 C304 589 357 611 416 611 C475 611 529 589 570 552 L570 552 Z M454 346 C458 353 461 362 461 371 C461 380 458 389 454 396 L448 391 C451 385 453 378 453 371 C453 364 451 357 448 351 C448 351 450 349 454 346 L454 346 Z M468 333 C476 344 480 357 480 371 C480 385 476 398 468 409 L460 402 C466 393 470 382 470 371 C470 360 466 349 460 340 C463 338 465 336 468 333 L468 333 Z M498 306 C511 325 519 347 519 371 C519 395 511 418 497 436 L490 429 C502 413 509 393 509 371 C509 349 502 329 490 313 C492 311 495 308 498 306 L498 306 Z M540 269 C562 297 575 332 575 371 C575 410 562 445 539 473 L531 466 C552 440 565 407 565 371 C565 335 552 302 532 276 C535 274 537 271 540 269 L540 269 Z M568 243 C596 278 613 322 613 371 C613 420 596 464 568 499 L560 492 C587 459 603 417 603 371 C603 325 587 283 560 250 C563 248 566 245 568 243 L568 243 Z M604 211 C640 254 661 310 661 371 C661 432 640 488 604 531 L596 524 C631 483 651 429 651 371 C651 313 631 260 596 218 C601 213 604 211 604 211 L604 211 Z M649 171 C694 225 721 295 721 371 C721 447 694 517 649 571 L641 564 C685 512 711 445 711 371 C711 297 685 230 642 177 C644 175 647 173 649 171 L649 171 Z M706 120 C762 188 796 276 796 371 C796 467 762 555 706 622 L698 615 C753 549 786 464 786 371 C786 278 753 193 698 127 C703 123 706 120 706 120 L706 120 Z M183 170 L190 177 C147 229 121 297 121 371 C121 444 147 512 190 564 C187 567 184 569 182 571 C138 517 111 447 111 371 C111 294 138 225 183 170 L183 170 Z M334 306 L342 314 C330 330 323 350 323 371 C323 393 330 413 342 429 C340 431 337 434 334 436 C321 418 313 395 313 371 C313 346 321 324 334 306 L334 306 Z M364 333 L371 340 C366 349 362 360 362 371 C362 382 366 393 371 402 C369 404 366 406 364 409 C356 398 352 385 352 371 C352 357 356 344 364 333 L364 333 Z M395 403 C401 408 408 410 416 410 C424 410 431 407 437 403 C437 403 439 406 442 409 C435 415 426 418 416 418 C406 418 397 415 390 409 L395 403 Z M384 416 C393 423 404 428 416 428 C428 428 439 424 448 416 C450 419 452 421 454 423 C443 432 430 437 416 437 C401 437 388 432 377 423 L384 416 Z M371 430 C383 441 399 447 416 447 C433 447 449 441 461 430 C461 430 464 434 468 438 C454 450 436 457 416 457 C397 457 378 450 364 438 L371 430 Z M295 516 C327 545 370 562 416 562 C462 562 505 545 538 516 C538 516 545 523 544 523 C510 554 465 572 416 572 C367 572 322 554 288 524 L295 516 Z M416 240 C448 240 476 252 498 271 L491 278 C471 261 445 250 416 250 C388 250 361 261 340 278 L333 270 C355 251 384 240 416 240 L416 240 Z M416 285 C436 285 454 292 468 304 L461 312 C448 301 433 295 416 295 C399 295 383 302 370 312 L363 304 C378 292 396 285 416 285 L416 285 Z M416 305 C430 305 444 310 455 319 L448 326 C439 319 428 314 416 314 C404 314 393 319 383 326 L376 319 C388 310 401 305 416 305 L416 305 Z M341 464 C362 482 388 492 416 492 C445 492 471 481 491 464 L498 472 C476 491 447 502 416 502 C385 502 356 490 334 471 L341 464 Z M320 487 C346 509 380 523 416 523 C453 523 486 510 512 487 L518 494 C491 518 455 533 416 533 C377 533 341 519 313 495 L320 487 Z M610 597 L617 605 C563 653 493 682 416 682 C339 682 269 653 215 605 L222 598 C274 644 342 672 416 672 C491 672 559 644 610 597 L610 597 Z M172 654 C237 713 322 749 416 749 C510 749 596 713 661 654 L668 662 C601 722 512 759 416 759 C320 759 232 723 165 662 L172 654 Z M516 290 C534 312 544 340 544 371 C544 402 534 430 516 453 L508 446 C524 425 534 399 534 371 C534 343 524 317 509 297 L516 290 Z " />
<glyph glyph-name="minus" unicode="&#x2212;" horiz-adv-x="452" d="M52 318 L384 318 L398 414 L66 414 L52 318 Z " />
<glyph glyph-name="radical" unicode="&#x221a;" horiz-adv-x="429" d="M80 -4 L184 -4 L467 741 L368 741 L156 148 L138 428 L33 428 L80 -4 Z " />
<glyph glyph-name="infinity" unicode="&#x221e;" horiz-adv-x="648" d="M219 -152 L319 -152 L406 468 L475 468 L487 559 L419 559 L427 616 C434 663 444 674 484 674 L503 674 L516 763 C511 764 493 764 489 764 C383 764 342 727 329 631 L319 559 L206 559 L214 616 C220 663 231 674 270 674 L294 674 L306 763 C302 764 285 764 275 764 C170 764 128 727 115 631 L105 559 L38 559 L25 468 L92 468 L6 -152 L106 -152 L193 468 L306 468 L219 -152 Z M453 0 L554 0 L633 559 L531 559 L453 0 Z M540 621 L641 621 L657 739 L556 739 L540 621 Z " />
<glyph glyph-name="integral" unicode="&#x222b;" horiz-adv-x="832" d="M126 120 C126 120 129 123 134 127 C79 193 46 278 46 371 C46 464 79 549 133 615 C129 619 126 621 126 621 C70 554 36 466 36 371 C36 275 70 187 126 120 L126 120 Z M228 211 C230 213 233 215 235 218 C201 259 181 313 181 371 C181 429 202 483 235 524 C232 526 230 529 227 531 C192 487 171 432 171 371 C171 310 193 254 228 211 L228 211 Z M264 243 C267 245 269 248 272 250 C245 283 229 325 229 371 C229 417 245 459 272 492 C269 494 267 497 264 499 C236 464 219 419 219 371 C219 322 236 278 264 243 L264 243 Z M316 289 C319 291 321 294 324 296 C308 317 298 343 298 371 C298 399 308 425 323 445 C321 448 318 450 316 452 C298 430 288 402 288 371 C288 340 298 312 316 289 L316 289 Z M349 320 C352 323 354 325 357 327 C348 340 343 355 343 371 C343 387 348 402 357 415 C354 417 352 420 349 422 C339 408 333 390 333 371 C333 352 339 334 349 320 L349 320 Z M378 346 C382 349 384 351 384 351 C381 357 379 364 379 371 C379 378 381 385 384 391 C384 391 382 393 378 396 C374 389 371 380 371 371 C371 362 374 353 378 346 L378 346 Z M416 60 C493 60 563 89 616 136 C614 139 611 141 609 144 C558 98 490 70 416 70 C342 70 274 98 222 144 C222 145 215 137 215 137 C268 89 338 60 416 60 L416 60 Z M416 324 C426 324 435 327 442 333 C439 337 437 339 437 339 C431 334 424 332 416 332 C408 332 401 335 395 339 C395 339 391 334 389 333 C397 327 406 324 416 324 L416 324 Z M482 319 C493 334 499 352 499 371 C499 390 493 408 482 422 C483 422 475 415 475 415 C484 403 489 388 489 371 C489 355 484 339 475 326 C478 324 480 322 482 319 L482 319 Z M292 269 C295 271 298 274 300 276 C280 302 267 335 267 371 C267 407 280 440 300 466 L293 473 C270 445 257 410 257 371 C257 333 270 297 292 269 L292 269 Z M416 -17 C512 -17 600 19 667 80 C667 80 660 88 660 87 C595 29 510 -7 416 -7 C322 -7 236 29 171 88 L164 80 C231 20 320 -17 416 -17 L416 -17 Z M416 121 C478 121 534 144 576 182 C574 185 571 187 569 190 C529 153 475 131 416 131 C357 131 303 153 262 190 L255 182 C298 144 354 121 416 121 L416 121 Z M416 170 C465 170 510 188 544 218 C542 221 539 223 537 226 C505 197 462 180 416 180 C369 180 327 197 294 226 L287 219 C322 189 367 170 416 170 L416 170 Z M416 209 C455 209 491 224 518 247 C516 250 514 253 512 255 C486 233 452 219 416 219 C380 219 346 233 320 255 L313 247 C341 224 377 209 416 209 L416 209 Z M416 265 C441 265 463 274 481 289 C479 292 476 294 474 297 C458 283 438 275 416 275 C394 275 373 283 357 297 L350 289 C368 274 391 265 416 265 L416 265 Z M358 445 C374 459 394 467 416 467 C438 467 458 459 474 445 L482 453 C464 468 441 477 416 477 C391 477 368 468 350 453 C351 452 354 448 358 445 L358 445 Z M570 552 C572 554 575 557 577 560 C534 598 478 621 416 621 C355 621 299 598 256 560 L263 553 C304 589 357 611 416 611 C475 611 529 589 570 552 L570 552 Z M454 346 C458 353 461 362 461 371 C461 380 458 389 454 396 L448 391 C451 385 453 378 453 371 C453 364 451 357 448 351 C448 351 450 349 454 346 L454 346 Z M468 333 C476 344 480 357 480 371 C480 385 476 398 468 409 L460 402 C466 393 470 382 470 371 C470 360 466 349 460 340 C463 338 465 336 468 333 L468 333 Z M498 306 C511 325 519 347 519 371 C519 395 511 418 497 436 L490 429 C502 413 509 393 509 371 C509 349 502 329 490 313 C492 311 495 308 498 306 L498 306 Z M540 269 C562 297 575 332 575 371 C575 410 562 445 539 473 L531 466 C552 440 565 407 565 371 C565 335 552 302 532 276 C535 274 537 271 540 269 L540 269 Z M568 243 C596 278 613 322 613 371 C613 420 596 464 568 499 L560 492 C587 459 603 417 603 371 C603 325 587 283 560 250 C563 248 566 245 568 243 L568 243 Z M604 211 C640 254 661 310 661 371 C661 432 640 488 604 531 L596 524 C631 483 651 429 651 371 C651 313 631 260 596 218 C601 213 604 211 604 211 L604 211 Z M649 171 C694 225 721 295 721 371 C721 447 694 517 649 571 L641 564 C685 512 711 445 711 371 C711 297 685 230 642 177 C644 175 647 173 649 171 L649 171 Z M706 120 C762 188 796 276 796 371 C796 467 762 555 706 622 L698 615 C753 549 786 464 786 371 C786 278 753 193 698 127 C703 123 706 120 706 120 L706 120 Z M183 170 L190 177 C147 229 121 297 121 371 C121 444 147 512 190 564 C187 567 184 569 182 571 C138 517 111 447 111 371 C111 294 138 225 183 170 L183 170 Z M334 306 L342 314 C330 330 323 350 323 371 C323 393 330 413 342 429 C340 431 337 434 334 436 C321 418 313 395 313 371 C313 346 321 324 334 306 L334 306 Z M364 333 L371 340 C366 349 362 360 362 371 C362 382 366 393 371 402 C369 404 366 406 364 409 C356 398 352 385 352 371 C352 357 356 344 364 333 L364 333 Z M395 403 C401 408 408 410 416 410 C424 410 431 407 437 403 C437 403 439 406 442 409 C435 415 426 418 416 418 C406 418 397 415 390 409 L395 403 Z M384 416 C393 423 404 428 416 428 C428 428 439 424 448 416 C450 419 452 421 454 423 C443 432 430 437 416 437 C401 437 388 432 377 423 L384 416 Z M371 430 C383 441 399 447 416 447 C433 447 449 441 461 430 C461 430 464 434 468 438 C454 450 436 457 416 457 C397 457 378 450 364 438 L371 430 Z M295 516 C327 545 370 562 416 562 C462 562 505 545 538 516 C538 516 545 523 544 523 C510 554 465 572 416 572 C367 572 322 554 288 524 L295 516 Z M416 240 C448 240 476 252 498 271 L491 278 C471 261 445 250 416 250 C388 250 361 261 340 278 L333 270 C355 251 384 240 416 240 L416 240 Z M416 285 C436 285 454 292 468 304 L461 312 C448 301 433 295 416 295 C399 295 383 302 370 312 L363 304 C378 292 396 285 416 285 L416 285 Z M416 305 C430 305 444 310 455 319 L448 326 C439 319 428 314 416 314 C404 314 393 319 383 326 L376 319 C388 310 401 305 416 305 L416 305 Z M341 464 C362 482 388 492 416 492 C445 492 471 481 491 464 L498 472 C476 491 447 502 416 502 C385 502 356 490 334 471 L341 464 Z M320 487 C346 509 380 523 416 523 C453 523 486 510 512 487 L518 494 C491 518 455 533 416 533 C377 533 341 519 313 495 L320 487 Z M610 597 L617 605 C563 653 493 682 416 682 C339 682 269 653 215 605 L222 598 C274 644 342 672 416 672 C491 672 559 644 610 597 L610 597 Z M172 654 C237 713 322 749 416 749 C510 749 596 713 661 654 L668 662 C601 722 512 759 416 759 C320 759 232 723 165 662 L172 654 Z M516 290 C534 312 544 340 544 371 C544 402 534 430 516 453 L508 446 C524 425 534 399 534 371 C534 343 524 317 509 297 L516 290 Z " />
<glyph glyph-name="approxequal" unicode="&#x2248;" horiz-adv-x="452" d="M113 385 C131 416 146 428 165 428 C202 428 266 387 319 387 C351 387 385 413 415 477 L361 524 C342 491 325 478 308 478 C271 478 207 518 156 518 C121 518 88 493 58 431 L113 385 Z M84 176 C102 207 117 219 136 219 C174 219 238 179 290 179 C323 179 357 205 387 269 L332 315 C313 282 297 269 279 269 C242 269 178 310 128 310 C93 310 59 284 29 221 L84 176 Z " />
<glyph glyph-name="notequal" unicode="&#x2260;" horiz-adv-x="492" d="M219 -152 L319 -152 L406 468 L500 468 L512 559 L418 559 L426 612 C433 660 444 671 494 672 L528 672 L540 763 C536 764 514 764 493 764 C382 764 342 727 329 631 L319 559 L206 559 L214 616 C220 663 231 674 270 674 L294 674 L306 763 C302 764 285 764 275 764 C170 764 128 727 115 631 L105 559 L38 559 L25 468 L92 468 L6 -152 L106 -152 L193 468 L306 468 L219 -152 Z " />
<glyph glyph-name="lessequal" unicode="&#x2264;" horiz-adv-x="452" d="M323 152 L338 255 L179 367 L369 479 L383 582 L82 403 L72 331 L323 152 Z M27 11 L303 11 L317 107 L40 107 L27 11 Z " />
<glyph glyph-name="greaterequal" unicode="&#x2265;" horiz-adv-x="452" d="M68 152 L369 331 L379 403 L129 582 L114 479 L273 368 L83 256 L68 152 Z M48 11 L324 11 L338 107 L61 107 L48 11 Z " />
<glyph glyph-name="lozenge" unicode="&#x25ca;" horiz-adv-x="504" d="M376 -1 C390 -1 415 -1 427 0 L440 93 L400 93 C352 93 349 110 355 150 L399 468 L493 468 L505 559 L412 559 L432 700 L347 679 L315 559 L206 559 L214 616 C220 663 231 674 270 674 L294 674 L306 763 C302 764 285 764 275 764 C170 764 128 727 115 631 L105 559 L38 559 L25 468 L92 468 L6 -152 L106 -152 L193 468 L299 468 L254 148 C239 42 260 -1 376 -1 L376 -1 Z " />
<glyph glyph-name="apple" unicode="&#xf8ff;" horiz-adv-x="832" d="M126 120 C126 120 129 123 134 127 C79 193 46 278 46 371 C46 464 79 549 133 615 C129 619 126 621 126 621 C70 554 36 466 36 371 C36 275 70 187 126 120 L126 120 Z M228 211 C230 213 233 215 235 218 C201 259 181 313 181 371 C181 429 202 483 235 524 C232 526 230 529 227 531 C192 487 171 432 171 371 C171 310 193 254 228 211 L228 211 Z M264 243 C267 245 269 248 272 250 C245 283 229 325 229 371 C229 417 245 459 272 492 C269 494 267 497 264 499 C236 464 219 419 219 371 C219 322 236 278 264 243 L264 243 Z M316 289 C319 291 321 294 324 296 C308 317 298 343 298 371 C298 399 308 425 323 445 C321 448 318 450 316 452 C298 430 288 402 288 371 C288 340 298 312 316 289 L316 289 Z M349 320 C352 323 354 325 357 327 C348 340 343 355 343 371 C343 387 348 402 357 415 C354 417 352 420 349 422 C339 408 333 390 333 371 C333 352 339 334 349 320 L349 320 Z M378 346 C382 349 384 351 384 351 C381 357 379 364 379 371 C379 378 381 385 384 391 C384 391 382 393 378 396 C374 389 371 380 371 371 C371 362 374 353 378 346 L378 346 Z M416 60 C493 60 563 89 616 136 C614 139 611 141 609 144 C558 98 490 70 416 70 C342 70 274 98 222 144 C222 145 215 137 215 137 C268 89 338 60 416 60 L416 60 Z M416 324 C426 324 435 327 442 333 C439 337 437 339 437 339 C431 334 424 332 416 332 C408 332 401 335 395 339 C395 339 391 334 389 333 C397 327 406 324 416 324 L416 324 Z M482 319 C493 334 499 352 499 371 C499 390 493 408 482 422 C483 422 475 415 475 415 C484 403 489 388 489 371 C489 355 484 339 475 326 C478 324 480 322 482 319 L482 319 Z M292 269 C295 271 298 274 300 276 C280 302 267 335 267 371 C267 407 280 440 300 466 L293 473 C270 445 257 410 257 371 C257 333 270 297 292 269 L292 269 Z M416 -17 C512 -17 600 19 667 80 C667 80 660 88 660 87 C595 29 510 -7 416 -7 C322 -7 236 29 171 88 L164 80 C231 20 320 -17 416 -17 L416 -17 Z M416 121 C478 121 534 144 576 182 C574 185 571 187 569 190 C529 153 475 131 416 131 C357 131 303 153 262 190 L255 182 C298 144 354 121 416 121 L416 121 Z M416 170 C465 170 510 188 544 218 C542 221 539 223 537 226 C505 197 462 180 416 180 C369 180 327 197 294 226 L287 219 C322 189 367 170 416 170 L416 170 Z M416 209 C455 209 491 224 518 247 C516 250 514 253 512 255 C486 233 452 219 416 219 C380 219 346 233 320 255 L313 247 C341 224 377 209 416 209 L416 209 Z M416 265 C441 265 463 274 481 289 C479 292 476 294 474 297 C458 283 438 275 416 275 C394 275 373 283 357 297 L350 289 C368 274 391 265 416 265 L416 265 Z M358 445 C374 459 394 467 416 467 C438 467 458 459 474 445 L482 453 C464 468 441 477 416 477 C391 477 368 468 350 453 C351 452 354 448 358 445 L358 445 Z M570 552 C572 554 575 557 577 560 C534 598 478 621 416 621 C355 621 299 598 256 560 L263 553 C304 589 357 611 416 611 C475 611 529 589 570 552 L570 552 Z M454 346 C458 353 461 362 461 371 C461 380 458 389 454 396 L448 391 C451 385 453 378 453 371 C453 364 451 357 448 351 C448 351 450 349 454 346 L454 346 Z M468 333 C476 344 480 357 480 371 C480 385 476 398 468 409 L460 402 C466 393 470 382 470 371 C470 360 466 349 460 340 C463 338 465 336 468 333 L468 333 Z M498 306 C511 325 519 347 519 371 C519 395 511 418 497 436 L490 429 C502 413 509 393 509 371 C509 349 502 329 490 313 C492 311 495 308 498 306 L498 306 Z M540 269 C562 297 575 332 575 371 C575 410 562 445 539 473 L531 466 C552 440 565 407 565 371 C565 335 552 302 532 276 C535 274 537 271 540 269 L540 269 Z M568 243 C596 278 613 322 613 371 C613 420 596 464 568 499 L560 492 C587 459 603 417 603 371 C603 325 587 283 560 250 C563 248 566 245 568 243 L568 243 Z M604 211 C640 254 661 310 661 371 C661 432 640 488 604 531 L596 524 C631 483 651 429 651 371 C651 313 631 260 596 218 C601 213 604 211 604 211 L604 211 Z M649 171 C694 225 721 295 721 371 C721 447 694 517 649 571 L641 564 C685 512 711 445 711 371 C711 297 685 230 642 177 C644 175 647 173 649 171 L649 171 Z M706 120 C762 188 796 276 796 371 C796 467 762 555 706 622 L698 615 C753 549 786 464 786 371 C786 278 753 193 698 127 C703 123 706 120 706 120 L706 120 Z M183 170 L190 177 C147 229 121 297 121 371 C121 444 147 512 190 564 C187 567 184 569 182 571 C138 517 111 447 111 371 C111 294 138 225 183 170 L183 170 Z M334 306 L342 314 C330 330 323 350 323 371 C323 393 330 413 342 429 C340 431 337 434 334 436 C321 418 313 395 313 371 C313 346 321 324 334 306 L334 306 Z M364 333 L371 340 C366 349 362 360 362 371 C362 382 366 393 371 402 C369 404 366 406 364 409 C356 398 352 385 352 371 C352 357 356 344 364 333 L364 333 Z M395 403 C401 408 408 410 416 410 C424 410 431 407 437 403 C437 403 439 406 442 409 C435 415 426 418 416 418 C406 418 397 415 390 409 L395 403 Z M384 416 C393 423 404 428 416 428 C428 428 439 424 448 416 C450 419 452 421 454 423 C443 432 430 437 416 437 C401 437 388 432 377 423 L384 416 Z M371 430 C383 441 399 447 416 447 C433 447 449 441 461 430 C461 430 464 434 468 438 C454 450 436 457 416 457 C397 457 378 450 364 438 L371 430 Z M295 516 C327 545 370 562 416 562 C462 562 505 545 538 516 C538 516 545 523 544 523 C510 554 465 572 416 572 C367 572 322 554 288 524 L295 516 Z M416 240 C448 240 476 252 498 271 L491 278 C471 261 445 250 416 250 C388 250 361 261 340 278 L333 270 C355 251 384 240 416 240 L416 240 Z M416 285 C436 285 454 292 468 304 L461 312 C448 301 433 295 416 295 C399 295 383 302 370 312 L363 304 C378 292 396 285 416 285 L416 285 Z M416 305 C430 305 444 310 455 319 L448 326 C439 319 428 314 416 314 C404 314 393 319 383 326 L376 319 C388 310 401 305 416 305 L416 305 Z M341 464 C362 482 388 492 416 492 C445 492 471 481 491 464 L498 472 C476 491 447 502 416 502 C385 502 356 490 334 471 L341 464 Z M320 487 C346 509 380 523 416 523 C453 523 486 510 512 487 L518 494 C491 518 455 533 416 533 C377 533 341 519 313 495 L320 487 Z M610 597 L617 605 C563 653 493 682 416 682 C339 682 269 653 215 605 L222 598 C274 644 342 672 416 672 C491 672 559 644 610 597 L610 597 Z M172 654 C237 713 322 749 416 749 C510 749 596 713 661 654 L668 662 C601 722 512 759 416 759 C320 759 232 723 165 662 L172 654 Z M516 290 C534 312 544 340 544 371 C544 402 534 430 516 453 L508 446 C524 425 534 399 534 371 C534 343 524 317 509 297 L516 290 Z " />
<glyph glyph-name="fi" unicode="&#xfb01;" horiz-adv-x="434" d="M25 468 L92 468 L6 -152 L106 -152 L193 468 L261 468 L274 559 L206 559 L214 616 C220 663 231 674 270 674 L290 674 L302 763 C298 764 280 764 275 764 C170 764 128 727 115 631 L105 559 L38 559 L25 468 Z M239 0 L340 0 L419 559 L318 559 L239 0 Z M326 621 L428 621 L444 739 L343 739 L326 621 Z " />
<glyph glyph-name="fl" unicode="&#xfb02;" horiz-adv-x="463" d="M25 468 L92 468 L6 -152 L106 -152 L193 468 L261 468 L274 559 L206 559 L214 616 C220 663 231 674 270 674 L290 674 L302 763 C298 764 280 764 275 764 C170 764 128 727 115 631 L105 559 L38 559 L25 468 Z M367 -1 C371 -1 385 -1 387 0 L400 90 L393 90 C355 90 354 98 360 139 L447 763 L346 763 L258 131 C244 31 265 -1 367 -1 L367 -1 Z " />
</font>
</svg>
