<?xml version="1.0" encoding="UTF-8"?>
<svg xmlns="http://www.w3.org/2000/svg" xmlns:xlink="http://www.w3.org/1999/xlink" version="1.2" >
<font id="Antenna LightItalic">
<font-face  font-family="Antenna" units-per-em="1000" ascent="800" descent="-200" font-style="italic" font-weight="300" font-stretch="normal" slope="-12" cap-height="741" x-height="552" underline-position="-75" underline-thickness="50" />
<missing-glyph  horiz-adv-x="235" d="" />
<glyph glyph-name="NULL" d="" />
<glyph glyph-name="CR" unicode="&#xd;" horiz-adv-x="250" d="" />
<glyph glyph-name="&amp;#x20;" unicode="&#x20;" horiz-adv-x="235" d="" />
<glyph glyph-name="&amp;#xa0;" unicode="&#xa0;" horiz-adv-x="235" d="" />
<glyph glyph-name="exclam" unicode="&#x21;" horiz-adv-x="358" d="M50 0 L150 0 L173 110 L73 110 L50 0 Z M109 204 L177 204 L300 741 L216 741 L109 204 Z " />
<glyph glyph-name="quotedbl" unicode="&#x22;" horiz-adv-x="479" d="M123 455 L189 455 L255 741 L177 741 L123 455 Z M327 455 L393 455 L460 741 L381 741 L327 455 Z " />
<glyph glyph-name="numbersign" unicode="&#x23;" horiz-adv-x="725" d="M127 0 L201 0 L249 222 L409 222 L361 0 L435 0 L483 222 L626 222 L641 291 L496 291 L530 448 L675 448 L690 518 L544 518 L591 741 L518 741 L470 518 L310 518 L358 741 L284 741 L237 518 L98 518 L83 448 L223 448 L189 291 L50 291 L36 222 L174 222 L127 0 Z M257 288 L292 452 L462 452 L426 288 L257 288 Z " />
<glyph glyph-name="dollar" unicode="&#x24;" horiz-adv-x="644" d="M192 -94 L262 -94 L282 0 L286 0 C433 0 543 77 543 235 C543 342 462 379 366 411 L421 670 C478 663 523 643 554 619 L599 677 C565 705 512 729 439 738 L453 806 L382 806 L369 742 C233 741 130 675 130 530 C130 428 202 392 292 362 L229 68 C152 76 95 103 48 147 L3 93 C54 44 122 14 212 4 L192 -94 Z M468 227 C468 118 396 66 292 65 L351 343 C425 317 468 290 468 227 L468 227 Z M205 537 C205 623 261 671 358 674 L306 431 C245 453 205 479 205 537 L205 537 Z " />
<glyph glyph-name="percent" unicode="&#x25;" horiz-adv-x="1069" d="M236 284 C368 284 463 404 463 583 C463 681 415 753 293 753 C152 753 66 617 66 451 C66 353 114 284 236 284 L236 284 Z M241 346 C162 346 136 392 136 454 C136 575 186 689 290 689 C368 689 394 643 394 580 C394 449 336 346 241 346 L241 346 Z M777 -11 C908 -11 1003 109 1003 287 C1003 385 955 458 833 458 C692 458 606 321 606 156 C606 58 653 -11 777 -11 L777 -11 Z M780 51 C702 51 676 97 676 159 C676 280 727 395 829 395 C907 395 933 348 933 285 C933 154 876 51 780 51 L780 51 Z M227 0 L299 0 L855 741 L783 741 L227 0 Z " />
<glyph glyph-name="ampersand" unicode="&#x26;" horiz-adv-x="788" d="M255 -10 C332 -10 397 10 453 48 C513 8 571 0 641 0 L655 0 L669 69 L648 69 C605 69 561 70 512 97 C584 170 639 275 688 407 L626 428 C578 301 525 201 459 136 C441 152 423 171 404 195 C361 247 326 316 304 387 C425 433 529 488 529 626 C529 703 484 753 382 753 C285 753 208 692 208 528 C208 497 211 465 217 432 C109 387 4 321 4 158 C4 53 71 -10 255 -10 L255 -10 Z M261 54 C118 54 80 102 80 165 C80 278 150 329 232 368 C254 291 292 216 340 157 C360 131 380 109 399 91 C358 67 313 54 261 54 L261 54 Z M281 532 C281 642 320 686 380 686 C433 686 457 661 457 619 C457 529 383 486 289 450 C283 478 281 506 281 532 L281 532 Z " />
<glyph glyph-name="quotesingle" unicode="&#x27;" horiz-adv-x="275" d="M123 455 L189 455 L255 742 L177 742 L123 455 Z " />
<glyph glyph-name="parenleft" unicode="&#x28;" horiz-adv-x="477" d="M210 -184 L270 -147 C218 -91 161 27 161 173 C161 428 320 646 462 742 L416 788 C267 695 84 451 84 175 C84 8 149 -118 210 -184 L210 -184 Z " />
<glyph glyph-name="parenright" unicode="&#x29;" horiz-adv-x="477" d="M31 -184 C180 -91 363 152 363 429 C363 596 298 722 237 788 L177 751 C229 694 285 577 285 431 C285 176 127 -42 -15 -138 L31 -184 Z " />
<glyph glyph-name="asterisk" unicode="&#x2a;" horiz-adv-x="575" d="M297 266 L331 456 L471 323 L513 370 L364 494 L551 548 L532 609 L349 543 L396 730 L335 743 L303 553 L162 687 L121 639 L268 514 L83 462 L102 401 L284 465 L237 280 L297 266 Z " />
<glyph glyph-name="plus" unicode="&#x2b;" horiz-adv-x="696" d="M255 113 L331 113 L374 317 L577 317 L593 389 L389 389 L432 592 L357 592 L313 389 L110 389 L94 317 L299 317 L255 113 Z " />
<glyph glyph-name="comma" unicode="&#x2c;" horiz-adv-x="239" d="M-18 -119 C53 -90 77 -65 94 17 L114 111 L13 111 L-9 0 L41 0 C32 -40 18 -56 -31 -78 L-18 -119 Z " />
<glyph glyph-name="&amp;#x2d;" unicode="&#x2d;" horiz-adv-x="452" d="M31 272 L378 272 L393 343 L46 343 L31 272 Z " />
<glyph glyph-name="&amp;#xad;" unicode="&#xad;" horiz-adv-x="452" d="M31 272 L378 272 L393 343 L46 343 L31 272 Z " />
<glyph glyph-name="period" unicode="&#x2e;" horiz-adv-x="239" d="M-9 0 L91 0 L114 111 L13 111 L-9 0 Z " />
<glyph glyph-name="slash" unicode="&#x2f;" horiz-adv-x="494" d="M-80 0 L1 0 L575 741 L493 741 L-80 0 Z " />
<glyph glyph-name="zero" unicode="0" horiz-adv-x="709" d="M307 -11 C493 -11 582 118 629 341 C642 401 650 459 650 512 C650 655 587 753 408 753 C214 753 127 624 80 400 C66 335 59 274 59 223 C59 78 122 -11 307 -11 L307 -11 Z M311 59 C178 59 137 123 137 226 C137 274 144 330 157 390 C196 569 253 681 404 681 C532 681 572 609 572 507 C572 459 564 406 552 352 C513 172 456 59 311 59 L311 59 Z " />
<glyph glyph-name="one" unicode="1" horiz-adv-x="373" d="M99 0 L174 0 L332 741 L116 741 L100 669 L242 669 L99 0 Z " />
<glyph glyph-name="two" unicode="2" horiz-adv-x="569" d="M-41 0 L429 0 L442 67 L79 67 L325 274 C480 404 547 457 547 599 C547 695 484 753 325 753 C248 753 179 739 118 712 L144 648 C195 671 260 683 318 683 C431 683 470 644 470 585 C470 474 415 438 268 314 L-28 64 L-41 0 Z " />
<glyph glyph-name="three" unicode="3" horiz-adv-x="590" d="M242 -12 C402 -12 501 70 501 253 C501 322 483 375 427 402 C497 417 555 478 555 604 C555 701 485 753 331 753 C280 753 185 746 106 704 L138 643 C204 677 280 684 320 684 C433 684 476 651 476 589 C476 475 420 438 306 438 L183 438 L169 370 L259 370 C388 370 426 327 426 252 C426 117 357 56 243 56 C140 56 77 81 7 126 L-39 68 C37 18 112 -12 242 -12 L242 -12 Z " />
<glyph glyph-name="four" unicode="4" horiz-adv-x="647" d="M14 187 L370 187 L331 0 L402 0 L442 187 L573 187 L586 253 L456 253 L508 498 L452 498 L384 253 L116 253 L552 741 L465 741 L27 249 L14 187 Z " />
<glyph glyph-name="five" unicode="5" horiz-adv-x="616" d="M259 -11 C411 -11 549 49 549 286 C549 436 458 484 322 484 C272 484 223 475 178 458 L237 672 L582 672 L596 741 L181 741 L89 400 L149 381 C197 404 248 418 298 418 C405 418 471 378 471 277 C471 102 368 56 265 56 C162 56 96 87 40 126 L-5 68 C50 29 129 -11 259 -11 L259 -11 Z " />
<glyph glyph-name="six" unicode="6" horiz-adv-x="669" d="M307 -11 C498 -11 591 117 591 308 C591 419 531 499 366 499 C271 499 200 474 163 438 C208 586 278 672 529 672 L572 672 L587 741 L531 741 C230 741 127 641 61 330 C52 287 47 248 47 213 C47 65 131 -11 307 -11 L307 -11 Z M308 55 C188 55 123 104 123 208 C123 384 228 433 341 433 C472 433 515 377 515 294 C515 159 458 55 308 55 L308 55 Z " />
<glyph glyph-name="seven" unicode="7" horiz-adv-x="514" d="M39 0 L123 0 L563 680 L577 741 L101 741 L87 672 L477 672 L39 0 Z " />
<glyph glyph-name="eight" unicode="8" horiz-adv-x="675" d="M290 -13 C461 -13 580 67 580 245 C580 319 559 375 495 400 C583 417 630 481 630 593 C630 685 570 753 382 753 C218 753 129 684 129 543 C129 485 146 434 201 411 C96 388 27 314 27 170 C27 63 101 -13 290 -13 L290 -13 Z M297 53 C160 53 105 100 105 179 C105 322 197 373 316 373 C447 373 503 323 503 243 C503 101 409 53 297 53 L297 53 Z M374 434 C247 434 203 476 203 539 C203 648 270 688 383 688 C509 688 554 646 554 583 C554 472 486 434 374 434 L374 434 Z " />
<glyph glyph-name="nine" unicode="9" horiz-adv-x="669" d="M81 0 L136 0 C438 0 541 100 607 411 C616 454 620 493 620 528 C620 676 536 753 361 753 C171 753 76 624 76 434 C76 323 137 242 301 242 C397 242 471 267 507 303 C461 156 389 67 139 67 L95 67 L81 0 Z M327 305 C195 305 153 362 153 445 C153 580 209 683 359 683 C480 683 544 634 544 530 C544 354 439 305 327 305 L327 305 Z " />
<glyph glyph-name="colon" unicode="&#x3a;" horiz-adv-x="259" d="M1 0 L101 0 L124 109 L23 109 L1 0 Z M96 443 L196 443 L217 552 L117 552 L96 443 Z " />
<glyph glyph-name="semicolon" unicode="&#x3b;" horiz-adv-x="259" d="M-8 -119 C63 -90 85 -72 104 17 L124 109 L23 109 L1 0 L50 0 C42 -40 27 -56 -22 -78 L-8 -119 Z M96 443 L196 443 L217 552 L117 552 L96 443 Z " />
<glyph glyph-name="less" unicode="&#x3c;" horiz-adv-x="696" d="M493 91 L508 163 L177 343 L586 524 L600 599 L105 375 L94 317 L493 91 Z " />
<glyph glyph-name="equal" unicode="&#x3d;" horiz-adv-x="696" d="M78 209 L550 209 L564 280 L92 280 L78 209 Z M123 425 L595 425 L609 495 L138 495 L123 425 Z " />
<glyph glyph-name="greater" unicode="&#x3e;" horiz-adv-x="696" d="M85 92 L580 316 L591 374 L192 599 L177 527 L507 348 L99 166 L85 92 Z " />
<glyph glyph-name="question" unicode="&#x3f;" horiz-adv-x="649" d="M227 196 L300 196 C322 317 340 343 436 381 C568 434 617 479 617 599 C617 691 560 753 378 753 C324 753 227 743 150 712 L176 646 C245 671 317 682 367 682 C504 682 538 639 538 584 C538 499 504 478 392 434 C273 388 252 343 227 196 L227 196 Z M175 0 L275 0 L296 102 L196 102 L175 0 Z " />
<glyph glyph-name="at" unicode="&#x40;" horiz-adv-x="1085" d="M527 -165 C648 -165 748 -140 825 -101 L804 -59 C734 -93 638 -117 527 -117 C249 -117 118 25 118 292 C118 565 251 706 520 706 C794 706 925 565 925 292 C925 134 899 78 804 78 C717 78 683 107 699 182 L777 549 L728 552 L697 483 C675 526 627 556 510 556 C335 556 264 398 264 221 C264 113 314 37 448 37 C538 37 597 53 641 105 C652 55 698 32 796 32 C926 32 974 98 974 292 C974 597 820 754 520 754 C223 754 69 597 69 292 C69 -9 215 -165 527 -165 L527 -165 Z M464 100 C368 100 336 151 336 230 C336 372 389 490 516 490 C628 490 665 444 665 370 C665 344 661 315 654 284 C623 136 560 100 464 100 L464 100 Z " />
<glyph glyph-name="A" unicode="A" horiz-adv-x="703" d="M-54 0 L30 0 L131 171 L489 171 L518 0 L595 0 L468 746 L391 746 L-54 0 Z M171 243 L410 645 L479 243 L171 243 Z " />
<glyph glyph-name="B" unicode="B" horiz-adv-x="687" d="M8 0 L344 0 C513 0 615 60 615 242 C615 310 591 365 533 384 C620 397 671 471 671 591 C671 682 613 741 413 741 L166 741 L8 0 Z M100 71 L160 348 L373 348 C491 348 536 309 536 241 C536 118 468 71 357 71 L100 71 Z M175 420 L229 669 L411 669 C551 669 589 630 589 573 C589 479 548 420 431 420 L175 420 Z " />
<glyph glyph-name="C" unicode="C" horiz-adv-x="703" d="M346 -11 C461 -11 538 15 601 67 L552 125 C500 84 441 63 353 63 C189 63 112 148 112 287 C112 320 115 357 123 395 C166 596 284 678 444 678 C539 678 605 645 648 597 L713 650 C664 705 585 753 446 753 C256 753 101 668 45 406 C36 360 32 317 32 278 C32 100 132 -11 346 -11 L346 -11 Z " />
<glyph glyph-name="D" unicode="D" horiz-adv-x="739" d="M8 0 L283 0 C496 0 629 51 689 332 C702 389 707 440 707 484 C707 663 604 741 336 741 L166 741 L8 0 Z M101 72 L230 667 L336 667 C551 667 627 606 627 474 C627 435 621 392 611 343 C563 122 469 72 284 72 L101 72 Z " />
<glyph glyph-name="E" unicode="E" horiz-adv-x="621" d="M8 0 L485 0 L500 72 L101 72 L161 348 L545 348 L560 422 L175 422 L229 666 L623 666 L639 741 L166 741 L8 0 Z " />
<glyph glyph-name="F" unicode="F" horiz-adv-x="580" d="M8 0 L86 0 L159 341 L528 341 L543 415 L174 415 L229 666 L607 666 L623 741 L166 741 L8 0 Z " />
<glyph glyph-name="G" unicode="G" horiz-adv-x="761" d="M355 -11 C587 -11 652 77 701 317 L719 405 L404 405 L389 332 L624 332 L620 312 C584 133 540 59 359 59 C189 59 111 143 111 286 C111 321 114 359 122 395 C165 600 284 678 437 678 C571 678 626 628 656 594 L721 648 C684 694 602 753 441 753 C247 753 98 660 45 406 C36 363 32 322 32 277 C32 96 134 -11 355 -11 L355 -11 Z " />
<glyph glyph-name="H" unicode="H" horiz-adv-x="759" d="M8 0 L86 0 L161 348 L589 348 L515 0 L594 0 L752 741 L673 741 L605 425 L176 425 L244 741 L166 741 L8 0 Z " />
<glyph glyph-name="I" unicode="I" horiz-adv-x="267" d="M15 0 L94 0 L252 741 L173 741 L15 0 Z " />
<glyph glyph-name="J" unicode="J" horiz-adv-x="380" d="M-49 0 C-21 -1 -29 -1 37 -1 C146 -1 227 38 259 191 L377 741 L298 741 L183 203 C163 107 118 72 29 72 L-34 72 L-49 0 Z " />
<glyph glyph-name="K" unicode="K" horiz-adv-x="684" d="M485 0 L567 0 L378 454 L689 741 L591 741 L158 343 L243 741 L166 741 L8 0 L85 0 L135 235 L317 400 L485 0 Z " />
<glyph glyph-name="L" unicode="L" horiz-adv-x="567" d="M8 0 L461 0 L476 72 L101 72 L244 741 L166 741 L8 0 Z " />
<glyph glyph-name="M" unicode="M" horiz-adv-x="894" d="M8 0 L79 0 L211 617 L335 0 L395 0 L785 623 L651 0 L728 0 L886 741 L778 741 L390 119 L267 741 L166 741 L8 0 Z " />
<glyph glyph-name="N" unicode="N" horiz-adv-x="758" d="M8 0 L82 0 L217 630 L521 0 L592 0 L750 741 L676 741 L544 130 L251 741 L166 741 L8 0 Z " />
<glyph glyph-name="O" unicode="O" horiz-adv-x="818" d="M368 -12 C555 -12 715 69 772 334 C782 377 786 418 786 457 C786 645 671 753 450 753 C265 753 102 673 46 409 C37 364 32 323 33 285 C33 96 148 -12 368 -12 L368 -12 Z M369 61 C192 61 113 151 113 291 C113 326 116 362 124 398 C166 595 282 678 447 678 C625 678 705 588 705 447 C705 414 701 378 693 341 C650 139 533 61 369 61 L369 61 Z " />
<glyph glyph-name="P" unicode="P" horiz-adv-x="686" d="M8 0 L85 0 L146 285 L416 285 C596 285 683 397 683 568 C683 674 616 741 434 741 L166 741 L8 0 Z M161 358 L229 668 L425 668 C551 668 602 631 602 556 C602 423 534 358 414 358 L161 358 Z " />
<glyph glyph-name="Q" unicode="Q" horiz-adv-x="818" d="M368 -8 C555 -8 715 69 772 334 C782 377 786 418 786 457 C786 645 671 753 450 753 C264 753 102 673 46 409 C37 364 32 323 33 285 C33 126 114 27 271 0 C235 -133 272 -182 427 -182 C435 -182 477 -182 487 -181 L500 -113 L438 -113 C343 -113 325 -89 348 -8 L368 -8 Z M369 61 C192 61 113 151 113 291 C113 326 116 362 124 398 C166 595 282 678 447 678 C625 678 705 588 705 447 C705 414 701 378 693 341 C650 139 533 61 369 61 L369 61 Z " />
<glyph glyph-name="R" unicode="R" horiz-adv-x="698" d="M466 0 L547 0 L435 302 C593 308 679 403 679 568 C679 669 610 741 421 741 L166 741 L8 0 L85 0 L150 302 L354 302 L466 0 Z M164 374 L228 668 L415 668 C540 668 598 629 598 554 C598 425 526 374 417 374 L164 374 Z " />
<glyph glyph-name="S" unicode="S" horiz-adv-x="683" d="M300 -10 C454 -10 591 44 591 219 C591 343 499 373 355 416 C257 445 187 466 187 545 C187 649 272 681 367 681 C480 681 549 649 594 614 L645 674 C594 714 516 753 369 753 C236 753 107 703 107 539 C107 414 202 386 322 348 C438 312 511 296 511 205 C511 89 409 60 303 60 C185 60 103 89 26 145 L-23 87 C60 26 154 -10 300 -10 L300 -10 Z " />
<glyph glyph-name="T" unicode="T" horiz-adv-x="668" d="M217 0 L295 0 L437 666 L705 666 L721 741 L106 741 L90 666 L359 666 L217 0 Z " />
<glyph glyph-name="U" unicode="U" horiz-adv-x="759" d="M334 -12 C546 -12 618 101 649 248 L755 741 L679 741 L577 263 C549 135 489 61 342 61 C181 61 132 120 132 208 C132 234 137 261 143 291 L240 741 L161 741 L65 290 C58 259 53 226 53 195 C53 83 112 -12 334 -12 L334 -12 Z " />
<glyph glyph-name="V" unicode="V" horiz-adv-x="703" d="M234 -5 L310 -5 L755 741 L670 741 L292 100 L186 741 L107 741 L234 -5 Z " />
<glyph glyph-name="W" unicode="W" horiz-adv-x="1063" d="M184 -5 L252 -5 L584 617 L652 -5 L720 -5 L1107 741 L1027 741 L712 135 L647 741 L574 741 L250 135 L194 741 L115 741 L184 -5 Z " />
<glyph glyph-name="X" unicode="X" horiz-adv-x="689" d="M487 0 L567 0 L390 383 L707 741 L618 741 L360 446 L224 741 L144 741 L305 392 L-42 0 L47 0 L335 328 L487 0 Z " />
<glyph glyph-name="Y" unicode="Y" horiz-adv-x="680" d="M220 0 L299 0 L360 289 L740 741 L653 741 L336 366 L176 741 L94 741 L283 292 L220 0 Z " />
<glyph glyph-name="Z" unicode="Z" horiz-adv-x="645" d="M-34 0 L518 0 L533 72 L84 72 L651 673 L665 741 L141 741 L125 666 L548 666 L-21 63 L-34 0 Z " />
<glyph glyph-name="bracketleft" unicode="&#x5b;" horiz-adv-x="462" d="M10 -165 L251 -165 L265 -98 L100 -98 L272 707 L434 707 L448 776 L210 776 L10 -165 Z " />
<glyph glyph-name="backslash" unicode="&#x5c;" horiz-adv-x="494" d="M339 0 L411 0 L154 741 L82 741 L339 0 Z " />
<glyph glyph-name="bracketright" unicode="&#x5d;" horiz-adv-x="462" d="M-14 -165 L225 -165 L425 776 L185 776 L170 707 L334 707 L162 -98 L-1 -98 L-14 -165 Z " />
<glyph glyph-name="asciicircum" unicode="&#x5e;" horiz-adv-x="590" d="M158 601 L234 601 L370 708 L459 601 L533 601 L421 757 L336 757 L158 601 Z " />
<glyph glyph-name="underscore" unicode="&#x5f;" horiz-adv-x="453" d="M-141 -121 L387 -121 L399 -59 L-128 -59 L-141 -121 Z " />
<glyph glyph-name="grave" unicode="&#x60;" horiz-adv-x="590" d="M353 610 L421 610 L303 766 L215 766 L353 610 Z " />
<glyph glyph-name="a" unicode="a" horiz-adv-x="603" d="M180 -10 C274 -10 339 13 379 60 C381 15 400 -1 448 -1 C461 -1 476 -1 480 1 L493 67 C439 66 438 77 450 134 L492 328 C526 486 515 565 310 565 C234 565 156 544 114 519 L145 457 C181 477 247 494 298 494 C403 494 432 470 432 420 C432 401 429 380 425 358 L353 358 C119 358 -5 315 -5 133 C-4 48 36 -10 180 -10 L180 -10 Z M197 55 C99 55 71 89 71 140 C71 269 149 289 344 289 L410 289 L402 249 C372 110 318 55 197 55 L197 55 Z " />
<glyph glyph-name="b" unicode="b" horiz-adv-x="627" d="M295 -9 C456 -9 520 84 557 250 C567 291 572 331 572 366 C572 483 520 565 366 565 C278 565 221 550 178 503 L238 776 L163 776 L-2 2 L54 -3 L88 76 C105 23 167 -9 295 -9 L295 -9 Z M286 60 C170 60 122 102 122 196 C122 224 127 257 135 293 C170 456 230 493 343 493 C455 493 493 438 493 353 C493 324 488 292 481 257 C451 123 400 60 286 60 L286 60 Z " />
<glyph glyph-name="c" unicode="c" horiz-adv-x="543" d="M240 -10 C310 -10 368 4 430 52 L387 104 C339 68 298 58 245 58 C134 58 94 114 94 199 C94 228 98 260 104 290 C134 433 197 492 310 492 C401 492 433 455 454 427 L518 477 C486 519 434 565 315 565 C148 565 65 476 29 303 C21 265 17 228 17 192 C17 74 74 -10 240 -10 L240 -10 Z " />
<glyph glyph-name="d" unicode="d" horiz-adv-x="627" d="M222 -9 C316 -9 379 7 423 55 L414 -2 L473 3 L638 776 L562 776 L497 479 C480 536 419 565 293 565 C131 565 68 472 31 306 C21 265 16 225 16 189 C16 72 68 -9 222 -9 L222 -9 Z M245 60 C132 60 95 115 95 199 C95 228 99 260 107 295 C137 430 188 493 302 493 C418 493 465 451 465 356 C465 328 461 295 453 260 C418 96 358 60 245 60 L245 60 Z " />
<glyph glyph-name="e" unicode="e" horiz-adv-x="573" d="M239 -11 C320 -11 386 1 449 41 L417 99 C370 70 316 56 246 56 C125 56 89 115 89 195 C89 213 90 232 93 251 L496 251 C507 302 516 361 516 406 C516 496 475 565 311 565 C141 565 63 466 29 303 C21 265 16 226 16 189 C16 77 67 -11 239 -11 L239 -11 Z M304 496 C416 496 443 454 443 395 C443 370 439 348 434 320 L107 320 C136 431 191 496 304 496 L304 496 Z " />
<glyph glyph-name="f" unicode="f" horiz-adv-x="377" d="M54 483 L159 483 L21 -165 L97 -165 L235 483 L376 483 L390 552 L249 552 L262 610 C275 669 299 709 383 709 L425 709 L439 776 L382 776 C256 776 210 721 188 619 L173 552 L69 552 L54 483 Z " />
<glyph glyph-name="g" unicode="g" horiz-adv-x="580" d="M271 202 C422 202 502 267 502 405 C502 453 485 493 454 518 L548 518 L559 585 L361 561 C339 564 315 565 293 565 C139 565 58 499 58 351 C58 309 69 275 96 250 C75 229 60 202 60 170 C60 148 66 123 83 109 C-5 94 -62 47 -62 -43 C-62 -138 21 -179 189 -179 C372 -180 474 -142 474 -1 C474 108 378 132 192 132 C138 132 130 148 130 171 C130 191 137 206 150 219 C181 208 221 202 271 202 L271 202 Z M198 -116 C77 -116 18 -89 18 -34 C18 26 46 67 178 67 C324 67 395 57 395 -9 C395 -98 327 -116 198 -116 L198 -116 Z M272 268 C166 268 133 299 133 355 C133 454 188 494 289 494 C388 494 427 464 427 404 C427 309 372 268 272 268 L272 268 Z " />
<glyph glyph-name="h" unicode="h" horiz-adv-x="600" d="M-3 0 L73 0 L140 316 C161 412 200 490 322 490 C478 490 459 409 439 311 L372 0 L448 0 L516 319 C544 455 555 565 348 565 C257 565 209 535 179 505 L238 776 L162 776 L-3 0 Z " />
<glyph glyph-name="i" unicode="i" horiz-adv-x="238" d="M2 0 L78 0 L194 552 L119 552 L2 0 Z M135 625 L211 625 L234 733 L158 733 L135 625 Z " />
<glyph glyph-name="j" unicode="j" horiz-adv-x="238" d="M-113 -167 L-84 -167 C17 -167 48 -139 72 -27 L194 552 L119 552 L-2 -18 C-17 -86 -30 -104 -93 -104 L-99 -104 L-113 -167 Z M135 625 L211 625 L234 733 L158 733 L135 625 Z " />
<glyph glyph-name="k" unicode="k" horiz-adv-x="522" d="M-2 0 L73 0 L105 152 L224 266 L345 0 L424 0 L280 321 L520 552 L434 552 L128 259 L238 776 L163 776 L-2 0 Z " />
<glyph glyph-name="l" unicode="l" horiz-adv-x="292" d="M123 -1 C139 -1 157 0 165 1 L178 67 C177 67 156 67 155 67 C98 67 95 86 107 140 L243 776 L167 776 L33 146 C12 47 24 -1 123 -1 L123 -1 Z " />
<glyph glyph-name="m" unicode="m" horiz-adv-x="961" d="M-3 0 L73 0 L140 316 C161 412 197 490 318 490 C473 490 452 409 431 311 L365 0 L440 0 L507 316 C529 414 564 490 686 490 C840 490 819 409 798 311 L731 0 L807 0 L875 319 C904 455 919 565 712 565 C610 565 545 532 513 491 C494 547 442 565 344 565 C246 565 199 535 167 503 L174 552 L113 548 L-3 0 Z " />
<glyph glyph-name="n" unicode="n" horiz-adv-x="600" d="M-3 0 L73 0 L140 316 C161 412 200 490 322 490 C478 490 458 409 438 311 L372 0 L448 0 L516 319 C544 455 555 565 348 565 C250 565 199 535 167 503 L174 552 L113 548 L-3 0 Z " />
<glyph glyph-name="o" unicode="o" horiz-adv-x="611" d="M251 -11 C405 -11 502 61 542 250 C549 288 554 324 554 356 C554 484 486 565 319 565 C165 565 70 493 29 303 C22 265 17 230 17 198 C17 70 85 -11 251 -11 L251 -11 Z M254 58 C139 58 94 113 94 201 C94 230 97 260 104 290 C134 431 198 493 315 493 C431 493 476 436 476 346 C476 320 473 289 466 258 C436 118 370 58 254 58 L254 58 Z " />
<glyph glyph-name="p" unicode="p" horiz-adv-x="627" d="M-37 -165 L38 -165 L90 77 C107 19 167 -9 295 -9 C456 -9 520 84 557 250 C567 291 572 331 572 366 C572 483 520 565 366 565 C271 565 209 549 166 501 L174 552 L114 548 L-37 -165 Z M286 60 C170 60 122 102 122 196 C122 224 127 257 135 293 C170 456 230 493 343 493 C455 493 493 438 493 353 C493 324 488 292 481 257 C451 123 400 60 286 60 L286 60 Z " />
<glyph glyph-name="q" unicode="q" horiz-adv-x="627" d="M361 -165 L437 -165 L590 556 L536 561 L500 480 C478 538 418 565 293 565 C131 565 68 472 31 306 C21 265 16 225 16 189 C16 72 68 -9 222 -9 C307 -9 363 4 406 47 L361 -165 Z M245 60 C132 60 95 115 95 199 C95 228 99 260 107 295 C137 430 188 493 302 493 C418 493 465 451 465 356 C465 328 461 295 453 260 C418 96 358 60 245 60 L245 60 Z " />
<glyph glyph-name="r" unicode="r" horiz-adv-x="340" d="M-2 0 L73 0 L138 304 C161 412 208 486 340 486 L355 559 C255 559 195 530 164 486 L174 552 L114 548 L-2 0 Z " />
<glyph glyph-name="s" unicode="s" horiz-adv-x="502" d="M210 -10 C325 -10 422 29 422 168 C422 262 341 291 261 316 C198 335 138 354 138 405 C138 468 185 495 260 495 C344 495 394 469 427 446 L475 505 C434 535 368 565 265 565 C146 565 61 515 61 397 C61 303 145 277 221 254 C285 235 346 216 346 161 C346 76 285 56 216 56 C141 56 69 81 17 123 L-32 69 C27 19 112 -10 210 -10 L210 -10 Z " />
<glyph glyph-name="t" unicode="t" horiz-adv-x="392" d="M54 483 L154 483 L83 154 C64 61 70 -1 202 -1 C213 -1 256 -1 264 0 L278 67 L224 67 C148 67 146 100 158 151 L228 483 L367 483 L381 552 L243 552 L281 729 L220 718 L170 552 L69 552 L54 483 Z " />
<glyph glyph-name="u" unicode="u" horiz-adv-x="594" d="M251 -11 C422 -11 455 62 487 212 L559 552 L485 552 L414 217 C393 121 378 59 256 59 C88 59 98 138 121 241 L186 552 L110 552 L46 249 C16 103 15 -11 251 -11 L251 -11 Z " />
<glyph glyph-name="v" unicode="v" horiz-adv-x="523" d="M143 -5 L221 -5 L549 552 L467 552 L199 89 L127 552 L50 552 L143 -5 Z " />
<glyph glyph-name="w" unicode="w" horiz-adv-x="856" d="M125 -5 L197 -5 L442 445 L499 -5 L572 -5 L878 552 L799 552 L558 114 L504 552 L426 552 L187 114 L131 552 L54 552 L125 -5 Z " />
<glyph glyph-name="x" unicode="x" horiz-adv-x="521" d="M340 0 L417 0 L282 284 L522 552 L438 552 L254 343 L155 552 L78 552 L201 292 L-62 0 L23 0 L229 234 L340 0 Z " />
<glyph glyph-name="y" unicode="y" horiz-adv-x="510" d="M22 -167 C97 -167 128 -143 174 -63 L536 552 L455 552 L197 101 L128 552 L50 552 L139 8 L107 -45 C80 -91 69 -104 19 -104 L-24 -104 L-36 -166 C-26 -167 3 -167 22 -167 L22 -167 Z " />
<glyph glyph-name="z" unicode="z" horiz-adv-x="482" d="M-46 0 L373 0 L386 65 L66 65 L466 494 L478 552 L88 552 L75 483 L365 483 L-34 57 L-46 0 Z " />
<glyph glyph-name="braceleft" unicode="&#x7b;" horiz-adv-x="499" d="M218 -165 C232 -165 288 -165 288 -165 L302 -98 L234 -98 C170 -98 145 -83 145 -50 C145 15 258 186 258 246 C258 275 248 293 217 305 C273 322 291 360 291 428 C291 478 284 542 284 585 C284 670 313 707 413 707 L474 707 L488 776 L397 776 C266 776 209 717 209 595 C209 542 216 478 216 432 C216 347 183 338 75 338 L61 272 C151 272 179 265 179 233 C179 183 64 8 64 -74 C64 -135 107 -165 218 -165 L218 -165 Z " />
<glyph glyph-name="bar" unicode="&#x7c;" horiz-adv-x="324" d="M121 -165 L197 -165 L197 776 L121 776 L121 -165 Z " />
<glyph glyph-name="braceright" unicode="&#x7d;" horiz-adv-x="499" d="M-16 -165 L75 -165 C206 -165 262 -106 262 16 C262 69 255 133 255 179 C255 264 288 273 397 273 L410 339 C320 339 292 346 292 379 C292 428 408 603 408 685 C408 746 365 776 254 776 L184 776 L170 707 L237 707 C301 707 326 692 326 660 C326 595 214 425 214 365 C214 336 224 318 254 306 C199 289 181 251 181 183 C181 133 187 69 187 26 C187 -59 157 -98 58 -98 L-3 -98 L-16 -165 Z " />
<glyph glyph-name="asciitilde" unicode="&#x7e;" horiz-adv-x="590" d="M430 424 C472 424 508 451 549 499 L508 538 C480 507 459 488 433 488 C384 488 355 536 289 536 C241 536 201 507 167 467 L208 427 C230 451 256 473 286 473 C336 473 364 424 430 424 L430 424 Z " />
<glyph glyph-name="exclamdown" unicode="&#xa1;" horiz-adv-x="358" d="M58 0 L142 0 L248 537 L181 537 L58 0 Z M186 631 L286 631 L308 741 L208 741 L186 631 Z " />
<glyph glyph-name="cent" unicode="&#xa2;" horiz-adv-x="538" d="M166 -94 L240 -94 L257 -9 C319 -7 373 8 430 52 L387 104 C343 71 309 61 266 58 L358 488 C413 477 437 449 454 427 L518 477 C492 510 453 546 378 559 L392 624 L320 624 L306 564 C145 561 64 473 29 303 C21 265 17 228 17 192 C17 88 61 11 185 -5 L166 -94 Z M94 199 C94 228 98 260 104 290 C132 426 191 486 295 491 L204 61 C124 73 94 125 94 199 L94 199 Z " />
<glyph glyph-name="sterling" unicode="&#xa3;" horiz-adv-x="591" d="M337 -8 C444 -8 480 29 505 153 L512 187 L444 187 L440 164 C425 76 407 60 336 60 C277 60 227 77 189 97 C199 118 206 143 212 171 C223 223 222 289 220 352 L418 352 L431 417 L218 417 L218 454 C218 592 256 682 367 682 C442 682 501 661 533 642 L575 705 C535 728 470 754 370 754 C210 754 145 640 145 461 L145 417 L48 417 L35 352 L148 352 C150 286 151 220 142 173 C130 107 107 66 -20 66 L-30 0 C55 -1 110 14 147 43 C193 15 254 -8 337 -8 L337 -8 Z " />
<glyph glyph-name="currency" unicode="&#xa4;" horiz-adv-x="643" d="M51 420 L147 420 C141 391 136 361 133 331 L31 331 L18 269 L128 269 C127 254 127 239 127 224 C127 80 188 -12 351 -12 C400 -12 455 -5 513 28 L479 86 C432 60 391 58 359 58 C242 58 201 122 201 226 C201 240 201 254 202 269 L452 269 L464 331 L207 331 C210 361 215 391 222 420 L484 420 L496 482 L239 482 C277 595 346 682 458 682 C529 682 571 665 604 644 L649 705 C608 733 550 753 459 753 C307 753 212 635 164 482 L63 482 L51 420 Z " />
<glyph glyph-name="yen" unicode="&#xa5;" horiz-adv-x="605" d="M37 238 L236 238 L217 149 L17 149 L5 86 L203 86 L185 0 L260 0 L278 86 L480 86 L491 149 L292 149 L311 238 L512 238 L524 300 L324 300 L328 319 L668 741 L586 741 L304 388 L174 741 L95 741 L254 322 L249 300 L48 300 L37 238 Z " />
<glyph glyph-name="brokenbar" unicode="&#xa6;" horiz-adv-x="324" d="M121 -165 L197 -165 L197 227 L121 227 L121 -165 Z M121 384 L197 384 L197 776 L121 776 L121 384 Z " />
<glyph glyph-name="section" unicode="&#xa7;" horiz-adv-x="544" d="M81 -9 C216 -9 250 64 269 160 L284 228 C389 228 494 253 494 386 C494 455 442 502 330 514 L343 577 C357 641 372 682 463 682 L515 682 L529 748 C522 749 476 749 457 749 C322 749 289 676 269 581 L256 518 C150 516 51 488 51 359 C51 290 99 245 209 232 L195 164 C181 96 165 56 75 56 L22 56 L10 -8 C16 -8 63 -9 81 -9 L81 -9 Z M285 280 C165 280 116 311 116 362 C116 449 184 461 263 461 C378 461 429 432 429 381 C429 295 360 280 285 280 L285 280 Z " />
<glyph glyph-name="dieresis" unicode="&#xa8;" horiz-adv-x="590" d="M213 610 L283 610 L304 712 L234 712 L213 610 Z M409 610 L479 610 L500 712 L430 712 L409 610 Z " />
<glyph glyph-name="copyright" unicode="&#xa9;" horiz-adv-x="832" d="M426 117 C518 117 571 149 605 183 L569 220 C540 193 499 170 428 170 C304 170 236 240 236 375 C236 510 307 579 428 579 C479 579 530 561 565 530 L602 569 C558 610 496 631 428 631 C278 631 180 549 180 375 C180 206 267 117 426 117 L426 117 Z M420 -12 C668 -12 791 146 791 371 C791 596 668 754 420 754 C171 754 49 596 49 371 C49 146 171 -12 420 -12 L420 -12 Z M420 25 C190 25 87 167 87 371 C87 575 190 717 420 717 C649 717 753 575 753 371 C753 167 649 25 420 25 L420 25 Z " />
<glyph glyph-name="ordfeminine" unicode="&#xaa;" horiz-adv-x="569" d="M218 285 C287 285 346 306 384 351 C384 334 386 321 393 311 C402 299 418 293 444 293 C454 293 466 293 469 294 L481 350 C440 350 435 356 445 403 L479 561 C507 691 495 753 328 753 C265 753 202 735 169 715 L194 663 C224 679 277 693 319 693 C403 693 427 676 427 635 C427 618 424 600 420 580 L363 580 C179 580 71 552 71 397 C71 333 109 285 218 285 L218 285 Z M235 341 C161 341 136 366 135 406 C135 513 202 527 355 527 L408 527 L402 496 C376 382 317 341 235 341 L235 341 Z M60 150 L388 150 L401 209 L72 209 L60 150 Z " />
<glyph glyph-name="guillemotleft" unicode="&#xab;" horiz-adv-x="677" d="M167 0 L234 0 L147 275 L352 552 L284 552 L75 275 L167 0 Z M411 0 L478 0 L390 275 L596 552 L527 552 L318 275 L411 0 Z " />
<glyph glyph-name="logicalnot" unicode="&#xac;" horiz-adv-x="832" d="M126 120 C126 120 129 123 134 127 C79 193 46 278 46 371 C46 464 79 549 133 615 C129 619 126 621 126 621 C70 554 36 466 36 371 C36 275 70 187 126 120 L126 120 Z M228 211 C230 213 233 215 235 218 C201 259 181 313 181 371 C181 429 202 483 235 524 C232 526 230 529 227 531 C192 487 171 432 171 371 C171 310 193 254 228 211 L228 211 Z M264 243 C267 245 269 248 272 250 C245 283 229 325 229 371 C229 417 245 459 272 492 C269 494 267 497 264 499 C236 464 219 419 219 371 C219 322 236 278 264 243 L264 243 Z M316 289 C319 291 321 294 324 296 C308 317 298 343 298 371 C298 399 308 425 323 445 C321 448 318 450 316 452 C298 430 288 402 288 371 C288 340 298 312 316 289 L316 289 Z M349 320 C352 323 354 325 357 327 C348 340 343 355 343 371 C343 387 348 402 357 415 C354 417 352 420 349 422 C339 408 333 390 333 371 C333 352 339 334 349 320 L349 320 Z M378 346 C382 349 384 351 384 351 C381 357 379 364 379 371 C379 378 381 385 384 391 C384 391 382 393 378 396 C374 389 371 380 371 371 C371 362 374 353 378 346 L378 346 Z M416 60 C493 60 563 89 616 136 C614 139 611 141 609 144 C558 98 490 70 416 70 C342 70 274 98 222 144 C222 145 215 137 215 137 C268 89 338 60 416 60 L416 60 Z M416 324 C426 324 435 327 442 333 C439 337 437 339 437 339 C431 334 424 332 416 332 C408 332 401 335 395 339 C395 339 391 334 389 333 C397 327 406 324 416 324 L416 324 Z M482 319 C493 334 499 352 499 371 C499 390 493 408 482 422 C483 422 475 415 475 415 C484 403 489 388 489 371 C489 355 484 339 475 326 C478 324 480 322 482 319 L482 319 Z M292 269 C295 271 298 274 300 276 C280 302 267 335 267 371 C267 407 280 440 300 466 L293 473 C270 445 257 410 257 371 C257 333 270 297 292 269 L292 269 Z M416 -17 C512 -17 600 19 667 80 C667 80 660 88 660 87 C595 29 510 -7 416 -7 C322 -7 236 29 171 88 L164 80 C231 20 320 -17 416 -17 L416 -17 Z M416 121 C478 121 534 144 576 182 C574 185 571 187 569 190 C529 153 475 131 416 131 C357 131 303 153 262 190 L255 182 C298 144 354 121 416 121 L416 121 Z M416 170 C465 170 510 188 544 218 C542 221 539 223 537 226 C505 197 462 180 416 180 C369 180 327 197 294 226 L287 219 C322 189 367 170 416 170 L416 170 Z M416 209 C455 209 491 224 518 247 C516 250 514 253 512 255 C486 233 452 219 416 219 C380 219 346 233 320 255 L313 247 C341 224 377 209 416 209 L416 209 Z M416 265 C441 265 463 274 481 289 C479 292 476 294 474 297 C458 283 438 275 416 275 C394 275 373 283 357 297 L350 289 C368 274 391 265 416 265 L416 265 Z M358 445 C374 459 394 467 416 467 C438 467 458 459 474 445 L482 453 C464 468 441 477 416 477 C391 477 368 468 350 453 C351 452 354 448 358 445 L358 445 Z M570 552 C572 554 575 557 577 560 C534 598 478 621 416 621 C355 621 299 598 256 560 L263 553 C304 589 357 611 416 611 C475 611 529 589 570 552 L570 552 Z M454 346 C458 353 461 362 461 371 C461 380 458 389 454 396 L448 391 C451 385 453 378 453 371 C453 364 451 357 448 351 C448 351 450 349 454 346 L454 346 Z M468 333 C476 344 480 357 480 371 C480 385 476 398 468 409 L460 402 C466 393 470 382 470 371 C470 360 466 349 460 340 C463 338 465 336 468 333 L468 333 Z M498 306 C511 325 519 347 519 371 C519 395 511 418 497 436 L490 429 C502 413 509 393 509 371 C509 349 502 329 490 313 C492 311 495 308 498 306 L498 306 Z M540 269 C562 297 575 332 575 371 C575 410 562 445 539 473 L531 466 C552 440 565 407 565 371 C565 335 552 302 532 276 C535 274 537 271 540 269 L540 269 Z M568 243 C596 278 613 322 613 371 C613 420 596 464 568 499 L560 492 C587 459 603 417 603 371 C603 325 587 283 560 250 C563 248 566 245 568 243 L568 243 Z M604 211 C640 254 661 310 661 371 C661 432 640 488 604 531 L596 524 C631 483 651 429 651 371 C651 313 631 260 596 218 C601 213 604 211 604 211 L604 211 Z M649 171 C694 225 721 295 721 371 C721 447 694 517 649 571 L641 564 C685 512 711 445 711 371 C711 297 685 230 642 177 C644 175 647 173 649 171 L649 171 Z M706 120 C762 188 796 276 796 371 C796 467 762 555 706 622 L698 615 C753 549 786 464 786 371 C786 278 753 193 698 127 C703 123 706 120 706 120 L706 120 Z M183 170 L190 177 C147 229 121 297 121 371 C121 444 147 512 190 564 C187 567 184 569 182 571 C138 517 111 447 111 371 C111 294 138 225 183 170 L183 170 Z M334 306 L342 314 C330 330 323 350 323 371 C323 393 330 413 342 429 C340 431 337 434 334 436 C321 418 313 395 313 371 C313 346 321 324 334 306 L334 306 Z M364 333 L371 340 C366 349 362 360 362 371 C362 382 366 393 371 402 C369 404 366 406 364 409 C356 398 352 385 352 371 C352 357 356 344 364 333 L364 333 Z M395 403 C401 408 408 410 416 410 C424 410 431 407 437 403 C437 403 439 406 442 409 C435 415 426 418 416 418 C406 418 397 415 390 409 L395 403 Z M384 416 C393 423 404 428 416 428 C428 428 439 424 448 416 C450 419 452 421 454 423 C443 432 430 437 416 437 C401 437 388 432 377 423 L384 416 Z M371 430 C383 441 399 447 416 447 C433 447 449 441 461 430 C461 430 464 434 468 438 C454 450 436 457 416 457 C397 457 378 450 364 438 L371 430 Z M295 516 C327 545 370 562 416 562 C462 562 505 545 538 516 C538 516 545 523 544 523 C510 554 465 572 416 572 C367 572 322 554 288 524 L295 516 Z M416 240 C448 240 476 252 498 271 L491 278 C471 261 445 250 416 250 C388 250 361 261 340 278 L333 270 C355 251 384 240 416 240 L416 240 Z M416 285 C436 285 454 292 468 304 L461 312 C448 301 433 295 416 295 C399 295 383 302 370 312 L363 304 C378 292 396 285 416 285 L416 285 Z M416 305 C430 305 444 310 455 319 L448 326 C439 319 428 314 416 314 C404 314 393 319 383 326 L376 319 C388 310 401 305 416 305 L416 305 Z M341 464 C362 482 388 492 416 492 C445 492 471 481 491 464 L498 472 C476 491 447 502 416 502 C385 502 356 490 334 471 L341 464 Z M320 487 C346 509 380 523 416 523 C453 523 486 510 512 487 L518 494 C491 518 455 533 416 533 C377 533 341 519 313 495 L320 487 Z M610 597 L617 605 C563 653 493 682 416 682 C339 682 269 653 215 605 L222 598 C274 644 342 672 416 672 C491 672 559 644 610 597 L610 597 Z M172 654 C237 713 322 749 416 749 C510 749 596 713 661 654 L668 662 C601 722 512 759 416 759 C320 759 232 723 165 662 L172 654 Z M516 290 C534 312 544 340 544 371 C544 402 534 430 516 453 L508 446 C524 425 534 399 534 371 C534 343 524 317 509 297 L516 290 Z " />
<glyph glyph-name="registered" unicode="&#xae;" horiz-adv-x="832" d="M419 -12 C668 -12 791 146 791 371 C791 596 668 754 419 754 C171 754 49 596 49 371 C49 146 171 -12 419 -12 L419 -12 Z M419 25 C190 25 86 167 86 371 C86 575 190 717 419 717 C648 717 753 575 753 371 C753 167 648 25 419 25 L419 25 Z M561 122 L618 122 L496 329 C584 340 619 387 619 472 C619 569 576 615 455 615 L243 615 L243 122 L295 122 L295 327 L442 327 L561 122 Z M295 374 L295 567 L453 567 C531 567 567 544 567 471 C567 397 529 374 455 374 L295 374 Z " />
<glyph glyph-name="&amp;#xaf;" unicode="&#xaf;" horiz-adv-x="590" d="M173 610 L518 610 L531 675 L186 675 L173 610 Z " />
<glyph glyph-name="&amp;#x2c9;" unicode="&#x2c9;" horiz-adv-x="590" d="M173 610 L518 610 L531 675 L186 675 L173 610 Z " />
<glyph glyph-name="degree" unicode="&#xb0;" horiz-adv-x="555" d="M278 279 C436 279 529 405 529 570 C529 672 475 753 339 753 C180 753 89 622 89 458 C89 357 143 279 278 279 L278 279 Z M283 340 C190 340 154 391 154 462 C154 587 216 689 332 689 C428 689 464 636 464 564 C464 438 401 340 283 340 L283 340 Z " />
<glyph glyph-name="plusminus" unicode="&#xb1;" horiz-adv-x="955" d="M325 -165 L401 -165 L539 483 L675 483 L689 552 L553 552 L566 610 C579 669 604 709 688 709 L724 709 L737 776 L687 776 C560 776 515 721 493 619 L478 552 L249 552 L262 610 C275 669 299 709 383 709 L419 709 L433 776 L382 776 C256 776 210 721 188 619 L173 552 L69 552 L54 483 L159 483 L21 -165 L97 -165 L235 483 L464 483 L325 -165 Z M786 -1 C801 -1 820 0 828 1 L842 67 L817 67 C761 67 759 86 770 140 L906 776 L830 776 L696 146 C675 47 687 -1 786 -1 L786 -1 Z " />
<glyph glyph-name="twosuperior" unicode="&#xb2;" horiz-adv-x="454" d="M61 287 L359 287 L369 340 L164 340 L298 452 C408 544 431 566 431 650 C431 713 389 747 287 747 C238 747 195 737 156 721 L176 670 C209 684 249 691 282 691 C343 691 368 673 368 641 C368 581 346 566 249 483 L71 335 L61 287 Z " />
<glyph glyph-name="threesuperior" unicode="&#xb3;" horiz-adv-x="454" d="M235 281 C334 281 399 330 399 443 C399 485 386 517 349 533 C401 549 431 581 431 654 C431 715 384 748 289 748 C257 748 194 744 144 716 L167 668 C207 689 255 694 280 694 C340 694 366 677 366 642 C366 581 336 561 272 561 L193 561 L181 508 L242 508 C319 508 336 483 336 442 C336 369 299 334 234 334 C174 334 134 350 91 377 L57 332 C105 299 156 281 235 281 L235 281 Z " />
<glyph glyph-name="acute" unicode="&#xb4;" horiz-adv-x="590" d="M267 610 L342 610 L547 766 L451 766 L267 610 Z " />
<glyph glyph-name="&amp;#xb5;" unicode="&#xb5;" horiz-adv-x="598" d="M-37 -165 L38 -165 L85 56 C104 17 153 -11 255 -11 C424 -11 459 62 491 212 L563 552 L489 552 L418 217 C397 121 385 59 261 59 C90 59 102 138 125 241 L190 552 L114 552 L-37 -165 Z " />
<glyph glyph-name="&amp;#x3bc;" unicode="&#x3bc;" horiz-adv-x="598" d="M-37 -165 L38 -165 L85 56 C104 17 153 -11 255 -11 C424 -11 459 62 491 212 L563 552 L489 552 L418 217 C397 121 385 59 261 59 C90 59 102 138 125 241 L190 552 L114 552 L-37 -165 Z " />
<glyph glyph-name="paragraph" unicode="&#xb6;" horiz-adv-x="605" d="M178 0 L250 0 L313 291 L421 291 L360 0 L432 0 L590 741 L346 741 C168 741 76 651 76 465 C76 375 121 315 241 297 L178 0 Z M330 356 C205 356 154 395 154 473 C154 614 226 671 339 671 L503 671 L435 356 L330 356 Z " />
<glyph glyph-name="&amp;#xb7;" unicode="&#xb7;" horiz-adv-x="239" d="M49 274 L149 274 L172 387 L72 387 L49 274 Z " />
<glyph glyph-name="&amp;#x2219;" unicode="&#x2219;" horiz-adv-x="239" d="M49 274 L149 274 L172 387 L72 387 L49 274 Z " />
<glyph glyph-name="cedilla" unicode="&#xb8;" horiz-adv-x="590" d="M201 -225 C286 -225 331 -187 331 -116 C331 -57 276 -43 228 -45 L249 7 L199 7 L171 -63 L189 -79 C238 -76 275 -84 275 -118 C275 -151 258 -177 200 -177 C150 -177 120 -161 97 -144 L66 -187 C93 -205 134 -225 201 -225 L201 -225 Z " />
<glyph glyph-name="onesuperior" unicode="&#xb9;" horiz-adv-x="332" d="M137 287 L201 287 L297 741 L145 741 L133 684 L221 684 L137 287 Z " />
<glyph glyph-name="ordmasculine" unicode="&#xba;" horiz-adv-x="572" d="M292 288 C443 288 532 403 532 579 C532 687 473 753 340 753 C194 753 103 636 102 461 C102 354 161 288 292 288 L292 288 Z M291 347 C206 347 169 392 169 465 C169 600 234 691 340 691 C427 691 466 646 466 571 C466 436 403 347 291 347 L291 347 Z M61 149 L417 149 L429 209 L73 209 L61 149 Z " />
<glyph glyph-name="guillemotright" unicode="&#xbb;" horiz-adv-x="677" d="M42 0 L110 0 L319 276 L227 552 L161 552 L248 277 L42 0 Z M285 0 L354 0 L563 276 L470 552 L403 552 L490 277 L285 0 Z " />
<glyph glyph-name="onequarter" unicode="&#xbc;" horiz-adv-x="869" d="M412 104 L633 104 L611 0 L670 0 L692 104 L769 104 L780 156 L703 156 L733 295 L684 295 L644 156 L491 156 L756 454 L688 454 L422 154 L412 104 Z M95 0 L165 0 L735 741 L666 741 L95 0 Z M128 287 L192 287 L288 741 L135 741 L123 684 L212 684 L128 287 Z " />
<glyph glyph-name="onehalf" unicode="&#xbd;" horiz-adv-x="940" d="M128 287 L192 287 L288 741 L135 741 L123 684 L212 684 L128 287 Z M95 0 L165 0 L735 741 L666 741 L95 0 Z M483 0 L781 0 L791 53 L586 53 L720 165 C830 257 853 279 853 363 C853 426 811 460 709 460 C660 460 617 450 578 434 L598 383 C631 397 671 404 704 404 C765 404 790 386 790 354 C790 294 768 279 671 196 L493 48 L483 0 Z " />
<glyph glyph-name="threequarters" unicode="&#xbe;" horiz-adv-x="966" d="M221 285 C319 285 384 334 384 447 C384 488 371 521 335 537 C387 552 416 584 416 658 C416 719 369 751 274 751 C242 751 181 748 130 720 L153 672 C193 692 241 697 265 697 C327 697 352 681 352 646 C352 584 321 564 257 564 L179 564 L167 513 L228 513 C305 513 322 487 322 446 C322 373 284 337 220 337 C160 337 119 353 76 381 L42 335 C91 303 142 285 221 285 L221 285 Z M509 104 L731 104 L709 0 L768 0 L790 104 L866 104 L878 156 L801 156 L830 295 L782 295 L742 156 L589 156 L854 454 L785 454 L520 154 L509 104 Z M193 0 L261 0 L833 741 L764 741 L193 0 Z " />
<glyph glyph-name="questiondown" unicode="&#xbf;" horiz-adv-x="649" d="M273 -7 C326 -7 423 3 500 34 L474 101 C405 75 333 65 284 65 C146 65 112 108 112 163 C112 248 146 268 258 313 C377 359 398 403 424 550 L350 550 C328 429 311 404 214 366 C82 313 33 267 33 147 C33 55 91 -7 273 -7 L273 -7 Z M354 644 L454 644 L476 746 L375 746 L354 644 Z " />
<glyph glyph-name="Agrave" unicode="&#xc0;" horiz-adv-x="703" d="M-54 0 L30 0 L131 171 L489 171 L518 0 L595 0 L468 746 L391 746 L-54 0 Z M171 243 L410 645 L479 243 L171 243 Z M445 785 L513 785 L395 941 L307 941 L445 785 Z " />
<glyph glyph-name="Aacute" unicode="&#xc1;" horiz-adv-x="703" d="M-54 0 L30 0 L131 171 L489 171 L518 0 L595 0 L468 746 L391 746 L-54 0 Z M171 243 L410 645 L479 243 L171 243 Z M359 785 L434 785 L639 941 L543 941 L359 785 Z " />
<glyph glyph-name="Acircumflex" unicode="&#xc2;" horiz-adv-x="703" d="M-54 0 L30 0 L131 171 L489 171 L518 0 L595 0 L468 746 L391 746 L-54 0 Z M171 243 L410 645 L479 243 L171 243 Z M250 785 L326 785 L462 892 L551 785 L625 785 L513 941 L428 941 L250 785 Z " />
<glyph glyph-name="Atilde" unicode="&#xc3;" horiz-adv-x="703" d="M-54 0 L30 0 L131 171 L489 171 L518 0 L595 0 L468 746 L391 746 L-54 0 Z M171 243 L410 645 L479 243 L171 243 Z M522 788 C564 788 600 815 641 863 L600 902 C572 871 551 852 525 852 C476 852 447 900 381 900 C333 900 293 871 259 831 L300 791 C322 815 348 837 378 837 C428 837 456 788 522 788 L522 788 Z " />
<glyph glyph-name="Adieresis" unicode="&#xc4;" horiz-adv-x="703" d="M-54 0 L30 0 L131 171 L489 171 L518 0 L595 0 L468 746 L391 746 L-54 0 Z M171 243 L410 645 L479 243 L171 243 Z M305 785 L375 785 L396 887 L326 887 L305 785 Z M501 785 L571 785 L592 887 L522 887 L501 785 Z " />
<glyph glyph-name="Aring" unicode="&#xc5;" horiz-adv-x="703" d="M-54 0 L30 0 L131 171 L489 171 L518 0 L595 0 L474 709 C525 726 561 773 561 844 C561 900 528 948 450 948 C371 948 315 889 315 800 C315 761 331 728 370 712 L-54 0 Z M171 243 L410 645 L479 243 L171 243 Z M429 747 C382 747 360 772 360 805 C360 863 397 903 448 903 C497 903 515 874 515 840 C515 781 479 747 429 747 L429 747 Z " />
<glyph glyph-name="AE" unicode="&#xc6;" horiz-adv-x="1050" d="M-64 0 L25 0 L165 168 L479 168 L443 0 L914 0 L928 72 L533 72 L593 349 L974 349 L989 421 L607 421 L661 666 L1052 666 L1068 741 L554 741 L-64 0 Z M220 236 L585 670 L493 236 L220 236 Z " />
<glyph glyph-name="Ccedilla" unicode="&#xc7;" horiz-adv-x="703" d="M256 -225 C341 -225 386 -187 386 -116 C386 -57 331 -43 283 -45 L297 -9 C313 -10 329 -11 346 -11 C461 -11 538 15 601 67 L552 125 C500 84 441 63 353 63 C189 63 112 148 112 287 C112 320 115 357 123 395 C166 596 284 678 444 678 C539 678 605 645 648 597 L713 650 C664 705 585 753 446 753 C256 753 101 668 45 406 C36 360 32 317 32 278 C32 129 102 27 250 -2 L226 -63 L244 -79 C293 -76 330 -84 330 -118 C330 -151 313 -177 255 -177 C205 -177 175 -161 152 -144 L121 -187 C148 -205 189 -225 256 -225 L256 -225 Z " />
<glyph glyph-name="Egrave" unicode="&#xc8;" horiz-adv-x="621" d="M8 0 L485 0 L500 72 L101 72 L161 348 L545 348 L560 422 L175 422 L229 666 L623 666 L639 741 L166 741 L8 0 Z M405 785 L473 785 L355 941 L267 941 L405 785 Z " />
<glyph glyph-name="Eacute" unicode="&#xc9;" horiz-adv-x="621" d="M319 785 L394 785 L599 941 L503 941 L319 785 Z M8 0 L485 0 L500 72 L101 72 L161 348 L545 348 L560 422 L175 422 L229 666 L623 666 L639 741 L166 741 L8 0 Z " />
<glyph glyph-name="Ecircumflex" unicode="&#xca;" horiz-adv-x="621" d="M210 785 L286 785 L422 892 L511 785 L585 785 L473 941 L388 941 L210 785 Z M8 0 L485 0 L500 72 L101 72 L161 348 L545 348 L560 422 L175 422 L229 666 L623 666 L639 741 L166 741 L8 0 Z " />
<glyph glyph-name="Edieresis" unicode="&#xcb;" horiz-adv-x="621" d="M265 785 L335 785 L356 887 L286 887 L265 785 Z M461 785 L531 785 L552 887 L482 887 L461 785 Z M8 0 L485 0 L500 72 L101 72 L161 348 L545 348 L560 422 L175 422 L229 666 L623 666 L639 741 L166 741 L8 0 Z " />
<glyph glyph-name="Igrave" unicode="&#xcc;" horiz-adv-x="267" d="M186 785 L251 785 L178 942 L91 942 L186 785 Z M15 0 L94 0 L252 741 L173 741 L15 0 Z " />
<glyph glyph-name="Iacute" unicode="&#xcd;" horiz-adv-x="267" d="M184 785 L257 785 L422 942 L328 942 L184 785 Z M15 0 L94 0 L252 741 L173 741 L15 0 Z " />
<glyph glyph-name="Icircumflex" unicode="&#xce;" horiz-adv-x="267" d="M15 0 L94 0 L252 741 L173 741 L15 0 Z M34 785 L110 785 L246 892 L335 785 L409 785 L297 941 L212 941 L34 785 Z " />
<glyph glyph-name="Idieresis" unicode="&#xcf;" horiz-adv-x="267" d="M15 0 L94 0 L252 741 L173 741 L15 0 Z M89 785 L159 785 L180 887 L110 887 L89 785 Z M285 785 L355 785 L376 887 L306 887 L285 785 Z " />
<glyph glyph-name="Eth" unicode="&#xd0;" horiz-adv-x="739" d="M-4 351 L83 351 L8 0 L283 0 C496 0 629 51 689 332 C702 389 707 440 707 484 C707 663 604 741 336 741 L166 741 L97 417 L10 417 L-4 351 Z M101 72 L161 351 L329 351 L343 417 L176 417 L230 667 L336 667 C551 667 627 606 627 474 C627 435 621 392 611 343 C563 122 469 72 284 72 L101 72 Z " />
<glyph glyph-name="Ntilde" unicode="&#xd1;" horiz-adv-x="758" d="M8 0 L82 0 L217 630 L521 0 L592 0 L750 741 L676 741 L544 130 L251 741 L166 741 L8 0 Z M550 788 C592 788 628 815 669 863 L628 902 C600 871 579 852 553 852 C504 852 475 900 409 900 C361 900 321 871 287 831 L328 791 C350 815 376 837 406 837 C456 837 484 788 550 788 L550 788 Z " />
<glyph glyph-name="Ograve" unicode="&#xd2;" horiz-adv-x="818" d="M368 -12 C555 -12 715 69 772 334 C782 377 786 418 786 457 C786 645 671 753 450 753 C265 753 102 673 46 409 C37 364 32 323 33 285 C33 96 148 -12 368 -12 L368 -12 Z M369 61 C192 61 113 151 113 291 C113 326 116 362 124 398 C166 595 282 678 447 678 C625 678 705 588 705 447 C705 414 701 378 693 341 C650 139 533 61 369 61 L369 61 Z M503 785 L571 785 L453 941 L365 941 L503 785 Z " />
<glyph glyph-name="Oacute" unicode="&#xd3;" horiz-adv-x="818" d="M414 785 L489 785 L694 941 L598 941 L414 785 Z M368 -12 C555 -12 715 69 772 334 C782 377 786 418 786 457 C786 645 671 753 450 753 C265 753 102 673 46 409 C37 364 32 323 33 285 C33 96 148 -12 368 -12 L368 -12 Z M369 61 C192 61 113 151 113 291 C113 326 116 362 124 398 C166 595 282 678 447 678 C625 678 705 588 705 447 C705 414 701 378 693 341 C650 139 533 61 369 61 L369 61 Z " />
<glyph glyph-name="Ocircumflex" unicode="&#xd4;" horiz-adv-x="818" d="M305 785 L381 785 L517 892 L606 785 L680 785 L568 941 L483 941 L305 785 Z M368 -12 C555 -12 715 69 772 334 C782 377 786 418 786 457 C786 645 671 753 450 753 C265 753 102 673 46 409 C37 364 32 323 33 285 C33 96 148 -12 368 -12 L368 -12 Z M369 61 C192 61 113 151 113 291 C113 326 116 362 124 398 C166 595 282 678 447 678 C625 678 705 588 705 447 C705 414 701 378 693 341 C650 139 533 61 369 61 L369 61 Z " />
<glyph glyph-name="Otilde" unicode="&#xd5;" horiz-adv-x="818" d="M368 -12 C555 -12 715 69 772 334 C782 377 786 418 786 457 C786 645 671 753 450 753 C265 753 102 673 46 409 C37 364 32 323 33 285 C33 96 148 -12 368 -12 L368 -12 Z M369 61 C192 61 113 151 113 291 C113 326 116 362 124 398 C166 595 282 678 447 678 C625 678 705 588 705 447 C705 414 701 378 693 341 C650 139 533 61 369 61 L369 61 Z M580 788 C622 788 658 815 699 863 L658 902 C630 871 609 852 583 852 C534 852 505 900 439 900 C391 900 351 871 317 831 L358 791 C380 815 406 837 436 837 C486 837 514 788 580 788 L580 788 Z " />
<glyph glyph-name="Odieresis" unicode="&#xd6;" horiz-adv-x="818" d="M363 785 L433 785 L454 887 L384 887 L363 785 Z M559 785 L629 785 L650 887 L580 887 L559 785 Z M368 -12 C555 -12 715 69 772 334 C782 377 786 418 786 457 C786 645 671 753 450 753 C265 753 102 673 46 409 C37 364 32 323 33 285 C33 96 148 -12 368 -12 L368 -12 Z M369 61 C192 61 113 151 113 291 C113 326 116 362 124 398 C166 595 282 678 447 678 C625 678 705 588 705 447 C705 414 701 378 693 341 C650 139 533 61 369 61 L369 61 Z " />
<glyph glyph-name="multiply" unicode="&#xd7;" horiz-adv-x="696" d="M140 146 L333 305 L458 146 L514 193 L389 352 L581 510 L545 558 L352 399 L227 558 L171 511 L296 352 L104 194 L140 146 Z " />
<glyph glyph-name="Oslash" unicode="&#xd8;" horiz-adv-x="818" d="M368 -12 C555 -12 715 69 772 334 C782 377 786 418 786 457 C786 559 751 638 684 688 L758 783 L680 783 L631 720 C582 741 521 753 450 753 C264 753 102 673 46 409 C37 364 32 323 33 285 C33 188 63 112 122 61 L43 -41 L121 -41 L174 27 C225 1 290 -12 368 -12 L368 -12 Z M369 59 C307 59 257 70 218 89 L634 627 C684 586 708 525 708 449 C708 415 704 378 696 341 C652 137 534 59 369 59 L369 59 Z M109 290 C109 325 113 362 121 398 C164 597 281 681 447 681 C502 681 548 672 585 656 L172 121 C129 161 109 219 109 290 L109 290 Z " />
<glyph glyph-name="Ugrave" unicode="&#xd9;" horiz-adv-x="759" d="M334 -12 C546 -12 618 101 649 248 L755 741 L679 741 L577 263 C549 135 489 61 342 61 C181 61 132 120 132 208 C132 234 137 261 143 291 L240 741 L161 741 L65 290 C58 259 53 226 53 195 C53 83 112 -12 334 -12 L334 -12 Z M473 785 L541 785 L423 941 L335 941 L473 785 Z " />
<glyph glyph-name="Uacute" unicode="&#xda;" horiz-adv-x="759" d="M387 785 L462 785 L667 941 L571 941 L387 785 Z M334 -12 C546 -12 618 101 649 248 L755 741 L679 741 L577 263 C549 135 489 61 342 61 C181 61 132 120 132 208 C132 234 137 261 143 291 L240 741 L161 741 L65 290 C58 259 53 226 53 195 C53 83 112 -12 334 -12 L334 -12 Z " />
<glyph glyph-name="Ucircumflex" unicode="&#xdb;" horiz-adv-x="759" d="M278 785 L354 785 L490 892 L579 785 L653 785 L541 941 L456 941 L278 785 Z M334 -12 C546 -12 618 101 649 248 L755 741 L679 741 L577 263 C549 135 489 61 342 61 C181 61 132 120 132 208 C132 234 137 261 143 291 L240 741 L161 741 L65 290 C58 259 53 226 53 195 C53 83 112 -12 334 -12 L334 -12 Z " />
<glyph glyph-name="Udieresis" unicode="&#xdc;" horiz-adv-x="759" d="M333 785 L403 785 L424 887 L354 887 L333 785 Z M529 785 L599 785 L620 887 L550 887 L529 785 Z M334 -12 C546 -12 618 101 649 248 L755 741 L679 741 L577 263 C549 135 489 61 342 61 C181 61 132 120 132 208 C132 234 137 261 143 291 L240 741 L161 741 L65 290 C58 259 53 226 53 195 C53 83 112 -12 334 -12 L334 -12 Z " />
<glyph glyph-name="Yacute" unicode="&#xdd;" horiz-adv-x="680" d="M220 0 L299 0 L360 289 L740 741 L653 741 L336 366 L176 741 L94 741 L283 292 L220 0 Z M347 785 L422 785 L627 941 L531 941 L347 785 Z " />
<glyph glyph-name="Thorn" unicode="&#xde;" horiz-adv-x="686" d="M8 0 L85 0 L121 166 L390 166 C571 166 658 276 658 447 C658 552 590 619 407 619 L216 619 L243 741 L166 741 L8 0 Z M134 236 L202 548 L399 548 C525 548 577 509 577 432 C577 302 508 236 388 236 L134 236 Z " />
<glyph glyph-name="germandbls" unicode="&#xdf;" horiz-adv-x="627" d="M-37 -165 L38 -165 L188 540 C210 647 262 703 363 703 C467 703 507 659 507 599 C507 470 423 430 314 430 L301 366 C435 366 490 320 490 244 C490 136 430 69 282 69 L202 69 L188 0 L285 0 C479 0 564 86 564 246 C564 331 523 384 438 406 C523 429 584 498 584 621 C584 713 523 779 368 779 C215 779 144 689 115 553 L-37 -165 Z " />
<glyph glyph-name="agrave" unicode="&#xe0;" horiz-adv-x="603" d="M180 -10 C274 -10 339 13 379 60 C381 15 400 -1 448 -1 C461 -1 476 -1 480 1 L493 67 C439 66 438 77 450 134 L492 328 C526 486 515 565 310 565 C234 565 156 544 114 519 L145 457 C181 477 247 494 298 494 C403 494 432 470 432 420 C432 401 429 380 425 358 L353 358 C119 358 -5 315 -5 133 C-4 48 36 -10 180 -10 L180 -10 Z M197 55 C99 55 71 89 71 140 C71 269 149 289 344 289 L410 289 L402 249 C372 110 318 55 197 55 L197 55 Z M361 610 L429 610 L311 766 L223 766 L361 610 Z " />
<glyph glyph-name="aacute" unicode="&#xe1;" horiz-adv-x="603" d="M180 -10 C274 -10 339 13 379 60 C381 15 400 -1 448 -1 C461 -1 476 -1 480 1 L493 67 C439 66 438 77 450 134 L492 328 C526 486 515 565 310 565 C234 565 156 544 114 519 L145 457 C181 477 247 494 298 494 C403 494 432 470 432 420 C432 401 429 380 425 358 L353 358 C119 358 -5 315 -5 133 C-4 48 36 -10 180 -10 L180 -10 Z M197 55 C99 55 71 89 71 140 C71 269 149 289 344 289 L410 289 L402 249 C372 110 318 55 197 55 L197 55 Z M275 610 L350 610 L555 766 L459 766 L275 610 Z " />
<glyph glyph-name="acircumflex" unicode="&#xe2;" horiz-adv-x="603" d="M180 -10 C274 -10 339 13 379 60 C381 15 400 -1 448 -1 C461 -1 476 -1 480 1 L493 67 C439 66 438 77 450 134 L492 328 C526 486 515 565 310 565 C234 565 156 544 114 519 L145 457 C181 477 247 494 298 494 C403 494 432 470 432 420 C432 401 429 380 425 358 L353 358 C119 358 -5 315 -5 133 C-4 48 36 -10 180 -10 L180 -10 Z M197 55 C99 55 71 89 71 140 C71 269 149 289 344 289 L410 289 L402 249 C372 110 318 55 197 55 L197 55 Z M166 610 L242 610 L378 717 L467 610 L541 610 L429 766 L344 766 L166 610 Z " />
<glyph glyph-name="atilde" unicode="&#xe3;" horiz-adv-x="603" d="M180 -10 C274 -10 339 13 379 60 C381 15 400 -1 448 -1 C461 -1 476 -1 480 1 L493 67 C439 66 438 77 450 134 L492 328 C526 486 515 565 310 565 C234 565 156 544 114 519 L145 457 C181 477 247 494 298 494 C403 494 432 470 432 420 C432 401 429 380 425 358 L353 358 C119 358 -5 315 -5 133 C-4 48 36 -10 180 -10 L180 -10 Z M197 55 C99 55 71 89 71 140 C71 269 149 289 344 289 L410 289 L402 249 C372 110 318 55 197 55 L197 55 Z M438 613 C480 613 516 640 557 688 L516 727 C488 696 467 677 441 677 C392 677 363 725 297 725 C249 725 209 696 175 656 L216 616 C238 640 264 662 294 662 C344 662 372 613 438 613 L438 613 Z " />
<glyph glyph-name="adieresis" unicode="&#xe4;" horiz-adv-x="603" d="M180 -10 C274 -10 339 13 379 60 C381 15 400 -1 448 -1 C461 -1 476 -1 480 1 L493 67 C439 66 438 77 450 134 L492 328 C526 486 515 565 310 565 C234 565 156 544 114 519 L145 457 C181 477 247 494 298 494 C403 494 432 470 432 420 C432 401 429 380 425 358 L353 358 C119 358 -5 315 -5 133 C-4 48 36 -10 180 -10 L180 -10 Z M197 55 C99 55 71 89 71 140 C71 269 149 289 344 289 L410 289 L402 249 C372 110 318 55 197 55 L197 55 Z M221 610 L291 610 L312 712 L242 712 L221 610 Z M417 610 L487 610 L508 712 L438 712 L417 610 Z " />
<glyph glyph-name="aring" unicode="&#xe5;" horiz-adv-x="603" d="M180 -10 C274 -10 339 13 379 60 C381 15 400 -1 448 -1 C461 -1 476 -1 480 1 L493 67 C439 66 438 77 450 134 L492 328 C526 486 515 565 310 565 C234 565 156 544 114 519 L145 457 C181 477 247 494 298 494 C403 494 432 470 432 420 C432 401 429 380 425 358 L353 358 C119 358 -5 315 -5 133 C-4 48 36 -10 180 -10 L180 -10 Z M197 55 C99 55 71 89 71 140 C71 269 149 289 344 289 L410 289 L402 249 C372 110 318 55 197 55 L197 55 Z M367 602 C442 602 500 653 500 744 C500 800 467 848 389 848 C310 848 254 789 254 700 C254 646 286 602 367 602 L367 602 Z M368 647 C321 647 299 672 299 705 C299 763 336 803 387 803 C436 803 454 774 454 740 C454 681 418 647 368 647 L368 647 Z " />
<glyph glyph-name="ae" unicode="&#xe6;" horiz-adv-x="950" d="M618 -11 C699 -11 765 1 828 41 L796 99 C749 70 695 56 625 56 C504 56 468 115 468 195 C468 213 469 232 472 251 L875 251 C886 302 895 361 895 406 C895 496 854 565 690 565 C600 565 538 537 494 486 C478 539 426 565 310 565 C232 565 156 544 114 519 L145 457 C181 477 247 494 298 494 C404 494 432 469 432 420 C432 404 429 380 425 358 L352 358 C111 358 -5 310 -5 133 C-5 27 67 -10 174 -10 C300 -10 371 29 415 101 C438 34 495 -11 618 -11 L618 -11 Z M197 55 C109 55 71 81 71 139 C71 275 155 289 344 289 L410 289 L402 249 C372 115 323 55 197 55 L197 55 Z M683 496 C795 496 822 454 822 395 C822 370 818 348 813 320 L486 320 C515 431 570 496 683 496 L683 496 Z " />
<glyph glyph-name="ccedilla" unicode="&#xe7;" horiz-adv-x="543" d="M178 -225 C263 -225 308 -187 308 -116 C308 -57 253 -43 205 -45 L219 -9 C226 -10 233 -10 240 -10 C310 -10 368 4 430 52 L387 104 C339 68 298 58 245 58 C134 58 94 114 94 199 C94 228 98 260 104 290 C134 433 197 492 310 492 C401 492 433 455 454 427 L518 477 C486 519 434 565 315 565 C148 565 65 476 29 303 C21 265 17 228 17 192 C17 92 58 16 171 -4 L148 -63 L166 -79 C215 -76 252 -84 252 -118 C252 -151 235 -177 177 -177 C127 -177 97 -161 74 -144 L43 -187 C70 -205 111 -225 178 -225 L178 -225 Z " />
<glyph glyph-name="egrave" unicode="&#xe8;" horiz-adv-x="573" d="M239 -11 C320 -11 386 1 449 41 L417 99 C370 70 316 56 246 56 C125 56 89 115 89 195 C89 213 90 232 93 251 L496 251 C507 302 516 361 516 406 C516 496 475 565 311 565 C141 565 63 466 29 303 C21 265 16 226 16 189 C16 77 67 -11 239 -11 L239 -11 Z M304 496 C416 496 443 454 443 395 C443 370 439 348 434 320 L107 320 C136 431 191 496 304 496 L304 496 Z M345 610 L413 610 L295 766 L207 766 L345 610 Z " />
<glyph glyph-name="eacute" unicode="&#xe9;" horiz-adv-x="573" d="M259 610 L334 610 L539 766 L443 766 L259 610 Z M239 -11 C320 -11 386 1 449 41 L417 99 C370 70 316 56 246 56 C125 56 89 115 89 195 C89 213 90 232 93 251 L496 251 C507 302 516 361 516 406 C516 496 475 565 311 565 C141 565 63 466 29 303 C21 265 16 226 16 189 C16 77 67 -11 239 -11 L239 -11 Z M304 496 C416 496 443 454 443 395 C443 370 439 348 434 320 L107 320 C136 431 191 496 304 496 L304 496 Z " />
<glyph glyph-name="ecircumflex" unicode="&#xea;" horiz-adv-x="573" d="M150 610 L226 610 L362 717 L451 610 L525 610 L413 766 L328 766 L150 610 Z M239 -11 C320 -11 386 1 449 41 L417 99 C370 70 316 56 246 56 C125 56 89 115 89 195 C89 213 90 232 93 251 L496 251 C507 302 516 361 516 406 C516 496 475 565 311 565 C141 565 63 466 29 303 C21 265 16 226 16 189 C16 77 67 -11 239 -11 L239 -11 Z M304 496 C416 496 443 454 443 395 C443 370 439 348 434 320 L107 320 C136 431 191 496 304 496 L304 496 Z " />
<glyph glyph-name="edieresis" unicode="&#xeb;" horiz-adv-x="573" d="M205 610 L275 610 L296 712 L226 712 L205 610 Z M401 610 L471 610 L492 712 L422 712 L401 610 Z M239 -11 C320 -11 386 1 449 41 L417 99 C370 70 316 56 246 56 C125 56 89 115 89 195 C89 213 90 232 93 251 L496 251 C507 302 516 361 516 406 C516 496 475 565 311 565 C141 565 63 466 29 303 C21 265 16 226 16 189 C16 77 67 -11 239 -11 L239 -11 Z M304 496 C416 496 443 454 443 395 C443 370 439 348 434 320 L107 320 C136 431 191 496 304 496 L304 496 Z " />
<glyph glyph-name="igrave" unicode="&#xec;" horiz-adv-x="238" d="M128 610 L196 610 L127 766 L38 766 L128 610 Z M2 0 L78 0 L194 552 L119 552 L2 0 Z " />
<glyph glyph-name="iacute" unicode="&#xed;" horiz-adv-x="238" d="M130 610 L203 610 L368 766 L274 766 L130 610 Z M2 0 L78 0 L194 552 L119 552 L2 0 Z " />
<glyph glyph-name="icircumflex" unicode="&#xee;" horiz-adv-x="238" d="M1 610 L78 610 L193 717 L262 610 L336 610 L244 766 L160 766 L1 610 Z M2 0 L78 0 L194 552 L119 552 L2 0 Z " />
<glyph glyph-name="idieresis" unicode="&#xef;" horiz-adv-x="238" d="M49 610 L114 610 L136 712 L70 712 L49 610 Z M223 610 L289 610 L310 712 L244 712 L223 610 Z M2 0 L78 0 L194 552 L119 552 L2 0 Z " />
<glyph glyph-name="eth" unicode="&#xf0;" horiz-adv-x="611" d="M334 594 L458 626 C478 583 489 535 486 485 C458 530 405 554 300 554 C152 554 66 475 29 303 C21 266 17 232 17 197 C17 71 84 -11 254 -11 C406 -11 498 54 541 243 C559 321 567 392 567 456 C567 532 554 594 533 646 L649 676 L662 746 L503 703 C483 735 460 761 436 785 L365 753 C387 731 407 708 425 683 L347 662 L334 594 Z M254 58 C139 58 94 112 94 199 C94 227 97 256 104 286 C134 422 197 482 314 482 C430 482 475 426 475 337 C475 312 472 283 465 252 C434 115 370 58 254 58 L254 58 Z " />
<glyph glyph-name="ntilde" unicode="&#xf1;" horiz-adv-x="600" d="M-3 0 L73 0 L140 316 C161 412 200 490 322 490 C478 490 458 409 438 311 L372 0 L448 0 L516 319 C544 455 555 565 348 565 C250 565 199 535 167 503 L174 552 L113 548 L-3 0 Z M434 613 C476 613 512 640 553 688 L512 727 C484 696 463 677 437 677 C388 677 359 725 293 725 C245 725 205 696 171 656 L212 616 C234 640 260 662 290 662 C340 662 368 613 434 613 L434 613 Z " />
<glyph glyph-name="ograve" unicode="&#xf2;" horiz-adv-x="611" d="M251 -11 C405 -11 502 61 542 250 C549 288 554 324 554 356 C554 484 486 565 319 565 C165 565 70 493 29 303 C22 265 17 230 17 198 C17 70 85 -11 251 -11 L251 -11 Z M254 58 C139 58 94 113 94 201 C94 230 97 260 104 290 C134 431 198 493 315 493 C431 493 476 436 476 346 C476 320 473 289 466 258 C436 118 370 58 254 58 L254 58 Z M362 610 L430 610 L312 766 L224 766 L362 610 Z " />
<glyph glyph-name="oacute" unicode="&#xf3;" horiz-adv-x="611" d="M276 610 L351 610 L556 766 L460 766 L276 610 Z M251 -11 C405 -11 502 61 542 250 C549 288 554 324 554 356 C554 484 486 565 319 565 C165 565 70 493 29 303 C22 265 17 230 17 198 C17 70 85 -11 251 -11 L251 -11 Z M254 58 C139 58 94 113 94 201 C94 230 97 260 104 290 C134 431 198 493 315 493 C431 493 476 436 476 346 C476 320 473 289 466 258 C436 118 370 58 254 58 L254 58 Z " />
<glyph glyph-name="ocircumflex" unicode="&#xf4;" horiz-adv-x="611" d="M167 610 L243 610 L379 717 L468 610 L542 610 L430 766 L345 766 L167 610 Z M251 -11 C405 -11 502 61 542 250 C549 288 554 324 554 356 C554 484 486 565 319 565 C165 565 70 493 29 303 C22 265 17 230 17 198 C17 70 85 -11 251 -11 L251 -11 Z M254 58 C139 58 94 113 94 201 C94 230 97 260 104 290 C134 431 198 493 315 493 C431 493 476 436 476 346 C476 320 473 289 466 258 C436 118 370 58 254 58 L254 58 Z " />
<glyph glyph-name="otilde" unicode="&#xf5;" horiz-adv-x="611" d="M251 -11 C405 -11 502 61 542 250 C549 288 554 324 554 356 C554 484 486 565 319 565 C165 565 70 493 29 303 C22 265 17 230 17 198 C17 70 85 -11 251 -11 L251 -11 Z M254 58 C139 58 94 113 94 201 C94 230 97 260 104 290 C134 431 198 493 315 493 C431 493 476 436 476 346 C476 320 473 289 466 258 C436 118 370 58 254 58 L254 58 Z M439 613 C481 613 517 640 558 688 L517 727 C489 696 468 677 442 677 C393 677 364 725 298 725 C250 725 210 696 176 656 L217 616 C239 640 265 662 295 662 C345 662 373 613 439 613 L439 613 Z " />
<glyph glyph-name="odieresis" unicode="&#xf6;" horiz-adv-x="611" d="M222 610 L292 610 L313 712 L243 712 L222 610 Z M418 610 L488 610 L509 712 L439 712 L418 610 Z M251 -11 C405 -11 502 61 542 250 C549 288 554 324 554 356 C554 484 486 565 319 565 C165 565 70 493 29 303 C22 265 17 230 17 198 C17 70 85 -11 251 -11 L251 -11 Z M254 58 C139 58 94 113 94 201 C94 230 97 260 104 290 C134 431 198 493 315 493 C431 493 476 436 476 346 C476 320 473 289 466 258 C436 118 370 58 254 58 L254 58 Z " />
<glyph glyph-name="divide" unicode="&#xf7;" horiz-adv-x="696" d="M246 108 L338 108 L358 201 L266 201 L246 108 Z M94 317 L577 317 L593 389 L110 389 L94 317 Z M331 505 L422 505 L441 598 L350 598 L331 505 Z " />
<glyph glyph-name="oslash" unicode="&#xf8;" horiz-adv-x="611" d="M251 -11 C405 -11 502 61 542 250 C549 288 554 324 554 356 C554 418 537 470 501 506 L573 595 L504 595 L458 537 C423 555 377 565 319 565 C165 565 70 493 29 303 C22 265 17 230 17 198 C17 135 33 84 69 48 L-3 -42 L66 -42 L112 17 C147 -1 193 -11 251 -11 L251 -11 Z M254 54 C212 54 179 61 154 74 L450 446 C471 421 480 387 480 347 C480 320 476 289 469 258 C438 116 373 54 254 54 L254 54 Z M91 200 C91 229 95 259 102 291 C132 433 197 496 316 496 C356 496 387 489 412 477 L117 105 C99 130 91 161 91 200 L91 200 Z " />
<glyph glyph-name="ugrave" unicode="&#xf9;" horiz-adv-x="594" d="M251 -11 C422 -11 455 62 487 212 L559 552 L485 552 L414 217 C393 121 378 59 256 59 C88 59 98 138 121 241 L186 552 L110 552 L46 249 C16 103 15 -11 251 -11 L251 -11 Z M354 610 L422 610 L304 766 L216 766 L354 610 Z " />
<glyph glyph-name="uacute" unicode="&#xfa;" horiz-adv-x="594" d="M268 610 L343 610 L548 766 L452 766 L268 610 Z M251 -11 C422 -11 455 62 487 212 L559 552 L485 552 L414 217 C393 121 378 59 256 59 C88 59 98 138 121 241 L186 552 L110 552 L46 249 C16 103 15 -11 251 -11 L251 -11 Z " />
<glyph glyph-name="ucircumflex" unicode="&#xfb;" horiz-adv-x="594" d="M159 610 L235 610 L371 717 L460 610 L534 610 L422 766 L337 766 L159 610 Z M251 -11 C422 -11 455 62 487 212 L559 552 L485 552 L414 217 C393 121 378 59 256 59 C88 59 98 138 121 241 L186 552 L110 552 L46 249 C16 103 15 -11 251 -11 L251 -11 Z " />
<glyph glyph-name="udieresis" unicode="&#xfc;" horiz-adv-x="594" d="M214 610 L284 610 L305 712 L235 712 L214 610 Z M410 610 L480 610 L501 712 L431 712 L410 610 Z M251 -11 C422 -11 455 62 487 212 L559 552 L485 552 L414 217 C393 121 378 59 256 59 C88 59 98 138 121 241 L186 552 L110 552 L46 249 C16 103 15 -11 251 -11 L251 -11 Z " />
<glyph glyph-name="yacute" unicode="&#xfd;" horiz-adv-x="510" d="M22 -167 C97 -167 128 -143 174 -63 L536 552 L455 552 L197 101 L128 552 L50 552 L139 8 L107 -45 C80 -91 69 -104 19 -104 L-24 -104 L-36 -166 C-26 -167 3 -167 22 -167 L22 -167 Z M228 610 L303 610 L508 766 L412 766 L228 610 Z " />
<glyph glyph-name="thorn" unicode="&#xfe;" horiz-adv-x="627" d="M-37 -165 L38 -165 L89 78 C106 20 167 -9 295 -9 C456 -9 520 84 557 250 C567 291 572 331 572 366 C572 483 520 565 366 565 C271 565 216 548 179 503 L238 776 L163 776 L-37 -165 Z M286 60 C170 60 122 102 122 196 C122 224 127 257 135 293 C170 456 230 493 343 493 C455 493 493 438 493 353 C493 324 488 292 481 257 C451 123 400 60 286 60 L286 60 Z " />
<glyph glyph-name="ydieresis" unicode="&#xff;" horiz-adv-x="510" d="M22 -167 C97 -167 128 -143 174 -63 L536 552 L455 552 L197 101 L128 552 L50 552 L139 8 L107 -45 C80 -91 69 -104 19 -104 L-24 -104 L-36 -166 C-26 -167 3 -167 22 -167 L22 -167 Z M174 610 L244 610 L265 712 L195 712 L174 610 Z M370 610 L440 610 L461 712 L391 712 L370 610 Z " />
<glyph glyph-name="dotlessi" unicode="&#x131;" horiz-adv-x="238" d="M2 0 L78 0 L194 552 L119 552 L2 0 Z " />
<glyph glyph-name="Lslash" unicode="&#x141;" horiz-adv-x="573" d="M-13 304 L83 352 L8 0 L467 0 L481 72 L101 72 L170 395 L358 489 L374 560 L185 466 L244 741 L166 741 L98 422 L1 374 L-13 304 Z " />
<glyph glyph-name="lslash" unicode="&#x142;" horiz-adv-x="353" d="M25 388 L138 446 L74 144 C53 47 66 -1 164 -1 C180 -1 198 0 206 1 L220 65 L196 65 C140 65 137 83 148 138 L223 489 L348 554 L363 622 L237 557 L284 776 L208 776 L152 513 L40 455 L25 388 Z " />
<glyph glyph-name="OE" unicode="&#x152;" horiz-adv-x="1233" d="M368 -12 C487 -12 582 24 654 113 L630 0 L1096 0 L1111 72 L716 72 L776 349 L1156 349 L1171 421 L791 421 L843 666 L1234 666 L1250 741 L788 741 L754 584 C714 693 614 753 450 753 C266 753 102 673 46 409 C37 364 32 323 33 285 C33 96 148 -12 368 -12 L368 -12 Z M369 61 C192 61 113 151 113 291 C113 326 116 362 124 398 C166 595 282 678 447 678 C625 678 705 588 705 447 C705 414 701 378 693 341 C650 139 533 61 369 61 L369 61 Z " />
<glyph glyph-name="oe" unicode="&#x153;" horiz-adv-x="1016" d="M683 -11 C764 -11 830 1 893 41 L861 99 C814 70 760 56 690 56 C569 56 533 115 533 195 C533 213 534 232 537 251 L940 251 C951 302 960 361 960 406 C960 496 919 565 755 565 C644 565 576 523 532 449 C506 522 440 565 319 565 C165 565 70 493 29 303 C22 265 17 230 17 198 C17 70 85 -11 251 -11 C355 -11 430 22 480 102 C502 34 559 -11 683 -11 L683 -11 Z M254 58 C139 58 94 113 94 201 C94 230 97 260 104 290 C134 431 198 493 315 493 C431 493 476 436 476 346 C476 320 473 289 466 258 C436 118 370 58 254 58 L254 58 Z M748 496 C860 496 887 454 887 395 C887 370 883 347 878 319 L550 319 C580 430 635 496 748 496 L748 496 Z " />
<glyph glyph-name="Scaron" unicode="&#x160;" horiz-adv-x="683" d="M385 785 L470 785 L648 941 L571 941 L436 834 L346 941 L273 941 L385 785 Z M300 -10 C454 -10 591 44 591 219 C591 343 499 373 355 416 C257 445 187 466 187 545 C187 649 272 681 367 681 C480 681 549 649 594 614 L645 674 C594 714 516 753 369 753 C236 753 107 703 107 539 C107 414 202 386 322 348 C438 312 511 296 511 205 C511 89 409 60 303 60 C185 60 103 89 26 145 L-23 87 C60 26 154 -10 300 -10 L300 -10 Z " />
<glyph glyph-name="scaron" unicode="&#x161;" horiz-adv-x="502" d="M259 610 L344 610 L522 766 L445 766 L310 659 L220 766 L147 766 L259 610 Z M210 -10 C325 -10 422 29 422 168 C422 262 341 291 261 316 C198 335 138 354 138 405 C138 468 185 495 260 495 C344 495 394 469 427 446 L475 505 C434 535 368 565 265 565 C146 565 61 515 61 397 C61 303 145 277 221 254 C285 235 346 216 346 161 C346 76 285 56 216 56 C141 56 69 81 17 123 L-32 69 C27 19 112 -10 210 -10 L210 -10 Z " />
<glyph glyph-name="Ydieresis" unicode="&#x178;" horiz-adv-x="680" d="M220 0 L299 0 L360 289 L740 741 L653 741 L336 366 L176 741 L94 741 L283 292 L220 0 Z M293 785 L363 785 L384 887 L314 887 L293 785 Z M489 785 L559 785 L580 887 L510 887 L489 785 Z " />
<glyph glyph-name="Zcaron" unicode="&#x17d;" horiz-adv-x="645" d="M367 785 L452 785 L630 941 L553 941 L418 834 L328 941 L255 941 L367 785 Z M-34 0 L518 0 L533 72 L84 72 L651 673 L665 741 L141 741 L125 666 L548 666 L-21 63 L-34 0 Z " />
<glyph glyph-name="zcaron" unicode="&#x17e;" horiz-adv-x="482" d="M250 610 L335 610 L513 766 L436 766 L301 659 L211 766 L138 766 L250 610 Z M-46 0 L373 0 L386 65 L66 65 L466 494 L478 552 L88 552 L75 483 L365 483 L-34 57 L-46 0 Z " />
<glyph glyph-name="florin" unicode="&#x192;" horiz-adv-x="530" d="M97 382 L210 382 L94 -166 L170 -166 L286 382 L450 382 L465 451 L300 451 L324 561 C336 620 349 670 438 670 L467 670 L481 741 L434 741 C293 741 271 671 253 582 L225 451 L112 451 L97 382 Z " />
<glyph glyph-name="circumflex" unicode="&#x2c6;" horiz-adv-x="590" d="M158 610 L234 610 L370 717 L459 610 L533 610 L421 766 L336 766 L158 610 Z " />
<glyph glyph-name="caron" unicode="&#x2c7;" horiz-adv-x="590" d="M303 610 L388 610 L566 766 L489 766 L354 659 L264 766 L191 766 L303 610 Z " />
<glyph glyph-name="breve" unicode="&#x2d8;" horiz-adv-x="590" d="M356 602 C476 602 528 671 556 751 L500 763 C477 707 448 665 358 665 C267 665 255 707 255 763 L194 754 C195 674 219 602 356 602 L356 602 Z " />
<glyph glyph-name="dotaccent" unicode="&#x2d9;" horiz-adv-x="590" d="M307 610 L384 610 L406 717 L330 717 L307 610 Z " />
<glyph glyph-name="ring" unicode="&#x2da;" horiz-adv-x="590" d="M359 602 C434 602 492 653 492 744 C492 800 459 848 381 848 C302 848 246 789 246 700 C246 646 278 602 359 602 L359 602 Z M360 647 C313 647 291 672 291 705 C291 763 328 803 379 803 C428 803 446 774 446 740 C446 681 410 647 360 647 L360 647 Z " />
<glyph glyph-name="ogonek" unicode="&#x2db;" horiz-adv-x="590" d="M196 -220 C234 -220 278 -210 307 -196 L284 -144 C260 -155 232 -162 207 -162 C157 -162 143 -147 143 -122 C143 -73 203 -26 266 7 L190 7 C140 -17 72 -67 72 -142 C72 -187 99 -220 196 -220 L196 -220 Z " />
<glyph glyph-name="tilde" unicode="&#x2dc;" horiz-adv-x="590" d="M430 613 C472 613 508 640 549 688 L508 727 C480 696 459 677 433 677 C384 677 355 725 289 725 C241 725 201 696 167 656 L208 616 C230 640 256 662 286 662 C336 662 364 613 430 613 L430 613 Z " />
<glyph glyph-name="hungarumlaut" unicode="&#x2dd;" horiz-adv-x="590" d="M139 610 L208 610 L389 766 L298 766 L139 610 Z M366 610 L435 610 L616 766 L526 766 L366 610 Z " />
<glyph glyph-name="&amp;#x394;" unicode="&#x394;" horiz-adv-x="596" d="M54 483 L159 483 L21 -165 L97 -165 L235 483 L371 483 L385 552 L249 552 L262 610 C275 669 299 709 383 709 L419 709 L433 776 L382 776 C256 776 210 721 188 619 L173 552 L69 552 L54 483 Z M247 -167 L275 -167 C376 -167 407 -139 430 -27 L554 552 L478 552 L356 -18 C342 -86 328 -104 266 -104 L259 -104 L247 -167 Z M494 625 L570 625 L592 733 L516 733 L494 625 Z " />
<glyph glyph-name="&amp;#x2206;" unicode="&#x2206;" horiz-adv-x="596" d="M54 483 L159 483 L21 -165 L97 -165 L235 483 L371 483 L385 552 L249 552 L262 610 C275 669 299 709 383 709 L419 709 L433 776 L382 776 C256 776 210 721 188 619 L173 552 L69 552 L54 483 Z M247 -167 L275 -167 C376 -167 407 -139 430 -27 L554 552 L478 552 L356 -18 C342 -86 328 -104 266 -104 L259 -104 L247 -167 Z M494 625 L570 625 L592 733 L516 733 L494 625 Z " />
<glyph glyph-name="&amp;#x3a9;" unicode="&#x3a9;" horiz-adv-x="832" d="M126 120 C126 120 129 123 134 127 C79 193 46 278 46 371 C46 464 79 549 133 615 C129 619 126 621 126 621 C70 554 36 466 36 371 C36 275 70 187 126 120 L126 120 Z M228 211 C230 213 233 215 235 218 C201 259 181 313 181 371 C181 429 202 483 235 524 C232 526 230 529 227 531 C192 487 171 432 171 371 C171 310 193 254 228 211 L228 211 Z M264 243 C267 245 269 248 272 250 C245 283 229 325 229 371 C229 417 245 459 272 492 C269 494 267 497 264 499 C236 464 219 419 219 371 C219 322 236 278 264 243 L264 243 Z M316 289 C319 291 321 294 324 296 C308 317 298 343 298 371 C298 399 308 425 323 445 C321 448 318 450 316 452 C298 430 288 402 288 371 C288 340 298 312 316 289 L316 289 Z M349 320 C352 323 354 325 357 327 C348 340 343 355 343 371 C343 387 348 402 357 415 C354 417 352 420 349 422 C339 408 333 390 333 371 C333 352 339 334 349 320 L349 320 Z M378 346 C382 349 384 351 384 351 C381 357 379 364 379 371 C379 378 381 385 384 391 C384 391 382 393 378 396 C374 389 371 380 371 371 C371 362 374 353 378 346 L378 346 Z M416 60 C493 60 563 89 616 136 C614 139 611 141 609 144 C558 98 490 70 416 70 C342 70 274 98 222 144 C222 145 215 137 215 137 C268 89 338 60 416 60 L416 60 Z M416 324 C426 324 435 327 442 333 C439 337 437 339 437 339 C431 334 424 332 416 332 C408 332 401 335 395 339 C395 339 391 334 389 333 C397 327 406 324 416 324 L416 324 Z M482 319 C493 334 499 352 499 371 C499 390 493 408 482 422 C483 422 475 415 475 415 C484 403 489 388 489 371 C489 355 484 339 475 326 C478 324 480 322 482 319 L482 319 Z M292 269 C295 271 298 274 300 276 C280 302 267 335 267 371 C267 407 280 440 300 466 L293 473 C270 445 257 410 257 371 C257 333 270 297 292 269 L292 269 Z M416 -17 C512 -17 600 19 667 80 C667 80 660 88 660 87 C595 29 510 -7 416 -7 C322 -7 236 29 171 88 L164 80 C231 20 320 -17 416 -17 L416 -17 Z M416 121 C478 121 534 144 576 182 C574 185 571 187 569 190 C529 153 475 131 416 131 C357 131 303 153 262 190 L255 182 C298 144 354 121 416 121 L416 121 Z M416 170 C465 170 510 188 544 218 C542 221 539 223 537 226 C505 197 462 180 416 180 C369 180 327 197 294 226 L287 219 C322 189 367 170 416 170 L416 170 Z M416 209 C455 209 491 224 518 247 C516 250 514 253 512 255 C486 233 452 219 416 219 C380 219 346 233 320 255 L313 247 C341 224 377 209 416 209 L416 209 Z M416 265 C441 265 463 274 481 289 C479 292 476 294 474 297 C458 283 438 275 416 275 C394 275 373 283 357 297 L350 289 C368 274 391 265 416 265 L416 265 Z M358 445 C374 459 394 467 416 467 C438 467 458 459 474 445 L482 453 C464 468 441 477 416 477 C391 477 368 468 350 453 C351 452 354 448 358 445 L358 445 Z M570 552 C572 554 575 557 577 560 C534 598 478 621 416 621 C355 621 299 598 256 560 L263 553 C304 589 357 611 416 611 C475 611 529 589 570 552 L570 552 Z M454 346 C458 353 461 362 461 371 C461 380 458 389 454 396 L448 391 C451 385 453 378 453 371 C453 364 451 357 448 351 C448 351 450 349 454 346 L454 346 Z M468 333 C476 344 480 357 480 371 C480 385 476 398 468 409 L460 402 C466 393 470 382 470 371 C470 360 466 349 460 340 C463 338 465 336 468 333 L468 333 Z M498 306 C511 325 519 347 519 371 C519 395 511 418 497 436 L490 429 C502 413 509 393 509 371 C509 349 502 329 490 313 C492 311 495 308 498 306 L498 306 Z M540 269 C562 297 575 332 575 371 C575 410 562 445 539 473 L531 466 C552 440 565 407 565 371 C565 335 552 302 532 276 C535 274 537 271 540 269 L540 269 Z M568 243 C596 278 613 322 613 371 C613 420 596 464 568 499 L560 492 C587 459 603 417 603 371 C603 325 587 283 560 250 C563 248 566 245 568 243 L568 243 Z M604 211 C640 254 661 310 661 371 C661 432 640 488 604 531 L596 524 C631 483 651 429 651 371 C651 313 631 260 596 218 C601 213 604 211 604 211 L604 211 Z M649 171 C694 225 721 295 721 371 C721 447 694 517 649 571 L641 564 C685 512 711 445 711 371 C711 297 685 230 642 177 C644 175 647 173 649 171 L649 171 Z M706 120 C762 188 796 276 796 371 C796 467 762 555 706 622 L698 615 C753 549 786 464 786 371 C786 278 753 193 698 127 C703 123 706 120 706 120 L706 120 Z M183 170 L190 177 C147 229 121 297 121 371 C121 444 147 512 190 564 C187 567 184 569 182 571 C138 517 111 447 111 371 C111 294 138 225 183 170 L183 170 Z M334 306 L342 314 C330 330 323 350 323 371 C323 393 330 413 342 429 C340 431 337 434 334 436 C321 418 313 395 313 371 C313 346 321 324 334 306 L334 306 Z M364 333 L371 340 C366 349 362 360 362 371 C362 382 366 393 371 402 C369 404 366 406 364 409 C356 398 352 385 352 371 C352 357 356 344 364 333 L364 333 Z M395 403 C401 408 408 410 416 410 C424 410 431 407 437 403 C437 403 439 406 442 409 C435 415 426 418 416 418 C406 418 397 415 390 409 L395 403 Z M384 416 C393 423 404 428 416 428 C428 428 439 424 448 416 C450 419 452 421 454 423 C443 432 430 437 416 437 C401 437 388 432 377 423 L384 416 Z M371 430 C383 441 399 447 416 447 C433 447 449 441 461 430 C461 430 464 434 468 438 C454 450 436 457 416 457 C397 457 378 450 364 438 L371 430 Z M295 516 C327 545 370 562 416 562 C462 562 505 545 538 516 C538 516 545 523 544 523 C510 554 465 572 416 572 C367 572 322 554 288 524 L295 516 Z M416 240 C448 240 476 252 498 271 L491 278 C471 261 445 250 416 250 C388 250 361 261 340 278 L333 270 C355 251 384 240 416 240 L416 240 Z M416 285 C436 285 454 292 468 304 L461 312 C448 301 433 295 416 295 C399 295 383 302 370 312 L363 304 C378 292 396 285 416 285 L416 285 Z M416 305 C430 305 444 310 455 319 L448 326 C439 319 428 314 416 314 C404 314 393 319 383 326 L376 319 C388 310 401 305 416 305 L416 305 Z M341 464 C362 482 388 492 416 492 C445 492 471 481 491 464 L498 472 C476 491 447 502 416 502 C385 502 356 490 334 471 L341 464 Z M320 487 C346 509 380 523 416 523 C453 523 486 510 512 487 L518 494 C491 518 455 533 416 533 C377 533 341 519 313 495 L320 487 Z M610 597 L617 605 C563 653 493 682 416 682 C339 682 269 653 215 605 L222 598 C274 644 342 672 416 672 C491 672 559 644 610 597 L610 597 Z M172 654 C237 713 322 749 416 749 C510 749 596 713 661 654 L668 662 C601 722 512 759 416 759 C320 759 232 723 165 662 L172 654 Z M516 290 C534 312 544 340 544 371 C544 402 534 430 516 453 L508 446 C524 425 534 399 534 371 C534 343 524 317 509 297 L516 290 Z " />
<glyph glyph-name="&amp;#x2126;" unicode="&#x2126;" horiz-adv-x="832" d="M126 120 C126 120 129 123 134 127 C79 193 46 278 46 371 C46 464 79 549 133 615 C129 619 126 621 126 621 C70 554 36 466 36 371 C36 275 70 187 126 120 L126 120 Z M228 211 C230 213 233 215 235 218 C201 259 181 313 181 371 C181 429 202 483 235 524 C232 526 230 529 227 531 C192 487 171 432 171 371 C171 310 193 254 228 211 L228 211 Z M264 243 C267 245 269 248 272 250 C245 283 229 325 229 371 C229 417 245 459 272 492 C269 494 267 497 264 499 C236 464 219 419 219 371 C219 322 236 278 264 243 L264 243 Z M316 289 C319 291 321 294 324 296 C308 317 298 343 298 371 C298 399 308 425 323 445 C321 448 318 450 316 452 C298 430 288 402 288 371 C288 340 298 312 316 289 L316 289 Z M349 320 C352 323 354 325 357 327 C348 340 343 355 343 371 C343 387 348 402 357 415 C354 417 352 420 349 422 C339 408 333 390 333 371 C333 352 339 334 349 320 L349 320 Z M378 346 C382 349 384 351 384 351 C381 357 379 364 379 371 C379 378 381 385 384 391 C384 391 382 393 378 396 C374 389 371 380 371 371 C371 362 374 353 378 346 L378 346 Z M416 60 C493 60 563 89 616 136 C614 139 611 141 609 144 C558 98 490 70 416 70 C342 70 274 98 222 144 C222 145 215 137 215 137 C268 89 338 60 416 60 L416 60 Z M416 324 C426 324 435 327 442 333 C439 337 437 339 437 339 C431 334 424 332 416 332 C408 332 401 335 395 339 C395 339 391 334 389 333 C397 327 406 324 416 324 L416 324 Z M482 319 C493 334 499 352 499 371 C499 390 493 408 482 422 C483 422 475 415 475 415 C484 403 489 388 489 371 C489 355 484 339 475 326 C478 324 480 322 482 319 L482 319 Z M292 269 C295 271 298 274 300 276 C280 302 267 335 267 371 C267 407 280 440 300 466 L293 473 C270 445 257 410 257 371 C257 333 270 297 292 269 L292 269 Z M416 -17 C512 -17 600 19 667 80 C667 80 660 88 660 87 C595 29 510 -7 416 -7 C322 -7 236 29 171 88 L164 80 C231 20 320 -17 416 -17 L416 -17 Z M416 121 C478 121 534 144 576 182 C574 185 571 187 569 190 C529 153 475 131 416 131 C357 131 303 153 262 190 L255 182 C298 144 354 121 416 121 L416 121 Z M416 170 C465 170 510 188 544 218 C542 221 539 223 537 226 C505 197 462 180 416 180 C369 180 327 197 294 226 L287 219 C322 189 367 170 416 170 L416 170 Z M416 209 C455 209 491 224 518 247 C516 250 514 253 512 255 C486 233 452 219 416 219 C380 219 346 233 320 255 L313 247 C341 224 377 209 416 209 L416 209 Z M416 265 C441 265 463 274 481 289 C479 292 476 294 474 297 C458 283 438 275 416 275 C394 275 373 283 357 297 L350 289 C368 274 391 265 416 265 L416 265 Z M358 445 C374 459 394 467 416 467 C438 467 458 459 474 445 L482 453 C464 468 441 477 416 477 C391 477 368 468 350 453 C351 452 354 448 358 445 L358 445 Z M570 552 C572 554 575 557 577 560 C534 598 478 621 416 621 C355 621 299 598 256 560 L263 553 C304 589 357 611 416 611 C475 611 529 589 570 552 L570 552 Z M454 346 C458 353 461 362 461 371 C461 380 458 389 454 396 L448 391 C451 385 453 378 453 371 C453 364 451 357 448 351 C448 351 450 349 454 346 L454 346 Z M468 333 C476 344 480 357 480 371 C480 385 476 398 468 409 L460 402 C466 393 470 382 470 371 C470 360 466 349 460 340 C463 338 465 336 468 333 L468 333 Z M498 306 C511 325 519 347 519 371 C519 395 511 418 497 436 L490 429 C502 413 509 393 509 371 C509 349 502 329 490 313 C492 311 495 308 498 306 L498 306 Z M540 269 C562 297 575 332 575 371 C575 410 562 445 539 473 L531 466 C552 440 565 407 565 371 C565 335 552 302 532 276 C535 274 537 271 540 269 L540 269 Z M568 243 C596 278 613 322 613 371 C613 420 596 464 568 499 L560 492 C587 459 603 417 603 371 C603 325 587 283 560 250 C563 248 566 245 568 243 L568 243 Z M604 211 C640 254 661 310 661 371 C661 432 640 488 604 531 L596 524 C631 483 651 429 651 371 C651 313 631 260 596 218 C601 213 604 211 604 211 L604 211 Z M649 171 C694 225 721 295 721 371 C721 447 694 517 649 571 L641 564 C685 512 711 445 711 371 C711 297 685 230 642 177 C644 175 647 173 649 171 L649 171 Z M706 120 C762 188 796 276 796 371 C796 467 762 555 706 622 L698 615 C753 549 786 464 786 371 C786 278 753 193 698 127 C703 123 706 120 706 120 L706 120 Z M183 170 L190 177 C147 229 121 297 121 371 C121 444 147 512 190 564 C187 567 184 569 182 571 C138 517 111 447 111 371 C111 294 138 225 183 170 L183 170 Z M334 306 L342 314 C330 330 323 350 323 371 C323 393 330 413 342 429 C340 431 337 434 334 436 C321 418 313 395 313 371 C313 346 321 324 334 306 L334 306 Z M364 333 L371 340 C366 349 362 360 362 371 C362 382 366 393 371 402 C369 404 366 406 364 409 C356 398 352 385 352 371 C352 357 356 344 364 333 L364 333 Z M395 403 C401 408 408 410 416 410 C424 410 431 407 437 403 C437 403 439 406 442 409 C435 415 426 418 416 418 C406 418 397 415 390 409 L395 403 Z M384 416 C393 423 404 428 416 428 C428 428 439 424 448 416 C450 419 452 421 454 423 C443 432 430 437 416 437 C401 437 388 432 377 423 L384 416 Z M371 430 C383 441 399 447 416 447 C433 447 449 441 461 430 C461 430 464 434 468 438 C454 450 436 457 416 457 C397 457 378 450 364 438 L371 430 Z M295 516 C327 545 370 562 416 562 C462 562 505 545 538 516 C538 516 545 523 544 523 C510 554 465 572 416 572 C367 572 322 554 288 524 L295 516 Z M416 240 C448 240 476 252 498 271 L491 278 C471 261 445 250 416 250 C388 250 361 261 340 278 L333 270 C355 251 384 240 416 240 L416 240 Z M416 285 C436 285 454 292 468 304 L461 312 C448 301 433 295 416 295 C399 295 383 302 370 312 L363 304 C378 292 396 285 416 285 L416 285 Z M416 305 C430 305 444 310 455 319 L448 326 C439 319 428 314 416 314 C404 314 393 319 383 326 L376 319 C388 310 401 305 416 305 L416 305 Z M341 464 C362 482 388 492 416 492 C445 492 471 481 491 464 L498 472 C476 491 447 502 416 502 C385 502 356 490 334 471 L341 464 Z M320 487 C346 509 380 523 416 523 C453 523 486 510 512 487 L518 494 C491 518 455 533 416 533 C377 533 341 519 313 495 L320 487 Z M610 597 L617 605 C563 653 493 682 416 682 C339 682 269 653 215 605 L222 598 C274 644 342 672 416 672 C491 672 559 644 610 597 L610 597 Z M172 654 C237 713 322 749 416 749 C510 749 596 713 661 654 L668 662 C601 722 512 759 416 759 C320 759 232 723 165 662 L172 654 Z M516 290 C534 312 544 340 544 371 C544 402 534 430 516 453 L508 446 C524 425 534 399 534 371 C534 343 524 317 509 297 L516 290 Z " />
<glyph glyph-name="pi" unicode="&#x3c0;" horiz-adv-x="832" d="M420 -12 C668 -12 791 146 791 371 C791 596 668 754 420 754 C171 754 49 596 49 371 C49 146 171 -12 420 -12 L420 -12 Z M420 25 C190 25 87 167 87 371 C87 575 190 717 420 717 C649 717 753 575 753 371 C753 167 649 25 420 25 L420 25 Z M252 109 L306 109 L306 308 L473 308 C599 308 643 361 643 465 C643 569 599 616 473 616 L252 616 L252 109 Z M306 358 L306 565 L473 565 C554 565 587 540 587 463 C587 386 553 358 475 358 L306 358 Z " />
<glyph glyph-name="endash" unicode="&#x2013;" horiz-adv-x="681" d="M31 272 L608 272 L622 343 L46 343 L31 272 Z " />
<glyph glyph-name="emdash" unicode="&#x2014;" horiz-adv-x="901" d="M31 272 L829 272 L843 343 L46 343 L31 272 Z " />
<glyph glyph-name="quoteleft" unicode="&#x2018;" horiz-adv-x="239" d="M99 506 L199 506 L223 620 L173 620 C182 662 197 679 247 703 L229 744 C154 709 134 678 117 594 L99 506 Z " />
<glyph glyph-name="quoteright" unicode="&#x2019;" horiz-adv-x="239" d="M118 503 C194 537 213 569 230 654 L249 741 L149 741 L124 626 L174 626 C165 584 150 568 101 544 L118 503 Z " />
<glyph glyph-name="quotesinglbase" unicode="&#x201a;" horiz-adv-x="239" d="M-13 -107 C63 -73 83 -36 99 43 L118 131 L18 131 L-6 17 L44 17 C34 -26 20 -42 -29 -66 L-13 -107 Z " />
<glyph glyph-name="quotedblleft" unicode="&#x201c;" horiz-adv-x="418" d="M99 507 L198 507 L221 619 L172 619 C181 661 196 677 244 700 L228 741 C154 707 135 675 117 593 L99 507 Z M280 507 L379 507 L402 619 L353 619 C362 661 377 677 425 700 L409 741 C335 707 316 675 299 593 L280 507 Z " />
<glyph glyph-name="quotedblright" unicode="&#x201d;" horiz-adv-x="418" d="M118 507 C193 541 212 572 229 655 L247 741 L149 741 L125 629 L174 629 C165 586 150 571 101 547 L118 507 Z M299 507 C374 541 393 572 410 655 L427 741 L330 741 L306 629 L355 629 C346 586 331 571 282 547 L299 507 Z " />
<glyph glyph-name="quotedblbase" unicode="&#x201e;" horiz-adv-x="418" d="M-13 -105 C62 -72 81 -36 98 43 L116 129 L17 129 L-6 17 L43 17 C34 -26 20 -42 -29 -65 L-13 -105 Z M168 -105 C243 -72 262 -36 279 43 L297 129 L198 129 L175 17 L224 17 C215 -26 200 -42 152 -65 L168 -105 Z " />
<glyph glyph-name="dagger" unicode="&#x2020;" horiz-adv-x="541" d="M119 -166 L194 -166 L330 473 L505 473 L519 544 L344 544 L394 776 L319 776 L269 544 L95 544 L81 473 L255 473 L119 -166 Z " />
<glyph glyph-name="daggerdbl" unicode="&#x2021;" horiz-adv-x="541" d="M119 -166 L194 -166 L249 92 L424 92 L438 164 L263 164 L330 473 L505 473 L519 544 L344 544 L394 776 L319 776 L269 544 L95 544 L81 473 L255 473 L188 164 L14 164 L0 92 L174 92 L119 -166 Z " />
<glyph glyph-name="bullet" unicode="&#x2022;" horiz-adv-x="342" d="M69 225 L212 225 L244 383 L102 383 L69 225 Z " />
<glyph glyph-name="ellipsis" unicode="&#x2026;" horiz-adv-x="683" d="M-9 0 L91 0 L114 111 L13 111 L-9 0 Z M212 0 L312 0 L336 111 L235 111 L212 0 Z M435 0 L535 0 L558 111 L458 111 L435 0 Z " />
<glyph glyph-name="perthousand" unicode="&#x2030;" horiz-adv-x="1506" d="M236 284 C368 284 463 404 463 583 C463 681 415 753 293 753 C152 753 66 617 66 451 C66 353 114 284 236 284 L236 284 Z M241 346 C162 346 136 392 136 454 C136 575 186 689 290 689 C368 689 394 643 394 580 C394 449 336 346 241 346 L241 346 Z M777 -11 C908 -11 1003 109 1003 287 C1003 385 955 458 833 458 C692 458 606 321 606 156 C606 58 653 -11 777 -11 L777 -11 Z M780 51 C702 51 676 97 676 159 C676 280 727 395 829 395 C907 395 933 348 933 285 C933 154 876 51 780 51 L780 51 Z M1214 -11 C1346 -11 1442 109 1442 287 C1442 385 1393 458 1271 458 C1130 458 1044 321 1044 156 C1044 58 1092 -11 1214 -11 L1214 -11 Z M1219 51 C1140 51 1114 97 1114 159 C1114 280 1164 395 1268 395 C1346 395 1372 348 1372 285 C1372 154 1314 51 1219 51 L1219 51 Z M227 0 L299 0 L855 741 L783 741 L227 0 Z " />
<glyph glyph-name="guilsinglleft" unicode="&#x2039;" horiz-adv-x="423" d="M161 0 L229 0 L142 275 L347 552 L278 552 L69 275 L161 0 Z " />
<glyph glyph-name="guilsinglright" unicode="&#x203a;" horiz-adv-x="423" d="M35 0 L105 0 L314 276 L222 552 L154 552 L240 277 L35 0 Z " />
<glyph glyph-name="&amp;#x2044;" unicode="&#x2044;" horiz-adv-x="486" d="M-79 0 L-8 0 L565 741 L495 741 L-79 0 Z " />
<glyph glyph-name="&amp;#x2215;" unicode="&#x2215;" horiz-adv-x="486" d="M-79 0 L-8 0 L565 741 L495 741 L-79 0 Z " />
<glyph glyph-name="Euro" unicode="&#x20ac;" horiz-adv-x="643" d="M51 420 L147 420 C141 391 136 361 133 331 L31 331 L18 269 L128 269 C127 254 127 239 127 224 C127 80 188 -12 351 -12 C400 -12 455 -5 513 28 L479 86 C432 60 391 58 359 58 C242 58 201 122 201 226 C201 240 201 254 202 269 L452 269 L464 331 L207 331 C210 361 215 391 222 420 L484 420 L496 482 L239 482 C277 595 346 682 458 682 C529 682 571 665 604 644 L649 705 C608 733 550 753 459 753 C307 753 212 635 164 482 L63 482 L51 420 Z " />
<glyph glyph-name="trademark" unicode="&#x2122;" horiz-adv-x="1085" d="M469 288 L525 288 L601 635 L672 288 L714 288 L935 635 L860 288 L918 288 L1015 741 L946 741 L709 367 L633 741 L566 741 L469 288 Z M204 288 L264 288 L349 685 L506 685 L518 741 L144 741 L132 685 L289 685 L204 288 Z " />
<glyph glyph-name="partialdiff" unicode="&#x2202;" horiz-adv-x="832" d="M126 120 C126 120 129 123 134 127 C79 193 46 278 46 371 C46 464 79 549 133 615 C129 619 126 621 126 621 C70 554 36 466 36 371 C36 275 70 187 126 120 L126 120 Z M228 211 C230 213 233 215 235 218 C201 259 181 313 181 371 C181 429 202 483 235 524 C232 526 230 529 227 531 C192 487 171 432 171 371 C171 310 193 254 228 211 L228 211 Z M264 243 C267 245 269 248 272 250 C245 283 229 325 229 371 C229 417 245 459 272 492 C269 494 267 497 264 499 C236 464 219 419 219 371 C219 322 236 278 264 243 L264 243 Z M316 289 C319 291 321 294 324 296 C308 317 298 343 298 371 C298 399 308 425 323 445 C321 448 318 450 316 452 C298 430 288 402 288 371 C288 340 298 312 316 289 L316 289 Z M349 320 C352 323 354 325 357 327 C348 340 343 355 343 371 C343 387 348 402 357 415 C354 417 352 420 349 422 C339 408 333 390 333 371 C333 352 339 334 349 320 L349 320 Z M378 346 C382 349 384 351 384 351 C381 357 379 364 379 371 C379 378 381 385 384 391 C384 391 382 393 378 396 C374 389 371 380 371 371 C371 362 374 353 378 346 L378 346 Z M416 60 C493 60 563 89 616 136 C614 139 611 141 609 144 C558 98 490 70 416 70 C342 70 274 98 222 144 C222 145 215 137 215 137 C268 89 338 60 416 60 L416 60 Z M416 324 C426 324 435 327 442 333 C439 337 437 339 437 339 C431 334 424 332 416 332 C408 332 401 335 395 339 C395 339 391 334 389 333 C397 327 406 324 416 324 L416 324 Z M482 319 C493 334 499 352 499 371 C499 390 493 408 482 422 C483 422 475 415 475 415 C484 403 489 388 489 371 C489 355 484 339 475 326 C478 324 480 322 482 319 L482 319 Z M292 269 C295 271 298 274 300 276 C280 302 267 335 267 371 C267 407 280 440 300 466 L293 473 C270 445 257 410 257 371 C257 333 270 297 292 269 L292 269 Z M416 -17 C512 -17 600 19 667 80 C667 80 660 88 660 87 C595 29 510 -7 416 -7 C322 -7 236 29 171 88 L164 80 C231 20 320 -17 416 -17 L416 -17 Z M416 121 C478 121 534 144 576 182 C574 185 571 187 569 190 C529 153 475 131 416 131 C357 131 303 153 262 190 L255 182 C298 144 354 121 416 121 L416 121 Z M416 170 C465 170 510 188 544 218 C542 221 539 223 537 226 C505 197 462 180 416 180 C369 180 327 197 294 226 L287 219 C322 189 367 170 416 170 L416 170 Z M416 209 C455 209 491 224 518 247 C516 250 514 253 512 255 C486 233 452 219 416 219 C380 219 346 233 320 255 L313 247 C341 224 377 209 416 209 L416 209 Z M416 265 C441 265 463 274 481 289 C479 292 476 294 474 297 C458 283 438 275 416 275 C394 275 373 283 357 297 L350 289 C368 274 391 265 416 265 L416 265 Z M358 445 C374 459 394 467 416 467 C438 467 458 459 474 445 L482 453 C464 468 441 477 416 477 C391 477 368 468 350 453 C351 452 354 448 358 445 L358 445 Z M570 552 C572 554 575 557 577 560 C534 598 478 621 416 621 C355 621 299 598 256 560 L263 553 C304 589 357 611 416 611 C475 611 529 589 570 552 L570 552 Z M454 346 C458 353 461 362 461 371 C461 380 458 389 454 396 L448 391 C451 385 453 378 453 371 C453 364 451 357 448 351 C448 351 450 349 454 346 L454 346 Z M468 333 C476 344 480 357 480 371 C480 385 476 398 468 409 L460 402 C466 393 470 382 470 371 C470 360 466 349 460 340 C463 338 465 336 468 333 L468 333 Z M498 306 C511 325 519 347 519 371 C519 395 511 418 497 436 L490 429 C502 413 509 393 509 371 C509 349 502 329 490 313 C492 311 495 308 498 306 L498 306 Z M540 269 C562 297 575 332 575 371 C575 410 562 445 539 473 L531 466 C552 440 565 407 565 371 C565 335 552 302 532 276 C535 274 537 271 540 269 L540 269 Z M568 243 C596 278 613 322 613 371 C613 420 596 464 568 499 L560 492 C587 459 603 417 603 371 C603 325 587 283 560 250 C563 248 566 245 568 243 L568 243 Z M604 211 C640 254 661 310 661 371 C661 432 640 488 604 531 L596 524 C631 483 651 429 651 371 C651 313 631 260 596 218 C601 213 604 211 604 211 L604 211 Z M649 171 C694 225 721 295 721 371 C721 447 694 517 649 571 L641 564 C685 512 711 445 711 371 C711 297 685 230 642 177 C644 175 647 173 649 171 L649 171 Z M706 120 C762 188 796 276 796 371 C796 467 762 555 706 622 L698 615 C753 549 786 464 786 371 C786 278 753 193 698 127 C703 123 706 120 706 120 L706 120 Z M183 170 L190 177 C147 229 121 297 121 371 C121 444 147 512 190 564 C187 567 184 569 182 571 C138 517 111 447 111 371 C111 294 138 225 183 170 L183 170 Z M334 306 L342 314 C330 330 323 350 323 371 C323 393 330 413 342 429 C340 431 337 434 334 436 C321 418 313 395 313 371 C313 346 321 324 334 306 L334 306 Z M364 333 L371 340 C366 349 362 360 362 371 C362 382 366 393 371 402 C369 404 366 406 364 409 C356 398 352 385 352 371 C352 357 356 344 364 333 L364 333 Z M395 403 C401 408 408 410 416 410 C424 410 431 407 437 403 C437 403 439 406 442 409 C435 415 426 418 416 418 C406 418 397 415 390 409 L395 403 Z M384 416 C393 423 404 428 416 428 C428 428 439 424 448 416 C450 419 452 421 454 423 C443 432 430 437 416 437 C401 437 388 432 377 423 L384 416 Z M371 430 C383 441 399 447 416 447 C433 447 449 441 461 430 C461 430 464 434 468 438 C454 450 436 457 416 457 C397 457 378 450 364 438 L371 430 Z M295 516 C327 545 370 562 416 562 C462 562 505 545 538 516 C538 516 545 523 544 523 C510 554 465 572 416 572 C367 572 322 554 288 524 L295 516 Z M416 240 C448 240 476 252 498 271 L491 278 C471 261 445 250 416 250 C388 250 361 261 340 278 L333 270 C355 251 384 240 416 240 L416 240 Z M416 285 C436 285 454 292 468 304 L461 312 C448 301 433 295 416 295 C399 295 383 302 370 312 L363 304 C378 292 396 285 416 285 L416 285 Z M416 305 C430 305 444 310 455 319 L448 326 C439 319 428 314 416 314 C404 314 393 319 383 326 L376 319 C388 310 401 305 416 305 L416 305 Z M341 464 C362 482 388 492 416 492 C445 492 471 481 491 464 L498 472 C476 491 447 502 416 502 C385 502 356 490 334 471 L341 464 Z M320 487 C346 509 380 523 416 523 C453 523 486 510 512 487 L518 494 C491 518 455 533 416 533 C377 533 341 519 313 495 L320 487 Z M610 597 L617 605 C563 653 493 682 416 682 C339 682 269 653 215 605 L222 598 C274 644 342 672 416 672 C491 672 559 644 610 597 L610 597 Z M172 654 C237 713 322 749 416 749 C510 749 596 713 661 654 L668 662 C601 722 512 759 416 759 C320 759 232 723 165 662 L172 654 Z M516 290 C534 312 544 340 544 371 C544 402 534 430 516 453 L508 446 C524 425 534 399 534 371 C534 343 524 317 509 297 L516 290 Z " />
<glyph glyph-name="product" unicode="&#x220f;" horiz-adv-x="832" d="M126 120 C126 120 129 123 134 127 C79 193 46 278 46 371 C46 464 79 549 133 615 C129 619 126 621 126 621 C70 554 36 466 36 371 C36 275 70 187 126 120 L126 120 Z M228 211 C230 213 233 215 235 218 C201 259 181 313 181 371 C181 429 202 483 235 524 C232 526 230 529 227 531 C192 487 171 432 171 371 C171 310 193 254 228 211 L228 211 Z M264 243 C267 245 269 248 272 250 C245 283 229 325 229 371 C229 417 245 459 272 492 C269 494 267 497 264 499 C236 464 219 419 219 371 C219 322 236 278 264 243 L264 243 Z M316 289 C319 291 321 294 324 296 C308 317 298 343 298 371 C298 399 308 425 323 445 C321 448 318 450 316 452 C298 430 288 402 288 371 C288 340 298 312 316 289 L316 289 Z M349 320 C352 323 354 325 357 327 C348 340 343 355 343 371 C343 387 348 402 357 415 C354 417 352 420 349 422 C339 408 333 390 333 371 C333 352 339 334 349 320 L349 320 Z M378 346 C382 349 384 351 384 351 C381 357 379 364 379 371 C379 378 381 385 384 391 C384 391 382 393 378 396 C374 389 371 380 371 371 C371 362 374 353 378 346 L378 346 Z M416 60 C493 60 563 89 616 136 C614 139 611 141 609 144 C558 98 490 70 416 70 C342 70 274 98 222 144 C222 145 215 137 215 137 C268 89 338 60 416 60 L416 60 Z M416 324 C426 324 435 327 442 333 C439 337 437 339 437 339 C431 334 424 332 416 332 C408 332 401 335 395 339 C395 339 391 334 389 333 C397 327 406 324 416 324 L416 324 Z M482 319 C493 334 499 352 499 371 C499 390 493 408 482 422 C483 422 475 415 475 415 C484 403 489 388 489 371 C489 355 484 339 475 326 C478 324 480 322 482 319 L482 319 Z M292 269 C295 271 298 274 300 276 C280 302 267 335 267 371 C267 407 280 440 300 466 L293 473 C270 445 257 410 257 371 C257 333 270 297 292 269 L292 269 Z M416 -17 C512 -17 600 19 667 80 C667 80 660 88 660 87 C595 29 510 -7 416 -7 C322 -7 236 29 171 88 L164 80 C231 20 320 -17 416 -17 L416 -17 Z M416 121 C478 121 534 144 576 182 C574 185 571 187 569 190 C529 153 475 131 416 131 C357 131 303 153 262 190 L255 182 C298 144 354 121 416 121 L416 121 Z M416 170 C465 170 510 188 544 218 C542 221 539 223 537 226 C505 197 462 180 416 180 C369 180 327 197 294 226 L287 219 C322 189 367 170 416 170 L416 170 Z M416 209 C455 209 491 224 518 247 C516 250 514 253 512 255 C486 233 452 219 416 219 C380 219 346 233 320 255 L313 247 C341 224 377 209 416 209 L416 209 Z M416 265 C441 265 463 274 481 289 C479 292 476 294 474 297 C458 283 438 275 416 275 C394 275 373 283 357 297 L350 289 C368 274 391 265 416 265 L416 265 Z M358 445 C374 459 394 467 416 467 C438 467 458 459 474 445 L482 453 C464 468 441 477 416 477 C391 477 368 468 350 453 C351 452 354 448 358 445 L358 445 Z M570 552 C572 554 575 557 577 560 C534 598 478 621 416 621 C355 621 299 598 256 560 L263 553 C304 589 357 611 416 611 C475 611 529 589 570 552 L570 552 Z M454 346 C458 353 461 362 461 371 C461 380 458 389 454 396 L448 391 C451 385 453 378 453 371 C453 364 451 357 448 351 C448 351 450 349 454 346 L454 346 Z M468 333 C476 344 480 357 480 371 C480 385 476 398 468 409 L460 402 C466 393 470 382 470 371 C470 360 466 349 460 340 C463 338 465 336 468 333 L468 333 Z M498 306 C511 325 519 347 519 371 C519 395 511 418 497 436 L490 429 C502 413 509 393 509 371 C509 349 502 329 490 313 C492 311 495 308 498 306 L498 306 Z M540 269 C562 297 575 332 575 371 C575 410 562 445 539 473 L531 466 C552 440 565 407 565 371 C565 335 552 302 532 276 C535 274 537 271 540 269 L540 269 Z M568 243 C596 278 613 322 613 371 C613 420 596 464 568 499 L560 492 C587 459 603 417 603 371 C603 325 587 283 560 250 C563 248 566 245 568 243 L568 243 Z M604 211 C640 254 661 310 661 371 C661 432 640 488 604 531 L596 524 C631 483 651 429 651 371 C651 313 631 260 596 218 C601 213 604 211 604 211 L604 211 Z M649 171 C694 225 721 295 721 371 C721 447 694 517 649 571 L641 564 C685 512 711 445 711 371 C711 297 685 230 642 177 C644 175 647 173 649 171 L649 171 Z M706 120 C762 188 796 276 796 371 C796 467 762 555 706 622 L698 615 C753 549 786 464 786 371 C786 278 753 193 698 127 C703 123 706 120 706 120 L706 120 Z M183 170 L190 177 C147 229 121 297 121 371 C121 444 147 512 190 564 C187 567 184 569 182 571 C138 517 111 447 111 371 C111 294 138 225 183 170 L183 170 Z M334 306 L342 314 C330 330 323 350 323 371 C323 393 330 413 342 429 C340 431 337 434 334 436 C321 418 313 395 313 371 C313 346 321 324 334 306 L334 306 Z M364 333 L371 340 C366 349 362 360 362 371 C362 382 366 393 371 402 C369 404 366 406 364 409 C356 398 352 385 352 371 C352 357 356 344 364 333 L364 333 Z M395 403 C401 408 408 410 416 410 C424 410 431 407 437 403 C437 403 439 406 442 409 C435 415 426 418 416 418 C406 418 397 415 390 409 L395 403 Z M384 416 C393 423 404 428 416 428 C428 428 439 424 448 416 C450 419 452 421 454 423 C443 432 430 437 416 437 C401 437 388 432 377 423 L384 416 Z M371 430 C383 441 399 447 416 447 C433 447 449 441 461 430 C461 430 464 434 468 438 C454 450 436 457 416 457 C397 457 378 450 364 438 L371 430 Z M295 516 C327 545 370 562 416 562 C462 562 505 545 538 516 C538 516 545 523 544 523 C510 554 465 572 416 572 C367 572 322 554 288 524 L295 516 Z M416 240 C448 240 476 252 498 271 L491 278 C471 261 445 250 416 250 C388 250 361 261 340 278 L333 270 C355 251 384 240 416 240 L416 240 Z M416 285 C436 285 454 292 468 304 L461 312 C448 301 433 295 416 295 C399 295 383 302 370 312 L363 304 C378 292 396 285 416 285 L416 285 Z M416 305 C430 305 444 310 455 319 L448 326 C439 319 428 314 416 314 C404 314 393 319 383 326 L376 319 C388 310 401 305 416 305 L416 305 Z M341 464 C362 482 388 492 416 492 C445 492 471 481 491 464 L498 472 C476 491 447 502 416 502 C385 502 356 490 334 471 L341 464 Z M320 487 C346 509 380 523 416 523 C453 523 486 510 512 487 L518 494 C491 518 455 533 416 533 C377 533 341 519 313 495 L320 487 Z M610 597 L617 605 C563 653 493 682 416 682 C339 682 269 653 215 605 L222 598 C274 644 342 672 416 672 C491 672 559 644 610 597 L610 597 Z M172 654 C237 713 322 749 416 749 C510 749 596 713 661 654 L668 662 C601 722 512 759 416 759 C320 759 232 723 165 662 L172 654 Z M516 290 C534 312 544 340 544 371 C544 402 534 430 516 453 L508 446 C524 425 534 399 534 371 C534 343 524 317 509 297 L516 290 Z " />
<glyph glyph-name="summation" unicode="&#x2211;" horiz-adv-x="832" d="M126 120 C126 120 129 123 134 127 C79 193 46 278 46 371 C46 464 79 549 133 615 C129 619 126 621 126 621 C70 554 36 466 36 371 C36 275 70 187 126 120 L126 120 Z M228 211 C230 213 233 215 235 218 C201 259 181 313 181 371 C181 429 202 483 235 524 C232 526 230 529 227 531 C192 487 171 432 171 371 C171 310 193 254 228 211 L228 211 Z M264 243 C267 245 269 248 272 250 C245 283 229 325 229 371 C229 417 245 459 272 492 C269 494 267 497 264 499 C236 464 219 419 219 371 C219 322 236 278 264 243 L264 243 Z M316 289 C319 291 321 294 324 296 C308 317 298 343 298 371 C298 399 308 425 323 445 C321 448 318 450 316 452 C298 430 288 402 288 371 C288 340 298 312 316 289 L316 289 Z M349 320 C352 323 354 325 357 327 C348 340 343 355 343 371 C343 387 348 402 357 415 C354 417 352 420 349 422 C339 408 333 390 333 371 C333 352 339 334 349 320 L349 320 Z M378 346 C382 349 384 351 384 351 C381 357 379 364 379 371 C379 378 381 385 384 391 C384 391 382 393 378 396 C374 389 371 380 371 371 C371 362 374 353 378 346 L378 346 Z M416 60 C493 60 563 89 616 136 C614 139 611 141 609 144 C558 98 490 70 416 70 C342 70 274 98 222 144 C222 145 215 137 215 137 C268 89 338 60 416 60 L416 60 Z M416 324 C426 324 435 327 442 333 C439 337 437 339 437 339 C431 334 424 332 416 332 C408 332 401 335 395 339 C395 339 391 334 389 333 C397 327 406 324 416 324 L416 324 Z M482 319 C493 334 499 352 499 371 C499 390 493 408 482 422 C483 422 475 415 475 415 C484 403 489 388 489 371 C489 355 484 339 475 326 C478 324 480 322 482 319 L482 319 Z M292 269 C295 271 298 274 300 276 C280 302 267 335 267 371 C267 407 280 440 300 466 L293 473 C270 445 257 410 257 371 C257 333 270 297 292 269 L292 269 Z M416 -17 C512 -17 600 19 667 80 C667 80 660 88 660 87 C595 29 510 -7 416 -7 C322 -7 236 29 171 88 L164 80 C231 20 320 -17 416 -17 L416 -17 Z M416 121 C478 121 534 144 576 182 C574 185 571 187 569 190 C529 153 475 131 416 131 C357 131 303 153 262 190 L255 182 C298 144 354 121 416 121 L416 121 Z M416 170 C465 170 510 188 544 218 C542 221 539 223 537 226 C505 197 462 180 416 180 C369 180 327 197 294 226 L287 219 C322 189 367 170 416 170 L416 170 Z M416 209 C455 209 491 224 518 247 C516 250 514 253 512 255 C486 233 452 219 416 219 C380 219 346 233 320 255 L313 247 C341 224 377 209 416 209 L416 209 Z M416 265 C441 265 463 274 481 289 C479 292 476 294 474 297 C458 283 438 275 416 275 C394 275 373 283 357 297 L350 289 C368 274 391 265 416 265 L416 265 Z M358 445 C374 459 394 467 416 467 C438 467 458 459 474 445 L482 453 C464 468 441 477 416 477 C391 477 368 468 350 453 C351 452 354 448 358 445 L358 445 Z M570 552 C572 554 575 557 577 560 C534 598 478 621 416 621 C355 621 299 598 256 560 L263 553 C304 589 357 611 416 611 C475 611 529 589 570 552 L570 552 Z M454 346 C458 353 461 362 461 371 C461 380 458 389 454 396 L448 391 C451 385 453 378 453 371 C453 364 451 357 448 351 C448 351 450 349 454 346 L454 346 Z M468 333 C476 344 480 357 480 371 C480 385 476 398 468 409 L460 402 C466 393 470 382 470 371 C470 360 466 349 460 340 C463 338 465 336 468 333 L468 333 Z M498 306 C511 325 519 347 519 371 C519 395 511 418 497 436 L490 429 C502 413 509 393 509 371 C509 349 502 329 490 313 C492 311 495 308 498 306 L498 306 Z M540 269 C562 297 575 332 575 371 C575 410 562 445 539 473 L531 466 C552 440 565 407 565 371 C565 335 552 302 532 276 C535 274 537 271 540 269 L540 269 Z M568 243 C596 278 613 322 613 371 C613 420 596 464 568 499 L560 492 C587 459 603 417 603 371 C603 325 587 283 560 250 C563 248 566 245 568 243 L568 243 Z M604 211 C640 254 661 310 661 371 C661 432 640 488 604 531 L596 524 C631 483 651 429 651 371 C651 313 631 260 596 218 C601 213 604 211 604 211 L604 211 Z M649 171 C694 225 721 295 721 371 C721 447 694 517 649 571 L641 564 C685 512 711 445 711 371 C711 297 685 230 642 177 C644 175 647 173 649 171 L649 171 Z M706 120 C762 188 796 276 796 371 C796 467 762 555 706 622 L698 615 C753 549 786 464 786 371 C786 278 753 193 698 127 C703 123 706 120 706 120 L706 120 Z M183 170 L190 177 C147 229 121 297 121 371 C121 444 147 512 190 564 C187 567 184 569 182 571 C138 517 111 447 111 371 C111 294 138 225 183 170 L183 170 Z M334 306 L342 314 C330 330 323 350 323 371 C323 393 330 413 342 429 C340 431 337 434 334 436 C321 418 313 395 313 371 C313 346 321 324 334 306 L334 306 Z M364 333 L371 340 C366 349 362 360 362 371 C362 382 366 393 371 402 C369 404 366 406 364 409 C356 398 352 385 352 371 C352 357 356 344 364 333 L364 333 Z M395 403 C401 408 408 410 416 410 C424 410 431 407 437 403 C437 403 439 406 442 409 C435 415 426 418 416 418 C406 418 397 415 390 409 L395 403 Z M384 416 C393 423 404 428 416 428 C428 428 439 424 448 416 C450 419 452 421 454 423 C443 432 430 437 416 437 C401 437 388 432 377 423 L384 416 Z M371 430 C383 441 399 447 416 447 C433 447 449 441 461 430 C461 430 464 434 468 438 C454 450 436 457 416 457 C397 457 378 450 364 438 L371 430 Z M295 516 C327 545 370 562 416 562 C462 562 505 545 538 516 C538 516 545 523 544 523 C510 554 465 572 416 572 C367 572 322 554 288 524 L295 516 Z M416 240 C448 240 476 252 498 271 L491 278 C471 261 445 250 416 250 C388 250 361 261 340 278 L333 270 C355 251 384 240 416 240 L416 240 Z M416 285 C436 285 454 292 468 304 L461 312 C448 301 433 295 416 295 C399 295 383 302 370 312 L363 304 C378 292 396 285 416 285 L416 285 Z M416 305 C430 305 444 310 455 319 L448 326 C439 319 428 314 416 314 C404 314 393 319 383 326 L376 319 C388 310 401 305 416 305 L416 305 Z M341 464 C362 482 388 492 416 492 C445 492 471 481 491 464 L498 472 C476 491 447 502 416 502 C385 502 356 490 334 471 L341 464 Z M320 487 C346 509 380 523 416 523 C453 523 486 510 512 487 L518 494 C491 518 455 533 416 533 C377 533 341 519 313 495 L320 487 Z M610 597 L617 605 C563 653 493 682 416 682 C339 682 269 653 215 605 L222 598 C274 644 342 672 416 672 C491 672 559 644 610 597 L610 597 Z M172 654 C237 713 322 749 416 749 C510 749 596 713 661 654 L668 662 C601 722 512 759 416 759 C320 759 232 723 165 662 L172 654 Z M516 290 C534 312 544 340 544 371 C544 402 534 430 516 453 L508 446 C524 425 534 399 534 371 C534 343 524 317 509 297 L516 290 Z " />
<glyph glyph-name="minus" unicode="&#x2212;" horiz-adv-x="696" d="M94 317 L577 317 L593 389 L110 389 L94 317 Z " />
<glyph glyph-name="radical" unicode="&#x221a;" horiz-adv-x="662" d="M146 -5 L225 -5 L677 741 L600 741 L205 90 L148 408 L72 408 L146 -5 Z " />
<glyph glyph-name="infinity" unicode="&#x221e;" horiz-adv-x="901" d="M325 -165 L401 -165 L539 483 L675 483 L689 552 L553 552 L566 610 C579 669 604 709 688 709 L724 709 L737 776 L687 776 C560 776 515 721 493 619 L478 552 L249 552 L262 610 C275 669 299 709 383 709 L419 709 L433 776 L382 776 C256 776 210 721 188 619 L173 552 L69 552 L54 483 L159 483 L21 -165 L97 -165 L235 483 L464 483 L325 -165 Z M665 0 L741 0 L858 552 L782 552 L665 0 Z M798 625 L874 625 L897 733 L820 733 L798 625 Z " />
<glyph glyph-name="integral" unicode="&#x222b;" horiz-adv-x="832" d="M126 120 C126 120 129 123 134 127 C79 193 46 278 46 371 C46 464 79 549 133 615 C129 619 126 621 126 621 C70 554 36 466 36 371 C36 275 70 187 126 120 L126 120 Z M228 211 C230 213 233 215 235 218 C201 259 181 313 181 371 C181 429 202 483 235 524 C232 526 230 529 227 531 C192 487 171 432 171 371 C171 310 193 254 228 211 L228 211 Z M264 243 C267 245 269 248 272 250 C245 283 229 325 229 371 C229 417 245 459 272 492 C269 494 267 497 264 499 C236 464 219 419 219 371 C219 322 236 278 264 243 L264 243 Z M316 289 C319 291 321 294 324 296 C308 317 298 343 298 371 C298 399 308 425 323 445 C321 448 318 450 316 452 C298 430 288 402 288 371 C288 340 298 312 316 289 L316 289 Z M349 320 C352 323 354 325 357 327 C348 340 343 355 343 371 C343 387 348 402 357 415 C354 417 352 420 349 422 C339 408 333 390 333 371 C333 352 339 334 349 320 L349 320 Z M378 346 C382 349 384 351 384 351 C381 357 379 364 379 371 C379 378 381 385 384 391 C384 391 382 393 378 396 C374 389 371 380 371 371 C371 362 374 353 378 346 L378 346 Z M416 60 C493 60 563 89 616 136 C614 139 611 141 609 144 C558 98 490 70 416 70 C342 70 274 98 222 144 C222 145 215 137 215 137 C268 89 338 60 416 60 L416 60 Z M416 324 C426 324 435 327 442 333 C439 337 437 339 437 339 C431 334 424 332 416 332 C408 332 401 335 395 339 C395 339 391 334 389 333 C397 327 406 324 416 324 L416 324 Z M482 319 C493 334 499 352 499 371 C499 390 493 408 482 422 C483 422 475 415 475 415 C484 403 489 388 489 371 C489 355 484 339 475 326 C478 324 480 322 482 319 L482 319 Z M292 269 C295 271 298 274 300 276 C280 302 267 335 267 371 C267 407 280 440 300 466 L293 473 C270 445 257 410 257 371 C257 333 270 297 292 269 L292 269 Z M416 -17 C512 -17 600 19 667 80 C667 80 660 88 660 87 C595 29 510 -7 416 -7 C322 -7 236 29 171 88 L164 80 C231 20 320 -17 416 -17 L416 -17 Z M416 121 C478 121 534 144 576 182 C574 185 571 187 569 190 C529 153 475 131 416 131 C357 131 303 153 262 190 L255 182 C298 144 354 121 416 121 L416 121 Z M416 170 C465 170 510 188 544 218 C542 221 539 223 537 226 C505 197 462 180 416 180 C369 180 327 197 294 226 L287 219 C322 189 367 170 416 170 L416 170 Z M416 209 C455 209 491 224 518 247 C516 250 514 253 512 255 C486 233 452 219 416 219 C380 219 346 233 320 255 L313 247 C341 224 377 209 416 209 L416 209 Z M416 265 C441 265 463 274 481 289 C479 292 476 294 474 297 C458 283 438 275 416 275 C394 275 373 283 357 297 L350 289 C368 274 391 265 416 265 L416 265 Z M358 445 C374 459 394 467 416 467 C438 467 458 459 474 445 L482 453 C464 468 441 477 416 477 C391 477 368 468 350 453 C351 452 354 448 358 445 L358 445 Z M570 552 C572 554 575 557 577 560 C534 598 478 621 416 621 C355 621 299 598 256 560 L263 553 C304 589 357 611 416 611 C475 611 529 589 570 552 L570 552 Z M454 346 C458 353 461 362 461 371 C461 380 458 389 454 396 L448 391 C451 385 453 378 453 371 C453 364 451 357 448 351 C448 351 450 349 454 346 L454 346 Z M468 333 C476 344 480 357 480 371 C480 385 476 398 468 409 L460 402 C466 393 470 382 470 371 C470 360 466 349 460 340 C463 338 465 336 468 333 L468 333 Z M498 306 C511 325 519 347 519 371 C519 395 511 418 497 436 L490 429 C502 413 509 393 509 371 C509 349 502 329 490 313 C492 311 495 308 498 306 L498 306 Z M540 269 C562 297 575 332 575 371 C575 410 562 445 539 473 L531 466 C552 440 565 407 565 371 C565 335 552 302 532 276 C535 274 537 271 540 269 L540 269 Z M568 243 C596 278 613 322 613 371 C613 420 596 464 568 499 L560 492 C587 459 603 417 603 371 C603 325 587 283 560 250 C563 248 566 245 568 243 L568 243 Z M604 211 C640 254 661 310 661 371 C661 432 640 488 604 531 L596 524 C631 483 651 429 651 371 C651 313 631 260 596 218 C601 213 604 211 604 211 L604 211 Z M649 171 C694 225 721 295 721 371 C721 447 694 517 649 571 L641 564 C685 512 711 445 711 371 C711 297 685 230 642 177 C644 175 647 173 649 171 L649 171 Z M706 120 C762 188 796 276 796 371 C796 467 762 555 706 622 L698 615 C753 549 786 464 786 371 C786 278 753 193 698 127 C703 123 706 120 706 120 L706 120 Z M183 170 L190 177 C147 229 121 297 121 371 C121 444 147 512 190 564 C187 567 184 569 182 571 C138 517 111 447 111 371 C111 294 138 225 183 170 L183 170 Z M334 306 L342 314 C330 330 323 350 323 371 C323 393 330 413 342 429 C340 431 337 434 334 436 C321 418 313 395 313 371 C313 346 321 324 334 306 L334 306 Z M364 333 L371 340 C366 349 362 360 362 371 C362 382 366 393 371 402 C369 404 366 406 364 409 C356 398 352 385 352 371 C352 357 356 344 364 333 L364 333 Z M395 403 C401 408 408 410 416 410 C424 410 431 407 437 403 C437 403 439 406 442 409 C435 415 426 418 416 418 C406 418 397 415 390 409 L395 403 Z M384 416 C393 423 404 428 416 428 C428 428 439 424 448 416 C450 419 452 421 454 423 C443 432 430 437 416 437 C401 437 388 432 377 423 L384 416 Z M371 430 C383 441 399 447 416 447 C433 447 449 441 461 430 C461 430 464 434 468 438 C454 450 436 457 416 457 C397 457 378 450 364 438 L371 430 Z M295 516 C327 545 370 562 416 562 C462 562 505 545 538 516 C538 516 545 523 544 523 C510 554 465 572 416 572 C367 572 322 554 288 524 L295 516 Z M416 240 C448 240 476 252 498 271 L491 278 C471 261 445 250 416 250 C388 250 361 261 340 278 L333 270 C355 251 384 240 416 240 L416 240 Z M416 285 C436 285 454 292 468 304 L461 312 C448 301 433 295 416 295 C399 295 383 302 370 312 L363 304 C378 292 396 285 416 285 L416 285 Z M416 305 C430 305 444 310 455 319 L448 326 C439 319 428 314 416 314 C404 314 393 319 383 326 L376 319 C388 310 401 305 416 305 L416 305 Z M341 464 C362 482 388 492 416 492 C445 492 471 481 491 464 L498 472 C476 491 447 502 416 502 C385 502 356 490 334 471 L341 464 Z M320 487 C346 509 380 523 416 523 C453 523 486 510 512 487 L518 494 C491 518 455 533 416 533 C377 533 341 519 313 495 L320 487 Z M610 597 L617 605 C563 653 493 682 416 682 C339 682 269 653 215 605 L222 598 C274 644 342 672 416 672 C491 672 559 644 610 597 L610 597 Z M172 654 C237 713 322 749 416 749 C510 749 596 713 661 654 L668 662 C601 722 512 759 416 759 C320 759 232 723 165 662 L172 654 Z M516 290 C534 312 544 340 544 371 C544 402 534 430 516 453 L508 446 C524 425 534 399 534 371 C534 343 524 317 509 297 L516 290 Z " />
<glyph glyph-name="approxequal" unicode="&#x2248;" horiz-adv-x="696" d="M117 175 C145 205 186 233 223 233 C297 233 329 175 408 175 C459 175 514 217 556 261 L516 302 C485 272 444 238 410 238 C351 238 313 297 226 297 C172 297 116 261 75 215 L117 175 Z M165 400 C193 430 235 459 272 459 C344 459 377 400 456 400 C507 400 563 442 605 486 L564 528 C534 498 492 464 458 464 C399 464 362 523 274 523 C221 523 164 486 124 441 L165 400 Z " />
<glyph glyph-name="notequal" unicode="&#x2260;" horiz-adv-x="681" d="M325 -165 L401 -165 L539 483 L681 483 L695 552 L553 552 L566 610 C579 669 604 709 688 709 L730 709 L743 776 L687 776 C560 776 515 721 493 619 L478 552 L249 552 L262 610 C275 669 299 709 383 709 L419 709 L433 776 L382 776 C256 776 210 721 188 619 L173 552 L69 552 L54 483 L159 483 L21 -165 L97 -165 L235 483 L464 483 L325 -165 Z " />
<glyph glyph-name="lessequal" unicode="&#x2264;" horiz-adv-x="696" d="M496 108 L510 174 L176 351 L586 528 L600 599 L106 381 L95 327 L496 108 Z M29 17 L476 17 L490 83 L42 83 L29 17 Z " />
<glyph glyph-name="greaterequal" unicode="&#x2265;" horiz-adv-x="696" d="M89 108 L582 327 L593 381 L192 599 L177 530 L511 353 L102 176 L89 108 Z M69 17 L515 17 L529 83 L82 83 L69 17 Z " />
<glyph glyph-name="lozenge" unicode="&#x25ca;" horiz-adv-x="692" d="M54 483 L159 483 L21 -165 L97 -165 L235 483 L454 483 L383 154 C364 61 370 -1 502 -1 C513 -1 555 -1 564 0 L577 67 L524 67 C447 67 447 100 458 151 L528 483 L667 483 L681 552 L543 552 L581 729 L520 718 L470 552 L249 552 L262 610 C275 669 299 709 383 709 L415 709 L429 776 L382 776 C256 776 210 721 188 619 L173 552 L69 552 L54 483 Z " />
<glyph glyph-name="apple" unicode="&#xf8ff;" horiz-adv-x="832" d="M126 120 C126 120 129 123 134 127 C79 193 46 278 46 371 C46 464 79 549 133 615 C129 619 126 621 126 621 C70 554 36 466 36 371 C36 275 70 187 126 120 L126 120 Z M228 211 C230 213 233 215 235 218 C201 259 181 313 181 371 C181 429 202 483 235 524 C232 526 230 529 227 531 C192 487 171 432 171 371 C171 310 193 254 228 211 L228 211 Z M264 243 C267 245 269 248 272 250 C245 283 229 325 229 371 C229 417 245 459 272 492 C269 494 267 497 264 499 C236 464 219 419 219 371 C219 322 236 278 264 243 L264 243 Z M316 289 C319 291 321 294 324 296 C308 317 298 343 298 371 C298 399 308 425 323 445 C321 448 318 450 316 452 C298 430 288 402 288 371 C288 340 298 312 316 289 L316 289 Z M349 320 C352 323 354 325 357 327 C348 340 343 355 343 371 C343 387 348 402 357 415 C354 417 352 420 349 422 C339 408 333 390 333 371 C333 352 339 334 349 320 L349 320 Z M378 346 C382 349 384 351 384 351 C381 357 379 364 379 371 C379 378 381 385 384 391 C384 391 382 393 378 396 C374 389 371 380 371 371 C371 362 374 353 378 346 L378 346 Z M416 60 C493 60 563 89 616 136 C614 139 611 141 609 144 C558 98 490 70 416 70 C342 70 274 98 222 144 C222 145 215 137 215 137 C268 89 338 60 416 60 L416 60 Z M416 324 C426 324 435 327 442 333 C439 337 437 339 437 339 C431 334 424 332 416 332 C408 332 401 335 395 339 C395 339 391 334 389 333 C397 327 406 324 416 324 L416 324 Z M482 319 C493 334 499 352 499 371 C499 390 493 408 482 422 C483 422 475 415 475 415 C484 403 489 388 489 371 C489 355 484 339 475 326 C478 324 480 322 482 319 L482 319 Z M292 269 C295 271 298 274 300 276 C280 302 267 335 267 371 C267 407 280 440 300 466 L293 473 C270 445 257 410 257 371 C257 333 270 297 292 269 L292 269 Z M416 -17 C512 -17 600 19 667 80 C667 80 660 88 660 87 C595 29 510 -7 416 -7 C322 -7 236 29 171 88 L164 80 C231 20 320 -17 416 -17 L416 -17 Z M416 121 C478 121 534 144 576 182 C574 185 571 187 569 190 C529 153 475 131 416 131 C357 131 303 153 262 190 L255 182 C298 144 354 121 416 121 L416 121 Z M416 170 C465 170 510 188 544 218 C542 221 539 223 537 226 C505 197 462 180 416 180 C369 180 327 197 294 226 L287 219 C322 189 367 170 416 170 L416 170 Z M416 209 C455 209 491 224 518 247 C516 250 514 253 512 255 C486 233 452 219 416 219 C380 219 346 233 320 255 L313 247 C341 224 377 209 416 209 L416 209 Z M416 265 C441 265 463 274 481 289 C479 292 476 294 474 297 C458 283 438 275 416 275 C394 275 373 283 357 297 L350 289 C368 274 391 265 416 265 L416 265 Z M358 445 C374 459 394 467 416 467 C438 467 458 459 474 445 L482 453 C464 468 441 477 416 477 C391 477 368 468 350 453 C351 452 354 448 358 445 L358 445 Z M570 552 C572 554 575 557 577 560 C534 598 478 621 416 621 C355 621 299 598 256 560 L263 553 C304 589 357 611 416 611 C475 611 529 589 570 552 L570 552 Z M454 346 C458 353 461 362 461 371 C461 380 458 389 454 396 L448 391 C451 385 453 378 453 371 C453 364 451 357 448 351 C448 351 450 349 454 346 L454 346 Z M468 333 C476 344 480 357 480 371 C480 385 476 398 468 409 L460 402 C466 393 470 382 470 371 C470 360 466 349 460 340 C463 338 465 336 468 333 L468 333 Z M498 306 C511 325 519 347 519 371 C519 395 511 418 497 436 L490 429 C502 413 509 393 509 371 C509 349 502 329 490 313 C492 311 495 308 498 306 L498 306 Z M540 269 C562 297 575 332 575 371 C575 410 562 445 539 473 L531 466 C552 440 565 407 565 371 C565 335 552 302 532 276 C535 274 537 271 540 269 L540 269 Z M568 243 C596 278 613 322 613 371 C613 420 596 464 568 499 L560 492 C587 459 603 417 603 371 C603 325 587 283 560 250 C563 248 566 245 568 243 L568 243 Z M604 211 C640 254 661 310 661 371 C661 432 640 488 604 531 L596 524 C631 483 651 429 651 371 C651 313 631 260 596 218 C601 213 604 211 604 211 L604 211 Z M649 171 C694 225 721 295 721 371 C721 447 694 517 649 571 L641 564 C685 512 711 445 711 371 C711 297 685 230 642 177 C644 175 647 173 649 171 L649 171 Z M706 120 C762 188 796 276 796 371 C796 467 762 555 706 622 L698 615 C753 549 786 464 786 371 C786 278 753 193 698 127 C703 123 706 120 706 120 L706 120 Z M183 170 L190 177 C147 229 121 297 121 371 C121 444 147 512 190 564 C187 567 184 569 182 571 C138 517 111 447 111 371 C111 294 138 225 183 170 L183 170 Z M334 306 L342 314 C330 330 323 350 323 371 C323 393 330 413 342 429 C340 431 337 434 334 436 C321 418 313 395 313 371 C313 346 321 324 334 306 L334 306 Z M364 333 L371 340 C366 349 362 360 362 371 C362 382 366 393 371 402 C369 404 366 406 364 409 C356 398 352 385 352 371 C352 357 356 344 364 333 L364 333 Z M395 403 C401 408 408 410 416 410 C424 410 431 407 437 403 C437 403 439 406 442 409 C435 415 426 418 416 418 C406 418 397 415 390 409 L395 403 Z M384 416 C393 423 404 428 416 428 C428 428 439 424 448 416 C450 419 452 421 454 423 C443 432 430 437 416 437 C401 437 388 432 377 423 L384 416 Z M371 430 C383 441 399 447 416 447 C433 447 449 441 461 430 C461 430 464 434 468 438 C454 450 436 457 416 457 C397 457 378 450 364 438 L371 430 Z M295 516 C327 545 370 562 416 562 C462 562 505 545 538 516 C538 516 545 523 544 523 C510 554 465 572 416 572 C367 572 322 554 288 524 L295 516 Z M416 240 C448 240 476 252 498 271 L491 278 C471 261 445 250 416 250 C388 250 361 261 340 278 L333 270 C355 251 384 240 416 240 L416 240 Z M416 285 C436 285 454 292 468 304 L461 312 C448 301 433 295 416 295 C399 295 383 302 370 312 L363 304 C378 292 396 285 416 285 L416 285 Z M416 305 C430 305 444 310 455 319 L448 326 C439 319 428 314 416 314 C404 314 393 319 383 326 L376 319 C388 310 401 305 416 305 L416 305 Z M341 464 C362 482 388 492 416 492 C445 492 471 481 491 464 L498 472 C476 491 447 502 416 502 C385 502 356 490 334 471 L341 464 Z M320 487 C346 509 380 523 416 523 C453 523 486 510 512 487 L518 494 C491 518 455 533 416 533 C377 533 341 519 313 495 L320 487 Z M610 597 L617 605 C563 653 493 682 416 682 C339 682 269 653 215 605 L222 598 C274 644 342 672 416 672 C491 672 559 644 610 597 L610 597 Z M172 654 C237 713 322 749 416 749 C510 749 596 713 661 654 L668 662 C601 722 512 759 416 759 C320 759 232 723 165 662 L172 654 Z M516 290 C534 312 544 340 544 371 C544 402 534 430 516 453 L508 446 C524 425 534 399 534 371 C534 343 524 317 509 297 L516 290 Z " />
<glyph glyph-name="fi" unicode="&#xfb01;" horiz-adv-x="596" d="M54 483 L159 483 L21 -165 L97 -165 L235 483 L371 483 L385 552 L249 552 L262 610 C275 669 299 709 383 709 L419 709 L433 776 L382 776 C256 776 210 721 188 619 L173 552 L69 552 L54 483 Z M361 0 L436 0 L554 552 L478 552 L361 0 Z M494 625 L570 625 L592 733 L516 733 L494 625 Z " />
<glyph glyph-name="fl" unicode="&#xfb02;" horiz-adv-x="650" d="M54 483 L159 483 L21 -165 L97 -165 L235 483 L371 483 L385 552 L249 552 L262 610 C275 669 299 709 383 709 L419 709 L433 776 L382 776 C256 776 210 721 188 619 L173 552 L69 552 L54 483 Z M481 -1 C497 -1 515 0 524 1 L538 67 L513 67 C457 67 454 86 466 140 L601 776 L526 776 L391 146 C370 47 383 -1 481 -1 L481 -1 Z " />
</font>
</svg>
