<?xml version="1.0" encoding="UTF-8"?>
<svg xmlns="http://www.w3.org/2000/svg" xmlns:xlink="http://www.w3.org/1999/xlink" version="1.2" >
<font id="AntennaExtraCond ExtraLight">
<font-face  font-family="AntennaExtraCond" units-per-em="1000" ascent="800" descent="-200" font-style="normal" font-weight="200" font-stretch="normal" cap-height="741" x-height="547" underline-position="-75" underline-thickness="50" />
<missing-glyph  horiz-adv-x="135" d="" />
<glyph glyph-name="NULL" d="" />
<glyph glyph-name="CR" unicode="&#xd;" horiz-adv-x="250" d="" />
<glyph glyph-name="&amp;#x20;" unicode="&#x20;" horiz-adv-x="135" d="" />
<glyph glyph-name="&amp;#xa0;" unicode="&#xa0;" horiz-adv-x="135" d="" />
<glyph glyph-name="exclam" unicode="&#x21;" horiz-adv-x="208" d="M75 0 L133 0 L133 81 L75 81 L75 0 Z M85 196 L125 196 L131 741 L79 741 L85 196 Z " />
<glyph glyph-name="quotedbl" unicode="&#x22;" horiz-adv-x="274" d="M62 480 L100 480 L103 741 L57 741 L62 480 Z M175 480 L213 480 L217 741 L171 741 L175 480 Z " />
<glyph glyph-name="numbersign" unicode="&#x23;" horiz-adv-x="393" d="M71 0 L114 0 L143 262 L225 262 L196 0 L239 0 L268 262 L356 262 L356 306 L272 306 L286 431 L356 431 L356 475 L291 475 L321 741 L278 741 L248 475 L166 475 L196 741 L153 741 L123 475 L37 475 L37 431 L118 431 L104 306 L37 306 L37 262 L100 262 L71 0 Z M145 303 L159 434 L245 434 L231 303 L145 303 Z " />
<glyph glyph-name="dollar" unicode="&#x24;" horiz-adv-x="332" d="M141 -91 L186 -91 L186 2 C251 15 298 63 298 142 C298 212 284 239 183 407 L183 700 C220 699 243 694 272 684 L288 724 C253 737 227 741 186 742 L186 829 L141 829 L141 738 C74 725 40 675 40 609 C40 546 56 520 144 372 L144 41 C93 42 57 52 28 66 L10 28 C43 13 77 0 141 -1 L141 -91 Z M253 142 C253 87 222 56 183 45 L183 320 C247 211 253 188 253 142 L253 142 Z M85 608 C85 652 107 683 144 695 L144 458 C90 548 85 572 85 608 L85 608 Z " />
<glyph glyph-name="percent" unicode="&#x25;" horiz-adv-x="598" d="M133 293 C166 293 189 302 205 317 C238 349 239 415 239 520 C239 620 239 685 208 719 C192 737 168 747 133 747 C99 747 76 737 59 720 C28 687 28 622 28 520 C28 413 28 347 63 316 C78 302 102 293 133 293 L133 293 Z M465 -6 C498 -6 520 4 536 19 C570 50 571 117 571 222 C571 322 570 387 540 421 C524 439 500 449 465 449 C431 449 407 439 391 422 C360 389 359 324 359 222 C359 115 360 49 394 18 C410 4 433 -6 465 -6 L465 -6 Z M133 332 C71 332 70 386 70 519 C70 652 71 708 133 708 C195 708 197 652 197 519 C197 386 195 332 133 332 L133 332 Z M465 34 C403 34 401 88 401 221 C401 354 403 409 465 409 C527 409 528 354 528 221 C528 88 527 34 465 34 L465 34 Z M171 0 L212 0 L428 741 L387 741 L171 0 Z " />
<glyph glyph-name="ampersand" unicode="&#x26;" horiz-adv-x="425" d="M179 -8 C244 -8 290 13 320 62 L353 0 L406 0 L344 114 C368 187 377 295 377 449 L334 449 C334 323 330 230 317 165 L232 324 C215 355 199 384 186 412 C240 481 280 543 280 617 C280 694 269 748 183 748 C96 748 85 689 85 612 C85 550 101 495 132 426 C75 351 23 276 23 171 C23 45 62 -8 179 -8 L179 -8 Z M180 33 C94 33 68 75 68 172 C68 257 106 319 152 384 C164 359 178 332 194 303 L298 104 C275 54 238 33 180 33 L180 33 Z M128 611 C128 665 129 707 183 707 C235 707 237 670 237 616 C237 560 210 509 168 451 C142 511 128 562 128 611 L128 611 Z " />
<glyph glyph-name="quotesingle" unicode="&#x27;" horiz-adv-x="161" d="M62 480 L100 480 L104 741 L57 741 L62 480 Z " />
<glyph glyph-name="parenleft" unicode="&#x28;" horiz-adv-x="263" d="M185 -158 L221 -136 C175 -68 111 71 111 304 C111 538 174 674 221 744 L185 766 C134 695 66 544 66 304 C66 59 134 -87 185 -158 L185 -158 Z " />
<glyph glyph-name="parenright" unicode="&#x29;" horiz-adv-x="263" d="M79 -158 C130 -87 198 64 198 304 C198 548 130 695 79 766 L43 744 C89 677 152 538 152 304 C152 71 90 -65 43 -136 L79 -158 Z " />
<glyph glyph-name="asterisk" unicode="&#x2a;" horiz-adv-x="324" d="M143 405 L181 405 L178 543 L278 478 L299 513 L192 573 L299 635 L278 669 L178 602 L181 741 L143 741 L146 603 L47 668 L26 634 L131 573 L26 513 L47 478 L146 544 L143 405 Z " />
<glyph glyph-name="plus" unicode="&#x2b;" horiz-adv-x="385" d="M169 199 L215 199 L215 348 L323 348 L323 391 L215 391 L215 541 L169 541 L169 391 L62 391 L62 348 L169 348 L169 199 Z " />
<glyph glyph-name="comma" unicode="&#x2c;" horiz-adv-x="142" d="M55 -79 C95 -58 100 -42 100 1 L100 82 L43 82 L43 0 L68 0 C68 -36 65 -38 40 -53 L55 -79 Z " />
<glyph glyph-name="&amp;#x2d;" unicode="&#x2d;" horiz-adv-x="257" d="M31 280 L226 280 L226 323 L31 323 L31 280 Z " />
<glyph glyph-name="&amp;#xad;" unicode="&#xad;" horiz-adv-x="257" d="M31 280 L226 280 L226 323 L31 323 L31 280 Z " />
<glyph glyph-name="period" unicode="&#x2e;" horiz-adv-x="142" d="M43 0 L100 0 L100 82 L43 82 L43 0 Z " />
<glyph glyph-name="slash" unicode="&#x2f;" horiz-adv-x="277" d="M0 0 L46 0 L277 741 L232 741 L0 0 Z " />
<glyph glyph-name="zero" unicode="0" horiz-adv-x="385" d="M193 -5 C234 -5 264 5 285 25 C336 70 340 176 340 371 C340 558 337 664 290 712 C269 735 238 747 193 747 C148 747 116 735 95 712 C49 664 46 558 46 371 C46 177 49 72 98 25 C120 5 150 -5 193 -5 L193 -5 Z M193 38 C96 38 92 116 92 371 C92 624 96 704 193 704 C289 704 294 624 294 371 C294 116 289 38 193 38 L193 38 Z " />
<glyph glyph-name="one" unicode="1" horiz-adv-x="210" d="M99 0 L144 0 L144 741 L16 741 L16 698 L99 698 L99 0 Z " />
<glyph glyph-name="two" unicode="2" horiz-adv-x="307" d="M21 0 L271 0 L271 42 L69 42 L233 458 C254 510 272 568 272 625 C272 696 240 747 144 747 C95 747 56 738 23 724 L41 684 C69 697 102 704 141 704 C205 704 226 667 226 620 C226 573 211 523 192 476 L21 41 L21 0 Z " />
<glyph glyph-name="three" unicode="3" horiz-adv-x="301" d="M131 -5 C244 -5 265 69 265 208 C265 330 261 394 190 415 C246 439 255 499 255 588 C255 692 237 747 136 747 C86 747 44 737 18 727 L35 688 C58 697 96 705 131 705 C200 705 210 662 210 583 C210 488 199 431 101 431 L68 431 L68 389 L101 389 C214 389 220 337 220 209 C220 96 208 37 128 37 C88 37 50 48 29 57 L12 18 C37 7 80 -5 131 -5 L131 -5 Z " />
<glyph glyph-name="four" unicode="4" horiz-adv-x="360" d="M30 190 L224 190 L224 0 L267 0 L267 190 L341 190 L341 233 L267 233 L267 458 L234 458 L224 233 L76 233 L258 741 L211 741 L30 231 L30 190 Z " />
<glyph glyph-name="five" unicode="5" horiz-adv-x="311" d="M142 -5 C258 -5 279 53 279 241 C279 432 266 482 160 482 C129 482 99 472 83 461 L90 698 L253 698 L253 741 L48 741 L39 422 L75 411 C91 426 117 439 150 439 C226 439 234 402 234 241 C234 82 221 37 140 37 C94 37 58 50 39 57 L22 19 C48 8 88 -5 142 -5 L142 -5 Z " />
<glyph glyph-name="six" unicode="6" horiz-adv-x="357" d="M185 -5 C229 -5 259 7 279 26 C324 66 324 150 324 271 C324 403 315 488 199 488 C137 488 106 468 90 434 C90 626 94 698 260 698 L271 698 L271 741 L260 741 C177 741 128 726 96 694 C47 644 44 563 44 409 L44 282 C44 158 44 71 89 27 C110 7 141 -5 185 -5 L185 -5 Z M186 37 C94 37 90 100 90 270 C90 425 133 445 191 445 C272 445 279 382 279 270 C279 101 275 37 186 37 L186 37 Z " />
<glyph glyph-name="seven" unicode="7" horiz-adv-x="271" d="M55 0 L101 0 L257 703 L257 741 L5 741 L5 698 L210 698 L55 0 Z " />
<glyph glyph-name="eight" unicode="8" horiz-adv-x="360" d="M180 -6 C228 -6 260 6 281 25 C320 59 323 122 323 205 C323 309 319 378 253 402 C304 428 306 489 306 568 C306 631 304 683 274 715 C256 735 225 747 180 747 C134 747 104 735 86 715 C56 684 53 631 53 568 C53 489 56 428 106 402 C41 378 36 309 36 205 C36 123 40 61 77 27 C99 7 131 -6 180 -6 L180 -6 Z M180 35 C88 35 82 97 82 207 C82 317 88 379 180 379 C271 379 277 317 277 207 C277 97 271 35 180 35 L180 35 Z M180 420 C103 420 98 479 98 563 C98 648 103 706 180 706 C256 706 262 648 262 563 C262 479 256 420 180 420 L180 420 Z " />
<glyph glyph-name="nine" unicode="9" horiz-adv-x="357" d="M87 0 L99 0 C181 0 231 16 263 48 C312 98 315 179 315 333 L315 460 C315 584 315 671 269 715 C248 735 218 747 173 747 C130 747 99 736 79 717 C34 676 35 592 35 471 C35 339 43 254 159 254 C221 254 253 275 269 308 C269 116 264 43 99 43 L87 43 L87 0 Z M168 296 C87 296 80 359 80 471 C80 640 83 705 173 705 C264 705 268 641 268 471 C268 316 225 296 168 296 L168 296 Z " />
<glyph glyph-name="colon" unicode="&#x3a;" horiz-adv-x="161" d="M52 0 L109 0 L109 82 L52 82 L52 0 Z M52 466 L109 466 L109 547 L52 547 L52 466 Z " />
<glyph glyph-name="semicolon" unicode="&#x3b;" horiz-adv-x="161" d="M64 -79 C105 -58 109 -40 109 1 L109 82 L52 82 L52 0 L78 0 C78 -36 74 -38 49 -53 L64 -79 Z M52 466 L109 466 L109 547 L52 547 L52 466 Z " />
<glyph glyph-name="less" unicode="&#x3c;" horiz-adv-x="385" d="M293 191 L293 237 L117 367 L293 497 L293 542 L78 385 L78 348 L293 191 Z " />
<glyph glyph-name="equal" unicode="&#x3d;" horiz-adv-x="385" d="M64 260 L321 260 L321 303 L64 303 L64 260 Z M64 404 L321 404 L321 448 L64 448 L64 404 Z " />
<glyph glyph-name="greater" unicode="&#x3e;" horiz-adv-x="385" d="M92 191 L308 347 L308 385 L92 542 L92 496 L268 366 L92 237 L92 191 Z " />
<glyph glyph-name="question" unicode="&#x3f;" horiz-adv-x="359" d="M146 196 L190 196 C191 297 195 335 217 378 L280 506 C294 533 307 577 307 619 C307 685 278 747 177 747 C126 747 85 736 51 722 L69 682 C96 695 135 704 174 704 C242 704 262 661 262 615 C262 581 254 548 241 522 L177 394 C148 338 147 298 146 196 L146 196 Z M139 0 L196 0 L196 78 L139 78 L139 0 Z " />
<glyph glyph-name="at" unicode="&#x40;" horiz-adv-x="530" d="M401 -152 L401 -119 L265 -119 C69 -119 77 23 77 298 C77 572 69 714 265 714 C462 714 453 572 453 298 L453 148 C453 94 447 73 420 73 C393 73 387 86 387 148 L387 542 L353 544 L348 499 C331 530 306 547 249 547 C216 547 193 537 176 520 C133 478 132 399 132 295 C132 198 133 114 173 72 C190 54 216 43 249 43 C310 43 336 65 353 97 C357 58 378 43 420 43 C469 43 486 70 486 147 L486 298 C486 590 492 747 265 747 C38 747 44 590 44 298 C44 6 38 -152 265 -152 L401 -152 Z M256 80 C172 80 173 174 173 295 C173 417 172 509 256 509 C346 509 347 442 347 295 C347 148 346 80 256 80 L256 80 Z " />
<glyph glyph-name="A" unicode="A" horiz-adv-x="387" d="M18 0 L62 0 L99 188 L287 188 L324 0 L370 0 L218 743 L169 743 L18 0 Z M109 231 L173 552 L193 659 L213 552 L277 231 L109 231 Z " />
<glyph glyph-name="B" unicode="B" horiz-adv-x="404" d="M51 0 L202 0 C327 0 368 73 368 200 C368 301 350 368 280 387 C342 409 359 470 359 559 C359 677 324 741 198 741 L51 741 L51 0 Z M96 42 L96 361 L196 361 C283 361 323 330 323 203 C323 100 296 42 201 42 L96 42 Z M96 404 L96 699 L197 699 C290 699 314 648 314 554 C314 478 304 404 197 404 L96 404 Z " />
<glyph glyph-name="C" unicode="C" horiz-adv-x="341" d="M211 -5 C257 -5 290 3 321 15 L305 56 C278 46 250 39 212 39 C93 39 79 134 79 370 C79 607 93 702 212 702 C246 702 276 696 303 687 L318 729 C286 741 254 747 211 747 C157 747 119 733 93 706 C40 652 33 544 33 371 C33 196 41 88 94 35 C120 9 158 -5 211 -5 L211 -5 Z " />
<glyph glyph-name="D" unicode="D" horiz-adv-x="410" d="M51 0 L181 0 C247 0 292 14 321 42 C374 92 378 192 378 371 C378 540 374 641 326 694 C297 725 251 741 181 741 L51 741 L51 0 Z M97 42 L97 698 L181 698 C323 698 332 620 332 371 C332 117 323 42 182 42 L97 42 Z " />
<glyph glyph-name="E" unicode="E" horiz-adv-x="350" d="M51 0 L315 0 L315 43 L97 43 L97 361 L306 361 L306 405 L97 405 L97 698 L315 698 L315 741 L51 741 L51 0 Z " />
<glyph glyph-name="F" unicode="F" horiz-adv-x="332" d="M51 0 L97 0 L97 358 L305 358 L305 402 L97 402 L97 698 L315 698 L315 741 L51 741 L51 0 Z " />
<glyph glyph-name="G" unicode="G" horiz-adv-x="392" d="M203 -6 C251 -6 286 4 310 27 C352 68 364 153 364 319 L364 406 L181 406 L181 363 L318 363 L318 313 C318 92 302 37 204 37 C92 37 79 135 79 370 C79 607 93 703 213 703 C262 703 301 692 327 680 L346 721 C318 734 271 747 211 747 C156 747 119 732 92 705 C40 651 33 543 33 371 C33 211 35 84 99 28 C123 5 157 -6 203 -6 L203 -6 Z " />
<glyph glyph-name="H" unicode="H" horiz-adv-x="425" d="M51 0 L97 0 L97 361 L328 361 L328 0 L374 0 L374 741 L328 741 L328 406 L97 406 L97 741 L51 741 L51 0 Z " />
<glyph glyph-name="I" unicode="I" horiz-adv-x="158" d="M56 0 L102 0 L102 741 L56 741 L56 0 Z " />
<glyph glyph-name="J" unicode="J" horiz-adv-x="234" d="M15 0 C33 0 47 0 65 0 C157 0 185 43 185 122 L185 741 L139 741 L139 124 C139 74 124 43 59 43 C57 43 18 43 15 43 L15 0 Z " />
<glyph glyph-name="K" unicode="K" horiz-adv-x="381" d="M51 0 L97 0 L97 234 L176 399 L314 0 L361 0 L204 452 L348 741 L300 741 L97 325 L97 741 L51 741 L51 0 Z " />
<glyph glyph-name="L" unicode="L" horiz-adv-x="326" d="M51 0 L313 0 L313 43 L97 43 L97 741 L51 741 L51 0 Z " />
<glyph glyph-name="M" unicode="M" horiz-adv-x="503" d="M51 0 L92 0 L92 650 L112 551 L231 0 L269 0 L388 549 L408 645 L408 0 L451 0 L451 741 L391 741 L271 190 L251 91 L231 191 L114 741 L51 741 L51 0 Z " />
<glyph glyph-name="N" unicode="N" horiz-adv-x="413" d="M51 0 L95 0 L95 639 L124 553 L319 0 L362 0 L362 741 L320 741 L320 116 L287 211 L101 741 L51 741 L51 0 Z " />
<glyph glyph-name="O" unicode="O" horiz-adv-x="429" d="M215 -6 C269 -6 308 8 335 34 C391 89 396 199 396 371 C396 538 391 647 339 703 C312 732 272 748 215 748 C157 748 117 732 90 703 C38 646 33 538 33 371 C33 200 39 90 94 35 C121 8 160 -6 215 -6 L215 -6 Z M215 38 C90 38 79 136 79 370 C79 605 90 704 215 704 C339 704 350 605 350 370 C350 136 340 38 215 38 L215 38 Z " />
<glyph glyph-name="P" unicode="P" horiz-adv-x="388" d="M51 0 L97 0 L97 315 L183 315 C321 315 358 380 358 530 C358 681 321 741 181 741 L51 741 L51 0 Z M97 358 L97 698 L181 698 C289 698 313 655 313 530 C313 405 289 358 183 358 L97 358 Z " />
<glyph glyph-name="Q" unicode="Q" horiz-adv-x="429" d="M318 -143 L318 -101 L281 -101 C238 -101 227 -90 227 -4 C275 -2 310 12 335 36 C391 90 396 199 396 371 C396 538 391 647 339 703 C312 732 272 748 215 748 C157 748 117 732 90 703 C38 646 33 538 33 371 C33 200 39 91 94 37 C115 15 144 2 183 -2 C182 -120 201 -143 277 -143 L318 -143 Z M215 37 C90 37 79 135 79 370 C79 605 90 704 215 704 C339 704 350 605 350 370 C350 135 340 37 215 37 L215 37 Z " />
<glyph glyph-name="R" unicode="R" horiz-adv-x="394" d="M303 0 L350 0 L247 336 C333 357 358 421 358 538 C358 683 320 741 181 741 L51 741 L51 0 L97 0 L97 329 L183 329 C190 329 196 329 203 330 L303 0 Z M97 371 L97 698 L181 698 C288 698 312 655 312 536 C312 417 288 371 182 371 L97 371 Z " />
<glyph glyph-name="S" unicode="S" horiz-adv-x="335" d="M153 -5 C237 -5 301 45 301 138 C301 207 287 231 181 407 C95 550 86 571 86 613 C86 668 120 703 181 703 C220 703 245 698 276 688 L291 729 C255 742 228 747 180 747 C88 747 40 692 40 613 C40 553 56 528 145 380 C244 215 255 191 255 138 C255 69 206 38 152 38 C105 38 71 46 40 60 L21 21 C55 5 93 -5 153 -5 L153 -5 Z " />
<glyph glyph-name="T" unicode="T" horiz-adv-x="359" d="M156 0 L203 0 L203 698 L345 698 L345 741 L14 741 L14 698 L156 698 L156 0 Z " />
<glyph glyph-name="U" unicode="U" horiz-adv-x="418" d="M209 -6 C264 -6 301 7 325 29 C363 64 370 124 370 202 L370 741 L325 741 L325 203 C325 96 307 38 209 38 C112 38 94 96 94 203 L94 741 L48 741 L48 202 C48 123 57 64 95 29 C119 7 156 -6 209 -6 L209 -6 Z " />
<glyph glyph-name="V" unicode="V" horiz-adv-x="387" d="M170 -2 L217 -2 L369 741 L325 741 L214 191 L194 88 L174 193 L64 741 L18 741 L170 -2 Z " />
<glyph glyph-name="W" unicode="W" horiz-adv-x="591" d="M150 -2 L192 -2 L280 519 L296 626 L313 519 L399 -2 L442 -2 L568 741 L526 741 L439 227 L421 116 L404 226 L318 741 L276 741 L190 226 L173 118 L156 227 L69 741 L24 741 L150 -2 Z " />
<glyph glyph-name="X" unicode="X" horiz-adv-x="393" d="M323 0 L371 0 L221 387 L357 741 L311 741 L199 444 L84 741 L36 741 L171 392 L22 0 L68 0 L193 333 L323 0 Z " />
<glyph glyph-name="Y" unicode="Y" horiz-adv-x="376" d="M165 0 L211 0 L211 272 L365 741 L320 741 L188 336 L58 741 L11 741 L165 272 L165 0 Z " />
<glyph glyph-name="Z" unicode="Z" horiz-adv-x="360" d="M28 0 L332 0 L332 43 L77 43 L324 702 L324 741 L38 741 L38 698 L276 698 L28 39 L28 0 Z " />
<glyph glyph-name="bracketleft" unicode="&#x5b;" horiz-adv-x="266" d="M72 -152 L210 -152 L210 -112 L117 -112 L117 721 L208 721 L208 763 L72 763 L72 -152 Z " />
<glyph glyph-name="backslash" unicode="&#x5c;" horiz-adv-x="277" d="M232 0 L277 0 L46 741 L0 741 L232 0 Z " />
<glyph glyph-name="bracketright" unicode="&#x5d;" horiz-adv-x="266" d="M58 -152 L194 -152 L194 763 L57 763 L57 721 L149 721 L149 -112 L58 -112 L58 -152 Z " />
<glyph glyph-name="asciicircum" unicode="&#x5e;" horiz-adv-x="332" d="M60 608 L101 608 L166 708 L231 608 L272 608 L188 743 L145 743 L60 608 Z " />
<glyph glyph-name="underscore" unicode="&#x5f;" horiz-adv-x="254" d="M-21 -104 L275 -104 L275 -66 L-21 -66 L-21 -104 Z " />
<glyph glyph-name="grave" unicode="&#x60;" horiz-adv-x="332" d="M162 605 L204 605 L121 740 L70 740 L162 605 Z " />
<glyph glyph-name="a" unicode="a" horiz-adv-x="349" d="M139 -4 C202 -4 232 18 250 50 C254 13 267 -1 310 -1 C313 -1 321 -1 324 0 L324 42 C292 42 288 53 288 94 L288 377 C288 446 287 495 260 524 C243 542 215 553 171 553 C126 553 84 544 60 535 L75 493 C99 503 138 510 168 510 C241 510 244 462 244 373 L232 373 C85 373 30 339 30 178 C30 50 52 -4 139 -4 L139 -4 Z M144 37 C87 37 74 80 74 180 C74 308 109 332 234 332 L244 332 L244 189 C244 123 241 37 144 37 L144 37 Z " />
<glyph glyph-name="b" unicode="b" horiz-adv-x="359" d="M203 -4 C240 -4 266 8 285 26 C332 72 333 164 333 274 C333 383 332 475 287 522 C269 541 242 553 204 553 C141 553 106 530 90 494 L90 763 L45 763 L45 1 L82 -2 L88 49 C106 16 141 -4 203 -4 L203 -4 Z M194 39 C96 39 90 112 90 273 C90 436 96 510 194 510 C287 510 287 407 287 273 C287 139 287 39 194 39 L194 39 Z " />
<glyph glyph-name="c" unicode="c" horiz-adv-x="260" d="M167 -5 C197 -5 222 1 240 8 L226 47 C213 42 192 37 170 37 C82 37 76 125 76 275 C76 424 82 509 170 509 C191 509 210 506 226 501 L238 543 C219 548 197 553 168 553 C125 553 94 539 74 517 C34 472 30 388 30 275 C30 157 34 68 81 25 C101 7 129 -5 167 -5 L167 -5 Z " />
<glyph glyph-name="d" unicode="d" horiz-adv-x="363" d="M159 -5 C223 -5 258 20 277 57 L281 -1 L318 2 L318 763 L273 763 L273 499 C255 533 220 553 160 553 C123 553 97 542 78 524 C31 478 30 386 30 276 C30 168 31 75 76 28 C94 8 121 -5 159 -5 L159 -5 Z M169 38 C76 38 76 141 76 275 C76 409 76 510 169 510 C267 510 273 436 273 275 C273 112 267 38 169 38 L169 38 Z " />
<glyph glyph-name="e" unicode="e" horiz-adv-x="320" d="M166 -5 C216 -5 249 3 285 15 L272 55 C242 44 211 36 170 36 C82 36 74 118 74 258 L292 258 C293 408 289 481 252 523 C234 543 207 553 169 553 C126 553 96 540 76 519 C33 474 30 390 30 275 C30 158 35 68 81 25 C101 6 130 -5 166 -5 L166 -5 Z M168 511 C244 511 248 444 249 300 L74 300 C75 432 84 511 168 511 L168 511 Z " />
<glyph glyph-name="f" unicode="f" horiz-adv-x="223" d="M17 505 L80 505 L80 0 L126 0 L126 505 L214 505 L214 547 L126 547 L126 643 C126 692 136 721 189 722 L214 722 L214 763 C206 764 199 764 187 764 C106 764 80 721 80 647 L80 547 L17 547 L17 505 Z " />
<glyph glyph-name="g" unicode="g" horiz-adv-x="340" d="M165 196 C267 196 292 263 292 374 C292 441 284 491 254 520 L317 520 L317 560 L204 549 C191 552 178 553 165 553 C61 553 37 485 37 374 C37 302 47 248 83 219 C70 204 63 182 63 159 C63 133 70 112 89 99 C32 81 15 33 15 -26 C15 -120 54 -157 166 -157 C263 -157 320 -122 320 -14 C320 73 294 119 166 119 C115 119 104 130 104 163 C104 175 108 191 115 202 C129 198 146 196 165 196 L165 196 Z M165 236 C93 236 82 290 82 374 C82 459 93 512 165 512 C235 512 247 459 247 374 C247 290 235 236 165 236 L165 236 Z M166 -119 C81 -119 59 -92 59 -23 C59 35 75 79 164 79 C252 79 275 57 275 -17 C275 -96 237 -119 166 -119 L166 -119 Z " />
<glyph glyph-name="h" unicode="h" horiz-adv-x="362" d="M45 0 L90 0 L90 329 C90 441 98 510 194 510 C260 510 274 478 274 367 L274 0 L319 0 L319 376 C319 441 318 493 290 524 C273 542 247 553 205 553 C133 553 104 526 90 499 L90 763 L45 763 L45 0 Z " />
<glyph glyph-name="i" unicode="i" horiz-adv-x="141" d="M48 0 L93 0 L93 547 L48 547 L48 0 Z M48 627 L93 627 L93 720 L48 720 L48 627 Z " />
<glyph glyph-name="j" unicode="j" horiz-adv-x="141" d="M9 -152 C79 -152 93 -125 93 -64 L93 547 L48 547 L48 -63 C48 -99 44 -110 9 -111 L9 -152 Z M48 627 L93 627 L93 720 L48 720 L48 627 Z " />
<glyph glyph-name="k" unicode="k" horiz-adv-x="314" d="M45 0 L89 0 L89 164 L144 273 L256 0 L304 0 L172 320 L288 547 L242 547 L89 246 L89 763 L45 763 L45 0 Z " />
<glyph glyph-name="l" unicode="l" horiz-adv-x="171" d="M135 -1 C137 -1 142 -1 144 0 L144 42 L140 42 C96 42 93 52 93 97 L93 763 L48 763 L48 94 C48 30 57 -1 135 -1 L135 -1 Z " />
<glyph glyph-name="m" unicode="m" horiz-adv-x="562" d="M45 0 L90 0 L90 329 C90 441 95 510 189 510 C252 510 265 478 265 367 L265 0 L310 0 L310 359 C310 453 323 510 409 510 C472 510 484 478 484 367 L484 0 L530 0 L530 376 C530 440 529 492 502 523 C487 542 460 553 419 553 C349 553 313 527 299 492 C289 529 265 553 200 553 C125 553 99 525 86 498 L82 546 L45 544 L45 0 Z " />
<glyph glyph-name="n" unicode="n" horiz-adv-x="362" d="M45 0 L90 0 L90 329 C90 441 98 510 194 510 C260 510 274 478 274 367 L274 0 L319 0 L319 376 C319 441 317 493 289 524 C272 542 246 553 203 553 C128 553 99 525 86 498 L82 546 L45 544 L45 0 Z " />
<glyph glyph-name="o" unicode="o" horiz-adv-x="353" d="M177 -5 C222 -5 253 7 275 28 C320 71 323 155 323 274 C323 391 321 474 277 518 C256 540 224 553 177 553 C130 553 99 540 77 519 C33 476 30 392 30 274 C30 154 34 69 79 27 C101 7 131 -5 177 -5 L177 -5 Z M177 37 C79 37 75 118 75 273 C75 428 79 510 177 510 C274 510 278 428 278 273 C278 118 274 37 177 37 L177 37 Z " />
<glyph glyph-name="p" unicode="p" horiz-adv-x="363" d="M45 -152 L90 -152 L90 51 C108 17 143 -4 203 -4 C240 -4 266 8 285 26 C332 72 333 164 333 274 C333 383 332 475 287 522 C269 541 242 553 204 553 C140 553 105 530 86 493 L82 546 L45 544 L45 -152 Z M194 39 C96 39 90 112 90 273 C90 436 96 510 194 510 C287 510 287 407 287 273 C287 139 287 39 194 39 L194 39 Z " />
<glyph glyph-name="q" unicode="q" horiz-adv-x="362" d="M273 -152 L318 -152 L318 548 L281 550 L275 499 C257 533 222 553 160 553 C123 553 97 542 78 524 C31 478 30 386 30 276 C30 168 31 74 76 27 C94 8 121 -4 159 -4 C221 -4 255 19 273 54 L273 -152 Z M169 38 C76 38 76 141 76 275 C76 409 76 510 169 510 C267 510 273 436 273 275 C273 112 267 38 169 38 L169 38 Z " />
<glyph glyph-name="r" unicode="r" horiz-adv-x="206" d="M45 0 L90 0 L90 311 C90 456 116 495 192 503 L192 547 C134 543 100 520 86 485 L82 546 L45 544 L45 0 Z " />
<glyph glyph-name="s" unicode="s" horiz-adv-x="274" d="M133 -5 C196 -5 244 32 244 102 C244 154 232 173 154 300 C90 402 84 416 84 447 C84 486 108 511 153 511 C172 511 198 507 222 499 L236 540 C207 550 178 553 152 553 C77 553 40 510 40 447 C40 403 58 373 122 271 C192 159 201 138 201 101 C201 56 167 36 133 36 C96 36 64 46 41 57 L24 18 C48 6 82 -5 133 -5 L133 -5 Z " />
<glyph glyph-name="t" unicode="t" horiz-adv-x="238" d="M17 505 L76 505 L76 109 C76 34 93 -1 176 -1 C184 -1 206 -1 212 0 L212 43 L179 43 C128 43 121 65 121 111 L121 505 L212 505 L212 547 L121 547 L121 687 L83 677 L77 547 L17 547 L17 505 Z " />
<glyph glyph-name="u" unicode="u" horiz-adv-x="356" d="M179 -5 C227 -5 258 8 278 28 C306 55 314 98 314 156 L314 547 L270 547 L270 159 C270 79 254 37 179 37 C103 37 88 80 88 157 L88 547 L43 547 L43 154 C43 96 51 51 82 25 C103 6 133 -5 179 -5 L179 -5 Z " />
<glyph glyph-name="v" unicode="v" horiz-adv-x="305" d="M128 -2 L178 -2 L296 547 L252 547 L175 183 L154 74 L132 183 L56 547 L9 547 L128 -2 Z " />
<glyph glyph-name="w" unicode="w" horiz-adv-x="492" d="M117 -2 L161 -2 L231 367 L246 452 L261 366 L332 -2 L376 -2 L482 547 L440 547 L372 191 L354 93 L337 190 L268 547 L227 547 L159 196 L141 93 L122 195 L55 547 L11 547 L117 -2 Z " />
<glyph glyph-name="x" unicode="x" horiz-adv-x="309" d="M248 0 L295 0 L178 285 L284 547 L241 547 L157 337 L72 547 L25 547 L130 289 L14 0 L57 0 L151 236 L248 0 Z " />
<glyph glyph-name="y" unicode="y" horiz-adv-x="303" d="M70 -153 C122 -152 145 -134 156 -86 L294 547 L250 547 L173 183 L153 76 L132 183 L55 547 L9 547 L130 -6 L114 -80 C108 -104 101 -111 68 -111 L41 -111 L41 -152 C44 -153 65 -153 70 -153 L70 -153 Z " />
<glyph glyph-name="z" unicode="z" horiz-adv-x="274" d="M20 0 L254 0 L254 40 L69 40 L250 512 L250 547 L30 547 L30 505 L200 505 L20 36 L20 0 Z " />
<glyph glyph-name="braceleft" unicode="&#x7b;" horiz-adv-x="287" d="M190 -152 L231 -152 L231 -112 L201 -112 C152 -112 134 -97 134 -39 C134 22 165 176 165 241 C165 274 154 296 128 306 C154 315 165 338 165 371 C165 437 134 589 134 649 C134 707 152 721 201 721 L231 721 L231 763 L190 763 C118 763 88 739 88 656 C88 590 120 433 120 376 C120 332 101 326 48 326 L48 286 C101 286 120 279 120 235 C120 178 88 20 88 -46 C88 -128 119 -152 190 -152 L190 -152 Z " />
<glyph glyph-name="bar" unicode="&#x7c;" horiz-adv-x="186" d="M70 -152 L115 -152 L115 763 L70 763 L70 -152 Z " />
<glyph glyph-name="braceright" unicode="&#x7d;" horiz-adv-x="287" d="M56 -152 L97 -152 C169 -152 199 -128 199 -46 C199 20 167 178 167 235 C167 279 186 286 239 286 L239 326 C186 326 167 332 167 376 C167 433 199 590 199 656 C199 739 169 763 97 763 L56 763 L56 721 L86 721 C135 721 153 707 153 649 C153 589 122 437 122 371 C122 338 133 315 159 306 C133 296 122 274 122 241 C122 176 153 22 153 -39 C153 -97 135 -112 86 -112 L56 -112 L56 -152 Z " />
<glyph glyph-name="asciitilde" unicode="&#x7e;" horiz-adv-x="332" d="M98 430 C100 453 107 462 126 462 C147 462 180 431 211 431 C249 431 267 454 272 498 L234 502 C231 479 224 470 206 470 C184 470 151 501 121 501 C81 501 65 478 59 434 L98 430 Z " />
<glyph glyph-name="exclamdown" unicode="&#xa1;" horiz-adv-x="208" d="M77 0 L129 0 L123 545 L83 545 L77 0 Z M75 660 L133 660 L133 741 L75 741 L75 660 Z " />
<glyph glyph-name="cent" unicode="&#xa2;" horiz-adv-x="305" d="M150 -97 L191 -97 L191 -4 C216 -3 236 3 253 9 L239 47 C227 42 208 37 188 37 L188 509 C207 508 224 505 239 501 L251 543 C234 547 215 551 191 552 L191 641 L150 641 L150 549 C122 544 102 533 87 516 C47 471 43 388 43 275 C43 157 47 68 94 25 C108 12 127 2 150 -1 L150 -97 Z M89 275 C89 404 93 485 152 504 L152 41 C93 61 89 145 89 275 L89 275 Z " />
<glyph glyph-name="sterling" unicode="&#xa3;" horiz-adv-x="340" d="M223 -3 C287 -3 309 25 309 103 L309 144 L268 144 L268 105 C268 57 258 38 220 38 C193 38 168 44 143 56 C153 83 152 121 146 172 L125 361 L244 361 L244 399 L120 399 L100 585 C92 649 108 704 175 704 C209 704 246 698 276 687 L292 726 C257 740 216 747 174 747 C73 747 46 671 56 584 L76 399 L22 399 L22 361 L80 361 L102 170 C111 95 120 39 23 42 L23 1 C68 0 98 7 118 22 C150 5 182 -3 223 -3 L223 -3 Z " />
<glyph glyph-name="currency" unicode="&#xa4;" horiz-adv-x="362" d="M22 410 L82 410 L82 345 L22 345 L22 305 L82 305 C83 152 91 68 135 26 C157 6 187 -5 229 -5 C273 -5 300 -1 330 14 L312 53 C288 42 263 37 229 37 C139 37 128 108 127 305 L278 305 L278 345 L127 345 L127 410 L278 410 L278 450 L127 450 C128 636 140 704 229 704 C259 704 290 698 310 689 L327 729 C300 740 274 747 229 747 C183 747 151 735 129 711 C91 669 83 586 82 450 L22 450 L22 410 Z " />
<glyph glyph-name="yen" unicode="&#xa5;" horiz-adv-x="344" d="M41 201 L149 201 L149 137 L41 137 L41 96 L149 96 L149 0 L194 0 L194 96 L302 96 L302 137 L194 137 L194 201 L302 201 L302 241 L194 241 L194 286 L325 742 L280 742 L172 341 L64 742 L19 742 L149 282 L149 241 L41 241 L41 201 Z " />
<glyph glyph-name="brokenbar" unicode="&#xa6;" horiz-adv-x="186" d="M70 -152 L115 -152 L115 234 L70 234 L70 -152 Z M70 377 L115 377 L115 763 L70 763 L70 377 Z " />
<glyph glyph-name="section" unicode="&#xa7;" horiz-adv-x="296" d="M64 0 C145 0 169 43 169 117 L169 180 C247 186 265 231 265 384 C265 536 247 580 169 586 L169 641 C169 690 179 719 232 719 L256 719 L256 760 L231 760 C149 760 125 717 125 643 L125 586 C48 580 31 535 31 384 C31 232 48 187 125 180 L125 119 C125 70 115 41 62 41 L38 41 L38 1 C40 1 60 0 64 0 L64 0 Z M148 219 C88 219 73 245 73 383 C73 522 89 547 148 547 C208 547 224 522 224 383 C224 245 208 219 148 219 L148 219 Z " />
<glyph glyph-name="dieresis" unicode="&#xa8;" horiz-adv-x="332" d="M84 605 L126 605 L126 683 L84 683 L84 605 Z M206 605 L248 605 L248 683 L206 683 L206 605 Z " />
<glyph glyph-name="copyright" unicode="&#xa9;" horiz-adv-x="465" d="M239 110 C273 110 296 116 317 125 L304 157 C285 150 266 144 240 144 C162 144 153 209 153 368 C153 525 162 591 240 591 C262 591 282 587 302 581 L315 614 C292 622 270 626 239 626 C203 626 178 617 159 598 C122 560 117 487 117 368 C117 248 123 176 160 138 C178 121 203 110 239 110 L239 110 Z M232 -8 C424 -8 438 117 438 371 C438 624 424 750 232 750 C42 750 27 624 27 371 C27 117 42 -8 232 -8 L232 -8 Z M232 19 C68 19 55 136 55 371 C55 605 68 722 232 722 C398 722 410 605 410 371 C410 136 398 19 232 19 L232 19 Z " />
<glyph glyph-name="ordfeminine" unicode="&#xaa;" horiz-adv-x="322" d="M133 294 C182 294 207 312 222 340 C224 309 240 296 273 296 L284 296 L284 331 C258 331 255 341 255 374 L255 602 C255 661 254 700 232 723 C219 739 195 747 159 747 C123 747 88 740 68 733 L81 697 C99 705 131 711 157 711 C215 711 218 671 218 599 L209 599 C89 599 44 573 44 441 C44 337 62 294 133 294 L133 294 Z M137 327 C92 327 81 361 81 442 C81 547 110 566 210 566 L218 566 L218 441 C218 396 215 327 137 327 L137 327 Z M56 182 L266 182 L266 220 L56 220 L56 182 Z " />
<glyph glyph-name="guillemotleft" unicode="&#xab;" horiz-adv-x="377" d="M138 0 L180 0 L97 273 L180 547 L138 547 L53 273 L138 0 Z M273 0 L315 0 L232 273 L315 547 L273 547 L189 273 L273 0 Z " />
<glyph glyph-name="logicalnot" unicode="&#xac;" horiz-adv-x="832" d="M126 120 C126 120 129 123 134 127 C79 193 46 278 46 371 C46 464 79 549 133 615 C129 619 126 621 126 621 C70 554 36 466 36 371 C36 275 70 187 126 120 L126 120 Z M228 211 C230 213 233 215 235 218 C201 259 181 313 181 371 C181 429 202 483 235 524 C232 526 230 529 227 531 C192 487 171 432 171 371 C171 310 193 254 228 211 L228 211 Z M264 243 C267 245 269 248 272 250 C245 283 229 325 229 371 C229 417 245 459 272 492 C269 494 267 497 264 499 C236 464 219 419 219 371 C219 322 236 278 264 243 L264 243 Z M316 289 C319 291 321 294 324 296 C308 317 298 343 298 371 C298 399 308 425 323 445 C321 448 318 450 316 452 C298 430 288 402 288 371 C288 340 298 312 316 289 L316 289 Z M349 320 C352 323 354 325 357 327 C348 340 343 355 343 371 C343 387 348 402 357 415 C354 417 352 420 349 422 C339 408 333 390 333 371 C333 352 339 334 349 320 L349 320 Z M378 346 C382 349 384 351 384 351 C381 357 379 364 379 371 C379 378 381 385 384 391 C384 391 382 393 378 396 C374 389 371 380 371 371 C371 362 374 353 378 346 L378 346 Z M416 60 C493 60 563 89 616 136 C614 139 611 141 609 144 C558 98 490 70 416 70 C342 70 274 98 222 144 C222 145 215 137 215 137 C268 89 338 60 416 60 L416 60 Z M416 324 C426 324 435 327 442 333 C439 337 437 339 437 339 C431 334 424 332 416 332 C408 332 401 335 395 339 C395 339 391 334 389 333 C397 327 406 324 416 324 L416 324 Z M482 319 C493 334 499 352 499 371 C499 390 493 408 482 422 C483 422 475 415 475 415 C484 403 489 388 489 371 C489 355 484 339 475 326 C478 324 480 322 482 319 L482 319 Z M292 269 C295 271 298 274 300 276 C280 302 267 335 267 371 C267 407 280 440 300 466 L293 473 C270 445 257 410 257 371 C257 333 270 297 292 269 L292 269 Z M416 -17 C512 -17 600 19 667 80 C667 80 660 88 660 87 C595 29 510 -7 416 -7 C322 -7 236 29 171 88 L164 80 C231 20 320 -17 416 -17 L416 -17 Z M416 121 C478 121 534 144 576 182 C574 185 571 187 569 190 C529 153 475 131 416 131 C357 131 303 153 262 190 L255 182 C298 144 354 121 416 121 L416 121 Z M416 170 C465 170 510 188 544 218 C542 221 539 223 537 226 C505 197 462 180 416 180 C369 180 327 197 294 226 L287 219 C322 189 367 170 416 170 L416 170 Z M416 209 C455 209 491 224 518 247 C516 250 514 253 512 255 C486 233 452 219 416 219 C380 219 346 233 320 255 L313 247 C341 224 377 209 416 209 L416 209 Z M416 265 C441 265 463 274 481 289 C479 292 476 294 474 297 C458 283 438 275 416 275 C394 275 373 283 357 297 L350 289 C368 274 391 265 416 265 L416 265 Z M358 445 C374 459 394 467 416 467 C438 467 458 459 474 445 L482 453 C464 468 441 477 416 477 C391 477 368 468 350 453 C351 452 354 448 358 445 L358 445 Z M570 552 C572 554 575 557 577 560 C534 598 478 621 416 621 C355 621 299 598 256 560 L263 553 C304 589 357 611 416 611 C475 611 529 589 570 552 L570 552 Z M454 346 C458 353 461 362 461 371 C461 380 458 389 454 396 L448 391 C451 385 453 378 453 371 C453 364 451 357 448 351 C448 351 450 349 454 346 L454 346 Z M468 333 C476 344 480 357 480 371 C480 385 476 398 468 409 L460 402 C466 393 470 382 470 371 C470 360 466 349 460 340 C463 338 465 336 468 333 L468 333 Z M498 306 C511 325 519 347 519 371 C519 395 511 418 497 436 L490 429 C502 413 509 393 509 371 C509 349 502 329 490 313 C492 311 495 308 498 306 L498 306 Z M540 269 C562 297 575 332 575 371 C575 410 562 445 539 473 L531 466 C552 440 565 407 565 371 C565 335 552 302 532 276 C535 274 537 271 540 269 L540 269 Z M568 243 C596 278 613 322 613 371 C613 420 596 464 568 499 L560 492 C587 459 603 417 603 371 C603 325 587 283 560 250 C563 248 566 245 568 243 L568 243 Z M604 211 C640 254 661 310 661 371 C661 432 640 488 604 531 L596 524 C631 483 651 429 651 371 C651 313 631 260 596 218 C601 213 604 211 604 211 L604 211 Z M649 171 C694 225 721 295 721 371 C721 447 694 517 649 571 L641 564 C685 512 711 445 711 371 C711 297 685 230 642 177 C644 175 647 173 649 171 L649 171 Z M706 120 C762 188 796 276 796 371 C796 467 762 555 706 622 L698 615 C753 549 786 464 786 371 C786 278 753 193 698 127 C703 123 706 120 706 120 L706 120 Z M183 170 L190 177 C147 229 121 297 121 371 C121 444 147 512 190 564 C187 567 184 569 182 571 C138 517 111 447 111 371 C111 294 138 225 183 170 L183 170 Z M334 306 L342 314 C330 330 323 350 323 371 C323 393 330 413 342 429 C340 431 337 434 334 436 C321 418 313 395 313 371 C313 346 321 324 334 306 L334 306 Z M364 333 L371 340 C366 349 362 360 362 371 C362 382 366 393 371 402 C369 404 366 406 364 409 C356 398 352 385 352 371 C352 357 356 344 364 333 L364 333 Z M395 403 C401 408 408 410 416 410 C424 410 431 407 437 403 C437 403 439 406 442 409 C435 415 426 418 416 418 C406 418 397 415 390 409 L395 403 Z M384 416 C393 423 404 428 416 428 C428 428 439 424 448 416 C450 419 452 421 454 423 C443 432 430 437 416 437 C401 437 388 432 377 423 L384 416 Z M371 430 C383 441 399 447 416 447 C433 447 449 441 461 430 C461 430 464 434 468 438 C454 450 436 457 416 457 C397 457 378 450 364 438 L371 430 Z M295 516 C327 545 370 562 416 562 C462 562 505 545 538 516 C538 516 545 523 544 523 C510 554 465 572 416 572 C367 572 322 554 288 524 L295 516 Z M416 240 C448 240 476 252 498 271 L491 278 C471 261 445 250 416 250 C388 250 361 261 340 278 L333 270 C355 251 384 240 416 240 L416 240 Z M416 285 C436 285 454 292 468 304 L461 312 C448 301 433 295 416 295 C399 295 383 302 370 312 L363 304 C378 292 396 285 416 285 L416 285 Z M416 305 C430 305 444 310 455 319 L448 326 C439 319 428 314 416 314 C404 314 393 319 383 326 L376 319 C388 310 401 305 416 305 L416 305 Z M341 464 C362 482 388 492 416 492 C445 492 471 481 491 464 L498 472 C476 491 447 502 416 502 C385 502 356 490 334 471 L341 464 Z M320 487 C346 509 380 523 416 523 C453 523 486 510 512 487 L518 494 C491 518 455 533 416 533 C377 533 341 519 313 495 L320 487 Z M610 597 L617 605 C563 653 493 682 416 682 C339 682 269 653 215 605 L222 598 C274 644 342 672 416 672 C491 672 559 644 610 597 L610 597 Z M172 654 C237 713 322 749 416 749 C510 749 596 713 661 654 L668 662 C601 722 512 759 416 759 C320 759 232 723 165 662 L172 654 Z M516 290 C534 312 544 340 544 371 C544 402 534 430 516 453 L508 446 C524 425 534 399 534 371 C534 343 524 317 509 297 L516 290 Z " />
<glyph glyph-name="registered" unicode="&#xae;" horiz-adv-x="465" d="M232 -8 C424 -8 438 117 438 371 C438 624 424 750 232 750 C42 750 27 624 27 371 C27 117 42 -8 232 -8 L232 -8 Z M232 19 C68 19 55 136 55 371 C55 605 68 722 232 722 C398 722 410 605 410 371 C410 136 398 19 232 19 L232 19 Z M300 129 L334 129 L268 347 C323 360 339 400 339 479 C339 578 315 613 224 613 L138 613 L138 129 L171 129 L171 342 L235 342 L300 129 Z M171 374 L171 581 L223 581 C291 581 305 558 305 478 C305 398 291 374 224 374 L171 374 Z " />
<glyph glyph-name="&amp;#xaf;" unicode="&#xaf;" horiz-adv-x="332" d="M68 605 L264 605 L264 646 L68 646 L68 605 Z " />
<glyph glyph-name="&amp;#x2c9;" unicode="&#x2c9;" horiz-adv-x="332" d="M68 605 L264 605 L264 646 L68 646 L68 605 Z " />
<glyph glyph-name="degree" unicode="&#xb0;" horiz-adv-x="316" d="M158 290 C269 290 273 371 273 518 C273 665 269 747 158 747 C47 747 43 665 43 518 C43 371 47 290 158 290 L158 290 Z M158 327 C84 327 84 389 84 517 C84 645 84 708 158 708 C231 708 232 645 232 517 C232 389 231 327 158 327 L158 327 Z " />
<glyph glyph-name="plusminus" unicode="&#xb1;" horiz-adv-x="571" d="M264 0 L310 0 L310 505 L392 505 L392 547 L310 547 L310 644 C310 693 320 722 370 722 L392 722 L392 763 C384 764 379 764 368 764 C288 764 264 721 264 647 L264 547 L126 547 L126 644 C126 693 136 722 186 722 L208 722 L208 763 C200 764 195 764 184 764 C104 764 80 721 80 647 L80 547 L17 547 L17 505 L80 505 L80 0 L126 0 L126 505 L264 505 L264 0 Z M535 -1 C537 -1 542 -1 544 0 L544 42 L540 42 C496 42 493 52 493 97 L493 763 L448 763 L448 94 C448 30 457 -1 535 -1 L535 -1 Z " />
<glyph glyph-name="twosuperior" unicode="&#xb2;" horiz-adv-x="255" d="M43 302 L205 302 L205 337 L85 337 L181 570 C196 605 204 636 204 672 C204 721 182 746 117 746 C87 746 60 740 40 731 L56 698 C72 705 91 710 115 710 C153 710 164 695 164 668 C164 639 158 615 144 582 L43 336 L43 302 Z " />
<glyph glyph-name="threesuperior" unicode="&#xb3;" horiz-adv-x="250" d="M110 298 C185 298 200 337 200 424 C200 497 198 533 158 548 C189 564 194 597 194 650 C194 717 181 742 113 742 C81 742 53 737 38 730 L52 697 C66 703 89 707 109 707 C149 707 155 692 155 646 C155 591 147 562 90 562 L71 562 L71 527 L90 527 C157 527 160 501 160 426 C160 361 153 333 107 333 C83 333 59 340 46 346 L32 312 C47 305 77 298 110 298 L110 298 Z " />
<glyph glyph-name="acute" unicode="&#xb4;" horiz-adv-x="332" d="M128 605 L170 605 L262 740 L211 740 L128 605 Z " />
<glyph glyph-name="&amp;#xb5;" unicode="&#xb5;" horiz-adv-x="358" d="M45 -152 L90 -152 L90 35 C108 8 139 -5 183 -5 C231 -5 260 8 280 28 C309 55 316 98 316 156 L316 547 L272 547 L272 159 C272 79 257 37 181 37 C106 37 90 80 90 157 L90 547 L45 547 L45 -152 Z " />
<glyph glyph-name="&amp;#x3bc;" unicode="&#x3bc;" horiz-adv-x="358" d="M45 -152 L90 -152 L90 35 C108 8 139 -5 183 -5 C231 -5 260 8 280 28 C309 55 316 98 316 156 L316 547 L272 547 L272 159 C272 79 257 37 181 37 C106 37 90 80 90 157 L90 547 L45 547 L45 -152 Z " />
<glyph glyph-name="paragraph" unicode="&#xb6;" horiz-adv-x="351" d="M144 0 L187 0 L187 317 L253 317 L253 0 L296 0 L296 741 L209 741 C68 741 33 689 33 530 C33 399 57 339 144 322 L144 0 Z M207 358 C100 358 77 397 77 530 C77 662 100 699 208 699 L253 699 L253 358 L207 358 Z " />
<glyph glyph-name="&amp;#xb7;" unicode="&#xb7;" horiz-adv-x="142" d="M43 276 L100 276 L100 358 L43 358 L43 276 Z " />
<glyph glyph-name="&amp;#x2219;" unicode="&#x2219;" horiz-adv-x="142" d="M43 276 L100 276 L100 358 L43 358 L43 276 Z " />
<glyph glyph-name="cedilla" unicode="&#xb8;" horiz-adv-x="332" d="M171 -193 C226 -193 250 -176 250 -115 C250 -61 228 -47 183 -49 L193 11 L159 11 L147 -60 L164 -74 C204 -71 214 -79 214 -113 C214 -149 204 -159 168 -159 C150 -159 135 -155 118 -149 L105 -180 C127 -189 146 -193 171 -193 L171 -193 Z " />
<glyph glyph-name="onesuperior" unicode="&#xb9;" horiz-adv-x="200" d="M88 302 L129 302 L129 741 L39 741 L39 705 L88 705 L88 302 Z " />
<glyph glyph-name="ordmasculine" unicode="&#xba;" horiz-adv-x="326" d="M163 292 C201 292 226 301 244 319 C280 354 284 422 284 519 C284 615 281 682 246 719 C227 736 203 747 163 747 C125 747 99 736 82 720 C46 684 43 616 43 519 C43 421 46 351 83 318 C101 301 126 292 163 292 L163 292 Z M163 328 C85 328 82 393 82 519 C82 644 85 710 163 710 C241 710 244 644 244 519 C244 393 241 328 163 328 L163 328 Z M55 182 L272 182 L272 220 L55 220 L55 182 Z " />
<glyph glyph-name="guillemotright" unicode="&#xbb;" horiz-adv-x="377" d="M63 0 L105 0 L189 273 L105 547 L63 547 L145 273 L63 0 Z M197 0 L240 0 L324 273 L240 547 L197 547 L280 273 L197 0 Z " />
<glyph glyph-name="onequarter" unicode="&#xbc;" horiz-adv-x="474" d="M94 0 L135 0 L351 741 L310 741 L94 0 Z M245 103 L361 103 L361 0 L399 0 L399 103 L443 103 L443 138 L399 138 L399 267 L369 267 L361 138 L284 138 L393 440 L353 440 L245 137 L245 103 Z M85 302 L125 302 L125 741 L36 741 L36 705 L85 705 L85 302 Z " />
<glyph glyph-name="onehalf" unicode="&#xbd;" horiz-adv-x="515" d="M94 0 L135 0 L351 741 L310 741 L94 0 Z M85 302 L125 302 L125 741 L36 741 L36 705 L85 705 L85 302 Z M299 0 L461 0 L461 35 L342 35 L437 269 C451 301 460 334 460 371 C460 420 439 444 373 444 C343 444 316 439 296 429 L312 397 C328 404 347 409 371 409 C409 409 421 394 421 366 C421 338 413 312 400 281 L299 35 L299 0 Z " />
<glyph glyph-name="threequarters" unicode="&#xbe;" horiz-adv-x="526" d="M145 0 L187 0 L402 741 L361 741 L145 0 Z M296 103 L412 103 L412 0 L450 0 L450 103 L494 103 L494 138 L450 138 L450 267 L420 267 L412 138 L335 138 L444 440 L404 440 L296 137 L296 103 Z M111 298 C187 298 201 337 201 424 C201 497 199 533 160 548 C190 564 195 597 195 650 C195 717 183 742 114 742 C83 742 55 737 40 730 L54 697 C67 703 90 707 111 707 C150 707 156 692 156 646 C156 591 149 562 92 562 L73 562 L73 527 L92 527 C158 527 162 501 162 426 C162 361 155 333 108 333 C85 333 60 340 48 346 L33 312 C49 305 79 298 111 298 L111 298 Z " />
<glyph glyph-name="questiondown" unicode="&#xbf;" horiz-adv-x="359" d="M183 -6 C233 -6 275 5 309 20 L291 59 C264 47 225 37 186 37 C118 37 98 80 98 127 C98 161 106 194 119 219 L183 347 C212 403 213 443 214 546 L170 546 C169 445 165 407 143 363 L80 236 C66 209 52 165 52 122 C52 57 82 -6 183 -6 L183 -6 Z M164 663 L221 663 L221 741 L164 741 L164 663 Z " />
<glyph glyph-name="Agrave" unicode="&#xc0;" horiz-adv-x="387" d="M18 0 L62 0 L99 188 L287 188 L324 0 L370 0 L218 743 L169 743 L18 0 Z M109 231 L173 552 L193 659 L213 552 L277 231 L109 231 Z M189 785 L231 785 L148 920 L97 920 L189 785 Z " />
<glyph glyph-name="Aacute" unicode="&#xc1;" horiz-adv-x="387" d="M18 0 L62 0 L99 188 L287 188 L324 0 L370 0 L218 743 L169 743 L18 0 Z M109 231 L173 552 L193 659 L213 552 L277 231 L109 231 Z M155 785 L197 785 L289 920 L238 920 L155 785 Z " />
<glyph glyph-name="Acircumflex" unicode="&#xc2;" horiz-adv-x="387" d="M18 0 L62 0 L99 188 L287 188 L324 0 L370 0 L218 743 L169 743 L18 0 Z M109 231 L173 552 L193 659 L213 552 L277 231 L109 231 Z M87 785 L128 785 L193 885 L258 785 L299 785 L215 920 L172 920 L87 785 Z " />
<glyph glyph-name="Atilde" unicode="&#xc3;" horiz-adv-x="387" d="M18 0 L62 0 L99 188 L287 188 L324 0 L370 0 L218 743 L169 743 L18 0 Z M109 231 L173 552 L193 659 L213 552 L277 231 L109 231 Z M125 784 C127 807 134 816 153 816 C174 816 207 785 238 785 C276 785 294 808 299 852 L261 856 C258 833 251 824 233 824 C211 824 178 855 148 855 C108 855 92 832 86 788 L125 784 Z " />
<glyph glyph-name="Adieresis" unicode="&#xc4;" horiz-adv-x="387" d="M18 0 L62 0 L99 188 L287 188 L324 0 L370 0 L218 743 L169 743 L18 0 Z M109 231 L173 552 L193 659 L213 552 L277 231 L109 231 Z M111 785 L153 785 L153 863 L111 863 L111 785 Z M233 785 L275 785 L275 863 L233 863 L233 785 Z " />
<glyph glyph-name="Aring" unicode="&#xc5;" horiz-adv-x="387" d="M18 0 L62 0 L99 188 L287 188 L324 0 L370 0 L222 720 C257 731 263 766 263 810 C263 865 255 906 193 906 C130 906 123 865 123 810 C123 765 128 730 164 719 L18 0 Z M109 231 L173 552 L193 659 L213 552 L277 231 L109 231 Z M193 745 C157 745 153 771 153 810 C153 851 157 876 193 876 C229 876 232 851 232 810 C232 771 229 745 193 745 L193 745 Z " />
<glyph glyph-name="AE" unicode="&#xc6;" horiz-adv-x="564" d="M7 0 L53 0 L113 195 L269 195 L269 0 L532 0 L532 43 L314 43 L314 361 L516 361 L516 405 L314 405 L314 698 L530 698 L530 741 L238 741 L7 0 Z M126 236 L269 700 L269 236 L126 236 Z " />
<glyph glyph-name="Ccedilla" unicode="&#xc7;" horiz-adv-x="341" d="M175 -193 C230 -193 254 -176 254 -115 C254 -61 232 -47 187 -49 L194 -4 C200 -5 205 -5 211 -5 C257 -5 290 3 321 15 L305 56 C278 46 250 39 212 39 C93 39 79 134 79 370 C79 607 93 702 212 702 C246 702 276 696 303 687 L318 729 C286 741 254 747 211 747 C157 747 119 733 93 706 C40 652 33 544 33 371 C33 196 41 88 94 35 C111 18 133 6 161 0 L151 -60 L168 -74 C208 -71 218 -79 218 -113 C218 -149 208 -159 172 -159 C154 -159 139 -155 122 -149 L109 -180 C131 -189 150 -193 175 -193 L175 -193 Z " />
<glyph glyph-name="Egrave" unicode="&#xc8;" horiz-adv-x="350" d="M51 0 L315 0 L315 43 L97 43 L97 361 L306 361 L306 405 L97 405 L97 698 L315 698 L315 741 L51 741 L51 0 Z M171 785 L213 785 L130 920 L79 920 L171 785 Z " />
<glyph glyph-name="Eacute" unicode="&#xc9;" horiz-adv-x="350" d="M137 785 L179 785 L271 920 L220 920 L137 785 Z M51 0 L315 0 L315 43 L97 43 L97 361 L306 361 L306 405 L97 405 L97 698 L315 698 L315 741 L51 741 L51 0 Z " />
<glyph glyph-name="Ecircumflex" unicode="&#xca;" horiz-adv-x="350" d="M69 785 L110 785 L175 885 L240 785 L281 785 L197 920 L154 920 L69 785 Z M51 0 L315 0 L315 43 L97 43 L97 361 L306 361 L306 405 L97 405 L97 698 L315 698 L315 741 L51 741 L51 0 Z " />
<glyph glyph-name="Edieresis" unicode="&#xcb;" horiz-adv-x="350" d="M93 785 L135 785 L135 863 L93 863 L93 785 Z M215 785 L257 785 L257 863 L215 863 L215 785 Z M51 0 L315 0 L315 43 L97 43 L97 361 L306 361 L306 405 L97 405 L97 698 L315 698 L315 741 L51 741 L51 0 Z " />
<glyph glyph-name="Igrave" unicode="&#xcc;" horiz-adv-x="158" d="M59 785 L100 785 L35 920 L-17 920 L59 785 Z M56 0 L102 0 L102 741 L56 741 L56 0 Z " />
<glyph glyph-name="Iacute" unicode="&#xcd;" horiz-adv-x="158" d="M58 785 L99 785 L175 920 L124 920 L58 785 Z M56 0 L102 0 L102 741 L56 741 L56 0 Z " />
<glyph glyph-name="Icircumflex" unicode="&#xce;" horiz-adv-x="158" d="M-18 785 L23 785 L79 885 L134 785 L177 785 L101 920 L58 920 L-18 785 Z M56 0 L102 0 L102 741 L56 741 L56 0 Z " />
<glyph glyph-name="Idieresis" unicode="&#xcf;" horiz-adv-x="158" d="M56 0 L102 0 L102 741 L56 741 L56 0 Z M-2 785 L40 785 L40 863 L-2 863 L-2 785 Z M120 785 L162 785 L162 863 L120 863 L120 785 Z " />
<glyph glyph-name="Eth" unicode="&#xd0;" horiz-adv-x="410" d="M3 362 L51 362 L51 0 L181 0 C247 0 292 14 321 42 C374 92 378 192 378 371 C378 540 374 641 326 694 C297 725 251 741 181 741 L51 741 L51 403 L3 403 L3 362 Z M97 42 L97 362 L204 362 L204 403 L97 403 L97 698 L181 698 C323 698 332 620 332 371 C332 117 323 42 182 42 L97 42 Z " />
<glyph glyph-name="Ntilde" unicode="&#xd1;" horiz-adv-x="413" d="M51 0 L95 0 L95 639 L124 553 L319 0 L362 0 L362 741 L320 741 L320 116 L287 211 L101 741 L51 741 L51 0 Z M138 784 C140 807 147 816 166 816 C187 816 220 785 251 785 C289 785 307 808 312 852 L274 856 C271 833 264 824 246 824 C224 824 191 855 161 855 C121 855 105 832 99 788 L138 784 Z " />
<glyph glyph-name="Ograve" unicode="&#xd2;" horiz-adv-x="429" d="M215 -6 C269 -6 308 8 335 34 C391 89 396 199 396 371 C396 538 391 647 339 703 C312 732 272 748 215 748 C157 748 117 732 90 703 C38 646 33 538 33 371 C33 200 39 90 94 35 C121 8 160 -6 215 -6 L215 -6 Z M215 38 C90 38 79 136 79 370 C79 605 90 704 215 704 C339 704 350 605 350 370 C350 136 340 38 215 38 L215 38 Z M210 785 L252 785 L169 920 L118 920 L210 785 Z " />
<glyph glyph-name="Oacute" unicode="&#xd3;" horiz-adv-x="429" d="M176 785 L218 785 L310 920 L259 920 L176 785 Z M215 -6 C269 -6 308 8 335 34 C391 89 396 199 396 371 C396 538 391 647 339 703 C312 732 272 748 215 748 C157 748 117 732 90 703 C38 646 33 538 33 371 C33 200 39 90 94 35 C121 8 160 -6 215 -6 L215 -6 Z M215 38 C90 38 79 136 79 370 C79 605 90 704 215 704 C339 704 350 605 350 370 C350 136 340 38 215 38 L215 38 Z " />
<glyph glyph-name="Ocircumflex" unicode="&#xd4;" horiz-adv-x="429" d="M108 785 L149 785 L214 885 L279 785 L320 785 L236 920 L193 920 L108 785 Z M215 -6 C269 -6 308 8 335 34 C391 89 396 199 396 371 C396 538 391 647 339 703 C312 732 272 748 215 748 C157 748 117 732 90 703 C38 646 33 538 33 371 C33 200 39 90 94 35 C121 8 160 -6 215 -6 L215 -6 Z M215 38 C90 38 79 136 79 370 C79 605 90 704 215 704 C339 704 350 605 350 370 C350 136 340 38 215 38 L215 38 Z " />
<glyph glyph-name="Otilde" unicode="&#xd5;" horiz-adv-x="429" d="M215 -6 C269 -6 308 8 335 34 C391 89 396 199 396 371 C396 538 391 647 339 703 C312 732 272 748 215 748 C157 748 117 732 90 703 C38 646 33 538 33 371 C33 200 39 90 94 35 C121 8 160 -6 215 -6 L215 -6 Z M215 38 C90 38 79 136 79 370 C79 605 90 704 215 704 C339 704 350 605 350 370 C350 136 340 38 215 38 L215 38 Z M146 784 C148 807 155 816 174 816 C195 816 228 785 259 785 C297 785 315 808 320 852 L282 856 C279 833 272 824 254 824 C232 824 199 855 169 855 C129 855 113 832 107 788 L146 784 Z " />
<glyph glyph-name="Odieresis" unicode="&#xd6;" horiz-adv-x="429" d="M132 785 L174 785 L174 863 L132 863 L132 785 Z M254 785 L296 785 L296 863 L254 863 L254 785 Z M215 -6 C269 -6 308 8 335 34 C391 89 396 199 396 371 C396 538 391 647 339 703 C312 732 272 748 215 748 C157 748 117 732 90 703 C38 646 33 538 33 371 C33 200 39 90 94 35 C121 8 160 -6 215 -6 L215 -6 Z M215 38 C90 38 79 136 79 370 C79 605 90 704 215 704 C339 704 350 605 350 370 C350 136 340 38 215 38 L215 38 Z " />
<glyph glyph-name="multiply" unicode="&#xd7;" horiz-adv-x="385" d="M104 256 L192 343 L280 255 L306 281 L218 369 L306 457 L280 484 L192 396 L104 484 L78 458 L166 370 L78 282 L104 256 Z " />
<glyph glyph-name="Oslash" unicode="&#xd8;" horiz-adv-x="429" d="M94 -41 L136 -41 L147 3 C166 -2 189 -6 215 -6 C269 -6 308 8 335 34 C391 89 396 199 396 371 C396 538 391 647 339 703 C333 709 326 715 319 720 L335 783 L293 783 L281 738 C262 744 240 748 215 748 C157 748 117 732 90 703 C38 646 33 538 33 371 C33 200 39 90 94 35 C99 30 104 26 109 22 L94 -41 Z M215 36 C190 36 171 40 154 47 L305 672 C346 626 351 530 351 370 C351 134 340 36 215 36 L215 36 Z M79 370 C79 606 90 705 215 705 C238 705 257 701 273 694 L123 71 C83 117 79 212 79 370 L79 370 Z " />
<glyph glyph-name="Ugrave" unicode="&#xd9;" horiz-adv-x="418" d="M209 -6 C264 -6 301 7 325 29 C363 64 370 124 370 202 L370 741 L325 741 L325 203 C325 96 307 38 209 38 C112 38 94 96 94 203 L94 741 L48 741 L48 202 C48 123 57 64 95 29 C119 7 156 -6 209 -6 L209 -6 Z M204 785 L246 785 L163 920 L112 920 L204 785 Z " />
<glyph glyph-name="Uacute" unicode="&#xda;" horiz-adv-x="418" d="M170 785 L212 785 L304 920 L253 920 L170 785 Z M209 -6 C264 -6 301 7 325 29 C363 64 370 124 370 202 L370 741 L325 741 L325 203 C325 96 307 38 209 38 C112 38 94 96 94 203 L94 741 L48 741 L48 202 C48 123 57 64 95 29 C119 7 156 -6 209 -6 L209 -6 Z " />
<glyph glyph-name="Ucircumflex" unicode="&#xdb;" horiz-adv-x="418" d="M102 785 L143 785 L208 885 L273 785 L314 785 L230 920 L187 920 L102 785 Z M209 -6 C264 -6 301 7 325 29 C363 64 370 124 370 202 L370 741 L325 741 L325 203 C325 96 307 38 209 38 C112 38 94 96 94 203 L94 741 L48 741 L48 202 C48 123 57 64 95 29 C119 7 156 -6 209 -6 L209 -6 Z " />
<glyph glyph-name="Udieresis" unicode="&#xdc;" horiz-adv-x="418" d="M126 785 L168 785 L168 863 L126 863 L126 785 Z M248 785 L290 785 L290 863 L248 863 L248 785 Z M209 -6 C264 -6 301 7 325 29 C363 64 370 124 370 202 L370 741 L325 741 L325 203 C325 96 307 38 209 38 C112 38 94 96 94 203 L94 741 L48 741 L48 202 C48 123 57 64 95 29 C119 7 156 -6 209 -6 L209 -6 Z " />
<glyph glyph-name="Yacute" unicode="&#xdd;" horiz-adv-x="376" d="M165 0 L211 0 L211 272 L365 741 L320 741 L188 336 L58 741 L11 741 L165 272 L165 0 Z M150 785 L192 785 L284 920 L233 920 L150 785 Z " />
<glyph glyph-name="Thorn" unicode="&#xde;" horiz-adv-x="388" d="M51 0 L97 0 L97 178 L183 178 C322 178 357 235 357 392 C357 549 322 603 181 603 L97 603 L97 741 L51 741 L51 0 Z M97 220 L97 560 L181 560 C289 560 312 522 312 391 C312 260 289 220 182 220 L97 220 Z " />
<glyph glyph-name="germandbls" unicode="&#xdf;" horiz-adv-x="362" d="M45 0 L90 0 L90 598 C90 655 92 723 181 723 C270 723 272 661 272 565 C272 473 269 418 181 418 L169 418 L169 377 L181 377 C278 377 291 343 291 210 C291 74 259 42 181 42 L141 42 L141 0 L181 0 C291 0 335 38 335 207 C335 333 326 386 264 404 C313 429 315 485 315 572 C315 690 308 765 181 765 C54 765 45 682 45 601 L45 0 Z " />
<glyph glyph-name="agrave" unicode="&#xe0;" horiz-adv-x="349" d="M139 -4 C202 -4 232 18 250 50 C254 13 267 -1 310 -1 C313 -1 321 -1 324 0 L324 42 C292 42 288 53 288 94 L288 377 C288 446 287 495 260 524 C243 542 215 553 171 553 C126 553 84 544 60 535 L75 493 C99 503 138 510 168 510 C241 510 244 462 244 373 L232 373 C85 373 30 339 30 178 C30 50 52 -4 139 -4 L139 -4 Z M144 37 C87 37 74 80 74 180 C74 308 109 332 234 332 L244 332 L244 189 C244 123 241 37 144 37 L144 37 Z M170 605 L212 605 L129 740 L78 740 L170 605 Z " />
<glyph glyph-name="aacute" unicode="&#xe1;" horiz-adv-x="349" d="M139 -4 C202 -4 232 18 250 50 C254 13 267 -1 310 -1 C313 -1 321 -1 324 0 L324 42 C292 42 288 53 288 94 L288 377 C288 446 287 495 260 524 C243 542 215 553 171 553 C126 553 84 544 60 535 L75 493 C99 503 138 510 168 510 C241 510 244 462 244 373 L232 373 C85 373 30 339 30 178 C30 50 52 -4 139 -4 L139 -4 Z M144 37 C87 37 74 80 74 180 C74 308 109 332 234 332 L244 332 L244 189 C244 123 241 37 144 37 L144 37 Z M136 605 L178 605 L270 740 L219 740 L136 605 Z " />
<glyph glyph-name="acircumflex" unicode="&#xe2;" horiz-adv-x="349" d="M139 -4 C202 -4 232 18 250 50 C254 13 267 -1 310 -1 C313 -1 321 -1 324 0 L324 42 C292 42 288 53 288 94 L288 377 C288 446 287 495 260 524 C243 542 215 553 171 553 C126 553 84 544 60 535 L75 493 C99 503 138 510 168 510 C241 510 244 462 244 373 L232 373 C85 373 30 339 30 178 C30 50 52 -4 139 -4 L139 -4 Z M144 37 C87 37 74 80 74 180 C74 308 109 332 234 332 L244 332 L244 189 C244 123 241 37 144 37 L144 37 Z M68 605 L109 605 L174 705 L239 605 L280 605 L196 740 L153 740 L68 605 Z " />
<glyph glyph-name="atilde" unicode="&#xe3;" horiz-adv-x="349" d="M139 -4 C202 -4 232 18 250 50 C254 13 267 -1 310 -1 C313 -1 321 -1 324 0 L324 42 C292 42 288 53 288 94 L288 377 C288 446 287 495 260 524 C243 542 215 553 171 553 C126 553 84 544 60 535 L75 493 C99 503 138 510 168 510 C241 510 244 462 244 373 L232 373 C85 373 30 339 30 178 C30 50 52 -4 139 -4 L139 -4 Z M144 37 C87 37 74 80 74 180 C74 308 109 332 234 332 L244 332 L244 189 C244 123 241 37 144 37 L144 37 Z M106 604 C108 627 115 636 134 636 C155 636 188 605 219 605 C257 605 275 628 280 672 L242 676 C239 653 232 644 214 644 C192 644 159 675 129 675 C89 675 73 652 67 608 L106 604 Z " />
<glyph glyph-name="adieresis" unicode="&#xe4;" horiz-adv-x="349" d="M139 -4 C202 -4 232 18 250 50 C254 13 267 -1 310 -1 C313 -1 321 -1 324 0 L324 42 C292 42 288 53 288 94 L288 377 C288 446 287 495 260 524 C243 542 215 553 171 553 C126 553 84 544 60 535 L75 493 C99 503 138 510 168 510 C241 510 244 462 244 373 L232 373 C85 373 30 339 30 178 C30 50 52 -4 139 -4 L139 -4 Z M144 37 C87 37 74 80 74 180 C74 308 109 332 234 332 L244 332 L244 189 C244 123 241 37 144 37 L144 37 Z M92 605 L134 605 L134 683 L92 683 L92 605 Z M214 605 L256 605 L256 683 L214 683 L214 605 Z " />
<glyph glyph-name="aring" unicode="&#xe5;" horiz-adv-x="349" d="M139 -4 C202 -4 232 18 250 50 C254 13 267 -1 310 -1 C313 -1 321 -1 324 0 L324 42 C292 42 288 53 288 94 L288 377 C288 446 287 495 260 524 C243 542 215 553 171 553 C126 553 84 544 60 535 L75 493 C99 503 138 510 168 510 C241 510 244 462 244 373 L232 373 C85 373 30 339 30 178 C30 50 52 -4 139 -4 L139 -4 Z M144 37 C87 37 74 80 74 180 C74 308 109 332 234 332 L244 332 L244 189 C244 123 241 37 144 37 L144 37 Z M174 601 C236 601 244 641 244 695 C244 750 236 791 174 791 C111 791 104 750 104 695 C104 641 111 601 174 601 L174 601 Z M174 630 C138 630 134 656 134 695 C134 736 138 761 174 761 C210 761 213 736 213 695 C213 656 210 630 174 630 L174 630 Z " />
<glyph glyph-name="ae" unicode="&#xe6;" horiz-adv-x="532" d="M379 -5 C429 -5 461 3 499 15 L485 55 C455 44 424 36 383 36 C295 36 287 118 287 258 L505 258 C506 408 502 481 465 523 C447 543 420 553 381 553 C340 553 310 540 290 519 C284 512 279 505 274 497 C271 507 265 516 259 524 C242 542 215 553 171 553 C126 553 84 544 60 535 L75 493 C99 503 138 510 168 510 C241 510 244 462 244 373 L232 373 C85 373 30 339 30 178 C30 50 52 -4 139 -4 C200 -4 239 13 263 77 C270 55 281 38 295 25 C315 6 343 -5 379 -5 L379 -5 Z M144 37 C87 37 74 80 74 180 C74 308 109 332 234 332 L244 332 L244 201 C244 123 241 37 144 37 L144 37 Z M381 511 C458 511 462 444 463 300 L287 300 C288 432 297 511 381 511 L381 511 Z " />
<glyph glyph-name="ccedilla" unicode="&#xe7;" horiz-adv-x="260" d="M136 -193 C191 -193 215 -176 215 -115 C215 -61 193 -47 148 -49 L155 -4 C159 -4 163 -5 167 -5 C197 -5 222 1 240 8 L226 47 C213 42 192 37 170 37 C82 37 76 125 76 275 C76 424 82 509 170 509 C191 509 210 506 226 501 L238 543 C219 548 197 553 168 553 C125 553 94 539 74 517 C34 472 30 388 30 275 C30 157 34 68 81 25 C92 15 106 7 122 1 L112 -60 L129 -74 C169 -71 179 -79 179 -113 C179 -149 169 -159 133 -159 C115 -159 100 -155 83 -149 L70 -180 C92 -189 111 -193 136 -193 L136 -193 Z " />
<glyph glyph-name="egrave" unicode="&#xe8;" horiz-adv-x="320" d="M166 -5 C216 -5 249 3 285 15 L272 55 C242 44 211 36 170 36 C82 36 74 118 74 258 L292 258 C293 408 289 481 252 523 C234 543 207 553 169 553 C126 553 96 540 76 519 C33 474 30 390 30 275 C30 158 35 68 81 25 C101 6 130 -5 166 -5 L166 -5 Z M168 511 C244 511 248 444 249 300 L74 300 C75 432 84 511 168 511 L168 511 Z M157 605 L199 605 L116 740 L65 740 L157 605 Z " />
<glyph glyph-name="eacute" unicode="&#xe9;" horiz-adv-x="320" d="M123 605 L165 605 L257 740 L206 740 L123 605 Z M166 -5 C216 -5 249 3 285 15 L272 55 C242 44 211 36 170 36 C82 36 74 118 74 258 L292 258 C293 408 289 481 252 523 C234 543 207 553 169 553 C126 553 96 540 76 519 C33 474 30 390 30 275 C30 158 35 68 81 25 C101 6 130 -5 166 -5 L166 -5 Z M168 511 C244 511 248 444 249 300 L74 300 C75 432 84 511 168 511 L168 511 Z " />
<glyph glyph-name="ecircumflex" unicode="&#xea;" horiz-adv-x="320" d="M55 605 L96 605 L161 705 L226 605 L267 605 L183 740 L140 740 L55 605 Z M166 -5 C216 -5 249 3 285 15 L272 55 C242 44 211 36 170 36 C82 36 74 118 74 258 L292 258 C293 408 289 481 252 523 C234 543 207 553 169 553 C126 553 96 540 76 519 C33 474 30 390 30 275 C30 158 35 68 81 25 C101 6 130 -5 166 -5 L166 -5 Z M168 511 C244 511 248 444 249 300 L74 300 C75 432 84 511 168 511 L168 511 Z " />
<glyph glyph-name="edieresis" unicode="&#xeb;" horiz-adv-x="320" d="M79 605 L121 605 L121 683 L79 683 L79 605 Z M201 605 L243 605 L243 683 L201 683 L201 605 Z M166 -5 C216 -5 249 3 285 15 L272 55 C242 44 211 36 170 36 C82 36 74 118 74 258 L292 258 C293 408 289 481 252 523 C234 543 207 553 169 553 C126 553 96 540 76 519 C33 474 30 390 30 275 C30 158 35 68 81 25 C101 6 130 -5 166 -5 L166 -5 Z M168 511 C244 511 248 444 249 300 L74 300 C75 432 84 511 168 511 L168 511 Z " />
<glyph glyph-name="igrave" unicode="&#xec;" horiz-adv-x="141" d="M50 605 L92 605 L46 740 L-5 740 L50 605 Z M48 0 L93 0 L93 547 L48 547 L48 0 Z " />
<glyph glyph-name="iacute" unicode="&#xed;" horiz-adv-x="141" d="M49 605 L91 605 L147 740 L96 740 L49 605 Z M48 0 L93 0 L93 547 L48 547 L48 0 Z " />
<glyph glyph-name="icircumflex" unicode="&#xee;" horiz-adv-x="141" d="M-26 605 L16 605 L71 705 L125 605 L167 605 L93 740 L50 740 L-26 605 Z M48 0 L93 0 L93 547 L48 547 L48 0 Z " />
<glyph glyph-name="idieresis" unicode="&#xef;" horiz-adv-x="141" d="M0 605 L40 605 L40 683 L0 683 L0 605 Z M102 605 L142 605 L142 683 L102 683 L102 605 Z M48 0 L93 0 L93 547 L48 547 L48 0 Z " />
<glyph glyph-name="eth" unicode="&#xf0;" horiz-adv-x="353" d="M145 618 L225 642 C243 599 255 557 263 518 C243 540 214 553 171 553 C127 553 98 539 77 519 C33 477 30 391 30 274 C30 151 34 68 79 27 C101 7 132 -5 177 -5 C221 -5 253 7 275 28 C319 70 323 154 323 274 L323 317 C322 415 312 535 264 654 L324 672 L324 712 L248 689 C236 715 222 741 206 766 L169 747 C184 724 197 701 209 677 L145 658 L145 618 Z M177 37 C79 37 75 117 75 271 C75 429 79 510 177 510 C274 510 278 424 278 271 C278 117 274 37 177 37 L177 37 Z " />
<glyph glyph-name="ntilde" unicode="&#xf1;" horiz-adv-x="362" d="M45 0 L90 0 L90 329 C90 441 98 510 194 510 C260 510 274 478 274 367 L274 0 L319 0 L319 376 C319 441 317 493 289 524 C272 542 246 553 203 553 C128 553 99 525 86 498 L82 546 L45 544 L45 0 Z M113 604 C115 627 122 636 141 636 C162 636 195 605 226 605 C264 605 282 628 287 672 L249 676 C246 653 239 644 221 644 C199 644 166 675 136 675 C96 675 80 652 74 608 L113 604 Z " />
<glyph glyph-name="ograve" unicode="&#xf2;" horiz-adv-x="353" d="M177 -5 C222 -5 253 7 275 28 C320 71 323 155 323 274 C323 391 321 474 277 518 C256 540 224 553 177 553 C130 553 99 540 77 519 C33 476 30 392 30 274 C30 154 34 69 79 27 C101 7 131 -5 177 -5 L177 -5 Z M177 37 C79 37 75 118 75 273 C75 428 79 510 177 510 C274 510 278 428 278 273 C278 118 274 37 177 37 L177 37 Z M172 605 L214 605 L131 740 L80 740 L172 605 Z " />
<glyph glyph-name="oacute" unicode="&#xf3;" horiz-adv-x="353" d="M138 605 L180 605 L272 740 L221 740 L138 605 Z M177 -5 C222 -5 253 7 275 28 C320 71 323 155 323 274 C323 391 321 474 277 518 C256 540 224 553 177 553 C130 553 99 540 77 519 C33 476 30 392 30 274 C30 154 34 69 79 27 C101 7 131 -5 177 -5 L177 -5 Z M177 37 C79 37 75 118 75 273 C75 428 79 510 177 510 C274 510 278 428 278 273 C278 118 274 37 177 37 L177 37 Z " />
<glyph glyph-name="ocircumflex" unicode="&#xf4;" horiz-adv-x="353" d="M70 605 L111 605 L176 705 L241 605 L282 605 L198 740 L155 740 L70 605 Z M177 -5 C222 -5 253 7 275 28 C320 71 323 155 323 274 C323 391 321 474 277 518 C256 540 224 553 177 553 C130 553 99 540 77 519 C33 476 30 392 30 274 C30 154 34 69 79 27 C101 7 131 -5 177 -5 L177 -5 Z M177 37 C79 37 75 118 75 273 C75 428 79 510 177 510 C274 510 278 428 278 273 C278 118 274 37 177 37 L177 37 Z " />
<glyph glyph-name="otilde" unicode="&#xf5;" horiz-adv-x="353" d="M177 -5 C222 -5 253 7 275 28 C320 71 323 155 323 274 C323 391 321 474 277 518 C256 540 224 553 177 553 C130 553 99 540 77 519 C33 476 30 392 30 274 C30 154 34 69 79 27 C101 7 131 -5 177 -5 L177 -5 Z M177 37 C79 37 75 118 75 273 C75 428 79 510 177 510 C274 510 278 428 278 273 C278 118 274 37 177 37 L177 37 Z M108 604 C110 627 117 636 136 636 C157 636 190 605 221 605 C259 605 277 628 282 672 L244 676 C241 653 234 644 216 644 C194 644 161 675 131 675 C91 675 75 652 69 608 L108 604 Z " />
<glyph glyph-name="odieresis" unicode="&#xf6;" horiz-adv-x="353" d="M94 605 L136 605 L136 683 L94 683 L94 605 Z M216 605 L258 605 L258 683 L216 683 L216 605 Z M177 -5 C222 -5 253 7 275 28 C320 71 323 155 323 274 C323 391 321 474 277 518 C256 540 224 553 177 553 C130 553 99 540 77 519 C33 476 30 392 30 274 C30 154 34 69 79 27 C101 7 131 -5 177 -5 L177 -5 Z M177 37 C79 37 75 118 75 273 C75 428 79 510 177 510 C274 510 278 428 278 273 C278 118 274 37 177 37 L177 37 Z " />
<glyph glyph-name="divide" unicode="&#xf7;" horiz-adv-x="385" d="M168 196 L218 196 L218 262 L168 262 L168 196 Z M62 348 L323 348 L323 391 L62 391 L62 348 Z M168 473 L218 473 L218 539 L168 539 L168 473 Z " />
<glyph glyph-name="oslash" unicode="&#xf8;" horiz-adv-x="353" d="M177 -5 C222 -5 253 7 275 28 C320 71 323 155 323 274 C323 391 321 474 277 518 C276 518 276 519 275 519 L297 587 L258 587 L243 541 C226 549 203 553 177 553 C130 553 99 540 77 519 C33 476 30 392 30 274 C30 155 34 70 78 28 L56 -41 L95 -41 L110 7 C128 0 149 -5 177 -5 L177 -5 Z M177 36 C153 36 135 40 121 49 L257 468 C277 429 279 364 279 273 C279 117 274 36 177 36 L177 36 Z M74 273 C74 429 79 510 177 510 C200 510 217 505 231 496 L96 78 C75 117 74 182 74 273 L74 273 Z " />
<glyph glyph-name="ugrave" unicode="&#xf9;" horiz-adv-x="356" d="M179 -5 C227 -5 258 8 278 28 C306 55 314 98 314 156 L314 547 L270 547 L270 159 C270 79 254 37 179 37 C103 37 88 80 88 157 L88 547 L43 547 L43 154 C43 96 51 51 82 25 C103 6 133 -5 179 -5 L179 -5 Z M174 605 L216 605 L133 740 L82 740 L174 605 Z " />
<glyph glyph-name="uacute" unicode="&#xfa;" horiz-adv-x="356" d="M140 605 L182 605 L274 740 L223 740 L140 605 Z M179 -5 C227 -5 258 8 278 28 C306 55 314 98 314 156 L314 547 L270 547 L270 159 C270 79 254 37 179 37 C103 37 88 80 88 157 L88 547 L43 547 L43 154 C43 96 51 51 82 25 C103 6 133 -5 179 -5 L179 -5 Z " />
<glyph glyph-name="ucircumflex" unicode="&#xfb;" horiz-adv-x="356" d="M72 605 L113 605 L178 705 L243 605 L284 605 L200 740 L157 740 L72 605 Z M179 -5 C227 -5 258 8 278 28 C306 55 314 98 314 156 L314 547 L270 547 L270 159 C270 79 254 37 179 37 C103 37 88 80 88 157 L88 547 L43 547 L43 154 C43 96 51 51 82 25 C103 6 133 -5 179 -5 L179 -5 Z " />
<glyph glyph-name="udieresis" unicode="&#xfc;" horiz-adv-x="356" d="M96 605 L138 605 L138 683 L96 683 L96 605 Z M218 605 L260 605 L260 683 L218 683 L218 605 Z M179 -5 C227 -5 258 8 278 28 C306 55 314 98 314 156 L314 547 L270 547 L270 159 C270 79 254 37 179 37 C103 37 88 80 88 157 L88 547 L43 547 L43 154 C43 96 51 51 82 25 C103 6 133 -5 179 -5 L179 -5 Z " />
<glyph glyph-name="yacute" unicode="&#xfd;" horiz-adv-x="303" d="M70 -153 C122 -152 145 -134 156 -86 L294 547 L250 547 L173 183 L153 76 L132 183 L55 547 L9 547 L130 -6 L114 -80 C108 -104 101 -111 68 -111 L41 -111 L41 -152 C44 -153 65 -153 70 -153 L70 -153 Z M114 605 L156 605 L248 740 L197 740 L114 605 Z " />
<glyph glyph-name="thorn" unicode="&#xfe;" horiz-adv-x="363" d="M45 -152 L90 -152 L90 51 C108 17 143 -4 203 -4 C240 -4 266 8 285 26 C332 72 333 164 333 274 C333 383 332 475 287 522 C269 541 242 553 204 553 C143 553 109 531 90 495 L90 763 L45 763 L45 -152 Z M194 39 C96 39 90 112 90 273 C90 436 96 510 194 510 C287 510 287 407 287 273 C287 139 287 39 194 39 L194 39 Z " />
<glyph glyph-name="ydieresis" unicode="&#xff;" horiz-adv-x="303" d="M70 -153 C122 -152 145 -134 156 -86 L294 547 L250 547 L173 183 L153 76 L132 183 L55 547 L9 547 L130 -6 L114 -80 C108 -104 101 -111 68 -111 L41 -111 L41 -152 C44 -153 65 -153 70 -153 L70 -153 Z M70 605 L112 605 L112 683 L70 683 L70 605 Z M192 605 L234 605 L234 683 L192 683 L192 605 Z " />
<glyph glyph-name="dotlessi" unicode="&#x131;" horiz-adv-x="141" d="M48 0 L93 0 L93 547 L48 547 L48 0 Z " />
<glyph glyph-name="Lslash" unicode="&#x141;" horiz-adv-x="326" d="M3 319 L51 339 L51 0 L313 0 L313 43 L97 43 L97 359 L204 404 L204 446 L97 400 L97 741 L51 741 L51 380 L3 360 L3 319 Z " />
<glyph glyph-name="lslash" unicode="&#x142;" horiz-adv-x="211" d="M1 450 L68 488 L68 94 C68 30 77 -1 155 -1 C157 -1 162 -1 164 0 L164 42 L160 42 C116 42 113 52 113 97 L113 513 L198 562 L198 605 L113 556 L113 763 L68 763 L68 530 L1 492 L1 450 Z " />
<glyph glyph-name="OE" unicode="&#x152;" horiz-adv-x="647" d="M351 0 L611 0 L611 43 L394 43 L394 361 L602 361 L602 405 L394 405 L394 698 L611 698 L611 741 L351 741 L351 684 C346 691 341 698 336 704 C309 733 272 748 215 748 C157 748 117 732 90 703 C38 646 33 538 33 371 C33 200 39 90 94 35 C121 8 160 -6 215 -6 C269 -6 305 6 332 32 C339 39 345 47 351 56 L351 0 Z M215 38 C90 38 79 136 79 370 C79 605 90 704 215 704 C339 704 350 605 350 370 C350 136 340 38 215 38 L215 38 Z " />
<glyph glyph-name="oe" unicode="&#x153;" horiz-adv-x="567" d="M177 -5 C222 -5 252 7 274 28 C285 39 294 53 301 70 C308 52 317 37 330 25 C350 6 377 -5 414 -5 C464 -5 496 3 533 15 L519 55 C490 44 458 36 417 36 C330 36 321 118 321 258 L539 258 C540 408 537 481 499 523 C481 543 454 553 416 553 C374 553 345 540 324 519 C314 508 306 495 300 480 C294 495 286 507 276 518 C254 540 224 553 177 553 C130 553 99 540 77 519 C33 476 30 392 30 274 C30 154 34 69 79 27 C101 7 131 -5 177 -5 L177 -5 Z M177 37 C79 37 75 118 75 273 C75 428 79 510 177 510 C274 510 278 428 278 273 C278 118 274 37 177 37 L177 37 Z M416 511 C492 511 497 444 498 300 L321 300 C322 433 332 511 416 511 L416 511 Z " />
<glyph glyph-name="Scaron" unicode="&#x160;" horiz-adv-x="335" d="M146 785 L189 785 L273 920 L233 920 L168 819 L103 920 L61 920 L146 785 Z M153 -5 C237 -5 301 45 301 138 C301 207 287 231 181 407 C95 550 86 571 86 613 C86 668 120 703 181 703 C220 703 245 698 276 688 L291 729 C255 742 228 747 180 747 C88 747 40 692 40 613 C40 553 56 528 145 380 C244 215 255 191 255 138 C255 69 206 38 152 38 C105 38 71 46 40 60 L21 21 C55 5 93 -5 153 -5 L153 -5 Z " />
<glyph glyph-name="scaron" unicode="&#x161;" horiz-adv-x="274" d="M117 605 L160 605 L244 740 L204 740 L139 639 L74 740 L32 740 L117 605 Z M133 -5 C196 -5 244 32 244 102 C244 154 232 173 154 300 C90 402 84 416 84 447 C84 486 108 511 153 511 C172 511 198 507 222 499 L236 540 C207 550 178 553 152 553 C77 553 40 510 40 447 C40 403 58 373 122 271 C192 159 201 138 201 101 C201 56 167 36 133 36 C96 36 64 46 41 57 L24 18 C48 6 82 -5 133 -5 L133 -5 Z " />
<glyph glyph-name="Ydieresis" unicode="&#x178;" horiz-adv-x="376" d="M165 0 L211 0 L211 272 L365 741 L320 741 L188 336 L58 741 L11 741 L165 272 L165 0 Z M106 785 L148 785 L148 863 L106 863 L106 785 Z M228 785 L270 785 L270 863 L228 863 L228 785 Z " />
<glyph glyph-name="Zcaron" unicode="&#x17d;" horiz-adv-x="360" d="M158 785 L201 785 L285 920 L245 920 L180 819 L115 920 L73 920 L158 785 Z M28 0 L332 0 L332 43 L77 43 L324 702 L324 741 L38 741 L38 698 L276 698 L28 39 L28 0 Z " />
<glyph glyph-name="zcaron" unicode="&#x17e;" horiz-adv-x="274" d="M117 605 L160 605 L244 740 L204 740 L139 639 L74 740 L32 740 L117 605 Z M20 0 L254 0 L254 40 L69 40 L250 512 L250 547 L30 547 L30 505 L200 505 L20 36 L20 0 Z " />
<glyph glyph-name="florin" unicode="&#x192;" horiz-adv-x="312" d="M43 402 L115 402 L60 -153 L105 -153 L160 402 L268 402 L268 443 L164 443 L182 618 C187 669 193 699 246 699 L268 699 L268 741 L244 741 C163 741 144 698 137 624 L119 443 L43 443 L43 402 Z " />
<glyph glyph-name="circumflex" unicode="&#x2c6;" horiz-adv-x="332" d="M60 605 L101 605 L166 705 L231 605 L272 605 L188 740 L145 740 L60 605 Z " />
<glyph glyph-name="caron" unicode="&#x2c7;" horiz-adv-x="332" d="M145 605 L188 605 L272 740 L232 740 L167 639 L102 740 L60 740 L145 605 Z " />
<glyph glyph-name="breve" unicode="&#x2d8;" horiz-adv-x="332" d="M166 601 C243 601 259 648 265 704 L227 708 C223 672 214 639 166 639 C117 639 109 672 104 708 L66 704 C72 648 88 601 166 601 L166 601 Z " />
<glyph glyph-name="dotaccent" unicode="&#x2d9;" horiz-adv-x="332" d="M143 605 L188 605 L188 697 L143 697 L143 605 Z " />
<glyph glyph-name="ring" unicode="&#x2da;" horiz-adv-x="332" d="M166 601 C228 601 236 641 236 695 C236 750 228 791 166 791 C103 791 96 750 96 695 C96 641 103 601 166 601 L166 601 Z M166 630 C130 630 126 656 126 695 C126 736 130 761 166 761 C202 761 205 736 205 695 C205 656 202 630 166 630 L166 630 Z " />
<glyph glyph-name="ogonek" unicode="&#x2db;" horiz-adv-x="334" d="M170 -189 L205 -189 L205 -154 L174 -154 C146 -154 135 -143 135 -115 C135 -75 165 -34 200 8 L157 8 C134 -20 97 -67 97 -118 C97 -165 117 -189 170 -189 L170 -189 Z " />
<glyph glyph-name="tilde" unicode="&#x2dc;" horiz-adv-x="332" d="M98 604 C100 627 107 636 126 636 C147 636 180 605 211 605 C249 605 267 628 272 672 L234 676 C231 653 224 644 206 644 C184 644 151 675 121 675 C81 675 65 652 59 608 L98 604 Z " />
<glyph glyph-name="hungarumlaut" unicode="&#x2dd;" horiz-adv-x="332" d="M78 605 L114 605 L187 741 L141 741 L78 605 Z M199 605 L235 605 L308 741 L262 741 L199 605 Z " />
<glyph glyph-name="&amp;#x394;" unicode="&#x394;" horiz-adv-x="357" d="M17 505 L80 505 L80 0 L126 0 L126 505 L208 505 L208 547 L126 547 L126 644 C126 693 136 722 186 722 L208 722 L208 763 C200 764 195 764 184 764 C104 764 80 721 80 647 L80 547 L17 547 L17 505 Z M225 -152 C295 -152 310 -125 310 -64 L310 547 L264 547 L264 -63 C264 -99 260 -110 225 -111 L225 -152 Z M264 627 L310 627 L310 720 L264 720 L264 627 Z " />
<glyph glyph-name="&amp;#x2206;" unicode="&#x2206;" horiz-adv-x="357" d="M17 505 L80 505 L80 0 L126 0 L126 505 L208 505 L208 547 L126 547 L126 644 C126 693 136 722 186 722 L208 722 L208 763 C200 764 195 764 184 764 C104 764 80 721 80 647 L80 547 L17 547 L17 505 Z M225 -152 C295 -152 310 -125 310 -64 L310 547 L264 547 L264 -63 C264 -99 260 -110 225 -111 L225 -152 Z M264 627 L310 627 L310 720 L264 720 L264 627 Z " />
<glyph glyph-name="&amp;#x3a9;" unicode="&#x3a9;" horiz-adv-x="832" d="M126 120 C126 120 129 123 134 127 C79 193 46 278 46 371 C46 464 79 549 133 615 C129 619 126 621 126 621 C70 554 36 466 36 371 C36 275 70 187 126 120 L126 120 Z M228 211 C230 213 233 215 235 218 C201 259 181 313 181 371 C181 429 202 483 235 524 C232 526 230 529 227 531 C192 487 171 432 171 371 C171 310 193 254 228 211 L228 211 Z M264 243 C267 245 269 248 272 250 C245 283 229 325 229 371 C229 417 245 459 272 492 C269 494 267 497 264 499 C236 464 219 419 219 371 C219 322 236 278 264 243 L264 243 Z M316 289 C319 291 321 294 324 296 C308 317 298 343 298 371 C298 399 308 425 323 445 C321 448 318 450 316 452 C298 430 288 402 288 371 C288 340 298 312 316 289 L316 289 Z M349 320 C352 323 354 325 357 327 C348 340 343 355 343 371 C343 387 348 402 357 415 C354 417 352 420 349 422 C339 408 333 390 333 371 C333 352 339 334 349 320 L349 320 Z M378 346 C382 349 384 351 384 351 C381 357 379 364 379 371 C379 378 381 385 384 391 C384 391 382 393 378 396 C374 389 371 380 371 371 C371 362 374 353 378 346 L378 346 Z M416 60 C493 60 563 89 616 136 C614 139 611 141 609 144 C558 98 490 70 416 70 C342 70 274 98 222 144 C222 145 215 137 215 137 C268 89 338 60 416 60 L416 60 Z M416 324 C426 324 435 327 442 333 C439 337 437 339 437 339 C431 334 424 332 416 332 C408 332 401 335 395 339 C395 339 391 334 389 333 C397 327 406 324 416 324 L416 324 Z M482 319 C493 334 499 352 499 371 C499 390 493 408 482 422 C483 422 475 415 475 415 C484 403 489 388 489 371 C489 355 484 339 475 326 C478 324 480 322 482 319 L482 319 Z M292 269 C295 271 298 274 300 276 C280 302 267 335 267 371 C267 407 280 440 300 466 L293 473 C270 445 257 410 257 371 C257 333 270 297 292 269 L292 269 Z M416 -17 C512 -17 600 19 667 80 C667 80 660 88 660 87 C595 29 510 -7 416 -7 C322 -7 236 29 171 88 L164 80 C231 20 320 -17 416 -17 L416 -17 Z M416 121 C478 121 534 144 576 182 C574 185 571 187 569 190 C529 153 475 131 416 131 C357 131 303 153 262 190 L255 182 C298 144 354 121 416 121 L416 121 Z M416 170 C465 170 510 188 544 218 C542 221 539 223 537 226 C505 197 462 180 416 180 C369 180 327 197 294 226 L287 219 C322 189 367 170 416 170 L416 170 Z M416 209 C455 209 491 224 518 247 C516 250 514 253 512 255 C486 233 452 219 416 219 C380 219 346 233 320 255 L313 247 C341 224 377 209 416 209 L416 209 Z M416 265 C441 265 463 274 481 289 C479 292 476 294 474 297 C458 283 438 275 416 275 C394 275 373 283 357 297 L350 289 C368 274 391 265 416 265 L416 265 Z M358 445 C374 459 394 467 416 467 C438 467 458 459 474 445 L482 453 C464 468 441 477 416 477 C391 477 368 468 350 453 C351 452 354 448 358 445 L358 445 Z M570 552 C572 554 575 557 577 560 C534 598 478 621 416 621 C355 621 299 598 256 560 L263 553 C304 589 357 611 416 611 C475 611 529 589 570 552 L570 552 Z M454 346 C458 353 461 362 461 371 C461 380 458 389 454 396 L448 391 C451 385 453 378 453 371 C453 364 451 357 448 351 C448 351 450 349 454 346 L454 346 Z M468 333 C476 344 480 357 480 371 C480 385 476 398 468 409 L460 402 C466 393 470 382 470 371 C470 360 466 349 460 340 C463 338 465 336 468 333 L468 333 Z M498 306 C511 325 519 347 519 371 C519 395 511 418 497 436 L490 429 C502 413 509 393 509 371 C509 349 502 329 490 313 C492 311 495 308 498 306 L498 306 Z M540 269 C562 297 575 332 575 371 C575 410 562 445 539 473 L531 466 C552 440 565 407 565 371 C565 335 552 302 532 276 C535 274 537 271 540 269 L540 269 Z M568 243 C596 278 613 322 613 371 C613 420 596 464 568 499 L560 492 C587 459 603 417 603 371 C603 325 587 283 560 250 C563 248 566 245 568 243 L568 243 Z M604 211 C640 254 661 310 661 371 C661 432 640 488 604 531 L596 524 C631 483 651 429 651 371 C651 313 631 260 596 218 C601 213 604 211 604 211 L604 211 Z M649 171 C694 225 721 295 721 371 C721 447 694 517 649 571 L641 564 C685 512 711 445 711 371 C711 297 685 230 642 177 C644 175 647 173 649 171 L649 171 Z M706 120 C762 188 796 276 796 371 C796 467 762 555 706 622 L698 615 C753 549 786 464 786 371 C786 278 753 193 698 127 C703 123 706 120 706 120 L706 120 Z M183 170 L190 177 C147 229 121 297 121 371 C121 444 147 512 190 564 C187 567 184 569 182 571 C138 517 111 447 111 371 C111 294 138 225 183 170 L183 170 Z M334 306 L342 314 C330 330 323 350 323 371 C323 393 330 413 342 429 C340 431 337 434 334 436 C321 418 313 395 313 371 C313 346 321 324 334 306 L334 306 Z M364 333 L371 340 C366 349 362 360 362 371 C362 382 366 393 371 402 C369 404 366 406 364 409 C356 398 352 385 352 371 C352 357 356 344 364 333 L364 333 Z M395 403 C401 408 408 410 416 410 C424 410 431 407 437 403 C437 403 439 406 442 409 C435 415 426 418 416 418 C406 418 397 415 390 409 L395 403 Z M384 416 C393 423 404 428 416 428 C428 428 439 424 448 416 C450 419 452 421 454 423 C443 432 430 437 416 437 C401 437 388 432 377 423 L384 416 Z M371 430 C383 441 399 447 416 447 C433 447 449 441 461 430 C461 430 464 434 468 438 C454 450 436 457 416 457 C397 457 378 450 364 438 L371 430 Z M295 516 C327 545 370 562 416 562 C462 562 505 545 538 516 C538 516 545 523 544 523 C510 554 465 572 416 572 C367 572 322 554 288 524 L295 516 Z M416 240 C448 240 476 252 498 271 L491 278 C471 261 445 250 416 250 C388 250 361 261 340 278 L333 270 C355 251 384 240 416 240 L416 240 Z M416 285 C436 285 454 292 468 304 L461 312 C448 301 433 295 416 295 C399 295 383 302 370 312 L363 304 C378 292 396 285 416 285 L416 285 Z M416 305 C430 305 444 310 455 319 L448 326 C439 319 428 314 416 314 C404 314 393 319 383 326 L376 319 C388 310 401 305 416 305 L416 305 Z M341 464 C362 482 388 492 416 492 C445 492 471 481 491 464 L498 472 C476 491 447 502 416 502 C385 502 356 490 334 471 L341 464 Z M320 487 C346 509 380 523 416 523 C453 523 486 510 512 487 L518 494 C491 518 455 533 416 533 C377 533 341 519 313 495 L320 487 Z M610 597 L617 605 C563 653 493 682 416 682 C339 682 269 653 215 605 L222 598 C274 644 342 672 416 672 C491 672 559 644 610 597 L610 597 Z M172 654 C237 713 322 749 416 749 C510 749 596 713 661 654 L668 662 C601 722 512 759 416 759 C320 759 232 723 165 662 L172 654 Z M516 290 C534 312 544 340 544 371 C544 402 534 430 516 453 L508 446 C524 425 534 399 534 371 C534 343 524 317 509 297 L516 290 Z " />
<glyph glyph-name="&amp;#x2126;" unicode="&#x2126;" horiz-adv-x="832" d="M126 120 C126 120 129 123 134 127 C79 193 46 278 46 371 C46 464 79 549 133 615 C129 619 126 621 126 621 C70 554 36 466 36 371 C36 275 70 187 126 120 L126 120 Z M228 211 C230 213 233 215 235 218 C201 259 181 313 181 371 C181 429 202 483 235 524 C232 526 230 529 227 531 C192 487 171 432 171 371 C171 310 193 254 228 211 L228 211 Z M264 243 C267 245 269 248 272 250 C245 283 229 325 229 371 C229 417 245 459 272 492 C269 494 267 497 264 499 C236 464 219 419 219 371 C219 322 236 278 264 243 L264 243 Z M316 289 C319 291 321 294 324 296 C308 317 298 343 298 371 C298 399 308 425 323 445 C321 448 318 450 316 452 C298 430 288 402 288 371 C288 340 298 312 316 289 L316 289 Z M349 320 C352 323 354 325 357 327 C348 340 343 355 343 371 C343 387 348 402 357 415 C354 417 352 420 349 422 C339 408 333 390 333 371 C333 352 339 334 349 320 L349 320 Z M378 346 C382 349 384 351 384 351 C381 357 379 364 379 371 C379 378 381 385 384 391 C384 391 382 393 378 396 C374 389 371 380 371 371 C371 362 374 353 378 346 L378 346 Z M416 60 C493 60 563 89 616 136 C614 139 611 141 609 144 C558 98 490 70 416 70 C342 70 274 98 222 144 C222 145 215 137 215 137 C268 89 338 60 416 60 L416 60 Z M416 324 C426 324 435 327 442 333 C439 337 437 339 437 339 C431 334 424 332 416 332 C408 332 401 335 395 339 C395 339 391 334 389 333 C397 327 406 324 416 324 L416 324 Z M482 319 C493 334 499 352 499 371 C499 390 493 408 482 422 C483 422 475 415 475 415 C484 403 489 388 489 371 C489 355 484 339 475 326 C478 324 480 322 482 319 L482 319 Z M292 269 C295 271 298 274 300 276 C280 302 267 335 267 371 C267 407 280 440 300 466 L293 473 C270 445 257 410 257 371 C257 333 270 297 292 269 L292 269 Z M416 -17 C512 -17 600 19 667 80 C667 80 660 88 660 87 C595 29 510 -7 416 -7 C322 -7 236 29 171 88 L164 80 C231 20 320 -17 416 -17 L416 -17 Z M416 121 C478 121 534 144 576 182 C574 185 571 187 569 190 C529 153 475 131 416 131 C357 131 303 153 262 190 L255 182 C298 144 354 121 416 121 L416 121 Z M416 170 C465 170 510 188 544 218 C542 221 539 223 537 226 C505 197 462 180 416 180 C369 180 327 197 294 226 L287 219 C322 189 367 170 416 170 L416 170 Z M416 209 C455 209 491 224 518 247 C516 250 514 253 512 255 C486 233 452 219 416 219 C380 219 346 233 320 255 L313 247 C341 224 377 209 416 209 L416 209 Z M416 265 C441 265 463 274 481 289 C479 292 476 294 474 297 C458 283 438 275 416 275 C394 275 373 283 357 297 L350 289 C368 274 391 265 416 265 L416 265 Z M358 445 C374 459 394 467 416 467 C438 467 458 459 474 445 L482 453 C464 468 441 477 416 477 C391 477 368 468 350 453 C351 452 354 448 358 445 L358 445 Z M570 552 C572 554 575 557 577 560 C534 598 478 621 416 621 C355 621 299 598 256 560 L263 553 C304 589 357 611 416 611 C475 611 529 589 570 552 L570 552 Z M454 346 C458 353 461 362 461 371 C461 380 458 389 454 396 L448 391 C451 385 453 378 453 371 C453 364 451 357 448 351 C448 351 450 349 454 346 L454 346 Z M468 333 C476 344 480 357 480 371 C480 385 476 398 468 409 L460 402 C466 393 470 382 470 371 C470 360 466 349 460 340 C463 338 465 336 468 333 L468 333 Z M498 306 C511 325 519 347 519 371 C519 395 511 418 497 436 L490 429 C502 413 509 393 509 371 C509 349 502 329 490 313 C492 311 495 308 498 306 L498 306 Z M540 269 C562 297 575 332 575 371 C575 410 562 445 539 473 L531 466 C552 440 565 407 565 371 C565 335 552 302 532 276 C535 274 537 271 540 269 L540 269 Z M568 243 C596 278 613 322 613 371 C613 420 596 464 568 499 L560 492 C587 459 603 417 603 371 C603 325 587 283 560 250 C563 248 566 245 568 243 L568 243 Z M604 211 C640 254 661 310 661 371 C661 432 640 488 604 531 L596 524 C631 483 651 429 651 371 C651 313 631 260 596 218 C601 213 604 211 604 211 L604 211 Z M649 171 C694 225 721 295 721 371 C721 447 694 517 649 571 L641 564 C685 512 711 445 711 371 C711 297 685 230 642 177 C644 175 647 173 649 171 L649 171 Z M706 120 C762 188 796 276 796 371 C796 467 762 555 706 622 L698 615 C753 549 786 464 786 371 C786 278 753 193 698 127 C703 123 706 120 706 120 L706 120 Z M183 170 L190 177 C147 229 121 297 121 371 C121 444 147 512 190 564 C187 567 184 569 182 571 C138 517 111 447 111 371 C111 294 138 225 183 170 L183 170 Z M334 306 L342 314 C330 330 323 350 323 371 C323 393 330 413 342 429 C340 431 337 434 334 436 C321 418 313 395 313 371 C313 346 321 324 334 306 L334 306 Z M364 333 L371 340 C366 349 362 360 362 371 C362 382 366 393 371 402 C369 404 366 406 364 409 C356 398 352 385 352 371 C352 357 356 344 364 333 L364 333 Z M395 403 C401 408 408 410 416 410 C424 410 431 407 437 403 C437 403 439 406 442 409 C435 415 426 418 416 418 C406 418 397 415 390 409 L395 403 Z M384 416 C393 423 404 428 416 428 C428 428 439 424 448 416 C450 419 452 421 454 423 C443 432 430 437 416 437 C401 437 388 432 377 423 L384 416 Z M371 430 C383 441 399 447 416 447 C433 447 449 441 461 430 C461 430 464 434 468 438 C454 450 436 457 416 457 C397 457 378 450 364 438 L371 430 Z M295 516 C327 545 370 562 416 562 C462 562 505 545 538 516 C538 516 545 523 544 523 C510 554 465 572 416 572 C367 572 322 554 288 524 L295 516 Z M416 240 C448 240 476 252 498 271 L491 278 C471 261 445 250 416 250 C388 250 361 261 340 278 L333 270 C355 251 384 240 416 240 L416 240 Z M416 285 C436 285 454 292 468 304 L461 312 C448 301 433 295 416 295 C399 295 383 302 370 312 L363 304 C378 292 396 285 416 285 L416 285 Z M416 305 C430 305 444 310 455 319 L448 326 C439 319 428 314 416 314 C404 314 393 319 383 326 L376 319 C388 310 401 305 416 305 L416 305 Z M341 464 C362 482 388 492 416 492 C445 492 471 481 491 464 L498 472 C476 491 447 502 416 502 C385 502 356 490 334 471 L341 464 Z M320 487 C346 509 380 523 416 523 C453 523 486 510 512 487 L518 494 C491 518 455 533 416 533 C377 533 341 519 313 495 L320 487 Z M610 597 L617 605 C563 653 493 682 416 682 C339 682 269 653 215 605 L222 598 C274 644 342 672 416 672 C491 672 559 644 610 597 L610 597 Z M172 654 C237 713 322 749 416 749 C510 749 596 713 661 654 L668 662 C601 722 512 759 416 759 C320 759 232 723 165 662 L172 654 Z M516 290 C534 312 544 340 544 371 C544 402 534 430 516 453 L508 446 C524 425 534 399 534 371 C534 343 524 317 509 297 L516 290 Z " />
<glyph glyph-name="pi" unicode="&#x3c0;" horiz-adv-x="465" d="M232 -8 C424 -8 438 117 438 371 C438 624 424 750 232 750 C42 750 27 624 27 371 C27 117 42 -8 232 -8 L232 -8 Z M232 19 C68 19 55 136 55 371 C55 605 68 722 232 722 C398 722 410 605 410 371 C410 136 398 19 232 19 L232 19 Z M141 110 L176 110 L176 326 L232 326 C327 326 352 364 352 472 C352 581 327 618 230 618 L141 618 L141 110 Z M176 358 L176 585 L230 585 C302 585 317 559 317 472 C317 385 302 358 232 358 L176 358 Z " />
<glyph glyph-name="endash" unicode="&#x2013;" horiz-adv-x="370" d="M31 279 L340 279 L340 322 L31 322 L31 279 Z " />
<glyph glyph-name="emdash" unicode="&#x2014;" horiz-adv-x="511" d="M31 279 L480 279 L480 322 L31 322 L31 279 Z " />
<glyph glyph-name="quoteleft" unicode="&#x2018;" horiz-adv-x="141" d="M43 573 L100 573 L100 655 L74 655 C74 690 77 701 103 716 L87 742 C47 720 43 696 43 651 L43 573 Z " />
<glyph glyph-name="quoteright" unicode="&#x2019;" horiz-adv-x="142" d="M55 572 C95 594 100 618 100 663 L100 741 L43 741 L43 659 L68 659 C68 624 65 613 40 598 L55 572 Z " />
<glyph glyph-name="quotesinglbase" unicode="&#x201a;" horiz-adv-x="142" d="M55 -88 C95 -66 100 -42 100 4 L100 82 L43 82 L43 0 L68 0 C68 -36 65 -46 40 -62 L55 -88 Z " />
<glyph glyph-name="quotedblleft" unicode="&#x201c;" horiz-adv-x="244" d="M43 573 L99 573 L99 655 L73 655 C73 691 76 701 102 716 L87 742 C47 720 43 695 43 651 L43 573 Z M146 573 L202 573 L202 655 L176 655 C176 691 179 701 205 716 L190 742 C150 720 146 695 146 651 L146 573 Z " />
<glyph glyph-name="quotedblright" unicode="&#x201d;" horiz-adv-x="244" d="M54 573 C95 595 99 620 99 664 L99 741 L43 741 L43 660 L68 660 C68 624 65 614 40 599 L54 573 Z M158 573 C198 595 202 620 202 664 L202 741 L146 741 L146 660 L171 660 C171 624 168 614 143 599 L158 573 Z " />
<glyph glyph-name="quotedblbase" unicode="&#x201e;" horiz-adv-x="244" d="M54 -87 C95 -65 99 -40 99 4 L99 82 L43 82 L43 0 L68 0 C68 -36 65 -46 40 -62 L54 -87 Z M158 -87 C198 -65 202 -40 202 4 L202 82 L146 82 L146 0 L171 0 C171 -36 168 -46 143 -62 L158 -87 Z " />
<glyph glyph-name="dagger" unicode="&#x2020;" horiz-adv-x="310" d="M133 -152 L178 -152 L178 500 L275 500 L275 543 L178 543 L178 763 L133 763 L133 543 L35 543 L35 500 L133 500 L133 -152 Z " />
<glyph glyph-name="daggerdbl" unicode="&#x2021;" horiz-adv-x="310" d="M133 -153 L178 -153 L178 73 L275 73 L275 116 L178 116 L178 500 L275 500 L275 543 L178 543 L178 763 L133 763 L133 543 L35 543 L35 500 L133 500 L133 116 L35 116 L35 73 L133 73 L133 -153 Z " />
<glyph glyph-name="bullet" unicode="&#x2022;" horiz-adv-x="201" d="M59 238 L143 238 L143 371 L59 371 L59 238 Z " />
<glyph glyph-name="ellipsis" unicode="&#x2026;" horiz-adv-x="394" d="M42 0 L99 0 L99 82 L42 82 L42 0 Z M170 0 L228 0 L228 82 L170 82 L170 0 Z M295 0 L353 0 L353 82 L295 82 L295 0 Z " />
<glyph glyph-name="perthousand" unicode="&#x2030;" horiz-adv-x="838" d="M133 293 C166 293 189 302 205 317 C238 349 239 415 239 520 C239 620 239 685 208 719 C192 737 168 747 133 747 C99 747 76 737 59 720 C28 687 28 622 28 520 C28 413 28 347 63 316 C78 302 102 293 133 293 L133 293 Z M465 -6 C498 -6 520 4 536 19 C570 50 571 117 571 222 C571 322 570 387 540 421 C524 439 500 449 465 449 C431 449 407 439 391 422 C360 389 359 324 359 222 C359 115 360 49 394 18 C410 4 433 -6 465 -6 L465 -6 Z M705 -6 C737 -6 760 4 776 19 C809 50 810 117 810 222 C810 322 810 387 780 421 C763 439 739 449 705 449 C670 449 647 439 631 422 C599 389 599 324 599 222 C599 115 600 49 634 18 C649 4 673 -6 705 -6 L705 -6 Z M133 332 C71 332 70 386 70 519 C70 652 71 708 133 708 C195 708 197 652 197 519 C197 386 195 332 133 332 L133 332 Z M465 34 C403 34 401 88 401 221 C401 354 403 409 465 409 C527 409 528 354 528 221 C528 88 527 34 465 34 L465 34 Z M705 34 C642 34 641 88 641 221 C641 354 642 409 705 409 C767 409 768 354 768 221 C768 88 767 34 705 34 L705 34 Z M171 0 L212 0 L428 741 L387 741 L171 0 Z " />
<glyph glyph-name="guilsinglleft" unicode="&#x2039;" horiz-adv-x="243" d="M138 0 L181 0 L98 273 L181 547 L138 547 L53 273 L138 0 Z " />
<glyph glyph-name="guilsinglright" unicode="&#x203a;" horiz-adv-x="243" d="M63 0 L106 0 L190 273 L106 547 L63 547 L145 273 L63 0 Z " />
<glyph glyph-name="&amp;#x2044;" unicode="&#x2044;" horiz-adv-x="278" d="M11 0 L53 0 L269 741 L226 741 L11 0 Z " />
<glyph glyph-name="&amp;#x2215;" unicode="&#x2215;" horiz-adv-x="278" d="M11 0 L53 0 L269 741 L226 741 L11 0 Z " />
<glyph glyph-name="Euro" unicode="&#x20ac;" horiz-adv-x="362" d="M22 410 L82 410 L82 345 L22 345 L22 305 L82 305 C83 152 91 68 135 26 C157 6 187 -5 229 -5 C273 -5 300 -1 330 14 L312 53 C288 42 263 37 229 37 C139 37 128 108 127 305 L278 305 L278 345 L127 345 L127 410 L278 410 L278 450 L127 450 C128 636 140 704 229 704 C259 704 290 698 310 689 L327 729 C300 740 274 747 229 747 C183 747 151 735 129 711 C91 669 83 586 82 450 L22 450 L22 410 Z " />
<glyph glyph-name="trademark" unicode="&#x2122;" horiz-adv-x="587" d="M252 279 L286 279 L286 650 L361 279 L391 279 L467 650 L467 279 L503 279 L503 741 L456 741 L377 358 L298 741 L252 741 L252 279 Z M110 279 L148 279 L148 706 L228 706 L228 741 L32 741 L32 706 L110 706 L110 279 Z " />
<glyph glyph-name="partialdiff" unicode="&#x2202;" horiz-adv-x="832" d="M126 120 C126 120 129 123 134 127 C79 193 46 278 46 371 C46 464 79 549 133 615 C129 619 126 621 126 621 C70 554 36 466 36 371 C36 275 70 187 126 120 L126 120 Z M228 211 C230 213 233 215 235 218 C201 259 181 313 181 371 C181 429 202 483 235 524 C232 526 230 529 227 531 C192 487 171 432 171 371 C171 310 193 254 228 211 L228 211 Z M264 243 C267 245 269 248 272 250 C245 283 229 325 229 371 C229 417 245 459 272 492 C269 494 267 497 264 499 C236 464 219 419 219 371 C219 322 236 278 264 243 L264 243 Z M316 289 C319 291 321 294 324 296 C308 317 298 343 298 371 C298 399 308 425 323 445 C321 448 318 450 316 452 C298 430 288 402 288 371 C288 340 298 312 316 289 L316 289 Z M349 320 C352 323 354 325 357 327 C348 340 343 355 343 371 C343 387 348 402 357 415 C354 417 352 420 349 422 C339 408 333 390 333 371 C333 352 339 334 349 320 L349 320 Z M378 346 C382 349 384 351 384 351 C381 357 379 364 379 371 C379 378 381 385 384 391 C384 391 382 393 378 396 C374 389 371 380 371 371 C371 362 374 353 378 346 L378 346 Z M416 60 C493 60 563 89 616 136 C614 139 611 141 609 144 C558 98 490 70 416 70 C342 70 274 98 222 144 C222 145 215 137 215 137 C268 89 338 60 416 60 L416 60 Z M416 324 C426 324 435 327 442 333 C439 337 437 339 437 339 C431 334 424 332 416 332 C408 332 401 335 395 339 C395 339 391 334 389 333 C397 327 406 324 416 324 L416 324 Z M482 319 C493 334 499 352 499 371 C499 390 493 408 482 422 C483 422 475 415 475 415 C484 403 489 388 489 371 C489 355 484 339 475 326 C478 324 480 322 482 319 L482 319 Z M292 269 C295 271 298 274 300 276 C280 302 267 335 267 371 C267 407 280 440 300 466 L293 473 C270 445 257 410 257 371 C257 333 270 297 292 269 L292 269 Z M416 -17 C512 -17 600 19 667 80 C667 80 660 88 660 87 C595 29 510 -7 416 -7 C322 -7 236 29 171 88 L164 80 C231 20 320 -17 416 -17 L416 -17 Z M416 121 C478 121 534 144 576 182 C574 185 571 187 569 190 C529 153 475 131 416 131 C357 131 303 153 262 190 L255 182 C298 144 354 121 416 121 L416 121 Z M416 170 C465 170 510 188 544 218 C542 221 539 223 537 226 C505 197 462 180 416 180 C369 180 327 197 294 226 L287 219 C322 189 367 170 416 170 L416 170 Z M416 209 C455 209 491 224 518 247 C516 250 514 253 512 255 C486 233 452 219 416 219 C380 219 346 233 320 255 L313 247 C341 224 377 209 416 209 L416 209 Z M416 265 C441 265 463 274 481 289 C479 292 476 294 474 297 C458 283 438 275 416 275 C394 275 373 283 357 297 L350 289 C368 274 391 265 416 265 L416 265 Z M358 445 C374 459 394 467 416 467 C438 467 458 459 474 445 L482 453 C464 468 441 477 416 477 C391 477 368 468 350 453 C351 452 354 448 358 445 L358 445 Z M570 552 C572 554 575 557 577 560 C534 598 478 621 416 621 C355 621 299 598 256 560 L263 553 C304 589 357 611 416 611 C475 611 529 589 570 552 L570 552 Z M454 346 C458 353 461 362 461 371 C461 380 458 389 454 396 L448 391 C451 385 453 378 453 371 C453 364 451 357 448 351 C448 351 450 349 454 346 L454 346 Z M468 333 C476 344 480 357 480 371 C480 385 476 398 468 409 L460 402 C466 393 470 382 470 371 C470 360 466 349 460 340 C463 338 465 336 468 333 L468 333 Z M498 306 C511 325 519 347 519 371 C519 395 511 418 497 436 L490 429 C502 413 509 393 509 371 C509 349 502 329 490 313 C492 311 495 308 498 306 L498 306 Z M540 269 C562 297 575 332 575 371 C575 410 562 445 539 473 L531 466 C552 440 565 407 565 371 C565 335 552 302 532 276 C535 274 537 271 540 269 L540 269 Z M568 243 C596 278 613 322 613 371 C613 420 596 464 568 499 L560 492 C587 459 603 417 603 371 C603 325 587 283 560 250 C563 248 566 245 568 243 L568 243 Z M604 211 C640 254 661 310 661 371 C661 432 640 488 604 531 L596 524 C631 483 651 429 651 371 C651 313 631 260 596 218 C601 213 604 211 604 211 L604 211 Z M649 171 C694 225 721 295 721 371 C721 447 694 517 649 571 L641 564 C685 512 711 445 711 371 C711 297 685 230 642 177 C644 175 647 173 649 171 L649 171 Z M706 120 C762 188 796 276 796 371 C796 467 762 555 706 622 L698 615 C753 549 786 464 786 371 C786 278 753 193 698 127 C703 123 706 120 706 120 L706 120 Z M183 170 L190 177 C147 229 121 297 121 371 C121 444 147 512 190 564 C187 567 184 569 182 571 C138 517 111 447 111 371 C111 294 138 225 183 170 L183 170 Z M334 306 L342 314 C330 330 323 350 323 371 C323 393 330 413 342 429 C340 431 337 434 334 436 C321 418 313 395 313 371 C313 346 321 324 334 306 L334 306 Z M364 333 L371 340 C366 349 362 360 362 371 C362 382 366 393 371 402 C369 404 366 406 364 409 C356 398 352 385 352 371 C352 357 356 344 364 333 L364 333 Z M395 403 C401 408 408 410 416 410 C424 410 431 407 437 403 C437 403 439 406 442 409 C435 415 426 418 416 418 C406 418 397 415 390 409 L395 403 Z M384 416 C393 423 404 428 416 428 C428 428 439 424 448 416 C450 419 452 421 454 423 C443 432 430 437 416 437 C401 437 388 432 377 423 L384 416 Z M371 430 C383 441 399 447 416 447 C433 447 449 441 461 430 C461 430 464 434 468 438 C454 450 436 457 416 457 C397 457 378 450 364 438 L371 430 Z M295 516 C327 545 370 562 416 562 C462 562 505 545 538 516 C538 516 545 523 544 523 C510 554 465 572 416 572 C367 572 322 554 288 524 L295 516 Z M416 240 C448 240 476 252 498 271 L491 278 C471 261 445 250 416 250 C388 250 361 261 340 278 L333 270 C355 251 384 240 416 240 L416 240 Z M416 285 C436 285 454 292 468 304 L461 312 C448 301 433 295 416 295 C399 295 383 302 370 312 L363 304 C378 292 396 285 416 285 L416 285 Z M416 305 C430 305 444 310 455 319 L448 326 C439 319 428 314 416 314 C404 314 393 319 383 326 L376 319 C388 310 401 305 416 305 L416 305 Z M341 464 C362 482 388 492 416 492 C445 492 471 481 491 464 L498 472 C476 491 447 502 416 502 C385 502 356 490 334 471 L341 464 Z M320 487 C346 509 380 523 416 523 C453 523 486 510 512 487 L518 494 C491 518 455 533 416 533 C377 533 341 519 313 495 L320 487 Z M610 597 L617 605 C563 653 493 682 416 682 C339 682 269 653 215 605 L222 598 C274 644 342 672 416 672 C491 672 559 644 610 597 L610 597 Z M172 654 C237 713 322 749 416 749 C510 749 596 713 661 654 L668 662 C601 722 512 759 416 759 C320 759 232 723 165 662 L172 654 Z M516 290 C534 312 544 340 544 371 C544 402 534 430 516 453 L508 446 C524 425 534 399 534 371 C534 343 524 317 509 297 L516 290 Z " />
<glyph glyph-name="product" unicode="&#x220f;" horiz-adv-x="832" d="M126 120 C126 120 129 123 134 127 C79 193 46 278 46 371 C46 464 79 549 133 615 C129 619 126 621 126 621 C70 554 36 466 36 371 C36 275 70 187 126 120 L126 120 Z M228 211 C230 213 233 215 235 218 C201 259 181 313 181 371 C181 429 202 483 235 524 C232 526 230 529 227 531 C192 487 171 432 171 371 C171 310 193 254 228 211 L228 211 Z M264 243 C267 245 269 248 272 250 C245 283 229 325 229 371 C229 417 245 459 272 492 C269 494 267 497 264 499 C236 464 219 419 219 371 C219 322 236 278 264 243 L264 243 Z M316 289 C319 291 321 294 324 296 C308 317 298 343 298 371 C298 399 308 425 323 445 C321 448 318 450 316 452 C298 430 288 402 288 371 C288 340 298 312 316 289 L316 289 Z M349 320 C352 323 354 325 357 327 C348 340 343 355 343 371 C343 387 348 402 357 415 C354 417 352 420 349 422 C339 408 333 390 333 371 C333 352 339 334 349 320 L349 320 Z M378 346 C382 349 384 351 384 351 C381 357 379 364 379 371 C379 378 381 385 384 391 C384 391 382 393 378 396 C374 389 371 380 371 371 C371 362 374 353 378 346 L378 346 Z M416 60 C493 60 563 89 616 136 C614 139 611 141 609 144 C558 98 490 70 416 70 C342 70 274 98 222 144 C222 145 215 137 215 137 C268 89 338 60 416 60 L416 60 Z M416 324 C426 324 435 327 442 333 C439 337 437 339 437 339 C431 334 424 332 416 332 C408 332 401 335 395 339 C395 339 391 334 389 333 C397 327 406 324 416 324 L416 324 Z M482 319 C493 334 499 352 499 371 C499 390 493 408 482 422 C483 422 475 415 475 415 C484 403 489 388 489 371 C489 355 484 339 475 326 C478 324 480 322 482 319 L482 319 Z M292 269 C295 271 298 274 300 276 C280 302 267 335 267 371 C267 407 280 440 300 466 L293 473 C270 445 257 410 257 371 C257 333 270 297 292 269 L292 269 Z M416 -17 C512 -17 600 19 667 80 C667 80 660 88 660 87 C595 29 510 -7 416 -7 C322 -7 236 29 171 88 L164 80 C231 20 320 -17 416 -17 L416 -17 Z M416 121 C478 121 534 144 576 182 C574 185 571 187 569 190 C529 153 475 131 416 131 C357 131 303 153 262 190 L255 182 C298 144 354 121 416 121 L416 121 Z M416 170 C465 170 510 188 544 218 C542 221 539 223 537 226 C505 197 462 180 416 180 C369 180 327 197 294 226 L287 219 C322 189 367 170 416 170 L416 170 Z M416 209 C455 209 491 224 518 247 C516 250 514 253 512 255 C486 233 452 219 416 219 C380 219 346 233 320 255 L313 247 C341 224 377 209 416 209 L416 209 Z M416 265 C441 265 463 274 481 289 C479 292 476 294 474 297 C458 283 438 275 416 275 C394 275 373 283 357 297 L350 289 C368 274 391 265 416 265 L416 265 Z M358 445 C374 459 394 467 416 467 C438 467 458 459 474 445 L482 453 C464 468 441 477 416 477 C391 477 368 468 350 453 C351 452 354 448 358 445 L358 445 Z M570 552 C572 554 575 557 577 560 C534 598 478 621 416 621 C355 621 299 598 256 560 L263 553 C304 589 357 611 416 611 C475 611 529 589 570 552 L570 552 Z M454 346 C458 353 461 362 461 371 C461 380 458 389 454 396 L448 391 C451 385 453 378 453 371 C453 364 451 357 448 351 C448 351 450 349 454 346 L454 346 Z M468 333 C476 344 480 357 480 371 C480 385 476 398 468 409 L460 402 C466 393 470 382 470 371 C470 360 466 349 460 340 C463 338 465 336 468 333 L468 333 Z M498 306 C511 325 519 347 519 371 C519 395 511 418 497 436 L490 429 C502 413 509 393 509 371 C509 349 502 329 490 313 C492 311 495 308 498 306 L498 306 Z M540 269 C562 297 575 332 575 371 C575 410 562 445 539 473 L531 466 C552 440 565 407 565 371 C565 335 552 302 532 276 C535 274 537 271 540 269 L540 269 Z M568 243 C596 278 613 322 613 371 C613 420 596 464 568 499 L560 492 C587 459 603 417 603 371 C603 325 587 283 560 250 C563 248 566 245 568 243 L568 243 Z M604 211 C640 254 661 310 661 371 C661 432 640 488 604 531 L596 524 C631 483 651 429 651 371 C651 313 631 260 596 218 C601 213 604 211 604 211 L604 211 Z M649 171 C694 225 721 295 721 371 C721 447 694 517 649 571 L641 564 C685 512 711 445 711 371 C711 297 685 230 642 177 C644 175 647 173 649 171 L649 171 Z M706 120 C762 188 796 276 796 371 C796 467 762 555 706 622 L698 615 C753 549 786 464 786 371 C786 278 753 193 698 127 C703 123 706 120 706 120 L706 120 Z M183 170 L190 177 C147 229 121 297 121 371 C121 444 147 512 190 564 C187 567 184 569 182 571 C138 517 111 447 111 371 C111 294 138 225 183 170 L183 170 Z M334 306 L342 314 C330 330 323 350 323 371 C323 393 330 413 342 429 C340 431 337 434 334 436 C321 418 313 395 313 371 C313 346 321 324 334 306 L334 306 Z M364 333 L371 340 C366 349 362 360 362 371 C362 382 366 393 371 402 C369 404 366 406 364 409 C356 398 352 385 352 371 C352 357 356 344 364 333 L364 333 Z M395 403 C401 408 408 410 416 410 C424 410 431 407 437 403 C437 403 439 406 442 409 C435 415 426 418 416 418 C406 418 397 415 390 409 L395 403 Z M384 416 C393 423 404 428 416 428 C428 428 439 424 448 416 C450 419 452 421 454 423 C443 432 430 437 416 437 C401 437 388 432 377 423 L384 416 Z M371 430 C383 441 399 447 416 447 C433 447 449 441 461 430 C461 430 464 434 468 438 C454 450 436 457 416 457 C397 457 378 450 364 438 L371 430 Z M295 516 C327 545 370 562 416 562 C462 562 505 545 538 516 C538 516 545 523 544 523 C510 554 465 572 416 572 C367 572 322 554 288 524 L295 516 Z M416 240 C448 240 476 252 498 271 L491 278 C471 261 445 250 416 250 C388 250 361 261 340 278 L333 270 C355 251 384 240 416 240 L416 240 Z M416 285 C436 285 454 292 468 304 L461 312 C448 301 433 295 416 295 C399 295 383 302 370 312 L363 304 C378 292 396 285 416 285 L416 285 Z M416 305 C430 305 444 310 455 319 L448 326 C439 319 428 314 416 314 C404 314 393 319 383 326 L376 319 C388 310 401 305 416 305 L416 305 Z M341 464 C362 482 388 492 416 492 C445 492 471 481 491 464 L498 472 C476 491 447 502 416 502 C385 502 356 490 334 471 L341 464 Z M320 487 C346 509 380 523 416 523 C453 523 486 510 512 487 L518 494 C491 518 455 533 416 533 C377 533 341 519 313 495 L320 487 Z M610 597 L617 605 C563 653 493 682 416 682 C339 682 269 653 215 605 L222 598 C274 644 342 672 416 672 C491 672 559 644 610 597 L610 597 Z M172 654 C237 713 322 749 416 749 C510 749 596 713 661 654 L668 662 C601 722 512 759 416 759 C320 759 232 723 165 662 L172 654 Z M516 290 C534 312 544 340 544 371 C544 402 534 430 516 453 L508 446 C524 425 534 399 534 371 C534 343 524 317 509 297 L516 290 Z " />
<glyph glyph-name="summation" unicode="&#x2211;" horiz-adv-x="832" d="M126 120 C126 120 129 123 134 127 C79 193 46 278 46 371 C46 464 79 549 133 615 C129 619 126 621 126 621 C70 554 36 466 36 371 C36 275 70 187 126 120 L126 120 Z M228 211 C230 213 233 215 235 218 C201 259 181 313 181 371 C181 429 202 483 235 524 C232 526 230 529 227 531 C192 487 171 432 171 371 C171 310 193 254 228 211 L228 211 Z M264 243 C267 245 269 248 272 250 C245 283 229 325 229 371 C229 417 245 459 272 492 C269 494 267 497 264 499 C236 464 219 419 219 371 C219 322 236 278 264 243 L264 243 Z M316 289 C319 291 321 294 324 296 C308 317 298 343 298 371 C298 399 308 425 323 445 C321 448 318 450 316 452 C298 430 288 402 288 371 C288 340 298 312 316 289 L316 289 Z M349 320 C352 323 354 325 357 327 C348 340 343 355 343 371 C343 387 348 402 357 415 C354 417 352 420 349 422 C339 408 333 390 333 371 C333 352 339 334 349 320 L349 320 Z M378 346 C382 349 384 351 384 351 C381 357 379 364 379 371 C379 378 381 385 384 391 C384 391 382 393 378 396 C374 389 371 380 371 371 C371 362 374 353 378 346 L378 346 Z M416 60 C493 60 563 89 616 136 C614 139 611 141 609 144 C558 98 490 70 416 70 C342 70 274 98 222 144 C222 145 215 137 215 137 C268 89 338 60 416 60 L416 60 Z M416 324 C426 324 435 327 442 333 C439 337 437 339 437 339 C431 334 424 332 416 332 C408 332 401 335 395 339 C395 339 391 334 389 333 C397 327 406 324 416 324 L416 324 Z M482 319 C493 334 499 352 499 371 C499 390 493 408 482 422 C483 422 475 415 475 415 C484 403 489 388 489 371 C489 355 484 339 475 326 C478 324 480 322 482 319 L482 319 Z M292 269 C295 271 298 274 300 276 C280 302 267 335 267 371 C267 407 280 440 300 466 L293 473 C270 445 257 410 257 371 C257 333 270 297 292 269 L292 269 Z M416 -17 C512 -17 600 19 667 80 C667 80 660 88 660 87 C595 29 510 -7 416 -7 C322 -7 236 29 171 88 L164 80 C231 20 320 -17 416 -17 L416 -17 Z M416 121 C478 121 534 144 576 182 C574 185 571 187 569 190 C529 153 475 131 416 131 C357 131 303 153 262 190 L255 182 C298 144 354 121 416 121 L416 121 Z M416 170 C465 170 510 188 544 218 C542 221 539 223 537 226 C505 197 462 180 416 180 C369 180 327 197 294 226 L287 219 C322 189 367 170 416 170 L416 170 Z M416 209 C455 209 491 224 518 247 C516 250 514 253 512 255 C486 233 452 219 416 219 C380 219 346 233 320 255 L313 247 C341 224 377 209 416 209 L416 209 Z M416 265 C441 265 463 274 481 289 C479 292 476 294 474 297 C458 283 438 275 416 275 C394 275 373 283 357 297 L350 289 C368 274 391 265 416 265 L416 265 Z M358 445 C374 459 394 467 416 467 C438 467 458 459 474 445 L482 453 C464 468 441 477 416 477 C391 477 368 468 350 453 C351 452 354 448 358 445 L358 445 Z M570 552 C572 554 575 557 577 560 C534 598 478 621 416 621 C355 621 299 598 256 560 L263 553 C304 589 357 611 416 611 C475 611 529 589 570 552 L570 552 Z M454 346 C458 353 461 362 461 371 C461 380 458 389 454 396 L448 391 C451 385 453 378 453 371 C453 364 451 357 448 351 C448 351 450 349 454 346 L454 346 Z M468 333 C476 344 480 357 480 371 C480 385 476 398 468 409 L460 402 C466 393 470 382 470 371 C470 360 466 349 460 340 C463 338 465 336 468 333 L468 333 Z M498 306 C511 325 519 347 519 371 C519 395 511 418 497 436 L490 429 C502 413 509 393 509 371 C509 349 502 329 490 313 C492 311 495 308 498 306 L498 306 Z M540 269 C562 297 575 332 575 371 C575 410 562 445 539 473 L531 466 C552 440 565 407 565 371 C565 335 552 302 532 276 C535 274 537 271 540 269 L540 269 Z M568 243 C596 278 613 322 613 371 C613 420 596 464 568 499 L560 492 C587 459 603 417 603 371 C603 325 587 283 560 250 C563 248 566 245 568 243 L568 243 Z M604 211 C640 254 661 310 661 371 C661 432 640 488 604 531 L596 524 C631 483 651 429 651 371 C651 313 631 260 596 218 C601 213 604 211 604 211 L604 211 Z M649 171 C694 225 721 295 721 371 C721 447 694 517 649 571 L641 564 C685 512 711 445 711 371 C711 297 685 230 642 177 C644 175 647 173 649 171 L649 171 Z M706 120 C762 188 796 276 796 371 C796 467 762 555 706 622 L698 615 C753 549 786 464 786 371 C786 278 753 193 698 127 C703 123 706 120 706 120 L706 120 Z M183 170 L190 177 C147 229 121 297 121 371 C121 444 147 512 190 564 C187 567 184 569 182 571 C138 517 111 447 111 371 C111 294 138 225 183 170 L183 170 Z M334 306 L342 314 C330 330 323 350 323 371 C323 393 330 413 342 429 C340 431 337 434 334 436 C321 418 313 395 313 371 C313 346 321 324 334 306 L334 306 Z M364 333 L371 340 C366 349 362 360 362 371 C362 382 366 393 371 402 C369 404 366 406 364 409 C356 398 352 385 352 371 C352 357 356 344 364 333 L364 333 Z M395 403 C401 408 408 410 416 410 C424 410 431 407 437 403 C437 403 439 406 442 409 C435 415 426 418 416 418 C406 418 397 415 390 409 L395 403 Z M384 416 C393 423 404 428 416 428 C428 428 439 424 448 416 C450 419 452 421 454 423 C443 432 430 437 416 437 C401 437 388 432 377 423 L384 416 Z M371 430 C383 441 399 447 416 447 C433 447 449 441 461 430 C461 430 464 434 468 438 C454 450 436 457 416 457 C397 457 378 450 364 438 L371 430 Z M295 516 C327 545 370 562 416 562 C462 562 505 545 538 516 C538 516 545 523 544 523 C510 554 465 572 416 572 C367 572 322 554 288 524 L295 516 Z M416 240 C448 240 476 252 498 271 L491 278 C471 261 445 250 416 250 C388 250 361 261 340 278 L333 270 C355 251 384 240 416 240 L416 240 Z M416 285 C436 285 454 292 468 304 L461 312 C448 301 433 295 416 295 C399 295 383 302 370 312 L363 304 C378 292 396 285 416 285 L416 285 Z M416 305 C430 305 444 310 455 319 L448 326 C439 319 428 314 416 314 C404 314 393 319 383 326 L376 319 C388 310 401 305 416 305 L416 305 Z M341 464 C362 482 388 492 416 492 C445 492 471 481 491 464 L498 472 C476 491 447 502 416 502 C385 502 356 490 334 471 L341 464 Z M320 487 C346 509 380 523 416 523 C453 523 486 510 512 487 L518 494 C491 518 455 533 416 533 C377 533 341 519 313 495 L320 487 Z M610 597 L617 605 C563 653 493 682 416 682 C339 682 269 653 215 605 L222 598 C274 644 342 672 416 672 C491 672 559 644 610 597 L610 597 Z M172 654 C237 713 322 749 416 749 C510 749 596 713 661 654 L668 662 C601 722 512 759 416 759 C320 759 232 723 165 662 L172 654 Z M516 290 C534 312 544 340 544 371 C544 402 534 430 516 453 L508 446 C524 425 534 399 534 371 C534 343 524 317 509 297 L516 290 Z " />
<glyph glyph-name="minus" unicode="&#x2212;" horiz-adv-x="385" d="M62 348 L323 348 L323 391 L62 391 L62 348 Z " />
<glyph glyph-name="radical" unicode="&#x221a;" horiz-adv-x="357" d="M129 -3 L176 -3 L339 741 L295 741 L153 76 L85 399 L38 399 L129 -3 Z " />
<glyph glyph-name="infinity" unicode="&#x221e;" horiz-adv-x="541" d="M264 0 L310 0 L310 505 L392 505 L392 547 L310 547 L310 644 C310 693 320 722 370 722 L392 722 L392 763 C384 764 379 764 368 764 C288 764 264 721 264 647 L264 547 L126 547 L126 644 C126 693 136 722 186 722 L208 722 L208 763 C200 764 195 764 184 764 C104 764 80 721 80 647 L80 547 L17 547 L17 505 L80 505 L80 0 L126 0 L126 505 L264 505 L264 0 Z M448 0 L493 0 L493 547 L448 547 L448 0 Z M448 627 L493 627 L493 720 L448 720 L448 627 Z " />
<glyph glyph-name="integral" unicode="&#x222b;" horiz-adv-x="832" d="M126 120 C126 120 129 123 134 127 C79 193 46 278 46 371 C46 464 79 549 133 615 C129 619 126 621 126 621 C70 554 36 466 36 371 C36 275 70 187 126 120 L126 120 Z M228 211 C230 213 233 215 235 218 C201 259 181 313 181 371 C181 429 202 483 235 524 C232 526 230 529 227 531 C192 487 171 432 171 371 C171 310 193 254 228 211 L228 211 Z M264 243 C267 245 269 248 272 250 C245 283 229 325 229 371 C229 417 245 459 272 492 C269 494 267 497 264 499 C236 464 219 419 219 371 C219 322 236 278 264 243 L264 243 Z M316 289 C319 291 321 294 324 296 C308 317 298 343 298 371 C298 399 308 425 323 445 C321 448 318 450 316 452 C298 430 288 402 288 371 C288 340 298 312 316 289 L316 289 Z M349 320 C352 323 354 325 357 327 C348 340 343 355 343 371 C343 387 348 402 357 415 C354 417 352 420 349 422 C339 408 333 390 333 371 C333 352 339 334 349 320 L349 320 Z M378 346 C382 349 384 351 384 351 C381 357 379 364 379 371 C379 378 381 385 384 391 C384 391 382 393 378 396 C374 389 371 380 371 371 C371 362 374 353 378 346 L378 346 Z M416 60 C493 60 563 89 616 136 C614 139 611 141 609 144 C558 98 490 70 416 70 C342 70 274 98 222 144 C222 145 215 137 215 137 C268 89 338 60 416 60 L416 60 Z M416 324 C426 324 435 327 442 333 C439 337 437 339 437 339 C431 334 424 332 416 332 C408 332 401 335 395 339 C395 339 391 334 389 333 C397 327 406 324 416 324 L416 324 Z M482 319 C493 334 499 352 499 371 C499 390 493 408 482 422 C483 422 475 415 475 415 C484 403 489 388 489 371 C489 355 484 339 475 326 C478 324 480 322 482 319 L482 319 Z M292 269 C295 271 298 274 300 276 C280 302 267 335 267 371 C267 407 280 440 300 466 L293 473 C270 445 257 410 257 371 C257 333 270 297 292 269 L292 269 Z M416 -17 C512 -17 600 19 667 80 C667 80 660 88 660 87 C595 29 510 -7 416 -7 C322 -7 236 29 171 88 L164 80 C231 20 320 -17 416 -17 L416 -17 Z M416 121 C478 121 534 144 576 182 C574 185 571 187 569 190 C529 153 475 131 416 131 C357 131 303 153 262 190 L255 182 C298 144 354 121 416 121 L416 121 Z M416 170 C465 170 510 188 544 218 C542 221 539 223 537 226 C505 197 462 180 416 180 C369 180 327 197 294 226 L287 219 C322 189 367 170 416 170 L416 170 Z M416 209 C455 209 491 224 518 247 C516 250 514 253 512 255 C486 233 452 219 416 219 C380 219 346 233 320 255 L313 247 C341 224 377 209 416 209 L416 209 Z M416 265 C441 265 463 274 481 289 C479 292 476 294 474 297 C458 283 438 275 416 275 C394 275 373 283 357 297 L350 289 C368 274 391 265 416 265 L416 265 Z M358 445 C374 459 394 467 416 467 C438 467 458 459 474 445 L482 453 C464 468 441 477 416 477 C391 477 368 468 350 453 C351 452 354 448 358 445 L358 445 Z M570 552 C572 554 575 557 577 560 C534 598 478 621 416 621 C355 621 299 598 256 560 L263 553 C304 589 357 611 416 611 C475 611 529 589 570 552 L570 552 Z M454 346 C458 353 461 362 461 371 C461 380 458 389 454 396 L448 391 C451 385 453 378 453 371 C453 364 451 357 448 351 C448 351 450 349 454 346 L454 346 Z M468 333 C476 344 480 357 480 371 C480 385 476 398 468 409 L460 402 C466 393 470 382 470 371 C470 360 466 349 460 340 C463 338 465 336 468 333 L468 333 Z M498 306 C511 325 519 347 519 371 C519 395 511 418 497 436 L490 429 C502 413 509 393 509 371 C509 349 502 329 490 313 C492 311 495 308 498 306 L498 306 Z M540 269 C562 297 575 332 575 371 C575 410 562 445 539 473 L531 466 C552 440 565 407 565 371 C565 335 552 302 532 276 C535 274 537 271 540 269 L540 269 Z M568 243 C596 278 613 322 613 371 C613 420 596 464 568 499 L560 492 C587 459 603 417 603 371 C603 325 587 283 560 250 C563 248 566 245 568 243 L568 243 Z M604 211 C640 254 661 310 661 371 C661 432 640 488 604 531 L596 524 C631 483 651 429 651 371 C651 313 631 260 596 218 C601 213 604 211 604 211 L604 211 Z M649 171 C694 225 721 295 721 371 C721 447 694 517 649 571 L641 564 C685 512 711 445 711 371 C711 297 685 230 642 177 C644 175 647 173 649 171 L649 171 Z M706 120 C762 188 796 276 796 371 C796 467 762 555 706 622 L698 615 C753 549 786 464 786 371 C786 278 753 193 698 127 C703 123 706 120 706 120 L706 120 Z M183 170 L190 177 C147 229 121 297 121 371 C121 444 147 512 190 564 C187 567 184 569 182 571 C138 517 111 447 111 371 C111 294 138 225 183 170 L183 170 Z M334 306 L342 314 C330 330 323 350 323 371 C323 393 330 413 342 429 C340 431 337 434 334 436 C321 418 313 395 313 371 C313 346 321 324 334 306 L334 306 Z M364 333 L371 340 C366 349 362 360 362 371 C362 382 366 393 371 402 C369 404 366 406 364 409 C356 398 352 385 352 371 C352 357 356 344 364 333 L364 333 Z M395 403 C401 408 408 410 416 410 C424 410 431 407 437 403 C437 403 439 406 442 409 C435 415 426 418 416 418 C406 418 397 415 390 409 L395 403 Z M384 416 C393 423 404 428 416 428 C428 428 439 424 448 416 C450 419 452 421 454 423 C443 432 430 437 416 437 C401 437 388 432 377 423 L384 416 Z M371 430 C383 441 399 447 416 447 C433 447 449 441 461 430 C461 430 464 434 468 438 C454 450 436 457 416 457 C397 457 378 450 364 438 L371 430 Z M295 516 C327 545 370 562 416 562 C462 562 505 545 538 516 C538 516 545 523 544 523 C510 554 465 572 416 572 C367 572 322 554 288 524 L295 516 Z M416 240 C448 240 476 252 498 271 L491 278 C471 261 445 250 416 250 C388 250 361 261 340 278 L333 270 C355 251 384 240 416 240 L416 240 Z M416 285 C436 285 454 292 468 304 L461 312 C448 301 433 295 416 295 C399 295 383 302 370 312 L363 304 C378 292 396 285 416 285 L416 285 Z M416 305 C430 305 444 310 455 319 L448 326 C439 319 428 314 416 314 C404 314 393 319 383 326 L376 319 C388 310 401 305 416 305 L416 305 Z M341 464 C362 482 388 492 416 492 C445 492 471 481 491 464 L498 472 C476 491 447 502 416 502 C385 502 356 490 334 471 L341 464 Z M320 487 C346 509 380 523 416 523 C453 523 486 510 512 487 L518 494 C491 518 455 533 416 533 C377 533 341 519 313 495 L320 487 Z M610 597 L617 605 C563 653 493 682 416 682 C339 682 269 653 215 605 L222 598 C274 644 342 672 416 672 C491 672 559 644 610 597 L610 597 Z M172 654 C237 713 322 749 416 749 C510 749 596 713 661 654 L668 662 C601 722 512 759 416 759 C320 759 232 723 165 662 L172 654 Z M516 290 C534 312 544 340 544 371 C544 402 534 430 516 453 L508 446 C524 425 534 399 534 371 C534 343 524 317 509 297 L516 290 Z " />
<glyph glyph-name="approxequal" unicode="&#x2248;" horiz-adv-x="385" d="M78 395 C88 419 99 435 124 435 C170 435 215 397 264 397 C301 397 322 423 337 463 L309 482 C298 458 287 438 262 438 C216 438 172 478 122 478 C87 478 64 454 49 414 L78 395 Z M78 220 C88 244 99 259 124 259 C170 259 215 221 264 221 C301 221 322 247 337 287 L309 306 C298 282 287 262 262 262 C216 262 172 302 122 302 C87 302 64 278 49 238 L78 220 Z " />
<glyph glyph-name="notequal" unicode="&#x2260;" horiz-adv-x="407" d="M264 0 L310 0 L310 505 L398 505 L398 547 L310 547 L310 643 C310 692 320 721 373 722 L398 722 L398 763 C390 764 383 764 371 764 C290 764 264 721 264 647 L264 547 L126 547 L126 644 C126 693 136 722 186 722 L208 722 L208 763 C200 764 195 764 184 764 C104 764 80 721 80 647 L80 547 L17 547 L17 505 L80 505 L80 0 L126 0 L126 505 L264 505 L264 0 Z " />
<glyph glyph-name="lessequal" unicode="&#x2264;" horiz-adv-x="385" d="M293 194 L293 240 L117 368 L293 497 L293 542 L78 387 L78 349 L293 194 Z M78 20 L293 20 L293 63 L78 63 L78 20 Z " />
<glyph glyph-name="greaterequal" unicode="&#x2265;" horiz-adv-x="385" d="M92 194 L308 349 L308 387 L92 542 L92 497 L268 368 L92 240 L92 194 Z M92 20 L308 20 L308 63 L92 63 L92 20 Z " />
<glyph glyph-name="lozenge" unicode="&#x25ca;" horiz-adv-x="421" d="M17 505 L80 505 L80 0 L126 0 L126 505 L259 505 L259 109 C259 34 275 -1 358 -1 C367 -1 389 -1 396 0 L396 43 L362 43 C310 43 304 65 304 111 L304 505 L396 505 L396 547 L304 547 L304 687 L266 677 L260 547 L126 547 L126 644 C126 693 136 722 186 722 L208 722 L208 763 C200 764 195 764 184 764 C104 764 80 721 80 647 L80 547 L17 547 L17 505 Z " />
<glyph glyph-name="apple" unicode="&#xf8ff;" horiz-adv-x="832" d="M126 120 C126 120 129 123 134 127 C79 193 46 278 46 371 C46 464 79 549 133 615 C129 619 126 621 126 621 C70 554 36 466 36 371 C36 275 70 187 126 120 L126 120 Z M228 211 C230 213 233 215 235 218 C201 259 181 313 181 371 C181 429 202 483 235 524 C232 526 230 529 227 531 C192 487 171 432 171 371 C171 310 193 254 228 211 L228 211 Z M264 243 C267 245 269 248 272 250 C245 283 229 325 229 371 C229 417 245 459 272 492 C269 494 267 497 264 499 C236 464 219 419 219 371 C219 322 236 278 264 243 L264 243 Z M316 289 C319 291 321 294 324 296 C308 317 298 343 298 371 C298 399 308 425 323 445 C321 448 318 450 316 452 C298 430 288 402 288 371 C288 340 298 312 316 289 L316 289 Z M349 320 C352 323 354 325 357 327 C348 340 343 355 343 371 C343 387 348 402 357 415 C354 417 352 420 349 422 C339 408 333 390 333 371 C333 352 339 334 349 320 L349 320 Z M378 346 C382 349 384 351 384 351 C381 357 379 364 379 371 C379 378 381 385 384 391 C384 391 382 393 378 396 C374 389 371 380 371 371 C371 362 374 353 378 346 L378 346 Z M416 60 C493 60 563 89 616 136 C614 139 611 141 609 144 C558 98 490 70 416 70 C342 70 274 98 222 144 C222 145 215 137 215 137 C268 89 338 60 416 60 L416 60 Z M416 324 C426 324 435 327 442 333 C439 337 437 339 437 339 C431 334 424 332 416 332 C408 332 401 335 395 339 C395 339 391 334 389 333 C397 327 406 324 416 324 L416 324 Z M482 319 C493 334 499 352 499 371 C499 390 493 408 482 422 C483 422 475 415 475 415 C484 403 489 388 489 371 C489 355 484 339 475 326 C478 324 480 322 482 319 L482 319 Z M292 269 C295 271 298 274 300 276 C280 302 267 335 267 371 C267 407 280 440 300 466 L293 473 C270 445 257 410 257 371 C257 333 270 297 292 269 L292 269 Z M416 -17 C512 -17 600 19 667 80 C667 80 660 88 660 87 C595 29 510 -7 416 -7 C322 -7 236 29 171 88 L164 80 C231 20 320 -17 416 -17 L416 -17 Z M416 121 C478 121 534 144 576 182 C574 185 571 187 569 190 C529 153 475 131 416 131 C357 131 303 153 262 190 L255 182 C298 144 354 121 416 121 L416 121 Z M416 170 C465 170 510 188 544 218 C542 221 539 223 537 226 C505 197 462 180 416 180 C369 180 327 197 294 226 L287 219 C322 189 367 170 416 170 L416 170 Z M416 209 C455 209 491 224 518 247 C516 250 514 253 512 255 C486 233 452 219 416 219 C380 219 346 233 320 255 L313 247 C341 224 377 209 416 209 L416 209 Z M416 265 C441 265 463 274 481 289 C479 292 476 294 474 297 C458 283 438 275 416 275 C394 275 373 283 357 297 L350 289 C368 274 391 265 416 265 L416 265 Z M358 445 C374 459 394 467 416 467 C438 467 458 459 474 445 L482 453 C464 468 441 477 416 477 C391 477 368 468 350 453 C351 452 354 448 358 445 L358 445 Z M570 552 C572 554 575 557 577 560 C534 598 478 621 416 621 C355 621 299 598 256 560 L263 553 C304 589 357 611 416 611 C475 611 529 589 570 552 L570 552 Z M454 346 C458 353 461 362 461 371 C461 380 458 389 454 396 L448 391 C451 385 453 378 453 371 C453 364 451 357 448 351 C448 351 450 349 454 346 L454 346 Z M468 333 C476 344 480 357 480 371 C480 385 476 398 468 409 L460 402 C466 393 470 382 470 371 C470 360 466 349 460 340 C463 338 465 336 468 333 L468 333 Z M498 306 C511 325 519 347 519 371 C519 395 511 418 497 436 L490 429 C502 413 509 393 509 371 C509 349 502 329 490 313 C492 311 495 308 498 306 L498 306 Z M540 269 C562 297 575 332 575 371 C575 410 562 445 539 473 L531 466 C552 440 565 407 565 371 C565 335 552 302 532 276 C535 274 537 271 540 269 L540 269 Z M568 243 C596 278 613 322 613 371 C613 420 596 464 568 499 L560 492 C587 459 603 417 603 371 C603 325 587 283 560 250 C563 248 566 245 568 243 L568 243 Z M604 211 C640 254 661 310 661 371 C661 432 640 488 604 531 L596 524 C631 483 651 429 651 371 C651 313 631 260 596 218 C601 213 604 211 604 211 L604 211 Z M649 171 C694 225 721 295 721 371 C721 447 694 517 649 571 L641 564 C685 512 711 445 711 371 C711 297 685 230 642 177 C644 175 647 173 649 171 L649 171 Z M706 120 C762 188 796 276 796 371 C796 467 762 555 706 622 L698 615 C753 549 786 464 786 371 C786 278 753 193 698 127 C703 123 706 120 706 120 L706 120 Z M183 170 L190 177 C147 229 121 297 121 371 C121 444 147 512 190 564 C187 567 184 569 182 571 C138 517 111 447 111 371 C111 294 138 225 183 170 L183 170 Z M334 306 L342 314 C330 330 323 350 323 371 C323 393 330 413 342 429 C340 431 337 434 334 436 C321 418 313 395 313 371 C313 346 321 324 334 306 L334 306 Z M364 333 L371 340 C366 349 362 360 362 371 C362 382 366 393 371 402 C369 404 366 406 364 409 C356 398 352 385 352 371 C352 357 356 344 364 333 L364 333 Z M395 403 C401 408 408 410 416 410 C424 410 431 407 437 403 C437 403 439 406 442 409 C435 415 426 418 416 418 C406 418 397 415 390 409 L395 403 Z M384 416 C393 423 404 428 416 428 C428 428 439 424 448 416 C450 419 452 421 454 423 C443 432 430 437 416 437 C401 437 388 432 377 423 L384 416 Z M371 430 C383 441 399 447 416 447 C433 447 449 441 461 430 C461 430 464 434 468 438 C454 450 436 457 416 457 C397 457 378 450 364 438 L371 430 Z M295 516 C327 545 370 562 416 562 C462 562 505 545 538 516 C538 516 545 523 544 523 C510 554 465 572 416 572 C367 572 322 554 288 524 L295 516 Z M416 240 C448 240 476 252 498 271 L491 278 C471 261 445 250 416 250 C388 250 361 261 340 278 L333 270 C355 251 384 240 416 240 L416 240 Z M416 285 C436 285 454 292 468 304 L461 312 C448 301 433 295 416 295 C399 295 383 302 370 312 L363 304 C378 292 396 285 416 285 L416 285 Z M416 305 C430 305 444 310 455 319 L448 326 C439 319 428 314 416 314 C404 314 393 319 383 326 L376 319 C388 310 401 305 416 305 L416 305 Z M341 464 C362 482 388 492 416 492 C445 492 471 481 491 464 L498 472 C476 491 447 502 416 502 C385 502 356 490 334 471 L341 464 Z M320 487 C346 509 380 523 416 523 C453 523 486 510 512 487 L518 494 C491 518 455 533 416 533 C377 533 341 519 313 495 L320 487 Z M610 597 L617 605 C563 653 493 682 416 682 C339 682 269 653 215 605 L222 598 C274 644 342 672 416 672 C491 672 559 644 610 597 L610 597 Z M172 654 C237 713 322 749 416 749 C510 749 596 713 661 654 L668 662 C601 722 512 759 416 759 C320 759 232 723 165 662 L172 654 Z M516 290 C534 312 544 340 544 371 C544 402 534 430 516 453 L508 446 C524 425 534 399 534 371 C534 343 524 317 509 297 L516 290 Z " />
<glyph glyph-name="fi" unicode="&#xfb01;" horiz-adv-x="357" d="M17 505 L80 505 L80 0 L126 0 L126 505 L208 505 L208 547 L126 547 L126 644 C126 693 136 722 186 722 L208 722 L208 763 C200 764 195 764 184 764 C104 764 80 721 80 647 L80 547 L17 547 L17 505 Z M264 0 L310 0 L310 547 L264 547 L264 0 Z M264 621 L310 621 L310 714 L264 714 L264 621 Z " />
<glyph glyph-name="fl" unicode="&#xfb02;" horiz-adv-x="388" d="M17 505 L80 505 L80 0 L126 0 L126 505 L208 505 L208 547 L126 547 L126 644 C126 693 136 722 186 722 L208 722 L208 763 C200 764 195 764 184 764 C104 764 80 721 80 647 L80 547 L17 547 L17 505 Z M351 -1 C353 -1 358 -1 360 0 L360 42 L356 42 C312 42 310 52 310 97 L310 763 L264 763 L264 94 C264 30 274 -1 351 -1 L351 -1 Z " />
</font>
</svg>
