<?xml version="1.0" encoding="UTF-8"?>
<svg xmlns="http://www.w3.org/2000/svg" xmlns:xlink="http://www.w3.org/1999/xlink" version="1.2" >
<font id="AntennaComp Thin">
<font-face  font-family="AntennaComp" units-per-em="1000" ascent="800" descent="-200" font-style="normal" font-weight="100" font-stretch="normal" cap-height="741" x-height="542" underline-position="-75" underline-thickness="50" />
<missing-glyph  horiz-adv-x="82" d="" />
<glyph glyph-name="NULL" d="" />
<glyph glyph-name="CR" unicode="&#xd;" horiz-adv-x="250" d="" />
<glyph glyph-name="&amp;#x20;" unicode="&#x20;" horiz-adv-x="82" d="" />
<glyph glyph-name="&amp;#xa0;" unicode="&#xa0;" horiz-adv-x="82" d="" />
<glyph glyph-name="exclam" unicode="&#x21;" horiz-adv-x="122" d="M52 192 L71 192 L76 741 L47 741 L52 192 Z M46 0 L74 0 L74 60 L46 60 L46 0 Z " />
<glyph glyph-name="quotedbl" unicode="&#x22;" horiz-adv-x="148" d="M38 495 L55 495 L58 741 L35 741 L38 495 Z M93 495 L110 495 L113 741 L90 741 L93 495 Z " />
<glyph glyph-name="numbersign" unicode="&#x23;" horiz-adv-x="199" d="M33 0 L56 0 L77 293 L111 293 L90 0 L113 0 L134 293 L176 293 L176 314 L136 314 L144 422 L176 422 L176 443 L145 443 L167 741 L144 741 L122 443 L88 443 L110 741 L87 741 L65 443 L23 443 L23 422 L64 422 L56 314 L23 314 L23 293 L54 293 L33 0 Z M79 314 L87 422 L121 422 L113 314 L79 314 Z " />
<glyph glyph-name="dollar" unicode="&#x24;" horiz-adv-x="167" d="M71 -90 L94 -90 L94 1 C145 8 162 47 145 132 L50 615 C38 679 47 718 94 718 C109 718 123 716 131 713 L138 735 C129 738 112 741 94 741 L94 831 L71 831 L71 738 C33 729 11 692 27 611 L122 128 C140 34 112 23 75 23 C63 23 42 26 28 29 L23 6 C36 3 56 0 71 0 L71 -90 Z " />
<glyph glyph-name="percent" unicode="&#x25;" horiz-adv-x="302" d="M68 300 C83 300 94 304 103 316 C119 339 119 379 119 524 C119 668 119 707 103 729 C94 740 83 744 68 744 C53 744 43 740 33 729 C17 706 17 668 17 524 C17 379 17 338 33 316 C42 304 53 300 68 300 L68 300 Z M234 -4 C249 -4 260 0 269 12 C285 35 285 75 285 220 C285 364 285 403 269 425 C260 436 249 440 234 440 C219 440 209 436 199 425 C183 402 183 364 183 220 C183 75 183 34 199 12 C208 0 219 -4 234 -4 L234 -4 Z M68 322 C40 322 40 354 40 524 C40 694 40 722 68 722 C95 722 96 694 96 524 C96 354 96 322 68 322 L68 322 Z M234 18 C206 18 206 50 206 220 C206 390 206 418 234 418 C261 418 262 390 262 220 C262 50 262 18 234 18 L234 18 Z M88 0 L111 0 L214 741 L191 741 L88 0 Z " />
<glyph glyph-name="ampersand" unicode="&#x26;" horiz-adv-x="215" d="M87 -3 C140 -3 160 19 170 85 L196 0 L220 0 L176 145 C176 157 177 168 178 183 L192 450 L171 450 L158 205 L122 325 C112 356 104 385 96 412 C126 491 147 552 147 637 C147 710 143 745 90 745 C37 745 32 711 32 637 C32 566 47 499 70 418 C39 338 8 250 8 146 C8 40 13 -3 87 -3 L87 -3 Z M87 19 C36 19 31 55 31 146 C31 234 54 312 80 382 C86 363 92 342 99 321 L154 136 C147 36 131 19 87 19 L87 19 Z M55 637 C55 706 60 723 90 723 C120 723 124 706 124 637 C124 571 107 503 85 448 C66 519 55 577 55 637 L55 637 Z " />
<glyph glyph-name="quotesingle" unicode="&#x27;" horiz-adv-x="93" d="M38 495 L55 495 L58 741 L35 741 L38 495 Z " />
<glyph glyph-name="parenleft" unicode="&#x28;" horiz-adv-x="135" d="M102 -145 L124 -138 C99 -69 61 60 61 305 C61 550 99 680 124 749 L102 756 C77 686 38 554 38 305 C38 56 77 -75 102 -145 L102 -145 Z " />
<glyph glyph-name="parenright" unicode="&#x29;" horiz-adv-x="135" d="M33 -145 C58 -75 97 57 97 306 C97 555 58 686 33 756 L11 749 C36 680 74 551 74 306 C74 61 36 -69 11 -138 L33 -145 Z " />
<glyph glyph-name="asterisk" unicode="&#x2a;" horiz-adv-x="166" d="M72 505 L93 505 L90 610 L157 568 L167 587 L97 623 L168 660 L157 678 L90 635 L93 741 L72 741 L74 635 L11 677 L1 658 L67 622 L0 587 L11 569 L74 611 L72 505 Z " />
<glyph glyph-name="plus" unicode="&#x2b;" horiz-adv-x="200" d="M89 245 L112 245 L112 358 L163 358 L163 380 L112 380 L112 491 L89 491 L89 380 L37 380 L37 358 L89 358 L89 245 Z " />
<glyph glyph-name="comma" unicode="&#x2c;" horiz-adv-x="80" d="M30 -51 C51 -45 54 -36 54 0 L54 60 L26 60 L26 0 L38 0 C38 -30 36 -30 25 -34 L30 -51 Z " />
<glyph glyph-name="&amp;#x2d;" unicode="&#x2d;" horiz-adv-x="147" d="M19 283 L128 283 L128 305 L19 305 L19 283 Z " />
<glyph glyph-name="&amp;#xad;" unicode="&#xad;" horiz-adv-x="147" d="M19 283 L128 283 L128 305 L19 305 L19 283 Z " />
<glyph glyph-name="period" unicode="&#x2e;" horiz-adv-x="80" d="M26 0 L54 0 L54 60 L26 60 L26 0 Z " />
<glyph glyph-name="slash" unicode="&#x2f;" horiz-adv-x="148" d="M0 0 L22 0 L148 741 L126 741 L0 0 Z " />
<glyph glyph-name="zero" unicode="0" horiz-adv-x="192" d="M96 -4 C118 -4 138 1 150 29 C165 65 165 118 165 370 C165 622 165 674 150 711 C138 739 118 744 96 744 C74 744 54 739 42 711 C27 675 27 622 27 370 C27 118 27 65 42 29 C54 1 74 -4 96 -4 L96 -4 Z M96 18 C50 18 50 57 50 370 C50 683 50 722 96 722 C142 722 142 683 142 370 C142 57 142 18 96 18 L96 18 Z " />
<glyph glyph-name="one" unicode="1" horiz-adv-x="119" d="M57 0 L80 0 L80 741 L9 741 L9 719 L57 719 L57 0 Z " />
<glyph glyph-name="two" unicode="2" horiz-adv-x="154" d="M11 0 L137 0 L137 22 L35 22 L134 613 C138 635 140 655 140 673 C140 716 123 744 72 744 C47 744 29 741 12 733 L21 713 C36 719 51 722 72 722 C117 722 123 691 111 617 L11 21 L11 0 Z " />
<glyph glyph-name="three" unicode="3" horiz-adv-x="156" d="M60 -4 C79 -4 96 0 106 10 C132 35 132 88 132 205 C132 380 128 402 95 415 C124 432 127 461 127 586 C127 665 127 710 107 730 C97 740 82 744 62 744 C42 744 28 741 9 735 L16 714 C38 721 51 722 62 722 C104 722 104 686 104 586 C104 446 104 424 43 424 L28 424 L28 402 L41 402 C109 402 109 389 109 205 C109 60 109 18 60 18 C41 18 30 21 13 26 L6 4 C26 -2 40 -4 60 -4 L60 -4 Z " />
<glyph glyph-name="four" unicode="4" horiz-adv-x="188" d="M15 168 L113 168 L113 0 L136 0 L136 168 L177 168 L177 190 L136 190 L136 439 L120 439 L113 190 L37 190 L148 741 L126 741 L15 190 L15 168 Z " />
<glyph glyph-name="five" unicode="5" horiz-adv-x="159" d="M70 -4 C91 -4 105 -1 116 10 C142 36 142 75 142 234 C142 385 142 432 124 453 C115 463 99 467 82 467 C54 467 43 460 38 452 L43 719 L128 719 L128 741 L22 741 L15 426 L37 423 C43 435 51 445 79 445 C119 445 119 428 119 234 C119 54 119 18 70 18 C51 18 31 23 22 26 L15 4 C25 1 44 -4 70 -4 L70 -4 Z " />
<glyph glyph-name="six" unicode="6" horiz-adv-x="183" d="M95 -4 C112 -4 137 -2 150 29 C164 64 165 104 165 287 C165 390 165 441 146 463 C136 474 122 478 100 478 C70 478 56 466 50 448 C50 603 50 680 74 704 C86 717 107 719 132 719 C133 719 143 719 144 719 L144 741 C143 741 133 741 132 741 C100 741 77 737 60 721 C26 689 27 651 27 287 C27 112 28 63 42 29 C54 -1 79 -4 95 -4 L95 -4 Z M96 18 C55 18 50 50 50 287 C50 428 58 456 98 456 C140 456 142 428 142 287 C142 50 137 18 96 18 L96 18 Z " />
<glyph glyph-name="seven" unicode="7" horiz-adv-x="143" d="M8 719 L107 719 L35 0 L58 0 L130 721 L130 741 L8 741 L8 719 Z " />
<glyph glyph-name="eight" unicode="8" horiz-adv-x="183" d="M92 -4 C113 -4 127 0 137 9 C159 30 159 82 159 205 C159 336 158 391 131 410 C152 427 152 469 152 569 C152 665 152 710 134 730 C125 740 112 744 92 744 C73 744 60 740 51 731 C32 711 32 666 32 569 C32 469 32 427 52 410 C25 391 25 337 25 205 C25 81 25 30 47 9 C57 0 71 -4 92 -4 L92 -4 Z M92 18 C48 18 48 45 48 205 C48 365 48 400 92 400 C135 400 136 365 136 205 C136 45 136 18 92 18 L92 18 Z M92 421 C55 421 55 445 55 569 C55 693 55 722 92 722 C129 722 129 693 129 569 C129 445 129 421 92 421 L92 421 Z " />
<glyph glyph-name="nine" unicode="9" horiz-adv-x="183" d="M39 0 C40 0 50 0 51 0 C83 0 106 4 123 20 C157 52 156 89 156 453 C156 628 155 677 141 711 C129 741 104 744 88 744 C71 744 46 742 33 711 C19 676 18 636 18 453 C18 350 18 299 37 277 C47 266 61 262 83 262 C113 262 127 274 133 292 C133 137 133 61 109 37 C97 24 76 22 51 22 C50 22 40 22 39 22 L39 0 Z M85 284 C43 284 41 312 41 453 C41 690 46 722 87 722 C128 722 133 690 133 453 C133 312 125 284 85 284 L85 284 Z " />
<glyph glyph-name="colon" unicode="&#x3a;" horiz-adv-x="84" d="M28 0 L56 0 L56 60 L28 60 L28 0 Z M28 482 L56 482 L56 542 L28 542 L28 482 Z " />
<glyph glyph-name="semicolon" unicode="&#x3b;" horiz-adv-x="84" d="M28 482 L56 482 L56 542 L28 542 L28 482 Z M32 -51 C53 -45 56 -36 56 0 L56 60 L28 60 L28 0 L40 0 C40 -30 38 -30 27 -34 L32 -51 Z " />
<glyph glyph-name="less" unicode="&#x3c;" horiz-adv-x="200" d="M149 227 L149 259 L51 369 L149 479 L149 511 L33 381 L33 357 L149 227 Z " />
<glyph glyph-name="equal" unicode="&#x3d;" horiz-adv-x="200" d="M36 390 L164 390 L164 412 L36 412 L36 390 Z M36 294 L164 294 L164 316 L36 316 L36 294 Z " />
<glyph glyph-name="greater" unicode="&#x3e;" horiz-adv-x="200" d="M51 227 L167 357 L167 381 L51 511 L51 479 L149 369 L51 259 L51 227 Z " />
<glyph glyph-name="question" unicode="&#x3f;" horiz-adv-x="160" d="M60 192 L83 192 C83 244 81 291 92 356 L135 613 C145 672 153 744 73 744 C39 744 25 738 13 733 L22 713 C32 717 45 722 73 722 C124 722 121 676 112 619 L69 361 C58 294 60 246 60 192 L60 192 Z M60 0 L88 0 L88 60 L60 60 L60 0 Z " />
<glyph glyph-name="at" unicode="&#x40;" horiz-adv-x="319" d="M254 -145 L254 -123 L160 -123 C60 -123 55 -50 55 301 C55 654 60 722 160 722 C259 722 264 654 264 301 L264 93 C264 71 262 61 247 61 C232 61 230 71 230 93 L230 542 L213 543 L210 514 C202 538 182 547 154 547 C137 547 123 542 114 533 C89 508 88 447 88 295 C88 146 89 83 112 58 C121 47 136 42 154 42 C188 42 206 55 211 84 C211 51 220 42 247 42 C279 42 287 59 287 95 L287 301 C287 556 284 668 243 715 C224 736 198 744 160 744 C124 744 99 737 80 719 C35 674 32 563 32 301 C32 35 35 -79 83 -122 C101 -139 126 -145 160 -145 L254 -145 Z M155 64 C121 64 111 72 111 295 C111 517 121 526 155 526 C207 526 207 491 207 295 C207 98 207 64 155 64 L155 64 Z " />
<glyph glyph-name="A" unicode="A" horiz-adv-x="187" d="M8 0 L29 0 L49 210 L136 210 L157 0 L179 0 L105 743 L82 743 L8 0 Z M83 548 L93 676 L103 548 L134 231 L51 231 L83 548 Z " />
<glyph glyph-name="B" unicode="B" horiz-adv-x="199" d="M32 0 L93 0 C172 0 175 68 175 196 C175 305 177 367 127 383 C169 400 170 453 170 556 C170 685 167 741 89 741 L32 741 L32 0 Z M55 22 L55 371 L93 371 C151 371 152 313 152 196 C152 79 151 22 93 22 L55 22 Z M55 393 L55 719 L88 719 C146 719 147 673 147 556 C147 436 142 393 88 393 L55 393 Z " />
<glyph glyph-name="C" unicode="C" horiz-adv-x="154" d="M103 -4 C124 -4 139 0 151 4 L145 24 C134 21 121 18 103 18 C46 18 43 51 43 370 C43 679 43 722 104 722 C120 722 137 720 147 718 L151 739 C140 742 122 744 104 744 C84 744 57 742 40 711 C20 674 20 625 20 370 C20 117 19 72 40 29 C55 -1 78 -4 103 -4 L103 -4 Z " />
<glyph glyph-name="D" unicode="D" horiz-adv-x="211" d="M33 0 L105 0 C132 0 155 6 170 34 C190 72 191 118 191 370 C191 622 190 669 170 707 C155 735 132 741 105 741 L33 741 L33 0 Z M56 22 L56 719 L105 719 C168 719 168 675 168 370 C168 65 168 22 105 22 L56 22 Z " />
<glyph glyph-name="E" unicode="E" horiz-adv-x="180" d="M32 0 L156 0 L156 22 L55 22 L55 371 L153 371 L153 393 L55 393 L55 719 L155 719 L155 741 L32 741 L32 0 Z " />
<glyph glyph-name="F" unicode="F" horiz-adv-x="162" d="M32 0 L55 0 L55 371 L152 371 L152 393 L55 393 L55 719 L154 719 L154 741 L32 741 L32 0 Z " />
<glyph glyph-name="G" unicode="G" horiz-adv-x="193" d="M103 -4 C120 -4 148 -1 162 29 C176 60 176 103 176 257 L176 393 L83 393 L83 371 L154 371 L154 257 C154 66 154 18 104 18 C43 18 43 66 43 370 C43 679 43 722 104 722 C123 722 140 720 154 717 L159 738 C145 741 129 744 104 744 C82 744 56 740 40 711 C20 675 20 623 20 370 C20 125 19 72 40 29 C54 -1 85 -4 103 -4 L103 -4 Z " />
<glyph glyph-name="H" unicode="H" horiz-adv-x="227" d="M32 0 L55 0 L55 371 L172 371 L172 0 L195 0 L195 741 L172 741 L172 393 L55 393 L55 741 L32 741 L32 0 Z " />
<glyph glyph-name="I" unicode="I" horiz-adv-x="95" d="M36 0 L59 0 L59 741 L36 741 L36 0 Z " />
<glyph glyph-name="J" unicode="J" horiz-adv-x="110" d="M9 0 C76 0 79 34 79 70 L79 741 L56 741 L56 68 C56 39 55 23 9 23 L8 23 L8 0 L9 0 Z " />
<glyph glyph-name="K" unicode="K" horiz-adv-x="180" d="M32 0 L55 0 L55 239 L91 398 L153 0 L176 0 L105 453 L172 741 L149 741 L55 328 L55 741 L32 741 L32 0 Z " />
<glyph glyph-name="L" unicode="L" horiz-adv-x="165" d="M32 0 L157 0 L157 22 L55 22 L55 741 L32 741 L32 0 Z " />
<glyph glyph-name="M" unicode="M" horiz-adv-x="259" d="M32 0 L54 0 L54 636 L61 547 L118 0 L140 0 L197 547 L204 636 L204 0 L227 0 L227 741 L196 741 L135 150 L129 80 L123 150 L63 741 L32 741 L32 0 Z " />
<glyph glyph-name="N" unicode="N" horiz-adv-x="222" d="M32 0 L54 0 L54 680 L65 601 L168 0 L190 0 L190 741 L168 741 L168 113 L155 204 L63 741 L32 741 L32 0 Z " />
<glyph glyph-name="O" unicode="O" horiz-adv-x="212" d="M106 -4 C133 -4 157 1 172 29 C192 67 192 118 192 370 C192 622 192 673 172 711 C157 739 133 744 106 744 C79 744 55 739 40 711 C20 673 20 622 20 370 C20 118 20 67 40 29 C55 1 79 -4 106 -4 L106 -4 Z M106 18 C44 18 43 56 43 370 C43 684 43 722 106 722 C169 722 169 684 169 370 C169 56 169 18 106 18 L106 18 Z " />
<glyph glyph-name="P" unicode="P" horiz-adv-x="195" d="M32 0 L55 0 L55 331 L94 331 C172 331 175 394 175 536 C175 679 172 741 94 741 L32 741 L32 0 Z M55 353 L55 719 L93 719 C151 719 152 666 152 536 C152 406 151 353 93 353 L55 353 Z " />
<glyph glyph-name="Q" unicode="Q" horiz-adv-x="212" d="M158 -117 L158 -95 L156 -95 C124 -95 114 -88 114 -44 L114 -4 C137 -3 158 4 172 29 C192 67 192 118 192 370 C192 622 192 673 172 711 C157 739 133 744 106 744 C79 744 55 739 40 711 C20 673 20 622 20 370 C20 118 20 67 40 29 C52 6 70 -1 91 -3 L91 -44 C91 -104 110 -117 156 -117 L158 -117 Z M106 18 C44 18 43 56 43 370 C43 684 43 722 106 722 C169 722 169 684 169 370 C169 56 169 18 106 18 L106 18 Z " />
<glyph glyph-name="R" unicode="R" horiz-adv-x="196" d="M32 0 L55 0 L55 341 L90 341 L142 0 L165 0 L113 342 C172 353 175 417 175 541 C175 678 172 741 94 741 L32 741 L32 0 Z M55 363 L55 719 L93 719 C151 719 152 665 152 541 C152 417 151 363 93 363 L55 363 Z " />
<glyph glyph-name="S" unicode="S" horiz-adv-x="168" d="M75 -5 C141 -5 163 34 145 127 L50 618 C38 682 47 721 94 721 C109 721 123 719 131 716 L138 738 C129 741 112 744 94 744 C43 744 8 711 27 614 L122 123 C140 30 112 18 75 18 C63 18 42 21 28 24 L23 1 C37 -2 60 -5 75 -5 L75 -5 Z " />
<glyph glyph-name="T" unicode="T" horiz-adv-x="168" d="M72 0 L95 0 L95 719 L160 719 L160 741 L8 741 L8 719 L72 719 L72 0 Z " />
<glyph glyph-name="U" unicode="U" horiz-adv-x="227" d="M114 -4 C196 -4 196 64 196 164 L196 741 L174 741 L174 164 C174 63 172 18 114 18 C55 18 54 63 54 164 L54 741 L31 741 L31 164 C31 63 31 -4 114 -4 L114 -4 Z " />
<glyph glyph-name="V" unicode="V" horiz-adv-x="187" d="M82 -2 L105 -2 L179 741 L158 741 L103 180 L94 69 L85 180 L30 741 L8 741 L82 -2 Z " />
<glyph glyph-name="W" unicode="W" horiz-adv-x="288" d="M79 -2 L100 -2 L138 522 L144 633 L150 522 L188 -2 L209 -2 L278 741 L257 741 L209 220 L200 96 L193 220 L156 741 L133 741 L96 220 L89 96 L80 220 L32 741 L10 741 L79 -2 Z " />
<glyph glyph-name="X" unicode="X" horiz-adv-x="181" d="M153 0 L176 0 L102 385 L170 741 L148 741 L92 439 L34 741 L11 741 L79 387 L5 0 L27 0 L89 332 L153 0 Z " />
<glyph glyph-name="Y" unicode="Y" horiz-adv-x="174" d="M75 0 L98 0 L98 258 L172 741 L151 741 L87 321 L24 741 L2 741 L75 264 L75 0 Z " />
<glyph glyph-name="Z" unicode="Z" horiz-adv-x="181" d="M20 0 L162 0 L162 22 L42 22 L157 719 L157 741 L25 741 L25 719 L135 719 L20 22 L20 0 Z " />
<glyph glyph-name="bracketleft" unicode="&#x5b;" horiz-adv-x="150" d="M42 -145 L117 -145 L117 -123 L65 -123 L65 734 L115 734 L115 756 L42 756 L42 -145 Z " />
<glyph glyph-name="backslash" unicode="&#x5c;" horiz-adv-x="148" d="M126 0 L148 0 L22 741 L0 741 L126 0 Z " />
<glyph glyph-name="bracketright" unicode="&#x5d;" horiz-adv-x="150" d="M42 -145 L117 -145 L117 756 L44 756 L44 734 L94 734 L94 -123 L42 -123 L42 -145 Z " />
<glyph glyph-name="asciicircum" unicode="&#x5e;" horiz-adv-x="185" d="M31 603 L54 603 L92 688 L131 603 L153 603 L103 711 L81 711 L31 603 Z " />
<glyph glyph-name="underscore" unicode="&#x5f;" horiz-adv-x="141" d="M-12 -93 C-12 -93 154 -93 154 -93 L154 -72 L-12 -72 L-12 -93 Z " />
<glyph glyph-name="grave" unicode="&#x60;" horiz-adv-x="185" d="M92 603 L114 603 L70 711 L45 711 L92 603 Z " />
<glyph glyph-name="a" unicode="a" horiz-adv-x="181" d="M78 -3 C94 -3 120 0 131 30 C134 9 144 0 169 0 L174 0 L174 23 C152 23 149 31 149 68 L149 433 C149 508 149 546 89 546 C67 546 43 542 33 539 L39 517 C47 519 70 524 89 524 C126 524 126 500 126 433 L126 395 C23 391 18 348 18 178 C18 49 19 -3 78 -3 L78 -3 Z M80 19 C45 19 41 44 41 178 C41 347 45 370 126 372 L126 178 C126 64 126 19 80 19 L80 19 Z " />
<glyph glyph-name="b" unicode="b" horiz-adv-x="200" d="M107 -4 C129 -4 146 0 159 15 C181 39 181 94 181 273 C181 452 181 504 159 528 C146 542 129 546 107 546 C82 546 61 537 52 515 L52 756 L29 756 L29 0 L45 -1 L48 30 C58 5 81 -4 107 -4 L107 -4 Z M106 18 C54 18 52 51 52 273 C52 481 54 524 106 524 C158 524 158 491 158 273 C158 44 158 18 106 18 L106 18 Z " />
<glyph glyph-name="c" unicode="c" horiz-adv-x="140" d="M92 -4 C111 -4 122 0 133 5 L125 24 C115 20 106 18 92 18 C42 18 42 57 42 273 C42 478 42 524 92 524 C104 524 114 522 124 519 L132 540 C121 544 109 546 92 546 C73 546 55 540 44 527 C19 499 19 452 19 273 C19 92 19 42 43 15 C56 0 75 -4 92 -4 L92 -4 Z " />
<glyph glyph-name="d" unicode="d" horiz-adv-x="200" d="M93 -4 C122 -4 143 8 152 35 L155 0 L171 1 L171 756 L148 756 L148 518 C139 538 119 546 93 546 C71 546 54 542 41 527 C19 503 19 448 19 269 C19 90 19 39 41 14 C54 0 71 -4 93 -4 L93 -4 Z M94 18 C42 18 42 50 42 269 C42 498 42 524 94 524 C146 524 148 491 148 269 C148 61 146 18 94 18 L94 18 Z " />
<glyph glyph-name="e" unicode="e" horiz-adv-x="161" d="M92 -4 C108 -4 124 0 140 10 L128 29 C115 21 103 18 92 18 C44 18 42 56 42 263 L144 263 L144 273 C144 456 144 503 126 527 C118 538 103 546 81 546 C61 546 46 538 38 527 C19 501 19 456 19 273 C19 91 19 43 43 15 C56 0 74 -4 92 -4 L92 -4 Z M81 524 C121 524 121 495 121 285 L42 285 C42 489 43 524 81 524 L81 524 Z " />
<glyph glyph-name="f" unicode="f" horiz-adv-x="122" d="M11 520 L46 520 L46 0 L69 0 L69 520 L115 520 L115 542 L69 542 L69 671 C69 716 76 733 113 733 L115 733 L115 756 L112 756 C60 756 46 729 46 671 L46 542 L11 542 L11 520 Z " />
<glyph glyph-name="g" unicode="g" horiz-adv-x="186" d="M93 191 C156 191 162 229 162 368 C162 453 159 500 143 524 L176 524 L176 545 L119 541 C111 544 102 545 92 545 C29 545 24 507 24 369 C24 266 26 218 53 200 C41 183 37 165 37 151 C37 127 43 111 61 99 C23 73 10 47 10 -20 C10 -100 18 -151 92 -151 C167 -151 176 -103 176 -20 C176 64 156 83 103 103 C68 116 59 125 59 151 C59 166 63 178 73 192 C79 191 85 191 93 191 L93 191 Z M93 212 C50 212 47 246 47 369 C47 490 50 524 92 524 C135 524 139 490 139 368 C139 246 135 212 93 212 L93 212 Z M94 84 C145 66 153 44 153 -20 C153 -91 149 -128 92 -128 C39 -128 33 -88 33 -20 C33 35 40 62 81 88 C85 87 89 85 94 84 L94 84 Z " />
<glyph glyph-name="h" unicode="h" horiz-adv-x="202" d="M29 0 L52 0 L52 412 C52 487 61 524 106 524 C150 524 150 501 150 433 L150 0 L173 0 L173 433 C173 506 174 546 107 546 C79 546 62 535 52 517 L52 756 L29 756 L29 0 Z " />
<glyph glyph-name="i" unicode="i" horiz-adv-x="85" d="M31 0 L54 0 L54 542 L31 542 L31 0 Z M31 629 L54 629 L54 709 L31 709 L31 629 Z " />
<glyph glyph-name="j" unicode="j" horiz-adv-x="85" d="M13 -145 C51 -145 54 -121 54 -95 L54 542 L31 542 L31 -96 C31 -115 30 -121 13 -122 L13 -145 Z M31 629 L54 629 L54 709 L31 709 L31 629 Z " />
<glyph glyph-name="k" unicode="k" horiz-adv-x="163" d="M29 0 L52 0 L52 175 L74 262 L140 0 L163 0 L86 307 L148 542 L126 542 L52 256 L52 756 L29 756 L29 0 Z " />
<glyph glyph-name="l" unicode="l" horiz-adv-x="102" d="M81 0 C82 0 83 0 84 0 L84 23 L82 23 C58 23 54 30 54 68 L54 756 L31 756 L31 68 C31 25 35 0 81 0 L81 0 Z " />
<glyph glyph-name="m" unicode="m" horiz-adv-x="315" d="M29 0 L52 0 L52 413 C52 481 59 524 104 524 C146 524 146 501 146 433 L146 0 L169 0 L169 412 C169 481 176 524 221 524 C263 524 263 501 263 433 L263 0 L286 0 L286 433 C286 506 287 546 222 546 C190 546 172 533 163 509 C154 539 136 546 105 546 C74 546 57 533 48 510 L45 540 L29 539 L29 0 Z " />
<glyph glyph-name="n" unicode="n" horiz-adv-x="202" d="M29 0 L52 0 L52 412 C52 487 61 524 106 524 C150 524 150 501 150 433 L150 0 L173 0 L173 433 C173 506 174 546 107 546 C75 546 57 534 48 510 L45 540 L29 539 L29 0 Z " />
<glyph glyph-name="o" unicode="o" horiz-adv-x="192" d="M96 -4 C118 -4 136 1 149 16 C173 44 173 94 173 273 C173 452 173 500 149 527 C136 541 118 546 96 546 C74 546 57 541 44 527 C19 499 19 452 19 273 C19 94 19 43 43 16 C56 1 74 -4 96 -4 L96 -4 Z M96 18 C42 18 42 48 42 273 C42 488 42 524 96 524 C150 524 150 489 150 273 C150 48 150 18 96 18 L96 18 Z " />
<glyph glyph-name="p" unicode="p" horiz-adv-x="200" d="M29 -145 L52 -145 L52 24 C60 5 81 -4 107 -4 C129 -4 146 0 159 15 C181 39 181 94 181 273 C181 452 181 504 159 528 C146 542 129 546 107 546 C78 546 57 534 48 507 L45 540 L29 539 L29 -145 Z M106 18 C54 18 52 51 52 273 C52 481 54 524 106 524 C158 524 158 491 158 273 C158 44 158 18 106 18 L106 18 Z " />
<glyph glyph-name="q" unicode="q" horiz-adv-x="200" d="M148 -145 L171 -145 L171 540 L155 541 L152 511 C144 539 119 546 93 546 C71 546 54 542 41 527 C19 503 19 448 19 269 C19 76 20 37 41 14 C54 0 71 -4 93 -4 C118 -4 137 5 148 25 L148 -145 Z M94 18 C42 18 42 50 42 269 C42 498 42 524 94 524 C146 524 148 491 148 269 C148 61 146 18 94 18 L94 18 Z " />
<glyph glyph-name="r" unicode="r" horiz-adv-x="114" d="M29 0 L52 0 L52 370 C52 496 65 522 106 522 L106 544 C74 544 57 531 48 504 L45 540 L29 539 L29 0 Z " />
<glyph glyph-name="s" unicode="s" horiz-adv-x="141" d="M58 -4 C122 -4 136 41 119 115 L45 444 C34 490 37 524 79 524 C91 524 105 523 114 521 L119 542 C107 545 91 546 79 546 C24 546 8 504 23 440 L97 110 C113 38 96 18 58 18 C41 18 25 21 15 23 L10 1 C23 -2 41 -4 58 -4 L58 -4 Z " />
<glyph glyph-name="t" unicode="t" horiz-adv-x="128" d="M113 0 L115 0 L115 23 L113 23 C76 23 69 35 69 75 L69 520 L115 520 L115 542 L69 542 L69 704 L48 694 L46 542 L11 542 L11 520 L46 520 L46 75 C46 22 61 0 113 0 L113 0 Z " />
<glyph glyph-name="u" unicode="u" horiz-adv-x="196" d="M98 -4 C168 -4 168 38 168 110 L168 542 L146 542 L146 110 C146 47 146 18 98 18 C52 18 52 47 52 110 L52 542 L29 542 L29 110 C29 42 29 -4 98 -4 L98 -4 Z " />
<glyph glyph-name="v" unicode="v" horiz-adv-x="150" d="M62 -1 L88 -1 L145 542 L124 542 L85 165 L75 51 L65 165 L27 542 L5 542 L62 -1 Z " />
<glyph glyph-name="w" unicode="w" horiz-adv-x="269" d="M61 -1 L85 -1 L126 387 L134 482 L142 388 L184 -1 L208 -1 L265 542 L244 542 L205 171 L196 62 L187 171 L147 542 L123 542 L83 174 L73 60 L63 175 L26 542 L4 542 L61 -1 Z " />
<glyph glyph-name="x" unicode="x" horiz-adv-x="155" d="M0 0 L22 0 L77 247 L133 0 L155 0 L88 292 L145 542 L124 542 L78 336 L32 542 L10 542 L66 293 L0 0 Z " />
<glyph glyph-name="y" unicode="y" horiz-adv-x="150" d="M26 -145 L27 -145 C64 -145 75 -124 77 -103 L145 542 L124 542 L85 168 L75 56 L66 165 L27 542 L5 542 L65 -22 L57 -97 C55 -115 51 -122 28 -122 L26 -122 L26 -145 Z " />
<glyph glyph-name="z" unicode="z" horiz-adv-x="146" d="M15 0 L130 0 L130 22 L36 22 L131 520 L131 542 L20 542 L20 520 L110 520 L15 22 L15 0 Z " />
<glyph glyph-name="braceleft" unicode="&#x7b;" horiz-adv-x="161" d="M115 -145 L128 -145 L128 -123 L115 -123 C83 -123 73 -117 73 -55 C73 10 92 182 92 249 C92 282 86 299 70 305 C87 314 92 329 92 362 C92 429 73 601 73 666 C73 728 83 734 115 734 L128 734 L128 756 L115 756 C65 756 50 747 50 666 C50 595 69 423 69 362 C69 323 63 316 29 316 L29 295 C63 295 69 288 69 249 C69 188 50 16 50 -55 C50 -136 65 -145 115 -145 L115 -145 Z " />
<glyph glyph-name="bar" unicode="&#x7c;" horiz-adv-x="103" d="M40 -145 L63 -145 L63 756 L40 756 L40 -145 Z " />
<glyph glyph-name="braceright" unicode="&#x7d;" horiz-adv-x="161" d="M33 -145 L46 -145 C96 -145 111 -136 111 -55 C111 16 92 188 92 249 C92 288 98 295 132 295 L132 316 C98 316 92 323 92 362 C92 423 111 595 111 666 C111 747 96 756 46 756 L33 756 L33 734 L46 734 C78 734 88 728 88 666 C88 601 69 429 69 362 C69 329 74 314 91 305 C75 299 69 282 69 249 C69 182 88 10 88 -55 C88 -117 78 -123 46 -123 L33 -123 L33 -145 Z " />
<glyph glyph-name="asciitilde" unicode="&#x7e;" horiz-adv-x="185" d="M31 444 L53 444 C53 466 56 472 62 472 C75 472 100 443 123 443 C143 443 153 452 153 492 L131 492 C131 470 130 464 122 464 C109 464 84 493 61 493 C45 493 31 484 31 444 L31 444 Z " />
<glyph glyph-name="exclamdown" unicode="&#xa1;" horiz-adv-x="122" d="M46 0 L75 0 L70 549 L51 549 L46 0 Z M48 681 L76 681 L76 741 L48 741 L48 681 Z " />
<glyph glyph-name="cent" unicode="&#xa2;" horiz-adv-x="160" d="M85 -97 L107 -97 L107 -4 C120 -3 130 1 139 5 L131 24 C121 20 112 18 98 18 C48 18 48 57 48 273 C48 478 48 524 98 524 C110 524 120 522 130 519 L138 540 C129 543 119 545 107 546 L107 640 L85 640 L85 545 C71 543 58 537 50 527 C25 499 25 452 25 273 C25 92 25 42 49 15 C59 3 72 -1 85 -3 L85 -97 Z " />
<glyph glyph-name="sterling" unicode="&#xa3;" horiz-adv-x="182" d="M108 -1 C146 -1 159 12 159 80 L159 116 L136 116 L136 80 C136 30 132 21 108 21 C99 21 88 23 76 29 C81 46 80 72 78 109 L62 369 L129 369 L129 391 L60 391 L44 655 C42 691 48 722 86 722 C104 722 120 720 137 713 L146 733 C127 741 111 744 86 744 C38 744 17 715 21 651 L37 391 L12 391 L12 369 L39 369 L55 108 C60 28 61 22 11 22 L11 0 C37 0 54 3 64 12 C80 2 95 -1 108 -1 L108 -1 Z " />
<glyph glyph-name="currency" unicode="&#xa4;" horiz-adv-x="192" d="M12 395 L49 395 L49 343 L12 343 L12 322 L49 322 C49 117 49 68 69 29 C84 -1 107 -4 132 -4 C150 -4 158 -2 170 2 L164 22 C153 19 146 18 132 18 C78 18 72 50 72 322 L152 322 L152 343 L72 343 L72 395 L152 395 L152 416 L72 416 C72 680 75 722 133 722 C148 722 156 721 166 720 L170 741 C159 743 150 744 133 744 C113 744 86 742 69 711 C50 676 49 626 49 416 L12 416 L12 395 Z " />
<glyph glyph-name="yen" unicode="&#xa5;" horiz-adv-x="176" d="M23 192 L76 192 L76 140 L23 140 L23 119 L76 119 L76 0 L99 0 L99 119 L153 119 L153 140 L99 140 L99 192 L153 192 L153 213 L99 213 L99 283 L153 741 L132 741 L88 346 L45 741 L23 741 L76 291 L76 213 L23 213 L23 192 Z " />
<glyph glyph-name="brokenbar" unicode="&#xa6;" horiz-adv-x="103" d="M40 383 L63 383 L63 756 L40 756 L40 383 Z M40 -145 L63 -145 L63 228 L40 228 L40 -145 Z " />
<glyph glyph-name="section" unicode="&#xa7;" horiz-adv-x="192" d="M41 0 C95 0 110 26 110 85 L110 176 C121 178 130 181 137 188 C160 209 163 262 163 387 C163 505 160 557 140 579 C132 587 122 592 109 593 L109 656 C109 702 116 718 155 718 L155 741 C101 741 86 715 86 656 L86 593 C71 592 60 587 52 579 C31 557 29 506 29 387 C29 264 31 211 53 190 C61 181 72 177 87 176 L87 85 C87 39 80 23 41 23 L41 0 Z M96 198 C55 198 52 228 52 387 C52 544 55 572 96 572 C137 572 140 544 140 387 C140 228 137 198 96 198 L96 198 Z " />
<glyph glyph-name="dieresis" unicode="&#xa8;" horiz-adv-x="185" d="M46 603 L69 603 L69 663 L46 663 L46 603 Z M116 603 L139 603 L139 663 L116 663 L116 603 Z " />
<glyph glyph-name="copyright" unicode="&#xa9;" horiz-adv-x="248" d="M131 116 C146 116 155 118 167 122 L161 143 C151 140 140 138 131 138 C97 138 95 181 95 365 C95 544 97 591 131 591 C144 591 150 590 162 588 L167 610 C155 613 143 614 131 614 C117 614 106 610 97 601 C73 576 72 510 72 365 C72 217 74 151 97 128 C104 120 116 116 131 116 L131 116 Z M129 -4 C156 -4 176 1 192 16 C232 53 241 147 241 371 C241 583 233 677 198 718 C182 737 159 744 129 744 C99 744 76 737 60 718 C25 677 17 583 17 371 C17 145 26 51 67 15 C83 1 103 -4 129 -4 L129 -4 Z M129 17 C53 17 39 76 39 371 C39 666 53 723 129 723 C205 723 219 666 219 371 C219 76 205 17 129 17 L129 17 Z " />
<glyph glyph-name="ordfeminine" unicode="&#xaa;" horiz-adv-x="177" d="M78 297 C91 297 111 297 119 322 C122 305 130 299 150 299 L158 299 L158 321 C141 321 138 325 138 355 L138 652 C138 713 136 744 87 744 C69 744 48 741 40 738 L45 717 C51 719 68 723 87 723 C117 723 115 706 115 652 L115 621 C32 618 28 583 28 444 C28 339 30 297 78 297 L78 297 Z M80 318 C51 318 50 335 50 444 C50 582 50 597 115 599 L115 472 C115 352 117 318 80 318 L80 318 Z M38 215 L141 215 L141 238 L38 238 L38 215 Z " />
<glyph glyph-name="guillemotleft" unicode="&#xab;" horiz-adv-x="202" d="M83 0 L105 0 L59 271 L105 542 L83 542 L37 271 L83 0 Z M143 0 L165 0 L119 271 L165 542 L143 542 L97 271 L143 0 Z " />
<glyph glyph-name="logicalnot" unicode="&#xac;" horiz-adv-x="832" d="M126 120 C126 120 129 123 134 127 C79 193 46 278 46 371 C46 464 79 549 133 615 C129 619 126 621 126 621 C70 554 36 466 36 371 C36 275 70 187 126 120 L126 120 Z M228 211 C230 213 233 215 235 218 C201 259 181 313 181 371 C181 429 202 483 235 524 C232 526 230 529 227 531 C192 487 171 432 171 371 C171 310 193 254 228 211 L228 211 Z M264 243 C267 245 269 248 272 250 C245 283 229 325 229 371 C229 417 245 459 272 492 C269 494 267 497 264 499 C236 464 219 419 219 371 C219 322 236 278 264 243 L264 243 Z M316 289 C319 291 321 294 324 296 C308 317 298 343 298 371 C298 399 308 425 323 445 C321 448 318 450 316 452 C298 430 288 402 288 371 C288 340 298 312 316 289 L316 289 Z M349 320 C352 323 354 325 357 327 C348 340 343 355 343 371 C343 387 348 402 357 415 C354 417 352 420 349 422 C339 408 333 390 333 371 C333 352 339 334 349 320 L349 320 Z M378 346 C382 349 384 351 384 351 C381 357 379 364 379 371 C379 378 381 385 384 391 C384 391 382 393 378 396 C374 389 371 380 371 371 C371 362 374 353 378 346 L378 346 Z M416 60 C493 60 563 89 616 136 C614 139 611 141 609 144 C558 98 490 70 416 70 C342 70 274 98 222 144 C222 145 215 137 215 137 C268 89 338 60 416 60 L416 60 Z M416 324 C426 324 435 327 442 333 C439 337 437 339 437 339 C431 334 424 332 416 332 C408 332 401 335 395 339 C395 339 391 334 389 333 C397 327 406 324 416 324 L416 324 Z M482 319 C493 334 499 352 499 371 C499 390 493 408 482 422 C483 422 475 415 475 415 C484 403 489 388 489 371 C489 355 484 339 475 326 C478 324 480 322 482 319 L482 319 Z M292 269 C295 271 298 274 300 276 C280 302 267 335 267 371 C267 407 280 440 300 466 L293 473 C270 445 257 410 257 371 C257 333 270 297 292 269 L292 269 Z M416 -17 C512 -17 600 19 667 80 C667 80 660 88 660 87 C595 29 510 -7 416 -7 C322 -7 236 29 171 88 L164 80 C231 20 320 -17 416 -17 L416 -17 Z M416 121 C478 121 534 144 576 182 C574 185 571 187 569 190 C529 153 475 131 416 131 C357 131 303 153 262 190 L255 182 C298 144 354 121 416 121 L416 121 Z M416 170 C465 170 510 188 544 218 C542 221 539 223 537 226 C505 197 462 180 416 180 C369 180 327 197 294 226 L287 219 C322 189 367 170 416 170 L416 170 Z M416 209 C455 209 491 224 518 247 C516 250 514 253 512 255 C486 233 452 219 416 219 C380 219 346 233 320 255 L313 247 C341 224 377 209 416 209 L416 209 Z M416 265 C441 265 463 274 481 289 C479 292 476 294 474 297 C458 283 438 275 416 275 C394 275 373 283 357 297 L350 289 C368 274 391 265 416 265 L416 265 Z M358 445 C374 459 394 467 416 467 C438 467 458 459 474 445 L482 453 C464 468 441 477 416 477 C391 477 368 468 350 453 C351 452 354 448 358 445 L358 445 Z M570 552 C572 554 575 557 577 560 C534 598 478 621 416 621 C355 621 299 598 256 560 L263 553 C304 589 357 611 416 611 C475 611 529 589 570 552 L570 552 Z M454 346 C458 353 461 362 461 371 C461 380 458 389 454 396 L448 391 C451 385 453 378 453 371 C453 364 451 357 448 351 C448 351 450 349 454 346 L454 346 Z M468 333 C476 344 480 357 480 371 C480 385 476 398 468 409 L460 402 C466 393 470 382 470 371 C470 360 466 349 460 340 C463 338 465 336 468 333 L468 333 Z M498 306 C511 325 519 347 519 371 C519 395 511 418 497 436 L490 429 C502 413 509 393 509 371 C509 349 502 329 490 313 C492 311 495 308 498 306 L498 306 Z M540 269 C562 297 575 332 575 371 C575 410 562 445 539 473 L531 466 C552 440 565 407 565 371 C565 335 552 302 532 276 C535 274 537 271 540 269 L540 269 Z M568 243 C596 278 613 322 613 371 C613 420 596 464 568 499 L560 492 C587 459 603 417 603 371 C603 325 587 283 560 250 C563 248 566 245 568 243 L568 243 Z M604 211 C640 254 661 310 661 371 C661 432 640 488 604 531 L596 524 C631 483 651 429 651 371 C651 313 631 260 596 218 C601 213 604 211 604 211 L604 211 Z M649 171 C694 225 721 295 721 371 C721 447 694 517 649 571 L641 564 C685 512 711 445 711 371 C711 297 685 230 642 177 C644 175 647 173 649 171 L649 171 Z M706 120 C762 188 796 276 796 371 C796 467 762 555 706 622 L698 615 C753 549 786 464 786 371 C786 278 753 193 698 127 C703 123 706 120 706 120 L706 120 Z M183 170 L190 177 C147 229 121 297 121 371 C121 444 147 512 190 564 C187 567 184 569 182 571 C138 517 111 447 111 371 C111 294 138 225 183 170 L183 170 Z M334 306 L342 314 C330 330 323 350 323 371 C323 393 330 413 342 429 C340 431 337 434 334 436 C321 418 313 395 313 371 C313 346 321 324 334 306 L334 306 Z M364 333 L371 340 C366 349 362 360 362 371 C362 382 366 393 371 402 C369 404 366 406 364 409 C356 398 352 385 352 371 C352 357 356 344 364 333 L364 333 Z M395 403 C401 408 408 410 416 410 C424 410 431 407 437 403 C437 403 439 406 442 409 C435 415 426 418 416 418 C406 418 397 415 390 409 L395 403 Z M384 416 C393 423 404 428 416 428 C428 428 439 424 448 416 C450 419 452 421 454 423 C443 432 430 437 416 437 C401 437 388 432 377 423 L384 416 Z M371 430 C383 441 399 447 416 447 C433 447 449 441 461 430 C461 430 464 434 468 438 C454 450 436 457 416 457 C397 457 378 450 364 438 L371 430 Z M295 516 C327 545 370 562 416 562 C462 562 505 545 538 516 C538 516 545 523 544 523 C510 554 465 572 416 572 C367 572 322 554 288 524 L295 516 Z M416 240 C448 240 476 252 498 271 L491 278 C471 261 445 250 416 250 C388 250 361 261 340 278 L333 270 C355 251 384 240 416 240 L416 240 Z M416 285 C436 285 454 292 468 304 L461 312 C448 301 433 295 416 295 C399 295 383 302 370 312 L363 304 C378 292 396 285 416 285 L416 285 Z M416 305 C430 305 444 310 455 319 L448 326 C439 319 428 314 416 314 C404 314 393 319 383 326 L376 319 C388 310 401 305 416 305 L416 305 Z M341 464 C362 482 388 492 416 492 C445 492 471 481 491 464 L498 472 C476 491 447 502 416 502 C385 502 356 490 334 471 L341 464 Z M320 487 C346 509 380 523 416 523 C453 523 486 510 512 487 L518 494 C491 518 455 533 416 533 C377 533 341 519 313 495 L320 487 Z M610 597 L617 605 C563 653 493 682 416 682 C339 682 269 653 215 605 L222 598 C274 644 342 672 416 672 C491 672 559 644 610 597 L610 597 Z M172 654 C237 713 322 749 416 749 C510 749 596 713 661 654 L668 662 C601 722 512 759 416 759 C320 759 232 723 165 662 L172 654 Z M516 290 C534 312 544 340 544 371 C544 402 534 430 516 453 L508 446 C524 425 534 399 534 371 C534 343 524 317 509 297 L516 290 Z " />
<glyph glyph-name="registered" unicode="&#xae;" horiz-adv-x="248" d="M129 -4 C156 -4 176 1 192 16 C232 53 241 147 241 371 C241 583 233 677 198 718 C182 737 159 744 129 744 C99 744 76 737 60 718 C25 677 17 583 17 371 C17 145 26 51 67 15 C83 1 103 -4 129 -4 L129 -4 Z M129 17 C53 17 39 76 39 371 C39 666 53 723 129 723 C205 723 219 666 219 371 C219 76 205 17 129 17 L129 17 Z M152 121 L175 121 L140 345 C179 354 181 397 181 479 C181 571 179 614 124 614 L79 614 L79 121 L102 121 L102 344 L116 344 L152 121 Z M102 367 L102 592 L124 592 C158 592 159 558 159 479 C159 400 158 367 124 367 L102 367 Z " />
<glyph glyph-name="&amp;#xaf;" unicode="&#xaf;" horiz-adv-x="185" d="M38 603 L147 603 L147 624 L38 624 L38 603 Z " />
<glyph glyph-name="&amp;#x2c9;" unicode="&#x2c9;" horiz-adv-x="185" d="M38 603 L147 603 L147 624 L38 624 L38 603 Z " />
<glyph glyph-name="degree" unicode="&#xb0;" horiz-adv-x="184" d="M92 301 C110 301 124 305 135 317 C154 340 154 380 154 524 C154 668 154 707 135 729 C124 740 110 744 92 744 C74 744 61 740 50 729 C30 706 30 668 30 524 C30 380 30 339 49 317 C60 305 74 301 92 301 L92 301 Z M92 323 C53 323 53 345 53 524 C53 703 53 722 92 722 C131 722 131 703 131 524 C131 345 131 323 92 323 L92 323 Z " />
<glyph glyph-name="plusminus" unicode="&#xb1;" horiz-adv-x="331" d="M153 0 L176 0 L176 520 L222 520 L222 542 L176 542 L176 671 C176 716 183 733 220 733 L222 733 L222 756 L219 756 C167 756 153 729 153 671 L153 542 L69 542 L69 671 C69 716 76 733 113 733 L115 733 L115 756 L112 756 C60 756 46 729 46 671 L46 542 L11 542 L11 520 L46 520 L46 0 L69 0 L69 520 L153 520 L153 0 Z M310 0 L313 0 L313 23 L311 23 C287 23 283 30 283 68 L283 756 L260 756 L260 68 C260 25 264 0 310 0 L310 0 Z " />
<glyph glyph-name="twosuperior" unicode="&#xb2;" horiz-adv-x="157" d="M36 312 L117 312 L117 333 L58 333 L116 667 C118 678 119 689 119 698 C119 727 108 743 71 743 C55 743 43 742 32 736 L42 717 C50 721 59 722 71 722 C90 722 96 712 96 694 C96 687 96 680 94 671 L36 333 L36 312 Z " />
<glyph glyph-name="threesuperior" unicode="&#xb3;" horiz-adv-x="158" d="M64 310 C82 310 93 313 101 320 C115 334 115 364 115 430 C115 507 116 541 98 552 C112 565 112 593 112 651 C112 697 112 720 101 732 C94 739 83 742 65 742 C58 742 49 742 33 737 L39 717 C52 721 59 721 65 721 C90 721 90 709 90 651 C90 570 90 561 61 561 L46 561 L46 540 L59 540 C93 540 93 533 93 430 C93 346 93 331 64 331 C53 331 47 333 37 336 L29 316 C40 312 50 310 64 310 L64 310 Z " />
<glyph glyph-name="acute" unicode="&#xb4;" horiz-adv-x="185" d="M71 603 L93 603 L140 711 L115 711 L71 603 Z " />
<glyph glyph-name="&amp;#xb5;" unicode="&#xb5;" horiz-adv-x="196" d="M29 -145 L52 -145 L52 16 C60 3 77 -4 98 -4 C120 -4 135 2 145 11 C166 30 168 67 168 119 L168 542 L146 542 L146 119 C146 56 143 18 98 18 C54 18 52 56 52 119 L52 542 L29 542 L29 -145 Z " />
<glyph glyph-name="&amp;#x3bc;" unicode="&#x3bc;" horiz-adv-x="196" d="M29 -145 L52 -145 L52 16 C60 3 77 -4 98 -4 C120 -4 135 2 145 11 C166 30 168 67 168 119 L168 542 L146 542 L146 119 C146 56 143 18 98 18 C54 18 52 56 52 119 L52 542 L29 542 L29 -145 Z " />
<glyph glyph-name="paragraph" unicode="&#xb6;" horiz-adv-x="185" d="M84 0 L107 0 L107 331 L130 331 L130 0 L153 0 L153 741 L101 741 C23 741 20 679 20 536 C20 405 22 341 84 332 L84 0 Z M102 353 C44 353 43 406 43 536 C43 666 44 719 102 719 L130 719 L130 353 L102 353 Z " />
<glyph glyph-name="&amp;#xb7;" unicode="&#xb7;" horiz-adv-x="80" d="M26 293 L54 293 L54 353 L26 353 L26 293 Z " />
<glyph glyph-name="&amp;#x2219;" unicode="&#x2219;" horiz-adv-x="80" d="M26 293 L54 293 L54 353 L26 353 L26 293 Z " />
<glyph glyph-name="cedilla" unicode="&#xb8;" horiz-adv-x="185" d="M101 -165 C143 -165 152 -153 152 -97 C152 -56 140 -42 109 -46 L119 8 L99 8 L88 -54 L104 -65 C120 -63 129 -65 129 -97 C129 -138 126 -143 101 -143 C94 -143 81 -141 74 -138 L67 -159 C78 -163 89 -165 101 -165 L101 -165 Z " />
<glyph glyph-name="onesuperior" unicode="&#xb9;" horiz-adv-x="139" d="M64 312 L86 312 L86 741 L35 741 L35 720 L64 720 L64 312 Z " />
<glyph glyph-name="ordmasculine" unicode="&#xba;" horiz-adv-x="174" d="M34 213 L143 213 L143 236 L34 236 L34 213 Z M87 293 C105 293 120 297 131 309 C150 332 150 373 150 520 C150 667 150 706 131 728 C120 740 105 744 87 744 C69 744 55 740 45 728 C24 705 24 667 24 520 C24 373 24 332 44 309 C54 297 69 293 87 293 L87 293 Z M87 315 C47 315 47 335 47 520 C47 694 47 722 87 722 C127 722 127 694 127 520 C127 335 127 315 87 315 L87 315 Z " />
<glyph glyph-name="guillemotright" unicode="&#xbb;" horiz-adv-x="202" d="M37 0 L59 0 L105 271 L59 542 L37 542 L83 271 L37 0 Z M97 0 L119 0 L165 271 L119 542 L97 542 L143 271 L97 0 Z " />
<glyph glyph-name="onequarter" unicode="&#xbc;" horiz-adv-x="240" d="M50 0 L72 0 L175 741 L153 741 L50 0 Z M123 89 L180 89 L180 0 L201 0 L201 89 L226 89 L226 110 L201 110 L201 234 L186 234 L180 110 L144 110 L208 429 L188 429 L123 110 L123 89 Z M47 312 L69 312 L69 741 L18 741 L18 720 L47 720 L47 312 Z " />
<glyph glyph-name="onehalf" unicode="&#xbd;" horiz-adv-x="250" d="M50 0 L72 0 L175 741 L153 741 L50 0 Z M47 312 L69 312 L69 741 L18 741 L18 720 L47 720 L47 312 Z M147 0 L228 0 L228 21 L169 21 L227 355 C229 366 230 377 230 386 C230 415 219 431 182 431 C166 431 154 430 143 424 L153 405 C161 409 170 410 182 410 C201 410 207 400 207 382 C207 375 207 368 205 359 L147 21 L147 0 Z " />
<glyph glyph-name="threequarters" unicode="&#xbe;" horiz-adv-x="265" d="M75 0 L97 0 L200 741 L178 741 L75 0 Z M148 89 L205 89 L205 0 L226 0 L226 89 L251 89 L251 110 L226 110 L226 234 L211 234 L205 110 L169 110 L233 429 L213 429 L148 110 L148 89 Z M46 310 C64 310 75 313 83 320 C97 334 97 364 97 430 C97 507 98 541 80 552 C94 565 94 593 94 651 C94 697 94 720 83 732 C76 739 65 742 47 742 C40 742 31 742 15 737 L21 717 C34 721 41 721 47 721 C72 721 72 709 72 651 C72 570 72 561 43 561 L28 561 L28 540 L41 540 C75 540 75 533 75 430 C75 346 75 331 46 331 C35 331 29 333 19 336 L11 316 C22 312 32 310 46 310 L46 310 Z " />
<glyph glyph-name="questiondown" unicode="&#xbf;" horiz-adv-x="160" d="M87 -3 C121 -3 135 3 147 8 L138 28 C128 24 115 19 87 19 C36 19 39 65 48 122 L91 380 C102 447 100 495 100 549 L77 549 C77 497 79 450 68 385 L25 128 C15 71 7 -3 87 -3 L87 -3 Z M72 681 L100 681 L100 741 L72 741 L72 681 Z " />
<glyph glyph-name="Agrave" unicode="&#xc0;" horiz-adv-x="187" d="M8 0 L29 0 L49 210 L136 210 L157 0 L179 0 L105 743 L82 743 L8 0 Z M83 548 L93 676 L103 548 L134 231 L51 231 L83 548 Z M93 788 L115 788 L71 896 L46 896 L93 788 Z " />
<glyph glyph-name="Aacute" unicode="&#xc1;" horiz-adv-x="187" d="M8 0 L29 0 L49 210 L136 210 L157 0 L179 0 L105 743 L82 743 L8 0 Z M83 548 L93 676 L103 548 L134 231 L51 231 L83 548 Z M72 788 L94 788 L141 896 L116 896 L72 788 Z " />
<glyph glyph-name="Acircumflex" unicode="&#xc2;" horiz-adv-x="187" d="M8 0 L29 0 L49 210 L136 210 L157 0 L179 0 L105 743 L82 743 L8 0 Z M83 548 L93 676 L103 548 L134 231 L51 231 L83 548 Z M32 788 L55 788 L93 873 L132 788 L154 788 L104 896 L82 896 L32 788 Z " />
<glyph glyph-name="Atilde" unicode="&#xc3;" horiz-adv-x="187" d="M8 0 L29 0 L49 210 L136 210 L157 0 L179 0 L105 743 L82 743 L8 0 Z M83 548 L93 676 L103 548 L134 231 L51 231 L83 548 Z M32 788 L54 788 C54 810 57 816 63 816 C76 816 101 787 124 787 C144 787 154 796 154 836 L132 836 C132 814 131 808 123 808 C110 808 85 837 62 837 C46 837 32 828 32 788 L32 788 Z " />
<glyph glyph-name="Adieresis" unicode="&#xc4;" horiz-adv-x="187" d="M8 0 L29 0 L49 210 L136 210 L157 0 L179 0 L105 743 L82 743 L8 0 Z M83 548 L93 676 L103 548 L134 231 L51 231 L83 548 Z M47 788 L70 788 L70 848 L47 848 L47 788 Z M117 788 L140 788 L140 848 L117 848 L117 788 Z " />
<glyph glyph-name="Aring" unicode="&#xc5;" horiz-adv-x="187" d="M8 0 L29 0 L49 210 L136 210 L157 0 L179 0 L106 725 C129 731 132 756 132 791 C132 833 129 859 93 859 C57 859 54 833 54 791 C54 755 56 731 80 725 L8 0 Z M83 548 L93 676 L103 548 L134 231 L51 231 L83 548 Z M93 744 C78 744 75 752 75 791 C75 830 78 839 93 839 C108 839 111 830 111 791 C111 752 108 744 93 744 L93 744 Z " />
<glyph glyph-name="AE" unicode="&#xc6;" horiz-adv-x="283" d="M0 0 L22 0 L55 209 L135 209 L135 0 L259 0 L259 22 L158 22 L158 371 L249 371 L249 393 L158 393 L158 719 L258 719 L258 741 L116 741 L0 0 Z M58 230 L135 722 L135 230 L58 230 Z " />
<glyph glyph-name="Ccedilla" unicode="&#xc7;" horiz-adv-x="154" d="M86 -165 C128 -165 137 -153 137 -97 C137 -56 125 -42 94 -46 L102 -4 L103 -4 C124 -4 139 0 151 4 L145 24 C134 21 121 18 103 18 C46 18 43 51 43 370 C43 679 43 722 104 722 C120 722 137 720 147 718 L151 739 C140 742 122 744 104 744 C84 744 57 742 40 711 C20 674 20 625 20 370 C20 117 19 72 40 29 C50 7 65 0 82 -3 L73 -54 L89 -65 C105 -63 114 -65 114 -97 C114 -138 111 -143 86 -143 C79 -143 66 -141 59 -138 L52 -159 C63 -163 74 -165 86 -165 L86 -165 Z " />
<glyph glyph-name="Egrave" unicode="&#xc8;" horiz-adv-x="180" d="M32 0 L156 0 L156 22 L55 22 L55 371 L153 371 L153 393 L55 393 L55 719 L155 719 L155 741 L32 741 L32 0 Z M90 788 L112 788 L68 896 L43 896 L90 788 Z " />
<glyph glyph-name="Eacute" unicode="&#xc9;" horiz-adv-x="180" d="M32 0 L156 0 L156 22 L55 22 L55 371 L153 371 L153 393 L55 393 L55 719 L155 719 L155 741 L32 741 L32 0 Z M69 788 L91 788 L138 896 L113 896 L69 788 Z " />
<glyph glyph-name="Ecircumflex" unicode="&#xca;" horiz-adv-x="180" d="M32 0 L156 0 L156 22 L55 22 L55 371 L153 371 L153 393 L55 393 L55 719 L155 719 L155 741 L32 741 L32 0 Z M29 788 L52 788 L90 873 L129 788 L151 788 L101 896 L79 896 L29 788 Z " />
<glyph glyph-name="Edieresis" unicode="&#xcb;" horiz-adv-x="180" d="M32 0 L156 0 L156 22 L55 22 L55 371 L153 371 L153 393 L55 393 L55 719 L155 719 L155 741 L32 741 L32 0 Z M44 788 L67 788 L67 848 L44 848 L44 788 Z M114 788 L137 788 L137 848 L114 848 L114 788 Z " />
<glyph glyph-name="Igrave" unicode="&#xcc;" horiz-adv-x="95" d="M36 788 L58 788 L25 896 L0 896 L36 788 Z M36 0 L59 0 L59 741 L36 741 L36 0 Z " />
<glyph glyph-name="Iacute" unicode="&#xcd;" horiz-adv-x="95" d="M36 788 L58 788 L95 896 L70 896 L36 788 Z M36 0 L59 0 L59 741 L36 741 L36 0 Z " />
<glyph glyph-name="Icircumflex" unicode="&#xce;" horiz-adv-x="95" d="M-11 788 L12 788 L47 873 L83 788 L105 788 L58 896 L36 896 L-11 788 Z M36 0 L59 0 L59 741 L36 741 L36 0 Z " />
<glyph glyph-name="Idieresis" unicode="&#xcf;" horiz-adv-x="95" d="M36 0 L59 0 L59 741 L36 741 L36 0 Z M1 788 L24 788 L24 848 L1 848 L1 788 Z M71 788 L94 788 L94 848 L71 848 L71 788 Z " />
<glyph glyph-name="Eth" unicode="&#xd0;" horiz-adv-x="211" d="M5 374 L33 374 L33 0 L105 0 C132 0 155 6 170 34 C190 72 191 118 191 370 C191 622 190 669 170 707 C155 735 132 741 105 741 L33 741 L33 396 L5 396 L5 374 Z M56 22 L56 374 L114 374 L114 396 L56 396 L56 719 L105 719 C168 719 168 675 168 370 C168 65 168 22 105 22 L56 22 Z " />
<glyph glyph-name="Ntilde" unicode="&#xd1;" horiz-adv-x="222" d="M32 0 L54 0 L54 680 L65 601 L168 0 L190 0 L190 741 L168 741 L168 113 L155 204 L63 741 L32 741 L32 0 Z M50 788 L72 788 C72 810 75 816 81 816 C94 816 119 787 142 787 C162 787 172 796 172 836 L150 836 C150 814 149 808 141 808 C128 808 103 837 80 837 C64 837 50 828 50 788 L50 788 Z " />
<glyph glyph-name="Ograve" unicode="&#xd2;" horiz-adv-x="212" d="M106 -4 C133 -4 157 1 172 29 C192 67 192 118 192 370 C192 622 192 673 172 711 C157 739 133 744 106 744 C79 744 55 739 40 711 C20 673 20 622 20 370 C20 118 20 67 40 29 C55 1 79 -4 106 -4 L106 -4 Z M106 18 C44 18 43 56 43 370 C43 684 43 722 106 722 C169 722 169 684 169 370 C169 56 169 18 106 18 L106 18 Z M106 788 L128 788 L84 896 L59 896 L106 788 Z " />
<glyph glyph-name="Oacute" unicode="&#xd3;" horiz-adv-x="212" d="M106 -4 C133 -4 157 1 172 29 C192 67 192 118 192 370 C192 622 192 673 172 711 C157 739 133 744 106 744 C79 744 55 739 40 711 C20 673 20 622 20 370 C20 118 20 67 40 29 C55 1 79 -4 106 -4 L106 -4 Z M106 18 C44 18 43 56 43 370 C43 684 43 722 106 722 C169 722 169 684 169 370 C169 56 169 18 106 18 L106 18 Z M85 788 L107 788 L154 896 L129 896 L85 788 Z " />
<glyph glyph-name="Ocircumflex" unicode="&#xd4;" horiz-adv-x="212" d="M106 -4 C133 -4 157 1 172 29 C192 67 192 118 192 370 C192 622 192 673 172 711 C157 739 133 744 106 744 C79 744 55 739 40 711 C20 673 20 622 20 370 C20 118 20 67 40 29 C55 1 79 -4 106 -4 L106 -4 Z M106 18 C44 18 43 56 43 370 C43 684 43 722 106 722 C169 722 169 684 169 370 C169 56 169 18 106 18 L106 18 Z M45 788 L68 788 L106 873 L145 788 L167 788 L117 896 L95 896 L45 788 Z " />
<glyph glyph-name="Otilde" unicode="&#xd5;" horiz-adv-x="212" d="M106 -4 C133 -4 157 1 172 29 C192 67 192 118 192 370 C192 622 192 673 172 711 C157 739 133 744 106 744 C79 744 55 739 40 711 C20 673 20 622 20 370 C20 118 20 67 40 29 C55 1 79 -4 106 -4 L106 -4 Z M106 18 C44 18 43 56 43 370 C43 684 43 722 106 722 C169 722 169 684 169 370 C169 56 169 18 106 18 L106 18 Z M45 788 L67 788 C67 810 70 816 76 816 C89 816 114 787 137 787 C157 787 167 796 167 836 L145 836 C145 814 144 808 136 808 C123 808 98 837 75 837 C59 837 45 828 45 788 L45 788 Z " />
<glyph glyph-name="Odieresis" unicode="&#xd6;" horiz-adv-x="212" d="M106 -4 C133 -4 157 1 172 29 C192 67 192 118 192 370 C192 622 192 673 172 711 C157 739 133 744 106 744 C79 744 55 739 40 711 C20 673 20 622 20 370 C20 118 20 67 40 29 C55 1 79 -4 106 -4 L106 -4 Z M106 18 C44 18 43 56 43 370 C43 684 43 722 106 722 C169 722 169 684 169 370 C169 56 169 18 106 18 L106 18 Z M60 788 L83 788 L83 848 L60 848 L60 788 Z M130 788 L153 788 L153 848 L130 848 L130 788 Z " />
<glyph glyph-name="multiply" unicode="&#xd7;" horiz-adv-x="200" d="M48 303 L100 355 L153 303 L166 316 L113 368 L166 421 L153 434 L100 381 L48 434 L35 421 L87 368 L35 316 L48 303 Z " />
<glyph glyph-name="Oslash" unicode="&#xd8;" horiz-adv-x="212" d="M43 -41 L66 -41 L72 0 C82 -3 94 -4 106 -4 C133 -4 157 1 172 29 C192 67 192 118 192 370 C192 622 192 673 172 711 C168 717 165 722 161 726 L168 783 L145 783 L139 739 C129 743 118 744 106 744 C79 744 55 739 40 711 C20 673 20 622 20 370 C20 118 20 67 40 29 C43 23 46 19 50 15 L43 -41 Z M106 18 C92 18 82 19 73 25 L156 694 C168 655 169 567 169 370 C169 56 169 18 106 18 L106 18 Z M43 370 C43 684 43 722 106 722 C119 722 129 720 137 715 L55 50 C44 91 43 181 43 370 L43 370 Z " />
<glyph glyph-name="Ugrave" unicode="&#xd9;" horiz-adv-x="227" d="M114 -4 C196 -4 196 64 196 164 L196 741 L174 741 L174 164 C174 63 172 18 114 18 C55 18 54 63 54 164 L54 741 L31 741 L31 164 C31 63 31 -4 114 -4 L114 -4 Z M113 788 L135 788 L91 896 L66 896 L113 788 Z " />
<glyph glyph-name="Uacute" unicode="&#xda;" horiz-adv-x="227" d="M114 -4 C196 -4 196 64 196 164 L196 741 L174 741 L174 164 C174 63 172 18 114 18 C55 18 54 63 54 164 L54 741 L31 741 L31 164 C31 63 31 -4 114 -4 L114 -4 Z M92 788 L114 788 L161 896 L136 896 L92 788 Z " />
<glyph glyph-name="Ucircumflex" unicode="&#xdb;" horiz-adv-x="227" d="M114 -4 C196 -4 196 64 196 164 L196 741 L174 741 L174 164 C174 63 172 18 114 18 C55 18 54 63 54 164 L54 741 L31 741 L31 164 C31 63 31 -4 114 -4 L114 -4 Z M52 788 L75 788 L113 873 L152 788 L174 788 L124 896 L102 896 L52 788 Z " />
<glyph glyph-name="Udieresis" unicode="&#xdc;" horiz-adv-x="227" d="M114 -4 C196 -4 196 64 196 164 L196 741 L174 741 L174 164 C174 63 172 18 114 18 C55 18 54 63 54 164 L54 741 L31 741 L31 164 C31 63 31 -4 114 -4 L114 -4 Z M67 788 L90 788 L90 848 L67 848 L67 788 Z M137 788 L160 788 L160 848 L137 848 L137 788 Z " />
<glyph glyph-name="Yacute" unicode="&#xdd;" horiz-adv-x="174" d="M75 0 L98 0 L98 258 L172 741 L151 741 L87 321 L24 741 L2 741 L75 264 L75 0 Z M66 788 L88 788 L135 896 L110 896 L66 788 Z " />
<glyph glyph-name="Thorn" unicode="&#xde;" horiz-adv-x="195" d="M32 0 L55 0 L55 184 L94 184 C172 184 175 247 175 389 C175 532 172 594 94 594 L55 594 L55 741 L32 741 L32 0 Z M55 206 L55 572 L93 572 C151 572 152 519 152 389 C152 259 151 206 93 206 L55 206 Z " />
<glyph glyph-name="germandbls" unicode="&#xdf;" horiz-adv-x="192" d="M29 0 L52 0 L52 618 C52 714 58 734 98 734 C139 734 144 713 144 563 C144 410 138 393 98 393 L83 393 L83 372 L98 372 C138 372 152 365 152 196 C152 27 138 22 98 22 L81 22 L81 0 L98 0 C174 0 175 42 175 196 C175 350 166 370 136 384 C160 394 167 424 167 563 C167 731 160 756 98 756 C32 756 29 717 29 618 L29 0 Z " />
<glyph glyph-name="agrave" unicode="&#xe0;" horiz-adv-x="181" d="M78 -3 C94 -3 120 0 131 30 C134 9 144 0 169 0 L174 0 L174 23 C152 23 149 31 149 68 L149 433 C149 508 149 546 89 546 C67 546 43 542 33 539 L39 517 C47 519 70 524 89 524 C126 524 126 500 126 433 L126 395 C23 391 18 348 18 178 C18 49 19 -3 78 -3 L78 -3 Z M80 19 C45 19 41 44 41 178 C41 347 45 370 126 372 L126 178 C126 64 126 19 80 19 L80 19 Z M90 603 L112 603 L68 711 L43 711 L90 603 Z " />
<glyph glyph-name="aacute" unicode="&#xe1;" horiz-adv-x="181" d="M78 -3 C94 -3 120 0 131 30 C134 9 144 0 169 0 L174 0 L174 23 C152 23 149 31 149 68 L149 433 C149 508 149 546 89 546 C67 546 43 542 33 539 L39 517 C47 519 70 524 89 524 C126 524 126 500 126 433 L126 395 C23 391 18 348 18 178 C18 49 19 -3 78 -3 L78 -3 Z M80 19 C45 19 41 44 41 178 C41 347 45 370 126 372 L126 178 C126 64 126 19 80 19 L80 19 Z M69 603 L91 603 L138 711 L113 711 L69 603 Z " />
<glyph glyph-name="acircumflex" unicode="&#xe2;" horiz-adv-x="181" d="M78 -3 C94 -3 120 0 131 30 C134 9 144 0 169 0 L174 0 L174 23 C152 23 149 31 149 68 L149 433 C149 508 149 546 89 546 C67 546 43 542 33 539 L39 517 C47 519 70 524 89 524 C126 524 126 500 126 433 L126 395 C23 391 18 348 18 178 C18 49 19 -3 78 -3 L78 -3 Z M80 19 C45 19 41 44 41 178 C41 347 45 370 126 372 L126 178 C126 64 126 19 80 19 L80 19 Z M29 603 L52 603 L90 688 L129 603 L151 603 L101 711 L79 711 L29 603 Z " />
<glyph glyph-name="atilde" unicode="&#xe3;" horiz-adv-x="181" d="M78 -3 C94 -3 120 0 131 30 C134 9 144 0 169 0 L174 0 L174 23 C152 23 149 31 149 68 L149 433 C149 508 149 546 89 546 C67 546 43 542 33 539 L39 517 C47 519 70 524 89 524 C126 524 126 500 126 433 L126 395 C23 391 18 348 18 178 C18 49 19 -3 78 -3 L78 -3 Z M80 19 C45 19 41 44 41 178 C41 347 45 370 126 372 L126 178 C126 64 126 19 80 19 L80 19 Z M29 603 L51 603 C51 625 54 631 60 631 C73 631 98 602 121 602 C141 602 151 611 151 651 L129 651 C129 629 128 623 120 623 C107 623 82 652 59 652 C43 652 29 643 29 603 L29 603 Z " />
<glyph glyph-name="adieresis" unicode="&#xe4;" horiz-adv-x="181" d="M78 -3 C94 -3 120 0 131 30 C134 9 144 0 169 0 L174 0 L174 23 C152 23 149 31 149 68 L149 433 C149 508 149 546 89 546 C67 546 43 542 33 539 L39 517 C47 519 70 524 89 524 C126 524 126 500 126 433 L126 395 C23 391 18 348 18 178 C18 49 19 -3 78 -3 L78 -3 Z M80 19 C45 19 41 44 41 178 C41 347 45 370 126 372 L126 178 C126 64 126 19 80 19 L80 19 Z M44 603 L67 603 L67 663 L44 663 L44 603 Z M114 603 L137 603 L137 663 L114 663 L114 603 Z " />
<glyph glyph-name="aring" unicode="&#xe5;" horiz-adv-x="181" d="M78 -3 C94 -3 120 0 131 30 C134 9 144 0 169 0 L174 0 L174 23 C152 23 149 31 149 68 L149 433 C149 508 149 546 89 546 C67 546 43 542 33 539 L39 517 C47 519 70 524 89 524 C126 524 126 500 126 433 L126 395 C23 391 18 348 18 178 C18 49 19 -3 78 -3 L78 -3 Z M80 19 C45 19 41 44 41 178 C41 347 45 370 126 372 L126 178 C126 64 126 19 80 19 L80 19 Z M90 601 C126 601 129 627 129 668 C129 710 126 736 90 736 C54 736 51 710 51 668 C51 627 54 601 90 601 L90 601 Z M90 621 C75 621 72 629 72 668 C72 707 75 716 90 716 C105 716 108 707 108 668 C108 629 105 621 90 621 L90 621 Z " />
<glyph glyph-name="ae" unicode="&#xe6;" horiz-adv-x="268" d="M199 -4 C215 -4 231 0 247 10 L235 29 C222 21 210 18 199 18 C151 18 149 56 149 263 L251 263 L251 273 C251 456 251 503 233 527 C225 538 210 546 188 546 C168 546 155 538 147 527 C145 524 142 521 141 517 C134 535 119 546 89 546 C67 546 43 542 33 539 L39 517 C47 519 70 524 89 524 C124 524 126 504 126 435 L126 395 C23 391 18 348 18 178 C18 53 19 -3 78 -3 C108 -3 125 6 137 43 C140 31 144 22 151 15 C164 0 181 -4 199 -4 L199 -4 Z M80 19 C42 19 41 58 41 178 C41 347 45 370 126 372 L126 212 C126 66 126 19 80 19 L80 19 Z M188 524 C228 524 228 495 228 285 L149 285 C149 489 150 524 188 524 L188 524 Z " />
<glyph glyph-name="ccedilla" unicode="&#xe7;" horiz-adv-x="140" d="M79 -165 C121 -165 130 -153 130 -97 C130 -56 118 -42 87 -46 L95 -4 C112 -3 122 0 133 5 L125 24 C115 20 106 18 92 18 C42 18 42 57 42 273 C42 478 42 524 92 524 C104 524 114 522 124 519 L132 540 C121 544 109 546 92 546 C73 546 55 540 44 527 C19 499 19 452 19 273 C19 92 19 42 43 15 C52 5 63 0 75 -2 L66 -54 L82 -65 C98 -63 107 -65 107 -97 C107 -138 104 -143 79 -143 C72 -143 59 -141 52 -138 L45 -159 C56 -163 67 -165 79 -165 L79 -165 Z " />
<glyph glyph-name="egrave" unicode="&#xe8;" horiz-adv-x="161" d="M92 -4 C108 -4 124 0 140 10 L128 29 C115 21 103 18 92 18 C44 18 42 56 42 263 L144 263 L144 273 C144 456 144 503 126 527 C118 538 103 546 81 546 C61 546 46 538 38 527 C19 501 19 456 19 273 C19 91 19 43 43 15 C56 0 74 -4 92 -4 L92 -4 Z M81 524 C121 524 121 495 121 285 L42 285 C42 489 43 524 81 524 L81 524 Z M80 603 L102 603 L58 711 L33 711 L80 603 Z " />
<glyph glyph-name="eacute" unicode="&#xe9;" horiz-adv-x="161" d="M92 -4 C108 -4 124 0 140 10 L128 29 C115 21 103 18 92 18 C44 18 42 56 42 263 L144 263 L144 273 C144 456 144 503 126 527 C118 538 103 546 81 546 C61 546 46 538 38 527 C19 501 19 456 19 273 C19 91 19 43 43 15 C56 0 74 -4 92 -4 L92 -4 Z M81 524 C121 524 121 495 121 285 L42 285 C42 489 43 524 81 524 L81 524 Z M59 603 L81 603 L128 711 L103 711 L59 603 Z " />
<glyph glyph-name="ecircumflex" unicode="&#xea;" horiz-adv-x="161" d="M92 -4 C108 -4 124 0 140 10 L128 29 C115 21 103 18 92 18 C44 18 42 56 42 263 L144 263 L144 273 C144 456 144 503 126 527 C118 538 103 546 81 546 C61 546 46 538 38 527 C19 501 19 456 19 273 C19 91 19 43 43 15 C56 0 74 -4 92 -4 L92 -4 Z M81 524 C121 524 121 495 121 285 L42 285 C42 489 43 524 81 524 L81 524 Z M19 603 L42 603 L80 688 L119 603 L141 603 L91 711 L69 711 L19 603 Z " />
<glyph glyph-name="edieresis" unicode="&#xeb;" horiz-adv-x="161" d="M92 -4 C108 -4 124 0 140 10 L128 29 C115 21 103 18 92 18 C44 18 42 56 42 263 L144 263 L144 273 C144 456 144 503 126 527 C118 538 103 546 81 546 C61 546 46 538 38 527 C19 501 19 456 19 273 C19 91 19 43 43 15 C56 0 74 -4 92 -4 L92 -4 Z M81 524 C121 524 121 495 121 285 L42 285 C42 489 43 524 81 524 L81 524 Z M34 603 L57 603 L57 663 L34 663 L34 603 Z M104 603 L127 603 L127 663 L104 663 L104 603 Z " />
<glyph glyph-name="igrave" unicode="&#xec;" horiz-adv-x="85" d="M32 603 L54 603 L20 711 L-5 711 L32 603 Z M31 0 L54 0 L54 542 L31 542 L31 0 Z " />
<glyph glyph-name="iacute" unicode="&#xed;" horiz-adv-x="85" d="M31 603 L53 603 L90 711 L65 711 L31 603 Z M31 0 L54 0 L54 542 L31 542 L31 0 Z " />
<glyph glyph-name="icircumflex" unicode="&#xee;" horiz-adv-x="85" d="M-11 603 L12 603 L42 686 L73 603 L95 603 L53 711 L31 711 L-11 603 Z M31 0 L54 0 L54 542 L31 542 L31 0 Z " />
<glyph glyph-name="idieresis" unicode="&#xef;" horiz-adv-x="85" d="M0 613 L23 613 L23 673 L0 673 L0 613 Z M62 613 L85 613 L85 673 L62 673 L62 613 Z M31 0 L54 0 L54 542 L31 542 L31 0 Z " />
<glyph glyph-name="eth" unicode="&#xf0;" horiz-adv-x="192" d="M77 619 L120 638 C127 607 134 572 140 532 C129 543 113 546 96 546 C69 546 55 539 44 527 C19 499 19 456 19 273 C19 93 19 43 43 16 C57 0 75 -4 96 -4 C126 -4 141 6 149 16 C173 43 173 102 173 273 L173 306 C173 473 161 570 142 648 L182 666 L182 689 L137 669 C129 699 119 727 109 756 L87 749 C95 726 105 697 115 659 L77 642 L77 619 Z M96 18 C42 18 42 48 42 273 C42 488 42 524 96 524 C150 524 150 489 150 273 C150 48 150 18 96 18 L96 18 Z " />
<glyph glyph-name="ntilde" unicode="&#xf1;" horiz-adv-x="202" d="M29 0 L52 0 L52 412 C52 487 61 524 106 524 C150 524 150 501 150 433 L150 0 L173 0 L173 433 C173 506 174 546 107 546 C75 546 57 534 48 510 L45 540 L29 539 L29 0 Z M40 603 L62 603 C62 625 65 631 71 631 C84 631 109 602 132 602 C152 602 162 611 162 651 L140 651 C140 629 139 623 131 623 C118 623 93 652 70 652 C54 652 40 643 40 603 L40 603 Z " />
<glyph glyph-name="ograve" unicode="&#xf2;" horiz-adv-x="192" d="M96 -4 C118 -4 136 1 149 16 C173 44 173 94 173 273 C173 452 173 500 149 527 C136 541 118 546 96 546 C74 546 57 541 44 527 C19 499 19 452 19 273 C19 94 19 43 43 16 C56 1 74 -4 96 -4 L96 -4 Z M96 18 C42 18 42 48 42 273 C42 488 42 524 96 524 C150 524 150 489 150 273 C150 48 150 18 96 18 L96 18 Z M96 603 L118 603 L74 711 L49 711 L96 603 Z " />
<glyph glyph-name="oacute" unicode="&#xf3;" horiz-adv-x="192" d="M96 -4 C118 -4 136 1 149 16 C173 44 173 94 173 273 C173 452 173 500 149 527 C136 541 118 546 96 546 C74 546 57 541 44 527 C19 499 19 452 19 273 C19 94 19 43 43 16 C56 1 74 -4 96 -4 L96 -4 Z M96 18 C42 18 42 48 42 273 C42 488 42 524 96 524 C150 524 150 489 150 273 C150 48 150 18 96 18 L96 18 Z M75 603 L97 603 L144 711 L119 711 L75 603 Z " />
<glyph glyph-name="ocircumflex" unicode="&#xf4;" horiz-adv-x="192" d="M96 -4 C118 -4 136 1 149 16 C173 44 173 94 173 273 C173 452 173 500 149 527 C136 541 118 546 96 546 C74 546 57 541 44 527 C19 499 19 452 19 273 C19 94 19 43 43 16 C56 1 74 -4 96 -4 L96 -4 Z M96 18 C42 18 42 48 42 273 C42 488 42 524 96 524 C150 524 150 489 150 273 C150 48 150 18 96 18 L96 18 Z M35 603 L58 603 L96 688 L135 603 L157 603 L107 711 L85 711 L35 603 Z " />
<glyph glyph-name="otilde" unicode="&#xf5;" horiz-adv-x="192" d="M96 -4 C118 -4 136 1 149 16 C173 44 173 94 173 273 C173 452 173 500 149 527 C136 541 118 546 96 546 C74 546 57 541 44 527 C19 499 19 452 19 273 C19 94 19 43 43 16 C56 1 74 -4 96 -4 L96 -4 Z M96 18 C42 18 42 48 42 273 C42 488 42 524 96 524 C150 524 150 489 150 273 C150 48 150 18 96 18 L96 18 Z M35 603 L57 603 C57 625 60 631 66 631 C79 631 104 602 127 602 C147 602 157 611 157 651 L135 651 C135 629 134 623 126 623 C113 623 88 652 65 652 C49 652 35 643 35 603 L35 603 Z " />
<glyph glyph-name="odieresis" unicode="&#xf6;" horiz-adv-x="192" d="M96 -4 C118 -4 136 1 149 16 C173 44 173 94 173 273 C173 452 173 500 149 527 C136 541 118 546 96 546 C74 546 57 541 44 527 C19 499 19 452 19 273 C19 94 19 43 43 16 C56 1 74 -4 96 -4 L96 -4 Z M96 18 C42 18 42 48 42 273 C42 488 42 524 96 524 C150 524 150 489 150 273 C150 48 150 18 96 18 L96 18 Z M50 603 L73 603 L73 663 L50 663 L50 603 Z M120 603 L143 603 L143 663 L120 663 L120 603 Z " />
<glyph glyph-name="divide" unicode="&#xf7;" horiz-adv-x="200" d="M90 245 L111 245 L111 293 L90 293 L90 245 Z M37 358 L163 358 L163 379 L37 379 L37 358 Z M90 440 L111 440 L111 488 L90 488 L90 440 Z " />
<glyph glyph-name="oslash" unicode="&#xf8;" horiz-adv-x="192" d="M25 -40 L48 -40 L56 4 C67 -2 81 -4 96 -4 C118 -4 136 1 149 16 C173 44 173 94 173 273 C173 436 173 490 155 519 L167 582 L144 582 L135 538 C124 544 111 546 96 546 C74 546 57 541 44 527 C19 499 19 452 19 273 C19 109 19 52 37 23 L25 -40 Z M42 273 C42 488 42 524 96 524 C112 524 124 520 132 512 L46 66 C42 102 42 166 42 273 L42 273 Z M96 18 C80 18 68 21 60 29 L146 479 C150 444 150 381 150 273 C150 48 150 18 96 18 L96 18 Z " />
<glyph glyph-name="ugrave" unicode="&#xf9;" horiz-adv-x="196" d="M98 -4 C168 -4 168 38 168 110 L168 542 L146 542 L146 110 C146 47 146 18 98 18 C52 18 52 47 52 110 L52 542 L29 542 L29 110 C29 42 29 -4 98 -4 L98 -4 Z M98 603 L120 603 L76 711 L51 711 L98 603 Z " />
<glyph glyph-name="uacute" unicode="&#xfa;" horiz-adv-x="196" d="M98 -4 C168 -4 168 38 168 110 L168 542 L146 542 L146 110 C146 47 146 18 98 18 C52 18 52 47 52 110 L52 542 L29 542 L29 110 C29 42 29 -4 98 -4 L98 -4 Z M77 603 L99 603 L146 711 L121 711 L77 603 Z " />
<glyph glyph-name="ucircumflex" unicode="&#xfb;" horiz-adv-x="196" d="M98 -4 C168 -4 168 38 168 110 L168 542 L146 542 L146 110 C146 47 146 18 98 18 C52 18 52 47 52 110 L52 542 L29 542 L29 110 C29 42 29 -4 98 -4 L98 -4 Z M37 603 L60 603 L98 688 L137 603 L159 603 L109 711 L87 711 L37 603 Z " />
<glyph glyph-name="udieresis" unicode="&#xfc;" horiz-adv-x="196" d="M98 -4 C168 -4 168 38 168 110 L168 542 L146 542 L146 110 C146 47 146 18 98 18 C52 18 52 47 52 110 L52 542 L29 542 L29 110 C29 42 29 -4 98 -4 L98 -4 Z M52 603 L75 603 L75 663 L52 663 L52 603 Z M122 603 L145 603 L145 663 L122 663 L122 603 Z " />
<glyph glyph-name="yacute" unicode="&#xfd;" horiz-adv-x="150" d="M26 -145 L27 -145 C64 -145 75 -124 77 -103 L145 542 L124 542 L85 168 L75 56 L66 165 L27 542 L5 542 L65 -22 L57 -97 C55 -115 51 -122 28 -122 L26 -122 L26 -145 Z M54 603 L76 603 L123 711 L98 711 L54 603 Z " />
<glyph glyph-name="thorn" unicode="&#xfe;" horiz-adv-x="200" d="M29 -145 L52 -145 L52 24 C63 4 81 -4 107 -4 C129 -4 146 0 159 15 C181 39 181 94 181 273 C181 452 181 504 159 528 C146 542 129 546 107 546 C81 546 62 536 52 513 L52 756 L29 756 L29 -145 Z M106 18 C54 18 52 51 52 273 C52 481 54 524 106 524 C158 524 158 491 158 273 C158 44 158 18 106 18 L106 18 Z " />
<glyph glyph-name="ydieresis" unicode="&#xff;" horiz-adv-x="150" d="M26 -145 L27 -145 C64 -145 75 -124 77 -103 L145 542 L124 542 L85 168 L75 56 L66 165 L27 542 L5 542 L65 -22 L57 -97 C55 -115 51 -122 28 -122 L26 -122 L26 -145 Z M29 603 L52 603 L52 663 L29 663 L29 603 Z M99 603 L122 603 L122 663 L99 663 L99 603 Z " />
<glyph glyph-name="dotlessi" unicode="&#x131;" horiz-adv-x="85" d="M31 0 L54 0 L54 542 L31 542 L31 0 Z " />
<glyph glyph-name="Lslash" unicode="&#x141;" horiz-adv-x="165" d="M5 329 L32 344 L32 0 L157 0 L157 22 L55 22 L55 358 L110 390 L110 414 L55 382 L55 741 L32 741 L32 368 L5 353 L5 329 Z " />
<glyph glyph-name="lslash" unicode="&#x142;" horiz-adv-x="142" d="M15 485 L51 506 L51 68 C51 25 55 0 101 0 L104 0 L104 23 L102 23 C78 23 74 30 74 68 L74 519 L120 546 L120 570 L74 543 L74 756 L51 756 L51 530 L15 509 L15 485 Z " />
<glyph glyph-name="OE" unicode="&#x152;" horiz-adv-x="316" d="M119 0 L292 0 L292 22 L191 22 L191 371 L289 371 L289 393 L191 393 L191 719 L291 719 L291 741 L119 741 C92 741 69 735 54 707 C34 669 33 623 33 371 C33 119 34 72 54 34 C69 6 92 0 119 0 L119 0 Z M119 22 C56 22 56 66 56 371 C56 676 56 719 119 719 L168 719 L168 22 L119 22 Z " />
<glyph glyph-name="oe" unicode="&#x153;" horiz-adv-x="292" d="M223 -4 C239 -4 255 0 271 10 L259 29 C246 21 234 18 223 18 C175 18 173 56 173 263 L275 263 L275 273 C275 456 275 503 257 527 C249 538 234 546 212 546 C192 546 177 538 169 527 C165 522 162 516 160 508 C157 516 153 522 149 527 C136 541 118 546 96 546 C74 546 57 541 44 527 C19 499 19 452 19 273 C19 94 19 43 43 16 C56 1 74 -4 96 -4 C118 -4 136 1 149 16 C154 22 158 29 161 39 C164 29 168 21 174 15 C187 0 205 -4 223 -4 L223 -4 Z M96 18 C42 18 42 48 42 273 C42 488 42 524 96 524 C150 524 150 489 150 273 C150 48 150 18 96 18 L96 18 Z M212 524 C252 524 252 495 252 285 L173 285 C173 489 174 524 212 524 L212 524 Z " />
<glyph glyph-name="Scaron" unicode="&#x160;" horiz-adv-x="168" d="M75 -5 C141 -5 163 34 145 127 L50 618 C38 682 47 721 94 721 C109 721 123 719 131 716 L138 738 C129 741 112 744 94 744 C43 744 8 711 27 614 L122 123 C140 30 112 18 75 18 C63 18 42 21 28 24 L23 1 C37 -2 60 -5 75 -5 L75 -5 Z M73 788 L95 788 L145 896 L122 896 L84 811 L45 896 L23 896 L73 788 Z " />
<glyph glyph-name="scaron" unicode="&#x161;" horiz-adv-x="141" d="M58 -4 C122 -4 136 41 119 115 L45 444 C34 490 37 524 79 524 C91 524 105 523 114 521 L119 542 C107 545 91 546 79 546 C24 546 8 504 23 440 L97 110 C113 38 96 18 58 18 C41 18 25 21 15 23 L10 1 C23 -2 41 -4 58 -4 L58 -4 Z M59 603 L81 603 L131 711 L108 711 L70 626 L31 711 L9 711 L59 603 Z " />
<glyph glyph-name="Ydieresis" unicode="&#x178;" horiz-adv-x="174" d="M75 0 L98 0 L98 258 L172 741 L151 741 L87 321 L24 741 L2 741 L75 264 L75 0 Z M41 788 L64 788 L64 848 L41 848 L41 788 Z M111 788 L134 788 L134 848 L111 848 L111 788 Z " />
<glyph glyph-name="Zcaron" unicode="&#x17d;" horiz-adv-x="181" d="M20 0 L162 0 L162 22 L42 22 L157 719 L157 741 L25 741 L25 719 L135 719 L20 22 L20 0 Z M79 788 L101 788 L151 896 L128 896 L90 811 L51 896 L29 896 L79 788 Z " />
<glyph glyph-name="zcaron" unicode="&#x17e;" horiz-adv-x="146" d="M15 0 L130 0 L130 22 L36 22 L131 520 L131 542 L20 542 L20 520 L110 520 L15 22 L15 0 Z M62 603 L84 603 L134 711 L111 711 L73 626 L34 711 L12 711 L62 603 Z " />
<glyph glyph-name="florin" unicode="&#x192;" horiz-adv-x="178" d="M31 420 L73 420 L46 -145 L69 -145 L96 420 L153 420 L153 442 L97 442 L107 656 C109 701 114 718 151 718 L153 718 L153 741 L150 741 C98 741 87 714 84 656 L74 442 L31 442 L31 420 Z " />
<glyph glyph-name="circumflex" unicode="&#x2c6;" horiz-adv-x="185" d="M31 603 L54 603 L92 688 L131 603 L153 603 L103 711 L81 711 L31 603 Z " />
<glyph glyph-name="caron" unicode="&#x2c7;" horiz-adv-x="185" d="M81 603 L103 603 L153 711 L130 711 L92 626 L53 711 L31 711 L81 603 Z " />
<glyph glyph-name="breve" unicode="&#x2d8;" horiz-adv-x="185" d="M92 601 C133 601 138 628 138 673 L115 673 C115 638 113 622 92 622 C72 622 70 638 70 673 L47 673 C47 628 51 601 92 601 L92 601 Z " />
<glyph glyph-name="dotaccent" unicode="&#x2d9;" horiz-adv-x="185" d="M81 603 L104 603 L104 683 L81 683 L81 603 Z " />
<glyph glyph-name="ring" unicode="&#x2da;" horiz-adv-x="185" d="M92 601 C128 601 131 627 131 668 C131 710 128 736 92 736 C56 736 53 710 53 668 C53 627 56 601 92 601 L92 601 Z M92 621 C77 621 74 629 74 668 C74 707 77 716 92 716 C107 716 110 707 110 668 C110 629 107 621 92 621 L92 621 Z " />
<glyph glyph-name="ogonek" unicode="&#x2db;" horiz-adv-x="185" d="M123 -155 L123 -133 L119 -133 C78 -133 69 -121 69 -87 C69 -60 79 -38 119 4 L92 4 C64 -26 46 -56 46 -87 C46 -133 63 -155 119 -155 L123 -155 Z " />
<glyph glyph-name="tilde" unicode="&#x2dc;" horiz-adv-x="185" d="M31 603 L53 603 C53 625 56 631 62 631 C75 631 100 602 123 602 C143 602 153 611 153 651 L131 651 C131 629 130 623 122 623 C109 623 84 652 61 652 C45 652 31 643 31 603 L31 603 Z " />
<glyph glyph-name="hungarumlaut" unicode="&#x2dd;" horiz-adv-x="185" d="M38 603 L61 603 L83 711 L57 711 L38 603 Z M119 603 L142 603 L164 711 L138 711 L119 603 Z " />
<glyph glyph-name="&amp;#x394;" unicode="&#x394;" horiz-adv-x="207" d="M11 520 L46 520 L46 0 L69 0 L69 520 L115 520 L115 542 L69 542 L69 671 C69 716 76 733 113 733 L115 733 L115 756 L112 756 C60 756 46 729 46 671 L46 542 L11 542 L11 520 Z M135 -145 C173 -145 176 -121 176 -95 L176 542 L153 542 L153 -96 C153 -115 152 -121 135 -122 L135 -145 Z M153 629 L176 629 L176 709 L153 709 L153 629 Z " />
<glyph glyph-name="&amp;#x2206;" unicode="&#x2206;" horiz-adv-x="207" d="M11 520 L46 520 L46 0 L69 0 L69 520 L115 520 L115 542 L69 542 L69 671 C69 716 76 733 113 733 L115 733 L115 756 L112 756 C60 756 46 729 46 671 L46 542 L11 542 L11 520 Z M135 -145 C173 -145 176 -121 176 -95 L176 542 L153 542 L153 -96 C153 -115 152 -121 135 -122 L135 -145 Z M153 629 L176 629 L176 709 L153 709 L153 629 Z " />
<glyph glyph-name="&amp;#x3a9;" unicode="&#x3a9;" horiz-adv-x="832" d="M126 120 C126 120 129 123 134 127 C79 193 46 278 46 371 C46 464 79 549 133 615 C129 619 126 621 126 621 C70 554 36 466 36 371 C36 275 70 187 126 120 L126 120 Z M228 211 C230 213 233 215 235 218 C201 259 181 313 181 371 C181 429 202 483 235 524 C232 526 230 529 227 531 C192 487 171 432 171 371 C171 310 193 254 228 211 L228 211 Z M264 243 C267 245 269 248 272 250 C245 283 229 325 229 371 C229 417 245 459 272 492 C269 494 267 497 264 499 C236 464 219 419 219 371 C219 322 236 278 264 243 L264 243 Z M316 289 C319 291 321 294 324 296 C308 317 298 343 298 371 C298 399 308 425 323 445 C321 448 318 450 316 452 C298 430 288 402 288 371 C288 340 298 312 316 289 L316 289 Z M349 320 C352 323 354 325 357 327 C348 340 343 355 343 371 C343 387 348 402 357 415 C354 417 352 420 349 422 C339 408 333 390 333 371 C333 352 339 334 349 320 L349 320 Z M378 346 C382 349 384 351 384 351 C381 357 379 364 379 371 C379 378 381 385 384 391 C384 391 382 393 378 396 C374 389 371 380 371 371 C371 362 374 353 378 346 L378 346 Z M416 60 C493 60 563 89 616 136 C614 139 611 141 609 144 C558 98 490 70 416 70 C342 70 274 98 222 144 C222 145 215 137 215 137 C268 89 338 60 416 60 L416 60 Z M416 324 C426 324 435 327 442 333 C439 337 437 339 437 339 C431 334 424 332 416 332 C408 332 401 335 395 339 C395 339 391 334 389 333 C397 327 406 324 416 324 L416 324 Z M482 319 C493 334 499 352 499 371 C499 390 493 408 482 422 C483 422 475 415 475 415 C484 403 489 388 489 371 C489 355 484 339 475 326 C478 324 480 322 482 319 L482 319 Z M292 269 C295 271 298 274 300 276 C280 302 267 335 267 371 C267 407 280 440 300 466 L293 473 C270 445 257 410 257 371 C257 333 270 297 292 269 L292 269 Z M416 -17 C512 -17 600 19 667 80 C667 80 660 88 660 87 C595 29 510 -7 416 -7 C322 -7 236 29 171 88 L164 80 C231 20 320 -17 416 -17 L416 -17 Z M416 121 C478 121 534 144 576 182 C574 185 571 187 569 190 C529 153 475 131 416 131 C357 131 303 153 262 190 L255 182 C298 144 354 121 416 121 L416 121 Z M416 170 C465 170 510 188 544 218 C542 221 539 223 537 226 C505 197 462 180 416 180 C369 180 327 197 294 226 L287 219 C322 189 367 170 416 170 L416 170 Z M416 209 C455 209 491 224 518 247 C516 250 514 253 512 255 C486 233 452 219 416 219 C380 219 346 233 320 255 L313 247 C341 224 377 209 416 209 L416 209 Z M416 265 C441 265 463 274 481 289 C479 292 476 294 474 297 C458 283 438 275 416 275 C394 275 373 283 357 297 L350 289 C368 274 391 265 416 265 L416 265 Z M358 445 C374 459 394 467 416 467 C438 467 458 459 474 445 L482 453 C464 468 441 477 416 477 C391 477 368 468 350 453 C351 452 354 448 358 445 L358 445 Z M570 552 C572 554 575 557 577 560 C534 598 478 621 416 621 C355 621 299 598 256 560 L263 553 C304 589 357 611 416 611 C475 611 529 589 570 552 L570 552 Z M454 346 C458 353 461 362 461 371 C461 380 458 389 454 396 L448 391 C451 385 453 378 453 371 C453 364 451 357 448 351 C448 351 450 349 454 346 L454 346 Z M468 333 C476 344 480 357 480 371 C480 385 476 398 468 409 L460 402 C466 393 470 382 470 371 C470 360 466 349 460 340 C463 338 465 336 468 333 L468 333 Z M498 306 C511 325 519 347 519 371 C519 395 511 418 497 436 L490 429 C502 413 509 393 509 371 C509 349 502 329 490 313 C492 311 495 308 498 306 L498 306 Z M540 269 C562 297 575 332 575 371 C575 410 562 445 539 473 L531 466 C552 440 565 407 565 371 C565 335 552 302 532 276 C535 274 537 271 540 269 L540 269 Z M568 243 C596 278 613 322 613 371 C613 420 596 464 568 499 L560 492 C587 459 603 417 603 371 C603 325 587 283 560 250 C563 248 566 245 568 243 L568 243 Z M604 211 C640 254 661 310 661 371 C661 432 640 488 604 531 L596 524 C631 483 651 429 651 371 C651 313 631 260 596 218 C601 213 604 211 604 211 L604 211 Z M649 171 C694 225 721 295 721 371 C721 447 694 517 649 571 L641 564 C685 512 711 445 711 371 C711 297 685 230 642 177 C644 175 647 173 649 171 L649 171 Z M706 120 C762 188 796 276 796 371 C796 467 762 555 706 622 L698 615 C753 549 786 464 786 371 C786 278 753 193 698 127 C703 123 706 120 706 120 L706 120 Z M183 170 L190 177 C147 229 121 297 121 371 C121 444 147 512 190 564 C187 567 184 569 182 571 C138 517 111 447 111 371 C111 294 138 225 183 170 L183 170 Z M334 306 L342 314 C330 330 323 350 323 371 C323 393 330 413 342 429 C340 431 337 434 334 436 C321 418 313 395 313 371 C313 346 321 324 334 306 L334 306 Z M364 333 L371 340 C366 349 362 360 362 371 C362 382 366 393 371 402 C369 404 366 406 364 409 C356 398 352 385 352 371 C352 357 356 344 364 333 L364 333 Z M395 403 C401 408 408 410 416 410 C424 410 431 407 437 403 C437 403 439 406 442 409 C435 415 426 418 416 418 C406 418 397 415 390 409 L395 403 Z M384 416 C393 423 404 428 416 428 C428 428 439 424 448 416 C450 419 452 421 454 423 C443 432 430 437 416 437 C401 437 388 432 377 423 L384 416 Z M371 430 C383 441 399 447 416 447 C433 447 449 441 461 430 C461 430 464 434 468 438 C454 450 436 457 416 457 C397 457 378 450 364 438 L371 430 Z M295 516 C327 545 370 562 416 562 C462 562 505 545 538 516 C538 516 545 523 544 523 C510 554 465 572 416 572 C367 572 322 554 288 524 L295 516 Z M416 240 C448 240 476 252 498 271 L491 278 C471 261 445 250 416 250 C388 250 361 261 340 278 L333 270 C355 251 384 240 416 240 L416 240 Z M416 285 C436 285 454 292 468 304 L461 312 C448 301 433 295 416 295 C399 295 383 302 370 312 L363 304 C378 292 396 285 416 285 L416 285 Z M416 305 C430 305 444 310 455 319 L448 326 C439 319 428 314 416 314 C404 314 393 319 383 326 L376 319 C388 310 401 305 416 305 L416 305 Z M341 464 C362 482 388 492 416 492 C445 492 471 481 491 464 L498 472 C476 491 447 502 416 502 C385 502 356 490 334 471 L341 464 Z M320 487 C346 509 380 523 416 523 C453 523 486 510 512 487 L518 494 C491 518 455 533 416 533 C377 533 341 519 313 495 L320 487 Z M610 597 L617 605 C563 653 493 682 416 682 C339 682 269 653 215 605 L222 598 C274 644 342 672 416 672 C491 672 559 644 610 597 L610 597 Z M172 654 C237 713 322 749 416 749 C510 749 596 713 661 654 L668 662 C601 722 512 759 416 759 C320 759 232 723 165 662 L172 654 Z M516 290 C534 312 544 340 544 371 C544 402 534 430 516 453 L508 446 C524 425 534 399 534 371 C534 343 524 317 509 297 L516 290 Z " />
<glyph glyph-name="&amp;#x2126;" unicode="&#x2126;" horiz-adv-x="832" d="M126 120 C126 120 129 123 134 127 C79 193 46 278 46 371 C46 464 79 549 133 615 C129 619 126 621 126 621 C70 554 36 466 36 371 C36 275 70 187 126 120 L126 120 Z M228 211 C230 213 233 215 235 218 C201 259 181 313 181 371 C181 429 202 483 235 524 C232 526 230 529 227 531 C192 487 171 432 171 371 C171 310 193 254 228 211 L228 211 Z M264 243 C267 245 269 248 272 250 C245 283 229 325 229 371 C229 417 245 459 272 492 C269 494 267 497 264 499 C236 464 219 419 219 371 C219 322 236 278 264 243 L264 243 Z M316 289 C319 291 321 294 324 296 C308 317 298 343 298 371 C298 399 308 425 323 445 C321 448 318 450 316 452 C298 430 288 402 288 371 C288 340 298 312 316 289 L316 289 Z M349 320 C352 323 354 325 357 327 C348 340 343 355 343 371 C343 387 348 402 357 415 C354 417 352 420 349 422 C339 408 333 390 333 371 C333 352 339 334 349 320 L349 320 Z M378 346 C382 349 384 351 384 351 C381 357 379 364 379 371 C379 378 381 385 384 391 C384 391 382 393 378 396 C374 389 371 380 371 371 C371 362 374 353 378 346 L378 346 Z M416 60 C493 60 563 89 616 136 C614 139 611 141 609 144 C558 98 490 70 416 70 C342 70 274 98 222 144 C222 145 215 137 215 137 C268 89 338 60 416 60 L416 60 Z M416 324 C426 324 435 327 442 333 C439 337 437 339 437 339 C431 334 424 332 416 332 C408 332 401 335 395 339 C395 339 391 334 389 333 C397 327 406 324 416 324 L416 324 Z M482 319 C493 334 499 352 499 371 C499 390 493 408 482 422 C483 422 475 415 475 415 C484 403 489 388 489 371 C489 355 484 339 475 326 C478 324 480 322 482 319 L482 319 Z M292 269 C295 271 298 274 300 276 C280 302 267 335 267 371 C267 407 280 440 300 466 L293 473 C270 445 257 410 257 371 C257 333 270 297 292 269 L292 269 Z M416 -17 C512 -17 600 19 667 80 C667 80 660 88 660 87 C595 29 510 -7 416 -7 C322 -7 236 29 171 88 L164 80 C231 20 320 -17 416 -17 L416 -17 Z M416 121 C478 121 534 144 576 182 C574 185 571 187 569 190 C529 153 475 131 416 131 C357 131 303 153 262 190 L255 182 C298 144 354 121 416 121 L416 121 Z M416 170 C465 170 510 188 544 218 C542 221 539 223 537 226 C505 197 462 180 416 180 C369 180 327 197 294 226 L287 219 C322 189 367 170 416 170 L416 170 Z M416 209 C455 209 491 224 518 247 C516 250 514 253 512 255 C486 233 452 219 416 219 C380 219 346 233 320 255 L313 247 C341 224 377 209 416 209 L416 209 Z M416 265 C441 265 463 274 481 289 C479 292 476 294 474 297 C458 283 438 275 416 275 C394 275 373 283 357 297 L350 289 C368 274 391 265 416 265 L416 265 Z M358 445 C374 459 394 467 416 467 C438 467 458 459 474 445 L482 453 C464 468 441 477 416 477 C391 477 368 468 350 453 C351 452 354 448 358 445 L358 445 Z M570 552 C572 554 575 557 577 560 C534 598 478 621 416 621 C355 621 299 598 256 560 L263 553 C304 589 357 611 416 611 C475 611 529 589 570 552 L570 552 Z M454 346 C458 353 461 362 461 371 C461 380 458 389 454 396 L448 391 C451 385 453 378 453 371 C453 364 451 357 448 351 C448 351 450 349 454 346 L454 346 Z M468 333 C476 344 480 357 480 371 C480 385 476 398 468 409 L460 402 C466 393 470 382 470 371 C470 360 466 349 460 340 C463 338 465 336 468 333 L468 333 Z M498 306 C511 325 519 347 519 371 C519 395 511 418 497 436 L490 429 C502 413 509 393 509 371 C509 349 502 329 490 313 C492 311 495 308 498 306 L498 306 Z M540 269 C562 297 575 332 575 371 C575 410 562 445 539 473 L531 466 C552 440 565 407 565 371 C565 335 552 302 532 276 C535 274 537 271 540 269 L540 269 Z M568 243 C596 278 613 322 613 371 C613 420 596 464 568 499 L560 492 C587 459 603 417 603 371 C603 325 587 283 560 250 C563 248 566 245 568 243 L568 243 Z M604 211 C640 254 661 310 661 371 C661 432 640 488 604 531 L596 524 C631 483 651 429 651 371 C651 313 631 260 596 218 C601 213 604 211 604 211 L604 211 Z M649 171 C694 225 721 295 721 371 C721 447 694 517 649 571 L641 564 C685 512 711 445 711 371 C711 297 685 230 642 177 C644 175 647 173 649 171 L649 171 Z M706 120 C762 188 796 276 796 371 C796 467 762 555 706 622 L698 615 C753 549 786 464 786 371 C786 278 753 193 698 127 C703 123 706 120 706 120 L706 120 Z M183 170 L190 177 C147 229 121 297 121 371 C121 444 147 512 190 564 C187 567 184 569 182 571 C138 517 111 447 111 371 C111 294 138 225 183 170 L183 170 Z M334 306 L342 314 C330 330 323 350 323 371 C323 393 330 413 342 429 C340 431 337 434 334 436 C321 418 313 395 313 371 C313 346 321 324 334 306 L334 306 Z M364 333 L371 340 C366 349 362 360 362 371 C362 382 366 393 371 402 C369 404 366 406 364 409 C356 398 352 385 352 371 C352 357 356 344 364 333 L364 333 Z M395 403 C401 408 408 410 416 410 C424 410 431 407 437 403 C437 403 439 406 442 409 C435 415 426 418 416 418 C406 418 397 415 390 409 L395 403 Z M384 416 C393 423 404 428 416 428 C428 428 439 424 448 416 C450 419 452 421 454 423 C443 432 430 437 416 437 C401 437 388 432 377 423 L384 416 Z M371 430 C383 441 399 447 416 447 C433 447 449 441 461 430 C461 430 464 434 468 438 C454 450 436 457 416 457 C397 457 378 450 364 438 L371 430 Z M295 516 C327 545 370 562 416 562 C462 562 505 545 538 516 C538 516 545 523 544 523 C510 554 465 572 416 572 C367 572 322 554 288 524 L295 516 Z M416 240 C448 240 476 252 498 271 L491 278 C471 261 445 250 416 250 C388 250 361 261 340 278 L333 270 C355 251 384 240 416 240 L416 240 Z M416 285 C436 285 454 292 468 304 L461 312 C448 301 433 295 416 295 C399 295 383 302 370 312 L363 304 C378 292 396 285 416 285 L416 285 Z M416 305 C430 305 444 310 455 319 L448 326 C439 319 428 314 416 314 C404 314 393 319 383 326 L376 319 C388 310 401 305 416 305 L416 305 Z M341 464 C362 482 388 492 416 492 C445 492 471 481 491 464 L498 472 C476 491 447 502 416 502 C385 502 356 490 334 471 L341 464 Z M320 487 C346 509 380 523 416 523 C453 523 486 510 512 487 L518 494 C491 518 455 533 416 533 C377 533 341 519 313 495 L320 487 Z M610 597 L617 605 C563 653 493 682 416 682 C339 682 269 653 215 605 L222 598 C274 644 342 672 416 672 C491 672 559 644 610 597 L610 597 Z M172 654 C237 713 322 749 416 749 C510 749 596 713 661 654 L668 662 C601 722 512 759 416 759 C320 759 232 723 165 662 L172 654 Z M516 290 C534 312 544 340 544 371 C544 402 534 430 516 453 L508 446 C524 425 534 399 534 371 C534 343 524 317 509 297 L516 290 Z " />
<glyph glyph-name="pi" unicode="&#x3c0;" horiz-adv-x="248" d="M129 -4 C156 -4 176 1 192 16 C232 53 241 147 241 371 C241 583 233 677 198 718 C182 737 159 744 129 744 C99 744 76 737 60 718 C25 677 17 583 17 371 C17 145 26 51 67 15 C83 1 103 -4 129 -4 L129 -4 Z M129 17 C53 17 39 76 39 371 C39 666 53 723 129 723 C205 723 219 666 219 371 C219 76 205 17 129 17 L129 17 Z M82 119 L105 119 L105 335 L127 335 C182 335 184 378 184 474 C184 570 182 612 127 612 L82 612 L82 119 Z M105 358 L105 590 L127 590 C161 590 162 556 162 474 C162 391 161 358 127 358 L105 358 Z " />
<glyph glyph-name="endash" unicode="&#x2013;" horiz-adv-x="208" d="M19 283 L190 283 L190 305 L19 305 L19 283 Z " />
<glyph glyph-name="emdash" unicode="&#x2014;" horiz-adv-x="278" d="M19 283 L259 283 L259 305 L19 305 L19 283 Z " />
<glyph glyph-name="quoteleft" unicode="&#x2018;" horiz-adv-x="80" d="M26 620 L54 620 L54 690 L42 690 C42 720 44 720 55 724 L50 741 C29 735 26 726 26 690 L26 620 Z " />
<glyph glyph-name="quoteright" unicode="&#x2019;" horiz-adv-x="80" d="M30 620 C51 626 54 635 54 671 L54 741 L26 741 L26 671 L38 671 C38 641 36 641 25 637 L30 620 Z " />
<glyph glyph-name="quotesinglbase" unicode="&#x201a;" horiz-adv-x="80" d="M30 -51 C51 -45 54 -36 54 0 L54 70 L26 70 L26 0 L38 0 C38 -30 36 -30 25 -34 L30 -51 Z " />
<glyph glyph-name="quotedblleft" unicode="&#x201c;" horiz-adv-x="136" d="M26 620 L54 620 L54 690 L42 690 C42 720 44 720 55 724 L50 741 C29 735 26 726 26 690 L26 620 Z M80 620 L108 620 L108 690 L96 690 C96 720 98 720 109 724 L104 741 C83 735 80 726 80 690 L80 620 Z " />
<glyph glyph-name="quotedblright" unicode="&#x201d;" horiz-adv-x="134" d="M30 620 C51 626 54 635 54 671 L54 741 L26 741 L26 671 L38 671 C38 641 36 641 25 637 L30 620 Z M84 620 C105 626 108 635 108 671 L108 741 L80 741 L80 671 L92 671 C92 641 90 641 79 637 L84 620 Z " />
<glyph glyph-name="quotedblbase" unicode="&#x201e;" horiz-adv-x="134" d="M30 -51 C51 -45 54 -36 54 0 L54 70 L26 70 L26 0 L38 0 C38 -30 36 -30 25 -34 L30 -51 Z M84 -51 C105 -45 108 -36 108 0 L108 70 L80 70 L80 0 L92 0 C92 -30 90 -30 79 -34 L84 -51 Z " />
<glyph glyph-name="dagger" unicode="&#x2020;" horiz-adv-x="175" d="M22 520 L76 520 L76 -146 L99 -146 L99 520 L153 520 L153 542 L99 542 L99 756 L76 756 L76 542 L22 542 L22 520 Z " />
<glyph glyph-name="daggerdbl" unicode="&#x2021;" horiz-adv-x="174" d="M76 -145 L99 -145 L99 68 L153 68 L153 90 L99 90 L99 520 L153 520 L153 542 L99 542 L99 756 L76 756 L76 542 L22 542 L22 520 L76 520 L76 90 L22 90 L22 68 L76 68 L76 -145 Z " />
<glyph glyph-name="bullet" unicode="&#x2022;" horiz-adv-x="116" d="M35 248 L81 248 L81 360 L35 360 L35 248 Z " />
<glyph glyph-name="ellipsis" unicode="&#x2026;" horiz-adv-x="214" d="M26 0 L54 0 L54 60 L26 60 L26 0 Z M96 0 L124 0 L124 60 L96 60 L96 0 Z M160 0 L188 0 L188 60 L160 60 L160 0 Z " />
<glyph glyph-name="perthousand" unicode="&#x2030;" horiz-adv-x="428" d="M68 300 C83 300 94 304 103 316 C119 339 119 379 119 524 C119 668 119 707 103 729 C94 740 83 744 68 744 C53 744 43 740 33 729 C17 706 17 668 17 524 C17 379 17 338 33 316 C42 304 53 300 68 300 L68 300 Z M234 -4 C249 -4 260 0 269 12 C285 35 285 75 285 220 C285 364 285 403 269 425 C260 436 249 440 234 440 C219 440 209 436 199 425 C183 402 183 364 183 220 C183 75 183 34 199 12 C208 0 219 -4 234 -4 L234 -4 Z M360 -4 C375 -4 386 0 395 12 C411 35 411 75 411 220 C411 364 411 403 395 425 C386 436 375 440 360 440 C345 440 335 436 325 425 C309 402 309 364 309 220 C309 75 309 34 325 12 C334 0 345 -4 360 -4 L360 -4 Z M68 322 C40 322 40 354 40 524 C40 694 40 722 68 722 C95 722 96 694 96 524 C96 354 96 322 68 322 L68 322 Z M234 18 C206 18 206 50 206 220 C206 390 206 418 234 418 C261 418 262 390 262 220 C262 50 262 18 234 18 L234 18 Z M360 18 C332 18 332 50 332 220 C332 390 332 418 360 418 C387 418 388 390 388 220 C388 50 388 18 360 18 L360 18 Z M88 0 L111 0 L214 741 L191 741 L88 0 Z " />
<glyph glyph-name="guilsinglleft" unicode="&#x2039;" horiz-adv-x="142" d="M83 0 L105 0 L59 271 L105 542 L83 542 L37 271 L83 0 Z " />
<glyph glyph-name="guilsinglright" unicode="&#x203a;" horiz-adv-x="142" d="M37 0 L59 0 L105 271 L59 542 L37 542 L83 271 L37 0 Z " />
<glyph glyph-name="&amp;#x2044;" unicode="&#x2044;" horiz-adv-x="155" d="M0 0 L22 0 L155 741 L133 741 L0 0 Z " />
<glyph glyph-name="&amp;#x2215;" unicode="&#x2215;" horiz-adv-x="155" d="M0 0 L22 0 L155 741 L133 741 L0 0 Z " />
<glyph glyph-name="Euro" unicode="&#x20ac;" horiz-adv-x="192" d="M12 395 L49 395 L49 343 L12 343 L12 322 L49 322 C49 117 49 68 69 29 C84 -1 107 -4 132 -4 C150 -4 158 -2 170 2 L164 22 C153 19 146 18 132 18 C78 18 72 50 72 322 L152 322 L152 343 L72 343 L72 395 L152 395 L152 416 L72 416 C72 680 75 722 133 722 C148 722 156 721 166 720 L170 741 C159 743 150 744 133 744 C113 744 86 742 69 711 C50 676 49 626 49 416 L12 416 L12 395 Z " />
<glyph glyph-name="trademark" unicode="&#x2122;" horiz-adv-x="301" d="M59 332 L81 332 L81 720 L117 720 L117 741 L23 741 L23 720 L59 720 L59 332 Z M127 332 L147 332 L147 676 L155 572 L183 332 L203 332 L230 571 L239 675 L239 332 L259 332 L259 741 L230 741 L199 466 L193 391 L187 467 L156 741 L127 741 L127 332 Z " />
<glyph glyph-name="partialdiff" unicode="&#x2202;" horiz-adv-x="832" d="M126 120 C126 120 129 123 134 127 C79 193 46 278 46 371 C46 464 79 549 133 615 C129 619 126 621 126 621 C70 554 36 466 36 371 C36 275 70 187 126 120 L126 120 Z M228 211 C230 213 233 215 235 218 C201 259 181 313 181 371 C181 429 202 483 235 524 C232 526 230 529 227 531 C192 487 171 432 171 371 C171 310 193 254 228 211 L228 211 Z M264 243 C267 245 269 248 272 250 C245 283 229 325 229 371 C229 417 245 459 272 492 C269 494 267 497 264 499 C236 464 219 419 219 371 C219 322 236 278 264 243 L264 243 Z M316 289 C319 291 321 294 324 296 C308 317 298 343 298 371 C298 399 308 425 323 445 C321 448 318 450 316 452 C298 430 288 402 288 371 C288 340 298 312 316 289 L316 289 Z M349 320 C352 323 354 325 357 327 C348 340 343 355 343 371 C343 387 348 402 357 415 C354 417 352 420 349 422 C339 408 333 390 333 371 C333 352 339 334 349 320 L349 320 Z M378 346 C382 349 384 351 384 351 C381 357 379 364 379 371 C379 378 381 385 384 391 C384 391 382 393 378 396 C374 389 371 380 371 371 C371 362 374 353 378 346 L378 346 Z M416 60 C493 60 563 89 616 136 C614 139 611 141 609 144 C558 98 490 70 416 70 C342 70 274 98 222 144 C222 145 215 137 215 137 C268 89 338 60 416 60 L416 60 Z M416 324 C426 324 435 327 442 333 C439 337 437 339 437 339 C431 334 424 332 416 332 C408 332 401 335 395 339 C395 339 391 334 389 333 C397 327 406 324 416 324 L416 324 Z M482 319 C493 334 499 352 499 371 C499 390 493 408 482 422 C483 422 475 415 475 415 C484 403 489 388 489 371 C489 355 484 339 475 326 C478 324 480 322 482 319 L482 319 Z M292 269 C295 271 298 274 300 276 C280 302 267 335 267 371 C267 407 280 440 300 466 L293 473 C270 445 257 410 257 371 C257 333 270 297 292 269 L292 269 Z M416 -17 C512 -17 600 19 667 80 C667 80 660 88 660 87 C595 29 510 -7 416 -7 C322 -7 236 29 171 88 L164 80 C231 20 320 -17 416 -17 L416 -17 Z M416 121 C478 121 534 144 576 182 C574 185 571 187 569 190 C529 153 475 131 416 131 C357 131 303 153 262 190 L255 182 C298 144 354 121 416 121 L416 121 Z M416 170 C465 170 510 188 544 218 C542 221 539 223 537 226 C505 197 462 180 416 180 C369 180 327 197 294 226 L287 219 C322 189 367 170 416 170 L416 170 Z M416 209 C455 209 491 224 518 247 C516 250 514 253 512 255 C486 233 452 219 416 219 C380 219 346 233 320 255 L313 247 C341 224 377 209 416 209 L416 209 Z M416 265 C441 265 463 274 481 289 C479 292 476 294 474 297 C458 283 438 275 416 275 C394 275 373 283 357 297 L350 289 C368 274 391 265 416 265 L416 265 Z M358 445 C374 459 394 467 416 467 C438 467 458 459 474 445 L482 453 C464 468 441 477 416 477 C391 477 368 468 350 453 C351 452 354 448 358 445 L358 445 Z M570 552 C572 554 575 557 577 560 C534 598 478 621 416 621 C355 621 299 598 256 560 L263 553 C304 589 357 611 416 611 C475 611 529 589 570 552 L570 552 Z M454 346 C458 353 461 362 461 371 C461 380 458 389 454 396 L448 391 C451 385 453 378 453 371 C453 364 451 357 448 351 C448 351 450 349 454 346 L454 346 Z M468 333 C476 344 480 357 480 371 C480 385 476 398 468 409 L460 402 C466 393 470 382 470 371 C470 360 466 349 460 340 C463 338 465 336 468 333 L468 333 Z M498 306 C511 325 519 347 519 371 C519 395 511 418 497 436 L490 429 C502 413 509 393 509 371 C509 349 502 329 490 313 C492 311 495 308 498 306 L498 306 Z M540 269 C562 297 575 332 575 371 C575 410 562 445 539 473 L531 466 C552 440 565 407 565 371 C565 335 552 302 532 276 C535 274 537 271 540 269 L540 269 Z M568 243 C596 278 613 322 613 371 C613 420 596 464 568 499 L560 492 C587 459 603 417 603 371 C603 325 587 283 560 250 C563 248 566 245 568 243 L568 243 Z M604 211 C640 254 661 310 661 371 C661 432 640 488 604 531 L596 524 C631 483 651 429 651 371 C651 313 631 260 596 218 C601 213 604 211 604 211 L604 211 Z M649 171 C694 225 721 295 721 371 C721 447 694 517 649 571 L641 564 C685 512 711 445 711 371 C711 297 685 230 642 177 C644 175 647 173 649 171 L649 171 Z M706 120 C762 188 796 276 796 371 C796 467 762 555 706 622 L698 615 C753 549 786 464 786 371 C786 278 753 193 698 127 C703 123 706 120 706 120 L706 120 Z M183 170 L190 177 C147 229 121 297 121 371 C121 444 147 512 190 564 C187 567 184 569 182 571 C138 517 111 447 111 371 C111 294 138 225 183 170 L183 170 Z M334 306 L342 314 C330 330 323 350 323 371 C323 393 330 413 342 429 C340 431 337 434 334 436 C321 418 313 395 313 371 C313 346 321 324 334 306 L334 306 Z M364 333 L371 340 C366 349 362 360 362 371 C362 382 366 393 371 402 C369 404 366 406 364 409 C356 398 352 385 352 371 C352 357 356 344 364 333 L364 333 Z M395 403 C401 408 408 410 416 410 C424 410 431 407 437 403 C437 403 439 406 442 409 C435 415 426 418 416 418 C406 418 397 415 390 409 L395 403 Z M384 416 C393 423 404 428 416 428 C428 428 439 424 448 416 C450 419 452 421 454 423 C443 432 430 437 416 437 C401 437 388 432 377 423 L384 416 Z M371 430 C383 441 399 447 416 447 C433 447 449 441 461 430 C461 430 464 434 468 438 C454 450 436 457 416 457 C397 457 378 450 364 438 L371 430 Z M295 516 C327 545 370 562 416 562 C462 562 505 545 538 516 C538 516 545 523 544 523 C510 554 465 572 416 572 C367 572 322 554 288 524 L295 516 Z M416 240 C448 240 476 252 498 271 L491 278 C471 261 445 250 416 250 C388 250 361 261 340 278 L333 270 C355 251 384 240 416 240 L416 240 Z M416 285 C436 285 454 292 468 304 L461 312 C448 301 433 295 416 295 C399 295 383 302 370 312 L363 304 C378 292 396 285 416 285 L416 285 Z M416 305 C430 305 444 310 455 319 L448 326 C439 319 428 314 416 314 C404 314 393 319 383 326 L376 319 C388 310 401 305 416 305 L416 305 Z M341 464 C362 482 388 492 416 492 C445 492 471 481 491 464 L498 472 C476 491 447 502 416 502 C385 502 356 490 334 471 L341 464 Z M320 487 C346 509 380 523 416 523 C453 523 486 510 512 487 L518 494 C491 518 455 533 416 533 C377 533 341 519 313 495 L320 487 Z M610 597 L617 605 C563 653 493 682 416 682 C339 682 269 653 215 605 L222 598 C274 644 342 672 416 672 C491 672 559 644 610 597 L610 597 Z M172 654 C237 713 322 749 416 749 C510 749 596 713 661 654 L668 662 C601 722 512 759 416 759 C320 759 232 723 165 662 L172 654 Z M516 290 C534 312 544 340 544 371 C544 402 534 430 516 453 L508 446 C524 425 534 399 534 371 C534 343 524 317 509 297 L516 290 Z " />
<glyph glyph-name="product" unicode="&#x220f;" horiz-adv-x="832" d="M126 120 C126 120 129 123 134 127 C79 193 46 278 46 371 C46 464 79 549 133 615 C129 619 126 621 126 621 C70 554 36 466 36 371 C36 275 70 187 126 120 L126 120 Z M228 211 C230 213 233 215 235 218 C201 259 181 313 181 371 C181 429 202 483 235 524 C232 526 230 529 227 531 C192 487 171 432 171 371 C171 310 193 254 228 211 L228 211 Z M264 243 C267 245 269 248 272 250 C245 283 229 325 229 371 C229 417 245 459 272 492 C269 494 267 497 264 499 C236 464 219 419 219 371 C219 322 236 278 264 243 L264 243 Z M316 289 C319 291 321 294 324 296 C308 317 298 343 298 371 C298 399 308 425 323 445 C321 448 318 450 316 452 C298 430 288 402 288 371 C288 340 298 312 316 289 L316 289 Z M349 320 C352 323 354 325 357 327 C348 340 343 355 343 371 C343 387 348 402 357 415 C354 417 352 420 349 422 C339 408 333 390 333 371 C333 352 339 334 349 320 L349 320 Z M378 346 C382 349 384 351 384 351 C381 357 379 364 379 371 C379 378 381 385 384 391 C384 391 382 393 378 396 C374 389 371 380 371 371 C371 362 374 353 378 346 L378 346 Z M416 60 C493 60 563 89 616 136 C614 139 611 141 609 144 C558 98 490 70 416 70 C342 70 274 98 222 144 C222 145 215 137 215 137 C268 89 338 60 416 60 L416 60 Z M416 324 C426 324 435 327 442 333 C439 337 437 339 437 339 C431 334 424 332 416 332 C408 332 401 335 395 339 C395 339 391 334 389 333 C397 327 406 324 416 324 L416 324 Z M482 319 C493 334 499 352 499 371 C499 390 493 408 482 422 C483 422 475 415 475 415 C484 403 489 388 489 371 C489 355 484 339 475 326 C478 324 480 322 482 319 L482 319 Z M292 269 C295 271 298 274 300 276 C280 302 267 335 267 371 C267 407 280 440 300 466 L293 473 C270 445 257 410 257 371 C257 333 270 297 292 269 L292 269 Z M416 -17 C512 -17 600 19 667 80 C667 80 660 88 660 87 C595 29 510 -7 416 -7 C322 -7 236 29 171 88 L164 80 C231 20 320 -17 416 -17 L416 -17 Z M416 121 C478 121 534 144 576 182 C574 185 571 187 569 190 C529 153 475 131 416 131 C357 131 303 153 262 190 L255 182 C298 144 354 121 416 121 L416 121 Z M416 170 C465 170 510 188 544 218 C542 221 539 223 537 226 C505 197 462 180 416 180 C369 180 327 197 294 226 L287 219 C322 189 367 170 416 170 L416 170 Z M416 209 C455 209 491 224 518 247 C516 250 514 253 512 255 C486 233 452 219 416 219 C380 219 346 233 320 255 L313 247 C341 224 377 209 416 209 L416 209 Z M416 265 C441 265 463 274 481 289 C479 292 476 294 474 297 C458 283 438 275 416 275 C394 275 373 283 357 297 L350 289 C368 274 391 265 416 265 L416 265 Z M358 445 C374 459 394 467 416 467 C438 467 458 459 474 445 L482 453 C464 468 441 477 416 477 C391 477 368 468 350 453 C351 452 354 448 358 445 L358 445 Z M570 552 C572 554 575 557 577 560 C534 598 478 621 416 621 C355 621 299 598 256 560 L263 553 C304 589 357 611 416 611 C475 611 529 589 570 552 L570 552 Z M454 346 C458 353 461 362 461 371 C461 380 458 389 454 396 L448 391 C451 385 453 378 453 371 C453 364 451 357 448 351 C448 351 450 349 454 346 L454 346 Z M468 333 C476 344 480 357 480 371 C480 385 476 398 468 409 L460 402 C466 393 470 382 470 371 C470 360 466 349 460 340 C463 338 465 336 468 333 L468 333 Z M498 306 C511 325 519 347 519 371 C519 395 511 418 497 436 L490 429 C502 413 509 393 509 371 C509 349 502 329 490 313 C492 311 495 308 498 306 L498 306 Z M540 269 C562 297 575 332 575 371 C575 410 562 445 539 473 L531 466 C552 440 565 407 565 371 C565 335 552 302 532 276 C535 274 537 271 540 269 L540 269 Z M568 243 C596 278 613 322 613 371 C613 420 596 464 568 499 L560 492 C587 459 603 417 603 371 C603 325 587 283 560 250 C563 248 566 245 568 243 L568 243 Z M604 211 C640 254 661 310 661 371 C661 432 640 488 604 531 L596 524 C631 483 651 429 651 371 C651 313 631 260 596 218 C601 213 604 211 604 211 L604 211 Z M649 171 C694 225 721 295 721 371 C721 447 694 517 649 571 L641 564 C685 512 711 445 711 371 C711 297 685 230 642 177 C644 175 647 173 649 171 L649 171 Z M706 120 C762 188 796 276 796 371 C796 467 762 555 706 622 L698 615 C753 549 786 464 786 371 C786 278 753 193 698 127 C703 123 706 120 706 120 L706 120 Z M183 170 L190 177 C147 229 121 297 121 371 C121 444 147 512 190 564 C187 567 184 569 182 571 C138 517 111 447 111 371 C111 294 138 225 183 170 L183 170 Z M334 306 L342 314 C330 330 323 350 323 371 C323 393 330 413 342 429 C340 431 337 434 334 436 C321 418 313 395 313 371 C313 346 321 324 334 306 L334 306 Z M364 333 L371 340 C366 349 362 360 362 371 C362 382 366 393 371 402 C369 404 366 406 364 409 C356 398 352 385 352 371 C352 357 356 344 364 333 L364 333 Z M395 403 C401 408 408 410 416 410 C424 410 431 407 437 403 C437 403 439 406 442 409 C435 415 426 418 416 418 C406 418 397 415 390 409 L395 403 Z M384 416 C393 423 404 428 416 428 C428 428 439 424 448 416 C450 419 452 421 454 423 C443 432 430 437 416 437 C401 437 388 432 377 423 L384 416 Z M371 430 C383 441 399 447 416 447 C433 447 449 441 461 430 C461 430 464 434 468 438 C454 450 436 457 416 457 C397 457 378 450 364 438 L371 430 Z M295 516 C327 545 370 562 416 562 C462 562 505 545 538 516 C538 516 545 523 544 523 C510 554 465 572 416 572 C367 572 322 554 288 524 L295 516 Z M416 240 C448 240 476 252 498 271 L491 278 C471 261 445 250 416 250 C388 250 361 261 340 278 L333 270 C355 251 384 240 416 240 L416 240 Z M416 285 C436 285 454 292 468 304 L461 312 C448 301 433 295 416 295 C399 295 383 302 370 312 L363 304 C378 292 396 285 416 285 L416 285 Z M416 305 C430 305 444 310 455 319 L448 326 C439 319 428 314 416 314 C404 314 393 319 383 326 L376 319 C388 310 401 305 416 305 L416 305 Z M341 464 C362 482 388 492 416 492 C445 492 471 481 491 464 L498 472 C476 491 447 502 416 502 C385 502 356 490 334 471 L341 464 Z M320 487 C346 509 380 523 416 523 C453 523 486 510 512 487 L518 494 C491 518 455 533 416 533 C377 533 341 519 313 495 L320 487 Z M610 597 L617 605 C563 653 493 682 416 682 C339 682 269 653 215 605 L222 598 C274 644 342 672 416 672 C491 672 559 644 610 597 L610 597 Z M172 654 C237 713 322 749 416 749 C510 749 596 713 661 654 L668 662 C601 722 512 759 416 759 C320 759 232 723 165 662 L172 654 Z M516 290 C534 312 544 340 544 371 C544 402 534 430 516 453 L508 446 C524 425 534 399 534 371 C534 343 524 317 509 297 L516 290 Z " />
<glyph glyph-name="summation" unicode="&#x2211;" horiz-adv-x="832" d="M126 120 C126 120 129 123 134 127 C79 193 46 278 46 371 C46 464 79 549 133 615 C129 619 126 621 126 621 C70 554 36 466 36 371 C36 275 70 187 126 120 L126 120 Z M228 211 C230 213 233 215 235 218 C201 259 181 313 181 371 C181 429 202 483 235 524 C232 526 230 529 227 531 C192 487 171 432 171 371 C171 310 193 254 228 211 L228 211 Z M264 243 C267 245 269 248 272 250 C245 283 229 325 229 371 C229 417 245 459 272 492 C269 494 267 497 264 499 C236 464 219 419 219 371 C219 322 236 278 264 243 L264 243 Z M316 289 C319 291 321 294 324 296 C308 317 298 343 298 371 C298 399 308 425 323 445 C321 448 318 450 316 452 C298 430 288 402 288 371 C288 340 298 312 316 289 L316 289 Z M349 320 C352 323 354 325 357 327 C348 340 343 355 343 371 C343 387 348 402 357 415 C354 417 352 420 349 422 C339 408 333 390 333 371 C333 352 339 334 349 320 L349 320 Z M378 346 C382 349 384 351 384 351 C381 357 379 364 379 371 C379 378 381 385 384 391 C384 391 382 393 378 396 C374 389 371 380 371 371 C371 362 374 353 378 346 L378 346 Z M416 60 C493 60 563 89 616 136 C614 139 611 141 609 144 C558 98 490 70 416 70 C342 70 274 98 222 144 C222 145 215 137 215 137 C268 89 338 60 416 60 L416 60 Z M416 324 C426 324 435 327 442 333 C439 337 437 339 437 339 C431 334 424 332 416 332 C408 332 401 335 395 339 C395 339 391 334 389 333 C397 327 406 324 416 324 L416 324 Z M482 319 C493 334 499 352 499 371 C499 390 493 408 482 422 C483 422 475 415 475 415 C484 403 489 388 489 371 C489 355 484 339 475 326 C478 324 480 322 482 319 L482 319 Z M292 269 C295 271 298 274 300 276 C280 302 267 335 267 371 C267 407 280 440 300 466 L293 473 C270 445 257 410 257 371 C257 333 270 297 292 269 L292 269 Z M416 -17 C512 -17 600 19 667 80 C667 80 660 88 660 87 C595 29 510 -7 416 -7 C322 -7 236 29 171 88 L164 80 C231 20 320 -17 416 -17 L416 -17 Z M416 121 C478 121 534 144 576 182 C574 185 571 187 569 190 C529 153 475 131 416 131 C357 131 303 153 262 190 L255 182 C298 144 354 121 416 121 L416 121 Z M416 170 C465 170 510 188 544 218 C542 221 539 223 537 226 C505 197 462 180 416 180 C369 180 327 197 294 226 L287 219 C322 189 367 170 416 170 L416 170 Z M416 209 C455 209 491 224 518 247 C516 250 514 253 512 255 C486 233 452 219 416 219 C380 219 346 233 320 255 L313 247 C341 224 377 209 416 209 L416 209 Z M416 265 C441 265 463 274 481 289 C479 292 476 294 474 297 C458 283 438 275 416 275 C394 275 373 283 357 297 L350 289 C368 274 391 265 416 265 L416 265 Z M358 445 C374 459 394 467 416 467 C438 467 458 459 474 445 L482 453 C464 468 441 477 416 477 C391 477 368 468 350 453 C351 452 354 448 358 445 L358 445 Z M570 552 C572 554 575 557 577 560 C534 598 478 621 416 621 C355 621 299 598 256 560 L263 553 C304 589 357 611 416 611 C475 611 529 589 570 552 L570 552 Z M454 346 C458 353 461 362 461 371 C461 380 458 389 454 396 L448 391 C451 385 453 378 453 371 C453 364 451 357 448 351 C448 351 450 349 454 346 L454 346 Z M468 333 C476 344 480 357 480 371 C480 385 476 398 468 409 L460 402 C466 393 470 382 470 371 C470 360 466 349 460 340 C463 338 465 336 468 333 L468 333 Z M498 306 C511 325 519 347 519 371 C519 395 511 418 497 436 L490 429 C502 413 509 393 509 371 C509 349 502 329 490 313 C492 311 495 308 498 306 L498 306 Z M540 269 C562 297 575 332 575 371 C575 410 562 445 539 473 L531 466 C552 440 565 407 565 371 C565 335 552 302 532 276 C535 274 537 271 540 269 L540 269 Z M568 243 C596 278 613 322 613 371 C613 420 596 464 568 499 L560 492 C587 459 603 417 603 371 C603 325 587 283 560 250 C563 248 566 245 568 243 L568 243 Z M604 211 C640 254 661 310 661 371 C661 432 640 488 604 531 L596 524 C631 483 651 429 651 371 C651 313 631 260 596 218 C601 213 604 211 604 211 L604 211 Z M649 171 C694 225 721 295 721 371 C721 447 694 517 649 571 L641 564 C685 512 711 445 711 371 C711 297 685 230 642 177 C644 175 647 173 649 171 L649 171 Z M706 120 C762 188 796 276 796 371 C796 467 762 555 706 622 L698 615 C753 549 786 464 786 371 C786 278 753 193 698 127 C703 123 706 120 706 120 L706 120 Z M183 170 L190 177 C147 229 121 297 121 371 C121 444 147 512 190 564 C187 567 184 569 182 571 C138 517 111 447 111 371 C111 294 138 225 183 170 L183 170 Z M334 306 L342 314 C330 330 323 350 323 371 C323 393 330 413 342 429 C340 431 337 434 334 436 C321 418 313 395 313 371 C313 346 321 324 334 306 L334 306 Z M364 333 L371 340 C366 349 362 360 362 371 C362 382 366 393 371 402 C369 404 366 406 364 409 C356 398 352 385 352 371 C352 357 356 344 364 333 L364 333 Z M395 403 C401 408 408 410 416 410 C424 410 431 407 437 403 C437 403 439 406 442 409 C435 415 426 418 416 418 C406 418 397 415 390 409 L395 403 Z M384 416 C393 423 404 428 416 428 C428 428 439 424 448 416 C450 419 452 421 454 423 C443 432 430 437 416 437 C401 437 388 432 377 423 L384 416 Z M371 430 C383 441 399 447 416 447 C433 447 449 441 461 430 C461 430 464 434 468 438 C454 450 436 457 416 457 C397 457 378 450 364 438 L371 430 Z M295 516 C327 545 370 562 416 562 C462 562 505 545 538 516 C538 516 545 523 544 523 C510 554 465 572 416 572 C367 572 322 554 288 524 L295 516 Z M416 240 C448 240 476 252 498 271 L491 278 C471 261 445 250 416 250 C388 250 361 261 340 278 L333 270 C355 251 384 240 416 240 L416 240 Z M416 285 C436 285 454 292 468 304 L461 312 C448 301 433 295 416 295 C399 295 383 302 370 312 L363 304 C378 292 396 285 416 285 L416 285 Z M416 305 C430 305 444 310 455 319 L448 326 C439 319 428 314 416 314 C404 314 393 319 383 326 L376 319 C388 310 401 305 416 305 L416 305 Z M341 464 C362 482 388 492 416 492 C445 492 471 481 491 464 L498 472 C476 491 447 502 416 502 C385 502 356 490 334 471 L341 464 Z M320 487 C346 509 380 523 416 523 C453 523 486 510 512 487 L518 494 C491 518 455 533 416 533 C377 533 341 519 313 495 L320 487 Z M610 597 L617 605 C563 653 493 682 416 682 C339 682 269 653 215 605 L222 598 C274 644 342 672 416 672 C491 672 559 644 610 597 L610 597 Z M172 654 C237 713 322 749 416 749 C510 749 596 713 661 654 L668 662 C601 722 512 759 416 759 C320 759 232 723 165 662 L172 654 Z M516 290 C534 312 544 340 544 371 C544 402 534 430 516 453 L508 446 C524 425 534 399 534 371 C534 343 524 317 509 297 L516 290 Z " />
<glyph glyph-name="minus" unicode="&#x2212;" horiz-adv-x="200" d="M37 358 L163 358 L163 379 L37 379 L37 358 Z " />
<glyph glyph-name="radical" unicode="&#x221a;" horiz-adv-x="175" d="M65 -1 L89 -1 L167 741 L147 741 L77 71 L44 390 L23 390 L65 -1 Z " />
<glyph glyph-name="infinity" unicode="&#x221e;" horiz-adv-x="314" d="M153 0 L176 0 L176 520 L222 520 L222 542 L176 542 L176 671 C176 716 183 733 220 733 L222 733 L222 756 L219 756 C167 756 153 729 153 671 L153 542 L69 542 L69 671 C69 716 76 733 113 733 L115 733 L115 756 L112 756 C60 756 46 729 46 671 L46 542 L11 542 L11 520 L46 520 L46 0 L69 0 L69 520 L153 520 L153 0 Z M260 0 L283 0 L283 542 L260 542 L260 0 Z M260 629 L283 629 L283 709 L260 709 L260 629 Z " />
<glyph glyph-name="integral" unicode="&#x222b;" horiz-adv-x="832" d="M126 120 C126 120 129 123 134 127 C79 193 46 278 46 371 C46 464 79 549 133 615 C129 619 126 621 126 621 C70 554 36 466 36 371 C36 275 70 187 126 120 L126 120 Z M228 211 C230 213 233 215 235 218 C201 259 181 313 181 371 C181 429 202 483 235 524 C232 526 230 529 227 531 C192 487 171 432 171 371 C171 310 193 254 228 211 L228 211 Z M264 243 C267 245 269 248 272 250 C245 283 229 325 229 371 C229 417 245 459 272 492 C269 494 267 497 264 499 C236 464 219 419 219 371 C219 322 236 278 264 243 L264 243 Z M316 289 C319 291 321 294 324 296 C308 317 298 343 298 371 C298 399 308 425 323 445 C321 448 318 450 316 452 C298 430 288 402 288 371 C288 340 298 312 316 289 L316 289 Z M349 320 C352 323 354 325 357 327 C348 340 343 355 343 371 C343 387 348 402 357 415 C354 417 352 420 349 422 C339 408 333 390 333 371 C333 352 339 334 349 320 L349 320 Z M378 346 C382 349 384 351 384 351 C381 357 379 364 379 371 C379 378 381 385 384 391 C384 391 382 393 378 396 C374 389 371 380 371 371 C371 362 374 353 378 346 L378 346 Z M416 60 C493 60 563 89 616 136 C614 139 611 141 609 144 C558 98 490 70 416 70 C342 70 274 98 222 144 C222 145 215 137 215 137 C268 89 338 60 416 60 L416 60 Z M416 324 C426 324 435 327 442 333 C439 337 437 339 437 339 C431 334 424 332 416 332 C408 332 401 335 395 339 C395 339 391 334 389 333 C397 327 406 324 416 324 L416 324 Z M482 319 C493 334 499 352 499 371 C499 390 493 408 482 422 C483 422 475 415 475 415 C484 403 489 388 489 371 C489 355 484 339 475 326 C478 324 480 322 482 319 L482 319 Z M292 269 C295 271 298 274 300 276 C280 302 267 335 267 371 C267 407 280 440 300 466 L293 473 C270 445 257 410 257 371 C257 333 270 297 292 269 L292 269 Z M416 -17 C512 -17 600 19 667 80 C667 80 660 88 660 87 C595 29 510 -7 416 -7 C322 -7 236 29 171 88 L164 80 C231 20 320 -17 416 -17 L416 -17 Z M416 121 C478 121 534 144 576 182 C574 185 571 187 569 190 C529 153 475 131 416 131 C357 131 303 153 262 190 L255 182 C298 144 354 121 416 121 L416 121 Z M416 170 C465 170 510 188 544 218 C542 221 539 223 537 226 C505 197 462 180 416 180 C369 180 327 197 294 226 L287 219 C322 189 367 170 416 170 L416 170 Z M416 209 C455 209 491 224 518 247 C516 250 514 253 512 255 C486 233 452 219 416 219 C380 219 346 233 320 255 L313 247 C341 224 377 209 416 209 L416 209 Z M416 265 C441 265 463 274 481 289 C479 292 476 294 474 297 C458 283 438 275 416 275 C394 275 373 283 357 297 L350 289 C368 274 391 265 416 265 L416 265 Z M358 445 C374 459 394 467 416 467 C438 467 458 459 474 445 L482 453 C464 468 441 477 416 477 C391 477 368 468 350 453 C351 452 354 448 358 445 L358 445 Z M570 552 C572 554 575 557 577 560 C534 598 478 621 416 621 C355 621 299 598 256 560 L263 553 C304 589 357 611 416 611 C475 611 529 589 570 552 L570 552 Z M454 346 C458 353 461 362 461 371 C461 380 458 389 454 396 L448 391 C451 385 453 378 453 371 C453 364 451 357 448 351 C448 351 450 349 454 346 L454 346 Z M468 333 C476 344 480 357 480 371 C480 385 476 398 468 409 L460 402 C466 393 470 382 470 371 C470 360 466 349 460 340 C463 338 465 336 468 333 L468 333 Z M498 306 C511 325 519 347 519 371 C519 395 511 418 497 436 L490 429 C502 413 509 393 509 371 C509 349 502 329 490 313 C492 311 495 308 498 306 L498 306 Z M540 269 C562 297 575 332 575 371 C575 410 562 445 539 473 L531 466 C552 440 565 407 565 371 C565 335 552 302 532 276 C535 274 537 271 540 269 L540 269 Z M568 243 C596 278 613 322 613 371 C613 420 596 464 568 499 L560 492 C587 459 603 417 603 371 C603 325 587 283 560 250 C563 248 566 245 568 243 L568 243 Z M604 211 C640 254 661 310 661 371 C661 432 640 488 604 531 L596 524 C631 483 651 429 651 371 C651 313 631 260 596 218 C601 213 604 211 604 211 L604 211 Z M649 171 C694 225 721 295 721 371 C721 447 694 517 649 571 L641 564 C685 512 711 445 711 371 C711 297 685 230 642 177 C644 175 647 173 649 171 L649 171 Z M706 120 C762 188 796 276 796 371 C796 467 762 555 706 622 L698 615 C753 549 786 464 786 371 C786 278 753 193 698 127 C703 123 706 120 706 120 L706 120 Z M183 170 L190 177 C147 229 121 297 121 371 C121 444 147 512 190 564 C187 567 184 569 182 571 C138 517 111 447 111 371 C111 294 138 225 183 170 L183 170 Z M334 306 L342 314 C330 330 323 350 323 371 C323 393 330 413 342 429 C340 431 337 434 334 436 C321 418 313 395 313 371 C313 346 321 324 334 306 L334 306 Z M364 333 L371 340 C366 349 362 360 362 371 C362 382 366 393 371 402 C369 404 366 406 364 409 C356 398 352 385 352 371 C352 357 356 344 364 333 L364 333 Z M395 403 C401 408 408 410 416 410 C424 410 431 407 437 403 C437 403 439 406 442 409 C435 415 426 418 416 418 C406 418 397 415 390 409 L395 403 Z M384 416 C393 423 404 428 416 428 C428 428 439 424 448 416 C450 419 452 421 454 423 C443 432 430 437 416 437 C401 437 388 432 377 423 L384 416 Z M371 430 C383 441 399 447 416 447 C433 447 449 441 461 430 C461 430 464 434 468 438 C454 450 436 457 416 457 C397 457 378 450 364 438 L371 430 Z M295 516 C327 545 370 562 416 562 C462 562 505 545 538 516 C538 516 545 523 544 523 C510 554 465 572 416 572 C367 572 322 554 288 524 L295 516 Z M416 240 C448 240 476 252 498 271 L491 278 C471 261 445 250 416 250 C388 250 361 261 340 278 L333 270 C355 251 384 240 416 240 L416 240 Z M416 285 C436 285 454 292 468 304 L461 312 C448 301 433 295 416 295 C399 295 383 302 370 312 L363 304 C378 292 396 285 416 285 L416 285 Z M416 305 C430 305 444 310 455 319 L448 326 C439 319 428 314 416 314 C404 314 393 319 383 326 L376 319 C388 310 401 305 416 305 L416 305 Z M341 464 C362 482 388 492 416 492 C445 492 471 481 491 464 L498 472 C476 491 447 502 416 502 C385 502 356 490 334 471 L341 464 Z M320 487 C346 509 380 523 416 523 C453 523 486 510 512 487 L518 494 C491 518 455 533 416 533 C377 533 341 519 313 495 L320 487 Z M610 597 L617 605 C563 653 493 682 416 682 C339 682 269 653 215 605 L222 598 C274 644 342 672 416 672 C491 672 559 644 610 597 L610 597 Z M172 654 C237 713 322 749 416 749 C510 749 596 713 661 654 L668 662 C601 722 512 759 416 759 C320 759 232 723 165 662 L172 654 Z M516 290 C534 312 544 340 544 371 C544 402 534 430 516 453 L508 446 C524 425 534 399 534 371 C534 343 524 317 509 297 L516 290 Z " />
<glyph glyph-name="approxequal" unicode="&#x2248;" horiz-adv-x="200" d="M36 282 L58 282 C58 304 61 309 67 309 C80 309 111 283 134 283 C154 283 164 290 164 330 L142 330 C142 308 141 304 133 304 C120 304 89 330 66 330 C50 330 36 322 36 282 L36 282 Z M36 375 L58 375 C58 397 61 402 67 402 C80 402 111 376 134 376 C154 376 164 383 164 423 L142 423 C142 401 141 397 133 397 C120 397 89 423 66 423 C50 423 36 415 36 375 L36 375 Z " />
<glyph glyph-name="notequal" unicode="&#x2260;" horiz-adv-x="229" d="M153 0 L176 0 L176 520 L222 520 L222 542 L176 542 L176 671 C176 716 183 733 220 733 L222 733 L222 756 L219 756 C167 756 153 729 153 671 L153 542 L69 542 L69 671 C69 716 76 733 113 733 L115 733 L115 756 L112 756 C60 756 46 729 46 671 L46 542 L11 542 L11 520 L46 520 L46 0 L69 0 L69 520 L153 520 L153 0 Z " />
<glyph glyph-name="lessequal" unicode="&#x2264;" horiz-adv-x="200" d="M149 227 L149 259 L51 369 L149 479 L149 511 L33 381 L33 357 L149 227 Z M33 147 L149 147 L149 169 L33 169 L33 147 Z " />
<glyph glyph-name="greaterequal" unicode="&#x2265;" horiz-adv-x="200" d="M51 227 L167 357 L167 381 L51 511 L51 479 L149 369 L51 259 L51 227 Z M51 147 L167 147 L167 169 L51 169 L51 147 Z " />
<glyph glyph-name="lozenge" unicode="&#x25ca;" horiz-adv-x="233" d="M46 0 L69 0 L69 520 L151 520 L151 75 C151 22 166 0 218 0 L220 0 L220 23 L218 23 C181 23 174 35 174 75 L174 520 L220 520 L220 542 L174 542 L174 694 L153 684 L151 542 L69 542 L69 671 C69 716 76 733 113 733 L115 733 L115 756 L112 756 C60 756 46 729 46 671 L46 542 L11 542 L11 520 L46 520 L46 0 Z " />
<glyph glyph-name="apple" unicode="&#xf8ff;" horiz-adv-x="832" d="M126 120 C126 120 129 123 134 127 C79 193 46 278 46 371 C46 464 79 549 133 615 C129 619 126 621 126 621 C70 554 36 466 36 371 C36 275 70 187 126 120 L126 120 Z M228 211 C230 213 233 215 235 218 C201 259 181 313 181 371 C181 429 202 483 235 524 C232 526 230 529 227 531 C192 487 171 432 171 371 C171 310 193 254 228 211 L228 211 Z M264 243 C267 245 269 248 272 250 C245 283 229 325 229 371 C229 417 245 459 272 492 C269 494 267 497 264 499 C236 464 219 419 219 371 C219 322 236 278 264 243 L264 243 Z M316 289 C319 291 321 294 324 296 C308 317 298 343 298 371 C298 399 308 425 323 445 C321 448 318 450 316 452 C298 430 288 402 288 371 C288 340 298 312 316 289 L316 289 Z M349 320 C352 323 354 325 357 327 C348 340 343 355 343 371 C343 387 348 402 357 415 C354 417 352 420 349 422 C339 408 333 390 333 371 C333 352 339 334 349 320 L349 320 Z M378 346 C382 349 384 351 384 351 C381 357 379 364 379 371 C379 378 381 385 384 391 C384 391 382 393 378 396 C374 389 371 380 371 371 C371 362 374 353 378 346 L378 346 Z M416 60 C493 60 563 89 616 136 C614 139 611 141 609 144 C558 98 490 70 416 70 C342 70 274 98 222 144 C222 145 215 137 215 137 C268 89 338 60 416 60 L416 60 Z M416 324 C426 324 435 327 442 333 C439 337 437 339 437 339 C431 334 424 332 416 332 C408 332 401 335 395 339 C395 339 391 334 389 333 C397 327 406 324 416 324 L416 324 Z M482 319 C493 334 499 352 499 371 C499 390 493 408 482 422 C483 422 475 415 475 415 C484 403 489 388 489 371 C489 355 484 339 475 326 C478 324 480 322 482 319 L482 319 Z M292 269 C295 271 298 274 300 276 C280 302 267 335 267 371 C267 407 280 440 300 466 L293 473 C270 445 257 410 257 371 C257 333 270 297 292 269 L292 269 Z M416 -17 C512 -17 600 19 667 80 C667 80 660 88 660 87 C595 29 510 -7 416 -7 C322 -7 236 29 171 88 L164 80 C231 20 320 -17 416 -17 L416 -17 Z M416 121 C478 121 534 144 576 182 C574 185 571 187 569 190 C529 153 475 131 416 131 C357 131 303 153 262 190 L255 182 C298 144 354 121 416 121 L416 121 Z M416 170 C465 170 510 188 544 218 C542 221 539 223 537 226 C505 197 462 180 416 180 C369 180 327 197 294 226 L287 219 C322 189 367 170 416 170 L416 170 Z M416 209 C455 209 491 224 518 247 C516 250 514 253 512 255 C486 233 452 219 416 219 C380 219 346 233 320 255 L313 247 C341 224 377 209 416 209 L416 209 Z M416 265 C441 265 463 274 481 289 C479 292 476 294 474 297 C458 283 438 275 416 275 C394 275 373 283 357 297 L350 289 C368 274 391 265 416 265 L416 265 Z M358 445 C374 459 394 467 416 467 C438 467 458 459 474 445 L482 453 C464 468 441 477 416 477 C391 477 368 468 350 453 C351 452 354 448 358 445 L358 445 Z M570 552 C572 554 575 557 577 560 C534 598 478 621 416 621 C355 621 299 598 256 560 L263 553 C304 589 357 611 416 611 C475 611 529 589 570 552 L570 552 Z M454 346 C458 353 461 362 461 371 C461 380 458 389 454 396 L448 391 C451 385 453 378 453 371 C453 364 451 357 448 351 C448 351 450 349 454 346 L454 346 Z M468 333 C476 344 480 357 480 371 C480 385 476 398 468 409 L460 402 C466 393 470 382 470 371 C470 360 466 349 460 340 C463 338 465 336 468 333 L468 333 Z M498 306 C511 325 519 347 519 371 C519 395 511 418 497 436 L490 429 C502 413 509 393 509 371 C509 349 502 329 490 313 C492 311 495 308 498 306 L498 306 Z M540 269 C562 297 575 332 575 371 C575 410 562 445 539 473 L531 466 C552 440 565 407 565 371 C565 335 552 302 532 276 C535 274 537 271 540 269 L540 269 Z M568 243 C596 278 613 322 613 371 C613 420 596 464 568 499 L560 492 C587 459 603 417 603 371 C603 325 587 283 560 250 C563 248 566 245 568 243 L568 243 Z M604 211 C640 254 661 310 661 371 C661 432 640 488 604 531 L596 524 C631 483 651 429 651 371 C651 313 631 260 596 218 C601 213 604 211 604 211 L604 211 Z M649 171 C694 225 721 295 721 371 C721 447 694 517 649 571 L641 564 C685 512 711 445 711 371 C711 297 685 230 642 177 C644 175 647 173 649 171 L649 171 Z M706 120 C762 188 796 276 796 371 C796 467 762 555 706 622 L698 615 C753 549 786 464 786 371 C786 278 753 193 698 127 C703 123 706 120 706 120 L706 120 Z M183 170 L190 177 C147 229 121 297 121 371 C121 444 147 512 190 564 C187 567 184 569 182 571 C138 517 111 447 111 371 C111 294 138 225 183 170 L183 170 Z M334 306 L342 314 C330 330 323 350 323 371 C323 393 330 413 342 429 C340 431 337 434 334 436 C321 418 313 395 313 371 C313 346 321 324 334 306 L334 306 Z M364 333 L371 340 C366 349 362 360 362 371 C362 382 366 393 371 402 C369 404 366 406 364 409 C356 398 352 385 352 371 C352 357 356 344 364 333 L364 333 Z M395 403 C401 408 408 410 416 410 C424 410 431 407 437 403 C437 403 439 406 442 409 C435 415 426 418 416 418 C406 418 397 415 390 409 L395 403 Z M384 416 C393 423 404 428 416 428 C428 428 439 424 448 416 C450 419 452 421 454 423 C443 432 430 437 416 437 C401 437 388 432 377 423 L384 416 Z M371 430 C383 441 399 447 416 447 C433 447 449 441 461 430 C461 430 464 434 468 438 C454 450 436 457 416 457 C397 457 378 450 364 438 L371 430 Z M295 516 C327 545 370 562 416 562 C462 562 505 545 538 516 C538 516 545 523 544 523 C510 554 465 572 416 572 C367 572 322 554 288 524 L295 516 Z M416 240 C448 240 476 252 498 271 L491 278 C471 261 445 250 416 250 C388 250 361 261 340 278 L333 270 C355 251 384 240 416 240 L416 240 Z M416 285 C436 285 454 292 468 304 L461 312 C448 301 433 295 416 295 C399 295 383 302 370 312 L363 304 C378 292 396 285 416 285 L416 285 Z M416 305 C430 305 444 310 455 319 L448 326 C439 319 428 314 416 314 C404 314 393 319 383 326 L376 319 C388 310 401 305 416 305 L416 305 Z M341 464 C362 482 388 492 416 492 C445 492 471 481 491 464 L498 472 C476 491 447 502 416 502 C385 502 356 490 334 471 L341 464 Z M320 487 C346 509 380 523 416 523 C453 523 486 510 512 487 L518 494 C491 518 455 533 416 533 C377 533 341 519 313 495 L320 487 Z M610 597 L617 605 C563 653 493 682 416 682 C339 682 269 653 215 605 L222 598 C274 644 342 672 416 672 C491 672 559 644 610 597 L610 597 Z M172 654 C237 713 322 749 416 749 C510 749 596 713 661 654 L668 662 C601 722 512 759 416 759 C320 759 232 723 165 662 L172 654 Z M516 290 C534 312 544 340 544 371 C544 402 534 430 516 453 L508 446 C524 425 534 399 534 371 C534 343 524 317 509 297 L516 290 Z " />
<glyph glyph-name="fi" unicode="&#xfb01;" horiz-adv-x="207" d="M11 520 L46 520 L46 0 L69 0 L69 520 L115 520 L115 542 L69 542 L69 671 C69 716 76 733 113 733 L115 733 L115 756 L112 756 C60 756 46 729 46 671 L46 542 L11 542 L11 520 Z M153 0 L176 0 L176 542 L153 542 L153 0 Z M153 629 L176 629 L176 709 L153 709 L153 629 Z " />
<glyph glyph-name="fl" unicode="&#xfb02;" horiz-adv-x="224" d="M11 520 L46 520 L46 0 L69 0 L69 520 L115 520 L115 542 L69 542 L69 671 C69 716 76 733 113 733 L115 733 L115 756 L112 756 C60 756 46 729 46 671 L46 542 L11 542 L11 520 Z M203 0 L206 0 L206 23 L204 23 C180 23 176 30 176 68 L176 756 L153 756 L153 68 C153 25 157 0 203 0 L203 0 Z " />
</font>
</svg>
