<?xml version="1.0" encoding="UTF-8"?>
<svg xmlns="http://www.w3.org/2000/svg" xmlns:xlink="http://www.w3.org/1999/xlink" version="1.2" >
<font id="AntennaCond BlackItalic">
<font-face  font-family="AntennaCond" units-per-em="1000" ascent="800" descent="-200" font-style="italic" font-weight="900" font-stretch="normal" slope="-10" cap-height="741" x-height="575" underline-position="-75" underline-thickness="50" />
<missing-glyph  horiz-adv-x="164" d="" />
<glyph glyph-name="NULL" d="" />
<glyph glyph-name="CR" unicode="&#xd;" horiz-adv-x="250" d="" />
<glyph glyph-name="&amp;#x20;" unicode="&#x20;" horiz-adv-x="164" d="" />
<glyph glyph-name="&amp;#xa0;" unicode="&#xa0;" horiz-adv-x="164" d="" />
<glyph glyph-name="exclam" unicode="&#x21;" horiz-adv-x="372" d="M14 0 L227 0 L264 212 L51 212 L14 0 Z M77 245 L251 245 L356 741 L149 741 L77 245 Z " />
<glyph glyph-name="quotedbl" unicode="&#x22;" horiz-adv-x="569" d="M72 360 L252 360 L329 741 L131 741 L72 360 Z M314 360 L492 360 L570 741 L372 741 L314 360 Z " />
<glyph glyph-name="numbersign" unicode="&#x23;" horiz-adv-x="685" d="M71 0 L252 0 L279 155 L332 155 L305 0 L486 0 L513 155 L598 155 L629 329 L544 329 L552 375 L637 375 L667 548 L582 548 L617 741 L436 741 L401 548 L348 548 L383 741 L202 741 L167 548 L88 548 L58 375 L137 375 L129 329 L50 329 L19 155 L98 155 L71 0 Z M287 312 L301 393 L394 393 L380 312 L287 312 Z " />
<glyph glyph-name="dollar" unicode="&#x24;" horiz-adv-x="569" d="M110 -94 L304 -94 L321 2 C453 20 527 89 527 239 C527 374 428 417 334 449 C271 470 247 482 247 510 C247 555 269 569 310 569 C387 569 439 550 467 535 L568 689 C537 706 499 721 450 732 L465 815 L271 815 L257 739 C139 721 55 651 55 496 C55 363 150 326 255 289 C313 269 334 256 334 219 C334 179 316 155 254 155 C166 155 102 187 65 217 L-50 75 C-3 36 55 14 127 4 L110 -94 Z " />
<glyph glyph-name="percent" unicode="&#x25;" horiz-adv-x="1134" d="M241 245 C357 245 447 290 480 476 C485 506 488 534 488 559 C488 687 419 748 283 748 C164 748 76 699 44 514 C39 483 36 454 36 428 C36 302 103 245 241 245 L241 245 Z M242 385 C215 385 204 396 204 428 C204 444 207 466 212 494 C226 578 238 597 274 597 C306 597 318 584 318 549 C318 533 316 512 311 486 C297 402 283 385 242 385 L242 385 Z M854 -8 C970 -8 1060 37 1093 223 C1098 253 1101 281 1101 306 C1101 434 1032 495 896 495 C777 495 689 446 657 261 C652 230 649 201 649 175 C649 49 716 -8 854 -8 L854 -8 Z M855 132 C828 132 817 143 817 175 C817 191 820 213 825 241 C839 325 851 344 887 344 C919 344 931 331 931 296 C931 280 929 259 924 233 C910 149 896 132 855 132 L855 132 Z M239 0 L415 0 L898 741 L722 741 L239 0 Z " />
<glyph glyph-name="ampersand" unicode="&#x26;" horiz-adv-x="771" d="M291 -9 C349 -9 401 0 447 18 L461 0 L698 0 L595 133 C652 208 694 312 725 446 L568 464 C543 380 521 314 494 264 L443 332 C437 340 431 348 425 355 C511 393 584 453 584 588 C584 700 514 757 377 757 C276 757 146 707 146 528 C146 494 153 460 165 427 C67 391 -14 335 -14 182 C-14 51 86 -9 291 -9 L291 -9 Z M294 147 C198 147 180 179 180 209 C180 249 198 273 237 293 C250 274 263 256 277 239 L345 150 C329 148 312 147 294 147 L294 147 Z M332 534 C332 581 349 594 377 594 C401 594 412 582 412 561 C412 520 389 496 345 476 C337 496 332 515 332 534 L332 534 Z " />
<glyph glyph-name="quotesingle" unicode="&#x27;" horiz-adv-x="328" d="M72 360 L253 360 L330 741 L131 741 L72 360 Z " />
<glyph glyph-name="parenleft" unicode="&#x28;" horiz-adv-x="479" d="M153 -182 L310 -97 C283 -49 248 32 248 161 C248 362 331 586 452 707 L325 792 C168 658 52 401 52 171 C52 4 106 -112 153 -182 L153 -182 Z " />
<glyph glyph-name="parenright" unicode="&#x29;" horiz-adv-x="479" d="M132 -182 C289 -48 405 209 405 439 C405 606 351 722 304 792 L147 707 C174 659 209 578 209 449 C209 248 126 24 5 -97 L132 -182 Z " />
<glyph glyph-name="asterisk" unicode="&#x2a;" horiz-adv-x="565" d="M321 206 L331 357 L420 250 L523 368 L404 459 L548 505 L490 653 L371 579 L413 725 L265 751 L256 602 L169 709 L65 589 L182 498 L41 454 L99 304 L216 375 L173 232 L321 206 Z " />
<glyph glyph-name="plus" unicode="&#x2b;" horiz-adv-x="638" d="M180 92 L360 92 L392 270 L545 270 L574 435 L421 435 L452 611 L272 611 L241 435 L88 435 L59 270 L212 270 L180 92 Z " />
<glyph glyph-name="comma" unicode="&#x2c;" horiz-adv-x="291" d="M1 -176 C148 -121 173 -77 191 20 L225 216 L12 216 L-26 0 L67 0 C60 -37 49 -42 -33 -82 L1 -176 Z " />
<glyph glyph-name="&amp;#x2d;" unicode="&#x2d;" horiz-adv-x="343" d="M4 258 L297 258 L328 433 L35 433 L4 258 Z " />
<glyph glyph-name="&amp;#xad;" unicode="&#xad;" horiz-adv-x="343" d="M4 258 L297 258 L328 433 L35 433 L4 258 Z " />
<glyph glyph-name="period" unicode="&#x2e;" horiz-adv-x="291" d="M-26 0 L187 0 L225 216 L12 216 L-26 0 Z " />
<glyph glyph-name="slash" unicode="&#x2f;" horiz-adv-x="543" d="M-69 0 L133 0 L613 741 L411 741 L-69 0 Z " />
<glyph glyph-name="zero" unicode="0" horiz-adv-x="665" d="M290 -9 C525 -9 582 113 622 344 C632 402 640 458 640 509 C640 649 584 750 374 750 C141 750 82 615 43 395 C33 336 25 280 25 229 C25 88 83 -9 290 -9 L290 -9 Z M304 167 C246 167 226 196 226 254 C226 287 232 328 241 378 C266 519 285 566 363 566 C420 566 440 540 440 484 C440 453 434 412 425 362 C400 220 381 167 304 167 L304 167 Z " />
<glyph glyph-name="one" unicode="1" horiz-adv-x="388" d="M56 0 L246 0 L377 741 L89 741 L58 567 L156 567 L56 0 Z " />
<glyph glyph-name="two" unicode="2" horiz-adv-x="559" d="M-48 0 L451 0 L480 166 L233 166 L326 243 C481 372 535 419 535 564 C535 677 471 750 299 750 C191 750 116 731 58 705 L132 542 C172 560 220 569 253 569 C318 569 337 550 337 512 C337 460 312 430 214 348 L-22 150 L-48 0 Z " />
<glyph glyph-name="three" unicode="3" horiz-adv-x="566" d="M230 -9 C376 -9 476 28 506 200 C511 226 513 249 513 268 C513 338 495 366 446 385 C506 408 531 458 547 549 C550 566 551 581 551 596 C551 703 475 750 322 750 C213 750 121 726 66 694 L141 541 C187 562 228 569 270 569 C329 569 350 558 350 529 C350 524 350 518 349 512 C341 466 326 458 279 458 L151 458 L125 311 L218 311 C296 311 322 298 322 260 C322 254 321 247 320 239 C309 176 294 165 237 165 C167 165 113 191 65 220 L-37 66 C27 25 105 -9 230 -9 L230 -9 Z " />
<glyph glyph-name="four" unicode="4" horiz-adv-x="611" d="M-21 131 L289 131 L266 0 L443 0 L466 131 L550 131 L578 288 L494 288 L528 481 L391 481 L319 288 L211 288 L545 741 L346 741 L5 277 L-21 131 Z " />
<glyph glyph-name="five" unicode="5" horiz-adv-x="591" d="M259 -9 C392 -9 502 10 541 233 C546 261 549 287 549 310 C549 441 489 505 361 505 C292 505 269 497 245 486 L261 567 L560 567 L591 741 L135 741 L47 363 L187 319 C215 332 235 337 266 337 C323 337 351 324 351 278 C351 268 350 257 348 244 C337 180 311 165 254 165 C165 165 117 188 65 220 L-37 66 C28 24 107 -9 259 -9 L259 -9 Z " />
<glyph glyph-name="six" unicode="6" horiz-adv-x="637" d="M308 -9 C473 -9 556 56 587 235 C593 268 597 300 597 329 C597 431 562 513 399 513 C335 513 283 503 253 474 C273 547 300 567 414 567 L537 567 L568 741 L422 741 C145 741 82 633 34 361 C25 311 19 264 19 220 C19 85 80 -9 308 -9 L308 -9 Z M299 158 C237 158 216 182 216 226 C216 239 218 254 221 270 C234 345 274 358 336 358 C378 358 400 340 400 295 C400 283 399 268 396 251 C384 183 363 158 299 158 L299 158 Z " />
<glyph glyph-name="seven" unicode="7" horiz-adv-x="530" d="M36 0 L240 0 L546 591 L573 741 L83 741 L52 567 L331 567 L36 0 Z " />
<glyph glyph-name="eight" unicode="8" horiz-adv-x="634" d="M281 -10 C521 -10 579 108 579 262 C579 320 571 375 509 401 C585 434 614 501 614 587 C614 669 561 751 351 751 C139 751 87 649 87 533 C87 486 101 437 142 413 C33 371 2 276 2 168 C2 76 52 -10 281 -10 L281 -10 Z M284 149 C221 149 204 178 204 217 C204 295 231 333 302 333 C366 333 385 307 385 268 C385 192 359 149 284 149 L284 149 Z M340 458 C291 458 271 476 271 507 C271 568 300 591 348 591 C399 591 418 574 418 542 C418 481 389 458 340 458 L340 458 Z " />
<glyph glyph-name="nine" unicode="9" horiz-adv-x="637" d="M70 0 L216 0 C493 0 556 108 604 380 C613 430 619 477 619 521 C619 656 558 750 330 750 C165 750 82 685 51 506 C45 473 41 441 41 412 C41 310 77 223 237 223 C301 223 353 233 383 262 C363 189 336 166 222 166 L99 166 L70 0 Z M302 377 C260 377 238 395 238 440 C238 452 239 467 242 484 C254 552 275 577 339 577 C401 577 422 553 422 509 C422 496 420 481 417 465 C404 390 364 377 302 377 L302 377 Z " />
<glyph glyph-name="colon" unicode="&#x3a;" horiz-adv-x="306" d="M-18 0 L194 0 L231 211 L19 211 L-18 0 Z M46 365 L258 365 L295 575 L83 575 L46 365 Z " />
<glyph glyph-name="semicolon" unicode="&#x3b;" horiz-adv-x="306" d="M46 365 L258 365 L295 575 L83 575 L46 365 Z M9 -176 C156 -121 180 -77 198 20 L231 211 L19 211 L-18 0 L75 0 C68 -37 57 -42 -25 -82 L9 -176 Z " />
<glyph glyph-name="less" unicode="&#x3c;" horiz-adv-x="638" d="M452 57 L484 241 L293 347 L522 452 L554 635 L102 411 L80 282 L452 57 Z " />
<glyph glyph-name="equal" unicode="&#x3d;" horiz-adv-x="638" d="M36 140 L522 140 L553 315 L67 315 L36 140 Z M80 390 L566 390 L596 564 L110 564 L80 390 Z " />
<glyph glyph-name="greater" unicode="&#x3e;" horiz-adv-x="638" d="M75 57 L527 281 L549 410 L177 635 L145 451 L337 345 L107 240 L75 57 Z " />
<glyph glyph-name="question" unicode="&#x3f;" horiz-adv-x="610" d="M169 227 L355 227 C368 302 369 311 460 358 C537 398 604 456 604 586 C604 678 545 750 357 750 C267 750 164 732 104 699 L183 543 C221 560 267 574 316 574 C382 574 400 556 400 531 C400 486 381 471 310 438 C193 383 180 324 169 227 L169 227 Z M116 0 L329 0 L362 187 L149 187 L116 0 Z " />
<glyph glyph-name="at" unicode="&#x40;" horiz-adv-x="873" d="M407 -165 C470 -165 559 -155 628 -130 L599 -34 C530 -54 463 -65 384 -65 C181 -65 110 23 110 180 C110 221 114 267 123 317 C166 559 253 648 446 648 C663 648 739 574 739 415 C739 373 734 325 724 270 C702 145 695 137 651 137 C627 137 611 153 620 205 L678 533 L559 544 L524 513 C493 541 461 550 382 550 C253 550 208 449 183 308 C176 269 171 228 171 192 C171 102 203 30 343 30 C440 30 487 61 521 96 C529 62 558 31 646 31 C763 31 803 81 834 258 C844 315 850 368 850 417 C850 621 750 748 446 748 C186 748 65 622 13 328 C3 272 -3 219 -3 170 C-3 -35 98 -165 407 -165 L407 -165 Z M395 176 C357 176 344 191 344 225 C344 241 348 264 353 292 C368 374 379 395 418 395 C463 395 475 377 475 338 C475 322 473 302 469 279 C454 199 443 176 395 176 L395 176 Z " />
<glyph glyph-name="A" unicode="A" horiz-adv-x="684" d="M-57 0 L147 0 L188 88 L395 88 L405 0 L611 0 L506 746 L312 746 L-57 0 Z M266 258 L355 449 L377 258 L266 258 Z " />
<glyph glyph-name="B" unicode="B" horiz-adv-x="636" d="M-12 0 L277 0 C463 0 551 62 575 196 C578 215 581 236 581 258 C581 311 567 364 511 380 C571 403 607 458 620 536 C623 554 625 573 625 590 C625 676 565 741 371 741 L119 741 L-12 0 Z M211 157 L236 298 L313 298 C364 298 380 280 380 248 C380 241 379 233 378 225 C370 179 348 157 308 157 L211 157 Z M261 440 L285 578 L351 578 C403 578 417 560 417 533 C417 526 416 518 414 509 C407 469 393 440 355 440 L261 440 Z " />
<glyph glyph-name="C" unicode="C" horiz-adv-x="582" d="M287 -9 C366 -9 444 7 511 48 L425 197 C392 177 352 168 316 168 C249 168 213 189 213 274 C213 300 216 332 223 371 C254 543 299 557 359 557 C417 557 457 539 488 522 L601 695 C546 732 466 750 393 750 C156 750 63 619 23 395 C15 349 10 305 10 264 C10 101 84 -9 287 -9 L287 -9 Z " />
<glyph glyph-name="D" unicode="D" horiz-adv-x="659" d="M-12 0 L264 0 C466 0 582 37 636 343 C646 398 651 446 651 488 C651 679 549 741 336 741 L119 741 L-12 0 Z M216 171 L285 561 L324 561 C402 561 446 552 446 460 C446 434 442 401 435 360 C402 173 353 171 295 171 L216 171 Z " />
<glyph glyph-name="E" unicode="E" horiz-adv-x="572" d="M-12 0 L468 0 L499 176 L213 176 L233 287 L507 287 L538 463 L264 463 L281 560 L567 560 L599 741 L119 741 L-12 0 Z " />
<glyph glyph-name="F" unicode="F" horiz-adv-x="561" d="M-12 0 L186 0 L234 271 L504 271 L535 447 L265 447 L285 560 L568 560 L600 741 L119 741 L-12 0 Z " />
<glyph glyph-name="G" unicode="G" horiz-adv-x="631" d="M279 -9 C490 -9 558 69 597 300 L622 447 L320 447 L291 286 L412 286 L410 273 C400 206 376 155 307 155 C238 155 209 180 209 257 C209 286 213 324 221 370 C252 544 304 559 363 559 C425 559 470 544 501 525 L632 685 C582 721 510 750 391 750 C173 750 69 652 23 395 C14 346 10 300 10 257 C10 101 75 -9 279 -9 L279 -9 Z " />
<glyph glyph-name="H" unicode="H" horiz-adv-x="697" d="M-12 0 L186 0 L236 284 L429 284 L379 0 L579 0 L710 741 L510 741 L463 478 L270 478 L317 741 L119 741 L-12 0 Z " />
<glyph glyph-name="I" unicode="I" horiz-adv-x="324" d="M-2 0 L196 0 L327 741 L129 741 L-2 0 Z " />
<glyph glyph-name="J" unicode="J" horiz-adv-x="416" d="M-39 0 L87 0 C198 0 306 18 338 199 L434 741 L235 741 L145 232 C138 191 120 176 64 176 L-8 176 L-39 0 Z " />
<glyph glyph-name="K" unicode="K" horiz-adv-x="665" d="M-12 0 L184 0 L218 192 L293 286 L382 0 L589 0 L445 456 L709 741 L483 741 L273 502 L315 741 L119 741 L-12 0 Z " />
<glyph glyph-name="L" unicode="L" horiz-adv-x="523" d="M-12 0 L452 0 L483 176 L217 176 L317 741 L119 741 L-12 0 Z " />
<glyph glyph-name="M" unicode="M" horiz-adv-x="837" d="M-12 0 L163 0 L231 388 L278 0 L414 0 L595 385 L527 0 L720 0 L851 741 L597 741 L414 344 L373 741 L119 741 L-12 0 Z " />
<glyph glyph-name="N" unicode="N" horiz-adv-x="693" d="M-12 0 L176 0 L244 385 L394 0 L576 0 L707 741 L518 741 L456 397 L327 741 L119 741 L-12 0 Z " />
<glyph glyph-name="O" unicode="O" horiz-adv-x="683" d="M305 -9 C542 -9 625 143 660 341 C668 385 673 430 673 473 C673 623 610 750 372 750 C141 750 58 596 23 397 C15 353 10 309 10 266 C10 117 73 -9 305 -9 L305 -9 Z M313 166 C235 166 211 206 211 271 C211 300 217 334 223 372 C244 493 270 559 370 559 C447 559 469 518 469 454 C469 424 465 390 458 352 C436 230 411 166 313 166 L313 166 Z " />
<glyph glyph-name="P" unicode="P" horiz-adv-x="631" d="M-12 0 L183 0 L223 226 L357 226 C541 226 606 323 631 465 C636 493 639 520 639 546 C639 661 579 741 367 741 L119 741 L-12 0 Z M251 387 L283 569 L360 569 C419 569 439 548 439 508 C439 497 437 485 435 471 C424 409 403 387 354 387 L251 387 Z " />
<glyph glyph-name="Q" unicode="Q" horiz-adv-x="683" d="M387 -192 L446 -192 L475 -28 L398 -28 C358 -28 345 -20 345 0 C551 15 627 154 660 341 C668 385 673 430 673 473 C673 623 610 750 372 750 C141 750 58 596 23 397 C15 353 10 309 10 266 C10 155 45 60 159 19 C153 -4 149 -27 149 -48 C149 -139 216 -192 387 -192 L387 -192 Z M313 166 C235 166 211 206 211 271 C211 300 217 334 223 372 C244 493 270 559 370 559 C447 559 469 518 469 454 C469 424 465 390 458 352 C436 230 411 166 313 166 L313 166 Z " />
<glyph glyph-name="R" unicode="R" horiz-adv-x="643" d="M344 0 L540 0 L477 252 C570 284 611 361 630 468 C635 495 638 520 638 544 C638 657 577 741 361 741 L119 741 L-12 0 L183 0 L225 236 L288 236 L344 0 Z M252 393 L283 569 L351 569 C417 569 438 547 438 506 C438 496 437 484 435 471 C424 409 403 393 363 393 L252 393 Z " />
<glyph glyph-name="S" unicode="S" horiz-adv-x="601" d="M274 -9 C449 -9 557 68 557 250 C557 352 496 402 346 449 C282 469 257 480 257 516 C257 558 288 570 345 570 C411 570 476 547 508 528 L604 694 C554 725 468 751 354 751 C201 751 60 698 60 494 C60 404 112 345 230 306 C334 271 359 263 359 221 C359 183 340 155 276 155 C176 155 104 192 64 222 L-45 72 C24 20 135 -9 274 -9 L274 -9 Z " />
<glyph glyph-name="T" unicode="T" horiz-adv-x="588" d="M129 0 L329 0 L428 560 L616 560 L648 741 L72 741 L40 560 L228 560 L129 0 Z " />
<glyph glyph-name="U" unicode="U" horiz-adv-x="685" d="M310 -12 C494 -12 587 72 619 257 L704 741 L511 741 L431 289 C414 195 389 166 319 166 C249 166 226 185 226 234 C226 249 228 268 232 289 L312 741 L113 741 L32 283 C27 253 24 225 24 199 C24 65 101 -12 310 -12 L310 -12 Z " />
<glyph glyph-name="V" unicode="V" horiz-adv-x="674" d="M174 -5 L368 -5 L732 741 L521 741 L328 312 L279 741 L74 741 L174 -5 Z " />
<glyph glyph-name="W" unicode="W" horiz-adv-x="913" d="M114 -5 L292 -5 L464 408 L490 -5 L666 -5 L961 741 L764 741 L642 397 L622 741 L433 741 L292 397 L292 741 L83 741 L114 -5 Z " />
<glyph glyph-name="X" unicode="X" horiz-adv-x="680" d="M394 0 L603 0 L452 381 L710 741 L494 741 L378 568 L310 741 L102 741 L235 403 L-53 0 L161 0 L308 217 L394 0 Z " />
<glyph glyph-name="Y" unicode="Y" horiz-adv-x="652" d="M161 0 L359 0 L402 243 L723 741 L514 741 L342 461 L270 741 L61 741 L204 244 L161 0 Z " />
<glyph glyph-name="Z" unicode="Z" horiz-adv-x="575" d="M-48 0 L491 0 L522 176 L232 176 L584 578 L613 741 L97 741 L65 560 L337 560 L-22 148 L-48 0 Z " />
<glyph glyph-name="bracketleft" unicode="&#x5b;" horiz-adv-x="479" d="M-9 -158 L323 -158 L351 -2 L213 -2 L320 606 L456 606 L485 769 L155 769 L-9 -158 Z " />
<glyph glyph-name="backslash" unicode="&#x5c;" horiz-adv-x="543" d="M289 0 L473 0 L255 741 L71 741 L289 0 Z " />
<glyph glyph-name="bracketright" unicode="&#x5d;" horiz-adv-x="479" d="M-31 -158 L302 -158 L466 769 L137 769 L108 606 L243 606 L136 -2 L-3 -2 L-31 -158 Z " />
<glyph glyph-name="asciicircum" unicode="&#x5e;" horiz-adv-x="498" d="M99 552 L248 552 L307 619 L343 552 L489 552 L416 750 L242 750 L99 552 Z " />
<glyph glyph-name="underscore" unicode="&#x5f;" horiz-adv-x="382" d="M-126 -168 L319 -168 L344 -28 L-101 -28 L-126 -168 Z " />
<glyph glyph-name="grave" unicode="&#x60;" horiz-adv-x="498" d="M230 625 L385 625 L317 823 L113 823 L230 625 Z " />
<glyph glyph-name="a" unicode="a" horiz-adv-x="558" d="M160 -7 C216 -7 266 11 299 44 C313 5 338 -3 412 -3 C430 -3 451 -2 472 0 L501 165 C467 165 467 172 472 202 L502 374 C527 517 496 588 287 588 C208 588 136 580 72 556 L124 398 C157 410 204 416 257 416 C315 416 321 405 316 370 L246 370 C76 370 -23 322 -23 140 C-23 57 15 -7 160 -7 L160 -7 Z M222 148 C178 148 165 161 165 189 C165 232 187 257 261 257 L296 257 L289 217 C279 162 262 148 222 148 L222 148 Z " />
<glyph glyph-name="b" unicode="b" horiz-adv-x="584" d="M114 -7 L154 35 C180 11 216 -7 322 -7 C469 -7 521 109 549 270 C557 315 563 361 563 402 C563 506 526 586 391 586 C343 586 295 576 264 549 L303 769 L113 769 L-22 6 L114 -7 Z M279 157 C226 157 210 178 210 222 C210 241 212 264 217 290 C234 382 251 408 306 408 C349 408 364 391 364 352 C364 333 360 307 354 275 C338 181 324 157 279 157 L279 157 Z " />
<glyph glyph-name="c" unicode="c" horiz-adv-x="455" d="M230 -8 C272 -8 330 -3 391 24 L344 172 C314 162 292 157 265 157 C213 157 193 172 193 221 C193 239 195 260 200 287 C218 388 240 407 287 407 C324 407 347 399 365 388 L473 546 C436 565 388 586 289 586 C108 586 39 495 6 310 C-1 270 -5 234 -5 200 C-5 72 54 -8 230 -8 L230 -8 Z " />
<glyph glyph-name="d" unicode="d" horiz-adv-x="584" d="M165 -9 C227 -9 280 3 319 39 L322 -6 L478 6 L613 769 L422 769 L382 544 C356 568 325 586 234 586 C87 586 35 470 7 309 C-1 264 -7 218 -7 177 C-7 73 30 -9 165 -9 L165 -9 Z M249 158 C206 158 191 175 191 214 C191 233 195 259 201 291 C218 385 231 409 276 409 C329 409 345 388 345 344 C345 325 343 302 338 276 C321 184 304 158 249 158 L249 158 Z " />
<glyph glyph-name="e" unicode="e" horiz-adv-x="529" d="M236 -7 C305 -7 380 0 447 30 L399 178 C356 163 319 155 259 155 C196 155 177 169 177 211 L177 219 L476 219 C490 293 502 358 502 413 C502 521 456 586 287 586 C120 586 39 497 6 310 C-1 269 -6 231 -6 196 C-6 71 52 -7 236 -7 L236 -7 Z M275 420 C320 420 333 406 333 378 C333 367 331 355 329 340 L196 340 C209 400 224 420 275 420 L275 420 Z " />
<glyph glyph-name="f" unicode="f" horiz-adv-x="415" d="M15 409 L110 409 L10 -158 L201 -158 L301 409 L419 409 L448 575 L330 575 L332 583 C338 616 347 626 393 626 L457 626 L486 790 C464 792 449 793 404 793 C239 793 171 753 149 629 L139 575 L44 575 L15 409 Z " />
<glyph glyph-name="g" unicode="g" horiz-adv-x="569" d="M274 203 C396 203 524 231 524 386 C524 443 506 482 480 499 L565 499 L590 645 L329 585 C312 586 295 586 278 586 C150 586 31 540 31 363 C31 317 46 281 74 256 C48 232 33 203 33 171 C33 146 43 115 64 100 C-1 87 -69 52 -69 -40 C-69 -127 15 -169 200 -169 C368 -169 491 -138 491 30 C491 136 435 164 255 168 C203 169 198 179 198 197 L198 207 C221 204 246 203 274 203 L274 203 Z M212 -46 C143 -46 129 -29 129 -5 C129 36 147 46 201 46 C273 46 292 37 292 10 C292 -27 279 -46 212 -46 L212 -46 Z M270 311 C228 311 217 332 217 359 C217 413 236 441 281 441 C324 441 336 423 336 397 C336 343 321 311 270 311 L270 311 Z " />
<glyph glyph-name="h" unicode="h" horiz-adv-x="579" d="M-23 0 L168 0 L226 333 C235 381 245 403 295 403 C353 403 351 380 342 328 L284 0 L476 0 L540 364 C560 476 553 586 395 586 C343 586 290 569 263 549 L303 769 L113 769 L-23 0 Z " />
<glyph glyph-name="i" unicode="i" horiz-adv-x="285" d="M-18 0 L173 0 L274 575 L83 575 L-18 0 Z M89 615 L282 615 L310 769 L117 769 L89 615 Z " />
<glyph glyph-name="j" unicode="j" horiz-adv-x="285" d="M-93 -158 L-64 -158 C97 -158 150 -132 177 24 L274 575 L83 575 L-9 49 C-17 3 -20 -6 -54 -7 L-66 -7 L-93 -158 Z M89 615 L282 615 L310 769 L117 769 L89 615 Z " />
<glyph glyph-name="k" unicode="k" horiz-adv-x="545" d="M-23 0 L164 0 L188 136 L232 189 L288 0 L482 0 L381 344 L572 575 L366 575 L237 416 L300 769 L113 769 L-23 0 Z " />
<glyph glyph-name="l" unicode="l" horiz-adv-x="320" d="M227 0 L256 165 C206 165 203 169 210 210 L309 769 L118 769 L17 202 C-12 38 47 -3 155 -3 C197 -3 220 -1 227 0 L227 0 Z " />
<glyph glyph-name="m" unicode="m" horiz-adv-x="865" d="M-23 0 L166 0 L224 333 C233 381 242 403 290 403 C346 403 341 380 332 328 L274 0 L464 0 L522 333 C530 381 540 403 588 403 C644 403 639 380 630 328 L572 0 L762 0 L826 364 C846 476 841 586 688 586 C597 586 549 566 516 539 C489 572 457 586 390 586 C323 586 266 567 237 539 L232 576 L76 564 L-23 0 Z " />
<glyph glyph-name="n" unicode="n" horiz-adv-x="579" d="M-23 0 L168 0 L226 333 C235 381 245 403 295 403 C353 403 351 380 342 328 L284 0 L476 0 L540 364 C560 476 553 586 395 586 C325 586 266 567 237 539 L232 576 L76 564 L-23 0 Z " />
<glyph glyph-name="o" unicode="o" horiz-adv-x="565" d="M238 -9 C422 -9 497 72 531 264 C538 301 541 336 541 368 C541 498 482 586 299 586 C117 586 39 496 6 310 C0 273 -4 239 -4 207 C-4 75 58 -9 238 -9 L238 -9 Z M253 157 C205 157 190 177 190 217 C190 236 193 260 198 288 C213 375 225 408 282 408 C332 408 347 389 347 350 C347 331 343 307 338 278 C323 191 312 157 253 157 L253 157 Z " />
<glyph glyph-name="p" unicode="p" horiz-adv-x="584" d="M-51 -158 L140 -158 L174 35 C200 11 231 -7 322 -7 C469 -7 521 109 549 270 C557 315 563 361 563 402 C563 506 526 586 391 586 C329 586 276 574 237 538 L232 576 L76 564 L-51 -158 Z M279 157 C226 157 210 178 210 222 C210 241 212 264 217 290 C234 382 251 408 306 408 C349 408 364 391 364 352 C364 333 360 307 354 275 C338 181 324 157 279 157 L279 157 Z " />
<glyph glyph-name="q" unicode="q" horiz-adv-x="584" d="M259 -158 L449 -158 L577 566 L441 579 L401 544 C371 569 340 586 234 586 C87 586 35 470 7 309 C-1 264 -7 218 -7 177 C-7 73 30 -9 165 -9 C213 -9 251 -2 292 27 L259 -158 Z M249 158 C206 158 191 175 191 214 C191 233 195 259 201 291 C218 385 231 409 276 409 C329 409 345 388 345 344 C345 325 343 302 338 276 C321 184 304 158 249 158 L249 158 Z " />
<glyph glyph-name="r" unicode="r" horiz-adv-x="362" d="M-23 0 L169 0 L224 316 C234 370 238 399 364 399 L396 580 C316 580 272 566 238 533 L232 576 L76 564 L-23 0 Z " />
<glyph glyph-name="s" unicode="s" horiz-adv-x="476" d="M208 -7 C319 -7 431 29 431 179 C431 275 383 316 291 350 C240 369 213 376 213 394 C213 413 220 423 249 423 C303 423 351 409 383 392 L480 538 C432 567 359 586 265 586 C161 586 27 557 27 386 C27 298 73 258 156 225 C237 193 249 189 249 169 C249 150 238 143 215 143 C144 143 81 172 42 196 L-52 56 C10 21 93 -7 208 -7 L208 -7 Z " />
<glyph glyph-name="t" unicode="t" horiz-adv-x="437" d="M15 409 L106 409 L72 213 C44 57 85 -6 259 -6 C287 -6 305 -4 340 0 L369 165 L314 165 C258 165 256 181 262 215 L296 409 L412 409 L441 575 L325 575 L351 722 L194 688 L147 575 L44 575 L15 409 Z " />
<glyph glyph-name="u" unicode="u" horiz-adv-x="570" d="M243 -8 C415 -8 477 51 510 240 L568 575 L380 575 L325 262 C312 188 310 160 250 160 C193 160 199 196 212 270 L266 575 L74 575 L21 273 C-12 84 21 -8 243 -8 L243 -8 Z " />
<glyph glyph-name="v" unicode="v" horiz-adv-x="547" d="M104 -6 L310 -6 L586 575 L388 575 L260 270 L231 575 L33 575 L104 -6 Z " />
<glyph glyph-name="w" unicode="w" horiz-adv-x="782" d="M73 -6 L263 -6 L371 252 L391 -6 L578 -6 L810 575 L621 575 L541 349 L528 575 L349 575 L246 326 L246 575 L44 575 L73 -6 Z " />
<glyph glyph-name="x" unicode="x" horiz-adv-x="530" d="M271 0 L469 0 L354 291 L557 575 L358 575 L285 466 L243 575 L45 575 L150 307 L-69 0 L133 0 L220 130 L271 0 Z " />
<glyph glyph-name="y" unicode="y" horiz-adv-x="521" d="M-23 -158 L68 -158 C155 -158 209 -152 265 -38 L560 575 L365 575 L255 312 L232 575 L32 575 L105 7 C99 -3 95 -7 71 -7 L4 -7 L-23 -158 Z " />
<glyph glyph-name="z" unicode="z" horiz-adv-x="461" d="M-59 0 L392 0 L419 154 L207 154 L462 448 L484 575 L56 575 L27 409 L214 409 L-37 124 L-59 0 Z " />
<glyph glyph-name="braceleft" unicode="&#x7b;" horiz-adv-x="510" d="M249 -158 L355 -158 L383 -2 L313 -2 C280 -2 258 8 258 37 C258 76 325 171 325 240 C325 268 313 292 277 306 C343 327 355 377 355 422 C355 461 348 507 348 540 C348 595 376 606 420 606 L490 606 L519 769 L386 769 C227 769 161 711 161 597 C161 547 169 481 169 444 C169 390 150 386 53 386 L25 226 C102 226 127 223 127 195 C127 155 47 46 47 -40 C47 -112 100 -158 249 -158 L249 -158 Z " />
<glyph glyph-name="bar" unicode="&#x7c;" horiz-adv-x="362" d="M86 -158 L280 -158 L280 769 L86 769 L86 -158 Z " />
<glyph glyph-name="braceright" unicode="&#x7d;" horiz-adv-x="510" d="M-31 -158 L102 -158 C261 -158 327 -100 327 14 C327 64 319 130 319 167 C319 221 338 225 435 225 L463 385 C386 385 361 388 361 416 C361 456 441 565 441 651 C441 723 388 769 239 769 L133 769 L104 606 L174 606 C207 606 229 596 229 567 C229 528 163 440 163 371 C163 343 175 319 211 305 C145 284 133 234 133 189 C133 150 139 97 139 64 C139 9 111 -2 67 -2 L-3 -2 L-31 -158 Z " />
<glyph glyph-name="asciitilde" unicode="&#x7e;" horiz-adv-x="498" d="M176 331 C207 371 224 379 244 379 C281 379 333 336 399 336 C443 336 499 364 555 458 L441 534 C409 494 392 486 372 486 C335 486 292 529 225 529 C174 529 118 500 61 406 L176 331 Z " />
<glyph glyph-name="exclamdown" unicode="&#xa1;" horiz-adv-x="372" d="M17 0 L225 0 L296 496 L121 496 L17 0 Z M108 529 L321 529 L359 741 L146 741 L108 529 Z " />
<glyph glyph-name="cent" unicode="&#xa2;" horiz-adv-x="493" d="M105 -94 L289 -94 L306 1 C337 5 371 13 407 29 L363 172 C333 162 311 157 284 157 C232 157 212 172 212 221 C212 239 214 260 219 287 C237 388 259 407 306 407 C343 407 366 399 384 388 L489 543 C467 554 443 566 407 573 L420 646 L236 646 L223 574 C104 548 52 462 25 310 C18 270 14 234 14 200 C14 108 43 43 124 14 L105 -94 Z " />
<glyph glyph-name="sterling" unicode="&#xa3;" horiz-adv-x="601" d="M367 -5 C468 -5 526 33 554 201 L568 285 L402 285 L393 230 C384 174 376 155 343 155 C316 155 294 158 274 163 C283 194 287 227 287 263 L287 307 L390 307 L414 440 L286 440 L286 471 C286 537 293 575 350 575 C398 575 458 567 495 548 L599 697 C543 728 471 750 349 750 C214 750 101 692 101 490 C101 474 101 457 102 440 L30 440 L6 307 L110 307 C110 294 111 281 111 270 C111 176 110 166 -22 166 L-51 0 C43 -5 114 7 165 33 C217 9 285 -5 367 -5 L367 -5 Z " />
<glyph glyph-name="currency" unicode="&#xa4;" horiz-adv-x="633" d="M22 384 L116 384 C114 372 113 362 111 351 L16 351 L-3 244 L102 244 L102 232 C102 67 174 -9 350 -9 C416 -9 490 4 557 42 L488 191 C451 175 419 167 384 167 C326 167 302 192 298 244 L437 244 L456 351 L306 351 C308 359 309 368 311 377 C311 379 312 381 312 384 L462 384 L481 491 L338 491 C358 547 384 566 433 566 C482 566 518 552 550 530 L664 686 C610 722 550 750 440 750 C282 750 193 687 140 491 L41 491 L22 384 Z " />
<glyph glyph-name="yen" unicode="&#xa5;" horiz-adv-x="609" d="M37 210 L183 210 L177 177 L31 177 L12 70 L158 70 L146 0 L332 0 L344 70 L491 70 L510 177 L362 177 L368 210 L516 210 L535 317 L390 317 L672 741 L468 741 L325 494 L270 741 L69 741 L200 317 L56 317 L37 210 Z " />
<glyph glyph-name="brokenbar" unicode="&#xa6;" horiz-adv-x="362" d="M86 -158 L280 -158 L280 225 L86 225 L86 -158 Z M86 386 L280 386 L280 769 L86 769 L86 386 Z " />
<glyph glyph-name="section" unicode="&#xa7;" horiz-adv-x="514" d="M68 -4 C253 -4 291 68 314 192 L314 193 C414 205 469 260 469 399 C469 461 443 507 373 529 L374 533 C380 570 389 584 436 584 L478 584 L505 740 C487 742 484 743 443 743 C258 743 220 671 197 547 L195 537 C94 519 44 456 44 328 C44 269 68 227 136 205 L135 198 C128 161 121 147 73 147 L31 147 L6 -1 C24 -3 27 -4 68 -4 L68 -4 Z M256 304 C211 304 196 319 196 346 C196 395 221 413 259 413 C300 413 315 399 315 373 C315 324 292 304 256 304 L256 304 Z " />
<glyph glyph-name="dieresis" unicode="&#xa8;" horiz-adv-x="498" d="M106 625 L274 625 L301 779 L133 779 L106 625 Z M314 625 L482 625 L509 779 L341 779 L314 625 Z " />
<glyph glyph-name="copyright" unicode="&#xa9;" horiz-adv-x="669" d="M342 148 C405 148 442 160 481 184 L422 277 C396 260 376 254 349 254 C300 254 274 271 274 372 C274 475 301 487 348 487 C374 487 398 481 417 469 L481 568 C444 592 398 603 352 603 C192 603 153 510 153 375 C153 235 199 148 342 148 L342 148 Z M337 -9 C587 -9 648 160 648 370 C648 580 587 750 337 750 C85 750 26 580 26 370 C26 160 85 -9 337 -9 L337 -9 Z M337 56 C136 56 94 196 94 370 C94 544 136 685 337 685 C537 685 580 544 580 370 C580 196 537 56 337 56 L337 56 Z " />
<glyph glyph-name="ordfeminine" unicode="&#xaa;" horiz-adv-x="514" d="M187 269 C242 269 281 283 309 310 C320 278 341 272 401 272 C415 272 432 273 449 274 L473 408 C445 408 445 414 449 438 L474 577 C494 693 469 750 299 750 C235 750 177 744 125 725 L167 597 C194 606 232 611 275 611 C321 611 327 602 323 574 L266 574 C128 574 48 535 48 388 C48 320 79 269 187 269 L187 269 Z M17 101 L399 101 L422 235 L40 235 L17 101 Z M247 394 C211 394 200 405 201 424 C201 462 218 482 278 482 L306 482 L301 450 C293 406 275 394 247 394 L247 394 Z " />
<glyph glyph-name="guillemotleft" unicode="&#xab;" horiz-adv-x="709" d="M123 0 L290 0 L227 287 L391 575 L224 575 L46 287 L123 0 Z M391 0 L558 0 L495 287 L659 575 L492 575 L315 287 L391 0 Z " />
<glyph glyph-name="logicalnot" unicode="&#xac;" horiz-adv-x="832" d="M126 120 C126 120 129 123 134 127 C79 193 46 278 46 371 C46 464 79 549 133 615 C129 619 126 621 126 621 C70 554 36 466 36 371 C36 275 70 187 126 120 L126 120 Z M228 211 C230 213 233 215 235 218 C201 259 181 313 181 371 C181 429 202 483 235 524 C232 526 230 529 227 531 C192 487 171 432 171 371 C171 310 193 254 228 211 L228 211 Z M264 243 C267 245 269 248 272 250 C245 283 229 325 229 371 C229 417 245 459 272 492 C269 494 267 497 264 499 C236 464 219 419 219 371 C219 322 236 278 264 243 L264 243 Z M316 289 C319 291 321 294 324 296 C308 317 298 343 298 371 C298 399 308 425 323 445 C321 448 318 450 316 452 C298 430 288 402 288 371 C288 340 298 312 316 289 L316 289 Z M349 320 C352 323 354 325 357 327 C348 340 343 355 343 371 C343 387 348 402 357 415 C354 417 352 420 349 422 C339 408 333 390 333 371 C333 352 339 334 349 320 L349 320 Z M378 346 C382 349 384 351 384 351 C381 357 379 364 379 371 C379 378 381 385 384 391 C384 391 382 393 378 396 C374 389 371 380 371 371 C371 362 374 353 378 346 L378 346 Z M416 60 C493 60 563 89 616 136 C614 139 611 141 609 144 C558 98 490 70 416 70 C342 70 274 98 222 144 C222 145 215 137 215 137 C268 89 338 60 416 60 L416 60 Z M416 324 C426 324 435 327 442 333 C439 337 437 339 437 339 C431 334 424 332 416 332 C408 332 401 335 395 339 C395 339 391 334 389 333 C397 327 406 324 416 324 L416 324 Z M482 319 C493 334 499 352 499 371 C499 390 493 408 482 422 C483 422 475 415 475 415 C484 403 489 388 489 371 C489 355 484 339 475 326 C478 324 480 322 482 319 L482 319 Z M292 269 C295 271 298 274 300 276 C280 302 267 335 267 371 C267 407 280 440 300 466 L293 473 C270 445 257 410 257 371 C257 333 270 297 292 269 L292 269 Z M416 -17 C512 -17 600 19 667 80 C667 80 660 88 660 87 C595 29 510 -7 416 -7 C322 -7 236 29 171 88 L164 80 C231 20 320 -17 416 -17 L416 -17 Z M416 121 C478 121 534 144 576 182 C574 185 571 187 569 190 C529 153 475 131 416 131 C357 131 303 153 262 190 L255 182 C298 144 354 121 416 121 L416 121 Z M416 170 C465 170 510 188 544 218 C542 221 539 223 537 226 C505 197 462 180 416 180 C369 180 327 197 294 226 L287 219 C322 189 367 170 416 170 L416 170 Z M416 209 C455 209 491 224 518 247 C516 250 514 253 512 255 C486 233 452 219 416 219 C380 219 346 233 320 255 L313 247 C341 224 377 209 416 209 L416 209 Z M416 265 C441 265 463 274 481 289 C479 292 476 294 474 297 C458 283 438 275 416 275 C394 275 373 283 357 297 L350 289 C368 274 391 265 416 265 L416 265 Z M358 445 C374 459 394 467 416 467 C438 467 458 459 474 445 L482 453 C464 468 441 477 416 477 C391 477 368 468 350 453 C351 452 354 448 358 445 L358 445 Z M570 552 C572 554 575 557 577 560 C534 598 478 621 416 621 C355 621 299 598 256 560 L263 553 C304 589 357 611 416 611 C475 611 529 589 570 552 L570 552 Z M454 346 C458 353 461 362 461 371 C461 380 458 389 454 396 L448 391 C451 385 453 378 453 371 C453 364 451 357 448 351 C448 351 450 349 454 346 L454 346 Z M468 333 C476 344 480 357 480 371 C480 385 476 398 468 409 L460 402 C466 393 470 382 470 371 C470 360 466 349 460 340 C463 338 465 336 468 333 L468 333 Z M498 306 C511 325 519 347 519 371 C519 395 511 418 497 436 L490 429 C502 413 509 393 509 371 C509 349 502 329 490 313 C492 311 495 308 498 306 L498 306 Z M540 269 C562 297 575 332 575 371 C575 410 562 445 539 473 L531 466 C552 440 565 407 565 371 C565 335 552 302 532 276 C535 274 537 271 540 269 L540 269 Z M568 243 C596 278 613 322 613 371 C613 420 596 464 568 499 L560 492 C587 459 603 417 603 371 C603 325 587 283 560 250 C563 248 566 245 568 243 L568 243 Z M604 211 C640 254 661 310 661 371 C661 432 640 488 604 531 L596 524 C631 483 651 429 651 371 C651 313 631 260 596 218 C601 213 604 211 604 211 L604 211 Z M649 171 C694 225 721 295 721 371 C721 447 694 517 649 571 L641 564 C685 512 711 445 711 371 C711 297 685 230 642 177 C644 175 647 173 649 171 L649 171 Z M706 120 C762 188 796 276 796 371 C796 467 762 555 706 622 L698 615 C753 549 786 464 786 371 C786 278 753 193 698 127 C703 123 706 120 706 120 L706 120 Z M183 170 L190 177 C147 229 121 297 121 371 C121 444 147 512 190 564 C187 567 184 569 182 571 C138 517 111 447 111 371 C111 294 138 225 183 170 L183 170 Z M334 306 L342 314 C330 330 323 350 323 371 C323 393 330 413 342 429 C340 431 337 434 334 436 C321 418 313 395 313 371 C313 346 321 324 334 306 L334 306 Z M364 333 L371 340 C366 349 362 360 362 371 C362 382 366 393 371 402 C369 404 366 406 364 409 C356 398 352 385 352 371 C352 357 356 344 364 333 L364 333 Z M395 403 C401 408 408 410 416 410 C424 410 431 407 437 403 C437 403 439 406 442 409 C435 415 426 418 416 418 C406 418 397 415 390 409 L395 403 Z M384 416 C393 423 404 428 416 428 C428 428 439 424 448 416 C450 419 452 421 454 423 C443 432 430 437 416 437 C401 437 388 432 377 423 L384 416 Z M371 430 C383 441 399 447 416 447 C433 447 449 441 461 430 C461 430 464 434 468 438 C454 450 436 457 416 457 C397 457 378 450 364 438 L371 430 Z M295 516 C327 545 370 562 416 562 C462 562 505 545 538 516 C538 516 545 523 544 523 C510 554 465 572 416 572 C367 572 322 554 288 524 L295 516 Z M416 240 C448 240 476 252 498 271 L491 278 C471 261 445 250 416 250 C388 250 361 261 340 278 L333 270 C355 251 384 240 416 240 L416 240 Z M416 285 C436 285 454 292 468 304 L461 312 C448 301 433 295 416 295 C399 295 383 302 370 312 L363 304 C378 292 396 285 416 285 L416 285 Z M416 305 C430 305 444 310 455 319 L448 326 C439 319 428 314 416 314 C404 314 393 319 383 326 L376 319 C388 310 401 305 416 305 L416 305 Z M341 464 C362 482 388 492 416 492 C445 492 471 481 491 464 L498 472 C476 491 447 502 416 502 C385 502 356 490 334 471 L341 464 Z M320 487 C346 509 380 523 416 523 C453 523 486 510 512 487 L518 494 C491 518 455 533 416 533 C377 533 341 519 313 495 L320 487 Z M610 597 L617 605 C563 653 493 682 416 682 C339 682 269 653 215 605 L222 598 C274 644 342 672 416 672 C491 672 559 644 610 597 L610 597 Z M172 654 C237 713 322 749 416 749 C510 749 596 713 661 654 L668 662 C601 722 512 759 416 759 C320 759 232 723 165 662 L172 654 Z M516 290 C534 312 544 340 544 371 C544 402 534 430 516 453 L508 446 C524 425 534 399 534 371 C534 343 524 317 509 297 L516 290 Z " />
<glyph glyph-name="registered" unicode="&#xae;" horiz-adv-x="669" d="M337 -9 C587 -9 648 160 648 370 C648 580 587 750 337 750 C85 750 26 580 26 370 C26 160 85 -9 337 -9 L337 -9 Z M337 56 C136 56 94 196 94 370 C94 544 136 685 337 685 C537 685 580 544 580 370 C580 196 537 56 337 56 L337 56 Z M389 157 L506 157 L440 308 C494 332 508 382 508 445 C508 532 482 588 357 588 L177 588 L177 157 L291 157 L291 294 L331 294 L389 157 Z M291 386 L291 488 L353 488 C386 488 395 474 395 436 C395 400 386 386 353 386 L291 386 Z " />
<glyph glyph-name="&amp;#xaf;" unicode="&#xaf;" horiz-adv-x="498" d="M96 625 L492 625 L520 782 L124 782 L96 625 Z " />
<glyph glyph-name="&amp;#x2c9;" unicode="&#x2c9;" horiz-adv-x="498" d="M96 625 L492 625 L520 782 L124 782 L96 625 Z " />
<glyph glyph-name="degree" unicode="&#xb0;" horiz-adv-x="486" d="M243 258 C399 258 464 353 487 483 C492 509 494 535 494 561 C494 662 447 750 293 750 C134 750 71 651 48 521 C43 495 41 469 41 444 C41 343 86 258 243 258 L243 258 Z M253 400 C207 400 194 425 194 461 C194 474 196 488 199 502 C209 557 225 597 279 597 C325 597 339 571 339 535 C339 522 337 508 334 493 C324 438 308 400 253 400 L253 400 Z " />
<glyph glyph-name="plusminus" unicode="&#xb1;" horiz-adv-x="992" d="M318 -158 L509 -158 L609 409 L687 409 L716 575 L638 575 L640 583 C646 616 655 626 689 626 L725 626 L755 792 C742 793 728 793 700 793 C549 793 479 753 457 629 L447 575 L330 575 L332 583 C338 616 347 626 381 626 L417 626 L447 792 C434 793 420 793 392 793 C241 793 171 753 149 629 L139 575 L44 575 L15 409 L110 409 L10 -158 L201 -158 L301 409 L418 409 L318 -158 Z M827 -3 C869 -3 892 -1 899 0 L928 165 C878 165 875 169 882 210 L981 769 L790 769 L689 202 C660 38 719 -3 827 -3 L827 -3 Z " />
<glyph glyph-name="twosuperior" unicode="&#xb2;" horiz-adv-x="468" d="M19 238 L387 238 L408 360 L239 360 L291 403 C420 510 445 535 445 625 C445 699 393 748 273 748 C206 748 141 736 97 716 L138 592 C165 604 208 609 230 609 C267 609 287 606 287 582 C287 557 286 552 199 481 L39 350 L19 238 Z " />
<glyph glyph-name="threesuperior" unicode="&#xb3;" horiz-adv-x="476" d="M229 232 C369 232 436 287 436 427 C436 474 418 496 391 508 C433 517 460 581 460 640 C460 713 398 748 288 748 C230 748 149 740 104 720 L144 601 C181 612 218 614 248 614 C291 614 304 607 304 589 C304 556 288 553 240 554 L155 554 L135 444 L221 444 C269 444 285 434 285 410 C285 370 271 360 223 360 C172 360 135 378 107 400 L22 283 C65 255 127 232 229 232 L229 232 Z " />
<glyph glyph-name="acute" unicode="&#xb4;" horiz-adv-x="498" d="M190 625 L351 625 L538 823 L328 823 L190 625 Z " />
<glyph glyph-name="&amp;#xb5;" unicode="&#xb5;" horiz-adv-x="574" d="M-51 -158 L139 -158 L169 8 C190 -3 216 -8 247 -8 C419 -8 481 51 514 240 L572 575 L384 575 L329 262 C316 188 314 160 254 160 C197 160 203 196 216 270 L270 575 L78 575 L-51 -158 Z " />
<glyph glyph-name="&amp;#x3bc;" unicode="&#x3bc;" horiz-adv-x="574" d="M-51 -158 L139 -158 L169 8 C190 -3 216 -8 247 -8 C419 -8 481 51 514 240 L572 575 L384 575 L329 262 C316 188 314 160 254 160 C197 160 203 196 216 270 L270 575 L78 575 L-51 -158 Z " />
<glyph glyph-name="paragraph" unicode="&#xb6;" horiz-adv-x="611" d="M87 0 L272 0 L313 233 L362 233 L321 0 L506 0 L637 741 L338 741 C137 741 69 660 42 509 C38 485 35 461 35 438 C34 364 57 301 134 265 L87 0 Z M326 387 C254 387 231 409 231 452 C231 461 232 470 234 481 C245 545 270 569 326 569 L421 569 L389 387 L326 387 Z " />
<glyph glyph-name="&amp;#xb7;" unicode="&#xb7;" horiz-adv-x="291" d="M23 277 L236 277 L275 498 L62 498 L23 277 Z " />
<glyph glyph-name="&amp;#x2219;" unicode="&#x2219;" horiz-adv-x="291" d="M23 277 L236 277 L275 498 L62 498 L23 277 Z " />
<glyph glyph-name="cedilla" unicode="&#xb8;" horiz-adv-x="498" d="M167 -259 C249 -259 312 -238 312 -122 C312 -63 274 -38 218 -41 L235 7 L134 7 L101 -78 L127 -98 C164 -96 194 -95 194 -123 C194 -155 177 -160 153 -160 C122 -160 89 -151 63 -139 L20 -233 C56 -248 109 -259 167 -259 L167 -259 Z " />
<glyph glyph-name="onesuperior" unicode="&#xb9;" horiz-adv-x="354" d="M88 238 L247 238 L336 741 L110 741 L85 603 L152 603 L88 238 Z " />
<glyph glyph-name="ordmasculine" unicode="&#xba;" horiz-adv-x="514" d="M259 268 C408 268 469 334 496 489 C502 519 504 547 504 573 C504 679 457 750 308 750 C161 750 98 677 71 526 C66 496 63 469 63 443 C63 336 113 268 259 268 L259 268 Z M271 402 C232 402 220 419 220 451 C220 466 223 486 227 509 C239 579 249 606 295 606 C335 606 347 590 347 559 C347 543 344 524 340 500 C328 430 319 402 271 402 L271 402 Z M19 101 L401 101 L424 235 L42 235 L19 101 Z " />
<glyph glyph-name="guillemotright" unicode="&#xbb;" horiz-adv-x="709" d="M21 0 L188 0 L366 288 L289 575 L122 575 L186 288 L21 0 Z M289 0 L456 0 L634 288 L557 575 L390 575 L454 288 L289 0 Z " />
<glyph glyph-name="onequarter" unicode="&#xbc;" horiz-adv-x="999" d="M143 0 L312 0 L793 741 L625 741 L143 0 Z M494 74 L713 74 L700 0 L840 0 L853 74 L910 74 L931 195 L874 195 L891 287 L778 287 L736 195 L674 195 L901 503 L746 503 L514 188 L494 74 Z M88 238 L247 238 L336 741 L110 741 L85 603 L152 603 L88 238 Z " />
<glyph glyph-name="onehalf" unicode="&#xbd;" horiz-adv-x="1040" d="M143 0 L312 0 L793 741 L625 741 L143 0 Z M88 238 L247 238 L336 741 L110 741 L85 603 L152 603 L88 238 Z M566 0 L934 0 L955 122 L786 122 L838 165 C967 272 992 297 992 387 C992 461 940 510 820 510 C753 510 688 498 644 478 L685 354 C712 366 755 371 777 371 C814 371 834 368 834 344 C834 319 833 314 746 243 L586 112 L566 0 Z " />
<glyph glyph-name="threequarters" unicode="&#xbe;" horiz-adv-x="1099" d="M229 232 C369 232 436 287 436 427 C436 474 418 496 391 508 C433 517 460 581 460 640 C460 713 398 748 288 748 C230 748 149 740 104 720 L144 601 C181 612 218 614 248 614 C291 614 304 607 304 589 C304 556 288 553 240 554 L155 554 L135 444 L221 444 C269 444 285 434 285 410 C285 370 271 360 223 360 C172 360 135 378 107 400 L22 283 C65 255 127 232 229 232 L229 232 Z M243 0 L412 0 L893 741 L725 741 L243 0 Z M594 74 L813 74 L800 0 L940 0 L953 74 L1010 74 L1031 195 L974 195 L991 287 L878 287 L836 195 L774 195 L1001 503 L846 503 L614 188 L594 74 Z " />
<glyph glyph-name="questiondown" unicode="&#xbf;" horiz-adv-x="610" d="M254 -9 C344 -9 447 9 507 42 L428 198 C390 181 344 167 295 167 C229 167 211 185 211 210 C211 255 230 270 301 303 C418 358 431 417 442 514 L256 514 C243 439 242 430 151 383 C74 343 7 285 7 155 C7 63 66 -9 254 -9 L254 -9 Z M249 554 L462 554 L495 741 L282 741 L249 554 Z " />
<glyph glyph-name="Agrave" unicode="&#xc0;" horiz-adv-x="684" d="M-57 0 L147 0 L188 88 L395 88 L405 0 L611 0 L506 746 L312 746 L-57 0 Z M266 258 L355 449 L377 258 L266 258 Z M350 777 L505 777 L437 975 L233 975 L350 777 Z " />
<glyph glyph-name="Aacute" unicode="&#xc1;" horiz-adv-x="684" d="M-57 0 L147 0 L188 88 L395 88 L405 0 L611 0 L506 746 L312 746 L-57 0 Z M266 258 L355 449 L377 258 L266 258 Z M310 777 L471 777 L658 975 L448 975 L310 777 Z " />
<glyph glyph-name="Acircumflex" unicode="&#xc2;" horiz-adv-x="684" d="M-57 0 L147 0 L188 88 L395 88 L405 0 L611 0 L506 746 L312 746 L-57 0 Z M266 258 L355 449 L377 258 L266 258 Z M219 777 L368 777 L427 844 L463 777 L609 777 L536 975 L362 975 L219 777 Z " />
<glyph glyph-name="Atilde" unicode="&#xc3;" horiz-adv-x="684" d="M-57 0 L147 0 L188 88 L395 88 L405 0 L611 0 L506 746 L312 746 L-57 0 Z M266 258 L355 449 L377 258 L266 258 Z M296 770 C327 810 344 818 364 818 C401 818 453 775 519 775 C563 775 619 803 675 897 L561 973 C529 933 512 925 492 925 C455 925 412 968 345 968 C294 968 238 939 181 845 L296 770 Z " />
<glyph glyph-name="Adieresis" unicode="&#xc4;" horiz-adv-x="684" d="M-57 0 L147 0 L188 88 L395 88 L405 0 L611 0 L506 746 L312 746 L-57 0 Z M266 258 L355 449 L377 258 L266 258 Z M226 777 L394 777 L421 931 L253 931 L226 777 Z M434 777 L602 777 L629 931 L461 931 L434 777 Z " />
<glyph glyph-name="Aring" unicode="&#xc5;" horiz-adv-x="684" d="M-57 0 L147 0 L188 88 L395 88 L405 0 L611 0 L512 703 C541 734 557 779 557 835 C557 902 523 953 433 953 C331 953 277 884 277 775 C277 750 281 726 293 708 L-57 0 Z M266 258 L355 449 L377 258 L266 258 Z M410 747 C379 747 368 764 368 788 C368 837 387 865 425 865 C456 865 465 849 465 825 C465 776 450 747 410 747 L410 747 Z " />
<glyph glyph-name="AE" unicode="&#xc6;" horiz-adv-x="974" d="M-60 0 L144 0 L201 88 L406 88 L390 0 L870 0 L901 176 L615 176 L635 287 L909 287 L940 463 L666 463 L683 560 L969 560 L1001 741 L423 741 L-60 0 Z M310 258 L483 529 L435 258 L310 258 Z " />
<glyph glyph-name="Ccedilla" unicode="&#xc7;" horiz-adv-x="582" d="M209 -259 C291 -259 354 -238 354 -122 C354 -63 316 -38 260 -41 L271 -9 L287 -9 C366 -9 444 7 511 48 L425 197 C392 177 352 168 316 168 C249 168 213 189 213 274 C213 300 216 332 223 371 C254 543 299 557 359 557 C417 557 457 539 488 522 L601 695 C546 732 466 750 393 750 C156 750 63 619 23 395 C15 349 10 305 10 264 C10 135 56 39 175 5 L143 -78 L169 -98 C206 -96 236 -95 236 -123 C236 -155 219 -160 195 -160 C164 -160 131 -151 105 -139 L62 -233 C98 -248 151 -259 209 -259 L209 -259 Z " />
<glyph glyph-name="Egrave" unicode="&#xc8;" horiz-adv-x="572" d="M-12 0 L468 0 L499 176 L213 176 L233 287 L507 287 L538 463 L264 463 L281 560 L567 560 L599 741 L119 741 L-12 0 Z M294 777 L449 777 L381 975 L177 975 L294 777 Z " />
<glyph glyph-name="Eacute" unicode="&#xc9;" horiz-adv-x="572" d="M-12 0 L468 0 L499 176 L213 176 L233 287 L507 287 L538 463 L264 463 L281 560 L567 560 L599 741 L119 741 L-12 0 Z M254 777 L415 777 L602 975 L392 975 L254 777 Z " />
<glyph glyph-name="Ecircumflex" unicode="&#xca;" horiz-adv-x="572" d="M-12 0 L468 0 L499 176 L213 176 L233 287 L507 287 L538 463 L264 463 L281 560 L567 560 L599 741 L119 741 L-12 0 Z M163 777 L312 777 L371 844 L407 777 L553 777 L480 975 L306 975 L163 777 Z " />
<glyph glyph-name="Edieresis" unicode="&#xcb;" horiz-adv-x="572" d="M-12 0 L468 0 L499 176 L213 176 L233 287 L507 287 L538 463 L264 463 L281 560 L567 560 L599 741 L119 741 L-12 0 Z M170 777 L338 777 L365 931 L197 931 L170 777 Z M378 777 L546 777 L573 931 L405 931 L378 777 Z " />
<glyph glyph-name="Igrave" unicode="&#xcc;" horiz-adv-x="324" d="M149 777 L304 777 L236 975 L32 975 L149 777 Z M-2 0 L196 0 L327 741 L129 741 L-2 0 Z " />
<glyph glyph-name="Iacute" unicode="&#xcd;" horiz-adv-x="324" d="M149 777 L310 777 L477 975 L267 975 L149 777 Z M-2 0 L196 0 L327 741 L129 741 L-2 0 Z " />
<glyph glyph-name="Icircumflex" unicode="&#xce;" horiz-adv-x="324" d="M-2 0 L196 0 L327 741 L129 741 L-2 0 Z M38 777 L187 777 L246 844 L282 777 L428 777 L355 975 L181 975 L38 777 Z " />
<glyph glyph-name="Idieresis" unicode="&#xcf;" horiz-adv-x="324" d="M-2 0 L196 0 L327 741 L129 741 L-2 0 Z M45 777 L213 777 L240 931 L72 931 L45 777 Z M253 777 L421 777 L448 931 L280 931 L253 777 Z " />
<glyph glyph-name="Eth" unicode="&#xd0;" horiz-adv-x="659" d="M-14 288 L39 288 L-12 0 L264 0 C466 0 582 37 636 343 C646 398 651 446 651 488 C651 679 549 741 336 741 L119 741 L67 448 L14 448 L-14 288 Z M216 171 L236 288 L318 288 L346 448 L265 448 L285 561 L324 561 C402 561 446 552 446 460 C446 434 442 401 435 360 C402 173 353 171 295 171 L216 171 Z " />
<glyph glyph-name="Ntilde" unicode="&#xd1;" horiz-adv-x="693" d="M-12 0 L176 0 L244 385 L394 0 L576 0 L707 741 L518 741 L456 397 L327 741 L119 741 L-12 0 Z M300 770 C331 810 348 818 368 818 C405 818 457 775 523 775 C567 775 623 803 679 897 L565 973 C533 933 516 925 496 925 C459 925 416 968 349 968 C298 968 242 939 185 845 L300 770 Z " />
<glyph glyph-name="Ograve" unicode="&#xd2;" horiz-adv-x="683" d="M305 -9 C542 -9 625 143 660 341 C668 385 673 430 673 473 C673 623 610 750 372 750 C141 750 58 596 23 397 C15 353 10 309 10 266 C10 117 73 -9 305 -9 L305 -9 Z M313 166 C235 166 211 206 211 271 C211 300 217 334 223 372 C244 493 270 559 370 559 C447 559 469 518 469 454 C469 424 465 390 458 352 C436 230 411 166 313 166 L313 166 Z M349 777 L504 777 L436 975 L232 975 L349 777 Z " />
<glyph glyph-name="Oacute" unicode="&#xd3;" horiz-adv-x="683" d="M305 -9 C542 -9 625 143 660 341 C668 385 673 430 673 473 C673 623 610 750 372 750 C141 750 58 596 23 397 C15 353 10 309 10 266 C10 117 73 -9 305 -9 L305 -9 Z M313 166 C235 166 211 206 211 271 C211 300 217 334 223 372 C244 493 270 559 370 559 C447 559 469 518 469 454 C469 424 465 390 458 352 C436 230 411 166 313 166 L313 166 Z M309 777 L470 777 L657 975 L447 975 L309 777 Z " />
<glyph glyph-name="Ocircumflex" unicode="&#xd4;" horiz-adv-x="683" d="M305 -9 C542 -9 625 143 660 341 C668 385 673 430 673 473 C673 623 610 750 372 750 C141 750 58 596 23 397 C15 353 10 309 10 266 C10 117 73 -9 305 -9 L305 -9 Z M313 166 C235 166 211 206 211 271 C211 300 217 334 223 372 C244 493 270 559 370 559 C447 559 469 518 469 454 C469 424 465 390 458 352 C436 230 411 166 313 166 L313 166 Z M218 777 L367 777 L426 844 L462 777 L608 777 L535 975 L361 975 L218 777 Z " />
<glyph glyph-name="Otilde" unicode="&#xd5;" horiz-adv-x="683" d="M305 -9 C542 -9 625 143 660 341 C668 385 673 430 673 473 C673 623 610 750 372 750 C141 750 58 596 23 397 C15 353 10 309 10 266 C10 117 73 -9 305 -9 L305 -9 Z M313 166 C235 166 211 206 211 271 C211 300 217 334 223 372 C244 493 270 559 370 559 C447 559 469 518 469 454 C469 424 465 390 458 352 C436 230 411 166 313 166 L313 166 Z M295 770 C326 810 343 818 363 818 C400 818 452 775 518 775 C562 775 618 803 674 897 L560 973 C528 933 511 925 491 925 C454 925 411 968 344 968 C293 968 237 939 180 845 L295 770 Z " />
<glyph glyph-name="Odieresis" unicode="&#xd6;" horiz-adv-x="683" d="M305 -9 C542 -9 625 143 660 341 C668 385 673 430 673 473 C673 623 610 750 372 750 C141 750 58 596 23 397 C15 353 10 309 10 266 C10 117 73 -9 305 -9 L305 -9 Z M313 166 C235 166 211 206 211 271 C211 300 217 334 223 372 C244 493 270 559 370 559 C447 559 469 518 469 454 C469 424 465 390 458 352 C436 230 411 166 313 166 L313 166 Z M225 777 L393 777 L420 931 L252 931 L225 777 Z M433 777 L601 777 L628 931 L460 931 L433 777 Z " />
<glyph glyph-name="multiply" unicode="&#xd7;" horiz-adv-x="638" d="M153 110 L298 233 L399 111 L533 231 L432 352 L577 474 L478 593 L334 471 L234 593 L99 474 L199 352 L54 229 L153 110 Z " />
<glyph glyph-name="Oslash" unicode="&#xd8;" horiz-adv-x="683" d="M305 -9 C542 -9 625 143 660 341 C668 385 673 430 673 473 C673 546 658 615 614 665 L693 783 L539 783 L505 732 C469 744 424 750 372 750 C141 750 58 596 23 397 C15 353 10 309 10 266 C10 192 25 124 68 74 L-8 -41 L146 -41 L178 7 C213 -3 255 -9 305 -9 L305 -9 Z M312 156 C297 156 284 158 272 160 L475 466 L475 459 C475 427 471 391 464 351 C441 223 415 156 312 156 L312 156 Z M217 372 C239 500 267 569 372 569 C383 569 393 568 402 566 L205 268 C205 299 211 334 217 372 L217 372 Z " />
<glyph glyph-name="Ugrave" unicode="&#xd9;" horiz-adv-x="685" d="M310 -12 C494 -12 587 72 619 257 L704 741 L511 741 L431 289 C414 195 389 166 319 166 C249 166 226 185 226 234 C226 249 228 268 232 289 L312 741 L113 741 L32 283 C27 253 24 225 24 199 C24 65 101 -12 310 -12 L310 -12 Z M350 777 L505 777 L437 975 L233 975 L350 777 Z " />
<glyph glyph-name="Uacute" unicode="&#xda;" horiz-adv-x="685" d="M310 -12 C494 -12 587 72 619 257 L704 741 L511 741 L431 289 C414 195 389 166 319 166 C249 166 226 185 226 234 C226 249 228 268 232 289 L312 741 L113 741 L32 283 C27 253 24 225 24 199 C24 65 101 -12 310 -12 L310 -12 Z M310 777 L471 777 L658 975 L448 975 L310 777 Z " />
<glyph glyph-name="Ucircumflex" unicode="&#xdb;" horiz-adv-x="685" d="M310 -12 C494 -12 587 72 619 257 L704 741 L511 741 L431 289 C414 195 389 166 319 166 C249 166 226 185 226 234 C226 249 228 268 232 289 L312 741 L113 741 L32 283 C27 253 24 225 24 199 C24 65 101 -12 310 -12 L310 -12 Z M219 777 L368 777 L427 844 L463 777 L609 777 L536 975 L362 975 L219 777 Z " />
<glyph glyph-name="Udieresis" unicode="&#xdc;" horiz-adv-x="685" d="M310 -12 C494 -12 587 72 619 257 L704 741 L511 741 L431 289 C414 195 389 166 319 166 C249 166 226 185 226 234 C226 249 228 268 232 289 L312 741 L113 741 L32 283 C27 253 24 225 24 199 C24 65 101 -12 310 -12 L310 -12 Z M226 777 L394 777 L421 931 L253 931 L226 777 Z M434 777 L602 777 L629 931 L461 931 L434 777 Z " />
<glyph glyph-name="Yacute" unicode="&#xdd;" horiz-adv-x="652" d="M161 0 L359 0 L402 243 L723 741 L514 741 L342 461 L270 741 L61 741 L204 244 L161 0 Z M294 777 L455 777 L642 975 L432 975 L294 777 Z " />
<glyph glyph-name="Thorn" unicode="&#xde;" horiz-adv-x="631" d="M-12 0 L183 0 L206 127 L340 127 C524 127 588 217 614 366 C619 395 622 422 622 448 C622 566 564 642 350 642 L296 642 L314 741 L119 741 L-12 0 Z M234 288 L266 470 L343 470 C402 470 422 449 422 409 C422 398 420 386 418 372 C407 310 386 288 337 288 L234 288 Z " />
<glyph glyph-name="germandbls" unicode="&#xdf;" horiz-adv-x="590" d="M-51 -158 L138 -158 L259 530 C268 578 286 599 328 599 C368 599 382 586 382 555 C382 547 381 537 379 526 C370 471 352 448 314 448 L292 448 L268 312 L276 312 C341 312 365 301 365 264 C365 257 364 249 362 240 C352 184 336 170 279 170 L243 170 L213 0 L282 0 C440 0 516 26 546 194 C551 223 554 250 554 273 C554 352 530 396 482 408 C536 429 554 466 572 566 C575 584 577 601 577 618 C577 720 514 782 343 782 C177 782 100 698 77 568 L-51 -158 Z " />
<glyph glyph-name="agrave" unicode="&#xe0;" horiz-adv-x="558" d="M160 -7 C216 -7 266 11 299 44 C313 5 338 -3 412 -3 C430 -3 451 -2 472 0 L501 165 C467 165 467 172 472 202 L502 374 C527 517 496 588 287 588 C208 588 136 580 72 556 L124 398 C157 410 204 416 257 416 C315 416 321 405 316 370 L246 370 C76 370 -23 322 -23 140 C-23 57 15 -7 160 -7 L160 -7 Z M222 148 C178 148 165 161 165 189 C165 232 187 257 261 257 L296 257 L289 217 C279 162 262 148 222 148 L222 148 Z M260 625 L415 625 L347 823 L143 823 L260 625 Z " />
<glyph glyph-name="aacute" unicode="&#xe1;" horiz-adv-x="558" d="M160 -7 C216 -7 266 11 299 44 C313 5 338 -3 412 -3 C430 -3 451 -2 472 0 L501 165 C467 165 467 172 472 202 L502 374 C527 517 496 588 287 588 C208 588 136 580 72 556 L124 398 C157 410 204 416 257 416 C315 416 321 405 316 370 L246 370 C76 370 -23 322 -23 140 C-23 57 15 -7 160 -7 L160 -7 Z M222 148 C178 148 165 161 165 189 C165 232 187 257 261 257 L296 257 L289 217 C279 162 262 148 222 148 L222 148 Z M220 625 L381 625 L568 823 L358 823 L220 625 Z " />
<glyph glyph-name="acircumflex" unicode="&#xe2;" horiz-adv-x="558" d="M160 -7 C216 -7 266 11 299 44 C313 5 338 -3 412 -3 C430 -3 451 -2 472 0 L501 165 C467 165 467 172 472 202 L502 374 C527 517 496 588 287 588 C208 588 136 580 72 556 L124 398 C157 410 204 416 257 416 C315 416 321 405 316 370 L246 370 C76 370 -23 322 -23 140 C-23 57 15 -7 160 -7 L160 -7 Z M222 148 C178 148 165 161 165 189 C165 232 187 257 261 257 L296 257 L289 217 C279 162 262 148 222 148 L222 148 Z M129 625 L278 625 L337 692 L373 625 L519 625 L446 823 L272 823 L129 625 Z " />
<glyph glyph-name="atilde" unicode="&#xe3;" horiz-adv-x="558" d="M160 -7 C216 -7 266 11 299 44 C313 5 338 -3 412 -3 C430 -3 451 -2 472 0 L501 165 C467 165 467 172 472 202 L502 374 C527 517 496 588 287 588 C208 588 136 580 72 556 L124 398 C157 410 204 416 257 416 C315 416 321 405 316 370 L246 370 C76 370 -23 322 -23 140 C-23 57 15 -7 160 -7 L160 -7 Z M222 148 C178 148 165 161 165 189 C165 232 187 257 261 257 L296 257 L289 217 C279 162 262 148 222 148 L222 148 Z M206 618 C237 658 254 666 274 666 C311 666 363 623 429 623 C473 623 529 651 585 745 L471 821 C439 781 422 773 402 773 C365 773 322 816 255 816 C204 816 148 787 91 693 L206 618 Z " />
<glyph glyph-name="adieresis" unicode="&#xe4;" horiz-adv-x="558" d="M160 -7 C216 -7 266 11 299 44 C313 5 338 -3 412 -3 C430 -3 451 -2 472 0 L501 165 C467 165 467 172 472 202 L502 374 C527 517 496 588 287 588 C208 588 136 580 72 556 L124 398 C157 410 204 416 257 416 C315 416 321 405 316 370 L246 370 C76 370 -23 322 -23 140 C-23 57 15 -7 160 -7 L160 -7 Z M222 148 C178 148 165 161 165 189 C165 232 187 257 261 257 L296 257 L289 217 C279 162 262 148 222 148 L222 148 Z M136 625 L304 625 L331 779 L163 779 L136 625 Z M344 625 L512 625 L539 779 L371 779 L344 625 Z " />
<glyph glyph-name="aring" unicode="&#xe5;" horiz-adv-x="558" d="M160 -7 C216 -7 266 11 299 44 C313 5 338 -3 412 -3 C430 -3 451 -2 472 0 L501 165 C467 165 467 172 472 202 L502 374 C527 517 496 588 287 588 C208 588 136 580 72 556 L124 398 C157 410 204 416 257 416 C315 416 321 405 316 370 L246 370 C76 370 -23 322 -23 140 C-23 57 15 -7 160 -7 L160 -7 Z M222 148 C178 148 165 161 165 189 C165 232 187 257 261 257 L296 257 L289 217 C279 162 262 148 222 148 L222 148 Z M341 702 C310 702 299 719 299 743 C299 792 318 820 356 820 C387 820 396 804 396 780 C396 731 381 702 341 702 L341 702 Z M335 615 C430 615 488 684 488 790 C488 857 454 908 364 908 C262 908 208 839 208 730 C208 665 240 615 335 615 L335 615 Z " />
<glyph glyph-name="ae" unicode="&#xe6;" horiz-adv-x="819" d="M526 -7 C595 -7 670 0 737 30 L689 178 C646 163 609 155 549 155 C486 155 467 169 467 211 L467 219 L766 219 C780 293 792 358 792 413 C792 521 746 586 577 586 C523 586 481 577 446 558 C415 578 365 588 287 588 C208 588 136 580 72 556 L124 398 C157 410 204 416 257 416 C315 416 321 405 316 370 L246 370 C76 370 -23 322 -23 140 C-23 57 15 -7 160 -7 C241 -7 289 8 342 52 C374 14 430 -7 526 -7 L526 -7 Z M222 148 C178 148 164 161 165 189 C165 232 187 257 261 257 L296 257 L289 217 C279 163 262 148 222 148 L222 148 Z M565 420 C610 420 623 408 623 378 C623 367 621 355 619 340 L486 340 C499 400 512 420 565 420 L565 420 Z " />
<glyph glyph-name="ccedilla" unicode="&#xe7;" horiz-adv-x="455" d="M145 -259 C227 -259 290 -238 290 -122 C290 -63 252 -38 196 -41 L208 -7 C215 -8 222 -8 230 -8 C272 -8 330 -3 391 24 L344 172 C314 162 292 157 265 157 C213 157 193 172 193 221 C193 239 195 260 200 287 C218 388 240 407 287 407 C324 407 347 399 365 388 L473 546 C436 565 388 586 289 586 C108 586 39 495 6 310 C-1 270 -5 234 -5 200 C-5 104 28 36 117 7 L112 7 L79 -78 L105 -98 C142 -96 172 -95 172 -123 C172 -155 155 -160 131 -160 C100 -160 67 -151 41 -139 L-2 -233 C34 -248 87 -259 145 -259 L145 -259 Z " />
<glyph glyph-name="egrave" unicode="&#xe8;" horiz-adv-x="529" d="M236 -7 C305 -7 380 0 447 30 L399 178 C356 163 319 155 259 155 C196 155 177 169 177 211 L177 219 L476 219 C490 293 502 358 502 413 C502 521 456 586 287 586 C120 586 39 497 6 310 C-1 269 -6 231 -6 196 C-6 71 52 -7 236 -7 L236 -7 Z M275 420 C320 420 333 406 333 378 C333 367 331 355 329 340 L196 340 C209 400 224 420 275 420 L275 420 Z M245 625 L400 625 L332 823 L128 823 L245 625 Z " />
<glyph glyph-name="eacute" unicode="&#xe9;" horiz-adv-x="529" d="M236 -7 C305 -7 380 0 447 30 L399 178 C356 163 319 155 259 155 C196 155 177 169 177 211 L177 219 L476 219 C490 293 502 358 502 413 C502 521 456 586 287 586 C120 586 39 497 6 310 C-1 269 -6 231 -6 196 C-6 71 52 -7 236 -7 L236 -7 Z M275 420 C320 420 333 406 333 378 C333 367 331 355 329 340 L196 340 C209 400 224 420 275 420 L275 420 Z M205 625 L366 625 L553 823 L343 823 L205 625 Z " />
<glyph glyph-name="ecircumflex" unicode="&#xea;" horiz-adv-x="529" d="M236 -7 C305 -7 380 0 447 30 L399 178 C356 163 319 155 259 155 C196 155 177 169 177 211 L177 219 L476 219 C490 293 502 358 502 413 C502 521 456 586 287 586 C120 586 39 497 6 310 C-1 269 -6 231 -6 196 C-6 71 52 -7 236 -7 L236 -7 Z M275 420 C320 420 333 406 333 378 C333 367 331 355 329 340 L196 340 C209 400 224 420 275 420 L275 420 Z M114 625 L263 625 L322 692 L358 625 L504 625 L431 823 L257 823 L114 625 Z " />
<glyph glyph-name="edieresis" unicode="&#xeb;" horiz-adv-x="529" d="M236 -7 C305 -7 380 0 447 30 L399 178 C356 163 319 155 259 155 C196 155 177 169 177 211 L177 219 L476 219 C490 293 502 358 502 413 C502 521 456 586 287 586 C120 586 39 497 6 310 C-1 269 -6 231 -6 196 C-6 71 52 -7 236 -7 L236 -7 Z M275 420 C320 420 333 406 333 378 C333 367 331 355 329 340 L196 340 C209 400 224 420 275 420 L275 420 Z M121 625 L289 625 L316 779 L148 779 L121 625 Z M329 625 L497 625 L524 779 L356 779 L329 625 Z " />
<glyph glyph-name="igrave" unicode="&#xec;" horiz-adv-x="285" d="M101 625 L256 625 L230 823 L26 823 L101 625 Z M-18 0 L173 0 L274 575 L83 575 L-18 0 Z " />
<glyph glyph-name="iacute" unicode="&#xed;" horiz-adv-x="285" d="M103 625 L264 625 L411 823 L201 823 L103 625 Z M-17 0 L174 0 L275 575 L84 575 L-17 0 Z " />
<glyph glyph-name="icircumflex" unicode="&#xee;" horiz-adv-x="285" d="M12 625 L151 625 L200 692 L226 625 L362 625 L309 823 L135 823 L12 625 Z M-17 0 L174 0 L275 575 L84 575 L-17 0 Z " />
<glyph glyph-name="idieresis" unicode="&#xef;" horiz-adv-x="285" d="M19 625 L167 625 L194 779 L46 779 L19 625 Z M207 625 L355 625 L382 779 L234 779 L207 625 Z M-17 0 L174 0 L275 575 L84 575 L-17 0 Z " />
<glyph glyph-name="eth" unicode="&#xf0;" horiz-adv-x="567" d="M259 539 L351 555 C356 531 360 508 362 489 C339 511 311 522 246 522 C112 522 25 439 1 295 C-4 268 -6 238 -6 207 C-6 73 68 -9 249 -9 C442 -9 502 93 538 298 C545 338 548 381 548 424 C548 479 543 535 533 587 L592 598 L612 709 L507 691 C494 730 478 765 460 792 L295 710 C304 695 313 677 321 658 L279 651 L259 539 Z M258 157 C204 157 189 179 189 215 C189 229 192 246 195 265 C206 329 218 370 279 370 C328 370 341 348 341 313 C341 298 339 279 335 260 C324 197 312 157 258 157 L258 157 Z " />
<glyph glyph-name="ntilde" unicode="&#xf1;" horiz-adv-x="579" d="M-23 0 L168 0 L226 333 C235 381 245 403 295 403 C353 403 351 380 342 328 L284 0 L476 0 L540 364 C560 476 553 586 395 586 C325 586 266 567 237 539 L232 576 L76 564 L-23 0 Z M216 618 C247 658 264 666 284 666 C321 666 373 623 439 623 C483 623 539 651 595 745 L481 821 C449 781 432 773 412 773 C375 773 332 816 265 816 C214 816 158 787 101 693 L216 618 Z " />
<glyph glyph-name="ograve" unicode="&#xf2;" horiz-adv-x="565" d="M238 -9 C422 -9 497 72 531 264 C538 301 541 336 541 368 C541 498 482 586 299 586 C117 586 39 496 6 310 C0 273 -4 239 -4 207 C-4 75 58 -9 238 -9 L238 -9 Z M253 157 C205 157 190 177 190 217 C190 236 193 260 198 288 C213 375 225 408 282 408 C332 408 347 389 347 350 C347 331 343 307 338 278 C323 191 312 157 253 157 L253 157 Z M263 625 L418 625 L350 823 L146 823 L263 625 Z " />
<glyph glyph-name="oacute" unicode="&#xf3;" horiz-adv-x="565" d="M238 -9 C422 -9 497 72 531 264 C538 301 541 336 541 368 C541 498 482 586 299 586 C117 586 39 496 6 310 C0 273 -4 239 -4 207 C-4 75 58 -9 238 -9 L238 -9 Z M253 157 C205 157 190 177 190 217 C190 236 193 260 198 288 C213 375 225 408 282 408 C332 408 347 389 347 350 C347 331 343 307 338 278 C323 191 312 157 253 157 L253 157 Z M223 625 L384 625 L571 823 L361 823 L223 625 Z " />
<glyph glyph-name="ocircumflex" unicode="&#xf4;" horiz-adv-x="565" d="M238 -9 C422 -9 497 72 531 264 C538 301 541 336 541 368 C541 498 482 586 299 586 C117 586 39 496 6 310 C0 273 -4 239 -4 207 C-4 75 58 -9 238 -9 L238 -9 Z M253 157 C205 157 190 177 190 217 C190 236 193 260 198 288 C213 375 225 408 282 408 C332 408 347 389 347 350 C347 331 343 307 338 278 C323 191 312 157 253 157 L253 157 Z M132 625 L281 625 L340 692 L376 625 L522 625 L449 823 L275 823 L132 625 Z " />
<glyph glyph-name="otilde" unicode="&#xf5;" horiz-adv-x="565" d="M238 -9 C422 -9 497 72 531 264 C538 301 541 336 541 368 C541 498 482 586 299 586 C117 586 39 496 6 310 C0 273 -4 239 -4 207 C-4 75 58 -9 238 -9 L238 -9 Z M253 157 C205 157 190 177 190 217 C190 236 193 260 198 288 C213 375 225 408 282 408 C332 408 347 389 347 350 C347 331 343 307 338 278 C323 191 312 157 253 157 L253 157 Z M209 618 C240 658 257 666 277 666 C314 666 366 623 432 623 C476 623 532 651 588 745 L474 821 C442 781 425 773 405 773 C368 773 325 816 258 816 C207 816 151 787 94 693 L209 618 Z " />
<glyph glyph-name="odieresis" unicode="&#xf6;" horiz-adv-x="565" d="M238 -9 C422 -9 497 72 531 264 C538 301 541 336 541 368 C541 498 482 586 299 586 C117 586 39 496 6 310 C0 273 -4 239 -4 207 C-4 75 58 -9 238 -9 L238 -9 Z M253 157 C205 157 190 177 190 217 C190 236 193 260 198 288 C213 375 225 408 282 408 C332 408 347 389 347 350 C347 331 343 307 338 278 C323 191 312 157 253 157 L253 157 Z M139 625 L307 625 L334 779 L166 779 L139 625 Z M347 625 L515 625 L542 779 L374 779 L347 625 Z " />
<glyph glyph-name="divide" unicode="&#xf7;" horiz-adv-x="638" d="M174 73 L358 73 L385 225 L201 225 L174 73 Z M53 265 L549 265 L580 440 L84 440 L53 265 Z M246 480 L430 480 L456 632 L272 632 L246 480 Z " />
<glyph glyph-name="oslash" unicode="&#xf8;" horiz-adv-x="565" d="M238 -9 C422 -9 497 72 531 264 C538 301 541 336 541 368 C541 424 530 472 503 509 L585 619 L447 619 L412 570 C381 580 344 586 299 586 C117 586 39 496 6 310 C0 273 -4 239 -4 207 C-4 148 8 99 38 62 L-40 -44 L96 -44 L131 4 C161 -4 196 -9 238 -9 L238 -9 Z M254 151 C246 151 239 151 233 152 L348 310 C347 300 345 289 343 278 C327 186 316 151 254 151 L254 151 Z M196 288 C212 380 225 414 284 414 C291 414 297 413 303 413 L191 260 C192 269 194 278 196 288 L196 288 Z " />
<glyph glyph-name="ugrave" unicode="&#xf9;" horiz-adv-x="570" d="M243 -8 C415 -8 477 51 510 240 L568 575 L380 575 L325 262 C312 188 310 160 250 160 C193 160 199 196 212 270 L266 575 L74 575 L21 273 C-12 84 21 -8 243 -8 L243 -8 Z M266 625 L421 625 L353 823 L149 823 L266 625 Z " />
<glyph glyph-name="uacute" unicode="&#xfa;" horiz-adv-x="570" d="M243 -8 C415 -8 477 51 510 240 L568 575 L380 575 L325 262 C312 188 310 160 250 160 C193 160 199 196 212 270 L266 575 L74 575 L21 273 C-12 84 21 -8 243 -8 L243 -8 Z M226 625 L387 625 L574 823 L364 823 L226 625 Z " />
<glyph glyph-name="ucircumflex" unicode="&#xfb;" horiz-adv-x="570" d="M243 -8 C415 -8 477 51 510 240 L568 575 L380 575 L325 262 C312 188 310 160 250 160 C193 160 199 196 212 270 L266 575 L74 575 L21 273 C-12 84 21 -8 243 -8 L243 -8 Z M135 625 L284 625 L343 692 L379 625 L525 625 L452 823 L278 823 L135 625 Z " />
<glyph glyph-name="udieresis" unicode="&#xfc;" horiz-adv-x="570" d="M243 -8 C415 -8 477 51 510 240 L568 575 L380 575 L325 262 C312 188 310 160 250 160 C193 160 199 196 212 270 L266 575 L74 575 L21 273 C-12 84 21 -8 243 -8 L243 -8 Z M142 625 L310 625 L337 779 L169 779 L142 625 Z M350 625 L518 625 L545 779 L377 779 L350 625 Z " />
<glyph glyph-name="yacute" unicode="&#xfd;" horiz-adv-x="521" d="M-23 -158 L68 -158 C155 -158 209 -152 265 -38 L560 575 L365 575 L255 312 L232 575 L32 575 L105 7 C99 -3 95 -7 71 -7 L4 -7 L-23 -158 Z M201 625 L362 625 L549 823 L339 823 L201 625 Z " />
<glyph glyph-name="thorn" unicode="&#xfe;" horiz-adv-x="584" d="M-51 -158 L140 -158 L174 35 C200 11 231 -7 322 -7 C469 -7 521 109 549 270 C557 315 563 361 563 402 C563 506 526 586 391 586 C329 586 296 573 264 549 L303 769 L113 769 L-51 -158 Z M279 157 C226 157 210 178 210 222 C210 241 212 264 217 290 C234 382 251 408 306 408 C349 408 364 391 364 352 C364 333 360 307 354 275 C338 181 324 157 279 157 L279 157 Z " />
<glyph glyph-name="ydieresis" unicode="&#xff;" horiz-adv-x="521" d="M-23 -158 L68 -158 C155 -158 209 -152 265 -38 L560 575 L365 575 L255 312 L232 575 L32 575 L105 7 C99 -3 95 -7 71 -7 L4 -7 L-23 -158 Z M117 625 L285 625 L312 779 L144 779 L117 625 Z M325 625 L493 625 L520 779 L352 779 L325 625 Z " />
<glyph glyph-name="dotlessi" unicode="&#x131;" horiz-adv-x="285" d="M-18 0 L173 0 L274 575 L83 575 L-18 0 Z " />
<glyph glyph-name="Lslash" unicode="&#x141;" horiz-adv-x="523" d="M-21 249 L37 280 L-12 0 L452 0 L483 176 L217 176 L256 396 L359 451 L387 610 L284 555 L317 741 L119 741 L66 440 L7 409 L-21 249 Z " />
<glyph glyph-name="lslash" unicode="&#x142;" horiz-adv-x="380" d="M9 306 L82 345 L54 183 C27 31 87 -3 195 -3 C237 -3 260 -1 267 0 L296 165 C246 165 243 169 250 210 L293 456 L373 498 L402 664 L323 622 L349 769 L158 769 L112 511 L38 472 L9 306 Z " />
<glyph glyph-name="OE" unicode="&#x152;" horiz-adv-x="992" d="M278 -5 C323 -5 365 3 402 18 L399 0 L859 0 L890 176 L604 176 L624 287 L898 287 L929 463 L655 463 L672 560 L958 560 L990 741 L530 741 L526 720 C488 738 438 747 372 747 C141 747 58 596 23 397 C15 353 10 309 10 266 C10 117 73 -5 278 -5 L278 -5 Z M313 166 C235 166 211 206 211 271 C211 300 217 334 223 372 C244 493 270 559 370 559 C447 559 469 518 469 454 C469 424 465 390 458 352 C436 230 411 166 313 166 L313 166 Z " />
<glyph glyph-name="oe" unicode="&#x153;" horiz-adv-x="857" d="M564 -7 C633 -7 708 0 775 30 L727 178 C684 163 647 155 587 155 C524 155 505 169 505 211 L505 219 L804 219 C818 293 830 358 830 413 C830 521 784 586 615 586 C547 586 497 571 459 541 C427 570 377 586 299 586 C117 586 39 496 6 310 C0 273 -4 239 -4 207 C-4 75 58 -9 238 -9 C312 -9 363 4 401 32 C435 7 486 -7 564 -7 L564 -7 Z M253 157 C205 157 190 177 190 217 C190 236 193 260 198 288 C213 375 225 408 282 408 C332 408 347 389 347 350 C347 331 343 307 338 278 C323 191 312 157 253 157 L253 157 Z M603 420 C648 420 661 408 661 378 C661 367 659 355 657 340 L524 340 C537 400 550 420 603 420 L603 420 Z " />
<glyph glyph-name="Scaron" unicode="&#x160;" horiz-adv-x="601" d="M274 -9 C449 -9 557 68 557 250 C557 352 496 402 346 449 C282 469 257 480 257 516 C257 558 288 570 345 570 C411 570 476 547 508 528 L604 694 C554 725 468 751 354 751 C201 751 60 698 60 494 C60 404 112 345 230 306 C334 271 359 263 359 221 C359 183 340 155 276 155 C176 155 104 192 64 222 L-45 72 C24 20 135 -9 274 -9 L274 -9 Z M285 777 L459 777 L602 975 L453 975 L394 908 L358 975 L212 975 L285 777 Z " />
<glyph glyph-name="scaron" unicode="&#x161;" horiz-adv-x="476" d="M208 -7 C319 -7 431 29 431 179 C431 275 383 316 291 350 C240 369 213 376 213 394 C213 413 220 423 249 423 C303 423 351 409 383 392 L480 538 C432 567 359 586 265 586 C161 586 27 557 27 386 C27 298 73 258 156 225 C237 193 249 189 249 169 C249 150 238 143 215 143 C144 143 81 172 42 196 L-52 56 C10 21 93 -7 208 -7 L208 -7 Z M196 625 L370 625 L513 823 L364 823 L305 756 L269 823 L123 823 L196 625 Z " />
<glyph glyph-name="Ydieresis" unicode="&#x178;" horiz-adv-x="652" d="M161 0 L359 0 L402 243 L723 741 L514 741 L342 461 L270 741 L61 741 L204 244 L161 0 Z M210 777 L378 777 L405 931 L237 931 L210 777 Z M418 777 L586 777 L613 931 L445 931 L418 777 Z " />
<glyph glyph-name="Zcaron" unicode="&#x17d;" horiz-adv-x="575" d="M-48 0 L491 0 L522 176 L232 176 L584 578 L613 741 L97 741 L65 560 L337 560 L-22 148 L-48 0 Z M272 777 L446 777 L589 975 L440 975 L381 908 L345 975 L199 975 L272 777 Z " />
<glyph glyph-name="zcaron" unicode="&#x17e;" horiz-adv-x="461" d="M-59 0 L392 0 L419 154 L207 154 L462 448 L484 575 L56 575 L27 409 L214 409 L-37 124 L-59 0 Z M188 625 L362 625 L505 823 L356 823 L297 756 L261 823 L115 823 L188 625 Z " />
<glyph glyph-name="florin" unicode="&#x192;" horiz-adv-x="549" d="M55 300 L146 300 L65 -158 L256 -158 L336 300 L471 300 L500 466 L365 466 L376 528 C382 561 391 574 430 574 L471 574 L500 738 C477 740 447 741 411 741 C246 741 208 671 191 556 L175 466 L84 466 L55 300 Z " />
<glyph glyph-name="circumflex" unicode="&#x2c6;" horiz-adv-x="498" d="M99 625 L248 625 L307 692 L343 625 L489 625 L416 823 L242 823 L99 625 Z " />
<glyph glyph-name="caron" unicode="&#x2c7;" horiz-adv-x="498" d="M207 625 L381 625 L524 823 L375 823 L316 756 L280 823 L134 823 L207 625 Z " />
<glyph glyph-name="breve" unicode="&#x2d8;" horiz-adv-x="498" d="M325 619 C440 619 500 681 532 821 L399 839 C385 777 372 761 329 761 C286 761 263 772 264 839 L127 820 C130 683 154 619 325 619 L325 619 Z " />
<glyph glyph-name="dotaccent" unicode="&#x2d9;" horiz-adv-x="498" d="M198 625 L391 625 L418 779 L225 779 L198 625 Z " />
<glyph glyph-name="ring" unicode="&#x2da;" horiz-adv-x="498" d="M311 702 C280 702 269 719 269 743 C269 792 288 820 326 820 C357 820 366 804 366 780 C366 731 351 702 311 702 L311 702 Z M305 615 C400 615 458 684 458 790 C458 857 424 908 334 908 C232 908 178 839 178 730 C178 665 210 615 305 615 L305 615 Z " />
<glyph glyph-name="ogonek" unicode="&#x2db;" horiz-adv-x="498" d="M188 -248 L222 -248 L241 -142 L213 -142 C186 -142 173 -133 173 -113 C173 -74 224 -18 284 27 L169 27 C125 7 39 -66 39 -155 C39 -226 95 -248 188 -248 L188 -248 Z " />
<glyph glyph-name="tilde" unicode="&#x2dc;" horiz-adv-x="498" d="M176 618 C207 658 224 666 244 666 C281 666 333 623 399 623 C443 623 499 651 555 745 L441 821 C409 781 392 773 372 773 C335 773 292 816 225 816 C174 816 118 787 61 693 L176 618 Z " />
<glyph glyph-name="hungarumlaut" unicode="&#x2dd;" horiz-adv-x="498" d="M99 625 L243 625 L423 823 L230 823 L99 625 Z M321 625 L465 625 L645 823 L452 823 L321 625 Z " />
<glyph glyph-name="&amp;#x394;" unicode="&#x394;" horiz-adv-x="649" d="M15 409 L110 409 L10 -158 L201 -158 L301 409 L379 409 L408 575 L330 575 L332 583 C338 616 347 626 381 626 L417 626 L447 792 C434 793 420 793 392 793 C241 793 171 753 149 629 L139 575 L44 575 L15 409 Z M271 -158 L300 -158 C461 -158 514 -132 541 24 L638 575 L447 575 L355 49 C347 3 344 -6 310 -7 L298 -7 L271 -158 Z M453 615 L646 615 L674 769 L481 769 L453 615 Z " />
<glyph glyph-name="&amp;#x2206;" unicode="&#x2206;" horiz-adv-x="649" d="M15 409 L110 409 L10 -158 L201 -158 L301 409 L379 409 L408 575 L330 575 L332 583 C338 616 347 626 381 626 L417 626 L447 792 C434 793 420 793 392 793 C241 793 171 753 149 629 L139 575 L44 575 L15 409 Z M271 -158 L300 -158 C461 -158 514 -132 541 24 L638 575 L447 575 L355 49 C347 3 344 -6 310 -7 L298 -7 L271 -158 Z M453 615 L646 615 L674 769 L481 769 L453 615 Z " />
<glyph glyph-name="&amp;#x3a9;" unicode="&#x3a9;" horiz-adv-x="832" d="M126 120 C126 120 129 123 134 127 C79 193 46 278 46 371 C46 464 79 549 133 615 C129 619 126 621 126 621 C70 554 36 466 36 371 C36 275 70 187 126 120 L126 120 Z M228 211 C230 213 233 215 235 218 C201 259 181 313 181 371 C181 429 202 483 235 524 C232 526 230 529 227 531 C192 487 171 432 171 371 C171 310 193 254 228 211 L228 211 Z M264 243 C267 245 269 248 272 250 C245 283 229 325 229 371 C229 417 245 459 272 492 C269 494 267 497 264 499 C236 464 219 419 219 371 C219 322 236 278 264 243 L264 243 Z M316 289 C319 291 321 294 324 296 C308 317 298 343 298 371 C298 399 308 425 323 445 C321 448 318 450 316 452 C298 430 288 402 288 371 C288 340 298 312 316 289 L316 289 Z M349 320 C352 323 354 325 357 327 C348 340 343 355 343 371 C343 387 348 402 357 415 C354 417 352 420 349 422 C339 408 333 390 333 371 C333 352 339 334 349 320 L349 320 Z M378 346 C382 349 384 351 384 351 C381 357 379 364 379 371 C379 378 381 385 384 391 C384 391 382 393 378 396 C374 389 371 380 371 371 C371 362 374 353 378 346 L378 346 Z M416 60 C493 60 563 89 616 136 C614 139 611 141 609 144 C558 98 490 70 416 70 C342 70 274 98 222 144 C222 145 215 137 215 137 C268 89 338 60 416 60 L416 60 Z M416 324 C426 324 435 327 442 333 C439 337 437 339 437 339 C431 334 424 332 416 332 C408 332 401 335 395 339 C395 339 391 334 389 333 C397 327 406 324 416 324 L416 324 Z M482 319 C493 334 499 352 499 371 C499 390 493 408 482 422 C483 422 475 415 475 415 C484 403 489 388 489 371 C489 355 484 339 475 326 C478 324 480 322 482 319 L482 319 Z M292 269 C295 271 298 274 300 276 C280 302 267 335 267 371 C267 407 280 440 300 466 L293 473 C270 445 257 410 257 371 C257 333 270 297 292 269 L292 269 Z M416 -17 C512 -17 600 19 667 80 C667 80 660 88 660 87 C595 29 510 -7 416 -7 C322 -7 236 29 171 88 L164 80 C231 20 320 -17 416 -17 L416 -17 Z M416 121 C478 121 534 144 576 182 C574 185 571 187 569 190 C529 153 475 131 416 131 C357 131 303 153 262 190 L255 182 C298 144 354 121 416 121 L416 121 Z M416 170 C465 170 510 188 544 218 C542 221 539 223 537 226 C505 197 462 180 416 180 C369 180 327 197 294 226 L287 219 C322 189 367 170 416 170 L416 170 Z M416 209 C455 209 491 224 518 247 C516 250 514 253 512 255 C486 233 452 219 416 219 C380 219 346 233 320 255 L313 247 C341 224 377 209 416 209 L416 209 Z M416 265 C441 265 463 274 481 289 C479 292 476 294 474 297 C458 283 438 275 416 275 C394 275 373 283 357 297 L350 289 C368 274 391 265 416 265 L416 265 Z M358 445 C374 459 394 467 416 467 C438 467 458 459 474 445 L482 453 C464 468 441 477 416 477 C391 477 368 468 350 453 C351 452 354 448 358 445 L358 445 Z M570 552 C572 554 575 557 577 560 C534 598 478 621 416 621 C355 621 299 598 256 560 L263 553 C304 589 357 611 416 611 C475 611 529 589 570 552 L570 552 Z M454 346 C458 353 461 362 461 371 C461 380 458 389 454 396 L448 391 C451 385 453 378 453 371 C453 364 451 357 448 351 C448 351 450 349 454 346 L454 346 Z M468 333 C476 344 480 357 480 371 C480 385 476 398 468 409 L460 402 C466 393 470 382 470 371 C470 360 466 349 460 340 C463 338 465 336 468 333 L468 333 Z M498 306 C511 325 519 347 519 371 C519 395 511 418 497 436 L490 429 C502 413 509 393 509 371 C509 349 502 329 490 313 C492 311 495 308 498 306 L498 306 Z M540 269 C562 297 575 332 575 371 C575 410 562 445 539 473 L531 466 C552 440 565 407 565 371 C565 335 552 302 532 276 C535 274 537 271 540 269 L540 269 Z M568 243 C596 278 613 322 613 371 C613 420 596 464 568 499 L560 492 C587 459 603 417 603 371 C603 325 587 283 560 250 C563 248 566 245 568 243 L568 243 Z M604 211 C640 254 661 310 661 371 C661 432 640 488 604 531 L596 524 C631 483 651 429 651 371 C651 313 631 260 596 218 C601 213 604 211 604 211 L604 211 Z M649 171 C694 225 721 295 721 371 C721 447 694 517 649 571 L641 564 C685 512 711 445 711 371 C711 297 685 230 642 177 C644 175 647 173 649 171 L649 171 Z M706 120 C762 188 796 276 796 371 C796 467 762 555 706 622 L698 615 C753 549 786 464 786 371 C786 278 753 193 698 127 C703 123 706 120 706 120 L706 120 Z M183 170 L190 177 C147 229 121 297 121 371 C121 444 147 512 190 564 C187 567 184 569 182 571 C138 517 111 447 111 371 C111 294 138 225 183 170 L183 170 Z M334 306 L342 314 C330 330 323 350 323 371 C323 393 330 413 342 429 C340 431 337 434 334 436 C321 418 313 395 313 371 C313 346 321 324 334 306 L334 306 Z M364 333 L371 340 C366 349 362 360 362 371 C362 382 366 393 371 402 C369 404 366 406 364 409 C356 398 352 385 352 371 C352 357 356 344 364 333 L364 333 Z M395 403 C401 408 408 410 416 410 C424 410 431 407 437 403 C437 403 439 406 442 409 C435 415 426 418 416 418 C406 418 397 415 390 409 L395 403 Z M384 416 C393 423 404 428 416 428 C428 428 439 424 448 416 C450 419 452 421 454 423 C443 432 430 437 416 437 C401 437 388 432 377 423 L384 416 Z M371 430 C383 441 399 447 416 447 C433 447 449 441 461 430 C461 430 464 434 468 438 C454 450 436 457 416 457 C397 457 378 450 364 438 L371 430 Z M295 516 C327 545 370 562 416 562 C462 562 505 545 538 516 C538 516 545 523 544 523 C510 554 465 572 416 572 C367 572 322 554 288 524 L295 516 Z M416 240 C448 240 476 252 498 271 L491 278 C471 261 445 250 416 250 C388 250 361 261 340 278 L333 270 C355 251 384 240 416 240 L416 240 Z M416 285 C436 285 454 292 468 304 L461 312 C448 301 433 295 416 295 C399 295 383 302 370 312 L363 304 C378 292 396 285 416 285 L416 285 Z M416 305 C430 305 444 310 455 319 L448 326 C439 319 428 314 416 314 C404 314 393 319 383 326 L376 319 C388 310 401 305 416 305 L416 305 Z M341 464 C362 482 388 492 416 492 C445 492 471 481 491 464 L498 472 C476 491 447 502 416 502 C385 502 356 490 334 471 L341 464 Z M320 487 C346 509 380 523 416 523 C453 523 486 510 512 487 L518 494 C491 518 455 533 416 533 C377 533 341 519 313 495 L320 487 Z M610 597 L617 605 C563 653 493 682 416 682 C339 682 269 653 215 605 L222 598 C274 644 342 672 416 672 C491 672 559 644 610 597 L610 597 Z M172 654 C237 713 322 749 416 749 C510 749 596 713 661 654 L668 662 C601 722 512 759 416 759 C320 759 232 723 165 662 L172 654 Z M516 290 C534 312 544 340 544 371 C544 402 534 430 516 453 L508 446 C524 425 534 399 534 371 C534 343 524 317 509 297 L516 290 Z " />
<glyph glyph-name="&amp;#x2126;" unicode="&#x2126;" horiz-adv-x="832" d="M126 120 C126 120 129 123 134 127 C79 193 46 278 46 371 C46 464 79 549 133 615 C129 619 126 621 126 621 C70 554 36 466 36 371 C36 275 70 187 126 120 L126 120 Z M228 211 C230 213 233 215 235 218 C201 259 181 313 181 371 C181 429 202 483 235 524 C232 526 230 529 227 531 C192 487 171 432 171 371 C171 310 193 254 228 211 L228 211 Z M264 243 C267 245 269 248 272 250 C245 283 229 325 229 371 C229 417 245 459 272 492 C269 494 267 497 264 499 C236 464 219 419 219 371 C219 322 236 278 264 243 L264 243 Z M316 289 C319 291 321 294 324 296 C308 317 298 343 298 371 C298 399 308 425 323 445 C321 448 318 450 316 452 C298 430 288 402 288 371 C288 340 298 312 316 289 L316 289 Z M349 320 C352 323 354 325 357 327 C348 340 343 355 343 371 C343 387 348 402 357 415 C354 417 352 420 349 422 C339 408 333 390 333 371 C333 352 339 334 349 320 L349 320 Z M378 346 C382 349 384 351 384 351 C381 357 379 364 379 371 C379 378 381 385 384 391 C384 391 382 393 378 396 C374 389 371 380 371 371 C371 362 374 353 378 346 L378 346 Z M416 60 C493 60 563 89 616 136 C614 139 611 141 609 144 C558 98 490 70 416 70 C342 70 274 98 222 144 C222 145 215 137 215 137 C268 89 338 60 416 60 L416 60 Z M416 324 C426 324 435 327 442 333 C439 337 437 339 437 339 C431 334 424 332 416 332 C408 332 401 335 395 339 C395 339 391 334 389 333 C397 327 406 324 416 324 L416 324 Z M482 319 C493 334 499 352 499 371 C499 390 493 408 482 422 C483 422 475 415 475 415 C484 403 489 388 489 371 C489 355 484 339 475 326 C478 324 480 322 482 319 L482 319 Z M292 269 C295 271 298 274 300 276 C280 302 267 335 267 371 C267 407 280 440 300 466 L293 473 C270 445 257 410 257 371 C257 333 270 297 292 269 L292 269 Z M416 -17 C512 -17 600 19 667 80 C667 80 660 88 660 87 C595 29 510 -7 416 -7 C322 -7 236 29 171 88 L164 80 C231 20 320 -17 416 -17 L416 -17 Z M416 121 C478 121 534 144 576 182 C574 185 571 187 569 190 C529 153 475 131 416 131 C357 131 303 153 262 190 L255 182 C298 144 354 121 416 121 L416 121 Z M416 170 C465 170 510 188 544 218 C542 221 539 223 537 226 C505 197 462 180 416 180 C369 180 327 197 294 226 L287 219 C322 189 367 170 416 170 L416 170 Z M416 209 C455 209 491 224 518 247 C516 250 514 253 512 255 C486 233 452 219 416 219 C380 219 346 233 320 255 L313 247 C341 224 377 209 416 209 L416 209 Z M416 265 C441 265 463 274 481 289 C479 292 476 294 474 297 C458 283 438 275 416 275 C394 275 373 283 357 297 L350 289 C368 274 391 265 416 265 L416 265 Z M358 445 C374 459 394 467 416 467 C438 467 458 459 474 445 L482 453 C464 468 441 477 416 477 C391 477 368 468 350 453 C351 452 354 448 358 445 L358 445 Z M570 552 C572 554 575 557 577 560 C534 598 478 621 416 621 C355 621 299 598 256 560 L263 553 C304 589 357 611 416 611 C475 611 529 589 570 552 L570 552 Z M454 346 C458 353 461 362 461 371 C461 380 458 389 454 396 L448 391 C451 385 453 378 453 371 C453 364 451 357 448 351 C448 351 450 349 454 346 L454 346 Z M468 333 C476 344 480 357 480 371 C480 385 476 398 468 409 L460 402 C466 393 470 382 470 371 C470 360 466 349 460 340 C463 338 465 336 468 333 L468 333 Z M498 306 C511 325 519 347 519 371 C519 395 511 418 497 436 L490 429 C502 413 509 393 509 371 C509 349 502 329 490 313 C492 311 495 308 498 306 L498 306 Z M540 269 C562 297 575 332 575 371 C575 410 562 445 539 473 L531 466 C552 440 565 407 565 371 C565 335 552 302 532 276 C535 274 537 271 540 269 L540 269 Z M568 243 C596 278 613 322 613 371 C613 420 596 464 568 499 L560 492 C587 459 603 417 603 371 C603 325 587 283 560 250 C563 248 566 245 568 243 L568 243 Z M604 211 C640 254 661 310 661 371 C661 432 640 488 604 531 L596 524 C631 483 651 429 651 371 C651 313 631 260 596 218 C601 213 604 211 604 211 L604 211 Z M649 171 C694 225 721 295 721 371 C721 447 694 517 649 571 L641 564 C685 512 711 445 711 371 C711 297 685 230 642 177 C644 175 647 173 649 171 L649 171 Z M706 120 C762 188 796 276 796 371 C796 467 762 555 706 622 L698 615 C753 549 786 464 786 371 C786 278 753 193 698 127 C703 123 706 120 706 120 L706 120 Z M183 170 L190 177 C147 229 121 297 121 371 C121 444 147 512 190 564 C187 567 184 569 182 571 C138 517 111 447 111 371 C111 294 138 225 183 170 L183 170 Z M334 306 L342 314 C330 330 323 350 323 371 C323 393 330 413 342 429 C340 431 337 434 334 436 C321 418 313 395 313 371 C313 346 321 324 334 306 L334 306 Z M364 333 L371 340 C366 349 362 360 362 371 C362 382 366 393 371 402 C369 404 366 406 364 409 C356 398 352 385 352 371 C352 357 356 344 364 333 L364 333 Z M395 403 C401 408 408 410 416 410 C424 410 431 407 437 403 C437 403 439 406 442 409 C435 415 426 418 416 418 C406 418 397 415 390 409 L395 403 Z M384 416 C393 423 404 428 416 428 C428 428 439 424 448 416 C450 419 452 421 454 423 C443 432 430 437 416 437 C401 437 388 432 377 423 L384 416 Z M371 430 C383 441 399 447 416 447 C433 447 449 441 461 430 C461 430 464 434 468 438 C454 450 436 457 416 457 C397 457 378 450 364 438 L371 430 Z M295 516 C327 545 370 562 416 562 C462 562 505 545 538 516 C538 516 545 523 544 523 C510 554 465 572 416 572 C367 572 322 554 288 524 L295 516 Z M416 240 C448 240 476 252 498 271 L491 278 C471 261 445 250 416 250 C388 250 361 261 340 278 L333 270 C355 251 384 240 416 240 L416 240 Z M416 285 C436 285 454 292 468 304 L461 312 C448 301 433 295 416 295 C399 295 383 302 370 312 L363 304 C378 292 396 285 416 285 L416 285 Z M416 305 C430 305 444 310 455 319 L448 326 C439 319 428 314 416 314 C404 314 393 319 383 326 L376 319 C388 310 401 305 416 305 L416 305 Z M341 464 C362 482 388 492 416 492 C445 492 471 481 491 464 L498 472 C476 491 447 502 416 502 C385 502 356 490 334 471 L341 464 Z M320 487 C346 509 380 523 416 523 C453 523 486 510 512 487 L518 494 C491 518 455 533 416 533 C377 533 341 519 313 495 L320 487 Z M610 597 L617 605 C563 653 493 682 416 682 C339 682 269 653 215 605 L222 598 C274 644 342 672 416 672 C491 672 559 644 610 597 L610 597 Z M172 654 C237 713 322 749 416 749 C510 749 596 713 661 654 L668 662 C601 722 512 759 416 759 C320 759 232 723 165 662 L172 654 Z M516 290 C534 312 544 340 544 371 C544 402 534 430 516 453 L508 446 C524 425 534 399 534 371 C534 343 524 317 509 297 L516 290 Z " />
<glyph glyph-name="pi" unicode="&#x3c0;" horiz-adv-x="669" d="M337 -9 C587 -9 648 160 648 370 C648 580 587 750 337 750 C85 750 26 580 26 370 C26 160 85 -9 337 -9 L337 -9 Z M337 56 C136 56 94 196 94 370 C94 544 136 685 337 685 C537 685 580 544 580 370 C580 196 537 56 337 56 L337 56 Z M186 143 L303 143 L303 279 L369 279 C501 279 527 347 527 437 C527 527 500 588 371 588 L186 588 L186 143 Z M303 375 L303 485 L367 485 C401 485 411 468 411 429 C411 392 401 375 367 375 L303 375 Z " />
<glyph glyph-name="endash" unicode="&#x2013;" horiz-adv-x="645" d="M4 258 L600 258 L631 433 L35 433 L4 258 Z " />
<glyph glyph-name="emdash" unicode="&#x2014;" horiz-adv-x="823" d="M4 258 L779 258 L810 433 L35 433 L4 258 Z " />
<glyph glyph-name="quoteleft" unicode="&#x2018;" horiz-adv-x="291" d="M33 336 L246 336 L285 555 L192 555 C199 597 212 607 294 647 L260 741 C112 686 86 638 66 520 L33 336 Z " />
<glyph glyph-name="quoteright" unicode="&#x2019;" horiz-adv-x="291" d="M91 336 C239 391 264 439 285 557 L318 741 L105 741 L66 522 L159 522 C152 480 139 470 57 430 L91 336 Z " />
<glyph glyph-name="quotesinglbase" unicode="&#x201a;" horiz-adv-x="291" d="M-1 -186 C147 -131 172 -83 193 35 L226 219 L13 219 L-26 0 L67 0 C60 -42 47 -52 -35 -92 L-1 -186 Z " />
<glyph glyph-name="quotedblleft" unicode="&#x201c;" horiz-adv-x="538" d="M35 347 L242 347 L280 562 L189 562 C196 602 208 612 288 652 L256 741 C112 688 88 648 68 531 L35 347 Z M289 347 L495 347 L533 562 L442 562 C449 602 462 612 542 652 L509 741 C365 688 342 648 322 531 L289 347 Z " />
<glyph glyph-name="quotedblright" unicode="&#x201d;" horiz-adv-x="538" d="M91 347 C235 400 258 440 278 557 L311 741 L105 741 L67 526 L158 526 C151 486 138 476 58 436 L91 347 Z M344 347 C488 400 512 440 532 557 L565 741 L358 741 L320 526 L411 526 C404 486 392 476 312 436 L344 347 Z " />
<glyph glyph-name="quotedblbase" unicode="&#x201e;" horiz-adv-x="538" d="M-1 -175 C143 -122 166 -82 186 35 L219 219 L13 219 L-25 4 L66 4 C59 -36 46 -46 -34 -86 L-1 -175 Z M252 -175 C396 -122 420 -82 440 35 L473 219 L266 219 L228 4 L319 4 C312 -36 300 -46 220 -86 L252 -175 Z " />
<glyph glyph-name="dagger" unicode="&#x2020;" horiz-adv-x="550" d="M87 -158 L276 -158 L370 373 L518 373 L549 550 L401 550 L440 769 L251 769 L212 550 L65 550 L34 373 L181 373 L87 -158 Z " />
<glyph glyph-name="daggerdbl" unicode="&#x2021;" horiz-adv-x="550" d="M87 -158 L276 -158 L315 60 L463 60 L494 237 L346 237 L370 373 L518 373 L549 550 L401 550 L440 769 L251 769 L212 550 L65 550 L34 373 L181 373 L157 237 L10 237 L-21 60 L126 60 L87 -158 Z " />
<glyph glyph-name="bullet" unicode="&#x2022;" horiz-adv-x="367" d="M33 169 L263 169 L310 439 L80 439 L33 169 Z " />
<glyph glyph-name="ellipsis" unicode="&#x2026;" horiz-adv-x="839" d="M-26 0 L187 0 L225 216 L12 216 L-26 0 Z M248 0 L461 0 L499 216 L286 216 L248 0 Z M523 0 L735 0 L773 216 L561 216 L523 0 Z " />
<glyph glyph-name="perthousand" unicode="&#x2030;" horiz-adv-x="1595" d="M241 245 C357 245 447 290 480 476 C485 506 488 534 488 559 C488 687 419 748 283 748 C164 748 76 699 44 514 C39 483 36 454 36 428 C36 302 103 245 241 245 L241 245 Z M242 385 C215 385 204 396 204 428 C204 444 207 466 212 494 C226 578 238 597 274 597 C306 597 318 584 318 549 C318 533 316 512 311 486 C297 402 283 385 242 385 L242 385 Z M854 -8 C970 -8 1060 37 1093 223 C1098 253 1101 281 1101 306 C1101 434 1032 495 896 495 C777 495 689 446 657 261 C652 230 649 201 649 175 C649 49 716 -8 854 -8 L854 -8 Z M855 132 C828 132 817 143 817 175 C817 191 820 213 825 241 C839 325 851 344 887 344 C919 344 931 331 931 296 C931 280 929 259 924 233 C910 149 896 132 855 132 L855 132 Z M1315 -8 C1431 -8 1521 37 1554 223 C1559 253 1562 281 1562 306 C1562 434 1493 495 1357 495 C1238 495 1150 446 1118 261 C1113 230 1110 201 1110 175 C1110 49 1177 -8 1315 -8 L1315 -8 Z M1316 132 C1289 132 1278 143 1278 175 C1278 191 1281 213 1286 241 C1300 325 1312 344 1348 344 C1380 344 1392 331 1392 296 C1392 280 1390 259 1385 233 C1371 149 1357 132 1316 132 L1316 132 Z M239 0 L415 0 L898 741 L722 741 L239 0 Z " />
<glyph glyph-name="guilsinglleft" unicode="&#x2039;" horiz-adv-x="446" d="M123 0 L296 0 L233 287 L397 575 L224 575 L46 287 L123 0 Z " />
<glyph glyph-name="guilsinglright" unicode="&#x203a;" horiz-adv-x="446" d="M21 0 L193 0 L372 288 L294 575 L122 575 L185 288 L21 0 Z " />
<glyph glyph-name="&amp;#x2044;" unicode="&#x2044;" horiz-adv-x="518" d="M-65 0 L103 0 L584 741 L416 741 L-65 0 Z " />
<glyph glyph-name="&amp;#x2215;" unicode="&#x2215;" horiz-adv-x="518" d="M-65 0 L103 0 L584 741 L416 741 L-65 0 Z " />
<glyph glyph-name="Euro" unicode="&#x20ac;" horiz-adv-x="633" d="M22 384 L116 384 C114 372 113 362 111 351 L16 351 L-3 244 L102 244 L102 232 C102 67 174 -9 350 -9 C416 -9 490 4 557 42 L488 191 C451 175 419 167 384 167 C326 167 302 192 298 244 L437 244 L456 351 L306 351 C308 359 309 368 311 377 C311 379 312 381 312 384 L462 384 L481 491 L338 491 C358 547 384 566 433 566 C482 566 518 552 550 530 L664 686 C610 722 550 750 440 750 C282 750 193 687 140 491 L41 491 L22 384 Z " />
<glyph glyph-name="trademark" unicode="&#x2122;" horiz-adv-x="954" d="M407 259 L535 259 L575 486 L595 259 L682 259 L781 486 L741 259 L876 259 L961 741 L801 741 L680 481 L651 741 L492 741 L407 259 Z M123 259 L263 259 L325 615 L442 615 L465 741 L92 741 L69 615 L185 615 L123 259 Z " />
<glyph glyph-name="partialdiff" unicode="&#x2202;" horiz-adv-x="832" d="M126 120 C126 120 129 123 134 127 C79 193 46 278 46 371 C46 464 79 549 133 615 C129 619 126 621 126 621 C70 554 36 466 36 371 C36 275 70 187 126 120 L126 120 Z M228 211 C230 213 233 215 235 218 C201 259 181 313 181 371 C181 429 202 483 235 524 C232 526 230 529 227 531 C192 487 171 432 171 371 C171 310 193 254 228 211 L228 211 Z M264 243 C267 245 269 248 272 250 C245 283 229 325 229 371 C229 417 245 459 272 492 C269 494 267 497 264 499 C236 464 219 419 219 371 C219 322 236 278 264 243 L264 243 Z M316 289 C319 291 321 294 324 296 C308 317 298 343 298 371 C298 399 308 425 323 445 C321 448 318 450 316 452 C298 430 288 402 288 371 C288 340 298 312 316 289 L316 289 Z M349 320 C352 323 354 325 357 327 C348 340 343 355 343 371 C343 387 348 402 357 415 C354 417 352 420 349 422 C339 408 333 390 333 371 C333 352 339 334 349 320 L349 320 Z M378 346 C382 349 384 351 384 351 C381 357 379 364 379 371 C379 378 381 385 384 391 C384 391 382 393 378 396 C374 389 371 380 371 371 C371 362 374 353 378 346 L378 346 Z M416 60 C493 60 563 89 616 136 C614 139 611 141 609 144 C558 98 490 70 416 70 C342 70 274 98 222 144 C222 145 215 137 215 137 C268 89 338 60 416 60 L416 60 Z M416 324 C426 324 435 327 442 333 C439 337 437 339 437 339 C431 334 424 332 416 332 C408 332 401 335 395 339 C395 339 391 334 389 333 C397 327 406 324 416 324 L416 324 Z M482 319 C493 334 499 352 499 371 C499 390 493 408 482 422 C483 422 475 415 475 415 C484 403 489 388 489 371 C489 355 484 339 475 326 C478 324 480 322 482 319 L482 319 Z M292 269 C295 271 298 274 300 276 C280 302 267 335 267 371 C267 407 280 440 300 466 L293 473 C270 445 257 410 257 371 C257 333 270 297 292 269 L292 269 Z M416 -17 C512 -17 600 19 667 80 C667 80 660 88 660 87 C595 29 510 -7 416 -7 C322 -7 236 29 171 88 L164 80 C231 20 320 -17 416 -17 L416 -17 Z M416 121 C478 121 534 144 576 182 C574 185 571 187 569 190 C529 153 475 131 416 131 C357 131 303 153 262 190 L255 182 C298 144 354 121 416 121 L416 121 Z M416 170 C465 170 510 188 544 218 C542 221 539 223 537 226 C505 197 462 180 416 180 C369 180 327 197 294 226 L287 219 C322 189 367 170 416 170 L416 170 Z M416 209 C455 209 491 224 518 247 C516 250 514 253 512 255 C486 233 452 219 416 219 C380 219 346 233 320 255 L313 247 C341 224 377 209 416 209 L416 209 Z M416 265 C441 265 463 274 481 289 C479 292 476 294 474 297 C458 283 438 275 416 275 C394 275 373 283 357 297 L350 289 C368 274 391 265 416 265 L416 265 Z M358 445 C374 459 394 467 416 467 C438 467 458 459 474 445 L482 453 C464 468 441 477 416 477 C391 477 368 468 350 453 C351 452 354 448 358 445 L358 445 Z M570 552 C572 554 575 557 577 560 C534 598 478 621 416 621 C355 621 299 598 256 560 L263 553 C304 589 357 611 416 611 C475 611 529 589 570 552 L570 552 Z M454 346 C458 353 461 362 461 371 C461 380 458 389 454 396 L448 391 C451 385 453 378 453 371 C453 364 451 357 448 351 C448 351 450 349 454 346 L454 346 Z M468 333 C476 344 480 357 480 371 C480 385 476 398 468 409 L460 402 C466 393 470 382 470 371 C470 360 466 349 460 340 C463 338 465 336 468 333 L468 333 Z M498 306 C511 325 519 347 519 371 C519 395 511 418 497 436 L490 429 C502 413 509 393 509 371 C509 349 502 329 490 313 C492 311 495 308 498 306 L498 306 Z M540 269 C562 297 575 332 575 371 C575 410 562 445 539 473 L531 466 C552 440 565 407 565 371 C565 335 552 302 532 276 C535 274 537 271 540 269 L540 269 Z M568 243 C596 278 613 322 613 371 C613 420 596 464 568 499 L560 492 C587 459 603 417 603 371 C603 325 587 283 560 250 C563 248 566 245 568 243 L568 243 Z M604 211 C640 254 661 310 661 371 C661 432 640 488 604 531 L596 524 C631 483 651 429 651 371 C651 313 631 260 596 218 C601 213 604 211 604 211 L604 211 Z M649 171 C694 225 721 295 721 371 C721 447 694 517 649 571 L641 564 C685 512 711 445 711 371 C711 297 685 230 642 177 C644 175 647 173 649 171 L649 171 Z M706 120 C762 188 796 276 796 371 C796 467 762 555 706 622 L698 615 C753 549 786 464 786 371 C786 278 753 193 698 127 C703 123 706 120 706 120 L706 120 Z M183 170 L190 177 C147 229 121 297 121 371 C121 444 147 512 190 564 C187 567 184 569 182 571 C138 517 111 447 111 371 C111 294 138 225 183 170 L183 170 Z M334 306 L342 314 C330 330 323 350 323 371 C323 393 330 413 342 429 C340 431 337 434 334 436 C321 418 313 395 313 371 C313 346 321 324 334 306 L334 306 Z M364 333 L371 340 C366 349 362 360 362 371 C362 382 366 393 371 402 C369 404 366 406 364 409 C356 398 352 385 352 371 C352 357 356 344 364 333 L364 333 Z M395 403 C401 408 408 410 416 410 C424 410 431 407 437 403 C437 403 439 406 442 409 C435 415 426 418 416 418 C406 418 397 415 390 409 L395 403 Z M384 416 C393 423 404 428 416 428 C428 428 439 424 448 416 C450 419 452 421 454 423 C443 432 430 437 416 437 C401 437 388 432 377 423 L384 416 Z M371 430 C383 441 399 447 416 447 C433 447 449 441 461 430 C461 430 464 434 468 438 C454 450 436 457 416 457 C397 457 378 450 364 438 L371 430 Z M295 516 C327 545 370 562 416 562 C462 562 505 545 538 516 C538 516 545 523 544 523 C510 554 465 572 416 572 C367 572 322 554 288 524 L295 516 Z M416 240 C448 240 476 252 498 271 L491 278 C471 261 445 250 416 250 C388 250 361 261 340 278 L333 270 C355 251 384 240 416 240 L416 240 Z M416 285 C436 285 454 292 468 304 L461 312 C448 301 433 295 416 295 C399 295 383 302 370 312 L363 304 C378 292 396 285 416 285 L416 285 Z M416 305 C430 305 444 310 455 319 L448 326 C439 319 428 314 416 314 C404 314 393 319 383 326 L376 319 C388 310 401 305 416 305 L416 305 Z M341 464 C362 482 388 492 416 492 C445 492 471 481 491 464 L498 472 C476 491 447 502 416 502 C385 502 356 490 334 471 L341 464 Z M320 487 C346 509 380 523 416 523 C453 523 486 510 512 487 L518 494 C491 518 455 533 416 533 C377 533 341 519 313 495 L320 487 Z M610 597 L617 605 C563 653 493 682 416 682 C339 682 269 653 215 605 L222 598 C274 644 342 672 416 672 C491 672 559 644 610 597 L610 597 Z M172 654 C237 713 322 749 416 749 C510 749 596 713 661 654 L668 662 C601 722 512 759 416 759 C320 759 232 723 165 662 L172 654 Z M516 290 C534 312 544 340 544 371 C544 402 534 430 516 453 L508 446 C524 425 534 399 534 371 C534 343 524 317 509 297 L516 290 Z " />
<glyph glyph-name="product" unicode="&#x220f;" horiz-adv-x="832" d="M126 120 C126 120 129 123 134 127 C79 193 46 278 46 371 C46 464 79 549 133 615 C129 619 126 621 126 621 C70 554 36 466 36 371 C36 275 70 187 126 120 L126 120 Z M228 211 C230 213 233 215 235 218 C201 259 181 313 181 371 C181 429 202 483 235 524 C232 526 230 529 227 531 C192 487 171 432 171 371 C171 310 193 254 228 211 L228 211 Z M264 243 C267 245 269 248 272 250 C245 283 229 325 229 371 C229 417 245 459 272 492 C269 494 267 497 264 499 C236 464 219 419 219 371 C219 322 236 278 264 243 L264 243 Z M316 289 C319 291 321 294 324 296 C308 317 298 343 298 371 C298 399 308 425 323 445 C321 448 318 450 316 452 C298 430 288 402 288 371 C288 340 298 312 316 289 L316 289 Z M349 320 C352 323 354 325 357 327 C348 340 343 355 343 371 C343 387 348 402 357 415 C354 417 352 420 349 422 C339 408 333 390 333 371 C333 352 339 334 349 320 L349 320 Z M378 346 C382 349 384 351 384 351 C381 357 379 364 379 371 C379 378 381 385 384 391 C384 391 382 393 378 396 C374 389 371 380 371 371 C371 362 374 353 378 346 L378 346 Z M416 60 C493 60 563 89 616 136 C614 139 611 141 609 144 C558 98 490 70 416 70 C342 70 274 98 222 144 C222 145 215 137 215 137 C268 89 338 60 416 60 L416 60 Z M416 324 C426 324 435 327 442 333 C439 337 437 339 437 339 C431 334 424 332 416 332 C408 332 401 335 395 339 C395 339 391 334 389 333 C397 327 406 324 416 324 L416 324 Z M482 319 C493 334 499 352 499 371 C499 390 493 408 482 422 C483 422 475 415 475 415 C484 403 489 388 489 371 C489 355 484 339 475 326 C478 324 480 322 482 319 L482 319 Z M292 269 C295 271 298 274 300 276 C280 302 267 335 267 371 C267 407 280 440 300 466 L293 473 C270 445 257 410 257 371 C257 333 270 297 292 269 L292 269 Z M416 -17 C512 -17 600 19 667 80 C667 80 660 88 660 87 C595 29 510 -7 416 -7 C322 -7 236 29 171 88 L164 80 C231 20 320 -17 416 -17 L416 -17 Z M416 121 C478 121 534 144 576 182 C574 185 571 187 569 190 C529 153 475 131 416 131 C357 131 303 153 262 190 L255 182 C298 144 354 121 416 121 L416 121 Z M416 170 C465 170 510 188 544 218 C542 221 539 223 537 226 C505 197 462 180 416 180 C369 180 327 197 294 226 L287 219 C322 189 367 170 416 170 L416 170 Z M416 209 C455 209 491 224 518 247 C516 250 514 253 512 255 C486 233 452 219 416 219 C380 219 346 233 320 255 L313 247 C341 224 377 209 416 209 L416 209 Z M416 265 C441 265 463 274 481 289 C479 292 476 294 474 297 C458 283 438 275 416 275 C394 275 373 283 357 297 L350 289 C368 274 391 265 416 265 L416 265 Z M358 445 C374 459 394 467 416 467 C438 467 458 459 474 445 L482 453 C464 468 441 477 416 477 C391 477 368 468 350 453 C351 452 354 448 358 445 L358 445 Z M570 552 C572 554 575 557 577 560 C534 598 478 621 416 621 C355 621 299 598 256 560 L263 553 C304 589 357 611 416 611 C475 611 529 589 570 552 L570 552 Z M454 346 C458 353 461 362 461 371 C461 380 458 389 454 396 L448 391 C451 385 453 378 453 371 C453 364 451 357 448 351 C448 351 450 349 454 346 L454 346 Z M468 333 C476 344 480 357 480 371 C480 385 476 398 468 409 L460 402 C466 393 470 382 470 371 C470 360 466 349 460 340 C463 338 465 336 468 333 L468 333 Z M498 306 C511 325 519 347 519 371 C519 395 511 418 497 436 L490 429 C502 413 509 393 509 371 C509 349 502 329 490 313 C492 311 495 308 498 306 L498 306 Z M540 269 C562 297 575 332 575 371 C575 410 562 445 539 473 L531 466 C552 440 565 407 565 371 C565 335 552 302 532 276 C535 274 537 271 540 269 L540 269 Z M568 243 C596 278 613 322 613 371 C613 420 596 464 568 499 L560 492 C587 459 603 417 603 371 C603 325 587 283 560 250 C563 248 566 245 568 243 L568 243 Z M604 211 C640 254 661 310 661 371 C661 432 640 488 604 531 L596 524 C631 483 651 429 651 371 C651 313 631 260 596 218 C601 213 604 211 604 211 L604 211 Z M649 171 C694 225 721 295 721 371 C721 447 694 517 649 571 L641 564 C685 512 711 445 711 371 C711 297 685 230 642 177 C644 175 647 173 649 171 L649 171 Z M706 120 C762 188 796 276 796 371 C796 467 762 555 706 622 L698 615 C753 549 786 464 786 371 C786 278 753 193 698 127 C703 123 706 120 706 120 L706 120 Z M183 170 L190 177 C147 229 121 297 121 371 C121 444 147 512 190 564 C187 567 184 569 182 571 C138 517 111 447 111 371 C111 294 138 225 183 170 L183 170 Z M334 306 L342 314 C330 330 323 350 323 371 C323 393 330 413 342 429 C340 431 337 434 334 436 C321 418 313 395 313 371 C313 346 321 324 334 306 L334 306 Z M364 333 L371 340 C366 349 362 360 362 371 C362 382 366 393 371 402 C369 404 366 406 364 409 C356 398 352 385 352 371 C352 357 356 344 364 333 L364 333 Z M395 403 C401 408 408 410 416 410 C424 410 431 407 437 403 C437 403 439 406 442 409 C435 415 426 418 416 418 C406 418 397 415 390 409 L395 403 Z M384 416 C393 423 404 428 416 428 C428 428 439 424 448 416 C450 419 452 421 454 423 C443 432 430 437 416 437 C401 437 388 432 377 423 L384 416 Z M371 430 C383 441 399 447 416 447 C433 447 449 441 461 430 C461 430 464 434 468 438 C454 450 436 457 416 457 C397 457 378 450 364 438 L371 430 Z M295 516 C327 545 370 562 416 562 C462 562 505 545 538 516 C538 516 545 523 544 523 C510 554 465 572 416 572 C367 572 322 554 288 524 L295 516 Z M416 240 C448 240 476 252 498 271 L491 278 C471 261 445 250 416 250 C388 250 361 261 340 278 L333 270 C355 251 384 240 416 240 L416 240 Z M416 285 C436 285 454 292 468 304 L461 312 C448 301 433 295 416 295 C399 295 383 302 370 312 L363 304 C378 292 396 285 416 285 L416 285 Z M416 305 C430 305 444 310 455 319 L448 326 C439 319 428 314 416 314 C404 314 393 319 383 326 L376 319 C388 310 401 305 416 305 L416 305 Z M341 464 C362 482 388 492 416 492 C445 492 471 481 491 464 L498 472 C476 491 447 502 416 502 C385 502 356 490 334 471 L341 464 Z M320 487 C346 509 380 523 416 523 C453 523 486 510 512 487 L518 494 C491 518 455 533 416 533 C377 533 341 519 313 495 L320 487 Z M610 597 L617 605 C563 653 493 682 416 682 C339 682 269 653 215 605 L222 598 C274 644 342 672 416 672 C491 672 559 644 610 597 L610 597 Z M172 654 C237 713 322 749 416 749 C510 749 596 713 661 654 L668 662 C601 722 512 759 416 759 C320 759 232 723 165 662 L172 654 Z M516 290 C534 312 544 340 544 371 C544 402 534 430 516 453 L508 446 C524 425 534 399 534 371 C534 343 524 317 509 297 L516 290 Z " />
<glyph glyph-name="summation" unicode="&#x2211;" horiz-adv-x="832" d="M126 120 C126 120 129 123 134 127 C79 193 46 278 46 371 C46 464 79 549 133 615 C129 619 126 621 126 621 C70 554 36 466 36 371 C36 275 70 187 126 120 L126 120 Z M228 211 C230 213 233 215 235 218 C201 259 181 313 181 371 C181 429 202 483 235 524 C232 526 230 529 227 531 C192 487 171 432 171 371 C171 310 193 254 228 211 L228 211 Z M264 243 C267 245 269 248 272 250 C245 283 229 325 229 371 C229 417 245 459 272 492 C269 494 267 497 264 499 C236 464 219 419 219 371 C219 322 236 278 264 243 L264 243 Z M316 289 C319 291 321 294 324 296 C308 317 298 343 298 371 C298 399 308 425 323 445 C321 448 318 450 316 452 C298 430 288 402 288 371 C288 340 298 312 316 289 L316 289 Z M349 320 C352 323 354 325 357 327 C348 340 343 355 343 371 C343 387 348 402 357 415 C354 417 352 420 349 422 C339 408 333 390 333 371 C333 352 339 334 349 320 L349 320 Z M378 346 C382 349 384 351 384 351 C381 357 379 364 379 371 C379 378 381 385 384 391 C384 391 382 393 378 396 C374 389 371 380 371 371 C371 362 374 353 378 346 L378 346 Z M416 60 C493 60 563 89 616 136 C614 139 611 141 609 144 C558 98 490 70 416 70 C342 70 274 98 222 144 C222 145 215 137 215 137 C268 89 338 60 416 60 L416 60 Z M416 324 C426 324 435 327 442 333 C439 337 437 339 437 339 C431 334 424 332 416 332 C408 332 401 335 395 339 C395 339 391 334 389 333 C397 327 406 324 416 324 L416 324 Z M482 319 C493 334 499 352 499 371 C499 390 493 408 482 422 C483 422 475 415 475 415 C484 403 489 388 489 371 C489 355 484 339 475 326 C478 324 480 322 482 319 L482 319 Z M292 269 C295 271 298 274 300 276 C280 302 267 335 267 371 C267 407 280 440 300 466 L293 473 C270 445 257 410 257 371 C257 333 270 297 292 269 L292 269 Z M416 -17 C512 -17 600 19 667 80 C667 80 660 88 660 87 C595 29 510 -7 416 -7 C322 -7 236 29 171 88 L164 80 C231 20 320 -17 416 -17 L416 -17 Z M416 121 C478 121 534 144 576 182 C574 185 571 187 569 190 C529 153 475 131 416 131 C357 131 303 153 262 190 L255 182 C298 144 354 121 416 121 L416 121 Z M416 170 C465 170 510 188 544 218 C542 221 539 223 537 226 C505 197 462 180 416 180 C369 180 327 197 294 226 L287 219 C322 189 367 170 416 170 L416 170 Z M416 209 C455 209 491 224 518 247 C516 250 514 253 512 255 C486 233 452 219 416 219 C380 219 346 233 320 255 L313 247 C341 224 377 209 416 209 L416 209 Z M416 265 C441 265 463 274 481 289 C479 292 476 294 474 297 C458 283 438 275 416 275 C394 275 373 283 357 297 L350 289 C368 274 391 265 416 265 L416 265 Z M358 445 C374 459 394 467 416 467 C438 467 458 459 474 445 L482 453 C464 468 441 477 416 477 C391 477 368 468 350 453 C351 452 354 448 358 445 L358 445 Z M570 552 C572 554 575 557 577 560 C534 598 478 621 416 621 C355 621 299 598 256 560 L263 553 C304 589 357 611 416 611 C475 611 529 589 570 552 L570 552 Z M454 346 C458 353 461 362 461 371 C461 380 458 389 454 396 L448 391 C451 385 453 378 453 371 C453 364 451 357 448 351 C448 351 450 349 454 346 L454 346 Z M468 333 C476 344 480 357 480 371 C480 385 476 398 468 409 L460 402 C466 393 470 382 470 371 C470 360 466 349 460 340 C463 338 465 336 468 333 L468 333 Z M498 306 C511 325 519 347 519 371 C519 395 511 418 497 436 L490 429 C502 413 509 393 509 371 C509 349 502 329 490 313 C492 311 495 308 498 306 L498 306 Z M540 269 C562 297 575 332 575 371 C575 410 562 445 539 473 L531 466 C552 440 565 407 565 371 C565 335 552 302 532 276 C535 274 537 271 540 269 L540 269 Z M568 243 C596 278 613 322 613 371 C613 420 596 464 568 499 L560 492 C587 459 603 417 603 371 C603 325 587 283 560 250 C563 248 566 245 568 243 L568 243 Z M604 211 C640 254 661 310 661 371 C661 432 640 488 604 531 L596 524 C631 483 651 429 651 371 C651 313 631 260 596 218 C601 213 604 211 604 211 L604 211 Z M649 171 C694 225 721 295 721 371 C721 447 694 517 649 571 L641 564 C685 512 711 445 711 371 C711 297 685 230 642 177 C644 175 647 173 649 171 L649 171 Z M706 120 C762 188 796 276 796 371 C796 467 762 555 706 622 L698 615 C753 549 786 464 786 371 C786 278 753 193 698 127 C703 123 706 120 706 120 L706 120 Z M183 170 L190 177 C147 229 121 297 121 371 C121 444 147 512 190 564 C187 567 184 569 182 571 C138 517 111 447 111 371 C111 294 138 225 183 170 L183 170 Z M334 306 L342 314 C330 330 323 350 323 371 C323 393 330 413 342 429 C340 431 337 434 334 436 C321 418 313 395 313 371 C313 346 321 324 334 306 L334 306 Z M364 333 L371 340 C366 349 362 360 362 371 C362 382 366 393 371 402 C369 404 366 406 364 409 C356 398 352 385 352 371 C352 357 356 344 364 333 L364 333 Z M395 403 C401 408 408 410 416 410 C424 410 431 407 437 403 C437 403 439 406 442 409 C435 415 426 418 416 418 C406 418 397 415 390 409 L395 403 Z M384 416 C393 423 404 428 416 428 C428 428 439 424 448 416 C450 419 452 421 454 423 C443 432 430 437 416 437 C401 437 388 432 377 423 L384 416 Z M371 430 C383 441 399 447 416 447 C433 447 449 441 461 430 C461 430 464 434 468 438 C454 450 436 457 416 457 C397 457 378 450 364 438 L371 430 Z M295 516 C327 545 370 562 416 562 C462 562 505 545 538 516 C538 516 545 523 544 523 C510 554 465 572 416 572 C367 572 322 554 288 524 L295 516 Z M416 240 C448 240 476 252 498 271 L491 278 C471 261 445 250 416 250 C388 250 361 261 340 278 L333 270 C355 251 384 240 416 240 L416 240 Z M416 285 C436 285 454 292 468 304 L461 312 C448 301 433 295 416 295 C399 295 383 302 370 312 L363 304 C378 292 396 285 416 285 L416 285 Z M416 305 C430 305 444 310 455 319 L448 326 C439 319 428 314 416 314 C404 314 393 319 383 326 L376 319 C388 310 401 305 416 305 L416 305 Z M341 464 C362 482 388 492 416 492 C445 492 471 481 491 464 L498 472 C476 491 447 502 416 502 C385 502 356 490 334 471 L341 464 Z M320 487 C346 509 380 523 416 523 C453 523 486 510 512 487 L518 494 C491 518 455 533 416 533 C377 533 341 519 313 495 L320 487 Z M610 597 L617 605 C563 653 493 682 416 682 C339 682 269 653 215 605 L222 598 C274 644 342 672 416 672 C491 672 559 644 610 597 L610 597 Z M172 654 C237 713 322 749 416 749 C510 749 596 713 661 654 L668 662 C601 722 512 759 416 759 C320 759 232 723 165 662 L172 654 Z M516 290 C534 312 544 340 544 371 C544 402 534 430 516 453 L508 446 C524 425 534 399 534 371 C534 343 524 317 509 297 L516 290 Z " />
<glyph glyph-name="minus" unicode="&#x2212;" horiz-adv-x="638" d="M59 270 L545 270 L574 435 L88 435 L59 270 Z " />
<glyph glyph-name="radical" unicode="&#x221a;" horiz-adv-x="615" d="M100 -6 L300 -6 L671 741 L478 741 L246 244 L225 466 L27 466 L100 -6 Z " />
<glyph glyph-name="infinity" unicode="&#x221e;" horiz-adv-x="957" d="M318 -158 L509 -158 L609 409 L687 409 L716 575 L638 575 L640 583 C646 616 655 626 689 626 L725 626 L755 792 C742 793 728 793 700 793 C549 793 479 753 457 629 L447 575 L330 575 L332 583 C338 616 347 626 381 626 L417 626 L447 792 C434 793 420 793 392 793 C241 793 171 753 149 629 L139 575 L44 575 L15 409 L110 409 L10 -158 L201 -158 L301 409 L418 409 L318 -158 Z M654 0 L845 0 L946 575 L755 575 L654 0 Z M761 615 L954 615 L982 769 L789 769 L761 615 Z " />
<glyph glyph-name="integral" unicode="&#x222b;" horiz-adv-x="832" d="M126 120 C126 120 129 123 134 127 C79 193 46 278 46 371 C46 464 79 549 133 615 C129 619 126 621 126 621 C70 554 36 466 36 371 C36 275 70 187 126 120 L126 120 Z M228 211 C230 213 233 215 235 218 C201 259 181 313 181 371 C181 429 202 483 235 524 C232 526 230 529 227 531 C192 487 171 432 171 371 C171 310 193 254 228 211 L228 211 Z M264 243 C267 245 269 248 272 250 C245 283 229 325 229 371 C229 417 245 459 272 492 C269 494 267 497 264 499 C236 464 219 419 219 371 C219 322 236 278 264 243 L264 243 Z M316 289 C319 291 321 294 324 296 C308 317 298 343 298 371 C298 399 308 425 323 445 C321 448 318 450 316 452 C298 430 288 402 288 371 C288 340 298 312 316 289 L316 289 Z M349 320 C352 323 354 325 357 327 C348 340 343 355 343 371 C343 387 348 402 357 415 C354 417 352 420 349 422 C339 408 333 390 333 371 C333 352 339 334 349 320 L349 320 Z M378 346 C382 349 384 351 384 351 C381 357 379 364 379 371 C379 378 381 385 384 391 C384 391 382 393 378 396 C374 389 371 380 371 371 C371 362 374 353 378 346 L378 346 Z M416 60 C493 60 563 89 616 136 C614 139 611 141 609 144 C558 98 490 70 416 70 C342 70 274 98 222 144 C222 145 215 137 215 137 C268 89 338 60 416 60 L416 60 Z M416 324 C426 324 435 327 442 333 C439 337 437 339 437 339 C431 334 424 332 416 332 C408 332 401 335 395 339 C395 339 391 334 389 333 C397 327 406 324 416 324 L416 324 Z M482 319 C493 334 499 352 499 371 C499 390 493 408 482 422 C483 422 475 415 475 415 C484 403 489 388 489 371 C489 355 484 339 475 326 C478 324 480 322 482 319 L482 319 Z M292 269 C295 271 298 274 300 276 C280 302 267 335 267 371 C267 407 280 440 300 466 L293 473 C270 445 257 410 257 371 C257 333 270 297 292 269 L292 269 Z M416 -17 C512 -17 600 19 667 80 C667 80 660 88 660 87 C595 29 510 -7 416 -7 C322 -7 236 29 171 88 L164 80 C231 20 320 -17 416 -17 L416 -17 Z M416 121 C478 121 534 144 576 182 C574 185 571 187 569 190 C529 153 475 131 416 131 C357 131 303 153 262 190 L255 182 C298 144 354 121 416 121 L416 121 Z M416 170 C465 170 510 188 544 218 C542 221 539 223 537 226 C505 197 462 180 416 180 C369 180 327 197 294 226 L287 219 C322 189 367 170 416 170 L416 170 Z M416 209 C455 209 491 224 518 247 C516 250 514 253 512 255 C486 233 452 219 416 219 C380 219 346 233 320 255 L313 247 C341 224 377 209 416 209 L416 209 Z M416 265 C441 265 463 274 481 289 C479 292 476 294 474 297 C458 283 438 275 416 275 C394 275 373 283 357 297 L350 289 C368 274 391 265 416 265 L416 265 Z M358 445 C374 459 394 467 416 467 C438 467 458 459 474 445 L482 453 C464 468 441 477 416 477 C391 477 368 468 350 453 C351 452 354 448 358 445 L358 445 Z M570 552 C572 554 575 557 577 560 C534 598 478 621 416 621 C355 621 299 598 256 560 L263 553 C304 589 357 611 416 611 C475 611 529 589 570 552 L570 552 Z M454 346 C458 353 461 362 461 371 C461 380 458 389 454 396 L448 391 C451 385 453 378 453 371 C453 364 451 357 448 351 C448 351 450 349 454 346 L454 346 Z M468 333 C476 344 480 357 480 371 C480 385 476 398 468 409 L460 402 C466 393 470 382 470 371 C470 360 466 349 460 340 C463 338 465 336 468 333 L468 333 Z M498 306 C511 325 519 347 519 371 C519 395 511 418 497 436 L490 429 C502 413 509 393 509 371 C509 349 502 329 490 313 C492 311 495 308 498 306 L498 306 Z M540 269 C562 297 575 332 575 371 C575 410 562 445 539 473 L531 466 C552 440 565 407 565 371 C565 335 552 302 532 276 C535 274 537 271 540 269 L540 269 Z M568 243 C596 278 613 322 613 371 C613 420 596 464 568 499 L560 492 C587 459 603 417 603 371 C603 325 587 283 560 250 C563 248 566 245 568 243 L568 243 Z M604 211 C640 254 661 310 661 371 C661 432 640 488 604 531 L596 524 C631 483 651 429 651 371 C651 313 631 260 596 218 C601 213 604 211 604 211 L604 211 Z M649 171 C694 225 721 295 721 371 C721 447 694 517 649 571 L641 564 C685 512 711 445 711 371 C711 297 685 230 642 177 C644 175 647 173 649 171 L649 171 Z M706 120 C762 188 796 276 796 371 C796 467 762 555 706 622 L698 615 C753 549 786 464 786 371 C786 278 753 193 698 127 C703 123 706 120 706 120 L706 120 Z M183 170 L190 177 C147 229 121 297 121 371 C121 444 147 512 190 564 C187 567 184 569 182 571 C138 517 111 447 111 371 C111 294 138 225 183 170 L183 170 Z M334 306 L342 314 C330 330 323 350 323 371 C323 393 330 413 342 429 C340 431 337 434 334 436 C321 418 313 395 313 371 C313 346 321 324 334 306 L334 306 Z M364 333 L371 340 C366 349 362 360 362 371 C362 382 366 393 371 402 C369 404 366 406 364 409 C356 398 352 385 352 371 C352 357 356 344 364 333 L364 333 Z M395 403 C401 408 408 410 416 410 C424 410 431 407 437 403 C437 403 439 406 442 409 C435 415 426 418 416 418 C406 418 397 415 390 409 L395 403 Z M384 416 C393 423 404 428 416 428 C428 428 439 424 448 416 C450 419 452 421 454 423 C443 432 430 437 416 437 C401 437 388 432 377 423 L384 416 Z M371 430 C383 441 399 447 416 447 C433 447 449 441 461 430 C461 430 464 434 468 438 C454 450 436 457 416 457 C397 457 378 450 364 438 L371 430 Z M295 516 C327 545 370 562 416 562 C462 562 505 545 538 516 C538 516 545 523 544 523 C510 554 465 572 416 572 C367 572 322 554 288 524 L295 516 Z M416 240 C448 240 476 252 498 271 L491 278 C471 261 445 250 416 250 C388 250 361 261 340 278 L333 270 C355 251 384 240 416 240 L416 240 Z M416 285 C436 285 454 292 468 304 L461 312 C448 301 433 295 416 295 C399 295 383 302 370 312 L363 304 C378 292 396 285 416 285 L416 285 Z M416 305 C430 305 444 310 455 319 L448 326 C439 319 428 314 416 314 C404 314 393 319 383 326 L376 319 C388 310 401 305 416 305 L416 305 Z M341 464 C362 482 388 492 416 492 C445 492 471 481 491 464 L498 472 C476 491 447 502 416 502 C385 502 356 490 334 471 L341 464 Z M320 487 C346 509 380 523 416 523 C453 523 486 510 512 487 L518 494 C491 518 455 533 416 533 C377 533 341 519 313 495 L320 487 Z M610 597 L617 605 C563 653 493 682 416 682 C339 682 269 653 215 605 L222 598 C274 644 342 672 416 672 C491 672 559 644 610 597 L610 597 Z M172 654 C237 713 322 749 416 749 C510 749 596 713 661 654 L668 662 C601 722 512 759 416 759 C320 759 232 723 165 662 L172 654 Z M516 290 C534 312 544 340 544 371 C544 402 534 430 516 453 L508 446 C524 425 534 399 534 371 C534 343 524 317 509 297 L516 290 Z " />
<glyph glyph-name="approxequal" unicode="&#x2248;" horiz-adv-x="638" d="M172 372 C203 412 220 420 240 420 C287 420 384 377 460 377 C504 377 560 405 616 499 L502 575 C470 535 453 527 433 527 C386 527 298 570 221 570 C170 570 114 541 57 447 L172 372 Z M128 122 C159 162 176 170 196 170 C243 170 340 127 416 127 C460 127 516 155 572 249 L458 325 C426 285 409 277 389 277 C342 277 254 320 177 320 C126 320 70 291 13 197 L128 122 Z " />
<glyph glyph-name="notequal" unicode="&#x2260;" horiz-adv-x="723" d="M318 -158 L509 -158 L609 409 L727 409 L756 575 L638 575 L640 583 C646 616 655 626 701 626 L765 626 L794 790 C772 792 757 793 712 793 C547 793 479 753 457 629 L447 575 L330 575 L332 583 C338 616 347 626 381 626 L417 626 L447 792 C434 793 420 793 392 793 C241 793 171 753 149 629 L139 575 L44 575 L15 409 L110 409 L10 -158 L201 -158 L301 409 L418 409 L318 -158 Z " />
<glyph glyph-name="lessequal" unicode="&#x2264;" horiz-adv-x="638" d="M30 0 L442 0 L455 77 L456 77 L488 261 L295 357 L522 452 L554 635 L104 421 L81 292 L301 166 L59 166 L30 0 Z " />
<glyph glyph-name="greaterequal" unicode="&#x2265;" horiz-adv-x="638" d="M66 0 L478 0 L507 166 L266 166 L529 292 L552 421 L178 635 L146 452 L339 357 L112 261 L95 166 L66 0 Z " />
<glyph glyph-name="lozenge" unicode="&#x25ca;" horiz-adv-x="740" d="M562 -6 C590 -6 608 -4 643 0 L672 165 L617 165 C561 165 559 181 565 215 L599 409 L715 409 L744 575 L628 575 L654 722 L497 688 L450 575 L330 575 L332 583 C338 616 347 626 381 626 L417 626 L447 792 C434 793 420 793 392 793 C241 793 171 753 149 629 L139 575 L44 575 L15 409 L110 409 L10 -158 L201 -158 L301 409 L409 409 L375 213 C347 57 388 -6 562 -6 L562 -6 Z " />
<glyph glyph-name="apple" unicode="&#xf8ff;" horiz-adv-x="832" d="M126 120 C126 120 129 123 134 127 C79 193 46 278 46 371 C46 464 79 549 133 615 C129 619 126 621 126 621 C70 554 36 466 36 371 C36 275 70 187 126 120 L126 120 Z M228 211 C230 213 233 215 235 218 C201 259 181 313 181 371 C181 429 202 483 235 524 C232 526 230 529 227 531 C192 487 171 432 171 371 C171 310 193 254 228 211 L228 211 Z M264 243 C267 245 269 248 272 250 C245 283 229 325 229 371 C229 417 245 459 272 492 C269 494 267 497 264 499 C236 464 219 419 219 371 C219 322 236 278 264 243 L264 243 Z M316 289 C319 291 321 294 324 296 C308 317 298 343 298 371 C298 399 308 425 323 445 C321 448 318 450 316 452 C298 430 288 402 288 371 C288 340 298 312 316 289 L316 289 Z M349 320 C352 323 354 325 357 327 C348 340 343 355 343 371 C343 387 348 402 357 415 C354 417 352 420 349 422 C339 408 333 390 333 371 C333 352 339 334 349 320 L349 320 Z M378 346 C382 349 384 351 384 351 C381 357 379 364 379 371 C379 378 381 385 384 391 C384 391 382 393 378 396 C374 389 371 380 371 371 C371 362 374 353 378 346 L378 346 Z M416 60 C493 60 563 89 616 136 C614 139 611 141 609 144 C558 98 490 70 416 70 C342 70 274 98 222 144 C222 145 215 137 215 137 C268 89 338 60 416 60 L416 60 Z M416 324 C426 324 435 327 442 333 C439 337 437 339 437 339 C431 334 424 332 416 332 C408 332 401 335 395 339 C395 339 391 334 389 333 C397 327 406 324 416 324 L416 324 Z M482 319 C493 334 499 352 499 371 C499 390 493 408 482 422 C483 422 475 415 475 415 C484 403 489 388 489 371 C489 355 484 339 475 326 C478 324 480 322 482 319 L482 319 Z M292 269 C295 271 298 274 300 276 C280 302 267 335 267 371 C267 407 280 440 300 466 L293 473 C270 445 257 410 257 371 C257 333 270 297 292 269 L292 269 Z M416 -17 C512 -17 600 19 667 80 C667 80 660 88 660 87 C595 29 510 -7 416 -7 C322 -7 236 29 171 88 L164 80 C231 20 320 -17 416 -17 L416 -17 Z M416 121 C478 121 534 144 576 182 C574 185 571 187 569 190 C529 153 475 131 416 131 C357 131 303 153 262 190 L255 182 C298 144 354 121 416 121 L416 121 Z M416 170 C465 170 510 188 544 218 C542 221 539 223 537 226 C505 197 462 180 416 180 C369 180 327 197 294 226 L287 219 C322 189 367 170 416 170 L416 170 Z M416 209 C455 209 491 224 518 247 C516 250 514 253 512 255 C486 233 452 219 416 219 C380 219 346 233 320 255 L313 247 C341 224 377 209 416 209 L416 209 Z M416 265 C441 265 463 274 481 289 C479 292 476 294 474 297 C458 283 438 275 416 275 C394 275 373 283 357 297 L350 289 C368 274 391 265 416 265 L416 265 Z M358 445 C374 459 394 467 416 467 C438 467 458 459 474 445 L482 453 C464 468 441 477 416 477 C391 477 368 468 350 453 C351 452 354 448 358 445 L358 445 Z M570 552 C572 554 575 557 577 560 C534 598 478 621 416 621 C355 621 299 598 256 560 L263 553 C304 589 357 611 416 611 C475 611 529 589 570 552 L570 552 Z M454 346 C458 353 461 362 461 371 C461 380 458 389 454 396 L448 391 C451 385 453 378 453 371 C453 364 451 357 448 351 C448 351 450 349 454 346 L454 346 Z M468 333 C476 344 480 357 480 371 C480 385 476 398 468 409 L460 402 C466 393 470 382 470 371 C470 360 466 349 460 340 C463 338 465 336 468 333 L468 333 Z M498 306 C511 325 519 347 519 371 C519 395 511 418 497 436 L490 429 C502 413 509 393 509 371 C509 349 502 329 490 313 C492 311 495 308 498 306 L498 306 Z M540 269 C562 297 575 332 575 371 C575 410 562 445 539 473 L531 466 C552 440 565 407 565 371 C565 335 552 302 532 276 C535 274 537 271 540 269 L540 269 Z M568 243 C596 278 613 322 613 371 C613 420 596 464 568 499 L560 492 C587 459 603 417 603 371 C603 325 587 283 560 250 C563 248 566 245 568 243 L568 243 Z M604 211 C640 254 661 310 661 371 C661 432 640 488 604 531 L596 524 C631 483 651 429 651 371 C651 313 631 260 596 218 C601 213 604 211 604 211 L604 211 Z M649 171 C694 225 721 295 721 371 C721 447 694 517 649 571 L641 564 C685 512 711 445 711 371 C711 297 685 230 642 177 C644 175 647 173 649 171 L649 171 Z M706 120 C762 188 796 276 796 371 C796 467 762 555 706 622 L698 615 C753 549 786 464 786 371 C786 278 753 193 698 127 C703 123 706 120 706 120 L706 120 Z M183 170 L190 177 C147 229 121 297 121 371 C121 444 147 512 190 564 C187 567 184 569 182 571 C138 517 111 447 111 371 C111 294 138 225 183 170 L183 170 Z M334 306 L342 314 C330 330 323 350 323 371 C323 393 330 413 342 429 C340 431 337 434 334 436 C321 418 313 395 313 371 C313 346 321 324 334 306 L334 306 Z M364 333 L371 340 C366 349 362 360 362 371 C362 382 366 393 371 402 C369 404 366 406 364 409 C356 398 352 385 352 371 C352 357 356 344 364 333 L364 333 Z M395 403 C401 408 408 410 416 410 C424 410 431 407 437 403 C437 403 439 406 442 409 C435 415 426 418 416 418 C406 418 397 415 390 409 L395 403 Z M384 416 C393 423 404 428 416 428 C428 428 439 424 448 416 C450 419 452 421 454 423 C443 432 430 437 416 437 C401 437 388 432 377 423 L384 416 Z M371 430 C383 441 399 447 416 447 C433 447 449 441 461 430 C461 430 464 434 468 438 C454 450 436 457 416 457 C397 457 378 450 364 438 L371 430 Z M295 516 C327 545 370 562 416 562 C462 562 505 545 538 516 C538 516 545 523 544 523 C510 554 465 572 416 572 C367 572 322 554 288 524 L295 516 Z M416 240 C448 240 476 252 498 271 L491 278 C471 261 445 250 416 250 C388 250 361 261 340 278 L333 270 C355 251 384 240 416 240 L416 240 Z M416 285 C436 285 454 292 468 304 L461 312 C448 301 433 295 416 295 C399 295 383 302 370 312 L363 304 C378 292 396 285 416 285 L416 285 Z M416 305 C430 305 444 310 455 319 L448 326 C439 319 428 314 416 314 C404 314 393 319 383 326 L376 319 C388 310 401 305 416 305 L416 305 Z M341 464 C362 482 388 492 416 492 C445 492 471 481 491 464 L498 472 C476 491 447 502 416 502 C385 502 356 490 334 471 L341 464 Z M320 487 C346 509 380 523 416 523 C453 523 486 510 512 487 L518 494 C491 518 455 533 416 533 C377 533 341 519 313 495 L320 487 Z M610 597 L617 605 C563 653 493 682 416 682 C339 682 269 653 215 605 L222 598 C274 644 342 672 416 672 C491 672 559 644 610 597 L610 597 Z M172 654 C237 713 322 749 416 749 C510 749 596 713 661 654 L668 662 C601 722 512 759 416 759 C320 759 232 723 165 662 L172 654 Z M516 290 C534 312 544 340 544 371 C544 402 534 430 516 453 L508 446 C524 425 534 399 534 371 C534 343 524 317 509 297 L516 290 Z " />
<glyph glyph-name="fi" unicode="&#xfb01;" horiz-adv-x="649" d="M15 409 L110 409 L10 -158 L201 -158 L301 409 L379 409 L408 575 L330 575 L332 583 C338 616 347 626 381 626 L417 626 L447 792 C434 793 420 793 392 793 C241 793 171 753 149 629 L139 575 L44 575 L15 409 Z M346 0 L537 0 L638 575 L447 575 L346 0 Z M453 615 L646 615 L674 769 L481 769 L453 615 Z " />
<glyph glyph-name="fl" unicode="&#xfb02;" horiz-adv-x="684" d="M15 409 L110 409 L10 -158 L201 -158 L301 409 L379 409 L408 575 L330 575 L332 583 C338 616 347 626 381 626 L417 626 L447 792 C434 793 420 793 392 793 C241 793 171 753 149 629 L139 575 L44 575 L15 409 Z M519 -3 C561 -3 584 -1 591 0 L620 165 C570 165 567 169 574 210 L673 769 L482 769 L381 202 C352 38 411 -3 519 -3 L519 -3 Z " />
</font>
</svg>
