<?xml version="1.0" encoding="UTF-8"?>
<svg xmlns="http://www.w3.org/2000/svg" xmlns:xlink="http://www.w3.org/1999/xlink" version="1.2" >
<font id="AntennaCond">
<font-face  font-family="AntennaCond" units-per-em="1000" ascent="800" descent="-200" font-style="normal" font-weight="400" font-stretch="normal" cap-height="741" x-height="555" underline-position="-75" underline-thickness="50" />
<missing-glyph  horiz-adv-x="180" d="" />
<glyph glyph-name="NULL" d="" />
<glyph glyph-name="CR" unicode="&#xd;" horiz-adv-x="250" d="" />
<glyph glyph-name="&amp;#x20;" unicode="&#x20;" horiz-adv-x="180" d="" />
<glyph glyph-name="&amp;#xa0;" unicode="&#xa0;" horiz-adv-x="180" d="" />
<glyph glyph-name="exclam" unicode="&#x21;" horiz-adv-x="306" d="M96 0 L209 0 L209 125 L96 125 L96 0 Z M111 211 L195 211 L205 741 L103 741 L111 211 Z " />
<glyph glyph-name="quotedbl" unicode="&#x22;" horiz-adv-x="425" d="M79 439 L166 439 L171 741 L75 741 L79 439 Z M260 439 L345 439 L351 741 L254 741 L260 439 Z " />
<glyph glyph-name="numbersign" unicode="&#x23;" horiz-adv-x="593" d="M98 0 L187 0 L220 219 L327 219 L294 0 L382 0 L415 219 L545 219 L545 306 L428 306 L446 424 L545 424 L545 510 L459 510 L494 741 L405 741 L371 510 L264 510 L299 741 L210 741 L175 510 L47 510 L47 424 L162 424 L144 306 L47 306 L47 219 L131 219 L98 0 Z M225 299 L245 430 L366 430 L345 299 L225 299 Z " />
<glyph glyph-name="dollar" unicode="&#x24;" horiz-adv-x="538" d="M227 -92 L317 -92 L317 1 C441 15 488 85 488 201 C488 328 407 374 312 414 L312 654 C355 649 391 637 418 623 L460 698 C423 718 375 734 317 740 L317 825 L227 825 L227 739 C115 726 70 660 70 549 C70 432 138 392 231 353 L231 80 C165 87 117 111 87 131 L43 60 C86 29 143 5 227 0 L227 -92 Z M396 196 C396 137 374 95 312 82 L312 317 C367 288 396 257 396 196 L396 196 Z M162 552 C162 601 178 639 231 651 L231 451 C185 476 162 504 162 552 L162 552 Z " />
<glyph glyph-name="percent" unicode="&#x25;" horiz-adv-x="935" d="M202 276 C316 276 374 338 374 512 C374 687 316 748 202 748 C89 748 32 687 32 512 C32 338 89 276 202 276 L202 276 Z M203 348 C141 348 117 388 117 510 C117 632 141 672 203 672 C265 672 289 632 289 510 C289 388 265 348 203 348 L203 348 Z M732 -7 C846 -7 903 55 903 229 C903 403 846 466 732 466 C618 466 562 403 562 229 C562 55 618 -7 732 -7 L732 -7 Z M732 65 C671 65 646 106 646 227 C646 349 671 389 732 389 C793 389 819 349 819 227 C819 106 793 65 732 65 L732 65 Z M262 0 L349 0 L675 741 L587 741 L262 0 Z " />
<glyph glyph-name="ampersand" unicode="&#x26;" horiz-adv-x="664" d="M258 -7 C353 -7 419 19 467 65 L522 0 L638 0 L520 139 C563 221 579 330 594 451 L510 462 C498 366 487 277 460 209 L363 325 C341 350 321 373 302 396 C368 444 429 502 429 594 C429 699 381 754 275 754 C168 754 118 698 118 594 C118 530 141 473 178 418 C102 366 37 307 37 200 C37 70 98 -7 258 -7 L258 -7 Z M258 73 C146 73 130 137 130 204 C130 268 174 313 225 354 C245 329 266 303 289 277 L412 130 C378 94 329 73 258 73 L258 73 Z M209 594 C209 642 222 672 275 672 C327 672 341 641 341 594 C341 538 304 496 256 459 C227 504 209 548 209 594 L209 594 Z " />
<glyph glyph-name="quotesingle" unicode="&#x27;" horiz-adv-x="245" d="M79 439 L166 439 L172 741 L75 741 L79 439 Z " />
<glyph glyph-name="parenleft" unicode="&#x28;" horiz-adv-x="399" d="M255 -173 L324 -128 C264 -63 182 80 182 304 C182 526 260 660 324 734 L255 780 C181 706 87 533 87 303 C87 60 181 -100 255 -173 L255 -173 Z " />
<glyph glyph-name="parenright" unicode="&#x29;" horiz-adv-x="399" d="M144 -173 C219 -100 312 73 312 304 C312 546 219 706 144 780 L76 734 C135 669 217 527 217 304 C217 80 139 -53 76 -128 L144 -173 Z " />
<glyph glyph-name="asterisk" unicode="&#x2a;" horiz-adv-x="481" d="M202 301 L277 301 L270 465 L397 378 L437 446 L298 521 L437 598 L396 665 L270 577 L277 742 L202 742 L211 578 L85 664 L44 597 L182 521 L44 447 L85 378 L211 464 L202 301 Z " />
<glyph glyph-name="plus" unicode="&#x2b;" horiz-adv-x="566" d="M239 124 L327 124 L327 311 L483 311 L483 393 L327 393 L327 579 L239 579 L239 393 L83 393 L83 311 L239 311 L239 124 Z " />
<glyph glyph-name="comma" unicode="&#x2c;" horiz-adv-x="216" d="M77 -119 C153 -82 165 -57 165 8 L165 126 L51 126 L51 0 L103 0 C103 -37 96 -44 49 -70 L77 -119 Z " />
<glyph glyph-name="&amp;#x2d;" unicode="&#x2d;" horiz-adv-x="353" d="M37 271 L315 271 L315 358 L37 358 L37 271 Z " />
<glyph glyph-name="&amp;#xad;" unicode="&#xad;" horiz-adv-x="353" d="M37 271 L315 271 L315 358 L37 358 L37 271 Z " />
<glyph glyph-name="period" unicode="&#x2e;" horiz-adv-x="216" d="M51 0 L165 0 L165 126 L51 126 L51 0 Z " />
<glyph glyph-name="slash" unicode="&#x2f;" horiz-adv-x="426" d="M0 0 L94 0 L426 741 L332 741 L0 0 Z " />
<glyph glyph-name="zero" unicode="0" horiz-adv-x="590" d="M296 -8 C496 -8 532 112 532 370 C532 622 496 749 296 749 C92 749 57 624 57 370 C57 114 94 -8 296 -8 L296 -8 Z M296 79 C179 79 154 159 154 370 C154 580 179 658 296 658 C409 658 437 580 437 370 C437 159 411 79 296 79 L296 79 Z " />
<glyph glyph-name="one" unicode="1" horiz-adv-x="311" d="M131 0 L225 0 L225 741 L23 741 L23 655 L131 655 L131 0 Z " />
<glyph glyph-name="two" unicode="2" horiz-adv-x="494" d="M34 0 L445 0 L445 83 L150 83 L266 228 C407 404 436 458 436 566 C436 688 385 749 247 749 C152 749 94 730 43 704 L83 625 C124 646 172 660 233 660 C315 660 342 627 342 553 C342 480 329 441 198 279 L34 76 L34 0 Z " />
<glyph glyph-name="three" unicode="3" horiz-adv-x="493" d="M225 -8 C375 -8 445 48 445 214 C445 336 423 383 350 405 C404 426 428 473 428 571 C428 715 360 749 235 749 C157 749 90 730 41 702 L80 626 C121 646 170 660 221 660 C299 660 335 641 335 549 C335 484 315 438 219 438 L126 438 L126 354 L214 354 C336 354 352 304 352 223 C352 113 317 78 219 78 C157 78 116 92 72 116 L29 39 C83 9 135 -8 225 -8 L225 -8 Z " />
<glyph glyph-name="four" unicode="4" horiz-adv-x="545" d="M36 168 L333 168 L333 0 L421 0 L421 168 L520 168 L520 247 L421 247 L421 475 L353 475 L334 247 L136 247 L394 741 L295 741 L36 243 L36 168 Z " />
<glyph glyph-name="five" unicode="5" horiz-adv-x="513" d="M245 -8 C397 -8 473 37 473 244 C473 435 413 487 280 487 C215 487 174 474 146 455 L156 655 L437 655 L437 741 L76 741 L58 383 L131 362 C157 384 193 401 250 401 C335 401 379 377 379 242 C379 106 335 78 239 78 C165 78 118 94 76 117 L33 40 C86 11 151 -8 245 -8 L245 -8 Z " />
<glyph glyph-name="six" unicode="6" horiz-adv-x="558" d="M292 -8 C468 -8 515 80 515 257 C515 404 485 499 320 499 C235 499 180 478 150 439 C158 572 177 655 369 655 L431 655 L431 741 L374 741 C70 741 54 596 54 301 C54 101 81 -8 292 -8 L292 -8 Z M293 75 C175 75 151 134 151 262 C151 375 211 419 295 419 C397 419 422 364 422 256 C422 136 397 75 293 75 L293 75 Z " />
<glyph glyph-name="seven" unicode="7" horiz-adv-x="442" d="M108 0 L208 0 L428 667 L428 741 L19 741 L19 655 L326 655 L108 0 Z " />
<glyph glyph-name="eight" unicode="8" horiz-adv-x="561" d="M281 -8 C483 -8 513 95 513 211 C513 302 506 378 411 408 C482 435 492 497 492 569 C492 665 457 749 281 749 C105 749 69 665 69 569 C69 497 78 436 150 408 C58 379 48 302 48 211 C48 95 78 -8 281 -8 L281 -8 Z M281 74 C166 74 144 136 144 221 C144 305 166 362 281 362 C396 362 418 305 418 221 C418 136 396 74 281 74 L281 74 Z M281 442 C186 442 161 486 161 555 C161 623 186 667 281 667 C377 667 400 623 400 555 C400 486 377 442 281 442 L281 442 Z " />
<glyph glyph-name="nine" unicode="9" horiz-adv-x="558" d="M125 0 L184 0 C485 0 504 143 504 441 C504 640 476 749 267 749 C89 749 42 657 42 481 C42 335 72 239 238 239 C320 239 378 260 407 299 C400 164 375 83 189 83 L125 83 L125 0 Z M263 319 C161 319 136 374 136 481 C136 603 160 663 265 663 C383 663 407 605 407 477 C407 364 347 319 263 319 L263 319 Z " />
<glyph glyph-name="colon" unicode="&#x3a;" horiz-adv-x="232" d="M59 0 L172 0 L172 124 L59 124 L59 0 Z M59 432 L172 432 L172 555 L59 555 L59 432 Z " />
<glyph glyph-name="semicolon" unicode="&#x3b;" horiz-adv-x="232" d="M59 432 L172 432 L172 555 L59 555 L59 432 Z M85 -119 C161 -82 172 -57 172 8 L172 124 L59 124 L59 0 L111 0 C111 -37 104 -44 57 -70 L85 -119 Z " />
<glyph glyph-name="less" unicode="&#x3c;" horiz-adv-x="565" d="M448 106 L448 198 L180 347 L448 495 L448 586 L85 380 L85 312 L448 106 Z " />
<glyph glyph-name="equal" unicode="&#x3d;" horiz-adv-x="567" d="M86 203 L482 203 L482 290 L86 290 L86 203 Z M86 402 L482 402 L482 488 L86 488 L86 402 Z " />
<glyph glyph-name="greater" unicode="&#x3e;" horiz-adv-x="566" d="M117 106 L480 312 L480 380 L117 586 L117 495 L384 345 L117 197 L117 106 Z " />
<glyph glyph-name="question" unicode="&#x3f;" horiz-adv-x="518" d="M193 204 L285 204 C283 300 287 314 368 395 C422 450 458 490 458 581 C458 678 418 749 266 749 C178 749 110 729 60 704 L102 625 C139 644 193 662 252 662 C344 662 364 621 364 565 C364 512 343 486 289 432 C200 341 192 317 193 204 L193 204 Z M182 0 L294 0 L294 114 L182 114 L182 0 Z " />
<glyph glyph-name="at" unicode="&#x40;" horiz-adv-x="843" d="M422 -165 C528 -165 615 -141 677 -114 L656 -63 C600 -86 516 -109 422 -109 C213 -109 114 -15 114 291 C114 597 213 692 422 692 C630 692 731 597 731 291 C731 125 715 93 661 93 C606 93 604 119 602 199 L602 542 L539 547 L524 494 C503 531 471 550 382 550 C234 550 213 431 213 291 C213 154 232 34 381 34 C470 34 514 57 538 101 C547 55 578 33 652 33 C764 33 791 102 791 291 C791 629 674 748 422 748 C170 748 53 629 53 291 C53 -48 170 -165 422 -165 L422 -165 Z M404 107 C309 107 298 184 298 290 C298 398 309 472 404 472 C507 472 518 409 518 291 C518 185 513 107 404 107 L404 107 Z " />
<glyph glyph-name="A" unicode="A" horiz-adv-x="598" d="M20 0 L116 0 L160 154 L434 154 L480 0 L578 0 L350 746 L248 746 L20 0 Z M186 242 L298 610 L409 242 L186 242 Z " />
<glyph glyph-name="B" unicode="B" horiz-adv-x="570" d="M65 0 L307 0 C445 0 532 51 532 204 C532 316 494 368 425 389 C481 409 517 458 517 554 C517 687 447 741 301 741 L65 741 L65 0 Z M161 83 L161 338 L306 338 C384 338 435 311 435 211 C435 110 384 83 306 83 L161 83 Z M161 425 L161 656 L298 656 C377 656 421 631 421 542 C421 452 377 425 298 425 L161 425 Z " />
<glyph glyph-name="C" unicode="C" horiz-adv-x="521" d="M303 -8 C396 -8 447 11 499 44 L451 119 C410 93 373 79 308 79 C166 79 131 172 131 368 C131 565 168 655 307 655 C369 655 411 639 439 622 L490 702 C449 730 389 749 310 749 C79 749 33 597 33 370 C33 139 84 -8 303 -8 L303 -8 Z " />
<glyph glyph-name="D" unicode="D" horiz-adv-x="600" d="M65 0 L271 0 C510 0 567 116 567 371 C567 621 508 741 275 741 L65 741 L65 0 Z M162 85 L162 652 L280 652 C438 652 469 562 469 370 C469 176 437 85 278 85 L162 85 Z " />
<glyph glyph-name="E" unicode="E" horiz-adv-x="519" d="M65 0 L475 0 L475 87 L160 87 L160 339 L456 339 L456 427 L160 427 L160 652 L472 652 L472 741 L65 741 L65 0 Z " />
<glyph glyph-name="F" unicode="F" horiz-adv-x="499" d="M65 0 L162 0 L162 333 L456 333 L456 421 L162 421 L162 652 L473 652 L473 741 L65 741 L65 0 Z " />
<glyph glyph-name="G" unicode="G" horiz-adv-x="577" d="M299 -8 C497 -8 544 71 544 322 L544 417 L276 417 L276 333 L451 333 L451 308 C451 125 424 75 307 75 C172 75 130 152 130 368 C130 597 186 656 310 656 C382 656 425 637 458 618 L508 698 C462 727 404 749 314 749 C106 749 33 644 33 370 C33 120 90 -8 299 -8 L299 -8 Z " />
<glyph glyph-name="H" unicode="H" horiz-adv-x="630" d="M65 0 L162 0 L162 338 L468 338 L468 0 L565 0 L565 741 L468 741 L468 433 L162 433 L162 741 L65 741 L65 0 Z " />
<glyph glyph-name="I" unicode="I" horiz-adv-x="240" d="M72 0 L169 0 L169 741 L72 741 L72 0 Z " />
<glyph glyph-name="J" unicode="J" horiz-adv-x="354" d="M25 0 L109 0 C228 0 293 48 293 179 L293 741 L196 741 L196 185 C196 119 172 87 95 87 L25 87 L25 0 Z " />
<glyph glyph-name="K" unicode="K" horiz-adv-x="585" d="M65 0 L161 0 L161 252 L262 382 L453 0 L560 0 L327 461 L553 741 L441 741 L161 389 L161 741 L65 741 L65 0 Z " />
<glyph glyph-name="L" unicode="L" horiz-adv-x="482" d="M65 0 L465 0 L465 87 L162 87 L162 741 L65 741 L65 0 Z " />
<glyph glyph-name="M" unicode="M" horiz-adv-x="742" d="M65 0 L151 0 L151 558 L332 0 L402 0 L582 558 L582 0 L677 0 L677 741 L555 741 L371 165 L187 741 L65 741 L65 0 Z " />
<glyph glyph-name="N" unicode="N" horiz-adv-x="627" d="M65 0 L157 0 L157 573 L473 0 L563 0 L563 741 L470 741 L470 193 L170 741 L65 741 L65 0 Z " />
<glyph glyph-name="O" unicode="O" horiz-adv-x="628" d="M315 -8 C564 -8 595 165 595 370 C595 575 564 749 315 749 C65 749 33 575 33 370 C33 165 65 -8 315 -8 L315 -8 Z M315 79 C148 79 131 201 131 367 C131 533 148 656 315 656 C480 656 498 533 498 367 C498 201 481 79 315 79 L315 79 Z " />
<glyph glyph-name="P" unicode="P" horiz-adv-x="570" d="M65 0 L161 0 L161 281 L315 281 C472 281 537 367 537 516 C537 667 471 741 317 741 L65 741 L65 0 Z M161 368 L161 654 L313 654 C402 654 442 618 442 512 C442 406 402 368 313 368 L161 368 Z " />
<glyph glyph-name="Q" unicode="Q" horiz-adv-x="628" d="M413 -170 L487 -170 L487 -87 L424 -87 C368 -87 343 -69 343 -12 L343 -3 C566 9 595 173 595 370 C595 575 564 749 315 749 C65 749 33 575 33 370 C33 184 59 28 250 0 C249 -9 249 -18 249 -27 C248 -130 306 -170 413 -170 L413 -170 Z M315 79 C148 79 131 201 131 367 C131 533 148 656 315 656 C480 656 498 533 498 367 C498 201 481 79 315 79 L315 79 Z " />
<glyph glyph-name="R" unicode="R" horiz-adv-x="579" d="M425 0 L526 0 L392 295 C492 320 535 400 535 520 C535 668 469 741 315 741 L65 741 L65 0 L161 0 L161 286 L296 286 L425 0 Z M161 373 L161 654 L312 654 C401 654 439 617 439 515 C439 411 401 373 312 373 L161 373 Z " />
<glyph glyph-name="S" unicode="S" horiz-adv-x="539" d="M270 -8 C426 -8 504 67 504 189 C504 323 440 360 289 424 C183 471 152 490 152 559 C152 619 191 658 281 658 C348 658 397 644 435 626 L476 709 C424 733 365 749 279 749 C133 749 57 676 57 556 C57 440 123 394 246 343 C365 294 409 272 409 188 C409 117 364 76 268 76 C178 76 114 105 77 127 L29 52 C80 20 158 -8 270 -8 L270 -8 Z " />
<glyph glyph-name="T" unicode="T" horiz-adv-x="548" d="M225 0 L322 0 L322 652 L531 652 L531 741 L17 741 L17 652 L225 652 L225 0 Z " />
<glyph glyph-name="U" unicode="U" horiz-adv-x="625" d="M313 -10 C510 -10 565 83 565 247 L565 741 L472 741 L472 254 C472 137 439 79 314 79 C188 79 157 139 157 254 L157 741 L60 741 L60 247 C60 83 119 -10 313 -10 L313 -10 Z " />
<glyph glyph-name="V" unicode="V" horiz-adv-x="594" d="M246 -5 L348 -5 L574 741 L477 741 L299 138 L118 741 L20 741 L246 -5 Z " />
<glyph glyph-name="W" unicode="W" horiz-adv-x="861" d="M203 -5 L297 -5 L431 545 L565 -5 L659 -5 L834 741 L743 741 L612 181 L476 741 L391 741 L256 181 L125 741 L27 741 L203 -5 Z " />
<glyph glyph-name="X" unicode="X" horiz-adv-x="584" d="M452 0 L558 0 L345 387 L538 741 L435 741 L296 475 L151 741 L45 741 L238 388 L25 0 L129 0 L286 301 L452 0 Z " />
<glyph glyph-name="Y" unicode="Y" horiz-adv-x="570" d="M237 0 L333 0 L333 267 L563 741 L464 741 L286 372 L110 741 L6 741 L237 267 L237 0 Z " />
<glyph glyph-name="Z" unicode="Z" horiz-adv-x="532" d="M31 0 L498 0 L498 87 L147 87 L489 661 L489 741 L45 741 L45 652 L374 652 L31 75 L31 0 Z " />
<glyph glyph-name="bracketleft" unicode="&#x5b;" horiz-adv-x="394" d="M94 -158 L321 -158 L321 -80 L189 -80 L189 688 L318 688 L318 769 L94 769 L94 -158 Z " />
<glyph glyph-name="backslash" unicode="&#x5c;" horiz-adv-x="426" d="M332 0 L426 0 L94 741 L0 741 L332 0 Z " />
<glyph glyph-name="bracketright" unicode="&#x5d;" horiz-adv-x="394" d="M76 -158 L302 -158 L302 769 L77 769 L77 688 L206 688 L206 -80 L76 -80 L76 -158 Z " />
<glyph glyph-name="asciicircum" unicode="&#x5e;" horiz-adv-x="471" d="M80 596 L156 596 L235 692 L314 596 L392 596 L281 758 L192 758 L80 596 Z " />
<glyph glyph-name="underscore" unicode="&#x5f;" horiz-adv-x="362" d="M-30 -125 L392 -125 L392 -53 L-30 -53 L-30 -125 Z " />
<glyph glyph-name="grave" unicode="&#x60;" horiz-adv-x="471" d="M219 613 L302 613 L191 775 L84 775 L219 613 Z " />
<glyph glyph-name="a" unicode="a" horiz-adv-x="510" d="M198 -6 C271 -6 322 8 355 52 C365 11 390 -1 450 -1 C459 -1 468 -1 476 0 L476 82 C436 82 433 93 433 136 L433 370 C433 505 400 566 252 566 C173 566 110 549 67 527 L106 450 C138 466 185 480 243 480 C323 480 339 443 341 370 L318 370 C128 370 33 328 33 167 C33 59 74 -6 198 -6 L198 -6 Z M217 72 C156 72 122 96 122 176 C122 277 181 293 319 293 L341 293 L341 215 C341 101 284 72 217 72 L217 72 Z " />
<glyph glyph-name="b" unicode="b" horiz-adv-x="528" d="M56 3 L126 -4 L140 54 C168 17 198 -7 306 -7 C472 -7 493 126 493 279 C493 430 474 565 309 565 C220 565 174 543 149 502 L149 769 L56 769 L56 3 Z M281 75 C160 75 150 158 150 275 C150 392 161 477 281 477 C386 477 399 393 399 275 C399 156 385 75 281 75 L281 75 Z " />
<glyph glyph-name="c" unicode="c" horiz-adv-x="420" d="M250 -8 C311 -8 351 4 399 28 L363 100 C335 87 303 74 260 74 C153 74 130 145 130 277 C130 408 155 477 259 477 C294 477 323 470 351 456 L391 537 C355 555 312 565 255 565 C72 565 35 454 35 279 C35 103 73 -8 250 -8 L250 -8 Z " />
<glyph glyph-name="d" unicode="d" horiz-adv-x="528" d="M219 -7 C320 -7 364 18 389 58 L398 -3 L472 4 L472 769 L379 769 L379 508 C354 544 315 565 223 565 C57 565 35 433 35 280 C35 127 54 -7 219 -7 L219 -7 Z M247 75 C142 75 129 160 129 278 C129 396 143 478 247 478 C369 478 379 394 379 278 C379 161 368 75 247 75 L247 75 Z " />
<glyph glyph-name="e" unicode="e" horiz-adv-x="478" d="M251 -7 C337 -7 390 11 433 34 L397 106 C364 91 328 74 256 74 C152 74 128 131 124 236 L444 236 C445 443 444 565 253 565 C76 565 35 451 35 279 C35 104 68 -7 251 -7 L251 -7 Z M251 482 C354 482 355 419 357 319 L125 319 C129 421 152 482 251 482 L251 482 Z " />
<glyph glyph-name="f" unicode="f" horiz-adv-x="336" d="M18 473 L105 473 L105 0 L199 0 L199 473 L327 473 L327 555 L199 555 L199 608 C199 657 210 688 271 688 L327 688 L327 770 C317 771 284 771 263 771 C148 771 105 711 105 617 L105 555 L18 555 L18 473 Z " />
<glyph glyph-name="g" unicode="g" horiz-adv-x="497" d="M240 199 C359 199 436 244 436 380 C436 448 415 492 380 516 L460 516 L460 591 L285 564 C269 565 254 566 240 566 C117 566 44 515 44 380 C44 307 65 260 104 233 C89 213 82 190 82 168 C82 138 92 113 114 99 C45 82 17 34 17 -32 C17 -136 83 -167 241 -167 C395 -167 465 -118 465 -2 C465 101 416 138 247 138 C183 138 164 146 164 175 C164 185 166 196 170 205 C191 201 215 199 240 199 L240 199 Z M240 276 C172 276 136 306 136 379 C136 452 172 483 240 483 C310 483 344 452 344 379 C344 306 310 276 240 276 L240 276 Z M240 -93 C139 -93 110 -76 110 -17 C110 38 140 64 240 64 C348 64 370 45 370 -6 C370 -68 345 -93 240 -93 L240 -93 Z " />
<glyph glyph-name="h" unicode="h" horiz-adv-x="519" d="M56 0 L150 0 L150 292 C150 422 170 476 274 476 C364 476 373 429 373 340 L373 0 L467 0 L467 361 C467 482 449 565 307 565 C209 565 169 538 149 505 L149 769 L56 769 L56 0 Z " />
<glyph glyph-name="i" unicode="i" horiz-adv-x="213" d="M59 0 L153 0 L153 555 L59 555 L59 0 Z M59 623 L154 623 L154 736 L59 736 L59 623 Z " />
<glyph glyph-name="j" unicode="j" horiz-adv-x="213" d="M2 -158 L17 -158 C127 -158 153 -120 153 -20 L153 555 L59 555 L59 -17 C59 -64 54 -81 11 -81 L2 -81 L2 -158 Z M59 623 L154 623 L154 736 L59 736 L59 623 Z " />
<glyph glyph-name="k" unicode="k" horiz-adv-x="466" d="M56 0 L148 0 L148 152 L212 245 L355 0 L454 0 L274 320 L441 555 L340 555 L148 281 L148 769 L56 769 L56 0 Z " />
<glyph glyph-name="l" unicode="l" horiz-adv-x="254" d="M219 0 L219 82 C156 82 153 96 153 141 L153 769 L59 769 L59 130 C59 32 89 -1 186 -1 C205 -1 214 -1 219 0 L219 0 Z " />
<glyph glyph-name="m" unicode="m" horiz-adv-x="806" d="M56 0 L148 0 L148 292 C148 420 166 476 269 476 C359 476 363 429 363 340 L363 0 L456 0 L456 292 C456 421 473 476 575 476 C666 476 670 429 670 340 L670 0 L763 0 L763 361 C763 482 752 565 608 565 C505 565 459 539 436 499 C422 537 398 565 302 565 C200 565 160 539 139 501 L131 556 L56 550 L56 0 Z " />
<glyph glyph-name="n" unicode="n" horiz-adv-x="519" d="M56 0 L150 0 L150 292 C150 415 166 476 274 476 C364 476 373 429 373 340 L373 0 L467 0 L467 361 C467 482 448 565 306 565 C205 565 162 539 139 501 L131 556 L56 550 L56 0 Z " />
<glyph glyph-name="o" unicode="o" horiz-adv-x="514" d="M257 -8 C446 -8 479 112 479 279 C479 441 446 565 257 565 C69 565 35 443 35 279 C35 113 71 -8 257 -8 L257 -8 Z M257 74 C142 74 129 161 129 276 C129 391 142 477 257 477 C373 477 385 391 385 276 C385 161 373 74 257 74 L257 74 Z " />
<glyph glyph-name="p" unicode="p" horiz-adv-x="528" d="M56 -158 L150 -158 L150 50 C175 14 214 -7 306 -7 C471 -7 493 126 493 279 C493 430 474 565 309 565 C210 565 162 538 138 500 L131 556 L56 550 L56 -158 Z M281 75 C160 75 150 158 150 275 C150 392 161 477 281 477 C385 477 399 393 399 275 C399 156 384 75 281 75 L281 75 Z " />
<glyph glyph-name="q" unicode="q" horiz-adv-x="528" d="M379 -158 L472 -158 L472 556 L403 562 L389 506 C365 542 328 565 223 565 C57 565 35 433 35 280 C35 127 54 -7 219 -7 C312 -7 354 16 379 54 L379 -158 Z M247 75 C142 75 129 160 129 278 C129 396 143 478 247 478 C369 478 379 394 379 278 C379 161 368 75 247 75 L247 75 Z " />
<glyph glyph-name="r" unicode="r" horiz-adv-x="302" d="M56 0 L150 0 L150 276 C150 377 158 469 293 472 L293 560 C202 560 160 531 139 493 L130 556 L56 550 L56 0 Z " />
<glyph glyph-name="s" unicode="s" horiz-adv-x="405" d="M200 -7 C313 -7 381 41 381 145 C381 246 328 279 231 320 C153 354 123 372 123 416 C123 458 145 483 207 483 C257 483 294 472 324 459 L361 537 C320 555 280 565 210 565 C99 565 33 518 33 414 C33 325 86 290 178 250 C260 214 293 195 293 144 C293 93 259 70 200 70 C141 70 89 85 53 104 L16 30 C64 6 127 -7 200 -7 L200 -7 Z " />
<glyph glyph-name="t" unicode="t" horiz-adv-x="365" d="M18 473 L103 473 L103 148 C103 44 131 -3 255 -3 C267 -3 313 -1 327 0 L327 82 L265 82 C204 82 197 108 197 157 L197 473 L327 473 L327 555 L197 555 L197 719 L121 702 L106 555 L18 555 L18 473 Z " />
<glyph glyph-name="u" unicode="u" horiz-adv-x="508" d="M254 -8 C423 -8 455 61 455 206 L455 555 L363 555 L363 211 C363 121 353 76 256 76 C156 76 147 121 147 211 L147 555 L53 555 L53 206 C53 61 89 -8 254 -8 L254 -8 Z " />
<glyph glyph-name="v" unicode="v" horiz-adv-x="462" d="M180 -4 L282 -4 L454 555 L360 555 L233 121 L106 555 L8 555 L180 -4 Z " />
<glyph glyph-name="w" unicode="w" horiz-adv-x="714" d="M161 -4 L252 -4 L357 393 L464 -4 L554 -4 L701 555 L612 555 L508 148 L403 555 L316 555 L210 145 L107 555 L13 555 L161 -4 Z " />
<glyph glyph-name="x" unicode="x" horiz-adv-x="456" d="M343 0 L444 0 L280 287 L430 555 L335 555 L233 368 L127 555 L26 555 L176 292 L12 0 L107 0 L222 211 L343 0 Z " />
<glyph glyph-name="y" unicode="y" horiz-adv-x="448" d="M65 -158 L114 -158 C189 -158 227 -141 250 -65 L439 555 L347 555 L225 133 L103 555 L8 555 L177 -2 L165 -45 C157 -71 146 -81 116 -81 L65 -81 L65 -158 Z " />
<glyph glyph-name="z" unicode="z" horiz-adv-x="410" d="M20 0 L390 0 L390 77 L135 77 L381 490 L381 555 L35 555 L35 473 L266 473 L20 65 L20 0 Z " />
<glyph glyph-name="braceleft" unicode="&#x7b;" horiz-adv-x="423" d="M275 -158 L350 -158 L350 -80 L300 -80 C246 -80 217 -61 217 -6 C217 40 257 167 257 232 C257 267 243 292 208 306 C242 318 257 344 257 379 C257 440 217 566 217 617 C217 671 246 688 300 688 L350 688 L350 769 L274 769 C166 769 120 730 120 644 C120 584 163 444 163 393 C163 351 135 345 62 345 L62 266 C137 266 163 259 163 217 C163 172 120 25 120 -33 C120 -119 166 -158 275 -158 L275 -158 Z " />
<glyph glyph-name="bar" unicode="&#x7c;" horiz-adv-x="282" d="M94 -158 L189 -158 L189 769 L94 769 L94 -158 Z " />
<glyph glyph-name="braceright" unicode="&#x7d;" horiz-adv-x="423" d="M73 -158 L149 -158 C258 -158 302 -119 302 -33 C302 25 260 172 260 217 C260 260 288 266 361 266 L361 346 C285 346 260 352 260 393 C260 444 302 584 302 644 C302 730 258 769 150 769 L73 769 L73 688 L123 688 C178 688 206 671 206 617 C206 566 166 439 166 379 C166 344 180 319 215 306 C181 293 166 267 166 232 C166 166 206 40 206 -6 C206 -61 178 -80 123 -80 L73 -80 L73 -158 Z " />
<glyph glyph-name="asciitilde" unicode="&#x7e;" horiz-adv-x="471" d="M124 403 C142 431 158 445 180 445 C212 445 247 405 297 405 C346 405 380 435 407 491 L346 526 C327 497 312 480 289 480 C256 480 223 521 173 521 C125 521 90 493 62 438 L124 403 Z " />
<glyph glyph-name="exclamdown" unicode="&#xa1;" horiz-adv-x="307" d="M102 0 L205 0 L196 531 L111 531 L102 0 Z M97 616 L210 616 L210 741 L97 741 L97 616 Z " />
<glyph glyph-name="cent" unicode="&#xa2;" horiz-adv-x="436" d="M205 -96 L296 -96 L296 -3 C337 0 369 10 406 30 L371 100 C347 89 322 78 291 75 L291 476 C315 473 337 466 358 456 L398 535 C368 549 337 558 296 561 L296 643 L205 643 L205 558 C72 536 42 434 42 279 C42 122 72 19 205 -1 L205 -96 Z M138 277 C138 379 153 444 210 467 L210 84 C151 107 138 173 138 277 L138 277 Z " />
<glyph glyph-name="sterling" unicode="&#xa3;" horiz-adv-x="501" d="M349 -5 C448 -5 477 41 477 147 L477 208 L394 208 L394 150 C394 102 385 76 338 76 C293 76 252 89 217 106 C220 124 222 144 222 168 C222 209 210 272 198 337 L346 337 L346 415 L183 415 C172 470 164 521 164 555 C164 621 190 662 266 662 C318 662 374 652 416 632 L456 708 C404 735 344 749 266 749 C128 749 72 686 72 564 C72 524 81 470 92 415 L19 415 L19 337 L108 337 C123 269 136 206 136 167 C136 94 115 83 17 83 L17 0 C98 0 151 9 183 38 C230 13 290 -5 349 -5 L349 -5 Z " />
<glyph glyph-name="currency" unicode="&#xa4;" horiz-adv-x="558" d="M28 410 L118 410 L118 339 L28 339 L28 261 L121 261 C135 77 192 -8 348 -8 C425 -8 478 12 524 38 L481 113 C448 96 410 78 354 78 C259 78 225 137 215 261 L423 261 L423 339 L211 339 L211 410 L423 410 L423 487 L215 487 C225 604 259 659 353 659 C409 659 447 647 480 629 L525 708 C479 735 423 749 354 749 C195 749 137 666 122 487 L28 487 L28 410 Z " />
<glyph glyph-name="yen" unicode="&#xa5;" horiz-adv-x="520" d="M55 224 L215 224 L215 153 L55 153 L55 75 L215 75 L215 0 L306 0 L306 75 L466 75 L466 153 L306 153 L306 224 L466 224 L466 302 L306 302 L306 307 L506 741 L409 741 L261 404 L113 741 L13 741 L215 307 L215 302 L55 302 L55 224 Z " />
<glyph glyph-name="brokenbar" unicode="&#xa6;" horiz-adv-x="282" d="M94 -158 L189 -158 L189 226 L94 226 L94 -158 Z M94 385 L189 385 L189 769 L94 769 L94 385 Z " />
<glyph glyph-name="section" unicode="&#xa7;" horiz-adv-x="454" d="M116 -8 C244 -8 269 63 269 158 L269 224 C363 234 404 280 404 371 C404 463 363 509 268 519 L268 585 C268 636 279 669 341 669 L380 669 L380 747 C372 747 349 748 333 748 C204 748 180 678 180 583 L180 518 C88 508 50 462 50 371 C50 281 88 235 180 224 L180 152 C180 102 170 68 108 68 L70 68 L70 -6 C77 -7 99 -8 116 -8 L116 -8 Z M226 287 C160 287 126 311 126 369 C126 428 160 450 226 450 C293 450 327 428 327 369 C327 311 293 287 226 287 L226 287 Z " />
<glyph glyph-name="dieresis" unicode="&#xa8;" horiz-adv-x="471" d="M105 613 L189 613 L189 718 L105 718 L105 613 Z M282 613 L367 613 L367 718 L282 718 L282 613 Z " />
<glyph glyph-name="copyright" unicode="&#xa9;" horiz-adv-x="667" d="M339 123 C401 123 434 135 469 157 L437 208 C409 190 384 181 342 181 C248 181 225 244 225 373 C225 503 248 565 341 565 C382 565 410 554 428 542 L463 595 C437 612 396 625 343 625 C190 625 161 525 161 375 C161 220 193 123 339 123 L339 123 Z M333 -10 C565 -10 628 148 628 370 C628 593 565 752 333 752 C101 752 40 593 40 370 C40 148 101 -10 333 -10 L333 -10 Z M333 30 C134 30 82 171 82 370 C82 571 134 712 333 712 C533 712 585 571 585 370 C585 171 533 30 333 30 L333 30 Z " />
<glyph glyph-name="ordfeminine" unicode="&#xaa;" horiz-adv-x="452" d="M178 286 C240 286 282 302 307 348 C315 303 333 289 387 289 C393 289 403 290 410 290 L410 359 C377 359 374 369 374 401 L374 590 C374 700 348 749 228 749 C162 749 112 735 77 718 L109 654 C136 666 175 678 220 678 C286 678 297 647 298 585 L281 585 C126 585 49 557 49 425 C49 338 84 286 178 286 L178 286 Z M199 351 C151 351 124 369 124 433 C124 512 169 526 281 526 L298 526 L298 464 C298 374 253 351 199 351 L199 351 Z M62 143 L384 143 L384 213 L62 213 L62 143 Z " />
<glyph glyph-name="guillemotleft" unicode="&#xab;" horiz-adv-x="575" d="M188 0 L272 0 L157 277 L272 555 L188 555 L67 277 L188 0 Z M404 0 L487 0 L372 277 L487 555 L404 555 L284 277 L404 0 Z " />
<glyph glyph-name="logicalnot" unicode="&#xac;" horiz-adv-x="832" d="M126 120 C126 120 129 123 134 127 C79 193 46 278 46 371 C46 464 79 549 133 615 C129 619 126 621 126 621 C70 554 36 466 36 371 C36 275 70 187 126 120 L126 120 Z M228 211 C230 213 233 215 235 218 C201 259 181 313 181 371 C181 429 202 483 235 524 C232 526 230 529 227 531 C192 487 171 432 171 371 C171 310 193 254 228 211 L228 211 Z M264 243 C267 245 269 248 272 250 C245 283 229 325 229 371 C229 417 245 459 272 492 C269 494 267 497 264 499 C236 464 219 419 219 371 C219 322 236 278 264 243 L264 243 Z M316 289 C319 291 321 294 324 296 C308 317 298 343 298 371 C298 399 308 425 323 445 C321 448 318 450 316 452 C298 430 288 402 288 371 C288 340 298 312 316 289 L316 289 Z M349 320 C352 323 354 325 357 327 C348 340 343 355 343 371 C343 387 348 402 357 415 C354 417 352 420 349 422 C339 408 333 390 333 371 C333 352 339 334 349 320 L349 320 Z M378 346 C382 349 384 351 384 351 C381 357 379 364 379 371 C379 378 381 385 384 391 C384 391 382 393 378 396 C374 389 371 380 371 371 C371 362 374 353 378 346 L378 346 Z M416 60 C493 60 563 89 616 136 C614 139 611 141 609 144 C558 98 490 70 416 70 C342 70 274 98 222 144 C222 145 215 137 215 137 C268 89 338 60 416 60 L416 60 Z M416 324 C426 324 435 327 442 333 C439 337 437 339 437 339 C431 334 424 332 416 332 C408 332 401 335 395 339 C395 339 391 334 389 333 C397 327 406 324 416 324 L416 324 Z M482 319 C493 334 499 352 499 371 C499 390 493 408 482 422 C483 422 475 415 475 415 C484 403 489 388 489 371 C489 355 484 339 475 326 C478 324 480 322 482 319 L482 319 Z M292 269 C295 271 298 274 300 276 C280 302 267 335 267 371 C267 407 280 440 300 466 L293 473 C270 445 257 410 257 371 C257 333 270 297 292 269 L292 269 Z M416 -17 C512 -17 600 19 667 80 C667 80 660 88 660 87 C595 29 510 -7 416 -7 C322 -7 236 29 171 88 L164 80 C231 20 320 -17 416 -17 L416 -17 Z M416 121 C478 121 534 144 576 182 C574 185 571 187 569 190 C529 153 475 131 416 131 C357 131 303 153 262 190 L255 182 C298 144 354 121 416 121 L416 121 Z M416 170 C465 170 510 188 544 218 C542 221 539 223 537 226 C505 197 462 180 416 180 C369 180 327 197 294 226 L287 219 C322 189 367 170 416 170 L416 170 Z M416 209 C455 209 491 224 518 247 C516 250 514 253 512 255 C486 233 452 219 416 219 C380 219 346 233 320 255 L313 247 C341 224 377 209 416 209 L416 209 Z M416 265 C441 265 463 274 481 289 C479 292 476 294 474 297 C458 283 438 275 416 275 C394 275 373 283 357 297 L350 289 C368 274 391 265 416 265 L416 265 Z M358 445 C374 459 394 467 416 467 C438 467 458 459 474 445 L482 453 C464 468 441 477 416 477 C391 477 368 468 350 453 C351 452 354 448 358 445 L358 445 Z M570 552 C572 554 575 557 577 560 C534 598 478 621 416 621 C355 621 299 598 256 560 L263 553 C304 589 357 611 416 611 C475 611 529 589 570 552 L570 552 Z M454 346 C458 353 461 362 461 371 C461 380 458 389 454 396 L448 391 C451 385 453 378 453 371 C453 364 451 357 448 351 C448 351 450 349 454 346 L454 346 Z M468 333 C476 344 480 357 480 371 C480 385 476 398 468 409 L460 402 C466 393 470 382 470 371 C470 360 466 349 460 340 C463 338 465 336 468 333 L468 333 Z M498 306 C511 325 519 347 519 371 C519 395 511 418 497 436 L490 429 C502 413 509 393 509 371 C509 349 502 329 490 313 C492 311 495 308 498 306 L498 306 Z M540 269 C562 297 575 332 575 371 C575 410 562 445 539 473 L531 466 C552 440 565 407 565 371 C565 335 552 302 532 276 C535 274 537 271 540 269 L540 269 Z M568 243 C596 278 613 322 613 371 C613 420 596 464 568 499 L560 492 C587 459 603 417 603 371 C603 325 587 283 560 250 C563 248 566 245 568 243 L568 243 Z M604 211 C640 254 661 310 661 371 C661 432 640 488 604 531 L596 524 C631 483 651 429 651 371 C651 313 631 260 596 218 C601 213 604 211 604 211 L604 211 Z M649 171 C694 225 721 295 721 371 C721 447 694 517 649 571 L641 564 C685 512 711 445 711 371 C711 297 685 230 642 177 C644 175 647 173 649 171 L649 171 Z M706 120 C762 188 796 276 796 371 C796 467 762 555 706 622 L698 615 C753 549 786 464 786 371 C786 278 753 193 698 127 C703 123 706 120 706 120 L706 120 Z M183 170 L190 177 C147 229 121 297 121 371 C121 444 147 512 190 564 C187 567 184 569 182 571 C138 517 111 447 111 371 C111 294 138 225 183 170 L183 170 Z M334 306 L342 314 C330 330 323 350 323 371 C323 393 330 413 342 429 C340 431 337 434 334 436 C321 418 313 395 313 371 C313 346 321 324 334 306 L334 306 Z M364 333 L371 340 C366 349 362 360 362 371 C362 382 366 393 371 402 C369 404 366 406 364 409 C356 398 352 385 352 371 C352 357 356 344 364 333 L364 333 Z M395 403 C401 408 408 410 416 410 C424 410 431 407 437 403 C437 403 439 406 442 409 C435 415 426 418 416 418 C406 418 397 415 390 409 L395 403 Z M384 416 C393 423 404 428 416 428 C428 428 439 424 448 416 C450 419 452 421 454 423 C443 432 430 437 416 437 C401 437 388 432 377 423 L384 416 Z M371 430 C383 441 399 447 416 447 C433 447 449 441 461 430 C461 430 464 434 468 438 C454 450 436 457 416 457 C397 457 378 450 364 438 L371 430 Z M295 516 C327 545 370 562 416 562 C462 562 505 545 538 516 C538 516 545 523 544 523 C510 554 465 572 416 572 C367 572 322 554 288 524 L295 516 Z M416 240 C448 240 476 252 498 271 L491 278 C471 261 445 250 416 250 C388 250 361 261 340 278 L333 270 C355 251 384 240 416 240 L416 240 Z M416 285 C436 285 454 292 468 304 L461 312 C448 301 433 295 416 295 C399 295 383 302 370 312 L363 304 C378 292 396 285 416 285 L416 285 Z M416 305 C430 305 444 310 455 319 L448 326 C439 319 428 314 416 314 C404 314 393 319 383 326 L376 319 C388 310 401 305 416 305 L416 305 Z M341 464 C362 482 388 492 416 492 C445 492 471 481 491 464 L498 472 C476 491 447 502 416 502 C385 502 356 490 334 471 L341 464 Z M320 487 C346 509 380 523 416 523 C453 523 486 510 512 487 L518 494 C491 518 455 533 416 533 C377 533 341 519 313 495 L320 487 Z M610 597 L617 605 C563 653 493 682 416 682 C339 682 269 653 215 605 L222 598 C274 644 342 672 416 672 C491 672 559 644 610 597 L610 597 Z M172 654 C237 713 322 749 416 749 C510 749 596 713 661 654 L668 662 C601 722 512 759 416 759 C320 759 232 723 165 662 L172 654 Z M516 290 C534 312 544 340 544 371 C544 402 534 430 516 453 L508 446 C524 425 534 399 534 371 C534 343 524 317 509 297 L516 290 Z " />
<glyph glyph-name="registered" unicode="&#xae;" horiz-adv-x="667" d="M333 -10 C565 -10 628 148 628 370 C628 593 565 752 333 752 C101 752 40 593 40 370 C40 148 101 -10 333 -10 L333 -10 Z M333 30 C134 30 82 171 82 370 C82 571 134 712 333 712 C533 712 585 571 585 370 C585 171 533 30 333 30 L333 30 Z M429 130 L492 130 L402 328 C472 342 496 390 496 472 C496 569 461 615 354 615 L192 615 L192 130 L254 130 L254 324 L341 324 L429 130 Z M254 375 L254 561 L352 561 C413 561 436 536 436 468 C436 400 413 375 352 375 L254 375 Z " />
<glyph glyph-name="&amp;#xaf;" unicode="&#xaf;" horiz-adv-x="471" d="M81 613 L389 613 L389 691 L81 691 L81 613 Z " />
<glyph glyph-name="&amp;#x2c9;" unicode="&#x2c9;" horiz-adv-x="471" d="M81 613 L389 613 L389 691 L81 691 L81 613 Z " />
<glyph glyph-name="degree" unicode="&#xb0;" horiz-adv-x="457" d="M229 277 C379 277 411 381 411 513 C411 644 379 749 229 749 C79 749 47 644 47 513 C47 381 79 277 229 277 L229 277 Z M229 350 C141 350 125 419 125 511 C125 603 141 671 229 671 C319 671 333 603 333 511 C333 419 319 350 229 350 L229 350 Z " />
<glyph glyph-name="plusminus" unicode="&#xb1;" horiz-adv-x="840" d="M375 0 L469 0 L469 473 L580 473 L580 555 L469 555 L469 608 C469 657 480 688 541 688 L580 688 L580 771 L534 771 C417 771 375 711 375 617 L375 555 L199 555 L199 608 C199 657 210 688 271 688 L310 688 L310 771 L263 771 C148 771 105 711 105 617 L105 555 L18 555 L18 473 L105 473 L105 0 L199 0 L199 473 L375 473 L375 0 Z M804 0 L804 82 C741 82 739 96 739 141 L739 769 L645 769 L645 130 C645 32 675 -1 772 -1 C791 -1 800 -1 804 0 L804 0 Z " />
<glyph glyph-name="twosuperior" unicode="&#xb2;" horiz-adv-x="378" d="M51 281 L324 281 L324 344 L149 344 L209 421 C300 534 316 561 316 627 C316 707 279 746 188 746 C126 746 84 734 52 718 L84 655 C109 668 140 677 177 677 C223 677 242 662 242 616 C242 576 232 560 153 462 L51 335 L51 281 Z " />
<glyph glyph-name="threesuperior" unicode="&#xb3;" horiz-adv-x="381" d="M178 276 C276 276 325 311 325 417 C325 482 318 517 269 534 C306 550 315 585 315 634 C315 726 267 746 184 746 C133 746 83 733 51 717 L82 658 C108 670 141 678 173 678 C220 678 241 670 241 618 C241 581 227 559 169 559 L109 559 L109 494 L167 494 C241 494 251 471 251 424 C251 362 232 342 172 342 C133 342 106 350 78 366 L45 308 C80 287 121 276 178 276 L178 276 Z " />
<glyph glyph-name="acute" unicode="&#xb4;" horiz-adv-x="471" d="M169 613 L252 613 L385 775 L281 775 L169 613 Z " />
<glyph glyph-name="&amp;#xb5;" unicode="&#xb5;" horiz-adv-x="511" d="M56 -158 L150 -158 L150 32 C167 6 208 -8 262 -8 C427 -8 458 61 458 206 L458 555 L366 555 L366 211 C366 121 357 76 259 76 C160 76 150 121 150 211 L150 555 L56 555 L56 -158 Z " />
<glyph glyph-name="&amp;#x3bc;" unicode="&#x3bc;" horiz-adv-x="511" d="M56 -158 L150 -158 L150 32 C167 6 208 -8 262 -8 C427 -8 458 61 458 206 L458 555 L366 555 L366 211 C366 121 357 76 259 76 C160 76 150 121 150 211 L150 555 L56 555 L56 -158 Z " />
<glyph glyph-name="paragraph" unicode="&#xb6;" horiz-adv-x="517" d="M194 0 L285 0 L285 286 L363 286 L363 0 L454 0 L454 741 L268 741 C91 741 36 667 36 514 C36 387 74 312 194 292 L194 0 Z M266 368 C168 368 130 406 130 512 C130 618 167 656 266 656 L363 656 L363 368 L266 368 Z " />
<glyph glyph-name="&amp;#xb7;" unicode="&#xb7;" horiz-adv-x="216" d="M51 279 L165 279 L165 407 L51 407 L51 279 Z " />
<glyph glyph-name="&amp;#x2219;" unicode="&#x2219;" horiz-adv-x="216" d="M51 279 L165 279 L165 407 L51 407 L51 279 Z " />
<glyph glyph-name="cedilla" unicode="&#xb8;" horiz-adv-x="471" d="M250 -220 C337 -220 367 -188 367 -125 C367 -54 321 -40 267 -44 L276 7 L220 7 L206 -65 L228 -81 C282 -78 302 -84 302 -120 C302 -150 290 -165 244 -165 C220 -165 196 -160 171 -151 L150 -199 C179 -212 214 -220 250 -220 L250 -220 Z " />
<glyph glyph-name="onesuperior" unicode="&#xb9;" horiz-adv-x="272" d="M111 281 L189 281 L189 741 L43 741 L43 672 L111 672 L111 281 Z " />
<glyph glyph-name="ordmasculine" unicode="&#xba;" horiz-adv-x="452" d="M226 284 C379 284 407 381 407 516 C407 648 379 749 226 749 C74 749 46 649 46 516 C46 383 75 284 226 284 L226 284 Z M226 353 C134 353 124 422 124 515 C124 606 134 676 226 676 C318 676 327 606 327 515 C327 422 318 353 226 353 L226 353 Z M60 143 L392 143 L392 213 L60 213 L60 143 Z " />
<glyph glyph-name="guillemotright" unicode="&#xbb;" horiz-adv-x="575" d="M87 0 L170 0 L291 278 L170 555 L87 555 L202 278 L87 0 Z M303 0 L387 0 L506 278 L387 555 L303 555 L418 278 L303 0 Z " />
<glyph glyph-name="onequarter" unicode="&#xbc;" horiz-adv-x="759" d="M158 0 L243 0 L568 741 L482 741 L158 0 Z M406 93 L592 93 L592 0 L663 0 L663 93 L724 93 L724 155 L663 155 L663 278 L607 278 L593 155 L486 155 L645 460 L566 460 L406 152 L406 93 Z M119 281 L198 281 L198 741 L51 741 L51 672 L119 672 L119 281 Z " />
<glyph glyph-name="onehalf" unicode="&#xbd;" horiz-adv-x="808" d="M158 0 L243 0 L568 741 L482 741 L158 0 Z M119 281 L198 281 L198 741 L51 741 L51 672 L119 672 L119 281 Z M479 0 L751 0 L751 63 L577 63 L638 139 C728 251 746 280 746 346 C746 425 708 466 617 466 C555 466 513 453 481 436 L513 374 C538 386 569 395 606 395 C652 395 671 381 671 335 C671 294 662 279 582 179 L479 54 L479 0 Z " />
<glyph glyph-name="threequarters" unicode="&#xbe;" horiz-adv-x="833" d="M178 276 C276 276 325 311 325 417 C325 482 318 517 269 534 C306 550 315 585 315 634 C315 726 267 746 184 746 C133 746 83 733 51 717 L82 658 C108 670 141 678 173 678 C220 678 241 670 241 618 C241 581 227 559 169 559 L109 559 L109 494 L167 494 C241 494 251 471 251 424 C251 362 232 342 172 342 C133 342 106 350 78 366 L45 308 C80 287 121 276 178 276 L178 276 Z M230 0 L315 0 L641 741 L556 741 L230 0 Z M480 93 L666 93 L666 0 L737 0 L737 93 L798 93 L798 155 L737 155 L737 278 L681 278 L667 155 L559 155 L720 460 L641 460 L480 152 L480 93 Z " />
<glyph glyph-name="questiondown" unicode="&#xbf;" horiz-adv-x="535" d="M268 -8 C357 -8 426 12 475 37 L433 116 C396 97 342 79 283 79 C191 79 171 120 171 176 C171 229 192 255 245 309 C335 400 343 424 342 537 L250 537 C252 440 248 427 167 346 C113 291 77 251 77 160 C77 63 117 -8 268 -8 L268 -8 Z M240 627 L352 627 L352 741 L240 741 L240 627 Z " />
<glyph glyph-name="Agrave" unicode="&#xc0;" horiz-adv-x="598" d="M20 0 L116 0 L160 154 L434 154 L480 0 L578 0 L350 746 L248 746 L20 0 Z M186 242 L298 610 L409 242 L186 242 Z M281 783 L364 783 L253 945 L146 945 L281 783 Z " />
<glyph glyph-name="Aacute" unicode="&#xc1;" horiz-adv-x="598" d="M20 0 L116 0 L160 154 L434 154 L480 0 L578 0 L350 746 L248 746 L20 0 Z M186 242 L298 610 L409 242 L186 242 Z M231 783 L314 783 L447 945 L343 945 L231 783 Z " />
<glyph glyph-name="Acircumflex" unicode="&#xc2;" horiz-adv-x="598" d="M20 0 L116 0 L160 154 L434 154 L480 0 L578 0 L350 746 L248 746 L20 0 Z M186 242 L298 610 L409 242 L186 242 Z M142 783 L218 783 L297 879 L376 783 L454 783 L343 945 L254 945 L142 783 Z " />
<glyph glyph-name="Atilde" unicode="&#xc3;" horiz-adv-x="598" d="M20 0 L116 0 L160 154 L434 154 L480 0 L578 0 L350 746 L248 746 L20 0 Z M186 242 L298 610 L409 242 L186 242 Z M186 779 C204 807 220 821 242 821 C274 821 309 781 359 781 C408 781 442 811 469 867 L408 902 C389 873 374 856 351 856 C318 856 285 897 235 897 C187 897 152 869 124 814 L186 779 Z " />
<glyph glyph-name="Adieresis" unicode="&#xc4;" horiz-adv-x="598" d="M20 0 L116 0 L160 154 L434 154 L480 0 L578 0 L350 746 L248 746 L20 0 Z M186 242 L298 610 L409 242 L186 242 Z M167 783 L251 783 L251 888 L167 888 L167 783 Z M344 783 L429 783 L429 888 L344 888 L344 783 Z " />
<glyph glyph-name="Aring" unicode="&#xc5;" horiz-adv-x="598" d="M20 0 L116 0 L160 154 L434 154 L480 0 L578 0 L360 712 C390 732 403 769 403 813 C403 880 373 931 298 931 C220 931 193 880 193 813 C193 768 205 731 237 711 L20 0 Z M186 242 L298 610 L409 242 L186 242 Z M298 746 L292 746 C255 748 244 776 244 813 C244 852 257 881 298 881 C338 881 351 852 351 813 C351 774 338 746 298 746 L298 746 Z " />
<glyph glyph-name="AE" unicode="&#xc6;" horiz-adv-x="874" d="M15 0 L110 0 L186 158 L420 158 L420 0 L830 0 L830 87 L515 87 L515 339 L811 339 L811 426 L515 426 L515 652 L827 652 L827 741 L372 741 L15 0 Z M225 241 L420 645 L420 241 L225 241 Z " />
<glyph glyph-name="Ccedilla" unicode="&#xc7;" horiz-adv-x="521" d="M273 -220 C360 -220 390 -188 390 -125 C390 -54 344 -40 290 -44 L296 -8 L303 -8 C396 -8 447 11 499 44 L451 119 C410 93 373 79 308 79 C166 79 131 172 131 368 C131 565 168 655 307 655 C369 655 411 639 439 622 L490 702 C449 730 389 749 310 749 C79 749 33 597 33 370 C33 162 74 23 241 -3 L229 -65 L251 -81 C305 -78 325 -84 325 -120 C325 -150 313 -165 267 -165 C243 -165 219 -160 194 -151 L173 -199 C202 -212 237 -220 273 -220 L273 -220 Z " />
<glyph glyph-name="Egrave" unicode="&#xc8;" horiz-adv-x="519" d="M65 0 L475 0 L475 87 L160 87 L160 339 L456 339 L456 427 L160 427 L160 652 L472 652 L472 741 L65 741 L65 0 Z M242 783 L325 783 L214 945 L107 945 L242 783 Z " />
<glyph glyph-name="Eacute" unicode="&#xc9;" horiz-adv-x="519" d="M192 783 L275 783 L408 945 L304 945 L192 783 Z M65 0 L475 0 L475 87 L160 87 L160 339 L456 339 L456 427 L160 427 L160 652 L472 652 L472 741 L65 741 L65 0 Z " />
<glyph glyph-name="Ecircumflex" unicode="&#xca;" horiz-adv-x="519" d="M103 783 L179 783 L258 879 L337 783 L415 783 L304 945 L215 945 L103 783 Z M65 0 L475 0 L475 87 L160 87 L160 339 L456 339 L456 427 L160 427 L160 652 L472 652 L472 741 L65 741 L65 0 Z " />
<glyph glyph-name="Edieresis" unicode="&#xcb;" horiz-adv-x="519" d="M128 783 L212 783 L212 888 L128 888 L128 783 Z M305 783 L390 783 L390 888 L305 888 L305 783 Z M65 0 L475 0 L475 87 L160 87 L160 339 L456 339 L456 427 L160 427 L160 652 L472 652 L472 741 L65 741 L65 0 Z " />
<glyph glyph-name="Igrave" unicode="&#xcc;" horiz-adv-x="240" d="M83 783 L164 783 L74 946 L-30 946 L83 783 Z M72 0 L169 0 L169 741 L72 741 L72 0 Z " />
<glyph glyph-name="Iacute" unicode="&#xcd;" horiz-adv-x="240" d="M75 783 L156 783 L269 946 L165 946 L75 783 Z M72 0 L169 0 L169 741 L72 741 L72 0 Z " />
<glyph glyph-name="Icircumflex" unicode="&#xce;" horiz-adv-x="240" d="M-33 783 L43 783 L119 881 L196 783 L273 783 L164 946 L75 946 L-33 783 Z M72 0 L169 0 L169 741 L72 741 L72 0 Z " />
<glyph glyph-name="Idieresis" unicode="&#xcf;" horiz-adv-x="240" d="M72 0 L169 0 L169 741 L72 741 L72 0 Z M-9 783 L75 783 L75 888 L-9 888 L-9 783 Z M168 783 L253 783 L253 888 L168 888 L168 783 Z " />
<glyph glyph-name="Eth" unicode="&#xd0;" horiz-adv-x="600" d="M1 341 L65 341 L65 0 L271 0 C510 0 567 116 567 371 C567 621 508 741 275 741 L65 741 L65 421 L1 421 L1 341 Z M162 85 L162 341 L285 341 L285 421 L162 421 L162 652 L280 652 C438 652 469 562 469 370 C469 176 437 85 278 85 L162 85 Z " />
<glyph glyph-name="Ntilde" unicode="&#xd1;" horiz-adv-x="627" d="M65 0 L157 0 L157 573 L473 0 L563 0 L563 741 L470 741 L470 193 L170 741 L65 741 L65 0 Z M201 779 C219 807 235 821 257 821 C289 821 324 781 374 781 C423 781 457 811 484 867 L423 902 C404 873 389 856 366 856 C333 856 300 897 250 897 C202 897 167 869 139 814 L201 779 Z " />
<glyph glyph-name="Ograve" unicode="&#xd2;" horiz-adv-x="628" d="M315 -8 C564 -8 595 165 595 370 C595 575 564 749 315 749 C65 749 33 575 33 370 C33 165 65 -8 315 -8 L315 -8 Z M315 79 C148 79 131 201 131 367 C131 533 148 656 315 656 C480 656 498 533 498 367 C498 201 481 79 315 79 L315 79 Z M297 783 L380 783 L269 945 L162 945 L297 783 Z " />
<glyph glyph-name="Oacute" unicode="&#xd3;" horiz-adv-x="628" d="M247 783 L330 783 L463 945 L359 945 L247 783 Z M315 -8 C564 -8 595 165 595 370 C595 575 564 749 315 749 C65 749 33 575 33 370 C33 165 65 -8 315 -8 L315 -8 Z M315 79 C148 79 131 201 131 367 C131 533 148 656 315 656 C480 656 498 533 498 367 C498 201 481 79 315 79 L315 79 Z " />
<glyph glyph-name="Ocircumflex" unicode="&#xd4;" horiz-adv-x="628" d="M158 783 L234 783 L313 879 L392 783 L470 783 L359 945 L270 945 L158 783 Z M315 -8 C564 -8 595 165 595 370 C595 575 564 749 315 749 C65 749 33 575 33 370 C33 165 65 -8 315 -8 L315 -8 Z M315 79 C148 79 131 201 131 367 C131 533 148 656 315 656 C480 656 498 533 498 367 C498 201 481 79 315 79 L315 79 Z " />
<glyph glyph-name="Otilde" unicode="&#xd5;" horiz-adv-x="628" d="M315 -8 C564 -8 595 165 595 370 C595 575 564 749 315 749 C65 749 33 575 33 370 C33 165 65 -8 315 -8 L315 -8 Z M315 79 C148 79 131 201 131 367 C131 533 148 656 315 656 C480 656 498 533 498 367 C498 201 481 79 315 79 L315 79 Z M202 779 C220 807 236 821 258 821 C290 821 325 781 375 781 C424 781 458 811 485 867 L424 902 C405 873 390 856 367 856 C334 856 301 897 251 897 C203 897 168 869 140 814 L202 779 Z " />
<glyph glyph-name="Odieresis" unicode="&#xd6;" horiz-adv-x="628" d="M183 783 L267 783 L267 888 L183 888 L183 783 Z M360 783 L445 783 L445 888 L360 888 L360 783 Z M315 -8 C564 -8 595 165 595 370 C595 575 564 749 315 749 C65 749 33 575 33 370 C33 165 65 -8 315 -8 L315 -8 Z M315 79 C148 79 131 201 131 367 C131 533 148 656 315 656 C480 656 498 533 498 367 C498 201 481 79 315 79 L315 79 Z " />
<glyph glyph-name="multiply" unicode="&#xd7;" horiz-adv-x="566" d="M158 168 L283 293 L409 169 L465 228 L340 352 L466 476 L409 535 L283 410 L158 535 L101 476 L225 352 L101 227 L158 168 Z " />
<glyph glyph-name="Oslash" unicode="&#xd8;" horiz-adv-x="628" d="M96 -41 L186 -41 L207 6 C237 -3 273 -8 315 -8 C564 -8 595 165 595 370 C595 508 581 633 495 699 L534 783 L449 783 L424 734 C393 744 357 749 315 749 C65 749 33 575 33 370 C33 232 47 108 133 42 L96 -41 Z M315 74 C284 74 258 78 237 85 L452 605 C493 553 500 467 500 367 C500 198 483 74 315 74 L315 74 Z M128 367 C128 534 145 660 315 660 C343 660 367 656 387 649 L175 129 C134 181 128 266 128 367 L128 367 Z " />
<glyph glyph-name="Ugrave" unicode="&#xd9;" horiz-adv-x="625" d="M313 -10 C510 -10 565 83 565 247 L565 741 L472 741 L472 254 C472 137 439 79 314 79 C188 79 157 139 157 254 L157 741 L60 741 L60 247 C60 83 119 -10 313 -10 L313 -10 Z M294 783 L377 783 L266 945 L159 945 L294 783 Z " />
<glyph glyph-name="Uacute" unicode="&#xda;" horiz-adv-x="625" d="M244 783 L327 783 L460 945 L356 945 L244 783 Z M313 -10 C510 -10 565 83 565 247 L565 741 L472 741 L472 254 C472 137 439 79 314 79 C188 79 157 139 157 254 L157 741 L60 741 L60 247 C60 83 119 -10 313 -10 L313 -10 Z " />
<glyph glyph-name="Ucircumflex" unicode="&#xdb;" horiz-adv-x="625" d="M155 783 L231 783 L310 879 L389 783 L467 783 L356 945 L267 945 L155 783 Z M313 -10 C510 -10 565 83 565 247 L565 741 L472 741 L472 254 C472 137 439 79 314 79 C188 79 157 139 157 254 L157 741 L60 741 L60 247 C60 83 119 -10 313 -10 L313 -10 Z " />
<glyph glyph-name="Udieresis" unicode="&#xdc;" horiz-adv-x="625" d="M180 783 L264 783 L264 888 L180 888 L180 783 Z M357 783 L442 783 L442 888 L357 888 L357 783 Z M313 -10 C510 -10 565 83 565 247 L565 741 L472 741 L472 254 C472 137 439 79 314 79 C188 79 157 139 157 254 L157 741 L60 741 L60 247 C60 83 119 -10 313 -10 L313 -10 Z " />
<glyph glyph-name="Yacute" unicode="&#xdd;" horiz-adv-x="570" d="M237 0 L333 0 L333 267 L563 741 L464 741 L286 372 L110 741 L6 741 L237 267 L237 0 Z M217 783 L300 783 L433 945 L329 945 L217 783 Z " />
<glyph glyph-name="Thorn" unicode="&#xde;" horiz-adv-x="558" d="M65 0 L161 0 L161 162 L315 162 C481 162 537 242 537 392 C537 544 480 618 317 618 L161 618 L161 741 L65 741 L65 0 Z M161 245 L161 533 L313 533 C404 533 442 495 442 388 C442 284 404 245 313 245 L161 245 Z " />
<glyph glyph-name="germandbls" unicode="&#xdf;" horiz-adv-x="534" d="M56 0 L148 0 L148 570 C148 648 182 685 262 685 C340 685 372 651 372 559 C372 467 341 434 267 434 L246 434 L246 354 L267 354 C377 354 408 315 408 221 C408 124 377 85 265 85 L216 85 L216 0 L265 0 C445 0 501 56 501 209 C501 325 478 385 390 404 C445 427 462 479 462 582 C462 718 405 775 262 775 C111 775 56 700 56 578 L56 0 Z " />
<glyph glyph-name="agrave" unicode="&#xe0;" horiz-adv-x="510" d="M198 -6 C271 -6 322 8 355 52 C365 11 390 -1 450 -1 C459 -1 468 -1 476 0 L476 82 C436 82 433 93 433 136 L433 370 C433 505 400 566 252 566 C173 566 110 549 67 527 L106 450 C138 466 185 480 243 480 C323 480 339 443 341 370 L318 370 C128 370 33 328 33 167 C33 59 74 -6 198 -6 L198 -6 Z M217 72 C156 72 122 96 122 176 C122 277 181 293 319 293 L341 293 L341 215 C341 101 284 72 217 72 L217 72 Z M237 613 L320 613 L209 775 L102 775 L237 613 Z " />
<glyph glyph-name="aacute" unicode="&#xe1;" horiz-adv-x="510" d="M198 -6 C271 -6 322 8 355 52 C365 11 390 -1 450 -1 C459 -1 468 -1 476 0 L476 82 C436 82 433 93 433 136 L433 370 C433 505 400 566 252 566 C173 566 110 549 67 527 L106 450 C138 466 185 480 243 480 C323 480 339 443 341 370 L318 370 C128 370 33 328 33 167 C33 59 74 -6 198 -6 L198 -6 Z M217 72 C156 72 122 96 122 176 C122 277 181 293 319 293 L341 293 L341 215 C341 101 284 72 217 72 L217 72 Z M187 613 L270 613 L403 775 L299 775 L187 613 Z " />
<glyph glyph-name="acircumflex" unicode="&#xe2;" horiz-adv-x="510" d="M198 -6 C271 -6 322 8 355 52 C365 11 390 -1 450 -1 C459 -1 468 -1 476 0 L476 82 C436 82 433 93 433 136 L433 370 C433 505 400 566 252 566 C173 566 110 549 67 527 L106 450 C138 466 185 480 243 480 C323 480 339 443 341 370 L318 370 C128 370 33 328 33 167 C33 59 74 -6 198 -6 L198 -6 Z M217 72 C156 72 122 96 122 176 C122 277 181 293 319 293 L341 293 L341 215 C341 101 284 72 217 72 L217 72 Z M98 613 L174 613 L253 709 L332 613 L410 613 L299 775 L210 775 L98 613 Z " />
<glyph glyph-name="atilde" unicode="&#xe3;" horiz-adv-x="510" d="M198 -6 C271 -6 322 8 355 52 C365 11 390 -1 450 -1 C459 -1 468 -1 476 0 L476 82 C436 82 433 93 433 136 L433 370 C433 505 400 566 252 566 C173 566 110 549 67 527 L106 450 C138 466 185 480 243 480 C323 480 339 443 341 370 L318 370 C128 370 33 328 33 167 C33 59 74 -6 198 -6 L198 -6 Z M217 72 C156 72 122 96 122 176 C122 277 181 293 319 293 L341 293 L341 215 C341 101 284 72 217 72 L217 72 Z M142 609 C160 637 176 651 198 651 C230 651 265 611 315 611 C364 611 398 641 425 697 L364 732 C345 703 330 686 307 686 C274 686 241 727 191 727 C143 727 108 699 80 644 L142 609 Z " />
<glyph glyph-name="adieresis" unicode="&#xe4;" horiz-adv-x="510" d="M198 -6 C271 -6 322 8 355 52 C365 11 390 -1 450 -1 C459 -1 468 -1 476 0 L476 82 C436 82 433 93 433 136 L433 370 C433 505 400 566 252 566 C173 566 110 549 67 527 L106 450 C138 466 185 480 243 480 C323 480 339 443 341 370 L318 370 C128 370 33 328 33 167 C33 59 74 -6 198 -6 L198 -6 Z M217 72 C156 72 122 96 122 176 C122 277 181 293 319 293 L341 293 L341 215 C341 101 284 72 217 72 L217 72 Z M123 613 L207 613 L207 718 L123 718 L123 613 Z M300 613 L385 613 L385 718 L300 718 L300 613 Z " />
<glyph glyph-name="aring" unicode="&#xe5;" horiz-adv-x="510" d="M198 -6 C271 -6 322 8 355 52 C365 11 390 -1 450 -1 C459 -1 468 -1 476 0 L476 82 C436 82 433 93 433 136 L433 370 C433 505 400 566 252 566 C173 566 110 549 67 527 L106 450 C138 466 185 480 243 480 C323 480 339 443 341 370 L318 370 C128 370 33 328 33 167 C33 59 74 -6 198 -6 L198 -6 Z M217 72 C156 72 122 96 122 176 C122 277 181 293 319 293 L341 293 L341 215 C341 101 284 72 217 72 L217 72 Z M254 606 C329 606 359 657 359 723 C359 790 329 841 254 841 C176 841 149 790 149 723 C149 657 176 606 254 606 L254 606 Z M254 656 C213 656 200 684 200 723 C200 762 213 791 254 791 C294 791 307 762 307 723 C307 684 294 656 254 656 L254 656 Z " />
<glyph glyph-name="ae" unicode="&#xe6;" horiz-adv-x="784" d="M557 -7 C642 -7 696 11 738 34 L702 106 C669 91 633 74 562 74 C458 74 434 131 430 236 L749 236 C751 419 757 565 558 565 C483 565 433 542 401 504 C379 546 335 566 252 566 C173 566 110 549 67 527 L106 450 C138 466 185 480 243 480 C322 480 339 444 341 371 L318 371 C128 371 33 328 33 167 C33 59 76 -6 190 -6 C289 -6 347 19 378 82 C407 26 460 -7 557 -7 L557 -7 Z M217 72 C156 72 122 96 122 176 C122 277 181 293 319 293 L341 293 L341 215 C341 101 284 72 217 72 L217 72 Z M556 482 C661 482 663 419 664 319 L430 319 C434 421 457 482 556 482 L556 482 Z " />
<glyph glyph-name="ccedilla" unicode="&#xe7;" horiz-adv-x="420" d="M225 -220 C312 -220 342 -188 342 -125 C342 -54 296 -40 242 -44 L248 -8 L250 -8 C311 -8 351 4 399 28 L363 100 C335 87 303 74 260 74 C153 74 130 145 130 277 C130 408 155 477 259 477 C294 477 323 470 351 456 L391 537 C355 555 312 565 255 565 C72 565 35 454 35 279 C35 124 64 19 193 -3 L181 -65 L203 -81 C257 -78 277 -84 277 -120 C277 -150 265 -165 219 -165 C195 -165 171 -160 146 -151 L125 -199 C154 -212 189 -220 225 -220 L225 -220 Z " />
<glyph glyph-name="egrave" unicode="&#xe8;" horiz-adv-x="478" d="M251 -7 C337 -7 390 11 433 34 L397 106 C364 91 328 74 256 74 C152 74 128 131 124 236 L444 236 C445 443 444 565 253 565 C76 565 35 451 35 279 C35 104 68 -7 251 -7 L251 -7 Z M251 482 C354 482 355 419 357 319 L125 319 C129 421 152 482 251 482 L251 482 Z M222 613 L305 613 L194 775 L87 775 L222 613 Z " />
<glyph glyph-name="eacute" unicode="&#xe9;" horiz-adv-x="478" d="M172 613 L255 613 L388 775 L284 775 L172 613 Z M251 -7 C337 -7 390 11 433 34 L397 106 C364 91 328 74 256 74 C152 74 128 131 124 236 L444 236 C445 443 444 565 253 565 C76 565 35 451 35 279 C35 104 68 -7 251 -7 L251 -7 Z M251 482 C354 482 355 419 357 319 L125 319 C129 421 152 482 251 482 L251 482 Z " />
<glyph glyph-name="ecircumflex" unicode="&#xea;" horiz-adv-x="478" d="M83 613 L159 613 L238 709 L317 613 L395 613 L284 775 L195 775 L83 613 Z M251 -7 C337 -7 390 11 433 34 L397 106 C364 91 328 74 256 74 C152 74 128 131 124 236 L444 236 C445 443 444 565 253 565 C76 565 35 451 35 279 C35 104 68 -7 251 -7 L251 -7 Z M251 482 C354 482 355 419 357 319 L125 319 C129 421 152 482 251 482 L251 482 Z " />
<glyph glyph-name="edieresis" unicode="&#xeb;" horiz-adv-x="478" d="M108 613 L192 613 L192 718 L108 718 L108 613 Z M285 613 L370 613 L370 718 L285 718 L285 613 Z M251 -7 C337 -7 390 11 433 34 L397 106 C364 91 328 74 256 74 C152 74 128 131 124 236 L444 236 C445 443 444 565 253 565 C76 565 35 451 35 279 C35 104 68 -7 251 -7 L251 -7 Z M251 482 C354 482 355 419 357 319 L125 319 C129 421 152 482 251 482 L251 482 Z " />
<glyph glyph-name="igrave" unicode="&#xec;" horiz-adv-x="213" d="M71 613 L152 613 L80 775 L-23 775 L71 613 Z M59 0 L153 0 L153 555 L59 555 L59 0 Z " />
<glyph glyph-name="iacute" unicode="&#xed;" horiz-adv-x="213" d="M61 613 L142 613 L236 775 L131 775 L61 613 Z M59 0 L153 0 L153 555 L59 555 L59 0 Z " />
<glyph glyph-name="icircumflex" unicode="&#xee;" horiz-adv-x="213" d="M-33 613 L43 613 L105 709 L168 613 L247 613 L151 775 L62 775 L-33 613 Z M59 0 L153 0 L153 555 L59 555 L59 0 Z " />
<glyph glyph-name="idieresis" unicode="&#xef;" horiz-adv-x="213" d="M-9 613 L68 613 L68 718 L-9 718 L-9 613 Z M145 613 L221 613 L221 718 L145 718 L145 613 Z M59 0 L153 0 L153 555 L59 555 L59 0 Z " />
<glyph glyph-name="eth" unicode="&#xf0;" horiz-adv-x="515" d="M225 583 L332 611 C351 572 365 531 374 495 C348 524 301 542 235 542 C69 542 35 418 35 270 C35 108 78 -8 257 -8 C454 -8 479 122 479 293 C479 433 459 547 420 634 L482 650 L482 720 L387 695 C365 728 339 756 310 779 L240 732 C261 714 279 694 295 671 L225 653 L225 583 Z M257 74 C142 74 129 163 129 268 C129 373 142 461 257 461 C373 461 385 373 385 268 C385 163 373 74 257 74 L257 74 Z " />
<glyph glyph-name="ntilde" unicode="&#xf1;" horiz-adv-x="519" d="M56 0 L150 0 L150 292 C150 415 166 476 274 476 C364 476 373 429 373 340 L373 0 L467 0 L467 361 C467 482 448 565 306 565 C205 565 162 539 139 501 L131 556 L56 550 L56 0 Z M146 609 C164 637 180 651 202 651 C234 651 269 611 319 611 C368 611 402 641 429 697 L368 732 C349 703 334 686 311 686 C278 686 245 727 195 727 C147 727 112 699 84 644 L146 609 Z " />
<glyph glyph-name="ograve" unicode="&#xf2;" horiz-adv-x="514" d="M257 -8 C446 -8 479 112 479 279 C479 441 446 565 257 565 C69 565 35 443 35 279 C35 113 71 -8 257 -8 L257 -8 Z M257 74 C142 74 129 161 129 276 C129 391 142 477 257 477 C373 477 385 391 385 276 C385 161 373 74 257 74 L257 74 Z M238 613 L321 613 L210 775 L103 775 L238 613 Z " />
<glyph glyph-name="oacute" unicode="&#xf3;" horiz-adv-x="514" d="M188 613 L271 613 L404 775 L300 775 L188 613 Z M257 -8 C446 -8 479 112 479 279 C479 441 446 565 257 565 C69 565 35 443 35 279 C35 113 71 -8 257 -8 L257 -8 Z M257 74 C142 74 129 161 129 276 C129 391 142 477 257 477 C373 477 385 391 385 276 C385 161 373 74 257 74 L257 74 Z " />
<glyph glyph-name="ocircumflex" unicode="&#xf4;" horiz-adv-x="514" d="M99 613 L175 613 L254 709 L333 613 L411 613 L300 775 L211 775 L99 613 Z M257 -8 C446 -8 479 112 479 279 C479 441 446 565 257 565 C69 565 35 443 35 279 C35 113 71 -8 257 -8 L257 -8 Z M257 74 C142 74 129 161 129 276 C129 391 142 477 257 477 C373 477 385 391 385 276 C385 161 373 74 257 74 L257 74 Z " />
<glyph glyph-name="otilde" unicode="&#xf5;" horiz-adv-x="514" d="M257 -8 C446 -8 479 112 479 279 C479 441 446 565 257 565 C69 565 35 443 35 279 C35 113 71 -8 257 -8 L257 -8 Z M257 74 C142 74 129 161 129 276 C129 391 142 477 257 477 C373 477 385 391 385 276 C385 161 373 74 257 74 L257 74 Z M143 609 C161 637 177 651 199 651 C231 651 266 611 316 611 C365 611 399 641 426 697 L365 732 C346 703 331 686 308 686 C275 686 242 727 192 727 C144 727 109 699 81 644 L143 609 Z " />
<glyph glyph-name="odieresis" unicode="&#xf6;" horiz-adv-x="514" d="M124 613 L208 613 L208 718 L124 718 L124 613 Z M301 613 L386 613 L386 718 L301 718 L301 613 Z M257 -8 C446 -8 479 112 479 279 C479 441 446 565 257 565 C69 565 35 443 35 279 C35 113 71 -8 257 -8 L257 -8 Z M257 74 C142 74 129 161 129 276 C129 391 142 477 257 477 C373 477 385 391 385 276 C385 161 373 74 257 74 L257 74 Z " />
<glyph glyph-name="divide" unicode="&#xf7;" horiz-adv-x="566" d="M233 125 L333 125 L333 223 L233 223 L233 125 Z M81 309 L485 309 L485 396 L81 396 L81 309 Z M233 481 L333 481 L333 579 L233 579 L233 481 Z " />
<glyph glyph-name="oslash" unicode="&#xf8;" horiz-adv-x="514" d="M62 -43 L145 -43 L168 4 C193 -4 222 -8 257 -8 C446 -8 479 112 479 279 C479 378 466 463 413 514 L455 598 L371 598 L348 552 C322 560 292 565 257 565 C69 565 35 443 35 279 C35 175 49 89 104 39 L62 -43 Z M126 276 C126 393 140 480 257 480 C279 480 297 477 313 471 L151 124 C130 161 126 214 126 276 L126 276 Z M257 72 C235 72 217 75 202 80 L364 425 C384 389 388 336 388 276 C388 160 374 72 257 72 L257 72 Z " />
<glyph glyph-name="ugrave" unicode="&#xf9;" horiz-adv-x="508" d="M254 -8 C423 -8 455 61 455 206 L455 555 L363 555 L363 211 C363 121 353 76 256 76 C156 76 147 121 147 211 L147 555 L53 555 L53 206 C53 61 89 -8 254 -8 L254 -8 Z M236 613 L319 613 L208 775 L101 775 L236 613 Z " />
<glyph glyph-name="uacute" unicode="&#xfa;" horiz-adv-x="508" d="M186 613 L269 613 L402 775 L298 775 L186 613 Z M254 -8 C423 -8 455 61 455 206 L455 555 L363 555 L363 211 C363 121 353 76 256 76 C156 76 147 121 147 211 L147 555 L53 555 L53 206 C53 61 89 -8 254 -8 L254 -8 Z " />
<glyph glyph-name="ucircumflex" unicode="&#xfb;" horiz-adv-x="508" d="M97 613 L173 613 L252 709 L331 613 L409 613 L298 775 L209 775 L97 613 Z M254 -8 C423 -8 455 61 455 206 L455 555 L363 555 L363 211 C363 121 353 76 256 76 C156 76 147 121 147 211 L147 555 L53 555 L53 206 C53 61 89 -8 254 -8 L254 -8 Z " />
<glyph glyph-name="udieresis" unicode="&#xfc;" horiz-adv-x="508" d="M122 613 L206 613 L206 718 L122 718 L122 613 Z M299 613 L384 613 L384 718 L299 718 L299 613 Z M254 -8 C423 -8 455 61 455 206 L455 555 L363 555 L363 211 C363 121 353 76 256 76 C156 76 147 121 147 211 L147 555 L53 555 L53 206 C53 61 89 -8 254 -8 L254 -8 Z " />
<glyph glyph-name="yacute" unicode="&#xfd;" horiz-adv-x="448" d="M65 -158 L114 -158 C189 -158 227 -141 250 -65 L439 555 L347 555 L225 133 L103 555 L8 555 L177 -2 L165 -45 C157 -71 146 -81 116 -81 L65 -81 L65 -158 Z M158 613 L241 613 L374 775 L270 775 L158 613 Z " />
<glyph glyph-name="thorn" unicode="&#xfe;" horiz-adv-x="528" d="M56 -158 L150 -158 L150 50 C175 14 214 -7 306 -7 C471 -7 493 126 493 279 C493 430 474 565 309 565 C211 565 171 540 149 502 L149 769 L56 769 L56 -158 Z M281 75 C160 75 150 158 150 275 C150 392 161 477 281 477 C385 477 399 393 399 275 C399 156 384 75 281 75 L281 75 Z " />
<glyph glyph-name="ydieresis" unicode="&#xff;" horiz-adv-x="448" d="M65 -158 L114 -158 C189 -158 227 -141 250 -65 L439 555 L347 555 L225 133 L103 555 L8 555 L177 -2 L165 -45 C157 -71 146 -81 116 -81 L65 -81 L65 -158 Z M94 613 L178 613 L178 718 L94 718 L94 613 Z M271 613 L356 613 L356 718 L271 718 L271 613 Z " />
<glyph glyph-name="dotlessi" unicode="&#x131;" horiz-adv-x="213" d="M59 0 L153 0 L153 555 L59 555 L59 0 Z " />
<glyph glyph-name="Lslash" unicode="&#x141;" horiz-adv-x="482" d="M1 302 L65 337 L65 0 L465 0 L465 87 L162 87 L162 390 L284 457 L284 537 L162 470 L162 741 L65 741 L65 417 L1 382 L1 302 Z " />
<glyph glyph-name="lslash" unicode="&#x142;" horiz-adv-x="314" d="M20 390 L99 435 L99 130 C99 32 129 -1 226 -1 C245 -1 254 -1 259 0 L259 82 C196 82 193 96 193 141 L193 489 L281 540 L281 623 L193 572 L193 769 L99 769 L99 517 L20 472 L20 390 Z " />
<glyph glyph-name="OE" unicode="&#x152;" horiz-adv-x="952" d="M508 0 L907 0 L907 87 L593 87 L593 339 L889 339 L889 426 L593 426 L593 652 L906 652 L906 741 L508 741 L508 680 C468 722 407 749 315 749 C65 749 33 575 33 370 C33 165 65 -8 315 -8 C407 -8 468 18 508 60 L508 0 Z M315 79 C148 79 131 201 131 367 C131 533 148 656 315 656 C480 656 498 533 498 367 C498 201 481 79 315 79 L315 79 Z " />
<glyph glyph-name="oe" unicode="&#x153;" horiz-adv-x="831" d="M257 -8 C347 -8 401 21 432 69 C463 21 515 -7 604 -7 C689 -7 743 11 786 34 L750 106 C716 91 680 74 608 74 C504 74 481 131 477 236 L796 236 C797 416 804 565 605 565 C518 565 465 535 433 485 C402 534 348 565 257 565 C69 565 35 443 35 279 C35 113 71 -8 257 -8 L257 -8 Z M257 74 C142 74 129 161 129 276 C129 391 142 477 257 477 C373 477 385 391 385 276 C385 161 373 74 257 74 L257 74 Z M604 482 C707 482 709 419 711 319 L478 319 C482 421 505 482 604 482 L604 482 Z " />
<glyph glyph-name="Scaron" unicode="&#x160;" horiz-adv-x="539" d="M224 783 L313 783 L424 945 L347 945 L269 848 L191 945 L112 945 L224 783 Z M270 -8 C426 -8 504 67 504 189 C504 323 440 360 289 424 C183 471 152 490 152 559 C152 619 191 658 281 658 C348 658 397 644 435 626 L476 709 C424 733 365 749 279 749 C133 749 57 676 57 556 C57 440 123 394 246 343 C365 294 409 272 409 188 C409 117 364 76 268 76 C178 76 114 105 77 127 L29 52 C80 20 158 -8 270 -8 L270 -8 Z " />
<glyph glyph-name="scaron" unicode="&#x161;" horiz-adv-x="405" d="M160 613 L249 613 L360 775 L283 775 L205 678 L127 775 L48 775 L160 613 Z M200 -7 C313 -7 381 41 381 145 C381 246 328 279 231 320 C153 354 123 372 123 416 C123 458 145 483 207 483 C257 483 294 472 324 459 L361 537 C320 555 280 565 210 565 C99 565 33 518 33 414 C33 325 86 290 178 250 C260 214 293 195 293 144 C293 93 259 70 200 70 C141 70 89 85 53 104 L16 30 C64 6 127 -7 200 -7 L200 -7 Z " />
<glyph glyph-name="Ydieresis" unicode="&#x178;" horiz-adv-x="570" d="M237 0 L333 0 L333 267 L563 741 L464 741 L286 372 L110 741 L6 741 L237 267 L237 0 Z M153 783 L237 783 L237 888 L153 888 L153 783 Z M330 783 L415 783 L415 888 L330 888 L330 783 Z " />
<glyph glyph-name="Zcaron" unicode="&#x17d;" horiz-adv-x="532" d="M221 783 L310 783 L421 945 L344 945 L266 848 L188 945 L109 945 L221 783 Z M31 0 L498 0 L498 87 L147 87 L489 661 L489 741 L45 741 L45 652 L374 652 L31 75 L31 0 Z " />
<glyph glyph-name="zcaron" unicode="&#x17e;" horiz-adv-x="410" d="M162 613 L251 613 L362 775 L285 775 L207 678 L129 775 L50 775 L162 613 Z M20 0 L390 0 L390 77 L135 77 L381 490 L381 555 L35 555 L35 473 L266 473 L20 65 L20 0 Z " />
<glyph glyph-name="florin" unicode="&#x192;" horiz-adv-x="447" d="M65 370 L148 370 L69 -158 L162 -158 L243 370 L389 370 L389 453 L256 453 L275 578 C282 625 289 658 347 658 L389 658 L389 740 C379 740 355 741 339 741 C219 741 196 681 181 588 L161 453 L65 453 L65 370 Z " />
<glyph glyph-name="circumflex" unicode="&#x2c6;" horiz-adv-x="471" d="M80 613 L156 613 L235 709 L314 613 L392 613 L281 775 L192 775 L80 613 Z " />
<glyph glyph-name="caron" unicode="&#x2c7;" horiz-adv-x="471" d="M192 613 L281 613 L392 775 L315 775 L237 678 L159 775 L80 775 L192 613 Z " />
<glyph glyph-name="breve" unicode="&#x2d8;" horiz-adv-x="471" d="M236 608 C350 608 381 663 394 751 L324 760 C316 710 297 680 236 680 C173 680 155 710 146 760 L77 750 C89 663 121 608 236 608 L236 608 Z " />
<glyph glyph-name="dotaccent" unicode="&#x2d9;" horiz-adv-x="471" d="M189 613 L283 613 L283 725 L189 725 L189 613 Z " />
<glyph glyph-name="ring" unicode="&#x2da;" horiz-adv-x="471" d="M236 606 C311 606 341 657 341 723 C341 790 311 841 236 841 C158 841 131 790 131 723 C131 657 158 606 236 606 L236 606 Z M236 656 C195 656 182 684 182 723 C182 762 195 791 236 791 C276 791 289 762 289 723 C289 684 276 656 236 656 L236 656 Z " />
<glyph glyph-name="ogonek" unicode="&#x2db;" horiz-adv-x="472" d="M250 -216 L292 -216 L292 -154 L260 -154 C219 -154 206 -140 206 -111 C206 -70 243 -26 297 16 L224 16 C190 -5 130 -54 130 -125 C130 -193 172 -216 250 -216 L250 -216 Z " />
<glyph glyph-name="tilde" unicode="&#x2dc;" horiz-adv-x="471" d="M124 609 C142 637 158 651 180 651 C212 651 247 611 297 611 C346 611 380 641 407 697 L346 732 C327 703 312 686 289 686 C256 686 223 727 173 727 C125 727 90 699 62 644 L124 609 Z " />
<glyph glyph-name="hungarumlaut" unicode="&#x2dd;" horiz-adv-x="471" d="M91 613 L166 613 L299 775 L199 775 L91 613 Z M275 613 L350 613 L482 775 L384 775 L275 613 Z " />
<glyph glyph-name="&amp;#x394;" unicode="&#x394;" horiz-adv-x="529" d="M18 473 L105 473 L105 0 L199 0 L199 473 L310 473 L310 555 L199 555 L199 608 C199 657 210 688 271 688 L310 688 L310 771 L263 771 C148 771 105 711 105 617 L105 555 L18 555 L18 473 Z M318 -158 L332 -158 C442 -158 469 -120 469 -20 L469 555 L375 555 L375 -17 C375 -64 369 -81 326 -81 L318 -81 L318 -158 Z M375 623 L469 623 L469 735 L375 735 L375 623 Z " />
<glyph glyph-name="&amp;#x2206;" unicode="&#x2206;" horiz-adv-x="529" d="M18 473 L105 473 L105 0 L199 0 L199 473 L310 473 L310 555 L199 555 L199 608 C199 657 210 688 271 688 L310 688 L310 771 L263 771 C148 771 105 711 105 617 L105 555 L18 555 L18 473 Z M318 -158 L332 -158 C442 -158 469 -120 469 -20 L469 555 L375 555 L375 -17 C375 -64 369 -81 326 -81 L318 -81 L318 -158 Z M375 623 L469 623 L469 735 L375 735 L375 623 Z " />
<glyph glyph-name="&amp;#x3a9;" unicode="&#x3a9;" horiz-adv-x="832" d="M126 120 C126 120 129 123 134 127 C79 193 46 278 46 371 C46 464 79 549 133 615 C129 619 126 621 126 621 C70 554 36 466 36 371 C36 275 70 187 126 120 L126 120 Z M228 211 C230 213 233 215 235 218 C201 259 181 313 181 371 C181 429 202 483 235 524 C232 526 230 529 227 531 C192 487 171 432 171 371 C171 310 193 254 228 211 L228 211 Z M264 243 C267 245 269 248 272 250 C245 283 229 325 229 371 C229 417 245 459 272 492 C269 494 267 497 264 499 C236 464 219 419 219 371 C219 322 236 278 264 243 L264 243 Z M316 289 C319 291 321 294 324 296 C308 317 298 343 298 371 C298 399 308 425 323 445 C321 448 318 450 316 452 C298 430 288 402 288 371 C288 340 298 312 316 289 L316 289 Z M349 320 C352 323 354 325 357 327 C348 340 343 355 343 371 C343 387 348 402 357 415 C354 417 352 420 349 422 C339 408 333 390 333 371 C333 352 339 334 349 320 L349 320 Z M378 346 C382 349 384 351 384 351 C381 357 379 364 379 371 C379 378 381 385 384 391 C384 391 382 393 378 396 C374 389 371 380 371 371 C371 362 374 353 378 346 L378 346 Z M416 60 C493 60 563 89 616 136 C614 139 611 141 609 144 C558 98 490 70 416 70 C342 70 274 98 222 144 C222 145 215 137 215 137 C268 89 338 60 416 60 L416 60 Z M416 324 C426 324 435 327 442 333 C439 337 437 339 437 339 C431 334 424 332 416 332 C408 332 401 335 395 339 C395 339 391 334 389 333 C397 327 406 324 416 324 L416 324 Z M482 319 C493 334 499 352 499 371 C499 390 493 408 482 422 C483 422 475 415 475 415 C484 403 489 388 489 371 C489 355 484 339 475 326 C478 324 480 322 482 319 L482 319 Z M292 269 C295 271 298 274 300 276 C280 302 267 335 267 371 C267 407 280 440 300 466 L293 473 C270 445 257 410 257 371 C257 333 270 297 292 269 L292 269 Z M416 -17 C512 -17 600 19 667 80 C667 80 660 88 660 87 C595 29 510 -7 416 -7 C322 -7 236 29 171 88 L164 80 C231 20 320 -17 416 -17 L416 -17 Z M416 121 C478 121 534 144 576 182 C574 185 571 187 569 190 C529 153 475 131 416 131 C357 131 303 153 262 190 L255 182 C298 144 354 121 416 121 L416 121 Z M416 170 C465 170 510 188 544 218 C542 221 539 223 537 226 C505 197 462 180 416 180 C369 180 327 197 294 226 L287 219 C322 189 367 170 416 170 L416 170 Z M416 209 C455 209 491 224 518 247 C516 250 514 253 512 255 C486 233 452 219 416 219 C380 219 346 233 320 255 L313 247 C341 224 377 209 416 209 L416 209 Z M416 265 C441 265 463 274 481 289 C479 292 476 294 474 297 C458 283 438 275 416 275 C394 275 373 283 357 297 L350 289 C368 274 391 265 416 265 L416 265 Z M358 445 C374 459 394 467 416 467 C438 467 458 459 474 445 L482 453 C464 468 441 477 416 477 C391 477 368 468 350 453 C351 452 354 448 358 445 L358 445 Z M570 552 C572 554 575 557 577 560 C534 598 478 621 416 621 C355 621 299 598 256 560 L263 553 C304 589 357 611 416 611 C475 611 529 589 570 552 L570 552 Z M454 346 C458 353 461 362 461 371 C461 380 458 389 454 396 L448 391 C451 385 453 378 453 371 C453 364 451 357 448 351 C448 351 450 349 454 346 L454 346 Z M468 333 C476 344 480 357 480 371 C480 385 476 398 468 409 L460 402 C466 393 470 382 470 371 C470 360 466 349 460 340 C463 338 465 336 468 333 L468 333 Z M498 306 C511 325 519 347 519 371 C519 395 511 418 497 436 L490 429 C502 413 509 393 509 371 C509 349 502 329 490 313 C492 311 495 308 498 306 L498 306 Z M540 269 C562 297 575 332 575 371 C575 410 562 445 539 473 L531 466 C552 440 565 407 565 371 C565 335 552 302 532 276 C535 274 537 271 540 269 L540 269 Z M568 243 C596 278 613 322 613 371 C613 420 596 464 568 499 L560 492 C587 459 603 417 603 371 C603 325 587 283 560 250 C563 248 566 245 568 243 L568 243 Z M604 211 C640 254 661 310 661 371 C661 432 640 488 604 531 L596 524 C631 483 651 429 651 371 C651 313 631 260 596 218 C601 213 604 211 604 211 L604 211 Z M649 171 C694 225 721 295 721 371 C721 447 694 517 649 571 L641 564 C685 512 711 445 711 371 C711 297 685 230 642 177 C644 175 647 173 649 171 L649 171 Z M706 120 C762 188 796 276 796 371 C796 467 762 555 706 622 L698 615 C753 549 786 464 786 371 C786 278 753 193 698 127 C703 123 706 120 706 120 L706 120 Z M183 170 L190 177 C147 229 121 297 121 371 C121 444 147 512 190 564 C187 567 184 569 182 571 C138 517 111 447 111 371 C111 294 138 225 183 170 L183 170 Z M334 306 L342 314 C330 330 323 350 323 371 C323 393 330 413 342 429 C340 431 337 434 334 436 C321 418 313 395 313 371 C313 346 321 324 334 306 L334 306 Z M364 333 L371 340 C366 349 362 360 362 371 C362 382 366 393 371 402 C369 404 366 406 364 409 C356 398 352 385 352 371 C352 357 356 344 364 333 L364 333 Z M395 403 C401 408 408 410 416 410 C424 410 431 407 437 403 C437 403 439 406 442 409 C435 415 426 418 416 418 C406 418 397 415 390 409 L395 403 Z M384 416 C393 423 404 428 416 428 C428 428 439 424 448 416 C450 419 452 421 454 423 C443 432 430 437 416 437 C401 437 388 432 377 423 L384 416 Z M371 430 C383 441 399 447 416 447 C433 447 449 441 461 430 C461 430 464 434 468 438 C454 450 436 457 416 457 C397 457 378 450 364 438 L371 430 Z M295 516 C327 545 370 562 416 562 C462 562 505 545 538 516 C538 516 545 523 544 523 C510 554 465 572 416 572 C367 572 322 554 288 524 L295 516 Z M416 240 C448 240 476 252 498 271 L491 278 C471 261 445 250 416 250 C388 250 361 261 340 278 L333 270 C355 251 384 240 416 240 L416 240 Z M416 285 C436 285 454 292 468 304 L461 312 C448 301 433 295 416 295 C399 295 383 302 370 312 L363 304 C378 292 396 285 416 285 L416 285 Z M416 305 C430 305 444 310 455 319 L448 326 C439 319 428 314 416 314 C404 314 393 319 383 326 L376 319 C388 310 401 305 416 305 L416 305 Z M341 464 C362 482 388 492 416 492 C445 492 471 481 491 464 L498 472 C476 491 447 502 416 502 C385 502 356 490 334 471 L341 464 Z M320 487 C346 509 380 523 416 523 C453 523 486 510 512 487 L518 494 C491 518 455 533 416 533 C377 533 341 519 313 495 L320 487 Z M610 597 L617 605 C563 653 493 682 416 682 C339 682 269 653 215 605 L222 598 C274 644 342 672 416 672 C491 672 559 644 610 597 L610 597 Z M172 654 C237 713 322 749 416 749 C510 749 596 713 661 654 L668 662 C601 722 512 759 416 759 C320 759 232 723 165 662 L172 654 Z M516 290 C534 312 544 340 544 371 C544 402 534 430 516 453 L508 446 C524 425 534 399 534 371 C534 343 524 317 509 297 L516 290 Z " />
<glyph glyph-name="&amp;#x2126;" unicode="&#x2126;" horiz-adv-x="832" d="M126 120 C126 120 129 123 134 127 C79 193 46 278 46 371 C46 464 79 549 133 615 C129 619 126 621 126 621 C70 554 36 466 36 371 C36 275 70 187 126 120 L126 120 Z M228 211 C230 213 233 215 235 218 C201 259 181 313 181 371 C181 429 202 483 235 524 C232 526 230 529 227 531 C192 487 171 432 171 371 C171 310 193 254 228 211 L228 211 Z M264 243 C267 245 269 248 272 250 C245 283 229 325 229 371 C229 417 245 459 272 492 C269 494 267 497 264 499 C236 464 219 419 219 371 C219 322 236 278 264 243 L264 243 Z M316 289 C319 291 321 294 324 296 C308 317 298 343 298 371 C298 399 308 425 323 445 C321 448 318 450 316 452 C298 430 288 402 288 371 C288 340 298 312 316 289 L316 289 Z M349 320 C352 323 354 325 357 327 C348 340 343 355 343 371 C343 387 348 402 357 415 C354 417 352 420 349 422 C339 408 333 390 333 371 C333 352 339 334 349 320 L349 320 Z M378 346 C382 349 384 351 384 351 C381 357 379 364 379 371 C379 378 381 385 384 391 C384 391 382 393 378 396 C374 389 371 380 371 371 C371 362 374 353 378 346 L378 346 Z M416 60 C493 60 563 89 616 136 C614 139 611 141 609 144 C558 98 490 70 416 70 C342 70 274 98 222 144 C222 145 215 137 215 137 C268 89 338 60 416 60 L416 60 Z M416 324 C426 324 435 327 442 333 C439 337 437 339 437 339 C431 334 424 332 416 332 C408 332 401 335 395 339 C395 339 391 334 389 333 C397 327 406 324 416 324 L416 324 Z M482 319 C493 334 499 352 499 371 C499 390 493 408 482 422 C483 422 475 415 475 415 C484 403 489 388 489 371 C489 355 484 339 475 326 C478 324 480 322 482 319 L482 319 Z M292 269 C295 271 298 274 300 276 C280 302 267 335 267 371 C267 407 280 440 300 466 L293 473 C270 445 257 410 257 371 C257 333 270 297 292 269 L292 269 Z M416 -17 C512 -17 600 19 667 80 C667 80 660 88 660 87 C595 29 510 -7 416 -7 C322 -7 236 29 171 88 L164 80 C231 20 320 -17 416 -17 L416 -17 Z M416 121 C478 121 534 144 576 182 C574 185 571 187 569 190 C529 153 475 131 416 131 C357 131 303 153 262 190 L255 182 C298 144 354 121 416 121 L416 121 Z M416 170 C465 170 510 188 544 218 C542 221 539 223 537 226 C505 197 462 180 416 180 C369 180 327 197 294 226 L287 219 C322 189 367 170 416 170 L416 170 Z M416 209 C455 209 491 224 518 247 C516 250 514 253 512 255 C486 233 452 219 416 219 C380 219 346 233 320 255 L313 247 C341 224 377 209 416 209 L416 209 Z M416 265 C441 265 463 274 481 289 C479 292 476 294 474 297 C458 283 438 275 416 275 C394 275 373 283 357 297 L350 289 C368 274 391 265 416 265 L416 265 Z M358 445 C374 459 394 467 416 467 C438 467 458 459 474 445 L482 453 C464 468 441 477 416 477 C391 477 368 468 350 453 C351 452 354 448 358 445 L358 445 Z M570 552 C572 554 575 557 577 560 C534 598 478 621 416 621 C355 621 299 598 256 560 L263 553 C304 589 357 611 416 611 C475 611 529 589 570 552 L570 552 Z M454 346 C458 353 461 362 461 371 C461 380 458 389 454 396 L448 391 C451 385 453 378 453 371 C453 364 451 357 448 351 C448 351 450 349 454 346 L454 346 Z M468 333 C476 344 480 357 480 371 C480 385 476 398 468 409 L460 402 C466 393 470 382 470 371 C470 360 466 349 460 340 C463 338 465 336 468 333 L468 333 Z M498 306 C511 325 519 347 519 371 C519 395 511 418 497 436 L490 429 C502 413 509 393 509 371 C509 349 502 329 490 313 C492 311 495 308 498 306 L498 306 Z M540 269 C562 297 575 332 575 371 C575 410 562 445 539 473 L531 466 C552 440 565 407 565 371 C565 335 552 302 532 276 C535 274 537 271 540 269 L540 269 Z M568 243 C596 278 613 322 613 371 C613 420 596 464 568 499 L560 492 C587 459 603 417 603 371 C603 325 587 283 560 250 C563 248 566 245 568 243 L568 243 Z M604 211 C640 254 661 310 661 371 C661 432 640 488 604 531 L596 524 C631 483 651 429 651 371 C651 313 631 260 596 218 C601 213 604 211 604 211 L604 211 Z M649 171 C694 225 721 295 721 371 C721 447 694 517 649 571 L641 564 C685 512 711 445 711 371 C711 297 685 230 642 177 C644 175 647 173 649 171 L649 171 Z M706 120 C762 188 796 276 796 371 C796 467 762 555 706 622 L698 615 C753 549 786 464 786 371 C786 278 753 193 698 127 C703 123 706 120 706 120 L706 120 Z M183 170 L190 177 C147 229 121 297 121 371 C121 444 147 512 190 564 C187 567 184 569 182 571 C138 517 111 447 111 371 C111 294 138 225 183 170 L183 170 Z M334 306 L342 314 C330 330 323 350 323 371 C323 393 330 413 342 429 C340 431 337 434 334 436 C321 418 313 395 313 371 C313 346 321 324 334 306 L334 306 Z M364 333 L371 340 C366 349 362 360 362 371 C362 382 366 393 371 402 C369 404 366 406 364 409 C356 398 352 385 352 371 C352 357 356 344 364 333 L364 333 Z M395 403 C401 408 408 410 416 410 C424 410 431 407 437 403 C437 403 439 406 442 409 C435 415 426 418 416 418 C406 418 397 415 390 409 L395 403 Z M384 416 C393 423 404 428 416 428 C428 428 439 424 448 416 C450 419 452 421 454 423 C443 432 430 437 416 437 C401 437 388 432 377 423 L384 416 Z M371 430 C383 441 399 447 416 447 C433 447 449 441 461 430 C461 430 464 434 468 438 C454 450 436 457 416 457 C397 457 378 450 364 438 L371 430 Z M295 516 C327 545 370 562 416 562 C462 562 505 545 538 516 C538 516 545 523 544 523 C510 554 465 572 416 572 C367 572 322 554 288 524 L295 516 Z M416 240 C448 240 476 252 498 271 L491 278 C471 261 445 250 416 250 C388 250 361 261 340 278 L333 270 C355 251 384 240 416 240 L416 240 Z M416 285 C436 285 454 292 468 304 L461 312 C448 301 433 295 416 295 C399 295 383 302 370 312 L363 304 C378 292 396 285 416 285 L416 285 Z M416 305 C430 305 444 310 455 319 L448 326 C439 319 428 314 416 314 C404 314 393 319 383 326 L376 319 C388 310 401 305 416 305 L416 305 Z M341 464 C362 482 388 492 416 492 C445 492 471 481 491 464 L498 472 C476 491 447 502 416 502 C385 502 356 490 334 471 L341 464 Z M320 487 C346 509 380 523 416 523 C453 523 486 510 512 487 L518 494 C491 518 455 533 416 533 C377 533 341 519 313 495 L320 487 Z M610 597 L617 605 C563 653 493 682 416 682 C339 682 269 653 215 605 L222 598 C274 644 342 672 416 672 C491 672 559 644 610 597 L610 597 Z M172 654 C237 713 322 749 416 749 C510 749 596 713 661 654 L668 662 C601 722 512 759 416 759 C320 759 232 723 165 662 L172 654 Z M516 290 C534 312 544 340 544 371 C544 402 534 430 516 453 L508 446 C524 425 534 399 534 371 C534 343 524 317 509 297 L516 290 Z " />
<glyph glyph-name="pi" unicode="&#x3c0;" horiz-adv-x="667" d="M333 -10 C565 -10 628 148 628 370 C628 593 565 752 333 752 C101 752 40 593 40 370 C40 148 101 -10 333 -10 L333 -10 Z M333 30 C134 30 82 171 82 370 C82 571 134 712 333 712 C533 712 585 571 585 370 C585 171 533 30 333 30 L333 30 Z M199 119 L261 119 L261 314 L365 314 C476 314 512 364 512 465 C512 568 476 615 365 615 L199 615 L199 119 Z M261 366 L261 559 L363 559 C426 559 450 534 450 462 C450 392 426 366 363 366 L261 366 Z " />
<glyph glyph-name="endash" unicode="&#x2013;" horiz-adv-x="573" d="M37 272 L537 272 L537 358 L37 358 L37 272 Z " />
<glyph glyph-name="emdash" unicode="&#x2014;" horiz-adv-x="748" d="M37 272 L711 272 L711 358 L37 358 L37 272 Z " />
<glyph glyph-name="quoteleft" unicode="&#x2018;" horiz-adv-x="216" d="M51 488 L165 488 L165 619 L113 619 C113 656 122 669 166 694 L140 743 C67 707 51 679 51 605 L51 488 Z " />
<glyph glyph-name="quoteright" unicode="&#x2019;" horiz-adv-x="216" d="M77 486 C149 522 165 550 165 625 L165 741 L51 741 L51 610 L103 610 C103 573 94 560 49 535 L77 486 Z " />
<glyph glyph-name="quotesinglbase" unicode="&#x201a;" horiz-adv-x="216" d="M77 -124 C149 -89 165 -61 165 15 L165 131 L51 131 L51 0 L103 0 C103 -37 94 -50 49 -75 L77 -124 Z " />
<glyph glyph-name="quotedblleft" unicode="&#x201c;" horiz-adv-x="385" d="M51 493 L162 493 L162 621 L111 621 C111 658 121 671 164 696 L138 743 C67 708 51 683 51 609 L51 493 Z M223 493 L333 493 L333 621 L282 621 C282 658 292 671 335 696 L309 743 C237 708 223 683 223 609 L223 493 Z " />
<glyph glyph-name="quotedblright" unicode="&#x201d;" horiz-adv-x="384" d="M75 491 C147 526 162 550 162 625 L162 741 L51 741 L51 611 L103 611 C103 576 93 562 49 538 L75 491 Z M246 491 C318 526 333 550 333 625 L333 741 L222 741 L222 611 L273 611 C273 576 264 562 221 538 L246 491 Z " />
<glyph glyph-name="quotedblbase" unicode="&#x201e;" horiz-adv-x="384" d="M75 -120 C147 -85 162 -60 162 15 L162 131 L51 131 L51 2 L103 2 C103 -34 93 -48 49 -73 L75 -120 Z M246 -120 C318 -85 333 -60 333 15 L333 131 L222 131 L222 2 L273 2 C273 -34 264 -48 221 -73 L246 -120 Z " />
<glyph glyph-name="dagger" unicode="&#x2020;" horiz-adv-x="458" d="M182 -158 L275 -158 L275 458 L415 458 L415 545 L275 545 L275 769 L182 769 L182 545 L43 545 L43 458 L182 458 L182 -158 Z " />
<glyph glyph-name="daggerdbl" unicode="&#x2021;" horiz-adv-x="458" d="M182 -158 L275 -158 L275 77 L415 77 L415 164 L275 164 L275 460 L415 460 L415 548 L275 548 L275 769 L182 769 L182 548 L43 548 L43 460 L182 460 L182 164 L43 164 L43 77 L182 77 L182 -158 Z " />
<glyph glyph-name="bullet" unicode="&#x2022;" horiz-adv-x="297" d="M77 216 L219 216 L219 392 L77 392 L77 216 Z " />
<glyph glyph-name="ellipsis" unicode="&#x2026;" horiz-adv-x="617" d="M51 0 L165 0 L165 126 L51 126 L51 0 Z M252 0 L364 0 L364 126 L252 126 L252 0 Z M453 0 L565 0 L565 126 L453 126 L453 0 Z " />
<glyph glyph-name="perthousand" unicode="&#x2030;" horiz-adv-x="1312" d="M202 276 C316 276 374 338 374 512 C374 687 316 748 202 748 C89 748 32 687 32 512 C32 338 89 276 202 276 L202 276 Z M203 348 C141 348 117 388 117 510 C117 632 141 672 203 672 C265 672 289 632 289 510 C289 388 265 348 203 348 L203 348 Z M732 -7 C846 -7 903 55 903 229 C903 403 846 466 732 466 C618 466 562 403 562 229 C562 55 618 -7 732 -7 L732 -7 Z M732 65 C671 65 646 106 646 227 C646 349 671 389 732 389 C793 389 819 349 819 227 C819 106 793 65 732 65 L732 65 Z M262 0 L349 0 L675 741 L587 741 L262 0 Z M1109 -7 C1223 -7 1280 55 1280 229 C1280 403 1223 466 1109 466 C995 466 939 403 939 229 C939 55 995 -7 1109 -7 L1109 -7 Z M1110 65 C1049 65 1023 106 1023 227 C1023 349 1049 389 1110 389 C1172 389 1196 349 1196 227 C1196 106 1172 65 1110 65 L1110 65 Z " />
<glyph glyph-name="guilsinglleft" unicode="&#x2039;" horiz-adv-x="361" d="M188 0 L274 0 L160 277 L274 555 L188 555 L67 277 L188 0 Z " />
<glyph glyph-name="guilsinglright" unicode="&#x203a;" horiz-adv-x="361" d="M87 0 L173 0 L294 278 L173 555 L87 555 L201 278 L87 0 Z " />
<glyph glyph-name="&amp;#x2044;" unicode="&#x2044;" horiz-adv-x="417" d="M3 0 L88 0 L413 741 L328 741 L3 0 Z " />
<glyph glyph-name="&amp;#x2215;" unicode="&#x2215;" horiz-adv-x="417" d="M3 0 L88 0 L413 741 L328 741 L3 0 Z " />
<glyph glyph-name="Euro" unicode="&#x20ac;" horiz-adv-x="558" d="M28 410 L118 410 L118 339 L28 339 L28 261 L121 261 C135 77 192 -8 348 -8 C425 -8 478 12 524 38 L481 113 C448 96 410 78 354 78 C259 78 225 137 215 261 L423 261 L423 339 L211 339 L211 410 L423 410 L423 487 L215 487 C225 604 259 659 353 659 C409 659 447 647 480 629 L525 708 C479 735 423 749 354 749 C195 749 137 666 122 487 L28 487 L28 410 Z " />
<glyph glyph-name="trademark" unicode="&#x2122;" horiz-adv-x="862" d="M386 278 L452 278 L452 598 L551 278 L598 278 L697 598 L697 278 L766 278 L766 741 L686 741 L576 394 L465 741 L386 741 L386 278 Z M161 278 L233 278 L233 676 L357 676 L357 741 L37 741 L37 676 L161 676 L161 278 Z " />
<glyph glyph-name="partialdiff" unicode="&#x2202;" horiz-adv-x="832" d="M126 120 C126 120 129 123 134 127 C79 193 46 278 46 371 C46 464 79 549 133 615 C129 619 126 621 126 621 C70 554 36 466 36 371 C36 275 70 187 126 120 L126 120 Z M228 211 C230 213 233 215 235 218 C201 259 181 313 181 371 C181 429 202 483 235 524 C232 526 230 529 227 531 C192 487 171 432 171 371 C171 310 193 254 228 211 L228 211 Z M264 243 C267 245 269 248 272 250 C245 283 229 325 229 371 C229 417 245 459 272 492 C269 494 267 497 264 499 C236 464 219 419 219 371 C219 322 236 278 264 243 L264 243 Z M316 289 C319 291 321 294 324 296 C308 317 298 343 298 371 C298 399 308 425 323 445 C321 448 318 450 316 452 C298 430 288 402 288 371 C288 340 298 312 316 289 L316 289 Z M349 320 C352 323 354 325 357 327 C348 340 343 355 343 371 C343 387 348 402 357 415 C354 417 352 420 349 422 C339 408 333 390 333 371 C333 352 339 334 349 320 L349 320 Z M378 346 C382 349 384 351 384 351 C381 357 379 364 379 371 C379 378 381 385 384 391 C384 391 382 393 378 396 C374 389 371 380 371 371 C371 362 374 353 378 346 L378 346 Z M416 60 C493 60 563 89 616 136 C614 139 611 141 609 144 C558 98 490 70 416 70 C342 70 274 98 222 144 C222 145 215 137 215 137 C268 89 338 60 416 60 L416 60 Z M416 324 C426 324 435 327 442 333 C439 337 437 339 437 339 C431 334 424 332 416 332 C408 332 401 335 395 339 C395 339 391 334 389 333 C397 327 406 324 416 324 L416 324 Z M482 319 C493 334 499 352 499 371 C499 390 493 408 482 422 C483 422 475 415 475 415 C484 403 489 388 489 371 C489 355 484 339 475 326 C478 324 480 322 482 319 L482 319 Z M292 269 C295 271 298 274 300 276 C280 302 267 335 267 371 C267 407 280 440 300 466 L293 473 C270 445 257 410 257 371 C257 333 270 297 292 269 L292 269 Z M416 -17 C512 -17 600 19 667 80 C667 80 660 88 660 87 C595 29 510 -7 416 -7 C322 -7 236 29 171 88 L164 80 C231 20 320 -17 416 -17 L416 -17 Z M416 121 C478 121 534 144 576 182 C574 185 571 187 569 190 C529 153 475 131 416 131 C357 131 303 153 262 190 L255 182 C298 144 354 121 416 121 L416 121 Z M416 170 C465 170 510 188 544 218 C542 221 539 223 537 226 C505 197 462 180 416 180 C369 180 327 197 294 226 L287 219 C322 189 367 170 416 170 L416 170 Z M416 209 C455 209 491 224 518 247 C516 250 514 253 512 255 C486 233 452 219 416 219 C380 219 346 233 320 255 L313 247 C341 224 377 209 416 209 L416 209 Z M416 265 C441 265 463 274 481 289 C479 292 476 294 474 297 C458 283 438 275 416 275 C394 275 373 283 357 297 L350 289 C368 274 391 265 416 265 L416 265 Z M358 445 C374 459 394 467 416 467 C438 467 458 459 474 445 L482 453 C464 468 441 477 416 477 C391 477 368 468 350 453 C351 452 354 448 358 445 L358 445 Z M570 552 C572 554 575 557 577 560 C534 598 478 621 416 621 C355 621 299 598 256 560 L263 553 C304 589 357 611 416 611 C475 611 529 589 570 552 L570 552 Z M454 346 C458 353 461 362 461 371 C461 380 458 389 454 396 L448 391 C451 385 453 378 453 371 C453 364 451 357 448 351 C448 351 450 349 454 346 L454 346 Z M468 333 C476 344 480 357 480 371 C480 385 476 398 468 409 L460 402 C466 393 470 382 470 371 C470 360 466 349 460 340 C463 338 465 336 468 333 L468 333 Z M498 306 C511 325 519 347 519 371 C519 395 511 418 497 436 L490 429 C502 413 509 393 509 371 C509 349 502 329 490 313 C492 311 495 308 498 306 L498 306 Z M540 269 C562 297 575 332 575 371 C575 410 562 445 539 473 L531 466 C552 440 565 407 565 371 C565 335 552 302 532 276 C535 274 537 271 540 269 L540 269 Z M568 243 C596 278 613 322 613 371 C613 420 596 464 568 499 L560 492 C587 459 603 417 603 371 C603 325 587 283 560 250 C563 248 566 245 568 243 L568 243 Z M604 211 C640 254 661 310 661 371 C661 432 640 488 604 531 L596 524 C631 483 651 429 651 371 C651 313 631 260 596 218 C601 213 604 211 604 211 L604 211 Z M649 171 C694 225 721 295 721 371 C721 447 694 517 649 571 L641 564 C685 512 711 445 711 371 C711 297 685 230 642 177 C644 175 647 173 649 171 L649 171 Z M706 120 C762 188 796 276 796 371 C796 467 762 555 706 622 L698 615 C753 549 786 464 786 371 C786 278 753 193 698 127 C703 123 706 120 706 120 L706 120 Z M183 170 L190 177 C147 229 121 297 121 371 C121 444 147 512 190 564 C187 567 184 569 182 571 C138 517 111 447 111 371 C111 294 138 225 183 170 L183 170 Z M334 306 L342 314 C330 330 323 350 323 371 C323 393 330 413 342 429 C340 431 337 434 334 436 C321 418 313 395 313 371 C313 346 321 324 334 306 L334 306 Z M364 333 L371 340 C366 349 362 360 362 371 C362 382 366 393 371 402 C369 404 366 406 364 409 C356 398 352 385 352 371 C352 357 356 344 364 333 L364 333 Z M395 403 C401 408 408 410 416 410 C424 410 431 407 437 403 C437 403 439 406 442 409 C435 415 426 418 416 418 C406 418 397 415 390 409 L395 403 Z M384 416 C393 423 404 428 416 428 C428 428 439 424 448 416 C450 419 452 421 454 423 C443 432 430 437 416 437 C401 437 388 432 377 423 L384 416 Z M371 430 C383 441 399 447 416 447 C433 447 449 441 461 430 C461 430 464 434 468 438 C454 450 436 457 416 457 C397 457 378 450 364 438 L371 430 Z M295 516 C327 545 370 562 416 562 C462 562 505 545 538 516 C538 516 545 523 544 523 C510 554 465 572 416 572 C367 572 322 554 288 524 L295 516 Z M416 240 C448 240 476 252 498 271 L491 278 C471 261 445 250 416 250 C388 250 361 261 340 278 L333 270 C355 251 384 240 416 240 L416 240 Z M416 285 C436 285 454 292 468 304 L461 312 C448 301 433 295 416 295 C399 295 383 302 370 312 L363 304 C378 292 396 285 416 285 L416 285 Z M416 305 C430 305 444 310 455 319 L448 326 C439 319 428 314 416 314 C404 314 393 319 383 326 L376 319 C388 310 401 305 416 305 L416 305 Z M341 464 C362 482 388 492 416 492 C445 492 471 481 491 464 L498 472 C476 491 447 502 416 502 C385 502 356 490 334 471 L341 464 Z M320 487 C346 509 380 523 416 523 C453 523 486 510 512 487 L518 494 C491 518 455 533 416 533 C377 533 341 519 313 495 L320 487 Z M610 597 L617 605 C563 653 493 682 416 682 C339 682 269 653 215 605 L222 598 C274 644 342 672 416 672 C491 672 559 644 610 597 L610 597 Z M172 654 C237 713 322 749 416 749 C510 749 596 713 661 654 L668 662 C601 722 512 759 416 759 C320 759 232 723 165 662 L172 654 Z M516 290 C534 312 544 340 544 371 C544 402 534 430 516 453 L508 446 C524 425 534 399 534 371 C534 343 524 317 509 297 L516 290 Z " />
<glyph glyph-name="product" unicode="&#x220f;" horiz-adv-x="832" d="M126 120 C126 120 129 123 134 127 C79 193 46 278 46 371 C46 464 79 549 133 615 C129 619 126 621 126 621 C70 554 36 466 36 371 C36 275 70 187 126 120 L126 120 Z M228 211 C230 213 233 215 235 218 C201 259 181 313 181 371 C181 429 202 483 235 524 C232 526 230 529 227 531 C192 487 171 432 171 371 C171 310 193 254 228 211 L228 211 Z M264 243 C267 245 269 248 272 250 C245 283 229 325 229 371 C229 417 245 459 272 492 C269 494 267 497 264 499 C236 464 219 419 219 371 C219 322 236 278 264 243 L264 243 Z M316 289 C319 291 321 294 324 296 C308 317 298 343 298 371 C298 399 308 425 323 445 C321 448 318 450 316 452 C298 430 288 402 288 371 C288 340 298 312 316 289 L316 289 Z M349 320 C352 323 354 325 357 327 C348 340 343 355 343 371 C343 387 348 402 357 415 C354 417 352 420 349 422 C339 408 333 390 333 371 C333 352 339 334 349 320 L349 320 Z M378 346 C382 349 384 351 384 351 C381 357 379 364 379 371 C379 378 381 385 384 391 C384 391 382 393 378 396 C374 389 371 380 371 371 C371 362 374 353 378 346 L378 346 Z M416 60 C493 60 563 89 616 136 C614 139 611 141 609 144 C558 98 490 70 416 70 C342 70 274 98 222 144 C222 145 215 137 215 137 C268 89 338 60 416 60 L416 60 Z M416 324 C426 324 435 327 442 333 C439 337 437 339 437 339 C431 334 424 332 416 332 C408 332 401 335 395 339 C395 339 391 334 389 333 C397 327 406 324 416 324 L416 324 Z M482 319 C493 334 499 352 499 371 C499 390 493 408 482 422 C483 422 475 415 475 415 C484 403 489 388 489 371 C489 355 484 339 475 326 C478 324 480 322 482 319 L482 319 Z M292 269 C295 271 298 274 300 276 C280 302 267 335 267 371 C267 407 280 440 300 466 L293 473 C270 445 257 410 257 371 C257 333 270 297 292 269 L292 269 Z M416 -17 C512 -17 600 19 667 80 C667 80 660 88 660 87 C595 29 510 -7 416 -7 C322 -7 236 29 171 88 L164 80 C231 20 320 -17 416 -17 L416 -17 Z M416 121 C478 121 534 144 576 182 C574 185 571 187 569 190 C529 153 475 131 416 131 C357 131 303 153 262 190 L255 182 C298 144 354 121 416 121 L416 121 Z M416 170 C465 170 510 188 544 218 C542 221 539 223 537 226 C505 197 462 180 416 180 C369 180 327 197 294 226 L287 219 C322 189 367 170 416 170 L416 170 Z M416 209 C455 209 491 224 518 247 C516 250 514 253 512 255 C486 233 452 219 416 219 C380 219 346 233 320 255 L313 247 C341 224 377 209 416 209 L416 209 Z M416 265 C441 265 463 274 481 289 C479 292 476 294 474 297 C458 283 438 275 416 275 C394 275 373 283 357 297 L350 289 C368 274 391 265 416 265 L416 265 Z M358 445 C374 459 394 467 416 467 C438 467 458 459 474 445 L482 453 C464 468 441 477 416 477 C391 477 368 468 350 453 C351 452 354 448 358 445 L358 445 Z M570 552 C572 554 575 557 577 560 C534 598 478 621 416 621 C355 621 299 598 256 560 L263 553 C304 589 357 611 416 611 C475 611 529 589 570 552 L570 552 Z M454 346 C458 353 461 362 461 371 C461 380 458 389 454 396 L448 391 C451 385 453 378 453 371 C453 364 451 357 448 351 C448 351 450 349 454 346 L454 346 Z M468 333 C476 344 480 357 480 371 C480 385 476 398 468 409 L460 402 C466 393 470 382 470 371 C470 360 466 349 460 340 C463 338 465 336 468 333 L468 333 Z M498 306 C511 325 519 347 519 371 C519 395 511 418 497 436 L490 429 C502 413 509 393 509 371 C509 349 502 329 490 313 C492 311 495 308 498 306 L498 306 Z M540 269 C562 297 575 332 575 371 C575 410 562 445 539 473 L531 466 C552 440 565 407 565 371 C565 335 552 302 532 276 C535 274 537 271 540 269 L540 269 Z M568 243 C596 278 613 322 613 371 C613 420 596 464 568 499 L560 492 C587 459 603 417 603 371 C603 325 587 283 560 250 C563 248 566 245 568 243 L568 243 Z M604 211 C640 254 661 310 661 371 C661 432 640 488 604 531 L596 524 C631 483 651 429 651 371 C651 313 631 260 596 218 C601 213 604 211 604 211 L604 211 Z M649 171 C694 225 721 295 721 371 C721 447 694 517 649 571 L641 564 C685 512 711 445 711 371 C711 297 685 230 642 177 C644 175 647 173 649 171 L649 171 Z M706 120 C762 188 796 276 796 371 C796 467 762 555 706 622 L698 615 C753 549 786 464 786 371 C786 278 753 193 698 127 C703 123 706 120 706 120 L706 120 Z M183 170 L190 177 C147 229 121 297 121 371 C121 444 147 512 190 564 C187 567 184 569 182 571 C138 517 111 447 111 371 C111 294 138 225 183 170 L183 170 Z M334 306 L342 314 C330 330 323 350 323 371 C323 393 330 413 342 429 C340 431 337 434 334 436 C321 418 313 395 313 371 C313 346 321 324 334 306 L334 306 Z M364 333 L371 340 C366 349 362 360 362 371 C362 382 366 393 371 402 C369 404 366 406 364 409 C356 398 352 385 352 371 C352 357 356 344 364 333 L364 333 Z M395 403 C401 408 408 410 416 410 C424 410 431 407 437 403 C437 403 439 406 442 409 C435 415 426 418 416 418 C406 418 397 415 390 409 L395 403 Z M384 416 C393 423 404 428 416 428 C428 428 439 424 448 416 C450 419 452 421 454 423 C443 432 430 437 416 437 C401 437 388 432 377 423 L384 416 Z M371 430 C383 441 399 447 416 447 C433 447 449 441 461 430 C461 430 464 434 468 438 C454 450 436 457 416 457 C397 457 378 450 364 438 L371 430 Z M295 516 C327 545 370 562 416 562 C462 562 505 545 538 516 C538 516 545 523 544 523 C510 554 465 572 416 572 C367 572 322 554 288 524 L295 516 Z M416 240 C448 240 476 252 498 271 L491 278 C471 261 445 250 416 250 C388 250 361 261 340 278 L333 270 C355 251 384 240 416 240 L416 240 Z M416 285 C436 285 454 292 468 304 L461 312 C448 301 433 295 416 295 C399 295 383 302 370 312 L363 304 C378 292 396 285 416 285 L416 285 Z M416 305 C430 305 444 310 455 319 L448 326 C439 319 428 314 416 314 C404 314 393 319 383 326 L376 319 C388 310 401 305 416 305 L416 305 Z M341 464 C362 482 388 492 416 492 C445 492 471 481 491 464 L498 472 C476 491 447 502 416 502 C385 502 356 490 334 471 L341 464 Z M320 487 C346 509 380 523 416 523 C453 523 486 510 512 487 L518 494 C491 518 455 533 416 533 C377 533 341 519 313 495 L320 487 Z M610 597 L617 605 C563 653 493 682 416 682 C339 682 269 653 215 605 L222 598 C274 644 342 672 416 672 C491 672 559 644 610 597 L610 597 Z M172 654 C237 713 322 749 416 749 C510 749 596 713 661 654 L668 662 C601 722 512 759 416 759 C320 759 232 723 165 662 L172 654 Z M516 290 C534 312 544 340 544 371 C544 402 534 430 516 453 L508 446 C524 425 534 399 534 371 C534 343 524 317 509 297 L516 290 Z " />
<glyph glyph-name="summation" unicode="&#x2211;" horiz-adv-x="832" d="M126 120 C126 120 129 123 134 127 C79 193 46 278 46 371 C46 464 79 549 133 615 C129 619 126 621 126 621 C70 554 36 466 36 371 C36 275 70 187 126 120 L126 120 Z M228 211 C230 213 233 215 235 218 C201 259 181 313 181 371 C181 429 202 483 235 524 C232 526 230 529 227 531 C192 487 171 432 171 371 C171 310 193 254 228 211 L228 211 Z M264 243 C267 245 269 248 272 250 C245 283 229 325 229 371 C229 417 245 459 272 492 C269 494 267 497 264 499 C236 464 219 419 219 371 C219 322 236 278 264 243 L264 243 Z M316 289 C319 291 321 294 324 296 C308 317 298 343 298 371 C298 399 308 425 323 445 C321 448 318 450 316 452 C298 430 288 402 288 371 C288 340 298 312 316 289 L316 289 Z M349 320 C352 323 354 325 357 327 C348 340 343 355 343 371 C343 387 348 402 357 415 C354 417 352 420 349 422 C339 408 333 390 333 371 C333 352 339 334 349 320 L349 320 Z M378 346 C382 349 384 351 384 351 C381 357 379 364 379 371 C379 378 381 385 384 391 C384 391 382 393 378 396 C374 389 371 380 371 371 C371 362 374 353 378 346 L378 346 Z M416 60 C493 60 563 89 616 136 C614 139 611 141 609 144 C558 98 490 70 416 70 C342 70 274 98 222 144 C222 145 215 137 215 137 C268 89 338 60 416 60 L416 60 Z M416 324 C426 324 435 327 442 333 C439 337 437 339 437 339 C431 334 424 332 416 332 C408 332 401 335 395 339 C395 339 391 334 389 333 C397 327 406 324 416 324 L416 324 Z M482 319 C493 334 499 352 499 371 C499 390 493 408 482 422 C483 422 475 415 475 415 C484 403 489 388 489 371 C489 355 484 339 475 326 C478 324 480 322 482 319 L482 319 Z M292 269 C295 271 298 274 300 276 C280 302 267 335 267 371 C267 407 280 440 300 466 L293 473 C270 445 257 410 257 371 C257 333 270 297 292 269 L292 269 Z M416 -17 C512 -17 600 19 667 80 C667 80 660 88 660 87 C595 29 510 -7 416 -7 C322 -7 236 29 171 88 L164 80 C231 20 320 -17 416 -17 L416 -17 Z M416 121 C478 121 534 144 576 182 C574 185 571 187 569 190 C529 153 475 131 416 131 C357 131 303 153 262 190 L255 182 C298 144 354 121 416 121 L416 121 Z M416 170 C465 170 510 188 544 218 C542 221 539 223 537 226 C505 197 462 180 416 180 C369 180 327 197 294 226 L287 219 C322 189 367 170 416 170 L416 170 Z M416 209 C455 209 491 224 518 247 C516 250 514 253 512 255 C486 233 452 219 416 219 C380 219 346 233 320 255 L313 247 C341 224 377 209 416 209 L416 209 Z M416 265 C441 265 463 274 481 289 C479 292 476 294 474 297 C458 283 438 275 416 275 C394 275 373 283 357 297 L350 289 C368 274 391 265 416 265 L416 265 Z M358 445 C374 459 394 467 416 467 C438 467 458 459 474 445 L482 453 C464 468 441 477 416 477 C391 477 368 468 350 453 C351 452 354 448 358 445 L358 445 Z M570 552 C572 554 575 557 577 560 C534 598 478 621 416 621 C355 621 299 598 256 560 L263 553 C304 589 357 611 416 611 C475 611 529 589 570 552 L570 552 Z M454 346 C458 353 461 362 461 371 C461 380 458 389 454 396 L448 391 C451 385 453 378 453 371 C453 364 451 357 448 351 C448 351 450 349 454 346 L454 346 Z M468 333 C476 344 480 357 480 371 C480 385 476 398 468 409 L460 402 C466 393 470 382 470 371 C470 360 466 349 460 340 C463 338 465 336 468 333 L468 333 Z M498 306 C511 325 519 347 519 371 C519 395 511 418 497 436 L490 429 C502 413 509 393 509 371 C509 349 502 329 490 313 C492 311 495 308 498 306 L498 306 Z M540 269 C562 297 575 332 575 371 C575 410 562 445 539 473 L531 466 C552 440 565 407 565 371 C565 335 552 302 532 276 C535 274 537 271 540 269 L540 269 Z M568 243 C596 278 613 322 613 371 C613 420 596 464 568 499 L560 492 C587 459 603 417 603 371 C603 325 587 283 560 250 C563 248 566 245 568 243 L568 243 Z M604 211 C640 254 661 310 661 371 C661 432 640 488 604 531 L596 524 C631 483 651 429 651 371 C651 313 631 260 596 218 C601 213 604 211 604 211 L604 211 Z M649 171 C694 225 721 295 721 371 C721 447 694 517 649 571 L641 564 C685 512 711 445 711 371 C711 297 685 230 642 177 C644 175 647 173 649 171 L649 171 Z M706 120 C762 188 796 276 796 371 C796 467 762 555 706 622 L698 615 C753 549 786 464 786 371 C786 278 753 193 698 127 C703 123 706 120 706 120 L706 120 Z M183 170 L190 177 C147 229 121 297 121 371 C121 444 147 512 190 564 C187 567 184 569 182 571 C138 517 111 447 111 371 C111 294 138 225 183 170 L183 170 Z M334 306 L342 314 C330 330 323 350 323 371 C323 393 330 413 342 429 C340 431 337 434 334 436 C321 418 313 395 313 371 C313 346 321 324 334 306 L334 306 Z M364 333 L371 340 C366 349 362 360 362 371 C362 382 366 393 371 402 C369 404 366 406 364 409 C356 398 352 385 352 371 C352 357 356 344 364 333 L364 333 Z M395 403 C401 408 408 410 416 410 C424 410 431 407 437 403 C437 403 439 406 442 409 C435 415 426 418 416 418 C406 418 397 415 390 409 L395 403 Z M384 416 C393 423 404 428 416 428 C428 428 439 424 448 416 C450 419 452 421 454 423 C443 432 430 437 416 437 C401 437 388 432 377 423 L384 416 Z M371 430 C383 441 399 447 416 447 C433 447 449 441 461 430 C461 430 464 434 468 438 C454 450 436 457 416 457 C397 457 378 450 364 438 L371 430 Z M295 516 C327 545 370 562 416 562 C462 562 505 545 538 516 C538 516 545 523 544 523 C510 554 465 572 416 572 C367 572 322 554 288 524 L295 516 Z M416 240 C448 240 476 252 498 271 L491 278 C471 261 445 250 416 250 C388 250 361 261 340 278 L333 270 C355 251 384 240 416 240 L416 240 Z M416 285 C436 285 454 292 468 304 L461 312 C448 301 433 295 416 295 C399 295 383 302 370 312 L363 304 C378 292 396 285 416 285 L416 285 Z M416 305 C430 305 444 310 455 319 L448 326 C439 319 428 314 416 314 C404 314 393 319 383 326 L376 319 C388 310 401 305 416 305 L416 305 Z M341 464 C362 482 388 492 416 492 C445 492 471 481 491 464 L498 472 C476 491 447 502 416 502 C385 502 356 490 334 471 L341 464 Z M320 487 C346 509 380 523 416 523 C453 523 486 510 512 487 L518 494 C491 518 455 533 416 533 C377 533 341 519 313 495 L320 487 Z M610 597 L617 605 C563 653 493 682 416 682 C339 682 269 653 215 605 L222 598 C274 644 342 672 416 672 C491 672 559 644 610 597 L610 597 Z M172 654 C237 713 322 749 416 749 C510 749 596 713 661 654 L668 662 C601 722 512 759 416 759 C320 759 232 723 165 662 L172 654 Z M516 290 C534 312 544 340 544 371 C544 402 534 430 516 453 L508 446 C524 425 534 399 534 371 C534 343 524 317 509 297 L516 290 Z " />
<glyph glyph-name="minus" unicode="&#x2212;" horiz-adv-x="566" d="M83 311 L483 311 L483 393 L83 393 L83 311 Z " />
<glyph glyph-name="radical" unicode="&#x221a;" horiz-adv-x="538" d="M173 -4 L271 -4 L500 741 L409 741 L225 124 L139 419 L41 419 L173 -4 Z " />
<glyph glyph-name="infinity" unicode="&#x221e;" horiz-adv-x="799" d="M375 0 L469 0 L469 473 L580 473 L580 555 L469 555 L469 608 C469 657 480 688 541 688 L580 688 L580 771 L534 771 C417 771 375 711 375 617 L375 555 L199 555 L199 608 C199 657 210 688 271 688 L310 688 L310 771 L263 771 C148 771 105 711 105 617 L105 555 L18 555 L18 473 L105 473 L105 0 L199 0 L199 473 L375 473 L375 0 Z M645 0 L739 0 L739 555 L645 555 L645 0 Z M645 623 L739 623 L739 735 L645 735 L645 623 Z " />
<glyph glyph-name="integral" unicode="&#x222b;" horiz-adv-x="832" d="M126 120 C126 120 129 123 134 127 C79 193 46 278 46 371 C46 464 79 549 133 615 C129 619 126 621 126 621 C70 554 36 466 36 371 C36 275 70 187 126 120 L126 120 Z M228 211 C230 213 233 215 235 218 C201 259 181 313 181 371 C181 429 202 483 235 524 C232 526 230 529 227 531 C192 487 171 432 171 371 C171 310 193 254 228 211 L228 211 Z M264 243 C267 245 269 248 272 250 C245 283 229 325 229 371 C229 417 245 459 272 492 C269 494 267 497 264 499 C236 464 219 419 219 371 C219 322 236 278 264 243 L264 243 Z M316 289 C319 291 321 294 324 296 C308 317 298 343 298 371 C298 399 308 425 323 445 C321 448 318 450 316 452 C298 430 288 402 288 371 C288 340 298 312 316 289 L316 289 Z M349 320 C352 323 354 325 357 327 C348 340 343 355 343 371 C343 387 348 402 357 415 C354 417 352 420 349 422 C339 408 333 390 333 371 C333 352 339 334 349 320 L349 320 Z M378 346 C382 349 384 351 384 351 C381 357 379 364 379 371 C379 378 381 385 384 391 C384 391 382 393 378 396 C374 389 371 380 371 371 C371 362 374 353 378 346 L378 346 Z M416 60 C493 60 563 89 616 136 C614 139 611 141 609 144 C558 98 490 70 416 70 C342 70 274 98 222 144 C222 145 215 137 215 137 C268 89 338 60 416 60 L416 60 Z M416 324 C426 324 435 327 442 333 C439 337 437 339 437 339 C431 334 424 332 416 332 C408 332 401 335 395 339 C395 339 391 334 389 333 C397 327 406 324 416 324 L416 324 Z M482 319 C493 334 499 352 499 371 C499 390 493 408 482 422 C483 422 475 415 475 415 C484 403 489 388 489 371 C489 355 484 339 475 326 C478 324 480 322 482 319 L482 319 Z M292 269 C295 271 298 274 300 276 C280 302 267 335 267 371 C267 407 280 440 300 466 L293 473 C270 445 257 410 257 371 C257 333 270 297 292 269 L292 269 Z M416 -17 C512 -17 600 19 667 80 C667 80 660 88 660 87 C595 29 510 -7 416 -7 C322 -7 236 29 171 88 L164 80 C231 20 320 -17 416 -17 L416 -17 Z M416 121 C478 121 534 144 576 182 C574 185 571 187 569 190 C529 153 475 131 416 131 C357 131 303 153 262 190 L255 182 C298 144 354 121 416 121 L416 121 Z M416 170 C465 170 510 188 544 218 C542 221 539 223 537 226 C505 197 462 180 416 180 C369 180 327 197 294 226 L287 219 C322 189 367 170 416 170 L416 170 Z M416 209 C455 209 491 224 518 247 C516 250 514 253 512 255 C486 233 452 219 416 219 C380 219 346 233 320 255 L313 247 C341 224 377 209 416 209 L416 209 Z M416 265 C441 265 463 274 481 289 C479 292 476 294 474 297 C458 283 438 275 416 275 C394 275 373 283 357 297 L350 289 C368 274 391 265 416 265 L416 265 Z M358 445 C374 459 394 467 416 467 C438 467 458 459 474 445 L482 453 C464 468 441 477 416 477 C391 477 368 468 350 453 C351 452 354 448 358 445 L358 445 Z M570 552 C572 554 575 557 577 560 C534 598 478 621 416 621 C355 621 299 598 256 560 L263 553 C304 589 357 611 416 611 C475 611 529 589 570 552 L570 552 Z M454 346 C458 353 461 362 461 371 C461 380 458 389 454 396 L448 391 C451 385 453 378 453 371 C453 364 451 357 448 351 C448 351 450 349 454 346 L454 346 Z M468 333 C476 344 480 357 480 371 C480 385 476 398 468 409 L460 402 C466 393 470 382 470 371 C470 360 466 349 460 340 C463 338 465 336 468 333 L468 333 Z M498 306 C511 325 519 347 519 371 C519 395 511 418 497 436 L490 429 C502 413 509 393 509 371 C509 349 502 329 490 313 C492 311 495 308 498 306 L498 306 Z M540 269 C562 297 575 332 575 371 C575 410 562 445 539 473 L531 466 C552 440 565 407 565 371 C565 335 552 302 532 276 C535 274 537 271 540 269 L540 269 Z M568 243 C596 278 613 322 613 371 C613 420 596 464 568 499 L560 492 C587 459 603 417 603 371 C603 325 587 283 560 250 C563 248 566 245 568 243 L568 243 Z M604 211 C640 254 661 310 661 371 C661 432 640 488 604 531 L596 524 C631 483 651 429 651 371 C651 313 631 260 596 218 C601 213 604 211 604 211 L604 211 Z M649 171 C694 225 721 295 721 371 C721 447 694 517 649 571 L641 564 C685 512 711 445 711 371 C711 297 685 230 642 177 C644 175 647 173 649 171 L649 171 Z M706 120 C762 188 796 276 796 371 C796 467 762 555 706 622 L698 615 C753 549 786 464 786 371 C786 278 753 193 698 127 C703 123 706 120 706 120 L706 120 Z M183 170 L190 177 C147 229 121 297 121 371 C121 444 147 512 190 564 C187 567 184 569 182 571 C138 517 111 447 111 371 C111 294 138 225 183 170 L183 170 Z M334 306 L342 314 C330 330 323 350 323 371 C323 393 330 413 342 429 C340 431 337 434 334 436 C321 418 313 395 313 371 C313 346 321 324 334 306 L334 306 Z M364 333 L371 340 C366 349 362 360 362 371 C362 382 366 393 371 402 C369 404 366 406 364 409 C356 398 352 385 352 371 C352 357 356 344 364 333 L364 333 Z M395 403 C401 408 408 410 416 410 C424 410 431 407 437 403 C437 403 439 406 442 409 C435 415 426 418 416 418 C406 418 397 415 390 409 L395 403 Z M384 416 C393 423 404 428 416 428 C428 428 439 424 448 416 C450 419 452 421 454 423 C443 432 430 437 416 437 C401 437 388 432 377 423 L384 416 Z M371 430 C383 441 399 447 416 447 C433 447 449 441 461 430 C461 430 464 434 468 438 C454 450 436 457 416 457 C397 457 378 450 364 438 L371 430 Z M295 516 C327 545 370 562 416 562 C462 562 505 545 538 516 C538 516 545 523 544 523 C510 554 465 572 416 572 C367 572 322 554 288 524 L295 516 Z M416 240 C448 240 476 252 498 271 L491 278 C471 261 445 250 416 250 C388 250 361 261 340 278 L333 270 C355 251 384 240 416 240 L416 240 Z M416 285 C436 285 454 292 468 304 L461 312 C448 301 433 295 416 295 C399 295 383 302 370 312 L363 304 C378 292 396 285 416 285 L416 285 Z M416 305 C430 305 444 310 455 319 L448 326 C439 319 428 314 416 314 C404 314 393 319 383 326 L376 319 C388 310 401 305 416 305 L416 305 Z M341 464 C362 482 388 492 416 492 C445 492 471 481 491 464 L498 472 C476 491 447 502 416 502 C385 502 356 490 334 471 L341 464 Z M320 487 C346 509 380 523 416 523 C453 523 486 510 512 487 L518 494 C491 518 455 533 416 533 C377 533 341 519 313 495 L320 487 Z M610 597 L617 605 C563 653 493 682 416 682 C339 682 269 653 215 605 L222 598 C274 644 342 672 416 672 C491 672 559 644 610 597 L610 597 Z M172 654 C237 713 322 749 416 749 C510 749 596 713 661 654 L668 662 C601 722 512 759 416 759 C320 759 232 723 165 662 L172 654 Z M516 290 C534 312 544 340 544 371 C544 402 534 430 516 453 L508 446 C524 425 534 399 534 371 C534 343 524 317 509 297 L516 290 Z " />
<glyph glyph-name="approxequal" unicode="&#x2248;" horiz-adv-x="567" d="M136 388 C154 416 169 431 197 431 C252 431 310 391 377 391 C433 391 468 421 496 478 L432 514 C413 486 398 469 369 469 C315 469 256 510 189 510 C135 510 98 481 70 425 L136 388 Z M136 189 C154 218 169 231 197 231 C252 231 310 192 377 192 C433 192 468 222 496 279 L432 316 C413 287 398 270 369 270 C315 270 256 310 189 310 C135 310 98 282 70 225 L136 189 Z " />
<glyph glyph-name="notequal" unicode="&#x2260;" horiz-adv-x="606" d="M375 0 L469 0 L469 473 L597 473 L597 555 L469 555 L469 608 C469 657 480 688 541 688 L597 688 L597 770 C587 771 555 771 534 771 C417 771 375 711 375 617 L375 555 L199 555 L199 608 C199 657 210 688 271 688 L310 688 L310 771 L263 771 C148 771 105 711 105 617 L105 555 L18 555 L18 473 L105 473 L105 0 L199 0 L199 473 L375 473 L375 0 Z " />
<glyph glyph-name="lessequal" unicode="&#x2264;" horiz-adv-x="566" d="M448 114 L448 206 L180 351 L448 495 L448 586 L85 384 L85 317 L448 114 Z M85 13 L448 13 L448 96 L85 96 L85 13 Z " />
<glyph glyph-name="greaterequal" unicode="&#x2265;" horiz-adv-x="566" d="M119 114 L482 317 L482 384 L119 586 L119 495 L385 351 L119 206 L119 114 Z M119 13 L482 13 L482 96 L119 96 L119 13 Z " />
<glyph glyph-name="lozenge" unicode="&#x25ca;" horiz-adv-x="654" d="M18 473 L105 473 L105 0 L199 0 L199 473 L393 473 L393 148 C393 44 422 -3 545 -3 C556 -3 602 -1 617 0 L617 82 L555 82 C494 82 486 108 486 157 L486 473 L617 473 L617 555 L486 555 L486 719 L411 702 L396 555 L199 555 L199 608 C199 657 210 688 271 688 L310 688 L310 771 L263 771 C148 771 105 711 105 617 L105 555 L18 555 L18 473 Z " />
<glyph glyph-name="apple" unicode="&#xf8ff;" horiz-adv-x="832" d="M126 120 C126 120 129 123 134 127 C79 193 46 278 46 371 C46 464 79 549 133 615 C129 619 126 621 126 621 C70 554 36 466 36 371 C36 275 70 187 126 120 L126 120 Z M228 211 C230 213 233 215 235 218 C201 259 181 313 181 371 C181 429 202 483 235 524 C232 526 230 529 227 531 C192 487 171 432 171 371 C171 310 193 254 228 211 L228 211 Z M264 243 C267 245 269 248 272 250 C245 283 229 325 229 371 C229 417 245 459 272 492 C269 494 267 497 264 499 C236 464 219 419 219 371 C219 322 236 278 264 243 L264 243 Z M316 289 C319 291 321 294 324 296 C308 317 298 343 298 371 C298 399 308 425 323 445 C321 448 318 450 316 452 C298 430 288 402 288 371 C288 340 298 312 316 289 L316 289 Z M349 320 C352 323 354 325 357 327 C348 340 343 355 343 371 C343 387 348 402 357 415 C354 417 352 420 349 422 C339 408 333 390 333 371 C333 352 339 334 349 320 L349 320 Z M378 346 C382 349 384 351 384 351 C381 357 379 364 379 371 C379 378 381 385 384 391 C384 391 382 393 378 396 C374 389 371 380 371 371 C371 362 374 353 378 346 L378 346 Z M416 60 C493 60 563 89 616 136 C614 139 611 141 609 144 C558 98 490 70 416 70 C342 70 274 98 222 144 C222 145 215 137 215 137 C268 89 338 60 416 60 L416 60 Z M416 324 C426 324 435 327 442 333 C439 337 437 339 437 339 C431 334 424 332 416 332 C408 332 401 335 395 339 C395 339 391 334 389 333 C397 327 406 324 416 324 L416 324 Z M482 319 C493 334 499 352 499 371 C499 390 493 408 482 422 C483 422 475 415 475 415 C484 403 489 388 489 371 C489 355 484 339 475 326 C478 324 480 322 482 319 L482 319 Z M292 269 C295 271 298 274 300 276 C280 302 267 335 267 371 C267 407 280 440 300 466 L293 473 C270 445 257 410 257 371 C257 333 270 297 292 269 L292 269 Z M416 -17 C512 -17 600 19 667 80 C667 80 660 88 660 87 C595 29 510 -7 416 -7 C322 -7 236 29 171 88 L164 80 C231 20 320 -17 416 -17 L416 -17 Z M416 121 C478 121 534 144 576 182 C574 185 571 187 569 190 C529 153 475 131 416 131 C357 131 303 153 262 190 L255 182 C298 144 354 121 416 121 L416 121 Z M416 170 C465 170 510 188 544 218 C542 221 539 223 537 226 C505 197 462 180 416 180 C369 180 327 197 294 226 L287 219 C322 189 367 170 416 170 L416 170 Z M416 209 C455 209 491 224 518 247 C516 250 514 253 512 255 C486 233 452 219 416 219 C380 219 346 233 320 255 L313 247 C341 224 377 209 416 209 L416 209 Z M416 265 C441 265 463 274 481 289 C479 292 476 294 474 297 C458 283 438 275 416 275 C394 275 373 283 357 297 L350 289 C368 274 391 265 416 265 L416 265 Z M358 445 C374 459 394 467 416 467 C438 467 458 459 474 445 L482 453 C464 468 441 477 416 477 C391 477 368 468 350 453 C351 452 354 448 358 445 L358 445 Z M570 552 C572 554 575 557 577 560 C534 598 478 621 416 621 C355 621 299 598 256 560 L263 553 C304 589 357 611 416 611 C475 611 529 589 570 552 L570 552 Z M454 346 C458 353 461 362 461 371 C461 380 458 389 454 396 L448 391 C451 385 453 378 453 371 C453 364 451 357 448 351 C448 351 450 349 454 346 L454 346 Z M468 333 C476 344 480 357 480 371 C480 385 476 398 468 409 L460 402 C466 393 470 382 470 371 C470 360 466 349 460 340 C463 338 465 336 468 333 L468 333 Z M498 306 C511 325 519 347 519 371 C519 395 511 418 497 436 L490 429 C502 413 509 393 509 371 C509 349 502 329 490 313 C492 311 495 308 498 306 L498 306 Z M540 269 C562 297 575 332 575 371 C575 410 562 445 539 473 L531 466 C552 440 565 407 565 371 C565 335 552 302 532 276 C535 274 537 271 540 269 L540 269 Z M568 243 C596 278 613 322 613 371 C613 420 596 464 568 499 L560 492 C587 459 603 417 603 371 C603 325 587 283 560 250 C563 248 566 245 568 243 L568 243 Z M604 211 C640 254 661 310 661 371 C661 432 640 488 604 531 L596 524 C631 483 651 429 651 371 C651 313 631 260 596 218 C601 213 604 211 604 211 L604 211 Z M649 171 C694 225 721 295 721 371 C721 447 694 517 649 571 L641 564 C685 512 711 445 711 371 C711 297 685 230 642 177 C644 175 647 173 649 171 L649 171 Z M706 120 C762 188 796 276 796 371 C796 467 762 555 706 622 L698 615 C753 549 786 464 786 371 C786 278 753 193 698 127 C703 123 706 120 706 120 L706 120 Z M183 170 L190 177 C147 229 121 297 121 371 C121 444 147 512 190 564 C187 567 184 569 182 571 C138 517 111 447 111 371 C111 294 138 225 183 170 L183 170 Z M334 306 L342 314 C330 330 323 350 323 371 C323 393 330 413 342 429 C340 431 337 434 334 436 C321 418 313 395 313 371 C313 346 321 324 334 306 L334 306 Z M364 333 L371 340 C366 349 362 360 362 371 C362 382 366 393 371 402 C369 404 366 406 364 409 C356 398 352 385 352 371 C352 357 356 344 364 333 L364 333 Z M395 403 C401 408 408 410 416 410 C424 410 431 407 437 403 C437 403 439 406 442 409 C435 415 426 418 416 418 C406 418 397 415 390 409 L395 403 Z M384 416 C393 423 404 428 416 428 C428 428 439 424 448 416 C450 419 452 421 454 423 C443 432 430 437 416 437 C401 437 388 432 377 423 L384 416 Z M371 430 C383 441 399 447 416 447 C433 447 449 441 461 430 C461 430 464 434 468 438 C454 450 436 457 416 457 C397 457 378 450 364 438 L371 430 Z M295 516 C327 545 370 562 416 562 C462 562 505 545 538 516 C538 516 545 523 544 523 C510 554 465 572 416 572 C367 572 322 554 288 524 L295 516 Z M416 240 C448 240 476 252 498 271 L491 278 C471 261 445 250 416 250 C388 250 361 261 340 278 L333 270 C355 251 384 240 416 240 L416 240 Z M416 285 C436 285 454 292 468 304 L461 312 C448 301 433 295 416 295 C399 295 383 302 370 312 L363 304 C378 292 396 285 416 285 L416 285 Z M416 305 C430 305 444 310 455 319 L448 326 C439 319 428 314 416 314 C404 314 393 319 383 326 L376 319 C388 310 401 305 416 305 L416 305 Z M341 464 C362 482 388 492 416 492 C445 492 471 481 491 464 L498 472 C476 491 447 502 416 502 C385 502 356 490 334 471 L341 464 Z M320 487 C346 509 380 523 416 523 C453 523 486 510 512 487 L518 494 C491 518 455 533 416 533 C377 533 341 519 313 495 L320 487 Z M610 597 L617 605 C563 653 493 682 416 682 C339 682 269 653 215 605 L222 598 C274 644 342 672 416 672 C491 672 559 644 610 597 L610 597 Z M172 654 C237 713 322 749 416 749 C510 749 596 713 661 654 L668 662 C601 722 512 759 416 759 C320 759 232 723 165 662 L172 654 Z M516 290 C534 312 544 340 544 371 C544 402 534 430 516 453 L508 446 C524 425 534 399 534 371 C534 343 524 317 509 297 L516 290 Z " />
<glyph glyph-name="fi" unicode="&#xfb01;" horiz-adv-x="529" d="M18 473 L105 473 L105 0 L199 0 L199 473 L310 473 L310 555 L199 555 L199 608 C199 657 210 688 271 688 L310 688 L310 771 L263 771 C148 771 105 711 105 617 L105 555 L18 555 L18 473 Z M375 0 L469 0 L469 555 L375 555 L375 0 Z M375 623 L469 623 L469 735 L375 735 L375 623 Z " />
<glyph glyph-name="fl" unicode="&#xfb02;" horiz-adv-x="569" d="M18 473 L105 473 L105 0 L199 0 L199 473 L310 473 L310 555 L199 555 L199 608 C199 657 210 688 271 688 L310 688 L310 771 L263 771 C148 771 105 711 105 617 L105 555 L18 555 L18 473 Z M534 0 L534 82 C471 82 469 96 469 141 L469 769 L375 769 L375 130 C375 32 404 -1 502 -1 C520 -1 529 -1 534 0 L534 0 Z " />
</font>
</svg>
