<?xml version="1.0" encoding="UTF-8"?>
<svg xmlns="http://www.w3.org/2000/svg" xmlns:xlink="http://www.w3.org/1999/xlink" version="1.2" >
<font id="AntennaExtraCond LightItalic">
<font-face  font-family="AntennaExtraCond" units-per-em="1000" ascent="800" descent="-200" font-style="italic" font-weight="300" font-stretch="normal" slope="-8" cap-height="741" x-height="551" underline-position="-75" underline-thickness="50" />
<missing-glyph  horiz-adv-x="133" d="" />
<glyph glyph-name="NULL" d="" />
<glyph glyph-name="CR" unicode="&#xd;" horiz-adv-x="250" d="" />
<glyph glyph-name="&amp;#x20;" unicode="&#x20;" horiz-adv-x="133" d="" />
<glyph glyph-name="&amp;#xa0;" unicode="&#xa0;" horiz-adv-x="133" d="" />
<glyph glyph-name="exclam" unicode="&#x21;" horiz-adv-x="226" d="M22 0 L102 0 L116 101 L36 101 L22 0 Z M61 203 L121 203 L204 741 L129 741 L61 203 Z " />
<glyph glyph-name="quotedbl" unicode="&#x22;" horiz-adv-x="311" d="M76 465 L134 465 L176 741 L109 741 L76 465 Z M205 465 L263 465 L307 741 L239 741 L205 465 Z " />
<glyph glyph-name="numbersign" unicode="&#x23;" horiz-adv-x="422" d="M58 0 L121 0 L154 245 L228 245 L195 0 L257 0 L291 245 L370 245 L378 309 L299 309 L315 422 L394 422 L403 486 L324 486 L360 741 L298 741 L261 486 L188 486 L223 741 L161 741 L125 486 L53 486 L45 422 L117 422 L100 309 L28 309 L20 245 L92 245 L58 0 Z M160 305 L176 426 L256 426 L239 305 L160 305 Z " />
<glyph glyph-name="dollar" unicode="&#x24;" horiz-adv-x="354" d="M82 -91 L146 -91 L159 2 C238 16 295 78 295 180 C295 235 269 282 205 407 C150 513 134 543 134 576 C134 643 177 681 231 681 C274 681 307 671 330 659 L362 717 C335 729 306 739 264 742 L275 827 L211 827 L199 741 C116 728 67 660 67 571 C67 520 92 479 148 370 C211 246 229 211 229 175 C229 92 176 59 121 59 C62 59 21 76 -6 90 L-36 34 C-2 17 32 3 95 0 L82 -91 Z " />
<glyph glyph-name="percent" unicode="&#x25;" horiz-adv-x="644" d="M138 286 C239 286 258 361 278 507 C286 564 291 607 291 634 C291 707 260 748 188 748 C84 748 68 673 47 525 C40 476 35 435 35 401 C35 327 63 286 138 286 L138 286 Z M140 341 C106 341 95 359 95 402 C95 430 99 469 107 520 C125 646 132 692 185 692 C219 692 230 673 230 632 C230 604 224 563 217 512 C199 386 192 341 140 341 L140 341 Z M458 -5 C560 -5 577 69 598 216 C606 273 611 315 611 342 C611 415 580 456 508 456 C405 456 387 382 366 234 C359 184 355 143 355 110 C355 36 383 -5 458 -5 L458 -5 Z M460 49 C427 49 415 68 415 110 C415 140 420 179 427 229 C445 355 452 400 504 400 C538 400 550 382 550 341 C550 312 544 273 536 221 C520 94 511 49 460 49 L460 49 Z M127 0 L187 0 L518 741 L459 741 L127 0 Z " />
<glyph glyph-name="ampersand" unicode="&#x26;" horiz-adv-x="462" d="M162 -6 C217 -6 261 9 296 45 L315 0 L390 0 L342 112 C377 183 403 289 425 442 L363 442 C347 330 331 246 310 186 L251 324 C239 351 228 376 219 399 C299 474 352 545 352 653 C352 709 326 748 244 748 C150 748 118 670 118 561 C118 518 126 475 141 426 C62 352 -10 273 -10 140 C-10 45 36 -6 162 -6 L162 -6 Z M164 52 C83 52 57 86 57 147 C57 247 104 302 161 368 C170 344 181 319 193 293 L271 105 C244 68 210 52 164 52 L164 52 Z M181 564 C181 635 194 689 242 689 C279 689 289 670 289 644 C289 567 258 518 199 456 C187 497 181 531 181 564 L181 564 Z " />
<glyph glyph-name="quotesingle" unicode="&#x27;" horiz-adv-x="181" d="M76 465 L135 465 L177 741 L109 741 L76 465 Z " />
<glyph glyph-name="parenleft" unicode="&#x28;" horiz-adv-x="287" d="M114 -160 L169 -130 C143 -80 112 11 112 151 C112 196 116 250 124 307 C155 532 235 664 291 735 L244 768 C181 696 90 550 57 312 C49 253 45 199 45 151 C45 -2 81 -105 114 -160 L114 -160 Z " />
<glyph glyph-name="parenright" unicode="&#x29;" horiz-adv-x="287" d="M26 -160 C89 -88 181 61 213 299 C221 358 225 410 225 459 C225 612 189 713 156 767 L101 737 C128 688 157 597 157 457 C157 412 154 358 147 301 C115 77 35 -56 -21 -127 L26 -160 Z " />
<glyph glyph-name="asterisk" unicode="&#x2a;" horiz-adv-x="353" d="M204 374 L220 512 L306 430 L344 475 L244 552 L362 601 L338 655 L231 598 L255 735 L201 743 L186 605 L100 688 L62 642 L161 565 L45 517 L69 463 L175 519 L150 382 L204 374 Z " />
<glyph glyph-name="plus" unicode="&#x2b;" horiz-adv-x="410" d="M145 183 L212 183 L233 336 L344 336 L353 400 L242 400 L264 553 L198 553 L177 400 L66 400 L56 336 L167 336 L145 183 Z " />
<glyph glyph-name="comma" unicode="&#x2c;" horiz-adv-x="160" d="M-4 -94 C52 -67 62 -45 68 2 L83 102 L4 102 L-11 0 L23 0 C18 -36 14 -38 -21 -58 L-4 -94 Z " />
<glyph glyph-name="&amp;#x2d;" unicode="&#x2d;" horiz-adv-x="261" d="M17 278 L219 278 L228 341 L26 341 L17 278 Z " />
<glyph glyph-name="&amp;#xad;" unicode="&#xad;" horiz-adv-x="261" d="M17 278 L219 278 L228 341 L26 341 L17 278 Z " />
<glyph glyph-name="period" unicode="&#x2e;" horiz-adv-x="160" d="M-11 0 L68 0 L83 102 L4 102 L-11 0 Z " />
<glyph glyph-name="slash" unicode="&#x2f;" horiz-adv-x="308" d="M-53 0 L16 0 L361 741 L292 741 L-53 0 Z " />
<glyph glyph-name="zero" unicode="0" horiz-adv-x="403" d="M162 -5 C298 -5 323 95 360 360 C372 450 383 532 383 588 C383 694 348 748 245 748 C107 748 80 647 44 383 C31 290 22 217 22 160 C22 51 57 -5 162 -5 L162 -5 Z M165 57 C110 57 89 86 89 160 C89 210 99 281 112 377 C146 619 160 684 241 684 C296 684 315 655 315 583 C315 534 306 463 292 364 C258 121 245 57 165 57 L165 57 Z " />
<glyph glyph-name="one" unicode="1" horiz-adv-x="230" d="M46 0 L113 0 L217 741 L69 741 L60 677 L142 677 L46 0 Z " />
<glyph glyph-name="two" unicode="2" horiz-adv-x="325" d="M-31 0 L237 0 L243 60 L50 60 L262 442 C300 510 327 565 327 632 C327 699 292 748 196 748 C148 748 105 741 69 726 L92 669 C121 680 154 685 184 685 C241 685 257 656 257 617 C257 569 238 529 207 473 L-23 58 L-31 0 Z " />
<glyph glyph-name="three" unicode="3" horiz-adv-x="314" d="M98 -5 C210 -5 241 60 261 201 C267 243 271 277 271 308 C271 361 257 394 220 410 C275 432 289 480 303 572 C307 595 309 617 309 638 C309 708 280 748 186 748 C132 748 89 739 64 729 L85 673 C109 682 139 686 173 686 C226 686 241 661 241 620 C241 604 239 585 235 566 C222 480 208 437 121 437 L82 437 L73 375 L95 375 C181 375 203 350 203 293 C203 269 199 241 194 207 C180 102 165 56 95 56 C54 56 15 71 -6 81 L-36 26 C-9 13 31 -5 98 -5 L98 -5 Z " />
<glyph glyph-name="four" unicode="4" horiz-adv-x="383" d="M1 179 L202 179 L177 0 L240 0 L265 179 L337 179 L346 241 L273 241 L304 456 L255 456 L211 241 L78 241 L332 741 L264 741 L9 237 L1 179 Z " />
<glyph glyph-name="five" unicode="5" horiz-adv-x="329" d="M113 -5 C224 -5 255 46 282 231 C289 286 294 330 294 366 C294 452 266 486 183 486 C154 486 133 480 115 472 L151 677 L315 677 L323 741 L100 741 L45 413 L93 398 C109 411 128 423 160 423 C209 423 226 406 226 349 C226 321 222 284 215 237 C195 90 177 56 109 56 C63 56 21 73 1 81 L-29 26 C-2 13 38 -5 113 -5 L113 -5 Z " />
<glyph glyph-name="six" unicode="6" horiz-adv-x="377" d="M157 -5 C278 -5 305 71 332 260 C337 299 341 335 341 367 C341 443 317 494 223 494 C181 494 144 486 118 454 C148 616 157 677 312 677 L334 677 L342 741 L319 741 C229 741 176 731 136 693 C85 641 69 564 47 413 L31 302 C22 239 17 188 17 146 C17 50 52 -5 157 -5 L157 -5 Z M158 55 C102 55 84 83 84 142 C84 175 89 215 96 272 C116 416 159 432 205 432 C258 432 273 402 273 351 C273 327 269 298 264 263 C243 107 232 55 158 55 L158 55 Z " />
<glyph glyph-name="seven" unicode="7" horiz-adv-x="289" d="M-3 0 L65 0 L321 684 L329 741 L57 741 L48 677 L250 677 L-3 0 Z " />
<glyph glyph-name="eight" unicode="8" horiz-adv-x="383" d="M151 -6 C273 -6 304 63 323 196 C328 232 332 264 332 294 C332 346 320 383 282 401 C334 424 348 482 359 561 C362 583 364 607 364 628 C364 704 330 748 233 748 C130 748 95 685 80 579 C76 551 73 522 73 498 C73 456 82 424 111 406 C43 382 27 315 13 214 C8 183 5 154 5 129 C5 42 43 -6 151 -6 L151 -6 Z M151 53 C92 53 74 82 74 135 C74 157 77 185 81 215 C96 318 112 368 187 368 C248 368 264 339 264 286 C264 263 262 237 257 205 C242 104 227 53 151 53 L151 53 Z M204 429 C153 429 139 457 139 500 C139 519 141 541 144 564 C155 643 169 689 232 689 C283 689 298 662 298 617 C298 599 295 578 292 554 C281 476 266 429 204 429 L204 429 Z " />
<glyph glyph-name="nine" unicode="9" horiz-adv-x="377" d="M38 0 L62 0 C152 0 205 10 245 48 C296 100 314 178 334 329 L349 441 C359 504 364 555 364 597 C364 692 332 748 224 748 C103 748 75 672 49 482 C43 443 39 407 39 375 C39 299 65 248 158 248 C200 248 237 256 262 287 C232 121 223 63 69 63 L46 63 L38 0 Z M176 308 C123 308 109 338 109 390 C109 413 112 443 116 478 C138 633 150 686 223 686 C279 686 297 658 297 598 C297 565 293 525 285 469 C265 325 223 308 176 308 L176 308 Z " />
<glyph glyph-name="colon" unicode="&#x3a;" horiz-adv-x="178" d="M-2 0 L77 0 L91 102 L13 102 L-2 0 Z M62 450 L140 450 L154 551 L76 551 L62 450 Z " />
<glyph glyph-name="semicolon" unicode="&#x3b;" horiz-adv-x="178" d="M5 -94 C61 -67 70 -42 77 2 L91 102 L13 102 L-2 0 L32 0 C27 -36 22 -39 -11 -58 L5 -94 Z M62 450 L140 450 L154 551 L76 551 L62 450 Z " />
<glyph glyph-name="less" unicode="&#x3c;" horiz-adv-x="410" d="M288 172 L298 239 L140 364 L333 488 L343 557 L80 390 L73 340 L288 172 Z " />
<glyph glyph-name="equal" unicode="&#x3d;" horiz-adv-x="410" d="M47 244 L330 244 L338 307 L56 307 L47 244 Z M69 403 L352 403 L361 467 L77 467 L69 403 Z " />
<glyph glyph-name="greater" unicode="&#x3e;" horiz-adv-x="410" d="M66 172 L329 338 L336 390 L121 557 L112 491 L270 366 L77 241 L66 172 Z " />
<glyph glyph-name="question" unicode="&#x3f;" horiz-adv-x="379" d="M121 201 L187 201 C202 303 205 327 241 378 L316 486 C349 534 365 571 365 627 C365 689 333 748 226 748 C180 748 135 743 96 728 L118 670 C147 680 182 685 216 685 C278 685 297 652 297 616 C297 576 289 550 263 513 L186 402 C140 336 138 308 121 201 L121 201 Z M86 0 L165 0 L179 95 L100 95 L86 0 Z " />
<glyph glyph-name="at" unicode="&#x40;" horiz-adv-x="554" d="M241 -152 L349 -152 L354 -109 L242 -109 C89 -109 48 -45 48 71 C48 134 60 216 73 310 C112 581 124 705 303 705 C449 705 489 643 489 531 C489 469 476 387 463 290 L443 147 C436 97 426 84 397 84 C364 84 369 115 372 137 L428 537 L382 540 L368 503 C356 529 332 544 270 544 C168 544 150 443 131 305 C124 259 117 211 117 173 C117 98 139 46 224 46 C277 46 306 58 328 83 C333 64 350 46 394 46 C450 46 474 62 485 141 L505 286 C519 383 531 466 531 533 C531 668 484 748 303 748 C90 748 71 597 31 313 C17 219 6 136 6 69 C6 -70 54 -152 241 -152 L241 -152 Z M235 97 C187 97 175 129 175 183 C175 215 181 257 187 300 C204 418 214 489 281 489 C334 489 348 461 348 404 C348 374 343 339 336 291 C317 151 307 97 235 97 L235 97 Z " />
<glyph glyph-name="A" unicode="A" horiz-adv-x="407" d="M-37 0 L31 0 L88 169 L261 169 L271 0 L341 0 L291 743 L219 743 L-37 0 Z M108 232 L196 496 L236 618 L243 495 L256 232 L108 232 Z " />
<glyph glyph-name="B" unicode="B" horiz-adv-x="411" d="M-3 0 L186 0 C292 0 341 48 360 188 C364 219 368 246 368 271 C368 334 350 369 310 384 C375 406 389 464 401 545 C405 568 406 590 406 608 C406 693 371 741 245 741 L102 741 L-3 0 Z M72 60 L112 349 L200 349 C270 349 301 332 301 260 C301 243 298 222 296 197 C281 92 254 60 185 60 L72 60 Z M122 411 L159 679 L243 679 C317 679 339 651 339 594 C339 579 337 561 334 540 C324 458 309 411 228 411 L122 411 Z " />
<glyph glyph-name="C" unicode="C" horiz-adv-x="349" d="M175 -5 C217 -5 250 1 284 14 L264 73 C237 63 211 59 181 59 C108 59 82 101 82 187 C82 237 89 298 100 376 C132 596 151 682 257 682 C298 682 328 673 352 663 L378 725 C347 738 313 748 257 748 C103 748 67 634 31 379 C20 299 12 236 12 184 C12 64 57 -5 175 -5 L175 -5 Z " />
<glyph glyph-name="D" unicode="D" horiz-adv-x="425" d="M-3 0 L158 0 C338 0 361 113 396 357 C406 434 415 499 415 552 C415 678 369 741 215 741 L102 741 L-3 0 Z M74 60 L161 678 L213 678 C314 678 345 642 345 547 C345 500 337 440 326 362 C293 121 275 60 157 60 L74 60 Z " />
<glyph glyph-name="E" unicode="E" horiz-adv-x="362" d="M-2 0 L277 0 L285 63 L74 63 L115 349 L317 349 L326 413 L124 413 L161 677 L372 677 L381 741 L102 741 L-2 0 Z " />
<glyph glyph-name="F" unicode="F" horiz-adv-x="345" d="M-2 0 L66 0 L114 343 L315 343 L324 407 L123 407 L161 677 L372 677 L381 741 L102 741 L-2 0 Z " />
<glyph glyph-name="G" unicode="G" horiz-adv-x="404" d="M171 -5 C297 -5 332 44 371 301 L388 415 L197 415 L189 352 L312 352 L303 296 C269 86 250 54 174 54 C100 54 80 105 80 183 C80 232 88 300 99 376 C130 597 151 682 259 682 C316 682 352 669 377 658 L406 718 C377 731 334 747 259 747 C100 747 66 633 31 383 C21 306 12 237 12 180 C12 69 47 -5 171 -5 L171 -5 Z " />
<glyph glyph-name="H" unicode="H" horiz-adv-x="441" d="M-2 0 L66 0 L115 349 L321 349 L272 0 L340 0 L444 741 L376 741 L331 416 L124 416 L170 741 L102 741 L-2 0 Z " />
<glyph glyph-name="I" unicode="I" horiz-adv-x="177" d="M3 0 L71 0 L175 741 L107 741 L3 0 Z " />
<glyph glyph-name="J" unicode="J" horiz-adv-x="247" d="M-36 0 C-32 0 10 0 26 0 C111 0 154 37 166 129 L253 741 L184 741 L99 138 C92 85 75 63 14 63 C9 63 -22 63 -27 63 L-36 0 Z " />
<glyph glyph-name="K" unicode="K" horiz-adv-x="400" d="M-2 0 L65 0 L98 239 L185 379 L263 0 L332 0 L237 453 L421 741 L349 741 L117 375 L169 741 L102 741 L-2 0 Z " />
<glyph glyph-name="L" unicode="L" horiz-adv-x="336" d="M-2 0 L273 0 L281 63 L74 63 L170 741 L102 741 L-2 0 Z " />
<glyph glyph-name="M" unicode="M" horiz-adv-x="525" d="M-3 0 L57 0 L141 599 L148 486 L181 0 L235 0 L404 480 L442 593 L359 0 L424 0 L528 741 L437 741 L265 250 L230 147 L225 251 L194 741 L101 741 L-3 0 Z " />
<glyph glyph-name="N" unicode="N" horiz-adv-x="429" d="M-3 0 L61 0 L144 589 L166 477 L266 0 L328 0 L432 741 L369 741 L289 171 L269 276 L173 741 L101 741 L-3 0 Z " />
<glyph glyph-name="O" unicode="O" horiz-adv-x="443" d="M184 -5 C347 -5 380 121 413 357 C423 431 433 507 433 561 C433 678 392 748 265 748 C99 748 66 630 32 384 C21 307 12 241 12 187 C12 66 54 -5 184 -5 L184 -5 Z M187 58 C107 58 81 99 81 189 C81 238 89 300 100 378 C132 602 152 683 260 683 C338 683 364 642 364 555 C364 506 356 442 344 361 C313 138 295 58 187 58 L187 58 Z " />
<glyph glyph-name="P" unicode="P" horiz-adv-x="404" d="M-2 0 L65 0 L107 298 L209 298 C330 298 376 350 399 512 C404 544 406 573 406 597 C406 695 364 741 235 741 L102 741 L-2 0 Z M115 361 L161 678 L232 678 C312 678 339 654 339 588 C339 568 337 545 332 516 C314 392 286 361 210 361 L115 361 Z " />
<glyph glyph-name="Q" unicode="Q" horiz-adv-x="442" d="M262 -150 L269 -89 L231 -89 C188 -89 181 -77 191 -3 C348 1 380 124 413 357 C423 431 433 507 433 561 C433 678 392 748 265 748 C99 748 66 630 32 384 C21 307 12 241 12 187 C12 86 41 21 127 2 C108 -116 128 -150 222 -150 L262 -150 Z M187 57 C107 57 81 98 81 188 C81 237 89 300 100 378 C132 602 152 683 260 683 C338 683 364 642 364 555 C364 506 356 442 344 361 C313 138 295 57 187 57 L187 57 Z " />
<glyph glyph-name="R" unicode="R" horiz-adv-x="409" d="M249 0 L316 0 L263 318 C346 338 382 399 398 521 C402 552 405 579 405 602 C405 697 365 741 235 741 L102 741 L-2 0 L65 0 L108 312 L197 312 L249 0 Z M117 375 L160 678 L230 678 C311 678 337 654 337 590 C337 573 335 549 331 523 C315 408 286 375 209 375 L117 375 Z " />
<glyph glyph-name="S" unicode="S" horiz-adv-x="353" d="M120 -5 C223 -5 294 59 294 171 C294 231 269 281 207 406 C154 513 138 547 138 584 C138 645 176 682 230 682 C274 682 307 674 330 663 L358 724 C323 740 288 747 231 747 C128 747 68 682 68 582 C68 527 92 483 147 373 C209 248 226 210 226 171 C226 92 176 58 122 58 C68 58 33 71 4 87 L-31 31 C4 12 47 -5 120 -5 L120 -5 Z " />
<glyph glyph-name="T" unicode="T" horiz-adv-x="373" d="M100 0 L169 0 L264 677 L404 677 L413 741 L65 741 L56 677 L195 677 L100 0 Z " />
<glyph glyph-name="U" unicode="U" horiz-adv-x="433" d="M177 -7 C310 -7 344 65 365 209 L440 741 L373 741 L299 217 C284 105 259 57 178 57 C77 57 81 131 92 211 L167 741 L98 741 L23 209 C7 88 19 -7 177 -7 L177 -7 Z " />
<glyph glyph-name="V" unicode="V" horiz-adv-x="406" d="M115 -2 L187 -2 L443 741 L374 741 L205 234 L169 124 L163 244 L136 741 L68 741 L115 -2 Z " />
<glyph glyph-name="W" unicode="W" horiz-adv-x="614" d="M90 -2 L161 -2 L311 491 L335 570 L336 491 L351 -2 L421 -2 L644 741 L579 741 L443 283 L409 166 L407 284 L394 741 L328 741 L189 287 L152 166 L151 288 L142 741 L75 741 L90 -2 Z " />
<glyph glyph-name="X" unicode="X" horiz-adv-x="410" d="M271 0 L339 0 L243 385 L429 741 L358 741 L222 472 L155 741 L87 741 L173 392 L-34 0 L37 0 L195 306 L271 0 Z " />
<glyph glyph-name="Y" unicode="Y" horiz-adv-x="394" d="M110 0 L178 0 L217 268 L439 741 L369 741 L195 361 L130 741 L60 741 L148 265 L110 0 Z " />
<glyph glyph-name="Z" unicode="Z" horiz-adv-x="369" d="M-27 0 L292 0 L301 63 L59 63 L381 683 L389 741 L88 741 L78 677 L303 677 L-19 55 L-27 0 Z " />
<glyph glyph-name="bracketleft" unicode="&#x5b;" horiz-adv-x="289" d="M-2 -152 L161 -152 L169 -94 L73 -94 L185 702 L279 702 L287 763 L126 763 L-2 -152 Z " />
<glyph glyph-name="backslash" unicode="&#x5c;" horiz-adv-x="308" d="M190 0 L255 0 L118 741 L54 741 L190 0 Z " />
<glyph glyph-name="bracketright" unicode="&#x5d;" horiz-adv-x="289" d="M-16 -152 L146 -152 L274 763 L111 763 L103 702 L198 702 L87 -94 L-8 -94 L-16 -152 Z " />
<glyph glyph-name="asciicircum" unicode="&#x5e;" horiz-adv-x="345" d="M84 603 L144 603 L220 697 L268 603 L326 603 L258 745 L193 745 L84 603 Z " />
<glyph glyph-name="underscore" unicode="&#x5f;" horiz-adv-x="259" d="M-88 -112 L213 -112 L220 -60 L-82 -60 L-88 -112 Z " />
<glyph glyph-name="grave" unicode="&#x60;" horiz-adv-x="345" d="M192 606 L251 606 L190 748 L115 748 L192 606 Z " />
<glyph glyph-name="a" unicode="a" horiz-adv-x="361" d="M103 -4 C152 -4 187 10 209 33 C212 13 222 -1 263 -1 C268 -1 283 -1 287 0 L295 60 C260 60 263 76 267 109 L306 383 C319 478 313 557 194 557 C147 557 106 551 79 541 L99 481 C123 489 153 494 183 494 C255 494 246 427 239 376 L222 376 C79 376 22 348 -1 189 C-5 161 -7 136 -7 114 C-6 40 22 -4 103 -4 L103 -4 Z M115 54 C71 54 58 80 58 123 C58 141 61 164 64 190 C81 304 114 317 231 317 L211 175 C201 108 184 54 115 54 L115 54 Z " />
<glyph glyph-name="b" unicode="b" horiz-adv-x="373" d="M45 -2 L60 43 C75 12 105 -4 177 -4 C292 -4 313 109 335 266 C343 318 350 370 350 414 C350 498 325 557 232 557 C186 557 153 545 129 517 L164 763 L98 763 L-9 2 L45 -2 Z M161 57 C102 57 83 89 83 152 C83 186 88 225 96 278 C118 435 133 494 212 494 C265 494 282 458 282 398 C282 362 275 317 268 268 C251 136 235 57 161 57 L161 57 Z " />
<glyph glyph-name="c" unicode="c" horiz-adv-x="269" d="M128 -4 C155 -4 178 -2 202 5 L188 62 C172 57 154 55 137 55 C87 55 69 91 69 151 C69 185 75 229 82 281 C101 416 115 493 192 493 C215 493 232 489 247 483 L274 543 C254 551 228 557 191 557 C69 557 38 455 14 288 C7 234 2 188 2 149 C2 60 33 -4 128 -4 L128 -4 Z " />
<glyph glyph-name="d" unicode="d" horiz-adv-x="376" d="M118 -4 C166 -4 204 8 229 36 L227 -1 L282 3 L389 763 L323 763 L287 511 C273 541 237 557 173 557 C59 557 37 445 15 289 C8 237 0 183 0 139 C0 55 25 -4 118 -4 L118 -4 Z M137 55 C84 55 68 92 68 151 C68 187 75 233 81 283 C99 414 114 494 189 494 C248 494 266 462 266 398 C266 366 261 325 254 273 C231 116 217 55 137 55 L137 55 Z " />
<glyph glyph-name="e" unicode="e" horiz-adv-x="333" d="M135 -5 C179 -5 212 0 254 13 L235 68 C203 58 173 54 142 54 C84 54 66 90 66 150 C66 175 69 208 73 247 L291 247 C304 327 311 384 311 427 C311 514 278 557 192 557 C70 557 39 458 14 288 C7 235 2 189 2 150 C2 60 35 -5 135 -5 L135 -5 Z M190 496 C232 496 249 474 249 421 C249 393 245 361 238 308 L82 308 C100 427 116 496 190 496 L190 496 Z " />
<glyph glyph-name="f" unicode="f" horiz-adv-x="244" d="M32 491 L97 491 L7 -152 L73 -152 L163 491 L254 491 L262 551 L172 551 L183 631 C190 688 203 703 255 703 L284 703 L291 763 C289 764 265 764 254 764 C166 764 131 733 120 650 L106 551 L41 551 L32 491 Z " />
<glyph glyph-name="g" unicode="g" horiz-adv-x="355" d="M155 199 C249 199 294 252 310 366 C314 389 315 411 315 429 C315 465 307 495 291 515 L354 515 L362 571 L232 555 C218 557 203 558 189 558 C95 558 52 500 36 385 C33 363 31 342 31 323 C30 284 39 253 60 231 C41 210 34 181 34 158 C34 136 40 117 54 105 C-25 88 -46 19 -46 -45 C-46 -118 -2 -157 115 -157 C214 -157 292 -116 292 16 C292 86 257 124 143 129 C98 131 91 143 91 164 C91 176 94 192 104 205 C119 201 136 199 155 199 L155 199 Z M116 -103 C44 -103 20 -79 20 -36 C20 13 32 74 119 74 C205 74 225 48 225 9 C225 -79 177 -103 116 -103 L116 -103 Z M157 257 C110 257 96 279 95 321 C95 337 97 357 101 379 C112 457 130 499 187 499 C236 499 250 472 250 430 C250 413 248 394 245 372 C234 295 215 257 157 257 L157 257 Z " />
<glyph glyph-name="h" unicode="h" horiz-adv-x="375" d="M-9 0 L56 0 L107 357 C123 469 151 494 208 494 C289 494 276 430 267 365 L217 0 L283 0 L337 382 C348 465 358 557 230 557 C188 557 151 548 129 522 L163 763 L98 763 L-9 0 Z " />
<glyph glyph-name="i" unicode="i" horiz-adv-x="158" d="M-6 0 L60 0 L138 551 L72 551 L-6 0 Z M82 625 L148 625 L163 726 L96 726 L82 625 Z " />
<glyph glyph-name="j" unicode="j" horiz-adv-x="158" d="M-65 -152 C18 -152 42 -133 53 -54 L138 551 L72 551 L-12 -45 C-17 -85 -22 -92 -57 -93 L-65 -152 Z M82 625 L148 625 L163 726 L96 726 L82 625 Z " />
<glyph glyph-name="k" unicode="k" horiz-adv-x="332" d="M-9 0 L55 0 L78 167 L135 256 L205 0 L272 0 L185 321 L336 551 L267 551 L95 290 L162 763 L98 763 L-9 0 Z " />
<glyph glyph-name="l" unicode="l" horiz-adv-x="187" d="M96 -1 C100 -1 107 -1 110 0 L118 60 L111 60 C71 60 69 69 76 113 L167 763 L101 763 L9 112 C-1 31 10 -1 96 -1 L96 -1 Z " />
<glyph glyph-name="m" unicode="m" horiz-adv-x="584" d="M-9 0 L56 0 L107 357 C123 469 149 494 204 494 C282 494 268 429 259 365 L208 0 L274 0 L324 357 C340 469 366 494 421 494 C499 494 485 426 477 365 L425 0 L492 0 L545 382 C557 466 564 557 442 557 C390 557 346 545 324 510 C308 545 276 557 226 557 C183 557 140 547 121 520 L123 550 L67 547 L-9 0 Z " />
<glyph glyph-name="n" unicode="n" horiz-adv-x="375" d="M-9 0 L56 0 L107 357 C123 469 151 494 208 494 C289 494 276 430 267 365 L217 0 L283 0 L337 382 C348 465 358 557 230 557 C183 557 143 547 121 520 L123 550 L67 547 L-9 0 Z " />
<glyph glyph-name="o" unicode="o" horiz-adv-x="365" d="M140 -5 C272 -5 301 92 325 264 C333 316 338 363 338 403 C338 495 306 557 198 557 C68 557 39 460 14 288 C7 236 2 191 2 151 C2 58 33 -5 140 -5 L140 -5 Z M144 55 C86 55 68 89 68 152 C68 186 73 229 80 281 C101 429 116 494 195 494 C254 494 271 460 271 397 C271 364 266 320 258 268 C238 120 224 55 144 55 L144 55 Z " />
<glyph glyph-name="p" unicode="p" horiz-adv-x="376" d="M-31 -152 L36 -152 L63 43 C77 12 112 -4 177 -4 C292 -4 313 109 335 266 C343 318 350 370 350 414 C350 498 325 557 232 557 C184 557 146 546 121 518 L123 550 L68 547 L-31 -152 Z M161 57 C102 57 83 89 83 152 C83 186 88 225 96 278 C118 435 133 494 212 494 C265 494 282 458 282 398 C282 362 275 317 268 268 C251 136 235 57 161 57 L161 57 Z " />
<glyph glyph-name="q" unicode="q" horiz-adv-x="376" d="M195 -152 L261 -152 L359 551 L306 554 L289 510 C275 541 245 557 173 557 C59 557 37 445 15 289 C8 237 0 183 0 139 C0 55 25 -4 118 -4 C163 -4 197 7 221 34 L195 -152 Z M137 55 C84 55 68 92 68 151 C68 187 75 233 81 283 C99 414 114 494 189 494 C248 494 266 462 266 398 C266 366 261 325 254 273 C231 116 217 55 137 55 L137 55 Z " />
<glyph glyph-name="r" unicode="r" horiz-adv-x="221" d="M-9 0 L57 0 L105 340 C119 444 151 481 226 487 L235 551 C176 548 139 533 119 509 L123 550 L68 547 L-9 0 Z " />
<glyph glyph-name="s" unicode="s" horiz-adv-x="293" d="M99 -5 C176 -5 232 36 232 127 C232 171 213 210 162 304 C123 376 112 405 112 430 C112 472 138 495 177 495 C205 495 233 489 254 480 L277 541 C249 552 214 558 181 558 C96 558 47 509 47 429 C47 390 64 347 107 269 C155 182 167 153 167 125 C167 73 134 54 102 54 C56 54 23 67 0 78 L-26 22 C8 5 44 -5 99 -5 L99 -5 Z " />
<glyph glyph-name="t" unicode="t" horiz-adv-x="259" d="M32 491 L93 491 L42 128 C29 38 46 -1 142 -1 C149 -1 175 -1 182 0 L190 62 L154 62 C105 62 102 82 107 126 L158 491 L251 491 L259 551 L167 551 L187 692 L131 678 L103 551 L41 551 L32 491 Z " />
<glyph glyph-name="u" unicode="u" horiz-adv-x="369" d="M143 -5 C247 -5 285 55 300 157 L354 551 L290 551 L236 169 C225 93 206 55 143 55 C71 55 70 106 78 167 L132 551 L66 551 L12 170 C-3 69 18 -5 143 -5 L143 -5 Z " />
<glyph glyph-name="v" unicode="v" horiz-adv-x="323" d="M73 -1 L146 -1 L341 551 L275 551 L160 216 L125 109 L119 217 L100 551 L32 551 L73 -1 Z " />
<glyph glyph-name="w" unicode="w" horiz-adv-x="509" d="M54 -1 L124 -1 L241 343 L258 400 L260 344 L281 -1 L349 -1 L523 551 L460 551 L359 225 L330 127 L327 229 L310 551 L251 551 L145 232 L113 128 L112 232 L103 551 L35 551 L54 -1 Z " />
<glyph glyph-name="x" unicode="x" horiz-adv-x="322" d="M193 0 L259 0 L184 283 L330 551 L263 551 L163 362 L114 551 L47 551 L115 294 L-43 0 L24 0 L136 215 L193 0 Z " />
<glyph glyph-name="y" unicode="y" horiz-adv-x="319" d="M0 -153 C65 -153 89 -134 111 -74 L337 551 L272 551 L164 238 L126 124 L120 241 L98 551 L32 551 L76 0 L53 -64 C45 -86 37 -92 3 -93 L-24 -93 L-32 -152 C-28 -153 -8 -153 0 -153 L0 -153 Z " />
<glyph glyph-name="z" unicode="z" horiz-adv-x="284" d="M-36 0 L215 0 L223 57 L49 57 L282 503 L288 551 L53 551 L45 491 L202 491 L-29 48 L-36 0 Z " />
<glyph glyph-name="braceleft" unicode="&#x7b;" horiz-adv-x="312" d="M129 -152 L183 -152 L191 -94 L157 -94 C110 -94 94 -79 102 -26 C109 30 161 173 170 238 C175 271 167 295 140 306 C170 316 184 341 189 374 C198 440 187 580 194 636 C202 689 222 702 269 702 L303 702 L311 763 L253 763 C178 763 141 736 129 652 C120 588 131 438 124 384 C118 341 98 335 41 335 L34 276 C91 276 108 270 102 226 C94 171 41 24 32 -38 C20 -122 51 -152 129 -152 L129 -152 Z " />
<glyph glyph-name="bar" unicode="&#x7c;" horiz-adv-x="207" d="M68 -152 L135 -152 L135 763 L68 763 L68 -152 Z " />
<glyph glyph-name="braceright" unicode="&#x7d;" horiz-adv-x="312" d="M-17 -152 L41 -152 C115 -152 153 -127 165 -43 C174 20 162 171 170 226 C176 270 194 276 251 276 L259 335 C203 335 186 341 192 384 C200 438 253 584 262 647 C274 731 244 763 165 763 L111 763 L103 702 L137 702 C184 702 200 689 192 636 C184 580 134 440 125 374 C120 341 127 316 155 306 C125 295 110 271 105 238 C96 173 107 30 100 -26 C92 -79 72 -94 25 -94 L-9 -94 L-17 -152 Z " />
<glyph glyph-name="asciitilde" unicode="&#x7e;" horiz-adv-x="345" d="M137 412 C144 437 151 445 169 445 C190 445 220 414 254 414 C301 414 321 440 334 494 L282 503 C276 478 269 470 250 470 C229 470 198 501 166 501 C116 501 97 474 85 421 L137 412 Z " />
<glyph glyph-name="exclamdown" unicode="&#xa1;" horiz-adv-x="226" d="M24 0 L98 0 L166 538 L107 538 L24 0 Z M112 640 L192 640 L206 741 L126 741 L112 640 Z " />
<glyph glyph-name="cent" unicode="&#xa2;" horiz-adv-x="314" d="M81 -96 L138 -96 L151 -3 C174 -2 193 0 215 6 L201 62 C185 57 167 55 150 55 C100 55 82 91 82 151 C82 185 88 229 95 281 C114 416 128 493 205 493 C228 493 245 489 260 483 L286 543 C271 549 253 553 230 555 L242 642 L185 642 L172 553 C76 536 48 439 27 288 C20 234 15 188 15 149 C15 76 36 21 95 3 L81 -96 Z " />
<glyph glyph-name="sterling" unicode="&#xa3;" horiz-adv-x="361" d="M191 -3 C256 -3 287 28 299 119 L304 164 L245 164 L239 125 C231 70 218 55 184 55 C160 55 142 61 125 70 C134 95 138 126 139 166 L144 352 L253 352 L260 406 L146 406 L151 577 C153 647 173 685 232 685 C270 685 304 677 331 664 L359 722 C326 736 289 748 232 748 C135 748 89 681 87 581 L82 406 L27 406 L19 352 L81 352 L76 170 C74 92 72 60 -20 60 L-28 1 C27 0 64 7 89 23 C115 6 145 -3 191 -3 L191 -3 Z " />
<glyph glyph-name="currency" unicode="&#xa4;" horiz-adv-x="377" d="M26 405 L87 405 C86 397 85 390 84 383 C82 371 81 359 79 348 L18 348 L10 290 L72 290 C66 238 62 193 62 158 C62 49 101 -5 203 -5 C237 -5 274 1 299 11 L279 68 C259 60 231 56 207 56 C149 56 129 88 129 162 C129 196 132 238 139 290 L277 290 L286 348 L147 348 C148 357 149 367 151 377 C152 386 153 396 155 405 L293 405 L301 462 L163 462 C189 630 208 684 279 684 C315 684 344 676 364 667 L391 726 C363 737 328 748 281 748 C163 748 128 663 95 462 L34 462 L26 405 Z " />
<glyph glyph-name="yen" unicode="&#xa5;" horiz-adv-x="366" d="M20 202 L127 202 L119 145 L12 145 L4 87 L110 87 L98 0 L163 0 L175 87 L283 87 L291 145 L183 145 L191 202 L299 202 L307 260 L199 260 L202 281 L402 741 L335 741 L183 364 L135 741 L69 741 L138 282 L135 260 L27 260 L20 202 Z " />
<glyph glyph-name="brokenbar" unicode="&#xa6;" horiz-adv-x="207" d="M68 -152 L135 -152 L135 232 L68 232 L68 -152 Z M68 379 L135 379 L135 763 L68 763 L68 379 Z " />
<glyph glyph-name="section" unicode="&#xa7;" horiz-adv-x="328" d="M32 0 C114 0 147 40 160 126 L168 183 C251 189 279 239 298 370 C303 408 306 440 306 465 C306 533 285 567 222 576 L230 627 C237 673 250 698 302 698 L328 698 L335 756 L299 756 C214 756 179 715 168 631 L160 578 C78 573 53 531 34 391 C29 352 25 322 25 295 C25 229 46 195 105 185 L97 130 C91 84 79 59 26 58 L0 58 L-9 1 C-5 1 16 0 32 0 L32 0 Z M149 231 C105 231 86 247 86 301 C86 323 89 349 93 385 C110 509 129 529 182 529 C227 529 247 513 247 458 C247 437 244 411 239 376 C222 251 203 231 149 231 L149 231 Z " />
<glyph glyph-name="dieresis" unicode="&#xa8;" horiz-adv-x="345" d="M110 606 L169 606 L182 696 L123 696 L110 606 Z M243 606 L301 606 L314 696 L255 696 L243 606 Z " />
<glyph glyph-name="copyright" unicode="&#xa9;" horiz-adv-x="479" d="M249 116 C284 116 308 122 330 131 L312 175 C293 167 276 162 250 162 C177 162 170 219 170 368 C170 516 177 574 250 574 C272 574 291 570 310 564 L328 609 C304 617 281 622 249 622 C210 622 182 612 163 591 C126 553 121 482 121 369 C121 253 126 183 164 145 C183 127 210 116 249 116 L249 116 Z M240 -8 C436 -8 454 116 454 371 C454 624 436 750 240 750 C46 750 27 624 27 371 C27 116 46 -8 240 -8 L240 -8 Z M240 25 C76 25 61 140 61 371 C61 601 75 716 240 716 C405 716 420 601 420 371 C420 140 405 25 240 25 L240 25 Z " />
<glyph glyph-name="ordfeminine" unicode="&#xaa;" horiz-adv-x="333" d="M128 291 C173 291 199 304 217 332 C219 305 233 293 268 293 L284 293 L291 343 C265 343 264 352 268 383 L300 604 C312 692 311 748 211 748 C174 748 139 742 117 736 L129 686 C149 691 180 695 203 695 C257 695 253 662 245 599 L232 599 C123 599 70 579 52 448 C50 425 47 408 47 387 C47 323 70 291 128 291 L128 291 Z M143 338 C113 338 101 354 101 392 C101 407 103 426 106 448 C119 540 144 553 234 553 L239 553 L227 463 C217 393 209 338 143 338 L143 338 Z M28 171 L254 171 L262 223 L36 223 L28 171 Z " />
<glyph glyph-name="guillemotleft" unicode="&#xab;" horiz-adv-x="413" d="M88 0 L148 0 L102 275 L225 551 L165 551 L38 275 L88 0 Z M239 0 L298 0 L253 275 L376 551 L316 551 L190 275 L239 0 Z " />
<glyph glyph-name="logicalnot" unicode="&#xac;" horiz-adv-x="832" d="M126 120 C126 120 129 123 134 127 C79 193 46 278 46 371 C46 464 79 549 133 615 C129 619 126 621 126 621 C70 554 36 466 36 371 C36 275 70 187 126 120 L126 120 Z M228 211 C230 213 233 215 235 218 C201 259 181 313 181 371 C181 429 202 483 235 524 C232 526 230 529 227 531 C192 487 171 432 171 371 C171 310 193 254 228 211 L228 211 Z M264 243 C267 245 269 248 272 250 C245 283 229 325 229 371 C229 417 245 459 272 492 C269 494 267 497 264 499 C236 464 219 419 219 371 C219 322 236 278 264 243 L264 243 Z M316 289 C319 291 321 294 324 296 C308 317 298 343 298 371 C298 399 308 425 323 445 C321 448 318 450 316 452 C298 430 288 402 288 371 C288 340 298 312 316 289 L316 289 Z M349 320 C352 323 354 325 357 327 C348 340 343 355 343 371 C343 387 348 402 357 415 C354 417 352 420 349 422 C339 408 333 390 333 371 C333 352 339 334 349 320 L349 320 Z M378 346 C382 349 384 351 384 351 C381 357 379 364 379 371 C379 378 381 385 384 391 C384 391 382 393 378 396 C374 389 371 380 371 371 C371 362 374 353 378 346 L378 346 Z M416 60 C493 60 563 89 616 136 C614 139 611 141 609 144 C558 98 490 70 416 70 C342 70 274 98 222 144 C222 145 215 137 215 137 C268 89 338 60 416 60 L416 60 Z M416 324 C426 324 435 327 442 333 C439 337 437 339 437 339 C431 334 424 332 416 332 C408 332 401 335 395 339 C395 339 391 334 389 333 C397 327 406 324 416 324 L416 324 Z M482 319 C493 334 499 352 499 371 C499 390 493 408 482 422 C483 422 475 415 475 415 C484 403 489 388 489 371 C489 355 484 339 475 326 C478 324 480 322 482 319 L482 319 Z M292 269 C295 271 298 274 300 276 C280 302 267 335 267 371 C267 407 280 440 300 466 L293 473 C270 445 257 410 257 371 C257 333 270 297 292 269 L292 269 Z M416 -17 C512 -17 600 19 667 80 C667 80 660 88 660 87 C595 29 510 -7 416 -7 C322 -7 236 29 171 88 L164 80 C231 20 320 -17 416 -17 L416 -17 Z M416 121 C478 121 534 144 576 182 C574 185 571 187 569 190 C529 153 475 131 416 131 C357 131 303 153 262 190 L255 182 C298 144 354 121 416 121 L416 121 Z M416 170 C465 170 510 188 544 218 C542 221 539 223 537 226 C505 197 462 180 416 180 C369 180 327 197 294 226 L287 219 C322 189 367 170 416 170 L416 170 Z M416 209 C455 209 491 224 518 247 C516 250 514 253 512 255 C486 233 452 219 416 219 C380 219 346 233 320 255 L313 247 C341 224 377 209 416 209 L416 209 Z M416 265 C441 265 463 274 481 289 C479 292 476 294 474 297 C458 283 438 275 416 275 C394 275 373 283 357 297 L350 289 C368 274 391 265 416 265 L416 265 Z M358 445 C374 459 394 467 416 467 C438 467 458 459 474 445 L482 453 C464 468 441 477 416 477 C391 477 368 468 350 453 C351 452 354 448 358 445 L358 445 Z M570 552 C572 554 575 557 577 560 C534 598 478 621 416 621 C355 621 299 598 256 560 L263 553 C304 589 357 611 416 611 C475 611 529 589 570 552 L570 552 Z M454 346 C458 353 461 362 461 371 C461 380 458 389 454 396 L448 391 C451 385 453 378 453 371 C453 364 451 357 448 351 C448 351 450 349 454 346 L454 346 Z M468 333 C476 344 480 357 480 371 C480 385 476 398 468 409 L460 402 C466 393 470 382 470 371 C470 360 466 349 460 340 C463 338 465 336 468 333 L468 333 Z M498 306 C511 325 519 347 519 371 C519 395 511 418 497 436 L490 429 C502 413 509 393 509 371 C509 349 502 329 490 313 C492 311 495 308 498 306 L498 306 Z M540 269 C562 297 575 332 575 371 C575 410 562 445 539 473 L531 466 C552 440 565 407 565 371 C565 335 552 302 532 276 C535 274 537 271 540 269 L540 269 Z M568 243 C596 278 613 322 613 371 C613 420 596 464 568 499 L560 492 C587 459 603 417 603 371 C603 325 587 283 560 250 C563 248 566 245 568 243 L568 243 Z M604 211 C640 254 661 310 661 371 C661 432 640 488 604 531 L596 524 C631 483 651 429 651 371 C651 313 631 260 596 218 C601 213 604 211 604 211 L604 211 Z M649 171 C694 225 721 295 721 371 C721 447 694 517 649 571 L641 564 C685 512 711 445 711 371 C711 297 685 230 642 177 C644 175 647 173 649 171 L649 171 Z M706 120 C762 188 796 276 796 371 C796 467 762 555 706 622 L698 615 C753 549 786 464 786 371 C786 278 753 193 698 127 C703 123 706 120 706 120 L706 120 Z M183 170 L190 177 C147 229 121 297 121 371 C121 444 147 512 190 564 C187 567 184 569 182 571 C138 517 111 447 111 371 C111 294 138 225 183 170 L183 170 Z M334 306 L342 314 C330 330 323 350 323 371 C323 393 330 413 342 429 C340 431 337 434 334 436 C321 418 313 395 313 371 C313 346 321 324 334 306 L334 306 Z M364 333 L371 340 C366 349 362 360 362 371 C362 382 366 393 371 402 C369 404 366 406 364 409 C356 398 352 385 352 371 C352 357 356 344 364 333 L364 333 Z M395 403 C401 408 408 410 416 410 C424 410 431 407 437 403 C437 403 439 406 442 409 C435 415 426 418 416 418 C406 418 397 415 390 409 L395 403 Z M384 416 C393 423 404 428 416 428 C428 428 439 424 448 416 C450 419 452 421 454 423 C443 432 430 437 416 437 C401 437 388 432 377 423 L384 416 Z M371 430 C383 441 399 447 416 447 C433 447 449 441 461 430 C461 430 464 434 468 438 C454 450 436 457 416 457 C397 457 378 450 364 438 L371 430 Z M295 516 C327 545 370 562 416 562 C462 562 505 545 538 516 C538 516 545 523 544 523 C510 554 465 572 416 572 C367 572 322 554 288 524 L295 516 Z M416 240 C448 240 476 252 498 271 L491 278 C471 261 445 250 416 250 C388 250 361 261 340 278 L333 270 C355 251 384 240 416 240 L416 240 Z M416 285 C436 285 454 292 468 304 L461 312 C448 301 433 295 416 295 C399 295 383 302 370 312 L363 304 C378 292 396 285 416 285 L416 285 Z M416 305 C430 305 444 310 455 319 L448 326 C439 319 428 314 416 314 C404 314 393 319 383 326 L376 319 C388 310 401 305 416 305 L416 305 Z M341 464 C362 482 388 492 416 492 C445 492 471 481 491 464 L498 472 C476 491 447 502 416 502 C385 502 356 490 334 471 L341 464 Z M320 487 C346 509 380 523 416 523 C453 523 486 510 512 487 L518 494 C491 518 455 533 416 533 C377 533 341 519 313 495 L320 487 Z M610 597 L617 605 C563 653 493 682 416 682 C339 682 269 653 215 605 L222 598 C274 644 342 672 416 672 C491 672 559 644 610 597 L610 597 Z M172 654 C237 713 322 749 416 749 C510 749 596 713 661 654 L668 662 C601 722 512 759 416 759 C320 759 232 723 165 662 L172 654 Z M516 290 C534 312 544 340 544 371 C544 402 534 430 516 453 L508 446 C524 425 534 399 534 371 C534 343 524 317 509 297 L516 290 Z " />
<glyph glyph-name="registered" unicode="&#xae;" horiz-adv-x="479" d="M240 -8 C436 -8 454 116 454 371 C454 624 436 750 240 750 C46 750 27 624 27 371 C27 116 46 -8 240 -8 L240 -8 Z M240 25 C76 25 61 140 61 371 C61 601 75 716 240 716 C405 716 420 601 420 371 C420 140 405 25 240 25 L240 25 Z M302 133 L349 133 L285 341 C338 357 353 400 353 473 C353 572 328 608 233 608 L139 608 L139 133 L185 133 L185 334 L241 334 L302 133 Z M185 377 L185 566 L232 566 C293 566 307 546 307 471 C307 397 293 377 232 377 L185 377 Z " />
<glyph glyph-name="&amp;#xaf;" unicode="&#xaf;" horiz-adv-x="345" d="M96 606 L315 606 L323 665 L105 665 L96 606 Z " />
<glyph glyph-name="&amp;#x2c9;" unicode="&#x2c9;" horiz-adv-x="345" d="M96 606 L315 606 L323 665 L105 665 L96 606 Z " />
<glyph glyph-name="degree" unicode="&#xb0;" horiz-adv-x="325" d="M158 285 C271 285 286 361 307 506 C313 553 319 593 319 627 C319 702 294 748 210 748 C98 748 80 671 60 526 C53 481 49 441 49 407 C49 330 73 285 158 285 L158 285 Z M160 336 C119 336 106 359 106 408 C106 437 111 474 117 519 C135 640 141 692 207 692 C247 692 260 669 260 621 C260 592 256 555 249 509 C232 387 225 336 160 336 L160 336 Z " />
<glyph glyph-name="plusminus" unicode="&#xb1;" horiz-adv-x="610" d="M201 -152 L267 -152 L358 491 L435 491 L442 551 L366 551 L378 634 C385 690 397 704 444 704 L464 704 L472 763 C470 764 448 764 446 764 C358 764 325 731 314 648 L300 551 L171 551 L183 634 C191 690 203 704 249 704 L272 704 L280 763 C278 764 257 764 252 764 C164 764 130 731 119 648 L105 551 L41 551 L32 491 L97 491 L7 -152 L73 -152 L163 491 L292 491 L201 -152 Z M519 -1 C521 -1 530 -1 532 0 L541 60 L533 60 C494 60 492 69 498 113 L590 763 L524 763 L432 112 C421 31 432 -1 519 -1 L519 -1 Z " />
<glyph glyph-name="twosuperior" unicode="&#xb2;" horiz-adv-x="275" d="M33 291 L212 291 L219 340 L100 340 L225 554 C251 599 267 632 267 673 C267 715 242 745 173 745 C143 745 115 741 90 732 L107 685 C126 692 144 694 163 694 C198 694 209 681 209 662 C209 634 202 617 178 576 L40 340 L33 291 Z " />
<glyph glyph-name="threesuperior" unicode="&#xb3;" horiz-adv-x="269" d="M121 288 C191 288 213 323 227 411 C231 436 234 460 234 479 C234 509 224 530 203 541 C235 554 245 579 253 634 C255 647 256 660 256 672 C256 721 235 745 166 745 C133 745 104 740 86 734 L103 687 C118 693 139 695 158 695 C190 695 198 685 198 661 C198 652 197 641 196 630 C188 578 180 561 129 561 L102 561 L95 514 L110 514 C162 514 176 502 176 468 C176 454 175 438 172 418 C162 357 154 337 113 337 C86 337 64 347 52 352 L26 306 C42 298 71 288 121 288 L121 288 Z " />
<glyph glyph-name="acute" unicode="&#xb4;" horiz-adv-x="345" d="M158 606 L217 606 L334 748 L258 748 L158 606 Z " />
<glyph glyph-name="&amp;#xb5;" unicode="&#xb5;" horiz-adv-x="371" d="M-31 -152 L36 -152 L61 34 C74 10 103 -4 146 -4 C249 -4 288 55 302 157 L357 551 L293 551 L239 169 C228 93 210 55 145 55 C73 55 73 106 81 167 L135 551 L68 551 L-31 -152 Z " />
<glyph glyph-name="&amp;#x3bc;" unicode="&#x3bc;" horiz-adv-x="371" d="M-31 -152 L36 -152 L61 34 C74 10 103 -4 146 -4 C249 -4 288 55 302 157 L357 551 L293 551 L239 169 C228 93 210 55 145 55 C73 55 73 106 81 167 L135 551 L68 551 L-31 -152 Z " />
<glyph glyph-name="paragraph" unicode="&#xb6;" horiz-adv-x="371" d="M88 0 L151 0 L192 303 C201 302 209 302 219 302 L244 302 L202 0 L265 0 L369 741 L252 741 C122 741 76 695 54 533 C50 503 47 476 47 451 C47 377 70 332 130 313 L88 0 Z M223 361 C141 361 111 388 111 458 C111 476 114 501 117 526 C134 649 163 680 247 680 L297 680 L252 361 L223 361 Z " />
<glyph glyph-name="&amp;#xb7;" unicode="&#xb7;" horiz-adv-x="160" d="M28 277 L107 277 L121 380 L42 380 L28 277 Z " />
<glyph glyph-name="&amp;#x2219;" unicode="&#x2219;" horiz-adv-x="160" d="M28 277 L107 277 L121 380 L42 380 L28 277 Z " />
<glyph glyph-name="cedilla" unicode="&#xb8;" horiz-adv-x="345" d="M105 -202 C159 -202 196 -184 196 -102 C196 -59 171 -46 134 -48 L154 14 L110 14 L87 -62 L103 -77 C130 -75 150 -79 150 -105 C150 -148 134 -158 104 -158 C80 -158 64 -151 49 -143 L26 -182 C45 -193 70 -202 105 -202 L105 -202 Z " />
<glyph glyph-name="onesuperior" unicode="&#xb9;" horiz-adv-x="219" d="M79 291 L138 291 L201 741 L92 741 L85 690 L135 690 L79 291 Z " />
<glyph glyph-name="ordmasculine" unicode="&#xba;" horiz-adv-x="336" d="M165 288 C274 288 297 373 317 510 C323 553 328 592 328 623 C328 700 301 749 215 749 C105 749 81 665 62 526 C56 487 51 448 51 413 C51 338 78 288 165 288 L165 288 Z M167 340 C122 340 108 366 108 414 C108 441 113 477 119 521 C134 640 146 694 211 694 C257 694 271 668 271 620 C271 592 266 556 260 513 C243 393 232 340 167 340 L167 340 Z M27 171 L254 171 L261 223 L34 223 L27 171 Z " />
<glyph glyph-name="guillemotright" unicode="&#xbb;" horiz-adv-x="413" d="M10 0 L71 0 L197 275 L148 551 L88 551 L134 275 L10 0 Z M162 0 L222 0 L348 275 L299 551 L240 551 L285 275 L162 0 Z " />
<glyph glyph-name="onequarter" unicode="&#xbc;" horiz-adv-x="528" d="M54 0 L111 0 L443 741 L385 741 L54 0 Z M239 97 L363 97 L349 0 L403 0 L417 97 L460 97 L468 147 L424 147 L441 268 L402 268 L371 147 L303 147 L457 450 L401 450 L245 144 L239 97 Z M72 291 L131 291 L194 741 L86 741 L78 690 L128 690 L72 291 Z " />
<glyph glyph-name="onehalf" unicode="&#xbd;" horiz-adv-x="569" d="M54 0 L111 0 L443 741 L385 741 L54 0 Z M72 291 L131 291 L194 741 L86 741 L78 690 L128 690 L72 291 Z M288 0 L468 0 L475 49 L356 49 L481 263 C508 308 523 341 523 383 C523 425 498 455 429 455 C399 455 370 451 346 441 L362 394 C382 401 400 404 419 404 C454 404 465 391 465 371 C465 343 456 323 433 284 L295 49 L288 0 Z " />
<glyph glyph-name="threequarters" unicode="&#xbe;" horiz-adv-x="581" d="M106 0 L165 0 L496 741 L438 741 L106 0 Z M292 97 L416 97 L402 0 L456 0 L470 97 L513 97 L520 147 L477 147 L495 268 L454 268 L424 147 L355 147 L511 450 L454 450 L298 144 L292 97 Z M124 288 C194 288 216 323 230 411 C234 436 237 460 237 479 C237 509 227 530 206 541 C238 554 248 579 256 634 C258 647 259 660 259 672 C259 721 238 745 169 745 C136 745 107 740 89 734 L106 687 C121 693 142 695 161 695 C193 695 201 685 201 661 C201 652 200 641 199 630 C191 578 183 561 132 561 L105 561 L98 514 L113 514 C165 514 179 502 179 468 C179 454 178 438 175 418 C165 357 157 337 116 337 C89 337 67 347 55 352 L29 306 C45 298 74 288 124 288 L124 288 Z " />
<glyph glyph-name="questiondown" unicode="&#xbf;" horiz-adv-x="379" d="M155 -7 C201 -7 246 -2 285 13 L263 71 C234 61 199 56 165 56 C103 56 84 89 84 125 C84 165 92 191 118 228 L195 339 C241 405 243 433 260 540 L194 540 C179 438 176 414 140 363 L65 255 C32 207 16 170 16 114 C16 52 48 -7 155 -7 L155 -7 Z M202 646 L281 646 L295 741 L216 741 L202 646 Z " />
<glyph glyph-name="Agrave" unicode="&#xc0;" horiz-adv-x="407" d="M-37 0 L31 0 L88 169 L261 169 L271 0 L341 0 L291 743 L219 743 L-37 0 Z M108 232 L196 496 L236 618 L243 495 L256 232 L108 232 Z M247 781 L306 781 L245 923 L170 923 L247 781 Z " />
<glyph glyph-name="Aacute" unicode="&#xc1;" horiz-adv-x="407" d="M-37 0 L31 0 L88 169 L261 169 L271 0 L341 0 L291 743 L219 743 L-37 0 Z M108 232 L196 496 L236 618 L243 495 L256 232 L108 232 Z M213 781 L272 781 L389 923 L313 923 L213 781 Z " />
<glyph glyph-name="Acircumflex" unicode="&#xc2;" horiz-adv-x="407" d="M-37 0 L31 0 L88 169 L261 169 L271 0 L341 0 L291 743 L219 743 L-37 0 Z M108 232 L196 496 L236 618 L243 495 L256 232 L108 232 Z M139 781 L199 781 L275 875 L323 781 L381 781 L313 923 L248 923 L139 781 Z " />
<glyph glyph-name="Atilde" unicode="&#xc3;" horiz-adv-x="407" d="M-37 0 L31 0 L88 169 L261 169 L271 0 L341 0 L291 743 L219 743 L-37 0 Z M108 232 L196 496 L236 618 L243 495 L256 232 L108 232 Z M192 779 C199 804 206 812 224 812 C245 812 275 781 309 781 C356 781 376 807 389 861 L337 870 C331 845 324 837 305 837 C284 837 253 868 221 868 C171 868 152 841 140 788 L192 779 Z " />
<glyph glyph-name="Adieresis" unicode="&#xc4;" horiz-adv-x="407" d="M-37 0 L31 0 L88 169 L261 169 L271 0 L341 0 L291 743 L219 743 L-37 0 Z M108 232 L196 496 L236 618 L243 495 L256 232 L108 232 Z M165 781 L224 781 L237 871 L178 871 L165 781 Z M298 781 L356 781 L369 871 L310 871 L298 781 Z " />
<glyph glyph-name="Aring" unicode="&#xc5;" horiz-adv-x="407" d="M-37 0 L31 0 L88 169 L261 169 L271 0 L341 0 L293 714 C321 728 332 759 337 800 C339 812 340 823 340 835 C340 878 325 908 267 908 C207 908 190 870 182 812 C181 801 180 791 180 779 C180 749 187 726 209 714 L-37 0 Z M108 232 L196 496 L236 618 L243 495 L256 232 L108 232 Z M253 744 C228 744 219 758 219 781 C219 790 220 799 221 808 C226 846 233 870 266 870 C292 870 300 855 300 832 C300 824 299 814 298 803 C293 767 286 744 253 744 L253 744 Z " />
<glyph glyph-name="AE" unicode="&#xc6;" horiz-adv-x="585" d="M-50 0 L20 0 L104 185 L256 185 L230 0 L506 0 L515 63 L303 63 L344 349 L541 349 L550 413 L353 413 L390 677 L600 677 L609 741 L287 741 L-50 0 Z M130 245 L325 678 L264 245 L130 245 Z " />
<glyph glyph-name="Ccedilla" unicode="&#xc7;" horiz-adv-x="349" d="M107 -202 C161 -202 198 -184 198 -102 C198 -59 173 -46 136 -48 L150 -4 C158 -4 166 -5 175 -5 C217 -5 250 1 284 14 L264 73 C237 63 211 59 181 59 C108 59 82 101 82 187 C82 237 89 298 100 376 C132 596 151 682 257 682 C298 682 328 673 352 663 L378 725 C347 738 313 748 257 748 C103 748 67 634 31 379 C20 299 12 236 12 184 C12 89 39 26 109 4 L89 -62 L105 -77 C132 -75 152 -79 152 -105 C152 -148 136 -158 106 -158 C82 -158 66 -151 51 -143 L28 -182 C47 -193 72 -202 107 -202 L107 -202 Z " />
<glyph glyph-name="Egrave" unicode="&#xc8;" horiz-adv-x="362" d="M-2 0 L277 0 L285 63 L74 63 L115 349 L317 349 L326 413 L124 413 L161 677 L372 677 L381 741 L102 741 L-2 0 Z M225 781 L284 781 L223 923 L148 923 L225 781 Z " />
<glyph glyph-name="Eacute" unicode="&#xc9;" horiz-adv-x="362" d="M191 781 L250 781 L367 923 L291 923 L191 781 Z M-2 0 L277 0 L285 63 L74 63 L115 349 L317 349 L326 413 L124 413 L161 677 L372 677 L381 741 L102 741 L-2 0 Z " />
<glyph glyph-name="Ecircumflex" unicode="&#xca;" horiz-adv-x="362" d="M117 781 L177 781 L253 875 L301 781 L359 781 L291 923 L226 923 L117 781 Z M-2 0 L277 0 L285 63 L74 63 L115 349 L317 349 L326 413 L124 413 L161 677 L372 677 L381 741 L102 741 L-2 0 Z " />
<glyph glyph-name="Edieresis" unicode="&#xcb;" horiz-adv-x="362" d="M143 781 L202 781 L215 871 L156 871 L143 781 Z M276 781 L334 781 L347 871 L288 871 L276 781 Z M-2 0 L277 0 L285 63 L74 63 L115 349 L317 349 L326 413 L124 413 L161 677 L372 677 L381 741 L102 741 L-2 0 Z " />
<glyph glyph-name="Igrave" unicode="&#xcc;" horiz-adv-x="177" d="M114 781 L173 781 L132 924 L57 924 L114 781 Z M3 0 L71 0 L175 741 L107 741 L3 0 Z " />
<glyph glyph-name="Iacute" unicode="&#xcd;" horiz-adv-x="177" d="M115 781 L175 781 L276 924 L200 924 L115 781 Z M3 0 L71 0 L175 741 L107 741 L3 0 Z " />
<glyph glyph-name="Icircumflex" unicode="&#xce;" horiz-adv-x="177" d="M3 0 L71 0 L175 741 L107 741 L3 0 Z M25 781 L85 781 L161 875 L209 781 L267 781 L199 923 L134 923 L25 781 Z " />
<glyph glyph-name="Idieresis" unicode="&#xcf;" horiz-adv-x="177" d="M3 0 L71 0 L175 741 L107 741 L3 0 Z M51 781 L110 781 L123 871 L64 871 L51 781 Z M184 781 L242 781 L255 871 L196 871 L184 781 Z " />
<glyph glyph-name="Eth" unicode="&#xd0;" horiz-adv-x="425" d="M0 350 L46 350 L-3 0 L158 0 C338 0 361 113 396 357 C406 434 415 499 415 552 C415 678 369 741 215 741 L102 741 L55 409 L9 409 L0 350 Z M74 60 L115 350 L206 350 L215 409 L123 409 L161 678 L213 678 C314 678 345 642 345 547 C345 500 337 440 326 362 C293 121 275 60 157 60 L74 60 Z " />
<glyph glyph-name="Ntilde" unicode="&#xd1;" horiz-adv-x="429" d="M-3 0 L61 0 L144 589 L166 477 L266 0 L328 0 L432 741 L369 741 L289 171 L269 276 L173 741 L101 741 L-3 0 Z M203 779 C210 804 217 812 235 812 C256 812 286 781 320 781 C367 781 387 807 400 861 L348 870 C342 845 335 837 316 837 C295 837 264 868 232 868 C182 868 163 841 151 788 L203 779 Z " />
<glyph glyph-name="Ograve" unicode="&#xd2;" horiz-adv-x="443" d="M184 -5 C347 -5 380 121 413 357 C423 431 433 507 433 561 C433 678 392 748 265 748 C99 748 66 630 32 384 C21 307 12 241 12 187 C12 66 54 -5 184 -5 L184 -5 Z M187 58 C107 58 81 99 81 189 C81 238 89 300 100 378 C132 602 152 683 260 683 C338 683 364 642 364 555 C364 506 356 442 344 361 C313 138 295 58 187 58 L187 58 Z M265 781 L324 781 L263 923 L188 923 L265 781 Z " />
<glyph glyph-name="Oacute" unicode="&#xd3;" horiz-adv-x="443" d="M231 781 L290 781 L407 923 L331 923 L231 781 Z M184 -5 C347 -5 380 121 413 357 C423 431 433 507 433 561 C433 678 392 748 265 748 C99 748 66 630 32 384 C21 307 12 241 12 187 C12 66 54 -5 184 -5 L184 -5 Z M187 58 C107 58 81 99 81 189 C81 238 89 300 100 378 C132 602 152 683 260 683 C338 683 364 642 364 555 C364 506 356 442 344 361 C313 138 295 58 187 58 L187 58 Z " />
<glyph glyph-name="Ocircumflex" unicode="&#xd4;" horiz-adv-x="443" d="M157 781 L217 781 L293 875 L341 781 L399 781 L331 923 L266 923 L157 781 Z M184 -5 C347 -5 380 121 413 357 C423 431 433 507 433 561 C433 678 392 748 265 748 C99 748 66 630 32 384 C21 307 12 241 12 187 C12 66 54 -5 184 -5 L184 -5 Z M187 58 C107 58 81 99 81 189 C81 238 89 300 100 378 C132 602 152 683 260 683 C338 683 364 642 364 555 C364 506 356 442 344 361 C313 138 295 58 187 58 L187 58 Z " />
<glyph glyph-name="Otilde" unicode="&#xd5;" horiz-adv-x="443" d="M184 -5 C347 -5 380 121 413 357 C423 431 433 507 433 561 C433 678 392 748 265 748 C99 748 66 630 32 384 C21 307 12 241 12 187 C12 66 54 -5 184 -5 L184 -5 Z M187 58 C107 58 81 99 81 189 C81 238 89 300 100 378 C132 602 152 683 260 683 C338 683 364 642 364 555 C364 506 356 442 344 361 C313 138 295 58 187 58 L187 58 Z M210 779 C217 804 224 812 242 812 C263 812 293 781 327 781 C374 781 394 807 407 861 L355 870 C349 845 342 837 323 837 C302 837 271 868 239 868 C189 868 170 841 158 788 L210 779 Z " />
<glyph glyph-name="Odieresis" unicode="&#xd6;" horiz-adv-x="443" d="M183 781 L242 781 L255 871 L196 871 L183 781 Z M316 781 L374 781 L387 871 L328 871 L316 781 Z M184 -5 C347 -5 380 121 413 357 C423 431 433 507 433 561 C433 678 392 748 265 748 C99 748 66 630 32 384 C21 307 12 241 12 187 C12 66 54 -5 184 -5 L184 -5 Z M187 58 C107 58 81 99 81 189 C81 238 89 300 100 378 C132 602 152 683 260 683 C338 683 364 642 364 555 C364 506 356 442 344 361 C313 138 295 58 187 58 L187 58 Z " />
<glyph glyph-name="multiply" unicode="&#xd7;" horiz-adv-x="410" d="M101 244 L199 330 L274 243 L315 279 L240 366 L342 455 L308 493 L207 405 L133 492 L93 456 L166 369 L66 281 L101 244 Z " />
<glyph glyph-name="Oslash" unicode="&#xd8;" horiz-adv-x="443" d="M184 -5 C347 -5 380 121 413 357 C423 431 433 507 433 561 C433 627 420 678 386 710 L414 783 L343 783 L327 741 C309 745 288 748 265 748 C99 748 66 630 32 384 C21 307 12 241 12 187 C12 120 25 68 58 35 L29 -41 L100 -41 L117 3 C136 -2 158 -5 184 -5 L184 -5 Z M186 54 C166 54 149 56 135 62 L353 635 C361 615 365 589 365 557 C365 508 357 442 345 361 C314 134 295 54 186 54 L186 54 Z M80 187 C80 235 88 299 99 378 C131 606 152 686 262 686 C280 686 295 683 307 679 L90 109 C83 129 80 155 80 187 L80 187 Z " />
<glyph glyph-name="Ugrave" unicode="&#xd9;" horiz-adv-x="433" d="M177 -7 C310 -7 344 65 365 209 L440 741 L373 741 L299 217 C284 105 259 57 178 57 C77 57 81 131 92 211 L167 741 L98 741 L23 209 C7 88 19 -7 177 -7 L177 -7 Z M260 781 L319 781 L258 923 L183 923 L260 781 Z " />
<glyph glyph-name="Uacute" unicode="&#xda;" horiz-adv-x="433" d="M226 781 L285 781 L402 923 L326 923 L226 781 Z M177 -7 C310 -7 344 65 365 209 L440 741 L373 741 L299 217 C284 105 259 57 178 57 C77 57 81 131 92 211 L167 741 L98 741 L23 209 C7 88 19 -7 177 -7 L177 -7 Z " />
<glyph glyph-name="Ucircumflex" unicode="&#xdb;" horiz-adv-x="433" d="M152 781 L212 781 L288 875 L336 781 L394 781 L326 923 L261 923 L152 781 Z M177 -7 C310 -7 344 65 365 209 L440 741 L373 741 L299 217 C284 105 259 57 178 57 C77 57 81 131 92 211 L167 741 L98 741 L23 209 C7 88 19 -7 177 -7 L177 -7 Z " />
<glyph glyph-name="Udieresis" unicode="&#xdc;" horiz-adv-x="433" d="M178 781 L237 781 L250 871 L191 871 L178 781 Z M311 781 L369 781 L382 871 L323 871 L311 781 Z M177 -7 C310 -7 344 65 365 209 L440 741 L373 741 L299 217 C284 105 259 57 178 57 C77 57 81 131 92 211 L167 741 L98 741 L23 209 C7 88 19 -7 177 -7 L177 -7 Z " />
<glyph glyph-name="Yacute" unicode="&#xdd;" horiz-adv-x="394" d="M110 0 L178 0 L217 268 L439 741 L369 741 L195 361 L130 741 L60 741 L148 265 L110 0 Z M207 781 L266 781 L383 923 L307 923 L207 781 Z " />
<glyph glyph-name="Thorn" unicode="&#xde;" horiz-adv-x="404" d="M-2 0 L65 0 L89 168 L190 168 C310 168 356 218 379 380 C384 413 386 441 386 465 C386 564 344 609 216 609 L151 609 L169 741 L102 741 L-2 0 Z M97 229 L142 548 L212 548 C292 548 319 522 319 456 C319 437 317 413 313 384 C295 261 267 229 191 229 L97 229 Z " />
<glyph glyph-name="germandbls" unicode="&#xdf;" horiz-adv-x="377" d="M-31 -152 L36 -152 L140 592 C148 645 159 705 231 705 C288 705 304 677 304 627 C304 607 302 582 297 555 C285 467 273 424 205 424 L188 424 L180 367 L187 367 C251 367 274 348 274 283 C274 263 272 239 268 209 C249 84 217 60 158 60 L112 60 L106 0 L159 0 C254 0 307 30 330 199 C335 236 339 267 339 294 C339 352 325 386 284 402 C336 423 345 473 359 563 C364 592 366 620 366 644 C366 722 336 767 233 767 C118 767 88 688 75 598 L-31 -152 Z " />
<glyph glyph-name="agrave" unicode="&#xe0;" horiz-adv-x="361" d="M103 -4 C152 -4 187 10 209 33 C212 13 222 -1 263 -1 C268 -1 283 -1 287 0 L295 60 C260 60 263 76 267 109 L306 383 C319 478 313 557 194 557 C147 557 106 551 79 541 L99 481 C123 489 153 494 183 494 C255 494 246 427 239 376 L222 376 C79 376 22 348 -1 189 C-5 161 -7 136 -7 114 C-6 40 22 -4 103 -4 L103 -4 Z M115 54 C71 54 58 80 58 123 C58 141 61 164 64 190 C81 304 114 317 231 317 L211 175 C201 108 184 54 115 54 L115 54 Z M200 606 L259 606 L198 748 L123 748 L200 606 Z " />
<glyph glyph-name="aacute" unicode="&#xe1;" horiz-adv-x="361" d="M103 -4 C152 -4 187 10 209 33 C212 13 222 -1 263 -1 C268 -1 283 -1 287 0 L295 60 C260 60 263 76 267 109 L306 383 C319 478 313 557 194 557 C147 557 106 551 79 541 L99 481 C123 489 153 494 183 494 C255 494 246 427 239 376 L222 376 C79 376 22 348 -1 189 C-5 161 -7 136 -7 114 C-6 40 22 -4 103 -4 L103 -4 Z M115 54 C71 54 58 80 58 123 C58 141 61 164 64 190 C81 304 114 317 231 317 L211 175 C201 108 184 54 115 54 L115 54 Z M166 606 L225 606 L342 748 L266 748 L166 606 Z " />
<glyph glyph-name="acircumflex" unicode="&#xe2;" horiz-adv-x="361" d="M103 -4 C152 -4 187 10 209 33 C212 13 222 -1 263 -1 C268 -1 283 -1 287 0 L295 60 C260 60 263 76 267 109 L306 383 C319 478 313 557 194 557 C147 557 106 551 79 541 L99 481 C123 489 153 494 183 494 C255 494 246 427 239 376 L222 376 C79 376 22 348 -1 189 C-5 161 -7 136 -7 114 C-6 40 22 -4 103 -4 L103 -4 Z M115 54 C71 54 58 80 58 123 C58 141 61 164 64 190 C81 304 114 317 231 317 L211 175 C201 108 184 54 115 54 L115 54 Z M92 606 L152 606 L228 700 L276 606 L334 606 L266 748 L201 748 L92 606 Z " />
<glyph glyph-name="atilde" unicode="&#xe3;" horiz-adv-x="361" d="M103 -4 C152 -4 187 10 209 33 C212 13 222 -1 263 -1 C268 -1 283 -1 287 0 L295 60 C260 60 263 76 267 109 L306 383 C319 478 313 557 194 557 C147 557 106 551 79 541 L99 481 C123 489 153 494 183 494 C255 494 246 427 239 376 L222 376 C79 376 22 348 -1 189 C-5 161 -7 136 -7 114 C-6 40 22 -4 103 -4 L103 -4 Z M115 54 C71 54 58 80 58 123 C58 141 61 164 64 190 C81 304 114 317 231 317 L211 175 C201 108 184 54 115 54 L115 54 Z M145 604 C152 629 159 637 177 637 C198 637 228 606 262 606 C309 606 329 632 342 686 L290 695 C284 670 277 662 258 662 C237 662 206 693 174 693 C124 693 105 666 93 613 L145 604 Z " />
<glyph glyph-name="adieresis" unicode="&#xe4;" horiz-adv-x="361" d="M103 -4 C152 -4 187 10 209 33 C212 13 222 -1 263 -1 C268 -1 283 -1 287 0 L295 60 C260 60 263 76 267 109 L306 383 C319 478 313 557 194 557 C147 557 106 551 79 541 L99 481 C123 489 153 494 183 494 C255 494 246 427 239 376 L222 376 C79 376 22 348 -1 189 C-5 161 -7 136 -7 114 C-6 40 22 -4 103 -4 L103 -4 Z M115 54 C71 54 58 80 58 123 C58 141 61 164 64 190 C81 304 114 317 231 317 L211 175 C201 108 184 54 115 54 L115 54 Z M118 606 L177 606 L190 696 L131 696 L118 606 Z M251 606 L309 606 L322 696 L263 696 L251 606 Z " />
<glyph glyph-name="aring" unicode="&#xe5;" horiz-adv-x="361" d="M103 -4 C152 -4 187 10 209 33 C212 13 222 -1 263 -1 C268 -1 283 -1 287 0 L295 60 C260 60 263 76 267 109 L306 383 C319 478 313 557 194 557 C147 557 106 551 79 541 L99 481 C123 489 153 494 183 494 C255 494 246 427 239 376 L222 376 C79 376 22 348 -1 189 C-5 161 -7 136 -7 114 C-6 40 22 -4 103 -4 L103 -4 Z M115 54 C71 54 58 80 58 123 C58 141 61 164 64 190 C81 304 114 317 231 317 L211 175 C201 108 184 54 115 54 L115 54 Z M218 603 C280 603 297 640 304 697 C306 709 307 720 307 732 C307 775 292 805 234 805 C174 805 157 767 149 709 C148 698 147 688 147 676 C147 633 162 603 218 603 L218 603 Z M220 641 C195 641 186 655 186 678 C186 687 187 696 188 705 C193 743 200 767 233 767 C259 767 267 752 267 729 C267 721 266 711 265 700 C260 664 253 641 220 641 L220 641 Z " />
<glyph glyph-name="ae" unicode="&#xe6;" horiz-adv-x="544" d="M346 -5 C390 -5 424 0 465 13 L446 69 C414 58 384 54 353 54 C295 54 277 90 277 150 C277 175 280 208 284 247 L503 247 C516 327 523 384 523 427 C523 514 489 557 404 557 C353 557 319 540 295 507 C282 538 252 557 194 557 C147 557 106 551 79 541 L99 481 C123 489 153 494 183 494 C255 494 246 426 239 375 L222 375 C79 375 23 348 0 188 C-4 160 -7 136 -7 114 C-6 40 22 -4 103 -4 C161 -4 199 11 232 64 C248 22 282 -5 346 -5 L346 -5 Z M115 54 C71 54 58 80 58 123 C58 141 61 164 64 190 C80 303 114 317 231 317 L215 205 C203 119 190 54 115 54 L115 54 Z M401 496 C443 496 461 474 461 421 C461 393 456 359 449 308 L293 308 C311 427 327 496 401 496 L401 496 Z " />
<glyph glyph-name="ccedilla" unicode="&#xe7;" horiz-adv-x="269" d="M68 -202 C122 -202 159 -184 159 -102 C159 -59 134 -46 97 -48 L111 -3 C116 -4 122 -4 128 -4 C155 -4 178 -2 202 5 L188 62 C172 57 154 55 137 55 C87 55 69 91 69 151 C69 185 75 229 82 281 C101 416 115 493 192 493 C215 493 232 489 247 483 L274 543 C254 551 228 557 191 557 C69 557 38 455 14 288 C7 234 2 188 2 149 C2 81 20 28 70 6 L50 -62 L66 -77 C93 -75 113 -79 113 -105 C113 -148 97 -158 67 -158 C43 -158 27 -151 12 -143 L-11 -182 C8 -193 33 -202 68 -202 L68 -202 Z " />
<glyph glyph-name="egrave" unicode="&#xe8;" horiz-adv-x="333" d="M135 -5 C179 -5 212 0 254 13 L235 68 C203 58 173 54 142 54 C84 54 66 90 66 150 C66 175 69 208 73 247 L291 247 C304 327 311 384 311 427 C311 514 278 557 192 557 C70 557 39 458 14 288 C7 235 2 189 2 150 C2 60 35 -5 135 -5 L135 -5 Z M190 496 C232 496 249 474 249 421 C249 393 245 361 238 308 L82 308 C100 427 116 496 190 496 L190 496 Z M187 606 L246 606 L185 748 L110 748 L187 606 Z " />
<glyph glyph-name="eacute" unicode="&#xe9;" horiz-adv-x="333" d="M153 606 L212 606 L329 748 L253 748 L153 606 Z M135 -5 C179 -5 212 0 254 13 L235 68 C203 58 173 54 142 54 C84 54 66 90 66 150 C66 175 69 208 73 247 L291 247 C304 327 311 384 311 427 C311 514 278 557 192 557 C70 557 39 458 14 288 C7 235 2 189 2 150 C2 60 35 -5 135 -5 L135 -5 Z M190 496 C232 496 249 474 249 421 C249 393 245 361 238 308 L82 308 C100 427 116 496 190 496 L190 496 Z " />
<glyph glyph-name="ecircumflex" unicode="&#xea;" horiz-adv-x="333" d="M79 606 L139 606 L215 700 L263 606 L321 606 L253 748 L188 748 L79 606 Z M135 -5 C179 -5 212 0 254 13 L235 68 C203 58 173 54 142 54 C84 54 66 90 66 150 C66 175 69 208 73 247 L291 247 C304 327 311 384 311 427 C311 514 278 557 192 557 C70 557 39 458 14 288 C7 235 2 189 2 150 C2 60 35 -5 135 -5 L135 -5 Z M190 496 C232 496 249 474 249 421 C249 393 245 361 238 308 L82 308 C100 427 116 496 190 496 L190 496 Z " />
<glyph glyph-name="edieresis" unicode="&#xeb;" horiz-adv-x="333" d="M105 606 L164 606 L177 696 L118 696 L105 606 Z M238 606 L296 606 L309 696 L250 696 L238 606 Z M135 -5 C179 -5 212 0 254 13 L235 68 C203 58 173 54 142 54 C84 54 66 90 66 150 C66 175 69 208 73 247 L291 247 C304 327 311 384 311 427 C311 514 278 557 192 557 C70 557 39 458 14 288 C7 235 2 189 2 150 C2 60 35 -5 135 -5 L135 -5 Z M190 496 C232 496 249 474 249 421 C249 393 245 361 238 308 L82 308 C100 427 116 496 190 496 L190 496 Z " />
<glyph glyph-name="igrave" unicode="&#xec;" horiz-adv-x="158" d="M82 606 L141 606 L107 748 L35 748 L82 606 Z M-6 0 L60 0 L138 551 L72 551 L-6 0 Z " />
<glyph glyph-name="iacute" unicode="&#xed;" horiz-adv-x="158" d="M82 606 L142 606 L235 748 L162 748 L82 606 Z M-6 0 L60 0 L138 551 L72 551 L-6 0 Z " />
<glyph glyph-name="icircumflex" unicode="&#xee;" horiz-adv-x="158" d="M-1 606 L59 606 L126 700 L166 606 L225 606 L164 748 L99 748 L-1 606 Z M-6 0 L60 0 L138 551 L72 551 L-6 0 Z " />
<glyph glyph-name="idieresis" unicode="&#xef;" horiz-adv-x="158" d="M19 606 L79 606 L91 696 L32 696 L19 606 Z M144 606 L204 606 L216 696 L157 696 L144 606 Z M-6 0 L60 0 L138 551 L72 551 L-6 0 Z " />
<glyph glyph-name="eth" unicode="&#xf0;" horiz-adv-x="365" d="M181 609 L260 630 C271 590 277 551 279 522 C263 543 237 556 186 556 C66 556 37 453 15 287 C7 234 2 189 2 149 C2 54 35 -5 143 -5 C267 -5 299 82 326 268 C336 346 343 403 343 472 C343 533 335 592 321 647 L380 663 L388 719 L305 696 C296 721 286 745 274 768 L218 747 C228 725 237 703 245 680 L188 665 L181 609 Z M144 55 C85 55 68 89 68 151 C68 185 73 228 80 279 C101 426 115 494 195 494 C254 494 271 460 271 398 C271 364 266 318 258 266 C238 120 224 55 144 55 L144 55 Z " />
<glyph glyph-name="ntilde" unicode="&#xf1;" horiz-adv-x="375" d="M-9 0 L56 0 L107 357 C123 469 151 494 208 494 C289 494 276 430 267 365 L217 0 L283 0 L337 382 C348 465 358 557 230 557 C183 557 143 547 121 520 L123 550 L67 547 L-9 0 Z M152 604 C159 629 166 637 184 637 C205 637 235 606 269 606 C316 606 336 632 349 686 L297 695 C291 670 284 662 265 662 C244 662 213 693 181 693 C131 693 112 666 100 613 L152 604 Z " />
<glyph glyph-name="ograve" unicode="&#xf2;" horiz-adv-x="365" d="M140 -5 C272 -5 301 92 325 264 C333 316 338 363 338 403 C338 495 306 557 198 557 C68 557 39 460 14 288 C7 236 2 191 2 151 C2 58 33 -5 140 -5 L140 -5 Z M144 55 C86 55 68 89 68 152 C68 186 73 229 80 281 C101 429 116 494 195 494 C254 494 271 460 271 397 C271 364 266 320 258 268 C238 120 224 55 144 55 L144 55 Z M202 606 L261 606 L200 748 L125 748 L202 606 Z " />
<glyph glyph-name="oacute" unicode="&#xf3;" horiz-adv-x="365" d="M168 606 L227 606 L344 748 L268 748 L168 606 Z M140 -5 C272 -5 301 92 325 264 C333 316 338 363 338 403 C338 495 306 557 198 557 C68 557 39 460 14 288 C7 236 2 191 2 151 C2 58 33 -5 140 -5 L140 -5 Z M144 55 C86 55 68 89 68 152 C68 186 73 229 80 281 C101 429 116 494 195 494 C254 494 271 460 271 397 C271 364 266 320 258 268 C238 120 224 55 144 55 L144 55 Z " />
<glyph glyph-name="ocircumflex" unicode="&#xf4;" horiz-adv-x="365" d="M94 606 L154 606 L230 700 L278 606 L336 606 L268 748 L203 748 L94 606 Z M140 -5 C272 -5 301 92 325 264 C333 316 338 363 338 403 C338 495 306 557 198 557 C68 557 39 460 14 288 C7 236 2 191 2 151 C2 58 33 -5 140 -5 L140 -5 Z M144 55 C86 55 68 89 68 152 C68 186 73 229 80 281 C101 429 116 494 195 494 C254 494 271 460 271 397 C271 364 266 320 258 268 C238 120 224 55 144 55 L144 55 Z " />
<glyph glyph-name="otilde" unicode="&#xf5;" horiz-adv-x="365" d="M140 -5 C272 -5 301 92 325 264 C333 316 338 363 338 403 C338 495 306 557 198 557 C68 557 39 460 14 288 C7 236 2 191 2 151 C2 58 33 -5 140 -5 L140 -5 Z M144 55 C86 55 68 89 68 152 C68 186 73 229 80 281 C101 429 116 494 195 494 C254 494 271 460 271 397 C271 364 266 320 258 268 C238 120 224 55 144 55 L144 55 Z M147 604 C154 629 161 637 179 637 C200 637 230 606 264 606 C311 606 331 632 344 686 L292 695 C286 670 279 662 260 662 C239 662 208 693 176 693 C126 693 107 666 95 613 L147 604 Z " />
<glyph glyph-name="odieresis" unicode="&#xf6;" horiz-adv-x="365" d="M120 606 L179 606 L192 696 L133 696 L120 606 Z M253 606 L311 606 L324 696 L265 696 L253 606 Z M140 -5 C272 -5 301 92 325 264 C333 316 338 363 338 403 C338 495 306 557 198 557 C68 557 39 460 14 288 C7 236 2 191 2 151 C2 58 33 -5 140 -5 L140 -5 Z M144 55 C86 55 68 89 68 152 C68 186 73 229 80 281 C101 429 116 494 195 494 C254 494 271 460 271 397 C271 364 266 320 258 268 C238 120 224 55 144 55 L144 55 Z " />
<glyph glyph-name="divide" unicode="&#xf7;" horiz-adv-x="410" d="M144 179 L214 179 L224 258 L155 258 L144 179 Z M56 336 L344 336 L353 400 L66 400 L56 336 Z M186 475 L255 475 L266 554 L197 554 L186 475 Z " />
<glyph glyph-name="oslash" unicode="&#xf8;" horiz-adv-x="366" d="M140 -5 C272 -5 301 92 325 264 C333 316 338 363 338 403 C338 448 330 486 309 513 L346 592 L281 592 L260 548 C243 554 222 557 198 557 C68 557 39 460 14 288 C7 236 2 191 2 151 C2 105 9 67 30 39 L-6 -41 L59 -41 L79 4 C96 -2 116 -5 140 -5 L140 -5 Z M66 150 C66 184 71 229 79 281 C100 431 115 496 196 496 C213 496 226 493 237 487 L68 116 C67 126 66 137 66 150 L66 150 Z M143 53 C126 53 112 56 101 61 L270 431 C272 421 273 411 273 399 C273 365 267 320 261 268 C239 118 224 53 143 53 L143 53 Z " />
<glyph glyph-name="ugrave" unicode="&#xf9;" horiz-adv-x="369" d="M143 -5 C247 -5 285 55 300 157 L354 551 L290 551 L236 169 C225 93 206 55 143 55 C71 55 70 106 78 167 L132 551 L66 551 L12 170 C-3 69 18 -5 143 -5 L143 -5 Z M204 606 L263 606 L202 748 L127 748 L204 606 Z " />
<glyph glyph-name="uacute" unicode="&#xfa;" horiz-adv-x="369" d="M170 606 L229 606 L346 748 L270 748 L170 606 Z M143 -5 C247 -5 285 55 300 157 L354 551 L290 551 L236 169 C225 93 206 55 143 55 C71 55 70 106 78 167 L132 551 L66 551 L12 170 C-3 69 18 -5 143 -5 L143 -5 Z " />
<glyph glyph-name="ucircumflex" unicode="&#xfb;" horiz-adv-x="369" d="M96 606 L156 606 L232 700 L280 606 L338 606 L270 748 L205 748 L96 606 Z M143 -5 C247 -5 285 55 300 157 L354 551 L290 551 L236 169 C225 93 206 55 143 55 C71 55 70 106 78 167 L132 551 L66 551 L12 170 C-3 69 18 -5 143 -5 L143 -5 Z " />
<glyph glyph-name="udieresis" unicode="&#xfc;" horiz-adv-x="369" d="M122 606 L181 606 L194 696 L135 696 L122 606 Z M255 606 L313 606 L326 696 L267 696 L255 606 Z M143 -5 C247 -5 285 55 300 157 L354 551 L290 551 L236 169 C225 93 206 55 143 55 C71 55 70 106 78 167 L132 551 L66 551 L12 170 C-3 69 18 -5 143 -5 L143 -5 Z " />
<glyph glyph-name="yacute" unicode="&#xfd;" horiz-adv-x="319" d="M0 -153 C65 -153 89 -134 111 -74 L337 551 L272 551 L164 238 L126 124 L120 241 L98 551 L32 551 L76 0 L53 -64 C45 -86 37 -92 3 -93 L-24 -93 L-32 -152 C-28 -153 -8 -153 0 -153 L0 -153 Z M146 606 L205 606 L322 748 L246 748 L146 606 Z " />
<glyph glyph-name="thorn" unicode="&#xfe;" horiz-adv-x="376" d="M-31 -152 L36 -152 L63 43 C77 12 112 -4 177 -4 C292 -4 313 109 335 266 C343 318 350 370 350 414 C350 498 325 557 232 557 C186 557 153 545 129 518 L164 763 L98 763 L-31 -152 Z M161 57 C102 57 83 89 83 152 C83 186 88 225 96 278 C118 435 133 494 212 494 C265 494 282 458 282 398 C282 362 275 317 268 268 C251 136 235 57 161 57 L161 57 Z " />
<glyph glyph-name="ydieresis" unicode="&#xff;" horiz-adv-x="319" d="M0 -153 C65 -153 89 -134 111 -74 L337 551 L272 551 L164 238 L126 124 L120 241 L98 551 L32 551 L76 0 L53 -64 C45 -86 37 -92 3 -93 L-24 -93 L-32 -152 C-28 -153 -8 -153 0 -153 L0 -153 Z M98 606 L157 606 L170 696 L111 696 L98 606 Z M231 606 L289 606 L302 696 L243 696 L231 606 Z " />
<glyph glyph-name="dotlessi" unicode="&#x131;" horiz-adv-x="158" d="M-6 0 L60 0 L138 551 L72 551 L-6 0 Z " />
<glyph glyph-name="Lslash" unicode="&#x141;" horiz-adv-x="336" d="M-5 311 L44 328 L-2 0 L273 0 L281 63 L74 63 L115 354 L220 392 L229 452 L123 413 L170 741 L102 741 L52 388 L3 370 L-5 311 Z " />
<glyph glyph-name="lslash" unicode="&#x142;" horiz-adv-x="227" d="M10 431 L79 468 L29 112 C19 31 30 -1 116 -1 C120 -1 127 -1 130 0 L138 60 L131 60 C91 60 89 69 96 113 L151 506 L238 552 L247 613 L159 566 L187 763 L121 763 L88 528 L18 491 L10 431 Z " />
<glyph glyph-name="OE" unicode="&#x152;" horiz-adv-x="655" d="M294 0 L569 0 L578 63 L367 63 L407 349 L609 349 L619 413 L416 413 L454 677 L665 677 L673 741 L398 741 L392 700 C368 732 329 748 265 748 C99 748 66 630 32 384 C21 307 12 241 12 187 C12 66 54 -5 184 -5 C233 -5 270 6 298 28 L294 0 Z M187 58 C107 58 81 99 81 189 C81 238 89 300 100 378 C132 602 152 683 260 683 C338 683 364 642 364 555 C364 506 356 442 344 361 C313 138 295 58 187 58 L187 58 Z " />
<glyph glyph-name="oe" unicode="&#x153;" horiz-adv-x="577" d="M379 -5 C423 -5 456 0 498 13 L479 68 C447 58 417 54 386 54 C328 54 309 90 309 150 C309 175 312 208 317 247 L536 247 C548 327 555 384 555 427 C555 514 522 557 436 557 C377 557 341 534 317 492 C300 532 265 557 198 557 C68 557 39 460 14 288 C7 236 2 191 2 151 C2 58 33 -5 140 -5 C204 -5 242 17 267 60 C283 20 317 -5 379 -5 L379 -5 Z M144 55 C86 55 68 89 68 152 C68 186 73 229 80 281 C101 429 116 494 195 494 C254 494 271 460 271 397 C271 364 266 320 258 268 C238 120 224 55 144 55 L144 55 Z M434 496 C476 496 493 474 493 421 C493 393 489 359 482 308 L326 308 C344 427 360 496 434 496 L434 496 Z " />
<glyph glyph-name="Scaron" unicode="&#x160;" horiz-adv-x="353" d="M201 781 L266 781 L375 923 L315 923 L240 828 L191 923 L132 923 L201 781 Z M120 -5 C223 -5 294 59 294 171 C294 231 269 281 207 406 C154 513 138 547 138 584 C138 645 176 682 230 682 C274 682 307 674 330 663 L358 724 C323 740 288 747 231 747 C128 747 68 682 68 582 C68 527 92 483 147 373 C209 248 226 210 226 171 C226 92 176 58 122 58 C68 58 33 71 4 87 L-31 31 C4 12 47 -5 120 -5 L120 -5 Z " />
<glyph glyph-name="scaron" unicode="&#x161;" horiz-adv-x="293" d="M148 606 L213 606 L322 748 L262 748 L187 653 L138 748 L79 748 L148 606 Z M99 -5 C176 -5 232 36 232 127 C232 171 213 210 162 304 C123 376 112 405 112 430 C112 472 138 495 177 495 C205 495 233 489 254 480 L277 541 C249 552 214 558 181 558 C96 558 47 509 47 429 C47 390 64 347 107 269 C155 182 167 153 167 125 C167 73 134 54 102 54 C56 54 23 67 0 78 L-26 22 C8 5 44 -5 99 -5 L99 -5 Z " />
<glyph glyph-name="Ydieresis" unicode="&#x178;" horiz-adv-x="394" d="M110 0 L178 0 L217 268 L439 741 L369 741 L195 361 L130 741 L60 741 L148 265 L110 0 Z M159 781 L218 781 L231 871 L172 871 L159 781 Z M292 781 L350 781 L363 871 L304 871 L292 781 Z " />
<glyph glyph-name="Zcaron" unicode="&#x17d;" horiz-adv-x="369" d="M209 781 L274 781 L383 923 L323 923 L248 828 L199 923 L140 923 L209 781 Z M-27 0 L292 0 L301 63 L59 63 L381 683 L389 741 L88 741 L78 677 L303 677 L-19 55 L-27 0 Z " />
<glyph glyph-name="zcaron" unicode="&#x17e;" horiz-adv-x="284" d="M143 606 L208 606 L317 748 L257 748 L182 653 L133 748 L74 748 L143 606 Z M-36 0 L215 0 L223 57 L49 57 L282 503 L288 551 L53 551 L45 491 L202 491 L-29 48 L-36 0 Z " />
<glyph glyph-name="florin" unicode="&#x192;" horiz-adv-x="337" d="M29 385 L103 385 L28 -152 L94 -152 L169 385 L275 385 L283 443 L177 443 L200 603 C206 652 211 680 255 680 L281 680 L290 740 C286 740 258 741 252 741 C164 741 147 696 136 615 L111 443 L36 443 L29 385 Z " />
<glyph glyph-name="circumflex" unicode="&#x2c6;" horiz-adv-x="345" d="M84 606 L144 606 L220 700 L268 606 L326 606 L258 748 L193 748 L84 606 Z " />
<glyph glyph-name="caron" unicode="&#x2c7;" horiz-adv-x="345" d="M173 606 L238 606 L347 748 L287 748 L212 653 L163 748 L104 748 L173 606 Z " />
<glyph glyph-name="breve" unicode="&#x2d8;" horiz-adv-x="345" d="M213 602 C289 602 319 644 332 720 L281 725 C271 678 259 654 214 654 C165 654 160 693 161 725 L110 720 C108 658 121 602 213 602 L213 602 Z " />
<glyph glyph-name="dotaccent" unicode="&#x2d9;" horiz-adv-x="345" d="M172 606 L239 606 L252 709 L186 709 L172 606 Z " />
<glyph glyph-name="ring" unicode="&#x2da;" horiz-adv-x="345" d="M210 603 C272 603 289 640 296 697 C298 709 299 720 299 732 C299 775 284 805 226 805 C166 805 149 767 141 709 C140 698 139 688 139 676 C139 633 154 603 210 603 L210 603 Z M212 641 C187 641 178 655 178 678 C178 687 179 696 180 705 C185 743 192 767 225 767 C251 767 259 752 259 729 C259 721 258 711 257 700 C252 664 245 641 212 641 L212 641 Z " />
<glyph glyph-name="ogonek" unicode="&#x2db;" horiz-adv-x="349" d="M113 -195 L145 -195 L152 -148 L117 -148 C95 -148 84 -138 84 -117 C84 -74 121 -35 163 10 L109 10 C76 -23 29 -64 29 -128 C29 -170 53 -195 113 -195 L113 -195 Z " />
<glyph glyph-name="tilde" unicode="&#x2dc;" horiz-adv-x="345" d="M137 604 C144 629 151 637 169 637 C190 637 220 606 254 606 C301 606 321 632 334 686 L282 695 C276 670 269 662 250 662 C229 662 198 693 166 693 C116 693 97 666 85 613 L137 604 Z " />
<glyph glyph-name="hungarumlaut" unicode="&#x2dd;" horiz-adv-x="345" d="M105 606 L155 606 L253 751 L187 751 L105 606 Z M238 606 L287 606 L386 751 L320 751 L238 606 Z " />
<glyph glyph-name="&amp;#x394;" unicode="&#x394;" horiz-adv-x="385" d="M32 491 L97 491 L7 -152 L73 -152 L163 491 L240 491 L248 551 L171 551 L183 634 C191 690 203 704 249 704 L270 704 L278 763 C276 764 254 764 252 764 C164 764 130 731 119 648 L105 551 L41 551 L32 491 Z M163 -152 C245 -152 270 -133 281 -54 L366 551 L300 551 L216 -45 C210 -85 206 -92 171 -93 L163 -152 Z M309 625 L376 625 L390 726 L324 726 L309 625 Z " />
<glyph glyph-name="&amp;#x2206;" unicode="&#x2206;" horiz-adv-x="385" d="M32 491 L97 491 L7 -152 L73 -152 L163 491 L240 491 L248 551 L171 551 L183 634 C191 690 203 704 249 704 L270 704 L278 763 C276 764 254 764 252 764 C164 764 130 731 119 648 L105 551 L41 551 L32 491 Z M163 -152 C245 -152 270 -133 281 -54 L366 551 L300 551 L216 -45 C210 -85 206 -92 171 -93 L163 -152 Z M309 625 L376 625 L390 726 L324 726 L309 625 Z " />
<glyph glyph-name="&amp;#x3a9;" unicode="&#x3a9;" horiz-adv-x="832" d="M126 120 C126 120 129 123 134 127 C79 193 46 278 46 371 C46 464 79 549 133 615 C129 619 126 621 126 621 C70 554 36 466 36 371 C36 275 70 187 126 120 L126 120 Z M228 211 C230 213 233 215 235 218 C201 259 181 313 181 371 C181 429 202 483 235 524 C232 526 230 529 227 531 C192 487 171 432 171 371 C171 310 193 254 228 211 L228 211 Z M264 243 C267 245 269 248 272 250 C245 283 229 325 229 371 C229 417 245 459 272 492 C269 494 267 497 264 499 C236 464 219 419 219 371 C219 322 236 278 264 243 L264 243 Z M316 289 C319 291 321 294 324 296 C308 317 298 343 298 371 C298 399 308 425 323 445 C321 448 318 450 316 452 C298 430 288 402 288 371 C288 340 298 312 316 289 L316 289 Z M349 320 C352 323 354 325 357 327 C348 340 343 355 343 371 C343 387 348 402 357 415 C354 417 352 420 349 422 C339 408 333 390 333 371 C333 352 339 334 349 320 L349 320 Z M378 346 C382 349 384 351 384 351 C381 357 379 364 379 371 C379 378 381 385 384 391 C384 391 382 393 378 396 C374 389 371 380 371 371 C371 362 374 353 378 346 L378 346 Z M416 60 C493 60 563 89 616 136 C614 139 611 141 609 144 C558 98 490 70 416 70 C342 70 274 98 222 144 C222 145 215 137 215 137 C268 89 338 60 416 60 L416 60 Z M416 324 C426 324 435 327 442 333 C439 337 437 339 437 339 C431 334 424 332 416 332 C408 332 401 335 395 339 C395 339 391 334 389 333 C397 327 406 324 416 324 L416 324 Z M482 319 C493 334 499 352 499 371 C499 390 493 408 482 422 C483 422 475 415 475 415 C484 403 489 388 489 371 C489 355 484 339 475 326 C478 324 480 322 482 319 L482 319 Z M292 269 C295 271 298 274 300 276 C280 302 267 335 267 371 C267 407 280 440 300 466 L293 473 C270 445 257 410 257 371 C257 333 270 297 292 269 L292 269 Z M416 -17 C512 -17 600 19 667 80 C667 80 660 88 660 87 C595 29 510 -7 416 -7 C322 -7 236 29 171 88 L164 80 C231 20 320 -17 416 -17 L416 -17 Z M416 121 C478 121 534 144 576 182 C574 185 571 187 569 190 C529 153 475 131 416 131 C357 131 303 153 262 190 L255 182 C298 144 354 121 416 121 L416 121 Z M416 170 C465 170 510 188 544 218 C542 221 539 223 537 226 C505 197 462 180 416 180 C369 180 327 197 294 226 L287 219 C322 189 367 170 416 170 L416 170 Z M416 209 C455 209 491 224 518 247 C516 250 514 253 512 255 C486 233 452 219 416 219 C380 219 346 233 320 255 L313 247 C341 224 377 209 416 209 L416 209 Z M416 265 C441 265 463 274 481 289 C479 292 476 294 474 297 C458 283 438 275 416 275 C394 275 373 283 357 297 L350 289 C368 274 391 265 416 265 L416 265 Z M358 445 C374 459 394 467 416 467 C438 467 458 459 474 445 L482 453 C464 468 441 477 416 477 C391 477 368 468 350 453 C351 452 354 448 358 445 L358 445 Z M570 552 C572 554 575 557 577 560 C534 598 478 621 416 621 C355 621 299 598 256 560 L263 553 C304 589 357 611 416 611 C475 611 529 589 570 552 L570 552 Z M454 346 C458 353 461 362 461 371 C461 380 458 389 454 396 L448 391 C451 385 453 378 453 371 C453 364 451 357 448 351 C448 351 450 349 454 346 L454 346 Z M468 333 C476 344 480 357 480 371 C480 385 476 398 468 409 L460 402 C466 393 470 382 470 371 C470 360 466 349 460 340 C463 338 465 336 468 333 L468 333 Z M498 306 C511 325 519 347 519 371 C519 395 511 418 497 436 L490 429 C502 413 509 393 509 371 C509 349 502 329 490 313 C492 311 495 308 498 306 L498 306 Z M540 269 C562 297 575 332 575 371 C575 410 562 445 539 473 L531 466 C552 440 565 407 565 371 C565 335 552 302 532 276 C535 274 537 271 540 269 L540 269 Z M568 243 C596 278 613 322 613 371 C613 420 596 464 568 499 L560 492 C587 459 603 417 603 371 C603 325 587 283 560 250 C563 248 566 245 568 243 L568 243 Z M604 211 C640 254 661 310 661 371 C661 432 640 488 604 531 L596 524 C631 483 651 429 651 371 C651 313 631 260 596 218 C601 213 604 211 604 211 L604 211 Z M649 171 C694 225 721 295 721 371 C721 447 694 517 649 571 L641 564 C685 512 711 445 711 371 C711 297 685 230 642 177 C644 175 647 173 649 171 L649 171 Z M706 120 C762 188 796 276 796 371 C796 467 762 555 706 622 L698 615 C753 549 786 464 786 371 C786 278 753 193 698 127 C703 123 706 120 706 120 L706 120 Z M183 170 L190 177 C147 229 121 297 121 371 C121 444 147 512 190 564 C187 567 184 569 182 571 C138 517 111 447 111 371 C111 294 138 225 183 170 L183 170 Z M334 306 L342 314 C330 330 323 350 323 371 C323 393 330 413 342 429 C340 431 337 434 334 436 C321 418 313 395 313 371 C313 346 321 324 334 306 L334 306 Z M364 333 L371 340 C366 349 362 360 362 371 C362 382 366 393 371 402 C369 404 366 406 364 409 C356 398 352 385 352 371 C352 357 356 344 364 333 L364 333 Z M395 403 C401 408 408 410 416 410 C424 410 431 407 437 403 C437 403 439 406 442 409 C435 415 426 418 416 418 C406 418 397 415 390 409 L395 403 Z M384 416 C393 423 404 428 416 428 C428 428 439 424 448 416 C450 419 452 421 454 423 C443 432 430 437 416 437 C401 437 388 432 377 423 L384 416 Z M371 430 C383 441 399 447 416 447 C433 447 449 441 461 430 C461 430 464 434 468 438 C454 450 436 457 416 457 C397 457 378 450 364 438 L371 430 Z M295 516 C327 545 370 562 416 562 C462 562 505 545 538 516 C538 516 545 523 544 523 C510 554 465 572 416 572 C367 572 322 554 288 524 L295 516 Z M416 240 C448 240 476 252 498 271 L491 278 C471 261 445 250 416 250 C388 250 361 261 340 278 L333 270 C355 251 384 240 416 240 L416 240 Z M416 285 C436 285 454 292 468 304 L461 312 C448 301 433 295 416 295 C399 295 383 302 370 312 L363 304 C378 292 396 285 416 285 L416 285 Z M416 305 C430 305 444 310 455 319 L448 326 C439 319 428 314 416 314 C404 314 393 319 383 326 L376 319 C388 310 401 305 416 305 L416 305 Z M341 464 C362 482 388 492 416 492 C445 492 471 481 491 464 L498 472 C476 491 447 502 416 502 C385 502 356 490 334 471 L341 464 Z M320 487 C346 509 380 523 416 523 C453 523 486 510 512 487 L518 494 C491 518 455 533 416 533 C377 533 341 519 313 495 L320 487 Z M610 597 L617 605 C563 653 493 682 416 682 C339 682 269 653 215 605 L222 598 C274 644 342 672 416 672 C491 672 559 644 610 597 L610 597 Z M172 654 C237 713 322 749 416 749 C510 749 596 713 661 654 L668 662 C601 722 512 759 416 759 C320 759 232 723 165 662 L172 654 Z M516 290 C534 312 544 340 544 371 C544 402 534 430 516 453 L508 446 C524 425 534 399 534 371 C534 343 524 317 509 297 L516 290 Z " />
<glyph glyph-name="&amp;#x2126;" unicode="&#x2126;" horiz-adv-x="832" d="M126 120 C126 120 129 123 134 127 C79 193 46 278 46 371 C46 464 79 549 133 615 C129 619 126 621 126 621 C70 554 36 466 36 371 C36 275 70 187 126 120 L126 120 Z M228 211 C230 213 233 215 235 218 C201 259 181 313 181 371 C181 429 202 483 235 524 C232 526 230 529 227 531 C192 487 171 432 171 371 C171 310 193 254 228 211 L228 211 Z M264 243 C267 245 269 248 272 250 C245 283 229 325 229 371 C229 417 245 459 272 492 C269 494 267 497 264 499 C236 464 219 419 219 371 C219 322 236 278 264 243 L264 243 Z M316 289 C319 291 321 294 324 296 C308 317 298 343 298 371 C298 399 308 425 323 445 C321 448 318 450 316 452 C298 430 288 402 288 371 C288 340 298 312 316 289 L316 289 Z M349 320 C352 323 354 325 357 327 C348 340 343 355 343 371 C343 387 348 402 357 415 C354 417 352 420 349 422 C339 408 333 390 333 371 C333 352 339 334 349 320 L349 320 Z M378 346 C382 349 384 351 384 351 C381 357 379 364 379 371 C379 378 381 385 384 391 C384 391 382 393 378 396 C374 389 371 380 371 371 C371 362 374 353 378 346 L378 346 Z M416 60 C493 60 563 89 616 136 C614 139 611 141 609 144 C558 98 490 70 416 70 C342 70 274 98 222 144 C222 145 215 137 215 137 C268 89 338 60 416 60 L416 60 Z M416 324 C426 324 435 327 442 333 C439 337 437 339 437 339 C431 334 424 332 416 332 C408 332 401 335 395 339 C395 339 391 334 389 333 C397 327 406 324 416 324 L416 324 Z M482 319 C493 334 499 352 499 371 C499 390 493 408 482 422 C483 422 475 415 475 415 C484 403 489 388 489 371 C489 355 484 339 475 326 C478 324 480 322 482 319 L482 319 Z M292 269 C295 271 298 274 300 276 C280 302 267 335 267 371 C267 407 280 440 300 466 L293 473 C270 445 257 410 257 371 C257 333 270 297 292 269 L292 269 Z M416 -17 C512 -17 600 19 667 80 C667 80 660 88 660 87 C595 29 510 -7 416 -7 C322 -7 236 29 171 88 L164 80 C231 20 320 -17 416 -17 L416 -17 Z M416 121 C478 121 534 144 576 182 C574 185 571 187 569 190 C529 153 475 131 416 131 C357 131 303 153 262 190 L255 182 C298 144 354 121 416 121 L416 121 Z M416 170 C465 170 510 188 544 218 C542 221 539 223 537 226 C505 197 462 180 416 180 C369 180 327 197 294 226 L287 219 C322 189 367 170 416 170 L416 170 Z M416 209 C455 209 491 224 518 247 C516 250 514 253 512 255 C486 233 452 219 416 219 C380 219 346 233 320 255 L313 247 C341 224 377 209 416 209 L416 209 Z M416 265 C441 265 463 274 481 289 C479 292 476 294 474 297 C458 283 438 275 416 275 C394 275 373 283 357 297 L350 289 C368 274 391 265 416 265 L416 265 Z M358 445 C374 459 394 467 416 467 C438 467 458 459 474 445 L482 453 C464 468 441 477 416 477 C391 477 368 468 350 453 C351 452 354 448 358 445 L358 445 Z M570 552 C572 554 575 557 577 560 C534 598 478 621 416 621 C355 621 299 598 256 560 L263 553 C304 589 357 611 416 611 C475 611 529 589 570 552 L570 552 Z M454 346 C458 353 461 362 461 371 C461 380 458 389 454 396 L448 391 C451 385 453 378 453 371 C453 364 451 357 448 351 C448 351 450 349 454 346 L454 346 Z M468 333 C476 344 480 357 480 371 C480 385 476 398 468 409 L460 402 C466 393 470 382 470 371 C470 360 466 349 460 340 C463 338 465 336 468 333 L468 333 Z M498 306 C511 325 519 347 519 371 C519 395 511 418 497 436 L490 429 C502 413 509 393 509 371 C509 349 502 329 490 313 C492 311 495 308 498 306 L498 306 Z M540 269 C562 297 575 332 575 371 C575 410 562 445 539 473 L531 466 C552 440 565 407 565 371 C565 335 552 302 532 276 C535 274 537 271 540 269 L540 269 Z M568 243 C596 278 613 322 613 371 C613 420 596 464 568 499 L560 492 C587 459 603 417 603 371 C603 325 587 283 560 250 C563 248 566 245 568 243 L568 243 Z M604 211 C640 254 661 310 661 371 C661 432 640 488 604 531 L596 524 C631 483 651 429 651 371 C651 313 631 260 596 218 C601 213 604 211 604 211 L604 211 Z M649 171 C694 225 721 295 721 371 C721 447 694 517 649 571 L641 564 C685 512 711 445 711 371 C711 297 685 230 642 177 C644 175 647 173 649 171 L649 171 Z M706 120 C762 188 796 276 796 371 C796 467 762 555 706 622 L698 615 C753 549 786 464 786 371 C786 278 753 193 698 127 C703 123 706 120 706 120 L706 120 Z M183 170 L190 177 C147 229 121 297 121 371 C121 444 147 512 190 564 C187 567 184 569 182 571 C138 517 111 447 111 371 C111 294 138 225 183 170 L183 170 Z M334 306 L342 314 C330 330 323 350 323 371 C323 393 330 413 342 429 C340 431 337 434 334 436 C321 418 313 395 313 371 C313 346 321 324 334 306 L334 306 Z M364 333 L371 340 C366 349 362 360 362 371 C362 382 366 393 371 402 C369 404 366 406 364 409 C356 398 352 385 352 371 C352 357 356 344 364 333 L364 333 Z M395 403 C401 408 408 410 416 410 C424 410 431 407 437 403 C437 403 439 406 442 409 C435 415 426 418 416 418 C406 418 397 415 390 409 L395 403 Z M384 416 C393 423 404 428 416 428 C428 428 439 424 448 416 C450 419 452 421 454 423 C443 432 430 437 416 437 C401 437 388 432 377 423 L384 416 Z M371 430 C383 441 399 447 416 447 C433 447 449 441 461 430 C461 430 464 434 468 438 C454 450 436 457 416 457 C397 457 378 450 364 438 L371 430 Z M295 516 C327 545 370 562 416 562 C462 562 505 545 538 516 C538 516 545 523 544 523 C510 554 465 572 416 572 C367 572 322 554 288 524 L295 516 Z M416 240 C448 240 476 252 498 271 L491 278 C471 261 445 250 416 250 C388 250 361 261 340 278 L333 270 C355 251 384 240 416 240 L416 240 Z M416 285 C436 285 454 292 468 304 L461 312 C448 301 433 295 416 295 C399 295 383 302 370 312 L363 304 C378 292 396 285 416 285 L416 285 Z M416 305 C430 305 444 310 455 319 L448 326 C439 319 428 314 416 314 C404 314 393 319 383 326 L376 319 C388 310 401 305 416 305 L416 305 Z M341 464 C362 482 388 492 416 492 C445 492 471 481 491 464 L498 472 C476 491 447 502 416 502 C385 502 356 490 334 471 L341 464 Z M320 487 C346 509 380 523 416 523 C453 523 486 510 512 487 L518 494 C491 518 455 533 416 533 C377 533 341 519 313 495 L320 487 Z M610 597 L617 605 C563 653 493 682 416 682 C339 682 269 653 215 605 L222 598 C274 644 342 672 416 672 C491 672 559 644 610 597 L610 597 Z M172 654 C237 713 322 749 416 749 C510 749 596 713 661 654 L668 662 C601 722 512 759 416 759 C320 759 232 723 165 662 L172 654 Z M516 290 C534 312 544 340 544 371 C544 402 534 430 516 453 L508 446 C524 425 534 399 534 371 C534 343 524 317 509 297 L516 290 Z " />
<glyph glyph-name="pi" unicode="&#x3c0;" horiz-adv-x="479" d="M240 -8 C436 -8 454 116 454 371 C454 624 436 750 240 750 C46 750 27 624 27 371 C27 116 46 -8 240 -8 L240 -8 Z M240 25 C76 25 61 140 61 371 C61 601 75 716 240 716 C405 716 420 601 420 371 C420 140 405 25 240 25 L240 25 Z M141 116 L190 116 L190 318 L241 318 C340 318 365 358 365 466 C365 575 340 614 240 614 L141 614 L141 116 Z M190 361 L190 569 L239 569 C305 569 317 546 317 465 C317 385 305 361 241 361 L190 361 Z " />
<glyph glyph-name="endash" unicode="&#x2013;" horiz-adv-x="398" d="M17 277 L356 277 L365 340 L26 340 L17 277 Z " />
<glyph glyph-name="emdash" unicode="&#x2014;" horiz-adv-x="540" d="M17 277 L499 277 L508 340 L26 340 L17 277 Z " />
<glyph glyph-name="quoteleft" unicode="&#x2018;" horiz-adv-x="159" d="M64 538 L143 538 L158 641 L124 641 C129 677 134 687 169 707 L152 743 C95 714 86 687 78 637 L64 538 Z " />
<glyph glyph-name="quoteright" unicode="&#x2019;" horiz-adv-x="160" d="M84 537 C141 565 151 592 158 642 L172 741 L93 741 L79 638 L113 638 C108 602 103 592 68 572 L84 537 Z " />
<glyph glyph-name="quotesinglbase" unicode="&#x201a;" horiz-adv-x="160" d="M-5 -102 C51 -73 62 -46 68 4 L83 103 L4 103 L-11 0 L23 0 C18 -36 13 -46 -22 -66 L-5 -102 Z " />
<glyph glyph-name="quotedblleft" unicode="&#x201c;" horiz-adv-x="282" d="M64 539 L142 539 L156 642 L122 642 C127 678 132 688 167 707 L151 742 C95 713 85 684 78 637 L64 539 Z M188 539 L265 539 L280 642 L245 642 C250 678 256 688 291 707 L274 742 C219 713 208 684 201 637 L188 539 Z " />
<glyph glyph-name="quotedblright" unicode="&#x201d;" horiz-adv-x="282" d="M84 539 C140 568 150 597 157 644 L171 741 L93 741 L79 639 L114 639 C108 603 102 593 68 574 L84 539 Z M207 539 C263 568 273 597 280 644 L294 741 L216 741 L202 639 L237 639 C231 603 225 593 191 574 L207 539 Z " />
<glyph glyph-name="quotedblbase" unicode="&#x201e;" horiz-adv-x="282" d="M-6 -101 C50 -72 61 -43 67 5 L81 102 L4 102 L-11 0 L23 0 C18 -36 13 -46 -22 -66 L-6 -101 Z M117 -101 C174 -72 184 -43 190 5 L204 102 L127 102 L112 0 L146 0 C141 -36 136 -46 102 -66 L117 -101 Z " />
<glyph glyph-name="dagger" unicode="&#x2020;" horiz-adv-x="336" d="M62 -152 L128 -152 L217 481 L318 481 L327 544 L226 544 L256 763 L190 763 L159 544 L58 544 L49 481 L151 481 L62 -152 Z " />
<glyph glyph-name="daggerdbl" unicode="&#x2021;" horiz-adv-x="336" d="M62 -153 L128 -153 L160 71 L261 71 L270 134 L168 134 L217 481 L318 481 L327 544 L226 544 L256 763 L190 763 L159 544 L58 544 L49 481 L151 481 L102 134 L1 134 L-8 71 L93 71 L62 -153 Z " />
<glyph glyph-name="bullet" unicode="&#x2022;" horiz-adv-x="220" d="M39 227 L142 227 L164 381 L61 381 L39 227 Z " />
<glyph glyph-name="ellipsis" unicode="&#x2026;" horiz-adv-x="451" d="M-12 0 L67 0 L82 102 L3 102 L-12 0 Z M135 0 L215 0 L230 102 L150 102 L135 0 Z M280 0 L360 0 L374 102 L295 102 L280 0 Z " />
<glyph glyph-name="perthousand" unicode="&#x2030;" horiz-adv-x="918" d="M138 286 C239 286 258 361 278 507 C286 564 291 607 291 634 C291 707 260 748 188 748 C84 748 68 673 47 525 C40 476 35 435 35 401 C35 327 63 286 138 286 L138 286 Z M140 341 C106 341 95 359 95 402 C95 430 99 469 107 520 C125 646 132 692 185 692 C219 692 230 673 230 632 C230 604 224 563 217 512 C199 386 192 341 140 341 L140 341 Z M458 -5 C560 -5 577 69 598 216 C606 273 611 315 611 342 C611 415 580 456 508 456 C405 456 387 382 366 234 C359 184 355 143 355 110 C355 36 383 -5 458 -5 L458 -5 Z M460 49 C427 49 415 68 415 110 C415 140 420 179 427 229 C445 355 452 400 504 400 C538 400 550 382 550 341 C550 312 544 273 536 221 C520 94 511 49 460 49 L460 49 Z M732 -5 C833 -5 851 69 872 216 C879 273 885 315 885 342 C885 415 854 456 782 456 C678 456 661 382 640 234 C633 184 629 143 629 110 C629 36 656 -5 732 -5 L732 -5 Z M733 49 C700 49 688 68 688 110 C688 140 693 179 700 229 C719 355 725 400 778 400 C812 400 824 382 824 341 C824 312 818 273 810 221 C793 94 785 49 733 49 L733 49 Z M127 0 L187 0 L518 741 L459 741 L127 0 Z " />
<glyph glyph-name="guilsinglleft" unicode="&#x2039;" horiz-adv-x="263" d="M88 0 L150 0 L103 275 L227 551 L165 551 L38 275 L88 0 Z " />
<glyph glyph-name="guilsinglright" unicode="&#x203a;" horiz-adv-x="263" d="M10 0 L73 0 L199 275 L150 551 L88 551 L134 275 L10 0 Z " />
<glyph glyph-name="&amp;#x2044;" unicode="&#x2044;" horiz-adv-x="305" d="M-43 0 L18 0 L352 741 L290 741 L-43 0 Z " />
<glyph glyph-name="&amp;#x2215;" unicode="&#x2215;" horiz-adv-x="305" d="M-43 0 L18 0 L352 741 L290 741 L-43 0 Z " />
<glyph glyph-name="Euro" unicode="&#x20ac;" horiz-adv-x="377" d="M26 405 L87 405 C86 397 85 390 84 383 C82 371 81 359 79 348 L18 348 L10 290 L72 290 C66 238 62 193 62 158 C62 49 101 -5 203 -5 C237 -5 274 1 299 11 L279 68 C259 60 231 56 207 56 C149 56 129 88 129 162 C129 196 132 238 139 290 L277 290 L286 348 L147 348 C148 357 149 367 151 377 C152 386 153 396 155 405 L293 405 L301 462 L163 462 C189 630 208 684 279 684 C315 684 344 676 364 667 L391 726 C363 737 328 748 281 748 C163 748 128 663 95 462 L34 462 L26 405 Z " />
<glyph glyph-name="trademark" unicode="&#x2122;" horiz-adv-x="619" d="M254 273 L300 273 L349 622 L371 273 L408 273 L528 622 L480 273 L529 273 L595 741 L532 741 L406 379 L382 741 L319 741 L254 273 Z M96 273 L148 273 L207 692 L289 692 L296 741 L82 741 L75 692 L155 692 L96 273 Z " />
<glyph glyph-name="partialdiff" unicode="&#x2202;" horiz-adv-x="832" d="M126 120 C126 120 129 123 134 127 C79 193 46 278 46 371 C46 464 79 549 133 615 C129 619 126 621 126 621 C70 554 36 466 36 371 C36 275 70 187 126 120 L126 120 Z M228 211 C230 213 233 215 235 218 C201 259 181 313 181 371 C181 429 202 483 235 524 C232 526 230 529 227 531 C192 487 171 432 171 371 C171 310 193 254 228 211 L228 211 Z M264 243 C267 245 269 248 272 250 C245 283 229 325 229 371 C229 417 245 459 272 492 C269 494 267 497 264 499 C236 464 219 419 219 371 C219 322 236 278 264 243 L264 243 Z M316 289 C319 291 321 294 324 296 C308 317 298 343 298 371 C298 399 308 425 323 445 C321 448 318 450 316 452 C298 430 288 402 288 371 C288 340 298 312 316 289 L316 289 Z M349 320 C352 323 354 325 357 327 C348 340 343 355 343 371 C343 387 348 402 357 415 C354 417 352 420 349 422 C339 408 333 390 333 371 C333 352 339 334 349 320 L349 320 Z M378 346 C382 349 384 351 384 351 C381 357 379 364 379 371 C379 378 381 385 384 391 C384 391 382 393 378 396 C374 389 371 380 371 371 C371 362 374 353 378 346 L378 346 Z M416 60 C493 60 563 89 616 136 C614 139 611 141 609 144 C558 98 490 70 416 70 C342 70 274 98 222 144 C222 145 215 137 215 137 C268 89 338 60 416 60 L416 60 Z M416 324 C426 324 435 327 442 333 C439 337 437 339 437 339 C431 334 424 332 416 332 C408 332 401 335 395 339 C395 339 391 334 389 333 C397 327 406 324 416 324 L416 324 Z M482 319 C493 334 499 352 499 371 C499 390 493 408 482 422 C483 422 475 415 475 415 C484 403 489 388 489 371 C489 355 484 339 475 326 C478 324 480 322 482 319 L482 319 Z M292 269 C295 271 298 274 300 276 C280 302 267 335 267 371 C267 407 280 440 300 466 L293 473 C270 445 257 410 257 371 C257 333 270 297 292 269 L292 269 Z M416 -17 C512 -17 600 19 667 80 C667 80 660 88 660 87 C595 29 510 -7 416 -7 C322 -7 236 29 171 88 L164 80 C231 20 320 -17 416 -17 L416 -17 Z M416 121 C478 121 534 144 576 182 C574 185 571 187 569 190 C529 153 475 131 416 131 C357 131 303 153 262 190 L255 182 C298 144 354 121 416 121 L416 121 Z M416 170 C465 170 510 188 544 218 C542 221 539 223 537 226 C505 197 462 180 416 180 C369 180 327 197 294 226 L287 219 C322 189 367 170 416 170 L416 170 Z M416 209 C455 209 491 224 518 247 C516 250 514 253 512 255 C486 233 452 219 416 219 C380 219 346 233 320 255 L313 247 C341 224 377 209 416 209 L416 209 Z M416 265 C441 265 463 274 481 289 C479 292 476 294 474 297 C458 283 438 275 416 275 C394 275 373 283 357 297 L350 289 C368 274 391 265 416 265 L416 265 Z M358 445 C374 459 394 467 416 467 C438 467 458 459 474 445 L482 453 C464 468 441 477 416 477 C391 477 368 468 350 453 C351 452 354 448 358 445 L358 445 Z M570 552 C572 554 575 557 577 560 C534 598 478 621 416 621 C355 621 299 598 256 560 L263 553 C304 589 357 611 416 611 C475 611 529 589 570 552 L570 552 Z M454 346 C458 353 461 362 461 371 C461 380 458 389 454 396 L448 391 C451 385 453 378 453 371 C453 364 451 357 448 351 C448 351 450 349 454 346 L454 346 Z M468 333 C476 344 480 357 480 371 C480 385 476 398 468 409 L460 402 C466 393 470 382 470 371 C470 360 466 349 460 340 C463 338 465 336 468 333 L468 333 Z M498 306 C511 325 519 347 519 371 C519 395 511 418 497 436 L490 429 C502 413 509 393 509 371 C509 349 502 329 490 313 C492 311 495 308 498 306 L498 306 Z M540 269 C562 297 575 332 575 371 C575 410 562 445 539 473 L531 466 C552 440 565 407 565 371 C565 335 552 302 532 276 C535 274 537 271 540 269 L540 269 Z M568 243 C596 278 613 322 613 371 C613 420 596 464 568 499 L560 492 C587 459 603 417 603 371 C603 325 587 283 560 250 C563 248 566 245 568 243 L568 243 Z M604 211 C640 254 661 310 661 371 C661 432 640 488 604 531 L596 524 C631 483 651 429 651 371 C651 313 631 260 596 218 C601 213 604 211 604 211 L604 211 Z M649 171 C694 225 721 295 721 371 C721 447 694 517 649 571 L641 564 C685 512 711 445 711 371 C711 297 685 230 642 177 C644 175 647 173 649 171 L649 171 Z M706 120 C762 188 796 276 796 371 C796 467 762 555 706 622 L698 615 C753 549 786 464 786 371 C786 278 753 193 698 127 C703 123 706 120 706 120 L706 120 Z M183 170 L190 177 C147 229 121 297 121 371 C121 444 147 512 190 564 C187 567 184 569 182 571 C138 517 111 447 111 371 C111 294 138 225 183 170 L183 170 Z M334 306 L342 314 C330 330 323 350 323 371 C323 393 330 413 342 429 C340 431 337 434 334 436 C321 418 313 395 313 371 C313 346 321 324 334 306 L334 306 Z M364 333 L371 340 C366 349 362 360 362 371 C362 382 366 393 371 402 C369 404 366 406 364 409 C356 398 352 385 352 371 C352 357 356 344 364 333 L364 333 Z M395 403 C401 408 408 410 416 410 C424 410 431 407 437 403 C437 403 439 406 442 409 C435 415 426 418 416 418 C406 418 397 415 390 409 L395 403 Z M384 416 C393 423 404 428 416 428 C428 428 439 424 448 416 C450 419 452 421 454 423 C443 432 430 437 416 437 C401 437 388 432 377 423 L384 416 Z M371 430 C383 441 399 447 416 447 C433 447 449 441 461 430 C461 430 464 434 468 438 C454 450 436 457 416 457 C397 457 378 450 364 438 L371 430 Z M295 516 C327 545 370 562 416 562 C462 562 505 545 538 516 C538 516 545 523 544 523 C510 554 465 572 416 572 C367 572 322 554 288 524 L295 516 Z M416 240 C448 240 476 252 498 271 L491 278 C471 261 445 250 416 250 C388 250 361 261 340 278 L333 270 C355 251 384 240 416 240 L416 240 Z M416 285 C436 285 454 292 468 304 L461 312 C448 301 433 295 416 295 C399 295 383 302 370 312 L363 304 C378 292 396 285 416 285 L416 285 Z M416 305 C430 305 444 310 455 319 L448 326 C439 319 428 314 416 314 C404 314 393 319 383 326 L376 319 C388 310 401 305 416 305 L416 305 Z M341 464 C362 482 388 492 416 492 C445 492 471 481 491 464 L498 472 C476 491 447 502 416 502 C385 502 356 490 334 471 L341 464 Z M320 487 C346 509 380 523 416 523 C453 523 486 510 512 487 L518 494 C491 518 455 533 416 533 C377 533 341 519 313 495 L320 487 Z M610 597 L617 605 C563 653 493 682 416 682 C339 682 269 653 215 605 L222 598 C274 644 342 672 416 672 C491 672 559 644 610 597 L610 597 Z M172 654 C237 713 322 749 416 749 C510 749 596 713 661 654 L668 662 C601 722 512 759 416 759 C320 759 232 723 165 662 L172 654 Z M516 290 C534 312 544 340 544 371 C544 402 534 430 516 453 L508 446 C524 425 534 399 534 371 C534 343 524 317 509 297 L516 290 Z " />
<glyph glyph-name="product" unicode="&#x220f;" horiz-adv-x="832" d="M126 120 C126 120 129 123 134 127 C79 193 46 278 46 371 C46 464 79 549 133 615 C129 619 126 621 126 621 C70 554 36 466 36 371 C36 275 70 187 126 120 L126 120 Z M228 211 C230 213 233 215 235 218 C201 259 181 313 181 371 C181 429 202 483 235 524 C232 526 230 529 227 531 C192 487 171 432 171 371 C171 310 193 254 228 211 L228 211 Z M264 243 C267 245 269 248 272 250 C245 283 229 325 229 371 C229 417 245 459 272 492 C269 494 267 497 264 499 C236 464 219 419 219 371 C219 322 236 278 264 243 L264 243 Z M316 289 C319 291 321 294 324 296 C308 317 298 343 298 371 C298 399 308 425 323 445 C321 448 318 450 316 452 C298 430 288 402 288 371 C288 340 298 312 316 289 L316 289 Z M349 320 C352 323 354 325 357 327 C348 340 343 355 343 371 C343 387 348 402 357 415 C354 417 352 420 349 422 C339 408 333 390 333 371 C333 352 339 334 349 320 L349 320 Z M378 346 C382 349 384 351 384 351 C381 357 379 364 379 371 C379 378 381 385 384 391 C384 391 382 393 378 396 C374 389 371 380 371 371 C371 362 374 353 378 346 L378 346 Z M416 60 C493 60 563 89 616 136 C614 139 611 141 609 144 C558 98 490 70 416 70 C342 70 274 98 222 144 C222 145 215 137 215 137 C268 89 338 60 416 60 L416 60 Z M416 324 C426 324 435 327 442 333 C439 337 437 339 437 339 C431 334 424 332 416 332 C408 332 401 335 395 339 C395 339 391 334 389 333 C397 327 406 324 416 324 L416 324 Z M482 319 C493 334 499 352 499 371 C499 390 493 408 482 422 C483 422 475 415 475 415 C484 403 489 388 489 371 C489 355 484 339 475 326 C478 324 480 322 482 319 L482 319 Z M292 269 C295 271 298 274 300 276 C280 302 267 335 267 371 C267 407 280 440 300 466 L293 473 C270 445 257 410 257 371 C257 333 270 297 292 269 L292 269 Z M416 -17 C512 -17 600 19 667 80 C667 80 660 88 660 87 C595 29 510 -7 416 -7 C322 -7 236 29 171 88 L164 80 C231 20 320 -17 416 -17 L416 -17 Z M416 121 C478 121 534 144 576 182 C574 185 571 187 569 190 C529 153 475 131 416 131 C357 131 303 153 262 190 L255 182 C298 144 354 121 416 121 L416 121 Z M416 170 C465 170 510 188 544 218 C542 221 539 223 537 226 C505 197 462 180 416 180 C369 180 327 197 294 226 L287 219 C322 189 367 170 416 170 L416 170 Z M416 209 C455 209 491 224 518 247 C516 250 514 253 512 255 C486 233 452 219 416 219 C380 219 346 233 320 255 L313 247 C341 224 377 209 416 209 L416 209 Z M416 265 C441 265 463 274 481 289 C479 292 476 294 474 297 C458 283 438 275 416 275 C394 275 373 283 357 297 L350 289 C368 274 391 265 416 265 L416 265 Z M358 445 C374 459 394 467 416 467 C438 467 458 459 474 445 L482 453 C464 468 441 477 416 477 C391 477 368 468 350 453 C351 452 354 448 358 445 L358 445 Z M570 552 C572 554 575 557 577 560 C534 598 478 621 416 621 C355 621 299 598 256 560 L263 553 C304 589 357 611 416 611 C475 611 529 589 570 552 L570 552 Z M454 346 C458 353 461 362 461 371 C461 380 458 389 454 396 L448 391 C451 385 453 378 453 371 C453 364 451 357 448 351 C448 351 450 349 454 346 L454 346 Z M468 333 C476 344 480 357 480 371 C480 385 476 398 468 409 L460 402 C466 393 470 382 470 371 C470 360 466 349 460 340 C463 338 465 336 468 333 L468 333 Z M498 306 C511 325 519 347 519 371 C519 395 511 418 497 436 L490 429 C502 413 509 393 509 371 C509 349 502 329 490 313 C492 311 495 308 498 306 L498 306 Z M540 269 C562 297 575 332 575 371 C575 410 562 445 539 473 L531 466 C552 440 565 407 565 371 C565 335 552 302 532 276 C535 274 537 271 540 269 L540 269 Z M568 243 C596 278 613 322 613 371 C613 420 596 464 568 499 L560 492 C587 459 603 417 603 371 C603 325 587 283 560 250 C563 248 566 245 568 243 L568 243 Z M604 211 C640 254 661 310 661 371 C661 432 640 488 604 531 L596 524 C631 483 651 429 651 371 C651 313 631 260 596 218 C601 213 604 211 604 211 L604 211 Z M649 171 C694 225 721 295 721 371 C721 447 694 517 649 571 L641 564 C685 512 711 445 711 371 C711 297 685 230 642 177 C644 175 647 173 649 171 L649 171 Z M706 120 C762 188 796 276 796 371 C796 467 762 555 706 622 L698 615 C753 549 786 464 786 371 C786 278 753 193 698 127 C703 123 706 120 706 120 L706 120 Z M183 170 L190 177 C147 229 121 297 121 371 C121 444 147 512 190 564 C187 567 184 569 182 571 C138 517 111 447 111 371 C111 294 138 225 183 170 L183 170 Z M334 306 L342 314 C330 330 323 350 323 371 C323 393 330 413 342 429 C340 431 337 434 334 436 C321 418 313 395 313 371 C313 346 321 324 334 306 L334 306 Z M364 333 L371 340 C366 349 362 360 362 371 C362 382 366 393 371 402 C369 404 366 406 364 409 C356 398 352 385 352 371 C352 357 356 344 364 333 L364 333 Z M395 403 C401 408 408 410 416 410 C424 410 431 407 437 403 C437 403 439 406 442 409 C435 415 426 418 416 418 C406 418 397 415 390 409 L395 403 Z M384 416 C393 423 404 428 416 428 C428 428 439 424 448 416 C450 419 452 421 454 423 C443 432 430 437 416 437 C401 437 388 432 377 423 L384 416 Z M371 430 C383 441 399 447 416 447 C433 447 449 441 461 430 C461 430 464 434 468 438 C454 450 436 457 416 457 C397 457 378 450 364 438 L371 430 Z M295 516 C327 545 370 562 416 562 C462 562 505 545 538 516 C538 516 545 523 544 523 C510 554 465 572 416 572 C367 572 322 554 288 524 L295 516 Z M416 240 C448 240 476 252 498 271 L491 278 C471 261 445 250 416 250 C388 250 361 261 340 278 L333 270 C355 251 384 240 416 240 L416 240 Z M416 285 C436 285 454 292 468 304 L461 312 C448 301 433 295 416 295 C399 295 383 302 370 312 L363 304 C378 292 396 285 416 285 L416 285 Z M416 305 C430 305 444 310 455 319 L448 326 C439 319 428 314 416 314 C404 314 393 319 383 326 L376 319 C388 310 401 305 416 305 L416 305 Z M341 464 C362 482 388 492 416 492 C445 492 471 481 491 464 L498 472 C476 491 447 502 416 502 C385 502 356 490 334 471 L341 464 Z M320 487 C346 509 380 523 416 523 C453 523 486 510 512 487 L518 494 C491 518 455 533 416 533 C377 533 341 519 313 495 L320 487 Z M610 597 L617 605 C563 653 493 682 416 682 C339 682 269 653 215 605 L222 598 C274 644 342 672 416 672 C491 672 559 644 610 597 L610 597 Z M172 654 C237 713 322 749 416 749 C510 749 596 713 661 654 L668 662 C601 722 512 759 416 759 C320 759 232 723 165 662 L172 654 Z M516 290 C534 312 544 340 544 371 C544 402 534 430 516 453 L508 446 C524 425 534 399 534 371 C534 343 524 317 509 297 L516 290 Z " />
<glyph glyph-name="summation" unicode="&#x2211;" horiz-adv-x="832" d="M126 120 C126 120 129 123 134 127 C79 193 46 278 46 371 C46 464 79 549 133 615 C129 619 126 621 126 621 C70 554 36 466 36 371 C36 275 70 187 126 120 L126 120 Z M228 211 C230 213 233 215 235 218 C201 259 181 313 181 371 C181 429 202 483 235 524 C232 526 230 529 227 531 C192 487 171 432 171 371 C171 310 193 254 228 211 L228 211 Z M264 243 C267 245 269 248 272 250 C245 283 229 325 229 371 C229 417 245 459 272 492 C269 494 267 497 264 499 C236 464 219 419 219 371 C219 322 236 278 264 243 L264 243 Z M316 289 C319 291 321 294 324 296 C308 317 298 343 298 371 C298 399 308 425 323 445 C321 448 318 450 316 452 C298 430 288 402 288 371 C288 340 298 312 316 289 L316 289 Z M349 320 C352 323 354 325 357 327 C348 340 343 355 343 371 C343 387 348 402 357 415 C354 417 352 420 349 422 C339 408 333 390 333 371 C333 352 339 334 349 320 L349 320 Z M378 346 C382 349 384 351 384 351 C381 357 379 364 379 371 C379 378 381 385 384 391 C384 391 382 393 378 396 C374 389 371 380 371 371 C371 362 374 353 378 346 L378 346 Z M416 60 C493 60 563 89 616 136 C614 139 611 141 609 144 C558 98 490 70 416 70 C342 70 274 98 222 144 C222 145 215 137 215 137 C268 89 338 60 416 60 L416 60 Z M416 324 C426 324 435 327 442 333 C439 337 437 339 437 339 C431 334 424 332 416 332 C408 332 401 335 395 339 C395 339 391 334 389 333 C397 327 406 324 416 324 L416 324 Z M482 319 C493 334 499 352 499 371 C499 390 493 408 482 422 C483 422 475 415 475 415 C484 403 489 388 489 371 C489 355 484 339 475 326 C478 324 480 322 482 319 L482 319 Z M292 269 C295 271 298 274 300 276 C280 302 267 335 267 371 C267 407 280 440 300 466 L293 473 C270 445 257 410 257 371 C257 333 270 297 292 269 L292 269 Z M416 -17 C512 -17 600 19 667 80 C667 80 660 88 660 87 C595 29 510 -7 416 -7 C322 -7 236 29 171 88 L164 80 C231 20 320 -17 416 -17 L416 -17 Z M416 121 C478 121 534 144 576 182 C574 185 571 187 569 190 C529 153 475 131 416 131 C357 131 303 153 262 190 L255 182 C298 144 354 121 416 121 L416 121 Z M416 170 C465 170 510 188 544 218 C542 221 539 223 537 226 C505 197 462 180 416 180 C369 180 327 197 294 226 L287 219 C322 189 367 170 416 170 L416 170 Z M416 209 C455 209 491 224 518 247 C516 250 514 253 512 255 C486 233 452 219 416 219 C380 219 346 233 320 255 L313 247 C341 224 377 209 416 209 L416 209 Z M416 265 C441 265 463 274 481 289 C479 292 476 294 474 297 C458 283 438 275 416 275 C394 275 373 283 357 297 L350 289 C368 274 391 265 416 265 L416 265 Z M358 445 C374 459 394 467 416 467 C438 467 458 459 474 445 L482 453 C464 468 441 477 416 477 C391 477 368 468 350 453 C351 452 354 448 358 445 L358 445 Z M570 552 C572 554 575 557 577 560 C534 598 478 621 416 621 C355 621 299 598 256 560 L263 553 C304 589 357 611 416 611 C475 611 529 589 570 552 L570 552 Z M454 346 C458 353 461 362 461 371 C461 380 458 389 454 396 L448 391 C451 385 453 378 453 371 C453 364 451 357 448 351 C448 351 450 349 454 346 L454 346 Z M468 333 C476 344 480 357 480 371 C480 385 476 398 468 409 L460 402 C466 393 470 382 470 371 C470 360 466 349 460 340 C463 338 465 336 468 333 L468 333 Z M498 306 C511 325 519 347 519 371 C519 395 511 418 497 436 L490 429 C502 413 509 393 509 371 C509 349 502 329 490 313 C492 311 495 308 498 306 L498 306 Z M540 269 C562 297 575 332 575 371 C575 410 562 445 539 473 L531 466 C552 440 565 407 565 371 C565 335 552 302 532 276 C535 274 537 271 540 269 L540 269 Z M568 243 C596 278 613 322 613 371 C613 420 596 464 568 499 L560 492 C587 459 603 417 603 371 C603 325 587 283 560 250 C563 248 566 245 568 243 L568 243 Z M604 211 C640 254 661 310 661 371 C661 432 640 488 604 531 L596 524 C631 483 651 429 651 371 C651 313 631 260 596 218 C601 213 604 211 604 211 L604 211 Z M649 171 C694 225 721 295 721 371 C721 447 694 517 649 571 L641 564 C685 512 711 445 711 371 C711 297 685 230 642 177 C644 175 647 173 649 171 L649 171 Z M706 120 C762 188 796 276 796 371 C796 467 762 555 706 622 L698 615 C753 549 786 464 786 371 C786 278 753 193 698 127 C703 123 706 120 706 120 L706 120 Z M183 170 L190 177 C147 229 121 297 121 371 C121 444 147 512 190 564 C187 567 184 569 182 571 C138 517 111 447 111 371 C111 294 138 225 183 170 L183 170 Z M334 306 L342 314 C330 330 323 350 323 371 C323 393 330 413 342 429 C340 431 337 434 334 436 C321 418 313 395 313 371 C313 346 321 324 334 306 L334 306 Z M364 333 L371 340 C366 349 362 360 362 371 C362 382 366 393 371 402 C369 404 366 406 364 409 C356 398 352 385 352 371 C352 357 356 344 364 333 L364 333 Z M395 403 C401 408 408 410 416 410 C424 410 431 407 437 403 C437 403 439 406 442 409 C435 415 426 418 416 418 C406 418 397 415 390 409 L395 403 Z M384 416 C393 423 404 428 416 428 C428 428 439 424 448 416 C450 419 452 421 454 423 C443 432 430 437 416 437 C401 437 388 432 377 423 L384 416 Z M371 430 C383 441 399 447 416 447 C433 447 449 441 461 430 C461 430 464 434 468 438 C454 450 436 457 416 457 C397 457 378 450 364 438 L371 430 Z M295 516 C327 545 370 562 416 562 C462 562 505 545 538 516 C538 516 545 523 544 523 C510 554 465 572 416 572 C367 572 322 554 288 524 L295 516 Z M416 240 C448 240 476 252 498 271 L491 278 C471 261 445 250 416 250 C388 250 361 261 340 278 L333 270 C355 251 384 240 416 240 L416 240 Z M416 285 C436 285 454 292 468 304 L461 312 C448 301 433 295 416 295 C399 295 383 302 370 312 L363 304 C378 292 396 285 416 285 L416 285 Z M416 305 C430 305 444 310 455 319 L448 326 C439 319 428 314 416 314 C404 314 393 319 383 326 L376 319 C388 310 401 305 416 305 L416 305 Z M341 464 C362 482 388 492 416 492 C445 492 471 481 491 464 L498 472 C476 491 447 502 416 502 C385 502 356 490 334 471 L341 464 Z M320 487 C346 509 380 523 416 523 C453 523 486 510 512 487 L518 494 C491 518 455 533 416 533 C377 533 341 519 313 495 L320 487 Z M610 597 L617 605 C563 653 493 682 416 682 C339 682 269 653 215 605 L222 598 C274 644 342 672 416 672 C491 672 559 644 610 597 L610 597 Z M172 654 C237 713 322 749 416 749 C510 749 596 713 661 654 L668 662 C601 722 512 759 416 759 C320 759 232 723 165 662 L172 654 Z M516 290 C534 312 544 340 544 371 C544 402 534 430 516 453 L508 446 C524 425 534 399 534 371 C534 343 524 317 509 297 L516 290 Z " />
<glyph glyph-name="minus" unicode="&#x2212;" horiz-adv-x="410" d="M56 336 L344 336 L353 400 L66 400 L56 336 Z " />
<glyph glyph-name="radical" unicode="&#x221a;" horiz-adv-x="384" d="M79 -3 L147 -3 L420 741 L355 741 L129 103 L107 410 L39 410 L79 -3 Z " />
<glyph glyph-name="infinity" unicode="&#x221e;" horiz-adv-x="580" d="M201 -152 L267 -152 L358 491 L435 491 L442 551 L366 551 L378 634 C385 690 397 704 444 704 L464 704 L472 763 C470 764 448 764 446 764 C358 764 325 731 314 648 L300 551 L171 551 L183 634 C191 690 203 704 249 704 L272 704 L280 763 C278 764 257 764 252 764 C164 764 130 731 119 648 L105 551 L41 551 L32 491 L97 491 L7 -152 L73 -152 L163 491 L292 491 L201 -152 Z M417 0 L483 0 L561 551 L494 551 L417 0 Z M504 625 L570 625 L585 726 L518 726 L504 625 Z " />
<glyph glyph-name="integral" unicode="&#x222b;" horiz-adv-x="832" d="M126 120 C126 120 129 123 134 127 C79 193 46 278 46 371 C46 464 79 549 133 615 C129 619 126 621 126 621 C70 554 36 466 36 371 C36 275 70 187 126 120 L126 120 Z M228 211 C230 213 233 215 235 218 C201 259 181 313 181 371 C181 429 202 483 235 524 C232 526 230 529 227 531 C192 487 171 432 171 371 C171 310 193 254 228 211 L228 211 Z M264 243 C267 245 269 248 272 250 C245 283 229 325 229 371 C229 417 245 459 272 492 C269 494 267 497 264 499 C236 464 219 419 219 371 C219 322 236 278 264 243 L264 243 Z M316 289 C319 291 321 294 324 296 C308 317 298 343 298 371 C298 399 308 425 323 445 C321 448 318 450 316 452 C298 430 288 402 288 371 C288 340 298 312 316 289 L316 289 Z M349 320 C352 323 354 325 357 327 C348 340 343 355 343 371 C343 387 348 402 357 415 C354 417 352 420 349 422 C339 408 333 390 333 371 C333 352 339 334 349 320 L349 320 Z M378 346 C382 349 384 351 384 351 C381 357 379 364 379 371 C379 378 381 385 384 391 C384 391 382 393 378 396 C374 389 371 380 371 371 C371 362 374 353 378 346 L378 346 Z M416 60 C493 60 563 89 616 136 C614 139 611 141 609 144 C558 98 490 70 416 70 C342 70 274 98 222 144 C222 145 215 137 215 137 C268 89 338 60 416 60 L416 60 Z M416 324 C426 324 435 327 442 333 C439 337 437 339 437 339 C431 334 424 332 416 332 C408 332 401 335 395 339 C395 339 391 334 389 333 C397 327 406 324 416 324 L416 324 Z M482 319 C493 334 499 352 499 371 C499 390 493 408 482 422 C483 422 475 415 475 415 C484 403 489 388 489 371 C489 355 484 339 475 326 C478 324 480 322 482 319 L482 319 Z M292 269 C295 271 298 274 300 276 C280 302 267 335 267 371 C267 407 280 440 300 466 L293 473 C270 445 257 410 257 371 C257 333 270 297 292 269 L292 269 Z M416 -17 C512 -17 600 19 667 80 C667 80 660 88 660 87 C595 29 510 -7 416 -7 C322 -7 236 29 171 88 L164 80 C231 20 320 -17 416 -17 L416 -17 Z M416 121 C478 121 534 144 576 182 C574 185 571 187 569 190 C529 153 475 131 416 131 C357 131 303 153 262 190 L255 182 C298 144 354 121 416 121 L416 121 Z M416 170 C465 170 510 188 544 218 C542 221 539 223 537 226 C505 197 462 180 416 180 C369 180 327 197 294 226 L287 219 C322 189 367 170 416 170 L416 170 Z M416 209 C455 209 491 224 518 247 C516 250 514 253 512 255 C486 233 452 219 416 219 C380 219 346 233 320 255 L313 247 C341 224 377 209 416 209 L416 209 Z M416 265 C441 265 463 274 481 289 C479 292 476 294 474 297 C458 283 438 275 416 275 C394 275 373 283 357 297 L350 289 C368 274 391 265 416 265 L416 265 Z M358 445 C374 459 394 467 416 467 C438 467 458 459 474 445 L482 453 C464 468 441 477 416 477 C391 477 368 468 350 453 C351 452 354 448 358 445 L358 445 Z M570 552 C572 554 575 557 577 560 C534 598 478 621 416 621 C355 621 299 598 256 560 L263 553 C304 589 357 611 416 611 C475 611 529 589 570 552 L570 552 Z M454 346 C458 353 461 362 461 371 C461 380 458 389 454 396 L448 391 C451 385 453 378 453 371 C453 364 451 357 448 351 C448 351 450 349 454 346 L454 346 Z M468 333 C476 344 480 357 480 371 C480 385 476 398 468 409 L460 402 C466 393 470 382 470 371 C470 360 466 349 460 340 C463 338 465 336 468 333 L468 333 Z M498 306 C511 325 519 347 519 371 C519 395 511 418 497 436 L490 429 C502 413 509 393 509 371 C509 349 502 329 490 313 C492 311 495 308 498 306 L498 306 Z M540 269 C562 297 575 332 575 371 C575 410 562 445 539 473 L531 466 C552 440 565 407 565 371 C565 335 552 302 532 276 C535 274 537 271 540 269 L540 269 Z M568 243 C596 278 613 322 613 371 C613 420 596 464 568 499 L560 492 C587 459 603 417 603 371 C603 325 587 283 560 250 C563 248 566 245 568 243 L568 243 Z M604 211 C640 254 661 310 661 371 C661 432 640 488 604 531 L596 524 C631 483 651 429 651 371 C651 313 631 260 596 218 C601 213 604 211 604 211 L604 211 Z M649 171 C694 225 721 295 721 371 C721 447 694 517 649 571 L641 564 C685 512 711 445 711 371 C711 297 685 230 642 177 C644 175 647 173 649 171 L649 171 Z M706 120 C762 188 796 276 796 371 C796 467 762 555 706 622 L698 615 C753 549 786 464 786 371 C786 278 753 193 698 127 C703 123 706 120 706 120 L706 120 Z M183 170 L190 177 C147 229 121 297 121 371 C121 444 147 512 190 564 C187 567 184 569 182 571 C138 517 111 447 111 371 C111 294 138 225 183 170 L183 170 Z M334 306 L342 314 C330 330 323 350 323 371 C323 393 330 413 342 429 C340 431 337 434 334 436 C321 418 313 395 313 371 C313 346 321 324 334 306 L334 306 Z M364 333 L371 340 C366 349 362 360 362 371 C362 382 366 393 371 402 C369 404 366 406 364 409 C356 398 352 385 352 371 C352 357 356 344 364 333 L364 333 Z M395 403 C401 408 408 410 416 410 C424 410 431 407 437 403 C437 403 439 406 442 409 C435 415 426 418 416 418 C406 418 397 415 390 409 L395 403 Z M384 416 C393 423 404 428 416 428 C428 428 439 424 448 416 C450 419 452 421 454 423 C443 432 430 437 416 437 C401 437 388 432 377 423 L384 416 Z M371 430 C383 441 399 447 416 447 C433 447 449 441 461 430 C461 430 464 434 468 438 C454 450 436 457 416 457 C397 457 378 450 364 438 L371 430 Z M295 516 C327 545 370 562 416 562 C462 562 505 545 538 516 C538 516 545 523 544 523 C510 554 465 572 416 572 C367 572 322 554 288 524 L295 516 Z M416 240 C448 240 476 252 498 271 L491 278 C471 261 445 250 416 250 C388 250 361 261 340 278 L333 270 C355 251 384 240 416 240 L416 240 Z M416 285 C436 285 454 292 468 304 L461 312 C448 301 433 295 416 295 C399 295 383 302 370 312 L363 304 C378 292 396 285 416 285 L416 285 Z M416 305 C430 305 444 310 455 319 L448 326 C439 319 428 314 416 314 C404 314 393 319 383 326 L376 319 C388 310 401 305 416 305 L416 305 Z M341 464 C362 482 388 492 416 492 C445 492 471 481 491 464 L498 472 C476 491 447 502 416 502 C385 502 356 490 334 471 L341 464 Z M320 487 C346 509 380 523 416 523 C453 523 486 510 512 487 L518 494 C491 518 455 533 416 533 C377 533 341 519 313 495 L320 487 Z M610 597 L617 605 C563 653 493 682 416 682 C339 682 269 653 215 605 L222 598 C274 644 342 672 416 672 C491 672 559 644 610 597 L610 597 Z M172 654 C237 713 322 749 416 749 C510 749 596 713 661 654 L668 662 C601 722 512 759 416 759 C320 759 232 723 165 662 L172 654 Z M516 290 C534 312 544 340 544 371 C544 402 534 430 516 453 L508 446 C524 425 534 399 534 371 C534 343 524 317 509 297 L516 290 Z " />
<glyph glyph-name="approxequal" unicode="&#x2248;" horiz-adv-x="410" d="M98 391 C113 418 129 432 150 432 C187 432 246 392 294 392 C326 392 356 418 379 467 L342 498 C326 469 307 453 289 453 C252 453 191 492 145 492 C111 492 83 469 60 422 L98 391 Z M72 203 C87 230 103 244 124 244 C162 244 221 205 269 205 C301 205 330 230 354 279 L316 310 C301 281 282 265 263 265 C227 265 165 305 120 305 C85 305 58 280 35 234 L72 203 Z " />
<glyph glyph-name="notequal" unicode="&#x2260;" horiz-adv-x="438" d="M201 -152 L267 -152 L357 491 L448 491 L456 551 L366 551 L377 631 C385 688 397 702 449 703 L478 703 L486 763 C483 764 460 764 448 764 C357 764 325 731 314 648 L300 551 L171 551 L183 634 C191 690 203 704 249 704 L272 704 L280 763 C278 764 257 764 252 764 C164 764 130 731 119 648 L105 551 L41 551 L32 491 L97 491 L7 -152 L73 -152 L163 491 L292 491 L201 -152 Z " />
<glyph glyph-name="lessequal" unicode="&#x2264;" horiz-adv-x="410" d="M289 178 L299 245 L141 367 L333 489 L343 557 L81 393 L74 342 L289 178 Z M28 16 L267 16 L276 80 L36 80 L28 16 Z " />
<glyph glyph-name="greaterequal" unicode="&#x2265;" horiz-adv-x="410" d="M68 178 L329 342 L336 393 L121 557 L112 490 L270 368 L78 246 L68 178 Z M45 16 L284 16 L293 80 L53 80 L45 16 Z " />
<glyph glyph-name="lozenge" unicode="&#x25ca;" horiz-adv-x="452" d="M335 -1 C342 -1 369 -1 375 0 L384 62 L348 62 C298 62 295 82 301 126 L352 491 L444 491 L452 551 L360 551 L380 692 L324 678 L296 551 L171 551 L183 634 C191 690 203 704 249 704 L272 704 L280 763 C278 764 257 764 252 764 C164 764 130 731 119 648 L105 551 L41 551 L32 491 L97 491 L7 -152 L73 -152 L163 491 L286 491 L235 128 C222 38 238 -1 335 -1 L335 -1 Z " />
<glyph glyph-name="apple" unicode="&#xf8ff;" horiz-adv-x="832" d="M126 120 C126 120 129 123 134 127 C79 193 46 278 46 371 C46 464 79 549 133 615 C129 619 126 621 126 621 C70 554 36 466 36 371 C36 275 70 187 126 120 L126 120 Z M228 211 C230 213 233 215 235 218 C201 259 181 313 181 371 C181 429 202 483 235 524 C232 526 230 529 227 531 C192 487 171 432 171 371 C171 310 193 254 228 211 L228 211 Z M264 243 C267 245 269 248 272 250 C245 283 229 325 229 371 C229 417 245 459 272 492 C269 494 267 497 264 499 C236 464 219 419 219 371 C219 322 236 278 264 243 L264 243 Z M316 289 C319 291 321 294 324 296 C308 317 298 343 298 371 C298 399 308 425 323 445 C321 448 318 450 316 452 C298 430 288 402 288 371 C288 340 298 312 316 289 L316 289 Z M349 320 C352 323 354 325 357 327 C348 340 343 355 343 371 C343 387 348 402 357 415 C354 417 352 420 349 422 C339 408 333 390 333 371 C333 352 339 334 349 320 L349 320 Z M378 346 C382 349 384 351 384 351 C381 357 379 364 379 371 C379 378 381 385 384 391 C384 391 382 393 378 396 C374 389 371 380 371 371 C371 362 374 353 378 346 L378 346 Z M416 60 C493 60 563 89 616 136 C614 139 611 141 609 144 C558 98 490 70 416 70 C342 70 274 98 222 144 C222 145 215 137 215 137 C268 89 338 60 416 60 L416 60 Z M416 324 C426 324 435 327 442 333 C439 337 437 339 437 339 C431 334 424 332 416 332 C408 332 401 335 395 339 C395 339 391 334 389 333 C397 327 406 324 416 324 L416 324 Z M482 319 C493 334 499 352 499 371 C499 390 493 408 482 422 C483 422 475 415 475 415 C484 403 489 388 489 371 C489 355 484 339 475 326 C478 324 480 322 482 319 L482 319 Z M292 269 C295 271 298 274 300 276 C280 302 267 335 267 371 C267 407 280 440 300 466 L293 473 C270 445 257 410 257 371 C257 333 270 297 292 269 L292 269 Z M416 -17 C512 -17 600 19 667 80 C667 80 660 88 660 87 C595 29 510 -7 416 -7 C322 -7 236 29 171 88 L164 80 C231 20 320 -17 416 -17 L416 -17 Z M416 121 C478 121 534 144 576 182 C574 185 571 187 569 190 C529 153 475 131 416 131 C357 131 303 153 262 190 L255 182 C298 144 354 121 416 121 L416 121 Z M416 170 C465 170 510 188 544 218 C542 221 539 223 537 226 C505 197 462 180 416 180 C369 180 327 197 294 226 L287 219 C322 189 367 170 416 170 L416 170 Z M416 209 C455 209 491 224 518 247 C516 250 514 253 512 255 C486 233 452 219 416 219 C380 219 346 233 320 255 L313 247 C341 224 377 209 416 209 L416 209 Z M416 265 C441 265 463 274 481 289 C479 292 476 294 474 297 C458 283 438 275 416 275 C394 275 373 283 357 297 L350 289 C368 274 391 265 416 265 L416 265 Z M358 445 C374 459 394 467 416 467 C438 467 458 459 474 445 L482 453 C464 468 441 477 416 477 C391 477 368 468 350 453 C351 452 354 448 358 445 L358 445 Z M570 552 C572 554 575 557 577 560 C534 598 478 621 416 621 C355 621 299 598 256 560 L263 553 C304 589 357 611 416 611 C475 611 529 589 570 552 L570 552 Z M454 346 C458 353 461 362 461 371 C461 380 458 389 454 396 L448 391 C451 385 453 378 453 371 C453 364 451 357 448 351 C448 351 450 349 454 346 L454 346 Z M468 333 C476 344 480 357 480 371 C480 385 476 398 468 409 L460 402 C466 393 470 382 470 371 C470 360 466 349 460 340 C463 338 465 336 468 333 L468 333 Z M498 306 C511 325 519 347 519 371 C519 395 511 418 497 436 L490 429 C502 413 509 393 509 371 C509 349 502 329 490 313 C492 311 495 308 498 306 L498 306 Z M540 269 C562 297 575 332 575 371 C575 410 562 445 539 473 L531 466 C552 440 565 407 565 371 C565 335 552 302 532 276 C535 274 537 271 540 269 L540 269 Z M568 243 C596 278 613 322 613 371 C613 420 596 464 568 499 L560 492 C587 459 603 417 603 371 C603 325 587 283 560 250 C563 248 566 245 568 243 L568 243 Z M604 211 C640 254 661 310 661 371 C661 432 640 488 604 531 L596 524 C631 483 651 429 651 371 C651 313 631 260 596 218 C601 213 604 211 604 211 L604 211 Z M649 171 C694 225 721 295 721 371 C721 447 694 517 649 571 L641 564 C685 512 711 445 711 371 C711 297 685 230 642 177 C644 175 647 173 649 171 L649 171 Z M706 120 C762 188 796 276 796 371 C796 467 762 555 706 622 L698 615 C753 549 786 464 786 371 C786 278 753 193 698 127 C703 123 706 120 706 120 L706 120 Z M183 170 L190 177 C147 229 121 297 121 371 C121 444 147 512 190 564 C187 567 184 569 182 571 C138 517 111 447 111 371 C111 294 138 225 183 170 L183 170 Z M334 306 L342 314 C330 330 323 350 323 371 C323 393 330 413 342 429 C340 431 337 434 334 436 C321 418 313 395 313 371 C313 346 321 324 334 306 L334 306 Z M364 333 L371 340 C366 349 362 360 362 371 C362 382 366 393 371 402 C369 404 366 406 364 409 C356 398 352 385 352 371 C352 357 356 344 364 333 L364 333 Z M395 403 C401 408 408 410 416 410 C424 410 431 407 437 403 C437 403 439 406 442 409 C435 415 426 418 416 418 C406 418 397 415 390 409 L395 403 Z M384 416 C393 423 404 428 416 428 C428 428 439 424 448 416 C450 419 452 421 454 423 C443 432 430 437 416 437 C401 437 388 432 377 423 L384 416 Z M371 430 C383 441 399 447 416 447 C433 447 449 441 461 430 C461 430 464 434 468 438 C454 450 436 457 416 457 C397 457 378 450 364 438 L371 430 Z M295 516 C327 545 370 562 416 562 C462 562 505 545 538 516 C538 516 545 523 544 523 C510 554 465 572 416 572 C367 572 322 554 288 524 L295 516 Z M416 240 C448 240 476 252 498 271 L491 278 C471 261 445 250 416 250 C388 250 361 261 340 278 L333 270 C355 251 384 240 416 240 L416 240 Z M416 285 C436 285 454 292 468 304 L461 312 C448 301 433 295 416 295 C399 295 383 302 370 312 L363 304 C378 292 396 285 416 285 L416 285 Z M416 305 C430 305 444 310 455 319 L448 326 C439 319 428 314 416 314 C404 314 393 319 383 326 L376 319 C388 310 401 305 416 305 L416 305 Z M341 464 C362 482 388 492 416 492 C445 492 471 481 491 464 L498 472 C476 491 447 502 416 502 C385 502 356 490 334 471 L341 464 Z M320 487 C346 509 380 523 416 523 C453 523 486 510 512 487 L518 494 C491 518 455 533 416 533 C377 533 341 519 313 495 L320 487 Z M610 597 L617 605 C563 653 493 682 416 682 C339 682 269 653 215 605 L222 598 C274 644 342 672 416 672 C491 672 559 644 610 597 L610 597 Z M172 654 C237 713 322 749 416 749 C510 749 596 713 661 654 L668 662 C601 722 512 759 416 759 C320 759 232 723 165 662 L172 654 Z M516 290 C534 312 544 340 544 371 C544 402 534 430 516 453 L508 446 C524 425 534 399 534 371 C534 343 524 317 509 297 L516 290 Z " />
<glyph glyph-name="fi" unicode="&#xfb01;" horiz-adv-x="385" d="M32 491 L97 491 L7 -152 L73 -152 L163 491 L240 491 L248 551 L171 551 L183 634 C191 690 203 704 249 704 L270 704 L278 763 C276 764 254 764 252 764 C164 764 130 731 119 648 L105 551 L41 551 L32 491 Z M222 0 L288 0 L366 551 L300 551 L222 0 Z M309 625 L376 625 L390 726 L324 726 L309 625 Z " />
<glyph glyph-name="fl" unicode="&#xfb02;" horiz-adv-x="415" d="M32 491 L97 491 L7 -152 L73 -152 L163 491 L240 491 L248 551 L171 551 L183 634 C191 690 203 704 249 704 L270 704 L278 763 C276 764 254 764 252 764 C164 764 130 731 119 648 L105 551 L41 551 L32 491 Z M324 -1 C327 -1 336 -1 338 0 L346 60 L339 60 C299 60 298 69 304 113 L395 763 L329 763 L238 112 C226 31 238 -1 324 -1 L324 -1 Z " />
</font>
</svg>
