<?xml version="1.0" encoding="UTF-8"?>
<svg xmlns="http://www.w3.org/2000/svg" xmlns:xlink="http://www.w3.org/1999/xlink" version="1.2" >
<font id="AntennaComp Bold">
<font-face  font-family="AntennaComp" units-per-em="1000" ascent="800" descent="-200" font-style="normal" font-weight="700" font-stretch="normal" cap-height="741" x-height="566" underline-position="-75" underline-thickness="50" />
<missing-glyph  horiz-adv-x="89" d="" />
<glyph glyph-name="NULL" d="" />
<glyph glyph-name="CR" unicode="&#xd;" horiz-adv-x="250" d="" />
<glyph glyph-name="&amp;#x20;" unicode="&#x20;" horiz-adv-x="89" d="" />
<glyph glyph-name="&amp;#xa0;" unicode="&#xa0;" horiz-adv-x="89" d="" />
<glyph glyph-name="exclam" unicode="&#x21;" horiz-adv-x="225" d="M57 219 L168 219 L177 741 L48 741 L57 219 Z M46 0 L177 0 L177 159 L46 159 L46 0 Z " />
<glyph glyph-name="quotedbl" unicode="&#x22;" horiz-adv-x="355" d="M46 436 L158 436 L163 741 L40 741 L46 436 Z M197 436 L310 436 L315 741 L192 741 L197 436 Z " />
<glyph glyph-name="numbersign" unicode="&#x23;" horiz-adv-x="391" d="M41 0 L154 0 L167 200 L201 200 L188 0 L301 0 L314 200 L374 200 L374 319 L322 319 L328 393 L374 393 L374 513 L336 513 L352 741 L239 741 L223 513 L189 513 L205 741 L92 741 L76 513 L17 513 L17 393 L69 393 L63 319 L17 319 L17 200 L55 200 L41 0 Z M169 309 L176 404 L222 404 L215 309 L169 309 Z " />
<glyph glyph-name="dollar" unicode="&#x24;" horiz-adv-x="313" d="M107 -93 L209 -93 L209 10 C320 47 302 169 266 263 L159 536 C142 580 142 621 199 621 C212 621 239 620 255 616 L282 733 C262 737 233 740 209 741 L209 819 L107 819 L107 728 C9 690 11 580 46 493 L161 200 C185 140 171 113 125 113 C104 113 62 117 40 122 L14 11 C36 6 72 2 107 0 L107 -93 Z " />
<glyph glyph-name="percent" unicode="&#x25;" horiz-adv-x="682" d="M142 267 C183 267 218 277 235 296 C268 332 269 399 269 508 C269 612 268 677 239 714 C222 735 186 747 142 747 C97 747 62 735 44 713 C15 676 15 611 15 508 C15 397 16 330 49 295 C66 276 101 267 142 267 L142 267 Z M540 -4 C582 -4 616 6 634 26 C667 62 667 128 667 237 C667 341 667 406 638 443 C620 465 585 476 540 476 C496 476 461 465 443 442 C414 405 413 340 413 237 C413 127 415 60 448 24 C465 5 499 -4 540 -4 L540 -4 Z M142 364 C123 364 121 379 121 506 C121 632 123 646 142 646 C160 646 162 632 162 506 C162 379 161 364 142 364 L142 364 Z M540 93 C521 93 520 109 520 235 C520 362 521 375 540 375 C559 375 561 362 561 235 C561 109 559 93 540 93 L540 93 Z M188 0 L298 0 L493 741 L383 741 L188 0 Z " />
<glyph glyph-name="ampersand" unicode="&#x26;" horiz-adv-x="429" d="M173 -5 C217 -5 253 2 282 24 L294 0 L421 0 L358 125 C367 147 375 176 382 228 L406 416 L308 416 L289 262 L259 323 C250 339 242 354 235 369 C285 437 326 513 326 598 C326 689 303 747 193 747 C74 747 58 676 58 597 C58 532 66 479 100 399 C49 338 8 269 8 174 C8 34 56 -5 173 -5 L173 -5 Z M184 101 C131 101 124 126 124 183 C124 223 133 256 151 291 C155 283 159 275 164 267 L238 115 C223 103 205 101 184 101 L184 101 Z M167 594 C167 626 170 640 192 640 C213 640 217 628 217 594 C217 552 211 514 187 478 C170 526 167 558 167 594 L167 594 Z " />
<glyph glyph-name="quotesingle" unicode="&#x27;" horiz-adv-x="205" d="M46 436 L161 436 L165 741 L40 741 L46 436 Z " />
<glyph glyph-name="parenleft" unicode="&#x28;" horiz-adv-x="287" d="M146 -153 L242 -98 C213 -33 169 83 169 306 C169 527 208 628 242 709 L146 764 C102 687 47 532 47 304 C47 55 102 -77 146 -153 L146 -153 Z " />
<glyph glyph-name="parenright" unicode="&#x29;" horiz-adv-x="287" d="M141 -153 C185 -77 240 78 240 306 C240 555 185 687 141 764 L45 709 C74 644 118 527 118 304 C118 83 79 -18 45 -98 L141 -153 Z " />
<glyph glyph-name="asterisk" unicode="&#x2a;" horiz-adv-x="368" d="M134 373 L233 373 L225 488 L292 415 L355 494 L253 549 L356 622 L292 700 L225 626 L233 742 L134 742 L142 627 L76 700 L13 621 L114 549 L13 494 L77 415 L142 486 L134 373 Z " />
<glyph glyph-name="plus" unicode="&#x2b;" horiz-adv-x="380" d="M130 156 L250 156 L250 297 L336 297 L336 416 L250 416 L250 555 L130 555 L130 416 L43 416 L43 297 L130 297 L130 156 Z " />
<glyph glyph-name="comma" unicode="&#x2c;" horiz-adv-x="182" d="M68 -135 C143 -87 157 -60 157 52 L157 160 L25 160 L25 0 L74 0 C74 -35 69 -38 26 -73 L68 -135 Z " />
<glyph glyph-name="&amp;#x2d;" unicode="&#x2d;" horiz-adv-x="202" d="M16 278 L185 278 L185 396 L16 396 L16 278 Z " />
<glyph glyph-name="&amp;#xad;" unicode="&#xad;" horiz-adv-x="202" d="M16 278 L185 278 L185 396 L16 396 L16 278 Z " />
<glyph glyph-name="period" unicode="&#x2e;" horiz-adv-x="182" d="M25 0 L157 0 L157 160 L25 160 L25 0 Z " />
<glyph glyph-name="slash" unicode="&#x2f;" horiz-adv-x="321" d="M0 0 L121 0 L321 741 L200 741 L0 0 Z " />
<glyph glyph-name="zero" unicode="0" horiz-adv-x="371" d="M186 -6 C239 -6 282 3 304 28 C343 72 344 169 344 371 C344 551 343 653 305 704 C283 734 240 747 186 747 C132 747 89 734 67 705 C29 654 27 551 27 371 C27 182 29 79 70 31 C92 5 135 -6 186 -6 L186 -6 Z M186 109 C150 109 151 135 151 370 C151 605 151 625 186 625 C221 625 221 605 221 370 C221 135 222 109 186 109 L186 109 Z " />
<glyph glyph-name="one" unicode="1" horiz-adv-x="233" d="M67 0 L190 0 L190 741 L7 741 L7 620 L67 620 L67 0 Z " />
<glyph glyph-name="two" unicode="2" horiz-adv-x="309" d="M13 0 L296 0 L296 115 L137 115 L269 485 C286 533 295 572 295 612 C295 696 254 747 140 747 C78 747 35 736 10 725 L51 616 C67 622 95 629 123 629 C177 629 186 601 164 540 L13 114 L13 0 Z " />
<glyph glyph-name="three" unicode="3" horiz-adv-x="298" d="M117 -6 C171 -6 210 6 234 29 C270 65 277 128 277 220 C277 355 275 389 231 406 C271 424 272 459 272 571 C272 634 265 686 240 713 C219 735 182 747 131 747 C91 747 39 743 4 730 L37 621 C58 629 96 631 109 631 C149 631 153 604 153 540 C153 461 148 445 86 445 L55 445 L55 327 L80 327 C152 327 158 321 158 226 C158 136 152 108 103 108 C84 108 58 111 30 119 L1 9 C45 -4 97 -6 117 -6 L117 -6 Z " />
<glyph glyph-name="four" unicode="4" horiz-adv-x="362" d="M19 146 L189 146 L189 0 L302 0 L302 146 L349 146 L349 255 L302 255 L302 445 L210 445 L190 255 L140 255 L267 741 L150 741 L19 247 L19 146 Z " />
<glyph glyph-name="five" unicode="5" horiz-adv-x="319" d="M139 -6 C195 -6 232 4 257 26 C296 62 302 124 302 244 C302 368 298 437 268 472 C253 490 229 500 196 500 C156 500 140 494 130 485 L133 620 L276 620 L276 741 L27 741 L19 381 L97 365 C105 371 116 377 134 377 C177 377 180 363 180 246 C180 128 178 108 125 108 C100 108 65 115 41 123 L10 12 C53 1 83 -6 139 -6 L139 -6 Z " />
<glyph glyph-name="six" unicode="6" horiz-adv-x="362" d="M186 -6 C241 -6 282 6 304 33 C340 75 342 144 342 260 C342 363 341 449 312 484 C297 503 269 512 231 512 C179 512 161 498 150 485 C150 533 154 577 173 597 C190 615 220 620 267 620 C282 620 289 620 294 620 L294 741 C289 741 282 741 277 741 C177 741 109 725 76 685 C31 631 27 531 27 323 C27 177 28 83 72 33 C94 6 138 -6 186 -6 L186 -6 Z M189 106 C157 106 154 119 154 265 C154 379 158 397 189 397 C218 397 220 382 220 263 C220 125 217 106 189 106 L189 106 Z " />
<glyph glyph-name="seven" unicode="7" horiz-adv-x="319" d="M16 620 L175 620 L57 0 L185 0 L300 633 L300 741 L16 741 L16 620 Z " />
<glyph glyph-name="eight" unicode="8" horiz-adv-x="356" d="M177 -6 C232 -6 273 6 295 26 C331 61 335 122 335 204 C335 311 332 384 285 407 C322 429 326 483 326 574 C326 633 321 678 297 707 C277 732 237 747 177 747 C122 747 81 734 61 711 C34 682 30 636 30 574 C30 483 32 432 69 408 C22 384 21 311 21 204 C21 121 25 61 61 26 C82 6 123 -6 177 -6 L177 -6 Z M177 103 C147 103 145 125 145 223 C145 320 147 344 177 344 C209 344 210 320 210 223 C210 125 209 103 177 103 L177 103 Z M177 453 C152 453 148 467 148 545 C148 623 152 638 177 638 C202 638 208 623 208 545 C208 467 202 453 177 453 L177 453 Z " />
<glyph glyph-name="nine" unicode="9" horiz-adv-x="362" d="M68 0 C73 0 80 0 84 0 C185 0 245 16 281 56 C331 110 335 211 335 419 C335 564 334 659 285 709 C261 736 223 747 175 747 C120 747 86 735 62 709 C23 667 20 598 20 482 C20 378 21 291 52 256 C69 237 93 228 130 228 C182 228 200 241 211 255 C211 186 207 158 189 138 C171 120 141 115 94 115 C80 115 73 115 68 115 L68 0 Z M172 345 C144 345 142 358 142 475 C142 612 145 628 173 628 C205 628 207 616 207 473 C207 361 204 345 172 345 L172 345 Z " />
<glyph glyph-name="colon" unicode="&#x3a;" horiz-adv-x="187" d="M30 0 L158 0 L158 160 L30 160 L30 0 Z M30 406 L158 406 L158 566 L30 566 L30 406 Z " />
<glyph glyph-name="semicolon" unicode="&#x3b;" horiz-adv-x="187" d="M30 406 L158 406 L158 566 L30 566 L30 406 Z M72 -135 C147 -87 158 -60 158 52 L158 160 L30 160 L30 0 L78 0 C78 -35 70 -42 32 -72 L72 -135 Z " />
<glyph glyph-name="less" unicode="&#x3c;" horiz-adv-x="380" d="M304 119 L304 254 L178 352 L304 450 L304 584 L54 395 L54 308 L304 119 Z " />
<glyph glyph-name="equal" unicode="&#x3d;" horiz-adv-x="380" d="M46 391 L334 391 L334 509 L46 509 L46 391 Z M46 197 L334 197 L334 314 L46 314 L46 197 Z " />
<glyph glyph-name="greater" unicode="&#x3e;" horiz-adv-x="380" d="M76 119 L325 308 L325 395 L76 584 L76 449 L202 351 L76 253 L76 119 Z " />
<glyph glyph-name="question" unicode="&#x3f;" horiz-adv-x="302" d="M81 219 L199 219 C199 313 203 338 222 395 L258 500 C299 620 297 747 132 747 C71 747 30 737 4 726 L45 616 C57 621 88 629 118 629 C166 629 168 593 151 542 L109 419 C91 366 81 338 81 219 L81 219 Z M77 0 L205 0 L205 141 L77 141 L77 0 Z " />
<glyph glyph-name="at" unicode="&#x40;" horiz-adv-x="495" d="M363 -145 L363 -93 L247 -93 C84 -93 79 -9 79 294 C79 607 85 695 255 695 C407 695 417 614 417 360 L417 148 C417 100 416 88 397 88 C378 88 377 100 377 148 L377 550 L287 555 L277 538 C260 554 232 560 206 560 C178 560 156 550 143 536 C119 508 116 441 116 290 C116 140 118 87 142 59 C154 44 175 34 210 34 C263 34 282 43 302 68 C314 46 328 36 385 36 C466 36 472 84 472 149 L472 360 C472 540 465 641 417 693 C385 727 336 747 255 747 C167 747 114 726 81 688 C28 629 23 513 23 294 C23 71 30 -42 89 -97 C122 -128 170 -145 247 -145 L363 -145 Z M245 128 C224 128 220 133 220 292 C220 450 225 458 245 458 C274 458 274 442 274 292 C274 140 274 128 245 128 L245 128 Z " />
<glyph glyph-name="A" unicode="A" horiz-adv-x="365" d="M2 0 L125 0 L138 110 L221 110 L235 0 L363 0 L254 745 L110 745 L2 0 Z M166 346 L180 495 L193 346 L207 231 L152 231 L166 346 Z " />
<glyph glyph-name="B" unicode="B" horiz-adv-x="355" d="M28 0 L192 0 C304 0 335 60 335 201 C335 317 334 377 283 391 C329 410 330 470 330 554 C330 677 317 741 191 741 L28 741 L28 0 Z M150 112 L150 313 L180 313 C214 313 216 293 216 214 C216 135 214 112 180 112 L150 112 Z M150 433 L150 625 L178 625 C211 625 212 608 212 528 C212 448 210 433 178 433 L150 433 Z " />
<glyph glyph-name="C" unicode="C" horiz-adv-x="281" d="M189 -5 C227 -5 261 5 283 12 L257 121 C248 118 215 112 199 112 C145 112 144 127 144 368 C144 601 144 622 196 622 C209 622 239 620 255 616 L279 736 C268 739 230 746 190 746 C127 746 82 734 57 703 C15 650 16 555 16 371 C16 182 14 86 61 34 C85 6 127 -5 189 -5 L189 -5 Z " />
<glyph glyph-name="D" unicode="D" horiz-adv-x="368" d="M28 0 L195 0 C253 0 289 11 312 42 C351 89 351 178 351 371 C351 554 351 642 316 693 C292 727 256 741 195 741 L28 741 L28 0 Z M152 108 L152 628 L181 628 C227 628 227 594 227 368 C227 141 227 108 181 108 L152 108 Z " />
<glyph glyph-name="E" unicode="E" horiz-adv-x="291" d="M28 0 L276 0 L276 115 L152 115 L152 316 L273 316 L273 435 L152 435 L152 620 L276 620 L276 741 L28 741 L28 0 Z " />
<glyph glyph-name="F" unicode="F" horiz-adv-x="277" d="M28 0 L152 0 L152 303 L268 303 L268 422 L152 422 L152 620 L271 620 L271 741 L28 741 L28 0 Z " />
<glyph glyph-name="G" unicode="G" horiz-adv-x="347" d="M183 -4 C239 -4 277 7 298 31 C328 67 335 127 335 240 L335 440 L166 440 L166 321 L219 321 L219 230 C219 125 222 101 182 101 C139 101 139 137 139 368 C139 602 139 625 200 625 C235 625 267 620 287 616 L312 733 C279 741 232 746 187 746 C129 746 81 733 57 703 C16 652 16 559 16 371 C16 168 17 79 63 28 C85 2 118 -4 183 -4 L183 -4 Z " />
<glyph glyph-name="H" unicode="H" horiz-adv-x="378" d="M28 0 L152 0 L152 316 L226 316 L226 0 L350 0 L350 741 L226 741 L226 445 L152 445 L152 741 L28 741 L28 0 Z " />
<glyph glyph-name="I" unicode="I" horiz-adv-x="183" d="M30 0 L153 0 L153 741 L30 741 L30 0 Z " />
<glyph glyph-name="J" unicode="J" horiz-adv-x="215" d="M66 0 C142 0 190 36 190 137 L190 741 L66 741 L66 152 C66 125 59 115 31 115 L6 115 L6 0 L66 0 Z " />
<glyph glyph-name="K" unicode="K" horiz-adv-x="357" d="M28 0 L150 0 L150 171 L175 272 L231 0 L356 0 L258 460 L340 741 L220 741 L150 481 L150 741 L28 741 L28 0 Z " />
<glyph glyph-name="L" unicode="L" horiz-adv-x="269" d="M28 0 L263 0 L263 115 L152 115 L152 741 L28 741 L28 0 Z " />
<glyph glyph-name="M" unicode="M" horiz-adv-x="462" d="M28 0 L138 0 L138 457 L145 341 L184 0 L269 0 L308 342 L315 457 L315 0 L434 0 L434 741 L274 741 L236 406 L229 322 L223 406 L187 741 L28 741 L28 0 Z " />
<glyph glyph-name="N" unicode="N" horiz-adv-x="378" d="M28 0 L144 0 L144 384 L165 286 L232 0 L350 0 L350 741 L233 741 L233 397 L212 503 L160 741 L28 741 L28 0 Z " />
<glyph glyph-name="O" unicode="O" horiz-adv-x="362" d="M181 -6 C241 -6 281 3 303 28 C345 74 346 164 346 371 C346 560 345 655 304 706 C282 734 241 747 181 747 C121 747 81 734 57 704 C18 652 16 557 16 371 C16 177 18 82 60 32 C82 5 122 -6 181 -6 L181 -6 Z M181 111 C142 111 142 124 142 368 C142 610 142 624 181 624 C221 624 221 610 221 368 C221 124 221 111 181 111 L181 111 Z " />
<glyph glyph-name="P" unicode="P" horiz-adv-x="352" d="M28 0 L152 0 L152 242 L197 242 C328 242 340 342 340 499 C340 656 328 741 191 741 L28 741 L28 0 Z M152 359 L152 624 L181 624 C216 624 217 595 217 490 C217 387 216 359 181 359 L152 359 Z " />
<glyph glyph-name="Q" unicode="Q" horiz-adv-x="362" d="M285 -160 L285 -52 L256 -52 C223 -52 215 -42 215 -16 L215 -1 C254 2 285 11 303 31 C345 77 346 164 346 371 C346 560 345 655 304 706 C282 734 241 747 181 747 C121 747 81 734 57 704 C18 652 16 557 16 371 C16 177 18 85 60 35 C71 21 88 12 109 6 L109 -25 C109 -129 144 -160 248 -160 L285 -160 Z M181 111 C142 111 142 123 142 368 C142 613 142 624 181 624 C221 624 221 613 221 368 C221 123 221 111 181 111 L181 111 Z " />
<glyph glyph-name="R" unicode="R" horiz-adv-x="347" d="M28 0 L148 0 L148 252 L163 252 L211 0 L332 0 L277 282 C328 320 336 386 336 506 C336 659 319 741 193 741 L28 741 L28 0 Z M148 367 L148 624 L177 624 C212 624 213 597 213 497 C213 400 212 367 177 367 L148 367 Z " />
<glyph glyph-name="S" unicode="S" horiz-adv-x="304" d="M125 -7 C317 -7 301 144 259 256 L152 542 C135 588 138 624 191 624 C204 624 231 623 247 619 L276 740 C249 745 208 747 181 747 C8 747 0 605 39 501 L154 194 C176 136 167 110 118 110 C97 110 56 114 34 119 L7 4 C35 -2 83 -7 125 -7 L125 -7 Z " />
<glyph glyph-name="T" unicode="T" horiz-adv-x="308" d="M90 0 L215 0 L215 622 L302 622 L302 741 L6 741 L6 622 L90 622 L90 0 Z " />
<glyph glyph-name="U" unicode="U" horiz-adv-x="369" d="M183 -6 C334 -9 344 67 344 210 L344 741 L223 741 L223 207 C223 128 221 110 186 110 C151 110 149 128 149 207 L149 741 L25 741 L25 210 C25 65 36 -6 183 -6 L183 -6 Z " />
<glyph glyph-name="V" unicode="V" horiz-adv-x="360" d="M100 -4 L260 -4 L358 741 L234 741 L196 388 L182 219 L168 388 L129 741 L2 741 L100 -4 Z " />
<glyph glyph-name="W" unicode="W" horiz-adv-x="527" d="M88 -4 L222 -4 L255 291 L264 403 L274 291 L309 -4 L438 -4 L508 741 L389 741 L366 421 L360 283 L350 422 L322 741 L215 741 L187 424 L176 283 L170 424 L148 741 L19 741 L88 -4 Z " />
<glyph glyph-name="X" unicode="X" horiz-adv-x="363" d="M239 0 L361 0 L245 382 L349 741 L232 741 L189 569 L137 741 L14 741 L117 400 L1 0 L117 0 L173 216 L239 0 Z " />
<glyph glyph-name="Y" unicode="Y" horiz-adv-x="343" d="M109 0 L233 0 L233 226 L343 741 L219 741 L173 449 L128 741 L0 741 L109 231 L109 0 Z " />
<glyph glyph-name="Z" unicode="Z" horiz-adv-x="302" d="M8 0 L294 0 L294 115 L141 115 L288 634 L288 741 L16 741 L16 620 L157 620 L8 95 L8 0 Z " />
<glyph glyph-name="bracketleft" unicode="&#x5b;" horiz-adv-x="291" d="M51 -145 L252 -145 L252 -45 L172 -45 L172 650 L250 650 L250 756 L51 756 L51 -145 Z " />
<glyph glyph-name="backslash" unicode="&#x5c;" horiz-adv-x="321" d="M200 0 L321 0 L121 741 L0 741 L200 0 Z " />
<glyph glyph-name="bracketright" unicode="&#x5d;" horiz-adv-x="291" d="M40 -145 L242 -145 L242 756 L42 756 L42 650 L121 650 L121 -45 L40 -45 L40 -145 Z " />
<glyph glyph-name="asciicircum" unicode="&#x5e;" horiz-adv-x="287" d="M18 610 L112 610 L141 666 L172 610 L268 610 L204 745 L82 745 L18 610 Z " />
<glyph glyph-name="underscore" unicode="&#x5f;" horiz-adv-x="220" d="M-18 -129 L238 -129 L238 -41 L-18 -41 L-18 -129 Z " />
<glyph glyph-name="grave" unicode="&#x60;" horiz-adv-x="287" d="M110 610 L207 610 L164 745 L29 745 L110 610 Z " />
<glyph glyph-name="a" unicode="a" horiz-adv-x="326" d="M114 -4 C165 -4 185 4 204 27 C214 4 225 -2 277 -2 C287 -2 309 -2 318 0 L318 114 C296 114 294 120 294 146 L294 436 C294 537 269 573 163 573 C110 573 65 566 35 559 L60 444 C80 449 130 456 147 456 C175 456 178 447 178 411 L178 394 C38 390 11 341 11 175 C11 70 21 -4 114 -4 L114 -4 Z M150 103 C125 103 124 125 124 184 C124 277 126 290 178 292 L178 201 C178 122 178 103 150 103 L150 103 Z " />
<glyph glyph-name="b" unicode="b" horiz-adv-x="339" d="M221 -6 C254 -6 281 5 297 23 C323 55 326 108 326 284 C326 462 325 512 298 543 C283 561 260 573 227 573 C200 573 160 567 141 547 L141 756 L22 756 L22 2 L127 -3 L138 18 C158 -1 185 -6 221 -6 L221 -6 Z M174 105 C142 105 142 129 142 278 C142 427 142 453 174 453 C205 453 205 439 205 278 C205 115 205 105 174 105 L174 105 Z " />
<glyph glyph-name="c" unicode="c" horiz-adv-x="256" d="M159 -4 C192 -4 225 0 246 7 L222 114 C208 110 187 108 176 108 C138 108 135 119 135 280 C135 435 138 451 175 451 C189 451 205 450 219 446 L245 564 C227 569 193 571 163 571 C110 571 70 557 49 533 C13 488 11 412 11 284 C11 151 13 69 55 27 C76 7 115 -4 159 -4 L159 -4 Z " />
<glyph glyph-name="d" unicode="d" horiz-adv-x="339" d="M112 -6 C158 -6 183 -2 209 23 L214 -3 L317 3 L317 756 L197 756 L197 549 C177 567 144 571 116 571 C82 571 58 559 43 541 C16 510 13 459 13 283 C13 105 14 56 41 24 C56 6 79 -6 112 -6 L112 -6 Z M165 104 C134 104 134 118 134 279 C134 442 134 452 165 452 C197 452 197 429 197 279 C197 130 197 104 165 104 L165 104 Z " />
<glyph glyph-name="e" unicode="e" horiz-adv-x="302" d="M158 -6 C210 -6 246 2 286 15 L253 124 C231 116 194 108 170 108 C137 108 130 117 129 219 L291 219 L291 284 C291 414 289 498 257 540 C240 562 205 573 157 573 C107 573 69 559 49 537 C11 493 11 414 11 284 C11 150 12 68 54 26 C76 5 111 -6 158 -6 L158 -6 Z M156 456 C181 456 181 447 181 325 L129 325 C129 439 132 456 156 456 L156 456 Z " />
<glyph glyph-name="f" unicode="f" horiz-adv-x="231" d="M6 455 L51 455 L51 0 L171 0 L171 455 L230 455 L230 566 L171 566 L171 603 C171 632 179 639 210 639 L230 639 L230 756 C223 757 203 758 199 758 C90 758 51 724 51 619 L51 566 L6 566 L6 455 Z " />
<glyph glyph-name="g" unicode="g" horiz-adv-x="325" d="M162 208 C283 208 307 251 307 385 C307 441 298 484 284 508 L321 508 L321 602 L181 571 C174 572 167 572 162 572 C40 572 18 518 18 386 C18 306 26 258 58 233 C48 214 43 192 43 161 C43 139 47 120 59 105 C22 80 4 50 4 -10 C4 -116 48 -149 163 -149 C284 -149 321 -103 321 23 C321 120 297 154 168 167 C142 169 137 178 137 198 L137 208 L162 208 Z M161 62 C201 57 208 47 208 7 C208 -36 203 -54 163 -54 C118 -54 114 -35 114 3 C114 31 120 48 138 65 C145 64 153 63 161 62 L161 62 Z M163 301 C134 301 134 313 134 386 C134 459 134 470 163 470 C190 470 191 459 191 386 C191 313 190 301 163 301 L163 301 Z " />
<glyph glyph-name="h" unicode="h" horiz-adv-x="344" d="M22 0 L142 0 L142 388 C142 443 154 453 177 453 C197 453 202 446 202 394 L202 0 L323 0 L323 441 C323 520 310 573 227 573 C182 573 155 563 141 548 L141 756 L22 756 L22 0 Z " />
<glyph glyph-name="i" unicode="i" horiz-adv-x="167" d="M23 0 L144 0 L144 566 L23 566 L23 0 Z M23 614 L144 614 L144 741 L23 741 L23 614 Z " />
<glyph glyph-name="j" unicode="j" horiz-adv-x="167" d="M-5 -145 C103 -145 144 -117 144 -16 L144 566 L23 566 L23 4 C23 -25 23 -31 -5 -31 L-5 -145 Z M23 614 L144 614 L144 741 L23 741 L23 614 Z " />
<glyph glyph-name="k" unicode="k" horiz-adv-x="327" d="M22 0 L137 0 L137 104 L163 188 L206 0 L327 0 L244 349 L318 566 L202 566 L137 365 L137 756 L22 756 L22 0 Z " />
<glyph glyph-name="l" unicode="l" horiz-adv-x="187" d="M128 -2 C134 -2 167 -2 175 0 L175 114 L160 114 C146 114 144 120 144 136 L144 756 L23 756 L23 133 C23 41 38 -2 128 -2 L128 -2 Z " />
<glyph glyph-name="m" unicode="m" horiz-adv-x="517" d="M22 0 L141 0 L141 378 C141 442 152 453 175 453 C196 453 199 446 199 394 L199 0 L318 0 L318 378 C318 442 329 453 352 453 C372 453 376 446 376 394 L376 0 L496 0 L496 441 C496 520 483 573 401 573 C366 573 322 566 304 541 C291 563 271 573 224 573 C171 573 141 559 130 539 L125 567 L22 562 L22 0 Z " />
<glyph glyph-name="n" unicode="n" horiz-adv-x="344" d="M22 0 L142 0 L142 388 C142 443 154 453 177 453 C197 453 202 446 202 394 L202 0 L323 0 L323 441 C323 520 310 573 227 573 C167 573 141 557 130 540 L125 567 L22 562 L22 0 Z " />
<glyph glyph-name="o" unicode="o" horiz-adv-x="327" d="M164 -6 C215 -6 256 5 277 27 C316 68 316 146 316 284 C316 411 316 489 280 533 C259 558 217 573 164 573 C111 573 70 560 49 535 C11 490 11 411 11 284 C11 151 11 68 54 26 C76 6 117 -6 164 -6 L164 -6 Z M164 105 C132 105 132 118 132 280 C132 440 132 453 164 453 C196 453 196 440 196 280 C196 118 197 105 164 105 L164 105 Z " />
<glyph glyph-name="p" unicode="p" horiz-adv-x="339" d="M22 -145 L142 -145 L142 18 C162 0 188 -4 223 -4 C257 -4 281 8 296 26 C323 58 326 108 326 284 C326 462 325 511 298 543 C283 561 260 573 227 573 C190 573 147 567 130 539 L125 567 L22 562 L22 -145 Z M174 105 C142 105 142 129 142 278 C142 427 142 453 174 453 C205 453 205 439 205 278 C205 115 205 105 174 105 L174 105 Z " />
<glyph glyph-name="q" unicode="q" horiz-adv-x="339" d="M198 -145 L317 -145 L317 563 L212 568 L201 545 C181 566 146 571 118 571 C85 571 58 559 43 541 C16 510 13 456 13 280 C13 99 15 56 41 25 C56 7 79 -5 112 -5 C139 -5 179 1 198 21 L198 -145 Z M165 104 C134 104 134 118 134 279 C134 442 134 452 165 452 C197 452 197 429 197 279 C197 130 197 104 165 104 L165 104 Z " />
<glyph glyph-name="r" unicode="r" horiz-adv-x="215" d="M22 0 L144 0 L144 368 C144 433 162 451 213 451 L213 570 C171 570 142 559 131 533 L125 567 L22 562 L22 0 Z " />
<glyph glyph-name="s" unicode="s" horiz-adv-x="260" d="M109 -6 C253 -6 269 111 222 220 L144 401 C131 431 134 456 166 456 C184 456 202 453 213 450 L239 565 C225 568 192 573 153 573 C15 573 -13 463 36 348 L117 163 C132 127 120 104 87 104 C63 104 46 107 28 110 L2 3 C35 -4 62 -6 109 -6 L109 -6 Z " />
<glyph glyph-name="t" unicode="t" horiz-adv-x="240" d="M175 -2 C184 -2 216 -2 228 0 L228 114 L198 114 C176 114 171 122 171 146 L171 455 L228 455 L228 566 L171 566 L171 708 L71 680 L57 566 L6 566 L6 455 L51 455 L51 135 C51 49 69 -2 175 -2 L175 -2 Z " />
<glyph glyph-name="u" unicode="u" horiz-adv-x="340" d="M170 -5 C301 -5 318 51 318 173 L318 566 L201 566 L201 184 C201 116 199 104 172 104 C143 104 141 115 141 183 L141 566 L21 566 L21 173 C21 53 40 -5 170 -5 L170 -5 Z " />
<glyph glyph-name="v" unicode="v" horiz-adv-x="308" d="M82 -5 L226 -5 L308 566 L190 566 L167 312 L157 177 L147 312 L124 566 L0 566 L82 -5 Z " />
<glyph glyph-name="w" unicode="w" horiz-adv-x="432" d="M58 -5 L182 -5 L207 184 L218 292 L229 185 L256 -5 L374 -5 L428 566 L321 566 L308 338 L305 220 L294 338 L268 566 L172 566 L145 338 L134 218 L131 339 L119 566 L5 566 L58 -5 Z " />
<glyph glyph-name="x" unicode="x" horiz-adv-x="307" d="M-5 0 L104 0 L142 138 L188 0 L311 0 L218 280 L306 566 L198 566 L164 441 L123 566 L0 566 L88 301 L-5 0 Z " />
<glyph glyph-name="y" unicode="y" horiz-adv-x="310" d="M43 -143 C48 -144 68 -145 73 -145 C142 -145 191 -123 208 -32 L311 566 L195 566 L167 322 L158 239 L150 321 L121 566 L0 566 L98 -14 C95 -26 87 -31 64 -31 L43 -31 L43 -143 Z " />
<glyph glyph-name="z" unicode="z" horiz-adv-x="255" d="M1 0 L254 0 L254 101 L129 101 L250 486 L250 566 L9 566 L9 455 L119 455 L1 78 L1 0 Z " />
<glyph glyph-name="braceleft" unicode="&#x7b;" horiz-adv-x="308" d="M188 -146 L270 -146 L270 -45 L233 -45 C202 -45 192 -34 192 -2 C192 46 214 166 214 231 C214 265 205 291 178 306 C206 320 214 345 214 379 C214 444 192 559 192 607 C192 639 202 650 233 650 L270 650 L270 756 L188 756 C109 756 70 720 70 631 C70 573 94 458 94 404 C94 365 81 361 31 361 L31 249 C81 249 94 245 94 206 C94 152 70 37 70 -21 C70 -110 109 -146 188 -146 L188 -146 Z " />
<glyph glyph-name="bar" unicode="&#x7c;" horiz-adv-x="222" d="M51 -145 L172 -145 L172 757 L51 757 L51 -145 Z " />
<glyph glyph-name="braceright" unicode="&#x7d;" horiz-adv-x="308" d="M38 -146 L120 -146 C199 -146 239 -110 239 -21 C239 37 214 152 214 206 C214 245 227 249 277 249 L277 361 C227 361 214 365 214 404 C214 458 239 573 239 631 C239 720 199 756 120 756 L38 756 L38 650 L76 650 C107 650 116 639 116 607 C116 559 94 444 94 379 C94 345 103 320 131 306 C103 291 94 265 94 231 C94 166 116 46 116 -2 C116 -34 107 -45 76 -45 L38 -45 L38 -146 Z " />
<glyph glyph-name="asciitilde" unicode="&#x7e;" horiz-adv-x="287" d="M14 360 L99 360 C99 379 105 385 115 385 C130 385 171 360 201 360 C250 360 276 375 273 479 L187 479 C187 460 182 454 171 454 C156 454 115 479 85 479 C37 479 10 463 14 360 L14 360 Z " />
<glyph glyph-name="exclamdown" unicode="&#xa1;" horiz-adv-x="225" d="M48 0 L177 0 L168 522 L57 522 L48 0 Z M47 582 L179 582 L179 741 L47 741 L47 582 Z " />
<glyph glyph-name="cent" unicode="&#xa2;" horiz-adv-x="271" d="M103 -95 L205 -95 L205 -3 C225 -1 244 2 258 7 L234 110 C221 106 199 104 188 104 C148 104 148 119 148 280 C148 435 148 455 187 455 C201 455 218 454 232 450 L257 564 C245 567 225 569 205 570 L205 645 L103 645 L103 560 C85 553 71 544 61 533 C25 488 23 412 23 284 C23 151 25 69 67 27 C76 18 88 11 103 6 L103 -95 Z " />
<glyph glyph-name="sterling" unicode="&#xa3;" horiz-adv-x="360" d="M242 -2 C327 -2 340 45 340 156 L340 203 L238 203 L238 165 C238 117 237 101 211 101 C205 101 198 101 192 102 C197 132 194 168 190 206 L177 329 L248 329 L248 428 L166 428 L153 555 C148 605 154 629 199 629 C220 629 242 626 257 620 L303 731 C271 742 241 747 189 747 C60 747 23 680 38 543 L50 428 L17 428 L17 329 L61 329 L75 197 C83 119 78 115 22 114 L22 0 C70 0 106 6 131 18 C161 4 195 -2 242 -2 L242 -2 Z " />
<glyph glyph-name="currency" unicode="&#xa4;" horiz-adv-x="349" d="M12 390 L70 390 L70 350 L12 350 L12 256 L70 256 C71 142 78 74 114 34 C136 7 177 -3 236 -3 C272 -3 304 6 327 13 L301 119 C292 116 262 111 246 111 C201 111 192 125 190 256 L284 256 L284 350 L190 350 L190 390 L284 390 L284 484 L190 484 C192 608 200 627 243 627 C256 627 283 624 298 621 L323 738 C312 741 276 747 237 747 C175 747 134 735 111 705 C78 665 71 596 70 484 L12 484 L12 390 Z " />
<glyph glyph-name="yen" unicode="&#xa5;" horiz-adv-x="366" d="M37 203 L126 203 L126 164 L37 164 L37 69 L126 69 L126 0 L239 0 L239 69 L328 69 L328 164 L239 164 L239 203 L328 203 L328 297 L244 297 L359 741 L234 741 L183 437 L132 741 L7 741 L121 297 L37 297 L37 203 Z " />
<glyph glyph-name="brokenbar" unicode="&#xa6;" horiz-adv-x="222" d="M51 388 L172 388 L172 756 L51 756 L51 388 Z M51 -145 L172 -145 L172 223 L51 223 L51 -145 Z " />
<glyph glyph-name="section" unicode="&#xa7;" horiz-adv-x="327" d="M53 0 C187 0 229 28 229 137 L229 197 C246 201 260 206 271 213 C313 237 313 289 313 376 C313 453 313 505 275 533 C260 543 239 550 212 554 L212 586 C212 621 218 630 271 630 L271 741 C137 741 95 713 95 604 L95 551 C78 547 64 541 54 534 C14 505 14 454 14 376 C14 294 14 238 61 212 C74 204 91 199 112 195 L112 155 C112 120 106 111 53 111 L53 0 Z M164 289 C135 289 131 298 131 372 C131 448 135 456 164 456 C193 456 197 448 197 372 C197 298 193 289 164 289 L164 289 Z " />
<glyph glyph-name="dieresis" unicode="&#xa8;" horiz-adv-x="287" d="M29 610 L129 610 L129 734 L29 734 L29 610 Z M158 610 L258 610 L258 734 L158 734 L158 610 Z " />
<glyph glyph-name="copyright" unicode="&#xa9;" horiz-adv-x="385" d="M208 137 C231 137 252 143 267 148 L251 215 C244 213 224 210 214 210 C185 210 181 224 181 367 C181 506 182 525 212 525 C221 525 238 523 249 520 L264 595 C257 597 233 601 209 601 C170 601 144 593 130 577 C102 544 102 479 102 370 C102 257 101 190 132 158 C146 144 171 137 208 137 L208 137 Z M194 -3 C248 -3 285 9 309 35 C354 81 367 181 367 371 C367 553 355 653 314 701 C289 731 252 745 194 745 C138 745 101 732 76 704 C34 656 20 556 20 371 C20 176 34 75 82 31 C107 9 142 -3 194 -3 L194 -3 Z M194 46 C82 46 71 118 71 371 C71 624 83 696 194 696 C305 696 316 624 316 371 C316 118 305 46 194 46 L194 46 Z " />
<glyph glyph-name="ordfeminine" unicode="&#xaa;" horiz-adv-x="298" d="M111 284 C151 284 165 292 178 314 C185 293 198 286 240 286 C248 286 266 286 274 288 L274 380 C256 380 255 384 255 404 L255 638 C255 718 234 747 149 747 C107 747 70 742 46 736 L66 643 C82 648 122 652 136 652 C159 652 161 646 161 618 L161 603 C49 600 27 561 27 428 C27 343 35 284 111 284 L111 284 Z M43 148 L253 148 L253 237 L43 237 L43 148 Z M139 370 C119 370 118 387 118 435 C118 510 119 522 161 523 L161 449 C161 385 162 370 139 370 L139 370 Z " />
<glyph glyph-name="guillemotleft" unicode="&#xab;" horiz-adv-x="407" d="M100 0 L206 0 L140 282 L206 566 L100 566 L27 282 L100 0 Z M262 0 L366 0 L300 282 L366 566 L262 566 L189 282 L262 0 Z " />
<glyph glyph-name="logicalnot" unicode="&#xac;" horiz-adv-x="832" d="M126 120 C126 120 129 123 134 127 C79 193 46 278 46 371 C46 464 79 549 133 615 C129 619 126 621 126 621 C70 554 36 466 36 371 C36 275 70 187 126 120 L126 120 Z M228 211 C230 213 233 215 235 218 C201 259 181 313 181 371 C181 429 202 483 235 524 C232 526 230 529 227 531 C192 487 171 432 171 371 C171 310 193 254 228 211 L228 211 Z M264 243 C267 245 269 248 272 250 C245 283 229 325 229 371 C229 417 245 459 272 492 C269 494 267 497 264 499 C236 464 219 419 219 371 C219 322 236 278 264 243 L264 243 Z M316 289 C319 291 321 294 324 296 C308 317 298 343 298 371 C298 399 308 425 323 445 C321 448 318 450 316 452 C298 430 288 402 288 371 C288 340 298 312 316 289 L316 289 Z M349 320 C352 323 354 325 357 327 C348 340 343 355 343 371 C343 387 348 402 357 415 C354 417 352 420 349 422 C339 408 333 390 333 371 C333 352 339 334 349 320 L349 320 Z M378 346 C382 349 384 351 384 351 C381 357 379 364 379 371 C379 378 381 385 384 391 C384 391 382 393 378 396 C374 389 371 380 371 371 C371 362 374 353 378 346 L378 346 Z M416 60 C493 60 563 89 616 136 C614 139 611 141 609 144 C558 98 490 70 416 70 C342 70 274 98 222 144 C222 145 215 137 215 137 C268 89 338 60 416 60 L416 60 Z M416 324 C426 324 435 327 442 333 C439 337 437 339 437 339 C431 334 424 332 416 332 C408 332 401 335 395 339 C395 339 391 334 389 333 C397 327 406 324 416 324 L416 324 Z M482 319 C493 334 499 352 499 371 C499 390 493 408 482 422 C483 422 475 415 475 415 C484 403 489 388 489 371 C489 355 484 339 475 326 C478 324 480 322 482 319 L482 319 Z M292 269 C295 271 298 274 300 276 C280 302 267 335 267 371 C267 407 280 440 300 466 L293 473 C270 445 257 410 257 371 C257 333 270 297 292 269 L292 269 Z M416 -17 C512 -17 600 19 667 80 C667 80 660 88 660 87 C595 29 510 -7 416 -7 C322 -7 236 29 171 88 L164 80 C231 20 320 -17 416 -17 L416 -17 Z M416 121 C478 121 534 144 576 182 C574 185 571 187 569 190 C529 153 475 131 416 131 C357 131 303 153 262 190 L255 182 C298 144 354 121 416 121 L416 121 Z M416 170 C465 170 510 188 544 218 C542 221 539 223 537 226 C505 197 462 180 416 180 C369 180 327 197 294 226 L287 219 C322 189 367 170 416 170 L416 170 Z M416 209 C455 209 491 224 518 247 C516 250 514 253 512 255 C486 233 452 219 416 219 C380 219 346 233 320 255 L313 247 C341 224 377 209 416 209 L416 209 Z M416 265 C441 265 463 274 481 289 C479 292 476 294 474 297 C458 283 438 275 416 275 C394 275 373 283 357 297 L350 289 C368 274 391 265 416 265 L416 265 Z M358 445 C374 459 394 467 416 467 C438 467 458 459 474 445 L482 453 C464 468 441 477 416 477 C391 477 368 468 350 453 C351 452 354 448 358 445 L358 445 Z M570 552 C572 554 575 557 577 560 C534 598 478 621 416 621 C355 621 299 598 256 560 L263 553 C304 589 357 611 416 611 C475 611 529 589 570 552 L570 552 Z M454 346 C458 353 461 362 461 371 C461 380 458 389 454 396 L448 391 C451 385 453 378 453 371 C453 364 451 357 448 351 C448 351 450 349 454 346 L454 346 Z M468 333 C476 344 480 357 480 371 C480 385 476 398 468 409 L460 402 C466 393 470 382 470 371 C470 360 466 349 460 340 C463 338 465 336 468 333 L468 333 Z M498 306 C511 325 519 347 519 371 C519 395 511 418 497 436 L490 429 C502 413 509 393 509 371 C509 349 502 329 490 313 C492 311 495 308 498 306 L498 306 Z M540 269 C562 297 575 332 575 371 C575 410 562 445 539 473 L531 466 C552 440 565 407 565 371 C565 335 552 302 532 276 C535 274 537 271 540 269 L540 269 Z M568 243 C596 278 613 322 613 371 C613 420 596 464 568 499 L560 492 C587 459 603 417 603 371 C603 325 587 283 560 250 C563 248 566 245 568 243 L568 243 Z M604 211 C640 254 661 310 661 371 C661 432 640 488 604 531 L596 524 C631 483 651 429 651 371 C651 313 631 260 596 218 C601 213 604 211 604 211 L604 211 Z M649 171 C694 225 721 295 721 371 C721 447 694 517 649 571 L641 564 C685 512 711 445 711 371 C711 297 685 230 642 177 C644 175 647 173 649 171 L649 171 Z M706 120 C762 188 796 276 796 371 C796 467 762 555 706 622 L698 615 C753 549 786 464 786 371 C786 278 753 193 698 127 C703 123 706 120 706 120 L706 120 Z M183 170 L190 177 C147 229 121 297 121 371 C121 444 147 512 190 564 C187 567 184 569 182 571 C138 517 111 447 111 371 C111 294 138 225 183 170 L183 170 Z M334 306 L342 314 C330 330 323 350 323 371 C323 393 330 413 342 429 C340 431 337 434 334 436 C321 418 313 395 313 371 C313 346 321 324 334 306 L334 306 Z M364 333 L371 340 C366 349 362 360 362 371 C362 382 366 393 371 402 C369 404 366 406 364 409 C356 398 352 385 352 371 C352 357 356 344 364 333 L364 333 Z M395 403 C401 408 408 410 416 410 C424 410 431 407 437 403 C437 403 439 406 442 409 C435 415 426 418 416 418 C406 418 397 415 390 409 L395 403 Z M384 416 C393 423 404 428 416 428 C428 428 439 424 448 416 C450 419 452 421 454 423 C443 432 430 437 416 437 C401 437 388 432 377 423 L384 416 Z M371 430 C383 441 399 447 416 447 C433 447 449 441 461 430 C461 430 464 434 468 438 C454 450 436 457 416 457 C397 457 378 450 364 438 L371 430 Z M295 516 C327 545 370 562 416 562 C462 562 505 545 538 516 C538 516 545 523 544 523 C510 554 465 572 416 572 C367 572 322 554 288 524 L295 516 Z M416 240 C448 240 476 252 498 271 L491 278 C471 261 445 250 416 250 C388 250 361 261 340 278 L333 270 C355 251 384 240 416 240 L416 240 Z M416 285 C436 285 454 292 468 304 L461 312 C448 301 433 295 416 295 C399 295 383 302 370 312 L363 304 C378 292 396 285 416 285 L416 285 Z M416 305 C430 305 444 310 455 319 L448 326 C439 319 428 314 416 314 C404 314 393 319 383 326 L376 319 C388 310 401 305 416 305 L416 305 Z M341 464 C362 482 388 492 416 492 C445 492 471 481 491 464 L498 472 C476 491 447 502 416 502 C385 502 356 490 334 471 L341 464 Z M320 487 C346 509 380 523 416 523 C453 523 486 510 512 487 L518 494 C491 518 455 533 416 533 C377 533 341 519 313 495 L320 487 Z M610 597 L617 605 C563 653 493 682 416 682 C339 682 269 653 215 605 L222 598 C274 644 342 672 416 672 C491 672 559 644 610 597 L610 597 Z M172 654 C237 713 322 749 416 749 C510 749 596 713 661 654 L668 662 C601 722 512 759 416 759 C320 759 232 723 165 662 L172 654 Z M516 290 C534 312 544 340 544 371 C544 402 534 430 516 453 L508 446 C524 425 534 399 534 371 C534 343 524 317 509 297 L516 290 Z " />
<glyph glyph-name="registered" unicode="&#xae;" horiz-adv-x="385" d="M194 -3 C248 -3 285 9 309 35 C354 81 367 181 367 371 C367 553 355 653 314 701 C289 731 252 745 194 745 C138 745 101 732 76 704 C34 656 20 556 20 371 C20 176 34 75 82 31 C107 9 142 -3 194 -3 L194 -3 Z M194 46 C82 46 71 118 71 371 C71 624 83 696 194 696 C305 696 316 624 316 371 C316 118 305 46 194 46 L194 46 Z M212 158 L281 158 L248 331 C279 355 284 396 284 451 C284 539 274 586 202 586 L109 586 L109 158 L177 158 L177 314 L183 314 L212 158 Z M177 371 L177 522 L193 522 C213 522 214 506 214 446 C214 388 213 371 193 371 L177 371 Z " />
<glyph glyph-name="&amp;#xaf;" unicode="&#xaf;" horiz-adv-x="287" d="M27 611 L259 611 L259 723 L27 723 L27 611 Z " />
<glyph glyph-name="&amp;#x2c9;" unicode="&#x2c9;" horiz-adv-x="287" d="M27 611 L259 611 L259 723 L27 723 L27 611 Z " />
<glyph glyph-name="degree" unicode="&#xb0;" horiz-adv-x="292" d="M145 267 C190 267 224 276 241 294 C270 325 273 382 273 507 C273 621 270 680 243 714 C225 735 191 747 145 747 C101 747 68 735 50 715 C22 681 19 622 19 507 C19 388 22 326 54 294 C72 277 104 267 145 267 L145 267 Z M145 369 C121 369 120 388 120 503 C120 619 121 637 145 637 C171 637 171 619 171 503 C171 388 170 369 145 369 L145 369 Z " />
<glyph glyph-name="plusminus" unicode="&#xb1;" horiz-adv-x="565" d="M224 0 L344 0 L344 455 L380 455 L380 566 L344 566 L344 603 C344 632 353 639 376 639 L380 639 L380 756 C374 757 364 758 357 758 C257 758 224 724 224 619 L224 566 L167 566 L167 603 C167 632 176 639 199 639 L203 639 L203 756 C197 757 187 758 180 758 C80 758 48 724 48 619 L48 566 L3 566 L3 455 L48 455 L48 0 L167 0 L167 455 L224 455 L224 0 Z M506 -2 C512 -2 545 -2 553 0 L553 114 L538 114 C524 114 522 120 522 136 L522 756 L401 756 L401 133 C401 41 416 -2 506 -2 L506 -2 Z " />
<glyph glyph-name="twosuperior" unicode="&#xb2;" horiz-adv-x="285" d="M38 244 L246 244 L246 328 L139 328 L226 558 C237 586 245 607 245 649 C245 716 212 745 126 745 C82 745 52 738 36 731 L68 646 C78 650 98 654 117 654 C139 654 148 647 148 629 C148 621 145 611 141 600 L38 328 L38 244 Z " />
<glyph glyph-name="threesuperior" unicode="&#xb3;" horiz-adv-x="266" d="M113 241 C156 241 183 248 200 265 C224 288 230 331 230 392 C230 475 229 504 199 516 C225 529 226 556 226 627 C226 668 221 703 204 721 C190 737 164 745 124 745 C95 745 57 743 31 733 L55 649 C69 654 95 655 104 655 C131 655 134 647 134 605 C134 554 130 550 91 550 L67 550 L67 458 L86 458 C133 458 137 457 137 397 C137 338 133 329 100 329 C86 329 69 331 51 336 L30 251 C59 243 98 241 113 241 L113 241 Z " />
<glyph glyph-name="acute" unicode="&#xb4;" horiz-adv-x="287" d="M79 610 L177 610 L258 745 L123 745 L79 610 Z " />
<glyph glyph-name="&amp;#xb5;" unicode="&#xb5;" horiz-adv-x="340" d="M22 -145 L142 -145 L142 3 C149 -2 159 -5 171 -5 C227 -5 263 7 285 27 C318 58 319 110 319 175 L319 566 L201 566 L201 190 C201 123 199 104 172 104 C144 104 142 122 142 190 L142 566 L22 566 L22 -145 Z " />
<glyph glyph-name="&amp;#x3bc;" unicode="&#x3bc;" horiz-adv-x="340" d="M22 -145 L142 -145 L142 3 C149 -2 159 -5 171 -5 C227 -5 263 7 285 27 C318 58 319 110 319 175 L319 566 L201 566 L201 190 C201 123 199 104 172 104 C144 104 142 122 142 190 L142 566 L22 566 L22 -145 Z " />
<glyph glyph-name="paragraph" unicode="&#xb6;" horiz-adv-x="350" d="M77 0 L189 0 L189 260 L210 260 L210 0 L322 0 L322 741 L148 741 C25 741 18 639 18 501 C18 398 22 315 77 279 L77 0 Z M177 357 C137 357 135 392 135 492 C135 595 137 629 177 629 L210 629 L210 357 L177 357 Z " />
<glyph glyph-name="&amp;#xb7;" unicode="&#xb7;" horiz-adv-x="182" d="M25 289 L157 289 L157 450 L25 450 L25 289 Z " />
<glyph glyph-name="&amp;#x2219;" unicode="&#x2219;" horiz-adv-x="182" d="M25 289 L157 289 L157 450 L25 450 L25 289 Z " />
<glyph glyph-name="cedilla" unicode="&#xb8;" horiz-adv-x="287" d="M159 -201 C214 -201 239 -182 239 -103 C239 -36 212 -28 177 -28 L182 7 L119 7 L111 -47 L128 -65 C160 -65 168 -67 168 -95 C168 -123 163 -129 141 -129 C126 -129 116 -128 96 -122 L77 -189 C108 -199 124 -201 159 -201 L159 -201 Z " />
<glyph glyph-name="onesuperior" unicode="&#xb9;" horiz-adv-x="237" d="M75 244 L178 244 L178 741 L34 741 L34 648 L75 648 L75 244 Z " />
<glyph glyph-name="ordmasculine" unicode="&#xba;" horiz-adv-x="297" d="M43 148 L255 148 L255 237 L43 237 L43 148 Z M149 282 C189 282 223 291 239 309 C270 342 270 403 270 515 C270 618 270 679 241 715 C225 735 191 747 149 747 C106 747 73 737 56 717 C26 681 26 618 26 515 C26 408 26 342 61 307 C78 291 111 282 149 282 L149 282 Z M149 372 C124 372 124 381 124 512 C124 640 124 651 149 651 C173 651 173 640 173 512 C173 381 174 372 149 372 L149 372 Z " />
<glyph glyph-name="guillemotright" unicode="&#xbb;" horiz-adv-x="407" d="M40 0 L146 0 L218 283 L146 566 L40 566 L107 283 L40 0 Z M201 0 L306 0 L379 283 L306 566 L201 566 L268 283 L201 0 Z " />
<glyph glyph-name="onequarter" unicode="&#xbc;" horiz-adv-x="587" d="M124 0 L233 0 L428 741 L319 741 L124 0 Z M328 87 L444 87 L444 0 L535 0 L535 87 L568 87 L568 173 L535 173 L535 273 L475 273 L446 173 L422 173 L508 497 L416 497 L328 167 L328 87 Z M61 244 L164 244 L164 741 L20 741 L20 648 L61 648 L61 244 Z " />
<glyph glyph-name="onehalf" unicode="&#xbd;" horiz-adv-x="619" d="M124 0 L233 0 L428 741 L319 741 L124 0 Z M61 244 L164 244 L164 741 L20 741 L20 648 L61 648 L61 244 Z M378 0 L586 0 L586 83 L479 83 L566 313 C577 342 585 363 585 405 C585 471 552 501 465 501 C422 501 392 494 376 486 L408 401 C418 405 438 409 456 409 C479 409 488 402 488 385 C488 377 485 366 481 355 L378 83 L378 0 Z " />
<glyph glyph-name="threequarters" unicode="&#xbe;" horiz-adv-x="627" d="M164 0 L273 0 L468 741 L359 741 L164 0 Z M368 87 L485 87 L485 0 L576 0 L576 87 L608 87 L608 173 L576 173 L576 273 L515 273 L487 173 L462 173 L548 497 L456 497 L368 167 L368 87 Z M106 241 C149 241 176 248 193 265 C217 288 223 331 223 392 C223 475 222 504 192 516 C218 529 219 556 219 627 C219 668 214 703 197 721 C183 737 157 745 117 745 C88 745 50 743 24 733 L48 649 C62 654 88 655 97 655 C124 655 127 647 127 605 C127 554 123 550 84 550 L60 550 L60 458 L79 458 C126 458 130 457 130 397 C130 338 126 329 93 329 C79 329 62 331 44 336 L23 251 C52 243 91 241 106 241 L106 241 Z " />
<glyph glyph-name="questiondown" unicode="&#xbf;" horiz-adv-x="302" d="M170 -6 C231 -6 272 4 298 15 L257 125 C245 120 214 112 184 112 C136 112 134 148 151 199 L193 322 C211 375 221 403 221 522 L103 522 C103 428 99 403 80 346 L44 241 C3 121 5 -6 170 -6 L170 -6 Z M97 600 L225 600 L225 741 L97 741 L97 600 Z " />
<glyph glyph-name="Agrave" unicode="&#xc0;" horiz-adv-x="365" d="M2 0 L125 0 L138 110 L221 110 L235 0 L363 0 L254 745 L110 745 L2 0 Z M166 346 L180 495 L193 346 L207 231 L152 231 L166 346 Z M149 771 L246 771 L203 906 L68 906 L149 771 Z " />
<glyph glyph-name="Aacute" unicode="&#xc1;" horiz-adv-x="365" d="M2 0 L125 0 L138 110 L221 110 L235 0 L363 0 L254 745 L110 745 L2 0 Z M166 346 L180 495 L193 346 L207 231 L152 231 L166 346 Z M118 771 L216 771 L297 906 L162 906 L118 771 Z " />
<glyph glyph-name="Acircumflex" unicode="&#xc2;" horiz-adv-x="365" d="M2 0 L125 0 L138 110 L221 110 L235 0 L363 0 L254 745 L110 745 L2 0 Z M166 346 L180 495 L193 346 L207 231 L152 231 L166 346 Z M57 771 L151 771 L180 827 L211 771 L307 771 L243 906 L121 906 L57 771 Z " />
<glyph glyph-name="Atilde" unicode="&#xc3;" horiz-adv-x="365" d="M2 0 L125 0 L138 110 L221 110 L235 0 L363 0 L254 745 L110 745 L2 0 Z M166 346 L180 495 L193 346 L207 231 L152 231 L166 346 Z M53 771 L138 771 C138 790 144 796 154 796 C169 796 210 771 240 771 C289 771 315 786 312 890 L226 890 C226 871 221 865 210 865 C195 865 154 890 124 890 C76 890 49 874 53 771 L53 771 Z " />
<glyph glyph-name="Adieresis" unicode="&#xc4;" horiz-adv-x="365" d="M2 0 L125 0 L138 110 L221 110 L235 0 L363 0 L254 745 L110 745 L2 0 Z M166 346 L180 495 L193 346 L207 231 L152 231 L166 346 Z M68 771 L168 771 L168 895 L68 895 L68 771 Z M197 771 L297 771 L297 895 L197 895 L197 771 Z " />
<glyph glyph-name="Aring" unicode="&#xc5;" horiz-adv-x="365" d="M2 0 L125 0 L138 110 L221 110 L235 0 L363 0 L252 734 C259 751 264 776 264 802 C264 861 256 906 182 906 C109 906 101 861 101 802 C101 777 105 752 112 735 L2 0 Z M166 346 L180 495 L193 346 L207 231 L152 231 L166 346 Z M182 753 C160 753 159 766 159 800 C159 835 160 850 182 850 C204 850 206 835 206 800 C206 766 204 753 182 753 L182 753 Z " />
<glyph glyph-name="AE" unicode="&#xc6;" horiz-adv-x="471" d="M-8 0 L116 0 L138 135 L212 135 L212 0 L456 0 L456 115 L331 115 L331 316 L451 316 L451 434 L331 434 L331 620 L456 620 L456 741 L139 741 L-8 0 Z M154 235 L212 591 L212 235 L154 235 Z " />
<glyph glyph-name="Ccedilla" unicode="&#xc7;" horiz-adv-x="281" d="M157 -201 C212 -201 237 -182 237 -103 C237 -36 210 -28 175 -28 L178 -5 L189 -5 C227 -5 261 5 283 12 L257 121 C248 118 215 112 199 112 C145 112 144 127 144 368 C144 601 144 622 196 622 C209 622 239 620 255 616 L279 736 C268 739 230 746 190 746 C127 746 82 734 57 703 C15 650 16 555 16 371 C16 182 14 86 61 34 C74 19 92 8 116 2 L109 -47 L126 -65 C158 -65 166 -67 166 -95 C166 -123 161 -129 139 -129 C124 -129 114 -128 94 -122 L75 -189 C106 -199 122 -201 157 -201 L157 -201 Z " />
<glyph glyph-name="Egrave" unicode="&#xc8;" horiz-adv-x="291" d="M28 0 L276 0 L276 115 L152 115 L152 316 L273 316 L273 435 L152 435 L152 620 L276 620 L276 741 L28 741 L28 0 Z M112 771 L209 771 L166 906 L31 906 L112 771 Z " />
<glyph glyph-name="Eacute" unicode="&#xc9;" horiz-adv-x="291" d="M81 771 L179 771 L260 906 L125 906 L81 771 Z M28 0 L276 0 L276 115 L152 115 L152 316 L273 316 L273 435 L152 435 L152 620 L276 620 L276 741 L28 741 L28 0 Z " />
<glyph glyph-name="Ecircumflex" unicode="&#xca;" horiz-adv-x="291" d="M20 771 L114 771 L143 827 L174 771 L270 771 L206 906 L84 906 L20 771 Z M28 0 L276 0 L276 115 L152 115 L152 316 L273 316 L273 435 L152 435 L152 620 L276 620 L276 741 L28 741 L28 0 Z " />
<glyph glyph-name="Edieresis" unicode="&#xcb;" horiz-adv-x="291" d="M31 771 L131 771 L131 895 L31 895 L31 771 Z M160 771 L260 771 L260 895 L160 895 L160 771 Z M28 0 L276 0 L276 115 L152 115 L152 316 L273 316 L273 435 L152 435 L152 620 L276 620 L276 741 L28 741 L28 0 Z " />
<glyph glyph-name="Igrave" unicode="&#xcc;" horiz-adv-x="183" d="M44 771 L149 771 L116 907 L-27 907 L44 771 Z M27 0 L150 0 L150 741 L27 741 L27 0 Z " />
<glyph glyph-name="Iacute" unicode="&#xcd;" horiz-adv-x="183" d="M34 771 L139 771 L210 907 L67 907 L34 771 Z M27 0 L150 0 L150 741 L27 741 L27 0 Z " />
<glyph glyph-name="Icircumflex" unicode="&#xce;" horiz-adv-x="183" d="M-29 771 L64 771 L90 827 L116 771 L211 771 L152 907 L30 907 L-29 771 Z M27 0 L150 0 L150 741 L27 741 L27 0 Z " />
<glyph glyph-name="Idieresis" unicode="&#xcf;" horiz-adv-x="183" d="M27 0 L150 0 L150 741 L27 741 L27 0 Z M-22 771 L78 771 L78 895 L-22 895 L-22 771 Z M107 771 L207 771 L207 895 L107 895 L107 771 Z " />
<glyph glyph-name="Eth" unicode="&#xd0;" horiz-adv-x="368" d="M1 319 L28 319 L28 0 L195 0 C253 0 289 11 312 42 C351 89 351 178 351 371 C351 554 351 642 316 693 C292 727 256 741 195 741 L28 741 L28 426 L1 426 L1 319 Z M152 108 L152 319 L197 319 L197 426 L152 426 L152 628 L181 628 C227 628 227 594 227 368 C227 141 227 108 181 108 L152 108 Z " />
<glyph glyph-name="Ntilde" unicode="&#xd1;" horiz-adv-x="378" d="M28 0 L144 0 L144 384 L165 286 L232 0 L350 0 L350 741 L233 741 L233 397 L212 503 L160 741 L28 741 L28 0 Z M59 771 L144 771 C144 790 150 796 160 796 C175 796 216 771 246 771 C295 771 321 786 318 890 L232 890 C232 871 227 865 216 865 C201 865 160 890 130 890 C82 890 55 874 59 771 L59 771 Z " />
<glyph glyph-name="Ograve" unicode="&#xd2;" horiz-adv-x="362" d="M181 -6 C241 -6 281 3 303 28 C345 74 346 164 346 371 C346 560 345 655 304 706 C282 734 241 747 181 747 C121 747 81 734 57 704 C18 652 16 557 16 371 C16 177 18 82 60 32 C82 5 122 -6 181 -6 L181 -6 Z M181 111 C142 111 142 124 142 368 C142 610 142 624 181 624 C221 624 221 610 221 368 C221 124 221 111 181 111 L181 111 Z M148 771 L245 771 L202 906 L67 906 L148 771 Z " />
<glyph glyph-name="Oacute" unicode="&#xd3;" horiz-adv-x="362" d="M117 771 L215 771 L296 906 L161 906 L117 771 Z M181 -6 C241 -6 281 3 303 28 C345 74 346 164 346 371 C346 560 345 655 304 706 C282 734 241 747 181 747 C121 747 81 734 57 704 C18 652 16 557 16 371 C16 177 18 82 60 32 C82 5 122 -6 181 -6 L181 -6 Z M181 111 C142 111 142 124 142 368 C142 610 142 624 181 624 C221 624 221 610 221 368 C221 124 221 111 181 111 L181 111 Z " />
<glyph glyph-name="Ocircumflex" unicode="&#xd4;" horiz-adv-x="362" d="M56 771 L150 771 L179 827 L210 771 L306 771 L242 906 L120 906 L56 771 Z M181 -6 C241 -6 281 3 303 28 C345 74 346 164 346 371 C346 560 345 655 304 706 C282 734 241 747 181 747 C121 747 81 734 57 704 C18 652 16 557 16 371 C16 177 18 82 60 32 C82 5 122 -6 181 -6 L181 -6 Z M181 111 C142 111 142 124 142 368 C142 610 142 624 181 624 C221 624 221 610 221 368 C221 124 221 111 181 111 L181 111 Z " />
<glyph glyph-name="Otilde" unicode="&#xd5;" horiz-adv-x="362" d="M181 -6 C241 -6 281 3 303 28 C345 74 346 164 346 371 C346 560 345 655 304 706 C282 734 241 747 181 747 C121 747 81 734 57 704 C18 652 16 557 16 371 C16 177 18 82 60 32 C82 5 122 -6 181 -6 L181 -6 Z M181 111 C142 111 142 124 142 368 C142 610 142 624 181 624 C221 624 221 610 221 368 C221 124 221 111 181 111 L181 111 Z M52 771 L137 771 C137 790 143 796 153 796 C168 796 209 771 239 771 C288 771 314 786 311 890 L225 890 C225 871 220 865 209 865 C194 865 153 890 123 890 C75 890 48 874 52 771 L52 771 Z " />
<glyph glyph-name="Odieresis" unicode="&#xd6;" horiz-adv-x="362" d="M67 771 L167 771 L167 895 L67 895 L67 771 Z M196 771 L296 771 L296 895 L196 895 L196 771 Z M181 -6 C241 -6 281 3 303 28 C345 74 346 164 346 371 C346 560 345 655 304 706 C282 734 241 747 181 747 C121 747 81 734 57 704 C18 652 16 557 16 371 C16 177 18 82 60 32 C82 5 122 -6 181 -6 L181 -6 Z M181 111 C142 111 142 124 142 368 C142 610 142 624 181 624 C221 624 221 610 221 368 C221 124 221 111 181 111 L181 111 Z " />
<glyph glyph-name="multiply" unicode="&#xd7;" horiz-adv-x="380" d="M114 207 L190 283 L266 207 L339 280 L263 356 L339 432 L265 505 L189 429 L113 505 L41 432 L116 356 L40 280 L114 207 Z " />
<glyph glyph-name="Oslash" unicode="&#xd8;" horiz-adv-x="362" d="M84 -41 L148 -41 L154 -5 C162 -5 171 -6 181 -6 C241 -6 281 3 303 28 C345 74 346 164 346 371 C346 560 345 655 304 706 C295 717 284 725 270 732 L278 783 L214 783 L208 746 C199 746 190 747 181 747 C121 747 81 734 57 704 C18 652 16 557 16 371 C16 177 18 82 60 32 C68 22 79 14 92 8 L84 -41 Z M181 103 C175 103 170 103 165 105 L228 507 C229 467 229 402 229 368 C229 123 228 103 181 103 L181 103 Z M134 368 C134 613 134 632 181 632 C186 632 191 632 196 630 L135 243 C134 282 134 337 134 368 L134 368 Z " />
<glyph glyph-name="Ugrave" unicode="&#xd9;" horiz-adv-x="369" d="M183 -6 C334 -9 344 67 344 210 L344 741 L223 741 L223 207 C223 128 221 110 186 110 C151 110 149 128 149 207 L149 741 L25 741 L25 210 C25 65 36 -6 183 -6 L183 -6 Z M151 771 L248 771 L205 906 L70 906 L151 771 Z " />
<glyph glyph-name="Uacute" unicode="&#xda;" horiz-adv-x="369" d="M120 771 L218 771 L299 906 L164 906 L120 771 Z M183 -6 C334 -9 344 67 344 210 L344 741 L223 741 L223 207 C223 128 221 110 186 110 C151 110 149 128 149 207 L149 741 L25 741 L25 210 C25 65 36 -6 183 -6 L183 -6 Z " />
<glyph glyph-name="Ucircumflex" unicode="&#xdb;" horiz-adv-x="369" d="M59 771 L153 771 L182 827 L213 771 L309 771 L245 906 L123 906 L59 771 Z M183 -6 C334 -9 344 67 344 210 L344 741 L223 741 L223 207 C223 128 221 110 186 110 C151 110 149 128 149 207 L149 741 L25 741 L25 210 C25 65 36 -6 183 -6 L183 -6 Z " />
<glyph glyph-name="Udieresis" unicode="&#xdc;" horiz-adv-x="369" d="M70 771 L170 771 L170 895 L70 895 L70 771 Z M199 771 L299 771 L299 895 L199 895 L199 771 Z M183 -6 C334 -9 344 67 344 210 L344 741 L223 741 L223 207 C223 128 221 110 186 110 C151 110 149 128 149 207 L149 741 L25 741 L25 210 C25 65 36 -6 183 -6 L183 -6 Z " />
<glyph glyph-name="Yacute" unicode="&#xdd;" horiz-adv-x="343" d="M109 0 L233 0 L233 226 L343 741 L219 741 L173 449 L128 741 L0 741 L109 231 L109 0 Z M107 771 L205 771 L286 906 L151 906 L107 771 Z " />
<glyph glyph-name="Thorn" unicode="&#xde;" horiz-adv-x="352" d="M28 0 L152 0 L152 141 L197 141 C328 141 340 231 340 387 C340 545 328 630 191 630 L152 630 L152 741 L28 741 L28 0 Z M152 246 L152 517 L181 517 C216 517 217 488 217 378 C217 272 216 246 181 246 L152 246 Z " />
<glyph glyph-name="germandbls" unicode="&#xdf;" horiz-adv-x="346" d="M22 0 L142 0 L142 604 C142 639 145 658 178 658 C211 658 214 646 214 548 C214 451 211 439 178 439 L169 439 L169 339 L178 339 C214 339 223 333 223 223 C223 112 214 106 178 106 L169 106 L169 0 L178 0 C327 0 335 43 335 209 C335 368 327 388 283 408 C312 423 321 448 321 575 C321 726 298 767 178 767 C63 767 22 722 22 609 L22 0 Z " />
<glyph glyph-name="agrave" unicode="&#xe0;" horiz-adv-x="326" d="M114 -4 C165 -4 185 4 204 27 C214 4 225 -2 277 -2 C287 -2 309 -2 318 0 L318 114 C296 114 294 120 294 146 L294 436 C294 537 269 573 163 573 C110 573 65 566 35 559 L60 444 C80 449 130 456 147 456 C175 456 178 447 178 411 L178 394 C38 390 11 341 11 175 C11 70 21 -4 114 -4 L114 -4 Z M150 103 C125 103 124 125 124 184 C124 277 126 290 178 292 L178 201 C178 122 178 103 150 103 L150 103 Z M130 610 L227 610 L184 745 L49 745 L130 610 Z " />
<glyph glyph-name="aacute" unicode="&#xe1;" horiz-adv-x="326" d="M114 -4 C165 -4 185 4 204 27 C214 4 225 -2 277 -2 C287 -2 309 -2 318 0 L318 114 C296 114 294 120 294 146 L294 436 C294 537 269 573 163 573 C110 573 65 566 35 559 L60 444 C80 449 130 456 147 456 C175 456 178 447 178 411 L178 394 C38 390 11 341 11 175 C11 70 21 -4 114 -4 L114 -4 Z M150 103 C125 103 124 125 124 184 C124 277 126 290 178 292 L178 201 C178 122 178 103 150 103 L150 103 Z M99 610 L197 610 L278 745 L143 745 L99 610 Z " />
<glyph glyph-name="acircumflex" unicode="&#xe2;" horiz-adv-x="326" d="M114 -4 C165 -4 185 4 204 27 C214 4 225 -2 277 -2 C287 -2 309 -2 318 0 L318 114 C296 114 294 120 294 146 L294 436 C294 537 269 573 163 573 C110 573 65 566 35 559 L60 444 C80 449 130 456 147 456 C175 456 178 447 178 411 L178 394 C38 390 11 341 11 175 C11 70 21 -4 114 -4 L114 -4 Z M150 103 C125 103 124 125 124 184 C124 277 126 290 178 292 L178 201 C178 122 178 103 150 103 L150 103 Z M38 610 L132 610 L161 666 L192 610 L288 610 L224 745 L102 745 L38 610 Z " />
<glyph glyph-name="atilde" unicode="&#xe3;" horiz-adv-x="326" d="M114 -4 C165 -4 185 4 204 27 C214 4 225 -2 277 -2 C287 -2 309 -2 318 0 L318 114 C296 114 294 120 294 146 L294 436 C294 537 269 573 163 573 C110 573 65 566 35 559 L60 444 C80 449 130 456 147 456 C175 456 178 447 178 411 L178 394 C38 390 11 341 11 175 C11 70 21 -4 114 -4 L114 -4 Z M150 103 C125 103 124 125 124 184 C124 277 126 290 178 292 L178 201 C178 122 178 103 150 103 L150 103 Z M34 610 L119 610 C119 629 125 635 135 635 C150 635 191 610 221 610 C270 610 296 625 293 729 L207 729 C207 710 202 704 191 704 C176 704 135 729 105 729 C57 729 30 713 34 610 L34 610 Z " />
<glyph glyph-name="adieresis" unicode="&#xe4;" horiz-adv-x="326" d="M114 -4 C165 -4 185 4 204 27 C214 4 225 -2 277 -2 C287 -2 309 -2 318 0 L318 114 C296 114 294 120 294 146 L294 436 C294 537 269 573 163 573 C110 573 65 566 35 559 L60 444 C80 449 130 456 147 456 C175 456 178 447 178 411 L178 394 C38 390 11 341 11 175 C11 70 21 -4 114 -4 L114 -4 Z M150 103 C125 103 124 125 124 184 C124 277 126 290 178 292 L178 201 C178 122 178 103 150 103 L150 103 Z M49 610 L149 610 L149 734 L49 734 L49 610 Z M178 610 L278 610 L278 734 L178 734 L178 610 Z " />
<glyph glyph-name="aring" unicode="&#xe5;" horiz-adv-x="326" d="M114 -4 C165 -4 185 4 204 27 C214 4 225 -2 277 -2 C287 -2 309 -2 318 0 L318 114 C296 114 294 120 294 146 L294 436 C294 537 269 573 163 573 C110 573 65 566 35 559 L60 444 C80 449 130 456 147 456 C175 456 178 447 178 411 L178 394 C38 390 11 341 11 175 C11 70 21 -4 114 -4 L114 -4 Z M150 103 C125 103 124 125 124 184 C124 277 126 290 178 292 L178 201 C178 122 178 103 150 103 L150 103 Z M163 608 C237 608 245 651 245 710 C245 769 237 814 163 814 C90 814 82 769 82 710 C82 651 90 608 163 608 L163 608 Z M163 661 C141 661 140 674 140 708 C140 743 141 758 163 758 C185 758 187 743 187 708 C187 674 185 661 163 661 L163 661 Z " />
<glyph glyph-name="ae" unicode="&#xe6;" horiz-adv-x="471" d="M327 -6 C379 -6 416 2 455 15 L423 122 C401 114 364 106 340 106 C306 106 300 116 299 219 L460 219 L460 284 C462 414 461 498 428 540 C411 562 374 573 326 573 C292 573 267 566 249 555 C229 567 202 573 163 573 C113 573 67 567 35 559 L60 444 C80 449 129 456 147 456 C175 456 178 446 178 411 L178 394 C38 390 11 341 11 175 C11 70 21 -4 114 -4 C157 -4 195 -1 221 39 C224 34 228 30 232 26 C253 5 281 -6 327 -6 L327 -6 Z M150 103 C124 103 124 129 124 184 C124 277 126 292 178 294 L178 201 C178 122 178 103 150 103 L150 103 Z M326 456 C350 456 350 452 350 324 L299 324 C299 439 302 456 326 456 L326 456 Z " />
<glyph glyph-name="ccedilla" unicode="&#xe7;" horiz-adv-x="256" d="M144 -201 C199 -201 224 -182 224 -103 C224 -36 197 -28 162 -28 L165 -4 C196 -3 226 0 246 7 L222 114 C208 110 187 108 176 108 C138 108 135 119 135 280 C135 435 138 451 175 451 C189 451 205 450 219 446 L245 564 C227 569 193 571 163 571 C110 571 70 557 49 533 C13 488 11 412 11 284 C11 151 13 69 55 27 C66 16 83 7 103 2 L96 -47 L113 -65 C145 -65 153 -67 153 -95 C153 -123 148 -129 126 -129 C111 -129 101 -128 81 -122 L62 -189 C93 -199 109 -201 144 -201 L144 -201 Z " />
<glyph glyph-name="egrave" unicode="&#xe8;" horiz-adv-x="302" d="M158 -6 C210 -6 246 2 286 15 L253 124 C231 116 194 108 170 108 C137 108 130 117 129 219 L291 219 L291 284 C291 414 289 498 257 540 C240 562 205 573 157 573 C107 573 69 559 49 537 C11 493 11 414 11 284 C11 150 12 68 54 26 C76 5 111 -6 158 -6 L158 -6 Z M156 456 C181 456 181 447 181 325 L129 325 C129 439 132 456 156 456 L156 456 Z M117 610 L214 610 L171 745 L36 745 L117 610 Z " />
<glyph glyph-name="eacute" unicode="&#xe9;" horiz-adv-x="302" d="M86 610 L184 610 L265 745 L130 745 L86 610 Z M158 -6 C210 -6 246 2 286 15 L253 124 C231 116 194 108 170 108 C137 108 130 117 129 219 L291 219 L291 284 C291 414 289 498 257 540 C240 562 205 573 157 573 C107 573 69 559 49 537 C11 493 11 414 11 284 C11 150 12 68 54 26 C76 5 111 -6 158 -6 L158 -6 Z M156 456 C181 456 181 447 181 325 L129 325 C129 439 132 456 156 456 L156 456 Z " />
<glyph glyph-name="ecircumflex" unicode="&#xea;" horiz-adv-x="302" d="M25 610 L119 610 L148 666 L179 610 L275 610 L211 745 L89 745 L25 610 Z M158 -6 C210 -6 246 2 286 15 L253 124 C231 116 194 108 170 108 C137 108 130 117 129 219 L291 219 L291 284 C291 414 289 498 257 540 C240 562 205 573 157 573 C107 573 69 559 49 537 C11 493 11 414 11 284 C11 150 12 68 54 26 C76 5 111 -6 158 -6 L158 -6 Z M156 456 C181 456 181 447 181 325 L129 325 C129 439 132 456 156 456 L156 456 Z " />
<glyph glyph-name="edieresis" unicode="&#xeb;" horiz-adv-x="302" d="M36 610 L136 610 L136 734 L36 734 L36 610 Z M165 610 L265 610 L265 734 L165 734 L165 610 Z M158 -6 C210 -6 246 2 286 15 L253 124 C231 116 194 108 170 108 C137 108 130 117 129 219 L291 219 L291 284 C291 414 289 498 257 540 C240 562 205 573 157 573 C107 573 69 559 49 537 C11 493 11 414 11 284 C11 150 12 68 54 26 C76 5 111 -6 158 -6 L158 -6 Z M156 456 C181 456 181 447 181 325 L129 325 C129 439 132 456 156 456 L156 456 Z " />
<glyph glyph-name="igrave" unicode="&#xec;" horiz-adv-x="167" d="M37 610 L141 610 L108 745 L-27 745 L37 610 Z M22 0 L143 0 L143 566 L22 566 L22 0 Z " />
<glyph glyph-name="iacute" unicode="&#xed;" horiz-adv-x="167" d="M26 610 L131 610 L194 745 L59 745 L26 610 Z M22 0 L143 0 L143 566 L22 566 L22 0 Z " />
<glyph glyph-name="icircumflex" unicode="&#xee;" horiz-adv-x="167" d="M-36 610 L58 610 L82 665 L106 610 L202 610 L144 745 L22 745 L-36 610 Z M22 0 L143 0 L143 566 L22 566 L22 0 Z " />
<glyph glyph-name="idieresis" unicode="&#xef;" horiz-adv-x="167" d="M-22 612 L70 612 L70 736 L-22 736 L-22 612 Z M97 612 L189 612 L189 736 L97 736 L97 612 Z M22 0 L143 0 L143 566 L22 566 L22 0 Z " />
<glyph glyph-name="eth" unicode="&#xf0;" horiz-adv-x="328" d="M121 579 L186 595 C191 578 195 560 198 543 C190 554 168 560 149 560 C104 560 66 548 48 527 C11 485 12 401 12 284 C12 151 12 68 55 26 C77 5 118 -6 164 -6 C217 -6 258 6 277 27 C317 68 317 148 317 284 L317 323 C317 450 308 540 285 620 L319 629 L319 709 L259 694 C249 717 238 740 226 764 L129 731 C138 715 149 694 160 669 L121 659 L121 579 Z M164 105 C132 105 132 118 132 280 C132 440 132 453 164 453 C197 453 197 440 197 280 C197 118 198 105 164 105 L164 105 Z " />
<glyph glyph-name="ntilde" unicode="&#xf1;" horiz-adv-x="344" d="M22 0 L142 0 L142 388 C142 443 154 453 177 453 C197 453 202 446 202 394 L202 0 L323 0 L323 441 C323 520 310 573 227 573 C167 573 141 557 130 540 L125 567 L22 562 L22 0 Z M42 610 L127 610 C127 629 133 635 143 635 C158 635 199 610 229 610 C278 610 304 625 301 729 L215 729 C215 710 210 704 199 704 C184 704 143 729 113 729 C65 729 38 713 42 610 L42 610 Z " />
<glyph glyph-name="ograve" unicode="&#xf2;" horiz-adv-x="327" d="M164 -6 C215 -6 256 5 277 27 C316 68 316 146 316 284 C316 411 316 489 280 533 C259 558 217 573 164 573 C111 573 70 560 49 535 C11 490 11 411 11 284 C11 151 11 68 54 26 C76 6 117 -6 164 -6 L164 -6 Z M164 105 C132 105 132 118 132 280 C132 440 132 453 164 453 C196 453 196 440 196 280 C196 118 197 105 164 105 L164 105 Z M130 610 L227 610 L184 745 L49 745 L130 610 Z " />
<glyph glyph-name="oacute" unicode="&#xf3;" horiz-adv-x="327" d="M99 610 L197 610 L278 745 L143 745 L99 610 Z M164 -6 C215 -6 256 5 277 27 C316 68 316 146 316 284 C316 411 316 489 280 533 C259 558 217 573 164 573 C111 573 70 560 49 535 C11 490 11 411 11 284 C11 151 11 68 54 26 C76 6 117 -6 164 -6 L164 -6 Z M164 105 C132 105 132 118 132 280 C132 440 132 453 164 453 C196 453 196 440 196 280 C196 118 197 105 164 105 L164 105 Z " />
<glyph glyph-name="ocircumflex" unicode="&#xf4;" horiz-adv-x="327" d="M38 610 L132 610 L161 666 L192 610 L288 610 L224 745 L102 745 L38 610 Z M164 -6 C215 -6 256 5 277 27 C316 68 316 146 316 284 C316 411 316 489 280 533 C259 558 217 573 164 573 C111 573 70 560 49 535 C11 490 11 411 11 284 C11 151 11 68 54 26 C76 6 117 -6 164 -6 L164 -6 Z M164 105 C132 105 132 118 132 280 C132 440 132 453 164 453 C196 453 196 440 196 280 C196 118 197 105 164 105 L164 105 Z " />
<glyph glyph-name="otilde" unicode="&#xf5;" horiz-adv-x="327" d="M164 -6 C215 -6 256 5 277 27 C316 68 316 146 316 284 C316 411 316 489 280 533 C259 558 217 573 164 573 C111 573 70 560 49 535 C11 490 11 411 11 284 C11 151 11 68 54 26 C76 6 117 -6 164 -6 L164 -6 Z M164 105 C132 105 132 118 132 280 C132 440 132 453 164 453 C196 453 196 440 196 280 C196 118 197 105 164 105 L164 105 Z M34 610 L119 610 C119 629 125 635 135 635 C150 635 191 610 221 610 C270 610 296 625 293 729 L207 729 C207 710 202 704 191 704 C176 704 135 729 105 729 C57 729 30 713 34 610 L34 610 Z " />
<glyph glyph-name="odieresis" unicode="&#xf6;" horiz-adv-x="327" d="M49 610 L149 610 L149 734 L49 734 L49 610 Z M178 610 L278 610 L278 734 L178 734 L178 610 Z M164 -6 C215 -6 256 5 277 27 C316 68 316 146 316 284 C316 411 316 489 280 533 C259 558 217 573 164 573 C111 573 70 560 49 535 C11 490 11 411 11 284 C11 151 11 68 54 26 C76 6 117 -6 164 -6 L164 -6 Z M164 105 C132 105 132 118 132 280 C132 440 132 453 164 453 C196 453 196 440 196 280 C196 118 197 105 164 105 L164 105 Z " />
<glyph glyph-name="divide" unicode="&#xf7;" horiz-adv-x="380" d="M132 136 L248 136 L248 247 L132 247 L132 136 Z M43 297 L336 297 L336 415 L43 415 L43 297 Z M132 465 L248 465 L248 576 L132 576 L132 465 Z " />
<glyph glyph-name="oslash" unicode="&#xf8;" horiz-adv-x="327" d="M64 -43 L131 -43 L138 -5 C146 -6 155 -6 164 -6 C215 -6 256 5 277 27 C316 68 316 146 316 284 C316 411 316 489 280 533 C273 541 263 548 252 554 L264 610 L196 610 L188 572 C180 572 172 573 164 573 C111 573 70 560 49 535 C11 490 11 411 11 284 C11 151 11 68 54 26 C60 20 67 16 75 12 L64 -43 Z M164 98 C158 98 154 98 150 100 L204 366 L204 280 C204 118 204 98 164 98 L164 98 Z M124 280 C124 440 124 461 164 461 C168 461 172 461 175 459 L124 204 C123 231 124 264 124 280 L124 280 Z " />
<glyph glyph-name="ugrave" unicode="&#xf9;" horiz-adv-x="340" d="M170 -5 C301 -5 318 51 318 173 L318 566 L201 566 L201 184 C201 116 199 104 172 104 C143 104 141 115 141 183 L141 566 L21 566 L21 173 C21 53 40 -5 170 -5 L170 -5 Z M136 610 L233 610 L190 745 L55 745 L136 610 Z " />
<glyph glyph-name="uacute" unicode="&#xfa;" horiz-adv-x="340" d="M105 610 L203 610 L284 745 L149 745 L105 610 Z M170 -5 C301 -5 318 51 318 173 L318 566 L201 566 L201 184 C201 116 199 104 172 104 C143 104 141 115 141 183 L141 566 L21 566 L21 173 C21 53 40 -5 170 -5 L170 -5 Z " />
<glyph glyph-name="ucircumflex" unicode="&#xfb;" horiz-adv-x="340" d="M44 610 L138 610 L167 666 L198 610 L294 610 L230 745 L108 745 L44 610 Z M170 -5 C301 -5 318 51 318 173 L318 566 L201 566 L201 184 C201 116 199 104 172 104 C143 104 141 115 141 183 L141 566 L21 566 L21 173 C21 53 40 -5 170 -5 L170 -5 Z " />
<glyph glyph-name="udieresis" unicode="&#xfc;" horiz-adv-x="340" d="M55 610 L155 610 L155 734 L55 734 L55 610 Z M184 610 L284 610 L284 734 L184 734 L184 610 Z M170 -5 C301 -5 318 51 318 173 L318 566 L201 566 L201 184 C201 116 199 104 172 104 C143 104 141 115 141 183 L141 566 L21 566 L21 173 C21 53 40 -5 170 -5 L170 -5 Z " />
<glyph glyph-name="yacute" unicode="&#xfd;" horiz-adv-x="310" d="M43 -143 C48 -144 68 -145 73 -145 C142 -145 191 -123 208 -32 L311 566 L195 566 L167 322 L158 239 L150 321 L121 566 L0 566 L98 -14 C95 -26 87 -31 64 -31 L43 -31 L43 -143 Z M90 610 L188 610 L269 745 L134 745 L90 610 Z " />
<glyph glyph-name="thorn" unicode="&#xfe;" horiz-adv-x="339" d="M22 -145 L142 -145 L142 18 C162 0 188 -4 223 -4 C257 -4 281 8 297 26 C323 57 326 108 326 284 C326 462 325 512 298 543 C283 561 260 573 227 573 C196 573 160 566 141 547 L141 756 L22 756 L22 -145 Z M174 105 C142 105 142 129 142 278 C142 427 142 453 174 453 C205 453 205 439 205 278 C205 115 205 105 174 105 L174 105 Z " />
<glyph glyph-name="ydieresis" unicode="&#xff;" horiz-adv-x="310" d="M43 -143 C48 -144 68 -145 73 -145 C142 -145 191 -123 208 -32 L311 566 L195 566 L167 322 L158 239 L150 321 L121 566 L0 566 L98 -14 C95 -26 87 -31 64 -31 L43 -31 L43 -143 Z M40 610 L140 610 L140 734 L40 734 L40 610 Z M169 610 L269 610 L269 734 L169 734 L169 610 Z " />
<glyph glyph-name="dotlessi" unicode="&#x131;" horiz-adv-x="167" d="M23 0 L144 0 L144 566 L23 566 L23 0 Z " />
<glyph glyph-name="Lslash" unicode="&#x141;" horiz-adv-x="269" d="M1 358 L28 373 L28 0 L263 0 L263 115 L152 115 L152 445 L196 471 L196 579 L152 553 L152 741 L28 741 L28 481 L1 465 L1 358 Z " />
<glyph glyph-name="lslash" unicode="&#x142;" horiz-adv-x="229" d="M10 398 L45 418 L45 133 C45 41 60 -2 150 -2 C155 -2 189 -2 197 0 L197 114 L182 114 C168 114 165 120 165 136 L165 488 L201 509 L201 616 L165 595 L165 756 L45 756 L45 526 L10 506 L10 398 Z " />
<glyph glyph-name="OE" unicode="&#x152;" horiz-adv-x="474" d="M175 0 L459 0 L459 115 L335 115 L335 316 L456 316 L456 434 L335 434 L335 620 L459 620 L459 741 L175 741 C115 741 79 727 55 693 C20 642 19 554 19 371 C19 178 20 89 59 42 C82 11 118 0 175 0 L175 0 Z M190 108 C145 108 144 141 144 368 C144 595 145 628 190 628 L219 628 L219 108 L190 108 Z " />
<glyph glyph-name="oe" unicode="&#x153;" horiz-adv-x="484" d="M339 -6 C391 -6 428 2 467 15 L435 122 C412 114 375 106 351 106 C318 106 312 116 311 219 L472 219 L472 284 C473 414 471 498 438 540 C421 562 386 573 338 573 C299 573 271 564 251 549 C231 564 204 573 164 573 C111 573 70 560 49 535 C11 490 11 411 11 284 C11 151 11 68 54 26 C76 6 117 -6 164 -6 C206 -6 233 2 254 17 C274 2 299 -6 339 -6 L339 -6 Z M164 105 C135 105 132 118 132 280 C132 440 135 453 164 453 C193 453 196 440 196 280 C196 118 193 105 164 105 L164 105 Z M337 456 C362 456 362 450 362 324 L311 324 C311 439 314 456 337 456 L337 456 Z " />
<glyph glyph-name="Scaron" unicode="&#x160;" horiz-adv-x="304" d="M90 771 L212 771 L276 909 L182 909 L152 853 L122 909 L26 909 L90 771 Z M125 -7 C317 -7 301 144 259 256 L152 542 C135 588 138 624 191 624 C204 624 231 623 247 619 L276 740 C249 745 208 747 181 747 C8 747 0 605 39 501 L154 194 C176 136 167 110 118 110 C97 110 56 114 34 119 L7 4 C35 -2 83 -7 125 -7 L125 -7 Z " />
<glyph glyph-name="scaron" unicode="&#x161;" horiz-adv-x="260" d="M69 610 L191 610 L255 748 L161 748 L131 692 L101 748 L5 748 L69 610 Z M109 -6 C253 -6 269 111 222 220 L144 401 C131 431 134 456 166 456 C184 456 202 453 213 450 L239 565 C225 568 192 573 153 573 C15 573 -13 463 36 348 L117 163 C132 127 120 104 87 104 C63 104 46 107 28 110 L2 3 C35 -4 62 -6 109 -6 L109 -6 Z " />
<glyph glyph-name="Ydieresis" unicode="&#x178;" horiz-adv-x="343" d="M109 0 L233 0 L233 226 L343 741 L219 741 L173 449 L128 741 L0 741 L109 231 L109 0 Z M57 771 L157 771 L157 895 L57 895 L57 771 Z M186 771 L286 771 L286 895 L186 895 L186 771 Z " />
<glyph glyph-name="Zcaron" unicode="&#x17d;" horiz-adv-x="302" d="M89 771 L211 771 L275 909 L181 909 L151 853 L121 909 L25 909 L89 771 Z M8 0 L294 0 L294 115 L141 115 L288 634 L288 741 L16 741 L16 620 L157 620 L8 95 L8 0 Z " />
<glyph glyph-name="zcaron" unicode="&#x17e;" horiz-adv-x="255" d="M67 610 L189 610 L253 748 L159 748 L129 692 L99 748 L3 748 L67 610 Z M1 0 L254 0 L254 101 L129 101 L250 486 L250 566 L9 566 L9 455 L119 455 L1 78 L1 0 Z " />
<glyph glyph-name="florin" unicode="&#x192;" horiz-adv-x="339" d="M48 350 L92 350 L51 -145 L171 -145 L213 350 L293 350 L293 460 L223 460 L234 586 C236 615 242 622 273 622 L293 622 L293 739 C287 740 266 741 262 741 C153 741 124 706 114 602 L102 460 L48 460 L48 350 Z " />
<glyph glyph-name="circumflex" unicode="&#x2c6;" horiz-adv-x="287" d="M18 610 L112 610 L141 666 L172 610 L268 610 L204 745 L82 745 L18 610 Z " />
<glyph glyph-name="caron" unicode="&#x2c7;" horiz-adv-x="287" d="M82 610 L204 610 L268 748 L174 748 L144 692 L114 748 L18 748 L82 610 Z " />
<glyph glyph-name="breve" unicode="&#x2d8;" horiz-adv-x="287" d="M143 608 C239 608 260 642 260 760 L177 760 C177 716 175 693 143 693 C112 693 110 716 110 759 L27 759 C27 643 49 608 143 608 L143 608 Z " />
<glyph glyph-name="dotaccent" unicode="&#x2d9;" horiz-adv-x="287" d="M83 611 L204 611 L204 745 L83 745 L83 611 Z " />
<glyph glyph-name="ring" unicode="&#x2da;" horiz-adv-x="287" d="M143 608 C217 608 225 651 225 710 C225 769 217 814 143 814 C70 814 62 769 62 710 C62 651 70 608 143 608 L143 608 Z M143 661 C121 661 120 674 120 708 C120 743 121 758 143 758 C165 758 167 743 167 708 C167 674 165 661 143 661 L143 661 Z " />
<glyph glyph-name="ogonek" unicode="&#x2db;" horiz-adv-x="287" d="M198 -191 L198 -122 L192 -122 C162 -122 153 -116 153 -83 C153 -50 165 -28 187 6 L115 6 C94 -14 75 -50 75 -95 C75 -162 94 -191 172 -191 L198 -191 Z " />
<glyph glyph-name="tilde" unicode="&#x2dc;" horiz-adv-x="287" d="M14 610 L99 610 C99 629 105 635 115 635 C130 635 171 610 201 610 C250 610 276 625 273 729 L187 729 C187 710 182 704 171 704 C156 704 115 729 85 729 C37 729 10 713 14 610 L14 610 Z " />
<glyph glyph-name="hungarumlaut" unicode="&#x2dd;" horiz-adv-x="287" d="M24 610 L113 610 L166 748 L46 748 L24 610 Z M168 610 L258 610 L310 748 L190 748 L168 610 Z " />
<glyph glyph-name="&amp;#x394;" unicode="&#x394;" horiz-adv-x="368" d="M3 455 L48 455 L48 0 L167 0 L167 455 L203 455 L203 566 L167 566 L167 603 C167 632 176 639 199 639 L203 639 L203 756 C197 757 187 758 180 758 C80 758 48 724 48 619 L48 566 L3 566 L3 455 Z M196 -145 C304 -145 345 -117 345 -16 L345 566 L224 566 L224 4 C224 -25 224 -31 196 -31 L196 -145 Z M224 614 L345 614 L345 741 L224 741 L224 614 Z " />
<glyph glyph-name="&amp;#x2206;" unicode="&#x2206;" horiz-adv-x="368" d="M3 455 L48 455 L48 0 L167 0 L167 455 L203 455 L203 566 L167 566 L167 603 C167 632 176 639 199 639 L203 639 L203 756 C197 757 187 758 180 758 C80 758 48 724 48 619 L48 566 L3 566 L3 455 Z M196 -145 C304 -145 345 -117 345 -16 L345 566 L224 566 L224 4 C224 -25 224 -31 196 -31 L196 -145 Z M224 614 L345 614 L345 741 L224 741 L224 614 Z " />
<glyph glyph-name="&amp;#x3a9;" unicode="&#x3a9;" horiz-adv-x="832" d="M126 120 C126 120 129 123 134 127 C79 193 46 278 46 371 C46 464 79 549 133 615 C129 619 126 621 126 621 C70 554 36 466 36 371 C36 275 70 187 126 120 L126 120 Z M228 211 C230 213 233 215 235 218 C201 259 181 313 181 371 C181 429 202 483 235 524 C232 526 230 529 227 531 C192 487 171 432 171 371 C171 310 193 254 228 211 L228 211 Z M264 243 C267 245 269 248 272 250 C245 283 229 325 229 371 C229 417 245 459 272 492 C269 494 267 497 264 499 C236 464 219 419 219 371 C219 322 236 278 264 243 L264 243 Z M316 289 C319 291 321 294 324 296 C308 317 298 343 298 371 C298 399 308 425 323 445 C321 448 318 450 316 452 C298 430 288 402 288 371 C288 340 298 312 316 289 L316 289 Z M349 320 C352 323 354 325 357 327 C348 340 343 355 343 371 C343 387 348 402 357 415 C354 417 352 420 349 422 C339 408 333 390 333 371 C333 352 339 334 349 320 L349 320 Z M378 346 C382 349 384 351 384 351 C381 357 379 364 379 371 C379 378 381 385 384 391 C384 391 382 393 378 396 C374 389 371 380 371 371 C371 362 374 353 378 346 L378 346 Z M416 60 C493 60 563 89 616 136 C614 139 611 141 609 144 C558 98 490 70 416 70 C342 70 274 98 222 144 C222 145 215 137 215 137 C268 89 338 60 416 60 L416 60 Z M416 324 C426 324 435 327 442 333 C439 337 437 339 437 339 C431 334 424 332 416 332 C408 332 401 335 395 339 C395 339 391 334 389 333 C397 327 406 324 416 324 L416 324 Z M482 319 C493 334 499 352 499 371 C499 390 493 408 482 422 C483 422 475 415 475 415 C484 403 489 388 489 371 C489 355 484 339 475 326 C478 324 480 322 482 319 L482 319 Z M292 269 C295 271 298 274 300 276 C280 302 267 335 267 371 C267 407 280 440 300 466 L293 473 C270 445 257 410 257 371 C257 333 270 297 292 269 L292 269 Z M416 -17 C512 -17 600 19 667 80 C667 80 660 88 660 87 C595 29 510 -7 416 -7 C322 -7 236 29 171 88 L164 80 C231 20 320 -17 416 -17 L416 -17 Z M416 121 C478 121 534 144 576 182 C574 185 571 187 569 190 C529 153 475 131 416 131 C357 131 303 153 262 190 L255 182 C298 144 354 121 416 121 L416 121 Z M416 170 C465 170 510 188 544 218 C542 221 539 223 537 226 C505 197 462 180 416 180 C369 180 327 197 294 226 L287 219 C322 189 367 170 416 170 L416 170 Z M416 209 C455 209 491 224 518 247 C516 250 514 253 512 255 C486 233 452 219 416 219 C380 219 346 233 320 255 L313 247 C341 224 377 209 416 209 L416 209 Z M416 265 C441 265 463 274 481 289 C479 292 476 294 474 297 C458 283 438 275 416 275 C394 275 373 283 357 297 L350 289 C368 274 391 265 416 265 L416 265 Z M358 445 C374 459 394 467 416 467 C438 467 458 459 474 445 L482 453 C464 468 441 477 416 477 C391 477 368 468 350 453 C351 452 354 448 358 445 L358 445 Z M570 552 C572 554 575 557 577 560 C534 598 478 621 416 621 C355 621 299 598 256 560 L263 553 C304 589 357 611 416 611 C475 611 529 589 570 552 L570 552 Z M454 346 C458 353 461 362 461 371 C461 380 458 389 454 396 L448 391 C451 385 453 378 453 371 C453 364 451 357 448 351 C448 351 450 349 454 346 L454 346 Z M468 333 C476 344 480 357 480 371 C480 385 476 398 468 409 L460 402 C466 393 470 382 470 371 C470 360 466 349 460 340 C463 338 465 336 468 333 L468 333 Z M498 306 C511 325 519 347 519 371 C519 395 511 418 497 436 L490 429 C502 413 509 393 509 371 C509 349 502 329 490 313 C492 311 495 308 498 306 L498 306 Z M540 269 C562 297 575 332 575 371 C575 410 562 445 539 473 L531 466 C552 440 565 407 565 371 C565 335 552 302 532 276 C535 274 537 271 540 269 L540 269 Z M568 243 C596 278 613 322 613 371 C613 420 596 464 568 499 L560 492 C587 459 603 417 603 371 C603 325 587 283 560 250 C563 248 566 245 568 243 L568 243 Z M604 211 C640 254 661 310 661 371 C661 432 640 488 604 531 L596 524 C631 483 651 429 651 371 C651 313 631 260 596 218 C601 213 604 211 604 211 L604 211 Z M649 171 C694 225 721 295 721 371 C721 447 694 517 649 571 L641 564 C685 512 711 445 711 371 C711 297 685 230 642 177 C644 175 647 173 649 171 L649 171 Z M706 120 C762 188 796 276 796 371 C796 467 762 555 706 622 L698 615 C753 549 786 464 786 371 C786 278 753 193 698 127 C703 123 706 120 706 120 L706 120 Z M183 170 L190 177 C147 229 121 297 121 371 C121 444 147 512 190 564 C187 567 184 569 182 571 C138 517 111 447 111 371 C111 294 138 225 183 170 L183 170 Z M334 306 L342 314 C330 330 323 350 323 371 C323 393 330 413 342 429 C340 431 337 434 334 436 C321 418 313 395 313 371 C313 346 321 324 334 306 L334 306 Z M364 333 L371 340 C366 349 362 360 362 371 C362 382 366 393 371 402 C369 404 366 406 364 409 C356 398 352 385 352 371 C352 357 356 344 364 333 L364 333 Z M395 403 C401 408 408 410 416 410 C424 410 431 407 437 403 C437 403 439 406 442 409 C435 415 426 418 416 418 C406 418 397 415 390 409 L395 403 Z M384 416 C393 423 404 428 416 428 C428 428 439 424 448 416 C450 419 452 421 454 423 C443 432 430 437 416 437 C401 437 388 432 377 423 L384 416 Z M371 430 C383 441 399 447 416 447 C433 447 449 441 461 430 C461 430 464 434 468 438 C454 450 436 457 416 457 C397 457 378 450 364 438 L371 430 Z M295 516 C327 545 370 562 416 562 C462 562 505 545 538 516 C538 516 545 523 544 523 C510 554 465 572 416 572 C367 572 322 554 288 524 L295 516 Z M416 240 C448 240 476 252 498 271 L491 278 C471 261 445 250 416 250 C388 250 361 261 340 278 L333 270 C355 251 384 240 416 240 L416 240 Z M416 285 C436 285 454 292 468 304 L461 312 C448 301 433 295 416 295 C399 295 383 302 370 312 L363 304 C378 292 396 285 416 285 L416 285 Z M416 305 C430 305 444 310 455 319 L448 326 C439 319 428 314 416 314 C404 314 393 319 383 326 L376 319 C388 310 401 305 416 305 L416 305 Z M341 464 C362 482 388 492 416 492 C445 492 471 481 491 464 L498 472 C476 491 447 502 416 502 C385 502 356 490 334 471 L341 464 Z M320 487 C346 509 380 523 416 523 C453 523 486 510 512 487 L518 494 C491 518 455 533 416 533 C377 533 341 519 313 495 L320 487 Z M610 597 L617 605 C563 653 493 682 416 682 C339 682 269 653 215 605 L222 598 C274 644 342 672 416 672 C491 672 559 644 610 597 L610 597 Z M172 654 C237 713 322 749 416 749 C510 749 596 713 661 654 L668 662 C601 722 512 759 416 759 C320 759 232 723 165 662 L172 654 Z M516 290 C534 312 544 340 544 371 C544 402 534 430 516 453 L508 446 C524 425 534 399 534 371 C534 343 524 317 509 297 L516 290 Z " />
<glyph glyph-name="&amp;#x2126;" unicode="&#x2126;" horiz-adv-x="832" d="M126 120 C126 120 129 123 134 127 C79 193 46 278 46 371 C46 464 79 549 133 615 C129 619 126 621 126 621 C70 554 36 466 36 371 C36 275 70 187 126 120 L126 120 Z M228 211 C230 213 233 215 235 218 C201 259 181 313 181 371 C181 429 202 483 235 524 C232 526 230 529 227 531 C192 487 171 432 171 371 C171 310 193 254 228 211 L228 211 Z M264 243 C267 245 269 248 272 250 C245 283 229 325 229 371 C229 417 245 459 272 492 C269 494 267 497 264 499 C236 464 219 419 219 371 C219 322 236 278 264 243 L264 243 Z M316 289 C319 291 321 294 324 296 C308 317 298 343 298 371 C298 399 308 425 323 445 C321 448 318 450 316 452 C298 430 288 402 288 371 C288 340 298 312 316 289 L316 289 Z M349 320 C352 323 354 325 357 327 C348 340 343 355 343 371 C343 387 348 402 357 415 C354 417 352 420 349 422 C339 408 333 390 333 371 C333 352 339 334 349 320 L349 320 Z M378 346 C382 349 384 351 384 351 C381 357 379 364 379 371 C379 378 381 385 384 391 C384 391 382 393 378 396 C374 389 371 380 371 371 C371 362 374 353 378 346 L378 346 Z M416 60 C493 60 563 89 616 136 C614 139 611 141 609 144 C558 98 490 70 416 70 C342 70 274 98 222 144 C222 145 215 137 215 137 C268 89 338 60 416 60 L416 60 Z M416 324 C426 324 435 327 442 333 C439 337 437 339 437 339 C431 334 424 332 416 332 C408 332 401 335 395 339 C395 339 391 334 389 333 C397 327 406 324 416 324 L416 324 Z M482 319 C493 334 499 352 499 371 C499 390 493 408 482 422 C483 422 475 415 475 415 C484 403 489 388 489 371 C489 355 484 339 475 326 C478 324 480 322 482 319 L482 319 Z M292 269 C295 271 298 274 300 276 C280 302 267 335 267 371 C267 407 280 440 300 466 L293 473 C270 445 257 410 257 371 C257 333 270 297 292 269 L292 269 Z M416 -17 C512 -17 600 19 667 80 C667 80 660 88 660 87 C595 29 510 -7 416 -7 C322 -7 236 29 171 88 L164 80 C231 20 320 -17 416 -17 L416 -17 Z M416 121 C478 121 534 144 576 182 C574 185 571 187 569 190 C529 153 475 131 416 131 C357 131 303 153 262 190 L255 182 C298 144 354 121 416 121 L416 121 Z M416 170 C465 170 510 188 544 218 C542 221 539 223 537 226 C505 197 462 180 416 180 C369 180 327 197 294 226 L287 219 C322 189 367 170 416 170 L416 170 Z M416 209 C455 209 491 224 518 247 C516 250 514 253 512 255 C486 233 452 219 416 219 C380 219 346 233 320 255 L313 247 C341 224 377 209 416 209 L416 209 Z M416 265 C441 265 463 274 481 289 C479 292 476 294 474 297 C458 283 438 275 416 275 C394 275 373 283 357 297 L350 289 C368 274 391 265 416 265 L416 265 Z M358 445 C374 459 394 467 416 467 C438 467 458 459 474 445 L482 453 C464 468 441 477 416 477 C391 477 368 468 350 453 C351 452 354 448 358 445 L358 445 Z M570 552 C572 554 575 557 577 560 C534 598 478 621 416 621 C355 621 299 598 256 560 L263 553 C304 589 357 611 416 611 C475 611 529 589 570 552 L570 552 Z M454 346 C458 353 461 362 461 371 C461 380 458 389 454 396 L448 391 C451 385 453 378 453 371 C453 364 451 357 448 351 C448 351 450 349 454 346 L454 346 Z M468 333 C476 344 480 357 480 371 C480 385 476 398 468 409 L460 402 C466 393 470 382 470 371 C470 360 466 349 460 340 C463 338 465 336 468 333 L468 333 Z M498 306 C511 325 519 347 519 371 C519 395 511 418 497 436 L490 429 C502 413 509 393 509 371 C509 349 502 329 490 313 C492 311 495 308 498 306 L498 306 Z M540 269 C562 297 575 332 575 371 C575 410 562 445 539 473 L531 466 C552 440 565 407 565 371 C565 335 552 302 532 276 C535 274 537 271 540 269 L540 269 Z M568 243 C596 278 613 322 613 371 C613 420 596 464 568 499 L560 492 C587 459 603 417 603 371 C603 325 587 283 560 250 C563 248 566 245 568 243 L568 243 Z M604 211 C640 254 661 310 661 371 C661 432 640 488 604 531 L596 524 C631 483 651 429 651 371 C651 313 631 260 596 218 C601 213 604 211 604 211 L604 211 Z M649 171 C694 225 721 295 721 371 C721 447 694 517 649 571 L641 564 C685 512 711 445 711 371 C711 297 685 230 642 177 C644 175 647 173 649 171 L649 171 Z M706 120 C762 188 796 276 796 371 C796 467 762 555 706 622 L698 615 C753 549 786 464 786 371 C786 278 753 193 698 127 C703 123 706 120 706 120 L706 120 Z M183 170 L190 177 C147 229 121 297 121 371 C121 444 147 512 190 564 C187 567 184 569 182 571 C138 517 111 447 111 371 C111 294 138 225 183 170 L183 170 Z M334 306 L342 314 C330 330 323 350 323 371 C323 393 330 413 342 429 C340 431 337 434 334 436 C321 418 313 395 313 371 C313 346 321 324 334 306 L334 306 Z M364 333 L371 340 C366 349 362 360 362 371 C362 382 366 393 371 402 C369 404 366 406 364 409 C356 398 352 385 352 371 C352 357 356 344 364 333 L364 333 Z M395 403 C401 408 408 410 416 410 C424 410 431 407 437 403 C437 403 439 406 442 409 C435 415 426 418 416 418 C406 418 397 415 390 409 L395 403 Z M384 416 C393 423 404 428 416 428 C428 428 439 424 448 416 C450 419 452 421 454 423 C443 432 430 437 416 437 C401 437 388 432 377 423 L384 416 Z M371 430 C383 441 399 447 416 447 C433 447 449 441 461 430 C461 430 464 434 468 438 C454 450 436 457 416 457 C397 457 378 450 364 438 L371 430 Z M295 516 C327 545 370 562 416 562 C462 562 505 545 538 516 C538 516 545 523 544 523 C510 554 465 572 416 572 C367 572 322 554 288 524 L295 516 Z M416 240 C448 240 476 252 498 271 L491 278 C471 261 445 250 416 250 C388 250 361 261 340 278 L333 270 C355 251 384 240 416 240 L416 240 Z M416 285 C436 285 454 292 468 304 L461 312 C448 301 433 295 416 295 C399 295 383 302 370 312 L363 304 C378 292 396 285 416 285 L416 285 Z M416 305 C430 305 444 310 455 319 L448 326 C439 319 428 314 416 314 C404 314 393 319 383 326 L376 319 C388 310 401 305 416 305 L416 305 Z M341 464 C362 482 388 492 416 492 C445 492 471 481 491 464 L498 472 C476 491 447 502 416 502 C385 502 356 490 334 471 L341 464 Z M320 487 C346 509 380 523 416 523 C453 523 486 510 512 487 L518 494 C491 518 455 533 416 533 C377 533 341 519 313 495 L320 487 Z M610 597 L617 605 C563 653 493 682 416 682 C339 682 269 653 215 605 L222 598 C274 644 342 672 416 672 C491 672 559 644 610 597 L610 597 Z M172 654 C237 713 322 749 416 749 C510 749 596 713 661 654 L668 662 C601 722 512 759 416 759 C320 759 232 723 165 662 L172 654 Z M516 290 C534 312 544 340 544 371 C544 402 534 430 516 453 L508 446 C524 425 534 399 534 371 C534 343 524 317 509 297 L516 290 Z " />
<glyph glyph-name="pi" unicode="&#x3c0;" horiz-adv-x="385" d="M194 -3 C248 -3 285 9 309 35 C354 81 367 181 367 371 C367 553 355 653 314 701 C289 731 252 745 194 745 C138 745 101 732 76 704 C34 656 20 556 20 371 C20 176 34 75 82 31 C107 9 142 -3 194 -3 L194 -3 Z M194 46 C82 46 71 118 71 371 C71 624 83 696 194 696 C305 696 316 624 316 371 C316 118 305 46 194 46 L194 46 Z M104 140 L181 140 L181 297 L208 297 C289 297 296 352 296 449 C296 546 289 598 205 598 L104 598 L104 140 Z M181 362 L181 528 L198 528 C220 528 221 510 221 444 C221 378 220 362 198 362 L181 362 Z " />
<glyph glyph-name="endash" unicode="&#x2013;" horiz-adv-x="369" d="M16 278 L353 278 L353 396 L16 396 L16 278 Z " />
<glyph glyph-name="emdash" unicode="&#x2014;" horiz-adv-x="473" d="M16 278 L457 278 L457 396 L16 396 L16 278 Z " />
<glyph glyph-name="quoteleft" unicode="&#x2018;" horiz-adv-x="182" d="M25 444 L157 444 L157 614 L108 614 C108 649 113 652 156 687 L114 749 C39 701 25 674 25 562 L25 444 Z " />
<glyph glyph-name="quoteright" unicode="&#x2019;" horiz-adv-x="182" d="M68 436 C143 484 157 510 157 622 L157 741 L25 741 L25 571 L74 571 C74 535 69 532 26 498 L68 436 Z " />
<glyph glyph-name="quotesinglbase" unicode="&#x201a;" horiz-adv-x="182" d="M68 -135 C143 -87 157 -60 157 52 L157 170 L25 170 L25 0 L74 0 C74 -35 69 -38 26 -73 L68 -135 Z " />
<glyph glyph-name="quotedblleft" unicode="&#x201c;" horiz-adv-x="337" d="M25 444 L153 444 L153 614 L104 614 C104 649 109 652 152 687 L112 745 C37 697 25 674 25 562 L25 444 Z M184 444 L312 444 L312 614 L263 614 C263 649 268 652 311 687 L271 745 C196 697 184 674 184 562 L184 444 Z " />
<glyph glyph-name="quotedblright" unicode="&#x201d;" horiz-adv-x="337" d="M66 440 C141 488 153 510 153 622 L153 741 L25 741 L25 571 L74 571 C74 535 69 532 26 498 L66 440 Z M225 440 C300 488 312 510 312 622 L312 741 L184 741 L184 571 L233 571 C233 535 228 532 185 498 L225 440 Z " />
<glyph glyph-name="quotedblbase" unicode="&#x201e;" horiz-adv-x="337" d="M66 -131 C141 -83 153 -60 153 52 L153 170 L25 170 L25 0 L74 0 C74 -35 69 -38 26 -73 L66 -131 Z M225 -131 C300 -83 312 -60 312 52 L312 170 L184 170 L184 0 L233 0 C233 -35 228 -38 185 -73 L225 -131 Z " />
<glyph glyph-name="dagger" unicode="&#x2020;" horiz-adv-x="331" d="M21 428 L106 428 L106 -145 L225 -145 L225 428 L310 428 L310 548 L225 548 L225 756 L106 756 L106 548 L21 548 L21 428 Z " />
<glyph glyph-name="daggerdbl" unicode="&#x2021;" horiz-adv-x="331" d="M106 -146 L225 -146 L225 62 L310 62 L310 182 L225 182 L225 428 L310 428 L310 548 L225 548 L225 756 L106 756 L106 548 L21 548 L21 428 L106 428 L106 182 L21 182 L21 62 L106 62 L106 -146 Z " />
<glyph glyph-name="bullet" unicode="&#x2022;" horiz-adv-x="228" d="M42 193 L186 193 L186 415 L42 415 L42 193 Z " />
<glyph glyph-name="ellipsis" unicode="&#x2026;" horiz-adv-x="526" d="M25 0 L157 0 L157 160 L25 160 L25 0 Z M198 0 L329 0 L329 160 L198 160 L198 0 Z M370 0 L500 0 L500 160 L370 160 L370 0 Z " />
<glyph glyph-name="perthousand" unicode="&#x2030;" horiz-adv-x="954" d="M142 267 C183 267 218 277 235 296 C268 332 269 399 269 508 C269 612 268 677 239 714 C222 735 186 747 142 747 C97 747 62 735 44 713 C15 676 15 611 15 508 C15 397 16 330 49 295 C66 276 101 267 142 267 L142 267 Z M540 -4 C582 -4 616 6 634 26 C667 62 667 128 667 237 C667 341 667 406 638 443 C620 465 585 476 540 476 C496 476 461 465 443 442 C414 405 413 340 413 237 C413 127 415 60 448 24 C465 5 499 -4 540 -4 L540 -4 Z M812 -4 C854 -4 888 6 906 26 C938 62 939 128 939 237 C939 341 938 406 910 443 C892 465 857 476 812 476 C768 476 732 465 715 442 C686 405 685 340 685 237 C685 127 687 60 719 24 C737 5 771 -4 812 -4 L812 -4 Z M142 364 C123 364 121 379 121 506 C121 632 123 646 142 646 C160 646 162 632 162 506 C162 379 161 364 142 364 L142 364 Z M540 93 C521 93 520 109 520 235 C520 362 521 375 540 375 C559 375 561 362 561 235 C561 109 559 93 540 93 L540 93 Z M812 93 C793 93 792 109 792 235 C792 362 793 375 812 375 C831 375 833 362 833 235 C833 109 831 93 812 93 L812 93 Z M188 0 L298 0 L493 741 L383 741 L188 0 Z " />
<glyph glyph-name="guilsinglleft" unicode="&#x2039;" horiz-adv-x="251" d="M100 0 L211 0 L145 282 L211 566 L100 566 L27 282 L100 0 Z " />
<glyph glyph-name="guilsinglright" unicode="&#x203a;" horiz-adv-x="251" d="M40 0 L150 0 L224 283 L150 566 L40 566 L106 283 L40 0 Z " />
<glyph glyph-name="&amp;#x2044;" unicode="&#x2044;" horiz-adv-x="312" d="M0 0 L110 0 L312 741 L202 741 L0 0 Z " />
<glyph glyph-name="&amp;#x2215;" unicode="&#x2215;" horiz-adv-x="312" d="M0 0 L110 0 L312 741 L202 741 L0 0 Z " />
<glyph glyph-name="Euro" unicode="&#x20ac;" horiz-adv-x="349" d="M12 390 L70 390 L70 350 L12 350 L12 256 L70 256 C71 142 78 74 114 34 C136 7 177 -3 236 -3 C272 -3 304 6 327 13 L301 119 C292 116 262 111 246 111 C201 111 192 125 190 256 L284 256 L284 350 L190 350 L190 390 L284 390 L284 484 L190 484 C192 608 200 627 243 627 C256 627 283 624 298 621 L323 738 C312 741 276 747 237 747 C175 747 134 735 111 705 C78 665 71 596 70 484 L12 484 L12 390 Z " />
<glyph glyph-name="trademark" unicode="&#x2122;" horiz-adv-x="534" d="M66 289 L154 289 L154 657 L213 657 L213 741 L9 741 L9 657 L66 657 L66 289 Z M228 289 L303 289 L303 589 L310 500 L336 289 L391 289 L415 497 L423 588 L423 289 L504 289 L504 741 L399 741 L373 547 L366 475 L359 548 L332 741 L228 741 L228 289 Z " />
<glyph glyph-name="partialdiff" unicode="&#x2202;" horiz-adv-x="832" d="M126 120 C126 120 129 123 134 127 C79 193 46 278 46 371 C46 464 79 549 133 615 C129 619 126 621 126 621 C70 554 36 466 36 371 C36 275 70 187 126 120 L126 120 Z M228 211 C230 213 233 215 235 218 C201 259 181 313 181 371 C181 429 202 483 235 524 C232 526 230 529 227 531 C192 487 171 432 171 371 C171 310 193 254 228 211 L228 211 Z M264 243 C267 245 269 248 272 250 C245 283 229 325 229 371 C229 417 245 459 272 492 C269 494 267 497 264 499 C236 464 219 419 219 371 C219 322 236 278 264 243 L264 243 Z M316 289 C319 291 321 294 324 296 C308 317 298 343 298 371 C298 399 308 425 323 445 C321 448 318 450 316 452 C298 430 288 402 288 371 C288 340 298 312 316 289 L316 289 Z M349 320 C352 323 354 325 357 327 C348 340 343 355 343 371 C343 387 348 402 357 415 C354 417 352 420 349 422 C339 408 333 390 333 371 C333 352 339 334 349 320 L349 320 Z M378 346 C382 349 384 351 384 351 C381 357 379 364 379 371 C379 378 381 385 384 391 C384 391 382 393 378 396 C374 389 371 380 371 371 C371 362 374 353 378 346 L378 346 Z M416 60 C493 60 563 89 616 136 C614 139 611 141 609 144 C558 98 490 70 416 70 C342 70 274 98 222 144 C222 145 215 137 215 137 C268 89 338 60 416 60 L416 60 Z M416 324 C426 324 435 327 442 333 C439 337 437 339 437 339 C431 334 424 332 416 332 C408 332 401 335 395 339 C395 339 391 334 389 333 C397 327 406 324 416 324 L416 324 Z M482 319 C493 334 499 352 499 371 C499 390 493 408 482 422 C483 422 475 415 475 415 C484 403 489 388 489 371 C489 355 484 339 475 326 C478 324 480 322 482 319 L482 319 Z M292 269 C295 271 298 274 300 276 C280 302 267 335 267 371 C267 407 280 440 300 466 L293 473 C270 445 257 410 257 371 C257 333 270 297 292 269 L292 269 Z M416 -17 C512 -17 600 19 667 80 C667 80 660 88 660 87 C595 29 510 -7 416 -7 C322 -7 236 29 171 88 L164 80 C231 20 320 -17 416 -17 L416 -17 Z M416 121 C478 121 534 144 576 182 C574 185 571 187 569 190 C529 153 475 131 416 131 C357 131 303 153 262 190 L255 182 C298 144 354 121 416 121 L416 121 Z M416 170 C465 170 510 188 544 218 C542 221 539 223 537 226 C505 197 462 180 416 180 C369 180 327 197 294 226 L287 219 C322 189 367 170 416 170 L416 170 Z M416 209 C455 209 491 224 518 247 C516 250 514 253 512 255 C486 233 452 219 416 219 C380 219 346 233 320 255 L313 247 C341 224 377 209 416 209 L416 209 Z M416 265 C441 265 463 274 481 289 C479 292 476 294 474 297 C458 283 438 275 416 275 C394 275 373 283 357 297 L350 289 C368 274 391 265 416 265 L416 265 Z M358 445 C374 459 394 467 416 467 C438 467 458 459 474 445 L482 453 C464 468 441 477 416 477 C391 477 368 468 350 453 C351 452 354 448 358 445 L358 445 Z M570 552 C572 554 575 557 577 560 C534 598 478 621 416 621 C355 621 299 598 256 560 L263 553 C304 589 357 611 416 611 C475 611 529 589 570 552 L570 552 Z M454 346 C458 353 461 362 461 371 C461 380 458 389 454 396 L448 391 C451 385 453 378 453 371 C453 364 451 357 448 351 C448 351 450 349 454 346 L454 346 Z M468 333 C476 344 480 357 480 371 C480 385 476 398 468 409 L460 402 C466 393 470 382 470 371 C470 360 466 349 460 340 C463 338 465 336 468 333 L468 333 Z M498 306 C511 325 519 347 519 371 C519 395 511 418 497 436 L490 429 C502 413 509 393 509 371 C509 349 502 329 490 313 C492 311 495 308 498 306 L498 306 Z M540 269 C562 297 575 332 575 371 C575 410 562 445 539 473 L531 466 C552 440 565 407 565 371 C565 335 552 302 532 276 C535 274 537 271 540 269 L540 269 Z M568 243 C596 278 613 322 613 371 C613 420 596 464 568 499 L560 492 C587 459 603 417 603 371 C603 325 587 283 560 250 C563 248 566 245 568 243 L568 243 Z M604 211 C640 254 661 310 661 371 C661 432 640 488 604 531 L596 524 C631 483 651 429 651 371 C651 313 631 260 596 218 C601 213 604 211 604 211 L604 211 Z M649 171 C694 225 721 295 721 371 C721 447 694 517 649 571 L641 564 C685 512 711 445 711 371 C711 297 685 230 642 177 C644 175 647 173 649 171 L649 171 Z M706 120 C762 188 796 276 796 371 C796 467 762 555 706 622 L698 615 C753 549 786 464 786 371 C786 278 753 193 698 127 C703 123 706 120 706 120 L706 120 Z M183 170 L190 177 C147 229 121 297 121 371 C121 444 147 512 190 564 C187 567 184 569 182 571 C138 517 111 447 111 371 C111 294 138 225 183 170 L183 170 Z M334 306 L342 314 C330 330 323 350 323 371 C323 393 330 413 342 429 C340 431 337 434 334 436 C321 418 313 395 313 371 C313 346 321 324 334 306 L334 306 Z M364 333 L371 340 C366 349 362 360 362 371 C362 382 366 393 371 402 C369 404 366 406 364 409 C356 398 352 385 352 371 C352 357 356 344 364 333 L364 333 Z M395 403 C401 408 408 410 416 410 C424 410 431 407 437 403 C437 403 439 406 442 409 C435 415 426 418 416 418 C406 418 397 415 390 409 L395 403 Z M384 416 C393 423 404 428 416 428 C428 428 439 424 448 416 C450 419 452 421 454 423 C443 432 430 437 416 437 C401 437 388 432 377 423 L384 416 Z M371 430 C383 441 399 447 416 447 C433 447 449 441 461 430 C461 430 464 434 468 438 C454 450 436 457 416 457 C397 457 378 450 364 438 L371 430 Z M295 516 C327 545 370 562 416 562 C462 562 505 545 538 516 C538 516 545 523 544 523 C510 554 465 572 416 572 C367 572 322 554 288 524 L295 516 Z M416 240 C448 240 476 252 498 271 L491 278 C471 261 445 250 416 250 C388 250 361 261 340 278 L333 270 C355 251 384 240 416 240 L416 240 Z M416 285 C436 285 454 292 468 304 L461 312 C448 301 433 295 416 295 C399 295 383 302 370 312 L363 304 C378 292 396 285 416 285 L416 285 Z M416 305 C430 305 444 310 455 319 L448 326 C439 319 428 314 416 314 C404 314 393 319 383 326 L376 319 C388 310 401 305 416 305 L416 305 Z M341 464 C362 482 388 492 416 492 C445 492 471 481 491 464 L498 472 C476 491 447 502 416 502 C385 502 356 490 334 471 L341 464 Z M320 487 C346 509 380 523 416 523 C453 523 486 510 512 487 L518 494 C491 518 455 533 416 533 C377 533 341 519 313 495 L320 487 Z M610 597 L617 605 C563 653 493 682 416 682 C339 682 269 653 215 605 L222 598 C274 644 342 672 416 672 C491 672 559 644 610 597 L610 597 Z M172 654 C237 713 322 749 416 749 C510 749 596 713 661 654 L668 662 C601 722 512 759 416 759 C320 759 232 723 165 662 L172 654 Z M516 290 C534 312 544 340 544 371 C544 402 534 430 516 453 L508 446 C524 425 534 399 534 371 C534 343 524 317 509 297 L516 290 Z " />
<glyph glyph-name="product" unicode="&#x220f;" horiz-adv-x="832" d="M126 120 C126 120 129 123 134 127 C79 193 46 278 46 371 C46 464 79 549 133 615 C129 619 126 621 126 621 C70 554 36 466 36 371 C36 275 70 187 126 120 L126 120 Z M228 211 C230 213 233 215 235 218 C201 259 181 313 181 371 C181 429 202 483 235 524 C232 526 230 529 227 531 C192 487 171 432 171 371 C171 310 193 254 228 211 L228 211 Z M264 243 C267 245 269 248 272 250 C245 283 229 325 229 371 C229 417 245 459 272 492 C269 494 267 497 264 499 C236 464 219 419 219 371 C219 322 236 278 264 243 L264 243 Z M316 289 C319 291 321 294 324 296 C308 317 298 343 298 371 C298 399 308 425 323 445 C321 448 318 450 316 452 C298 430 288 402 288 371 C288 340 298 312 316 289 L316 289 Z M349 320 C352 323 354 325 357 327 C348 340 343 355 343 371 C343 387 348 402 357 415 C354 417 352 420 349 422 C339 408 333 390 333 371 C333 352 339 334 349 320 L349 320 Z M378 346 C382 349 384 351 384 351 C381 357 379 364 379 371 C379 378 381 385 384 391 C384 391 382 393 378 396 C374 389 371 380 371 371 C371 362 374 353 378 346 L378 346 Z M416 60 C493 60 563 89 616 136 C614 139 611 141 609 144 C558 98 490 70 416 70 C342 70 274 98 222 144 C222 145 215 137 215 137 C268 89 338 60 416 60 L416 60 Z M416 324 C426 324 435 327 442 333 C439 337 437 339 437 339 C431 334 424 332 416 332 C408 332 401 335 395 339 C395 339 391 334 389 333 C397 327 406 324 416 324 L416 324 Z M482 319 C493 334 499 352 499 371 C499 390 493 408 482 422 C483 422 475 415 475 415 C484 403 489 388 489 371 C489 355 484 339 475 326 C478 324 480 322 482 319 L482 319 Z M292 269 C295 271 298 274 300 276 C280 302 267 335 267 371 C267 407 280 440 300 466 L293 473 C270 445 257 410 257 371 C257 333 270 297 292 269 L292 269 Z M416 -17 C512 -17 600 19 667 80 C667 80 660 88 660 87 C595 29 510 -7 416 -7 C322 -7 236 29 171 88 L164 80 C231 20 320 -17 416 -17 L416 -17 Z M416 121 C478 121 534 144 576 182 C574 185 571 187 569 190 C529 153 475 131 416 131 C357 131 303 153 262 190 L255 182 C298 144 354 121 416 121 L416 121 Z M416 170 C465 170 510 188 544 218 C542 221 539 223 537 226 C505 197 462 180 416 180 C369 180 327 197 294 226 L287 219 C322 189 367 170 416 170 L416 170 Z M416 209 C455 209 491 224 518 247 C516 250 514 253 512 255 C486 233 452 219 416 219 C380 219 346 233 320 255 L313 247 C341 224 377 209 416 209 L416 209 Z M416 265 C441 265 463 274 481 289 C479 292 476 294 474 297 C458 283 438 275 416 275 C394 275 373 283 357 297 L350 289 C368 274 391 265 416 265 L416 265 Z M358 445 C374 459 394 467 416 467 C438 467 458 459 474 445 L482 453 C464 468 441 477 416 477 C391 477 368 468 350 453 C351 452 354 448 358 445 L358 445 Z M570 552 C572 554 575 557 577 560 C534 598 478 621 416 621 C355 621 299 598 256 560 L263 553 C304 589 357 611 416 611 C475 611 529 589 570 552 L570 552 Z M454 346 C458 353 461 362 461 371 C461 380 458 389 454 396 L448 391 C451 385 453 378 453 371 C453 364 451 357 448 351 C448 351 450 349 454 346 L454 346 Z M468 333 C476 344 480 357 480 371 C480 385 476 398 468 409 L460 402 C466 393 470 382 470 371 C470 360 466 349 460 340 C463 338 465 336 468 333 L468 333 Z M498 306 C511 325 519 347 519 371 C519 395 511 418 497 436 L490 429 C502 413 509 393 509 371 C509 349 502 329 490 313 C492 311 495 308 498 306 L498 306 Z M540 269 C562 297 575 332 575 371 C575 410 562 445 539 473 L531 466 C552 440 565 407 565 371 C565 335 552 302 532 276 C535 274 537 271 540 269 L540 269 Z M568 243 C596 278 613 322 613 371 C613 420 596 464 568 499 L560 492 C587 459 603 417 603 371 C603 325 587 283 560 250 C563 248 566 245 568 243 L568 243 Z M604 211 C640 254 661 310 661 371 C661 432 640 488 604 531 L596 524 C631 483 651 429 651 371 C651 313 631 260 596 218 C601 213 604 211 604 211 L604 211 Z M649 171 C694 225 721 295 721 371 C721 447 694 517 649 571 L641 564 C685 512 711 445 711 371 C711 297 685 230 642 177 C644 175 647 173 649 171 L649 171 Z M706 120 C762 188 796 276 796 371 C796 467 762 555 706 622 L698 615 C753 549 786 464 786 371 C786 278 753 193 698 127 C703 123 706 120 706 120 L706 120 Z M183 170 L190 177 C147 229 121 297 121 371 C121 444 147 512 190 564 C187 567 184 569 182 571 C138 517 111 447 111 371 C111 294 138 225 183 170 L183 170 Z M334 306 L342 314 C330 330 323 350 323 371 C323 393 330 413 342 429 C340 431 337 434 334 436 C321 418 313 395 313 371 C313 346 321 324 334 306 L334 306 Z M364 333 L371 340 C366 349 362 360 362 371 C362 382 366 393 371 402 C369 404 366 406 364 409 C356 398 352 385 352 371 C352 357 356 344 364 333 L364 333 Z M395 403 C401 408 408 410 416 410 C424 410 431 407 437 403 C437 403 439 406 442 409 C435 415 426 418 416 418 C406 418 397 415 390 409 L395 403 Z M384 416 C393 423 404 428 416 428 C428 428 439 424 448 416 C450 419 452 421 454 423 C443 432 430 437 416 437 C401 437 388 432 377 423 L384 416 Z M371 430 C383 441 399 447 416 447 C433 447 449 441 461 430 C461 430 464 434 468 438 C454 450 436 457 416 457 C397 457 378 450 364 438 L371 430 Z M295 516 C327 545 370 562 416 562 C462 562 505 545 538 516 C538 516 545 523 544 523 C510 554 465 572 416 572 C367 572 322 554 288 524 L295 516 Z M416 240 C448 240 476 252 498 271 L491 278 C471 261 445 250 416 250 C388 250 361 261 340 278 L333 270 C355 251 384 240 416 240 L416 240 Z M416 285 C436 285 454 292 468 304 L461 312 C448 301 433 295 416 295 C399 295 383 302 370 312 L363 304 C378 292 396 285 416 285 L416 285 Z M416 305 C430 305 444 310 455 319 L448 326 C439 319 428 314 416 314 C404 314 393 319 383 326 L376 319 C388 310 401 305 416 305 L416 305 Z M341 464 C362 482 388 492 416 492 C445 492 471 481 491 464 L498 472 C476 491 447 502 416 502 C385 502 356 490 334 471 L341 464 Z M320 487 C346 509 380 523 416 523 C453 523 486 510 512 487 L518 494 C491 518 455 533 416 533 C377 533 341 519 313 495 L320 487 Z M610 597 L617 605 C563 653 493 682 416 682 C339 682 269 653 215 605 L222 598 C274 644 342 672 416 672 C491 672 559 644 610 597 L610 597 Z M172 654 C237 713 322 749 416 749 C510 749 596 713 661 654 L668 662 C601 722 512 759 416 759 C320 759 232 723 165 662 L172 654 Z M516 290 C534 312 544 340 544 371 C544 402 534 430 516 453 L508 446 C524 425 534 399 534 371 C534 343 524 317 509 297 L516 290 Z " />
<glyph glyph-name="summation" unicode="&#x2211;" horiz-adv-x="832" d="M126 120 C126 120 129 123 134 127 C79 193 46 278 46 371 C46 464 79 549 133 615 C129 619 126 621 126 621 C70 554 36 466 36 371 C36 275 70 187 126 120 L126 120 Z M228 211 C230 213 233 215 235 218 C201 259 181 313 181 371 C181 429 202 483 235 524 C232 526 230 529 227 531 C192 487 171 432 171 371 C171 310 193 254 228 211 L228 211 Z M264 243 C267 245 269 248 272 250 C245 283 229 325 229 371 C229 417 245 459 272 492 C269 494 267 497 264 499 C236 464 219 419 219 371 C219 322 236 278 264 243 L264 243 Z M316 289 C319 291 321 294 324 296 C308 317 298 343 298 371 C298 399 308 425 323 445 C321 448 318 450 316 452 C298 430 288 402 288 371 C288 340 298 312 316 289 L316 289 Z M349 320 C352 323 354 325 357 327 C348 340 343 355 343 371 C343 387 348 402 357 415 C354 417 352 420 349 422 C339 408 333 390 333 371 C333 352 339 334 349 320 L349 320 Z M378 346 C382 349 384 351 384 351 C381 357 379 364 379 371 C379 378 381 385 384 391 C384 391 382 393 378 396 C374 389 371 380 371 371 C371 362 374 353 378 346 L378 346 Z M416 60 C493 60 563 89 616 136 C614 139 611 141 609 144 C558 98 490 70 416 70 C342 70 274 98 222 144 C222 145 215 137 215 137 C268 89 338 60 416 60 L416 60 Z M416 324 C426 324 435 327 442 333 C439 337 437 339 437 339 C431 334 424 332 416 332 C408 332 401 335 395 339 C395 339 391 334 389 333 C397 327 406 324 416 324 L416 324 Z M482 319 C493 334 499 352 499 371 C499 390 493 408 482 422 C483 422 475 415 475 415 C484 403 489 388 489 371 C489 355 484 339 475 326 C478 324 480 322 482 319 L482 319 Z M292 269 C295 271 298 274 300 276 C280 302 267 335 267 371 C267 407 280 440 300 466 L293 473 C270 445 257 410 257 371 C257 333 270 297 292 269 L292 269 Z M416 -17 C512 -17 600 19 667 80 C667 80 660 88 660 87 C595 29 510 -7 416 -7 C322 -7 236 29 171 88 L164 80 C231 20 320 -17 416 -17 L416 -17 Z M416 121 C478 121 534 144 576 182 C574 185 571 187 569 190 C529 153 475 131 416 131 C357 131 303 153 262 190 L255 182 C298 144 354 121 416 121 L416 121 Z M416 170 C465 170 510 188 544 218 C542 221 539 223 537 226 C505 197 462 180 416 180 C369 180 327 197 294 226 L287 219 C322 189 367 170 416 170 L416 170 Z M416 209 C455 209 491 224 518 247 C516 250 514 253 512 255 C486 233 452 219 416 219 C380 219 346 233 320 255 L313 247 C341 224 377 209 416 209 L416 209 Z M416 265 C441 265 463 274 481 289 C479 292 476 294 474 297 C458 283 438 275 416 275 C394 275 373 283 357 297 L350 289 C368 274 391 265 416 265 L416 265 Z M358 445 C374 459 394 467 416 467 C438 467 458 459 474 445 L482 453 C464 468 441 477 416 477 C391 477 368 468 350 453 C351 452 354 448 358 445 L358 445 Z M570 552 C572 554 575 557 577 560 C534 598 478 621 416 621 C355 621 299 598 256 560 L263 553 C304 589 357 611 416 611 C475 611 529 589 570 552 L570 552 Z M454 346 C458 353 461 362 461 371 C461 380 458 389 454 396 L448 391 C451 385 453 378 453 371 C453 364 451 357 448 351 C448 351 450 349 454 346 L454 346 Z M468 333 C476 344 480 357 480 371 C480 385 476 398 468 409 L460 402 C466 393 470 382 470 371 C470 360 466 349 460 340 C463 338 465 336 468 333 L468 333 Z M498 306 C511 325 519 347 519 371 C519 395 511 418 497 436 L490 429 C502 413 509 393 509 371 C509 349 502 329 490 313 C492 311 495 308 498 306 L498 306 Z M540 269 C562 297 575 332 575 371 C575 410 562 445 539 473 L531 466 C552 440 565 407 565 371 C565 335 552 302 532 276 C535 274 537 271 540 269 L540 269 Z M568 243 C596 278 613 322 613 371 C613 420 596 464 568 499 L560 492 C587 459 603 417 603 371 C603 325 587 283 560 250 C563 248 566 245 568 243 L568 243 Z M604 211 C640 254 661 310 661 371 C661 432 640 488 604 531 L596 524 C631 483 651 429 651 371 C651 313 631 260 596 218 C601 213 604 211 604 211 L604 211 Z M649 171 C694 225 721 295 721 371 C721 447 694 517 649 571 L641 564 C685 512 711 445 711 371 C711 297 685 230 642 177 C644 175 647 173 649 171 L649 171 Z M706 120 C762 188 796 276 796 371 C796 467 762 555 706 622 L698 615 C753 549 786 464 786 371 C786 278 753 193 698 127 C703 123 706 120 706 120 L706 120 Z M183 170 L190 177 C147 229 121 297 121 371 C121 444 147 512 190 564 C187 567 184 569 182 571 C138 517 111 447 111 371 C111 294 138 225 183 170 L183 170 Z M334 306 L342 314 C330 330 323 350 323 371 C323 393 330 413 342 429 C340 431 337 434 334 436 C321 418 313 395 313 371 C313 346 321 324 334 306 L334 306 Z M364 333 L371 340 C366 349 362 360 362 371 C362 382 366 393 371 402 C369 404 366 406 364 409 C356 398 352 385 352 371 C352 357 356 344 364 333 L364 333 Z M395 403 C401 408 408 410 416 410 C424 410 431 407 437 403 C437 403 439 406 442 409 C435 415 426 418 416 418 C406 418 397 415 390 409 L395 403 Z M384 416 C393 423 404 428 416 428 C428 428 439 424 448 416 C450 419 452 421 454 423 C443 432 430 437 416 437 C401 437 388 432 377 423 L384 416 Z M371 430 C383 441 399 447 416 447 C433 447 449 441 461 430 C461 430 464 434 468 438 C454 450 436 457 416 457 C397 457 378 450 364 438 L371 430 Z M295 516 C327 545 370 562 416 562 C462 562 505 545 538 516 C538 516 545 523 544 523 C510 554 465 572 416 572 C367 572 322 554 288 524 L295 516 Z M416 240 C448 240 476 252 498 271 L491 278 C471 261 445 250 416 250 C388 250 361 261 340 278 L333 270 C355 251 384 240 416 240 L416 240 Z M416 285 C436 285 454 292 468 304 L461 312 C448 301 433 295 416 295 C399 295 383 302 370 312 L363 304 C378 292 396 285 416 285 L416 285 Z M416 305 C430 305 444 310 455 319 L448 326 C439 319 428 314 416 314 C404 314 393 319 383 326 L376 319 C388 310 401 305 416 305 L416 305 Z M341 464 C362 482 388 492 416 492 C445 492 471 481 491 464 L498 472 C476 491 447 502 416 502 C385 502 356 490 334 471 L341 464 Z M320 487 C346 509 380 523 416 523 C453 523 486 510 512 487 L518 494 C491 518 455 533 416 533 C377 533 341 519 313 495 L320 487 Z M610 597 L617 605 C563 653 493 682 416 682 C339 682 269 653 215 605 L222 598 C274 644 342 672 416 672 C491 672 559 644 610 597 L610 597 Z M172 654 C237 713 322 749 416 749 C510 749 596 713 661 654 L668 662 C601 722 512 759 416 759 C320 759 232 723 165 662 L172 654 Z M516 290 C534 312 544 340 544 371 C544 402 534 430 516 453 L508 446 C524 425 534 399 534 371 C534 343 524 317 509 297 L516 290 Z " />
<glyph glyph-name="minus" unicode="&#x2212;" horiz-adv-x="380" d="M43 297 L336 297 L336 415 L43 415 L43 297 Z " />
<glyph glyph-name="radical" unicode="&#x221a;" horiz-adv-x="363" d="M96 -5 L220 -5 L356 741 L237 741 L161 193 L135 448 L10 448 L96 -5 Z " />
<glyph glyph-name="infinity" unicode="&#x221e;" horiz-adv-x="550" d="M228 0 L348 0 L348 455 L384 455 L384 566 L348 566 L348 603 C348 632 357 639 380 639 L384 639 L384 756 C378 757 367 758 361 758 C260 758 228 724 228 619 L228 566 L171 566 L171 603 C171 632 180 639 203 639 L207 639 L207 756 C201 757 191 758 184 758 C84 758 51 724 51 619 L51 566 L6 566 L6 455 L51 455 L51 0 L171 0 L171 455 L228 455 L228 0 Z M405 0 L525 0 L525 566 L405 566 L405 0 Z M405 614 L525 614 L525 745 L405 745 L405 614 Z " />
<glyph glyph-name="integral" unicode="&#x222b;" horiz-adv-x="832" d="M126 120 C126 120 129 123 134 127 C79 193 46 278 46 371 C46 464 79 549 133 615 C129 619 126 621 126 621 C70 554 36 466 36 371 C36 275 70 187 126 120 L126 120 Z M228 211 C230 213 233 215 235 218 C201 259 181 313 181 371 C181 429 202 483 235 524 C232 526 230 529 227 531 C192 487 171 432 171 371 C171 310 193 254 228 211 L228 211 Z M264 243 C267 245 269 248 272 250 C245 283 229 325 229 371 C229 417 245 459 272 492 C269 494 267 497 264 499 C236 464 219 419 219 371 C219 322 236 278 264 243 L264 243 Z M316 289 C319 291 321 294 324 296 C308 317 298 343 298 371 C298 399 308 425 323 445 C321 448 318 450 316 452 C298 430 288 402 288 371 C288 340 298 312 316 289 L316 289 Z M349 320 C352 323 354 325 357 327 C348 340 343 355 343 371 C343 387 348 402 357 415 C354 417 352 420 349 422 C339 408 333 390 333 371 C333 352 339 334 349 320 L349 320 Z M378 346 C382 349 384 351 384 351 C381 357 379 364 379 371 C379 378 381 385 384 391 C384 391 382 393 378 396 C374 389 371 380 371 371 C371 362 374 353 378 346 L378 346 Z M416 60 C493 60 563 89 616 136 C614 139 611 141 609 144 C558 98 490 70 416 70 C342 70 274 98 222 144 C222 145 215 137 215 137 C268 89 338 60 416 60 L416 60 Z M416 324 C426 324 435 327 442 333 C439 337 437 339 437 339 C431 334 424 332 416 332 C408 332 401 335 395 339 C395 339 391 334 389 333 C397 327 406 324 416 324 L416 324 Z M482 319 C493 334 499 352 499 371 C499 390 493 408 482 422 C483 422 475 415 475 415 C484 403 489 388 489 371 C489 355 484 339 475 326 C478 324 480 322 482 319 L482 319 Z M292 269 C295 271 298 274 300 276 C280 302 267 335 267 371 C267 407 280 440 300 466 L293 473 C270 445 257 410 257 371 C257 333 270 297 292 269 L292 269 Z M416 -17 C512 -17 600 19 667 80 C667 80 660 88 660 87 C595 29 510 -7 416 -7 C322 -7 236 29 171 88 L164 80 C231 20 320 -17 416 -17 L416 -17 Z M416 121 C478 121 534 144 576 182 C574 185 571 187 569 190 C529 153 475 131 416 131 C357 131 303 153 262 190 L255 182 C298 144 354 121 416 121 L416 121 Z M416 170 C465 170 510 188 544 218 C542 221 539 223 537 226 C505 197 462 180 416 180 C369 180 327 197 294 226 L287 219 C322 189 367 170 416 170 L416 170 Z M416 209 C455 209 491 224 518 247 C516 250 514 253 512 255 C486 233 452 219 416 219 C380 219 346 233 320 255 L313 247 C341 224 377 209 416 209 L416 209 Z M416 265 C441 265 463 274 481 289 C479 292 476 294 474 297 C458 283 438 275 416 275 C394 275 373 283 357 297 L350 289 C368 274 391 265 416 265 L416 265 Z M358 445 C374 459 394 467 416 467 C438 467 458 459 474 445 L482 453 C464 468 441 477 416 477 C391 477 368 468 350 453 C351 452 354 448 358 445 L358 445 Z M570 552 C572 554 575 557 577 560 C534 598 478 621 416 621 C355 621 299 598 256 560 L263 553 C304 589 357 611 416 611 C475 611 529 589 570 552 L570 552 Z M454 346 C458 353 461 362 461 371 C461 380 458 389 454 396 L448 391 C451 385 453 378 453 371 C453 364 451 357 448 351 C448 351 450 349 454 346 L454 346 Z M468 333 C476 344 480 357 480 371 C480 385 476 398 468 409 L460 402 C466 393 470 382 470 371 C470 360 466 349 460 340 C463 338 465 336 468 333 L468 333 Z M498 306 C511 325 519 347 519 371 C519 395 511 418 497 436 L490 429 C502 413 509 393 509 371 C509 349 502 329 490 313 C492 311 495 308 498 306 L498 306 Z M540 269 C562 297 575 332 575 371 C575 410 562 445 539 473 L531 466 C552 440 565 407 565 371 C565 335 552 302 532 276 C535 274 537 271 540 269 L540 269 Z M568 243 C596 278 613 322 613 371 C613 420 596 464 568 499 L560 492 C587 459 603 417 603 371 C603 325 587 283 560 250 C563 248 566 245 568 243 L568 243 Z M604 211 C640 254 661 310 661 371 C661 432 640 488 604 531 L596 524 C631 483 651 429 651 371 C651 313 631 260 596 218 C601 213 604 211 604 211 L604 211 Z M649 171 C694 225 721 295 721 371 C721 447 694 517 649 571 L641 564 C685 512 711 445 711 371 C711 297 685 230 642 177 C644 175 647 173 649 171 L649 171 Z M706 120 C762 188 796 276 796 371 C796 467 762 555 706 622 L698 615 C753 549 786 464 786 371 C786 278 753 193 698 127 C703 123 706 120 706 120 L706 120 Z M183 170 L190 177 C147 229 121 297 121 371 C121 444 147 512 190 564 C187 567 184 569 182 571 C138 517 111 447 111 371 C111 294 138 225 183 170 L183 170 Z M334 306 L342 314 C330 330 323 350 323 371 C323 393 330 413 342 429 C340 431 337 434 334 436 C321 418 313 395 313 371 C313 346 321 324 334 306 L334 306 Z M364 333 L371 340 C366 349 362 360 362 371 C362 382 366 393 371 402 C369 404 366 406 364 409 C356 398 352 385 352 371 C352 357 356 344 364 333 L364 333 Z M395 403 C401 408 408 410 416 410 C424 410 431 407 437 403 C437 403 439 406 442 409 C435 415 426 418 416 418 C406 418 397 415 390 409 L395 403 Z M384 416 C393 423 404 428 416 428 C428 428 439 424 448 416 C450 419 452 421 454 423 C443 432 430 437 416 437 C401 437 388 432 377 423 L384 416 Z M371 430 C383 441 399 447 416 447 C433 447 449 441 461 430 C461 430 464 434 468 438 C454 450 436 457 416 457 C397 457 378 450 364 438 L371 430 Z M295 516 C327 545 370 562 416 562 C462 562 505 545 538 516 C538 516 545 523 544 523 C510 554 465 572 416 572 C367 572 322 554 288 524 L295 516 Z M416 240 C448 240 476 252 498 271 L491 278 C471 261 445 250 416 250 C388 250 361 261 340 278 L333 270 C355 251 384 240 416 240 L416 240 Z M416 285 C436 285 454 292 468 304 L461 312 C448 301 433 295 416 295 C399 295 383 302 370 312 L363 304 C378 292 396 285 416 285 L416 285 Z M416 305 C430 305 444 310 455 319 L448 326 C439 319 428 314 416 314 C404 314 393 319 383 326 L376 319 C388 310 401 305 416 305 L416 305 Z M341 464 C362 482 388 492 416 492 C445 492 471 481 491 464 L498 472 C476 491 447 502 416 502 C385 502 356 490 334 471 L341 464 Z M320 487 C346 509 380 523 416 523 C453 523 486 510 512 487 L518 494 C491 518 455 533 416 533 C377 533 341 519 313 495 L320 487 Z M610 597 L617 605 C563 653 493 682 416 682 C339 682 269 653 215 605 L222 598 C274 644 342 672 416 672 C491 672 559 644 610 597 L610 597 Z M172 654 C237 713 322 749 416 749 C510 749 596 713 661 654 L668 662 C601 722 512 759 416 759 C320 759 232 723 165 662 L172 654 Z M516 290 C534 312 544 340 544 371 C544 402 534 430 516 453 L508 446 C524 425 534 399 534 371 C534 343 524 317 509 297 L516 290 Z " />
<glyph glyph-name="approxequal" unicode="&#x2248;" horiz-adv-x="380" d="M46 193 L132 193 C132 212 137 218 148 218 C163 218 233 193 262 193 C311 193 337 209 334 319 L248 319 C248 300 244 295 233 295 C217 295 148 319 118 319 C69 319 43 304 46 193 L46 193 Z M46 385 L132 385 C132 404 137 410 148 410 C163 410 233 385 262 385 C311 385 337 400 334 511 L248 511 C248 492 244 487 233 487 C217 487 148 511 118 511 C69 511 43 496 46 385 L46 385 Z " />
<glyph glyph-name="notequal" unicode="&#x2260;" horiz-adv-x="405" d="M224 0 L344 0 L344 455 L403 455 L403 566 L344 566 L344 603 C344 632 352 639 383 639 L403 639 L403 756 C397 757 376 758 373 758 C263 758 224 724 224 619 L224 566 L167 566 L167 603 C167 632 176 639 199 639 L203 639 L203 756 C197 757 187 758 180 758 C80 758 48 724 48 619 L48 566 L3 566 L3 455 L48 455 L48 0 L167 0 L167 455 L224 455 L224 0 Z " />
<glyph glyph-name="lessequal" unicode="&#x2264;" horiz-adv-x="380" d="M54 35 L304 35 L304 254 L178 352 L304 450 L304 584 L54 395 L54 308 L257 154 L54 154 L54 35 Z " />
<glyph glyph-name="greaterequal" unicode="&#x2265;" horiz-adv-x="380" d="M76 35 L326 35 L326 154 L122 154 L325 308 L325 395 L76 584 L76 449 L202 351 L76 253 L76 35 Z " />
<glyph glyph-name="lozenge" unicode="&#x25ca;" horiz-adv-x="411" d="M48 0 L167 0 L167 455 L222 455 L222 135 C222 49 240 -2 345 -2 C355 -2 386 -2 399 0 L399 114 L368 114 C347 114 341 122 341 146 L341 455 L399 455 L399 566 L341 566 L341 705 L241 678 L228 566 L167 566 L167 603 C167 632 176 639 199 639 L203 639 L203 756 C197 757 186 758 180 758 C80 758 48 724 48 619 L48 566 L3 566 L3 455 L48 455 L48 0 Z " />
<glyph glyph-name="apple" unicode="&#xf8ff;" horiz-adv-x="832" d="M126 120 C126 120 129 123 134 127 C79 193 46 278 46 371 C46 464 79 549 133 615 C129 619 126 621 126 621 C70 554 36 466 36 371 C36 275 70 187 126 120 L126 120 Z M228 211 C230 213 233 215 235 218 C201 259 181 313 181 371 C181 429 202 483 235 524 C232 526 230 529 227 531 C192 487 171 432 171 371 C171 310 193 254 228 211 L228 211 Z M264 243 C267 245 269 248 272 250 C245 283 229 325 229 371 C229 417 245 459 272 492 C269 494 267 497 264 499 C236 464 219 419 219 371 C219 322 236 278 264 243 L264 243 Z M316 289 C319 291 321 294 324 296 C308 317 298 343 298 371 C298 399 308 425 323 445 C321 448 318 450 316 452 C298 430 288 402 288 371 C288 340 298 312 316 289 L316 289 Z M349 320 C352 323 354 325 357 327 C348 340 343 355 343 371 C343 387 348 402 357 415 C354 417 352 420 349 422 C339 408 333 390 333 371 C333 352 339 334 349 320 L349 320 Z M378 346 C382 349 384 351 384 351 C381 357 379 364 379 371 C379 378 381 385 384 391 C384 391 382 393 378 396 C374 389 371 380 371 371 C371 362 374 353 378 346 L378 346 Z M416 60 C493 60 563 89 616 136 C614 139 611 141 609 144 C558 98 490 70 416 70 C342 70 274 98 222 144 C222 145 215 137 215 137 C268 89 338 60 416 60 L416 60 Z M416 324 C426 324 435 327 442 333 C439 337 437 339 437 339 C431 334 424 332 416 332 C408 332 401 335 395 339 C395 339 391 334 389 333 C397 327 406 324 416 324 L416 324 Z M482 319 C493 334 499 352 499 371 C499 390 493 408 482 422 C483 422 475 415 475 415 C484 403 489 388 489 371 C489 355 484 339 475 326 C478 324 480 322 482 319 L482 319 Z M292 269 C295 271 298 274 300 276 C280 302 267 335 267 371 C267 407 280 440 300 466 L293 473 C270 445 257 410 257 371 C257 333 270 297 292 269 L292 269 Z M416 -17 C512 -17 600 19 667 80 C667 80 660 88 660 87 C595 29 510 -7 416 -7 C322 -7 236 29 171 88 L164 80 C231 20 320 -17 416 -17 L416 -17 Z M416 121 C478 121 534 144 576 182 C574 185 571 187 569 190 C529 153 475 131 416 131 C357 131 303 153 262 190 L255 182 C298 144 354 121 416 121 L416 121 Z M416 170 C465 170 510 188 544 218 C542 221 539 223 537 226 C505 197 462 180 416 180 C369 180 327 197 294 226 L287 219 C322 189 367 170 416 170 L416 170 Z M416 209 C455 209 491 224 518 247 C516 250 514 253 512 255 C486 233 452 219 416 219 C380 219 346 233 320 255 L313 247 C341 224 377 209 416 209 L416 209 Z M416 265 C441 265 463 274 481 289 C479 292 476 294 474 297 C458 283 438 275 416 275 C394 275 373 283 357 297 L350 289 C368 274 391 265 416 265 L416 265 Z M358 445 C374 459 394 467 416 467 C438 467 458 459 474 445 L482 453 C464 468 441 477 416 477 C391 477 368 468 350 453 C351 452 354 448 358 445 L358 445 Z M570 552 C572 554 575 557 577 560 C534 598 478 621 416 621 C355 621 299 598 256 560 L263 553 C304 589 357 611 416 611 C475 611 529 589 570 552 L570 552 Z M454 346 C458 353 461 362 461 371 C461 380 458 389 454 396 L448 391 C451 385 453 378 453 371 C453 364 451 357 448 351 C448 351 450 349 454 346 L454 346 Z M468 333 C476 344 480 357 480 371 C480 385 476 398 468 409 L460 402 C466 393 470 382 470 371 C470 360 466 349 460 340 C463 338 465 336 468 333 L468 333 Z M498 306 C511 325 519 347 519 371 C519 395 511 418 497 436 L490 429 C502 413 509 393 509 371 C509 349 502 329 490 313 C492 311 495 308 498 306 L498 306 Z M540 269 C562 297 575 332 575 371 C575 410 562 445 539 473 L531 466 C552 440 565 407 565 371 C565 335 552 302 532 276 C535 274 537 271 540 269 L540 269 Z M568 243 C596 278 613 322 613 371 C613 420 596 464 568 499 L560 492 C587 459 603 417 603 371 C603 325 587 283 560 250 C563 248 566 245 568 243 L568 243 Z M604 211 C640 254 661 310 661 371 C661 432 640 488 604 531 L596 524 C631 483 651 429 651 371 C651 313 631 260 596 218 C601 213 604 211 604 211 L604 211 Z M649 171 C694 225 721 295 721 371 C721 447 694 517 649 571 L641 564 C685 512 711 445 711 371 C711 297 685 230 642 177 C644 175 647 173 649 171 L649 171 Z M706 120 C762 188 796 276 796 371 C796 467 762 555 706 622 L698 615 C753 549 786 464 786 371 C786 278 753 193 698 127 C703 123 706 120 706 120 L706 120 Z M183 170 L190 177 C147 229 121 297 121 371 C121 444 147 512 190 564 C187 567 184 569 182 571 C138 517 111 447 111 371 C111 294 138 225 183 170 L183 170 Z M334 306 L342 314 C330 330 323 350 323 371 C323 393 330 413 342 429 C340 431 337 434 334 436 C321 418 313 395 313 371 C313 346 321 324 334 306 L334 306 Z M364 333 L371 340 C366 349 362 360 362 371 C362 382 366 393 371 402 C369 404 366 406 364 409 C356 398 352 385 352 371 C352 357 356 344 364 333 L364 333 Z M395 403 C401 408 408 410 416 410 C424 410 431 407 437 403 C437 403 439 406 442 409 C435 415 426 418 416 418 C406 418 397 415 390 409 L395 403 Z M384 416 C393 423 404 428 416 428 C428 428 439 424 448 416 C450 419 452 421 454 423 C443 432 430 437 416 437 C401 437 388 432 377 423 L384 416 Z M371 430 C383 441 399 447 416 447 C433 447 449 441 461 430 C461 430 464 434 468 438 C454 450 436 457 416 457 C397 457 378 450 364 438 L371 430 Z M295 516 C327 545 370 562 416 562 C462 562 505 545 538 516 C538 516 545 523 544 523 C510 554 465 572 416 572 C367 572 322 554 288 524 L295 516 Z M416 240 C448 240 476 252 498 271 L491 278 C471 261 445 250 416 250 C388 250 361 261 340 278 L333 270 C355 251 384 240 416 240 L416 240 Z M416 285 C436 285 454 292 468 304 L461 312 C448 301 433 295 416 295 C399 295 383 302 370 312 L363 304 C378 292 396 285 416 285 L416 285 Z M416 305 C430 305 444 310 455 319 L448 326 C439 319 428 314 416 314 C404 314 393 319 383 326 L376 319 C388 310 401 305 416 305 L416 305 Z M341 464 C362 482 388 492 416 492 C445 492 471 481 491 464 L498 472 C476 491 447 502 416 502 C385 502 356 490 334 471 L341 464 Z M320 487 C346 509 380 523 416 523 C453 523 486 510 512 487 L518 494 C491 518 455 533 416 533 C377 533 341 519 313 495 L320 487 Z M610 597 L617 605 C563 653 493 682 416 682 C339 682 269 653 215 605 L222 598 C274 644 342 672 416 672 C491 672 559 644 610 597 L610 597 Z M172 654 C237 713 322 749 416 749 C510 749 596 713 661 654 L668 662 C601 722 512 759 416 759 C320 759 232 723 165 662 L172 654 Z M516 290 C534 312 544 340 544 371 C544 402 534 430 516 453 L508 446 C524 425 534 399 534 371 C534 343 524 317 509 297 L516 290 Z " />
<glyph glyph-name="fi" unicode="&#xfb01;" horiz-adv-x="373" d="M6 455 L51 455 L51 0 L171 0 L171 455 L207 455 L207 566 L171 566 L171 603 C171 632 180 639 203 639 L207 639 L207 756 C201 757 191 758 184 758 C84 758 51 724 51 619 L51 566 L6 566 L6 455 Z M228 0 L349 0 L349 566 L228 566 L228 0 Z M228 614 L349 614 L349 745 L228 745 L228 614 Z " />
<glyph glyph-name="fl" unicode="&#xfb02;" horiz-adv-x="392" d="M6 455 L51 455 L51 0 L171 0 L171 455 L207 455 L207 566 L171 566 L171 603 C171 632 180 639 203 639 L207 639 L207 756 C201 757 191 758 184 758 C84 758 51 724 51 619 L51 566 L6 566 L6 455 Z M333 -2 C339 -2 372 -2 380 0 L380 114 L365 114 C351 114 349 120 349 136 L349 756 L228 756 L228 133 C228 41 243 -2 333 -2 L333 -2 Z " />
</font>
</svg>
