<?xml version="1.0" encoding="UTF-8"?>
<svg xmlns="http://www.w3.org/2000/svg" xmlns:xlink="http://www.w3.org/1999/xlink" version="1.2" >
<font id="AntennaComp LightItalic">
<font-face  font-family="AntennaComp" units-per-em="1000" ascent="800" descent="-200" font-style="italic" font-weight="300" font-stretch="normal" slope="-6" cap-height="741" x-height="551" underline-position="-75" underline-thickness="50" />
<missing-glyph  horiz-adv-x="85" d="" />
<glyph glyph-name="NULL" d="" />
<glyph glyph-name="CR" unicode="&#xd;" horiz-adv-x="250" d="" />
<glyph glyph-name="&amp;#x20;" unicode="&#x20;" horiz-adv-x="85" d="" />
<glyph glyph-name="&amp;#xa0;" unicode="&#xa0;" horiz-adv-x="85" d="" />
<glyph glyph-name="exclam" unicode="&#x21;" horiz-adv-x="158" d="M35 202 L86 202 L150 741 L86 741 L35 202 Z M7 0 L70 0 L80 94 L16 94 L7 0 Z " />
<glyph glyph-name="quotedbl" unicode="&#x22;" horiz-adv-x="220" d="M52 475 L102 475 L133 741 L76 741 L52 475 Z M140 475 L190 475 L222 741 L164 741 L140 475 Z " />
<glyph glyph-name="numbersign" unicode="&#x23;" horiz-adv-x="265" d="M24 0 L77 0 L104 261 L139 261 L112 0 L165 0 L192 261 L233 261 L239 317 L198 317 L208 412 L250 412 L256 468 L214 468 L242 741 L189 741 L161 468 L126 468 L155 741 L101 741 L73 468 L32 468 L26 412 L67 412 L57 317 L16 317 L9 261 L51 261 L24 0 Z M107 313 L118 416 L157 416 L146 313 L107 313 Z " />
<glyph glyph-name="dollar" unicode="&#x24;" horiz-adv-x="206" d="M23 -91 L73 -91 L81 -2 C167 9 161 80 152 170 L108 591 C102 646 103 687 150 687 C164 687 181 685 192 681 L209 736 C196 739 179 743 160 744 L169 827 L119 827 L109 738 C48 720 43 656 52 575 L97 150 C106 68 97 51 52 51 C38 51 13 55 -2 59 L-20 5 C-6 2 11 -2 31 -3 L23 -91 Z " />
<glyph glyph-name="percent" unicode="&#x25;" horiz-adv-x="433" d="M87 289 C161 289 167 338 186 513 C194 583 198 631 198 663 C198 725 181 745 130 745 C55 745 50 698 32 522 C24 452 20 403 20 372 C20 309 36 289 87 289 L87 289 Z M90 337 C77 337 72 343 72 375 C72 402 75 446 83 519 C100 680 104 696 127 696 C140 696 146 690 146 658 C146 632 142 587 134 514 C117 353 113 337 90 337 L90 337 Z M302 -5 C377 -5 382 45 401 220 C409 290 413 338 413 370 C413 432 397 452 346 452 C271 452 266 406 247 229 C239 159 235 111 235 79 C235 17 252 -5 302 -5 L302 -5 Z M306 44 C293 44 287 50 287 82 C287 109 291 153 299 226 C316 387 320 403 342 403 C355 403 362 397 362 365 C362 339 357 294 349 221 C333 60 329 44 306 44 L306 44 Z M83 0 L136 0 L349 741 L296 741 L83 0 Z " />
<glyph glyph-name="ampersand" unicode="&#x26;" horiz-adv-x="289" d="M84 -4 C130 -4 159 10 180 42 L191 0 L251 0 L216 133 C221 153 225 174 230 199 L273 439 L223 439 L188 239 L165 325 C158 347 152 369 146 390 C199 473 239 555 239 656 C239 717 223 746 157 746 C124 746 100 735 85 709 C67 678 64 629 64 578 C64 525 71 474 85 415 C31 330 -19 233 -19 100 C-19 26 9 -4 84 -4 L84 -4 Z M89 47 C49 47 38 66 38 106 C38 203 65 280 101 350 C105 335 110 319 115 303 L162 115 C144 58 123 47 89 47 L89 47 Z M118 580 C118 622 119 657 127 677 C133 690 143 695 157 695 C180 695 186 684 186 652 C186 581 167 519 132 457 C123 501 118 543 118 580 L118 580 Z " />
<glyph glyph-name="quotesingle" unicode="&#x27;" horiz-adv-x="132" d="M52 475 L103 475 L134 741 L76 741 L52 475 Z " />
<glyph glyph-name="parenleft" unicode="&#x28;" horiz-adv-x="188" d="M63 -148 L112 -124 C98 -77 81 0 81 126 C81 177 84 236 91 306 C116 542 166 662 203 735 L157 759 C119 687 59 547 34 305 C27 235 24 175 24 122 C24 -13 45 -96 63 -148 L63 -148 Z " />
<glyph glyph-name="parenright" unicode="&#x29;" horiz-adv-x="188" d="M16 -148 C54 -76 114 64 139 306 C146 376 149 437 149 489 C149 624 129 707 111 759 L61 735 C75 688 92 611 92 486 C92 434 89 375 82 306 C57 69 6 -52 -30 -124 L16 -148 Z " />
<glyph glyph-name="asterisk" unicode="&#x2a;" horiz-adv-x="236" d="M150 458 L157 566 L218 507 L250 544 L174 595 L260 635 L235 676 L163 630 L179 738 L132 744 L125 635 L66 694 L34 657 L107 601 L24 567 L49 526 L118 571 L103 463 L150 458 Z " />
<glyph glyph-name="plus" unicode="&#x2b;" horiz-adv-x="262" d="M87 215 L143 215 L156 337 L220 337 L225 393 L162 393 L175 513 L118 513 L106 393 L42 393 L36 337 L100 337 L87 215 Z " />
<glyph glyph-name="comma" unicode="&#x2c;" horiz-adv-x="115" d="M-4 -80 C37 -62 45 -45 52 18 L60 95 L-4 95 L-14 0 L11 0 C8 -32 5 -33 -20 -48 L-4 -80 Z " />
<glyph glyph-name="&amp;#x2d;" unicode="&#x2d;" horiz-adv-x="166" d="M9 282 L138 282 L144 337 L14 337 L9 282 Z " />
<glyph glyph-name="&amp;#xad;" unicode="&#xad;" horiz-adv-x="166" d="M9 282 L138 282 L144 337 L14 337 L9 282 Z " />
<glyph glyph-name="period" unicode="&#x2e;" horiz-adv-x="115" d="M-14 0 L50 0 L60 95 L-4 95 L-14 0 Z " />
<glyph glyph-name="slash" unicode="&#x2f;" horiz-adv-x="208" d="M-41 0 L18 0 L247 741 L189 741 L-41 0 Z " />
<glyph glyph-name="zero" unicode="0" horiz-adv-x="246" d="M88 -5 C188 -5 184 53 218 364 C237 536 242 596 242 638 C242 716 222 745 158 745 C60 745 60 682 27 376 C13 250 3 149 3 103 C3 24 24 -5 88 -5 L88 -5 Z M90 50 C70 50 61 60 61 104 C61 148 69 229 85 373 C115 658 116 689 155 689 C176 689 185 679 185 635 C185 592 176 512 161 368 C130 82 129 50 90 50 L90 50 Z " />
<glyph glyph-name="one" unicode="1" horiz-adv-x="159" d="M21 0 L79 0 L157 741 L47 741 L41 685 L94 685 L21 0 Z " />
<glyph glyph-name="two" unicode="2" horiz-adv-x="196" d="M-28 0 L142 0 L148 54 L36 54 L193 566 C204 603 214 635 214 669 C214 714 194 745 131 745 C89 745 66 739 46 731 L66 680 C80 685 96 690 120 690 C169 690 160 646 142 588 L-22 53 L-28 0 Z " />
<glyph glyph-name="three" unicode="3" horiz-adv-x="197" d="M37 -5 C126 -5 141 48 157 207 C162 254 168 317 168 342 C168 380 163 399 141 409 C174 428 180 472 191 578 C194 611 197 636 197 657 C197 717 177 745 119 745 C85 745 67 743 42 736 L59 684 C78 690 94 691 107 691 C146 691 143 655 133 570 C122 456 118 431 59 431 L44 431 L37 376 L54 376 C120 375 116 363 101 212 C88 86 81 49 37 49 C17 49 5 52 -13 59 L-35 7 C-14 -2 9 -5 37 -5 L37 -5 Z " />
<glyph glyph-name="four" unicode="4" horiz-adv-x="240" d="M-6 161 L109 161 L92 0 L146 0 L163 161 L206 161 L211 213 L168 213 L192 439 L150 439 L115 213 L56 213 L220 741 L165 741 L-1 210 L-6 161 Z " />
<glyph glyph-name="five" unicode="5" horiz-adv-x="206" d="M55 -5 C142 -5 155 38 175 232 C180 282 188 365 188 394 C188 457 171 479 124 479 C103 479 93 476 83 470 L112 685 L203 685 L209 741 L63 741 L21 411 L60 403 C69 413 75 422 99 422 C121 422 130 414 130 381 C130 355 125 311 118 236 C102 81 97 49 50 49 C28 49 10 54 -3 59 L-24 8 C-6 1 18 -5 55 -5 L55 -5 Z " />
<glyph glyph-name="six" unicode="6" horiz-adv-x="236" d="M86 -5 C181 -5 185 64 208 276 C214 331 219 374 219 407 C219 466 202 490 153 490 C119 490 101 480 94 471 C116 665 122 685 207 685 L221 685 L226 741 L211 741 C54 741 58 682 20 302 C10 203 3 143 3 102 C3 18 34 -5 86 -5 L86 -5 Z M89 49 C69 49 61 57 61 99 C61 133 66 189 76 280 C90 411 96 436 132 436 C153 436 161 428 161 393 C161 369 157 333 151 279 C130 76 124 49 89 49 L89 49 Z " />
<glyph glyph-name="seven" unicode="7" horiz-adv-x="195" d="M44 685 L155 685 L-5 0 L54 0 L214 691 L219 741 L49 741 L44 685 Z " />
<glyph glyph-name="eight" unicode="8" horiz-adv-x="234" d="M80 -5 C168 -5 176 30 194 201 C200 256 204 309 204 336 C204 372 198 395 182 407 C207 423 213 466 224 566 C229 611 232 641 232 663 C232 720 212 745 154 745 C75 745 67 707 52 576 C47 528 43 494 43 471 C43 442 47 423 60 412 C21 390 18 326 6 211 C2 171 -4 116 -4 86 C-4 21 20 -5 80 -5 L80 -5 Z M83 47 C62 47 54 57 54 89 C54 113 59 151 65 212 C79 350 80 381 118 381 C139 381 147 369 147 336 C147 310 143 269 137 209 C122 71 121 47 83 47 L83 47 Z M123 433 C106 433 99 441 99 467 C99 486 102 517 107 563 C118 671 120 693 151 693 C170 693 176 684 176 656 C176 636 173 605 168 560 C156 452 155 433 123 433 L123 433 Z " />
<glyph glyph-name="nine" unicode="9" horiz-adv-x="236" d="M10 1 L25 1 C182 1 178 59 216 439 C226 538 233 598 233 639 C233 723 202 745 150 745 C55 745 51 677 28 465 C22 410 17 366 17 333 C17 274 34 250 83 250 C116 250 134 260 142 270 C120 76 113 54 28 54 L15 54 L10 1 Z M104 305 C83 305 75 313 75 346 C75 370 79 406 85 461 C106 663 111 690 146 690 C166 690 175 682 175 640 C175 605 169 550 160 460 C146 329 139 305 104 305 L104 305 Z " />
<glyph glyph-name="colon" unicode="&#x3a;" horiz-adv-x="120" d="M-11 0 L52 0 L62 95 L-1 95 L-11 0 Z M37 456 L100 456 L110 551 L47 551 L37 456 Z " />
<glyph glyph-name="semicolon" unicode="&#x3b;" horiz-adv-x="120" d="M37 456 L100 456 L110 551 L47 551 L37 456 Z M-1 -80 C40 -62 47 -45 54 18 L62 95 L-1 95 L-11 0 L14 0 C11 -32 6 -34 -16 -47 L-1 -80 Z " />
<glyph glyph-name="less" unicode="&#x3c;" horiz-adv-x="262" d="M183 190 L190 258 L94 363 L212 469 L220 536 L41 386 L37 340 L183 190 Z " />
<glyph glyph-name="equal" unicode="&#x3d;" horiz-adv-x="262" d="M41 391 L225 391 L230 446 L47 446 L41 391 Z M28 261 L211 261 L217 316 L33 316 L28 261 Z " />
<glyph glyph-name="greater" unicode="&#x3e;" horiz-adv-x="262" d="M40 190 L218 340 L223 386 L77 536 L69 469 L166 363 L47 257 L40 190 Z " />
<glyph glyph-name="question" unicode="&#x3f;" horiz-adv-x="209" d="M50 202 L105 202 C111 268 115 305 135 369 L199 574 C212 617 219 640 219 672 C219 714 198 745 130 745 C90 745 65 740 47 733 L65 681 C77 685 95 690 123 690 C172 690 167 651 149 593 L83 382 C62 314 57 278 50 202 L50 202 Z M27 0 L90 0 L99 88 L36 88 L27 0 Z " />
<glyph glyph-name="at" unicode="&#x40;" horiz-adv-x="380" d="M146 -145 L238 -145 L241 -113 L150 -113 C59 -113 34 -80 34 29 C34 91 44 178 56 301 C91 640 105 713 224 713 C306 713 332 681 332 576 C332 518 324 436 312 320 L290 111 C287 80 283 71 267 71 C249 71 246 83 250 112 L295 543 L251 545 L242 529 C234 541 219 550 185 550 C120 550 115 506 93 297 C84 214 78 161 78 123 C78 60 94 40 147 40 C183 40 203 48 215 61 C222 46 243 40 264 40 C309 40 319 64 324 110 L346 318 C358 433 365 517 365 578 C365 701 335 745 225 745 C77 745 59 664 22 302 C9 182 1 94 1 30 C1 -97 34 -145 146 -145 L146 -145 Z M160 88 C140 88 132 90 132 133 C132 164 137 213 145 294 C165 492 170 499 197 499 C223 499 230 490 230 450 C230 418 224 370 217 294 C199 117 198 88 160 88 L160 88 Z " />
<glyph glyph-name="A" unicode="A" horiz-adv-x="240" d="M-33 0 L24 0 L59 174 L138 174 L137 0 L195 0 L191 744 L126 744 L-33 0 Z M71 231 L124 499 L143 597 L140 499 L138 231 L71 231 Z " />
<glyph glyph-name="B" unicode="B" horiz-adv-x="244" d="M-8 0 L86 0 C171 0 189 57 204 192 C209 233 212 268 212 297 C212 342 203 371 175 383 C215 401 226 453 236 549 C239 578 243 617 243 641 C243 708 222 741 145 741 L70 741 L-8 0 Z M55 53 L86 351 L107 351 C144 351 155 331 155 287 C155 265 152 231 148 199 C136 93 131 53 83 53 L55 53 Z M92 407 L122 687 L141 687 C175 687 186 671 186 630 C186 612 184 589 179 544 C169 439 160 407 116 407 L92 407 Z " />
<glyph glyph-name="C" unicode="C" horiz-adv-x="189" d="M96 -5 C116 -5 137 -2 149 3 L140 55 C130 52 115 51 102 51 C68 51 56 63 56 119 C56 167 66 268 78 373 C108 659 110 688 164 688 C182 688 197 686 208 683 L225 738 C215 741 195 745 164 745 C126 745 102 737 84 719 C46 680 39 574 19 378 C7 265 -3 173 -3 116 C-3 28 16 -5 96 -5 L96 -5 Z " />
<glyph glyph-name="D" unicode="D" horiz-adv-x="257" d="M-8 0 L90 0 C126 0 155 7 175 34 C206 75 213 132 237 365 C252 500 259 575 259 622 C259 713 227 741 165 741 L70 741 L-8 0 Z M56 52 L122 688 L158 688 C183 688 201 676 201 617 C201 583 191 481 180 368 C157 156 150 99 130 72 C120 55 105 52 87 52 L56 52 Z " />
<glyph glyph-name="E" unicode="E" horiz-adv-x="210" d="M-8 0 L150 0 L155 54 L54 54 L86 352 L184 352 L189 408 L92 408 L121 685 L221 685 L227 741 L70 741 L-8 0 Z " />
<glyph glyph-name="F" unicode="F" horiz-adv-x="193" d="M-8 0 L49 0 L86 348 L181 348 L186 403 L91 403 L121 685 L219 685 L224 741 L70 741 L-8 0 Z " />
<glyph glyph-name="G" unicode="G" horiz-adv-x="238" d="M93 -4 C183 -4 188 51 209 249 L226 410 L117 410 L110 355 L165 355 L153 249 C135 81 136 47 95 47 C64 47 54 61 54 115 C54 164 63 249 76 373 C106 659 108 689 165 689 C193 689 210 685 225 680 L243 734 C225 740 199 745 163 745 C127 745 102 738 85 720 C48 683 40 585 19 378 C6 258 -3 171 -3 115 C-3 23 17 -4 93 -4 L93 -4 Z " />
<glyph glyph-name="H" unicode="H" horiz-adv-x="271" d="M-8 0 L49 0 L86 352 L180 352 L143 0 L201 0 L279 741 L221 741 L186 411 L92 411 L127 741 L70 741 L-8 0 Z " />
<glyph glyph-name="I" unicode="I" horiz-adv-x="126" d="M-5 0 L53 0 L131 741 L73 741 L-5 0 Z " />
<glyph glyph-name="J" unicode="J" horiz-adv-x="145" d="M-10 0 C58 0 81 35 87 93 L155 741 L97 741 L29 97 C26 69 21 55 -19 55 L-27 55 L-33 0 L-10 0 Z " />
<glyph glyph-name="K" unicode="K" horiz-adv-x="233" d="M-9 0 L49 0 L76 254 L111 360 L133 0 L191 0 L159 457 L261 741 L204 741 L93 422 L127 741 L70 741 L-9 0 Z " />
<glyph glyph-name="L" unicode="L" horiz-adv-x="192" d="M-8 0 L146 0 L151 54 L54 54 L127 741 L70 741 L-8 0 Z " />
<glyph glyph-name="M" unicode="M" horiz-adv-x="321" d="M-8 0 L44 0 L90 431 L102 548 L99 432 L96 0 L143 0 L229 424 L253 548 L240 424 L195 0 L251 0 L329 741 L250 741 L159 293 L141 195 L144 295 L148 741 L70 741 L-8 0 Z " />
<glyph glyph-name="N" unicode="N" horiz-adv-x="267" d="M-8 0 L46 0 L102 533 L108 430 L142 0 L197 0 L275 741 L221 741 L169 259 L163 370 L135 741 L70 741 L-8 0 Z " />
<glyph glyph-name="O" unicode="O" horiz-adv-x="256" d="M93 -5 C129 -5 152 1 170 18 C205 53 214 142 237 364 C252 507 259 579 259 625 C259 714 240 745 162 745 C127 745 102 739 85 719 C49 682 41 591 19 378 C5 250 -4 169 -4 115 C-4 26 17 -5 93 -5 L93 -5 Z M96 50 C66 50 55 62 55 115 C55 161 63 239 77 373 C107 662 108 688 160 688 C190 688 202 676 202 624 C202 578 193 500 179 367 C148 77 147 50 96 50 L96 50 Z " />
<glyph glyph-name="P" unicode="P" horiz-adv-x="240" d="M-8 0 L49 0 L81 300 L120 300 C210 300 223 371 238 518 C243 561 247 598 247 628 C247 703 225 741 145 741 L70 741 L-8 0 Z M86 355 L122 686 L141 686 C178 686 189 668 189 624 C189 598 186 562 181 518 C168 398 162 355 116 355 L86 355 Z " />
<glyph glyph-name="Q" unicode="Q" horiz-adv-x="256" d="M132 -132 L146 -132 L151 -80 L138 -80 C106 -80 99 -72 103 -35 L106 -3 C134 -1 154 5 170 20 C206 55 214 142 237 364 C252 507 259 579 259 625 C259 714 240 745 162 745 C127 745 102 739 85 720 C49 682 41 592 19 378 C5 250 -4 169 -4 115 C-4 43 9 10 55 0 L52 -27 C43 -108 62 -132 132 -132 L132 -132 Z M96 50 C67 50 55 62 55 115 C55 161 63 239 77 373 C107 662 108 688 160 688 C190 688 202 676 202 624 C202 578 193 500 179 367 C148 77 147 50 96 50 L96 50 Z " />
<glyph glyph-name="R" unicode="R" horiz-adv-x="241" d="M119 0 L176 0 L156 318 C215 342 226 412 238 524 C243 565 245 600 245 629 C245 703 225 741 149 741 L70 741 L-8 0 L48 0 L81 310 L101 310 L119 0 Z M86 365 L121 686 L144 686 C178 686 188 668 188 626 C188 600 185 567 180 524 C169 410 161 365 116 365 L86 365 Z " />
<glyph glyph-name="S" unicode="S" horiz-adv-x="208" d="M58 -6 C138 -6 167 39 167 109 C167 127 165 140 161 172 L105 592 C98 648 104 688 154 688 C168 688 184 686 197 682 L216 738 C201 742 185 745 149 745 C78 745 44 702 44 628 C44 609 46 594 49 575 L106 148 C117 64 98 50 57 50 C41 50 14 53 -3 57 L-21 2 C-3 -2 28 -6 58 -6 L58 -6 Z " />
<glyph glyph-name="T" unicode="T" horiz-adv-x="208" d="M34 0 L93 0 L165 686 L233 686 L239 741 L46 741 L40 686 L107 686 L34 0 Z " />
<glyph glyph-name="U" unicode="U" horiz-adv-x="268" d="M97 -5 C197 -5 206 62 218 180 L277 741 L221 741 L162 179 C152 86 149 50 101 50 C52 50 56 86 66 179 L125 741 L67 741 L9 180 C-4 64 -8 -5 97 -5 L97 -5 Z " />
<glyph glyph-name="V" unicode="V" horiz-adv-x="239" d="M46 -3 L116 -3 L272 741 L214 741 L123 278 L96 137 L99 280 L103 741 L45 741 L46 -3 Z " />
<glyph glyph-name="W" unicode="W" horiz-adv-x="361" d="M37 -3 L97 -3 L170 379 L193 503 L191 379 L189 -3 L249 -3 L383 741 L328 741 L267 384 L240 224 L243 384 L247 741 L189 741 L124 390 L94 219 L99 389 L109 741 L50 741 L37 -3 Z " />
<glyph glyph-name="X" unicode="X" horiz-adv-x="234" d="M136 0 L191 0 L146 387 L261 741 L205 741 L133 507 L106 741 L50 741 L90 391 L-36 0 L20 0 L104 271 L136 0 Z " />
<glyph glyph-name="Y" unicode="Y" horiz-adv-x="224" d="M44 0 L101 0 L127 247 L262 741 L205 741 L114 381 L99 741 L40 741 L70 257 L44 0 Z " />
<glyph glyph-name="Z" unicode="Z" horiz-adv-x="214" d="M-24 0 L160 0 L165 54 L43 54 L227 690 L232 741 L60 741 L55 685 L167 685 L-19 47 L-24 0 Z " />
<glyph glyph-name="bracketleft" unicode="&#x5b;" horiz-adv-x="199" d="M-9 -145 L109 -145 L114 -96 L53 -96 L137 705 L196 705 L201 756 L85 756 L-9 -145 Z " />
<glyph glyph-name="backslash" unicode="&#x5c;" horiz-adv-x="208" d="M113 0 L168 0 L94 741 L40 741 L113 0 Z " />
<glyph glyph-name="bracketright" unicode="&#x5d;" horiz-adv-x="199" d="M-13 -145 L106 -145 L200 756 L83 756 L78 705 L138 705 L54 -96 L-8 -96 L-13 -145 Z " />
<glyph glyph-name="asciicircum" unicode="&#x5e;" horiz-adv-x="220" d="M50 606 L99 606 L141 681 L170 606 L216 606 L174 723 L118 723 L50 606 Z " />
<glyph glyph-name="underscore" unicode="&#x5f;" horiz-adv-x="169" d="M-65 -106 L133 -106 L137 -62 L-61 -62 L-65 -106 Z " />
<glyph glyph-name="grave" unicode="&#x60;" horiz-adv-x="220" d="M123 606 L169 606 L138 723 L77 723 L123 606 Z " />
<glyph glyph-name="a" unicode="a" horiz-adv-x="224" d="M50 -4 C83 -4 105 2 118 19 C123 5 129 -1 161 -1 C165 -1 173 -1 176 0 L182 54 C160 54 158 60 162 95 L194 405 C205 512 208 556 124 556 C97 556 70 553 53 547 L65 495 C78 498 101 501 115 501 C151 501 148 484 139 396 C33 393 14 359 -6 173 C-10 135 -12 103 -12 80 C-12 23 3 -4 50 -4 L50 -4 Z M66 48 C49 48 43 59 43 89 C43 108 45 135 49 173 C64 324 71 341 133 343 L119 210 C104 60 102 48 66 48 L66 48 Z " />
<glyph glyph-name="b" unicode="b" horiz-adv-x="240" d="M107 -5 C130 -5 145 -1 161 15 C189 42 195 103 213 272 C224 369 230 428 230 466 C230 533 205 556 161 556 C133 556 111 549 100 536 L123 756 L67 756 L-13 1 L35 -2 L45 18 C55 3 77 -5 107 -5 L107 -5 Z M92 48 C68 48 58 60 58 103 C58 137 64 191 73 277 C93 465 96 500 139 500 C163 500 172 492 172 451 C172 419 166 365 156 275 C135 69 134 48 92 48 L92 48 Z " />
<glyph glyph-name="c" unicode="c" horiz-adv-x="172" d="M75 -4 C95 -4 112 -1 125 3 L117 53 C106 50 93 49 83 49 C56 49 49 69 49 103 C49 134 57 207 64 278 C84 473 87 499 128 499 C140 499 150 497 161 494 L180 547 C165 552 150 555 126 555 C35 555 29 502 6 284 C-1 215 -9 137 -9 101 C-9 37 6 -4 75 -4 L75 -4 Z " />
<glyph glyph-name="d" unicode="d" horiz-adv-x="240" d="M61 -5 C97 -5 120 9 129 23 L129 -1 L175 2 L254 756 L198 756 L174 537 C164 550 144 556 115 556 C91 556 76 552 61 537 C32 509 25 448 8 280 C-4 183 -9 124 -9 86 C-9 19 16 -5 61 -5 L61 -5 Z M82 48 C58 48 49 56 49 96 C49 129 55 183 64 273 C86 479 86 499 129 499 C153 499 162 487 162 445 C162 411 156 357 147 270 C127 83 124 48 82 48 L82 48 Z " />
<glyph glyph-name="e" unicode="e" horiz-adv-x="206" d="M76 -5 C101 -5 128 -1 148 7 L136 57 C118 52 99 49 83 49 C63 49 48 58 48 103 C48 126 54 192 60 248 L179 248 L181 275 C191 370 198 431 198 464 C198 525 185 556 121 556 C92 556 71 548 57 533 C30 502 24 446 7 282 C-3 195 -9 139 -9 100 C-9 24 18 -5 76 -5 L76 -5 Z M98 494 C103 499 110 501 119 501 C140 501 144 489 144 459 C144 439 138 376 130 301 L65 301 C78 435 84 477 98 494 L98 494 Z " />
<glyph glyph-name="f" unicode="f" horiz-adv-x="160" d="M23 498 L61 498 L-6 -145 L50 -145 L117 498 L168 498 L173 551 L123 551 L133 648 C138 687 144 701 181 701 L189 701 L194 756 C192 757 182 757 181 757 C107 757 85 729 78 653 L67 551 L28 551 L23 498 Z " />
<glyph glyph-name="g" unicode="g" horiz-adv-x="226" d="M98 196 C174 196 190 230 204 367 C208 405 210 432 210 454 C210 481 207 502 200 516 L233 516 L237 565 L159 552 C148 555 136 556 126 556 C49 556 36 517 22 382 C18 340 15 310 15 287 C15 254 20 230 35 215 C21 195 16 172 16 149 C16 133 19 121 27 110 C-19 90 -32 37 -36 -50 C-38 -111 -15 -150 64 -150 C155 -150 176 -105 181 26 C183 79 170 101 101 125 C76 134 65 141 65 159 C65 171 67 184 75 197 C82 196 89 196 98 196 L98 196 Z M100 249 C77 249 70 260 70 290 C70 309 72 338 77 378 C89 479 90 503 125 503 C149 503 155 491 155 459 C155 440 153 410 149 372 C137 271 134 249 100 249 L100 249 Z M89 73 C123 61 129 50 127 17 C122 -75 114 -100 65 -100 C25 -100 18 -76 19 -41 C21 29 28 68 67 81 C73 78 81 76 89 73 L89 73 Z " />
<glyph glyph-name="h" unicode="h" horiz-adv-x="243" d="M-13 0 L44 0 L83 374 C94 472 104 500 140 500 C174 500 172 482 165 420 L121 0 L177 0 L224 436 C232 511 232 556 160 556 C128 556 110 548 98 535 L123 756 L67 756 L-13 0 Z " />
<glyph glyph-name="i" unicode="i" horiz-adv-x="114" d="M-11 0 L46 0 L104 551 L48 551 L-11 0 Z M55 624 L112 624 L122 720 L66 720 L55 624 Z " />
<glyph glyph-name="j" unicode="j" horiz-adv-x="114" d="M-47 -145 C15 -145 33 -122 39 -68 L104 551 L48 551 L-17 -62 C-20 -84 -21 -90 -42 -91 L-47 -145 Z M55 624 L112 624 L122 720 L66 720 L55 624 Z " />
<glyph glyph-name="k" unicode="k" horiz-adv-x="212" d="M-13 0 L42 0 L61 182 L83 238 L116 0 L172 0 L126 324 L217 551 L162 551 L77 334 L121 756 L66 756 L-13 0 Z " />
<glyph glyph-name="l" unicode="l" horiz-adv-x="132" d="M58 -1 C61 -1 73 -1 77 0 L82 55 L73 55 C55 55 53 61 56 92 L125 756 L68 756 L-2 91 C-7 31 1 -1 58 -1 L58 -1 Z " />
<glyph glyph-name="m" unicode="m" horiz-adv-x="372" d="M-13 0 L44 0 L83 373 C93 471 103 500 139 500 C174 500 170 481 163 419 L119 0 L175 0 L214 373 C224 471 234 500 270 500 C304 500 300 481 294 419 L249 0 L306 0 L352 436 C360 513 361 556 290 556 C255 556 231 545 219 528 C211 548 194 556 158 556 C123 556 101 545 92 528 L92 550 L46 547 L-13 0 Z " />
<glyph glyph-name="n" unicode="n" horiz-adv-x="243" d="M-13 0 L44 0 L83 374 C94 472 104 500 140 500 C174 500 172 482 165 420 L121 0 L177 0 L224 436 C232 511 232 556 160 556 C120 556 101 544 92 528 L92 550 L46 547 L-13 0 Z " />
<glyph glyph-name="o" unicode="o" horiz-adv-x="231" d="M80 -5 C177 -5 180 44 204 270 C213 352 219 411 219 450 C219 523 199 556 129 556 C34 556 29 502 6 284 C-1 220 -9 135 -9 100 C-9 25 11 -5 80 -5 L80 -5 Z M82 48 C57 48 47 59 47 100 C47 132 54 188 63 279 C83 475 84 500 127 500 C153 500 162 488 162 446 C162 414 157 360 148 273 C127 69 126 48 82 48 L82 48 Z " />
<glyph glyph-name="p" unicode="p" horiz-adv-x="240" d="M-27 -145 L29 -145 L47 15 C58 1 77 -4 107 -4 C130 -4 145 -1 161 15 C189 42 195 103 213 272 C224 369 230 428 230 466 C230 533 205 556 161 556 C130 556 105 547 92 528 L92 550 L46 547 L-27 -145 Z M92 48 C68 48 58 60 58 103 C58 137 64 191 73 277 C93 465 96 500 139 500 C163 500 172 492 172 451 C172 419 166 365 156 275 C135 69 134 48 92 48 L92 48 Z " />
<glyph glyph-name="q" unicode="q" horiz-adv-x="240" d="M103 -145 L159 -145 L231 548 L185 551 L176 532 C165 549 144 556 114 556 C90 556 75 552 60 537 C31 509 25 448 7 280 C-3 183 -9 124 -9 86 C-9 16 15 -5 60 -5 C85 -5 106 1 120 13 L103 -145 Z M81 48 C57 48 48 56 48 96 C48 129 54 183 64 273 C85 479 86 499 128 499 C152 499 162 487 162 445 C162 411 156 357 147 270 C127 83 124 48 81 48 L81 48 Z " />
<glyph glyph-name="r" unicode="r" horiz-adv-x="148" d="M-13 0 L44 0 L83 371 C94 472 103 495 156 498 L161 553 C122 552 102 541 91 526 L91 550 L45 547 L-13 0 Z " />
<glyph glyph-name="s" unicode="s" horiz-adv-x="175" d="M42 -5 C113 -5 134 36 134 89 C134 111 133 123 128 154 L82 429 C75 470 79 501 116 501 C130 501 145 499 154 497 L172 550 C156 554 138 556 109 556 C46 556 23 515 23 462 C23 443 25 433 29 407 L75 129 C85 66 71 48 34 48 C16 48 -2 52 -14 55 L-32 3 C-13 -2 12 -5 42 -5 L42 -5 Z " />
<glyph glyph-name="t" unicode="t" horiz-adv-x="167" d="M95 -1 C98 -1 111 -1 115 0 L120 55 L107 55 C76 55 72 65 76 100 L117 498 L167 498 L173 551 L123 551 L139 706 L89 689 L68 551 L28 551 L23 498 L61 498 L19 96 C12 32 26 -1 95 -1 L95 -1 Z " />
<glyph glyph-name="u" unicode="u" horiz-adv-x="237" d="M83 -5 C170 -5 177 43 187 132 L230 551 L176 551 L132 136 C125 71 125 48 86 48 C47 48 51 71 59 135 L102 551 L46 551 L2 132 C-8 46 -7 -5 83 -5 L83 -5 Z " />
<glyph glyph-name="v" unicode="v" horiz-adv-x="196" d="M25 -3 L94 -3 L211 551 L156 551 L92 221 L74 126 L77 222 L80 551 L23 551 L25 -3 Z " />
<glyph glyph-name="w" unicode="w" horiz-adv-x="319" d="M19 -3 L77 -3 L137 271 L157 370 L156 271 L158 -3 L214 -3 L329 551 L278 551 L228 306 L203 175 L204 307 L204 551 L153 551 L99 309 L71 176 L74 309 L79 551 L25 551 L19 -3 Z " />
<glyph glyph-name="x" unicode="x" horiz-adv-x="206" d="M-38 0 L16 0 L80 194 L109 0 L164 0 L122 286 L214 551 L161 551 L107 389 L84 551 L29 551 L65 298 L-38 0 Z " />
<glyph glyph-name="y" unicode="y" horiz-adv-x="198" d="M-22 -145 L-9 -145 C39 -145 62 -129 73 -79 L213 551 L159 551 L102 278 L78 159 L80 279 L79 551 L23 551 L33 -12 L23 -66 C17 -87 17 -91 -8 -91 L-17 -91 L-22 -145 Z " />
<glyph glyph-name="z" unicode="z" horiz-adv-x="175" d="M-29 0 L125 0 L130 50 L35 50 L178 509 L182 551 L34 551 L29 498 L117 498 L-25 42 L-29 0 Z " />
<glyph glyph-name="braceleft" unicode="&#x7b;" horiz-adv-x="212" d="M86 -146 L123 -146 L128 -96 L106 -96 C74 -96 66 -89 71 -37 C77 23 113 177 120 243 C124 276 119 296 100 306 C122 316 130 335 133 368 C140 434 136 587 143 646 C149 698 159 705 190 705 L211 705 L217 756 L180 756 C121 756 95 739 86 655 C79 589 84 435 78 377 C74 338 64 332 25 332 L20 279 C59 279 67 273 63 234 C57 176 20 25 13 -42 C4 -126 28 -146 86 -146 L86 -146 Z " />
<glyph glyph-name="bar" unicode="&#x7c;" horiz-adv-x="144" d="M43 -145 L99 -145 L99 757 L43 757 L43 -145 Z " />
<glyph glyph-name="braceright" unicode="&#x7d;" horiz-adv-x="212" d="M-20 -146 L17 -146 C76 -146 102 -128 111 -45 C118 22 114 176 119 234 C123 273 133 279 172 279 L177 332 C138 332 130 338 134 377 C140 435 178 587 184 653 C194 737 169 756 111 756 L75 756 L70 705 L91 705 C122 705 132 698 126 646 C120 587 84 434 77 368 C74 335 78 316 97 306 C76 296 67 276 64 243 C57 177 61 23 55 -37 C49 -89 39 -96 7 -96 L-15 -96 L-20 -146 Z " />
<glyph glyph-name="asciitilde" unicode="&#x7e;" horiz-adv-x="220" d="M53 416 L97 416 C99 437 103 442 111 442 C125 442 146 416 175 416 C200 416 217 426 222 488 L178 488 C176 467 174 463 165 463 C151 463 129 488 100 488 C79 488 59 477 53 416 L53 416 Z " />
<glyph glyph-name="exclamdown" unicode="&#xa1;" horiz-adv-x="158" d="M7 0 L71 0 L121 540 L71 540 L7 0 Z M77 647 L140 647 L150 741 L87 741 L77 647 Z " />
<glyph glyph-name="cent" unicode="&#xa2;" horiz-adv-x="191" d="M38 -97 L88 -97 L98 -3 C112 -2 124 0 134 4 L126 52 C116 50 102 48 92 48 C65 48 58 69 58 103 C58 134 66 207 73 278 C93 473 96 500 138 500 C150 500 160 498 170 495 L190 547 C180 550 169 553 156 554 L165 642 L115 642 L105 552 C43 539 35 475 16 284 C8 215 0 137 0 101 C0 50 9 13 48 1 L38 -97 Z " />
<glyph glyph-name="sterling" unicode="&#xa3;" horiz-adv-x="235" d="M108 -2 C162 -2 175 19 184 106 L189 146 L141 146 L137 110 C131 57 127 49 102 49 C95 49 89 49 82 51 C89 71 90 99 91 135 L99 355 L161 355 L165 404 L101 404 L109 620 C110 662 118 690 156 690 C174 690 188 688 203 681 L229 731 C207 741 189 745 155 745 C82 745 56 711 53 619 L45 404 L17 404 L12 355 L43 355 L36 139 C34 60 33 54 -20 54 L-25 0 C7 0 31 3 47 11 C65 1 83 -2 108 -2 L108 -2 Z " />
<glyph glyph-name="currency" unicode="&#xa4;" horiz-adv-x="242" d="M14 391 L57 391 C57 386 56 382 56 377 C55 367 54 357 53 348 L9 348 L4 299 L47 299 C39 221 33 158 33 115 C33 31 53 -4 128 -4 C149 -4 169 1 181 5 L170 55 C162 53 146 50 133 50 C102 50 90 64 90 120 C90 156 94 207 104 299 L185 299 L190 348 L109 348 C110 356 111 363 112 372 C112 378 113 385 114 391 L195 391 L200 440 L119 440 C139 629 147 689 199 689 C214 689 229 687 239 684 L256 738 C246 741 225 745 199 745 C160 745 135 734 117 708 C89 670 81 620 62 440 L19 440 L14 391 Z " />
<glyph glyph-name="yen" unicode="&#xa5;" horiz-adv-x="234" d="M9 194 L70 194 L65 151 L5 151 L-1 102 L60 102 L50 0 L104 0 L114 102 L176 102 L182 151 L119 151 L124 194 L186 194 L190 242 L129 242 L133 278 L254 741 L197 741 L120 398 L114 741 L57 741 L80 292 L75 242 L13 242 L9 194 Z " />
<glyph glyph-name="brokenbar" unicode="&#xa6;" horiz-adv-x="144" d="M43 385 L99 385 L99 756 L43 756 L43 385 Z M43 -145 L99 -145 L99 227 L43 227 L43 -145 Z " />
<glyph glyph-name="section" unicode="&#xa7;" horiz-adv-x="239" d="M6 0 C87 0 115 23 122 103 L130 183 C190 192 200 235 216 381 C221 431 225 468 225 495 C225 553 204 574 166 580 L171 632 C176 674 184 688 227 688 L234 741 C152 741 125 718 117 638 L111 580 C53 571 40 526 25 386 C19 335 15 297 15 270 C15 210 36 189 75 183 L68 109 C64 67 55 54 11 54 L6 0 Z M104 226 C81 226 72 235 72 274 C72 297 75 332 80 382 C94 514 100 536 136 536 C160 536 169 528 169 488 C169 465 166 431 161 382 C147 249 141 226 104 226 L104 226 Z " />
<glyph glyph-name="dieresis" unicode="&#xa8;" horiz-adv-x="220" d="M64 606 L114 606 L123 688 L73 688 L64 606 Z M154 606 L204 606 L213 688 L163 688 L154 606 Z " />
<glyph glyph-name="copyright" unicode="&#xa9;" horiz-adv-x="296" d="M154 123 C172 123 185 127 198 131 L188 168 C179 165 165 163 156 163 C124 163 121 196 121 366 C121 531 123 568 155 568 C167 568 177 567 188 565 L197 605 C186 608 170 610 154 610 C132 610 115 604 105 593 C79 565 79 500 79 367 C79 231 80 165 105 139 C115 129 131 123 154 123 L154 123 Z M148 -4 C184 -4 210 4 229 23 C270 63 281 159 281 371 C281 573 271 669 234 712 C215 735 187 745 148 745 C109 745 81 736 62 713 C24 670 14 574 14 371 C14 156 25 60 68 21 C88 4 113 -4 148 -4 L148 -4 Z M148 27 C59 27 46 91 46 371 C46 652 60 714 148 714 C236 714 249 652 249 371 C249 91 236 27 148 27 L148 27 Z " />
<glyph glyph-name="ordfeminine" unicode="&#xaa;" horiz-adv-x="210" d="M81 291 C107 291 122 296 130 316 C132 298 144 293 167 293 C170 293 180 293 182 294 L188 341 C170 341 168 346 170 372 L197 622 C206 711 207 745 139 745 C115 745 92 743 77 737 L89 693 C103 697 121 699 131 699 C156 699 156 686 149 615 C61 610 49 570 35 438 C31 409 29 384 29 363 C29 317 41 291 81 291 L81 291 Z M93 335 C81 335 77 343 77 367 C77 382 78 404 82 436 C93 546 99 570 144 573 L133 464 C122 349 123 335 93 335 L93 335 Z M21 191 L152 191 L157 237 L26 237 L21 191 Z " />
<glyph glyph-name="guillemotleft" unicode="&#xab;" horiz-adv-x="273" d="M50 0 L101 0 L76 275 L158 551 L107 551 L23 275 L50 0 Z M145 0 L195 0 L171 275 L253 551 L202 551 L118 275 L145 0 Z " />
<glyph glyph-name="logicalnot" unicode="&#xac;" horiz-adv-x="832" d="M126 120 C126 120 129 123 134 127 C79 193 46 278 46 371 C46 464 79 549 133 615 C129 619 126 621 126 621 C70 554 36 466 36 371 C36 275 70 187 126 120 L126 120 Z M228 211 C230 213 233 215 235 218 C201 259 181 313 181 371 C181 429 202 483 235 524 C232 526 230 529 227 531 C192 487 171 432 171 371 C171 310 193 254 228 211 L228 211 Z M264 243 C267 245 269 248 272 250 C245 283 229 325 229 371 C229 417 245 459 272 492 C269 494 267 497 264 499 C236 464 219 419 219 371 C219 322 236 278 264 243 L264 243 Z M316 289 C319 291 321 294 324 296 C308 317 298 343 298 371 C298 399 308 425 323 445 C321 448 318 450 316 452 C298 430 288 402 288 371 C288 340 298 312 316 289 L316 289 Z M349 320 C352 323 354 325 357 327 C348 340 343 355 343 371 C343 387 348 402 357 415 C354 417 352 420 349 422 C339 408 333 390 333 371 C333 352 339 334 349 320 L349 320 Z M378 346 C382 349 384 351 384 351 C381 357 379 364 379 371 C379 378 381 385 384 391 C384 391 382 393 378 396 C374 389 371 380 371 371 C371 362 374 353 378 346 L378 346 Z M416 60 C493 60 563 89 616 136 C614 139 611 141 609 144 C558 98 490 70 416 70 C342 70 274 98 222 144 C222 145 215 137 215 137 C268 89 338 60 416 60 L416 60 Z M416 324 C426 324 435 327 442 333 C439 337 437 339 437 339 C431 334 424 332 416 332 C408 332 401 335 395 339 C395 339 391 334 389 333 C397 327 406 324 416 324 L416 324 Z M482 319 C493 334 499 352 499 371 C499 390 493 408 482 422 C483 422 475 415 475 415 C484 403 489 388 489 371 C489 355 484 339 475 326 C478 324 480 322 482 319 L482 319 Z M292 269 C295 271 298 274 300 276 C280 302 267 335 267 371 C267 407 280 440 300 466 L293 473 C270 445 257 410 257 371 C257 333 270 297 292 269 L292 269 Z M416 -17 C512 -17 600 19 667 80 C667 80 660 88 660 87 C595 29 510 -7 416 -7 C322 -7 236 29 171 88 L164 80 C231 20 320 -17 416 -17 L416 -17 Z M416 121 C478 121 534 144 576 182 C574 185 571 187 569 190 C529 153 475 131 416 131 C357 131 303 153 262 190 L255 182 C298 144 354 121 416 121 L416 121 Z M416 170 C465 170 510 188 544 218 C542 221 539 223 537 226 C505 197 462 180 416 180 C369 180 327 197 294 226 L287 219 C322 189 367 170 416 170 L416 170 Z M416 209 C455 209 491 224 518 247 C516 250 514 253 512 255 C486 233 452 219 416 219 C380 219 346 233 320 255 L313 247 C341 224 377 209 416 209 L416 209 Z M416 265 C441 265 463 274 481 289 C479 292 476 294 474 297 C458 283 438 275 416 275 C394 275 373 283 357 297 L350 289 C368 274 391 265 416 265 L416 265 Z M358 445 C374 459 394 467 416 467 C438 467 458 459 474 445 L482 453 C464 468 441 477 416 477 C391 477 368 468 350 453 C351 452 354 448 358 445 L358 445 Z M570 552 C572 554 575 557 577 560 C534 598 478 621 416 621 C355 621 299 598 256 560 L263 553 C304 589 357 611 416 611 C475 611 529 589 570 552 L570 552 Z M454 346 C458 353 461 362 461 371 C461 380 458 389 454 396 L448 391 C451 385 453 378 453 371 C453 364 451 357 448 351 C448 351 450 349 454 346 L454 346 Z M468 333 C476 344 480 357 480 371 C480 385 476 398 468 409 L460 402 C466 393 470 382 470 371 C470 360 466 349 460 340 C463 338 465 336 468 333 L468 333 Z M498 306 C511 325 519 347 519 371 C519 395 511 418 497 436 L490 429 C502 413 509 393 509 371 C509 349 502 329 490 313 C492 311 495 308 498 306 L498 306 Z M540 269 C562 297 575 332 575 371 C575 410 562 445 539 473 L531 466 C552 440 565 407 565 371 C565 335 552 302 532 276 C535 274 537 271 540 269 L540 269 Z M568 243 C596 278 613 322 613 371 C613 420 596 464 568 499 L560 492 C587 459 603 417 603 371 C603 325 587 283 560 250 C563 248 566 245 568 243 L568 243 Z M604 211 C640 254 661 310 661 371 C661 432 640 488 604 531 L596 524 C631 483 651 429 651 371 C651 313 631 260 596 218 C601 213 604 211 604 211 L604 211 Z M649 171 C694 225 721 295 721 371 C721 447 694 517 649 571 L641 564 C685 512 711 445 711 371 C711 297 685 230 642 177 C644 175 647 173 649 171 L649 171 Z M706 120 C762 188 796 276 796 371 C796 467 762 555 706 622 L698 615 C753 549 786 464 786 371 C786 278 753 193 698 127 C703 123 706 120 706 120 L706 120 Z M183 170 L190 177 C147 229 121 297 121 371 C121 444 147 512 190 564 C187 567 184 569 182 571 C138 517 111 447 111 371 C111 294 138 225 183 170 L183 170 Z M334 306 L342 314 C330 330 323 350 323 371 C323 393 330 413 342 429 C340 431 337 434 334 436 C321 418 313 395 313 371 C313 346 321 324 334 306 L334 306 Z M364 333 L371 340 C366 349 362 360 362 371 C362 382 366 393 371 402 C369 404 366 406 364 409 C356 398 352 385 352 371 C352 357 356 344 364 333 L364 333 Z M395 403 C401 408 408 410 416 410 C424 410 431 407 437 403 C437 403 439 406 442 409 C435 415 426 418 416 418 C406 418 397 415 390 409 L395 403 Z M384 416 C393 423 404 428 416 428 C428 428 439 424 448 416 C450 419 452 421 454 423 C443 432 430 437 416 437 C401 437 388 432 377 423 L384 416 Z M371 430 C383 441 399 447 416 447 C433 447 449 441 461 430 C461 430 464 434 468 438 C454 450 436 457 416 457 C397 457 378 450 364 438 L371 430 Z M295 516 C327 545 370 562 416 562 C462 562 505 545 538 516 C538 516 545 523 544 523 C510 554 465 572 416 572 C367 572 322 554 288 524 L295 516 Z M416 240 C448 240 476 252 498 271 L491 278 C471 261 445 250 416 250 C388 250 361 261 340 278 L333 270 C355 251 384 240 416 240 L416 240 Z M416 285 C436 285 454 292 468 304 L461 312 C448 301 433 295 416 295 C399 295 383 302 370 312 L363 304 C378 292 396 285 416 285 L416 285 Z M416 305 C430 305 444 310 455 319 L448 326 C439 319 428 314 416 314 C404 314 393 319 383 326 L376 319 C388 310 401 305 416 305 L416 305 Z M341 464 C362 482 388 492 416 492 C445 492 471 481 491 464 L498 472 C476 491 447 502 416 502 C385 502 356 490 334 471 L341 464 Z M320 487 C346 509 380 523 416 523 C453 523 486 510 512 487 L518 494 C491 518 455 533 416 533 C377 533 341 519 313 495 L320 487 Z M610 597 L617 605 C563 653 493 682 416 682 C339 682 269 653 215 605 L222 598 C274 644 342 672 416 672 C491 672 559 644 610 597 L610 597 Z M172 654 C237 713 322 749 416 749 C510 749 596 713 661 654 L668 662 C601 722 512 759 416 759 C320 759 232 723 165 662 L172 654 Z M516 290 C534 312 544 340 544 371 C544 402 534 430 516 453 L508 446 C524 425 534 399 534 371 C534 343 524 317 509 297 L516 290 Z " />
<glyph glyph-name="registered" unicode="&#xae;" horiz-adv-x="296" d="M148 -4 C184 -4 210 4 229 23 C270 63 281 159 281 371 C281 573 271 669 234 712 C215 735 187 745 148 745 C109 745 81 736 62 713 C24 670 14 574 14 371 C14 156 25 60 68 21 C88 4 113 -4 148 -4 L148 -4 Z M148 27 C59 27 46 91 46 371 C46 652 60 714 148 714 C236 714 249 652 249 371 C249 91 236 27 148 27 L148 27 Z M169 134 L208 134 L174 339 C210 354 213 397 213 470 C213 560 208 605 147 605 L86 605 L86 134 L124 134 L124 334 L136 334 L169 134 Z M124 369 L124 568 L144 568 C173 568 174 540 174 468 C174 396 173 369 144 369 L124 369 Z " />
<glyph glyph-name="&amp;#xaf;" unicode="&#xaf;" horiz-adv-x="220" d="M62 606 L206 606 L212 658 L68 658 L62 606 Z " />
<glyph glyph-name="&amp;#x2c9;" unicode="&#x2c9;" horiz-adv-x="220" d="M62 606 L206 606 L212 658 L68 658 L62 606 Z " />
<glyph glyph-name="degree" unicode="&#xb0;" horiz-adv-x="220" d="M102 290 C179 290 189 329 209 515 C216 579 220 625 220 657 C220 724 202 745 147 745 C71 745 60 706 41 519 C36 468 30 408 30 378 C30 310 51 290 102 290 L102 290 Z M106 339 C88 339 80 347 80 385 C80 411 85 452 91 516 C107 669 112 693 143 693 C162 693 169 685 169 648 C169 622 165 580 158 516 C142 364 137 339 106 339 L106 339 Z " />
<glyph glyph-name="plusminus" unicode="&#xb1;" horiz-adv-x="411" d="M123 -145 L180 -145 L247 498 L290 498 L295 551 L253 551 L263 648 C267 687 273 701 308 701 L311 701 L316 756 C313 757 308 757 305 757 C236 757 215 729 207 653 L196 551 L122 551 L132 648 C137 687 143 701 177 701 L180 701 L186 756 C183 757 177 757 175 757 C106 757 85 729 77 653 L66 551 L27 551 L22 498 L60 498 L-8 -145 L49 -145 L116 498 L190 498 L123 -145 Z M338 -1 C341 -1 353 -1 356 0 L362 55 L353 55 C335 55 332 61 335 92 L405 756 L348 756 L279 91 C273 31 279 -1 338 -1 L338 -1 Z " />
<glyph glyph-name="twosuperior" unicode="&#xb2;" horiz-adv-x="201" d="M29 289 L153 289 L157 332 L82 332 L182 630 C189 652 195 669 195 691 C195 727 177 744 128 744 C103 744 85 741 72 735 L84 693 C94 697 107 699 121 699 C140 699 147 692 147 678 C147 669 144 660 140 647 L33 332 L29 289 Z " />
<glyph glyph-name="threesuperior" unicode="&#xb3;" horiz-adv-x="196" d="M74 286 C100 286 117 291 129 301 C149 318 153 353 160 417 C168 496 172 528 151 540 C170 553 173 580 180 643 C185 687 185 714 173 728 C165 739 150 743 124 743 C110 743 91 743 71 737 L78 695 C93 699 107 698 113 698 C139 698 139 688 133 635 C126 565 124 557 91 557 L73 557 L69 512 L83 512 C122 512 123 507 113 419 C105 343 103 331 72 331 C61 331 51 334 38 338 L21 295 C37 289 59 286 74 286 L74 286 Z " />
<glyph glyph-name="acute" unicode="&#xb4;" horiz-adv-x="220" d="M98 606 L146 606 L217 723 L155 723 L98 606 Z " />
<glyph glyph-name="&amp;#xb5;" unicode="&#xb5;" horiz-adv-x="239" d="M-28 -145 L29 -145 L44 9 C51 1 64 -5 82 -5 C167 -5 178 38 188 141 L231 551 L176 551 L133 145 C125 61 120 48 84 48 C48 48 52 77 60 154 L101 551 L45 551 L-28 -145 Z " />
<glyph glyph-name="&amp;#x3bc;" unicode="&#x3bc;" horiz-adv-x="239" d="M-28 -145 L29 -145 L44 9 C51 1 64 -5 82 -5 C167 -5 178 38 188 141 L231 551 L176 551 L133 145 C125 61 120 48 84 48 C48 48 52 77 60 154 L101 551 L45 551 L-28 -145 Z " />
<glyph glyph-name="paragraph" unicode="&#xb6;" horiz-adv-x="242" d="M42 0 L96 0 L128 307 L150 307 L118 0 L172 0 L250 741 L154 741 C62 741 49 673 35 531 C31 490 27 454 27 424 C27 366 38 328 75 313 L42 0 Z M126 355 C93 355 83 377 83 425 C83 448 87 487 90 520 C102 642 110 688 161 688 L190 688 L156 355 L126 355 Z " />
<glyph glyph-name="&amp;#xb7;" unicode="&#xb7;" horiz-adv-x="115" d="M17 292 L81 292 L91 387 L27 387 L17 292 Z " />
<glyph glyph-name="&amp;#x2219;" unicode="&#x2219;" horiz-adv-x="115" d="M17 292 L81 292 L91 387 L27 387 L17 292 Z " />
<glyph glyph-name="cedilla" unicode="&#xb8;" horiz-adv-x="220" d="M66 -178 C110 -178 126 -166 133 -102 C138 -52 122 -37 89 -40 L103 8 L67 8 L51 -52 L66 -65 C87 -64 96 -66 93 -97 C89 -133 85 -138 61 -138 C51 -138 39 -137 28 -133 L13 -170 C31 -176 44 -178 66 -178 L66 -178 Z " />
<glyph glyph-name="onesuperior" unicode="&#xb9;" horiz-adv-x="173" d="M60 289 L109 289 L157 741 L74 741 L69 695 L103 695 L60 289 Z " />
<glyph glyph-name="ordmasculine" unicode="&#xba;" horiz-adv-x="213" d="M103 289 C171 289 181 334 201 515 C205 549 212 634 212 657 C212 721 196 745 140 745 C67 745 58 697 40 522 C33 457 28 410 28 378 C28 314 44 289 103 289 L103 289 Z M101 335 C85 335 77 343 77 380 C77 407 81 450 89 517 C105 676 110 698 139 698 C156 698 163 690 163 652 C163 633 156 556 152 517 C135 359 129 335 101 335 L101 335 Z M18 191 L154 191 L159 237 L23 237 L18 191 Z " />
<glyph glyph-name="guillemotright" unicode="&#xbb;" horiz-adv-x="273" d="M-1 0 L50 0 L133 275 L107 551 L57 551 L81 275 L-1 0 Z M94 0 L144 0 L228 275 L202 551 L151 551 L175 275 L94 0 Z " />
<glyph glyph-name="onequarter" unicode="&#xbc;" horiz-adv-x="360" d="M37 0 L89 0 L302 741 L250 741 L37 0 Z M162 89 L242 89 L233 0 L278 0 L287 89 L313 89 L317 132 L292 132 L304 248 L273 248 L247 132 L213 132 L319 453 L274 453 L166 130 L162 89 Z M43 289 L93 289 L141 741 L58 741 L53 695 L86 695 L43 289 Z " />
<glyph glyph-name="onehalf" unicode="&#xbd;" horiz-adv-x="378" d="M37 0 L89 0 L302 741 L250 741 L37 0 Z M43 289 L93 289 L141 741 L58 741 L53 695 L86 695 L43 289 Z M188 0 L313 0 L317 43 L242 43 L342 341 C350 361 355 380 355 403 C355 439 337 455 288 455 C263 455 245 452 231 446 L244 405 C254 409 267 410 281 410 C300 410 307 404 307 390 C307 380 304 371 300 358 L193 43 L188 0 Z " />
<glyph glyph-name="threequarters" unicode="&#xbe;" horiz-adv-x="390" d="M67 0 L119 0 L332 741 L280 741 L67 0 Z M193 89 L271 89 L261 0 L306 0 L315 89 L343 89 L348 132 L320 132 L332 248 L301 248 L276 132 L243 132 L349 453 L304 453 L197 130 L193 89 Z M61 286 C87 286 104 291 116 301 C136 318 140 353 146 417 C155 496 159 528 138 540 C157 553 160 580 167 643 C171 687 172 714 160 728 C152 739 136 743 111 743 C96 743 78 743 58 737 L65 695 C79 699 93 698 100 698 C126 698 126 688 120 635 C113 565 110 557 78 557 L60 557 L55 512 L71 512 C109 512 110 507 100 419 C92 343 90 331 59 331 C47 331 38 334 25 338 L8 295 C23 289 46 286 61 286 L61 286 Z " />
<glyph glyph-name="questiondown" unicode="&#xbf;" horiz-adv-x="209" d="M80 -4 C120 -4 145 1 163 8 L145 60 C133 56 115 51 87 51 C38 51 43 90 61 148 L127 359 C148 427 153 463 160 539 L105 539 C99 473 95 436 75 372 L11 167 C-2 124 -9 101 -9 69 C-9 27 12 -4 80 -4 L80 -4 Z M111 653 L174 653 L183 741 L120 741 L111 653 Z " />
<glyph glyph-name="Agrave" unicode="&#xc0;" horiz-adv-x="240" d="M-33 0 L24 0 L59 174 L138 174 L137 0 L195 0 L191 744 L126 744 L-33 0 Z M71 231 L124 499 L143 597 L140 499 L138 231 L71 231 Z M151 782 L197 782 L166 899 L105 899 L151 782 Z " />
<glyph glyph-name="Aacute" unicode="&#xc1;" horiz-adv-x="240" d="M-33 0 L24 0 L59 174 L138 174 L137 0 L195 0 L191 744 L126 744 L-33 0 Z M71 231 L124 499 L143 597 L140 499 L138 231 L71 231 Z M126 782 L174 782 L245 899 L183 899 L126 782 Z " />
<glyph glyph-name="Acircumflex" unicode="&#xc2;" horiz-adv-x="240" d="M-33 0 L24 0 L59 174 L138 174 L137 0 L195 0 L191 744 L126 744 L-33 0 Z M71 231 L124 499 L143 597 L140 499 L138 231 L71 231 Z M78 782 L127 782 L169 857 L198 782 L244 782 L202 899 L146 899 L78 782 Z " />
<glyph glyph-name="Atilde" unicode="&#xc3;" horiz-adv-x="240" d="M-33 0 L24 0 L59 174 L138 174 L137 0 L195 0 L191 744 L126 744 L-33 0 Z M71 231 L124 499 L143 597 L140 499 L138 231 L71 231 Z M81 782 L125 782 C127 803 131 808 139 808 C153 808 174 782 203 782 C228 782 245 792 250 854 L206 854 C204 833 202 829 193 829 C179 829 157 854 128 854 C107 854 87 843 81 782 L81 782 Z " />
<glyph glyph-name="Adieresis" unicode="&#xc4;" horiz-adv-x="240" d="M-33 0 L24 0 L59 174 L138 174 L137 0 L195 0 L191 744 L126 744 L-33 0 Z M71 231 L124 499 L143 597 L140 499 L138 231 L71 231 Z M92 782 L142 782 L151 864 L101 864 L92 782 Z M182 782 L232 782 L241 864 L191 864 L182 782 Z " />
<glyph glyph-name="Aring" unicode="&#xc5;" horiz-adv-x="240" d="M-33 0 L24 0 L59 174 L138 174 L137 0 L195 0 L191 743 C209 755 214 779 217 812 C223 860 221 894 170 894 C123 894 115 864 110 816 C106 782 106 754 125 742 L-33 0 Z M71 231 L124 499 L143 597 L140 499 L138 231 L71 231 Z M159 766 C141 766 140 776 144 813 C147 851 151 862 168 862 C186 862 187 851 184 813 C180 776 176 766 159 766 L159 766 Z " />
<glyph glyph-name="AE" unicode="&#xc6;" horiz-adv-x="349" d="M-33 0 L25 0 L73 184 L151 184 L132 0 L289 0 L294 54 L194 54 L225 352 L317 352 L323 407 L231 407 L260 685 L360 685 L366 741 L172 741 L-33 0 Z M86 232 L203 677 L156 232 L86 232 Z " />
<glyph glyph-name="Ccedilla" unicode="&#xc7;" horiz-adv-x="189" d="M52 -178 C96 -178 112 -166 119 -102 C124 -52 108 -37 75 -40 L85 -5 L96 -5 C116 -5 137 -2 149 3 L140 55 C130 52 115 51 102 51 C68 51 56 63 56 119 C56 167 66 268 78 373 C108 659 110 688 164 688 C182 688 197 686 208 683 L225 738 C215 741 195 745 164 745 C126 745 102 737 84 719 C46 680 39 574 19 378 C7 265 -3 173 -3 116 C-3 48 8 13 51 0 L37 -52 L52 -65 C73 -64 82 -66 79 -97 C75 -133 71 -138 47 -138 C37 -138 25 -137 14 -133 L-1 -170 C17 -176 30 -178 52 -178 L52 -178 Z " />
<glyph glyph-name="Egrave" unicode="&#xc8;" horiz-adv-x="210" d="M-8 0 L150 0 L155 54 L54 54 L86 352 L184 352 L189 408 L92 408 L121 685 L221 685 L227 741 L70 741 L-8 0 Z M137 782 L183 782 L152 899 L91 899 L137 782 Z " />
<glyph glyph-name="Eacute" unicode="&#xc9;" horiz-adv-x="210" d="M112 782 L160 782 L231 899 L169 899 L112 782 Z M-8 0 L150 0 L155 54 L54 54 L86 352 L184 352 L189 408 L92 408 L121 685 L221 685 L227 741 L70 741 L-8 0 Z " />
<glyph glyph-name="Ecircumflex" unicode="&#xca;" horiz-adv-x="210" d="M64 782 L113 782 L155 857 L184 782 L230 782 L188 899 L132 899 L64 782 Z M-8 0 L150 0 L155 54 L54 54 L86 352 L184 352 L189 408 L92 408 L121 685 L221 685 L227 741 L70 741 L-8 0 Z " />
<glyph glyph-name="Edieresis" unicode="&#xcb;" horiz-adv-x="210" d="M78 782 L128 782 L137 864 L87 864 L78 782 Z M168 782 L218 782 L227 864 L177 864 L168 782 Z M-8 0 L150 0 L155 54 L54 54 L86 352 L184 352 L189 408 L92 408 L121 685 L221 685 L227 741 L70 741 L-8 0 Z " />
<glyph glyph-name="Igrave" unicode="&#xcc;" horiz-adv-x="126" d="M83 782 L130 782 L110 900 L49 900 L83 782 Z M-6 0 L52 0 L130 741 L72 741 L-6 0 Z " />
<glyph glyph-name="Iacute" unicode="&#xcd;" horiz-adv-x="126" d="M80 782 L128 782 L190 900 L126 900 L80 782 Z M-6 0 L52 0 L130 741 L72 741 L-6 0 Z " />
<glyph glyph-name="Icircumflex" unicode="&#xce;" horiz-adv-x="126" d="M-6 0 L52 0 L130 741 L72 741 L-6 0 Z M21 782 L70 782 L112 857 L141 782 L187 782 L145 899 L89 899 L21 782 Z " />
<glyph glyph-name="Idieresis" unicode="&#xcf;" horiz-adv-x="126" d="M-6 0 L52 0 L130 741 L72 741 L-6 0 Z M35 782 L85 782 L94 864 L44 864 L35 782 Z M125 782 L175 782 L184 864 L134 864 L125 782 Z " />
<glyph glyph-name="Eth" unicode="&#xd0;" horiz-adv-x="257" d="M1 355 L29 355 L-8 0 L90 0 C126 0 155 7 175 34 C206 75 213 132 237 365 C252 500 259 575 259 622 C259 713 227 741 165 741 L70 741 L35 407 L8 407 L1 355 Z M56 52 L87 355 L132 355 L138 407 L93 407 L122 688 L158 688 C183 688 201 676 201 617 C201 583 191 481 180 368 C157 156 150 99 130 72 C120 55 105 52 87 52 L56 52 Z " />
<glyph glyph-name="Ntilde" unicode="&#xd1;" horiz-adv-x="267" d="M-8 0 L46 0 L102 533 L108 430 L142 0 L197 0 L275 741 L221 741 L169 259 L163 370 L135 741 L70 741 L-8 0 Z M95 782 L139 782 C141 803 145 808 153 808 C167 808 188 782 217 782 C242 782 259 792 264 854 L220 854 C218 833 216 829 207 829 C193 829 171 854 142 854 C121 854 101 843 95 782 L95 782 Z " />
<glyph glyph-name="Ograve" unicode="&#xd2;" horiz-adv-x="256" d="M93 -5 C129 -5 152 1 170 18 C205 53 214 142 237 364 C252 507 259 579 259 625 C259 714 240 745 162 745 C127 745 102 739 85 719 C49 682 41 591 19 378 C5 250 -4 169 -4 115 C-4 26 17 -5 93 -5 L93 -5 Z M96 50 C66 50 55 62 55 115 C55 161 63 239 77 373 C107 662 108 688 160 688 C190 688 202 676 202 624 C202 578 193 500 179 367 C148 77 147 50 96 50 L96 50 Z M159 782 L205 782 L174 899 L113 899 L159 782 Z " />
<glyph glyph-name="Oacute" unicode="&#xd3;" horiz-adv-x="256" d="M134 782 L182 782 L253 899 L191 899 L134 782 Z M93 -5 C129 -5 152 1 170 18 C205 53 214 142 237 364 C252 507 259 579 259 625 C259 714 240 745 162 745 C127 745 102 739 85 719 C49 682 41 591 19 378 C5 250 -4 169 -4 115 C-4 26 17 -5 93 -5 L93 -5 Z M96 50 C66 50 55 62 55 115 C55 161 63 239 77 373 C107 662 108 688 160 688 C190 688 202 676 202 624 C202 578 193 500 179 367 C148 77 147 50 96 50 L96 50 Z " />
<glyph glyph-name="Ocircumflex" unicode="&#xd4;" horiz-adv-x="256" d="M86 782 L135 782 L177 857 L206 782 L252 782 L210 899 L154 899 L86 782 Z M93 -5 C129 -5 152 1 170 18 C205 53 214 142 237 364 C252 507 259 579 259 625 C259 714 240 745 162 745 C127 745 102 739 85 719 C49 682 41 591 19 378 C5 250 -4 169 -4 115 C-4 26 17 -5 93 -5 L93 -5 Z M96 50 C66 50 55 62 55 115 C55 161 63 239 77 373 C107 662 108 688 160 688 C190 688 202 676 202 624 C202 578 193 500 179 367 C148 77 147 50 96 50 L96 50 Z " />
<glyph glyph-name="Otilde" unicode="&#xd5;" horiz-adv-x="256" d="M93 -5 C129 -5 152 1 170 18 C205 53 214 142 237 364 C252 507 259 579 259 625 C259 714 240 745 162 745 C127 745 102 739 85 719 C49 682 41 591 19 378 C5 250 -4 169 -4 115 C-4 26 17 -5 93 -5 L93 -5 Z M96 50 C66 50 55 62 55 115 C55 161 63 239 77 373 C107 662 108 688 160 688 C190 688 202 676 202 624 C202 578 193 500 179 367 C148 77 147 50 96 50 L96 50 Z M89 782 L133 782 C135 803 139 808 147 808 C161 808 182 782 211 782 C236 782 253 792 258 854 L214 854 C212 833 210 829 201 829 C187 829 165 854 136 854 C115 854 95 843 89 782 L89 782 Z " />
<glyph glyph-name="Odieresis" unicode="&#xd6;" horiz-adv-x="256" d="M100 782 L150 782 L159 864 L109 864 L100 782 Z M190 782 L240 782 L249 864 L199 864 L190 782 Z M93 -5 C129 -5 152 1 170 18 C205 53 214 142 237 364 C252 507 259 579 259 625 C259 714 240 745 162 745 C127 745 102 739 85 719 C49 682 41 591 19 378 C5 250 -4 169 -4 115 C-4 26 17 -5 93 -5 L93 -5 Z M96 50 C66 50 55 62 55 115 C55 161 63 239 77 373 C107 662 108 688 160 688 C190 688 202 676 202 624 C202 578 193 500 179 367 C148 77 147 50 96 50 L96 50 Z " />
<glyph glyph-name="multiply" unicode="&#xd7;" horiz-adv-x="262" d="M60 270 L126 330 L181 270 L218 304 L164 364 L231 425 L201 459 L134 398 L80 459 L42 425 L96 364 L29 304 L60 270 Z " />
<glyph glyph-name="Oslash" unicode="&#xd8;" horiz-adv-x="256" d="M92 -5 C128 -5 151 1 169 18 C205 53 213 142 236 364 C251 507 259 579 259 625 C259 674 253 705 234 723 L250 783 L202 783 L192 743 C183 744 173 745 162 745 C126 745 102 739 84 719 C49 682 40 591 18 378 C5 250 -3 169 -3 115 C-3 67 2 36 19 18 L5 -41 L52 -41 L61 -3 C70 -4 80 -5 92 -5 L92 -5 Z M95 44 C85 44 77 45 71 48 L203 603 C201 554 192 480 181 367 C149 71 147 44 95 44 L95 44 Z M74 373 C105 668 108 694 160 694 C169 694 176 693 182 690 L52 143 C55 192 63 264 74 373 L74 373 Z " />
<glyph glyph-name="Ugrave" unicode="&#xd9;" horiz-adv-x="268" d="M97 -5 C197 -5 206 62 218 180 L277 741 L221 741 L162 179 C152 86 149 50 101 50 C52 50 56 86 66 179 L125 741 L67 741 L9 180 C-4 64 -8 -5 97 -5 L97 -5 Z M165 782 L211 782 L180 899 L119 899 L165 782 Z " />
<glyph glyph-name="Uacute" unicode="&#xda;" horiz-adv-x="268" d="M140 782 L188 782 L259 899 L197 899 L140 782 Z M97 -5 C197 -5 206 62 218 180 L277 741 L221 741 L162 179 C152 86 149 50 101 50 C52 50 56 86 66 179 L125 741 L67 741 L9 180 C-4 64 -8 -5 97 -5 L97 -5 Z " />
<glyph glyph-name="Ucircumflex" unicode="&#xdb;" horiz-adv-x="268" d="M92 782 L141 782 L183 857 L212 782 L258 782 L216 899 L160 899 L92 782 Z M97 -5 C197 -5 206 62 218 180 L277 741 L221 741 L162 179 C152 86 149 50 101 50 C52 50 56 86 66 179 L125 741 L67 741 L9 180 C-4 64 -8 -5 97 -5 L97 -5 Z " />
<glyph glyph-name="Udieresis" unicode="&#xdc;" horiz-adv-x="268" d="M106 782 L156 782 L165 864 L115 864 L106 782 Z M196 782 L246 782 L255 864 L205 864 L196 782 Z M97 -5 C197 -5 206 62 218 180 L277 741 L221 741 L162 179 C152 86 149 50 101 50 C52 50 56 86 66 179 L125 741 L67 741 L9 180 C-4 64 -8 -5 97 -5 L97 -5 Z " />
<glyph glyph-name="Yacute" unicode="&#xdd;" horiz-adv-x="224" d="M44 0 L101 0 L127 247 L262 741 L205 741 L114 381 L99 741 L40 741 L70 257 L44 0 Z M119 782 L167 782 L238 899 L176 899 L119 782 Z " />
<glyph glyph-name="Thorn" unicode="&#xde;" horiz-adv-x="241" d="M-8 0 L49 0 L66 169 L106 169 C197 169 209 237 225 384 C229 427 233 464 233 494 C233 568 211 607 131 607 L112 607 L127 741 L70 741 L-8 0 Z M72 220 L107 553 L127 553 C164 553 175 533 175 489 C175 463 172 428 167 384 C154 263 148 220 102 220 L72 220 Z " />
<glyph glyph-name="germandbls" unicode="&#xdf;" horiz-adv-x="238" d="M-28 -145 L29 -145 L112 650 C116 688 120 708 157 708 C179 708 189 700 189 662 C189 638 185 605 180 554 C166 421 160 411 125 411 L117 411 L111 359 L122 359 C149 359 158 350 158 300 C158 277 156 246 152 202 C136 53 123 51 88 51 L78 51 L72 0 L84 0 C167 0 186 10 205 193 C210 245 213 282 213 310 C213 357 205 377 186 389 C212 406 221 444 233 560 C238 609 241 644 241 670 C241 741 220 760 161 760 C87 760 63 729 56 653 L-28 -145 Z " />
<glyph glyph-name="agrave" unicode="&#xe0;" horiz-adv-x="224" d="M50 -4 C83 -4 105 2 118 19 C123 5 129 -1 161 -1 C165 -1 173 -1 176 0 L182 54 C160 54 158 60 162 95 L194 405 C205 512 208 556 124 556 C97 556 70 553 53 547 L65 495 C78 498 101 501 115 501 C151 501 148 484 139 396 C33 393 14 359 -6 173 C-10 135 -12 103 -12 80 C-12 23 3 -4 50 -4 L50 -4 Z M66 48 C49 48 43 59 43 89 C43 108 45 135 49 173 C64 324 71 341 133 343 L119 210 C104 60 102 48 66 48 L66 48 Z M124 606 L170 606 L139 723 L78 723 L124 606 Z " />
<glyph glyph-name="aacute" unicode="&#xe1;" horiz-adv-x="224" d="M50 -4 C83 -4 105 2 118 19 C123 5 129 -1 161 -1 C165 -1 173 -1 176 0 L182 54 C160 54 158 60 162 95 L194 405 C205 512 208 556 124 556 C97 556 70 553 53 547 L65 495 C78 498 101 501 115 501 C151 501 148 484 139 396 C33 393 14 359 -6 173 C-10 135 -12 103 -12 80 C-12 23 3 -4 50 -4 L50 -4 Z M66 48 C49 48 43 59 43 89 C43 108 45 135 49 173 C64 324 71 341 133 343 L119 210 C104 60 102 48 66 48 L66 48 Z M99 606 L147 606 L218 723 L156 723 L99 606 Z " />
<glyph glyph-name="acircumflex" unicode="&#xe2;" horiz-adv-x="224" d="M50 -4 C83 -4 105 2 118 19 C123 5 129 -1 161 -1 C165 -1 173 -1 176 0 L182 54 C160 54 158 60 162 95 L194 405 C205 512 208 556 124 556 C97 556 70 553 53 547 L65 495 C78 498 101 501 115 501 C151 501 148 484 139 396 C33 393 14 359 -6 173 C-10 135 -12 103 -12 80 C-12 23 3 -4 50 -4 L50 -4 Z M66 48 C49 48 43 59 43 89 C43 108 45 135 49 173 C64 324 71 341 133 343 L119 210 C104 60 102 48 66 48 L66 48 Z M51 606 L100 606 L142 681 L171 606 L217 606 L175 723 L119 723 L51 606 Z " />
<glyph glyph-name="atilde" unicode="&#xe3;" horiz-adv-x="224" d="M50 -4 C83 -4 105 2 118 19 C123 5 129 -1 161 -1 C165 -1 173 -1 176 0 L182 54 C160 54 158 60 162 95 L194 405 C205 512 208 556 124 556 C97 556 70 553 53 547 L65 495 C78 498 101 501 115 501 C151 501 148 484 139 396 C33 393 14 359 -6 173 C-10 135 -12 103 -12 80 C-12 23 3 -4 50 -4 L50 -4 Z M66 48 C49 48 43 59 43 89 C43 108 45 135 49 173 C64 324 71 341 133 343 L119 210 C104 60 102 48 66 48 L66 48 Z M54 606 L98 606 C100 627 104 632 112 632 C126 632 147 606 176 606 C201 606 218 616 223 678 L179 678 C177 657 175 653 166 653 C152 653 130 678 101 678 C80 678 60 667 54 606 L54 606 Z " />
<glyph glyph-name="adieresis" unicode="&#xe4;" horiz-adv-x="224" d="M50 -4 C83 -4 105 2 118 19 C123 5 129 -1 161 -1 C165 -1 173 -1 176 0 L182 54 C160 54 158 60 162 95 L194 405 C205 512 208 556 124 556 C97 556 70 553 53 547 L65 495 C78 498 101 501 115 501 C151 501 148 484 139 396 C33 393 14 359 -6 173 C-10 135 -12 103 -12 80 C-12 23 3 -4 50 -4 L50 -4 Z M66 48 C49 48 43 59 43 89 C43 108 45 135 49 173 C64 324 71 341 133 343 L119 210 C104 60 102 48 66 48 L66 48 Z M65 606 L115 606 L124 688 L74 688 L65 606 Z M155 606 L205 606 L214 688 L164 688 L155 606 Z " />
<glyph glyph-name="aring" unicode="&#xe5;" horiz-adv-x="224" d="M50 -4 C83 -4 105 2 118 19 C123 5 129 -1 161 -1 C165 -1 173 -1 176 0 L182 54 C160 54 158 60 162 95 L194 405 C205 512 208 556 124 556 C97 556 70 553 53 547 L65 495 C78 498 101 501 115 501 C151 501 148 484 139 396 C33 393 14 359 -6 173 C-10 135 -12 103 -12 80 C-12 23 3 -4 50 -4 L50 -4 Z M66 48 C49 48 43 59 43 89 C43 108 45 135 49 173 C64 324 71 341 133 343 L119 210 C104 60 102 48 66 48 L66 48 Z M137 604 C184 604 193 633 197 681 C203 729 201 763 150 763 C103 763 95 733 90 685 C85 638 86 604 137 604 L137 604 Z M139 635 C121 635 120 645 124 682 C127 720 131 731 148 731 C166 731 167 720 164 682 C160 645 156 635 139 635 L139 635 Z " />
<glyph glyph-name="ae" unicode="&#xe6;" horiz-adv-x="323" d="M49 -4 C91 -4 111 8 124 31 C136 5 157 -5 192 -5 C219 -5 240 -2 265 7 L253 56 C234 51 215 49 199 49 C179 49 164 57 164 103 C164 126 170 192 176 248 L295 248 L298 275 C308 369 314 431 314 464 C314 525 301 556 238 556 C210 556 195 549 182 536 C172 549 154 556 123 556 C96 556 69 553 53 547 L65 495 C78 498 101 501 115 501 C150 501 147 484 138 396 C34 393 14 359 -6 173 C-10 135 -12 103 -12 80 C-12 23 3 -4 49 -4 L49 -4 Z M65 48 C48 48 43 59 43 89 C43 108 45 135 49 173 C64 324 72 341 133 343 L119 210 C103 60 102 48 65 48 L65 48 Z M214 494 C219 499 226 501 235 501 C257 501 260 489 260 459 C260 439 254 377 246 302 L181 302 C194 435 201 477 214 494 L214 494 Z " />
<glyph glyph-name="ccedilla" unicode="&#xe7;" horiz-adv-x="172" d="M43 -178 C87 -178 103 -166 110 -102 C115 -52 99 -37 66 -40 L76 -4 C96 -4 112 -1 125 3 L117 53 C106 50 93 49 83 49 C56 49 49 69 49 103 C49 134 57 207 64 278 C84 473 87 499 128 499 C140 499 150 497 161 494 L180 547 C165 552 150 555 126 555 C35 555 29 502 6 284 C-1 215 -9 137 -9 101 C-9 49 1 12 42 0 L28 -52 L43 -65 C64 -64 73 -66 70 -97 C66 -133 62 -138 38 -138 C28 -138 16 -137 5 -133 L-10 -170 C8 -176 21 -178 43 -178 L43 -178 Z " />
<glyph glyph-name="egrave" unicode="&#xe8;" horiz-adv-x="206" d="M76 -5 C101 -5 128 -1 148 7 L136 57 C118 52 99 49 83 49 C63 49 48 58 48 103 C48 126 54 192 60 248 L179 248 L181 275 C191 370 198 431 198 464 C198 525 185 556 121 556 C92 556 71 548 57 533 C30 502 24 446 7 282 C-3 195 -9 139 -9 100 C-9 24 18 -5 76 -5 L76 -5 Z M98 494 C103 499 110 501 119 501 C140 501 144 489 144 459 C144 439 138 376 130 301 L65 301 C78 435 84 477 98 494 L98 494 Z M116 606 L162 606 L131 723 L70 723 L116 606 Z " />
<glyph glyph-name="eacute" unicode="&#xe9;" horiz-adv-x="206" d="M91 606 L139 606 L210 723 L148 723 L91 606 Z M76 -5 C101 -5 128 -1 148 7 L136 57 C118 52 99 49 83 49 C63 49 48 58 48 103 C48 126 54 192 60 248 L179 248 L181 275 C191 370 198 431 198 464 C198 525 185 556 121 556 C92 556 71 548 57 533 C30 502 24 446 7 282 C-3 195 -9 139 -9 100 C-9 24 18 -5 76 -5 L76 -5 Z M98 494 C103 499 110 501 119 501 C140 501 144 489 144 459 C144 439 138 376 130 301 L65 301 C78 435 84 477 98 494 L98 494 Z " />
<glyph glyph-name="ecircumflex" unicode="&#xea;" horiz-adv-x="206" d="M43 606 L92 606 L134 681 L163 606 L209 606 L167 723 L111 723 L43 606 Z M76 -5 C101 -5 128 -1 148 7 L136 57 C118 52 99 49 83 49 C63 49 48 58 48 103 C48 126 54 192 60 248 L179 248 L181 275 C191 370 198 431 198 464 C198 525 185 556 121 556 C92 556 71 548 57 533 C30 502 24 446 7 282 C-3 195 -9 139 -9 100 C-9 24 18 -5 76 -5 L76 -5 Z M98 494 C103 499 110 501 119 501 C140 501 144 489 144 459 C144 439 138 376 130 301 L65 301 C78 435 84 477 98 494 L98 494 Z " />
<glyph glyph-name="edieresis" unicode="&#xeb;" horiz-adv-x="206" d="M57 606 L107 606 L116 688 L66 688 L57 606 Z M147 606 L197 606 L206 688 L156 688 L147 606 Z M76 -5 C101 -5 128 -1 148 7 L136 57 C118 52 99 49 83 49 C63 49 48 58 48 103 C48 126 54 192 60 248 L179 248 L181 275 C191 370 198 431 198 464 C198 525 185 556 121 556 C92 556 71 548 57 533 C30 502 24 446 7 282 C-3 195 -9 139 -9 100 C-9 24 18 -5 76 -5 L76 -5 Z M98 494 C103 499 110 501 119 501 C140 501 144 489 144 459 C144 439 138 376 130 301 L65 301 C78 435 84 477 98 494 L98 494 Z " />
<glyph glyph-name="igrave" unicode="&#xec;" horiz-adv-x="114" d="M58 606 L104 606 L86 723 L25 723 L58 606 Z M-11 0 L46 0 L104 551 L48 551 L-11 0 Z " />
<glyph glyph-name="iacute" unicode="&#xed;" horiz-adv-x="114" d="M55 606 L104 606 L167 723 L103 723 L55 606 Z M-11 0 L46 0 L104 551 L48 551 L-11 0 Z " />
<glyph glyph-name="icircumflex" unicode="&#xee;" horiz-adv-x="114" d="M3 606 L51 606 L89 679 L113 606 L159 606 L122 723 L66 723 L3 606 Z M-11 0 L46 0 L104 551 L48 551 L-11 0 Z " />
<glyph glyph-name="idieresis" unicode="&#xef;" horiz-adv-x="114" d="M11 606 L61 606 L70 688 L20 688 L11 606 Z M101 606 L151 606 L160 688 L110 688 L101 606 Z M-11 0 L46 0 L104 551 L48 551 L-11 0 Z " />
<glyph glyph-name="eth" unicode="&#xf0;" horiz-adv-x="231" d="M108 605 L160 622 C164 596 166 568 168 537 C158 546 143 551 120 551 C41 551 29 501 6 282 C-1 205 -7 149 -7 108 C-7 31 12 -5 80 -5 C171 -5 180 48 204 271 C212 347 216 400 217 439 C219 521 214 586 207 638 L250 653 L255 700 L201 681 C195 713 187 739 181 759 L132 744 C139 724 146 697 153 665 L113 652 L108 605 Z M82 48 C58 48 49 63 49 108 C49 142 54 196 63 276 C84 478 90 500 127 500 C151 500 161 486 161 439 C161 406 156 353 148 273 C127 81 123 48 82 48 L82 48 Z " />
<glyph glyph-name="ntilde" unicode="&#xf1;" horiz-adv-x="243" d="M-13 0 L44 0 L83 374 C94 472 104 500 140 500 C174 500 172 482 165 420 L121 0 L177 0 L224 436 C232 511 232 556 160 556 C120 556 101 544 92 528 L92 550 L46 547 L-13 0 Z M64 606 L108 606 C110 627 114 632 122 632 C136 632 157 606 186 606 C211 606 228 616 233 678 L189 678 C187 657 185 653 176 653 C162 653 140 678 111 678 C90 678 70 667 64 606 L64 606 Z " />
<glyph glyph-name="ograve" unicode="&#xf2;" horiz-adv-x="231" d="M80 -5 C177 -5 180 44 204 270 C213 352 219 411 219 450 C219 523 199 556 129 556 C34 556 29 502 6 284 C-1 220 -9 135 -9 100 C-9 25 11 -5 80 -5 L80 -5 Z M82 48 C57 48 47 59 47 100 C47 132 54 188 63 279 C83 475 84 500 127 500 C153 500 162 488 162 446 C162 414 157 360 148 273 C127 69 126 48 82 48 L82 48 Z M128 606 L174 606 L143 723 L82 723 L128 606 Z " />
<glyph glyph-name="oacute" unicode="&#xf3;" horiz-adv-x="231" d="M103 606 L151 606 L222 723 L160 723 L103 606 Z M80 -5 C177 -5 180 44 204 270 C213 352 219 411 219 450 C219 523 199 556 129 556 C34 556 29 502 6 284 C-1 220 -9 135 -9 100 C-9 25 11 -5 80 -5 L80 -5 Z M82 48 C57 48 47 59 47 100 C47 132 54 188 63 279 C83 475 84 500 127 500 C153 500 162 488 162 446 C162 414 157 360 148 273 C127 69 126 48 82 48 L82 48 Z " />
<glyph glyph-name="ocircumflex" unicode="&#xf4;" horiz-adv-x="231" d="M55 606 L104 606 L146 681 L175 606 L221 606 L179 723 L123 723 L55 606 Z M80 -5 C177 -5 180 44 204 270 C213 352 219 411 219 450 C219 523 199 556 129 556 C34 556 29 502 6 284 C-1 220 -9 135 -9 100 C-9 25 11 -5 80 -5 L80 -5 Z M82 48 C57 48 47 59 47 100 C47 132 54 188 63 279 C83 475 84 500 127 500 C153 500 162 488 162 446 C162 414 157 360 148 273 C127 69 126 48 82 48 L82 48 Z " />
<glyph glyph-name="otilde" unicode="&#xf5;" horiz-adv-x="231" d="M80 -5 C177 -5 180 44 204 270 C213 352 219 411 219 450 C219 523 199 556 129 556 C34 556 29 502 6 284 C-1 220 -9 135 -9 100 C-9 25 11 -5 80 -5 L80 -5 Z M82 48 C57 48 47 59 47 100 C47 132 54 188 63 279 C83 475 84 500 127 500 C153 500 162 488 162 446 C162 414 157 360 148 273 C127 69 126 48 82 48 L82 48 Z M58 606 L102 606 C104 627 108 632 116 632 C130 632 151 606 180 606 C205 606 222 616 227 678 L183 678 C181 657 179 653 170 653 C156 653 134 678 105 678 C84 678 64 667 58 606 L58 606 Z " />
<glyph glyph-name="odieresis" unicode="&#xf6;" horiz-adv-x="231" d="M69 606 L119 606 L128 688 L78 688 L69 606 Z M159 606 L209 606 L218 688 L168 688 L159 606 Z M80 -5 C177 -5 180 44 204 270 C213 352 219 411 219 450 C219 523 199 556 129 556 C34 556 29 502 6 284 C-1 220 -9 135 -9 100 C-9 25 11 -5 80 -5 L80 -5 Z M82 48 C57 48 47 59 47 100 C47 132 54 188 63 279 C83 475 84 500 127 500 C153 500 162 488 162 446 C162 414 157 360 148 273 C127 69 126 48 82 48 L82 48 Z " />
<glyph glyph-name="divide" unicode="&#xf7;" horiz-adv-x="262" d="M87 208 L141 208 L148 277 L94 277 L87 208 Z M36 337 L219 337 L225 392 L41 392 L36 337 Z M112 449 L166 449 L173 519 L119 519 L112 449 Z " />
<glyph glyph-name="oslash" unicode="&#xf8;" horiz-adv-x="231" d="M85 -5 C176 -5 180 46 204 271 C213 353 219 411 219 450 C219 483 215 507 204 525 L224 592 L176 592 L164 552 C153 554 141 556 127 556 C35 556 29 503 6 284 C0 220 -9 135 -9 99 C-9 66 -5 41 5 24 L-15 -41 L34 -41 L45 -1 C56 -3 69 -5 85 -5 L85 -5 Z M82 44 C71 44 63 45 57 51 L163 405 C161 372 157 329 151 273 C130 66 125 44 82 44 L82 44 Z M60 279 C80 478 85 504 127 504 C138 504 146 502 152 497 L47 152 C50 184 54 226 60 279 L60 279 Z " />
<glyph glyph-name="ugrave" unicode="&#xf9;" horiz-adv-x="237" d="M83 -5 C170 -5 177 43 187 132 L230 551 L176 551 L132 136 C125 71 125 48 86 48 C47 48 51 71 59 135 L102 551 L46 551 L2 132 C-8 46 -7 -5 83 -5 L83 -5 Z M131 606 L177 606 L146 723 L85 723 L131 606 Z " />
<glyph glyph-name="uacute" unicode="&#xfa;" horiz-adv-x="237" d="M106 606 L154 606 L225 723 L163 723 L106 606 Z M83 -5 C170 -5 177 43 187 132 L230 551 L176 551 L132 136 C125 71 125 48 86 48 C47 48 51 71 59 135 L102 551 L46 551 L2 132 C-8 46 -7 -5 83 -5 L83 -5 Z " />
<glyph glyph-name="ucircumflex" unicode="&#xfb;" horiz-adv-x="237" d="M58 606 L107 606 L149 681 L178 606 L224 606 L182 723 L126 723 L58 606 Z M83 -5 C170 -5 177 43 187 132 L230 551 L176 551 L132 136 C125 71 125 48 86 48 C47 48 51 71 59 135 L102 551 L46 551 L2 132 C-8 46 -7 -5 83 -5 L83 -5 Z " />
<glyph glyph-name="udieresis" unicode="&#xfc;" horiz-adv-x="237" d="M72 606 L122 606 L131 688 L81 688 L72 606 Z M162 606 L212 606 L221 688 L171 688 L162 606 Z M83 -5 C170 -5 177 43 187 132 L230 551 L176 551 L132 136 C125 71 125 48 86 48 C47 48 51 71 59 135 L102 551 L46 551 L2 132 C-8 46 -7 -5 83 -5 L83 -5 Z " />
<glyph glyph-name="yacute" unicode="&#xfd;" horiz-adv-x="198" d="M-22 -145 L-9 -145 C39 -145 62 -129 73 -79 L213 551 L159 551 L102 278 L78 159 L80 279 L79 551 L23 551 L33 -12 L23 -66 C17 -87 17 -91 -8 -91 L-17 -91 L-22 -145 Z M87 606 L135 606 L206 723 L144 723 L87 606 Z " />
<glyph glyph-name="thorn" unicode="&#xfe;" horiz-adv-x="240" d="M-28 -145 L29 -145 L46 15 C58 1 76 -4 106 -4 C129 -4 145 -1 160 15 C188 42 195 103 213 272 C223 369 229 428 229 466 C229 533 205 556 160 556 C134 556 114 550 99 537 L122 756 L66 756 L-28 -145 Z M91 48 C67 48 57 60 57 103 C57 137 64 191 73 277 C93 465 96 500 139 500 C162 500 171 492 171 451 C171 419 165 365 156 275 C134 69 134 48 91 48 L91 48 Z " />
<glyph glyph-name="ydieresis" unicode="&#xff;" horiz-adv-x="198" d="M-22 -145 L-9 -145 C39 -145 62 -129 73 -79 L213 551 L159 551 L102 278 L78 159 L80 279 L79 551 L23 551 L33 -12 L23 -66 C17 -87 17 -91 -8 -91 L-17 -91 L-22 -145 Z M53 606 L103 606 L112 688 L62 688 L53 606 Z M143 606 L193 606 L202 688 L152 688 L143 606 Z " />
<glyph glyph-name="dotlessi" unicode="&#x131;" horiz-adv-x="114" d="M-11 0 L46 0 L104 551 L48 551 L-11 0 Z " />
<glyph glyph-name="Lslash" unicode="&#x141;" horiz-adv-x="193" d="M1 339 L29 354 L-8 0 L146 0 L151 54 L54 54 L89 388 L144 418 L150 471 L95 441 L127 741 L70 741 L35 408 L6 392 L1 339 Z " />
<glyph glyph-name="lslash" unicode="&#x142;" horiz-adv-x="172" d="M22 455 L59 475 L19 91 C13 31 20 -1 78 -1 C81 -1 93 -1 97 0 L102 55 L93 55 C75 55 73 61 76 92 L119 508 L164 533 L170 586 L125 561 L145 756 L88 756 L64 528 L27 508 L22 455 Z " />
<glyph glyph-name="OE" unicode="&#x152;" horiz-adv-x="344" d="M91 0 L283 0 L289 54 L188 54 L219 352 L317 352 L323 407 L225 407 L255 685 L355 685 L360 741 L166 741 C130 741 101 734 80 705 C50 664 43 607 19 377 C4 241 -3 166 -3 118 C-3 28 28 0 91 0 L91 0 Z M98 52 C73 52 55 64 55 122 C55 162 64 246 77 372 C99 581 106 639 125 667 C136 684 151 688 169 688 L200 688 L133 52 L98 52 Z " />
<glyph glyph-name="oe" unicode="&#x153;" horiz-adv-x="345" d="M81 -5 C116 -5 137 2 152 22 C165 3 185 -5 216 -5 C243 -5 267 -2 288 7 L276 56 C259 51 239 49 222 49 C202 49 187 57 187 103 C187 126 193 192 199 248 L318 248 L321 275 C331 369 337 431 337 464 C337 525 325 556 261 556 C231 556 216 548 203 533 C201 531 200 529 199 528 C187 547 166 556 130 556 C35 556 30 502 7 284 C-1 220 -9 135 -9 100 C-9 25 12 -5 81 -5 L81 -5 Z M83 48 C57 48 48 59 48 100 C48 132 54 188 63 279 C84 475 85 500 127 500 C154 500 163 488 163 446 C163 414 157 360 148 273 C127 69 126 48 83 48 L83 48 Z M238 494 C243 499 249 501 258 501 C280 501 283 489 283 459 C283 439 277 373 269 302 L204 302 C217 435 224 477 238 494 L238 494 Z " />
<glyph glyph-name="Scaron" unicode="&#x160;" horiz-adv-x="208" d="M118 782 L174 782 L242 900 L194 900 L151 825 L123 900 L76 900 L118 782 Z M58 -6 C138 -6 167 39 167 109 C167 127 165 140 161 172 L105 592 C98 648 104 688 154 688 C168 688 184 686 197 682 L216 738 C201 742 185 745 149 745 C78 745 44 702 44 628 C44 609 46 594 49 575 L106 148 C117 64 98 50 57 50 C41 50 14 53 -3 57 L-21 2 C-3 -2 28 -6 58 -6 L58 -6 Z " />
<glyph glyph-name="scaron" unicode="&#x161;" horiz-adv-x="175" d="M84 606 L140 606 L208 724 L160 724 L117 649 L89 724 L42 724 L84 606 Z M42 -5 C113 -5 134 36 134 89 C134 111 133 123 128 154 L82 429 C75 470 79 501 116 501 C130 501 145 499 154 497 L172 550 C156 554 138 556 109 556 C46 556 23 515 23 462 C23 443 25 433 29 407 L75 129 C85 66 71 48 34 48 C16 48 -2 52 -14 55 L-32 3 C-13 -2 12 -5 42 -5 L42 -5 Z " />
<glyph glyph-name="Ydieresis" unicode="&#x178;" horiz-adv-x="224" d="M44 0 L101 0 L127 247 L262 741 L205 741 L114 381 L99 741 L40 741 L70 257 L44 0 Z M85 782 L135 782 L144 864 L94 864 L85 782 Z M175 782 L225 782 L234 864 L184 864 L175 782 Z " />
<glyph glyph-name="Zcaron" unicode="&#x17d;" horiz-adv-x="214" d="M122 782 L178 782 L246 900 L198 900 L155 825 L127 900 L80 900 L122 782 Z M-24 0 L160 0 L165 54 L43 54 L227 690 L232 741 L60 741 L55 685 L167 685 L-19 47 L-24 0 Z " />
<glyph glyph-name="zcaron" unicode="&#x17e;" horiz-adv-x="175" d="M85 606 L141 606 L209 724 L161 724 L118 649 L90 724 L43 724 L85 606 Z M-29 0 L125 0 L130 50 L35 50 L178 509 L182 551 L34 551 L29 498 L117 498 L-25 42 L-29 0 Z " />
<glyph glyph-name="florin" unicode="&#x192;" horiz-adv-x="234" d="M25 396 L72 396 L17 -145 L73 -145 L128 396 L189 396 L195 448 L134 448 L153 632 C158 672 161 685 196 685 L202 685 L209 741 L192 741 C122 741 105 714 97 638 L78 448 L32 448 L25 396 Z " />
<glyph glyph-name="circumflex" unicode="&#x2c6;" horiz-adv-x="220" d="M50 606 L99 606 L141 681 L170 606 L216 606 L174 723 L118 723 L50 606 Z " />
<glyph glyph-name="caron" unicode="&#x2c7;" horiz-adv-x="220" d="M106 606 L162 606 L230 724 L182 724 L139 649 L111 724 L64 724 L106 606 Z " />
<glyph glyph-name="breve" unicode="&#x2d8;" horiz-adv-x="220" d="M139 604 C193 604 207 633 215 703 L171 703 C167 665 163 647 138 647 C114 647 114 665 119 703 L75 703 C67 633 76 604 139 604 L139 604 Z " />
<glyph glyph-name="dotaccent" unicode="&#x2d9;" horiz-adv-x="220" d="M106 606 L162 606 L173 705 L117 705 L106 606 Z " />
<glyph glyph-name="ring" unicode="&#x2da;" horiz-adv-x="220" d="M136 604 C183 604 192 633 196 681 C202 729 200 763 149 763 C102 763 94 733 89 685 C84 638 85 604 136 604 L136 604 Z M138 635 C120 635 119 645 123 682 C126 720 130 731 147 731 C165 731 166 720 163 682 C159 645 155 635 138 635 L138 635 Z " />
<glyph glyph-name="ogonek" unicode="&#x2db;" horiz-adv-x="227" d="M97 -170 L101 -128 L96 -128 C60 -128 51 -119 55 -85 C58 -56 72 -34 109 5 L63 5 C35 -21 13 -50 9 -87 C3 -142 18 -170 84 -170 L97 -170 Z " />
<glyph glyph-name="tilde" unicode="&#x2dc;" horiz-adv-x="220" d="M53 606 L97 606 C99 627 103 632 111 632 C125 632 146 606 175 606 C200 606 217 616 222 678 L178 678 C176 657 174 653 165 653 C151 653 129 678 100 678 C79 678 59 667 53 606 L53 606 Z " />
<glyph glyph-name="hungarumlaut" unicode="&#x2dd;" horiz-adv-x="220" d="M57 606 L104 606 L149 724 L90 724 L57 606 Z M160 606 L206 606 L252 724 L193 724 L160 606 Z " />
<glyph glyph-name="&amp;#x394;" unicode="&#x394;" horiz-adv-x="263" d="M22 498 L60 498 L-8 -145 L49 -145 L116 498 L159 498 L164 551 L122 551 L132 648 C137 687 143 701 177 701 L180 701 L186 756 C183 757 177 757 175 757 C106 757 85 729 77 653 L66 551 L27 551 L22 498 Z M102 -145 C164 -145 183 -122 188 -68 L253 551 L197 551 L133 -62 C130 -84 129 -90 108 -91 L102 -145 Z M204 624 L261 624 L272 722 L215 722 L204 624 Z " />
<glyph glyph-name="&amp;#x2206;" unicode="&#x2206;" horiz-adv-x="263" d="M22 498 L60 498 L-8 -145 L49 -145 L116 498 L159 498 L164 551 L122 551 L132 648 C137 687 143 701 177 701 L180 701 L186 756 C183 757 177 757 175 757 C106 757 85 729 77 653 L66 551 L27 551 L22 498 Z M102 -145 C164 -145 183 -122 188 -68 L253 551 L197 551 L133 -62 C130 -84 129 -90 108 -91 L102 -145 Z M204 624 L261 624 L272 722 L215 722 L204 624 Z " />
<glyph glyph-name="&amp;#x3a9;" unicode="&#x3a9;" horiz-adv-x="832" d="M126 120 C126 120 129 123 134 127 C79 193 46 278 46 371 C46 464 79 549 133 615 C129 619 126 621 126 621 C70 554 36 466 36 371 C36 275 70 187 126 120 L126 120 Z M228 211 C230 213 233 215 235 218 C201 259 181 313 181 371 C181 429 202 483 235 524 C232 526 230 529 227 531 C192 487 171 432 171 371 C171 310 193 254 228 211 L228 211 Z M264 243 C267 245 269 248 272 250 C245 283 229 325 229 371 C229 417 245 459 272 492 C269 494 267 497 264 499 C236 464 219 419 219 371 C219 322 236 278 264 243 L264 243 Z M316 289 C319 291 321 294 324 296 C308 317 298 343 298 371 C298 399 308 425 323 445 C321 448 318 450 316 452 C298 430 288 402 288 371 C288 340 298 312 316 289 L316 289 Z M349 320 C352 323 354 325 357 327 C348 340 343 355 343 371 C343 387 348 402 357 415 C354 417 352 420 349 422 C339 408 333 390 333 371 C333 352 339 334 349 320 L349 320 Z M378 346 C382 349 384 351 384 351 C381 357 379 364 379 371 C379 378 381 385 384 391 C384 391 382 393 378 396 C374 389 371 380 371 371 C371 362 374 353 378 346 L378 346 Z M416 60 C493 60 563 89 616 136 C614 139 611 141 609 144 C558 98 490 70 416 70 C342 70 274 98 222 144 C222 145 215 137 215 137 C268 89 338 60 416 60 L416 60 Z M416 324 C426 324 435 327 442 333 C439 337 437 339 437 339 C431 334 424 332 416 332 C408 332 401 335 395 339 C395 339 391 334 389 333 C397 327 406 324 416 324 L416 324 Z M482 319 C493 334 499 352 499 371 C499 390 493 408 482 422 C483 422 475 415 475 415 C484 403 489 388 489 371 C489 355 484 339 475 326 C478 324 480 322 482 319 L482 319 Z M292 269 C295 271 298 274 300 276 C280 302 267 335 267 371 C267 407 280 440 300 466 L293 473 C270 445 257 410 257 371 C257 333 270 297 292 269 L292 269 Z M416 -17 C512 -17 600 19 667 80 C667 80 660 88 660 87 C595 29 510 -7 416 -7 C322 -7 236 29 171 88 L164 80 C231 20 320 -17 416 -17 L416 -17 Z M416 121 C478 121 534 144 576 182 C574 185 571 187 569 190 C529 153 475 131 416 131 C357 131 303 153 262 190 L255 182 C298 144 354 121 416 121 L416 121 Z M416 170 C465 170 510 188 544 218 C542 221 539 223 537 226 C505 197 462 180 416 180 C369 180 327 197 294 226 L287 219 C322 189 367 170 416 170 L416 170 Z M416 209 C455 209 491 224 518 247 C516 250 514 253 512 255 C486 233 452 219 416 219 C380 219 346 233 320 255 L313 247 C341 224 377 209 416 209 L416 209 Z M416 265 C441 265 463 274 481 289 C479 292 476 294 474 297 C458 283 438 275 416 275 C394 275 373 283 357 297 L350 289 C368 274 391 265 416 265 L416 265 Z M358 445 C374 459 394 467 416 467 C438 467 458 459 474 445 L482 453 C464 468 441 477 416 477 C391 477 368 468 350 453 C351 452 354 448 358 445 L358 445 Z M570 552 C572 554 575 557 577 560 C534 598 478 621 416 621 C355 621 299 598 256 560 L263 553 C304 589 357 611 416 611 C475 611 529 589 570 552 L570 552 Z M454 346 C458 353 461 362 461 371 C461 380 458 389 454 396 L448 391 C451 385 453 378 453 371 C453 364 451 357 448 351 C448 351 450 349 454 346 L454 346 Z M468 333 C476 344 480 357 480 371 C480 385 476 398 468 409 L460 402 C466 393 470 382 470 371 C470 360 466 349 460 340 C463 338 465 336 468 333 L468 333 Z M498 306 C511 325 519 347 519 371 C519 395 511 418 497 436 L490 429 C502 413 509 393 509 371 C509 349 502 329 490 313 C492 311 495 308 498 306 L498 306 Z M540 269 C562 297 575 332 575 371 C575 410 562 445 539 473 L531 466 C552 440 565 407 565 371 C565 335 552 302 532 276 C535 274 537 271 540 269 L540 269 Z M568 243 C596 278 613 322 613 371 C613 420 596 464 568 499 L560 492 C587 459 603 417 603 371 C603 325 587 283 560 250 C563 248 566 245 568 243 L568 243 Z M604 211 C640 254 661 310 661 371 C661 432 640 488 604 531 L596 524 C631 483 651 429 651 371 C651 313 631 260 596 218 C601 213 604 211 604 211 L604 211 Z M649 171 C694 225 721 295 721 371 C721 447 694 517 649 571 L641 564 C685 512 711 445 711 371 C711 297 685 230 642 177 C644 175 647 173 649 171 L649 171 Z M706 120 C762 188 796 276 796 371 C796 467 762 555 706 622 L698 615 C753 549 786 464 786 371 C786 278 753 193 698 127 C703 123 706 120 706 120 L706 120 Z M183 170 L190 177 C147 229 121 297 121 371 C121 444 147 512 190 564 C187 567 184 569 182 571 C138 517 111 447 111 371 C111 294 138 225 183 170 L183 170 Z M334 306 L342 314 C330 330 323 350 323 371 C323 393 330 413 342 429 C340 431 337 434 334 436 C321 418 313 395 313 371 C313 346 321 324 334 306 L334 306 Z M364 333 L371 340 C366 349 362 360 362 371 C362 382 366 393 371 402 C369 404 366 406 364 409 C356 398 352 385 352 371 C352 357 356 344 364 333 L364 333 Z M395 403 C401 408 408 410 416 410 C424 410 431 407 437 403 C437 403 439 406 442 409 C435 415 426 418 416 418 C406 418 397 415 390 409 L395 403 Z M384 416 C393 423 404 428 416 428 C428 428 439 424 448 416 C450 419 452 421 454 423 C443 432 430 437 416 437 C401 437 388 432 377 423 L384 416 Z M371 430 C383 441 399 447 416 447 C433 447 449 441 461 430 C461 430 464 434 468 438 C454 450 436 457 416 457 C397 457 378 450 364 438 L371 430 Z M295 516 C327 545 370 562 416 562 C462 562 505 545 538 516 C538 516 545 523 544 523 C510 554 465 572 416 572 C367 572 322 554 288 524 L295 516 Z M416 240 C448 240 476 252 498 271 L491 278 C471 261 445 250 416 250 C388 250 361 261 340 278 L333 270 C355 251 384 240 416 240 L416 240 Z M416 285 C436 285 454 292 468 304 L461 312 C448 301 433 295 416 295 C399 295 383 302 370 312 L363 304 C378 292 396 285 416 285 L416 285 Z M416 305 C430 305 444 310 455 319 L448 326 C439 319 428 314 416 314 C404 314 393 319 383 326 L376 319 C388 310 401 305 416 305 L416 305 Z M341 464 C362 482 388 492 416 492 C445 492 471 481 491 464 L498 472 C476 491 447 502 416 502 C385 502 356 490 334 471 L341 464 Z M320 487 C346 509 380 523 416 523 C453 523 486 510 512 487 L518 494 C491 518 455 533 416 533 C377 533 341 519 313 495 L320 487 Z M610 597 L617 605 C563 653 493 682 416 682 C339 682 269 653 215 605 L222 598 C274 644 342 672 416 672 C491 672 559 644 610 597 L610 597 Z M172 654 C237 713 322 749 416 749 C510 749 596 713 661 654 L668 662 C601 722 512 759 416 759 C320 759 232 723 165 662 L172 654 Z M516 290 C534 312 544 340 544 371 C544 402 534 430 516 453 L508 446 C524 425 534 399 534 371 C534 343 524 317 509 297 L516 290 Z " />
<glyph glyph-name="&amp;#x2126;" unicode="&#x2126;" horiz-adv-x="832" d="M126 120 C126 120 129 123 134 127 C79 193 46 278 46 371 C46 464 79 549 133 615 C129 619 126 621 126 621 C70 554 36 466 36 371 C36 275 70 187 126 120 L126 120 Z M228 211 C230 213 233 215 235 218 C201 259 181 313 181 371 C181 429 202 483 235 524 C232 526 230 529 227 531 C192 487 171 432 171 371 C171 310 193 254 228 211 L228 211 Z M264 243 C267 245 269 248 272 250 C245 283 229 325 229 371 C229 417 245 459 272 492 C269 494 267 497 264 499 C236 464 219 419 219 371 C219 322 236 278 264 243 L264 243 Z M316 289 C319 291 321 294 324 296 C308 317 298 343 298 371 C298 399 308 425 323 445 C321 448 318 450 316 452 C298 430 288 402 288 371 C288 340 298 312 316 289 L316 289 Z M349 320 C352 323 354 325 357 327 C348 340 343 355 343 371 C343 387 348 402 357 415 C354 417 352 420 349 422 C339 408 333 390 333 371 C333 352 339 334 349 320 L349 320 Z M378 346 C382 349 384 351 384 351 C381 357 379 364 379 371 C379 378 381 385 384 391 C384 391 382 393 378 396 C374 389 371 380 371 371 C371 362 374 353 378 346 L378 346 Z M416 60 C493 60 563 89 616 136 C614 139 611 141 609 144 C558 98 490 70 416 70 C342 70 274 98 222 144 C222 145 215 137 215 137 C268 89 338 60 416 60 L416 60 Z M416 324 C426 324 435 327 442 333 C439 337 437 339 437 339 C431 334 424 332 416 332 C408 332 401 335 395 339 C395 339 391 334 389 333 C397 327 406 324 416 324 L416 324 Z M482 319 C493 334 499 352 499 371 C499 390 493 408 482 422 C483 422 475 415 475 415 C484 403 489 388 489 371 C489 355 484 339 475 326 C478 324 480 322 482 319 L482 319 Z M292 269 C295 271 298 274 300 276 C280 302 267 335 267 371 C267 407 280 440 300 466 L293 473 C270 445 257 410 257 371 C257 333 270 297 292 269 L292 269 Z M416 -17 C512 -17 600 19 667 80 C667 80 660 88 660 87 C595 29 510 -7 416 -7 C322 -7 236 29 171 88 L164 80 C231 20 320 -17 416 -17 L416 -17 Z M416 121 C478 121 534 144 576 182 C574 185 571 187 569 190 C529 153 475 131 416 131 C357 131 303 153 262 190 L255 182 C298 144 354 121 416 121 L416 121 Z M416 170 C465 170 510 188 544 218 C542 221 539 223 537 226 C505 197 462 180 416 180 C369 180 327 197 294 226 L287 219 C322 189 367 170 416 170 L416 170 Z M416 209 C455 209 491 224 518 247 C516 250 514 253 512 255 C486 233 452 219 416 219 C380 219 346 233 320 255 L313 247 C341 224 377 209 416 209 L416 209 Z M416 265 C441 265 463 274 481 289 C479 292 476 294 474 297 C458 283 438 275 416 275 C394 275 373 283 357 297 L350 289 C368 274 391 265 416 265 L416 265 Z M358 445 C374 459 394 467 416 467 C438 467 458 459 474 445 L482 453 C464 468 441 477 416 477 C391 477 368 468 350 453 C351 452 354 448 358 445 L358 445 Z M570 552 C572 554 575 557 577 560 C534 598 478 621 416 621 C355 621 299 598 256 560 L263 553 C304 589 357 611 416 611 C475 611 529 589 570 552 L570 552 Z M454 346 C458 353 461 362 461 371 C461 380 458 389 454 396 L448 391 C451 385 453 378 453 371 C453 364 451 357 448 351 C448 351 450 349 454 346 L454 346 Z M468 333 C476 344 480 357 480 371 C480 385 476 398 468 409 L460 402 C466 393 470 382 470 371 C470 360 466 349 460 340 C463 338 465 336 468 333 L468 333 Z M498 306 C511 325 519 347 519 371 C519 395 511 418 497 436 L490 429 C502 413 509 393 509 371 C509 349 502 329 490 313 C492 311 495 308 498 306 L498 306 Z M540 269 C562 297 575 332 575 371 C575 410 562 445 539 473 L531 466 C552 440 565 407 565 371 C565 335 552 302 532 276 C535 274 537 271 540 269 L540 269 Z M568 243 C596 278 613 322 613 371 C613 420 596 464 568 499 L560 492 C587 459 603 417 603 371 C603 325 587 283 560 250 C563 248 566 245 568 243 L568 243 Z M604 211 C640 254 661 310 661 371 C661 432 640 488 604 531 L596 524 C631 483 651 429 651 371 C651 313 631 260 596 218 C601 213 604 211 604 211 L604 211 Z M649 171 C694 225 721 295 721 371 C721 447 694 517 649 571 L641 564 C685 512 711 445 711 371 C711 297 685 230 642 177 C644 175 647 173 649 171 L649 171 Z M706 120 C762 188 796 276 796 371 C796 467 762 555 706 622 L698 615 C753 549 786 464 786 371 C786 278 753 193 698 127 C703 123 706 120 706 120 L706 120 Z M183 170 L190 177 C147 229 121 297 121 371 C121 444 147 512 190 564 C187 567 184 569 182 571 C138 517 111 447 111 371 C111 294 138 225 183 170 L183 170 Z M334 306 L342 314 C330 330 323 350 323 371 C323 393 330 413 342 429 C340 431 337 434 334 436 C321 418 313 395 313 371 C313 346 321 324 334 306 L334 306 Z M364 333 L371 340 C366 349 362 360 362 371 C362 382 366 393 371 402 C369 404 366 406 364 409 C356 398 352 385 352 371 C352 357 356 344 364 333 L364 333 Z M395 403 C401 408 408 410 416 410 C424 410 431 407 437 403 C437 403 439 406 442 409 C435 415 426 418 416 418 C406 418 397 415 390 409 L395 403 Z M384 416 C393 423 404 428 416 428 C428 428 439 424 448 416 C450 419 452 421 454 423 C443 432 430 437 416 437 C401 437 388 432 377 423 L384 416 Z M371 430 C383 441 399 447 416 447 C433 447 449 441 461 430 C461 430 464 434 468 438 C454 450 436 457 416 457 C397 457 378 450 364 438 L371 430 Z M295 516 C327 545 370 562 416 562 C462 562 505 545 538 516 C538 516 545 523 544 523 C510 554 465 572 416 572 C367 572 322 554 288 524 L295 516 Z M416 240 C448 240 476 252 498 271 L491 278 C471 261 445 250 416 250 C388 250 361 261 340 278 L333 270 C355 251 384 240 416 240 L416 240 Z M416 285 C436 285 454 292 468 304 L461 312 C448 301 433 295 416 295 C399 295 383 302 370 312 L363 304 C378 292 396 285 416 285 L416 285 Z M416 305 C430 305 444 310 455 319 L448 326 C439 319 428 314 416 314 C404 314 393 319 383 326 L376 319 C388 310 401 305 416 305 L416 305 Z M341 464 C362 482 388 492 416 492 C445 492 471 481 491 464 L498 472 C476 491 447 502 416 502 C385 502 356 490 334 471 L341 464 Z M320 487 C346 509 380 523 416 523 C453 523 486 510 512 487 L518 494 C491 518 455 533 416 533 C377 533 341 519 313 495 L320 487 Z M610 597 L617 605 C563 653 493 682 416 682 C339 682 269 653 215 605 L222 598 C274 644 342 672 416 672 C491 672 559 644 610 597 L610 597 Z M172 654 C237 713 322 749 416 749 C510 749 596 713 661 654 L668 662 C601 722 512 759 416 759 C320 759 232 723 165 662 L172 654 Z M516 290 C534 312 544 340 544 371 C544 402 534 430 516 453 L508 446 C524 425 534 399 534 371 C534 343 524 317 509 297 L516 290 Z " />
<glyph glyph-name="pi" unicode="&#x3c0;" horiz-adv-x="296" d="M148 -4 C184 -4 210 4 229 23 C270 63 281 159 281 371 C281 573 271 669 234 712 C215 735 187 745 148 745 C109 745 81 736 62 713 C24 670 14 574 14 371 C14 156 25 60 68 21 C88 4 113 -4 148 -4 L148 -4 Z M148 27 C59 27 46 91 46 371 C46 652 60 714 148 714 C236 714 249 652 249 371 C249 91 236 27 148 27 L148 27 Z M86 126 L127 126 L127 322 L151 322 C215 322 219 369 219 466 C219 562 215 607 150 607 L86 607 L86 126 Z M127 360 L127 569 L148 569 C178 569 179 540 179 464 C179 387 178 360 148 360 L127 360 Z " />
<glyph glyph-name="endash" unicode="&#x2013;" horiz-adv-x="263" d="M9 282 L235 282 L241 337 L14 337 L9 282 Z " />
<glyph glyph-name="emdash" unicode="&#x2014;" horiz-adv-x="337" d="M9 282 L309 282 L315 337 L14 337 L9 282 Z " />
<glyph glyph-name="quoteleft" unicode="&#x2018;" horiz-adv-x="115" d="M45 560 L109 560 L120 664 L96 664 C99 696 102 697 125 711 L111 744 C69 725 60 708 55 646 L45 560 Z " />
<glyph glyph-name="quoteright" unicode="&#x2019;" horiz-adv-x="115" d="M62 557 C104 576 113 592 119 654 L128 741 L65 741 L54 637 L79 637 C75 605 71 604 48 589 L62 557 Z " />
<glyph glyph-name="quotesinglbase" unicode="&#x201a;" horiz-adv-x="115" d="M-4 -80 C37 -61 45 -45 52 18 L61 105 L-3 105 L-14 0 L11 0 C8 -32 5 -33 -20 -48 L-4 -80 Z " />
<glyph glyph-name="quotedblleft" unicode="&#x201c;" horiz-adv-x="206" d="M45 560 L108 560 L119 664 L94 664 C98 696 101 697 124 711 L110 743 C68 724 60 708 55 646 L45 560 Z M135 560 L198 560 L209 664 L184 664 C188 696 191 697 214 711 L201 743 C159 724 151 708 145 646 L135 560 Z " />
<glyph glyph-name="quotedblright" unicode="&#x201d;" horiz-adv-x="204" d="M61 558 C104 577 111 592 118 654 L127 741 L65 741 L54 637 L79 637 C75 605 71 604 48 589 L61 558 Z M152 558 C194 577 201 592 208 654 L217 741 L155 741 L144 637 L168 637 C164 605 161 604 138 589 L152 558 Z " />
<glyph glyph-name="quotedblbase" unicode="&#x201e;" horiz-adv-x="204" d="M-5 -79 C36 -60 44 -45 51 18 L60 105 L-3 105 L-14 0 L11 0 C8 -32 5 -33 -20 -48 L-5 -79 Z M85 -79 C126 -60 134 -45 141 18 L150 105 L87 105 L77 0 L101 0 C98 -32 95 -33 71 -48 L85 -79 Z " />
<glyph glyph-name="dagger" unicode="&#x2020;" horiz-adv-x="229" d="M34 489 L98 489 L32 -146 L88 -146 L154 489 L219 489 L225 544 L160 544 L182 756 L126 756 L104 544 L40 544 L34 489 Z " />
<glyph glyph-name="daggerdbl" unicode="&#x2021;" horiz-adv-x="228" d="M32 -146 L88 -146 L110 66 L174 66 L180 122 L116 122 L155 489 L219 489 L225 544 L160 544 L182 756 L126 756 L104 544 L40 544 L34 489 L98 489 L59 122 L-5 122 L-11 66 L54 66 L32 -146 Z " />
<glyph glyph-name="bullet" unicode="&#x2022;" horiz-adv-x="155" d="M22 229 L102 229 L118 379 L38 379 L22 229 Z " />
<glyph glyph-name="ellipsis" unicode="&#x2026;" horiz-adv-x="322" d="M-14 0 L50 0 L60 95 L-4 95 L-14 0 Z M92 0 L156 0 L165 95 L102 95 L92 0 Z M193 0 L257 0 L266 95 L203 95 L193 0 Z " />
<glyph glyph-name="perthousand" unicode="&#x2030;" horiz-adv-x="608" d="M87 289 C161 289 167 338 186 513 C194 583 198 631 198 663 C198 725 181 745 130 745 C55 745 50 698 32 522 C24 452 20 403 20 372 C20 309 36 289 87 289 L87 289 Z M90 337 C77 337 72 343 72 375 C72 402 75 446 83 519 C100 680 104 696 127 696 C140 696 146 690 146 658 C146 632 142 587 134 514 C117 353 113 337 90 337 L90 337 Z M302 -5 C377 -5 382 45 401 220 C409 290 413 338 413 370 C413 432 397 452 346 452 C271 452 266 406 247 229 C239 159 235 111 235 79 C235 17 252 -5 302 -5 L302 -5 Z M306 44 C293 44 287 50 287 82 C287 109 291 153 299 226 C316 387 320 403 342 403 C355 403 362 397 362 365 C362 339 357 294 349 221 C333 60 329 44 306 44 L306 44 Z M478 -5 C552 -5 557 45 576 220 C584 290 588 338 588 370 C588 432 571 452 521 452 C446 452 441 406 422 229 C414 159 410 111 410 79 C410 17 427 -5 478 -5 L478 -5 Z M481 44 C467 44 462 50 462 82 C462 109 466 153 474 226 C491 387 494 403 517 403 C530 403 537 397 537 365 C537 339 532 294 524 221 C508 60 504 44 481 44 L481 44 Z M83 0 L136 0 L349 741 L296 741 L83 0 Z " />
<glyph glyph-name="guilsinglleft" unicode="&#x2039;" horiz-adv-x="180" d="M50 0 L102 0 L78 275 L160 551 L107 551 L23 275 L50 0 Z " />
<glyph glyph-name="guilsinglright" unicode="&#x203a;" horiz-adv-x="180" d="M-1 0 L51 0 L135 275 L109 551 L57 551 L80 275 L-1 0 Z " />
<glyph glyph-name="&amp;#x2044;" unicode="&#x2044;" horiz-adv-x="209" d="M-40 0 L13 0 L248 741 L196 741 L-40 0 Z " />
<glyph glyph-name="&amp;#x2215;" unicode="&#x2215;" horiz-adv-x="209" d="M-40 0 L13 0 L248 741 L196 741 L-40 0 Z " />
<glyph glyph-name="Euro" unicode="&#x20ac;" horiz-adv-x="242" d="M14 391 L57 391 C57 386 56 382 56 377 C55 367 54 357 53 348 L9 348 L4 299 L47 299 C39 221 33 158 33 115 C33 31 53 -4 128 -4 C149 -4 169 1 181 5 L170 55 C162 53 146 50 133 50 C102 50 90 64 90 120 C90 156 94 207 104 299 L185 299 L190 348 L109 348 C110 356 111 363 112 372 C112 378 113 385 114 391 L195 391 L200 440 L119 440 C139 629 147 689 199 689 C214 689 229 687 239 684 L256 738 C246 741 225 745 199 745 C160 745 135 734 117 708 C89 670 81 620 62 440 L19 440 L14 391 Z " />
<glyph glyph-name="trademark" unicode="&#x2122;" horiz-adv-x="382" d="M43 267 L88 267 L133 699 L177 699 L181 741 L49 741 L45 699 L88 699 L43 267 Z M144 267 L183 267 L218 603 L218 267 L252 267 L321 602 L286 267 L329 267 L378 741 L321 741 L250 403 L250 741 L193 741 L144 267 Z " />
<glyph glyph-name="partialdiff" unicode="&#x2202;" horiz-adv-x="832" d="M126 120 C126 120 129 123 134 127 C79 193 46 278 46 371 C46 464 79 549 133 615 C129 619 126 621 126 621 C70 554 36 466 36 371 C36 275 70 187 126 120 L126 120 Z M228 211 C230 213 233 215 235 218 C201 259 181 313 181 371 C181 429 202 483 235 524 C232 526 230 529 227 531 C192 487 171 432 171 371 C171 310 193 254 228 211 L228 211 Z M264 243 C267 245 269 248 272 250 C245 283 229 325 229 371 C229 417 245 459 272 492 C269 494 267 497 264 499 C236 464 219 419 219 371 C219 322 236 278 264 243 L264 243 Z M316 289 C319 291 321 294 324 296 C308 317 298 343 298 371 C298 399 308 425 323 445 C321 448 318 450 316 452 C298 430 288 402 288 371 C288 340 298 312 316 289 L316 289 Z M349 320 C352 323 354 325 357 327 C348 340 343 355 343 371 C343 387 348 402 357 415 C354 417 352 420 349 422 C339 408 333 390 333 371 C333 352 339 334 349 320 L349 320 Z M378 346 C382 349 384 351 384 351 C381 357 379 364 379 371 C379 378 381 385 384 391 C384 391 382 393 378 396 C374 389 371 380 371 371 C371 362 374 353 378 346 L378 346 Z M416 60 C493 60 563 89 616 136 C614 139 611 141 609 144 C558 98 490 70 416 70 C342 70 274 98 222 144 C222 145 215 137 215 137 C268 89 338 60 416 60 L416 60 Z M416 324 C426 324 435 327 442 333 C439 337 437 339 437 339 C431 334 424 332 416 332 C408 332 401 335 395 339 C395 339 391 334 389 333 C397 327 406 324 416 324 L416 324 Z M482 319 C493 334 499 352 499 371 C499 390 493 408 482 422 C483 422 475 415 475 415 C484 403 489 388 489 371 C489 355 484 339 475 326 C478 324 480 322 482 319 L482 319 Z M292 269 C295 271 298 274 300 276 C280 302 267 335 267 371 C267 407 280 440 300 466 L293 473 C270 445 257 410 257 371 C257 333 270 297 292 269 L292 269 Z M416 -17 C512 -17 600 19 667 80 C667 80 660 88 660 87 C595 29 510 -7 416 -7 C322 -7 236 29 171 88 L164 80 C231 20 320 -17 416 -17 L416 -17 Z M416 121 C478 121 534 144 576 182 C574 185 571 187 569 190 C529 153 475 131 416 131 C357 131 303 153 262 190 L255 182 C298 144 354 121 416 121 L416 121 Z M416 170 C465 170 510 188 544 218 C542 221 539 223 537 226 C505 197 462 180 416 180 C369 180 327 197 294 226 L287 219 C322 189 367 170 416 170 L416 170 Z M416 209 C455 209 491 224 518 247 C516 250 514 253 512 255 C486 233 452 219 416 219 C380 219 346 233 320 255 L313 247 C341 224 377 209 416 209 L416 209 Z M416 265 C441 265 463 274 481 289 C479 292 476 294 474 297 C458 283 438 275 416 275 C394 275 373 283 357 297 L350 289 C368 274 391 265 416 265 L416 265 Z M358 445 C374 459 394 467 416 467 C438 467 458 459 474 445 L482 453 C464 468 441 477 416 477 C391 477 368 468 350 453 C351 452 354 448 358 445 L358 445 Z M570 552 C572 554 575 557 577 560 C534 598 478 621 416 621 C355 621 299 598 256 560 L263 553 C304 589 357 611 416 611 C475 611 529 589 570 552 L570 552 Z M454 346 C458 353 461 362 461 371 C461 380 458 389 454 396 L448 391 C451 385 453 378 453 371 C453 364 451 357 448 351 C448 351 450 349 454 346 L454 346 Z M468 333 C476 344 480 357 480 371 C480 385 476 398 468 409 L460 402 C466 393 470 382 470 371 C470 360 466 349 460 340 C463 338 465 336 468 333 L468 333 Z M498 306 C511 325 519 347 519 371 C519 395 511 418 497 436 L490 429 C502 413 509 393 509 371 C509 349 502 329 490 313 C492 311 495 308 498 306 L498 306 Z M540 269 C562 297 575 332 575 371 C575 410 562 445 539 473 L531 466 C552 440 565 407 565 371 C565 335 552 302 532 276 C535 274 537 271 540 269 L540 269 Z M568 243 C596 278 613 322 613 371 C613 420 596 464 568 499 L560 492 C587 459 603 417 603 371 C603 325 587 283 560 250 C563 248 566 245 568 243 L568 243 Z M604 211 C640 254 661 310 661 371 C661 432 640 488 604 531 L596 524 C631 483 651 429 651 371 C651 313 631 260 596 218 C601 213 604 211 604 211 L604 211 Z M649 171 C694 225 721 295 721 371 C721 447 694 517 649 571 L641 564 C685 512 711 445 711 371 C711 297 685 230 642 177 C644 175 647 173 649 171 L649 171 Z M706 120 C762 188 796 276 796 371 C796 467 762 555 706 622 L698 615 C753 549 786 464 786 371 C786 278 753 193 698 127 C703 123 706 120 706 120 L706 120 Z M183 170 L190 177 C147 229 121 297 121 371 C121 444 147 512 190 564 C187 567 184 569 182 571 C138 517 111 447 111 371 C111 294 138 225 183 170 L183 170 Z M334 306 L342 314 C330 330 323 350 323 371 C323 393 330 413 342 429 C340 431 337 434 334 436 C321 418 313 395 313 371 C313 346 321 324 334 306 L334 306 Z M364 333 L371 340 C366 349 362 360 362 371 C362 382 366 393 371 402 C369 404 366 406 364 409 C356 398 352 385 352 371 C352 357 356 344 364 333 L364 333 Z M395 403 C401 408 408 410 416 410 C424 410 431 407 437 403 C437 403 439 406 442 409 C435 415 426 418 416 418 C406 418 397 415 390 409 L395 403 Z M384 416 C393 423 404 428 416 428 C428 428 439 424 448 416 C450 419 452 421 454 423 C443 432 430 437 416 437 C401 437 388 432 377 423 L384 416 Z M371 430 C383 441 399 447 416 447 C433 447 449 441 461 430 C461 430 464 434 468 438 C454 450 436 457 416 457 C397 457 378 450 364 438 L371 430 Z M295 516 C327 545 370 562 416 562 C462 562 505 545 538 516 C538 516 545 523 544 523 C510 554 465 572 416 572 C367 572 322 554 288 524 L295 516 Z M416 240 C448 240 476 252 498 271 L491 278 C471 261 445 250 416 250 C388 250 361 261 340 278 L333 270 C355 251 384 240 416 240 L416 240 Z M416 285 C436 285 454 292 468 304 L461 312 C448 301 433 295 416 295 C399 295 383 302 370 312 L363 304 C378 292 396 285 416 285 L416 285 Z M416 305 C430 305 444 310 455 319 L448 326 C439 319 428 314 416 314 C404 314 393 319 383 326 L376 319 C388 310 401 305 416 305 L416 305 Z M341 464 C362 482 388 492 416 492 C445 492 471 481 491 464 L498 472 C476 491 447 502 416 502 C385 502 356 490 334 471 L341 464 Z M320 487 C346 509 380 523 416 523 C453 523 486 510 512 487 L518 494 C491 518 455 533 416 533 C377 533 341 519 313 495 L320 487 Z M610 597 L617 605 C563 653 493 682 416 682 C339 682 269 653 215 605 L222 598 C274 644 342 672 416 672 C491 672 559 644 610 597 L610 597 Z M172 654 C237 713 322 749 416 749 C510 749 596 713 661 654 L668 662 C601 722 512 759 416 759 C320 759 232 723 165 662 L172 654 Z M516 290 C534 312 544 340 544 371 C544 402 534 430 516 453 L508 446 C524 425 534 399 534 371 C534 343 524 317 509 297 L516 290 Z " />
<glyph glyph-name="product" unicode="&#x220f;" horiz-adv-x="832" d="M126 120 C126 120 129 123 134 127 C79 193 46 278 46 371 C46 464 79 549 133 615 C129 619 126 621 126 621 C70 554 36 466 36 371 C36 275 70 187 126 120 L126 120 Z M228 211 C230 213 233 215 235 218 C201 259 181 313 181 371 C181 429 202 483 235 524 C232 526 230 529 227 531 C192 487 171 432 171 371 C171 310 193 254 228 211 L228 211 Z M264 243 C267 245 269 248 272 250 C245 283 229 325 229 371 C229 417 245 459 272 492 C269 494 267 497 264 499 C236 464 219 419 219 371 C219 322 236 278 264 243 L264 243 Z M316 289 C319 291 321 294 324 296 C308 317 298 343 298 371 C298 399 308 425 323 445 C321 448 318 450 316 452 C298 430 288 402 288 371 C288 340 298 312 316 289 L316 289 Z M349 320 C352 323 354 325 357 327 C348 340 343 355 343 371 C343 387 348 402 357 415 C354 417 352 420 349 422 C339 408 333 390 333 371 C333 352 339 334 349 320 L349 320 Z M378 346 C382 349 384 351 384 351 C381 357 379 364 379 371 C379 378 381 385 384 391 C384 391 382 393 378 396 C374 389 371 380 371 371 C371 362 374 353 378 346 L378 346 Z M416 60 C493 60 563 89 616 136 C614 139 611 141 609 144 C558 98 490 70 416 70 C342 70 274 98 222 144 C222 145 215 137 215 137 C268 89 338 60 416 60 L416 60 Z M416 324 C426 324 435 327 442 333 C439 337 437 339 437 339 C431 334 424 332 416 332 C408 332 401 335 395 339 C395 339 391 334 389 333 C397 327 406 324 416 324 L416 324 Z M482 319 C493 334 499 352 499 371 C499 390 493 408 482 422 C483 422 475 415 475 415 C484 403 489 388 489 371 C489 355 484 339 475 326 C478 324 480 322 482 319 L482 319 Z M292 269 C295 271 298 274 300 276 C280 302 267 335 267 371 C267 407 280 440 300 466 L293 473 C270 445 257 410 257 371 C257 333 270 297 292 269 L292 269 Z M416 -17 C512 -17 600 19 667 80 C667 80 660 88 660 87 C595 29 510 -7 416 -7 C322 -7 236 29 171 88 L164 80 C231 20 320 -17 416 -17 L416 -17 Z M416 121 C478 121 534 144 576 182 C574 185 571 187 569 190 C529 153 475 131 416 131 C357 131 303 153 262 190 L255 182 C298 144 354 121 416 121 L416 121 Z M416 170 C465 170 510 188 544 218 C542 221 539 223 537 226 C505 197 462 180 416 180 C369 180 327 197 294 226 L287 219 C322 189 367 170 416 170 L416 170 Z M416 209 C455 209 491 224 518 247 C516 250 514 253 512 255 C486 233 452 219 416 219 C380 219 346 233 320 255 L313 247 C341 224 377 209 416 209 L416 209 Z M416 265 C441 265 463 274 481 289 C479 292 476 294 474 297 C458 283 438 275 416 275 C394 275 373 283 357 297 L350 289 C368 274 391 265 416 265 L416 265 Z M358 445 C374 459 394 467 416 467 C438 467 458 459 474 445 L482 453 C464 468 441 477 416 477 C391 477 368 468 350 453 C351 452 354 448 358 445 L358 445 Z M570 552 C572 554 575 557 577 560 C534 598 478 621 416 621 C355 621 299 598 256 560 L263 553 C304 589 357 611 416 611 C475 611 529 589 570 552 L570 552 Z M454 346 C458 353 461 362 461 371 C461 380 458 389 454 396 L448 391 C451 385 453 378 453 371 C453 364 451 357 448 351 C448 351 450 349 454 346 L454 346 Z M468 333 C476 344 480 357 480 371 C480 385 476 398 468 409 L460 402 C466 393 470 382 470 371 C470 360 466 349 460 340 C463 338 465 336 468 333 L468 333 Z M498 306 C511 325 519 347 519 371 C519 395 511 418 497 436 L490 429 C502 413 509 393 509 371 C509 349 502 329 490 313 C492 311 495 308 498 306 L498 306 Z M540 269 C562 297 575 332 575 371 C575 410 562 445 539 473 L531 466 C552 440 565 407 565 371 C565 335 552 302 532 276 C535 274 537 271 540 269 L540 269 Z M568 243 C596 278 613 322 613 371 C613 420 596 464 568 499 L560 492 C587 459 603 417 603 371 C603 325 587 283 560 250 C563 248 566 245 568 243 L568 243 Z M604 211 C640 254 661 310 661 371 C661 432 640 488 604 531 L596 524 C631 483 651 429 651 371 C651 313 631 260 596 218 C601 213 604 211 604 211 L604 211 Z M649 171 C694 225 721 295 721 371 C721 447 694 517 649 571 L641 564 C685 512 711 445 711 371 C711 297 685 230 642 177 C644 175 647 173 649 171 L649 171 Z M706 120 C762 188 796 276 796 371 C796 467 762 555 706 622 L698 615 C753 549 786 464 786 371 C786 278 753 193 698 127 C703 123 706 120 706 120 L706 120 Z M183 170 L190 177 C147 229 121 297 121 371 C121 444 147 512 190 564 C187 567 184 569 182 571 C138 517 111 447 111 371 C111 294 138 225 183 170 L183 170 Z M334 306 L342 314 C330 330 323 350 323 371 C323 393 330 413 342 429 C340 431 337 434 334 436 C321 418 313 395 313 371 C313 346 321 324 334 306 L334 306 Z M364 333 L371 340 C366 349 362 360 362 371 C362 382 366 393 371 402 C369 404 366 406 364 409 C356 398 352 385 352 371 C352 357 356 344 364 333 L364 333 Z M395 403 C401 408 408 410 416 410 C424 410 431 407 437 403 C437 403 439 406 442 409 C435 415 426 418 416 418 C406 418 397 415 390 409 L395 403 Z M384 416 C393 423 404 428 416 428 C428 428 439 424 448 416 C450 419 452 421 454 423 C443 432 430 437 416 437 C401 437 388 432 377 423 L384 416 Z M371 430 C383 441 399 447 416 447 C433 447 449 441 461 430 C461 430 464 434 468 438 C454 450 436 457 416 457 C397 457 378 450 364 438 L371 430 Z M295 516 C327 545 370 562 416 562 C462 562 505 545 538 516 C538 516 545 523 544 523 C510 554 465 572 416 572 C367 572 322 554 288 524 L295 516 Z M416 240 C448 240 476 252 498 271 L491 278 C471 261 445 250 416 250 C388 250 361 261 340 278 L333 270 C355 251 384 240 416 240 L416 240 Z M416 285 C436 285 454 292 468 304 L461 312 C448 301 433 295 416 295 C399 295 383 302 370 312 L363 304 C378 292 396 285 416 285 L416 285 Z M416 305 C430 305 444 310 455 319 L448 326 C439 319 428 314 416 314 C404 314 393 319 383 326 L376 319 C388 310 401 305 416 305 L416 305 Z M341 464 C362 482 388 492 416 492 C445 492 471 481 491 464 L498 472 C476 491 447 502 416 502 C385 502 356 490 334 471 L341 464 Z M320 487 C346 509 380 523 416 523 C453 523 486 510 512 487 L518 494 C491 518 455 533 416 533 C377 533 341 519 313 495 L320 487 Z M610 597 L617 605 C563 653 493 682 416 682 C339 682 269 653 215 605 L222 598 C274 644 342 672 416 672 C491 672 559 644 610 597 L610 597 Z M172 654 C237 713 322 749 416 749 C510 749 596 713 661 654 L668 662 C601 722 512 759 416 759 C320 759 232 723 165 662 L172 654 Z M516 290 C534 312 544 340 544 371 C544 402 534 430 516 453 L508 446 C524 425 534 399 534 371 C534 343 524 317 509 297 L516 290 Z " />
<glyph glyph-name="summation" unicode="&#x2211;" horiz-adv-x="832" d="M126 120 C126 120 129 123 134 127 C79 193 46 278 46 371 C46 464 79 549 133 615 C129 619 126 621 126 621 C70 554 36 466 36 371 C36 275 70 187 126 120 L126 120 Z M228 211 C230 213 233 215 235 218 C201 259 181 313 181 371 C181 429 202 483 235 524 C232 526 230 529 227 531 C192 487 171 432 171 371 C171 310 193 254 228 211 L228 211 Z M264 243 C267 245 269 248 272 250 C245 283 229 325 229 371 C229 417 245 459 272 492 C269 494 267 497 264 499 C236 464 219 419 219 371 C219 322 236 278 264 243 L264 243 Z M316 289 C319 291 321 294 324 296 C308 317 298 343 298 371 C298 399 308 425 323 445 C321 448 318 450 316 452 C298 430 288 402 288 371 C288 340 298 312 316 289 L316 289 Z M349 320 C352 323 354 325 357 327 C348 340 343 355 343 371 C343 387 348 402 357 415 C354 417 352 420 349 422 C339 408 333 390 333 371 C333 352 339 334 349 320 L349 320 Z M378 346 C382 349 384 351 384 351 C381 357 379 364 379 371 C379 378 381 385 384 391 C384 391 382 393 378 396 C374 389 371 380 371 371 C371 362 374 353 378 346 L378 346 Z M416 60 C493 60 563 89 616 136 C614 139 611 141 609 144 C558 98 490 70 416 70 C342 70 274 98 222 144 C222 145 215 137 215 137 C268 89 338 60 416 60 L416 60 Z M416 324 C426 324 435 327 442 333 C439 337 437 339 437 339 C431 334 424 332 416 332 C408 332 401 335 395 339 C395 339 391 334 389 333 C397 327 406 324 416 324 L416 324 Z M482 319 C493 334 499 352 499 371 C499 390 493 408 482 422 C483 422 475 415 475 415 C484 403 489 388 489 371 C489 355 484 339 475 326 C478 324 480 322 482 319 L482 319 Z M292 269 C295 271 298 274 300 276 C280 302 267 335 267 371 C267 407 280 440 300 466 L293 473 C270 445 257 410 257 371 C257 333 270 297 292 269 L292 269 Z M416 -17 C512 -17 600 19 667 80 C667 80 660 88 660 87 C595 29 510 -7 416 -7 C322 -7 236 29 171 88 L164 80 C231 20 320 -17 416 -17 L416 -17 Z M416 121 C478 121 534 144 576 182 C574 185 571 187 569 190 C529 153 475 131 416 131 C357 131 303 153 262 190 L255 182 C298 144 354 121 416 121 L416 121 Z M416 170 C465 170 510 188 544 218 C542 221 539 223 537 226 C505 197 462 180 416 180 C369 180 327 197 294 226 L287 219 C322 189 367 170 416 170 L416 170 Z M416 209 C455 209 491 224 518 247 C516 250 514 253 512 255 C486 233 452 219 416 219 C380 219 346 233 320 255 L313 247 C341 224 377 209 416 209 L416 209 Z M416 265 C441 265 463 274 481 289 C479 292 476 294 474 297 C458 283 438 275 416 275 C394 275 373 283 357 297 L350 289 C368 274 391 265 416 265 L416 265 Z M358 445 C374 459 394 467 416 467 C438 467 458 459 474 445 L482 453 C464 468 441 477 416 477 C391 477 368 468 350 453 C351 452 354 448 358 445 L358 445 Z M570 552 C572 554 575 557 577 560 C534 598 478 621 416 621 C355 621 299 598 256 560 L263 553 C304 589 357 611 416 611 C475 611 529 589 570 552 L570 552 Z M454 346 C458 353 461 362 461 371 C461 380 458 389 454 396 L448 391 C451 385 453 378 453 371 C453 364 451 357 448 351 C448 351 450 349 454 346 L454 346 Z M468 333 C476 344 480 357 480 371 C480 385 476 398 468 409 L460 402 C466 393 470 382 470 371 C470 360 466 349 460 340 C463 338 465 336 468 333 L468 333 Z M498 306 C511 325 519 347 519 371 C519 395 511 418 497 436 L490 429 C502 413 509 393 509 371 C509 349 502 329 490 313 C492 311 495 308 498 306 L498 306 Z M540 269 C562 297 575 332 575 371 C575 410 562 445 539 473 L531 466 C552 440 565 407 565 371 C565 335 552 302 532 276 C535 274 537 271 540 269 L540 269 Z M568 243 C596 278 613 322 613 371 C613 420 596 464 568 499 L560 492 C587 459 603 417 603 371 C603 325 587 283 560 250 C563 248 566 245 568 243 L568 243 Z M604 211 C640 254 661 310 661 371 C661 432 640 488 604 531 L596 524 C631 483 651 429 651 371 C651 313 631 260 596 218 C601 213 604 211 604 211 L604 211 Z M649 171 C694 225 721 295 721 371 C721 447 694 517 649 571 L641 564 C685 512 711 445 711 371 C711 297 685 230 642 177 C644 175 647 173 649 171 L649 171 Z M706 120 C762 188 796 276 796 371 C796 467 762 555 706 622 L698 615 C753 549 786 464 786 371 C786 278 753 193 698 127 C703 123 706 120 706 120 L706 120 Z M183 170 L190 177 C147 229 121 297 121 371 C121 444 147 512 190 564 C187 567 184 569 182 571 C138 517 111 447 111 371 C111 294 138 225 183 170 L183 170 Z M334 306 L342 314 C330 330 323 350 323 371 C323 393 330 413 342 429 C340 431 337 434 334 436 C321 418 313 395 313 371 C313 346 321 324 334 306 L334 306 Z M364 333 L371 340 C366 349 362 360 362 371 C362 382 366 393 371 402 C369 404 366 406 364 409 C356 398 352 385 352 371 C352 357 356 344 364 333 L364 333 Z M395 403 C401 408 408 410 416 410 C424 410 431 407 437 403 C437 403 439 406 442 409 C435 415 426 418 416 418 C406 418 397 415 390 409 L395 403 Z M384 416 C393 423 404 428 416 428 C428 428 439 424 448 416 C450 419 452 421 454 423 C443 432 430 437 416 437 C401 437 388 432 377 423 L384 416 Z M371 430 C383 441 399 447 416 447 C433 447 449 441 461 430 C461 430 464 434 468 438 C454 450 436 457 416 457 C397 457 378 450 364 438 L371 430 Z M295 516 C327 545 370 562 416 562 C462 562 505 545 538 516 C538 516 545 523 544 523 C510 554 465 572 416 572 C367 572 322 554 288 524 L295 516 Z M416 240 C448 240 476 252 498 271 L491 278 C471 261 445 250 416 250 C388 250 361 261 340 278 L333 270 C355 251 384 240 416 240 L416 240 Z M416 285 C436 285 454 292 468 304 L461 312 C448 301 433 295 416 295 C399 295 383 302 370 312 L363 304 C378 292 396 285 416 285 L416 285 Z M416 305 C430 305 444 310 455 319 L448 326 C439 319 428 314 416 314 C404 314 393 319 383 326 L376 319 C388 310 401 305 416 305 L416 305 Z M341 464 C362 482 388 492 416 492 C445 492 471 481 491 464 L498 472 C476 491 447 502 416 502 C385 502 356 490 334 471 L341 464 Z M320 487 C346 509 380 523 416 523 C453 523 486 510 512 487 L518 494 C491 518 455 533 416 533 C377 533 341 519 313 495 L320 487 Z M610 597 L617 605 C563 653 493 682 416 682 C339 682 269 653 215 605 L222 598 C274 644 342 672 416 672 C491 672 559 644 610 597 L610 597 Z M172 654 C237 713 322 749 416 749 C510 749 596 713 661 654 L668 662 C601 722 512 759 416 759 C320 759 232 723 165 662 L172 654 Z M516 290 C534 312 544 340 544 371 C544 402 534 430 516 453 L508 446 C524 425 534 399 534 371 C534 343 524 317 509 297 L516 290 Z " />
<glyph glyph-name="minus" unicode="&#x2212;" horiz-adv-x="262" d="M36 337 L219 337 L225 392 L41 392 L36 337 Z " />
<glyph glyph-name="radical" unicode="&#x221a;" horiz-adv-x="240" d="M36 -3 L95 -3 L271 741 L217 741 L78 113 L79 410 L22 410 L36 -3 Z " />
<glyph glyph-name="infinity" unicode="&#x221e;" horiz-adv-x="395" d="M124 -145 L180 -145 L247 498 L290 498 L295 551 L253 551 L263 648 C268 687 275 701 309 701 L311 701 L317 756 C314 757 309 757 306 757 C237 757 216 729 208 653 L197 551 L123 551 L133 648 C138 687 144 701 178 701 L181 701 L186 756 C184 757 178 757 175 757 C107 757 85 729 78 653 L67 551 L28 551 L23 498 L61 498 L-6 -145 L50 -145 L117 498 L191 498 L124 -145 Z M270 0 L327 0 L384 551 L328 551 L270 0 Z M336 624 L392 624 L403 722 L346 722 L336 624 Z " />
<glyph glyph-name="integral" unicode="&#x222b;" horiz-adv-x="832" d="M126 120 C126 120 129 123 134 127 C79 193 46 278 46 371 C46 464 79 549 133 615 C129 619 126 621 126 621 C70 554 36 466 36 371 C36 275 70 187 126 120 L126 120 Z M228 211 C230 213 233 215 235 218 C201 259 181 313 181 371 C181 429 202 483 235 524 C232 526 230 529 227 531 C192 487 171 432 171 371 C171 310 193 254 228 211 L228 211 Z M264 243 C267 245 269 248 272 250 C245 283 229 325 229 371 C229 417 245 459 272 492 C269 494 267 497 264 499 C236 464 219 419 219 371 C219 322 236 278 264 243 L264 243 Z M316 289 C319 291 321 294 324 296 C308 317 298 343 298 371 C298 399 308 425 323 445 C321 448 318 450 316 452 C298 430 288 402 288 371 C288 340 298 312 316 289 L316 289 Z M349 320 C352 323 354 325 357 327 C348 340 343 355 343 371 C343 387 348 402 357 415 C354 417 352 420 349 422 C339 408 333 390 333 371 C333 352 339 334 349 320 L349 320 Z M378 346 C382 349 384 351 384 351 C381 357 379 364 379 371 C379 378 381 385 384 391 C384 391 382 393 378 396 C374 389 371 380 371 371 C371 362 374 353 378 346 L378 346 Z M416 60 C493 60 563 89 616 136 C614 139 611 141 609 144 C558 98 490 70 416 70 C342 70 274 98 222 144 C222 145 215 137 215 137 C268 89 338 60 416 60 L416 60 Z M416 324 C426 324 435 327 442 333 C439 337 437 339 437 339 C431 334 424 332 416 332 C408 332 401 335 395 339 C395 339 391 334 389 333 C397 327 406 324 416 324 L416 324 Z M482 319 C493 334 499 352 499 371 C499 390 493 408 482 422 C483 422 475 415 475 415 C484 403 489 388 489 371 C489 355 484 339 475 326 C478 324 480 322 482 319 L482 319 Z M292 269 C295 271 298 274 300 276 C280 302 267 335 267 371 C267 407 280 440 300 466 L293 473 C270 445 257 410 257 371 C257 333 270 297 292 269 L292 269 Z M416 -17 C512 -17 600 19 667 80 C667 80 660 88 660 87 C595 29 510 -7 416 -7 C322 -7 236 29 171 88 L164 80 C231 20 320 -17 416 -17 L416 -17 Z M416 121 C478 121 534 144 576 182 C574 185 571 187 569 190 C529 153 475 131 416 131 C357 131 303 153 262 190 L255 182 C298 144 354 121 416 121 L416 121 Z M416 170 C465 170 510 188 544 218 C542 221 539 223 537 226 C505 197 462 180 416 180 C369 180 327 197 294 226 L287 219 C322 189 367 170 416 170 L416 170 Z M416 209 C455 209 491 224 518 247 C516 250 514 253 512 255 C486 233 452 219 416 219 C380 219 346 233 320 255 L313 247 C341 224 377 209 416 209 L416 209 Z M416 265 C441 265 463 274 481 289 C479 292 476 294 474 297 C458 283 438 275 416 275 C394 275 373 283 357 297 L350 289 C368 274 391 265 416 265 L416 265 Z M358 445 C374 459 394 467 416 467 C438 467 458 459 474 445 L482 453 C464 468 441 477 416 477 C391 477 368 468 350 453 C351 452 354 448 358 445 L358 445 Z M570 552 C572 554 575 557 577 560 C534 598 478 621 416 621 C355 621 299 598 256 560 L263 553 C304 589 357 611 416 611 C475 611 529 589 570 552 L570 552 Z M454 346 C458 353 461 362 461 371 C461 380 458 389 454 396 L448 391 C451 385 453 378 453 371 C453 364 451 357 448 351 C448 351 450 349 454 346 L454 346 Z M468 333 C476 344 480 357 480 371 C480 385 476 398 468 409 L460 402 C466 393 470 382 470 371 C470 360 466 349 460 340 C463 338 465 336 468 333 L468 333 Z M498 306 C511 325 519 347 519 371 C519 395 511 418 497 436 L490 429 C502 413 509 393 509 371 C509 349 502 329 490 313 C492 311 495 308 498 306 L498 306 Z M540 269 C562 297 575 332 575 371 C575 410 562 445 539 473 L531 466 C552 440 565 407 565 371 C565 335 552 302 532 276 C535 274 537 271 540 269 L540 269 Z M568 243 C596 278 613 322 613 371 C613 420 596 464 568 499 L560 492 C587 459 603 417 603 371 C603 325 587 283 560 250 C563 248 566 245 568 243 L568 243 Z M604 211 C640 254 661 310 661 371 C661 432 640 488 604 531 L596 524 C631 483 651 429 651 371 C651 313 631 260 596 218 C601 213 604 211 604 211 L604 211 Z M649 171 C694 225 721 295 721 371 C721 447 694 517 649 571 L641 564 C685 512 711 445 711 371 C711 297 685 230 642 177 C644 175 647 173 649 171 L649 171 Z M706 120 C762 188 796 276 796 371 C796 467 762 555 706 622 L698 615 C753 549 786 464 786 371 C786 278 753 193 698 127 C703 123 706 120 706 120 L706 120 Z M183 170 L190 177 C147 229 121 297 121 371 C121 444 147 512 190 564 C187 567 184 569 182 571 C138 517 111 447 111 371 C111 294 138 225 183 170 L183 170 Z M334 306 L342 314 C330 330 323 350 323 371 C323 393 330 413 342 429 C340 431 337 434 334 436 C321 418 313 395 313 371 C313 346 321 324 334 306 L334 306 Z M364 333 L371 340 C366 349 362 360 362 371 C362 382 366 393 371 402 C369 404 366 406 364 409 C356 398 352 385 352 371 C352 357 356 344 364 333 L364 333 Z M395 403 C401 408 408 410 416 410 C424 410 431 407 437 403 C437 403 439 406 442 409 C435 415 426 418 416 418 C406 418 397 415 390 409 L395 403 Z M384 416 C393 423 404 428 416 428 C428 428 439 424 448 416 C450 419 452 421 454 423 C443 432 430 437 416 437 C401 437 388 432 377 423 L384 416 Z M371 430 C383 441 399 447 416 447 C433 447 449 441 461 430 C461 430 464 434 468 438 C454 450 436 457 416 457 C397 457 378 450 364 438 L371 430 Z M295 516 C327 545 370 562 416 562 C462 562 505 545 538 516 C538 516 545 523 544 523 C510 554 465 572 416 572 C367 572 322 554 288 524 L295 516 Z M416 240 C448 240 476 252 498 271 L491 278 C471 261 445 250 416 250 C388 250 361 261 340 278 L333 270 C355 251 384 240 416 240 L416 240 Z M416 285 C436 285 454 292 468 304 L461 312 C448 301 433 295 416 295 C399 295 383 302 370 312 L363 304 C378 292 396 285 416 285 L416 285 Z M416 305 C430 305 444 310 455 319 L448 326 C439 319 428 314 416 314 C404 314 393 319 383 326 L376 319 C388 310 401 305 416 305 L416 305 Z M341 464 C362 482 388 492 416 492 C445 492 471 481 491 464 L498 472 C476 491 447 502 416 502 C385 502 356 490 334 471 L341 464 Z M320 487 C346 509 380 523 416 523 C453 523 486 510 512 487 L518 494 C491 518 455 533 416 533 C377 533 341 519 313 495 L320 487 Z M610 597 L617 605 C563 653 493 682 416 682 C339 682 269 653 215 605 L222 598 C274 644 342 672 416 672 C491 672 559 644 610 597 L610 597 Z M172 654 C237 713 322 749 416 749 C510 749 596 713 661 654 L668 662 C601 722 512 759 416 759 C320 759 232 723 165 662 L172 654 Z M516 290 C534 312 544 340 544 371 C544 402 534 430 516 453 L508 446 C524 425 534 399 534 371 C534 343 524 317 509 297 L516 290 Z " />
<glyph glyph-name="approxequal" unicode="&#x2248;" horiz-adv-x="262" d="M33 369 L77 369 C80 390 84 395 92 395 C106 395 148 370 174 370 C202 370 219 380 224 444 L181 444 C179 423 176 419 167 419 C153 419 110 444 85 444 C60 444 40 434 33 369 L33 369 Z M33 260 L77 260 C80 281 84 286 91 286 C105 286 148 261 173 261 C201 261 219 271 224 335 L180 335 C178 314 176 309 167 309 C153 309 110 335 85 335 C60 335 39 324 33 260 L33 260 Z " />
<glyph glyph-name="notequal" unicode="&#x2260;" horiz-adv-x="289" d="M123 -145 L180 -145 L247 498 L298 498 L303 551 L253 551 L263 648 C267 687 273 701 310 701 L319 701 L324 756 C321 757 312 757 310 757 C238 757 215 729 207 653 L196 551 L122 551 L132 648 C137 687 143 701 177 701 L180 701 L186 756 C183 757 177 757 175 757 C106 757 85 729 77 653 L66 551 L27 551 L22 498 L60 498 L-8 -145 L49 -145 L116 498 L190 498 L123 -145 Z " />
<glyph glyph-name="lessequal" unicode="&#x2264;" horiz-adv-x="262" d="M183 190 L190 258 L94 363 L212 469 L220 536 L41 386 L37 340 L183 190 Z M12 109 L174 109 L181 164 L18 164 L12 109 Z " />
<glyph glyph-name="greaterequal" unicode="&#x2265;" horiz-adv-x="262" d="M40 190 L218 340 L223 386 L77 536 L69 469 L166 363 L47 257 L40 190 Z M31 109 L194 109 L200 164 L38 164 L31 109 Z " />
<glyph glyph-name="lozenge" unicode="&#x25ca;" horiz-adv-x="294" d="M-8 -145 L49 -145 L117 498 L189 498 L146 96 C139 32 152 -1 222 -1 C226 -1 238 -1 242 0 L247 55 L234 55 C203 55 199 65 203 100 L245 498 L295 498 L300 551 L250 551 L267 706 L216 689 L196 551 L122 551 L132 648 C137 687 143 701 177 701 L180 701 L186 756 C184 757 177 757 175 757 C106 757 85 729 77 653 L66 551 L27 551 L22 498 L61 498 L-8 -145 Z " />
<glyph glyph-name="apple" unicode="&#xf8ff;" horiz-adv-x="832" d="M126 120 C126 120 129 123 134 127 C79 193 46 278 46 371 C46 464 79 549 133 615 C129 619 126 621 126 621 C70 554 36 466 36 371 C36 275 70 187 126 120 L126 120 Z M228 211 C230 213 233 215 235 218 C201 259 181 313 181 371 C181 429 202 483 235 524 C232 526 230 529 227 531 C192 487 171 432 171 371 C171 310 193 254 228 211 L228 211 Z M264 243 C267 245 269 248 272 250 C245 283 229 325 229 371 C229 417 245 459 272 492 C269 494 267 497 264 499 C236 464 219 419 219 371 C219 322 236 278 264 243 L264 243 Z M316 289 C319 291 321 294 324 296 C308 317 298 343 298 371 C298 399 308 425 323 445 C321 448 318 450 316 452 C298 430 288 402 288 371 C288 340 298 312 316 289 L316 289 Z M349 320 C352 323 354 325 357 327 C348 340 343 355 343 371 C343 387 348 402 357 415 C354 417 352 420 349 422 C339 408 333 390 333 371 C333 352 339 334 349 320 L349 320 Z M378 346 C382 349 384 351 384 351 C381 357 379 364 379 371 C379 378 381 385 384 391 C384 391 382 393 378 396 C374 389 371 380 371 371 C371 362 374 353 378 346 L378 346 Z M416 60 C493 60 563 89 616 136 C614 139 611 141 609 144 C558 98 490 70 416 70 C342 70 274 98 222 144 C222 145 215 137 215 137 C268 89 338 60 416 60 L416 60 Z M416 324 C426 324 435 327 442 333 C439 337 437 339 437 339 C431 334 424 332 416 332 C408 332 401 335 395 339 C395 339 391 334 389 333 C397 327 406 324 416 324 L416 324 Z M482 319 C493 334 499 352 499 371 C499 390 493 408 482 422 C483 422 475 415 475 415 C484 403 489 388 489 371 C489 355 484 339 475 326 C478 324 480 322 482 319 L482 319 Z M292 269 C295 271 298 274 300 276 C280 302 267 335 267 371 C267 407 280 440 300 466 L293 473 C270 445 257 410 257 371 C257 333 270 297 292 269 L292 269 Z M416 -17 C512 -17 600 19 667 80 C667 80 660 88 660 87 C595 29 510 -7 416 -7 C322 -7 236 29 171 88 L164 80 C231 20 320 -17 416 -17 L416 -17 Z M416 121 C478 121 534 144 576 182 C574 185 571 187 569 190 C529 153 475 131 416 131 C357 131 303 153 262 190 L255 182 C298 144 354 121 416 121 L416 121 Z M416 170 C465 170 510 188 544 218 C542 221 539 223 537 226 C505 197 462 180 416 180 C369 180 327 197 294 226 L287 219 C322 189 367 170 416 170 L416 170 Z M416 209 C455 209 491 224 518 247 C516 250 514 253 512 255 C486 233 452 219 416 219 C380 219 346 233 320 255 L313 247 C341 224 377 209 416 209 L416 209 Z M416 265 C441 265 463 274 481 289 C479 292 476 294 474 297 C458 283 438 275 416 275 C394 275 373 283 357 297 L350 289 C368 274 391 265 416 265 L416 265 Z M358 445 C374 459 394 467 416 467 C438 467 458 459 474 445 L482 453 C464 468 441 477 416 477 C391 477 368 468 350 453 C351 452 354 448 358 445 L358 445 Z M570 552 C572 554 575 557 577 560 C534 598 478 621 416 621 C355 621 299 598 256 560 L263 553 C304 589 357 611 416 611 C475 611 529 589 570 552 L570 552 Z M454 346 C458 353 461 362 461 371 C461 380 458 389 454 396 L448 391 C451 385 453 378 453 371 C453 364 451 357 448 351 C448 351 450 349 454 346 L454 346 Z M468 333 C476 344 480 357 480 371 C480 385 476 398 468 409 L460 402 C466 393 470 382 470 371 C470 360 466 349 460 340 C463 338 465 336 468 333 L468 333 Z M498 306 C511 325 519 347 519 371 C519 395 511 418 497 436 L490 429 C502 413 509 393 509 371 C509 349 502 329 490 313 C492 311 495 308 498 306 L498 306 Z M540 269 C562 297 575 332 575 371 C575 410 562 445 539 473 L531 466 C552 440 565 407 565 371 C565 335 552 302 532 276 C535 274 537 271 540 269 L540 269 Z M568 243 C596 278 613 322 613 371 C613 420 596 464 568 499 L560 492 C587 459 603 417 603 371 C603 325 587 283 560 250 C563 248 566 245 568 243 L568 243 Z M604 211 C640 254 661 310 661 371 C661 432 640 488 604 531 L596 524 C631 483 651 429 651 371 C651 313 631 260 596 218 C601 213 604 211 604 211 L604 211 Z M649 171 C694 225 721 295 721 371 C721 447 694 517 649 571 L641 564 C685 512 711 445 711 371 C711 297 685 230 642 177 C644 175 647 173 649 171 L649 171 Z M706 120 C762 188 796 276 796 371 C796 467 762 555 706 622 L698 615 C753 549 786 464 786 371 C786 278 753 193 698 127 C703 123 706 120 706 120 L706 120 Z M183 170 L190 177 C147 229 121 297 121 371 C121 444 147 512 190 564 C187 567 184 569 182 571 C138 517 111 447 111 371 C111 294 138 225 183 170 L183 170 Z M334 306 L342 314 C330 330 323 350 323 371 C323 393 330 413 342 429 C340 431 337 434 334 436 C321 418 313 395 313 371 C313 346 321 324 334 306 L334 306 Z M364 333 L371 340 C366 349 362 360 362 371 C362 382 366 393 371 402 C369 404 366 406 364 409 C356 398 352 385 352 371 C352 357 356 344 364 333 L364 333 Z M395 403 C401 408 408 410 416 410 C424 410 431 407 437 403 C437 403 439 406 442 409 C435 415 426 418 416 418 C406 418 397 415 390 409 L395 403 Z M384 416 C393 423 404 428 416 428 C428 428 439 424 448 416 C450 419 452 421 454 423 C443 432 430 437 416 437 C401 437 388 432 377 423 L384 416 Z M371 430 C383 441 399 447 416 447 C433 447 449 441 461 430 C461 430 464 434 468 438 C454 450 436 457 416 457 C397 457 378 450 364 438 L371 430 Z M295 516 C327 545 370 562 416 562 C462 562 505 545 538 516 C538 516 545 523 544 523 C510 554 465 572 416 572 C367 572 322 554 288 524 L295 516 Z M416 240 C448 240 476 252 498 271 L491 278 C471 261 445 250 416 250 C388 250 361 261 340 278 L333 270 C355 251 384 240 416 240 L416 240 Z M416 285 C436 285 454 292 468 304 L461 312 C448 301 433 295 416 295 C399 295 383 302 370 312 L363 304 C378 292 396 285 416 285 L416 285 Z M416 305 C430 305 444 310 455 319 L448 326 C439 319 428 314 416 314 C404 314 393 319 383 326 L376 319 C388 310 401 305 416 305 L416 305 Z M341 464 C362 482 388 492 416 492 C445 492 471 481 491 464 L498 472 C476 491 447 502 416 502 C385 502 356 490 334 471 L341 464 Z M320 487 C346 509 380 523 416 523 C453 523 486 510 512 487 L518 494 C491 518 455 533 416 533 C377 533 341 519 313 495 L320 487 Z M610 597 L617 605 C563 653 493 682 416 682 C339 682 269 653 215 605 L222 598 C274 644 342 672 416 672 C491 672 559 644 610 597 L610 597 Z M172 654 C237 713 322 749 416 749 C510 749 596 713 661 654 L668 662 C601 722 512 759 416 759 C320 759 232 723 165 662 L172 654 Z M516 290 C534 312 544 340 544 371 C544 402 534 430 516 453 L508 446 C524 425 534 399 534 371 C534 343 524 317 509 297 L516 290 Z " />
<glyph glyph-name="fi" unicode="&#xfb01;" horiz-adv-x="265" d="M23 498 L61 498 L-6 -145 L50 -145 L117 498 L160 498 L165 551 L123 551 L133 648 C138 687 144 701 178 701 L181 701 L186 756 C184 757 178 757 175 757 C107 757 85 729 78 653 L67 551 L28 551 L23 498 Z M140 0 L196 0 L254 551 L197 551 L140 0 Z M205 624 L262 624 L272 720 L216 720 L205 624 Z " />
<glyph glyph-name="fl" unicode="&#xfb02;" horiz-adv-x="282" d="M23 498 L61 498 L-6 -145 L50 -145 L117 498 L160 498 L165 551 L123 551 L133 648 C138 687 144 701 178 701 L181 701 L186 756 C184 757 178 757 175 757 C107 757 85 729 78 653 L67 551 L28 551 L23 498 Z M208 -1 C211 -1 224 -1 227 0 L232 55 L224 55 C205 55 203 61 206 92 L275 756 L219 756 L149 91 C143 31 150 -1 208 -1 L208 -1 Z " />
</font>
</svg>
