<?xml version="1.0" encoding="UTF-8"?>
<svg xmlns="http://www.w3.org/2000/svg" xmlns:xlink="http://www.w3.org/1999/xlink" version="1.2" >
<font id="AntennaExtraCond BoldItalic">
<font-face  font-family="AntennaExtraCond" units-per-em="1000" ascent="800" descent="-200" font-style="italic" font-weight="700" font-stretch="normal" slope="-8" cap-height="741" x-height="566" underline-position="-75" underline-thickness="50" />
<missing-glyph  horiz-adv-x="129" d="" />
<glyph glyph-name="NULL" d="" />
<glyph glyph-name="CR" unicode="&#xd;" horiz-adv-x="250" d="" />
<glyph glyph-name="&amp;#x20;" unicode="&#x20;" horiz-adv-x="129" d="" />
<glyph glyph-name="&amp;#xa0;" unicode="&#xa0;" horiz-adv-x="129" d="" />
<glyph glyph-name="exclam" unicode="&#x21;" horiz-adv-x="285" d="M14 0 L166 0 L190 167 L37 167 L14 0 Z M60 225 L184 225 L268 741 L121 741 L60 225 Z " />
<glyph glyph-name="quotedbl" unicode="&#x22;" horiz-adv-x="433" d="M69 417 L195 417 L246 741 L107 741 L69 417 Z M253 417 L379 417 L432 741 L291 741 L253 417 Z " />
<glyph glyph-name="numbersign" unicode="&#x23;" horiz-adv-x="519" d="M54 0 L179 0 L205 190 L258 190 L232 0 L357 0 L383 190 L466 190 L484 319 L401 319 L412 394 L495 394 L513 523 L430 523 L461 741 L336 741 L305 523 L252 523 L283 741 L158 741 L127 523 L53 523 L35 394 L109 394 L98 319 L24 319 L6 190 L80 190 L54 0 Z M215 309 L228 404 L296 404 L282 309 L215 309 Z " />
<glyph glyph-name="dollar" unicode="&#x24;" horiz-adv-x="426" d="M87 -93 L217 -93 L231 6 C329 31 376 113 376 212 C376 288 335 334 269 417 C209 492 192 515 192 545 C192 594 223 619 265 619 C312 619 351 607 374 595 L438 714 C409 727 377 737 334 741 L345 819 L215 819 L203 739 C102 715 55 628 55 533 C55 459 95 415 152 342 C223 253 241 229 241 200 C241 144 208 119 159 119 C100 119 48 140 22 155 L-37 42 C2 22 38 7 100 1 L87 -93 Z " />
<glyph glyph-name="percent" unicode="&#x25;" horiz-adv-x="850" d="M176 266 C317 266 342 361 361 496 C367 537 371 574 371 602 C371 694 320 750 224 750 C84 750 58 655 39 517 C34 478 30 443 30 412 C30 324 72 266 176 266 L176 266 Z M182 371 C158 371 149 383 149 415 C149 436 153 467 159 509 C173 612 177 640 217 640 C241 640 249 629 249 598 C249 576 244 545 239 503 C224 400 220 371 182 371 L182 371 Z M626 -5 C766 -5 791 90 810 225 C816 267 820 303 820 332 C820 423 770 479 674 479 C533 479 507 385 488 247 C483 207 479 172 479 142 C479 54 521 -5 626 -5 L626 -5 Z M631 101 C607 101 598 112 598 144 C598 166 602 197 608 238 C623 341 626 370 666 370 C690 370 698 358 698 327 C698 305 694 275 688 233 C674 129 669 101 631 101 L631 101 Z M180 0 L297 0 L668 741 L551 741 L180 0 Z " />
<glyph glyph-name="ampersand" unicode="&#x26;" horiz-adv-x="582" d="M216 -5 C264 -5 307 4 345 25 L359 0 L513 0 L446 121 C490 189 522 287 541 420 L419 420 C409 348 397 288 381 241 L332 331 C324 344 317 357 311 369 C394 430 450 504 450 624 C450 699 413 749 299 749 C176 749 123 669 123 536 C123 498 129 460 143 418 C57 365 -12 293 -12 164 C-12 58 48 -5 216 -5 L216 -5 Z M222 108 C143 108 124 139 124 183 C124 242 150 276 190 311 C198 295 207 278 218 261 L293 122 C273 113 249 108 222 108 L222 108 Z M249 546 C249 599 262 632 295 632 C321 632 327 618 327 598 C327 542 308 506 264 468 C254 497 249 522 249 546 L249 546 Z " />
<glyph glyph-name="quotesingle" unicode="&#x27;" horiz-adv-x="249" d="M69 417 L197 417 L248 741 L107 741 L69 417 Z " />
<glyph glyph-name="parenleft" unicode="&#x28;" horiz-adv-x="367" d="M123 -166 L235 -104 C212 -55 182 28 182 160 C182 203 186 253 193 306 C223 524 293 633 351 713 L255 775 C184 699 87 540 55 313 C48 258 44 207 44 160 C44 1 85 -106 123 -166 L123 -166 Z " />
<glyph glyph-name="parenright" unicode="&#x29;" horiz-adv-x="367" d="M92 -166 C163 -89 262 77 293 304 C301 359 305 408 305 454 C305 613 263 716 224 775 L112 713 C136 665 165 582 165 449 C165 406 162 357 155 303 C124 85 55 -24 -3 -103 L92 -166 Z " />
<glyph glyph-name="asterisk" unicode="&#x2a;" horiz-adv-x="449" d="M264 278 L275 418 L352 323 L430 411 L322 500 L450 559 L400 665 L299 593 L329 731 L221 746 L211 607 L135 702 L57 614 L163 523 L37 467 L87 360 L187 429 L157 293 L264 278 Z " />
<glyph glyph-name="plus" unicode="&#x2b;" horiz-adv-x="494" d="M145 133 L280 133 L303 300 L424 300 L443 429 L322 429 L345 595 L211 595 L187 429 L67 429 L48 300 L168 300 L145 133 Z " />
<glyph glyph-name="comma" unicode="&#x2c;" horiz-adv-x="221" d="M6 -143 C106 -96 126 -55 134 6 L158 170 L7 170 L-18 0 L44 0 C39 -37 32 -40 -26 -75 L6 -143 Z " />
<glyph glyph-name="&amp;#x2d;" unicode="&#x2d;" horiz-adv-x="274" d="M9 271 L236 271 L254 399 L27 399 L9 271 Z " />
<glyph glyph-name="&amp;#xad;" unicode="&#xad;" horiz-adv-x="274" d="M9 271 L236 271 L254 399 L27 399 L9 271 Z " />
<glyph glyph-name="period" unicode="&#x2e;" horiz-adv-x="221" d="M-18 0 L134 0 L158 170 L7 170 L-18 0 Z " />
<glyph glyph-name="slash" unicode="&#x2f;" horiz-adv-x="408" d="M-55 0 L87 0 L462 741 L320 741 L-55 0 Z " />
<glyph glyph-name="zero" unicode="0" horiz-adv-x="491" d="M207 -5 C386 -5 419 122 452 362 C462 437 472 505 472 560 C472 676 426 750 287 750 C105 750 70 622 37 386 C27 310 19 245 19 192 C19 75 64 -5 207 -5 L207 -5 Z M215 121 C173 121 157 140 157 194 C157 232 166 291 178 376 C206 579 213 620 276 620 C318 620 332 601 332 549 C332 511 324 453 312 366 C283 163 277 121 215 121 L215 121 Z " />
<glyph glyph-name="one" unicode="1" horiz-adv-x="298" d="M46 0 L183 0 L287 741 L69 741 L51 611 L132 611 L46 0 Z " />
<glyph glyph-name="two" unicode="2" horiz-adv-x="409" d="M-31 0 L321 0 L338 122 L140 122 L334 408 C388 487 408 533 408 607 C408 694 360 750 238 750 C161 750 104 738 63 721 L110 605 C138 615 174 623 204 623 C253 623 264 602 264 569 C264 535 254 510 229 473 L-15 115 L-31 0 Z " />
<glyph glyph-name="three" unicode="3" horiz-adv-x="392" d="M137 -5 C276 -5 324 61 345 211 C351 251 355 284 355 311 C355 361 339 393 306 407 C357 430 371 471 384 559 C387 581 389 601 389 620 C389 703 348 750 218 750 C142 750 86 736 59 725 L101 611 C129 620 155 624 183 624 C236 624 249 604 249 572 C249 562 247 549 245 536 C236 476 225 456 142 456 L97 456 L80 331 L102 331 C193 331 214 317 214 271 C214 258 212 243 210 225 C198 145 187 118 130 118 C89 118 45 135 23 147 L-36 34 C-2 17 45 -5 137 -5 L137 -5 Z " />
<glyph glyph-name="four" unicode="4" horiz-adv-x="468" d="M-9 143 L224 143 L204 0 L331 0 L351 143 L419 143 L437 267 L368 267 L394 450 L294 450 L243 267 L150 267 L406 741 L268 741 L7 258 L-9 143 Z " />
<glyph glyph-name="five" unicode="5" horiz-adv-x="417" d="M161 -5 C303 -5 347 54 373 236 C379 284 384 325 384 359 C384 456 349 501 249 501 C214 501 195 495 175 485 L197 611 L391 611 L409 741 L97 741 L36 385 L129 355 C145 365 160 373 188 373 C227 373 243 360 243 314 C243 296 240 274 236 245 C221 140 207 118 151 118 C96 118 51 135 26 147 L-34 34 C8 14 56 -5 161 -5 L161 -5 Z " />
<glyph glyph-name="six" unicode="6" horiz-adv-x="470" d="M211 -5 C360 -5 403 80 428 256 C435 299 439 339 439 374 C439 458 410 514 295 514 C243 514 212 503 189 481 C205 565 215 611 368 611 L414 611 L432 741 L385 741 C263 741 194 733 142 686 C82 629 57 534 38 393 L30 336 C22 281 17 232 17 190 C17 72 70 -5 211 -5 L211 -5 Z M213 115 C171 115 156 133 156 179 C156 202 159 230 164 268 C180 376 205 390 247 390 C284 390 297 374 297 332 C297 313 294 289 290 257 C275 147 266 115 213 115 L213 115 Z " />
<glyph glyph-name="seven" unicode="7" horiz-adv-x="377" d="M1 0 L143 0 L401 624 L418 741 L56 741 L38 611 L255 611 L1 0 Z " />
<glyph glyph-name="eight" unicode="8" horiz-adv-x="478" d="M201 -8 C351 -8 401 59 421 198 C426 233 430 265 430 295 C430 346 418 384 378 403 C433 430 447 486 458 565 C460 581 462 597 462 612 C462 707 404 751 275 751 C155 751 92 701 76 583 C72 553 69 525 69 500 C69 459 78 428 107 409 C37 379 22 311 9 216 C5 191 4 168 4 147 C4 44 62 -8 201 -8 L201 -8 Z M203 106 C161 106 146 125 146 165 C146 180 147 202 151 225 C162 306 176 338 231 338 C276 338 289 319 289 278 C289 262 288 242 284 219 C272 139 259 106 203 106 L203 106 Z M252 456 C215 456 201 472 201 506 C201 518 203 533 205 549 C214 614 229 636 272 636 C310 636 324 621 324 585 C324 573 323 560 320 544 C311 481 296 456 252 456 L252 456 Z " />
<glyph glyph-name="nine" unicode="9" horiz-adv-x="470" d="M45 0 L92 0 C214 0 283 8 335 55 C395 112 420 211 439 352 L447 409 C455 464 460 513 460 555 C460 673 416 750 266 750 C117 750 74 665 49 489 C42 446 38 406 38 370 C38 286 71 230 183 230 C234 230 265 242 288 264 C270 168 261 127 109 127 L62 127 L45 0 Z M230 350 C193 350 181 366 181 408 C181 426 184 451 188 483 C203 593 212 624 265 624 C307 624 322 606 322 560 C322 537 319 509 313 472 C298 363 273 350 230 350 L230 350 Z " />
<glyph glyph-name="colon" unicode="&#x3a;" horiz-adv-x="234" d="M-10 0 L139 0 L163 168 L14 168 L-10 0 Z M46 398 L195 398 L219 566 L70 566 L46 398 Z " />
<glyph glyph-name="semicolon" unicode="&#x3b;" horiz-adv-x="234" d="M13 -143 C114 -96 132 -50 140 6 L163 168 L14 168 L-10 0 L52 0 C47 -37 37 -43 -17 -75 L13 -143 Z M46 398 L195 398 L219 566 L70 566 L46 398 Z " />
<glyph glyph-name="less" unicode="&#x3c;" horiz-adv-x="494" d="M354 112 L374 249 L216 358 L405 466 L424 606 L82 407 L69 312 L354 112 Z " />
<glyph glyph-name="equal" unicode="&#x3d;" horiz-adv-x="494" d="M38 190 L406 190 L424 319 L56 319 L38 190 Z M67 401 L436 401 L454 530 L85 530 L67 401 Z " />
<glyph glyph-name="greater" unicode="&#x3e;" horiz-adv-x="494" d="M65 112 L407 310 L420 406 L136 606 L116 469 L275 360 L85 251 L65 112 Z " />
<glyph glyph-name="question" unicode="&#x3f;" horiz-adv-x="443" d="M121 219 L253 219 C266 313 271 333 311 381 L370 452 C408 498 430 543 430 603 C430 677 387 750 254 750 C187 750 135 745 83 725 L128 608 C159 617 186 623 229 623 C274 623 289 599 289 572 C289 547 283 527 263 504 L197 427 C145 367 137 323 121 219 L121 219 Z M81 0 L232 0 L253 151 L102 151 L81 0 Z " />
<glyph glyph-name="at" unicode="&#x40;" horiz-adv-x="634" d="M278 -152 L413 -152 L423 -77 L281 -77 C111 -77 69 -5 69 111 C69 168 80 238 90 314 C123 545 137 675 338 675 C505 675 547 603 547 489 C547 433 536 363 526 286 L509 165 C504 131 497 119 469 119 C439 119 442 145 445 167 L494 523 L408 529 L391 504 C377 523 357 534 288 534 C186 534 165 447 145 305 C139 259 133 217 133 183 C133 108 157 55 256 55 C321 55 350 68 374 92 C387 72 412 54 459 54 C532 54 569 68 581 156 L598 281 C610 361 620 434 620 497 C620 646 565 750 338 750 C83 750 54 577 18 319 C7 241 -3 168 -3 105 C-3 -47 51 -152 278 -152 L278 -152 Z M286 153 C256 153 246 171 246 209 C246 231 249 261 255 298 C270 400 276 428 318 428 C352 428 361 411 361 376 C361 355 358 327 352 288 C337 182 334 153 286 153 L286 153 Z " />
<glyph glyph-name="A" unicode="A" horiz-adv-x="499" d="M-45 0 L95 0 L133 112 L288 112 L296 0 L442 0 L377 743 L224 743 L-45 0 Z M175 238 L230 402 L263 507 L269 401 L278 238 L175 238 Z " />
<glyph glyph-name="B" unicode="B" horiz-adv-x="483" d="M-10 0 L230 0 C348 0 416 48 436 191 C440 223 444 252 444 278 C444 334 430 371 390 386 C449 408 465 460 476 541 C479 560 480 578 480 594 C480 688 435 741 277 741 L95 741 L-10 0 Z M142 122 L168 310 L234 310 C285 310 307 300 307 250 C307 239 306 226 304 210 C295 134 272 122 226 122 L142 122 Z M186 434 L212 615 L271 615 C323 615 342 603 342 558 C342 549 341 537 339 523 C332 455 313 434 265 434 L186 434 Z " />
<glyph glyph-name="C" unicode="C" horiz-adv-x="403" d="M217 -5 C271 -5 312 5 350 22 L309 140 C285 131 262 126 234 126 C172 126 150 149 150 220 C150 257 155 306 165 372 C194 572 211 614 288 614 C325 614 361 605 382 595 L437 725 C401 740 359 750 287 750 C106 750 57 631 22 380 C12 313 6 256 6 212 C6 77 68 -5 217 -5 L217 -5 Z " />
<glyph glyph-name="D" unicode="D" horiz-adv-x="500" d="M-10 0 L210 0 C410 0 444 119 477 356 C486 423 493 481 493 530 C493 660 443 741 257 741 L95 741 L-10 0 Z M148 122 L217 614 L249 614 C326 614 349 588 349 517 C349 480 343 430 333 363 C306 165 293 122 207 122 L148 122 Z " />
<glyph glyph-name="E" unicode="E" horiz-adv-x="428" d="M-9 0 L348 0 L365 127 L148 127 L175 311 L382 311 L400 440 L193 440 L217 611 L434 611 L452 741 L95 741 L-9 0 Z " />
<glyph glyph-name="F" unicode="F" horiz-adv-x="415" d="M-9 0 L131 0 L172 295 L377 295 L396 425 L191 425 L217 611 L432 611 L450 741 L95 741 L-9 0 Z " />
<glyph glyph-name="G" unicode="G" horiz-adv-x="472" d="M211 -5 C373 -5 408 52 443 288 L466 445 L239 445 L221 318 L314 318 L307 269 C290 147 275 116 218 116 C162 116 145 148 145 210 C145 249 152 304 162 375 C190 575 211 616 294 616 C344 616 382 607 409 595 L468 719 C435 734 385 749 295 749 C96 749 55 622 22 387 C13 316 6 255 6 203 C6 74 52 -5 211 -5 L211 -5 Z " />
<glyph glyph-name="H" unicode="H" horiz-adv-x="519" d="M-9 0 L131 0 L175 310 L327 310 L283 0 L424 0 L528 741 L387 741 L347 450 L194 450 L235 741 L95 741 L-9 0 Z " />
<glyph glyph-name="I" unicode="I" horiz-adv-x="240" d="M-2 0 L138 0 L242 741 L102 741 L-2 0 Z " />
<glyph glyph-name="J" unicode="J" horiz-adv-x="312" d="M-35 0 C-23 0 28 0 70 0 C152 0 226 37 244 169 L325 741 L183 741 L105 183 C99 142 84 127 39 127 C27 127 -3 127 -17 127 L-35 0 Z " />
<glyph glyph-name="K" unicode="K" horiz-adv-x="488" d="M-9 0 L129 0 L157 198 L220 307 L282 0 L425 0 L330 456 L513 741 L366 741 L194 467 L233 741 L95 741 L-9 0 Z " />
<glyph glyph-name="L" unicode="L" horiz-adv-x="396" d="M-9 0 L335 0 L353 127 L148 127 L235 741 L95 741 L-9 0 Z " />
<glyph glyph-name="M" unicode="M" horiz-adv-x="624" d="M-9 0 L113 0 L174 433 L178 313 L200 0 L309 0 L415 305 L457 434 L396 0 L529 0 L633 741 L458 741 L333 387 L299 280 L293 388 L270 741 L95 741 L-9 0 Z " />
<glyph glyph-name="N" unicode="N" horiz-adv-x="511" d="M-9 0 L121 0 L182 429 L208 312 L289 0 L416 0 L520 741 L389 741 L333 346 L306 471 L239 741 L95 741 L-9 0 Z " />
<glyph glyph-name="O" unicode="O" horiz-adv-x="515" d="M220 -5 C417 -5 460 137 491 357 C500 421 509 483 509 533 C509 656 457 750 297 750 C96 750 54 609 23 386 C14 321 6 263 6 213 C6 90 58 -5 220 -5 L220 -5 Z M230 124 C169 124 149 152 149 220 C149 258 156 308 165 375 C192 564 208 615 285 615 C344 615 364 586 364 519 C364 481 358 430 348 362 C321 174 305 124 230 124 L230 124 Z " />
<glyph glyph-name="P" unicode="P" horiz-adv-x="484" d="M-9 0 L129 0 L164 244 L253 244 C406 244 457 310 483 484 C488 516 490 545 490 571 C490 685 439 741 275 741 L95 741 L-9 0 Z M181 371 L216 613 L267 613 C329 613 351 600 351 546 C351 531 350 513 346 489 C332 390 310 371 256 371 L181 371 Z " />
<glyph glyph-name="Q" unicode="Q" horiz-adv-x="514" d="M324 -174 L341 -53 L297 -53 C258 -53 253 -40 257 1 C422 17 462 151 491 357 C500 421 509 483 509 533 C509 656 457 750 297 750 C96 750 54 609 23 386 C14 321 6 263 6 213 C6 118 37 42 125 12 C104 -112 129 -174 272 -174 L324 -174 Z M229 121 C169 121 149 149 149 217 C149 255 156 308 165 375 C192 564 208 615 285 615 C344 615 364 586 364 519 C364 481 358 430 348 362 C321 174 305 121 229 121 L229 121 Z " />
<glyph glyph-name="R" unicode="R" horiz-adv-x="484" d="M263 0 L402 0 L352 283 C433 320 464 395 478 499 C482 530 485 556 485 580 C485 688 437 741 275 741 L95 741 L-9 0 L127 0 L164 261 L220 261 L263 0 Z M182 388 L214 613 L264 613 C324 613 345 601 345 548 C345 535 343 517 340 498 C327 406 306 388 249 388 L182 388 Z " />
<glyph glyph-name="S" unicode="S" horiz-adv-x="423" d="M156 -5 C314 -5 375 85 375 202 C375 280 338 335 273 419 C217 491 198 518 198 549 C198 591 224 615 264 615 C308 615 346 604 370 593 L427 722 C376 742 339 749 267 749 C118 749 54 660 54 546 C54 471 91 419 149 345 C218 258 234 232 234 201 C234 148 207 123 158 123 C104 123 59 141 32 157 L-39 40 C-2 20 57 -5 156 -5 L156 -5 Z " />
<glyph glyph-name="T" unicode="T" horiz-adv-x="445" d="M99 0 L241 0 L326 611 L471 611 L489 741 L59 741 L41 611 L185 611 L99 0 Z " />
<glyph glyph-name="U" unicode="U" horiz-adv-x="509" d="M221 -9 C387 -9 428 72 451 234 L522 741 L385 741 L315 242 C302 149 283 121 224 121 C158 121 149 159 161 240 L231 741 L90 741 L19 234 C-3 80 31 -9 221 -9 L221 -9 Z " />
<glyph glyph-name="V" unicode="V" horiz-adv-x="496" d="M120 -2 L273 -2 L541 741 L397 741 L273 372 L230 238 L223 376 L202 741 L60 741 L120 -2 Z " />
<glyph glyph-name="W" unicode="W" horiz-adv-x="712" d="M82 -2 L230 -2 L330 318 L364 432 L367 318 L379 -2 L524 -2 L742 741 L610 741 L525 433 L492 312 L490 434 L480 741 L343 741 L247 435 L210 312 L212 436 L213 741 L72 741 L82 -2 Z " />
<glyph glyph-name="X" unicode="X" horiz-adv-x="498" d="M293 0 L435 0 L325 380 L523 741 L380 741 L278 544 L222 741 L80 741 L178 399 L-44 0 L99 0 L225 238 L293 0 Z " />
<glyph glyph-name="Y" unicode="Y" horiz-adv-x="479" d="M116 0 L256 0 L291 246 L535 741 L389 741 L248 437 L194 741 L47 741 L151 251 L116 0 Z " />
<glyph glyph-name="Z" unicode="Z" horiz-adv-x="426" d="M-37 0 L358 0 L375 127 L145 127 L437 622 L454 741 L78 741 L60 611 L275 611 L-22 107 L-37 0 Z " />
<glyph glyph-name="bracketleft" unicode="&#x5b;" horiz-adv-x="367" d="M-4 -152 L241 -152 L257 -36 L149 -36 L245 640 L350 640 L367 763 L124 763 L-4 -152 Z " />
<glyph glyph-name="backslash" unicode="&#x5c;" horiz-adv-x="408" d="M220 0 L353 0 L186 741 L54 741 L220 0 Z " />
<glyph glyph-name="bracketright" unicode="&#x5d;" horiz-adv-x="367" d="M-21 -152 L224 -152 L352 763 L109 763 L93 640 L198 640 L103 -36 L-5 -36 L-21 -152 Z " />
<glyph glyph-name="asciicircum" unicode="&#x5e;" horiz-adv-x="387" d="M56 585 L175 585 L238 661 L280 585 L396 585 L318 751 L181 751 L56 585 Z " />
<glyph glyph-name="underscore" unicode="&#x5f;" horiz-adv-x="295" d="M-96 -138 L247 -138 L261 -40 L-83 -40 L-96 -138 Z " />
<glyph glyph-name="grave" unicode="&#x60;" horiz-adv-x="387" d="M179 610 L298 610 L246 776 L89 776 L179 610 Z " />
<glyph glyph-name="a" unicode="a" horiz-adv-x="429" d="M125 -5 C176 -5 213 8 238 31 C246 10 259 -2 304 -2 C315 -2 351 -2 361 0 L377 120 C347 120 349 130 352 157 L386 403 C403 517 367 573 231 573 C156 573 101 564 66 550 L107 429 C135 438 168 442 201 442 C249 442 254 419 250 382 L217 382 C71 382 12 348 -11 188 C-14 166 -16 146 -16 128 C-15 44 24 -5 125 -5 L125 -5 Z M155 109 C124 109 116 126 116 153 C116 165 117 180 120 197 C131 269 150 275 236 275 L224 186 C218 139 205 109 155 109 L155 109 Z " />
<glyph glyph-name="b" unicode="b" horiz-adv-x="445" d="M89 -4 L112 30 C129 8 159 -4 240 -4 C362 -4 389 100 413 273 C421 328 428 377 428 419 C428 506 399 573 290 573 C258 573 220 566 193 544 L224 763 L89 763 L-17 4 L89 -4 Z M198 117 C158 117 145 137 145 179 C145 204 150 237 156 283 C174 409 181 442 237 442 C273 442 286 422 286 377 C286 351 282 316 275 273 C259 150 247 117 198 117 L198 117 Z " />
<glyph glyph-name="c" unicode="c" horiz-adv-x="327" d="M167 -4 C205 -4 232 -1 267 9 L239 124 C222 119 206 117 191 117 C151 117 135 131 135 182 C135 207 139 240 145 284 C163 411 177 441 224 441 C251 441 266 436 281 430 L336 553 C312 563 282 572 221 572 C77 572 31 468 6 297 C0 252 -4 211 -4 176 C-4 72 39 -4 167 -4 L167 -4 Z " />
<glyph glyph-name="d" unicode="d" horiz-adv-x="446" d="M131 -4 C168 -4 216 2 246 31 L246 -2 L360 5 L466 763 L331 763 L299 540 C282 561 245 573 181 573 C59 573 32 469 8 297 C0 242 -7 191 -7 149 C-7 63 22 -4 131 -4 L131 -4 Z M181 117 C146 117 133 137 133 182 C133 208 137 243 143 287 C160 409 172 442 221 442 C261 442 273 422 273 380 C273 356 269 322 262 277 C244 150 237 117 181 117 L181 117 Z " />
<glyph glyph-name="e" unicode="e" horiz-adv-x="403" d="M174 -5 C240 -5 280 0 334 18 L299 128 C265 117 229 113 192 113 C142 113 126 126 126 176 C126 188 127 203 129 222 L362 222 C377 308 386 368 386 417 C386 519 344 573 224 573 C84 573 33 481 6 297 C0 253 -4 213 -4 178 C-4 68 43 -5 174 -5 L174 -5 Z M216 449 C252 449 263 437 263 401 C263 382 261 367 256 333 L143 333 C158 423 172 449 216 449 L216 449 Z " />
<glyph glyph-name="f" unicode="f" horiz-adv-x="312" d="M18 445 L87 445 L4 -152 L139 -152 L222 445 L318 445 L336 566 L239 566 L243 592 C248 632 258 641 307 641 L346 641 L363 763 C355 764 335 765 305 765 C184 765 127 728 112 618 L104 566 L36 566 L18 445 Z " />
<glyph glyph-name="g" unicode="g" horiz-adv-x="429" d="M196 209 C300 209 375 246 394 373 C396 389 397 405 397 419 C396 455 387 484 372 504 L435 504 L450 607 L271 573 C254 574 238 575 223 575 C118 575 47 525 29 398 C27 383 26 368 26 355 C25 311 37 277 60 253 C43 230 34 202 34 172 C34 150 41 125 53 112 C-18 94 -54 41 -54 -39 C-54 -121 4 -158 157 -158 C286 -158 378 -115 378 43 C378 120 329 163 193 164 C152 165 145 173 145 188 C145 196 146 204 149 212 C164 210 179 209 196 209 L196 209 Z M158 -63 C98 -63 82 -45 82 -15 C82 27 92 58 156 58 C215 58 241 45 241 13 C241 -45 211 -63 158 -63 L158 -63 Z M201 307 C168 307 158 318 157 346 C157 357 158 371 161 387 C169 443 181 463 219 463 C254 463 265 451 265 421 C265 411 263 396 261 382 C252 326 240 307 201 307 L201 307 Z " />
<glyph glyph-name="h" unicode="h" horiz-adv-x="445" d="M-17 0 L118 0 L167 348 C177 423 191 442 234 442 C280 442 283 416 275 352 L225 0 L361 0 L418 402 C429 493 422 573 293 573 C252 573 215 564 193 545 L224 763 L90 763 L-17 0 Z " />
<glyph glyph-name="i" unicode="i" horiz-adv-x="213" d="M-14 0 L122 0 L202 566 L66 566 L-14 0 Z M73 618 L208 618 L227 751 L91 751 L73 618 Z " />
<glyph glyph-name="j" unicode="j" horiz-adv-x="213" d="M-68 -152 C54 -152 103 -136 122 -2 L202 566 L66 566 L-12 13 C-17 -25 -20 -34 -52 -34 L-68 -152 Z M73 618 L208 618 L227 751 L91 751 L73 618 Z " />
<glyph glyph-name="k" unicode="k" horiz-adv-x="418" d="M-18 0 L113 0 L132 136 L171 198 L225 0 L362 0 L275 324 L434 566 L295 566 L164 369 L220 763 L89 763 L-18 0 Z " />
<glyph glyph-name="l" unicode="l" horiz-adv-x="241" d="M140 -2 C144 -2 163 -1 167 0 L184 120 L178 120 C141 120 139 127 145 165 L229 763 L93 763 L7 150 C-9 31 23 -2 140 -2 L140 -2 Z " />
<glyph glyph-name="m" unicode="m" horiz-adv-x="675" d="M-17 0 L118 0 L167 348 C177 423 189 442 232 442 C278 442 276 413 268 352 L218 0 L354 0 L403 348 C414 423 425 442 469 442 C514 442 512 408 505 352 L455 0 L591 0 L647 402 C660 495 648 572 523 572 C454 572 421 558 397 530 C381 564 340 572 291 572 C243 572 194 560 176 539 L175 566 L61 559 L-17 0 Z " />
<glyph glyph-name="n" unicode="n" horiz-adv-x="445" d="M-17 0 L118 0 L167 348 C177 423 191 442 234 442 C280 442 283 416 275 352 L225 0 L361 0 L418 402 C429 493 422 573 293 573 C240 573 199 563 176 539 L175 566 L61 559 L-17 0 Z " />
<glyph glyph-name="o" unicode="o" horiz-adv-x="433" d="M176 -5 C336 -5 378 107 401 272 C407 316 412 357 412 393 C412 490 372 573 232 573 C72 573 30 461 6 296 C0 253 -4 213 -4 177 C-4 78 35 -5 176 -5 L176 -5 Z M184 117 C144 117 131 136 131 180 C131 204 135 238 142 283 C159 406 168 442 223 442 C262 442 274 424 274 379 C274 355 271 321 264 276 C246 154 238 117 184 117 L184 117 Z " />
<glyph glyph-name="p" unicode="p" horiz-adv-x="446" d="M-39 -152 L96 -152 L122 30 C139 8 176 -4 240 -4 C362 -4 389 100 413 273 C421 328 428 377 428 419 C428 506 399 573 290 573 C253 573 205 567 175 538 L174 566 L61 559 L-39 -152 Z M198 117 C158 117 145 137 145 179 C145 204 150 237 156 283 C174 409 181 442 237 442 C273 442 286 422 286 377 C286 351 282 316 275 273 C259 150 247 117 198 117 L198 117 Z " />
<glyph glyph-name="q" unicode="q" horiz-adv-x="446" d="M203 -152 L338 -152 L437 560 L331 567 L311 537 C294 559 264 573 181 573 C59 573 32 469 8 297 C0 242 -7 191 -7 149 C-7 63 22 -4 131 -4 C162 -4 200 2 228 23 L203 -152 Z M181 117 C146 117 133 137 133 182 C133 208 137 243 143 287 C160 409 172 442 221 442 C261 442 273 422 273 380 C273 356 269 322 262 277 C244 150 237 117 181 117 L181 117 Z " />
<glyph glyph-name="r" unicode="r" horiz-adv-x="275" d="M-18 0 L119 0 L166 334 C175 404 207 431 276 433 L295 566 C236 564 198 553 175 530 L174 566 L61 559 L-18 0 Z " />
<glyph glyph-name="s" unicode="s" horiz-adv-x="365" d="M131 -5 C258 -5 314 53 314 157 C314 212 289 256 221 328 C177 374 166 392 166 410 C166 433 179 445 208 445 C237 445 277 437 301 428 L346 554 C305 570 256 574 217 574 C89 574 36 506 36 409 C36 356 60 307 115 249 C171 190 183 175 183 153 C183 123 167 113 138 113 C88 113 42 129 16 139 L-33 23 C20 3 66 -5 131 -5 L131 -5 Z " />
<glyph glyph-name="t" unicode="t" horiz-adv-x="328" d="M18 445 L84 445 L46 168 C29 46 54 -2 190 -2 C209 -2 233 -2 251 0 L268 124 L224 124 C179 124 177 139 181 174 L219 445 L313 445 L331 566 L237 566 L257 708 L143 681 L108 566 L36 566 L18 445 Z " />
<glyph glyph-name="u" unicode="u" horiz-adv-x="439" d="M189 -5 C309 -5 363 60 380 181 L434 566 L301 566 L250 201 C241 139 228 116 187 116 C142 116 135 144 143 200 L195 566 L60 566 L7 194 C-11 69 32 -5 189 -5 L189 -5 Z " />
<glyph glyph-name="v" unicode="v" horiz-adv-x="407" d="M76 0 L227 0 L434 566 L299 566 L216 315 L183 203 L179 315 L168 566 L28 566 L76 0 Z " />
<glyph glyph-name="w" unicode="w" horiz-adv-x="589" d="M42 0 L188 0 L255 213 L286 317 L290 213 L301 0 L442 0 L609 566 L481 566 L426 348 L399 239 L396 349 L386 566 L268 566 L198 351 L162 236 L167 350 L172 566 L35 566 L42 0 Z " />
<glyph glyph-name="x" unicode="x" horiz-adv-x="396" d="M205 0 L342 0 L258 281 L419 566 L286 566 L214 430 L174 566 L37 566 L115 304 L-52 0 L82 0 L159 153 L205 0 Z " />
<glyph glyph-name="y" unicode="y" horiz-adv-x="398" d="M17 -154 C109 -154 154 -134 191 -38 L425 566 L290 566 L222 361 L182 227 L176 365 L164 566 L27 566 L84 9 L77 -12 C70 -28 61 -32 24 -33 L-14 -33 L-31 -152 C-23 -154 4 -154 17 -154 L17 -154 Z " />
<glyph glyph-name="z" unicode="z" horiz-adv-x="343" d="M-46 0 L285 0 L301 112 L130 112 L345 475 L358 566 L44 566 L27 445 L178 445 L-34 89 L-46 0 Z " />
<glyph glyph-name="braceleft" unicode="&#x7b;" horiz-adv-x="392" d="M159 -152 L265 -152 L281 -36 L232 -36 C194 -36 178 -23 183 14 C189 56 234 165 242 228 C247 262 240 291 206 306 C246 320 260 350 265 386 C274 450 259 552 264 592 C270 630 290 640 327 640 L377 640 L393 763 L285 763 C193 763 143 726 130 634 C123 580 138 456 132 410 C126 369 107 365 41 365 L25 246 C93 246 109 242 103 198 C96 150 46 34 39 -17 C27 -105 68 -152 159 -152 L159 -152 Z " />
<glyph glyph-name="bar" unicode="&#x7c;" horiz-adv-x="276" d="M68 -152 L205 -152 L205 763 L68 763 L68 -152 Z " />
<glyph glyph-name="braceright" unicode="&#x7d;" horiz-adv-x="392" d="M-20 -152 L87 -152 C177 -152 229 -117 242 -29 C250 22 234 150 240 198 C246 242 262 246 331 246 L347 365 C281 365 264 369 270 410 C276 456 326 568 334 622 C346 713 308 763 214 763 L108 763 L91 640 L140 640 C178 640 194 630 189 592 C183 552 140 450 131 386 C126 350 131 320 167 306 C130 291 113 262 108 228 C100 165 114 56 108 14 C102 -23 82 -36 45 -36 L-4 -36 L-20 -152 Z " />
<glyph glyph-name="asciitilde" unicode="&#x7e;" horiz-adv-x="387" d="M162 352 C170 382 177 388 194 388 C212 388 248 357 288 357 C365 357 393 403 411 487 L310 504 C302 474 295 468 278 468 C259 468 224 499 184 499 C106 499 79 453 60 369 L162 352 Z " />
<glyph glyph-name="exclamdown" unicode="&#xa1;" horiz-adv-x="284" d="M16 0 L163 0 L224 516 L100 516 L16 0 Z M95 574 L247 574 L270 741 L119 741 L95 574 Z " />
<glyph glyph-name="cent" unicode="&#xa2;" horiz-adv-x="368" d="M82 -95 L194 -95 L207 0 C232 1 253 4 279 12 L252 124 C235 119 219 117 204 117 C164 117 148 131 148 182 C148 207 152 240 158 284 C176 411 190 441 237 441 C264 441 279 436 294 430 L347 551 C332 557 314 563 287 566 L298 645 L186 645 L174 562 C77 536 40 441 19 297 C13 252 9 211 9 176 C9 99 33 39 97 13 L82 -95 Z " />
<glyph glyph-name="sterling" unicode="&#xa3;" horiz-adv-x="457" d="M260 -3 C344 -3 393 37 411 173 L418 226 L299 226 L293 182 C286 130 276 112 240 112 C227 112 214 114 203 119 C206 136 208 156 209 178 L213 324 L307 324 L321 428 L216 428 L219 543 C220 585 232 622 282 622 C323 622 363 613 387 602 L445 720 C409 735 361 750 280 750 C157 750 94 682 90 551 L86 428 L27 428 L12 324 L83 324 L80 188 C79 140 71 122 -17 122 L-34 1 C42 0 98 5 136 23 C167 7 206 -3 260 -3 L260 -3 Z " />
<glyph glyph-name="currency" unicode="&#xa4;" horiz-adv-x="451" d="M20 395 L93 395 C93 392 92 389 92 386 C90 374 88 362 87 351 L14 351 L-1 246 L75 246 C73 225 73 206 73 190 C73 67 129 -5 262 -5 C307 -5 349 4 383 17 L345 130 C321 122 297 118 272 118 C225 118 210 143 210 199 C210 212 210 228 212 246 L333 246 L348 351 L225 351 C226 359 227 368 229 377 C230 383 230 389 231 395 L354 395 L369 500 L247 500 C264 595 281 620 329 620 C359 620 394 614 414 606 L469 726 C431 740 389 750 333 750 C195 750 144 668 111 500 L34 500 L20 395 Z " />
<glyph glyph-name="yen" unicode="&#xa5;" horiz-adv-x="465" d="M26 207 L143 207 L136 162 L20 162 L5 58 L122 58 L114 0 L244 0 L252 58 L370 58 L384 162 L267 162 L273 207 L390 207 L405 311 L296 311 L510 741 L371 741 L243 442 L197 741 L59 741 L151 311 L40 311 L26 207 Z " />
<glyph glyph-name="brokenbar" unicode="&#xa6;" horiz-adv-x="276" d="M68 -152 L205 -152 L205 225 L68 225 L68 -152 Z M68 386 L205 386 L205 763 L68 763 L68 386 Z " />
<glyph glyph-name="section" unicode="&#xa7;" horiz-adv-x="435" d="M70 0 C179 0 229 45 245 155 L250 190 C356 201 383 258 398 358 C401 382 404 405 404 425 C404 486 381 532 299 548 L304 581 C309 617 318 629 368 630 L400 630 L415 744 C408 745 395 746 359 746 C244 746 193 701 178 591 L172 552 C75 538 50 483 37 384 C33 359 31 337 31 317 C31 258 51 215 123 197 L119 166 C114 130 105 117 56 116 L24 116 L7 2 C15 2 28 0 70 0 L70 0 Z M209 281 C167 281 150 293 150 332 C150 343 151 356 153 373 C163 443 180 459 226 459 C267 459 285 445 285 405 C285 395 284 383 281 367 C272 295 256 281 209 281 L209 281 Z " />
<glyph glyph-name="dieresis" unicode="&#xa8;" horiz-adv-x="387" d="M88 610 L205 610 L223 738 L106 738 L88 610 Z M251 610 L367 610 L386 738 L269 738 L251 610 Z " />
<glyph glyph-name="copyright" unicode="&#xa9;" horiz-adv-x="525" d="M277 134 C318 134 346 142 370 153 L337 233 C319 225 304 220 281 220 C227 220 223 251 223 369 C223 488 227 519 281 519 C300 519 319 515 333 510 L368 593 C341 602 317 608 277 608 C228 608 193 594 171 570 C134 531 129 468 129 371 C129 271 136 207 174 170 C196 148 229 134 277 134 L277 134 Z M262 -8 C472 -8 502 116 502 371 C502 625 472 751 262 751 C54 751 24 625 24 371 C24 116 55 -8 262 -8 L262 -8 Z M262 44 C98 44 78 152 78 371 C78 590 97 698 262 698 C429 698 448 590 448 371 C448 152 429 44 262 44 L262 44 Z " />
<glyph glyph-name="ordfeminine" unicode="&#xaa;" horiz-adv-x="395" d="M142 281 C193 281 221 296 240 323 C244 295 266 284 305 284 C313 284 336 284 343 285 L357 382 C333 382 333 389 336 413 L365 612 C378 707 352 750 239 750 C177 750 136 741 108 732 L132 634 C154 639 188 643 220 643 C256 643 258 630 254 593 L232 593 C121 593 62 570 44 440 C42 422 40 407 40 391 C40 321 70 281 142 281 L142 281 Z M22 135 L306 135 L320 233 L37 233 L22 135 Z M179 374 C155 374 147 385 147 409 C147 418 149 431 151 444 C161 502 175 507 236 507 L242 507 L235 453 C227 399 219 374 179 374 L179 374 Z " />
<glyph glyph-name="guillemotleft" unicode="&#xab;" horiz-adv-x="530" d="M92 0 L211 0 L160 282 L291 566 L172 566 L32 282 L92 0 Z M296 0 L414 0 L364 282 L494 566 L376 566 L236 282 L296 0 Z " />
<glyph glyph-name="logicalnot" unicode="&#xac;" horiz-adv-x="832" d="M126 120 C126 120 129 123 134 127 C79 193 46 278 46 371 C46 464 79 549 133 615 C129 619 126 621 126 621 C70 554 36 466 36 371 C36 275 70 187 126 120 L126 120 Z M228 211 C230 213 233 215 235 218 C201 259 181 313 181 371 C181 429 202 483 235 524 C232 526 230 529 227 531 C192 487 171 432 171 371 C171 310 193 254 228 211 L228 211 Z M264 243 C267 245 269 248 272 250 C245 283 229 325 229 371 C229 417 245 459 272 492 C269 494 267 497 264 499 C236 464 219 419 219 371 C219 322 236 278 264 243 L264 243 Z M316 289 C319 291 321 294 324 296 C308 317 298 343 298 371 C298 399 308 425 323 445 C321 448 318 450 316 452 C298 430 288 402 288 371 C288 340 298 312 316 289 L316 289 Z M349 320 C352 323 354 325 357 327 C348 340 343 355 343 371 C343 387 348 402 357 415 C354 417 352 420 349 422 C339 408 333 390 333 371 C333 352 339 334 349 320 L349 320 Z M378 346 C382 349 384 351 384 351 C381 357 379 364 379 371 C379 378 381 385 384 391 C384 391 382 393 378 396 C374 389 371 380 371 371 C371 362 374 353 378 346 L378 346 Z M416 60 C493 60 563 89 616 136 C614 139 611 141 609 144 C558 98 490 70 416 70 C342 70 274 98 222 144 C222 145 215 137 215 137 C268 89 338 60 416 60 L416 60 Z M416 324 C426 324 435 327 442 333 C439 337 437 339 437 339 C431 334 424 332 416 332 C408 332 401 335 395 339 C395 339 391 334 389 333 C397 327 406 324 416 324 L416 324 Z M482 319 C493 334 499 352 499 371 C499 390 493 408 482 422 C483 422 475 415 475 415 C484 403 489 388 489 371 C489 355 484 339 475 326 C478 324 480 322 482 319 L482 319 Z M292 269 C295 271 298 274 300 276 C280 302 267 335 267 371 C267 407 280 440 300 466 L293 473 C270 445 257 410 257 371 C257 333 270 297 292 269 L292 269 Z M416 -17 C512 -17 600 19 667 80 C667 80 660 88 660 87 C595 29 510 -7 416 -7 C322 -7 236 29 171 88 L164 80 C231 20 320 -17 416 -17 L416 -17 Z M416 121 C478 121 534 144 576 182 C574 185 571 187 569 190 C529 153 475 131 416 131 C357 131 303 153 262 190 L255 182 C298 144 354 121 416 121 L416 121 Z M416 170 C465 170 510 188 544 218 C542 221 539 223 537 226 C505 197 462 180 416 180 C369 180 327 197 294 226 L287 219 C322 189 367 170 416 170 L416 170 Z M416 209 C455 209 491 224 518 247 C516 250 514 253 512 255 C486 233 452 219 416 219 C380 219 346 233 320 255 L313 247 C341 224 377 209 416 209 L416 209 Z M416 265 C441 265 463 274 481 289 C479 292 476 294 474 297 C458 283 438 275 416 275 C394 275 373 283 357 297 L350 289 C368 274 391 265 416 265 L416 265 Z M358 445 C374 459 394 467 416 467 C438 467 458 459 474 445 L482 453 C464 468 441 477 416 477 C391 477 368 468 350 453 C351 452 354 448 358 445 L358 445 Z M570 552 C572 554 575 557 577 560 C534 598 478 621 416 621 C355 621 299 598 256 560 L263 553 C304 589 357 611 416 611 C475 611 529 589 570 552 L570 552 Z M454 346 C458 353 461 362 461 371 C461 380 458 389 454 396 L448 391 C451 385 453 378 453 371 C453 364 451 357 448 351 C448 351 450 349 454 346 L454 346 Z M468 333 C476 344 480 357 480 371 C480 385 476 398 468 409 L460 402 C466 393 470 382 470 371 C470 360 466 349 460 340 C463 338 465 336 468 333 L468 333 Z M498 306 C511 325 519 347 519 371 C519 395 511 418 497 436 L490 429 C502 413 509 393 509 371 C509 349 502 329 490 313 C492 311 495 308 498 306 L498 306 Z M540 269 C562 297 575 332 575 371 C575 410 562 445 539 473 L531 466 C552 440 565 407 565 371 C565 335 552 302 532 276 C535 274 537 271 540 269 L540 269 Z M568 243 C596 278 613 322 613 371 C613 420 596 464 568 499 L560 492 C587 459 603 417 603 371 C603 325 587 283 560 250 C563 248 566 245 568 243 L568 243 Z M604 211 C640 254 661 310 661 371 C661 432 640 488 604 531 L596 524 C631 483 651 429 651 371 C651 313 631 260 596 218 C601 213 604 211 604 211 L604 211 Z M649 171 C694 225 721 295 721 371 C721 447 694 517 649 571 L641 564 C685 512 711 445 711 371 C711 297 685 230 642 177 C644 175 647 173 649 171 L649 171 Z M706 120 C762 188 796 276 796 371 C796 467 762 555 706 622 L698 615 C753 549 786 464 786 371 C786 278 753 193 698 127 C703 123 706 120 706 120 L706 120 Z M183 170 L190 177 C147 229 121 297 121 371 C121 444 147 512 190 564 C187 567 184 569 182 571 C138 517 111 447 111 371 C111 294 138 225 183 170 L183 170 Z M334 306 L342 314 C330 330 323 350 323 371 C323 393 330 413 342 429 C340 431 337 434 334 436 C321 418 313 395 313 371 C313 346 321 324 334 306 L334 306 Z M364 333 L371 340 C366 349 362 360 362 371 C362 382 366 393 371 402 C369 404 366 406 364 409 C356 398 352 385 352 371 C352 357 356 344 364 333 L364 333 Z M395 403 C401 408 408 410 416 410 C424 410 431 407 437 403 C437 403 439 406 442 409 C435 415 426 418 416 418 C406 418 397 415 390 409 L395 403 Z M384 416 C393 423 404 428 416 428 C428 428 439 424 448 416 C450 419 452 421 454 423 C443 432 430 437 416 437 C401 437 388 432 377 423 L384 416 Z M371 430 C383 441 399 447 416 447 C433 447 449 441 461 430 C461 430 464 434 468 438 C454 450 436 457 416 457 C397 457 378 450 364 438 L371 430 Z M295 516 C327 545 370 562 416 562 C462 562 505 545 538 516 C538 516 545 523 544 523 C510 554 465 572 416 572 C367 572 322 554 288 524 L295 516 Z M416 240 C448 240 476 252 498 271 L491 278 C471 261 445 250 416 250 C388 250 361 261 340 278 L333 270 C355 251 384 240 416 240 L416 240 Z M416 285 C436 285 454 292 468 304 L461 312 C448 301 433 295 416 295 C399 295 383 302 370 312 L363 304 C378 292 396 285 416 285 L416 285 Z M416 305 C430 305 444 310 455 319 L448 326 C439 319 428 314 416 314 C404 314 393 319 383 326 L376 319 C388 310 401 305 416 305 L416 305 Z M341 464 C362 482 388 492 416 492 C445 492 471 481 491 464 L498 472 C476 491 447 502 416 502 C385 502 356 490 334 471 L341 464 Z M320 487 C346 509 380 523 416 523 C453 523 486 510 512 487 L518 494 C491 518 455 533 416 533 C377 533 341 519 313 495 L320 487 Z M610 597 L617 605 C563 653 493 682 416 682 C339 682 269 653 215 605 L222 598 C274 644 342 672 416 672 C491 672 559 644 610 597 L610 597 Z M172 654 C237 713 322 749 416 749 C510 749 596 713 661 654 L668 662 C601 722 512 759 416 759 C320 759 232 723 165 662 L172 654 Z M516 290 C534 312 544 340 544 371 C544 402 534 430 516 453 L508 446 C524 425 534 399 534 371 C534 343 524 317 509 297 L516 290 Z " />
<glyph glyph-name="registered" unicode="&#xae;" horiz-adv-x="525" d="M262 -8 C472 -8 502 116 502 371 C502 625 472 751 262 751 C54 751 24 625 24 371 C24 116 55 -8 262 -8 L262 -8 Z M262 44 C98 44 78 152 78 371 C78 590 97 698 262 698 C429 698 448 590 448 371 C448 152 429 44 262 44 L262 44 Z M305 149 L393 149 L337 326 C382 351 395 396 395 455 C395 553 368 593 263 593 L143 593 L143 149 L228 149 L228 308 L256 308 L305 149 Z M228 385 L228 516 L258 516 C299 516 310 508 310 451 C310 395 299 385 258 385 L228 385 Z " />
<glyph glyph-name="&amp;#xaf;" unicode="&#xaf;" horiz-adv-x="387" d="M80 610 L375 610 L391 729 L97 729 L80 610 Z " />
<glyph glyph-name="&amp;#x2c9;" unicode="&#x2c9;" horiz-adv-x="387" d="M80 610 L375 610 L391 729 L97 729 L80 610 Z " />
<glyph glyph-name="degree" unicode="&#xb0;" horiz-adv-x="379" d="M184 270 C329 270 352 359 372 498 C377 537 382 573 382 605 C382 690 352 750 234 750 C89 750 64 661 45 522 C39 484 36 448 36 416 C36 330 65 270 184 270 L184 270 Z M189 366 C158 366 147 381 147 418 C147 441 151 470 156 507 C171 608 177 640 226 640 C257 640 268 625 268 588 C268 566 264 537 259 500 C245 397 238 366 189 366 L189 366 Z " />
<glyph glyph-name="plusminus" unicode="&#xb1;" horiz-adv-x="744" d="M236 -152 L371 -152 L455 445 L515 445 L532 566 L472 566 L477 599 C482 636 491 645 524 645 L542 645 L559 763 C553 764 538 765 532 765 C408 765 359 723 344 614 L337 566 L239 566 L244 599 C249 636 259 645 291 645 L316 645 L332 763 C326 764 313 765 299 765 C177 765 126 723 111 614 L104 566 L36 566 L18 445 L87 445 L4 -152 L139 -152 L222 445 L320 445 L236 -152 Z M643 -2 C647 -2 666 -1 670 0 L687 120 L681 120 C644 120 642 127 648 165 L732 763 L596 763 L510 150 C494 31 525 -2 643 -2 L643 -2 Z " />
<glyph glyph-name="twosuperior" unicode="&#xb2;" horiz-adv-x="353" d="M28 256 L284 256 L297 351 L163 351 L294 522 C331 571 341 605 341 651 C341 709 302 747 208 747 C160 747 120 741 89 731 L117 637 C140 644 159 648 181 648 C215 648 226 639 226 620 C226 602 224 589 200 558 L42 351 L28 256 Z " />
<glyph glyph-name="threesuperior" unicode="&#xb3;" horiz-adv-x="342" d="M163 253 C246 253 285 292 300 391 C304 418 307 442 307 461 C307 493 298 514 275 525 C308 540 317 561 325 618 C327 630 328 642 328 654 C328 713 297 747 195 747 C145 747 105 740 86 733 L114 641 C133 647 159 649 174 649 C207 649 215 642 215 623 C215 616 215 610 214 603 C208 563 199 559 151 559 L114 559 L102 468 L120 468 C180 468 194 462 194 434 C194 426 193 417 192 406 C184 359 176 348 142 348 C111 348 85 361 72 368 L20 278 C42 267 78 253 163 253 L163 253 Z " />
<glyph glyph-name="acute" unicode="&#xb4;" horiz-adv-x="387" d="M148 610 L266 610 L403 776 L247 776 L148 610 Z " />
<glyph glyph-name="&amp;#xb5;" unicode="&#xb5;" horiz-adv-x="441" d="M-39 -152 L96 -152 L119 21 C134 6 160 -2 191 -2 C311 -2 365 60 382 181 L437 566 L303 566 L252 201 C243 139 232 116 189 116 C141 116 137 144 145 200 L197 566 L62 566 L-39 -152 Z " />
<glyph glyph-name="&amp;#x3bc;" unicode="&#x3bc;" horiz-adv-x="441" d="M-39 -152 L96 -152 L119 21 C134 6 160 -2 191 -2 C311 -2 365 60 382 181 L437 566 L303 566 L252 201 C243 139 232 116 189 116 C141 116 137 144 145 200 L197 566 L62 566 L-39 -152 Z " />
<glyph glyph-name="paragraph" unicode="&#xb6;" horiz-adv-x="462" d="M72 0 L199 0 L234 254 L266 254 L231 0 L358 0 L462 741 L280 741 C124 741 71 682 47 507 C43 477 40 450 40 425 C40 353 60 305 110 278 L72 0 Z M253 371 C193 371 170 388 170 444 C170 458 172 476 175 496 C189 598 211 616 269 616 L317 616 L283 371 L253 371 Z " />
<glyph glyph-name="&amp;#xb7;" unicode="&#xb7;" horiz-adv-x="221" d="M22 280 L173 280 L197 452 L46 452 L22 280 Z " />
<glyph glyph-name="&amp;#x2219;" unicode="&#x2219;" horiz-adv-x="221" d="M22 280 L173 280 L197 452 L46 452 L22 280 Z " />
<glyph glyph-name="cedilla" unicode="&#xb8;" horiz-adv-x="387" d="M120 -232 C195 -232 242 -209 242 -110 C242 -57 210 -45 170 -46 L191 22 L117 22 L88 -69 L107 -87 C134 -86 158 -87 158 -114 C158 -145 148 -155 116 -155 C95 -155 77 -148 58 -139 L18 -206 C41 -219 78 -232 120 -232 L120 -232 Z " />
<glyph glyph-name="onesuperior" unicode="&#xb9;" horiz-adv-x="283" d="M79 256 L196 256 L265 741 L94 741 L80 640 L133 640 L79 256 Z " />
<glyph glyph-name="ordmasculine" unicode="&#xba;" horiz-adv-x="396" d="M193 281 C326 281 359 375 377 507 C383 544 386 577 386 605 C386 687 353 750 243 750 C112 750 76 657 58 523 C53 489 50 456 50 426 C50 346 82 281 193 281 L193 281 Z M199 380 C170 380 160 396 160 429 C160 449 163 477 169 514 C182 613 189 644 235 644 C265 644 275 628 275 594 C275 574 271 546 266 509 C251 410 245 380 199 380 L199 380 Z M22 135 L306 135 L320 233 L36 233 L22 135 Z " />
<glyph glyph-name="guillemotright" unicode="&#xbb;" horiz-adv-x="530" d="M10 0 L130 0 L268 283 L210 566 L90 566 L141 283 L10 0 Z M214 0 L333 0 L472 283 L413 566 L294 566 L345 283 L214 0 Z " />
<glyph glyph-name="onequarter" unicode="&#xbc;" horiz-adv-x="705" d="M92 0 L205 0 L576 741 L463 741 L92 0 Z M338 79 L494 79 L483 0 L589 0 L600 79 L642 79 L656 175 L613 175 L627 271 L548 271 L510 175 L465 175 L633 485 L523 485 L351 169 L338 79 Z M61 256 L178 256 L246 741 L76 741 L61 640 L115 640 L61 256 Z " />
<glyph glyph-name="onehalf" unicode="&#xbd;" horiz-adv-x="749" d="M92 0 L205 0 L576 741 L463 741 L92 0 Z M61 256 L178 256 L246 741 L76 741 L61 640 L115 640 L61 256 Z M404 0 L660 0 L673 95 L539 95 L670 266 C707 315 717 349 717 395 C717 453 678 491 584 491 C536 491 496 485 465 475 L493 381 C516 388 535 392 557 392 C591 392 602 383 602 364 C602 346 600 333 576 302 L418 95 L404 0 Z " />
<glyph glyph-name="threequarters" unicode="&#xbe;" horiz-adv-x="763" d="M149 0 L263 0 L634 741 L520 741 L149 0 Z M156 253 C239 253 278 292 293 391 C297 418 300 442 300 461 C300 493 291 514 268 525 C301 540 310 561 318 618 C320 630 321 642 321 654 C321 713 290 747 188 747 C138 747 98 740 79 733 L107 641 C126 647 152 649 167 649 C200 649 208 642 208 623 C208 616 208 610 207 603 C201 563 192 559 144 559 L107 559 L95 468 L113 468 C173 468 187 462 187 434 C187 426 186 417 185 406 C177 359 169 348 135 348 C104 348 78 361 65 368 L13 278 C35 267 71 253 156 253 L156 253 Z M396 79 L552 79 L540 0 L646 0 L657 79 L700 79 L714 175 L671 175 L685 271 L606 271 L568 175 L523 175 L691 485 L580 485 L409 169 L396 79 Z " />
<glyph glyph-name="questiondown" unicode="&#xbf;" horiz-adv-x="443" d="M191 -9 C258 -9 310 -4 362 16 L317 133 C286 124 259 118 216 118 C171 118 156 142 156 169 C156 194 162 214 182 237 L248 314 C300 374 308 418 324 522 L192 522 C179 428 174 408 134 360 L75 289 C37 243 15 198 15 138 C15 64 58 -9 191 -9 L191 -9 Z M192 590 L343 590 L364 741 L213 741 L192 590 Z " />
<glyph glyph-name="Agrave" unicode="&#xc0;" horiz-adv-x="499" d="M-45 0 L95 0 L133 112 L288 112 L296 0 L442 0 L377 743 L224 743 L-45 0 Z M175 238 L230 402 L263 507 L269 401 L278 238 L175 238 Z M257 770 L376 770 L324 936 L167 936 L257 770 Z " />
<glyph glyph-name="Aacute" unicode="&#xc1;" horiz-adv-x="499" d="M-45 0 L95 0 L133 112 L288 112 L296 0 L442 0 L377 743 L224 743 L-45 0 Z M175 238 L230 402 L263 507 L269 401 L278 238 L175 238 Z M226 770 L344 770 L481 936 L325 936 L226 770 Z " />
<glyph glyph-name="Acircumflex" unicode="&#xc2;" horiz-adv-x="499" d="M-45 0 L95 0 L133 112 L288 112 L296 0 L442 0 L377 743 L224 743 L-45 0 Z M175 238 L230 402 L263 507 L269 401 L278 238 L175 238 Z M134 770 L253 770 L316 846 L358 770 L474 770 L396 936 L259 936 L134 770 Z " />
<glyph glyph-name="Atilde" unicode="&#xc3;" horiz-adv-x="499" d="M-45 0 L95 0 L133 112 L288 112 L296 0 L442 0 L377 743 L224 743 L-45 0 Z M175 238 L230 402 L263 507 L269 401 L278 238 L175 238 Z M240 765 C248 795 255 801 272 801 C290 801 326 770 366 770 C443 770 471 816 489 900 L388 917 C380 887 373 881 356 881 C337 881 302 912 262 912 C184 912 157 866 138 782 L240 765 Z " />
<glyph glyph-name="Adieresis" unicode="&#xc4;" horiz-adv-x="499" d="M-45 0 L95 0 L133 112 L288 112 L296 0 L442 0 L377 743 L224 743 L-45 0 Z M175 238 L230 402 L263 507 L269 401 L278 238 L175 238 Z M166 770 L283 770 L301 898 L184 898 L166 770 Z M329 770 L445 770 L464 898 L347 898 L329 770 Z " />
<glyph glyph-name="Aring" unicode="&#xc5;" horiz-adv-x="499" d="M-45 0 L95 0 L133 112 L288 112 L296 0 L442 0 L379 714 C395 734 403 761 407 794 C409 806 410 819 410 831 C410 885 389 926 312 926 C235 926 211 880 201 808 C200 796 199 785 199 773 C198 749 202 728 213 712 L-45 0 Z M175 238 L230 402 L263 507 L269 401 L278 238 L175 238 Z M298 744 C274 744 265 757 265 781 C265 788 266 795 267 803 C272 840 279 861 310 861 C334 861 342 847 342 824 C342 816 341 808 340 799 C335 763 329 744 298 744 L298 744 Z " />
<glyph glyph-name="AE" unicode="&#xc6;" horiz-adv-x="683" d="M-61 0 L82 0 L151 155 L290 155 L268 0 L617 0 L635 127 L418 127 L444 311 L650 311 L668 440 L462 440 L486 611 L703 611 L721 741 L280 741 L-61 0 Z M203 273 L353 606 L306 273 L203 273 Z " />
<glyph glyph-name="Ccedilla" unicode="&#xc7;" horiz-adv-x="403" d="M128 -232 C203 -232 250 -209 250 -110 C250 -57 218 -45 178 -46 L191 -4 C199 -4 208 -5 217 -5 C271 -5 312 5 350 22 L309 140 C285 131 262 126 234 126 C172 126 150 149 150 220 C150 257 155 306 165 372 C194 572 211 614 288 614 C325 614 361 605 382 595 L437 725 C401 740 359 750 287 750 C106 750 57 631 22 380 C12 313 6 256 6 212 C6 110 40 39 121 10 L96 -69 L115 -87 C142 -86 166 -87 166 -114 C166 -145 156 -155 124 -155 C103 -155 85 -148 66 -139 L26 -206 C49 -219 86 -232 128 -232 L128 -232 Z " />
<glyph glyph-name="Egrave" unicode="&#xc8;" horiz-adv-x="428" d="M-9 0 L348 0 L365 127 L148 127 L175 311 L382 311 L400 440 L193 440 L217 611 L434 611 L452 741 L95 741 L-9 0 Z M222 770 L341 770 L289 936 L132 936 L222 770 Z " />
<glyph glyph-name="Eacute" unicode="&#xc9;" horiz-adv-x="428" d="M191 770 L309 770 L446 936 L290 936 L191 770 Z M-9 0 L348 0 L365 127 L148 127 L175 311 L382 311 L400 440 L193 440 L217 611 L434 611 L452 741 L95 741 L-9 0 Z " />
<glyph glyph-name="Ecircumflex" unicode="&#xca;" horiz-adv-x="428" d="M99 770 L218 770 L281 846 L323 770 L439 770 L361 936 L224 936 L99 770 Z M-9 0 L348 0 L365 127 L148 127 L175 311 L382 311 L400 440 L193 440 L217 611 L434 611 L452 741 L95 741 L-9 0 Z " />
<glyph glyph-name="Edieresis" unicode="&#xcb;" horiz-adv-x="428" d="M131 770 L248 770 L266 898 L149 898 L131 770 Z M294 770 L410 770 L429 898 L312 898 L294 770 Z M-9 0 L348 0 L365 127 L148 127 L175 311 L382 311 L400 440 L193 440 L217 611 L434 611 L452 741 L95 741 L-9 0 Z " />
<glyph glyph-name="Igrave" unicode="&#xcc;" horiz-adv-x="240" d="M118 771 L237 771 L198 937 L41 937 L118 771 Z M-2 0 L138 0 L242 741 L102 741 L-2 0 Z " />
<glyph glyph-name="Iacute" unicode="&#xcd;" horiz-adv-x="240" d="M112 771 L230 771 L355 937 L199 937 L112 771 Z M-2 0 L138 0 L242 741 L102 741 L-2 0 Z " />
<glyph glyph-name="Icircumflex" unicode="&#xce;" horiz-adv-x="240" d="M-2 0 L138 0 L242 741 L102 741 L-2 0 Z M5 770 L124 770 L187 846 L229 770 L345 770 L267 936 L130 936 L5 770 Z " />
<glyph glyph-name="Idieresis" unicode="&#xcf;" horiz-adv-x="240" d="M-2 0 L138 0 L242 741 L102 741 L-2 0 Z M37 770 L154 770 L172 898 L55 898 L37 770 Z M200 770 L316 770 L335 898 L218 898 L200 770 Z " />
<glyph glyph-name="Eth" unicode="&#xd0;" horiz-adv-x="500" d="M-8 313 L34 313 L-10 0 L210 0 C410 0 444 119 477 356 C486 423 493 481 493 530 C493 660 443 741 257 741 L95 741 L51 431 L9 431 L-8 313 Z M148 122 L175 313 L244 313 L261 431 L191 431 L217 614 L249 614 C326 614 349 588 349 517 C349 480 343 430 333 363 C306 165 293 122 207 122 L148 122 Z " />
<glyph glyph-name="Ntilde" unicode="&#xd1;" horiz-adv-x="511" d="M-9 0 L121 0 L182 429 L208 312 L289 0 L416 0 L520 741 L389 741 L333 346 L306 471 L239 741 L95 741 L-9 0 Z M246 765 C254 795 261 801 278 801 C296 801 332 770 372 770 C449 770 477 816 495 900 L394 917 C386 887 379 881 362 881 C343 881 308 912 268 912 C190 912 163 866 144 782 L246 765 Z " />
<glyph glyph-name="Ograve" unicode="&#xd2;" horiz-adv-x="515" d="M220 -5 C417 -5 460 137 491 357 C500 421 509 483 509 533 C509 656 457 750 297 750 C96 750 54 609 23 386 C14 321 6 263 6 213 C6 90 58 -5 220 -5 L220 -5 Z M230 124 C169 124 149 152 149 220 C149 258 156 308 165 375 C192 564 208 615 285 615 C344 615 364 586 364 519 C364 481 358 430 348 362 C321 174 305 124 230 124 L230 124 Z M264 770 L383 770 L331 936 L174 936 L264 770 Z " />
<glyph glyph-name="Oacute" unicode="&#xd3;" horiz-adv-x="515" d="M233 770 L351 770 L488 936 L332 936 L233 770 Z M220 -5 C417 -5 460 137 491 357 C500 421 509 483 509 533 C509 656 457 750 297 750 C96 750 54 609 23 386 C14 321 6 263 6 213 C6 90 58 -5 220 -5 L220 -5 Z M230 124 C169 124 149 152 149 220 C149 258 156 308 165 375 C192 564 208 615 285 615 C344 615 364 586 364 519 C364 481 358 430 348 362 C321 174 305 124 230 124 L230 124 Z " />
<glyph glyph-name="Ocircumflex" unicode="&#xd4;" horiz-adv-x="515" d="M141 770 L260 770 L323 846 L365 770 L481 770 L403 936 L266 936 L141 770 Z M220 -5 C417 -5 460 137 491 357 C500 421 509 483 509 533 C509 656 457 750 297 750 C96 750 54 609 23 386 C14 321 6 263 6 213 C6 90 58 -5 220 -5 L220 -5 Z M230 124 C169 124 149 152 149 220 C149 258 156 308 165 375 C192 564 208 615 285 615 C344 615 364 586 364 519 C364 481 358 430 348 362 C321 174 305 124 230 124 L230 124 Z " />
<glyph glyph-name="Otilde" unicode="&#xd5;" horiz-adv-x="515" d="M220 -5 C417 -5 460 137 491 357 C500 421 509 483 509 533 C509 656 457 750 297 750 C96 750 54 609 23 386 C14 321 6 263 6 213 C6 90 58 -5 220 -5 L220 -5 Z M230 124 C169 124 149 152 149 220 C149 258 156 308 165 375 C192 564 208 615 285 615 C344 615 364 586 364 519 C364 481 358 430 348 362 C321 174 305 124 230 124 L230 124 Z M247 765 C255 795 262 801 279 801 C297 801 333 770 373 770 C450 770 478 816 496 900 L395 917 C387 887 380 881 363 881 C344 881 309 912 269 912 C191 912 164 866 145 782 L247 765 Z " />
<glyph glyph-name="Odieresis" unicode="&#xd6;" horiz-adv-x="515" d="M173 770 L290 770 L308 898 L191 898 L173 770 Z M336 770 L452 770 L471 898 L354 898 L336 770 Z M220 -5 C417 -5 460 137 491 357 C500 421 509 483 509 533 C509 656 457 750 297 750 C96 750 54 609 23 386 C14 321 6 263 6 213 C6 90 58 -5 220 -5 L220 -5 Z M230 124 C169 124 149 152 149 220 C149 258 156 308 165 375 C192 564 208 615 285 615 C344 615 364 586 364 519 C364 481 358 430 348 362 C321 174 305 124 230 124 L230 124 Z " />
<glyph glyph-name="multiply" unicode="&#xd7;" horiz-adv-x="494" d="M139 206 L235 290 L308 206 L388 277 L315 361 L416 449 L352 523 L251 435 L179 520 L100 449 L171 365 L74 280 L139 206 Z " />
<glyph glyph-name="Oslash" unicode="&#xd8;" horiz-adv-x="515" d="M220 -5 C417 -5 460 137 491 357 C500 421 509 483 509 533 C509 608 489 673 437 711 L464 783 L358 783 L344 746 C330 748 314 750 297 750 C96 750 54 609 23 386 C14 321 6 263 6 213 C6 138 25 73 77 34 L49 -41 L154 -41 L169 -1 C184 -3 201 -5 220 -5 L220 -5 Z M228 114 C219 114 212 114 205 115 L368 549 C368 541 369 533 369 525 C369 486 362 432 352 362 C324 165 305 114 228 114 L228 114 Z M144 214 C144 253 152 306 161 375 C189 572 208 624 288 624 C294 624 300 623 305 623 L144 192 L144 214 Z " />
<glyph glyph-name="Ugrave" unicode="&#xd9;" horiz-adv-x="509" d="M221 -9 C387 -9 428 72 451 234 L522 741 L385 741 L315 242 C302 149 283 121 224 121 C158 121 149 159 161 240 L231 741 L90 741 L19 234 C-3 80 31 -9 221 -9 L221 -9 Z M262 770 L381 770 L329 936 L172 936 L262 770 Z " />
<glyph glyph-name="Uacute" unicode="&#xda;" horiz-adv-x="509" d="M231 770 L349 770 L486 936 L330 936 L231 770 Z M221 -9 C387 -9 428 72 451 234 L522 741 L385 741 L315 242 C302 149 283 121 224 121 C158 121 149 159 161 240 L231 741 L90 741 L19 234 C-3 80 31 -9 221 -9 L221 -9 Z " />
<glyph glyph-name="Ucircumflex" unicode="&#xdb;" horiz-adv-x="509" d="M139 770 L258 770 L321 846 L363 770 L479 770 L401 936 L264 936 L139 770 Z M221 -9 C387 -9 428 72 451 234 L522 741 L385 741 L315 242 C302 149 283 121 224 121 C158 121 149 159 161 240 L231 741 L90 741 L19 234 C-3 80 31 -9 221 -9 L221 -9 Z " />
<glyph glyph-name="Udieresis" unicode="&#xdc;" horiz-adv-x="509" d="M171 770 L288 770 L306 898 L189 898 L171 770 Z M334 770 L450 770 L469 898 L352 898 L334 770 Z M221 -9 C387 -9 428 72 451 234 L522 741 L385 741 L315 242 C302 149 283 121 224 121 C158 121 149 159 161 240 L231 741 L90 741 L19 234 C-3 80 31 -9 221 -9 L221 -9 Z " />
<glyph glyph-name="Yacute" unicode="&#xdd;" horiz-adv-x="479" d="M116 0 L256 0 L291 246 L535 741 L389 741 L248 437 L194 741 L47 741 L151 251 L116 0 Z M216 770 L334 770 L471 936 L315 936 L216 770 Z " />
<glyph glyph-name="Thorn" unicode="&#xde;" horiz-adv-x="484" d="M-9 0 L129 0 L149 137 L234 137 C386 137 438 200 463 374 C468 406 470 435 470 461 C470 575 420 631 256 631 L218 631 L233 741 L95 741 L-9 0 Z M166 261 L200 506 L248 506 C309 506 332 490 332 436 C332 421 330 403 327 379 C313 280 291 261 237 261 L166 261 Z " />
<glyph glyph-name="germandbls" unicode="&#xdf;" horiz-adv-x="453" d="M-39 -152 L96 -152 L198 574 C204 613 213 647 261 647 C303 647 317 631 317 589 C317 576 316 560 313 541 C303 467 289 445 244 445 L225 445 L209 332 L217 332 C274 332 292 323 292 273 C292 260 290 244 288 225 C275 136 255 120 202 120 L170 120 L154 0 L203 0 C331 0 389 26 414 202 C419 240 423 274 423 301 C423 358 409 391 362 407 C413 426 421 466 437 569 C440 592 442 614 442 634 C442 726 398 774 267 774 C138 774 82 709 65 587 L-39 -152 Z " />
<glyph glyph-name="agrave" unicode="&#xe0;" horiz-adv-x="429" d="M125 -5 C176 -5 213 8 238 31 C246 10 259 -2 304 -2 C315 -2 351 -2 361 0 L377 120 C347 120 349 130 352 157 L386 403 C403 517 367 573 231 573 C156 573 101 564 66 550 L107 429 C135 438 168 442 201 442 C249 442 254 419 250 382 L217 382 C71 382 12 348 -11 188 C-14 166 -16 146 -16 128 C-15 44 24 -5 125 -5 L125 -5 Z M155 109 C124 109 116 126 116 153 C116 165 117 180 120 197 C131 269 150 275 236 275 L224 186 C218 139 205 109 155 109 L155 109 Z M200 610 L319 610 L267 776 L110 776 L200 610 Z " />
<glyph glyph-name="aacute" unicode="&#xe1;" horiz-adv-x="429" d="M125 -5 C176 -5 213 8 238 31 C246 10 259 -2 304 -2 C315 -2 351 -2 361 0 L377 120 C347 120 349 130 352 157 L386 403 C403 517 367 573 231 573 C156 573 101 564 66 550 L107 429 C135 438 168 442 201 442 C249 442 254 419 250 382 L217 382 C71 382 12 348 -11 188 C-14 166 -16 146 -16 128 C-15 44 24 -5 125 -5 L125 -5 Z M155 109 C124 109 116 126 116 153 C116 165 117 180 120 197 C131 269 150 275 236 275 L224 186 C218 139 205 109 155 109 L155 109 Z M169 610 L287 610 L424 776 L268 776 L169 610 Z " />
<glyph glyph-name="acircumflex" unicode="&#xe2;" horiz-adv-x="429" d="M125 -5 C176 -5 213 8 238 31 C246 10 259 -2 304 -2 C315 -2 351 -2 361 0 L377 120 C347 120 349 130 352 157 L386 403 C403 517 367 573 231 573 C156 573 101 564 66 550 L107 429 C135 438 168 442 201 442 C249 442 254 419 250 382 L217 382 C71 382 12 348 -11 188 C-14 166 -16 146 -16 128 C-15 44 24 -5 125 -5 L125 -5 Z M155 109 C124 109 116 126 116 153 C116 165 117 180 120 197 C131 269 150 275 236 275 L224 186 C218 139 205 109 155 109 L155 109 Z M77 610 L196 610 L259 686 L301 610 L417 610 L339 776 L202 776 L77 610 Z " />
<glyph glyph-name="atilde" unicode="&#xe3;" horiz-adv-x="429" d="M125 -5 C176 -5 213 8 238 31 C246 10 259 -2 304 -2 C315 -2 351 -2 361 0 L377 120 C347 120 349 130 352 157 L386 403 C403 517 367 573 231 573 C156 573 101 564 66 550 L107 429 C135 438 168 442 201 442 C249 442 254 419 250 382 L217 382 C71 382 12 348 -11 188 C-14 166 -16 146 -16 128 C-15 44 24 -5 125 -5 L125 -5 Z M155 109 C124 109 116 126 116 153 C116 165 117 180 120 197 C131 269 150 275 236 275 L224 186 C218 139 205 109 155 109 L155 109 Z M183 605 C191 635 198 641 215 641 C233 641 269 610 309 610 C386 610 414 656 432 740 L331 757 C323 727 316 721 299 721 C280 721 245 752 205 752 C127 752 100 706 81 622 L183 605 Z " />
<glyph glyph-name="adieresis" unicode="&#xe4;" horiz-adv-x="429" d="M125 -5 C176 -5 213 8 238 31 C246 10 259 -2 304 -2 C315 -2 351 -2 361 0 L377 120 C347 120 349 130 352 157 L386 403 C403 517 367 573 231 573 C156 573 101 564 66 550 L107 429 C135 438 168 442 201 442 C249 442 254 419 250 382 L217 382 C71 382 12 348 -11 188 C-14 166 -16 146 -16 128 C-15 44 24 -5 125 -5 L125 -5 Z M155 109 C124 109 116 126 116 153 C116 165 117 180 120 197 C131 269 150 275 236 275 L224 186 C218 139 205 109 155 109 L155 109 Z M109 610 L226 610 L244 738 L127 738 L109 610 Z M272 610 L388 610 L407 738 L290 738 L272 610 Z " />
<glyph glyph-name="aring" unicode="&#xe5;" horiz-adv-x="429" d="M125 -5 C176 -5 213 8 238 31 C246 10 259 -2 304 -2 C315 -2 351 -2 361 0 L377 120 C347 120 349 130 352 157 L386 403 C403 517 367 573 231 573 C156 573 101 564 66 550 L107 429 C135 438 168 442 201 442 C249 442 254 419 250 382 L217 382 C71 382 12 348 -11 188 C-14 166 -16 146 -16 128 C-15 44 24 -5 125 -5 L125 -5 Z M155 109 C124 109 116 126 116 153 C116 165 117 180 120 197 C131 269 150 275 236 275 L224 186 C218 139 205 109 155 109 L155 109 Z M252 604 C333 604 358 647 367 717 C369 729 370 742 370 754 C370 808 349 849 272 849 C195 849 171 803 161 731 C160 719 159 708 159 696 C158 643 178 604 252 604 L252 604 Z M258 667 C234 667 225 680 225 704 C225 711 226 718 227 726 C232 763 239 784 270 784 C294 784 302 770 302 747 C302 739 301 731 300 722 C295 686 289 667 258 667 L258 667 Z " />
<glyph glyph-name="ae" unicode="&#xe6;" horiz-adv-x="632" d="M403 -5 C469 -5 509 0 563 18 L528 129 C494 118 458 114 421 114 C371 114 354 126 354 176 C354 188 355 203 357 222 L591 222 C606 308 615 368 615 417 C615 519 573 573 453 573 C407 573 372 563 346 543 C324 563 287 573 231 573 C156 573 101 564 66 550 L107 429 C135 438 168 442 201 442 C249 442 254 419 250 382 L217 382 C71 382 12 348 -11 188 C-14 166 -16 146 -16 128 C-15 44 24 -5 125 -5 C196 -5 236 2 274 43 C298 12 338 -5 403 -5 L403 -5 Z M155 109 C124 109 116 126 116 153 C116 165 117 180 120 197 C131 269 151 275 236 275 L225 196 C217 139 205 109 155 109 L155 109 Z M445 449 C481 449 492 437 492 401 C492 382 489 365 485 335 L373 335 C388 424 401 449 445 449 L445 449 Z " />
<glyph glyph-name="ccedilla" unicode="&#xe7;" horiz-adv-x="327" d="M91 -232 C166 -232 213 -209 213 -110 C213 -57 181 -45 141 -46 L154 -4 L167 -4 C205 -4 232 -1 267 9 L239 124 C222 119 206 117 191 117 C151 117 135 131 135 182 C135 207 139 240 145 284 C163 411 177 441 224 441 C251 441 266 436 281 430 L336 553 C312 563 282 572 221 572 C77 572 31 468 6 297 C0 252 -4 211 -4 176 C-4 99 20 37 84 10 L59 -69 L78 -87 C105 -86 129 -87 129 -114 C129 -145 119 -155 87 -155 C66 -155 48 -148 29 -139 L-11 -206 C12 -219 49 -232 91 -232 L91 -232 Z " />
<glyph glyph-name="egrave" unicode="&#xe8;" horiz-adv-x="403" d="M174 -5 C240 -5 280 0 334 18 L299 128 C265 117 229 113 192 113 C142 113 126 126 126 176 C126 188 127 203 129 222 L362 222 C377 308 386 368 386 417 C386 519 344 573 224 573 C84 573 33 481 6 297 C0 253 -4 213 -4 178 C-4 68 43 -5 174 -5 L174 -5 Z M216 449 C252 449 263 437 263 401 C263 382 261 367 256 333 L143 333 C158 423 172 449 216 449 L216 449 Z M187 610 L306 610 L254 776 L97 776 L187 610 Z " />
<glyph glyph-name="eacute" unicode="&#xe9;" horiz-adv-x="403" d="M156 610 L274 610 L411 776 L255 776 L156 610 Z M174 -5 C240 -5 280 0 334 18 L299 128 C265 117 229 113 192 113 C142 113 126 126 126 176 C126 188 127 203 129 222 L362 222 C377 308 386 368 386 417 C386 519 344 573 224 573 C84 573 33 481 6 297 C0 253 -4 213 -4 178 C-4 68 43 -5 174 -5 L174 -5 Z M216 449 C252 449 263 437 263 401 C263 382 261 367 256 333 L143 333 C158 423 172 449 216 449 L216 449 Z " />
<glyph glyph-name="ecircumflex" unicode="&#xea;" horiz-adv-x="403" d="M64 610 L183 610 L246 686 L288 610 L404 610 L326 776 L189 776 L64 610 Z M174 -5 C240 -5 280 0 334 18 L299 128 C265 117 229 113 192 113 C142 113 126 126 126 176 C126 188 127 203 129 222 L362 222 C377 308 386 368 386 417 C386 519 344 573 224 573 C84 573 33 481 6 297 C0 253 -4 213 -4 178 C-4 68 43 -5 174 -5 L174 -5 Z M216 449 C252 449 263 437 263 401 C263 382 261 367 256 333 L143 333 C158 423 172 449 216 449 L216 449 Z " />
<glyph glyph-name="edieresis" unicode="&#xeb;" horiz-adv-x="403" d="M96 610 L213 610 L231 738 L114 738 L96 610 Z M259 610 L375 610 L394 738 L277 738 L259 610 Z M174 -5 C240 -5 280 0 334 18 L299 128 C265 117 229 113 192 113 C142 113 126 126 126 176 C126 188 127 203 129 222 L362 222 C377 308 386 368 386 417 C386 519 344 573 224 573 C84 573 33 481 6 297 C0 253 -4 213 -4 178 C-4 68 43 -5 174 -5 L174 -5 Z M216 449 C252 449 263 437 263 401 C263 382 261 367 256 333 L143 333 C158 423 172 449 216 449 L216 449 Z " />
<glyph glyph-name="igrave" unicode="&#xec;" horiz-adv-x="213" d="M85 610 L204 610 L181 776 L32 776 L85 610 Z M-14 0 L122 0 L202 566 L66 566 L-14 0 Z " />
<glyph glyph-name="iacute" unicode="&#xed;" horiz-adv-x="213" d="M77 610 L196 610 L293 776 L144 776 L77 610 Z M-14 0 L122 0 L202 566 L66 566 L-14 0 Z " />
<glyph glyph-name="icircumflex" unicode="&#xee;" horiz-adv-x="213" d="M-22 610 L97 610 L150 686 L183 610 L299 610 L230 776 L93 776 L-22 610 Z M-14 0 L122 0 L202 566 L66 566 L-14 0 Z " />
<glyph glyph-name="idieresis" unicode="&#xef;" horiz-adv-x="213" d="M-1 610 L116 610 L134 738 L17 738 L-1 610 Z M159 610 L276 610 L294 738 L177 738 L159 610 Z M-14 0 L122 0 L202 566 L66 566 L-14 0 Z " />
<glyph glyph-name="eth" unicode="&#xf0;" horiz-adv-x="433" d="M201 572 L280 589 C285 564 289 540 291 520 C275 540 246 551 191 551 C58 551 27 443 7 295 C0 248 -4 208 -4 174 C-4 70 40 -5 181 -5 C321 -5 371 80 403 284 C413 356 417 416 417 468 C417 524 412 573 403 616 L449 626 L464 734 L373 714 C363 737 353 757 342 775 L230 736 C237 721 244 705 251 687 L216 680 L201 572 Z M184 117 C143 117 131 136 131 178 C131 203 135 236 141 279 C158 398 165 435 222 435 C262 435 274 416 274 374 C274 350 270 316 263 272 C246 154 239 117 184 117 L184 117 Z " />
<glyph glyph-name="ntilde" unicode="&#xf1;" horiz-adv-x="445" d="M-17 0 L118 0 L167 348 C177 423 191 442 234 442 C280 442 283 416 275 352 L225 0 L361 0 L418 402 C429 493 422 573 293 573 C240 573 199 563 176 539 L175 566 L61 559 L-17 0 Z M191 605 C199 635 206 641 223 641 C241 641 277 610 317 610 C394 610 422 656 440 740 L339 757 C331 727 324 721 307 721 C288 721 253 752 213 752 C135 752 108 706 89 622 L191 605 Z " />
<glyph glyph-name="ograve" unicode="&#xf2;" horiz-adv-x="433" d="M176 -5 C336 -5 378 107 401 272 C407 316 412 357 412 393 C412 490 372 573 232 573 C72 573 30 461 6 296 C0 253 -4 213 -4 177 C-4 78 35 -5 176 -5 L176 -5 Z M184 117 C144 117 131 136 131 180 C131 204 135 238 142 283 C159 406 168 442 223 442 C262 442 274 424 274 379 C274 355 271 321 264 276 C246 154 238 117 184 117 L184 117 Z M201 610 L320 610 L268 776 L111 776 L201 610 Z " />
<glyph glyph-name="oacute" unicode="&#xf3;" horiz-adv-x="433" d="M170 610 L288 610 L425 776 L269 776 L170 610 Z M176 -5 C336 -5 378 107 401 272 C407 316 412 357 412 393 C412 490 372 573 232 573 C72 573 30 461 6 296 C0 253 -4 213 -4 177 C-4 78 35 -5 176 -5 L176 -5 Z M184 117 C144 117 131 136 131 180 C131 204 135 238 142 283 C159 406 168 442 223 442 C262 442 274 424 274 379 C274 355 271 321 264 276 C246 154 238 117 184 117 L184 117 Z " />
<glyph glyph-name="ocircumflex" unicode="&#xf4;" horiz-adv-x="433" d="M78 610 L197 610 L260 686 L302 610 L418 610 L340 776 L203 776 L78 610 Z M176 -5 C336 -5 378 107 401 272 C407 316 412 357 412 393 C412 490 372 573 232 573 C72 573 30 461 6 296 C0 253 -4 213 -4 177 C-4 78 35 -5 176 -5 L176 -5 Z M184 117 C144 117 131 136 131 180 C131 204 135 238 142 283 C159 406 168 442 223 442 C262 442 274 424 274 379 C274 355 271 321 264 276 C246 154 238 117 184 117 L184 117 Z " />
<glyph glyph-name="otilde" unicode="&#xf5;" horiz-adv-x="433" d="M176 -5 C336 -5 378 107 401 272 C407 316 412 357 412 393 C412 490 372 573 232 573 C72 573 30 461 6 296 C0 253 -4 213 -4 177 C-4 78 35 -5 176 -5 L176 -5 Z M184 117 C144 117 131 136 131 180 C131 204 135 238 142 283 C159 406 168 442 223 442 C262 442 274 424 274 379 C274 355 271 321 264 276 C246 154 238 117 184 117 L184 117 Z M184 605 C192 635 199 641 216 641 C234 641 270 610 310 610 C387 610 415 656 433 740 L332 757 C324 727 317 721 300 721 C281 721 246 752 206 752 C128 752 101 706 82 622 L184 605 Z " />
<glyph glyph-name="odieresis" unicode="&#xf6;" horiz-adv-x="433" d="M110 610 L227 610 L245 738 L128 738 L110 610 Z M273 610 L389 610 L408 738 L291 738 L273 610 Z M176 -5 C336 -5 378 107 401 272 C407 316 412 357 412 393 C412 490 372 573 232 573 C72 573 30 461 6 296 C0 253 -4 213 -4 177 C-4 78 35 -5 176 -5 L176 -5 Z M184 117 C144 117 131 136 131 180 C131 204 135 238 142 283 C159 406 168 442 223 442 C262 442 274 424 274 379 C274 355 271 321 264 276 C246 154 238 117 184 117 L184 117 Z " />
<glyph glyph-name="divide" unicode="&#xf7;" horiz-adv-x="494" d="M146 125 L279 125 L296 245 L163 245 L146 125 Z M48 300 L424 300 L443 429 L67 429 L48 300 Z M196 482 L329 482 L346 603 L213 603 L196 482 Z " />
<glyph glyph-name="oslash" unicode="&#xf8;" horiz-adv-x="433" d="M176 -5 C336 -5 378 107 401 272 C407 316 412 357 412 393 C412 450 398 503 357 536 L388 610 L294 610 L277 569 C263 571 248 573 232 573 C72 573 30 461 6 296 C0 253 -4 213 -4 177 C-4 118 9 64 51 31 L20 -43 L114 -43 L131 -1 C145 -3 160 -5 176 -5 L176 -5 Z M183 111 L170 111 L278 367 C277 343 274 313 269 276 C250 148 239 111 183 111 L183 111 Z M137 283 C155 411 166 448 224 448 C227 448 231 448 234 447 L126 193 C128 216 132 246 137 283 L137 283 Z " />
<glyph glyph-name="ugrave" unicode="&#xf9;" horiz-adv-x="439" d="M189 -5 C309 -5 363 60 380 181 L434 566 L301 566 L250 201 C241 139 228 116 187 116 C142 116 135 144 143 200 L195 566 L60 566 L7 194 C-11 69 32 -5 189 -5 L189 -5 Z M205 610 L324 610 L272 776 L115 776 L205 610 Z " />
<glyph glyph-name="uacute" unicode="&#xfa;" horiz-adv-x="439" d="M174 610 L292 610 L429 776 L273 776 L174 610 Z M189 -5 C309 -5 363 60 380 181 L434 566 L301 566 L250 201 C241 139 228 116 187 116 C142 116 135 144 143 200 L195 566 L60 566 L7 194 C-11 69 32 -5 189 -5 L189 -5 Z " />
<glyph glyph-name="ucircumflex" unicode="&#xfb;" horiz-adv-x="439" d="M82 610 L201 610 L264 686 L306 610 L422 610 L344 776 L207 776 L82 610 Z M189 -5 C309 -5 363 60 380 181 L434 566 L301 566 L250 201 C241 139 228 116 187 116 C142 116 135 144 143 200 L195 566 L60 566 L7 194 C-11 69 32 -5 189 -5 L189 -5 Z " />
<glyph glyph-name="udieresis" unicode="&#xfc;" horiz-adv-x="439" d="M114 610 L231 610 L249 738 L132 738 L114 610 Z M277 610 L393 610 L412 738 L295 738 L277 610 Z M189 -5 C309 -5 363 60 380 181 L434 566 L301 566 L250 201 C241 139 228 116 187 116 C142 116 135 144 143 200 L195 566 L60 566 L7 194 C-11 69 32 -5 189 -5 L189 -5 Z " />
<glyph glyph-name="yacute" unicode="&#xfd;" horiz-adv-x="398" d="M17 -154 C109 -154 154 -134 191 -38 L425 566 L290 566 L222 361 L182 227 L176 365 L164 566 L27 566 L84 9 L77 -12 C70 -28 61 -32 24 -33 L-14 -33 L-31 -152 C-23 -154 4 -154 17 -154 L17 -154 Z M153 610 L271 610 L408 776 L252 776 L153 610 Z " />
<glyph glyph-name="thorn" unicode="&#xfe;" horiz-adv-x="446" d="M-39 -152 L96 -152 L122 30 C139 8 176 -4 240 -4 C362 -4 389 100 413 273 C421 328 428 377 428 419 C428 506 399 573 290 573 C258 573 219 566 192 544 L224 763 L89 763 L-39 -152 Z M198 117 C158 117 145 137 145 179 C145 204 150 237 156 283 C174 409 181 442 237 442 C273 442 286 422 286 377 C286 351 282 316 275 273 C259 150 247 117 198 117 L198 117 Z " />
<glyph glyph-name="ydieresis" unicode="&#xff;" horiz-adv-x="398" d="M17 -154 C109 -154 154 -134 191 -38 L425 566 L290 566 L222 361 L182 227 L176 365 L164 566 L27 566 L84 9 L77 -12 C70 -28 61 -32 24 -33 L-14 -33 L-31 -152 C-23 -154 4 -154 17 -154 L17 -154 Z M93 610 L210 610 L228 738 L111 738 L93 610 Z M256 610 L372 610 L391 738 L274 738 L256 610 Z " />
<glyph glyph-name="dotlessi" unicode="&#x131;" horiz-adv-x="213" d="M-14 0 L122 0 L202 566 L66 566 L-14 0 Z " />
<glyph glyph-name="Lslash" unicode="&#x141;" horiz-adv-x="396" d="M-11 286 L32 297 L-9 0 L335 0 L353 127 L148 127 L177 333 L258 354 L275 472 L194 451 L235 741 L95 741 L49 415 L5 404 L-11 286 Z " />
<glyph glyph-name="lslash" unicode="&#x142;" horiz-adv-x="281" d="M0 371 L62 404 L27 150 C11 31 43 -2 160 -2 C164 -2 183 -1 187 0 L204 120 L198 120 C161 120 159 127 165 165 L209 482 L280 520 L297 639 L226 601 L249 763 L113 763 L79 523 L17 490 L0 371 Z " />
<glyph glyph-name="OE" unicode="&#x152;" horiz-adv-x="728" d="M299 0 L647 0 L665 127 L448 127 L474 311 L681 311 L700 440 L492 440 L516 611 L733 611 L751 741 L403 741 L402 733 C375 744 341 750 297 750 C96 750 54 609 23 386 C14 321 6 263 6 213 C6 90 58 -5 220 -5 C250 -5 276 -1 299 4 L299 0 Z M230 124 C169 124 149 152 149 220 C149 258 156 308 165 375 C192 564 208 615 285 615 C344 615 364 586 364 519 C364 481 358 430 348 362 C321 174 305 124 230 124 L230 124 Z " />
<glyph glyph-name="oe" unicode="&#x153;" horiz-adv-x="657" d="M428 -5 C494 -5 534 0 588 18 L553 127 C519 116 483 112 446 112 C396 112 379 126 379 176 C379 188 380 203 382 222 L616 222 C631 308 640 368 640 417 C640 519 598 573 478 573 C423 573 385 559 356 531 C332 557 293 573 232 573 C72 573 30 461 6 296 C0 253 -4 213 -4 177 C-4 78 35 -5 176 -5 C234 -5 275 10 304 37 C329 10 368 -5 428 -5 L428 -5 Z M184 117 C144 117 131 136 131 180 C131 204 135 238 142 283 C159 406 168 442 223 442 C262 442 274 424 274 379 C274 355 271 321 264 276 C246 154 238 117 184 117 L184 117 Z M470 449 C506 449 517 437 517 401 C517 382 514 359 510 329 L397 329 C412 423 425 449 470 449 L470 449 Z " />
<glyph glyph-name="Scaron" unicode="&#x160;" horiz-adv-x="423" d="M198 770 L336 770 L461 936 L342 936 L278 859 L237 936 L120 936 L198 770 Z M156 -5 C314 -5 375 85 375 202 C375 280 338 335 273 419 C217 491 198 518 198 549 C198 591 224 615 264 615 C308 615 346 604 370 593 L427 722 C376 742 339 749 267 749 C118 749 54 660 54 546 C54 471 91 419 149 345 C218 258 234 232 234 201 C234 148 207 123 158 123 C104 123 59 141 32 157 L-39 40 C-2 20 57 -5 156 -5 L156 -5 Z " />
<glyph glyph-name="scaron" unicode="&#x161;" horiz-adv-x="365" d="M147 610 L285 610 L410 776 L291 776 L227 699 L186 776 L69 776 L147 610 Z M131 -5 C258 -5 314 53 314 157 C314 212 289 256 221 328 C177 374 166 392 166 410 C166 433 179 445 208 445 C237 445 277 437 301 428 L346 554 C305 570 256 574 217 574 C89 574 36 506 36 409 C36 356 60 307 115 249 C171 190 183 175 183 153 C183 123 167 113 138 113 C88 113 42 129 16 139 L-33 23 C20 3 66 -5 131 -5 L131 -5 Z " />
<glyph glyph-name="Ydieresis" unicode="&#x178;" horiz-adv-x="479" d="M116 0 L256 0 L291 246 L535 741 L389 741 L248 437 L194 741 L47 741 L151 251 L116 0 Z M156 770 L273 770 L291 898 L174 898 L156 770 Z M319 770 L435 770 L454 898 L337 898 L319 770 Z " />
<glyph glyph-name="Zcaron" unicode="&#x17d;" horiz-adv-x="426" d="M199 770 L337 770 L462 936 L343 936 L279 859 L238 936 L121 936 L199 770 Z M-37 0 L358 0 L375 127 L145 127 L437 622 L454 741 L78 741 L60 611 L275 611 L-22 107 L-37 0 Z " />
<glyph glyph-name="zcaron" unicode="&#x17e;" horiz-adv-x="343" d="M136 610 L274 610 L399 776 L280 776 L216 699 L175 776 L58 776 L136 610 Z M-46 0 L285 0 L301 112 L130 112 L345 475 L358 566 L44 566 L27 445 L178 445 L-34 89 L-46 0 Z " />
<glyph glyph-name="florin" unicode="&#x192;" horiz-adv-x="418" d="M37 330 L109 330 L43 -152 L178 -152 L245 330 L352 330 L367 444 L261 444 L276 554 C280 598 289 617 329 617 L353 617 L370 739 C362 739 336 741 320 741 C190 741 160 692 145 586 L125 444 L52 444 L37 330 Z " />
<glyph glyph-name="circumflex" unicode="&#x2c6;" horiz-adv-x="387" d="M56 610 L175 610 L238 686 L280 610 L396 610 L318 776 L181 776 L56 610 Z " />
<glyph glyph-name="caron" unicode="&#x2c7;" horiz-adv-x="387" d="M158 610 L296 610 L421 776 L302 776 L238 699 L197 776 L80 776 L158 610 Z " />
<glyph glyph-name="breve" unicode="&#x2d8;" horiz-adv-x="387" d="M238 605 C335 605 383 657 400 774 L304 781 C292 728 281 705 240 705 C197 705 194 733 195 781 L99 774 C94 660 116 605 238 605 L238 605 Z " />
<glyph glyph-name="dotaccent" unicode="&#x2d9;" horiz-adv-x="387" d="M159 610 L295 610 L314 747 L177 747 L159 610 Z " />
<glyph glyph-name="ring" unicode="&#x2da;" horiz-adv-x="387" d="M231 604 C312 604 337 647 346 717 C348 729 349 742 349 754 C349 808 328 849 251 849 C174 849 150 803 140 731 C139 719 138 708 138 696 C137 643 157 604 231 604 L231 604 Z M237 667 C213 667 204 680 204 704 C204 711 205 718 206 726 C211 763 218 784 249 784 C273 784 281 770 281 747 C281 739 280 731 279 722 C274 686 268 667 237 667 L237 667 Z " />
<glyph glyph-name="ogonek" unicode="&#x2db;" horiz-adv-x="387" d="M149 -209 L189 -209 L200 -133 L158 -133 C140 -133 129 -126 129 -106 C129 -66 164 -29 204 16 L118 16 C79 -21 36 -55 36 -129 C36 -183 67 -209 149 -209 L149 -209 Z " />
<glyph glyph-name="tilde" unicode="&#x2dc;" horiz-adv-x="387" d="M162 605 C170 635 177 641 194 641 C212 641 248 610 288 610 C365 610 393 656 411 740 L310 757 C302 727 295 721 278 721 C259 721 224 752 184 752 C106 752 79 706 60 622 L162 605 Z " />
<glyph glyph-name="hungarumlaut" unicode="&#x2dd;" horiz-adv-x="387" d="M83 610 L175 610 L295 783 L165 783 L83 610 Z M255 610 L347 610 L467 783 L337 783 L255 610 Z " />
<glyph glyph-name="&amp;#x394;" unicode="&#x394;" horiz-adv-x="483" d="M18 445 L87 445 L4 -152 L139 -152 L222 445 L282 445 L299 566 L239 566 L244 599 C249 636 259 645 291 645 L310 645 L326 763 C320 764 306 765 299 765 C176 765 126 723 111 614 L104 566 L36 566 L18 445 Z M203 -152 C324 -152 373 -136 392 -2 L472 566 L336 566 L258 13 C253 -25 250 -34 219 -34 L203 -152 Z M343 618 L479 618 L498 751 L362 751 L343 618 Z " />
<glyph glyph-name="&amp;#x2206;" unicode="&#x2206;" horiz-adv-x="483" d="M18 445 L87 445 L4 -152 L139 -152 L222 445 L282 445 L299 566 L239 566 L244 599 C249 636 259 645 291 645 L310 645 L326 763 C320 764 306 765 299 765 C176 765 126 723 111 614 L104 566 L36 566 L18 445 Z M203 -152 C324 -152 373 -136 392 -2 L472 566 L336 566 L258 13 C253 -25 250 -34 219 -34 L203 -152 Z M343 618 L479 618 L498 751 L362 751 L343 618 Z " />
<glyph glyph-name="&amp;#x3a9;" unicode="&#x3a9;" horiz-adv-x="832" d="M126 120 C126 120 129 123 134 127 C79 193 46 278 46 371 C46 464 79 549 133 615 C129 619 126 621 126 621 C70 554 36 466 36 371 C36 275 70 187 126 120 L126 120 Z M228 211 C230 213 233 215 235 218 C201 259 181 313 181 371 C181 429 202 483 235 524 C232 526 230 529 227 531 C192 487 171 432 171 371 C171 310 193 254 228 211 L228 211 Z M264 243 C267 245 269 248 272 250 C245 283 229 325 229 371 C229 417 245 459 272 492 C269 494 267 497 264 499 C236 464 219 419 219 371 C219 322 236 278 264 243 L264 243 Z M316 289 C319 291 321 294 324 296 C308 317 298 343 298 371 C298 399 308 425 323 445 C321 448 318 450 316 452 C298 430 288 402 288 371 C288 340 298 312 316 289 L316 289 Z M349 320 C352 323 354 325 357 327 C348 340 343 355 343 371 C343 387 348 402 357 415 C354 417 352 420 349 422 C339 408 333 390 333 371 C333 352 339 334 349 320 L349 320 Z M378 346 C382 349 384 351 384 351 C381 357 379 364 379 371 C379 378 381 385 384 391 C384 391 382 393 378 396 C374 389 371 380 371 371 C371 362 374 353 378 346 L378 346 Z M416 60 C493 60 563 89 616 136 C614 139 611 141 609 144 C558 98 490 70 416 70 C342 70 274 98 222 144 C222 145 215 137 215 137 C268 89 338 60 416 60 L416 60 Z M416 324 C426 324 435 327 442 333 C439 337 437 339 437 339 C431 334 424 332 416 332 C408 332 401 335 395 339 C395 339 391 334 389 333 C397 327 406 324 416 324 L416 324 Z M482 319 C493 334 499 352 499 371 C499 390 493 408 482 422 C483 422 475 415 475 415 C484 403 489 388 489 371 C489 355 484 339 475 326 C478 324 480 322 482 319 L482 319 Z M292 269 C295 271 298 274 300 276 C280 302 267 335 267 371 C267 407 280 440 300 466 L293 473 C270 445 257 410 257 371 C257 333 270 297 292 269 L292 269 Z M416 -17 C512 -17 600 19 667 80 C667 80 660 88 660 87 C595 29 510 -7 416 -7 C322 -7 236 29 171 88 L164 80 C231 20 320 -17 416 -17 L416 -17 Z M416 121 C478 121 534 144 576 182 C574 185 571 187 569 190 C529 153 475 131 416 131 C357 131 303 153 262 190 L255 182 C298 144 354 121 416 121 L416 121 Z M416 170 C465 170 510 188 544 218 C542 221 539 223 537 226 C505 197 462 180 416 180 C369 180 327 197 294 226 L287 219 C322 189 367 170 416 170 L416 170 Z M416 209 C455 209 491 224 518 247 C516 250 514 253 512 255 C486 233 452 219 416 219 C380 219 346 233 320 255 L313 247 C341 224 377 209 416 209 L416 209 Z M416 265 C441 265 463 274 481 289 C479 292 476 294 474 297 C458 283 438 275 416 275 C394 275 373 283 357 297 L350 289 C368 274 391 265 416 265 L416 265 Z M358 445 C374 459 394 467 416 467 C438 467 458 459 474 445 L482 453 C464 468 441 477 416 477 C391 477 368 468 350 453 C351 452 354 448 358 445 L358 445 Z M570 552 C572 554 575 557 577 560 C534 598 478 621 416 621 C355 621 299 598 256 560 L263 553 C304 589 357 611 416 611 C475 611 529 589 570 552 L570 552 Z M454 346 C458 353 461 362 461 371 C461 380 458 389 454 396 L448 391 C451 385 453 378 453 371 C453 364 451 357 448 351 C448 351 450 349 454 346 L454 346 Z M468 333 C476 344 480 357 480 371 C480 385 476 398 468 409 L460 402 C466 393 470 382 470 371 C470 360 466 349 460 340 C463 338 465 336 468 333 L468 333 Z M498 306 C511 325 519 347 519 371 C519 395 511 418 497 436 L490 429 C502 413 509 393 509 371 C509 349 502 329 490 313 C492 311 495 308 498 306 L498 306 Z M540 269 C562 297 575 332 575 371 C575 410 562 445 539 473 L531 466 C552 440 565 407 565 371 C565 335 552 302 532 276 C535 274 537 271 540 269 L540 269 Z M568 243 C596 278 613 322 613 371 C613 420 596 464 568 499 L560 492 C587 459 603 417 603 371 C603 325 587 283 560 250 C563 248 566 245 568 243 L568 243 Z M604 211 C640 254 661 310 661 371 C661 432 640 488 604 531 L596 524 C631 483 651 429 651 371 C651 313 631 260 596 218 C601 213 604 211 604 211 L604 211 Z M649 171 C694 225 721 295 721 371 C721 447 694 517 649 571 L641 564 C685 512 711 445 711 371 C711 297 685 230 642 177 C644 175 647 173 649 171 L649 171 Z M706 120 C762 188 796 276 796 371 C796 467 762 555 706 622 L698 615 C753 549 786 464 786 371 C786 278 753 193 698 127 C703 123 706 120 706 120 L706 120 Z M183 170 L190 177 C147 229 121 297 121 371 C121 444 147 512 190 564 C187 567 184 569 182 571 C138 517 111 447 111 371 C111 294 138 225 183 170 L183 170 Z M334 306 L342 314 C330 330 323 350 323 371 C323 393 330 413 342 429 C340 431 337 434 334 436 C321 418 313 395 313 371 C313 346 321 324 334 306 L334 306 Z M364 333 L371 340 C366 349 362 360 362 371 C362 382 366 393 371 402 C369 404 366 406 364 409 C356 398 352 385 352 371 C352 357 356 344 364 333 L364 333 Z M395 403 C401 408 408 410 416 410 C424 410 431 407 437 403 C437 403 439 406 442 409 C435 415 426 418 416 418 C406 418 397 415 390 409 L395 403 Z M384 416 C393 423 404 428 416 428 C428 428 439 424 448 416 C450 419 452 421 454 423 C443 432 430 437 416 437 C401 437 388 432 377 423 L384 416 Z M371 430 C383 441 399 447 416 447 C433 447 449 441 461 430 C461 430 464 434 468 438 C454 450 436 457 416 457 C397 457 378 450 364 438 L371 430 Z M295 516 C327 545 370 562 416 562 C462 562 505 545 538 516 C538 516 545 523 544 523 C510 554 465 572 416 572 C367 572 322 554 288 524 L295 516 Z M416 240 C448 240 476 252 498 271 L491 278 C471 261 445 250 416 250 C388 250 361 261 340 278 L333 270 C355 251 384 240 416 240 L416 240 Z M416 285 C436 285 454 292 468 304 L461 312 C448 301 433 295 416 295 C399 295 383 302 370 312 L363 304 C378 292 396 285 416 285 L416 285 Z M416 305 C430 305 444 310 455 319 L448 326 C439 319 428 314 416 314 C404 314 393 319 383 326 L376 319 C388 310 401 305 416 305 L416 305 Z M341 464 C362 482 388 492 416 492 C445 492 471 481 491 464 L498 472 C476 491 447 502 416 502 C385 502 356 490 334 471 L341 464 Z M320 487 C346 509 380 523 416 523 C453 523 486 510 512 487 L518 494 C491 518 455 533 416 533 C377 533 341 519 313 495 L320 487 Z M610 597 L617 605 C563 653 493 682 416 682 C339 682 269 653 215 605 L222 598 C274 644 342 672 416 672 C491 672 559 644 610 597 L610 597 Z M172 654 C237 713 322 749 416 749 C510 749 596 713 661 654 L668 662 C601 722 512 759 416 759 C320 759 232 723 165 662 L172 654 Z M516 290 C534 312 544 340 544 371 C544 402 534 430 516 453 L508 446 C524 425 534 399 534 371 C534 343 524 317 509 297 L516 290 Z " />
<glyph glyph-name="&amp;#x2126;" unicode="&#x2126;" horiz-adv-x="832" d="M126 120 C126 120 129 123 134 127 C79 193 46 278 46 371 C46 464 79 549 133 615 C129 619 126 621 126 621 C70 554 36 466 36 371 C36 275 70 187 126 120 L126 120 Z M228 211 C230 213 233 215 235 218 C201 259 181 313 181 371 C181 429 202 483 235 524 C232 526 230 529 227 531 C192 487 171 432 171 371 C171 310 193 254 228 211 L228 211 Z M264 243 C267 245 269 248 272 250 C245 283 229 325 229 371 C229 417 245 459 272 492 C269 494 267 497 264 499 C236 464 219 419 219 371 C219 322 236 278 264 243 L264 243 Z M316 289 C319 291 321 294 324 296 C308 317 298 343 298 371 C298 399 308 425 323 445 C321 448 318 450 316 452 C298 430 288 402 288 371 C288 340 298 312 316 289 L316 289 Z M349 320 C352 323 354 325 357 327 C348 340 343 355 343 371 C343 387 348 402 357 415 C354 417 352 420 349 422 C339 408 333 390 333 371 C333 352 339 334 349 320 L349 320 Z M378 346 C382 349 384 351 384 351 C381 357 379 364 379 371 C379 378 381 385 384 391 C384 391 382 393 378 396 C374 389 371 380 371 371 C371 362 374 353 378 346 L378 346 Z M416 60 C493 60 563 89 616 136 C614 139 611 141 609 144 C558 98 490 70 416 70 C342 70 274 98 222 144 C222 145 215 137 215 137 C268 89 338 60 416 60 L416 60 Z M416 324 C426 324 435 327 442 333 C439 337 437 339 437 339 C431 334 424 332 416 332 C408 332 401 335 395 339 C395 339 391 334 389 333 C397 327 406 324 416 324 L416 324 Z M482 319 C493 334 499 352 499 371 C499 390 493 408 482 422 C483 422 475 415 475 415 C484 403 489 388 489 371 C489 355 484 339 475 326 C478 324 480 322 482 319 L482 319 Z M292 269 C295 271 298 274 300 276 C280 302 267 335 267 371 C267 407 280 440 300 466 L293 473 C270 445 257 410 257 371 C257 333 270 297 292 269 L292 269 Z M416 -17 C512 -17 600 19 667 80 C667 80 660 88 660 87 C595 29 510 -7 416 -7 C322 -7 236 29 171 88 L164 80 C231 20 320 -17 416 -17 L416 -17 Z M416 121 C478 121 534 144 576 182 C574 185 571 187 569 190 C529 153 475 131 416 131 C357 131 303 153 262 190 L255 182 C298 144 354 121 416 121 L416 121 Z M416 170 C465 170 510 188 544 218 C542 221 539 223 537 226 C505 197 462 180 416 180 C369 180 327 197 294 226 L287 219 C322 189 367 170 416 170 L416 170 Z M416 209 C455 209 491 224 518 247 C516 250 514 253 512 255 C486 233 452 219 416 219 C380 219 346 233 320 255 L313 247 C341 224 377 209 416 209 L416 209 Z M416 265 C441 265 463 274 481 289 C479 292 476 294 474 297 C458 283 438 275 416 275 C394 275 373 283 357 297 L350 289 C368 274 391 265 416 265 L416 265 Z M358 445 C374 459 394 467 416 467 C438 467 458 459 474 445 L482 453 C464 468 441 477 416 477 C391 477 368 468 350 453 C351 452 354 448 358 445 L358 445 Z M570 552 C572 554 575 557 577 560 C534 598 478 621 416 621 C355 621 299 598 256 560 L263 553 C304 589 357 611 416 611 C475 611 529 589 570 552 L570 552 Z M454 346 C458 353 461 362 461 371 C461 380 458 389 454 396 L448 391 C451 385 453 378 453 371 C453 364 451 357 448 351 C448 351 450 349 454 346 L454 346 Z M468 333 C476 344 480 357 480 371 C480 385 476 398 468 409 L460 402 C466 393 470 382 470 371 C470 360 466 349 460 340 C463 338 465 336 468 333 L468 333 Z M498 306 C511 325 519 347 519 371 C519 395 511 418 497 436 L490 429 C502 413 509 393 509 371 C509 349 502 329 490 313 C492 311 495 308 498 306 L498 306 Z M540 269 C562 297 575 332 575 371 C575 410 562 445 539 473 L531 466 C552 440 565 407 565 371 C565 335 552 302 532 276 C535 274 537 271 540 269 L540 269 Z M568 243 C596 278 613 322 613 371 C613 420 596 464 568 499 L560 492 C587 459 603 417 603 371 C603 325 587 283 560 250 C563 248 566 245 568 243 L568 243 Z M604 211 C640 254 661 310 661 371 C661 432 640 488 604 531 L596 524 C631 483 651 429 651 371 C651 313 631 260 596 218 C601 213 604 211 604 211 L604 211 Z M649 171 C694 225 721 295 721 371 C721 447 694 517 649 571 L641 564 C685 512 711 445 711 371 C711 297 685 230 642 177 C644 175 647 173 649 171 L649 171 Z M706 120 C762 188 796 276 796 371 C796 467 762 555 706 622 L698 615 C753 549 786 464 786 371 C786 278 753 193 698 127 C703 123 706 120 706 120 L706 120 Z M183 170 L190 177 C147 229 121 297 121 371 C121 444 147 512 190 564 C187 567 184 569 182 571 C138 517 111 447 111 371 C111 294 138 225 183 170 L183 170 Z M334 306 L342 314 C330 330 323 350 323 371 C323 393 330 413 342 429 C340 431 337 434 334 436 C321 418 313 395 313 371 C313 346 321 324 334 306 L334 306 Z M364 333 L371 340 C366 349 362 360 362 371 C362 382 366 393 371 402 C369 404 366 406 364 409 C356 398 352 385 352 371 C352 357 356 344 364 333 L364 333 Z M395 403 C401 408 408 410 416 410 C424 410 431 407 437 403 C437 403 439 406 442 409 C435 415 426 418 416 418 C406 418 397 415 390 409 L395 403 Z M384 416 C393 423 404 428 416 428 C428 428 439 424 448 416 C450 419 452 421 454 423 C443 432 430 437 416 437 C401 437 388 432 377 423 L384 416 Z M371 430 C383 441 399 447 416 447 C433 447 449 441 461 430 C461 430 464 434 468 438 C454 450 436 457 416 457 C397 457 378 450 364 438 L371 430 Z M295 516 C327 545 370 562 416 562 C462 562 505 545 538 516 C538 516 545 523 544 523 C510 554 465 572 416 572 C367 572 322 554 288 524 L295 516 Z M416 240 C448 240 476 252 498 271 L491 278 C471 261 445 250 416 250 C388 250 361 261 340 278 L333 270 C355 251 384 240 416 240 L416 240 Z M416 285 C436 285 454 292 468 304 L461 312 C448 301 433 295 416 295 C399 295 383 302 370 312 L363 304 C378 292 396 285 416 285 L416 285 Z M416 305 C430 305 444 310 455 319 L448 326 C439 319 428 314 416 314 C404 314 393 319 383 326 L376 319 C388 310 401 305 416 305 L416 305 Z M341 464 C362 482 388 492 416 492 C445 492 471 481 491 464 L498 472 C476 491 447 502 416 502 C385 502 356 490 334 471 L341 464 Z M320 487 C346 509 380 523 416 523 C453 523 486 510 512 487 L518 494 C491 518 455 533 416 533 C377 533 341 519 313 495 L320 487 Z M610 597 L617 605 C563 653 493 682 416 682 C339 682 269 653 215 605 L222 598 C274 644 342 672 416 672 C491 672 559 644 610 597 L610 597 Z M172 654 C237 713 322 749 416 749 C510 749 596 713 661 654 L668 662 C601 722 512 759 416 759 C320 759 232 723 165 662 L172 654 Z M516 290 C534 312 544 340 544 371 C544 402 534 430 516 453 L508 446 C524 425 534 399 534 371 C534 343 524 317 509 297 L516 290 Z " />
<glyph glyph-name="pi" unicode="&#x3c0;" horiz-adv-x="525" d="M262 -8 C472 -8 502 116 502 371 C502 625 472 751 262 751 C54 751 24 625 24 371 C24 116 55 -8 262 -8 L262 -8 Z M262 44 C98 44 78 152 78 371 C78 590 97 698 262 698 C429 698 448 590 448 371 C448 152 429 44 262 44 L262 44 Z M141 136 L232 136 L232 292 L268 292 C380 292 407 338 407 447 C407 557 380 601 268 601 L141 601 L141 136 Z M232 369 L232 519 L267 519 C311 519 317 504 317 444 C317 386 311 369 267 369 L232 369 Z " />
<glyph glyph-name="endash" unicode="&#x2013;" horiz-adv-x="491" d="M9 270 L454 270 L471 399 L27 399 L9 270 Z " />
<glyph glyph-name="emdash" unicode="&#x2014;" horiz-adv-x="636" d="M9 270 L599 270 L617 399 L27 399 L9 270 Z " />
<glyph glyph-name="quoteleft" unicode="&#x2018;" horiz-adv-x="221" d="M44 426 L195 426 L219 597 L157 597 C162 635 170 643 228 678 L195 746 C95 695 76 658 67 591 L44 426 Z " />
<glyph glyph-name="quoteright" unicode="&#x2019;" horiz-adv-x="221" d="M87 421 C187 472 207 509 216 576 L239 741 L88 741 L64 570 L126 570 C121 532 113 524 55 489 L87 421 Z " />
<glyph glyph-name="quotesinglbase" unicode="&#x201a;" horiz-adv-x="221" d="M8 -149 C107 -98 126 -61 136 6 L159 171 L8 171 L-16 0 L45 0 C40 -38 33 -46 -25 -81 L8 -149 Z " />
<glyph glyph-name="quotedblleft" unicode="&#x201c;" horiz-adv-x="406" d="M44 429 L190 429 L214 598 L151 598 C156 636 166 644 223 679 L193 743 C94 693 75 649 67 591 L44 429 Z M232 429 L380 429 L404 598 L341 598 C346 636 355 644 413 679 L382 743 C283 693 264 649 255 591 L232 429 Z " />
<glyph glyph-name="quotedblright" unicode="&#x201d;" horiz-adv-x="406" d="M86 427 C185 478 204 521 213 580 L235 741 L88 741 L64 572 L128 572 C122 534 112 526 55 492 L86 427 Z M275 427 C374 478 393 521 401 580 L424 741 L277 741 L254 572 L317 572 C311 534 301 526 244 492 L275 427 Z " />
<glyph glyph-name="quotedblbase" unicode="&#x201e;" horiz-adv-x="406" d="M5 -145 C104 -94 124 -51 132 8 L155 169 L8 169 L-16 0 L47 0 C42 -38 32 -46 -25 -81 L5 -145 Z M195 -145 C294 -94 312 -51 321 8 L344 169 L197 169 L173 0 L236 0 C231 -38 222 -46 164 -81 L195 -145 Z " />
<glyph glyph-name="dagger" unicode="&#x2020;" horiz-adv-x="422" d="M69 -152 L204 -152 L284 418 L398 418 L417 548 L302 548 L332 763 L197 763 L167 548 L53 548 L35 418 L149 418 L69 -152 Z " />
<glyph glyph-name="daggerdbl" unicode="&#x2021;" horiz-adv-x="422" d="M69 -153 L204 -153 L234 64 L349 64 L367 194 L252 194 L284 418 L398 418 L417 548 L302 548 L332 763 L197 763 L167 548 L53 548 L35 418 L149 418 L117 194 L4 194 L-15 64 L99 64 L69 -153 Z " />
<glyph glyph-name="bullet" unicode="&#x2022;" horiz-adv-x="283" d="M31 191 L200 191 L232 417 L63 417 L31 191 Z " />
<glyph glyph-name="ellipsis" unicode="&#x2026;" horiz-adv-x="637" d="M-18 0 L133 0 L158 170 L6 170 L-18 0 Z M191 0 L342 0 L366 170 L215 170 L191 0 Z M399 0 L550 0 L574 170 L423 170 L399 0 Z " />
<glyph glyph-name="perthousand" unicode="&#x2030;" horiz-adv-x="1200" d="M176 266 C317 266 342 361 361 496 C367 537 371 574 371 602 C371 694 320 750 224 750 C84 750 58 655 39 517 C34 478 30 443 30 412 C30 324 72 266 176 266 L176 266 Z M182 371 C158 371 149 383 149 415 C149 436 153 467 159 509 C173 612 177 640 217 640 C241 640 249 629 249 598 C249 576 244 545 239 503 C224 400 220 371 182 371 L182 371 Z M626 -5 C766 -5 791 90 810 225 C816 267 820 303 820 332 C820 423 770 479 674 479 C533 479 507 385 488 247 C483 207 479 172 479 142 C479 54 521 -5 626 -5 L626 -5 Z M631 101 C607 101 598 112 598 144 C598 166 602 197 608 238 C623 341 626 370 666 370 C690 370 698 358 698 327 C698 305 694 275 688 233 C674 129 669 101 631 101 L631 101 Z M976 -5 C1116 -5 1141 90 1160 225 C1166 267 1171 303 1171 332 C1171 423 1120 479 1024 479 C884 479 857 385 838 247 C833 207 829 172 829 142 C829 54 872 -5 976 -5 L976 -5 Z M981 101 C957 101 948 112 948 144 C948 166 952 197 958 238 C973 341 976 370 1016 370 C1040 370 1049 358 1049 327 C1049 305 1044 275 1038 233 C1024 129 1019 101 981 101 L981 101 Z M180 0 L297 0 L668 741 L551 741 L180 0 Z " />
<glyph glyph-name="guilsinglleft" unicode="&#x2039;" horiz-adv-x="331" d="M92 0 L216 0 L165 282 L296 566 L172 566 L32 282 L92 0 Z " />
<glyph glyph-name="guilsinglright" unicode="&#x203a;" horiz-adv-x="331" d="M10 0 L135 0 L273 283 L214 566 L90 566 L140 283 L10 0 Z " />
<glyph glyph-name="&amp;#x2044;" unicode="&#x2044;" horiz-adv-x="395" d="M-50 0 L72 0 L450 741 L328 741 L-50 0 Z " />
<glyph glyph-name="&amp;#x2215;" unicode="&#x2215;" horiz-adv-x="395" d="M-50 0 L72 0 L450 741 L328 741 L-50 0 Z " />
<glyph glyph-name="Euro" unicode="&#x20ac;" horiz-adv-x="451" d="M20 395 L93 395 C93 392 92 389 92 386 C90 374 88 362 87 351 L14 351 L-1 246 L75 246 C73 225 73 206 73 190 C73 67 129 -5 262 -5 C307 -5 349 4 383 17 L345 130 C321 122 297 118 272 118 C225 118 210 143 210 199 C210 212 210 228 212 246 L333 246 L348 351 L225 351 C226 359 227 368 229 377 C230 383 230 389 231 395 L354 395 L369 500 L247 500 C264 595 281 620 329 620 C359 620 394 614 414 606 L469 726 C431 740 389 750 333 750 C195 750 144 668 111 500 L34 500 L20 395 Z " />
<glyph glyph-name="trademark" unicode="&#x2122;" horiz-adv-x="727" d="M300 253 L389 253 L428 531 L443 253 L506 253 L600 530 L561 253 L655 253 L723 741 L607 741 L505 450 L485 741 L369 741 L300 253 Z M89 253 L189 253 L245 648 L333 648 L346 741 L72 741 L59 648 L145 648 L89 253 Z " />
<glyph glyph-name="partialdiff" unicode="&#x2202;" horiz-adv-x="832" d="M126 120 C126 120 129 123 134 127 C79 193 46 278 46 371 C46 464 79 549 133 615 C129 619 126 621 126 621 C70 554 36 466 36 371 C36 275 70 187 126 120 L126 120 Z M228 211 C230 213 233 215 235 218 C201 259 181 313 181 371 C181 429 202 483 235 524 C232 526 230 529 227 531 C192 487 171 432 171 371 C171 310 193 254 228 211 L228 211 Z M264 243 C267 245 269 248 272 250 C245 283 229 325 229 371 C229 417 245 459 272 492 C269 494 267 497 264 499 C236 464 219 419 219 371 C219 322 236 278 264 243 L264 243 Z M316 289 C319 291 321 294 324 296 C308 317 298 343 298 371 C298 399 308 425 323 445 C321 448 318 450 316 452 C298 430 288 402 288 371 C288 340 298 312 316 289 L316 289 Z M349 320 C352 323 354 325 357 327 C348 340 343 355 343 371 C343 387 348 402 357 415 C354 417 352 420 349 422 C339 408 333 390 333 371 C333 352 339 334 349 320 L349 320 Z M378 346 C382 349 384 351 384 351 C381 357 379 364 379 371 C379 378 381 385 384 391 C384 391 382 393 378 396 C374 389 371 380 371 371 C371 362 374 353 378 346 L378 346 Z M416 60 C493 60 563 89 616 136 C614 139 611 141 609 144 C558 98 490 70 416 70 C342 70 274 98 222 144 C222 145 215 137 215 137 C268 89 338 60 416 60 L416 60 Z M416 324 C426 324 435 327 442 333 C439 337 437 339 437 339 C431 334 424 332 416 332 C408 332 401 335 395 339 C395 339 391 334 389 333 C397 327 406 324 416 324 L416 324 Z M482 319 C493 334 499 352 499 371 C499 390 493 408 482 422 C483 422 475 415 475 415 C484 403 489 388 489 371 C489 355 484 339 475 326 C478 324 480 322 482 319 L482 319 Z M292 269 C295 271 298 274 300 276 C280 302 267 335 267 371 C267 407 280 440 300 466 L293 473 C270 445 257 410 257 371 C257 333 270 297 292 269 L292 269 Z M416 -17 C512 -17 600 19 667 80 C667 80 660 88 660 87 C595 29 510 -7 416 -7 C322 -7 236 29 171 88 L164 80 C231 20 320 -17 416 -17 L416 -17 Z M416 121 C478 121 534 144 576 182 C574 185 571 187 569 190 C529 153 475 131 416 131 C357 131 303 153 262 190 L255 182 C298 144 354 121 416 121 L416 121 Z M416 170 C465 170 510 188 544 218 C542 221 539 223 537 226 C505 197 462 180 416 180 C369 180 327 197 294 226 L287 219 C322 189 367 170 416 170 L416 170 Z M416 209 C455 209 491 224 518 247 C516 250 514 253 512 255 C486 233 452 219 416 219 C380 219 346 233 320 255 L313 247 C341 224 377 209 416 209 L416 209 Z M416 265 C441 265 463 274 481 289 C479 292 476 294 474 297 C458 283 438 275 416 275 C394 275 373 283 357 297 L350 289 C368 274 391 265 416 265 L416 265 Z M358 445 C374 459 394 467 416 467 C438 467 458 459 474 445 L482 453 C464 468 441 477 416 477 C391 477 368 468 350 453 C351 452 354 448 358 445 L358 445 Z M570 552 C572 554 575 557 577 560 C534 598 478 621 416 621 C355 621 299 598 256 560 L263 553 C304 589 357 611 416 611 C475 611 529 589 570 552 L570 552 Z M454 346 C458 353 461 362 461 371 C461 380 458 389 454 396 L448 391 C451 385 453 378 453 371 C453 364 451 357 448 351 C448 351 450 349 454 346 L454 346 Z M468 333 C476 344 480 357 480 371 C480 385 476 398 468 409 L460 402 C466 393 470 382 470 371 C470 360 466 349 460 340 C463 338 465 336 468 333 L468 333 Z M498 306 C511 325 519 347 519 371 C519 395 511 418 497 436 L490 429 C502 413 509 393 509 371 C509 349 502 329 490 313 C492 311 495 308 498 306 L498 306 Z M540 269 C562 297 575 332 575 371 C575 410 562 445 539 473 L531 466 C552 440 565 407 565 371 C565 335 552 302 532 276 C535 274 537 271 540 269 L540 269 Z M568 243 C596 278 613 322 613 371 C613 420 596 464 568 499 L560 492 C587 459 603 417 603 371 C603 325 587 283 560 250 C563 248 566 245 568 243 L568 243 Z M604 211 C640 254 661 310 661 371 C661 432 640 488 604 531 L596 524 C631 483 651 429 651 371 C651 313 631 260 596 218 C601 213 604 211 604 211 L604 211 Z M649 171 C694 225 721 295 721 371 C721 447 694 517 649 571 L641 564 C685 512 711 445 711 371 C711 297 685 230 642 177 C644 175 647 173 649 171 L649 171 Z M706 120 C762 188 796 276 796 371 C796 467 762 555 706 622 L698 615 C753 549 786 464 786 371 C786 278 753 193 698 127 C703 123 706 120 706 120 L706 120 Z M183 170 L190 177 C147 229 121 297 121 371 C121 444 147 512 190 564 C187 567 184 569 182 571 C138 517 111 447 111 371 C111 294 138 225 183 170 L183 170 Z M334 306 L342 314 C330 330 323 350 323 371 C323 393 330 413 342 429 C340 431 337 434 334 436 C321 418 313 395 313 371 C313 346 321 324 334 306 L334 306 Z M364 333 L371 340 C366 349 362 360 362 371 C362 382 366 393 371 402 C369 404 366 406 364 409 C356 398 352 385 352 371 C352 357 356 344 364 333 L364 333 Z M395 403 C401 408 408 410 416 410 C424 410 431 407 437 403 C437 403 439 406 442 409 C435 415 426 418 416 418 C406 418 397 415 390 409 L395 403 Z M384 416 C393 423 404 428 416 428 C428 428 439 424 448 416 C450 419 452 421 454 423 C443 432 430 437 416 437 C401 437 388 432 377 423 L384 416 Z M371 430 C383 441 399 447 416 447 C433 447 449 441 461 430 C461 430 464 434 468 438 C454 450 436 457 416 457 C397 457 378 450 364 438 L371 430 Z M295 516 C327 545 370 562 416 562 C462 562 505 545 538 516 C538 516 545 523 544 523 C510 554 465 572 416 572 C367 572 322 554 288 524 L295 516 Z M416 240 C448 240 476 252 498 271 L491 278 C471 261 445 250 416 250 C388 250 361 261 340 278 L333 270 C355 251 384 240 416 240 L416 240 Z M416 285 C436 285 454 292 468 304 L461 312 C448 301 433 295 416 295 C399 295 383 302 370 312 L363 304 C378 292 396 285 416 285 L416 285 Z M416 305 C430 305 444 310 455 319 L448 326 C439 319 428 314 416 314 C404 314 393 319 383 326 L376 319 C388 310 401 305 416 305 L416 305 Z M341 464 C362 482 388 492 416 492 C445 492 471 481 491 464 L498 472 C476 491 447 502 416 502 C385 502 356 490 334 471 L341 464 Z M320 487 C346 509 380 523 416 523 C453 523 486 510 512 487 L518 494 C491 518 455 533 416 533 C377 533 341 519 313 495 L320 487 Z M610 597 L617 605 C563 653 493 682 416 682 C339 682 269 653 215 605 L222 598 C274 644 342 672 416 672 C491 672 559 644 610 597 L610 597 Z M172 654 C237 713 322 749 416 749 C510 749 596 713 661 654 L668 662 C601 722 512 759 416 759 C320 759 232 723 165 662 L172 654 Z M516 290 C534 312 544 340 544 371 C544 402 534 430 516 453 L508 446 C524 425 534 399 534 371 C534 343 524 317 509 297 L516 290 Z " />
<glyph glyph-name="product" unicode="&#x220f;" horiz-adv-x="832" d="M126 120 C126 120 129 123 134 127 C79 193 46 278 46 371 C46 464 79 549 133 615 C129 619 126 621 126 621 C70 554 36 466 36 371 C36 275 70 187 126 120 L126 120 Z M228 211 C230 213 233 215 235 218 C201 259 181 313 181 371 C181 429 202 483 235 524 C232 526 230 529 227 531 C192 487 171 432 171 371 C171 310 193 254 228 211 L228 211 Z M264 243 C267 245 269 248 272 250 C245 283 229 325 229 371 C229 417 245 459 272 492 C269 494 267 497 264 499 C236 464 219 419 219 371 C219 322 236 278 264 243 L264 243 Z M316 289 C319 291 321 294 324 296 C308 317 298 343 298 371 C298 399 308 425 323 445 C321 448 318 450 316 452 C298 430 288 402 288 371 C288 340 298 312 316 289 L316 289 Z M349 320 C352 323 354 325 357 327 C348 340 343 355 343 371 C343 387 348 402 357 415 C354 417 352 420 349 422 C339 408 333 390 333 371 C333 352 339 334 349 320 L349 320 Z M378 346 C382 349 384 351 384 351 C381 357 379 364 379 371 C379 378 381 385 384 391 C384 391 382 393 378 396 C374 389 371 380 371 371 C371 362 374 353 378 346 L378 346 Z M416 60 C493 60 563 89 616 136 C614 139 611 141 609 144 C558 98 490 70 416 70 C342 70 274 98 222 144 C222 145 215 137 215 137 C268 89 338 60 416 60 L416 60 Z M416 324 C426 324 435 327 442 333 C439 337 437 339 437 339 C431 334 424 332 416 332 C408 332 401 335 395 339 C395 339 391 334 389 333 C397 327 406 324 416 324 L416 324 Z M482 319 C493 334 499 352 499 371 C499 390 493 408 482 422 C483 422 475 415 475 415 C484 403 489 388 489 371 C489 355 484 339 475 326 C478 324 480 322 482 319 L482 319 Z M292 269 C295 271 298 274 300 276 C280 302 267 335 267 371 C267 407 280 440 300 466 L293 473 C270 445 257 410 257 371 C257 333 270 297 292 269 L292 269 Z M416 -17 C512 -17 600 19 667 80 C667 80 660 88 660 87 C595 29 510 -7 416 -7 C322 -7 236 29 171 88 L164 80 C231 20 320 -17 416 -17 L416 -17 Z M416 121 C478 121 534 144 576 182 C574 185 571 187 569 190 C529 153 475 131 416 131 C357 131 303 153 262 190 L255 182 C298 144 354 121 416 121 L416 121 Z M416 170 C465 170 510 188 544 218 C542 221 539 223 537 226 C505 197 462 180 416 180 C369 180 327 197 294 226 L287 219 C322 189 367 170 416 170 L416 170 Z M416 209 C455 209 491 224 518 247 C516 250 514 253 512 255 C486 233 452 219 416 219 C380 219 346 233 320 255 L313 247 C341 224 377 209 416 209 L416 209 Z M416 265 C441 265 463 274 481 289 C479 292 476 294 474 297 C458 283 438 275 416 275 C394 275 373 283 357 297 L350 289 C368 274 391 265 416 265 L416 265 Z M358 445 C374 459 394 467 416 467 C438 467 458 459 474 445 L482 453 C464 468 441 477 416 477 C391 477 368 468 350 453 C351 452 354 448 358 445 L358 445 Z M570 552 C572 554 575 557 577 560 C534 598 478 621 416 621 C355 621 299 598 256 560 L263 553 C304 589 357 611 416 611 C475 611 529 589 570 552 L570 552 Z M454 346 C458 353 461 362 461 371 C461 380 458 389 454 396 L448 391 C451 385 453 378 453 371 C453 364 451 357 448 351 C448 351 450 349 454 346 L454 346 Z M468 333 C476 344 480 357 480 371 C480 385 476 398 468 409 L460 402 C466 393 470 382 470 371 C470 360 466 349 460 340 C463 338 465 336 468 333 L468 333 Z M498 306 C511 325 519 347 519 371 C519 395 511 418 497 436 L490 429 C502 413 509 393 509 371 C509 349 502 329 490 313 C492 311 495 308 498 306 L498 306 Z M540 269 C562 297 575 332 575 371 C575 410 562 445 539 473 L531 466 C552 440 565 407 565 371 C565 335 552 302 532 276 C535 274 537 271 540 269 L540 269 Z M568 243 C596 278 613 322 613 371 C613 420 596 464 568 499 L560 492 C587 459 603 417 603 371 C603 325 587 283 560 250 C563 248 566 245 568 243 L568 243 Z M604 211 C640 254 661 310 661 371 C661 432 640 488 604 531 L596 524 C631 483 651 429 651 371 C651 313 631 260 596 218 C601 213 604 211 604 211 L604 211 Z M649 171 C694 225 721 295 721 371 C721 447 694 517 649 571 L641 564 C685 512 711 445 711 371 C711 297 685 230 642 177 C644 175 647 173 649 171 L649 171 Z M706 120 C762 188 796 276 796 371 C796 467 762 555 706 622 L698 615 C753 549 786 464 786 371 C786 278 753 193 698 127 C703 123 706 120 706 120 L706 120 Z M183 170 L190 177 C147 229 121 297 121 371 C121 444 147 512 190 564 C187 567 184 569 182 571 C138 517 111 447 111 371 C111 294 138 225 183 170 L183 170 Z M334 306 L342 314 C330 330 323 350 323 371 C323 393 330 413 342 429 C340 431 337 434 334 436 C321 418 313 395 313 371 C313 346 321 324 334 306 L334 306 Z M364 333 L371 340 C366 349 362 360 362 371 C362 382 366 393 371 402 C369 404 366 406 364 409 C356 398 352 385 352 371 C352 357 356 344 364 333 L364 333 Z M395 403 C401 408 408 410 416 410 C424 410 431 407 437 403 C437 403 439 406 442 409 C435 415 426 418 416 418 C406 418 397 415 390 409 L395 403 Z M384 416 C393 423 404 428 416 428 C428 428 439 424 448 416 C450 419 452 421 454 423 C443 432 430 437 416 437 C401 437 388 432 377 423 L384 416 Z M371 430 C383 441 399 447 416 447 C433 447 449 441 461 430 C461 430 464 434 468 438 C454 450 436 457 416 457 C397 457 378 450 364 438 L371 430 Z M295 516 C327 545 370 562 416 562 C462 562 505 545 538 516 C538 516 545 523 544 523 C510 554 465 572 416 572 C367 572 322 554 288 524 L295 516 Z M416 240 C448 240 476 252 498 271 L491 278 C471 261 445 250 416 250 C388 250 361 261 340 278 L333 270 C355 251 384 240 416 240 L416 240 Z M416 285 C436 285 454 292 468 304 L461 312 C448 301 433 295 416 295 C399 295 383 302 370 312 L363 304 C378 292 396 285 416 285 L416 285 Z M416 305 C430 305 444 310 455 319 L448 326 C439 319 428 314 416 314 C404 314 393 319 383 326 L376 319 C388 310 401 305 416 305 L416 305 Z M341 464 C362 482 388 492 416 492 C445 492 471 481 491 464 L498 472 C476 491 447 502 416 502 C385 502 356 490 334 471 L341 464 Z M320 487 C346 509 380 523 416 523 C453 523 486 510 512 487 L518 494 C491 518 455 533 416 533 C377 533 341 519 313 495 L320 487 Z M610 597 L617 605 C563 653 493 682 416 682 C339 682 269 653 215 605 L222 598 C274 644 342 672 416 672 C491 672 559 644 610 597 L610 597 Z M172 654 C237 713 322 749 416 749 C510 749 596 713 661 654 L668 662 C601 722 512 759 416 759 C320 759 232 723 165 662 L172 654 Z M516 290 C534 312 544 340 544 371 C544 402 534 430 516 453 L508 446 C524 425 534 399 534 371 C534 343 524 317 509 297 L516 290 Z " />
<glyph glyph-name="summation" unicode="&#x2211;" horiz-adv-x="832" d="M126 120 C126 120 129 123 134 127 C79 193 46 278 46 371 C46 464 79 549 133 615 C129 619 126 621 126 621 C70 554 36 466 36 371 C36 275 70 187 126 120 L126 120 Z M228 211 C230 213 233 215 235 218 C201 259 181 313 181 371 C181 429 202 483 235 524 C232 526 230 529 227 531 C192 487 171 432 171 371 C171 310 193 254 228 211 L228 211 Z M264 243 C267 245 269 248 272 250 C245 283 229 325 229 371 C229 417 245 459 272 492 C269 494 267 497 264 499 C236 464 219 419 219 371 C219 322 236 278 264 243 L264 243 Z M316 289 C319 291 321 294 324 296 C308 317 298 343 298 371 C298 399 308 425 323 445 C321 448 318 450 316 452 C298 430 288 402 288 371 C288 340 298 312 316 289 L316 289 Z M349 320 C352 323 354 325 357 327 C348 340 343 355 343 371 C343 387 348 402 357 415 C354 417 352 420 349 422 C339 408 333 390 333 371 C333 352 339 334 349 320 L349 320 Z M378 346 C382 349 384 351 384 351 C381 357 379 364 379 371 C379 378 381 385 384 391 C384 391 382 393 378 396 C374 389 371 380 371 371 C371 362 374 353 378 346 L378 346 Z M416 60 C493 60 563 89 616 136 C614 139 611 141 609 144 C558 98 490 70 416 70 C342 70 274 98 222 144 C222 145 215 137 215 137 C268 89 338 60 416 60 L416 60 Z M416 324 C426 324 435 327 442 333 C439 337 437 339 437 339 C431 334 424 332 416 332 C408 332 401 335 395 339 C395 339 391 334 389 333 C397 327 406 324 416 324 L416 324 Z M482 319 C493 334 499 352 499 371 C499 390 493 408 482 422 C483 422 475 415 475 415 C484 403 489 388 489 371 C489 355 484 339 475 326 C478 324 480 322 482 319 L482 319 Z M292 269 C295 271 298 274 300 276 C280 302 267 335 267 371 C267 407 280 440 300 466 L293 473 C270 445 257 410 257 371 C257 333 270 297 292 269 L292 269 Z M416 -17 C512 -17 600 19 667 80 C667 80 660 88 660 87 C595 29 510 -7 416 -7 C322 -7 236 29 171 88 L164 80 C231 20 320 -17 416 -17 L416 -17 Z M416 121 C478 121 534 144 576 182 C574 185 571 187 569 190 C529 153 475 131 416 131 C357 131 303 153 262 190 L255 182 C298 144 354 121 416 121 L416 121 Z M416 170 C465 170 510 188 544 218 C542 221 539 223 537 226 C505 197 462 180 416 180 C369 180 327 197 294 226 L287 219 C322 189 367 170 416 170 L416 170 Z M416 209 C455 209 491 224 518 247 C516 250 514 253 512 255 C486 233 452 219 416 219 C380 219 346 233 320 255 L313 247 C341 224 377 209 416 209 L416 209 Z M416 265 C441 265 463 274 481 289 C479 292 476 294 474 297 C458 283 438 275 416 275 C394 275 373 283 357 297 L350 289 C368 274 391 265 416 265 L416 265 Z M358 445 C374 459 394 467 416 467 C438 467 458 459 474 445 L482 453 C464 468 441 477 416 477 C391 477 368 468 350 453 C351 452 354 448 358 445 L358 445 Z M570 552 C572 554 575 557 577 560 C534 598 478 621 416 621 C355 621 299 598 256 560 L263 553 C304 589 357 611 416 611 C475 611 529 589 570 552 L570 552 Z M454 346 C458 353 461 362 461 371 C461 380 458 389 454 396 L448 391 C451 385 453 378 453 371 C453 364 451 357 448 351 C448 351 450 349 454 346 L454 346 Z M468 333 C476 344 480 357 480 371 C480 385 476 398 468 409 L460 402 C466 393 470 382 470 371 C470 360 466 349 460 340 C463 338 465 336 468 333 L468 333 Z M498 306 C511 325 519 347 519 371 C519 395 511 418 497 436 L490 429 C502 413 509 393 509 371 C509 349 502 329 490 313 C492 311 495 308 498 306 L498 306 Z M540 269 C562 297 575 332 575 371 C575 410 562 445 539 473 L531 466 C552 440 565 407 565 371 C565 335 552 302 532 276 C535 274 537 271 540 269 L540 269 Z M568 243 C596 278 613 322 613 371 C613 420 596 464 568 499 L560 492 C587 459 603 417 603 371 C603 325 587 283 560 250 C563 248 566 245 568 243 L568 243 Z M604 211 C640 254 661 310 661 371 C661 432 640 488 604 531 L596 524 C631 483 651 429 651 371 C651 313 631 260 596 218 C601 213 604 211 604 211 L604 211 Z M649 171 C694 225 721 295 721 371 C721 447 694 517 649 571 L641 564 C685 512 711 445 711 371 C711 297 685 230 642 177 C644 175 647 173 649 171 L649 171 Z M706 120 C762 188 796 276 796 371 C796 467 762 555 706 622 L698 615 C753 549 786 464 786 371 C786 278 753 193 698 127 C703 123 706 120 706 120 L706 120 Z M183 170 L190 177 C147 229 121 297 121 371 C121 444 147 512 190 564 C187 567 184 569 182 571 C138 517 111 447 111 371 C111 294 138 225 183 170 L183 170 Z M334 306 L342 314 C330 330 323 350 323 371 C323 393 330 413 342 429 C340 431 337 434 334 436 C321 418 313 395 313 371 C313 346 321 324 334 306 L334 306 Z M364 333 L371 340 C366 349 362 360 362 371 C362 382 366 393 371 402 C369 404 366 406 364 409 C356 398 352 385 352 371 C352 357 356 344 364 333 L364 333 Z M395 403 C401 408 408 410 416 410 C424 410 431 407 437 403 C437 403 439 406 442 409 C435 415 426 418 416 418 C406 418 397 415 390 409 L395 403 Z M384 416 C393 423 404 428 416 428 C428 428 439 424 448 416 C450 419 452 421 454 423 C443 432 430 437 416 437 C401 437 388 432 377 423 L384 416 Z M371 430 C383 441 399 447 416 447 C433 447 449 441 461 430 C461 430 464 434 468 438 C454 450 436 457 416 457 C397 457 378 450 364 438 L371 430 Z M295 516 C327 545 370 562 416 562 C462 562 505 545 538 516 C538 516 545 523 544 523 C510 554 465 572 416 572 C367 572 322 554 288 524 L295 516 Z M416 240 C448 240 476 252 498 271 L491 278 C471 261 445 250 416 250 C388 250 361 261 340 278 L333 270 C355 251 384 240 416 240 L416 240 Z M416 285 C436 285 454 292 468 304 L461 312 C448 301 433 295 416 295 C399 295 383 302 370 312 L363 304 C378 292 396 285 416 285 L416 285 Z M416 305 C430 305 444 310 455 319 L448 326 C439 319 428 314 416 314 C404 314 393 319 383 326 L376 319 C388 310 401 305 416 305 L416 305 Z M341 464 C362 482 388 492 416 492 C445 492 471 481 491 464 L498 472 C476 491 447 502 416 502 C385 502 356 490 334 471 L341 464 Z M320 487 C346 509 380 523 416 523 C453 523 486 510 512 487 L518 494 C491 518 455 533 416 533 C377 533 341 519 313 495 L320 487 Z M610 597 L617 605 C563 653 493 682 416 682 C339 682 269 653 215 605 L222 598 C274 644 342 672 416 672 C491 672 559 644 610 597 L610 597 Z M172 654 C237 713 322 749 416 749 C510 749 596 713 661 654 L668 662 C601 722 512 759 416 759 C320 759 232 723 165 662 L172 654 Z M516 290 C534 312 544 340 544 371 C544 402 534 430 516 453 L508 446 C524 425 534 399 534 371 C534 343 524 317 509 297 L516 290 Z " />
<glyph glyph-name="minus" unicode="&#x2212;" horiz-adv-x="494" d="M48 300 L424 300 L443 429 L67 429 L48 300 Z " />
<glyph glyph-name="radical" unicode="&#x221a;" horiz-adv-x="474" d="M81 -5 L222 -5 L514 741 L380 741 L183 193 L169 447 L26 447 L81 -5 Z " />
<glyph glyph-name="infinity" unicode="&#x221e;" horiz-adv-x="716" d="M236 -152 L371 -152 L455 445 L515 445 L532 566 L472 566 L477 599 C482 636 491 645 524 645 L542 645 L559 763 C553 764 538 765 532 765 C408 765 359 723 344 614 L337 566 L239 566 L244 599 C249 636 259 645 291 645 L316 645 L332 763 C326 764 313 765 299 765 C177 765 126 723 111 614 L104 566 L36 566 L18 445 L87 445 L4 -152 L139 -152 L222 445 L320 445 L236 -152 Z M489 0 L625 0 L705 566 L569 566 L489 0 Z M576 618 L711 618 L730 751 L594 751 L576 618 Z " />
<glyph glyph-name="integral" unicode="&#x222b;" horiz-adv-x="832" d="M126 120 C126 120 129 123 134 127 C79 193 46 278 46 371 C46 464 79 549 133 615 C129 619 126 621 126 621 C70 554 36 466 36 371 C36 275 70 187 126 120 L126 120 Z M228 211 C230 213 233 215 235 218 C201 259 181 313 181 371 C181 429 202 483 235 524 C232 526 230 529 227 531 C192 487 171 432 171 371 C171 310 193 254 228 211 L228 211 Z M264 243 C267 245 269 248 272 250 C245 283 229 325 229 371 C229 417 245 459 272 492 C269 494 267 497 264 499 C236 464 219 419 219 371 C219 322 236 278 264 243 L264 243 Z M316 289 C319 291 321 294 324 296 C308 317 298 343 298 371 C298 399 308 425 323 445 C321 448 318 450 316 452 C298 430 288 402 288 371 C288 340 298 312 316 289 L316 289 Z M349 320 C352 323 354 325 357 327 C348 340 343 355 343 371 C343 387 348 402 357 415 C354 417 352 420 349 422 C339 408 333 390 333 371 C333 352 339 334 349 320 L349 320 Z M378 346 C382 349 384 351 384 351 C381 357 379 364 379 371 C379 378 381 385 384 391 C384 391 382 393 378 396 C374 389 371 380 371 371 C371 362 374 353 378 346 L378 346 Z M416 60 C493 60 563 89 616 136 C614 139 611 141 609 144 C558 98 490 70 416 70 C342 70 274 98 222 144 C222 145 215 137 215 137 C268 89 338 60 416 60 L416 60 Z M416 324 C426 324 435 327 442 333 C439 337 437 339 437 339 C431 334 424 332 416 332 C408 332 401 335 395 339 C395 339 391 334 389 333 C397 327 406 324 416 324 L416 324 Z M482 319 C493 334 499 352 499 371 C499 390 493 408 482 422 C483 422 475 415 475 415 C484 403 489 388 489 371 C489 355 484 339 475 326 C478 324 480 322 482 319 L482 319 Z M292 269 C295 271 298 274 300 276 C280 302 267 335 267 371 C267 407 280 440 300 466 L293 473 C270 445 257 410 257 371 C257 333 270 297 292 269 L292 269 Z M416 -17 C512 -17 600 19 667 80 C667 80 660 88 660 87 C595 29 510 -7 416 -7 C322 -7 236 29 171 88 L164 80 C231 20 320 -17 416 -17 L416 -17 Z M416 121 C478 121 534 144 576 182 C574 185 571 187 569 190 C529 153 475 131 416 131 C357 131 303 153 262 190 L255 182 C298 144 354 121 416 121 L416 121 Z M416 170 C465 170 510 188 544 218 C542 221 539 223 537 226 C505 197 462 180 416 180 C369 180 327 197 294 226 L287 219 C322 189 367 170 416 170 L416 170 Z M416 209 C455 209 491 224 518 247 C516 250 514 253 512 255 C486 233 452 219 416 219 C380 219 346 233 320 255 L313 247 C341 224 377 209 416 209 L416 209 Z M416 265 C441 265 463 274 481 289 C479 292 476 294 474 297 C458 283 438 275 416 275 C394 275 373 283 357 297 L350 289 C368 274 391 265 416 265 L416 265 Z M358 445 C374 459 394 467 416 467 C438 467 458 459 474 445 L482 453 C464 468 441 477 416 477 C391 477 368 468 350 453 C351 452 354 448 358 445 L358 445 Z M570 552 C572 554 575 557 577 560 C534 598 478 621 416 621 C355 621 299 598 256 560 L263 553 C304 589 357 611 416 611 C475 611 529 589 570 552 L570 552 Z M454 346 C458 353 461 362 461 371 C461 380 458 389 454 396 L448 391 C451 385 453 378 453 371 C453 364 451 357 448 351 C448 351 450 349 454 346 L454 346 Z M468 333 C476 344 480 357 480 371 C480 385 476 398 468 409 L460 402 C466 393 470 382 470 371 C470 360 466 349 460 340 C463 338 465 336 468 333 L468 333 Z M498 306 C511 325 519 347 519 371 C519 395 511 418 497 436 L490 429 C502 413 509 393 509 371 C509 349 502 329 490 313 C492 311 495 308 498 306 L498 306 Z M540 269 C562 297 575 332 575 371 C575 410 562 445 539 473 L531 466 C552 440 565 407 565 371 C565 335 552 302 532 276 C535 274 537 271 540 269 L540 269 Z M568 243 C596 278 613 322 613 371 C613 420 596 464 568 499 L560 492 C587 459 603 417 603 371 C603 325 587 283 560 250 C563 248 566 245 568 243 L568 243 Z M604 211 C640 254 661 310 661 371 C661 432 640 488 604 531 L596 524 C631 483 651 429 651 371 C651 313 631 260 596 218 C601 213 604 211 604 211 L604 211 Z M649 171 C694 225 721 295 721 371 C721 447 694 517 649 571 L641 564 C685 512 711 445 711 371 C711 297 685 230 642 177 C644 175 647 173 649 171 L649 171 Z M706 120 C762 188 796 276 796 371 C796 467 762 555 706 622 L698 615 C753 549 786 464 786 371 C786 278 753 193 698 127 C703 123 706 120 706 120 L706 120 Z M183 170 L190 177 C147 229 121 297 121 371 C121 444 147 512 190 564 C187 567 184 569 182 571 C138 517 111 447 111 371 C111 294 138 225 183 170 L183 170 Z M334 306 L342 314 C330 330 323 350 323 371 C323 393 330 413 342 429 C340 431 337 434 334 436 C321 418 313 395 313 371 C313 346 321 324 334 306 L334 306 Z M364 333 L371 340 C366 349 362 360 362 371 C362 382 366 393 371 402 C369 404 366 406 364 409 C356 398 352 385 352 371 C352 357 356 344 364 333 L364 333 Z M395 403 C401 408 408 410 416 410 C424 410 431 407 437 403 C437 403 439 406 442 409 C435 415 426 418 416 418 C406 418 397 415 390 409 L395 403 Z M384 416 C393 423 404 428 416 428 C428 428 439 424 448 416 C450 419 452 421 454 423 C443 432 430 437 416 437 C401 437 388 432 377 423 L384 416 Z M371 430 C383 441 399 447 416 447 C433 447 449 441 461 430 C461 430 464 434 468 438 C454 450 436 457 416 457 C397 457 378 450 364 438 L371 430 Z M295 516 C327 545 370 562 416 562 C462 562 505 545 538 516 C538 516 545 523 544 523 C510 554 465 572 416 572 C367 572 322 554 288 524 L295 516 Z M416 240 C448 240 476 252 498 271 L491 278 C471 261 445 250 416 250 C388 250 361 261 340 278 L333 270 C355 251 384 240 416 240 L416 240 Z M416 285 C436 285 454 292 468 304 L461 312 C448 301 433 295 416 295 C399 295 383 302 370 312 L363 304 C378 292 396 285 416 285 L416 285 Z M416 305 C430 305 444 310 455 319 L448 326 C439 319 428 314 416 314 C404 314 393 319 383 326 L376 319 C388 310 401 305 416 305 L416 305 Z M341 464 C362 482 388 492 416 492 C445 492 471 481 491 464 L498 472 C476 491 447 502 416 502 C385 502 356 490 334 471 L341 464 Z M320 487 C346 509 380 523 416 523 C453 523 486 510 512 487 L518 494 C491 518 455 533 416 533 C377 533 341 519 313 495 L320 487 Z M610 597 L617 605 C563 653 493 682 416 682 C339 682 269 653 215 605 L222 598 C274 644 342 672 416 672 C491 672 559 644 610 597 L610 597 Z M172 654 C237 713 322 749 416 749 C510 749 596 713 661 654 L668 662 C601 722 512 759 416 759 C320 759 232 723 165 662 L172 654 Z M516 290 C534 312 544 340 544 371 C544 402 534 430 516 453 L508 446 C524 425 534 399 534 371 C534 343 524 317 509 297 L516 290 Z " />
<glyph glyph-name="approxequal" unicode="&#x2248;" horiz-adv-x="494" d="M136 378 C157 414 171 424 189 424 C226 424 296 382 352 382 C385 382 424 409 461 488 L389 549 C367 513 352 502 336 502 C299 502 233 544 178 544 C140 544 101 517 64 439 L136 378 Z M105 149 C126 185 140 195 157 195 C195 195 265 153 320 153 C354 153 393 180 430 259 L358 320 C336 284 321 273 304 273 C267 273 201 315 146 315 C108 315 70 287 33 209 L105 149 Z " />
<glyph glyph-name="notequal" unicode="&#x2260;" horiz-adv-x="545" d="M236 -152 L371 -152 L454 445 L551 445 L568 566 L471 566 L475 592 C481 632 490 640 539 641 L579 641 L595 763 C588 764 568 765 538 765 C407 765 359 723 344 614 L337 566 L239 566 L244 599 C249 636 259 645 291 645 L316 645 L332 763 C326 764 313 765 299 765 C177 765 126 723 111 614 L104 566 L36 566 L18 445 L87 445 L4 -152 L139 -152 L222 445 L320 445 L236 -152 Z " />
<glyph glyph-name="lessequal" unicode="&#x2264;" horiz-adv-x="494" d="M26 6 L340 6 L357 127 L377 265 L217 367 L405 468 L424 606 L84 414 L70 320 L345 135 L44 135 L26 6 Z " />
<glyph glyph-name="greaterequal" unicode="&#x2265;" horiz-adv-x="494" d="M51 6 L365 6 L383 135 L82 135 L409 320 L422 414 L136 606 L116 468 L276 367 L88 266 L69 135 L68 127 L51 6 Z " />
<glyph glyph-name="lozenge" unicode="&#x25ca;" horiz-adv-x="555" d="M417 -2 C437 -2 461 -2 478 0 L496 124 L452 124 C407 124 404 139 409 174 L447 445 L541 445 L558 566 L464 566 L484 708 L370 681 L335 566 L239 566 L244 599 C249 636 259 645 291 645 L316 645 L332 763 C326 764 313 765 299 765 C177 765 126 723 111 614 L104 566 L36 566 L18 445 L87 445 L4 -152 L139 -152 L222 445 L311 445 L273 168 C256 46 282 -2 417 -2 L417 -2 Z " />
<glyph glyph-name="apple" unicode="&#xf8ff;" horiz-adv-x="832" d="M126 120 C126 120 129 123 134 127 C79 193 46 278 46 371 C46 464 79 549 133 615 C129 619 126 621 126 621 C70 554 36 466 36 371 C36 275 70 187 126 120 L126 120 Z M228 211 C230 213 233 215 235 218 C201 259 181 313 181 371 C181 429 202 483 235 524 C232 526 230 529 227 531 C192 487 171 432 171 371 C171 310 193 254 228 211 L228 211 Z M264 243 C267 245 269 248 272 250 C245 283 229 325 229 371 C229 417 245 459 272 492 C269 494 267 497 264 499 C236 464 219 419 219 371 C219 322 236 278 264 243 L264 243 Z M316 289 C319 291 321 294 324 296 C308 317 298 343 298 371 C298 399 308 425 323 445 C321 448 318 450 316 452 C298 430 288 402 288 371 C288 340 298 312 316 289 L316 289 Z M349 320 C352 323 354 325 357 327 C348 340 343 355 343 371 C343 387 348 402 357 415 C354 417 352 420 349 422 C339 408 333 390 333 371 C333 352 339 334 349 320 L349 320 Z M378 346 C382 349 384 351 384 351 C381 357 379 364 379 371 C379 378 381 385 384 391 C384 391 382 393 378 396 C374 389 371 380 371 371 C371 362 374 353 378 346 L378 346 Z M416 60 C493 60 563 89 616 136 C614 139 611 141 609 144 C558 98 490 70 416 70 C342 70 274 98 222 144 C222 145 215 137 215 137 C268 89 338 60 416 60 L416 60 Z M416 324 C426 324 435 327 442 333 C439 337 437 339 437 339 C431 334 424 332 416 332 C408 332 401 335 395 339 C395 339 391 334 389 333 C397 327 406 324 416 324 L416 324 Z M482 319 C493 334 499 352 499 371 C499 390 493 408 482 422 C483 422 475 415 475 415 C484 403 489 388 489 371 C489 355 484 339 475 326 C478 324 480 322 482 319 L482 319 Z M292 269 C295 271 298 274 300 276 C280 302 267 335 267 371 C267 407 280 440 300 466 L293 473 C270 445 257 410 257 371 C257 333 270 297 292 269 L292 269 Z M416 -17 C512 -17 600 19 667 80 C667 80 660 88 660 87 C595 29 510 -7 416 -7 C322 -7 236 29 171 88 L164 80 C231 20 320 -17 416 -17 L416 -17 Z M416 121 C478 121 534 144 576 182 C574 185 571 187 569 190 C529 153 475 131 416 131 C357 131 303 153 262 190 L255 182 C298 144 354 121 416 121 L416 121 Z M416 170 C465 170 510 188 544 218 C542 221 539 223 537 226 C505 197 462 180 416 180 C369 180 327 197 294 226 L287 219 C322 189 367 170 416 170 L416 170 Z M416 209 C455 209 491 224 518 247 C516 250 514 253 512 255 C486 233 452 219 416 219 C380 219 346 233 320 255 L313 247 C341 224 377 209 416 209 L416 209 Z M416 265 C441 265 463 274 481 289 C479 292 476 294 474 297 C458 283 438 275 416 275 C394 275 373 283 357 297 L350 289 C368 274 391 265 416 265 L416 265 Z M358 445 C374 459 394 467 416 467 C438 467 458 459 474 445 L482 453 C464 468 441 477 416 477 C391 477 368 468 350 453 C351 452 354 448 358 445 L358 445 Z M570 552 C572 554 575 557 577 560 C534 598 478 621 416 621 C355 621 299 598 256 560 L263 553 C304 589 357 611 416 611 C475 611 529 589 570 552 L570 552 Z M454 346 C458 353 461 362 461 371 C461 380 458 389 454 396 L448 391 C451 385 453 378 453 371 C453 364 451 357 448 351 C448 351 450 349 454 346 L454 346 Z M468 333 C476 344 480 357 480 371 C480 385 476 398 468 409 L460 402 C466 393 470 382 470 371 C470 360 466 349 460 340 C463 338 465 336 468 333 L468 333 Z M498 306 C511 325 519 347 519 371 C519 395 511 418 497 436 L490 429 C502 413 509 393 509 371 C509 349 502 329 490 313 C492 311 495 308 498 306 L498 306 Z M540 269 C562 297 575 332 575 371 C575 410 562 445 539 473 L531 466 C552 440 565 407 565 371 C565 335 552 302 532 276 C535 274 537 271 540 269 L540 269 Z M568 243 C596 278 613 322 613 371 C613 420 596 464 568 499 L560 492 C587 459 603 417 603 371 C603 325 587 283 560 250 C563 248 566 245 568 243 L568 243 Z M604 211 C640 254 661 310 661 371 C661 432 640 488 604 531 L596 524 C631 483 651 429 651 371 C651 313 631 260 596 218 C601 213 604 211 604 211 L604 211 Z M649 171 C694 225 721 295 721 371 C721 447 694 517 649 571 L641 564 C685 512 711 445 711 371 C711 297 685 230 642 177 C644 175 647 173 649 171 L649 171 Z M706 120 C762 188 796 276 796 371 C796 467 762 555 706 622 L698 615 C753 549 786 464 786 371 C786 278 753 193 698 127 C703 123 706 120 706 120 L706 120 Z M183 170 L190 177 C147 229 121 297 121 371 C121 444 147 512 190 564 C187 567 184 569 182 571 C138 517 111 447 111 371 C111 294 138 225 183 170 L183 170 Z M334 306 L342 314 C330 330 323 350 323 371 C323 393 330 413 342 429 C340 431 337 434 334 436 C321 418 313 395 313 371 C313 346 321 324 334 306 L334 306 Z M364 333 L371 340 C366 349 362 360 362 371 C362 382 366 393 371 402 C369 404 366 406 364 409 C356 398 352 385 352 371 C352 357 356 344 364 333 L364 333 Z M395 403 C401 408 408 410 416 410 C424 410 431 407 437 403 C437 403 439 406 442 409 C435 415 426 418 416 418 C406 418 397 415 390 409 L395 403 Z M384 416 C393 423 404 428 416 428 C428 428 439 424 448 416 C450 419 452 421 454 423 C443 432 430 437 416 437 C401 437 388 432 377 423 L384 416 Z M371 430 C383 441 399 447 416 447 C433 447 449 441 461 430 C461 430 464 434 468 438 C454 450 436 457 416 457 C397 457 378 450 364 438 L371 430 Z M295 516 C327 545 370 562 416 562 C462 562 505 545 538 516 C538 516 545 523 544 523 C510 554 465 572 416 572 C367 572 322 554 288 524 L295 516 Z M416 240 C448 240 476 252 498 271 L491 278 C471 261 445 250 416 250 C388 250 361 261 340 278 L333 270 C355 251 384 240 416 240 L416 240 Z M416 285 C436 285 454 292 468 304 L461 312 C448 301 433 295 416 295 C399 295 383 302 370 312 L363 304 C378 292 396 285 416 285 L416 285 Z M416 305 C430 305 444 310 455 319 L448 326 C439 319 428 314 416 314 C404 314 393 319 383 326 L376 319 C388 310 401 305 416 305 L416 305 Z M341 464 C362 482 388 492 416 492 C445 492 471 481 491 464 L498 472 C476 491 447 502 416 502 C385 502 356 490 334 471 L341 464 Z M320 487 C346 509 380 523 416 523 C453 523 486 510 512 487 L518 494 C491 518 455 533 416 533 C377 533 341 519 313 495 L320 487 Z M610 597 L617 605 C563 653 493 682 416 682 C339 682 269 653 215 605 L222 598 C274 644 342 672 416 672 C491 672 559 644 610 597 L610 597 Z M172 654 C237 713 322 749 416 749 C510 749 596 713 661 654 L668 662 C601 722 512 759 416 759 C320 759 232 723 165 662 L172 654 Z M516 290 C534 312 544 340 544 371 C544 402 534 430 516 453 L508 446 C524 425 534 399 534 371 C534 343 524 317 509 297 L516 290 Z " />
<glyph glyph-name="fi" unicode="&#xfb01;" horiz-adv-x="483" d="M18 445 L87 445 L4 -152 L139 -152 L222 445 L282 445 L299 566 L239 566 L244 599 C249 636 259 645 291 645 L310 645 L326 763 C320 764 306 765 299 765 C176 765 126 723 111 614 L104 566 L36 566 L18 445 Z M256 0 L392 0 L472 566 L336 566 L256 0 Z M343 618 L479 618 L498 751 L362 751 L343 618 Z " />
<glyph glyph-name="fl" unicode="&#xfb02;" horiz-adv-x="511" d="M18 445 L87 445 L4 -152 L139 -152 L222 445 L282 445 L299 566 L239 566 L244 599 C249 636 259 645 291 645 L310 645 L326 763 C320 764 306 765 299 765 C176 765 126 723 111 614 L104 566 L36 566 L18 445 Z M410 -2 C415 -2 434 -1 437 0 L454 120 L448 120 C411 120 410 127 415 165 L499 763 L363 763 L278 150 C261 31 293 -2 410 -2 L410 -2 Z " />
</font>
</svg>
