<?xml version="1.0" encoding="UTF-8"?>
<svg xmlns="http://www.w3.org/2000/svg" xmlns:xlink="http://www.w3.org/1999/xlink" version="1.2" >
<font id="Antenna BlackItalic">
<font-face  font-family="Antenna" units-per-em="1000" ascent="800" descent="-200" font-style="italic" font-weight="900" font-stretch="normal" slope="-12" cap-height="741" x-height="573" underline-position="-75" underline-thickness="50" />
<missing-glyph  horiz-adv-x="205" d="" />
<glyph glyph-name="NULL" d="" />
<glyph glyph-name="CR" unicode="&#xd;" horiz-adv-x="250" d="" />
<glyph glyph-name="&amp;#x20;" unicode="&#x20;" horiz-adv-x="205" d="" />
<glyph glyph-name="&amp;#xa0;" unicode="&#xa0;" horiz-adv-x="205" d="" />
<glyph glyph-name="exclam" unicode="&#x21;" horiz-adv-x="424" d="M20 0 L244 0 L289 211 L65 211 L20 0 Z M96 249 L274 249 L399 741 L182 741 L96 249 Z " />
<glyph glyph-name="quotedbl" unicode="&#x22;" horiz-adv-x="629" d="M89 367 L273 367 L364 741 L158 741 L89 367 Z M354 367 L537 367 L629 741 L422 741 L354 367 Z " />
<glyph glyph-name="numbersign" unicode="&#x23;" horiz-adv-x="796" d="M99 0 L289 0 L321 154 L388 154 L355 0 L544 0 L577 154 L703 154 L740 326 L613 326 L623 378 L750 378 L787 550 L659 550 L698 741 L509 741 L470 550 L403 550 L443 741 L254 741 L214 550 L93 550 L56 378 L178 378 L168 326 L46 326 L9 154 L132 154 L99 0 Z M339 315 L354 389 L452 389 L437 315 L339 315 Z " />
<glyph glyph-name="dollar" unicode="&#x24;" horiz-adv-x="678" d="M150 -94 L332 -94 L352 1 C519 14 616 101 616 249 C616 386 514 414 408 440 C314 463 272 471 272 517 C272 553 284 579 360 579 C451 579 520 550 557 525 L672 671 C644 694 592 719 507 733 L525 815 L343 815 L327 740 C188 727 76 660 76 493 C76 356 186 318 298 295 C390 276 421 265 421 224 C421 178 401 156 313 156 C196 156 133 188 67 233 L-45 96 C5 56 76 24 172 9 L150 -94 Z " />
<glyph glyph-name="percent" unicode="&#x25;" horiz-adv-x="1277" d="M274 251 C420 251 553 355 553 548 C553 671 474 753 325 753 C191 753 46 666 46 451 C46 328 123 251 274 251 L274 251 Z M289 398 C241 398 224 421 224 460 C224 557 266 602 313 602 C359 602 375 578 375 540 C375 469 347 398 289 398 L289 398 Z M954 -11 C1100 -11 1233 93 1233 286 C1233 409 1154 491 1005 491 C871 491 726 404 726 189 C726 66 803 -11 954 -11 L954 -11 Z M969 136 C921 136 904 159 904 198 C904 295 946 340 993 340 C1039 340 1055 316 1055 278 C1055 207 1027 136 969 136 L969 136 Z M260 0 L443 0 L1016 741 L833 741 L260 0 Z " />
<glyph glyph-name="ampersand" unicode="&#x26;" horiz-adv-x="878" d="M307 -9 C388 -9 457 5 517 34 C575 7 636 0 716 0 L730 0 L766 169 L741 169 C724 169 705 169 681 173 C726 234 765 310 800 402 L648 451 C614 365 577 299 537 251 C518 268 498 288 477 313 C470 321 463 330 455 339 C561 372 649 430 649 572 C649 681 579 753 432 753 C312 753 181 696 181 513 C181 486 185 458 192 431 C88 401 -9 343 -9 183 C-9 52 96 -9 307 -9 L307 -9 Z M327 146 C211 146 190 178 190 208 C190 251 215 275 254 292 C269 267 286 243 304 222 C327 194 348 170 368 149 C354 147 341 146 327 146 L327 146 Z M371 526 C371 573 391 591 425 591 C451 591 473 580 473 549 C473 511 446 480 384 463 C376 485 371 507 371 526 L371 526 Z " />
<glyph glyph-name="quotesingle" unicode="&#x27;" horiz-adv-x="365" d="M89 368 L273 368 L364 742 L158 742 L89 368 Z " />
<glyph glyph-name="parenleft" unicode="&#x28;" horiz-adv-x="544" d="M177 -196 L340 -116 C309 -67 266 41 266 159 C266 379 376 586 515 707 L390 806 C239 706 62 437 62 167 C62 -3 124 -129 177 -196 L177 -196 Z " />
<glyph glyph-name="parenright" unicode="&#x29;" horiz-adv-x="544" d="M127 -196 C278 -96 455 173 455 443 C455 613 393 739 340 806 L177 726 C208 677 251 569 251 451 C251 231 141 24 2 -97 L127 -196 Z " />
<glyph glyph-name="asterisk" unicode="&#x2a;" horiz-adv-x="627" d="M349 209 L364 361 L471 247 L575 366 L446 455 L601 487 L554 639 L409 575 L459 721 L309 752 L295 601 L190 716 L86 595 L213 505 L60 476 L107 322 L249 384 L200 241 L349 209 Z " />
<glyph glyph-name="plus" unicode="&#x2b;" horiz-adv-x="736" d="M208 80 L405 80 L444 264 L627 264 L665 441 L482 441 L520 623 L323 623 L285 441 L101 441 L63 264 L247 264 L208 80 Z " />
<glyph glyph-name="comma" unicode="&#x2c;" horiz-adv-x="321" d="M-12 -176 C134 -130 171 -105 201 35 L239 216 L15 216 L-31 0 L73 0 C65 -37 53 -49 -38 -81 L-12 -176 Z " />
<glyph glyph-name="&amp;#x2d;" unicode="&#x2d;" horiz-adv-x="411" d="M6 251 L353 251 L391 427 L44 427 L6 251 Z " />
<glyph glyph-name="&amp;#xad;" unicode="&#xad;" horiz-adv-x="411" d="M6 251 L353 251 L391 427 L44 427 L6 251 Z " />
<glyph glyph-name="period" unicode="&#x2e;" horiz-adv-x="321" d="M-31 0 L193 0 L239 216 L15 216 L-31 0 Z " />
<glyph glyph-name="slash" unicode="&#x2f;" horiz-adv-x="615" d="M-84 0 L127 0 L699 741 L488 741 L-84 0 Z " />
<glyph glyph-name="zero" unicode="0" horiz-adv-x="774" d="M340 -11 C531 -11 665 70 721 333 C732 385 738 432 738 475 C738 652 643 753 435 753 C241 753 109 667 53 403 C42 351 36 304 36 261 C36 86 131 -11 340 -11 L340 -11 Z M356 161 C275 161 244 200 244 275 C244 305 249 341 258 382 C289 527 331 573 416 573 C498 573 530 536 530 461 C530 432 525 396 516 355 C485 210 443 161 356 161 L356 161 Z " />
<glyph glyph-name="one" unicode="1" horiz-adv-x="437" d="M67 0 L262 0 L420 741 L107 741 L69 563 L187 563 L67 0 Z " />
<glyph glyph-name="two" unicode="2" horiz-adv-x="653" d="M-48 0 L521 0 L556 164 L271 164 L410 255 C557 350 635 408 635 562 C635 684 546 753 348 753 C249 753 154 733 81 703 L139 547 C189 567 277 580 320 580 C409 580 430 553 430 519 C430 459 409 441 263 342 L-15 154 L-48 0 Z " />
<glyph glyph-name="three" unicode="3" horiz-adv-x="658" d="M285 -12 C458 -12 589 46 589 248 C589 330 559 372 519 391 C585 414 640 463 640 588 C640 695 549 753 370 753 C284 753 152 742 75 700 L149 549 C195 571 280 584 332 584 C412 584 432 569 432 540 C432 478 398 468 344 468 L187 468 L155 313 L289 313 C365 313 392 292 392 245 C392 163 344 152 287 152 C199 152 119 183 56 230 L-63 86 C13 29 119 -12 285 -12 L285 -12 Z " />
<glyph glyph-name="four" unicode="4" horiz-adv-x="697" d="M-27 134 L335 134 L307 0 L489 0 L517 134 L624 134 L658 291 L551 291 L592 485 L454 485 L371 291 L234 291 L646 741 L425 741 L5 280 L-27 134 Z " />
<glyph glyph-name="five" unicode="5" horiz-adv-x="670" d="M303 -11 C498 -11 630 43 630 283 C630 474 520 501 390 501 C347 501 300 491 264 476 L290 572 L628 572 L664 741 L156 741 L56 367 L211 318 C246 332 277 339 308 339 C377 339 423 325 423 255 C423 173 379 153 325 153 C247 153 157 174 87 230 L-32 86 C25 37 152 -11 303 -11 L303 -11 Z " />
<glyph glyph-name="six" unicode="6" horiz-adv-x="729" d="M340 -11 C557 -11 679 109 679 320 C679 430 618 501 445 501 C363 501 291 484 261 447 C278 512 304 572 504 572 L635 572 L671 741 L514 741 C234 741 104 669 40 370 C31 329 27 290 27 254 C27 97 114 -11 340 -11 L340 -11 Z M346 150 C261 150 226 186 226 238 C226 333 283 348 356 348 C452 348 478 320 478 277 C478 198 452 150 346 150 L346 150 Z " />
<glyph glyph-name="seven" unicode="7" horiz-adv-x="597" d="M25 0 L244 0 L616 598 L647 741 L84 741 L48 572 L389 572 L25 0 Z " />
<glyph glyph-name="eight" unicode="8" horiz-adv-x="742" d="M322 -18 C580 -18 674 102 674 248 C674 311 664 360 601 391 C694 417 720 498 720 574 C720 671 658 753 401 753 C173 753 101 646 101 531 C101 483 108 431 161 400 C44 358 2 282 2 181 C2 81 76 -18 322 -18 L322 -18 Z M344 131 C238 131 208 166 208 210 C208 284 250 322 337 322 C442 322 472 287 472 242 C472 170 430 131 344 131 L344 131 Z M404 457 C314 457 291 485 291 520 C291 577 317 603 403 603 C495 603 518 575 518 541 C518 483 488 457 404 457 L404 457 Z " />
<glyph glyph-name="nine" unicode="9" horiz-adv-x="729" d="M59 0 L216 0 C496 0 626 73 690 372 C699 413 703 452 703 488 C703 645 616 753 390 753 C173 753 51 633 51 422 C51 312 112 236 285 236 C367 236 439 253 469 290 C452 225 424 164 224 164 L94 164 L59 0 Z M373 385 C277 385 251 413 251 456 C251 535 277 583 383 583 C468 583 503 547 503 495 C503 400 446 385 373 385 L373 385 Z " />
<glyph glyph-name="colon" unicode="&#x3a;" horiz-adv-x="341" d="M-21 0 L203 0 L247 209 L23 209 L-21 0 Z M57 365 L281 365 L325 573 L101 573 L57 365 Z " />
<glyph glyph-name="semicolon" unicode="&#x3b;" horiz-adv-x="341" d="M-3 -176 C143 -130 180 -105 210 35 L247 209 L23 209 L-21 0 L82 0 C74 -37 62 -49 -29 -81 L-3 -176 Z M57 365 L281 365 L325 573 L101 573 L57 365 Z " />
<glyph glyph-name="less" unicode="&#x3c;" horiz-adv-x="736" d="M514 48 L553 229 L318 347 L603 465 L641 644 L124 413 L96 280 L514 48 Z " />
<glyph glyph-name="equal" unicode="&#x3d;" horiz-adv-x="736" d="M42 136 L594 136 L631 312 L79 312 L42 136 Z M97 393 L649 393 L686 568 L134 568 L97 393 Z " />
<glyph glyph-name="greater" unicode="&#x3e;" horiz-adv-x="736" d="M84 48 L602 278 L631 412 L211 644 L173 464 L408 345 L122 228 L84 48 Z " />
<glyph glyph-name="question" unicode="&#x3f;" horiz-adv-x="721" d="M213 224 L406 224 C415 296 422 312 527 342 C659 379 711 438 711 576 C711 695 614 753 419 753 C340 753 207 742 126 706 L187 543 C250 564 317 576 379 577 C477 577 499 555 499 528 C499 481 482 471 400 451 C263 417 231 373 213 224 L213 224 Z M149 0 L373 0 L413 186 L189 186 L149 0 Z " />
<glyph glyph-name="at" unicode="&#x40;" horiz-adv-x="1052" d="M527 -165 C638 -165 744 -141 825 -101 L782 -11 C717 -43 613 -65 526 -65 C295 -65 142 12 142 290 C142 581 303 654 504 654 C721 654 870 580 870 291 C870 161 868 122 793 122 C714 122 706 148 724 231 L789 535 L676 546 L633 510 C602 538 575 556 463 556 C280 556 210 387 210 241 C210 121 260 36 405 36 C505 36 549 57 592 96 C617 52 670 27 765 27 C914 27 974 83 974 291 C974 651 768 754 504 754 C249 754 38 651 38 290 C38 -62 222 -165 527 -165 L527 -165 Z M463 184 C406 184 393 213 393 249 C393 331 421 400 484 400 C552 400 571 371 571 326 C571 310 570 295 567 281 C555 213 517 184 463 184 L463 184 Z " />
<glyph glyph-name="A" unicode="A" horiz-adv-x="793" d="M-70 0 L149 0 L202 96 L476 96 L491 0 L697 0 L574 746 L373 746 L-70 0 Z M297 266 L419 483 L450 266 L297 266 Z " />
<glyph glyph-name="B" unicode="B" horiz-adv-x="761" d="M-11 0 L358 0 C578 0 699 45 699 245 C699 312 678 357 618 378 C690 398 751 458 751 584 C751 683 675 741 442 741 L147 741 L-11 0 Z M226 159 L254 291 L397 291 C469 291 489 269 489 236 C489 184 460 159 401 159 L226 159 Z M287 449 L314 575 L435 575 C511 575 530 553 530 526 C530 479 508 449 441 449 L287 449 Z " />
<glyph glyph-name="C" unicode="C" horiz-adv-x="763" d="M379 -11 C518 -11 606 21 683 88 L566 235 C521 199 468 174 398 174 C273 174 233 228 233 308 C233 331 236 357 242 384 C269 511 332 563 442 563 C524 563 574 535 606 493 L775 630 C730 687 649 753 445 753 C267 753 93 688 34 409 C24 363 20 320 20 279 C20 106 117 -11 379 -11 L379 -11 Z " />
<glyph glyph-name="D" unicode="D" horiz-adv-x="790" d="M-11 0 L328 0 C546 0 692 32 755 326 C767 380 772 427 772 470 C772 663 648 741 345 741 L147 741 L-11 0 Z M234 180 L314 555 L377 555 C512 555 558 517 558 439 C558 413 553 384 546 350 C517 212 483 180 333 180 L234 180 Z " />
<glyph glyph-name="E" unicode="E" horiz-adv-x="702" d="M-11 0 L573 0 L611 179 L234 179 L256 283 L619 283 L658 464 L295 464 L314 554 L687 554 L727 741 L147 741 L-11 0 Z " />
<glyph glyph-name="F" unicode="F" horiz-adv-x="658" d="M-11 0 L196 0 L251 260 L584 260 L623 444 L290 444 L314 554 L657 554 L697 741 L147 741 L-11 0 Z " />
<glyph glyph-name="G" unicode="G" horiz-adv-x="800" d="M384 -11 C603 -11 706 55 755 292 L786 442 L408 442 L372 275 L550 275 L548 263 C531 182 489 163 398 163 C271 163 229 216 229 308 C229 332 234 362 238 384 C258 485 306 563 434 563 C539 563 580 530 611 493 L780 630 C730 699 616 753 448 753 C216 753 78 636 34 409 C27 373 20 334 20 279 C20 99 122 -11 384 -11 L384 -11 Z " />
<glyph glyph-name="H" unicode="H" horiz-adv-x="825" d="M-11 0 L196 0 L256 281 L530 281 L470 0 L678 0 L836 741 L628 741 L571 475 L297 475 L354 741 L147 741 L-11 0 Z " />
<glyph glyph-name="I" unicode="I" horiz-adv-x="367" d="M1 0 L208 0 L366 741 L159 741 L1 0 Z " />
<glyph glyph-name="J" unicode="J" horiz-adv-x="463" d="M-61 0 C-24 -2 -34 -3 84 -3 C198 -3 326 21 370 227 L479 741 L272 741 L168 255 C156 200 132 179 57 179 L-23 179 L-61 0 Z " />
<glyph glyph-name="K" unicode="K" horiz-adv-x="768" d="M452 0 L670 0 L497 448 L792 741 L549 741 L296 483 L351 741 L147 741 L-11 0 L193 0 L235 198 L335 298 L452 0 Z " />
<glyph glyph-name="L" unicode="L" horiz-adv-x="612" d="M-11 0 L525 0 L563 179 L234 179 L354 741 L147 741 L-11 0 Z " />
<glyph glyph-name="M" unicode="M" horiz-adv-x="991" d="M-11 0 L174 0 L266 436 L334 0 L479 0 L733 435 L641 0 L843 0 L1001 741 L724 741 L479 310 L419 741 L147 741 L-11 0 Z " />
<glyph glyph-name="N" unicode="N" horiz-adv-x="825" d="M-11 0 L187 0 L282 448 L487 0 L678 0 L836 741 L638 741 L551 334 L369 741 L147 741 L-11 0 Z " />
<glyph glyph-name="O" unicode="O" horiz-adv-x="853" d="M398 -12 C567 -12 758 48 819 334 C828 376 832 415 832 451 C832 656 683 753 459 753 C284 753 94 698 34 413 C25 370 21 330 21 294 C21 88 170 -12 398 -12 L398 -12 Z M401 170 C273 170 234 232 234 314 C234 337 237 362 242 387 C266 502 321 563 448 563 C577 563 617 503 617 422 C617 399 613 375 608 349 C584 234 529 170 401 170 L401 170 Z " />
<glyph glyph-name="P" unicode="P" horiz-adv-x="767" d="M-11 0 L191 0 L234 202 L437 202 C689 202 773 350 773 535 C773 643 708 741 464 741 L147 741 L-11 0 Z M270 373 L311 565 L435 565 C526 565 556 539 556 496 C556 402 511 373 431 373 L270 373 Z " />
<glyph glyph-name="Q" unicode="Q" horiz-adv-x="853" d="M435 -207 C460 -207 493 -206 519 -204 L554 -39 L470 -39 C414 -39 401 -36 408 -2 C574 0 759 53 819 334 C828 376 832 415 832 451 C832 649 690 753 459 753 C284 753 94 698 34 413 C25 370 20 330 21 294 C21 142 98 54 232 17 C190 -141 229 -207 435 -207 L435 -207 Z M401 170 C273 170 234 232 234 314 C234 337 237 362 242 387 C266 502 321 563 448 563 C577 563 617 503 617 422 C617 399 613 375 608 349 C584 234 529 170 401 170 L401 170 Z " />
<glyph glyph-name="R" unicode="R" horiz-adv-x="779" d="M437 0 L647 0 L569 237 C728 280 770 408 770 543 C770 644 709 741 449 741 L147 741 L-11 0 L191 0 L238 222 L365 222 L437 0 Z M275 394 L311 565 L430 565 C511 565 553 549 553 499 C553 427 520 394 432 394 L275 394 Z " />
<glyph glyph-name="S" unicode="S" horiz-adv-x="741" d="M348 -11 C569 -11 686 68 686 254 C686 392 553 429 421 456 C339 473 291 484 291 521 C291 562 311 573 386 573 C487 573 567 535 604 506 L742 660 C694 696 592 753 395 753 C220 753 79 697 79 503 C79 357 183 322 326 286 C439 258 474 254 474 211 C474 170 444 160 359 160 C245 160 146 200 83 251 L-50 105 C22 49 154 -11 348 -11 L348 -11 Z " />
<glyph glyph-name="T" unicode="T" horiz-adv-x="695" d="M165 0 L373 0 L491 554 L727 554 L767 741 L87 741 L47 554 L283 554 L165 0 Z " />
<glyph glyph-name="U" unicode="U" horiz-adv-x="816" d="M361 -15 C647 -15 701 131 731 270 L832 741 L631 741 L539 309 C517 203 490 168 384 168 C282 168 252 200 252 256 C252 277 256 302 262 329 L349 741 L141 741 L50 317 C43 284 38 248 38 213 C38 98 97 -15 361 -15 L361 -15 Z " />
<glyph glyph-name="V" unicode="V" horiz-adv-x="793" d="M216 -5 L417 -5 L860 741 L637 741 L371 270 L306 741 L93 741 L216 -5 Z " />
<glyph glyph-name="W" unicode="W" horiz-adv-x="1062" d="M145 -5 L324 -5 L543 430 L578 -5 L757 -5 L1125 741 L916 741 L744 367 L714 741 L511 741 L323 367 L310 741 L95 741 L145 -5 Z " />
<glyph glyph-name="X" unicode="X" horiz-adv-x="797" d="M475 0 L693 0 L517 379 L832 741 L600 741 L440 546 L350 741 L133 741 L288 404 L-64 0 L168 0 L365 237 L475 0 Z " />
<glyph glyph-name="Y" unicode="Y" horiz-adv-x="771" d="M202 0 L409 0 L462 254 L846 741 L618 741 L397 447 L298 741 L82 741 L256 257 L202 0 Z " />
<glyph glyph-name="Z" unicode="Z" horiz-adv-x="686" d="M-54 0 L579 0 L617 179 L265 179 L690 572 L726 741 L121 741 L81 554 L412 554 L-21 153 L-54 0 Z " />
<glyph glyph-name="bracketleft" unicode="&#x5b;" horiz-adv-x="544" d="M-12 -165 L353 -165 L388 0 L224 0 L353 606 L514 606 L550 776 L188 776 L-12 -165 Z " />
<glyph glyph-name="backslash" unicode="&#x5c;" horiz-adv-x="615" d="M340 0 L531 0 L275 741 L84 741 L340 0 Z " />
<glyph glyph-name="bracketright" unicode="&#x5d;" horiz-adv-x="544" d="M-38 -165 L327 -165 L527 776 L166 776 L130 606 L290 606 L161 0 L-3 0 L-38 -165 Z " />
<glyph glyph-name="asciicircum" unicode="&#x5e;" horiz-adv-x="590" d="M92 525 L274 525 L366 600 L426 525 L606 525 L492 723 L290 723 L92 525 Z " />
<glyph glyph-name="underscore" unicode="&#x5f;" horiz-adv-x="453" d="M-153 -176 L374 -176 L405 -30 L-122 -30 L-153 -176 Z " />
<glyph glyph-name="grave" unicode="&#x60;" horiz-adv-x="590" d="M295 625 L462 625 L368 823 L137 823 L295 625 Z " />
<glyph glyph-name="a" unicode="a" horiz-adv-x="648" d="M198 -9 C275 -9 324 13 353 49 C370 4 402 -3 455 -3 C500 -3 526 -1 540 2 L575 163 C531 163 532 173 539 207 L567 339 C602 499 583 586 329 586 C222 586 126 560 77 531 L146 384 C184 402 248 415 296 415 C374 415 386 402 386 384 C386 378 384 372 383 365 L286 365 C119 365 -25 327 -25 164 C-25 59 25 -9 198 -9 L198 -9 Z M256 150 C195 150 173 162 173 192 C173 229 205 246 263 246 L357 246 L353 227 C338 159 320 150 256 150 L256 150 Z " />
<glyph glyph-name="b" unicode="b" horiz-adv-x="679" d="M352 -9 C528 -9 600 103 633 261 C641 300 647 340 647 377 C647 491 597 586 434 586 C365 586 320 567 288 545 L338 776 L141 776 L-23 7 L116 -7 L156 40 C180 19 235 -9 352 -9 L352 -9 Z M322 158 C250 158 227 189 227 236 C227 254 229 274 234 295 C250 374 282 406 354 406 C421 406 439 375 439 334 C439 316 435 296 431 275 C416 208 397 158 322 158 L322 158 Z " />
<glyph glyph-name="c" unicode="c" horiz-adv-x="579" d="M278 -9 C360 -9 436 14 509 76 L405 200 C358 162 330 158 296 158 C224 158 203 191 203 237 C203 256 206 274 209 290 C223 371 258 405 322 405 C390 405 412 379 429 355 L591 483 C543 546 475 586 341 586 C125 586 39 472 10 320 C4 287 -1 252 -1 216 C-1 93 62 -9 278 -9 L278 -9 Z " />
<glyph glyph-name="d" unicode="d" horiz-adv-x="679" d="M209 -9 C303 -9 353 12 387 42 L392 -7 L546 7 L710 776 L511 776 L459 539 C435 560 400 586 291 586 C115 586 43 474 10 316 C2 277 -4 237 -4 200 C-4 86 46 -9 209 -9 L209 -9 Z M289 160 C222 160 206 191 206 232 C206 250 208 270 212 291 C227 358 246 408 321 408 C393 408 416 377 416 330 C416 312 414 292 409 271 C393 192 361 160 289 160 L289 160 Z " />
<glyph glyph-name="e" unicode="e" horiz-adv-x="612" d="M275 -11 C358 -11 453 -2 535 52 L458 188 C422 164 357 148 300 148 C224 148 195 177 189 219 L556 219 C571 281 580 343 580 398 C580 503 519 586 338 586 C139 586 43 484 10 320 C4 287 -1 253 -1 217 C-1 93 61 -11 275 -11 L275 -11 Z M315 422 C381 422 397 397 397 362 C397 354 396 345 395 336 L206 336 C224 390 253 422 315 422 L315 422 Z " />
<glyph glyph-name="f" unicode="f" horiz-adv-x="474" d="M29 405 L137 405 L16 -165 L214 -165 L335 405 L459 405 L495 573 L370 573 L373 585 C381 622 396 636 453 636 L508 636 L542 797 C519 799 510 800 449 800 C275 800 210 748 179 604 L172 573 L65 573 L29 405 Z " />
<glyph glyph-name="g" unicode="g" horiz-adv-x="670" d="M315 211 C510 211 597 264 597 396 C597 438 579 477 557 502 L640 502 L667 651 L367 585 C354 586 342 586 331 586 C129 586 41 530 41 376 C41 332 56 296 90 268 C64 245 44 213 44 177 C44 148 51 126 67 109 C-8 99 -84 58 -84 -39 C-84 -141 3 -179 231 -179 C425 -179 564 -148 564 23 C564 125 486 166 263 172 C230 173 222 180 222 199 C222 206 223 211 225 217 C252 213 282 211 315 211 L315 211 Z M239 -54 C149 -54 129 -32 129 -7 C129 35 158 41 222 41 C328 41 354 27 354 -2 C354 -44 325 -54 239 -54 L239 -54 Z M317 322 C253 322 236 341 236 369 C236 424 259 438 315 438 C381 438 399 420 399 392 C399 339 376 322 317 322 L317 322 Z " />
<glyph glyph-name="h" unicode="h" horiz-adv-x="667" d="M-24 0 L174 0 L242 320 C252 367 266 400 333 400 C421 400 414 359 403 305 L338 0 L536 0 L606 327 C636 471 633 586 422 586 C368 586 318 570 288 545 L338 776 L141 776 L-24 0 Z " />
<glyph glyph-name="i" unicode="i" horiz-adv-x="321" d="M-18 0 L180 0 L302 573 L104 573 L-18 0 Z M112 615 L312 615 L346 776 L146 776 L112 615 Z " />
<glyph glyph-name="j" unicode="j" horiz-adv-x="321" d="M-111 -170 L-34 -170 C97 -170 149 -149 186 25 L302 573 L104 573 L-8 45 C-20 -10 -24 -21 -64 -21 L-79 -21 L-111 -170 Z M112 615 L312 615 L346 776 L146 776 L112 615 Z " />
<glyph glyph-name="k" unicode="k" horiz-adv-x="617" d="M-24 0 L172 0 L200 131 L263 194 L332 0 L538 0 L416 345 L645 573 L426 573 L257 402 L337 776 L141 776 L-24 0 Z " />
<glyph glyph-name="l" unicode="l" horiz-adv-x="366" d="M158 -2 C195 -2 233 0 248 2 L283 165 C276 165 271 165 266 165 C224 165 217 175 226 216 L345 776 L147 776 L27 213 C-6 58 38 -2 158 -2 L158 -2 Z " />
<glyph glyph-name="m" unicode="m" horiz-adv-x="1006" d="M-24 0 L174 0 L242 320 C252 367 260 400 327 400 C412 400 402 359 391 305 L326 0 L524 0 L592 320 C602 367 610 400 677 400 C762 400 752 359 741 305 L676 0 L874 0 L944 327 C974 471 977 586 766 586 C680 586 621 560 587 525 C551 578 490 586 416 586 C342 586 296 565 257 531 L252 574 L95 562 L-24 0 Z " />
<glyph glyph-name="n" unicode="n" horiz-adv-x="667" d="M-24 0 L174 0 L242 320 C252 367 266 400 333 400 C421 400 414 359 403 305 L338 0 L536 0 L606 327 C636 471 633 586 422 586 C349 586 296 565 257 531 L252 574 L95 562 L-24 0 Z " />
<glyph glyph-name="o" unicode="o" horiz-adv-x="657" d="M282 -11 C461 -11 571 67 611 257 C618 292 623 325 623 356 C623 493 543 586 341 586 C162 586 51 510 10 320 C3 286 -1 254 -1 223 C-1 84 79 -11 282 -11 L282 -11 Z M294 158 C222 158 202 191 202 236 C202 253 205 271 209 290 C224 362 248 406 328 406 C399 406 418 372 418 326 C418 309 415 291 411 272 C396 201 372 158 294 158 L294 158 Z " />
<glyph glyph-name="p" unicode="p" horiz-adv-x="679" d="M-59 -165 L139 -165 L181 35 C205 14 235 -9 352 -9 C528 -9 600 103 633 261 C641 300 647 340 647 377 C647 491 597 586 434 586 C340 586 291 558 257 528 L252 574 L95 562 L-59 -165 Z M322 158 C250 158 227 189 227 236 C227 254 229 274 234 295 C250 374 282 406 354 406 C421 406 439 375 439 334 C439 316 435 296 431 275 C416 208 397 158 322 158 L322 158 Z " />
<glyph glyph-name="q" unicode="q" horiz-adv-x="679" d="M311 -165 L511 -165 L664 562 L530 574 L487 533 C451 570 400 586 291 586 C115 586 43 474 10 316 C2 277 -4 237 -4 200 C-4 86 46 -9 209 -9 C277 -9 320 5 351 24 L311 -165 Z M289 160 C222 160 206 191 206 232 C206 250 208 270 212 291 C227 358 246 408 321 408 C393 408 416 377 416 330 C416 312 414 292 409 271 C393 192 361 160 289 160 L289 160 Z " />
<glyph glyph-name="r" unicode="r" horiz-adv-x="407" d="M-24 0 L174 0 L234 281 C250 359 271 388 389 389 L429 580 C353 579 286 561 258 522 L252 574 L95 562 L-24 0 Z " />
<glyph glyph-name="s" unicode="s" horiz-adv-x="579" d="M243 -9 C415 -9 521 39 521 192 C521 308 426 333 333 354 C272 367 242 373 242 394 C242 414 250 422 295 422 C364 422 422 396 458 376 L574 516 C517 553 425 586 315 586 C150 586 38 532 38 367 C38 252 142 225 224 208 C277 197 321 191 321 169 C321 147 308 143 264 143 C201 143 109 178 61 214 L-53 88 C11 33 119 -9 243 -9 L243 -9 Z " />
<glyph glyph-name="t" unicode="t" horiz-adv-x="477" d="M29 405 L119 405 L78 214 C48 70 81 -3 254 -3 C291 -3 325 -2 355 0 L390 165 L333 165 C271 165 269 185 278 224 L316 405 L441 405 L477 573 L352 573 L385 729 L225 696 L167 573 L65 573 L29 405 Z " />
<glyph glyph-name="u" unicode="u" horiz-adv-x="658" d="M275 -11 C476 -11 536 46 583 264 L649 573 L454 573 L390 272 C375 201 363 163 294 163 C209 163 218 218 233 290 L293 573 L95 573 L37 304 C-10 85 42 -11 275 -11 L275 -11 Z " />
<glyph glyph-name="v" unicode="v" horiz-adv-x="628" d="M135 -6 L332 -6 L673 573 L463 573 L286 245 L248 573 L41 573 L135 -6 Z " />
<glyph glyph-name="w" unicode="w" horiz-adv-x="923" d="M100 -6 L283 -6 L448 311 L480 -6 L663 -6 L955 573 L755 573 L638 308 L609 573 L406 573 L270 308 L260 573 L54 573 L100 -6 Z " />
<glyph glyph-name="x" unicode="x" horiz-adv-x="609" d="M316 0 L525 0 L397 293 L638 573 L424 573 L327 452 L275 573 L66 573 L182 307 L-85 0 L129 0 L250 150 L316 0 Z " />
<glyph glyph-name="y" unicode="y" horiz-adv-x="592" d="M47 -171 C185 -171 226 -140 295 -21 L637 573 L432 573 L283 293 L250 573 L41 573 L127 24 L122 12 C108 -16 105 -21 36 -21 L-6 -21 L-38 -169 C-17 -170 8 -171 47 -171 L47 -171 Z " />
<glyph glyph-name="z" unicode="z" horiz-adv-x="540" d="M-66 0 L450 0 L484 158 L235 158 L533 441 L561 573 L72 573 L36 405 L257 405 L-38 131 L-66 0 Z " />
<glyph glyph-name="braceleft" unicode="&#x7b;" horiz-adv-x="581" d="M265 -165 C316 -165 390 -165 390 -165 L425 0 L322 0 C288 0 273 4 273 23 C273 58 358 176 358 239 C358 267 344 293 301 306 C388 328 396 389 396 439 C396 485 388 534 388 560 C388 598 408 606 451 606 L554 606 L590 776 L393 776 C277 776 193 714 193 589 C193 541 203 486 203 450 C203 390 179 386 64 386 L30 225 C120 225 150 223 150 195 C150 151 54 23 54 -54 C54 -128 116 -165 265 -165 L265 -165 Z " />
<glyph glyph-name="bar" unicode="&#x7c;" horiz-adv-x="406" d="M104 -165 L305 -165 L305 776 L104 776 L104 -165 Z " />
<glyph glyph-name="braceright" unicode="&#x7d;" horiz-adv-x="581" d="M-37 -165 L160 -165 C276 -165 360 -103 360 22 C360 70 350 125 350 161 C350 221 374 225 489 225 L523 386 C433 386 403 388 403 416 C403 460 499 588 499 665 C499 739 437 776 288 776 L163 776 L127 606 L230 606 C264 606 279 602 279 583 C279 548 195 435 195 372 C195 344 209 318 252 305 C165 283 157 222 157 172 C157 126 165 77 165 51 C165 13 144 0 101 0 L-2 0 L-37 -165 Z " />
<glyph glyph-name="asciitilde" unicode="&#x7e;" horiz-adv-x="590" d="M458 344 C516 344 579 379 640 452 L544 544 C518 514 491 496 465 496 C415 496 363 552 280 552 C222 552 159 517 98 444 L194 352 C220 382 247 400 273 400 C323 400 375 344 458 344 L458 344 Z " />
<glyph glyph-name="exclamdown" unicode="&#xa1;" horiz-adv-x="424" d="M24 0 L241 0 L327 492 L149 492 L24 0 Z M134 530 L358 530 L403 741 L179 741 L134 530 Z " />
<glyph glyph-name="cent" unicode="&#xa2;" horiz-adv-x="586" d="M126 -94 L314 -94 L333 -2 C394 5 452 28 509 76 L405 200 C358 162 330 158 296 158 C224 158 203 191 203 237 C203 256 206 274 209 290 C223 371 258 405 322 405 C390 405 412 379 429 355 L591 483 C559 525 518 555 455 571 L471 646 L283 646 L268 578 C105 556 35 453 10 320 C4 287 -1 252 -1 216 C-1 122 35 43 148 10 L126 -94 Z " />
<glyph glyph-name="sterling" unicode="&#xa3;" horiz-adv-x="683" d="M409 -6 C538 -6 601 44 636 214 L648 272 L477 272 L471 241 C457 171 453 159 402 159 C364 159 331 167 303 178 C309 197 315 217 320 239 C324 257 326 278 326 300 L443 300 L474 450 L322 450 L322 460 C322 529 331 578 402 578 C454 578 523 559 566 534 L673 693 C610 725 533 754 412 754 C221 754 130 650 130 480 L130 450 L45 450 L14 300 L142 300 C144 273 144 250 141 234 C130 182 123 159 -15 159 L-49 0 C62 -5 142 9 199 44 C251 14 316 -6 409 -6 L409 -6 Z " />
<glyph glyph-name="currency" unicode="&#xa4;" horiz-adv-x="726" d="M26 380 L131 380 C129 367 128 353 127 340 L17 340 L-6 230 L125 230 C137 86 219 -12 403 -12 C480 -12 572 3 631 41 L550 185 C509 162 457 157 428 157 C364 157 332 185 321 230 L491 230 L514 340 L320 340 C321 353 322 367 324 380 L523 380 L546 490 L358 490 C384 541 426 577 490 577 C561 577 602 553 632 534 L747 689 C695 725 609 753 495 753 C329 753 211 653 157 490 L49 490 L26 380 Z " />
<glyph glyph-name="yen" unicode="&#xa5;" horiz-adv-x="692" d="M47 224 L216 224 L207 185 L38 185 L15 74 L184 74 L168 0 L364 0 L380 74 L548 74 L571 185 L403 185 L412 224 L580 224 L603 335 L436 335 L765 741 L552 741 L370 497 L293 741 L85 741 L238 335 L70 335 L47 224 Z " />
<glyph glyph-name="brokenbar" unicode="&#xa6;" horiz-adv-x="406" d="M104 -165 L305 -165 L305 227 L104 227 L104 -165 Z M104 384 L305 384 L305 776 L104 776 L104 384 Z " />
<glyph glyph-name="section" unicode="&#xa7;" horiz-adv-x="637" d="M122 -3 C289 -3 346 78 374 192 C490 201 574 248 574 382 C574 449 536 502 447 527 L447 528 C455 565 466 579 528 579 L583 579 L617 740 C593 742 573 743 507 743 C336 743 279 657 252 539 C140 527 59 475 59 345 C59 280 94 230 180 206 C170 162 158 152 99 152 L44 152 L12 0 C36 -2 56 -3 122 -3 L122 -3 Z M326 304 C242 304 219 326 219 355 C219 406 249 413 308 413 C389 413 413 394 413 364 C413 316 384 304 326 304 L326 304 Z " />
<glyph glyph-name="dieresis" unicode="&#xa8;" horiz-adv-x="590" d="M143 625 L321 625 L354 780 L176 780 L143 625 Z M378 625 L556 625 L589 780 L411 780 L378 625 Z " />
<glyph glyph-name="copyright" unicode="&#xa9;" horiz-adv-x="797" d="M406 141 C514 141 567 177 606 218 L522 300 C493 273 467 255 414 255 C323 255 295 301 295 375 C295 453 330 495 413 495 C462 495 490 479 515 453 L603 541 C559 588 504 612 414 612 C266 612 166 543 166 377 C166 227 234 141 406 141 L406 141 Z M398 -12 C645 -12 769 160 769 371 C769 582 645 754 398 754 C150 754 26 582 26 371 C26 160 150 -12 398 -12 L398 -12 Z M398 56 C177 56 98 201 98 371 C98 541 177 686 398 686 C618 686 697 541 697 371 C697 201 618 56 398 56 L398 56 Z " />
<glyph glyph-name="ordfeminine" unicode="&#xaa;" horiz-adv-x="611" d="M227 271 C285 271 336 290 364 318 C368 307 373 298 380 292 C395 279 417 276 447 276 C483 276 504 277 516 280 L544 410 C507 409 510 422 515 446 L538 553 C566 683 551 753 345 753 C254 753 180 732 141 708 L197 588 C228 602 280 613 312 613 C378 613 391 604 391 589 C391 585 389 579 388 574 L311 574 C175 574 58 554 58 397 C58 327 92 271 227 271 L227 271 Z M41 98 L441 98 L470 237 L70 237 L41 98 Z M286 400 C231 400 218 409 218 433 C218 467 244 478 304 478 L367 478 L364 462 C352 407 328 400 286 400 L286 400 Z " />
<glyph glyph-name="guillemotleft" unicode="&#xab;" horiz-adv-x="812" d="M175 0 L347 0 L273 286 L469 573 L297 573 L85 286 L175 0 Z M428 0 L601 0 L527 286 L723 573 L550 573 L338 286 L428 0 Z " />
<glyph glyph-name="logicalnot" unicode="&#xac;" horiz-adv-x="832" d="M126 120 C126 120 129 123 134 127 C79 193 46 278 46 371 C46 464 79 549 133 615 C129 619 126 621 126 621 C70 554 36 466 36 371 C36 275 70 187 126 120 L126 120 Z M228 211 C230 213 233 215 235 218 C201 259 181 313 181 371 C181 429 202 483 235 524 C232 526 230 529 227 531 C192 487 171 432 171 371 C171 310 193 254 228 211 L228 211 Z M264 243 C267 245 269 248 272 250 C245 283 229 325 229 371 C229 417 245 459 272 492 C269 494 267 497 264 499 C236 464 219 419 219 371 C219 322 236 278 264 243 L264 243 Z M316 289 C319 291 321 294 324 296 C308 317 298 343 298 371 C298 399 308 425 323 445 C321 448 318 450 316 452 C298 430 288 402 288 371 C288 340 298 312 316 289 L316 289 Z M349 320 C352 323 354 325 357 327 C348 340 343 355 343 371 C343 387 348 402 357 415 C354 417 352 420 349 422 C339 408 333 390 333 371 C333 352 339 334 349 320 L349 320 Z M378 346 C382 349 384 351 384 351 C381 357 379 364 379 371 C379 378 381 385 384 391 C384 391 382 393 378 396 C374 389 371 380 371 371 C371 362 374 353 378 346 L378 346 Z M416 60 C493 60 563 89 616 136 C614 139 611 141 609 144 C558 98 490 70 416 70 C342 70 274 98 222 144 C222 145 215 137 215 137 C268 89 338 60 416 60 L416 60 Z M416 324 C426 324 435 327 442 333 C439 337 437 339 437 339 C431 334 424 332 416 332 C408 332 401 335 395 339 C395 339 391 334 389 333 C397 327 406 324 416 324 L416 324 Z M482 319 C493 334 499 352 499 371 C499 390 493 408 482 422 C483 422 475 415 475 415 C484 403 489 388 489 371 C489 355 484 339 475 326 C478 324 480 322 482 319 L482 319 Z M292 269 C295 271 298 274 300 276 C280 302 267 335 267 371 C267 407 280 440 300 466 L293 473 C270 445 257 410 257 371 C257 333 270 297 292 269 L292 269 Z M416 -17 C512 -17 600 19 667 80 C667 80 660 88 660 87 C595 29 510 -7 416 -7 C322 -7 236 29 171 88 L164 80 C231 20 320 -17 416 -17 L416 -17 Z M416 121 C478 121 534 144 576 182 C574 185 571 187 569 190 C529 153 475 131 416 131 C357 131 303 153 262 190 L255 182 C298 144 354 121 416 121 L416 121 Z M416 170 C465 170 510 188 544 218 C542 221 539 223 537 226 C505 197 462 180 416 180 C369 180 327 197 294 226 L287 219 C322 189 367 170 416 170 L416 170 Z M416 209 C455 209 491 224 518 247 C516 250 514 253 512 255 C486 233 452 219 416 219 C380 219 346 233 320 255 L313 247 C341 224 377 209 416 209 L416 209 Z M416 265 C441 265 463 274 481 289 C479 292 476 294 474 297 C458 283 438 275 416 275 C394 275 373 283 357 297 L350 289 C368 274 391 265 416 265 L416 265 Z M358 445 C374 459 394 467 416 467 C438 467 458 459 474 445 L482 453 C464 468 441 477 416 477 C391 477 368 468 350 453 C351 452 354 448 358 445 L358 445 Z M570 552 C572 554 575 557 577 560 C534 598 478 621 416 621 C355 621 299 598 256 560 L263 553 C304 589 357 611 416 611 C475 611 529 589 570 552 L570 552 Z M454 346 C458 353 461 362 461 371 C461 380 458 389 454 396 L448 391 C451 385 453 378 453 371 C453 364 451 357 448 351 C448 351 450 349 454 346 L454 346 Z M468 333 C476 344 480 357 480 371 C480 385 476 398 468 409 L460 402 C466 393 470 382 470 371 C470 360 466 349 460 340 C463 338 465 336 468 333 L468 333 Z M498 306 C511 325 519 347 519 371 C519 395 511 418 497 436 L490 429 C502 413 509 393 509 371 C509 349 502 329 490 313 C492 311 495 308 498 306 L498 306 Z M540 269 C562 297 575 332 575 371 C575 410 562 445 539 473 L531 466 C552 440 565 407 565 371 C565 335 552 302 532 276 C535 274 537 271 540 269 L540 269 Z M568 243 C596 278 613 322 613 371 C613 420 596 464 568 499 L560 492 C587 459 603 417 603 371 C603 325 587 283 560 250 C563 248 566 245 568 243 L568 243 Z M604 211 C640 254 661 310 661 371 C661 432 640 488 604 531 L596 524 C631 483 651 429 651 371 C651 313 631 260 596 218 C601 213 604 211 604 211 L604 211 Z M649 171 C694 225 721 295 721 371 C721 447 694 517 649 571 L641 564 C685 512 711 445 711 371 C711 297 685 230 642 177 C644 175 647 173 649 171 L649 171 Z M706 120 C762 188 796 276 796 371 C796 467 762 555 706 622 L698 615 C753 549 786 464 786 371 C786 278 753 193 698 127 C703 123 706 120 706 120 L706 120 Z M183 170 L190 177 C147 229 121 297 121 371 C121 444 147 512 190 564 C187 567 184 569 182 571 C138 517 111 447 111 371 C111 294 138 225 183 170 L183 170 Z M334 306 L342 314 C330 330 323 350 323 371 C323 393 330 413 342 429 C340 431 337 434 334 436 C321 418 313 395 313 371 C313 346 321 324 334 306 L334 306 Z M364 333 L371 340 C366 349 362 360 362 371 C362 382 366 393 371 402 C369 404 366 406 364 409 C356 398 352 385 352 371 C352 357 356 344 364 333 L364 333 Z M395 403 C401 408 408 410 416 410 C424 410 431 407 437 403 C437 403 439 406 442 409 C435 415 426 418 416 418 C406 418 397 415 390 409 L395 403 Z M384 416 C393 423 404 428 416 428 C428 428 439 424 448 416 C450 419 452 421 454 423 C443 432 430 437 416 437 C401 437 388 432 377 423 L384 416 Z M371 430 C383 441 399 447 416 447 C433 447 449 441 461 430 C461 430 464 434 468 438 C454 450 436 457 416 457 C397 457 378 450 364 438 L371 430 Z M295 516 C327 545 370 562 416 562 C462 562 505 545 538 516 C538 516 545 523 544 523 C510 554 465 572 416 572 C367 572 322 554 288 524 L295 516 Z M416 240 C448 240 476 252 498 271 L491 278 C471 261 445 250 416 250 C388 250 361 261 340 278 L333 270 C355 251 384 240 416 240 L416 240 Z M416 285 C436 285 454 292 468 304 L461 312 C448 301 433 295 416 295 C399 295 383 302 370 312 L363 304 C378 292 396 285 416 285 L416 285 Z M416 305 C430 305 444 310 455 319 L448 326 C439 319 428 314 416 314 C404 314 393 319 383 326 L376 319 C388 310 401 305 416 305 L416 305 Z M341 464 C362 482 388 492 416 492 C445 492 471 481 491 464 L498 472 C476 491 447 502 416 502 C385 502 356 490 334 471 L341 464 Z M320 487 C346 509 380 523 416 523 C453 523 486 510 512 487 L518 494 C491 518 455 533 416 533 C377 533 341 519 313 495 L320 487 Z M610 597 L617 605 C563 653 493 682 416 682 C339 682 269 653 215 605 L222 598 C274 644 342 672 416 672 C491 672 559 644 610 597 L610 597 Z M172 654 C237 713 322 749 416 749 C510 749 596 713 661 654 L668 662 C601 722 512 759 416 759 C320 759 232 723 165 662 L172 654 Z M516 290 C534 312 544 340 544 371 C544 402 534 430 516 453 L508 446 C524 425 534 399 534 371 C534 343 524 317 509 297 L516 290 Z " />
<glyph glyph-name="registered" unicode="&#xae;" horiz-adv-x="797" d="M398 -12 C645 -12 769 160 769 371 C769 582 645 754 398 754 C150 754 26 582 26 371 C26 160 150 -12 398 -12 L398 -12 Z M398 56 C177 56 98 201 98 371 C98 541 177 686 398 686 C618 686 697 541 697 371 C697 201 618 56 398 56 L398 56 Z M479 153 L606 153 L528 299 C601 325 610 383 610 438 C610 519 592 588 429 588 L210 588 L210 153 L327 153 L327 284 L409 284 L479 153 Z M327 384 L327 484 L424 484 C477 484 489 475 489 434 C489 394 477 384 425 384 L327 384 Z " />
<glyph glyph-name="&amp;#xaf;" unicode="&#xaf;" horiz-adv-x="590" d="M124 625 L574 625 L607 782 L157 782 L124 625 Z " />
<glyph glyph-name="&amp;#x2c9;" unicode="&#x2c9;" horiz-adv-x="590" d="M124 625 L574 625 L607 782 L157 782 L124 625 Z " />
<glyph glyph-name="degree" unicode="&#xb0;" horiz-adv-x="569" d="M286 261 C455 261 573 379 573 542 C573 651 510 753 350 753 C167 753 54 631 54 468 C54 360 118 261 286 261 L286 261 Z M300 403 C234 403 213 438 213 479 C213 546 248 600 324 600 C391 600 412 564 412 523 C412 455 376 403 300 403 L300 403 Z " />
<glyph glyph-name="plusminus" unicode="&#xb1;" horiz-adv-x="1160" d="M378 -165 L576 -165 L697 405 L801 405 L837 573 L732 573 L735 585 C743 622 758 636 815 636 L850 636 L884 797 C861 799 833 800 811 800 C637 800 572 748 541 604 L534 573 L370 573 L373 585 C381 622 396 636 453 636 L488 636 L522 797 C499 799 510 800 449 800 C275 800 210 748 179 604 L172 573 L65 573 L29 405 L137 405 L16 -165 L214 -165 L335 405 L499 405 L378 -165 Z M952 -2 C989 -2 1027 0 1042 2 L1077 165 L1060 165 C1018 165 1011 175 1020 216 L1139 776 L941 776 L821 213 C788 58 832 -2 952 -2 L952 -2 Z " />
<glyph glyph-name="twosuperior" unicode="&#xb2;" horiz-adv-x="545" d="M31 236 L438 236 L462 357 L282 357 L362 409 C470 479 516 514 516 619 C516 707 443 749 300 749 C232 749 168 735 118 715 L161 599 C195 612 255 621 285 621 C332 621 356 613 356 589 C356 549 343 538 242 469 L53 341 L31 236 Z " />
<glyph glyph-name="threesuperior" unicode="&#xb3;" horiz-adv-x="545" d="M267 228 C385 228 484 267 484 405 C484 461 464 489 436 502 C481 518 519 551 519 637 C519 709 447 749 325 749 C266 749 166 742 114 713 L167 602 C198 617 256 626 292 626 C339 626 357 618 357 597 C357 565 336 561 299 561 L192 561 L167 443 L259 443 C310 443 330 431 330 403 C330 360 302 347 263 347 C203 347 149 368 106 400 L21 294 C71 255 154 228 267 228 L267 228 Z " />
<glyph glyph-name="acute" unicode="&#xb4;" horiz-adv-x="590" d="M230 625 L409 625 L651 823 L408 823 L230 625 Z " />
<glyph glyph-name="&amp;#xb5;" unicode="&#xb5;" horiz-adv-x="661" d="M-59 -165 L139 -165 L177 12 C200 -2 238 -11 278 -11 C458 -11 539 46 586 264 L652 573 L457 573 L393 272 C378 201 372 163 299 163 C207 163 221 218 236 290 L296 573 L98 573 L-59 -165 Z " />
<glyph glyph-name="&amp;#x3bc;" unicode="&#x3bc;" horiz-adv-x="661" d="M-59 -165 L139 -165 L177 12 C200 -2 238 -11 278 -11 C458 -11 539 46 586 264 L652 573 L457 573 L393 272 C378 201 372 163 299 163 C207 163 221 218 236 290 L296 573 L98 573 L-59 -165 Z " />
<glyph glyph-name="paragraph" unicode="&#xb6;" horiz-adv-x="709" d="M129 0 L315 0 L360 212 L420 212 L375 0 L561 0 L719 741 L396 741 C134 741 51 619 51 418 C51 340 80 272 179 237 L129 0 Z M368 368 C286 368 255 393 255 444 C255 534 296 570 369 570 L496 570 L453 368 L368 368 Z " />
<glyph glyph-name="&amp;#xb7;" unicode="&#xb7;" horiz-adv-x="321" d="M27 274 L251 274 L298 496 L74 496 L27 274 Z " />
<glyph glyph-name="&amp;#x2219;" unicode="&#x2219;" horiz-adv-x="321" d="M27 274 L251 274 L298 496 L74 496 L27 274 Z " />
<glyph glyph-name="cedilla" unicode="&#xb8;" horiz-adv-x="590" d="M189 -262 C251 -262 361 -257 361 -124 C361 -57 303 -46 248 -41 L267 7 L160 7 L124 -77 L153 -97 C184 -94 233 -95 233 -126 C233 -162 207 -162 186 -162 C147 -162 115 -147 87 -129 L21 -218 C55 -240 111 -262 189 -262 L189 -262 Z " />
<glyph glyph-name="onesuperior" unicode="&#xb9;" horiz-adv-x="404" d="M108 236 L267 236 L375 741 L135 741 L108 610 L188 610 L108 236 Z " />
<glyph glyph-name="ordmasculine" unicode="&#xba;" horiz-adv-x="601" d="M321 270 C480 270 581 382 581 563 C581 676 514 753 335 753 C180 753 78 639 76 459 C76 346 143 270 321 270 L321 270 Z M320 407 C259 407 241 434 241 472 C241 553 275 607 336 607 C398 607 415 578 415 539 C415 457 382 407 320 407 L320 407 Z M30 96 L453 96 L483 235 L60 235 L30 96 Z " />
<glyph glyph-name="guillemotright" unicode="&#xbb;" horiz-adv-x="812" d="M54 0 L226 0 L438 287 L348 573 L176 573 L250 287 L54 0 Z M307 0 L480 0 L692 287 L602 573 L429 573 L503 287 L307 0 Z " />
<glyph glyph-name="onequarter" unicode="&#xbc;" horiz-adv-x="1120" d="M563 83 L809 83 L792 0 L936 0 L953 83 L1026 83 L1051 198 L977 198 L999 300 L885 300 L836 198 L759 198 L1040 505 L872 505 L586 190 L563 83 Z M140 0 L313 0 L885 741 L713 741 L140 0 Z M81 237 L240 237 L348 741 L108 741 L80 610 L161 610 L81 237 Z " />
<glyph glyph-name="onehalf" unicode="&#xbd;" horiz-adv-x="1172" d="M81 237 L240 237 L348 741 L108 741 L80 610 L161 610 L81 237 Z M140 0 L313 0 L885 741 L713 741 L140 0 Z M630 0 L1037 0 L1061 121 L881 121 L961 173 C1069 243 1115 278 1115 383 C1115 466 1034 513 899 513 C831 513 767 499 717 479 L760 363 C794 376 854 385 884 385 C931 385 955 377 955 353 C955 313 942 302 841 233 L652 105 L630 0 Z " />
<glyph glyph-name="threequarters" unicode="&#xbe;" horiz-adv-x="1285" d="M267 229 C385 229 484 268 484 406 C484 462 464 490 436 503 C481 519 519 552 519 638 C519 710 447 750 325 750 C266 750 166 743 114 714 L167 603 C198 618 256 627 292 627 C339 627 357 619 357 598 C357 566 336 562 299 562 L192 562 L167 444 L259 444 C310 444 330 432 330 404 C330 361 302 348 263 348 C203 348 149 369 106 401 L21 295 C71 256 154 229 267 229 L267 229 Z M729 83 L975 83 L958 0 L1102 0 L1119 83 L1192 83 L1217 198 L1143 198 L1165 300 L1051 300 L1002 198 L925 198 L1206 505 L1038 505 L752 190 L729 83 Z M306 0 L478 0 L1051 741 L879 741 L306 0 Z " />
<glyph glyph-name="questiondown" unicode="&#xbf;" horiz-adv-x="721" d="M302 -12 C381 -12 514 -1 595 35 L534 198 C471 177 404 165 342 164 C244 164 222 186 222 213 C222 260 239 270 321 290 C458 324 490 368 508 517 L315 517 C306 445 299 429 194 399 C62 362 10 303 10 165 C10 46 107 -12 302 -12 L302 -12 Z M308 555 L532 555 L572 741 L348 741 L308 555 Z " />
<glyph glyph-name="Agrave" unicode="&#xc0;" horiz-adv-x="793" d="M-70 0 L149 0 L202 96 L476 96 L491 0 L697 0 L574 746 L373 746 L-70 0 Z M297 266 L419 483 L450 266 L297 266 Z M428 779 L595 779 L501 977 L270 977 L428 779 Z " />
<glyph glyph-name="Aacute" unicode="&#xc1;" horiz-adv-x="793" d="M-70 0 L149 0 L202 96 L476 96 L491 0 L697 0 L574 746 L373 746 L-70 0 Z M297 266 L419 483 L450 266 L297 266 Z M363 779 L542 779 L784 977 L541 977 L363 779 Z " />
<glyph glyph-name="Acircumflex" unicode="&#xc2;" horiz-adv-x="793" d="M-70 0 L149 0 L202 96 L476 96 L491 0 L697 0 L574 746 L373 746 L-70 0 Z M297 266 L419 483 L450 266 L297 266 Z M225 779 L407 779 L499 854 L559 779 L739 779 L625 977 L423 977 L225 779 Z " />
<glyph glyph-name="Atilde" unicode="&#xc3;" horiz-adv-x="793" d="M-70 0 L149 0 L202 96 L476 96 L491 0 L697 0 L574 746 L373 746 L-70 0 Z M297 266 L419 483 L450 266 L297 266 Z M591 778 C649 778 712 813 773 886 L677 978 C651 948 624 930 598 930 C548 930 496 986 413 986 C355 986 292 951 231 878 L327 786 C353 816 380 834 406 834 C456 834 508 778 591 778 L591 778 Z " />
<glyph glyph-name="Adieresis" unicode="&#xc4;" horiz-adv-x="793" d="M-70 0 L149 0 L202 96 L476 96 L491 0 L697 0 L574 746 L373 746 L-70 0 Z M297 266 L419 483 L450 266 L297 266 Z M276 779 L454 779 L487 934 L309 934 L276 779 Z M511 779 L689 779 L722 934 L544 934 L511 779 Z " />
<glyph glyph-name="Aring" unicode="&#xc5;" horiz-adv-x="793" d="M-70 0 L149 0 L202 96 L476 96 L491 0 L697 0 L582 695 C618 726 639 775 639 838 C639 909 594 970 493 970 C387 970 320 895 320 780 C320 750 328 722 346 700 L-70 0 Z M297 266 L419 483 L450 266 L297 266 Z M471 748 C432 748 418 769 418 794 C418 842 444 875 486 875 C528 875 542 853 542 826 C542 778 516 748 471 748 L471 748 Z " />
<glyph glyph-name="AE" unicode="&#xc6;" horiz-adv-x="1168" d="M-86 0 L136 0 L222 106 L496 106 L474 0 L1039 0 L1077 179 L710 179 L732 283 L1085 283 L1124 464 L771 464 L790 554 L1153 554 L1193 741 L516 741 L-86 0 Z M358 273 L593 562 L532 273 L358 273 Z " />
<glyph glyph-name="Ccedilla" unicode="&#xc7;" horiz-adv-x="763" d="M275 -262 C337 -262 447 -257 447 -124 C447 -57 389 -46 334 -41 L346 -10 C356 -11 367 -11 379 -11 C518 -11 606 21 683 88 L566 235 C521 199 468 174 398 174 C273 174 233 228 233 308 C233 331 236 357 242 384 C269 511 332 563 442 563 C524 563 574 535 606 493 L775 630 C730 687 649 753 445 753 C267 753 93 688 34 409 C24 363 20 320 20 279 C20 139 83 37 244 2 L210 -77 L239 -97 C270 -94 319 -95 319 -126 C319 -162 293 -162 272 -162 C233 -162 201 -147 173 -129 L107 -218 C141 -240 197 -262 275 -262 L275 -262 Z " />
<glyph glyph-name="Egrave" unicode="&#xc8;" horiz-adv-x="702" d="M-11 0 L573 0 L611 179 L234 179 L256 283 L619 283 L658 464 L295 464 L314 554 L687 554 L727 741 L147 741 L-11 0 Z M383 779 L550 779 L456 977 L225 977 L383 779 Z " />
<glyph glyph-name="Eacute" unicode="&#xc9;" horiz-adv-x="702" d="M-11 0 L573 0 L611 179 L234 179 L256 283 L619 283 L658 464 L295 464 L314 554 L687 554 L727 741 L147 741 L-11 0 Z M318 779 L497 779 L739 977 L496 977 L318 779 Z " />
<glyph glyph-name="Ecircumflex" unicode="&#xca;" horiz-adv-x="702" d="M-11 0 L573 0 L611 179 L234 179 L256 283 L619 283 L658 464 L295 464 L314 554 L687 554 L727 741 L147 741 L-11 0 Z M180 779 L362 779 L454 854 L514 779 L694 779 L580 977 L378 977 L180 779 Z " />
<glyph glyph-name="Edieresis" unicode="&#xcb;" horiz-adv-x="702" d="M-11 0 L573 0 L611 179 L234 179 L256 283 L619 283 L658 464 L295 464 L314 554 L687 554 L727 741 L147 741 L-11 0 Z M231 779 L409 779 L442 934 L264 934 L231 779 Z M466 779 L644 779 L677 934 L499 934 L466 779 Z " />
<glyph glyph-name="Igrave" unicode="&#xcc;" horiz-adv-x="367" d="M192 779 L359 779 L289 977 L58 977 L192 779 Z M1 0 L208 0 L366 741 L159 741 L1 0 Z " />
<glyph glyph-name="Iacute" unicode="&#xcd;" horiz-adv-x="367" d="M178 779 L357 779 L572 977 L329 977 L178 779 Z M1 0 L208 0 L366 741 L159 741 L1 0 Z " />
<glyph glyph-name="Icircumflex" unicode="&#xce;" horiz-adv-x="367" d="M1 0 L208 0 L366 741 L159 741 L1 0 Z M13 779 L195 779 L287 854 L347 779 L527 779 L413 977 L211 977 L13 779 Z " />
<glyph glyph-name="Idieresis" unicode="&#xcf;" horiz-adv-x="367" d="M1 0 L208 0 L366 741 L159 741 L1 0 Z M64 779 L242 779 L275 934 L97 934 L64 779 Z M299 779 L477 779 L510 934 L332 934 L299 779 Z " />
<glyph glyph-name="Eth" unicode="&#xd0;" horiz-adv-x="790" d="M-18 288 L50 288 L-11 0 L328 0 C546 0 692 32 755 326 C767 380 772 427 772 470 C772 663 648 741 345 741 L147 741 L85 451 L17 451 L-18 288 Z M234 180 L257 288 L379 288 L414 451 L292 451 L314 555 L344 555 C512 555 558 517 558 439 C558 413 553 384 546 350 C517 212 483 180 333 180 L234 180 Z " />
<glyph glyph-name="Ntilde" unicode="&#xd1;" horiz-adv-x="825" d="M-11 0 L187 0 L282 448 L487 0 L678 0 L836 741 L638 741 L551 334 L369 741 L147 741 L-11 0 Z M607 778 C665 778 728 813 789 886 L693 978 C667 948 640 930 614 930 C564 930 512 986 429 986 C371 986 308 951 247 878 L343 786 C369 816 396 834 422 834 C472 834 524 778 607 778 L607 778 Z " />
<glyph glyph-name="Ograve" unicode="&#xd2;" horiz-adv-x="853" d="M398 -12 C567 -12 758 48 819 334 C828 376 832 415 832 451 C832 656 683 753 459 753 C284 753 94 698 34 413 C25 370 21 330 21 294 C21 88 170 -12 398 -12 L398 -12 Z M401 170 C273 170 234 232 234 314 C234 337 237 362 242 387 C266 502 321 563 448 563 C577 563 617 503 617 422 C617 399 613 375 608 349 C584 234 529 170 401 170 L401 170 Z M458 779 L625 779 L531 977 L300 977 L458 779 Z " />
<glyph glyph-name="Oacute" unicode="&#xd3;" horiz-adv-x="853" d="M398 -12 C567 -12 758 48 819 334 C828 376 832 415 832 451 C832 656 683 753 459 753 C284 753 94 698 34 413 C25 370 21 330 21 294 C21 88 170 -12 398 -12 L398 -12 Z M401 170 C273 170 234 232 234 314 C234 337 237 362 242 387 C266 502 321 563 448 563 C577 563 617 503 617 422 C617 399 613 375 608 349 C584 234 529 170 401 170 L401 170 Z M393 779 L572 779 L814 977 L571 977 L393 779 Z " />
<glyph glyph-name="Ocircumflex" unicode="&#xd4;" horiz-adv-x="853" d="M398 -12 C567 -12 758 48 819 334 C828 376 832 415 832 451 C832 656 683 753 459 753 C284 753 94 698 34 413 C25 370 21 330 21 294 C21 88 170 -12 398 -12 L398 -12 Z M401 170 C273 170 234 232 234 314 C234 337 237 362 242 387 C266 502 321 563 448 563 C577 563 617 503 617 422 C617 399 613 375 608 349 C584 234 529 170 401 170 L401 170 Z M255 779 L437 779 L529 854 L589 779 L769 779 L655 977 L453 977 L255 779 Z " />
<glyph glyph-name="Otilde" unicode="&#xd5;" horiz-adv-x="853" d="M398 -12 C567 -12 758 48 819 334 C828 376 832 415 832 451 C832 656 683 753 459 753 C284 753 94 698 34 413 C25 370 21 330 21 294 C21 88 170 -12 398 -12 L398 -12 Z M401 170 C273 170 234 232 234 314 C234 337 237 362 242 387 C266 502 321 563 448 563 C577 563 617 503 617 422 C617 399 613 375 608 349 C584 234 529 170 401 170 L401 170 Z M621 778 C679 778 742 813 803 886 L707 978 C681 948 654 930 628 930 C578 930 526 986 443 986 C385 986 322 951 261 878 L357 786 C383 816 410 834 436 834 C486 834 538 778 621 778 L621 778 Z " />
<glyph glyph-name="Odieresis" unicode="&#xd6;" horiz-adv-x="853" d="M398 -12 C567 -12 758 48 819 334 C828 376 832 415 832 451 C832 656 683 753 459 753 C284 753 94 698 34 413 C25 370 21 330 21 294 C21 88 170 -12 398 -12 L398 -12 Z M401 170 C273 170 234 232 234 314 C234 337 237 362 242 387 C266 502 321 563 448 563 C577 563 617 503 617 422 C617 399 613 375 608 349 C584 234 529 170 401 170 L401 170 Z M306 779 L484 779 L517 934 L339 934 L306 779 Z M541 779 L719 779 L752 934 L574 934 L541 779 Z " />
<glyph glyph-name="multiply" unicode="&#xd7;" horiz-adv-x="736" d="M162 83 L338 228 L451 84 L598 209 L485 352 L659 495 L565 620 L391 476 L278 620 L129 495 L243 352 L68 208 L162 83 Z " />
<glyph glyph-name="Oslash" unicode="&#xd8;" horiz-adv-x="853" d="M398 -12 C567 -12 758 48 819 334 C828 376 832 415 832 451 C832 544 802 615 749 664 L845 783 L680 783 L635 728 C585 745 525 753 459 753 C284 753 94 698 34 413 C25 370 20 330 21 294 C21 200 50 128 104 78 L7 -41 L173 -41 L217 13 C269 -3 329 -12 398 -12 L398 -12 Z M400 160 C374 160 352 162 333 166 L609 504 C622 482 627 455 627 425 C627 401 622 375 617 348 C592 227 534 160 400 160 L400 160 Z M224 311 C224 336 228 362 233 388 C258 509 316 573 449 573 C473 573 494 571 512 567 L240 233 C228 255 224 282 224 311 L224 311 Z " />
<glyph glyph-name="Ugrave" unicode="&#xd9;" horiz-adv-x="816" d="M361 -15 C647 -15 701 131 731 270 L832 741 L631 741 L539 309 C517 203 490 168 384 168 C282 168 252 200 252 256 C252 277 256 302 262 329 L349 741 L141 741 L50 317 C43 284 38 248 38 213 C38 98 97 -15 361 -15 L361 -15 Z M440 779 L607 779 L513 977 L282 977 L440 779 Z " />
<glyph glyph-name="Uacute" unicode="&#xda;" horiz-adv-x="816" d="M361 -15 C647 -15 701 131 731 270 L832 741 L631 741 L539 309 C517 203 490 168 384 168 C282 168 252 200 252 256 C252 277 256 302 262 329 L349 741 L141 741 L50 317 C43 284 38 248 38 213 C38 98 97 -15 361 -15 L361 -15 Z M375 779 L554 779 L796 977 L553 977 L375 779 Z " />
<glyph glyph-name="Ucircumflex" unicode="&#xdb;" horiz-adv-x="816" d="M361 -15 C647 -15 701 131 731 270 L832 741 L631 741 L539 309 C517 203 490 168 384 168 C282 168 252 200 252 256 C252 277 256 302 262 329 L349 741 L141 741 L50 317 C43 284 38 248 38 213 C38 98 97 -15 361 -15 L361 -15 Z M237 779 L419 779 L511 854 L571 779 L751 779 L637 977 L435 977 L237 779 Z " />
<glyph glyph-name="Udieresis" unicode="&#xdc;" horiz-adv-x="816" d="M361 -15 C647 -15 701 131 731 270 L832 741 L631 741 L539 309 C517 203 490 168 384 168 C282 168 252 200 252 256 C252 277 256 302 262 329 L349 741 L141 741 L50 317 C43 284 38 248 38 213 C38 98 97 -15 361 -15 L361 -15 Z M288 779 L466 779 L499 934 L321 934 L288 779 Z M523 779 L701 779 L734 934 L556 934 L523 779 Z " />
<glyph glyph-name="Yacute" unicode="&#xdd;" horiz-adv-x="771" d="M202 0 L409 0 L462 254 L846 741 L618 741 L397 447 L298 741 L82 741 L256 257 L202 0 Z M352 779 L531 779 L773 977 L530 977 L352 779 Z " />
<glyph glyph-name="Thorn" unicode="&#xde;" horiz-adv-x="767" d="M-11 0 L191 0 L216 115 L419 115 C671 115 755 263 755 448 C755 556 690 654 446 654 L331 654 L349 741 L148 741 L-11 0 Z M252 286 L293 478 L417 478 C508 478 538 452 538 404 C538 315 493 286 413 286 L252 286 Z " />
<glyph glyph-name="germandbls" unicode="&#xdf;" horiz-adv-x="695" d="M-59 -165 L137 -165 L278 499 C293 568 318 594 371 594 C431 594 449 572 449 542 C449 473 421 444 327 445 L298 311 C420 311 450 295 450 258 C450 193 417 168 325 168 L260 168 L224 0 L337 0 C538 0 642 55 642 257 C642 340 604 380 539 400 C614 424 650 510 650 613 C650 717 580 787 391 787 C185 787 118 665 89 528 L-59 -165 Z " />
<glyph glyph-name="agrave" unicode="&#xe0;" horiz-adv-x="648" d="M198 -9 C275 -9 324 13 353 49 C370 4 402 -3 455 -3 C500 -3 526 -1 540 2 L575 163 C531 163 532 173 539 207 L567 339 C602 499 583 586 329 586 C222 586 126 560 77 531 L146 384 C184 402 248 415 296 415 C374 415 386 402 386 384 C386 378 384 372 383 365 L286 365 C119 365 -25 327 -25 164 C-25 59 25 -9 198 -9 L198 -9 Z M256 150 C195 150 173 162 173 192 C173 229 205 246 263 246 L357 246 L353 227 C338 159 320 150 256 150 L256 150 Z M324 625 L491 625 L397 823 L166 823 L324 625 Z " />
<glyph glyph-name="aacute" unicode="&#xe1;" horiz-adv-x="648" d="M198 -9 C275 -9 324 13 353 49 C370 4 402 -3 455 -3 C500 -3 526 -1 540 2 L575 163 C531 163 532 173 539 207 L567 339 C602 499 583 586 329 586 C222 586 126 560 77 531 L146 384 C184 402 248 415 296 415 C374 415 386 402 386 384 C386 378 384 372 383 365 L286 365 C119 365 -25 327 -25 164 C-25 59 25 -9 198 -9 L198 -9 Z M256 150 C195 150 173 162 173 192 C173 229 205 246 263 246 L357 246 L353 227 C338 159 320 150 256 150 L256 150 Z M259 625 L438 625 L680 823 L437 823 L259 625 Z " />
<glyph glyph-name="acircumflex" unicode="&#xe2;" horiz-adv-x="648" d="M198 -9 C275 -9 324 13 353 49 C370 4 402 -3 455 -3 C500 -3 526 -1 540 2 L575 163 C531 163 532 173 539 207 L567 339 C602 499 583 586 329 586 C222 586 126 560 77 531 L146 384 C184 402 248 415 296 415 C374 415 386 402 386 384 C386 378 384 372 383 365 L286 365 C119 365 -25 327 -25 164 C-25 59 25 -9 198 -9 L198 -9 Z M256 150 C195 150 173 162 173 192 C173 229 205 246 263 246 L357 246 L353 227 C338 159 320 150 256 150 L256 150 Z M121 625 L303 625 L395 700 L455 625 L635 625 L521 823 L319 823 L121 625 Z " />
<glyph glyph-name="atilde" unicode="&#xe3;" horiz-adv-x="648" d="M198 -9 C275 -9 324 13 353 49 C370 4 402 -3 455 -3 C500 -3 526 -1 540 2 L575 163 C531 163 532 173 539 207 L567 339 C602 499 583 586 329 586 C222 586 126 560 77 531 L146 384 C184 402 248 415 296 415 C374 415 386 402 386 384 C386 378 384 372 383 365 L286 365 C119 365 -25 327 -25 164 C-25 59 25 -9 198 -9 L198 -9 Z M256 150 C195 150 173 162 173 192 C173 229 205 246 263 246 L357 246 L353 227 C338 159 320 150 256 150 L256 150 Z M487 624 C545 624 608 659 669 732 L573 824 C547 794 520 776 494 776 C444 776 392 832 309 832 C251 832 188 797 127 724 L223 632 C249 662 276 680 302 680 C352 680 404 624 487 624 L487 624 Z " />
<glyph glyph-name="adieresis" unicode="&#xe4;" horiz-adv-x="648" d="M198 -9 C275 -9 324 13 353 49 C370 4 402 -3 455 -3 C500 -3 526 -1 540 2 L575 163 C531 163 532 173 539 207 L567 339 C602 499 583 586 329 586 C222 586 126 560 77 531 L146 384 C184 402 248 415 296 415 C374 415 386 402 386 384 C386 378 384 372 383 365 L286 365 C119 365 -25 327 -25 164 C-25 59 25 -9 198 -9 L198 -9 Z M256 150 C195 150 173 162 173 192 C173 229 205 246 263 246 L357 246 L353 227 C338 159 320 150 256 150 L256 150 Z M172 625 L350 625 L383 780 L205 780 L172 625 Z M407 625 L585 625 L618 780 L440 780 L407 625 Z " />
<glyph glyph-name="aring" unicode="&#xe5;" horiz-adv-x="648" d="M198 -9 C275 -9 324 13 353 49 C370 4 402 -3 455 -3 C500 -3 526 -1 540 2 L575 163 C531 163 532 173 539 207 L567 339 C602 499 583 586 329 586 C222 586 126 560 77 531 L146 384 C184 402 248 415 296 415 C374 415 386 402 386 384 C386 378 384 372 383 365 L286 365 C119 365 -25 327 -25 164 C-25 59 25 -9 198 -9 L198 -9 Z M256 150 C195 150 173 162 173 192 C173 229 205 246 263 246 L357 246 L353 227 C338 159 320 150 256 150 L256 150 Z M394 614 C497 614 568 683 568 798 C568 869 523 930 422 930 C316 930 249 855 249 740 C249 671 292 614 394 614 L394 614 Z M400 708 C361 708 347 729 347 754 C347 802 373 835 415 835 C457 835 471 813 471 786 C471 738 445 708 400 708 L400 708 Z " />
<glyph glyph-name="ae" unicode="&#xe6;" horiz-adv-x="959" d="M622 -11 C705 -11 800 -2 882 52 L805 188 C769 164 704 148 647 148 C571 148 542 177 536 219 L903 219 C918 281 927 343 927 398 C927 501 868 586 685 586 C615 586 561 573 518 550 C483 573 424 586 329 586 C217 586 126 560 77 531 L147 384 C185 402 249 415 296 415 C370 415 386 402 386 384 C386 378 384 372 383 365 L286 365 C138 365 -25 337 -25 164 C-25 64 17 -9 198 -9 C324 -9 377 22 412 58 C449 16 513 -11 622 -11 L622 -11 Z M256 150 C189 150 173 167 173 192 C173 229 205 246 263 246 L357 246 L353 227 C338 159 320 150 256 150 L256 150 Z M662 422 C728 422 744 397 744 362 C744 354 743 345 742 336 L553 336 C571 390 600 422 662 422 L662 422 Z " />
<glyph glyph-name="ccedilla" unicode="&#xe7;" horiz-adv-x="579" d="M183 -262 C245 -262 355 -257 355 -124 C355 -57 297 -46 242 -41 L255 -8 C262 -9 270 -9 278 -9 C360 -9 436 14 509 76 L405 200 C358 162 330 158 296 158 C224 158 203 191 203 237 C203 256 206 274 209 290 C223 371 258 405 322 405 C390 405 412 379 429 355 L591 483 C543 546 475 586 341 586 C125 586 39 472 10 320 C4 287 -1 252 -1 216 C-1 121 37 38 153 6 L118 -77 L147 -97 C178 -94 227 -95 227 -126 C227 -162 201 -162 180 -162 C141 -162 109 -147 81 -129 L15 -218 C49 -240 105 -262 183 -262 L183 -262 Z " />
<glyph glyph-name="egrave" unicode="&#xe8;" horiz-adv-x="612" d="M275 -11 C358 -11 453 -2 535 52 L458 188 C422 164 357 148 300 148 C224 148 195 177 189 219 L556 219 C571 281 580 343 580 398 C580 503 519 586 338 586 C139 586 43 484 10 320 C4 287 -1 253 -1 217 C-1 93 61 -11 275 -11 L275 -11 Z M315 422 C381 422 397 397 397 362 C397 354 396 345 395 336 L206 336 C224 390 253 422 315 422 L315 422 Z M306 625 L473 625 L379 823 L148 823 L306 625 Z " />
<glyph glyph-name="eacute" unicode="&#xe9;" horiz-adv-x="612" d="M275 -11 C358 -11 453 -2 535 52 L458 188 C422 164 357 148 300 148 C224 148 195 177 189 219 L556 219 C571 281 580 343 580 398 C580 503 519 586 338 586 C139 586 43 484 10 320 C4 287 -1 253 -1 217 C-1 93 61 -11 275 -11 L275 -11 Z M315 422 C381 422 397 397 397 362 C397 354 396 345 395 336 L206 336 C224 390 253 422 315 422 L315 422 Z M241 625 L420 625 L662 823 L419 823 L241 625 Z " />
<glyph glyph-name="ecircumflex" unicode="&#xea;" horiz-adv-x="612" d="M275 -11 C358 -11 453 -2 535 52 L458 188 C422 164 357 148 300 148 C224 148 195 177 189 219 L556 219 C571 281 580 343 580 398 C580 503 519 586 338 586 C139 586 43 484 10 320 C4 287 -1 253 -1 217 C-1 93 61 -11 275 -11 L275 -11 Z M315 422 C381 422 397 397 397 362 C397 354 396 345 395 336 L206 336 C224 390 253 422 315 422 L315 422 Z M103 625 L285 625 L377 700 L437 625 L617 625 L503 823 L301 823 L103 625 Z " />
<glyph glyph-name="edieresis" unicode="&#xeb;" horiz-adv-x="612" d="M275 -11 C358 -11 453 -2 535 52 L458 188 C422 164 357 148 300 148 C224 148 195 177 189 219 L556 219 C571 281 580 343 580 398 C580 503 519 586 338 586 C139 586 43 484 10 320 C4 287 -1 253 -1 217 C-1 93 61 -11 275 -11 L275 -11 Z M315 422 C381 422 397 397 397 362 C397 354 396 345 395 336 L206 336 C224 390 253 422 315 422 L315 422 Z M154 625 L332 625 L365 780 L187 780 L154 625 Z M389 625 L567 625 L600 780 L422 780 L389 625 Z " />
<glyph glyph-name="igrave" unicode="&#xec;" horiz-adv-x="321" d="M127 625 L294 625 L233 823 L2 823 L127 625 Z M-18 0 L180 0 L302 573 L104 573 L-18 0 Z " />
<glyph glyph-name="iacute" unicode="&#xed;" horiz-adv-x="321" d="M118 625 L297 625 L516 823 L273 823 L118 625 Z M-18 0 L180 0 L302 573 L104 573 L-18 0 Z " />
<glyph glyph-name="icircumflex" unicode="&#xee;" horiz-adv-x="321" d="M-23 625 L159 625 L231 700 L271 625 L451 625 L357 823 L155 823 L-23 625 Z M-18 0 L180 0 L302 573 L104 573 L-18 0 Z " />
<glyph glyph-name="idieresis" unicode="&#xef;" horiz-adv-x="321" d="M28 625 L191 625 L224 780 L61 780 L28 625 Z M238 625 L401 625 L434 780 L271 780 L238 625 Z M-18 0 L180 0 L302 573 L104 573 L-18 0 Z " />
<glyph glyph-name="eth" unicode="&#xf0;" horiz-adv-x="659" d="M301 545 L414 564 C419 539 422 515 424 490 C391 515 356 523 275 523 C115 523 39 453 9 320 C2 290 -2 257 -2 222 C-2 88 74 -11 294 -11 C465 -11 558 47 609 237 C625 295 632 361 632 436 C632 489 627 545 619 598 L705 613 L732 739 L591 715 C580 749 567 780 552 804 L344 745 C356 721 367 699 376 679 L327 671 L301 545 Z M294 158 C222 158 202 189 202 227 C202 241 205 258 209 275 C224 335 244 370 324 370 C395 370 414 339 414 299 C414 285 411 270 407 252 C392 192 372 158 294 158 L294 158 Z " />
<glyph glyph-name="ntilde" unicode="&#xf1;" horiz-adv-x="667" d="M-24 0 L174 0 L242 320 C252 367 266 400 333 400 C421 400 414 359 403 305 L338 0 L536 0 L606 327 C636 471 633 586 422 586 C349 586 296 565 257 531 L252 574 L95 562 L-24 0 Z M496 624 C554 624 617 659 678 732 L582 824 C556 794 529 776 503 776 C453 776 401 832 318 832 C260 832 197 797 136 724 L232 632 C258 662 285 680 311 680 C361 680 413 624 496 624 L496 624 Z " />
<glyph glyph-name="ograve" unicode="&#xf2;" horiz-adv-x="657" d="M282 -11 C461 -11 571 67 611 257 C618 292 623 325 623 356 C623 493 543 586 341 586 C162 586 51 510 10 320 C3 286 -1 254 -1 223 C-1 84 79 -11 282 -11 L282 -11 Z M294 158 C222 158 202 191 202 236 C202 253 205 271 209 290 C224 362 248 406 328 406 C399 406 418 372 418 326 C418 309 415 291 411 272 C396 201 372 158 294 158 L294 158 Z M328 625 L495 625 L401 823 L170 823 L328 625 Z " />
<glyph glyph-name="oacute" unicode="&#xf3;" horiz-adv-x="657" d="M282 -11 C461 -11 571 67 611 257 C618 292 623 325 623 356 C623 493 543 586 341 586 C162 586 51 510 10 320 C3 286 -1 254 -1 223 C-1 84 79 -11 282 -11 L282 -11 Z M294 158 C222 158 202 191 202 236 C202 253 205 271 209 290 C224 362 248 406 328 406 C399 406 418 372 418 326 C418 309 415 291 411 272 C396 201 372 158 294 158 L294 158 Z M263 625 L442 625 L684 823 L441 823 L263 625 Z " />
<glyph glyph-name="ocircumflex" unicode="&#xf4;" horiz-adv-x="657" d="M282 -11 C461 -11 571 67 611 257 C618 292 623 325 623 356 C623 493 543 586 341 586 C162 586 51 510 10 320 C3 286 -1 254 -1 223 C-1 84 79 -11 282 -11 L282 -11 Z M294 158 C222 158 202 191 202 236 C202 253 205 271 209 290 C224 362 248 406 328 406 C399 406 418 372 418 326 C418 309 415 291 411 272 C396 201 372 158 294 158 L294 158 Z M125 625 L307 625 L399 700 L459 625 L639 625 L525 823 L323 823 L125 625 Z " />
<glyph glyph-name="otilde" unicode="&#xf5;" horiz-adv-x="657" d="M282 -11 C461 -11 571 67 611 257 C618 292 623 325 623 356 C623 493 543 586 341 586 C162 586 51 510 10 320 C3 286 -1 254 -1 223 C-1 84 79 -11 282 -11 L282 -11 Z M294 158 C222 158 202 191 202 236 C202 253 205 271 209 290 C224 362 248 406 328 406 C399 406 418 372 418 326 C418 309 415 291 411 272 C396 201 372 158 294 158 L294 158 Z M491 624 C549 624 612 659 673 732 L577 824 C551 794 524 776 498 776 C448 776 396 832 313 832 C255 832 192 797 131 724 L227 632 C253 662 280 680 306 680 C356 680 408 624 491 624 L491 624 Z " />
<glyph glyph-name="odieresis" unicode="&#xf6;" horiz-adv-x="657" d="M282 -11 C461 -11 571 67 611 257 C618 292 623 325 623 356 C623 493 543 586 341 586 C162 586 51 510 10 320 C3 286 -1 254 -1 223 C-1 84 79 -11 282 -11 L282 -11 Z M294 158 C222 158 202 191 202 236 C202 253 205 271 209 290 C224 362 248 406 328 406 C399 406 418 372 418 326 C418 309 415 291 411 272 C396 201 372 158 294 158 L294 158 Z M176 625 L354 625 L387 780 L209 780 L176 625 Z M411 625 L589 625 L622 780 L444 780 L411 625 Z " />
<glyph glyph-name="divide" unicode="&#xf7;" horiz-adv-x="736" d="M206 64 L399 64 L432 221 L239 221 L206 64 Z M63 264 L627 264 L665 441 L101 441 L63 264 Z M295 484 L488 484 L521 641 L328 641 L295 484 Z " />
<glyph glyph-name="oslash" unicode="&#xf8;" horiz-adv-x="657" d="M282 -11 C461 -11 571 67 611 257 C618 292 623 325 623 356 C623 417 607 469 571 508 L668 619 L530 619 L483 565 C445 578 398 586 341 586 C162 586 51 510 10 320 C3 286 -1 254 -1 223 C-1 161 15 107 51 67 L-45 -44 L91 -44 L138 10 C177 -3 224 -11 282 -11 L282 -11 Z M292 146 C275 146 262 147 250 150 L427 354 C428 347 429 338 429 330 C429 312 426 292 421 271 C405 193 378 146 292 146 L292 146 Z M191 231 C191 250 195 270 199 291 C215 370 242 418 330 418 C342 418 352 417 362 415 L191 218 L191 231 Z " />
<glyph glyph-name="ugrave" unicode="&#xf9;" horiz-adv-x="658" d="M275 -11 C476 -11 536 46 583 264 L649 573 L454 573 L390 272 C375 201 363 163 294 163 C209 163 218 218 233 290 L293 573 L95 573 L37 304 C-10 85 42 -11 275 -11 L275 -11 Z M329 625 L496 625 L402 823 L171 823 L329 625 Z " />
<glyph glyph-name="uacute" unicode="&#xfa;" horiz-adv-x="658" d="M275 -11 C476 -11 536 46 583 264 L649 573 L454 573 L390 272 C375 201 363 163 294 163 C209 163 218 218 233 290 L293 573 L95 573 L37 304 C-10 85 42 -11 275 -11 L275 -11 Z M264 625 L443 625 L685 823 L442 823 L264 625 Z " />
<glyph glyph-name="ucircumflex" unicode="&#xfb;" horiz-adv-x="658" d="M275 -11 C476 -11 536 46 583 264 L649 573 L454 573 L390 272 C375 201 363 163 294 163 C209 163 218 218 233 290 L293 573 L95 573 L37 304 C-10 85 42 -11 275 -11 L275 -11 Z M126 625 L308 625 L400 700 L460 625 L640 625 L526 823 L324 823 L126 625 Z " />
<glyph glyph-name="udieresis" unicode="&#xfc;" horiz-adv-x="658" d="M275 -11 C476 -11 536 46 583 264 L649 573 L454 573 L390 272 C375 201 363 163 294 163 C209 163 218 218 233 290 L293 573 L95 573 L37 304 C-10 85 42 -11 275 -11 L275 -11 Z M177 625 L355 625 L388 780 L210 780 L177 625 Z M412 625 L590 625 L623 780 L445 780 L412 625 Z " />
<glyph glyph-name="yacute" unicode="&#xfd;" horiz-adv-x="592" d="M47 -171 C185 -171 226 -140 295 -21 L637 573 L432 573 L283 293 L250 573 L41 573 L127 24 L122 12 C108 -16 105 -21 36 -21 L-6 -21 L-38 -169 C-17 -170 8 -171 47 -171 L47 -171 Z M231 625 L410 625 L652 823 L409 823 L231 625 Z " />
<glyph glyph-name="thorn" unicode="&#xfe;" horiz-adv-x="679" d="M-59 -165 L139 -165 L181 35 C205 14 235 -9 352 -9 C528 -9 600 103 633 261 C641 300 647 340 647 377 C647 491 597 586 434 586 C340 586 303 554 288 545 L338 776 L141 776 L-59 -165 Z M322 158 C250 158 227 189 227 236 C227 254 229 274 234 295 C250 374 282 406 354 406 C421 406 439 375 439 334 C439 316 435 296 431 275 C416 208 397 158 322 158 L322 158 Z " />
<glyph glyph-name="ydieresis" unicode="&#xff;" horiz-adv-x="592" d="M47 -171 C185 -171 226 -140 295 -21 L637 573 L432 573 L283 293 L250 573 L41 573 L127 24 L122 12 C108 -16 105 -21 36 -21 L-6 -21 L-38 -169 C-17 -170 8 -171 47 -171 L47 -171 Z M144 625 L322 625 L355 780 L177 780 L144 625 Z M379 625 L557 625 L590 780 L412 780 L379 625 Z " />
<glyph glyph-name="dotlessi" unicode="&#x131;" horiz-adv-x="321" d="M-18 0 L180 0 L302 573 L104 573 L-18 0 Z " />
<glyph glyph-name="Lslash" unicode="&#x141;" horiz-adv-x="632" d="M-29 234 L47 271 L-11 0 L545 0 L583 179 L234 179 L278 384 L413 451 L448 617 L313 551 L354 741 L147 741 L82 437 L6 400 L-29 234 Z " />
<glyph glyph-name="lslash" unicode="&#x142;" horiz-adv-x="431" d="M7 289 L98 335 L72 213 C39 58 83 -2 203 -2 C240 -2 278 0 293 2 L328 165 L311 165 C269 165 262 175 271 216 L320 449 L411 496 L447 662 L356 615 L390 776 L192 776 L133 501 L43 455 L7 289 Z " />
<glyph glyph-name="OE" unicode="&#x152;" horiz-adv-x="1242" d="M398 -12 C463 -12 517 0 565 29 L559 0 L1113 0 L1151 179 L784 179 L806 283 L1159 283 L1198 464 L845 464 L864 554 L1227 554 L1267 741 L717 741 L705 688 C649 731 567 753 459 753 C284 753 94 698 34 413 C25 370 20 330 21 294 C21 88 163 -12 398 -12 L398 -12 Z M401 170 C273 170 234 232 234 314 C234 337 237 362 242 387 C266 502 321 563 448 563 C577 563 617 503 617 422 C617 399 613 375 608 349 C584 234 529 170 401 170 L401 170 Z " />
<glyph glyph-name="oe" unicode="&#x153;" horiz-adv-x="1019" d="M682 -11 C765 -11 860 -2 942 52 L865 188 C829 164 764 148 707 148 C631 148 602 177 596 219 L963 219 C978 281 987 343 987 398 C987 493 936 586 745 586 C655 586 590 565 543 527 C502 564 438 586 341 586 C162 586 51 510 10 320 C3 286 -1 254 -1 223 C-1 84 79 -11 282 -11 C368 -11 433 7 483 47 C521 11 583 -11 682 -11 L682 -11 Z M294 158 C222 158 202 191 202 236 C202 253 205 271 209 290 C224 362 248 406 328 406 C399 406 418 372 418 326 C418 309 415 291 411 272 C396 201 372 158 294 158 L294 158 Z M722 422 C788 422 804 397 804 362 C804 354 803 345 802 336 L613 336 C631 390 660 422 722 422 L722 422 Z " />
<glyph glyph-name="Scaron" unicode="&#x160;" horiz-adv-x="741" d="M348 -11 C569 -11 686 68 686 254 C686 392 553 429 421 456 C339 473 291 484 291 521 C291 562 311 573 386 573 C487 573 567 535 604 506 L742 660 C694 696 592 753 395 753 C220 753 79 697 79 503 C79 357 183 322 326 286 C439 258 474 254 474 211 C474 170 444 160 359 160 C245 160 146 200 83 251 L-50 105 C22 49 154 -11 348 -11 L348 -11 Z M355 779 L557 779 L755 977 L573 977 L481 902 L421 977 L241 977 L355 779 Z " />
<glyph glyph-name="scaron" unicode="&#x161;" horiz-adv-x="579" d="M243 -9 C415 -9 521 39 521 192 C521 308 426 333 333 354 C272 367 242 373 242 394 C242 414 250 422 295 422 C364 422 422 396 458 376 L574 516 C517 553 425 586 315 586 C150 586 38 532 38 367 C38 252 142 225 224 208 C277 197 321 191 321 169 C321 147 308 143 264 143 C201 143 109 178 61 214 L-53 88 C11 33 119 -9 243 -9 L243 -9 Z M242 625 L444 625 L642 823 L460 823 L368 748 L308 823 L128 823 L242 625 Z " />
<glyph glyph-name="Ydieresis" unicode="&#x178;" horiz-adv-x="771" d="M202 0 L409 0 L462 254 L846 741 L618 741 L397 447 L298 741 L82 741 L256 257 L202 0 Z M265 779 L443 779 L476 934 L298 934 L265 779 Z M500 779 L678 779 L711 934 L533 934 L500 779 Z " />
<glyph glyph-name="Zcaron" unicode="&#x17d;" horiz-adv-x="686" d="M-54 0 L579 0 L617 179 L265 179 L690 572 L726 741 L121 741 L81 554 L412 554 L-21 153 L-54 0 Z M328 779 L530 779 L728 977 L546 977 L454 902 L394 977 L214 977 L328 779 Z " />
<glyph glyph-name="zcaron" unicode="&#x17e;" horiz-adv-x="540" d="M-66 0 L450 0 L484 158 L235 158 L533 441 L561 573 L72 573 L36 405 L257 405 L-38 131 L-66 0 Z M223 625 L425 625 L623 823 L441 823 L349 748 L289 823 L109 823 L223 625 Z " />
<glyph glyph-name="florin" unicode="&#x192;" horiz-adv-x="658" d="M84 297 L210 297 L111 -166 L309 -166 L409 297 L545 297 L582 468 L446 468 L454 506 C462 547 476 565 536 565 L602 565 L640 741 L524 741 C330 741 290 673 268 566 L247 468 L121 468 L84 297 Z " />
<glyph glyph-name="circumflex" unicode="&#x2c6;" horiz-adv-x="590" d="M92 625 L274 625 L366 700 L426 625 L606 625 L492 823 L290 823 L92 625 Z " />
<glyph glyph-name="caron" unicode="&#x2c7;" horiz-adv-x="590" d="M248 625 L450 625 L648 823 L466 823 L374 748 L314 823 L134 823 L248 625 Z " />
<glyph glyph-name="breve" unicode="&#x2d8;" horiz-adv-x="590" d="M373 615 C502 615 587 702 625 838 L487 863 C462 786 435 766 384 766 C323 766 311 787 311 863 L165 847 C162 709 191 615 373 615 L373 615 Z " />
<glyph glyph-name="dotaccent" unicode="&#x2d9;" horiz-adv-x="590" d="M248 625 L449 625 L482 782 L281 782 L248 625 Z " />
<glyph glyph-name="ring" unicode="&#x2da;" horiz-adv-x="590" d="M365 614 C468 614 539 683 539 798 C539 869 494 930 393 930 C287 930 220 855 220 740 C220 671 263 614 365 614 L365 614 Z M371 708 C332 708 318 729 318 754 C318 802 344 835 386 835 C428 835 442 813 442 786 C442 738 416 708 371 708 L371 708 Z " />
<glyph glyph-name="ogonek" unicode="&#x2db;" horiz-adv-x="590" d="M212 -250 C275 -250 334 -237 369 -219 L331 -127 C301 -138 276 -144 248 -144 C201 -144 186 -134 186 -116 C186 -77 232 -42 310 7 L203 7 C149 -14 45 -65 45 -161 C45 -215 82 -250 212 -250 L212 -250 Z " />
<glyph glyph-name="tilde" unicode="&#x2dc;" horiz-adv-x="590" d="M458 624 C516 624 579 659 640 732 L544 824 C518 794 491 776 465 776 C415 776 363 832 280 832 C222 832 159 797 98 724 L194 632 C220 662 247 680 273 680 C323 680 375 624 458 624 L458 624 Z " />
<glyph glyph-name="hungarumlaut" unicode="&#x2dd;" horiz-adv-x="590" d="M91 625 L254 625 L486 823 L259 823 L91 625 Z M383 625 L546 625 L778 823 L551 823 L383 625 Z " />
<glyph glyph-name="&amp;#x394;" unicode="&#x394;" horiz-adv-x="753" d="M29 405 L137 405 L16 -165 L214 -165 L335 405 L439 405 L475 573 L370 573 L373 585 C381 622 396 636 453 636 L488 636 L522 797 C499 799 484 800 449 800 C275 800 210 748 179 604 L172 573 L65 573 L29 405 Z M321 -170 L398 -170 C529 -170 581 -149 618 25 L734 573 L536 573 L424 45 C412 -10 408 -21 368 -21 L353 -21 L321 -170 Z M544 615 L744 615 L778 776 L578 776 L544 615 Z " />
<glyph glyph-name="&amp;#x2206;" unicode="&#x2206;" horiz-adv-x="753" d="M29 405 L137 405 L16 -165 L214 -165 L335 405 L439 405 L475 573 L370 573 L373 585 C381 622 396 636 453 636 L488 636 L522 797 C499 799 484 800 449 800 C275 800 210 748 179 604 L172 573 L65 573 L29 405 Z M321 -170 L398 -170 C529 -170 581 -149 618 25 L734 573 L536 573 L424 45 C412 -10 408 -21 368 -21 L353 -21 L321 -170 Z M544 615 L744 615 L778 776 L578 776 L544 615 Z " />
<glyph glyph-name="&amp;#x3a9;" unicode="&#x3a9;" horiz-adv-x="832" d="M126 120 C126 120 129 123 134 127 C79 193 46 278 46 371 C46 464 79 549 133 615 C129 619 126 621 126 621 C70 554 36 466 36 371 C36 275 70 187 126 120 L126 120 Z M228 211 C230 213 233 215 235 218 C201 259 181 313 181 371 C181 429 202 483 235 524 C232 526 230 529 227 531 C192 487 171 432 171 371 C171 310 193 254 228 211 L228 211 Z M264 243 C267 245 269 248 272 250 C245 283 229 325 229 371 C229 417 245 459 272 492 C269 494 267 497 264 499 C236 464 219 419 219 371 C219 322 236 278 264 243 L264 243 Z M316 289 C319 291 321 294 324 296 C308 317 298 343 298 371 C298 399 308 425 323 445 C321 448 318 450 316 452 C298 430 288 402 288 371 C288 340 298 312 316 289 L316 289 Z M349 320 C352 323 354 325 357 327 C348 340 343 355 343 371 C343 387 348 402 357 415 C354 417 352 420 349 422 C339 408 333 390 333 371 C333 352 339 334 349 320 L349 320 Z M378 346 C382 349 384 351 384 351 C381 357 379 364 379 371 C379 378 381 385 384 391 C384 391 382 393 378 396 C374 389 371 380 371 371 C371 362 374 353 378 346 L378 346 Z M416 60 C493 60 563 89 616 136 C614 139 611 141 609 144 C558 98 490 70 416 70 C342 70 274 98 222 144 C222 145 215 137 215 137 C268 89 338 60 416 60 L416 60 Z M416 324 C426 324 435 327 442 333 C439 337 437 339 437 339 C431 334 424 332 416 332 C408 332 401 335 395 339 C395 339 391 334 389 333 C397 327 406 324 416 324 L416 324 Z M482 319 C493 334 499 352 499 371 C499 390 493 408 482 422 C483 422 475 415 475 415 C484 403 489 388 489 371 C489 355 484 339 475 326 C478 324 480 322 482 319 L482 319 Z M292 269 C295 271 298 274 300 276 C280 302 267 335 267 371 C267 407 280 440 300 466 L293 473 C270 445 257 410 257 371 C257 333 270 297 292 269 L292 269 Z M416 -17 C512 -17 600 19 667 80 C667 80 660 88 660 87 C595 29 510 -7 416 -7 C322 -7 236 29 171 88 L164 80 C231 20 320 -17 416 -17 L416 -17 Z M416 121 C478 121 534 144 576 182 C574 185 571 187 569 190 C529 153 475 131 416 131 C357 131 303 153 262 190 L255 182 C298 144 354 121 416 121 L416 121 Z M416 170 C465 170 510 188 544 218 C542 221 539 223 537 226 C505 197 462 180 416 180 C369 180 327 197 294 226 L287 219 C322 189 367 170 416 170 L416 170 Z M416 209 C455 209 491 224 518 247 C516 250 514 253 512 255 C486 233 452 219 416 219 C380 219 346 233 320 255 L313 247 C341 224 377 209 416 209 L416 209 Z M416 265 C441 265 463 274 481 289 C479 292 476 294 474 297 C458 283 438 275 416 275 C394 275 373 283 357 297 L350 289 C368 274 391 265 416 265 L416 265 Z M358 445 C374 459 394 467 416 467 C438 467 458 459 474 445 L482 453 C464 468 441 477 416 477 C391 477 368 468 350 453 C351 452 354 448 358 445 L358 445 Z M570 552 C572 554 575 557 577 560 C534 598 478 621 416 621 C355 621 299 598 256 560 L263 553 C304 589 357 611 416 611 C475 611 529 589 570 552 L570 552 Z M454 346 C458 353 461 362 461 371 C461 380 458 389 454 396 L448 391 C451 385 453 378 453 371 C453 364 451 357 448 351 C448 351 450 349 454 346 L454 346 Z M468 333 C476 344 480 357 480 371 C480 385 476 398 468 409 L460 402 C466 393 470 382 470 371 C470 360 466 349 460 340 C463 338 465 336 468 333 L468 333 Z M498 306 C511 325 519 347 519 371 C519 395 511 418 497 436 L490 429 C502 413 509 393 509 371 C509 349 502 329 490 313 C492 311 495 308 498 306 L498 306 Z M540 269 C562 297 575 332 575 371 C575 410 562 445 539 473 L531 466 C552 440 565 407 565 371 C565 335 552 302 532 276 C535 274 537 271 540 269 L540 269 Z M568 243 C596 278 613 322 613 371 C613 420 596 464 568 499 L560 492 C587 459 603 417 603 371 C603 325 587 283 560 250 C563 248 566 245 568 243 L568 243 Z M604 211 C640 254 661 310 661 371 C661 432 640 488 604 531 L596 524 C631 483 651 429 651 371 C651 313 631 260 596 218 C601 213 604 211 604 211 L604 211 Z M649 171 C694 225 721 295 721 371 C721 447 694 517 649 571 L641 564 C685 512 711 445 711 371 C711 297 685 230 642 177 C644 175 647 173 649 171 L649 171 Z M706 120 C762 188 796 276 796 371 C796 467 762 555 706 622 L698 615 C753 549 786 464 786 371 C786 278 753 193 698 127 C703 123 706 120 706 120 L706 120 Z M183 170 L190 177 C147 229 121 297 121 371 C121 444 147 512 190 564 C187 567 184 569 182 571 C138 517 111 447 111 371 C111 294 138 225 183 170 L183 170 Z M334 306 L342 314 C330 330 323 350 323 371 C323 393 330 413 342 429 C340 431 337 434 334 436 C321 418 313 395 313 371 C313 346 321 324 334 306 L334 306 Z M364 333 L371 340 C366 349 362 360 362 371 C362 382 366 393 371 402 C369 404 366 406 364 409 C356 398 352 385 352 371 C352 357 356 344 364 333 L364 333 Z M395 403 C401 408 408 410 416 410 C424 410 431 407 437 403 C437 403 439 406 442 409 C435 415 426 418 416 418 C406 418 397 415 390 409 L395 403 Z M384 416 C393 423 404 428 416 428 C428 428 439 424 448 416 C450 419 452 421 454 423 C443 432 430 437 416 437 C401 437 388 432 377 423 L384 416 Z M371 430 C383 441 399 447 416 447 C433 447 449 441 461 430 C461 430 464 434 468 438 C454 450 436 457 416 457 C397 457 378 450 364 438 L371 430 Z M295 516 C327 545 370 562 416 562 C462 562 505 545 538 516 C538 516 545 523 544 523 C510 554 465 572 416 572 C367 572 322 554 288 524 L295 516 Z M416 240 C448 240 476 252 498 271 L491 278 C471 261 445 250 416 250 C388 250 361 261 340 278 L333 270 C355 251 384 240 416 240 L416 240 Z M416 285 C436 285 454 292 468 304 L461 312 C448 301 433 295 416 295 C399 295 383 302 370 312 L363 304 C378 292 396 285 416 285 L416 285 Z M416 305 C430 305 444 310 455 319 L448 326 C439 319 428 314 416 314 C404 314 393 319 383 326 L376 319 C388 310 401 305 416 305 L416 305 Z M341 464 C362 482 388 492 416 492 C445 492 471 481 491 464 L498 472 C476 491 447 502 416 502 C385 502 356 490 334 471 L341 464 Z M320 487 C346 509 380 523 416 523 C453 523 486 510 512 487 L518 494 C491 518 455 533 416 533 C377 533 341 519 313 495 L320 487 Z M610 597 L617 605 C563 653 493 682 416 682 C339 682 269 653 215 605 L222 598 C274 644 342 672 416 672 C491 672 559 644 610 597 L610 597 Z M172 654 C237 713 322 749 416 749 C510 749 596 713 661 654 L668 662 C601 722 512 759 416 759 C320 759 232 723 165 662 L172 654 Z M516 290 C534 312 544 340 544 371 C544 402 534 430 516 453 L508 446 C524 425 534 399 534 371 C534 343 524 317 509 297 L516 290 Z " />
<glyph glyph-name="&amp;#x2126;" unicode="&#x2126;" horiz-adv-x="832" d="M126 120 C126 120 129 123 134 127 C79 193 46 278 46 371 C46 464 79 549 133 615 C129 619 126 621 126 621 C70 554 36 466 36 371 C36 275 70 187 126 120 L126 120 Z M228 211 C230 213 233 215 235 218 C201 259 181 313 181 371 C181 429 202 483 235 524 C232 526 230 529 227 531 C192 487 171 432 171 371 C171 310 193 254 228 211 L228 211 Z M264 243 C267 245 269 248 272 250 C245 283 229 325 229 371 C229 417 245 459 272 492 C269 494 267 497 264 499 C236 464 219 419 219 371 C219 322 236 278 264 243 L264 243 Z M316 289 C319 291 321 294 324 296 C308 317 298 343 298 371 C298 399 308 425 323 445 C321 448 318 450 316 452 C298 430 288 402 288 371 C288 340 298 312 316 289 L316 289 Z M349 320 C352 323 354 325 357 327 C348 340 343 355 343 371 C343 387 348 402 357 415 C354 417 352 420 349 422 C339 408 333 390 333 371 C333 352 339 334 349 320 L349 320 Z M378 346 C382 349 384 351 384 351 C381 357 379 364 379 371 C379 378 381 385 384 391 C384 391 382 393 378 396 C374 389 371 380 371 371 C371 362 374 353 378 346 L378 346 Z M416 60 C493 60 563 89 616 136 C614 139 611 141 609 144 C558 98 490 70 416 70 C342 70 274 98 222 144 C222 145 215 137 215 137 C268 89 338 60 416 60 L416 60 Z M416 324 C426 324 435 327 442 333 C439 337 437 339 437 339 C431 334 424 332 416 332 C408 332 401 335 395 339 C395 339 391 334 389 333 C397 327 406 324 416 324 L416 324 Z M482 319 C493 334 499 352 499 371 C499 390 493 408 482 422 C483 422 475 415 475 415 C484 403 489 388 489 371 C489 355 484 339 475 326 C478 324 480 322 482 319 L482 319 Z M292 269 C295 271 298 274 300 276 C280 302 267 335 267 371 C267 407 280 440 300 466 L293 473 C270 445 257 410 257 371 C257 333 270 297 292 269 L292 269 Z M416 -17 C512 -17 600 19 667 80 C667 80 660 88 660 87 C595 29 510 -7 416 -7 C322 -7 236 29 171 88 L164 80 C231 20 320 -17 416 -17 L416 -17 Z M416 121 C478 121 534 144 576 182 C574 185 571 187 569 190 C529 153 475 131 416 131 C357 131 303 153 262 190 L255 182 C298 144 354 121 416 121 L416 121 Z M416 170 C465 170 510 188 544 218 C542 221 539 223 537 226 C505 197 462 180 416 180 C369 180 327 197 294 226 L287 219 C322 189 367 170 416 170 L416 170 Z M416 209 C455 209 491 224 518 247 C516 250 514 253 512 255 C486 233 452 219 416 219 C380 219 346 233 320 255 L313 247 C341 224 377 209 416 209 L416 209 Z M416 265 C441 265 463 274 481 289 C479 292 476 294 474 297 C458 283 438 275 416 275 C394 275 373 283 357 297 L350 289 C368 274 391 265 416 265 L416 265 Z M358 445 C374 459 394 467 416 467 C438 467 458 459 474 445 L482 453 C464 468 441 477 416 477 C391 477 368 468 350 453 C351 452 354 448 358 445 L358 445 Z M570 552 C572 554 575 557 577 560 C534 598 478 621 416 621 C355 621 299 598 256 560 L263 553 C304 589 357 611 416 611 C475 611 529 589 570 552 L570 552 Z M454 346 C458 353 461 362 461 371 C461 380 458 389 454 396 L448 391 C451 385 453 378 453 371 C453 364 451 357 448 351 C448 351 450 349 454 346 L454 346 Z M468 333 C476 344 480 357 480 371 C480 385 476 398 468 409 L460 402 C466 393 470 382 470 371 C470 360 466 349 460 340 C463 338 465 336 468 333 L468 333 Z M498 306 C511 325 519 347 519 371 C519 395 511 418 497 436 L490 429 C502 413 509 393 509 371 C509 349 502 329 490 313 C492 311 495 308 498 306 L498 306 Z M540 269 C562 297 575 332 575 371 C575 410 562 445 539 473 L531 466 C552 440 565 407 565 371 C565 335 552 302 532 276 C535 274 537 271 540 269 L540 269 Z M568 243 C596 278 613 322 613 371 C613 420 596 464 568 499 L560 492 C587 459 603 417 603 371 C603 325 587 283 560 250 C563 248 566 245 568 243 L568 243 Z M604 211 C640 254 661 310 661 371 C661 432 640 488 604 531 L596 524 C631 483 651 429 651 371 C651 313 631 260 596 218 C601 213 604 211 604 211 L604 211 Z M649 171 C694 225 721 295 721 371 C721 447 694 517 649 571 L641 564 C685 512 711 445 711 371 C711 297 685 230 642 177 C644 175 647 173 649 171 L649 171 Z M706 120 C762 188 796 276 796 371 C796 467 762 555 706 622 L698 615 C753 549 786 464 786 371 C786 278 753 193 698 127 C703 123 706 120 706 120 L706 120 Z M183 170 L190 177 C147 229 121 297 121 371 C121 444 147 512 190 564 C187 567 184 569 182 571 C138 517 111 447 111 371 C111 294 138 225 183 170 L183 170 Z M334 306 L342 314 C330 330 323 350 323 371 C323 393 330 413 342 429 C340 431 337 434 334 436 C321 418 313 395 313 371 C313 346 321 324 334 306 L334 306 Z M364 333 L371 340 C366 349 362 360 362 371 C362 382 366 393 371 402 C369 404 366 406 364 409 C356 398 352 385 352 371 C352 357 356 344 364 333 L364 333 Z M395 403 C401 408 408 410 416 410 C424 410 431 407 437 403 C437 403 439 406 442 409 C435 415 426 418 416 418 C406 418 397 415 390 409 L395 403 Z M384 416 C393 423 404 428 416 428 C428 428 439 424 448 416 C450 419 452 421 454 423 C443 432 430 437 416 437 C401 437 388 432 377 423 L384 416 Z M371 430 C383 441 399 447 416 447 C433 447 449 441 461 430 C461 430 464 434 468 438 C454 450 436 457 416 457 C397 457 378 450 364 438 L371 430 Z M295 516 C327 545 370 562 416 562 C462 562 505 545 538 516 C538 516 545 523 544 523 C510 554 465 572 416 572 C367 572 322 554 288 524 L295 516 Z M416 240 C448 240 476 252 498 271 L491 278 C471 261 445 250 416 250 C388 250 361 261 340 278 L333 270 C355 251 384 240 416 240 L416 240 Z M416 285 C436 285 454 292 468 304 L461 312 C448 301 433 295 416 295 C399 295 383 302 370 312 L363 304 C378 292 396 285 416 285 L416 285 Z M416 305 C430 305 444 310 455 319 L448 326 C439 319 428 314 416 314 C404 314 393 319 383 326 L376 319 C388 310 401 305 416 305 L416 305 Z M341 464 C362 482 388 492 416 492 C445 492 471 481 491 464 L498 472 C476 491 447 502 416 502 C385 502 356 490 334 471 L341 464 Z M320 487 C346 509 380 523 416 523 C453 523 486 510 512 487 L518 494 C491 518 455 533 416 533 C377 533 341 519 313 495 L320 487 Z M610 597 L617 605 C563 653 493 682 416 682 C339 682 269 653 215 605 L222 598 C274 644 342 672 416 672 C491 672 559 644 610 597 L610 597 Z M172 654 C237 713 322 749 416 749 C510 749 596 713 661 654 L668 662 C601 722 512 759 416 759 C320 759 232 723 165 662 L172 654 Z M516 290 C534 312 544 340 544 371 C544 402 534 430 516 453 L508 446 C524 425 534 399 534 371 C534 343 524 317 509 297 L516 290 Z " />
<glyph glyph-name="pi" unicode="&#x3c0;" horiz-adv-x="797" d="M398 -12 C645 -12 769 160 769 371 C769 582 645 754 398 754 C150 754 26 582 26 371 C26 160 150 -12 398 -12 L398 -12 Z M398 56 C177 56 98 201 98 371 C98 541 177 686 398 686 C618 686 697 541 697 371 C697 201 618 56 398 56 L398 56 Z M210 142 L334 142 L334 267 L431 267 C608 267 635 344 635 437 C635 531 605 599 439 599 L210 599 L210 142 Z M334 372 L334 490 L436 490 C493 490 507 476 507 431 C507 387 492 372 437 372 L334 372 Z " />
<glyph glyph-name="endash" unicode="&#x2013;" horiz-adv-x="751" d="M5 251 L693 251 L731 427 L43 427 L5 251 Z " />
<glyph glyph-name="emdash" unicode="&#x2014;" horiz-adv-x="963" d="M5 251 L906 251 L944 427 L43 427 L5 251 Z " />
<glyph glyph-name="quoteleft" unicode="&#x2018;" horiz-adv-x="321" d="M40 336 L264 336 L310 551 L206 551 C216 596 231 609 321 646 L285 742 C123 678 103 632 72 485 L40 336 Z " />
<glyph glyph-name="quoteright" unicode="&#x2019;" horiz-adv-x="321" d="M106 335 C268 397 287 444 319 591 L351 741 L127 741 L81 525 L185 525 C175 480 160 467 70 430 L106 335 Z " />
<glyph glyph-name="quotesinglbase" unicode="&#x201a;" horiz-adv-x="321" d="M-6 -191 C157 -128 179 -67 207 65 L239 216 L15 216 L-31 0 L73 0 C63 -45 48 -59 -41 -95 L-6 -191 Z " />
<glyph glyph-name="quotedblleft" unicode="&#x201c;" horiz-adv-x="589" d="M43 346 L261 346 L305 556 L204 556 C214 600 228 612 315 648 L281 741 C123 680 104 633 74 492 L43 346 Z M318 346 L535 346 L579 556 L478 556 C488 600 503 612 590 648 L555 741 C397 680 379 633 349 492 L318 346 Z " />
<glyph glyph-name="quotedblright" unicode="&#x201d;" horiz-adv-x="589" d="M107 346 C266 408 284 454 314 596 L345 741 L127 741 L82 532 L184 532 C175 488 159 476 72 439 L107 346 Z M382 346 C540 408 558 454 588 596 L619 741 L402 741 L357 532 L458 532 C449 488 433 476 346 439 L382 346 Z " />
<glyph glyph-name="quotedblbase" unicode="&#x201e;" horiz-adv-x="589" d="M-6 -185 C153 -124 173 -64 201 64 L231 209 L13 209 L-31 0 L71 0 C61 -45 46 -57 -41 -93 L-6 -185 Z M270 -185 C427 -124 447 -64 475 64 L505 209 L288 209 L244 0 L345 0 C335 -45 320 -57 233 -93 L270 -185 Z " />
<glyph glyph-name="dagger" unicode="&#x2020;" horiz-adv-x="627" d="M101 -166 L297 -166 L411 372 L586 372 L624 550 L449 550 L497 776 L301 776 L253 550 L79 550 L41 372 L215 372 L101 -166 Z " />
<glyph glyph-name="daggerdbl" unicode="&#x2021;" horiz-adv-x="627" d="M101 -166 L297 -166 L345 60 L520 60 L558 238 L383 238 L411 372 L586 372 L624 550 L449 550 L497 776 L301 776 L253 550 L79 550 L41 372 L215 372 L187 238 L13 238 L-25 60 L149 60 L101 -166 Z " />
<glyph glyph-name="bullet" unicode="&#x2022;" horiz-adv-x="412" d="M41 172 L287 172 L343 436 L97 436 L41 172 Z " />
<glyph glyph-name="ellipsis" unicode="&#x2026;" horiz-adv-x="924" d="M-31 0 L193 0 L239 216 L15 216 L-31 0 Z M271 0 L495 0 L541 216 L317 216 L271 0 Z M573 0 L796 0 L842 216 L619 216 L573 0 Z " />
<glyph glyph-name="perthousand" unicode="&#x2030;" horiz-adv-x="1817" d="M274 251 C420 251 553 355 553 548 C553 671 474 753 325 753 C191 753 46 666 46 451 C46 328 123 251 274 251 L274 251 Z M289 398 C241 398 224 421 224 460 C224 557 266 602 313 602 C359 602 375 578 375 540 C375 469 347 398 289 398 L289 398 Z M954 -11 C1100 -11 1233 93 1233 286 C1233 409 1154 491 1005 491 C871 491 726 404 726 189 C726 66 803 -11 954 -11 L954 -11 Z M969 136 C921 136 904 159 904 198 C904 295 946 340 993 340 C1039 340 1055 316 1055 278 C1055 207 1027 136 969 136 L969 136 Z M1494 -11 C1640 -11 1773 93 1773 286 C1773 409 1694 491 1545 491 C1411 491 1266 404 1266 189 C1266 66 1343 -11 1494 -11 L1494 -11 Z M1509 136 C1461 136 1444 159 1444 198 C1444 295 1486 340 1533 340 C1579 340 1595 316 1595 278 C1595 207 1567 136 1509 136 L1509 136 Z M260 0 L443 0 L1016 741 L833 741 L260 0 Z " />
<glyph glyph-name="guilsinglleft" unicode="&#x2039;" horiz-adv-x="518" d="M152 0 L329 0 L255 286 L451 573 L274 573 L62 286 L152 0 Z " />
<glyph glyph-name="guilsinglright" unicode="&#x203a;" horiz-adv-x="518" d="M31 0 L208 0 L420 287 L330 573 L153 573 L227 287 L31 0 Z " />
<glyph glyph-name="&amp;#x2044;" unicode="&#x2044;" horiz-adv-x="587" d="M-79 0 L94 0 L667 741 L494 741 L-79 0 Z " />
<glyph glyph-name="&amp;#x2215;" unicode="&#x2215;" horiz-adv-x="587" d="M-79 0 L94 0 L667 741 L494 741 L-79 0 Z " />
<glyph glyph-name="Euro" unicode="&#x20ac;" horiz-adv-x="726" d="M26 380 L131 380 C129 367 128 353 127 340 L17 340 L-6 230 L125 230 C137 86 219 -12 403 -12 C480 -12 572 3 631 41 L550 185 C509 162 457 157 428 157 C364 157 332 185 321 230 L491 230 L514 340 L320 340 C321 353 322 367 324 380 L523 380 L546 490 L358 490 C384 541 426 577 490 577 C561 577 602 553 632 534 L747 689 C695 725 609 753 495 753 C329 753 211 653 157 490 L49 490 L26 380 Z " />
<glyph glyph-name="trademark" unicode="&#x2122;" horiz-adv-x="1128" d="M488 277 L627 277 L675 502 L707 277 L801 277 L928 501 L881 277 L1024 277 L1123 741 L957 741 L796 465 L753 741 L587 741 L488 277 Z M164 277 L311 277 L382 612 L526 612 L554 741 L119 741 L91 612 L235 612 L164 277 Z " />
<glyph glyph-name="partialdiff" unicode="&#x2202;" horiz-adv-x="832" d="M126 120 C126 120 129 123 134 127 C79 193 46 278 46 371 C46 464 79 549 133 615 C129 619 126 621 126 621 C70 554 36 466 36 371 C36 275 70 187 126 120 L126 120 Z M228 211 C230 213 233 215 235 218 C201 259 181 313 181 371 C181 429 202 483 235 524 C232 526 230 529 227 531 C192 487 171 432 171 371 C171 310 193 254 228 211 L228 211 Z M264 243 C267 245 269 248 272 250 C245 283 229 325 229 371 C229 417 245 459 272 492 C269 494 267 497 264 499 C236 464 219 419 219 371 C219 322 236 278 264 243 L264 243 Z M316 289 C319 291 321 294 324 296 C308 317 298 343 298 371 C298 399 308 425 323 445 C321 448 318 450 316 452 C298 430 288 402 288 371 C288 340 298 312 316 289 L316 289 Z M349 320 C352 323 354 325 357 327 C348 340 343 355 343 371 C343 387 348 402 357 415 C354 417 352 420 349 422 C339 408 333 390 333 371 C333 352 339 334 349 320 L349 320 Z M378 346 C382 349 384 351 384 351 C381 357 379 364 379 371 C379 378 381 385 384 391 C384 391 382 393 378 396 C374 389 371 380 371 371 C371 362 374 353 378 346 L378 346 Z M416 60 C493 60 563 89 616 136 C614 139 611 141 609 144 C558 98 490 70 416 70 C342 70 274 98 222 144 C222 145 215 137 215 137 C268 89 338 60 416 60 L416 60 Z M416 324 C426 324 435 327 442 333 C439 337 437 339 437 339 C431 334 424 332 416 332 C408 332 401 335 395 339 C395 339 391 334 389 333 C397 327 406 324 416 324 L416 324 Z M482 319 C493 334 499 352 499 371 C499 390 493 408 482 422 C483 422 475 415 475 415 C484 403 489 388 489 371 C489 355 484 339 475 326 C478 324 480 322 482 319 L482 319 Z M292 269 C295 271 298 274 300 276 C280 302 267 335 267 371 C267 407 280 440 300 466 L293 473 C270 445 257 410 257 371 C257 333 270 297 292 269 L292 269 Z M416 -17 C512 -17 600 19 667 80 C667 80 660 88 660 87 C595 29 510 -7 416 -7 C322 -7 236 29 171 88 L164 80 C231 20 320 -17 416 -17 L416 -17 Z M416 121 C478 121 534 144 576 182 C574 185 571 187 569 190 C529 153 475 131 416 131 C357 131 303 153 262 190 L255 182 C298 144 354 121 416 121 L416 121 Z M416 170 C465 170 510 188 544 218 C542 221 539 223 537 226 C505 197 462 180 416 180 C369 180 327 197 294 226 L287 219 C322 189 367 170 416 170 L416 170 Z M416 209 C455 209 491 224 518 247 C516 250 514 253 512 255 C486 233 452 219 416 219 C380 219 346 233 320 255 L313 247 C341 224 377 209 416 209 L416 209 Z M416 265 C441 265 463 274 481 289 C479 292 476 294 474 297 C458 283 438 275 416 275 C394 275 373 283 357 297 L350 289 C368 274 391 265 416 265 L416 265 Z M358 445 C374 459 394 467 416 467 C438 467 458 459 474 445 L482 453 C464 468 441 477 416 477 C391 477 368 468 350 453 C351 452 354 448 358 445 L358 445 Z M570 552 C572 554 575 557 577 560 C534 598 478 621 416 621 C355 621 299 598 256 560 L263 553 C304 589 357 611 416 611 C475 611 529 589 570 552 L570 552 Z M454 346 C458 353 461 362 461 371 C461 380 458 389 454 396 L448 391 C451 385 453 378 453 371 C453 364 451 357 448 351 C448 351 450 349 454 346 L454 346 Z M468 333 C476 344 480 357 480 371 C480 385 476 398 468 409 L460 402 C466 393 470 382 470 371 C470 360 466 349 460 340 C463 338 465 336 468 333 L468 333 Z M498 306 C511 325 519 347 519 371 C519 395 511 418 497 436 L490 429 C502 413 509 393 509 371 C509 349 502 329 490 313 C492 311 495 308 498 306 L498 306 Z M540 269 C562 297 575 332 575 371 C575 410 562 445 539 473 L531 466 C552 440 565 407 565 371 C565 335 552 302 532 276 C535 274 537 271 540 269 L540 269 Z M568 243 C596 278 613 322 613 371 C613 420 596 464 568 499 L560 492 C587 459 603 417 603 371 C603 325 587 283 560 250 C563 248 566 245 568 243 L568 243 Z M604 211 C640 254 661 310 661 371 C661 432 640 488 604 531 L596 524 C631 483 651 429 651 371 C651 313 631 260 596 218 C601 213 604 211 604 211 L604 211 Z M649 171 C694 225 721 295 721 371 C721 447 694 517 649 571 L641 564 C685 512 711 445 711 371 C711 297 685 230 642 177 C644 175 647 173 649 171 L649 171 Z M706 120 C762 188 796 276 796 371 C796 467 762 555 706 622 L698 615 C753 549 786 464 786 371 C786 278 753 193 698 127 C703 123 706 120 706 120 L706 120 Z M183 170 L190 177 C147 229 121 297 121 371 C121 444 147 512 190 564 C187 567 184 569 182 571 C138 517 111 447 111 371 C111 294 138 225 183 170 L183 170 Z M334 306 L342 314 C330 330 323 350 323 371 C323 393 330 413 342 429 C340 431 337 434 334 436 C321 418 313 395 313 371 C313 346 321 324 334 306 L334 306 Z M364 333 L371 340 C366 349 362 360 362 371 C362 382 366 393 371 402 C369 404 366 406 364 409 C356 398 352 385 352 371 C352 357 356 344 364 333 L364 333 Z M395 403 C401 408 408 410 416 410 C424 410 431 407 437 403 C437 403 439 406 442 409 C435 415 426 418 416 418 C406 418 397 415 390 409 L395 403 Z M384 416 C393 423 404 428 416 428 C428 428 439 424 448 416 C450 419 452 421 454 423 C443 432 430 437 416 437 C401 437 388 432 377 423 L384 416 Z M371 430 C383 441 399 447 416 447 C433 447 449 441 461 430 C461 430 464 434 468 438 C454 450 436 457 416 457 C397 457 378 450 364 438 L371 430 Z M295 516 C327 545 370 562 416 562 C462 562 505 545 538 516 C538 516 545 523 544 523 C510 554 465 572 416 572 C367 572 322 554 288 524 L295 516 Z M416 240 C448 240 476 252 498 271 L491 278 C471 261 445 250 416 250 C388 250 361 261 340 278 L333 270 C355 251 384 240 416 240 L416 240 Z M416 285 C436 285 454 292 468 304 L461 312 C448 301 433 295 416 295 C399 295 383 302 370 312 L363 304 C378 292 396 285 416 285 L416 285 Z M416 305 C430 305 444 310 455 319 L448 326 C439 319 428 314 416 314 C404 314 393 319 383 326 L376 319 C388 310 401 305 416 305 L416 305 Z M341 464 C362 482 388 492 416 492 C445 492 471 481 491 464 L498 472 C476 491 447 502 416 502 C385 502 356 490 334 471 L341 464 Z M320 487 C346 509 380 523 416 523 C453 523 486 510 512 487 L518 494 C491 518 455 533 416 533 C377 533 341 519 313 495 L320 487 Z M610 597 L617 605 C563 653 493 682 416 682 C339 682 269 653 215 605 L222 598 C274 644 342 672 416 672 C491 672 559 644 610 597 L610 597 Z M172 654 C237 713 322 749 416 749 C510 749 596 713 661 654 L668 662 C601 722 512 759 416 759 C320 759 232 723 165 662 L172 654 Z M516 290 C534 312 544 340 544 371 C544 402 534 430 516 453 L508 446 C524 425 534 399 534 371 C534 343 524 317 509 297 L516 290 Z " />
<glyph glyph-name="product" unicode="&#x220f;" horiz-adv-x="832" d="M126 120 C126 120 129 123 134 127 C79 193 46 278 46 371 C46 464 79 549 133 615 C129 619 126 621 126 621 C70 554 36 466 36 371 C36 275 70 187 126 120 L126 120 Z M228 211 C230 213 233 215 235 218 C201 259 181 313 181 371 C181 429 202 483 235 524 C232 526 230 529 227 531 C192 487 171 432 171 371 C171 310 193 254 228 211 L228 211 Z M264 243 C267 245 269 248 272 250 C245 283 229 325 229 371 C229 417 245 459 272 492 C269 494 267 497 264 499 C236 464 219 419 219 371 C219 322 236 278 264 243 L264 243 Z M316 289 C319 291 321 294 324 296 C308 317 298 343 298 371 C298 399 308 425 323 445 C321 448 318 450 316 452 C298 430 288 402 288 371 C288 340 298 312 316 289 L316 289 Z M349 320 C352 323 354 325 357 327 C348 340 343 355 343 371 C343 387 348 402 357 415 C354 417 352 420 349 422 C339 408 333 390 333 371 C333 352 339 334 349 320 L349 320 Z M378 346 C382 349 384 351 384 351 C381 357 379 364 379 371 C379 378 381 385 384 391 C384 391 382 393 378 396 C374 389 371 380 371 371 C371 362 374 353 378 346 L378 346 Z M416 60 C493 60 563 89 616 136 C614 139 611 141 609 144 C558 98 490 70 416 70 C342 70 274 98 222 144 C222 145 215 137 215 137 C268 89 338 60 416 60 L416 60 Z M416 324 C426 324 435 327 442 333 C439 337 437 339 437 339 C431 334 424 332 416 332 C408 332 401 335 395 339 C395 339 391 334 389 333 C397 327 406 324 416 324 L416 324 Z M482 319 C493 334 499 352 499 371 C499 390 493 408 482 422 C483 422 475 415 475 415 C484 403 489 388 489 371 C489 355 484 339 475 326 C478 324 480 322 482 319 L482 319 Z M292 269 C295 271 298 274 300 276 C280 302 267 335 267 371 C267 407 280 440 300 466 L293 473 C270 445 257 410 257 371 C257 333 270 297 292 269 L292 269 Z M416 -17 C512 -17 600 19 667 80 C667 80 660 88 660 87 C595 29 510 -7 416 -7 C322 -7 236 29 171 88 L164 80 C231 20 320 -17 416 -17 L416 -17 Z M416 121 C478 121 534 144 576 182 C574 185 571 187 569 190 C529 153 475 131 416 131 C357 131 303 153 262 190 L255 182 C298 144 354 121 416 121 L416 121 Z M416 170 C465 170 510 188 544 218 C542 221 539 223 537 226 C505 197 462 180 416 180 C369 180 327 197 294 226 L287 219 C322 189 367 170 416 170 L416 170 Z M416 209 C455 209 491 224 518 247 C516 250 514 253 512 255 C486 233 452 219 416 219 C380 219 346 233 320 255 L313 247 C341 224 377 209 416 209 L416 209 Z M416 265 C441 265 463 274 481 289 C479 292 476 294 474 297 C458 283 438 275 416 275 C394 275 373 283 357 297 L350 289 C368 274 391 265 416 265 L416 265 Z M358 445 C374 459 394 467 416 467 C438 467 458 459 474 445 L482 453 C464 468 441 477 416 477 C391 477 368 468 350 453 C351 452 354 448 358 445 L358 445 Z M570 552 C572 554 575 557 577 560 C534 598 478 621 416 621 C355 621 299 598 256 560 L263 553 C304 589 357 611 416 611 C475 611 529 589 570 552 L570 552 Z M454 346 C458 353 461 362 461 371 C461 380 458 389 454 396 L448 391 C451 385 453 378 453 371 C453 364 451 357 448 351 C448 351 450 349 454 346 L454 346 Z M468 333 C476 344 480 357 480 371 C480 385 476 398 468 409 L460 402 C466 393 470 382 470 371 C470 360 466 349 460 340 C463 338 465 336 468 333 L468 333 Z M498 306 C511 325 519 347 519 371 C519 395 511 418 497 436 L490 429 C502 413 509 393 509 371 C509 349 502 329 490 313 C492 311 495 308 498 306 L498 306 Z M540 269 C562 297 575 332 575 371 C575 410 562 445 539 473 L531 466 C552 440 565 407 565 371 C565 335 552 302 532 276 C535 274 537 271 540 269 L540 269 Z M568 243 C596 278 613 322 613 371 C613 420 596 464 568 499 L560 492 C587 459 603 417 603 371 C603 325 587 283 560 250 C563 248 566 245 568 243 L568 243 Z M604 211 C640 254 661 310 661 371 C661 432 640 488 604 531 L596 524 C631 483 651 429 651 371 C651 313 631 260 596 218 C601 213 604 211 604 211 L604 211 Z M649 171 C694 225 721 295 721 371 C721 447 694 517 649 571 L641 564 C685 512 711 445 711 371 C711 297 685 230 642 177 C644 175 647 173 649 171 L649 171 Z M706 120 C762 188 796 276 796 371 C796 467 762 555 706 622 L698 615 C753 549 786 464 786 371 C786 278 753 193 698 127 C703 123 706 120 706 120 L706 120 Z M183 170 L190 177 C147 229 121 297 121 371 C121 444 147 512 190 564 C187 567 184 569 182 571 C138 517 111 447 111 371 C111 294 138 225 183 170 L183 170 Z M334 306 L342 314 C330 330 323 350 323 371 C323 393 330 413 342 429 C340 431 337 434 334 436 C321 418 313 395 313 371 C313 346 321 324 334 306 L334 306 Z M364 333 L371 340 C366 349 362 360 362 371 C362 382 366 393 371 402 C369 404 366 406 364 409 C356 398 352 385 352 371 C352 357 356 344 364 333 L364 333 Z M395 403 C401 408 408 410 416 410 C424 410 431 407 437 403 C437 403 439 406 442 409 C435 415 426 418 416 418 C406 418 397 415 390 409 L395 403 Z M384 416 C393 423 404 428 416 428 C428 428 439 424 448 416 C450 419 452 421 454 423 C443 432 430 437 416 437 C401 437 388 432 377 423 L384 416 Z M371 430 C383 441 399 447 416 447 C433 447 449 441 461 430 C461 430 464 434 468 438 C454 450 436 457 416 457 C397 457 378 450 364 438 L371 430 Z M295 516 C327 545 370 562 416 562 C462 562 505 545 538 516 C538 516 545 523 544 523 C510 554 465 572 416 572 C367 572 322 554 288 524 L295 516 Z M416 240 C448 240 476 252 498 271 L491 278 C471 261 445 250 416 250 C388 250 361 261 340 278 L333 270 C355 251 384 240 416 240 L416 240 Z M416 285 C436 285 454 292 468 304 L461 312 C448 301 433 295 416 295 C399 295 383 302 370 312 L363 304 C378 292 396 285 416 285 L416 285 Z M416 305 C430 305 444 310 455 319 L448 326 C439 319 428 314 416 314 C404 314 393 319 383 326 L376 319 C388 310 401 305 416 305 L416 305 Z M341 464 C362 482 388 492 416 492 C445 492 471 481 491 464 L498 472 C476 491 447 502 416 502 C385 502 356 490 334 471 L341 464 Z M320 487 C346 509 380 523 416 523 C453 523 486 510 512 487 L518 494 C491 518 455 533 416 533 C377 533 341 519 313 495 L320 487 Z M610 597 L617 605 C563 653 493 682 416 682 C339 682 269 653 215 605 L222 598 C274 644 342 672 416 672 C491 672 559 644 610 597 L610 597 Z M172 654 C237 713 322 749 416 749 C510 749 596 713 661 654 L668 662 C601 722 512 759 416 759 C320 759 232 723 165 662 L172 654 Z M516 290 C534 312 544 340 544 371 C544 402 534 430 516 453 L508 446 C524 425 534 399 534 371 C534 343 524 317 509 297 L516 290 Z " />
<glyph glyph-name="summation" unicode="&#x2211;" horiz-adv-x="832" d="M126 120 C126 120 129 123 134 127 C79 193 46 278 46 371 C46 464 79 549 133 615 C129 619 126 621 126 621 C70 554 36 466 36 371 C36 275 70 187 126 120 L126 120 Z M228 211 C230 213 233 215 235 218 C201 259 181 313 181 371 C181 429 202 483 235 524 C232 526 230 529 227 531 C192 487 171 432 171 371 C171 310 193 254 228 211 L228 211 Z M264 243 C267 245 269 248 272 250 C245 283 229 325 229 371 C229 417 245 459 272 492 C269 494 267 497 264 499 C236 464 219 419 219 371 C219 322 236 278 264 243 L264 243 Z M316 289 C319 291 321 294 324 296 C308 317 298 343 298 371 C298 399 308 425 323 445 C321 448 318 450 316 452 C298 430 288 402 288 371 C288 340 298 312 316 289 L316 289 Z M349 320 C352 323 354 325 357 327 C348 340 343 355 343 371 C343 387 348 402 357 415 C354 417 352 420 349 422 C339 408 333 390 333 371 C333 352 339 334 349 320 L349 320 Z M378 346 C382 349 384 351 384 351 C381 357 379 364 379 371 C379 378 381 385 384 391 C384 391 382 393 378 396 C374 389 371 380 371 371 C371 362 374 353 378 346 L378 346 Z M416 60 C493 60 563 89 616 136 C614 139 611 141 609 144 C558 98 490 70 416 70 C342 70 274 98 222 144 C222 145 215 137 215 137 C268 89 338 60 416 60 L416 60 Z M416 324 C426 324 435 327 442 333 C439 337 437 339 437 339 C431 334 424 332 416 332 C408 332 401 335 395 339 C395 339 391 334 389 333 C397 327 406 324 416 324 L416 324 Z M482 319 C493 334 499 352 499 371 C499 390 493 408 482 422 C483 422 475 415 475 415 C484 403 489 388 489 371 C489 355 484 339 475 326 C478 324 480 322 482 319 L482 319 Z M292 269 C295 271 298 274 300 276 C280 302 267 335 267 371 C267 407 280 440 300 466 L293 473 C270 445 257 410 257 371 C257 333 270 297 292 269 L292 269 Z M416 -17 C512 -17 600 19 667 80 C667 80 660 88 660 87 C595 29 510 -7 416 -7 C322 -7 236 29 171 88 L164 80 C231 20 320 -17 416 -17 L416 -17 Z M416 121 C478 121 534 144 576 182 C574 185 571 187 569 190 C529 153 475 131 416 131 C357 131 303 153 262 190 L255 182 C298 144 354 121 416 121 L416 121 Z M416 170 C465 170 510 188 544 218 C542 221 539 223 537 226 C505 197 462 180 416 180 C369 180 327 197 294 226 L287 219 C322 189 367 170 416 170 L416 170 Z M416 209 C455 209 491 224 518 247 C516 250 514 253 512 255 C486 233 452 219 416 219 C380 219 346 233 320 255 L313 247 C341 224 377 209 416 209 L416 209 Z M416 265 C441 265 463 274 481 289 C479 292 476 294 474 297 C458 283 438 275 416 275 C394 275 373 283 357 297 L350 289 C368 274 391 265 416 265 L416 265 Z M358 445 C374 459 394 467 416 467 C438 467 458 459 474 445 L482 453 C464 468 441 477 416 477 C391 477 368 468 350 453 C351 452 354 448 358 445 L358 445 Z M570 552 C572 554 575 557 577 560 C534 598 478 621 416 621 C355 621 299 598 256 560 L263 553 C304 589 357 611 416 611 C475 611 529 589 570 552 L570 552 Z M454 346 C458 353 461 362 461 371 C461 380 458 389 454 396 L448 391 C451 385 453 378 453 371 C453 364 451 357 448 351 C448 351 450 349 454 346 L454 346 Z M468 333 C476 344 480 357 480 371 C480 385 476 398 468 409 L460 402 C466 393 470 382 470 371 C470 360 466 349 460 340 C463 338 465 336 468 333 L468 333 Z M498 306 C511 325 519 347 519 371 C519 395 511 418 497 436 L490 429 C502 413 509 393 509 371 C509 349 502 329 490 313 C492 311 495 308 498 306 L498 306 Z M540 269 C562 297 575 332 575 371 C575 410 562 445 539 473 L531 466 C552 440 565 407 565 371 C565 335 552 302 532 276 C535 274 537 271 540 269 L540 269 Z M568 243 C596 278 613 322 613 371 C613 420 596 464 568 499 L560 492 C587 459 603 417 603 371 C603 325 587 283 560 250 C563 248 566 245 568 243 L568 243 Z M604 211 C640 254 661 310 661 371 C661 432 640 488 604 531 L596 524 C631 483 651 429 651 371 C651 313 631 260 596 218 C601 213 604 211 604 211 L604 211 Z M649 171 C694 225 721 295 721 371 C721 447 694 517 649 571 L641 564 C685 512 711 445 711 371 C711 297 685 230 642 177 C644 175 647 173 649 171 L649 171 Z M706 120 C762 188 796 276 796 371 C796 467 762 555 706 622 L698 615 C753 549 786 464 786 371 C786 278 753 193 698 127 C703 123 706 120 706 120 L706 120 Z M183 170 L190 177 C147 229 121 297 121 371 C121 444 147 512 190 564 C187 567 184 569 182 571 C138 517 111 447 111 371 C111 294 138 225 183 170 L183 170 Z M334 306 L342 314 C330 330 323 350 323 371 C323 393 330 413 342 429 C340 431 337 434 334 436 C321 418 313 395 313 371 C313 346 321 324 334 306 L334 306 Z M364 333 L371 340 C366 349 362 360 362 371 C362 382 366 393 371 402 C369 404 366 406 364 409 C356 398 352 385 352 371 C352 357 356 344 364 333 L364 333 Z M395 403 C401 408 408 410 416 410 C424 410 431 407 437 403 C437 403 439 406 442 409 C435 415 426 418 416 418 C406 418 397 415 390 409 L395 403 Z M384 416 C393 423 404 428 416 428 C428 428 439 424 448 416 C450 419 452 421 454 423 C443 432 430 437 416 437 C401 437 388 432 377 423 L384 416 Z M371 430 C383 441 399 447 416 447 C433 447 449 441 461 430 C461 430 464 434 468 438 C454 450 436 457 416 457 C397 457 378 450 364 438 L371 430 Z M295 516 C327 545 370 562 416 562 C462 562 505 545 538 516 C538 516 545 523 544 523 C510 554 465 572 416 572 C367 572 322 554 288 524 L295 516 Z M416 240 C448 240 476 252 498 271 L491 278 C471 261 445 250 416 250 C388 250 361 261 340 278 L333 270 C355 251 384 240 416 240 L416 240 Z M416 285 C436 285 454 292 468 304 L461 312 C448 301 433 295 416 295 C399 295 383 302 370 312 L363 304 C378 292 396 285 416 285 L416 285 Z M416 305 C430 305 444 310 455 319 L448 326 C439 319 428 314 416 314 C404 314 393 319 383 326 L376 319 C388 310 401 305 416 305 L416 305 Z M341 464 C362 482 388 492 416 492 C445 492 471 481 491 464 L498 472 C476 491 447 502 416 502 C385 502 356 490 334 471 L341 464 Z M320 487 C346 509 380 523 416 523 C453 523 486 510 512 487 L518 494 C491 518 455 533 416 533 C377 533 341 519 313 495 L320 487 Z M610 597 L617 605 C563 653 493 682 416 682 C339 682 269 653 215 605 L222 598 C274 644 342 672 416 672 C491 672 559 644 610 597 L610 597 Z M172 654 C237 713 322 749 416 749 C510 749 596 713 661 654 L668 662 C601 722 512 759 416 759 C320 759 232 723 165 662 L172 654 Z M516 290 C534 312 544 340 544 371 C544 402 534 430 516 453 L508 446 C524 425 534 399 534 371 C534 343 524 317 509 297 L516 290 Z " />
<glyph glyph-name="minus" unicode="&#x2212;" horiz-adv-x="736" d="M63 264 L627 264 L665 441 L101 441 L63 264 Z " />
<glyph glyph-name="radical" unicode="&#x221a;" horiz-adv-x="706" d="M120 -6 L327 -6 L770 741 L570 741 L277 233 L240 466 L35 466 L120 -6 Z " />
<glyph glyph-name="infinity" unicode="&#x221e;" horiz-adv-x="1115" d="M378 -165 L576 -165 L697 405 L801 405 L837 573 L732 573 L735 585 C743 622 758 636 815 636 L850 636 L884 797 C861 799 847 800 811 800 C637 800 572 748 541 604 L534 573 L370 573 L373 585 C381 622 396 636 453 636 L488 636 L522 797 C499 799 510 800 449 800 C275 800 210 748 179 604 L172 573 L65 573 L29 405 L137 405 L16 -165 L214 -165 L335 405 L499 405 L378 -165 Z M776 0 L974 0 L1096 573 L898 573 L776 0 Z M906 615 L1106 615 L1140 776 L940 776 L906 615 Z " />
<glyph glyph-name="integral" unicode="&#x222b;" horiz-adv-x="832" d="M126 120 C126 120 129 123 134 127 C79 193 46 278 46 371 C46 464 79 549 133 615 C129 619 126 621 126 621 C70 554 36 466 36 371 C36 275 70 187 126 120 L126 120 Z M228 211 C230 213 233 215 235 218 C201 259 181 313 181 371 C181 429 202 483 235 524 C232 526 230 529 227 531 C192 487 171 432 171 371 C171 310 193 254 228 211 L228 211 Z M264 243 C267 245 269 248 272 250 C245 283 229 325 229 371 C229 417 245 459 272 492 C269 494 267 497 264 499 C236 464 219 419 219 371 C219 322 236 278 264 243 L264 243 Z M316 289 C319 291 321 294 324 296 C308 317 298 343 298 371 C298 399 308 425 323 445 C321 448 318 450 316 452 C298 430 288 402 288 371 C288 340 298 312 316 289 L316 289 Z M349 320 C352 323 354 325 357 327 C348 340 343 355 343 371 C343 387 348 402 357 415 C354 417 352 420 349 422 C339 408 333 390 333 371 C333 352 339 334 349 320 L349 320 Z M378 346 C382 349 384 351 384 351 C381 357 379 364 379 371 C379 378 381 385 384 391 C384 391 382 393 378 396 C374 389 371 380 371 371 C371 362 374 353 378 346 L378 346 Z M416 60 C493 60 563 89 616 136 C614 139 611 141 609 144 C558 98 490 70 416 70 C342 70 274 98 222 144 C222 145 215 137 215 137 C268 89 338 60 416 60 L416 60 Z M416 324 C426 324 435 327 442 333 C439 337 437 339 437 339 C431 334 424 332 416 332 C408 332 401 335 395 339 C395 339 391 334 389 333 C397 327 406 324 416 324 L416 324 Z M482 319 C493 334 499 352 499 371 C499 390 493 408 482 422 C483 422 475 415 475 415 C484 403 489 388 489 371 C489 355 484 339 475 326 C478 324 480 322 482 319 L482 319 Z M292 269 C295 271 298 274 300 276 C280 302 267 335 267 371 C267 407 280 440 300 466 L293 473 C270 445 257 410 257 371 C257 333 270 297 292 269 L292 269 Z M416 -17 C512 -17 600 19 667 80 C667 80 660 88 660 87 C595 29 510 -7 416 -7 C322 -7 236 29 171 88 L164 80 C231 20 320 -17 416 -17 L416 -17 Z M416 121 C478 121 534 144 576 182 C574 185 571 187 569 190 C529 153 475 131 416 131 C357 131 303 153 262 190 L255 182 C298 144 354 121 416 121 L416 121 Z M416 170 C465 170 510 188 544 218 C542 221 539 223 537 226 C505 197 462 180 416 180 C369 180 327 197 294 226 L287 219 C322 189 367 170 416 170 L416 170 Z M416 209 C455 209 491 224 518 247 C516 250 514 253 512 255 C486 233 452 219 416 219 C380 219 346 233 320 255 L313 247 C341 224 377 209 416 209 L416 209 Z M416 265 C441 265 463 274 481 289 C479 292 476 294 474 297 C458 283 438 275 416 275 C394 275 373 283 357 297 L350 289 C368 274 391 265 416 265 L416 265 Z M358 445 C374 459 394 467 416 467 C438 467 458 459 474 445 L482 453 C464 468 441 477 416 477 C391 477 368 468 350 453 C351 452 354 448 358 445 L358 445 Z M570 552 C572 554 575 557 577 560 C534 598 478 621 416 621 C355 621 299 598 256 560 L263 553 C304 589 357 611 416 611 C475 611 529 589 570 552 L570 552 Z M454 346 C458 353 461 362 461 371 C461 380 458 389 454 396 L448 391 C451 385 453 378 453 371 C453 364 451 357 448 351 C448 351 450 349 454 346 L454 346 Z M468 333 C476 344 480 357 480 371 C480 385 476 398 468 409 L460 402 C466 393 470 382 470 371 C470 360 466 349 460 340 C463 338 465 336 468 333 L468 333 Z M498 306 C511 325 519 347 519 371 C519 395 511 418 497 436 L490 429 C502 413 509 393 509 371 C509 349 502 329 490 313 C492 311 495 308 498 306 L498 306 Z M540 269 C562 297 575 332 575 371 C575 410 562 445 539 473 L531 466 C552 440 565 407 565 371 C565 335 552 302 532 276 C535 274 537 271 540 269 L540 269 Z M568 243 C596 278 613 322 613 371 C613 420 596 464 568 499 L560 492 C587 459 603 417 603 371 C603 325 587 283 560 250 C563 248 566 245 568 243 L568 243 Z M604 211 C640 254 661 310 661 371 C661 432 640 488 604 531 L596 524 C631 483 651 429 651 371 C651 313 631 260 596 218 C601 213 604 211 604 211 L604 211 Z M649 171 C694 225 721 295 721 371 C721 447 694 517 649 571 L641 564 C685 512 711 445 711 371 C711 297 685 230 642 177 C644 175 647 173 649 171 L649 171 Z M706 120 C762 188 796 276 796 371 C796 467 762 555 706 622 L698 615 C753 549 786 464 786 371 C786 278 753 193 698 127 C703 123 706 120 706 120 L706 120 Z M183 170 L190 177 C147 229 121 297 121 371 C121 444 147 512 190 564 C187 567 184 569 182 571 C138 517 111 447 111 371 C111 294 138 225 183 170 L183 170 Z M334 306 L342 314 C330 330 323 350 323 371 C323 393 330 413 342 429 C340 431 337 434 334 436 C321 418 313 395 313 371 C313 346 321 324 334 306 L334 306 Z M364 333 L371 340 C366 349 362 360 362 371 C362 382 366 393 371 402 C369 404 366 406 364 409 C356 398 352 385 352 371 C352 357 356 344 364 333 L364 333 Z M395 403 C401 408 408 410 416 410 C424 410 431 407 437 403 C437 403 439 406 442 409 C435 415 426 418 416 418 C406 418 397 415 390 409 L395 403 Z M384 416 C393 423 404 428 416 428 C428 428 439 424 448 416 C450 419 452 421 454 423 C443 432 430 437 416 437 C401 437 388 432 377 423 L384 416 Z M371 430 C383 441 399 447 416 447 C433 447 449 441 461 430 C461 430 464 434 468 438 C454 450 436 457 416 457 C397 457 378 450 364 438 L371 430 Z M295 516 C327 545 370 562 416 562 C462 562 505 545 538 516 C538 516 545 523 544 523 C510 554 465 572 416 572 C367 572 322 554 288 524 L295 516 Z M416 240 C448 240 476 252 498 271 L491 278 C471 261 445 250 416 250 C388 250 361 261 340 278 L333 270 C355 251 384 240 416 240 L416 240 Z M416 285 C436 285 454 292 468 304 L461 312 C448 301 433 295 416 295 C399 295 383 302 370 312 L363 304 C378 292 396 285 416 285 L416 285 Z M416 305 C430 305 444 310 455 319 L448 326 C439 319 428 314 416 314 C404 314 393 319 383 326 L376 319 C388 310 401 305 416 305 L416 305 Z M341 464 C362 482 388 492 416 492 C445 492 471 481 491 464 L498 472 C476 491 447 502 416 502 C385 502 356 490 334 471 L341 464 Z M320 487 C346 509 380 523 416 523 C453 523 486 510 512 487 L518 494 C491 518 455 533 416 533 C377 533 341 519 313 495 L320 487 Z M610 597 L617 605 C563 653 493 682 416 682 C339 682 269 653 215 605 L222 598 C274 644 342 672 416 672 C491 672 559 644 610 597 L610 597 Z M172 654 C237 713 322 749 416 749 C510 749 596 713 661 654 L668 662 C601 722 512 759 416 759 C320 759 232 723 165 662 L172 654 Z M516 290 C534 312 544 340 544 371 C544 402 534 430 516 453 L508 446 C524 425 534 399 534 371 C534 343 524 317 509 297 L516 290 Z " />
<glyph glyph-name="approxequal" unicode="&#x2248;" horiz-adv-x="736" d="M143 128 C169 158 196 176 222 176 C272 176 344 120 427 120 C485 120 548 155 609 228 L513 320 C487 290 460 272 434 272 C384 272 312 328 229 328 C171 328 108 293 47 220 L143 128 Z M199 386 C225 416 252 434 278 434 C328 434 400 378 483 378 C541 378 604 413 665 486 L569 578 C543 548 516 530 490 530 C440 530 368 586 285 586 C227 586 164 551 103 478 L199 386 Z " />
<glyph glyph-name="notequal" unicode="&#x2260;" horiz-adv-x="836" d="M378 -165 L576 -165 L697 405 L821 405 L857 573 L732 573 L735 585 C743 622 758 636 815 636 L870 636 L904 797 C881 799 872 800 811 800 C637 800 572 748 541 604 L534 573 L370 573 L373 585 C381 622 396 636 453 636 L488 636 L522 797 C499 799 510 800 449 800 C275 800 210 748 179 604 L172 573 L65 573 L29 405 L137 405 L16 -165 L214 -165 L335 405 L499 405 L378 -165 Z " />
<glyph glyph-name="lessequal" unicode="&#x2264;" horiz-adv-x="736" d="M35 0 L504 0 L520 78 L521 78 L557 249 L320 357 L603 465 L641 644 L126 423 L100 300 L346 170 L71 170 L35 0 Z " />
<glyph glyph-name="greaterequal" unicode="&#x2265;" horiz-adv-x="736" d="M74 0 L543 0 L579 170 L304 170 L606 300 L632 423 L211 644 L173 465 L410 357 L127 249 L110 170 L74 0 Z " />
<glyph glyph-name="lozenge" unicode="&#x25ca;" horiz-adv-x="841" d="M29 405 L137 405 L16 -165 L214 -165 L335 405 L483 405 L442 214 C412 70 445 -3 618 -3 C655 -3 689 -2 719 0 L754 165 L697 165 C635 165 633 185 642 224 L680 405 L805 405 L841 573 L716 573 L749 729 L589 696 L531 573 L370 573 L373 585 C381 622 396 636 453 636 L498 636 L532 797 C509 799 486 800 449 800 C275 800 210 748 179 604 L172 573 L65 573 L29 405 Z " />
<glyph glyph-name="apple" unicode="&#xf8ff;" horiz-adv-x="832" d="M126 120 C126 120 129 123 134 127 C79 193 46 278 46 371 C46 464 79 549 133 615 C129 619 126 621 126 621 C70 554 36 466 36 371 C36 275 70 187 126 120 L126 120 Z M228 211 C230 213 233 215 235 218 C201 259 181 313 181 371 C181 429 202 483 235 524 C232 526 230 529 227 531 C192 487 171 432 171 371 C171 310 193 254 228 211 L228 211 Z M264 243 C267 245 269 248 272 250 C245 283 229 325 229 371 C229 417 245 459 272 492 C269 494 267 497 264 499 C236 464 219 419 219 371 C219 322 236 278 264 243 L264 243 Z M316 289 C319 291 321 294 324 296 C308 317 298 343 298 371 C298 399 308 425 323 445 C321 448 318 450 316 452 C298 430 288 402 288 371 C288 340 298 312 316 289 L316 289 Z M349 320 C352 323 354 325 357 327 C348 340 343 355 343 371 C343 387 348 402 357 415 C354 417 352 420 349 422 C339 408 333 390 333 371 C333 352 339 334 349 320 L349 320 Z M378 346 C382 349 384 351 384 351 C381 357 379 364 379 371 C379 378 381 385 384 391 C384 391 382 393 378 396 C374 389 371 380 371 371 C371 362 374 353 378 346 L378 346 Z M416 60 C493 60 563 89 616 136 C614 139 611 141 609 144 C558 98 490 70 416 70 C342 70 274 98 222 144 C222 145 215 137 215 137 C268 89 338 60 416 60 L416 60 Z M416 324 C426 324 435 327 442 333 C439 337 437 339 437 339 C431 334 424 332 416 332 C408 332 401 335 395 339 C395 339 391 334 389 333 C397 327 406 324 416 324 L416 324 Z M482 319 C493 334 499 352 499 371 C499 390 493 408 482 422 C483 422 475 415 475 415 C484 403 489 388 489 371 C489 355 484 339 475 326 C478 324 480 322 482 319 L482 319 Z M292 269 C295 271 298 274 300 276 C280 302 267 335 267 371 C267 407 280 440 300 466 L293 473 C270 445 257 410 257 371 C257 333 270 297 292 269 L292 269 Z M416 -17 C512 -17 600 19 667 80 C667 80 660 88 660 87 C595 29 510 -7 416 -7 C322 -7 236 29 171 88 L164 80 C231 20 320 -17 416 -17 L416 -17 Z M416 121 C478 121 534 144 576 182 C574 185 571 187 569 190 C529 153 475 131 416 131 C357 131 303 153 262 190 L255 182 C298 144 354 121 416 121 L416 121 Z M416 170 C465 170 510 188 544 218 C542 221 539 223 537 226 C505 197 462 180 416 180 C369 180 327 197 294 226 L287 219 C322 189 367 170 416 170 L416 170 Z M416 209 C455 209 491 224 518 247 C516 250 514 253 512 255 C486 233 452 219 416 219 C380 219 346 233 320 255 L313 247 C341 224 377 209 416 209 L416 209 Z M416 265 C441 265 463 274 481 289 C479 292 476 294 474 297 C458 283 438 275 416 275 C394 275 373 283 357 297 L350 289 C368 274 391 265 416 265 L416 265 Z M358 445 C374 459 394 467 416 467 C438 467 458 459 474 445 L482 453 C464 468 441 477 416 477 C391 477 368 468 350 453 C351 452 354 448 358 445 L358 445 Z M570 552 C572 554 575 557 577 560 C534 598 478 621 416 621 C355 621 299 598 256 560 L263 553 C304 589 357 611 416 611 C475 611 529 589 570 552 L570 552 Z M454 346 C458 353 461 362 461 371 C461 380 458 389 454 396 L448 391 C451 385 453 378 453 371 C453 364 451 357 448 351 C448 351 450 349 454 346 L454 346 Z M468 333 C476 344 480 357 480 371 C480 385 476 398 468 409 L460 402 C466 393 470 382 470 371 C470 360 466 349 460 340 C463 338 465 336 468 333 L468 333 Z M498 306 C511 325 519 347 519 371 C519 395 511 418 497 436 L490 429 C502 413 509 393 509 371 C509 349 502 329 490 313 C492 311 495 308 498 306 L498 306 Z M540 269 C562 297 575 332 575 371 C575 410 562 445 539 473 L531 466 C552 440 565 407 565 371 C565 335 552 302 532 276 C535 274 537 271 540 269 L540 269 Z M568 243 C596 278 613 322 613 371 C613 420 596 464 568 499 L560 492 C587 459 603 417 603 371 C603 325 587 283 560 250 C563 248 566 245 568 243 L568 243 Z M604 211 C640 254 661 310 661 371 C661 432 640 488 604 531 L596 524 C631 483 651 429 651 371 C651 313 631 260 596 218 C601 213 604 211 604 211 L604 211 Z M649 171 C694 225 721 295 721 371 C721 447 694 517 649 571 L641 564 C685 512 711 445 711 371 C711 297 685 230 642 177 C644 175 647 173 649 171 L649 171 Z M706 120 C762 188 796 276 796 371 C796 467 762 555 706 622 L698 615 C753 549 786 464 786 371 C786 278 753 193 698 127 C703 123 706 120 706 120 L706 120 Z M183 170 L190 177 C147 229 121 297 121 371 C121 444 147 512 190 564 C187 567 184 569 182 571 C138 517 111 447 111 371 C111 294 138 225 183 170 L183 170 Z M334 306 L342 314 C330 330 323 350 323 371 C323 393 330 413 342 429 C340 431 337 434 334 436 C321 418 313 395 313 371 C313 346 321 324 334 306 L334 306 Z M364 333 L371 340 C366 349 362 360 362 371 C362 382 366 393 371 402 C369 404 366 406 364 409 C356 398 352 385 352 371 C352 357 356 344 364 333 L364 333 Z M395 403 C401 408 408 410 416 410 C424 410 431 407 437 403 C437 403 439 406 442 409 C435 415 426 418 416 418 C406 418 397 415 390 409 L395 403 Z M384 416 C393 423 404 428 416 428 C428 428 439 424 448 416 C450 419 452 421 454 423 C443 432 430 437 416 437 C401 437 388 432 377 423 L384 416 Z M371 430 C383 441 399 447 416 447 C433 447 449 441 461 430 C461 430 464 434 468 438 C454 450 436 457 416 457 C397 457 378 450 364 438 L371 430 Z M295 516 C327 545 370 562 416 562 C462 562 505 545 538 516 C538 516 545 523 544 523 C510 554 465 572 416 572 C367 572 322 554 288 524 L295 516 Z M416 240 C448 240 476 252 498 271 L491 278 C471 261 445 250 416 250 C388 250 361 261 340 278 L333 270 C355 251 384 240 416 240 L416 240 Z M416 285 C436 285 454 292 468 304 L461 312 C448 301 433 295 416 295 C399 295 383 302 370 312 L363 304 C378 292 396 285 416 285 L416 285 Z M416 305 C430 305 444 310 455 319 L448 326 C439 319 428 314 416 314 C404 314 393 319 383 326 L376 319 C388 310 401 305 416 305 L416 305 Z M341 464 C362 482 388 492 416 492 C445 492 471 481 491 464 L498 472 C476 491 447 502 416 502 C385 502 356 490 334 471 L341 464 Z M320 487 C346 509 380 523 416 523 C453 523 486 510 512 487 L518 494 C491 518 455 533 416 533 C377 533 341 519 313 495 L320 487 Z M610 597 L617 605 C563 653 493 682 416 682 C339 682 269 653 215 605 L222 598 C274 644 342 672 416 672 C491 672 559 644 610 597 L610 597 Z M172 654 C237 713 322 749 416 749 C510 749 596 713 661 654 L668 662 C601 722 512 759 416 759 C320 759 232 723 165 662 L172 654 Z M516 290 C534 312 544 340 544 371 C544 402 534 430 516 453 L508 446 C524 425 534 399 534 371 C534 343 524 317 509 297 L516 290 Z " />
<glyph glyph-name="fi" unicode="&#xfb01;" horiz-adv-x="753" d="M29 405 L137 405 L16 -165 L214 -165 L335 405 L439 405 L475 573 L370 573 L373 585 C381 622 396 636 453 636 L488 636 L522 797 C504 799 489 800 449 800 C275 800 210 748 179 604 L172 573 L65 573 L29 405 Z M414 0 L612 0 L734 573 L536 573 L414 0 Z M544 615 L744 615 L778 776 L578 776 L544 615 Z " />
<glyph glyph-name="fl" unicode="&#xfb02;" horiz-adv-x="798" d="M29 405 L137 405 L16 -165 L214 -165 L335 405 L439 405 L475 573 L370 573 L373 585 C381 622 396 636 453 636 L488 636 L522 797 C499 799 484 800 449 800 C275 800 210 748 179 604 L172 573 L65 573 L29 405 Z M590 -2 C627 -2 665 0 680 2 L715 165 L698 165 C656 165 649 175 658 216 L777 776 L579 776 L459 213 C426 58 470 -2 590 -2 L590 -2 Z " />
</font>
</svg>
