<?xml version="1.0" encoding="UTF-8" standalone="no"?>
<svg width="70px" height="57px" viewBox="0 0 70 57" version="1.1" xmlns="http://www.w3.org/2000/svg" xmlns:xlink="http://www.w3.org/1999/xlink" xmlns:sketch="http://www.bohemiancoding.com/sketch/ns">
    <!-- Generator: Sketch 3.5.2 (25235) - http://www.bohemiancoding.com/sketch -->
    <title>dark</title>
    <desc>Created with Sketch.</desc>
    <defs>
        <rect id="path-1" x="0" y="0" width="70" height="57"></rect>
    </defs>
    <g id="Page-1" stroke="none" stroke-width="1" fill="none" fill-rule="evenodd" sketch:type="MSPage">
        <g id="dark" sketch:type="MSLayerGroup">
            <rect id="Mask" fill="#FFFFFF" sketch:type="MSShapeGroup" x="0" y="0" width="70" height="57"></rect>
            <mask id="mask-2" sketch:name="Mask" fill="white">
                <use xlink:href="#path-1"></use>
            </mask>
            <use id="Mask" sketch:type="MSShapeGroup" xlink:href="#path-1"></use>
            <path d="M55.1049479,12.5128899 L53.920884,11.8674608 L53.9125543,11.3009244 L50.4001606,11.762167 L55.1049479,12.5128899 L55.1049479,12.5128899 Z M55.3906287,20.0831703 C55.3906287,20.0831703 59.2621287,22.1387283 57.9401606,28.9387181 C57.9401606,28.9387181 57.2932138,26.2666169 56.1366074,26.2666169 C56.1366074,26.2666169 59.6653521,33.7182477 54.4536819,41.1695679 C54.4536819,41.1695679 54.688767,39.5224503 54.5539479,37.9135366 C53.832033,39.8420588 52.8114798,41.8047471 51.368267,43.6251801 C51.368267,43.6251801 48.669416,53.3330173 50.338767,62.0879303 C53.1452883,62.4218265 52.5986074,63.8272964 52.5986074,63.8272964 L50.8527457,63.8272964 L48.2955011,63.8272964 C48.2955011,63.8272964 44.9200862,51.9054947 45.0635436,46.984331 C45.0635436,46.984331 47.4042138,45.6655187 48.6225223,40.675091 C48.0369691,42.6536199 44.3548947,48.6538118 35.1535649,49.0880322 C35.1535649,49.0880322 43.2624585,44.5231279 44.6322457,38.5887834 C44.6322457,38.5887834 40.7058309,45.5782398 33.2306181,49.049207 C33.2306181,49.049207 27.8319904,55.8547876 26.8635755,61.8599491 C27.8023734,62.177694 28.064916,62.8315093 27.7144479,63.8400311 L22.9822032,63.8400311 C22.9822032,63.8400311 22.7878415,62.3876603 23.9774585,61.8391388 C24.3075649,57.7500754 25.312384,48.4031567 27.7955862,44.7163218 C27.7955862,44.7163218 29.1181713,42.1780896 27.5700649,37.0391946 C27.5700649,37.0391946 28.4308096,41.5621677 27.008884,44.4262203 C27.008884,44.4262203 24.9859798,47.9012254 24.5670223,49.7701122 C22.9251287,49.8474518 22.6351287,49.7735288 20.5884691,50.9892214 C19.4111926,51.8585939 18.1003309,52.696285 16.8595011,53.4355157 C16.8595011,53.4355157 16.858884,53.4361369 16.8585755,53.4361369 C14.2149479,55.0105738 11.5531181,55.6445106 11.5531181,55.6445106 C9.7409266,58.0771384 10.4992457,60.5374096 11.1215117,61.7257694 C13.2955862,61.8723731 13.1212777,63.808971 13.1212777,63.808971 L7.45856489,63.808971 C7.45856489,63.808971 7.38544787,63.2536162 7.61559681,62.7078901 C6.90910745,58.3675504 8.67749043,54.553369 8.67749043,54.553369 C8.67749043,54.553369 12.6341394,52.350586 13.7000436,46.2553502 C13.912916,45.0362409 14.2167989,43.9833032 14.5771394,43.0692042 C12.7461287,43.4941065 10.6825011,43.8385631 8.79996915,43.8385631 C3.99553298,43.8385631 -0.66914787,40.5775622 7.30122447,35.1901863 C8.23632021,32.0751679 10.4187245,32.550077 10.4187245,32.550077 C8.87030957,32.9951683 8.42605426,33.9452971 8.42605426,33.9452971 C11.071533,32.0316837 12.7303947,33.3852833 12.7303947,33.3852833 C11.5358415,33.2970726 11.3297564,33.4486459 10.2496606,34.9764927 C9.52095851,36.0061353 8.6882883,35.925379 8.2215117,35.7638665 C3.20667128,38.4698232 2.91975638,42.8548894 8.16567128,42.4824787 C10.824416,42.2936332 13.8620117,41.2475288 16.0922351,40.3259753 C18.0920011,37.6824494 20.4570436,37.2808422 20.4570436,37.2808422 C24.0456394,37.2808422 26.4233309,29.0871854 26.4233309,29.0871854 C25.9917245,31.8459443 26.9987032,32.9137908 26.9987032,32.9137908 C26.8552457,28.2100479 29.282916,23.3926249 29.282916,23.3926249 C26.963533,24.5825377 25.26765,27.3102365 25.26765,27.3102365 C26.9477989,18.9243176 35.5555543,13.6732955 35.5555543,13.6732955 C30.32815,15.0520538 25.60115,21.5116247 25.60115,21.5116247 C31.1059053,8.7462304 40.6888628,7.16930866 43.5422777,7.26963281 C46.3950755,7.37057816 48.6339372,9.29754734 48.6339372,9.29754734 L53.2162457,9.58081554 L54.3336713,10.8921734 C54.3336713,10.8921734 57.8972777,11.541019 60.2317777,11.639169 L60.2083309,12.61632 L58.1817245,13.0082986 L60.1873521,13.4925257 L60.1089904,16.7535266 L60.7398947,19.1265189 C60.7398947,19.1265189 57.9241181,19.0519747 55.3906287,20.0831703 L55.3906287,20.0831703 L55.3906287,20.0831703 Z M42.3825862,63.3964927 L39.157416,63.3964927 C37.0536819,60.8775178 33.4925436,58.1417434 33.4925436,58.1417434 C32.9856606,54.9204995 31.1059053,53.7989189 31.1059053,53.7989189 C31.1059053,53.7989189 32.7601394,51.8520713 33.90965,50.8677764 C34.8826926,50.0350549 37.0104904,50.0350549 37.0104904,50.0350549 C37.7583202,52.5074396 37.1718415,57.3419456 37.1718415,57.3419456 C38.43365,57.8618918 40.2788521,61.7934805 40.2788521,61.7934805 C42.3825862,61.7934805 42.3825862,63.3964927 42.3825862,63.3964927 L42.3825862,63.3964927 L42.3825862,63.3964927 Z" fill="#231F1F" sketch:type="MSShapeGroup" mask="url(#mask-2)"></path>
        </g>
    </g>
</svg>