<?xml version="1.0" encoding="UTF-8" standalone="no"?>
<svg width="1027px" height="921px" viewBox="0 0 1027 921" version="1.1" xmlns="http://www.w3.org/2000/svg" xmlns:xlink="http://www.w3.org/1999/xlink" xmlns:sketch="http://www.bohemiancoding.com/sketch/ns">
    <!-- Generator: Sketch 3.5.2 (25235) - http://www.bohemiancoding.com/sketch -->
    <title>eye</title>
    <desc>Created with Sketch.</desc>
    <defs></defs>
    <g id="Page-1" stroke="none" stroke-width="1" fill="none" fill-rule="evenodd" sketch:type="MSPage">
        <g id="eye" sketch:type="MSArtboardGroup">
            <g sketch:type="MSLayerGroup" transform="translate(81.000000, 62.000000)" id="Group">
                <g transform="translate(76.000000, 111.000000)" stroke="#000000" sketch:type="MSShapeGroup" stroke-linecap="round" stroke-linejoin="round">
                    <path d="M72.614,42.146 L72.273,41.554 L297.846,41.554 L184.718,237.497 L71.932,42.146 L72.614,42.146 Z" id="Shape" stroke-width="2"></path>
                    <path d="M623.386,42.146 L624.068,42.146 L511.282,237.497 L398.154,41.554 L623.727,41.554 L623.386,42.146 Z" id="Shape" stroke-width="2"></path>
                    <path d="M348,519.127 L347.659,519.719 L234.872,324.367 L461.128,324.367 L348.341,519.719 L348,519.127 Z" id="Shape" stroke-width="2"></path>
                    <path d="M206.14,119.237 L205.8,118.646 L252.545,118.594 L230.554,80.405 L208.477,42.266 L185.06,82.723 L161.642,42.266 L139.565,80.405 L139.224,80.997 L117.233,119.185 L163.978,119.237 L140.651,159.746 L184.718,159.795 L228.786,159.746 L205.459,119.237 L206.14,119.237 Z" id="Shape" stroke-width="1.9892"></path>
                    <path d="M489.86,119.237 L490.541,119.237 L467.214,159.746 L511.282,159.795 L555.349,159.746 L532.022,119.237 L578.767,119.185 L556.776,80.997 L556.435,80.405 L534.358,42.266 L510.94,82.723 L487.523,42.266 L465.446,80.405 L443.455,118.594 L490.2,118.646 L489.86,119.237 Z" id="Shape" stroke-width="1.9892"></path>
                    <path d="M348,364.945 L347.659,365.535 L324.241,325.079 L302.164,363.218 L280.173,401.406 L326.918,401.458 L303.591,441.967 L347.659,442.016 L348.341,442.016 L392.409,441.967 L369.082,401.458 L415.827,401.406 L393.836,363.218 L371.759,325.079 L348.341,365.535 L348,364.945 Z" id="Shape" stroke-width="1.9892"></path>
                    <path d="M150.634,87.19 L150.293,86.599 L219.826,86.599 L184.718,147.408 L149.952,87.19 L150.634,87.19 Z" id="Shape" stroke-width="2"></path>
                    <path d="M545.365,87.19 L546.048,87.19 L511.282,147.408 L476.174,86.599 L545.707,86.599 L545.365,87.19 Z" id="Shape" stroke-width="2"></path>
                    <path d="M348,429.037 L347.659,429.629 L312.892,369.411 L383.108,369.411 L348.341,429.629 L348,429.037 Z" id="Shape" stroke-width="2"></path>
                    <path d="M0.838,0.705 L0.497,0.114 L130.052,0.114 L64.933,112.903 L0.155,0.705 L0.838,0.705 Z" id="Shape" stroke-width="2"></path>
                    <path d="M695.162,0.705 L695.845,0.705 L631.067,112.903 L565.948,0.114 L695.503,0.114 L695.162,0.705 Z" id="Shape" stroke-width="2"></path>
                    <path d="M348,602.007 L347.659,602.599 L282.881,490.401 L413.119,490.401 L348.341,602.599 L348,602.007 Z" id="Shape" stroke-width="2"></path>
                    <path d="M348,37.565 L304.845,112.312 L240.067,0.114 L455.933,0.114 L391.155,112.312 L348,37.565 Z" id="Shape" stroke-width="2"></path>
                    <path d="M489.659,282.927 L446.504,208.18 L576.059,208.18 L468.127,395.124 L403.349,282.927 L489.659,282.927 Z" id="Shape" stroke-width="2"></path>
                    <path d="M206.341,282.927 L292.651,282.927 L227.873,395.124 L119.941,208.18 L249.496,208.18 L206.341,282.927 Z" id="Shape" stroke-width="2"></path>
                    <path d="M87.518,50.75 L88.207,50.754 L59.049,0.878 L44.607,25.581 L44.266,26.173 L30.094,51.031 L87.866,51.345 L87.518,50.75 Z" id="Shape" stroke-width="2"></path>
                    <path d="M608.482,50.75 L608.134,51.345 L665.906,51.031 L651.734,26.173 L651.393,25.581 L636.951,0.878 L607.793,50.754 L608.482,50.75 Z" id="Shape" stroke-width="2"></path>
                    <path d="M348,501.918 L347.659,501.319 L319.044,551.509 L347.659,551.664 L348.341,551.664 L376.956,551.509 L348.341,501.319 L348,501.918 Z" id="Shape" stroke-width="2"></path>
                    <path d="M281.912,50.754 L339.684,50.44 L325.512,25.581 L311.07,0.878 L281.912,50.754 Z" id="Shape" stroke-width="2"></path>
                    <path d="M250.806,333.566 L221.648,283.691 L207.207,308.394 L193.034,333.252 L250.806,333.566 Z" id="Shape" stroke-width="2"></path>
                    <path d="M511.282,219.098 L482.668,269.287 L511.282,269.443 L539.896,269.287 L511.282,219.098 Z" id="Shape" stroke-width="2"></path>
                    <path d="M414.088,50.754 L356.316,50.44 L370.488,25.581 L384.93,0.878 L414.088,50.754 Z" id="Shape" stroke-width="2"></path>
                    <path d="M184.718,219.098 L213.332,269.287 L184.718,269.443 L156.104,269.287 L184.718,219.098 Z" id="Shape" stroke-width="2"></path>
                    <path d="M445.194,333.566 L474.352,283.691 L488.794,308.394 L502.966,333.252 L445.194,333.566 Z" id="Shape" stroke-width="2"></path>
                    <path d="M185.06,1.371 L173.713,21.023 L161.642,41.932 L137.498,0.114 L161.642,0.114 L208.477,0.114 L232.621,0.114 L208.477,41.932 L196.406,21.023 L185.06,1.371 Z" id="Shape" stroke-width="2"></path>
                    <path d="M256.466,442.134 L279.158,442.134 L303.301,442.134 L279.158,483.952 L267.086,463.043 L243.668,422.482 L231.596,401.573 L279.883,401.573 L267.812,422.482 L256.466,442.134 Z" id="Shape" stroke-width="2"></path>
                    <path d="M602.475,159.913 L591.129,140.261 L579.057,119.352 L627.344,119.352 L615.272,140.261 L591.854,180.822 L579.783,201.731 L555.639,159.913 L579.783,159.913 L602.475,159.913 Z" id="Shape" stroke-width="2"></path>
                    <path d="M510.94,1.371 L522.287,21.023 L534.358,41.932 L558.502,0.114 L534.358,0.114 L487.523,0.114 L463.379,0.114 L487.523,41.932 L499.594,21.023 L510.94,1.371 Z" id="Shape" stroke-width="2"></path>
                    <path d="M93.525,159.913 L104.871,140.261 L116.943,119.352 L68.656,119.352 L80.728,140.261 L104.146,180.822 L116.217,201.731 L140.361,159.913 L116.217,159.913 L93.525,159.913 Z" id="Shape" stroke-width="2"></path>
                    <path d="M439.534,442.134 L416.842,442.134 L392.699,442.134 L416.842,483.952 L428.914,463.043 L452.332,422.482 L464.404,401.573 L416.117,401.573 L428.188,422.482 L439.534,442.134 Z" id="Shape" stroke-width="2"></path>
                    <path d="M275.57,159.322 L276.253,159.322 L264.906,139.67 L252.835,118.761 L301.122,118.761 L289.05,139.67 L265.291,180.822 L253.219,201.731 L229.076,159.913 L253.219,159.913 L275.911,159.913 L275.57,159.322 Z" id="Shape" stroke-width="2"></path>
                    <path d="M420.43,159.322 L420.089,159.913 L442.781,159.913 L466.924,159.913 L442.781,201.731 L430.709,180.822 L406.95,139.67 L394.878,118.761 L443.165,118.761 L431.094,139.67 L419.747,159.322 L420.43,159.322 Z" id="Shape" stroke-width="2"></path>
                    <path d="M348,284.775 L347.659,284.183 L336.312,303.835 L324.241,324.744 L300.097,282.927 L324.241,282.927 L371.759,282.927 L395.903,282.927 L371.759,324.744 L359.688,303.835 L348.341,284.183 L348,284.775 Z" id="Shape" stroke-width="2"></path>
                    <path d="M161.642,41.303 L185.06,41.303 L173.351,21.023 L161.642,0.742 L149.933,21.023 L138.224,41.303 L161.642,41.303 Z" id="Shape" stroke-width="1.9535"></path>
                    <path d="M302.757,442.448 L291.048,422.168 L279.339,442.448 L267.63,462.729 L291.048,462.729 L314.466,462.729 L302.757,442.448 Z" id="Shape" stroke-width="1.9535"></path>
                    <path d="M579.601,119.666 L567.892,139.947 L591.31,139.947 L614.728,139.947 L603.019,119.666 L591.31,99.386 L579.601,119.666 Z" id="Shape" stroke-width="1.9535"></path>
                    <path d="M534.358,41.303 L510.94,41.303 L522.649,21.023 L534.358,0.742 L546.067,21.023 L557.776,41.303 L534.358,41.303 Z" id="Shape" stroke-width="1.9535"></path>
                    <path d="M116.399,119.666 L128.108,139.947 L104.69,139.947 L81.272,139.947 L92.981,119.666 L104.69,99.386 L116.399,119.666 Z" id="Shape" stroke-width="1.9535"></path>
                    <path d="M393.243,442.448 L404.952,422.168 L416.661,442.448 L428.37,462.729 L404.952,462.729 L381.534,462.729 L393.243,442.448 Z" id="Shape" stroke-width="1.9535"></path>
                    <path d="M253.379,119.075 L241.67,139.356 L265.088,139.356 L288.506,139.356 L276.797,119.075 L265.088,98.795 L253.379,119.075 Z" id="Shape" stroke-width="1.9535"></path>
                    <path d="M324.241,324.116 L347.659,324.116 L335.95,303.835 L324.241,283.555 L312.532,303.835 L300.823,324.116 L324.241,324.116 Z" id="Shape" stroke-width="1.9535"></path>
                    <path d="M466.38,160.227 L454.671,139.947 L442.962,160.227 L431.253,180.508 L454.671,180.508 L478.089,180.508 L466.38,160.227 Z" id="Shape" stroke-width="1.9535"></path>
                    <path d="M442.621,119.075 L454.33,139.356 L430.912,139.356 L407.494,139.356 L419.203,119.075 L430.912,98.795 L442.621,119.075 Z" id="Shape" stroke-width="1.9535"></path>
                    <path d="M229.62,160.227 L241.329,139.947 L253.038,160.227 L264.747,180.508 L241.329,180.508 L217.911,180.508 L229.62,160.227 Z" id="Shape" stroke-width="1.9535"></path>
                    <path d="M371.759,324.116 L348.341,324.116 L360.05,303.835 L371.759,283.555 L383.468,303.835 L395.177,324.116 L371.759,324.116 Z" id="Shape" stroke-width="1.9535"></path>
                    <path d="M208.477,41.303 L185.06,41.303 L196.768,21.023 L208.477,0.742 L220.186,21.023 L231.895,41.303 L208.477,41.303 Z" id="Shape" stroke-width="1.9535"></path>
                    <path d="M279.339,401.888 L291.048,422.168 L267.63,422.168 L244.212,422.168 L255.921,401.888 L267.63,381.607 L279.339,401.888 Z" id="Shape" stroke-width="1.9535"></path>
                    <path d="M556.183,160.227 L567.892,139.947 L579.601,160.227 L591.31,180.508 L567.892,180.508 L544.474,180.508 L556.183,160.227 Z" id="Shape" stroke-width="1.9535"></path>
                    <path d="M487.523,41.303 L510.94,41.303 L499.232,21.023 L487.523,0.742 L475.814,21.023 L464.105,41.303 L487.523,41.303 Z" id="Shape" stroke-width="1.9535"></path>
                    <path d="M139.817,160.227 L128.108,139.947 L116.399,160.227 L104.69,180.508 L128.108,180.508 L151.526,180.508 L139.817,160.227 Z" id="Shape" stroke-width="1.9535"></path>
                    <path d="M416.661,401.888 L404.952,422.168 L428.37,422.168 L451.788,422.168 L440.079,401.888 L428.37,381.607 L416.661,401.888 Z" id="Shape" stroke-width="1.9535"></path>
                    <path d="M241.67,139.356 L242.012,139.947 L241.329,139.947 L241.67,139.356 Z" id="Shape" stroke-width="1.9535"></path>
                    <path d="M454.671,139.947 L453.989,139.947 L454.33,139.356 L454.671,139.947 Z" id="Shape" stroke-width="1.9535"></path>
                    <path d="M347.659,324.116 L348,323.524 L348.341,324.116 L347.659,324.116 Z" id="Shape" stroke-width="1.9535"></path>
                </g>
                <g transform="translate(330.000000, 257.000000)" sketch:type="MSShapeGroup">
                    <rect id="Rectangle-path" fill="#000000" x="93.428" y="49.797" width="1.144" height="35.196"></rect>
                    <g id="Shape">
                        <path d="M187.5,67.36 C187.5,67.36 145.639,99.135 94,99.135 C42.361,99.135 0.5,67.36 0.5,67.36 C0.5,67.36 42.361,35.585 94,35.585 C145.639,35.585 187.5,67.36 187.5,67.36 L187.5,67.36 Z" stroke="#000000" stroke-width="2.5858" stroke-linecap="round" stroke-linejoin="round"></path>
                        <path d="M113.027,89.671 C104.703,96.469 93.385,98.309 83.336,94.5 C73.287,90.69 66.034,81.809 64.309,71.201 C62.584,60.593 66.649,49.871 74.973,43.074 C83.297,36.276 94.615,34.435 104.664,38.245 C114.713,42.055 121.966,50.936 123.691,61.544 C125.416,72.151 121.351,82.873 113.027,89.671 L113.027,89.671 Z M108.845,63.958 C107.983,58.654 104.356,54.213 99.331,52.309 C94.307,50.404 88.648,51.324 84.486,54.723 C80.324,58.122 78.292,63.483 79.154,68.787 C80.016,74.091 83.643,78.531 88.668,80.436 C93.692,82.341 99.351,81.42 103.513,78.022 C107.675,74.622 109.708,69.261 108.845,63.958 L108.845,63.958 Z" fill="#000000"></path>
                        <g transform="translate(29.000000, 0.000000)" fill="#000000">
                            <path d="M64.951,49.734 C64.967,48.866 64.658,12.917 64.661,11.534 L65.069,11.534 C64.663,59.215 64.951,28.48 64.919,49.734 C64.483,46.768 64.762,12.179 64.758,11.533 L64.972,11.533 C64.982,12.18 65.329,46.801 64.951,49.734 L64.951,49.734 Z"></path>
                            <path d="M75.918,53.354 C78.728,49.634 78.784,49.015 83.638,42.623 C84.857,41.01 97.169,23.602 98.136,22.279 L98.466,22.518 C98.264,22.793 76.891,51.966 75.892,53.334 C77.575,50.123 96.317,24.984 98.215,22.334 L98.388,22.46 C97.934,23.107 77.289,51.896 75.918,53.354 L75.918,53.354 Z"></path>
                            <path d="M82.663,62.727 C83.122,62.587 118.078,50.914 118.904,50.648 L119.03,51.036 C118.384,51.242 88.792,60.715 82.653,62.698 C85.427,61.328 113.934,52.403 118.935,50.74 L119.001,50.944 C118.354,51.164 85.538,62.188 82.663,62.727 L82.663,62.727 Z"></path>
                            <path d="M82.61,74.275 C85.295,75.203 118.384,85.593 119.03,85.805 L118.904,86.193 C87.885,75.789 96.743,78.86 82.62,74.246 C85.715,74.772 108.488,82.562 119,85.897 L118.934,86.101 C118.289,85.901 84.697,75.265 82.61,74.275 L82.61,74.275 Z"></path>
                            <path d="M75.78,83.588 C77.493,86.04 97.998,113.672 98.467,114.322 L98.137,114.562 C94.394,109.307 81.779,91.829 75.805,83.569 C78.279,86.105 96.94,112.414 98.389,114.379 L98.216,114.505 C97.724,113.848 76.918,85.668 75.78,83.588 L75.78,83.588 Z"></path>
                            <path d="M64.78,87.106 C64.762,88.057 65.073,123.851 65.07,125.305 L64.662,125.305 C64.993,86.454 64.782,106.026 64.812,87.106 C65.305,90.454 64.882,111.683 64.973,125.306 L64.759,125.306 C64.744,124.245 64.475,89.481 64.78,87.106 L64.78,87.106 Z"></path>
                            <path d="M53.814,83.487 C52.1,85.756 31.896,114.149 31.595,114.561 L31.265,114.321 C35.091,109.126 53.369,84.15 53.84,83.505 C52.407,86.239 36.186,107.983 31.517,114.505 L31.343,114.379 C31.797,113.733 51.887,85.523 53.814,83.487 L53.814,83.487 Z"></path>
                            <path d="M47.068,74.113 C42.612,75.469 42.135,75.961 34.515,78.256 C30.508,79.475 29.554,79.945 27.954,80.539 C25.801,81.276 24.212,81.518 18.771,83.491 C12.432,85.79 12.632,85.612 10.827,86.193 L10.701,85.805 C47.052,74.348 29.638,79.774 47.078,74.143 C44.32,75.507 19.562,83.186 10.797,86.101 L10.731,85.897 C11.377,85.677 44.848,74.529 47.068,74.113 L47.068,74.113 Z"></path>
                            <path d="M47.121,62.565 C43.811,61.421 11.346,51.247 10.701,51.035 L10.827,50.647 C16.946,52.692 43.47,61.404 47.111,62.594 C44.02,62.069 21.021,54.211 10.73,50.943 L10.796,50.739 C11.443,50.939 45.063,61.59 47.121,62.565 L47.121,62.565 Z"></path>
                            <path d="M53.952,53.253 C51.353,49.532 50.608,49.038 46.133,42.595 C45.05,41.044 31.938,23.451 31.265,22.519 L31.595,22.28 C38.463,31.889 50.148,48.043 53.926,53.273 C51.777,51.07 36.829,29.905 31.342,22.463 L31.516,22.337 C31.998,22.981 52.567,50.719 53.952,53.253 L53.952,53.253 Z"></path>
                            <path d="M64.79,9.5 C64.259,7.045 64.238,3.143 64.79,0.609 C65.337,3.122 65.328,7.019 64.79,9.5 L64.79,9.5 Z"></path>
                            <path d="M30.172,20.797 C28.287,19.113 25.985,15.969 24.946,13.604 C26.881,15.329 29.159,18.498 30.172,20.797 L30.172,20.797 Z"></path>
                            <path d="M8.806,50.284 C6.292,50.03 2.58,48.839 0.35,47.537 C2.937,47.796 6.643,49.025 8.806,50.284 L8.806,50.284 Z"></path>
                            <path d="M8.853,86.699 C6.647,87.984 2.94,89.192 0.397,89.447 C2.636,88.138 6.358,86.951 8.853,86.699 L8.853,86.699 Z"></path>
                            <path d="M30.294,116.132 C29.268,118.46 26.984,121.617 25.067,123.325 C26.1,120.977 28.396,117.827 30.294,116.132 L30.294,116.132 Z"></path>
                            <path d="M64.941,127.341 C65.472,129.796 65.493,133.698 64.941,136.232 C64.395,133.723 64.402,129.827 64.941,127.341 L64.941,127.341 Z"></path>
                            <path d="M99.559,116.043 C101.453,117.737 103.75,120.881 104.785,123.236 C102.866,121.525 100.582,118.366 99.559,116.043 L99.559,116.043 Z"></path>
                            <path d="M120.925,86.556 C123.416,86.808 127.136,87.993 129.381,89.304 C126.84,89.049 123.133,87.842 120.925,86.556 L120.925,86.556 Z"></path>
                            <path d="M120.879,50.141 C123.06,48.871 126.76,47.651 129.335,47.394 C127.116,48.689 123.406,49.885 120.879,50.141 L120.879,50.141 Z"></path>
                            <path d="M99.437,20.708 C100.445,18.422 102.719,15.249 104.663,13.516 C103.632,15.863 101.335,19.013 99.437,20.708 L99.437,20.708 Z"></path>
                            <path d="M64.941,9.5 C64.402,7.014 64.395,3.117 64.941,0.609 C65.494,3.147 65.472,7.049 64.941,9.5 L64.941,9.5 Z"></path>
                            <path d="M30.294,20.709 C28.398,19.015 26.1,15.865 25.067,13.516 C26.982,15.222 29.267,18.379 30.294,20.709 L30.294,20.709 Z"></path>
                            <path d="M8.853,50.141 C6.324,49.884 2.612,48.688 0.397,47.394 C2.972,47.652 6.672,48.871 8.853,50.141 L8.853,50.141 Z"></path>
                            <path d="M8.806,86.556 C6.605,87.838 2.898,89.048 0.35,89.304 C2.589,87.995 6.312,86.808 8.806,86.556 L8.806,86.556 Z"></path>
                            <path d="M30.172,116.043 C29.149,118.365 26.866,121.524 24.946,123.236 C25.982,120.879 28.28,117.735 30.172,116.043 L30.172,116.043 Z"></path>
                            <path d="M64.79,127.341 C65.328,129.821 65.337,133.719 64.79,136.232 C64.239,133.698 64.259,129.796 64.79,127.341 L64.79,127.341 Z"></path>
                            <path d="M99.437,116.132 C101.329,117.823 103.629,120.971 104.663,123.325 C102.749,121.618 100.464,118.461 99.437,116.132 L99.437,116.132 Z"></path>
                            <path d="M120.879,86.699 C123.37,86.951 127.09,88.136 129.335,89.447 C126.751,89.188 123.046,87.961 120.879,86.699 L120.879,86.699 Z"></path>
                            <path d="M120.925,50.284 C123.089,49.023 126.795,47.795 129.381,47.537 C127.146,48.841 123.436,50.031 120.925,50.284 L120.925,50.284 Z"></path>
                            <path d="M99.559,20.797 C100.571,18.5 102.849,15.33 104.785,13.604 C103.744,15.974 101.441,19.116 99.559,20.797 L99.559,20.797 Z"></path>
                            <path d="M48.388,18.181 L46.65,13.675 L47.424,13.424 L48.666,18.09 L46.658,13.698 L47.431,13.448 L48.388,18.181 Z"></path>
                            <path d="M81.065,18.09 L82.307,13.424 L83.081,13.675 L81.344,18.181 L82.3,13.448 L83.073,13.698 L81.065,18.09 Z"></path>
                            <path d="M107.555,37.224 L111.303,34.18 L111.781,34.837 L107.727,37.461 L111.283,34.194 L111.76,34.852 L107.555,37.224 Z"></path>
                            <path d="M117.739,68.274 L122.56,68.014 L122.56,68.827 L117.739,68.567 L122.535,68.014 L122.535,68.827 L117.739,68.274 Z"></path>
                            <path d="M107.727,99.38 L111.781,102.003 L111.303,102.661 L107.555,99.617 L111.76,101.989 L111.283,102.646 L107.727,99.38 Z"></path>
                            <path d="M81.344,118.661 L83.081,123.165 L82.307,123.417 L81.065,118.751 L83.073,123.142 L82.3,123.393 L81.344,118.661 Z"></path>
                            <path d="M48.666,118.751 L47.424,123.417 L46.65,123.165 L48.388,118.661 L47.431,123.393 L46.658,123.142 L48.666,118.751 Z"></path>
                            <path d="M22.177,99.617 L18.429,102.661 L17.951,102.003 L22.005,99.38 L18.449,102.646 L17.971,101.989 L22.177,99.617 Z"></path>
                            <path d="M11.992,68.567 L7.171,68.827 L7.171,68.014 L11.992,68.274 L7.196,68.827 L7.196,68.014 L11.992,68.567 Z"></path>
                            <path d="M22.005,37.461 L17.951,34.837 L18.429,34.18 L22.177,37.224 L17.971,34.852 L18.449,34.194 L22.005,37.461 Z"></path>
                            <path d="M49.646,21.254 C51.072,23.993 52.542,28.575 52.961,31.728 C51.497,28.921 50.057,24.326 49.646,21.254 L49.646,21.254 Z"></path>
                            <path d="M24.829,39.208 C27.583,40.58 31.475,43.429 33.667,45.732 C30.848,44.33 26.977,41.461 24.829,39.208 L24.829,39.208 Z"></path>
                            <path d="M15.305,68.32 C18.36,67.809 23.176,67.831 26.29,68.404 C23.162,68.93 18.341,68.876 15.305,68.32 L15.305,68.32 Z"></path>
                            <path d="M24.711,97.471 C26.882,95.261 30.791,92.449 33.647,91.081 C31.455,93.317 27.536,96.116 24.711,97.471 L24.711,97.471 Z"></path>
                            <path d="M49.455,115.524 C49.913,112.458 51.421,107.887 52.929,105.103 C52.466,108.228 50.931,112.791 49.455,115.524 L49.455,115.524 Z"></path>
                            <path d="M80.085,115.587 C78.661,112.854 77.188,108.259 76.77,105.114 C78.234,107.92 79.675,112.515 80.085,115.587 L80.085,115.587 Z"></path>
                            <path d="M104.902,97.633 C102.16,96.267 98.265,93.421 96.065,91.108 C98.896,92.516 102.769,95.393 104.902,97.633 L104.902,97.633 Z"></path>
                            <path d="M114.427,68.521 C111.365,69.033 106.549,69.009 103.442,68.437 C106.549,67.914 111.365,67.961 114.427,68.521 L114.427,68.521 Z"></path>
                            <path d="M105.02,39.37 C102.845,41.584 98.933,44.395 96.084,45.759 C98.307,43.494 102.232,40.708 105.02,39.37 L105.02,39.37 Z"></path>
                            <path d="M80.276,21.316 C79.813,24.412 78.294,28.983 76.802,31.737 C77.269,28.591 78.815,24.021 80.276,21.316 L80.276,21.316 Z"></path>
                            <path d="M80.085,21.254 C79.674,24.326 78.234,28.921 76.77,31.728 C77.189,28.575 78.659,23.992 80.085,21.254 L80.085,21.254 Z"></path>
                            <path d="M49.455,21.316 C50.929,24.046 52.465,28.611 52.929,31.737 C51.425,28.959 49.914,24.388 49.455,21.316 L49.455,21.316 Z"></path>
                            <path d="M24.711,39.37 C27.5,40.708 31.425,43.495 33.647,45.759 C30.801,44.397 26.889,41.587 24.711,39.37 L24.711,39.37 Z"></path>
                            <path d="M15.305,68.521 C18.364,67.961 23.18,67.914 26.29,68.437 C23.189,69.008 18.374,69.034 15.305,68.521 L15.305,68.521 Z"></path>
                            <path d="M24.829,97.633 C26.955,95.402 30.826,92.521 33.667,91.108 C31.48,93.407 27.586,96.259 24.829,97.633 L24.829,97.633 Z"></path>
                            <path d="M49.646,115.587 C50.057,112.517 51.497,107.921 52.961,105.114 C52.543,108.258 51.075,112.843 49.646,115.587 L49.646,115.587 Z"></path>
                            <path d="M80.276,115.525 C78.797,112.787 77.266,108.222 76.802,105.103 C78.31,107.887 79.818,112.459 80.276,115.525 L80.276,115.525 Z"></path>
                            <path d="M105.02,97.47 C102.253,96.142 98.315,93.356 96.084,91.081 C98.952,92.454 102.852,95.265 105.02,97.47 L105.02,97.47 Z"></path>
                            <path d="M114.427,68.32 C111.368,68.88 106.55,68.927 103.442,68.403 C106.538,67.833 111.356,67.806 114.427,68.32 L114.427,68.32 Z"></path>
                            <path d="M104.902,39.208 C102.761,41.455 98.893,44.325 96.064,45.732 C98.239,43.445 102.128,40.59 104.902,39.208 L104.902,39.208 Z"></path>
                            <path d="M58.912,50.482 C54.735,43.791 54.761,43.839 54.209,42.935 L59.286,51.251 L58.507,41.538 C58.592,42.594 58.576,42.417 59.138,50.408 C54.727,43.761 54.76,43.814 54.228,42.994 L58.526,41.598 C58.582,42.648 58.577,42.616 58.912,50.482 L58.912,50.482 Z"></path>
                            <path d="M70.593,50.408 C71.159,42.372 71.138,42.611 71.224,41.538 L70.445,51.251 L75.523,42.935 C74.963,43.853 74.982,43.814 70.82,50.482 C71.161,42.468 71.155,42.559 71.206,41.598 L75.504,42.994 C74.925,43.884 74.882,43.943 70.593,50.408 L70.593,50.408 Z"></path>
                            <path d="M80.086,57.215 C85.12,51.221 85.115,51.222 85.811,50.409 L79.471,57.809 L88.468,54.066 C87.478,54.478 87.619,54.417 80.227,57.408 C85.206,51.133 85.16,51.188 85.76,50.446 L88.417,54.103 C87.416,54.487 87.588,54.418 80.086,57.215 L80.086,57.215 Z"></path>
                            <path d="M83.766,68.301 C91.458,66.388 91.367,66.406 92.398,66.161 L82.919,68.42 L92.398,70.681 C91.336,70.427 91.399,70.439 83.767,68.539 C91.403,66.414 91.293,66.44 92.336,66.161 L92.336,70.681 C91.284,70.399 91.336,70.409 83.766,68.301 L83.766,68.301 Z"></path>
                            <path d="M80.227,79.433 C87.563,82.401 87.502,82.373 88.468,82.774 L79.472,79.032 L85.812,86.431 C85.148,85.656 85.191,85.703 80.087,79.625 C87.509,82.391 87.464,82.371 88.418,82.737 L85.761,86.394 C85.122,85.607 85.177,85.671 80.227,79.433 L80.227,79.433 Z"></path>
                            <path d="M70.82,86.359 C74.96,92.991 74.974,93.007 75.523,93.907 L70.445,85.591 L71.224,95.304 C71.139,94.242 71.152,94.373 70.593,86.433 C74.971,93.032 74.955,93.004 75.503,93.848 L71.205,95.244 C71.15,94.2 71.155,94.249 70.82,86.359 L70.82,86.359 Z"></path>
                            <path d="M59.139,86.432 C58.573,94.473 58.594,94.235 58.508,95.303 L59.287,85.59 L54.21,93.906 C54.746,93.027 54.727,93.064 58.913,86.358 C58.578,94.244 58.583,94.198 58.527,95.243 L54.229,93.847 C54.772,93.009 54.741,93.061 59.139,86.432 L59.139,86.432 Z"></path>
                            <path d="M49.645,79.626 C44.543,85.703 44.562,85.683 43.921,86.432 L50.259,79.033 L41.263,82.775 C42.247,82.366 42.227,82.378 49.504,79.434 C44.546,85.681 44.605,85.611 43.97,86.395 L41.313,82.738 C42.263,82.374 42.244,82.383 49.645,79.626 L49.645,79.626 Z"></path>
                            <path d="M45.965,68.539 C38.34,70.437 38.395,70.427 37.334,70.681 L46.813,68.42 L37.334,66.161 C38.366,66.407 38.273,66.387 45.966,68.301 C38.38,70.414 38.442,70.4 37.397,70.681 L37.397,66.161 C38.443,66.441 38.303,66.406 45.965,68.539 L45.965,68.539 Z"></path>
                            <path d="M49.505,57.407 C42.157,54.434 42.249,54.475 41.264,54.065 L50.261,57.808 L43.921,50.408 C44.615,51.218 44.656,51.271 49.645,57.214 C48.799,56.899 42.153,54.423 41.315,54.102 L43.972,50.445 C44.567,51.181 44.5,51.101 49.505,57.407 L49.505,57.407 Z"></path>
                            <path d="M53.715,33.912 L56.309,36.233 L53.628,33.834 L52.87,37.351 L53.603,33.948 L56.287,36.166 L52.848,37.283 L53.715,33.912 Z"></path>
                            <path d="M76.128,33.948 L76.862,37.351 L76.103,33.834 L73.423,36.233 L76.017,33.912 L76.884,37.283 L73.445,36.166 L76.128,33.948 Z"></path>
                            <path d="M94.239,47.151 L92.833,50.335 L94.286,47.045 L90.707,47.41 L94.17,47.057 L92.89,50.294 L90.765,47.369 L94.239,47.151 Z"></path>
                            <path d="M101.131,68.479 L98.121,70.229 L101.231,68.42 L98.121,66.612 L101.131,68.362 L98.192,70.229 L98.192,66.612 L101.131,68.479 Z"></path>
                            <path d="M94.17,89.784 L90.707,89.43 L94.286,89.796 L92.833,86.505 L94.239,89.689 L90.765,89.472 L92.89,86.547 L94.17,89.784 Z"></path>
                            <path d="M76.017,102.929 L73.423,100.606 L76.103,103.006 L76.862,99.489 L76.128,102.892 L73.445,100.674 L76.884,99.557 L76.017,102.929 Z"></path>
                            <path d="M53.603,102.892 L52.87,99.489 L53.628,103.006 L56.309,100.606 L53.715,102.929 L52.848,99.557 L56.287,100.674 L53.603,102.892 Z"></path>
                            <path d="M35.492,89.689 L36.899,86.505 L35.446,89.796 L39.024,89.43 L35.561,89.784 L36.841,86.547 L38.966,89.472 L35.492,89.689 Z"></path>
                            <path d="M28.6,68.362 L31.61,66.612 L28.5,68.42 L31.61,70.229 L28.6,68.479 L31.539,66.612 L31.539,70.229 L28.6,68.362 Z"></path>
                            <path d="M35.561,47.057 L39.024,47.41 L35.446,47.045 L36.899,50.336 L35.492,47.151 L38.966,47.369 L36.841,50.294 L35.561,47.057 Z"></path>
                            <path d="M61.636,47.849 C61.385,45.894 61.022,45.633 60.61,42.25 C60.362,40.304 60.117,39.972 59.961,39.327 C59.75,38.322 59.942,37.793 59.198,34.877 C59.13,34.475 59.184,34.125 58.933,33.815 C58.659,32.601 58.275,29.805 58.167,29.004 C58.074,27.847 57.503,26.585 57.568,25.309 C56.949,21.112 56.372,18.856 55.771,15.475 C56.501,16.789 61.763,47.17 61.636,47.849 L61.636,47.849 Z"></path>
                            <path d="M50.161,53.677 C48.779,52.21 48.431,52.312 46.04,49.749 C44.659,48.281 44.443,48.319 43.798,47.766 C43.005,47.05 42.883,46.541 40.565,44.615 C40.274,44.33 40.112,44.015 39.726,43.911 C38.838,43.132 36.901,41.122 36.279,40.469 C35.524,39.587 34.32,38.902 33.622,37.831 C30.993,35.148 27.033,31.554 26.388,30.931 C27.337,31.374 34.357,38.219 35.003,38.845 C36.146,40.442 38.713,42.254 41.393,45.033 C44.829,48.526 49.57,52.422 50.161,53.677 L50.161,53.677 Z"></path>
                            <path d="M44.303,65.135 C42.347,64.765 42.001,65.037 38.661,64.38 C35.99,63.874 37.32,64.395 34.091,63.792 C33.112,63.564 32.146,63.506 31.213,63.446 C30.81,63.386 30.493,63.227 30.121,63.369 C29.04,63.269 26.33,62.797 25.655,62.674 C23.534,62.284 22.737,62.469 21.609,62.038 C17.116,61.274 15.395,61.224 11.702,60.708 C12.618,60.53 21.928,61.787 22.619,61.946 C24.041,62.15 23.818,62.317 25.668,62.505 C27.087,62.636 43.299,64.59 44.303,65.135 L44.303,65.135 Z"></path>
                            <path d="M46.3,77.849 C44.488,78.705 44.441,79.088 41.291,80.554 C39.506,81.396 39.357,81.678 38.712,82.074 C37.811,82.59 37.269,82.562 34.715,84.175 C34.355,84.363 34.004,84.421 33.787,84.755 C32.658,85.426 24.604,89.426 24.209,89.647 C22.016,90.787 19.206,92.428 17.322,93.43 C18.044,92.656 26.866,88.022 27.512,87.683 C28.6,87.337 29.484,86.786 30.438,86.226 C31.116,85.817 45.216,77.984 46.3,77.849 L46.3,77.849 Z"></path>
                            <path d="M55.388,86.961 C54.443,88.686 54.563,89.154 52.926,92.094 C51.962,93.851 52.005,94.194 51.733,94.84 C51.309,95.787 50.854,96.078 49.735,98.889 C49.554,99.254 49.304,99.505 49.325,99.903 C48.823,101.068 47.467,103.6 47.116,104.245 C46.511,105.236 46.231,106.593 45.429,107.587 C43.2,111.837 43.239,112.202 41.103,116.599 C41.204,115.763 45.236,107.294 45.654,106.598 C46.308,105.263 46.347,105.669 47.263,103.559 C47.718,102.512 54.56,87.731 55.388,86.961 L55.388,86.961 Z"></path>
                            <path d="M68.095,88.992 C68.351,90.992 68.701,91.148 69.121,94.591 C69.37,96.543 69.614,96.868 69.77,97.514 C69.98,98.516 69.795,99.087 70.534,101.964 C70.601,102.366 70.548,102.716 70.799,103.026 C71.057,104.179 71.437,106.873 71.564,107.837 C71.657,108.995 72.228,110.256 72.163,111.533 C72.961,116.947 73.087,116.445 73.96,121.366 C73.507,120.553 71.826,111.308 71.764,110.601 C71.477,108.952 71.849,109.612 71.1,106.403 C70.908,105.38 67.906,90.009 68.095,88.992 L68.095,88.992 Z"></path>
                            <path d="M79.57,83.164 C80.937,84.615 81.32,84.549 83.691,87.091 C85.052,88.538 85.288,88.526 85.933,89.074 C86.68,89.749 86.881,90.332 89.166,92.225 C89.457,92.51 89.619,92.825 90.005,92.929 C90.901,93.715 92.836,95.725 93.452,96.372 C94.207,97.253 95.411,97.939 96.109,99.009 C99.715,102.688 99.607,102.314 103.343,105.908 C102.573,105.551 95.768,99.098 95.238,98.49 C94.172,97.453 94.543,97.518 92.845,96.021 C91.811,95.105 80.045,84.171 79.57,83.164 L79.57,83.164 Z"></path>
                            <path d="M85.428,71.705 C87.344,72.068 87.749,71.813 91.07,72.46 C93.782,72.976 92.609,72.465 95.323,72.99 C96.26,73.163 96.367,73.257 98.518,73.396 C98.921,73.456 99.238,73.615 99.61,73.472 C100.783,73.581 103.493,74.061 104.422,74.231 C105.551,74.5 106.928,74.347 108.122,74.804 C114.175,75.818 112.931,75.42 118.029,76.133 C116.603,76.41 86.075,72.057 85.428,71.705 L85.428,71.705 Z"></path>
                            <path d="M83.432,58.991 C85.254,58.131 85.303,57.744 88.441,56.286 C90.994,55.083 89.627,55.415 92.193,54.214 C93.023,53.818 93.215,53.806 95.016,52.664 C95.377,52.475 95.727,52.418 95.944,52.084 C96.958,51.48 99.461,50.264 100.284,49.869 C101.356,49.423 102.379,48.49 103.613,48.158 C107.439,46.255 109.516,44.952 112.41,43.41 C111.847,44.016 103.606,48.504 102.851,48.826 C101.545,49.516 101.721,49.18 99.763,50.339 C96.053,52.519 94.661,53.174 94.016,53.495 C90.973,55.017 84.735,58.828 83.432,58.991 L83.432,58.991 Z"></path>
                            <path d="M74.344,49.879 C75.29,48.154 75.169,47.686 76.806,44.746 C77.77,42.988 77.727,42.646 77.999,42 C78.424,41.052 78.871,40.772 79.997,37.951 C80.178,37.586 80.428,37.334 80.407,36.936 C80.896,35.799 82.218,33.329 82.616,32.594 C83.221,31.603 83.501,30.246 84.303,29.252 C86.114,25.795 87.262,23.043 88.629,20.24 C88.525,21.084 86.802,24.512 86.422,25.314 C85.6,26.977 85.071,28.585 84.078,30.241 C76.096,46.526 75.158,49.11 74.344,49.879 L74.344,49.879 Z"></path>
                            <path d="M68.115,47.853 C68.546,45.952 68.308,45.517 69.071,42.242 C69.505,40.33 69.39,39.918 69.464,39.273 C69.603,38.308 69.972,37.796 70.272,34.831 C70.346,34.43 70.517,34.12 70.387,33.742 C70.528,32.644 71.098,29.956 71.241,29.303 C71.709,27.198 71.548,26.398 72.021,25.283 C73.01,20.536 72.833,20.383 73.704,15.429 C73.877,16.523 72.112,26.107 71.95,26.995 C71.302,28.741 68.866,46.604 68.115,47.853 L68.115,47.853 Z"></path>
                            <path d="M55.405,49.87 C54.611,48.019 54.226,47.956 52.881,44.768 C52.107,42.96 51.819,42.782 51.454,42.136 C50.978,41.235 51,40.638 49.497,38.067 C49.321,37.699 49.276,37.348 48.95,37.118 C48.909,37.043 44.659,27.884 43.126,24.754 C42.179,22.867 43.114,24.927 40.869,20.353 C41.5,20.982 45.668,29.392 45.94,30.1 C54.348,47.519 55.308,48.705 55.405,49.87 L55.405,49.87 Z"></path>
                            <path d="M46.309,58.974 C44.634,57.977 44.161,58.075 41.267,56.331 C39.578,55.325 39.211,55.333 38.565,55.041 C37.656,54.594 37.328,54.101 34.591,52.899 C34.233,52.705 33.99,52.446 33.591,52.453 C32.504,51.937 30.362,50.695 29.33,50.091 C28.361,49.451 27.015,49.123 26.051,48.285 C21.289,45.576 21.511,45.933 17.199,43.639 C18.544,43.852 45.739,58.323 46.309,58.974 L46.309,58.974 Z"></path>
                            <path d="M44.3,71.685 C42.359,71.863 42.018,72.224 38.668,72.51 C36.698,72.689 36.37,72.925 35.724,73.054 C34.7,73.231 34.2,73.017 31.25,73.658 C30.846,73.712 30.498,73.645 30.179,73.884 C28.961,74.114 26.115,74.402 25.343,74.477 C24.183,74.529 22.902,75.054 21.629,74.943 C17.206,75.433 14.829,75.956 11.738,76.388 C12.664,75.917 22.235,74.624 23.28,74.482 C25.254,74.567 42.772,71.345 44.3,71.685 L44.3,71.685 Z"></path>
                            <path d="M50.147,83.149 C48.63,84.479 48.685,84.868 46.076,87.127 C44.547,88.467 44.609,88.652 44.013,89.298 C43.298,90.035 42.747,90.177 40.748,92.417 C40.453,92.698 40.132,92.848 40.015,93.23 C39.353,93.932 37.361,95.745 36.715,96.319 C35.093,97.759 34.755,98.491 33.722,99.113 C29.725,102.76 30.002,102.768 26.569,106.096 C27.251,104.753 49.488,83.437 50.147,83.149 L50.147,83.149 Z"></path>
                            <path d="M61.616,88.988 C61.172,90.947 61.443,91.241 60.66,94.6 C60.05,97.285 60.599,96.147 59.979,98.831 C59.767,99.783 59.678,99.85 59.459,102.01 C59.385,102.411 59.214,102.721 59.344,103.098 C59.307,103.383 57.297,113.609 56.848,116.186 C56.847,116.191 56.603,118.135 56.028,121.411 C55.863,120.367 57.664,110.49 57.781,109.845 C58.504,107.898 60.84,90.276 61.616,88.988 L61.616,88.988 Z"></path>
                            <path d="M74.326,86.97 C75.121,88.821 75.504,88.883 76.851,92.072 C77.633,93.894 77.914,94.059 78.279,94.704 C78.757,95.609 78.722,96.179 80.236,98.773 C80.412,99.14 80.457,99.492 80.783,99.721 C81.256,100.59 82.396,103.118 82.701,103.814 C83.558,105.787 84.16,106.344 84.433,107.524 C86.346,111.761 87.475,113.639 88.864,116.485 C87.806,115.429 74.385,87.616 74.326,86.97 L74.326,86.97 Z"></path>
                            <path d="M83.423,77.867 C85.098,78.865 85.57,78.765 88.464,80.511 C90.165,81.526 90.52,81.505 91.166,81.801 C92.093,82.258 92.363,82.717 95.14,83.943 C95.498,84.137 95.741,84.395 96.14,84.389 C96.14,84.389 108.396,91.001 112.532,93.202 C111.027,92.963 83.829,78.33 83.423,77.867 L83.423,77.867 Z"></path>
                            <path d="M85.431,65.156 C87.386,64.977 87.688,64.62 91.064,64.331 C93.022,64.152 93.363,63.919 94.008,63.787 C94.975,63.621 95.603,63.813 98.482,63.183 C98.886,63.13 99.234,63.196 99.553,62.957 C100.478,62.782 103.141,62.485 104.389,62.363 C105.549,62.311 106.83,61.786 108.103,61.896 C113.938,61.251 112.778,61.18 117.995,60.451 C116.851,61.031 86.078,65.299 85.431,65.156 L85.431,65.156 Z"></path>
                            <path d="M79.584,53.691 C81.084,52.376 81.029,51.992 83.655,49.713 C85.184,48.376 85.123,48.188 85.718,47.542 C86.433,46.806 86.973,46.674 88.983,44.423 C89.278,44.142 89.599,43.991 89.716,43.61 C90.574,42.701 92.634,40.859 93.279,40.288 C94.187,39.564 94.915,38.385 96.01,37.727 C100.123,33.987 99.328,34.453 103.163,30.744 C102.783,31.492 96.106,38.056 95.46,38.579 C94.267,39.723 94.562,39.086 92.348,41.474 C90.929,42.87 90.17,43.767 88.534,45.236 C85.338,48.16 80.846,53.152 79.584,53.691 L79.584,53.691 Z"></path>
                        </g>
                    </g>
                </g>
                <g transform="translate(348.000000, 638.000000)" stroke="#000000" stroke-width="2" sketch:type="MSShapeGroup">
                    <circle id="Oval" stroke-linecap="round" stroke-linejoin="round" cx="76" cy="76.101" r="75.604"></circle>
                    <circle id="Oval" stroke-dasharray="12.1091,12.1091" cx="76" cy="76.101" r="50.121"></circle>
                </g>
                <g transform="translate(0.000000, 35.000000)" stroke="#000000" stroke-width="2" sketch:type="MSShapeGroup">
                    <circle id="Oval" stroke-linecap="round" stroke-linejoin="round" cx="76.155" cy="76.114" r="75.604"></circle>
                    <circle id="Oval" stroke-dasharray="12.1091,12.1091" cx="76.155" cy="76.114" r="50.121"></circle>
                </g>
                <g transform="translate(696.000000, 35.000000)" stroke="#000000" stroke-width="2" sketch:type="MSShapeGroup">
                    <circle id="Oval" stroke-linecap="round" stroke-linejoin="round" cx="75.845" cy="76.114" r="75.604"></circle>
                    <circle id="Oval" stroke-dasharray="12.1091,12.1091" cx="75.845" cy="76.114" r="50.121"></circle>
                </g>
                <g transform="translate(388.000000, 0.000000)" stroke="#000000" stroke-width="2" sketch:type="MSShapeGroup" stroke-linecap="round" stroke-linejoin="round">
                    <path d="M29.344,12.113 L31.02,9.209 L36,17.835 L31.024,17.835 L26.837,20.525 L26.364,10.577 L29.344,12.113 Z" id="Shape"></path>
                    <path d="M42.656,12.113 L45.636,10.577 L45.163,20.525 L40.976,17.835 L36,17.835 L40.98,9.209 L42.656,12.113 Z" id="Shape"></path>
                    <path d="M53.856,19.31 L57.193,19.629 L51.416,27.742 L49.349,23.215 L45.163,20.525 L54.015,15.961 L53.856,19.31 Z" id="Shape"></path>
                    <path d="M59.386,31.42 L62.021,33.492 L52.775,37.194 L53.483,32.269 L51.416,27.742 L61.331,28.689 L59.386,31.42 Z" id="Shape"></path>
                    <path d="M57.491,44.597 L58.588,47.766 L48.808,45.881 L52.067,42.12 L52.775,37.194 L60.604,43.351 L57.491,44.597 Z" id="Shape"></path>
                    <path d="M48.773,54.658 L47.983,57.917 L40.775,51.043 L45.549,49.641 L48.808,45.881 L52.066,55.293 L48.773,54.658 Z" id="Shape"></path>
                    <path d="M36,58.409 L33.573,60.722 L31.225,51.043 L36,52.445 L40.775,51.043 L38.427,60.722 L36,58.409 Z" id="Shape"></path>
                    <path d="M23.227,54.658 L19.934,55.293 L23.192,45.881 L26.451,49.641 L31.225,51.043 L24.017,57.917 L23.227,54.658 Z" id="Shape"></path>
                    <path d="M14.509,44.597 L11.396,43.351 L19.225,37.194 L19.933,42.12 L23.192,45.881 L13.412,47.766 L14.509,44.597 Z" id="Shape"></path>
                    <path d="M12.614,31.42 L10.669,28.689 L20.584,27.742 L18.517,32.269 L19.225,37.194 L9.979,33.492 L12.614,31.42 Z" id="Shape"></path>
                    <path d="M18.144,19.31 L17.985,15.961 L26.837,20.525 L22.651,23.215 L20.584,27.742 L14.807,19.629 L18.144,19.31 Z" id="Shape"></path>
                    <path d="M25.874,0.296 L30.104,7.622 L28.025,7.622 L26.276,8.746 L25.874,0.296 Z" id="Shape"></path>
                    <path d="M46.126,0.296 L45.724,8.746 L43.975,7.622 L41.896,7.622 L46.126,0.296 Z" id="Shape"></path>
                    <path d="M63.164,11.245 L58.256,18.136 L57.393,16.245 L55.644,15.121 L63.164,11.245 Z" id="Shape"></path>
                    <path d="M71.577,29.667 L63.723,32.811 L64.019,30.754 L63.155,28.863 L71.577,29.667 Z" id="Shape"></path>
                    <path d="M68.695,49.713 L60.388,48.112 L61.749,46.541 L62.045,44.484 L68.695,49.713 Z" id="Shape"></path>
                    <path d="M55.432,65.019 L49.309,59.181 L51.304,58.595 L52.665,57.025 L55.432,65.019 Z" id="Shape"></path>
                    <path d="M36,70.725 L34.005,62.504 L36,63.089 L37.994,62.504 L36,70.725 Z" id="Shape"></path>
                    <path d="M16.568,65.019 L19.335,57.025 L20.696,58.595 L22.691,59.181 L16.568,65.019 Z" id="Shape"></path>
                    <path d="M3.305,49.713 L9.955,44.484 L10.251,46.541 L11.612,48.112 L3.305,49.713 Z" id="Shape"></path>
                    <path d="M0.423,29.667 L8.845,28.863 L7.981,30.754 L8.277,32.811 L0.423,29.667 Z" id="Shape"></path>
                    <path d="M8.836,11.245 L16.356,15.121 L14.607,16.245 L13.744,18.136 L8.836,11.245 Z" id="Shape"></path>
                    <path d="M33.319,25.652 L36,21.009 L38.681,25.652 L43.446,23.195 L43.191,28.551 L48.529,29.061 L45.419,33.428 L49.633,36.742 L44.656,38.735 L46.409,43.802 L41.144,42.787 L39.88,47.998 L36,44.298 L32.12,47.998 L30.856,42.787 L25.591,43.802 L27.344,38.735 L22.367,36.742 L26.581,33.428 L23.471,29.061 L28.809,28.551 L28.554,23.195 L33.319,25.652 Z" id="Shape"></path>
                    <path d="M26.537,2.553 L26.999,2.553 L26.693,3.084 L26.148,2.803 L26.537,2.553 Z" id="Shape"></path>
                    <path d="M45.463,2.553 L45.852,2.803 L45.307,3.084 L45.001,2.553 L45.463,2.553 Z" id="Shape"></path>
                    <path d="M61.385,12.786 L61.577,13.206 L60.967,13.148 L60.996,12.536 L61.385,12.786 Z" id="Shape"></path>
                    <path d="M69.247,30.002 L69.182,30.459 L68.7,30.081 L69.055,29.582 L69.247,30.002 Z" id="Shape"></path>
                    <path d="M66.554,48.736 L66.251,49.085 L66.051,48.506 L66.62,48.279 L66.554,48.736 Z" id="Shape"></path>
                    <path d="M54.16,63.039 L53.716,63.17 L53.861,62.574 L54.462,62.69 L54.16,63.039 Z" id="Shape"></path>
                    <path d="M36,68.372 L35.557,68.241 L36,67.819 L36.443,68.241 L36,68.372 Z" id="Shape"></path>
                    <path d="M17.84,63.039 L17.538,62.69 L18.139,62.574 L18.284,63.17 L17.84,63.039 Z" id="Shape"></path>
                    <path d="M5.446,48.736 L5.38,48.279 L5.949,48.506 L5.748,49.085 L5.446,48.736 Z" id="Shape"></path>
                    <path d="M2.752,30.002 L2.944,29.582 L3.3,30.081 L2.818,30.459 L2.752,30.002 Z" id="Shape"></path>
                    <path d="M10.615,12.786 L11.003,12.536 L11.033,13.148 L10.423,13.206 L10.615,12.786 Z" id="Shape"></path>
                    <path d="M33.023,24.645 L38.977,24.645 L43.985,27.864 L46.458,33.279 L45.61,39.171 L41.712,43.67 L36,45.347 L30.288,43.67 L26.39,39.171 L25.542,33.279 L28.015,27.864 L33.023,24.645 Z" id="Shape"></path>
                </g>
            </g>
        </g>
    </g>
</svg>