<?xml version="1.0" encoding="UTF-8" standalone="no"?>
<svg width="22px" height="32px" viewBox="0 0 22 32" version="1.1" xmlns="http://www.w3.org/2000/svg" xmlns:xlink="http://www.w3.org/1999/xlink" xmlns:sketch="http://www.bohemiancoding.com/sketch/ns">
    <!-- Generator: Sketch 3.5.2 (25235) - http://www.bohemiancoding.com/sketch -->
    <title>icon-mouse</title>
    <desc>Created with Sketch.</desc>
    <defs></defs>
    <g id="Page-1" stroke="none" stroke-width="1" fill="none" fill-rule="evenodd" sketch:type="MSPage">
        <g id="VetOnDemand" sketch:type="MSArtboardGroup" transform="translate(-905.000000, -653.000000)" stroke="#CFCFCF" stroke-linecap="round" stroke-linejoin="round">
            <path d="M925.653084,675.724138 C925.653084,680.275862 921.929342,684 917.378101,684 L914.274983,684 C909.723742,684 906,680.275862 906,675.724138 L906,662.275862 C906,657.724138 909.723742,654 914.274983,654 L917.378101,654 C921.929342,654 925.653084,657.724138 925.653084,662.275862 L925.653084,675.724138 L925.653084,675.724138 Z M917.378101,664.344828 C917.378101,665.198276 916.6799,665.896552 915.826542,665.896552 C914.973184,665.896552 914.274983,665.198276 914.274983,664.344828 L914.274983,661.241379 C914.274983,660.387931 914.973184,659.689655 915.826542,659.689655 C916.6799,659.689655 917.378101,660.387931 917.378101,661.241379 L917.378101,664.344828 L917.378101,664.344828 Z" id="icon-mouse" sketch:type="MSShapeGroup"></path>
        </g>
    </g>
</svg>