<?xml version="1.0" encoding="UTF-8"?>
<svg xmlns="http://www.w3.org/2000/svg" xmlns:xlink="http://www.w3.org/1999/xlink" version="1.2" >
<font id="Proxima Nova Black">
<font-face  font-family="Proxima Nova" units-per-em="1000" ascent="790" descent="-210" font-style="normal" font-weight="900" font-stretch="normal" cap-height="667" x-height="483" underline-position="-123" underline-thickness="20" />
<missing-glyph  horiz-adv-x="459" d="M405 -90 L405 752 L54 752 L54 -90 L405 -90 Z M373 -60 L85 -60 L85 722 L373 722 L373 -60 Z " />
<glyph glyph-name="NULL" d="" />
<glyph glyph-name="CR" unicode="&#xd;" horiz-adv-x="250" d="" />
<glyph glyph-name="space" unicode="&#x20;" horiz-adv-x="255" d="" />
<glyph glyph-name="exclam" unicode="&#x21;" horiz-adv-x="280" d="M222 248 L247 667 L33 667 L60 248 L222 248 Z M141 -11 C199 -11 247 38 247 95 C247 153 199 202 141 202 C83 202 35 153 35 95 C35 38 83 -11 141 -11 L141 -11 Z " />
<glyph glyph-name="quotedbl" unicode="&#x22;" horiz-adv-x="469" d="M163 339 C163 339 218 562 218 585 C218 636 176 677 126 677 C76 677 34 636 34 585 C34 562 89 339 89 339 L163 339 Z M380 339 C380 339 435 562 435 585 C435 636 394 677 344 677 C293 677 252 636 252 585 C252 562 307 339 307 339 L380 339 Z " />
<glyph glyph-name="numbersign" unicode="&#x23;" horiz-adv-x="646" d="M377 0 L429 158 L523 158 L557 267 L466 267 L510 399 L601 399 L634 507 L546 507 L600 667 L473 667 L420 507 L342 507 L395 667 L268 667 L215 507 L125 507 L91 399 L178 399 L135 267 L47 267 L12 158 L98 158 L45 0 L172 0 L224 158 L303 158 L250 0 L377 0 Z M339 267 L262 267 L305 399 L383 399 L339 267 Z " />
<glyph glyph-name="dollar" unicode="&#x24;" horiz-adv-x="635" d="M262 -100 L390 -100 L390 -8 C532 10 616 91 616 220 C616 468 245 414 245 477 C245 494 256 507 296 507 C359 507 434 485 492 441 L600 584 C541 632 470 661 390 672 L390 768 L262 768 L262 673 C115 654 40 557 40 456 C40 193 412 258 412 194 C412 168 376 158 338 158 C248 158 173 196 123 244 L18 94 C77 40 155 2 262 -8 L262 -100 Z " />
<glyph glyph-name="percent" unicode="&#x25;" horiz-adv-x="784" d="M198 341 C308 341 378 415 378 508 C378 602 308 677 198 677 C89 677 20 602 20 508 C20 415 89 341 198 341 L198 341 Z M228 0 L655 667 L557 667 L131 0 L228 0 Z M585 -12 C694 -12 764 62 764 155 C764 249 694 324 585 324 C476 324 407 249 407 155 C407 62 476 -12 585 -12 L585 -12 Z M198 447 C167 447 142 465 142 508 C142 553 167 571 198 571 C230 571 256 553 256 508 C256 465 230 447 198 447 L198 447 Z M585 94 C553 94 528 111 528 155 C528 200 553 218 585 218 C617 218 643 200 643 155 C643 111 617 94 585 94 L585 94 Z " />
<glyph glyph-name="ampersand" unicode="&#x26;" horiz-adv-x="652" d="M664 0 C619 49 577 95 536 141 C574 187 605 239 631 292 L492 358 C481 321 464 285 443 252 C431 267 419 282 407 298 C395 312 382 329 369 347 C449 381 527 423 527 526 C527 621 430 677 328 677 C201 677 115 603 115 512 C115 469 129 422 152 376 C77 340 12 288 12 189 C12 54 115 -12 245 -12 C307 -12 362 5 411 33 C423 20 433 9 442 0 L664 0 Z M272 126 C233 126 200 160 200 207 C200 229 207 247 220 263 C236 240 253 217 269 197 C281 181 299 159 319 136 C303 129 287 126 272 126 L272 126 Z M291 507 C291 533 310 552 337 552 C359 552 376 536 376 515 C376 482 349 460 310 441 C298 465 291 488 291 507 L291 507 Z " />
<glyph glyph-name="quotesingle" unicode="&#x27;" horiz-adv-x="252" d="M163 339 C163 339 218 562 218 585 C218 636 176 677 126 677 C76 677 34 636 34 585 C34 562 89 339 89 339 L163 339 Z " />
<glyph glyph-name="parenleft" unicode="&#x28;" horiz-adv-x="346" d="M328 -110 C257 5 230 110 230 243 C230 377 257 481 328 598 L214 685 C108 590 37 404 37 243 C37 82 108 -104 214 -199 L328 -110 Z " />
<glyph glyph-name="parenright" unicode="&#x29;" horiz-adv-x="347" d="M18 -110 C89 5 116 110 116 243 C116 377 89 481 18 598 L132 685 C238 590 309 404 309 243 C309 82 238 -104 132 -199 L18 -110 Z " />
<glyph glyph-name="asterisk" unicode="&#x2a;" horiz-adv-x="363" d="M222 343 L217 448 L305 392 L346 462 L253 510 L346 558 L305 628 L217 572 L222 677 L141 677 L145 572 L57 628 L17 558 L109 510 L17 462 L57 392 L145 448 L141 343 L222 343 Z " />
<glyph glyph-name="plus" unicode="&#x2b;" horiz-adv-x="510" d="M481 285 L481 390 L313 390 L313 575 L197 575 L197 390 L29 390 L29 285 L197 285 L197 92 L313 92 L313 285 L481 285 Z " />
<glyph glyph-name="comma" unicode="&#x2c;" horiz-adv-x="281" d="M254 73 C254 155 199 202 138 202 C82 202 34 155 34 97 C34 41 73 4 121 4 C132 4 142 6 147 8 C134 -30 88 -74 56 -88 L129 -147 C207 -92 254 -15 254 73 L254 73 Z " />
<glyph glyph-name="hyphen" unicode="&#x2d;" horiz-adv-x="300" d="M270 167 L270 317 L30 317 L30 167 L270 167 Z " />
<glyph glyph-name="period" unicode="&#x2e;" horiz-adv-x="283" d="M141 -12 C199 -12 248 37 248 95 C248 153 199 202 141 202 C83 202 34 153 34 95 C34 37 83 -12 141 -12 L141 -12 Z " />
<glyph glyph-name="slash" unicode="&#x2f;" horiz-adv-x="362" d="M125 -20 L362 687 L237 687 L0 -20 L125 -20 Z " />
<glyph glyph-name="zero" unicode="0" horiz-adv-x="628" d="M314 -12 C513 -12 610 152 610 333 C610 514 513 677 314 677 C115 677 18 514 18 333 C18 152 115 -12 314 -12 L314 -12 Z M314 166 C250 166 221 220 221 333 C221 446 250 499 314 499 C378 499 407 446 407 333 C407 220 378 166 314 166 L314 166 Z " />
<glyph glyph-name="one" unicode="1" horiz-adv-x="483" d="M429 0 L429 667 L255 667 L0 417 L114 298 L227 410 L227 0 L429 0 Z " />
<glyph glyph-name="two" unicode="2" horiz-adv-x="613" d="M586 0 L586 176 L369 176 C528 281 580 356 580 447 C580 581 467 677 294 677 C201 677 89 646 12 564 L122 430 C173 473 227 499 298 499 C341 499 375 479 375 447 C375 397 346 372 41 157 L41 0 L586 0 Z " />
<glyph glyph-name="three" unicode="3" horiz-adv-x="617" d="M300 -12 C473 -12 590 69 590 188 C590 280 506 336 432 344 C517 358 579 421 579 492 C579 602 485 677 301 677 C171 677 80 632 21 567 L116 441 C162 479 222 499 279 499 C337 499 378 487 378 456 C378 435 350 423 286 423 C262 423 202 423 189 424 L189 245 C199 246 257 247 286 247 C375 247 389 234 389 211 C389 187 358 166 292 166 C241 166 163 185 111 230 L12 92 C68 32 168 -12 300 -12 L300 -12 Z " />
<glyph glyph-name="four" unicode="4" horiz-adv-x="636" d="M541 0 L541 107 L618 107 L618 283 L541 283 L541 667 L261 667 L18 262 L18 107 L339 107 L339 0 L541 0 Z M339 283 L213 283 L339 493 L339 283 Z " />
<glyph glyph-name="five" unicode="5" horiz-adv-x="626" d="M311 -12 C498 -12 608 83 608 230 C608 363 507 448 393 448 C337 448 286 428 254 397 L254 491 L562 491 L562 667 L52 667 L52 262 L191 230 C225 262 264 276 315 276 C377 276 403 251 403 221 C403 193 376 166 309 166 C251 166 186 186 140 224 L32 82 C97 23 192 -12 311 -12 L311 -12 Z " />
<glyph glyph-name="six" unicode="6" horiz-adv-x="625" d="M336 -12 C494 -12 613 83 613 228 C613 370 497 449 377 449 C316 449 256 425 222 381 C222 382 222 382 222 383 C222 464 302 499 368 499 C417 499 453 490 491 463 L576 619 C523 655 444 677 368 677 C161 677 18 555 18 332 C18 137 117 -12 336 -12 L336 -12 Z M323 166 C253 166 225 206 221 251 C248 272 281 278 315 278 C355 278 408 263 408 220 C408 192 374 166 323 166 L323 166 Z " />
<glyph glyph-name="seven" unicode="7" horiz-adv-x="575" d="M341 0 L563 527 L563 667 L18 667 L18 491 L331 491 L120 0 L341 0 Z " />
<glyph glyph-name="eight" unicode="8" horiz-adv-x="630" d="M315 -12 C463 -12 612 42 612 178 C612 250 560 312 484 344 C554 373 601 420 601 498 C601 629 452 677 315 677 C178 677 29 629 29 498 C29 420 75 373 145 344 C69 312 18 250 18 178 C18 42 167 -12 315 -12 L315 -12 Z M315 422 C274 428 234 447 234 468 C234 495 264 513 315 513 C365 513 395 495 395 468 C395 447 356 428 315 422 L315 422 Z M315 152 C258 152 223 172 223 201 C223 227 272 247 315 253 C357 247 407 227 407 201 C407 172 370 152 315 152 L315 152 Z " />
<glyph glyph-name="nine" unicode="9" horiz-adv-x="625" d="M257 -11 C464 -11 607 111 607 334 C607 529 508 678 289 678 C131 678 12 583 12 438 C12 296 128 217 248 217 C309 217 369 241 403 285 C403 284 403 283 403 282 C403 217 342 167 257 167 C208 167 172 176 134 203 L49 47 C102 11 181 -11 257 -11 L257 -11 Z M310 388 C270 388 217 403 217 446 C217 474 251 500 301 500 C372 500 400 460 404 415 C377 394 344 388 310 388 L310 388 Z " />
<glyph glyph-name="colon" unicode="&#x3a;" horiz-adv-x="266" d="M141 276 C199 276 248 325 248 383 C248 441 199 490 141 490 C83 490 34 441 34 383 C34 325 83 276 141 276 L141 276 Z M141 -12 C199 -12 248 37 248 95 C248 153 199 202 141 202 C83 202 34 153 34 95 C34 37 83 -12 141 -12 L141 -12 Z " />
<glyph glyph-name="semicolon" unicode="&#x3b;" horiz-adv-x="281" d="M141 276 C199 276 248 326 248 384 C248 442 199 490 141 490 C83 490 34 442 34 384 C34 326 83 276 141 276 L141 276 Z M254 79 C254 161 199 208 138 208 C82 208 34 161 34 103 C34 47 73 10 121 10 C132 10 142 12 147 14 C134 -24 88 -68 56 -82 L129 -141 C207 -86 254 -9 254 79 L254 79 Z " />
<glyph glyph-name="less" unicode="&#x3c;" horiz-adv-x="510" d="M481 90 L481 215 L147 334 L481 455 L481 580 L29 400 L29 270 L481 90 Z " />
<glyph glyph-name="equal" unicode="&#x3d;" horiz-adv-x="510" d="M481 373 L481 478 L29 478 L29 373 L481 373 Z M481 190 L481 295 L29 295 L29 190 L481 190 Z " />
<glyph glyph-name="greater" unicode="&#x3e;" horiz-adv-x="510" d="M481 270 L481 400 L29 580 L29 455 L363 334 L29 215 L29 90 L481 270 Z " />
<glyph glyph-name="question" unicode="&#x3f;" horiz-adv-x="450" d="M153 224 L311 260 C306 266 300 280 300 297 C300 365 442 375 442 516 C442 615 357 677 222 677 C144 677 58 648 0 586 L112 457 C137 483 173 499 199 499 C230 499 238 490 238 478 C238 447 126 428 126 319 C126 279 137 246 153 224 L153 224 Z M228 -12 C286 -12 335 37 335 95 C335 153 286 202 228 202 C170 202 121 153 121 95 C121 37 170 -12 228 -12 L228 -12 Z " />
<glyph glyph-name="at" unicode="&#x40;" horiz-adv-x="783" d="M352 -70 C426 -70 498 -47 560 -7 L536 27 C482 -7 421 -27 357 -27 C197 -27 80 92 80 247 C80 433 242 594 428 594 C595 594 697 496 697 343 C697 252 657 203 618 203 C601 203 590 213 590 241 C590 246 592 263 593 268 L639 485 L481 485 L472 441 C449 475 406 497 350 497 C236 497 133 386 133 259 C133 162 189 85 290 85 C334 85 384 108 419 158 L421 151 C431 117 460 85 524 85 C614 85 747 164 747 343 C747 501 626 638 432 638 C224 638 35 455 35 244 C35 67 170 -70 352 -70 L352 -70 Z M358 209 C320 209 295 234 295 273 C295 324 332 373 393 373 C423 373 442 358 451 345 L432 250 C417 231 395 209 358 209 L358 209 Z " />
<glyph glyph-name="A" unicode="A" horiz-adv-x="710" d="M728 0 L482 667 L228 667 L-18 0 L211 0 L235 78 L475 78 L499 0 L728 0 Z M421 254 L289 254 L355 469 L421 254 Z " />
<glyph glyph-name="B" unicode="B" horiz-adv-x="697" d="M473 0 C607 0 670 88 670 181 C670 267 615 333 543 344 C608 358 657 414 657 497 C657 575 597 667 459 667 L54 667 L54 0 L473 0 Z M412 421 L256 421 L256 499 L412 499 C433 499 452 484 452 461 C452 437 433 421 412 421 L412 421 Z M418 168 L256 168 L256 253 L418 253 C447 253 465 234 465 210 C465 185 447 168 418 168 L418 168 Z " />
<glyph glyph-name="C" unicode="C" horiz-adv-x="697" d="M385 -12 C560 -12 649 94 688 183 L514 263 C497 211 445 166 385 166 C288 166 223 240 223 333 C223 426 288 500 385 500 C445 500 497 455 514 403 L688 484 C648 576 560 678 385 678 C176 678 18 539 18 333 C18 128 176 -12 385 -12 L385 -12 Z " />
<glyph glyph-name="D" unicode="D" horiz-adv-x="736" d="M353 0 C562 0 718 121 718 334 C718 547 562 667 352 667 L54 667 L54 0 L353 0 Z M352 176 L256 176 L256 491 L353 491 C461 491 513 424 513 334 C513 250 453 176 352 176 L352 176 Z " />
<glyph glyph-name="E" unicode="E" horiz-adv-x="596" d="M560 0 L560 176 L256 176 L256 249 L553 249 L553 425 L256 425 L256 491 L560 491 L560 667 L54 667 L54 0 L560 0 Z " />
<glyph glyph-name="F" unicode="F" horiz-adv-x="592" d="M256 0 L256 249 L553 249 L553 425 L256 425 L256 491 L560 491 L560 667 L54 667 L54 0 L256 0 Z " />
<glyph glyph-name="G" unicode="G" horiz-adv-x="726" d="M385 -12 C516 -12 616 41 690 123 L690 396 L365 396 L365 220 L489 220 L489 196 C468 180 423 166 385 166 C288 166 223 240 223 333 C223 426 288 500 385 500 C445 500 489 458 508 417 L678 504 C636 590 544 678 385 678 C183 678 18 547 18 333 C18 120 183 -12 385 -12 L385 -12 Z " />
<glyph glyph-name="H" unicode="H" horiz-adv-x="751" d="M697 0 L697 667 L495 667 L495 431 L256 431 L256 667 L54 667 L54 0 L256 0 L256 255 L495 255 L495 0 L697 0 Z " />
<glyph glyph-name="I" unicode="I" horiz-adv-x="310" d="M256 0 L256 667 L54 667 L54 0 L256 0 Z " />
<glyph glyph-name="J" unicode="J" horiz-adv-x="498" d="M186 -12 C341 -12 444 67 444 238 L444 667 L242 667 L242 241 C242 194 212 166 168 166 C134 166 104 181 82 196 L0 42 C52 2 121 -12 186 -12 L186 -12 Z " />
<glyph glyph-name="K" unicode="K" horiz-adv-x="671" d="M689 0 L426 357 L678 667 L431 667 L256 417 L256 667 L54 667 L54 0 L256 0 L256 185 L293 235 L443 0 L689 0 Z " />
<glyph glyph-name="L" unicode="L" horiz-adv-x="536" d="M509 0 L509 176 L256 176 L256 667 L54 667 L54 0 L509 0 Z " />
<glyph glyph-name="M" unicode="M" horiz-adv-x="900" d="M846 0 L846 667 L567 667 L450 347 L333 667 L54 667 L54 0 L256 0 L256 401 L405 0 L495 0 L644 401 L644 0 L846 0 Z " />
<glyph glyph-name="N" unicode="N" horiz-adv-x="750" d="M696 0 L696 667 L494 667 L494 351 L262 667 L54 667 L54 0 L256 0 L256 338 L502 0 L696 0 Z " />
<glyph glyph-name="O" unicode="O" horiz-adv-x="766" d="M383 -12 C589 -12 748 128 748 333 C748 538 589 678 383 678 C177 678 18 538 18 333 C18 128 177 -12 383 -12 L383 -12 Z M383 166 C286 166 223 240 223 333 C223 426 286 500 383 500 C480 500 543 426 543 333 C543 240 480 166 383 166 L383 166 Z " />
<glyph glyph-name="P" unicode="P" horiz-adv-x="662" d="M256 0 L256 210 L410 210 C566 210 650 314 650 438 C650 563 566 667 410 667 L54 667 L54 0 L256 0 Z M384 386 L256 386 L256 491 L384 491 C418 491 445 474 445 438 C445 403 418 386 384 386 L384 386 Z " />
<glyph glyph-name="Q" unicode="Q" horiz-adv-x="766" d="M383 -12 C429 -12 473 -5 514 8 L561 -50 L701 62 L665 107 C717 165 748 243 748 333 C748 538 589 678 383 678 C177 678 18 538 18 333 C18 128 177 -12 383 -12 L383 -12 Z M383 166 C286 166 223 240 223 333 C223 426 286 500 383 500 C480 500 543 426 543 333 C543 311 540 291 533 272 L483 336 L343 224 L389 166 L383 166 Z " />
<glyph glyph-name="R" unicode="R" horiz-adv-x="678" d="M651 0 L530 236 C583 262 650 323 650 438 C650 563 566 667 410 667 L54 667 L54 0 L256 0 L256 210 L329 210 L421 0 L651 0 Z M379 386 L256 386 L256 491 L379 491 C413 491 445 475 445 439 C445 402 413 386 379 386 L379 386 Z " />
<glyph glyph-name="S" unicode="S" horiz-adv-x="613" d="M313 -12 C492 -12 601 73 601 220 C601 468 230 414 230 477 C230 494 241 507 281 507 C344 507 419 485 477 441 L585 584 C509 646 411 677 302 677 C119 677 25 569 25 456 C25 193 397 258 397 194 C397 168 361 158 323 158 C233 158 158 196 108 244 L3 94 C74 30 171 -12 313 -12 L313 -12 Z " />
<glyph glyph-name="T" unicode="T" horiz-adv-x="595" d="M399 0 L399 491 L577 491 L577 667 L18 667 L18 491 L197 491 L197 0 L399 0 Z " />
<glyph glyph-name="U" unicode="U" horiz-adv-x="767" d="M384 -12 C609 -12 713 109 713 275 L713 667 L508 667 L508 281 C508 217 466 166 384 166 C301 166 259 217 259 281 L259 667 L54 667 L54 274 C54 109 159 -12 384 -12 L384 -12 Z " />
<glyph glyph-name="V" unicode="V" horiz-adv-x="710" d="M482 0 L728 667 L499 667 L355 218 L211 667 L-18 667 L228 0 L482 0 Z " />
<glyph glyph-name="W" unicode="W" horiz-adv-x="954" d="M775 0 L966 667 L739 667 L654 259 L553 667 L401 667 L300 259 L214 667 L-12 667 L179 0 L391 0 L477 378 L563 0 L775 0 Z " />
<glyph glyph-name="X" unicode="X" horiz-adv-x="684" d="M702 0 L479 343 L687 667 L448 667 L342 477 L234 667 L-3 667 L205 342 L-18 0 L220 0 L342 204 L464 0 L702 0 Z " />
<glyph glyph-name="Y" unicode="Y" horiz-adv-x="664" d="M434 0 L434 265 L682 667 L455 667 L333 442 L209 667 L-18 667 L232 265 L232 0 L434 0 Z " />
<glyph glyph-name="Z" unicode="Z" horiz-adv-x="600" d="M564 0 L564 176 L302 176 L557 508 L557 667 L36 667 L36 491 L290 491 L36 160 L36 0 L564 0 Z " />
<glyph glyph-name="bracketleft" unicode="&#x5b;" horiz-adv-x="317" d="M299 -190 L299 -76 L179 -76 L179 564 L299 564 L299 678 L54 678 L54 -190 L299 -190 Z " />
<glyph glyph-name="backslash" unicode="&#x5c;" horiz-adv-x="362" d="M237 -20 L362 -20 L125 687 L0 687 L237 -20 Z " />
<glyph glyph-name="bracketright" unicode="&#x5d;" horiz-adv-x="317" d="M263 -190 L263 678 L18 678 L18 564 L138 564 L138 -76 L18 -76 L18 -190 L263 -190 Z " />
<glyph glyph-name="asciicircum" unicode="&#x5e;" horiz-adv-x="450" d="M431 333 L291 667 L162 667 L19 333 L146 333 L225 548 L305 333 L431 333 Z " />
<glyph glyph-name="underscore" unicode="&#x5f;" horiz-adv-x="564" d="M567 -154 L567 -40 L-3 -40 L-3 -154 L567 -154 Z " />
<glyph glyph-name="&amp;#x60;" unicode="&#x60;" horiz-adv-x="275" d="M275 556 L155 700 L0 700 L155 556 L275 556 Z " />
<glyph glyph-name="&amp;#x2cb;" unicode="&#x2cb;" horiz-adv-x="275" d="M275 556 L155 700 L0 700 L155 556 L275 556 Z " />
<glyph glyph-name="a" unicode="a" horiz-adv-x="559" d="M509 0 L509 292 C509 453 392 495 272 495 C199 495 109 474 44 422 L105 311 C143 340 194 358 239 358 C298 358 329 332 329 298 L329 248 C303 281 246 301 183 301 C111 301 17 267 17 147 C17 37 111 -12 183 -12 C243 -12 302 12 329 46 L329 0 L509 0 Z M258 105 C228 105 195 114 195 144 C195 174 228 184 258 184 C286 184 317 175 329 158 L329 131 C317 114 286 105 258 105 L258 105 Z " />
<glyph glyph-name="b" unicode="b" horiz-adv-x="596" d="M230 179 L230 303 C247 324 281 336 305 336 C354 336 395 302 395 242 C395 181 354 147 305 147 C281 147 247 158 230 179 L230 179 Z M230 0 L230 51 C271 5 317 -12 366 -12 C483 -12 579 76 579 242 C579 402 485 495 366 495 C317 495 268 478 230 432 L230 667 L50 667 L50 0 L230 0 Z " />
<glyph glyph-name="c" unicode="c" horiz-adv-x="502" d="M288 -12 C398 -12 466 39 493 79 L377 189 C362 167 334 147 296 147 C245 147 201 180 201 242 C201 304 245 336 296 336 C334 336 362 318 377 295 L493 404 C466 445 398 495 288 495 C135 495 17 395 17 242 C17 88 135 -12 288 -12 L288 -12 Z " />
<glyph glyph-name="d" unicode="d" horiz-adv-x="596" d="M546 0 L546 667 L366 667 L366 432 C328 478 279 495 230 495 C111 495 17 402 17 242 C17 76 113 -12 230 -12 C279 -12 325 5 366 51 L366 0 L546 0 Z M291 147 C242 147 201 182 201 242 C201 302 242 336 291 336 C315 336 349 325 366 304 L366 180 C349 159 315 147 291 147 L291 147 Z " />
<glyph glyph-name="e" unicode="e" horiz-adv-x="543" d="M286 -12 C358 -12 444 7 492 48 L418 159 C394 138 334 125 307 125 C248 125 213 155 203 186 L531 186 L531 223 C531 393 422 495 280 495 C124 495 17 382 17 242 C17 83 135 -12 286 -12 L286 -12 Z M360 300 L201 300 C207 322 225 358 280 358 C338 358 355 321 360 300 L360 300 Z " />
<glyph glyph-name="f" unicode="f" horiz-adv-x="371" d="M267 0 L267 327 L365 327 L365 483 L267 483 L267 505 C267 529 290 544 312 544 C333 544 346 538 357 525 L422 625 C388 661 327 677 271 677 C164 677 87 606 87 505 L87 483 L7 483 L7 327 L87 327 L87 0 L267 0 Z " />
<glyph glyph-name="g" unicode="g" horiz-adv-x="595" d="M253 -196 C373 -196 545 -157 545 52 L545 483 L365 483 L365 432 C326 478 279 495 229 495 C110 495 17 415 17 254 C17 89 113 13 229 13 C279 13 324 31 365 78 L365 52 C365 -33 295 -49 253 -49 C201 -49 146 -33 109 4 L33 -124 C96 -174 170 -196 253 -196 L253 -196 Z M291 172 C242 172 201 195 201 254 C201 313 242 336 291 336 C314 336 348 325 365 305 L365 203 C348 183 314 172 291 172 L291 172 Z " />
<glyph glyph-name="h" unicode="h" horiz-adv-x="608" d="M558 0 L558 345 C558 429 509 495 397 495 C312 495 259 460 231 428 L231 667 L51 667 L51 0 L231 0 L231 298 C246 315 267 336 308 336 C351 336 378 319 378 269 L378 0 L558 0 Z " />
<glyph glyph-name="i" unicode="i" horiz-adv-x="280" d="M140 518 C196 518 241 563 241 619 C241 675 196 720 140 720 C84 720 39 675 39 619 C39 563 84 518 140 518 L140 518 Z M230 0 L230 483 L50 483 L50 0 L230 0 Z " />
<glyph glyph-name="j" unicode="j" horiz-adv-x="280" d="M140 518 C196 518 241 563 241 619 C241 675 196 720 140 720 C84 720 39 675 39 619 C39 563 84 518 140 518 L140 518 Z M29 -196 C169 -196 230 -103 230 21 L230 483 L50 483 L50 21 C50 -25 30 -49 -3 -49 C-31 -49 -43 -45 -63 -30 L-106 -163 C-67 -187 -44 -196 29 -196 L29 -196 Z " />
<glyph glyph-name="k" unicode="k" horiz-adv-x="557" d="M569 0 L392 263 L558 483 L341 483 L230 311 L230 667 L50 667 L50 0 L230 0 L230 109 L265 156 L348 0 L569 0 Z " />
<glyph glyph-name="l" unicode="l" horiz-adv-x="280" d="M230 0 L230 667 L50 667 L50 0 L230 0 Z " />
<glyph glyph-name="m" unicode="m" horiz-adv-x="897" d="M847 0 L847 350 C847 450 787 495 698 495 C620 495 557 452 529 410 C507 470 458 495 390 495 C312 495 251 455 230 428 L230 483 L50 483 L50 0 L230 0 L230 298 C242 312 264 336 303 336 C344 336 358 311 358 282 L358 0 L538 0 L538 298 C550 312 572 336 612 336 C652 336 667 311 667 282 L667 0 L847 0 Z " />
<glyph glyph-name="n" unicode="n" horiz-adv-x="607" d="M557 0 L557 343 C557 427 508 495 396 495 C311 495 258 460 230 428 L230 483 L50 483 L50 0 L230 0 L230 298 C245 315 266 336 307 336 C350 336 377 317 377 267 L377 0 L557 0 Z " />
<glyph glyph-name="o" unicode="o" horiz-adv-x="577" d="M288 -12 C460 -12 560 107 560 242 C560 377 460 495 288 495 C117 495 17 377 17 242 C17 107 117 -12 288 -12 L288 -12 Z M288 147 C233 147 202 188 202 242 C202 295 233 336 288 336 C344 336 375 295 375 242 C375 188 344 147 288 147 L288 147 Z " />
<glyph glyph-name="p" unicode="p" horiz-adv-x="595" d="M366 -12 C486 -12 578 76 578 242 C578 407 486 495 366 495 C316 495 269 478 230 432 L230 483 L50 483 L50 -184 L230 -184 L230 51 C270 5 316 -12 366 -12 L366 -12 Z M304 147 C281 147 246 160 230 180 L230 303 C247 324 281 336 304 336 C352 336 394 302 394 242 C394 181 352 147 304 147 L304 147 Z " />
<glyph glyph-name="q" unicode="q" horiz-adv-x="595" d="M291 147 C243 147 201 181 201 242 C201 302 243 336 291 336 C314 336 348 324 365 303 L365 180 C349 160 314 147 291 147 L291 147 Z M229 -12 C279 -12 325 5 365 51 L365 -184 L545 -184 L545 483 L365 483 L365 432 C326 478 279 495 229 495 C109 495 17 407 17 242 C17 76 109 -12 229 -12 L229 -12 Z " />
<glyph glyph-name="r" unicode="r" horiz-adv-x="390" d="M230 0 L230 296 C250 320 299 330 337 330 C354 330 369 328 378 325 L378 497 C323 497 260 465 230 430 L230 483 L50 483 L50 0 L230 0 Z " />
<glyph glyph-name="s" unicode="s" horiz-adv-x="490" d="M246 -12 C389 -12 475 58 475 154 C475 355 201 305 201 345 C201 358 220 366 246 366 C302 366 358 341 388 316 L454 433 C398 470 326 495 245 495 C105 495 29 419 29 332 C29 130 303 189 303 143 C303 131 292 122 255 122 C201 122 119 153 81 183 L9 62 C61 19 157 -12 246 -12 L246 -12 Z " />
<glyph glyph-name="t" unicode="t" horiz-adv-x="382" d="M253 -12 C314 -12 356 3 375 20 L343 156 C339 152 323 147 307 147 C283 147 267 167 267 192 L267 327 L365 327 L365 483 L267 483 L267 615 L87 615 L87 483 L7 483 L7 327 L87 327 L87 140 C87 39 146 -12 253 -12 L253 -12 Z " />
<glyph glyph-name="u" unicode="u" horiz-adv-x="606" d="M556 0 L556 483 L376 483 L376 185 C361 168 340 147 300 147 C256 147 230 166 230 215 L230 483 L50 483 L50 138 C50 55 98 -12 210 -12 C295 -12 348 23 376 54 L376 0 L556 0 Z " />
<glyph glyph-name="v" unicode="v" horiz-adv-x="535" d="M363 0 L550 483 L360 483 L267 207 L175 483 L-15 483 L172 0 L363 0 Z " />
<glyph glyph-name="w" unicode="w" horiz-adv-x="805" d="M677 0 L817 483 L631 483 L567 217 L483 483 L322 483 L237 217 L173 483 L-12 483 L128 0 L324 0 L402 270 L481 0 L677 0 Z " />
<glyph glyph-name="x" unicode="x" horiz-adv-x="521" d="M533 0 L374 248 L522 483 L325 483 L260 370 L195 483 L-2 483 L146 248 L-12 0 L184 0 L261 128 L336 0 L533 0 Z " />
<glyph glyph-name="y" unicode="y" horiz-adv-x="535" d="M45 -188 C62 -193 102 -196 115 -196 C217 -193 297 -172 340 -60 L550 483 L360 483 L267 207 L175 483 L-15 483 L175 -8 L171 -18 C165 -31 143 -37 108 -37 C96 -37 81 -34 70 -28 L45 -188 Z " />
<glyph glyph-name="z" unicode="z" horiz-adv-x="486" d="M453 0 L453 156 L275 156 L449 357 L449 483 L33 483 L33 327 L203 327 L33 132 L33 0 L453 0 Z " />
<glyph glyph-name="braceleft" unicode="&#x7b;" horiz-adv-x="316" d="M299 -190 L299 -76 L239 -76 C206 -76 179 -48 179 -5 L179 153 C179 195 166 230 133 244 C166 258 179 293 179 335 L179 494 C179 538 206 564 239 564 L299 564 L299 678 L239 678 C142 678 54 609 54 493 L54 355 C54 318 37 291 2 291 L2 197 C37 197 54 170 54 133 L54 -6 C54 -122 142 -190 239 -190 L299 -190 Z " />
<glyph glyph-name="bar" unicode="&#x7c;" horiz-adv-x="222" d="M168 -20 L168 687 L54 687 L54 -20 L168 -20 Z " />
<glyph glyph-name="braceright" unicode="&#x7d;" horiz-adv-x="316" d="M17 -190 L77 -190 C174 -190 262 -122 262 -6 L262 133 C262 170 279 197 314 197 L314 291 C279 291 262 318 262 355 L262 493 C262 609 174 678 77 678 L17 678 L17 564 L77 564 C110 564 137 538 137 494 L137 335 C137 293 150 258 183 244 C150 230 137 195 137 153 L137 -5 C137 -48 110 -76 77 -76 L17 -76 L17 -190 Z " />
<glyph glyph-name="asciitilde" unicode="&#x7e;" horiz-adv-x="518" d="M377 667 C373 603 365 504 334 504 C291 504 320 667 185 667 C61 667 34 532 25 414 L143 401 C147 463 154 563 185 563 C228 563 199 401 334 401 C459 401 484 535 493 653 L377 667 Z " />
<glyph glyph-name="nbspace" unicode="&#xa0;" horiz-adv-x="255" d="" />
<glyph glyph-name="exclamdown" unicode="&#xa1;" horiz-adv-x="280" d="M33 -184 L247 -184 L220 235 L58 235 L33 -184 Z M33 389 C33 331 81 282 139 282 C197 282 245 331 245 389 C245 446 197 495 139 495 C81 495 33 446 33 389 L33 389 Z " />
<glyph glyph-name="cent" unicode="&#xa2;" horiz-adv-x="502" d="M229 -100 L355 -100 L355 -5 C426 10 472 48 493 79 L377 189 C362 167 334 147 296 147 C245 147 201 180 201 242 C201 304 245 336 296 336 C334 336 362 318 377 295 L493 404 C472 436 426 473 355 488 L355 565 L229 565 L229 490 C106 467 17 374 17 242 C17 108 106 15 229 -7 L229 -100 Z " />
<glyph glyph-name="sterling" unicode="&#xa3;" horiz-adv-x="581" d="M26 270 L122 270 C127 254 131 238 131 221 C131 179 86 147 46 125 L112 -7 C150 15 191 30 226 30 C272 30 324 -12 409 -12 C493 -12 542 11 569 40 L492 199 C479 181 456 166 416 166 C373 166 355 191 302 191 C291 191 274 190 259 185 C287 201 308 239 310 270 L419 270 L419 379 L285 379 C274 404 263 427 263 456 C263 488 289 515 329 515 C361 515 391 497 406 455 L566 547 C518 639 434 677 303 677 C189 677 42 604 42 460 C42 431 51 404 64 379 L26 379 L26 270 Z " />
<glyph glyph-name="currency" unicode="&#xa4;" horiz-adv-x="522" d="M486 137 L430 193 C462 233 480 283 480 333 C480 384 462 434 430 473 L486 530 L457 558 L401 502 C362 534 311 552 261 552 C210 552 160 535 121 502 L64 558 L36 530 L92 473 C60 434 42 384 42 333 C42 283 60 233 92 193 L36 137 L64 108 L121 165 C160 132 210 114 261 114 C311 114 362 132 401 165 L457 108 L486 137 Z M432 333 C432 239 355 162 261 162 C167 162 90 239 90 333 C90 428 167 504 261 504 C355 504 432 428 432 333 L432 333 Z " />
<glyph glyph-name="yen" unicode="&#xa5;" horiz-adv-x="664" d="M434 0 L434 107 L641 107 L641 212 L434 212 L434 265 L641 265 L641 370 L499 370 L682 667 L455 667 L333 442 L209 667 L-18 667 L166 370 L25 370 L25 265 L232 265 L232 212 L25 212 L25 107 L232 107 L232 0 L434 0 Z " />
<glyph glyph-name="brokenbar" unicode="&#xa6;" horiz-adv-x="222" d="M168 -20 L168 296 L54 296 L54 -20 L168 -20 Z M168 371 L168 687 L54 687 L54 371 L168 371 Z " />
<glyph glyph-name="section" unicode="&#xa7;" horiz-adv-x="500" d="M475 336 C475 525 201 470 201 528 C201 546 218 555 253 555 C301 555 354 534 388 507 L453 612 C415 645 352 677 244 677 C123 677 29 613 29 524 C29 469 53 420 109 394 C79 379 29 337 29 273 C29 77 303 136 303 68 C303 48 281 41 246 41 C186 41 117 79 81 111 L12 -1 C63 -43 143 -81 246 -81 C376 -81 475 -20 475 85 C475 151 441 188 400 208 C447 235 475 284 475 336 L475 336 Z M298 298 C298 276 290 260 264 249 C235 254 201 267 201 303 C201 326 210 345 244 351 C277 344 298 327 298 298 L298 298 Z " />
<glyph glyph-name="dieresis" unicode="&#xa8;" horiz-adv-x="318" d="M357 618 C357 668 317 707 267 707 C218 707 178 668 178 618 C178 568 218 529 267 529 C317 529 357 568 357 618 L357 618 Z M140 618 C140 668 101 707 51 707 C1 707 -38 668 -38 618 C-38 568 1 529 51 529 C101 529 140 568 140 618 L140 618 Z " />
<glyph glyph-name="copyright" unicode="&#xa9;" horiz-adv-x="778" d="M734 334 C734 525 580 679 389 679 C199 679 44 525 44 334 C44 144 199 -11 389 -11 C580 -11 734 144 734 334 L734 334 Z M692 334 C692 168 556 31 389 31 C223 31 86 168 86 334 C86 501 223 637 389 637 C556 637 692 501 692 334 L692 334 Z M511 231 C485 196 445 172 397 172 C312 172 244 242 244 335 C244 429 312 496 397 496 C444 496 484 473 510 438 L547 475 C512 516 459 543 397 543 C282 543 189 457 189 335 C189 213 282 125 397 125 C459 125 513 153 549 195 L511 231 Z " />
<glyph glyph-name="ordfeminine" unicode="&#xaa;" horiz-adv-x="392" d="M352 326 L352 509 C352 621 271 648 191 648 C144 648 82 634 38 601 L82 519 C107 542 139 555 168 555 C207 555 225 536 225 512 L225 488 C214 501 183 521 129 521 C79 521 20 492 20 421 C20 350 79 318 129 318 C183 318 214 341 225 355 L225 326 L352 326 Z M183 395 C166 395 145 399 145 421 C145 442 166 447 183 447 C199 447 218 440 225 429 L225 414 C218 402 199 395 183 395 L183 395 Z " />
<glyph glyph-name="guillemotleft" unicode="&#xab;" horiz-adv-x="615" d="M585 63 L425 243 L585 420 L425 420 L265 243 L425 63 L585 63 Z M350 63 L190 243 L350 420 L190 420 L30 243 L190 63 L350 63 Z " />
<glyph glyph-name="logicalnot" unicode="&#xac;" horiz-adv-x="527" d="M481 478 L29 478 L29 373 L373 373 L373 190 L481 190 L481 478 Z " />
<glyph glyph-name="registered" unicode="&#xae;" horiz-adv-x="494" d="M459 465 C459 583 365 677 247 677 C130 677 35 583 35 465 C35 348 130 253 247 253 C365 253 459 348 459 465 L459 465 Z M424 465 C424 368 345 288 247 288 C149 288 70 368 70 465 C70 564 149 642 247 642 C345 642 424 564 424 465 L424 465 Z M349 343 L284 440 C298 440 346 458 346 512 C346 557 305 586 264 586 L165 586 L165 343 L202 343 L202 439 L241 439 L304 343 L349 343 Z M308 512 C308 487 285 471 264 471 L202 471 L202 555 L264 555 C285 555 308 539 308 512 L308 512 Z " />
<glyph glyph-name="&amp;#xaf;" unicode="&#xaf;" horiz-adv-x="363" d="M363 591 L363 688 L0 688 L0 591 L363 591 Z " />
<glyph glyph-name="&amp;#x203e;" unicode="&#x203e;" horiz-adv-x="363" d="M363 591 L363 688 L0 688 L0 591 L363 591 Z " />
<glyph glyph-name="degree" unicode="&#xb0;" horiz-adv-x="331" d="M314 528 C314 610 247 677 165 677 C83 677 17 610 17 528 C17 446 83 380 165 380 C247 380 314 446 314 528 L314 528 Z M224 528 C224 496 197 471 165 471 C133 471 108 496 108 528 C108 560 133 587 165 587 C197 587 224 560 224 528 L224 528 Z " />
<glyph glyph-name="plusminus" unicode="&#xb1;" horiz-adv-x="510" d="M481 328 L481 433 L313 433 L313 618 L197 618 L197 433 L29 433 L29 328 L197 328 L197 135 L313 135 L313 328 L481 328 Z M481 0 L481 105 L29 105 L29 0 L481 0 Z " />
<glyph glyph-name="twosuperior" unicode="&#xb2;" horiz-adv-x="407" d="M380 421 L380 525 L232 525 C346 604 376 646 376 696 C376 776 308 827 197 827 C143 827 71 810 22 759 L88 675 C107 696 151 723 194 723 C227 723 244 708 244 685 C244 662 234 649 42 516 L42 421 L380 421 Z " />
<glyph glyph-name="threesuperior" unicode="&#xb3;" horiz-adv-x="407" d="M383 534 C383 590 332 623 287 627 C341 636 376 675 376 716 C376 780 321 827 203 827 C121 827 65 800 28 761 L86 684 C115 711 154 723 188 723 C222 723 245 717 245 698 C245 678 228 672 178 672 C163 672 139 672 130 673 L130 571 C136 572 161 572 179 572 C224 572 252 570 252 544 C252 530 235 518 197 518 C169 518 119 530 85 563 L23 476 C58 440 120 414 202 414 C310 414 383 463 383 534 L383 534 Z " />
<glyph glyph-name="acute" unicode="&#xb4;" horiz-adv-x="275" d="M275 700 L120 700 L0 556 L120 556 L275 700 Z " />
<glyph glyph-name="&amp;#xb5;" unicode="&#xb5;" horiz-adv-x="606" d="M230 -184 L230 -12 C303 -7 350 25 376 54 L376 0 L556 0 L556 483 L376 483 L376 185 C361 168 340 147 300 147 C256 147 230 166 230 215 L230 483 L50 483 L50 -184 L230 -184 Z " />
<glyph glyph-name="&amp;#x3bc;" unicode="&#x3bc;" horiz-adv-x="606" d="M230 -184 L230 -12 C303 -7 350 25 376 54 L376 0 L556 0 L556 483 L376 483 L376 185 C361 168 340 147 300 147 C256 147 230 166 230 215 L230 483 L50 483 L50 -184 L230 -184 Z " />
<glyph glyph-name="paragraph" unicode="&#xb6;" horiz-adv-x="449" d="M427 -100 L427 667 L199 667 C104 667 27 590 27 495 C27 400 104 323 199 323 L199 -100 L279 -100 L279 587 L347 587 L347 -100 L427 -100 Z " />
<glyph glyph-name="&amp;#xb7;" unicode="&#xb7;" horiz-adv-x="283" d="M247 244 C247 302 199 351 141 351 C83 351 35 302 35 244 C35 187 83 138 141 138 C199 138 247 187 247 244 L247 244 Z " />
<glyph glyph-name="&amp;#x2219;" unicode="&#x2219;" horiz-adv-x="283" d="M247 244 C247 302 199 351 141 351 C83 351 35 302 35 244 C35 187 83 138 141 138 C199 138 247 187 247 244 L247 244 Z " />
<glyph glyph-name="cedilla" unicode="&#xb8;" horiz-adv-x="237" d="M119 -200 C183 -200 237 -168 237 -111 C237 -68 205 -38 169 -38 C156 -38 145 -41 135 -47 L160 11 L80 11 L50 -69 L109 -103 C115 -96 124 -91 135 -91 C148 -91 156 -97 156 -108 C156 -125 135 -132 114 -132 C86 -132 57 -120 31 -102 L0 -166 C22 -184 66 -200 119 -200 L119 -200 Z " />
<glyph glyph-name="onesuperior" unicode="&#xb9;" horiz-adv-x="336" d="M276 421 L276 821 L163 821 L0 663 L74 585 L144 654 L144 421 L276 421 Z " />
<glyph glyph-name="ordmasculine" unicode="&#xba;" horiz-adv-x="405" d="M202 318 C318 318 385 396 385 483 C385 570 318 648 202 648 C88 648 20 570 20 483 C20 396 88 318 202 318 L202 318 Z M202 418 C170 418 151 438 151 483 C151 528 170 546 202 546 C235 546 255 528 255 483 C255 438 235 418 202 418 L202 418 Z " />
<glyph glyph-name="guillemotright" unicode="&#xbb;" horiz-adv-x="615" d="M350 243 L190 420 L30 420 L190 243 L30 63 L190 63 L350 243 Z M585 243 L425 420 L265 420 L425 243 L265 63 L425 63 L585 243 Z " />
<glyph glyph-name="onequarter" unicode="&#xbc;" horiz-adv-x="897" d="M692 667 L594 667 L168 0 L265 0 L692 667 Z M884 71 L884 173 L837 173 L837 400 L652 400 L509 158 L509 71 L706 71 L706 0 L837 0 L837 71 L884 71 Z M706 173 L638 173 L706 291 L706 173 Z M276 267 L276 667 L163 667 L0 509 L74 431 L144 500 L144 267 L276 267 Z " />
<glyph glyph-name="onehalf" unicode="&#xbd;" horiz-adv-x="927" d="M692 667 L594 667 L168 0 L265 0 L692 667 Z M900 0 L900 104 L752 104 C866 183 896 225 896 275 C896 355 828 406 717 406 C663 406 591 389 542 338 L608 254 C627 275 671 302 714 302 C747 302 764 287 764 264 C764 241 754 228 562 95 L562 0 L900 0 Z M276 267 L276 667 L163 667 L0 509 L74 431 L144 500 L144 267 L276 267 Z " />
<glyph glyph-name="threequarters" unicode="&#xbe;" horiz-adv-x="964" d="M759 667 L661 667 L235 0 L332 0 L759 667 Z M951 71 L951 173 L904 173 L904 400 L719 400 L576 158 L576 71 L773 71 L773 0 L904 0 L904 71 L951 71 Z M773 173 L705 173 L773 291 L773 173 Z M383 380 C383 436 332 469 287 473 C341 482 376 521 376 562 C376 626 321 673 203 673 C121 673 65 646 28 607 L86 530 C115 557 154 569 188 569 C222 569 245 563 245 544 C245 524 228 518 178 518 C163 518 139 518 130 519 L130 417 C136 418 161 418 179 418 C224 418 252 416 252 390 C252 376 235 364 197 364 C169 364 119 376 85 409 L23 322 C58 286 120 260 202 260 C310 260 383 309 383 380 L383 380 Z " />
<glyph glyph-name="questiondown" unicode="&#xbf;" horiz-adv-x="401" d="M297 259 L139 223 C144 217 150 203 150 186 C150 118 8 108 8 -33 C8 -132 93 -194 228 -194 C306 -194 392 -165 450 -103 L338 26 C313 0 277 -16 251 -16 C220 -16 212 -7 212 5 C212 36 324 55 324 164 C324 204 313 237 297 259 L297 259 Z M222 495 C164 495 115 446 115 388 C115 330 164 281 222 281 C280 281 329 330 329 388 C329 446 280 495 222 495 L222 495 Z " />
<glyph glyph-name="Agrave" unicode="&#xc0;" horiz-adv-x="710" d="M454 728 L334 872 L179 872 L334 728 L454 728 Z M728 0 L482 667 L228 667 L-18 0 L211 0 L235 78 L475 78 L499 0 L728 0 Z M421 254 L289 254 L355 469 L421 254 Z " />
<glyph glyph-name="Aacute" unicode="&#xc1;" horiz-adv-x="710" d="M534 872 L379 872 L259 728 L379 728 L534 872 Z M728 0 L482 667 L228 667 L-18 0 L211 0 L235 78 L475 78 L499 0 L728 0 Z M421 254 L289 254 L355 469 L421 254 Z " />
<glyph glyph-name="Acircumflex" unicode="&#xc2;" horiz-adv-x="710" d="M524 728 L433 872 L277 872 L189 728 L294 728 L355 801 L419 728 L524 728 Z M728 0 L482 667 L228 667 L-18 0 L211 0 L235 78 L475 78 L499 0 L728 0 Z M421 254 L289 254 L355 469 L421 254 Z " />
<glyph glyph-name="Atilde" unicode="&#xc3;" horiz-adv-x="710" d="M408 726 C485 726 526 768 526 860 L437 860 C437 835 426 823 413 823 C386 823 365 866 303 866 C226 866 185 824 185 732 L274 732 C274 757 285 769 298 769 C325 769 346 726 408 726 L408 726 Z M728 0 L482 667 L228 667 L-18 0 L211 0 L235 78 L475 78 L499 0 L728 0 Z M421 254 L289 254 L355 469 L421 254 Z " />
<glyph glyph-name="Adieresis" unicode="&#xc4;" horiz-adv-x="710" d="M553 795 C553 845 513 884 463 884 C414 884 374 845 374 795 C374 745 414 706 463 706 C513 706 553 745 553 795 L553 795 Z M336 795 C336 845 297 884 247 884 C197 884 158 845 158 795 C158 745 197 706 247 706 C297 706 336 745 336 795 L336 795 Z M728 0 L482 667 L228 667 L-18 0 L211 0 L235 78 L475 78 L499 0 L728 0 Z M421 254 L289 254 L355 469 L421 254 Z " />
<glyph glyph-name="Aring" unicode="&#xc5;" horiz-adv-x="710" d="M356 693 C417 693 466 744 466 805 C466 866 417 917 356 917 C295 917 244 866 244 805 C244 744 295 693 356 693 L356 693 Z M356 770 C337 770 321 786 321 805 C321 824 337 840 356 840 C375 840 390 824 390 805 C390 786 375 770 356 770 L356 770 Z M728 0 L482 667 L228 667 L-18 0 L211 0 L235 78 L475 78 L499 0 L728 0 Z M421 254 L289 254 L355 469 L421 254 Z " />
<glyph glyph-name="AE" unicode="&#xc6;" horiz-adv-x="989" d="M959 0 L959 176 L655 176 L655 249 L952 249 L952 425 L655 425 L655 491 L959 491 L959 667 L370 667 L-25 0 L205 0 L246 78 L453 78 L453 0 L959 0 Z M453 254 L340 254 L453 469 L453 254 Z " />
<glyph glyph-name="Ccedilla" unicode="&#xc7;" horiz-adv-x="697" d="M379 -196 C443 -196 497 -164 497 -107 C497 -64 465 -34 429 -34 C416 -34 405 -37 395 -43 L408 -11 C568 -2 651 98 688 183 L514 263 C497 211 445 166 385 166 C288 166 223 240 223 333 C223 426 288 500 385 500 C445 500 497 455 514 403 L688 484 C648 576 560 678 385 678 C176 678 18 539 18 333 C18 146 149 13 331 -8 L310 -65 L369 -99 C375 -92 384 -87 395 -87 C408 -87 416 -93 416 -104 C416 -121 395 -128 374 -128 C346 -128 317 -116 291 -98 L260 -162 C282 -180 326 -196 379 -196 L379 -196 Z " />
<glyph glyph-name="Egrave" unicode="&#xc8;" horiz-adv-x="596" d="M406 728 L286 872 L131 872 L286 728 L406 728 Z M560 0 L560 176 L256 176 L256 249 L553 249 L553 425 L256 425 L256 491 L560 491 L560 667 L54 667 L54 0 L560 0 Z " />
<glyph glyph-name="Eacute" unicode="&#xc9;" horiz-adv-x="596" d="M485 872 L330 872 L210 728 L330 728 L485 872 Z M560 0 L560 176 L256 176 L256 249 L553 249 L553 425 L256 425 L256 491 L560 491 L560 667 L54 667 L54 0 L560 0 Z " />
<glyph glyph-name="Ecircumflex" unicode="&#xca;" horiz-adv-x="596" d="M475 728 L384 872 L228 872 L140 728 L245 728 L306 801 L370 728 L475 728 Z M560 0 L560 176 L256 176 L256 249 L553 249 L553 425 L256 425 L256 491 L560 491 L560 667 L54 667 L54 0 L560 0 Z " />
<glyph glyph-name="Edieresis" unicode="&#xcb;" horiz-adv-x="596" d="M508 795 C508 845 468 884 418 884 C369 884 329 845 329 795 C329 745 369 706 418 706 C468 706 508 745 508 795 L508 795 Z M291 795 C291 845 252 884 202 884 C152 884 113 845 113 795 C113 745 152 706 202 706 C252 706 291 745 291 795 L291 795 Z M560 0 L560 176 L256 176 L256 249 L553 249 L553 425 L256 425 L256 491 L560 491 L560 667 L54 667 L54 0 L560 0 Z " />
<glyph glyph-name="Igrave" unicode="&#xcc;" horiz-adv-x="310" d="M251 728 L131 872 L-24 872 L131 728 L251 728 Z M256 0 L256 667 L54 667 L54 0 L256 0 Z " />
<glyph glyph-name="Iacute" unicode="&#xcd;" horiz-adv-x="310" d="M336 872 L181 872 L61 728 L181 728 L336 872 Z M256 0 L256 667 L54 667 L54 0 L256 0 Z " />
<glyph glyph-name="Icircumflex" unicode="&#xce;" horiz-adv-x="310" d="M321 728 L230 872 L74 872 L-14 728 L91 728 L152 801 L216 728 L321 728 Z M256 0 L256 667 L54 667 L54 0 L256 0 Z " />
<glyph glyph-name="Idieresis" unicode="&#xcf;" horiz-adv-x="310" d="M353 794 C353 844 313 883 263 883 C214 883 174 844 174 794 C174 744 214 705 263 705 C313 705 353 744 353 794 L353 794 Z M136 794 C136 844 97 883 47 883 C-3 883 -42 844 -42 794 C-42 744 -3 705 47 705 C97 705 136 744 136 794 L136 794 Z M256 0 L256 667 L54 667 L54 0 L256 0 Z " />
<glyph glyph-name="Eth" unicode="&#xd0;" horiz-adv-x="757" d="M374 0 C583 0 739 121 739 334 C739 547 583 667 373 667 L75 667 L75 413 L7 413 L7 254 L75 254 L75 0 L374 0 Z M406 254 L406 413 L277 413 L277 491 L374 491 C482 491 534 424 534 334 C534 250 474 176 373 176 L277 176 L277 254 L406 254 Z " />
<glyph glyph-name="Ntilde" unicode="&#xd1;" horiz-adv-x="750" d="M426 726 C503 726 544 768 544 860 L455 860 C455 835 444 823 431 823 C404 823 383 866 321 866 C244 866 203 824 203 732 L292 732 C292 757 303 769 316 769 C343 769 364 726 426 726 L426 726 Z M696 0 L696 667 L494 667 L494 351 L262 667 L54 667 L54 0 L256 0 L256 338 L502 0 L696 0 Z " />
<glyph glyph-name="Ograve" unicode="&#xd2;" horiz-adv-x="766" d="M483 728 L363 872 L208 872 L363 728 L483 728 Z M383 -12 C589 -12 748 128 748 333 C748 538 589 678 383 678 C177 678 18 538 18 333 C18 128 177 -12 383 -12 L383 -12 Z M383 166 C286 166 223 240 223 333 C223 426 286 500 383 500 C480 500 543 426 543 333 C543 240 480 166 383 166 L383 166 Z " />
<glyph glyph-name="Oacute" unicode="&#xd3;" horiz-adv-x="766" d="M562 872 L407 872 L287 728 L407 728 L562 872 Z M383 -12 C589 -12 748 128 748 333 C748 538 589 678 383 678 C177 678 18 538 18 333 C18 128 177 -12 383 -12 L383 -12 Z M383 166 C286 166 223 240 223 333 C223 426 286 500 383 500 C480 500 543 426 543 333 C543 240 480 166 383 166 L383 166 Z " />
<glyph glyph-name="Ocircumflex" unicode="&#xd4;" horiz-adv-x="766" d="M554 728 L463 872 L307 872 L219 728 L324 728 L385 801 L449 728 L554 728 Z M383 -12 C589 -12 748 128 748 333 C748 538 589 678 383 678 C177 678 18 538 18 333 C18 128 177 -12 383 -12 L383 -12 Z M383 166 C286 166 223 240 223 333 C223 426 286 500 383 500 C480 500 543 426 543 333 C543 240 480 166 383 166 L383 166 Z " />
<glyph glyph-name="Otilde" unicode="&#xd5;" horiz-adv-x="766" d="M436 726 C513 726 554 768 554 860 L465 860 C465 835 454 823 441 823 C414 823 393 866 331 866 C254 866 213 824 213 732 L302 732 C302 757 313 769 326 769 C353 769 374 726 436 726 L436 726 Z M383 -12 C589 -12 748 128 748 333 C748 538 589 678 383 678 C177 678 18 538 18 333 C18 128 177 -12 383 -12 L383 -12 Z M383 166 C286 166 223 240 223 333 C223 426 286 500 383 500 C480 500 543 426 543 333 C543 240 480 166 383 166 L383 166 Z " />
<glyph glyph-name="Odieresis" unicode="&#xd6;" horiz-adv-x="766" d="M584 795 C584 845 544 884 494 884 C445 884 405 845 405 795 C405 745 445 706 494 706 C544 706 584 745 584 795 L584 795 Z M367 795 C367 845 328 884 278 884 C228 884 189 845 189 795 C189 745 228 706 278 706 C328 706 367 745 367 795 L367 795 Z M383 -12 C589 -12 748 128 748 333 C748 538 589 678 383 678 C177 678 18 538 18 333 C18 128 177 -12 383 -12 L383 -12 Z M383 166 C286 166 223 240 223 333 C223 426 286 500 383 500 C480 500 543 426 543 333 C543 240 480 166 383 166 L383 166 Z " />
<glyph glyph-name="multiply" unicode="&#xd7;" horiz-adv-x="510" d="M389 126 L463 200 L330 334 L463 468 L389 542 L255 408 L122 542 L47 468 L181 334 L47 200 L122 126 L255 260 L389 126 Z " />
<glyph glyph-name="Oslash" unicode="&#xd8;" horiz-adv-x="766" d="M383 -12 C589 -12 748 128 748 333 C748 433 710 517 648 577 L724 667 L586 667 L561 638 C508 663 448 678 383 678 C177 678 18 538 18 333 C18 240 50 161 105 102 L18 0 L156 0 L187 37 C243 5 310 -12 383 -12 L383 -12 Z M383 166 C356 166 332 172 311 182 L518 425 C534 399 543 367 543 333 C543 240 480 166 383 166 L383 166 Z M223 333 C223 426 286 500 383 500 C402 500 420 497 436 491 L238 258 C228 280 223 306 223 333 L223 333 Z " />
<glyph glyph-name="Ugrave" unicode="&#xd9;" horiz-adv-x="767" d="M484 728 L364 872 L209 872 L364 728 L484 728 Z M384 -12 C609 -12 713 109 713 275 L713 667 L508 667 L508 281 C508 217 466 166 384 166 C301 166 259 217 259 281 L259 667 L54 667 L54 274 C54 109 159 -12 384 -12 L384 -12 Z " />
<glyph glyph-name="Uacute" unicode="&#xda;" horiz-adv-x="767" d="M564 872 L409 872 L289 728 L409 728 L564 872 Z M384 -12 C609 -12 713 109 713 275 L713 667 L508 667 L508 281 C508 217 466 166 384 166 C301 166 259 217 259 281 L259 667 L54 667 L54 274 C54 109 159 -12 384 -12 L384 -12 Z " />
<glyph glyph-name="Ucircumflex" unicode="&#xdb;" horiz-adv-x="767" d="M559 728 L468 872 L312 872 L224 728 L329 728 L390 801 L454 728 L559 728 Z M384 -12 C609 -12 713 109 713 275 L713 667 L508 667 L508 281 C508 217 466 166 384 166 C301 166 259 217 259 281 L259 667 L54 667 L54 274 C54 109 159 -12 384 -12 L384 -12 Z " />
<glyph glyph-name="Udieresis" unicode="&#xdc;" horiz-adv-x="767" d="M585 795 C585 845 545 884 495 884 C446 884 406 845 406 795 C406 745 446 706 495 706 C545 706 585 745 585 795 L585 795 Z M368 795 C368 845 329 884 279 884 C229 884 190 845 190 795 C190 745 229 706 279 706 C329 706 368 745 368 795 L368 795 Z M384 -12 C609 -12 713 109 713 275 L713 667 L508 667 L508 281 C508 217 466 166 384 166 C301 166 259 217 259 281 L259 667 L54 667 L54 274 C54 109 159 -12 384 -12 L384 -12 Z " />
<glyph glyph-name="Yacute" unicode="&#xdd;" horiz-adv-x="664" d="M512 872 L357 872 L237 728 L357 728 L512 872 Z M434 0 L434 265 L682 667 L455 667 L333 442 L209 667 L-18 667 L232 265 L232 0 L434 0 Z " />
<glyph glyph-name="Thorn" unicode="&#xde;" horiz-adv-x="662" d="M256 0 L256 114 L410 114 C566 114 650 216 650 341 C650 466 566 571 410 571 L256 571 L256 667 L54 667 L54 0 L256 0 Z M384 290 L256 290 L256 395 L384 395 C418 395 445 377 445 342 C445 307 418 290 384 290 L384 290 Z " />
<glyph glyph-name="germandbls" unicode="&#xdf;" horiz-adv-x="688" d="M676 154 C676 354 442 305 442 340 C442 378 555 399 555 514 C555 615 439 677 318 677 C146 677 51 572 51 451 L51 0 L231 0 L231 451 C231 494 265 518 314 518 C345 518 370 508 370 486 C370 462 270 431 270 332 C270 142 504 187 504 143 C504 132 489 122 460 122 C410 122 348 150 322 183 L253 60 C306 15 370 -12 460 -12 C583 -12 676 52 676 154 L676 154 Z " />
<glyph glyph-name="agrave" unicode="&#xe0;" horiz-adv-x="559" d="M509 0 L509 292 C509 453 392 495 272 495 C199 495 109 474 44 422 L105 311 C143 340 194 358 239 358 C298 358 329 332 329 298 L329 248 C303 281 246 301 183 301 C111 301 17 267 17 147 C17 37 111 -12 183 -12 C243 -12 302 12 329 46 L329 0 L509 0 Z M258 105 C228 105 195 114 195 144 C195 174 228 184 258 184 C286 184 317 175 329 158 L329 131 C317 114 286 105 258 105 L258 105 Z M371 556 L251 700 L96 700 L251 556 L371 556 Z " />
<glyph glyph-name="aacute" unicode="&#xe1;" horiz-adv-x="559" d="M509 0 L509 292 C509 453 392 495 272 495 C199 495 109 474 44 422 L105 311 C143 340 194 358 239 358 C298 358 329 332 329 298 L329 248 C303 281 246 301 183 301 C111 301 17 267 17 147 C17 37 111 -12 183 -12 C243 -12 302 12 329 46 L329 0 L509 0 Z M258 105 C228 105 195 114 195 144 C195 174 228 184 258 184 C286 184 317 175 329 158 L329 131 C317 114 286 105 258 105 L258 105 Z M458 700 L303 700 L183 556 L303 556 L458 700 Z " />
<glyph glyph-name="acircumflex" unicode="&#xe2;" horiz-adv-x="559" d="M509 0 L509 292 C509 453 392 495 272 495 C199 495 109 474 44 422 L105 311 C143 340 194 358 239 358 C298 358 329 332 329 298 L329 248 C303 281 246 301 183 301 C111 301 17 267 17 147 C17 37 111 -12 183 -12 C243 -12 302 12 329 46 L329 0 L509 0 Z M258 105 C228 105 195 114 195 144 C195 174 228 184 258 184 C286 184 317 175 329 158 L329 131 C317 114 286 105 258 105 L258 105 Z M446 556 L355 700 L199 700 L111 556 L216 556 L277 629 L341 556 L446 556 Z " />
<glyph glyph-name="atilde" unicode="&#xe3;" horiz-adv-x="559" d="M509 0 L509 292 C509 453 392 495 272 495 C199 495 109 474 44 422 L105 311 C143 340 194 358 239 358 C298 358 329 332 329 298 L329 248 C303 281 246 301 183 301 C111 301 17 267 17 147 C17 37 111 -12 183 -12 C243 -12 302 12 329 46 L329 0 L509 0 Z M258 105 C228 105 195 114 195 144 C195 174 228 184 258 184 C286 184 317 175 329 158 L329 131 C317 114 286 105 258 105 L258 105 Z M328 554 C405 554 446 596 446 688 L357 688 C357 663 346 651 333 651 C306 651 285 694 223 694 C146 694 105 652 105 560 L194 560 C194 585 205 597 218 597 C245 597 266 554 328 554 L328 554 Z " />
<glyph glyph-name="adieresis" unicode="&#xe4;" horiz-adv-x="559" d="M509 0 L509 292 C509 453 392 495 272 495 C199 495 109 474 44 422 L105 311 C143 340 194 358 239 358 C298 358 329 332 329 298 L329 248 C303 281 246 301 183 301 C111 301 17 267 17 147 C17 37 111 -12 183 -12 C243 -12 302 12 329 46 L329 0 L509 0 Z M258 105 C228 105 195 114 195 144 C195 174 228 184 258 184 C286 184 317 175 329 158 L329 131 C317 114 286 105 258 105 L258 105 Z M471 618 C471 668 431 707 381 707 C332 707 292 668 292 618 C292 568 332 529 381 529 C431 529 471 568 471 618 L471 618 Z M254 618 C254 668 215 707 165 707 C115 707 76 668 76 618 C76 568 115 529 165 529 C215 529 254 568 254 618 L254 618 Z " />
<glyph glyph-name="aring" unicode="&#xe5;" horiz-adv-x="559" d="M509 0 L509 292 C509 453 392 495 272 495 C199 495 109 474 44 422 L105 311 C143 340 194 358 239 358 C298 358 329 332 329 298 L329 248 C303 281 246 301 183 301 C111 301 17 267 17 147 C17 37 111 -12 183 -12 C243 -12 302 12 329 46 L329 0 L509 0 Z M258 105 C228 105 195 114 195 144 C195 174 228 184 258 184 C286 184 317 175 329 158 L329 131 C317 114 286 105 258 105 L258 105 Z M277 534 C338 534 387 585 387 646 C387 707 338 758 277 758 C216 758 165 707 165 646 C165 585 216 534 277 534 L277 534 Z M277 611 C258 611 242 627 242 646 C242 665 258 681 277 681 C296 681 311 665 311 646 C311 627 296 611 277 611 L277 611 Z " />
<glyph glyph-name="ae" unicode="&#xe6;" horiz-adv-x="851" d="M839 186 L839 223 C839 393 730 495 598 495 C514 495 474 475 438 443 C399 478 350 495 272 495 C199 495 109 474 44 422 L105 310 C143 340 194 357 239 357 C298 357 329 331 329 298 L329 249 C301 282 242 301 183 301 C95 301 17 252 17 144 C17 34 111 -12 199 -12 C275 -12 350 18 395 63 C441 14 520 -12 594 -12 C666 -12 752 7 800 48 L722 163 C698 143 657 129 620 129 C556 129 524 159 511 186 L839 186 Z M509 300 C515 323 534 358 588 358 C646 358 663 321 668 300 L509 300 Z M333 133 C321 115 286 105 258 105 C228 105 195 114 195 144 C195 173 228 184 258 184 C286 184 317 174 329 157 C329 151 331 138 333 133 L333 133 Z " />
<glyph glyph-name="ccedilla" unicode="&#xe7;" horiz-adv-x="502" d="M293 -198 C357 -198 411 -166 411 -109 C411 -66 379 -36 343 -36 C330 -36 319 -39 309 -45 L324 -10 C413 0 469 43 493 79 L377 189 C362 167 334 147 296 147 C245 147 201 180 201 242 C201 304 245 336 296 336 C334 336 362 318 377 295 L493 404 C466 445 398 495 288 495 C135 495 17 395 17 242 C17 102 113 7 245 -9 L224 -67 L283 -101 C289 -94 298 -89 309 -89 C322 -89 330 -95 330 -106 C330 -123 309 -130 288 -130 C260 -130 231 -118 205 -100 L174 -164 C196 -182 240 -198 293 -198 L293 -198 Z " />
<glyph glyph-name="egrave" unicode="&#xe8;" horiz-adv-x="543" d="M286 -12 C358 -12 444 7 492 48 L418 159 C394 138 334 125 307 125 C248 125 213 155 203 186 L531 186 L531 223 C531 393 422 495 280 495 C124 495 17 382 17 242 C17 83 135 -12 286 -12 L286 -12 Z M360 300 L201 300 C207 322 225 358 280 358 C338 358 355 321 360 300 L360 300 Z M377 556 L257 700 L102 700 L257 556 L377 556 Z " />
<glyph glyph-name="eacute" unicode="&#xe9;" horiz-adv-x="543" d="M286 -12 C358 -12 444 7 492 48 L418 159 C394 138 334 125 307 125 C248 125 213 155 203 186 L531 186 L531 223 C531 393 422 495 280 495 C124 495 17 382 17 242 C17 83 135 -12 286 -12 L286 -12 Z M360 300 L201 300 C207 322 225 358 280 358 C338 358 355 321 360 300 L360 300 Z M460 700 L305 700 L185 556 L305 556 L460 700 Z " />
<glyph glyph-name="ecircumflex" unicode="&#xea;" horiz-adv-x="543" d="M286 -12 C358 -12 444 7 492 48 L418 159 C394 138 334 125 307 125 C248 125 213 155 203 186 L531 186 L531 223 C531 393 422 495 280 495 C124 495 17 382 17 242 C17 83 135 -12 286 -12 L286 -12 Z M360 300 L201 300 C207 322 225 358 280 358 C338 358 355 321 360 300 L360 300 Z M448 556 L357 700 L201 700 L113 556 L218 556 L279 629 L343 556 L448 556 Z " />
<glyph glyph-name="edieresis" unicode="&#xeb;" horiz-adv-x="543" d="M286 -12 C358 -12 444 7 492 48 L418 159 C394 138 334 125 307 125 C248 125 213 155 203 186 L531 186 L531 223 C531 393 422 495 280 495 C124 495 17 382 17 242 C17 83 135 -12 286 -12 L286 -12 Z M360 300 L201 300 C207 322 225 358 280 358 C338 358 355 321 360 300 L360 300 Z M479 618 C479 668 439 707 389 707 C340 707 300 668 300 618 C300 568 340 529 389 529 C439 529 479 568 479 618 L479 618 Z M262 618 C262 668 223 707 173 707 C123 707 84 668 84 618 C84 568 123 529 173 529 C223 529 262 568 262 618 L262 618 Z " />
<glyph glyph-name="igrave" unicode="&#xec;" horiz-adv-x="280" d="M237 556 L117 700 L-38 700 L117 556 L237 556 Z M230 0 L230 483 L50 483 L50 0 L230 0 Z " />
<glyph glyph-name="iacute" unicode="&#xed;" horiz-adv-x="280" d="M318 700 L163 700 L43 556 L163 556 L318 700 Z M230 0 L230 483 L50 483 L50 0 L230 0 Z " />
<glyph glyph-name="icircumflex" unicode="&#xee;" horiz-adv-x="280" d="M308 556 L217 700 L61 700 L-27 556 L78 556 L139 629 L203 556 L308 556 Z M230 0 L230 483 L50 483 L50 0 L230 0 Z " />
<glyph glyph-name="idieresis" unicode="&#xef;" horiz-adv-x="280" d="M338 618 C338 668 298 707 248 707 C199 707 159 668 159 618 C159 568 199 529 248 529 C298 529 338 568 338 618 L338 618 Z M121 618 C121 668 82 707 32 707 C-18 707 -57 668 -57 618 C-57 568 -18 529 32 529 C82 529 121 568 121 618 L121 618 Z M230 0 L230 483 L50 483 L50 0 L230 0 Z " />
<glyph glyph-name="eth" unicode="&#xf0;" horiz-adv-x="577" d="M84 440 L233 506 C306 455 370 399 387 345 C353 404 300 441 225 441 C112 441 17 351 17 215 C17 80 125 -12 288 -12 C460 -12 560 94 560 258 C560 382 507 485 403 582 L464 609 L431 684 L332 641 C292 671 248 701 198 731 L102 588 C117 579 133 570 149 560 L52 518 L84 440 Z M288 147 C233 147 202 175 202 215 C202 255 233 283 288 283 C344 283 375 255 375 215 C375 175 344 147 288 147 L288 147 Z " />
<glyph glyph-name="ntilde" unicode="&#xf1;" horiz-adv-x="607" d="M567 0 L567 343 C567 427 518 495 406 495 C321 495 268 460 240 428 L240 483 L60 483 L60 0 L240 0 L240 298 C255 315 276 336 317 336 C360 336 387 317 387 267 L387 0 L567 0 Z M357 554 C434 554 475 596 475 688 L386 688 C386 663 375 651 362 651 C335 651 314 694 252 694 C175 694 134 652 134 560 L223 560 C223 585 234 597 247 597 C274 597 295 554 357 554 L357 554 Z " />
<glyph glyph-name="ograve" unicode="&#xf2;" horiz-adv-x="577" d="M288 -12 C460 -12 560 107 560 242 C560 377 460 495 288 495 C117 495 17 377 17 242 C17 107 117 -12 288 -12 L288 -12 Z M288 147 C233 147 202 188 202 242 C202 295 233 336 288 336 C344 336 375 295 375 242 C375 188 344 147 288 147 L288 147 Z M386 556 L266 700 L111 700 L266 556 L386 556 Z " />
<glyph glyph-name="oacute" unicode="&#xf3;" horiz-adv-x="577" d="M288 -12 C460 -12 560 107 560 242 C560 377 460 495 288 495 C117 495 17 377 17 242 C17 107 117 -12 288 -12 L288 -12 Z M288 147 C233 147 202 188 202 242 C202 295 233 336 288 336 C344 336 375 295 375 242 C375 188 344 147 288 147 L288 147 Z M466 700 L311 700 L191 556 L311 556 L466 700 Z " />
<glyph glyph-name="ocircumflex" unicode="&#xf4;" horiz-adv-x="577" d="M288 -12 C460 -12 560 107 560 242 C560 377 460 495 288 495 C117 495 17 377 17 242 C17 107 117 -12 288 -12 L288 -12 Z M288 147 C233 147 202 188 202 242 C202 295 233 336 288 336 C344 336 375 295 375 242 C375 188 344 147 288 147 L288 147 Z M457 556 L366 700 L210 700 L122 556 L227 556 L288 629 L352 556 L457 556 Z " />
<glyph glyph-name="otilde" unicode="&#xf5;" horiz-adv-x="577" d="M288 -12 C460 -12 560 107 560 242 C560 377 460 495 288 495 C117 495 17 377 17 242 C17 107 117 -12 288 -12 L288 -12 Z M288 147 C233 147 202 188 202 242 C202 295 233 336 288 336 C344 336 375 295 375 242 C375 188 344 147 288 147 L288 147 Z M341 554 C418 554 459 596 459 688 L370 688 C370 663 359 651 346 651 C319 651 298 694 236 694 C159 694 118 652 118 560 L207 560 C207 585 218 597 231 597 C258 597 279 554 341 554 L341 554 Z " />
<glyph glyph-name="odieresis" unicode="&#xf6;" horiz-adv-x="577" d="M288 -12 C460 -12 560 107 560 242 C560 377 460 495 288 495 C117 495 17 377 17 242 C17 107 117 -12 288 -12 L288 -12 Z M288 147 C233 147 202 188 202 242 C202 295 233 336 288 336 C344 336 375 295 375 242 C375 188 344 147 288 147 L288 147 Z M486 618 C486 668 446 707 396 707 C347 707 307 668 307 618 C307 568 347 529 396 529 C446 529 486 568 486 618 L486 618 Z M269 618 C269 668 230 707 180 707 C130 707 91 668 91 618 C91 568 130 529 180 529 C230 529 269 568 269 618 L269 618 Z " />
<glyph glyph-name="divide" unicode="&#xf7;" horiz-adv-x="511" d="M331 505 C331 547 297 580 255 580 C213 580 179 547 179 505 C179 463 213 428 255 428 C297 428 331 463 331 505 L331 505 Z M482 285 L482 390 L29 390 L29 285 L482 285 Z M331 170 C331 212 297 246 255 246 C213 246 179 212 179 170 C179 128 213 94 255 94 C297 94 331 128 331 170 L331 170 Z " />
<glyph glyph-name="oslash" unicode="&#xf8;" horiz-adv-x="577" d="M119 0 L141 24 C181 1 230 -12 288 -12 C460 -12 560 107 560 242 C560 306 537 366 495 412 L560 483 L455 483 L434 460 C394 482 345 495 288 495 C117 495 17 377 17 242 C17 178 39 117 81 71 L17 0 L119 0 Z M288 147 C277 147 266 149 257 152 L370 275 C373 265 375 254 375 242 C375 188 344 147 288 147 L288 147 Z M202 242 C202 295 233 336 288 336 C299 336 308 335 317 332 L206 209 C203 219 202 230 202 242 L202 242 Z " />
<glyph glyph-name="ugrave" unicode="&#xf9;" horiz-adv-x="606" d="M556 0 L556 483 L376 483 L376 185 C361 168 340 147 300 147 C256 147 230 166 230 215 L230 483 L50 483 L50 138 C50 55 98 -12 210 -12 C295 -12 348 23 376 54 L376 0 L556 0 Z M402 556 L282 700 L127 700 L282 556 L402 556 Z " />
<glyph glyph-name="uacute" unicode="&#xfa;" horiz-adv-x="606" d="M556 0 L556 483 L376 483 L376 185 C361 168 340 147 300 147 C256 147 230 166 230 215 L230 483 L50 483 L50 138 C50 55 98 -12 210 -12 C295 -12 348 23 376 54 L376 0 L556 0 Z M482 700 L327 700 L207 556 L327 556 L482 700 Z " />
<glyph glyph-name="ucircumflex" unicode="&#xfb;" horiz-adv-x="606" d="M556 0 L556 483 L376 483 L376 185 C361 168 340 147 300 147 C256 147 230 166 230 215 L230 483 L50 483 L50 138 C50 55 98 -12 210 -12 C295 -12 348 23 376 54 L376 0 L556 0 Z M473 556 L382 700 L226 700 L138 556 L243 556 L304 629 L368 556 L473 556 Z " />
<glyph glyph-name="udieresis" unicode="&#xfc;" horiz-adv-x="606" d="M556 0 L556 483 L376 483 L376 185 C361 168 340 147 300 147 C256 147 230 166 230 215 L230 483 L50 483 L50 138 C50 55 98 -12 210 -12 C295 -12 348 23 376 54 L376 0 L556 0 Z M503 618 C503 668 463 707 413 707 C364 707 324 668 324 618 C324 568 364 529 413 529 C463 529 503 568 503 618 L503 618 Z M286 618 C286 668 247 707 197 707 C147 707 108 668 108 618 C108 568 147 529 197 529 C247 529 286 568 286 618 L286 618 Z " />
<glyph glyph-name="yacute" unicode="&#xfd;" horiz-adv-x="535" d="M45 -188 C62 -193 102 -196 115 -196 C217 -193 297 -172 340 -60 L550 483 L360 483 L267 207 L175 483 L-15 483 L175 -8 L171 -18 C165 -31 143 -37 108 -37 C96 -37 81 -34 70 -28 L45 -188 Z M445 700 L290 700 L170 556 L290 556 L445 700 Z " />
<glyph glyph-name="thorn" unicode="&#xfe;" horiz-adv-x="595" d="M366 -12 C486 -12 578 76 578 242 C578 407 486 495 366 495 C316 495 269 478 230 432 L230 667 L50 667 L50 -184 L230 -184 L230 51 C270 5 316 -12 366 -12 L366 -12 Z M304 147 C281 147 246 160 230 180 L230 303 C247 324 281 336 304 336 C352 336 394 302 394 242 C394 181 352 147 304 147 L304 147 Z " />
<glyph glyph-name="ydieresis" unicode="&#xff;" horiz-adv-x="535" d="M45 -188 C62 -193 102 -196 115 -196 C217 -193 297 -172 340 -60 L550 483 L360 483 L267 207 L175 483 L-15 483 L175 -8 L171 -18 C165 -31 143 -37 108 -37 C96 -37 81 -34 70 -28 L45 -188 Z M465 618 C465 668 425 707 375 707 C326 707 286 668 286 618 C286 568 326 529 375 529 C425 529 465 568 465 618 L465 618 Z M248 618 C248 668 209 707 159 707 C109 707 70 668 70 618 C70 568 109 529 159 529 C209 529 248 568 248 618 L248 618 Z " />
<glyph glyph-name="Amacron" unicode="&#x100;" horiz-adv-x="710" d="M728 0 L482 667 L228 667 L-18 0 L211 0 L235 78 L475 78 L499 0 L728 0 Z M421 254 L289 254 L355 469 L421 254 Z M536 745 L536 842 L173 842 L173 745 L536 745 Z " />
<glyph glyph-name="amacron" unicode="&#x101;" horiz-adv-x="559" d="M509 0 L509 292 C509 453 392 495 272 495 C199 495 109 474 44 422 L105 311 C143 340 194 358 239 358 C298 358 329 332 329 298 L329 248 C303 281 246 301 183 301 C111 301 17 267 17 147 C17 37 111 -12 183 -12 C243 -12 302 12 329 46 L329 0 L509 0 Z M258 105 C228 105 195 114 195 144 C195 174 228 184 258 184 C286 184 317 175 329 158 L329 131 C317 114 286 105 258 105 L258 105 Z M457 571 L457 668 L94 668 L94 571 L457 571 Z " />
<glyph glyph-name="Abreve" unicode="&#x102;" horiz-adv-x="710" d="M728 0 L482 667 L228 667 L-18 0 L211 0 L235 78 L475 78 L499 0 L728 0 Z M421 254 L289 254 L355 469 L421 254 Z M530 796 L455 858 C431 824 397 805 355 805 C311 805 277 827 255 858 L179 796 C220 742 284 708 355 708 C427 708 490 742 530 796 L530 796 Z " />
<glyph glyph-name="abreve" unicode="&#x103;" horiz-adv-x="559" d="M509 0 L509 292 C509 453 392 495 272 495 C199 495 109 474 44 422 L105 311 C143 340 194 358 239 358 C298 358 329 332 329 298 L329 248 C303 281 246 301 183 301 C111 301 17 267 17 147 C17 37 111 -12 183 -12 C243 -12 302 12 329 46 L329 0 L509 0 Z M258 105 C228 105 195 114 195 144 C195 174 228 184 258 184 C286 184 317 175 329 158 L329 131 C317 114 286 105 258 105 L258 105 Z M451 637 L376 699 C352 665 318 646 276 646 C232 646 198 668 176 699 L100 637 C141 583 205 549 276 549 C348 549 411 583 451 637 L451 637 Z " />
<glyph glyph-name="Aogonek" unicode="&#x104;" horiz-adv-x="710" d="M727 -90 C721 -105 710 -118 692 -118 C680 -118 663 -111 663 -84 C663 -55 679 -25 728 0 L482 667 L228 667 L-18 0 L211 0 L235 78 L475 78 L499 0 L621 0 C595 -26 582 -56 582 -92 C582 -159 635 -186 692 -186 C738 -186 771 -166 793 -133 L727 -90 Z M421 254 L289 254 L355 469 L421 254 Z " />
<glyph glyph-name="aogonek" unicode="&#x105;" horiz-adv-x="559" d="M508 -90 C502 -105 491 -118 473 -118 C461 -118 444 -111 444 -84 C444 -55 460 -25 509 0 L509 292 C509 453 392 495 272 495 C199 495 109 474 44 422 L105 311 C143 340 194 358 239 358 C298 358 329 332 329 298 L329 248 C303 281 246 301 183 301 C111 301 17 267 17 147 C17 37 111 -12 183 -12 C243 -12 302 12 329 46 L329 0 L402 0 C376 -26 363 -56 363 -92 C363 -159 416 -186 473 -186 C519 -186 552 -166 574 -133 L508 -90 Z M258 105 C228 105 195 114 195 144 C195 174 228 184 258 184 C286 184 317 175 329 158 L329 131 C317 114 286 105 258 105 L258 105 Z " />
<glyph glyph-name="Cacute" unicode="&#x106;" horiz-adv-x="697" d="M385 -12 C560 -12 649 94 688 183 L514 263 C497 211 445 166 385 166 C288 166 223 240 223 333 C223 426 288 500 385 500 C445 500 497 455 514 403 L688 484 C648 576 560 678 385 678 C176 678 18 539 18 333 C18 128 176 -12 385 -12 L385 -12 Z M561 872 L406 872 L286 728 L406 728 L561 872 Z " />
<glyph glyph-name="cacute" unicode="&#x107;" horiz-adv-x="502" d="M288 -12 C398 -12 466 39 493 79 L377 189 C362 167 334 147 296 147 C245 147 201 180 201 242 C201 304 245 336 296 336 C334 336 362 318 377 295 L493 404 C466 445 398 495 288 495 C135 495 17 395 17 242 C17 88 135 -12 288 -12 L288 -12 Z M475 700 L320 700 L200 556 L320 556 L475 700 Z " />
<glyph glyph-name="Ccircumflex" unicode="&#x108;" horiz-adv-x="697" d="M385 -12 C560 -12 649 94 688 183 L514 263 C497 211 445 166 385 166 C288 166 223 240 223 333 C223 426 288 500 385 500 C445 500 497 455 514 403 L688 484 C648 576 560 678 385 678 C176 678 18 539 18 333 C18 128 176 -12 385 -12 L385 -12 Z M551 728 L460 872 L304 872 L216 728 L321 728 L382 801 L446 728 L551 728 Z " />
<glyph glyph-name="ccircumflex" unicode="&#x109;" horiz-adv-x="502" d="M288 -12 C398 -12 466 39 493 79 L377 189 C362 167 334 147 296 147 C245 147 201 180 201 242 C201 304 245 336 296 336 C334 336 362 318 377 295 L493 404 C466 445 398 495 288 495 C135 495 17 395 17 242 C17 88 135 -12 288 -12 L288 -12 Z M466 556 L375 700 L219 700 L131 556 L236 556 L297 629 L361 556 L466 556 Z " />
<glyph glyph-name="Cdotaccent" unicode="&#x10a;" horiz-adv-x="697" d="M385 -12 C560 -12 649 94 688 183 L514 263 C497 211 445 166 385 166 C288 166 223 240 223 333 C223 426 288 500 385 500 C445 500 497 455 514 403 L688 484 C648 576 560 678 385 678 C176 678 18 539 18 333 C18 128 176 -12 385 -12 L385 -12 Z M387 706 C435 706 475 746 475 795 C475 844 435 884 387 884 C338 884 298 844 298 795 C298 746 338 706 387 706 L387 706 Z " />
<glyph glyph-name="cdotaccent" unicode="&#x10b;" horiz-adv-x="502" d="M288 -12 C398 -12 466 39 493 79 L377 189 C362 167 334 147 296 147 C245 147 201 180 201 242 C201 304 245 336 296 336 C334 336 362 318 377 295 L493 404 C466 445 398 495 288 495 C135 495 17 395 17 242 C17 88 135 -12 288 -12 L288 -12 Z M287 530 C335 530 375 570 375 619 C375 668 335 708 287 708 C238 708 198 668 198 619 C198 570 238 530 287 530 L287 530 Z " />
<glyph glyph-name="Ccaron" unicode="&#x10c;" horiz-adv-x="697" d="M385 -12 C560 -12 649 94 688 183 L514 263 C497 211 445 166 385 166 C288 166 223 240 223 333 C223 426 288 500 385 500 C445 500 497 455 514 403 L688 484 C648 576 560 678 385 678 C176 678 18 539 18 333 C18 128 176 -12 385 -12 L385 -12 Z M463 728 L551 872 L446 872 L385 799 L321 872 L216 872 L307 728 L463 728 Z " />
<glyph glyph-name="ccaron" unicode="&#x10d;" horiz-adv-x="502" d="M288 -12 C398 -12 466 39 493 79 L377 189 C362 167 334 147 296 147 C245 147 201 180 201 242 C201 304 245 336 296 336 C334 336 362 318 377 295 L493 404 C466 445 398 495 288 495 C135 495 17 395 17 242 C17 88 135 -12 288 -12 L288 -12 Z M378 556 L466 700 L361 700 L300 627 L236 700 L131 700 L222 556 L378 556 Z " />
<glyph glyph-name="Dcaron" unicode="&#x10e;" horiz-adv-x="736" d="M353 0 C562 0 718 121 718 334 C718 547 562 667 352 667 L54 667 L54 0 L353 0 Z M352 176 L256 176 L256 491 L353 491 C461 491 513 424 513 334 C513 250 453 176 352 176 L352 176 Z M453 728 L541 872 L436 872 L375 799 L311 872 L206 872 L297 728 L453 728 Z " />
<glyph glyph-name="dcaron" unicode="&#x10f;" horiz-adv-x="736" d="M546 0 L546 667 L366 667 L366 432 C328 478 279 495 230 495 C111 495 17 402 17 242 C17 76 113 -12 230 -12 C279 -12 325 5 366 51 L366 0 L546 0 Z M291 147 C242 147 201 182 201 242 C201 302 242 336 291 336 C315 336 349 325 366 304 L366 180 C349 159 315 147 291 147 L291 147 Z M742 582 C742 644 700 679 655 679 C613 679 577 644 577 600 C577 558 606 531 642 531 C650 531 658 532 661 534 C652 505 617 472 593 461 L648 417 C706 458 742 516 742 582 L742 582 Z " />
<glyph glyph-name="Dcroat" unicode="&#x110;" horiz-adv-x="757" d="M374 0 C583 0 739 121 739 334 C739 547 583 667 373 667 L75 667 L75 413 L7 413 L7 254 L75 254 L75 0 L374 0 Z M406 254 L406 413 L277 413 L277 491 L374 491 C482 491 534 424 534 334 C534 250 474 176 373 176 L277 176 L277 254 L406 254 Z " />
<glyph glyph-name="dcroat" unicode="&#x111;" horiz-adv-x="602" d="M546 0 L546 521 L595 521 L595 618 L546 618 L546 667 L366 667 L366 618 L232 618 L232 521 L366 521 L366 432 C328 478 279 495 230 495 C111 495 17 402 17 242 C17 76 113 -12 230 -12 C279 -12 325 5 366 51 L366 0 L546 0 Z M291 147 C242 147 201 182 201 242 C201 302 242 336 291 336 C315 336 349 325 366 304 L366 180 C349 159 315 147 291 147 L291 147 Z " />
<glyph glyph-name="Emacron" unicode="&#x112;" horiz-adv-x="596" d="M560 0 L560 176 L256 176 L256 249 L553 249 L553 425 L256 425 L256 491 L560 491 L560 667 L54 667 L54 0 L560 0 Z M485 745 L485 842 L122 842 L122 745 L485 745 Z " />
<glyph glyph-name="emacron" unicode="&#x113;" horiz-adv-x="543" d="M286 -12 C358 -12 444 7 492 48 L418 159 C394 138 334 125 307 125 C248 125 213 155 203 186 L531 186 L531 223 C531 393 422 495 280 495 C124 495 17 382 17 242 C17 83 135 -12 286 -12 L286 -12 Z M360 300 L201 300 C207 322 225 358 280 358 C338 358 355 321 360 300 L360 300 Z M455 571 L455 668 L92 668 L92 571 L455 571 Z " />
<glyph glyph-name="Ebreve" unicode="&#x114;" horiz-adv-x="596" d="M560 0 L560 176 L256 176 L256 249 L553 249 L553 425 L256 425 L256 491 L560 491 L560 667 L54 667 L54 0 L560 0 Z M478 796 L403 858 C379 824 345 805 303 805 C259 805 225 827 203 858 L127 796 C168 742 232 708 303 708 C375 708 438 742 478 796 L478 796 Z " />
<glyph glyph-name="ebreve" unicode="&#x115;" horiz-adv-x="543" d="M286 -12 C358 -12 444 7 492 48 L418 159 C394 138 334 125 307 125 C248 125 213 155 203 186 L531 186 L531 223 C531 393 422 495 280 495 C124 495 17 382 17 242 C17 83 135 -12 286 -12 L286 -12 Z M360 300 L201 300 C207 322 225 358 280 358 C338 358 355 321 360 300 L360 300 Z M457 637 L382 699 C358 665 324 646 282 646 C238 646 204 668 182 699 L106 637 C147 583 211 549 282 549 C354 549 417 583 457 637 L457 637 Z " />
<glyph glyph-name="Edotaccent" unicode="&#x116;" horiz-adv-x="596" d="M560 0 L560 176 L256 176 L256 249 L553 249 L553 425 L256 425 L256 491 L560 491 L560 667 L54 667 L54 0 L560 0 Z M306 706 C354 706 394 746 394 795 C394 844 354 884 306 884 C257 884 217 844 217 795 C217 746 257 706 306 706 L306 706 Z " />
<glyph glyph-name="edotaccent" unicode="&#x117;" horiz-adv-x="543" d="M286 -12 C358 -12 444 7 492 48 L418 159 C394 138 334 125 307 125 C248 125 213 155 203 186 L531 186 L531 223 C531 393 422 495 280 495 C124 495 17 382 17 242 C17 83 135 -12 286 -12 L286 -12 Z M360 300 L201 300 C207 322 225 358 280 358 C338 358 355 321 360 300 L360 300 Z M282 530 C330 530 370 570 370 619 C370 668 330 708 282 708 C233 708 193 668 193 619 C193 570 233 530 282 530 L282 530 Z " />
<glyph glyph-name="Eogonek" unicode="&#x118;" horiz-adv-x="596" d="M559 -90 C553 -105 542 -118 524 -118 C512 -118 495 -111 495 -84 C495 -55 511 -25 560 0 L560 176 L256 176 L256 249 L553 249 L553 425 L256 425 L256 491 L560 491 L560 667 L54 667 L54 0 L453 0 C427 -26 414 -56 414 -92 C414 -159 467 -186 524 -186 C570 -186 603 -166 625 -133 L559 -90 Z " />
<glyph glyph-name="eogonek" unicode="&#x119;" horiz-adv-x="543" d="M385 -90 C379 -105 368 -118 350 -118 C338 -118 321 -111 321 -84 C321 -55 337 -26 384 -1 C426 8 465 25 492 48 L418 159 C394 138 334 125 307 125 C248 125 213 155 203 186 L531 186 L531 223 C531 393 422 495 280 495 C124 495 17 382 17 242 C17 89 126 -4 268 -11 C249 -35 240 -61 240 -92 C240 -159 293 -186 350 -186 C396 -186 429 -166 451 -133 L385 -90 Z M360 300 L201 300 C207 322 225 358 280 358 C338 358 355 321 360 300 L360 300 Z " />
<glyph glyph-name="Ecaron" unicode="&#x11a;" horiz-adv-x="596" d="M560 0 L560 176 L256 176 L256 249 L553 249 L553 425 L256 425 L256 491 L560 491 L560 667 L54 667 L54 0 L560 0 Z M387 728 L475 872 L370 872 L309 799 L245 872 L140 872 L231 728 L387 728 Z " />
<glyph glyph-name="ecaron" unicode="&#x11b;" horiz-adv-x="543" d="M286 -12 C358 -12 444 7 492 48 L418 159 C394 138 334 125 307 125 C248 125 213 155 203 186 L531 186 L531 223 C531 393 422 495 280 495 C124 495 17 382 17 242 C17 83 135 -12 286 -12 L286 -12 Z M360 300 L201 300 C207 322 225 358 280 358 C338 358 355 321 360 300 L360 300 Z M357 556 L445 700 L340 700 L279 627 L215 700 L110 700 L201 556 L357 556 Z " />
<glyph glyph-name="Gcircumflex" unicode="&#x11c;" horiz-adv-x="726" d="M385 -12 C516 -12 616 41 690 123 L690 396 L365 396 L365 220 L489 220 L489 196 C468 180 423 166 385 166 C288 166 223 240 223 333 C223 426 288 500 385 500 C445 500 489 458 508 417 L678 504 C636 590 544 678 385 678 C183 678 18 547 18 333 C18 120 183 -12 385 -12 L385 -12 Z M553 728 L462 872 L306 872 L218 728 L323 728 L384 801 L448 728 L553 728 Z " />
<glyph glyph-name="gcircumflex" unicode="&#x11d;" horiz-adv-x="595" d="M253 -196 C373 -196 545 -157 545 52 L545 483 L365 483 L365 432 C326 478 279 495 229 495 C110 495 17 415 17 254 C17 89 113 13 229 13 C279 13 324 31 365 78 L365 52 C365 -33 295 -49 253 -49 C201 -49 146 -33 109 4 L33 -124 C96 -174 170 -196 253 -196 L253 -196 Z M291 172 C242 172 201 195 201 254 C201 313 242 336 291 336 C314 336 348 325 365 305 L365 203 C348 183 314 172 291 172 L291 172 Z M473 546 L382 690 L226 690 L138 546 L243 546 L304 619 L368 546 L473 546 Z " />
<glyph glyph-name="Gbreve" unicode="&#x11e;" horiz-adv-x="726" d="M385 -12 C516 -12 616 41 690 123 L690 396 L365 396 L365 220 L489 220 L489 196 C468 180 423 166 385 166 C288 166 223 240 223 333 C223 426 288 500 385 500 C445 500 489 458 508 417 L678 504 C636 590 544 678 385 678 C183 678 18 547 18 333 C18 120 183 -12 385 -12 L385 -12 Z M560 796 L485 858 C461 824 427 805 385 805 C341 805 307 827 285 858 L209 796 C250 742 314 708 385 708 C457 708 520 742 560 796 L560 796 Z " />
<glyph glyph-name="gbreve" unicode="&#x11f;" horiz-adv-x="595" d="M253 -196 C373 -196 545 -157 545 52 L545 483 L365 483 L365 432 C326 478 279 495 229 495 C110 495 17 415 17 254 C17 89 113 13 229 13 C279 13 324 31 365 78 L365 52 C365 -33 295 -49 253 -49 C201 -49 146 -33 109 4 L33 -124 C96 -174 170 -196 253 -196 L253 -196 Z M291 172 C242 172 201 195 201 254 C201 313 242 336 291 336 C314 336 348 325 365 305 L365 203 C348 183 314 172 291 172 L291 172 Z M469 637 L394 699 C370 665 336 646 294 646 C250 646 216 668 194 699 L118 637 C159 583 223 549 294 549 C366 549 429 583 469 637 L469 637 Z " />
<glyph glyph-name="Gdotaccent" unicode="&#x120;" horiz-adv-x="726" d="M385 -12 C516 -12 616 41 690 123 L690 396 L365 396 L365 220 L489 220 L489 196 C468 180 423 166 385 166 C288 166 223 240 223 333 C223 426 288 500 385 500 C445 500 489 458 508 417 L678 504 C636 590 544 678 385 678 C183 678 18 547 18 333 C18 120 183 -12 385 -12 L385 -12 Z M385 706 C433 706 473 746 473 795 C473 844 433 884 385 884 C336 884 296 844 296 795 C296 746 336 706 385 706 L385 706 Z " />
<glyph glyph-name="gdotaccent" unicode="&#x121;" horiz-adv-x="595" d="M253 -196 C373 -196 545 -157 545 52 L545 483 L365 483 L365 432 C326 478 279 495 229 495 C110 495 17 415 17 254 C17 89 113 13 229 13 C279 13 324 31 365 78 L365 52 C365 -33 295 -49 253 -49 C201 -49 146 -33 109 4 L33 -124 C96 -174 170 -196 253 -196 L253 -196 Z M291 172 C242 172 201 195 201 254 C201 313 242 336 291 336 C314 336 348 325 365 305 L365 203 C348 183 314 172 291 172 L291 172 Z M307 530 C355 530 395 570 395 619 C395 668 355 708 307 708 C258 708 218 668 218 619 C218 570 258 530 307 530 L307 530 Z " />
<glyph glyph-name="Gcommaaccent" unicode="&#x122;" horiz-adv-x="726" d="M385 -12 C516 -12 616 41 690 123 L690 396 L365 396 L365 220 L489 220 L489 196 C468 180 423 166 385 166 C288 166 223 240 223 333 C223 426 288 500 385 500 C445 500 489 458 508 417 L678 504 C636 590 544 678 385 678 C183 678 18 547 18 333 C18 120 183 -12 385 -12 L385 -12 Z M472 -139 C472 -77 430 -42 385 -42 C343 -42 307 -77 307 -121 C307 -163 336 -190 372 -190 C380 -190 388 -189 391 -187 C382 -216 347 -249 323 -260 L378 -304 C436 -263 472 -205 472 -139 L472 -139 Z " />
<glyph glyph-name="gcommaaccent" unicode="&#x123;" horiz-adv-x="595" d="M213 642 C213 567 264 550 293 550 C338 550 373 587 373 630 C373 673 335 704 298 704 C295 704 293 703 291 703 C297 730 338 761 358 768 L303 812 C240 768 213 709 213 642 L213 642 Z M253 -196 C373 -196 545 -157 545 52 L545 483 L365 483 L365 432 C326 478 279 495 229 495 C110 495 17 415 17 254 C17 89 113 13 229 13 C279 13 324 31 365 78 L365 52 C365 -33 295 -49 253 -49 C201 -49 146 -33 109 4 L33 -124 C96 -174 170 -196 253 -196 L253 -196 Z M291 172 C242 172 201 195 201 254 C201 313 242 336 291 336 C314 336 348 325 365 305 L365 203 C348 183 314 172 291 172 L291 172 Z " />
<glyph glyph-name="Hcircumflex" unicode="&#x124;" horiz-adv-x="751" d="M697 0 L697 667 L495 667 L495 431 L256 431 L256 667 L54 667 L54 0 L256 0 L256 255 L495 255 L495 0 L697 0 Z M543 728 L452 872 L296 872 L208 728 L313 728 L374 801 L438 728 L543 728 Z " />
<glyph glyph-name="hcircumflex" unicode="&#x125;" horiz-adv-x="608" d="M558 0 L558 345 C558 429 509 495 397 495 C312 495 259 460 231 428 L231 667 L51 667 L51 0 L231 0 L231 298 C246 315 267 336 308 336 C351 336 378 319 378 269 L378 0 L558 0 Z M311 728 L220 872 L64 872 L-24 728 L81 728 L142 801 L206 728 L311 728 Z " />
<glyph glyph-name="Hbar" unicode="&#x126;" horiz-adv-x="765" d="M704 0 L704 501 L758 501 L758 598 L704 598 L704 667 L502 667 L502 598 L263 598 L263 667 L61 667 L61 598 L7 598 L7 501 L61 501 L61 0 L263 0 L263 255 L502 255 L502 0 L704 0 Z M263 431 L263 501 L502 501 L502 431 L263 431 Z " />
<glyph glyph-name="hbar" unicode="&#x127;" horiz-adv-x="613" d="M370 521 L370 618 L236 618 L236 667 L56 667 L56 618 L7 618 L7 521 L56 521 L56 0 L236 0 L236 298 C251 315 272 336 313 336 C356 336 383 319 383 269 L383 0 L563 0 L563 345 C563 429 514 495 402 495 C317 495 264 460 236 428 L236 521 L370 521 Z " />
<glyph glyph-name="Itilde" unicode="&#x128;" horiz-adv-x="310" d="M256 0 L256 667 L54 667 L54 0 L256 0 Z M209 726 C286 726 327 768 327 860 L238 860 C238 835 227 823 214 823 C187 823 166 866 104 866 C27 866 -14 824 -14 732 L75 732 C75 757 86 769 99 769 C126 769 147 726 209 726 L209 726 Z " />
<glyph glyph-name="itilde" unicode="&#x129;" horiz-adv-x="280" d="M230 0 L230 483 L50 483 L50 0 L230 0 Z M194 534 C271 534 312 576 312 668 L223 668 C223 643 212 631 199 631 C172 631 151 674 89 674 C12 674 -29 632 -29 540 L60 540 C60 565 71 577 84 577 C111 577 132 534 194 534 L194 534 Z " />
<glyph glyph-name="Imacron" unicode="&#x12a;" horiz-adv-x="310" d="M256 0 L256 667 L54 667 L54 0 L256 0 Z M337 745 L337 842 L-26 842 L-26 745 L337 745 Z " />
<glyph glyph-name="imacron" unicode="&#x12b;" horiz-adv-x="280" d="M230 0 L230 483 L50 483 L50 0 L230 0 Z M322 571 L322 668 L-41 668 L-41 571 L322 571 Z " />
<glyph glyph-name="Ibreve" unicode="&#x12c;" horiz-adv-x="310" d="M256 0 L256 667 L54 667 L54 0 L256 0 Z M335 796 L260 858 C236 824 202 805 160 805 C116 805 82 827 60 858 L-16 796 C25 742 89 708 160 708 C232 708 295 742 335 796 L335 796 Z " />
<glyph glyph-name="ibreve" unicode="&#x12d;" horiz-adv-x="280" d="M230 0 L230 483 L50 483 L50 0 L230 0 Z M317 637 L242 699 C218 665 184 646 142 646 C98 646 64 668 42 699 L-34 637 C7 583 71 549 142 549 C214 549 277 583 317 637 L317 637 Z " />
<glyph glyph-name="Iogonek" unicode="&#x12e;" horiz-adv-x="310" d="M255 -90 C249 -105 238 -118 220 -118 C208 -118 191 -111 191 -84 C191 -55 207 -25 256 0 L256 667 L54 667 L54 0 L149 0 C123 -26 110 -56 110 -92 C110 -159 163 -186 220 -186 C266 -186 299 -166 321 -133 L255 -90 Z " />
<glyph glyph-name="iogonek" unicode="&#x12f;" horiz-adv-x="280" d="M229 -90 C223 -105 212 -118 194 -118 C182 -118 165 -111 165 -84 C165 -55 181 -25 230 0 L230 483 L50 483 L50 0 L123 0 C97 -26 84 -56 84 -92 C84 -159 137 -186 194 -186 C240 -186 273 -166 295 -133 L229 -90 Z M140 518 C196 518 241 563 241 619 C241 675 196 720 140 720 C84 720 39 675 39 619 C39 563 84 518 140 518 L140 518 Z " />
<glyph glyph-name="Idotaccent" unicode="&#x130;" horiz-adv-x="310" d="M256 0 L256 667 L54 667 L54 0 L256 0 Z M157 706 C205 706 245 746 245 795 C245 844 205 884 157 884 C108 884 68 844 68 795 C68 746 108 706 157 706 L157 706 Z " />
<glyph glyph-name="dotlessi" unicode="&#x131;" horiz-adv-x="280" d="M230 0 L230 483 L50 483 L50 0 L230 0 Z " />
<glyph glyph-name="IJ" unicode="&#x132;" horiz-adv-x="808" d="M256 0 L256 667 L54 667 L54 0 L256 0 Z M496 -12 C651 -12 754 67 754 238 L754 667 L552 667 L552 241 C552 194 522 166 478 166 C444 166 414 181 392 196 L310 42 C362 2 431 -12 496 -12 L496 -12 Z " />
<glyph glyph-name="ij" unicode="&#x133;" horiz-adv-x="560" d="M140 518 C196 518 241 563 241 619 C241 675 196 720 140 720 C84 720 39 675 39 619 C39 563 84 518 140 518 L140 518 Z M230 0 L230 483 L50 483 L50 0 L230 0 Z M420 518 C476 518 521 563 521 619 C521 675 476 720 420 720 C364 720 319 675 319 619 C319 563 364 518 420 518 L420 518 Z M309 -196 C449 -196 510 -103 510 21 L510 483 L330 483 L330 21 C330 -25 310 -49 277 -49 C249 -49 237 -45 217 -30 L174 -163 C213 -187 236 -196 309 -196 L309 -196 Z " />
<glyph glyph-name="Jcircumflex" unicode="&#x134;" horiz-adv-x="498" d="M186 -12 C341 -12 444 67 444 238 L444 667 L242 667 L242 241 C242 194 212 166 168 166 C134 166 104 181 82 196 L0 42 C52 2 121 -12 186 -12 L186 -12 Z M512 728 L421 872 L265 872 L177 728 L282 728 L343 801 L407 728 L512 728 Z " />
<glyph glyph-name="jcircumflex" unicode="&#x135;" horiz-adv-x="280" d="M29 -196 C169 -196 230 -103 230 21 L230 483 L50 483 L50 21 C50 -13 30 -37 -3 -37 C-31 -37 -43 -33 -63 -18 L-106 -163 C-67 -187 -44 -196 29 -196 L29 -196 Z M311 556 L220 700 L64 700 L-24 556 L81 556 L142 629 L206 556 L311 556 Z " />
<glyph glyph-name="Kcommaaccent" unicode="&#x136;" horiz-adv-x="689" d="M689 0 L426 357 L678 667 L431 667 L256 417 L256 667 L54 667 L54 0 L256 0 L256 185 L293 235 L443 0 L689 0 Z M430 -139 C430 -77 388 -42 343 -42 C301 -42 265 -77 265 -121 C265 -163 294 -190 330 -190 C338 -190 346 -189 349 -187 C340 -216 305 -249 281 -260 L336 -304 C394 -263 430 -205 430 -139 L430 -139 Z " />
<glyph glyph-name="kcommaaccent" unicode="&#x137;" horiz-adv-x="557" d="M569 0 L392 263 L558 483 L341 483 L230 311 L230 667 L50 667 L50 0 L230 0 L230 109 L265 156 L348 0 L569 0 Z M364 -139 C364 -77 322 -42 277 -42 C235 -42 199 -77 199 -121 C199 -163 228 -190 264 -190 C272 -190 280 -189 283 -187 C274 -216 239 -249 215 -260 L270 -304 C328 -263 364 -205 364 -139 L364 -139 Z " />
<glyph glyph-name="kgreenlandic" unicode="&#x138;" horiz-adv-x="557" d="M569 0 L392 263 L558 483 L341 483 L230 311 L230 483 L50 483 L50 0 L230 0 L230 109 L265 156 L348 0 L569 0 Z " />
<glyph glyph-name="Lacute" unicode="&#x139;" horiz-adv-x="536" d="M509 0 L509 176 L256 176 L256 667 L54 667 L54 0 L509 0 Z M457 872 L302 872 L182 728 L302 728 L457 872 Z " />
<glyph glyph-name="lacute" unicode="&#x13a;" horiz-adv-x="280" d="M230 0 L230 667 L50 667 L50 0 L230 0 Z M318 872 L163 872 L43 728 L163 728 L318 872 Z " />
<glyph glyph-name="Lcommaaccent" unicode="&#x13b;" horiz-adv-x="536" d="M509 0 L509 176 L256 176 L256 667 L54 667 L54 0 L509 0 Z M349 -139 C349 -77 307 -42 262 -42 C220 -42 184 -77 184 -121 C184 -163 213 -190 249 -190 C257 -190 265 -189 268 -187 C259 -216 224 -249 200 -260 L255 -304 C313 -263 349 -205 349 -139 L349 -139 Z " />
<glyph glyph-name="lcommaaccent" unicode="&#x13c;" horiz-adv-x="280" d="M230 0 L230 667 L50 667 L50 0 L230 0 Z M226 -139 C226 -77 184 -42 139 -42 C97 -42 61 -77 61 -121 C61 -163 90 -190 126 -190 C134 -190 142 -189 145 -187 C136 -216 101 -249 77 -260 L132 -304 C190 -263 226 -205 226 -139 L226 -139 Z " />
<glyph glyph-name="Lcaron" unicode="&#x13d;" horiz-adv-x="536" d="M509 0 L509 176 L256 176 L256 667 L54 667 L54 0 L509 0 Z M486 584 C486 646 444 681 399 681 C357 681 321 646 321 602 C321 560 350 533 386 533 C394 533 402 534 405 536 C396 507 361 474 337 463 L392 419 C450 460 486 518 486 584 L486 584 Z " />
<glyph glyph-name="lcaron" unicode="&#x13e;" horiz-adv-x="418" d="M230 0 L230 667 L50 667 L50 0 L230 0 Z M434 584 C434 646 392 681 347 681 C305 681 269 646 269 602 C269 560 298 533 334 533 C342 533 350 534 353 536 C344 507 309 474 285 463 L340 419 C398 460 434 518 434 584 L434 584 Z " />
<glyph glyph-name="Ldot" unicode="&#x13f;" horiz-adv-x="599" d="M509 0 L509 176 L256 176 L256 667 L54 667 L54 0 L509 0 Z M563 342 C563 400 515 449 457 449 C399 449 351 400 351 342 C351 285 399 236 457 236 C515 236 563 285 563 342 L563 342 Z " />
<glyph glyph-name="ldot" unicode="&#x140;" horiz-adv-x="462" d="M230 0 L230 667 L50 667 L50 0 L230 0 Z M477 244 C477 302 429 351 371 351 C313 351 265 302 265 244 C265 187 313 138 371 138 C429 138 477 187 477 244 L477 244 Z " />
<glyph glyph-name="Lslash" unicode="&#x141;" horiz-adv-x="545" d="M7 163 L63 195 L63 0 L518 0 L518 176 L265 176 L265 311 L321 343 L321 504 L265 472 L265 667 L63 667 L63 355 L7 323 L7 163 Z " />
<glyph glyph-name="lslash" unicode="&#x142;" horiz-adv-x="330" d="M7 180 L75 219 L75 0 L255 0 L255 323 L323 363 L323 488 L255 449 L255 667 L75 667 L75 345 L7 306 L7 180 Z " />
<glyph glyph-name="Nacute" unicode="&#x143;" horiz-adv-x="750" d="M696 0 L696 667 L494 667 L494 351 L262 667 L54 667 L54 0 L256 0 L256 338 L502 0 L696 0 Z M552 872 L397 872 L277 728 L397 728 L552 872 Z " />
<glyph glyph-name="nacute" unicode="&#x144;" horiz-adv-x="607" d="M567 0 L567 343 C567 427 518 495 406 495 C321 495 268 460 240 428 L240 483 L60 483 L60 0 L240 0 L240 298 C255 315 276 336 317 336 C360 336 387 317 387 267 L387 0 L567 0 Z M481 700 L326 700 L206 556 L326 556 L481 700 Z " />
<glyph glyph-name="Ncommaaccent" unicode="&#x145;" horiz-adv-x="750" d="M696 0 L696 667 L494 667 L494 351 L262 667 L54 667 L54 0 L256 0 L256 338 L502 0 L696 0 Z M460 -139 C460 -77 418 -42 373 -42 C331 -42 295 -77 295 -121 C295 -163 324 -190 360 -190 C368 -190 376 -189 379 -187 C370 -216 335 -249 311 -260 L366 -304 C424 -263 460 -205 460 -139 L460 -139 Z " />
<glyph glyph-name="ncommaaccent" unicode="&#x146;" horiz-adv-x="607" d="M567 0 L567 343 C567 427 518 495 406 495 C321 495 268 460 240 428 L240 483 L60 483 L60 0 L240 0 L240 298 C255 315 276 336 317 336 C360 336 387 317 387 267 L387 0 L567 0 Z M389 -139 C389 -77 347 -42 302 -42 C260 -42 224 -77 224 -121 C224 -163 253 -190 289 -190 C297 -190 305 -189 308 -187 C299 -216 264 -249 240 -260 L295 -304 C353 -263 389 -205 389 -139 L389 -139 Z " />
<glyph glyph-name="Ncaron" unicode="&#x147;" horiz-adv-x="750" d="M696 0 L696 667 L494 667 L494 351 L262 667 L54 667 L54 0 L256 0 L256 338 L502 0 L696 0 Z M454 728 L542 872 L437 872 L376 799 L312 872 L207 872 L298 728 L454 728 Z " />
<glyph glyph-name="ncaron" unicode="&#x148;" horiz-adv-x="607" d="M567 0 L567 343 C567 427 518 495 406 495 C321 495 268 460 240 428 L240 483 L60 483 L60 0 L240 0 L240 298 C255 315 276 336 317 336 C360 336 387 317 387 267 L387 0 L567 0 Z M383 556 L471 700 L366 700 L305 627 L241 700 L136 700 L227 556 L383 556 Z " />
<glyph glyph-name="napostrophe" unicode="&#x149;" horiz-adv-x="607" d="M567 0 L567 343 C567 427 518 495 406 495 C321 495 268 460 240 428 L240 483 L60 483 L60 0 L240 0 L240 298 C255 315 276 336 317 336 C360 336 387 317 387 267 L387 0 L567 0 Z M190 688 C190 750 148 785 103 785 C61 785 25 750 25 706 C25 664 54 637 90 637 C98 637 106 638 109 640 C100 611 65 578 41 567 L96 523 C154 564 190 622 190 688 L190 688 Z " />
<glyph glyph-name="Eng" unicode="&#x14a;" horiz-adv-x="750" d="M438 -196 C593 -196 696 -117 696 54 L696 667 L494 667 L494 351 L262 667 L54 667 L54 0 L256 0 L256 338 L487 21 C475 -4 451 -18 420 -18 C386 -18 356 -3 334 12 L252 -142 C304 -182 373 -196 438 -196 L438 -196 Z " />
<glyph glyph-name="eng" unicode="&#x14b;" horiz-adv-x="607" d="M356 -196 C496 -196 557 -103 557 21 L557 343 C557 427 508 495 396 495 C311 495 258 460 230 428 L230 483 L50 483 L50 0 L230 0 L230 298 C245 315 266 336 307 336 C350 336 377 317 377 267 L377 16 C375 -15 355 -37 324 -37 C296 -37 284 -33 264 -18 L221 -163 C260 -187 283 -196 356 -196 L356 -196 Z " />
<glyph glyph-name="Omacron" unicode="&#x14c;" horiz-adv-x="766" d="M383 -12 C589 -12 748 128 748 333 C748 538 589 678 383 678 C177 678 18 538 18 333 C18 128 177 -12 383 -12 L383 -12 Z M383 166 C286 166 223 240 223 333 C223 426 286 500 383 500 C480 500 543 426 543 333 C543 240 480 166 383 166 L383 166 Z M564 745 L564 842 L201 842 L201 745 L564 745 Z " />
<glyph glyph-name="omacron" unicode="&#x14d;" horiz-adv-x="577" d="M288 -12 C460 -12 560 107 560 242 C560 377 460 495 288 495 C117 495 17 377 17 242 C17 107 117 -12 288 -12 L288 -12 Z M288 147 C233 147 202 188 202 242 C202 295 233 336 288 336 C344 336 375 295 375 242 C375 188 344 147 288 147 L288 147 Z M470 571 L470 668 L107 668 L107 571 L470 571 Z " />
<glyph glyph-name="Obreve" unicode="&#x14e;" horiz-adv-x="766" d="M383 -12 C589 -12 748 128 748 333 C748 538 589 678 383 678 C177 678 18 538 18 333 C18 128 177 -12 383 -12 L383 -12 Z M383 166 C286 166 223 240 223 333 C223 426 286 500 383 500 C480 500 543 426 543 333 C543 240 480 166 383 166 L383 166 Z M558 796 L483 858 C459 824 425 805 383 805 C339 805 305 827 283 858 L207 796 C248 742 312 708 383 708 C455 708 518 742 558 796 L558 796 Z " />
<glyph glyph-name="obreve" unicode="&#x14f;" horiz-adv-x="577" d="M288 -12 C460 -12 560 107 560 242 C560 377 460 495 288 495 C117 495 17 377 17 242 C17 107 117 -12 288 -12 L288 -12 Z M288 147 C233 147 202 188 202 242 C202 295 233 336 288 336 C344 336 375 295 375 242 C375 188 344 147 288 147 L288 147 Z M462 637 L387 699 C363 665 329 646 287 646 C243 646 209 668 187 699 L111 637 C152 583 216 549 287 549 C359 549 422 583 462 637 L462 637 Z " />
<glyph glyph-name="Ohungarumlaut" unicode="&#x150;" horiz-adv-x="766" d="M383 -12 C589 -12 748 128 748 333 C748 538 589 678 383 678 C177 678 18 538 18 333 C18 128 177 -12 383 -12 L383 -12 Z M383 166 C286 166 223 240 223 333 C223 426 286 500 383 500 C480 500 543 426 543 333 C543 240 480 166 383 166 L383 166 Z M462 872 L327 872 L247 728 L347 728 L462 872 Z M618 872 L483 872 L403 728 L503 728 L618 872 Z " />
<glyph glyph-name="ohungarumlaut" unicode="&#x151;" horiz-adv-x="577" d="M288 -12 C460 -12 560 107 560 242 C560 377 460 495 288 495 C117 495 17 377 17 242 C17 107 117 -12 288 -12 L288 -12 Z M288 147 C233 147 202 188 202 242 C202 295 233 336 288 336 C344 336 375 295 375 242 C375 188 344 147 288 147 L288 147 Z M368 700 L233 700 L153 556 L253 556 L368 700 Z M524 700 L389 700 L309 556 L409 556 L524 700 Z " />
<glyph glyph-name="OE" unicode="&#x152;" horiz-adv-x="1062" d="M1032 0 L1032 176 L728 176 L728 249 L1025 249 L1025 425 L728 425 L728 491 L1032 491 L1032 667 L526 667 L526 631 C484 663 414 677 360 677 C166 677 18 540 18 333 C18 126 166 -12 360 -12 C414 -12 484 3 526 36 L526 0 L1032 0 Z M526 237 C501 194 451 166 391 166 C286 166 223 240 223 333 C223 426 286 499 391 499 C451 499 501 473 526 430 L526 237 Z " />
<glyph glyph-name="oe" unicode="&#x153;" horiz-adv-x="901" d="M889 186 L889 223 C889 393 780 495 638 495 C556 495 504 458 466 418 C423 458 370 495 288 495 C117 495 17 377 17 242 C17 107 117 -12 288 -12 C370 -12 425 24 465 64 C507 25 556 -12 670 -12 C716 -12 802 7 850 48 L772 158 C748 138 707 124 670 124 C606 124 574 159 561 186 L889 186 Z M559 300 C565 323 583 359 638 359 C696 359 713 321 718 300 L559 300 Z M375 242 C375 178 337 146 288 146 C240 146 202 178 202 242 C202 305 240 336 288 336 C337 336 375 305 375 242 L375 242 Z " />
<glyph glyph-name="Racute" unicode="&#x154;" horiz-adv-x="678" d="M651 0 L530 236 C583 262 650 323 650 438 C650 563 566 667 410 667 L54 667 L54 0 L256 0 L256 210 L329 210 L421 0 L651 0 Z M379 386 L256 386 L256 491 L379 491 C413 491 445 475 445 439 C445 402 413 386 379 386 L379 386 Z M520 872 L365 872 L245 728 L365 728 L520 872 Z " />
<glyph glyph-name="racute" unicode="&#x155;" horiz-adv-x="390" d="M230 0 L230 296 C250 320 299 330 337 330 C354 330 369 328 378 325 L378 497 C323 497 260 465 230 430 L230 483 L50 483 L50 0 L230 0 Z M391 700 L236 700 L116 556 L236 556 L391 700 Z " />
<glyph glyph-name="Rcommaaccent" unicode="&#x156;" horiz-adv-x="678" d="M651 0 L530 236 C583 262 650 323 650 438 C650 563 566 667 410 667 L54 667 L54 0 L256 0 L256 210 L329 210 L421 0 L651 0 Z M379 386 L256 386 L256 491 L379 491 C413 491 445 475 445 439 C445 402 413 386 379 386 L379 386 Z M428 -139 C428 -77 386 -42 341 -42 C299 -42 263 -77 263 -121 C263 -163 292 -190 328 -190 C336 -190 344 -189 347 -187 C338 -216 303 -249 279 -260 L334 -304 C392 -263 428 -205 428 -139 L428 -139 Z " />
<glyph glyph-name="rcommaaccent" unicode="&#x157;" horiz-adv-x="390" d="M230 0 L230 296 C250 320 299 330 337 330 C354 330 369 328 378 325 L378 497 C323 497 260 465 230 430 L230 483 L50 483 L50 0 L230 0 Z M280 -139 C280 -77 238 -42 193 -42 C151 -42 115 -77 115 -121 C115 -163 144 -190 180 -190 C188 -190 196 -189 199 -187 C190 -216 155 -249 131 -260 L186 -304 C244 -263 280 -205 280 -139 L280 -139 Z " />
<glyph glyph-name="Rcaron" unicode="&#x158;" horiz-adv-x="678" d="M651 0 L530 236 C583 262 650 323 650 438 C650 563 566 667 410 667 L54 667 L54 0 L256 0 L256 210 L329 210 L421 0 L651 0 Z M379 386 L256 386 L256 491 L379 491 C413 491 445 475 445 439 C445 402 413 386 379 386 L379 386 Z M422 728 L510 872 L405 872 L344 799 L280 872 L175 872 L266 728 L422 728 Z " />
<glyph glyph-name="rcaron" unicode="&#x159;" horiz-adv-x="390" d="M230 0 L230 296 C250 320 299 330 337 330 C354 330 369 328 378 325 L378 497 C323 497 260 465 230 430 L230 483 L50 483 L50 0 L230 0 Z M293 556 L381 700 L276 700 L215 627 L151 700 L46 700 L137 556 L293 556 Z " />
<glyph glyph-name="Sacute" unicode="&#x15a;" horiz-adv-x="613" d="M313 -12 C492 -12 601 73 601 220 C601 468 230 414 230 477 C230 494 241 507 281 507 C344 507 419 485 477 441 L585 584 C509 646 411 677 302 677 C119 677 25 569 25 456 C25 193 397 258 397 194 C397 168 361 158 323 158 C233 158 158 196 108 244 L3 94 C74 30 171 -12 313 -12 L313 -12 Z M480 872 L325 872 L205 728 L325 728 L480 872 Z " />
<glyph glyph-name="sacute" unicode="&#x15b;" horiz-adv-x="490" d="M246 -12 C389 -12 475 58 475 154 C475 355 201 305 201 345 C201 358 220 366 246 366 C302 366 358 341 388 316 L454 433 C398 470 326 495 245 495 C105 495 29 419 29 332 C29 130 303 189 303 143 C303 131 292 122 255 122 C201 122 119 153 81 183 L9 62 C61 19 157 -12 246 -12 L246 -12 Z M427 700 L272 700 L152 556 L272 556 L427 700 Z " />
<glyph glyph-name="Scircumflex" unicode="&#x15c;" horiz-adv-x="613" d="M467 728 L376 872 L220 872 L132 728 L237 728 L298 801 L362 728 L467 728 Z M313 -12 C492 -12 601 73 601 220 C601 468 230 414 230 477 C230 494 241 507 281 507 C344 507 419 485 477 441 L585 584 C509 646 411 677 302 677 C119 677 25 569 25 456 C25 193 397 258 397 194 C397 168 361 158 323 158 C233 158 158 196 108 244 L3 94 C74 30 171 -12 313 -12 L313 -12 Z " />
<glyph glyph-name="scircumflex" unicode="&#x15d;" horiz-adv-x="490" d="M246 -12 C389 -12 475 58 475 154 C475 355 201 305 201 345 C201 358 220 366 246 366 C302 366 358 341 388 316 L454 433 C398 470 326 495 245 495 C105 495 29 419 29 332 C29 130 303 189 303 143 C303 131 292 122 255 122 C201 122 119 153 81 183 L9 62 C61 19 157 -12 246 -12 L246 -12 Z M413 556 L322 700 L166 700 L78 556 L183 556 L244 629 L308 556 L413 556 Z " />
<glyph glyph-name="Scedilla" unicode="&#x15e;" horiz-adv-x="613" d="M296 -200 C360 -200 414 -168 414 -111 C414 -68 382 -38 346 -38 C333 -38 322 -41 312 -47 L327 -12 C498 -7 601 77 601 220 C601 468 230 414 230 477 C230 494 241 507 281 507 C344 507 419 485 477 441 L585 584 C509 646 411 677 302 677 C119 677 25 569 25 456 C25 193 397 258 397 194 C397 168 361 158 323 158 C233 158 158 196 108 244 L3 94 C63 40 141 2 249 -8 L227 -69 L286 -103 C292 -96 301 -91 312 -91 C325 -91 333 -97 333 -108 C333 -125 312 -132 291 -132 C263 -132 234 -120 208 -102 L177 -166 C199 -184 243 -200 296 -200 L296 -200 Z " />
<glyph glyph-name="scedilla" unicode="&#x15f;" horiz-adv-x="490" d="M245 -200 C309 -200 363 -168 363 -111 C363 -68 331 -38 295 -38 C282 -38 271 -41 261 -47 L276 -11 C401 -1 475 65 475 154 C475 355 201 305 201 345 C201 358 220 366 246 366 C302 366 358 341 388 316 L454 433 C398 470 326 495 245 495 C105 495 29 419 29 332 C29 130 303 189 303 143 C303 131 292 122 255 122 C201 122 119 153 81 183 L9 62 C52 26 124 -1 198 -9 L176 -69 L235 -103 C241 -96 250 -91 261 -91 C274 -91 282 -97 282 -108 C282 -125 261 -132 240 -132 C212 -132 183 -120 157 -102 L126 -166 C148 -184 192 -200 245 -200 L245 -200 Z " />
<glyph glyph-name="Scaron" unicode="&#x160;" horiz-adv-x="613" d="M379 728 L467 872 L362 872 L301 799 L237 872 L132 872 L223 728 L379 728 Z M313 -12 C492 -12 601 73 601 220 C601 468 230 414 230 477 C230 494 241 507 281 507 C344 507 419 485 477 441 L585 584 C509 646 411 677 302 677 C119 677 25 569 25 456 C25 193 397 258 397 194 C397 168 361 158 323 158 C233 158 158 196 108 244 L3 94 C74 30 171 -12 313 -12 L313 -12 Z " />
<glyph glyph-name="scaron" unicode="&#x161;" horiz-adv-x="490" d="M246 -12 C389 -12 475 58 475 154 C475 355 201 305 201 345 C201 358 220 366 246 366 C302 366 358 341 388 316 L454 433 C398 470 326 495 245 495 C105 495 29 419 29 332 C29 130 303 189 303 143 C303 131 292 122 255 122 C201 122 119 153 81 183 L9 62 C61 19 157 -12 246 -12 L246 -12 Z M325 556 L413 700 L308 700 L247 627 L183 700 L78 700 L169 556 L325 556 Z " />
<glyph glyph-name="&amp;#x162;" unicode="&#x162;" horiz-adv-x="595" d="M399 0 L399 491 L577 491 L577 667 L18 667 L18 491 L197 491 L197 0 L399 0 Z M383 -139 C383 -77 341 -42 296 -42 C254 -42 218 -77 218 -121 C218 -163 247 -190 283 -190 C291 -190 299 -189 302 -187 C293 -216 258 -249 234 -260 L289 -304 C347 -263 383 -205 383 -139 L383 -139 Z " />
<glyph glyph-name="&amp;#x21a;" unicode="&#x21a;" horiz-adv-x="595" d="M399 0 L399 491 L577 491 L577 667 L18 667 L18 491 L197 491 L197 0 L399 0 Z M383 -139 C383 -77 341 -42 296 -42 C254 -42 218 -77 218 -121 C218 -163 247 -190 283 -190 C291 -190 299 -189 302 -187 C293 -216 258 -249 234 -260 L289 -304 C347 -263 383 -205 383 -139 L383 -139 Z " />
<glyph glyph-name="&amp;#x163;" unicode="&#x163;" horiz-adv-x="382" d="M253 -12 C314 -12 356 3 375 20 L343 156 C339 152 323 147 307 147 C283 147 267 167 267 192 L267 327 L365 327 L365 483 L267 483 L267 615 L87 615 L87 483 L7 483 L7 327 L87 327 L87 140 C87 39 146 -12 253 -12 L253 -12 Z M276 -139 C276 -77 234 -42 189 -42 C147 -42 111 -77 111 -121 C111 -163 140 -190 176 -190 C184 -190 192 -189 195 -187 C186 -216 151 -249 127 -260 L182 -304 C240 -263 276 -205 276 -139 L276 -139 Z " />
<glyph glyph-name="&amp;#x21b;" unicode="&#x21b;" horiz-adv-x="382" d="M253 -12 C314 -12 356 3 375 20 L343 156 C339 152 323 147 307 147 C283 147 267 167 267 192 L267 327 L365 327 L365 483 L267 483 L267 615 L87 615 L87 483 L7 483 L7 327 L87 327 L87 140 C87 39 146 -12 253 -12 L253 -12 Z M276 -139 C276 -77 234 -42 189 -42 C147 -42 111 -77 111 -121 C111 -163 140 -190 176 -190 C184 -190 192 -189 195 -187 C186 -216 151 -249 127 -260 L182 -304 C240 -263 276 -205 276 -139 L276 -139 Z " />
<glyph glyph-name="Tcaron" unicode="&#x164;" horiz-adv-x="595" d="M399 0 L399 491 L577 491 L577 667 L18 667 L18 491 L197 491 L197 0 L399 0 Z M377 728 L465 872 L360 872 L299 799 L235 872 L130 872 L221 728 L377 728 Z " />
<glyph glyph-name="tcaron" unicode="&#x165;" horiz-adv-x="447" d="M253 -12 C314 -12 356 3 375 20 L343 156 C339 152 323 147 307 147 C283 147 267 167 267 192 L267 327 L365 327 L365 483 L267 483 L267 615 L87 615 L87 483 L7 483 L7 327 L87 327 L87 140 C87 39 146 -12 253 -12 L253 -12 Z M478 688 C478 750 436 785 391 785 C349 785 313 750 313 706 C313 664 342 637 378 637 C386 637 394 638 397 640 C388 611 353 578 329 567 L384 523 C442 564 478 622 478 688 L478 688 Z " />
<glyph glyph-name="Tbar" unicode="&#x166;" horiz-adv-x="595" d="M399 0 L399 231 L517 231 L517 328 L399 328 L399 491 L577 491 L577 667 L18 667 L18 491 L197 491 L197 328 L81 328 L81 231 L197 231 L197 0 L399 0 Z " />
<glyph glyph-name="tbar" unicode="&#x167;" horiz-adv-x="382" d="M334 191 L334 288 L267 288 L267 327 L365 327 L365 483 L267 483 L267 615 L87 615 L87 483 L7 483 L7 327 L87 327 L87 288 L7 288 L7 191 L87 191 L87 140 C87 39 146 -12 253 -12 C314 -12 356 3 375 20 L343 156 C339 152 323 147 307 147 C283 147 267 166 267 191 L334 191 Z " />
<glyph glyph-name="Utilde" unicode="&#x168;" horiz-adv-x="767" d="M384 -12 C609 -12 713 109 713 275 L713 667 L508 667 L508 281 C508 217 466 166 384 166 C301 166 259 217 259 281 L259 667 L54 667 L54 274 C54 109 159 -12 384 -12 L384 -12 Z M438 726 C515 726 556 768 556 860 L467 860 C467 835 456 823 443 823 C416 823 395 866 333 866 C256 866 215 824 215 732 L304 732 C304 757 315 769 328 769 C355 769 376 726 438 726 L438 726 Z " />
<glyph glyph-name="utilde" unicode="&#x169;" horiz-adv-x="606" d="M556 0 L556 483 L376 483 L376 185 C361 168 340 147 300 147 C256 147 230 166 230 215 L230 483 L50 483 L50 138 C50 55 98 -12 210 -12 C295 -12 348 23 376 54 L376 0 L556 0 Z M356 554 C433 554 474 596 474 688 L385 688 C385 663 374 651 361 651 C334 651 313 694 251 694 C174 694 133 652 133 560 L222 560 C222 585 233 597 246 597 C273 597 294 554 356 554 L356 554 Z " />
<glyph glyph-name="Umacron" unicode="&#x16a;" horiz-adv-x="767" d="M384 -12 C609 -12 713 109 713 275 L713 667 L508 667 L508 281 C508 217 466 166 384 166 C301 166 259 217 259 281 L259 667 L54 667 L54 274 C54 109 159 -12 384 -12 L384 -12 Z M568 745 L568 842 L205 842 L205 745 L568 745 Z " />
<glyph glyph-name="umacron" unicode="&#x16b;" horiz-adv-x="606" d="M556 0 L556 483 L376 483 L376 185 C361 168 340 147 300 147 C256 147 230 166 230 215 L230 483 L50 483 L50 138 C50 55 98 -12 210 -12 C295 -12 348 23 376 54 L376 0 L556 0 Z M484 571 L484 668 L121 668 L121 571 L484 571 Z " />
<glyph glyph-name="Ubreve" unicode="&#x16c;" horiz-adv-x="767" d="M384 -12 C609 -12 713 109 713 275 L713 667 L508 667 L508 281 C508 217 466 166 384 166 C301 166 259 217 259 281 L259 667 L54 667 L54 274 C54 109 159 -12 384 -12 L384 -12 Z M561 796 L486 858 C462 824 428 805 386 805 C342 805 308 827 286 858 L210 796 C251 742 315 708 386 708 C458 708 521 742 561 796 L561 796 Z " />
<glyph glyph-name="ubreve" unicode="&#x16d;" horiz-adv-x="606" d="M556 0 L556 483 L376 483 L376 185 C361 168 340 147 300 147 C256 147 230 166 230 215 L230 483 L50 483 L50 138 C50 55 98 -12 210 -12 C295 -12 348 23 376 54 L376 0 L556 0 Z M481 637 L406 699 C382 665 348 646 306 646 C262 646 228 668 206 699 L130 637 C171 583 235 549 306 549 C378 549 441 583 481 637 L481 637 Z " />
<glyph glyph-name="Uring" unicode="&#x16e;" horiz-adv-x="767" d="M384 -12 C609 -12 713 109 713 275 L713 667 L508 667 L508 281 C508 217 466 166 384 166 C301 166 259 217 259 281 L259 667 L54 667 L54 274 C54 109 159 -12 384 -12 L384 -12 Z M387 693 C448 693 497 744 497 805 C497 866 448 917 387 917 C326 917 275 866 275 805 C275 744 326 693 387 693 L387 693 Z M387 770 C368 770 352 786 352 805 C352 824 368 840 387 840 C406 840 421 824 421 805 C421 786 406 770 387 770 L387 770 Z " />
<glyph glyph-name="uring" unicode="&#x16f;" horiz-adv-x="606" d="M556 0 L556 483 L376 483 L376 185 C361 168 340 147 300 147 C256 147 230 166 230 215 L230 483 L50 483 L50 138 C50 55 98 -12 210 -12 C295 -12 348 23 376 54 L376 0 L556 0 Z M304 534 C365 534 414 585 414 646 C414 707 365 758 304 758 C243 758 192 707 192 646 C192 585 243 534 304 534 L304 534 Z M304 611 C285 611 269 627 269 646 C269 665 285 681 304 681 C323 681 338 665 338 646 C338 627 323 611 304 611 L304 611 Z " />
<glyph glyph-name="Uhungarumlaut" unicode="&#x170;" horiz-adv-x="767" d="M384 -12 C609 -12 713 109 713 275 L713 667 L508 667 L508 281 C508 217 466 166 384 166 C301 166 259 217 259 281 L259 667 L54 667 L54 274 C54 109 159 -12 384 -12 L384 -12 Z M466 872 L331 872 L251 728 L351 728 L466 872 Z M622 872 L487 872 L407 728 L507 728 L622 872 Z " />
<glyph glyph-name="uhungarumlaut" unicode="&#x171;" horiz-adv-x="606" d="M556 0 L556 483 L376 483 L376 185 C361 168 340 147 300 147 C256 147 230 166 230 215 L230 483 L50 483 L50 138 C50 55 98 -12 210 -12 C295 -12 348 23 376 54 L376 0 L556 0 Z M382 700 L247 700 L167 556 L267 556 L382 700 Z M538 700 L403 700 L323 556 L423 556 L538 700 Z " />
<glyph glyph-name="Uogonek" unicode="&#x172;" horiz-adv-x="767" d="M496 -90 C490 -105 479 -118 461 -118 C449 -118 432 -111 432 -84 C432 -55 448 -25 497 0 C644 34 713 140 713 275 L713 667 L508 667 L508 281 C508 217 466 166 384 166 C301 166 259 217 259 281 L259 667 L54 667 L54 274 C54 110 157 -10 379 -12 C361 -35 351 -62 351 -92 C351 -159 404 -186 461 -186 C507 -186 540 -166 562 -133 L496 -90 Z " />
<glyph glyph-name="uogonek" unicode="&#x173;" horiz-adv-x="606" d="M555 -90 C549 -105 538 -118 520 -118 C508 -118 491 -111 491 -84 C491 -55 507 -25 556 0 L556 483 L376 483 L376 185 C361 168 340 147 300 147 C256 147 230 166 230 215 L230 483 L50 483 L50 138 C50 55 98 -12 210 -12 C295 -12 348 23 376 54 L376 0 L449 0 C423 -26 410 -56 410 -92 C410 -159 463 -186 520 -186 C566 -186 599 -166 621 -133 L555 -90 Z " />
<glyph glyph-name="Wcircumflex" unicode="&#x174;" horiz-adv-x="954" d="M775 0 L966 667 L739 667 L654 259 L553 667 L401 667 L300 259 L214 667 L-12 667 L179 0 L391 0 L477 378 L563 0 L775 0 Z M645 728 L554 872 L398 872 L310 728 L415 728 L476 801 L540 728 L645 728 Z " />
<glyph glyph-name="wcircumflex" unicode="&#x175;" horiz-adv-x="805" d="M677 0 L817 483 L631 483 L567 217 L483 483 L322 483 L237 217 L173 483 L-12 483 L128 0 L324 0 L402 270 L481 0 L677 0 Z M570 556 L479 700 L323 700 L235 556 L340 556 L401 629 L465 556 L570 556 Z " />
<glyph glyph-name="Ycircumflex" unicode="&#x176;" horiz-adv-x="664" d="M502 728 L411 872 L255 872 L167 728 L272 728 L333 801 L397 728 L502 728 Z M434 0 L434 265 L682 667 L455 667 L333 442 L209 667 L-18 667 L232 265 L232 0 L434 0 Z " />
<glyph glyph-name="ycircumflex" unicode="&#x177;" horiz-adv-x="535" d="M45 -188 C62 -193 102 -196 115 -196 C217 -193 297 -172 340 -60 L550 483 L360 483 L267 207 L175 483 L-15 483 L175 -8 L171 -18 C165 -31 143 -37 108 -37 C96 -37 81 -34 70 -28 L45 -188 Z M435 556 L344 700 L188 700 L100 556 L205 556 L266 629 L330 556 L435 556 Z " />
<glyph glyph-name="Ydieresis" unicode="&#x178;" horiz-adv-x="664" d="M531 795 C531 845 491 884 441 884 C392 884 352 845 352 795 C352 745 392 706 441 706 C491 706 531 745 531 795 L531 795 Z M314 795 C314 845 275 884 225 884 C175 884 136 845 136 795 C136 745 175 706 225 706 C275 706 314 745 314 795 L314 795 Z M434 0 L434 265 L682 667 L455 667 L333 442 L209 667 L-18 667 L232 265 L232 0 L434 0 Z " />
<glyph glyph-name="Zacute" unicode="&#x179;" horiz-adv-x="600" d="M564 0 L564 176 L302 176 L557 508 L557 667 L36 667 L36 491 L290 491 L36 160 L36 0 L564 0 Z M477 872 L322 872 L202 728 L322 728 L477 872 Z " />
<glyph glyph-name="zacute" unicode="&#x17a;" horiz-adv-x="486" d="M453 0 L453 156 L275 156 L449 357 L449 483 L33 483 L33 327 L203 327 L33 132 L33 0 L453 0 Z M420 700 L265 700 L145 556 L265 556 L420 700 Z " />
<glyph glyph-name="Zdotaccent" unicode="&#x17b;" horiz-adv-x="600" d="M564 0 L564 176 L302 176 L557 508 L557 667 L36 667 L36 491 L290 491 L36 160 L36 0 L564 0 Z M292 706 C340 706 380 746 380 795 C380 844 340 884 292 884 C243 884 203 844 203 795 C203 746 243 706 292 706 L292 706 Z " />
<glyph glyph-name="zdotaccent" unicode="&#x17c;" horiz-adv-x="486" d="M453 0 L453 156 L275 156 L449 357 L449 483 L33 483 L33 327 L203 327 L33 132 L33 0 L453 0 Z M241 530 C289 530 329 570 329 619 C329 668 289 708 241 708 C192 708 152 668 152 619 C152 570 192 530 241 530 L241 530 Z " />
<glyph glyph-name="Zcaron" unicode="&#x17d;" horiz-adv-x="600" d="M380 728 L468 872 L363 872 L302 799 L238 872 L133 872 L224 728 L380 728 Z M564 0 L564 176 L302 176 L557 508 L557 667 L36 667 L36 491 L290 491 L36 160 L36 0 L564 0 Z " />
<glyph glyph-name="zcaron" unicode="&#x17e;" horiz-adv-x="486" d="M453 0 L453 156 L275 156 L449 357 L449 483 L33 483 L33 327 L203 327 L33 132 L33 0 L453 0 Z M317 556 L405 700 L300 700 L239 627 L175 700 L70 700 L161 556 L317 556 Z " />
<glyph glyph-name="longs" unicode="&#x17f;" horiz-adv-x="371" d="M267 0 L267 505 C267 529 290 544 310 544 C331 544 346 538 357 525 L422 625 C388 661 327 677 271 677 C164 677 87 606 87 505 L87 483 L7 483 L7 327 L87 327 L87 0 L267 0 Z " />
<glyph glyph-name="florin" unicode="&#x192;" horiz-adv-x="477" d="M196 -161 L282 223 L403 223 L403 379 L316 379 L334 459 C341 487 363 501 386 501 C405 501 419 494 429 481 L500 628 C465 665 415 677 359 677 C252 677 159 606 137 506 L109 379 L35 379 L35 223 L75 223 L-10 -161 L196 -161 Z " />
<glyph glyph-name="AEacute" unicode="&#x1fc;" horiz-adv-x="989" d="M959 0 L959 176 L655 176 L655 249 L952 249 L952 425 L655 425 L655 491 L959 491 L959 667 L370 667 L-25 0 L205 0 L246 78 L453 78 L453 0 L959 0 Z M453 254 L340 254 L453 469 L453 254 Z M725 872 L570 872 L450 728 L570 728 L725 872 Z " />
<glyph glyph-name="aeacute" unicode="&#x1fd;" horiz-adv-x="851" d="M839 186 L839 223 C839 393 730 495 598 495 C514 495 474 475 438 443 C399 478 350 495 272 495 C199 495 109 474 44 422 L105 310 C143 340 194 357 239 357 C298 357 329 331 329 298 L329 249 C301 282 242 301 183 301 C95 301 17 252 17 144 C17 34 111 -12 199 -12 C275 -12 350 18 395 63 C441 14 520 -12 594 -12 C666 -12 752 7 800 48 L722 163 C698 143 657 129 620 129 C556 129 524 159 511 186 L839 186 Z M509 300 C515 323 534 358 588 358 C646 358 663 321 668 300 L509 300 Z M333 133 C321 115 286 105 258 105 C228 105 195 114 195 144 C195 173 228 184 258 184 C286 184 317 174 329 157 C329 151 331 138 333 133 L333 133 Z M595 700 L440 700 L320 556 L440 556 L595 700 Z " />
<glyph glyph-name="Oslashacute" unicode="&#x1fe;" horiz-adv-x="766" d="M562 872 L407 872 L287 728 L407 728 L562 872 Z M383 -12 C589 -12 748 128 748 333 C748 433 710 517 648 577 L724 667 L586 667 L561 638 C508 663 448 678 383 678 C177 678 18 538 18 333 C18 240 50 161 105 102 L18 0 L156 0 L187 37 C243 5 310 -12 383 -12 L383 -12 Z M383 166 C356 166 332 172 311 182 L518 425 C534 399 543 367 543 333 C543 240 480 166 383 166 L383 166 Z M223 333 C223 426 286 500 383 500 C402 500 420 497 436 491 L238 258 C228 280 223 306 223 333 L223 333 Z " />
<glyph glyph-name="oslashacute" unicode="&#x1ff;" horiz-adv-x="577" d="M466 700 L311 700 L191 556 L311 556 L466 700 Z M119 0 L141 24 C181 1 230 -12 288 -12 C460 -12 560 107 560 242 C560 306 537 366 495 412 L560 483 L455 483 L434 460 C394 482 345 495 288 495 C117 495 17 377 17 242 C17 178 39 117 81 71 L17 0 L119 0 Z M288 147 C277 147 266 149 257 152 L370 275 C373 265 375 254 375 242 C375 188 344 147 288 147 L288 147 Z M202 242 C202 295 233 336 288 336 C299 336 308 335 317 332 L206 209 C203 219 202 230 202 242 L202 242 Z " />
<glyph glyph-name="Scommaaccent" unicode="&#x218;" horiz-adv-x="635" d="M328 -12 C507 -12 616 73 616 220 C616 468 245 414 245 477 C245 494 256 507 296 507 C359 507 434 485 492 441 L600 584 C524 646 426 677 317 677 C134 677 40 569 40 456 C40 193 412 258 412 194 C412 168 376 158 338 158 C248 158 173 196 123 244 L18 94 C89 30 186 -12 328 -12 L328 -12 Z M404 -139 C404 -77 362 -42 317 -42 C275 -42 239 -77 239 -121 C239 -163 268 -190 304 -190 C312 -190 320 -189 323 -187 C314 -216 279 -249 255 -260 L310 -304 C368 -263 404 -205 404 -139 L404 -139 Z " />
<glyph glyph-name="scommaaccent" unicode="&#x219;" horiz-adv-x="500" d="M246 -12 C389 -12 475 58 475 154 C475 355 201 305 201 345 C201 358 220 366 246 366 C302 366 358 341 388 316 L454 433 C398 470 326 495 245 495 C105 495 29 419 29 332 C29 130 303 189 303 143 C303 131 292 122 255 122 C201 122 119 153 81 183 L9 62 C61 19 157 -12 246 -12 L246 -12 Z M336 -139 C336 -77 294 -42 249 -42 C207 -42 171 -77 171 -121 C171 -163 200 -190 236 -190 C244 -190 252 -189 255 -187 C246 -216 211 -249 187 -260 L242 -304 C300 -263 336 -205 336 -139 L336 -139 Z " />
<glyph glyph-name="&amp;#x2b0;" unicode="&#x2b0;" horiz-adv-x="424" d="M384 326 L384 548 C384 602 352 648 276 648 C217 648 184 626 166 606 L166 760 L40 760 L40 326 L166 326 L166 520 C175 529 188 541 212 541 C240 541 257 531 257 500 L257 326 L384 326 Z " />
<glyph glyph-name="&amp;#xf637;" unicode="&#xf637;" horiz-adv-x="424" d="M384 326 L384 548 C384 602 352 648 276 648 C217 648 184 626 166 606 L166 760 L40 760 L40 326 L166 326 L166 520 C175 529 188 541 212 541 C240 541 257 531 257 500 L257 326 L384 326 Z " />
<glyph glyph-name="circumflex" unicode="&#x2c6;" horiz-adv-x="335" d="M335 556 L244 700 L88 700 L0 556 L105 556 L166 629 L230 556 L335 556 Z " />
<glyph glyph-name="caron" unicode="&#x2c7;" horiz-adv-x="335" d="M247 556 L335 700 L230 700 L169 627 L105 700 L0 700 L91 556 L247 556 Z " />
<glyph glyph-name="breve" unicode="&#x2d8;" horiz-adv-x="351" d="M351 637 L276 699 C252 665 218 646 176 646 C132 646 98 668 76 699 L0 637 C41 583 105 549 176 549 C248 549 311 583 351 637 L351 637 Z " />
<glyph glyph-name="dotaccent" unicode="&#x2d9;" horiz-adv-x="237" d="M119 530 C167 530 207 570 207 619 C207 668 167 708 119 708 C70 708 30 668 30 619 C30 570 70 530 119 530 L119 530 Z " />
<glyph glyph-name="ring" unicode="&#x2da;" horiz-adv-x="222" d="M112 541 C173 541 222 592 222 653 C222 714 173 765 112 765 C51 765 0 714 0 653 C0 592 51 541 112 541 L112 541 Z M112 618 C93 618 77 634 77 653 C77 672 93 688 112 688 C131 688 146 672 146 653 C146 634 131 618 112 618 L112 618 Z " />
<glyph glyph-name="ogonek" unicode="&#x2db;" horiz-adv-x="211" d="M145 -90 C139 -105 128 -118 110 -118 C98 -118 81 -111 81 -84 C81 -55 97 -25 146 0 L89 37 C31 4 0 -38 0 -92 C0 -159 53 -186 110 -186 C156 -186 189 -166 211 -133 L145 -90 Z " />
<glyph glyph-name="tilde" unicode="&#x2dc;" horiz-adv-x="341" d="M223 554 C300 554 341 596 341 688 L252 688 C252 663 241 651 228 651 C201 651 180 694 118 694 C41 694 0 652 0 560 L89 560 C89 585 100 597 113 597 C140 597 161 554 223 554 L223 554 Z " />
<glyph glyph-name="hungarumlaut" unicode="&#x2dd;" horiz-adv-x="371" d="M215 700 L80 700 L0 556 L100 556 L215 700 Z M371 700 L236 700 L156 556 L256 556 L371 700 Z " />
<glyph glyph-name="&amp;#x394;" unicode="&#x394;" horiz-adv-x="710" d="M728 0 L482 667 L228 667 L-18 0 L728 0 Z M445 176 L265 176 L355 469 L445 176 Z " />
<glyph glyph-name="&amp;#x2206;" unicode="&#x2206;" horiz-adv-x="710" d="M728 0 L482 667 L228 667 L-18 0 L728 0 Z M445 176 L265 176 L355 469 L445 176 Z " />
<glyph glyph-name="&amp;#x3a9;" unicode="&#x3a9;" horiz-adv-x="766" d="M35 0 L333 0 L333 176 C253 200 223 275 223 335 C223 399 258 499 383 499 C508 499 543 399 543 335 C543 275 513 200 433 176 L433 0 L731 0 L731 176 L628 176 C694 226 748 297 748 383 C748 572 589 678 383 678 C178 678 18 572 18 383 C18 297 72 226 138 176 L35 176 L35 0 Z " />
<glyph glyph-name="&amp;#x2126;" unicode="&#x2126;" horiz-adv-x="766" d="M35 0 L333 0 L333 176 C253 200 223 275 223 335 C223 399 258 499 383 499 C508 499 543 399 543 335 C543 275 513 200 433 176 L433 0 L731 0 L731 176 L628 176 C694 226 748 297 748 383 C748 572 589 678 383 678 C178 678 18 572 18 383 C18 297 72 226 138 176 L35 176 L35 0 Z " />
<glyph glyph-name="pi" unicode="&#x3c0;" horiz-adv-x="681" d="M600 0 L600 343 L663 343 L663 500 L18 500 L18 343 L82 343 L82 0 L262 0 L262 343 L420 343 L420 0 L600 0 Z " />
<glyph glyph-name="endash" unicode="&#x2013;" horiz-adv-x="593" d="M563 167 L563 317 L30 317 L30 167 L563 167 Z " />
<glyph glyph-name="emdash" unicode="&#x2014;" horiz-adv-x="833" d="M803 167 L803 317 L30 317 L30 167 L803 167 Z " />
<glyph glyph-name="quoteleft" unicode="&#x2018;" horiz-adv-x="281" d="M30 458 C30 376 85 329 146 329 C202 329 250 376 250 434 C250 490 211 527 163 527 C152 527 142 525 137 523 C150 561 196 605 228 619 L155 678 C77 623 30 546 30 458 L30 458 Z " />
<glyph glyph-name="quoteright" unicode="&#x2019;" horiz-adv-x="281" d="M254 548 C254 630 199 677 138 677 C82 677 34 630 34 572 C34 516 73 479 121 479 C132 479 142 481 147 483 C134 445 88 401 56 387 L129 328 C207 383 254 460 254 548 L254 548 Z " />
<glyph glyph-name="quotesinglbase" unicode="&#x201a;" horiz-adv-x="281" d="M254 73 C254 155 199 202 138 202 C82 202 34 155 34 97 C34 41 73 4 121 4 C132 4 142 6 147 8 C134 -30 88 -74 56 -88 L129 -147 C207 -92 254 -15 254 73 L254 73 Z " />
<glyph glyph-name="quotedblleft" unicode="&#x201c;" horiz-adv-x="528" d="M26 458 C26 376 81 329 142 329 C198 329 246 376 246 434 C246 490 207 527 159 527 C148 527 138 525 133 523 C146 561 192 605 224 619 L151 678 C73 623 26 546 26 458 L26 458 Z M273 458 C273 376 328 329 389 329 C445 329 493 376 493 434 C493 490 454 527 406 527 C395 527 385 525 380 523 C393 561 439 605 471 619 L398 678 C320 623 273 546 273 458 L273 458 Z " />
<glyph glyph-name="quotedblright" unicode="&#x201d;" horiz-adv-x="528" d="M501 548 C501 630 446 677 385 677 C329 677 281 630 281 572 C281 516 320 479 368 479 C379 479 389 481 394 483 C381 445 335 401 303 387 L376 328 C454 383 501 460 501 548 L501 548 Z M254 548 C254 630 199 677 138 677 C82 677 34 630 34 572 C34 516 73 479 121 479 C132 479 142 481 147 483 C134 445 88 401 56 387 L129 328 C207 383 254 460 254 548 L254 548 Z " />
<glyph glyph-name="quotedblbase" unicode="&#x201e;" horiz-adv-x="528" d="M254 73 C254 155 199 202 138 202 C82 202 34 155 34 97 C34 41 73 4 121 4 C132 4 142 6 147 8 C134 -30 88 -74 56 -88 L129 -147 C207 -92 254 -15 254 73 L254 73 Z M501 73 C501 155 446 202 385 202 C329 202 281 155 281 97 C281 41 320 4 368 4 C379 4 389 6 394 8 C381 -30 335 -74 303 -88 L376 -147 C454 -92 501 -15 501 73 L501 73 Z " />
<glyph glyph-name="dagger" unicode="&#x2020;" horiz-adv-x="291" d="M274 513 L274 594 L185 591 L189 677 L101 677 L106 591 L17 594 L17 513 L106 517 L101 327 L189 327 L185 517 L274 513 Z " />
<glyph glyph-name="daggerdbl" unicode="&#x2021;" horiz-adv-x="291" d="M274 594 L185 591 L189 677 L101 677 L105 591 L17 594 L17 513 L105 517 L105 342 L17 346 L17 265 L105 268 L101 180 L189 180 L185 268 L274 265 L274 346 L185 342 L185 517 L274 513 L274 594 Z " />
<glyph glyph-name="bullet" unicode="&#x2022;" horiz-adv-x="358" d="M310 242 C310 314 252 372 180 372 C108 372 50 314 50 242 C50 171 108 113 180 113 C252 113 310 171 310 242 L310 242 Z " />
<glyph glyph-name="ellipsis" unicode="&#x2026;" horiz-adv-x="846" d="M247 95 C247 153 199 202 141 202 C83 202 35 153 35 95 C35 38 83 -11 141 -11 C199 -11 247 38 247 95 L247 95 Z M529 95 C529 153 481 202 423 202 C365 202 317 153 317 95 C317 38 365 -11 423 -11 C481 -11 529 38 529 95 L529 95 Z M811 95 C811 153 763 202 705 202 C647 202 599 153 599 95 C599 38 647 -11 705 -11 C763 -11 811 38 811 95 L811 95 Z " />
<glyph glyph-name="perthousand" unicode="&#x2030;" horiz-adv-x="1160" d="M378 508 C378 602 308 677 198 677 C89 677 20 602 20 508 C20 415 89 341 198 341 C308 341 378 415 378 508 L378 508 Z M655 667 L557 667 L131 0 L228 0 L655 667 Z M764 155 C764 249 694 324 585 324 C476 324 407 249 407 155 C407 62 476 -12 585 -12 C694 -12 764 62 764 155 L764 155 Z M256 508 C256 456 230 435 198 435 C167 435 142 456 142 508 C142 562 167 583 198 583 C230 583 256 562 256 508 L256 508 Z M643 155 C643 103 617 82 585 82 C553 82 528 103 528 155 C528 209 553 230 585 230 C617 230 643 209 643 155 L643 155 Z M1140 155 C1140 249 1070 324 961 324 C852 324 783 249 783 155 C783 62 852 -12 961 -12 C1070 -12 1140 62 1140 155 L1140 155 Z M1019 155 C1019 103 993 82 961 82 C929 82 904 103 904 155 C904 209 929 230 961 230 C993 230 1019 209 1019 155 L1019 155 Z " />
<glyph glyph-name="guilsinglleft" unicode="&#x2039;" horiz-adv-x="380" d="M350 63 L190 243 L350 420 L190 420 L30 243 L190 63 L350 63 Z " />
<glyph glyph-name="guilsinglright" unicode="&#x203a;" horiz-adv-x="380" d="M350 243 L190 420 L30 420 L190 243 L30 63 L190 63 L350 243 Z " />
<glyph glyph-name="&amp;#x2044;" unicode="&#x2044;" horiz-adv-x="180" d="M352 667 L254 667 L-172 0 L-75 0 L352 667 Z " />
<glyph glyph-name="&amp;#x2215;" unicode="&#x2215;" horiz-adv-x="180" d="M352 667 L254 667 L-172 0 L-75 0 L352 667 Z " />
<glyph glyph-name="zerosuperior" unicode="&#x2070;" horiz-adv-x="407" d="M387 621 C387 730 327 827 204 827 C80 827 20 730 20 621 C20 511 80 414 204 414 C327 414 387 511 387 621 L387 621 Z M255 621 C255 547 238 518 204 518 C169 518 152 547 152 621 C152 695 169 723 204 723 C238 723 255 695 255 621 L255 621 Z " />
<glyph glyph-name="foursuperior" unicode="&#x2074;" horiz-adv-x="407" d="M394 492 L394 594 L347 594 L347 821 L162 821 L19 579 L19 492 L216 492 L216 421 L347 421 L347 492 L394 492 Z M216 594 L148 594 L216 712 L216 594 Z " />
<glyph glyph-name="fivesuperior" unicode="&#x2075;" horiz-adv-x="407" d="M383 559 C383 644 322 686 253 686 C219 686 188 674 169 656 L169 717 L356 717 L356 821 L37 821 L37 593 L127 566 C147 584 170 592 202 592 C238 592 253 575 253 555 C253 537 237 518 198 518 C164 518 122 528 94 553 L25 469 C62 434 125 414 198 414 C317 414 383 476 383 559 L383 559 Z " />
<glyph glyph-name="sixsuperior" unicode="&#x2076;" horiz-adv-x="407" d="M389 560 C389 645 317 696 242 696 C208 696 175 684 151 656 C151 657 151 657 151 658 C151 699 192 723 239 723 C268 723 289 719 314 701 L368 794 C334 815 284 827 239 827 C110 827 19 758 19 620 C19 502 81 414 218 414 C316 414 389 471 389 560 L389 560 Z M257 554 C257 534 236 518 211 518 C169 518 152 546 151 579 C167 593 185 595 203 595 C224 595 257 585 257 554 L257 554 Z " />
<glyph glyph-name="sevensuperior" unicode="&#x2077;" horiz-adv-x="379" d="M359 730 L359 821 L20 821 L20 717 L217 717 L83 421 L229 421 L359 730 Z " />
<glyph glyph-name="eightsuperior" unicode="&#x2078;" horiz-adv-x="407" d="M389 528 C389 570 353 614 301 627 C349 639 383 674 383 719 C383 799 289 827 203 827 C118 827 24 799 24 719 C24 674 57 639 106 627 C53 614 17 570 17 528 C17 437 115 414 203 414 C293 414 389 437 389 528 L389 528 Z M251 699 C251 678 216 669 203 667 C191 669 155 678 155 699 C155 718 172 728 203 728 C235 728 251 718 251 699 L251 699 Z M259 542 C259 522 238 513 203 513 C168 513 148 522 148 542 C148 569 190 580 203 581 C217 580 259 569 259 542 L259 542 Z " />
<glyph glyph-name="ninesuperior" unicode="&#x2079;" horiz-adv-x="407" d="M19 681 C19 596 92 545 166 545 C200 545 233 557 257 585 C257 584 257 584 257 583 C257 537 212 518 170 518 C141 518 119 522 95 540 L41 447 C74 426 124 414 169 414 C298 414 389 483 389 621 C389 739 327 827 191 827 C92 827 19 770 19 681 L19 681 Z M152 687 C152 707 172 723 200 723 C239 723 256 695 257 663 C241 648 223 646 205 646 C184 646 152 656 152 687 L152 687 Z " />
<glyph glyph-name="parenleftsuperior" unicode="&#x207d;" horiz-adv-x="223" d="M213 387 C169 465 155 533 155 621 C155 709 169 777 213 855 L133 886 C67 834 21 717 21 621 C21 524 67 407 133 356 L213 387 Z " />
<glyph glyph-name="parenrightsuperior" unicode="&#x207e;" horiz-adv-x="223" d="M202 621 C202 717 155 834 89 886 L10 855 C53 778 68 709 68 621 C68 533 53 465 10 387 L89 356 C155 408 202 524 202 621 L202 621 Z " />
<glyph glyph-name="nsuperior" unicode="&#x207f;" horiz-adv-x="425" d="M385 326 L385 547 C385 601 352 648 277 648 C218 648 186 626 167 606 L167 640 L40 640 L40 326 L167 326 L167 520 C176 529 189 541 214 541 C241 541 258 529 258 498 L258 326 L385 326 Z " />
<glyph glyph-name="zeroinferior" unicode="&#x2080;" horiz-adv-x="407" d="M387 54 C387 163 327 260 204 260 C80 260 20 163 20 54 C20 -56 80 -153 204 -153 C327 -153 387 -56 387 54 L387 54 Z M255 54 C255 -20 238 -49 204 -49 C169 -49 152 -20 152 54 C152 128 169 156 204 156 C238 156 255 128 255 54 L255 54 Z " />
<glyph glyph-name="oneinferior" unicode="&#x2081;" horiz-adv-x="336" d="M276 -146 L276 254 L163 254 L0 96 L74 18 L144 87 L144 -146 L276 -146 Z " />
<glyph glyph-name="twoinferior" unicode="&#x2082;" horiz-adv-x="407" d="M380 -146 L380 -42 L232 -42 C346 37 376 79 376 129 C376 209 308 260 197 260 C143 260 71 243 22 192 L88 108 C107 129 151 156 194 156 C227 156 244 141 244 118 C244 95 234 82 42 -51 L42 -146 L380 -146 Z " />
<glyph glyph-name="threeinferior" unicode="&#x2083;" horiz-adv-x="407" d="M383 -33 C383 23 332 56 287 60 C341 69 376 108 376 149 C376 213 321 260 203 260 C121 260 65 233 28 194 L86 117 C115 144 154 156 188 156 C222 156 245 150 245 131 C245 111 228 105 178 105 C163 105 139 105 130 106 L130 4 C136 5 161 5 179 5 C224 5 252 3 252 -23 C252 -37 235 -49 197 -49 C169 -49 119 -37 85 -4 L23 -91 C58 -127 120 -153 202 -153 C310 -153 383 -104 383 -33 L383 -33 Z " />
<glyph glyph-name="fourinferior" unicode="&#x2084;" horiz-adv-x="407" d="M394 -75 L394 27 L347 27 L347 254 L162 254 L19 12 L19 -75 L216 -75 L216 -146 L347 -146 L347 -75 L394 -75 Z M216 27 L148 27 L216 145 L216 27 Z " />
<glyph glyph-name="fiveinferior" unicode="&#x2085;" horiz-adv-x="407" d="M383 -8 C383 77 322 119 253 119 C219 119 188 107 169 89 L169 150 L356 150 L356 254 L37 254 L37 26 L127 -1 C147 17 170 25 202 25 C238 25 253 8 253 -12 C253 -30 237 -49 198 -49 C164 -49 122 -39 94 -14 L25 -98 C62 -133 125 -153 198 -153 C317 -153 383 -91 383 -8 L383 -8 Z " />
<glyph glyph-name="sixinferior" unicode="&#x2086;" horiz-adv-x="407" d="M389 -7 C389 78 317 129 242 129 C208 129 175 117 151 89 C151 90 151 90 151 91 C151 132 192 156 239 156 C268 156 289 152 314 134 L368 227 C334 248 284 260 239 260 C110 260 19 191 19 53 C19 -65 81 -153 218 -153 C316 -153 389 -96 389 -7 L389 -7 Z M257 -13 C257 -33 236 -49 211 -49 C169 -49 152 -21 151 12 C167 26 185 28 203 28 C224 28 257 18 257 -13 L257 -13 Z " />
<glyph glyph-name="seveninferior" unicode="&#x2087;" horiz-adv-x="379" d="M359 163 L359 254 L20 254 L20 150 L217 150 L83 -146 L229 -146 L359 163 Z " />
<glyph glyph-name="eightinferior" unicode="&#x2088;" horiz-adv-x="407" d="M389 -39 C389 3 353 47 301 60 C349 72 383 107 383 152 C383 232 289 260 203 260 C118 260 24 232 24 152 C24 107 57 72 106 60 C53 47 17 3 17 -39 C17 -130 115 -153 203 -153 C293 -153 389 -130 389 -39 L389 -39 Z M251 132 C251 111 216 102 203 100 C191 102 155 111 155 132 C155 151 172 161 203 161 C235 161 251 151 251 132 L251 132 Z M259 -25 C259 -45 238 -54 203 -54 C168 -54 148 -45 148 -25 C148 2 190 13 203 14 C217 13 259 2 259 -25 L259 -25 Z " />
<glyph glyph-name="nineinferior" unicode="&#x2089;" horiz-adv-x="407" d="M19 114 C19 29 92 -22 166 -22 C200 -22 233 -10 257 18 C257 17 257 17 257 16 C257 -30 212 -49 170 -49 C141 -49 119 -45 95 -27 L41 -120 C74 -141 124 -153 169 -153 C298 -153 389 -84 389 54 C389 172 327 260 191 260 C92 260 19 203 19 114 L19 114 Z M152 120 C152 140 172 156 200 156 C239 156 256 128 257 96 C241 81 223 79 205 79 C184 79 152 89 152 120 L152 120 Z " />
<glyph glyph-name="parenleftinferior" unicode="&#x208d;" horiz-adv-x="223" d="M213 -180 C169 -102 155 -34 155 54 C155 142 169 210 213 288 L133 319 C67 267 21 150 21 54 C21 -43 67 -160 133 -211 L213 -180 Z " />
<glyph glyph-name="parenrightinferior" unicode="&#x208e;" horiz-adv-x="223" d="M202 54 C202 150 155 267 89 319 L10 288 C53 211 68 142 68 54 C68 -34 53 -102 10 -180 L89 -211 C155 -159 202 -43 202 54 L202 54 Z " />
<glyph glyph-name="colonmonetary" unicode="&#x20a1;" horiz-adv-x="712" d="M656 768 L561 768 L524 656 C510 662 494 666 478 669 L510 768 L415 768 L385 677 C182 672 30 535 30 333 C30 209 87 109 179 49 L130 -100 L225 -100 L261 10 C276 5 292 0 308 -3 L276 -100 L371 -100 L400 -12 C573 -11 661 94 700 183 L526 263 C509 211 457 166 397 166 C300 166 235 240 235 333 C235 426 300 500 397 500 C457 500 509 455 526 403 L700 484 C681 528 650 574 605 611 L656 768 Z " />
<glyph glyph-name="frenchfranc" unicode="&#x20a3;" horiz-adv-x="599" d="M263 0 L263 81 L370 81 L370 178 L263 178 L263 249 L560 249 L560 425 L263 425 L263 491 L567 491 L567 667 L61 667 L61 178 L7 178 L7 81 L61 81 L61 0 L263 0 Z " />
<glyph glyph-name="lira" unicode="&#x20a4;" horiz-adv-x="581" d="M26 339 L87 339 C94 327 101 316 107 304 L26 304 L26 220 L131 220 C130 178 85 147 46 125 L112 -7 C150 15 191 30 226 30 C272 30 324 -12 409 -12 C493 -12 542 11 569 40 L492 199 C479 181 456 166 416 166 C373 166 355 191 302 191 C291 191 274 190 259 185 C272 193 283 205 292 220 L419 220 L419 304 L308 304 C306 317 304 328 301 339 L419 339 L419 423 L268 423 C265 433 263 444 263 456 C263 488 289 515 329 515 C361 515 391 497 406 455 L566 547 C518 639 434 677 303 677 C189 677 42 604 42 460 C42 447 44 435 47 423 L26 423 L26 339 Z " />
<glyph glyph-name="uni20A6" unicode="&#x20a6;" horiz-adv-x="764" d="M703 0 L703 220 L757 220 L757 317 L703 317 L703 354 L757 354 L757 451 L703 451 L703 667 L501 667 L501 351 L269 667 L61 667 L61 451 L7 451 L7 354 L61 354 L61 317 L7 317 L7 220 L61 220 L61 0 L263 0 L263 338 L509 0 L703 0 Z " />
<glyph glyph-name="peseta" unicode="&#x20a7;" horiz-adv-x="715" d="M711 360 L711 457 L653 457 C636 575 554 667 417 667 L61 667 L61 457 L7 457 L7 360 L61 360 L61 0 L263 0 L263 150 L417 150 C554 150 636 242 653 360 L711 360 Z M391 326 L263 326 L263 360 L443 360 C432 337 413 326 391 326 L391 326 Z M263 491 L391 491 C413 491 431 479 442 457 L263 457 L263 491 Z " />
<glyph glyph-name="rupee" unicode="&#x20a8;" horiz-adv-x="1125" d="M651 0 L530 236 C583 262 650 323 650 438 C650 563 566 667 410 667 L54 667 L54 0 L256 0 L256 210 L329 210 L421 0 L651 0 Z M379 386 L256 386 L256 491 L379 491 C413 491 445 475 445 439 C445 402 413 386 379 386 L379 386 Z M881 -12 C1024 -12 1110 58 1110 154 C1110 355 836 305 836 345 C836 358 855 366 881 366 C937 366 993 341 1023 316 L1089 433 C1033 470 961 495 880 495 C740 495 664 419 664 332 C664 130 938 189 938 143 C938 131 927 122 890 122 C836 122 754 153 716 183 L644 62 C696 19 792 -12 881 -12 L881 -12 Z " />
<glyph glyph-name="uni20A9" unicode="&#x20a9;" horiz-adv-x="954" d="M775 0 L838 220 L949 220 L949 317 L866 317 L876 354 L949 354 L949 451 L904 451 L966 667 L739 667 L654 259 L553 667 L401 667 L300 259 L214 667 L-12 667 L50 451 L5 451 L5 354 L77 354 L88 317 L5 317 L5 220 L116 220 L179 0 L391 0 L477 378 L563 0 L775 0 Z " />
<glyph glyph-name="afii57636" unicode="&#x20aa;" horiz-adv-x="869" d="M375 550 L50 550 L50 0 L218 0 L218 397 L375 397 C442 397 451 366 451 308 L451 190 L619 190 L619 325 C619 462 569 550 375 550 L375 550 Z M575 0 C769 0 819 88 819 225 L819 550 L651 550 L651 242 C651 184 642 153 575 153 L418 153 L418 359 L250 359 L250 0 L575 0 Z " />
<glyph glyph-name="Euro" unicode="&#x20ac;" horiz-adv-x="722" d="M410 -12 C585 -12 674 94 713 183 L539 263 C522 211 470 166 410 166 C359 166 318 186 289 218 L470 218 L470 313 L249 313 C248 319 248 326 248 333 C248 341 248 348 249 356 L470 356 L470 451 L292 451 C320 481 361 500 410 500 C470 500 522 455 539 403 L713 484 C673 576 585 678 410 678 C244 678 110 590 62 451 L12 451 L12 356 L44 356 C43 348 43 340 43 333 L43 313 L12 313 L12 218 L61 218 C108 77 243 -12 410 -12 L410 -12 Z " />
<glyph glyph-name="afii61289" unicode="&#x2113;" horiz-adv-x="576" d="M51 469 C51 590 161 677 318 677 C442 677 560 613 560 514 C560 430 469 362 378 303 L231 207 L231 174 C231 149 246 129 271 129 C286 129 296 131 307 138 L339 20 C314 -2 266 -12 217 -12 C118 -12 51 32 51 140 L51 469 Z M320 427 C370 460 390 477 390 504 C390 536 354 555 314 555 C261 555 231 523 231 469 L231 369 L320 427 Z " />
<glyph glyph-name="afii61352" unicode="&#x2116;" horiz-adv-x="1155" d="M696 0 L696 667 L494 667 L494 351 L262 667 L54 667 L54 0 L256 0 L256 338 L502 0 L696 0 Z M952 350 C1068 350 1135 428 1135 515 C1135 602 1068 680 952 680 C838 680 770 602 770 515 C770 428 838 350 952 350 L952 350 Z M952 450 C920 450 901 470 901 515 C901 560 920 578 952 578 C985 578 1005 560 1005 515 C1005 470 985 450 952 450 L952 450 Z " />
<glyph glyph-name="published" unicode="&#x2117;" horiz-adv-x="778" d="M734 334 C734 524 579 679 389 679 C199 679 44 524 44 334 C44 144 199 -11 389 -11 C579 -11 734 144 734 334 L734 334 Z M692 334 C692 168 555 31 389 31 C223 31 86 168 86 334 C86 500 223 637 389 637 C555 637 692 500 692 334 L692 334 Z M560 413 C560 487 498 536 432 536 L266 536 L266 131 L320 131 L320 292 L432 292 C500 292 560 342 560 413 L560 413 Z M503 413 C503 371 467 340 432 340 L320 340 L320 488 L432 488 C467 488 503 457 503 413 L503 413 Z " />
<glyph glyph-name="servicemark" unicode="&#x2120;" horiz-adv-x="476" d="M439 447 L439 667 L396 667 L332 507 L268 667 L225 667 L225 447 L253 447 L253 629 L328 447 L336 447 L411 629 L411 447 L439 447 Z M188 506 C188 591 52 560 52 613 C52 634 72 649 100 649 C125 649 148 640 163 622 L181 641 C164 661 137 673 99 673 C53 673 19 647 19 611 C19 529 155 562 155 503 C155 481 138 465 102 465 C72 465 48 479 33 496 L15 475 C33 454 62 439 101 439 C158 439 188 466 188 506 L188 506 Z " />
<glyph glyph-name="trademark" unicode="&#x2122;" horiz-adv-x="454" d="M419 447 L419 667 L376 667 L312 507 L248 667 L205 667 L205 447 L233 447 L233 629 L308 447 L316 447 L391 629 L391 447 L419 447 Z M169 641 L169 667 L17 667 L17 641 L79 641 L79 447 L107 447 L107 641 L169 641 Z " />
<glyph glyph-name="estimated" unicode="&#x212e;" horiz-adv-x="842" d="M811 324 L811 333 C811 527 636 684 421 684 C206 684 31 527 31 333 C31 139 206 -18 421 -18 C547 -18 659 35 730 118 L673 118 C612 47 524 3 423 3 C329 3 243 43 183 106 C177 112 174 120 174 129 L174 319 C174 322 176 324 179 324 L811 324 Z M668 349 C668 346 667 343 664 343 L179 343 C176 343 174 346 174 349 L174 537 C174 546 178 555 184 561 C244 623 329 663 423 663 C515 663 598 625 658 564 C664 558 668 549 668 540 L668 349 Z " />
<glyph glyph-name="onethird" unicode="&#x2153;" horiz-adv-x="927" d="M692 667 L594 667 L168 0 L265 0 L692 667 Z M903 113 C903 169 852 202 807 206 C861 215 896 254 896 295 C896 359 841 406 723 406 C641 406 585 379 548 340 L606 263 C635 290 674 302 708 302 C742 302 765 296 765 277 C765 257 748 251 698 251 C683 251 659 251 650 252 L650 150 C656 151 681 151 699 151 C744 151 772 149 772 123 C772 109 755 97 717 97 C689 97 639 109 605 142 L543 55 C578 19 640 -7 722 -7 C830 -7 903 42 903 113 L903 113 Z M276 267 L276 667 L163 667 L0 509 L74 431 L144 500 L144 267 L276 267 Z " />
<glyph glyph-name="twothirds" unicode="&#x2154;" horiz-adv-x="994" d="M759 667 L661 667 L235 0 L332 0 L759 667 Z M970 113 C970 169 919 202 874 206 C928 215 963 254 963 295 C963 359 908 406 790 406 C708 406 652 379 615 340 L673 263 C702 290 741 302 775 302 C809 302 832 296 832 277 C832 257 815 251 765 251 C750 251 726 251 717 252 L717 150 C723 151 748 151 766 151 C811 151 839 149 839 123 C839 109 822 97 784 97 C756 97 706 109 672 142 L610 55 C645 19 707 -7 789 -7 C897 -7 970 42 970 113 L970 113 Z M380 267 L380 371 L232 371 C346 450 376 492 376 542 C376 622 308 673 197 673 C143 673 71 656 22 605 L88 521 C107 542 151 569 194 569 C227 569 244 554 244 531 C244 508 234 495 42 362 L42 267 L380 267 Z " />
<glyph glyph-name="oneeighth" unicode="&#x215b;" horiz-adv-x="927" d="M692 667 L594 667 L168 0 L265 0 L692 667 Z M909 107 C909 149 873 193 821 206 C869 218 903 253 903 298 C903 378 809 406 723 406 C638 406 544 378 544 298 C544 253 577 218 626 206 C573 193 537 149 537 107 C537 16 635 -7 723 -7 C813 -7 909 16 909 107 L909 107 Z M771 278 C771 257 736 248 723 246 C711 248 675 257 675 278 C675 297 692 307 723 307 C755 307 771 297 771 278 L771 278 Z M779 121 C779 101 758 92 723 92 C688 92 668 101 668 121 C668 148 710 159 723 160 C737 159 779 148 779 121 L779 121 Z M276 267 L276 667 L163 667 L0 509 L74 431 L144 500 L144 267 L276 267 Z " />
<glyph glyph-name="threeeighths" unicode="&#x215c;" horiz-adv-x="994" d="M759 667 L661 667 L235 0 L332 0 L759 667 Z M976 107 C976 149 940 193 888 206 C936 218 970 253 970 298 C970 378 876 406 790 406 C705 406 611 378 611 298 C611 253 644 218 693 206 C640 193 604 149 604 107 C604 16 702 -7 790 -7 C880 -7 976 16 976 107 L976 107 Z M838 278 C838 257 803 248 790 246 C778 248 742 257 742 278 C742 297 759 307 790 307 C822 307 838 297 838 278 L838 278 Z M846 121 C846 101 825 92 790 92 C755 92 735 101 735 121 C735 148 777 159 790 160 C804 159 846 148 846 121 L846 121 Z M383 380 C383 436 332 469 287 473 C341 482 376 521 376 562 C376 626 321 673 203 673 C121 673 65 646 28 607 L86 530 C115 557 154 569 188 569 C222 569 245 563 245 544 C245 524 228 518 178 518 C163 518 139 518 130 519 L130 417 C136 418 161 418 179 418 C224 418 252 416 252 390 C252 376 235 364 197 364 C169 364 119 376 85 409 L23 322 C58 286 120 260 202 260 C310 260 383 309 383 380 L383 380 Z " />
<glyph glyph-name="fiveeighths" unicode="&#x215d;" horiz-adv-x="984" d="M749 667 L651 667 L225 0 L322 0 L749 667 Z M966 107 C966 149 930 193 878 206 C926 218 960 253 960 298 C960 378 866 406 780 406 C695 406 601 378 601 298 C601 253 634 218 683 206 C630 193 594 149 594 107 C594 16 692 -7 780 -7 C870 -7 966 16 966 107 L966 107 Z M828 278 C828 257 793 248 780 246 C768 248 732 257 732 278 C732 297 749 307 780 307 C812 307 828 297 828 278 L828 278 Z M836 121 C836 101 815 92 780 92 C745 92 725 101 725 121 C725 148 767 159 780 160 C794 159 836 148 836 121 L836 121 Z M383 405 C383 490 322 532 253 532 C219 532 188 520 169 502 L169 563 L356 563 L356 667 L37 667 L37 439 L127 412 C147 430 170 438 202 438 C238 438 253 421 253 401 C253 383 237 364 198 364 C164 364 122 374 94 399 L25 315 C62 280 125 260 198 260 C317 260 383 322 383 405 L383 405 Z " />
<glyph glyph-name="seveneighths" unicode="&#x215e;" horiz-adv-x="916" d="M681 667 L583 667 L157 0 L254 0 L681 667 Z M898 107 C898 149 862 193 810 206 C858 218 892 253 892 298 C892 378 798 406 712 406 C627 406 533 378 533 298 C533 253 566 218 615 206 C562 193 526 149 526 107 C526 16 624 -7 712 -7 C802 -7 898 16 898 107 L898 107 Z M760 278 C760 257 725 248 712 246 C700 248 664 257 664 278 C664 297 681 307 712 307 C744 307 760 297 760 278 L760 278 Z M768 121 C768 101 747 92 712 92 C677 92 657 101 657 121 C657 148 699 159 712 160 C726 159 768 148 768 121 L768 121 Z M359 576 L359 667 L20 667 L20 563 L217 563 L83 267 L229 267 L359 576 Z " />
<glyph glyph-name="arrowleft" unicode="&#x2190;" horiz-adv-x="582" d="M538 211 L538 361 L269 361 L281 490 L0 286 L281 81 L269 211 L538 211 Z " />
<glyph glyph-name="arrowup" unicode="&#x2191;" horiz-adv-x="582" d="M216 17 L366 17 L366 286 L495 274 L291 555 L86 274 L216 286 L216 17 Z " />
<glyph glyph-name="arrowright" unicode="&#x2192;" horiz-adv-x="582" d="M584 286 L303 490 L315 361 L47 361 L47 211 L315 211 L303 81 L584 286 Z " />
<glyph glyph-name="arrowdown" unicode="&#x2193;" horiz-adv-x="582" d="M366 555 L216 555 L216 286 L87 298 L291 17 L496 298 L366 286 L366 555 Z " />
<glyph glyph-name="partialdiff" unicode="&#x2202;" horiz-adv-x="577" d="M288 -12 C460 -12 560 94 560 264 C560 447 441 614 334 687 L188 593 C295 533 346 457 378 366 C350 415 298 441 225 441 C109 441 17 336 17 215 C17 94 117 -12 288 -12 L288 -12 Z M288 147 C233 147 202 172 202 215 C202 258 233 283 288 283 C344 283 375 258 375 215 C375 172 344 147 288 147 L288 147 Z " />
<glyph glyph-name="product" unicode="&#x220f;" horiz-adv-x="868" d="M751 -90 L751 491 L850 491 L850 667 L18 667 L18 491 L118 491 L118 -90 L320 -90 L320 491 L549 491 L549 -90 L751 -90 Z " />
<glyph glyph-name="summation" unicode="&#x2211;" horiz-adv-x="596" d="M460 295 L281 86 L560 86 L560 -90 L36 -90 L36 86 L211 294 L37 492 L37 667 L560 667 L560 491 L290 491 L460 295 Z " />
<glyph glyph-name="minus" unicode="&#x2212;" horiz-adv-x="510" d="M481 282 L481 387 L29 387 L29 282 L481 282 Z " />
<glyph glyph-name="radical" unicode="&#x221a;" horiz-adv-x="639" d="M382 0 L621 667 L491 667 L329 177 L255 411 L39 345 L70 244 L177 277 L271 0 L382 0 Z " />
<glyph glyph-name="infinity" unicode="&#x221e;" horiz-adv-x="724" d="M208 147 C275 147 333 184 362 237 C391 184 449 147 516 147 C647 147 695 244 695 335 C695 426 647 525 516 525 C449 525 391 487 362 434 C333 487 275 525 208 525 C79 525 29 427 29 336 C29 245 79 147 208 147 L208 147 Z M500 251 C458 251 426 284 410 335 C426 386 458 421 500 421 C544 421 582 389 582 335 C582 281 544 251 500 251 L500 251 Z M225 250 C181 250 142 282 142 336 C142 390 181 421 225 421 C267 421 299 387 315 336 C299 285 267 250 225 250 L225 250 Z " />
<glyph glyph-name="integral" unicode="&#x222b;" horiz-adv-x="399" d="M77 -100 C174 -100 262 -32 262 84 L262 584 C262 628 289 654 322 654 L382 654 L382 768 L322 768 C225 768 137 699 137 583 L137 85 C137 42 110 14 77 14 L17 14 L17 -100 L77 -100 Z " />
<glyph glyph-name="approxequal" unicode="&#x2248;" horiz-adv-x="510" d="M29 190 C59 179 104 171 142 171 C255 171 274 216 367 216 C405 216 447 206 481 189 L481 301 C451 312 405 321 367 321 C254 321 235 276 142 276 C104 276 63 285 29 302 L29 190 Z M29 367 C59 356 104 348 142 348 C255 348 274 393 367 393 C405 393 447 383 481 366 L481 478 C451 489 405 498 367 498 C254 498 235 453 142 453 C104 453 63 462 29 479 L29 367 Z " />
<glyph glyph-name="notequal" unicode="&#x2260;" horiz-adv-x="510" d="M150 93 L212 190 L481 190 L481 295 L279 295 L329 373 L481 373 L481 478 L396 478 L457 574 L359 574 L298 478 L29 478 L29 373 L231 373 L181 295 L29 295 L29 190 L114 190 L53 93 L150 93 Z " />
<glyph glyph-name="lessequal" unicode="&#x2264;" horiz-adv-x="510" d="M481 120 L481 245 L147 364 L481 485 L481 610 L29 430 L29 300 L481 120 Z M481 0 L481 105 L29 105 L29 0 L481 0 Z " />
<glyph glyph-name="greaterequal" unicode="&#x2265;" horiz-adv-x="510" d="M480 300 L480 430 L28 610 L28 485 L362 364 L28 245 L28 120 L480 300 Z M481 0 L481 105 L29 105 L29 0 L481 0 Z " />
<glyph glyph-name="triangleright" unicode="&#x22b2;" horiz-adv-x="587" d="M589 286 L54 595 L54 -23 L589 286 Z " />
<glyph glyph-name="triangleleft" unicode="&#x22b3;" horiz-adv-x="587" d="M535 595 L0 286 L535 -23 L535 595 Z " />
<glyph glyph-name="&amp;#x2318;" unicode="&#x2318;" horiz-adv-x="667" d="M211 154 C211 121 185 95 153 95 C121 95 95 121 95 154 C95 185 121 212 153 212 L211 212 L211 154 Z M211 455 L154 455 C121 455 95 482 95 514 C95 546 121 572 154 572 C185 572 211 546 211 514 L211 455 Z M265 265 L265 402 L402 402 L402 265 L265 265 Z M572 154 C572 121 546 95 514 95 C482 95 456 121 456 154 L456 212 L514 212 C546 212 572 185 572 154 L572 154 Z M572 514 C572 482 545 455 514 455 L456 455 L456 514 C456 546 482 572 514 572 C545 572 572 546 572 514 L572 514 Z M625 154 C625 215 575 265 514 265 L456 265 L456 402 L514 402 C575 402 625 453 625 514 C625 575 575 625 514 625 C453 625 402 575 402 514 L402 455 L265 455 L265 514 C265 575 215 625 154 625 C93 625 42 575 42 514 C42 453 93 402 154 402 L211 402 L211 265 L153 265 C92 265 42 215 42 154 C42 93 92 42 153 42 C214 42 265 93 265 154 L265 212 L402 212 L402 154 C402 93 453 42 514 42 C575 42 625 93 625 154 L625 154 Z " />
<glyph glyph-name="&amp;#xf8ff;" unicode="&#xf8ff;" horiz-adv-x="667" d="M211 154 C211 121 185 95 153 95 C121 95 95 121 95 154 C95 185 121 212 153 212 L211 212 L211 154 Z M211 455 L154 455 C121 455 95 482 95 514 C95 546 121 572 154 572 C185 572 211 546 211 514 L211 455 Z M265 265 L265 402 L402 402 L402 265 L265 265 Z M572 154 C572 121 546 95 514 95 C482 95 456 121 456 154 L456 212 L514 212 C546 212 572 185 572 154 L572 154 Z M572 514 C572 482 545 455 514 455 L456 455 L456 514 C456 546 482 572 514 572 C545 572 572 546 572 514 L572 514 Z M625 154 C625 215 575 265 514 265 L456 265 L456 402 L514 402 C575 402 625 453 625 514 C625 575 575 625 514 625 C453 625 402 575 402 514 L402 455 L265 455 L265 514 C265 575 215 625 154 625 C93 625 42 575 42 514 C42 453 93 402 154 402 L211 402 L211 265 L153 265 C92 265 42 215 42 154 C42 93 92 42 153 42 C214 42 265 93 265 154 L265 212 L402 212 L402 154 C402 93 453 42 514 42 C575 42 625 93 625 154 L625 154 Z " />
<glyph glyph-name="blacksquare" unicode="&#x25a0;" horiz-adv-x="661" d="M618 0 L618 572 L47 572 L47 0 L618 0 Z " />
<glyph glyph-name="triagup" unicode="&#x25b2;" horiz-adv-x="616" d="M617 29 L307 565 L-2 30 L617 29 Z " />
<glyph glyph-name="triagdn" unicode="&#x25bc;" horiz-adv-x="616" d="M617 510 L-2 510 L307 -25 L617 510 Z " />
<glyph glyph-name="lozenge" unicode="&#x25ca;" horiz-adv-x="375" d="M198 0 L356 334 L198 667 L177 667 L19 334 L177 0 L198 0 Z M188 41 L55 334 L187 626 L320 334 L188 41 Z " />
<glyph glyph-name="circlesolid" unicode="&#x25cf;" horiz-adv-x="695" d="M644 285 C644 449 511 582 347 582 C183 582 50 449 50 285 C50 121 183 -12 347 -12 C511 -12 644 121 644 285 L644 285 Z " />
<glyph glyph-name="blackstar" unicode="&#x2605;" horiz-adv-x="759" d="M759 421 L469 421 L379 697 L290 421 L0 421 L234 250 L145 -25 L379 145 L614 -25 L524 250 L759 421 Z " />
<glyph glyph-name="ballotbox" unicode="&#x2610;" horiz-adv-x="661" d="M616 0 L616 572 L45 572 L45 0 L616 0 Z M501 105 L161 105 L161 467 L501 467 L501 105 Z " />
<glyph glyph-name="boxchecked" unicode="&#x2611;" horiz-adv-x="661" d="M616 0 L616 533 L705 698 L615 752 L516 572 L45 572 L45 0 L616 0 Z M161 467 L458 467 L360 289 L255 413 L174 337 L364 105 L161 105 L161 467 Z M501 105 L383 105 L501 321 L501 105 Z " />
<glyph glyph-name="diamond" unicode="&#x2666;" horiz-adv-x="501" d="M501 285 L250 536 L0 285 L250 35 L501 285 Z " />
<glyph glyph-name="checkmark" unicode="&#x2713;" horiz-adv-x="531" d="M531 698 L441 752 L186 289 L81 413 L0 337 L202 91 L531 698 Z " />
<glyph glyph-name="f_f_j" unicode="&#xe004;" horiz-adv-x="1022" d="M267 0 L267 327 L365 327 L365 483 L267 483 L267 505 C267 529 290 544 312 544 C333 544 346 538 357 525 L422 625 C388 661 327 677 271 677 C164 677 87 606 87 505 L87 483 L7 483 L7 327 L87 327 L87 0 L267 0 Z M638 0 L638 327 L736 327 L736 483 L638 483 L638 505 C638 527 657 544 681 544 C697 544 710 539 721 531 L754 653 C728 667 688 677 642 677 C535 677 458 605 458 505 L458 483 L378 483 L378 327 L458 327 L458 0 L638 0 Z M882 518 C938 518 983 563 983 619 C983 675 938 720 882 720 C826 720 781 675 781 619 C781 563 826 518 882 518 L882 518 Z M771 -196 C911 -196 972 -103 972 21 L972 483 L792 483 L792 21 C792 -25 772 -49 739 -49 C711 -49 699 -45 679 -30 L636 -163 C675 -187 698 -196 771 -196 L771 -196 Z " />
<glyph glyph-name="f_j" unicode="&#xe005;" horiz-adv-x="651" d="M267 0 L267 327 L365 327 L365 483 L267 483 L267 505 C267 527 286 544 310 544 C326 544 339 539 350 531 L383 653 C357 667 317 677 271 677 C164 677 87 605 87 505 L87 483 L7 483 L7 327 L87 327 L87 0 L267 0 Z M511 518 C567 518 612 563 612 619 C612 675 567 720 511 720 C455 720 410 675 410 619 C410 563 455 518 511 518 L511 518 Z M400 -196 C540 -196 601 -103 601 21 L601 483 L421 483 L421 21 C421 -25 401 -49 368 -49 C340 -49 328 -45 308 -30 L265 -163 C304 -187 327 -196 400 -196 L400 -196 Z " />
<glyph glyph-name="perthousand.onum" unicode="&#xf628;" horiz-adv-x="932" d="M303 422 C303 499 248 562 162 562 C77 562 23 499 23 422 C23 345 77 283 162 283 C248 283 303 345 303 422 L303 422 Z M612 130 C612 207 557 270 472 270 C387 270 333 207 333 130 C333 53 387 -9 472 -9 C557 -9 612 53 612 130 L612 130 Z M554 550 L463 550 L81 0 L171 0 L554 550 Z M202 422 C202 388 184 372 162 372 C142 372 125 388 125 422 C125 456 142 474 162 474 C184 474 202 456 202 422 L202 422 Z M511 130 C511 96 494 80 472 80 C450 80 433 96 433 130 C433 164 450 181 472 181 C494 181 511 164 511 130 L511 130 Z M909 130 C909 207 854 270 769 270 C684 270 630 207 630 130 C630 53 684 -9 769 -9 C854 -9 909 53 909 130 L909 130 Z M808 130 C808 96 791 80 769 80 C747 80 730 96 730 130 C730 164 747 181 769 181 C791 181 808 164 808 130 L808 130 Z " />
<glyph glyph-name="zero.tzero" unicode="&#xf638;" horiz-adv-x="652" d="M327 -12 C526 -12 623 152 623 333 C623 421 600 504 553 567 L622 667 L489 667 L471 641 C431 663 383 677 327 677 C128 677 31 514 31 333 C31 245 53 162 99 99 L31 0 L164 0 L181 25 C221 1 270 -12 327 -12 L327 -12 Z M327 166 C310 166 297 169 285 176 L418 371 C419 359 420 346 420 333 C420 220 391 166 327 166 L327 166 Z M234 333 C234 446 263 499 327 499 C342 499 355 496 367 490 L235 297 C234 308 234 320 234 333 L234 333 Z " />
<glyph glyph-name="zero.tnum" unicode="&#xf639;" horiz-adv-x="648" d="M324 -12 C523 -12 620 152 620 333 C620 514 523 677 324 677 C125 677 28 514 28 333 C28 152 125 -12 324 -12 L324 -12 Z M324 166 C260 166 231 220 231 333 C231 446 260 499 324 499 C388 499 417 446 417 333 C417 220 388 166 324 166 L324 166 Z " />
<glyph glyph-name="two.tnum" unicode="&#xf63a;" horiz-adv-x="648" d="M611 0 L611 176 L394 176 C553 281 605 356 605 447 C605 581 492 677 319 677 C226 677 114 646 37 564 L147 430 C198 473 252 499 323 499 C366 499 400 479 400 447 C400 397 371 372 66 157 L66 0 L611 0 Z " />
<glyph glyph-name="three.tnum" unicode="&#xf63b;" horiz-adv-x="648" d="M319 -12 C492 -12 609 69 609 188 C609 280 525 336 451 344 C536 358 598 421 598 492 C598 602 504 677 320 677 C190 677 99 632 40 567 L135 441 C181 479 241 499 298 499 C356 499 397 487 397 456 C397 435 369 423 305 423 C281 423 221 423 208 424 L208 245 C218 246 276 247 305 247 C394 247 408 234 408 211 C408 187 377 166 311 166 C260 166 182 185 130 230 L31 92 C87 32 187 -12 319 -12 L319 -12 Z " />
<glyph glyph-name="four.tnum" unicode="&#xf63c;" horiz-adv-x="648" d="M543 0 L543 107 L620 107 L620 283 L543 283 L543 667 L263 667 L20 262 L20 107 L341 107 L341 0 L543 0 Z M341 283 L215 283 L341 493 L341 283 Z " />
<glyph glyph-name="five.tnum" unicode="&#xf63d;" horiz-adv-x="648" d="M318 -12 C505 -12 615 83 615 230 C615 363 514 448 400 448 C344 448 293 428 261 397 L261 491 L569 491 L569 667 L59 667 L59 262 L198 230 C232 262 271 276 322 276 C384 276 410 251 410 221 C410 193 383 166 316 166 C258 166 193 186 147 224 L39 82 C104 23 199 -12 318 -12 L318 -12 Z " />
<glyph glyph-name="six.tnum" unicode="&#xf63e;" horiz-adv-x="648" d="M349 -12 C507 -12 626 83 626 228 C626 370 510 449 390 449 C329 449 269 425 235 381 C235 382 235 382 235 383 C235 464 315 499 381 499 C430 499 466 490 504 463 L589 619 C536 655 457 677 381 677 C174 677 31 555 31 332 C31 137 130 -12 349 -12 L349 -12 Z M336 166 C266 166 238 206 234 251 C261 272 294 278 328 278 C368 278 421 263 421 220 C421 192 387 166 336 166 L336 166 Z " />
<glyph glyph-name="seven.tnum" unicode="&#xf63f;" horiz-adv-x="648" d="M376 0 L598 527 L598 667 L53 667 L53 491 L366 491 L155 0 L376 0 Z " />
<glyph glyph-name="eight.tnum" unicode="&#xf640;" horiz-adv-x="648" d="M324 -12 C472 -12 621 42 621 178 C621 250 569 312 493 344 C563 373 610 420 610 498 C610 629 461 677 324 677 C187 677 38 629 38 498 C38 420 84 373 154 344 C78 312 27 250 27 178 C27 42 176 -12 324 -12 L324 -12 Z M324 422 C283 428 243 447 243 468 C243 495 273 513 324 513 C374 513 404 495 404 468 C404 447 365 428 324 422 L324 422 Z M324 152 C267 152 232 172 232 201 C232 227 281 247 324 253 C366 247 416 227 416 201 C416 172 379 152 324 152 L324 152 Z " />
<glyph glyph-name="nine.tnum" unicode="&#xf641;" horiz-adv-x="648" d="M271 -11 C478 -11 621 111 621 334 C621 529 522 678 303 678 C145 678 26 583 26 438 C26 296 142 217 262 217 C323 217 383 241 417 285 C417 284 417 283 417 282 C417 217 356 167 271 167 C222 167 186 176 148 203 L63 47 C116 11 195 -11 271 -11 L271 -11 Z M324 388 C284 388 231 403 231 446 C231 474 265 500 315 500 C386 500 414 460 418 415 C391 394 358 388 324 388 L324 388 Z " />
<glyph glyph-name="percent.onum" unicode="&#xf642;" horiz-adv-x="635" d="M303 422 C303 499 248 562 162 562 C77 562 23 499 23 422 C23 345 77 283 162 283 C248 283 303 345 303 422 L303 422 Z M612 130 C612 207 557 270 472 270 C387 270 333 207 333 130 C333 53 387 -9 472 -9 C557 -9 612 53 612 130 L612 130 Z M554 550 L463 550 L80 0 L170 0 L554 550 Z M202 422 C202 389 184 372 162 372 C142 372 125 389 125 422 C125 456 142 474 162 474 C184 474 202 456 202 422 L202 422 Z M511 130 C511 96 494 80 472 80 C450 80 433 95 433 130 C433 164 450 181 472 181 C494 181 511 164 511 130 L511 130 Z " />
<glyph glyph-name="zero.tonum" unicode="&#xf643;" horiz-adv-x="648" d="M620 275 C620 433 523 562 324 562 C125 562 28 433 28 275 C28 118 125 -12 324 -12 C523 -12 620 118 620 275 L620 275 Z M417 275 C417 206 380 166 324 166 C268 166 231 206 231 275 C231 344 268 384 324 384 C380 384 417 344 417 275 L417 275 Z " />
<glyph glyph-name="one.tonum" unicode="&#xf644;" horiz-adv-x="648" d="M507 0 L507 550 L333 550 L78 300 L192 181 L305 293 L305 0 L507 0 Z " />
<glyph glyph-name="two.tonum" unicode="&#xf645;" horiz-adv-x="648" d="M573 0 L573 176 L425 176 C499 202 585 289 585 377 C585 489 491 562 318 562 C225 562 114 531 37 449 L147 315 C202 364 254 384 315 384 C353 384 380 368 380 340 C380 303 325 227 66 157 L66 0 L573 0 Z " />
<glyph glyph-name="three.tonum" unicode="&#xf646;" horiz-adv-x="648" d="M319 -127 C492 -127 609 -46 609 73 C609 165 525 221 451 229 C536 243 598 306 598 377 C598 487 504 562 320 562 C190 562 99 517 40 452 L135 326 C181 364 241 384 298 384 C356 384 397 372 397 341 C397 320 369 308 305 308 C281 308 221 308 208 309 L208 130 C218 131 276 132 305 132 C394 132 408 119 408 96 C408 72 377 51 311 51 C260 51 182 70 130 115 L31 -23 C87 -83 187 -127 319 -127 L319 -127 Z " />
<glyph glyph-name="four.tonum" unicode="&#xf647;" horiz-adv-x="648" d="M620 0 L620 176 L543 176 L543 550 L263 550 L20 155 L20 0 L341 0 L341 -117 L543 -117 L543 0 L620 0 Z M341 176 L215 176 L341 376 L341 176 Z " />
<glyph glyph-name="five.tonum" unicode="&#xf648;" horiz-adv-x="648" d="M318 -129 C505 -129 615 -34 615 113 C615 246 514 331 400 331 C344 331 293 311 261 280 L261 374 L569 374 L569 550 L59 550 L59 145 L198 113 C232 145 271 159 322 159 C384 159 410 134 410 104 C410 76 383 49 316 49 C258 49 193 69 147 107 L39 -35 C104 -94 199 -129 318 -129 L318 -129 Z " />
<glyph glyph-name="six.tonum" unicode="&#xf649;" horiz-adv-x="648" d="M349 -12 C507 -12 626 83 626 228 C626 370 510 449 390 449 C329 449 269 425 235 381 C235 382 235 382 235 383 C235 464 315 499 381 499 C430 499 466 490 504 463 L589 619 C536 655 457 677 381 677 C174 677 31 555 31 332 C31 137 130 -12 349 -12 L349 -12 Z M336 166 C266 166 238 206 234 251 C261 272 294 278 328 278 C368 278 421 263 421 220 C421 192 387 166 336 166 L336 166 Z " />
<glyph glyph-name="seven.tonum" unicode="&#xf64a;" horiz-adv-x="648" d="M376 -117 L598 410 L598 550 L53 550 L53 374 L366 374 L155 -117 L376 -117 Z " />
<glyph glyph-name="eight.tonum" unicode="&#xf64b;" horiz-adv-x="648" d="M324 -12 C472 -12 621 42 621 178 C621 250 569 312 493 344 C563 373 610 420 610 498 C610 629 461 677 324 677 C187 677 38 629 38 498 C38 420 84 373 154 344 C78 312 27 250 27 178 C27 42 176 -12 324 -12 L324 -12 Z M324 422 C283 428 243 447 243 468 C243 495 273 513 324 513 C374 513 404 495 404 468 C404 447 365 428 324 422 L324 422 Z M324 152 C267 152 232 172 232 201 C232 227 281 247 324 253 C366 247 416 227 416 201 C416 172 379 152 324 152 L324 152 Z " />
<glyph glyph-name="nine.tonum" unicode="&#xf64c;" horiz-adv-x="648" d="M271 -127 C478 -127 621 -5 621 218 C621 413 522 562 303 562 C145 562 26 467 26 322 C26 180 142 101 262 101 C323 101 383 125 417 169 C417 168 417 167 417 166 C417 101 356 51 271 51 C222 51 186 60 148 87 L63 -69 C116 -105 195 -127 271 -127 L271 -127 Z M324 272 C284 272 231 287 231 330 C231 358 265 384 315 384 C386 384 414 344 418 299 C391 278 358 272 324 272 L324 272 Z " />
<glyph glyph-name="colonmonetary.onum" unicode="&#xf64d;" horiz-adv-x="588" d="M114 -53 L186 -53 L206 6 C218 2 230 -1 242 -3 L225 -53 L297 -53 L311 -12 L323 -12 C460 -12 545 71 579 156 L422 225 C408 184 371 151 323 151 C252 151 205 206 205 275 C205 344 252 399 323 399 C371 399 408 365 422 324 L579 395 C561 437 532 479 489 510 L520 599 L448 599 L429 543 C417 548 406 551 393 554 L409 599 L337 599 L324 562 L323 562 C145 562 17 445 17 275 C17 171 65 86 144 36 L114 -53 Z " />
<glyph glyph-name="Euro.onum" unicode="&#xf64e;" horiz-adv-x="611" d="M388 292 L388 349 L249 349 C270 379 303 399 346 399 C394 399 431 365 445 324 L602 395 C567 480 484 562 346 562 C195 562 80 478 49 349 L12 349 L12 292 L40 292 L40 275 L40 257 L12 257 L12 200 L49 200 C81 72 195 -12 346 -12 C483 -12 568 71 602 156 L445 225 C431 184 394 151 346 151 C304 151 270 170 250 200 L388 200 L388 257 L229 257 C229 263 228 269 228 275 C228 280 228 286 229 292 L388 292 Z " />
<glyph glyph-name="florin.onum" unicode="&#xf64f;" horiz-adv-x="428" d="M210 -119 L280 190 L368 190 L368 315 L307 315 L315 349 C319 367 333 385 352 385 C366 385 375 381 381 372 L438 516 C409 547 360 561 316 561 C214 561 143 499 117 383 L101 315 L39 315 L39 190 L73 190 L5 -119 L210 -119 Z " />
<glyph glyph-name="numbersign.onum" unicode="&#xf650;" horiz-adv-x="537" d="M525 410 L457 410 L505 550 L392 550 L344 410 L283 410 L331 550 L218 550 L170 410 L97 410 L69 320 L140 320 L111 233 L40 233 L12 142 L79 142 L32 0 L145 0 L192 142 L253 142 L206 0 L319 0 L367 142 L440 142 L469 233 L397 233 L427 320 L498 320 L525 410 Z M313 320 L284 233 L223 233 L252 320 L313 320 Z " />
<glyph glyph-name="sterling.onum" unicode="&#xf651;" horiz-adv-x="474" d="M17 225 L86 225 C95 205 101 186 101 169 C101 144 70 118 32 100 L89 -6 C118 9 151 22 176 22 C222 22 257 -9 328 -9 C387 -9 435 5 462 34 L396 160 C384 144 361 133 334 133 C298 133 286 151 243 151 C237 151 231 150 225 147 C236 156 256 185 256 216 C256 219 255 222 255 225 L341 225 L341 315 L227 315 C221 333 216 351 216 372 C216 408 235 431 264 431 C285 431 311 419 323 385 L460 458 C419 530 350 561 243 561 C143 561 30 491 30 375 C30 355 35 335 43 315 L17 315 L17 225 Z " />
<glyph glyph-name="yen.onum" unicode="&#xf652;" horiz-adv-x="583" d="M384 0 L384 102 L554 102 L554 190 L384 190 L384 219 L554 219 L554 307 L441 307 L600 550 L393 550 L293 375 L191 550 L-17 550 L143 307 L27 307 L27 219 L200 219 L200 190 L27 190 L27 102 L200 102 L200 0 L384 0 Z " />
<glyph glyph-name="cent.onum" unicode="&#xf654;" horiz-adv-x="588" d="M255 -74 L381 -74 L381 -6 C484 13 550 84 579 156 L422 225 C408 184 371 151 323 151 C252 151 205 206 205 275 C205 344 252 399 323 399 C371 399 408 365 422 324 L579 395 C549 467 484 537 381 557 L381 628 L255 628 L255 556 C113 530 17 422 17 275 C17 128 113 20 255 -6 L255 -74 Z " />
<glyph glyph-name="zero.dnom" unicode="&#xf655;" horiz-adv-x="407" d="M387 200 C387 309 327 406 204 406 C80 406 20 309 20 200 C20 90 80 -7 204 -7 C327 -7 387 90 387 200 L387 200 Z M255 200 C255 126 238 97 204 97 C169 97 152 126 152 200 C152 274 169 302 204 302 C238 302 255 274 255 200 L255 200 Z " />
<glyph glyph-name="one.dnom" unicode="&#xf656;" horiz-adv-x="336" d="M276 0 L276 400 L163 400 L0 242 L74 164 L144 233 L144 0 L276 0 Z " />
<glyph glyph-name="two.dnom" unicode="&#xf657;" horiz-adv-x="407" d="M380 0 L380 104 L232 104 C346 183 376 225 376 275 C376 355 308 406 197 406 C143 406 71 389 22 338 L88 254 C107 275 151 302 194 302 C227 302 244 287 244 264 C244 241 234 228 42 95 L42 0 L380 0 Z " />
<glyph glyph-name="three.dnom" unicode="&#xf658;" horiz-adv-x="407" d="M383 113 C383 169 332 202 287 206 C341 215 376 254 376 295 C376 359 321 406 203 406 C121 406 65 379 28 340 L86 263 C115 290 154 302 188 302 C222 302 245 296 245 277 C245 257 228 251 178 251 C163 251 139 251 130 252 L130 150 C136 151 161 151 179 151 C224 151 252 149 252 123 C252 109 235 97 197 97 C169 97 119 109 85 142 L23 55 C58 19 120 -7 202 -7 C310 -7 383 42 383 113 L383 113 Z " />
<glyph glyph-name="four.dnom" unicode="&#xf659;" horiz-adv-x="407" d="M394 71 L394 173 L347 173 L347 400 L162 400 L19 158 L19 71 L216 71 L216 0 L347 0 L347 71 L394 71 Z M216 173 L148 173 L216 291 L216 173 Z " />
<glyph glyph-name="five.dnom" unicode="&#xf65a;" horiz-adv-x="407" d="M383 138 C383 223 322 265 253 265 C219 265 188 253 169 235 L169 296 L356 296 L356 400 L37 400 L37 172 L127 145 C147 163 170 171 202 171 C238 171 253 154 253 134 C253 116 237 97 198 97 C164 97 122 107 94 132 L25 48 C62 13 125 -7 198 -7 C317 -7 383 55 383 138 L383 138 Z " />
<glyph glyph-name="six.dnom" unicode="&#xf65b;" horiz-adv-x="407" d="M389 139 C389 224 317 275 242 275 C208 275 175 263 151 235 C151 236 151 236 151 237 C151 278 192 302 239 302 C268 302 289 298 314 280 L368 373 C334 394 284 406 239 406 C110 406 19 337 19 199 C19 81 81 -7 218 -7 C316 -7 389 50 389 139 L389 139 Z M257 133 C257 113 236 97 211 97 C169 97 152 125 151 158 C167 172 185 174 203 174 C224 174 257 164 257 133 L257 133 Z " />
<glyph glyph-name="seven.dnom" unicode="&#xf65c;" horiz-adv-x="379" d="M359 309 L359 400 L20 400 L20 296 L217 296 L83 0 L229 0 L359 309 Z " />
<glyph glyph-name="eight.dnom" unicode="&#xf65d;" horiz-adv-x="407" d="M389 107 C389 149 353 193 301 206 C349 218 383 253 383 298 C383 378 289 406 203 406 C118 406 24 378 24 298 C24 253 57 218 106 206 C53 193 17 149 17 107 C17 16 115 -7 203 -7 C293 -7 389 16 389 107 L389 107 Z M251 278 C251 257 216 248 203 246 C191 248 155 257 155 278 C155 297 172 307 203 307 C235 307 251 297 251 278 L251 278 Z M259 121 C259 101 238 92 203 92 C168 92 148 101 148 121 C148 148 190 159 203 160 C217 159 259 148 259 121 L259 121 Z " />
<glyph glyph-name="nine.dnom" unicode="&#xf65e;" horiz-adv-x="407" d="M19 260 C19 175 92 124 166 124 C200 124 233 136 257 164 C257 163 257 163 257 162 C257 116 212 97 170 97 C141 97 119 101 95 119 L41 26 C74 5 124 -7 169 -7 C298 -7 389 62 389 200 C389 318 327 406 191 406 C92 406 19 349 19 260 L19 260 Z M152 266 C152 286 172 302 200 302 C239 302 256 274 257 242 C241 227 223 225 205 225 C184 225 152 235 152 266 L152 266 Z " />
<glyph glyph-name="zero.numr" unicode="&#xf661;" horiz-adv-x="407" d="M387 467 C387 576 327 673 204 673 C80 673 20 576 20 467 C20 357 80 260 204 260 C327 260 387 357 387 467 L387 467 Z M255 467 C255 393 238 364 204 364 C169 364 152 393 152 467 C152 541 169 569 204 569 C238 569 255 541 255 467 L255 467 Z " />
<glyph glyph-name="one.numr" unicode="&#xf662;" horiz-adv-x="336" d="M276 267 L276 667 L163 667 L0 509 L74 431 L144 500 L144 267 L276 267 Z " />
<glyph glyph-name="two.numr" unicode="&#xf663;" horiz-adv-x="407" d="M380 267 L380 371 L232 371 C346 450 376 492 376 542 C376 622 308 673 197 673 C143 673 71 656 22 605 L88 521 C107 542 151 569 194 569 C227 569 244 554 244 531 C244 508 234 495 42 362 L42 267 L380 267 Z " />
<glyph glyph-name="three.numr" unicode="&#xf664;" horiz-adv-x="407" d="M383 380 C383 436 332 469 287 473 C341 482 376 521 376 562 C376 626 321 673 203 673 C121 673 65 646 28 607 L86 530 C115 557 154 569 188 569 C222 569 245 563 245 544 C245 524 228 518 178 518 C163 518 139 518 130 519 L130 417 C136 418 161 418 179 418 C224 418 252 416 252 390 C252 376 235 364 197 364 C169 364 119 376 85 409 L23 322 C58 286 120 260 202 260 C310 260 383 309 383 380 L383 380 Z " />
<glyph glyph-name="four.numr" unicode="&#xf665;" horiz-adv-x="407" d="M394 338 L394 440 L347 440 L347 667 L162 667 L19 425 L19 338 L216 338 L216 267 L347 267 L347 338 L394 338 Z M216 440 L148 440 L216 558 L216 440 Z " />
<glyph glyph-name="five.numr" unicode="&#xf666;" horiz-adv-x="407" d="M383 405 C383 490 322 532 253 532 C219 532 188 520 169 502 L169 563 L356 563 L356 667 L37 667 L37 439 L127 412 C147 430 170 438 202 438 C238 438 253 421 253 401 C253 383 237 364 198 364 C164 364 122 374 94 399 L25 315 C62 280 125 260 198 260 C317 260 383 322 383 405 L383 405 Z " />
<glyph glyph-name="six.numr" unicode="&#xf667;" horiz-adv-x="407" d="M389 406 C389 491 317 542 242 542 C208 542 175 530 151 502 C151 503 151 503 151 504 C151 545 192 569 239 569 C268 569 289 565 314 547 L368 640 C334 661 284 673 239 673 C110 673 19 604 19 466 C19 348 81 260 218 260 C316 260 389 317 389 406 L389 406 Z M257 400 C257 380 236 364 211 364 C169 364 152 392 151 425 C167 439 185 441 203 441 C224 441 257 431 257 400 L257 400 Z " />
<glyph glyph-name="seven.numr" unicode="&#xf668;" horiz-adv-x="379" d="M359 576 L359 667 L20 667 L20 563 L217 563 L83 267 L229 267 L359 576 Z " />
<glyph glyph-name="eight.numr" unicode="&#xf669;" horiz-adv-x="407" d="M389 374 C389 416 353 460 301 473 C349 485 383 520 383 565 C383 645 289 673 203 673 C118 673 24 645 24 565 C24 520 57 485 106 473 C53 460 17 416 17 374 C17 283 115 260 203 260 C293 260 389 283 389 374 L389 374 Z M251 545 C251 524 216 515 203 513 C191 515 155 524 155 545 C155 564 172 574 203 574 C235 574 251 564 251 545 L251 545 Z M259 388 C259 368 238 359 203 359 C168 359 148 368 148 388 C148 415 190 426 203 427 C217 426 259 415 259 388 L259 388 Z " />
<glyph glyph-name="nine.numr" unicode="&#xf66a;" horiz-adv-x="407" d="M19 527 C19 442 92 391 166 391 C200 391 233 403 257 431 C257 430 257 430 257 429 C257 383 212 364 170 364 C141 364 119 368 95 386 L41 293 C74 272 124 260 169 260 C298 260 389 329 389 467 C389 585 327 673 191 673 C92 673 19 616 19 527 L19 527 Z M152 533 C152 553 172 569 200 569 C239 569 256 541 257 509 C241 494 223 492 205 492 C184 492 152 502 152 533 L152 533 Z " />
<glyph glyph-name="Abreve.smcp" unicode="&#xf66d;" horiz-adv-x="621" d="M197 550 L-17 0 L192 0 L212 61 L410 61 L430 0 L638 0 L425 550 L197 550 Z M358 222 L264 222 L311 365 L358 222 Z M487 677 L412 739 C388 705 354 686 312 686 C268 686 234 708 212 739 L136 677 C177 623 241 589 312 589 C384 589 447 623 487 677 L487 677 Z " />
<glyph glyph-name="Amacron.smcp" unicode="&#xf66e;" horiz-adv-x="621" d="M197 550 L-17 0 L192 0 L212 61 L410 61 L430 0 L638 0 L425 550 L197 550 Z M358 222 L264 222 L311 365 L358 222 Z M493 621 L493 718 L130 718 L130 621 L493 621 Z " />
<glyph glyph-name="Aogonek.smcp" unicode="&#xf66f;" horiz-adv-x="621" d="M197 550 L-17 0 L192 0 L212 61 L410 61 L430 0 L531 0 C505 -26 492 -56 492 -92 C492 -159 545 -186 602 -186 C648 -186 681 -166 703 -133 L637 -90 C631 -105 620 -118 602 -118 C590 -118 573 -111 573 -84 C573 -55 589 -25 638 0 L425 550 L197 550 Z M358 222 L264 222 L311 365 L358 222 Z " />
<glyph glyph-name="AEacute.smcp" unicode="&#xf670;" horiz-adv-x="869" d="M645 750 L490 750 L370 606 L490 606 L645 750 Z M837 0 L837 155 L575 155 L575 200 L830 200 L830 355 L575 355 L575 395 L837 395 L837 550 L315 550 L-18 0 L191 0 L224 61 L389 61 L389 0 L837 0 Z M389 222 L311 222 L389 365 L389 222 Z " />
<glyph glyph-name="Cacute.smcp" unicode="&#xf671;" horiz-adv-x="588" d="M323 -12 C460 -12 545 71 579 156 L422 225 C408 184 371 151 323 151 C252 151 205 206 205 275 C205 344 252 399 323 399 C371 399 408 365 422 324 L579 395 C544 480 461 562 323 562 C145 562 17 445 17 275 C17 106 145 -12 323 -12 L323 -12 Z M503 750 L348 750 L228 606 L348 606 L503 750 Z " />
<glyph glyph-name="Ccaron.smcp" unicode="&#xf672;" horiz-adv-x="588" d="M323 -12 C460 -12 545 71 579 156 L422 225 C408 184 371 151 323 151 C252 151 205 206 205 275 C205 344 252 399 323 399 C371 399 408 365 422 324 L579 395 C544 480 461 562 323 562 C145 562 17 445 17 275 C17 106 145 -12 323 -12 L323 -12 Z M404 606 L492 750 L387 750 L326 677 L262 750 L157 750 L248 606 L404 606 Z " />
<glyph glyph-name="Ccircumflex.smcp" unicode="&#xf673;" horiz-adv-x="588" d="M323 -12 C460 -12 545 71 579 156 L422 225 C408 184 371 151 323 151 C252 151 205 206 205 275 C205 344 252 399 323 399 C371 399 408 365 422 324 L579 395 C544 480 461 562 323 562 C145 562 17 445 17 275 C17 106 145 -12 323 -12 L323 -12 Z M492 606 L401 750 L245 750 L157 606 L262 606 L323 679 L387 606 L492 606 Z " />
<glyph glyph-name="Cdotaccent.smcp" unicode="&#xf674;" horiz-adv-x="588" d="M323 -12 C460 -12 545 71 579 156 L422 225 C408 184 371 151 323 151 C252 151 205 206 205 275 C205 344 252 399 323 399 C371 399 408 365 422 324 L579 395 C544 480 461 562 323 562 C145 562 17 445 17 275 C17 106 145 -12 323 -12 L323 -12 Z M324 600 C372 600 412 640 412 689 C412 738 372 778 324 778 C275 778 235 738 235 689 C235 640 275 600 324 600 L324 600 Z " />
<glyph glyph-name="Dcaron.smcp" unicode="&#xf675;" horiz-adv-x="637" d="M308 0 C491 0 614 100 614 275 C614 451 491 550 307 550 L44 550 L44 0 L308 0 Z M307 161 L231 161 L231 389 L308 389 C397 389 426 339 426 275 C426 216 389 161 307 161 L307 161 Z M398 606 L486 750 L381 750 L320 677 L256 750 L151 750 L242 606 L398 606 Z " />
<glyph glyph-name="Dcroat.smcp" unicode="&#xf676;" horiz-adv-x="644" d="M315 0 C498 0 621 100 621 275 C621 451 498 550 314 550 L51 550 L51 338 L7 338 L7 212 L51 212 L51 0 L315 0 Z M331 212 L331 338 L238 338 L238 389 L315 389 C404 389 433 339 433 275 C433 216 396 161 314 161 L238 161 L238 212 L331 212 Z " />
<glyph glyph-name="Ebreve.smcp" unicode="&#xf677;" horiz-adv-x="530" d="M498 0 L498 155 L237 155 L237 201 L492 201 L492 355 L237 355 L237 395 L498 395 L498 550 L50 550 L50 0 L498 0 Z M451 677 L376 739 C352 705 318 686 276 686 C232 686 198 708 176 739 L100 677 C141 623 205 589 276 589 C348 589 411 623 451 677 L451 677 Z " />
<glyph glyph-name="Ecaron.smcp" unicode="&#xf678;" horiz-adv-x="530" d="M498 0 L498 155 L237 155 L237 201 L492 201 L492 355 L237 355 L237 395 L498 395 L498 550 L50 550 L50 0 L498 0 Z M354 606 L442 750 L337 750 L276 677 L212 750 L107 750 L198 606 L354 606 Z " />
<glyph glyph-name="Edotaccent.smcp" unicode="&#xf679;" horiz-adv-x="530" d="M498 0 L498 155 L237 155 L237 201 L492 201 L492 355 L237 355 L237 395 L498 395 L498 550 L50 550 L50 0 L498 0 Z M280 600 C328 600 368 640 368 689 C368 738 328 778 280 778 C231 778 191 738 191 689 C191 640 231 600 280 600 L280 600 Z " />
<glyph glyph-name="Emacron.smcp" unicode="&#xf67a;" horiz-adv-x="530" d="M498 0 L498 155 L237 155 L237 201 L492 201 L492 355 L237 355 L237 395 L498 395 L498 550 L50 550 L50 0 L498 0 Z M457 621 L457 718 L94 718 L94 621 L457 621 Z " />
<glyph glyph-name="Eng.smcp" unicode="&#xf67b;" horiz-adv-x="665" d="M378 -196 C523 -196 614 -133 615 10 L615 550 L429 550 L429 305 L253 550 L50 550 L50 0 L236 0 L236 261 L422 1 C412 -20 390 -33 362 -33 C335 -33 308 -20 289 -3 L221 -145 C264 -181 323 -196 378 -196 L378 -196 Z " />
<glyph glyph-name="Eogonek.smcp" unicode="&#xf67c;" horiz-adv-x="530" d="M497 -90 C491 -105 480 -118 462 -118 C450 -118 433 -111 433 -84 C433 -55 449 -25 498 0 L498 155 L237 155 L237 201 L492 201 L492 355 L237 355 L237 395 L498 395 L498 550 L50 550 L50 0 L391 0 C365 -26 352 -56 352 -92 C352 -159 405 -186 462 -186 C508 -186 541 -166 563 -133 L497 -90 Z " />
<glyph glyph-name="Gbreve.smcp" unicode="&#xf67d;" horiz-adv-x="606" d="M326 -12 C431 -12 516 32 581 101 L581 333 L303 333 L303 189 L395 189 L395 172 C380 160 357 151 326 151 C252 151 206 206 206 275 C206 345 252 398 326 398 C367 398 396 374 410 344 L564 428 C528 494 445 562 326 562 C152 562 17 452 17 275 C17 100 152 -12 326 -12 L326 -12 Z M504 677 L429 739 C405 705 371 686 329 686 C285 686 251 708 229 739 L153 677 C194 623 258 589 329 589 C401 589 464 623 504 677 L504 677 Z " />
<glyph glyph-name="Gcircumflex.smcp" unicode="&#xf67e;" horiz-adv-x="606" d="M326 -12 C431 -12 516 32 581 101 L581 333 L303 333 L303 189 L395 189 L395 172 C380 160 357 151 326 151 C252 151 206 206 206 275 C206 345 252 398 326 398 C367 398 396 374 410 344 L564 428 C528 494 445 562 326 562 C152 562 17 452 17 275 C17 100 152 -12 326 -12 L326 -12 Z M494 606 L403 750 L247 750 L159 606 L264 606 L325 679 L389 606 L494 606 Z " />
<glyph glyph-name="Gcommaaccent.smcp" unicode="&#xf67f;" horiz-adv-x="606" d="M326 -12 C431 -12 516 32 581 101 L581 333 L303 333 L303 189 L395 189 L395 172 C380 160 357 151 326 151 C252 151 206 206 206 275 C206 345 252 398 326 398 C367 398 396 374 410 344 L564 428 C528 494 445 562 326 562 C152 562 17 452 17 275 C17 100 152 -12 326 -12 L326 -12 Z M414 -139 C414 -77 372 -42 327 -42 C285 -42 249 -77 249 -121 C249 -163 278 -190 314 -190 C322 -190 330 -189 333 -187 C324 -216 289 -249 265 -260 L320 -304 C378 -263 414 -205 414 -139 L414 -139 Z " />
<glyph glyph-name="Gdotaccent.smcp" unicode="&#xf680;" horiz-adv-x="606" d="M326 -12 C431 -12 516 32 581 101 L581 333 L303 333 L303 189 L395 189 L395 172 C380 160 357 151 326 151 C252 151 206 206 206 275 C206 345 252 398 326 398 C367 398 396 374 410 344 L564 428 C528 494 445 562 326 562 C152 562 17 452 17 275 C17 100 152 -12 326 -12 L326 -12 Z M322 600 C370 600 410 640 410 689 C410 738 370 778 322 778 C273 778 233 738 233 689 C233 640 273 600 322 600 L322 600 Z " />
<glyph glyph-name="Hcircumflex.smcp" unicode="&#xf681;" horiz-adv-x="666" d="M616 0 L616 550 L430 550 L430 361 L237 361 L237 550 L50 550 L50 0 L237 0 L237 200 L430 200 L430 0 L616 0 Z M500 606 L409 750 L253 750 L165 606 L270 606 L331 679 L395 606 L500 606 Z " />
<glyph glyph-name="Hbar.smcp" unicode="&#xf682;" horiz-adv-x="678" d="M623 0 L623 411 L671 411 L671 508 L623 508 L623 550 L437 550 L437 508 L244 508 L244 550 L57 550 L57 508 L7 508 L7 411 L57 411 L57 0 L244 0 L244 200 L437 200 L437 0 L623 0 Z M244 361 L244 411 L437 411 L437 361 L244 361 Z " />
<glyph glyph-name="Ibreve.smcp" unicode="&#xf683;" horiz-adv-x="280" d="M234 0 L234 550 L47 550 L47 0 L234 0 Z M317 677 L242 739 C218 705 184 686 142 686 C98 686 64 708 42 739 L-34 677 C7 623 71 589 142 589 C214 589 277 623 317 677 L317 677 Z " />
<glyph glyph-name="IJ.smcp" unicode="&#xf684;" horiz-adv-x="731" d="M237 0 L237 550 L50 550 L50 0 L237 0 Z M444 -12 C590 -12 681 51 681 195 L681 550 L494 550 L494 213 C494 174 468 151 428 151 C401 151 374 164 355 181 L287 39 C330 3 389 -12 444 -12 L444 -12 Z " />
<glyph glyph-name="Imacron.smcp" unicode="&#xf685;" horiz-adv-x="280" d="M234 0 L234 550 L47 550 L47 0 L234 0 Z M323 621 L323 718 L-40 718 L-40 621 L323 621 Z " />
<glyph glyph-name="Iogonek.smcp" unicode="&#xf686;" horiz-adv-x="280" d="M234 -90 C228 -105 217 -118 199 -118 C187 -118 170 -111 170 -84 C170 -55 186 -25 235 0 L235 550 L48 550 L48 0 L128 0 C102 -26 89 -56 89 -92 C89 -159 142 -186 199 -186 C245 -186 278 -166 300 -133 L234 -90 Z " />
<glyph glyph-name="Itilde.smcp" unicode="&#xf687;" horiz-adv-x="280" d="M235 0 L235 550 L48 550 L48 0 L235 0 Z M196 584 C273 584 314 626 314 718 L225 718 C225 693 214 681 201 681 C174 681 153 724 91 724 C14 724 -27 682 -27 590 L62 590 C62 615 73 627 86 627 C113 627 134 584 196 584 L196 584 Z " />
<glyph glyph-name="Jcircumflex.smcp" unicode="&#xf688;" horiz-adv-x="444" d="M157 -12 C303 -12 394 51 394 195 L394 550 L207 550 L207 213 C207 174 181 151 141 151 C114 151 87 164 68 181 L0 39 C43 3 102 -12 157 -12 L157 -12 Z M468 606 L377 750 L221 750 L133 606 L238 606 L299 679 L363 606 L468 606 Z " />
<glyph glyph-name="Kcommaaccent.smcp" unicode="&#xf689;" horiz-adv-x="598" d="M610 0 L383 294 L601 550 L377 550 L237 360 L237 550 L50 550 L50 0 L237 0 L237 154 L262 186 L387 0 L610 0 Z M386 -139 C386 -77 344 -42 299 -42 C257 -42 221 -77 221 -121 C221 -163 250 -190 286 -190 C294 -190 302 -189 305 -187 C296 -216 261 -249 237 -260 L292 -304 C350 -263 386 -205 386 -139 L386 -139 Z " />
<glyph glyph-name="Lacute.smcp" unicode="&#xf68a;" horiz-adv-x="479" d="M454 0 L454 161 L237 161 L237 550 L50 550 L50 0 L454 0 Z M432 750 L277 750 L157 606 L277 606 L432 750 Z " />
<glyph glyph-name="Lcaron.smcp" unicode="&#xf68b;" horiz-adv-x="479" d="M454 0 L454 161 L237 161 L237 550 L50 550 L50 0 L454 0 Z M446 462 C446 524 404 559 359 559 C317 559 281 524 281 480 C281 438 310 411 346 411 C354 411 362 412 365 414 C356 385 321 352 297 341 L352 297 C410 338 446 396 446 462 L446 462 Z " />
<glyph glyph-name="Lcommaaccent.smcp" unicode="&#xf68c;" horiz-adv-x="479" d="M454 0 L454 161 L237 161 L237 550 L50 550 L50 0 L454 0 Z M338 -139 C338 -77 296 -42 251 -42 C209 -42 173 -77 173 -121 C173 -163 202 -190 238 -190 C246 -190 254 -189 257 -187 C248 -216 213 -249 189 -260 L244 -304 C302 -263 338 -205 338 -139 L338 -139 Z " />
<glyph glyph-name="Ldot.smcp" unicode="&#xf68d;" horiz-adv-x="526" d="M454 0 L454 161 L237 161 L237 550 L50 550 L50 0 L454 0 Z M516 314 C516 372 468 421 410 421 C352 421 304 372 304 314 C304 257 352 208 410 208 C468 208 516 257 516 314 L516 314 Z " />
<glyph glyph-name="Nacute.smcp" unicode="&#xf68e;" horiz-adv-x="665" d="M615 0 L615 550 L429 550 L429 305 L253 550 L50 550 L50 0 L236 0 L236 261 L423 0 L615 0 Z M509 750 L354 750 L234 606 L354 606 L509 750 Z " />
<glyph glyph-name="Ncaron.smcp" unicode="&#xf68f;" horiz-adv-x="665" d="M615 0 L615 550 L429 550 L429 305 L253 550 L50 550 L50 0 L236 0 L236 261 L423 0 L615 0 Z M410 606 L498 750 L393 750 L332 677 L268 750 L163 750 L254 606 L410 606 Z " />
<glyph glyph-name="Ncommaaccent.smcp" unicode="&#xf690;" horiz-adv-x="665" d="M615 0 L615 550 L429 550 L429 305 L253 550 L50 550 L50 0 L236 0 L236 261 L423 0 L615 0 Z M422 -139 C422 -77 380 -42 335 -42 C293 -42 257 -77 257 -121 C257 -163 286 -190 322 -190 C330 -190 338 -189 341 -187 C332 -216 297 -249 273 -260 L328 -304 C386 -263 422 -205 422 -139 L422 -139 Z " />
<glyph glyph-name="Obreve.smcp" unicode="&#xf691;" horiz-adv-x="647" d="M323 -12 C501 -12 630 106 630 275 C630 444 501 562 323 562 C145 562 17 444 17 275 C17 106 145 -12 323 -12 L323 -12 Z M323 151 C252 151 205 206 205 275 C205 344 252 399 323 399 C395 399 441 344 441 275 C441 206 395 151 323 151 L323 151 Z M500 677 L425 739 C401 705 367 686 325 686 C281 686 247 708 225 739 L149 677 C190 623 254 589 325 589 C397 589 460 623 500 677 L500 677 Z " />
<glyph glyph-name="Ohungarumlaut.smcp" unicode="&#xf692;" horiz-adv-x="647" d="M323 -12 C501 -12 630 106 630 275 C630 444 501 562 323 562 C145 562 17 444 17 275 C17 106 145 -12 323 -12 L323 -12 Z M323 151 C252 151 205 206 205 275 C205 344 252 399 323 399 C395 399 441 344 441 275 C441 206 395 151 323 151 L323 151 Z M404 750 L269 750 L189 606 L289 606 L404 750 Z M560 750 L425 750 L345 606 L445 606 L560 750 Z " />
<glyph glyph-name="Omacron.smcp" unicode="&#xf693;" horiz-adv-x="647" d="M323 -12 C501 -12 630 106 630 275 C630 444 501 562 323 562 C145 562 17 444 17 275 C17 106 145 -12 323 -12 L323 -12 Z M323 151 C252 151 205 206 205 275 C205 344 252 399 323 399 C395 399 441 344 441 275 C441 206 395 151 323 151 L323 151 Z M507 621 L507 718 L144 718 L144 621 L507 621 Z " />
<glyph glyph-name="Oslashacute.smcp" unicode="&#xf694;" horiz-adv-x="647" d="M323 -12 C501 -12 630 106 630 275 C630 353 602 420 554 470 L621 550 L483 550 L468 532 C425 551 376 562 323 562 C145 562 17 444 17 275 C17 197 44 130 90 81 L23 0 L161 0 L177 19 C219 -1 269 -12 323 -12 L323 -12 Z M503 750 L348 750 L228 606 L348 606 L503 750 Z M323 151 C312 151 301 152 291 155 L432 324 C438 309 441 292 441 275 C441 206 395 151 323 151 L323 151 Z M205 275 C205 344 252 399 323 399 C334 399 344 398 353 395 L213 227 C207 242 205 258 205 275 L205 275 Z " />
<glyph glyph-name="Racute.smcp" unicode="&#xf695;" horiz-adv-x="602" d="M577 0 L471 184 C511 203 576 252 576 357 C576 461 499 550 370 550 L50 550 L50 0 L237 0 L237 164 L293 164 L368 0 L577 0 Z M346 325 L237 325 L237 389 L346 389 C370 389 387 376 387 357 C387 338 370 325 346 325 L346 325 Z M471 750 L316 750 L196 606 L316 606 L471 750 Z " />
<glyph glyph-name="Rcaron.smcp" unicode="&#xf696;" horiz-adv-x="602" d="M577 0 L471 184 C511 203 576 252 576 357 C576 461 499 550 370 550 L50 550 L50 0 L237 0 L237 164 L293 164 L368 0 L577 0 Z M346 325 L237 325 L237 389 L346 389 C370 389 387 376 387 357 C387 338 370 325 346 325 L346 325 Z M373 606 L461 750 L356 750 L295 677 L231 750 L126 750 L217 606 L373 606 Z " />
<glyph glyph-name="Rcommaaccent.smcp" unicode="&#xf697;" horiz-adv-x="602" d="M577 0 L471 184 C511 203 576 252 576 357 C576 461 499 550 370 550 L50 550 L50 0 L237 0 L237 164 L293 164 L368 0 L577 0 Z M346 325 L237 325 L237 389 L346 389 C370 389 387 376 387 357 C387 338 370 325 346 325 L346 325 Z M379 -139 C379 -77 337 -42 292 -42 C250 -42 214 -77 214 -121 C214 -163 243 -190 279 -190 C287 -190 295 -189 298 -187 C289 -216 254 -249 230 -260 L285 -304 C343 -263 379 -205 379 -139 L379 -139 Z " />
<glyph glyph-name="Sacute.smcp" unicode="&#xf698;" horiz-adv-x="528" d="M260 -12 C421 -12 518 58 518 178 C518 390 211 341 211 387 C211 400 225 412 262 412 C310 412 382 390 425 358 L508 483 C446 533 363 562 264 562 C109 562 22 471 22 377 C22 161 329 212 329 165 C329 148 306 138 267 138 C198 138 122 168 82 204 L3 67 C55 24 147 -12 260 -12 L260 -12 Z M443 750 L288 750 L168 606 L288 606 L443 750 Z " />
<glyph glyph-name="Scedilla.smcp" unicode="&#xf699;" horiz-adv-x="528" d="M259 -200 C323 -200 377 -168 377 -111 C377 -68 345 -38 309 -38 C296 -38 285 -41 275 -47 L290 -11 C433 -2 518 66 518 178 C518 390 211 341 211 387 C211 400 225 412 262 412 C310 412 382 390 425 358 L508 483 C446 533 363 562 264 562 C109 562 22 471 22 377 C22 161 329 212 329 165 C329 148 306 138 267 138 C198 138 122 168 82 204 L3 67 C47 30 121 -1 212 -10 L190 -69 L249 -103 C255 -96 264 -91 275 -91 C288 -91 296 -97 296 -108 C296 -125 275 -132 254 -132 C226 -132 197 -120 171 -102 L140 -166 C162 -184 206 -200 259 -200 L259 -200 Z " />
<glyph glyph-name="Scircumflex.smcp" unicode="&#xf69a;" horiz-adv-x="528" d="M260 -12 C421 -12 518 58 518 178 C518 390 211 341 211 387 C211 400 225 412 262 412 C310 412 382 390 425 358 L508 483 C446 533 363 562 264 562 C109 562 22 471 22 377 C22 161 329 212 329 165 C329 148 306 138 267 138 C198 138 122 168 82 204 L3 67 C55 24 147 -12 260 -12 L260 -12 Z M436 606 L345 750 L189 750 L101 606 L206 606 L267 679 L331 606 L436 606 Z " />
<glyph glyph-name="Scommaaccent.smcp" unicode="&#xf69b;" horiz-adv-x="528" d="M260 -12 C421 -12 518 58 518 178 C518 390 211 341 211 387 C211 400 225 412 262 412 C310 412 382 390 425 358 L508 483 C446 533 363 562 264 562 C109 562 22 471 22 377 C22 161 329 212 329 165 C329 148 306 138 267 138 C198 138 122 168 82 204 L3 67 C55 24 147 -12 260 -12 L260 -12 Z M351 -139 C351 -77 309 -42 264 -42 C222 -42 186 -77 186 -121 C186 -163 215 -190 251 -190 C259 -190 267 -189 270 -187 C261 -216 226 -249 202 -260 L257 -304 C315 -263 351 -205 351 -139 L351 -139 Z " />
<glyph glyph-name="Tbar.smcp" unicode="&#xf69c;" horiz-adv-x="501" d="M344 0 L344 171 L433 171 L433 268 L344 268 L344 389 L486 389 L486 550 L15 550 L15 389 L158 389 L158 268 L70 268 L70 171 L158 171 L158 0 L344 0 Z " />
<glyph glyph-name="Tcaron.smcp" unicode="&#xf69d;" horiz-adv-x="501" d="M344 0 L344 389 L486 389 L486 550 L15 550 L15 389 L158 389 L158 0 L344 0 Z M331 606 L419 750 L314 750 L253 677 L189 750 L84 750 L175 606 L331 606 Z " />
<glyph glyph-name="Tcommaaccent.smcp" unicode="&#xf69e;" horiz-adv-x="501" d="M344 0 L344 389 L486 389 L486 550 L15 550 L15 389 L158 389 L158 0 L344 0 Z M336 -139 C336 -77 294 -42 249 -42 C207 -42 171 -77 171 -121 C171 -163 200 -190 236 -190 C244 -190 252 -189 255 -187 C246 -216 211 -249 187 -260 L242 -304 C300 -263 336 -205 336 -139 L336 -139 Z " />
<glyph glyph-name="Ubreve.smcp" unicode="&#xf69f;" horiz-adv-x="669" d="M335 -12 C529 -12 619 88 619 225 L619 550 L431 550 L431 242 C431 191 396 151 335 151 C273 151 238 191 238 242 L238 550 L50 550 L50 224 C50 88 141 -12 335 -12 L335 -12 Z M511 677 L436 739 C412 705 378 686 336 686 C292 686 258 708 236 739 L160 677 C201 623 265 589 336 589 C408 589 471 623 511 677 L511 677 Z " />
<glyph glyph-name="Uhungarumlaut.smcp" unicode="&#xf6a0;" horiz-adv-x="669" d="M335 -12 C529 -12 619 88 619 225 L619 550 L431 550 L431 242 C431 191 396 151 335 151 C273 151 238 191 238 242 L238 550 L50 550 L50 224 C50 88 141 -12 335 -12 L335 -12 Z M415 750 L280 750 L200 606 L300 606 L415 750 Z M571 750 L436 750 L356 606 L456 606 L571 750 Z " />
<glyph glyph-name="Umacron.smcp" unicode="&#xf6a1;" horiz-adv-x="669" d="M335 -12 C529 -12 619 88 619 225 L619 550 L431 550 L431 242 C431 191 396 151 335 151 C273 151 238 191 238 242 L238 550 L50 550 L50 224 C50 88 141 -12 335 -12 L335 -12 Z M516 621 L516 718 L153 718 L153 621 L516 621 Z " />
<glyph glyph-name="Uogonek.smcp" unicode="&#xf6a2;" horiz-adv-x="669" d="M439 -90 C433 -105 422 -118 404 -118 C392 -118 375 -111 375 -84 C375 -55 391 -25 439 0 C561 29 619 115 619 225 L619 550 L431 550 L431 242 C431 191 396 151 335 151 C273 151 238 191 238 242 L238 550 L50 550 L50 224 C50 91 137 -8 322 -12 C304 -35 294 -62 294 -92 C294 -159 347 -186 404 -186 C450 -186 483 -166 505 -133 L439 -90 Z " />
<glyph glyph-name="Uring.smcp" unicode="&#xf6a3;" horiz-adv-x="669" d="M335 -12 C529 -12 619 88 619 225 L619 550 L431 550 L431 242 C431 191 396 151 335 151 C273 151 238 191 238 242 L238 550 L50 550 L50 224 C50 88 141 -12 335 -12 L335 -12 Z M336 591 C397 591 446 642 446 703 C446 764 397 815 336 815 C275 815 224 764 224 703 C224 642 275 591 336 591 L336 591 Z M336 668 C317 668 301 684 301 703 C301 722 317 738 336 738 C355 738 370 722 370 703 C370 684 355 668 336 668 L336 668 Z " />
<glyph glyph-name="Utilde.smcp" unicode="&#xf6a4;" horiz-adv-x="669" d="M335 -12 C529 -12 619 88 619 225 L619 550 L431 550 L431 242 C431 191 396 151 335 151 C273 151 238 191 238 242 L238 550 L50 550 L50 224 C50 88 141 -12 335 -12 L335 -12 Z M388 604 C465 604 506 646 506 738 L417 738 C417 713 406 701 393 701 C366 701 345 744 283 744 C206 744 165 702 165 610 L254 610 C254 635 265 647 278 647 C305 647 326 604 388 604 L388 604 Z " />
<glyph glyph-name="Wcircumflex.smcp" unicode="&#xf6a6;" horiz-adv-x="831" d="M584 606 L493 750 L337 750 L249 606 L354 606 L415 679 L479 606 L584 606 Z M677 0 L843 550 L635 550 L567 240 L486 550 L345 550 L264 240 L197 550 L-12 550 L154 0 L348 0 L415 285 L483 0 L677 0 Z " />
<glyph glyph-name="Ycircumflex.smcp" unicode="&#xf6a9;" horiz-adv-x="583" d="M384 0 L384 220 L600 550 L393 550 L293 375 L191 550 L-17 550 L200 220 L200 0 L384 0 Z M461 606 L370 750 L214 750 L126 606 L231 606 L292 679 L356 606 L461 606 Z " />
<glyph glyph-name="Zacute.smcp" unicode="&#xf6ab;" horiz-adv-x="531" d="M499 0 L499 163 L293 163 L493 418 L493 550 L32 550 L32 387 L232 387 L32 133 L32 0 L499 0 Z M439 750 L284 750 L164 606 L284 606 L439 750 Z " />
<glyph glyph-name="Zdotaccent.smcp" unicode="&#xf6ac;" horiz-adv-x="531" d="M499 0 L499 163 L293 163 L493 418 L493 550 L32 550 L32 387 L232 387 L32 133 L32 0 L499 0 Z M279 600 C327 600 367 640 367 689 C367 738 327 778 279 778 C230 778 190 738 190 689 C190 640 230 600 279 600 L279 600 Z " />
<glyph glyph-name="Idotaccent.smcp" unicode="&#xf6ad;" horiz-adv-x="268" d="M231 0 L231 550 L44 550 L44 0 L231 0 Z M138 600 C186 600 226 640 226 689 C226 738 186 778 138 778 C89 778 49 738 49 689 C49 640 89 600 138 600 L138 600 Z " />
<glyph glyph-name="parenleft.case" unicode="&#xf6ae;" horiz-adv-x="346" d="M328 -20 C257 95 230 200 230 333 C230 467 257 571 328 688 L214 775 C108 680 37 494 37 333 C37 172 108 -14 214 -109 L328 -20 Z " />
<glyph glyph-name="parenright.case" unicode="&#xf6af;" horiz-adv-x="347" d="M18 -20 C89 95 116 200 116 333 C116 467 89 571 18 688 L132 775 C238 680 309 494 309 333 C309 172 238 -14 132 -109 L18 -20 Z " />
<glyph glyph-name="bracketleft.case" unicode="&#xf6b0;" horiz-adv-x="317" d="M299 -100 L299 14 L179 14 L179 654 L299 654 L299 768 L54 768 L54 -100 L299 -100 Z " />
<glyph glyph-name="bracketright.case" unicode="&#xf6b1;" horiz-adv-x="317" d="M263 -100 L263 768 L18 768 L18 654 L138 654 L138 14 L18 14 L18 -100 L263 -100 Z " />
<glyph glyph-name="braceleft.case" unicode="&#xf6b2;" horiz-adv-x="316" d="M299 -100 L299 14 L239 14 C206 14 179 42 179 85 L179 243 C179 285 166 320 133 334 C166 348 179 383 179 425 L179 584 C179 628 206 654 239 654 L299 654 L299 768 L239 768 C142 768 54 699 54 583 L54 445 C54 408 37 381 2 381 L2 287 C37 287 54 260 54 223 L54 84 C54 -32 142 -100 239 -100 L299 -100 Z " />
<glyph glyph-name="braceright.case" unicode="&#xf6b3;" horiz-adv-x="316" d="M17 -100 L77 -100 C174 -100 262 -32 262 84 L262 223 C262 260 279 287 314 287 L314 381 C279 381 262 408 262 445 L262 583 C262 699 174 768 77 768 L17 768 L17 654 L77 654 C110 654 137 628 137 584 L137 425 C137 383 150 348 183 334 C150 320 137 285 137 243 L137 85 C137 42 110 14 77 14 L17 14 L17 -100 Z " />
<glyph glyph-name="exclamdown.case" unicode="&#xf6b4;" horiz-adv-x="280" d="M33 0 L247 0 L220 419 L58 419 L33 0 Z M33 573 C33 515 81 466 139 466 C197 466 245 515 245 573 C245 630 197 679 139 679 C81 679 33 630 33 573 L33 573 Z " />
<glyph glyph-name="questiondown.case" unicode="&#xf6b5;" horiz-adv-x="450" d="M297 443 L139 407 C144 401 150 387 150 370 C150 302 8 292 8 151 C8 52 93 -10 228 -10 C306 -10 392 19 450 81 L338 210 C313 184 277 168 251 168 C220 168 212 177 212 189 C212 220 324 239 324 348 C324 388 313 421 297 443 L297 443 Z M222 679 C164 679 115 630 115 572 C115 514 164 465 222 465 C280 465 329 514 329 572 C329 630 280 679 222 679 L222 679 Z " />
<glyph glyph-name="guillemotleft.case" unicode="&#xf6b6;" horiz-adv-x="615" d="M585 162 L425 342 L585 519 L425 519 L265 342 L425 162 L585 162 Z M350 162 L190 342 L350 519 L190 519 L30 342 L190 162 L350 162 Z " />
<glyph glyph-name="guillemotright.case" unicode="&#xf6b7;" horiz-adv-x="615" d="M350 342 L190 519 L30 519 L190 342 L30 162 L190 162 L350 342 Z M585 342 L425 519 L265 519 L425 342 L265 162 L425 162 L585 342 Z " />
<glyph glyph-name="guilsinglleft.case" unicode="&#xf6b8;" horiz-adv-x="380" d="M350 162 L190 342 L350 519 L190 519 L30 342 L190 162 L350 162 Z " />
<glyph glyph-name="guilsinglright.case" unicode="&#xf6b9;" horiz-adv-x="380" d="M350 342 L190 519 L30 519 L190 342 L30 162 L190 162 L350 342 Z " />
<glyph glyph-name="hyphen.case" unicode="&#xf6ba;" horiz-adv-x="300" d="M270 266 L270 416 L30 416 L30 266 L270 266 Z " />
<glyph glyph-name="endash.case" unicode="&#xf6bb;" horiz-adv-x="593" d="M563 266 L563 416 L30 416 L30 266 L563 266 Z " />
<glyph glyph-name="emdash.case" unicode="&#xf6bc;" horiz-adv-x="833" d="M803 266 L803 416 L30 416 L30 266 L803 266 Z " />
<glyph glyph-name="periodcentered.case" unicode="&#xf6bd;" horiz-adv-x="283" d="M247 342 C247 400 199 449 141 449 C83 449 35 400 35 342 C35 285 83 236 141 236 C199 236 247 285 247 342 L247 342 Z " />
<glyph glyph-name="bullet.case" unicode="&#xf6be;" horiz-adv-x="358" d="M310 341 C310 413 252 471 180 471 C108 471 50 413 50 341 C50 270 108 212 180 212 C252 212 310 270 310 341 L310 341 Z " />
<glyph glyph-name="cent.case" unicode="&#xf6bf;" horiz-adv-x="502" d="M229 -9 L355 -9 L355 86 C426 101 472 139 493 170 L377 280 C371 271 364 263 355 257 L355 409 C364 402 371 394 377 386 L493 495 C472 527 426 564 355 579 L355 656 L229 656 L229 581 C106 558 17 465 17 333 C17 199 106 106 229 84 L229 -9 Z M201 333 C201 363 212 387 229 403 L229 262 C212 278 201 302 201 333 L201 333 Z " />
<glyph glyph-name="commaaccent" unicode="&#xf6c3;" horiz-adv-x="281" d="M226 -139 C226 -77 184 -42 139 -42 C97 -42 61 -77 61 -121 C61 -163 90 -190 126 -190 C134 -190 142 -189 145 -187 C136 -216 101 -249 77 -260 L132 -304 C190 -263 226 -205 226 -139 L226 -139 Z " />
<glyph glyph-name="one.tnum" unicode="&#xf6dc;" horiz-adv-x="648" d="M507 0 L507 667 L333 667 L78 417 L192 298 L305 410 L305 0 L507 0 Z " />
<glyph glyph-name="rupiah" unicode="&#xf6dd;" horiz-adv-x="1230" d="M651 0 L530 236 C583 262 650 323 650 438 C650 563 566 667 410 667 L54 667 L54 0 L256 0 L256 210 L329 210 L421 0 L651 0 Z M379 386 L256 386 L256 491 L379 491 C413 491 445 475 445 439 C445 402 413 386 379 386 L379 386 Z M1001 -12 C1121 -12 1213 76 1213 242 C1213 407 1121 495 1001 495 C951 495 904 478 865 432 L865 483 L685 483 L685 -184 L865 -184 L865 51 C905 5 951 -12 1001 -12 L1001 -12 Z M939 147 C916 147 881 160 865 180 L865 303 C882 324 916 336 939 336 C987 336 1029 302 1029 242 C1029 181 987 147 939 147 L939 147 Z " />
<glyph glyph-name="centinferior" unicode="&#xf6df;" horiz-adv-x="317" d="M145 -151 L227 -151 L227 -93 C271 -83 298 -59 310 -40 L230 24 C223 9 208 -6 185 -6 C159 -6 133 13 133 54 C133 94 159 112 185 112 C208 112 223 99 230 84 L310 148 C298 167 271 191 227 201 L227 248 L145 248 L145 203 C69 190 13 134 13 54 C13 -26 69 -82 145 -95 L145 -151 Z " />
<glyph glyph-name="centsuperior" unicode="&#xf6e0;" horiz-adv-x="317" d="M145 416 L227 416 L227 474 C271 484 298 508 310 527 L230 591 C223 576 208 561 185 561 C159 561 133 580 133 621 C133 661 159 679 185 679 C208 679 223 666 230 651 L310 715 C298 734 271 758 227 768 L227 815 L145 815 L145 770 C69 757 13 701 13 621 C13 540 69 485 145 472 L145 416 Z " />
<glyph glyph-name="commainferior" unicode="&#xf6e1;" horiz-adv-x="175" d="M156 -90 C156 -43 126 -12 87 -12 C49 -12 19 -43 19 -81 C19 -117 51 -144 83 -144 C85 -144 87 -143 89 -143 C84 -164 48 -190 33 -194 C49 -207 65 -219 80 -232 C134 -194 156 -145 156 -90 L156 -90 Z " />
<glyph glyph-name="commasuperior" unicode="&#xf6e2;" horiz-adv-x="175" d="M156 477 C156 524 126 555 87 555 C49 555 19 524 19 486 C19 450 51 423 83 423 C85 423 87 424 89 424 C84 403 48 377 33 373 C49 360 65 348 80 335 C134 373 156 422 156 477 L156 477 Z " />
<glyph glyph-name="dollarinferior" unicode="&#xf6e3;" horiz-adv-x="396" d="M162 -206 L244 -206 L244 -149 C335 -137 386 -90 386 -19 C386 139 150 96 150 145 C150 156 167 165 197 165 C236 165 275 145 299 126 L371 202 C346 228 303 249 244 257 L244 315 L162 315 L162 258 C66 248 16 187 16 132 C16 -33 252 16 252 -37 C252 -47 230 -56 200 -56 C157 -56 111 -33 80 -4 L10 -88 C43 -123 94 -146 162 -152 L162 -206 Z " />
<glyph glyph-name="dollarsuperior" unicode="&#xf6e4;" horiz-adv-x="396" d="M162 361 L244 361 L244 417 C335 430 386 477 386 548 C386 706 150 663 150 712 C150 723 167 732 197 732 C236 732 275 712 299 693 L371 769 C346 795 303 816 244 824 L244 882 L162 882 L162 825 C66 815 16 754 16 699 C16 534 252 583 252 530 C252 520 230 511 200 511 C157 511 111 534 80 563 L10 479 C43 444 94 420 162 415 L162 361 Z " />
<glyph glyph-name="hypheninferior" unicode="&#xf6e5;" horiz-adv-x="183" d="M165 4 L165 101 L18 101 L18 4 L165 4 Z " />
<glyph glyph-name="hyphensuperior" unicode="&#xf6e6;" horiz-adv-x="183" d="M165 571 L165 668 L18 668 L18 571 L165 571 Z " />
<glyph glyph-name="periodinferior" unicode="&#xf6e7;" horiz-adv-x="174" d="M155 -81 C155 -43 124 -12 87 -12 C50 -12 19 -43 19 -81 C19 -117 50 -148 87 -148 C124 -148 155 -117 155 -81 L155 -81 Z " />
<glyph glyph-name="periodsuperior" unicode="&#xf6e8;" horiz-adv-x="174" d="M155 486 C155 524 124 555 87 555 C50 555 19 524 19 486 C19 450 50 419 87 419 C124 419 155 450 155 486 L155 486 Z " />
<glyph glyph-name="asuperior" unicode="&#xf6e9;" horiz-adv-x="392" d="M352 326 L352 509 C352 621 271 648 191 648 C144 648 82 634 38 601 L82 519 C107 542 139 555 168 555 C207 555 225 536 225 512 L225 488 C214 501 183 521 129 521 C79 521 20 492 20 421 C20 350 79 318 129 318 C183 318 214 341 225 355 L225 326 L352 326 Z M183 395 C166 395 145 399 145 421 C145 442 166 447 183 447 C199 447 218 440 225 429 L225 414 C218 402 199 395 183 395 L183 395 Z " />
<glyph glyph-name="bsuperior" unicode="&#xf6ea;" horiz-adv-x="416" d="M212 417 C199 417 178 420 167 430 L167 535 C178 545 199 548 212 548 C240 548 267 526 267 483 C267 440 240 417 212 417 L212 417 Z M167 326 L167 357 C196 327 225 318 255 318 C331 318 396 375 396 483 C396 588 333 648 255 648 C224 648 194 638 168 609 L168 760 L40 760 L40 326 L167 326 Z " />
<glyph glyph-name="dsuperior" unicode="&#xf6eb;" horiz-adv-x="417" d="M377 326 L377 760 L249 760 L249 609 C223 638 193 648 162 648 C84 648 20 588 20 483 C20 375 86 318 162 318 C193 318 222 327 250 357 L250 326 L377 326 Z M205 417 C177 417 150 440 150 483 C150 526 177 548 205 548 C218 548 239 545 250 535 L250 430 C239 420 218 417 205 417 L205 417 Z " />
<glyph glyph-name="esuperior" unicode="&#xf6ec;" horiz-adv-x="384" d="M200 318 C247 318 306 329 336 355 L282 429 C267 418 230 411 215 411 C181 411 162 422 152 441 L364 441 L364 468 C364 583 287 648 196 648 C92 648 20 574 20 483 C20 379 100 318 200 318 L200 318 Z M243 527 L151 527 C156 543 165 559 196 559 C230 559 239 542 243 527 L243 527 Z " />
<glyph glyph-name="isuperior" unicode="&#xf6ed;" horiz-adv-x="207" d="M104 658 C143 658 174 689 174 728 C174 767 143 799 104 799 C65 799 34 767 34 728 C34 689 65 658 104 658 L104 658 Z M167 326 L167 640 L40 640 L40 326 L167 326 Z " />
<glyph glyph-name="lsuperior" unicode="&#xf6ee;" horiz-adv-x="207" d="M167 326 L167 760 L40 760 L40 326 L167 326 Z " />
<glyph glyph-name="msuperior" unicode="&#xf6ef;" horiz-adv-x="620" d="M580 326 L580 552 C580 619 539 648 480 648 C426 648 385 620 367 593 C351 633 318 648 274 648 C221 648 181 623 167 606 L167 640 L40 640 L40 326 L167 326 L167 520 C174 527 188 541 212 541 C238 541 246 526 246 509 L246 326 L373 326 L373 520 C380 527 394 541 419 541 C444 541 453 526 453 509 L453 326 L580 326 Z " />
<glyph glyph-name="osuperior" unicode="&#xf6f0;" horiz-adv-x="405" d="M202 318 C318 318 385 396 385 483 C385 570 318 648 202 648 C88 648 20 570 20 483 C20 396 88 318 202 318 L202 318 Z M202 418 C170 418 151 438 151 483 C151 528 170 546 202 546 C235 546 255 528 255 483 C255 438 235 418 202 418 L202 418 Z " />
<glyph glyph-name="rsuperior" unicode="&#xf6f1;" horiz-adv-x="275" d="M167 326 L167 524 C180 538 211 542 237 542 L265 539 L265 650 C229 650 187 629 167 608 L167 640 L40 640 L40 326 L167 326 Z " />
<glyph glyph-name="ssuperior" unicode="&#xf6f2;" horiz-adv-x="342" d="M167 318 C264 318 322 364 322 427 C322 554 142 516 142 550 C142 560 153 563 171 563 C203 563 240 548 260 533 L305 606 C279 628 235 648 166 648 C73 648 21 597 21 547 C21 416 201 455 201 414 C201 405 190 403 169 403 C134 403 84 427 58 450 L10 372 C43 346 96 318 167 318 L167 318 Z " />
<glyph glyph-name="tsuperior" unicode="&#xf6f3;" horiz-adv-x="264" d="M175 318 C217 318 246 329 258 340 C251 368 243 396 236 423 C234 421 223 418 213 418 C198 418 187 431 187 446 L187 552 L253 552 L253 640 L187 640 L187 726 L60 726 L60 640 L6 640 L6 552 L60 552 L60 421 C60 352 102 318 175 318 L175 318 Z " />
<glyph glyph-name="Lslash.smcp" unicode="&#xf6f9;" horiz-adv-x="478" d="M7 109 L49 133 L49 0 L453 0 L453 161 L236 161 L236 240 L302 278 L302 439 L236 401 L236 550 L49 550 L49 293 L7 269 L7 109 Z " />
<glyph glyph-name="OE.smcp" unicode="&#xf6fa;" horiz-adv-x="905" d="M873 0 L873 155 L612 155 L612 200 L867 200 L867 355 L612 355 L612 395 L873 395 L873 550 L425 550 L425 514 C387 548 336 562 285 562 C130 562 17 445 17 275 C17 105 130 -12 285 -12 C339 -12 387 2 425 36 L425 0 L873 0 Z M425 205 C404 171 370 151 326 151 C252 151 205 206 205 275 C205 344 252 399 326 399 C370 399 404 380 425 346 L425 205 Z " />
<glyph glyph-name="Scaron.smcp" unicode="&#xf6fd;" horiz-adv-x="528" d="M260 -12 C421 -12 518 58 518 178 C518 390 211 341 211 387 C211 400 225 412 262 412 C310 412 382 390 425 358 L508 483 C446 533 363 562 264 562 C109 562 22 471 22 377 C22 161 329 212 329 165 C329 148 306 138 267 138 C198 138 122 168 82 204 L3 67 C55 24 147 -12 260 -12 L260 -12 Z M348 606 L436 750 L331 750 L270 677 L206 750 L101 750 L192 606 L348 606 Z " />
<glyph glyph-name="Zcaron.smcp" unicode="&#xf6ff;" horiz-adv-x="531" d="M499 0 L499 163 L293 163 L493 418 L493 550 L32 550 L32 387 L232 387 L32 133 L32 0 L499 0 Z M343 606 L431 750 L326 750 L265 677 L201 750 L96 750 L187 606 L343 606 Z " />
<glyph glyph-name="exclam.smcp" unicode="&#xf721;" horiz-adv-x="224" d="M208 550 L17 550 L40 245 L187 245 L208 550 Z M219 94 C219 152 171 201 113 201 C55 201 7 152 7 94 C7 37 55 -12 113 -12 C171 -12 219 37 219 94 L219 94 Z " />
<glyph glyph-name="dollar.onum" unicode="&#xf724;" horiz-adv-x="528" d="M207 -74 L333 -74 L333 -6 C450 12 518 77 518 178 C518 390 211 341 211 387 C211 400 225 412 262 412 C310 412 382 390 425 358 L508 483 C461 521 402 546 333 557 L333 628 L207 628 L207 557 C88 538 22 459 22 377 C22 161 329 212 329 165 C329 148 306 138 267 138 C198 138 122 168 82 204 L3 67 C46 31 118 0 207 -9 L207 -74 Z " />
<glyph glyph-name="ampersand.smcp" unicode="&#xf726;" horiz-adv-x="578" d="M587 0 C543 46 508 82 473 119 C505 156 532 198 554 244 L428 301 C419 272 405 242 388 216 C379 227 370 238 360 250 C350 261 340 273 331 285 C398 312 463 348 463 434 C463 512 383 562 289 562 C181 562 103 501 103 422 C103 387 115 351 134 313 C69 283 14 240 14 158 C14 46 104 -10 218 -10 C269 -10 316 3 359 25 C368 16 376 8 385 0 L587 0 Z M241 110 C210 110 183 136 183 173 C183 189 188 202 197 214 C209 197 222 180 236 163 C247 148 260 133 275 116 C263 112 252 110 241 110 L241 110 Z M260 418 C260 437 274 452 297 452 C312 452 326 441 326 425 C326 400 305 383 273 369 C265 386 260 403 260 418 L260 418 Z " />
<glyph glyph-name="zero.onum" unicode="&#xf730;" horiz-adv-x="628" d="M610 275 C610 433 513 562 314 562 C115 562 18 433 18 275 C18 118 115 -12 314 -12 C513 -12 610 118 610 275 L610 275 Z M407 275 C407 206 370 166 314 166 C258 166 221 206 221 275 C221 344 258 384 314 384 C370 384 407 344 407 275 L407 275 Z " />
<glyph glyph-name="one.onum" unicode="&#xf731;" horiz-adv-x="483" d="M429 0 L429 550 L255 550 L0 300 L114 181 L227 293 L227 0 L429 0 Z " />
<glyph glyph-name="two.onum" unicode="&#xf732;" horiz-adv-x="587" d="M548 0 L548 176 L400 176 C474 202 560 289 560 377 C560 489 466 562 293 562 C200 562 89 531 12 449 L122 315 C177 364 229 384 290 384 C328 384 355 368 355 340 C355 303 300 227 41 157 L41 0 L548 0 Z " />
<glyph glyph-name="three.onum" unicode="&#xf733;" horiz-adv-x="605" d="M288 -129 C461 -129 578 -48 578 71 C578 163 494 219 420 227 C505 241 567 304 567 375 C567 485 473 560 289 560 C159 560 68 515 9 450 L104 324 C150 362 210 382 267 382 C325 382 366 370 366 339 C366 318 338 306 274 306 C250 306 190 306 177 307 L177 128 C187 129 245 130 274 130 C363 130 377 117 377 94 C377 70 346 49 280 49 C229 49 151 68 99 113 L0 -25 C56 -85 156 -129 288 -129 L288 -129 Z " />
<glyph glyph-name="four.onum" unicode="&#xf734;" horiz-adv-x="636" d="M618 0 L618 176 L541 176 L541 550 L261 550 L18 155 L18 0 L339 0 L339 -117 L541 -117 L541 0 L618 0 Z M339 176 L213 176 L339 376 L339 176 Z " />
<glyph glyph-name="five.onum" unicode="&#xf735;" horiz-adv-x="626" d="M311 -129 C498 -129 608 -34 608 113 C608 246 507 331 393 331 C337 331 286 311 254 280 L254 374 L562 374 L562 550 L52 550 L52 145 L191 113 C225 145 264 159 315 159 C377 159 403 134 403 104 C403 76 376 49 309 49 C251 49 186 69 140 107 L32 -35 C97 -94 192 -129 311 -129 L311 -129 Z " />
<glyph glyph-name="six.onum" unicode="&#xf736;" horiz-adv-x="625" d="M336 -12 C494 -12 613 83 613 228 C613 370 497 449 377 449 C316 449 256 425 222 381 C222 382 222 382 222 383 C222 464 302 499 368 499 C417 499 453 490 491 463 L576 619 C523 655 444 677 368 677 C161 677 18 555 18 332 C18 137 117 -12 336 -12 L336 -12 Z M323 166 C253 166 225 206 221 251 C248 272 281 278 315 278 C355 278 408 263 408 220 C408 192 374 166 323 166 L323 166 Z " />
<glyph glyph-name="seven.onum" unicode="&#xf737;" horiz-adv-x="575" d="M341 -117 L563 410 L563 550 L18 550 L18 374 L331 374 L120 -117 L341 -117 Z " />
<glyph glyph-name="eight.onum" unicode="&#xf738;" horiz-adv-x="630" d="M315 -12 C463 -12 612 42 612 178 C612 250 560 312 484 344 C554 373 601 420 601 498 C601 629 452 677 315 677 C178 677 29 629 29 498 C29 420 75 373 145 344 C69 312 18 250 18 178 C18 42 167 -12 315 -12 L315 -12 Z M315 422 C274 428 234 447 234 468 C234 495 264 513 315 513 C365 513 395 495 395 468 C395 447 356 428 315 422 L315 422 Z M315 152 C258 152 223 172 223 201 C223 227 272 247 315 253 C357 247 407 227 407 201 C407 172 370 152 315 152 L315 152 Z " />
<glyph glyph-name="nine.onum" unicode="&#xf739;" horiz-adv-x="625" d="M257 -128 C464 -128 607 -6 607 217 C607 412 508 561 289 561 C131 561 12 466 12 321 C12 179 128 100 248 100 C309 100 369 124 403 168 C403 167 403 166 403 165 C403 100 342 50 257 50 C208 50 172 59 134 86 L49 -70 C102 -106 181 -128 257 -128 L257 -128 Z M310 271 C270 271 217 286 217 329 C217 357 251 383 301 383 C372 383 400 343 404 298 C377 277 344 271 310 271 L310 271 Z " />
<glyph glyph-name="question.smcp" unicode="&#xf73f;" horiz-adv-x="395" d="M389 439 C389 509 314 561 196 561 C127 561 52 537 0 484 L84 371 C107 394 142 408 176 408 C200 408 206 403 206 395 C206 373 116 359 116 282 C116 266 120 237 135 218 L279 249 C273 256 269 264 269 277 C269 317 389 332 389 439 L389 439 Z M308 95 C308 153 259 202 201 202 C143 202 94 153 94 95 C94 37 143 -12 201 -12 C259 -12 308 37 308 95 L308 95 Z " />
<glyph glyph-name="A.smcp" unicode="&#xf761;" horiz-adv-x="621" d="M197 550 L-17 0 L192 0 L212 61 L410 61 L430 0 L638 0 L425 550 L197 550 Z M358 222 L264 222 L311 365 L358 222 Z " />
<glyph glyph-name="B.smcp" unicode="&#xf762;" horiz-adv-x="618" d="M417 0 C536 0 593 73 593 150 C593 219 549 271 487 284 C541 299 581 344 581 409 C581 474 527 550 405 550 L50 550 L50 0 L417 0 Z M375 151 L237 151 L237 203 L375 203 C392 203 404 192 404 177 C404 162 392 151 375 151 L375 151 Z M368 353 L237 353 L237 399 L368 399 C382 399 392 388 392 376 C392 363 381 353 368 353 L368 353 Z " />
</font>
</svg>
