<?xml version="1.0" encoding="UTF-8"?>
<svg xmlns="http://www.w3.org/2000/svg" xmlns:xlink="http://www.w3.org/1999/xlink" version="1.2" >
<font id="Quan Rounded Light">
<font-face  font-family="Quan Rounded" units-per-em="1000" ascent="750" descent="-250" font-style="normal" font-weight="300" font-stretch="normal" cap-height="400" x-height="500" underline-position="-91" underline-thickness="35" />
<missing-glyph  horiz-adv-x="569" d="M539 0 L539 628 L30 628 L30 0 L539 0 Z M76 35 C76 41 73 45 68 46 L76 46 L76 35 L76 35 Z M493 590 C493 585 496 582 501 582 L493 582 L493 590 L493 590 Z M501 46 C496 45 493 42 493 37 L493 46 L501 46 L501 46 Z M68 582 C73 582 75 585 76 590 L76 582 L68 582 L68 582 Z M76 582 L493 582 L493 46 L76 46 L76 582 Z " />
<glyph glyph-name="space" unicode="&#x20;" horiz-adv-x="185" d="" />
<glyph glyph-name="exclam" unicode="&#x21;" horiz-adv-x="160" d="M97 40 C97 50 89 57 80 57 C71 57 62 50 62 40 L62 17 C62 7 71 0 80 0 C89 0 97 7 97 17 L97 40 Z M63 107 C63 99 71 92 79 92 C86 92 94 99 94 107 C94 150 96 199 96 242 C97 330 98 395 100 480 C100 491 91 500 80 500 C69 500 60 491 60 480 C62 396 62 329 62 241 C62 198 63 149 63 107 L63 107 Z " />
<glyph glyph-name="quotedbl" unicode="&#x22;" horiz-adv-x="218" d="M66 423 C66 417 70 413 76 413 C82 413 86 417 86 423 C87 443 86 438 93 519 C93 529 86 536 76 536 C67 536 60 529 60 519 C61 499 59 509 66 423 L66 423 Z M131 423 C131 417 135 413 141 413 C147 413 151 417 151 423 C152 443 151 438 158 519 C158 529 151 536 141 536 C132 536 125 529 125 519 C126 499 124 509 131 423 L131 423 Z " />
<glyph glyph-name="numbersign" unicode="&#x23;" horiz-adv-x="606" d="M370 172 L168 172 L222 346 L422 346 L370 172 Z M391 146 L489 146 C496 146 502 151 502 159 C502 166 496 172 489 172 L397 172 L451 346 L533 346 C540 346 546 351 546 359 C546 366 540 372 533 372 L459 372 L493 485 C493 493 486 500 478 500 C472 500 467 495 465 489 L430 372 L229 372 L263 485 C263 493 256 500 248 500 C242 500 237 495 235 489 C222 448 212 413 200 372 L116 372 C109 372 103 366 103 359 C103 351 109 346 116 346 L193 346 L141 172 L73 172 C66 172 60 166 60 159 C60 151 66 146 73 146 L132 146 L91 14 C91 6 97 0 105 0 C112 0 118 4 119 11 L161 146 L361 146 L321 14 C321 6 327 0 335 0 C342 0 348 4 349 11 L391 146 Z " />
<glyph glyph-name="dollar" unicode="&#x24;" horiz-adv-x="489" d="M429 137 C429 212 345 241 262 268 L262 474 C305 474 356 470 390 463 C400 463 407 469 407 479 C407 487 403 493 396 495 C356 502 302 505 262 505 L262 543 C262 553 255 561 245 561 C235 561 227 553 227 543 L227 504 C126 500 64 466 64 376 C64 299 145 269 227 244 L227 26 C191 28 139 34 85 59 C83 60 80 61 77 61 C67 61 60 53 60 43 C60 36 63 31 68 28 C106 8 178 -2 227 -4 L227 -43 C227 -53 235 -61 245 -61 C255 -61 262 -53 262 -43 L262 -5 C343 -4 429 11 429 137 L429 137 Z M99 376 C99 431 119 468 227 473 L227 279 C158 301 99 325 99 376 L99 376 Z M262 26 L262 233 C332 212 394 189 394 137 C394 38 332 27 262 26 L262 26 Z " />
<glyph glyph-name="percent" unicode="&#x25;" horiz-adv-x="576" d="M148 274 C195 274 237 290 237 343 L237 431 C237 477 192 500 148 500 C104 500 60 477 60 431 L60 343 C60 290 101 274 148 274 L148 274 Z M148 475 C191 475 206 448 206 431 L206 343 C206 320 191 299 148 299 C105 299 92 320 92 343 L92 431 C92 448 105 475 148 475 L148 475 Z M428 -1 C475 -1 516 15 516 68 L516 156 C516 203 472 225 428 225 C384 225 340 203 340 156 L340 68 C340 15 381 -1 428 -1 L428 -1 Z M428 201 C471 201 486 173 486 156 L486 68 C486 45 471 25 428 25 C385 25 371 45 371 68 L371 156 C371 173 385 201 428 201 L428 201 Z M169 17 C169 7 177 0 187 0 C193 0 198 4 200 9 L406 483 C406 493 398 500 388 500 C382 500 377 496 375 491 L169 17 Z " />
<glyph glyph-name="ampersand" unicode="&#x26;" horiz-adv-x="521" d="M186 374 C186 445 187 474 263 474 C341 474 341 445 341 374 C341 315 286 284 221 258 C198 299 186 336 186 374 L186 374 Z M245 26 C139 26 95 27 95 124 C95 174 140 194 204 222 C236 182 279 141 313 109 L368 57 C318 32 281 26 245 26 L245 26 Z M426 3 C429 1 431 0 435 0 C444 0 451 7 451 16 C451 21 449 25 446 28 L414 59 C439 94 456 136 461 191 C461 201 453 209 443 209 C434 209 426 201 426 191 C422 150 408 111 390 80 C337 124 282 180 236 236 C315 266 376 310 376 374 C376 451 365 505 263 505 C160 505 151 451 151 374 C151 337 160 295 189 247 C119 219 60 189 60 124 C60 -5 152 -5 246 -5 C288 -5 342 -2 392 36 L426 3 Z " />
<glyph glyph-name="quotesingle" unicode="&#x27;" horiz-adv-x="153" d="M66 423 C66 417 70 413 76 413 C82 413 86 417 86 423 C87 443 86 438 93 519 C93 529 86 536 76 536 C67 536 60 529 60 519 C61 499 59 509 66 423 L66 423 Z " />
<glyph glyph-name="parenleft" unicode="&#x28;" horiz-adv-x="183" d="M89 -46 C91 -52 96 -58 104 -58 C114 -58 122 -49 122 -41 C105 50 95 171 95 253 C95 341 106 449 123 540 C123 550 115 558 105 558 C97 558 92 553 89 547 C70 453 60 341 60 253 C60 168 71 47 89 -46 L89 -46 Z " />
<glyph glyph-name="parenright" unicode="&#x29;" horiz-adv-x="183" d="M94 -46 C112 47 123 168 123 253 C123 341 113 453 94 547 C91 553 86 558 78 558 C68 558 60 550 60 540 C77 449 88 341 88 253 C88 171 78 50 61 -41 C61 -49 69 -58 79 -58 C87 -58 92 -52 94 -46 L94 -46 Z " />
<glyph glyph-name="asterisk" unicode="&#x2a;" horiz-adv-x="366" d="M183 388 L234 309 C238 304 243 301 250 301 C260 301 269 310 269 320 C269 325 267 329 264 333 L200 401 L295 422 C301 425 306 431 306 438 C306 448 298 458 289 458 L196 424 L201 518 C201 528 193 536 183 536 C173 536 165 528 165 518 L170 424 L77 458 C68 458 60 448 60 438 C60 431 65 425 71 422 L166 401 L102 333 C99 329 97 325 97 320 C97 310 106 301 116 301 C123 301 128 304 132 309 L183 388 Z " />
<glyph glyph-name="plus" unicode="&#x2b;" horiz-adv-x="480" d="M223 179 L223 32 C223 22 231 14 241 14 C251 14 258 22 258 32 L258 179 L406 179 C414 179 420 184 420 192 C420 200 414 206 406 206 L258 206 L258 352 C258 362 251 370 241 370 C231 370 223 362 223 352 L223 206 L74 206 C66 206 60 200 60 192 C60 184 66 179 74 179 L223 179 Z " />
<glyph glyph-name="comma" unicode="&#x2c;" horiz-adv-x="106" d="M30 -26 C30 -32 35 -37 41 -37 C47 -37 52 -33 53 -28 L76 41 C76 50 68 57 59 57 C51 57 46 52 44 45 L30 -26 Z " />
<glyph glyph-name="hyphen" unicode="&#x2d;" horiz-adv-x="373" d="M299 179 C307 179 313 184 313 192 C313 200 307 206 299 206 L74 206 C66 206 60 200 60 192 C60 184 66 179 74 179 L299 179 Z " />
<glyph glyph-name="period" unicode="&#x2e;" horiz-adv-x="155" d="M95 40 C95 50 87 57 78 57 C69 57 60 50 60 40 L60 17 C60 7 69 0 78 0 C87 0 95 7 95 17 L95 40 Z " />
<glyph glyph-name="slash" unicode="&#x2f;" horiz-adv-x="313" d="M253 541 C253 551 246 558 236 558 C230 558 224 553 222 546 C165 357 117 205 60 17 C60 7 67 0 77 0 C83 0 89 5 91 12 L253 541 Z " />
<glyph glyph-name="zero" unicode="0" horiz-adv-x="483" d="M241 505 C61 505 60 443 60 324 L60 176 C60 58 61 -5 241 -5 C421 -5 423 57 423 176 L423 324 C423 443 421 505 241 505 L241 505 Z M241 26 C95 26 95 63 95 178 L95 322 C95 437 95 474 241 474 C388 474 388 437 388 322 L388 178 C388 63 388 26 241 26 L241 26 Z " />
<glyph glyph-name="one" unicode="1" horiz-adv-x="269" d="M18 403 C13 399 10 393 10 387 C10 377 18 369 28 369 C32 369 36 371 39 373 C59 385 103 412 174 459 L174 18 C174 8 182 0 192 0 C202 0 209 8 209 18 L209 482 C209 492 200 500 190 500 C180 500 179 500 171 498 L18 403 Z " />
<glyph glyph-name="two" unicode="2" horiz-adv-x="394" d="M344 0 C353 0 360 6 360 15 C360 24 353 31 344 31 L91 31 C150 154 355 248 355 372 C355 431 355 505 198 505 C71 505 49 453 45 403 C45 393 52 386 62 386 C72 386 80 393 80 403 C83 445 101 474 199 474 C320 474 320 433 320 371 C320 270 81 138 55 40 C53 34 52 31 52 26 C52 12 64 0 78 0 L344 0 Z " />
<glyph glyph-name="three" unicode="3" horiz-adv-x="407" d="M200 237 C310 232 312 186 312 129 C312 67 312 26 191 26 C95 26 75 54 71 96 C71 106 63 114 53 114 C43 114 36 106 36 96 C40 45 63 -5 190 -5 C341 -5 347 69 347 130 C347 167 344 211 289 250 C343 290 346 334 346 372 C346 431 340 505 189 505 C65 505 40 453 35 403 C35 393 42 386 52 386 C62 386 70 393 70 403 C74 445 92 474 190 474 C311 474 311 433 311 371 C311 311 308 268 200 263 C193 263 187 257 187 250 C187 243 193 237 200 237 L200 237 Z " />
<glyph glyph-name="four" unicode="4" horiz-adv-x="390" d="M42 194 L259 472 L259 194 L42 194 Z M14 206 C11 202 10 197 10 191 C10 175 22 163 38 163 L259 163 L259 18 C259 8 267 0 277 0 C287 0 294 8 294 18 L294 163 L344 163 C353 163 360 169 360 178 C360 187 353 194 344 194 L294 194 L294 462 C294 483 277 500 256 500 C244 500 234 494 227 486 L14 206 Z " />
<glyph glyph-name="five" unicode="5" horiz-adv-x="416" d="M61 91 C66 41 91 -5 215 -5 C367 -5 372 81 372 143 C372 202 367 303 215 303 C175 303 141 303 95 275 L95 469 L338 469 C347 469 354 475 354 484 C354 493 347 500 338 500 L80 500 C69 500 60 491 60 480 L60 257 C60 244 71 233 84 233 C91 233 99 236 103 242 C124 268 180 272 212 272 L217 272 C337 272 337 202 337 142 C337 81 337 27 217 27 C121 27 100 51 96 91 C96 101 88 109 78 109 C68 109 61 101 61 91 L61 91 Z " />
<glyph glyph-name="six" unicode="6" horiz-adv-x="392" d="M329 495 C293 502 246 505 216 505 C117 505 50 470 50 363 L50 143 C50 81 55 -5 205 -5 C357 -5 362 81 362 143 C362 202 357 289 205 289 C162 289 121 282 85 256 L85 370 C85 454 139 474 215 474 C243 474 290 472 324 466 C333 466 339 472 339 480 C339 487 335 493 329 495 L329 495 Z M85 139 C85 203 85 257 207 257 C327 257 327 203 327 142 C327 81 327 26 207 26 C87 26 85 78 85 139 L85 139 Z " />
<glyph glyph-name="seven" unicode="7" horiz-adv-x="340" d="M278 469 L142 16 C142 8 150 0 158 0 C166 0 172 6 174 12 C311 458 313 464 313 464 C314 470 315 476 315 480 C315 491 306 500 295 500 L26 500 C17 500 10 493 10 484 C10 475 17 469 26 469 L278 469 Z " />
<glyph glyph-name="eight" unicode="8" horiz-adv-x="414" d="M364 130 C364 167 360 222 305 250 C359 272 362 334 362 372 C362 431 357 505 205 505 C55 505 50 431 50 372 C50 333 52 270 107 249 C53 220 51 167 51 130 C51 69 56 -5 207 -5 C358 -5 364 69 364 130 L364 130 Z M86 129 C86 191 86 234 208 234 C329 234 329 191 329 129 C329 67 329 26 208 26 C86 26 86 67 86 129 L86 129 Z M85 371 C85 433 85 474 207 474 C327 474 327 433 327 371 C327 309 327 266 207 266 C85 266 85 309 85 371 L85 371 Z " />
<glyph glyph-name="nine" unicode="9" horiz-adv-x="392" d="M307 361 C307 297 307 243 185 243 C65 243 65 297 65 358 C65 419 65 474 185 474 C305 474 307 422 307 361 L307 361 Z M67 34 C59 34 53 27 53 19 C53 12 58 6 64 5 C100 -2 146 -5 176 -5 C275 -5 342 30 342 137 L342 357 C342 419 337 505 187 505 C35 505 30 419 30 357 C30 298 35 211 187 211 C230 211 271 218 307 244 L307 130 C307 46 253 26 177 26 C148 26 101 28 67 34 L67 34 Z " />
<glyph glyph-name="colon" unicode="&#x3a;" horiz-adv-x="155" d="M95 40 C95 50 87 57 78 57 C69 57 60 50 60 40 L60 17 C60 7 69 0 78 0 C87 0 95 7 95 17 L95 40 Z M95 332 C95 342 87 349 78 349 C69 349 60 342 60 332 L60 309 C60 299 69 292 78 292 C87 292 95 299 95 309 L95 332 Z " />
<glyph glyph-name="semicolon" unicode="&#x3b;" horiz-adv-x="166" d="M105 332 C105 342 97 349 88 349 C79 349 70 342 70 332 L70 309 C70 299 79 292 88 292 C97 292 105 299 105 309 L105 332 Z M60 -26 C60 -32 65 -37 71 -37 C77 -37 82 -33 83 -28 L106 41 C106 50 98 57 89 57 C81 57 76 52 74 45 L60 -26 Z " />
<glyph glyph-name="less" unicode="&#x3c;" horiz-adv-x="431" d="M94 169 L94 183 L99 183 L362 297 C367 300 371 305 371 312 C371 321 364 328 355 328 L83 212 C69 206 60 192 60 176 C60 160 69 146 83 140 L355 24 C364 24 371 31 371 40 C371 47 367 52 362 55 L99 169 L94 169 Z " />
<glyph glyph-name="equal" unicode="&#x3d;" horiz-adv-x="373" d="M299 251 C307 251 313 256 313 264 C313 272 307 278 299 278 L74 278 C66 278 60 272 60 264 C60 256 66 251 74 251 L299 251 Z M299 95 C307 95 313 100 313 108 C313 116 307 122 299 122 L74 122 C66 122 60 116 60 108 C60 100 66 95 74 95 L299 95 Z " />
<glyph glyph-name="greater" unicode="&#x3e;" horiz-adv-x="431" d="M332 169 L69 55 C64 52 60 47 60 40 C60 31 67 24 76 24 L348 140 C362 146 371 160 371 176 C371 192 362 206 348 212 L76 328 C67 328 60 321 60 312 C60 305 64 300 69 297 L332 183 L337 183 L337 169 L332 169 Z " />
<glyph glyph-name="question" unicode="&#x3f;" horiz-adv-x="364" d="M166 40 C166 50 158 57 149 57 C140 57 131 50 131 40 L131 17 C131 7 140 0 149 0 C158 0 166 7 166 17 L166 40 Z M131 110 C131 100 138 93 148 93 C158 93 166 100 166 110 L166 204 C166 293 304 299 304 405 C304 480 254 505 164 505 C134 505 99 501 70 491 C64 489 60 482 60 475 C60 467 68 461 76 461 C99 470 127 474 162 474 C254 474 269 457 269 405 C269 309 131 311 131 205 L131 110 Z " />
<glyph glyph-name="at" unicode="&#x40;" horiz-adv-x="644" d="M206 275 C206 322 206 378 299 378 C386 378 411 335 411 290 L411 234 C411 187 411 123 308 123 C206 123 206 187 206 234 L206 275 Z M501 41 C470 27 428 26 382 26 L262 26 C172 26 95 52 95 133 L95 364 C95 420 149 474 262 474 L382 474 C495 474 549 420 549 364 L549 163 C549 116 525 116 497 116 C473 116 443 116 443 163 L443 394 C443 403 436 410 427 410 C418 410 411 403 411 394 L411 367 L405 367 C385 409 311 409 300 409 C183 409 173 345 173 275 L173 233 C173 163 186 93 308 93 C333 93 404 99 417 140 L422 140 C422 114 436 86 497 86 C562 86 584 105 584 157 L584 364 C584 461 476 505 382 505 L262 505 C168 505 60 461 60 364 L60 133 C60 26 161 -5 262 -5 L382 -5 C432 -5 477 -1 508 13 C513 15 516 19 516 25 C516 34 510 41 501 41 L501 41 Z " />
<glyph glyph-name="A" unicode="A" horiz-adv-x="418" d="M406 24 L243 474 C239 489 225 500 209 500 C193 500 179 489 175 474 L12 24 C11 22 10 18 10 16 C10 7 19 0 28 0 C36 0 42 5 45 11 L103 173 L315 173 L373 11 C376 5 382 0 390 0 C399 0 408 7 408 16 C408 18 407 22 406 24 L406 24 Z M115 204 L209 467 L303 204 L115 204 Z " />
<glyph glyph-name="B" unicode="B" horiz-adv-x="474" d="M394 366 C394 268 320 265 264 265 L95 265 L95 469 L264 469 C346 469 394 465 394 366 L394 366 Z M264 31 L95 31 L95 234 L264 234 C320 234 394 234 394 135 C394 36 345 31 264 31 L264 31 Z M60 20 C60 9 69 0 79 0 L265 0 C352 0 429 1 429 135 C429 185 417 220 372 247 C416 274 429 312 429 366 C429 500 352 500 265 500 L79 500 C69 500 60 491 60 480 L60 20 Z " />
<glyph glyph-name="C" unicode="C" horiz-adv-x="455" d="M405 38 C363 30 299 26 259 26 C150 26 85 69 85 167 L85 333 C85 431 150 474 259 474 C299 474 361 471 403 463 C412 463 418 468 418 477 C418 485 414 490 407 492 C361 501 299 505 261 505 C135 505 50 460 50 325 L50 174 C50 40 135 -5 261 -5 C299 -5 363 -1 409 8 C415 10 420 15 420 22 C420 30 413 38 405 38 L405 38 Z " />
<glyph glyph-name="D" unicode="D" horiz-adv-x="486" d="M227 469 C316 469 401 435 401 327 L401 173 C401 65 316 31 227 31 L95 31 L95 469 L227 469 Z M60 20 C60 9 69 0 79 0 L225 0 C351 0 436 45 436 181 L436 319 C436 455 351 500 225 500 L79 500 C69 500 60 491 60 480 L60 20 Z " />
<glyph glyph-name="E" unicode="E" horiz-adv-x="438" d="M60 20 C60 9 69 0 79 0 L369 0 C378 0 385 6 385 15 C385 24 378 31 369 31 L95 31 L95 234 L333 234 C342 234 349 240 349 249 C349 258 342 265 333 265 L95 265 L95 469 L369 469 C378 469 385 475 385 484 C385 493 378 500 369 500 L79 500 C69 500 60 491 60 480 L60 20 Z " />
<glyph glyph-name="F" unicode="F" horiz-adv-x="415" d="M79 500 C69 500 60 491 60 480 L60 18 C60 8 68 0 78 0 C88 0 95 8 95 18 L95 234 L333 234 C342 234 349 240 349 249 C349 258 342 265 333 265 L95 265 L95 469 L369 469 C378 469 385 475 385 484 C385 493 378 500 369 500 L79 500 Z " />
<glyph glyph-name="G" unicode="G" horiz-adv-x="473" d="M423 231 C423 242 414 251 404 251 L308 251 C299 251 292 244 292 235 C292 226 299 219 308 219 L388 219 L388 36 C336 28 290 26 259 26 C151 26 85 69 85 167 L85 333 C85 431 150 474 259 474 C298 474 361 471 404 463 C412 463 420 470 420 478 C420 485 414 491 408 493 C363 502 300 505 261 505 C135 505 50 460 50 325 L50 174 C50 40 135 -5 261 -5 C299 -5 362 -1 408 8 C417 10 423 17 423 27 L423 231 Z " />
<glyph glyph-name="H" unicode="H" horiz-adv-x="485" d="M60 18 C60 8 68 0 78 0 C88 0 95 8 95 18 L95 237 L390 237 L390 18 C390 8 398 0 408 0 C418 0 425 8 425 18 L425 482 C425 492 418 500 408 500 C398 500 390 492 390 482 L390 268 L95 268 L95 482 C95 492 88 500 78 500 C68 500 60 492 60 482 L60 18 Z " />
<glyph glyph-name="I" unicode="I" horiz-adv-x="155" d="M95 482 C95 492 88 500 78 500 C68 500 60 492 60 482 L60 18 C60 8 68 0 78 0 C88 0 95 8 95 18 L95 482 Z " />
<glyph glyph-name="J" unicode="J" horiz-adv-x="356" d="M10 89 C10 27 27 -5 146 -5 L160 -5 C276 -5 296 28 296 89 L296 482 C296 492 289 500 279 500 C269 500 261 492 261 482 L261 95 C261 27 228 26 153 26 C78 26 45 28 45 95 C45 105 38 113 28 113 C18 113 10 105 10 95 L10 89 Z " />
<glyph glyph-name="K" unicode="K" horiz-adv-x="469" d="M453 21 C388 127 328 223 264 329 L449 471 C452 474 454 478 454 482 C454 492 446 500 436 500 C434 500 431 499 428 498 C321 417 201 321 95 243 L95 482 C95 492 88 500 78 500 C68 500 60 492 60 482 L60 18 C60 8 68 0 78 0 C88 0 95 8 95 18 L95 201 L236 307 L423 8 C426 3 431 0 437 0 C446 0 454 8 454 17 C454 19 453 20 453 21 L453 21 Z " />
<glyph glyph-name="L" unicode="L" horiz-adv-x="390" d="M95 31 L95 482 C95 492 88 500 78 500 C68 500 60 492 60 482 L60 18 C60 8 68 0 78 0 L354 0 C363 0 370 6 370 15 C370 24 363 31 354 31 L95 31 Z " />
<glyph glyph-name="M" unicode="M" horiz-adv-x="606" d="M304 0 C319 0 330 4 338 25 L511 461 L511 18 C511 8 518 0 528 0 C538 0 546 8 546 18 L546 465 C546 485 532 500 513 500 C498 500 485 491 480 478 L303 30 L126 478 C121 491 108 500 93 500 C74 500 60 485 60 465 L60 18 C60 8 68 0 78 0 C88 0 95 8 95 18 L95 461 L268 25 C276 4 287 0 304 0 L304 0 Z " />
<glyph glyph-name="N" unicode="N" horiz-adv-x="502" d="M383 14 C389 6 399 0 410 0 C428 0 442 15 442 33 L442 482 C442 492 435 500 425 500 C415 500 407 492 407 482 L407 36 L119 486 C114 494 103 500 92 500 C74 500 60 485 60 467 L60 18 C60 8 68 0 78 0 C88 0 95 8 95 18 L95 460 L383 14 Z " />
<glyph glyph-name="O" unicode="O" horiz-adv-x="490" d="M247 505 C60 505 50 434 50 318 L50 175 C50 60 59 -5 247 -5 C431 -5 440 60 440 175 L440 318 C440 434 430 505 247 505 L247 505 Z M247 26 C100 26 85 63 85 178 L85 322 C85 437 100 474 247 474 C390 474 405 437 405 322 L405 178 C405 63 390 26 247 26 L247 26 Z " />
<glyph glyph-name="P" unicode="P" horiz-adv-x="435" d="M245 216 L95 216 L95 469 L245 469 C316 469 375 465 375 346 C375 217 315 216 245 216 L245 216 Z M60 18 C60 8 68 0 78 0 C88 0 95 8 95 18 L95 185 L246 185 C331 185 410 195 410 346 C410 496 331 500 246 500 L79 500 C69 500 60 491 60 480 L60 18 Z " />
<glyph glyph-name="Q" unicode="Q" horiz-adv-x="490" d="M247 26 C100 26 85 63 85 178 L85 322 C85 437 100 474 247 474 C390 474 405 437 405 322 L405 178 C405 63 390 26 247 26 L247 26 Z M232 -69 C232 -80 241 -89 252 -89 L316 -89 C324 -89 331 -82 331 -74 C331 -66 324 -59 316 -59 L275 -59 C274 -59 269 -59 267 -62 L267 -5 C431 0 440 64 440 175 L440 318 C440 434 430 505 247 505 C60 505 50 434 50 318 L50 175 C50 63 58 -1 232 -5 L232 -69 Z " />
<glyph glyph-name="R" unicode="R" horiz-adv-x="469" d="M260 216 L95 216 L95 469 L260 469 C316 469 389 465 389 346 C389 228 316 216 260 216 L260 216 Z M406 25 C386 89 370 135 351 198 C390 219 424 259 424 346 C424 496 347 500 261 500 L79 500 C69 500 60 491 60 480 L60 18 C60 8 68 0 78 0 C88 0 95 8 95 18 L95 185 L261 185 C276 185 297 185 317 192 L374 12 C376 5 383 0 390 0 C400 0 408 8 408 17 C408 20 407 23 406 25 L406 25 Z " />
<glyph glyph-name="S" unicode="S" horiz-adv-x="449" d="M65 59 C63 60 60 61 57 61 C47 61 40 53 40 43 C40 36 43 31 48 28 C92 5 182 -5 229 -5 C314 -5 409 4 409 137 C409 286 79 255 79 376 C79 436 103 474 235 474 C279 474 334 470 370 463 C380 463 387 469 387 479 C387 487 383 493 376 495 C333 503 273 505 232 505 C117 505 44 473 44 376 C44 221 374 257 374 137 C374 32 304 26 229 26 C195 26 132 28 65 59 L65 59 Z " />
<glyph glyph-name="T" unicode="T" horiz-adv-x="387" d="M176 18 C176 8 184 0 194 0 C204 0 211 8 211 18 L211 469 L356 469 C365 469 372 475 372 484 C372 493 365 500 356 500 L31 500 C22 500 15 493 15 484 C15 475 22 469 31 469 L176 469 L176 18 Z " />
<glyph glyph-name="U" unicode="U" horiz-adv-x="520" d="M460 482 C460 492 453 500 443 500 C433 500 425 492 425 482 L425 178 C425 63 406 26 262 26 C115 26 95 63 95 178 L95 482 C95 492 88 500 78 500 C68 500 60 492 60 482 L60 175 C60 67 67 -5 262 -5 C453 -5 460 67 460 175 L460 482 Z " />
<glyph glyph-name="V" unicode="V" horiz-adv-x="418" d="M209 0 C226 0 239 9 244 24 L408 482 C408 492 399 500 390 500 C382 500 375 495 373 488 L209 33 L45 488 C43 495 36 500 28 500 C19 500 10 492 10 482 L174 24 C179 9 192 0 209 0 L209 0 Z " />
<glyph glyph-name="W" unicode="W" horiz-adv-x="638" d="M319 356 L450 24 C456 10 469 0 485 0 C503 0 519 14 522 31 C552 199 574 315 603 482 C603 492 595 500 585 500 C576 500 570 494 568 486 L485 31 L345 388 C341 399 331 406 319 406 C307 406 297 399 293 388 L153 31 L70 486 C68 494 62 500 53 500 C43 500 35 492 35 482 C64 315 86 199 116 31 C119 14 135 0 153 0 C169 0 182 10 188 24 L319 356 Z " />
<glyph glyph-name="X" unicode="X" horiz-adv-x="440" d="M386 8 C389 3 395 0 401 0 C411 0 419 8 419 18 C419 22 417 26 415 29 L243 246 L422 475 C424 478 425 481 425 484 C425 493 418 500 409 500 C404 500 400 497 397 494 C339 421 279 347 220 274 C161 347 101 421 43 494 C40 497 36 500 31 500 C22 500 15 493 15 484 C15 481 16 478 18 475 L197 246 L25 29 C23 26 21 22 21 18 C21 8 29 0 39 0 C45 0 51 3 54 8 L220 219 L386 8 Z " />
<glyph glyph-name="Y" unicode="Y" horiz-adv-x="423" d="M211 248 L53 490 C50 495 44 500 38 500 C28 500 20 491 20 482 C20 478 21 475 23 472 L194 215 L194 18 C194 8 202 0 212 0 C222 0 229 8 229 18 L229 215 L400 472 C402 475 403 478 403 482 C403 491 395 500 385 500 C379 500 373 495 370 490 L211 248 Z " />
<glyph glyph-name="Z" unicode="Z" horiz-adv-x="435" d="M382 0 C391 0 398 7 398 15 C398 24 391 31 382 31 L61 31 L409 459 C413 463 415 470 415 476 C415 489 404 500 391 500 L35 500 C27 500 20 493 20 484 C20 476 27 469 35 469 L376 469 L27 42 C23 38 21 30 21 24 C21 11 32 0 45 0 L382 0 Z " />
<glyph glyph-name="bracketleft" unicode="&#x5b;" horiz-adv-x="215" d="M60 -38 C60 -49 69 -58 79 -58 L139 -58 C148 -58 155 -51 155 -42 C155 -33 148 -27 139 -27 L95 -27 L95 527 L139 527 C148 527 155 533 155 542 C155 551 148 558 139 558 L79 558 C69 558 60 549 60 538 L60 -38 Z " />
<glyph glyph-name="backslash" unicode="&#x5c;" horiz-adv-x="313" d="M222 12 C224 5 230 0 236 0 C246 0 253 7 253 17 C196 205 148 357 91 546 C89 553 83 558 77 558 C67 558 60 551 60 541 L222 12 Z " />
<glyph glyph-name="bracketright" unicode="&#x5d;" horiz-adv-x="215" d="M155 538 C155 549 146 558 136 558 L76 558 C67 558 60 551 60 542 C60 533 67 527 76 527 L120 527 L120 -27 L76 -27 C67 -27 60 -33 60 -42 C60 -51 67 -58 76 -58 L136 -58 C146 -58 155 -49 155 -38 L155 538 Z " />
<glyph glyph-name="asciicircum" unicode="&#x5e;" horiz-adv-x="324" d="M167 470 L234 273 C236 267 242 263 249 263 C257 263 264 270 264 278 L201 472 C196 488 180 500 162 500 C144 500 128 488 123 472 L60 278 C60 270 67 263 75 263 C82 263 88 267 90 273 L157 470 L157 474 L167 474 L167 470 Z " />
<glyph glyph-name="underscore" unicode="&#x5f;" horiz-adv-x="484" d="M410 -81 C418 -81 424 -76 424 -68 C424 -60 418 -54 410 -54 L74 -54 C66 -54 60 -60 60 -68 C60 -76 66 -81 74 -81 L410 -81 Z " />
<glyph glyph-name="grave" unicode="&#x60;" horiz-adv-x="173" d="M93 526 C90 532 84 536 77 536 C68 536 60 528 60 519 C73 479 77 465 91 424 C95 413 99 413 102 413 C108 413 113 418 113 424 L93 526 Z " />
<glyph glyph-name="a" unicode="a" horiz-adv-x="396" d="M70 117 C70 194 147 194 233 194 C249 194 285 194 316 190 L316 100 C280 60 234 27 170 27 C103 28 70 58 70 117 L70 117 Z M87 396 C81 394 74 388 74 381 C74 373 81 366 89 366 C90 366 93 367 94 367 C120 373 145 374 173 374 C273 374 316 347 316 264 L316 212 L312 212 C283 224 226 228 192 228 C115 228 35 202 35 115 C35 25 77 -5 171 -5 C220 -5 265 1 316 65 L316 17 C316 7 323 0 333 0 C343 0 351 7 351 17 L351 263 C351 373 284 405 183 405 C154 405 120 403 87 396 L87 396 Z " />
<glyph glyph-name="b" unicode="b" horiz-adv-x="421" d="M341 152 C341 77 341 27 217 27 C95 27 95 97 95 152 L95 264 C95 320 125 374 230 374 C341 374 341 325 341 247 L341 152 Z M95 41 C138 -5 186 -5 217 -5 C371 -5 376 65 376 151 L376 248 C376 334 376 405 230 405 C192 405 151 405 100 365 L95 365 L95 518 C95 528 87 536 77 536 C67 536 60 528 60 518 L60 18 C60 8 67 0 77 0 C87 0 95 8 95 18 L95 41 Z " />
<glyph glyph-name="c" unicode="c" horiz-adv-x="374" d="M323 35 C288 28 243 27 214 27 C136 27 80 48 80 132 L80 267 C80 352 136 374 214 374 C242 374 289 372 324 367 C333 367 339 372 339 381 C339 387 336 393 331 395 C294 403 246 405 215 405 C114 405 45 370 45 261 L45 139 C45 30 114 -5 215 -5 C244 -5 291 -3 328 3 C335 5 340 11 340 18 C340 28 333 35 323 35 L323 35 Z " />
<glyph glyph-name="d" unicode="d" horiz-adv-x="421" d="M80 247 C80 325 80 374 191 374 C296 374 326 320 326 264 L326 152 C326 97 326 27 204 27 C80 27 80 77 80 152 L80 247 Z M326 18 C326 8 334 0 344 0 C354 0 361 8 361 18 L361 518 C361 528 354 536 344 536 C334 536 326 528 326 518 L326 365 L321 365 C270 405 229 405 191 405 C45 405 45 334 45 248 L45 151 C45 65 50 -5 204 -5 C235 -5 283 -5 326 41 L326 18 Z " />
<glyph glyph-name="e" unicode="e" horiz-adv-x="406" d="M205 374 C312 374 326 334 326 273 L326 216 L80 216 C80 334 98 374 205 374 L205 374 Z M340 183 C352 183 361 192 361 204 L361 251 C361 353 341 405 205 405 C77 405 45 357 45 229 L45 139 C45 30 118 -5 218 -5 C248 -5 298 -2 335 4 C342 5 347 11 347 19 C347 28 340 35 331 35 C296 28 247 27 217 27 C140 27 80 47 80 132 L80 183 L340 183 Z " />
<glyph glyph-name="f" unicode="f" horiz-adv-x="238" d="M228 553 C203 558 184 558 176 558 C112 558 86 530 86 426 L86 400 L30 400 C21 400 15 393 15 384 C15 375 21 369 30 369 L86 369 L86 17 C86 7 93 0 103 0 C113 0 121 7 121 17 L121 369 L221 369 C230 369 236 375 236 384 C236 393 230 400 221 400 L121 400 L121 426 C121 509 127 526 185 526 C197 526 206 526 222 524 C231 524 238 530 238 538 C238 545 234 551 228 553 L228 553 Z " />
<glyph glyph-name="g" unicode="g" horiz-adv-x="420" d="M80 247 C80 323 80 374 190 374 C295 374 325 321 325 264 L325 153 C325 97 325 27 203 27 C80 27 80 76 80 153 L80 247 Z M85 -146 C76 -146 70 -153 70 -161 C70 -166 72 -173 79 -175 C116 -182 163 -184 194 -184 C294 -184 360 -161 360 -41 L360 382 C360 392 353 400 343 400 C333 400 325 392 325 382 L325 366 L320 366 C294 405 206 405 192 405 C45 405 45 335 45 248 L45 152 C45 66 49 -5 203 -5 C234 -5 289 -5 325 36 L325 -48 C325 -133 271 -152 195 -152 C167 -152 119 -151 85 -146 L85 -146 Z " />
<glyph glyph-name="h" unicode="h" horiz-adv-x="437" d="M342 18 C342 8 350 0 360 0 C370 0 377 8 377 18 L377 257 C377 341 345 405 228 405 C188 405 134 405 103 366 L95 366 L95 518 C95 528 88 536 78 536 C68 536 60 528 60 518 L60 18 C60 8 68 0 78 0 C88 0 95 8 95 18 L95 264 C95 340 126 374 224 374 C342 374 342 307 342 238 L342 18 Z " />
<glyph glyph-name="i" unicode="i" horiz-adv-x="155" d="M95 18 C95 8 88 0 78 0 C68 0 60 8 60 18 L60 382 C60 392 68 400 78 400 C88 400 95 392 95 382 L95 18 Z M95 498 C95 508 88 516 78 516 C68 516 60 508 60 498 L60 477 C60 467 68 459 78 459 C88 459 95 467 95 477 L95 498 Z " />
<glyph glyph-name="j" unicode="j" horiz-adv-x="155" d="M-80 -178 C-54 -184 -34 -184 -5 -184 C65 -184 95 -156 95 -48 L95 382 C95 392 88 400 78 400 C68 400 60 392 60 382 L60 -48 C60 -123 47 -152 -14 -152 C-43 -152 -56 -151 -76 -145 C-85 -145 -93 -152 -93 -162 C-93 -169 -87 -176 -80 -178 L-80 -178 Z M95 498 C95 508 88 516 78 516 C68 516 60 508 60 498 L60 477 C60 467 68 459 78 459 C88 459 95 467 95 477 L95 498 Z " />
<glyph glyph-name="k" unicode="k" horiz-adv-x="411" d="M267 274 L390 370 C394 373 396 378 396 383 C396 392 388 400 379 400 C375 400 372 399 369 397 L95 187 L95 518 C95 528 88 536 78 536 C68 536 60 528 60 518 L60 18 C60 8 68 0 78 0 C88 0 95 8 95 18 L95 145 L237 251 L362 9 C365 4 371 0 377 0 C387 0 396 8 396 17 C396 20 396 23 394 26 L267 274 Z " />
<glyph glyph-name="l" unicode="l" horiz-adv-x="155" d="M95 482 C95 492 88 500 78 500 C68 500 60 492 60 482 L60 18 C60 8 68 0 78 0 C88 0 95 8 95 18 L95 482 Z " />
<glyph glyph-name="m" unicode="m" horiz-adv-x="601" d="M95 382 C95 392 88 400 78 400 C68 400 60 392 60 382 L60 18 C60 8 68 0 78 0 C88 0 95 8 95 18 L95 265 C95 340 115 374 205 374 C281 374 298 302 298 235 L298 18 C298 8 306 0 316 0 C326 0 333 8 333 18 L333 254 C333 284 333 297 321 333 C374 374 406 374 434 374 C511 374 521 302 521 235 L521 18 C521 8 529 0 539 0 C549 0 556 8 556 18 L556 257 C556 342 527 405 435 405 C421 405 344 405 313 358 C288 391 253 405 210 405 C199 405 132 405 101 365 L97 365 L95 382 Z " />
<glyph glyph-name="n" unicode="n" horiz-adv-x="427" d="M95 382 C95 392 88 400 78 400 C68 400 60 392 60 382 L60 18 C60 8 68 0 78 0 C88 0 95 8 95 18 L95 264 C95 340 126 374 224 374 C342 374 342 307 342 238 L342 18 C342 8 350 0 360 0 C370 0 377 8 377 18 L377 257 C377 341 345 405 228 405 C188 405 134 405 103 366 L98 366 L95 382 Z " />
<glyph glyph-name="o" unicode="o" horiz-adv-x="406" d="M203 405 C45 405 45 334 45 248 L45 152 C45 66 45 -5 203 -5 C361 -5 361 66 361 152 L361 248 C361 334 361 405 203 405 L203 405 Z M326 153 C326 64 326 27 203 27 C80 27 80 64 80 153 L80 247 C80 339 80 374 203 374 C326 374 326 338 326 247 L326 153 Z " />
<glyph glyph-name="p" unicode="p" horiz-adv-x="420" d="M340 153 C340 76 340 27 217 27 C95 27 95 97 95 153 L95 264 C95 321 125 374 230 374 C340 374 340 323 340 247 L340 153 Z M60 -166 C60 -176 68 -184 78 -184 C88 -184 95 -176 95 -166 L95 36 C131 -5 186 -5 217 -5 C371 -5 375 66 375 152 L375 248 C375 335 375 405 228 405 C214 405 126 405 100 366 L95 366 L95 382 C95 392 88 400 78 400 C68 400 60 392 60 382 L60 -166 Z " />
<glyph glyph-name="q" unicode="q" horiz-adv-x="420" d="M80 247 C80 323 80 374 190 374 C295 374 325 321 325 264 L325 153 C325 97 325 27 203 27 C80 27 80 76 80 153 L80 247 Z M360 382 C360 392 352 400 342 400 C332 400 325 392 325 382 L325 366 L320 366 C294 405 206 405 192 405 C45 405 45 335 45 248 L45 152 C45 66 49 -5 203 -5 C234 -5 289 -5 325 36 L325 -166 C325 -176 332 -184 342 -184 C352 -184 360 -176 360 -166 L360 382 Z " />
<glyph glyph-name="r" unicode="r" horiz-adv-x="255" d="M234 400 C191 400 128 397 104 367 L98 367 L95 383 C95 393 87 400 77 400 C67 400 60 393 60 383 L60 17 C60 7 67 0 77 0 C87 0 95 7 95 17 L95 265 C95 340 125 368 223 368 L234 368 C243 368 250 375 250 384 C250 393 243 400 234 400 L234 400 Z " />
<glyph glyph-name="s" unicode="s" horiz-adv-x="367" d="M61 41 C52 41 45 34 45 24 C45 16 51 9 58 8 C96 0 148 -5 183 -5 C288 -5 327 24 327 107 C327 234 70 213 70 303 C70 356 96 374 187 374 C223 374 262 371 291 366 C299 366 306 372 306 380 C306 386 301 393 296 395 C262 402 217 405 185 405 C93 405 35 381 35 303 C35 183 292 202 292 107 C292 48 274 27 183 27 C156 27 99 31 61 41 L61 41 Z " />
<glyph glyph-name="t" unicode="t" horiz-adv-x="253" d="M216 0 C225 0 231 6 231 15 C231 25 225 32 216 32 L207 32 C135 32 131 52 131 113 L131 369 L216 369 C225 369 231 375 231 384 C231 393 225 400 216 400 L131 400 L131 507 C131 517 123 524 113 524 C103 524 96 517 96 507 L96 400 L30 400 C21 400 15 393 15 384 C15 375 21 369 30 369 L96 369 L96 113 C96 24 124 0 208 0 L216 0 Z " />
<glyph glyph-name="u" unicode="u" horiz-adv-x="422" d="M327 18 C327 8 335 0 345 0 C355 0 362 8 362 18 L362 382 C362 392 355 400 345 400 C335 400 327 392 327 382 L327 136 C327 60 296 26 198 26 C80 26 80 93 80 162 L80 382 C80 392 73 400 63 400 C53 400 45 392 45 382 L45 143 C45 59 77 -5 194 -5 C234 -5 288 -5 319 34 L324 34 L327 18 Z " />
<glyph glyph-name="v" unicode="v" horiz-adv-x="358" d="M179 0 C193 0 206 9 210 22 L348 383 C348 393 341 400 332 400 C324 400 316 396 314 390 L179 42 L44 390 C42 396 34 400 26 400 C17 400 10 393 10 383 L148 22 C152 9 165 0 179 0 L179 0 Z " />
<glyph glyph-name="w" unicode="w" horiz-adv-x="492" d="M333 25 C337 11 351 0 367 0 C384 0 398 13 401 29 L472 382 C472 392 464 400 454 400 C445 400 437 393 436 384 L367 38 L281 332 C278 348 263 361 246 361 C229 361 214 348 211 332 L125 38 L56 384 C55 393 47 400 38 400 C28 400 20 392 20 382 L91 29 C94 13 108 0 125 0 C141 0 155 11 159 25 L238 297 L254 297 L333 25 Z " />
<glyph glyph-name="x" unicode="x" horiz-adv-x="370" d="M185 168 L310 8 C313 3 318 0 325 0 C336 0 344 7 344 17 C344 20 343 23 342 26 L207 196 L348 376 C349 378 350 380 350 383 C350 392 342 400 333 400 C328 400 323 397 320 393 L185 223 L50 393 C47 397 42 400 37 400 C28 400 20 392 20 383 C20 380 21 378 22 376 L163 196 L28 26 C27 23 26 20 26 17 C26 7 34 0 45 0 C52 0 57 3 60 8 L185 168 Z " />
<glyph glyph-name="y" unicode="y" horiz-adv-x="373" d="M353 383 C353 392 346 400 337 400 C331 400 325 396 322 391 L192 42 L192 35 L181 35 L181 42 L51 391 C48 396 42 400 36 400 C27 400 20 392 20 383 C64 254 110 143 154 16 C155 9 163 3 170 3 C176 2 182 2 189 2 L189 -2 C183 -6 174 -14 167 -34 L118 -169 C118 -177 126 -184 135 -184 C142 -184 147 -179 149 -173 L353 383 Z " />
<glyph glyph-name="z" unicode="z" horiz-adv-x="383" d="M336 360 C340 364 342 370 342 376 C342 389 331 400 318 400 L56 400 C47 400 40 393 40 384 C40 375 47 368 56 368 L304 368 L47 40 C43 36 41 30 41 24 C41 11 52 0 65 0 L327 0 C336 0 343 7 343 16 C343 25 336 32 327 32 L85 32 C310 328 336 360 336 360 L336 360 Z " />
<glyph glyph-name="braceleft" unicode="&#x7b;" horiz-adv-x="298" d="M75 263 C67 263 60 258 60 249 C60 241 67 235 75 235 C112 231 127 214 127 134 L127 -17 C127 -32 139 -58 169 -58 L222 -58 C231 -58 238 -51 238 -42 C238 -33 231 -27 222 -27 L202 -27 C178 -27 162 -26 162 10 L162 141 C162 194 149 224 125 250 C148 278 162 313 162 367 L162 490 C162 526 178 527 202 527 L222 527 C231 527 238 533 238 542 C238 551 231 558 222 558 L169 558 C139 558 127 532 127 517 L127 367 C127 289 112 268 75 263 L75 263 Z " />
<glyph glyph-name="bar" unicode="&#x7c;" horiz-adv-x="155" d="M95 540 C95 550 88 558 78 558 C68 558 60 550 60 540 L60 -40 C60 -50 68 -58 78 -58 C88 -58 95 -50 95 -40 L95 540 Z " />
<glyph glyph-name="braceright" unicode="&#x7d;" horiz-adv-x="298" d="M223 263 C186 268 171 289 171 367 L171 517 C171 532 159 558 129 558 L76 558 C67 558 60 551 60 542 C60 533 67 527 76 527 L96 527 C120 527 136 526 136 490 L136 367 C136 313 150 278 173 250 C149 224 136 194 136 141 L136 10 C136 -26 120 -27 96 -27 L76 -27 C67 -27 60 -33 60 -42 C60 -51 67 -58 76 -58 L129 -58 C159 -58 171 -32 171 -17 L171 134 C171 214 186 231 223 235 C231 235 238 241 238 249 C238 258 231 263 223 263 L223 263 Z " />
<glyph glyph-name="asciitilde" unicode="&#x7e;" horiz-adv-x="465" d="M384 229 C367 217 355 214 330 214 C266 214 203 277 136 277 C110 277 86 273 64 259 C62 256 60 252 60 248 C60 240 66 234 74 234 C76 234 79 234 81 235 C97 247 110 250 136 250 C200 250 263 187 329 187 C357 187 380 192 400 205 C403 209 405 212 405 216 C405 224 399 230 391 230 C389 230 386 230 384 229 L384 229 Z " />
<glyph glyph-name="uni00A0" unicode="&#xa0;" horiz-adv-x="186" d="" />
<glyph glyph-name="exclamdown" unicode="&#xa1;" horiz-adv-x="160" d="M97 383 C97 393 89 400 80 400 C71 400 62 393 62 383 L62 360 C62 350 71 343 80 343 C89 343 97 350 97 360 L97 383 Z M63 293 C63 301 71 308 79 308 C86 308 94 301 94 293 C94 250 96 201 96 158 C97 70 98 5 100 -80 C100 -91 91 -100 80 -100 C69 -100 60 -91 60 -80 C62 4 62 71 62 159 C62 202 63 251 63 293 L63 293 Z " />
<glyph glyph-name="cent" unicode="&#xa2;" horiz-adv-x="415" d="M226 -5 L230 -5 C259 -5 306 -3 343 3 C350 5 355 11 355 18 C355 28 348 35 338 35 C303 28 258 27 229 27 C151 27 95 48 95 132 L95 267 C95 352 151 374 229 374 C257 374 304 372 339 367 C348 367 354 372 354 381 C354 387 351 393 346 395 C309 403 261 405 230 405 L226 405 L226 453 C226 463 219 471 209 471 C199 471 191 463 191 453 L191 403 C111 394 60 355 60 261 L60 139 C60 44 111 5 191 -3 L191 -55 C191 -65 199 -73 209 -73 C219 -73 226 -65 226 -55 L226 -5 Z " />
<glyph glyph-name="sterling" unicode="&#xa3;" horiz-adv-x="500" d="M307 499 C281 505 260 505 230 505 C160 505 130 477 130 369 L130 248 L74 248 C66 248 60 242 60 234 C60 226 66 221 74 221 L130 221 L130 18 C130 8 138 0 148 0 L424 0 C433 0 440 6 440 15 C440 24 433 31 424 31 L165 31 L165 221 L298 221 C306 221 312 226 312 234 C312 242 306 248 298 248 L165 248 L165 369 C165 444 178 473 239 473 C268 473 282 471 302 466 C312 466 319 473 319 482 C319 490 314 497 307 499 L307 499 Z " />
<glyph glyph-name="currency" unicode="&#xa4;" horiz-adv-x="486" d="M243 66 C278 66 315 81 348 109 L404 51 C406 49 409 47 413 47 C421 47 426 52 426 59 C426 63 424 67 422 69 L364 127 C379 156 388 185 388 210 C388 238 377 268 360 297 L422 359 C423 361 424 363 424 366 C424 373 418 379 411 379 C407 379 403 377 401 375 L343 315 C310 342 276 354 243 354 C210 354 176 342 143 315 L85 375 C83 377 79 379 75 379 C68 379 62 373 62 366 C62 363 63 361 64 359 L126 297 C109 268 98 238 98 210 C98 185 107 156 122 127 L64 69 C62 67 60 63 60 59 C60 52 65 47 73 47 C77 47 80 49 82 51 L138 109 C171 81 208 66 243 66 L243 66 Z M243 331 C311 331 364 280 364 212 C364 142 311 91 243 91 C175 91 122 142 122 212 C122 280 175 331 243 331 L243 331 Z " />
<glyph glyph-name="yen" unicode="&#xa5;" horiz-adv-x="503" d="M443 482 C443 491 435 500 425 500 C419 500 413 495 410 490 L251 248 L93 490 C90 495 84 500 78 500 C68 500 60 491 60 482 C60 478 61 475 63 472 L234 215 L139 215 C131 215 125 209 125 201 C125 193 131 188 139 188 L234 188 L234 123 L139 123 C131 123 125 117 125 109 C125 101 131 96 139 96 L234 96 L234 18 C234 8 242 0 252 0 C262 0 269 8 269 18 L269 96 L363 96 C371 96 377 101 377 109 C377 117 371 123 363 123 L269 123 L269 188 L363 188 C371 188 377 193 377 201 C377 209 371 215 363 215 L269 215 L440 472 C442 475 443 478 443 482 L443 482 Z " />
<glyph glyph-name="brokenbar" unicode="&#xa6;" horiz-adv-x="155" d="M95 540 C95 550 88 558 78 558 C68 558 60 550 60 540 L60 337 C60 327 68 319 78 319 C88 319 95 327 95 337 L95 540 Z M95 163 C95 173 88 181 78 181 C68 181 60 173 60 163 L60 -40 C60 -50 68 -58 78 -58 C88 -58 95 -50 95 -40 L95 163 Z " />
<glyph glyph-name="section" unicode="&#xa7;" horiz-adv-x="517" d="M212 315 C278 315 422 293 422 223 C422 164 404 143 313 143 C240 143 95 190 95 244 C95 297 121 315 212 315 L212 315 Z M86 -18 C77 -18 70 -25 70 -34 C70 -41 75 -47 81 -50 C119 -59 172 -64 208 -64 C313 -64 352 -35 352 48 C352 75 340 95 322 111 C420 112 457 142 457 223 C457 350 200 329 200 419 C200 472 226 490 317 490 C353 490 393 487 422 482 C430 482 436 489 436 497 C436 504 431 510 425 511 C391 518 346 521 315 521 C223 521 165 497 165 419 C165 386 184 363 210 346 C118 346 60 322 60 244 C60 124 317 143 317 48 C317 -11 299 -32 208 -32 C181 -32 124 -28 86 -18 L86 -18 Z " />
<glyph glyph-name="dieresis" unicode="&#xa8;" horiz-adv-x="341" d="M95 519 C95 529 87 536 78 536 C69 536 60 529 60 519 L60 508 C60 498 69 491 78 491 C87 491 95 498 95 508 L95 519 Z M281 519 C281 529 273 536 264 536 C255 536 246 529 246 519 L246 508 C246 498 255 491 264 491 C273 491 281 498 281 508 L281 519 Z " />
<glyph glyph-name="copyright" unicode="&#xa9;" horiz-adv-x="630" d="M315 505 C174 505 60 391 60 250 C60 109 174 -5 315 -5 C456 -5 570 109 570 250 C570 391 456 505 315 505 L315 505 Z M315 31 C194 31 96 129 96 250 C96 371 194 469 315 469 C436 469 534 371 534 250 C534 129 436 31 315 31 L315 31 Z M398 130 C407 130 414 123 414 114 C414 108 409 101 403 99 C375 93 336 90 312 90 C232 90 180 118 180 204 L180 292 C180 378 232 406 312 406 C335 406 374 403 402 397 C409 395 414 388 414 381 C414 373 407 366 398 366 C373 371 333 373 311 373 C244 373 218 345 218 295 L218 201 C218 151 244 123 311 123 C333 123 373 125 398 130 L398 130 Z " />
<glyph glyph-name="ordfeminine" unicode="&#xaa;" horiz-adv-x="359" d="M166 239 C99 239 92 277 92 311 C92 355 154 361 207 361 C217 361 261 361 268 360 L268 285 C248 261 205 239 166 239 L166 239 Z M96 511 C90 509 86 504 86 497 C86 489 92 483 100 483 C121 489 144 492 166 492 C212 492 268 479 268 412 L268 377 L254 377 C234 386 203 387 178 387 C119 387 60 378 60 310 C60 238 91 214 165 214 C201 214 248 228 268 256 L268 233 C268 224 274 218 283 218 C292 218 299 224 299 233 L299 411 C299 495 249 521 172 521 C149 521 120 517 96 511 L96 511 Z " />
<glyph glyph-name="guillemotleft" unicode="&#xab;" horiz-adv-x="448" d="M188 28 C152 91 132 144 95 207 L84 207 L84 220 L95 220 C133 287 149 332 188 399 C189 402 190 405 190 408 C190 419 182 427 171 427 C164 427 159 425 156 420 L67 250 C60 233 60 228 60 214 C60 203 60 195 67 177 L156 7 C159 2 164 0 171 0 C182 0 190 8 190 19 C190 22 189 25 188 28 L188 28 Z M386 28 C350 91 330 144 293 207 L282 207 L282 220 L293 220 C331 287 347 332 386 399 C387 402 388 405 388 408 C388 419 380 427 369 427 C362 427 357 425 354 420 L265 250 C258 233 258 228 258 214 C258 203 258 195 265 177 L354 7 C357 2 362 0 369 0 C380 0 388 8 388 19 C388 22 387 25 386 28 L386 28 Z " />
<glyph glyph-name="logicalnot" unicode="&#xac;" horiz-adv-x="454" d="M394 210 C394 220 387 228 377 228 L74 228 C66 228 60 222 60 214 C60 206 66 201 74 201 L359 201 L359 78 C359 68 367 60 377 60 C387 60 394 68 394 78 L394 210 Z " />
<glyph glyph-name="uni00AD" unicode="&#xad;" horiz-adv-x="513" d="" />
<glyph glyph-name="registered" unicode="&#xae;" horiz-adv-x="630" d="M315 505 C174 505 60 391 60 250 C60 109 174 -5 315 -5 C456 -5 570 109 570 250 C570 391 456 505 315 505 L315 505 Z M315 31 C194 31 96 129 96 250 C96 371 194 469 315 469 C436 469 534 371 534 250 C534 129 436 31 315 31 L315 31 Z M320 235 L242 235 L242 370 L320 370 C352 370 400 370 400 307 C400 235 352 235 320 235 L320 235 Z M392 207 C414 220 438 252 438 307 C438 387 390 403 335 403 L223 403 C213 403 204 394 204 384 L204 124 C204 114 213 105 223 105 C233 105 242 114 242 124 L242 202 L358 202 L389 117 C391 110 398 105 405 105 C415 105 423 113 423 122 C423 125 422 127 421 129 L392 207 Z " />
<glyph glyph-name="macron" unicode="&#xaf;" horiz-adv-x="455" d="M381 464 C389 464 395 469 395 477 C395 485 389 491 381 491 L74 491 C66 491 60 485 60 477 C60 469 66 464 74 464 L381 464 Z " />
<glyph glyph-name="degree" unicode="&#xb0;" horiz-adv-x="313" d="M157 521 C104 521 60 478 60 424 C60 370 104 328 157 328 C210 328 253 370 253 424 C253 478 210 521 157 521 L157 521 Z M157 362 C123 362 94 389 94 424 C94 459 123 487 157 487 C191 487 219 459 219 424 C219 389 191 362 157 362 L157 362 Z " />
<glyph glyph-name="plusminus" unicode="&#xb1;" horiz-adv-x="480" d="M223 246 L223 99 C223 89 231 81 241 81 C251 81 258 89 258 99 L258 246 L406 246 C414 246 420 251 420 259 C420 267 414 273 406 273 L258 273 L258 419 C258 429 251 437 241 437 C231 437 223 429 223 419 L223 273 L74 273 C66 273 60 267 60 259 C60 251 66 246 74 246 L223 246 Z M406 0 C414 0 420 5 420 13 C420 21 414 27 406 27 L74 27 C66 27 60 21 60 13 C60 5 66 0 74 0 L406 0 Z " />
<glyph glyph-name="twosuperior" unicode="&#xb2;" horiz-adv-x="325" d="M250 218 C258 218 265 224 265 232 C265 240 258 247 250 247 L98 247 C121 304 265 360 265 437 C265 474 256 521 162 521 C79 521 63 483 60 449 C60 441 67 434 75 434 C84 434 91 441 91 449 C96 472 114 492 162 492 C220 492 234 464 234 436 C234 371 85 328 65 253 C63 246 62 241 62 236 C62 226 70 218 80 218 L250 218 Z " />
<glyph glyph-name="threesuperior" unicode="&#xb3;" horiz-adv-x="322" d="M162 383 C155 383 150 378 150 371 C150 364 155 359 162 359 C226 356 231 332 231 300 C231 266 225 247 159 247 C108 247 95 259 92 280 C92 289 85 296 76 296 C67 296 61 289 61 280 C63 249 78 218 160 218 C259 218 262 264 262 300 C262 322 254 350 226 370 C254 392 262 418 262 441 C262 476 258 521 158 521 C74 521 62 486 60 455 C61 448 67 444 75 444 C84 444 91 450 91 459 C93 480 105 492 158 492 C224 492 231 474 231 440 C231 408 223 386 162 383 L162 383 Z " />
<glyph glyph-name="acute" unicode="&#xb4;" horiz-adv-x="176" d="M60 426 C60 418 65 413 73 413 C81 413 86 417 88 423 C102 464 103 477 116 517 C116 527 106 536 96 536 C88 536 80 530 78 522 L60 426 Z " />
<glyph glyph-name="mu" unicode="&#xb5;" horiz-adv-x="437" d="M343 11 C345 4 351 0 359 0 C369 0 377 7 377 17 L377 382 C377 391 369 400 359 400 C349 400 342 391 342 382 L342 136 C342 60 311 26 213 26 C95 26 95 93 95 162 L95 382 C95 391 87 400 77 400 C67 400 60 391 60 382 L60 -162 C60 -171 67 -180 77 -180 C87 -180 95 -171 95 -162 L95 33 L100 33 C123 9 154 -5 209 -5 C249 -5 303 -5 334 34 L339 34 L343 11 Z " />
<glyph glyph-name="paragraph" unicode="&#xb6;" horiz-adv-x="488" d="M428 500 C428 509 420 518 410 518 L227 518 C135 505 60 425 60 329 C60 232 139 152 242 139 L242 -165 C242 -174 249 -183 259 -183 C269 -183 277 -174 277 -165 L277 488 L393 488 L393 -165 C393 -174 400 -183 410 -183 C420 -183 428 -174 428 -165 L428 500 Z " />
<glyph glyph-name="periodcentered" unicode="&#xb7;" horiz-adv-x="215" d="M60 171 C60 144 81 123 107 123 C134 123 155 144 155 171 C155 197 134 218 107 218 C81 218 60 197 60 171 L60 171 Z " />
<glyph glyph-name="cedilla" unicode="&#xb8;" horiz-adv-x="176" d="M116 -67 C116 -59 109 -53 101 -53 C95 -53 90 -57 88 -62 C74 -103 73 -117 60 -157 C60 -167 69 -176 79 -176 C89 -176 98 -169 99 -160 L116 -67 Z " />
<glyph glyph-name="onesuperior" unicode="&#xb9;" horiz-adv-x="244" d="M153 485 L153 233 C153 224 159 218 168 218 C177 218 184 224 184 233 L184 503 C184 513 176 521 166 521 C162 521 159 521 153 519 L66 463 C62 460 60 455 60 450 C60 442 67 435 75 435 C78 435 81 436 84 438 L153 485 Z " />
<glyph glyph-name="ordmasculine" unicode="&#xba;" horiz-adv-x="390" d="M195 526 C120 526 60 466 60 391 C60 316 120 256 195 256 C270 256 330 316 330 391 C330 466 270 526 195 526 L195 526 Z M195 303 C146 303 107 342 107 391 C107 440 146 479 195 479 C244 479 283 440 283 391 C283 342 244 303 195 303 L195 303 Z " />
<glyph glyph-name="guillemotright" unicode="&#xbb;" horiz-adv-x="448" d="M260 28 C259 25 258 22 258 19 C258 8 266 0 277 0 C284 0 289 2 292 7 L381 177 C388 195 388 203 388 214 C388 228 388 233 381 250 L292 420 C289 425 284 427 277 427 C266 427 258 419 258 408 C258 405 259 402 260 399 C299 332 315 287 353 220 L364 220 L364 207 L353 207 C316 144 296 91 260 28 L260 28 Z M62 28 C61 25 60 22 60 19 C60 8 68 0 79 0 C86 0 91 2 94 7 L183 177 C190 195 190 203 190 214 C190 228 190 233 183 250 L94 420 C91 425 86 427 79 427 C68 427 60 419 60 408 C60 405 61 402 62 399 C101 332 117 287 155 220 L166 220 L166 207 L155 207 C118 144 98 91 62 28 L62 28 Z " />
<glyph glyph-name="onequarter" unicode="&#xbc;" horiz-adv-x="559" d="M341 124 L431 267 L431 124 L341 124 Z M403 477 C404 479 404 482 404 484 C404 493 397 500 388 500 C382 500 377 496 374 491 L163 17 C163 9 166 0 177 0 C184 0 189 2 191 8 L403 477 Z M153 464 L153 212 C153 203 159 197 168 197 C177 197 184 203 184 212 L184 482 C184 492 176 500 166 500 C162 500 159 500 153 498 L66 442 C62 439 60 434 60 429 C60 421 67 414 75 414 C78 414 81 415 84 417 L153 464 Z M308 131 C304 127 302 122 302 116 C302 104 311 95 323 95 L431 95 L431 15 C431 6 437 0 446 0 C455 0 462 6 462 15 L462 95 L484 95 C492 95 499 101 499 109 C499 117 492 124 484 124 L462 124 L462 275 C462 291 450 303 434 303 C425 303 417 298 412 291 L308 131 Z " />
<glyph glyph-name="onehalf" unicode="&#xbd;" horiz-adv-x="614" d="M403 477 C404 479 404 482 404 484 C404 493 397 500 388 500 C382 500 377 496 374 491 L163 17 C163 9 166 0 177 0 C184 0 189 2 191 8 L403 477 Z M153 464 L153 212 C153 203 159 197 168 197 C177 197 184 203 184 212 L184 482 C184 492 176 500 166 500 C162 500 159 500 153 498 L66 442 C62 439 60 434 60 429 C60 421 67 414 75 414 C78 414 81 415 84 417 L153 464 Z M539 0 C547 0 554 6 554 14 C554 22 547 29 539 29 L387 29 C410 86 554 142 554 219 C554 256 545 303 451 303 C368 303 352 265 349 231 C349 223 356 216 364 216 C373 216 380 223 380 231 C385 254 403 274 451 274 C509 274 523 246 523 218 C523 153 374 110 354 35 C352 28 351 23 351 18 C351 8 359 0 369 0 L539 0 Z " />
<glyph glyph-name="threequarters" unicode="&#xbe;" horiz-adv-x="601" d="M383 124 L473 267 L473 124 L383 124 Z M445 477 C446 479 446 482 446 484 C446 493 439 500 430 500 C424 500 419 496 416 491 L205 17 C205 9 208 0 219 0 C226 0 231 2 233 8 L445 477 Z M350 131 C346 127 344 122 344 116 C344 104 353 95 365 95 L473 95 L473 15 C473 6 479 0 488 0 C497 0 504 6 504 15 L504 95 L526 95 C534 95 541 101 541 109 C541 117 534 124 526 124 L504 124 L504 275 C504 291 492 303 476 303 C467 303 459 298 454 291 L350 131 Z M162 367 C155 367 150 362 150 355 C150 348 155 343 162 343 C226 340 231 316 231 284 C231 250 225 231 159 231 C108 231 95 243 92 264 C92 273 85 280 76 280 C67 280 61 273 61 264 C63 233 78 202 160 202 C259 202 262 248 262 284 C262 306 254 334 226 354 C254 376 262 402 262 425 C262 460 258 505 158 505 C74 505 62 470 60 439 C61 432 67 428 75 428 C84 428 91 434 91 443 C93 464 105 476 158 476 C224 476 231 458 231 424 C231 392 223 370 162 367 L162 367 Z " />
<glyph glyph-name="questiondown" unicode="&#xbf;" horiz-adv-x="364" d="M198 465 C198 455 206 448 215 448 C224 448 233 455 233 465 L233 488 C233 498 224 505 215 505 C206 505 198 498 198 488 L198 465 Z M233 395 C233 405 226 412 216 412 C206 412 198 405 198 395 L198 301 C198 212 60 206 60 100 C60 25 110 0 200 0 C230 0 265 4 294 14 C300 16 304 23 304 30 C304 38 296 44 288 44 C265 35 237 31 202 31 C110 31 95 48 95 100 C95 196 233 194 233 300 L233 395 Z " />
<glyph glyph-name="Agrave" unicode="&#xc0;" horiz-adv-x="418" d="M406 24 L243 474 C239 489 225 500 209 500 C193 500 179 489 175 474 L12 24 C11 22 10 18 10 16 C10 7 19 0 28 0 C36 0 42 5 45 11 L103 173 L315 173 L373 11 C376 5 382 0 390 0 C399 0 408 7 408 16 C408 18 407 22 406 24 L406 24 Z M115 204 L209 467 L303 204 L115 204 Z M203 659 C201 667 193 673 185 673 C175 673 165 664 165 654 C178 614 179 601 193 560 C195 554 200 550 208 550 C216 550 221 555 221 563 L203 659 Z " />
<glyph glyph-name="Aacute" unicode="&#xc1;" horiz-adv-x="418" d="M406 24 L243 474 C239 489 225 500 209 500 C193 500 179 489 175 474 L12 24 C11 22 10 18 10 16 C10 7 19 0 28 0 C36 0 42 5 45 11 L103 173 L315 173 L373 11 C376 5 382 0 390 0 C399 0 408 7 408 16 C408 18 407 22 406 24 L406 24 Z M115 204 L209 467 L303 204 L115 204 Z M198 563 C198 555 203 550 211 550 C219 550 224 554 226 560 C240 601 241 614 254 654 C254 664 244 673 234 673 C226 673 218 667 216 659 L198 563 Z " />
<glyph glyph-name="Acircumflex" unicode="&#xc2;" horiz-adv-x="418" d="M406 24 L243 474 C239 489 225 500 209 500 C193 500 179 489 175 474 L12 24 C11 22 10 18 10 16 C10 7 19 0 28 0 C36 0 42 5 45 11 L103 173 L315 173 L373 11 C376 5 382 0 390 0 C399 0 408 7 408 16 C408 18 407 22 406 24 L406 24 Z M115 204 L209 467 L303 204 L115 204 Z M247 561 C249 555 255 550 263 550 C273 550 281 557 281 570 L238 667 C233 678 222 685 209 685 C196 685 185 678 180 667 L137 570 C137 557 145 550 155 550 C163 550 169 555 171 561 L209 655 L247 561 Z " />
<glyph glyph-name="Atilde" unicode="&#xc3;" horiz-adv-x="418" d="M406 24 L243 474 C239 489 225 500 209 500 C193 500 179 489 175 474 L12 24 C11 22 10 18 10 16 C10 7 19 0 28 0 C36 0 42 5 45 11 L103 173 L315 173 L373 11 C376 5 382 0 390 0 C399 0 408 7 408 16 C408 18 407 22 406 24 L406 24 Z M115 204 L209 467 L303 204 L115 204 Z M93 582 C90 580 88 576 88 572 C88 565 93 560 100 560 C103 560 106 561 108 563 C124 573 138 578 162 578 C196 578 221 550 255 550 C282 550 305 556 326 570 C329 572 331 576 331 580 C331 588 325 594 317 594 C314 594 312 593 310 592 C294 581 281 577 256 577 C220 577 195 605 162 605 C136 605 114 596 93 582 L93 582 Z " />
<glyph glyph-name="Adieresis" unicode="&#xc4;" horiz-adv-x="418" d="M406 24 L243 474 C239 489 225 500 209 500 C193 500 179 489 175 474 L12 24 C11 22 10 18 10 16 C10 7 19 0 28 0 C36 0 42 5 45 11 L103 173 L315 173 L373 11 C376 5 382 0 390 0 C399 0 408 7 408 16 C408 18 407 22 406 24 L406 24 Z M115 204 L209 467 L303 204 L115 204 Z M182 578 C182 588 174 595 165 595 C156 595 147 588 147 578 L147 567 C147 557 156 550 165 550 C174 550 182 557 182 567 L182 578 Z M271 578 C271 588 263 595 254 595 C245 595 236 588 236 578 L236 567 C236 557 245 550 254 550 C263 550 271 557 271 567 L271 578 Z " />
<glyph glyph-name="Aring" unicode="&#xc5;" horiz-adv-x="418" d="M209 703 C166 703 132 669 132 627 C132 584 166 550 209 550 C251 550 285 584 285 627 C285 669 251 703 209 703 L209 703 Z M209 583 C184 583 165 602 165 627 C165 651 184 671 209 671 C233 671 253 651 253 627 C253 602 233 583 209 583 L209 583 Z M406 24 L243 474 C239 489 225 500 209 500 C193 500 179 489 175 474 L12 24 C11 22 10 18 10 16 C10 7 19 0 28 0 C36 0 42 5 45 11 L103 173 L315 173 L373 11 C376 5 382 0 390 0 C399 0 408 7 408 16 C408 18 407 22 406 24 L406 24 Z M115 204 L209 467 L303 204 L115 204 Z " />
<glyph glyph-name="AE" unicode="&#xc6;" horiz-adv-x="695" d="M151 204 L317 479 L317 204 L151 204 Z M305 500 C296 500 288 495 284 488 L3 29 C1 26 0 22 0 18 C0 8 8 0 18 0 C26 0 32 4 35 10 C68 66 101 118 135 173 L317 173 L317 20 C317 9 326 0 336 0 L626 0 C635 0 642 6 642 15 C642 24 635 31 626 31 L352 31 L352 234 L590 234 C599 234 606 240 606 249 C606 258 599 265 590 265 L352 265 L352 469 L626 469 C635 469 642 475 642 484 C642 493 635 500 626 500 L305 500 Z " />
<glyph glyph-name="Ccedilla" unicode="&#xc7;" horiz-adv-x="455" d="M405 38 C363 30 299 26 259 26 C150 26 85 69 85 167 L85 333 C85 431 150 474 259 474 C299 474 361 471 403 463 C412 463 418 468 418 477 C418 485 414 490 407 492 C361 501 299 505 261 505 C135 505 50 460 50 325 L50 174 C50 40 135 -5 261 -5 C299 -5 363 -1 409 8 C415 10 420 15 420 22 C420 30 413 38 405 38 L405 38 Z M259 -160 C258 -169 249 -176 239 -176 C229 -176 220 -167 220 -157 C233 -117 234 -103 248 -62 C250 -57 255 -53 261 -53 C269 -53 276 -59 276 -67 L259 -160 Z " />
<glyph glyph-name="Egrave" unicode="&#xc8;" horiz-adv-x="438" d="M60 20 C60 9 69 0 79 0 L369 0 C378 0 385 6 385 15 C385 24 378 31 369 31 L95 31 L95 234 L333 234 C342 234 349 240 349 249 C349 258 342 265 333 265 L95 265 L95 469 L369 469 C378 469 385 475 385 484 C385 493 378 500 369 500 L79 500 C69 500 60 491 60 480 L60 20 Z M217 659 C215 667 207 673 199 673 C189 673 179 664 179 654 C192 614 193 601 207 560 C209 554 214 550 222 550 C230 550 235 555 235 563 L217 659 Z " />
<glyph glyph-name="Eacute" unicode="&#xc9;" horiz-adv-x="438" d="M60 20 C60 9 69 0 79 0 L369 0 C378 0 385 6 385 15 C385 24 378 31 369 31 L95 31 L95 234 L333 234 C342 234 349 240 349 249 C349 258 342 265 333 265 L95 265 L95 469 L369 469 C378 469 385 475 385 484 C385 493 378 500 369 500 L79 500 C69 500 60 491 60 480 L60 20 Z M215 563 C215 555 220 550 228 550 C236 550 241 554 243 560 C257 601 258 614 271 654 C271 664 261 673 251 673 C243 673 235 667 233 659 L215 563 Z " />
<glyph glyph-name="Ecircumflex" unicode="&#xca;" horiz-adv-x="438" d="M60 20 C60 9 69 0 79 0 L369 0 C378 0 385 6 385 15 C385 24 378 31 369 31 L95 31 L95 234 L333 234 C342 234 349 240 349 249 C349 258 342 265 333 265 L95 265 L95 469 L369 469 C378 469 385 475 385 484 C385 493 378 500 369 500 L79 500 C69 500 60 491 60 480 L60 20 Z M262 561 C264 555 270 550 278 550 C288 550 296 557 296 570 L253 667 C248 678 237 685 224 685 C211 685 200 678 195 667 L152 570 C152 557 160 550 170 550 C178 550 184 555 186 561 L224 655 L262 561 Z " />
<glyph glyph-name="Edieresis" unicode="&#xcb;" horiz-adv-x="438" d="M60 20 C60 9 69 0 79 0 L369 0 C378 0 385 6 385 15 C385 24 378 31 369 31 L95 31 L95 234 L333 234 C342 234 349 240 349 249 C349 258 342 265 333 265 L95 265 L95 469 L369 469 C378 469 385 475 385 484 C385 493 378 500 369 500 L79 500 C69 500 60 491 60 480 L60 20 Z M150 578 C150 588 142 595 133 595 C124 595 115 588 115 578 L115 567 C115 557 124 550 133 550 C142 550 150 557 150 567 L150 578 Z M336 578 C336 588 328 595 319 595 C310 595 301 588 301 578 L301 567 C301 557 310 550 319 550 C328 550 336 557 336 567 L336 578 Z " />
<glyph glyph-name="Igrave" unicode="&#xcc;" horiz-adv-x="155" d="M95 482 C95 492 88 500 78 500 C68 500 60 492 60 482 L60 18 C60 8 68 0 78 0 C88 0 95 8 95 18 L95 482 Z M69 659 C67 667 59 673 51 673 C41 673 31 664 31 654 C44 614 45 601 59 560 C61 554 66 550 74 550 C82 550 87 555 87 563 L69 659 Z " />
<glyph glyph-name="Iacute" unicode="&#xcd;" horiz-adv-x="155" d="M95 482 C95 492 88 500 78 500 C68 500 60 492 60 482 L60 18 C60 8 68 0 78 0 C88 0 95 8 95 18 L95 482 Z M67 563 C67 555 72 550 80 550 C88 550 93 554 95 560 C109 601 110 614 123 654 C123 664 113 673 103 673 C95 673 87 667 85 659 L67 563 Z " />
<glyph glyph-name="Icircumflex" unicode="&#xce;" horiz-adv-x="155" d="M95 482 C95 492 88 500 78 500 C68 500 60 492 60 482 L60 18 C60 8 68 0 78 0 C88 0 95 8 95 18 L95 482 Z M116 561 C118 555 124 550 132 550 C142 550 150 557 150 570 L107 667 C102 678 91 685 78 685 C65 685 54 678 49 667 L6 570 C6 557 14 550 24 550 C32 550 38 555 40 561 L78 655 L116 561 Z " />
<glyph glyph-name="Idieresis" unicode="&#xcf;" horiz-adv-x="155" d="M95 482 C95 492 88 500 78 500 C68 500 60 492 60 482 L60 18 C60 8 68 0 78 0 C88 0 95 8 95 18 L95 482 Z M60 578 C60 588 52 595 43 595 C34 595 25 588 25 578 L25 567 C25 557 34 550 43 550 C52 550 60 557 60 567 L60 578 Z M130 578 C130 588 122 595 113 595 C104 595 95 588 95 578 L95 567 C95 557 104 550 113 550 C122 550 130 557 130 567 L130 578 Z " />
<glyph glyph-name="Eth" unicode="&#xd0;" horiz-adv-x="491" d="M230 500 L84 500 C74 500 65 491 65 480 L65 260 L24 260 C16 260 10 254 10 246 C10 238 16 233 24 233 L65 233 L65 20 C65 9 74 0 84 0 L230 0 C356 0 441 45 441 181 L441 319 C441 455 356 500 230 500 L230 500 Z M406 173 C406 65 321 31 232 31 L100 31 L100 233 L202 233 C210 233 216 238 216 246 C216 254 210 260 202 260 L100 260 L100 469 L232 469 C321 469 406 435 406 327 L406 173 Z " />
<glyph glyph-name="Ntilde" unicode="&#xd1;" horiz-adv-x="502" d="M383 14 C389 6 399 0 410 0 C428 0 442 15 442 33 L442 482 C442 492 435 500 425 500 C415 500 407 492 407 482 L407 36 L119 486 C114 494 103 500 92 500 C74 500 60 485 60 467 L60 18 C60 8 68 0 78 0 C88 0 95 8 95 18 L95 460 L383 14 Z M133 582 C130 580 128 576 128 572 C128 565 133 560 140 560 C143 560 146 561 148 563 C164 573 178 578 202 578 C236 578 261 550 295 550 C322 550 345 556 366 570 C369 572 371 576 371 580 C371 588 365 594 357 594 C354 594 352 593 350 592 C334 581 321 577 296 577 C260 577 235 605 202 605 C176 605 154 596 133 582 L133 582 Z " />
<glyph glyph-name="Ograve" unicode="&#xd2;" horiz-adv-x="490" d="M247 505 C430 505 440 434 440 318 L440 175 C440 60 431 -5 247 -5 C59 -5 50 60 50 175 L50 318 C50 434 60 505 247 505 L247 505 Z M247 26 C390 26 405 63 405 178 L405 322 C405 437 390 474 247 474 C100 474 85 437 85 322 L85 178 C85 63 100 26 247 26 L247 26 Z M238 659 C236 667 228 673 220 673 C210 673 200 664 200 654 C213 614 214 601 228 560 C230 554 235 550 243 550 C251 550 256 555 256 563 L238 659 Z " />
<glyph glyph-name="Oacute" unicode="&#xd3;" horiz-adv-x="490" d="M247 505 C430 505 440 434 440 318 L440 175 C440 60 431 -5 247 -5 C59 -5 50 60 50 175 L50 318 C50 434 60 505 247 505 L247 505 Z M247 26 C390 26 405 63 405 178 L405 322 C405 437 390 474 247 474 C100 474 85 437 85 322 L85 178 C85 63 100 26 247 26 L247 26 Z M237 563 C237 555 242 550 250 550 C258 550 263 554 265 560 C279 601 280 614 293 654 C293 664 283 673 273 673 C265 673 257 667 255 659 L237 563 Z " />
<glyph glyph-name="Ocircumflex" unicode="&#xd4;" horiz-adv-x="490" d="M247 505 C60 505 50 434 50 318 L50 175 C50 60 59 -5 247 -5 C431 -5 440 60 440 175 L440 318 C440 434 430 505 247 505 L247 505 Z M247 26 C100 26 85 63 85 178 L85 322 C85 437 100 474 247 474 C390 474 405 437 405 322 L405 178 C405 63 390 26 247 26 L247 26 Z M284 561 C286 555 292 550 300 550 C310 550 318 557 318 570 L275 667 C270 678 259 685 246 685 C233 685 222 678 217 667 L174 570 C174 557 182 550 192 550 C200 550 206 555 208 561 L246 655 L284 561 Z " />
<glyph glyph-name="Otilde" unicode="&#xd5;" horiz-adv-x="490" d="M247 505 C430 505 440 434 440 318 L440 175 C440 60 431 -5 247 -5 C59 -5 50 60 50 175 L50 318 C50 434 60 505 247 505 L247 505 Z M247 26 C390 26 405 63 405 178 L405 322 C405 437 390 474 247 474 C100 474 85 437 85 322 L85 178 C85 63 100 26 247 26 L247 26 Z M131 582 C128 580 126 576 126 572 C126 565 131 560 138 560 C141 560 144 561 146 563 C162 573 176 578 200 578 C234 578 259 550 293 550 C320 550 343 556 364 570 C367 572 369 576 369 580 C369 588 363 594 355 594 C352 594 350 593 348 592 C332 581 319 577 294 577 C258 577 233 605 200 605 C174 605 152 596 131 582 L131 582 Z " />
<glyph glyph-name="Odieresis" unicode="&#xd6;" horiz-adv-x="490" d="M247 505 C430 505 440 434 440 318 L440 175 C440 60 431 -5 247 -5 C59 -5 50 60 50 175 L50 318 C50 434 60 505 247 505 L247 505 Z M247 26 C390 26 405 63 405 178 L405 322 C405 437 390 474 247 474 C100 474 85 437 85 322 L85 178 C85 63 100 26 247 26 L247 26 Z M171 578 C171 588 163 595 154 595 C145 595 136 588 136 578 L136 567 C136 557 145 550 154 550 C163 550 171 557 171 567 L171 578 Z M357 578 C357 588 349 595 340 595 C331 595 322 588 322 578 L322 567 C322 557 331 550 340 550 C349 550 357 557 357 567 L357 578 Z " />
<glyph glyph-name="multiply" unicode="&#xd7;" horiz-adv-x="400" d="M200 164 L307 58 C310 54 315 52 321 52 C331 52 340 60 340 71 C340 76 338 81 334 85 L224 188 L332 294 C335 297 336 300 336 305 C336 314 328 322 319 322 C315 322 311 321 308 319 L200 212 L92 319 C89 321 85 322 81 322 C72 322 64 314 64 305 C64 300 65 297 68 294 L176 188 L66 85 C62 81 60 76 60 71 C60 60 69 52 79 52 C85 52 90 54 93 58 L200 164 Z " />
<glyph glyph-name="Oslash" unicode="&#xd8;" horiz-adv-x="490" d="M183 -2 C202 -4 223 -5 247 -5 C431 -5 440 60 440 175 L440 318 C440 411 434 475 336 497 L353 554 C353 563 346 570 337 570 C330 570 324 566 322 559 C316 537 312 525 305 502 C288 504 269 505 247 505 C60 505 50 434 50 318 L50 175 C50 84 56 24 152 3 L136 -48 C136 -57 143 -64 152 -64 C159 -64 165 -60 167 -53 L183 -2 Z M85 178 L85 322 C85 437 100 474 247 474 C265 474 282 473 296 472 L161 33 C94 49 85 91 85 178 L85 178 Z M405 178 C405 63 390 26 247 26 C226 26 208 27 192 28 L327 467 C396 453 405 410 405 322 L405 178 Z " />
<glyph glyph-name="Ugrave" unicode="&#xd9;" horiz-adv-x="520" d="M460 175 C460 67 453 -5 262 -5 C67 -5 60 67 60 175 L60 482 C60 492 68 500 78 500 C88 500 95 492 95 482 L95 178 C95 63 115 26 262 26 C406 26 425 63 425 178 L425 482 C425 492 433 500 443 500 C453 500 460 492 460 482 L460 175 Z M254 659 C252 667 244 673 236 673 C226 673 216 664 216 654 C229 614 230 601 244 560 C246 554 251 550 259 550 C267 550 272 555 272 563 L254 659 Z " />
<glyph glyph-name="Uacute" unicode="&#xda;" horiz-adv-x="520" d="M460 175 C460 67 453 -5 262 -5 C67 -5 60 67 60 175 L60 482 C60 492 68 500 78 500 C88 500 95 492 95 482 L95 178 C95 63 115 26 262 26 C406 26 425 63 425 178 L425 482 C425 492 433 500 443 500 C453 500 460 492 460 482 L460 175 Z M251 563 C251 555 256 550 264 550 C272 550 277 554 279 560 C293 601 294 614 307 654 C307 664 297 673 287 673 C279 673 271 667 269 659 L251 563 Z " />
<glyph glyph-name="Ucircumflex" unicode="&#xdb;" horiz-adv-x="520" d="M460 482 C460 492 453 500 443 500 C433 500 425 492 425 482 L425 178 C425 63 406 26 262 26 C115 26 95 63 95 178 L95 482 C95 492 88 500 78 500 C68 500 60 492 60 482 L60 175 C60 67 67 -5 262 -5 C453 -5 460 67 460 175 L460 482 Z M301 561 C303 555 309 550 317 550 C327 550 335 557 335 570 L292 667 C287 678 276 685 263 685 C250 685 239 678 234 667 L191 570 C191 557 199 550 209 550 C217 550 223 555 225 561 L263 655 L301 561 Z " />
<glyph glyph-name="Udieresis" unicode="&#xdc;" horiz-adv-x="520" d="M460 175 C460 67 453 -5 262 -5 C67 -5 60 67 60 175 L60 482 C60 492 68 500 78 500 C88 500 95 492 95 482 L95 178 C95 63 115 26 262 26 C406 26 425 63 425 178 L425 482 C425 492 433 500 443 500 C453 500 460 492 460 482 L460 175 Z M186 578 C186 588 178 595 169 595 C160 595 151 588 151 578 L151 567 C151 557 160 550 169 550 C178 550 186 557 186 567 L186 578 Z M372 578 C372 588 364 595 355 595 C346 595 337 588 337 578 L337 567 C337 557 346 550 355 550 C364 550 372 557 372 567 L372 578 Z " />
<glyph glyph-name="Yacute" unicode="&#xdd;" horiz-adv-x="423" d="M211 248 L53 490 C50 495 44 500 38 500 C28 500 20 491 20 482 C20 478 21 475 23 472 L194 215 L194 18 C194 8 202 0 212 0 C222 0 229 8 229 18 L229 215 L400 472 C402 475 403 478 403 482 C403 491 395 500 385 500 C379 500 373 495 370 490 L211 248 Z M201 563 C201 555 206 550 214 550 C222 550 227 554 229 560 C243 601 244 614 257 654 C257 664 247 673 237 673 C229 673 221 667 219 659 L201 563 Z " />
<glyph glyph-name="Thorn" unicode="&#xde;" horiz-adv-x="435" d="M245 132 L95 132 L95 385 L245 385 C316 385 375 381 375 262 C375 133 315 132 245 132 L245 132 Z M60 18 C60 8 67 0 77 0 C87 0 95 8 95 18 L95 101 L246 101 C331 101 410 111 410 262 C410 412 331 416 246 416 L95 416 L95 500 C95 510 87 518 77 518 C67 518 60 510 60 500 L60 18 Z " />
<glyph glyph-name="germandbls" unicode="&#xdf;" horiz-adv-x="447" d="M271 0 C365 2 394 19 397 121 L397 134 C397 188 380 230 344 264 C393 292 397 323 397 387 C397 476 337 501 225 501 C81 501 60 451 60 300 L60 17 C60 7 67 0 77 0 C87 0 95 7 95 17 L95 301 C95 443 109 470 225 470 C305 470 362 469 362 387 C362 285 338 284 247 284 C238 284 232 277 232 268 C232 259 238 253 247 253 C324 251 362 226 362 132 C362 39 347 29 271 28 C263 28 257 22 257 14 C257 6 263 0 271 0 L271 0 Z " />
<glyph glyph-name="agrave" unicode="&#xe0;" horiz-adv-x="396" d="M70 117 C70 194 147 194 233 194 C249 194 285 194 316 190 L316 100 C280 60 234 27 170 27 C103 28 70 58 70 117 L70 117 Z M87 396 C81 394 74 388 74 381 C74 373 81 366 89 366 C90 366 93 367 94 367 C120 373 145 374 173 374 C273 374 316 347 316 264 L316 212 L312 212 C283 224 226 228 192 228 C115 228 35 202 35 115 C35 25 77 -5 171 -5 C220 -5 265 1 316 65 L316 17 C316 7 323 0 333 0 C343 0 351 7 351 17 L351 263 C351 373 284 405 183 405 C154 405 120 403 87 396 L87 396 Z M208 564 C206 572 198 578 190 578 C180 578 170 569 170 559 C183 519 184 506 198 465 C200 459 205 455 213 455 C221 455 226 460 226 468 L208 564 Z " />
<glyph glyph-name="aacute" unicode="&#xe1;" horiz-adv-x="396" d="M70 117 C70 194 147 194 233 194 C249 194 285 194 316 190 L316 100 C280 60 234 27 170 27 C103 28 70 58 70 117 L70 117 Z M87 396 C81 394 74 388 74 381 C74 373 81 366 89 366 C90 366 93 367 94 367 C120 373 145 374 173 374 C273 374 316 347 316 264 L316 212 L312 212 C283 224 226 228 192 228 C115 228 35 202 35 115 C35 25 77 -5 171 -5 C220 -5 265 1 316 65 L316 17 C316 7 323 0 333 0 C343 0 351 7 351 17 L351 263 C351 373 284 405 183 405 C154 405 120 403 87 396 L87 396 Z M188 468 C188 460 193 455 201 455 C209 455 214 459 216 465 C230 506 231 519 244 559 C244 569 234 578 224 578 C216 578 208 572 206 564 L188 468 Z " />
<glyph glyph-name="acircumflex" unicode="&#xe2;" horiz-adv-x="396" d="M70 117 C70 194 147 194 233 194 C249 194 285 194 316 190 L316 100 C280 60 234 27 170 27 C103 28 70 58 70 117 L70 117 Z M87 396 C81 394 74 388 74 381 C74 373 81 366 89 366 C90 366 93 367 94 367 C120 373 145 374 173 374 C273 374 316 347 316 264 L316 212 L312 212 C283 224 226 228 192 228 C115 228 35 202 35 115 C35 25 77 -5 171 -5 C220 -5 265 1 316 65 L316 17 C316 7 323 0 333 0 C343 0 351 7 351 17 L351 263 C351 373 284 405 183 405 C154 405 120 403 87 396 L87 396 Z M252 466 C254 460 260 455 268 455 C278 455 286 462 286 475 L243 572 C238 583 227 590 214 590 C201 590 190 583 185 572 L142 475 C142 462 150 455 160 455 C168 455 174 460 176 466 L214 560 L252 466 Z " />
<glyph glyph-name="atilde" unicode="&#xe3;" horiz-adv-x="396" d="M70 117 C70 194 147 194 233 194 C249 194 285 194 316 190 L316 100 C280 60 234 27 170 27 C103 28 70 58 70 117 L70 117 Z M87 396 C81 394 74 388 74 381 C74 373 81 366 89 366 C90 366 93 367 94 367 C120 373 145 374 173 374 C273 374 316 347 316 264 L316 212 L312 212 C283 224 226 228 192 228 C115 228 35 202 35 115 C35 25 77 -5 171 -5 C220 -5 265 1 316 65 L316 17 C316 7 323 0 333 0 C343 0 351 7 351 17 L351 263 C351 373 284 405 183 405 C154 405 120 403 87 396 L87 396 Z M85 487 C82 485 80 481 80 477 C80 470 85 465 92 465 C95 465 98 466 100 468 C116 478 130 483 154 483 C188 483 213 455 247 455 C274 455 297 461 318 475 C321 477 323 481 323 485 C323 493 317 499 309 499 C306 499 304 498 302 497 C286 486 273 482 248 482 C212 482 187 510 154 510 C128 510 106 501 85 487 L85 487 Z " />
<glyph glyph-name="adieresis" unicode="&#xe4;" horiz-adv-x="396" d="M70 117 C70 194 147 194 233 194 C249 194 285 194 316 190 L316 100 C280 60 234 27 170 27 C103 28 70 58 70 117 L70 117 Z M87 396 C81 394 74 388 74 381 C74 373 81 366 89 366 C90 366 93 367 94 367 C120 373 145 374 173 374 C273 374 316 347 316 264 L316 212 L312 212 C283 224 226 228 192 228 C115 228 35 202 35 115 C35 25 77 -5 171 -5 C220 -5 265 1 316 65 L316 17 C316 7 323 0 333 0 C343 0 351 7 351 17 L351 263 C351 373 284 405 183 405 C154 405 120 403 87 396 L87 396 Z M139 483 C139 493 131 500 122 500 C113 500 104 493 104 483 L104 472 C104 462 113 455 122 455 C131 455 139 462 139 472 L139 483 Z M325 483 C325 493 317 500 308 500 C299 500 290 493 290 483 L290 472 C290 462 299 455 308 455 C317 455 325 462 325 472 L325 483 Z " />
<glyph glyph-name="aring" unicode="&#xe5;" horiz-adv-x="396" d="M210 608 C167 608 133 574 133 532 C133 489 167 455 210 455 C252 455 286 489 286 532 C286 574 252 608 210 608 L210 608 Z M210 488 C185 488 166 507 166 532 C166 556 185 576 210 576 C234 576 254 556 254 532 C254 507 234 488 210 488 L210 488 Z M70 117 C70 194 147 194 233 194 C249 194 285 194 316 190 L316 100 C280 60 234 27 170 27 C103 28 70 58 70 117 L70 117 Z M87 396 C81 394 74 388 74 381 C74 373 81 366 89 366 C90 366 93 367 94 367 C120 373 145 374 173 374 C273 374 316 347 316 264 L316 212 L312 212 C283 224 226 228 192 228 C115 228 35 202 35 115 C35 25 77 -5 171 -5 C220 -5 265 1 316 65 L316 17 C316 7 323 0 333 0 C343 0 351 7 351 17 L351 263 C351 373 284 405 183 405 C154 405 120 403 87 396 L87 396 Z " />
<glyph glyph-name="ae" unicode="&#xe6;" horiz-adv-x="678" d="M477 374 C584 374 598 334 598 273 L598 216 L352 216 C352 334 370 374 477 374 L477 374 Z M317 100 C281 60 235 27 171 27 C104 28 71 58 71 117 C71 194 148 194 234 194 C250 194 286 194 317 190 L317 100 Z M490 -5 C520 -5 570 -2 607 4 C614 5 619 11 619 19 C619 28 612 35 603 35 C568 28 519 27 489 27 C412 27 352 47 352 132 L352 183 L612 183 C624 183 633 192 633 204 L633 251 C633 353 613 405 477 405 C398 405 355 387 335 342 C308 389 254 405 184 405 C155 405 121 403 88 396 C82 394 75 388 75 381 C75 373 82 366 90 366 C91 366 94 367 95 367 C121 373 146 374 174 374 C274 374 317 347 317 264 L317 212 L313 212 C284 224 227 228 193 228 C116 228 36 202 36 115 C36 25 78 -5 172 -5 C220 -5 280 8 331 69 C356 14 416 -5 490 -5 L490 -5 Z " />
<glyph glyph-name="ccedilla" unicode="&#xe7;" horiz-adv-x="374" d="M323 35 C288 28 243 27 214 27 C136 27 80 48 80 132 L80 267 C80 352 136 374 214 374 C242 374 289 372 324 367 C333 367 339 372 339 381 C339 387 336 393 331 395 C294 403 246 405 215 405 C114 405 45 370 45 261 L45 139 C45 30 114 -5 215 -5 C244 -5 291 -3 328 3 C335 5 340 11 340 18 C340 28 333 35 323 35 L323 35 Z M230 -67 C230 -59 223 -53 215 -53 C209 -53 204 -57 202 -62 C188 -103 187 -117 174 -157 C174 -167 183 -176 193 -176 C203 -176 212 -169 213 -160 L230 -67 Z " />
<glyph glyph-name="egrave" unicode="&#xe8;" horiz-adv-x="411" d="M210 374 C317 374 331 334 331 273 L331 216 L85 216 C85 334 103 374 210 374 L210 374 Z M345 183 C357 183 366 192 366 204 L366 251 C366 353 346 405 210 405 C82 405 50 357 50 229 L50 139 C50 30 123 -5 223 -5 C253 -5 303 -2 340 4 C347 5 352 11 352 19 C352 28 345 35 336 35 C301 28 252 27 222 27 C145 27 85 47 85 132 L85 183 L345 183 Z M204 564 C202 572 194 578 186 578 C176 578 166 569 166 559 C179 519 180 506 194 465 C196 459 201 455 209 455 C217 455 222 460 222 468 L204 564 Z " />
<glyph glyph-name="eacute" unicode="&#xe9;" horiz-adv-x="411" d="M210 374 C317 374 331 334 331 273 L331 216 L85 216 C85 334 103 374 210 374 L210 374 Z M345 183 C357 183 366 192 366 204 L366 251 C366 353 346 405 210 405 C82 405 50 357 50 229 L50 139 C50 30 123 -5 223 -5 C253 -5 303 -2 340 4 C347 5 352 11 352 19 C352 28 345 35 336 35 C301 28 252 27 222 27 C145 27 85 47 85 132 L85 183 L345 183 Z M201 468 C201 460 206 455 214 455 C222 455 227 459 229 465 C243 506 244 519 257 559 C257 569 247 578 237 578 C229 578 221 572 219 564 L201 468 Z " />
<glyph glyph-name="ecircumflex" unicode="&#xea;" horiz-adv-x="411" d="M210 374 C317 374 331 334 331 273 L331 216 L85 216 C85 334 103 374 210 374 L210 374 Z M345 183 C357 183 366 192 366 204 L366 251 C366 353 346 405 210 405 C82 405 50 357 50 229 L50 139 C50 30 123 -5 223 -5 C253 -5 303 -2 340 4 C347 5 352 11 352 19 C352 28 345 35 336 35 C301 28 252 27 222 27 C145 27 85 47 85 132 L85 183 L345 183 Z M248 466 C250 460 256 455 264 455 C274 455 282 462 282 475 L239 572 C234 583 223 590 210 590 C197 590 186 583 181 572 L138 475 C138 462 146 455 156 455 C164 455 170 460 172 466 L210 560 L248 466 Z " />
<glyph glyph-name="edieresis" unicode="&#xeb;" horiz-adv-x="411" d="M210 374 C317 374 331 334 331 273 L331 216 L85 216 C85 334 103 374 210 374 L210 374 Z M345 183 C357 183 366 192 366 204 L366 251 C366 353 346 405 210 405 C82 405 50 357 50 229 L50 139 C50 30 123 -5 223 -5 C253 -5 303 -2 340 4 C347 5 352 11 352 19 C352 28 345 35 336 35 C301 28 252 27 222 27 C145 27 85 47 85 132 L85 183 L345 183 Z M132 483 C132 493 124 500 115 500 C106 500 97 493 97 483 L97 472 C97 462 106 455 115 455 C124 455 132 462 132 472 L132 483 Z M318 483 C318 493 310 500 301 500 C292 500 283 493 283 483 L283 472 C283 462 292 455 301 455 C310 455 318 462 318 472 L318 483 Z " />
<glyph glyph-name="igrave" unicode="&#xec;" horiz-adv-x="155" d="M95 18 C95 8 88 0 78 0 C68 0 60 8 60 18 L60 382 C60 392 68 400 78 400 C88 400 95 392 95 382 L95 18 Z M73 564 C71 572 63 578 55 578 C45 578 35 569 35 559 C48 519 49 506 63 465 C65 459 70 455 78 455 C86 455 91 460 91 468 L73 564 Z " />
<glyph glyph-name="iacute" unicode="&#xed;" horiz-adv-x="155" d="M95 18 C95 8 88 0 78 0 C68 0 60 8 60 18 L60 382 C60 392 68 400 78 400 C88 400 95 392 95 382 L95 18 Z M67 468 C67 460 72 455 80 455 C88 455 93 459 95 465 C109 506 110 519 123 559 C123 569 113 578 103 578 C95 578 87 572 85 564 L67 468 Z " />
<glyph glyph-name="icircumflex" unicode="&#xee;" horiz-adv-x="155" d="M95 382 C95 392 88 400 78 400 C68 400 60 392 60 382 L60 18 C60 8 68 0 78 0 C88 0 95 8 95 18 L95 382 Z M116 466 C118 460 124 455 132 455 C142 455 150 462 150 475 L107 572 C102 583 91 590 78 590 C65 590 54 583 49 572 L6 475 C6 462 14 455 24 455 C32 455 38 460 40 466 L78 560 L116 466 Z " />
<glyph glyph-name="idieresis" unicode="&#xef;" horiz-adv-x="155" d="M95 18 C95 8 88 0 78 0 C68 0 60 8 60 18 L60 382 C60 392 68 400 78 400 C88 400 95 392 95 382 L95 18 Z M60 483 C60 493 52 500 43 500 C34 500 25 493 25 483 L25 472 C25 462 34 455 43 455 C52 455 60 462 60 472 L60 483 Z M130 483 C130 493 122 500 113 500 C104 500 95 493 95 483 L95 472 C95 462 104 455 113 455 C122 455 130 462 130 472 L130 483 Z " />
<glyph glyph-name="eth" unicode="&#xf0;" horiz-adv-x="416" d="M331 153 C331 64 331 27 208 27 C85 27 85 64 85 153 L85 247 C85 339 85 374 208 374 C331 374 331 338 331 247 L331 153 Z M246 559 C243 564 238 567 232 567 C222 567 216 560 216 551 C216 548 216 545 217 543 L239 503 L166 503 C160 503 155 498 155 491 C155 485 160 481 166 481 L254 481 L303 391 C280 400 250 405 208 405 C50 405 50 334 50 248 L50 152 C50 66 50 -5 208 -5 C366 -5 366 66 366 152 L366 280 C366 315 354 361 290 481 L353 481 C359 481 364 485 364 491 C364 498 359 503 353 503 L278 503 L246 559 Z " />
<glyph glyph-name="ntilde" unicode="&#xf1;" horiz-adv-x="427" d="M95 382 C95 392 88 400 78 400 C68 400 60 392 60 382 L60 18 C60 8 68 0 78 0 C88 0 95 8 95 18 L95 264 C95 340 126 374 224 374 C342 374 342 307 342 238 L342 18 C342 8 350 0 360 0 C370 0 377 8 377 18 L377 257 C377 341 345 405 228 405 C188 405 134 405 103 366 L98 366 L95 382 Z M112 487 C109 485 107 481 107 477 C107 470 112 465 119 465 C122 465 125 466 127 468 C143 478 157 483 181 483 C215 483 240 455 274 455 C301 455 324 461 345 475 C348 477 350 481 350 485 C350 493 344 499 336 499 C333 499 331 498 329 497 C313 486 300 482 275 482 C239 482 214 510 181 510 C155 510 133 501 112 487 L112 487 Z " />
<glyph glyph-name="ograve" unicode="&#xf2;" horiz-adv-x="416" d="M208 405 C50 405 50 334 50 248 L50 152 C50 66 50 -5 208 -5 C366 -5 366 66 366 152 L366 248 C366 334 366 405 208 405 L208 405 Z M331 153 C331 64 331 27 208 27 C85 27 85 64 85 153 L85 247 C85 339 85 374 208 374 C331 374 331 338 331 247 L331 153 Z M199 564 C197 572 189 578 181 578 C171 578 161 569 161 559 C174 519 175 506 189 465 C191 459 196 455 204 455 C212 455 217 460 217 468 L199 564 Z " />
<glyph glyph-name="oacute" unicode="&#xf3;" horiz-adv-x="416" d="M208 405 C50 405 50 334 50 248 L50 152 C50 66 50 -5 208 -5 C366 -5 366 66 366 152 L366 248 C366 334 366 405 208 405 L208 405 Z M331 153 C331 64 331 27 208 27 C85 27 85 64 85 153 L85 247 C85 339 85 374 208 374 C331 374 331 338 331 247 L331 153 Z M197 468 C197 460 202 455 210 455 C218 455 223 459 225 465 C239 506 240 519 253 559 C253 569 243 578 233 578 C225 578 217 572 215 564 L197 468 Z " />
<glyph glyph-name="ocircumflex" unicode="&#xf4;" horiz-adv-x="416" d="M208 405 C50 405 50 334 50 248 L50 152 C50 66 50 -5 208 -5 C366 -5 366 66 366 152 L366 248 C366 334 366 405 208 405 L208 405 Z M331 153 C331 64 331 27 208 27 C85 27 85 64 85 153 L85 247 C85 339 85 374 208 374 C331 374 331 338 331 247 L331 153 Z M246 466 C248 460 254 455 262 455 C272 455 280 462 280 475 L237 572 C232 583 221 590 208 590 C195 590 184 583 179 572 L136 475 C136 462 144 455 154 455 C162 455 168 460 170 466 L208 560 L246 466 Z " />
<glyph glyph-name="otilde" unicode="&#xf5;" horiz-adv-x="416" d="M208 405 C50 405 50 334 50 248 L50 152 C50 66 50 -5 208 -5 C366 -5 366 66 366 152 L366 248 C366 334 366 405 208 405 L208 405 Z M331 153 C331 64 331 27 208 27 C85 27 85 64 85 153 L85 247 C85 339 85 374 208 374 C331 374 331 338 331 247 L331 153 Z M95 487 C92 485 90 481 90 477 C90 470 95 465 102 465 C105 465 108 466 110 468 C126 478 140 483 164 483 C198 483 223 455 257 455 C284 455 307 461 328 475 C331 477 333 481 333 485 C333 493 327 499 319 499 C316 499 314 498 312 497 C296 486 283 482 258 482 C222 482 197 510 164 510 C138 510 116 501 95 487 L95 487 Z " />
<glyph glyph-name="odieresis" unicode="&#xf6;" horiz-adv-x="416" d="M208 405 C50 405 50 334 50 248 L50 152 C50 66 50 -5 208 -5 C366 -5 366 66 366 152 L366 248 C366 334 366 405 208 405 L208 405 Z M331 153 C331 64 331 27 208 27 C85 27 85 64 85 153 L85 247 C85 339 85 374 208 374 C331 374 331 338 331 247 L331 153 Z M132 483 C132 493 124 500 115 500 C106 500 97 493 97 483 L97 472 C97 462 106 455 115 455 C124 455 132 462 132 472 L132 483 Z M318 483 C318 493 310 500 301 500 C292 500 283 493 283 483 L283 472 C283 462 292 455 301 455 C310 455 318 462 318 472 L318 483 Z " />
<glyph glyph-name="divide" unicode="&#xf7;" horiz-adv-x="478" d="M74 178 C66 178 60 183 60 191 C60 199 66 205 74 205 L404 205 C412 205 418 199 418 191 C418 183 412 178 404 178 L74 178 Z M256 69 C256 79 248 86 239 86 C230 86 221 79 221 69 L221 46 C221 36 230 29 239 29 C248 29 256 36 256 46 L256 69 Z M256 341 C256 351 248 358 239 358 C230 358 221 351 221 341 L221 318 C221 308 230 301 239 301 C248 301 256 308 256 318 L256 341 Z " />
<glyph glyph-name="oslash" unicode="&#xf8;" horiz-adv-x="416" d="M163 -3 C176 -4 191 -5 208 -5 C366 -5 366 66 366 152 L366 248 C366 317 366 376 285 397 L296 436 C296 445 289 452 280 452 C273 452 267 448 265 441 L253 403 C240 404 225 405 208 405 C50 405 50 334 50 248 L50 152 C50 83 50 24 132 3 L120 -37 C120 -46 127 -53 136 -53 C143 -53 149 -49 151 -42 L163 -3 Z M85 153 L85 247 C85 339 85 374 208 374 C222 374 234 374 244 373 L141 33 C85 47 85 85 85 153 L85 153 Z M331 153 C331 64 331 27 208 27 C195 27 183 27 173 28 L276 368 C331 354 331 317 331 247 L331 153 Z " />
<glyph glyph-name="ugrave" unicode="&#xf9;" horiz-adv-x="427" d="M332 18 C332 8 340 0 350 0 C360 0 367 8 367 18 L367 382 C367 392 360 400 350 400 C340 400 332 392 332 382 L332 136 C332 60 301 26 203 26 C85 26 85 93 85 162 L85 382 C85 392 78 400 68 400 C58 400 50 392 50 382 L50 143 C50 59 82 -5 199 -5 C239 -5 293 -5 324 34 L329 34 L332 18 Z M198 564 C196 572 188 578 180 578 C170 578 160 569 160 559 C173 519 174 506 188 465 C190 459 195 455 203 455 C211 455 216 460 216 468 L198 564 Z " />
<glyph glyph-name="uacute" unicode="&#xfa;" horiz-adv-x="427" d="M332 18 C332 8 340 0 350 0 C360 0 367 8 367 18 L367 382 C367 392 360 400 350 400 C340 400 332 392 332 382 L332 136 C332 60 301 26 203 26 C85 26 85 93 85 162 L85 382 C85 392 78 400 68 400 C58 400 50 392 50 382 L50 143 C50 59 82 -5 199 -5 C239 -5 293 -5 324 34 L329 34 L332 18 Z M202 468 C202 460 207 455 215 455 C223 455 228 459 230 465 C244 506 245 519 258 559 C258 569 248 578 238 578 C230 578 222 572 220 564 L202 468 Z " />
<glyph glyph-name="ucircumflex" unicode="&#xfb;" horiz-adv-x="427" d="M332 18 C332 8 340 0 350 0 C360 0 367 8 367 18 L367 382 C367 392 360 400 350 400 C340 400 332 392 332 382 L332 136 C332 60 301 26 203 26 C85 26 85 93 85 162 L85 382 C85 392 78 400 68 400 C58 400 50 392 50 382 L50 143 C50 59 82 -5 199 -5 C239 -5 293 -5 324 34 L329 34 L332 18 Z M241 466 C243 460 249 455 257 455 C267 455 275 462 275 475 L232 572 C227 583 216 590 203 590 C190 590 179 583 174 572 L131 475 C131 462 139 455 149 455 C157 455 163 460 165 466 L203 560 L241 466 Z " />
<glyph glyph-name="udieresis" unicode="&#xfc;" horiz-adv-x="427" d="M332 18 C332 8 340 0 350 0 C360 0 367 8 367 18 L367 382 C367 392 360 400 350 400 C340 400 332 392 332 382 L332 136 C332 60 301 26 203 26 C85 26 85 93 85 162 L85 382 C85 392 78 400 68 400 C58 400 50 392 50 382 L50 143 C50 59 82 -5 199 -5 C239 -5 293 -5 324 34 L329 34 L332 18 Z M133 483 C133 493 125 500 116 500 C107 500 98 493 98 483 L98 472 C98 462 107 455 116 455 C125 455 133 462 133 472 L133 483 Z M319 483 C319 493 311 500 302 500 C293 500 284 493 284 483 L284 472 C284 462 293 455 302 455 C311 455 319 462 319 472 L319 483 Z " />
<glyph glyph-name="yacute" unicode="&#xfd;" horiz-adv-x="373" d="M353 383 C353 392 346 400 337 400 C331 400 325 396 322 391 L192 42 L192 35 L181 35 L181 42 L51 391 C48 396 42 400 36 400 C27 400 20 392 20 383 C64 254 110 143 154 16 C155 9 163 3 170 3 C176 2 182 2 189 2 L189 -2 C183 -6 174 -14 167 -34 L118 -169 C118 -177 126 -184 135 -184 C142 -184 147 -179 149 -173 L353 383 Z M178 468 C178 460 183 455 191 455 C199 455 204 459 206 465 C220 506 221 519 234 559 C234 569 224 578 214 578 C206 578 198 572 196 564 L178 468 Z " />
<glyph glyph-name="thorn" unicode="&#xfe;" horiz-adv-x="435" d="M95 0 L246 0 C331 0 410 10 410 161 L410 251 C410 401 331 405 246 405 L95 405 L95 500 C95 510 87 518 77 518 C67 518 60 510 60 500 L60 -166 C60 -176 67 -184 77 -184 C87 -184 95 -176 95 -166 L95 0 Z M375 161 C375 32 315 31 245 31 L95 31 L95 374 L245 374 C316 374 375 370 375 251 L375 161 Z " />
<glyph glyph-name="ydieresis" unicode="&#xff;" horiz-adv-x="373" d="M353 383 C353 392 346 400 337 400 C331 400 325 396 322 391 L192 42 L192 35 L181 35 L181 42 L51 391 C48 396 42 400 36 400 C27 400 20 392 20 383 C64 254 110 143 154 16 C155 9 163 3 170 3 C176 2 182 2 189 2 L189 -2 C183 -6 174 -14 167 -34 L118 -169 C118 -177 126 -184 135 -184 C142 -184 147 -179 149 -173 L353 383 Z M111 483 C111 493 103 500 94 500 C85 500 76 493 76 483 L76 472 C76 462 85 455 94 455 C103 455 111 462 111 472 L111 483 Z M297 483 C297 493 289 500 280 500 C271 500 262 493 262 483 L262 472 C262 462 271 455 280 455 C289 455 297 462 297 472 L297 483 Z " />
<glyph glyph-name="dotlessi" unicode="&#x131;" horiz-adv-x="155" d="M95 382 C95 392 88 400 78 400 C68 400 60 392 60 382 L60 18 C60 8 68 0 78 0 C88 0 95 8 95 18 L95 382 Z " />
<glyph glyph-name="Lslash" unicode="&#x141;" horiz-adv-x="409" d="M114 31 L114 230 L221 249 C228 250 232 255 232 262 C232 270 226 276 218 276 L114 256 L114 482 C114 492 107 500 97 500 C87 500 79 492 79 482 L79 249 L32 240 C25 239 20 234 20 227 C20 220 25 215 32 215 L79 223 L79 18 C79 8 87 0 97 0 L373 0 C382 0 389 6 389 15 C389 24 382 31 373 31 L114 31 Z " />
<glyph glyph-name="lslash" unicode="&#x142;" horiz-adv-x="191" d="M104 229 L170 241 C177 242 181 247 181 254 C181 262 175 268 167 268 L104 255 L104 482 C104 492 97 500 87 500 C77 500 69 492 69 482 L69 249 L22 240 C15 239 10 234 10 227 C10 220 15 215 22 215 L69 223 L69 18 C69 8 77 0 87 0 C97 0 104 8 104 18 L104 229 Z " />
<glyph glyph-name="OE" unicode="&#x152;" horiz-adv-x="707" d="M259 26 C150 26 85 69 85 167 L85 333 C85 431 150 474 259 474 C278 474 303 473 328 472 L328 28 C302 26 278 26 259 26 L259 26 Z M638 0 C647 0 654 6 654 15 C654 24 647 31 638 31 L363 31 L363 234 L601 234 C610 234 617 240 617 249 C617 258 610 265 601 265 L363 265 L363 469 L637 469 C646 469 653 475 653 484 C653 493 646 500 637 500 L352 500 C319 503 285 505 261 505 C135 505 50 460 50 325 L50 174 C50 40 135 -5 261 -5 C285 -5 318 -3 351 0 L638 0 Z " />
<glyph glyph-name="oe" unicode="&#x153;" horiz-adv-x="692" d="M618 35 C582 28 534 27 503 27 C428 27 366 46 366 126 L366 183 L626 183 C638 183 647 192 647 204 L647 251 C647 353 627 405 491 405 C416 405 374 388 352 349 C335 383 296 405 208 405 C50 405 50 334 50 248 L50 152 C50 66 50 -5 208 -5 C298 -5 337 18 354 54 C383 11 437 -5 504 -5 C534 -5 585 -3 622 4 C629 5 634 11 634 19 C634 28 627 35 618 35 L618 35 Z M331 153 C331 64 331 27 208 27 C85 27 85 64 85 153 L85 247 C85 339 85 374 208 374 C331 374 331 338 331 247 L331 153 Z M491 374 C598 374 612 334 612 273 L612 216 L366 216 L366 233 C368 338 390 374 491 374 L491 374 Z " />
<glyph glyph-name="Scaron" unicode="&#x160;" horiz-adv-x="449" d="M65 59 C63 60 60 61 57 61 C47 61 40 53 40 43 C40 36 43 31 48 28 C92 5 182 -5 229 -5 C314 -5 409 4 409 137 C409 286 79 255 79 376 C79 436 103 474 235 474 C279 474 334 470 370 463 C380 463 387 469 387 479 C387 487 383 493 376 495 C333 503 273 505 232 505 C117 505 44 473 44 376 C44 221 374 257 374 137 C374 32 304 26 229 26 C195 26 132 28 65 59 L65 59 Z M229 580 L191 674 C189 680 183 685 175 685 C165 685 157 678 157 665 L200 568 C205 557 216 550 229 550 C242 550 253 557 258 568 L301 665 C301 678 293 685 283 685 C275 685 269 680 267 674 L229 580 Z " />
<glyph glyph-name="scaron" unicode="&#x161;" horiz-adv-x="372" d="M66 41 C57 41 50 34 50 24 C50 16 56 9 63 8 C101 0 153 -5 188 -5 C293 -5 332 24 332 107 C332 234 75 213 75 303 C75 356 101 374 192 374 C228 374 267 371 296 366 C304 366 311 372 311 380 C311 386 306 393 301 395 C267 402 222 405 190 405 C98 405 40 381 40 303 C40 183 297 202 297 107 C297 48 279 27 188 27 C161 27 104 31 66 41 L66 41 Z M189 485 L151 579 C149 585 143 590 135 590 C125 590 117 583 117 570 L160 473 C165 462 176 455 189 455 C202 455 213 462 218 473 L261 570 C261 583 253 590 243 590 C235 590 229 585 227 579 L189 485 Z " />
<glyph glyph-name="Ydieresis" unicode="&#x178;" horiz-adv-x="423" d="M211 248 L53 490 C50 495 44 500 38 500 C28 500 20 491 20 482 C20 478 21 475 23 472 L194 215 L194 18 C194 8 202 0 212 0 C222 0 229 8 229 18 L229 215 L400 472 C402 475 403 478 403 482 C403 491 395 500 385 500 C379 500 373 495 370 490 L211 248 Z M135 578 C135 588 127 595 118 595 C109 595 100 588 100 578 L100 567 C100 557 109 550 118 550 C127 550 135 557 135 567 L135 578 Z M321 578 C321 588 313 595 304 595 C295 595 286 588 286 578 L286 567 C286 557 295 550 304 550 C313 550 321 557 321 567 L321 578 Z " />
<glyph glyph-name="Zcaron" unicode="&#x17d;" horiz-adv-x="435" d="M382 0 C391 0 398 7 398 15 C398 24 391 31 382 31 L61 31 L409 459 C413 463 415 470 415 476 C415 489 404 500 391 500 L35 500 C27 500 20 493 20 484 C20 476 27 469 35 469 L376 469 L27 42 C23 38 21 30 21 24 C21 11 32 0 45 0 L382 0 Z M220 580 L182 674 C180 680 174 685 166 685 C156 685 148 678 148 665 L191 568 C196 557 207 550 220 550 C233 550 244 557 249 568 L292 665 C292 678 284 685 274 685 C266 685 260 680 258 674 L220 580 Z " />
<glyph glyph-name="zcaron" unicode="&#x17e;" horiz-adv-x="383" d="M336 360 C340 364 342 370 342 376 C342 389 331 400 318 400 L56 400 C47 400 40 393 40 384 C40 375 47 368 56 368 L304 368 L47 40 C43 36 41 30 41 24 C41 11 52 0 65 0 L327 0 C336 0 343 7 343 16 C343 25 336 32 327 32 L85 32 C310 328 336 360 336 360 L336 360 Z M196 485 L158 579 C156 585 150 590 142 590 C132 590 124 583 124 570 L167 473 C172 462 183 455 196 455 C209 455 220 462 225 473 L268 570 C268 583 260 590 250 590 C242 590 236 585 234 579 L196 485 Z " />
<glyph glyph-name="florin" unicode="&#x192;" horiz-adv-x="282" d="M261 518 C238 521 216 521 207 521 C139 521 107 483 101 386 C101 380 100 362 100 359 L35 359 C26 359 20 352 20 343 C20 334 26 328 35 328 L96 328 L49 -181 C49 -191 56 -199 66 -199 C76 -199 84 -191 84 -181 C100 -16 117 165 131 328 L241 328 C250 328 256 334 256 343 C256 352 250 359 241 359 L136 359 L137 389 C141 470 171 489 209 489 C223 489 237 489 258 487 C267 487 274 494 274 502 C274 510 269 517 261 518 L261 518 Z " />
<glyph glyph-name="circumflex" unicode="&#x2c6;" horiz-adv-x="264" d="M170 415 C172 409 178 404 186 404 C196 404 204 411 204 424 L161 521 C156 532 145 539 132 539 C119 539 108 532 103 521 L60 424 C60 411 68 404 78 404 C86 404 92 409 94 415 L132 509 L170 415 Z " />
<glyph glyph-name="caron" unicode="&#x2c7;" horiz-adv-x="264" d="M132 434 L94 528 C92 534 86 539 78 539 C68 539 60 532 60 519 L103 422 C108 411 119 404 132 404 C145 404 156 411 161 422 L204 519 C204 532 196 539 186 539 C178 539 172 534 170 528 L132 434 Z " />
<glyph glyph-name="breve" unicode="&#x2d8;" horiz-adv-x="418" d="M209 400 C313 400 352 404 358 482 C358 492 351 500 341 500 C331 500 323 492 323 482 C316 437 288 431 209 431 C130 431 102 437 95 482 C95 492 87 500 77 500 C67 500 60 492 60 482 C66 404 105 400 209 400 L209 400 Z " />
<glyph glyph-name="dotaccent" unicode="&#x2d9;" horiz-adv-x="155" d="M95 519 C95 529 87 536 78 536 C69 536 60 529 60 519 L60 508 C60 498 69 491 78 491 C87 491 95 498 95 508 L95 519 Z " />
<glyph glyph-name="ring" unicode="&#x2da;" horiz-adv-x="273" d="M137 536 C94 536 60 502 60 460 C60 417 94 383 137 383 C179 383 213 417 213 460 C213 502 179 536 137 536 L137 536 Z M137 416 C112 416 93 435 93 460 C93 484 112 504 137 504 C161 504 181 484 181 460 C181 435 161 416 137 416 L137 416 Z " />
<glyph glyph-name="ogonek" unicode="&#x2db;" horiz-adv-x="176" d="M78 -162 C80 -170 88 -176 96 -176 C106 -176 116 -167 116 -157 C103 -117 102 -104 88 -63 C86 -57 81 -53 73 -53 C65 -53 60 -58 60 -66 L78 -162 Z " />
<glyph glyph-name="tilde" unicode="&#x2dc;" horiz-adv-x="363" d="M65 513 C62 511 60 507 60 503 C60 496 65 491 72 491 C75 491 78 492 80 494 C96 504 110 509 134 509 C168 509 193 481 227 481 C254 481 277 487 298 501 C301 503 303 507 303 511 C303 519 297 525 289 525 C286 525 284 524 282 523 C266 512 253 508 228 508 C192 508 167 536 134 536 C108 536 86 527 65 513 L65 513 Z " />
<glyph glyph-name="hungarumlaut" unicode="&#x2dd;" horiz-adv-x="252" d="M60 457 C60 449 66 443 74 443 C81 443 87 447 88 454 C109 516 103 496 110 517 C110 527 101 536 91 536 C82 536 75 529 73 521 L60 457 Z M142 457 C142 449 148 443 156 443 C163 443 169 447 170 454 C191 516 185 496 192 517 C192 527 183 536 173 536 C164 536 157 529 155 521 L142 457 Z " />
<glyph glyph-name="pi" unicode="&#x3c0;" horiz-adv-x="511" d="M336 18 C336 8 344 0 354 0 C364 0 371 8 371 18 L371 382 L437 382 C445 382 451 387 451 395 C451 403 445 409 437 409 L74 409 C66 409 60 403 60 395 C60 387 66 382 74 382 L140 382 L140 18 C140 8 148 0 158 0 C168 0 175 8 175 18 L175 382 L336 382 L336 18 Z " />
<glyph glyph-name="nptp3.001march2007p" unicode="&#xe3b;" d="" />
<glyph glyph-name="nptp3.001march2007u" unicode="&#xe3c;" d="" />
<glyph glyph-name="nptp3.001march2007c" unicode="&#xe3d;" d="" />
<glyph glyph-name="nptp3.001march2007r" unicode="&#xe3e;" d="" />
<glyph glyph-name="bahtthai" unicode="&#xe3f;" horiz-adv-x="489" d="M265 543 C265 553 255 561 245 561 C235 561 227 553 227 543 L227 500 L79 500 C69 500 60 491 60 480 L60 20 C60 9 69 0 79 0 L227 0 L227 -44 C227 -54 235 -62 245 -62 C255 -62 262 -54 262 -44 L262 0 C352 0 429 1 429 135 C429 185 417 220 372 247 C416 274 429 312 429 366 C429 500 352 500 265 500 L265 543 Z M95 469 L227 469 L227 265 L95 265 L95 469 Z M95 234 L227 234 L227 31 L95 31 L95 234 Z M394 366 C394 268 320 265 264 265 L264 469 C346 469 394 465 394 366 L394 366 Z M264 31 L264 234 C320 234 394 234 394 135 C394 36 345 31 264 31 L264 31 Z " />
<glyph glyph-name="ZWSP" unicode="&#x200b;" d="" />
<glyph glyph-name="endash" unicode="&#x2013;" horiz-adv-x="515" d="M441 179 C449 179 455 184 455 192 C455 200 449 206 441 206 L74 206 C66 206 60 200 60 192 C60 184 66 179 74 179 L441 179 Z " />
<glyph glyph-name="emdash" unicode="&#x2014;" horiz-adv-x="618" d="M544 179 C552 179 558 184 558 192 C558 200 552 206 544 206 L74 206 C66 206 60 200 60 192 C60 184 66 179 74 179 L544 179 Z " />
<glyph glyph-name="quoteleft" unicode="&#x2018;" horiz-adv-x="170" d="M110 522 C110 530 104 536 96 536 C89 536 83 532 82 525 C61 463 67 483 60 462 C60 452 69 443 79 443 C88 443 95 450 97 458 L110 522 Z " />
<glyph glyph-name="quoteright" unicode="&#x2019;" horiz-adv-x="170" d="M60 457 C60 449 66 443 74 443 C81 443 87 447 88 454 C109 516 103 496 110 517 C110 527 101 536 91 536 C82 536 75 529 73 521 L60 457 Z " />
<glyph glyph-name="quotesinglbase" unicode="&#x201a;" horiz-adv-x="170" d="M60 -23 C60 -31 66 -37 74 -37 C81 -37 87 -33 88 -26 C109 36 103 16 110 37 C110 47 101 56 91 56 C82 56 75 49 73 41 L60 -23 Z " />
<glyph glyph-name="quotedblleft" unicode="&#x201c;" horiz-adv-x="254" d="M110 522 C110 530 104 536 96 536 C89 536 83 532 82 525 C61 463 67 483 60 462 C60 452 69 443 79 443 C88 443 95 450 97 458 L110 522 Z M194 522 C194 530 188 536 180 536 C173 536 167 532 166 525 C145 463 151 483 144 462 C144 452 153 443 163 443 C172 443 179 450 181 458 L194 522 Z " />
<glyph glyph-name="quotedblright" unicode="&#x201d;" horiz-adv-x="254" d="M144 457 C144 449 150 443 158 443 C165 443 171 447 172 454 C193 516 187 496 194 517 C194 527 185 536 175 536 C166 536 159 529 157 521 L144 457 Z M60 457 C60 449 66 443 74 443 C81 443 87 447 88 454 C109 516 103 496 110 517 C110 527 101 536 91 536 C82 536 75 529 73 521 L60 457 Z " />
<glyph glyph-name="quotedblbase" unicode="&#x201e;" horiz-adv-x="254" d="M144 -23 C144 -31 150 -37 158 -37 C165 -37 171 -33 172 -26 C193 36 187 16 194 37 C194 47 185 56 175 56 C166 56 159 49 157 41 L144 -23 Z M60 -23 C60 -31 66 -37 74 -37 C81 -37 87 -33 88 -26 C109 36 103 16 110 37 C110 47 101 56 91 56 C82 56 75 49 73 41 L60 -23 Z " />
<glyph glyph-name="dagger" unicode="&#x2020;" horiz-adv-x="396" d="M74 391 C66 391 60 385 60 377 C60 369 66 364 74 364 L181 364 L181 -162 C181 -172 189 -180 199 -180 C209 -180 216 -172 216 -162 L216 364 L322 364 C330 364 336 369 336 377 C336 385 330 391 322 391 L216 391 L216 503 C216 513 209 521 199 521 C189 521 181 513 181 503 L181 391 L74 391 Z " />
<glyph glyph-name="daggerdbl" unicode="&#x2021;" horiz-adv-x="396" d="M322 0 C330 0 336 5 336 13 C336 21 330 27 322 27 L216 27 L216 364 L322 364 C330 364 336 369 336 377 C336 385 330 391 322 391 L216 391 L216 503 C216 513 209 521 199 521 C189 521 181 513 181 503 L181 391 L74 391 C66 391 60 385 60 377 C60 369 66 364 74 364 L181 364 L181 27 L74 27 C66 27 60 21 60 13 C60 5 66 0 74 0 L181 0 L181 -162 C181 -172 189 -180 199 -180 C209 -180 216 -172 216 -162 L216 0 L322 0 Z " />
<glyph glyph-name="bullet" unicode="&#x2022;" horiz-adv-x="215" d="M60 171 C60 144 81 123 107 123 C134 123 155 144 155 171 C155 197 134 218 107 218 C81 218 60 197 60 171 L60 171 Z " />
<glyph glyph-name="ellipsis" unicode="&#x2026;" horiz-adv-x="335" d="M95 40 C95 50 87 57 78 57 C69 57 60 50 60 40 L60 17 C60 7 69 0 78 0 C87 0 95 7 95 17 L95 40 Z M185 40 C185 50 177 57 168 57 C159 57 150 50 150 40 L150 17 C150 7 159 0 168 0 C177 0 185 7 185 17 L185 40 Z M275 40 C275 50 267 57 258 57 C249 57 240 50 240 40 L240 17 C240 7 249 0 258 0 C267 0 275 7 275 17 L275 40 Z " />
<glyph glyph-name="perthousand" unicode="&#x2030;" horiz-adv-x="800" d="M652 -1 C699 -1 740 15 740 68 L740 156 C740 203 696 225 652 225 C608 225 564 203 564 156 L564 68 C564 15 605 -1 652 -1 L652 -1 Z M652 201 C695 201 710 173 710 156 L710 68 C710 45 695 25 652 25 C609 25 595 45 595 68 L595 156 C595 173 609 201 652 201 L652 201 Z M148 274 C195 274 237 290 237 343 L237 431 C237 477 192 500 148 500 C104 500 60 477 60 431 L60 343 C60 290 101 274 148 274 L148 274 Z M148 475 C191 475 206 448 206 431 L206 343 C206 320 191 299 148 299 C105 299 92 320 92 343 L92 431 C92 448 105 475 148 475 L148 475 Z M428 -1 C475 -1 516 15 516 68 L516 156 C516 203 472 225 428 225 C384 225 340 203 340 156 L340 68 C340 15 381 -1 428 -1 L428 -1 Z M428 201 C471 201 486 173 486 156 L486 68 C486 45 471 25 428 25 C385 25 371 45 371 68 L371 156 C371 173 385 201 428 201 L428 201 Z M169 17 C169 7 177 0 187 0 C193 0 198 4 200 9 L406 483 C406 493 398 500 388 500 C382 500 377 496 375 491 L169 17 Z " />
<glyph glyph-name="guilsinglleft" unicode="&#x2039;" horiz-adv-x="431" d="M94 169 L94 183 L99 183 L362 297 C367 300 371 305 371 312 C371 321 364 328 355 328 L83 212 C69 206 60 192 60 176 C60 160 69 146 83 140 L355 24 C364 24 371 31 371 40 C371 47 367 52 362 55 L99 169 L94 169 Z " />
<glyph glyph-name="guilsinglright" unicode="&#x203a;" horiz-adv-x="431" d="M332 169 L69 55 C64 52 60 47 60 40 C60 31 67 24 76 24 L348 140 C362 146 371 160 371 176 C371 192 362 206 348 212 L76 328 C67 328 60 321 60 312 C60 305 64 300 69 297 L332 183 L337 183 L337 169 L332 169 Z " />
<glyph glyph-name="fraction" unicode="&#x2044;" horiz-adv-x="313" d="M253 541 C253 551 246 558 236 558 C230 558 224 553 222 546 C165 357 117 205 60 17 C60 7 67 0 77 0 C83 0 89 5 91 12 L253 541 Z " />
<glyph glyph-name="Euro" unicode="&#x20ac;" horiz-adv-x="573" d="M498 38 C456 30 392 26 352 26 C243 26 178 69 178 166 L299 166 C307 166 313 171 313 179 C313 187 307 193 299 193 L178 193 L178 314 L299 314 C307 314 313 319 313 327 C313 335 307 341 299 341 L178 341 C182 433 246 474 352 474 C392 474 454 471 496 463 C505 463 511 468 511 477 C511 485 507 490 500 492 C454 501 392 505 354 505 C233 505 150 464 143 341 L74 341 C66 341 60 335 60 327 C60 319 66 314 74 314 L143 314 L143 193 L74 193 C66 193 60 187 60 179 C60 171 66 166 74 166 L143 166 C146 38 230 -5 354 -5 C392 -5 456 -1 502 8 C508 10 513 15 513 22 C513 30 506 38 498 38 L498 38 Z " />
<glyph glyph-name="trademark" unicode="&#x2122;" horiz-adv-x="645" d="M181 474 L258 474 C265 474 271 480 271 487 C271 494 265 500 258 500 L73 500 C66 500 60 494 60 487 C60 480 66 474 73 474 L151 474 L151 208 C151 200 158 193 166 193 C174 193 181 200 181 208 L181 474 Z M447 193 C460 193 471 200 474 212 L547 468 L547 474 L555 474 L555 208 C555 200 562 193 570 193 C578 193 585 200 585 208 L585 466 C585 485 570 500 551 500 C536 500 524 490 519 477 L447 222 L375 477 C370 490 358 500 343 500 C324 500 309 485 309 466 L309 208 C309 200 316 193 324 193 C332 193 339 200 339 208 L339 474 L347 474 L347 468 L420 212 C423 200 434 193 447 193 L447 193 Z " />
<glyph glyph-name="Omega" unicode="&#x2126;" horiz-adv-x="550" d="M275 474 C364 474 451 429 451 332 L451 191 C451 118 404 56 366 32 C360 29 355 23 355 16 C355 7 363 0 372 0 L476 0 C484 0 490 6 490 14 C490 22 484 28 476 28 L414 28 C457 75 486 130 486 192 L486 315 C486 451 401 505 275 505 C149 505 64 451 64 315 L64 192 C64 130 93 75 136 28 L74 28 C66 28 60 22 60 14 C60 6 66 0 74 0 L178 0 C187 0 195 7 195 16 C195 23 190 29 184 32 C146 56 99 118 99 191 L99 332 C99 429 186 474 275 474 L275 474 Z " />
<glyph glyph-name="partialdiff" unicode="&#x2202;" horiz-adv-x="436" d="M95 210 C95 288 95 337 206 337 C311 337 341 283 341 227 L341 152 C341 97 341 27 219 27 C95 27 95 77 95 152 L95 210 Z M341 328 L336 328 C285 368 244 368 206 368 C60 368 60 297 60 211 L60 151 C60 65 65 -5 219 -5 C250 -5 298 -5 341 41 L341 18 C341 8 349 0 359 0 C369 0 376 8 376 18 L376 363 C376 473 309 505 208 505 C179 505 145 503 112 496 C106 494 99 488 99 481 C99 473 106 466 114 466 C115 466 118 467 119 467 C145 473 170 474 198 474 C298 474 341 447 341 364 L341 328 Z " />
<glyph glyph-name="Delta" unicode="&#x2206;" horiz-adv-x="530" d="M293 482 C288 493 277 501 265 501 C253 501 242 493 237 482 L60 19 C60 9 71 0 81 0 L449 0 C459 0 470 9 470 19 L293 482 Z M100 32 L265 470 L430 32 L100 32 Z " />
<glyph glyph-name="product" unicode="&#x220f;" horiz-adv-x="511" d="M336 -162 C336 -172 344 -180 354 -180 C364 -180 371 -172 371 -162 L371 474 L437 474 C445 474 451 479 451 487 C451 495 445 501 437 501 L74 501 C66 501 60 495 60 487 C60 479 66 474 74 474 L140 474 L140 -162 C140 -172 148 -180 158 -180 C168 -180 175 -172 175 -162 L175 474 L336 474 L336 -162 Z " />
<glyph glyph-name="summation" unicode="&#x2211;" horiz-adv-x="450" d="M82 500 C69 500 60 489 60 477 C60 474 61 469 62 465 L183 177 C184 175 185 173 185 170 C185 168 185 167 184 165 L62 -125 C61 -129 60 -134 60 -137 C60 -149 69 -160 82 -160 L374 -160 C383 -160 390 -154 390 -145 C390 -136 383 -129 374 -129 L100 -129 L222 165 C223 167 223 168 223 170 C223 173 222 175 221 177 L100 469 L374 469 C383 469 390 475 390 484 C390 493 383 500 374 500 L82 500 Z " />
<glyph glyph-name="minus" unicode="&#x2212;" horiz-adv-x="486" d="M412 179 C420 179 426 184 426 192 C426 200 420 206 412 206 L74 206 C66 206 60 200 60 192 C60 184 66 179 74 179 L412 179 Z " />
<glyph glyph-name="radical" unicode="&#x221a;" horiz-adv-x="585" d="M229 0 C243 0 256 9 260 22 L441 494 L511 494 C519 494 525 499 525 507 C525 515 519 521 511 521 L427 521 C419 520 413 516 411 511 L229 42 L94 390 C92 396 84 400 76 400 C67 400 60 393 60 383 L198 22 C202 9 215 0 229 0 L229 0 Z " />
<glyph glyph-name="infinity" unicode="&#x221e;" horiz-adv-x="920" d="M461 235 C515 168 601 98 688 98 C806 98 860 130 860 255 L860 269 C860 393 806 426 688 426 C596 426 525 365 459 287 C395 365 324 426 232 426 C114 426 60 393 60 269 L60 255 C60 130 114 98 232 98 C319 98 405 168 461 235 L461 235 Z M232 395 C302 395 375 333 440 260 C375 186 304 128 232 128 C139 128 94 150 94 255 L94 269 C94 373 139 395 232 395 L232 395 Z M688 395 C781 395 826 373 826 269 L826 255 C826 150 781 128 688 128 C616 128 545 186 480 260 C545 333 618 395 688 395 L688 395 Z " />
<glyph glyph-name="integral" unicode="&#x222b;" horiz-adv-x="461" d="M213 -48 C213 -123 200 -152 139 -152 C110 -152 97 -151 77 -145 C68 -145 60 -152 60 -162 C60 -169 66 -176 73 -178 C99 -184 119 -184 148 -184 C218 -184 248 -156 248 -48 L248 385 C248 460 261 489 322 489 C351 489 364 488 384 482 C393 482 401 489 401 499 C401 506 395 513 388 515 C362 521 342 521 313 521 C243 521 213 493 213 385 L213 -48 Z " />
<glyph glyph-name="approxequal" unicode="&#x2248;" horiz-adv-x="465" d="M384 229 C367 217 355 214 330 214 C266 214 203 277 136 277 C110 277 86 273 64 259 C62 256 60 252 60 248 C60 240 66 234 74 234 C76 234 79 234 81 235 C97 247 110 250 136 250 C200 250 263 187 329 187 C357 187 380 192 400 205 C403 209 405 212 405 216 C405 224 399 230 391 230 C389 230 386 230 384 229 L384 229 Z M384 116 C367 104 355 101 330 101 C266 101 203 164 136 164 C110 164 86 160 64 146 C62 143 60 139 60 135 C60 127 66 121 74 121 C76 121 79 121 81 122 C97 134 110 137 136 137 C200 137 263 74 329 74 C357 74 380 79 400 92 C403 96 405 99 405 103 C405 111 399 117 391 117 C389 117 386 117 384 116 L384 116 Z " />
<glyph glyph-name="notequal" unicode="&#x2260;" horiz-adv-x="372" d="M116 9 C116 0 123 -7 132 -7 C139 -7 145 -3 147 3 L175 96 L299 96 C307 96 312 101 312 109 C312 116 307 122 299 122 L183 122 L222 251 L299 251 C307 251 312 256 312 264 C312 272 307 278 299 278 L230 278 L256 364 C256 373 249 380 240 380 C233 380 227 376 225 370 L197 278 L73 278 C65 278 60 272 60 264 C60 256 65 251 73 251 L189 251 L150 122 L73 122 C65 122 60 116 60 109 C60 101 65 96 73 96 L142 96 L116 9 Z " />
<glyph glyph-name="lessequal" unicode="&#x2264;" horiz-adv-x="431" d="M94 207 L94 221 L99 221 L362 335 C367 338 371 343 371 350 C371 359 364 366 355 366 L83 250 C69 244 60 230 60 214 C60 198 69 184 83 178 L355 62 C364 62 371 69 371 78 C371 85 367 90 362 93 L99 207 L94 207 Z M74 0 C66 0 60 5 60 13 C60 21 66 27 74 27 L357 27 C365 27 371 21 371 13 C371 5 365 0 357 0 L74 0 Z " />
<glyph glyph-name="greaterequal" unicode="&#x2265;" horiz-adv-x="431" d="M332 207 L69 93 C64 90 60 85 60 78 C60 69 67 62 76 62 L348 178 C362 184 371 198 371 214 C371 230 362 244 348 250 L76 366 C67 366 60 359 60 350 C60 343 64 338 69 335 L332 221 L337 221 L337 207 L332 207 Z M74 0 C66 0 60 5 60 13 C60 21 66 27 74 27 L357 27 C365 27 371 21 371 13 C371 5 365 0 357 0 L74 0 Z " />
<glyph glyph-name="lozenge" unicode="&#x25ca;" horiz-adv-x="370" d="M185 32 L95 243 C94 246 94 248 94 251 C94 254 95 257 96 260 L185 469 L274 260 C275 257 276 254 276 251 C276 248 276 246 275 243 L185 32 Z M185 0 C198 0 209 6 215 16 C248 99 276 162 309 243 C310 246 310 248 310 251 C310 254 309 257 308 260 L215 484 C209 494 198 500 185 500 C172 500 161 494 155 484 L62 260 C61 257 60 254 60 251 C60 248 60 246 61 243 C94 162 122 99 155 16 C161 6 172 0 185 0 L185 0 Z " />
<glyph glyph-name="uni25CC" unicode="&#x25cc;" horiz-adv-x="512" d="" />
<glyph glyph-name="fi" unicode="&#xfb01;" horiz-adv-x="392" d="M228 553 C203 558 184 558 176 558 C112 558 86 530 86 426 L86 400 L30 400 C21 400 15 393 15 384 C15 375 21 369 30 369 L86 369 L86 17 C86 7 93 0 103 0 C113 0 121 7 121 17 L121 369 L221 369 C230 369 236 375 236 384 C236 393 230 400 221 400 L121 400 L121 426 C121 509 127 526 185 526 C197 526 206 526 222 524 C231 524 238 530 238 538 C238 545 234 551 228 553 L228 553 Z M332 18 C332 8 325 0 315 0 C305 0 297 8 297 18 L297 382 C297 392 305 400 315 400 C325 400 332 392 332 382 L332 18 Z M332 498 C332 508 325 516 315 516 C305 516 297 508 297 498 L297 477 C297 467 305 459 315 459 C325 459 332 467 332 477 L332 498 Z " />
<glyph glyph-name="fl" unicode="&#xfb02;" horiz-adv-x="392" d="M228 553 C203 558 184 558 176 558 C112 558 86 530 86 426 L86 400 L30 400 C21 400 15 393 15 384 C15 375 21 369 30 369 L86 369 L86 17 C86 7 93 0 103 0 C113 0 121 7 121 17 L121 369 L221 369 C230 369 236 375 236 384 C236 393 230 400 221 400 L121 400 L121 426 C121 509 127 526 185 526 C197 526 206 526 222 524 C231 524 238 530 238 538 C238 545 234 551 228 553 L228 553 Z M332 482 C332 492 325 500 315 500 C305 500 297 492 297 482 L297 18 C297 8 305 0 315 0 C325 0 332 8 332 18 L332 482 Z " />
</font>
</svg>
