<?xml version="1.0" encoding="UTF-8"?>
<svg xmlns="http://www.w3.org/2000/svg" xmlns:xlink="http://www.w3.org/1999/xlink" version="1.2" >
<font id="Quan Rounded ExtraLight">
<font-face  font-family="Quan Rounded" units-per-em="1000" ascent="750" descent="-250" font-style="normal" font-weight="200" font-stretch="normal" cap-height="400" x-height="500" underline-position="-91" underline-thickness="35" />
<missing-glyph  horiz-adv-x="569" d="M539 0 L539 628 L30 628 L30 0 L539 0 Z M76 35 C76 41 73 45 68 46 L76 46 L76 35 L76 35 Z M493 590 C493 585 496 582 501 582 L493 582 L493 590 L493 590 Z M501 46 C496 45 493 42 493 37 L493 46 L501 46 L501 46 Z M68 582 C73 582 75 585 76 590 L76 582 L68 582 L68 582 Z M76 582 L493 582 L493 46 L76 46 L76 582 Z " />
<glyph glyph-name="space" unicode="&#x20;" horiz-adv-x="185" d="" />
<glyph glyph-name="exclam" unicode="&#x21;" horiz-adv-x="150" d="M90 485 C90 493 83 500 75 500 C67 500 60 493 60 485 L63 91 C63 84 68 79 75 79 C82 79 87 84 87 91 L90 485 Z M62 14 C62 6 68 0 76 0 C84 0 89 6 89 14 L89 30 C89 38 84 44 76 44 C68 44 62 38 62 30 L62 14 Z " />
<glyph glyph-name="quotedbl" unicode="&#x22;" horiz-adv-x="211" d="M66 427 C66 423 71 419 75 419 C80 419 85 423 85 427 L90 521 C90 529 83 536 75 536 C67 536 60 529 60 521 L66 427 Z M127 427 C127 423 132 419 136 419 C141 419 146 423 146 427 L151 521 C151 529 144 536 136 536 C128 536 121 529 121 521 L127 427 Z " />
<glyph glyph-name="numbersign" unicode="&#x23;" horiz-adv-x="629" d="M179 167 L238 346 L451 346 L393 167 L179 167 Z M557 346 C564 346 569 351 569 358 C569 365 564 371 557 371 L483 371 L521 488 C521 495 515 500 508 500 C503 500 498 497 497 492 L458 371 L245 371 L283 488 C283 495 277 500 270 500 C265 500 260 497 259 492 L220 371 L136 371 C129 371 124 365 124 358 C124 351 129 346 136 346 L211 346 L155 167 L72 167 C65 167 60 161 60 154 C60 147 65 142 72 142 L146 142 L105 12 C105 5 111 0 118 0 C123 0 128 3 129 8 L172 142 L384 142 L342 10 C343 4 349 0 355 0 C360 0 365 3 366 8 C380 53 396 97 410 142 L493 142 C500 142 505 147 505 154 C505 161 500 167 493 167 L417 167 L476 346 L557 346 Z " />
<glyph glyph-name="dollar" unicode="&#x24;" horiz-adv-x="488" d="M428 135 C428 208 340 237 254 264 L254 480 C298 480 352 476 391 469 C399 469 405 475 405 482 C405 488 402 493 397 495 C351 504 295 505 254 505 L254 549 C254 556 249 561 242 561 C235 561 230 556 230 549 L230 505 C128 501 64 468 64 379 C64 305 146 273 230 246 L230 20 C192 21 136 26 74 57 C67 57 60 50 60 41 C60 36 63 31 67 29 C115 7 182 -2 230 -5 L230 -49 C230 -56 235 -61 242 -61 C249 -61 254 -56 254 -49 L254 -5 C337 -5 428 4 428 135 L428 135 Z M88 379 C88 436 114 475 230 479 L230 272 C155 296 88 322 88 379 L88 379 Z M254 20 L254 238 C332 213 404 189 404 135 C404 29 329 20 254 20 L254 20 Z " />
<glyph glyph-name="percent" unicode="&#x25;" horiz-adv-x="555" d="M146 279 C192 279 231 293 231 344 L231 433 C231 478 189 500 146 500 C102 500 60 478 60 433 L60 344 C60 293 99 279 146 279 L146 279 Z M146 477 C191 477 207 455 207 436 L207 341 C207 317 191 302 146 302 C99 302 84 317 84 341 L84 436 C84 455 99 477 146 477 L146 477 Z M410 1 C456 1 495 15 495 66 L495 155 C495 200 453 222 410 222 C366 222 324 200 324 155 L324 66 C324 15 363 1 410 1 L410 1 Z M410 199 C455 199 471 177 471 158 L471 63 C471 39 455 24 410 24 C363 24 348 39 348 63 L348 158 C348 177 363 199 410 199 L410 199 Z M392 488 C392 495 387 500 380 500 C375 500 371 496 369 491 L160 12 C160 5 165 0 172 0 C177 0 181 4 183 9 L392 488 Z " />
<glyph glyph-name="ampersand" unicode="&#x26;" horiz-adv-x="519" d="M410 56 C437 92 454 137 459 193 C459 200 454 205 447 205 C440 205 436 200 436 193 C433 149 414 104 391 72 C338 117 275 177 227 236 C311 271 374 313 374 377 C374 463 364 505 263 505 C161 505 154 463 154 377 C154 340 163 300 193 246 C127 219 60 182 60 122 C60 -5 149 -5 243 -5 C285 -5 340 -4 393 36 L431 3 C433 1 436 0 439 0 C446 0 451 5 451 12 C451 15 450 18 448 20 L410 56 Z M178 377 C178 451 182 480 263 480 C346 480 350 451 350 377 C350 319 287 290 215 256 C189 301 178 338 178 377 L178 377 Z M245 21 C160 21 84 21 84 122 C84 174 138 196 205 225 C236 186 283 139 375 54 C321 23 280 21 245 21 L245 21 Z " />
<glyph glyph-name="quotesingle" unicode="&#x27;" horiz-adv-x="150" d="M66 427 C66 423 71 419 75 419 C80 419 85 423 85 427 L90 521 C90 529 83 536 75 536 C67 536 60 529 60 521 L66 427 Z " />
<glyph glyph-name="parenleft" unicode="&#x28;" horiz-adv-x="173" d="M89 -47 C90 -53 94 -58 101 -58 C108 -58 113 -53 113 -46 C94 47 84 172 84 252 C84 339 94 452 113 546 C113 553 108 558 101 558 C94 558 90 553 89 547 C71 450 60 336 60 252 C60 170 71 48 89 -47 L89 -47 Z " />
<glyph glyph-name="parenright" unicode="&#x29;" horiz-adv-x="173" d="M84 -47 C102 48 113 170 113 252 C113 336 102 450 84 547 C83 553 79 558 72 558 C65 558 60 553 60 546 C79 452 89 339 89 252 C89 172 79 47 60 -46 C60 -53 65 -58 72 -58 C79 -58 83 -53 84 -47 L84 -47 Z " />
<glyph glyph-name="asterisk" unicode="&#x2a;" horiz-adv-x="340" d="M170 536 C162 536 155 529 155 521 L159 439 L75 468 C66 468 60 460 60 451 C60 443 64 438 71 436 C97 430 123 422 149 416 L90 339 C88 336 87 333 87 329 C87 320 94 313 103 313 C109 313 113 315 116 319 L170 403 L224 319 C227 315 231 313 237 313 C246 313 253 320 253 329 C253 333 252 336 250 339 L191 416 C217 422 243 430 269 436 C276 438 280 443 280 451 C280 460 274 468 265 468 L181 439 L185 521 C185 529 178 536 170 536 L170 536 Z " />
<glyph glyph-name="plus" unicode="&#x2b;" horiz-adv-x="469" d="M221 25 C221 18 226 13 233 13 C240 13 245 18 245 25 L245 180 L397 180 C404 180 409 185 409 192 C409 199 404 205 397 205 L245 205 L245 358 C245 365 240 370 233 370 C226 370 221 365 221 358 L221 205 L72 205 C65 205 60 199 60 192 C60 185 65 180 72 180 L221 180 L221 25 Z " />
<glyph glyph-name="comma" unicode="&#x2c;" horiz-adv-x="106" d="M76 42 C76 51 70 57 61 57 C53 57 49 51 47 42 L30 -33 C30 -39 35 -43 41 -43 C47 -43 51 -40 52 -36 L76 42 Z " />
<glyph glyph-name="hyphen" unicode="&#x2d;" horiz-adv-x="371" d="M72 205 C65 205 60 199 60 192 C60 185 65 180 72 180 L299 180 C306 180 311 185 311 192 C311 199 306 205 299 205 L72 205 Z " />
<glyph glyph-name="period" unicode="&#x2e;" horiz-adv-x="147" d="M60 14 C60 6 66 0 74 0 C82 0 87 6 87 14 L87 30 C87 38 82 44 74 44 C66 44 60 38 60 30 L60 14 Z " />
<glyph glyph-name="slash" unicode="&#x2f;" horiz-adv-x="307" d="M60 12 C60 5 66 0 73 0 C79 0 84 4 85 9 L247 546 C247 553 241 558 234 558 C228 558 223 554 222 549 L60 12 Z " />
<glyph glyph-name="zero" unicode="0" horiz-adv-x="481" d="M240 20 C90 20 84 62 84 180 L84 322 C84 441 90 480 240 480 C391 480 397 441 397 322 L397 180 C397 62 391 20 240 20 L240 20 Z M240 -5 C420 -5 421 61 421 178 L421 325 C421 444 420 505 240 505 C61 505 60 444 60 325 L60 178 C60 61 61 -5 240 -5 L240 -5 Z " />
<glyph glyph-name="one" unicode="1" horiz-adv-x="267" d="M193 500 C184 500 178 500 171 496 L15 399 C12 397 10 394 10 389 C10 382 14 378 21 378 C24 378 27 379 29 380 L183 475 L183 12 C183 5 188 0 195 0 C202 0 207 5 207 12 L207 486 C207 494 201 500 193 500 L193 500 Z " />
<glyph glyph-name="two" unicode="2" horiz-adv-x="386" d="M71 26 C113 149 352 239 352 375 C352 437 352 505 196 505 C72 505 49 452 45 402 C45 395 50 390 57 390 C63 390 68 393 69 399 C73 446 94 480 197 480 C323 480 328 437 328 373 C328 249 67 153 45 17 C45 7 54 0 64 0 L339 0 C346 0 352 6 352 13 C352 20 346 26 339 26 L71 26 Z " />
<glyph glyph-name="three" unicode="3" horiz-adv-x="404" d="M205 238 C310 229 320 184 320 127 C320 63 316 20 191 20 C90 20 63 54 59 100 C57 105 53 109 47 109 C41 109 36 105 35 100 C39 49 63 -5 189 -5 C339 -5 344 52 344 128 C344 163 340 226 288 246 C341 268 344 328 344 365 L344 375 C344 448 338 505 188 505 C64 505 38 458 35 401 C35 394 40 389 47 389 C54 389 59 394 59 401 C63 447 88 480 189 480 C315 480 320 437 320 373 C320 310 318 262 205 262 L187 262 C180 262 175 257 175 250 C175 243 180 238 187 238 L205 238 Z " />
<glyph glyph-name="four" unicode="4" horiz-adv-x="392" d="M41 189 L271 474 L271 189 L41 189 Z M271 164 L271 12 C271 5 276 0 283 0 C290 0 295 5 295 12 L295 164 L349 164 C356 164 362 169 362 176 C362 183 356 189 349 189 L295 189 L295 478 C295 491 286 500 273 500 C266 500 261 497 257 493 L18 198 C10 188 10 184 10 178 C10 170 16 164 24 164 L271 164 Z " />
<glyph glyph-name="five" unicode="5" horiz-adv-x="413" d="M76 500 C67 500 60 493 60 484 L60 251 C60 241 68 233 78 233 C84 233 89 235 93 239 C118 271 176 275 210 275 L215 275 C340 275 345 204 345 140 C345 79 340 21 215 21 C111 21 87 51 84 98 C82 102 78 105 73 105 C66 105 61 100 61 93 C66 41 90 -5 213 -5 C364 -5 369 68 369 141 C369 215 364 301 213 301 C175 301 128 301 84 272 L84 474 L339 474 C346 474 352 480 352 487 C352 494 346 500 339 500 L76 500 Z " />
<glyph glyph-name="six" unicode="6" horiz-adv-x="388" d="M74 137 C74 204 77 260 204 260 C329 260 334 204 334 140 C334 79 329 20 204 20 C79 20 74 76 74 137 L74 137 Z M323 472 C329 472 334 478 334 484 C334 489 329 494 324 495 C286 502 242 505 214 505 C117 505 50 471 50 365 L50 129 C50 69 54 -5 202 -5 C353 -5 358 66 358 141 C358 215 353 286 202 286 C160 286 117 284 74 250 L74 367 C74 454 134 480 213 480 C241 480 285 479 323 472 L323 472 Z " />
<glyph glyph-name="seven" unicode="7" horiz-adv-x="340" d="M315 485 C315 493 308 500 300 500 L22 500 C15 500 10 494 10 487 C10 480 15 475 22 475 L290 475 L148 15 C148 6 154 0 161 0 C166 0 171 4 173 8 C302 432 310 454 312 462 C313 466 315 476 315 479 L315 485 Z " />
<glyph glyph-name="eight" unicode="8" horiz-adv-x="410" d="M205 20 C87 20 74 63 74 127 C74 192 78 238 205 238 C332 238 336 192 336 127 C336 63 323 20 205 20 L205 20 Z M205 263 C78 263 74 308 74 373 C74 437 78 480 205 480 C332 480 336 437 336 373 C336 308 332 263 205 263 L205 263 Z M205 -5 C327 -5 360 32 360 128 C360 164 360 226 300 250 C359 274 360 337 360 375 C360 441 354 505 205 505 C56 505 50 441 50 375 C50 337 51 274 110 250 C50 226 50 164 50 128 C50 32 83 -5 205 -5 L205 -5 Z " />
<glyph glyph-name="nine" unicode="9" horiz-adv-x="389" d="M315 363 C315 296 311 240 184 240 C59 240 55 296 55 360 C55 421 59 480 184 480 C309 480 315 424 315 363 L315 363 Z M64 28 C57 28 53 23 53 16 C53 9 57 5 64 5 C103 -2 146 -5 174 -5 C272 -5 339 29 339 135 L339 368 C339 428 334 505 187 505 C35 505 30 431 30 356 C30 282 35 214 187 214 C228 214 273 216 315 249 L315 133 C315 45 255 20 175 20 C147 20 102 21 64 28 L64 28 Z " />
<glyph glyph-name="colon" unicode="&#x3a;" horiz-adv-x="147" d="M60 14 C60 6 66 0 74 0 C82 0 87 6 87 14 L87 30 C87 38 82 44 74 44 C66 44 60 38 60 30 L60 14 Z M60 307 C60 299 66 293 74 293 C82 293 87 299 87 307 L87 323 C87 331 82 337 74 337 C66 337 60 331 60 323 L60 307 Z " />
<glyph glyph-name="semicolon" unicode="&#x3b;" horiz-adv-x="166" d="M78 307 C78 299 84 293 92 293 C100 293 105 299 105 307 L105 323 C105 331 100 337 92 337 C84 337 78 331 78 323 L78 307 Z M106 42 C106 51 100 57 91 57 C83 57 79 51 77 42 L60 -33 C60 -39 65 -43 71 -43 C77 -43 81 -40 82 -36 L106 42 Z " />
<glyph glyph-name="less" unicode="&#x3c;" horiz-adv-x="431" d="M91 164 L91 172 L97 172 L362 297 C367 298 371 303 371 309 C371 316 366 321 359 321 C357 321 355 321 353 320 L69 185 C63 182 60 175 60 168 C60 161 63 154 69 151 L353 16 C355 15 357 15 359 15 C366 15 371 20 371 27 C371 33 367 38 362 39 L97 164 L91 164 Z " />
<glyph glyph-name="equal" unicode="&#x3d;" horiz-adv-x="384" d="M72 270 C65 270 60 264 60 257 C60 250 65 245 72 245 L312 245 C319 245 324 250 324 257 C324 264 319 270 312 270 L72 270 Z M72 127 C65 127 60 121 60 114 C60 107 65 102 72 102 L312 102 C319 102 324 107 324 114 C324 121 319 127 312 127 L72 127 Z " />
<glyph glyph-name="greater" unicode="&#x3e;" horiz-adv-x="431" d="M334 164 L69 39 C64 38 60 33 60 27 C60 20 65 15 72 15 C74 15 76 15 78 16 L362 151 C368 154 371 161 371 168 C371 175 368 182 362 185 L78 320 C76 321 74 321 72 321 C65 321 60 316 60 309 C60 303 64 298 69 297 L334 172 L340 172 L340 164 L334 164 Z " />
<glyph glyph-name="question" unicode="&#x3f;" horiz-adv-x="363" d="M79 467 C104 476 132 480 161 480 C258 480 279 462 279 407 C279 318 133 296 133 198 L133 98 C133 91 138 86 145 86 C152 86 157 91 157 98 L157 197 C157 285 303 300 303 407 C303 488 258 505 163 505 C135 505 99 501 69 492 C64 490 60 485 60 479 C60 472 66 466 73 466 C75 466 77 466 79 467 L79 467 Z M132 14 C132 6 138 0 146 0 C154 0 159 6 159 14 L159 30 C159 38 154 44 146 44 C138 44 132 38 132 30 L132 14 Z " />
<glyph glyph-name="at" unicode="&#x40;" horiz-adv-x="644" d="M199 240 C199 289 201 348 298 348 C388 348 416 302 416 256 L416 200 C416 151 416 85 307 85 C201 85 199 151 199 200 L199 240 Z M502 -12 C467 -23 426 -26 382 -26 L261 -26 C168 -26 84 1 84 85 L84 366 C84 423 145 481 261 481 L382 481 C498 481 560 423 560 366 L560 129 C560 76 529 76 498 76 C473 76 441 76 441 129 L441 362 C441 369 435 375 428 375 C421 375 416 369 416 362 L416 331 L412 331 C389 373 309 373 299 373 C183 373 173 310 173 240 L173 199 C173 131 186 60 307 60 C329 60 396 68 421 100 C425 76 449 53 498 53 C562 53 584 70 584 122 L584 366 C584 460 476 505 382 505 L261 505 C153 505 60 460 60 366 L60 85 C60 -20 151 -51 261 -51 L382 -51 C431 -51 475 -49 509 -36 C513 -34 515 -31 515 -26 C515 -18 510 -12 502 -12 L502 -12 Z " />
<glyph glyph-name="A" unicode="A" horiz-adv-x="424" d="M413 16 L231 486 C228 494 220 500 212 500 C204 500 196 494 193 486 L11 16 C10 15 10 13 10 11 C10 5 15 0 21 0 C26 0 31 3 33 7 L97 174 L327 174 L391 7 C393 3 398 0 403 0 C409 0 414 5 414 11 C414 13 414 15 413 16 L413 16 Z M108 199 L212 470 L316 199 L108 199 Z " />
<glyph glyph-name="B" unicode="B" horiz-adv-x="472" d="M403 368 C403 265 321 262 263 262 L84 262 L84 475 L263 475 C347 475 403 471 403 368 L403 368 Z M263 25 L84 25 L84 237 L263 237 C321 237 403 237 403 133 C403 30 346 25 263 25 L263 25 Z M60 16 C60 7 67 0 76 0 L264 0 C350 0 427 1 427 133 C427 179 410 226 360 249 C411 273 427 317 427 368 C427 500 350 500 264 500 L76 500 C67 500 60 493 60 484 L60 16 Z " />
<glyph glyph-name="C" unicode="C" horiz-adv-x="455" d="M407 32 C360 23 298 20 258 20 C146 20 74 65 74 167 L74 334 C74 436 146 480 258 480 C297 480 359 478 406 469 C413 469 418 474 418 480 C418 487 412 493 405 493 C356 501 294 505 260 505 C135 505 50 456 50 321 L50 174 C50 39 135 -5 260 -5 C297 -5 359 -1 410 8 C416 9 420 13 420 19 C420 27 415 32 407 32 L407 32 Z " />
<glyph glyph-name="D" unicode="D" horiz-adv-x="485" d="M226 475 C317 475 411 439 411 327 L411 173 C411 52 312 25 226 25 L84 25 L84 475 L226 475 Z M60 16 C60 7 67 0 76 0 L224 0 C349 0 435 44 435 180 L435 319 C435 458 334 500 224 500 L76 500 C67 500 60 493 60 484 L60 16 Z " />
<glyph glyph-name="E" unicode="E" horiz-adv-x="436" d="M334 237 C341 237 347 242 347 249 C347 256 341 262 334 262 L84 262 L84 475 L370 475 C377 475 383 480 383 487 C383 494 377 500 370 500 L76 500 C67 500 60 493 60 484 L60 16 C60 7 67 0 76 0 L370 0 C377 0 383 5 383 12 C383 19 377 25 370 25 L84 25 L84 237 L334 237 Z " />
<glyph glyph-name="F" unicode="F" horiz-adv-x="413" d="M60 12 C60 5 65 0 72 0 C79 0 84 5 84 12 L84 237 L334 237 C341 237 347 242 347 249 C347 256 341 262 334 262 L84 262 L84 475 L370 475 C377 475 383 480 383 487 C383 494 377 500 370 500 L76 500 C67 500 60 493 60 484 L60 12 Z " />
<glyph glyph-name="G" unicode="G" horiz-adv-x="470" d="M305 247 C298 247 293 241 293 234 C293 227 298 222 305 222 L396 222 L396 29 C354 22 295 20 258 20 C146 20 74 65 74 167 L74 334 C74 436 146 480 258 480 C298 480 359 478 406 469 C413 469 418 474 418 480 C418 487 412 493 405 493 C356 501 293 505 260 505 C135 505 50 456 50 321 L50 174 C50 39 135 -5 260 -5 C297 -5 359 -1 410 8 C416 9 420 14 420 21 L420 234 C420 241 414 247 407 247 L305 247 Z " />
<glyph glyph-name="H" unicode="H" horiz-adv-x="477" d="M393 12 C393 5 398 0 405 0 C412 0 417 5 417 12 L417 488 C417 495 412 500 405 500 C398 500 393 495 393 488 L393 265 L84 265 L84 488 C84 495 79 500 72 500 C65 500 60 495 60 488 L60 12 C60 5 65 0 72 0 C79 0 84 5 84 12 L84 240 L393 240 L393 12 Z " />
<glyph glyph-name="I" unicode="I" horiz-adv-x="144" d="M60 12 C60 5 65 0 72 0 C79 0 84 5 84 12 L84 488 C84 495 79 500 72 500 C65 500 60 495 60 488 L60 12 Z " />
<glyph glyph-name="J" unicode="J" horiz-adv-x="353" d="M10 88 C10 21 32 -5 150 -5 L154 -5 C269 -5 293 18 293 89 L293 488 C293 495 288 500 281 500 C274 500 269 495 269 488 L269 93 C269 21 231 20 151 20 C71 20 34 21 34 94 C34 104 29 109 22 109 C15 109 10 104 10 97 L10 88 Z " />
<glyph glyph-name="K" unicode="K" horiz-adv-x="464" d="M415 498 C305 417 194 330 84 249 L84 488 C84 495 79 500 72 500 C65 500 60 495 60 488 L60 12 C60 5 65 0 72 0 C79 0 84 5 84 12 L84 220 C132 254 177 291 226 326 L425 6 C427 2 431 0 436 0 C443 0 449 6 449 13 L246 341 L430 478 C433 480 434 484 434 488 C434 495 429 500 422 500 C419 500 417 499 415 498 L415 498 Z " />
<glyph glyph-name="L" unicode="L" horiz-adv-x="393" d="M60 16 C60 7 67 0 76 0 L360 0 C367 0 373 5 373 12 C373 19 367 25 360 25 L84 25 L84 488 C84 495 79 500 72 500 C65 500 60 495 60 488 L60 16 Z " />
<glyph glyph-name="M" unicode="M" horiz-adv-x="582" d="M291 0 C301 0 310 7 313 16 L498 442 L498 12 C498 5 503 0 510 0 C517 0 522 5 522 12 L522 484 C522 494 516 500 507 500 C500 500 494 497 492 491 L291 28 L90 491 C88 497 82 500 75 500 C66 500 60 494 60 484 L60 12 C60 5 65 0 72 0 C79 0 84 5 84 12 L84 442 L269 16 C272 7 281 0 291 0 L291 0 Z " />
<glyph glyph-name="N" unicode="N" horiz-adv-x="499" d="M439 488 C439 495 434 500 427 500 C420 500 415 495 415 488 L415 33 L92 492 C89 497 83 500 77 500 C67 500 60 492 60 482 L60 12 C60 5 65 0 72 0 C79 0 84 5 84 12 L84 462 L403 8 C406 3 412 0 419 0 C430 0 439 8 439 19 L439 488 Z " />
<glyph glyph-name="O" unicode="O" horiz-adv-x="489" d="M247 505 C61 505 50 429 50 313 L50 179 C50 65 60 -5 247 -5 C431 -5 439 65 439 179 L439 313 C439 429 430 505 247 505 L247 505 Z M247 20 C94 20 74 59 74 177 L74 322 C74 441 94 480 247 480 C394 480 415 441 415 322 L415 177 C415 59 394 20 247 20 L247 20 Z " />
<glyph glyph-name="P" unicode="P" horiz-adv-x="433" d="M244 212 L84 212 L84 475 L244 475 C317 475 384 471 384 347 C384 214 316 212 244 212 L244 212 Z M60 12 C60 5 65 0 72 0 C79 0 84 5 84 12 L84 187 L253 187 C338 187 408 198 408 347 C408 496 338 500 253 500 L76 500 C67 500 60 493 60 484 L60 12 Z " />
<glyph glyph-name="Q" unicode="Q" horiz-adv-x="489" d="M236 -67 C236 -74 241 -79 248 -79 L341 -79 C347 -79 352 -74 352 -68 C352 -62 347 -57 341 -57 L260 -57 L260 -5 C431 -1 439 67 439 179 L439 313 C439 429 430 505 247 505 C61 505 50 429 50 313 L50 179 C50 67 60 -2 236 -5 L236 -67 Z M247 20 C94 20 74 59 74 177 L74 322 C74 441 94 480 247 480 C394 480 415 441 415 322 L415 177 C415 59 394 20 247 20 L247 20 Z " />
<glyph glyph-name="R" unicode="R" horiz-adv-x="453" d="M244 212 L84 212 L84 475 L244 475 C317 475 384 471 384 347 C384 214 316 212 244 212 L244 212 Z M380 9 C381 3 385 0 391 0 C398 0 404 4 404 11 L345 200 C382 219 408 261 408 347 C408 496 338 500 253 500 L76 500 C67 500 60 493 60 484 L60 12 C60 5 65 0 72 0 C79 0 84 5 84 12 L84 187 L253 187 C278 187 302 187 322 192 L380 9 Z " />
<glyph glyph-name="S" unicode="S" horiz-adv-x="448" d="M54 57 C47 57 40 50 40 41 C40 36 43 31 47 29 C103 3 184 -5 232 -5 C316 -5 408 3 408 135 C408 278 68 252 68 379 C68 440 98 480 234 480 C278 480 332 476 371 469 C379 469 385 475 385 482 C385 488 382 493 377 495 C330 504 272 505 231 505 C117 505 44 474 44 379 C44 229 384 252 384 135 C384 26 305 20 228 20 C191 20 127 21 54 57 L54 57 Z " />
<glyph glyph-name="T" unicode="T" horiz-adv-x="381" d="M171 12 C171 5 176 0 183 0 C190 0 195 5 195 12 L195 475 L353 475 C361 475 366 480 366 487 C366 494 361 500 353 500 L28 500 C20 500 15 494 15 487 C15 480 20 475 28 475 L171 475 L171 12 Z " />
<glyph glyph-name="U" unicode="U" horiz-adv-x="524" d="M464 488 C464 495 459 500 452 500 C445 500 440 495 440 488 L440 176 C440 58 415 20 262 20 C109 20 84 58 84 176 L84 488 C84 495 79 500 72 500 C65 500 60 495 60 488 L60 174 C60 67 68 -5 262 -5 C456 -5 464 67 464 174 L464 488 Z " />
<glyph glyph-name="V" unicode="V" horiz-adv-x="438" d="M219 0 C229 0 238 7 241 16 L428 488 C428 495 423 501 416 501 C411 501 406 497 404 492 L219 26 L34 492 C32 497 27 501 22 501 C15 501 10 495 10 488 L197 16 C200 7 209 0 219 0 L219 0 Z " />
<glyph glyph-name="W" unicode="W" horiz-adv-x="642" d="M321 370 L495 8 C497 3 502 0 508 0 C516 0 522 6 522 14 L607 488 C607 495 603 500 596 500 C589 500 584 495 583 488 L504 45 C448 164 391 277 336 395 C333 401 328 405 321 405 C314 405 309 401 306 395 C251 277 194 164 138 45 L59 488 C58 495 53 500 46 500 C39 500 35 495 35 488 L120 14 C120 6 126 0 134 0 C140 0 145 3 147 8 L321 370 Z " />
<glyph glyph-name="X" unicode="X" horiz-adv-x="434" d="M217 231 L399 4 C401 2 404 0 407 0 C414 0 419 5 419 11 C419 14 418 17 416 19 L232 250 C298 331 352 401 417 481 C419 483 419 485 419 488 C419 495 414 500 407 500 C403 500 400 498 397 494 L217 269 L37 494 C34 498 31 500 27 500 C20 500 15 495 15 488 C15 485 15 483 17 481 C82 401 136 331 202 250 L18 19 C16 17 15 14 15 11 C15 5 20 0 27 0 C30 0 33 2 35 4 L217 231 Z " />
<glyph glyph-name="Y" unicode="Y" horiz-adv-x="424" d="M200 12 C200 5 205 0 212 0 C219 0 224 5 224 12 L224 216 L403 485 C404 487 404 488 404 489 C404 495 397 500 392 500 C387 500 383 498 381 495 L212 242 L43 495 C41 498 37 500 32 500 C27 500 20 495 20 489 C20 488 20 487 21 485 L200 216 L200 12 Z " />
<glyph glyph-name="Z" unicode="Z" horiz-adv-x="434" d="M414 483 C414 492 407 500 398 500 L32 500 C25 500 20 494 20 487 C20 480 25 475 32 475 L386 475 L26 32 C22 28 20 24 20 18 C20 8 28 0 38 0 L402 0 C409 0 414 5 414 12 C414 19 409 25 402 25 L53 25 L411 467 C414 476 414 477 414 483 L414 483 Z " />
<glyph glyph-name="bracketleft" unicode="&#x5b;" horiz-adv-x="203" d="M60 -44 C60 -52 66 -58 74 -58 L130 -58 C137 -58 143 -52 143 -45 C143 -38 137 -33 130 -33 L84 -33 L84 533 L130 533 C137 533 143 538 143 545 C143 552 137 558 130 558 L74 558 C66 558 60 552 60 544 L60 -44 Z " />
<glyph glyph-name="backslash" unicode="&#x5c;" horiz-adv-x="307" d="M85 549 C84 554 79 558 73 558 C66 558 60 553 60 546 L222 9 C223 4 228 0 234 0 C241 0 247 5 247 12 L85 549 Z " />
<glyph glyph-name="bracketright" unicode="&#x5d;" horiz-adv-x="203" d="M143 544 C143 552 137 558 129 558 L73 558 C66 558 60 552 60 545 C60 538 66 533 73 533 L119 533 L119 -33 L73 -33 C66 -33 60 -38 60 -45 C60 -52 66 -58 73 -58 L129 -58 C137 -58 143 -52 143 -44 L143 544 Z " />
<glyph glyph-name="asciicircum" unicode="&#x5e;" horiz-adv-x="314" d="M159 473 L159 469 L229 277 C231 272 235 269 242 269 C249 269 254 274 254 281 C254 283 254 286 253 288 L183 482 C179 493 170 503 157 503 C144 503 135 493 131 482 L61 288 C60 286 60 283 60 281 C60 274 65 269 72 269 C79 269 83 272 85 277 L155 469 L155 473 L159 473 Z " />
<glyph glyph-name="underscore" unicode="&#x5f;" horiz-adv-x="488" d="M72 -54 C65 -54 60 -60 60 -67 C60 -74 65 -79 72 -79 L416 -79 C423 -79 428 -74 428 -67 C428 -60 423 -54 416 -54 L72 -54 Z " />
<glyph glyph-name="grave" unicode="&#x60;" horiz-adv-x="167" d="M91 425 C92 422 96 419 99 419 C103 419 107 423 107 427 L90 521 C89 529 83 536 75 536 C66 536 60 529 60 521 C71 489 79 458 91 425 L91 425 Z " />
<glyph glyph-name="a" unicode="a" horiz-adv-x="391" d="M59 116 C59 197 156 203 193 203 C209 203 280 198 322 192 L322 104 C283 63 233 20 169 20 C94 20 59 53 59 116 L59 116 Z M79 394 C74 393 71 388 71 383 C71 376 75 371 82 371 C115 378 139 380 170 380 C274 380 322 358 322 265 L322 211 L315 211 C285 220 226 225 191 225 C117 225 35 208 35 114 C35 38 78 -5 170 -5 C215 -5 277 21 322 73 L322 12 C322 5 327 0 334 0 C341 0 346 5 346 12 L346 264 C346 373 280 405 179 405 C151 405 115 402 79 394 L79 394 Z " />
<glyph glyph-name="b" unicode="b" horiz-adv-x="418" d="M349 154 C349 77 344 20 214 20 C87 20 84 98 84 116 L84 312 C84 336 119 380 228 380 C344 380 349 329 349 248 L349 154 Z M60 12 C60 5 65 0 72 0 C79 0 84 5 84 12 L84 43 C117 1 186 -5 214 -5 C368 -5 373 65 373 150 L373 249 C373 335 373 405 228 405 C191 405 135 401 88 366 L84 366 L84 524 C84 531 79 536 72 536 C65 536 60 531 60 524 L60 12 Z " />
<glyph glyph-name="c" unicode="c" horiz-adv-x="374" d="M328 28 C291 21 244 20 214 20 C134 20 69 52 69 139 L69 262 C69 350 134 380 214 380 C240 380 285 380 327 371 C334 371 339 376 339 382 C339 388 336 393 330 394 C289 402 244 405 215 405 C116 405 45 365 45 256 L45 142 C45 34 116 -5 215 -5 C243 -5 289 -4 331 3 C337 4 340 10 340 16 C340 22 335 28 328 28 L328 28 Z " />
<glyph glyph-name="d" unicode="d" horiz-adv-x="418" d="M69 248 C69 329 74 380 190 380 C299 380 334 336 334 312 L334 116 C334 98 331 20 204 20 C74 20 69 77 69 154 L69 248 Z M358 524 C358 531 353 536 346 536 C339 536 334 531 334 524 L334 366 L330 366 C283 401 227 405 190 405 C45 405 45 335 45 249 L45 150 C45 65 50 -5 204 -5 C232 -5 301 1 334 43 L334 12 C334 5 339 0 346 0 C353 0 358 5 358 12 L358 524 Z " />
<glyph glyph-name="e" unicode="e" horiz-adv-x="402" d="M202 380 C315 380 333 338 333 274 L333 214 L69 214 C70 337 93 380 202 380 L202 380 Z M345 188 C352 188 357 193 357 200 L357 246 C357 347 339 405 202 405 C75 405 45 347 45 219 L45 137 C45 29 118 -5 216 -5 C246 -5 296 -3 337 4 C343 5 346 11 346 16 C346 22 341 28 334 28 C295 21 247 20 215 20 C137 20 69 48 69 136 L69 188 L345 188 Z " />
<glyph glyph-name="f" unicode="f" horiz-adv-x="229" d="M220 546 C190 550 175 550 169 550 C106 550 86 514 86 412 L86 400 L28 400 C20 400 15 394 15 386 C15 378 20 373 28 373 L86 373 L86 12 C86 5 91 0 98 0 C105 0 110 5 110 12 L110 373 L212 373 C220 373 225 378 225 386 C225 394 220 400 212 400 L110 400 L110 409 C110 502 117 527 178 527 C187 527 200 527 218 524 C224 524 229 529 229 535 C229 540 225 545 220 546 L220 546 Z " />
<glyph glyph-name="g" unicode="g" horiz-adv-x="418" d="M69 248 C69 329 74 380 190 380 C299 380 334 336 334 312 L334 116 C334 98 331 20 204 20 C74 20 69 77 69 154 L69 248 Z M98 -150 C91 -150 86 -155 86 -162 C86 -169 91 -175 98 -175 C134 -181 181 -184 205 -184 C297 -184 358 -156 358 -55 L358 388 C358 395 353 400 346 400 C339 400 334 395 334 388 L334 366 C283 401 227 405 190 405 C45 405 45 335 45 249 L45 150 C45 65 50 -5 204 -5 C232 -5 301 1 334 43 L334 -56 C334 -135 292 -159 196 -159 C169 -159 129 -157 98 -150 L98 -150 Z " />
<glyph glyph-name="h" unicode="h" horiz-adv-x="434" d="M60 12 C60 5 65 0 72 0 C79 0 84 5 84 12 L84 311 C84 337 120 380 222 380 C345 380 350 309 350 239 L350 12 C350 5 355 0 362 0 C369 0 374 5 374 12 L374 262 C374 345 343 405 226 405 C186 405 121 400 84 363 L84 524 C84 531 79 536 72 536 C65 536 60 531 60 524 L60 12 Z " />
<glyph glyph-name="i" unicode="i" horiz-adv-x="144" d="M60 12 C60 5 65 0 72 0 C79 0 84 5 84 12 L84 388 C84 395 79 400 72 400 C65 400 60 395 60 388 L60 12 Z M60 452 C60 445 65 440 72 440 C79 440 84 445 84 452 L84 467 C84 474 79 479 72 479 C65 479 60 474 60 467 L60 452 Z " />
<glyph glyph-name="j" unicode="j" horiz-adv-x="144" d="M60 452 C60 445 65 440 72 440 C79 440 84 445 84 452 L84 467 C84 474 79 479 72 479 C65 479 60 474 60 467 L60 452 Z M-74 -153 C-81 -153 -87 -159 -87 -166 C-87 -172 -83 -176 -78 -178 C-52 -184 -37 -184 -8 -184 C60 -184 84 -164 84 -57 L84 388 C84 395 79 400 72 400 C65 400 60 395 60 388 L60 -51 C60 -129 52 -159 -7 -159 C-35 -159 -53 -158 -74 -153 L-74 -153 Z " />
<glyph glyph-name="k" unicode="k" horiz-adv-x="409" d="M84 179 L84 524 C84 531 79 536 72 536 C65 536 60 531 60 524 L60 12 C60 5 65 0 72 0 C79 0 84 5 84 12 L84 150 L237 266 L371 7 C373 3 377 0 382 0 C389 0 394 5 394 12 C394 15 393 17 392 19 L256 280 L386 378 C389 380 391 384 391 388 C391 395 386 400 379 400 C377 400 375 400 373 399 L84 179 Z " />
<glyph glyph-name="l" unicode="l" horiz-adv-x="144" d="M60 12 C60 5 65 0 72 0 C79 0 84 5 84 12 L84 524 C84 531 79 536 72 536 C65 536 60 531 60 524 L60 12 Z " />
<glyph glyph-name="m" unicode="m" horiz-adv-x="574" d="M86 388 C86 395 80 400 73 400 C66 400 60 395 60 388 L60 12 C60 5 65 0 72 0 C79 0 84 5 84 12 L84 323 C84 328 97 380 190 380 C282 380 288 312 288 261 L288 12 C288 5 293 0 300 0 C307 0 312 5 312 12 L312 255 C312 283 312 294 304 336 C338 370 380 380 407 380 C489 380 505 326 505 245 L505 12 C505 5 510 0 517 0 C524 0 529 5 529 12 L529 258 C529 342 500 405 408 405 C396 405 341 401 295 358 C266 394 230 405 188 405 C178 405 120 405 86 366 L86 388 Z " />
<glyph glyph-name="n" unicode="n" horiz-adv-x="424" d="M350 12 C350 5 355 0 362 0 C369 0 374 5 374 12 L374 262 C374 345 343 405 226 405 C186 405 124 401 87 367 L86 388 C86 395 80 400 73 400 C66 400 60 395 60 388 L60 12 C60 5 65 0 72 0 C79 0 84 5 84 12 L84 311 C84 337 120 380 222 380 C345 380 350 309 350 239 L350 12 Z " />
<glyph glyph-name="o" unicode="o" horiz-adv-x="404" d="M202 405 C45 405 45 331 45 246 L45 151 C45 66 45 -5 202 -5 C359 -5 359 66 359 151 L359 246 C359 331 359 405 202 405 L202 405 Z M335 159 C335 66 330 20 202 20 C74 20 69 66 69 159 L69 239 C69 335 74 380 202 380 C330 380 335 334 335 239 L335 159 Z " />
<glyph glyph-name="p" unicode="p" horiz-adv-x="418" d="M349 152 C349 71 344 20 228 20 C119 20 84 64 84 88 L84 284 C84 302 87 380 214 380 C344 380 349 323 349 246 L349 152 Z M60 -172 C60 -179 65 -184 72 -184 C79 -184 84 -179 84 -172 L84 34 C131 -1 191 -5 228 -5 C373 -5 373 65 373 151 L373 250 C373 335 368 405 214 405 C186 405 117 399 88 357 L84 357 L84 388 C84 395 79 400 72 400 C65 400 60 395 60 388 L60 -172 Z " />
<glyph glyph-name="q" unicode="q" horiz-adv-x="418" d="M69 246 C69 323 74 380 204 380 C331 380 334 302 334 284 L334 88 C334 64 299 20 190 20 C74 20 69 71 69 152 L69 246 Z M358 388 C358 395 353 400 346 400 C339 400 334 395 334 388 L334 357 L330 357 C301 399 232 405 204 405 C50 405 45 335 45 250 L45 151 C45 65 45 -5 190 -5 C227 -5 287 -1 334 34 L334 -172 C334 -179 339 -184 346 -184 C353 -184 358 -179 358 -172 L358 388 Z " />
<glyph glyph-name="r" unicode="r" horiz-adv-x="240" d="M222 405 C182 403 124 393 91 362 L87 362 L86 388 C86 395 80 400 73 400 C66 400 60 395 60 388 L60 12 C60 5 65 0 72 0 C79 0 84 5 84 12 L84 306 C84 331 126 376 222 380 C229 380 235 385 235 392 C235 399 229 405 222 405 L222 405 Z " />
<glyph glyph-name="s" unicode="s" horiz-adv-x="365" d="M57 35 C49 35 44 29 44 21 C44 15 46 11 51 9 C91 0 147 -5 181 -5 C290 -5 325 24 325 105 C325 222 59 217 59 304 C59 357 91 380 183 380 C221 380 262 377 294 372 C300 372 305 377 305 383 C305 388 302 393 297 394 C260 402 213 405 183 405 C92 405 35 381 35 304 C35 191 301 203 301 105 C301 37 277 20 181 20 C154 20 98 25 57 35 L57 35 Z " />
<glyph glyph-name="t" unicode="t" horiz-adv-x="243" d="M209 0 C216 0 221 5 221 12 C221 19 216 25 209 25 L183 25 C134 25 120 41 120 106 L120 374 L207 374 C215 374 220 379 220 387 C220 394 215 400 207 400 L120 400 L120 507 C120 514 115 519 108 519 C101 519 96 514 96 507 L96 400 L28 400 C20 400 15 394 15 387 C15 379 20 374 28 374 L96 374 L96 104 C96 16 115 0 198 0 L209 0 Z " />
<glyph glyph-name="u" unicode="u" horiz-adv-x="419" d="M333 12 C333 5 339 0 346 0 C353 0 359 5 359 12 L359 388 C359 395 354 400 347 400 C340 400 335 395 335 388 L335 89 C335 63 299 20 197 20 C74 20 69 91 69 161 L69 388 C69 395 64 400 57 400 C50 400 45 395 45 388 L45 138 C45 55 76 -5 193 -5 C233 -5 295 -1 332 33 L333 12 Z " />
<glyph glyph-name="v" unicode="v" horiz-adv-x="358" d="M179 0 C189 0 198 7 201 16 L348 387 C348 394 343 400 336 400 C331 400 326 396 324 391 L179 26 L34 391 C32 396 27 400 22 400 C15 400 10 394 10 387 L157 16 C160 7 169 0 179 0 L179 0 Z " />
<glyph glyph-name="w" unicode="w" horiz-adv-x="506" d="M257 329 L375 10 C378 4 385 0 392 0 C399 0 405 4 408 10 C408 10 406 -3 486 387 C486 394 481 400 474 400 C467 400 461 394 461 387 L390 40 L279 340 C275 351 265 359 253 359 C241 359 231 351 227 340 L116 40 L45 387 C45 394 39 400 32 400 C25 400 20 394 20 387 C100 -3 98 10 98 10 C101 4 107 0 114 0 C121 0 128 4 131 10 L249 329 L257 329 Z " />
<glyph glyph-name="x" unicode="x" horiz-adv-x="368" d="M184 178 L323 5 C325 2 329 0 333 0 C340 0 345 5 345 12 C345 15 344 17 343 19 L200 198 L346 381 C347 383 348 385 348 388 C348 395 343 400 336 400 C332 400 328 398 326 395 L184 218 L42 395 C40 398 36 400 32 400 C25 400 20 395 20 388 C20 385 21 383 22 381 L168 198 L25 19 C24 17 23 15 23 12 C23 5 28 0 35 0 C39 0 43 2 45 5 L184 178 Z " />
<glyph glyph-name="y" unicode="y" horiz-adv-x="387" d="M124 -167 C123 -169 123 -170 123 -172 C123 -179 128 -184 135 -184 C141 -184 145 -181 147 -177 L367 388 C367 395 361 400 355 400 C350 400 346 398 344 394 L198 20 L190 20 L43 394 C41 398 37 400 32 400 C26 400 20 395 20 388 L170 2 C177 -1 181 -1 185 -1 L192 -1 L192 -5 C187 -9 182 -15 180 -23 C140 -123 133 -142 124 -167 L124 -167 Z " />
<glyph glyph-name="z" unicode="z" horiz-adv-x="378" d="M52 400 C45 400 40 394 40 387 C40 380 45 375 52 375 L310 375 L44 26 C42 23 40 19 40 15 C40 6 46 0 55 0 L326 0 C333 0 338 5 338 12 C338 19 333 25 326 25 L74 25 L333 366 C336 369 338 373 338 378 C338 390 328 400 316 400 L52 400 Z " />
<glyph glyph-name="braceleft" unicode="&#x7b;" horiz-adv-x="296" d="M72 260 C65 260 60 254 60 246 C60 239 65 234 72 234 C113 230 129 215 129 131 L129 -4 C129 -30 140 -58 172 -58 L223 -58 C230 -58 236 -52 236 -45 C236 -38 230 -33 223 -33 L193 -33 C155 -33 153 -29 153 7 L153 138 C153 188 153 220 117 247 C153 274 153 305 153 356 L153 493 C153 529 155 533 193 533 L223 533 C230 533 236 538 236 545 C236 552 230 558 223 558 L172 558 C140 558 129 530 129 504 L129 363 C129 280 113 264 72 260 L72 260 Z " />
<glyph glyph-name="bar" unicode="&#x7c;" horiz-adv-x="144" d="M60 -46 C60 -53 65 -58 72 -58 C79 -58 84 -53 84 -46 L84 546 C84 553 79 558 72 558 C65 558 60 553 60 546 L60 -46 Z " />
<glyph glyph-name="braceright" unicode="&#x7d;" horiz-adv-x="296" d="M224 260 C183 264 167 280 167 363 L167 504 C167 530 156 558 124 558 L73 558 C66 558 60 552 60 545 C60 538 66 533 73 533 L103 533 C141 533 143 529 143 493 L143 356 C143 305 143 274 179 247 C143 220 143 188 143 138 L143 7 C143 -29 141 -33 103 -33 L73 -33 C66 -33 60 -38 60 -45 C60 -52 66 -58 73 -58 L124 -58 C156 -58 167 -30 167 -4 L167 131 C167 215 183 230 224 234 C231 234 236 239 236 246 C236 254 231 260 224 260 L224 260 Z " />
<glyph glyph-name="asciitilde" unicode="&#x7e;" horiz-adv-x="465" d="M387 227 C367 216 356 212 330 212 C257 212 204 276 134 276 C110 276 87 273 66 260 C63 258 60 254 60 249 C60 242 65 237 72 237 C75 237 78 237 80 239 C96 249 112 251 134 251 C203 251 259 187 330 187 C356 187 379 194 400 206 C403 208 405 212 405 216 C405 223 400 228 393 228 C391 228 389 228 387 227 L387 227 Z " />
<glyph glyph-name="uni00A0" unicode="&#xa0;" horiz-adv-x="185" d="" />
<glyph glyph-name="exclamdown" unicode="&#xa1;" horiz-adv-x="150" d="M87 309 C87 316 82 321 75 321 C68 321 63 316 63 309 L60 -85 C60 -93 67 -100 75 -100 C83 -100 90 -93 90 -85 L87 309 Z M62 370 C62 362 68 356 76 356 C84 356 89 362 89 370 L89 386 C89 394 84 400 76 400 C68 400 62 394 62 386 L62 370 Z " />
<glyph glyph-name="cent" unicode="&#xa2;" horiz-adv-x="415" d="M343 28 C306 21 259 20 229 20 C149 20 84 52 84 139 L84 262 C84 350 149 380 229 380 C255 380 300 380 342 371 C349 371 354 376 354 382 C354 388 351 393 345 394 C304 402 259 405 230 405 L219 405 L219 459 C219 466 214 471 207 471 C200 471 195 466 195 459 L195 403 C115 394 60 352 60 256 L60 142 C60 47 115 6 195 -3 L195 -61 C195 -68 200 -73 207 -73 C214 -73 219 -68 219 -61 L219 -5 L230 -5 C258 -5 304 -4 346 3 C352 4 355 10 355 16 C355 22 350 28 343 28 L343 28 Z " />
<glyph glyph-name="sterling" unicode="&#xa3;" horiz-adv-x="485" d="M282 499 C256 505 243 505 215 505 C154 505 112 481 112 382 L112 249 L73 249 C66 249 60 243 60 236 C60 229 66 224 73 224 L112 224 L112 16 C112 7 119 0 128 0 L412 0 C419 0 425 5 425 12 C425 19 419 25 412 25 L136 25 L136 224 L266 224 C273 224 279 229 279 236 C279 243 273 249 266 249 L136 249 L136 381 C136 453 159 481 215 481 C242 481 257 480 278 474 C285 474 291 480 291 487 C291 493 287 497 282 499 L282 499 Z " />
<glyph glyph-name="currency" unicode="&#xa4;" horiz-adv-x="454" d="M227 104 C165 104 116 151 116 215 C116 278 165 324 227 324 C289 324 338 278 338 215 C338 151 289 104 227 104 L227 104 Z M227 81 C259 81 293 95 323 121 L377 65 C379 64 381 64 383 64 C390 64 394 68 394 75 C394 79 393 82 391 84 L338 137 C351 164 360 190 360 213 C360 239 350 266 334 293 L391 351 C392 353 392 355 392 357 C392 364 388 369 381 369 C377 369 374 368 372 365 L318 310 C288 334 257 345 227 345 C197 345 166 334 136 310 L82 365 C80 368 77 369 73 369 C66 369 62 364 62 357 C62 355 62 353 63 351 L120 293 C104 266 94 239 94 213 C94 190 103 164 116 137 L63 84 C61 82 60 79 60 75 C60 68 64 64 71 64 C73 64 75 64 77 65 L131 121 C161 95 195 81 227 81 L227 81 Z " />
<glyph glyph-name="yen" unicode="&#xa5;" horiz-adv-x="504" d="M138 216 C131 216 126 210 126 203 C126 196 131 191 138 191 L240 191 L240 135 L138 135 C131 135 126 129 126 122 C126 115 131 110 138 110 L240 110 L240 12 C240 5 245 0 252 0 C259 0 264 5 264 12 L264 110 L365 110 C372 110 377 115 377 122 C377 129 372 135 365 135 L264 135 L264 191 L365 191 C372 191 377 196 377 203 C377 210 372 216 365 216 L264 216 L443 485 C444 487 444 488 444 489 C444 495 437 500 432 500 C427 500 423 498 421 495 L252 242 L83 495 C81 498 77 500 72 500 C67 500 60 495 60 489 C60 488 60 487 61 485 L240 216 L138 216 Z " />
<glyph glyph-name="brokenbar" unicode="&#xa6;" horiz-adv-x="144" d="M60 331 C60 324 65 319 72 319 C79 319 84 324 84 331 L84 546 C84 553 79 558 72 558 C65 558 60 553 60 546 L60 331 Z M60 -46 C60 -53 65 -58 72 -58 C79 -58 84 -53 84 -46 L84 169 C84 176 79 181 72 181 C65 181 60 176 60 169 L60 -46 Z " />
<glyph glyph-name="section" unicode="&#xa7;" horiz-adv-x="551" d="M82 -51 C123 -59 177 -64 211 -64 C322 -64 358 -35 358 49 C358 77 346 99 324 114 L344 114 C456 114 491 143 491 228 C491 292 413 322 343 346 C282 367 217 392 217 432 C217 486 251 510 346 510 C385 510 425 508 458 502 C465 502 470 507 470 513 C470 519 465 525 460 526 C422 534 377 536 346 536 C252 536 193 512 193 432 C193 398 213 375 246 356 C234 357 223 357 213 357 C118 357 60 333 60 253 C60 192 135 164 204 140 C267 118 334 95 334 49 C334 -15 309 -38 211 -38 C184 -38 124 -34 82 -24 C74 -24 69 -30 69 -37 C69 -44 74 -51 82 -51 L82 -51 Z M84 253 C84 308 117 331 213 331 C289 331 467 309 467 228 C467 164 442 140 344 140 C266 140 84 188 84 253 L84 253 Z " />
<glyph glyph-name="dieresis" unicode="&#xa8;" horiz-adv-x="245" d="M60 506 C60 498 66 492 74 492 C82 492 87 498 87 506 L87 522 C87 530 82 536 74 536 C66 536 60 530 60 522 L60 506 Z M158 506 C158 498 164 492 172 492 C180 492 185 498 185 506 L185 522 C185 530 180 536 172 536 C164 536 158 530 158 522 L158 506 Z " />
<glyph glyph-name="copyright" unicode="&#xa9;" horiz-adv-x="630" d="M316 505 C173 505 60 392 60 250 C60 107 173 -5 316 -5 C458 -5 570 107 570 250 C570 392 458 505 316 505 L316 505 Z M316 21 C190 21 86 124 86 250 C86 377 190 479 316 479 C442 479 544 377 544 250 C544 124 442 21 316 21 L316 21 Z M403 122 C378 116 338 115 315 115 C248 115 208 145 208 195 L208 295 C208 363 248 381 315 381 C338 381 380 380 405 374 C412 374 417 379 417 385 C417 390 414 394 410 396 C382 403 341 406 316 406 C236 406 184 378 184 292 L184 204 C184 118 236 90 316 90 C340 90 376 92 403 98 C410 98 416 103 416 110 C416 119 410 122 403 122 L403 122 Z " />
<glyph glyph-name="ordfeminine" unicode="&#xaa;" horiz-adv-x="358" d="M81 303 C81 367 153 367 180 367 C193 367 247 365 277 361 L277 290 C249 262 210 229 162 229 C110 230 81 250 81 303 L81 303 Z M95 513 C91 513 88 509 88 504 C88 500 92 496 96 496 C121 502 150 503 172 503 C250 503 277 478 277 414 L277 377 L273 377 C252 385 206 385 179 385 C122 385 60 373 60 301 C60 243 93 211 162 211 C196 211 245 228 277 266 L277 224 C277 218 281 214 287 214 C293 214 298 218 298 224 L298 411 C298 502 246 521 170 521 C149 521 122 519 95 513 L95 513 Z " />
<glyph glyph-name="guillemotleft" unicode="&#xab;" horiz-adv-x="408" d="M60 203 C60 194 62 186 66 179 L156 6 C158 3 162 0 166 0 C173 0 179 6 179 13 C179 14 179 16 178 17 L82 200 L77 200 L77 206 L82 206 L178 389 C179 390 179 392 179 393 C179 400 173 406 166 406 C162 406 158 403 156 400 L66 227 C62 220 60 212 60 203 L60 203 Z M229 203 C229 194 231 186 235 179 L325 6 C327 3 331 0 335 0 C342 0 348 6 348 13 C348 14 348 16 347 17 L251 200 L246 200 L246 206 L251 206 L347 389 C348 390 348 392 348 393 C348 400 342 406 335 406 C331 406 327 403 325 400 L235 227 C231 220 229 212 229 203 L229 203 Z " />
<glyph glyph-name="logicalnot" unicode="&#xac;" horiz-adv-x="461" d="M377 66 C377 59 382 54 389 54 C396 54 401 59 401 66 L401 215 C401 222 396 228 389 228 L72 228 C65 228 60 222 60 215 C60 208 65 203 72 203 L377 203 L377 66 Z " />
<glyph glyph-name="uni00AD" unicode="&#xad;" horiz-adv-x="513" d="" />
<glyph glyph-name="registered" unicode="&#xae;" horiz-adv-x="628" d="M315 503 C173 503 60 390 60 249 C60 107 173 -5 315 -5 C456 -5 568 107 568 249 C568 390 456 503 315 503 L315 503 Z M315 25 C192 25 90 126 90 249 C90 373 192 473 315 473 C438 473 539 373 539 249 C539 126 438 25 315 25 L315 25 Z M217 255 L217 400 L341 400 C375 400 425 399 425 332 C425 256 388 255 382 255 L217 255 Z M404 234 C427 247 451 273 451 332 C451 410 405 426 350 426 L208 426 C199 426 192 419 192 410 L192 91 C192 84 197 79 204 79 C212 79 217 84 217 91 L217 230 L379 230 L412 90 C412 83 417 78 424 78 C431 78 437 83 437 90 L404 234 Z " />
<glyph glyph-name="macron" unicode="&#xaf;" horiz-adv-x="451" d="M72 491 C65 491 60 485 60 478 C60 471 65 466 72 466 L379 466 C386 466 391 471 391 478 C391 485 386 491 379 491 L72 491 Z " />
<glyph glyph-name="degree" unicode="&#xb0;" horiz-adv-x="309" d="M155 521 C103 521 60 479 60 426 C60 373 103 332 155 332 C207 332 249 373 249 426 C249 479 207 521 155 521 L155 521 Z M155 357 C117 357 84 387 84 426 C84 464 117 496 155 496 C191 496 224 464 224 426 C224 387 191 357 155 357 L155 357 Z " />
<glyph glyph-name="plusminus" unicode="&#xb1;" horiz-adv-x="469" d="M221 93 C221 86 226 81 233 81 C240 81 245 86 245 93 L245 248 L397 248 C404 248 409 253 409 260 C409 267 404 273 397 273 L245 273 L245 426 C245 433 240 438 233 438 C226 438 221 433 221 426 L221 273 L72 273 C65 273 60 267 60 260 C60 253 65 248 72 248 L221 248 L221 93 Z M72 25 C65 25 60 19 60 12 C60 5 65 0 72 0 L397 0 C404 0 409 5 409 12 C409 19 404 25 397 25 L72 25 Z " />
<glyph glyph-name="twosuperior" unicode="&#xb2;" horiz-adv-x="326" d="M87 239 C92 297 266 350 266 437 C266 468 257 521 163 521 C76 521 62 479 60 444 C60 439 65 434 70 434 C76 434 81 439 81 444 C84 485 109 500 163 500 C221 500 245 482 245 436 C245 365 63 308 63 234 C63 225 69 218 78 218 L255 218 C261 218 266 222 266 228 C266 234 261 239 255 239 L87 239 Z " />
<glyph glyph-name="threesuperior" unicode="&#xb3;" horiz-adv-x="314" d="M167 354 C232 350 233 327 233 292 C233 255 229 226 156 226 C98 226 84 249 81 275 C80 280 77 284 71 284 C65 284 61 279 61 273 C64 243 81 207 155 207 C247 207 254 246 254 293 C254 313 252 350 222 365 C251 381 254 413 254 435 L254 441 C254 486 247 521 154 521 C80 521 62 492 60 458 C60 452 64 448 70 448 C76 448 81 452 81 458 C84 483 98 500 155 500 C228 500 233 477 233 440 C233 403 232 378 167 378 L158 378 C151 378 146 373 146 366 C146 359 151 354 158 354 L167 354 Z " />
<glyph glyph-name="acute" unicode="&#xb4;" horiz-adv-x="172" d="M112 520 C112 529 105 536 96 536 C87 536 79 529 79 520 L60 425 C60 419 65 414 71 414 C78 414 81 419 83 425 L112 520 Z " />
<glyph glyph-name="mu" unicode="&#xb5;" horiz-adv-x="434" d="M350 89 C350 63 314 20 212 20 C89 20 84 99 84 169 L84 388 C84 395 79 400 72 400 C65 400 60 395 60 388 L60 -168 C60 -175 65 -180 72 -180 C79 -180 84 -175 84 -168 L84 43 L92 43 C113 13 143 -5 208 -5 C248 -5 310 -1 347 33 L350 12 C350 5 355 0 362 0 C369 0 374 5 374 12 L374 388 C374 395 369 400 362 400 C355 400 350 395 350 388 L350 89 Z " />
<glyph glyph-name="paragraph" unicode="&#xb6;" horiz-adv-x="484" d="M424 506 C424 513 419 518 412 518 L225 518 C136 503 60 425 60 330 C60 234 139 155 243 140 L243 -171 C243 -179 248 -184 256 -184 C264 -184 269 -179 269 -171 L269 493 L398 493 L398 -171 C398 -179 403 -184 411 -184 C419 -184 424 -179 424 -171 L424 506 Z " />
<glyph glyph-name="periodcentered" unicode="&#xb7;" horiz-adv-x="186" d="M60 174 C60 156 75 141 93 141 C111 141 126 156 126 174 C126 192 111 207 93 207 C75 207 60 192 60 174 L60 174 Z " />
<glyph glyph-name="cedilla" unicode="&#xb8;" horiz-adv-x="172" d="M112 -65 C112 -58 107 -53 100 -53 C95 -53 90 -57 89 -62 L60 -158 C60 -166 66 -175 76 -175 C84 -175 90 -169 92 -163 L112 -65 Z " />
<glyph glyph-name="onesuperior" unicode="&#xb9;" horiz-adv-x="236" d="M78 443 C104 458 131 479 155 495 L155 228 C155 222 159 218 165 218 C171 218 176 222 176 228 L176 509 C176 516 171 521 164 521 C161 521 157 520 155 519 L63 460 C61 458 60 455 60 451 C60 445 64 441 70 441 C73 441 76 442 78 443 L78 443 Z " />
<glyph glyph-name="ordmasculine" unicode="&#xba;" horiz-adv-x="387" d="M193 526 C119 526 60 467 60 392 C60 318 119 259 193 259 C268 259 327 318 327 392 C327 467 268 526 193 526 L193 526 Z M193 284 C134 284 85 333 85 392 C85 451 134 501 193 501 C252 501 302 451 302 392 C302 333 252 284 193 284 L193 284 Z " />
<glyph glyph-name="guillemotright" unicode="&#xbb;" horiz-adv-x="408" d="M348 203 C348 212 346 220 342 227 L252 400 C250 403 246 406 242 406 C235 406 229 400 229 393 C229 392 229 390 230 389 L326 206 L331 206 L331 200 L326 200 L230 17 C229 16 229 14 229 13 C229 6 235 0 242 0 C246 0 250 3 252 6 L342 179 C346 186 348 194 348 203 L348 203 Z M179 203 C179 212 177 220 173 227 L83 400 C81 403 77 406 73 406 C66 406 60 400 60 393 C60 392 60 390 61 389 L157 206 L162 206 L162 200 L157 200 L61 17 C60 16 60 14 60 13 C60 6 66 0 73 0 C77 0 81 3 83 6 L173 179 C177 186 179 194 179 203 L179 203 Z " />
<glyph glyph-name="onequarter" unicode="&#xbc;" horiz-adv-x="563" d="M325 114 L445 282 L445 114 L325 114 Z M78 422 C104 437 131 458 155 474 L155 207 C155 201 159 197 165 197 C171 197 176 201 176 207 L176 488 C176 495 171 500 164 500 C161 500 157 499 155 498 L63 439 C61 437 60 434 60 430 C60 424 64 420 70 420 C73 420 76 421 78 422 L78 422 Z M187 8 C185 4 181 0 175 0 C169 0 164 5 164 11 C164 14 165 16 166 18 L379 496 C381 499 384 500 388 500 C395 500 400 495 400 488 C400 486 400 484 399 483 L187 8 Z M447 303 C438 303 435 302 430 297 L302 117 C299 112 298 110 298 106 C298 99 302 95 309 95 L445 95 L445 10 C445 4 449 0 455 0 C461 0 466 4 466 10 L466 95 L493 95 C499 95 503 98 503 104 C503 110 499 114 493 114 L466 114 L466 284 C466 294 457 303 447 303 L447 303 Z " />
<glyph glyph-name="onehalf" unicode="&#xbd;" horiz-adv-x="625" d="M78 422 C104 437 131 458 155 474 L155 207 C155 201 159 197 165 197 C171 197 176 201 176 207 L176 488 C176 495 171 500 164 500 C161 500 157 499 155 498 L63 439 C61 437 60 434 60 430 C60 424 64 420 70 420 C73 420 76 421 78 422 L78 422 Z M187 8 C185 4 181 0 175 0 C169 0 164 5 164 11 C164 14 165 16 166 18 L379 496 C381 499 384 500 388 500 C395 500 400 495 400 488 C400 486 400 484 399 483 L187 8 Z M386 21 C391 79 565 132 565 219 C565 250 556 303 462 303 C375 303 361 261 359 226 C359 221 364 216 369 216 C375 216 380 221 380 226 C383 267 408 282 462 282 C520 282 544 264 544 218 C544 147 362 90 362 16 C362 7 368 0 377 0 L554 0 C560 0 565 4 565 10 C565 16 560 21 554 21 L386 21 Z " />
<glyph glyph-name="threequarters" unicode="&#xbe;" horiz-adv-x="609" d="M371 114 L491 282 L491 114 L371 114 Z M233 8 C231 4 227 0 221 0 C215 0 210 5 210 11 C210 14 211 16 212 18 L425 496 C427 499 430 500 434 500 C441 500 446 495 446 488 C446 486 446 484 445 483 L233 8 Z M493 303 C484 303 481 302 476 297 L348 117 C345 112 344 110 344 106 C344 99 348 95 355 95 L491 95 L491 10 C491 4 495 0 501 0 C507 0 512 4 512 10 L512 95 L539 95 C545 95 549 98 549 104 C549 110 545 114 539 114 L512 114 L512 284 C512 294 503 303 493 303 L493 303 Z M167 338 C232 334 233 311 233 276 C233 239 229 210 156 210 C98 210 84 233 81 259 C80 264 77 268 71 268 C65 268 61 263 61 257 C64 227 81 191 155 191 C247 191 254 230 254 277 C254 297 252 334 222 349 C251 365 254 397 254 419 L254 425 C254 470 247 505 154 505 C80 505 62 476 60 442 C60 436 64 432 70 432 C76 432 81 436 81 442 C84 467 98 484 155 484 C228 484 233 461 233 424 C233 387 232 362 167 362 L158 362 C151 362 146 357 146 350 C146 343 151 338 158 338 L167 338 Z " />
<glyph glyph-name="questiondown" unicode="&#xbf;" horiz-adv-x="363" d="M284 38 C259 29 231 25 202 25 C105 25 84 43 84 98 C84 187 230 209 230 307 L230 407 C230 414 225 419 218 419 C211 419 206 414 206 407 L206 308 C206 220 60 205 60 98 C60 17 105 0 200 0 C228 0 264 4 294 13 C299 15 303 20 303 26 C303 33 297 39 290 39 C288 39 286 39 284 38 L284 38 Z M231 491 C231 499 225 505 217 505 C209 505 204 499 204 491 L204 475 C204 467 209 461 217 461 C225 461 231 467 231 475 L231 491 Z " />
<glyph glyph-name="Agrave" unicode="&#xc0;" horiz-adv-x="424" d="M413 16 L231 486 C228 494 220 500 212 500 C204 500 196 494 193 486 L11 16 C10 15 10 13 10 11 C10 5 15 0 21 0 C26 0 31 3 33 7 L97 174 L327 174 L391 7 C393 3 398 0 403 0 C409 0 414 5 414 11 C414 13 414 15 413 16 L413 16 Z M108 199 L212 470 L316 199 L108 199 Z M199 562 C201 556 204 551 211 551 C217 551 222 556 222 562 L203 657 C203 666 195 673 186 673 C177 673 170 666 170 657 L199 562 Z " />
<glyph glyph-name="Aacute" unicode="&#xc1;" horiz-adv-x="424" d="M413 16 L231 486 C228 494 220 500 212 500 C204 500 196 494 193 486 L11 16 C10 15 10 13 10 11 C10 5 15 0 21 0 C26 0 31 3 33 7 L97 174 L327 174 L391 7 C393 3 398 0 403 0 C409 0 414 5 414 11 C414 13 414 15 413 16 L413 16 Z M108 199 L212 470 L316 199 L108 199 Z M258 657 C258 666 251 673 242 673 C233 673 225 666 225 657 L206 562 C206 556 211 551 217 551 C224 551 227 556 229 562 L258 657 Z " />
<glyph glyph-name="Acircumflex" unicode="&#xc2;" horiz-adv-x="424" d="M413 16 L231 486 C228 494 220 500 212 500 C204 500 196 494 193 486 L11 16 C10 15 10 13 10 11 C10 5 15 0 21 0 C26 0 31 3 33 7 L97 174 L327 174 L391 7 C393 3 398 0 403 0 C409 0 414 5 414 11 C414 13 414 15 413 16 L413 16 Z M108 199 L212 470 L316 199 L108 199 Z M212 687 C204 687 196 680 193 672 L150 568 C149 566 149 564 149 562 C149 555 154 550 161 550 C168 550 173 554 174 559 L212 652 L250 559 C251 554 256 550 263 550 C270 550 275 555 275 562 C275 564 275 566 274 568 L231 672 C228 680 220 687 212 687 L212 687 Z " />
<glyph glyph-name="Atilde" unicode="&#xc3;" horiz-adv-x="424" d="M322 586 C302 574 290 572 265 572 C234 572 206 604 163 604 C142 604 87 598 87 576 C87 568 92 563 100 563 C102 563 103 563 105 564 C123 577 139 579 163 579 C202 579 228 547 265 547 C288 547 339 557 339 575 C339 582 334 587 327 587 C325 587 324 587 322 586 L322 586 Z M413 16 L231 486 C228 494 220 500 212 500 C204 500 196 494 193 486 L11 16 C10 15 10 13 10 11 C10 5 15 0 21 0 C26 0 31 3 33 7 L97 174 L327 174 L391 7 C393 3 398 0 403 0 C409 0 414 5 414 11 C414 13 414 15 413 16 L413 16 Z M108 199 L212 470 L316 199 L108 199 Z " />
<glyph glyph-name="Adieresis" unicode="&#xc4;" horiz-adv-x="424" d="M413 16 L231 486 C228 494 220 500 212 500 C204 500 196 494 193 486 L11 16 C10 15 10 13 10 11 C10 5 15 0 21 0 C26 0 31 3 33 7 L97 174 L327 174 L391 7 C393 3 398 0 403 0 C409 0 414 5 414 11 C414 13 414 15 413 16 L413 16 Z M108 199 L212 470 L316 199 L108 199 Z M150 564 C150 556 156 550 164 550 C172 550 177 556 177 564 L177 580 C177 588 172 594 164 594 C156 594 150 588 150 580 L150 564 Z M248 564 C248 556 254 550 262 550 C270 550 275 556 275 564 L275 580 C275 588 270 594 262 594 C254 594 248 588 248 580 L248 564 Z " />
<glyph glyph-name="Aring" unicode="&#xc5;" horiz-adv-x="424" d="M212 684 C170 684 137 652 137 610 C137 569 170 536 212 536 C253 536 285 569 285 610 C285 652 253 684 212 684 L212 684 Z M212 559 C183 559 160 582 160 610 C160 638 183 662 212 662 C239 662 264 638 264 610 C264 582 239 559 212 559 L212 559 Z M413 16 L231 486 C228 494 220 500 212 500 C204 500 196 494 193 486 L11 16 C10 15 10 13 10 11 C10 5 15 0 21 0 C26 0 31 3 33 7 L97 174 L327 174 L391 7 C393 3 398 0 403 0 C409 0 414 5 414 11 C414 13 414 15 413 16 L413 16 Z M108 199 L212 470 L316 199 L108 199 Z " />
<glyph glyph-name="AE" unicode="&#xc6;" horiz-adv-x="676" d="M142 202 L300 461 L300 202 L142 202 Z M2 19 C1 17 0 14 0 11 C0 4 4 0 11 0 C17 0 21 2 23 6 L127 177 L300 177 L300 16 C300 7 307 0 316 0 L610 0 C617 0 623 5 623 12 C623 19 617 25 610 25 L324 25 L324 237 L574 237 C581 237 587 242 587 249 C587 256 581 262 574 262 L324 262 L324 475 L610 475 C617 475 623 480 623 487 C623 494 617 500 610 500 L307 500 C300 500 294 496 290 490 C290 490 301 509 2 19 L2 19 Z " />
<glyph glyph-name="Ccedilla" unicode="&#xc7;" horiz-adv-x="455" d="M407 32 C360 23 298 20 258 20 C146 20 74 65 74 167 L74 334 C74 436 146 480 258 480 C297 480 359 478 406 469 C413 469 418 474 418 480 C418 487 412 493 405 493 C356 501 294 505 260 505 C135 505 50 456 50 321 L50 174 C50 39 135 -5 260 -5 C297 -5 359 -1 410 8 C416 9 420 13 420 19 C420 27 415 32 407 32 L407 32 Z M269 -65 C269 -58 264 -53 257 -53 C252 -53 247 -57 246 -62 L217 -158 C217 -166 223 -175 233 -175 C241 -175 247 -169 249 -163 L269 -65 Z " />
<glyph glyph-name="Egrave" unicode="&#xc8;" horiz-adv-x="436" d="M334 237 C341 237 347 242 347 249 C347 256 341 262 334 262 L84 262 L84 475 L370 475 C377 475 383 480 383 487 C383 494 377 500 370 500 L76 500 C67 500 60 493 60 484 L60 16 C60 7 67 0 76 0 L370 0 C377 0 383 5 383 12 C383 19 377 25 370 25 L84 25 L84 237 L334 237 Z M209 562 C211 556 214 551 221 551 C227 551 232 556 232 562 L213 657 C213 666 205 673 196 673 C187 673 180 666 180 657 L209 562 Z " />
<glyph glyph-name="Eacute" unicode="&#xc9;" horiz-adv-x="436" d="M334 237 C341 237 347 242 347 249 C347 256 341 262 334 262 L84 262 L84 475 L370 475 C377 475 383 480 383 487 C383 494 377 500 370 500 L76 500 C67 500 60 493 60 484 L60 16 C60 7 67 0 76 0 L370 0 C377 0 383 5 383 12 C383 19 377 25 370 25 L84 25 L84 237 L334 237 Z M260 657 C260 666 253 673 244 673 C235 673 227 666 227 657 L208 562 C208 556 213 551 219 551 C226 551 229 556 231 562 L260 657 Z " />
<glyph glyph-name="Ecircumflex" unicode="&#xca;" horiz-adv-x="436" d="M334 237 C341 237 347 242 347 249 C347 256 341 262 334 262 L84 262 L84 475 L370 475 C377 475 383 480 383 487 C383 494 377 500 370 500 L76 500 C67 500 60 493 60 484 L60 16 C60 7 67 0 76 0 L370 0 C377 0 383 5 383 12 C383 19 377 25 370 25 L84 25 L84 237 L334 237 Z M221 687 C213 687 205 680 202 672 L159 568 C158 566 158 564 158 562 C158 555 163 550 170 550 C177 550 182 554 183 559 L221 652 L259 559 C260 554 265 550 272 550 C279 550 284 555 284 562 C284 564 284 566 283 568 L240 672 C237 680 229 687 221 687 L221 687 Z " />
<glyph glyph-name="Edieresis" unicode="&#xcb;" horiz-adv-x="436" d="M334 237 C341 237 347 242 347 249 C347 256 341 262 334 262 L84 262 L84 475 L370 475 C377 475 383 480 383 487 C383 494 377 500 370 500 L76 500 C67 500 60 493 60 484 L60 16 C60 7 67 0 76 0 L370 0 C377 0 383 5 383 12 C383 19 377 25 370 25 L84 25 L84 237 L334 237 Z M112 564 C112 556 118 550 126 550 C134 550 139 556 139 564 L139 580 C139 588 134 594 126 594 C118 594 112 588 112 580 L112 564 Z M300 564 C300 556 306 550 314 550 C322 550 327 556 327 564 L327 580 C327 588 322 594 314 594 C306 594 300 588 300 580 L300 564 Z " />
<glyph glyph-name="Igrave" unicode="&#xcc;" horiz-adv-x="144" d="M60 12 C60 5 65 0 72 0 C79 0 84 5 84 12 L84 488 C84 495 79 500 72 500 C65 500 60 495 60 488 L60 12 Z M58 562 C60 556 63 551 70 551 C76 551 81 556 81 562 L62 657 C62 666 54 673 45 673 C36 673 29 666 29 657 L58 562 Z " />
<glyph glyph-name="Iacute" unicode="&#xcd;" horiz-adv-x="144" d="M60 12 C60 5 65 0 72 0 C79 0 84 5 84 12 L84 488 C84 495 79 500 72 500 C65 500 60 495 60 488 L60 12 Z M115 657 C115 666 108 673 99 673 C90 673 82 666 82 657 L63 562 C63 556 68 551 74 551 C81 551 84 556 86 562 L115 657 Z " />
<glyph glyph-name="Icircumflex" unicode="&#xce;" horiz-adv-x="144" d="M60 12 C60 5 65 0 72 0 C79 0 84 5 84 12 L84 488 C84 495 79 500 72 500 C65 500 60 495 60 488 L60 12 Z M72 687 C64 687 56 680 53 672 L10 568 C9 566 9 564 9 562 C9 555 14 550 21 550 C28 550 33 554 34 559 L72 652 L110 559 C111 554 116 550 123 550 C130 550 135 555 135 562 C135 564 135 566 134 568 L91 672 C88 680 80 687 72 687 L72 687 Z " />
<glyph glyph-name="Idieresis" unicode="&#xcf;" horiz-adv-x="144" d="M60 12 C60 5 65 0 72 0 C79 0 84 5 84 12 L84 488 C84 495 79 500 72 500 C65 500 60 495 60 488 L60 12 Z M33 564 C33 556 39 550 47 550 C55 550 60 556 60 564 L60 580 C60 588 55 594 47 594 C39 594 33 588 33 580 L33 564 Z M84 564 C84 556 90 550 98 550 C106 550 111 556 111 564 L111 580 C111 588 106 594 98 594 C90 594 84 588 84 580 L84 564 Z " />
<glyph glyph-name="Eth" unicode="&#xd0;" horiz-adv-x="490" d="M22 260 C15 260 10 254 10 247 C10 240 15 235 22 235 L65 235 L65 16 C65 7 72 0 81 0 L229 0 C354 0 440 44 440 180 L440 319 C440 458 339 500 229 500 L81 500 C72 500 65 493 65 484 L65 260 L22 260 Z M231 475 C322 475 416 439 416 327 L416 173 C416 52 317 25 231 25 L89 25 L89 235 L236 235 C243 235 248 240 248 247 C248 254 243 260 236 260 L89 260 L89 475 L231 475 Z " />
<glyph glyph-name="Ntilde" unicode="&#xd1;" horiz-adv-x="499" d="M439 488 C439 495 434 500 427 500 C420 500 415 495 415 488 L415 33 L92 492 C89 497 83 500 77 500 C67 500 60 492 60 482 L60 12 C60 5 65 0 72 0 C79 0 84 5 84 12 L84 462 L403 8 C406 3 412 0 419 0 C430 0 439 8 439 19 L439 488 Z M364 586 C344 574 332 572 307 572 C276 572 248 604 205 604 C180 604 157 600 135 587 C131 585 129 581 129 576 C129 568 134 563 142 563 C144 563 145 563 147 564 C165 577 181 579 205 579 C244 579 270 547 307 547 C332 547 355 553 375 565 C379 567 381 570 381 575 C381 582 376 587 369 587 C367 587 366 587 364 586 L364 586 Z " />
<glyph glyph-name="Ograve" unicode="&#xd2;" horiz-adv-x="489" d="M247 505 C430 505 439 429 439 313 L439 179 C439 65 431 -5 247 -5 C60 -5 50 65 50 179 L50 313 C50 429 61 505 247 505 L247 505 Z M247 20 C394 20 415 59 415 177 L415 322 C415 441 394 480 247 480 C94 480 74 441 74 322 L74 177 C74 59 94 20 247 20 L247 20 Z M236 562 C238 556 241 551 248 551 C254 551 259 556 259 562 L240 657 C240 666 232 673 223 673 C214 673 207 666 207 657 L236 562 Z " />
<glyph glyph-name="Oacute" unicode="&#xd3;" horiz-adv-x="489" d="M247 505 C430 505 439 429 439 313 L439 179 C439 65 431 -5 247 -5 C60 -5 50 65 50 179 L50 313 C50 429 61 505 247 505 L247 505 Z M247 20 C394 20 415 59 415 177 L415 322 C415 441 394 480 247 480 C94 480 74 441 74 322 L74 177 C74 59 94 20 247 20 L247 20 Z M289 657 C289 666 282 673 273 673 C264 673 256 666 256 657 L237 562 C237 556 242 551 248 551 C255 551 258 556 260 562 L289 657 Z " />
<glyph glyph-name="Ocircumflex" unicode="&#xd4;" horiz-adv-x="489" d="M247 505 C61 505 50 429 50 313 L50 179 C50 65 60 -5 247 -5 C431 -5 439 65 439 179 L439 313 C439 429 430 505 247 505 L247 505 Z M247 20 C94 20 74 59 74 177 L74 322 C74 441 94 480 247 480 C394 480 415 441 415 322 L415 177 C415 59 394 20 247 20 L247 20 Z M246 687 C238 687 230 680 227 672 L184 568 C183 566 183 564 183 562 C183 555 188 550 195 550 C202 550 207 554 208 559 L246 652 L284 559 C285 554 290 550 297 550 C304 550 309 555 309 562 C309 564 309 566 308 568 L265 672 C262 680 254 687 246 687 L246 687 Z " />
<glyph glyph-name="Otilde" unicode="&#xd5;" horiz-adv-x="489" d="M247 505 C430 505 439 429 439 313 L439 179 C439 65 431 -5 247 -5 C60 -5 50 65 50 179 L50 313 C50 429 61 505 247 505 L247 505 Z M247 20 C394 20 415 59 415 177 L415 322 C415 441 394 480 247 480 C94 480 74 441 74 322 L74 177 C74 59 94 20 247 20 L247 20 Z M354 586 C334 574 322 572 297 572 C266 572 238 604 195 604 C170 604 147 600 125 587 C121 585 119 581 119 576 C119 568 124 563 132 563 C134 563 135 563 137 564 C155 577 171 579 195 579 C234 579 260 547 297 547 C322 547 345 553 365 565 C369 567 371 570 371 575 C371 582 366 587 359 587 C357 587 356 587 354 586 L354 586 Z " />
<glyph glyph-name="Odieresis" unicode="&#xd6;" horiz-adv-x="489" d="M247 505 C430 505 439 429 439 313 L439 179 C439 65 431 -5 247 -5 C60 -5 50 65 50 179 L50 313 C50 429 61 505 247 505 L247 505 Z M247 20 C394 20 415 59 415 177 L415 322 C415 441 394 480 247 480 C94 480 74 441 74 322 L74 177 C74 59 94 20 247 20 L247 20 Z M139 564 C139 556 145 550 153 550 C161 550 166 556 166 564 L166 580 C166 588 161 594 153 594 C145 594 139 588 139 580 L139 564 Z M327 564 C327 556 333 550 341 550 C349 550 354 556 354 564 L354 580 C354 588 349 594 341 594 C333 594 327 588 327 580 L327 564 Z " />
<glyph glyph-name="multiply" unicode="&#xd7;" horiz-adv-x="396" d="M198 167 L315 50 C317 48 320 47 323 47 C330 47 336 53 336 60 C336 63 336 67 334 69 L217 186 L329 299 C331 301 332 304 332 307 C332 314 326 320 319 320 C316 320 313 319 311 317 L198 205 L85 317 C83 319 80 320 77 320 C70 320 64 314 64 307 C64 304 65 301 67 299 L179 186 L62 69 C60 67 60 63 60 60 C60 53 66 47 73 47 C76 47 79 48 81 50 L198 167 Z " />
<glyph glyph-name="Oslash" unicode="&#xd8;" horiz-adv-x="489" d="M74 177 L74 322 C74 441 94 480 247 480 C267 480 285 479 300 478 L163 26 C86 41 74 85 74 177 L74 177 Z M415 177 C415 59 394 20 247 20 C225 20 205 21 188 23 L324 474 C402 460 415 416 415 322 L415 177 Z M141 -52 C141 -59 146 -64 153 -64 C158 -64 162 -61 164 -57 L181 -1 C200 -4 222 -5 247 -5 C431 -5 439 65 439 179 L439 313 C439 408 433 476 331 498 L349 558 C349 565 344 570 337 570 C332 570 328 567 326 563 L307 502 C290 504 270 505 247 505 C61 505 50 429 50 313 L50 179 C50 87 57 24 156 3 L141 -52 Z " />
<glyph glyph-name="Ugrave" unicode="&#xd9;" horiz-adv-x="524" d="M464 488 C464 495 459 500 452 500 C445 500 440 495 440 488 L440 176 C440 58 415 20 262 20 C109 20 84 58 84 176 L84 488 C84 495 79 500 72 500 C65 500 60 495 60 488 L60 174 C60 67 68 -5 262 -5 C456 -5 464 67 464 174 L464 488 Z M248 562 C250 556 253 551 260 551 C266 551 271 556 271 562 L252 657 C252 666 244 673 235 673 C226 673 219 666 219 657 L248 562 Z " />
<glyph glyph-name="Uacute" unicode="&#xda;" horiz-adv-x="524" d="M464 488 C464 495 459 500 452 500 C445 500 440 495 440 488 L440 176 C440 58 415 20 262 20 C109 20 84 58 84 176 L84 488 C84 495 79 500 72 500 C65 500 60 495 60 488 L60 174 C60 67 68 -5 262 -5 C456 -5 464 67 464 174 L464 488 Z M303 657 C303 666 296 673 287 673 C278 673 270 666 270 657 L251 562 C251 556 256 551 262 551 C269 551 272 556 274 562 L303 657 Z " />
<glyph glyph-name="Ucircumflex" unicode="&#xdb;" horiz-adv-x="524" d="M464 488 C464 495 459 500 452 500 C445 500 440 495 440 488 L440 176 C440 58 415 20 262 20 C109 20 84 58 84 176 L84 488 C84 495 79 500 72 500 C65 500 60 495 60 488 L60 174 C60 67 68 -5 262 -5 C456 -5 464 67 464 174 L464 488 Z M262 687 C254 687 246 680 243 672 L200 568 C199 566 199 564 199 562 C199 555 204 550 211 550 C218 550 223 554 224 559 L262 652 L300 559 C301 554 306 550 313 550 C320 550 325 555 325 562 C325 564 325 566 324 568 L281 672 C278 680 270 687 262 687 L262 687 Z " />
<glyph glyph-name="Udieresis" unicode="&#xdc;" horiz-adv-x="524" d="M464 488 C464 495 459 500 452 500 C445 500 440 495 440 488 L440 176 C440 58 415 20 262 20 C109 20 84 58 84 176 L84 488 C84 495 79 500 72 500 C65 500 60 495 60 488 L60 174 C60 67 68 -5 262 -5 C456 -5 464 67 464 174 L464 488 Z M155 564 C155 556 161 550 169 550 C177 550 182 556 182 564 L182 580 C182 588 177 594 169 594 C161 594 155 588 155 580 L155 564 Z M343 564 C343 556 349 550 357 550 C365 550 370 556 370 564 L370 580 C370 588 365 594 357 594 C349 594 343 588 343 580 L343 564 Z " />
<glyph glyph-name="Yacute" unicode="&#xdd;" horiz-adv-x="424" d="M200 12 C200 5 205 0 212 0 C219 0 224 5 224 12 L224 216 L403 485 C404 487 404 488 404 489 C404 495 397 500 392 500 C387 500 383 498 381 495 L212 242 L43 495 C41 498 37 500 32 500 C27 500 20 495 20 489 C20 488 20 487 21 485 L200 216 L200 12 Z M253 657 C253 666 246 673 237 673 C228 673 220 666 220 657 L201 562 C201 556 206 551 212 551 C219 551 222 556 224 562 L253 657 Z " />
<glyph glyph-name="Thorn" unicode="&#xde;" horiz-adv-x="431" d="M242 129 L84 129 L84 393 L242 393 C316 393 382 389 382 264 C382 131 315 129 242 129 L242 129 Z M60 12 C60 5 65 0 72 0 C79 0 84 5 84 12 L84 104 L251 104 C336 104 406 115 406 264 C406 414 336 418 251 418 L84 418 L84 506 C84 513 79 518 72 518 C65 518 60 513 60 506 L60 12 Z " />
<glyph glyph-name="germandbls" unicode="&#xdf;" horiz-adv-x="444" d="M277 25 C270 25 265 19 265 12 C265 5 270 0 277 0 C367 3 391 23 394 120 L394 132 C394 184 394 227 341 262 C392 279 394 329 394 389 C394 487 334 501 224 501 C81 501 60 451 60 301 L60 12 C60 5 65 0 72 0 C79 0 84 5 84 12 L84 302 C84 438 103 476 224 476 C307 476 370 472 370 389 C370 285 343 281 253 281 C246 281 241 275 241 268 C241 261 246 256 253 256 C337 250 370 212 370 130 C370 39 347 27 277 25 L277 25 Z " />
<glyph glyph-name="agrave" unicode="&#xe0;" horiz-adv-x="391" d="M59 116 C59 197 156 203 193 203 C209 203 280 198 322 192 L322 104 C283 63 233 20 169 20 C94 20 59 53 59 116 L59 116 Z M79 394 C74 393 71 388 71 383 C71 376 75 371 82 371 C115 378 139 380 170 380 C274 380 322 358 322 265 L322 211 L315 211 C285 220 226 225 191 225 C117 225 35 208 35 114 C35 38 78 -5 170 -5 C215 -5 277 21 322 73 L322 12 C322 5 327 0 334 0 C341 0 346 5 346 12 L346 264 C346 373 280 405 179 405 C151 405 115 402 79 394 L79 394 Z M195 466 C197 460 200 455 207 455 C213 455 218 460 218 466 L199 561 C199 570 191 577 182 577 C173 577 166 570 166 561 L195 466 Z " />
<glyph glyph-name="aacute" unicode="&#xe1;" horiz-adv-x="391" d="M59 116 C59 197 156 203 193 203 C209 203 280 198 322 192 L322 104 C283 63 233 20 169 20 C94 20 59 53 59 116 L59 116 Z M79 394 C74 393 71 388 71 383 C71 376 75 371 82 371 C115 378 139 380 170 380 C274 380 322 358 322 265 L322 211 L315 211 C285 220 226 225 191 225 C117 225 35 208 35 114 C35 38 78 -5 170 -5 C215 -5 277 21 322 73 L322 12 C322 5 327 0 334 0 C341 0 346 5 346 12 L346 264 C346 373 280 405 179 405 C151 405 115 402 79 394 L79 394 Z M241 561 C241 570 234 577 225 577 C216 577 208 570 208 561 L189 466 C189 460 194 455 200 455 C207 455 210 460 212 466 L241 561 Z " />
<glyph glyph-name="acircumflex" unicode="&#xe2;" horiz-adv-x="391" d="M59 116 C59 197 156 203 193 203 C209 203 280 198 322 192 L322 104 C283 63 233 20 169 20 C94 20 59 53 59 116 L59 116 Z M79 394 C74 393 71 388 71 383 C71 376 75 371 82 371 C115 378 139 380 170 380 C274 380 322 358 322 265 L322 211 L315 211 C285 220 226 225 191 225 C117 225 35 208 35 114 C35 38 78 -5 170 -5 C215 -5 277 21 322 73 L322 12 C322 5 327 0 334 0 C341 0 346 5 346 12 L346 264 C346 373 280 405 179 405 C151 405 115 402 79 394 L79 394 Z M218 592 C210 592 202 585 199 577 L156 473 C155 471 155 469 155 467 C155 460 160 455 167 455 C174 455 179 459 180 464 L218 557 L256 464 C257 459 262 455 269 455 C276 455 281 460 281 467 C281 469 281 471 280 473 L237 577 C234 585 226 592 218 592 L218 592 Z " />
<glyph glyph-name="atilde" unicode="&#xe3;" horiz-adv-x="391" d="M59 116 C59 197 156 203 193 203 C209 203 280 198 322 192 L322 104 C283 63 233 20 169 20 C94 20 59 53 59 116 L59 116 Z M79 394 C74 393 71 388 71 383 C71 376 75 371 82 371 C115 378 139 380 170 380 C274 380 322 358 322 265 L322 211 L315 211 C285 220 226 225 191 225 C117 225 35 208 35 114 C35 38 78 -5 170 -5 C215 -5 277 21 322 73 L322 12 C322 5 327 0 334 0 C341 0 346 5 346 12 L346 264 C346 373 280 405 179 405 C151 405 115 402 79 394 L79 394 Z M316 494 C296 482 284 480 259 480 C228 480 200 512 157 512 C132 512 109 508 87 495 C83 493 81 489 81 484 C81 476 86 471 94 471 C96 471 97 471 99 472 C117 485 133 487 157 487 C196 487 222 455 259 455 C284 455 307 461 327 473 C331 475 333 478 333 483 C333 490 328 495 321 495 C319 495 318 495 316 494 L316 494 Z " />
<glyph glyph-name="adieresis" unicode="&#xe4;" horiz-adv-x="391" d="M59 116 C59 197 156 203 193 203 C209 203 280 198 322 192 L322 104 C283 63 233 20 169 20 C94 20 59 53 59 116 L59 116 Z M79 394 C74 393 71 388 71 383 C71 376 75 371 82 371 C115 378 139 380 170 380 C274 380 322 358 322 265 L322 211 L315 211 C285 220 226 225 191 225 C117 225 35 208 35 114 C35 38 78 -5 170 -5 C215 -5 277 21 322 73 L322 12 C322 5 327 0 334 0 C341 0 346 5 346 12 L346 264 C346 373 280 405 179 405 C151 405 115 402 79 394 L79 394 Z M115 469 C115 461 121 455 129 455 C137 455 142 461 142 469 L142 485 C142 493 137 499 129 499 C121 499 115 493 115 485 L115 469 Z M295 469 C295 461 301 455 309 455 C317 455 322 461 322 469 L322 485 C322 493 317 499 309 499 C301 499 295 493 295 485 L295 469 Z " />
<glyph glyph-name="aring" unicode="&#xe5;" horiz-adv-x="391" d="M215 603 C173 603 140 571 140 529 C140 488 173 455 215 455 C256 455 288 488 288 529 C288 571 256 603 215 603 L215 603 Z M215 478 C186 478 163 501 163 529 C163 557 186 581 215 581 C242 581 267 557 267 529 C267 501 242 478 215 478 L215 478 Z M59 116 C59 197 156 203 193 203 C209 203 280 198 322 192 L322 104 C283 63 233 20 169 20 C94 20 59 53 59 116 L59 116 Z M79 394 C74 393 71 388 71 383 C71 376 75 371 82 371 C115 378 139 380 170 380 C274 380 322 358 322 265 L322 211 L315 211 C285 220 226 225 191 225 C117 225 35 208 35 114 C35 38 78 -5 170 -5 C215 -5 277 21 322 73 L322 12 C322 5 327 0 334 0 C341 0 346 5 346 12 L346 264 C346 373 280 405 179 405 C151 405 115 402 79 394 L79 394 Z " />
<glyph glyph-name="ae" unicode="&#xe6;" horiz-adv-x="679" d="M59 116 C59 197 156 203 193 203 C209 203 280 198 322 192 L322 95 C283 54 233 20 169 20 C94 20 59 53 59 116 L59 116 Z M479 380 C592 380 610 338 610 274 L610 214 L346 214 L346 223 C348 339 373 380 479 380 L479 380 Z M170 380 C274 380 322 358 322 265 L322 211 L315 211 C285 220 226 225 191 225 C117 225 35 208 35 114 C35 38 78 -5 170 -5 C215 -5 288 15 333 67 C356 12 416 -5 493 -5 C523 -5 573 -3 614 4 C620 5 623 11 623 16 C623 22 618 28 611 28 C572 21 524 20 492 20 C414 20 346 41 346 136 L346 188 L622 188 C629 188 634 193 634 200 L634 246 C634 347 616 405 479 405 C397 405 355 380 336 328 C314 386 257 405 179 405 C151 405 115 402 79 394 C74 393 71 388 71 383 C71 376 75 371 82 371 C115 378 139 380 170 380 L170 380 Z " />
<glyph glyph-name="ccedilla" unicode="&#xe7;" horiz-adv-x="379" d="M333 28 C296 21 249 20 219 20 C139 20 74 52 74 139 L74 262 C74 350 139 380 219 380 C245 380 290 380 332 371 C339 371 344 376 344 382 C344 388 341 393 335 394 C294 402 249 405 220 405 C121 405 50 365 50 256 L50 142 C50 34 121 -5 220 -5 C248 -5 294 -4 336 3 C342 4 345 10 345 16 C345 22 340 28 333 28 L333 28 Z M231 -65 C231 -58 226 -53 219 -53 C214 -53 209 -57 208 -62 L179 -158 C179 -166 185 -175 195 -175 C203 -175 209 -169 211 -163 L231 -65 Z " />
<glyph glyph-name="egrave" unicode="&#xe8;" horiz-adv-x="407" d="M207 380 C320 380 338 338 338 274 L338 214 L74 214 C75 337 98 380 207 380 L207 380 Z M350 188 C357 188 362 193 362 200 L362 246 C362 347 344 405 207 405 C80 405 50 347 50 219 L50 137 C50 29 123 -5 221 -5 C251 -5 301 -3 342 4 C348 5 351 11 351 16 C351 22 346 28 339 28 C300 21 252 20 220 20 C142 20 74 48 74 136 L74 188 L350 188 Z M206 466 C208 460 211 455 218 455 C224 455 229 460 229 466 L210 561 C210 570 202 577 193 577 C184 577 177 570 177 561 L206 466 Z " />
<glyph glyph-name="eacute" unicode="&#xe9;" horiz-adv-x="407" d="M207 380 C320 380 338 338 338 274 L338 214 L74 214 C75 337 98 380 207 380 L207 380 Z M350 188 C357 188 362 193 362 200 L362 246 C362 347 344 405 207 405 C80 405 50 347 50 219 L50 137 C50 29 123 -5 221 -5 C251 -5 301 -3 342 4 C348 5 351 11 351 16 C351 22 346 28 339 28 C300 21 252 20 220 20 C142 20 74 48 74 136 L74 188 L350 188 Z M251 561 C251 570 244 577 235 577 C226 577 218 570 218 561 L199 466 C199 460 204 455 210 455 C217 455 220 460 222 466 L251 561 Z " />
<glyph glyph-name="ecircumflex" unicode="&#xea;" horiz-adv-x="407" d="M207 380 C320 380 338 338 338 274 L338 214 L74 214 C75 337 98 380 207 380 L207 380 Z M350 188 C357 188 362 193 362 200 L362 246 C362 347 344 405 207 405 C80 405 50 347 50 219 L50 137 C50 29 123 -5 221 -5 C251 -5 301 -3 342 4 C348 5 351 11 351 16 C351 22 346 28 339 28 C300 21 252 20 220 20 C142 20 74 48 74 136 L74 188 L350 188 Z M213 592 C205 592 197 585 194 577 L151 473 C150 471 150 469 150 467 C150 460 155 455 162 455 C169 455 174 459 175 464 L213 557 L251 464 C252 459 257 455 264 455 C271 455 276 460 276 467 C276 469 276 471 275 473 L232 577 C229 585 221 592 213 592 L213 592 Z " />
<glyph glyph-name="edieresis" unicode="&#xeb;" horiz-adv-x="407" d="M207 380 C320 380 338 338 338 274 L338 214 L74 214 C75 337 98 380 207 380 L207 380 Z M350 188 C357 188 362 193 362 200 L362 246 C362 347 344 405 207 405 C80 405 50 347 50 219 L50 137 C50 29 123 -5 221 -5 C251 -5 301 -3 342 4 C348 5 351 11 351 16 C351 22 346 28 339 28 C300 21 252 20 220 20 C142 20 74 48 74 136 L74 188 L350 188 Z M104 469 C104 461 110 455 118 455 C126 455 131 461 131 469 L131 485 C131 493 126 499 118 499 C110 499 104 493 104 485 L104 469 Z M284 469 C284 461 290 455 298 455 C306 455 311 461 311 469 L311 485 C311 493 306 499 298 499 C290 499 284 493 284 485 L284 469 Z " />
<glyph glyph-name="igrave" unicode="&#xec;" horiz-adv-x="144" d="M60 12 C60 5 65 0 72 0 C79 0 84 5 84 12 L84 388 C84 395 79 400 72 400 C65 400 60 395 60 388 L60 12 Z M59 466 C61 460 64 455 71 455 C77 455 82 460 82 466 L63 561 C63 570 55 577 46 577 C37 577 30 570 30 561 L59 466 Z " />
<glyph glyph-name="iacute" unicode="&#xed;" horiz-adv-x="144" d="M60 12 C60 5 65 0 72 0 C79 0 84 5 84 12 L84 388 C84 395 79 400 72 400 C65 400 60 395 60 388 L60 12 Z M114 561 C114 570 107 577 98 577 C89 577 81 570 81 561 L62 466 C62 460 67 455 73 455 C80 455 83 460 85 466 L114 561 Z " />
<glyph glyph-name="icircumflex" unicode="&#xee;" horiz-adv-x="144" d="M60 12 C60 5 65 0 72 0 C79 0 84 5 84 12 L84 388 C84 395 79 400 72 400 C65 400 60 395 60 388 L60 12 Z M72 592 C64 592 56 585 53 577 L10 473 C9 471 9 469 9 467 C9 460 14 455 21 455 C28 455 33 459 34 464 L72 557 L110 464 C111 459 116 455 123 455 C130 455 135 460 135 467 C135 469 135 471 134 473 L91 577 C88 585 80 592 72 592 L72 592 Z " />
<glyph glyph-name="idieresis" unicode="&#xef;" horiz-adv-x="144" d="M60 12 C60 5 65 0 72 0 C79 0 84 5 84 12 L84 388 C84 395 79 400 72 400 C65 400 60 395 60 388 L60 12 Z M33 469 C33 461 39 455 47 455 C55 455 60 461 60 469 L60 485 C60 493 55 499 47 499 C39 499 33 493 33 485 L33 469 Z M84 469 C84 461 90 455 98 455 C106 455 111 461 111 469 L111 485 C111 493 106 499 98 499 C90 499 84 493 84 485 L84 469 Z " />
<glyph glyph-name="eth" unicode="&#xf0;" horiz-adv-x="425" d="M340 159 C340 66 335 20 207 20 C79 20 74 66 74 159 L74 239 C74 335 79 380 207 380 C335 380 340 334 340 239 L340 159 Z M363 465 C370 465 375 470 375 477 C375 484 370 490 363 490 L283 490 L248 553 C246 555 242 557 239 557 C232 557 226 551 226 544 C226 542 227 540 228 538 L255 490 L176 490 C169 490 164 484 164 477 C164 470 169 465 176 465 L269 465 C283 437 299 412 314 385 C291 398 256 405 207 405 C50 405 50 331 50 246 L50 151 C50 66 50 -5 207 -5 C364 -5 364 66 364 151 L364 279 C364 341 363 343 296 465 L363 465 Z " />
<glyph glyph-name="ntilde" unicode="&#xf1;" horiz-adv-x="424" d="M350 12 C350 5 355 0 362 0 C369 0 374 5 374 12 L374 262 C374 345 343 405 226 405 C186 405 124 401 87 367 L86 388 C86 395 80 400 73 400 C66 400 60 395 60 388 L60 12 C60 5 65 0 72 0 C79 0 84 5 84 12 L84 311 C84 337 120 380 222 380 C345 380 350 309 350 239 L350 12 Z M326 494 C306 482 294 480 269 480 C238 480 210 512 167 512 C142 512 119 508 97 495 C93 493 91 489 91 484 C91 476 96 471 104 471 C106 471 107 471 109 472 C127 485 143 487 167 487 C206 487 232 455 269 455 C294 455 317 461 337 473 C341 475 343 478 343 483 C343 490 338 495 331 495 C329 495 328 495 326 494 L326 494 Z " />
<glyph glyph-name="ograve" unicode="&#xf2;" horiz-adv-x="414" d="M207 405 C50 405 50 331 50 246 L50 151 C50 66 50 -5 207 -5 C364 -5 364 66 364 151 L364 246 C364 331 364 405 207 405 L207 405 Z M340 159 C340 66 335 20 207 20 C79 20 74 66 74 159 L74 239 C74 335 79 380 207 380 C335 380 340 334 340 239 L340 159 Z M191 466 C193 460 196 455 203 455 C209 455 214 460 214 466 L195 561 C195 570 187 577 178 577 C169 577 162 570 162 561 L191 466 Z " />
<glyph glyph-name="oacute" unicode="&#xf3;" horiz-adv-x="414" d="M207 405 C50 405 50 331 50 246 L50 151 C50 66 50 -5 207 -5 C364 -5 364 66 364 151 L364 246 C364 331 364 405 207 405 L207 405 Z M340 159 C340 66 335 20 207 20 C79 20 74 66 74 159 L74 239 C74 335 79 380 207 380 C335 380 340 334 340 239 L340 159 Z M250 561 C250 570 243 577 234 577 C225 577 217 570 217 561 L198 466 C198 460 203 455 209 455 C216 455 219 460 221 466 L250 561 Z " />
<glyph glyph-name="ocircumflex" unicode="&#xf4;" horiz-adv-x="414" d="M207 405 C50 405 50 331 50 246 L50 151 C50 66 50 -5 207 -5 C364 -5 364 66 364 151 L364 246 C364 331 364 405 207 405 L207 405 Z M340 159 C340 66 335 20 207 20 C79 20 74 66 74 159 L74 239 C74 335 79 380 207 380 C335 380 340 334 340 239 L340 159 Z M207 592 C199 592 191 585 188 577 L145 473 C144 471 144 469 144 467 C144 460 149 455 156 455 C163 455 168 459 169 464 L207 557 L245 464 C246 459 251 455 258 455 C265 455 270 460 270 467 C270 469 270 471 269 473 L226 577 C223 585 215 592 207 592 L207 592 Z " />
<glyph glyph-name="otilde" unicode="&#xf5;" horiz-adv-x="414" d="M207 405 C50 405 50 331 50 246 L50 151 C50 66 50 -5 207 -5 C364 -5 364 66 364 151 L364 246 C364 331 364 405 207 405 L207 405 Z M340 159 C340 66 335 20 207 20 C79 20 74 66 74 159 L74 239 C74 335 79 380 207 380 C335 380 340 334 340 239 L340 159 Z M316 494 C296 482 284 480 259 480 C228 480 200 512 157 512 C132 512 109 508 87 495 C83 493 81 489 81 484 C81 476 86 471 94 471 C96 471 97 471 99 472 C117 485 133 487 157 487 C196 487 222 455 259 455 C284 455 307 461 327 473 C331 475 333 478 333 483 C333 490 328 495 321 495 C319 495 318 495 316 494 L316 494 Z " />
<glyph glyph-name="odieresis" unicode="&#xf6;" horiz-adv-x="414" d="M207 405 C50 405 50 331 50 246 L50 151 C50 66 50 -5 207 -5 C364 -5 364 66 364 151 L364 246 C364 331 364 405 207 405 L207 405 Z M340 159 C340 66 335 20 207 20 C79 20 74 66 74 159 L74 239 C74 335 79 380 207 380 C335 380 340 334 340 239 L340 159 Z M103 469 C103 461 109 455 117 455 C125 455 130 461 130 469 L130 485 C130 493 125 499 117 499 C109 499 103 493 103 485 L103 469 Z M283 469 C283 461 289 455 297 455 C305 455 310 461 310 469 L310 485 C310 493 305 499 297 499 C289 499 283 493 283 485 L283 469 Z " />
<glyph glyph-name="divide" unicode="&#xf7;" horiz-adv-x="474" d="M72 205 C65 205 60 199 60 192 C60 185 65 180 72 180 L402 180 C409 180 414 185 414 192 C414 199 409 205 402 205 L72 205 Z M223 65 C223 57 229 51 237 51 C245 51 250 57 250 65 L250 81 C250 89 245 95 237 95 C229 95 223 89 223 81 L223 65 Z M223 303 C223 295 229 289 237 289 C245 289 250 295 250 303 L250 319 C250 327 245 333 237 333 C229 333 223 327 223 319 L223 303 Z " />
<glyph glyph-name="oslash" unicode="&#xf8;" horiz-adv-x="414" d="M74 159 L74 239 C74 335 79 380 207 380 C222 380 236 379 248 378 L142 26 C77 41 74 85 74 159 L74 159 Z M340 159 C340 66 335 20 207 20 C192 20 178 21 166 22 L272 374 C337 359 340 314 340 239 L340 159 Z M123 -40 C123 -48 128 -53 136 -53 C141 -53 145 -50 146 -45 L159 -2 C173 -4 189 -5 207 -5 C364 -5 364 66 364 151 L364 246 C364 315 364 377 279 398 L291 439 C291 447 286 452 278 452 C273 452 269 449 268 444 L255 402 C241 404 225 405 207 405 C50 405 50 331 50 246 L50 151 C50 82 50 22 135 2 L123 -40 Z " />
<glyph glyph-name="ugrave" unicode="&#xf9;" horiz-adv-x="424" d="M338 12 C338 5 344 0 351 0 C358 0 364 5 364 12 L364 388 C364 395 359 400 352 400 C345 400 340 395 340 388 L340 89 C340 63 304 20 202 20 C79 20 74 91 74 161 L74 388 C74 395 69 400 62 400 C55 400 50 395 50 388 L50 138 C50 55 81 -5 198 -5 C238 -5 300 -1 337 33 L338 12 Z M191 466 C193 460 196 455 203 455 C209 455 214 460 214 466 L195 561 C195 570 187 577 178 577 C169 577 162 570 162 561 L191 466 Z " />
<glyph glyph-name="uacute" unicode="&#xfa;" horiz-adv-x="424" d="M338 12 C338 5 344 0 351 0 C358 0 364 5 364 12 L364 388 C364 395 359 400 352 400 C345 400 340 395 340 388 L340 89 C340 63 304 20 202 20 C79 20 74 91 74 161 L74 388 C74 395 69 400 62 400 C55 400 50 395 50 388 L50 138 C50 55 81 -5 198 -5 C238 -5 300 -1 337 33 L338 12 Z M246 561 C246 570 239 577 230 577 C221 577 213 570 213 561 L194 466 C194 460 199 455 205 455 C212 455 215 460 217 466 L246 561 Z " />
<glyph glyph-name="ucircumflex" unicode="&#xfb;" horiz-adv-x="424" d="M338 12 C338 5 344 0 351 0 C358 0 364 5 364 12 L364 388 C364 395 359 400 352 400 C345 400 340 395 340 388 L340 89 C340 63 304 20 202 20 C79 20 74 91 74 161 L74 388 C74 395 69 400 62 400 C55 400 50 395 50 388 L50 138 C50 55 81 -5 198 -5 C238 -5 300 -1 337 33 L338 12 Z M207 592 C199 592 191 585 188 577 L145 473 C144 471 144 469 144 467 C144 460 149 455 156 455 C163 455 168 459 169 464 L207 557 L245 464 C246 459 251 455 258 455 C265 455 270 460 270 467 C270 469 270 471 269 473 L226 577 C223 585 215 592 207 592 L207 592 Z " />
<glyph glyph-name="udieresis" unicode="&#xfc;" horiz-adv-x="424" d="M338 12 C338 5 344 0 351 0 C358 0 364 5 364 12 L364 388 C364 395 359 400 352 400 C345 400 340 395 340 388 L340 89 C340 63 304 20 202 20 C79 20 74 91 74 161 L74 388 C74 395 69 400 62 400 C55 400 50 395 50 388 L50 138 C50 55 81 -5 198 -5 C238 -5 300 -1 337 33 L338 12 Z M106 469 C106 461 112 455 120 455 C128 455 133 461 133 469 L133 485 C133 493 128 499 120 499 C112 499 106 493 106 485 L106 469 Z M286 469 C286 461 292 455 300 455 C308 455 313 461 313 469 L313 485 C313 493 308 499 300 499 C292 499 286 493 286 485 L286 469 Z " />
<glyph glyph-name="yacute" unicode="&#xfd;" horiz-adv-x="387" d="M238 561 C238 570 231 577 222 577 C213 577 205 570 205 561 L186 466 C186 460 191 455 197 455 C204 455 207 460 209 466 L238 561 Z M124 -167 C123 -169 123 -170 123 -172 C123 -179 128 -184 135 -184 C141 -184 145 -181 147 -177 L367 388 C367 395 361 400 355 400 C350 400 346 398 344 394 L198 20 L190 20 L43 394 C41 398 37 400 32 400 C26 400 20 395 20 388 L170 2 C177 -1 181 -1 185 -1 L192 -1 L192 -5 C187 -9 182 -15 180 -23 C140 -123 133 -142 124 -167 L124 -167 Z " />
<glyph glyph-name="thorn" unicode="&#xfe;" horiz-adv-x="431" d="M382 159 C382 26 315 25 242 25 L84 25 L84 380 L242 380 C316 380 382 376 382 251 L382 159 Z M60 -172 C60 -179 65 -184 72 -184 C79 -184 84 -179 84 -172 L84 0 L251 0 C336 0 406 11 406 160 L406 252 C406 402 336 405 251 405 L84 405 L84 506 C84 513 79 518 72 518 C65 518 60 513 60 506 L60 -172 Z " />
<glyph glyph-name="ydieresis" unicode="&#xff;" horiz-adv-x="387" d="M124 -167 C123 -169 123 -170 123 -172 C123 -179 128 -184 135 -184 C141 -184 145 -181 147 -177 L367 388 C367 395 361 400 355 400 C350 400 346 398 344 394 L198 20 L190 20 L43 394 C41 398 37 400 32 400 C26 400 20 395 20 388 L170 2 C177 -1 181 -1 185 -1 L192 -1 L192 -5 C187 -9 182 -15 180 -23 C140 -123 133 -142 124 -167 L124 -167 Z M90 469 C90 461 96 455 104 455 C112 455 117 461 117 469 L117 485 C117 493 112 499 104 499 C96 499 90 493 90 485 L90 469 Z M270 469 C270 461 276 455 284 455 C292 455 297 461 297 469 L297 485 C297 493 292 499 284 499 C276 499 270 493 270 485 L270 469 Z " />
<glyph glyph-name="dotlessi" unicode="&#x131;" horiz-adv-x="144" d="M60 12 C60 5 65 0 72 0 C79 0 84 5 84 12 L84 388 C84 395 79 400 72 400 C65 400 60 395 60 388 L60 12 Z " />
<glyph glyph-name="Lslash" unicode="&#x141;" horiz-adv-x="412" d="M202 244 C209 244 213 248 213 255 C213 263 209 268 202 268 L103 254 L103 488 C103 495 98 500 91 500 C84 500 79 495 79 488 L79 250 L31 244 C24 244 20 239 20 231 C20 224 24 220 31 220 L79 226 L79 16 C79 7 86 0 95 0 L379 0 C386 0 392 5 392 12 C392 19 386 25 379 25 L103 25 L103 230 L202 244 Z " />
<glyph glyph-name="lslash" unicode="&#x142;" horiz-adv-x="180" d="M159 239 C166 239 170 243 170 250 C170 258 166 263 159 263 L93 254 L93 488 C93 495 88 500 81 500 C74 500 69 495 69 488 L69 250 L21 244 C14 244 10 239 10 231 C10 224 14 220 21 220 L69 226 L69 12 C69 5 74 0 81 0 C88 0 93 5 93 12 L93 230 L159 239 Z " />
<glyph glyph-name="OE" unicode="&#x152;" horiz-adv-x="702" d="M258 20 C146 20 74 65 74 167 L74 334 C74 436 146 480 258 480 C277 480 301 479 326 477 L326 21 C301 20 276 20 258 20 L258 20 Z M636 0 C643 0 649 5 649 12 C649 19 643 25 636 25 L350 25 L350 237 L600 237 C607 237 613 242 613 249 C613 256 607 262 600 262 L350 262 L350 475 L636 475 C643 475 649 480 649 487 C649 494 643 500 636 500 L348 500 C314 503 281 505 260 505 C135 505 50 456 50 321 L50 174 C50 39 135 -5 260 -5 C285 -5 320 -3 356 0 L636 0 Z " />
<glyph glyph-name="oe" unicode="&#x153;" horiz-adv-x="697" d="M340 159 C340 66 335 20 207 20 C79 20 74 66 74 159 L74 239 C74 335 79 380 207 380 C335 380 340 334 340 239 L340 159 Z M497 380 C610 380 628 338 628 274 L628 214 L364 214 C365 337 388 380 497 380 L497 380 Z M511 -5 C541 -5 591 -3 632 4 C638 5 641 11 641 16 C641 22 636 28 629 28 C590 21 542 20 510 20 C432 20 364 48 364 136 L364 188 L640 188 C647 188 652 193 652 200 L652 246 C652 347 634 405 497 405 C418 405 376 382 356 333 C342 376 305 405 207 405 C50 405 50 331 50 246 L50 151 C50 66 50 -5 207 -5 C305 -5 342 22 356 64 C382 13 440 -5 511 -5 L511 -5 Z " />
<glyph glyph-name="Scaron" unicode="&#x160;" horiz-adv-x="448" d="M54 57 C47 57 40 50 40 41 C40 36 43 31 47 29 C103 3 184 -5 232 -5 C316 -5 408 3 408 135 C408 278 68 252 68 379 C68 440 98 480 234 480 C278 480 332 476 371 469 C379 469 385 475 385 482 C385 488 382 493 377 495 C330 504 272 505 231 505 C117 505 44 474 44 379 C44 229 384 252 384 135 C384 26 305 20 228 20 C191 20 127 21 54 57 L54 57 Z M226 550 C234 550 242 557 245 565 L288 669 C289 671 289 673 289 675 C289 682 284 687 277 687 C270 687 265 683 264 678 L226 585 L188 678 C187 683 182 687 175 687 C168 687 163 682 163 675 C163 673 163 671 164 669 L207 565 C210 557 218 550 226 550 L226 550 Z " />
<glyph glyph-name="scaron" unicode="&#x161;" horiz-adv-x="370" d="M62 35 C54 35 49 29 49 21 C49 15 51 11 56 9 C96 0 152 -5 186 -5 C295 -5 330 24 330 105 C330 222 64 217 64 304 C64 357 96 380 188 380 C226 380 267 377 299 372 C305 372 310 377 310 383 C310 388 307 393 302 394 C265 402 218 405 188 405 C97 405 40 381 40 304 C40 191 306 203 306 105 C306 37 282 20 186 20 C159 20 103 25 62 35 L62 35 Z M188 455 C196 455 204 462 207 470 L250 574 C251 576 251 578 251 580 C251 587 246 592 239 592 C232 592 227 588 226 583 L188 490 L150 583 C149 588 144 592 137 592 C130 592 125 587 125 580 C125 578 125 576 126 574 L169 470 C172 462 180 455 188 455 L188 455 Z " />
<glyph glyph-name="Ydieresis" unicode="&#x178;" horiz-adv-x="424" d="M200 12 C200 5 205 0 212 0 C219 0 224 5 224 12 L224 216 L403 485 C404 487 404 488 404 489 C404 495 397 500 392 500 C387 500 383 498 381 495 L212 242 L43 495 C41 498 37 500 32 500 C27 500 20 495 20 489 C20 488 20 487 21 485 L200 216 L200 12 Z M107 564 C107 556 113 550 121 550 C129 550 134 556 134 564 L134 580 C134 588 129 594 121 594 C113 594 107 588 107 580 L107 564 Z M295 564 C295 556 301 550 309 550 C317 550 322 556 322 564 L322 580 C322 588 317 594 309 594 C301 594 295 588 295 580 L295 564 Z " />
<glyph glyph-name="Zcaron" unicode="&#x17d;" horiz-adv-x="434" d="M414 483 C414 492 407 500 398 500 L32 500 C25 500 20 494 20 487 C20 480 25 475 32 475 L386 475 L26 32 C22 28 20 24 20 18 C20 8 28 0 38 0 L402 0 C409 0 414 5 414 12 C414 19 409 25 402 25 L53 25 L411 467 C414 476 414 477 414 483 L414 483 Z M221 550 C229 550 237 557 240 565 L283 669 C284 671 284 673 284 675 C284 682 279 687 272 687 C265 687 260 683 259 678 L221 585 L183 678 C182 683 177 687 170 687 C163 687 158 682 158 675 C158 673 158 671 159 669 L202 565 C205 557 213 550 221 550 L221 550 Z " />
<glyph glyph-name="zcaron" unicode="&#x17e;" horiz-adv-x="378" d="M52 400 C45 400 40 394 40 387 C40 380 45 375 52 375 L310 375 L44 26 C42 23 40 19 40 15 C40 6 46 0 55 0 L326 0 C333 0 338 5 338 12 C338 19 333 25 326 25 L74 25 L333 366 C336 369 338 373 338 378 C338 390 328 400 316 400 L52 400 Z M186 455 C194 455 202 462 205 470 L248 574 C249 576 249 578 249 580 C249 587 244 592 237 592 C230 592 225 588 224 583 L186 490 L148 583 C147 588 142 592 135 592 C128 592 123 587 123 580 C123 578 123 576 124 574 L167 470 C170 462 178 455 186 455 L186 455 Z " />
<glyph glyph-name="florin" unicode="&#x192;" horiz-adv-x="282" d="M261 517 C238 519 215 519 206 519 C140 519 115 484 105 387 L103 368 L32 368 C25 368 20 362 20 355 C20 348 25 343 32 343 L101 343 L52 -172 C52 -179 57 -186 65 -186 C73 -186 79 -179 79 -172 C94 -3 112 174 128 343 L241 343 C248 343 253 348 253 355 C253 362 248 368 241 368 L129 368 L132 390 C144 479 168 494 208 494 C221 494 240 494 261 492 C268 492 274 497 274 504 C274 511 268 517 261 517 L261 517 Z " />
<glyph glyph-name="circumflex" unicode="&#x2c6;" horiz-adv-x="246" d="M123 536 C115 536 107 529 104 521 L61 417 C60 415 60 413 60 411 C60 404 65 399 72 399 C79 399 84 403 85 408 L123 501 L161 408 C162 403 167 399 174 399 C181 399 186 404 186 411 C186 413 186 415 185 417 L142 521 C139 529 131 536 123 536 L123 536 Z " />
<glyph glyph-name="caron" unicode="&#x2c7;" horiz-adv-x="246" d="M123 399 C131 399 139 406 142 414 L185 518 C186 520 186 522 186 524 C186 531 181 536 174 536 C167 536 162 532 161 527 L123 434 L85 527 C84 532 79 536 72 536 C65 536 60 531 60 524 C60 522 60 520 61 518 L104 414 C107 406 115 399 123 399 L123 399 Z " />
<glyph glyph-name="breve" unicode="&#x2d8;" horiz-adv-x="414" d="M207 404 C308 404 347 415 354 487 C354 494 349 500 342 500 C335 500 329 494 329 487 C323 436 289 429 207 429 C125 429 91 436 85 487 C85 494 79 500 72 500 C65 500 60 494 60 487 C67 415 106 404 207 404 L207 404 Z " />
<glyph glyph-name="dotaccent" unicode="&#x2d9;" horiz-adv-x="147" d="M60 506 C60 498 66 492 74 492 C82 492 87 498 87 506 L87 522 C87 530 82 536 74 536 C66 536 60 530 60 522 L60 506 Z " />
<glyph glyph-name="ring" unicode="&#x2da;" horiz-adv-x="268" d="M135 536 C93 536 60 504 60 462 C60 421 93 388 135 388 C176 388 208 421 208 462 C208 504 176 536 135 536 L135 536 Z M135 411 C106 411 83 434 83 462 C83 490 106 514 135 514 C162 514 187 490 187 462 C187 434 162 411 135 411 L135 411 Z " />
<glyph glyph-name="ogonek" unicode="&#x2db;" horiz-adv-x="172" d="M80 -163 C82 -169 88 -175 96 -175 C106 -175 112 -166 112 -158 L83 -62 C82 -57 77 -53 72 -53 C65 -53 60 -58 60 -65 L80 -163 Z " />
<glyph glyph-name="tilde" unicode="&#x2dc;" horiz-adv-x="372" d="M295 518 C275 506 263 504 238 504 C207 504 179 536 136 536 C115 536 60 530 60 508 C60 500 65 495 73 495 C75 495 76 495 78 496 C96 509 112 511 136 511 C175 511 201 479 238 479 C261 479 312 489 312 507 C312 514 307 519 300 519 C298 519 297 519 295 518 L295 518 Z " />
<glyph glyph-name="hungarumlaut" unicode="&#x2dd;" horiz-adv-x="247" d="M112 521 C112 530 105 537 96 537 C87 537 79 530 79 521 L60 426 C60 420 65 415 71 415 C78 415 81 420 83 426 L112 521 Z M187 521 C187 530 180 537 171 537 C162 537 154 530 154 521 L135 426 C135 420 140 415 146 415 C153 415 156 420 158 426 L187 521 Z " />
<glyph glyph-name="pi" unicode="&#x3c0;" horiz-adv-x="553" d="M72 409 C65 409 60 403 60 396 C60 389 65 384 72 384 L145 384 L145 12 C145 5 150 0 157 0 C164 0 169 5 169 12 L169 384 L384 384 L384 12 C384 5 389 0 396 0 C403 0 408 5 408 12 L408 384 L481 384 C488 384 493 389 493 396 C493 403 488 409 481 409 L72 409 Z " />
<glyph glyph-name="nptp3.001march2007p" unicode="&#xe3b;" d="" />
<glyph glyph-name="nptp3.001march2007u" unicode="&#xe3c;" d="" />
<glyph glyph-name="nptp3.001march2007c" unicode="&#xe3d;" d="" />
<glyph glyph-name="nptp3.001march2007r" unicode="&#xe3e;" d="" />
<glyph glyph-name="bahtthai" unicode="&#xe3f;" horiz-adv-x="487" d="M360 249 C411 273 427 317 427 368 C427 500 350 500 264 500 L255 500 L255 549 C255 556 250 561 243 561 C236 561 231 556 231 549 L231 500 L76 500 C67 500 60 493 60 484 L60 16 C60 7 67 0 76 0 L231 0 L231 -49 C231 -56 236 -61 243 -61 C250 -61 255 -56 255 -49 L255 0 L264 0 C350 0 427 1 427 133 C427 179 410 226 360 249 L360 249 Z M263 475 C347 475 403 471 403 368 C403 265 321 262 263 262 L255 262 L255 475 L263 475 Z M84 475 L231 475 L231 262 L84 262 L84 475 Z M84 25 L84 237 L231 237 L231 25 L84 25 Z M263 25 L255 25 L255 237 L263 237 C321 237 403 237 403 133 C403 30 346 25 263 25 L263 25 Z " />
<glyph glyph-name="ZWSP" unicode="&#x200b;" d="" />
<glyph glyph-name="endash" unicode="&#x2013;" horiz-adv-x="510" d="M72 205 C65 205 60 199 60 192 C60 185 65 180 72 180 L438 180 C445 180 450 185 450 192 C450 199 445 205 438 205 L72 205 Z " />
<glyph glyph-name="emdash" unicode="&#x2014;" horiz-adv-x="618" d="M72 205 C65 205 60 199 60 192 C60 185 65 180 72 180 L546 180 C553 180 558 185 558 192 C558 199 553 205 546 205 L72 205 Z " />
<glyph glyph-name="quoteleft" unicode="&#x2018;" horiz-adv-x="172" d="M60 431 C60 422 67 415 76 415 C85 415 93 422 93 431 L112 526 C112 532 107 537 101 537 C94 537 91 532 89 526 L60 431 Z " />
<glyph glyph-name="quoteright" unicode="&#x2019;" horiz-adv-x="172" d="M112 521 C112 530 105 537 96 537 C87 537 79 530 79 521 L60 426 C60 420 65 415 71 415 C78 415 81 420 83 426 L112 521 Z " />
<glyph glyph-name="quotesinglbase" unicode="&#x201a;" horiz-adv-x="172" d="M112 40 C112 49 105 56 96 56 C87 56 79 49 79 40 L60 -55 C60 -61 65 -66 71 -66 C78 -66 81 -61 83 -55 L112 40 Z " />
<glyph glyph-name="quotedblleft" unicode="&#x201c;" horiz-adv-x="247" d="M135 431 C135 422 142 415 151 415 C160 415 168 422 168 431 L187 526 C187 532 182 537 176 537 C169 537 166 532 164 526 L135 431 Z M60 431 C60 422 67 415 76 415 C85 415 93 422 93 431 L112 526 C112 532 107 537 101 537 C94 537 91 532 89 526 L60 431 Z " />
<glyph glyph-name="quotedblright" unicode="&#x201d;" horiz-adv-x="247" d="M112 521 C112 530 105 537 96 537 C87 537 79 530 79 521 L60 426 C60 420 65 415 71 415 C78 415 81 420 83 426 L112 521 Z M187 521 C187 530 180 537 171 537 C162 537 154 530 154 521 L135 426 C135 420 140 415 146 415 C153 415 156 420 158 426 L187 521 Z " />
<glyph glyph-name="quotedblbase" unicode="&#x201e;" horiz-adv-x="247" d="M112 40 C112 49 105 56 96 56 C87 56 79 49 79 40 L60 -55 C60 -61 65 -66 71 -66 C78 -66 81 -61 83 -55 L112 40 Z M187 40 C187 49 180 56 171 56 C162 56 154 49 154 40 L135 -55 C135 -61 140 -66 146 -66 C153 -66 156 -61 158 -55 L187 40 Z " />
<glyph glyph-name="dagger" unicode="&#x2020;" horiz-adv-x="419" d="M347 348 C354 348 359 353 359 360 C359 367 354 373 347 373 L221 373 L221 509 C221 516 216 521 209 521 C202 521 197 516 197 509 L197 373 L72 373 C65 373 60 367 60 360 C60 353 65 348 72 348 L197 348 L197 -168 C197 -175 202 -180 209 -180 C216 -180 221 -175 221 -168 L221 348 L347 348 Z " />
<glyph glyph-name="daggerdbl" unicode="&#x2021;" horiz-adv-x="419" d="M72 25 C65 25 60 19 60 12 C60 5 65 0 72 0 L197 0 L197 -168 C197 -175 202 -180 209 -180 C216 -180 221 -175 221 -168 L221 0 L347 0 C354 0 359 5 359 12 C359 19 354 25 347 25 L221 25 L221 348 L347 348 C354 348 359 353 359 360 C359 367 354 373 347 373 L221 373 L221 509 C221 516 216 521 209 521 C202 521 197 516 197 509 L197 373 L72 373 C65 373 60 367 60 360 C60 353 65 348 72 348 L197 348 L197 25 L72 25 Z " />
<glyph glyph-name="bullet" unicode="&#x2022;" horiz-adv-x="209" d="M60 199 C60 173 79 154 104 154 C130 154 149 173 149 199 C149 224 130 244 104 244 C79 244 60 224 60 199 L60 199 Z " />
<glyph glyph-name="ellipsis" unicode="&#x2026;" horiz-adv-x="323" d="M60 14 C60 6 66 0 74 0 C82 0 87 6 87 14 L87 30 C87 38 82 44 74 44 C66 44 60 38 60 30 L60 14 Z M148 14 C148 6 154 0 162 0 C170 0 175 6 175 14 L175 30 C175 38 170 44 162 44 C154 44 148 38 148 30 L148 14 Z M236 14 C236 6 242 0 250 0 C258 0 263 6 263 14 L263 30 C263 38 258 44 250 44 C242 44 236 38 236 30 L236 14 Z " />
<glyph glyph-name="perthousand" unicode="&#x2030;" horiz-adv-x="765" d="M620 1 C666 1 705 15 705 66 L705 155 C705 200 663 222 620 222 C576 222 534 200 534 155 L534 66 C534 15 573 1 620 1 L620 1 Z M620 199 C665 199 681 177 681 158 L681 63 C681 39 665 24 620 24 C573 24 558 39 558 63 L558 158 C558 177 573 199 620 199 L620 199 Z M146 279 C192 279 231 293 231 344 L231 433 C231 478 189 500 146 500 C102 500 60 478 60 433 L60 344 C60 293 99 279 146 279 L146 279 Z M146 477 C191 477 207 455 207 436 L207 341 C207 317 191 302 146 302 C99 302 84 317 84 341 L84 436 C84 455 99 477 146 477 L146 477 Z M410 1 C456 1 495 15 495 66 L495 155 C495 200 453 222 410 222 C366 222 324 200 324 155 L324 66 C324 15 363 1 410 1 L410 1 Z M410 199 C455 199 471 177 471 158 L471 63 C471 39 455 24 410 24 C363 24 348 39 348 63 L348 158 C348 177 363 199 410 199 L410 199 Z M392 488 C392 495 387 500 380 500 C375 500 371 496 369 491 L160 12 C160 5 165 0 172 0 C177 0 181 4 183 9 L392 488 Z " />
<glyph glyph-name="guilsinglleft" unicode="&#x2039;" horiz-adv-x="431" d="M91 164 L91 172 L97 172 L362 297 C367 298 371 303 371 309 C371 316 366 321 359 321 C357 321 355 321 353 320 L69 185 C63 182 60 175 60 168 C60 161 63 154 69 151 L353 16 C355 15 357 15 359 15 C366 15 371 20 371 27 C371 33 367 38 362 39 L97 164 L91 164 Z " />
<glyph glyph-name="guilsinglright" unicode="&#x203a;" horiz-adv-x="431" d="M334 164 L69 39 C64 38 60 33 60 27 C60 20 65 15 72 15 C74 15 76 15 78 16 L362 151 C368 154 371 161 371 168 C371 175 368 182 362 185 L78 320 C76 321 74 321 72 321 C65 321 60 316 60 309 C60 303 64 298 69 297 L334 172 L340 172 L340 164 L334 164 Z " />
<glyph glyph-name="fraction" unicode="&#x2044;" horiz-adv-x="307" d="M60 12 C60 5 66 0 73 0 C79 0 84 4 85 9 L247 546 C247 553 241 558 234 558 C228 558 223 554 222 549 L60 12 Z " />
<glyph glyph-name="Euro" unicode="&#x20ac;" horiz-adv-x="565" d="M72 343 C65 343 60 337 60 330 C60 323 65 318 72 318 L135 318 L135 190 L72 190 C65 190 60 184 60 177 C60 170 65 165 72 165 L135 165 C138 37 223 -5 345 -5 C382 -5 444 -1 495 8 C501 9 505 13 505 19 C505 27 500 32 492 32 C445 23 383 20 343 20 C231 20 160 64 159 165 L324 165 C331 165 336 170 336 177 C336 184 331 190 324 190 L159 190 L159 318 L324 318 C331 318 336 323 336 330 C336 337 331 343 324 343 L159 343 C163 438 234 480 343 480 C382 480 444 478 491 469 C498 469 503 474 503 480 C503 487 497 493 490 493 C441 501 379 505 345 505 C227 505 145 461 136 343 L72 343 Z " />
<glyph glyph-name="trademark" unicode="&#x2122;" horiz-adv-x="653" d="M72 500 C65 500 60 495 60 488 C60 481 65 476 72 476 L150 476 L150 196 C150 189 155 184 162 184 C169 184 174 189 174 196 L174 476 L262 476 C269 476 274 481 274 488 C274 495 269 500 262 500 L72 500 Z M444 184 C451 184 457 188 459 194 L569 452 L569 196 C569 189 574 184 581 184 C588 184 593 189 593 196 L593 484 C593 493 585 500 576 500 C568 500 562 496 559 490 L444 215 L329 490 C326 496 320 500 312 500 C303 500 295 493 295 484 L295 196 C295 189 300 184 307 184 C314 184 319 189 319 196 L319 452 L429 194 C431 188 437 184 444 184 L444 184 Z " />
<glyph glyph-name="Omega" unicode="&#x2126;" horiz-adv-x="550" d="M278 480 C379 480 461 434 461 325 L461 200 C461 124 409 53 368 26 C363 24 360 19 360 13 C360 5 366 0 374 0 L478 0 C485 0 490 5 490 12 C490 19 485 25 478 25 L411 25 C456 78 485 134 485 191 L485 324 C485 459 384 505 275 505 C166 505 65 459 65 324 L65 191 C65 134 94 78 139 25 L72 25 C65 25 60 19 60 12 C60 5 65 0 72 0 L176 0 C184 0 190 5 190 13 C190 19 187 24 182 26 C141 53 89 124 89 200 L89 325 C89 434 171 480 272 480 L278 480 Z " />
<glyph glyph-name="partialdiff" unicode="&#x2202;" horiz-adv-x="433" d="M84 207 C84 288 89 339 205 339 C314 339 349 295 349 271 L349 116 C349 98 346 20 219 20 C89 20 84 77 84 154 L84 207 Z M349 325 L345 325 C298 360 242 364 205 364 C60 364 60 294 60 208 L60 150 C60 65 65 -5 219 -5 C247 -5 316 1 349 43 L349 12 C349 5 354 0 361 0 C368 0 373 5 373 12 L373 364 C373 473 307 505 206 505 C178 505 142 502 106 494 C101 493 98 488 98 483 C98 476 102 471 109 471 C142 478 166 480 197 480 C301 480 349 458 349 365 L349 325 Z " />
<glyph glyph-name="Delta" unicode="&#x2206;" horiz-adv-x="522" d="M92 26 L261 469 L430 26 L92 26 Z M443 0 C453 0 462 8 462 18 L284 484 C280 493 272 500 261 500 C250 500 242 493 238 484 L60 18 C60 8 69 0 79 0 L443 0 Z " />
<glyph glyph-name="product" unicode="&#x220f;" horiz-adv-x="553" d="M72 500 C65 500 60 494 60 487 C60 480 65 475 72 475 L145 475 L145 -168 C145 -175 150 -180 157 -180 C164 -180 169 -175 169 -168 L169 475 L384 475 L384 -168 C384 -175 389 -180 396 -180 C403 -180 408 -175 408 -168 L408 475 L481 475 C488 475 493 480 493 487 C493 494 488 500 481 500 L72 500 Z " />
<glyph glyph-name="summation" unicode="&#x2211;" horiz-adv-x="447" d="M182 176 C183 174 184 171 184 169 C184 167 183 164 182 162 L62 -127 C61 -132 60 -136 60 -141 C60 -149 66 -160 75 -160 L374 -160 C381 -160 387 -155 387 -148 C387 -141 381 -135 374 -135 L85 -135 C127 -33 167 60 207 162 C208 164 209 167 209 169 C209 171 208 174 207 176 C167 278 127 373 85 475 L374 475 C381 475 387 480 387 487 C387 494 381 500 374 500 L75 500 C66 500 60 489 60 481 C60 477 62 468 62 467 L182 176 Z " />
<glyph glyph-name="minus" unicode="&#x2212;" horiz-adv-x="478" d="M72 205 C65 205 60 199 60 192 C60 185 65 180 72 180 L406 180 C413 180 418 185 418 192 C418 199 413 205 406 205 L72 205 Z " />
<glyph glyph-name="radical" unicode="&#x221a;" horiz-adv-x="608" d="M229 0 C239 0 248 7 251 16 L441 496 L536 496 C543 496 548 501 548 508 C548 515 543 521 536 521 L432 521 C429 520 427 519 425 517 L422 512 L229 26 L84 391 C82 396 77 400 72 400 C65 400 60 394 60 387 L207 16 C210 7 219 0 229 0 L229 0 Z " />
<glyph glyph-name="infinity" unicode="&#x221e;" horiz-adv-x="918" d="M688 404 C783 404 834 381 834 273 L834 259 C834 150 783 128 688 128 C615 128 543 187 474 264 C521 330 617 404 688 404 L688 404 Z M459 241 C515 179 602 103 688 103 C805 103 858 135 858 259 L858 273 C858 391 805 429 688 429 C598 429 524 360 459 287 C394 360 320 429 230 429 C113 429 60 391 60 273 L60 259 C60 135 113 103 230 103 C316 103 403 179 459 241 L459 241 Z M230 404 C301 404 397 330 444 264 C375 187 303 128 230 128 C135 128 84 150 84 259 L84 273 C84 381 135 404 230 404 L230 404 Z " />
<glyph glyph-name="integral" unicode="&#x222b;" horiz-adv-x="438" d="M207 -50 C207 -128 199 -158 140 -158 C112 -158 94 -157 73 -152 C66 -152 60 -158 60 -165 C60 -171 64 -175 69 -177 C95 -183 110 -183 139 -183 C207 -183 231 -163 231 -56 L231 388 C231 466 239 496 298 496 C326 496 344 495 365 490 C372 490 378 496 378 503 C378 509 374 513 369 515 C343 521 328 521 299 521 C231 521 207 501 207 394 L207 -50 Z " />
<glyph glyph-name="approxequal" unicode="&#x2248;" horiz-adv-x="465" d="M387 230 C367 219 356 215 330 215 C257 215 204 279 134 279 C110 279 87 276 66 263 C63 261 60 257 60 252 C60 245 65 240 72 240 C75 240 78 240 80 242 C96 252 112 254 134 254 C203 254 259 190 330 190 C356 190 379 197 400 209 C403 211 405 215 405 219 C405 226 400 231 393 231 C391 231 389 231 387 230 L387 230 Z M387 125 C367 114 356 110 330 110 C257 110 204 174 134 174 C110 174 87 171 66 158 C63 156 60 152 60 147 C60 140 65 135 72 135 C75 135 78 135 80 137 C96 147 112 149 134 149 C203 149 259 85 330 85 C356 85 379 92 400 104 C403 106 405 110 405 114 C405 121 400 126 393 126 C391 126 389 126 387 125 L387 125 Z " />
<glyph glyph-name="notequal" unicode="&#x2260;" horiz-adv-x="384" d="M204 270 L72 270 C65 270 60 264 60 257 C60 250 65 245 72 245 L197 245 L161 127 L72 127 C65 127 60 121 60 114 C60 107 65 102 72 102 L154 102 L127 11 C127 10 126 8 126 6 C126 -1 130 -5 137 -5 C144 -5 149 -2 150 4 L179 102 L312 102 C319 102 324 107 324 114 C324 121 319 127 312 127 L187 127 L222 245 L312 245 C319 245 324 250 324 257 C324 264 319 270 312 270 L229 270 L258 368 C258 375 253 380 246 380 C240 380 236 377 235 372 L204 270 Z " />
<glyph glyph-name="lessequal" unicode="&#x2264;" horiz-adv-x="431" d="M91 201 L91 209 L97 209 L362 334 C367 335 371 340 371 346 C371 353 366 358 359 358 C357 358 355 358 353 357 L69 222 C63 219 60 212 60 205 C60 198 63 191 69 188 L353 53 C355 52 357 52 359 52 C366 52 371 57 371 64 C371 70 367 75 362 76 L97 201 L91 201 Z M73 25 C66 25 61 19 61 12 C61 5 66 0 73 0 L359 0 C366 0 371 5 371 12 C371 19 366 25 359 25 L73 25 Z " />
<glyph glyph-name="greaterequal" unicode="&#x2265;" horiz-adv-x="431" d="M334 201 L69 76 C64 75 60 70 60 64 C60 57 65 52 72 52 C74 52 76 52 78 53 L362 188 C368 191 371 198 371 205 C371 212 368 219 362 222 L78 357 C76 358 74 358 72 358 C65 358 60 353 60 346 C60 340 64 335 69 334 L334 209 L340 209 L340 201 L334 201 Z M72 25 C65 25 60 19 60 12 C60 5 65 0 72 0 L358 0 C365 0 370 5 370 12 C370 19 365 25 358 25 L72 25 Z " />
<glyph glyph-name="lozenge" unicode="&#x25ca;" horiz-adv-x="366" d="M183 41 L91 239 C90 241 89 244 89 247 C89 250 90 253 91 256 C122 325 151 390 183 458 C215 390 244 325 275 256 C276 253 277 250 277 247 C277 244 276 241 275 239 L183 41 Z M183 0 C192 0 198 4 201 11 L304 239 C305 241 306 244 306 247 C306 250 305 253 304 256 L201 489 C198 496 191 500 183 500 C175 500 168 496 165 489 L62 256 C61 253 60 250 60 247 C60 244 61 241 62 239 L165 11 C168 4 174 0 183 0 L183 0 Z " />
<glyph glyph-name="uni25CC" unicode="&#x25cc;" horiz-adv-x="512" d="" />
<glyph glyph-name="fi" unicode="&#xfb01;" horiz-adv-x="373" d="M220 546 C190 550 175 550 169 550 C106 550 86 514 86 412 L86 400 L28 400 C20 400 15 394 15 386 C15 378 20 373 28 373 L86 373 L86 12 C86 5 91 0 98 0 C105 0 110 5 110 12 L110 373 L212 373 C220 373 225 378 225 386 C225 394 220 400 212 400 L110 400 L110 409 C110 502 117 527 178 527 C187 527 200 527 218 524 C224 524 229 529 229 535 C229 540 225 545 220 546 L220 546 Z M289 12 C289 5 294 0 301 0 C308 0 313 5 313 12 L313 388 C313 395 308 400 301 400 C294 400 289 395 289 388 L289 12 Z M289 452 C289 445 294 440 301 440 C308 440 313 445 313 452 L313 467 C313 474 308 479 301 479 C294 479 289 474 289 467 L289 452 Z " />
<glyph glyph-name="fl" unicode="&#xfb02;" horiz-adv-x="373" d="M220 546 C190 550 175 550 169 550 C106 550 86 514 86 412 L86 400 L28 400 C20 400 15 394 15 386 C15 378 20 373 28 373 L86 373 L86 12 C86 5 91 0 98 0 C105 0 110 5 110 12 L110 373 L212 373 C220 373 225 378 225 386 C225 394 220 400 212 400 L110 400 L110 409 C110 502 117 527 178 527 C187 527 200 527 218 524 C224 524 229 529 229 535 C229 540 225 545 220 546 L220 546 Z M289 12 C289 5 294 0 301 0 C308 0 313 5 313 12 L313 524 C313 531 308 536 301 536 C294 536 289 531 289 524 L289 12 Z " />
</font>
</svg>
