<?xml version="1.0" encoding="UTF-8"?>
<svg xmlns="http://www.w3.org/2000/svg" xmlns:xlink="http://www.w3.org/1999/xlink" version="1.2" >
<font id="Stereo Gothic 700 Italic">
<font-face  font-family="Stereo Gothic" units-per-em="1000" ascent="700" descent="-300" font-style="italic" font-weight="700" font-stretch="normal" slope="-10" cap-height="700" x-height="560" underline-position="-75" underline-thickness="50" />
<missing-glyph  horiz-adv-x="1000" d="M152 0 L852 0 L852 700 L152 700 L152 0 Z M245 53 L794 601 L794 53 L245 53 Z M210 647 L758 647 L210 99 L210 647 Z " />
<glyph glyph-name="NULL" d="" />
<glyph glyph-name="CR" unicode="&#xd;" horiz-adv-x="250" d="" />
<glyph glyph-name="space" unicode="&#x20;" horiz-adv-x="480" d="" />
<glyph glyph-name="exclam" unicode="&#x21;" horiz-adv-x="367" d="M47 0 L203 0 L231 158 L75 158 L47 0 Z M95 222 L228 222 L325 700 L175 700 L95 222 Z " />
<glyph glyph-name="quotedbl" unicode="&#x22;" horiz-adv-x="590" d="M124 400 L235 400 L311 700 L157 700 L124 400 Z M383 400 L494 400 L571 700 L416 700 L383 400 Z " />
<glyph glyph-name="numbersign" unicode="&#x23;" horiz-adv-x="1245" d="M770 0 L908 0 L948 149 L1099 149 L1121 275 L984 275 L1026 425 L1177 425 L1200 551 L1062 551 L1103 700 L965 700 L924 551 L439 551 L480 700 L342 700 L301 551 L151 551 L128 425 L265 425 L223 275 L72 275 L50 149 L187 149 L147 0 L285 0 L325 149 L810 149 L770 0 Z M403 425 L887 425 L845 275 L361 275 L403 425 Z " />
<glyph glyph-name="dollar" unicode="&#x24;" horiz-adv-x="1245" d="M489 -20 L627 -20 L644 70 L877 70 C1047 70 1114 162 1114 265 C1114 345 1065 405 934 405 L706 405 L722 504 L1126 504 L1150 630 L744 630 L761 721 L623 721 L606 630 L374 630 C202 630 136 536 136 432 C136 355 188 295 318 295 L547 295 L529 196 L125 196 L100 70 L506 70 L489 -20 Z M349 405 C298 405 285 423 285 445 C286 479 305 504 379 504 L584 504 L567 405 L349 405 Z M903 295 C954 295 967 277 967 255 C966 221 947 196 873 196 L668 196 L685 295 L903 295 Z " />
<glyph glyph-name="percent" unicode="&#x25;" horiz-adv-x="1245" d="M993 700 L106 0 L259 0 L1145 700 L993 700 Z M605 573 C617 645 588 700 481 700 L297 700 C188 700 143 649 130 576 L113 476 C100 405 131 350 239 350 L423 350 C530 350 576 402 588 474 L605 573 Z M226 568 C230 592 248 610 286 610 L471 610 C506 610 512 591 508 568 L492 482 C487 458 470 440 432 440 L247 440 C212 440 207 459 211 482 L226 568 Z M1136 223 C1148 295 1119 350 1012 350 L828 350 C719 350 674 299 661 226 L644 126 C631 55 662 0 770 0 L954 0 C1061 0 1107 52 1119 124 L1136 223 Z M757 218 C761 242 779 260 817 260 L1002 260 C1037 260 1043 241 1039 218 L1023 132 C1018 108 1001 90 963 90 L778 90 C743 90 738 109 742 132 L757 218 Z " />
<glyph glyph-name="ampersand" unicode="&#x26;" horiz-adv-x="1262" d="M250 0 L898 0 C1059 0 1125 87 1125 186 C1125 227 1111 267 1080 287 L1191 287 L1214 413 L408 413 C338 413 318 439 318 473 C318 513 347 560 435 560 L1024 560 L1049 700 L417 700 C234 700 161 600 161 488 C161 435 186 387 231 363 C102 334 54 246 54 156 C54 69 108 0 250 0 L250 0 Z M855 140 L318 140 C246 140 226 165 226 199 C226 240 254 287 343 287 L891 287 C955 287 974 259 974 228 C974 182 945 140 855 140 L855 140 Z " />
<glyph glyph-name="quotesingle" unicode="&#x27;" horiz-adv-x="334" d="M124 400 L235 400 L311 700 L157 700 L124 400 Z " />
<glyph glyph-name="parenleft" unicode="&#x28;" horiz-adv-x="487" d="M347 -116 C183 160 253 540 515 815 L388 815 C85 547 14 153 221 -116 L347 -116 Z " />
<glyph glyph-name="parenright" unicode="&#x29;" horiz-adv-x="487" d="M105 -116 C408 153 480 547 273 815 L146 815 C312 540 242 160 -22 -116 L105 -116 Z " />
<glyph glyph-name="asterisk" unicode="&#x2a;" horiz-adv-x="574" d="M555 466 L515 603 L348 513 L382 700 L239 700 L267 513 L102 602 L56 466 L241 437 L105 308 L219 224 L305 390 L385 225 L502 308 L370 436 L555 466 Z " />
<glyph glyph-name="plus" unicode="&#x2b;" horiz-adv-x="1245" d="M273 280 L548 280 L548 30 L702 30 L702 280 L977 280 L977 420 L702 420 L702 670 L548 670 L548 420 L273 420 L273 280 Z " />
<glyph glyph-name="comma" unicode="&#x2c;" horiz-adv-x="329" d="M29 0 L96 0 L1 -151 L69 -151 L188 12 L216 158 L57 158 L29 0 Z " />
<glyph glyph-name="hyphen" unicode="&#x2d;" horiz-adv-x="576" d="M61 210 L469 210 L494 350 L86 350 L61 210 Z " />
<glyph glyph-name="period" unicode="&#x2e;" horiz-adv-x="329" d="M29 0 L186 0 L216 158 L57 158 L29 0 Z " />
<glyph glyph-name="slash" unicode="&#x2f;" horiz-adv-x="570" d="M-96 -76 L40 -76 L676 777 L538 777 L-96 -76 Z " />
<glyph glyph-name="zero" unicode="0" horiz-adv-x="1245" d="M78 248 C53 111 118 0 333 0 L804 0 C1021 0 1112 102 1137 244 L1173 452 C1198 589 1133 700 918 700 L447 700 C230 700 139 598 114 456 L78 248 Z M900 560 C1014 560 1028 505 1017 445 L984 255 C973 191 933 140 823 140 L351 140 C236 140 222 195 233 254 L266 445 C277 509 318 560 427 560 L900 560 Z " />
<glyph glyph-name="one" unicode="1" horiz-adv-x="1245" d="M401 560 L643 560 L569 140 L182 140 L157 0 L969 0 L994 140 L723 140 L823 700 L427 700 L401 560 Z " />
<glyph glyph-name="two" unicode="2" horiz-adv-x="1245" d="M1098 140 L212 140 L225 209 C233 249 260 287 336 287 L896 287 C1111 287 1195 401 1195 527 C1195 625 1134 700 970 700 L197 700 L171 560 L941 560 C1014 560 1030 530 1030 498 C1030 454 1003 413 917 413 L355 413 C179 413 92 329 71 211 L34 0 L1073 0 L1098 140 Z " />
<glyph glyph-name="three" unicode="3" horiz-adv-x="1245" d="M14 0 L872 0 C1060 0 1134 105 1134 219 C1134 286 1100 343 1021 363 C1106 400 1146 470 1146 554 C1146 636 1092 700 955 700 L159 700 L133 560 L887 560 C959 560 979 535 979 500 C979 460 950 413 864 413 L191 413 L168 287 L881 287 C953 287 974 258 974 226 C974 185 944 140 857 140 L39 140 L14 0 Z " />
<glyph glyph-name="four" unicode="4" horiz-adv-x="1245" d="M1004 700 L47 232 L25 115 L890 115 L872 0 L1023 0 L1042 115 L1149 115 L1174 255 L1068 255 L1148 700 L1004 700 Z M356 255 L970 552 L916 255 L356 255 Z " />
<glyph glyph-name="five" unicode="5" horiz-adv-x="1245" d="M84 287 L891 287 C964 287 982 258 982 225 C982 181 953 140 867 140 L76 140 L51 0 L845 0 C1057 0 1143 109 1143 238 C1143 337 1083 413 920 413 L261 413 L298 560 L1163 560 L1189 700 L191 700 L84 287 Z " />
<glyph glyph-name="six" unicode="6" horiz-adv-x="1245" d="M558 560 L1153 560 L1179 700 L571 700 C267 700 133 561 98 361 L78 248 C53 111 118 0 332 0 L860 0 C1071 0 1158 108 1158 238 C1158 338 1096 413 934 413 L423 413 C342 413 287 391 251 355 C275 477 358 560 558 560 L558 560 Z M339 287 L907 287 C978 287 994 258 994 225 C994 181 967 140 881 140 L350 140 C255 140 230 178 230 224 C239 259 267 287 339 287 L339 287 Z " />
<glyph glyph-name="seven" unicode="7" horiz-adv-x="1245" d="M488 0 L1203 578 L1227 700 L140 700 L114 560 L968 560 L256 0 L488 0 Z " />
<glyph glyph-name="eight" unicode="8" horiz-adv-x="1245" d="M238 0 L888 0 C1076 0 1150 105 1150 219 C1150 286 1116 343 1037 363 C1122 400 1162 470 1162 554 C1162 636 1108 700 971 700 L406 700 C222 700 149 600 149 488 C149 435 170 387 219 363 C90 334 42 246 42 156 C42 69 96 0 238 0 L238 0 Z M872 140 L305 140 C234 140 213 165 213 199 C213 240 241 287 330 287 L896 287 C969 287 990 258 990 226 C990 184 960 140 872 140 L872 140 Z M903 560 C974 560 995 534 995 501 C995 460 967 413 879 413 L395 413 C325 413 305 439 305 473 C305 513 334 560 422 560 L903 560 Z " />
<glyph glyph-name="nine" unicode="9" horiz-adv-x="1245" d="M693 140 L98 140 L72 0 L680 0 C984 0 1118 139 1153 339 L1173 452 C1198 589 1133 700 919 700 L391 700 C180 700 96 592 93 462 C91 362 155 287 317 287 L828 287 C908 287 964 309 1000 344 C975 222 893 140 693 140 L693 140 Z M912 413 L344 413 C273 413 257 442 257 475 C257 519 284 560 370 560 L901 560 C995 560 1021 522 1021 475 C1012 440 984 413 912 413 L912 413 Z " />
<glyph glyph-name="colon" unicode="&#x3a;" horiz-adv-x="329" d="M99 402 L256 402 L285 560 L128 560 L99 402 Z M29 0 L186 0 L216 158 L57 158 L29 0 Z " />
<glyph glyph-name="semicolon" unicode="&#x3b;" horiz-adv-x="329" d="M29 0 L96 0 L1 -151 L69 -151 L188 12 L216 158 L57 158 L29 0 Z M99 402 L256 402 L285 560 L128 560 L99 402 Z " />
<glyph glyph-name="less" unicode="&#x3c;" horiz-adv-x="1245" d="M967 158 L473 349 L967 542 L967 694 L283 423 L283 277 L967 6 L967 158 Z " />
<glyph glyph-name="equal" unicode="&#x3d;" horiz-adv-x="1245" d="M273 117 L977 117 L977 257 L273 257 L273 117 Z M273 443 L977 443 L977 583 L273 583 L273 443 Z " />
<glyph glyph-name="greater" unicode="&#x3e;" horiz-adv-x="1245" d="M283 6 L967 277 L967 423 L283 694 L283 542 L777 349 L283 158 L283 6 Z " />
<glyph glyph-name="question" unicode="&#x3f;" horiz-adv-x="1026" d="M258 222 L398 222 L409 290 L735 290 C951 290 1032 401 1032 527 C1032 625 971 700 807 700 L90 700 L64 560 L779 560 C850 560 867 530 867 497 C867 453 840 410 751 410 L292 410 L258 222 Z M209 0 L367 0 L395 158 L238 158 L209 0 Z " />
<glyph glyph-name="at" unicode="&#x40;" horiz-adv-x="1341" d="M700 420 L628 420 C410 420 324 298 324 169 C324 69 387 -10 550 -10 L641 -10 C727 -10 791 18 829 62 L835 0 L1127 0 C1221 90 1262 193 1262 309 C1262 492 1150 635 853 635 L646 635 C215 635 39 394 39 129 C39 -69 169 -224 492 -224 L648 -224 L667 -115 L508 -115 C251 -115 171 3 171 152 C171 342 288 526 632 526 L785 526 C1008 526 1131 462 1131 294 C1131 220 1104 146 1072 109 L929 109 L983 410 L903 410 L879 337 C856 386 792 420 700 420 L700 420 Z M571 99 C477 99 452 137 452 186 C452 251 496 311 608 311 L700 311 C797 311 825 273 825 223 C825 162 797 99 663 99 L571 99 Z " />
<glyph glyph-name="A" unicode="A" horiz-adv-x="1233" d="M990 0 L1170 0 L763 700 L602 700 L-55 0 L140 0 L250 119 L921 119 L990 0 Z M664 567 L848 246 L367 246 L664 567 Z " />
<glyph glyph-name="B" unicode="B" horiz-adv-x="1208" d="M53 0 L850 0 C1038 0 1112 105 1112 219 C1112 286 1080 343 1000 363 C1086 400 1125 470 1125 554 C1125 636 1071 700 934 700 L178 700 L53 0 Z M859 287 C932 287 952 258 952 226 C952 185 922 140 835 140 L232 140 L257 287 L859 287 Z M958 500 C958 460 930 413 842 413 L280 413 L306 560 L866 560 C938 560 958 534 958 500 L958 500 Z " />
<glyph glyph-name="C" unicode="C" horiz-adv-x="1136" d="M227 315 C227 428 285 560 533 560 L1104 560 L1129 700 L546 700 C200 700 62 507 62 296 C62 130 163 0 431 0 L1004 0 L1028 140 L456 140 C279 140 227 217 227 315 L227 315 Z " />
<glyph glyph-name="D" unicode="D" horiz-adv-x="1204" d="M53 0 L662 0 C1006 0 1145 193 1145 404 C1145 570 1044 700 776 700 L178 700 L53 0 Z M751 560 C928 560 980 483 980 385 C980 272 922 140 674 140 L230 140 L304 560 L751 560 Z " />
<glyph glyph-name="E" unicode="E" horiz-adv-x="1150" d="M53 0 L1019 0 L1044 140 L232 140 L257 287 L971 287 L994 413 L280 413 L306 560 L1118 560 L1144 700 L178 700 L53 0 Z " />
<glyph glyph-name="F" unicode="F" horiz-adv-x="1112" d="M53 0 L207 0 L254 270 L968 270 L994 410 L280 410 L306 560 L1118 560 L1144 700 L178 700 L53 0 Z " />
<glyph glyph-name="G" unicode="G" horiz-adv-x="1205" d="M623 287 L959 287 L933 140 L456 140 C279 140 227 217 227 315 C227 428 284 560 533 560 L1104 560 L1129 700 L546 700 C200 700 62 507 62 296 C62 130 163 0 431 0 L1057 0 L1130 413 L647 413 L623 287 Z " />
<glyph glyph-name="H" unicode="H" horiz-adv-x="1252" d="M926 0 L1080 0 L1205 700 L1051 700 L1001 420 L281 420 L332 700 L178 700 L53 0 L207 0 L255 280 L975 280 L926 0 Z " />
<glyph glyph-name="I" unicode="I" horiz-adv-x="379" d="M53 0 L207 0 L332 700 L178 700 L53 0 Z " />
<glyph glyph-name="J" unicode="J" horiz-adv-x="1161" d="M301 -5 L637 -5 C920 -5 1029 109 1064 305 L1134 700 L980 700 L912 331 C890 206 821 135 657 135 L328 135 C188 135 162 193 178 275 L189 334 L35 334 L24 275 C-5 124 61 -5 301 -5 L301 -5 Z " />
<glyph glyph-name="K" unicode="K" horiz-adv-x="1245" d="M1223 700 L955 700 L259 301 L329 700 L178 700 L53 0 L204 0 L229 134 L540 311 L949 0 L1186 0 L673 387 L1223 700 Z " />
<glyph glyph-name="L" unicode="L" horiz-adv-x="1083" d="M332 700 L178 700 L53 0 L1000 0 L1024 140 L232 140 L332 700 Z " />
<glyph glyph-name="M" unicode="M" horiz-adv-x="1396" d="M1192 700 L670 231 L315 700 L178 700 L53 0 L207 0 L292 487 L641 21 L1155 487 L1070 0 L1224 0 L1349 700 L1192 700 Z " />
<glyph glyph-name="N" unicode="N" horiz-adv-x="1255" d="M937 0 L1083 0 L1208 700 L1054 700 L960 168 L324 700 L178 700 L53 0 L207 0 L300 532 L937 0 Z " />
<glyph glyph-name="O" unicode="O" horiz-adv-x="1293" d="M734 -10 C1097 -10 1235 180 1235 407 C1235 578 1128 710 856 710 L565 710 C203 710 62 521 62 295 C62 122 171 -10 443 -10 L734 -10 Z M472 130 C286 130 227 209 227 313 C227 435 295 570 555 570 L826 570 C1011 570 1070 491 1070 389 C1070 260 997 130 743 130 L472 130 Z " />
<glyph glyph-name="P" unicode="P" horiz-adv-x="1147" d="M53 0 L207 0 L250 240 L823 240 C1056 240 1150 358 1150 506 C1150 614 1085 700 905 700 L178 700 L53 0 Z M876 560 C964 560 987 527 987 484 C987 429 949 380 845 380 L275 380 L306 560 L876 560 Z " />
<glyph glyph-name="Q" unicode="Q" horiz-adv-x="1293" d="M734 -10 C769 -10 803 -8 834 -4 L985 -110 L1215 -110 L1002 37 C1167 107 1235 248 1235 407 C1235 578 1128 710 856 710 L565 710 C203 710 62 521 62 295 C62 122 171 -10 443 -10 L734 -10 Z M472 130 C286 130 227 209 227 313 C227 435 295 570 555 570 L826 570 C1011 570 1070 491 1070 389 C1070 260 997 130 743 130 L472 130 Z " />
<glyph glyph-name="R" unicode="R" horiz-adv-x="1228" d="M53 0 L204 0 L248 243 L612 243 L934 0 L1168 0 L828 245 C1047 250 1140 365 1140 507 C1140 615 1073 700 895 700 L178 700 L53 0 Z M866 560 C953 560 978 527 978 485 C978 427 939 377 830 377 L272 377 L304 560 L866 560 Z " />
<glyph glyph-name="S" unicode="S" horiz-adv-x="1158" d="M798 140 L69 140 L43 0 L777 0 C988 0 1075 108 1075 238 C1075 338 1012 413 850 413 L340 413 C269 413 253 442 253 475 C253 519 280 560 366 560 L1095 560 L1121 700 L387 700 C176 700 89 592 89 462 C89 362 152 287 313 287 L824 287 C895 287 912 258 912 225 C912 181 884 140 798 140 L798 140 Z " />
<glyph glyph-name="T" unicode="T" horiz-adv-x="1136" d="M64 560 L531 560 L431 0 L585 0 L685 560 L1152 560 L1177 700 L90 700 L64 560 Z " />
<glyph glyph-name="U" unicode="U" horiz-adv-x="1223" d="M244 323 L313 700 L159 700 L90 323 C55 130 131 -10 420 -10 L698 -10 C980 -10 1092 116 1126 307 L1196 700 L1042 700 L976 333 C953 208 883 130 719 130 L437 130 C262 130 225 210 244 323 L244 323 Z " />
<glyph glyph-name="V" unicode="V" horiz-adv-x="1233" d="M640 0 L1296 700 L1094 700 L575 132 L260 700 L70 700 L476 0 L640 0 Z " />
<glyph glyph-name="W" unicode="W" horiz-adv-x="1552" d="M805 509 L980 0 L1094 0 L1602 700 L1408 700 L1061 192 L890 700 L776 700 L424 192 L259 700 L82 700 L339 0 L453 0 L805 509 Z " />
<glyph glyph-name="X" unicode="X" horiz-adv-x="1177" d="M81 700 L477 352 L-49 0 L204 0 L586 271 L873 0 L1109 0 L709 352 L1229 700 L976 700 L598 433 L317 700 L81 700 Z " />
<glyph glyph-name="Y" unicode="Y" horiz-adv-x="1203" d="M465 0 L619 0 L656 213 L1274 700 L1039 700 L594 333 L275 700 L61 700 L502 213 L465 0 Z " />
<glyph glyph-name="Z" unicode="Z" horiz-adv-x="1152" d="M10 0 L1038 0 L1063 140 L340 140 L1124 592 L1139 700 L140 700 L114 560 L808 560 L24 108 L10 0 Z " />
<glyph glyph-name="bracketleft" unicode="&#x5b;" horiz-adv-x="487" d="M34 -150 L358 -150 L379 -38 L208 -38 L345 738 L517 738 L537 850 L212 850 L34 -150 Z " />
<glyph glyph-name="backslash" unicode="&#x5c;" horiz-adv-x="570" d="M187 777 L64 777 L392 -76 L516 -76 L187 777 Z " />
<glyph glyph-name="bracketright" unicode="&#x5d;" horiz-adv-x="487" d="M460 850 L136 850 L116 738 L287 738 L149 -38 L-22 -38 L-43 -150 L281 -150 L460 850 Z " />
<glyph glyph-name="asciicircum" unicode="&#x5e;" horiz-adv-x="1245" d="M850 350 L1039 350 L707 800 L543 800 L211 350 L400 350 L625 666 L850 350 Z " />
<glyph glyph-name="underscore" unicode="&#x5f;" horiz-adv-x="500" d="M-60 -173 L440 -173 L440 -52 L-60 -52 L-60 -173 Z " />
<glyph glyph-name="grave" unicode="&#x60;" horiz-adv-x="480" d="M318 806 L154 806 L287 635 L382 635 L318 806 Z " />
<glyph glyph-name="a" unicode="a" horiz-adv-x="1054" d="M827 0 L990 0 L640 560 L495 560 L-54 0 L120 0 L216 100 L765 100 L827 0 Z M552 448 L702 204 L317 204 L552 448 Z " />
<glyph glyph-name="b" unicode="b" horiz-adv-x="1039" d="M43 0 L726 0 C889 0 942 85 942 173 C942 229 915 274 846 291 C918 322 949 379 949 442 C949 510 907 560 792 560 L142 560 L43 0 Z M730 441 C786 441 801 425 801 400 C801 370 781 332 712 332 L239 332 L257 441 L730 441 Z M728 228 C784 228 799 212 799 187 C799 157 779 119 710 119 L201 119 L219 228 L728 228 Z " />
<glyph glyph-name="c" unicode="c" horiz-adv-x="973" d="M192 248 C192 347 270 441 446 441 L927 441 L950 560 L454 560 C153 560 46 400 46 232 C46 102 128 0 353 0 L849 0 L871 119 L368 119 C235 119 192 169 192 248 L192 248 Z " />
<glyph glyph-name="d" unicode="d" horiz-adv-x="1036" d="M43 0 L563 0 C864 0 971 160 971 328 C971 457 888 560 664 560 L144 560 L43 0 Z M650 441 C783 441 825 391 825 312 C825 213 747 119 571 119 L202 119 L258 441 L650 441 Z " />
<glyph glyph-name="e" unicode="e" horiz-adv-x="991" d="M43 0 L865 0 L886 119 L201 119 L219 228 L820 228 L839 332 L239 332 L257 441 L943 441 L964 560 L142 560 L43 0 Z " />
<glyph glyph-name="f" unicode="f" horiz-adv-x="974" d="M43 0 L180 0 L217 212 L817 212 L839 330 L239 330 L257 441 L943 441 L964 560 L142 560 L43 0 Z " />
<glyph glyph-name="g" unicode="g" horiz-adv-x="1035" d="M781 119 L368 119 C235 119 192 169 192 248 C192 347 270 441 446 441 L927 441 L948 560 L454 560 C153 560 46 400 46 232 C46 102 128 0 353 0 L894 0 L952 332 L540 332 L519 228 L799 228 L781 119 Z " />
<glyph glyph-name="h" unicode="h" horiz-adv-x="1080" d="M781 0 L918 0 L1017 560 L880 560 L841 340 L241 340 L279 560 L142 560 L43 0 L180 0 L218 220 L818 220 L781 0 Z " />
<glyph glyph-name="i" unicode="i" horiz-adv-x="342" d="M43 0 L180 0 L279 560 L142 560 L43 0 Z " />
<glyph glyph-name="j" unicode="j" horiz-adv-x="999" d="M249 -4 L550 -4 C775 -4 871 86 899 244 L955 560 L819 560 L764 260 C746 164 692 115 558 115 L258 115 C154 115 139 161 149 220 L158 269 L23 269 L14 220 C-8 97 41 -4 249 -4 L249 -4 Z " />
<glyph glyph-name="k" unicode="k" horiz-adv-x="1072" d="M1039 560 L791 560 L223 248 L279 560 L142 560 L43 0 L180 0 L198 102 L458 243 L795 0 L1009 0 L578 309 L1039 560 Z " />
<glyph glyph-name="l" unicode="l" horiz-adv-x="945" d="M279 560 L142 560 L43 0 L849 0 L870 119 L201 119 L279 560 Z " />
<glyph glyph-name="m" unicode="m" horiz-adv-x="1202" d="M1000 560 L568 194 L265 560 L142 560 L43 0 L180 0 L246 379 L544 15 L970 379 L903 0 L1040 0 L1139 560 L1000 560 Z " />
<glyph glyph-name="n" unicode="n" horiz-adv-x="1083" d="M921 0 L1020 560 L883 560 L810 145 L272 560 L142 560 L43 0 L180 0 L253 415 L791 0 L921 0 Z " />
<glyph glyph-name="o" unicode="o" horiz-adv-x="1107" d="M621 -8 C926 -8 1039 152 1042 326 C1044 461 960 568 725 568 L465 568 C160 568 49 408 46 234 C43 99 126 -8 361 -8 L621 -8 Z M385 111 C233 111 191 171 191 247 C192 344 263 449 445 449 L703 449 C853 449 896 389 896 312 C896 219 825 111 642 111 L385 111 Z " />
<glyph glyph-name="p" unicode="p" horiz-adv-x="997" d="M43 0 L180 0 L212 188 L699 188 C902 188 971 293 971 402 C971 490 917 560 765 560 L142 560 L43 0 Z M740 441 C809 441 826 418 826 386 C826 348 804 308 716 308 L234 308 L257 441 L740 441 Z " />
<glyph glyph-name="q" unicode="q" horiz-adv-x="1107" d="M621 -8 C648 -8 673 -7 697 -4 L817 -88 L1024 -88 L842 30 C983 87 1040 203 1042 326 C1044 461 960 568 725 568 L465 568 C160 568 49 408 46 234 C43 99 126 -8 361 -8 L621 -8 Z M385 111 C233 111 191 171 191 247 C192 344 263 449 445 449 L703 449 C853 449 896 389 896 312 C896 219 825 111 642 111 L385 111 Z " />
<glyph glyph-name="r" unicode="r" horiz-adv-x="1061" d="M43 0 L180 0 L213 191 L521 191 L783 0 L993 0 L714 193 C897 200 964 299 964 404 C964 490 910 560 758 560 L144 560 L43 0 Z M731 441 C803 441 819 415 819 385 C819 347 798 305 706 305 L234 305 L258 441 L731 441 Z " />
<glyph glyph-name="s" unicode="s" horiz-adv-x="990" d="M673 119 L52 119 L30 0 L659 0 C845 0 906 91 906 194 C906 272 855 330 719 330 L277 330 C222 330 208 352 208 376 C208 408 227 441 297 441 L918 441 L941 560 L312 560 C125 560 65 469 65 367 C65 288 115 230 252 230 L693 230 C748 230 763 208 763 184 C763 153 743 119 673 119 L673 119 Z " />
<glyph glyph-name="t" unicode="t" horiz-adv-x="997" d="M54 441 L448 441 L371 0 L508 0 L585 441 L979 441 L1001 560 L76 560 L54 441 Z " />
<glyph glyph-name="u" unicode="u" horiz-adv-x="1049" d="M205 258 L259 560 L123 560 L69 258 C41 104 90 -8 347 -8 L599 -8 C824 -8 920 83 948 240 L1005 560 L869 560 L814 256 C796 160 743 111 609 111 L370 111 C209 111 190 165 205 258 L205 258 Z " />
<glyph glyph-name="v" unicode="v" horiz-adv-x="1054" d="M541 0 L1089 560 L912 560 L484 112 L213 560 L45 560 L396 0 L541 0 Z " />
<glyph glyph-name="w" unicode="w" horiz-adv-x="1327" d="M673 397 L824 0 L925 0 L1349 560 L1180 560 L896 163 L748 560 L647 560 L360 163 L215 560 L56 560 L283 0 L384 0 L673 397 Z " />
<glyph glyph-name="x" unicode="x" horiz-adv-x="1018" d="M60 560 L397 282 L-43 0 L183 0 L496 209 L736 0 L943 0 L601 282 L1039 560 L812 560 L505 353 L268 560 L60 560 Z " />
<glyph glyph-name="y" unicode="y" horiz-adv-x="1023" d="M384 0 L521 0 L551 171 L1067 560 L859 560 L493 272 L225 560 L35 560 L414 171 L384 0 Z " />
<glyph glyph-name="z" unicode="z" horiz-adv-x="986" d="M3 0 L879 0 L900 119 L297 119 L945 468 L957 560 L106 560 L84 441 L660 441 L14 92 L3 0 Z " />
<glyph glyph-name="braceleft" unicode="&#x7b;" horiz-adv-x="487" d="M179 457 C174 430 166 406 119 406 L56 406 L35 294 L99 294 C145 294 147 270 142 243 L95 -21 C83 -92 112 -150 226 -150 L360 -150 L380 -38 L296 -38 C249 -38 249 -14 254 13 L293 231 C302 284 281 336 220 350 C293 362 323 404 333 459 L373 687 C378 715 388 738 434 738 L517 738 L537 850 L401 850 C286 850 238 792 226 721 L179 457 Z " />
<glyph glyph-name="bar" unicode="&#x7c;" horiz-adv-x="500" d="M186 850 L186 -150 L316 -150 L316 850 L186 850 Z " />
<glyph glyph-name="braceright" unicode="&#x7d;" horiz-adv-x="487" d="M315 243 C320 270 329 294 375 294 L439 294 L459 406 L395 406 C349 406 347 430 352 457 L399 721 C412 792 382 850 268 850 L134 850 L114 738 L198 738 C245 738 245 714 241 687 L202 469 C192 416 213 364 275 350 C201 338 171 296 161 241 L121 13 C116 -15 107 -38 60 -38 L-23 -38 L-43 -150 L93 -150 C208 -150 256 -92 268 -21 L315 243 Z " />
<glyph glyph-name="asciitilde" unicode="&#x7e;" horiz-adv-x="1245" d="M977 463 C713 240 552 618 273 405 L273 260 C537 483 699 105 977 318 L977 463 Z " />
<glyph glyph-name="uni00A0" unicode="&#xa0;" horiz-adv-x="480" d="" />
<glyph glyph-name="exclamdown" unicode="&#xa1;" horiz-adv-x="367" d="M330 700 L175 700 L146 542 L302 542 L330 700 Z M282 478 L149 478 L52 0 L203 0 L282 478 Z " />
<glyph glyph-name="cent" unicode="&#xa2;" horiz-adv-x="1245" d="M1105 252 L684 252 L755 448 L1139 448 L1164 574 L807 574 L862 721 L724 721 L668 574 L438 574 C212 574 121 449 121 316 C121 212 195 126 360 126 L496 126 L439 -20 L578 -20 L635 126 L1082 126 L1105 252 Z M270 333 C270 398 322 448 433 448 L616 448 L545 252 L388 252 C301 252 270 281 270 333 L270 333 Z " />
<glyph glyph-name="sterling" unicode="&#xa3;" horiz-adv-x="1245" d="M744 413 L407 413 L413 445 C424 505 453 560 565 560 L1058 560 L1083 700 L574 700 C377 700 286 594 262 460 L253 413 L126 413 L103 287 L231 287 L217 204 C210 160 180 134 138 134 L77 134 L53 0 L1073 0 L1098 140 L307 140 C342 155 370 188 376 229 L385 287 L720 287 L744 413 Z " />
<glyph glyph-name="currency" unicode="&#xa4;" horiz-adv-x="1245" d="M702 73 C784 73 850 87 905 113 L995 -13 L1117 83 L1014 188 C1065 237 1092 317 1093 394 C1094 429 1089 470 1076 498 L1214 598 L1111 710 L990 586 C946 613 884 627 803 627 L548 627 C467 627 398 613 344 587 L253 716 L132 614 L234 508 C171 439 156 359 155 306 C154 270 161 229 173 201 L35 91 L129 -15 L256 113 C300 88 366 73 448 73 L702 73 Z M313 324 C313 395 336 493 522 493 L777 493 C900 493 935 442 935 375 C935 305 913 207 727 207 L472 207 C350 207 313 257 313 324 L313 324 Z " />
<glyph glyph-name="yen" unicode="&#xa5;" horiz-adv-x="1245" d="M1007 700 L624 389 L351 700 L139 700 L381 446 L118 446 L95 327 L480 327 L533 268 L527 230 L78 230 L55 111 L504 111 L486 0 L640 0 L658 111 L1107 111 L1130 230 L681 230 L687 268 L761 327 L1146 327 L1169 446 L905 446 L1237 700 L1007 700 Z " />
<glyph glyph-name="brokenbar" unicode="&#xa6;" horiz-adv-x="500" d="M316 467 L316 850 L186 850 L186 467 L316 467 Z M186 233 L186 -150 L316 -150 L316 233 L186 233 Z " />
<glyph glyph-name="section" unicode="&#xa7;" horiz-adv-x="1176" d="M738 134 C794 134 808 116 808 94 C808 64 792 26 718 26 L157 26 L132 -100 L749 -100 C890 -100 946 -22 946 64 C946 92 938 121 920 138 C1056 152 1110 238 1110 329 C1110 405 1058 466 931 466 L426 466 C370 466 356 484 356 506 C356 536 372 574 446 574 L1007 574 L1032 700 L415 700 C274 700 218 622 218 536 C218 508 226 479 244 462 C108 448 54 362 54 271 C54 195 106 134 233 134 L738 134 Z M901 355 C957 355 970 335 970 311 C970 281 951 245 881 245 L263 245 C207 245 194 265 194 289 C194 319 213 355 283 355 L901 355 Z " />
<glyph glyph-name="dieresis" unicode="&#xa8;" horiz-adv-x="480" d="M364 649 L503 649 L528 789 L389 789 L364 649 Z M84 649 L223 649 L248 789 L108 789 L84 649 Z " />
<glyph glyph-name="copyright" unicode="&#xa9;" horiz-adv-x="1159" d="M668 -10 C981 -10 1104 151 1104 350 C1104 549 981 710 668 710 L496 710 C183 710 60 549 60 350 C60 151 183 -10 496 -10 L668 -10 Z M497 87 C254 87 173 205 173 350 C173 495 254 613 497 613 L667 613 C910 613 991 495 991 350 C991 205 910 87 667 87 L497 87 Z M799 255 L511 255 C416 255 393 297 393 350 C393 402 416 445 511 445 L799 445 L799 525 L511 525 C358 525 299 446 299 350 C299 253 358 175 511 175 L799 175 L799 255 Z " />
<glyph glyph-name="ordfeminine" unicode="&#xaa;" horiz-adv-x="724" d="M183 350 L226 401 L526 401 L555 350 L675 350 L479 700 L375 700 L53 350 L183 350 Z M410 609 L484 478 L290 478 L410 609 Z " />
<glyph glyph-name="guillemotleft" unicode="&#xab;" horiz-adv-x="809" d="M291 560 L66 282 L194 0 L348 0 L225 270 L459 560 L291 560 Z M617 560 L392 282 L520 0 L674 0 L551 270 L785 560 L617 560 Z " />
<glyph glyph-name="logicalnot" unicode="&#xac;" horiz-adv-x="1245" d="M273 280 L823 280 L823 40 L977 40 L977 420 L273 420 L273 280 Z " />
<glyph glyph-name="uni00AD" unicode="&#xad;" horiz-adv-x="576" d="M62 219 L470 219 L493 341 L85 341 L62 219 Z " />
<glyph glyph-name="registered" unicode="&#xae;" horiz-adv-x="1159" d="M668 -10 C981 -10 1104 151 1104 350 C1104 549 981 710 668 710 L496 710 C183 710 60 549 60 350 C60 151 183 -10 496 -10 L668 -10 Z M497 87 C254 87 173 205 173 350 C173 495 254 613 497 613 L667 613 C910 613 991 495 991 350 C991 205 910 87 667 87 L497 87 Z M330 175 L418 175 L418 292 L610 292 L760 175 L890 175 L728 296 C801 307 831 353 831 409 C831 473 791 525 689 525 L330 525 L330 175 Z M682 445 C728 445 736 428 736 406 C736 384 728 367 682 367 L418 367 L418 445 L682 445 Z " />
<glyph glyph-name="macron" unicode="&#xaf;" horiz-adv-x="480" d="M112 671 L486 671 L504 769 L130 769 L112 671 Z " />
<glyph glyph-name="degree" unicode="&#xb0;" horiz-adv-x="539" d="M94 506 C94 388 188 302 301 302 C413 302 507 388 507 506 C507 624 413 710 301 710 C188 710 94 624 94 506 L94 506 Z M212 506 C212 562 247 603 301 603 C354 603 389 562 389 506 C389 450 354 409 301 409 C247 409 212 450 212 506 L212 506 Z " />
<glyph glyph-name="plusminus" unicode="&#xb1;" horiz-adv-x="1245" d="M273 400 L548 400 L548 240 L702 240 L702 400 L977 400 L977 540 L702 540 L702 700 L548 700 L548 540 L273 540 L273 400 Z M273 0 L977 0 L977 140 L273 140 L273 0 Z " />
<glyph glyph-name="twosuperior" unicode="&#xb2;" horiz-adv-x="710" d="M536 610 C567 610 573 599 573 587 C573 571 562 557 528 557 L261 557 C167 557 122 514 112 453 L93 350 L615 350 L632 440 L204 440 L209 466 C212 479 222 494 254 494 L529 494 C639 494 678 547 678 613 C678 663 644 700 563 700 L175 700 L158 610 L536 610 Z " />
<glyph glyph-name="threesuperior" unicode="&#xb3;" horiz-adv-x="710" d="M501 494 C532 494 538 483 538 470 C538 454 527 440 492 440 L94 440 L78 350 L508 350 C603 350 640 402 640 459 C640 493 624 520 586 531 C627 551 646 585 646 624 C646 667 619 700 550 700 L151 700 L135 610 L501 610 C532 610 538 599 538 587 C538 571 526 557 491 557 L166 557 L154 494 L501 494 Z " />
<glyph glyph-name="acute" unicode="&#xb4;" horiz-adv-x="480" d="M196 635 L301 635 L499 806 L322 806 L196 635 Z " />
<glyph glyph-name="uni00B5" unicode="&#xb5;" horiz-adv-x="1245" d="M962 0 L1064 0 L1163 560 L1009 560 L972 352 C951 233 872 140 671 140 L349 140 C265 140 247 173 254 213 L316 560 L162 560 L25 -200 L179 -200 L225 59 C242 17 290 0 360 0 L673 0 C808 0 897 49 946 118 L962 0 Z " />
<glyph glyph-name="paragraph" unicode="&#xb6;" horiz-adv-x="1150" d="M631 560 L813 560 L813 -100 L967 -100 L967 560 L1063 560 L1063 700 L336 700 C133 700 54 596 54 470 C54 341 133 240 336 240 L477 240 L477 -100 L631 -100 L631 560 Z " />
<glyph glyph-name="periodcentered" unicode="&#xb7;" horiz-adv-x="329" d="M77 271 L234 271 L263 429 L105 429 L77 271 Z " />
<glyph glyph-name="cedilla" unicode="&#xb8;" horiz-adv-x="480" d="M89 -131 L126 -131 C172 -131 196 -139 196 -165 C196 -207 145 -216 97 -216 C62 -216 29 -205 14 -193 L0 -260 C26 -274 71 -288 120 -288 C207 -287 300 -261 300 -158 C300 -90 232 -65 169 -71 L202 0 L147 0 L89 -131 Z " />
<glyph glyph-name="onesuperior" unicode="&#xb9;" horiz-adv-x="710" d="M269 610 L383 610 L351 440 L167 440 L152 350 L561 350 L576 440 L449 440 L497 700 L286 700 L269 610 Z " />
<glyph glyph-name="ordmasculine" unicode="&#xba;" horiz-adv-x="722" d="M437 345 C618 345 689 443 689 554 C689 635 635 705 499 705 L354 705 C173 705 102 606 102 496 C102 414 156 345 292 345 L437 345 Z M309 435 C229 435 203 468 203 510 C203 562 234 615 343 615 L483 615 C562 615 588 581 588 539 C588 487 557 435 448 435 L309 435 Z " />
<glyph glyph-name="guillemotright" unicode="&#xbb;" horiz-adv-x="809" d="M177 0 L402 278 L274 560 L120 560 L243 290 L9 0 L177 0 Z M503 0 L728 278 L600 560 L446 560 L569 290 L335 0 L503 0 Z " />
<glyph glyph-name="onequarter" unicode="&#xbc;" horiz-adv-x="1420" d="M269 610 L383 610 L351 440 L167 440 L152 350 L561 350 L576 440 L449 440 L497 700 L286 700 L269 610 Z M1084 700 L189 0 L341 0 L1235 700 L1084 700 Z M1208 350 L750 130 L736 54 L1149 54 L1140 0 L1239 0 L1247 54 L1301 54 L1318 145 L1263 145 L1301 350 L1208 350 Z M943 145 L1187 260 L1166 145 L943 145 Z " />
<glyph glyph-name="onehalf" unicode="&#xbd;" horiz-adv-x="1420" d="M269 610 L383 610 L351 440 L167 440 L152 350 L561 350 L576 440 L449 440 L497 700 L286 700 L269 610 Z M1084 700 L189 0 L341 0 L1235 700 L1084 700 Z M1184 260 C1215 260 1221 249 1221 237 C1221 221 1210 207 1176 207 L909 207 C815 207 770 164 760 103 L741 0 L1263 0 L1280 90 L852 90 L857 116 C860 129 870 144 902 144 L1177 144 C1287 144 1326 197 1326 263 C1326 313 1292 350 1211 350 L823 350 L806 260 L1184 260 Z " />
<glyph glyph-name="threequarters" unicode="&#xbe;" horiz-adv-x="1420" d="M501 494 C532 494 538 483 538 470 C538 454 527 440 492 440 L94 440 L78 350 L508 350 C603 350 640 402 640 459 C640 493 624 520 586 531 C627 551 646 585 646 624 C646 667 619 700 550 700 L151 700 L135 610 L501 610 C532 610 538 599 538 587 C538 571 526 557 491 557 L166 557 L154 494 L501 494 Z M1084 700 L189 0 L341 0 L1235 700 L1084 700 Z M1208 350 L750 130 L736 54 L1149 54 L1140 0 L1239 0 L1247 54 L1301 54 L1318 145 L1263 145 L1301 350 L1208 350 Z M943 145 L1187 260 L1166 145 L943 145 Z " />
<glyph glyph-name="questiondown" unicode="&#xbf;" horiz-adv-x="1026" d="M775 478 L635 478 L624 410 L298 410 C82 410 1 299 1 173 C1 75 62 0 226 0 L943 0 L969 140 L254 140 C183 140 166 170 166 203 C166 247 193 290 282 290 L741 290 L775 478 Z M824 700 L666 700 L638 542 L795 542 L824 700 Z " />
<glyph glyph-name="Agrave" unicode="&#xc0;" horiz-adv-x="1233" d="M990 0 L1170 0 L763 700 L602 700 L-55 0 L140 0 L250 119 L921 119 L990 0 Z M664 567 L848 246 L367 246 L664 567 Z M720 946 L556 946 L689 775 L784 775 L720 946 Z " />
<glyph glyph-name="Aacute" unicode="&#xc1;" horiz-adv-x="1233" d="M990 0 L1170 0 L763 700 L602 700 L-55 0 L140 0 L250 119 L921 119 L990 0 Z M664 567 L848 246 L367 246 L664 567 Z M598 775 L703 775 L901 946 L724 946 L598 775 Z " />
<glyph glyph-name="Acircumflex" unicode="&#xc2;" horiz-adv-x="1233" d="M990 0 L1170 0 L763 700 L602 700 L-55 0 L140 0 L250 119 L921 119 L990 0 Z M664 567 L848 246 L367 246 L664 567 Z M497 775 L598 775 L713 872 L793 775 L889 775 L811 946 L637 946 L497 775 Z " />
<glyph glyph-name="Atilde" unicode="&#xc3;" horiz-adv-x="1233" d="M990 0 L1170 0 L763 700 L602 700 L-55 0 L140 0 L250 119 L921 119 L990 0 Z M664 567 L848 246 L367 246 L664 567 Z M827 942 C818 902 804 890 783 890 C748 890 712 936 651 936 C587 936 539 896 514 778 L589 778 C597 817 610 831 633 831 C667 831 703 784 763 784 C828 784 876 823 902 942 L827 942 Z " />
<glyph glyph-name="Adieresis" unicode="&#xc4;" horiz-adv-x="1233" d="M990 0 L1170 0 L763 700 L602 700 L-55 0 L140 0 L250 119 L921 119 L990 0 Z M664 567 L848 246 L367 246 L664 567 Z M766 789 L905 789 L930 929 L791 929 L766 789 Z M486 789 L625 789 L650 929 L510 929 L486 789 Z " />
<glyph glyph-name="Aring" unicode="&#xc5;" horiz-adv-x="1233" d="M990 0 L1170 0 L763 700 L602 700 L-55 0 L140 0 L250 119 L921 119 L990 0 Z M664 567 L848 246 L367 246 L664 567 Z M665 857 C665 883 688 904 714 904 C735 904 752 886 752 865 C752 838 728 818 704 818 C681 818 665 836 665 857 L665 857 Z M579 853 C578 792 624 745 697 745 C777 745 839 801 839 871 C839 931 792 977 721 977 C640 977 580 922 579 853 L579 853 Z " />
<glyph glyph-name="AE" unicode="&#xc6;" horiz-adv-x="1649" d="M673 116 L654 0 L1519 0 L1544 140 L833 140 L858 287 L1471 287 L1495 413 L882 413 L906 560 L1617 560 L1644 700 L697 700 L-55 0 L143 0 L265 116 L673 116 Z M399 242 L755 578 L697 242 L399 242 Z " />
<glyph glyph-name="Ccedilla" unicode="&#xc7;" horiz-adv-x="1136" d="M465 -131 L502 -131 C548 -131 572 -139 572 -165 C572 -207 521 -216 473 -216 C438 -216 405 -205 390 -193 L376 -260 C402 -274 447 -288 496 -288 C583 -287 676 -261 676 -158 C676 -90 608 -65 545 -71 L578 0 L1004 0 L1028 140 L456 140 C279 140 227 217 227 315 C227 428 285 560 533 560 L1104 560 L1129 700 L546 700 C200 700 62 507 62 296 C62 130 163 0 431 0 L523 0 L465 -131 Z " />
<glyph glyph-name="Egrave" unicode="&#xc8;" horiz-adv-x="1150" d="M53 0 L1019 0 L1044 140 L232 140 L257 287 L971 287 L994 413 L280 413 L306 560 L1118 560 L1144 700 L178 700 L53 0 Z M687 946 L523 946 L656 775 L751 775 L687 946 Z " />
<glyph glyph-name="Eacute" unicode="&#xc9;" horiz-adv-x="1150" d="M53 0 L1019 0 L1044 140 L232 140 L257 287 L971 287 L994 413 L280 413 L306 560 L1118 560 L1144 700 L178 700 L53 0 Z M565 775 L670 775 L868 946 L691 946 L565 775 Z " />
<glyph glyph-name="Ecircumflex" unicode="&#xca;" horiz-adv-x="1150" d="M53 0 L1019 0 L1044 140 L232 140 L257 287 L971 287 L994 413 L280 413 L306 560 L1118 560 L1144 700 L178 700 L53 0 Z M464 775 L565 775 L680 872 L760 775 L856 775 L778 946 L604 946 L464 775 Z " />
<glyph glyph-name="Edieresis" unicode="&#xcb;" horiz-adv-x="1150" d="M53 0 L1019 0 L1044 140 L232 140 L257 287 L971 287 L994 413 L280 413 L306 560 L1118 560 L1144 700 L178 700 L53 0 Z M733 789 L872 789 L897 929 L758 929 L733 789 Z M453 789 L592 789 L617 929 L477 929 L453 789 Z " />
<glyph glyph-name="Igrave" unicode="&#xcc;" horiz-adv-x="379" d="M53 0 L207 0 L332 700 L178 700 L53 0 Z M290 946 L126 946 L259 775 L354 775 L290 946 Z " />
<glyph glyph-name="Iacute" unicode="&#xcd;" horiz-adv-x="379" d="M53 0 L207 0 L332 700 L178 700 L53 0 Z M168 775 L273 775 L471 946 L294 946 L168 775 Z " />
<glyph glyph-name="Icircumflex" unicode="&#xce;" horiz-adv-x="379" d="M53 0 L207 0 L332 700 L178 700 L53 0 Z M67 775 L168 775 L283 872 L363 775 L459 775 L381 946 L207 946 L67 775 Z " />
<glyph glyph-name="Idieresis" unicode="&#xcf;" horiz-adv-x="379" d="M53 0 L207 0 L332 700 L178 700 L53 0 Z M336 789 L475 789 L500 929 L361 929 L336 789 Z M56 789 L195 789 L220 929 L80 929 L56 789 Z " />
<glyph glyph-name="Eth" unicode="&#xd0;" horiz-adv-x="1204" d="M-22 287 L104 287 L53 0 L662 0 C1006 0 1145 193 1145 404 C1145 570 1044 700 776 700 L178 700 L126 413 L2 413 L-22 287 Z M751 560 C928 560 980 483 980 385 C980 272 922 140 674 140 L230 140 L256 287 L609 287 L632 413 L278 413 L304 560 L751 560 Z " />
<glyph glyph-name="Ntilde" unicode="&#xd1;" horiz-adv-x="1255" d="M937 0 L1083 0 L1208 700 L1054 700 L960 168 L324 700 L178 700 L53 0 L207 0 L300 532 L937 0 Z M837 942 C828 902 814 890 793 890 C758 890 722 936 661 936 C597 936 549 896 524 778 L599 778 C607 817 620 831 643 831 C677 831 713 784 773 784 C838 784 886 823 912 942 L837 942 Z " />
<glyph glyph-name="Ograve" unicode="&#xd2;" horiz-adv-x="1293" d="M734 -10 C1097 -10 1235 180 1235 407 C1235 578 1128 710 856 710 L565 710 C203 710 62 521 62 295 C62 122 171 -10 443 -10 L734 -10 Z M472 130 C286 130 227 209 227 313 C227 435 295 570 555 570 L826 570 C1011 570 1070 491 1070 389 C1070 260 997 130 743 130 L472 130 Z M748 946 L584 946 L717 775 L812 775 L748 946 Z " />
<glyph glyph-name="Oacute" unicode="&#xd3;" horiz-adv-x="1293" d="M734 -10 C1097 -10 1235 180 1235 407 C1235 578 1128 710 856 710 L565 710 C203 710 62 521 62 295 C62 122 171 -10 443 -10 L734 -10 Z M472 130 C286 130 227 209 227 313 C227 435 295 570 555 570 L826 570 C1011 570 1070 491 1070 389 C1070 260 997 130 743 130 L472 130 Z M626 775 L731 775 L929 946 L752 946 L626 775 Z " />
<glyph glyph-name="Ocircumflex" unicode="&#xd4;" horiz-adv-x="1293" d="M734 -10 C1097 -10 1235 180 1235 407 C1235 578 1128 710 856 710 L565 710 C203 710 62 521 62 295 C62 122 171 -10 443 -10 L734 -10 Z M472 130 C286 130 227 209 227 313 C227 435 295 570 555 570 L826 570 C1011 570 1070 491 1070 389 C1070 260 997 130 743 130 L472 130 Z M525 775 L626 775 L741 872 L821 775 L917 775 L839 946 L665 946 L525 775 Z " />
<glyph glyph-name="Otilde" unicode="&#xd5;" horiz-adv-x="1293" d="M734 -10 C1097 -10 1235 180 1235 407 C1235 578 1128 710 856 710 L565 710 C203 710 62 521 62 295 C62 122 171 -10 443 -10 L734 -10 Z M472 130 C286 130 227 209 227 313 C227 435 295 570 555 570 L826 570 C1011 570 1070 491 1070 389 C1070 260 997 130 743 130 L472 130 Z M856 942 C847 902 833 890 812 890 C777 890 741 936 680 936 C616 936 568 896 543 778 L618 778 C626 817 639 831 662 831 C696 831 732 784 792 784 C857 784 905 823 931 942 L856 942 Z " />
<glyph glyph-name="Odieresis" unicode="&#xd6;" horiz-adv-x="1293" d="M734 -10 C1097 -10 1235 180 1235 407 C1235 578 1128 710 856 710 L565 710 C203 710 62 521 62 295 C62 122 171 -10 443 -10 L734 -10 Z M472 130 C286 130 227 209 227 313 C227 435 295 570 555 570 L826 570 C1011 570 1070 491 1070 389 C1070 260 997 130 743 130 L472 130 Z M794 789 L933 789 L958 929 L819 929 L794 789 Z M514 789 L653 789 L678 929 L538 929 L514 789 Z " />
<glyph glyph-name="multiply" unicode="&#xd7;" horiz-adv-x="1245" d="M941 558 L837 662 L622 443 L414 653 L310 549 L520 347 L310 142 L414 38 L623 252 L837 38 L941 142 L725 348 L941 558 Z " />
<glyph glyph-name="Oslash" unicode="&#xd8;" horiz-adv-x="1293" d="M734 -10 C1097 -10 1235 180 1235 407 C1235 535 1175 640 1031 686 L1131 800 L955 800 L876 710 L565 710 C203 710 62 521 62 295 C62 165 122 59 267 14 L167 -100 L343 -100 L422 -10 L734 -10 Z M227 313 C227 435 295 570 555 570 L753 570 L376 139 C265 162 227 229 227 313 L227 313 Z M1070 389 C1070 260 997 130 743 130 L544 130 L922 561 C1032 537 1070 470 1070 389 L1070 389 Z " />
<glyph glyph-name="Ugrave" unicode="&#xd9;" horiz-adv-x="1223" d="M244 323 L313 700 L159 700 L90 323 C55 130 131 -10 420 -10 L698 -10 C980 -10 1092 116 1126 307 L1196 700 L1042 700 L976 333 C953 208 883 130 719 130 L437 130 C262 130 225 210 244 323 L244 323 Z M714 946 L550 946 L683 775 L778 775 L714 946 Z " />
<glyph glyph-name="Uacute" unicode="&#xda;" horiz-adv-x="1223" d="M244 323 L313 700 L159 700 L90 323 C55 130 131 -10 420 -10 L698 -10 C980 -10 1092 116 1126 307 L1196 700 L1042 700 L976 333 C953 208 883 130 719 130 L437 130 C262 130 225 210 244 323 L244 323 Z M592 775 L697 775 L895 946 L718 946 L592 775 Z " />
<glyph glyph-name="Ucircumflex" unicode="&#xdb;" horiz-adv-x="1223" d="M244 323 L313 700 L159 700 L90 323 C55 130 131 -10 420 -10 L698 -10 C980 -10 1092 116 1126 307 L1196 700 L1042 700 L976 333 C953 208 883 130 719 130 L437 130 C262 130 225 210 244 323 L244 323 Z M491 775 L592 775 L707 872 L787 775 L883 775 L805 946 L631 946 L491 775 Z " />
<glyph glyph-name="Udieresis" unicode="&#xdc;" horiz-adv-x="1223" d="M244 323 L313 700 L159 700 L90 323 C55 130 131 -10 420 -10 L698 -10 C980 -10 1092 116 1126 307 L1196 700 L1042 700 L976 333 C953 208 883 130 719 130 L437 130 C262 130 225 210 244 323 L244 323 Z M760 789 L899 789 L924 929 L785 929 L760 789 Z M480 789 L619 789 L644 929 L504 929 L480 789 Z " />
<glyph glyph-name="Yacute" unicode="&#xdd;" horiz-adv-x="1203" d="M465 0 L619 0 L656 213 L1274 700 L1039 700 L594 333 L275 700 L61 700 L502 213 L465 0 Z M581 775 L686 775 L884 946 L707 946 L581 775 Z " />
<glyph glyph-name="Thorn" unicode="&#xde;" horiz-adv-x="1146" d="M53 0 L207 0 L228 120 L801 120 C1036 120 1130 238 1130 386 C1130 494 1065 580 885 580 L311 580 L332 700 L178 700 L53 0 Z M856 440 C944 440 967 407 967 364 C967 309 929 260 825 260 L254 260 L285 440 L856 440 Z " />
<glyph glyph-name="germandbls" unicode="&#xdf;" horiz-adv-x="1043" d="M728 330 L660 330 L942 468 L954 560 L465 560 C207 560 104 450 77 296 L24 0 L160 0 L213 296 C227 382 279 441 444 441 L680 441 L449 321 L432 230 L702 230 C757 230 772 208 772 184 C772 153 752 119 682 119 L331 119 L310 0 L668 0 C855 0 915 91 915 194 C915 272 864 330 728 330 L728 330 Z " />
<glyph glyph-name="agrave" unicode="&#xe0;" horiz-adv-x="1054" d="M827 0 L990 0 L640 560 L495 560 L-54 0 L120 0 L216 100 L765 100 L827 0 Z M552 448 L702 204 L317 204 L552 448 Z M605 806 L441 806 L574 635 L669 635 L605 806 Z " />
<glyph glyph-name="aacute" unicode="&#xe1;" horiz-adv-x="1054" d="M827 0 L990 0 L640 560 L495 560 L-54 0 L120 0 L216 100 L765 100 L827 0 Z M552 448 L702 204 L317 204 L552 448 Z M483 635 L588 635 L786 806 L609 806 L483 635 Z " />
<glyph glyph-name="acircumflex" unicode="&#xe2;" horiz-adv-x="1054" d="M827 0 L990 0 L640 560 L495 560 L-54 0 L120 0 L216 100 L765 100 L827 0 Z M552 448 L702 204 L317 204 L552 448 Z M382 635 L483 635 L598 732 L678 635 L774 635 L696 806 L522 806 L382 635 Z " />
<glyph glyph-name="atilde" unicode="&#xe3;" horiz-adv-x="1054" d="M827 0 L990 0 L640 560 L495 560 L-54 0 L120 0 L216 100 L765 100 L827 0 Z M552 448 L702 204 L317 204 L552 448 Z M712 802 C703 762 689 750 668 750 C633 750 597 796 536 796 C472 796 424 756 399 638 L474 638 C482 677 495 691 518 691 C552 691 588 644 648 644 C713 644 761 683 787 802 L712 802 Z " />
<glyph glyph-name="adieresis" unicode="&#xe4;" horiz-adv-x="1054" d="M827 0 L990 0 L640 560 L495 560 L-54 0 L120 0 L216 100 L765 100 L827 0 Z M552 448 L702 204 L317 204 L552 448 Z M651 649 L790 649 L815 789 L676 789 L651 649 Z M371 649 L510 649 L535 789 L395 789 L371 649 Z " />
<glyph glyph-name="aring" unicode="&#xe5;" horiz-adv-x="1054" d="M827 0 L990 0 L640 560 L495 560 L-54 0 L120 0 L216 100 L765 100 L827 0 Z M552 448 L702 204 L317 204 L552 448 Z M550 717 C550 743 573 764 599 764 C620 764 637 746 637 725 C637 698 613 678 589 678 C566 678 550 696 550 717 L550 717 Z M464 713 C463 652 509 605 582 605 C662 605 724 661 724 731 C724 791 677 837 606 837 C525 837 465 782 464 713 L464 713 Z " />
<glyph glyph-name="ae" unicode="&#xe6;" horiz-adv-x="1410" d="M565 91 L549 0 L1287 0 L1307 119 L707 119 L725 228 L1241 228 L1261 332 L745 332 L763 441 L1364 441 L1386 560 L576 560 L-54 0 L122 0 L223 91 L565 91 Z M339 195 L630 455 L584 195 L339 195 Z " />
<glyph glyph-name="ccedilla" unicode="&#xe7;" horiz-adv-x="973" d="M374 -131 L411 -131 C457 -131 481 -139 481 -165 C481 -207 430 -216 382 -216 C347 -216 314 -205 299 -193 L285 -260 C311 -274 356 -288 405 -288 C492 -287 585 -261 585 -158 C585 -90 517 -65 454 -71 L487 0 L849 0 L871 119 L368 119 C235 119 192 169 192 248 C192 347 270 441 446 441 L927 441 L950 560 L454 560 C153 560 46 400 46 232 C46 102 128 0 353 0 L432 0 L374 -131 Z " />
<glyph glyph-name="egrave" unicode="&#xe8;" horiz-adv-x="991" d="M43 0 L865 0 L886 119 L201 119 L219 228 L820 228 L839 332 L239 332 L257 441 L943 441 L964 560 L142 560 L43 0 Z M584 806 L420 806 L553 635 L648 635 L584 806 Z " />
<glyph glyph-name="eacute" unicode="&#xe9;" horiz-adv-x="991" d="M43 0 L865 0 L886 119 L201 119 L219 228 L820 228 L839 332 L239 332 L257 441 L943 441 L964 560 L142 560 L43 0 Z M462 635 L567 635 L765 806 L588 806 L462 635 Z " />
<glyph glyph-name="ecircumflex" unicode="&#xea;" horiz-adv-x="991" d="M43 0 L865 0 L886 119 L201 119 L219 228 L820 228 L839 332 L239 332 L257 441 L943 441 L964 560 L142 560 L43 0 Z M361 635 L462 635 L577 732 L657 635 L753 635 L675 806 L501 806 L361 635 Z " />
<glyph glyph-name="edieresis" unicode="&#xeb;" horiz-adv-x="991" d="M43 0 L865 0 L886 119 L201 119 L219 228 L820 228 L839 332 L239 332 L257 441 L943 441 L964 560 L142 560 L43 0 Z M630 649 L769 649 L794 789 L655 789 L630 649 Z M350 649 L489 649 L514 789 L374 789 L350 649 Z " />
<glyph glyph-name="igrave" unicode="&#xec;" horiz-adv-x="342" d="M248 806 L84 806 L217 635 L312 635 L248 806 Z M43 0 L180 0 L279 560 L142 560 L43 0 Z " />
<glyph glyph-name="iacute" unicode="&#xed;" horiz-adv-x="342" d="M126 635 L231 635 L429 806 L252 806 L126 635 Z M43 0 L180 0 L279 560 L142 560 L43 0 Z " />
<glyph glyph-name="icircumflex" unicode="&#xee;" horiz-adv-x="342" d="M43 0 L180 0 L279 560 L142 560 L43 0 Z M25 635 L126 635 L241 732 L321 635 L417 635 L339 806 L165 806 L25 635 Z " />
<glyph glyph-name="idieresis" unicode="&#xef;" horiz-adv-x="342" d="M294 649 L433 649 L458 789 L319 789 L294 649 Z M14 649 L153 649 L178 789 L38 789 L14 649 Z M43 0 L180 0 L279 560 L142 560 L43 0 Z " />
<glyph glyph-name="eth" unicode="&#xf0;" horiz-adv-x="1036" d="M-33 228 L84 228 L43 0 L563 0 C864 0 971 160 971 328 C971 457 888 560 664 560 L144 560 L103 332 L-13 332 L-33 228 Z M650 441 C783 441 825 391 825 312 C825 213 747 119 571 119 L202 119 L221 228 L526 228 L545 332 L239 332 L258 441 L650 441 Z " />
<glyph glyph-name="ntilde" unicode="&#xf1;" horiz-adv-x="1083" d="M921 0 L1020 560 L883 560 L810 145 L272 560 L142 560 L43 0 L180 0 L253 415 L791 0 L921 0 Z M727 802 C718 762 704 750 683 750 C648 750 612 796 551 796 C487 796 439 756 414 638 L489 638 C497 677 510 691 533 691 C567 691 603 644 663 644 C728 644 776 683 802 802 L727 802 Z " />
<glyph glyph-name="ograve" unicode="&#xf2;" horiz-adv-x="1107" d="M621 -8 C926 -8 1039 152 1042 326 C1044 461 960 568 725 568 L465 568 C160 568 49 408 46 234 C43 99 126 -8 361 -8 L621 -8 Z M385 111 C233 111 191 171 191 247 C192 344 263 449 445 449 L703 449 C853 449 896 389 896 312 C896 219 825 111 642 111 L385 111 Z M631 806 L467 806 L600 635 L695 635 L631 806 Z " />
<glyph glyph-name="oacute" unicode="&#xf3;" horiz-adv-x="1107" d="M621 -8 C926 -8 1039 152 1042 326 C1044 461 960 568 725 568 L465 568 C160 568 49 408 46 234 C43 99 126 -8 361 -8 L621 -8 Z M385 111 C233 111 191 171 191 247 C192 344 263 449 445 449 L703 449 C853 449 896 389 896 312 C896 219 825 111 642 111 L385 111 Z M509 635 L614 635 L812 806 L635 806 L509 635 Z " />
<glyph glyph-name="ocircumflex" unicode="&#xf4;" horiz-adv-x="1107" d="M621 -8 C926 -8 1039 152 1042 326 C1044 461 960 568 725 568 L465 568 C160 568 49 408 46 234 C43 99 126 -8 361 -8 L621 -8 Z M385 111 C233 111 191 171 191 247 C192 344 263 449 445 449 L703 449 C853 449 896 389 896 312 C896 219 825 111 642 111 L385 111 Z M408 635 L509 635 L624 732 L704 635 L800 635 L722 806 L548 806 L408 635 Z " />
<glyph glyph-name="otilde" unicode="&#xf5;" horiz-adv-x="1107" d="M621 -8 C926 -8 1039 152 1042 326 C1044 461 960 568 725 568 L465 568 C160 568 49 408 46 234 C43 99 126 -8 361 -8 L621 -8 Z M385 111 C233 111 191 171 191 247 C192 344 263 449 445 449 L703 449 C853 449 896 389 896 312 C896 219 825 111 642 111 L385 111 Z M738 802 C729 762 715 750 694 750 C659 750 623 796 562 796 C498 796 450 756 425 638 L500 638 C508 677 521 691 544 691 C578 691 614 644 674 644 C739 644 787 683 813 802 L738 802 Z " />
<glyph glyph-name="odieresis" unicode="&#xf6;" horiz-adv-x="1107" d="M621 -8 C926 -8 1039 152 1042 326 C1044 461 960 568 725 568 L465 568 C160 568 49 408 46 234 C43 99 126 -8 361 -8 L621 -8 Z M385 111 C233 111 191 171 191 247 C192 344 263 449 445 449 L703 449 C853 449 896 389 896 312 C896 219 825 111 642 111 L385 111 Z M677 649 L816 649 L841 789 L702 789 L677 649 Z M397 649 L536 649 L561 789 L421 789 L397 649 Z " />
<glyph glyph-name="divide" unicode="&#xf7;" horiz-adv-x="1245" d="M273 280 L977 280 L977 420 L273 420 L273 280 Z M546 10 L703 10 L703 167 L546 167 L546 10 Z M546 533 L703 533 L703 690 L546 690 L546 533 Z " />
<glyph glyph-name="oslash" unicode="&#xf8;" horiz-adv-x="1107" d="M621 -8 C926 -8 1039 152 1042 326 C1043 429 995 515 867 551 L949 640 L794 640 L728 568 L465 568 C160 568 49 408 46 234 C43 131 91 45 217 9 L136 -80 L291 -80 L357 -8 L621 -8 Z M896 312 C896 219 825 111 642 111 L465 111 L770 444 C866 428 896 376 896 312 L896 312 Z M191 247 C192 344 263 449 445 449 L619 449 L315 116 C220 132 191 184 191 247 L191 247 Z " />
<glyph glyph-name="ugrave" unicode="&#xf9;" horiz-adv-x="1049" d="M205 258 L259 560 L123 560 L69 258 C41 104 90 -8 347 -8 L599 -8 C824 -8 920 83 948 240 L1005 560 L869 560 L814 256 C796 160 743 111 609 111 L370 111 C209 111 190 165 205 258 L205 258 Z M603 806 L439 806 L572 635 L667 635 L603 806 Z " />
<glyph glyph-name="uacute" unicode="&#xfa;" horiz-adv-x="1049" d="M205 258 L259 560 L123 560 L69 258 C41 104 90 -8 347 -8 L599 -8 C824 -8 920 83 948 240 L1005 560 L869 560 L814 256 C796 160 743 111 609 111 L370 111 C209 111 190 165 205 258 L205 258 Z M481 635 L586 635 L784 806 L607 806 L481 635 Z " />
<glyph glyph-name="ucircumflex" unicode="&#xfb;" horiz-adv-x="1049" d="M205 258 L259 560 L123 560 L69 258 C41 104 90 -8 347 -8 L599 -8 C824 -8 920 83 948 240 L1005 560 L869 560 L814 256 C796 160 743 111 609 111 L370 111 C209 111 190 165 205 258 L205 258 Z M380 635 L481 635 L596 732 L676 635 L772 635 L694 806 L520 806 L380 635 Z " />
<glyph glyph-name="udieresis" unicode="&#xfc;" horiz-adv-x="1049" d="M205 258 L259 560 L123 560 L69 258 C41 104 90 -8 347 -8 L599 -8 C824 -8 920 83 948 240 L1005 560 L869 560 L814 256 C796 160 743 111 609 111 L370 111 C209 111 190 165 205 258 L205 258 Z M649 649 L788 649 L813 789 L674 789 L649 649 Z M369 649 L508 649 L533 789 L393 789 L369 649 Z " />
<glyph glyph-name="yacute" unicode="&#xfd;" horiz-adv-x="1023" d="M384 0 L521 0 L551 171 L1067 560 L859 560 L493 272 L225 560 L35 560 L414 171 L384 0 Z M467 635 L572 635 L770 806 L593 806 L467 635 Z " />
<glyph glyph-name="thorn" unicode="&#xfe;" horiz-adv-x="997" d="M43 0 L180 0 L197 94 L684 94 C887 94 956 199 956 308 C956 396 902 466 750 466 L264 466 L281 560 L144 560 L43 0 Z M725 346 C794 346 811 324 811 292 C811 254 789 214 701 214 L219 214 L242 346 L725 346 Z " />
<glyph glyph-name="ydieresis" unicode="&#xff;" horiz-adv-x="1023" d="M384 0 L521 0 L551 171 L1067 560 L859 560 L493 272 L225 560 L35 560 L414 171 L384 0 Z M635 649 L774 649 L799 789 L660 789 L635 649 Z M355 649 L494 649 L519 789 L379 789 L355 649 Z " />
<glyph glyph-name="Amacron" unicode="&#x100;" horiz-adv-x="1233" d="M990 0 L1170 0 L763 700 L602 700 L-55 0 L140 0 L250 119 L921 119 L990 0 Z M664 567 L848 246 L367 246 L664 567 Z M514 811 L888 811 L906 909 L532 909 L514 811 Z " />
<glyph glyph-name="amacron" unicode="&#x101;" horiz-adv-x="1054" d="M827 0 L990 0 L640 560 L495 560 L-54 0 L120 0 L216 100 L765 100 L827 0 Z M552 448 L702 204 L317 204 L552 448 Z M399 671 L773 671 L791 769 L417 769 L399 671 Z " />
<glyph glyph-name="Abreve" unicode="&#x102;" horiz-adv-x="1233" d="M990 0 L1170 0 L763 700 L602 700 L-55 0 L140 0 L250 119 L921 119 L990 0 Z M664 567 L848 246 L367 246 L664 567 Z M708 872 C643 872 622 903 626 943 L544 943 C534 866 553 777 693 777 C833 777 884 864 903 943 L818 943 C807 903 772 872 708 872 L708 872 Z " />
<glyph glyph-name="abreve" unicode="&#x103;" horiz-adv-x="1054" d="M827 0 L990 0 L640 560 L495 560 L-54 0 L120 0 L216 100 L765 100 L827 0 Z M552 448 L702 204 L317 204 L552 448 Z M593 732 C528 732 507 763 511 803 L429 803 C419 726 438 637 578 637 C718 637 769 724 788 803 L703 803 C692 763 657 732 593 732 L593 732 Z " />
<glyph glyph-name="Aogonek" unicode="&#x104;" horiz-adv-x="1233" d="M800 -190 C800 -244 847 -279 921 -279 C966 -279 1012 -275 1065 -256 L1077 -188 C1039 -203 1021 -206 994 -206 C952 -206 926 -188 926 -152 C926 -86 997 -37 1069 0 L1170 0 L763 700 L602 700 L-55 0 L140 0 L250 119 L921 119 L990 0 C897 -34 800 -98 800 -190 L800 -190 Z M664 567 L848 246 L367 246 L664 567 Z " />
<glyph glyph-name="aogonek" unicode="&#x105;" horiz-adv-x="1054" d="M637 -190 C637 -244 684 -279 758 -279 C803 -279 849 -275 902 -256 L914 -188 C876 -203 858 -206 831 -206 C789 -206 763 -188 763 -152 C763 -86 834 -37 906 0 L990 0 L640 560 L495 560 L-54 0 L120 0 L216 100 L765 100 L827 0 C734 -34 637 -98 637 -190 L637 -190 Z M552 448 L702 204 L317 204 L552 448 Z " />
<glyph glyph-name="Cacute" unicode="&#x106;" horiz-adv-x="1136" d="M227 315 C227 428 285 560 533 560 L1104 560 L1129 700 L546 700 C200 700 62 507 62 296 C62 130 163 0 431 0 L1004 0 L1028 140 L456 140 C279 140 227 217 227 315 L227 315 Z M596 775 L701 775 L899 946 L722 946 L596 775 Z " />
<glyph glyph-name="cacute" unicode="&#x107;" horiz-adv-x="973" d="M192 248 C192 347 270 441 446 441 L927 441 L950 560 L454 560 C153 560 46 400 46 232 C46 102 128 0 353 0 L849 0 L871 119 L368 119 C235 119 192 169 192 248 L192 248 Z M481 635 L586 635 L784 806 L607 806 L481 635 Z " />
<glyph glyph-name="Ccircumflex" unicode="&#x108;" horiz-adv-x="1136" d="M227 315 C227 428 285 560 533 560 L1104 560 L1129 700 L546 700 C200 700 62 507 62 296 C62 130 163 0 431 0 L1004 0 L1028 140 L456 140 C279 140 227 217 227 315 L227 315 Z M495 775 L596 775 L711 872 L791 775 L887 775 L809 946 L635 946 L495 775 Z " />
<glyph glyph-name="ccircumflex" unicode="&#x109;" horiz-adv-x="973" d="M192 248 C192 347 270 441 446 441 L927 441 L950 560 L454 560 C153 560 46 400 46 232 C46 102 128 0 353 0 L849 0 L871 119 L368 119 C235 119 192 169 192 248 L192 248 Z M380 635 L481 635 L596 732 L676 635 L772 635 L694 806 L520 806 L380 635 Z " />
<glyph glyph-name="Cdotaccent" unicode="&#x10a;" horiz-adv-x="1136" d="M227 315 C227 428 285 560 533 560 L1104 560 L1129 700 L546 700 C200 700 62 507 62 296 C62 130 163 0 431 0 L1004 0 L1028 140 L456 140 C279 140 227 217 227 315 L227 315 Z M626 789 L764 789 L789 929 L651 929 L626 789 Z " />
<glyph glyph-name="cdotaccent" unicode="&#x10b;" horiz-adv-x="973" d="M192 248 C192 347 270 441 446 441 L927 441 L950 560 L454 560 C153 560 46 400 46 232 C46 102 128 0 353 0 L849 0 L871 119 L368 119 C235 119 192 169 192 248 L192 248 Z M511 649 L649 649 L674 789 L536 789 L511 649 Z " />
<glyph glyph-name="Ccaron" unicode="&#x10c;" horiz-adv-x="1136" d="M227 315 C227 428 285 560 533 560 L1104 560 L1129 700 L546 700 C200 700 62 507 62 296 C62 130 163 0 431 0 L1004 0 L1028 140 L456 140 C279 140 227 217 227 315 L227 315 Z M920 946 L819 946 L704 849 L624 946 L528 946 L606 775 L780 775 L920 946 Z " />
<glyph glyph-name="ccaron" unicode="&#x10d;" horiz-adv-x="973" d="M192 248 C192 347 270 441 446 441 L927 441 L950 560 L454 560 C153 560 46 400 46 232 C46 102 128 0 353 0 L849 0 L871 119 L368 119 C235 119 192 169 192 248 L192 248 Z M805 806 L704 806 L589 709 L509 806 L413 806 L491 635 L665 635 L805 806 Z " />
<glyph glyph-name="Dcaron" unicode="&#x10e;" horiz-adv-x="1204" d="M53 0 L662 0 C1006 0 1145 193 1145 404 C1145 570 1044 700 776 700 L178 700 L53 0 Z M751 560 C928 560 980 483 980 385 C980 272 922 140 674 140 L230 140 L304 560 L751 560 Z M892 946 L791 946 L676 849 L596 946 L500 946 L578 775 L752 775 L892 946 Z " />
<glyph glyph-name="dcaron" unicode="&#x10f;" horiz-adv-x="1036" d="M43 0 L563 0 C864 0 971 160 971 328 C971 457 888 560 664 560 L144 560 L43 0 Z M650 441 C783 441 825 391 825 312 C825 213 747 119 571 119 L202 119 L258 441 L650 441 Z M789 806 L688 806 L573 709 L493 806 L397 806 L475 635 L649 635 L789 806 Z " />
<glyph glyph-name="Dcroat" unicode="&#x110;" horiz-adv-x="1204" d="M-22 287 L104 287 L53 0 L662 0 C1006 0 1145 193 1145 404 C1145 570 1044 700 776 700 L178 700 L126 413 L2 413 L-22 287 Z M751 560 C928 560 980 483 980 385 C980 272 922 140 674 140 L230 140 L256 287 L609 287 L632 413 L278 413 L304 560 L751 560 Z " />
<glyph glyph-name="dcroat" unicode="&#x111;" horiz-adv-x="1036" d="M-33 228 L84 228 L43 0 L563 0 C864 0 971 160 971 328 C971 457 888 560 664 560 L144 560 L103 332 L-13 332 L-33 228 Z M650 441 C783 441 825 391 825 312 C825 213 747 119 571 119 L202 119 L221 228 L526 228 L545 332 L239 332 L258 441 L650 441 Z " />
<glyph glyph-name="Emacron" unicode="&#x112;" horiz-adv-x="1150" d="M53 0 L1019 0 L1044 140 L232 140 L257 287 L971 287 L994 413 L280 413 L306 560 L1118 560 L1144 700 L178 700 L53 0 Z M481 811 L855 811 L873 909 L499 909 L481 811 Z " />
<glyph glyph-name="emacron" unicode="&#x113;" horiz-adv-x="991" d="M43 0 L865 0 L886 119 L201 119 L219 228 L820 228 L839 332 L239 332 L257 441 L943 441 L964 560 L142 560 L43 0 Z M378 671 L752 671 L770 769 L396 769 L378 671 Z " />
<glyph glyph-name="Ebreve" unicode="&#x114;" horiz-adv-x="1150" d="M53 0 L1019 0 L1044 140 L232 140 L257 287 L971 287 L994 413 L280 413 L306 560 L1118 560 L1144 700 L178 700 L53 0 Z M675 872 C610 872 589 903 593 943 L511 943 C501 866 520 777 660 777 C800 777 851 864 870 943 L785 943 C774 903 739 872 675 872 L675 872 Z " />
<glyph glyph-name="ebreve" unicode="&#x115;" horiz-adv-x="991" d="M43 0 L865 0 L886 119 L201 119 L219 228 L820 228 L839 332 L239 332 L257 441 L943 441 L964 560 L142 560 L43 0 Z M573 732 C508 732 487 763 491 803 L409 803 C399 726 418 637 558 637 C698 637 749 724 768 803 L683 803 C672 763 637 732 573 732 L573 732 Z " />
<glyph glyph-name="Edotaccent" unicode="&#x116;" horiz-adv-x="1150" d="M53 0 L1019 0 L1044 140 L232 140 L257 287 L971 287 L994 413 L280 413 L306 560 L1118 560 L1144 700 L178 700 L53 0 Z M595 789 L733 789 L758 929 L620 929 L595 789 Z " />
<glyph glyph-name="edotaccent" unicode="&#x117;" horiz-adv-x="991" d="M43 0 L865 0 L886 119 L201 119 L219 228 L820 228 L839 332 L239 332 L257 441 L943 441 L964 560 L142 560 L43 0 Z M492 649 L630 649 L655 789 L517 789 L492 649 Z " />
<glyph glyph-name="Eogonek" unicode="&#x118;" horiz-adv-x="1150" d="M53 0 L898 0 C805 -34 708 -98 708 -190 C708 -244 755 -279 829 -279 C874 -279 920 -275 973 -256 L985 -188 C947 -203 929 -206 902 -206 C860 -206 834 -188 834 -152 C834 -86 905 -37 977 0 L1019 0 L1044 140 L232 140 L257 287 L971 287 L994 413 L280 413 L306 560 L1118 560 L1144 700 L178 700 L53 0 Z " />
<glyph glyph-name="eogonek" unicode="&#x119;" horiz-adv-x="991" d="M43 0 L744 0 C651 -34 554 -98 554 -190 C554 -244 601 -279 675 -279 C720 -279 766 -275 819 -256 L831 -188 C793 -203 775 -206 748 -206 C706 -206 680 -188 680 -152 C680 -86 751 -37 823 0 L865 0 L886 119 L201 119 L219 228 L820 228 L839 332 L239 332 L257 441 L943 441 L964 560 L142 560 L43 0 Z " />
<glyph glyph-name="Ecaron" unicode="&#x11a;" horiz-adv-x="1150" d="M53 0 L1019 0 L1044 140 L232 140 L257 287 L971 287 L994 413 L280 413 L306 560 L1118 560 L1144 700 L178 700 L53 0 Z M889 946 L788 946 L673 849 L593 946 L497 946 L575 775 L749 775 L889 946 Z " />
<glyph glyph-name="ecaron" unicode="&#x11b;" horiz-adv-x="991" d="M43 0 L865 0 L886 119 L201 119 L219 228 L820 228 L839 332 L239 332 L257 441 L943 441 L964 560 L142 560 L43 0 Z M786 806 L685 806 L570 709 L490 806 L394 806 L472 635 L646 635 L786 806 Z " />
<glyph glyph-name="Gcircumflex" unicode="&#x11c;" horiz-adv-x="1205" d="M623 287 L959 287 L933 140 L456 140 C279 140 227 217 227 315 C227 428 284 560 533 560 L1104 560 L1129 700 L546 700 C200 700 62 507 62 296 C62 130 163 0 431 0 L1057 0 L1130 413 L647 413 L623 287 Z M504 775 L605 775 L720 872 L800 775 L896 775 L818 946 L644 946 L504 775 Z " />
<glyph glyph-name="gcircumflex" unicode="&#x11d;" horiz-adv-x="1035" d="M781 119 L368 119 C235 119 192 169 192 248 C192 347 270 441 446 441 L927 441 L948 560 L454 560 C153 560 46 400 46 232 C46 102 128 0 353 0 L894 0 L952 332 L540 332 L519 228 L799 228 L781 119 Z M383 635 L484 635 L599 732 L679 635 L775 635 L697 806 L523 806 L383 635 Z " />
<glyph glyph-name="Gbreve" unicode="&#x11e;" horiz-adv-x="1205" d="M623 287 L959 287 L933 140 L456 140 C279 140 227 217 227 315 C227 428 284 560 533 560 L1104 560 L1129 700 L546 700 C200 700 62 507 62 296 C62 130 163 0 431 0 L1057 0 L1130 413 L647 413 L623 287 Z M716 872 C651 872 630 903 634 943 L552 943 C542 866 561 777 701 777 C841 777 892 864 911 943 L826 943 C815 903 780 872 716 872 L716 872 Z " />
<glyph glyph-name="gbreve" unicode="&#x11f;" horiz-adv-x="1035" d="M781 119 L368 119 C235 119 192 169 192 248 C192 347 270 441 446 441 L927 441 L948 560 L454 560 C153 560 46 400 46 232 C46 102 128 0 353 0 L894 0 L952 332 L540 332 L519 228 L799 228 L781 119 Z M595 732 C530 732 509 763 513 803 L431 803 C421 726 440 637 580 637 C720 637 771 724 790 803 L705 803 C694 763 659 732 595 732 L595 732 Z " />
<glyph glyph-name="Gdotaccent" unicode="&#x120;" horiz-adv-x="1205" d="M623 287 L959 287 L933 140 L456 140 C279 140 227 217 227 315 C227 428 284 560 533 560 L1104 560 L1129 700 L546 700 C200 700 62 507 62 296 C62 130 163 0 431 0 L1057 0 L1130 413 L647 413 L623 287 Z M635 789 L773 789 L798 929 L660 929 L635 789 Z " />
<glyph glyph-name="gdotaccent" unicode="&#x121;" horiz-adv-x="1035" d="M781 119 L368 119 C235 119 192 169 192 248 C192 347 270 441 446 441 L927 441 L948 560 L454 560 C153 560 46 400 46 232 C46 102 128 0 353 0 L894 0 L952 332 L540 332 L519 228 L799 228 L781 119 Z M514 649 L652 649 L677 789 L539 789 L514 649 Z " />
<glyph glyph-name="uni0122" unicode="&#x122;" horiz-adv-x="1205" d="M623 287 L959 287 L933 140 L456 140 C279 140 227 217 227 315 C227 428 284 560 533 560 L1104 560 L1129 700 L546 700 C200 700 62 507 62 296 C62 130 163 0 431 0 L1057 0 L1130 413 L647 413 L623 287 Z M469 -232 L517 -232 L429 -359 L495 -359 L606 -220 L629 -92 L494 -92 L469 -232 Z " />
<glyph glyph-name="uni0123" unicode="&#x123;" horiz-adv-x="1035" d="M781 119 L368 119 C235 119 192 169 192 248 C192 347 270 441 446 441 L927 441 L948 560 L454 560 C153 560 46 400 46 232 C46 102 128 0 353 0 L894 0 L952 332 L540 332 L519 228 L799 228 L781 119 Z M371 -232 L419 -232 L331 -359 L397 -359 L508 -220 L531 -92 L396 -92 L371 -232 Z " />
<glyph glyph-name="Hcircumflex" unicode="&#x124;" horiz-adv-x="1252" d="M926 0 L1080 0 L1205 700 L1051 700 L1001 420 L281 420 L332 700 L178 700 L53 0 L207 0 L255 280 L975 280 L926 0 Z M505 775 L606 775 L721 872 L801 775 L897 775 L819 946 L645 946 L505 775 Z " />
<glyph glyph-name="hcircumflex" unicode="&#x125;" horiz-adv-x="1080" d="M781 0 L918 0 L1017 560 L880 560 L841 340 L241 340 L279 560 L142 560 L43 0 L180 0 L218 220 L818 220 L781 0 Z M395 635 L496 635 L611 732 L691 635 L787 635 L709 806 L535 806 L395 635 Z " />
<glyph glyph-name="Hbar" unicode="&#x126;" horiz-adv-x="1252" d="M51 531 L148 531 L53 0 L207 0 L255 280 L975 280 L926 0 L1080 0 L1175 531 L1271 531 L1282 589 L1185 589 L1205 700 L1051 700 L1031 589 L311 589 L332 700 L178 700 L158 589 L62 589 L51 531 Z M281 420 L301 531 L1021 531 L1001 420 L281 420 Z " />
<glyph glyph-name="hbar" unicode="&#x127;" horiz-adv-x="1080" d="M32 421 L117 421 L43 0 L180 0 L218 220 L818 220 L781 0 L918 0 L992 421 L1078 421 L1089 479 L1002 479 L1017 560 L880 560 L865 479 L265 479 L279 560 L142 560 L127 479 L42 479 L32 421 Z M241 340 L255 421 L855 421 L841 340 L241 340 Z " />
<glyph glyph-name="Itilde" unicode="&#x128;" horiz-adv-x="379" d="M53 0 L207 0 L332 700 L178 700 L53 0 Z M397 942 C388 902 374 890 353 890 C318 890 282 936 221 936 C157 936 109 896 84 778 L159 778 C167 817 180 831 203 831 C237 831 273 784 333 784 C398 784 446 823 472 942 L397 942 Z " />
<glyph glyph-name="itilde" unicode="&#x129;" horiz-adv-x="342" d="M43 0 L180 0 L279 560 L142 560 L43 0 Z M355 802 C346 762 332 750 311 750 C276 750 240 796 179 796 C115 796 67 756 42 638 L117 638 C125 677 138 691 161 691 C195 691 231 644 291 644 C356 644 404 683 430 802 L355 802 Z " />
<glyph glyph-name="Imacron" unicode="&#x12a;" horiz-adv-x="379" d="M53 0 L207 0 L332 700 L178 700 L53 0 Z M84 811 L458 811 L476 909 L102 909 L84 811 Z " />
<glyph glyph-name="imacron" unicode="&#x12b;" horiz-adv-x="342" d="M43 0 L180 0 L279 560 L142 560 L43 0 Z M42 671 L416 671 L434 769 L60 769 L42 671 Z " />
<glyph glyph-name="Ibreve" unicode="&#x12c;" horiz-adv-x="379" d="M53 0 L207 0 L332 700 L178 700 L53 0 Z M279 872 C214 872 193 903 197 943 L115 943 C105 866 124 777 264 777 C404 777 455 864 474 943 L389 943 C378 903 343 872 279 872 L279 872 Z " />
<glyph glyph-name="ibreve" unicode="&#x12d;" horiz-adv-x="342" d="M43 0 L180 0 L279 560 L142 560 L43 0 Z M236 732 C171 732 150 763 154 803 L72 803 C62 726 81 637 221 637 C361 637 412 724 431 803 L346 803 C335 763 300 732 236 732 L236 732 Z " />
<glyph glyph-name="Iogonek" unicode="&#x12e;" horiz-adv-x="379" d="M53 0 C-19 -35 -89 -98 -89 -180 C-89 -249 -23 -279 30 -279 C75 -279 121 -275 174 -256 L188 -188 C149 -203 131 -206 104 -206 C55 -206 30 -182 30 -142 C30 -89 64 -40 116 0 L207 0 L332 700 L178 700 L53 0 Z " />
<glyph glyph-name="iogonek" unicode="&#x12f;" horiz-adv-x="342" d="M-99 -180 C-99 -249 -33 -279 20 -279 C65 -279 111 -275 164 -256 L178 -188 C139 -203 121 -206 94 -206 C45 -206 20 -182 20 -142 C20 -89 54 -40 106 0 L180 0 L279 560 L142 560 L43 0 C-29 -35 -99 -98 -99 -180 L-99 -180 Z " />
<glyph glyph-name="Idotaccent" unicode="&#x130;" horiz-adv-x="379" d="M53 0 L207 0 L332 700 L178 700 L53 0 Z M198 789 L336 789 L361 929 L223 929 L198 789 Z " />
<glyph glyph-name="dotlessi" unicode="&#x131;" horiz-adv-x="342" d="M43 0 L180 0 L279 560 L142 560 L43 0 Z " />
<glyph glyph-name="IJ" unicode="&#x132;" horiz-adv-x="1219" d="M113 445 L267 445 L313 700 L159 700 L113 445 Z M359 -5 L695 -5 C978 -5 1087 109 1122 305 L1192 700 L1038 700 L970 331 C948 206 879 135 715 135 L386 135 C246 135 220 193 236 275 L247 334 L93 334 L82 275 C53 124 119 -5 359 -5 L359 -5 Z " />
<glyph glyph-name="ij" unicode="&#x133;" horiz-adv-x="1047" d="M87 356 L224 356 L260 560 L123 560 L87 356 Z M297 -4 L598 -4 C823 -4 919 86 947 244 L1003 560 L867 560 L812 260 C794 164 740 115 606 115 L306 115 C202 115 187 161 197 220 L206 269 L71 269 L62 220 C40 97 89 -4 297 -4 L297 -4 Z " />
<glyph glyph-name="Jcircumflex" unicode="&#x134;" horiz-adv-x="1161" d="M301 -5 L637 -5 C920 -5 1029 109 1064 305 L1134 700 L980 700 L912 331 C890 206 821 135 657 135 L328 135 C188 135 162 193 178 275 L189 334 L35 334 L24 275 C-5 124 61 -5 301 -5 L301 -5 Z M846 775 L947 775 L1062 872 L1142 775 L1238 775 L1160 946 L986 946 L846 775 Z " />
<glyph glyph-name="jcircumflex" unicode="&#x135;" horiz-adv-x="999" d="M249 -4 L550 -4 C775 -4 871 86 899 244 L955 560 L819 560 L764 260 C746 164 692 115 558 115 L258 115 C154 115 139 161 149 220 L158 269 L23 269 L14 220 C-8 97 41 -4 249 -4 L249 -4 Z M677 635 L778 635 L893 732 L973 635 L1069 635 L991 806 L817 806 L677 635 Z " />
<glyph glyph-name="uni0136" unicode="&#x136;" horiz-adv-x="1245" d="M1223 700 L955 700 L259 301 L329 700 L178 700 L53 0 L204 0 L229 134 L540 311 L949 0 L1186 0 L673 387 L1223 700 Z M446 -232 L494 -232 L406 -359 L472 -359 L583 -220 L606 -92 L471 -92 L446 -232 Z " />
<glyph glyph-name="uni0137" unicode="&#x137;" horiz-adv-x="1072" d="M1039 560 L791 560 L223 248 L279 560 L142 560 L43 0 L180 0 L198 102 L458 243 L795 0 L1009 0 L578 309 L1039 560 Z M361 -232 L409 -232 L321 -359 L387 -359 L498 -220 L521 -92 L386 -92 L361 -232 Z " />
<glyph glyph-name="kgreenlandic" unicode="&#x138;" horiz-adv-x="1214" d="M1178 432 L1130 432 L1218 560 L1153 560 L1042 420 L1019 293 L1154 293 L1178 432 Z M1039 560 L791 560 L223 248 L279 560 L142 560 L43 0 L180 0 L198 102 L458 243 L795 0 L1009 0 L578 309 L1039 560 Z " />
<glyph glyph-name="Lacute" unicode="&#x139;" horiz-adv-x="1083" d="M332 700 L178 700 L53 0 L1000 0 L1024 140 L232 140 L332 700 Z M168 775 L273 775 L471 946 L294 946 L168 775 Z " />
<glyph glyph-name="lacute" unicode="&#x13a;" horiz-adv-x="945" d="M279 560 L142 560 L43 0 L849 0 L870 119 L201 119 L279 560 Z M126 635 L231 635 L429 806 L252 806 L126 635 Z " />
<glyph glyph-name="uni013B" unicode="&#x13b;" horiz-adv-x="1083" d="M332 700 L178 700 L53 0 L1000 0 L1024 140 L232 140 L332 700 Z M416 -232 L464 -232 L376 -359 L442 -359 L553 -220 L576 -92 L441 -92 L416 -232 Z " />
<glyph glyph-name="uni013C" unicode="&#x13c;" horiz-adv-x="945" d="M279 560 L142 560 L43 0 L849 0 L870 119 L201 119 L279 560 Z M343 -232 L391 -232 L303 -359 L369 -359 L480 -220 L503 -92 L368 -92 L343 -232 Z " />
<glyph glyph-name="Lcaron" unicode="&#x13d;" horiz-adv-x="1083" d="M332 700 L178 700 L53 0 L1000 0 L1024 140 L232 140 L332 700 Z M840 542 L907 542 L812 391 L880 391 L999 554 L1027 700 L868 700 L840 542 Z " />
<glyph glyph-name="lcaron" unicode="&#x13e;" horiz-adv-x="945" d="M273 560 L141 560 L43 0 L849 0 L869 119 L195 119 L273 560 Z M714 420 L762 420 L675 293 L740 293 L850 432 L873 560 L739 560 L714 420 Z " />
<glyph glyph-name="Ldot" unicode="&#x13f;" horiz-adv-x="1083" d="M332 700 L178 700 L53 0 L1000 0 L1024 140 L232 140 L332 700 Z M703 351 L841 351 L866 491 L728 491 L703 351 Z " />
<glyph glyph-name="ldot" unicode="&#x140;" horiz-adv-x="945" d="M279 560 L142 560 L43 0 L849 0 L870 119 L201 119 L279 560 Z M597 271 L735 271 L760 411 L622 411 L597 271 Z " />
<glyph glyph-name="Lslash" unicode="&#x141;" horiz-adv-x="1083" d="M621 595 L281 427 L329 700 L178 700 L116 351 L13 305 L-16 147 L90 201 L53 0 L999 0 L1024 140 L230 140 L252 274 L592 436 L621 595 Z " />
<glyph glyph-name="lslash" unicode="&#x142;" horiz-adv-x="945" d="M524 481 L241 349 L277 560 L142 560 L94 285 L7 249 L-19 115 L72 160 L43 0 L849 0 L870 119 L199 119 L216 219 L497 346 L524 481 Z " />
<glyph glyph-name="Nacute" unicode="&#x143;" horiz-adv-x="1255" d="M937 0 L1083 0 L1208 700 L1054 700 L960 168 L324 700 L178 700 L53 0 L207 0 L300 532 L937 0 Z M608 775 L713 775 L911 946 L734 946 L608 775 Z " />
<glyph glyph-name="nacute" unicode="&#x144;" horiz-adv-x="1083" d="M921 0 L1020 560 L883 560 L810 145 L272 560 L142 560 L43 0 L180 0 L253 415 L791 0 L921 0 Z M498 635 L603 635 L801 806 L624 806 L498 635 Z " />
<glyph glyph-name="uni0145" unicode="&#x145;" horiz-adv-x="1255" d="M937 0 L1083 0 L1208 700 L1054 700 L960 168 L324 700 L178 700 L53 0 L207 0 L300 532 L937 0 Z M460 -232 L508 -232 L420 -359 L486 -359 L597 -220 L620 -92 L485 -92 L460 -232 Z " />
<glyph glyph-name="uni0146" unicode="&#x146;" horiz-adv-x="1083" d="M921 0 L1020 560 L883 560 L810 145 L272 560 L142 560 L43 0 L180 0 L253 415 L791 0 L921 0 Z M373 -232 L421 -232 L333 -359 L399 -359 L510 -220 L533 -92 L398 -92 L373 -232 Z " />
<glyph glyph-name="Ncaron" unicode="&#x147;" horiz-adv-x="1255" d="M937 0 L1083 0 L1208 700 L1054 700 L960 168 L324 700 L178 700 L53 0 L207 0 L300 532 L937 0 Z M932 946 L831 946 L716 849 L636 946 L540 946 L618 775 L792 775 L932 946 Z " />
<glyph glyph-name="ncaron" unicode="&#x148;" horiz-adv-x="1083" d="M921 0 L1020 560 L883 560 L810 145 L272 560 L142 560 L43 0 L180 0 L253 415 L791 0 L921 0 Z M822 806 L721 806 L606 709 L526 806 L430 806 L508 635 L682 635 L822 806 Z " />
<glyph glyph-name="napostrophe" unicode="&#x149;" horiz-adv-x="1323" d="M1161 0 L1260 560 L1123 560 L1050 145 L512 560 L382 560 L283 0 L420 0 L493 415 L1031 0 L1161 0 Z M95 560 L143 560 L55 433 L121 433 L232 572 L255 700 L120 700 L95 560 Z " />
<glyph glyph-name="Eng" unicode="&#x14a;" horiz-adv-x="1255" d="M610 -230 L788 -230 C973 -230 1055 -148 1075 -33 L1208 700 L1054 700 L960 168 L324 700 L178 700 L53 0 L207 0 L300 532 L930 6 L927 -14 C920 -58 883 -90 802 -90 L636 -90 L610 -230 Z " />
<glyph glyph-name="eng" unicode="&#x14b;" horiz-adv-x="1083" d="M519 -184 L683 -184 C835 -184 900 -121 916 -26 L1020 560 L883 560 L810 145 L272 560 L142 560 L43 0 L180 0 L253 415 L785 5 L782 -8 C777 -41 758 -65 692 -65 L542 -65 L519 -184 Z " />
<glyph glyph-name="Omacron" unicode="&#x14c;" horiz-adv-x="1293" d="M734 -10 C1097 -10 1235 180 1235 407 C1235 578 1128 710 856 710 L565 710 C203 710 62 521 62 295 C62 122 171 -10 443 -10 L734 -10 Z M472 130 C286 130 227 209 227 313 C227 435 295 570 555 570 L826 570 C1011 570 1070 491 1070 389 C1070 260 997 130 743 130 L472 130 Z M542 811 L916 811 L934 909 L560 909 L542 811 Z " />
<glyph glyph-name="omacron" unicode="&#x14d;" horiz-adv-x="1107" d="M621 -8 C926 -8 1039 152 1042 326 C1044 461 960 568 725 568 L465 568 C160 568 49 408 46 234 C43 99 126 -8 361 -8 L621 -8 Z M385 111 C233 111 191 171 191 247 C192 344 263 449 445 449 L703 449 C853 449 896 389 896 312 C896 219 825 111 642 111 L385 111 Z M425 671 L799 671 L817 769 L443 769 L425 671 Z " />
<glyph glyph-name="Obreve" unicode="&#x14e;" horiz-adv-x="1293" d="M734 -10 C1097 -10 1235 180 1235 407 C1235 578 1128 710 856 710 L565 710 C203 710 62 521 62 295 C62 122 171 -10 443 -10 L734 -10 Z M472 130 C286 130 227 209 227 313 C227 435 295 570 555 570 L826 570 C1011 570 1070 491 1070 389 C1070 260 997 130 743 130 L472 130 Z M737 872 C672 872 651 903 655 943 L573 943 C563 866 582 777 722 777 C862 777 913 864 932 943 L847 943 C836 903 801 872 737 872 L737 872 Z " />
<glyph glyph-name="obreve" unicode="&#x14f;" horiz-adv-x="1107" d="M621 -8 C926 -8 1039 152 1042 326 C1044 461 960 568 725 568 L465 568 C160 568 49 408 46 234 C43 99 126 -8 361 -8 L621 -8 Z M385 111 C233 111 191 171 191 247 C192 344 263 449 445 449 L703 449 C853 449 896 389 896 312 C896 219 825 111 642 111 L385 111 Z M620 732 C555 732 534 763 538 803 L456 803 C446 726 465 637 605 637 C745 637 796 724 815 803 L730 803 C719 763 684 732 620 732 L620 732 Z " />
<glyph glyph-name="Ohungarumlaut" unicode="&#x150;" horiz-adv-x="1293" d="M734 -10 C1097 -10 1235 180 1235 407 C1235 578 1128 710 856 710 L565 710 C203 710 62 521 62 295 C62 122 171 -10 443 -10 L734 -10 Z M472 130 C286 130 227 209 227 313 C227 435 295 570 555 570 L826 570 C1011 570 1070 491 1070 389 C1070 260 997 130 743 130 L472 130 Z M763 775 L867 775 L1063 946 L889 946 L763 775 Z M496 775 L600 775 L797 946 L623 946 L496 775 Z " />
<glyph glyph-name="ohungarumlaut" unicode="&#x151;" horiz-adv-x="1107" d="M621 -8 C926 -8 1039 152 1042 326 C1044 461 960 568 725 568 L465 568 C160 568 49 408 46 234 C43 99 126 -8 361 -8 L621 -8 Z M385 111 C233 111 191 171 191 247 C192 344 263 449 445 449 L703 449 C853 449 896 389 896 312 C896 219 825 111 642 111 L385 111 Z M646 635 L750 635 L946 806 L772 806 L646 635 Z M379 635 L483 635 L680 806 L506 806 L379 635 Z " />
<glyph glyph-name="OE" unicode="&#x152;" horiz-adv-x="1679" d="M62 296 C59 130 163 0 431 0 L1548 0 L1573 140 L862 140 L887 287 L1501 287 L1524 413 L911 413 L936 560 L1648 560 L1673 700 L556 700 C210 700 65 507 62 296 L62 296 Z M229 315 C231 428 278 560 531 560 L782 560 L708 140 L457 140 C281 140 227 217 229 315 L229 315 Z " />
<glyph glyph-name="oe" unicode="&#x153;" horiz-adv-x="1436" d="M1312 0 L1333 119 L732 119 L751 228 L1266 228 L1286 332 L770 332 L789 441 L1389 441 L1411 560 L454 560 C153 560 46 400 46 232 C46 102 128 0 353 0 L1312 0 Z M192 248 C192 347 270 441 446 441 L653 441 L597 119 L368 119 C235 119 192 169 192 248 L192 248 Z " />
<glyph glyph-name="Racute" unicode="&#x154;" horiz-adv-x="1228" d="M53 0 L204 0 L248 243 L612 243 L934 0 L1168 0 L828 245 C1047 250 1140 365 1140 507 C1140 615 1073 700 895 700 L178 700 L53 0 Z M866 560 C953 560 978 527 978 485 C978 427 939 377 830 377 L272 377 L304 560 L866 560 Z M558 775 L663 775 L861 946 L684 946 L558 775 Z " />
<glyph glyph-name="racute" unicode="&#x155;" horiz-adv-x="1061" d="M43 0 L180 0 L213 191 L521 191 L783 0 L993 0 L714 193 C897 200 964 299 964 404 C964 490 910 560 758 560 L144 560 L43 0 Z M731 441 C803 441 819 415 819 385 C819 347 798 305 706 305 L234 305 L258 441 L731 441 Z M455 635 L560 635 L758 806 L581 806 L455 635 Z " />
<glyph glyph-name="uni0156" unicode="&#x156;" horiz-adv-x="1228" d="M53 0 L204 0 L248 243 L612 243 L934 0 L1168 0 L828 245 C1047 250 1140 365 1140 507 C1140 615 1073 700 895 700 L178 700 L53 0 Z M866 560 C953 560 978 527 978 485 C978 427 939 377 830 377 L272 377 L304 560 L866 560 Z M438 -232 L486 -232 L398 -359 L464 -359 L575 -220 L598 -92 L463 -92 L438 -232 Z " />
<glyph glyph-name="uni0157" unicode="&#x157;" horiz-adv-x="1061" d="M43 0 L180 0 L213 191 L521 191 L783 0 L993 0 L714 193 C897 200 964 299 964 404 C964 490 910 560 758 560 L144 560 L43 0 Z M731 441 C803 441 819 415 819 385 C819 347 798 305 706 305 L234 305 L258 441 L731 441 Z M353 -232 L401 -232 L313 -359 L379 -359 L490 -220 L513 -92 L378 -92 L353 -232 Z " />
<glyph glyph-name="Rcaron" unicode="&#x158;" horiz-adv-x="1228" d="M53 0 L204 0 L248 243 L612 243 L934 0 L1168 0 L828 245 C1047 250 1140 365 1140 507 C1140 615 1073 700 895 700 L178 700 L53 0 Z M866 560 C953 560 978 527 978 485 C978 427 939 377 830 377 L272 377 L304 560 L866 560 Z M882 946 L781 946 L666 849 L586 946 L490 946 L568 775 L742 775 L882 946 Z " />
<glyph glyph-name="rcaron" unicode="&#x159;" horiz-adv-x="1061" d="M43 0 L180 0 L213 191 L521 191 L783 0 L993 0 L714 193 C897 200 964 299 964 404 C964 490 910 560 758 560 L144 560 L43 0 Z M731 441 C803 441 819 415 819 385 C819 347 798 305 706 305 L234 305 L258 441 L731 441 Z M779 806 L678 806 L563 709 L483 806 L387 806 L465 635 L639 635 L779 806 Z " />
<glyph glyph-name="Sacute" unicode="&#x15a;" horiz-adv-x="1158" d="M798 140 L69 140 L43 0 L777 0 C988 0 1075 108 1075 238 C1075 338 1012 413 850 413 L340 413 C269 413 253 442 253 475 C253 519 280 560 366 560 L1095 560 L1121 700 L387 700 C176 700 89 592 89 462 C89 362 152 287 313 287 L824 287 C895 287 912 258 912 225 C912 181 884 140 798 140 L798 140 Z M559 775 L664 775 L862 946 L685 946 L559 775 Z " />
<glyph glyph-name="sacute" unicode="&#x15b;" horiz-adv-x="990" d="M673 119 L52 119 L30 0 L659 0 C845 0 906 91 906 194 C906 272 855 330 719 330 L277 330 C222 330 208 352 208 376 C208 408 227 441 297 441 L918 441 L941 560 L312 560 C125 560 65 469 65 367 C65 288 115 230 252 230 L693 230 C748 230 763 208 763 184 C763 153 743 119 673 119 L673 119 Z M451 635 L556 635 L754 806 L577 806 L451 635 Z " />
<glyph glyph-name="Scircumflex" unicode="&#x15c;" horiz-adv-x="1158" d="M798 140 L69 140 L43 0 L777 0 C988 0 1075 108 1075 238 C1075 338 1012 413 850 413 L340 413 C269 413 253 442 253 475 C253 519 280 560 366 560 L1095 560 L1121 700 L387 700 C176 700 89 592 89 462 C89 362 152 287 313 287 L824 287 C895 287 912 258 912 225 C912 181 884 140 798 140 L798 140 Z M458 775 L559 775 L674 872 L754 775 L850 775 L772 946 L598 946 L458 775 Z " />
<glyph glyph-name="scircumflex" unicode="&#x15d;" horiz-adv-x="990" d="M673 119 L52 119 L30 0 L659 0 C845 0 906 91 906 194 C906 272 855 330 719 330 L277 330 C222 330 208 352 208 376 C208 408 227 441 297 441 L918 441 L941 560 L312 560 C125 560 65 469 65 367 C65 288 115 230 252 230 L693 230 C748 230 763 208 763 184 C763 153 743 119 673 119 L673 119 Z M350 635 L451 635 L566 732 L646 635 L742 635 L664 806 L490 806 L350 635 Z " />
<glyph glyph-name="Scedilla" unicode="&#x15e;" horiz-adv-x="1158" d="M428 -131 L465 -131 C511 -131 535 -139 535 -165 C535 -207 484 -216 436 -216 C401 -216 368 -205 353 -193 L339 -260 C365 -274 410 -288 459 -288 C546 -287 639 -261 639 -158 C639 -90 571 -65 508 -71 L541 0 L777 0 C988 0 1075 108 1075 238 C1075 338 1012 413 850 413 L340 413 C269 413 253 442 253 475 C253 519 280 560 366 560 L1095 560 L1121 700 L387 700 C176 700 89 592 89 462 C89 362 152 287 313 287 L824 287 C895 287 912 258 912 225 C912 181 884 140 798 140 L69 140 L43 0 L486 0 L428 -131 Z " />
<glyph glyph-name="scedilla" unicode="&#x15f;" horiz-adv-x="990" d="M344 -131 L381 -131 C427 -131 451 -139 451 -165 C451 -207 400 -216 352 -216 C317 -216 284 -205 269 -193 L255 -260 C281 -274 326 -288 375 -288 C462 -287 555 -261 555 -158 C555 -90 487 -65 424 -71 L457 0 L659 0 C845 0 906 91 906 194 C906 272 855 330 719 330 L277 330 C222 330 208 352 208 376 C208 408 227 441 297 441 L918 441 L941 560 L312 560 C125 560 65 469 65 367 C65 288 115 230 252 230 L693 230 C748 230 763 208 763 184 C763 153 743 119 673 119 L52 119 L30 0 L402 0 L344 -131 Z " />
<glyph glyph-name="Scaron" unicode="&#x160;" horiz-adv-x="1158" d="M798 140 L69 140 L43 0 L777 0 C988 0 1075 108 1075 238 C1075 338 1012 413 850 413 L340 413 C269 413 253 442 253 475 C253 519 280 560 366 560 L1095 560 L1121 700 L387 700 C176 700 89 592 89 462 C89 362 152 287 313 287 L824 287 C895 287 912 258 912 225 C912 181 884 140 798 140 L798 140 Z M883 946 L782 946 L667 849 L587 946 L491 946 L569 775 L743 775 L883 946 Z " />
<glyph glyph-name="scaron" unicode="&#x161;" horiz-adv-x="990" d="M673 119 L52 119 L30 0 L659 0 C845 0 906 91 906 194 C906 272 855 330 719 330 L277 330 C222 330 208 352 208 376 C208 408 227 441 297 441 L918 441 L941 560 L312 560 C125 560 65 469 65 367 C65 288 115 230 252 230 L693 230 C748 230 763 208 763 184 C763 153 743 119 673 119 L673 119 Z M775 806 L674 806 L559 709 L479 806 L383 806 L461 635 L635 635 L775 806 Z " />
<glyph glyph-name="uni0162" unicode="&#x162;" horiz-adv-x="1136" d="M417 -131 L454 -131 C500 -131 524 -139 524 -165 C524 -207 473 -216 425 -216 C390 -216 357 -205 342 -193 L328 -260 C354 -274 399 -288 448 -288 C535 -287 628 -261 628 -158 C628 -90 560 -65 497 -71 L530 0 L585 0 L685 560 L1152 560 L1177 700 L90 700 L64 560 L531 560 L431 0 L475 0 L417 -131 Z " />
<glyph glyph-name="uni0163" unicode="&#x163;" horiz-adv-x="997" d="M348 -131 L385 -131 C431 -131 455 -139 455 -165 C455 -207 404 -216 356 -216 C321 -216 288 -205 273 -193 L259 -260 C285 -274 330 -288 379 -288 C466 -287 559 -261 559 -158 C559 -90 491 -65 428 -71 L461 0 L508 0 L585 441 L979 441 L1001 560 L76 560 L54 441 L448 441 L371 0 L406 0 L348 -131 Z " />
<glyph glyph-name="Tcaron" unicode="&#x164;" horiz-adv-x="1136" d="M64 560 L531 560 L431 0 L585 0 L685 560 L1152 560 L1177 700 L90 700 L64 560 Z M872 946 L771 946 L656 849 L576 946 L480 946 L558 775 L732 775 L872 946 Z " />
<glyph glyph-name="tcaron" unicode="&#x165;" horiz-adv-x="997" d="M54 441 L448 441 L371 0 L508 0 L585 441 L979 441 L1001 560 L76 560 L54 441 Z M779 806 L678 806 L563 709 L483 806 L387 806 L465 635 L639 635 L779 806 Z " />
<glyph glyph-name="Tbar" unicode="&#x166;" horiz-adv-x="1136" d="M64 560 L531 560 L504 410 L266 410 L243 290 L483 290 L431 0 L585 0 L637 290 L873 290 L896 410 L658 410 L685 560 L1152 560 L1177 700 L90 700 L64 560 Z " />
<glyph glyph-name="tbar" unicode="&#x167;" horiz-adv-x="997" d="M54 441 L448 441 L426 318 L215 318 L197 218 L409 218 L371 0 L508 0 L546 218 L756 218 L775 318 L563 318 L585 441 L979 441 L1001 560 L76 560 L54 441 Z " />
<glyph glyph-name="Utilde" unicode="&#x168;" horiz-adv-x="1223" d="M244 323 L313 700 L159 700 L90 323 C55 130 131 -10 420 -10 L698 -10 C980 -10 1092 116 1126 307 L1196 700 L1042 700 L976 333 C953 208 883 130 719 130 L437 130 C262 130 225 210 244 323 L244 323 Z M821 942 C812 902 798 890 777 890 C742 890 706 936 645 936 C581 936 533 896 508 778 L583 778 C591 817 604 831 627 831 C661 831 697 784 757 784 C822 784 870 823 896 942 L821 942 Z " />
<glyph glyph-name="utilde" unicode="&#x169;" horiz-adv-x="1049" d="M205 258 L259 560 L123 560 L69 258 C41 104 90 -8 347 -8 L599 -8 C824 -8 920 83 948 240 L1005 560 L869 560 L814 256 C796 160 743 111 609 111 L370 111 C209 111 190 165 205 258 L205 258 Z M710 802 C701 762 687 750 666 750 C631 750 595 796 534 796 C470 796 422 756 397 638 L472 638 C480 677 493 691 516 691 C550 691 586 644 646 644 C711 644 759 683 785 802 L710 802 Z " />
<glyph glyph-name="Umacron" unicode="&#x16a;" horiz-adv-x="1223" d="M244 323 L313 700 L159 700 L90 323 C55 130 131 -10 420 -10 L698 -10 C980 -10 1092 116 1126 307 L1196 700 L1042 700 L976 333 C953 208 883 130 719 130 L437 130 C262 130 225 210 244 323 L244 323 Z M508 811 L882 811 L900 909 L526 909 L508 811 Z " />
<glyph glyph-name="umacron" unicode="&#x16b;" horiz-adv-x="1049" d="M205 258 L259 560 L123 560 L69 258 C41 104 90 -8 347 -8 L599 -8 C824 -8 920 83 948 240 L1005 560 L869 560 L814 256 C796 160 743 111 609 111 L370 111 C209 111 190 165 205 258 L205 258 Z M397 671 L771 671 L789 769 L415 769 L397 671 Z " />
<glyph glyph-name="Ubreve" unicode="&#x16c;" horiz-adv-x="1223" d="M244 323 L313 700 L159 700 L90 323 C55 130 131 -10 420 -10 L698 -10 C980 -10 1092 116 1126 307 L1196 700 L1042 700 L976 333 C953 208 883 130 719 130 L437 130 C262 130 225 210 244 323 L244 323 Z M702 872 C637 872 616 903 620 943 L538 943 C528 866 547 777 687 777 C827 777 878 864 897 943 L812 943 C801 903 766 872 702 872 L702 872 Z " />
<glyph glyph-name="ubreve" unicode="&#x16d;" horiz-adv-x="1049" d="M205 258 L259 560 L123 560 L69 258 C41 104 90 -8 347 -8 L599 -8 C824 -8 920 83 948 240 L1005 560 L869 560 L814 256 C796 160 743 111 609 111 L370 111 C209 111 190 165 205 258 L205 258 Z M591 732 C526 732 505 763 509 803 L427 803 C417 726 436 637 576 637 C716 637 767 724 786 803 L701 803 C690 763 655 732 591 732 L591 732 Z " />
<glyph glyph-name="Uring" unicode="&#x16e;" horiz-adv-x="1223" d="M244 323 L313 700 L159 700 L90 323 C55 130 131 -10 420 -10 L698 -10 C980 -10 1092 116 1126 307 L1196 700 L1042 700 L976 333 C953 208 883 130 719 130 L437 130 C262 130 225 210 244 323 L244 323 Z M659 857 C659 883 682 904 708 904 C729 904 746 886 746 865 C746 838 722 818 698 818 C675 818 659 836 659 857 L659 857 Z M573 853 C572 792 618 745 691 745 C771 745 833 801 833 871 C833 931 786 977 715 977 C634 977 574 922 573 853 L573 853 Z " />
<glyph glyph-name="uring" unicode="&#x16f;" horiz-adv-x="1049" d="M205 258 L259 560 L123 560 L69 258 C41 104 90 -8 347 -8 L599 -8 C824 -8 920 83 948 240 L1005 560 L869 560 L814 256 C796 160 743 111 609 111 L370 111 C209 111 190 165 205 258 L205 258 Z M548 717 C548 743 571 764 597 764 C618 764 635 746 635 725 C635 698 611 678 587 678 C564 678 548 696 548 717 L548 717 Z M462 713 C461 652 507 605 580 605 C660 605 722 661 722 731 C722 791 675 837 604 837 C523 837 463 782 462 713 L462 713 Z " />
<glyph glyph-name="Uhungarumlaut" unicode="&#x170;" horiz-adv-x="1223" d="M244 323 L313 700 L159 700 L90 323 C55 130 131 -10 420 -10 L698 -10 C980 -10 1092 116 1126 307 L1196 700 L1042 700 L976 333 C953 208 883 130 719 130 L437 130 C262 130 225 210 244 323 L244 323 Z M728 775 L832 775 L1028 946 L854 946 L728 775 Z M461 775 L565 775 L762 946 L588 946 L461 775 Z " />
<glyph glyph-name="uhungarumlaut" unicode="&#x171;" horiz-adv-x="1049" d="M205 258 L259 560 L123 560 L69 258 C41 104 90 -8 347 -8 L599 -8 C824 -8 920 83 948 240 L1005 560 L869 560 L814 256 C796 160 743 111 609 111 L370 111 C209 111 190 165 205 258 L205 258 Z M617 635 L721 635 L917 806 L743 806 L617 635 Z M350 635 L454 635 L651 806 L477 806 L350 635 Z " />
<glyph glyph-name="Uogonek" unicode="&#x172;" horiz-adv-x="1223" d="M525 -190 C525 -244 572 -279 646 -279 C691 -279 737 -275 790 -256 L802 -188 C764 -203 746 -206 719 -206 C677 -206 651 -188 651 -152 C651 -89 714 -42 782 -6 C1003 17 1095 136 1126 307 L1196 700 L1042 700 L976 333 C953 208 883 130 719 130 L437 130 C262 130 225 210 244 323 L313 700 L159 700 L90 323 C55 130 131 -10 420 -10 L689 -10 C605 -46 525 -106 525 -190 L525 -190 Z " />
<glyph glyph-name="uogonek" unicode="&#x173;" horiz-adv-x="1049" d="M409 -190 C409 -244 456 -279 530 -279 C575 -279 621 -275 674 -256 L686 -188 C648 -203 630 -206 603 -206 C561 -206 535 -188 535 -152 C535 -89 599 -41 668 -5 C844 12 923 100 948 240 L1005 560 L869 560 L814 256 C796 160 743 111 609 111 L370 111 C209 111 190 165 205 258 L259 560 L123 560 L69 258 C41 104 90 -8 347 -8 L578 -8 C492 -43 409 -105 409 -190 L409 -190 Z " />
<glyph glyph-name="Wcircumflex" unicode="&#x174;" horiz-adv-x="1552" d="M805 509 L980 0 L1094 0 L1602 700 L1408 700 L1061 192 L890 700 L776 700 L424 192 L259 700 L82 700 L339 0 L453 0 L805 509 Z M655 775 L756 775 L871 872 L951 775 L1047 775 L969 946 L795 946 L655 775 Z " />
<glyph glyph-name="wcircumflex" unicode="&#x175;" horiz-adv-x="1327" d="M673 397 L824 0 L925 0 L1349 560 L1180 560 L896 163 L748 560 L647 560 L360 163 L215 560 L56 560 L283 0 L384 0 L673 397 Z M518 635 L619 635 L734 732 L814 635 L910 635 L832 806 L658 806 L518 635 Z " />
<glyph glyph-name="Ycircumflex" unicode="&#x176;" horiz-adv-x="1203" d="M465 0 L619 0 L656 213 L1274 700 L1039 700 L594 333 L275 700 L61 700 L502 213 L465 0 Z M480 775 L581 775 L696 872 L776 775 L872 775 L794 946 L620 946 L480 775 Z " />
<glyph glyph-name="ycircumflex" unicode="&#x177;" horiz-adv-x="1023" d="M384 0 L521 0 L551 171 L1067 560 L859 560 L493 272 L225 560 L35 560 L414 171 L384 0 Z M366 635 L467 635 L582 732 L662 635 L758 635 L680 806 L506 806 L366 635 Z " />
<glyph glyph-name="Ydieresis" unicode="&#x178;" horiz-adv-x="1203" d="M465 0 L619 0 L656 213 L1274 700 L1039 700 L594 333 L275 700 L61 700 L502 213 L465 0 Z M749 789 L888 789 L913 929 L774 929 L749 789 Z M469 789 L608 789 L633 929 L493 929 L469 789 Z " />
<glyph glyph-name="Zacute" unicode="&#x179;" horiz-adv-x="1152" d="M10 0 L1038 0 L1063 140 L340 140 L1124 592 L1139 700 L140 700 L114 560 L808 560 L24 108 L10 0 Z M556 775 L661 775 L859 946 L682 946 L556 775 Z " />
<glyph glyph-name="zacute" unicode="&#x17a;" horiz-adv-x="986" d="M3 0 L879 0 L900 119 L297 119 L945 468 L957 560 L106 560 L84 441 L660 441 L14 92 L3 0 Z M449 635 L554 635 L752 806 L575 806 L449 635 Z " />
<glyph glyph-name="Zdotaccent" unicode="&#x17b;" horiz-adv-x="1152" d="M10 0 L1038 0 L1063 140 L340 140 L1124 592 L1139 700 L140 700 L114 560 L808 560 L24 108 L10 0 Z M586 789 L724 789 L749 929 L611 929 L586 789 Z " />
<glyph glyph-name="zdotaccent" unicode="&#x17c;" horiz-adv-x="986" d="M3 0 L879 0 L900 119 L297 119 L945 468 L957 560 L106 560 L84 441 L660 441 L14 92 L3 0 Z M479 649 L617 649 L642 789 L504 789 L479 649 Z " />
<glyph glyph-name="Zcaron" unicode="&#x17d;" horiz-adv-x="1152" d="M10 0 L1038 0 L1063 140 L340 140 L1124 592 L1139 700 L140 700 L114 560 L808 560 L24 108 L10 0 Z M880 946 L779 946 L664 849 L584 946 L488 946 L566 775 L740 775 L880 946 Z " />
<glyph glyph-name="zcaron" unicode="&#x17e;" horiz-adv-x="986" d="M3 0 L879 0 L900 119 L297 119 L945 468 L957 560 L106 560 L84 441 L660 441 L14 92 L3 0 Z M773 806 L672 806 L557 709 L477 806 L381 806 L459 635 L633 635 L773 806 Z " />
<glyph glyph-name="uni0186" unicode="&#x186;" horiz-adv-x="1136" d="M913 385 C913 272 855 140 607 140 L36 140 L11 0 L594 0 C940 0 1078 193 1078 404 C1078 570 977 700 709 700 L136 700 L112 560 L684 560 C861 560 913 483 913 385 L913 385 Z " />
<glyph glyph-name="uni0189" unicode="&#x189;" horiz-adv-x="1204" d="M-22 287 L104 287 L53 0 L662 0 C1006 0 1145 193 1145 404 C1145 570 1044 700 776 700 L178 700 L126 413 L2 413 L-22 287 Z M751 560 C928 560 980 483 980 385 C980 272 922 140 674 140 L230 140 L256 287 L609 287 L632 413 L278 413 L304 560 L751 560 Z " />
<glyph glyph-name="uni018E" unicode="&#x18e;" horiz-adv-x="1150" d="M1104 700 L138 700 L112 560 L924 560 L898 413 L184 413 L161 287 L875 287 L849 140 L37 140 L12 0 L978 0 L1104 700 Z " />
<glyph glyph-name="florin" unicode="&#x192;" horiz-adv-x="1245" d="M399 109 C378 32 325 -20 220 -20 L105 -20 L78 -160 L216 -160 C411 -160 507 -59 547 88 L600 283 L893 283 L916 410 L635 410 L641 431 C661 505 708 560 820 560 L1128 560 L1153 700 L837 700 C629 700 532 589 494 452 L482 410 L299 410 L276 283 L447 283 L399 109 Z " />
<glyph glyph-name="Ohorn" unicode="&#x1a0;" horiz-adv-x="1293" d="M734 -10 C1097 -10 1235 180 1235 407 C1235 492 1208 567 1148 622 L1176 622 C1274 622 1357 643 1378 764 C1381 782 1383 803 1383 826 L1244 826 C1244 806 1242 789 1239 775 C1228 711 1195 700 1150 700 L975 700 C940 706 900 710 856 710 L565 710 C203 710 62 521 62 295 C62 122 171 -10 443 -10 L734 -10 Z M472 130 C286 130 227 209 227 313 C227 435 295 570 555 570 L826 570 C1011 570 1070 491 1070 389 C1070 260 997 130 743 130 L472 130 Z " />
<glyph glyph-name="ohorn" unicode="&#x1a1;" horiz-adv-x="1107" d="M621 -8 C926 -8 1039 152 1042 326 C1043 386 1027 440 988 482 C1076 486 1148 512 1168 624 C1171 642 1173 663 1173 686 L1034 686 C1034 666 1032 649 1029 635 C1018 571 985 560 940 560 L826 560 C796 565 762 568 725 568 L465 568 C160 568 49 408 46 234 C43 99 126 -8 361 -8 L621 -8 Z M385 111 C233 111 191 171 191 247 C192 344 263 449 445 449 L703 449 C853 449 896 389 896 312 C896 219 825 111 642 111 L385 111 Z " />
<glyph glyph-name="uni01A7" unicode="&#x1a7;" horiz-adv-x="1158" d="M1022 140 L291 140 C219 140 202 170 202 202 C202 246 229 287 315 287 L828 287 C1043 287 1127 401 1127 527 C1127 625 1066 700 902 700 L168 700 L142 560 L873 560 C946 560 962 530 962 498 C962 454 935 413 849 413 L336 413 C121 413 37 299 37 173 C37 75 99 0 262 0 L996 0 L1022 140 Z " />
<glyph glyph-name="uni01A8" unicode="&#x1a8;" horiz-adv-x="990" d="M862 119 L240 119 C184 119 170 140 170 164 C170 194 190 230 259 230 L699 230 C887 230 947 320 947 424 C947 502 896 560 760 560 L131 560 L108 441 L730 441 C786 441 801 420 801 396 C801 366 781 330 711 330 L270 330 C84 330 23 240 23 136 C23 59 74 0 211 0 L840 0 L862 119 Z " />
<glyph glyph-name="Uhorn" unicode="&#x1af;" horiz-adv-x="1367" d="M244 323 L313 700 L159 700 L90 323 C55 130 131 -10 420 -10 L698 -10 C980 -10 1092 116 1126 307 L1182 622 L1245 622 C1343 622 1426 643 1447 764 C1450 782 1452 803 1452 826 L1313 826 C1313 806 1311 789 1308 775 C1297 711 1264 700 1219 700 L1042 700 L976 333 C953 208 883 130 719 130 L437 130 C262 130 225 210 244 323 L244 323 Z " />
<glyph glyph-name="uhorn" unicode="&#x1b0;" horiz-adv-x="1202" d="M205 258 L259 560 L123 560 L69 258 C41 104 90 -8 347 -8 L599 -8 C824 -8 920 83 948 240 L991 482 L1057 482 C1155 482 1238 503 1259 624 C1262 642 1264 663 1264 686 L1125 686 C1125 666 1123 649 1120 635 C1109 571 1076 560 1031 560 L869 560 L814 256 C796 160 743 111 609 111 L370 111 C209 111 190 165 205 258 L205 258 Z " />
<glyph glyph-name="uni01B1" unicode="&#x1b1;" horiz-adv-x="1301" d="M844 584 C1000 560 1067 477 1067 380 C1067 268 1004 130 758 130 L468 130 C291 130 238 205 238 303 C238 424 332 557 550 584 L569 700 L127 700 L101 560 L245 560 C125 481 80 369 80 254 C80 107 175 -10 415 -10 L764 -10 C1083 -10 1212 170 1212 363 C1212 440 1183 515 1126 560 L1279 560 L1305 700 L864 700 L844 584 Z " />
<glyph glyph-name="uni01C0" unicode="&#x1c0;" horiz-adv-x="351" d="M325 800 L196 800 L34 -100 L164 -100 L325 800 Z " />
<glyph glyph-name="uni01C1" unicode="&#x1c1;" horiz-adv-x="696" d="M325 800 L196 800 L34 -100 L164 -100 L325 800 Z M677 800 L547 800 L386 -100 L516 -100 L677 800 Z " />
<glyph glyph-name="uni01C2" unicode="&#x1c2;" horiz-adv-x="694" d="M376 140 L622 140 L643 256 L397 256 L430 444 L676 444 L697 560 L451 560 L495 800 L365 800 L321 560 L75 560 L54 444 L300 444 L267 256 L21 256 L0 140 L246 140 L204 -100 L333 -100 L376 140 Z " />
<glyph glyph-name="uni01C3" unicode="&#x1c3;" horiz-adv-x="367" d="M47 0 L203 0 L231 158 L75 158 L47 0 Z M95 222 L228 222 L325 700 L175 700 L95 222 Z " />
<glyph glyph-name="uni01C4" unicode="&#x1c4;" horiz-adv-x="2355" d="M53 0 L662 0 C1006 0 1145 193 1145 404 C1145 570 1044 700 776 700 L178 700 L53 0 Z M751 560 C928 560 980 483 980 385 C980 272 922 140 674 140 L230 140 L304 560 L751 560 Z M1214 0 L2242 0 L2267 140 L1544 140 L2328 592 L2343 700 L1344 700 L1318 560 L2012 560 L1228 108 L1214 0 Z M2084 946 L1983 946 L1868 849 L1788 946 L1692 946 L1770 775 L1944 775 L2084 946 Z " />
<glyph glyph-name="uni01C5" unicode="&#x1c5;" horiz-adv-x="2189" d="M53 0 L662 0 C1006 0 1145 193 1145 404 C1145 570 1044 700 776 700 L178 700 L53 0 Z M751 560 C928 560 980 483 980 385 C980 272 922 140 674 140 L230 140 L304 560 L751 560 Z M1207 0 L2083 0 L2104 119 L1501 119 L2149 468 L2161 560 L1310 560 L1288 441 L1864 441 L1218 92 L1207 0 Z M1977 806 L1876 806 L1761 709 L1681 806 L1585 806 L1663 635 L1837 635 L1977 806 Z " />
<glyph glyph-name="uni01C6" unicode="&#x1c6;" horiz-adv-x="2021" d="M43 0 L563 0 C864 0 971 160 971 328 C971 457 888 560 664 560 L144 560 L43 0 Z M650 441 C783 441 825 391 825 312 C825 213 747 119 571 119 L202 119 L258 441 L650 441 Z M1039 0 L1915 0 L1936 119 L1333 119 L1981 468 L1993 560 L1142 560 L1120 441 L1696 441 L1050 92 L1039 0 Z M1809 806 L1708 806 L1593 709 L1513 806 L1417 806 L1495 635 L1669 635 L1809 806 Z " />
<glyph glyph-name="uni01C7" unicode="&#x1c7;" horiz-adv-x="2244" d="M1384 -5 L1720 -5 C2003 -5 2112 109 2147 305 L2217 700 L2063 700 L1995 331 C1973 206 1904 135 1740 135 L1411 135 C1271 135 1245 193 1261 275 L1272 334 L1118 334 L1107 275 C1078 124 1144 -5 1384 -5 L1384 -5 Z M332 700 L178 700 L53 0 L1000 0 L1024 140 L232 140 L332 700 Z " />
<glyph glyph-name="uni01C8" unicode="&#x1c8;" horiz-adv-x="2082" d="M332 700 L178 700 L53 0 L1000 0 L1024 140 L232 140 L332 700 Z M1332 -4 L1633 -4 C1858 -4 1954 86 1982 244 L2038 560 L1902 560 L1847 260 C1829 164 1775 115 1641 115 L1341 115 C1237 115 1222 161 1232 220 L1241 269 L1106 269 L1097 220 C1075 97 1124 -4 1332 -4 L1332 -4 Z " />
<glyph glyph-name="uni01C9" unicode="&#x1c9;" horiz-adv-x="1944" d="M1194 -4 L1495 -4 C1720 -4 1816 86 1844 244 L1900 560 L1764 560 L1709 260 C1691 164 1637 115 1503 115 L1203 115 C1099 115 1084 161 1094 220 L1103 269 L968 269 L959 220 C937 97 986 -4 1194 -4 L1194 -4 Z M279 560 L142 560 L43 0 L849 0 L870 119 L201 119 L279 560 Z " />
<glyph glyph-name="uni01CA" unicode="&#x1ca;" horiz-adv-x="2416" d="M1556 -5 L1892 -5 C2175 -5 2284 109 2319 305 L2389 700 L2235 700 L2167 331 C2145 206 2076 135 1912 135 L1583 135 C1443 135 1417 193 1433 275 L1444 334 L1290 334 L1279 275 C1250 124 1316 -5 1556 -5 L1556 -5 Z M937 0 L1083 0 L1208 700 L1054 700 L960 168 L324 700 L178 700 L53 0 L207 0 L300 532 L937 0 Z " />
<glyph glyph-name="uni01CB" unicode="&#x1cb;" horiz-adv-x="2254" d="M937 0 L1083 0 L1208 700 L1054 700 L960 168 L324 700 L178 700 L53 0 L207 0 L300 532 L937 0 Z M1504 -4 L1805 -4 C2030 -4 2126 86 2154 244 L2210 560 L2074 560 L2019 260 C2001 164 1947 115 1813 115 L1513 115 C1409 115 1394 161 1404 220 L1413 269 L1278 269 L1269 220 C1247 97 1296 -4 1504 -4 L1504 -4 Z " />
<glyph glyph-name="uni01CC" unicode="&#x1cc;" horiz-adv-x="2081" d="M1332 -4 L1633 -4 C1858 -4 1954 86 1982 244 L2038 560 L1902 560 L1847 260 C1829 164 1775 115 1641 115 L1341 115 C1237 115 1222 161 1232 220 L1241 269 L1106 269 L1097 220 C1075 97 1124 -4 1332 -4 L1332 -4 Z M921 0 L1020 560 L883 560 L810 145 L272 560 L142 560 L43 0 L180 0 L253 415 L791 0 L921 0 Z " />
<glyph glyph-name="uni01CD" unicode="&#x1cd;" horiz-adv-x="1233" d="M990 0 L1170 0 L763 700 L602 700 L-55 0 L140 0 L250 119 L921 119 L990 0 Z M664 567 L848 246 L367 246 L664 567 Z M922 946 L821 946 L706 849 L626 946 L530 946 L608 775 L782 775 L922 946 Z " />
<glyph glyph-name="uni01CE" unicode="&#x1ce;" horiz-adv-x="1054" d="M827 0 L990 0 L640 560 L495 560 L-54 0 L120 0 L216 100 L765 100 L827 0 Z M552 448 L702 204 L317 204 L552 448 Z M807 806 L706 806 L591 709 L511 806 L415 806 L493 635 L667 635 L807 806 Z " />
<glyph glyph-name="uni01CF" unicode="&#x1cf;" horiz-adv-x="379" d="M53 0 L207 0 L332 700 L178 700 L53 0 Z M492 946 L391 946 L276 849 L196 946 L100 946 L178 775 L352 775 L492 946 Z " />
<glyph glyph-name="uni01D0" unicode="&#x1d0;" horiz-adv-x="342" d="M450 806 L349 806 L234 709 L154 806 L58 806 L136 635 L310 635 L450 806 Z M43 0 L180 0 L279 560 L142 560 L43 0 Z " />
<glyph glyph-name="uni01D1" unicode="&#x1d1;" horiz-adv-x="1293" d="M734 -10 C1097 -10 1235 180 1235 407 C1235 578 1128 710 856 710 L565 710 C203 710 62 521 62 295 C62 122 171 -10 443 -10 L734 -10 Z M472 130 C286 130 227 209 227 313 C227 435 295 570 555 570 L826 570 C1011 570 1070 491 1070 389 C1070 260 997 130 743 130 L472 130 Z M950 946 L849 946 L734 849 L654 946 L558 946 L636 775 L810 775 L950 946 Z " />
<glyph glyph-name="uni01D2" unicode="&#x1d2;" horiz-adv-x="1107" d="M621 -8 C926 -8 1039 152 1042 326 C1044 461 960 568 725 568 L465 568 C160 568 49 408 46 234 C43 99 126 -8 361 -8 L621 -8 Z M385 111 C233 111 191 171 191 247 C192 344 263 449 445 449 L703 449 C853 449 896 389 896 312 C896 219 825 111 642 111 L385 111 Z M833 806 L732 806 L617 709 L537 806 L441 806 L519 635 L693 635 L833 806 Z " />
<glyph glyph-name="uni01D3" unicode="&#x1d3;" horiz-adv-x="1223" d="M244 323 L313 700 L159 700 L90 323 C55 130 131 -10 420 -10 L698 -10 C980 -10 1092 116 1126 307 L1196 700 L1042 700 L976 333 C953 208 883 130 719 130 L437 130 C262 130 225 210 244 323 L244 323 Z M916 946 L815 946 L700 849 L620 946 L524 946 L602 775 L776 775 L916 946 Z " />
<glyph glyph-name="uni01D4" unicode="&#x1d4;" horiz-adv-x="1049" d="M205 258 L259 560 L123 560 L69 258 C41 104 90 -8 347 -8 L599 -8 C824 -8 920 83 948 240 L1005 560 L869 560 L814 256 C796 160 743 111 609 111 L370 111 C209 111 190 165 205 258 L205 258 Z M805 806 L704 806 L589 709 L509 806 L413 806 L491 635 L665 635 L805 806 Z " />
<glyph glyph-name="uni01D5" unicode="&#x1d5;" horiz-adv-x="1223" d="M244 323 L313 700 L159 700 L90 323 C55 130 131 -10 420 -10 L698 -10 C980 -10 1092 116 1126 307 L1196 700 L1042 700 L976 333 C953 208 883 130 719 130 L437 130 C262 130 225 210 244 323 L244 323 Z M542 999 L916 999 L934 1097 L560 1097 L542 999 Z M760 789 L899 789 L924 929 L785 929 L760 789 Z M480 789 L619 789 L644 929 L504 929 L480 789 Z " />
<glyph glyph-name="uni01D6" unicode="&#x1d6;" horiz-adv-x="1049" d="M205 258 L259 560 L123 560 L69 258 C41 104 90 -8 347 -8 L599 -8 C824 -8 920 83 948 240 L1005 560 L869 560 L814 256 C796 160 743 111 609 111 L370 111 C209 111 190 165 205 258 L205 258 Z M430 859 L804 859 L822 957 L448 957 L430 859 Z M649 649 L788 649 L813 789 L674 789 L649 649 Z M369 649 L508 649 L533 789 L393 789 L369 649 Z " />
<glyph glyph-name="uni01D7" unicode="&#x1d7;" horiz-adv-x="1223" d="M244 323 L313 700 L159 700 L90 323 C55 130 131 -10 420 -10 L698 -10 C980 -10 1092 116 1126 307 L1196 700 L1042 700 L976 333 C953 208 883 130 719 130 L437 130 C262 130 225 210 244 323 L244 323 Z M628 979 L733 979 L931 1150 L754 1150 L628 979 Z M760 789 L899 789 L924 929 L785 929 L760 789 Z M480 789 L619 789 L644 929 L504 929 L480 789 Z " />
<glyph glyph-name="uni01D8" unicode="&#x1d8;" horiz-adv-x="1049" d="M205 258 L259 560 L123 560 L69 258 C41 104 90 -8 347 -8 L599 -8 C824 -8 920 83 948 240 L1005 560 L869 560 L814 256 C796 160 743 111 609 111 L370 111 C209 111 190 165 205 258 L205 258 Z M517 839 L622 839 L820 1010 L643 1010 L517 839 Z M649 649 L788 649 L813 789 L674 789 L649 649 Z M369 649 L508 649 L533 789 L393 789 L369 649 Z " />
<glyph glyph-name="uni01D9" unicode="&#x1d9;" horiz-adv-x="1223" d="M244 323 L313 700 L159 700 L90 323 C55 130 131 -10 420 -10 L698 -10 C980 -10 1092 116 1126 307 L1196 700 L1042 700 L976 333 C953 208 883 130 719 130 L437 130 C262 130 225 210 244 323 L244 323 Z M952 1150 L851 1150 L736 1053 L656 1150 L560 1150 L638 979 L812 979 L952 1150 Z M760 789 L899 789 L924 929 L785 929 L760 789 Z M480 789 L619 789 L644 929 L504 929 L480 789 Z " />
<glyph glyph-name="uni01DA" unicode="&#x1da;" horiz-adv-x="1049" d="M205 258 L259 560 L123 560 L69 258 C41 104 90 -8 347 -8 L599 -8 C824 -8 920 83 948 240 L1005 560 L869 560 L814 256 C796 160 743 111 609 111 L370 111 C209 111 190 165 205 258 L205 258 Z M841 1010 L740 1010 L625 913 L545 1010 L449 1010 L527 839 L701 839 L841 1010 Z M649 649 L788 649 L813 789 L674 789 L649 649 Z M369 649 L508 649 L533 789 L393 789 L369 649 Z " />
<glyph glyph-name="uni01DB" unicode="&#x1db;" horiz-adv-x="1223" d="M244 323 L313 700 L159 700 L90 323 C55 130 131 -10 420 -10 L698 -10 C980 -10 1092 116 1126 307 L1196 700 L1042 700 L976 333 C953 208 883 130 719 130 L437 130 C262 130 225 210 244 323 L244 323 Z M750 1150 L586 1150 L719 979 L814 979 L750 1150 Z M760 789 L899 789 L924 929 L785 929 L760 789 Z M480 789 L619 789 L644 929 L504 929 L480 789 Z " />
<glyph glyph-name="uni01DC" unicode="&#x1dc;" horiz-adv-x="1049" d="M205 258 L259 560 L123 560 L69 258 C41 104 90 -8 347 -8 L599 -8 C824 -8 920 83 948 240 L1005 560 L869 560 L814 256 C796 160 743 111 609 111 L370 111 C209 111 190 165 205 258 L205 258 Z M639 1010 L475 1010 L608 839 L703 839 L639 1010 Z M649 649 L788 649 L813 789 L674 789 L649 649 Z M369 649 L508 649 L533 789 L393 789 L369 649 Z " />
<glyph glyph-name="uni01DD" unicode="&#x1dd;" horiz-adv-x="991" d="M927 560 L105 560 L83 441 L769 441 L750 332 L149 332 L129 228 L730 228 L713 119 L27 119 L6 0 L828 0 L927 560 Z " />
<glyph glyph-name="uni01DE" unicode="&#x1de;" horiz-adv-x="1233" d="M990 0 L1170 0 L763 700 L602 700 L-55 0 L140 0 L250 119 L921 119 L990 0 Z M664 567 L848 246 L367 246 L664 567 Z M547 999 L921 999 L939 1097 L565 1097 L547 999 Z M766 789 L905 789 L930 929 L791 929 L766 789 Z M486 789 L625 789 L650 929 L510 929 L486 789 Z " />
<glyph glyph-name="uni01DF" unicode="&#x1df;" horiz-adv-x="1054" d="M827 0 L990 0 L640 560 L495 560 L-54 0 L120 0 L216 100 L765 100 L827 0 Z M552 448 L702 204 L317 204 L552 448 Z M432 859 L806 859 L824 957 L450 957 L432 859 Z M651 649 L790 649 L815 789 L676 789 L651 649 Z M371 649 L510 649 L535 789 L395 789 L371 649 Z " />
<glyph glyph-name="uni01E0" unicode="&#x1e0;" horiz-adv-x="1233" d="M990 0 L1170 0 L763 700 L602 700 L-55 0 L140 0 L250 119 L921 119 L990 0 Z M664 567 L848 246 L367 246 L664 567 Z M547 999 L921 999 L939 1097 L565 1097 L547 999 Z M628 789 L766 789 L791 929 L653 929 L628 789 Z " />
<glyph glyph-name="uni01E1" unicode="&#x1e1;" horiz-adv-x="1054" d="M827 0 L990 0 L640 560 L495 560 L-54 0 L120 0 L216 100 L765 100 L827 0 Z M552 448 L702 204 L317 204 L552 448 Z M432 859 L806 859 L824 957 L450 957 L432 859 Z M513 649 L651 649 L676 789 L538 789 L513 649 Z " />
<glyph glyph-name="uni01E2" unicode="&#x1e2;" horiz-adv-x="1649" d="M673 116 L654 0 L1519 0 L1544 140 L833 140 L858 287 L1471 287 L1495 413 L882 413 L906 560 L1617 560 L1644 700 L697 700 L-55 0 L143 0 L265 116 L673 116 Z M399 242 L755 578 L697 242 L399 242 Z M846 811 L1220 811 L1238 909 L864 909 L846 811 Z " />
<glyph glyph-name="uni01E3" unicode="&#x1e3;" horiz-adv-x="1410" d="M565 91 L549 0 L1287 0 L1307 119 L707 119 L725 228 L1241 228 L1261 332 L745 332 L763 441 L1364 441 L1386 560 L576 560 L-54 0 L122 0 L223 91 L565 91 Z M339 195 L630 455 L584 195 L339 195 Z M712 671 L1086 671 L1104 769 L730 769 L712 671 Z " />
<glyph glyph-name="Gcaron" unicode="&#x1e6;" horiz-adv-x="1205" d="M623 287 L959 287 L933 140 L456 140 C279 140 227 217 227 315 C227 428 284 560 533 560 L1104 560 L1129 700 L546 700 C200 700 62 507 62 296 C62 130 163 0 431 0 L1057 0 L1130 413 L647 413 L623 287 Z M929 946 L828 946 L713 849 L633 946 L537 946 L615 775 L789 775 L929 946 Z " />
<glyph glyph-name="gcaron" unicode="&#x1e7;" horiz-adv-x="1035" d="M781 119 L368 119 C235 119 192 169 192 248 C192 347 270 441 446 441 L927 441 L948 560 L454 560 C153 560 46 400 46 232 C46 102 128 0 353 0 L894 0 L952 332 L540 332 L519 228 L799 228 L781 119 Z M808 806 L707 806 L592 709 L512 806 L416 806 L494 635 L668 635 L808 806 Z " />
<glyph glyph-name="uni01E8" unicode="&#x1e8;" horiz-adv-x="1245" d="M1223 700 L955 700 L259 301 L329 700 L178 700 L53 0 L204 0 L229 134 L540 311 L949 0 L1186 0 L673 387 L1223 700 Z M889 946 L788 946 L673 849 L593 946 L497 946 L575 775 L749 775 L889 946 Z " />
<glyph glyph-name="uni01E9" unicode="&#x1e9;" horiz-adv-x="1072" d="M1039 560 L791 560 L223 248 L279 560 L142 560 L43 0 L180 0 L198 102 L458 243 L795 0 L1009 0 L578 309 L1039 560 Z M782 806 L681 806 L566 709 L486 806 L390 806 L468 635 L642 635 L782 806 Z " />
<glyph glyph-name="uni01EA" unicode="&#x1ea;" horiz-adv-x="1293" d="M734 -10 C740 -10 746 -10 752 -9 C667 -45 587 -106 587 -190 C587 -244 634 -279 708 -279 C753 -279 799 -275 852 -256 L864 -188 C826 -203 808 -206 781 -206 C739 -206 713 -188 713 -152 C713 -87 780 -39 851 -2 C1127 34 1235 206 1235 407 C1235 578 1128 710 856 710 L565 710 C203 710 62 521 62 295 C62 122 171 -10 443 -10 L734 -10 Z M472 130 C286 130 227 209 227 313 C227 435 295 570 555 570 L826 570 C1011 570 1070 491 1070 389 C1070 260 997 130 743 130 L472 130 Z " />
<glyph glyph-name="uni01EB" unicode="&#x1eb;" horiz-adv-x="1107" d="M630 -8 C544 -43 461 -105 461 -190 C461 -244 508 -279 582 -279 C627 -279 673 -275 726 -256 L738 -188 C700 -203 682 -206 655 -206 C613 -206 587 -188 587 -152 C587 -86 657 -37 729 0 C953 33 1039 174 1042 326 C1044 461 960 568 725 568 L465 568 C160 568 49 408 46 234 C43 99 126 -8 361 -8 L630 -8 Z M385 111 C233 111 191 171 191 247 C192 344 263 449 445 449 L703 449 C853 449 896 389 896 312 C896 219 825 111 642 111 L385 111 Z " />
<glyph glyph-name="uni01EC" unicode="&#x1ec;" horiz-adv-x="1293" d="M734 -10 C740 -10 746 -10 752 -9 C667 -45 587 -106 587 -190 C587 -244 634 -279 708 -279 C753 -279 799 -275 852 -256 L864 -188 C826 -203 808 -206 781 -206 C739 -206 713 -188 713 -152 C713 -87 780 -39 851 -2 C1127 34 1235 206 1235 407 C1235 578 1128 710 856 710 L565 710 C203 710 62 521 62 295 C62 122 171 -10 443 -10 L734 -10 Z M472 130 C286 130 227 209 227 313 C227 435 295 570 555 570 L826 570 C1011 570 1070 491 1070 389 C1070 260 997 130 743 130 L472 130 Z M542 811 L916 811 L934 909 L560 909 L542 811 Z " />
<glyph glyph-name="uni01ED" unicode="&#x1ed;" horiz-adv-x="1107" d="M630 -8 C544 -43 461 -105 461 -190 C461 -244 508 -279 582 -279 C627 -279 673 -275 726 -256 L738 -188 C700 -203 682 -206 655 -206 C613 -206 587 -188 587 -152 C587 -86 657 -37 729 0 C953 33 1039 174 1042 326 C1044 461 960 568 725 568 L465 568 C160 568 49 408 46 234 C43 99 126 -8 361 -8 L630 -8 Z M385 111 C233 111 191 171 191 247 C192 344 263 449 445 449 L703 449 C853 449 896 389 896 312 C896 219 825 111 642 111 L385 111 Z M425 671 L799 671 L817 769 L443 769 L425 671 Z " />
<glyph glyph-name="uni01F0" unicode="&#x1f0;" horiz-adv-x="999" d="M249 -4 L550 -4 C775 -4 871 86 899 244 L955 560 L819 560 L764 260 C746 164 692 115 558 115 L258 115 C154 115 139 161 149 220 L158 269 L23 269 L14 220 C-8 97 41 -4 249 -4 L249 -4 Z M1102 806 L1001 806 L886 709 L806 806 L710 806 L788 635 L962 635 L1102 806 Z " />
<glyph glyph-name="uni01F1" unicode="&#x1f1;" horiz-adv-x="2355" d="M53 0 L662 0 C1006 0 1145 193 1145 404 C1145 570 1044 700 776 700 L178 700 L53 0 Z M751 560 C928 560 980 483 980 385 C980 272 922 140 674 140 L230 140 L304 560 L751 560 Z M1213 0 L2241 0 L2266 140 L1543 140 L2327 592 L2342 700 L1343 700 L1317 560 L2011 560 L1227 108 L1213 0 Z " />
<glyph glyph-name="uni01F2" unicode="&#x1f2;" horiz-adv-x="2189" d="M53 0 L662 0 C1006 0 1145 193 1145 404 C1145 570 1044 700 776 700 L178 700 L53 0 Z M751 560 C928 560 980 483 980 385 C980 272 922 140 674 140 L230 140 L304 560 L751 560 Z M1207 0 L2083 0 L2104 119 L1501 119 L2149 468 L2161 560 L1310 560 L1288 441 L1864 441 L1218 92 L1207 0 Z " />
<glyph glyph-name="uni01F3" unicode="&#x1f3;" horiz-adv-x="2021" d="M43 0 L563 0 C864 0 971 160 971 328 C971 457 888 560 664 560 L144 560 L43 0 Z M650 441 C783 441 825 391 825 312 C825 213 747 119 571 119 L202 119 L258 441 L650 441 Z M1039 0 L1915 0 L1936 119 L1333 119 L1981 468 L1993 560 L1142 560 L1120 441 L1696 441 L1050 92 L1039 0 Z " />
<glyph glyph-name="uni01F4" unicode="&#x1f4;" horiz-adv-x="1205" d="M623 287 L959 287 L933 140 L456 140 C279 140 227 217 227 315 C227 428 284 560 533 560 L1104 560 L1129 700 L546 700 C200 700 62 507 62 296 C62 130 163 0 431 0 L1057 0 L1130 413 L647 413 L623 287 Z M605 775 L710 775 L908 946 L731 946 L605 775 Z " />
<glyph glyph-name="uni01F5" unicode="&#x1f5;" horiz-adv-x="1035" d="M781 119 L368 119 C235 119 192 169 192 248 C192 347 270 441 446 441 L927 441 L948 560 L454 560 C153 560 46 400 46 232 C46 102 128 0 353 0 L894 0 L952 332 L540 332 L519 228 L799 228 L781 119 Z M484 635 L589 635 L787 806 L610 806 L484 635 Z " />
<glyph glyph-name="uni01F8" unicode="&#x1f8;" horiz-adv-x="1255" d="M937 0 L1083 0 L1208 700 L1054 700 L960 168 L324 700 L178 700 L53 0 L207 0 L300 532 L937 0 Z M730 946 L566 946 L699 775 L794 775 L730 946 Z " />
<glyph glyph-name="uni01F9" unicode="&#x1f9;" horiz-adv-x="1083" d="M921 0 L1020 560 L883 560 L810 145 L272 560 L142 560 L43 0 L180 0 L253 415 L791 0 L921 0 Z M620 806 L456 806 L589 635 L684 635 L620 806 Z " />
<glyph glyph-name="Aringacute" unicode="&#x1fa;" horiz-adv-x="1233" d="M990 0 L1170 0 L763 700 L602 700 L-55 0 L140 0 L250 119 L921 119 L990 0 Z M664 567 L848 246 L367 246 L664 567 Z M665 857 C665 883 688 904 714 904 C735 904 752 886 752 865 C752 838 728 818 704 818 C681 818 665 836 665 857 L665 857 Z M579 853 C578 792 624 745 697 745 C777 745 839 801 839 871 C839 931 792 977 721 977 C640 977 580 922 579 853 L579 853 Z M639 1010 L744 1010 L942 1181 L765 1181 L639 1010 Z " />
<glyph glyph-name="aringacute" unicode="&#x1fb;" horiz-adv-x="1054" d="M827 0 L990 0 L640 560 L495 560 L-54 0 L120 0 L216 100 L765 100 L827 0 Z M552 448 L702 204 L317 204 L552 448 Z M550 717 C550 743 573 764 599 764 C620 764 637 746 637 725 C637 698 613 678 589 678 C566 678 550 696 550 717 L550 717 Z M464 713 C463 652 509 605 582 605 C662 605 724 661 724 731 C724 791 677 837 606 837 C525 837 465 782 464 713 L464 713 Z M524 870 L629 870 L827 1041 L650 1041 L524 870 Z " />
<glyph glyph-name="AEacute" unicode="&#x1fc;" horiz-adv-x="1649" d="M673 116 L654 0 L1519 0 L1544 140 L833 140 L858 287 L1471 287 L1495 413 L882 413 L906 560 L1617 560 L1644 700 L697 700 L-55 0 L143 0 L265 116 L673 116 Z M399 242 L755 578 L697 242 L399 242 Z M930 775 L1035 775 L1233 946 L1056 946 L930 775 Z " />
<glyph glyph-name="aeacute" unicode="&#x1fd;" horiz-adv-x="1410" d="M565 91 L549 0 L1287 0 L1307 119 L707 119 L725 228 L1241 228 L1261 332 L745 332 L763 441 L1364 441 L1386 560 L576 560 L-54 0 L122 0 L223 91 L565 91 Z M339 195 L630 455 L584 195 L339 195 Z M796 635 L901 635 L1099 806 L922 806 L796 635 Z " />
<glyph glyph-name="Oslashacute" unicode="&#x1fe;" horiz-adv-x="1293" d="M626 775 L731 775 L929 946 L752 946 L626 775 Z M734 -10 C1097 -10 1235 180 1235 407 C1235 535 1175 640 1031 686 L1131 800 L955 800 L876 710 L565 710 C203 710 62 521 62 295 C62 165 122 59 267 14 L167 -100 L343 -100 L422 -10 L734 -10 Z M227 313 C227 435 295 570 555 570 L753 570 L376 139 C265 162 227 229 227 313 L227 313 Z M1070 389 C1070 260 997 130 743 130 L544 130 L922 561 C1032 537 1070 470 1070 389 L1070 389 Z " />
<glyph glyph-name="oslashacute" unicode="&#x1ff;" horiz-adv-x="1107" d="M505 635 L610 635 L808 806 L631 806 L505 635 Z M621 -8 C926 -8 1039 152 1042 326 C1043 429 995 515 867 551 L949 640 L794 640 L728 568 L465 568 C160 568 49 408 46 234 C43 131 91 45 217 9 L136 -80 L291 -80 L357 -8 L621 -8 Z M896 312 C896 219 825 111 642 111 L465 111 L770 444 C866 428 896 376 896 312 L896 312 Z M191 247 C192 344 263 449 445 449 L619 449 L315 116 C220 132 191 184 191 247 L191 247 Z " />
<glyph glyph-name="uni0200" unicode="&#x200;" horiz-adv-x="1233" d="M990 0 L1170 0 L763 700 L602 700 L-55 0 L140 0 L250 119 L921 119 L990 0 Z M664 567 L848 246 L367 246 L664 567 Z M828 946 L663 946 L797 775 L892 775 L828 946 Z M581 946 L417 946 L551 775 L646 775 L581 946 Z " />
<glyph glyph-name="uni0201" unicode="&#x201;" horiz-adv-x="1054" d="M827 0 L990 0 L640 560 L495 560 L-54 0 L120 0 L216 100 L765 100 L827 0 Z M552 448 L702 204 L317 204 L552 448 Z M713 806 L548 806 L682 635 L777 635 L713 806 Z M466 806 L302 806 L436 635 L531 635 L466 806 Z " />
<glyph glyph-name="uni0202" unicode="&#x202;" horiz-adv-x="1233" d="M990 0 L1170 0 L763 700 L602 700 L-55 0 L140 0 L250 119 L921 119 L990 0 Z M664 567 L848 246 L367 246 L664 567 Z M719 848 C784 848 805 817 801 777 L883 777 C893 854 874 943 734 943 C594 943 543 856 524 777 L609 777 C620 817 655 848 719 848 L719 848 Z " />
<glyph glyph-name="uni0203" unicode="&#x203;" horiz-adv-x="1054" d="M827 0 L990 0 L640 560 L495 560 L-54 0 L120 0 L216 100 L765 100 L827 0 Z M552 448 L702 204 L317 204 L552 448 Z M604 708 C669 708 690 677 686 637 L768 637 C778 714 759 803 619 803 C479 803 428 716 409 637 L494 637 C505 677 540 708 604 708 L604 708 Z " />
<glyph glyph-name="uni0204" unicode="&#x204;" horiz-adv-x="1150" d="M53 0 L1019 0 L1044 140 L232 140 L257 287 L971 287 L994 413 L280 413 L306 560 L1118 560 L1144 700 L178 700 L53 0 Z M795 946 L630 946 L764 775 L859 775 L795 946 Z M548 946 L384 946 L518 775 L613 775 L548 946 Z " />
<glyph glyph-name="uni0205" unicode="&#x205;" horiz-adv-x="991" d="M43 0 L865 0 L886 119 L201 119 L219 228 L820 228 L839 332 L239 332 L257 441 L943 441 L964 560 L142 560 L43 0 Z M692 806 L527 806 L661 635 L756 635 L692 806 Z M445 806 L281 806 L415 635 L510 635 L445 806 Z " />
<glyph glyph-name="uni0206" unicode="&#x206;" horiz-adv-x="1150" d="M53 0 L1019 0 L1044 140 L232 140 L257 287 L971 287 L994 413 L280 413 L306 560 L1118 560 L1144 700 L178 700 L53 0 Z M686 848 C751 848 772 817 768 777 L850 777 C860 854 841 943 701 943 C561 943 510 856 491 777 L576 777 C587 817 622 848 686 848 L686 848 Z " />
<glyph glyph-name="uni0207" unicode="&#x207;" horiz-adv-x="991" d="M43 0 L865 0 L886 119 L201 119 L219 228 L820 228 L839 332 L239 332 L257 441 L943 441 L964 560 L142 560 L43 0 Z M584 708 C649 708 670 677 666 637 L748 637 C758 714 739 803 599 803 C459 803 408 716 389 637 L474 637 C485 677 520 708 584 708 L584 708 Z " />
<glyph glyph-name="uni0208" unicode="&#x208;" horiz-adv-x="379" d="M53 0 L207 0 L332 700 L178 700 L53 0 Z M398 946 L233 946 L367 775 L462 775 L398 946 Z M151 946 L-13 946 L121 775 L216 775 L151 946 Z " />
<glyph glyph-name="uni0209" unicode="&#x209;" horiz-adv-x="342" d="M43 0 L180 0 L279 560 L142 560 L43 0 Z M356 806 L191 806 L325 635 L420 635 L356 806 Z M109 806 L-55 806 L79 635 L174 635 L109 806 Z " />
<glyph glyph-name="uni020A" unicode="&#x20a;" horiz-adv-x="379" d="M53 0 L207 0 L332 700 L178 700 L53 0 Z M290 848 C355 848 376 817 372 777 L454 777 C464 854 445 943 305 943 C165 943 114 856 95 777 L180 777 C191 817 226 848 290 848 L290 848 Z " />
<glyph glyph-name="uni020B" unicode="&#x20b;" horiz-adv-x="342" d="M43 0 L180 0 L279 560 L142 560 L43 0 Z M247 708 C312 708 333 677 329 637 L411 637 C421 714 402 803 262 803 C122 803 71 716 52 637 L137 637 C148 677 183 708 247 708 L247 708 Z " />
<glyph glyph-name="uni020C" unicode="&#x20c;" horiz-adv-x="1293" d="M734 -10 C1097 -10 1235 180 1235 407 C1235 578 1128 710 856 710 L565 710 C203 710 62 521 62 295 C62 122 171 -10 443 -10 L734 -10 Z M472 130 C286 130 227 209 227 313 C227 435 295 570 555 570 L826 570 C1011 570 1070 491 1070 389 C1070 260 997 130 743 130 L472 130 Z M856 946 L691 946 L825 775 L920 775 L856 946 Z M609 946 L445 946 L579 775 L674 775 L609 946 Z " />
<glyph glyph-name="uni020D" unicode="&#x20d;" horiz-adv-x="1107" d="M621 -8 C926 -8 1039 152 1042 326 C1044 461 960 568 725 568 L465 568 C160 568 49 408 46 234 C43 99 126 -8 361 -8 L621 -8 Z M385 111 C233 111 191 171 191 247 C192 344 263 449 445 449 L703 449 C853 449 896 389 896 312 C896 219 825 111 642 111 L385 111 Z M739 806 L574 806 L708 635 L803 635 L739 806 Z M492 806 L328 806 L462 635 L557 635 L492 806 Z " />
<glyph glyph-name="uni020E" unicode="&#x20e;" horiz-adv-x="1293" d="M734 -10 C1097 -10 1235 180 1235 407 C1235 578 1128 710 856 710 L565 710 C203 710 62 521 62 295 C62 122 171 -10 443 -10 L734 -10 Z M472 130 C286 130 227 209 227 313 C227 435 295 570 555 570 L826 570 C1011 570 1070 491 1070 389 C1070 260 997 130 743 130 L472 130 Z M748 848 C813 848 834 817 830 777 L912 777 C922 854 903 943 763 943 C623 943 572 856 553 777 L638 777 C649 817 684 848 748 848 L748 848 Z " />
<glyph glyph-name="uni020F" unicode="&#x20f;" horiz-adv-x="1107" d="M621 -8 C926 -8 1039 152 1042 326 C1044 461 960 568 725 568 L465 568 C160 568 49 408 46 234 C43 99 126 -8 361 -8 L621 -8 Z M385 111 C233 111 191 171 191 247 C192 344 263 449 445 449 L703 449 C853 449 896 389 896 312 C896 219 825 111 642 111 L385 111 Z M631 708 C696 708 717 677 713 637 L795 637 C805 714 786 803 646 803 C506 803 455 716 436 637 L521 637 C532 677 567 708 631 708 L631 708 Z " />
<glyph glyph-name="uni0210" unicode="&#x210;" horiz-adv-x="1228" d="M53 0 L204 0 L248 243 L612 243 L934 0 L1168 0 L828 245 C1047 250 1140 365 1140 507 C1140 615 1073 700 895 700 L178 700 L53 0 Z M866 560 C953 560 978 527 978 485 C978 427 939 377 830 377 L272 377 L304 560 L866 560 Z M788 946 L623 946 L757 775 L852 775 L788 946 Z M541 946 L377 946 L511 775 L606 775 L541 946 Z " />
<glyph glyph-name="uni0211" unicode="&#x211;" horiz-adv-x="1061" d="M43 0 L180 0 L213 191 L521 191 L783 0 L993 0 L714 193 C897 200 964 299 964 404 C964 490 910 560 758 560 L144 560 L43 0 Z M731 441 C803 441 819 415 819 385 C819 347 798 305 706 305 L234 305 L258 441 L731 441 Z M685 806 L520 806 L654 635 L749 635 L685 806 Z M438 806 L274 806 L408 635 L503 635 L438 806 Z " />
<glyph glyph-name="uni0212" unicode="&#x212;" horiz-adv-x="1228" d="M53 0 L204 0 L248 243 L612 243 L934 0 L1168 0 L828 245 C1047 250 1140 365 1140 507 C1140 615 1073 700 895 700 L178 700 L53 0 Z M866 560 C953 560 978 527 978 485 C978 427 939 377 830 377 L272 377 L304 560 L866 560 Z M680 848 C745 848 766 817 762 777 L844 777 C854 854 835 943 695 943 C555 943 504 856 485 777 L570 777 C581 817 616 848 680 848 L680 848 Z " />
<glyph glyph-name="uni0213" unicode="&#x213;" horiz-adv-x="1061" d="M43 0 L180 0 L213 191 L521 191 L783 0 L993 0 L714 193 C897 200 964 299 964 404 C964 490 910 560 758 560 L144 560 L43 0 Z M731 441 C803 441 819 415 819 385 C819 347 798 305 706 305 L234 305 L258 441 L731 441 Z M577 708 C642 708 663 677 659 637 L741 637 C751 714 732 803 592 803 C452 803 401 716 382 637 L467 637 C478 677 513 708 577 708 L577 708 Z " />
<glyph glyph-name="uni0214" unicode="&#x214;" horiz-adv-x="1223" d="M244 323 L313 700 L159 700 L90 323 C55 130 131 -10 420 -10 L698 -10 C980 -10 1092 116 1126 307 L1196 700 L1042 700 L976 333 C953 208 883 130 719 130 L437 130 C262 130 225 210 244 323 L244 323 Z M821 946 L656 946 L790 775 L885 775 L821 946 Z M574 946 L410 946 L544 775 L639 775 L574 946 Z " />
<glyph glyph-name="uni0215" unicode="&#x215;" horiz-adv-x="1049" d="M205 258 L259 560 L123 560 L69 258 C41 104 90 -8 347 -8 L599 -8 C824 -8 920 83 948 240 L1005 560 L869 560 L814 256 C796 160 743 111 609 111 L370 111 C209 111 190 165 205 258 L205 258 Z M710 806 L545 806 L679 635 L774 635 L710 806 Z M463 806 L299 806 L433 635 L528 635 L463 806 Z " />
<glyph glyph-name="uni0216" unicode="&#x216;" horiz-adv-x="1223" d="M244 323 L313 700 L159 700 L90 323 C55 130 131 -10 420 -10 L698 -10 C980 -10 1092 116 1126 307 L1196 700 L1042 700 L976 333 C953 208 883 130 719 130 L437 130 C262 130 225 210 244 323 L244 323 Z M713 848 C778 848 799 817 795 777 L877 777 C887 854 868 943 728 943 C588 943 537 856 518 777 L603 777 C614 817 649 848 713 848 L713 848 Z " />
<glyph glyph-name="uni0217" unicode="&#x217;" horiz-adv-x="1049" d="M205 258 L259 560 L123 560 L69 258 C41 104 90 -8 347 -8 L599 -8 C824 -8 920 83 948 240 L1005 560 L869 560 L814 256 C796 160 743 111 609 111 L370 111 C209 111 190 165 205 258 L205 258 Z M602 708 C667 708 688 677 684 637 L766 637 C776 714 757 803 617 803 C477 803 426 716 407 637 L492 637 C503 677 538 708 602 708 L602 708 Z " />
<glyph glyph-name="uni0218" unicode="&#x218;" horiz-adv-x="1158" d="M798 140 L69 140 L43 0 L777 0 C988 0 1075 108 1075 238 C1075 338 1012 413 850 413 L340 413 C269 413 253 442 253 475 C253 519 280 560 366 560 L1095 560 L1121 700 L387 700 C176 700 89 592 89 462 C89 362 152 287 313 287 L824 287 C895 287 912 258 912 225 C912 181 884 140 798 140 L798 140 Z M411 -232 L459 -232 L371 -359 L437 -359 L548 -220 L571 -92 L436 -92 L411 -232 Z " />
<glyph glyph-name="uni0219" unicode="&#x219;" horiz-adv-x="990" d="M673 119 L52 119 L30 0 L659 0 C845 0 906 91 906 194 C906 272 855 330 719 330 L277 330 C222 330 208 352 208 376 C208 408 227 441 297 441 L918 441 L941 560 L312 560 C125 560 65 469 65 367 C65 288 115 230 252 230 L693 230 C748 230 763 208 763 184 C763 153 743 119 673 119 L673 119 Z M326 -232 L374 -232 L286 -359 L352 -359 L463 -220 L486 -92 L351 -92 L326 -232 Z " />
<glyph glyph-name="uni021A" unicode="&#x21a;" horiz-adv-x="1136" d="M64 560 L531 560 L431 0 L585 0 L685 560 L1152 560 L1177 700 L90 700 L64 560 Z M400 -232 L448 -232 L360 -359 L426 -359 L537 -220 L560 -92 L425 -92 L400 -232 Z " />
<glyph glyph-name="uni021B" unicode="&#x21b;" horiz-adv-x="997" d="M54 441 L448 441 L371 0 L508 0 L585 441 L979 441 L1001 560 L76 560 L54 441 Z M330 -232 L378 -232 L290 -359 L356 -359 L467 -220 L490 -92 L355 -92 L330 -232 Z " />
<glyph glyph-name="uni021E" unicode="&#x21e;" horiz-adv-x="1252" d="M926 0 L1080 0 L1205 700 L1051 700 L1001 420 L281 420 L332 700 L178 700 L53 0 L207 0 L255 280 L975 280 L926 0 Z M930 946 L829 946 L714 849 L634 946 L538 946 L616 775 L790 775 L930 946 Z " />
<glyph glyph-name="uni021F" unicode="&#x21f;" horiz-adv-x="1080" d="M781 0 L918 0 L1017 560 L880 560 L841 340 L241 340 L279 560 L142 560 L43 0 L180 0 L218 220 L818 220 L781 0 Z M820 806 L719 806 L604 709 L524 806 L428 806 L506 635 L680 635 L820 806 Z " />
<glyph glyph-name="uni0226" unicode="&#x226;" horiz-adv-x="1233" d="M990 0 L1170 0 L763 700 L602 700 L-55 0 L140 0 L250 119 L921 119 L990 0 Z M664 567 L848 246 L367 246 L664 567 Z M628 789 L766 789 L791 929 L653 929 L628 789 Z " />
<glyph glyph-name="uni0227" unicode="&#x227;" horiz-adv-x="1054" d="M827 0 L990 0 L640 560 L495 560 L-54 0 L120 0 L216 100 L765 100 L827 0 Z M552 448 L702 204 L317 204 L552 448 Z M513 649 L651 649 L676 789 L538 789 L513 649 Z " />
<glyph glyph-name="uni0228" unicode="&#x228;" horiz-adv-x="1150" d="M53 0 L493 0 L435 -131 L472 -131 C518 -131 542 -139 542 -165 C542 -207 491 -216 443 -216 C408 -216 375 -205 360 -193 L346 -260 C372 -274 417 -288 466 -288 C553 -287 646 -261 646 -158 C646 -90 578 -65 515 -71 L548 0 L1019 0 L1044 140 L232 140 L257 287 L971 287 L994 413 L280 413 L306 560 L1118 560 L1144 700 L178 700 L53 0 Z " />
<glyph glyph-name="uni0229" unicode="&#x229;" horiz-adv-x="991" d="M43 0 L414 0 L356 -131 L393 -131 C439 -131 463 -139 463 -165 C463 -207 412 -216 364 -216 C329 -216 296 -205 281 -193 L267 -260 C293 -274 338 -288 387 -288 C474 -287 567 -261 567 -158 C567 -90 499 -65 436 -71 L469 0 L865 0 L886 119 L201 119 L219 228 L820 228 L839 332 L239 332 L257 441 L943 441 L964 560 L142 560 L43 0 Z " />
<glyph glyph-name="uni022A" unicode="&#x22a;" horiz-adv-x="1293" d="M734 -10 C1097 -10 1235 180 1235 407 C1235 578 1128 710 856 710 L565 710 C203 710 62 521 62 295 C62 122 171 -10 443 -10 L734 -10 Z M472 130 C286 130 227 209 227 313 C227 435 295 570 555 570 L826 570 C1011 570 1070 491 1070 389 C1070 260 997 130 743 130 L472 130 Z M576 999 L950 999 L968 1097 L594 1097 L576 999 Z M794 789 L933 789 L958 929 L819 929 L794 789 Z M514 789 L653 789 L678 929 L538 929 L514 789 Z " />
<glyph glyph-name="uni022B" unicode="&#x22b;" horiz-adv-x="1107" d="M621 -8 C926 -8 1039 152 1042 326 C1044 461 960 568 725 568 L465 568 C160 568 49 408 46 234 C43 99 126 -8 361 -8 L621 -8 Z M385 111 C233 111 191 171 191 247 C192 344 263 449 445 449 L703 449 C853 449 896 389 896 312 C896 219 825 111 642 111 L385 111 Z M458 859 L832 859 L850 957 L476 957 L458 859 Z M677 649 L816 649 L841 789 L702 789 L677 649 Z M397 649 L536 649 L561 789 L421 789 L397 649 Z " />
<glyph glyph-name="uni022C" unicode="&#x22c;" horiz-adv-x="1293" d="M734 -10 C1097 -10 1235 180 1235 407 C1235 578 1128 710 856 710 L565 710 C203 710 62 521 62 295 C62 122 171 -10 443 -10 L734 -10 Z M472 130 C286 130 227 209 227 313 C227 435 295 570 555 570 L826 570 C1011 570 1070 491 1070 389 C1070 260 997 130 743 130 L472 130 Z M856 942 C847 902 833 890 812 890 C777 890 741 936 680 936 C616 936 568 896 543 778 L618 778 C626 817 639 831 662 831 C696 831 732 784 792 784 C857 784 905 823 931 942 L856 942 Z M576 1001 L950 1001 L968 1099 L594 1099 L576 1001 Z " />
<glyph glyph-name="uni022D" unicode="&#x22d;" horiz-adv-x="1107" d="M621 -8 C926 -8 1039 152 1042 326 C1044 461 960 568 725 568 L465 568 C160 568 49 408 46 234 C43 99 126 -8 361 -8 L621 -8 Z M385 111 C233 111 191 171 191 247 C192 344 263 449 445 449 L703 449 C853 449 896 389 896 312 C896 219 825 111 642 111 L385 111 Z M739 802 C730 762 716 750 695 750 C660 750 624 796 563 796 C499 796 451 756 426 638 L501 638 C509 677 522 691 545 691 C579 691 615 644 675 644 C740 644 788 683 814 802 L739 802 Z M458 861 L832 861 L850 959 L476 959 L458 861 Z " />
<glyph glyph-name="uni022E" unicode="&#x22e;" horiz-adv-x="1293" d="M734 -10 C1097 -10 1235 180 1235 407 C1235 578 1128 710 856 710 L565 710 C203 710 62 521 62 295 C62 122 171 -10 443 -10 L734 -10 Z M472 130 C286 130 227 209 227 313 C227 435 295 570 555 570 L826 570 C1011 570 1070 491 1070 389 C1070 260 997 130 743 130 L472 130 Z M656 789 L794 789 L819 929 L681 929 L656 789 Z " />
<glyph glyph-name="uni022F" unicode="&#x22f;" horiz-adv-x="1107" d="M621 -8 C926 -8 1039 152 1042 326 C1044 461 960 568 725 568 L465 568 C160 568 49 408 46 234 C43 99 126 -8 361 -8 L621 -8 Z M385 111 C233 111 191 171 191 247 C192 344 263 449 445 449 L703 449 C853 449 896 389 896 312 C896 219 825 111 642 111 L385 111 Z M539 649 L677 649 L702 789 L564 789 L539 649 Z " />
<glyph glyph-name="uni0230" unicode="&#x230;" horiz-adv-x="1293" d="M734 -10 C1097 -10 1235 180 1235 407 C1235 578 1128 710 856 710 L565 710 C203 710 62 521 62 295 C62 122 171 -10 443 -10 L734 -10 Z M472 130 C286 130 227 209 227 313 C227 435 295 570 555 570 L826 570 C1011 570 1070 491 1070 389 C1070 260 997 130 743 130 L472 130 Z M576 999 L950 999 L968 1097 L594 1097 L576 999 Z M656 789 L794 789 L819 929 L681 929 L656 789 Z " />
<glyph glyph-name="uni0231" unicode="&#x231;" horiz-adv-x="1107" d="M621 -8 C926 -8 1039 152 1042 326 C1044 461 960 568 725 568 L465 568 C160 568 49 408 46 234 C43 99 126 -8 361 -8 L621 -8 Z M385 111 C233 111 191 171 191 247 C192 344 263 449 445 449 L703 449 C853 449 896 389 896 312 C896 219 825 111 642 111 L385 111 Z M458 859 L832 859 L850 957 L476 957 L458 859 Z M539 649 L677 649 L702 789 L564 789 L539 649 Z " />
<glyph glyph-name="uni0232" unicode="&#x232;" horiz-adv-x="1203" d="M465 0 L619 0 L656 213 L1274 700 L1039 700 L594 333 L275 700 L61 700 L502 213 L465 0 Z M497 811 L871 811 L889 909 L515 909 L497 811 Z " />
<glyph glyph-name="uni0233" unicode="&#x233;" horiz-adv-x="1023" d="M384 0 L521 0 L551 171 L1067 560 L859 560 L493 272 L225 560 L35 560 L414 171 L384 0 Z M383 671 L757 671 L775 769 L401 769 L383 671 Z " />
<glyph glyph-name="uni0237" unicode="&#x237;" horiz-adv-x="999" d="M249 -4 L550 -4 C775 -4 871 86 899 244 L955 560 L819 560 L764 260 C746 164 692 115 558 115 L258 115 C154 115 139 161 149 220 L158 269 L23 269 L14 220 C-8 97 41 -4 249 -4 L249 -4 Z " />
<glyph glyph-name="uni0256" unicode="&#x256;" horiz-adv-x="1036" d="M-33 228 L84 228 L43 0 L563 0 C864 0 971 160 971 328 C971 457 888 560 664 560 L144 560 L103 332 L-13 332 L-33 228 Z M650 441 C783 441 825 391 825 312 C825 213 747 119 571 119 L202 119 L221 228 L526 228 L545 332 L239 332 L258 441 L650 441 Z " />
<glyph glyph-name="uni02BB" unicode="&#x2bb;" horiz-adv-x="329" d="M284 549 L215 549 L311 700 L243 700 L124 537 L97 391 L254 391 L284 549 Z " />
<glyph glyph-name="uni02BC" unicode="&#x2bc;" horiz-adv-x="329" d="M125 542 L193 542 L97 391 L165 391 L284 554 L311 700 L154 700 L125 542 Z " />
<glyph glyph-name="uni02BD" unicode="&#x2bd;" horiz-adv-x="329" d="M311 700 L154 700 L126 554 L186 391 L254 391 L215 542 L282 542 L311 700 Z " />
<glyph glyph-name="circumflex" unicode="&#x2c6;" horiz-adv-x="480" d="M95 635 L196 635 L311 732 L391 635 L487 635 L409 806 L235 806 L95 635 Z " />
<glyph glyph-name="caron" unicode="&#x2c7;" horiz-adv-x="480" d="M520 806 L419 806 L304 709 L224 806 L128 806 L206 635 L380 635 L520 806 Z " />
<glyph glyph-name="uni02C9" unicode="&#x2c9;" horiz-adv-x="480" d="M112 671 L486 671 L504 769 L130 769 L112 671 Z " />
<glyph glyph-name="uni02CA" unicode="&#x2ca;" horiz-adv-x="480" d="M196 635 L301 635 L499 806 L322 806 L196 635 Z " />
<glyph glyph-name="uni02CB" unicode="&#x2cb;" horiz-adv-x="480" d="M318 806 L154 806 L287 635 L382 635 L318 806 Z " />
<glyph glyph-name="uni02CD" unicode="&#x2cd;" horiz-adv-x="480" d="M-43 -210 L331 -210 L349 -112 L-25 -112 L-43 -210 Z " />
<glyph glyph-name="uni02CE" unicode="&#x2ce;" horiz-adv-x="480" d="M163 -75 L-1 -75 L132 -246 L227 -246 L163 -75 Z " />
<glyph glyph-name="uni02CF" unicode="&#x2cf;" horiz-adv-x="480" d="M41 -246 L146 -246 L344 -75 L167 -75 L41 -246 Z " />
<glyph glyph-name="breve" unicode="&#x2d8;" horiz-adv-x="480" d="M307 732 C242 732 221 763 225 803 L143 803 C133 726 152 637 292 637 C432 637 483 724 502 803 L417 803 C406 763 371 732 307 732 L307 732 Z " />
<glyph glyph-name="dotaccent" unicode="&#x2d9;" horiz-adv-x="480" d="M226 649 L364 649 L389 789 L251 789 L226 649 Z " />
<glyph glyph-name="ring" unicode="&#x2da;" horiz-adv-x="480" d="M263 717 C263 743 286 764 312 764 C333 764 350 746 350 725 C350 698 326 678 302 678 C279 678 263 696 263 717 L263 717 Z M177 713 C176 652 222 605 295 605 C375 605 437 661 437 731 C437 791 390 837 319 837 C238 837 178 782 177 713 L177 713 Z " />
<glyph glyph-name="ogonek" unicode="&#x2db;" horiz-adv-x="480" d="M41 -190 C41 -244 88 -279 162 -279 C207 -279 253 -275 306 -256 L318 -188 C280 -203 262 -206 235 -206 C193 -206 167 -188 167 -152 C167 -86 238 -37 310 0 L231 0 C138 -34 41 -98 41 -190 L41 -190 Z " />
<glyph glyph-name="tilde" unicode="&#x2dc;" horiz-adv-x="480" d="M426 802 C417 762 403 750 382 750 C347 750 311 796 250 796 C186 796 138 756 113 638 L188 638 C196 677 209 691 232 691 C266 691 302 644 362 644 C427 644 475 683 501 802 L426 802 Z " />
<glyph glyph-name="hungarumlaut" unicode="&#x2dd;" horiz-adv-x="480" d="M333 635 L437 635 L633 806 L459 806 L333 635 Z M66 635 L170 635 L367 806 L193 806 L66 635 Z " />
<glyph glyph-name="uni02EC" unicode="&#x2ec;" horiz-adv-x="480" d="M365 -75 L264 -75 L149 -172 L69 -75 L-27 -75 L51 -246 L225 -246 L365 -75 Z " />
<glyph glyph-name="uni02EE" unicode="&#x2ee;" horiz-adv-x="587" d="M124 542 L191 542 L96 391 L164 391 L283 554 L311 700 L152 700 L124 542 Z M387 542 L454 542 L358 391 L426 391 L546 554 L572 700 L415 700 L387 542 Z " />
<glyph glyph-name="gravecomb" unicode="&#x300;" d="M-497 806 L-661 806 L-528 635 L-433 635 L-497 806 Z " />
<glyph glyph-name="acutecomb" unicode="&#x301;" d="M-619 635 L-514 635 L-316 806 L-493 806 L-619 635 Z " />
<glyph glyph-name="uni0302" unicode="&#x302;" d="M-720 635 L-619 635 L-504 732 L-424 635 L-328 635 L-406 806 L-580 806 L-720 635 Z " />
<glyph glyph-name="tildecomb" unicode="&#x303;" d="M-389 802 C-398 762 -412 750 -433 750 C-468 750 -504 796 -565 796 C-629 796 -677 756 -702 638 L-627 638 C-619 677 -606 691 -583 691 C-549 691 -513 644 -453 644 C-388 644 -340 683 -314 802 L-389 802 Z " />
<glyph glyph-name="uni0304" unicode="&#x304;" d="M-703 671 L-329 671 L-311 769 L-685 769 L-703 671 Z " />
<glyph glyph-name="uni0306" unicode="&#x306;" d="M-509 732 C-574 732 -595 763 -591 803 L-673 803 C-683 726 -664 637 -524 637 C-384 637 -333 724 -314 803 L-399 803 C-410 763 -445 732 -509 732 L-509 732 Z " />
<glyph glyph-name="uni0307" unicode="&#x307;" d="M-589 649 L-451 649 L-426 789 L-564 789 L-589 649 Z " />
<glyph glyph-name="uni0308" unicode="&#x308;" d="M-452 649 L-313 649 L-288 789 L-427 789 L-452 649 Z M-732 649 L-593 649 L-568 789 L-708 789 L-732 649 Z " />
<glyph glyph-name="hookabovecomb" unicode="&#x309;" d="M-588 616 L-517 616 L-510 659 L-507 659 C-422 659 -330 678 -330 779 C-330 848 -395 864 -466 864 C-521 864 -581 853 -616 838 L-628 768 C-603 780 -560 791 -519 791 C-478 791 -443 786 -443 757 C-443 724 -468 714 -530 714 L-570 714 L-588 616 Z " />
<glyph glyph-name="uni030A" unicode="&#x30a;" d="M-552 717 C-552 743 -529 764 -503 764 C-482 764 -465 746 -465 725 C-465 698 -489 678 -513 678 C-536 678 -552 696 -552 717 L-552 717 Z M-638 713 C-639 652 -593 605 -520 605 C-440 605 -378 661 -378 731 C-378 791 -425 837 -496 837 C-577 837 -637 782 -638 713 L-638 713 Z " />
<glyph glyph-name="uni030B" unicode="&#x30b;" d="M-483 635 L-379 635 L-183 806 L-357 806 L-483 635 Z M-750 635 L-646 635 L-449 806 L-623 806 L-750 635 Z " />
<glyph glyph-name="uni030C" unicode="&#x30c;" d="M-295 806 L-396 806 L-511 709 L-591 806 L-687 806 L-609 635 L-435 635 L-295 806 Z " />
<glyph glyph-name="uni030F" unicode="&#x30f;" d="M-391 806 L-555 806 L-421 635 L-326 635 L-391 806 Z M-637 806 L-801 806 L-668 635 L-572 635 L-637 806 Z " />
<glyph glyph-name="uni0311" unicode="&#x311;" d="M-508 709 C-444 709 -422 678 -426 638 L-344 638 C-334 717 -353 804 -493 804 C-634 804 -686 717 -703 638 L-617 638 C-606 678 -572 709 -508 709 L-508 709 Z " />
<glyph glyph-name="uni0312" unicode="&#x312;" d="M-344 549 L-411 549 L-316 700 L-384 700 L-503 537 L-531 391 L-372 391 L-344 549 Z " />
<glyph glyph-name="uni0313" unicode="&#x313;" d="M-616 542 L-549 542 L-644 391 L-576 391 L-457 554 L-429 700 L-588 700 L-616 542 Z " />
<glyph glyph-name="uni0314" unicode="&#x314;" d="M-315 700 L-474 700 L-499 554 L-440 391 L-372 391 L-412 542 L-345 542 L-315 700 Z " />
<glyph glyph-name="uni0316" unicode="&#x316;" d="M-652 -75 L-816 -75 L-683 -246 L-588 -246 L-652 -75 Z " />
<glyph glyph-name="uni0317" unicode="&#x317;" d="M-774 -246 L-669 -246 L-471 -75 L-648 -75 L-774 -246 Z " />
<glyph glyph-name="uni031B" unicode="&#x31b;" d="M-103 482 L-16 482 C82 482 165 503 186 624 C189 642 191 663 191 686 L52 686 C52 666 50 649 47 635 C36 571 3 560 -42 560 L-90 560 L-103 482 Z " />
<glyph glyph-name="uni031C" unicode="&#x31c;" d="M-596 -44 C-670 -44 -729 -95 -741 -160 C-752 -225 -711 -276 -637 -276 L-624 -203 C-647 -203 -663 -184 -659 -160 C-654 -136 -632 -117 -608 -117 L-596 -44 Z " />
<glyph glyph-name="dotbelowcomb" unicode="&#x323;" d="M-744 -232 L-606 -232 L-581 -92 L-719 -92 L-744 -232 Z " />
<glyph glyph-name="uni0324" unicode="&#x324;" d="M-607 -232 L-468 -232 L-443 -92 L-582 -92 L-607 -232 Z M-887 -232 L-748 -232 L-723 -92 L-863 -92 L-887 -232 Z " />
<glyph glyph-name="uni0325" unicode="&#x325;" d="M-707 -164 C-707 -138 -684 -117 -658 -117 C-637 -117 -620 -135 -620 -156 C-620 -183 -644 -203 -668 -203 C-691 -203 -707 -185 -707 -164 L-707 -164 Z M-793 -168 C-794 -229 -748 -276 -675 -276 C-595 -276 -533 -220 -533 -150 C-533 -90 -580 -44 -651 -44 C-732 -44 -792 -99 -793 -168 L-793 -168 Z " />
<glyph glyph-name="uni0326" unicode="&#x326;" d="M-740 -232 L-692 -232 L-780 -359 L-714 -359 L-603 -220 L-580 -92 L-715 -92 L-740 -232 Z " />
<glyph glyph-name="uni0327" unicode="&#x327;" d="M-727 -131 L-690 -131 C-644 -131 -620 -139 -620 -165 C-620 -207 -671 -216 -719 -216 C-754 -216 -787 -205 -802 -193 L-816 -260 C-790 -274 -745 -288 -696 -288 C-609 -287 -516 -261 -516 -158 C-516 -90 -584 -65 -647 -71 L-614 0 L-669 0 L-727 -131 Z " />
<glyph glyph-name="uni0328" unicode="&#x328;" d="M-774 -190 C-774 -244 -727 -279 -653 -279 C-608 -279 -562 -275 -509 -256 L-497 -188 C-535 -203 -553 -206 -580 -206 C-622 -206 -648 -188 -648 -152 C-648 -86 -577 -37 -505 0 L-584 0 C-677 -34 -774 -98 -774 -190 L-774 -190 Z " />
<glyph glyph-name="uni032C" unicode="&#x32c;" d="M-450 -75 L-551 -75 L-666 -172 L-746 -75 L-842 -75 L-764 -246 L-590 -246 L-450 -75 Z " />
<glyph glyph-name="uni032D" unicode="&#x32d;" d="M-875 -246 L-774 -246 L-659 -149 L-579 -246 L-483 -246 L-561 -75 L-735 -75 L-875 -246 Z " />
<glyph glyph-name="uni032E" unicode="&#x32e;" d="M-664 -149 C-729 -149 -750 -118 -746 -78 L-828 -78 C-838 -155 -819 -244 -679 -244 C-539 -244 -488 -157 -469 -78 L-554 -78 C-565 -118 -600 -149 -664 -149 L-664 -149 Z " />
<glyph glyph-name="uni032F" unicode="&#x32f;" d="M-665 -173 C-601 -173 -578 -203 -581 -243 L-499 -243 C-488 -164 -510 -77 -650 -77 C-791 -77 -840 -164 -860 -243 L-772 -243 C-761 -203 -729 -173 -665 -173 L-665 -173 Z " />
<glyph glyph-name="uni0330" unicode="&#x330;" d="M-544 -79 C-553 -119 -567 -131 -588 -131 C-623 -131 -659 -85 -720 -85 C-784 -85 -832 -125 -857 -243 L-782 -243 C-774 -204 -761 -190 -738 -190 C-704 -190 -668 -237 -608 -237 C-543 -237 -495 -198 -469 -79 L-544 -79 Z " />
<glyph glyph-name="uni0331" unicode="&#x331;" d="M-858 -210 L-484 -210 L-466 -112 L-840 -112 L-858 -210 Z " />
<glyph glyph-name="uni0338" unicode="&#x338;" d="M-958 -76 L-822 -76 L-186 777 L-324 777 L-958 -76 Z " />
<glyph glyph-name="uni0339" unicode="&#x339;" d="M-704 -117 C-681 -117 -666 -136 -671 -160 C-674 -184 -697 -203 -720 -203 L-733 -276 C-660 -276 -599 -225 -588 -160 C-577 -95 -619 -44 -692 -44 L-704 -117 Z " />
<glyph glyph-name="uni0340" unicode="&#x340;" d="M-497 806 L-661 806 L-528 635 L-433 635 L-497 806 Z " />
<glyph glyph-name="uni0341" unicode="&#x341;" d="M-619 635 L-514 635 L-316 806 L-493 806 L-619 635 Z " />
<glyph glyph-name="uni0343" unicode="&#x343;" d="M-616 542 L-549 542 L-644 391 L-576 391 L-457 554 L-429 700 L-588 700 L-616 542 Z " />
<glyph glyph-name="uni0344" unicode="&#x344;" d="M-378 653 L-242 653 L-217 789 L-353 789 L-378 653 Z M-798 653 L-662 653 L-637 789 L-773 789 L-798 653 Z M-556 635 L-490 635 L-411 835 L-562 835 L-556 635 Z " />
<glyph glyph-name="uni034F" unicode="&#x34f;" d="" />
<glyph glyph-name="uni0351" unicode="&#x351;" d="M-441 837 C-515 837 -574 786 -585 721 C-597 656 -555 605 -481 605 L-469 678 C-492 678 -508 697 -503 721 C-499 745 -477 764 -453 764 L-441 837 Z " />
<glyph glyph-name="uni0357" unicode="&#x357;" d="M-549 764 C-526 764 -511 745 -515 721 C-519 697 -542 678 -565 678 L-577 605 C-504 605 -444 656 -432 721 C-422 786 -464 837 -537 837 L-549 764 Z " />
<glyph glyph-name="uni0374" unicode="&#x374;" horiz-adv-x="334" d="M110 400 L215 400 L362 700 L185 700 L110 400 Z " />
<glyph glyph-name="uni0375" unicode="&#x375;" horiz-adv-x="334" d="M22 -100 L127 -100 L274 200 L97 200 L22 -100 Z " />
<glyph glyph-name="uni037E" unicode="&#x37e;" horiz-adv-x="329" d="M29 0 L96 0 L1 -151 L69 -151 L188 12 L216 158 L57 158 L29 0 Z M99 402 L256 402 L285 560 L128 560 L99 402 Z " />
<glyph glyph-name="tonos" unicode="&#x384;" horiz-adv-x="480" d="M254 635 L333 635 L411 835 L247 835 L254 635 Z " />
<glyph glyph-name="dieresistonos" unicode="&#x385;" horiz-adv-x="480" d="M438 653 L574 653 L599 789 L463 789 L438 653 Z M18 653 L154 653 L179 789 L43 789 L18 653 Z M260 635 L326 635 L405 835 L254 835 L260 635 Z " />
<glyph glyph-name="Alphatonos" unicode="&#x386;" horiz-adv-x="1233" d="M990 0 L1170 0 L763 700 L602 700 L-55 0 L140 0 L250 119 L921 119 L990 0 Z M664 567 L848 246 L367 246 L664 567 Z M176 500 L255 500 L333 700 L169 700 L176 500 Z " />
<glyph glyph-name="anoteleia" unicode="&#x387;" horiz-adv-x="312" d="M66 210 L204 210 L229 350 L91 350 L66 210 Z " />
<glyph glyph-name="Epsilontonos" unicode="&#x388;" horiz-adv-x="1317" d="M219 0 L1185 0 L1210 140 L398 140 L423 287 L1137 287 L1160 413 L446 413 L472 560 L1284 560 L1310 700 L344 700 L219 0 Z M74 500 L153 500 L231 700 L67 700 L74 500 Z " />
<glyph glyph-name="Etatonos" unicode="&#x389;" horiz-adv-x="1418" d="M1092 0 L1246 0 L1371 700 L1217 700 L1167 420 L447 420 L498 700 L344 700 L219 0 L373 0 L421 280 L1141 280 L1092 0 Z M74 500 L153 500 L231 700 L67 700 L74 500 Z " />
<glyph glyph-name="Iotatonos" unicode="&#x38a;" horiz-adv-x="544" d="M218 0 L372 0 L497 700 L343 700 L218 0 Z M74 500 L153 500 L231 700 L67 700 L74 500 Z " />
<glyph glyph-name="Omicrontonos" unicode="&#x38c;" horiz-adv-x="1424" d="M864 -10 C1227 -10 1365 180 1365 407 C1365 578 1258 710 986 710 L695 710 C333 710 192 521 192 295 C192 122 301 -10 573 -10 L864 -10 Z M602 130 C416 130 357 209 357 313 C357 435 425 570 685 570 L956 570 C1141 570 1200 491 1200 389 C1200 260 1127 130 873 130 L602 130 Z M74 500 L153 500 L231 700 L67 700 L74 500 Z " />
<glyph glyph-name="Upsilontonos" unicode="&#x38e;" horiz-adv-x="1405" d="M667 0 L821 0 L858 213 L1476 700 L1241 700 L796 333 L477 700 L263 700 L704 213 L667 0 Z M74 500 L153 500 L231 700 L67 700 L74 500 Z " />
<glyph glyph-name="Omegatonos" unicode="&#x38f;" horiz-adv-x="1418" d="M581 116 C425 140 359 223 359 320 C359 432 421 570 667 570 L957 570 C1134 570 1187 495 1187 397 C1187 276 1093 143 875 116 L856 0 L1298 0 L1324 140 L1180 140 C1300 219 1345 331 1345 446 C1345 593 1250 710 1010 710 L661 710 C342 710 213 530 213 337 C213 260 242 185 299 140 L146 140 L120 0 L561 0 L581 116 Z M74 500 L153 500 L231 700 L67 700 L74 500 Z " />
<glyph glyph-name="iotadieresistonos" unicode="&#x390;" horiz-adv-x="342" d="M43 0 L180 0 L279 560 L142 560 L43 0 Z M367 653 L503 653 L528 789 L392 789 L367 653 Z M-53 653 L83 653 L108 789 L-28 789 L-53 653 Z M189 635 L255 635 L334 835 L183 835 L189 635 Z " />
<glyph glyph-name="Alpha" unicode="&#x391;" horiz-adv-x="1233" d="M990 0 L1170 0 L763 700 L602 700 L-55 0 L140 0 L250 119 L921 119 L990 0 Z M664 567 L848 246 L367 246 L664 567 Z " />
<glyph glyph-name="Beta" unicode="&#x392;" horiz-adv-x="1208" d="M53 0 L850 0 C1038 0 1112 105 1112 219 C1112 286 1080 343 1000 363 C1086 400 1125 470 1125 554 C1125 636 1071 700 934 700 L178 700 L53 0 Z M859 287 C932 287 952 258 952 226 C952 185 922 140 835 140 L232 140 L257 287 L859 287 Z M958 500 C958 460 930 413 842 413 L280 413 L306 560 L866 560 C938 560 958 534 958 500 L958 500 Z " />
<glyph glyph-name="Gamma" unicode="&#x393;" horiz-adv-x="1083" d="M53 0 L207 0 L306 560 L1099 560 L1125 700 L178 700 L53 0 Z " />
<glyph glyph-name="Delta" unicode="&#x394;" horiz-adv-x="1233" d="M765 700 L601 700 L-55 0 L1171 0 L765 700 Z M669 572 L914 140 L273 140 L669 572 Z " />
<glyph glyph-name="Epsilon" unicode="&#x395;" horiz-adv-x="1150" d="M53 0 L1019 0 L1044 140 L232 140 L257 287 L971 287 L994 413 L280 413 L306 560 L1118 560 L1144 700 L178 700 L53 0 Z " />
<glyph glyph-name="Zeta" unicode="&#x396;" horiz-adv-x="1152" d="M10 0 L1038 0 L1063 140 L340 140 L1124 592 L1139 700 L140 700 L114 560 L808 560 L24 108 L10 0 Z " />
<glyph glyph-name="Eta" unicode="&#x397;" horiz-adv-x="1252" d="M926 0 L1080 0 L1205 700 L1051 700 L1001 420 L281 420 L332 700 L178 700 L53 0 L207 0 L255 280 L975 280 L926 0 Z " />
<glyph glyph-name="Theta" unicode="&#x398;" horiz-adv-x="1293" d="M393 287 L881 287 L905 413 L416 413 L393 287 Z M734 -10 C1097 -10 1235 180 1235 407 C1235 578 1128 710 856 710 L565 710 C203 710 62 521 62 295 C62 122 171 -10 443 -10 L734 -10 Z M472 130 C286 130 227 209 227 313 C227 435 295 570 555 570 L826 570 C1011 570 1070 491 1070 389 C1070 260 997 130 743 130 L472 130 Z " />
<glyph glyph-name="Iota" unicode="&#x399;" horiz-adv-x="379" d="M53 0 L207 0 L332 700 L178 700 L53 0 Z " />
<glyph glyph-name="Kappa" unicode="&#x39a;" horiz-adv-x="1245" d="M1223 700 L955 700 L259 301 L329 700 L178 700 L53 0 L204 0 L229 134 L540 311 L949 0 L1186 0 L673 387 L1223 700 Z " />
<glyph glyph-name="Lambda" unicode="&#x39b;" horiz-adv-x="1233" d="M601 700 L-55 0 L147 0 L663 568 L981 0 L1171 0 L765 700 L601 700 Z " />
<glyph glyph-name="Mu" unicode="&#x39c;" horiz-adv-x="1396" d="M1192 700 L670 231 L315 700 L178 700 L53 0 L207 0 L292 487 L641 21 L1155 487 L1070 0 L1224 0 L1349 700 L1192 700 Z " />
<glyph glyph-name="Nu" unicode="&#x39d;" horiz-adv-x="1255" d="M937 0 L1083 0 L1208 700 L1054 700 L960 168 L324 700 L178 700 L53 0 L207 0 L300 532 L937 0 Z " />
<glyph glyph-name="Xi" unicode="&#x39e;" horiz-adv-x="1158" d="M112 560 L1126 560 L1152 700 L138 700 L112 560 Z M1051 140 L37 140 L12 0 L1026 0 L1051 140 Z M151 287 L988 287 L1012 413 L174 413 L151 287 Z " />
<glyph glyph-name="Omicron" unicode="&#x39f;" horiz-adv-x="1293" d="M734 -10 C1097 -10 1235 180 1235 407 C1235 578 1128 710 856 710 L565 710 C203 710 62 521 62 295 C62 122 171 -10 443 -10 L734 -10 Z M472 130 C286 130 227 209 227 313 C227 435 295 570 555 570 L826 570 C1011 570 1070 491 1070 389 C1070 260 997 130 743 130 L472 130 Z " />
<glyph glyph-name="Pi" unicode="&#x3a0;" horiz-adv-x="1252" d="M926 0 L1080 0 L1205 700 L178 700 L53 0 L207 0 L306 560 L1025 560 L926 0 Z " />
<glyph glyph-name="Rho" unicode="&#x3a1;" horiz-adv-x="1147" d="M53 0 L207 0 L250 240 L823 240 C1056 240 1150 358 1150 506 C1150 614 1085 700 905 700 L178 700 L53 0 Z M876 560 C964 560 987 527 987 484 C987 429 949 380 845 380 L275 380 L306 560 L876 560 Z " />
<glyph glyph-name="Sigma" unicode="&#x3a3;" horiz-adv-x="1129" d="M116 585 L500 354 L34 115 L12 0 L998 0 L1022 140 L359 140 L767 345 L424 560 L1097 560 L1123 700 L138 700 L116 585 Z " />
<glyph glyph-name="Tau" unicode="&#x3a4;" horiz-adv-x="1136" d="M64 560 L531 560 L431 0 L585 0 L685 560 L1152 560 L1177 700 L90 700 L64 560 Z " />
<glyph glyph-name="Upsilon" unicode="&#x3a5;" horiz-adv-x="1203" d="M465 0 L619 0 L656 213 L1274 700 L1039 700 L594 333 L275 700 L61 700 L502 213 L465 0 Z " />
<glyph glyph-name="Phi" unicode="&#x3a6;" horiz-adv-x="1252" d="M808 62 C1103 62 1212 218 1212 396 C1212 528 1123 638 907 638 L757 638 L777 750 L623 750 L603 638 L450 638 C157 638 46 478 46 302 C46 168 136 62 351 62 L500 62 L480 -50 L634 -50 L654 62 L808 62 Z M886 498 C1015 498 1047 441 1047 370 C1047 280 970 202 817 202 L680 202 L731 498 L886 498 Z M213 329 C213 417 289 498 441 498 L577 498 L526 202 L373 202 C244 202 213 257 213 329 L213 329 Z " />
<glyph glyph-name="Chi" unicode="&#x3a7;" horiz-adv-x="1177" d="M81 700 L477 352 L-49 0 L204 0 L586 271 L873 0 L1109 0 L709 352 L1229 700 L976 700 L598 433 L317 700 L81 700 Z " />
<glyph glyph-name="Psi" unicode="&#x3a8;" horiz-adv-x="1243" d="M485 0 L639 0 L663 137 L781 137 C1063 137 1176 263 1210 454 L1254 700 L1100 700 L1060 480 C1037 355 967 277 802 277 L689 277 L764 700 L610 700 L535 277 L426 277 C251 277 213 357 233 470 L274 700 L120 700 L79 471 C43 278 120 137 408 137 L509 137 L485 0 Z " />
<glyph glyph-name="Omega" unicode="&#x3a9;" horiz-adv-x="1301" d="M463 116 C307 140 241 223 241 320 C241 432 303 570 549 570 L839 570 C1016 570 1069 495 1069 397 C1069 276 975 143 757 116 L738 0 L1180 0 L1206 140 L1062 140 C1182 219 1227 331 1227 446 C1227 593 1132 710 892 710 L543 710 C224 710 95 530 95 337 C95 260 124 185 181 140 L28 140 L2 0 L443 0 L463 116 Z " />
<glyph glyph-name="Iotadieresis" unicode="&#x3aa;" horiz-adv-x="379" d="M53 0 L207 0 L332 700 L178 700 L53 0 Z M336 789 L475 789 L500 929 L361 929 L336 789 Z M56 789 L195 789 L220 929 L80 929 L56 789 Z " />
<glyph glyph-name="Upsilondieresis" unicode="&#x3ab;" horiz-adv-x="1203" d="M465 0 L619 0 L656 213 L1274 700 L1039 700 L594 333 L275 700 L61 700 L502 213 L465 0 Z M751 789 L890 789 L915 929 L776 929 L751 789 Z M471 789 L610 789 L635 929 L495 929 L471 789 Z " />
<glyph glyph-name="alphatonos" unicode="&#x3ac;" horiz-adv-x="1054" d="M827 0 L990 0 L640 560 L495 560 L-54 0 L120 0 L216 100 L765 100 L827 0 Z M552 448 L702 204 L317 204 L552 448 Z M112 360 L191 360 L269 560 L105 560 L112 360 Z " />
<glyph glyph-name="epsilontonos" unicode="&#x3ad;" horiz-adv-x="1156" d="M209 0 L1031 0 L1052 119 L367 119 L385 228 L986 228 L1005 332 L405 332 L423 441 L1109 441 L1130 560 L308 560 L209 0 Z M49 360 L128 360 L206 560 L42 560 L49 360 Z " />
<glyph glyph-name="etatonos" unicode="&#x3ae;" horiz-adv-x="1246" d="M947 0 L1084 0 L1183 560 L1046 560 L1007 340 L407 340 L445 560 L308 560 L209 0 L346 0 L384 220 L984 220 L947 0 Z M49 360 L128 360 L206 560 L42 560 L49 360 Z " />
<glyph glyph-name="iotatonos" unicode="&#x3af;" horiz-adv-x="508" d="M209 0 L346 0 L445 560 L308 560 L209 0 Z M49 360 L128 360 L206 560 L42 560 L49 360 Z " />
<glyph glyph-name="upsilondieresistonos" unicode="&#x3b0;" horiz-adv-x="1023" d="M384 0 L521 0 L551 171 L1067 560 L859 560 L493 272 L225 560 L35 560 L414 171 L384 0 Z M710 653 L846 653 L871 789 L735 789 L710 653 Z M290 653 L426 653 L451 789 L315 789 L290 653 Z M532 635 L598 635 L677 835 L526 835 L532 635 Z " />
<glyph glyph-name="alpha" unicode="&#x3b1;" horiz-adv-x="1054" d="M827 0 L990 0 L640 560 L495 560 L-54 0 L120 0 L216 100 L765 100 L827 0 Z M552 448 L702 204 L317 204 L552 448 Z " />
<glyph glyph-name="beta" unicode="&#x3b2;" horiz-adv-x="1039" d="M43 0 L726 0 C889 0 942 85 942 173 C942 229 915 274 846 291 C918 322 949 379 949 442 C949 510 907 560 792 560 L142 560 L43 0 Z M730 441 C786 441 801 425 801 400 C801 370 781 332 712 332 L239 332 L257 441 L730 441 Z M728 228 C784 228 799 212 799 187 C799 157 779 119 710 119 L201 119 L219 228 L728 228 Z " />
<glyph glyph-name="gamma" unicode="&#x3b3;" horiz-adv-x="945" d="M43 0 L180 0 L257 441 L927 441 L948 560 L142 560 L43 0 Z " />
<glyph glyph-name="delta" unicode="&#x3b4;" horiz-adv-x="1054" d="M640 560 L495 560 L-54 0 L990 0 L640 560 Z M552 450 L758 119 L232 119 L552 450 Z " />
<glyph glyph-name="epsilon" unicode="&#x3b5;" horiz-adv-x="991" d="M43 0 L865 0 L886 119 L201 119 L219 228 L820 228 L839 332 L239 332 L257 441 L943 441 L964 560 L142 560 L43 0 Z " />
<glyph glyph-name="zeta" unicode="&#x3b6;" horiz-adv-x="986" d="M3 0 L879 0 L900 119 L297 119 L945 468 L957 560 L106 560 L84 441 L660 441 L14 92 L3 0 Z " />
<glyph glyph-name="eta" unicode="&#x3b7;" horiz-adv-x="1080" d="M781 0 L918 0 L1017 560 L880 560 L841 340 L241 340 L279 560 L142 560 L43 0 L180 0 L218 220 L818 220 L781 0 Z " />
<glyph glyph-name="theta" unicode="&#x3b8;" horiz-adv-x="1107" d="M329 228 L735 228 L754 332 L349 332 L329 228 Z M621 -8 C926 -8 1039 152 1042 326 C1044 461 960 568 725 568 L465 568 C160 568 49 408 46 234 C43 99 126 -8 361 -8 L621 -8 Z M385 111 C233 111 191 171 191 247 C192 344 263 449 445 449 L703 449 C853 449 896 389 896 312 C896 219 825 111 642 111 L385 111 Z " />
<glyph glyph-name="iota" unicode="&#x3b9;" horiz-adv-x="342" d="M43 0 L180 0 L279 560 L142 560 L43 0 Z " />
<glyph glyph-name="kappa" unicode="&#x3ba;" horiz-adv-x="1072" d="M1039 560 L791 560 L223 248 L279 560 L142 560 L43 0 L180 0 L198 102 L458 243 L795 0 L1009 0 L578 309 L1039 560 Z " />
<glyph glyph-name="lambda" unicode="&#x3bb;" horiz-adv-x="1054" d="M494 560 L-54 0 L124 0 L551 448 L822 0 L990 0 L639 560 L494 560 Z " />
<glyph glyph-name="mu" unicode="&#x3bc;" horiz-adv-x="1202" d="M1000 560 L568 194 L265 560 L142 560 L43 0 L180 0 L246 379 L544 15 L970 379 L903 0 L1040 0 L1139 560 L1000 560 Z " />
<glyph glyph-name="nu" unicode="&#x3bd;" horiz-adv-x="1083" d="M921 0 L1020 560 L883 560 L810 145 L272 560 L142 560 L43 0 L180 0 L253 415 L791 0 L921 0 Z " />
<glyph glyph-name="xi" unicode="&#x3be;" horiz-adv-x="993" d="M83 441 L946 441 L968 560 L105 560 L83 441 Z M890 119 L27 119 L6 0 L869 0 L890 119 Z M120 228 L831 228 L851 332 L140 332 L120 228 Z " />
<glyph glyph-name="omicron" unicode="&#x3bf;" horiz-adv-x="1107" d="M621 -8 C926 -8 1039 152 1042 326 C1044 461 960 568 725 568 L465 568 C160 568 49 408 46 234 C43 99 126 -8 361 -8 L621 -8 Z M385 111 C233 111 191 171 191 247 C192 344 263 449 445 449 L703 449 C853 449 896 389 896 312 C896 219 825 111 642 111 L385 111 Z " />
<glyph glyph-name="pi" unicode="&#x3c0;" horiz-adv-x="1080" d="M781 0 L918 0 L1017 560 L142 560 L43 0 L180 0 L257 441 L858 441 L781 0 Z " />
<glyph glyph-name="rho" unicode="&#x3c1;" horiz-adv-x="997" d="M43 0 L180 0 L212 188 L699 188 C902 188 971 293 971 402 C971 490 917 560 765 560 L142 560 L43 0 Z M740 441 C809 441 826 418 826 386 C826 348 804 308 716 308 L234 308 L257 441 L740 441 Z " />
<glyph glyph-name="uni03C2" unicode="&#x3c2;" horiz-adv-x="968" d="M86 462 L411 283 L22 98 L5 0 L843 0 L864 119 L309 119 L648 277 L360 441 L921 441 L942 560 L104 560 L86 462 Z " />
<glyph glyph-name="sigma" unicode="&#x3c3;" horiz-adv-x="968" d="M86 462 L411 283 L22 98 L5 0 L843 0 L864 119 L309 119 L648 277 L360 441 L921 441 L942 560 L104 560 L86 462 Z " />
<glyph glyph-name="tau" unicode="&#x3c4;" horiz-adv-x="997" d="M54 441 L448 441 L371 0 L508 0 L585 441 L979 441 L1001 560 L76 560 L54 441 Z " />
<glyph glyph-name="upsilon" unicode="&#x3c5;" horiz-adv-x="1023" d="M384 0 L521 0 L551 171 L1067 560 L859 560 L493 272 L225 560 L35 560 L414 171 L384 0 Z " />
<glyph glyph-name="phi" unicode="&#x3c6;" horiz-adv-x="1082" d="M690 50 C943 50 1028 177 1028 318 C1028 424 959 510 771 510 L641 510 L657 600 L520 600 L504 510 L374 510 C124 510 36 380 36 241 C36 133 105 50 293 50 L422 50 L405 -40 L542 -40 L559 50 L690 50 Z M752 391 C853 391 881 352 881 302 C881 234 831 169 705 169 L581 169 L619 391 L752 391 Z M310 169 C209 169 182 208 182 258 C182 326 231 391 358 391 L482 391 L444 169 L310 169 Z " />
<glyph glyph-name="chi" unicode="&#x3c7;" horiz-adv-x="1018" d="M60 560 L397 282 L-43 0 L183 0 L496 209 L736 0 L943 0 L601 282 L1039 560 L812 560 L505 353 L268 560 L60 560 Z " />
<glyph glyph-name="psi" unicode="&#x3c8;" horiz-adv-x="1068" d="M406 0 L543 0 L560 108 L639 108 C898 108 996 216 1023 371 L1056 560 L919 560 L886 373 C871 285 828 227 661 227 L583 227 L642 560 L505 560 L446 227 L370 227 C204 227 180 286 195 372 L227 560 L91 560 L59 373 C32 219 88 108 347 108 L424 108 L406 0 Z " />
<glyph glyph-name="omega" unicode="&#x3c9;" horiz-adv-x="1120" d="M624 0 L1002 0 L1024 119 L907 119 C999 177 1038 265 1038 358 C1038 475 963 568 752 568 L446 568 C173 568 76 423 76 271 C76 212 102 152 148 119 L21 119 L-1 0 L376 0 L395 99 C247 113 204 183 204 258 C204 352 279 449 458 449 L707 449 C859 449 899 389 899 315 C899 213 840 125 643 99 L624 0 Z " />
<glyph glyph-name="iotadieresis" unicode="&#x3ca;" horiz-adv-x="342" d="M43 0 L180 0 L279 560 L142 560 L43 0 Z M294 649 L433 649 L458 789 L319 789 L294 649 Z M14 649 L153 649 L178 789 L38 789 L14 649 Z " />
<glyph glyph-name="upsilondieresis" unicode="&#x3cb;" horiz-adv-x="1023" d="M384 0 L521 0 L551 171 L1067 560 L859 560 L493 272 L225 560 L35 560 L414 171 L384 0 Z M637 649 L776 649 L801 789 L662 789 L637 649 Z M357 649 L496 649 L521 789 L381 789 L357 649 Z " />
<glyph glyph-name="omicrontonos" unicode="&#x3cc;" horiz-adv-x="1255" d="M770 -8 C1075 -8 1188 152 1191 326 C1193 461 1109 568 874 568 L614 568 C309 568 198 408 195 234 C192 99 275 -8 510 -8 L770 -8 Z M534 111 C382 111 340 171 340 247 C341 344 412 449 594 449 L852 449 C1002 449 1045 389 1045 312 C1045 219 974 111 791 111 L534 111 Z M49 360 L128 360 L206 560 L42 560 L49 360 Z " />
<glyph glyph-name="upsilontonos" unicode="&#x3cd;" horiz-adv-x="1225" d="M586 0 L723 0 L753 171 L1269 560 L1061 560 L695 272 L427 560 L237 560 L616 171 L586 0 Z M49 360 L128 360 L206 560 L42 560 L49 360 Z " />
<glyph glyph-name="omegatonos" unicode="&#x3ce;" horiz-adv-x="1250" d="M755 0 L1133 0 L1155 119 L1038 119 C1130 177 1169 265 1169 358 C1169 475 1094 568 883 568 L577 568 C304 568 207 423 207 271 C207 212 233 152 279 119 L152 119 L130 0 L507 0 L526 99 C378 113 335 183 335 258 C335 352 410 449 589 449 L838 449 C990 449 1030 389 1030 315 C1030 213 971 125 774 99 L755 0 Z M49 360 L128 360 L206 560 L42 560 L49 360 Z " />
<glyph glyph-name="uni0400" unicode="&#x400;" horiz-adv-x="1150" d="M53 0 L1019 0 L1044 140 L232 140 L257 287 L971 287 L994 413 L280 413 L306 560 L1118 560 L1144 700 L178 700 L53 0 Z M687 946 L523 946 L656 775 L751 775 L687 946 Z " />
<glyph glyph-name="uni0401" unicode="&#x401;" horiz-adv-x="1150" d="M53 0 L1019 0 L1044 140 L232 140 L257 287 L971 287 L994 413 L280 413 L306 560 L1118 560 L1144 700 L178 700 L53 0 Z M733 789 L872 789 L897 929 L758 929 L733 789 Z M453 789 L592 789 L617 929 L477 929 L453 789 Z " />
<glyph glyph-name="uni0402" unicode="&#x402;" horiz-adv-x="1299" d="M675 0 L957 0 C1171 0 1254 110 1254 238 C1254 338 1191 413 1029 413 L490 413 L515 560 L962 560 L988 700 L90 700 L64 560 L361 560 L262 -1 L416 -1 L468 287 L1003 287 C1074 287 1091 258 1091 225 C1091 181 1063 140 977 140 L701 140 L675 0 Z " />
<glyph glyph-name="uni0403" unicode="&#x403;" horiz-adv-x="1083" d="M53 0 L207 0 L306 560 L1099 560 L1125 700 L178 700 L53 0 Z M564 775 L669 775 L867 946 L690 946 L564 775 Z " />
<glyph glyph-name="uni0404" unicode="&#x404;" horiz-adv-x="1136" d="M957 287 L980 413 L244 413 C275 493 355 560 533 560 L1104 560 L1129 700 L546 700 C200 700 62 507 62 296 C62 130 163 0 431 0 L1004 0 L1028 140 L456 140 C296 140 238 203 228 287 L957 287 Z " />
<glyph glyph-name="uni0405" unicode="&#x405;" horiz-adv-x="1158" d="M798 140 L69 140 L43 0 L777 0 C988 0 1075 108 1075 238 C1075 338 1012 413 850 413 L340 413 C269 413 253 442 253 475 C253 519 280 560 366 560 L1095 560 L1121 700 L387 700 C176 700 89 592 89 462 C89 362 152 287 313 287 L824 287 C895 287 912 258 912 225 C912 181 884 140 798 140 L798 140 Z " />
<glyph glyph-name="uni0406" unicode="&#x406;" horiz-adv-x="379" d="M53 0 L207 0 L332 700 L178 700 L53 0 Z " />
<glyph glyph-name="uni0407" unicode="&#x407;" horiz-adv-x="379" d="M53 0 L207 0 L332 700 L178 700 L53 0 Z M336 789 L475 789 L500 929 L361 929 L336 789 Z M56 789 L195 789 L220 929 L80 929 L56 789 Z " />
<glyph glyph-name="uni0408" unicode="&#x408;" horiz-adv-x="1181" d="M301 -5 L637 -5 C920 -5 1029 109 1064 305 L1134 700 L980 700 L912 331 C890 206 821 135 657 135 L328 135 C188 135 162 193 178 275 L189 334 L35 334 L24 275 C-5 124 61 -5 301 -5 L301 -5 Z " />
<glyph glyph-name="uni0409" unicode="&#x409;" horiz-adv-x="1786" d="M777 0 L1421 0 C1654 0 1748 118 1748 266 C1748 374 1683 460 1503 460 L1014 460 L1056 700 L351 700 L203 226 C186 174 149 140 80 140 L-10 140 L-36 0 L53 0 C236 0 315 91 347 197 L459 560 L876 560 L777 0 Z M1443 140 L957 140 L988 320 L1474 320 C1562 320 1585 287 1585 244 C1585 189 1547 140 1443 140 L1443 140 Z " />
<glyph glyph-name="uni040A" unicode="&#x40a;" horiz-adv-x="1800" d="M790 0 L1434 0 C1667 0 1761 119 1761 267 C1761 374 1696 460 1517 460 L1027 460 L1070 700 L916 700 L873 460 L290 460 L332 700 L178 700 L53 0 L207 0 L264 320 L848 320 L790 0 Z M1002 320 L1487 320 C1575 320 1598 288 1598 245 C1598 190 1560 140 1456 140 L970 140 L1002 320 Z " />
<glyph glyph-name="uni040B" unicode="&#x40b;" horiz-adv-x="1328" d="M1212 -1 L1247 192 C1269 316 1229 410 1038 410 L489 410 L515 560 L962 560 L988 700 L90 700 L64 560 L361 560 L260 -1 L414 -1 L463 269 L1015 269 C1089 269 1102 238 1092 183 L1058 -1 L1212 -1 Z " />
<glyph glyph-name="uni040C" unicode="&#x40c;" horiz-adv-x="1244" d="M540 775 L645 775 L843 946 L666 946 L540 775 Z M700 355 L1222 700 L974 700 L564 420 L281 420 L332 700 L178 700 L53 0 L207 0 L255 280 L562 280 L947 0 L1186 0 L700 355 Z " />
<glyph glyph-name="uni040D" unicode="&#x40d;" horiz-adv-x="1255" d="M730 946 L566 946 L699 775 L794 775 L730 946 Z M1021 520 L929 0 L1083 0 L1208 700 L1057 700 L239 180 L332 700 L178 700 L53 0 L204 0 L1021 520 Z " />
<glyph glyph-name="uni040E" unicode="&#x40e;" horiz-adv-x="1207" d="M709 872 C644 872 623 903 627 943 L545 943 C535 866 554 777 694 777 C834 777 885 864 904 943 L819 943 C808 903 773 872 709 872 L709 872 Z M424 0 L1281 700 L1051 700 L605 321 L274 700 L63 700 L489 231 L194 0 L424 0 Z " />
<glyph glyph-name="uni040F" unicode="&#x40f;" horiz-adv-x="1252" d="M951 140 L232 140 L332 700 L178 700 L53 0 L490 0 L462 -150 L616 -150 L644 0 L1080 0 L1205 700 L1051 700 L951 140 Z " />
<glyph glyph-name="uni0410" unicode="&#x410;" horiz-adv-x="1233" d="M990 0 L1170 0 L763 700 L602 700 L-55 0 L140 0 L250 119 L921 119 L990 0 Z M664 567 L848 246 L367 246 L664 567 Z " />
<glyph glyph-name="uni0411" unicode="&#x411;" horiz-adv-x="1185" d="M53 0 L806 0 C1017 0 1104 108 1104 238 C1104 338 1041 413 879 413 L280 413 L306 560 L1099 560 L1125 700 L178 700 L53 0 Z M258 287 L853 287 C924 287 940 258 940 225 C940 181 913 140 827 140 L233 140 L258 287 Z " />
<glyph glyph-name="uni0412" unicode="&#x412;" horiz-adv-x="1208" d="M53 0 L850 0 C1038 0 1112 105 1112 219 C1112 286 1080 343 1000 363 C1086 400 1125 470 1125 554 C1125 636 1071 700 934 700 L178 700 L53 0 Z M859 287 C932 287 952 258 952 226 C952 185 922 140 835 140 L232 140 L257 287 L859 287 Z M958 500 C958 460 930 413 842 413 L280 413 L306 560 L866 560 C938 560 958 534 958 500 L958 500 Z " />
<glyph glyph-name="uni0413" unicode="&#x413;" horiz-adv-x="1083" d="M53 0 L207 0 L306 560 L1099 560 L1125 700 L178 700 L53 0 Z " />
<glyph glyph-name="uni0414" unicode="&#x414;" horiz-adv-x="1200" d="M118 0 L929 0 L901 -150 L1055 -150 L1108 140 L1024 140 L1125 700 L351 700 L203 226 C186 171 157 140 86 140 L-11 140 L-63 -150 L91 -150 L118 0 Z M458 560 L944 560 L870 140 L283 140 C324 164 351 204 365 251 L458 560 Z " />
<glyph glyph-name="uni0415" unicode="&#x415;" horiz-adv-x="1150" d="M53 0 L1019 0 L1044 140 L232 140 L257 287 L971 287 L994 413 L280 413 L306 560 L1118 560 L1144 700 L178 700 L53 0 Z " />
<glyph glyph-name="uni0416" unicode="&#x416;" horiz-adv-x="1570" d="M1144 352 L1573 700 L1353 700 L1017 420 L877 420 L928 700 L774 700 L723 420 L568 420 L332 700 L131 700 L435 352 L-45 0 L189 0 L561 280 L698 280 L649 0 L803 0 L852 280 L1006 280 L1282 0 L1498 0 L1144 352 Z " />
<glyph glyph-name="uni0417" unicode="&#x417;" horiz-adv-x="1217" d="M2 0 L860 0 C1048 0 1122 105 1122 219 C1122 286 1088 343 1009 363 C1094 400 1134 470 1134 554 C1134 636 1080 700 943 700 L147 700 L121 560 L875 560 C947 560 967 535 967 500 C967 460 938 413 852 413 L179 413 L156 287 L869 287 C941 287 962 258 962 226 C962 185 932 140 845 140 L27 140 L2 0 Z " />
<glyph glyph-name="uni0418" unicode="&#x418;" horiz-adv-x="1255" d="M1021 520 L929 0 L1083 0 L1208 700 L1057 700 L239 180 L332 700 L178 700 L53 0 L204 0 L1021 520 Z " />
<glyph glyph-name="uni0419" unicode="&#x419;" horiz-adv-x="1255" d="M718 872 C653 872 632 903 636 943 L554 943 C544 866 563 777 703 777 C843 777 894 864 913 943 L828 943 C817 903 782 872 718 872 L718 872 Z M1021 520 L929 0 L1083 0 L1208 700 L1057 700 L239 180 L332 700 L178 700 L53 0 L204 0 L1021 520 Z " />
<glyph glyph-name="uni041A" unicode="&#x41a;" horiz-adv-x="1244" d="M700 355 L1222 700 L974 700 L564 420 L281 420 L332 700 L178 700 L53 0 L207 0 L255 280 L562 280 L947 0 L1186 0 L700 355 Z " />
<glyph glyph-name="uni041B" unicode="&#x41b;" horiz-adv-x="1207" d="M351 700 L203 226 C186 174 149 140 79 140 L-11 140 L-36 0 L53 0 C236 0 315 91 347 197 L458 560 L979 560 L881 0 L1035 0 L1160 700 L351 700 Z " />
<glyph glyph-name="uni041C" unicode="&#x41c;" horiz-adv-x="1396" d="M1192 700 L670 231 L315 700 L178 700 L53 0 L207 0 L292 487 L641 21 L1155 487 L1070 0 L1224 0 L1349 700 L1192 700 Z " />
<glyph glyph-name="uni041D" unicode="&#x41d;" horiz-adv-x="1252" d="M926 0 L1080 0 L1205 700 L1051 700 L1001 420 L281 420 L332 700 L178 700 L53 0 L207 0 L255 280 L975 280 L926 0 Z " />
<glyph glyph-name="uni041E" unicode="&#x41e;" horiz-adv-x="1293" d="M734 -10 C1097 -10 1235 180 1235 407 C1235 578 1128 710 856 710 L565 710 C203 710 62 521 62 295 C62 122 171 -10 443 -10 L734 -10 Z M472 130 C286 130 227 209 227 313 C227 435 295 570 555 570 L826 570 C1011 570 1070 491 1070 389 C1070 260 997 130 743 130 L472 130 Z " />
<glyph glyph-name="uni041F" unicode="&#x41f;" horiz-adv-x="1252" d="M926 0 L1080 0 L1205 700 L178 700 L53 0 L207 0 L306 560 L1025 560 L926 0 Z " />
<glyph glyph-name="uni0420" unicode="&#x420;" horiz-adv-x="1147" d="M53 0 L207 0 L250 240 L823 240 C1056 240 1150 358 1150 506 C1150 614 1085 700 905 700 L178 700 L53 0 Z M876 560 C964 560 987 527 987 484 C987 429 949 380 845 380 L275 380 L306 560 L876 560 Z " />
<glyph glyph-name="uni0421" unicode="&#x421;" horiz-adv-x="1136" d="M227 315 C227 428 285 560 533 560 L1104 560 L1129 700 L546 700 C200 700 62 507 62 296 C62 130 163 0 431 0 L1004 0 L1028 140 L456 140 C279 140 227 217 227 315 L227 315 Z " />
<glyph glyph-name="uni0422" unicode="&#x422;" horiz-adv-x="1136" d="M64 560 L531 560 L431 0 L585 0 L685 560 L1152 560 L1177 700 L90 700 L64 560 Z " />
<glyph glyph-name="uni0423" unicode="&#x423;" horiz-adv-x="1207" d="M424 0 L1281 700 L1051 700 L605 321 L274 700 L63 700 L489 231 L194 0 L424 0 Z " />
<glyph glyph-name="uni0424" unicode="&#x424;" horiz-adv-x="1252" d="M808 62 C1103 62 1212 218 1212 396 C1212 528 1123 638 907 638 L757 638 L777 750 L623 750 L603 638 L450 638 C157 638 46 478 46 302 C46 168 136 62 351 62 L500 62 L480 -50 L634 -50 L654 62 L808 62 Z M886 498 C1015 498 1047 441 1047 370 C1047 280 970 202 817 202 L680 202 L731 498 L886 498 Z M213 329 C213 417 289 498 441 498 L577 498 L526 202 L373 202 C244 202 213 257 213 329 L213 329 Z " />
<glyph glyph-name="uni0425" unicode="&#x425;" horiz-adv-x="1177" d="M81 700 L477 352 L-49 0 L204 0 L586 271 L873 0 L1109 0 L709 352 L1229 700 L976 700 L598 433 L317 700 L81 700 Z " />
<glyph glyph-name="uni0426" unicode="&#x426;" horiz-adv-x="1245" d="M916 140 L232 140 L332 700 L178 700 L53 0 L974 0 L946 -150 L1100 -150 L1153 140 L1070 140 L1170 700 L1016 700 L916 140 Z " />
<glyph glyph-name="uni0427" unicode="&#x427;" horiz-adv-x="1176" d="M120 699 L75 453 C52 328 94 234 284 234 L891 234 L848 -1 L1002 -1 L1129 699 L975 699 L916 375 L307 375 C233 375 220 406 230 460 L274 699 L120 699 Z " />
<glyph glyph-name="uni0428" unicode="&#x428;" horiz-adv-x="1534" d="M1233 140 L809 140 L909 700 L755 700 L655 140 L232 140 L332 700 L178 700 L53 0 L1362 0 L1488 700 L1334 700 L1233 140 Z " />
<glyph glyph-name="uni0429" unicode="&#x429;" horiz-adv-x="1528" d="M1199 140 L792 140 L892 700 L738 700 L638 140 L232 140 L332 700 L178 700 L53 0 L1257 0 L1229 -150 L1383 -150 L1436 140 L1353 140 L1453 700 L1299 700 L1199 140 Z " />
<glyph glyph-name="uni042A" unicode="&#x42a;" horiz-adv-x="1299" d="M541 700 L90 700 L64 560 L361 560 L262 0 L932 0 C1165 0 1259 118 1259 266 C1259 374 1194 460 1015 460 L499 460 L541 700 Z M473 320 L985 320 C1073 320 1096 287 1096 244 C1096 189 1058 140 954 140 L442 140 L473 320 Z " />
<glyph glyph-name="uni042B" unicode="&#x42b;" horiz-adv-x="1521" d="M1200 0 L1354 0 L1479 700 L1325 700 L1200 0 Z M53 0 L781 0 C1014 0 1108 118 1108 266 C1108 374 1043 460 864 460 L290 460 L332 700 L178 700 L53 0 Z M264 320 L834 320 C922 320 945 287 945 244 C945 189 907 140 803 140 L233 140 L264 320 Z " />
<glyph glyph-name="uni042C" unicode="&#x42c;" horiz-adv-x="1147" d="M53 0 L781 0 C1014 0 1108 118 1108 266 C1108 374 1043 460 864 460 L290 460 L332 700 L178 700 L53 0 Z M264 320 L834 320 C922 320 945 287 945 244 C945 189 907 140 803 140 L233 140 L264 320 Z " />
<glyph glyph-name="uni042D" unicode="&#x42d;" horiz-adv-x="1136" d="M160 287 L896 287 C864 207 784 140 607 140 L36 140 L11 0 L594 0 C940 0 1078 193 1078 404 C1078 570 977 700 709 700 L136 700 L112 560 L684 560 C843 560 901 497 911 413 L183 413 L160 287 Z " />
<glyph glyph-name="uni042E" unicode="&#x42e;" horiz-adv-x="1803" d="M1244 -10 C1607 -10 1745 180 1745 407 C1745 578 1638 710 1366 710 L1122 710 C829 710 681 586 635 420 L281 420 L332 700 L178 700 L53 0 L207 0 L255 280 L619 280 C625 114 737 -10 1000 -10 L1244 -10 Z M1030 130 C843 130 784 209 784 313 C784 435 852 570 1113 570 L1336 570 C1521 570 1580 491 1580 389 C1580 260 1507 130 1253 130 L1030 130 Z " />
<glyph glyph-name="uni042F" unicode="&#x42f;" horiz-adv-x="1228" d="M1182 700 L465 700 C236 700 138 584 138 437 C138 335 199 253 359 245 L-60 0 L195 0 L595 243 L946 243 L902 0 L1056 0 L1182 700 Z M300 453 C300 511 338 560 448 560 L1002 560 L970 377 L411 377 C325 377 300 410 300 453 L300 453 Z " />
<glyph glyph-name="uni0430" unicode="&#x430;" horiz-adv-x="1054" d="M827 0 L990 0 L640 560 L495 560 L-54 0 L120 0 L216 100 L765 100 L827 0 Z M552 448 L702 204 L317 204 L552 448 Z " />
<glyph glyph-name="uni0431" unicode="&#x431;" horiz-adv-x="1018" d="M258 441 L927 441 L950 560 L144 560 L43 0 L688 0 C875 0 935 91 935 194 C935 272 884 330 748 330 L240 330 L258 441 Z M222 230 L722 230 C777 230 792 208 792 184 C792 153 772 119 702 119 L202 119 L222 230 Z " />
<glyph glyph-name="uni0432" unicode="&#x432;" horiz-adv-x="1039" d="M43 0 L726 0 C889 0 942 85 942 173 C942 229 915 274 846 291 C918 322 949 379 949 442 C949 510 907 560 792 560 L142 560 L43 0 Z M730 441 C786 441 801 425 801 400 C801 370 781 332 712 332 L239 332 L257 441 L730 441 Z M728 228 C784 228 799 212 799 187 C799 157 779 119 710 119 L201 119 L219 228 L728 228 Z " />
<glyph glyph-name="uni0433" unicode="&#x433;" horiz-adv-x="945" d="M43 0 L180 0 L257 441 L927 441 L948 560 L142 560 L43 0 Z " />
<glyph glyph-name="uni0434" unicode="&#x434;" horiz-adv-x="1041" d="M114 0 L792 0 L769 -120 L905 -120 L949 119 L878 119 L956 560 L298 560 L176 179 C164 140 141 119 83 119 L-2 119 L-46 -120 L91 -120 L114 0 Z M394 441 L798 441 L742 119 L260 119 C292 140 311 176 323 213 L394 441 Z " />
<glyph glyph-name="uni0435" unicode="&#x435;" horiz-adv-x="991" d="M43 0 L865 0 L886 119 L201 119 L219 228 L820 228 L839 332 L239 332 L257 441 L943 441 L964 560 L142 560 L43 0 Z " />
<glyph glyph-name="uni0436" unicode="&#x436;" horiz-adv-x="1349" d="M974 281 L1329 560 L1143 560 L871 340 L744 340 L782 560 L647 560 L608 340 L482 340 L286 560 L101 560 L355 281 L-41 0 L158 0 L461 220 L586 220 L547 0 L683 0 L721 220 L847 220 L1074 0 L1273 0 L974 281 Z " />
<glyph glyph-name="uni0437" unicode="&#x437;" horiz-adv-x="1042" d="M19 119 L-3 0 L731 0 C894 0 947 85 947 173 C947 229 920 274 851 291 C923 322 954 379 954 442 C954 510 912 560 797 560 L115 560 L92 441 L735 441 C792 441 806 425 806 400 C806 370 786 332 717 332 L145 332 L125 228 L733 228 C789 228 804 212 804 187 C804 157 784 119 715 119 L19 119 Z " />
<glyph glyph-name="uni0438" unicode="&#x438;" horiz-adv-x="1083" d="M855 407 L784 0 L921 0 L1020 560 L882 560 L208 153 L279 560 L142 560 L43 0 L180 0 L855 407 Z " />
<glyph glyph-name="uni0439" unicode="&#x439;" horiz-adv-x="1083" d="M608 732 C543 732 522 763 526 803 L444 803 C434 726 453 637 593 637 C733 637 784 724 803 803 L718 803 C707 763 672 732 608 732 L608 732 Z M855 407 L784 0 L921 0 L1020 560 L882 560 L208 153 L279 560 L142 560 L43 0 L180 0 L855 407 Z " />
<glyph glyph-name="uni043A" unicode="&#x43a;" horiz-adv-x="1073" d="M596 284 L1031 560 L809 560 L474 340 L241 340 L279 560 L142 560 L43 0 L180 0 L218 220 L470 220 L788 0 L1008 0 L596 284 Z " />
<glyph glyph-name="uni043B" unicode="&#x43b;" horiz-adv-x="1050" d="M986 560 L298 560 L177 182 C164 139 133 119 80 119 L-2 119 L-23 0 L73 0 C213 0 276 67 305 159 L394 441 L828 441 L751 0 L887 0 L986 560 Z " />
<glyph glyph-name="uni043C" unicode="&#x43c;" horiz-adv-x="1202" d="M1000 560 L568 194 L265 560 L142 560 L43 0 L180 0 L246 379 L544 15 L970 379 L903 0 L1040 0 L1139 560 L1000 560 Z " />
<glyph glyph-name="uni043D" unicode="&#x43d;" horiz-adv-x="1080" d="M781 0 L918 0 L1017 560 L880 560 L841 340 L241 340 L279 560 L142 560 L43 0 L180 0 L218 220 L818 220 L781 0 Z " />
<glyph glyph-name="uni043E" unicode="&#x43e;" horiz-adv-x="1107" d="M621 -8 C926 -8 1039 152 1042 326 C1044 461 960 568 725 568 L465 568 C160 568 49 408 46 234 C43 99 126 -8 361 -8 L621 -8 Z M385 111 C233 111 191 171 191 247 C192 344 263 449 445 449 L703 449 C853 449 896 389 896 312 C896 219 825 111 642 111 L385 111 Z " />
<glyph glyph-name="uni043F" unicode="&#x43f;" horiz-adv-x="1080" d="M781 0 L918 0 L1017 560 L142 560 L43 0 L180 0 L257 441 L858 441 L781 0 Z " />
<glyph glyph-name="uni0440" unicode="&#x440;" horiz-adv-x="997" d="M43 0 L180 0 L212 188 L699 188 C902 188 971 293 971 402 C971 490 917 560 765 560 L142 560 L43 0 Z M740 441 C809 441 826 418 826 386 C826 348 804 308 716 308 L234 308 L257 441 L740 441 Z " />
<glyph glyph-name="uni0441" unicode="&#x441;" horiz-adv-x="973" d="M192 248 C192 347 270 441 446 441 L927 441 L950 560 L454 560 C153 560 46 400 46 232 C46 102 128 0 353 0 L849 0 L871 119 L368 119 C235 119 192 169 192 248 L192 248 Z " />
<glyph glyph-name="uni0442" unicode="&#x442;" horiz-adv-x="997" d="M54 441 L448 441 L371 0 L508 0 L585 441 L979 441 L1001 560 L76 560 L54 441 Z " />
<glyph glyph-name="uni0443" unicode="&#x443;" horiz-adv-x="1027" d="M357 0 L1073 560 L868 560 L505 264 L225 560 L37 560 L401 186 L151 0 L357 0 Z " />
<glyph glyph-name="uni0444" unicode="&#x444;" horiz-adv-x="1082" d="M690 50 C943 50 1028 177 1028 318 C1028 424 959 510 771 510 L641 510 L657 600 L520 600 L504 510 L374 510 C124 510 36 380 36 241 C36 133 105 50 293 50 L422 50 L405 -40 L542 -40 L559 50 L690 50 Z M752 391 C853 391 881 352 881 302 C881 234 831 169 705 169 L581 169 L619 391 L752 391 Z M310 169 C209 169 182 208 182 258 C182 326 231 391 358 391 L482 391 L444 169 L310 169 Z " />
<glyph glyph-name="uni0445" unicode="&#x445;" horiz-adv-x="1018" d="M60 560 L397 282 L-43 0 L183 0 L496 209 L736 0 L943 0 L601 282 L1039 560 L812 560 L505 353 L268 560 L60 560 Z " />
<glyph glyph-name="uni0446" unicode="&#x446;" horiz-adv-x="1071" d="M772 119 L201 119 L279 560 L142 560 L43 0 L822 0 L799 -120 L935 -120 L979 119 L908 119 L986 560 L850 560 L772 119 Z " />
<glyph glyph-name="uni0447" unicode="&#x447;" horiz-adv-x="1014" d="M768 303 L246 303 C198 303 187 328 195 367 L228 559 L91 559 L56 356 C37 257 72 184 221 184 L746 184 L713 -1 L850 -1 L950 559 L814 559 L768 303 Z " />
<glyph glyph-name="uni0448" unicode="&#x448;" horiz-adv-x="1320" d="M1043 119 L689 119 L768 560 L631 560 L553 119 L201 119 L279 560 L142 560 L43 0 L1158 0 L1257 560 L1121 560 L1043 119 Z " />
<glyph glyph-name="uni0449" unicode="&#x449;" horiz-adv-x="1312" d="M1013 119 L675 119 L753 560 L616 560 L538 119 L201 119 L279 560 L142 560 L43 0 L1063 0 L1040 -120 L1176 -120 L1220 119 L1149 119 L1227 560 L1091 560 L1013 119 Z " />
<glyph glyph-name="uni044A" unicode="&#x44a;" horiz-adv-x="1135" d="M465 560 L76 560 L54 441 L307 441 L229 0 L802 0 C1005 0 1075 105 1075 214 C1075 301 1021 372 869 372 L432 372 L465 560 Z M820 119 L387 119 L410 252 L843 252 C912 252 929 229 929 197 C929 159 907 119 820 119 L820 119 Z " />
<glyph glyph-name="uni044B" unicode="&#x44b;" horiz-adv-x="1334" d="M1040 0 L1177 0 L1276 560 L1139 560 L1040 0 Z M279 560 L142 560 L43 0 L665 0 C868 0 938 105 938 214 C938 301 884 372 732 372 L246 372 L279 560 Z M224 252 L706 252 C775 252 792 229 792 197 C792 159 770 119 683 119 L201 119 L224 252 Z " />
<glyph glyph-name="uni044C" unicode="&#x44c;" horiz-adv-x="997" d="M279 560 L142 560 L43 0 L665 0 C868 0 938 105 938 214 C938 301 884 372 732 372 L246 372 L279 560 Z M224 252 L706 252 C775 252 792 229 792 197 C792 159 770 119 683 119 L201 119 L224 252 Z " />
<glyph glyph-name="uni044D" unicode="&#x44d;" horiz-adv-x="974" d="M131 228 L741 228 C707 165 632 119 508 119 L27 119 L4 0 L500 0 C801 0 908 160 908 328 C908 458 826 560 601 560 L105 560 L83 441 L586 441 C707 441 754 399 761 332 L150 332 L131 228 Z " />
<glyph glyph-name="uni044E" unicode="&#x44e;" horiz-adv-x="1545" d="M1059 -8 C1364 -8 1477 152 1480 326 C1482 461 1398 568 1163 568 L943 568 C702 568 582 468 541 340 L241 340 L279 560 L142 560 L43 0 L180 0 L218 220 L524 220 C527 91 612 -8 839 -8 L1059 -8 Z M863 111 C711 111 669 171 669 247 C670 344 741 449 923 449 L1141 449 C1291 449 1334 389 1334 312 C1334 219 1263 111 1080 111 L863 111 Z " />
<glyph glyph-name="uni044F" unicode="&#x44f;" horiz-adv-x="1061" d="M1000 560 L384 560 C181 560 111 455 111 343 C111 263 169 200 294 193 L-51 0 L178 0 L508 191 L795 191 L762 0 L899 0 L1000 560 Z M840 441 L817 305 L344 305 C273 305 256 331 256 361 C256 399 281 441 368 441 L840 441 Z " />
<glyph glyph-name="uni0450" unicode="&#x450;" horiz-adv-x="991" d="M43 0 L865 0 L886 119 L201 119 L219 228 L820 228 L839 332 L239 332 L257 441 L943 441 L964 560 L142 560 L43 0 Z M584 806 L420 806 L553 635 L648 635 L584 806 Z " />
<glyph glyph-name="uni0451" unicode="&#x451;" horiz-adv-x="991" d="M43 0 L865 0 L886 119 L201 119 L219 228 L820 228 L839 332 L239 332 L257 441 L943 441 L964 560 L142 560 L43 0 Z M630 649 L769 649 L794 789 L655 789 L630 649 Z M350 649 L489 649 L514 789 L374 789 L350 649 Z " />
<glyph glyph-name="uni0452" unicode="&#x452;" horiz-adv-x="1135" d="M582 0 L825 0 C1012 0 1072 91 1072 194 C1072 272 1021 330 885 330 L426 330 L444 441 L819 441 L842 560 L78 560 L55 441 L308 441 L229 -1 L366 -1 L408 230 L859 230 C914 230 929 208 929 184 C929 153 909 119 839 119 L604 119 L582 0 Z " />
<glyph glyph-name="uni0453" unicode="&#x453;" horiz-adv-x="945" d="M43 0 L180 0 L257 441 L927 441 L948 560 L142 560 L43 0 Z M468 635 L573 635 L771 806 L594 806 L468 635 Z " />
<glyph glyph-name="uni0454" unicode="&#x454;" horiz-adv-x="974" d="M804 228 L823 332 L212 332 C246 394 322 441 446 441 L927 441 L950 560 L454 560 C153 560 46 400 46 232 C46 102 128 0 353 0 L849 0 L871 119 L368 119 C246 119 200 160 193 228 L804 228 Z " />
<glyph glyph-name="uni0455" unicode="&#x455;" horiz-adv-x="990" d="M673 119 L52 119 L30 0 L659 0 C845 0 906 91 906 194 C906 272 855 330 719 330 L277 330 C222 330 208 352 208 376 C208 408 227 441 297 441 L918 441 L941 560 L312 560 C125 560 65 469 65 367 C65 288 115 230 252 230 L693 230 C748 230 763 208 763 184 C763 153 743 119 673 119 L673 119 Z " />
<glyph glyph-name="uni0456" unicode="&#x456;" horiz-adv-x="342" d="M43 0 L180 0 L279 560 L142 560 L43 0 Z " />
<glyph glyph-name="uni0457" unicode="&#x457;" horiz-adv-x="342" d="M43 0 L180 0 L279 560 L142 560 L43 0 Z M294 649 L433 649 L458 789 L319 789 L294 649 Z M14 649 L153 649 L178 789 L38 789 L14 649 Z " />
<glyph glyph-name="uni0458" unicode="&#x458;" horiz-adv-x="999" d="M249 -4 L550 -4 C775 -4 871 86 899 244 L955 560 L819 560 L764 260 C746 164 692 115 558 115 L258 115 C154 115 139 161 149 220 L158 269 L23 269 L14 220 C-8 97 41 -4 249 -4 L249 -4 Z " />
<glyph glyph-name="uni0459" unicode="&#x459;" horiz-adv-x="1549" d="M901 560 L298 560 L177 182 C164 139 133 119 80 119 L-2 119 L-23 0 L73 0 C213 0 276 67 305 159 L394 441 L742 441 L665 0 L1217 0 C1420 0 1490 105 1490 214 C1490 301 1436 372 1284 372 L868 372 L901 560 Z M1235 119 L823 119 L846 252 L1258 252 C1327 252 1344 229 1344 197 C1344 159 1322 119 1235 119 L1235 119 Z " />
<glyph glyph-name="uni045A" unicode="&#x45a;" horiz-adv-x="1552" d="M904 560 L767 560 L734 372 L246 372 L279 560 L142 560 L43 0 L180 0 L224 252 L712 252 L668 0 L1220 0 C1423 0 1493 105 1493 214 C1493 301 1439 372 1287 372 L871 372 L904 560 Z M1238 119 L826 119 L849 252 L1261 252 C1330 252 1347 229 1347 197 C1347 159 1325 119 1238 119 L1238 119 Z " />
<glyph glyph-name="uni045B" unicode="&#x45b;" horiz-adv-x="1151" d="M403 211 L877 211 C925 211 936 186 928 147 L901 -1 L1038 -1 L1067 157 C1085 257 1051 329 902 329 L425 329 L443 441 L819 441 L840 560 L76 560 L54 441 L307 441 L227 -1 L364 -1 L403 211 Z " />
<glyph glyph-name="uni045C" unicode="&#x45c;" horiz-adv-x="1073" d="M433 635 L538 635 L736 806 L559 806 L433 635 Z M596 284 L1031 560 L809 560 L474 340 L241 340 L279 560 L142 560 L43 0 L180 0 L218 220 L470 220 L788 0 L1008 0 L596 284 Z " />
<glyph glyph-name="uni045D" unicode="&#x45d;" horiz-adv-x="1083" d="M620 806 L456 806 L589 635 L684 635 L620 806 Z M855 407 L784 0 L921 0 L1020 560 L882 560 L208 153 L279 560 L142 560 L43 0 L180 0 L855 407 Z " />
<glyph glyph-name="uni045E" unicode="&#x45e;" horiz-adv-x="1027" d="M593 732 C528 732 507 763 511 803 L429 803 C419 726 438 637 578 637 C718 637 769 724 788 803 L703 803 C692 763 657 732 593 732 L593 732 Z M357 0 L1073 560 L868 560 L505 264 L225 560 L37 560 L401 186 L151 0 L357 0 Z " />
<glyph glyph-name="uni045F" unicode="&#x45f;" horiz-adv-x="1080" d="M802 119 L201 119 L279 560 L142 560 L43 0 L413 0 L389 -120 L526 -120 L549 0 L918 0 L1017 560 L880 560 L802 119 Z " />
<glyph glyph-name="uni0490" unicode="&#x490;" horiz-adv-x="1083" d="M971 700 L178 700 L53 0 L207 0 L306 560 L1099 560 L1151 850 L997 850 L971 700 Z " />
<glyph glyph-name="uni0491" unicode="&#x491;" horiz-adv-x="945" d="M812 560 L142 560 L43 0 L180 0 L257 441 L927 441 L969 680 L833 680 L812 560 Z " />
<glyph glyph-name="uni1E00" unicode="&#x1e00;" horiz-adv-x="1233" d="M990 0 L1170 0 L763 700 L602 700 L-55 0 L140 0 L250 119 L921 119 L990 0 Z M664 567 L848 246 L367 246 L664 567 Z M485 -164 C485 -138 508 -117 534 -117 C555 -117 572 -135 572 -156 C572 -183 548 -203 524 -203 C501 -203 485 -185 485 -164 L485 -164 Z M399 -168 C398 -229 444 -276 517 -276 C597 -276 659 -220 659 -150 C659 -90 612 -44 541 -44 C460 -44 400 -99 399 -168 L399 -168 Z " />
<glyph glyph-name="uni1E01" unicode="&#x1e01;" horiz-adv-x="1054" d="M827 0 L990 0 L640 560 L495 560 L-54 0 L120 0 L216 100 L765 100 L827 0 Z M552 448 L702 204 L317 204 L552 448 Z M394 -164 C394 -138 417 -117 443 -117 C464 -117 481 -135 481 -156 C481 -183 457 -203 433 -203 C410 -203 394 -185 394 -164 L394 -164 Z M308 -168 C307 -229 353 -276 426 -276 C506 -276 568 -220 568 -150 C568 -90 521 -44 450 -44 C369 -44 309 -99 308 -168 L308 -168 Z " />
<glyph glyph-name="uni1E02" unicode="&#x1e02;" horiz-adv-x="1208" d="M53 0 L850 0 C1038 0 1112 105 1112 219 C1112 286 1080 343 1000 363 C1086 400 1125 470 1125 554 C1125 636 1071 700 934 700 L178 700 L53 0 Z M859 287 C932 287 952 258 952 226 C952 185 922 140 835 140 L232 140 L257 287 L859 287 Z M958 500 C958 460 930 413 842 413 L280 413 L306 560 L866 560 C938 560 958 534 958 500 L958 500 Z M590 789 L728 789 L753 929 L615 929 L590 789 Z " />
<glyph glyph-name="uni1E03" unicode="&#x1e03;" horiz-adv-x="1039" d="M43 0 L726 0 C889 0 942 85 942 173 C942 229 915 274 846 291 C918 322 949 379 949 442 C949 510 907 560 792 560 L142 560 L43 0 Z M730 441 C786 441 801 425 801 400 C801 370 781 332 712 332 L239 332 L257 441 L730 441 Z M728 228 C784 228 799 212 799 187 C799 157 779 119 710 119 L201 119 L219 228 L728 228 Z M481 649 L619 649 L644 789 L506 789 L481 649 Z " />
<glyph glyph-name="uni1E04" unicode="&#x1e04;" horiz-adv-x="1208" d="M53 0 L850 0 C1038 0 1112 105 1112 219 C1112 286 1080 343 1000 363 C1086 400 1125 470 1125 554 C1125 636 1071 700 934 700 L178 700 L53 0 Z M859 287 C932 287 952 258 952 226 C952 185 922 140 835 140 L232 140 L257 287 L859 287 Z M958 500 C958 460 930 413 842 413 L280 413 L306 560 L866 560 C938 560 958 534 958 500 L958 500 Z M449 -232 L587 -232 L612 -92 L474 -92 L449 -232 Z " />
<glyph glyph-name="uni1E05" unicode="&#x1e05;" horiz-adv-x="1039" d="M43 0 L726 0 C889 0 942 85 942 173 C942 229 915 274 846 291 C918 322 949 379 949 442 C949 510 907 560 792 560 L142 560 L43 0 Z M730 441 C786 441 801 425 801 400 C801 370 781 332 712 332 L239 332 L257 441 L730 441 Z M728 228 C784 228 799 212 799 187 C799 157 779 119 710 119 L201 119 L219 228 L728 228 Z M363 -232 L501 -232 L526 -92 L388 -92 L363 -232 Z " />
<glyph glyph-name="uni1E06" unicode="&#x1e06;" horiz-adv-x="1208" d="M53 0 L850 0 C1038 0 1112 105 1112 219 C1112 286 1080 343 1000 363 C1086 400 1125 470 1125 554 C1125 636 1071 700 934 700 L178 700 L53 0 Z M859 287 C932 287 952 258 952 226 C952 185 922 140 835 140 L232 140 L257 287 L859 287 Z M958 500 C958 460 930 413 842 413 L280 413 L306 560 L866 560 C938 560 958 534 958 500 L958 500 Z M335 -210 L709 -210 L727 -112 L353 -112 L335 -210 Z " />
<glyph glyph-name="uni1E07" unicode="&#x1e07;" horiz-adv-x="1039" d="M43 0 L726 0 C889 0 942 85 942 173 C942 229 915 274 846 291 C918 322 949 379 949 442 C949 510 907 560 792 560 L142 560 L43 0 Z M730 441 C786 441 801 425 801 400 C801 370 781 332 712 332 L239 332 L257 441 L730 441 Z M728 228 C784 228 799 212 799 187 C799 157 779 119 710 119 L201 119 L219 228 L728 228 Z M249 -210 L623 -210 L641 -112 L267 -112 L249 -210 Z " />
<glyph glyph-name="uni1E08" unicode="&#x1e08;" horiz-adv-x="1136" d="M465 -131 L502 -131 C548 -131 572 -139 572 -165 C572 -207 521 -216 473 -216 C438 -216 405 -205 390 -193 L376 -260 C402 -274 447 -288 496 -288 C583 -287 676 -261 676 -158 C676 -90 608 -65 545 -71 L578 0 L1004 0 L1028 140 L456 140 C279 140 227 217 227 315 C227 428 285 560 533 560 L1104 560 L1129 700 L546 700 C200 700 62 507 62 296 C62 130 163 0 431 0 L523 0 L465 -131 Z M596 775 L701 775 L899 946 L722 946 L596 775 Z " />
<glyph glyph-name="uni1E09" unicode="&#x1e09;" horiz-adv-x="973" d="M374 -131 L411 -131 C457 -131 481 -139 481 -165 C481 -207 430 -216 382 -216 C347 -216 314 -205 299 -193 L285 -260 C311 -274 356 -288 405 -288 C492 -287 585 -261 585 -158 C585 -90 517 -65 454 -71 L487 0 L849 0 L871 119 L368 119 C235 119 192 169 192 248 C192 347 270 441 446 441 L927 441 L950 560 L454 560 C153 560 46 400 46 232 C46 102 128 0 353 0 L432 0 L374 -131 Z M481 635 L586 635 L784 806 L607 806 L481 635 Z " />
<glyph glyph-name="uni1E0A" unicode="&#x1e0a;" horiz-adv-x="1204" d="M53 0 L662 0 C1006 0 1145 193 1145 404 C1145 570 1044 700 776 700 L178 700 L53 0 Z M751 560 C928 560 980 483 980 385 C980 272 922 140 674 140 L230 140 L304 560 L751 560 Z M598 789 L736 789 L761 929 L623 929 L598 789 Z " />
<glyph glyph-name="uni1E0B" unicode="&#x1e0b;" horiz-adv-x="1036" d="M43 0 L563 0 C864 0 971 160 971 328 C971 457 888 560 664 560 L144 560 L43 0 Z M650 441 C783 441 825 391 825 312 C825 213 747 119 571 119 L202 119 L258 441 L650 441 Z M495 649 L633 649 L658 789 L520 789 L495 649 Z " />
<glyph glyph-name="uni1E0C" unicode="&#x1e0c;" horiz-adv-x="1204" d="M53 0 L662 0 C1006 0 1145 193 1145 404 C1145 570 1044 700 776 700 L178 700 L53 0 Z M751 560 C928 560 980 483 980 385 C980 272 922 140 674 140 L230 140 L304 560 L751 560 Z M418 -232 L556 -232 L581 -92 L443 -92 L418 -232 Z " />
<glyph glyph-name="uni1E0D" unicode="&#x1e0d;" horiz-adv-x="1036" d="M43 0 L563 0 C864 0 971 160 971 328 C971 457 888 560 664 560 L144 560 L43 0 Z M650 441 C783 441 825 391 825 312 C825 213 747 119 571 119 L202 119 L258 441 L650 441 Z M339 -232 L477 -232 L502 -92 L364 -92 L339 -232 Z " />
<glyph glyph-name="uni1E0E" unicode="&#x1e0e;" horiz-adv-x="1204" d="M53 0 L662 0 C1006 0 1145 193 1145 404 C1145 570 1044 700 776 700 L178 700 L53 0 Z M751 560 C928 560 980 483 980 385 C980 272 922 140 674 140 L230 140 L304 560 L751 560 Z M304 -210 L678 -210 L696 -112 L322 -112 L304 -210 Z " />
<glyph glyph-name="uni1E0F" unicode="&#x1e0f;" horiz-adv-x="1036" d="M43 0 L563 0 C864 0 971 160 971 328 C971 457 888 560 664 560 L144 560 L43 0 Z M650 441 C783 441 825 391 825 312 C825 213 747 119 571 119 L202 119 L258 441 L650 441 Z M225 -210 L599 -210 L617 -112 L243 -112 L225 -210 Z " />
<glyph glyph-name="uni1E10" unicode="&#x1e10;" horiz-adv-x="1204" d="M53 0 L662 0 C1006 0 1145 193 1145 404 C1145 570 1044 700 776 700 L178 700 L53 0 Z M751 560 C928 560 980 483 980 385 C980 272 922 140 674 140 L230 140 L304 560 L751 560 Z M426 -232 L474 -232 L386 -359 L452 -359 L563 -220 L586 -92 L451 -92 L426 -232 Z " />
<glyph glyph-name="uni1E11" unicode="&#x1e11;" horiz-adv-x="1036" d="M43 0 L563 0 C864 0 971 160 971 328 C971 457 888 560 664 560 L144 560 L43 0 Z M650 441 C783 441 825 391 825 312 C825 213 747 119 571 119 L202 119 L258 441 L650 441 Z M347 -232 L395 -232 L307 -359 L373 -359 L484 -220 L507 -92 L372 -92 L347 -232 Z " />
<glyph glyph-name="uni1E12" unicode="&#x1e12;" horiz-adv-x="1204" d="M53 0 L662 0 C1006 0 1145 193 1145 404 C1145 570 1044 700 776 700 L178 700 L53 0 Z M751 560 C928 560 980 483 980 385 C980 272 922 140 674 140 L230 140 L304 560 L751 560 Z M287 -246 L388 -246 L503 -149 L583 -246 L679 -246 L601 -75 L427 -75 L287 -246 Z " />
<glyph glyph-name="uni1E13" unicode="&#x1e13;" horiz-adv-x="1036" d="M43 0 L563 0 C864 0 971 160 971 328 C971 457 888 560 664 560 L144 560 L43 0 Z M650 441 C783 441 825 391 825 312 C825 213 747 119 571 119 L202 119 L258 441 L650 441 Z M208 -246 L309 -246 L424 -149 L504 -246 L600 -246 L522 -75 L348 -75 L208 -246 Z " />
<glyph glyph-name="uni1E14" unicode="&#x1e14;" horiz-adv-x="1150" d="M53 0 L1019 0 L1044 140 L232 140 L257 287 L971 287 L994 413 L280 413 L306 560 L1118 560 L1144 700 L178 700 L53 0 Z M721 1141 L557 1141 L690 970 L785 970 L721 1141 Z M481 811 L855 811 L873 909 L499 909 L481 811 Z " />
<glyph glyph-name="uni1E15" unicode="&#x1e15;" horiz-adv-x="991" d="M43 0 L865 0 L886 119 L201 119 L219 228 L820 228 L839 332 L239 332 L257 441 L943 441 L964 560 L142 560 L43 0 Z M619 1001 L455 1001 L588 830 L683 830 L619 1001 Z M378 671 L752 671 L770 769 L396 769 L378 671 Z " />
<glyph glyph-name="uni1E16" unicode="&#x1e16;" horiz-adv-x="1150" d="M53 0 L1019 0 L1044 140 L232 140 L257 287 L971 287 L994 413 L280 413 L306 560 L1118 560 L1144 700 L178 700 L53 0 Z M599 970 L704 970 L902 1141 L725 1141 L599 970 Z M481 811 L855 811 L873 909 L499 909 L481 811 Z " />
<glyph glyph-name="uni1E17" unicode="&#x1e17;" horiz-adv-x="991" d="M43 0 L865 0 L886 119 L201 119 L219 228 L820 228 L839 332 L239 332 L257 441 L943 441 L964 560 L142 560 L43 0 Z M497 830 L602 830 L800 1001 L623 1001 L497 830 Z M378 671 L752 671 L770 769 L396 769 L378 671 Z " />
<glyph glyph-name="uni1E18" unicode="&#x1e18;" horiz-adv-x="1150" d="M53 0 L1019 0 L1044 140 L232 140 L257 287 L971 287 L994 413 L280 413 L306 560 L1118 560 L1144 700 L178 700 L53 0 Z M284 -246 L385 -246 L500 -149 L580 -246 L676 -246 L598 -75 L424 -75 L284 -246 Z " />
<glyph glyph-name="uni1E19" unicode="&#x1e19;" horiz-adv-x="991" d="M43 0 L865 0 L886 119 L201 119 L219 228 L820 228 L839 332 L239 332 L257 441 L943 441 L964 560 L142 560 L43 0 Z M205 -246 L306 -246 L421 -149 L501 -246 L597 -246 L519 -75 L345 -75 L205 -246 Z " />
<glyph glyph-name="uni1E1A" unicode="&#x1e1a;" horiz-adv-x="1150" d="M53 0 L1019 0 L1044 140 L232 140 L257 287 L971 287 L994 413 L280 413 L306 560 L1118 560 L1144 700 L178 700 L53 0 Z M615 -79 C606 -119 592 -131 571 -131 C536 -131 500 -85 439 -85 C375 -85 327 -125 302 -243 L377 -243 C385 -204 398 -190 421 -190 C455 -190 491 -237 551 -237 C616 -237 664 -198 690 -79 L615 -79 Z " />
<glyph glyph-name="uni1E1B" unicode="&#x1e1b;" horiz-adv-x="991" d="M43 0 L865 0 L886 119 L201 119 L219 228 L820 228 L839 332 L239 332 L257 441 L943 441 L964 560 L142 560 L43 0 Z M536 -79 C527 -119 513 -131 492 -131 C457 -131 421 -85 360 -85 C296 -85 248 -125 223 -243 L298 -243 C306 -204 319 -190 342 -190 C376 -190 412 -237 472 -237 C537 -237 585 -198 611 -79 L536 -79 Z " />
<glyph glyph-name="uni1E1C" unicode="&#x1e1c;" horiz-adv-x="1150" d="M53 0 L493 0 L435 -131 L472 -131 C518 -131 542 -139 542 -165 C542 -207 491 -216 443 -216 C408 -216 375 -205 360 -193 L346 -260 C372 -274 417 -288 466 -288 C553 -287 646 -261 646 -158 C646 -90 578 -65 515 -71 L548 0 L1019 0 L1044 140 L232 140 L257 287 L971 287 L994 413 L280 413 L306 560 L1118 560 L1144 700 L178 700 L53 0 Z M675 872 C610 872 589 903 593 943 L511 943 C501 866 520 777 660 777 C800 777 851 864 870 943 L785 943 C774 903 739 872 675 872 L675 872 Z " />
<glyph glyph-name="uni1E1D" unicode="&#x1e1d;" horiz-adv-x="991" d="M43 0 L414 0 L356 -131 L393 -131 C439 -131 463 -139 463 -165 C463 -207 412 -216 364 -216 C329 -216 296 -205 281 -193 L267 -260 C293 -274 338 -288 387 -288 C474 -287 567 -261 567 -158 C567 -90 499 -65 436 -71 L469 0 L865 0 L886 119 L201 119 L219 228 L820 228 L839 332 L239 332 L257 441 L943 441 L964 560 L142 560 L43 0 Z M573 732 C508 732 487 763 491 803 L409 803 C399 726 418 637 558 637 C698 637 749 724 768 803 L683 803 C672 763 637 732 573 732 L573 732 Z " />
<glyph glyph-name="uni1E1E" unicode="&#x1e1e;" horiz-adv-x="1112" d="M53 0 L207 0 L254 270 L968 270 L994 410 L280 410 L306 560 L1118 560 L1144 700 L178 700 L53 0 Z M585 789 L723 789 L748 929 L610 929 L585 789 Z " />
<glyph glyph-name="uni1E1F" unicode="&#x1e1f;" horiz-adv-x="974" d="M43 0 L180 0 L217 212 L817 212 L839 330 L239 330 L257 441 L943 441 L964 560 L142 560 L43 0 Z M488 649 L626 649 L651 789 L513 789 L488 649 Z " />
<glyph glyph-name="uni1E20" unicode="&#x1e20;" horiz-adv-x="1205" d="M623 287 L959 287 L933 140 L456 140 C279 140 227 217 227 315 C227 428 284 560 533 560 L1104 560 L1129 700 L546 700 C200 700 62 507 62 296 C62 130 163 0 431 0 L1057 0 L1130 413 L647 413 L623 287 Z M521 811 L895 811 L913 909 L539 909 L521 811 Z " />
<glyph glyph-name="uni1E21" unicode="&#x1e21;" horiz-adv-x="1035" d="M781 119 L368 119 C235 119 192 169 192 248 C192 347 270 441 446 441 L927 441 L948 560 L454 560 C153 560 46 400 46 232 C46 102 128 0 353 0 L894 0 L952 332 L540 332 L519 228 L799 228 L781 119 Z M400 671 L774 671 L792 769 L418 769 L400 671 Z " />
<glyph glyph-name="uni1E22" unicode="&#x1e22;" horiz-adv-x="1252" d="M926 0 L1080 0 L1205 700 L1051 700 L1001 420 L281 420 L332 700 L178 700 L53 0 L207 0 L255 280 L975 280 L926 0 Z M636 789 L774 789 L799 929 L661 929 L636 789 Z " />
<glyph glyph-name="uni1E23" unicode="&#x1e23;" horiz-adv-x="1080" d="M781 0 L918 0 L1017 560 L880 560 L841 340 L241 340 L279 560 L142 560 L43 0 L180 0 L218 220 L818 220 L781 0 Z M526 649 L664 649 L689 789 L551 789 L526 649 Z " />
<glyph glyph-name="uni1E24" unicode="&#x1e24;" horiz-adv-x="1252" d="M926 0 L1080 0 L1205 700 L1051 700 L1001 420 L281 420 L332 700 L178 700 L53 0 L207 0 L255 280 L975 280 L926 0 Z M456 -232 L594 -232 L619 -92 L481 -92 L456 -232 Z " />
<glyph glyph-name="uni1E25" unicode="&#x1e25;" horiz-adv-x="1080" d="M781 0 L918 0 L1017 560 L880 560 L841 340 L241 340 L279 560 L142 560 L43 0 L180 0 L218 220 L818 220 L781 0 Z M370 -232 L508 -232 L533 -92 L395 -92 L370 -232 Z " />
<glyph glyph-name="uni1E26" unicode="&#x1e26;" horiz-adv-x="1252" d="M926 0 L1080 0 L1205 700 L1051 700 L1001 420 L281 420 L332 700 L178 700 L53 0 L207 0 L255 280 L975 280 L926 0 Z M774 789 L913 789 L938 929 L799 929 L774 789 Z M494 789 L633 789 L658 929 L518 929 L494 789 Z " />
<glyph glyph-name="uni1E27" unicode="&#x1e27;" horiz-adv-x="1080" d="M781 0 L918 0 L1017 560 L880 560 L841 340 L241 340 L279 560 L142 560 L43 0 L180 0 L218 220 L818 220 L781 0 Z M664 649 L803 649 L828 789 L689 789 L664 649 Z M384 649 L523 649 L548 789 L408 789 L384 649 Z " />
<glyph glyph-name="uni1E28" unicode="&#x1e28;" horiz-adv-x="1252" d="M36 -131 L73 -131 C119 -131 143 -139 143 -165 C143 -207 92 -216 44 -216 C9 -216 -24 -205 -39 -193 L-53 -260 C-27 -274 18 -288 67 -288 C154 -287 247 -261 247 -158 C247 -90 179 -65 116 -71 L149 0 L207 0 L255 280 L975 280 L926 0 L1080 0 L1205 700 L1051 700 L1001 420 L281 420 L332 700 L178 700 L53 0 L94 0 L36 -131 Z " />
<glyph glyph-name="uni1E29" unicode="&#x1e29;" horiz-adv-x="1080" d="M19 -131 L56 -131 C102 -131 126 -139 126 -165 C126 -207 75 -216 27 -216 C-8 -216 -41 -205 -56 -193 L-70 -260 C-44 -274 1 -288 50 -288 C137 -287 230 -261 230 -158 C230 -90 162 -65 99 -71 L132 0 L180 0 L218 220 L818 220 L781 0 L918 0 L1017 560 L880 560 L841 340 L241 340 L279 560 L142 560 L43 0 L77 0 L19 -131 Z " />
<glyph glyph-name="uni1E2A" unicode="&#x1e2a;" horiz-adv-x="1252" d="M926 0 L1080 0 L1205 700 L1051 700 L1001 420 L281 420 L332 700 L178 700 L53 0 L207 0 L255 280 L975 280 L926 0 Z M536 -149 C471 -149 450 -118 454 -78 L372 -78 C362 -155 381 -244 521 -244 C661 -244 712 -157 731 -78 L646 -78 C635 -118 600 -149 536 -149 L536 -149 Z " />
<glyph glyph-name="uni1E2B" unicode="&#x1e2b;" horiz-adv-x="1080" d="M781 0 L918 0 L1017 560 L880 560 L841 340 L241 340 L279 560 L142 560 L43 0 L180 0 L218 220 L818 220 L781 0 Z M450 -149 C385 -149 364 -118 368 -78 L286 -78 C276 -155 295 -244 435 -244 C575 -244 626 -157 645 -78 L560 -78 C549 -118 514 -149 450 -149 L450 -149 Z " />
<glyph glyph-name="uni1E2C" unicode="&#x1e2c;" horiz-adv-x="379" d="M53 0 L207 0 L332 700 L178 700 L53 0 Z M217 -79 C208 -119 194 -131 173 -131 C138 -131 102 -85 41 -85 C-23 -85 -71 -125 -96 -243 L-21 -243 C-13 -204 0 -190 23 -190 C57 -190 93 -237 153 -237 C218 -237 266 -198 292 -79 L217 -79 Z " />
<glyph glyph-name="uni1E2D" unicode="&#x1e2d;" horiz-adv-x="342" d="M43 0 L180 0 L279 560 L142 560 L43 0 Z M200 -79 C191 -119 177 -131 156 -131 C121 -131 85 -85 24 -85 C-40 -85 -88 -125 -113 -243 L-38 -243 C-30 -204 -17 -190 6 -190 C40 -190 76 -237 136 -237 C201 -237 249 -198 275 -79 L200 -79 Z " />
<glyph glyph-name="uni1E2E" unicode="&#x1e2e;" horiz-adv-x="379" d="M53 0 L207 0 L332 700 L178 700 L53 0 Z M203 979 L308 979 L506 1150 L329 1150 L203 979 Z M336 789 L475 789 L500 929 L361 929 L336 789 Z M56 789 L195 789 L220 929 L80 929 L56 789 Z " />
<glyph glyph-name="uni1E2F" unicode="&#x1e2f;" horiz-adv-x="342" d="M163 839 L268 839 L466 1010 L289 1010 L163 839 Z M294 649 L433 649 L458 789 L319 789 L294 649 Z M14 649 L153 649 L178 789 L38 789 L14 649 Z M43 0 L180 0 L279 560 L142 560 L43 0 Z " />
<glyph glyph-name="uni1E30" unicode="&#x1e30;" horiz-adv-x="1245" d="M1223 700 L955 700 L259 301 L329 700 L178 700 L53 0 L204 0 L229 134 L540 311 L949 0 L1186 0 L673 387 L1223 700 Z M565 775 L670 775 L868 946 L691 946 L565 775 Z " />
<glyph glyph-name="uni1E31" unicode="&#x1e31;" horiz-adv-x="1072" d="M1039 560 L791 560 L223 248 L279 560 L142 560 L43 0 L180 0 L198 102 L458 243 L795 0 L1009 0 L578 309 L1039 560 Z M458 635 L563 635 L761 806 L584 806 L458 635 Z " />
<glyph glyph-name="uni1E32" unicode="&#x1e32;" horiz-adv-x="1245" d="M1223 700 L955 700 L259 301 L329 700 L178 700 L53 0 L204 0 L229 134 L540 311 L949 0 L1186 0 L673 387 L1223 700 Z M445 -232 L583 -232 L608 -92 L470 -92 L445 -232 Z " />
<glyph glyph-name="uni1E33" unicode="&#x1e33;" horiz-adv-x="1072" d="M1039 560 L791 560 L223 248 L279 560 L142 560 L43 0 L180 0 L198 102 L458 243 L795 0 L1009 0 L578 309 L1039 560 Z M359 -232 L497 -232 L522 -92 L384 -92 L359 -232 Z " />
<glyph glyph-name="uni1E34" unicode="&#x1e34;" horiz-adv-x="1245" d="M1223 700 L955 700 L259 301 L329 700 L178 700 L53 0 L204 0 L229 134 L540 311 L949 0 L1186 0 L673 387 L1223 700 Z M331 -210 L705 -210 L723 -112 L349 -112 L331 -210 Z " />
<glyph glyph-name="uni1E35" unicode="&#x1e35;" horiz-adv-x="1072" d="M1039 560 L791 560 L223 248 L279 560 L142 560 L43 0 L180 0 L198 102 L458 243 L795 0 L1009 0 L578 309 L1039 560 Z M245 -210 L619 -210 L637 -112 L263 -112 L245 -210 Z " />
<glyph glyph-name="uni1E36" unicode="&#x1e36;" horiz-adv-x="1083" d="M332 700 L178 700 L53 0 L1000 0 L1024 140 L232 140 L332 700 Z M414 -232 L552 -232 L577 -92 L439 -92 L414 -232 Z " />
<glyph glyph-name="uni1E37" unicode="&#x1e37;" horiz-adv-x="945" d="M279 560 L142 560 L43 0 L849 0 L870 119 L201 119 L279 560 Z M341 -232 L479 -232 L504 -92 L366 -92 L341 -232 Z " />
<glyph glyph-name="uni1E38" unicode="&#x1e38;" horiz-adv-x="1083" d="M332 700 L178 700 L53 0 L1000 0 L1024 140 L232 140 L332 700 Z M113 811 L487 811 L505 909 L131 909 L113 811 Z M414 -232 L552 -232 L577 -92 L439 -92 L414 -232 Z " />
<glyph glyph-name="uni1E39" unicode="&#x1e39;" horiz-adv-x="945" d="M279 560 L142 560 L43 0 L849 0 L870 119 L201 119 L279 560 Z M71 671 L445 671 L463 769 L89 769 L71 671 Z M341 -232 L479 -232 L504 -92 L366 -92 L341 -232 Z " />
<glyph glyph-name="uni1E3A" unicode="&#x1e3a;" horiz-adv-x="1083" d="M332 700 L178 700 L53 0 L1000 0 L1024 140 L232 140 L332 700 Z M300 -210 L674 -210 L692 -112 L318 -112 L300 -210 Z " />
<glyph glyph-name="uni1E3B" unicode="&#x1e3b;" horiz-adv-x="945" d="M279 560 L142 560 L43 0 L849 0 L870 119 L201 119 L279 560 Z M227 -210 L601 -210 L619 -112 L245 -112 L227 -210 Z " />
<glyph glyph-name="uni1E3C" unicode="&#x1e3c;" horiz-adv-x="1083" d="M332 700 L178 700 L53 0 L1000 0 L1024 140 L232 140 L332 700 Z M283 -246 L384 -246 L499 -149 L579 -246 L675 -246 L597 -75 L423 -75 L283 -246 Z " />
</font>
</svg>
