<?xml version="1.0" encoding="UTF-8"?>
<svg xmlns="http://www.w3.org/2000/svg" xmlns:xlink="http://www.w3.org/1999/xlink" version="1.2" >
<font id="Stereo Gothic 500">
<font-face  font-family="Stereo Gothic" units-per-em="1000" ascent="700" descent="-300" font-style="normal" font-weight="500" font-stretch="normal" cap-height="700" x-height="560" underline-position="-75" underline-thickness="50" />
<missing-glyph  horiz-adv-x="1000" d="M150 0 L850 0 L850 700 L150 700 L150 0 Z M224 42 L805 623 L804 42 L224 42 Z M196 658 L776 658 L196 78 L196 658 Z " />
<glyph glyph-name="NULL" d="" />
<glyph glyph-name="CR" unicode="&#xd;" horiz-adv-x="250" d="" />
<glyph glyph-name="space" unicode="&#x20;" horiz-adv-x="500" d="" />
<glyph glyph-name="exclam" unicode="&#x21;" horiz-adv-x="352" d="M116 0 L235 0 L235 119 L116 119 L116 0 Z M126 185 L225 185 L231 700 L120 700 L126 185 Z " />
<glyph glyph-name="quotedbl" unicode="&#x22;" horiz-adv-x="552" d="M117 400 L198 400 L215 700 L100 700 L117 400 Z M354 400 L435 400 L452 700 L337 700 L354 400 Z " />
<glyph glyph-name="numbersign" unicode="&#x23;" horiz-adv-x="1298" d="M905 0 L1004 0 L1022 173 L1176 173 L1176 263 L1031 263 L1050 437 L1206 437 L1206 527 L1059 527 L1077 700 L978 700 L960 527 L374 527 L392 700 L293 700 L275 527 L122 527 L122 437 L266 437 L247 263 L92 263 L92 173 L238 173 L220 0 L319 0 L337 173 L923 173 L905 0 Z M365 437 L950 437 L932 263 L347 263 L365 437 Z " />
<glyph glyph-name="dollar" unicode="&#x24;" horiz-adv-x="1298" d="M599 -20 L699 -20 L699 70 L966 70 C1113 70 1171 142 1171 232 C1171 321 1113 390 966 390 L699 390 L699 539 L1139 539 L1139 630 L699 630 L699 721 L599 721 L599 630 L331 630 C184 630 127 557 127 468 C127 379 184 310 331 310 L599 310 L599 161 L159 161 L159 70 L599 70 L599 -20 Z M959 310 C1042 310 1066 277 1066 236 C1066 195 1040 161 959 161 L699 161 L699 310 L959 310 Z M232 464 C232 505 257 539 338 539 L599 539 L599 390 L338 390 C257 390 232 423 232 464 L232 464 Z " />
<glyph glyph-name="percent" unicode="&#x25;" horiz-adv-x="1298" d="M1007 700 L177 0 L291 0 L1121 700 L1007 700 Z M97 474 C97 405 141 350 253 350 L420 350 C532 350 576 405 576 474 L576 576 C576 645 532 700 420 700 L253 700 C141 700 97 645 97 576 L97 474 Z M423 627 C482 627 495 601 495 572 L495 478 C495 449 482 423 423 423 L250 423 C191 423 178 449 178 478 L178 572 C178 601 191 627 250 627 L423 627 Z M722 124 C722 55 766 0 878 0 L1045 0 C1157 0 1201 55 1201 124 L1201 226 C1201 295 1157 350 1045 350 L878 350 C766 350 722 295 722 226 L722 124 Z M1048 277 C1107 277 1120 251 1120 222 L1120 128 C1120 99 1107 73 1048 73 L875 73 C816 73 803 99 803 128 L803 222 C803 251 816 277 875 277 L1048 277 Z " />
<glyph glyph-name="ampersand" unicode="&#x26;" horiz-adv-x="1316" d="M325 0 L985 0 C1137 0 1196 73 1196 166 C1196 225 1171 278 1112 305 L1246 305 L1246 395 L394 395 C287 395 255 443 255 498 C255 553 288 600 399 600 L1023 600 L1023 700 L371 700 C206 700 142 621 142 520 C142 450 174 389 250 361 C137 340 92 269 92 184 C92 82 157 0 325 0 L325 0 Z M939 100 L353 100 C242 100 209 147 209 202 C209 257 241 305 346 305 L945 305 C1051 305 1082 257 1082 202 C1082 147 1050 100 939 100 L939 100 Z " />
<glyph glyph-name="quotesingle" unicode="&#x27;" horiz-adv-x="315" d="M117 400 L198 400 L215 700 L100 700 L117 400 Z " />
<glyph glyph-name="parenleft" unicode="&#x28;" horiz-adv-x="497" d="M418 -116 C184 158 184 542 418 815 L327 815 C64 547 64 153 327 -116 L418 -116 Z " />
<glyph glyph-name="parenright" unicode="&#x29;" horiz-adv-x="497" d="M170 -116 C433 153 433 547 170 815 L79 815 C313 542 313 158 79 -116 L170 -116 Z " />
<glyph glyph-name="asterisk" unicode="&#x2a;" horiz-adv-x="595" d="M541 484 L510 584 L327 499 L349 700 L246 700 L268 498 L86 584 L54 485 L250 444 L115 297 L199 236 L298 409 L396 236 L481 296 L344 443 L541 484 Z " />
<glyph glyph-name="plus" unicode="&#x2b;" horiz-adv-x="1298" d="M287 300 L594 300 L594 30 L704 30 L704 300 L1011 300 L1011 400 L704 400 L704 670 L594 670 L594 400 L287 400 L287 300 Z " />
<glyph glyph-name="comma" unicode="&#x2c;" horiz-adv-x="313" d="M97 0 L150 0 L98 -127 L148 -127 L216 8 L216 119 L97 119 L97 0 Z " />
<glyph glyph-name="hyphen" unicode="&#x2d;" horiz-adv-x="600" d="M92 230 L508 230 L508 330 L92 330 L92 230 Z " />
<glyph glyph-name="period" unicode="&#x2e;" horiz-adv-x="313" d="M97 0 L216 0 L216 119 L97 119 L97 0 Z " />
<glyph glyph-name="slash" unicode="&#x2f;" horiz-adv-x="565" d="M-18 -76 L81 -76 L583 776 L484 776 L-18 -76 Z " />
<glyph glyph-name="zero" unicode="0" horiz-adv-x="1298" d="M102 248 C102 111 190 0 414 0 L884 0 C1108 0 1196 111 1196 248 L1196 452 C1196 589 1108 700 884 700 L414 700 C190 700 102 589 102 452 L102 248 Z M888 600 C1040 600 1086 529 1086 447 L1086 253 C1086 171 1040 100 888 100 L410 100 C258 100 212 171 212 253 L212 447 C212 529 258 600 410 600 L888 600 Z " />
<glyph glyph-name="one" unicode="1" horiz-adv-x="1298" d="M381 600 L654 600 L654 100 L231 100 L231 0 L1067 0 L1067 100 L764 100 L764 700 L381 700 L381 600 Z " />
<glyph glyph-name="two" unicode="2" horiz-adv-x="1298" d="M1176 100 L212 100 L212 199 C212 256 247 305 353 305 L953 305 C1136 305 1206 390 1206 502 C1206 612 1136 700 953 700 L142 700 L142 600 L950 600 C1061 600 1091 553 1091 498 C1091 441 1061 395 950 395 L349 395 C172 395 102 312 102 201 L102 0 L1176 0 L1176 100 Z " />
<glyph glyph-name="three" unicode="3" horiz-adv-x="1298" d="M82 0 L968 0 C1136 0 1201 82 1201 184 C1201 269 1156 340 1043 361 C1119 389 1151 450 1151 520 C1151 621 1087 700 922 700 L102 700 L102 600 L894 600 C1005 600 1038 553 1038 497 C1038 442 1006 395 899 395 L189 395 L189 305 L940 305 C1051 305 1084 258 1084 203 C1084 147 1051 100 940 100 L82 100 L82 0 Z " />
<glyph glyph-name="four" unicode="4" horiz-adv-x="1298" d="M1019 700 L73 205 L73 121 L1014 121 L1014 0 L1124 0 L1124 121 L1235 121 L1235 221 L1124 221 L1124 700 L1019 700 Z M291 221 L1014 595 L1014 221 L291 221 Z " />
<glyph glyph-name="five" unicode="5" horiz-adv-x="1298" d="M102 305 L950 305 C1061 305 1091 259 1091 202 C1091 147 1061 100 950 100 L120 100 L120 0 L953 0 C1136 0 1206 88 1206 198 C1206 310 1136 395 953 395 L210 395 L226 600 L1166 600 L1166 700 L133 700 L102 305 Z " />
<glyph glyph-name="six" unicode="6" horiz-adv-x="1298" d="M211 350 C211 488 306 600 551 600 L1156 600 L1156 700 L542 700 C225 700 101 543 101 350 L101 248 C101 111 189 0 413 0 L968 0 C1151 0 1221 88 1221 198 C1221 310 1151 395 968 395 L394 395 C301 395 242 368 211 325 L211 350 Z M358 305 L965 305 C1076 305 1106 259 1106 202 C1106 147 1075 100 965 100 L414 100 C278 100 223 154 213 224 C221 270 261 305 358 305 L358 305 Z " />
<glyph glyph-name="seven" unicode="7" horiz-adv-x="1298" d="M532 0 L1206 612 L1206 700 L82 700 L82 600 L1044 600 L370 0 L532 0 Z " />
<glyph glyph-name="eight" unicode="8" horiz-adv-x="1298" d="M985 0 C1153 0 1218 82 1218 184 C1218 269 1173 340 1060 361 C1136 389 1168 450 1168 520 C1168 621 1104 700 939 700 L359 700 C194 700 130 621 130 520 C130 450 162 389 238 361 C125 340 80 269 80 184 C80 82 145 0 313 0 L985 0 Z M1101 202 C1101 147 1068 100 957 100 L341 100 C230 100 197 147 197 202 C197 258 230 305 341 305 L957 305 C1068 305 1101 258 1101 202 L1101 202 Z M916 395 L382 395 C275 395 243 442 243 498 C243 553 276 600 387 600 L911 600 C1022 600 1055 553 1055 498 C1055 443 1023 395 916 395 L916 395 Z " />
<glyph glyph-name="nine" unicode="9" horiz-adv-x="1298" d="M747 100 L142 100 L142 0 L756 0 C1073 0 1197 157 1197 350 L1197 452 C1197 589 1109 700 885 700 L330 700 C147 700 77 612 77 502 C77 390 147 305 330 305 L904 305 C997 305 1055 332 1087 374 L1087 350 C1087 212 992 100 747 100 L747 100 Z M940 395 L333 395 C222 395 192 441 192 498 C192 553 223 600 333 600 L884 600 C1018 600 1074 547 1085 476 C1076 430 1037 395 940 395 L940 395 Z " />
<glyph glyph-name="colon" unicode="&#x3a;" horiz-adv-x="313" d="M97 441 L216 441 L216 560 L97 560 L97 441 Z M97 0 L216 0 L216 119 L97 119 L97 0 Z " />
<glyph glyph-name="semicolon" unicode="&#x3b;" horiz-adv-x="313" d="M97 0 L150 0 L98 -127 L148 -127 L216 8 L216 119 L97 119 L97 0 Z M97 441 L216 441 L216 560 L97 560 L97 441 Z " />
<glyph glyph-name="less" unicode="&#x3c;" horiz-adv-x="1298" d="M1001 126 L431 349 L1001 574 L1001 682 L297 402 L297 298 L1001 18 L1001 126 Z " />
<glyph glyph-name="equal" unicode="&#x3d;" horiz-adv-x="1298" d="M287 141 L1011 141 L1011 241 L287 241 L287 141 Z M287 459 L1011 459 L1011 559 L287 559 L287 459 Z " />
<glyph glyph-name="greater" unicode="&#x3e;" horiz-adv-x="1298" d="M297 18 L1001 298 L1001 402 L297 682 L297 574 L867 349 L297 126 L297 18 Z " />
<glyph glyph-name="question" unicode="&#x3f;" horiz-adv-x="1070" d="M316 185 L416 185 L416 307 L785 307 C968 307 1038 392 1038 503 C1038 613 968 700 785 700 L30 700 L30 600 L780 600 C891 600 922 551 922 497 C922 440 891 393 780 393 L316 393 L316 185 Z M307 0 L426 0 L426 119 L307 119 L307 0 Z " />
<glyph glyph-name="at" unicode="&#x40;" horiz-adv-x="1398" d="M726 420 L643 420 C447 420 371 323 371 205 C371 87 447 -10 643 -10 L726 -10 C836 -10 902 27 936 83 L945 0 L1232 0 C1293 67 1319 154 1319 248 C1319 462 1182 635 831 635 L621 635 C232 635 79 443 79 205 C79 -32 232 -224 621 -224 L774 -224 L774 -145 L622 -145 C290 -145 173 12 173 205 C173 399 292 556 624 556 L828 556 C1122 556 1225 418 1225 248 C1225 185 1213 127 1179 79 L1005 79 L1005 410 L945 410 L936 327 C903 383 837 420 726 420 L726 420 Z M644 69 C505 69 463 131 463 205 C463 279 505 341 644 341 L730 341 C873 341 916 278 916 202 C916 128 868 69 731 69 L644 69 Z " />
<glyph glyph-name="A" unicode="A" horiz-adv-x="1276" d="M1130 0 L1266 0 L697 700 L579 700 L10 0 L146 0 L253 132 L1023 132 L1130 0 Z M638 607 L949 223 L327 223 L638 607 Z " />
<glyph glyph-name="B" unicode="B" horiz-adv-x="1259" d="M122 0 L946 0 C1114 0 1179 82 1179 184 C1179 269 1134 340 1021 361 C1097 389 1129 450 1129 520 C1129 621 1065 700 900 700 L122 700 L122 0 Z M918 305 C1029 305 1062 258 1062 202 C1062 147 1029 100 918 100 L232 100 L232 305 L918 305 Z M1016 498 C1016 443 984 395 877 395 L232 395 L232 600 L872 600 C981 600 1016 554 1016 498 L1016 498 Z " />
<glyph glyph-name="C" unicode="C" horiz-adv-x="1184" d="M192 350 C192 488 272 600 517 600 L1104 600 L1104 700 L516 700 C199 700 75 543 75 350 C75 157 199 0 516 0 L1104 0 L1104 100 L517 100 C272 100 192 212 192 350 L192 350 Z " />
<glyph glyph-name="D" unicode="D" horiz-adv-x="1255" d="M122 0 L739 0 C1056 0 1180 157 1180 350 C1180 543 1056 700 739 700 L122 700 L122 0 Z M738 600 C983 600 1063 488 1063 350 C1063 212 983 100 738 100 L232 100 L232 600 L738 600 Z " />
<glyph glyph-name="E" unicode="E" horiz-adv-x="1199" d="M122 0 L1119 0 L1119 100 L232 100 L232 305 L1017 305 L1017 395 L232 395 L232 600 L1119 600 L1119 700 L122 700 L122 0 Z " />
<glyph glyph-name="F" unicode="F" horiz-adv-x="1159" d="M122 0 L232 0 L232 293 L1017 293 L1017 393 L232 393 L232 600 L1119 600 L1119 700 L122 700 L122 0 Z " />
<glyph glyph-name="G" unicode="G" horiz-adv-x="1256" d="M664 305 L1051 305 L1051 100 L517 100 C272 100 192 212 192 350 C192 488 272 600 517 600 L1104 600 L1104 700 L516 700 C199 700 75 543 75 350 C75 157 199 0 516 0 L1159 0 L1159 395 L664 395 L664 305 Z " />
<glyph glyph-name="H" unicode="H" horiz-adv-x="1305" d="M1073 0 L1183 0 L1183 700 L1073 700 L1073 400 L232 400 L232 700 L122 700 L122 0 L232 0 L232 300 L1073 300 L1073 0 Z " />
<glyph glyph-name="I" unicode="I" horiz-adv-x="354" d="M122 0 L232 0 L232 700 L122 700 L122 0 Z " />
<glyph glyph-name="J" unicode="J" horiz-adv-x="1211" d="M385 -5 L688 -5 C1005 -5 1109 132 1109 325 L1109 700 L999 700 L999 325 C999 189 929 95 687 95 L386 95 C206 95 152 176 152 275 L152 326 L42 326 L42 275 C42 121 131 -5 385 -5 L385 -5 Z " />
<glyph glyph-name="K" unicode="K" horiz-adv-x="1292" d="M1196 700 L1003 700 L232 254 L232 700 L122 700 L122 0 L232 0 L232 144 L547 326 L1098 0 L1287 0 L645 382 L1196 700 Z " />
<glyph glyph-name="L" unicode="L" horiz-adv-x="1129" d="M232 700 L122 700 L122 0 L1099 0 L1099 100 L232 100 L232 700 Z " />
<glyph glyph-name="M" unicode="M" horiz-adv-x="1450" d="M1223 700 L725 176 L227 700 L122 700 L122 0 L232 0 L232 548 L725 27 L1218 548 L1218 0 L1328 0 L1328 700 L1223 700 Z " />
<glyph glyph-name="N" unicode="N" horiz-adv-x="1306" d="M1080 0 L1184 0 L1184 700 L1074 700 L1074 129 L226 700 L122 700 L122 0 L232 0 L232 571 L1080 0 Z " />
<glyph glyph-name="O" unicode="O" horiz-adv-x="1348" d="M819 -10 C1145 -10 1273 151 1273 350 C1273 549 1145 710 819 710 L529 710 C203 710 75 549 75 350 C75 151 203 -10 529 -10 L819 -10 Z M530 90 C276 90 192 206 192 350 C192 494 276 610 531 610 L818 610 C1072 610 1156 494 1156 350 C1156 206 1072 90 818 90 L530 90 Z " />
<glyph glyph-name="P" unicode="P" horiz-adv-x="1196" d="M122 0 L232 0 L232 260 L885 260 C1087 260 1164 356 1164 480 C1164 601 1087 700 885 700 L122 700 L122 0 Z M883 600 C1012 600 1049 546 1049 480 C1049 412 1012 360 883 360 L232 360 L232 600 L883 600 Z " />
<glyph glyph-name="Q" unicode="Q" horiz-adv-x="1348" d="M819 -10 C867 -10 912 -6 952 0 L1159 -110 L1347 -110 L1070 34 C1213 95 1273 214 1273 350 C1273 549 1145 710 819 710 L529 710 C203 710 75 549 75 350 C75 151 203 -10 529 -10 L819 -10 Z M529 90 C275 90 192 206 192 350 C192 494 276 610 530 610 L818 610 C1072 610 1156 494 1156 350 C1156 206 1072 90 818 90 L529 90 Z " />
<glyph glyph-name="R" unicode="R" horiz-adv-x="1278" d="M122 0 L232 0 L232 262 L648 262 L1088 0 L1273 0 L821 263 L871 263 C1071 263 1150 359 1150 482 C1150 602 1071 700 871 700 L122 700 L122 0 Z M867 600 C996 600 1035 545 1035 479 C1035 412 996 358 867 358 L232 358 L232 600 L867 600 Z " />
<glyph glyph-name="S" unicode="S" horiz-adv-x="1207" d="M112 0 L882 0 C1065 0 1135 88 1135 198 C1135 310 1065 395 882 395 L328 395 C217 395 187 441 187 498 C187 553 217 600 328 600 L1095 600 L1095 700 L325 700 C142 700 72 612 72 502 C72 390 142 305 325 305 L879 305 C990 305 1020 259 1020 202 C1020 147 990 100 879 100 L112 100 L112 0 Z " />
<glyph glyph-name="T" unicode="T" horiz-adv-x="1184" d="M30 600 L537 600 L537 0 L647 0 L647 600 L1154 600 L1154 700 L30 700 L30 600 Z " />
<glyph glyph-name="U" unicode="U" horiz-adv-x="1275" d="M212 323 L212 700 L102 700 L102 323 C102 130 206 -10 523 -10 L752 -10 C1069 -10 1173 130 1173 323 L1173 700 L1063 700 L1063 323 C1063 187 993 90 751 90 L524 90 C282 90 212 187 212 323 L212 323 Z " />
<glyph glyph-name="V" unicode="V" horiz-adv-x="1276" d="M697 0 L1266 700 L1126 700 L638 93 L150 700 L10 700 L579 0 L697 0 Z " />
<glyph glyph-name="W" unicode="W" horiz-adv-x="1618" d="M809 563 L1120 0 L1202 0 L1596 700 L1464 700 L1159 137 L850 700 L768 700 L459 137 L154 700 L22 700 L416 0 L498 0 L809 563 Z " />
<glyph glyph-name="X" unicode="X" horiz-adv-x="1228" d="M19 700 L525 352 L14 0 L190 0 L614 295 L1038 0 L1214 0 L703 352 L1209 700 L1033 700 L614 408 L195 700 L19 700 Z " />
<glyph glyph-name="Y" unicode="Y" horiz-adv-x="1249" d="M570 0 L680 0 L680 211 L1249 700 L1086 700 L625 299 L163 700 L0 700 L570 211 L570 0 Z " />
<glyph glyph-name="Z" unicode="Z" horiz-adv-x="1197" d="M72 0 L1135 0 L1135 100 L287 100 L1115 622 L1115 700 L82 700 L82 600 L899 600 L72 78 L72 0 Z " />
<glyph glyph-name="bracketleft" unicode="&#x5b;" horiz-adv-x="497" d="M131 -150 L446 -150 L446 -70 L240 -70 L240 770 L446 770 L446 850 L131 850 L131 -150 Z " />
<glyph glyph-name="backslash" unicode="&#x5c;" horiz-adv-x="565" d="M81 776 L-18 776 L484 -76 L583 -76 L81 776 Z " />
<glyph glyph-name="bracketright" unicode="&#x5d;" horiz-adv-x="497" d="M366 850 L51 850 L51 770 L257 770 L257 -70 L51 -70 L51 -150 L366 -150 L366 850 Z " />
<glyph glyph-name="asciicircum" unicode="&#x5e;" horiz-adv-x="1298" d="M941 350 L1076 350 L708 800 L590 800 L222 350 L357 350 L649 705 L941 350 Z " />
<glyph glyph-name="underscore" unicode="&#x5f;" horiz-adv-x="500" d="M0 -159 L500 -159 L500 -67 L0 -67 L0 -159 Z " />
<glyph glyph-name="grave" unicode="&#x60;" horiz-adv-x="500" d="M222 806 L96 806 L256 635 L327 635 L222 806 Z " />
<glyph glyph-name="a" unicode="a" horiz-adv-x="1091" d="M959 0 L1080 0 L598 560 L493 560 L11 0 L133 0 L227 110 L864 110 L959 0 Z M545 480 L798 186 L292 186 L545 480 Z " />
<glyph glyph-name="b" unicode="b" horiz-adv-x="1083" d="M112 0 L819 0 C963 0 1011 65 1011 147 C1011 215 975 272 881 289 C944 312 969 360 969 416 C969 497 921 560 781 560 L112 560 L112 0 Z M793 242 C884 242 905 207 905 164 C905 121 884 86 793 86 L211 86 L211 242 L793 242 Z M757 318 L211 318 L211 474 L753 474 C843 474 866 439 866 396 C866 353 845 318 757 318 L757 318 Z " />
<glyph glyph-name="c" unicode="c" horiz-adv-x="1015" d="M173 280 C173 387 230 474 435 474 L943 474 L943 560 L435 560 C165 560 68 434 68 280 C68 126 165 0 435 0 L943 0 L943 86 L435 86 C230 86 173 173 173 280 L173 280 Z " />
<glyph glyph-name="d" unicode="d" horiz-adv-x="1080" d="M112 0 L645 0 C915 0 1012 126 1012 280 C1012 434 915 560 645 560 L112 560 L112 0 Z M645 474 C850 474 908 387 908 280 C908 173 850 86 645 86 L211 86 L211 474 L645 474 Z " />
<glyph glyph-name="e" unicode="e" horiz-adv-x="1033" d="M112 0 L960 0 L960 86 L211 86 L211 242 L873 242 L873 318 L211 318 L211 474 L960 474 L960 560 L112 560 L112 0 Z " />
<glyph glyph-name="f" unicode="f" horiz-adv-x="1016" d="M112 0 L211 0 L211 231 L873 231 L873 317 L211 317 L211 474 L960 474 L960 560 L112 560 L112 0 Z " />
<glyph glyph-name="g" unicode="g" horiz-adv-x="1080" d="M568 242 L893 242 L893 86 L435 86 C230 86 173 173 173 280 C173 387 230 474 435 474 L943 474 L943 560 L435 560 C165 560 68 434 68 280 C68 126 165 0 435 0 L990 0 L990 318 L568 318 L568 242 Z " />
<glyph glyph-name="h" unicode="h" horiz-adv-x="1127" d="M916 0 L1015 0 L1015 560 L916 560 L916 323 L211 323 L211 560 L112 560 L112 0 L211 0 L211 237 L916 237 L916 0 Z " />
<glyph glyph-name="i" unicode="i" horiz-adv-x="323" d="M112 0 L211 0 L211 560 L112 560 L112 0 Z " />
<glyph glyph-name="j" unicode="j" horiz-adv-x="1042" d="M328 -4 L600 -4 C870 -4 950 106 950 260 L950 560 L852 560 L852 260 C852 155 802 82 600 82 L329 82 C179 82 141 144 141 220 L141 262 L42 262 L42 220 C42 97 112 -4 328 -4 L328 -4 Z " />
<glyph glyph-name="k" unicode="k" horiz-adv-x="1114" d="M1033 560 L853 560 L211 210 L211 560 L112 560 L112 0 L211 0 L211 114 L476 258 L934 0 L1104 0 L564 305 L1033 560 Z " />
<glyph glyph-name="l" unicode="l" horiz-adv-x="986" d="M211 560 L112 560 L112 0 L943 0 L943 86 L211 86 L211 560 Z " />
<glyph glyph-name="m" unicode="m" horiz-adv-x="1251" d="M1044 560 L625 149 L206 560 L112 560 L112 0 L211 0 L211 429 L625 20 L1040 429 L1040 0 L1139 0 L1139 560 L1044 560 Z " />
<glyph glyph-name="n" unicode="n" horiz-adv-x="1128" d="M1016 0 L1016 560 L917 560 L917 111 L206 560 L112 560 L112 0 L211 0 L211 449 L922 0 L1016 0 Z " />
<glyph glyph-name="o" unicode="o" horiz-adv-x="1154" d="M708 -8 C985 -8 1086 121 1086 280 C1086 439 985 568 708 568 L446 568 C169 568 68 439 68 280 C68 121 169 -8 446 -8 L708 -8 Z M447 78 C234 78 172 168 172 280 C172 392 234 482 447 482 L707 482 C920 482 982 392 982 280 C982 168 920 78 707 78 L447 78 Z " />
<glyph glyph-name="p" unicode="p" horiz-adv-x="1041" d="M112 0 L211 0 L211 205 L766 205 C938 205 999 283 999 382 C999 480 938 560 766 560 L112 560 L112 0 Z M764 474 C872 474 896 433 896 382 C896 331 872 291 764 291 L211 291 L211 474 L764 474 Z " />
<glyph glyph-name="q" unicode="q" horiz-adv-x="1154" d="M709 -8 C745 -8 779 -5 809 -1 L980 -88 L1146 -88 L918 26 C1039 74 1087 170 1087 280 C1087 439 986 568 709 568 L446 568 C169 568 68 439 68 280 C68 121 169 -8 446 -8 L709 -8 Z M447 78 C234 78 172 168 172 280 C172 392 234 482 447 482 L708 482 C921 482 983 392 983 280 C983 168 921 78 708 78 L447 78 Z " />
<glyph glyph-name="r" unicode="r" horiz-adv-x="1106" d="M112 0 L211 0 L211 207 L558 207 L926 0 L1092 0 L714 208 L755 208 C925 208 987 285 987 384 C987 481 925 560 755 560 L112 560 L112 0 Z M751 474 C858 474 884 432 884 382 C884 330 858 289 751 289 L211 289 L211 474 L751 474 Z " />
<glyph glyph-name="s" unicode="s" horiz-adv-x="1032" d="M98 0 L758 0 C914 0 968 70 968 159 C968 249 914 318 758 318 L279 318 C189 318 167 353 167 396 C167 439 189 474 279 474 L934 474 L934 560 L274 560 C118 560 64 490 64 401 C64 311 118 242 274 242 L753 242 C843 242 865 207 865 164 C865 121 844 86 753 86 L98 86 L98 0 Z " />
<glyph glyph-name="t" unicode="t" horiz-adv-x="1041" d="M43 474 L471 474 L471 0 L570 0 L570 474 L998 474 L998 560 L43 560 L43 474 Z " />
<glyph glyph-name="u" unicode="u" horiz-adv-x="1095" d="M190 258 L190 560 L92 560 L92 258 C92 104 172 -8 441 -8 L653 -8 C922 -8 1003 104 1003 258 L1003 560 L904 560 L904 258 C904 153 855 78 652 78 L442 78 C240 78 190 153 190 258 L190 258 Z " />
<glyph glyph-name="v" unicode="v" horiz-adv-x="1091" d="M598 0 L1080 560 L955 560 L545 80 L136 560 L11 560 L493 0 L598 0 Z " />
<glyph glyph-name="w" unicode="w" horiz-adv-x="1383" d="M692 443 L953 0 L1026 0 L1361 560 L1243 560 L987 118 L729 560 L655 560 L396 118 L140 560 L22 560 L358 0 L431 0 L692 443 Z " />
<glyph glyph-name="x" unicode="x" horiz-adv-x="1064" d="M24 560 L454 282 L19 0 L180 0 L532 232 L884 0 L1046 0 L611 282 L1042 560 L880 560 L532 332 L185 560 L24 560 Z " />
<glyph glyph-name="y" unicode="y" horiz-adv-x="1063" d="M483 0 L581 0 L581 170 L1063 560 L917 560 L532 244 L146 560 L0 560 L483 170 L483 0 Z " />
<glyph glyph-name="z" unicode="z" horiz-adv-x="1025" d="M65 0 L970 0 L970 86 L257 86 L953 493 L953 560 L74 560 L74 474 L759 474 L65 67 L65 0 Z " />
<glyph glyph-name="braceleft" unicode="&#x7b;" horiz-adv-x="497" d="M170 456 C170 420 158 390 95 390 L50 390 L50 310 L95 310 C158 310 170 280 170 244 L170 -29 C170 -96 208 -150 320 -150 L447 -150 L447 -70 L354 -70 C291 -70 279 -40 279 -4 L279 237 C279 288 254 332 192 350 C254 367 279 411 279 463 L279 704 C279 740 291 770 354 770 L447 770 L447 850 L320 850 C208 850 170 796 170 729 L170 456 Z " />
<glyph glyph-name="bar" unicode="&#x7c;" horiz-adv-x="500" d="M203 850 L203 -150 L297 -150 L297 850 L203 850 Z " />
<glyph glyph-name="braceright" unicode="&#x7d;" horiz-adv-x="497" d="M327 729 C327 796 289 850 177 850 L50 850 L50 770 L143 770 C206 770 218 740 218 704 L218 463 C218 411 243 367 305 350 C243 332 218 288 218 237 L218 -4 C218 -40 206 -70 143 -70 L50 -70 L50 -150 L177 -150 C289 -150 327 -96 327 -29 L327 244 C327 280 339 310 402 310 L447 310 L447 390 L402 390 C339 390 327 420 327 456 L327 729 Z " />
<glyph glyph-name="asciitilde" unicode="&#x7e;" horiz-adv-x="1298" d="M1011 443 C736 220 577 598 287 385 L287 280 C562 503 721 125 1011 338 L1011 443 Z " />
<glyph glyph-name="uni00A0" unicode="&#xa0;" horiz-adv-x="500" d="" />
<glyph glyph-name="exclamdown" unicode="&#xa1;" horiz-adv-x="352" d="M236 700 L117 700 L117 581 L236 581 L236 700 Z M226 515 L127 515 L121 0 L232 0 L226 515 Z " />
<glyph glyph-name="cent" unicode="&#xa2;" horiz-adv-x="1298" d="M1161 217 L698 217 L754 483 L1163 483 L1163 574 L774 574 L805 721 L705 721 L674 574 L417 574 C215 574 135 473 135 350 C135 227 215 126 417 126 L579 126 L548 -20 L648 -20 L679 126 L1161 126 L1161 217 Z M240 350 C240 431 285 483 441 483 L654 483 L598 217 L442 217 C286 217 240 269 240 350 L240 350 Z " />
<glyph glyph-name="sterling" unicode="&#xa3;" horiz-adv-x="1298" d="M756 395 L369 395 L369 447 C369 529 403 600 555 600 L1056 600 L1056 700 L559 700 C335 700 259 589 259 452 L259 395 L122 395 L122 305 L259 305 L259 170 C259 125 237 96 188 96 L122 96 L122 0 L1176 0 L1176 100 L318 100 C350 114 369 147 369 185 L369 305 L756 305 L756 395 Z " />
<glyph glyph-name="currency" unicode="&#xa4;" horiz-adv-x="1298" d="M775 80 C869 80 941 98 993 129 L1129 -10 L1201 61 L1066 193 C1100 236 1116 291 1116 350 C1116 409 1100 463 1066 507 L1201 639 L1129 710 L993 570 C941 601 869 620 775 620 L521 620 C427 620 356 602 304 571 L169 710 L97 639 L231 508 C196 464 181 409 181 350 C181 291 196 235 231 192 L97 61 L169 -10 L304 129 C356 98 427 80 521 80 L775 80 Z M293 350 C293 446 347 524 522 524 L774 524 C950 524 1004 446 1004 350 C1004 254 950 176 774 176 L522 176 C347 176 293 254 293 350 L293 350 Z " />
<glyph glyph-name="yen" unicode="&#xa5;" horiz-adv-x="1298" d="M1055 700 L649 352 L243 700 L85 700 L424 421 L106 421 L106 335 L512 335 L594 266 L594 220 L106 220 L106 134 L594 134 L594 0 L704 0 L704 134 L1192 134 L1192 220 L704 220 L704 266 L786 335 L1192 335 L1192 421 L875 421 L1213 700 L1055 700 Z " />
<glyph glyph-name="brokenbar" unicode="&#xa6;" horiz-adv-x="500" d="M297 467 L297 850 L203 850 L203 467 L297 467 Z M203 233 L203 -150 L297 -150 L297 233 L203 233 Z " />
<glyph glyph-name="section" unicode="&#xa7;" horiz-adv-x="1226" d="M272 143 L824 143 C909 143 929 109 929 67 C929 26 909 -9 820 -9 L224 -9 L224 -100 L859 -100 C984 -100 1034 -38 1034 38 C1034 83 1016 122 976 145 L987 145 C1106 145 1154 220 1154 300 C1154 388 1098 457 954 457 L406 457 C318 457 297 490 297 533 C297 574 317 609 406 609 L1002 609 L1002 700 L367 700 C242 700 192 638 192 562 C192 517 209 478 250 455 L239 455 C119 455 72 380 72 300 C72 212 128 143 272 143 L272 143 Z M280 223 C193 223 171 258 171 300 C171 343 194 377 280 377 L946 377 C1032 377 1055 342 1055 300 C1055 258 1033 223 946 223 L280 223 Z " />
<glyph glyph-name="dieresis" unicode="&#xa8;" horiz-adv-x="500" d="M332 666 L440 666 L440 773 L332 773 L332 666 Z M60 666 L167 666 L167 773 L60 773 L60 666 Z " />
<glyph glyph-name="copyright" unicode="&#xa9;" horiz-adv-x="1208" d="M689 -10 C1015 -10 1143 151 1143 350 C1143 549 1015 710 689 710 L519 710 C193 710 65 549 65 350 C65 151 193 -10 519 -10 L689 -10 Z M520 61 C245 61 148 191 148 350 C148 509 245 639 520 639 L688 639 C963 639 1060 509 1060 350 C1060 191 963 61 688 61 L520 61 Z M827 235 L531 235 C416 235 381 286 381 350 C381 413 416 465 531 465 L827 465 L827 525 L531 525 C372 525 310 446 310 350 C310 253 372 175 531 175 L827 175 L827 235 Z " />
<glyph glyph-name="ordfeminine" unicode="&#xaa;" horiz-adv-x="762" d="M601 350 L700 350 L423 700 L338 700 L62 350 L161 350 L205 405 L556 405 L601 350 Z M380 628 L503 473 L258 473 L380 628 Z " />
<glyph glyph-name="guillemotleft" unicode="&#xab;" horiz-adv-x="805" d="M288 560 L92 282 L290 0 L404 0 L207 282 L402 560 L288 560 Z M596 560 L400 282 L598 0 L712 0 L515 282 L710 560 L596 560 Z " />
<glyph glyph-name="logicalnot" unicode="&#xac;" horiz-adv-x="1298" d="M287 300 L901 300 L901 40 L1011 40 L1011 400 L287 400 L287 300 Z " />
<glyph glyph-name="uni00AD" unicode="&#xad;" horiz-adv-x="600" d="M92 234 L508 234 L508 326 L92 326 L92 234 Z " />
<glyph glyph-name="registered" unicode="&#xae;" horiz-adv-x="1208" d="M689 -10 C1015 -10 1143 151 1143 350 C1143 549 1015 710 689 710 L519 710 C193 710 65 549 65 350 C65 151 193 -10 519 -10 L689 -10 Z M520 61 C245 61 148 191 148 350 C148 509 245 639 520 639 L688 639 C963 639 1060 509 1060 350 C1060 191 963 61 688 61 L520 61 Z M344 175 L411 175 L411 301 L631 301 L822 175 L923 175 L725 302 C822 304 860 352 860 413 C860 475 821 525 719 525 L344 525 L344 175 Z M714 465 C773 465 789 441 789 411 C789 381 773 358 714 358 L411 358 L411 465 L714 465 Z " />
<glyph glyph-name="macron" unicode="&#xaf;" horiz-adv-x="500" d="M66 684 L434 684 L434 756 L66 756 L66 684 Z " />
<glyph glyph-name="degree" unicode="&#xb0;" horiz-adv-x="566" d="M79 508 C79 391 172 306 283 306 C394 306 487 391 487 508 C487 625 394 710 283 710 C172 710 79 625 79 508 L79 508 Z M165 508 C165 580 215 632 283 632 C351 632 401 580 401 508 C401 436 351 384 283 384 C215 384 165 436 165 508 L165 508 Z " />
<glyph glyph-name="plusminus" unicode="&#xb1;" horiz-adv-x="1298" d="M287 400 L594 400 L594 200 L704 200 L704 400 L1011 400 L1011 500 L704 500 L704 700 L594 700 L594 500 L287 500 L287 400 Z M287 0 L1011 0 L1011 100 L287 100 L287 0 Z " />
<glyph glyph-name="twosuperior" unicode="&#xb2;" horiz-adv-x="746" d="M641 423 L180 423 L180 458 C180 476 190 494 235 494 L522 494 C618 494 656 537 656 596 C656 655 618 700 522 700 L119 700 L119 627 L519 627 C562 627 573 609 573 591 C573 573 562 556 519 556 L233 556 C136 556 99 513 99 454 L99 350 L641 350 L641 423 Z " />
<glyph glyph-name="threesuperior" unicode="&#xb3;" horiz-adv-x="746" d="M84 350 L529 350 C614 350 647 392 647 443 C647 485 625 519 573 532 C607 547 622 576 622 609 C622 660 590 700 508 700 L94 700 L94 627 L487 627 C530 627 539 610 539 591 C539 573 530 556 487 556 L137 556 L137 494 L508 494 C553 494 562 477 562 458 C562 440 553 423 508 423 L84 423 L84 350 Z " />
<glyph glyph-name="acute" unicode="&#xb4;" horiz-adv-x="500" d="M172 635 L243 635 L403 806 L277 806 L172 635 Z " />
<glyph glyph-name="uni00B5" unicode="&#xb5;" horiz-adv-x="1298" d="M1091 0 L1166 0 L1166 560 L1056 560 L1056 355 C1056 213 961 100 710 100 L389 100 C278 100 242 144 242 202 L242 560 L132 560 L132 -200 L242 -200 L242 74 C270 17 328 0 409 0 L722 0 C906 0 1016 65 1067 157 L1091 0 Z " />
<glyph glyph-name="paragraph" unicode="&#xb6;" horiz-adv-x="1199" d="M635 600 L894 600 L894 -100 L1004 -100 L1004 600 L1104 600 L1104 700 L341 700 C139 700 62 601 62 480 C62 356 139 260 341 260 L525 260 L525 -100 L635 -100 L635 600 Z " />
<glyph glyph-name="periodcentered" unicode="&#xb7;" horiz-adv-x="313" d="M97 290 L216 290 L216 409 L97 409 L97 290 Z " />
<glyph glyph-name="cedilla" unicode="&#xb8;" horiz-adv-x="500" d="M194 -115 L223 -115 C284 -116 316 -127 316 -166 C316 -235 170 -222 126 -196 L126 -245 C199 -282 394 -297 394 -169 C394 -88 327 -70 249 -70 L248 -70 L266 0 L225 0 L194 -115 Z " />
<glyph glyph-name="onesuperior" unicode="&#xb9;" horiz-adv-x="746" d="M236 627 L362 627 L362 423 L161 423 L161 350 L584 350 L584 423 L443 423 L443 700 L236 700 L236 627 Z " />
<glyph glyph-name="ordmasculine" unicode="&#xba;" horiz-adv-x="758" d="M452 345 C615 345 679 425 679 525 C679 624 615 705 452 705 L306 705 C143 705 79 624 79 525 C79 425 143 345 306 345 L452 345 Z M307 418 C196 418 159 466 159 525 C159 583 195 632 307 632 L452 632 C562 632 599 583 599 525 C599 466 562 418 452 418 L307 418 Z " />
<glyph glyph-name="guillemotright" unicode="&#xbb;" horiz-adv-x="805" d="M403 560 L598 282 L401 0 L515 0 L713 282 L517 560 L403 560 Z M95 560 L290 282 L93 0 L207 0 L405 282 L209 560 L95 560 Z " />
<glyph glyph-name="onequarter" unicode="&#xbc;" horiz-adv-x="1492" d="M236 627 L362 627 L362 423 L161 423 L161 350 L584 350 L584 423 L443 423 L443 700 L236 700 L236 627 Z M1104 700 L274 0 L388 0 L1218 700 L1104 700 Z M1284 350 L831 118 L831 57 L1280 57 L1280 0 L1361 0 L1361 57 L1417 57 L1417 130 L1361 130 L1361 350 L1284 350 Z M991 130 L1280 274 L1280 130 L991 130 Z " />
<glyph glyph-name="onehalf" unicode="&#xbd;" horiz-adv-x="1492" d="M236 627 L362 627 L362 423 L161 423 L161 350 L584 350 L584 423 L443 423 L443 700 L236 700 L236 627 Z M1104 700 L274 0 L388 0 L1218 700 L1104 700 Z M1387 73 L926 73 L926 108 C926 126 936 144 981 144 L1268 144 C1364 144 1402 187 1402 246 C1402 305 1364 350 1268 350 L865 350 L865 277 L1265 277 C1308 277 1319 259 1319 241 C1319 223 1308 206 1265 206 L979 206 C882 206 845 163 845 104 L845 0 L1387 0 L1387 73 Z " />
<glyph glyph-name="threequarters" unicode="&#xbe;" horiz-adv-x="1492" d="M84 350 L529 350 C614 350 647 392 647 443 C647 485 625 519 573 532 C607 547 622 576 622 609 C622 660 590 700 508 700 L94 700 L94 627 L487 627 C530 627 539 610 539 591 C539 573 530 556 487 556 L137 556 L137 494 L508 494 C553 494 562 477 562 458 C562 440 553 423 508 423 L84 423 L84 350 Z M1104 700 L274 0 L388 0 L1218 700 L1104 700 Z M1284 350 L831 118 L831 57 L1280 57 L1280 0 L1361 0 L1361 57 L1417 57 L1417 130 L1361 130 L1361 350 L1284 350 Z M991 130 L1280 274 L1280 130 L991 130 Z " />
<glyph glyph-name="questiondown" unicode="&#xbf;" horiz-adv-x="1070" d="M754 515 L654 515 L654 393 L285 393 C102 393 32 308 32 197 C32 87 102 0 285 0 L1040 0 L1040 100 L290 100 C179 100 148 149 148 203 C148 260 179 307 290 307 L754 307 L754 515 Z M763 700 L644 700 L644 581 L763 581 L763 700 Z " />
<glyph glyph-name="Agrave" unicode="&#xc0;" horiz-adv-x="1276" d="M1130 0 L1266 0 L697 700 L579 700 L10 0 L146 0 L253 132 L1023 132 L1130 0 Z M638 607 L949 223 L327 223 L638 607 Z M610 946 L484 946 L644 775 L715 775 L610 946 Z " />
<glyph glyph-name="Aacute" unicode="&#xc1;" horiz-adv-x="1276" d="M1130 0 L1266 0 L697 700 L579 700 L10 0 L146 0 L253 132 L1023 132 L1130 0 Z M638 607 L949 223 L327 223 L638 607 Z M560 775 L631 775 L791 946 L665 946 L560 775 Z " />
<glyph glyph-name="Acircumflex" unicode="&#xc2;" horiz-adv-x="1276" d="M1130 0 L1266 0 L697 700 L579 700 L10 0 L146 0 L253 132 L1023 132 L1130 0 Z M638 607 L949 223 L327 223 L638 607 Z M702 946 L573 946 L453 775 L524 775 L638 890 L751 775 L822 775 L702 946 Z " />
<glyph glyph-name="Atilde" unicode="&#xc3;" horiz-adv-x="1276" d="M1130 0 L1266 0 L697 700 L579 700 L10 0 L146 0 L253 132 L1023 132 L1130 0 Z M638 607 L949 223 L327 223 L638 607 Z M760 934 C756 882 739 871 713 871 C670 871 626 927 563 927 C505 927 467 894 461 786 L516 786 C520 838 537 850 563 850 C606 850 649 793 713 793 C771 793 810 826 815 934 L760 934 Z " />
<glyph glyph-name="Adieresis" unicode="&#xc4;" horiz-adv-x="1276" d="M1130 0 L1266 0 L697 700 L579 700 L10 0 L146 0 L253 132 L1023 132 L1130 0 Z M638 607 L949 223 L327 223 L638 607 Z M720 806 L828 806 L828 913 L720 913 L720 806 Z M448 806 L555 806 L555 913 L448 913 L448 806 Z " />
<glyph glyph-name="Aring" unicode="&#xc5;" horiz-adv-x="1276" d="M1130 0 L1266 0 L697 700 L579 700 L10 0 L146 0 L253 132 L1023 132 L1130 0 Z M638 607 L949 223 L327 223 L638 607 Z M580 861 C580 893 606 918 638 918 C670 918 696 893 696 861 C696 829 670 804 638 804 C606 804 580 829 580 861 L580 861 Z M517 861 C517 798 568 749 638 749 C708 749 759 798 759 861 C759 924 708 973 638 973 C568 973 517 924 517 861 L517 861 Z " />
<glyph glyph-name="AE" unicode="&#xc6;" horiz-adv-x="1710" d="M738 130 L738 0 L1630 0 L1630 100 L848 100 L848 305 L1528 305 L1528 395 L848 395 L848 600 L1630 600 L1630 700 L679 700 L10 0 L148 0 L272 130 L738 130 Z M738 619 L738 220 L356 220 L738 619 Z " />
<glyph glyph-name="Ccedilla" unicode="&#xc7;" horiz-adv-x="1184" d="M586 -115 L615 -115 C676 -116 708 -127 708 -166 C708 -235 562 -222 518 -196 L518 -245 C591 -282 786 -297 786 -169 C786 -88 719 -70 641 -70 L640 -70 L658 0 L1104 0 L1104 100 L517 100 C272 100 192 212 192 350 C192 488 272 600 517 600 L1104 600 L1104 700 L516 700 C199 700 75 543 75 350 C75 157 199 0 516 0 L617 0 L586 -115 Z " />
<glyph glyph-name="Egrave" unicode="&#xc8;" horiz-adv-x="1199" d="M122 0 L1119 0 L1119 100 L232 100 L232 305 L1017 305 L1017 395 L232 395 L232 600 L1119 600 L1119 700 L122 700 L122 0 Z M582 946 L456 946 L616 775 L687 775 L582 946 Z " />
<glyph glyph-name="Eacute" unicode="&#xc9;" horiz-adv-x="1199" d="M122 0 L1119 0 L1119 100 L232 100 L232 305 L1017 305 L1017 395 L232 395 L232 600 L1119 600 L1119 700 L122 700 L122 0 Z M532 775 L603 775 L763 946 L637 946 L532 775 Z " />
<glyph glyph-name="Ecircumflex" unicode="&#xca;" horiz-adv-x="1199" d="M122 0 L1119 0 L1119 100 L232 100 L232 305 L1017 305 L1017 395 L232 395 L232 600 L1119 600 L1119 700 L122 700 L122 0 Z M674 946 L545 946 L425 775 L496 775 L610 890 L723 775 L794 775 L674 946 Z " />
<glyph glyph-name="Edieresis" unicode="&#xcb;" horiz-adv-x="1199" d="M122 0 L1119 0 L1119 100 L232 100 L232 305 L1017 305 L1017 395 L232 395 L232 600 L1119 600 L1119 700 L122 700 L122 0 Z M692 806 L800 806 L800 913 L692 913 L692 806 Z M420 806 L527 806 L527 913 L420 913 L420 806 Z " />
<glyph glyph-name="Igrave" unicode="&#xcc;" horiz-adv-x="354" d="M122 0 L232 0 L232 700 L122 700 L122 0 Z M150 946 L24 946 L184 775 L255 775 L150 946 Z " />
<glyph glyph-name="Iacute" unicode="&#xcd;" horiz-adv-x="354" d="M122 0 L232 0 L232 700 L122 700 L122 0 Z M100 775 L171 775 L331 946 L205 946 L100 775 Z " />
<glyph glyph-name="Icircumflex" unicode="&#xce;" horiz-adv-x="354" d="M122 0 L232 0 L232 700 L122 700 L122 0 Z M242 946 L113 946 L-7 775 L64 775 L178 890 L291 775 L362 775 L242 946 Z " />
<glyph glyph-name="Idieresis" unicode="&#xcf;" horiz-adv-x="354" d="M122 0 L232 0 L232 700 L122 700 L122 0 Z M259 806 L367 806 L367 913 L259 913 L259 806 Z M-13 806 L94 806 L94 913 L-13 913 L-13 806 Z " />
<glyph glyph-name="Eth" unicode="&#xd0;" horiz-adv-x="1255" d="M-8 305 L122 305 L122 0 L739 0 C1056 0 1180 157 1180 350 C1180 543 1056 700 739 700 L122 700 L122 395 L-8 395 L-8 305 Z M738 600 C983 600 1063 488 1063 350 C1063 212 983 100 738 100 L232 100 L232 305 L639 305 L639 395 L232 395 L232 600 L738 600 Z " />
<glyph glyph-name="Ntilde" unicode="&#xd1;" horiz-adv-x="1306" d="M1080 0 L1184 0 L1184 700 L1074 700 L1074 129 L226 700 L122 700 L122 0 L232 0 L232 571 L1080 0 Z M775 934 C771 882 754 871 728 871 C685 871 641 927 578 927 C520 927 482 894 476 786 L531 786 C535 838 552 850 578 850 C621 850 664 793 728 793 C786 793 825 826 830 934 L775 934 Z " />
<glyph glyph-name="Ograve" unicode="&#xd2;" horiz-adv-x="1348" d="M819 -10 C1145 -10 1273 151 1273 350 C1273 549 1145 710 819 710 L529 710 C203 710 75 549 75 350 C75 151 203 -10 529 -10 L819 -10 Z M530 90 C276 90 192 206 192 350 C192 494 276 610 531 610 L818 610 C1072 610 1156 494 1156 350 C1156 206 1072 90 818 90 L530 90 Z M646 946 L520 946 L680 775 L751 775 L646 946 Z " />
<glyph glyph-name="Oacute" unicode="&#xd3;" horiz-adv-x="1348" d="M819 -10 C1145 -10 1273 151 1273 350 C1273 549 1145 710 819 710 L529 710 C203 710 75 549 75 350 C75 151 203 -10 529 -10 L819 -10 Z M530 90 C276 90 192 206 192 350 C192 494 276 610 531 610 L818 610 C1072 610 1156 494 1156 350 C1156 206 1072 90 818 90 L530 90 Z M596 775 L667 775 L827 946 L701 946 L596 775 Z " />
<glyph glyph-name="Ocircumflex" unicode="&#xd4;" horiz-adv-x="1348" d="M819 -10 C1145 -10 1273 151 1273 350 C1273 549 1145 710 819 710 L529 710 C203 710 75 549 75 350 C75 151 203 -10 529 -10 L819 -10 Z M530 90 C276 90 192 206 192 350 C192 494 276 610 531 610 L818 610 C1072 610 1156 494 1156 350 C1156 206 1072 90 818 90 L530 90 Z M738 946 L609 946 L489 775 L560 775 L674 890 L787 775 L858 775 L738 946 Z " />
<glyph glyph-name="Otilde" unicode="&#xd5;" horiz-adv-x="1348" d="M819 -10 C1145 -10 1273 151 1273 350 C1273 549 1145 710 819 710 L529 710 C203 710 75 549 75 350 C75 151 203 -10 529 -10 L819 -10 Z M530 90 C276 90 192 206 192 350 C192 494 276 610 531 610 L818 610 C1072 610 1156 494 1156 350 C1156 206 1072 90 818 90 L530 90 Z M796 934 C792 882 775 871 749 871 C706 871 662 927 599 927 C541 927 503 894 497 786 L552 786 C556 838 573 850 599 850 C642 850 685 793 749 793 C807 793 846 826 851 934 L796 934 Z " />
<glyph glyph-name="Odieresis" unicode="&#xd6;" horiz-adv-x="1348" d="M819 -10 C1145 -10 1273 151 1273 350 C1273 549 1145 710 819 710 L529 710 C203 710 75 549 75 350 C75 151 203 -10 529 -10 L819 -10 Z M530 90 C276 90 192 206 192 350 C192 494 276 610 531 610 L818 610 C1072 610 1156 494 1156 350 C1156 206 1072 90 818 90 L530 90 Z M756 806 L864 806 L864 913 L756 913 L756 806 Z M484 806 L591 806 L591 913 L484 913 L484 806 Z " />
<glyph glyph-name="multiply" unicode="&#xd7;" horiz-adv-x="1298" d="M964 576 L890 650 L647 416 L409 644 L334 570 L575 348 L334 124 L409 50 L648 280 L890 50 L964 124 L720 349 L964 576 Z " />
<glyph glyph-name="Oslash" unicode="&#xd8;" horiz-adv-x="1348" d="M819 -10 C1145 -10 1273 151 1273 350 C1273 507 1193 640 999 689 L1085 800 L958 800 L887 707 C865 709 842 710 819 710 L529 710 C203 710 75 549 75 350 C75 193 154 60 348 10 L263 -100 L389 -100 L460 -7 C482 -9 505 -10 529 -10 L819 -10 Z M1156 350 C1156 206 1072 90 818 90 L536 90 L931 601 C1097 571 1156 470 1156 350 L1156 350 Z M192 350 C192 494 276 610 531 610 L811 610 L417 99 C250 129 192 230 192 350 L192 350 Z " />
<glyph glyph-name="Ugrave" unicode="&#xd9;" horiz-adv-x="1275" d="M212 323 L212 700 L102 700 L102 323 C102 130 206 -10 523 -10 L752 -10 C1069 -10 1173 130 1173 323 L1173 700 L1063 700 L1063 323 C1063 187 993 90 751 90 L524 90 C282 90 212 187 212 323 L212 323 Z M610 946 L484 946 L644 775 L715 775 L610 946 Z " />
<glyph glyph-name="Uacute" unicode="&#xda;" horiz-adv-x="1275" d="M212 323 L212 700 L102 700 L102 323 C102 130 206 -10 523 -10 L752 -10 C1069 -10 1173 130 1173 323 L1173 700 L1063 700 L1063 323 C1063 187 993 90 751 90 L524 90 C282 90 212 187 212 323 L212 323 Z M560 775 L631 775 L791 946 L665 946 L560 775 Z " />
<glyph glyph-name="Ucircumflex" unicode="&#xdb;" horiz-adv-x="1275" d="M212 323 L212 700 L102 700 L102 323 C102 130 206 -10 523 -10 L752 -10 C1069 -10 1173 130 1173 323 L1173 700 L1063 700 L1063 323 C1063 187 993 90 751 90 L524 90 C282 90 212 187 212 323 L212 323 Z M702 946 L573 946 L453 775 L524 775 L638 890 L751 775 L822 775 L702 946 Z " />
<glyph glyph-name="Udieresis" unicode="&#xdc;" horiz-adv-x="1275" d="M212 323 L212 700 L102 700 L102 323 C102 130 206 -10 523 -10 L752 -10 C1069 -10 1173 130 1173 323 L1173 700 L1063 700 L1063 323 C1063 187 993 90 751 90 L524 90 C282 90 212 187 212 323 L212 323 Z M719 806 L827 806 L827 913 L719 913 L719 806 Z M447 806 L554 806 L554 913 L447 913 L447 806 Z " />
<glyph glyph-name="Yacute" unicode="&#xdd;" horiz-adv-x="1249" d="M570 0 L680 0 L680 211 L1249 700 L1086 700 L625 299 L163 700 L0 700 L570 211 L570 0 Z M547 775 L618 775 L778 946 L652 946 L547 775 Z " />
<glyph glyph-name="Thorn" unicode="&#xde;" horiz-adv-x="1195" d="M122 0 L232 0 L232 130 L885 130 C1087 130 1164 226 1164 350 C1164 471 1087 570 885 570 L232 570 L232 700 L122 700 L122 0 Z M882 470 C1012 470 1048 416 1048 350 C1048 282 1011 230 882 230 L232 230 L232 470 L882 470 Z " />
<glyph glyph-name="germandbls" unicode="&#xdf;" horiz-adv-x="1088" d="M485 242 L819 242 C910 242 931 208 931 164 C931 122 910 86 819 86 L368 86 L368 0 L824 0 C980 0 1034 70 1034 159 C1034 249 980 318 824 318 L639 318 L954 493 L954 560 L449 560 C180 560 92 450 92 296 L92 0 L190 0 L190 296 C190 401 248 474 450 474 L769 474 L485 310 L485 242 Z " />
<glyph glyph-name="agrave" unicode="&#xe0;" horiz-adv-x="1091" d="M959 0 L1080 0 L598 560 L493 560 L11 0 L133 0 L227 110 L864 110 L959 0 Z M545 480 L798 186 L292 186 L545 480 Z M518 806 L392 806 L552 635 L623 635 L518 806 Z " />
<glyph glyph-name="aacute" unicode="&#xe1;" horiz-adv-x="1091" d="M959 0 L1080 0 L598 560 L493 560 L11 0 L133 0 L227 110 L864 110 L959 0 Z M545 480 L798 186 L292 186 L545 480 Z M468 635 L539 635 L699 806 L573 806 L468 635 Z " />
<glyph glyph-name="acircumflex" unicode="&#xe2;" horiz-adv-x="1091" d="M959 0 L1080 0 L598 560 L493 560 L11 0 L133 0 L227 110 L864 110 L959 0 Z M545 480 L798 186 L292 186 L545 480 Z M610 806 L481 806 L361 635 L432 635 L546 750 L659 635 L730 635 L610 806 Z " />
<glyph glyph-name="atilde" unicode="&#xe3;" horiz-adv-x="1091" d="M959 0 L1080 0 L598 560 L493 560 L11 0 L133 0 L227 110 L864 110 L959 0 Z M545 480 L798 186 L292 186 L545 480 Z M667 794 C663 742 646 731 620 731 C577 731 533 787 470 787 C412 787 374 754 368 646 L423 646 C427 698 444 710 470 710 C513 710 556 653 620 653 C678 653 717 686 722 794 L667 794 Z " />
<glyph glyph-name="adieresis" unicode="&#xe4;" horiz-adv-x="1091" d="M959 0 L1080 0 L598 560 L493 560 L11 0 L133 0 L227 110 L864 110 L959 0 Z M545 480 L798 186 L292 186 L545 480 Z M627 666 L735 666 L735 773 L627 773 L627 666 Z M355 666 L462 666 L462 773 L355 773 L355 666 Z " />
<glyph glyph-name="aring" unicode="&#xe5;" horiz-adv-x="1091" d="M959 0 L1080 0 L598 560 L493 560 L11 0 L133 0 L227 110 L864 110 L959 0 Z M545 480 L798 186 L292 186 L545 480 Z M487 721 C487 753 513 778 545 778 C577 778 603 753 603 721 C603 689 577 664 545 664 C513 664 487 689 487 721 L487 721 Z M424 721 C424 658 475 609 545 609 C615 609 666 658 666 721 C666 784 615 833 545 833 C475 833 424 784 424 721 L424 721 Z " />
<glyph glyph-name="ae" unicode="&#xe6;" horiz-adv-x="1463" d="M630 102 L630 0 L1390 0 L1390 86 L729 86 L729 242 L1302 242 L1302 318 L729 318 L729 474 L1390 474 L1390 560 L578 560 L11 0 L135 0 L239 102 L630 102 Z M630 489 L630 178 L314 178 L630 489 Z " />
<glyph glyph-name="ccedilla" unicode="&#xe7;" horiz-adv-x="1015" d="M492 -115 L521 -115 C582 -116 614 -127 614 -166 C614 -235 468 -222 424 -196 L424 -245 C497 -282 692 -297 692 -169 C692 -88 625 -70 547 -70 L546 -70 L564 0 L943 0 L943 86 L435 86 C230 86 173 173 173 280 C173 387 230 474 435 474 L943 474 L943 560 L435 560 C165 560 68 434 68 280 C68 126 165 0 435 0 L523 0 L492 -115 Z " />
<glyph glyph-name="egrave" unicode="&#xe8;" horiz-adv-x="1033" d="M112 0 L960 0 L960 86 L211 86 L211 242 L873 242 L873 318 L211 318 L211 474 L960 474 L960 560 L112 560 L112 0 Z M501 806 L375 806 L535 635 L606 635 L501 806 Z " />
<glyph glyph-name="eacute" unicode="&#xe9;" horiz-adv-x="1033" d="M112 0 L960 0 L960 86 L211 86 L211 242 L873 242 L873 318 L211 318 L211 474 L960 474 L960 560 L112 560 L112 0 Z M451 635 L522 635 L682 806 L556 806 L451 635 Z " />
<glyph glyph-name="ecircumflex" unicode="&#xea;" horiz-adv-x="1033" d="M112 0 L960 0 L960 86 L211 86 L211 242 L873 242 L873 318 L211 318 L211 474 L960 474 L960 560 L112 560 L112 0 Z M593 806 L464 806 L344 635 L415 635 L529 750 L642 635 L713 635 L593 806 Z " />
<glyph glyph-name="edieresis" unicode="&#xeb;" horiz-adv-x="1033" d="M112 0 L960 0 L960 86 L211 86 L211 242 L873 242 L873 318 L211 318 L211 474 L960 474 L960 560 L112 560 L112 0 Z M611 666 L719 666 L719 773 L611 773 L611 666 Z M339 666 L446 666 L446 773 L339 773 L339 666 Z " />
<glyph glyph-name="igrave" unicode="&#xec;" horiz-adv-x="323" d="M112 0 L211 0 L211 560 L112 560 L112 0 Z M134 806 L8 806 L168 635 L239 635 L134 806 Z " />
<glyph glyph-name="iacute" unicode="&#xed;" horiz-adv-x="323" d="M112 0 L211 0 L211 560 L112 560 L112 0 Z M84 635 L155 635 L315 806 L189 806 L84 635 Z " />
<glyph glyph-name="icircumflex" unicode="&#xee;" horiz-adv-x="323" d="M112 0 L211 0 L211 560 L112 560 L112 0 Z M226 806 L97 806 L-23 635 L48 635 L162 750 L275 635 L346 635 L226 806 Z " />
<glyph glyph-name="idieresis" unicode="&#xef;" horiz-adv-x="323" d="M112 0 L211 0 L211 560 L112 560 L112 0 Z M244 666 L352 666 L352 773 L244 773 L244 666 Z M-28 666 L79 666 L79 773 L-28 773 L-28 666 Z " />
<glyph glyph-name="eth" unicode="&#xf0;" horiz-adv-x="1080" d="M-8 242 L112 242 L112 0 L645 0 C915 0 1012 126 1012 280 C1012 434 915 560 645 560 L112 560 L112 318 L-8 318 L-8 242 Z M645 474 C850 474 908 387 908 280 C908 173 850 86 645 86 L211 86 L211 242 L564 242 L564 318 L211 318 L211 474 L645 474 Z " />
<glyph glyph-name="ntilde" unicode="&#xf1;" horiz-adv-x="1128" d="M1016 0 L1016 560 L917 560 L917 111 L206 560 L112 560 L112 0 L211 0 L211 449 L922 0 L1016 0 Z M686 794 C682 742 665 731 639 731 C596 731 552 787 489 787 C431 787 393 754 387 646 L442 646 C446 698 463 710 489 710 C532 710 575 653 639 653 C697 653 736 686 741 794 L686 794 Z " />
<glyph glyph-name="ograve" unicode="&#xf2;" horiz-adv-x="1154" d="M708 -8 C985 -8 1086 121 1086 280 C1086 439 985 568 708 568 L446 568 C169 568 68 439 68 280 C68 121 169 -8 446 -8 L708 -8 Z M447 78 C234 78 172 168 172 280 C172 392 234 482 447 482 L707 482 C920 482 982 392 982 280 C982 168 920 78 707 78 L447 78 Z M549 806 L423 806 L583 635 L654 635 L549 806 Z " />
<glyph glyph-name="oacute" unicode="&#xf3;" horiz-adv-x="1154" d="M708 -8 C985 -8 1086 121 1086 280 C1086 439 985 568 708 568 L446 568 C169 568 68 439 68 280 C68 121 169 -8 446 -8 L708 -8 Z M447 78 C234 78 172 168 172 280 C172 392 234 482 447 482 L707 482 C920 482 982 392 982 280 C982 168 920 78 707 78 L447 78 Z M499 635 L570 635 L730 806 L604 806 L499 635 Z " />
<glyph glyph-name="ocircumflex" unicode="&#xf4;" horiz-adv-x="1154" d="M708 -8 C985 -8 1086 121 1086 280 C1086 439 985 568 708 568 L446 568 C169 568 68 439 68 280 C68 121 169 -8 446 -8 L708 -8 Z M447 78 C234 78 172 168 172 280 C172 392 234 482 447 482 L707 482 C920 482 982 392 982 280 C982 168 920 78 707 78 L447 78 Z M641 806 L512 806 L392 635 L463 635 L577 750 L690 635 L761 635 L641 806 Z " />
<glyph glyph-name="otilde" unicode="&#xf5;" horiz-adv-x="1154" d="M708 -8 C985 -8 1086 121 1086 280 C1086 439 985 568 708 568 L446 568 C169 568 68 439 68 280 C68 121 169 -8 446 -8 L708 -8 Z M447 78 C234 78 172 168 172 280 C172 392 234 482 447 482 L707 482 C920 482 982 392 982 280 C982 168 920 78 707 78 L447 78 Z M699 794 C695 742 678 731 652 731 C609 731 565 787 502 787 C444 787 406 754 400 646 L455 646 C459 698 476 710 502 710 C545 710 588 653 652 653 C710 653 749 686 754 794 L699 794 Z " />
<glyph glyph-name="odieresis" unicode="&#xf6;" horiz-adv-x="1154" d="M708 -8 C985 -8 1086 121 1086 280 C1086 439 985 568 708 568 L446 568 C169 568 68 439 68 280 C68 121 169 -8 446 -8 L708 -8 Z M447 78 C234 78 172 168 172 280 C172 392 234 482 447 482 L707 482 C920 482 982 392 982 280 C982 168 920 78 707 78 L447 78 Z M659 666 L767 666 L767 773 L659 773 L659 666 Z M387 666 L494 666 L494 773 L387 773 L387 666 Z " />
<glyph glyph-name="divide" unicode="&#xf7;" horiz-adv-x="1298" d="M287 300 L1011 300 L1011 400 L287 400 L287 300 Z M591 30 L706 30 L706 145 L591 145 L591 30 Z M591 555 L706 555 L706 670 L591 670 L591 555 Z " />
<glyph glyph-name="oslash" unicode="&#xf8;" horiz-adv-x="1154" d="M708 -8 C985 -8 1086 121 1086 280 C1086 406 1022 514 856 553 L927 640 L814 640 L754 566 C739 567 724 568 708 568 L446 568 C169 568 68 439 68 280 C68 153 132 45 298 7 L227 -80 L340 -80 L400 -6 C415 -7 430 -8 446 -8 L708 -8 Z M172 280 C172 392 234 482 447 482 L685 482 L361 84 C217 105 172 185 172 280 L172 280 Z M982 280 C982 168 920 78 707 78 L469 78 L793 476 C937 454 982 375 982 280 L982 280 Z " />
<glyph glyph-name="ugrave" unicode="&#xf9;" horiz-adv-x="1095" d="M190 258 L190 560 L92 560 L92 258 C92 104 172 -8 441 -8 L653 -8 C922 -8 1003 104 1003 258 L1003 560 L904 560 L904 258 C904 153 855 78 652 78 L442 78 C240 78 190 153 190 258 L190 258 Z M520 806 L394 806 L554 635 L625 635 L520 806 Z " />
<glyph glyph-name="uacute" unicode="&#xfa;" horiz-adv-x="1095" d="M190 258 L190 560 L92 560 L92 258 C92 104 172 -8 441 -8 L653 -8 C922 -8 1003 104 1003 258 L1003 560 L904 560 L904 258 C904 153 855 78 652 78 L442 78 C240 78 190 153 190 258 L190 258 Z M470 635 L541 635 L701 806 L575 806 L470 635 Z " />
<glyph glyph-name="ucircumflex" unicode="&#xfb;" horiz-adv-x="1095" d="M190 258 L190 560 L92 560 L92 258 C92 104 172 -8 441 -8 L653 -8 C922 -8 1003 104 1003 258 L1003 560 L904 560 L904 258 C904 153 855 78 652 78 L442 78 C240 78 190 153 190 258 L190 258 Z M612 806 L483 806 L363 635 L434 635 L548 750 L661 635 L732 635 L612 806 Z " />
<glyph glyph-name="udieresis" unicode="&#xfc;" horiz-adv-x="1095" d="M190 258 L190 560 L92 560 L92 258 C92 104 172 -8 441 -8 L653 -8 C922 -8 1003 104 1003 258 L1003 560 L904 560 L904 258 C904 153 855 78 652 78 L442 78 C240 78 190 153 190 258 L190 258 Z M629 666 L737 666 L737 773 L629 773 L629 666 Z M357 666 L464 666 L464 773 L357 773 L357 666 Z " />
<glyph glyph-name="yacute" unicode="&#xfd;" horiz-adv-x="1063" d="M483 0 L581 0 L581 170 L1063 560 L917 560 L532 244 L146 560 L0 560 L483 170 L483 0 Z M453 635 L524 635 L684 806 L558 806 L453 635 Z " />
<glyph glyph-name="thorn" unicode="&#xfe;" horiz-adv-x="1041" d="M112 0 L211 0 L211 102 L766 102 C938 102 999 180 999 280 C999 378 938 458 766 458 L211 458 L211 560 L112 560 L112 0 Z M763 371 C872 371 896 331 896 280 C896 229 871 189 763 189 L211 189 L211 371 L763 371 Z " />
<glyph glyph-name="ydieresis" unicode="&#xff;" horiz-adv-x="1063" d="M483 0 L581 0 L581 170 L1063 560 L917 560 L532 244 L146 560 L0 560 L483 170 L483 0 Z M613 666 L721 666 L721 773 L613 773 L613 666 Z M341 666 L448 666 L448 773 L341 773 L341 666 Z " />
<glyph glyph-name="Amacron" unicode="&#x100;" horiz-adv-x="1276" d="M1130 0 L1266 0 L697 700 L579 700 L10 0 L146 0 L253 132 L1023 132 L1130 0 Z M638 607 L949 223 L327 223 L638 607 Z M454 824 L822 824 L822 896 L454 896 L454 824 Z " />
<glyph glyph-name="amacron" unicode="&#x101;" horiz-adv-x="1091" d="M959 0 L1080 0 L598 560 L493 560 L11 0 L133 0 L227 110 L864 110 L959 0 Z M545 480 L798 186 L292 186 L545 480 Z M361 684 L729 684 L729 756 L361 756 L361 684 Z " />
<glyph glyph-name="Abreve" unicode="&#x102;" horiz-adv-x="1276" d="M1130 0 L1266 0 L697 700 L579 700 L10 0 L146 0 L253 132 L1023 132 L1130 0 Z M638 607 L949 223 L327 223 L638 607 Z M638 854 C561 854 530 892 526 938 L465 938 C470 863 506 783 638 783 C769 783 806 863 811 938 L750 938 C745 892 715 854 638 854 L638 854 Z " />
<glyph glyph-name="abreve" unicode="&#x103;" horiz-adv-x="1091" d="M959 0 L1080 0 L598 560 L493 560 L11 0 L133 0 L227 110 L864 110 L959 0 Z M545 480 L798 186 L292 186 L545 480 Z M545 714 C468 714 437 752 433 798 L372 798 C377 723 413 643 545 643 C676 643 713 723 718 798 L657 798 C652 752 622 714 545 714 L545 714 Z " />
<glyph glyph-name="Aogonek" unicode="&#x104;" horiz-adv-x="1276" d="M969 -169 C969 -227 1020 -262 1096 -262 C1137 -262 1177 -257 1223 -239 L1223 -189 C1187 -205 1165 -208 1137 -208 C1090 -208 1057 -186 1057 -145 C1057 -78 1121 -31 1192 0 L1266 0 L697 700 L579 700 L10 0 L146 0 L253 132 L1023 132 L1130 0 C1052 -27 969 -85 969 -169 L969 -169 Z M638 607 L949 223 L327 223 L638 607 Z " />
<glyph glyph-name="aogonek" unicode="&#x105;" horiz-adv-x="1091" d="M798 -169 C798 -227 849 -262 925 -262 C966 -262 1006 -257 1052 -239 L1052 -189 C1016 -205 994 -208 966 -208 C919 -208 886 -186 886 -145 C886 -78 950 -31 1021 0 L1080 0 L598 560 L493 560 L11 0 L133 0 L227 110 L864 110 L959 0 C881 -27 798 -85 798 -169 L798 -169 Z M545 480 L798 186 L292 186 L545 480 Z " />
<glyph glyph-name="Cacute" unicode="&#x106;" horiz-adv-x="1184" d="M192 350 C192 488 272 600 517 600 L1104 600 L1104 700 L516 700 C199 700 75 543 75 350 C75 157 199 0 516 0 L1104 0 L1104 100 L517 100 C272 100 192 212 192 350 L192 350 Z M564 775 L635 775 L795 946 L669 946 L564 775 Z " />
<glyph glyph-name="cacute" unicode="&#x107;" horiz-adv-x="1015" d="M173 280 C173 387 230 474 435 474 L943 474 L943 560 L435 560 C165 560 68 434 68 280 C68 126 165 0 435 0 L943 0 L943 86 L435 86 C230 86 173 173 173 280 L173 280 Z M470 635 L541 635 L701 806 L575 806 L470 635 Z " />
<glyph glyph-name="Ccircumflex" unicode="&#x108;" horiz-adv-x="1184" d="M192 350 C192 488 272 600 517 600 L1104 600 L1104 700 L516 700 C199 700 75 543 75 350 C75 157 199 0 516 0 L1104 0 L1104 100 L517 100 C272 100 192 212 192 350 L192 350 Z M706 946 L577 946 L457 775 L528 775 L642 890 L755 775 L826 775 L706 946 Z " />
<glyph glyph-name="ccircumflex" unicode="&#x109;" horiz-adv-x="1015" d="M173 280 C173 387 230 474 435 474 L943 474 L943 560 L435 560 C165 560 68 434 68 280 C68 126 165 0 435 0 L943 0 L943 86 L435 86 C230 86 173 173 173 280 L173 280 Z M612 806 L483 806 L363 635 L434 635 L548 750 L661 635 L732 635 L612 806 Z " />
<glyph glyph-name="Cdotaccent" unicode="&#x10a;" horiz-adv-x="1184" d="M192 350 C192 488 272 600 517 600 L1104 600 L1104 700 L516 700 C199 700 75 543 75 350 C75 157 199 0 516 0 L1104 0 L1104 100 L517 100 C272 100 192 212 192 350 L192 350 Z M588 806 L696 806 L696 913 L588 913 L588 806 Z " />
<glyph glyph-name="cdotaccent" unicode="&#x10b;" horiz-adv-x="1015" d="M173 280 C173 387 230 474 435 474 L943 474 L943 560 L435 560 C165 560 68 434 68 280 C68 126 165 0 435 0 L943 0 L943 86 L435 86 C230 86 173 173 173 280 L173 280 Z M493 666 L601 666 L601 773 L493 773 L493 666 Z " />
<glyph glyph-name="Ccaron" unicode="&#x10c;" horiz-adv-x="1184" d="M192 350 C192 488 272 600 517 600 L1104 600 L1104 700 L516 700 C199 700 75 543 75 350 C75 157 199 0 516 0 L1104 0 L1104 100 L517 100 C272 100 192 212 192 350 L192 350 Z M826 946 L755 946 L642 831 L528 946 L457 946 L577 775 L706 775 L826 946 Z " />
<glyph glyph-name="ccaron" unicode="&#x10d;" horiz-adv-x="1015" d="M173 280 C173 387 230 474 435 474 L943 474 L943 560 L435 560 C165 560 68 434 68 280 C68 126 165 0 435 0 L943 0 L943 86 L435 86 C230 86 173 173 173 280 L173 280 Z M732 806 L661 806 L548 691 L434 806 L363 806 L483 635 L612 635 L732 806 Z " />
<glyph glyph-name="Dcaron" unicode="&#x10e;" horiz-adv-x="1255" d="M122 0 L739 0 C1056 0 1180 157 1180 350 C1180 543 1056 700 739 700 L122 700 L122 0 Z M738 600 C983 600 1063 488 1063 350 C1063 212 983 100 738 100 L232 100 L232 600 L738 600 Z M797 946 L726 946 L613 831 L499 946 L428 946 L548 775 L677 775 L797 946 Z " />
<glyph glyph-name="dcaron" unicode="&#x10f;" horiz-adv-x="1080" d="M715 806 L644 806 L531 691 L417 806 L346 806 L466 635 L595 635 L715 806 Z M112 0 L645 0 C915 0 1012 126 1012 280 C1012 434 915 560 645 560 L112 560 L112 0 Z M645 474 C850 474 908 387 908 280 C908 173 850 86 645 86 L211 86 L211 474 L645 474 Z " />
<glyph glyph-name="Dcroat" unicode="&#x110;" horiz-adv-x="1255" d="M-8 305 L122 305 L122 0 L739 0 C1056 0 1180 157 1180 350 C1180 543 1056 700 739 700 L122 700 L122 395 L-8 395 L-8 305 Z M738 600 C983 600 1063 488 1063 350 C1063 212 983 100 738 100 L232 100 L232 305 L639 305 L639 395 L232 395 L232 600 L738 600 Z " />
<glyph glyph-name="dcroat" unicode="&#x111;" horiz-adv-x="1080" d="M-8 242 L112 242 L112 0 L645 0 C915 0 1012 126 1012 280 C1012 434 915 560 645 560 L112 560 L112 318 L-8 318 L-8 242 Z M645 474 C850 474 908 387 908 280 C908 173 850 86 645 86 L211 86 L211 242 L564 242 L564 318 L211 318 L211 474 L645 474 Z " />
<glyph glyph-name="Emacron" unicode="&#x112;" horiz-adv-x="1199" d="M122 0 L1119 0 L1119 100 L232 100 L232 305 L1017 305 L1017 395 L232 395 L232 600 L1119 600 L1119 700 L122 700 L122 0 Z M425 824 L793 824 L793 896 L425 896 L425 824 Z " />
<glyph glyph-name="emacron" unicode="&#x113;" horiz-adv-x="1033" d="M112 0 L960 0 L960 86 L211 86 L211 242 L873 242 L873 318 L211 318 L211 474 L960 474 L960 560 L112 560 L112 0 Z M344 684 L712 684 L712 756 L344 756 L344 684 Z " />
<glyph glyph-name="Ebreve" unicode="&#x114;" horiz-adv-x="1199" d="M122 0 L1119 0 L1119 100 L232 100 L232 305 L1017 305 L1017 395 L232 395 L232 600 L1119 600 L1119 700 L122 700 L122 0 Z M609 854 C532 854 501 892 497 938 L436 938 C441 863 477 783 609 783 C740 783 777 863 782 938 L721 938 C716 892 686 854 609 854 L609 854 Z " />
<glyph glyph-name="ebreve" unicode="&#x115;" horiz-adv-x="1033" d="M112 0 L960 0 L960 86 L211 86 L211 242 L873 242 L873 318 L211 318 L211 474 L960 474 L960 560 L112 560 L112 0 Z M528 714 C451 714 420 752 416 798 L355 798 C360 723 396 643 528 643 C659 643 696 723 701 798 L640 798 C635 752 605 714 528 714 L528 714 Z " />
<glyph glyph-name="Edotaccent" unicode="&#x116;" horiz-adv-x="1199" d="M122 0 L1119 0 L1119 100 L232 100 L232 305 L1017 305 L1017 395 L232 395 L232 600 L1119 600 L1119 700 L122 700 L122 0 Z M555 806 L663 806 L663 913 L555 913 L555 806 Z " />
<glyph glyph-name="edotaccent" unicode="&#x117;" horiz-adv-x="1033" d="M112 0 L960 0 L960 86 L211 86 L211 242 L873 242 L873 318 L211 318 L211 474 L960 474 L960 560 L112 560 L112 0 Z M474 666 L582 666 L582 773 L474 773 L474 666 Z " />
<glyph glyph-name="Eogonek" unicode="&#x118;" horiz-adv-x="1199" d="M122 0 L1026 0 C948 -27 865 -85 865 -169 C865 -227 916 -262 992 -262 C1033 -262 1073 -257 1119 -239 L1119 -189 C1083 -205 1061 -208 1033 -208 C986 -208 953 -186 953 -145 C953 -78 1017 -31 1088 0 L1119 0 L1119 100 L232 100 L232 305 L1017 305 L1017 395 L232 395 L232 600 L1119 600 L1119 700 L122 700 L122 0 Z " />
<glyph glyph-name="eogonek" unicode="&#x119;" horiz-adv-x="1033" d="M112 0 L867 0 C789 -27 706 -85 706 -169 C706 -227 757 -262 833 -262 C874 -262 914 -257 960 -239 L960 -189 C924 -205 902 -208 874 -208 C827 -208 794 -186 794 -145 C794 -78 858 -31 929 0 L960 0 L960 86 L211 86 L211 242 L873 242 L873 318 L211 318 L211 474 L960 474 L960 560 L112 560 L112 0 Z " />
<glyph glyph-name="Ecaron" unicode="&#x11a;" horiz-adv-x="1199" d="M122 0 L1119 0 L1119 100 L232 100 L232 305 L1017 305 L1017 395 L232 395 L232 600 L1119 600 L1119 700 L122 700 L122 0 Z M794 946 L723 946 L610 831 L496 946 L425 946 L545 775 L674 775 L794 946 Z " />
<glyph glyph-name="ecaron" unicode="&#x11b;" horiz-adv-x="1033" d="M112 0 L960 0 L960 86 L211 86 L211 242 L873 242 L873 318 L211 318 L211 474 L960 474 L960 560 L112 560 L112 0 Z M713 806 L642 806 L529 691 L415 806 L344 806 L464 635 L593 635 L713 806 Z " />
<glyph glyph-name="Gcircumflex" unicode="&#x11c;" horiz-adv-x="1256" d="M664 305 L1051 305 L1051 100 L517 100 C272 100 192 212 192 350 C192 488 272 600 517 600 L1104 600 L1104 700 L516 700 C199 700 75 543 75 350 C75 157 199 0 516 0 L1159 0 L1159 395 L664 395 L664 305 Z M716 946 L587 946 L467 775 L538 775 L652 890 L765 775 L836 775 L716 946 Z " />
<glyph glyph-name="gcircumflex" unicode="&#x11d;" horiz-adv-x="1080" d="M568 242 L893 242 L893 86 L435 86 C230 86 173 173 173 280 C173 387 230 474 435 474 L943 474 L943 560 L435 560 C165 560 68 434 68 280 C68 126 165 0 435 0 L990 0 L990 318 L568 318 L568 242 Z M616 806 L487 806 L367 635 L438 635 L552 750 L665 635 L736 635 L616 806 Z " />
<glyph glyph-name="Gbreve" unicode="&#x11e;" horiz-adv-x="1256" d="M664 305 L1051 305 L1051 100 L517 100 C272 100 192 212 192 350 C192 488 272 600 517 600 L1104 600 L1104 700 L516 700 C199 700 75 543 75 350 C75 157 199 0 516 0 L1159 0 L1159 395 L664 395 L664 305 Z M652 854 C575 854 544 892 540 938 L479 938 C484 863 520 783 652 783 C783 783 820 863 825 938 L764 938 C759 892 729 854 652 854 L652 854 Z " />
<glyph glyph-name="gbreve" unicode="&#x11f;" horiz-adv-x="1080" d="M568 242 L893 242 L893 86 L435 86 C230 86 173 173 173 280 C173 387 230 474 435 474 L943 474 L943 560 L435 560 C165 560 68 434 68 280 C68 126 165 0 435 0 L990 0 L990 318 L568 318 L568 242 Z M552 714 C475 714 444 752 440 798 L379 798 C384 723 420 643 552 643 C683 643 720 723 725 798 L664 798 C659 752 629 714 552 714 L552 714 Z " />
<glyph glyph-name="Gdotaccent" unicode="&#x120;" horiz-adv-x="1256" d="M664 305 L1051 305 L1051 100 L517 100 C272 100 192 212 192 350 C192 488 272 600 517 600 L1104 600 L1104 700 L516 700 C199 700 75 543 75 350 C75 157 199 0 516 0 L1159 0 L1159 395 L664 395 L664 305 Z M598 806 L706 806 L706 913 L598 913 L598 806 Z " />
<glyph glyph-name="gdotaccent" unicode="&#x121;" horiz-adv-x="1080" d="M568 242 L893 242 L893 86 L435 86 C230 86 173 173 173 280 C173 387 230 474 435 474 L943 474 L943 560 L435 560 C165 560 68 434 68 280 C68 126 165 0 435 0 L990 0 L990 318 L568 318 L568 242 Z M498 666 L606 666 L606 773 L498 773 L498 666 Z " />
<glyph glyph-name="uni0122" unicode="&#x122;" horiz-adv-x="1256" d="M664 305 L1051 305 L1051 100 L517 100 C272 100 192 212 192 350 C192 488 272 600 517 600 L1104 600 L1104 700 L516 700 C199 700 75 543 75 350 C75 157 199 0 516 0 L1159 0 L1159 395 L664 395 L664 305 Z M611 -215 L653 -215 L601 -326 L651 -326 L719 -207 L719 -108 L611 -108 L611 -215 Z " />
<glyph glyph-name="uni0123" unicode="&#x123;" horiz-adv-x="1080" d="M568 242 L893 242 L893 86 L435 86 C230 86 173 173 173 280 C173 387 230 474 435 474 L943 474 L943 560 L435 560 C165 560 68 434 68 280 C68 126 165 0 435 0 L990 0 L990 318 L568 318 L568 242 Z M509 -215 L551 -215 L499 -326 L549 -326 L617 -207 L617 -108 L509 -108 L509 -215 Z " />
<glyph glyph-name="Hcircumflex" unicode="&#x124;" horiz-adv-x="1305" d="M1073 0 L1183 0 L1183 700 L1073 700 L1073 400 L232 400 L232 700 L122 700 L122 0 L232 0 L232 300 L1073 300 L1073 0 Z M717 946 L588 946 L468 775 L539 775 L653 890 L766 775 L837 775 L717 946 Z " />
<glyph glyph-name="hcircumflex" unicode="&#x125;" horiz-adv-x="1127" d="M916 0 L1015 0 L1015 560 L916 560 L916 323 L211 323 L211 560 L112 560 L112 0 L211 0 L211 237 L916 237 L916 0 Z M628 806 L499 806 L379 635 L450 635 L564 750 L677 635 L748 635 L628 806 Z " />
<glyph glyph-name="Hbar" unicode="&#x126;" horiz-adv-x="1305" d="M22 523 L122 523 L122 0 L232 0 L232 300 L1073 300 L1073 0 L1183 0 L1183 523 L1283 523 L1283 577 L1183 577 L1183 700 L1073 700 L1073 577 L232 577 L232 700 L122 700 L122 577 L22 577 L22 523 Z M232 400 L232 523 L1073 523 L1073 400 L232 400 Z " />
<glyph glyph-name="hbar" unicode="&#x127;" horiz-adv-x="1127" d="M22 414 L112 414 L112 0 L211 0 L211 237 L916 237 L916 0 L1015 0 L1015 414 L1104 414 L1104 468 L1015 468 L1015 560 L916 560 L916 468 L211 468 L211 560 L112 560 L112 468 L22 468 L22 414 Z M211 323 L211 414 L916 414 L916 323 L211 323 Z " />
<glyph glyph-name="Itilde" unicode="&#x128;" horiz-adv-x="354" d="M122 0 L232 0 L232 700 L122 700 L122 0 Z M299 934 C295 882 278 871 252 871 C209 871 165 927 102 927 C44 927 6 894 0 786 L55 786 C59 838 76 850 102 850 C145 850 188 793 252 793 C310 793 349 826 354 934 L299 934 Z " />
<glyph glyph-name="itilde" unicode="&#x129;" horiz-adv-x="323" d="M112 0 L211 0 L211 560 L112 560 L112 0 Z M284 794 C280 742 263 731 237 731 C194 731 150 787 87 787 C29 787 -9 754 -15 646 L40 646 C44 698 61 710 87 710 C130 710 173 653 237 653 C295 653 334 686 339 794 L284 794 Z " />
<glyph glyph-name="Imacron" unicode="&#x12a;" horiz-adv-x="354" d="M122 0 L232 0 L232 700 L122 700 L122 0 Z M-7 824 L361 824 L361 896 L-7 896 L-7 824 Z " />
<glyph glyph-name="imacron" unicode="&#x12b;" horiz-adv-x="323" d="M112 0 L211 0 L211 560 L112 560 L112 0 Z M-22 684 L346 684 L346 756 L-22 756 L-22 684 Z " />
<glyph glyph-name="Ibreve" unicode="&#x12c;" horiz-adv-x="354" d="M122 0 L232 0 L232 700 L122 700 L122 0 Z M177 854 C100 854 69 892 65 938 L4 938 C9 863 45 783 177 783 C308 783 345 863 350 938 L289 938 C284 892 254 854 177 854 L177 854 Z " />
<glyph glyph-name="ibreve" unicode="&#x12d;" horiz-adv-x="323" d="M112 0 L211 0 L211 560 L112 560 L112 0 Z M162 714 C85 714 54 752 50 798 L-11 798 C-6 723 30 643 162 643 C293 643 330 723 335 798 L274 798 C269 752 239 714 162 714 L162 714 Z " />
<glyph glyph-name="Iogonek" unicode="&#x12e;" horiz-adv-x="354" d="M9 -156 C9 -231 78 -262 136 -262 C177 -262 217 -257 263 -239 L263 -189 C227 -205 205 -208 177 -208 C122 -208 91 -180 91 -133 C91 -77 119 -36 170 0 L232 0 L232 700 L122 700 L122 0 C62 -31 9 -85 9 -156 L9 -156 Z " />
<glyph glyph-name="iogonek" unicode="&#x12f;" horiz-adv-x="323" d="M-1 -156 C-1 -231 68 -262 126 -262 C167 -262 207 -257 253 -239 L253 -189 C217 -205 195 -208 167 -208 C112 -208 81 -180 81 -133 C81 -77 109 -36 160 0 L211 0 L211 560 L112 560 L112 0 C52 -31 -1 -85 -1 -156 L-1 -156 Z " />
<glyph glyph-name="Idotaccent" unicode="&#x130;" horiz-adv-x="354" d="M122 0 L232 0 L232 700 L122 700 L122 0 Z M123 806 L231 806 L231 913 L123 913 L123 806 Z " />
<glyph glyph-name="dotlessi" unicode="&#x131;" horiz-adv-x="323" d="M112 0 L211 0 L211 560 L112 560 L112 0 Z " />
<glyph glyph-name="IJ" unicode="&#x132;" horiz-adv-x="1271" d="M445 -5 L748 -5 C1065 -5 1169 132 1169 325 L1169 700 L1059 700 L1059 325 C1059 189 989 95 747 95 L446 95 C266 95 212 176 212 275 L212 326 L102 326 L102 275 C102 121 191 -5 445 -5 L445 -5 Z M102 445 L212 445 L212 700 L102 700 L102 445 Z " />
<glyph glyph-name="ij" unicode="&#x133;" horiz-adv-x="1092" d="M92 356 L191 356 L191 560 L92 560 L92 356 Z M378 -4 L650 -4 C920 -4 1000 106 1000 260 L1000 560 L902 560 L902 260 C902 155 852 82 650 82 L379 82 C229 82 191 144 191 220 L191 262 L92 262 L92 220 C92 97 162 -4 378 -4 L378 -4 Z " />
<glyph glyph-name="Jcircumflex" unicode="&#x134;" horiz-adv-x="1211" d="M385 -5 L688 -5 C1005 -5 1109 132 1109 325 L1109 700 L999 700 L999 325 C999 189 929 95 687 95 L386 95 C206 95 152 176 152 275 L152 326 L42 326 L42 275 C42 121 131 -5 385 -5 L385 -5 Z M1089 946 L960 946 L840 775 L911 775 L1025 890 L1138 775 L1209 775 L1089 946 Z " />
<glyph glyph-name="jcircumflex" unicode="&#x135;" horiz-adv-x="1042" d="M328 -4 L600 -4 C870 -4 950 106 950 260 L950 560 L852 560 L852 260 C852 155 802 82 600 82 L329 82 C179 82 141 144 141 220 L141 262 L42 262 L42 220 C42 97 112 -4 328 -4 L328 -4 Z M936 806 L807 806 L687 635 L758 635 L872 750 L985 635 L1056 635 L936 806 Z " />
<glyph glyph-name="uni0136" unicode="&#x136;" horiz-adv-x="1292" d="M1196 700 L1003 700 L232 254 L232 700 L122 700 L122 0 L232 0 L232 144 L547 326 L1098 0 L1287 0 L645 382 L1196 700 Z M588 -215 L630 -215 L578 -326 L628 -326 L696 -207 L696 -108 L588 -108 L588 -215 Z " />
<glyph glyph-name="uni0137" unicode="&#x137;" horiz-adv-x="1114" d="M1033 560 L853 560 L211 210 L211 560 L112 560 L112 0 L211 0 L211 114 L476 258 L934 0 L1104 0 L564 305 L1033 560 Z M499 -215 L541 -215 L489 -326 L539 -326 L607 -207 L607 -108 L499 -108 L499 -215 Z " />
<glyph glyph-name="kgreenlandic" unicode="&#x138;" horiz-adv-x="1249" d="M1195 449 L1153 449 L1205 560 L1155 560 L1087 441 L1087 342 L1195 342 L1195 449 Z M1033 560 L853 560 L211 210 L211 560 L112 560 L112 0 L211 0 L211 114 L476 258 L934 0 L1104 0 L564 305 L1033 560 Z " />
<glyph glyph-name="Lacute" unicode="&#x139;" horiz-adv-x="1129" d="M232 700 L122 700 L122 0 L1099 0 L1099 100 L232 100 L232 700 Z M100 775 L171 775 L331 946 L205 946 L100 775 Z " />
<glyph glyph-name="lacute" unicode="&#x13a;" horiz-adv-x="986" d="M211 560 L112 560 L112 0 L943 0 L943 86 L211 86 L211 560 Z M85 635 L156 635 L316 806 L190 806 L85 635 Z " />
<glyph glyph-name="uni013B" unicode="&#x13b;" horiz-adv-x="1129" d="M232 700 L122 700 L122 0 L1099 0 L1099 100 L232 100 L232 700 Z M553 -215 L595 -215 L543 -326 L593 -326 L661 -207 L661 -108 L553 -108 L553 -215 Z " />
<glyph glyph-name="uni013C" unicode="&#x13c;" horiz-adv-x="986" d="M211 560 L112 560 L112 0 L943 0 L943 86 L211 86 L211 560 Z M477 -215 L519 -215 L467 -326 L517 -326 L585 -207 L585 -108 L477 -108 L477 -215 Z " />
<glyph glyph-name="Lcaron" unicode="&#x13d;" horiz-adv-x="1129" d="M232 700 L122 700 L122 0 L1099 0 L1099 100 L232 100 L232 700 Z M866 581 L919 581 L867 454 L917 454 L985 589 L985 700 L866 700 L866 581 Z " />
<glyph glyph-name="lcaron" unicode="&#x13e;" horiz-adv-x="986" d="M211 560 L112 560 L112 0 L943 0 L943 86 L211 86 L211 560 Z M751 453 L793 453 L741 342 L791 342 L859 461 L859 560 L751 560 L751 453 Z " />
<glyph glyph-name="Ldot" unicode="&#x13f;" horiz-adv-x="1129" d="M232 700 L122 700 L122 0 L1099 0 L1099 100 L232 100 L232 700 Z M726 346 L834 346 L834 453 L726 453 L726 346 Z " />
<glyph glyph-name="ldot" unicode="&#x140;" horiz-adv-x="986" d="M211 560 L112 560 L112 0 L943 0 L943 86 L211 86 L211 560 Z M634 269 L742 269 L742 376 L634 376 L634 269 Z " />
<glyph glyph-name="Lslash" unicode="&#x141;" horiz-adv-x="1129" d="M594 567 L232 380 L232 700 L122 700 L122 325 L23 278 L23 166 L122 218 L122 0 L1099 0 L1099 100 L232 100 L232 274 L594 455 L594 567 Z " />
<glyph glyph-name="lslash" unicode="&#x142;" horiz-adv-x="986" d="M514 458 L211 310 L211 560 L112 560 L112 264 L28 226 L28 130 L112 172 L112 0 L943 0 L943 86 L211 86 L211 220 L514 362 L514 458 Z " />
<glyph glyph-name="Nacute" unicode="&#x143;" horiz-adv-x="1306" d="M1080 0 L1184 0 L1184 700 L1074 700 L1074 129 L226 700 L122 700 L122 0 L232 0 L232 571 L1080 0 Z M575 775 L646 775 L806 946 L680 946 L575 775 Z " />
<glyph glyph-name="nacute" unicode="&#x144;" horiz-adv-x="1128" d="M1016 0 L1016 560 L917 560 L917 111 L206 560 L112 560 L112 0 L211 0 L211 449 L922 0 L1016 0 Z M486 635 L557 635 L717 806 L591 806 L486 635 Z " />
<glyph glyph-name="uni0145" unicode="&#x145;" horiz-adv-x="1306" d="M600 -215 L642 -215 L590 -326 L640 -326 L708 -207 L708 -108 L600 -108 L600 -215 Z M1080 0 L1184 0 L1184 700 L1074 700 L1074 129 L226 700 L122 700 L122 0 L232 0 L232 571 L1080 0 Z " />
<glyph glyph-name="uni0146" unicode="&#x146;" horiz-adv-x="1128" d="M511 -215 L553 -215 L501 -326 L551 -326 L619 -207 L619 -108 L511 -108 L511 -215 Z M1016 0 L1016 560 L917 560 L917 111 L206 560 L112 560 L112 0 L211 0 L211 449 L922 0 L1016 0 Z " />
<glyph glyph-name="Ncaron" unicode="&#x147;" horiz-adv-x="1306" d="M1080 0 L1184 0 L1184 700 L1074 700 L1074 129 L226 700 L122 700 L122 0 L232 0 L232 571 L1080 0 Z M837 946 L766 946 L653 831 L539 946 L468 946 L588 775 L717 775 L837 946 Z " />
<glyph glyph-name="ncaron" unicode="&#x148;" horiz-adv-x="1128" d="M1016 0 L1016 560 L917 560 L917 111 L206 560 L112 560 L112 0 L211 0 L211 449 L922 0 L1016 0 Z M748 806 L677 806 L564 691 L450 806 L379 806 L499 635 L628 635 L748 806 Z " />
<glyph glyph-name="napostrophe" unicode="&#x149;" horiz-adv-x="1340" d="M59 593 L101 593 L49 482 L99 482 L167 601 L167 700 L59 700 L59 593 Z M1228 0 L1228 560 L1129 560 L1129 111 L418 560 L324 560 L324 0 L423 0 L423 449 L1134 0 L1228 0 Z " />
<glyph glyph-name="Eng" unicode="&#x14a;" horiz-adv-x="1306" d="M747 -230 L931 -230 C1114 -230 1184 -142 1184 -32 L1184 700 L1074 700 L1074 129 L226 700 L122 700 L122 0 L232 0 L232 571 L1074 4 L1074 -31 C1074 -84 1037 -130 928 -130 L747 -130 L747 -230 Z " />
<glyph glyph-name="eng" unicode="&#x14b;" horiz-adv-x="1128" d="M643 -184 L805 -184 C962 -184 1016 -113 1016 -24 L1016 560 L917 560 L917 111 L206 560 L112 560 L112 0 L211 0 L211 449 L917 3 L917 -23 C917 -63 893 -98 803 -98 L643 -98 L643 -184 Z " />
<glyph glyph-name="Omacron" unicode="&#x14c;" horiz-adv-x="1348" d="M819 -10 C1145 -10 1273 151 1273 350 C1273 549 1145 710 819 710 L529 710 C203 710 75 549 75 350 C75 151 203 -10 529 -10 L819 -10 Z M530 90 C276 90 192 206 192 350 C192 494 276 610 531 610 L818 610 C1072 610 1156 494 1156 350 C1156 206 1072 90 818 90 L530 90 Z M490 824 L858 824 L858 896 L490 896 L490 824 Z " />
<glyph glyph-name="omacron" unicode="&#x14d;" horiz-adv-x="1154" d="M708 -8 C985 -8 1086 121 1086 280 C1086 439 985 568 708 568 L446 568 C169 568 68 439 68 280 C68 121 169 -8 446 -8 L708 -8 Z M447 78 C234 78 172 168 172 280 C172 392 234 482 447 482 L707 482 C920 482 982 392 982 280 C982 168 920 78 707 78 L447 78 Z M393 684 L761 684 L761 756 L393 756 L393 684 Z " />
<glyph glyph-name="Obreve" unicode="&#x14e;" horiz-adv-x="1348" d="M819 -10 C1145 -10 1273 151 1273 350 C1273 549 1145 710 819 710 L529 710 C203 710 75 549 75 350 C75 151 203 -10 529 -10 L819 -10 Z M530 90 C276 90 192 206 192 350 C192 494 276 610 531 610 L818 610 C1072 610 1156 494 1156 350 C1156 206 1072 90 818 90 L530 90 Z M674 854 C597 854 566 892 562 938 L501 938 C506 863 542 783 674 783 C805 783 842 863 847 938 L786 938 C781 892 751 854 674 854 L674 854 Z " />
<glyph glyph-name="obreve" unicode="&#x14f;" horiz-adv-x="1154" d="M708 -8 C985 -8 1086 121 1086 280 C1086 439 985 568 708 568 L446 568 C169 568 68 439 68 280 C68 121 169 -8 446 -8 L708 -8 Z M447 78 C234 78 172 168 172 280 C172 392 234 482 447 482 L707 482 C920 482 982 392 982 280 C982 168 920 78 707 78 L447 78 Z M577 714 C500 714 469 752 465 798 L404 798 C409 723 445 643 577 643 C708 643 745 723 750 798 L689 798 C684 752 654 714 577 714 L577 714 Z " />
<glyph glyph-name="Ohungarumlaut" unicode="&#x150;" horiz-adv-x="1348" d="M819 -10 C1145 -10 1273 151 1273 350 C1273 549 1145 710 819 710 L529 710 C203 710 75 549 75 350 C75 151 203 -10 529 -10 L819 -10 Z M530 90 C276 90 192 206 192 350 C192 494 276 610 531 610 L818 610 C1072 610 1156 494 1156 350 C1156 206 1072 90 818 90 L530 90 Z M719 775 L790 775 L950 946 L824 946 L719 775 Z M474 775 L546 775 L705 946 L580 946 L474 775 Z " />
<glyph glyph-name="ohungarumlaut" unicode="&#x151;" horiz-adv-x="1154" d="M708 -8 C985 -8 1086 121 1086 280 C1086 439 985 568 708 568 L446 568 C169 568 68 439 68 280 C68 121 169 -8 446 -8 L708 -8 Z M447 78 C234 78 172 168 172 280 C172 392 234 482 447 482 L707 482 C920 482 982 392 982 280 C982 168 920 78 707 78 L447 78 Z M622 635 L693 635 L853 806 L727 806 L622 635 Z M377 635 L449 635 L608 806 L483 806 L377 635 Z " />
<glyph glyph-name="OE" unicode="&#x152;" horiz-adv-x="1746" d="M75 350 C75 157 199 0 516 0 L1666 0 L1666 100 L884 100 L884 305 L1564 305 L1564 395 L884 395 L884 600 L1666 600 L1666 700 L516 700 C199 700 75 543 75 350 L75 350 Z M192 350 C192 488 272 600 517 600 L774 600 L774 100 L517 100 C272 100 192 212 192 350 L192 350 Z " />
<glyph glyph-name="oe" unicode="&#x153;" horiz-adv-x="1495" d="M68 280 C68 126 165 0 435 0 L1422 0 L1422 86 L760 86 L760 242 L1334 242 L1334 318 L760 318 L760 474 L1422 474 L1422 560 L435 560 C165 560 68 434 68 280 L68 280 Z M173 280 C173 387 230 474 435 474 L662 474 L662 86 L435 86 C230 86 173 173 173 280 L173 280 Z " />
<glyph glyph-name="Racute" unicode="&#x154;" horiz-adv-x="1278" d="M122 0 L232 0 L232 262 L648 262 L1088 0 L1273 0 L821 263 L871 263 C1071 263 1150 359 1150 482 C1150 602 1071 700 871 700 L122 700 L122 0 Z M867 600 C996 600 1035 545 1035 479 C1035 412 996 358 867 358 L232 358 L232 600 L867 600 Z M522 775 L593 775 L753 946 L627 946 L522 775 Z " />
<glyph glyph-name="racute" unicode="&#x155;" horiz-adv-x="1106" d="M112 0 L211 0 L211 207 L558 207 L926 0 L1092 0 L714 208 L755 208 C925 208 987 285 987 384 C987 481 925 560 755 560 L112 560 L112 0 Z M751 474 C858 474 884 432 884 382 C884 330 858 289 751 289 L211 289 L211 474 L751 474 Z M441 635 L512 635 L672 806 L546 806 L441 635 Z " />
<glyph glyph-name="uni0156" unicode="&#x156;" horiz-adv-x="1278" d="M122 0 L232 0 L232 262 L648 262 L1088 0 L1273 0 L821 263 L871 263 C1071 263 1150 359 1150 482 C1150 602 1071 700 871 700 L122 700 L122 0 Z M867 600 C996 600 1035 545 1035 479 C1035 412 996 358 867 358 L232 358 L232 600 L867 600 Z M581 -215 L623 -215 L571 -326 L621 -326 L689 -207 L689 -108 L581 -108 L581 -215 Z " />
<glyph glyph-name="uni0157" unicode="&#x157;" horiz-adv-x="1106" d="M112 0 L211 0 L211 207 L558 207 L926 0 L1092 0 L714 208 L755 208 C925 208 987 285 987 384 C987 481 925 560 755 560 L112 560 L112 0 Z M751 474 C858 474 884 432 884 382 C884 330 858 289 751 289 L211 289 L211 474 L751 474 Z M493 -215 L535 -215 L483 -326 L533 -326 L601 -207 L601 -108 L493 -108 L493 -215 Z " />
<glyph glyph-name="Rcaron" unicode="&#x158;" horiz-adv-x="1278" d="M122 0 L232 0 L232 262 L648 262 L1088 0 L1273 0 L821 263 L871 263 C1071 263 1150 359 1150 482 C1150 602 1071 700 871 700 L122 700 L122 0 Z M867 600 C996 600 1035 545 1035 479 C1035 412 996 358 867 358 L232 358 L232 600 L867 600 Z M784 946 L713 946 L600 831 L486 946 L415 946 L535 775 L664 775 L784 946 Z " />
<glyph glyph-name="rcaron" unicode="&#x159;" horiz-adv-x="1106" d="M112 0 L211 0 L211 207 L558 207 L926 0 L1092 0 L714 208 L755 208 C925 208 987 285 987 384 C987 481 925 560 755 560 L112 560 L112 0 Z M751 474 C858 474 884 432 884 382 C884 330 858 289 751 289 L211 289 L211 474 L751 474 Z M703 806 L632 806 L519 691 L405 806 L334 806 L454 635 L583 635 L703 806 Z " />
<glyph glyph-name="Sacute" unicode="&#x15a;" horiz-adv-x="1207" d="M112 0 L882 0 C1065 0 1135 88 1135 198 C1135 310 1065 395 882 395 L328 395 C217 395 187 441 187 498 C187 553 217 600 328 600 L1095 600 L1095 700 L325 700 C142 700 72 612 72 502 C72 390 142 305 325 305 L879 305 C990 305 1020 259 1020 202 C1020 147 990 100 879 100 L112 100 L112 0 Z M526 775 L597 775 L757 946 L631 946 L526 775 Z " />
<glyph glyph-name="sacute" unicode="&#x15b;" horiz-adv-x="1032" d="M98 0 L758 0 C914 0 968 70 968 159 C968 249 914 318 758 318 L279 318 C189 318 167 353 167 396 C167 439 189 474 279 474 L934 474 L934 560 L274 560 C118 560 64 490 64 401 C64 311 118 242 274 242 L753 242 C843 242 865 207 865 164 C865 121 844 86 753 86 L98 86 L98 0 Z M438 635 L509 635 L669 806 L543 806 L438 635 Z " />
<glyph glyph-name="Scircumflex" unicode="&#x15c;" horiz-adv-x="1207" d="M112 0 L882 0 C1065 0 1135 88 1135 198 C1135 310 1065 395 882 395 L328 395 C217 395 187 441 187 498 C187 553 217 600 328 600 L1095 600 L1095 700 L325 700 C142 700 72 612 72 502 C72 390 142 305 325 305 L879 305 C990 305 1020 259 1020 202 C1020 147 990 100 879 100 L112 100 L112 0 Z M668 946 L539 946 L419 775 L490 775 L604 890 L717 775 L788 775 L668 946 Z " />
<glyph glyph-name="scircumflex" unicode="&#x15d;" horiz-adv-x="1032" d="M98 0 L758 0 C914 0 968 70 968 159 C968 249 914 318 758 318 L279 318 C189 318 167 353 167 396 C167 439 189 474 279 474 L934 474 L934 560 L274 560 C118 560 64 490 64 401 C64 311 118 242 274 242 L753 242 C843 242 865 207 865 164 C865 121 844 86 753 86 L98 86 L98 0 Z M580 806 L451 806 L331 635 L402 635 L516 750 L629 635 L700 635 L580 806 Z " />
<glyph glyph-name="Scedilla" unicode="&#x15e;" horiz-adv-x="1207" d="M112 0 L579 0 L548 -115 L577 -115 C638 -116 670 -127 670 -166 C670 -235 524 -222 480 -196 L480 -245 C553 -282 748 -297 748 -169 C748 -88 681 -70 603 -70 L602 -70 L620 0 L882 0 C1065 0 1135 88 1135 198 C1135 310 1065 395 882 395 L328 395 C217 395 187 441 187 498 C187 553 217 600 328 600 L1095 600 L1095 700 L325 700 C142 700 72 612 72 502 C72 390 142 305 325 305 L879 305 C990 305 1020 259 1020 202 C1020 147 990 100 879 100 L112 100 L112 0 Z " />
<glyph glyph-name="scedilla" unicode="&#x15f;" horiz-adv-x="1032" d="M98 0 L491 0 L460 -115 L489 -115 C550 -116 582 -127 582 -166 C582 -235 436 -222 392 -196 L392 -245 C465 -282 660 -297 660 -169 C660 -88 593 -70 515 -70 L514 -70 L532 0 L758 0 C914 0 968 70 968 159 C968 249 914 318 758 318 L279 318 C189 318 167 353 167 396 C167 439 189 474 279 474 L934 474 L934 560 L274 560 C118 560 64 490 64 401 C64 311 118 242 274 242 L753 242 C843 242 865 207 865 164 C865 121 844 86 753 86 L98 86 L98 0 Z " />
<glyph glyph-name="Scaron" unicode="&#x160;" horiz-adv-x="1207" d="M112 0 L882 0 C1065 0 1135 88 1135 198 C1135 310 1065 395 882 395 L328 395 C217 395 187 441 187 498 C187 553 217 600 328 600 L1095 600 L1095 700 L325 700 C142 700 72 612 72 502 C72 390 142 305 325 305 L879 305 C990 305 1020 259 1020 202 C1020 147 990 100 879 100 L112 100 L112 0 Z M788 946 L717 946 L604 831 L490 946 L419 946 L539 775 L668 775 L788 946 Z " />
<glyph glyph-name="scaron" unicode="&#x161;" horiz-adv-x="1032" d="M98 0 L758 0 C914 0 968 70 968 159 C968 249 914 318 758 318 L279 318 C189 318 167 353 167 396 C167 439 189 474 279 474 L934 474 L934 560 L274 560 C118 560 64 490 64 401 C64 311 118 242 274 242 L753 242 C843 242 865 207 865 164 C865 121 844 86 753 86 L98 86 L98 0 Z M700 806 L629 806 L516 691 L402 806 L331 806 L451 635 L580 635 L700 806 Z " />
<glyph glyph-name="uni0162" unicode="&#x162;" horiz-adv-x="1184" d="M30 600 L537 600 L537 0 L567 0 L536 -115 L565 -115 C626 -116 658 -127 658 -166 C658 -235 512 -222 468 -196 L468 -245 C541 -282 736 -297 736 -169 C736 -88 669 -70 591 -70 L590 -70 L608 0 L647 0 L647 600 L1154 600 L1154 700 L30 700 L30 600 Z " />
<glyph glyph-name="uni0163" unicode="&#x163;" horiz-adv-x="1041" d="M43 474 L471 474 L471 0 L496 0 L465 -115 L494 -115 C555 -116 587 -127 587 -166 C587 -235 441 -222 397 -196 L397 -245 C470 -282 665 -297 665 -169 C665 -88 598 -70 520 -70 L519 -70 L537 0 L570 0 L570 474 L998 474 L998 560 L43 560 L43 474 Z " />
<glyph glyph-name="Tcaron" unicode="&#x164;" horiz-adv-x="1184" d="M30 600 L537 600 L537 0 L647 0 L647 600 L1154 600 L1154 700 L30 700 L30 600 Z M776 946 L705 946 L592 831 L478 946 L407 946 L527 775 L656 775 L776 946 Z " />
<glyph glyph-name="tcaron" unicode="&#x165;" horiz-adv-x="1041" d="M705 806 L634 806 L521 691 L407 806 L336 806 L456 635 L585 635 L705 806 Z M43 474 L471 474 L471 0 L570 0 L570 474 L998 474 L998 560 L43 560 L43 474 Z " />
<glyph glyph-name="Tbar" unicode="&#x166;" horiz-adv-x="1184" d="M30 600 L537 600 L537 393 L268 393 L268 307 L537 307 L537 0 L647 0 L647 307 L915 307 L915 393 L647 393 L647 600 L1154 600 L1154 700 L30 700 L30 600 Z " />
<glyph glyph-name="tbar" unicode="&#x167;" horiz-adv-x="1041" d="M43 474 L471 474 L471 309 L234 309 L234 235 L471 235 L471 0 L570 0 L570 235 L806 235 L806 309 L570 309 L570 474 L998 474 L998 560 L43 560 L43 474 Z " />
<glyph glyph-name="Utilde" unicode="&#x168;" horiz-adv-x="1275" d="M212 323 L212 700 L102 700 L102 323 C102 130 206 -10 523 -10 L752 -10 C1069 -10 1173 130 1173 323 L1173 700 L1063 700 L1063 323 C1063 187 993 90 751 90 L524 90 C282 90 212 187 212 323 L212 323 Z M759 934 C755 882 738 871 712 871 C669 871 625 927 562 927 C504 927 466 894 460 786 L515 786 C519 838 536 850 562 850 C605 850 648 793 712 793 C770 793 809 826 814 934 L759 934 Z " />
<glyph glyph-name="utilde" unicode="&#x169;" horiz-adv-x="1095" d="M190 258 L190 560 L92 560 L92 258 C92 104 172 -8 441 -8 L653 -8 C922 -8 1003 104 1003 258 L1003 560 L904 560 L904 258 C904 153 855 78 652 78 L442 78 C240 78 190 153 190 258 L190 258 Z M669 794 C665 742 648 731 622 731 C579 731 535 787 472 787 C414 787 376 754 370 646 L425 646 C429 698 446 710 472 710 C515 710 558 653 622 653 C680 653 719 686 724 794 L669 794 Z " />
<glyph glyph-name="Umacron" unicode="&#x16a;" horiz-adv-x="1275" d="M212 323 L212 700 L102 700 L102 323 C102 130 206 -10 523 -10 L752 -10 C1069 -10 1173 130 1173 323 L1173 700 L1063 700 L1063 323 C1063 187 993 90 751 90 L524 90 C282 90 212 187 212 323 L212 323 Z M453 824 L821 824 L821 896 L453 896 L453 824 Z " />
<glyph glyph-name="umacron" unicode="&#x16b;" horiz-adv-x="1095" d="M190 258 L190 560 L92 560 L92 258 C92 104 172 -8 441 -8 L653 -8 C922 -8 1003 104 1003 258 L1003 560 L904 560 L904 258 C904 153 855 78 652 78 L442 78 C240 78 190 153 190 258 L190 258 Z M363 684 L731 684 L731 756 L363 756 L363 684 Z " />
<glyph glyph-name="Ubreve" unicode="&#x16c;" horiz-adv-x="1275" d="M212 323 L212 700 L102 700 L102 323 C102 130 206 -10 523 -10 L752 -10 C1069 -10 1173 130 1173 323 L1173 700 L1063 700 L1063 323 C1063 187 993 90 751 90 L524 90 C282 90 212 187 212 323 L212 323 Z M637 854 C560 854 529 892 525 938 L464 938 C469 863 505 783 637 783 C768 783 805 863 810 938 L749 938 C744 892 714 854 637 854 L637 854 Z " />
<glyph glyph-name="ubreve" unicode="&#x16d;" horiz-adv-x="1095" d="M190 258 L190 560 L92 560 L92 258 C92 104 172 -8 441 -8 L653 -8 C922 -8 1003 104 1003 258 L1003 560 L904 560 L904 258 C904 153 855 78 652 78 L442 78 C240 78 190 153 190 258 L190 258 Z M547 714 C470 714 439 752 435 798 L374 798 C379 723 415 643 547 643 C678 643 715 723 720 798 L659 798 C654 752 624 714 547 714 L547 714 Z " />
<glyph glyph-name="Uring" unicode="&#x16e;" horiz-adv-x="1275" d="M212 323 L212 700 L102 700 L102 323 C102 130 206 -10 523 -10 L752 -10 C1069 -10 1173 130 1173 323 L1173 700 L1063 700 L1063 323 C1063 187 993 90 751 90 L524 90 C282 90 212 187 212 323 L212 323 Z M579 861 C579 893 605 918 637 918 C669 918 695 893 695 861 C695 829 669 804 637 804 C605 804 579 829 579 861 L579 861 Z M516 861 C516 798 567 749 637 749 C707 749 758 798 758 861 C758 924 707 973 637 973 C567 973 516 924 516 861 L516 861 Z " />
<glyph glyph-name="uring" unicode="&#x16f;" horiz-adv-x="1095" d="M190 258 L190 560 L92 560 L92 258 C92 104 172 -8 441 -8 L653 -8 C922 -8 1003 104 1003 258 L1003 560 L904 560 L904 258 C904 153 855 78 652 78 L442 78 C240 78 190 153 190 258 L190 258 Z M489 721 C489 753 515 778 547 778 C579 778 605 753 605 721 C605 689 579 664 547 664 C515 664 489 689 489 721 L489 721 Z M426 721 C426 658 477 609 547 609 C617 609 668 658 668 721 C668 784 617 833 547 833 C477 833 426 784 426 721 L426 721 Z " />
<glyph glyph-name="Uhungarumlaut" unicode="&#x170;" horiz-adv-x="1275" d="M212 323 L212 700 L102 700 L102 323 C102 130 206 -10 523 -10 L752 -10 C1069 -10 1173 130 1173 323 L1173 700 L1063 700 L1063 323 C1063 187 993 90 751 90 L524 90 C282 90 212 187 212 323 L212 323 Z M682 775 L753 775 L913 946 L787 946 L682 775 Z M437 775 L509 775 L668 946 L543 946 L437 775 Z " />
<glyph glyph-name="uhungarumlaut" unicode="&#x171;" horiz-adv-x="1095" d="M190 258 L190 560 L92 560 L92 258 C92 104 172 -8 441 -8 L653 -8 C922 -8 1003 104 1003 258 L1003 560 L904 560 L904 258 C904 153 855 78 652 78 L442 78 C240 78 190 153 190 258 L190 258 Z M592 635 L663 635 L823 806 L697 806 L592 635 Z M347 635 L419 635 L578 806 L453 806 L347 635 Z " />
<glyph glyph-name="Uogonek" unicode="&#x172;" horiz-adv-x="1275" d="M662 -169 C662 -227 713 -262 789 -262 C830 -262 870 -257 916 -239 L916 -189 C880 -205 858 -208 830 -208 C783 -208 750 -186 750 -145 C750 -78 813 -31 884 0 C1098 34 1173 160 1173 323 L1173 700 L1063 700 L1063 323 C1063 187 993 90 751 90 L524 90 C282 90 212 187 212 323 L212 700 L102 700 L102 323 C102 130 206 -10 523 -10 L752 -10 C768 -10 784 -10 800 -9 C729 -39 662 -93 662 -169 L662 -169 Z " />
<glyph glyph-name="uogonek" unicode="&#x173;" horiz-adv-x="1095" d="M543 -169 C543 -227 594 -262 670 -262 C711 -262 751 -257 797 -239 L797 -189 C761 -205 739 -208 711 -208 C664 -208 631 -186 631 -145 C631 -78 695 -31 764 0 C945 28 1003 128 1003 258 L1003 560 L904 560 L904 258 C904 153 855 78 652 78 L442 78 C240 78 190 153 190 258 L190 560 L92 560 L92 258 C92 104 172 -8 441 -8 L653 -8 C664 -8 674 -8 684 -7 C613 -37 543 -92 543 -169 L543 -169 Z " />
<glyph glyph-name="Wcircumflex" unicode="&#x174;" horiz-adv-x="1618" d="M809 563 L1120 0 L1202 0 L1596 700 L1464 700 L1159 137 L850 700 L768 700 L459 137 L154 700 L22 700 L416 0 L498 0 L809 563 Z M873 946 L744 946 L624 775 L695 775 L809 890 L922 775 L993 775 L873 946 Z " />
<glyph glyph-name="wcircumflex" unicode="&#x175;" horiz-adv-x="1383" d="M692 443 L953 0 L1026 0 L1361 560 L1243 560 L987 118 L729 560 L655 560 L396 118 L140 560 L22 560 L358 0 L431 0 L692 443 Z M756 806 L627 806 L507 635 L578 635 L692 750 L805 635 L876 635 L756 806 Z " />
<glyph glyph-name="Ycircumflex" unicode="&#x176;" horiz-adv-x="1249" d="M570 0 L680 0 L680 211 L1249 700 L1086 700 L625 299 L163 700 L0 700 L570 211 L570 0 Z M689 946 L560 946 L440 775 L511 775 L625 890 L738 775 L809 775 L689 946 Z " />
<glyph glyph-name="ycircumflex" unicode="&#x177;" horiz-adv-x="1063" d="M483 0 L581 0 L581 170 L1063 560 L917 560 L532 244 L146 560 L0 560 L483 170 L483 0 Z M596 806 L467 806 L347 635 L418 635 L532 750 L645 635 L716 635 L596 806 Z " />
<glyph glyph-name="Ydieresis" unicode="&#x178;" horiz-adv-x="1249" d="M570 0 L680 0 L680 211 L1249 700 L1086 700 L625 299 L163 700 L0 700 L570 211 L570 0 Z M706 806 L814 806 L814 913 L706 913 L706 806 Z M434 806 L541 806 L541 913 L434 913 L434 806 Z " />
<glyph glyph-name="Zacute" unicode="&#x179;" horiz-adv-x="1197" d="M72 0 L1135 0 L1135 100 L287 100 L1115 622 L1115 700 L82 700 L82 600 L899 600 L72 78 L72 0 Z M521 775 L592 775 L752 946 L626 946 L521 775 Z " />
<glyph glyph-name="zacute" unicode="&#x17a;" horiz-adv-x="1025" d="M65 0 L970 0 L970 86 L257 86 L953 493 L953 560 L74 560 L74 474 L759 474 L65 67 L65 0 Z M435 635 L506 635 L666 806 L540 806 L435 635 Z " />
<glyph glyph-name="Zdotaccent" unicode="&#x17b;" horiz-adv-x="1197" d="M72 0 L1135 0 L1135 100 L287 100 L1115 622 L1115 700 L82 700 L82 600 L899 600 L72 78 L72 0 Z M544 806 L652 806 L652 913 L544 913 L544 806 Z " />
<glyph glyph-name="zdotaccent" unicode="&#x17c;" horiz-adv-x="1025" d="M65 0 L970 0 L970 86 L257 86 L953 493 L953 560 L74 560 L74 474 L759 474 L65 67 L65 0 Z M458 666 L566 666 L566 773 L458 773 L458 666 Z " />
<glyph glyph-name="Zcaron" unicode="&#x17d;" horiz-adv-x="1197" d="M72 0 L1135 0 L1135 100 L287 100 L1115 622 L1115 700 L82 700 L82 600 L899 600 L72 78 L72 0 Z M783 946 L712 946 L599 831 L485 946 L414 946 L534 775 L663 775 L783 946 Z " />
<glyph glyph-name="zcaron" unicode="&#x17e;" horiz-adv-x="1025" d="M65 0 L970 0 L970 86 L257 86 L953 493 L953 560 L74 560 L74 474 L759 474 L65 67 L65 0 Z M697 806 L626 806 L513 691 L399 806 L328 806 L448 635 L577 635 L697 806 Z " />
<glyph glyph-name="uni0186" unicode="&#x186;" horiz-adv-x="1184" d="M992 350 C992 212 912 100 667 100 L80 100 L80 0 L668 0 C985 0 1109 157 1109 350 C1109 543 985 700 668 700 L80 700 L80 600 L667 600 C912 600 992 488 992 350 L992 350 Z " />
<glyph glyph-name="uni0189" unicode="&#x189;" horiz-adv-x="1255" d="M-8 305 L122 305 L122 0 L739 0 C1056 0 1180 157 1180 350 C1180 543 1056 700 739 700 L122 700 L122 395 L-8 395 L-8 305 Z M738 600 C983 600 1063 488 1063 350 C1063 212 983 100 738 100 L232 100 L232 305 L639 305 L639 395 L232 395 L232 600 L738 600 Z " />
<glyph glyph-name="uni018E" unicode="&#x18e;" horiz-adv-x="1199" d="M1077 700 L80 700 L80 600 L967 600 L967 395 L182 395 L182 305 L967 305 L967 100 L80 100 L80 0 L1077 0 L1077 700 Z " />
<glyph glyph-name="florin" unicode="&#x192;" horiz-adv-x="1298" d="M487 93 C477 1 438 -60 292 -60 L179 -60 L179 -160 L291 -160 C501 -160 581 -59 596 88 L618 302 L934 302 L934 393 L627 393 L633 447 C642 529 695 600 847 600 L1129 600 L1129 700 L852 700 C628 700 538 589 524 452 L518 393 L300 393 L300 302 L508 302 L487 93 Z " />
<glyph glyph-name="Ohorn" unicode="&#x1a0;" horiz-adv-x="1348" d="M819 -10 C1145 -10 1273 151 1273 350 C1273 470 1226 575 1118 641 L1183 641 C1282 641 1356 662 1356 771 C1356 787 1354 805 1351 826 L1247 826 C1250 808 1252 793 1252 779 C1252 712 1213 700 1155 700 L949 700 C909 706 866 710 819 710 L529 710 C203 710 75 549 75 350 C75 151 203 -10 529 -10 L819 -10 Z M530 90 C276 90 192 206 192 350 C192 494 276 610 531 610 L818 610 C1072 610 1156 494 1156 350 C1156 206 1072 90 818 90 L530 90 Z " />
<glyph glyph-name="ohorn" unicode="&#x1a1;" horiz-adv-x="1154" d="M708 -8 C985 -8 1086 121 1086 280 C1086 369 1054 448 978 501 L989 501 C1088 501 1162 522 1162 631 C1162 647 1160 665 1157 686 L1053 686 C1056 668 1058 653 1058 639 C1058 572 1019 560 961 560 L817 560 C784 565 748 568 708 568 L446 568 C169 568 68 439 68 280 C68 121 169 -8 446 -8 L708 -8 Z M447 78 C234 78 172 168 172 280 C172 392 234 482 447 482 L707 482 C920 482 982 392 982 280 C982 168 920 78 707 78 L447 78 Z " />
<glyph glyph-name="uni01A7" unicode="&#x1a7;" horiz-adv-x="1207" d="M1095 100 L328 100 C217 100 187 147 187 202 C187 259 217 305 328 305 L882 305 C1065 305 1135 390 1135 502 C1135 612 1065 700 882 700 L112 700 L112 600 L879 600 C990 600 1020 553 1020 498 C1020 441 990 395 879 395 L325 395 C142 395 72 310 72 198 C72 88 142 0 325 0 L1095 0 L1095 100 Z " />
<glyph glyph-name="uni01A8" unicode="&#x1a8;" horiz-adv-x="1032" d="M934 86 L279 86 C188 86 167 121 167 164 C167 207 189 242 279 242 L758 242 C914 242 968 311 968 401 C968 490 914 560 758 560 L98 560 L98 474 L753 474 C843 474 865 439 865 396 C865 353 843 318 753 318 L274 318 C118 318 64 249 64 159 C64 70 118 0 274 0 L934 0 L934 86 Z " />
<glyph glyph-name="Uhorn" unicode="&#x1af;" horiz-adv-x="1424" d="M212 323 L212 700 L102 700 L102 323 C102 130 206 -10 523 -10 L752 -10 C1069 -10 1173 130 1173 323 L1173 641 L1254 641 C1353 641 1427 662 1427 771 C1427 787 1425 805 1422 826 L1318 826 C1321 808 1323 793 1323 779 C1323 712 1284 700 1226 700 L1063 700 L1063 323 C1063 187 993 90 751 90 L524 90 C282 90 212 187 212 323 L212 323 Z " />
<glyph glyph-name="uhorn" unicode="&#x1b0;" horiz-adv-x="1254" d="M190 258 L190 560 L92 560 L92 258 C92 104 172 -8 441 -8 L653 -8 C922 -8 1003 104 1003 258 L1003 501 L1084 501 C1183 501 1257 522 1257 631 C1257 647 1255 665 1252 686 L1148 686 C1151 668 1153 653 1153 639 C1153 572 1114 560 1056 560 L904 560 L904 258 C904 153 855 78 652 78 L442 78 C240 78 190 153 190 258 L190 258 Z " />
<glyph glyph-name="uni01B1" unicode="&#x1b1;" horiz-adv-x="1356" d="M842 616 C1070 579 1150 463 1150 333 C1150 198 1072 90 834 90 L522 90 C284 90 206 198 206 333 C206 463 286 579 514 616 L514 700 L69 700 L69 600 L274 600 C150 535 99 422 99 309 C99 133 213 -10 502 -10 L854 -10 C1143 -10 1257 133 1257 309 C1257 422 1205 535 1081 600 L1287 600 L1287 700 L842 700 L842 616 Z " />
<glyph glyph-name="uni01C0" unicode="&#x1c0;" horiz-adv-x="338" d="M216 800 L122 800 L122 -100 L216 -100 L216 800 Z " />
<glyph glyph-name="uni01C1" unicode="&#x1c1;" horiz-adv-x="662" d="M216 800 L122 800 L122 -100 L216 -100 L216 800 Z M540 800 L446 800 L446 -100 L540 -100 L540 800 Z " />
<glyph glyph-name="uni01C2" unicode="&#x1c2;" horiz-adv-x="732" d="M413 154 L690 154 L690 238 L413 238 L413 462 L690 462 L690 546 L413 546 L413 800 L319 800 L319 546 L42 546 L42 462 L319 462 L319 238 L42 238 L42 154 L319 154 L319 -100 L413 -100 L413 154 Z " />
<glyph glyph-name="uni01C3" unicode="&#x1c3;" horiz-adv-x="352" d="M116 0 L235 0 L235 119 L116 119 L116 0 Z M126 185 L225 185 L231 700 L120 700 L126 185 Z " />
<glyph glyph-name="uni01C4" unicode="&#x1c4;" horiz-adv-x="2452" d="M122 0 L739 0 C1056 0 1180 157 1180 350 C1180 543 1056 700 739 700 L122 700 L122 0 Z M738 600 C983 600 1063 488 1063 350 C1063 212 983 100 738 100 L232 100 L232 600 L738 600 Z M1327 0 L2390 0 L2390 100 L1542 100 L2370 622 L2370 700 L1337 700 L1337 600 L2154 600 L1327 78 L1327 0 Z M2038 946 L1967 946 L1854 831 L1740 946 L1669 946 L1789 775 L1918 775 L2038 946 Z " />
<glyph glyph-name="uni01C5" unicode="&#x1c5;" horiz-adv-x="2280" d="M122 0 L739 0 C1056 0 1180 157 1180 350 C1180 543 1056 700 739 700 L122 700 L122 0 Z M738 600 C983 600 1063 488 1063 350 C1063 212 983 100 738 100 L232 100 L232 600 L738 600 Z M1320 0 L2225 0 L2225 86 L1512 86 L2208 493 L2208 560 L1329 560 L1329 474 L2014 474 L1320 67 L1320 0 Z M1952 806 L1881 806 L1768 691 L1654 806 L1583 806 L1703 635 L1832 635 L1952 806 Z " />
<glyph glyph-name="uni01C6" unicode="&#x1c6;" horiz-adv-x="2105" d="M112 0 L645 0 C915 0 1012 126 1012 280 C1012 434 915 560 645 560 L112 560 L112 0 Z M645 474 C850 474 908 387 908 280 C908 173 850 86 645 86 L211 86 L211 474 L645 474 Z M1145 0 L2050 0 L2050 86 L1337 86 L2033 493 L2033 560 L1154 560 L1154 474 L1839 474 L1145 67 L1145 0 Z M1777 806 L1706 806 L1593 691 L1479 806 L1408 806 L1528 635 L1657 635 L1777 806 Z " />
<glyph glyph-name="uni01C7" unicode="&#x1c7;" horiz-adv-x="2340" d="M232 700 L122 700 L122 0 L1099 0 L1099 100 L232 100 L232 700 Z M1514 -5 L1817 -5 C2134 -5 2238 132 2238 325 L2238 700 L2128 700 L2128 325 C2128 189 2058 95 1816 95 L1515 95 C1335 95 1281 176 1281 275 L1281 326 L1171 326 L1171 275 C1171 121 1260 -5 1514 -5 L1514 -5 Z " />
<glyph glyph-name="uni01C8" unicode="&#x1c8;" horiz-adv-x="2171" d="M232 700 L122 700 L122 0 L1099 0 L1099 100 L232 100 L232 700 Z M1457 -4 L1729 -4 C1999 -4 2079 106 2079 260 L2079 560 L1981 560 L1981 260 C1981 155 1931 82 1729 82 L1458 82 C1308 82 1270 144 1270 220 L1270 262 L1171 262 L1171 220 C1171 97 1241 -4 1457 -4 L1457 -4 Z " />
<glyph glyph-name="uni01C9" unicode="&#x1c9;" horiz-adv-x="2028" d="M211 560 L112 560 L112 0 L943 0 L943 86 L211 86 L211 560 Z M1314 -4 L1586 -4 C1856 -4 1936 106 1936 260 L1936 560 L1838 560 L1838 260 C1838 155 1788 82 1586 82 L1315 82 C1165 82 1127 144 1127 220 L1127 262 L1028 262 L1028 220 C1028 97 1098 -4 1314 -4 L1314 -4 Z " />
<glyph glyph-name="uni01CA" unicode="&#x1ca;" horiz-adv-x="2517" d="M1080 0 L1184 0 L1184 700 L1074 700 L1074 129 L226 700 L122 700 L122 0 L232 0 L232 571 L1080 0 Z M1691 -5 L1994 -5 C2311 -5 2415 132 2415 325 L2415 700 L2305 700 L2305 325 C2305 189 2235 95 1993 95 L1692 95 C1512 95 1458 176 1458 275 L1458 326 L1348 326 L1348 275 C1348 121 1437 -5 1691 -5 L1691 -5 Z " />
<glyph glyph-name="uni01CB" unicode="&#x1cb;" horiz-adv-x="2348" d="M1080 0 L1184 0 L1184 700 L1074 700 L1074 129 L226 700 L122 700 L122 0 L232 0 L232 571 L1080 0 Z M1634 -4 L1906 -4 C2176 -4 2256 106 2256 260 L2256 560 L2158 560 L2158 260 C2158 155 2108 82 1906 82 L1635 82 C1485 82 1447 144 1447 220 L1447 262 L1348 262 L1348 220 C1348 97 1418 -4 1634 -4 L1634 -4 Z " />
<glyph glyph-name="uni01CC" unicode="&#x1cc;" horiz-adv-x="2170" d="M1016 0 L1016 560 L917 560 L917 111 L206 560 L112 560 L112 0 L211 0 L211 449 L922 0 L1016 0 Z M1456 -4 L1728 -4 C1998 -4 2078 106 2078 260 L2078 560 L1980 560 L1980 260 C1980 155 1930 82 1728 82 L1457 82 C1307 82 1269 144 1269 220 L1269 262 L1170 262 L1170 220 C1170 97 1240 -4 1456 -4 L1456 -4 Z " />
<glyph glyph-name="uni01CD" unicode="&#x1cd;" horiz-adv-x="1276" d="M1130 0 L1266 0 L697 700 L579 700 L10 0 L146 0 L253 132 L1023 132 L1130 0 Z M638 607 L949 223 L327 223 L638 607 Z M822 946 L751 946 L638 831 L524 946 L453 946 L573 775 L702 775 L822 946 Z " />
<glyph glyph-name="uni01CE" unicode="&#x1ce;" horiz-adv-x="1091" d="M959 0 L1080 0 L598 560 L493 560 L11 0 L133 0 L227 110 L864 110 L959 0 Z M545 480 L798 186 L292 186 L545 480 Z M730 806 L659 806 L546 691 L432 806 L361 806 L481 635 L610 635 L730 806 Z " />
<glyph glyph-name="uni01CF" unicode="&#x1cf;" horiz-adv-x="354" d="M122 0 L232 0 L232 700 L122 700 L122 0 Z M362 946 L291 946 L178 831 L64 946 L-7 946 L113 775 L242 775 L362 946 Z " />
<glyph glyph-name="uni01D0" unicode="&#x1d0;" horiz-adv-x="323" d="M112 0 L211 0 L211 560 L112 560 L112 0 Z M346 806 L275 806 L162 691 L48 806 L-23 806 L97 635 L226 635 L346 806 Z " />
<glyph glyph-name="uni01D1" unicode="&#x1d1;" horiz-adv-x="1348" d="M819 -10 C1145 -10 1273 151 1273 350 C1273 549 1145 710 819 710 L529 710 C203 710 75 549 75 350 C75 151 203 -10 529 -10 L819 -10 Z M530 90 C276 90 192 206 192 350 C192 494 276 610 531 610 L818 610 C1072 610 1156 494 1156 350 C1156 206 1072 90 818 90 L530 90 Z M858 946 L787 946 L674 831 L560 946 L489 946 L609 775 L738 775 L858 946 Z " />
<glyph glyph-name="uni01D2" unicode="&#x1d2;" horiz-adv-x="1154" d="M708 -8 C985 -8 1086 121 1086 280 C1086 439 985 568 708 568 L446 568 C169 568 68 439 68 280 C68 121 169 -8 446 -8 L708 -8 Z M447 78 C234 78 172 168 172 280 C172 392 234 482 447 482 L707 482 C920 482 982 392 982 280 C982 168 920 78 707 78 L447 78 Z M761 806 L690 806 L577 691 L463 806 L392 806 L512 635 L641 635 L761 806 Z " />
<glyph glyph-name="uni01D3" unicode="&#x1d3;" horiz-adv-x="1275" d="M212 323 L212 700 L102 700 L102 323 C102 130 206 -10 523 -10 L752 -10 C1069 -10 1173 130 1173 323 L1173 700 L1063 700 L1063 323 C1063 187 993 90 751 90 L524 90 C282 90 212 187 212 323 L212 323 Z M822 946 L751 946 L638 831 L524 946 L453 946 L573 775 L702 775 L822 946 Z " />
<glyph glyph-name="uni01D4" unicode="&#x1d4;" horiz-adv-x="1095" d="M190 258 L190 560 L92 560 L92 258 C92 104 172 -8 441 -8 L653 -8 C922 -8 1003 104 1003 258 L1003 560 L904 560 L904 258 C904 153 855 78 652 78 L442 78 C240 78 190 153 190 258 L190 258 Z M732 806 L661 806 L548 691 L434 806 L363 806 L483 635 L612 635 L732 806 Z " />
<glyph glyph-name="uni01D5" unicode="&#x1d5;" horiz-adv-x="1275" d="M719 806 L827 806 L827 913 L719 913 L719 806 Z M447 806 L554 806 L554 913 L447 913 L447 806 Z M453 997 L821 997 L821 1069 L453 1069 L453 997 Z M212 323 L212 700 L102 700 L102 323 C102 130 206 -10 523 -10 L752 -10 C1069 -10 1173 130 1173 323 L1173 700 L1063 700 L1063 323 C1063 187 993 90 751 90 L524 90 C282 90 212 187 212 323 L212 323 Z " />
<glyph glyph-name="uni01D6" unicode="&#x1d6;" horiz-adv-x="1095" d="M629 666 L737 666 L737 773 L629 773 L629 666 Z M357 666 L464 666 L464 773 L357 773 L357 666 Z M363 857 L731 857 L731 929 L363 929 L363 857 Z M190 258 L190 560 L92 560 L92 258 C92 104 172 -8 441 -8 L653 -8 C922 -8 1003 104 1003 258 L1003 560 L904 560 L904 258 C904 153 855 78 652 78 L442 78 C240 78 190 153 190 258 L190 258 Z " />
<glyph glyph-name="uni01D7" unicode="&#x1d7;" horiz-adv-x="1275" d="M212 323 L212 700 L102 700 L102 323 C102 130 206 -10 523 -10 L752 -10 C1069 -10 1173 130 1173 323 L1173 700 L1063 700 L1063 323 C1063 187 993 90 751 90 L524 90 C282 90 212 187 212 323 L212 323 Z M719 806 L827 806 L827 913 L719 913 L719 806 Z M447 806 L554 806 L554 913 L447 913 L447 806 Z M559 966 L630 966 L790 1137 L664 1137 L559 966 Z " />
<glyph glyph-name="uni01D8" unicode="&#x1d8;" horiz-adv-x="1095" d="M190 258 L190 560 L92 560 L92 258 C92 104 172 -8 441 -8 L653 -8 C922 -8 1003 104 1003 258 L1003 560 L904 560 L904 258 C904 153 855 78 652 78 L442 78 C240 78 190 153 190 258 L190 258 Z M629 666 L737 666 L737 773 L629 773 L629 666 Z M357 666 L464 666 L464 773 L357 773 L357 666 Z M469 826 L540 826 L700 997 L574 997 L469 826 Z " />
<glyph glyph-name="uni01D9" unicode="&#x1d9;" horiz-adv-x="1275" d="M212 323 L212 700 L102 700 L102 323 C102 130 206 -10 523 -10 L752 -10 C1069 -10 1173 130 1173 323 L1173 700 L1063 700 L1063 323 C1063 187 993 90 751 90 L524 90 C282 90 212 187 212 323 L212 323 Z M719 806 L827 806 L827 913 L719 913 L719 806 Z M447 806 L554 806 L554 913 L447 913 L447 806 Z M821 1137 L750 1137 L637 1022 L523 1137 L452 1137 L572 966 L701 966 L821 1137 Z " />
<glyph glyph-name="uni01DA" unicode="&#x1da;" horiz-adv-x="1095" d="M190 258 L190 560 L92 560 L92 258 C92 104 172 -8 441 -8 L653 -8 C922 -8 1003 104 1003 258 L1003 560 L904 560 L904 258 C904 153 855 78 652 78 L442 78 C240 78 190 153 190 258 L190 258 Z M629 666 L737 666 L737 773 L629 773 L629 666 Z M357 666 L464 666 L464 773 L357 773 L357 666 Z M731 997 L660 997 L547 882 L433 997 L362 997 L482 826 L611 826 L731 997 Z " />
<glyph glyph-name="uni01DB" unicode="&#x1db;" horiz-adv-x="1275" d="M212 323 L212 700 L102 700 L102 323 C102 130 206 -10 523 -10 L752 -10 C1069 -10 1173 130 1173 323 L1173 700 L1063 700 L1063 323 C1063 187 993 90 751 90 L524 90 C282 90 212 187 212 323 L212 323 Z M719 806 L827 806 L827 913 L719 913 L719 806 Z M447 806 L554 806 L554 913 L447 913 L447 806 Z M609 1137 L483 1137 L643 966 L714 966 L609 1137 Z " />
<glyph glyph-name="uni01DC" unicode="&#x1dc;" horiz-adv-x="1095" d="M190 258 L190 560 L92 560 L92 258 C92 104 172 -8 441 -8 L653 -8 C922 -8 1003 104 1003 258 L1003 560 L904 560 L904 258 C904 153 855 78 652 78 L442 78 C240 78 190 153 190 258 L190 258 Z M629 666 L737 666 L737 773 L629 773 L629 666 Z M357 666 L464 666 L464 773 L357 773 L357 666 Z M519 997 L393 997 L553 826 L624 826 L519 997 Z " />
<glyph glyph-name="uni01DD" unicode="&#x1dd;" horiz-adv-x="1033" d="M921 560 L73 560 L73 474 L822 474 L822 318 L160 318 L160 242 L822 242 L822 86 L73 86 L73 0 L921 0 L921 560 Z " />
<glyph glyph-name="uni01DE" unicode="&#x1de;" horiz-adv-x="1276" d="M720 806 L828 806 L828 913 L720 913 L720 806 Z M448 806 L555 806 L555 913 L448 913 L448 806 Z M454 997 L822 997 L822 1069 L454 1069 L454 997 Z M1130 0 L1266 0 L697 700 L579 700 L10 0 L146 0 L253 132 L1023 132 L1130 0 Z M638 607 L949 223 L327 223 L638 607 Z " />
<glyph glyph-name="uni01DF" unicode="&#x1df;" horiz-adv-x="1091" d="M627 666 L735 666 L735 773 L627 773 L627 666 Z M355 666 L462 666 L462 773 L355 773 L355 666 Z M361 857 L729 857 L729 929 L361 929 L361 857 Z M959 0 L1080 0 L598 560 L493 560 L11 0 L133 0 L227 110 L864 110 L959 0 Z M545 480 L798 186 L292 186 L545 480 Z " />
<glyph glyph-name="uni01E0" unicode="&#x1e0;" horiz-adv-x="1276" d="M584 806 L692 806 L692 913 L584 913 L584 806 Z M454 997 L822 997 L822 1069 L454 1069 L454 997 Z M1130 0 L1266 0 L697 700 L579 700 L10 0 L146 0 L253 132 L1023 132 L1130 0 Z M638 607 L949 223 L327 223 L638 607 Z " />
<glyph glyph-name="uni01E1" unicode="&#x1e1;" horiz-adv-x="1091" d="M491 666 L599 666 L599 773 L491 773 L491 666 Z M361 857 L729 857 L729 929 L361 929 L361 857 Z M959 0 L1080 0 L598 560 L493 560 L11 0 L133 0 L227 110 L864 110 L959 0 Z M545 480 L798 186 L292 186 L545 480 Z " />
<glyph glyph-name="uni01E2" unicode="&#x1e2;" horiz-adv-x="1710" d="M738 130 L738 0 L1630 0 L1630 100 L848 100 L848 305 L1528 305 L1528 395 L848 395 L848 600 L1630 600 L1630 700 L679 700 L10 0 L148 0 L272 130 L738 130 Z M738 619 L738 220 L356 220 L738 619 Z M796 824 L1164 824 L1164 896 L796 896 L796 824 Z " />
<glyph glyph-name="uni01E3" unicode="&#x1e3;" horiz-adv-x="1463" d="M630 102 L630 0 L1390 0 L1390 86 L729 86 L729 242 L1302 242 L1302 318 L729 318 L729 474 L1390 474 L1390 560 L578 560 L11 0 L135 0 L239 102 L630 102 Z M630 489 L630 178 L314 178 L630 489 Z M684 684 L1052 684 L1052 756 L684 756 L684 684 Z " />
<glyph glyph-name="Gcaron" unicode="&#x1e6;" horiz-adv-x="1256" d="M664 305 L1051 305 L1051 100 L517 100 C272 100 192 212 192 350 C192 488 272 600 517 600 L1104 600 L1104 700 L516 700 C199 700 75 543 75 350 C75 157 199 0 516 0 L1159 0 L1159 395 L664 395 L664 305 Z M836 946 L765 946 L652 831 L538 946 L467 946 L587 775 L716 775 L836 946 Z " />
<glyph glyph-name="gcaron" unicode="&#x1e7;" horiz-adv-x="1080" d="M568 242 L893 242 L893 86 L435 86 C230 86 173 173 173 280 C173 387 230 474 435 474 L943 474 L943 560 L435 560 C165 560 68 434 68 280 C68 126 165 0 435 0 L990 0 L990 318 L568 318 L568 242 Z M736 806 L665 806 L552 691 L438 806 L367 806 L487 635 L616 635 L736 806 Z " />
<glyph glyph-name="uni01E8" unicode="&#x1e8;" horiz-adv-x="1292" d="M1196 700 L1003 700 L232 254 L232 700 L122 700 L122 0 L232 0 L232 144 L547 326 L1098 0 L1287 0 L645 382 L1196 700 Z M790 946 L719 946 L606 831 L492 946 L421 946 L541 775 L670 775 L790 946 Z " />
<glyph glyph-name="uni01E9" unicode="&#x1e9;" horiz-adv-x="1114" d="M1033 560 L853 560 L211 210 L211 560 L112 560 L112 0 L211 0 L211 114 L476 258 L934 0 L1104 0 L564 305 L1033 560 Z M706 806 L635 806 L522 691 L408 806 L337 806 L457 635 L586 635 L706 806 Z " />
<glyph glyph-name="uni01EA" unicode="&#x1ea;" horiz-adv-x="1348" d="M726 -169 C726 -227 777 -262 853 -262 C894 -262 934 -257 980 -239 L980 -189 C944 -205 922 -208 894 -208 C847 -208 814 -186 814 -145 C814 -78 878 -31 949 0 C1179 38 1273 180 1273 350 C1273 549 1145 710 819 710 L529 710 C203 710 75 549 75 350 C75 151 203 -10 529 -10 L819 -10 C834 -10 849 -9 863 -9 C793 -39 726 -93 726 -169 L726 -169 Z M530 90 C276 90 192 206 192 350 C192 494 276 610 531 610 L818 610 C1072 610 1156 494 1156 350 C1156 206 1072 90 818 90 L530 90 Z " />
<glyph glyph-name="uni01EB" unicode="&#x1eb;" horiz-adv-x="1154" d="M596 -169 C596 -227 647 -262 723 -262 C764 -262 804 -257 850 -239 L850 -189 C814 -205 792 -208 764 -208 C717 -208 684 -186 684 -145 C684 -78 748 -31 817 0 C1012 30 1086 144 1086 280 C1086 439 985 568 708 568 L446 568 C169 568 68 439 68 280 C68 121 169 -8 446 -8 L708 -8 C718 -8 727 -8 737 -7 C665 -37 596 -92 596 -169 L596 -169 Z M447 78 C234 78 172 168 172 280 C172 392 234 482 447 482 L707 482 C920 482 982 392 982 280 C982 168 920 78 707 78 L447 78 Z " />
<glyph glyph-name="uni01EC" unicode="&#x1ec;" horiz-adv-x="1348" d="M726 -169 C726 -227 777 -262 853 -262 C894 -262 934 -257 980 -239 L980 -189 C944 -205 922 -208 894 -208 C847 -208 814 -186 814 -145 C814 -78 878 -31 949 0 C1179 38 1273 180 1273 350 C1273 549 1145 710 819 710 L529 710 C203 710 75 549 75 350 C75 151 203 -10 529 -10 L819 -10 C834 -10 849 -9 863 -9 C793 -39 726 -93 726 -169 L726 -169 Z M530 90 C276 90 192 206 192 350 C192 494 276 610 531 610 L818 610 C1072 610 1156 494 1156 350 C1156 206 1072 90 818 90 L530 90 Z M490 824 L858 824 L858 896 L490 896 L490 824 Z " />
<glyph glyph-name="uni01ED" unicode="&#x1ed;" horiz-adv-x="1154" d="M596 -169 C596 -227 647 -262 723 -262 C764 -262 804 -257 850 -239 L850 -189 C814 -205 792 -208 764 -208 C717 -208 684 -186 684 -145 C684 -78 748 -31 817 0 C1012 30 1086 144 1086 280 C1086 439 985 568 708 568 L446 568 C169 568 68 439 68 280 C68 121 169 -8 446 -8 L708 -8 C718 -8 727 -8 737 -7 C665 -37 596 -92 596 -169 L596 -169 Z M447 78 C234 78 172 168 172 280 C172 392 234 482 447 482 L707 482 C920 482 982 392 982 280 C982 168 920 78 707 78 L447 78 Z M393 684 L761 684 L761 756 L393 756 L393 684 Z " />
<glyph glyph-name="uni01F0" unicode="&#x1f0;" horiz-adv-x="1042" d="M328 -4 L600 -4 C870 -4 950 106 950 260 L950 560 L852 560 L852 260 C852 155 802 82 600 82 L329 82 C179 82 141 144 141 220 L141 262 L42 262 L42 220 C42 97 112 -4 328 -4 L328 -4 Z M1056 806 L985 806 L872 691 L758 806 L687 806 L807 635 L936 635 L1056 806 Z " />
<glyph glyph-name="uni01F1" unicode="&#x1f1;" horiz-adv-x="2452" d="M122 0 L739 0 C1056 0 1180 157 1180 350 C1180 543 1056 700 739 700 L122 700 L122 0 Z M738 600 C983 600 1063 488 1063 350 C1063 212 983 100 738 100 L232 100 L232 600 L738 600 Z M1327 0 L2390 0 L2390 100 L1542 100 L2370 622 L2370 700 L1337 700 L1337 600 L2154 600 L1327 78 L1327 0 Z " />
<glyph glyph-name="uni01F2" unicode="&#x1f2;" horiz-adv-x="2280" d="M122 0 L739 0 C1056 0 1180 157 1180 350 C1180 543 1056 700 739 700 L122 700 L122 0 Z M738 600 C983 600 1063 488 1063 350 C1063 212 983 100 738 100 L232 100 L232 600 L738 600 Z M1320 0 L2225 0 L2225 86 L1512 86 L2208 493 L2208 560 L1329 560 L1329 474 L2014 474 L1320 67 L1320 0 Z " />
<glyph glyph-name="uni01F3" unicode="&#x1f3;" horiz-adv-x="2105" d="M112 0 L645 0 C915 0 1012 126 1012 280 C1012 434 915 560 645 560 L112 560 L112 0 Z M645 474 C850 474 908 387 908 280 C908 173 850 86 645 86 L211 86 L211 474 L645 474 Z M1145 0 L2050 0 L2050 86 L1337 86 L2033 493 L2033 560 L1154 560 L1154 474 L1839 474 L1145 67 L1145 0 Z " />
<glyph glyph-name="uni01F4" unicode="&#x1f4;" horiz-adv-x="1256" d="M664 305 L1051 305 L1051 100 L517 100 C272 100 192 212 192 350 C192 488 272 600 517 600 L1104 600 L1104 700 L516 700 C199 700 75 543 75 350 C75 157 199 0 516 0 L1159 0 L1159 395 L664 395 L664 305 Z M574 775 L645 775 L805 946 L679 946 L574 775 Z " />
<glyph glyph-name="uni01F5" unicode="&#x1f5;" horiz-adv-x="1080" d="M568 242 L893 242 L893 86 L435 86 C230 86 173 173 173 280 C173 387 230 474 435 474 L943 474 L943 560 L435 560 C165 560 68 434 68 280 C68 126 165 0 435 0 L990 0 L990 318 L568 318 L568 242 Z M474 635 L545 635 L705 806 L579 806 L474 635 Z " />
<glyph glyph-name="uni01F8" unicode="&#x1f8;" horiz-adv-x="1306" d="M1080 0 L1184 0 L1184 700 L1074 700 L1074 129 L226 700 L122 700 L122 0 L232 0 L232 571 L1080 0 Z M625 946 L499 946 L659 775 L730 775 L625 946 Z " />
<glyph glyph-name="uni01F9" unicode="&#x1f9;" horiz-adv-x="1128" d="M1016 0 L1016 560 L917 560 L917 111 L206 560 L112 560 L112 0 L211 0 L211 449 L922 0 L1016 0 Z M536 806 L410 806 L570 635 L641 635 L536 806 Z " />
<glyph glyph-name="Aringacute" unicode="&#x1fa;" horiz-adv-x="1276" d="M1130 0 L1266 0 L697 700 L579 700 L10 0 L146 0 L253 132 L1023 132 L1130 0 Z M638 607 L949 223 L327 223 L638 607 Z M580 861 C580 893 606 918 638 918 C670 918 696 893 696 861 C696 829 670 804 638 804 C606 804 580 829 580 861 L580 861 Z M517 861 C517 798 568 749 638 749 C708 749 759 798 759 861 C759 924 708 973 638 973 C568 973 517 924 517 861 L517 861 Z M560 1003 L631 1003 L791 1174 L665 1174 L560 1003 Z " />
<glyph glyph-name="aringacute" unicode="&#x1fb;" horiz-adv-x="1091" d="M959 0 L1080 0 L598 560 L493 560 L11 0 L133 0 L227 110 L864 110 L959 0 Z M545 480 L798 186 L292 186 L545 480 Z M487 721 C487 753 513 778 545 778 C577 778 603 753 603 721 C603 689 577 664 545 664 C513 664 487 689 487 721 L487 721 Z M424 721 C424 658 475 609 545 609 C615 609 666 658 666 721 C666 784 615 833 545 833 C475 833 424 784 424 721 L424 721 Z M467 863 L538 863 L698 1034 L572 1034 L467 863 Z " />
<glyph glyph-name="AEacute" unicode="&#x1fc;" horiz-adv-x="1710" d="M738 130 L738 0 L1630 0 L1630 100 L848 100 L848 305 L1528 305 L1528 395 L848 395 L848 600 L1630 600 L1630 700 L679 700 L10 0 L148 0 L272 130 L738 130 Z M738 619 L738 220 L356 220 L738 619 Z M902 775 L973 775 L1133 946 L1007 946 L902 775 Z " />
<glyph glyph-name="aeacute" unicode="&#x1fd;" horiz-adv-x="1463" d="M630 102 L630 0 L1390 0 L1390 86 L729 86 L729 242 L1302 242 L1302 318 L729 318 L729 474 L1390 474 L1390 560 L578 560 L11 0 L135 0 L239 102 L630 102 Z M630 489 L630 178 L314 178 L630 489 Z M790 635 L861 635 L1021 806 L895 806 L790 635 Z " />
<glyph glyph-name="Oslashacute" unicode="&#x1fe;" horiz-adv-x="1348" d="M596 775 L667 775 L827 946 L701 946 L596 775 Z M819 -10 C1145 -10 1273 151 1273 350 C1273 507 1193 640 999 689 L1085 800 L958 800 L887 707 C865 709 842 710 819 710 L529 710 C203 710 75 549 75 350 C75 193 154 60 348 10 L263 -100 L389 -100 L460 -7 C482 -9 505 -10 529 -10 L819 -10 Z M1156 350 C1156 206 1072 90 818 90 L536 90 L931 601 C1097 571 1156 470 1156 350 L1156 350 Z M192 350 C192 494 276 610 531 610 L811 610 L417 99 C250 129 192 230 192 350 L192 350 Z " />
<glyph glyph-name="oslashacute" unicode="&#x1ff;" horiz-adv-x="1154" d="M499 635 L570 635 L730 806 L604 806 L499 635 Z M708 -8 C985 -8 1086 121 1086 280 C1086 406 1022 514 856 553 L927 640 L814 640 L754 566 C739 567 724 568 708 568 L446 568 C169 568 68 439 68 280 C68 153 132 45 298 7 L227 -80 L340 -80 L400 -6 C415 -7 430 -8 446 -8 L708 -8 Z M172 280 C172 392 234 482 447 482 L685 482 L361 84 C217 105 172 185 172 280 L172 280 Z M982 280 C982 168 920 78 707 78 L469 78 L793 476 C937 454 982 375 982 280 L982 280 Z " />
<glyph glyph-name="uni0200" unicode="&#x200;" horiz-adv-x="1276" d="M488 946 L362 946 L522 775 L593 775 L488 946 Z M732 946 L607 946 L766 775 L838 775 L732 946 Z M1130 0 L1266 0 L697 700 L579 700 L10 0 L146 0 L253 132 L1023 132 L1130 0 Z M638 607 L949 223 L327 223 L638 607 Z " />
<glyph glyph-name="uni0201" unicode="&#x201;" horiz-adv-x="1091" d="M395 806 L269 806 L429 635 L500 635 L395 806 Z M639 806 L514 806 L673 635 L745 635 L639 806 Z M959 0 L1080 0 L598 560 L493 560 L11 0 L133 0 L227 110 L864 110 L959 0 Z M545 480 L798 186 L292 186 L545 480 Z " />
<glyph glyph-name="uni0202" unicode="&#x202;" horiz-adv-x="1276" d="M638 867 C715 867 745 829 750 783 L811 783 C806 858 769 938 638 938 C506 938 470 858 465 783 L526 783 C530 829 561 867 638 867 L638 867 Z M1130 0 L1266 0 L697 700 L579 700 L10 0 L146 0 L253 132 L1023 132 L1130 0 Z M638 607 L949 223 L327 223 L638 607 Z " />
<glyph glyph-name="uni0203" unicode="&#x203;" horiz-adv-x="1091" d="M545 727 C622 727 652 689 657 643 L718 643 C713 718 676 798 545 798 C413 798 377 718 372 643 L433 643 C437 689 468 727 545 727 L545 727 Z M959 0 L1080 0 L598 560 L493 560 L11 0 L133 0 L227 110 L864 110 L959 0 Z M545 480 L798 186 L292 186 L545 480 Z " />
<glyph glyph-name="uni0204" unicode="&#x204;" horiz-adv-x="1199" d="M122 0 L1119 0 L1119 100 L232 100 L232 305 L1017 305 L1017 395 L232 395 L232 600 L1119 600 L1119 700 L122 700 L122 0 Z M459 946 L333 946 L493 775 L564 775 L459 946 Z M703 946 L578 946 L737 775 L809 775 L703 946 Z " />
<glyph glyph-name="uni0205" unicode="&#x205;" horiz-adv-x="1033" d="M112 0 L960 0 L960 86 L211 86 L211 242 L873 242 L873 318 L211 318 L211 474 L960 474 L960 560 L112 560 L112 0 Z M378 806 L252 806 L412 635 L483 635 L378 806 Z M622 806 L497 806 L656 635 L728 635 L622 806 Z " />
<glyph glyph-name="uni0206" unicode="&#x206;" horiz-adv-x="1199" d="M122 0 L1119 0 L1119 100 L232 100 L232 305 L1017 305 L1017 395 L232 395 L232 600 L1119 600 L1119 700 L122 700 L122 0 Z M609 867 C686 867 716 829 721 783 L782 783 C777 858 740 938 609 938 C477 938 441 858 436 783 L497 783 C501 829 532 867 609 867 L609 867 Z " />
<glyph glyph-name="uni0207" unicode="&#x207;" horiz-adv-x="1033" d="M112 0 L960 0 L960 86 L211 86 L211 242 L873 242 L873 318 L211 318 L211 474 L960 474 L960 560 L112 560 L112 0 Z M528 727 C605 727 635 689 640 643 L701 643 C696 718 659 798 528 798 C396 798 360 718 355 643 L416 643 C420 689 451 727 528 727 L528 727 Z " />
<glyph glyph-name="uni0208" unicode="&#x208;" horiz-adv-x="354" d="M27 946 L-99 946 L61 775 L132 775 L27 946 Z M271 946 L146 946 L305 775 L377 775 L271 946 Z M122 0 L232 0 L232 700 L122 700 L122 0 Z " />
<glyph glyph-name="uni0209" unicode="&#x209;" horiz-adv-x="323" d="M12 806 L-114 806 L46 635 L117 635 L12 806 Z M256 806 L131 806 L290 635 L362 635 L256 806 Z M112 0 L211 0 L211 560 L112 560 L112 0 Z " />
<glyph glyph-name="uni020A" unicode="&#x20a;" horiz-adv-x="354" d="M177 867 C254 867 284 829 289 783 L350 783 C345 858 308 938 177 938 C45 938 9 858 4 783 L65 783 C69 829 100 867 177 867 L177 867 Z M122 0 L232 0 L232 700 L122 700 L122 0 Z " />
<glyph glyph-name="uni020B" unicode="&#x20b;" horiz-adv-x="323" d="M162 727 C239 727 269 689 274 643 L335 643 C330 718 293 798 162 798 C30 798 -6 718 -11 643 L50 643 C54 689 85 727 162 727 L162 727 Z M112 0 L211 0 L211 560 L112 560 L112 0 Z " />
<glyph glyph-name="uni020C" unicode="&#x20c;" horiz-adv-x="1348" d="M524 946 L398 946 L558 775 L629 775 L524 946 Z M768 946 L643 946 L802 775 L874 775 L768 946 Z M819 -10 C1145 -10 1273 151 1273 350 C1273 549 1145 710 819 710 L529 710 C203 710 75 549 75 350 C75 151 203 -10 529 -10 L819 -10 Z M530 90 C276 90 192 206 192 350 C192 494 276 610 531 610 L818 610 C1072 610 1156 494 1156 350 C1156 206 1072 90 818 90 L530 90 Z " />
<glyph glyph-name="uni020D" unicode="&#x20d;" horiz-adv-x="1154" d="M427 806 L301 806 L461 635 L532 635 L427 806 Z M671 806 L546 806 L705 635 L777 635 L671 806 Z M708 -8 C985 -8 1086 121 1086 280 C1086 439 985 568 708 568 L446 568 C169 568 68 439 68 280 C68 121 169 -8 446 -8 L708 -8 Z M447 78 C234 78 172 168 172 280 C172 392 234 482 447 482 L707 482 C920 482 982 392 982 280 C982 168 920 78 707 78 L447 78 Z " />
<glyph glyph-name="uni020E" unicode="&#x20e;" horiz-adv-x="1348" d="M674 867 C751 867 781 829 786 783 L847 783 C842 858 805 938 674 938 C542 938 506 858 501 783 L562 783 C566 829 597 867 674 867 L674 867 Z M819 -10 C1145 -10 1273 151 1273 350 C1273 549 1145 710 819 710 L529 710 C203 710 75 549 75 350 C75 151 203 -10 529 -10 L819 -10 Z M530 90 C276 90 192 206 192 350 C192 494 276 610 531 610 L818 610 C1072 610 1156 494 1156 350 C1156 206 1072 90 818 90 L530 90 Z " />
<glyph glyph-name="uni020F" unicode="&#x20f;" horiz-adv-x="1154" d="M577 727 C654 727 684 689 689 643 L750 643 C745 718 708 798 577 798 C445 798 409 718 404 643 L465 643 C469 689 500 727 577 727 L577 727 Z M708 -8 C985 -8 1086 121 1086 280 C1086 439 985 568 708 568 L446 568 C169 568 68 439 68 280 C68 121 169 -8 446 -8 L708 -8 Z M447 78 C234 78 172 168 172 280 C172 392 234 482 447 482 L707 482 C920 482 982 392 982 280 C982 168 920 78 707 78 L447 78 Z " />
<glyph glyph-name="uni0210" unicode="&#x210;" horiz-adv-x="1278" d="M122 0 L232 0 L232 262 L648 262 L1088 0 L1273 0 L821 263 L871 263 C1071 263 1150 359 1150 482 C1150 602 1071 700 871 700 L122 700 L122 0 Z M867 600 C996 600 1035 545 1035 479 C1035 412 996 358 867 358 L232 358 L232 600 L867 600 Z M449 946 L323 946 L483 775 L554 775 L449 946 Z M693 946 L568 946 L727 775 L799 775 L693 946 Z " />
<glyph glyph-name="uni0211" unicode="&#x211;" horiz-adv-x="1106" d="M112 0 L211 0 L211 207 L558 207 L926 0 L1092 0 L714 208 L755 208 C925 208 987 285 987 384 C987 481 925 560 755 560 L112 560 L112 0 Z M751 474 C858 474 884 432 884 382 C884 330 858 289 751 289 L211 289 L211 474 L751 474 Z M368 806 L242 806 L402 635 L473 635 L368 806 Z M612 806 L487 806 L646 635 L718 635 L612 806 Z " />
<glyph glyph-name="uni0212" unicode="&#x212;" horiz-adv-x="1278" d="M122 0 L232 0 L232 262 L648 262 L1088 0 L1273 0 L821 263 L871 263 C1071 263 1150 359 1150 482 C1150 602 1071 700 871 700 L122 700 L122 0 Z M867 600 C996 600 1035 545 1035 479 C1035 412 996 358 867 358 L232 358 L232 600 L867 600 Z M599 867 C676 867 706 829 711 783 L772 783 C767 858 730 938 599 938 C467 938 431 858 426 783 L487 783 C491 829 522 867 599 867 L599 867 Z " />
<glyph glyph-name="uni0213" unicode="&#x213;" horiz-adv-x="1106" d="M112 0 L211 0 L211 207 L558 207 L926 0 L1092 0 L714 208 L755 208 C925 208 987 285 987 384 C987 481 925 560 755 560 L112 560 L112 0 Z M751 474 C858 474 884 432 884 382 C884 330 858 289 751 289 L211 289 L211 474 L751 474 Z M518 727 C595 727 625 689 630 643 L691 643 C686 718 649 798 518 798 C386 798 350 718 345 643 L406 643 C410 689 441 727 518 727 L518 727 Z " />
<glyph glyph-name="uni0214" unicode="&#x214;" horiz-adv-x="1275" d="M487 946 L361 946 L521 775 L592 775 L487 946 Z M731 946 L606 946 L765 775 L837 775 L731 946 Z M212 323 L212 700 L102 700 L102 323 C102 130 206 -10 523 -10 L752 -10 C1069 -10 1173 130 1173 323 L1173 700 L1063 700 L1063 323 C1063 187 993 90 751 90 L524 90 C282 90 212 187 212 323 L212 323 Z " />
<glyph glyph-name="uni0215" unicode="&#x215;" horiz-adv-x="1095" d="M397 806 L271 806 L431 635 L502 635 L397 806 Z M641 806 L516 806 L675 635 L747 635 L641 806 Z M190 258 L190 560 L92 560 L92 258 C92 104 172 -8 441 -8 L653 -8 C922 -8 1003 104 1003 258 L1003 560 L904 560 L904 258 C904 153 855 78 652 78 L442 78 C240 78 190 153 190 258 L190 258 Z " />
<glyph glyph-name="uni0216" unicode="&#x216;" horiz-adv-x="1275" d="M637 867 C714 867 744 829 749 783 L810 783 C805 858 768 938 637 938 C505 938 469 858 464 783 L525 783 C529 829 560 867 637 867 L637 867 Z M212 323 L212 700 L102 700 L102 323 C102 130 206 -10 523 -10 L752 -10 C1069 -10 1173 130 1173 323 L1173 700 L1063 700 L1063 323 C1063 187 993 90 751 90 L524 90 C282 90 212 187 212 323 L212 323 Z " />
<glyph glyph-name="uni0217" unicode="&#x217;" horiz-adv-x="1095" d="M547 727 C624 727 654 689 659 643 L720 643 C715 718 678 798 547 798 C415 798 379 718 374 643 L435 643 C439 689 470 727 547 727 L547 727 Z M190 258 L190 560 L92 560 L92 258 C92 104 172 -8 441 -8 L653 -8 C922 -8 1003 104 1003 258 L1003 560 L904 560 L904 258 C904 153 855 78 652 78 L442 78 C240 78 190 153 190 258 L190 258 Z " />
<glyph glyph-name="uni0218" unicode="&#x218;" horiz-adv-x="1207" d="M112 0 L882 0 C1065 0 1135 88 1135 198 C1135 310 1065 395 882 395 L328 395 C217 395 187 441 187 498 C187 553 217 600 328 600 L1095 600 L1095 700 L325 700 C142 700 72 612 72 502 C72 390 142 305 325 305 L879 305 C990 305 1020 259 1020 202 C1020 147 990 100 879 100 L112 100 L112 0 Z M550 -215 L592 -215 L540 -326 L590 -326 L658 -207 L658 -108 L550 -108 L550 -215 Z " />
<glyph glyph-name="uni0219" unicode="&#x219;" horiz-adv-x="1032" d="M98 0 L758 0 C914 0 968 70 968 159 C968 249 914 318 758 318 L279 318 C189 318 167 353 167 396 C167 439 189 474 279 474 L934 474 L934 560 L274 560 C118 560 64 490 64 401 C64 311 118 242 274 242 L753 242 C843 242 865 207 865 164 C865 121 844 86 753 86 L98 86 L98 0 Z M462 -215 L504 -215 L452 -326 L502 -326 L570 -207 L570 -108 L462 -108 L462 -215 Z " />
<glyph glyph-name="uni021A" unicode="&#x21a;" horiz-adv-x="1184" d="M539 -215 L581 -215 L529 -326 L579 -326 L647 -207 L647 -108 L539 -108 L539 -215 Z M30 600 L537 600 L537 0 L647 0 L647 600 L1154 600 L1154 700 L30 700 L30 600 Z " />
<glyph glyph-name="uni021B" unicode="&#x21b;" horiz-adv-x="1041" d="M467 -215 L509 -215 L457 -326 L507 -326 L575 -207 L575 -108 L467 -108 L467 -215 Z M43 474 L471 474 L471 0 L570 0 L570 474 L998 474 L998 560 L43 560 L43 474 Z " />
<glyph glyph-name="uni021E" unicode="&#x21e;" horiz-adv-x="1305" d="M1073 0 L1183 0 L1183 700 L1073 700 L1073 400 L232 400 L232 700 L122 700 L122 0 L232 0 L232 300 L1073 300 L1073 0 Z M837 946 L766 946 L653 831 L539 946 L468 946 L588 775 L717 775 L837 946 Z " />
<glyph glyph-name="uni021F" unicode="&#x21f;" horiz-adv-x="1127" d="M916 0 L1015 0 L1015 560 L916 560 L916 323 L211 323 L211 560 L112 560 L112 0 L211 0 L211 237 L916 237 L916 0 Z M748 806 L677 806 L564 691 L450 806 L379 806 L499 635 L628 635 L748 806 Z " />
<glyph glyph-name="uni0226" unicode="&#x226;" horiz-adv-x="1276" d="M1130 0 L1266 0 L697 700 L579 700 L10 0 L146 0 L253 132 L1023 132 L1130 0 Z M638 607 L949 223 L327 223 L638 607 Z M584 806 L692 806 L692 913 L584 913 L584 806 Z " />
<glyph glyph-name="uni0227" unicode="&#x227;" horiz-adv-x="1091" d="M959 0 L1080 0 L598 560 L493 560 L11 0 L133 0 L227 110 L864 110 L959 0 Z M545 480 L798 186 L292 186 L545 480 Z M491 666 L599 666 L599 773 L491 773 L491 666 Z " />
<glyph glyph-name="uni0228" unicode="&#x228;" horiz-adv-x="1199" d="M122 0 L586 0 L555 -115 L584 -115 C645 -116 677 -127 677 -166 C677 -235 531 -222 487 -196 L487 -245 C560 -282 755 -297 755 -169 C755 -88 688 -70 610 -70 L609 -70 L627 0 L1119 0 L1119 100 L232 100 L232 305 L1017 305 L1017 395 L232 395 L232 600 L1119 600 L1119 700 L122 700 L122 0 Z " />
<glyph glyph-name="uni0229" unicode="&#x229;" horiz-adv-x="1033" d="M112 0 L504 0 L473 -115 L502 -115 C563 -116 595 -127 595 -166 C595 -235 449 -222 405 -196 L405 -245 C478 -282 673 -297 673 -169 C673 -88 606 -70 528 -70 L527 -70 L545 0 L960 0 L960 86 L211 86 L211 242 L873 242 L873 318 L211 318 L211 474 L960 474 L960 560 L112 560 L112 0 Z " />
<glyph glyph-name="uni022A" unicode="&#x22a;" horiz-adv-x="1348" d="M756 806 L864 806 L864 913 L756 913 L756 806 Z M484 806 L591 806 L591 913 L484 913 L484 806 Z M490 997 L858 997 L858 1069 L490 1069 L490 997 Z M819 -10 C1145 -10 1273 151 1273 350 C1273 549 1145 710 819 710 L529 710 C203 710 75 549 75 350 C75 151 203 -10 529 -10 L819 -10 Z M530 90 C276 90 192 206 192 350 C192 494 276 610 531 610 L818 610 C1072 610 1156 494 1156 350 C1156 206 1072 90 818 90 L530 90 Z " />
<glyph glyph-name="uni022B" unicode="&#x22b;" horiz-adv-x="1154" d="M659 666 L767 666 L767 773 L659 773 L659 666 Z M387 666 L494 666 L494 773 L387 773 L387 666 Z M393 857 L761 857 L761 929 L393 929 L393 857 Z M708 -8 C985 -8 1086 121 1086 280 C1086 439 985 568 708 568 L446 568 C169 568 68 439 68 280 C68 121 169 -8 446 -8 L708 -8 Z M447 78 C234 78 172 168 172 280 C172 392 234 482 447 482 L707 482 C920 482 982 392 982 280 C982 168 920 78 707 78 L447 78 Z " />
<glyph glyph-name="uni022C" unicode="&#x22c;" horiz-adv-x="1348" d="M796 934 C792 882 775 871 749 871 C706 871 662 927 599 927 C541 927 503 894 497 786 L552 786 C556 838 573 850 599 850 C642 850 685 793 749 793 C807 793 846 826 851 934 L796 934 Z M490 1003 L858 1003 L858 1075 L490 1075 L490 1003 Z M819 -10 C1145 -10 1273 151 1273 350 C1273 549 1145 710 819 710 L529 710 C203 710 75 549 75 350 C75 151 203 -10 529 -10 L819 -10 Z M530 90 C276 90 192 206 192 350 C192 494 276 610 531 610 L818 610 C1072 610 1156 494 1156 350 C1156 206 1072 90 818 90 L530 90 Z " />
<glyph glyph-name="uni022D" unicode="&#x22d;" horiz-adv-x="1154" d="M699 794 C695 742 678 731 652 731 C609 731 565 787 502 787 C444 787 406 754 400 646 L455 646 C459 698 476 710 502 710 C545 710 588 653 652 653 C710 653 749 686 754 794 L699 794 Z M393 863 L761 863 L761 935 L393 935 L393 863 Z M708 -8 C985 -8 1086 121 1086 280 C1086 439 985 568 708 568 L446 568 C169 568 68 439 68 280 C68 121 169 -8 446 -8 L708 -8 Z M447 78 C234 78 172 168 172 280 C172 392 234 482 447 482 L707 482 C920 482 982 392 982 280 C982 168 920 78 707 78 L447 78 Z " />
<glyph glyph-name="uni022E" unicode="&#x22e;" horiz-adv-x="1348" d="M819 -10 C1145 -10 1273 151 1273 350 C1273 549 1145 710 819 710 L529 710 C203 710 75 549 75 350 C75 151 203 -10 529 -10 L819 -10 Z M530 90 C276 90 192 206 192 350 C192 494 276 610 531 610 L818 610 C1072 610 1156 494 1156 350 C1156 206 1072 90 818 90 L530 90 Z M620 806 L728 806 L728 913 L620 913 L620 806 Z " />
<glyph glyph-name="uni022F" unicode="&#x22f;" horiz-adv-x="1154" d="M708 -8 C985 -8 1086 121 1086 280 C1086 439 985 568 708 568 L446 568 C169 568 68 439 68 280 C68 121 169 -8 446 -8 L708 -8 Z M447 78 C234 78 172 168 172 280 C172 392 234 482 447 482 L707 482 C920 482 982 392 982 280 C982 168 920 78 707 78 L447 78 Z M523 666 L631 666 L631 773 L523 773 L523 666 Z " />
<glyph glyph-name="uni0230" unicode="&#x230;" horiz-adv-x="1348" d="M620 806 L728 806 L728 913 L620 913 L620 806 Z M490 997 L858 997 L858 1069 L490 1069 L490 997 Z M819 -10 C1145 -10 1273 151 1273 350 C1273 549 1145 710 819 710 L529 710 C203 710 75 549 75 350 C75 151 203 -10 529 -10 L819 -10 Z M530 90 C276 90 192 206 192 350 C192 494 276 610 531 610 L818 610 C1072 610 1156 494 1156 350 C1156 206 1072 90 818 90 L530 90 Z " />
<glyph glyph-name="uni0231" unicode="&#x231;" horiz-adv-x="1154" d="M523 666 L631 666 L631 773 L523 773 L523 666 Z M393 857 L761 857 L761 929 L393 929 L393 857 Z M708 -8 C985 -8 1086 121 1086 280 C1086 439 985 568 708 568 L446 568 C169 568 68 439 68 280 C68 121 169 -8 446 -8 L708 -8 Z M447 78 C234 78 172 168 172 280 C172 392 234 482 447 482 L707 482 C920 482 982 392 982 280 C982 168 920 78 707 78 L447 78 Z " />
<glyph glyph-name="uni0232" unicode="&#x232;" horiz-adv-x="1249" d="M570 0 L680 0 L680 211 L1249 700 L1086 700 L625 299 L163 700 L0 700 L570 211 L570 0 Z M440 824 L808 824 L808 896 L440 896 L440 824 Z " />
<glyph glyph-name="uni0233" unicode="&#x233;" horiz-adv-x="1063" d="M483 0 L581 0 L581 170 L1063 560 L917 560 L532 244 L146 560 L0 560 L483 170 L483 0 Z M347 684 L715 684 L715 756 L347 756 L347 684 Z " />
<glyph glyph-name="uni0237" unicode="&#x237;" horiz-adv-x="1042" d="M328 -4 L600 -4 C870 -4 950 106 950 260 L950 560 L852 560 L852 260 C852 155 802 82 600 82 L329 82 C179 82 141 144 141 220 L141 262 L42 262 L42 220 C42 97 112 -4 328 -4 L328 -4 Z " />
<glyph glyph-name="uni0256" unicode="&#x256;" horiz-adv-x="1080" d="M-8 242 L112 242 L112 0 L645 0 C915 0 1012 126 1012 280 C1012 434 915 560 645 560 L112 560 L112 318 L-8 318 L-8 242 Z M645 474 C850 474 908 387 908 280 C908 173 850 86 645 86 L211 86 L211 242 L564 242 L564 318 L211 318 L211 474 L645 474 Z " />
<glyph glyph-name="uni02BB" unicode="&#x2bb;" horiz-adv-x="313" d="M216 573 L163 573 L215 700 L165 700 L97 565 L97 454 L216 454 L216 573 Z " />
<glyph glyph-name="uni02BC" unicode="&#x2bc;" horiz-adv-x="313" d="M97 581 L150 581 L98 454 L148 454 L216 589 L216 700 L97 700 L97 581 Z " />
<glyph glyph-name="uni02BD" unicode="&#x2bd;" horiz-adv-x="313" d="M216 700 L97 700 L97 589 L165 454 L215 454 L163 581 L216 581 L216 700 Z " />
<glyph glyph-name="circumflex" unicode="&#x2c6;" horiz-adv-x="500" d="M314 806 L185 806 L65 635 L136 635 L250 750 L363 635 L434 635 L314 806 Z " />
<glyph glyph-name="caron" unicode="&#x2c7;" horiz-adv-x="500" d="M434 806 L363 806 L250 691 L136 806 L65 806 L185 635 L314 635 L434 806 Z " />
<glyph glyph-name="uni02C9" unicode="&#x2c9;" horiz-adv-x="500" d="M66 684 L434 684 L434 756 L66 756 L66 684 Z " />
<glyph glyph-name="uni02CA" unicode="&#x2ca;" horiz-adv-x="500" d="M172 635 L243 635 L403 806 L277 806 L172 635 Z " />
<glyph glyph-name="uni02CB" unicode="&#x2cb;" horiz-adv-x="500" d="M222 806 L96 806 L256 635 L327 635 L222 806 Z " />
<glyph glyph-name="uni02CD" unicode="&#x2cd;" horiz-adv-x="500" d="M66 -197 L434 -197 L434 -125 L66 -125 L66 -197 Z " />
<glyph glyph-name="uni02CE" unicode="&#x2ce;" horiz-adv-x="500" d="M222 -75 L96 -75 L256 -246 L327 -246 L222 -75 Z " />
<glyph glyph-name="uni02CF" unicode="&#x2cf;" horiz-adv-x="500" d="M172 -246 L243 -246 L403 -75 L277 -75 L172 -246 Z " />
<glyph glyph-name="breve" unicode="&#x2d8;" horiz-adv-x="500" d="M250 714 C173 714 142 752 138 798 L77 798 C82 723 118 643 250 643 C381 643 418 723 423 798 L362 798 C357 752 327 714 250 714 L250 714 Z " />
<glyph glyph-name="dotaccent" unicode="&#x2d9;" horiz-adv-x="500" d="M196 666 L304 666 L304 773 L196 773 L196 666 Z " />
<glyph glyph-name="ring" unicode="&#x2da;" horiz-adv-x="500" d="M192 721 C192 753 218 778 250 778 C282 778 308 753 308 721 C308 689 282 664 250 664 C218 664 192 689 192 721 L192 721 Z M129 721 C129 658 180 609 250 609 C320 609 371 658 371 721 C371 784 320 833 250 833 C180 833 129 784 129 721 L129 721 Z " />
<glyph glyph-name="ogonek" unicode="&#x2db;" horiz-adv-x="500" d="M158 -169 C158 -227 209 -262 285 -262 C326 -262 366 -257 412 -239 L412 -189 C376 -205 354 -208 326 -208 C279 -208 246 -186 246 -145 C246 -78 310 -31 381 0 L319 0 C241 -27 158 -85 158 -169 L158 -169 Z " />
<glyph glyph-name="tilde" unicode="&#x2dc;" horiz-adv-x="500" d="M372 794 C368 742 351 731 325 731 C282 731 238 787 175 787 C117 787 79 754 73 646 L128 646 C132 698 149 710 175 710 C218 710 261 653 325 653 C383 653 422 686 427 794 L372 794 Z " />
<glyph glyph-name="hungarumlaut" unicode="&#x2dd;" horiz-adv-x="500" d="M295 635 L366 635 L526 806 L400 806 L295 635 Z M50 635 L122 635 L281 806 L156 806 L50 635 Z " />
<glyph glyph-name="uni02EC" unicode="&#x2ec;" horiz-adv-x="500" d="M434 -75 L363 -75 L250 -190 L136 -75 L65 -75 L185 -246 L314 -246 L434 -75 Z " />
<glyph glyph-name="uni02EE" unicode="&#x2ee;" horiz-adv-x="549" d="M97 581 L150 581 L98 454 L148 454 L216 589 L216 700 L97 700 L97 581 Z M333 581 L386 581 L334 454 L384 454 L452 589 L452 700 L333 700 L333 581 Z " />
<glyph glyph-name="gravecomb" unicode="&#x300;" d="M-620 806 L-746 806 L-586 635 L-515 635 L-620 806 Z " />
<glyph glyph-name="acutecomb" unicode="&#x301;" d="M-670 635 L-599 635 L-439 806 L-565 806 L-670 635 Z " />
<glyph glyph-name="uni0302" unicode="&#x302;" d="M-528 806 L-657 806 L-777 635 L-706 635 L-592 750 L-479 635 L-408 635 L-528 806 Z " />
<glyph glyph-name="tildecomb" unicode="&#x303;" d="M-471 794 C-475 742 -492 731 -518 731 C-561 731 -605 787 -668 787 C-726 787 -764 754 -770 646 L-715 646 C-711 698 -694 710 -668 710 C-625 710 -582 653 -518 653 C-460 653 -421 686 -416 794 L-471 794 Z " />
<glyph glyph-name="uni0304" unicode="&#x304;" d="M-777 684 L-409 684 L-409 756 L-777 756 L-777 684 Z " />
<glyph glyph-name="uni0306" unicode="&#x306;" d="M-593 714 C-670 714 -701 752 -705 798 L-766 798 C-761 723 -725 643 -593 643 C-462 643 -425 723 -420 798 L-481 798 C-486 752 -516 714 -593 714 L-593 714 Z " />
<glyph glyph-name="uni0307" unicode="&#x307;" d="M-647 666 L-539 666 L-539 773 L-647 773 L-647 666 Z " />
<glyph glyph-name="uni0308" unicode="&#x308;" d="M-511 666 L-403 666 L-403 773 L-511 773 L-511 666 Z M-783 666 L-676 666 L-676 773 L-783 773 L-783 666 Z " />
<glyph glyph-name="hookabovecomb" unicode="&#x309;" d="M-644 627 L-590 627 L-590 666 L-586 666 C-512 666 -434 680 -434 762 C-434 839 -506 858 -581 858 C-633 858 -685 847 -716 834 L-716 782 C-692 793 -650 802 -609 802 C-561 802 -515 796 -515 756 C-515 715 -549 708 -614 708 L-644 708 L-644 627 Z " />
<glyph glyph-name="uni030A" unicode="&#x30a;" d="M-651 721 C-651 753 -625 778 -593 778 C-561 778 -535 753 -535 721 C-535 689 -561 664 -593 664 C-625 664 -651 689 -651 721 L-651 721 Z M-714 721 C-714 658 -663 609 -593 609 C-523 609 -472 658 -472 721 C-472 784 -523 833 -593 833 C-663 833 -714 784 -714 721 L-714 721 Z " />
<glyph glyph-name="uni030B" unicode="&#x30b;" d="M-548 635 L-477 635 L-317 806 L-443 806 L-548 635 Z M-793 635 L-721 635 L-562 806 L-687 806 L-793 635 Z " />
<glyph glyph-name="uni030C" unicode="&#x30c;" d="M-408 806 L-479 806 L-592 691 L-706 806 L-777 806 L-657 635 L-528 635 L-408 806 Z " />
<glyph glyph-name="uni030F" unicode="&#x30f;" d="M-743 806 L-869 806 L-709 635 L-638 635 L-743 806 Z M-499 806 L-624 806 L-465 635 L-393 635 L-499 806 Z " />
<glyph glyph-name="uni0311" unicode="&#x311;" d="M-593 727 C-516 727 -486 689 -481 643 L-420 643 C-425 718 -462 798 -593 798 C-725 798 -761 718 -766 643 L-705 643 C-701 689 -670 727 -593 727 L-593 727 Z " />
<glyph glyph-name="uni0312" unicode="&#x312;" d="M-533 573 L-586 573 L-534 700 L-584 700 L-652 565 L-652 454 L-533 454 L-533 573 Z " />
<glyph glyph-name="uni0313" unicode="&#x313;" d="M-652 581 L-599 581 L-651 454 L-601 454 L-533 589 L-533 700 L-652 700 L-652 581 Z " />
<glyph glyph-name="uni0314" unicode="&#x314;" d="M-533 700 L-652 700 L-652 589 L-584 454 L-534 454 L-586 581 L-533 581 L-533 700 Z " />
<glyph glyph-name="uni0316" unicode="&#x316;" d="M-620 -75 L-746 -75 L-586 -246 L-515 -246 L-620 -75 Z " />
<glyph glyph-name="uni0317" unicode="&#x317;" d="M-670 -246 L-599 -246 L-439 -75 L-565 -75 L-670 -246 Z " />
<glyph glyph-name="uni031B" unicode="&#x31b;" d="M-130 501 L-27 501 C72 501 146 522 146 631 C146 647 144 665 141 686 L37 686 C40 668 42 653 42 639 C42 572 3 560 -55 560 L-130 560 L-130 501 Z " />
<glyph glyph-name="uni031C" unicode="&#x31c;" d="M-547 -48 C-617 -48 -668 -97 -668 -160 C-668 -223 -617 -272 -547 -272 L-547 -217 C-579 -217 -605 -192 -605 -160 C-605 -128 -579 -103 -547 -103 L-547 -48 Z " />
<glyph glyph-name="dotbelowcomb" unicode="&#x323;" d="M-647 -215 L-539 -215 L-539 -108 L-647 -108 L-647 -215 Z " />
<glyph glyph-name="uni0324" unicode="&#x324;" d="M-511 -215 L-403 -215 L-403 -108 L-511 -108 L-511 -215 Z M-783 -215 L-676 -215 L-676 -108 L-783 -108 L-783 -215 Z " />
<glyph glyph-name="uni0325" unicode="&#x325;" d="M-651 -160 C-651 -128 -625 -103 -593 -103 C-561 -103 -535 -128 -535 -160 C-535 -192 -561 -217 -593 -217 C-625 -217 -651 -192 -651 -160 L-651 -160 Z M-714 -160 C-714 -223 -663 -272 -593 -272 C-523 -272 -472 -223 -472 -160 C-472 -97 -523 -48 -593 -48 C-663 -48 -714 -97 -714 -160 L-714 -160 Z " />
<glyph glyph-name="uni0326" unicode="&#x326;" d="M-644 -215 L-602 -215 L-654 -326 L-604 -326 L-536 -207 L-536 -108 L-644 -108 L-644 -215 Z " />
<glyph glyph-name="uni0327" unicode="&#x327;" d="M-648 -115 L-619 -115 C-558 -116 -526 -127 -526 -166 C-526 -235 -672 -222 -716 -196 L-716 -245 C-643 -282 -448 -297 -448 -169 C-448 -88 -515 -70 -593 -70 L-594 -70 L-576 0 L-617 0 L-648 -115 Z " />
<glyph glyph-name="uni0328" unicode="&#x328;" d="M-684 -169 C-684 -227 -633 -262 -557 -262 C-516 -262 -476 -257 -430 -239 L-430 -189 C-466 -205 -488 -208 -516 -208 C-563 -208 -596 -186 -596 -145 C-596 -78 -532 -31 -461 0 L-523 0 C-601 -27 -684 -85 -684 -169 L-684 -169 Z " />
<glyph glyph-name="uni032C" unicode="&#x32c;" d="M-408 -75 L-479 -75 L-592 -190 L-706 -75 L-777 -75 L-657 -246 L-528 -246 L-408 -75 Z " />
<glyph glyph-name="uni032D" unicode="&#x32d;" d="M-528 -75 L-657 -75 L-777 -246 L-706 -246 L-592 -131 L-479 -246 L-408 -246 L-528 -75 Z " />
<glyph glyph-name="uni032E" unicode="&#x32e;" d="M-593 -167 C-670 -167 -701 -129 -705 -83 L-766 -83 C-761 -158 -725 -238 -593 -238 C-462 -238 -425 -158 -420 -83 L-481 -83 C-486 -129 -516 -167 -593 -167 L-593 -167 Z " />
<glyph glyph-name="uni032F" unicode="&#x32f;" d="M-593 -154 C-516 -154 -486 -192 -481 -238 L-420 -238 C-425 -163 -462 -83 -593 -83 C-725 -83 -761 -163 -766 -238 L-705 -238 C-701 -192 -670 -154 -593 -154 L-593 -154 Z " />
<glyph glyph-name="uni0330" unicode="&#x330;" d="M-471 -87 C-475 -139 -492 -150 -518 -150 C-561 -150 -605 -94 -668 -94 C-726 -94 -764 -127 -770 -235 L-715 -235 C-711 -183 -694 -171 -668 -171 C-625 -171 -582 -228 -518 -228 C-460 -228 -421 -195 -416 -87 L-471 -87 Z " />
<glyph glyph-name="uni0331" unicode="&#x331;" d="M-777 -197 L-409 -197 L-409 -125 L-777 -125 L-777 -197 Z " />
<glyph glyph-name="uni0338" unicode="&#x338;" d="M-893 -76 L-794 -76 L-292 776 L-391 776 L-893 -76 Z " />
<glyph glyph-name="uni0339" unicode="&#x339;" d="M-638 -103 C-606 -103 -580 -128 -580 -160 C-580 -192 -606 -217 -638 -217 L-638 -272 C-568 -272 -517 -223 -517 -160 C-517 -97 -568 -48 -638 -48 L-638 -103 Z " />
<glyph glyph-name="uni0340" unicode="&#x340;" d="M-620 806 L-746 806 L-586 635 L-515 635 L-620 806 Z " />
<glyph glyph-name="uni0341" unicode="&#x341;" d="M-670 635 L-599 635 L-439 806 L-565 806 L-670 635 Z " />
<glyph glyph-name="uni0343" unicode="&#x343;" d="M-652 581 L-599 581 L-651 454 L-601 454 L-533 589 L-533 700 L-652 700 L-652 581 Z " />
<glyph glyph-name="uni0344" unicode="&#x344;" d="M-458 669 L-353 669 L-353 773 L-458 773 L-458 669 Z M-832 669 L-727 669 L-727 773 L-832 773 L-832 669 Z M-617 635 L-569 635 L-537 835 L-648 835 L-617 635 Z " />
<glyph glyph-name="uni034F" unicode="&#x34f;" d="" />
<glyph glyph-name="uni0351" unicode="&#x351;" d="M-547 833 C-617 833 -668 784 -668 721 C-668 658 -617 609 -547 609 L-547 664 C-579 664 -605 689 -605 721 C-605 753 -579 778 -547 778 L-547 833 Z " />
<glyph glyph-name="uni0357" unicode="&#x357;" d="M-638 778 C-606 778 -580 753 -580 721 C-580 689 -606 664 -638 664 L-638 609 C-568 609 -517 658 -517 721 C-517 784 -568 833 -638 833 L-638 778 Z " />
<glyph glyph-name="uni0374" unicode="&#x374;" horiz-adv-x="315" d="M110 400 L181 400 L265 700 L140 700 L110 400 Z " />
<glyph glyph-name="uni0375" unicode="&#x375;" horiz-adv-x="315" d="M110 -100 L181 -100 L265 200 L140 200 L110 -100 Z " />
<glyph glyph-name="uni037E" unicode="&#x37e;" horiz-adv-x="313" d="M97 0 L150 0 L98 -127 L148 -127 L216 8 L216 119 L97 119 L97 0 Z M97 441 L216 441 L216 560 L97 560 L97 441 Z " />
<glyph glyph-name="tonos" unicode="&#x384;" horiz-adv-x="500" d="M222 635 L278 635 L310 835 L190 835 L222 635 Z " />
<glyph glyph-name="dieresistonos" unicode="&#x385;" horiz-adv-x="500" d="M384 669 L489 669 L489 773 L384 773 L384 669 Z M10 669 L115 669 L115 773 L10 773 L10 669 Z M225 635 L273 635 L305 835 L194 835 L225 635 Z " />
<glyph glyph-name="Alphatonos" unicode="&#x386;" horiz-adv-x="1276" d="M1130 0 L1266 0 L697 700 L579 700 L10 0 L146 0 L253 132 L1023 132 L1130 0 Z M638 607 L949 223 L327 223 L638 607 Z M160 500 L216 500 L248 700 L128 700 L160 500 Z " />
<glyph glyph-name="anoteleia" unicode="&#x387;" horiz-adv-x="302" d="M97 226 L205 226 L205 333 L97 333 L97 226 Z " />
<glyph glyph-name="Epsilontonos" unicode="&#x388;" horiz-adv-x="1361" d="M53 500 L109 500 L141 700 L21 700 L53 500 Z M284 0 L1281 0 L1281 100 L394 100 L394 305 L1179 305 L1179 395 L394 395 L394 600 L1281 600 L1281 700 L284 700 L284 0 Z " />
<glyph glyph-name="Etatonos" unicode="&#x389;" horiz-adv-x="1467" d="M53 500 L109 500 L141 700 L21 700 L53 500 Z M1235 0 L1345 0 L1345 700 L1235 700 L1235 400 L394 400 L394 700 L284 700 L284 0 L394 0 L394 300 L1235 300 L1235 0 Z " />
<glyph glyph-name="Iotatonos" unicode="&#x38a;" horiz-adv-x="516" d="M53 500 L109 500 L141 700 L21 700 L53 500 Z M284 0 L394 0 L394 700 L284 700 L284 0 Z " />
<glyph glyph-name="Omicrontonos" unicode="&#x38c;" horiz-adv-x="1477" d="M53 500 L109 500 L141 700 L21 700 L53 500 Z M948 -10 C1274 -10 1402 151 1402 350 C1402 549 1274 710 948 710 L658 710 C332 710 204 549 204 350 C204 151 332 -10 658 -10 L948 -10 Z M659 90 C405 90 321 206 321 350 C321 494 405 610 660 610 L947 610 C1201 610 1285 494 1285 350 C1285 206 1201 90 947 90 L659 90 Z " />
<glyph glyph-name="Upsilontonos" unicode="&#x38e;" horiz-adv-x="1435" d="M53 500 L109 500 L141 700 L21 700 L53 500 Z M756 0 L866 0 L866 211 L1435 700 L1272 700 L811 299 L349 700 L186 700 L756 211 L756 0 Z " />
<glyph glyph-name="Omegatonos" unicode="&#x38f;" horiz-adv-x="1471" d="M53 500 L109 500 L141 700 L21 700 L53 500 Z M957 0 L1402 0 L1402 100 L1196 100 C1320 165 1372 277 1372 391 C1372 567 1258 710 969 710 L617 710 C328 710 214 567 214 391 C214 277 265 165 389 100 L184 100 L184 0 L629 0 L629 84 C401 121 321 237 321 367 C321 502 399 610 637 610 L949 610 C1187 610 1265 502 1265 367 C1265 237 1185 121 957 84 L957 0 Z " />
<glyph glyph-name="iotadieresistonos" unicode="&#x390;" horiz-adv-x="323" d="M296 669 L401 669 L401 773 L296 773 L296 669 Z M-78 669 L27 669 L27 773 L-78 773 L-78 669 Z M137 635 L185 635 L217 835 L106 835 L137 635 Z M112 0 L211 0 L211 560 L112 560 L112 0 Z " />
<glyph glyph-name="Alpha" unicode="&#x391;" horiz-adv-x="1276" d="M1130 0 L1266 0 L697 700 L579 700 L10 0 L146 0 L253 132 L1023 132 L1130 0 Z M638 607 L949 223 L327 223 L638 607 Z " />
<glyph glyph-name="Beta" unicode="&#x392;" horiz-adv-x="1259" d="M122 0 L946 0 C1114 0 1179 82 1179 184 C1179 269 1134 340 1021 361 C1097 389 1129 450 1129 520 C1129 621 1065 700 900 700 L122 700 L122 0 Z M918 305 C1029 305 1062 258 1062 202 C1062 147 1029 100 918 100 L232 100 L232 305 L918 305 Z M1016 498 C1016 443 984 395 877 395 L232 395 L232 600 L872 600 C981 600 1016 554 1016 498 L1016 498 Z " />
<glyph glyph-name="Gamma" unicode="&#x393;" horiz-adv-x="1129" d="M122 0 L232 0 L232 600 L1099 600 L1099 700 L122 700 L122 0 Z " />
<glyph glyph-name="Delta" unicode="&#x394;" horiz-adv-x="1276" d="M697 700 L579 700 L10 0 L1266 0 L697 700 Z M638 610 L1057 100 L219 100 L638 610 Z " />
<glyph glyph-name="Epsilon" unicode="&#x395;" horiz-adv-x="1199" d="M122 0 L1119 0 L1119 100 L232 100 L232 305 L1017 305 L1017 395 L232 395 L232 600 L1119 600 L1119 700 L122 700 L122 0 Z " />
<glyph glyph-name="Zeta" unicode="&#x396;" horiz-adv-x="1197" d="M72 0 L1135 0 L1135 100 L287 100 L1115 622 L1115 700 L82 700 L82 600 L899 600 L72 78 L72 0 Z " />
<glyph glyph-name="Eta" unicode="&#x397;" horiz-adv-x="1305" d="M1073 0 L1183 0 L1183 700 L1073 700 L1073 400 L232 400 L232 700 L122 700 L122 0 L232 0 L232 300 L1073 300 L1073 0 Z " />
<glyph glyph-name="Theta" unicode="&#x398;" horiz-adv-x="1348" d="M373 305 L974 305 L974 395 L373 395 L373 305 Z M819 -10 C1145 -10 1273 151 1273 350 C1273 549 1145 710 819 710 L529 710 C203 710 75 549 75 350 C75 151 203 -10 529 -10 L819 -10 Z M530 90 C276 90 192 206 192 350 C192 494 276 610 531 610 L818 610 C1072 610 1156 494 1156 350 C1156 206 1072 90 818 90 L530 90 Z " />
<glyph glyph-name="Iota" unicode="&#x399;" horiz-adv-x="354" d="M122 0 L232 0 L232 700 L122 700 L122 0 Z " />
<glyph glyph-name="Kappa" unicode="&#x39a;" horiz-adv-x="1292" d="M1196 700 L1003 700 L232 254 L232 700 L122 700 L122 0 L232 0 L232 144 L547 326 L1098 0 L1287 0 L645 382 L1196 700 Z " />
<glyph glyph-name="Lambda" unicode="&#x39b;" horiz-adv-x="1276" d="M579 700 L10 0 L150 0 L638 607 L1126 0 L1266 0 L697 700 L579 700 Z " />
<glyph glyph-name="Mu" unicode="&#x39c;" horiz-adv-x="1450" d="M1223 700 L725 176 L227 700 L122 700 L122 0 L232 0 L232 548 L725 27 L1218 548 L1218 0 L1328 0 L1328 700 L1223 700 Z " />
<glyph glyph-name="Nu" unicode="&#x39d;" horiz-adv-x="1306" d="M1080 0 L1184 0 L1184 700 L1074 700 L1074 129 L226 700 L122 700 L122 0 L232 0 L232 571 L1080 0 Z " />
<glyph glyph-name="Xi" unicode="&#x39e;" horiz-adv-x="1207" d="M80 600 L1127 600 L1127 700 L80 700 L80 600 Z M1127 100 L80 100 L80 0 L1127 0 L1127 100 Z M172 305 L1035 305 L1035 395 L172 395 L172 305 Z " />
<glyph glyph-name="Omicron" unicode="&#x39f;" horiz-adv-x="1348" d="M819 -10 C1145 -10 1273 151 1273 350 C1273 549 1145 710 819 710 L529 710 C203 710 75 549 75 350 C75 151 203 -10 529 -10 L819 -10 Z M530 90 C276 90 192 206 192 350 C192 494 276 610 531 610 L818 610 C1072 610 1156 494 1156 350 C1156 206 1072 90 818 90 L530 90 Z " />
<glyph glyph-name="Pi" unicode="&#x3a0;" horiz-adv-x="1305" d="M1073 0 L1183 0 L1183 700 L122 700 L122 0 L232 0 L232 600 L1073 600 L1073 0 Z " />
<glyph glyph-name="Rho" unicode="&#x3a1;" horiz-adv-x="1196" d="M122 0 L232 0 L232 260 L885 260 C1087 260 1164 356 1164 480 C1164 601 1087 700 885 700 L122 700 L122 0 Z M883 600 C1012 600 1049 546 1049 480 C1049 412 1012 360 883 360 L232 360 L232 600 L883 600 Z " />
<glyph glyph-name="Sigma" unicode="&#x3a3;" horiz-adv-x="1177" d="M80 617 L559 350 L80 83 L80 0 L1097 0 L1097 100 L304 100 L749 350 L304 600 L1097 600 L1097 700 L80 700 L80 617 Z " />
<glyph glyph-name="Tau" unicode="&#x3a4;" horiz-adv-x="1184" d="M30 600 L537 600 L537 0 L647 0 L647 600 L1154 600 L1154 700 L30 700 L30 600 Z " />
<glyph glyph-name="Upsilon" unicode="&#x3a5;" horiz-adv-x="1249" d="M570 0 L680 0 L680 211 L1249 700 L1086 700 L625 299 L163 700 L0 700 L570 211 L570 0 Z " />
<glyph glyph-name="Phi" unicode="&#x3a6;" horiz-adv-x="1305" d="M884 62 C1148 62 1249 188 1249 350 C1249 508 1148 638 884 638 L707 638 L707 750 L597 750 L597 638 L421 638 C157 638 56 508 56 350 C56 188 157 62 421 62 L597 62 L597 -50 L707 -50 L707 62 L884 62 Z M882 538 C1074 538 1132 453 1132 350 C1132 244 1074 162 882 162 L707 162 L707 538 L882 538 Z M173 350 C173 453 231 538 423 538 L597 538 L597 162 L423 162 C231 162 173 244 173 350 L173 350 Z " />
<glyph glyph-name="Chi" unicode="&#x3a7;" horiz-adv-x="1228" d="M19 700 L525 352 L14 0 L190 0 L614 295 L1038 0 L1214 0 L703 352 L1209 700 L1033 700 L614 408 L195 700 L19 700 Z " />
<glyph glyph-name="Psi" unicode="&#x3a8;" horiz-adv-x="1296" d="M593 0 L703 0 L703 145 L813 145 C1130 145 1234 282 1234 475 L1234 700 L1124 700 L1124 475 C1124 339 1054 245 812 245 L703 245 L703 700 L593 700 L593 245 L484 245 C242 245 172 339 172 475 L172 700 L62 700 L62 475 C62 282 166 145 483 145 L593 145 L593 0 Z " />
<glyph glyph-name="Omega" unicode="&#x3a9;" horiz-adv-x="1356" d="M842 0 L1287 0 L1287 100 L1081 100 C1205 165 1257 277 1257 391 C1257 567 1143 710 854 710 L502 710 C213 710 99 567 99 391 C99 277 150 165 274 100 L69 100 L69 0 L514 0 L514 84 C286 121 206 237 206 367 C206 502 284 610 522 610 L834 610 C1072 610 1150 502 1150 367 C1150 237 1070 121 842 84 L842 0 Z " />
<glyph glyph-name="Iotadieresis" unicode="&#x3aa;" horiz-adv-x="354" d="M122 0 L232 0 L232 700 L122 700 L122 0 Z M259 806 L367 806 L367 913 L259 913 L259 806 Z M-13 806 L94 806 L94 913 L-13 913 L-13 806 Z " />
<glyph glyph-name="Upsilondieresis" unicode="&#x3ab;" horiz-adv-x="1249" d="M570 0 L680 0 L680 211 L1249 700 L1086 700 L625 299 L163 700 L0 700 L570 211 L570 0 Z M708 806 L816 806 L816 913 L708 913 L708 806 Z M436 806 L543 806 L543 913 L436 913 L436 806 Z " />
<glyph glyph-name="alphatonos" unicode="&#x3ac;" horiz-adv-x="1091" d="M959 0 L1080 0 L598 560 L493 560 L11 0 L133 0 L227 110 L864 110 L959 0 Z M545 480 L798 186 L292 186 L545 480 Z M120 360 L176 360 L208 560 L88 560 L120 360 Z " />
<glyph glyph-name="epsilontonos" unicode="&#x3ad;" horiz-adv-x="1195" d="M53 360 L109 360 L141 560 L21 560 L53 360 Z M274 0 L1122 0 L1122 86 L373 86 L373 242 L1035 242 L1035 318 L373 318 L373 474 L1122 474 L1122 560 L274 560 L274 0 Z " />
<glyph glyph-name="etatonos" unicode="&#x3ae;" horiz-adv-x="1289" d="M53 360 L109 360 L141 560 L21 560 L53 360 Z M1078 0 L1177 0 L1177 560 L1078 560 L1078 323 L373 323 L373 560 L274 560 L274 0 L373 0 L373 237 L1078 237 L1078 0 Z " />
<glyph glyph-name="iotatonos" unicode="&#x3af;" horiz-adv-x="485" d="M53 360 L109 360 L141 560 L21 560 L53 360 Z M274 0 L373 0 L373 560 L274 560 L274 0 Z " />
<glyph glyph-name="upsilondieresistonos" unicode="&#x3b0;" horiz-adv-x="1063" d="M668 669 L773 669 L773 773 L668 773 L668 669 Z M294 669 L399 669 L399 773 L294 773 L294 669 Z M509 635 L557 635 L589 835 L478 835 L509 635 Z M483 0 L581 0 L581 170 L1063 560 L917 560 L532 244 L146 560 L0 560 L483 170 L483 0 Z " />
<glyph glyph-name="alpha" unicode="&#x3b1;" horiz-adv-x="1091" d="M959 0 L1080 0 L598 560 L493 560 L11 0 L133 0 L227 110 L864 110 L959 0 Z M545 480 L798 186 L292 186 L545 480 Z " />
<glyph glyph-name="beta" unicode="&#x3b2;" horiz-adv-x="1083" d="M112 0 L819 0 C963 0 1011 65 1011 147 C1011 215 975 272 881 289 C944 312 969 360 969 416 C969 497 921 560 781 560 L112 560 L112 0 Z M793 242 C884 242 905 207 905 164 C905 121 884 86 793 86 L211 86 L211 242 L793 242 Z M757 318 L211 318 L211 474 L753 474 C843 474 866 439 866 396 C866 353 845 318 757 318 L757 318 Z " />
<glyph glyph-name="gamma" unicode="&#x3b3;" horiz-adv-x="986" d="M112 0 L211 0 L211 474 L943 474 L943 560 L112 560 L112 0 Z " />
<glyph glyph-name="delta" unicode="&#x3b4;" horiz-adv-x="1091" d="M598 560 L493 560 L11 0 L1080 0 L598 560 Z M545 482 L893 86 L198 86 L545 482 Z " />
<glyph glyph-name="epsilon" unicode="&#x3b5;" horiz-adv-x="1033" d="M112 0 L960 0 L960 86 L211 86 L211 242 L873 242 L873 318 L211 318 L211 474 L960 474 L960 560 L112 560 L112 0 Z " />
<glyph glyph-name="zeta" unicode="&#x3b6;" horiz-adv-x="1025" d="M65 0 L970 0 L970 86 L257 86 L953 493 L953 560 L74 560 L74 474 L759 474 L65 67 L65 0 Z " />
<glyph glyph-name="eta" unicode="&#x3b7;" horiz-adv-x="1127" d="M916 0 L1015 0 L1015 560 L916 560 L916 323 L211 323 L211 560 L112 560 L112 0 L211 0 L211 237 L916 237 L916 0 Z " />
<glyph glyph-name="theta" unicode="&#x3b8;" horiz-adv-x="1155" d="M326 242 L828 242 L828 318 L326 318 L326 242 Z M709 -8 C986 -8 1087 121 1087 280 C1087 439 986 568 709 568 L446 568 C169 568 68 439 68 280 C68 121 169 -8 446 -8 L709 -8 Z M447 78 C234 78 172 168 172 280 C172 392 234 482 447 482 L708 482 C921 482 983 392 983 280 C983 168 921 78 708 78 L447 78 Z " />
<glyph glyph-name="iota" unicode="&#x3b9;" horiz-adv-x="323" d="M112 0 L211 0 L211 560 L112 560 L112 0 Z " />
<glyph glyph-name="kappa" unicode="&#x3ba;" horiz-adv-x="1114" d="M1014 560 L834 560 L192 210 L192 560 L93 560 L93 0 L192 0 L192 114 L457 258 L915 0 L1085 0 L545 305 L1014 560 Z " />
<glyph glyph-name="lambda" unicode="&#x3bb;" horiz-adv-x="1091" d="M493 560 L11 0 L136 0 L545 480 L955 0 L1080 0 L598 560 L493 560 Z " />
<glyph glyph-name="mu" unicode="&#x3bc;" horiz-adv-x="1251" d="M1044 560 L625 149 L206 560 L112 560 L112 0 L211 0 L211 429 L625 20 L1040 429 L1040 0 L1139 0 L1139 560 L1044 560 Z " />
<glyph glyph-name="nu" unicode="&#x3bd;" horiz-adv-x="1128" d="M1016 0 L1016 560 L917 560 L917 111 L206 560 L112 560 L112 0 L211 0 L211 449 L922 0 L1016 0 Z " />
<glyph glyph-name="xi" unicode="&#x3be;" horiz-adv-x="1037" d="M73 474 L964 474 L964 560 L73 560 L73 474 Z M964 86 L73 86 L73 0 L964 0 L964 86 Z M152 242 L885 242 L885 318 L152 318 L152 242 Z " />
<glyph glyph-name="omicron" unicode="&#x3bf;" horiz-adv-x="1154" d="M708 -8 C985 -8 1086 121 1086 280 C1086 439 985 568 708 568 L446 568 C169 568 68 439 68 280 C68 121 169 -8 446 -8 L708 -8 Z M447 78 C234 78 172 168 172 280 C172 392 234 482 447 482 L707 482 C920 482 982 392 982 280 C982 168 920 78 707 78 L447 78 Z " />
<glyph glyph-name="pi" unicode="&#x3c0;" horiz-adv-x="1127" d="M916 0 L1015 0 L1015 560 L112 560 L112 0 L211 0 L211 474 L916 474 L916 0 Z " />
<glyph glyph-name="rho" unicode="&#x3c1;" horiz-adv-x="1041" d="M112 0 L211 0 L211 205 L766 205 C938 205 999 283 999 382 C999 480 938 560 766 560 L112 560 L112 0 Z M764 474 C872 474 896 433 896 382 C896 331 872 291 764 291 L211 291 L211 474 L764 474 Z " />
<glyph glyph-name="uni03C2" unicode="&#x3c2;" horiz-adv-x="1009" d="M72 489 L475 280 L72 71 L72 0 L937 0 L937 86 L272 86 L645 280 L272 474 L937 474 L937 560 L72 560 L72 489 Z " />
<glyph glyph-name="sigma" unicode="&#x3c3;" horiz-adv-x="1009" d="M72 489 L475 280 L72 71 L72 0 L937 0 L937 86 L272 86 L645 280 L272 474 L937 474 L937 560 L72 560 L72 489 Z " />
<glyph glyph-name="tau" unicode="&#x3c4;" horiz-adv-x="1041" d="M43 474 L471 474 L471 0 L570 0 L570 474 L998 474 L998 560 L43 560 L43 474 Z " />
<glyph glyph-name="upsilon" unicode="&#x3c5;" horiz-adv-x="1063" d="M483 0 L581 0 L581 170 L1063 560 L917 560 L532 244 L146 560 L0 560 L483 170 L483 0 Z " />
<glyph glyph-name="phi" unicode="&#x3c6;" horiz-adv-x="1129" d="M768 50 C992 50 1072 150 1072 280 C1072 406 992 510 768 510 L613 510 L613 600 L515 600 L515 510 L361 510 C137 510 57 406 57 280 C57 150 137 50 361 50 L515 50 L515 -40 L613 -40 L613 50 L768 50 Z M766 424 C924 424 969 359 969 280 C969 199 924 136 766 136 L613 136 L613 424 L766 424 Z M161 280 C161 359 205 424 363 424 L515 424 L515 136 L363 136 C205 136 161 199 161 280 L161 280 Z " />
<glyph glyph-name="chi" unicode="&#x3c7;" horiz-adv-x="1064" d="M24 560 L454 282 L19 0 L180 0 L532 232 L884 0 L1046 0 L611 282 L1042 560 L880 560 L532 332 L185 560 L24 560 Z " />
<glyph glyph-name="psi" unicode="&#x3c8;" horiz-adv-x="1115" d="M508 0 L606 0 L606 115 L704 115 C973 115 1056 225 1056 379 L1056 560 L957 560 L957 379 C957 274 905 201 703 201 L606 201 L606 560 L508 560 L508 201 L411 201 C209 201 157 274 157 379 L157 560 L59 560 L59 379 C59 225 141 115 410 115 L508 115 L508 0 Z " />
<glyph glyph-name="omega" unicode="&#x3c9;" horiz-adv-x="1169" d="M722 0 L1103 0 L1103 86 L935 86 C1034 137 1077 224 1077 313 C1077 454 987 568 742 568 L426 568 C181 568 92 454 92 313 C92 224 132 137 232 86 L66 86 L66 0 L446 0 L446 72 C254 100 188 191 188 292 C188 398 244 482 445 482 L723 482 C924 482 981 398 981 292 C981 191 914 100 722 72 L722 0 Z " />
<glyph glyph-name="iotadieresis" unicode="&#x3ca;" horiz-adv-x="323" d="M112 0 L211 0 L211 560 L112 560 L112 0 Z M244 666 L352 666 L352 773 L244 773 L244 666 Z M-28 666 L79 666 L79 773 L-28 773 L-28 666 Z " />
<glyph glyph-name="upsilondieresis" unicode="&#x3cb;" horiz-adv-x="1063" d="M483 0 L581 0 L581 170 L1063 560 L917 560 L532 244 L146 560 L0 560 L483 170 L483 0 Z M615 666 L723 666 L723 773 L615 773 L615 666 Z M343 666 L450 666 L450 773 L343 773 L343 666 Z " />
<glyph glyph-name="omicrontonos" unicode="&#x3cc;" horiz-adv-x="1299" d="M53 360 L109 360 L141 560 L21 560 L53 360 Z M852 -8 C1129 -8 1230 121 1230 280 C1230 439 1129 568 852 568 L590 568 C313 568 212 439 212 280 C212 121 313 -8 590 -8 L852 -8 Z M591 78 C378 78 316 168 316 280 C316 392 378 482 591 482 L851 482 C1064 482 1126 392 1126 280 C1126 168 1064 78 851 78 L591 78 Z " />
<glyph glyph-name="upsilontonos" unicode="&#x3cd;" horiz-adv-x="1249" d="M53 360 L109 360 L141 560 L21 560 L53 360 Z M669 0 L767 0 L767 170 L1249 560 L1103 560 L718 244 L332 560 L186 560 L669 170 L669 0 Z " />
<glyph glyph-name="omegatonos" unicode="&#x3ce;" horiz-adv-x="1294" d="M53 360 L109 360 L141 560 L21 560 L53 360 Z M847 0 L1228 0 L1228 86 L1060 86 C1159 137 1202 224 1202 313 C1202 454 1112 568 867 568 L551 568 C306 568 217 454 217 313 C217 224 257 137 357 86 L191 86 L191 0 L571 0 L571 72 C379 100 313 191 313 292 C313 398 369 482 570 482 L848 482 C1049 482 1106 398 1106 292 C1106 191 1039 100 847 72 L847 0 Z " />
<glyph glyph-name="uni0400" unicode="&#x400;" horiz-adv-x="1199" d="M122 0 L1119 0 L1119 100 L232 100 L232 305 L1017 305 L1017 395 L232 395 L232 600 L1119 600 L1119 700 L122 700 L122 0 Z M582 946 L456 946 L616 775 L687 775 L582 946 Z " />
<glyph glyph-name="uni0401" unicode="&#x401;" horiz-adv-x="1199" d="M122 0 L1119 0 L1119 100 L232 100 L232 305 L1017 305 L1017 395 L232 395 L232 600 L1119 600 L1119 700 L122 700 L122 0 Z M691 806 L799 806 L799 913 L691 913 L691 806 Z M419 806 L526 806 L526 913 L419 913 L419 806 Z " />
<glyph glyph-name="uni0402" unicode="&#x402;" horiz-adv-x="1354" d="M747 0 L1069 0 C1252 0 1322 88 1322 198 C1322 310 1252 395 1069 395 L450 395 L450 600 L957 600 L957 700 L30 700 L30 600 L340 600 L340 -1 L450 -1 L450 305 L1066 305 C1177 305 1206 259 1206 202 C1206 147 1177 100 1066 100 L747 100 L747 0 Z " />
<glyph glyph-name="uni0403" unicode="&#x403;" horiz-adv-x="1129" d="M122 0 L232 0 L232 600 L1099 600 L1099 700 L122 700 L122 0 Z M529 775 L600 775 L760 946 L634 946 L529 775 Z " />
<glyph glyph-name="uni0404" unicode="&#x404;" horiz-adv-x="1184" d="M1002 305 L1002 395 L192 395 C209 511 301 600 517 600 L1104 600 L1104 700 L516 700 C199 700 75 543 75 350 C75 157 199 0 516 0 L1104 0 L1104 100 L517 100 C301 100 209 188 192 305 L1002 305 Z " />
<glyph glyph-name="uni0405" unicode="&#x405;" horiz-adv-x="1207" d="M112 0 L882 0 C1065 0 1135 88 1135 198 C1135 310 1065 395 882 395 L328 395 C217 395 187 441 187 498 C187 553 217 600 328 600 L1095 600 L1095 700 L325 700 C142 700 72 612 72 502 C72 390 142 305 325 305 L879 305 C990 305 1020 259 1020 202 C1020 147 990 100 879 100 L112 100 L112 0 Z " />
<glyph glyph-name="uni0406" unicode="&#x406;" horiz-adv-x="354" d="M122 0 L232 0 L232 700 L122 700 L122 0 Z " />
<glyph glyph-name="uni0407" unicode="&#x407;" horiz-adv-x="354" d="M122 0 L232 0 L232 700 L122 700 L122 0 Z M259 806 L367 806 L367 913 L259 913 L259 806 Z M-13 806 L94 806 L94 913 L-13 913 L-13 806 Z " />
<glyph glyph-name="uni0408" unicode="&#x408;" horiz-adv-x="1231" d="M385 -5 L688 -5 C1005 -5 1109 132 1109 325 L1109 700 L999 700 L999 325 C999 189 929 95 687 95 L386 95 C206 95 152 176 152 275 L152 326 L42 326 L42 275 C42 121 131 -5 385 -5 L385 -5 Z " />
<glyph glyph-name="uni0409" unicode="&#x409;" horiz-adv-x="1862" d="M307 700 L237 206 C229 146 196 100 95 100 L30 100 L30 0 L87 0 C270 0 330 84 347 206 L402 600 L897 600 L897 0 L1551 0 C1753 0 1830 96 1830 220 C1830 341 1753 440 1551 440 L1007 440 L1007 700 L307 700 Z M1548 340 C1678 340 1714 286 1714 220 C1714 152 1678 100 1548 100 L1007 100 L1007 340 L1548 340 Z " />
<glyph glyph-name="uni040A" unicode="&#x40a;" horiz-adv-x="1876" d="M911 0 L1565 0 C1767 0 1844 96 1844 220 C1844 341 1767 440 1565 440 L1021 440 L1021 700 L911 700 L911 440 L232 440 L232 700 L122 700 L122 0 L232 0 L232 340 L911 340 L911 0 Z M1562 340 C1692 340 1728 286 1728 220 C1728 152 1692 100 1562 100 L1021 100 L1021 340 L1562 340 Z " />
<glyph glyph-name="uni040B" unicode="&#x40b;" horiz-adv-x="1384" d="M1322 -1 L1322 191 C1322 304 1266 393 1080 393 L450 393 L450 600 L957 600 L957 700 L30 700 L30 600 L340 600 L340 -1 L450 -1 L450 293 L1082 293 C1191 293 1212 244 1212 182 L1212 -1 L1322 -1 Z " />
<glyph glyph-name="uni040C" unicode="&#x40c;" horiz-adv-x="1291" d="M680 353 L1197 700 L1027 700 L582 400 L232 400 L232 700 L122 700 L122 0 L232 0 L232 300 L580 300 L1098 0 L1286 0 L680 353 Z M503 775 L574 775 L734 946 L608 946 L503 775 Z " />
<glyph glyph-name="uni040D" unicode="&#x40d;" horiz-adv-x="1306" d="M1074 571 L1074 0 L1184 0 L1184 700 L1080 700 L232 129 L232 700 L122 700 L122 0 L226 0 L1074 571 Z M625 946 L499 946 L659 775 L730 775 L625 946 Z " />
<glyph glyph-name="uni040E" unicode="&#x40e;" horiz-adv-x="1254" d="M460 0 L1256 700 L1098 700 L638 290 L162 700 L2 700 L564 221 L303 0 L460 0 Z M639 854 C562 854 531 892 527 938 L466 938 C471 863 507 783 639 783 C770 783 807 863 812 938 L751 938 C746 892 716 854 639 854 L639 854 Z " />
<glyph glyph-name="uni040F" unicode="&#x40f;" horiz-adv-x="1305" d="M1073 100 L232 100 L232 700 L122 700 L122 0 L598 0 L598 -150 L708 -150 L708 0 L1183 0 L1183 700 L1073 700 L1073 100 Z " />
<glyph glyph-name="uni0410" unicode="&#x410;" horiz-adv-x="1276" d="M1130 0 L1266 0 L697 700 L579 700 L10 0 L146 0 L253 132 L1023 132 L1130 0 Z M638 607 L949 223 L327 223 L638 607 Z " />
<glyph glyph-name="uni0411" unicode="&#x411;" horiz-adv-x="1236" d="M122 0 L911 0 C1094 0 1164 88 1164 198 C1164 310 1094 395 911 395 L232 395 L232 600 L1099 600 L1099 700 L122 700 L122 0 Z M908 305 C1019 305 1048 259 1048 202 C1048 147 1019 100 908 100 L232 100 L232 305 L908 305 Z " />
<glyph glyph-name="uni0412" unicode="&#x412;" horiz-adv-x="1259" d="M122 0 L946 0 C1114 0 1179 82 1179 184 C1179 269 1134 340 1021 361 C1097 389 1129 450 1129 520 C1129 621 1065 700 900 700 L122 700 L122 0 Z M918 305 C1029 305 1062 258 1062 202 C1062 147 1029 100 918 100 L232 100 L232 305 L918 305 Z M1016 498 C1016 443 984 395 877 395 L232 395 L232 600 L872 600 C981 600 1016 554 1016 498 L1016 498 Z " />
<glyph glyph-name="uni0413" unicode="&#x413;" horiz-adv-x="1129" d="M122 0 L232 0 L232 600 L1099 600 L1099 700 L122 700 L122 0 Z " />
<glyph glyph-name="uni0414" unicode="&#x414;" horiz-adv-x="1251" d="M140 0 L1076 0 L1076 -150 L1186 -150 L1186 100 L1099 100 L1099 700 L307 700 L237 206 C229 147 198 100 102 100 L30 100 L30 -150 L140 -150 L140 0 Z M351 232 L402 600 L989 600 L989 100 L277 100 C323 128 342 175 351 232 L351 232 Z " />
<glyph glyph-name="uni0415" unicode="&#x415;" horiz-adv-x="1199" d="M122 0 L1119 0 L1119 100 L232 100 L232 305 L1017 305 L1017 395 L232 395 L232 600 L1119 600 L1119 700 L122 700 L122 0 Z " />
<glyph glyph-name="uni0416" unicode="&#x416;" horiz-adv-x="1629" d="M1137 351 L1553 700 L1401 700 L1042 400 L869 400 L869 700 L759 700 L759 400 L587 400 L227 700 L76 700 L492 351 L20 0 L181 0 L587 300 L759 300 L759 0 L869 0 L869 300 L1042 300 L1448 0 L1609 0 L1137 351 Z " />
<glyph glyph-name="uni0417" unicode="&#x417;" horiz-adv-x="1269" d="M70 0 L956 0 C1124 0 1189 82 1189 184 C1189 269 1144 340 1031 361 C1107 389 1139 450 1139 520 C1139 621 1075 700 910 700 L90 700 L90 600 L882 600 C993 600 1026 553 1026 497 C1026 442 994 395 887 395 L177 395 L177 305 L928 305 C1039 305 1072 258 1072 203 C1072 147 1039 100 928 100 L70 100 L70 0 Z " />
<glyph glyph-name="uni0418" unicode="&#x418;" horiz-adv-x="1306" d="M1074 571 L1074 0 L1184 0 L1184 700 L1080 700 L232 129 L232 700 L122 700 L122 0 L226 0 L1074 571 Z " />
<glyph glyph-name="uni0419" unicode="&#x419;" horiz-adv-x="1306" d="M1074 571 L1074 0 L1184 0 L1184 700 L1080 700 L232 129 L232 700 L122 700 L122 0 L226 0 L1074 571 Z M653 854 C576 854 545 892 541 938 L480 938 C485 863 521 783 653 783 C784 783 821 863 826 938 L765 938 C760 892 730 854 653 854 L653 854 Z " />
<glyph glyph-name="uni041A" unicode="&#x41a;" horiz-adv-x="1291" d="M680 353 L1197 700 L1027 700 L582 400 L232 400 L232 700 L122 700 L122 0 L232 0 L232 300 L580 300 L1098 0 L1286 0 L680 353 Z " />
<glyph glyph-name="uni041B" unicode="&#x41b;" horiz-adv-x="1258" d="M307 700 L237 206 C228 145 196 100 95 100 L30 100 L30 0 L87 0 C270 0 330 83 347 206 L402 600 L1026 600 L1026 0 L1136 0 L1136 700 L307 700 Z " />
<glyph glyph-name="uni041C" unicode="&#x41c;" horiz-adv-x="1450" d="M1223 700 L725 176 L227 700 L122 700 L122 0 L232 0 L232 548 L725 27 L1218 548 L1218 0 L1328 0 L1328 700 L1223 700 Z " />
<glyph glyph-name="uni041D" unicode="&#x41d;" horiz-adv-x="1305" d="M1073 0 L1183 0 L1183 700 L1073 700 L1073 400 L232 400 L232 700 L122 700 L122 0 L232 0 L232 300 L1073 300 L1073 0 Z " />
<glyph glyph-name="uni041E" unicode="&#x41e;" horiz-adv-x="1348" d="M819 -10 C1145 -10 1273 151 1273 350 C1273 549 1145 710 819 710 L529 710 C203 710 75 549 75 350 C75 151 203 -10 529 -10 L819 -10 Z M530 90 C276 90 192 206 192 350 C192 494 276 610 531 610 L818 610 C1072 610 1156 494 1156 350 C1156 206 1072 90 818 90 L530 90 Z " />
<glyph glyph-name="uni041F" unicode="&#x41f;" horiz-adv-x="1305" d="M1073 0 L1183 0 L1183 700 L122 700 L122 0 L232 0 L232 600 L1073 600 L1073 0 Z " />
<glyph glyph-name="uni0420" unicode="&#x420;" horiz-adv-x="1196" d="M122 0 L232 0 L232 260 L885 260 C1087 260 1164 356 1164 480 C1164 601 1087 700 885 700 L122 700 L122 0 Z M883 600 C1012 600 1049 546 1049 480 C1049 412 1012 360 883 360 L232 360 L232 600 L883 600 Z " />
<glyph glyph-name="uni0421" unicode="&#x421;" horiz-adv-x="1184" d="M192 350 C192 488 272 600 517 600 L1104 600 L1104 700 L516 700 C199 700 75 543 75 350 C75 157 199 0 516 0 L1104 0 L1104 100 L517 100 C272 100 192 212 192 350 L192 350 Z " />
<glyph glyph-name="uni0422" unicode="&#x422;" horiz-adv-x="1184" d="M30 600 L537 600 L537 0 L647 0 L647 600 L1154 600 L1154 700 L30 700 L30 600 Z " />
<glyph glyph-name="uni0423" unicode="&#x423;" horiz-adv-x="1254" d="M460 0 L1256 700 L1098 700 L638 290 L162 700 L2 700 L564 221 L303 0 L460 0 Z " />
<glyph glyph-name="uni0424" unicode="&#x424;" horiz-adv-x="1305" d="M884 62 C1148 62 1249 188 1249 350 C1249 508 1148 638 884 638 L707 638 L707 750 L597 750 L597 638 L421 638 C157 638 56 508 56 350 C56 188 157 62 421 62 L597 62 L597 -50 L707 -50 L707 62 L884 62 Z M882 538 C1074 538 1132 453 1132 350 C1132 244 1074 162 882 162 L707 162 L707 538 L882 538 Z M173 350 C173 453 231 538 423 538 L597 538 L597 162 L423 162 C231 162 173 244 173 350 L173 350 Z " />
<glyph glyph-name="uni0425" unicode="&#x425;" horiz-adv-x="1228" d="M19 700 L525 352 L14 0 L190 0 L614 295 L1038 0 L1214 0 L703 352 L1209 700 L1033 700 L614 408 L195 700 L19 700 Z " />
<glyph glyph-name="uni0426" unicode="&#x426;" horiz-adv-x="1298" d="M1036 100 L232 100 L232 700 L122 700 L122 0 L1123 0 L1123 -150 L1233 -150 L1233 100 L1146 100 L1146 700 L1036 700 L1036 100 Z " />
<glyph glyph-name="uni0427" unicode="&#x427;" horiz-adv-x="1226" d="M62 699 L62 458 C62 345 118 256 304 256 L994 256 L994 -1 L1104 -1 L1104 699 L994 699 L994 357 L302 357 C193 357 172 405 172 467 L172 699 L62 699 Z " />
<glyph glyph-name="uni0428" unicode="&#x428;" horiz-adv-x="1599" d="M1367 100 L854 100 L854 700 L744 700 L744 100 L232 100 L232 700 L122 700 L122 0 L1477 0 L1477 700 L1367 700 L1367 100 Z " />
<glyph glyph-name="uni0429" unicode="&#x429;" horiz-adv-x="1593" d="M1331 100 L836 100 L836 700 L726 700 L726 100 L232 100 L232 700 L122 700 L122 0 L1418 0 L1418 -150 L1528 -150 L1528 100 L1441 100 L1441 700 L1331 700 L1331 100 Z " />
<glyph glyph-name="uni042A" unicode="&#x42a;" horiz-adv-x="1354" d="M30 600 L340 600 L340 0 L1043 0 C1245 0 1322 96 1322 220 C1322 341 1245 440 1043 440 L450 440 L450 700 L30 700 L30 600 Z M1040 340 C1170 340 1206 286 1206 220 C1206 152 1169 100 1040 100 L450 100 L450 340 L1040 340 Z " />
<glyph glyph-name="uni042B" unicode="&#x42b;" horiz-adv-x="1550" d="M122 0 L885 0 C1087 0 1164 96 1164 220 C1164 340 1086 440 885 440 L232 440 L232 700 L122 700 L122 0 Z M882 340 C1012 340 1048 286 1048 220 C1048 152 1011 100 882 100 L232 100 L232 340 L882 340 Z M1318 0 L1428 0 L1428 700 L1318 700 L1318 0 Z " />
<glyph glyph-name="uni042C" unicode="&#x42c;" horiz-adv-x="1196" d="M122 0 L885 0 C1087 0 1164 96 1164 220 C1164 340 1086 440 885 440 L232 440 L232 700 L122 700 L122 0 Z M882 340 C1012 340 1048 286 1048 220 C1048 152 1011 100 882 100 L232 100 L232 340 L882 340 Z " />
<glyph glyph-name="uni042D" unicode="&#x42d;" horiz-adv-x="1184" d="M182 305 L991 305 C974 188 883 100 667 100 L80 100 L80 0 L668 0 C985 0 1109 157 1109 350 C1109 543 985 700 668 700 L80 700 L80 600 L667 600 C882 600 974 511 991 395 L182 395 L182 305 Z " />
<glyph glyph-name="uni042E" unicode="&#x42e;" horiz-adv-x="1879" d="M1350 -10 C1676 -10 1804 151 1804 350 C1804 549 1676 710 1350 710 L1110 710 C812 710 680 575 660 400 L232 400 L232 700 L122 700 L122 0 L232 0 L232 300 L660 300 C680 124 812 -10 1110 -10 L1350 -10 Z M1111 90 C857 90 773 206 773 350 C773 494 857 610 1111 610 L1349 610 C1603 610 1687 494 1687 350 C1687 206 1603 90 1349 90 L1111 90 Z " />
<glyph glyph-name="uni042F" unicode="&#x42f;" horiz-adv-x="1278" d="M1172 700 L423 700 C223 700 144 602 144 482 C144 359 223 263 423 263 L473 263 L21 0 L206 0 L646 262 L1062 262 L1062 0 L1172 0 L1172 700 Z M1062 600 L1062 358 L427 358 C298 358 259 412 259 479 C259 545 298 600 427 600 L1062 600 Z " />
<glyph glyph-name="uni0430" unicode="&#x430;" horiz-adv-x="1091" d="M959 0 L1080 0 L598 560 L493 560 L11 0 L133 0 L227 110 L864 110 L959 0 Z M545 480 L798 186 L292 186 L545 480 Z " />
<glyph glyph-name="uni0431" unicode="&#x431;" horiz-adv-x="1063" d="M112 0 L788 0 C944 0 999 70 999 159 C999 249 944 318 788 318 L211 318 L211 474 L943 474 L943 560 L112 560 L112 0 Z M783 242 C874 242 896 207 896 164 C896 121 874 86 783 86 L211 86 L211 242 L783 242 Z " />
<glyph glyph-name="uni0432" unicode="&#x432;" horiz-adv-x="1083" d="M112 0 L819 0 C963 0 1011 65 1011 147 C1011 215 975 272 881 289 C944 312 969 360 969 416 C969 497 921 560 781 560 L112 560 L112 0 Z M793 242 C884 242 905 207 905 164 C905 121 884 86 793 86 L211 86 L211 242 L793 242 Z M757 318 L211 318 L211 474 L753 474 C843 474 866 439 866 396 C866 353 845 318 757 318 L757 318 Z " />
<glyph glyph-name="uni0433" unicode="&#x433;" horiz-adv-x="986" d="M112 0 L211 0 L211 474 L943 474 L943 560 L112 560 L112 0 Z " />
<glyph glyph-name="uni0434" unicode="&#x434;" horiz-adv-x="1086" d="M142 0 L928 0 L928 -120 L1026 -120 L1026 86 L952 86 L952 560 L278 560 L219 168 C212 123 186 86 106 86 L43 86 L43 -120 L142 -120 L142 0 Z M320 191 L363 474 L854 474 L854 86 L260 86 C298 109 313 146 320 191 L320 191 Z " />
<glyph glyph-name="uni0435" unicode="&#x435;" horiz-adv-x="1033" d="M112 0 L960 0 L960 86 L211 86 L211 242 L873 242 L873 318 L211 318 L211 474 L960 474 L960 560 L112 560 L112 0 Z " />
<glyph glyph-name="uni0436" unicode="&#x436;" horiz-adv-x="1401" d="M981 281 L1330 560 L1195 560 L899 323 L749 323 L749 560 L651 560 L651 323 L502 323 L206 560 L71 560 L419 281 L24 0 L168 0 L502 237 L651 237 L651 0 L749 0 L749 237 L898 237 L1230 0 L1377 0 L981 281 Z " />
<glyph glyph-name="uni0437" unicode="&#x437;" horiz-adv-x="1088" d="M64 0 L824 0 C967 0 1016 65 1016 147 C1016 215 980 272 885 289 C948 312 973 360 973 416 C973 497 925 560 785 560 L81 560 L81 474 L762 474 C854 474 875 438 875 396 C875 355 855 318 765 318 L155 318 L155 242 L801 242 C893 242 914 206 914 164 C914 122 893 86 801 86 L64 86 L64 0 Z " />
<glyph glyph-name="uni0438" unicode="&#x438;" horiz-adv-x="1128" d="M211 560 L112 560 L112 0 L206 0 L917 449 L917 0 L1016 0 L1016 560 L922 560 L211 111 L211 560 Z " />
<glyph glyph-name="uni0439" unicode="&#x439;" horiz-adv-x="1128" d="M211 560 L112 560 L112 0 L206 0 L917 449 L917 0 L1016 0 L1016 560 L922 560 L211 111 L211 560 Z M564 714 C487 714 456 752 452 798 L391 798 C396 723 432 643 564 643 C695 643 732 723 737 798 L676 798 C671 752 641 714 564 714 L564 714 Z " />
<glyph glyph-name="uni043A" unicode="&#x43a;" horiz-adv-x="1115" d="M592 283 L1027 560 L871 560 L501 323 L211 323 L211 560 L112 560 L112 0 L211 0 L211 237 L503 237 L935 0 L1103 0 L592 283 Z " />
<glyph glyph-name="uni043B" unicode="&#x43b;" horiz-adv-x="1095" d="M278 560 L219 168 C212 121 184 86 100 86 L43 86 L43 0 L93 0 C250 0 302 68 317 168 L363 474 L885 474 L885 0 L983 0 L983 560 L278 560 Z " />
<glyph glyph-name="uni043C" unicode="&#x43c;" horiz-adv-x="1251" d="M1044 560 L625 149 L206 560 L112 560 L112 0 L211 0 L211 429 L625 20 L1040 429 L1040 0 L1139 0 L1139 560 L1044 560 Z " />
<glyph glyph-name="uni043D" unicode="&#x43d;" horiz-adv-x="1127" d="M916 0 L1015 0 L1015 560 L916 560 L916 323 L211 323 L211 560 L112 560 L112 0 L211 0 L211 237 L916 237 L916 0 Z " />
<glyph glyph-name="uni043E" unicode="&#x43e;" horiz-adv-x="1154" d="M708 -8 C985 -8 1086 121 1086 280 C1086 439 985 568 708 568 L446 568 C169 568 68 439 68 280 C68 121 169 -8 446 -8 L708 -8 Z M447 78 C234 78 172 168 172 280 C172 392 234 482 447 482 L707 482 C920 482 982 392 982 280 C982 168 920 78 707 78 L447 78 Z " />
<glyph glyph-name="uni043F" unicode="&#x43f;" horiz-adv-x="1127" d="M916 0 L1015 0 L1015 560 L112 560 L112 0 L211 0 L211 474 L916 474 L916 0 Z " />
<glyph glyph-name="uni0440" unicode="&#x440;" horiz-adv-x="1041" d="M112 0 L211 0 L211 205 L766 205 C938 205 999 283 999 382 C999 480 938 560 766 560 L112 560 L112 0 Z M764 474 C872 474 896 433 896 382 C896 331 872 291 764 291 L211 291 L211 474 L764 474 Z " />
<glyph glyph-name="uni0441" unicode="&#x441;" horiz-adv-x="1015" d="M173 280 C173 387 230 474 435 474 L943 474 L943 560 L435 560 C165 560 68 434 68 280 C68 126 165 0 435 0 L943 0 L943 86 L435 86 C230 86 173 173 173 280 L173 280 Z " />
<glyph glyph-name="uni0442" unicode="&#x442;" horiz-adv-x="1041" d="M43 474 L471 474 L471 0 L570 0 L570 474 L998 474 L998 560 L43 560 L43 474 Z " />
<glyph glyph-name="uni0443" unicode="&#x443;" horiz-adv-x="1067" d="M396 0 L1069 560 L926 560 L543 238 L145 560 L2 560 L476 178 L254 0 L396 0 Z " />
<glyph glyph-name="uni0444" unicode="&#x444;" horiz-adv-x="1129" d="M768 50 C992 50 1072 150 1072 280 C1072 406 992 510 768 510 L613 510 L613 600 L515 600 L515 510 L361 510 C137 510 57 406 57 280 C57 150 137 50 361 50 L515 50 L515 -40 L613 -40 L613 50 L768 50 Z M766 424 C924 424 969 359 969 280 C969 199 924 136 766 136 L613 136 L613 424 L766 424 Z M161 280 C161 359 205 424 363 424 L515 424 L515 136 L363 136 C205 136 161 199 161 280 L161 280 Z " />
<glyph glyph-name="uni0445" unicode="&#x445;" horiz-adv-x="1064" d="M24 560 L454 282 L19 0 L180 0 L532 232 L884 0 L1046 0 L611 282 L1042 560 L880 560 L532 332 L185 560 L24 560 Z " />
<glyph glyph-name="uni0446" unicode="&#x446;" horiz-adv-x="1117" d="M885 86 L211 86 L211 560 L112 560 L112 0 L959 0 L959 -120 L1057 -120 L1057 86 L983 86 L983 560 L885 560 L885 86 Z " />
<glyph glyph-name="uni0447" unicode="&#x447;" horiz-adv-x="1057" d="M59 559 L59 365 C59 272 104 202 263 202 L847 202 L847 -1 L945 -1 L945 559 L847 559 L847 288 L259 288 C173 288 157 325 157 372 L157 559 L59 559 Z " />
<glyph glyph-name="uni0448" unicode="&#x448;" horiz-adv-x="1377" d="M1167 86 L737 86 L737 560 L639 560 L639 86 L211 86 L211 560 L112 560 L112 0 L1265 0 L1265 560 L1167 560 L1167 86 Z " />
<glyph glyph-name="uni0449" unicode="&#x449;" horiz-adv-x="1368" d="M1136 86 L722 86 L722 560 L624 560 L624 86 L211 86 L211 560 L112 560 L112 0 L1210 0 L1210 -120 L1308 -120 L1308 86 L1234 86 L1234 560 L1136 560 L1136 86 Z " />
<glyph glyph-name="uni044A" unicode="&#x44a;" horiz-adv-x="1184" d="M43 474 L306 474 L306 0 L909 0 C1081 0 1142 77 1142 178 C1142 275 1082 355 909 355 L405 355 L405 560 L43 560 L43 474 Z M846 86 L405 86 L405 269 L906 269 C1015 269 1039 228 1039 178 C1039 126 1014 86 906 86 L846 86 Z " />
<glyph glyph-name="uni044B" unicode="&#x44b;" horiz-adv-x="1364" d="M112 0 L766 0 C938 0 999 77 999 178 C999 275 938 355 766 355 L211 355 L211 560 L112 560 L112 0 Z M763 269 C872 269 896 228 896 178 C896 126 871 86 763 86 L211 86 L211 269 L763 269 Z M1153 0 L1252 0 L1252 560 L1153 560 L1153 0 Z " />
<glyph glyph-name="uni044C" unicode="&#x44c;" horiz-adv-x="1041" d="M112 0 L766 0 C938 0 999 77 999 178 C999 275 938 355 766 355 L211 355 L211 560 L112 560 L112 0 Z M763 269 C872 269 896 228 896 178 C896 126 871 86 763 86 L211 86 L211 269 L763 269 Z " />
<glyph glyph-name="uni044D" unicode="&#x44d;" horiz-adv-x="1016" d="M846 242 C832 153 761 86 581 86 L73 86 L73 0 L581 0 C851 0 948 126 948 280 C948 434 851 560 581 560 L73 560 L73 474 L581 474 C761 474 832 407 846 318 L160 318 L160 242 L846 242 Z " />
<glyph glyph-name="uni044E" unicode="&#x44e;" horiz-adv-x="1611" d="M944 -8 L1165 -8 C1442 -8 1543 121 1543 280 C1543 439 1442 568 1165 568 L944 568 C692 568 586 461 568 323 L211 323 L211 560 L112 560 L112 0 L211 0 L211 237 L568 237 C586 98 692 -8 944 -8 L944 -8 Z M1164 482 C1377 482 1438 392 1438 280 C1438 168 1377 78 1164 78 L945 78 C732 78 671 168 671 280 C671 392 732 482 945 482 L1164 482 Z " />
<glyph glyph-name="uni044F" unicode="&#x44f;" horiz-adv-x="1106" d="M994 560 L351 560 C181 560 119 481 119 384 C119 285 181 208 351 208 L392 208 L14 0 L180 0 L548 207 L895 207 L895 0 L994 0 L994 560 Z M895 474 L895 289 L355 289 C248 289 222 330 222 382 C222 432 248 474 355 474 L895 474 Z " />
<glyph glyph-name="uni0450" unicode="&#x450;" horiz-adv-x="1033" d="M112 0 L960 0 L960 86 L211 86 L211 242 L873 242 L873 318 L211 318 L211 474 L960 474 L960 560 L112 560 L112 0 Z M501 806 L375 806 L535 635 L606 635 L501 806 Z " />
<glyph glyph-name="uni0451" unicode="&#x451;" horiz-adv-x="1033" d="M112 0 L960 0 L960 86 L211 86 L211 242 L873 242 L873 318 L211 318 L211 474 L960 474 L960 560 L112 560 L112 0 Z M610 666 L718 666 L718 773 L610 773 L610 666 Z M338 666 L445 666 L445 773 L338 773 L338 666 Z " />
<glyph glyph-name="uni0452" unicode="&#x452;" horiz-adv-x="1184" d="M654 0 L931 0 C1087 0 1142 70 1142 159 C1142 249 1087 318 931 318 L405 318 L405 474 L831 474 L831 560 L43 560 L43 474 L306 474 L306 -1 L405 -1 L405 242 L926 242 C1017 242 1039 207 1039 164 C1039 121 1017 86 926 86 L654 86 L654 0 Z " />
<glyph glyph-name="uni0453" unicode="&#x453;" horiz-adv-x="986" d="M112 0 L211 0 L211 474 L943 474 L943 560 L112 560 L112 0 Z M454 635 L525 635 L685 806 L559 806 L454 635 Z " />
<glyph glyph-name="uni0454" unicode="&#x454;" horiz-adv-x="1016" d="M856 242 L856 318 L170 318 C184 407 255 474 435 474 L943 474 L943 560 L435 560 C165 560 68 434 68 280 C68 126 165 0 435 0 L943 0 L943 86 L435 86 C255 86 184 153 170 242 L856 242 Z " />
<glyph glyph-name="uni0455" unicode="&#x455;" horiz-adv-x="1032" d="M98 0 L758 0 C914 0 968 70 968 159 C968 249 914 318 758 318 L279 318 C189 318 167 353 167 396 C167 439 189 474 279 474 L934 474 L934 560 L274 560 C118 560 64 490 64 401 C64 311 118 242 274 242 L753 242 C843 242 865 207 865 164 C865 121 844 86 753 86 L98 86 L98 0 Z " />
<glyph glyph-name="uni0456" unicode="&#x456;" horiz-adv-x="323" d="M112 0 L211 0 L211 560 L112 560 L112 0 Z " />
<glyph glyph-name="uni0457" unicode="&#x457;" horiz-adv-x="323" d="M112 0 L211 0 L211 560 L112 560 L112 0 Z M244 666 L352 666 L352 773 L244 773 L244 666 Z M-28 666 L79 666 L79 773 L-28 773 L-28 666 Z " />
<glyph glyph-name="uni0458" unicode="&#x458;" horiz-adv-x="1042" d="M328 -4 L600 -4 C870 -4 950 106 950 260 L950 560 L852 560 L852 260 C852 155 802 82 600 82 L329 82 C179 82 141 144 141 220 L141 262 L42 262 L42 220 C42 97 112 -4 328 -4 L328 -4 Z " />
<glyph glyph-name="uni0459" unicode="&#x459;" horiz-adv-x="1616" d="M277 560 L218 168 C211 121 184 86 100 86 L43 86 L43 0 L93 0 C250 0 302 68 317 168 L363 474 L778 474 L778 0 L1341 0 C1513 0 1574 77 1574 178 C1574 275 1514 355 1341 355 L876 355 L876 560 L277 560 Z M1338 269 C1447 269 1471 228 1471 178 C1471 126 1447 86 1338 86 L876 86 L876 269 L1338 269 Z " />
<glyph glyph-name="uni045A" unicode="&#x45a;" horiz-adv-x="1619" d="M781 0 L1344 0 C1516 0 1577 77 1577 178 C1577 275 1516 355 1344 355 L879 355 L879 560 L781 560 L781 355 L211 355 L211 560 L112 560 L112 0 L211 0 L211 269 L781 269 L781 0 Z M1341 269 C1450 269 1474 228 1474 178 C1474 126 1450 86 1341 86 L879 86 L879 269 L1341 269 Z " />
<glyph glyph-name="uni045B" unicode="&#x45b;" horiz-adv-x="1201" d="M1142 -1 L1142 153 C1142 245 1099 316 940 316 L405 316 L405 474 L831 474 L831 560 L43 560 L43 474 L306 474 L306 -1 L405 -1 L405 231 L943 231 C1028 231 1043 193 1043 146 L1043 -1 L1142 -1 Z " />
<glyph glyph-name="uni045C" unicode="&#x45c;" horiz-adv-x="1115" d="M592 283 L1027 560 L871 560 L501 323 L211 323 L211 560 L112 560 L112 0 L211 0 L211 237 L503 237 L935 0 L1103 0 L592 283 Z M418 635 L489 635 L649 806 L523 806 L418 635 Z " />
<glyph glyph-name="uni045D" unicode="&#x45d;" horiz-adv-x="1128" d="M211 560 L112 560 L112 0 L206 0 L917 449 L917 0 L1016 0 L1016 560 L922 560 L211 111 L211 560 Z M536 806 L410 806 L570 635 L641 635 L536 806 Z " />
<glyph glyph-name="uni045E" unicode="&#x45e;" horiz-adv-x="1067" d="M396 0 L1069 560 L926 560 L543 238 L145 560 L2 560 L476 178 L254 0 L396 0 Z M544 714 C467 714 436 752 432 798 L371 798 C376 723 412 643 544 643 C675 643 712 723 717 798 L656 798 C651 752 621 714 544 714 L544 714 Z " />
<glyph glyph-name="uni045F" unicode="&#x45f;" horiz-adv-x="1127" d="M916 86 L211 86 L211 560 L112 560 L112 0 L515 0 L515 -120 L613 -120 L613 0 L1015 0 L1015 560 L916 560 L916 86 Z " />
<glyph glyph-name="uni0490" unicode="&#x490;" horiz-adv-x="1129" d="M989 700 L122 700 L122 0 L232 0 L232 600 L1099 600 L1099 850 L989 850 L989 700 Z " />
<glyph glyph-name="uni0491" unicode="&#x491;" horiz-adv-x="986" d="M845 560 L112 560 L112 0 L211 0 L211 474 L943 474 L943 680 L845 680 L845 560 Z " />
<glyph glyph-name="uni1E00" unicode="&#x1e00;" horiz-adv-x="1276" d="M580 -160 C580 -128 606 -103 638 -103 C670 -103 696 -128 696 -160 C696 -192 670 -217 638 -217 C606 -217 580 -192 580 -160 L580 -160 Z M517 -160 C517 -223 568 -272 638 -272 C708 -272 759 -223 759 -160 C759 -97 708 -48 638 -48 C568 -48 517 -97 517 -160 L517 -160 Z M1130 0 L1266 0 L697 700 L579 700 L10 0 L146 0 L253 132 L1023 132 L1130 0 Z M638 607 L949 223 L327 223 L638 607 Z " />
<glyph glyph-name="uni1E01" unicode="&#x1e01;" horiz-adv-x="1091" d="M487 -160 C487 -128 513 -103 545 -103 C577 -103 603 -128 603 -160 C603 -192 577 -217 545 -217 C513 -217 487 -192 487 -160 L487 -160 Z M424 -160 C424 -223 475 -272 545 -272 C615 -272 666 -223 666 -160 C666 -97 615 -48 545 -48 C475 -48 424 -97 424 -160 L424 -160 Z M959 0 L1080 0 L598 560 L493 560 L11 0 L133 0 L227 110 L864 110 L959 0 Z M545 480 L798 186 L292 186 L545 480 Z " />
<glyph glyph-name="uni1E02" unicode="&#x1e02;" horiz-adv-x="1259" d="M122 0 L946 0 C1114 0 1179 82 1179 184 C1179 269 1134 340 1021 361 C1097 389 1129 450 1129 520 C1129 621 1065 700 900 700 L122 700 L122 0 Z M918 305 C1029 305 1062 258 1062 202 C1062 147 1029 100 918 100 L232 100 L232 305 L918 305 Z M1016 498 C1016 443 984 395 877 395 L232 395 L232 600 L872 600 C981 600 1016 554 1016 498 L1016 498 Z M550 806 L658 806 L658 913 L550 913 L550 806 Z " />
<glyph glyph-name="uni1E03" unicode="&#x1e03;" horiz-adv-x="1083" d="M112 0 L819 0 C963 0 1011 65 1011 147 C1011 215 975 272 881 289 C944 312 969 360 969 416 C969 497 921 560 781 560 L112 560 L112 0 Z M793 242 C884 242 905 207 905 164 C905 121 884 86 793 86 L211 86 L211 242 L793 242 Z M757 318 L211 318 L211 474 L753 474 C843 474 866 439 866 396 C866 353 845 318 757 318 L757 318 Z M462 666 L570 666 L570 773 L462 773 L462 666 Z " />
<glyph glyph-name="uni1E04" unicode="&#x1e04;" horiz-adv-x="1259" d="M590 -215 L698 -215 L698 -108 L590 -108 L590 -215 Z M122 0 L946 0 C1114 0 1179 82 1179 184 C1179 269 1134 340 1021 361 C1097 389 1129 450 1129 520 C1129 621 1065 700 900 700 L122 700 L122 0 Z M918 305 C1029 305 1062 258 1062 202 C1062 147 1029 100 918 100 L232 100 L232 305 L918 305 Z M1016 498 C1016 443 984 395 877 395 L232 395 L232 600 L872 600 C981 600 1016 554 1016 498 L1016 498 Z " />
<glyph glyph-name="uni1E05" unicode="&#x1e05;" horiz-adv-x="1083" d="M502 -215 L610 -215 L610 -108 L502 -108 L502 -215 Z M112 0 L819 0 C963 0 1011 65 1011 147 C1011 215 975 272 881 289 C944 312 969 360 969 416 C969 497 921 560 781 560 L112 560 L112 0 Z M793 242 C884 242 905 207 905 164 C905 121 884 86 793 86 L211 86 L211 242 L793 242 Z M757 318 L211 318 L211 474 L753 474 C843 474 866 439 866 396 C866 353 845 318 757 318 L757 318 Z " />
<glyph glyph-name="uni1E06" unicode="&#x1e06;" horiz-adv-x="1259" d="M460 -197 L828 -197 L828 -125 L460 -125 L460 -197 Z M122 0 L946 0 C1114 0 1179 82 1179 184 C1179 269 1134 340 1021 361 C1097 389 1129 450 1129 520 C1129 621 1065 700 900 700 L122 700 L122 0 Z M918 305 C1029 305 1062 258 1062 202 C1062 147 1029 100 918 100 L232 100 L232 305 L918 305 Z M1016 498 C1016 443 984 395 877 395 L232 395 L232 600 L872 600 C981 600 1016 554 1016 498 L1016 498 Z " />
<glyph glyph-name="uni1E07" unicode="&#x1e07;" horiz-adv-x="1083" d="M372 -197 L740 -197 L740 -125 L372 -125 L372 -197 Z M112 0 L819 0 C963 0 1011 65 1011 147 C1011 215 975 272 881 289 C944 312 969 360 969 416 C969 497 921 560 781 560 L112 560 L112 0 Z M793 242 C884 242 905 207 905 164 C905 121 884 86 793 86 L211 86 L211 242 L793 242 Z M757 318 L211 318 L211 474 L753 474 C843 474 866 439 866 396 C866 353 845 318 757 318 L757 318 Z " />
<glyph glyph-name="uni1E08" unicode="&#x1e08;" horiz-adv-x="1184" d="M586 -115 L615 -115 C676 -116 708 -127 708 -166 C708 -235 562 -222 518 -196 L518 -245 C591 -282 786 -297 786 -169 C786 -88 719 -70 641 -70 L640 -70 L658 0 L1104 0 L1104 100 L517 100 C272 100 192 212 192 350 C192 488 272 600 517 600 L1104 600 L1104 700 L516 700 C199 700 75 543 75 350 C75 157 199 0 516 0 L617 0 L586 -115 Z M564 775 L635 775 L795 946 L669 946 L564 775 Z " />
<glyph glyph-name="uni1E09" unicode="&#x1e09;" horiz-adv-x="1015" d="M492 -115 L521 -115 C582 -116 614 -127 614 -166 C614 -235 468 -222 424 -196 L424 -245 C497 -282 692 -297 692 -169 C692 -88 625 -70 547 -70 L546 -70 L564 0 L943 0 L943 86 L435 86 C230 86 173 173 173 280 C173 387 230 474 435 474 L943 474 L943 560 L435 560 C165 560 68 434 68 280 C68 126 165 0 435 0 L523 0 L492 -115 Z M470 635 L541 635 L701 806 L575 806 L470 635 Z " />
<glyph glyph-name="uni1E0A" unicode="&#x1e0a;" horiz-adv-x="1255" d="M122 0 L739 0 C1056 0 1180 157 1180 350 C1180 543 1056 700 739 700 L122 700 L122 0 Z M738 600 C983 600 1063 488 1063 350 C1063 212 983 100 738 100 L232 100 L232 600 L738 600 Z M559 806 L667 806 L667 913 L559 913 L559 806 Z " />
<glyph glyph-name="uni1E0B" unicode="&#x1e0b;" horiz-adv-x="1080" d="M477 666 L585 666 L585 773 L477 773 L477 666 Z M112 0 L645 0 C915 0 1012 126 1012 280 C1012 434 915 560 645 560 L112 560 L112 0 Z M645 474 C850 474 908 387 908 280 C908 173 850 86 645 86 L211 86 L211 474 L645 474 Z " />
<glyph glyph-name="uni1E0C" unicode="&#x1e0c;" horiz-adv-x="1255" d="M122 0 L739 0 C1056 0 1180 157 1180 350 C1180 543 1056 700 739 700 L122 700 L122 0 Z M738 600 C983 600 1063 488 1063 350 C1063 212 983 100 738 100 L232 100 L232 600 L738 600 Z M559 -215 L667 -215 L667 -108 L559 -108 L559 -215 Z " />
<glyph glyph-name="uni1E0D" unicode="&#x1e0d;" horiz-adv-x="1080" d="M112 0 L645 0 C915 0 1012 126 1012 280 C1012 434 915 560 645 560 L112 560 L112 0 Z M645 474 C850 474 908 387 908 280 C908 173 850 86 645 86 L211 86 L211 474 L645 474 Z M477 -215 L585 -215 L585 -108 L477 -108 L477 -215 Z " />
<glyph glyph-name="uni1E0E" unicode="&#x1e0e;" horiz-adv-x="1255" d="M122 0 L739 0 C1056 0 1180 157 1180 350 C1180 543 1056 700 739 700 L122 700 L122 0 Z M738 600 C983 600 1063 488 1063 350 C1063 212 983 100 738 100 L232 100 L232 600 L738 600 Z M429 -197 L797 -197 L797 -125 L429 -125 L429 -197 Z " />
<glyph glyph-name="uni1E0F" unicode="&#x1e0f;" horiz-adv-x="1080" d="M112 0 L645 0 C915 0 1012 126 1012 280 C1012 434 915 560 645 560 L112 560 L112 0 Z M645 474 C850 474 908 387 908 280 C908 173 850 86 645 86 L211 86 L211 474 L645 474 Z M347 -197 L715 -197 L715 -125 L347 -125 L347 -197 Z " />
<glyph glyph-name="uni1E10" unicode="&#x1e10;" horiz-adv-x="1255" d="M122 0 L739 0 C1056 0 1180 157 1180 350 C1180 543 1056 700 739 700 L122 700 L122 0 Z M738 600 C983 600 1063 488 1063 350 C1063 212 983 100 738 100 L232 100 L232 600 L738 600 Z M564 -215 L606 -215 L554 -326 L604 -326 L672 -207 L672 -108 L564 -108 L564 -215 Z " />
<glyph glyph-name="uni1E11" unicode="&#x1e11;" horiz-adv-x="1080" d="M112 0 L645 0 C915 0 1012 126 1012 280 C1012 434 915 560 645 560 L112 560 L112 0 Z M645 474 C850 474 908 387 908 280 C908 173 850 86 645 86 L211 86 L211 474 L645 474 Z M482 -215 L524 -215 L472 -326 L522 -326 L590 -207 L590 -108 L482 -108 L482 -215 Z " />
<glyph glyph-name="uni1E12" unicode="&#x1e12;" horiz-adv-x="1255" d="M122 0 L739 0 C1056 0 1180 157 1180 350 C1180 543 1056 700 739 700 L122 700 L122 0 Z M738 600 C983 600 1063 488 1063 350 C1063 212 983 100 738 100 L232 100 L232 600 L738 600 Z M677 -75 L548 -75 L428 -246 L499 -246 L613 -131 L726 -246 L797 -246 L677 -75 Z " />
<glyph glyph-name="uni1E13" unicode="&#x1e13;" horiz-adv-x="1080" d="M112 0 L645 0 C915 0 1012 126 1012 280 C1012 434 915 560 645 560 L112 560 L112 0 Z M645 474 C850 474 908 387 908 280 C908 173 850 86 645 86 L211 86 L211 474 L645 474 Z M595 -75 L466 -75 L346 -246 L417 -246 L531 -131 L644 -246 L715 -246 L595 -75 Z " />
<glyph glyph-name="uni1E14" unicode="&#x1e14;" horiz-adv-x="1199" d="M122 0 L1119 0 L1119 100 L232 100 L232 305 L1017 305 L1017 395 L232 395 L232 600 L1119 600 L1119 700 L122 700 L122 0 Z M425 824 L793 824 L793 896 L425 896 L425 824 Z M581 1131 L455 1131 L615 960 L686 960 L581 1131 Z " />
<glyph glyph-name="uni1E15" unicode="&#x1e15;" horiz-adv-x="1033" d="M112 0 L960 0 L960 86 L211 86 L211 242 L873 242 L873 318 L211 318 L211 474 L960 474 L960 560 L112 560 L112 0 Z M344 684 L712 684 L712 756 L344 756 L344 684 Z M500 991 L374 991 L534 820 L605 820 L500 991 Z " />
<glyph glyph-name="uni1E16" unicode="&#x1e16;" horiz-adv-x="1199" d="M122 0 L1119 0 L1119 100 L232 100 L232 305 L1017 305 L1017 395 L232 395 L232 600 L1119 600 L1119 700 L122 700 L122 0 Z M425 824 L793 824 L793 896 L425 896 L425 824 Z M531 960 L602 960 L762 1131 L636 1131 L531 960 Z " />
<glyph glyph-name="uni1E17" unicode="&#x1e17;" horiz-adv-x="1033" d="M112 0 L960 0 L960 86 L211 86 L211 242 L873 242 L873 318 L211 318 L211 474 L960 474 L960 560 L112 560 L112 0 Z M344 684 L712 684 L712 756 L344 756 L344 684 Z M450 820 L521 820 L681 991 L555 991 L450 820 Z " />
<glyph glyph-name="uni1E18" unicode="&#x1e18;" horiz-adv-x="1199" d="M122 0 L1119 0 L1119 100 L232 100 L232 305 L1017 305 L1017 395 L232 395 L232 600 L1119 600 L1119 700 L122 700 L122 0 Z M674 -75 L545 -75 L425 -246 L496 -246 L610 -131 L723 -246 L794 -246 L674 -75 Z " />
<glyph glyph-name="uni1E19" unicode="&#x1e19;" horiz-adv-x="1033" d="M112 0 L960 0 L960 86 L211 86 L211 242 L873 242 L873 318 L211 318 L211 474 L960 474 L960 560 L112 560 L112 0 Z M593 -75 L464 -75 L344 -246 L415 -246 L529 -131 L642 -246 L713 -246 L593 -75 Z " />
<glyph glyph-name="uni1E1A" unicode="&#x1e1a;" horiz-adv-x="1199" d="M122 0 L1119 0 L1119 100 L232 100 L232 305 L1017 305 L1017 395 L232 395 L232 600 L1119 600 L1119 700 L122 700 L122 0 Z M732 -87 C728 -139 711 -150 685 -150 C642 -150 598 -94 535 -94 C477 -94 439 -127 433 -235 L488 -235 C492 -183 509 -171 535 -171 C578 -171 621 -228 685 -228 C743 -228 782 -195 787 -87 L732 -87 Z " />
<glyph glyph-name="uni1E1B" unicode="&#x1e1b;" horiz-adv-x="1033" d="M112 0 L960 0 L960 86 L211 86 L211 242 L873 242 L873 318 L211 318 L211 474 L960 474 L960 560 L112 560 L112 0 Z M651 -87 C647 -139 630 -150 604 -150 C561 -150 517 -94 454 -94 C396 -94 358 -127 352 -235 L407 -235 C411 -183 428 -171 454 -171 C497 -171 540 -228 604 -228 C662 -228 701 -195 706 -87 L651 -87 Z " />
<glyph glyph-name="uni1E1C" unicode="&#x1e1c;" horiz-adv-x="1199" d="M122 0 L584 0 L553 -115 L582 -115 C643 -116 675 -127 675 -166 C675 -235 529 -222 485 -196 L485 -245 C558 -282 753 -297 753 -169 C753 -88 686 -70 608 -70 L607 -70 L625 0 L1119 0 L1119 100 L232 100 L232 305 L1017 305 L1017 395 L232 395 L232 600 L1119 600 L1119 700 L122 700 L122 0 Z M609 854 C532 854 501 892 497 938 L436 938 C441 863 477 783 609 783 C740 783 777 863 782 938 L721 938 C716 892 686 854 609 854 L609 854 Z " />
<glyph glyph-name="uni1E1D" unicode="&#x1e1d;" horiz-adv-x="1033" d="M112 0 L503 0 L472 -115 L501 -115 C562 -116 594 -127 594 -166 C594 -235 448 -222 404 -196 L404 -245 C477 -282 672 -297 672 -169 C672 -88 605 -70 527 -70 L526 -70 L544 0 L960 0 L960 86 L211 86 L211 242 L873 242 L873 318 L211 318 L211 474 L960 474 L960 560 L112 560 L112 0 Z M528 714 C451 714 420 752 416 798 L355 798 C360 723 396 643 528 643 C659 643 696 723 701 798 L640 798 C635 752 605 714 528 714 L528 714 Z " />
<glyph glyph-name="uni1E1E" unicode="&#x1e1e;" horiz-adv-x="1159" d="M122 0 L232 0 L232 293 L1017 293 L1017 393 L232 393 L232 600 L1119 600 L1119 700 L122 700 L122 0 Z M545 806 L653 806 L653 913 L545 913 L545 806 Z " />
<glyph glyph-name="uni1E1F" unicode="&#x1e1f;" horiz-adv-x="1016" d="M112 0 L211 0 L211 231 L873 231 L873 317 L211 317 L211 474 L960 474 L960 560 L112 560 L112 0 Z M469 666 L577 666 L577 773 L469 773 L469 666 Z " />
<glyph glyph-name="uni1E20" unicode="&#x1e20;" horiz-adv-x="1256" d="M664 305 L1051 305 L1051 100 L517 100 C272 100 192 212 192 350 C192 488 272 600 517 600 L1104 600 L1104 700 L516 700 C199 700 75 543 75 350 C75 157 199 0 516 0 L1159 0 L1159 395 L664 395 L664 305 Z M468 824 L836 824 L836 896 L468 896 L468 824 Z " />
<glyph glyph-name="uni1E21" unicode="&#x1e21;" horiz-adv-x="1080" d="M568 242 L893 242 L893 86 L435 86 C230 86 173 173 173 280 C173 387 230 474 435 474 L943 474 L943 560 L435 560 C165 560 68 434 68 280 C68 126 165 0 435 0 L990 0 L990 318 L568 318 L568 242 Z M368 684 L736 684 L736 756 L368 756 L368 684 Z " />
<glyph glyph-name="uni1E22" unicode="&#x1e22;" horiz-adv-x="1305" d="M1073 0 L1183 0 L1183 700 L1073 700 L1073 400 L232 400 L232 700 L122 700 L122 0 L232 0 L232 300 L1073 300 L1073 0 Z M598 806 L706 806 L706 913 L598 913 L598 806 Z " />
<glyph glyph-name="uni1E23" unicode="&#x1e23;" horiz-adv-x="1127" d="M916 0 L1015 0 L1015 560 L916 560 L916 323 L211 323 L211 560 L112 560 L112 0 L211 0 L211 237 L916 237 L916 0 Z M509 666 L617 666 L617 773 L509 773 L509 666 Z " />
<glyph glyph-name="uni1E24" unicode="&#x1e24;" horiz-adv-x="1305" d="M598 -215 L706 -215 L706 -108 L598 -108 L598 -215 Z M1073 0 L1183 0 L1183 700 L1073 700 L1073 400 L232 400 L232 700 L122 700 L122 0 L232 0 L232 300 L1073 300 L1073 0 Z " />
<glyph glyph-name="uni1E25" unicode="&#x1e25;" horiz-adv-x="1127" d="M509 -215 L617 -215 L617 -108 L509 -108 L509 -215 Z M916 0 L1015 0 L1015 560 L916 560 L916 323 L211 323 L211 560 L112 560 L112 0 L211 0 L211 237 L916 237 L916 0 Z " />
<glyph glyph-name="uni1E26" unicode="&#x1e26;" horiz-adv-x="1305" d="M1073 0 L1183 0 L1183 700 L1073 700 L1073 400 L232 400 L232 700 L122 700 L122 0 L232 0 L232 300 L1073 300 L1073 0 Z M734 806 L842 806 L842 913 L734 913 L734 806 Z M462 806 L569 806 L569 913 L462 913 L462 806 Z " />
<glyph glyph-name="uni1E27" unicode="&#x1e27;" horiz-adv-x="1127" d="M916 0 L1015 0 L1015 560 L916 560 L916 323 L211 323 L211 560 L112 560 L112 0 L211 0 L211 237 L916 237 L916 0 Z M645 666 L753 666 L753 773 L645 773 L645 666 Z M373 666 L480 666 L480 773 L373 773 L373 666 Z " />
<glyph glyph-name="uni1E28" unicode="&#x1e28;" horiz-adv-x="1305" d="M121 -115 L150 -115 C211 -116 243 -127 243 -166 C243 -235 97 -222 53 -196 L53 -245 C126 -282 321 -297 321 -169 C321 -88 254 -70 176 -70 L175 -70 L193 0 L232 0 L232 300 L1073 300 L1073 0 L1183 0 L1183 700 L1073 700 L1073 400 L232 400 L232 700 L122 700 L122 0 L152 0 L121 -115 Z " />
<glyph glyph-name="uni1E29" unicode="&#x1e29;" horiz-adv-x="1127" d="M105 -115 L134 -115 C195 -116 227 -127 227 -166 C227 -235 81 -222 37 -196 L37 -245 C110 -282 305 -297 305 -169 C305 -88 238 -70 160 -70 L159 -70 L177 0 L211 0 L211 237 L916 237 L916 0 L1015 0 L1015 560 L916 560 L916 323 L211 323 L211 560 L112 560 L112 0 L136 0 L105 -115 Z " />
<glyph glyph-name="uni1E2A" unicode="&#x1e2a;" horiz-adv-x="1305" d="M652 -167 C575 -167 544 -129 540 -83 L479 -83 C484 -158 520 -238 652 -238 C783 -238 820 -158 825 -83 L764 -83 C759 -129 729 -167 652 -167 L652 -167 Z M1073 0 L1183 0 L1183 700 L1073 700 L1073 400 L232 400 L232 700 L122 700 L122 0 L232 0 L232 300 L1073 300 L1073 0 Z " />
<glyph glyph-name="uni1E2B" unicode="&#x1e2b;" horiz-adv-x="1127" d="M563 -167 C486 -167 455 -129 451 -83 L390 -83 C395 -158 431 -238 563 -238 C694 -238 731 -158 736 -83 L675 -83 C670 -129 640 -167 563 -167 L563 -167 Z M916 0 L1015 0 L1015 560 L916 560 L916 323 L211 323 L211 560 L112 560 L112 0 L211 0 L211 237 L916 237 L916 0 Z " />
<glyph glyph-name="uni1E2C" unicode="&#x1e2c;" horiz-adv-x="354" d="M299 -87 C295 -139 278 -150 252 -150 C209 -150 165 -94 102 -94 C44 -94 6 -127 0 -235 L55 -235 C59 -183 76 -171 102 -171 C145 -171 188 -228 252 -228 C310 -228 349 -195 354 -87 L299 -87 Z M122 0 L232 0 L232 700 L122 700 L122 0 Z " />
<glyph glyph-name="uni1E2D" unicode="&#x1e2d;" horiz-adv-x="323" d="M284 -87 C280 -139 263 -150 237 -150 C194 -150 150 -94 87 -94 C29 -94 -9 -127 -15 -235 L40 -235 C44 -183 61 -171 87 -171 C130 -171 173 -228 237 -228 C295 -228 334 -195 339 -87 L284 -87 Z M112 0 L211 0 L211 560 L112 560 L112 0 Z " />
<glyph glyph-name="uni1E2E" unicode="&#x1e2e;" horiz-adv-x="354" d="M122 0 L232 0 L232 700 L122 700 L122 0 Z M259 806 L367 806 L367 913 L259 913 L259 806 Z M-13 806 L94 806 L94 913 L-13 913 L-13 806 Z M99 966 L170 966 L330 1137 L204 1137 L99 966 Z " />
<glyph glyph-name="uni1E2F" unicode="&#x1e2f;" horiz-adv-x="323" d="M112 0 L211 0 L211 560 L112 560 L112 0 Z M244 666 L352 666 L352 773 L244 773 L244 666 Z M-28 666 L79 666 L79 773 L-28 773 L-28 666 Z M84 826 L155 826 L315 997 L189 997 L84 826 Z " />
<glyph glyph-name="uni1E30" unicode="&#x1e30;" horiz-adv-x="1292" d="M1196 700 L1003 700 L232 254 L232 700 L122 700 L122 0 L232 0 L232 144 L547 326 L1098 0 L1287 0 L645 382 L1196 700 Z M528 775 L599 775 L759 946 L633 946 L528 775 Z " />
<glyph glyph-name="uni1E31" unicode="&#x1e31;" horiz-adv-x="1114" d="M1033 560 L853 560 L211 210 L211 560 L112 560 L112 0 L211 0 L211 114 L476 258 L934 0 L1104 0 L564 305 L1033 560 Z M444 635 L515 635 L675 806 L549 806 L444 635 Z " />
<glyph glyph-name="uni1E32" unicode="&#x1e32;" horiz-adv-x="1292" d="M1196 700 L1003 700 L232 254 L232 700 L122 700 L122 0 L232 0 L232 144 L547 326 L1098 0 L1287 0 L645 382 L1196 700 Z M588 -215 L696 -215 L696 -108 L588 -108 L588 -215 Z " />
<glyph glyph-name="uni1E33" unicode="&#x1e33;" horiz-adv-x="1114" d="M1033 560 L853 560 L211 210 L211 560 L112 560 L112 0 L211 0 L211 114 L476 258 L934 0 L1104 0 L564 305 L1033 560 Z M499 -215 L607 -215 L607 -108 L499 -108 L499 -215 Z " />
<glyph glyph-name="uni1E34" unicode="&#x1e34;" horiz-adv-x="1292" d="M1196 700 L1003 700 L232 254 L232 700 L122 700 L122 0 L232 0 L232 144 L547 326 L1098 0 L1287 0 L645 382 L1196 700 Z M458 -197 L826 -197 L826 -125 L458 -125 L458 -197 Z " />
<glyph glyph-name="uni1E35" unicode="&#x1e35;" horiz-adv-x="1114" d="M1033 560 L853 560 L211 210 L211 560 L112 560 L112 0 L211 0 L211 114 L476 258 L934 0 L1104 0 L564 305 L1033 560 Z M369 -197 L737 -197 L737 -125 L369 -125 L369 -197 Z " />
<glyph glyph-name="uni1E36" unicode="&#x1e36;" horiz-adv-x="1129" d="M232 700 L122 700 L122 0 L1099 0 L1099 100 L232 100 L232 700 Z M553 -215 L661 -215 L661 -108 L553 -108 L553 -215 Z " />
<glyph glyph-name="uni1E37" unicode="&#x1e37;" horiz-adv-x="986" d="M211 560 L112 560 L112 0 L943 0 L943 86 L211 86 L211 560 Z M477 -215 L585 -215 L585 -108 L477 -108 L477 -215 Z " />
<glyph glyph-name="uni1E38" unicode="&#x1e38;" horiz-adv-x="1129" d="M232 700 L122 700 L122 0 L1099 0 L1099 100 L232 100 L232 700 Z M553 -215 L661 -215 L661 -108 L553 -108 L553 -215 Z M24 824 L392 824 L392 896 L24 896 L24 824 Z " />
<glyph glyph-name="uni1E39" unicode="&#x1e39;" horiz-adv-x="986" d="M211 560 L112 560 L112 0 L943 0 L943 86 L211 86 L211 560 Z M477 -215 L585 -215 L585 -108 L477 -108 L477 -215 Z M9 684 L377 684 L377 756 L9 756 L9 684 Z " />
<glyph glyph-name="uni1E3A" unicode="&#x1e3a;" horiz-adv-x="1129" d="M232 700 L122 700 L122 0 L1099 0 L1099 100 L232 100 L232 700 Z M423 -197 L791 -197 L791 -125 L423 -125 L423 -197 Z " />
<glyph glyph-name="uni1E3B" unicode="&#x1e3b;" horiz-adv-x="986" d="M211 560 L112 560 L112 0 L943 0 L943 86 L211 86 L211 560 Z M347 -197 L715 -197 L715 -125 L347 -125 L347 -197 Z " />
</font>
</svg>
