<?xml version="1.0" encoding="UTF-8"?>
<svg xmlns="http://www.w3.org/2000/svg" xmlns:xlink="http://www.w3.org/1999/xlink" version="1.2" >
<font id="Stereo Gothic 750 Italic">
<font-face  font-family="Stereo Gothic" units-per-em="1000" ascent="700" descent="-300" font-style="italic" font-weight="750" font-stretch="normal" slope="-10" cap-height="700" x-height="560" underline-position="-75" underline-thickness="50" />
<missing-glyph  horiz-adv-x="1000" d="M152 0 L852 0 L852 700 L152 700 L152 0 Z M213 645 L754 645 L213 104 L213 645 Z M250 55 L791 596 L791 55 L250 55 Z " />
<glyph glyph-name="NULL" d="" />
<glyph glyph-name="CR" unicode="&#xd;" horiz-adv-x="250" d="" />
<glyph glyph-name="space" unicode="&#x20;" horiz-adv-x="480" d="" />
<glyph glyph-name="exclam" unicode="&#x21;" horiz-adv-x="375" d="M46 0 L211 0 L242 168 L76 168 L46 0 Z M96 231 L239 231 L334 700 L173 700 L96 231 Z " />
<glyph glyph-name="quotedbl" unicode="&#x22;" horiz-adv-x="606" d="M125 400 L243 400 L321 700 L156 700 L125 400 Z M391 400 L510 400 L587 700 L423 700 L391 400 Z " />
<glyph glyph-name="numbersign" unicode="&#x23;" horiz-adv-x="1245" d="M761 0 L909 0 L948 143 L1099 143 L1123 278 L985 278 L1026 422 L1178 422 L1202 557 L1064 557 L1104 700 L956 700 L917 557 L450 557 L489 700 L341 700 L301 557 L151 557 L127 422 L263 422 L222 278 L72 278 L48 143 L185 143 L146 0 L294 0 L332 143 L799 143 L761 0 Z M411 422 L878 422 L837 278 L371 278 L411 422 Z " />
<glyph glyph-name="dollar" unicode="&#x24;" horiz-adv-x="1245" d="M484 -20 L632 -20 L649 70 L875 70 C1048 70 1116 163 1116 267 C1116 348 1066 409 933 409 L711 409 L725 495 L1125 495 L1151 630 L749 630 L766 721 L618 721 L601 630 L376 630 C201 630 134 535 134 430 C134 352 188 291 319 291 L541 291 L526 205 L126 205 L99 70 L501 70 L484 -20 Z M352 409 C305 409 294 424 294 443 C295 474 311 495 380 495 L577 495 L563 409 L352 409 Z M900 291 C947 291 958 276 958 257 C957 226 941 205 871 205 L675 205 L689 291 L900 291 Z " />
<glyph glyph-name="percent" unicode="&#x25;" horiz-adv-x="1245" d="M984 700 L105 0 L268 0 L1146 700 L984 700 Z M607 573 C620 645 590 700 482 700 L296 700 C187 700 142 650 129 576 L111 476 C98 405 129 350 238 350 L424 350 C531 350 577 400 590 474 L607 573 Z M228 567 C231 590 249 606 284 606 L471 606 C504 606 509 589 505 567 L490 483 C486 460 469 443 434 443 L247 443 C215 443 210 460 214 483 L228 567 Z M1137 223 C1150 295 1120 350 1012 350 L826 350 C717 350 672 300 659 226 L641 126 C628 55 659 0 768 0 L954 0 C1061 0 1107 50 1120 124 L1137 223 Z M758 217 C761 240 779 256 814 256 L1001 256 C1034 256 1039 239 1035 217 L1020 133 C1016 110 999 93 964 93 L777 93 C745 93 740 110 744 133 L758 217 Z " />
<glyph glyph-name="ampersand" unicode="&#x26;" horiz-adv-x="1262" d="M249 0 L901 0 C1060 0 1125 86 1125 184 C1125 223 1113 262 1085 282 L1191 282 L1216 418 L412 418 C346 418 328 440 328 472 C328 507 354 550 435 550 L1022 550 L1050 700 L416 700 C233 700 160 600 160 488 C160 435 184 388 228 364 C101 334 53 246 53 156 C53 69 107 0 249 0 L249 0 Z M855 150 L322 150 C256 150 238 173 238 203 C238 240 263 282 345 282 L888 282 C947 282 964 257 964 229 C964 188 938 150 855 150 L855 150 Z " />
<glyph glyph-name="quotesingle" unicode="&#x27;" horiz-adv-x="342" d="M125 400 L243 400 L321 700 L156 700 L125 400 Z " />
<glyph glyph-name="parenleft" unicode="&#x28;" horiz-adv-x="490" d="M353 -116 C192 161 261 539 521 815 L385 815 C81 547 10 153 218 -116 L353 -116 Z " />
<glyph glyph-name="parenright" unicode="&#x29;" horiz-adv-x="490" d="M111 -116 C415 153 487 547 279 815 L143 815 C306 539 237 161 -25 -116 L111 -116 Z " />
<glyph glyph-name="asterisk" unicode="&#x2a;" horiz-adv-x="575" d="M557 462 L513 607 L351 517 L387 700 L235 700 L264 516 L104 606 L54 462 L236 436 L102 311 L223 221 L305 385 L381 222 L507 311 L375 435 L557 462 Z " />
<glyph glyph-name="plus" unicode="&#x2b;" horiz-adv-x="1245" d="M272 275 L542 275 L542 30 L708 30 L708 275 L978 275 L978 425 L708 425 L708 670 L542 670 L542 425 L272 425 L272 275 Z " />
<glyph glyph-name="comma" unicode="&#x2c;" horiz-adv-x="337" d="M28 0 L99 0 L-2 -157 L71 -157 L197 13 L226 168 L58 168 L28 0 Z " />
<glyph glyph-name="hyphen" unicode="&#x2d;" horiz-adv-x="576" d="M59 205 L469 205 L496 355 L86 355 L59 205 Z " />
<glyph glyph-name="period" unicode="&#x2e;" horiz-adv-x="337" d="M28 0 L195 0 L226 168 L58 168 L28 0 Z " />
<glyph glyph-name="slash" unicode="&#x2f;" horiz-adv-x="578" d="M-97 -76 L49 -76 L684 777 L537 777 L-97 -76 Z " />
<glyph glyph-name="zero" unicode="0" horiz-adv-x="1245" d="M77 248 C52 111 117 0 332 0 L806 0 C1022 0 1113 101 1138 243 L1174 452 C1199 589 1134 700 919 700 L445 700 C229 700 138 599 113 457 L77 248 Z M899 550 C1006 550 1017 499 1007 444 L974 256 C964 196 928 150 826 150 L351 150 C244 150 233 201 243 255 L276 444 C286 504 322 550 424 550 L899 550 Z " />
<glyph glyph-name="one" unicode="1" horiz-adv-x="1245" d="M398 550 L635 550 L566 150 L183 150 L156 0 L970 0 L997 150 L731 150 L829 700 L426 700 L398 550 Z " />
<glyph glyph-name="two" unicode="2" horiz-adv-x="1245" d="M1101 150 L224 150 L236 212 C242 247 266 282 337 282 L893 282 C1111 282 1195 397 1195 525 C1195 624 1133 700 968 700 L196 700 L168 550 L937 550 C1005 550 1019 523 1019 494 C1019 454 995 418 915 418 L357 418 C180 418 92 333 71 214 L33 0 L1074 0 L1101 150 Z " />
<glyph glyph-name="three" unicode="3" horiz-adv-x="1245" d="M13 0 L873 0 C1061 0 1135 106 1135 219 C1135 287 1102 343 1024 363 C1107 402 1147 471 1147 554 C1147 636 1093 700 956 700 L158 700 L130 550 L883 550 C951 550 968 527 968 496 C968 461 942 418 862 418 L191 418 L166 282 L878 282 C945 282 963 256 963 228 C963 192 936 150 856 150 L40 150 L13 0 Z " />
<glyph glyph-name="four" unicode="4" horiz-adv-x="1245" d="M994 700 L48 238 L23 113 L880 113 L862 0 L1024 0 L1042 113 L1149 113 L1177 264 L1071 264 L1149 700 L994 700 Z M379 264 L959 541 L907 264 L379 264 Z " />
<glyph glyph-name="five" unicode="5" horiz-adv-x="1245" d="M82 282 L888 282 C957 282 972 256 972 227 C972 187 946 150 867 150 L77 150 L50 0 L843 0 C1058 0 1145 109 1145 241 C1145 340 1083 418 918 418 L272 418 L305 550 L1162 550 L1190 700 L191 700 L82 282 Z " />
<glyph glyph-name="six" unicode="6" horiz-adv-x="1245" d="M556 550 L1152 550 L1180 700 L570 700 C266 700 132 562 97 362 L77 248 C52 111 117 0 331 0 L858 0 C1072 0 1160 108 1160 241 C1160 341 1096 418 932 418 L431 418 C352 418 298 396 262 362 C287 475 367 550 556 550 L556 550 Z M340 282 L903 282 C970 282 984 256 984 227 C984 187 960 150 881 150 L350 150 C262 150 239 185 240 227 C248 258 274 282 340 282 L340 282 Z " />
<glyph glyph-name="seven" unicode="7" horiz-adv-x="1245" d="M497 0 L1203 569 L1228 700 L139 700 L111 550 L950 550 L249 0 L497 0 Z " />
<glyph glyph-name="eight" unicode="8" horiz-adv-x="1245" d="M237 0 L889 0 C1077 0 1151 106 1151 219 C1151 287 1118 343 1040 363 C1123 402 1163 471 1163 554 C1163 636 1109 700 972 700 L405 700 C221 700 148 600 148 488 C148 435 169 388 216 364 C89 334 41 246 41 156 C41 69 95 0 237 0 L237 0 Z M871 150 L309 150 C243 150 225 173 225 203 C225 240 250 282 332 282 L893 282 C961 282 979 256 979 228 C979 191 953 150 871 150 L871 150 Z M899 550 C966 550 984 527 984 497 C984 461 958 418 877 418 L399 418 C333 418 315 440 315 472 C315 507 341 550 423 550 L899 550 Z " />
<glyph glyph-name="nine" unicode="9" horiz-adv-x="1245" d="M695 150 L99 150 L71 0 L681 0 C985 0 1119 138 1154 338 L1174 452 C1199 589 1134 700 920 700 L393 700 C179 700 94 592 91 459 C90 359 155 282 319 282 L820 282 C898 282 952 303 988 337 C963 224 884 150 695 150 L695 150 Z M911 418 L348 418 C281 418 267 444 267 473 C267 513 291 550 371 550 L901 550 C988 550 1011 515 1011 472 C1003 442 976 418 911 418 L911 418 Z " />
<glyph glyph-name="colon" unicode="&#x3a;" horiz-adv-x="337" d="M96 392 L263 392 L294 560 L127 560 L96 392 Z M28 0 L195 0 L226 168 L58 168 L28 0 Z " />
<glyph glyph-name="semicolon" unicode="&#x3b;" horiz-adv-x="337" d="M28 0 L99 0 L-2 -157 L71 -157 L197 13 L226 168 L58 168 L28 0 Z M96 392 L263 392 L294 560 L127 560 L96 392 Z " />
<glyph glyph-name="less" unicode="&#x3c;" horiz-adv-x="1245" d="M968 166 L486 349 L968 534 L968 697 L282 428 L282 271 L968 3 L968 166 Z " />
<glyph glyph-name="equal" unicode="&#x3d;" horiz-adv-x="1245" d="M272 111 L978 111 L978 261 L272 261 L272 111 Z M272 439 L978 439 L978 589 L272 589 L272 439 Z " />
<glyph glyph-name="greater" unicode="&#x3e;" horiz-adv-x="1245" d="M282 3 L968 271 L968 428 L282 697 L282 534 L764 349 L282 166 L282 3 Z " />
<glyph glyph-name="question" unicode="&#x3f;" horiz-adv-x="1026" d="M254 231 L403 231 L412 286 L732 286 C951 286 1032 397 1032 525 C1032 624 970 700 805 700 L89 700 L61 550 L774 550 C841 550 856 522 856 493 C856 454 832 414 750 414 L287 414 L254 231 Z M203 0 L371 0 L401 168 L234 168 L203 0 Z " />
<glyph glyph-name="at" unicode="&#x40;" horiz-adv-x="1341" d="M699 420 L627 420 C409 420 323 298 323 169 C323 69 386 -10 549 -10 L642 -10 C724 -10 786 17 824 59 L831 0 L1128 0 C1222 90 1263 192 1263 309 C1263 492 1151 635 854 635 L645 635 C214 635 38 394 38 129 C38 -69 168 -224 491 -224 L649 -224 L670 -107 L509 -107 C257 -107 179 7 179 153 C179 338 291 518 630 518 L780 518 C998 518 1123 460 1123 293 C1123 221 1097 151 1069 117 L932 117 L984 410 L899 410 L875 341 C851 388 787 420 699 420 L699 420 Z M572 107 C482 107 459 141 459 187 C459 248 501 303 606 303 L700 303 C791 303 817 268 817 223 C817 166 794 107 666 107 L572 107 Z " />
<glyph glyph-name="A" unicode="A" horiz-adv-x="1236" d="M980 0 L1174 0 L770 700 L597 700 L-56 0 L152 0 L258 116 L914 116 L980 0 Z M664 558 L838 251 L382 251 L664 558 Z " />
<glyph glyph-name="B" unicode="B" horiz-adv-x="1208" d="M52 0 L851 0 C1039 0 1113 106 1113 219 C1113 287 1082 343 1003 363 C1087 402 1126 471 1126 554 C1126 636 1072 700 935 700 L177 700 L52 0 Z M856 282 C923 282 941 256 941 228 C941 192 914 150 834 150 L244 150 L266 282 L856 282 Z M947 496 C947 461 921 418 840 418 L291 418 L314 550 L862 550 C930 550 947 527 947 496 L947 496 Z " />
<glyph glyph-name="C" unicode="C" horiz-adv-x="1136" d="M238 317 C238 422 289 550 530 550 L1103 550 L1130 700 L545 700 C199 700 61 507 61 296 C61 130 162 0 430 0 L1005 0 L1031 150 L457 150 C287 150 238 223 238 317 L238 317 Z " />
<glyph glyph-name="D" unicode="D" horiz-adv-x="1204" d="M52 0 L663 0 C1007 0 1146 193 1146 404 C1146 570 1045 700 777 700 L177 700 L52 0 Z M750 550 C920 550 969 477 969 383 C969 278 918 150 677 150 L241 150 L312 550 L750 550 Z " />
<glyph glyph-name="E" unicode="E" horiz-adv-x="1150" d="M52 0 L1020 0 L1047 150 L244 150 L266 282 L971 282 L996 418 L291 418 L314 550 L1117 550 L1145 700 L177 700 L52 0 Z " />
<glyph glyph-name="F" unicode="F" horiz-adv-x="1112" d="M52 0 L217 0 L263 264 L968 264 L995 414 L290 414 L314 550 L1117 550 L1145 700 L177 700 L52 0 Z " />
<glyph glyph-name="G" unicode="G" horiz-adv-x="1205" d="M622 282 L948 282 L926 150 L457 150 C287 150 238 223 238 317 C238 422 289 550 530 550 L1103 550 L1130 700 L545 700 C199 700 61 507 61 296 C61 130 162 0 430 0 L1058 0 L1132 418 L647 418 L622 282 Z " />
<glyph glyph-name="H" unicode="H" horiz-adv-x="1252" d="M916 0 L1081 0 L1206 700 L1041 700 L992 425 L292 425 L342 700 L177 700 L52 0 L217 0 L264 275 L964 275 L916 0 Z " />
<glyph glyph-name="I" unicode="I" horiz-adv-x="388" d="M52 0 L217 0 L342 700 L177 700 L52 0 Z " />
<glyph glyph-name="J" unicode="J" horiz-adv-x="1161" d="M300 -5 L640 -5 C921 -5 1030 109 1065 304 L1135 700 L970 700 L902 332 C881 213 815 145 662 145 L329 145 C197 145 173 199 188 275 L200 336 L35 336 L23 275 C-6 124 60 -5 300 -5 L300 -5 Z " />
<glyph glyph-name="K" unicode="K" horiz-adv-x="1247" d="M1226 700 L939 700 L270 311 L339 700 L177 700 L52 0 L214 0 L238 133 L541 307 L936 0 L1189 0 L684 388 L1226 700 Z " />
<glyph glyph-name="L" unicode="L" horiz-adv-x="1083" d="M342 700 L177 700 L52 0 L1001 0 L1027 150 L244 150 L342 700 Z " />
<glyph glyph-name="M" unicode="M" horiz-adv-x="1397" d="M1183 700 L673 244 L324 700 L177 700 L52 0 L217 0 L299 472 L642 19 L1143 472 L1061 0 L1226 0 L1351 700 L1183 700 Z " />
<glyph glyph-name="N" unicode="N" horiz-adv-x="1256" d="M928 0 L1085 0 L1210 700 L1044 700 L952 180 L334 700 L177 700 L52 0 L217 0 L308 520 L928 0 Z " />
<glyph glyph-name="O" unicode="O" horiz-adv-x="1293" d="M734 -10 C1097 -10 1236 179 1236 407 C1236 578 1129 710 857 710 L565 710 C202 710 61 522 61 295 C61 122 171 -10 442 -10 L734 -10 Z M474 140 C293 140 238 216 238 315 C238 429 300 560 554 560 L824 560 C1003 560 1059 484 1059 388 C1059 264 991 140 744 140 L474 140 Z " />
<glyph glyph-name="P" unicode="P" horiz-adv-x="1147" d="M52 0 L217 0 L259 235 L820 235 C1056 235 1150 354 1150 504 C1150 613 1085 700 903 700 L177 700 L52 0 Z M871 550 C955 550 976 520 976 481 C976 430 941 385 843 385 L286 385 L314 550 L871 550 Z " />
<glyph glyph-name="Q" unicode="Q" horiz-adv-x="1293" d="M734 -10 C766 -10 796 -8 825 -5 L970 -110 L1215 -110 L1006 38 C1169 109 1236 248 1236 407 C1236 578 1129 710 857 710 L565 710 C202 710 61 522 61 295 C61 122 171 -10 442 -10 L734 -10 Z M474 140 C293 140 238 216 238 315 C238 429 300 560 554 560 L824 560 C1003 560 1059 484 1059 388 C1059 264 991 140 744 140 L474 140 Z " />
<glyph glyph-name="R" unicode="R" horiz-adv-x="1229" d="M52 0 L214 0 L257 238 L609 238 L919 0 L1170 0 L840 241 C1051 251 1142 364 1142 505 C1142 614 1074 700 893 700 L177 700 L52 0 Z M862 550 C945 550 967 520 967 482 C967 427 932 382 829 382 L282 382 L312 550 L862 550 Z " />
<glyph glyph-name="S" unicode="S" horiz-adv-x="1158" d="M798 150 L70 150 L42 0 L775 0 C989 0 1077 108 1077 241 C1077 341 1013 418 848 418 L344 418 C277 418 263 444 263 473 C263 513 287 550 366 550 L1094 550 L1122 700 L389 700 C175 700 87 592 87 459 C87 359 152 282 315 282 L820 282 C887 282 901 256 901 227 C901 187 877 150 798 150 L798 150 Z " />
<glyph glyph-name="T" unicode="T" horiz-adv-x="1136" d="M61 550 L523 550 L425 0 L591 0 L688 550 L1151 550 L1178 700 L89 700 L61 550 Z " />
<glyph glyph-name="U" unicode="U" horiz-adv-x="1223" d="M254 323 L323 700 L158 700 L89 323 C54 130 130 -10 417 -10 L700 -10 C981 -10 1093 115 1127 306 L1197 700 L1032 700 L966 334 C944 215 877 140 724 140 L436 140 C271 140 236 216 254 323 L254 323 Z " />
<glyph glyph-name="V" unicode="V" horiz-adv-x="1236" d="M647 0 L1300 700 L1083 700 L577 141 L273 700 L69 700 L471 0 L647 0 Z " />
<glyph glyph-name="W" unicode="W" horiz-adv-x="1552" d="M803 495 L972 0 L1094 0 L1603 700 L1395 700 L1059 206 L894 700 L772 700 L430 206 L270 700 L81 700 L339 0 L461 0 L803 495 Z " />
<glyph glyph-name="X" unicode="X" horiz-adv-x="1177" d="M79 700 L469 352 L-51 0 L220 0 L585 265 L859 0 L1111 0 L717 352 L1231 700 L960 700 L599 439 L331 700 L79 700 Z " />
<glyph glyph-name="Y" unicode="Y" horiz-adv-x="1204" d="M460 0 L625 0 L662 213 L1276 700 L1024 700 L595 342 L289 700 L60 700 L497 213 L460 0 Z " />
<glyph glyph-name="Z" unicode="Z" horiz-adv-x="1153" d="M9 0 L1040 0 L1067 150 L364 150 L1124 584 L1141 700 L139 700 L111 550 L785 550 L25 116 L9 0 Z " />
<glyph glyph-name="bracketleft" unicode="&#x5b;" horiz-adv-x="490" d="M33 -150 L362 -150 L385 -30 L220 -30 L354 730 L520 730 L541 850 L211 850 L33 -150 Z " />
<glyph glyph-name="backslash" unicode="&#x5c;" horiz-adv-x="578" d="M196 777 L63 777 L392 -76 L524 -76 L196 777 Z " />
<glyph glyph-name="bracketright" unicode="&#x5d;" horiz-adv-x="490" d="M464 850 L135 850 L113 730 L278 730 L143 -30 L-21 -30 L-44 -150 L285 -150 L464 850 Z " />
<glyph glyph-name="asciicircum" unicode="&#x5e;" horiz-adv-x="1245" d="M837 350 L1040 350 L713 800 L537 800 L210 350 L413 350 L625 656 L837 350 Z " />
<glyph glyph-name="underscore" unicode="&#x5f;" horiz-adv-x="500" d="M-60 -177 L440 -177 L440 -48 L-60 -48 L-60 -177 Z " />
<glyph glyph-name="grave" unicode="&#x60;" horiz-adv-x="480" d="M323 806 L148 806 L284 635 L386 635 L323 806 Z " />
<glyph glyph-name="a" unicode="a" horiz-adv-x="1056" d="M818 0 L993 0 L646 560 L491 560 L-55 0 L131 0 L224 97 L759 97 L818 0 Z M552 440 L692 208 L330 208 L552 440 Z " />
<glyph glyph-name="b" unicode="b" horiz-adv-x="1038" d="M42 0 L726 0 C890 0 943 86 943 174 C943 229 916 274 848 291 C919 323 949 379 949 442 C949 510 907 560 792 560 L141 560 L42 0 Z M211 127 L227 224 L725 224 C777 224 790 210 790 188 C790 161 772 127 708 127 L211 127 Z M726 433 C778 433 791 419 791 397 C791 370 773 336 709 336 L248 336 L264 433 L726 433 Z " />
<glyph glyph-name="c" unicode="c" horiz-adv-x="972" d="M202 249 C202 343 278 433 445 433 L927 433 L951 560 L453 560 C152 560 45 400 45 232 C45 102 127 0 352 0 L850 0 L874 127 L368 127 C241 127 202 173 202 249 L202 249 Z " />
<glyph glyph-name="d" unicode="d" horiz-adv-x="1035" d="M42 0 L564 0 C865 0 972 160 972 328 C972 457 888 560 665 560 L143 560 L42 0 Z M649 433 C776 433 815 387 815 311 C815 217 740 127 573 127 L212 127 L265 433 L649 433 Z " />
<glyph glyph-name="e" unicode="e" horiz-adv-x="990" d="M42 0 L866 0 L889 127 L211 127 L227 224 L820 224 L841 336 L248 336 L264 433 L942 433 L965 560 L141 560 L42 0 Z " />
<glyph glyph-name="f" unicode="f" horiz-adv-x="973" d="M42 0 L188 0 L224 207 L817 207 L841 334 L248 334 L264 433 L942 433 L965 560 L141 560 L42 0 Z " />
<glyph glyph-name="g" unicode="g" horiz-adv-x="1034" d="M352 0 L894 0 L953 336 L539 336 L518 224 L789 224 L774 127 L368 127 C241 127 202 173 202 249 C202 343 278 433 445 433 L926 433 L949 560 L453 560 C152 560 45 400 45 232 C45 102 127 0 352 0 L352 0 Z " />
<glyph glyph-name="h" unicode="h" horiz-adv-x="1079" d="M772 0 L918 0 L1017 560 L871 560 L833 344 L251 344 L287 560 L141 560 L42 0 L188 0 L226 216 L809 216 L772 0 Z " />
<glyph glyph-name="i" unicode="i" horiz-adv-x="349" d="M42 0 L188 0 L287 560 L141 560 L42 0 Z " />
<glyph glyph-name="j" unicode="j" horiz-adv-x="998" d="M248 -4 L552 -4 C774 -4 871 85 899 243 L956 560 L810 560 L755 260 C738 169 685 123 560 123 L258 123 C161 123 149 166 158 220 L166 270 L22 270 L13 220 C-8 97 40 -4 248 -4 L248 -4 Z " />
<glyph glyph-name="k" unicode="k" horiz-adv-x="1073" d="M1041 560 L776 560 L233 257 L287 560 L141 560 L42 0 L188 0 L207 101 L459 240 L783 0 L1011 0 L587 310 L1041 560 Z " />
<glyph glyph-name="l" unicode="l" horiz-adv-x="944" d="M287 560 L141 560 L42 0 L850 0 L873 127 L211 127 L287 560 Z " />
<glyph glyph-name="m" unicode="m" horiz-adv-x="1202" d="M992 560 L570 205 L272 560 L141 560 L42 0 L188 0 L253 366 L544 14 L959 366 L895 0 L1041 0 L1140 560 L992 560 Z " />
<glyph glyph-name="n" unicode="n" horiz-adv-x="1083" d="M922 0 L1021 560 L874 560 L803 155 L280 560 L141 560 L42 0 L188 0 L259 405 L783 0 L922 0 Z " />
<glyph glyph-name="o" unicode="o" horiz-adv-x="1106" d="M622 -8 C927 -8 1040 152 1042 326 C1045 461 960 568 726 568 L464 568 C159 568 48 408 45 234 C42 99 125 -8 360 -8 L622 -8 Z M385 119 C240 119 200 176 201 249 C202 339 270 441 442 441 L702 441 C847 441 886 384 886 311 C886 224 819 119 645 119 L385 119 Z " />
<glyph glyph-name="p" unicode="p" horiz-adv-x="996" d="M42 0 L188 0 L220 184 L696 184 C901 184 972 290 972 400 C972 489 917 560 763 560 L141 560 L42 0 Z M736 433 C801 433 816 412 816 383 C816 349 796 312 715 312 L244 312 L264 433 L736 433 Z " />
<glyph glyph-name="q" unicode="q" horiz-adv-x="1106" d="M622 -8 C646 -8 668 -7 690 -5 L803 -88 L1024 -88 L847 31 C985 89 1040 204 1042 326 C1045 461 960 568 726 568 L464 568 C159 568 48 408 45 234 C42 99 125 -8 360 -8 L622 -8 Z M385 119 C240 119 200 176 201 249 C202 339 270 441 442 441 L702 441 C847 441 886 384 886 311 C886 224 819 119 645 119 L385 119 Z " />
<glyph glyph-name="r" unicode="r" horiz-adv-x="1061" d="M42 0 L188 0 L221 187 L521 187 L770 0 L994 0 L725 190 C900 201 966 298 966 402 C966 489 911 560 756 560 L143 560 L42 0 Z M728 433 C796 433 810 408 810 381 C810 348 791 309 705 309 L244 309 L265 433 L728 433 Z " />
<glyph glyph-name="s" unicode="s" horiz-adv-x="989" d="M673 127 L53 127 L29 0 L657 0 C846 0 907 92 907 196 C907 275 856 334 717 334 L280 334 C229 334 216 353 216 374 C216 402 234 433 298 433 L918 433 L942 560 L314 560 C125 560 63 468 63 365 C63 285 115 226 253 226 L690 226 C741 226 754 207 754 186 C754 159 737 127 673 127 L673 127 Z " />
<glyph glyph-name="t" unicode="t" horiz-adv-x="996" d="M52 433 L441 433 L366 0 L512 0 L588 433 L978 433 L1001 560 L75 560 L52 433 Z " />
<glyph glyph-name="u" unicode="u" horiz-adv-x="1048" d="M213 258 L268 560 L122 560 L68 258 C40 104 89 -8 345 -8 L601 -8 C823 -8 920 82 948 239 L1005 560 L860 560 L805 256 C788 165 736 119 611 119 L371 119 C217 119 200 170 213 258 L213 258 Z " />
<glyph glyph-name="v" unicode="v" horiz-adv-x="1056" d="M547 0 L1092 560 L902 560 L486 120 L224 560 L44 560 L392 0 L547 0 Z " />
<glyph glyph-name="w" unicode="w" horiz-adv-x="1326" d="M670 385 L817 0 L925 0 L1350 560 L1169 560 L894 175 L751 560 L643 560 L365 175 L225 560 L55 560 L282 0 L390 0 L670 385 Z " />
<glyph glyph-name="x" unicode="x" horiz-adv-x="1018" d="M58 560 L390 282 L-45 0 L197 0 L496 204 L723 0 L945 0 L607 282 L1041 560 L798 560 L505 358 L281 560 L58 560 Z " />
<glyph glyph-name="y" unicode="y" horiz-adv-x="1023" d="M379 0 L526 0 L556 171 L1069 560 L847 560 L494 279 L237 560 L34 560 L409 171 L379 0 Z " />
<glyph glyph-name="z" unicode="z" horiz-adv-x="986" d="M2 0 L880 0 L903 127 L317 127 L946 462 L959 560 L105 560 L82 433 L641 433 L14 98 L2 0 Z " />
<glyph glyph-name="braceleft" unicode="&#x7b;" horiz-adv-x="490" d="M178 457 C174 433 167 410 124 410 L55 410 L34 290 L102 290 C145 290 145 268 141 243 L95 -19 C82 -91 111 -150 228 -150 L364 -150 L386 -30 L303 -30 C260 -30 260 -7 264 17 L302 230 C312 283 291 335 228 350 C303 363 333 405 343 460 L383 683 C387 708 394 730 438 730 L519 730 L541 850 L402 850 C286 850 237 791 224 719 L178 457 Z " />
<glyph glyph-name="bar" unicode="&#x7c;" horiz-adv-x="500" d="M181 850 L181 -150 L320 -150 L320 850 L181 850 Z " />
<glyph glyph-name="braceright" unicode="&#x7d;" horiz-adv-x="490" d="M319 243 C324 267 330 290 373 290 L442 290 L463 410 L395 410 C352 410 352 432 356 457 L402 719 C415 791 386 850 269 850 L133 850 L111 730 L194 730 C237 730 237 707 233 683 L195 470 C185 417 206 365 269 350 C194 337 164 295 154 240 L114 17 C110 -8 103 -30 60 -30 L-22 -30 L-44 -150 L95 -150 C212 -150 260 -91 273 -19 L319 243 Z " />
<glyph glyph-name="asciitilde" unicode="&#x7e;" horiz-adv-x="1245" d="M978 468 C714 245 551 623 272 410 L272 255 C536 478 700 100 978 313 L978 468 Z " />
<glyph glyph-name="uni00A0" unicode="&#xa0;" horiz-adv-x="480" d="" />
<glyph glyph-name="exclamdown" unicode="&#xa1;" horiz-adv-x="375" d="M339 700 L174 700 L144 532 L309 532 L339 700 Z M289 469 L147 469 L51 0 L212 0 L289 469 Z " />
<glyph glyph-name="cent" unicode="&#xa2;" horiz-adv-x="1245" d="M1108 261 L692 261 L756 439 L1139 439 L1165 574 L811 574 L867 721 L719 721 L663 574 L437 574 C211 574 120 449 120 316 C120 212 195 126 359 126 L491 126 L434 -20 L582 -20 L639 126 L1084 126 L1108 261 Z M279 335 C280 394 328 439 432 439 L607 439 L543 261 L389 261 C308 261 279 286 279 335 L279 335 Z " />
<glyph glyph-name="sterling" unicode="&#xa3;" horiz-adv-x="1245" d="M746 418 L417 418 L422 444 C432 499 458 550 562 550 L1057 550 L1084 700 L572 700 C377 700 284 595 260 460 L252 418 L126 418 L101 282 L228 282 L216 213 C209 169 180 144 138 144 L77 144 L52 0 L1074 0 L1101 150 L317 150 C352 166 382 199 387 240 L393 282 L721 282 L746 418 Z " />
<glyph glyph-name="currency" unicode="&#xa4;" horiz-adv-x="1245" d="M703 71 C783 71 848 84 902 109 L989 -13 L1120 89 L1020 190 C1069 237 1096 318 1097 394 C1097 428 1093 468 1081 496 L1215 590 L1104 710 L990 590 C946 616 883 629 804 629 L547 629 C468 629 400 616 346 591 L259 717 L129 607 L228 507 C166 437 152 356 151 306 C150 271 156 231 167 203 L34 98 L135 -15 L257 109 C300 85 367 71 446 71 L703 71 Z M321 326 C321 391 337 485 519 485 L776 485 C895 485 927 437 927 373 C927 309 911 215 729 215 L472 215 C355 215 321 262 321 326 L321 326 Z " />
<glyph glyph-name="yen" unicode="&#xa5;" horiz-adv-x="1245" d="M992 700 L625 398 L365 700 L137 700 L371 453 L118 453 L93 325 L477 325 L527 269 L522 233 L78 233 L53 105 L498 105 L480 0 L646 0 L663 105 L1107 105 L1132 233 L687 233 L692 269 L762 325 L1146 325 L1171 453 L917 453 L1239 700 L992 700 Z " />
<glyph glyph-name="brokenbar" unicode="&#xa6;" horiz-adv-x="500" d="M320 467 L320 850 L181 850 L181 467 L320 467 Z M181 233 L181 -150 L320 -150 L320 233 L181 233 Z " />
<glyph glyph-name="section" unicode="&#xa7;" horiz-adv-x="1176" d="M234 132 L733 132 C787 132 800 116 800 96 C800 71 786 35 717 35 L157 35 L131 -100 L750 -100 C891 -100 947 -22 947 64 C947 91 940 119 924 136 C1058 154 1111 238 1111 329 C1111 407 1059 468 930 468 L431 468 C377 468 364 484 364 504 C364 529 378 565 447 565 L1007 565 L1033 700 L414 700 C273 700 217 622 217 536 C217 509 224 481 240 464 C106 446 53 362 53 271 C53 193 105 132 234 132 L234 132 Z M898 349 C950 349 962 331 962 311 C962 284 945 251 879 251 L266 251 C214 251 202 269 202 289 C202 316 219 349 285 349 L898 349 Z " />
<glyph glyph-name="dieresis" unicode="&#xa8;" horiz-adv-x="480" d="M361 645 L509 645 L535 793 L387 793 L361 645 Z M77 645 L225 645 L250 793 L103 793 L77 645 Z " />
<glyph glyph-name="copyright" unicode="&#xa9;" horiz-adv-x="1159" d="M669 -10 C982 -10 1105 151 1105 350 C1105 549 982 710 669 710 L495 710 C182 710 59 549 59 350 C59 151 182 -10 495 -10 L669 -10 Z M496 94 C257 94 180 208 180 350 C180 492 257 606 496 606 L668 606 C907 606 984 492 984 350 C984 208 907 94 668 94 L496 94 Z M800 260 L511 260 C420 260 398 300 398 350 C398 400 420 440 511 440 L800 440 L800 525 L511 525 C358 525 299 446 299 350 C299 253 358 175 511 175 L800 175 L800 260 Z " />
<glyph glyph-name="ordfeminine" unicode="&#xaa;" horiz-adv-x="722" d="M188 350 L230 401 L523 401 L551 350 L675 350 L480 700 L371 700 L51 350 L188 350 Z M410 605 L481 478 L295 478 L410 605 Z " />
<glyph glyph-name="guillemotleft" unicode="&#xab;" horiz-adv-x="819" d="M285 560 L64 282 L188 0 L353 0 L234 270 L465 560 L285 560 Z M619 560 L397 282 L522 0 L686 0 L567 270 L798 560 L619 560 Z " />
<glyph glyph-name="logicalnot" unicode="&#xac;" horiz-adv-x="1245" d="M272 275 L813 275 L813 40 L978 40 L978 425 L272 425 L272 275 Z " />
<glyph glyph-name="uni00AD" unicode="&#xad;" horiz-adv-x="576" d="M61 215 L471 215 L495 345 L85 345 L61 215 Z " />
<glyph glyph-name="registered" unicode="&#xae;" horiz-adv-x="1159" d="M669 -10 C982 -10 1105 151 1105 350 C1105 549 982 710 669 710 L495 710 C182 710 59 549 59 350 C59 151 182 -10 495 -10 L669 -10 Z M496 94 C257 94 180 208 180 350 C180 492 257 606 496 606 L668 606 C907 606 984 492 984 350 C984 208 907 94 668 94 L496 94 Z M330 175 L423 175 L423 289 L611 289 L753 175 L890 175 L734 295 C803 308 831 353 831 408 C831 472 792 525 689 525 L330 525 L330 175 Z M681 440 C724 440 731 424 731 404 C731 384 724 370 681 370 L423 370 L423 440 L681 440 Z " />
<glyph glyph-name="macron" unicode="&#xaf;" horiz-adv-x="480" d="M111 667 L486 667 L505 773 L130 773 L111 667 Z " />
<glyph glyph-name="degree" unicode="&#xb0;" horiz-adv-x="539" d="M93 505 C93 387 188 301 300 301 C413 301 508 387 508 505 C508 624 413 710 300 710 C188 710 93 624 93 505 L93 505 Z M219 505 C219 557 251 595 300 595 C350 595 382 557 382 505 C382 454 350 416 300 416 C251 416 219 454 219 505 L219 505 Z " />
<glyph glyph-name="plusminus" unicode="&#xb1;" horiz-adv-x="1245" d="M272 400 L542 400 L542 250 L708 250 L708 400 L978 400 L978 550 L708 550 L708 700 L542 700 L542 550 L272 550 L272 400 Z M272 0 L978 0 L978 150 L272 150 L272 0 Z " />
<glyph glyph-name="twosuperior" unicode="&#xb2;" horiz-adv-x="708" d="M533 606 C562 606 569 596 569 584 C569 569 558 556 525 556 L260 556 C165 556 121 513 110 453 L92 350 L615 350 L632 443 L207 443 L212 468 C214 480 224 494 254 494 L528 494 C638 494 677 547 677 614 C677 663 644 700 562 700 L173 700 L156 606 L533 606 Z " />
<glyph glyph-name="threesuperior" unicode="&#xb3;" horiz-adv-x="708" d="M498 494 C528 494 534 484 534 472 C534 457 523 443 489 443 L94 443 L77 350 L508 350 C602 350 640 401 640 459 C640 492 624 520 585 530 C626 550 646 585 646 623 C646 667 618 700 550 700 L150 700 L133 606 L497 606 C527 606 533 596 533 584 C533 570 522 556 488 556 L165 556 L153 494 L498 494 Z " />
<glyph glyph-name="acute" unicode="&#xb4;" horiz-adv-x="480" d="M192 635 L305 635 L505 806 L316 806 L192 635 Z " />
<glyph glyph-name="uni00B5" unicode="&#xb5;" horiz-adv-x="1245" d="M957 0 L1065 0 L1164 560 L999 560 L962 352 C942 238 867 150 674 150 L353 150 C274 150 259 180 265 215 L326 560 L161 560 L24 -200 L189 -200 L235 56 C251 17 297 0 366 0 L676 0 C801 0 888 45 935 108 L957 0 Z " />
<glyph glyph-name="paragraph" unicode="&#xb6;" horiz-adv-x="1150" d="M636 550 L803 550 L803 -100 L968 -100 L968 550 L1064 550 L1064 700 L338 700 C132 700 53 595 53 467 C53 337 132 235 338 235 L471 235 L471 -100 L636 -100 L636 550 Z " />
<glyph glyph-name="periodcentered" unicode="&#xb7;" horiz-adv-x="337" d="M75 266 L242 266 L272 434 L105 434 L75 266 Z " />
<glyph glyph-name="cedilla" unicode="&#xb8;" horiz-adv-x="480" d="M86 -135 L125 -135 C168 -135 191 -143 191 -167 C191 -207 141 -215 93 -215 C58 -215 26 -204 11 -192 L-3 -263 C22 -278 69 -293 119 -292 C207 -291 303 -265 303 -159 C303 -91 234 -65 170 -71 L203 0 L145 0 L86 -135 Z " />
<glyph glyph-name="onesuperior" unicode="&#xb9;" horiz-adv-x="708" d="M268 606 L379 606 L349 443 L167 443 L151 350 L560 350 L576 443 L450 443 L497 700 L285 700 L268 606 Z " />
<glyph glyph-name="ordmasculine" unicode="&#xba;" horiz-adv-x="720" d="M437 345 C618 345 688 443 688 554 C688 635 634 705 498 705 L353 705 C172 705 101 606 101 496 C101 414 155 345 291 345 L437 345 Z M309 438 C230 438 205 470 205 511 C205 561 235 612 342 612 L482 612 C559 612 584 579 584 539 C584 488 554 438 448 438 L309 438 Z " />
<glyph glyph-name="guillemotright" unicode="&#xbb;" horiz-adv-x="819" d="M186 0 L407 278 L283 560 L118 560 L237 290 L6 0 L186 0 Z M519 0 L741 278 L616 560 L451 560 L570 290 L339 0 L519 0 Z " />
<glyph glyph-name="onequarter" unicode="&#xbc;" horiz-adv-x="1416" d="M268 606 L379 606 L349 443 L167 443 L151 350 L560 350 L576 443 L450 443 L497 700 L285 700 L268 606 Z M1075 700 L186 0 L346 0 L1235 700 L1075 700 Z M1202 350 L747 133 L733 54 L1143 54 L1134 0 L1236 0 L1244 54 L1298 54 L1316 147 L1261 147 L1298 350 L1202 350 Z M944 147 L1180 259 L1161 147 L944 147 Z " />
<glyph glyph-name="onehalf" unicode="&#xbd;" horiz-adv-x="1416" d="M268 606 L379 606 L349 443 L167 443 L151 350 L560 350 L576 443 L450 443 L497 700 L285 700 L268 606 Z M1075 700 L186 0 L346 0 L1235 700 L1075 700 Z M1179 256 C1208 256 1215 246 1215 234 C1215 219 1204 206 1171 206 L906 206 C811 206 767 163 756 103 L738 0 L1261 0 L1278 93 L853 93 L858 118 C860 130 870 144 900 144 L1174 144 C1284 144 1323 197 1323 264 C1323 313 1290 350 1208 350 L819 350 L802 256 L1179 256 Z " />
<glyph glyph-name="threequarters" unicode="&#xbe;" horiz-adv-x="1416" d="M498 494 C528 494 534 484 534 472 C534 457 523 443 489 443 L94 443 L77 350 L508 350 C602 350 640 401 640 459 C640 492 624 520 585 530 C626 550 646 585 646 623 C646 667 618 700 550 700 L150 700 L133 606 L497 606 C527 606 533 596 533 584 C533 570 522 556 488 556 L165 556 L153 494 L498 494 Z M1075 700 L186 0 L346 0 L1235 700 L1075 700 Z M1202 350 L747 133 L733 54 L1143 54 L1134 0 L1236 0 L1244 54 L1298 54 L1316 147 L1261 147 L1298 350 L1202 350 Z M944 147 L1180 259 L1161 147 L944 147 Z " />
<glyph glyph-name="questiondown" unicode="&#xbf;" horiz-adv-x="1026" d="M779 469 L630 469 L621 414 L301 414 C82 414 1 303 1 175 C1 76 63 0 228 0 L944 0 L972 150 L259 150 C192 150 177 178 177 207 C177 246 201 286 283 286 L746 286 L779 469 Z M830 700 L662 700 L632 532 L799 532 L830 700 Z " />
<glyph glyph-name="Agrave" unicode="&#xc0;" horiz-adv-x="1236" d="M980 0 L1174 0 L770 700 L597 700 L-56 0 L152 0 L258 116 L914 116 L980 0 Z M664 558 L838 251 L382 251 L664 558 Z M726 946 L551 946 L687 775 L789 775 L726 946 Z " />
<glyph glyph-name="Aacute" unicode="&#xc1;" horiz-adv-x="1236" d="M980 0 L1174 0 L770 700 L597 700 L-56 0 L152 0 L258 116 L914 116 L980 0 Z M664 558 L838 251 L382 251 L664 558 Z M595 775 L708 775 L908 946 L719 946 L595 775 Z " />
<glyph glyph-name="Acircumflex" unicode="&#xc2;" horiz-adv-x="1236" d="M980 0 L1174 0 L770 700 L597 700 L-56 0 L152 0 L258 116 L914 116 L980 0 Z M664 558 L838 251 L382 251 L664 558 Z M493 775 L601 775 L714 868 L791 775 L895 775 L818 946 L632 946 L493 775 Z " />
<glyph glyph-name="Atilde" unicode="&#xc3;" horiz-adv-x="1236" d="M980 0 L1174 0 L770 700 L597 700 L-56 0 L152 0 L258 116 L914 116 L980 0 Z M664 558 L838 251 L382 251 L664 558 Z M825 944 C817 907 804 894 784 894 C750 894 713 938 653 938 C587 938 537 897 512 776 L593 776 C599 812 612 826 633 826 C666 826 703 781 763 781 C830 781 880 823 906 944 L825 944 Z " />
<glyph glyph-name="Adieresis" unicode="&#xc4;" horiz-adv-x="1236" d="M980 0 L1174 0 L770 700 L597 700 L-56 0 L152 0 L258 116 L914 116 L980 0 Z M664 558 L838 251 L382 251 L664 558 Z M764 785 L912 785 L938 933 L790 933 L764 785 Z M480 785 L628 785 L653 933 L506 933 L480 785 Z " />
<glyph glyph-name="Aring" unicode="&#xc5;" horiz-adv-x="1236" d="M980 0 L1174 0 L770 700 L597 700 L-56 0 L152 0 L258 116 L914 116 L980 0 Z M664 558 L838 251 L382 251 L664 558 Z M669 858 C669 882 691 900 714 900 C734 900 749 884 749 864 C749 840 728 821 706 821 C685 821 669 838 669 858 L669 858 Z M578 853 C577 791 623 744 698 744 C779 744 842 801 842 871 C842 931 794 978 722 978 C639 978 579 922 578 853 L578 853 Z " />
<glyph glyph-name="AE" unicode="&#xc6;" horiz-adv-x="1651" d="M673 112 L655 0 L1522 0 L1549 150 L847 150 L870 282 L1474 282 L1499 418 L895 418 L917 550 L1619 550 L1647 700 L692 700 L-56 0 L156 0 L274 112 L673 112 Z M417 248 L755 569 L699 248 L417 248 Z " />
<glyph glyph-name="Ccedilla" unicode="&#xc7;" horiz-adv-x="1136" d="M462 -135 L501 -135 C544 -135 567 -143 567 -167 C567 -207 517 -215 469 -215 C434 -215 402 -204 387 -192 L373 -263 C398 -278 445 -293 495 -292 C583 -291 679 -265 679 -159 C679 -91 610 -65 546 -71 L579 0 L1005 0 L1031 150 L457 150 C287 150 238 223 238 317 C238 422 289 550 530 550 L1103 550 L1130 700 L545 700 C199 700 61 507 61 296 C61 130 162 0 430 0 L521 0 L462 -135 Z " />
<glyph glyph-name="Egrave" unicode="&#xc8;" horiz-adv-x="1150" d="M52 0 L1020 0 L1047 150 L244 150 L266 282 L971 282 L996 418 L291 418 L314 550 L1117 550 L1145 700 L177 700 L52 0 Z M692 946 L517 946 L653 775 L755 775 L692 946 Z " />
<glyph glyph-name="Eacute" unicode="&#xc9;" horiz-adv-x="1150" d="M52 0 L1020 0 L1047 150 L244 150 L266 282 L971 282 L996 418 L291 418 L314 550 L1117 550 L1145 700 L177 700 L52 0 Z M561 775 L674 775 L874 946 L685 946 L561 775 Z " />
<glyph glyph-name="Ecircumflex" unicode="&#xca;" horiz-adv-x="1150" d="M52 0 L1020 0 L1047 150 L244 150 L266 282 L971 282 L996 418 L291 418 L314 550 L1117 550 L1145 700 L177 700 L52 0 Z M459 775 L567 775 L680 868 L757 775 L861 775 L784 946 L598 946 L459 775 Z " />
<glyph glyph-name="Edieresis" unicode="&#xcb;" horiz-adv-x="1150" d="M52 0 L1020 0 L1047 150 L244 150 L266 282 L971 282 L996 418 L291 418 L314 550 L1117 550 L1145 700 L177 700 L52 0 Z M730 785 L878 785 L904 933 L756 933 L730 785 Z M446 785 L594 785 L619 933 L472 933 L446 785 Z " />
<glyph glyph-name="Igrave" unicode="&#xcc;" horiz-adv-x="388" d="M52 0 L217 0 L342 700 L177 700 L52 0 Z M300 946 L125 946 L261 775 L363 775 L300 946 Z " />
<glyph glyph-name="Iacute" unicode="&#xcd;" horiz-adv-x="388" d="M52 0 L217 0 L342 700 L177 700 L52 0 Z M169 775 L282 775 L482 946 L293 946 L169 775 Z " />
<glyph glyph-name="Icircumflex" unicode="&#xce;" horiz-adv-x="388" d="M52 0 L217 0 L342 700 L177 700 L52 0 Z M67 775 L175 775 L288 868 L365 775 L469 775 L392 946 L206 946 L67 775 Z " />
<glyph glyph-name="Idieresis" unicode="&#xcf;" horiz-adv-x="388" d="M52 0 L217 0 L342 700 L177 700 L52 0 Z M338 785 L486 785 L512 933 L364 933 L338 785 Z M54 785 L202 785 L227 933 L80 933 L54 785 Z " />
<glyph glyph-name="Eth" unicode="&#xd0;" horiz-adv-x="1204" d="M-23 282 L102 282 L52 0 L663 0 C1007 0 1146 193 1146 404 C1146 570 1045 700 777 700 L177 700 L126 418 L2 418 L-23 282 Z M750 550 C920 550 969 477 969 383 C969 278 918 150 677 150 L241 150 L264 282 L610 282 L634 418 L288 418 L312 550 L750 550 Z " />
<glyph glyph-name="Ntilde" unicode="&#xd1;" horiz-adv-x="1256" d="M928 0 L1085 0 L1210 700 L1044 700 L952 180 L334 700 L177 700 L52 0 L217 0 L308 520 L928 0 Z M834 944 C826 907 813 894 793 894 C759 894 722 938 662 938 C596 938 546 897 521 776 L602 776 C608 812 621 826 642 826 C675 826 712 781 772 781 C839 781 889 823 915 944 L834 944 Z " />
<glyph glyph-name="Ograve" unicode="&#xd2;" horiz-adv-x="1293" d="M734 -10 C1097 -10 1236 179 1236 407 C1236 578 1129 710 857 710 L565 710 C202 710 61 522 61 295 C61 122 171 -10 442 -10 L734 -10 Z M474 140 C293 140 238 216 238 315 C238 429 300 560 554 560 L824 560 C1003 560 1059 484 1059 388 C1059 264 991 140 744 140 L474 140 Z M753 946 L578 946 L714 775 L816 775 L753 946 Z " />
<glyph glyph-name="Oacute" unicode="&#xd3;" horiz-adv-x="1293" d="M734 -10 C1097 -10 1236 179 1236 407 C1236 578 1129 710 857 710 L565 710 C202 710 61 522 61 295 C61 122 171 -10 442 -10 L734 -10 Z M474 140 C293 140 238 216 238 315 C238 429 300 560 554 560 L824 560 C1003 560 1059 484 1059 388 C1059 264 991 140 744 140 L474 140 Z M622 775 L735 775 L935 946 L746 946 L622 775 Z " />
<glyph glyph-name="Ocircumflex" unicode="&#xd4;" horiz-adv-x="1293" d="M734 -10 C1097 -10 1236 179 1236 407 C1236 578 1129 710 857 710 L565 710 C202 710 61 522 61 295 C61 122 171 -10 442 -10 L734 -10 Z M474 140 C293 140 238 216 238 315 C238 429 300 560 554 560 L824 560 C1003 560 1059 484 1059 388 C1059 264 991 140 744 140 L474 140 Z M520 775 L628 775 L741 868 L818 775 L922 775 L845 946 L659 946 L520 775 Z " />
<glyph glyph-name="Otilde" unicode="&#xd5;" horiz-adv-x="1293" d="M734 -10 C1097 -10 1236 179 1236 407 C1236 578 1129 710 857 710 L565 710 C202 710 61 522 61 295 C61 122 171 -10 442 -10 L734 -10 Z M474 140 C293 140 238 216 238 315 C238 429 300 560 554 560 L824 560 C1003 560 1059 484 1059 388 C1059 264 991 140 744 140 L474 140 Z M853 944 C845 907 832 894 812 894 C778 894 741 938 681 938 C615 938 565 897 540 776 L621 776 C627 812 640 826 661 826 C694 826 731 781 791 781 C858 781 908 823 934 944 L853 944 Z " />
<glyph glyph-name="Odieresis" unicode="&#xd6;" horiz-adv-x="1293" d="M734 -10 C1097 -10 1236 179 1236 407 C1236 578 1129 710 857 710 L565 710 C202 710 61 522 61 295 C61 122 171 -10 442 -10 L734 -10 Z M474 140 C293 140 238 216 238 315 C238 429 300 560 554 560 L824 560 C1003 560 1059 484 1059 388 C1059 264 991 140 744 140 L474 140 Z M791 785 L939 785 L965 933 L817 933 L791 785 Z M507 785 L655 785 L680 933 L533 933 L507 785 Z " />
<glyph glyph-name="multiply" unicode="&#xd7;" horiz-adv-x="1245" d="M944 553 L832 665 L622 449 L419 656 L307 544 L512 347 L307 147 L419 35 L623 245 L832 35 L944 147 L732 348 L944 553 Z " />
<glyph glyph-name="Oslash" unicode="&#xd8;" horiz-adv-x="1293" d="M734 -10 C1097 -10 1236 179 1236 407 C1236 534 1176 640 1034 685 L1133 800 L945 800 L867 710 L565 710 C202 710 61 522 61 295 C61 166 122 60 264 14 L165 -100 L353 -100 L431 -10 L734 -10 Z M238 315 C238 429 300 560 554 560 L737 560 L380 148 C273 171 238 235 238 315 L238 315 Z M1059 388 C1059 264 991 140 744 140 L561 140 L917 551 C1023 529 1059 464 1059 388 L1059 388 Z " />
<glyph glyph-name="Ugrave" unicode="&#xd9;" horiz-adv-x="1223" d="M254 323 L323 700 L158 700 L89 323 C54 130 130 -10 417 -10 L700 -10 C981 -10 1093 115 1127 306 L1197 700 L1032 700 L966 334 C944 215 877 140 724 140 L436 140 C271 140 236 216 254 323 L254 323 Z M719 946 L544 946 L680 775 L782 775 L719 946 Z " />
<glyph glyph-name="Uacute" unicode="&#xda;" horiz-adv-x="1223" d="M254 323 L323 700 L158 700 L89 323 C54 130 130 -10 417 -10 L700 -10 C981 -10 1093 115 1127 306 L1197 700 L1032 700 L966 334 C944 215 877 140 724 140 L436 140 C271 140 236 216 254 323 L254 323 Z M588 775 L701 775 L901 946 L712 946 L588 775 Z " />
<glyph glyph-name="Ucircumflex" unicode="&#xdb;" horiz-adv-x="1223" d="M254 323 L323 700 L158 700 L89 323 C54 130 130 -10 417 -10 L700 -10 C981 -10 1093 115 1127 306 L1197 700 L1032 700 L966 334 C944 215 877 140 724 140 L436 140 C271 140 236 216 254 323 L254 323 Z M486 775 L594 775 L707 868 L784 775 L888 775 L811 946 L625 946 L486 775 Z " />
<glyph glyph-name="Udieresis" unicode="&#xdc;" horiz-adv-x="1223" d="M254 323 L323 700 L158 700 L89 323 C54 130 130 -10 417 -10 L700 -10 C981 -10 1093 115 1127 306 L1197 700 L1032 700 L966 334 C944 215 877 140 724 140 L436 140 C271 140 236 216 254 323 L254 323 Z M757 785 L905 785 L931 933 L783 933 L757 785 Z M473 785 L621 785 L646 933 L499 933 L473 785 Z " />
<glyph glyph-name="Yacute" unicode="&#xdd;" horiz-adv-x="1204" d="M460 0 L625 0 L662 213 L1276 700 L1024 700 L595 342 L289 700 L60 700 L497 213 L460 0 Z M578 775 L691 775 L891 946 L702 946 L578 775 Z " />
<glyph glyph-name="Thorn" unicode="&#xde;" horiz-adv-x="1146" d="M52 0 L217 0 L238 117 L799 117 C1036 117 1131 237 1131 387 C1131 495 1066 583 883 583 L322 583 L342 700 L177 700 L52 0 Z M852 432 C935 432 957 403 957 363 C957 313 921 268 824 268 L266 268 L293 432 L852 432 Z " />
<glyph glyph-name="germandbls" unicode="&#xdf;" horiz-adv-x="1042" d="M428 226 L695 226 C746 226 758 207 758 186 C758 159 741 127 677 127 L337 127 L314 0 L661 0 C850 0 911 92 911 196 C911 275 860 334 722 334 L672 334 L941 462 L954 560 L464 560 C206 560 103 450 76 296 L23 0 L169 0 L222 296 C234 378 283 433 442 433 L662 433 L447 323 L428 226 Z " />
<glyph glyph-name="agrave" unicode="&#xe0;" horiz-adv-x="1056" d="M818 0 L993 0 L646 560 L491 560 L-55 0 L131 0 L224 97 L759 97 L818 0 Z M552 440 L692 208 L330 208 L552 440 Z M611 806 L436 806 L572 635 L674 635 L611 806 Z " />
<glyph glyph-name="aacute" unicode="&#xe1;" horiz-adv-x="1056" d="M818 0 L993 0 L646 560 L491 560 L-55 0 L131 0 L224 97 L759 97 L818 0 Z M552 440 L692 208 L330 208 L552 440 Z M480 635 L593 635 L793 806 L604 806 L480 635 Z " />
<glyph glyph-name="acircumflex" unicode="&#xe2;" horiz-adv-x="1056" d="M818 0 L993 0 L646 560 L491 560 L-55 0 L131 0 L224 97 L759 97 L818 0 Z M552 440 L692 208 L330 208 L552 440 Z M378 635 L486 635 L599 728 L676 635 L780 635 L703 806 L517 806 L378 635 Z " />
<glyph glyph-name="atilde" unicode="&#xe3;" horiz-adv-x="1056" d="M818 0 L993 0 L646 560 L491 560 L-55 0 L131 0 L224 97 L759 97 L818 0 Z M552 440 L692 208 L330 208 L552 440 Z M710 804 C702 767 689 754 669 754 C635 754 598 798 538 798 C472 798 422 757 397 636 L478 636 C484 672 497 686 518 686 C551 686 588 641 648 641 C715 641 765 683 791 804 L710 804 Z " />
<glyph glyph-name="adieresis" unicode="&#xe4;" horiz-adv-x="1056" d="M818 0 L993 0 L646 560 L491 560 L-55 0 L131 0 L224 97 L759 97 L818 0 Z M552 440 L692 208 L330 208 L552 440 Z M649 645 L797 645 L823 793 L675 793 L649 645 Z M365 645 L513 645 L538 793 L391 793 L365 645 Z " />
<glyph glyph-name="aring" unicode="&#xe5;" horiz-adv-x="1056" d="M818 0 L993 0 L646 560 L491 560 L-55 0 L131 0 L224 97 L759 97 L818 0 Z M552 440 L692 208 L330 208 L552 440 Z M554 718 C554 742 576 760 599 760 C619 760 634 744 634 724 C634 700 613 681 591 681 C570 681 554 698 554 718 L554 718 Z M463 713 C462 651 508 604 583 604 C664 604 727 661 727 731 C727 791 679 838 607 838 C524 838 464 782 463 713 L463 713 Z " />
<glyph glyph-name="ae" unicode="&#xe6;" horiz-adv-x="1411" d="M566 89 L550 0 L1289 0 L1312 127 L719 127 L735 224 L1243 224 L1264 336 L756 336 L772 433 L1365 433 L1388 560 L572 560 L-55 0 L134 0 L232 89 L566 89 Z M354 200 L628 448 L585 200 L354 200 Z " />
<glyph glyph-name="ccedilla" unicode="&#xe7;" horiz-adv-x="972" d="M371 -135 L410 -135 C453 -135 476 -143 476 -167 C476 -207 426 -215 378 -215 C343 -215 311 -204 296 -192 L282 -263 C307 -278 354 -293 404 -292 C492 -291 588 -265 588 -159 C588 -91 519 -65 455 -71 L488 0 L850 0 L874 127 L368 127 C241 127 202 173 202 249 C202 343 278 433 445 433 L927 433 L951 560 L453 560 C152 560 45 400 45 232 C45 102 127 0 352 0 L430 0 L371 -135 Z " />
<glyph glyph-name="egrave" unicode="&#xe8;" horiz-adv-x="990" d="M42 0 L866 0 L889 127 L211 127 L227 224 L820 224 L841 336 L248 336 L264 433 L942 433 L965 560 L141 560 L42 0 Z M589 806 L414 806 L550 635 L652 635 L589 806 Z " />
<glyph glyph-name="eacute" unicode="&#xe9;" horiz-adv-x="990" d="M42 0 L866 0 L889 127 L211 127 L227 224 L820 224 L841 336 L248 336 L264 433 L942 433 L965 560 L141 560 L42 0 Z M458 635 L571 635 L771 806 L582 806 L458 635 Z " />
<glyph glyph-name="ecircumflex" unicode="&#xea;" horiz-adv-x="990" d="M42 0 L866 0 L889 127 L211 127 L227 224 L820 224 L841 336 L248 336 L264 433 L942 433 L965 560 L141 560 L42 0 Z M356 635 L464 635 L577 728 L654 635 L758 635 L681 806 L495 806 L356 635 Z " />
<glyph glyph-name="edieresis" unicode="&#xeb;" horiz-adv-x="990" d="M42 0 L866 0 L889 127 L211 127 L227 224 L820 224 L841 336 L248 336 L264 433 L942 433 L965 560 L141 560 L42 0 Z M627 645 L775 645 L801 793 L653 793 L627 645 Z M343 645 L491 645 L516 793 L369 793 L343 645 Z " />
<glyph glyph-name="igrave" unicode="&#xec;" horiz-adv-x="349" d="M256 806 L81 806 L217 635 L319 635 L256 806 Z M42 0 L188 0 L287 560 L141 560 L42 0 Z " />
<glyph glyph-name="iacute" unicode="&#xed;" horiz-adv-x="349" d="M125 635 L238 635 L438 806 L249 806 L125 635 Z M42 0 L188 0 L287 560 L141 560 L42 0 Z " />
<glyph glyph-name="icircumflex" unicode="&#xee;" horiz-adv-x="349" d="M42 0 L188 0 L287 560 L141 560 L42 0 Z M23 635 L131 635 L244 728 L321 635 L425 635 L348 806 L162 806 L23 635 Z " />
<glyph glyph-name="idieresis" unicode="&#xef;" horiz-adv-x="349" d="M294 645 L442 645 L468 793 L320 793 L294 645 Z M10 645 L158 645 L183 793 L36 793 L10 645 Z M42 0 L188 0 L287 560 L141 560 L42 0 Z " />
<glyph glyph-name="eth" unicode="&#xf0;" horiz-adv-x="1035" d="M-34 224 L82 224 L42 0 L564 0 C865 0 972 160 972 328 C972 457 888 560 665 560 L143 560 L102 336 L-14 336 L-34 224 Z M649 433 C776 433 815 387 815 311 C815 217 740 127 573 127 L212 127 L229 224 L526 224 L547 336 L248 336 L265 433 L649 433 Z " />
<glyph glyph-name="ntilde" unicode="&#xf1;" horiz-adv-x="1083" d="M922 0 L1021 560 L874 560 L803 155 L280 560 L141 560 L42 0 L188 0 L259 405 L783 0 L922 0 Z M724 804 C716 767 703 754 683 754 C649 754 612 798 552 798 C486 798 436 757 411 636 L492 636 C498 672 511 686 532 686 C565 686 602 641 662 641 C729 641 779 683 805 804 L724 804 Z " />
<glyph glyph-name="ograve" unicode="&#xf2;" horiz-adv-x="1106" d="M622 -8 C927 -8 1040 152 1042 326 C1045 461 960 568 726 568 L464 568 C159 568 48 408 45 234 C42 99 125 -8 360 -8 L622 -8 Z M385 119 C240 119 200 176 201 249 C202 339 270 441 442 441 L702 441 C847 441 886 384 886 311 C886 224 819 119 645 119 L385 119 Z M636 806 L461 806 L597 635 L699 635 L636 806 Z " />
<glyph glyph-name="oacute" unicode="&#xf3;" horiz-adv-x="1106" d="M622 -8 C927 -8 1040 152 1042 326 C1045 461 960 568 726 568 L464 568 C159 568 48 408 45 234 C42 99 125 -8 360 -8 L622 -8 Z M385 119 C240 119 200 176 201 249 C202 339 270 441 442 441 L702 441 C847 441 886 384 886 311 C886 224 819 119 645 119 L385 119 Z M505 635 L618 635 L818 806 L629 806 L505 635 Z " />
<glyph glyph-name="ocircumflex" unicode="&#xf4;" horiz-adv-x="1106" d="M622 -8 C927 -8 1040 152 1042 326 C1045 461 960 568 726 568 L464 568 C159 568 48 408 45 234 C42 99 125 -8 360 -8 L622 -8 Z M385 119 C240 119 200 176 201 249 C202 339 270 441 442 441 L702 441 C847 441 886 384 886 311 C886 224 819 119 645 119 L385 119 Z M403 635 L511 635 L624 728 L701 635 L805 635 L728 806 L542 806 L403 635 Z " />
<glyph glyph-name="otilde" unicode="&#xf5;" horiz-adv-x="1106" d="M622 -8 C927 -8 1040 152 1042 326 C1045 461 960 568 726 568 L464 568 C159 568 48 408 45 234 C42 99 125 -8 360 -8 L622 -8 Z M385 119 C240 119 200 176 201 249 C202 339 270 441 442 441 L702 441 C847 441 886 384 886 311 C886 224 819 119 645 119 L385 119 Z M735 804 C727 767 714 754 694 754 C660 754 623 798 563 798 C497 798 447 757 422 636 L503 636 C509 672 522 686 543 686 C576 686 613 641 673 641 C740 641 790 683 816 804 L735 804 Z " />
<glyph glyph-name="odieresis" unicode="&#xf6;" horiz-adv-x="1106" d="M622 -8 C927 -8 1040 152 1042 326 C1045 461 960 568 726 568 L464 568 C159 568 48 408 45 234 C42 99 125 -8 360 -8 L622 -8 Z M385 119 C240 119 200 176 201 249 C202 339 270 441 442 441 L702 441 C847 441 886 384 886 311 C886 224 819 119 645 119 L385 119 Z M674 645 L822 645 L848 793 L700 793 L674 645 Z M390 645 L538 645 L563 793 L416 793 L390 645 Z " />
<glyph glyph-name="divide" unicode="&#xf7;" horiz-adv-x="1245" d="M272 275 L978 275 L978 425 L272 425 L272 275 Z M541 5 L709 5 L709 173 L541 173 L541 5 Z M541 527 L709 527 L709 695 L541 695 L541 527 Z " />
<glyph glyph-name="oslash" unicode="&#xf8;" horiz-adv-x="1106" d="M622 -8 C927 -8 1040 152 1042 326 C1044 428 995 515 869 550 L950 640 L784 640 L719 568 L464 568 C159 568 48 408 45 234 C42 131 89 46 215 10 L134 -80 L300 -80 L365 -8 L622 -8 Z M886 311 C886 224 819 119 645 119 L479 119 L766 436 C859 421 886 372 886 311 L886 311 Z M201 249 C202 339 270 441 442 441 L604 441 L318 124 C227 139 200 189 201 249 L201 249 Z " />
<glyph glyph-name="ugrave" unicode="&#xf9;" horiz-adv-x="1048" d="M213 258 L268 560 L122 560 L68 258 C40 104 89 -8 345 -8 L601 -8 C823 -8 920 82 948 239 L1005 560 L860 560 L805 256 C788 165 736 119 611 119 L371 119 C217 119 200 170 213 258 L213 258 Z M608 806 L433 806 L569 635 L671 635 L608 806 Z " />
<glyph glyph-name="uacute" unicode="&#xfa;" horiz-adv-x="1048" d="M213 258 L268 560 L122 560 L68 258 C40 104 89 -8 345 -8 L601 -8 C823 -8 920 82 948 239 L1005 560 L860 560 L805 256 C788 165 736 119 611 119 L371 119 C217 119 200 170 213 258 L213 258 Z M477 635 L590 635 L790 806 L601 806 L477 635 Z " />
<glyph glyph-name="ucircumflex" unicode="&#xfb;" horiz-adv-x="1048" d="M213 258 L268 560 L122 560 L68 258 C40 104 89 -8 345 -8 L601 -8 C823 -8 920 82 948 239 L1005 560 L860 560 L805 256 C788 165 736 119 611 119 L371 119 C217 119 200 170 213 258 L213 258 Z M375 635 L483 635 L596 728 L673 635 L777 635 L700 806 L514 806 L375 635 Z " />
<glyph glyph-name="udieresis" unicode="&#xfc;" horiz-adv-x="1048" d="M213 258 L268 560 L122 560 L68 258 C40 104 89 -8 345 -8 L601 -8 C823 -8 920 82 948 239 L1005 560 L860 560 L805 256 C788 165 736 119 611 119 L371 119 C217 119 200 170 213 258 L213 258 Z M646 645 L794 645 L820 793 L672 793 L646 645 Z M362 645 L510 645 L535 793 L388 793 L362 645 Z " />
<glyph glyph-name="yacute" unicode="&#xfd;" horiz-adv-x="1023" d="M379 0 L526 0 L556 171 L1069 560 L847 560 L494 279 L237 560 L34 560 L409 171 L379 0 Z M464 635 L577 635 L777 806 L588 806 L464 635 Z " />
<glyph glyph-name="thorn" unicode="&#xfe;" horiz-adv-x="996" d="M42 0 L188 0 L206 92 L681 92 C886 92 957 198 957 308 C957 397 903 468 749 468 L273 468 L289 560 L143 560 L42 0 Z M721 340 C786 340 801 320 801 291 C801 257 782 220 700 220 L229 220 L250 340 L721 340 Z " />
<glyph glyph-name="ydieresis" unicode="&#xff;" horiz-adv-x="1023" d="M379 0 L526 0 L556 171 L1069 560 L847 560 L494 279 L237 560 L34 560 L409 171 L379 0 Z M633 645 L781 645 L807 793 L659 793 L633 645 Z M349 645 L497 645 L522 793 L375 793 L349 645 Z " />
<glyph glyph-name="Amacron" unicode="&#x100;" horiz-adv-x="1236" d="M980 0 L1174 0 L770 700 L597 700 L-56 0 L152 0 L258 116 L914 116 L980 0 Z M664 558 L838 251 L382 251 L664 558 Z M514 807 L889 807 L908 913 L533 913 L514 807 Z " />
<glyph glyph-name="amacron" unicode="&#x101;" horiz-adv-x="1056" d="M818 0 L993 0 L646 560 L491 560 L-55 0 L131 0 L224 97 L759 97 L818 0 Z M552 440 L692 208 L330 208 L552 440 Z M399 667 L774 667 L793 773 L418 773 L399 667 Z " />
<glyph glyph-name="Abreve" unicode="&#x102;" horiz-adv-x="1236" d="M980 0 L1174 0 L770 700 L597 700 L-56 0 L152 0 L258 116 L914 116 L980 0 Z M664 558 L838 251 L382 251 L664 558 Z M710 877 C647 877 626 906 630 945 L543 945 C532 867 550 775 694 775 C837 775 889 864 907 945 L817 945 C806 906 771 877 710 877 L710 877 Z " />
<glyph glyph-name="abreve" unicode="&#x103;" horiz-adv-x="1056" d="M818 0 L993 0 L646 560 L491 560 L-55 0 L131 0 L224 97 L759 97 L818 0 Z M552 440 L692 208 L330 208 L552 440 Z M595 737 C532 737 511 766 515 805 L428 805 C417 727 435 635 579 635 C722 635 774 724 792 805 L702 805 C691 766 656 737 595 737 L595 737 Z " />
<glyph glyph-name="Aogonek" unicode="&#x104;" horiz-adv-x="1236" d="M788 -192 C788 -247 837 -283 913 -283 C959 -283 1006 -280 1061 -260 L1074 -187 C1036 -202 1019 -205 992 -205 C950 -205 923 -187 923 -151 C923 -86 993 -37 1062 0 L1174 0 L770 700 L597 700 L-56 0 L152 0 L258 116 L914 116 L980 0 C886 -35 788 -99 788 -192 L788 -192 Z M664 558 L838 251 L382 251 L664 558 Z " />
<glyph glyph-name="aogonek" unicode="&#x105;" horiz-adv-x="1056" d="M626 -192 C626 -247 675 -283 751 -283 C797 -283 844 -280 899 -260 L912 -187 C874 -202 857 -205 830 -205 C788 -205 761 -187 761 -151 C761 -86 831 -37 900 0 L993 0 L646 560 L491 560 L-55 0 L131 0 L224 97 L759 97 L818 0 C724 -35 626 -99 626 -192 L626 -192 Z M552 440 L692 208 L330 208 L552 440 Z " />
<glyph glyph-name="Cacute" unicode="&#x106;" horiz-adv-x="1136" d="M238 317 C238 422 289 550 530 550 L1103 550 L1130 700 L545 700 C199 700 61 507 61 296 C61 130 162 0 430 0 L1005 0 L1031 150 L457 150 C287 150 238 223 238 317 L238 317 Z M592 775 L705 775 L905 946 L716 946 L592 775 Z " />
<glyph glyph-name="cacute" unicode="&#x107;" horiz-adv-x="972" d="M202 249 C202 343 278 433 445 433 L927 433 L951 560 L453 560 C152 560 45 400 45 232 C45 102 127 0 352 0 L850 0 L874 127 L368 127 C241 127 202 173 202 249 L202 249 Z M477 635 L590 635 L790 806 L601 806 L477 635 Z " />
<glyph glyph-name="Ccircumflex" unicode="&#x108;" horiz-adv-x="1136" d="M238 317 C238 422 289 550 530 550 L1103 550 L1130 700 L545 700 C199 700 61 507 61 296 C61 130 162 0 430 0 L1005 0 L1031 150 L457 150 C287 150 238 223 238 317 L238 317 Z M490 775 L598 775 L711 868 L788 775 L892 775 L815 946 L629 946 L490 775 Z " />
<glyph glyph-name="ccircumflex" unicode="&#x109;" horiz-adv-x="972" d="M202 249 C202 343 278 433 445 433 L927 433 L951 560 L453 560 C152 560 45 400 45 232 C45 102 127 0 352 0 L850 0 L874 127 L368 127 C241 127 202 173 202 249 L202 249 Z M375 635 L483 635 L596 728 L673 635 L777 635 L700 806 L514 806 L375 635 Z " />
<glyph glyph-name="Cdotaccent" unicode="&#x10a;" horiz-adv-x="1136" d="M238 317 C238 422 289 550 530 550 L1103 550 L1130 700 L545 700 C199 700 61 507 61 296 C61 130 162 0 430 0 L1005 0 L1031 150 L457 150 C287 150 238 223 238 317 L238 317 Z M622 785 L768 785 L794 933 L648 933 L622 785 Z " />
<glyph glyph-name="cdotaccent" unicode="&#x10b;" horiz-adv-x="972" d="M202 249 C202 343 278 433 445 433 L927 433 L951 560 L453 560 C152 560 45 400 45 232 C45 102 127 0 352 0 L850 0 L874 127 L368 127 C241 127 202 173 202 249 L202 249 Z M507 645 L653 645 L679 793 L533 793 L507 645 Z " />
<glyph glyph-name="Ccaron" unicode="&#x10c;" horiz-adv-x="1136" d="M238 317 C238 422 289 550 530 550 L1103 550 L1130 700 L545 700 C199 700 61 507 61 296 C61 130 162 0 430 0 L1005 0 L1031 150 L457 150 C287 150 238 223 238 317 L238 317 Z M925 946 L817 946 L704 853 L627 946 L523 946 L600 775 L786 775 L925 946 Z " />
<glyph glyph-name="ccaron" unicode="&#x10d;" horiz-adv-x="972" d="M202 249 C202 343 278 433 445 433 L927 433 L951 560 L453 560 C152 560 45 400 45 232 C45 102 127 0 352 0 L850 0 L874 127 L368 127 C241 127 202 173 202 249 L202 249 Z M810 806 L702 806 L589 713 L512 806 L408 806 L485 635 L671 635 L810 806 Z " />
<glyph glyph-name="Dcaron" unicode="&#x10e;" horiz-adv-x="1204" d="M52 0 L663 0 C1007 0 1146 193 1146 404 C1146 570 1045 700 777 700 L177 700 L52 0 Z M750 550 C920 550 969 477 969 383 C969 278 918 150 677 150 L241 150 L312 550 L750 550 Z M897 946 L789 946 L676 853 L599 946 L495 946 L572 775 L758 775 L897 946 Z " />
<glyph glyph-name="dcaron" unicode="&#x10f;" horiz-adv-x="1035" d="M42 0 L564 0 C865 0 972 160 972 328 C972 457 888 560 665 560 L143 560 L42 0 Z M649 433 C776 433 815 387 815 311 C815 217 740 127 573 127 L212 127 L265 433 L649 433 Z M794 806 L686 806 L573 713 L496 806 L392 806 L469 635 L655 635 L794 806 Z " />
<glyph glyph-name="Dcroat" unicode="&#x110;" horiz-adv-x="1204" d="M-23 282 L102 282 L52 0 L663 0 C1007 0 1146 193 1146 404 C1146 570 1045 700 777 700 L177 700 L126 418 L2 418 L-23 282 Z M750 550 C920 550 969 477 969 383 C969 278 918 150 677 150 L241 150 L264 282 L610 282 L634 418 L288 418 L312 550 L750 550 Z " />
<glyph glyph-name="dcroat" unicode="&#x111;" horiz-adv-x="1035" d="M-34 224 L82 224 L42 0 L564 0 C865 0 972 160 972 328 C972 457 888 560 665 560 L143 560 L102 336 L-14 336 L-34 224 Z M649 433 C776 433 815 387 815 311 C815 217 740 127 573 127 L212 127 L229 224 L526 224 L547 336 L248 336 L265 433 L649 433 Z " />
<glyph glyph-name="Emacron" unicode="&#x112;" horiz-adv-x="1150" d="M52 0 L1020 0 L1047 150 L244 150 L266 282 L971 282 L996 418 L291 418 L314 550 L1117 550 L1145 700 L177 700 L52 0 Z M480 807 L855 807 L874 913 L499 913 L480 807 Z " />
<glyph glyph-name="emacron" unicode="&#x113;" horiz-adv-x="990" d="M42 0 L866 0 L889 127 L211 127 L227 224 L820 224 L841 336 L248 336 L264 433 L942 433 L965 560 L141 560 L42 0 Z M377 667 L752 667 L771 773 L396 773 L377 667 Z " />
<glyph glyph-name="Ebreve" unicode="&#x114;" horiz-adv-x="1150" d="M52 0 L1020 0 L1047 150 L244 150 L266 282 L971 282 L996 418 L291 418 L314 550 L1117 550 L1145 700 L177 700 L52 0 Z M676 877 C613 877 592 906 596 945 L509 945 C498 867 516 775 660 775 C803 775 855 864 873 945 L783 945 C772 906 737 877 676 877 L676 877 Z " />
<glyph glyph-name="ebreve" unicode="&#x115;" horiz-adv-x="990" d="M42 0 L866 0 L889 127 L211 127 L227 224 L820 224 L841 336 L248 336 L264 433 L942 433 L965 560 L141 560 L42 0 Z M574 737 C511 737 490 766 494 805 L407 805 C396 727 414 635 558 635 C701 635 753 724 771 805 L681 805 C670 766 635 737 574 737 L574 737 Z " />
<glyph glyph-name="Edotaccent" unicode="&#x116;" horiz-adv-x="1150" d="M52 0 L1020 0 L1047 150 L244 150 L266 282 L971 282 L996 418 L291 418 L314 550 L1117 550 L1145 700 L177 700 L52 0 Z M591 785 L737 785 L763 933 L617 933 L591 785 Z " />
<glyph glyph-name="edotaccent" unicode="&#x117;" horiz-adv-x="990" d="M42 0 L866 0 L889 127 L211 127 L227 224 L820 224 L841 336 L248 336 L264 433 L942 433 L965 560 L141 560 L42 0 Z M488 645 L634 645 L660 793 L514 793 L488 645 Z " />
<glyph glyph-name="Eogonek" unicode="&#x118;" horiz-adv-x="1150" d="M52 0 L892 0 C798 -35 700 -99 700 -192 C700 -247 749 -283 825 -283 C871 -283 918 -280 973 -260 L986 -187 C948 -202 931 -205 904 -205 C862 -205 835 -187 835 -151 C835 -86 905 -37 974 0 L1020 0 L1047 150 L244 150 L266 282 L971 282 L996 418 L291 418 L314 550 L1117 550 L1145 700 L177 700 L52 0 Z " />
<glyph glyph-name="eogonek" unicode="&#x119;" horiz-adv-x="990" d="M42 0 L738 0 C644 -35 546 -99 546 -192 C546 -247 595 -283 671 -283 C717 -283 764 -280 819 -260 L832 -187 C794 -202 777 -205 750 -205 C708 -205 681 -187 681 -151 C681 -86 751 -37 820 0 L866 0 L889 127 L211 127 L227 224 L820 224 L841 336 L248 336 L264 433 L942 433 L965 560 L141 560 L42 0 Z " />
<glyph glyph-name="Ecaron" unicode="&#x11a;" horiz-adv-x="1150" d="M52 0 L1020 0 L1047 150 L244 150 L266 282 L971 282 L996 418 L291 418 L314 550 L1117 550 L1145 700 L177 700 L52 0 Z M894 946 L786 946 L673 853 L596 946 L492 946 L569 775 L755 775 L894 946 Z " />
<glyph glyph-name="ecaron" unicode="&#x11b;" horiz-adv-x="990" d="M42 0 L866 0 L889 127 L211 127 L227 224 L820 224 L841 336 L248 336 L264 433 L942 433 L965 560 L141 560 L42 0 Z M791 806 L683 806 L570 713 L493 806 L389 806 L466 635 L652 635 L791 806 Z " />
<glyph glyph-name="Gcircumflex" unicode="&#x11c;" horiz-adv-x="1205" d="M622 282 L948 282 L926 150 L457 150 C287 150 238 223 238 317 C238 422 289 550 530 550 L1103 550 L1130 700 L545 700 C199 700 61 507 61 296 C61 130 162 0 430 0 L1058 0 L1132 418 L647 418 L622 282 Z M499 775 L607 775 L720 868 L797 775 L901 775 L824 946 L638 946 L499 775 Z " />
<glyph glyph-name="gcircumflex" unicode="&#x11d;" horiz-adv-x="1034" d="M352 0 L894 0 L953 336 L539 336 L518 224 L789 224 L774 127 L368 127 C241 127 202 173 202 249 C202 343 278 433 445 433 L926 433 L949 560 L453 560 C152 560 45 400 45 232 C45 102 127 0 352 0 L352 0 Z M378 635 L486 635 L599 728 L676 635 L780 635 L703 806 L517 806 L378 635 Z " />
<glyph glyph-name="Gbreve" unicode="&#x11e;" horiz-adv-x="1205" d="M622 282 L948 282 L926 150 L457 150 C287 150 238 223 238 317 C238 422 289 550 530 550 L1103 550 L1130 700 L545 700 C199 700 61 507 61 296 C61 130 162 0 430 0 L1058 0 L1132 418 L647 418 L622 282 Z M717 877 C654 877 633 906 637 945 L550 945 C539 867 557 775 701 775 C844 775 896 864 914 945 L824 945 C813 906 778 877 717 877 L717 877 Z " />
<glyph glyph-name="gbreve" unicode="&#x11f;" horiz-adv-x="1034" d="M352 0 L894 0 L953 336 L539 336 L518 224 L789 224 L774 127 L368 127 C241 127 202 173 202 249 C202 343 278 433 445 433 L926 433 L949 560 L453 560 C152 560 45 400 45 232 C45 102 127 0 352 0 L352 0 Z M596 737 C533 737 512 766 516 805 L429 805 C418 727 436 635 580 635 C723 635 775 724 793 805 L703 805 C692 766 657 737 596 737 L596 737 Z " />
<glyph glyph-name="Gdotaccent" unicode="&#x120;" horiz-adv-x="1205" d="M622 282 L948 282 L926 150 L457 150 C287 150 238 223 238 317 C238 422 289 550 530 550 L1103 550 L1130 700 L545 700 C199 700 61 507 61 296 C61 130 162 0 430 0 L1058 0 L1132 418 L647 418 L622 282 Z M631 785 L777 785 L803 933 L657 933 L631 785 Z " />
<glyph glyph-name="gdotaccent" unicode="&#x121;" horiz-adv-x="1034" d="M352 0 L894 0 L953 336 L539 336 L518 224 L789 224 L774 127 L368 127 C241 127 202 173 202 249 C202 343 278 433 445 433 L926 433 L949 560 L453 560 C152 560 45 400 45 232 C45 102 127 0 352 0 L352 0 Z M510 645 L656 645 L682 793 L536 793 L510 645 Z " />
<glyph glyph-name="uni0122" unicode="&#x122;" horiz-adv-x="1205" d="M622 282 L948 282 L926 150 L457 150 C287 150 238 223 238 317 C238 422 289 550 530 550 L1103 550 L1130 700 L545 700 C199 700 61 507 61 296 C61 130 162 0 430 0 L1058 0 L1132 418 L647 418 L622 282 Z M465 -236 L515 -236 L423 -368 L492 -368 L610 -223 L634 -88 L492 -88 L465 -236 Z " />
<glyph glyph-name="uni0123" unicode="&#x123;" horiz-adv-x="1034" d="M352 0 L894 0 L953 336 L539 336 L518 224 L789 224 L774 127 L368 127 C241 127 202 173 202 249 C202 343 278 433 445 433 L926 433 L949 560 L453 560 C152 560 45 400 45 232 C45 102 127 0 352 0 L352 0 Z M366 -236 L416 -236 L324 -368 L393 -368 L511 -223 L535 -88 L393 -88 L366 -236 Z " />
<glyph glyph-name="Hcircumflex" unicode="&#x124;" horiz-adv-x="1252" d="M916 0 L1081 0 L1206 700 L1041 700 L992 425 L292 425 L342 700 L177 700 L52 0 L217 0 L264 275 L964 275 L916 0 Z M500 775 L608 775 L721 868 L798 775 L902 775 L825 946 L639 946 L500 775 Z " />
<glyph glyph-name="hcircumflex" unicode="&#x125;" horiz-adv-x="1079" d="M772 0 L918 0 L1017 560 L871 560 L833 344 L251 344 L287 560 L141 560 L42 0 L188 0 L226 216 L809 216 L772 0 Z M390 635 L498 635 L611 728 L688 635 L792 635 L715 806 L529 806 L390 635 Z " />
<glyph glyph-name="Hbar" unicode="&#x126;" horiz-adv-x="1252" d="M50 532 L147 532 L52 0 L217 0 L264 275 L964 275 L916 0 L1081 0 L1176 532 L1272 532 L1283 593 L1187 593 L1206 700 L1041 700 L1022 593 L322 593 L342 700 L177 700 L158 593 L62 593 L50 532 Z M292 425 L311 532 L1011 532 L992 425 L292 425 Z " />
<glyph glyph-name="hbar" unicode="&#x127;" horiz-adv-x="1079" d="M31 422 L116 422 L42 0 L188 0 L226 216 L809 216 L772 0 L918 0 L992 422 L1079 422 L1091 482 L1003 482 L1017 560 L871 560 L857 482 L274 482 L287 560 L141 560 L127 482 L41 482 L31 422 Z M251 344 L264 422 L846 422 L833 344 L251 344 Z " />
<glyph glyph-name="Itilde" unicode="&#x128;" horiz-adv-x="388" d="M52 0 L217 0 L342 700 L177 700 L52 0 Z M399 944 C391 907 378 894 358 894 C324 894 287 938 227 938 C161 938 111 897 86 776 L167 776 C173 812 186 826 207 826 C240 826 277 781 337 781 C404 781 454 823 480 944 L399 944 Z " />
<glyph glyph-name="itilde" unicode="&#x129;" horiz-adv-x="349" d="M42 0 L188 0 L287 560 L141 560 L42 0 Z M355 804 C347 767 334 754 314 754 C280 754 243 798 183 798 C117 798 67 757 42 636 L123 636 C129 672 142 686 163 686 C196 686 233 641 293 641 C360 641 410 683 436 804 L355 804 Z " />
<glyph glyph-name="Imacron" unicode="&#x12a;" horiz-adv-x="388" d="M52 0 L217 0 L342 700 L177 700 L52 0 Z M88 807 L463 807 L482 913 L107 913 L88 807 Z " />
<glyph glyph-name="imacron" unicode="&#x12b;" horiz-adv-x="349" d="M42 0 L188 0 L287 560 L141 560 L42 0 Z M44 667 L419 667 L438 773 L63 773 L44 667 Z " />
<glyph glyph-name="Ibreve" unicode="&#x12c;" horiz-adv-x="388" d="M52 0 L217 0 L342 700 L177 700 L52 0 Z M284 877 C221 877 200 906 204 945 L117 945 C106 867 124 775 268 775 C411 775 463 864 481 945 L391 945 C380 906 345 877 284 877 L284 877 Z " />
<glyph glyph-name="ibreve" unicode="&#x12d;" horiz-adv-x="349" d="M42 0 L188 0 L287 560 L141 560 L42 0 Z M241 737 C178 737 157 766 161 805 L74 805 C63 727 81 635 225 635 C368 635 420 724 438 805 L348 805 C337 766 302 737 241 737 L241 737 Z " />
<glyph glyph-name="Iogonek" unicode="&#x12e;" horiz-adv-x="388" d="M52 0 C-19 -35 -90 -98 -90 -182 C-90 -252 -21 -283 32 -283 C78 -283 125 -280 180 -260 L195 -187 C156 -202 138 -205 111 -205 C62 -205 36 -182 36 -141 C36 -88 70 -39 119 0 L217 0 L342 700 L177 700 L52 0 Z " />
<glyph glyph-name="iogonek" unicode="&#x12f;" horiz-adv-x="349" d="M42 0 C-29 -35 -100 -98 -100 -182 C-100 -252 -31 -283 22 -283 C68 -283 115 -280 170 -260 L185 -187 C146 -202 128 -205 101 -205 C52 -205 26 -182 26 -141 C26 -88 60 -39 109 0 L188 0 L287 560 L141 560 L42 0 Z " />
<glyph glyph-name="Idotaccent" unicode="&#x130;" horiz-adv-x="388" d="M52 0 L217 0 L342 700 L177 700 L52 0 Z M199 785 L345 785 L371 933 L225 933 L199 785 Z " />
<glyph glyph-name="dotlessi" unicode="&#x131;" horiz-adv-x="349" d="M42 0 L188 0 L287 560 L141 560 L42 0 Z " />
<glyph glyph-name="IJ" unicode="&#x132;" horiz-adv-x="1219" d="M112 445 L277 445 L323 700 L158 700 L112 445 Z M358 -5 L698 -5 C979 -5 1088 109 1123 304 L1193 700 L1028 700 L960 332 C939 213 873 145 720 145 L387 145 C255 145 231 199 246 275 L258 336 L93 336 L81 275 C52 124 118 -5 358 -5 L358 -5 Z " />
<glyph glyph-name="ij" unicode="&#x133;" horiz-adv-x="1046" d="M86 356 L232 356 L268 560 L122 560 L86 356 Z M296 -4 L600 -4 C822 -4 919 85 947 243 L1004 560 L858 560 L803 260 C786 169 733 123 608 123 L306 123 C209 123 197 166 206 220 L214 270 L70 270 L61 220 C40 97 88 -4 296 -4 L296 -4 Z " />
<glyph glyph-name="Jcircumflex" unicode="&#x134;" horiz-adv-x="1161" d="M300 -5 L640 -5 C921 -5 1030 109 1065 304 L1135 700 L970 700 L902 332 C881 213 815 145 662 145 L329 145 C197 145 173 199 188 275 L200 336 L35 336 L23 275 C-6 124 60 -5 300 -5 L300 -5 Z M836 775 L944 775 L1057 868 L1134 775 L1238 775 L1161 946 L975 946 L836 775 Z " />
<glyph glyph-name="jcircumflex" unicode="&#x135;" horiz-adv-x="998" d="M248 -4 L552 -4 C774 -4 871 85 899 243 L956 560 L810 560 L755 260 C738 169 685 123 560 123 L258 123 C161 123 149 166 158 220 L166 270 L22 270 L13 220 C-8 97 40 -4 248 -4 L248 -4 Z M668 635 L776 635 L889 728 L966 635 L1070 635 L993 806 L807 806 L668 635 Z " />
<glyph glyph-name="uni0136" unicode="&#x136;" horiz-adv-x="1247" d="M1226 700 L939 700 L270 311 L339 700 L177 700 L52 0 L214 0 L238 133 L541 307 L936 0 L1189 0 L684 388 L1226 700 Z M442 -236 L492 -236 L400 -368 L469 -368 L587 -223 L611 -88 L469 -88 L442 -236 Z " />
<glyph glyph-name="uni0137" unicode="&#x137;" horiz-adv-x="1073" d="M1041 560 L776 560 L233 257 L287 560 L141 560 L42 0 L188 0 L207 101 L459 240 L783 0 L1011 0 L587 310 L1041 560 Z M356 -236 L406 -236 L314 -368 L383 -368 L501 -223 L525 -88 L383 -88 L356 -236 Z " />
<glyph glyph-name="kgreenlandic" unicode="&#x138;" horiz-adv-x="1218" d="M1181 428 L1132 428 L1224 560 L1154 560 L1037 415 L1014 280 L1156 280 L1181 428 Z M1041 560 L776 560 L233 257 L287 560 L141 560 L42 0 L188 0 L207 101 L459 240 L783 0 L1011 0 L587 310 L1041 560 Z " />
<glyph glyph-name="Lacute" unicode="&#x139;" horiz-adv-x="1083" d="M342 700 L177 700 L52 0 L1001 0 L1027 150 L244 150 L342 700 Z M169 775 L282 775 L482 946 L293 946 L169 775 Z " />
<glyph glyph-name="lacute" unicode="&#x13a;" horiz-adv-x="944" d="M287 560 L141 560 L42 0 L850 0 L873 127 L211 127 L287 560 Z M125 635 L238 635 L438 806 L249 806 L125 635 Z " />
<glyph glyph-name="uni013B" unicode="&#x13b;" horiz-adv-x="1083" d="M342 700 L177 700 L52 0 L1001 0 L1027 150 L244 150 L342 700 Z M412 -236 L462 -236 L370 -368 L439 -368 L557 -223 L581 -88 L439 -88 L412 -236 Z " />
<glyph glyph-name="uni013C" unicode="&#x13c;" horiz-adv-x="944" d="M287 560 L141 560 L42 0 L850 0 L873 127 L211 127 L287 560 Z M339 -236 L389 -236 L297 -368 L366 -368 L484 -223 L508 -88 L366 -88 L339 -236 Z " />
<glyph glyph-name="Lcaron" unicode="&#x13d;" horiz-adv-x="1083" d="M342 700 L177 700 L52 0 L1001 0 L1027 150 L244 150 L342 700 Z M832 532 L903 532 L802 375 L875 375 L1001 545 L1030 700 L862 700 L832 532 Z " />
<glyph glyph-name="lcaron" unicode="&#x13e;" horiz-adv-x="944" d="M281 560 L140 560 L42 0 L849 0 L871 127 L204 127 L281 560 Z M708 412 L758 412 L666 280 L735 280 L852 425 L875 560 L733 560 L708 412 Z " />
<glyph glyph-name="Ldot" unicode="&#x13f;" horiz-adv-x="1083" d="M342 700 L177 700 L52 0 L1001 0 L1027 150 L244 150 L342 700 Z M705 352 L851 352 L877 500 L731 500 L705 352 Z " />
<glyph glyph-name="ldot" unicode="&#x140;" horiz-adv-x="944" d="M287 560 L141 560 L42 0 L850 0 L873 127 L211 127 L287 560 Z M598 270 L744 270 L770 418 L624 418 L598 270 Z " />
<glyph glyph-name="Lslash" unicode="&#x141;" horiz-adv-x="1083" d="M623 602 L293 438 L339 700 L177 700 L116 357 L13 312 L-18 143 L88 197 L52 0 L1000 0 L1027 150 L241 150 L262 274 L592 432 L623 602 Z " />
<glyph glyph-name="lslash" unicode="&#x142;" horiz-adv-x="944" d="M525 487 L251 359 L286 560 L141 560 L94 290 L7 254 L-20 111 L71 157 L42 0 L849 0 L872 127 L209 127 L225 220 L497 342 L525 487 Z " />
<glyph glyph-name="Nacute" unicode="&#x143;" horiz-adv-x="1256" d="M928 0 L1085 0 L1210 700 L1044 700 L952 180 L334 700 L177 700 L52 0 L217 0 L308 520 L928 0 Z M604 775 L717 775 L917 946 L728 946 L604 775 Z " />
<glyph glyph-name="nacute" unicode="&#x144;" horiz-adv-x="1083" d="M922 0 L1021 560 L874 560 L803 155 L280 560 L141 560 L42 0 L188 0 L259 405 L783 0 L922 0 Z M494 635 L607 635 L807 806 L618 806 L494 635 Z " />
<glyph glyph-name="uni0145" unicode="&#x145;" horiz-adv-x="1256" d="M928 0 L1085 0 L1210 700 L1044 700 L952 180 L334 700 L177 700 L52 0 L217 0 L308 520 L928 0 Z M455 -236 L505 -236 L413 -368 L482 -368 L600 -223 L624 -88 L482 -88 L455 -236 Z " />
<glyph glyph-name="uni0146" unicode="&#x146;" horiz-adv-x="1083" d="M922 0 L1021 560 L874 560 L803 155 L280 560 L141 560 L42 0 L188 0 L259 405 L783 0 L922 0 Z M368 -236 L418 -236 L326 -368 L395 -368 L513 -223 L537 -88 L395 -88 L368 -236 Z " />
<glyph glyph-name="Ncaron" unicode="&#x147;" horiz-adv-x="1256" d="M928 0 L1085 0 L1210 700 L1044 700 L952 180 L334 700 L177 700 L52 0 L217 0 L308 520 L928 0 Z M937 946 L829 946 L716 853 L639 946 L535 946 L612 775 L798 775 L937 946 Z " />
<glyph glyph-name="ncaron" unicode="&#x148;" horiz-adv-x="1083" d="M922 0 L1021 560 L874 560 L803 155 L280 560 L141 560 L42 0 L188 0 L259 405 L783 0 L922 0 Z M827 806 L719 806 L606 713 L529 806 L425 806 L502 635 L688 635 L827 806 Z " />
<glyph glyph-name="napostrophe" unicode="&#x149;" horiz-adv-x="1332" d="M1171 0 L1270 560 L1123 560 L1052 155 L529 560 L390 560 L291 0 L437 0 L508 405 L1032 0 L1171 0 Z M94 552 L144 552 L52 420 L121 420 L239 565 L263 700 L121 700 L94 552 Z " />
<glyph glyph-name="Eng" unicode="&#x14a;" horiz-adv-x="1256" d="M609 -230 L786 -230 C974 -230 1057 -147 1077 -31 L1210 700 L1044 700 L952 180 L334 700 L177 700 L52 0 L217 0 L308 520 L920 7 L918 -11 C912 -51 878 -80 801 -80 L637 -80 L609 -230 Z " />
<glyph glyph-name="eng" unicode="&#x14b;" horiz-adv-x="1083" d="M518 -184 L683 -184 C835 -184 901 -121 918 -25 L1021 560 L874 560 L803 155 L280 560 L141 560 L42 0 L188 0 L259 405 L776 6 L774 -6 C769 -36 753 -57 691 -57 L542 -57 L518 -184 Z " />
<glyph glyph-name="Omacron" unicode="&#x14c;" horiz-adv-x="1293" d="M734 -10 C1097 -10 1236 179 1236 407 C1236 578 1129 710 857 710 L565 710 C202 710 61 522 61 295 C61 122 171 -10 442 -10 L734 -10 Z M474 140 C293 140 238 216 238 315 C238 429 300 560 554 560 L824 560 C1003 560 1059 484 1059 388 C1059 264 991 140 744 140 L474 140 Z M541 807 L916 807 L935 913 L560 913 L541 807 Z " />
<glyph glyph-name="omacron" unicode="&#x14d;" horiz-adv-x="1106" d="M622 -8 C927 -8 1040 152 1042 326 C1045 461 960 568 726 568 L464 568 C159 568 48 408 45 234 C42 99 125 -8 360 -8 L622 -8 Z M385 119 C240 119 200 176 201 249 C202 339 270 441 442 441 L702 441 C847 441 886 384 886 311 C886 224 819 119 645 119 L385 119 Z M424 667 L799 667 L818 773 L443 773 L424 667 Z " />
<glyph glyph-name="Obreve" unicode="&#x14e;" horiz-adv-x="1293" d="M734 -10 C1097 -10 1236 179 1236 407 C1236 578 1129 710 857 710 L565 710 C202 710 61 522 61 295 C61 122 171 -10 442 -10 L734 -10 Z M474 140 C293 140 238 216 238 315 C238 429 300 560 554 560 L824 560 C1003 560 1059 484 1059 388 C1059 264 991 140 744 140 L474 140 Z M738 877 C675 877 654 906 658 945 L571 945 C560 867 578 775 722 775 C865 775 917 864 935 945 L845 945 C834 906 799 877 738 877 L738 877 Z " />
<glyph glyph-name="obreve" unicode="&#x14f;" horiz-adv-x="1106" d="M622 -8 C927 -8 1040 152 1042 326 C1045 461 960 568 726 568 L464 568 C159 568 48 408 45 234 C42 99 125 -8 360 -8 L622 -8 Z M385 119 C240 119 200 176 201 249 C202 339 270 441 442 441 L702 441 C847 441 886 384 886 311 C886 224 819 119 645 119 L385 119 Z M620 737 C557 737 536 766 540 805 L453 805 C442 727 460 635 604 635 C747 635 799 724 817 805 L727 805 C716 766 681 737 620 737 L620 737 Z " />
<glyph glyph-name="Ohungarumlaut" unicode="&#x150;" horiz-adv-x="1293" d="M734 -10 C1097 -10 1236 179 1236 407 C1236 578 1129 710 857 710 L565 710 C202 710 61 522 61 295 C61 122 171 -10 442 -10 L734 -10 Z M474 140 C293 140 238 216 238 315 C238 429 300 560 554 560 L824 560 C1003 560 1059 484 1059 388 C1059 264 991 140 744 140 L474 140 Z M762 775 L874 775 L1073 946 L888 946 L762 775 Z M489 775 L599 775 L800 946 L614 946 L489 775 Z " />
<glyph glyph-name="ohungarumlaut" unicode="&#x151;" horiz-adv-x="1106" d="M622 -8 C927 -8 1040 152 1042 326 C1045 461 960 568 726 568 L464 568 C159 568 48 408 45 234 C42 99 125 -8 360 -8 L622 -8 Z M385 119 C240 119 200 176 201 249 C202 339 270 441 442 441 L702 441 C847 441 886 384 886 311 C886 224 819 119 645 119 L385 119 Z M644 635 L756 635 L955 806 L770 806 L644 635 Z M371 635 L481 635 L682 806 L496 806 L371 635 Z " />
<glyph glyph-name="OE" unicode="&#x152;" horiz-adv-x="1680" d="M61 296 C58 130 162 0 430 0 L1550 0 L1577 150 L875 150 L898 282 L1502 282 L1527 418 L923 418 L945 550 L1648 550 L1675 700 L555 700 C209 700 64 507 61 296 L61 296 Z M240 317 C242 422 282 550 528 550 L780 550 L710 150 L458 150 C289 150 238 223 240 317 L240 317 Z " />
<glyph glyph-name="oe" unicode="&#x153;" horiz-adv-x="1437" d="M1313 0 L1336 127 L743 127 L759 224 L1267 224 L1288 336 L780 336 L797 433 L1389 433 L1412 560 L453 560 C152 560 45 400 45 232 C45 102 127 0 352 0 L1313 0 Z M202 249 C202 343 278 433 445 433 L652 433 L599 127 L368 127 C241 127 202 173 202 249 L202 249 Z " />
<glyph glyph-name="Racute" unicode="&#x154;" horiz-adv-x="1229" d="M52 0 L214 0 L257 238 L609 238 L919 0 L1170 0 L840 241 C1051 251 1142 364 1142 505 C1142 614 1074 700 893 700 L177 700 L52 0 Z M862 550 C945 550 967 520 967 482 C967 427 932 382 829 382 L282 382 L312 550 L862 550 Z M555 775 L668 775 L868 946 L679 946 L555 775 Z " />
<glyph glyph-name="racute" unicode="&#x155;" horiz-adv-x="1061" d="M42 0 L188 0 L221 187 L521 187 L770 0 L994 0 L725 190 C900 201 966 298 966 402 C966 489 911 560 756 560 L143 560 L42 0 Z M728 433 C796 433 810 408 810 381 C810 348 791 309 705 309 L244 309 L265 433 L728 433 Z M452 635 L565 635 L765 806 L576 806 L452 635 Z " />
<glyph glyph-name="uni0156" unicode="&#x156;" horiz-adv-x="1229" d="M52 0 L214 0 L257 238 L609 238 L919 0 L1170 0 L840 241 C1051 251 1142 364 1142 505 C1142 614 1074 700 893 700 L177 700 L52 0 Z M862 550 C945 550 967 520 967 482 C967 427 932 382 829 382 L282 382 L312 550 L862 550 Z M433 -236 L483 -236 L391 -368 L460 -368 L578 -223 L602 -88 L460 -88 L433 -236 Z " />
<glyph glyph-name="uni0157" unicode="&#x157;" horiz-adv-x="1061" d="M42 0 L188 0 L221 187 L521 187 L770 0 L994 0 L725 190 C900 201 966 298 966 402 C966 489 911 560 756 560 L143 560 L42 0 Z M728 433 C796 433 810 408 810 381 C810 348 791 309 705 309 L244 309 L265 433 L728 433 Z M348 -236 L398 -236 L306 -368 L375 -368 L493 -223 L517 -88 L375 -88 L348 -236 Z " />
<glyph glyph-name="Rcaron" unicode="&#x158;" horiz-adv-x="1229" d="M52 0 L214 0 L257 238 L609 238 L919 0 L1170 0 L840 241 C1051 251 1142 364 1142 505 C1142 614 1074 700 893 700 L177 700 L52 0 Z M862 550 C945 550 967 520 967 482 C967 427 932 382 829 382 L282 382 L312 550 L862 550 Z M888 946 L780 946 L667 853 L590 946 L486 946 L563 775 L749 775 L888 946 Z " />
<glyph glyph-name="rcaron" unicode="&#x159;" horiz-adv-x="1061" d="M42 0 L188 0 L221 187 L521 187 L770 0 L994 0 L725 190 C900 201 966 298 966 402 C966 489 911 560 756 560 L143 560 L42 0 Z M728 433 C796 433 810 408 810 381 C810 348 791 309 705 309 L244 309 L265 433 L728 433 Z M785 806 L677 806 L564 713 L487 806 L383 806 L460 635 L646 635 L785 806 Z " />
<glyph glyph-name="Sacute" unicode="&#x15a;" horiz-adv-x="1158" d="M798 150 L70 150 L42 0 L775 0 C989 0 1077 108 1077 241 C1077 341 1013 418 848 418 L344 418 C277 418 263 444 263 473 C263 513 287 550 366 550 L1094 550 L1122 700 L389 700 C175 700 87 592 87 459 C87 359 152 282 315 282 L820 282 C887 282 901 256 901 227 C901 187 877 150 798 150 L798 150 Z M555 775 L668 775 L868 946 L679 946 L555 775 Z " />
<glyph glyph-name="sacute" unicode="&#x15b;" horiz-adv-x="989" d="M673 127 L53 127 L29 0 L657 0 C846 0 907 92 907 196 C907 275 856 334 717 334 L280 334 C229 334 216 353 216 374 C216 402 234 433 298 433 L918 433 L942 560 L314 560 C125 560 63 468 63 365 C63 285 115 226 253 226 L690 226 C741 226 754 207 754 186 C754 159 737 127 673 127 L673 127 Z M447 635 L560 635 L760 806 L571 806 L447 635 Z " />
<glyph glyph-name="Scircumflex" unicode="&#x15c;" horiz-adv-x="1158" d="M798 150 L70 150 L42 0 L775 0 C989 0 1077 108 1077 241 C1077 341 1013 418 848 418 L344 418 C277 418 263 444 263 473 C263 513 287 550 366 550 L1094 550 L1122 700 L389 700 C175 700 87 592 87 459 C87 359 152 282 315 282 L820 282 C887 282 901 256 901 227 C901 187 877 150 798 150 L798 150 Z M453 775 L561 775 L674 868 L751 775 L855 775 L778 946 L592 946 L453 775 Z " />
<glyph glyph-name="scircumflex" unicode="&#x15d;" horiz-adv-x="989" d="M673 127 L53 127 L29 0 L657 0 C846 0 907 92 907 196 C907 275 856 334 717 334 L280 334 C229 334 216 353 216 374 C216 402 234 433 298 433 L918 433 L942 560 L314 560 C125 560 63 468 63 365 C63 285 115 226 253 226 L690 226 C741 226 754 207 754 186 C754 159 737 127 673 127 L673 127 Z M345 635 L453 635 L566 728 L643 635 L747 635 L670 806 L484 806 L345 635 Z " />
<glyph glyph-name="Scedilla" unicode="&#x15e;" horiz-adv-x="1158" d="M425 -135 L464 -135 C507 -135 530 -143 530 -167 C530 -207 480 -215 432 -215 C397 -215 365 -204 350 -192 L336 -263 C361 -278 408 -293 458 -292 C546 -291 642 -265 642 -159 C642 -91 573 -65 509 -71 L542 0 L775 0 C989 0 1077 108 1077 241 C1077 341 1013 418 848 418 L344 418 C277 418 263 444 263 473 C263 513 287 550 366 550 L1094 550 L1122 700 L389 700 C175 700 87 592 87 459 C87 359 152 282 315 282 L820 282 C887 282 901 256 901 227 C901 187 877 150 798 150 L70 150 L42 0 L484 0 L425 -135 Z " />
<glyph glyph-name="scedilla" unicode="&#x15f;" horiz-adv-x="989" d="M341 -135 L380 -135 C423 -135 446 -143 446 -167 C446 -207 396 -215 348 -215 C313 -215 281 -204 266 -192 L252 -263 C277 -278 324 -293 374 -292 C462 -291 558 -265 558 -159 C558 -91 489 -65 425 -71 L458 0 L657 0 C846 0 907 92 907 196 C907 275 856 334 717 334 L280 334 C229 334 216 353 216 374 C216 402 234 433 298 433 L918 433 L942 560 L314 560 C125 560 63 468 63 365 C63 285 115 226 253 226 L690 226 C741 226 754 207 754 186 C754 159 737 127 673 127 L53 127 L29 0 L400 0 L341 -135 Z " />
<glyph glyph-name="Scaron" unicode="&#x160;" horiz-adv-x="1158" d="M798 150 L70 150 L42 0 L775 0 C989 0 1077 108 1077 241 C1077 341 1013 418 848 418 L344 418 C277 418 263 444 263 473 C263 513 287 550 366 550 L1094 550 L1122 700 L389 700 C175 700 87 592 87 459 C87 359 152 282 315 282 L820 282 C887 282 901 256 901 227 C901 187 877 150 798 150 L798 150 Z M888 946 L780 946 L667 853 L590 946 L486 946 L563 775 L749 775 L888 946 Z " />
<glyph glyph-name="scaron" unicode="&#x161;" horiz-adv-x="989" d="M673 127 L53 127 L29 0 L657 0 C846 0 907 92 907 196 C907 275 856 334 717 334 L280 334 C229 334 216 353 216 374 C216 402 234 433 298 433 L918 433 L942 560 L314 560 C125 560 63 468 63 365 C63 285 115 226 253 226 L690 226 C741 226 754 207 754 186 C754 159 737 127 673 127 L673 127 Z M780 806 L672 806 L559 713 L482 806 L378 806 L455 635 L641 635 L780 806 Z " />
<glyph glyph-name="uni0162" unicode="&#x162;" horiz-adv-x="1136" d="M414 -135 L453 -135 C496 -135 519 -143 519 -167 C519 -207 469 -215 421 -215 C386 -215 354 -204 339 -192 L325 -263 C350 -278 397 -293 447 -292 C535 -291 631 -265 631 -159 C631 -91 562 -65 498 -71 L531 0 L591 0 L688 550 L1151 550 L1178 700 L89 700 L61 550 L523 550 L425 0 L473 0 L414 -135 Z " />
<glyph glyph-name="uni0163" unicode="&#x163;" horiz-adv-x="996" d="M345 -135 L384 -135 C427 -135 450 -143 450 -167 C450 -207 400 -215 352 -215 C317 -215 285 -204 270 -192 L256 -263 C281 -278 328 -293 378 -292 C466 -291 562 -265 562 -159 C562 -91 493 -65 429 -71 L462 0 L512 0 L588 433 L978 433 L1001 560 L75 560 L52 433 L441 433 L366 0 L404 0 L345 -135 Z " />
<glyph glyph-name="Tcaron" unicode="&#x164;" horiz-adv-x="1136" d="M61 550 L523 550 L425 0 L591 0 L688 550 L1151 550 L1178 700 L89 700 L61 550 Z M877 946 L769 946 L656 853 L579 946 L475 946 L552 775 L738 775 L877 946 Z " />
<glyph glyph-name="tcaron" unicode="&#x165;" horiz-adv-x="996" d="M52 433 L441 433 L366 0 L512 0 L588 433 L978 433 L1001 560 L75 560 L52 433 Z M784 806 L676 806 L563 713 L486 806 L382 806 L459 635 L645 635 L784 806 Z " />
<glyph glyph-name="Tbar" unicode="&#x166;" horiz-adv-x="1136" d="M61 550 L523 550 L499 414 L266 414 L242 286 L476 286 L425 0 L591 0 L641 286 L874 286 L898 414 L664 414 L688 550 L1151 550 L1178 700 L89 700 L61 550 Z " />
<glyph glyph-name="tbar" unicode="&#x167;" horiz-adv-x="996" d="M52 433 L441 433 L421 321 L215 321 L195 213 L403 213 L366 0 L512 0 L549 213 L756 213 L776 321 L568 321 L588 433 L978 433 L1001 560 L75 560 L52 433 Z " />
<glyph glyph-name="Utilde" unicode="&#x168;" horiz-adv-x="1223" d="M254 323 L323 700 L158 700 L89 323 C54 130 130 -10 417 -10 L700 -10 C981 -10 1093 115 1127 306 L1197 700 L1032 700 L966 334 C944 215 877 140 724 140 L436 140 C271 140 236 216 254 323 L254 323 Z M818 944 C810 907 797 894 777 894 C743 894 706 938 646 938 C580 938 530 897 505 776 L586 776 C592 812 605 826 626 826 C659 826 696 781 756 781 C823 781 873 823 899 944 L818 944 Z " />
<glyph glyph-name="utilde" unicode="&#x169;" horiz-adv-x="1048" d="M213 258 L268 560 L122 560 L68 258 C40 104 89 -8 345 -8 L601 -8 C823 -8 920 82 948 239 L1005 560 L860 560 L805 256 C788 165 736 119 611 119 L371 119 C217 119 200 170 213 258 L213 258 Z M707 804 C699 767 686 754 666 754 C632 754 595 798 535 798 C469 798 419 757 394 636 L475 636 C481 672 494 686 515 686 C548 686 585 641 645 641 C712 641 762 683 788 804 L707 804 Z " />
<glyph glyph-name="Umacron" unicode="&#x16a;" horiz-adv-x="1223" d="M254 323 L323 700 L158 700 L89 323 C54 130 130 -10 417 -10 L700 -10 C981 -10 1093 115 1127 306 L1197 700 L1032 700 L966 334 C944 215 877 140 724 140 L436 140 C271 140 236 216 254 323 L254 323 Z M507 807 L882 807 L901 913 L526 913 L507 807 Z " />
<glyph glyph-name="umacron" unicode="&#x16b;" horiz-adv-x="1048" d="M213 258 L268 560 L122 560 L68 258 C40 104 89 -8 345 -8 L601 -8 C823 -8 920 82 948 239 L1005 560 L860 560 L805 256 C788 165 736 119 611 119 L371 119 C217 119 200 170 213 258 L213 258 Z M396 667 L771 667 L790 773 L415 773 L396 667 Z " />
<glyph glyph-name="Ubreve" unicode="&#x16c;" horiz-adv-x="1223" d="M254 323 L323 700 L158 700 L89 323 C54 130 130 -10 417 -10 L700 -10 C981 -10 1093 115 1127 306 L1197 700 L1032 700 L966 334 C944 215 877 140 724 140 L436 140 C271 140 236 216 254 323 L254 323 Z M703 877 C640 877 619 906 623 945 L536 945 C525 867 543 775 687 775 C830 775 882 864 900 945 L810 945 C799 906 764 877 703 877 L703 877 Z " />
<glyph glyph-name="ubreve" unicode="&#x16d;" horiz-adv-x="1048" d="M213 258 L268 560 L122 560 L68 258 C40 104 89 -8 345 -8 L601 -8 C823 -8 920 82 948 239 L1005 560 L860 560 L805 256 C788 165 736 119 611 119 L371 119 C217 119 200 170 213 258 L213 258 Z M592 737 C529 737 508 766 512 805 L425 805 C414 727 432 635 576 635 C719 635 771 724 789 805 L699 805 C688 766 653 737 592 737 L592 737 Z " />
<glyph glyph-name="Uring" unicode="&#x16e;" horiz-adv-x="1223" d="M254 323 L323 700 L158 700 L89 323 C54 130 130 -10 417 -10 L700 -10 C981 -10 1093 115 1127 306 L1197 700 L1032 700 L966 334 C944 215 877 140 724 140 L436 140 C271 140 236 216 254 323 L254 323 Z M662 858 C662 882 684 900 707 900 C727 900 742 884 742 864 C742 840 721 821 699 821 C678 821 662 838 662 858 L662 858 Z M571 853 C570 791 616 744 691 744 C772 744 835 801 835 871 C835 931 787 978 715 978 C632 978 572 922 571 853 L571 853 Z " />
<glyph glyph-name="uring" unicode="&#x16f;" horiz-adv-x="1048" d="M213 258 L268 560 L122 560 L68 258 C40 104 89 -8 345 -8 L601 -8 C823 -8 920 82 948 239 L1005 560 L860 560 L805 256 C788 165 736 119 611 119 L371 119 C217 119 200 170 213 258 L213 258 Z M551 718 C551 742 573 760 596 760 C616 760 631 744 631 724 C631 700 610 681 588 681 C567 681 551 698 551 718 L551 718 Z M460 713 C459 651 505 604 580 604 C661 604 724 661 724 731 C724 791 676 838 604 838 C521 838 461 782 460 713 L460 713 Z " />
<glyph glyph-name="Uhungarumlaut" unicode="&#x170;" horiz-adv-x="1223" d="M254 323 L323 700 L158 700 L89 323 C54 130 130 -10 417 -10 L700 -10 C981 -10 1093 115 1127 306 L1197 700 L1032 700 L966 334 C944 215 877 140 724 140 L436 140 C271 140 236 216 254 323 L254 323 Z M727 775 L839 775 L1038 946 L853 946 L727 775 Z M454 775 L564 775 L765 946 L579 946 L454 775 Z " />
<glyph glyph-name="uhungarumlaut" unicode="&#x171;" horiz-adv-x="1048" d="M213 258 L268 560 L122 560 L68 258 C40 104 89 -8 345 -8 L601 -8 C823 -8 920 82 948 239 L1005 560 L860 560 L805 256 C788 165 736 119 611 119 L371 119 C217 119 200 170 213 258 L213 258 Z M616 635 L728 635 L927 806 L742 806 L616 635 Z M343 635 L453 635 L654 806 L468 806 L343 635 Z " />
<glyph glyph-name="Uogonek" unicode="&#x172;" horiz-adv-x="1223" d="M521 -192 C521 -247 570 -283 646 -283 C692 -283 739 -280 794 -260 L807 -187 C769 -202 752 -205 725 -205 C683 -205 656 -187 656 -151 C656 -89 718 -42 783 -6 C1004 17 1096 135 1127 306 L1197 700 L1032 700 L966 334 C944 215 877 140 724 140 L436 140 C271 140 236 216 254 323 L323 700 L158 700 L89 323 C54 130 130 -10 417 -10 L688 -10 C603 -46 521 -107 521 -192 L521 -192 Z " />
<glyph glyph-name="uogonek" unicode="&#x173;" horiz-adv-x="1048" d="M404 -192 C404 -247 453 -283 529 -283 C575 -283 622 -280 677 -260 L690 -187 C652 -202 635 -205 608 -205 C566 -205 539 -187 539 -151 C539 -89 602 -41 668 -5 C843 12 923 99 948 239 L1005 560 L860 560 L805 256 C788 165 736 119 611 119 L371 119 C217 119 200 170 213 258 L268 560 L122 560 L68 258 C40 104 89 -8 345 -8 L576 -8 C488 -44 404 -105 404 -192 L404 -192 Z " />
<glyph glyph-name="Wcircumflex" unicode="&#x174;" horiz-adv-x="1552" d="M803 495 L972 0 L1094 0 L1603 700 L1395 700 L1059 206 L894 700 L772 700 L430 206 L270 700 L81 700 L339 0 L461 0 L803 495 Z M650 775 L758 775 L871 868 L948 775 L1052 775 L975 946 L789 946 L650 775 Z " />
<glyph glyph-name="wcircumflex" unicode="&#x175;" horiz-adv-x="1326" d="M670 385 L817 0 L925 0 L1350 560 L1169 560 L894 175 L751 560 L643 560 L365 175 L225 560 L55 560 L282 0 L390 0 L670 385 Z M513 635 L621 635 L734 728 L811 635 L915 635 L838 806 L652 806 L513 635 Z " />
<glyph glyph-name="Ycircumflex" unicode="&#x176;" horiz-adv-x="1204" d="M460 0 L625 0 L662 213 L1276 700 L1024 700 L595 342 L289 700 L60 700 L497 213 L460 0 Z M476 775 L584 775 L697 868 L774 775 L878 775 L801 946 L615 946 L476 775 Z " />
<glyph glyph-name="ycircumflex" unicode="&#x177;" horiz-adv-x="1023" d="M379 0 L526 0 L556 171 L1069 560 L847 560 L494 279 L237 560 L34 560 L409 171 L379 0 Z M362 635 L470 635 L583 728 L660 635 L764 635 L687 806 L501 806 L362 635 Z " />
<glyph glyph-name="Ydieresis" unicode="&#x178;" horiz-adv-x="1204" d="M460 0 L625 0 L662 213 L1276 700 L1024 700 L595 342 L289 700 L60 700 L497 213 L460 0 Z M747 785 L895 785 L921 933 L773 933 L747 785 Z M463 785 L611 785 L636 933 L489 933 L463 785 Z " />
<glyph glyph-name="Zacute" unicode="&#x179;" horiz-adv-x="1153" d="M9 0 L1040 0 L1067 150 L364 150 L1124 584 L1141 700 L139 700 L111 550 L785 550 L25 116 L9 0 Z M553 775 L666 775 L866 946 L677 946 L553 775 Z " />
<glyph glyph-name="zacute" unicode="&#x17a;" horiz-adv-x="986" d="M2 0 L880 0 L903 127 L317 127 L946 462 L959 560 L105 560 L82 433 L641 433 L14 98 L2 0 Z M446 635 L559 635 L759 806 L570 806 L446 635 Z " />
<glyph glyph-name="Zdotaccent" unicode="&#x17b;" horiz-adv-x="1153" d="M9 0 L1040 0 L1067 150 L364 150 L1124 584 L1141 700 L139 700 L111 550 L785 550 L25 116 L9 0 Z M583 785 L729 785 L755 933 L609 933 L583 785 Z " />
<glyph glyph-name="zdotaccent" unicode="&#x17c;" horiz-adv-x="986" d="M2 0 L880 0 L903 127 L317 127 L946 462 L959 560 L105 560 L82 433 L641 433 L14 98 L2 0 Z M476 645 L622 645 L648 793 L502 793 L476 645 Z " />
<glyph glyph-name="Zcaron" unicode="&#x17d;" horiz-adv-x="1153" d="M9 0 L1040 0 L1067 150 L364 150 L1124 584 L1141 700 L139 700 L111 550 L785 550 L25 116 L9 0 Z M886 946 L778 946 L665 853 L588 946 L484 946 L561 775 L747 775 L886 946 Z " />
<glyph glyph-name="zcaron" unicode="&#x17e;" horiz-adv-x="986" d="M2 0 L880 0 L903 127 L317 127 L946 462 L959 560 L105 560 L82 433 L641 433 L14 98 L2 0 Z M779 806 L671 806 L558 713 L481 806 L377 806 L454 635 L640 635 L779 806 Z " />
<glyph glyph-name="uni0186" unicode="&#x186;" horiz-adv-x="1136" d="M902 383 C902 278 851 150 610 150 L37 150 L10 0 L595 0 C941 0 1079 193 1079 404 C1079 570 978 700 710 700 L135 700 L109 550 L683 550 C853 550 902 477 902 383 L902 383 Z " />
<glyph glyph-name="uni0189" unicode="&#x189;" horiz-adv-x="1204" d="M-23 282 L102 282 L52 0 L663 0 C1007 0 1146 193 1146 404 C1146 570 1045 700 777 700 L177 700 L126 418 L2 418 L-23 282 Z M750 550 C920 550 969 477 969 383 C969 278 918 150 677 150 L241 150 L264 282 L610 282 L634 418 L288 418 L312 550 L750 550 Z " />
<glyph glyph-name="uni018E" unicode="&#x18e;" horiz-adv-x="1150" d="M1105 700 L137 700 L109 550 L912 550 L889 418 L184 418 L159 282 L864 282 L841 150 L38 150 L11 0 L979 0 L1105 700 Z " />
<glyph glyph-name="florin" unicode="&#x192;" horiz-adv-x="1245" d="M393 110 C373 38 323 -10 226 -10 L106 -10 L77 -160 L222 -160 C416 -160 511 -59 552 88 L604 279 L893 279 L919 414 L640 414 L645 430 C664 499 707 550 811 550 L1127 550 L1154 700 L829 700 C622 700 525 589 487 452 L476 414 L299 414 L274 279 L439 279 L393 110 Z " />
<glyph glyph-name="Ohorn" unicode="&#x1a0;" horiz-adv-x="1293" d="M734 -10 C1097 -10 1236 179 1236 407 C1236 489 1211 563 1154 617 L1173 617 C1273 617 1358 639 1379 763 C1382 781 1384 803 1384 826 L1235 826 C1235 805 1233 789 1230 774 C1219 710 1187 700 1145 700 L976 700 C941 706 901 710 857 710 L565 710 C202 710 61 522 61 295 C61 122 171 -10 442 -10 L734 -10 Z M474 140 C293 140 238 216 238 315 C238 429 300 560 554 560 L824 560 C1003 560 1059 484 1059 388 C1059 264 991 140 744 140 L474 140 Z " />
<glyph glyph-name="ohorn" unicode="&#x1a1;" horiz-adv-x="1106" d="M622 -8 C927 -8 1040 152 1042 326 C1043 383 1028 436 993 477 C1079 482 1150 511 1169 623 C1172 641 1174 663 1174 686 L1025 686 C1025 665 1023 649 1020 634 C1009 570 977 560 935 560 L827 560 C797 565 763 568 726 568 L464 568 C159 568 48 408 45 234 C42 99 125 -8 360 -8 L622 -8 Z M385 119 C240 119 200 176 201 249 C202 339 270 441 442 441 L702 441 C847 441 886 384 886 311 C886 224 819 119 645 119 L385 119 Z " />
<glyph glyph-name="uni01A7" unicode="&#x1a7;" horiz-adv-x="1158" d="M1025 150 L295 150 C227 150 213 177 213 206 C213 246 237 282 317 282 L825 282 C1043 282 1127 397 1127 525 C1127 624 1065 700 900 700 L167 700 L139 550 L869 550 C937 550 951 523 951 494 C951 454 927 418 847 418 L339 418 C121 418 37 303 37 175 C37 76 99 0 264 0 L997 0 L1025 150 Z " />
<glyph glyph-name="uni01A8" unicode="&#x1a8;" horiz-adv-x="989" d="M865 127 L244 127 C192 127 179 147 179 168 C179 194 197 226 261 226 L697 226 C887 226 948 318 948 422 C948 501 896 560 758 560 L130 560 L105 433 L726 433 C778 433 791 413 791 392 C791 366 773 334 710 334 L273 334 C84 334 23 242 23 138 C23 60 74 0 213 0 L841 0 L865 127 Z " />
<glyph glyph-name="Uhorn" unicode="&#x1af;" horiz-adv-x="1367" d="M254 323 L323 700 L158 700 L89 323 C54 130 130 -10 417 -10 L700 -10 C981 -10 1093 115 1127 306 L1182 617 L1242 617 C1342 617 1427 639 1448 763 C1451 781 1453 803 1453 826 L1304 826 C1304 805 1302 789 1299 774 C1288 710 1256 700 1214 700 L1032 700 L966 334 C944 215 877 140 724 140 L436 140 C271 140 236 216 254 323 L254 323 Z " />
<glyph glyph-name="uhorn" unicode="&#x1b0;" horiz-adv-x="1202" d="M213 258 L268 560 L122 560 L68 258 C40 104 89 -8 345 -8 L601 -8 C823 -8 920 82 948 239 L990 477 L1053 477 C1153 477 1238 499 1259 623 C1262 641 1264 663 1264 686 L1115 686 C1115 665 1113 649 1110 634 C1099 570 1067 560 1025 560 L860 560 L805 256 C788 165 736 119 611 119 L371 119 C217 119 200 170 213 258 L213 258 Z " />
<glyph glyph-name="uni01B1" unicode="&#x1b1;" horiz-adv-x="1301" d="M841 576 C991 553 1057 474 1057 381 C1057 274 1000 140 759 140 L471 140 C299 140 249 212 249 306 C249 423 339 552 551 576 L572 700 L126 700 L98 550 L226 550 C119 471 79 364 79 254 C79 107 174 -10 414 -10 L765 -10 C1084 -10 1213 170 1213 363 C1213 435 1188 506 1140 550 L1278 550 L1306 700 L861 700 L841 576 Z " />
<glyph glyph-name="uni01C0" unicode="&#x1c0;" horiz-adv-x="357" d="M333 800 L195 800 L33 -100 L172 -100 L333 800 Z " />
<glyph glyph-name="uni01C1" unicode="&#x1c1;" horiz-adv-x="711" d="M333 800 L195 800 L33 -100 L172 -100 L333 800 Z M694 800 L555 800 L394 -100 L533 -100 L694 800 Z " />
<glyph glyph-name="uni01C2" unicode="&#x1c2;" horiz-adv-x="692" d="M379 137 L621 137 L643 261 L402 261 L432 439 L674 439 L697 563 L455 563 L499 800 L359 800 L316 563 L75 563 L52 439 L293 439 L263 261 L21 261 L-1 137 L240 137 L198 -100 L337 -100 L379 137 Z " />
<glyph glyph-name="uni01C3" unicode="&#x1c3;" horiz-adv-x="375" d="M46 0 L211 0 L242 168 L76 168 L46 0 Z M96 231 L239 231 L334 700 L173 700 L96 231 Z " />
<glyph glyph-name="uni01C4" unicode="&#x1c4;" horiz-adv-x="2356" d="M52 0 L663 0 C1007 0 1146 193 1146 404 C1146 570 1045 700 777 700 L177 700 L52 0 Z M750 550 C920 550 969 477 969 383 C969 278 918 150 677 150 L241 150 L312 550 L750 550 Z M1213 0 L2244 0 L2271 150 L1568 150 L2328 584 L2345 700 L1343 700 L1315 550 L1989 550 L1229 116 L1213 0 Z M2090 946 L1982 946 L1869 853 L1792 946 L1688 946 L1765 775 L1951 775 L2090 946 Z " />
<glyph glyph-name="uni01C5" unicode="&#x1c5;" horiz-adv-x="2190" d="M52 0 L663 0 C1007 0 1146 193 1146 404 C1146 570 1045 700 777 700 L177 700 L52 0 Z M750 550 C920 550 969 477 969 383 C969 278 918 150 677 150 L241 150 L312 550 L750 550 Z M1206 0 L2084 0 L2107 127 L1521 127 L2150 462 L2163 560 L1309 560 L1286 433 L1845 433 L1218 98 L1206 0 Z M1983 806 L1875 806 L1762 713 L1685 806 L1581 806 L1658 635 L1844 635 L1983 806 Z " />
<glyph glyph-name="uni01C6" unicode="&#x1c6;" horiz-adv-x="2021" d="M42 0 L564 0 C865 0 972 160 972 328 C972 457 888 560 665 560 L143 560 L42 0 Z M649 433 C776 433 815 387 815 311 C815 217 740 127 573 127 L212 127 L265 433 L649 433 Z M1037 0 L1915 0 L1938 127 L1352 127 L1981 462 L1994 560 L1140 560 L1117 433 L1676 433 L1049 98 L1037 0 Z M1814 806 L1706 806 L1593 713 L1516 806 L1412 806 L1489 635 L1675 635 L1814 806 Z " />
<glyph glyph-name="uni01C7" unicode="&#x1c7;" horiz-adv-x="2244" d="M1383 -5 L1723 -5 C2004 -5 2113 109 2148 304 L2218 700 L2053 700 L1985 332 C1964 213 1898 145 1745 145 L1412 145 C1280 145 1256 199 1271 275 L1283 336 L1118 336 L1106 275 C1077 124 1143 -5 1383 -5 L1383 -5 Z M342 700 L177 700 L52 0 L1001 0 L1027 150 L244 150 L342 700 Z " />
<glyph glyph-name="uni01C8" unicode="&#x1c8;" horiz-adv-x="2081" d="M342 700 L177 700 L52 0 L1001 0 L1027 150 L244 150 L342 700 Z M1331 -4 L1635 -4 C1857 -4 1954 85 1982 243 L2039 560 L1893 560 L1838 260 C1821 169 1768 123 1643 123 L1341 123 C1244 123 1232 166 1241 220 L1249 270 L1105 270 L1096 220 C1075 97 1123 -4 1331 -4 L1331 -4 Z " />
<glyph glyph-name="uni01C9" unicode="&#x1c9;" horiz-adv-x="1944" d="M1192 -4 L1496 -4 C1718 -4 1815 85 1843 243 L1900 560 L1754 560 L1699 260 C1682 169 1629 123 1504 123 L1202 123 C1105 123 1093 166 1102 220 L1110 270 L966 270 L957 220 C936 97 984 -4 1192 -4 L1192 -4 Z M287 560 L141 560 L42 0 L850 0 L873 127 L211 127 L287 560 Z " />
<glyph glyph-name="uni01CA" unicode="&#x1ca;" horiz-adv-x="2417" d="M1556 -5 L1896 -5 C2177 -5 2286 109 2321 304 L2391 700 L2226 700 L2158 332 C2137 213 2071 145 1918 145 L1585 145 C1453 145 1429 199 1444 275 L1456 336 L1291 336 L1279 275 C1250 124 1316 -5 1556 -5 L1556 -5 Z M928 0 L1085 0 L1210 700 L1044 700 L952 180 L334 700 L177 700 L52 0 L217 0 L308 520 L928 0 Z " />
<glyph glyph-name="uni01CB" unicode="&#x1cb;" horiz-adv-x="2254" d="M928 0 L1085 0 L1210 700 L1044 700 L952 180 L334 700 L177 700 L52 0 L217 0 L308 520 L928 0 Z M1504 -4 L1808 -4 C2030 -4 2127 85 2155 243 L2212 560 L2066 560 L2011 260 C1994 169 1941 123 1816 123 L1514 123 C1417 123 1405 166 1414 220 L1422 270 L1278 270 L1269 220 C1248 97 1296 -4 1504 -4 L1504 -4 Z " />
<glyph glyph-name="uni01CC" unicode="&#x1cc;" horiz-adv-x="2081" d="M1331 -4 L1635 -4 C1857 -4 1954 85 1982 243 L2039 560 L1893 560 L1838 260 C1821 169 1768 123 1643 123 L1341 123 C1244 123 1232 166 1241 220 L1249 270 L1105 270 L1096 220 C1075 97 1123 -4 1331 -4 L1331 -4 Z M922 0 L1021 560 L874 560 L803 155 L280 560 L141 560 L42 0 L188 0 L259 405 L783 0 L922 0 Z " />
<glyph glyph-name="uni01CD" unicode="&#x1cd;" horiz-adv-x="1236" d="M980 0 L1174 0 L770 700 L597 700 L-56 0 L152 0 L258 116 L914 116 L980 0 Z M664 558 L838 251 L382 251 L664 558 Z M928 946 L820 946 L707 853 L630 946 L526 946 L603 775 L789 775 L928 946 Z " />
<glyph glyph-name="uni01CE" unicode="&#x1ce;" horiz-adv-x="1056" d="M818 0 L993 0 L646 560 L491 560 L-55 0 L131 0 L224 97 L759 97 L818 0 Z M552 440 L692 208 L330 208 L552 440 Z M813 806 L705 806 L592 713 L515 806 L411 806 L488 635 L674 635 L813 806 Z " />
<glyph glyph-name="uni01CF" unicode="&#x1cf;" horiz-adv-x="388" d="M52 0 L217 0 L342 700 L177 700 L52 0 Z M502 946 L394 946 L281 853 L204 946 L100 946 L177 775 L363 775 L502 946 Z " />
<glyph glyph-name="uni01D0" unicode="&#x1d0;" horiz-adv-x="349" d="M458 806 L350 806 L237 713 L160 806 L56 806 L133 635 L319 635 L458 806 Z M42 0 L188 0 L287 560 L141 560 L42 0 Z " />
<glyph glyph-name="uni01D1" unicode="&#x1d1;" horiz-adv-x="1293" d="M734 -10 C1097 -10 1236 179 1236 407 C1236 578 1129 710 857 710 L565 710 C202 710 61 522 61 295 C61 122 171 -10 442 -10 L734 -10 Z M474 140 C293 140 238 216 238 315 C238 429 300 560 554 560 L824 560 C1003 560 1059 484 1059 388 C1059 264 991 140 744 140 L474 140 Z M955 946 L847 946 L734 853 L657 946 L553 946 L630 775 L816 775 L955 946 Z " />
<glyph glyph-name="uni01D2" unicode="&#x1d2;" horiz-adv-x="1106" d="M622 -8 C927 -8 1040 152 1042 326 C1045 461 960 568 726 568 L464 568 C159 568 48 408 45 234 C42 99 125 -8 360 -8 L622 -8 Z M385 119 C240 119 200 176 201 249 C202 339 270 441 442 441 L702 441 C847 441 886 384 886 311 C886 224 819 119 645 119 L385 119 Z M838 806 L730 806 L617 713 L540 806 L436 806 L513 635 L699 635 L838 806 Z " />
<glyph glyph-name="uni01D3" unicode="&#x1d3;" horiz-adv-x="1223" d="M254 323 L323 700 L158 700 L89 323 C54 130 130 -10 417 -10 L700 -10 C981 -10 1093 115 1127 306 L1197 700 L1032 700 L966 334 C944 215 877 140 724 140 L436 140 C271 140 236 216 254 323 L254 323 Z M921 946 L813 946 L700 853 L623 946 L519 946 L596 775 L782 775 L921 946 Z " />
<glyph glyph-name="uni01D4" unicode="&#x1d4;" horiz-adv-x="1048" d="M213 258 L268 560 L122 560 L68 258 C40 104 89 -8 345 -8 L601 -8 C823 -8 920 82 948 239 L1005 560 L860 560 L805 256 C788 165 736 119 611 119 L371 119 C217 119 200 170 213 258 L213 258 Z M810 806 L702 806 L589 713 L512 806 L408 806 L485 635 L671 635 L810 806 Z " />
<glyph glyph-name="uni01D5" unicode="&#x1d5;" horiz-adv-x="1223" d="M254 323 L323 700 L158 700 L89 323 C54 130 130 -10 417 -10 L700 -10 C981 -10 1093 115 1127 306 L1197 700 L1032 700 L966 334 C944 215 877 140 724 140 L436 140 C271 140 236 216 254 323 L254 323 Z M541 998 L916 998 L935 1104 L560 1104 L541 998 Z M757 785 L905 785 L931 933 L783 933 L757 785 Z M473 785 L621 785 L646 933 L499 933 L473 785 Z " />
<glyph glyph-name="uni01D6" unicode="&#x1d6;" horiz-adv-x="1048" d="M213 258 L268 560 L122 560 L68 258 C40 104 89 -8 345 -8 L601 -8 C823 -8 920 82 948 239 L1005 560 L860 560 L805 256 C788 165 736 119 611 119 L371 119 C217 119 200 170 213 258 L213 258 Z M430 858 L805 858 L824 964 L449 964 L430 858 Z M646 645 L794 645 L820 793 L672 793 L646 645 Z M362 645 L510 645 L535 793 L388 793 L362 645 Z " />
<glyph glyph-name="uni01D7" unicode="&#x1d7;" horiz-adv-x="1223" d="M254 323 L323 700 L158 700 L89 323 C54 130 130 -10 417 -10 L700 -10 C981 -10 1093 115 1127 306 L1197 700 L1032 700 L966 334 C944 215 877 140 724 140 L436 140 C271 140 236 216 254 323 L254 323 Z M624 982 L737 982 L937 1153 L748 1153 L624 982 Z M757 785 L905 785 L931 933 L783 933 L757 785 Z M473 785 L621 785 L646 933 L499 933 L473 785 Z " />
<glyph glyph-name="uni01D8" unicode="&#x1d8;" horiz-adv-x="1048" d="M213 258 L268 560 L122 560 L68 258 C40 104 89 -8 345 -8 L601 -8 C823 -8 920 82 948 239 L1005 560 L860 560 L805 256 C788 165 736 119 611 119 L371 119 C217 119 200 170 213 258 L213 258 Z M514 842 L627 842 L827 1013 L638 1013 L514 842 Z M646 645 L794 645 L820 793 L672 793 L646 645 Z M362 645 L510 645 L535 793 L388 793 L362 645 Z " />
<glyph glyph-name="uni01D9" unicode="&#x1d9;" horiz-adv-x="1223" d="M254 323 L323 700 L158 700 L89 323 C54 130 130 -10 417 -10 L700 -10 C981 -10 1093 115 1127 306 L1197 700 L1032 700 L966 334 C944 215 877 140 724 140 L436 140 C271 140 236 216 254 323 L254 323 Z M957 1153 L849 1153 L736 1060 L659 1153 L555 1153 L632 982 L818 982 L957 1153 Z M757 785 L905 785 L931 933 L783 933 L757 785 Z M473 785 L621 785 L646 933 L499 933 L473 785 Z " />
<glyph glyph-name="uni01DA" unicode="&#x1da;" horiz-adv-x="1048" d="M213 258 L268 560 L122 560 L68 258 C40 104 89 -8 345 -8 L601 -8 C823 -8 920 82 948 239 L1005 560 L860 560 L805 256 C788 165 736 119 611 119 L371 119 C217 119 200 170 213 258 L213 258 Z M847 1013 L739 1013 L626 920 L549 1013 L445 1013 L522 842 L708 842 L847 1013 Z M646 645 L794 645 L820 793 L672 793 L646 645 Z M362 645 L510 645 L535 793 L388 793 L362 645 Z " />
<glyph glyph-name="uni01DB" unicode="&#x1db;" horiz-adv-x="1223" d="M254 323 L323 700 L158 700 L89 323 C54 130 130 -10 417 -10 L700 -10 C981 -10 1093 115 1127 306 L1197 700 L1032 700 L966 334 C944 215 877 140 724 140 L436 140 C271 140 236 216 254 323 L254 323 Z M755 1153 L580 1153 L716 982 L818 982 L755 1153 Z M757 785 L905 785 L931 933 L783 933 L757 785 Z M473 785 L621 785 L646 933 L499 933 L473 785 Z " />
<glyph glyph-name="uni01DC" unicode="&#x1dc;" horiz-adv-x="1048" d="M213 258 L268 560 L122 560 L68 258 C40 104 89 -8 345 -8 L601 -8 C823 -8 920 82 948 239 L1005 560 L860 560 L805 256 C788 165 736 119 611 119 L371 119 C217 119 200 170 213 258 L213 258 Z M645 1013 L470 1013 L606 842 L708 842 L645 1013 Z M646 645 L794 645 L820 793 L672 793 L646 645 Z M362 645 L510 645 L535 793 L388 793 L362 645 Z " />
<glyph glyph-name="uni01DD" unicode="&#x1dd;" horiz-adv-x="990" d="M928 560 L104 560 L81 433 L758 433 L741 336 L148 336 L128 224 L720 224 L705 127 L28 127 L5 0 L829 0 L928 560 Z " />
<glyph glyph-name="uni01DE" unicode="&#x1de;" horiz-adv-x="1236" d="M980 0 L1174 0 L770 700 L597 700 L-56 0 L152 0 L258 116 L914 116 L980 0 Z M664 558 L838 251 L382 251 L664 558 Z M548 998 L923 998 L942 1104 L567 1104 L548 998 Z M764 785 L912 785 L938 933 L790 933 L764 785 Z M480 785 L628 785 L653 933 L506 933 L480 785 Z " />
<glyph glyph-name="uni01DF" unicode="&#x1df;" horiz-adv-x="1056" d="M818 0 L993 0 L646 560 L491 560 L-55 0 L131 0 L224 97 L759 97 L818 0 Z M552 440 L692 208 L330 208 L552 440 Z M432 858 L807 858 L826 964 L451 964 L432 858 Z M649 645 L797 645 L823 793 L675 793 L649 645 Z M365 645 L513 645 L538 793 L391 793 L365 645 Z " />
<glyph glyph-name="uni01E0" unicode="&#x1e0;" horiz-adv-x="1236" d="M980 0 L1174 0 L770 700 L597 700 L-56 0 L152 0 L258 116 L914 116 L980 0 Z M664 558 L838 251 L382 251 L664 558 Z M548 998 L923 998 L942 1104 L567 1104 L548 998 Z M625 785 L771 785 L797 933 L651 933 L625 785 Z " />
<glyph glyph-name="uni01E1" unicode="&#x1e1;" horiz-adv-x="1056" d="M818 0 L993 0 L646 560 L491 560 L-55 0 L131 0 L224 97 L759 97 L818 0 Z M552 440 L692 208 L330 208 L552 440 Z M432 858 L807 858 L826 964 L451 964 L432 858 Z M510 645 L656 645 L682 793 L536 793 L510 645 Z " />
<glyph glyph-name="uni01E2" unicode="&#x1e2;" horiz-adv-x="1651" d="M673 112 L655 0 L1522 0 L1549 150 L847 150 L870 282 L1474 282 L1499 418 L895 418 L917 550 L1619 550 L1647 700 L692 700 L-56 0 L156 0 L274 112 L673 112 Z M417 248 L755 569 L699 248 L417 248 Z M847 807 L1222 807 L1241 913 L866 913 L847 807 Z " />
<glyph glyph-name="uni01E3" unicode="&#x1e3;" horiz-adv-x="1411" d="M566 89 L550 0 L1289 0 L1312 127 L719 127 L735 224 L1243 224 L1264 336 L756 336 L772 433 L1365 433 L1388 560 L572 560 L-55 0 L134 0 L232 89 L566 89 Z M354 200 L628 448 L585 200 L354 200 Z M712 667 L1087 667 L1106 773 L731 773 L712 667 Z " />
<glyph glyph-name="Gcaron" unicode="&#x1e6;" horiz-adv-x="1205" d="M622 282 L948 282 L926 150 L457 150 C287 150 238 223 238 317 C238 422 289 550 530 550 L1103 550 L1130 700 L545 700 C199 700 61 507 61 296 C61 130 162 0 430 0 L1058 0 L1132 418 L647 418 L622 282 Z M934 946 L826 946 L713 853 L636 946 L532 946 L609 775 L795 775 L934 946 Z " />
<glyph glyph-name="gcaron" unicode="&#x1e7;" horiz-adv-x="1034" d="M352 0 L894 0 L953 336 L539 336 L518 224 L789 224 L774 127 L368 127 C241 127 202 173 202 249 C202 343 278 433 445 433 L926 433 L949 560 L453 560 C152 560 45 400 45 232 C45 102 127 0 352 0 L352 0 Z M813 806 L705 806 L592 713 L515 806 L411 806 L488 635 L674 635 L813 806 Z " />
<glyph glyph-name="uni01E8" unicode="&#x1e8;" horiz-adv-x="1247" d="M1226 700 L939 700 L270 311 L339 700 L177 700 L52 0 L214 0 L238 133 L541 307 L936 0 L1189 0 L684 388 L1226 700 Z M894 946 L786 946 L673 853 L596 946 L492 946 L569 775 L755 775 L894 946 Z " />
<glyph glyph-name="uni01E9" unicode="&#x1e9;" horiz-adv-x="1073" d="M1041 560 L776 560 L233 257 L287 560 L141 560 L42 0 L188 0 L207 101 L459 240 L783 0 L1011 0 L587 310 L1041 560 Z M788 806 L680 806 L567 713 L490 806 L386 806 L463 635 L649 635 L788 806 Z " />
<glyph glyph-name="uni01EA" unicode="&#x1ea;" horiz-adv-x="1293" d="M734 -10 C739 -10 745 -10 751 -9 C665 -46 583 -107 583 -192 C583 -247 632 -283 708 -283 C754 -283 801 -280 856 -260 L869 -187 C831 -202 814 -205 787 -205 C745 -205 718 -187 718 -151 C718 -87 784 -39 852 -2 C1127 34 1236 205 1236 407 C1236 578 1129 710 857 710 L565 710 C202 710 61 522 61 295 C61 122 171 -10 442 -10 L734 -10 Z M474 140 C293 140 238 216 238 315 C238 429 300 560 554 560 L824 560 C1003 560 1059 484 1059 388 C1059 264 991 140 744 140 L474 140 Z " />
<glyph glyph-name="uni01EB" unicode="&#x1eb;" horiz-adv-x="1106" d="M628 -8 C541 -44 456 -105 456 -192 C456 -247 505 -283 581 -283 C627 -283 674 -280 729 -260 L742 -187 C704 -202 687 -205 660 -205 C618 -205 591 -187 591 -151 C591 -86 660 -38 728 -1 C953 32 1040 174 1042 326 C1044 461 960 568 726 568 L464 568 C159 568 48 408 45 234 C42 99 125 -8 360 -8 L628 -8 Z M385 119 C240 119 200 176 201 249 C202 339 270 441 442 441 L702 441 C847 441 886 384 886 311 C886 224 819 119 645 119 L385 119 Z " />
<glyph glyph-name="uni01EC" unicode="&#x1ec;" horiz-adv-x="1293" d="M734 -10 C739 -10 745 -10 751 -9 C665 -46 583 -107 583 -192 C583 -247 632 -283 708 -283 C754 -283 801 -280 856 -260 L869 -187 C831 -202 814 -205 787 -205 C745 -205 718 -187 718 -151 C718 -87 784 -39 852 -2 C1127 34 1236 205 1236 407 C1236 578 1129 710 857 710 L565 710 C202 710 61 522 61 295 C61 122 171 -10 442 -10 L734 -10 Z M474 140 C293 140 238 216 238 315 C238 429 300 560 554 560 L824 560 C1003 560 1059 484 1059 388 C1059 264 991 140 744 140 L474 140 Z M541 807 L916 807 L935 913 L560 913 L541 807 Z " />
<glyph glyph-name="uni01ED" unicode="&#x1ed;" horiz-adv-x="1106" d="M628 -8 C541 -44 456 -105 456 -192 C456 -247 505 -283 581 -283 C627 -283 674 -280 729 -260 L742 -187 C704 -202 687 -205 660 -205 C618 -205 591 -187 591 -151 C591 -86 660 -38 728 -1 C953 32 1040 174 1042 326 C1044 461 960 568 726 568 L464 568 C159 568 48 408 45 234 C42 99 125 -8 360 -8 L628 -8 Z M385 119 C240 119 200 176 201 249 C202 339 270 441 442 441 L702 441 C847 441 886 384 886 311 C886 224 819 119 645 119 L385 119 Z M424 667 L799 667 L818 773 L443 773 L424 667 Z " />
<glyph glyph-name="uni01F0" unicode="&#x1f0;" horiz-adv-x="998" d="M248 -4 L552 -4 C774 -4 871 85 899 243 L956 560 L810 560 L755 260 C738 169 685 123 560 123 L258 123 C161 123 149 166 158 220 L166 270 L22 270 L13 220 C-8 97 40 -4 248 -4 L248 -4 Z M1103 806 L995 806 L882 713 L805 806 L701 806 L778 635 L964 635 L1103 806 Z " />
<glyph glyph-name="uni01F1" unicode="&#x1f1;" horiz-adv-x="2356" d="M52 0 L663 0 C1007 0 1146 193 1146 404 C1146 570 1045 700 777 700 L177 700 L52 0 Z M750 550 C920 550 969 477 969 383 C969 278 918 150 677 150 L241 150 L312 550 L750 550 Z M1213 0 L2244 0 L2271 150 L1568 150 L2328 584 L2345 700 L1343 700 L1315 550 L1989 550 L1229 116 L1213 0 Z " />
<glyph glyph-name="uni01F2" unicode="&#x1f2;" horiz-adv-x="2190" d="M52 0 L663 0 C1007 0 1146 193 1146 404 C1146 570 1045 700 777 700 L177 700 L52 0 Z M750 550 C920 550 969 477 969 383 C969 278 918 150 677 150 L241 150 L312 550 L750 550 Z M1206 0 L2084 0 L2107 127 L1521 127 L2150 462 L2163 560 L1309 560 L1286 433 L1845 433 L1218 98 L1206 0 Z " />
<glyph glyph-name="uni01F3" unicode="&#x1f3;" horiz-adv-x="2021" d="M42 0 L564 0 C865 0 972 160 972 328 C972 457 888 560 665 560 L143 560 L42 0 Z M649 433 C776 433 815 387 815 311 C815 217 740 127 573 127 L212 127 L265 433 L649 433 Z M1037 0 L1915 0 L1938 127 L1352 127 L1981 462 L1994 560 L1140 560 L1117 433 L1676 433 L1049 98 L1037 0 Z " />
<glyph glyph-name="uni01F4" unicode="&#x1f4;" horiz-adv-x="1205" d="M622 282 L948 282 L926 150 L457 150 C287 150 238 223 238 317 C238 422 289 550 530 550 L1103 550 L1130 700 L545 700 C199 700 61 507 61 296 C61 130 162 0 430 0 L1058 0 L1132 418 L647 418 L622 282 Z M601 775 L714 775 L914 946 L725 946 L601 775 Z " />
<glyph glyph-name="uni01F5" unicode="&#x1f5;" horiz-adv-x="1034" d="M352 0 L894 0 L953 336 L539 336 L518 224 L789 224 L774 127 L368 127 C241 127 202 173 202 249 C202 343 278 433 445 433 L926 433 L949 560 L453 560 C152 560 45 400 45 232 C45 102 127 0 352 0 L352 0 Z M480 635 L593 635 L793 806 L604 806 L480 635 Z " />
<glyph glyph-name="uni01F8" unicode="&#x1f8;" horiz-adv-x="1256" d="M928 0 L1085 0 L1210 700 L1044 700 L952 180 L334 700 L177 700 L52 0 L217 0 L308 520 L928 0 Z M735 946 L560 946 L696 775 L798 775 L735 946 Z " />
<glyph glyph-name="uni01F9" unicode="&#x1f9;" horiz-adv-x="1083" d="M922 0 L1021 560 L874 560 L803 155 L280 560 L141 560 L42 0 L188 0 L259 405 L783 0 L922 0 Z M625 806 L450 806 L586 635 L688 635 L625 806 Z " />
<glyph glyph-name="Aringacute" unicode="&#x1fa;" horiz-adv-x="1236" d="M980 0 L1174 0 L770 700 L597 700 L-56 0 L152 0 L258 116 L914 116 L980 0 Z M664 558 L838 251 L382 251 L664 558 Z M669 858 C669 882 691 900 714 900 C734 900 749 884 749 864 C749 840 728 821 706 821 C685 821 669 838 669 858 L669 858 Z M578 853 C577 791 623 744 698 744 C779 744 842 801 842 871 C842 931 794 978 722 978 C639 978 579 922 578 853 L578 853 Z M637 1011 L750 1011 L950 1182 L761 1182 L637 1011 Z " />
<glyph glyph-name="aringacute" unicode="&#x1fb;" horiz-adv-x="1056" d="M818 0 L993 0 L646 560 L491 560 L-55 0 L131 0 L224 97 L759 97 L818 0 Z M552 440 L692 208 L330 208 L552 440 Z M554 718 C554 742 576 760 599 760 C619 760 634 744 634 724 C634 700 613 681 591 681 C570 681 554 698 554 718 L554 718 Z M463 713 C462 651 508 604 583 604 C664 604 727 661 727 731 C727 791 679 838 607 838 C524 838 464 782 463 713 L463 713 Z M521 871 L634 871 L834 1042 L645 1042 L521 871 Z " />
<glyph glyph-name="AEacute" unicode="&#x1fc;" horiz-adv-x="1651" d="M673 112 L655 0 L1522 0 L1549 150 L847 150 L870 282 L1474 282 L1499 418 L895 418 L917 550 L1619 550 L1647 700 L692 700 L-56 0 L156 0 L274 112 L673 112 Z M417 248 L755 569 L699 248 L417 248 Z M928 775 L1041 775 L1241 946 L1052 946 L928 775 Z " />
<glyph glyph-name="aeacute" unicode="&#x1fd;" horiz-adv-x="1411" d="M566 89 L550 0 L1289 0 L1312 127 L719 127 L735 224 L1243 224 L1264 336 L756 336 L772 433 L1365 433 L1388 560 L572 560 L-55 0 L134 0 L232 89 L566 89 Z M354 200 L628 448 L585 200 L354 200 Z M793 635 L906 635 L1106 806 L917 806 L793 635 Z " />
<glyph glyph-name="Oslashacute" unicode="&#x1fe;" horiz-adv-x="1293" d="M622 775 L735 775 L935 946 L746 946 L622 775 Z M734 -10 C1097 -10 1236 179 1236 407 C1236 534 1176 640 1034 685 L1133 800 L945 800 L867 710 L565 710 C202 710 61 522 61 295 C61 166 122 60 264 14 L165 -100 L353 -100 L431 -10 L734 -10 Z M238 315 C238 429 300 560 554 560 L737 560 L380 148 C273 171 238 235 238 315 L238 315 Z M1059 388 C1059 264 991 140 744 140 L561 140 L917 551 C1023 529 1059 464 1059 388 L1059 388 Z " />
<glyph glyph-name="oslashacute" unicode="&#x1ff;" horiz-adv-x="1106" d="M503 635 L616 635 L816 806 L627 806 L503 635 Z M622 -8 C927 -8 1040 152 1042 326 C1044 428 995 515 869 550 L950 640 L784 640 L719 568 L464 568 C159 568 48 408 45 234 C42 131 89 46 215 10 L134 -80 L300 -80 L365 -8 L622 -8 Z M886 311 C886 224 819 119 645 119 L479 119 L766 436 C859 421 886 372 886 311 L886 311 Z M201 249 C202 339 270 441 442 441 L604 441 L318 124 C227 139 200 189 201 249 L201 249 Z " />
<glyph glyph-name="uni0200" unicode="&#x200;" horiz-adv-x="1236" d="M980 0 L1174 0 L770 700 L597 700 L-56 0 L152 0 L258 116 L914 116 L980 0 Z M664 558 L838 251 L382 251 L664 558 Z M837 946 L662 946 L798 775 L901 775 L837 946 Z M584 946 L408 946 L545 775 L647 775 L584 946 Z " />
<glyph glyph-name="uni0201" unicode="&#x201;" horiz-adv-x="1056" d="M818 0 L993 0 L646 560 L491 560 L-55 0 L131 0 L224 97 L759 97 L818 0 Z M552 440 L692 208 L330 208 L552 440 Z M722 806 L547 806 L683 635 L786 635 L722 806 Z M469 806 L293 806 L430 635 L532 635 L469 806 Z " />
<glyph glyph-name="uni0202" unicode="&#x202;" horiz-adv-x="1236" d="M980 0 L1174 0 L770 700 L597 700 L-56 0 L152 0 L258 116 L914 116 L980 0 Z M664 558 L838 251 L382 251 L664 558 Z M719 843 C782 843 804 814 799 775 L887 775 C897 853 879 945 735 945 C593 945 541 856 522 775 L612 775 C624 814 658 843 719 843 L719 843 Z " />
<glyph glyph-name="uni0203" unicode="&#x203;" horiz-adv-x="1056" d="M818 0 L993 0 L646 560 L491 560 L-55 0 L131 0 L224 97 L759 97 L818 0 Z M552 440 L692 208 L330 208 L552 440 Z M604 703 C667 703 689 674 684 635 L772 635 C782 713 764 805 620 805 C478 805 426 716 407 635 L497 635 C509 674 543 703 604 703 L604 703 Z " />
<glyph glyph-name="uni0204" unicode="&#x204;" horiz-adv-x="1150" d="M52 0 L1020 0 L1047 150 L244 150 L266 282 L971 282 L996 418 L291 418 L314 550 L1117 550 L1145 700 L177 700 L52 0 Z M803 946 L628 946 L764 775 L867 775 L803 946 Z M550 946 L374 946 L511 775 L613 775 L550 946 Z " />
<glyph glyph-name="uni0205" unicode="&#x205;" horiz-adv-x="990" d="M42 0 L866 0 L889 127 L211 127 L227 224 L820 224 L841 336 L248 336 L264 433 L942 433 L965 560 L141 560 L42 0 Z M700 806 L525 806 L661 635 L764 635 L700 806 Z M447 806 L271 806 L408 635 L510 635 L447 806 Z " />
<glyph glyph-name="uni0206" unicode="&#x206;" horiz-adv-x="1150" d="M52 0 L1020 0 L1047 150 L244 150 L266 282 L971 282 L996 418 L291 418 L314 550 L1117 550 L1145 700 L177 700 L52 0 Z M685 843 C748 843 770 814 765 775 L853 775 C863 853 845 945 701 945 C559 945 507 856 488 775 L578 775 C590 814 624 843 685 843 L685 843 Z " />
<glyph glyph-name="uni0207" unicode="&#x207;" horiz-adv-x="990" d="M42 0 L866 0 L889 127 L211 127 L227 224 L820 224 L841 336 L248 336 L264 433 L942 433 L965 560 L141 560 L42 0 Z M583 703 C646 703 668 674 663 635 L751 635 C761 713 743 805 599 805 C457 805 405 716 386 635 L476 635 C488 674 522 703 583 703 L583 703 Z " />
<glyph glyph-name="uni0208" unicode="&#x208;" horiz-adv-x="388" d="M52 0 L217 0 L342 700 L177 700 L52 0 Z M411 946 L236 946 L372 775 L475 775 L411 946 Z M158 946 L-18 946 L119 775 L221 775 L158 946 Z " />
<glyph glyph-name="uni0209" unicode="&#x209;" horiz-adv-x="349" d="M42 0 L188 0 L287 560 L141 560 L42 0 Z M367 806 L192 806 L328 635 L431 635 L367 806 Z M114 806 L-62 806 L75 635 L177 635 L114 806 Z " />
<glyph glyph-name="uni020A" unicode="&#x20a;" horiz-adv-x="388" d="M52 0 L217 0 L342 700 L177 700 L52 0 Z M294 843 C357 843 379 814 374 775 L462 775 C472 853 454 945 310 945 C168 945 116 856 97 775 L187 775 C199 814 233 843 294 843 L294 843 Z " />
<glyph glyph-name="uni020B" unicode="&#x20b;" horiz-adv-x="349" d="M42 0 L188 0 L287 560 L141 560 L42 0 Z M250 703 C313 703 335 674 330 635 L418 635 C428 713 410 805 266 805 C124 805 72 716 53 635 L143 635 C155 674 189 703 250 703 L250 703 Z " />
<glyph glyph-name="uni020C" unicode="&#x20c;" horiz-adv-x="1293" d="M734 -10 C1097 -10 1236 179 1236 407 C1236 578 1129 710 857 710 L565 710 C202 710 61 522 61 295 C61 122 171 -10 442 -10 L734 -10 Z M474 140 C293 140 238 216 238 315 C238 429 300 560 554 560 L824 560 C1003 560 1059 484 1059 388 C1059 264 991 140 744 140 L474 140 Z M864 946 L689 946 L825 775 L928 775 L864 946 Z M611 946 L435 946 L572 775 L674 775 L611 946 Z " />
<glyph glyph-name="uni020D" unicode="&#x20d;" horiz-adv-x="1106" d="M622 -8 C927 -8 1040 152 1042 326 C1045 461 960 568 726 568 L464 568 C159 568 48 408 45 234 C42 99 125 -8 360 -8 L622 -8 Z M385 119 C240 119 200 176 201 249 C202 339 270 441 442 441 L702 441 C847 441 886 384 886 311 C886 224 819 119 645 119 L385 119 Z M747 806 L572 806 L708 635 L811 635 L747 806 Z M494 806 L318 806 L455 635 L557 635 L494 806 Z " />
<glyph glyph-name="uni020E" unicode="&#x20e;" horiz-adv-x="1293" d="M734 -10 C1097 -10 1236 179 1236 407 C1236 578 1129 710 857 710 L565 710 C202 710 61 522 61 295 C61 122 171 -10 442 -10 L734 -10 Z M474 140 C293 140 238 216 238 315 C238 429 300 560 554 560 L824 560 C1003 560 1059 484 1059 388 C1059 264 991 140 744 140 L474 140 Z M747 843 C810 843 832 814 827 775 L915 775 C925 853 907 945 763 945 C621 945 569 856 550 775 L640 775 C652 814 686 843 747 843 L747 843 Z " />
<glyph glyph-name="uni020F" unicode="&#x20f;" horiz-adv-x="1106" d="M622 -8 C927 -8 1040 152 1042 326 C1045 461 960 568 726 568 L464 568 C159 568 48 408 45 234 C42 99 125 -8 360 -8 L622 -8 Z M385 119 C240 119 200 176 201 249 C202 339 270 441 442 441 L702 441 C847 441 886 384 886 311 C886 224 819 119 645 119 L385 119 Z M629 703 C692 703 714 674 709 635 L797 635 C807 713 789 805 645 805 C503 805 451 716 432 635 L522 635 C534 674 568 703 629 703 L629 703 Z " />
<glyph glyph-name="uni0210" unicode="&#x210;" horiz-adv-x="1229" d="M52 0 L214 0 L257 238 L609 238 L919 0 L1170 0 L840 241 C1051 251 1142 364 1142 505 C1142 614 1074 700 893 700 L177 700 L52 0 Z M862 550 C945 550 967 520 967 482 C967 427 932 382 829 382 L282 382 L312 550 L862 550 Z M797 946 L622 946 L758 775 L861 775 L797 946 Z M544 946 L368 946 L505 775 L607 775 L544 946 Z " />
<glyph glyph-name="uni0211" unicode="&#x211;" horiz-adv-x="1061" d="M42 0 L188 0 L221 187 L521 187 L770 0 L994 0 L725 190 C900 201 966 298 966 402 C966 489 911 560 756 560 L143 560 L42 0 Z M728 433 C796 433 810 408 810 381 C810 348 791 309 705 309 L244 309 L265 433 L728 433 Z M694 806 L519 806 L655 635 L758 635 L694 806 Z M441 806 L265 806 L402 635 L504 635 L441 806 Z " />
<glyph glyph-name="uni0212" unicode="&#x212;" horiz-adv-x="1229" d="M52 0 L214 0 L257 238 L609 238 L919 0 L1170 0 L840 241 C1051 251 1142 364 1142 505 C1142 614 1074 700 893 700 L177 700 L52 0 Z M862 550 C945 550 967 520 967 482 C967 427 932 382 829 382 L282 382 L312 550 L862 550 Z M680 843 C743 843 765 814 760 775 L848 775 C858 853 840 945 696 945 C554 945 502 856 483 775 L573 775 C585 814 619 843 680 843 L680 843 Z " />
<glyph glyph-name="uni0213" unicode="&#x213;" horiz-adv-x="1061" d="M42 0 L188 0 L221 187 L521 187 L770 0 L994 0 L725 190 C900 201 966 298 966 402 C966 489 911 560 756 560 L143 560 L42 0 Z M728 433 C796 433 810 408 810 381 C810 348 791 309 705 309 L244 309 L265 433 L728 433 Z M577 703 C640 703 662 674 657 635 L745 635 C755 713 737 805 593 805 C451 805 399 716 380 635 L470 635 C482 674 516 703 577 703 L577 703 Z " />
<glyph glyph-name="uni0214" unicode="&#x214;" horiz-adv-x="1223" d="M254 323 L323 700 L158 700 L89 323 C54 130 130 -10 417 -10 L700 -10 C981 -10 1093 115 1127 306 L1197 700 L1032 700 L966 334 C944 215 877 140 724 140 L436 140 C271 140 236 216 254 323 L254 323 Z M829 946 L654 946 L790 775 L893 775 L829 946 Z M576 946 L400 946 L537 775 L639 775 L576 946 Z " />
<glyph glyph-name="uni0215" unicode="&#x215;" horiz-adv-x="1048" d="M213 258 L268 560 L122 560 L68 258 C40 104 89 -8 345 -8 L601 -8 C823 -8 920 82 948 239 L1005 560 L860 560 L805 256 C788 165 736 119 611 119 L371 119 C217 119 200 170 213 258 L213 258 Z M718 806 L543 806 L679 635 L782 635 L718 806 Z M465 806 L289 806 L426 635 L528 635 L465 806 Z " />
<glyph glyph-name="uni0216" unicode="&#x216;" horiz-adv-x="1223" d="M254 323 L323 700 L158 700 L89 323 C54 130 130 -10 417 -10 L700 -10 C981 -10 1093 115 1127 306 L1197 700 L1032 700 L966 334 C944 215 877 140 724 140 L436 140 C271 140 236 216 254 323 L254 323 Z M712 843 C775 843 797 814 792 775 L880 775 C890 853 872 945 728 945 C586 945 534 856 515 775 L605 775 C617 814 651 843 712 843 L712 843 Z " />
<glyph glyph-name="uni0217" unicode="&#x217;" horiz-adv-x="1048" d="M213 258 L268 560 L122 560 L68 258 C40 104 89 -8 345 -8 L601 -8 C823 -8 920 82 948 239 L1005 560 L860 560 L805 256 C788 165 736 119 611 119 L371 119 C217 119 200 170 213 258 L213 258 Z M601 703 C664 703 686 674 681 635 L769 635 C779 713 761 805 617 805 C475 805 423 716 404 635 L494 635 C506 674 540 703 601 703 L601 703 Z " />
<glyph glyph-name="uni0218" unicode="&#x218;" horiz-adv-x="1158" d="M798 150 L70 150 L42 0 L775 0 C989 0 1077 108 1077 241 C1077 341 1013 418 848 418 L344 418 C277 418 263 444 263 473 C263 513 287 550 366 550 L1094 550 L1122 700 L389 700 C175 700 87 592 87 459 C87 359 152 282 315 282 L820 282 C887 282 901 256 901 227 C901 187 877 150 798 150 L798 150 Z M407 -236 L457 -236 L365 -368 L434 -368 L552 -223 L576 -88 L434 -88 L407 -236 Z " />
<glyph glyph-name="uni0219" unicode="&#x219;" horiz-adv-x="989" d="M673 127 L53 127 L29 0 L657 0 C846 0 907 92 907 196 C907 275 856 334 717 334 L280 334 C229 334 216 353 216 374 C216 402 234 433 298 433 L918 433 L942 560 L314 560 C125 560 63 468 63 365 C63 285 115 226 253 226 L690 226 C741 226 754 207 754 186 C754 159 737 127 673 127 L673 127 Z M322 -236 L372 -236 L280 -368 L349 -368 L467 -223 L491 -88 L349 -88 L322 -236 Z " />
<glyph glyph-name="uni021A" unicode="&#x21a;" horiz-adv-x="1136" d="M61 550 L523 550 L425 0 L591 0 L688 550 L1151 550 L1178 700 L89 700 L61 550 Z M396 -236 L446 -236 L354 -368 L423 -368 L541 -223 L565 -88 L423 -88 L396 -236 Z " />
<glyph glyph-name="uni021B" unicode="&#x21b;" horiz-adv-x="996" d="M52 433 L441 433 L366 0 L512 0 L588 433 L978 433 L1001 560 L75 560 L52 433 Z M326 -236 L376 -236 L284 -368 L353 -368 L471 -223 L495 -88 L353 -88 L326 -236 Z " />
<glyph glyph-name="uni021E" unicode="&#x21e;" horiz-adv-x="1252" d="M916 0 L1081 0 L1206 700 L1041 700 L992 425 L292 425 L342 700 L177 700 L52 0 L217 0 L264 275 L964 275 L916 0 Z M935 946 L827 946 L714 853 L637 946 L533 946 L610 775 L796 775 L935 946 Z " />
<glyph glyph-name="uni021F" unicode="&#x21f;" horiz-adv-x="1079" d="M772 0 L918 0 L1017 560 L871 560 L833 344 L251 344 L287 560 L141 560 L42 0 L188 0 L226 216 L809 216 L772 0 Z M825 806 L717 806 L604 713 L527 806 L423 806 L500 635 L686 635 L825 806 Z " />
<glyph glyph-name="uni0226" unicode="&#x226;" horiz-adv-x="1236" d="M980 0 L1174 0 L770 700 L597 700 L-56 0 L152 0 L258 116 L914 116 L980 0 Z M664 558 L838 251 L382 251 L664 558 Z M625 785 L771 785 L797 933 L651 933 L625 785 Z " />
<glyph glyph-name="uni0227" unicode="&#x227;" horiz-adv-x="1056" d="M818 0 L993 0 L646 560 L491 560 L-55 0 L131 0 L224 97 L759 97 L818 0 Z M552 440 L692 208 L330 208 L552 440 Z M510 645 L656 645 L682 793 L536 793 L510 645 Z " />
<glyph glyph-name="uni0228" unicode="&#x228;" horiz-adv-x="1150" d="M52 0 L491 0 L432 -135 L471 -135 C514 -135 537 -143 537 -167 C537 -207 487 -215 439 -215 C404 -215 372 -204 357 -192 L343 -263 C368 -278 415 -293 465 -292 C553 -291 649 -265 649 -159 C649 -91 580 -65 516 -71 L549 0 L1020 0 L1047 150 L244 150 L266 282 L971 282 L996 418 L291 418 L314 550 L1117 550 L1145 700 L177 700 L52 0 Z " />
<glyph glyph-name="uni0229" unicode="&#x229;" horiz-adv-x="990" d="M42 0 L412 0 L353 -135 L392 -135 C435 -135 458 -143 458 -167 C458 -207 408 -215 360 -215 C325 -215 293 -204 278 -192 L264 -263 C289 -278 336 -293 386 -292 C474 -291 570 -265 570 -159 C570 -91 501 -65 437 -71 L470 0 L866 0 L889 127 L211 127 L227 224 L820 224 L841 336 L248 336 L264 433 L942 433 L965 560 L141 560 L42 0 Z " />
<glyph glyph-name="uni022A" unicode="&#x22a;" horiz-adv-x="1293" d="M734 -10 C1097 -10 1236 179 1236 407 C1236 578 1129 710 857 710 L565 710 C202 710 61 522 61 295 C61 122 171 -10 442 -10 L734 -10 Z M474 140 C293 140 238 216 238 315 C238 429 300 560 554 560 L824 560 C1003 560 1059 484 1059 388 C1059 264 991 140 744 140 L474 140 Z M575 998 L950 998 L969 1104 L594 1104 L575 998 Z M791 785 L939 785 L965 933 L817 933 L791 785 Z M507 785 L655 785 L680 933 L533 933 L507 785 Z " />
<glyph glyph-name="uni022B" unicode="&#x22b;" horiz-adv-x="1106" d="M622 -8 C927 -8 1040 152 1042 326 C1045 461 960 568 726 568 L464 568 C159 568 48 408 45 234 C42 99 125 -8 360 -8 L622 -8 Z M385 119 C240 119 200 176 201 249 C202 339 270 441 442 441 L702 441 C847 441 886 384 886 311 C886 224 819 119 645 119 L385 119 Z M458 858 L833 858 L852 964 L477 964 L458 858 Z M674 645 L822 645 L848 793 L700 793 L674 645 Z M390 645 L538 645 L563 793 L416 793 L390 645 Z " />
<glyph glyph-name="uni022C" unicode="&#x22c;" horiz-adv-x="1293" d="M734 -10 C1097 -10 1236 179 1236 407 C1236 578 1129 710 857 710 L565 710 C202 710 61 522 61 295 C61 122 171 -10 442 -10 L734 -10 Z M474 140 C293 140 238 216 238 315 C238 429 300 560 554 560 L824 560 C1003 560 1059 484 1059 388 C1059 264 991 140 744 140 L474 140 Z M853 944 C845 907 832 894 812 894 C778 894 741 938 681 938 C615 938 565 897 540 776 L621 776 C627 812 640 826 661 826 C694 826 731 781 791 781 C858 781 908 823 934 944 L853 944 Z M576 999 L951 999 L970 1105 L595 1105 L576 999 Z " />
<glyph glyph-name="uni022D" unicode="&#x22d;" horiz-adv-x="1106" d="M622 -8 C927 -8 1040 152 1042 326 C1045 461 960 568 726 568 L464 568 C159 568 48 408 45 234 C42 99 125 -8 360 -8 L622 -8 Z M385 119 C240 119 200 176 201 249 C202 339 270 441 442 441 L702 441 C847 441 886 384 886 311 C886 224 819 119 645 119 L385 119 Z M736 804 C728 767 715 754 695 754 C661 754 624 798 564 798 C498 798 448 757 423 636 L504 636 C510 672 523 686 544 686 C577 686 614 641 674 641 C741 641 791 683 817 804 L736 804 Z M458 859 L833 859 L852 965 L477 965 L458 859 Z " />
<glyph glyph-name="uni022E" unicode="&#x22e;" horiz-adv-x="1293" d="M734 -10 C1097 -10 1236 179 1236 407 C1236 578 1129 710 857 710 L565 710 C202 710 61 522 61 295 C61 122 171 -10 442 -10 L734 -10 Z M474 140 C293 140 238 216 238 315 C238 429 300 560 554 560 L824 560 C1003 560 1059 484 1059 388 C1059 264 991 140 744 140 L474 140 Z M652 785 L798 785 L824 933 L678 933 L652 785 Z " />
<glyph glyph-name="uni022F" unicode="&#x22f;" horiz-adv-x="1106" d="M622 -8 C927 -8 1040 152 1042 326 C1045 461 960 568 726 568 L464 568 C159 568 48 408 45 234 C42 99 125 -8 360 -8 L622 -8 Z M385 119 C240 119 200 176 201 249 C202 339 270 441 442 441 L702 441 C847 441 886 384 886 311 C886 224 819 119 645 119 L385 119 Z M535 645 L681 645 L707 793 L561 793 L535 645 Z " />
<glyph glyph-name="uni0230" unicode="&#x230;" horiz-adv-x="1293" d="M734 -10 C1097 -10 1236 179 1236 407 C1236 578 1129 710 857 710 L565 710 C202 710 61 522 61 295 C61 122 171 -10 442 -10 L734 -10 Z M474 140 C293 140 238 216 238 315 C238 429 300 560 554 560 L824 560 C1003 560 1059 484 1059 388 C1059 264 991 140 744 140 L474 140 Z M575 998 L950 998 L969 1104 L594 1104 L575 998 Z M652 785 L798 785 L824 933 L678 933 L652 785 Z " />
<glyph glyph-name="uni0231" unicode="&#x231;" horiz-adv-x="1106" d="M622 -8 C927 -8 1040 152 1042 326 C1045 461 960 568 726 568 L464 568 C159 568 48 408 45 234 C42 99 125 -8 360 -8 L622 -8 Z M385 119 C240 119 200 176 201 249 C202 339 270 441 442 441 L702 441 C847 441 886 384 886 311 C886 224 819 119 645 119 L385 119 Z M458 858 L833 858 L852 964 L477 964 L458 858 Z M535 645 L681 645 L707 793 L561 793 L535 645 Z " />
<glyph glyph-name="uni0232" unicode="&#x232;" horiz-adv-x="1204" d="M460 0 L625 0 L662 213 L1276 700 L1024 700 L595 342 L289 700 L60 700 L497 213 L460 0 Z M497 807 L872 807 L891 913 L516 913 L497 807 Z " />
<glyph glyph-name="uni0233" unicode="&#x233;" horiz-adv-x="1023" d="M379 0 L526 0 L556 171 L1069 560 L847 560 L494 279 L237 560 L34 560 L409 171 L379 0 Z M383 667 L758 667 L777 773 L402 773 L383 667 Z " />
<glyph glyph-name="uni0237" unicode="&#x237;" horiz-adv-x="998" d="M248 -4 L552 -4 C774 -4 871 85 899 243 L956 560 L810 560 L755 260 C738 169 685 123 560 123 L258 123 C161 123 149 166 158 220 L166 270 L22 270 L13 220 C-8 97 40 -4 248 -4 L248 -4 Z " />
<glyph glyph-name="uni0256" unicode="&#x256;" horiz-adv-x="1035" d="M-34 224 L82 224 L42 0 L564 0 C865 0 972 160 972 328 C972 457 888 560 665 560 L143 560 L102 336 L-14 336 L-34 224 Z M649 433 C776 433 815 387 815 311 C815 217 740 127 573 127 L212 127 L229 224 L526 224 L547 336 L248 336 L265 433 L649 433 Z " />
<glyph glyph-name="uni02BB" unicode="&#x2bb;" horiz-adv-x="337" d="M291 543 L219 543 L320 700 L248 700 L122 530 L93 375 L260 375 L291 543 Z " />
<glyph glyph-name="uni02BC" unicode="&#x2bc;" horiz-adv-x="337" d="M122 532 L194 532 L93 375 L166 375 L291 545 L320 700 L153 700 L122 532 Z " />
<glyph glyph-name="uni02BD" unicode="&#x2bd;" horiz-adv-x="337" d="M320 700 L153 700 L124 545 L188 375 L260 375 L218 532 L289 532 L320 700 Z " />
<glyph glyph-name="circumflex" unicode="&#x2c6;" horiz-adv-x="480" d="M90 635 L198 635 L311 728 L388 635 L492 635 L415 806 L229 806 L90 635 Z " />
<glyph glyph-name="caron" unicode="&#x2c7;" horiz-adv-x="480" d="M525 806 L417 806 L304 713 L227 806 L123 806 L200 635 L386 635 L525 806 Z " />
<glyph glyph-name="uni02C9" unicode="&#x2c9;" horiz-adv-x="480" d="M111 667 L486 667 L505 773 L130 773 L111 667 Z " />
<glyph glyph-name="uni02CA" unicode="&#x2ca;" horiz-adv-x="480" d="M192 635 L305 635 L505 806 L316 806 L192 635 Z " />
<glyph glyph-name="uni02CB" unicode="&#x2cb;" horiz-adv-x="480" d="M323 806 L148 806 L284 635 L386 635 L323 806 Z " />
<glyph glyph-name="uni02CD" unicode="&#x2cd;" horiz-adv-x="480" d="M-44 -214 L331 -214 L350 -108 L-25 -108 L-44 -214 Z " />
<glyph glyph-name="uni02CE" unicode="&#x2ce;" horiz-adv-x="480" d="M168 -75 L-7 -75 L129 -246 L231 -246 L168 -75 Z " />
<glyph glyph-name="uni02CF" unicode="&#x2cf;" horiz-adv-x="480" d="M37 -246 L150 -246 L350 -75 L161 -75 L37 -246 Z " />
<glyph glyph-name="breve" unicode="&#x2d8;" horiz-adv-x="480" d="M308 737 C245 737 224 766 228 805 L141 805 C130 727 148 635 292 635 C435 635 487 724 505 805 L415 805 C404 766 369 737 308 737 L308 737 Z " />
<glyph glyph-name="dotaccent" unicode="&#x2d9;" horiz-adv-x="480" d="M222 645 L368 645 L394 793 L248 793 L222 645 Z " />
<glyph glyph-name="ring" unicode="&#x2da;" horiz-adv-x="480" d="M266 718 C266 742 288 760 311 760 C331 760 346 744 346 724 C346 700 325 681 303 681 C282 681 266 698 266 718 L266 718 Z M175 713 C174 651 220 604 295 604 C376 604 439 661 439 731 C439 791 391 838 319 838 C236 838 176 782 175 713 L175 713 Z " />
<glyph glyph-name="ogonek" unicode="&#x2db;" horiz-adv-x="480" d="M36 -192 C36 -247 85 -283 161 -283 C207 -283 254 -280 309 -260 L322 -187 C284 -202 267 -205 240 -205 C198 -205 171 -187 171 -151 C171 -86 241 -37 310 0 L228 0 C134 -35 36 -99 36 -192 L36 -192 Z " />
<glyph glyph-name="tilde" unicode="&#x2dc;" horiz-adv-x="480" d="M423 804 C415 767 402 754 382 754 C348 754 311 798 251 798 C185 798 135 757 110 636 L191 636 C197 672 210 686 231 686 C264 686 301 641 361 641 C428 641 478 683 504 804 L423 804 Z " />
<glyph glyph-name="hungarumlaut" unicode="&#x2dd;" horiz-adv-x="480" d="M332 635 L444 635 L643 806 L458 806 L332 635 Z M59 635 L169 635 L370 806 L184 806 L59 635 Z " />
<glyph glyph-name="uni02EC" unicode="&#x2ec;" horiz-adv-x="480" d="M370 -75 L262 -75 L149 -168 L72 -75 L-32 -75 L45 -246 L231 -246 L370 -75 Z " />
<glyph glyph-name="uni02EE" unicode="&#x2ee;" horiz-adv-x="603" d="M122 532 L193 532 L92 375 L165 375 L291 545 L320 700 L152 700 L122 532 Z M393 532 L464 532 L363 375 L436 375 L562 545 L590 700 L423 700 L393 532 Z " />
<glyph glyph-name="gravecomb" unicode="&#x300;" d="M-494 806 L-669 806 L-533 635 L-431 635 L-494 806 Z " />
<glyph glyph-name="acutecomb" unicode="&#x301;" d="M-625 635 L-512 635 L-312 806 L-501 806 L-625 635 Z " />
<glyph glyph-name="uni0302" unicode="&#x302;" d="M-727 635 L-619 635 L-506 728 L-429 635 L-325 635 L-402 806 L-588 806 L-727 635 Z " />
<glyph glyph-name="tildecomb" unicode="&#x303;" d="M-394 804 C-402 767 -415 754 -435 754 C-469 754 -506 798 -566 798 C-632 798 -682 757 -707 636 L-626 636 C-620 672 -607 686 -586 686 C-553 686 -516 641 -456 641 C-389 641 -339 683 -313 804 L-394 804 Z " />
<glyph glyph-name="uni0304" unicode="&#x304;" d="M-706 667 L-331 667 L-312 773 L-687 773 L-706 667 Z " />
<glyph glyph-name="uni0306" unicode="&#x306;" d="M-510 737 C-573 737 -594 766 -590 805 L-677 805 C-688 727 -670 635 -526 635 C-383 635 -331 724 -313 805 L-403 805 C-414 766 -449 737 -510 737 L-510 737 Z " />
<glyph glyph-name="uni0307" unicode="&#x307;" d="M-595 645 L-449 645 L-423 793 L-569 793 L-595 645 Z " />
<glyph glyph-name="uni0308" unicode="&#x308;" d="M-456 645 L-308 645 L-282 793 L-430 793 L-456 645 Z M-740 645 L-592 645 L-567 793 L-714 793 L-740 645 Z " />
<glyph glyph-name="hookabovecomb" unicode="&#x309;" d="M-592 614 L-518 614 L-510 657 L-507 657 C-421 657 -328 676 -328 780 C-328 849 -394 866 -467 866 C-523 866 -584 855 -619 840 L-633 764 C-607 777 -564 788 -522 788 C-483 788 -449 783 -449 756 C-449 725 -472 715 -532 715 L-573 715 L-592 614 Z " />
<glyph glyph-name="uni030A" unicode="&#x30a;" d="M-551 718 C-551 742 -529 760 -506 760 C-486 760 -471 744 -471 724 C-471 700 -492 681 -514 681 C-535 681 -551 698 -551 718 L-551 718 Z M-642 713 C-643 651 -597 604 -522 604 C-441 604 -378 661 -378 731 C-378 791 -426 838 -498 838 C-581 838 -641 782 -642 713 L-642 713 Z " />
<glyph glyph-name="uni030B" unicode="&#x30b;" d="M-486 635 L-374 635 L-175 806 L-360 806 L-486 635 Z M-759 635 L-649 635 L-448 806 L-634 806 L-759 635 Z " />
<glyph glyph-name="uni030C" unicode="&#x30c;" d="M-292 806 L-400 806 L-513 713 L-590 806 L-694 806 L-617 635 L-431 635 L-292 806 Z " />
<glyph glyph-name="uni030F" unicode="&#x30f;" d="M-384 806 L-559 806 L-423 635 L-321 635 L-384 806 Z M-637 806 L-813 806 L-676 635 L-574 635 L-637 806 Z " />
<glyph glyph-name="uni0311" unicode="&#x311;" d="M-510 704 C-449 704 -427 675 -430 636 L-343 636 C-332 717 -351 806 -494 806 C-639 806 -691 717 -709 636 L-617 636 C-605 675 -573 704 -510 704 L-510 704 Z " />
<glyph glyph-name="uni0312" unicode="&#x312;" d="M-342 543 L-413 543 L-312 700 L-385 700 L-511 530 L-540 375 L-372 375 L-342 543 Z " />
<glyph glyph-name="uni0313" unicode="&#x313;" d="M-625 532 L-554 532 L-655 375 L-582 375 L-456 545 L-427 700 L-595 700 L-625 532 Z " />
<glyph glyph-name="uni0314" unicode="&#x314;" d="M-313 700 L-481 700 L-509 545 L-445 375 L-372 375 L-416 532 L-345 532 L-313 700 Z " />
<glyph glyph-name="uni0316" unicode="&#x316;" d="M-649 -75 L-824 -75 L-688 -246 L-586 -246 L-649 -75 Z " />
<glyph glyph-name="uni0317" unicode="&#x317;" d="M-780 -246 L-667 -246 L-467 -75 L-656 -75 L-780 -246 Z " />
<glyph glyph-name="uni031B" unicode="&#x31b;" d="M-105 477 L-21 477 C79 477 164 499 185 623 C188 641 190 663 190 686 L41 686 C41 665 39 649 36 634 C25 570 -7 560 -49 560 L-91 560 L-105 477 Z " />
<glyph glyph-name="uni031C" unicode="&#x31c;" d="M-596 -43 C-672 -43 -732 -95 -744 -160 C-755 -225 -714 -277 -638 -277 L-624 -200 C-646 -200 -660 -182 -656 -160 C-652 -138 -631 -121 -610 -121 L-596 -43 Z " />
<glyph glyph-name="dotbelowcomb" unicode="&#x323;" d="M-750 -236 L-604 -236 L-578 -88 L-724 -88 L-750 -236 Z " />
<glyph glyph-name="uni0324" unicode="&#x324;" d="M-611 -236 L-463 -236 L-437 -88 L-585 -88 L-611 -236 Z M-895 -236 L-747 -236 L-722 -88 L-869 -88 L-895 -236 Z " />
<glyph glyph-name="uni0325" unicode="&#x325;" d="M-706 -163 C-706 -139 -684 -121 -661 -121 C-641 -121 -626 -137 -626 -157 C-626 -181 -647 -200 -669 -200 C-690 -200 -706 -183 -706 -163 L-706 -163 Z M-797 -168 C-798 -230 -752 -277 -677 -277 C-596 -277 -533 -220 -533 -150 C-533 -90 -581 -43 -653 -43 C-736 -43 -796 -99 -797 -168 L-797 -168 Z " />
<glyph glyph-name="uni0326" unicode="&#x326;" d="M-746 -236 L-696 -236 L-788 -368 L-719 -368 L-601 -223 L-577 -88 L-719 -88 L-746 -236 Z " />
<glyph glyph-name="uni0327" unicode="&#x327;" d="M-731 -135 L-692 -135 C-649 -135 -626 -143 -626 -167 C-626 -207 -676 -215 -724 -215 C-759 -215 -791 -204 -806 -192 L-820 -263 C-795 -278 -748 -293 -698 -292 C-610 -291 -514 -265 -514 -159 C-514 -91 -583 -65 -647 -71 L-614 0 L-672 0 L-731 -135 Z " />
<glyph glyph-name="uni0328" unicode="&#x328;" d="M-781 -192 C-781 -247 -732 -283 -656 -283 C-610 -283 -563 -280 -508 -260 L-495 -187 C-533 -202 -550 -205 -577 -205 C-619 -205 -646 -187 -646 -151 C-646 -86 -576 -37 -507 0 L-589 0 C-683 -35 -781 -99 -781 -192 L-781 -192 Z " />
<glyph glyph-name="uni032C" unicode="&#x32c;" d="M-447 -75 L-555 -75 L-668 -168 L-745 -75 L-849 -75 L-772 -246 L-586 -246 L-447 -75 Z " />
<glyph glyph-name="uni032D" unicode="&#x32d;" d="M-882 -246 L-774 -246 L-661 -153 L-584 -246 L-480 -246 L-557 -75 L-743 -75 L-882 -246 Z " />
<glyph glyph-name="uni032E" unicode="&#x32e;" d="M-665 -144 C-728 -144 -749 -115 -745 -76 L-832 -76 C-843 -154 -825 -246 -681 -246 C-538 -246 -486 -157 -468 -76 L-558 -76 C-569 -115 -604 -144 -665 -144 L-665 -144 Z " />
<glyph glyph-name="uni032F" unicode="&#x32f;" d="M-667 -177 C-606 -177 -582 -206 -585 -245 L-498 -245 C-487 -164 -508 -75 -651 -75 C-796 -75 -845 -164 -865 -245 L-772 -245 C-760 -206 -730 -177 -667 -177 L-667 -177 Z " />
<glyph glyph-name="uni0330" unicode="&#x330;" d="M-549 -77 C-557 -114 -570 -127 -590 -127 C-624 -127 -661 -83 -721 -83 C-787 -83 -837 -124 -862 -245 L-781 -245 C-775 -209 -762 -195 -741 -195 C-708 -195 -671 -240 -611 -240 C-544 -240 -494 -198 -468 -77 L-549 -77 Z " />
<glyph glyph-name="uni0331" unicode="&#x331;" d="M-861 -214 L-486 -214 L-467 -108 L-842 -108 L-861 -214 Z " />
<glyph glyph-name="uni0338" unicode="&#x338;" d="M-965 -76 L-819 -76 L-184 777 L-331 777 L-965 -76 Z " />
<glyph glyph-name="uni0339" unicode="&#x339;" d="M-708 -121 C-687 -121 -673 -138 -677 -160 C-680 -182 -701 -200 -722 -200 L-736 -277 C-661 -277 -600 -225 -589 -160 C-577 -95 -620 -43 -694 -43 L-708 -121 Z " />
<glyph glyph-name="uni0340" unicode="&#x340;" d="M-494 806 L-669 806 L-533 635 L-431 635 L-494 806 Z " />
<glyph glyph-name="uni0341" unicode="&#x341;" d="M-625 635 L-512 635 L-312 806 L-501 806 L-625 635 Z " />
<glyph glyph-name="uni0343" unicode="&#x343;" d="M-625 532 L-554 532 L-655 375 L-582 375 L-456 545 L-427 700 L-595 700 L-625 532 Z " />
<glyph glyph-name="uni0344" unicode="&#x344;" d="M-377 649 L-233 649 L-207 793 L-351 793 L-377 649 Z M-811 649 L-667 649 L-642 793 L-786 793 L-811 649 Z M-561 635 L-489 635 L-408 835 L-569 835 L-561 635 Z " />
<glyph glyph-name="uni034F" unicode="&#x34f;" d="" />
<glyph glyph-name="uni0351" unicode="&#x351;" d="M-441 838 C-517 838 -577 786 -588 721 C-600 656 -558 604 -482 604 L-469 681 C-491 681 -505 699 -500 721 C-497 743 -476 760 -455 760 L-441 838 Z " />
<glyph glyph-name="uni0357" unicode="&#x357;" d="M-553 760 C-532 760 -518 743 -521 721 C-525 699 -546 681 -567 681 L-580 604 C-506 604 -445 656 -433 721 C-422 786 -465 838 -539 838 L-553 760 Z " />
<glyph glyph-name="uni0374" unicode="&#x374;" horiz-adv-x="342" d="M109 400 L222 400 L372 700 L183 700 L109 400 Z " />
<glyph glyph-name="uni0375" unicode="&#x375;" horiz-adv-x="342" d="M21 -100 L134 -100 L284 200 L95 200 L21 -100 Z " />
<glyph glyph-name="uni037E" unicode="&#x37e;" horiz-adv-x="337" d="M28 0 L99 0 L-2 -157 L71 -157 L197 13 L226 168 L58 168 L28 0 Z M96 392 L263 392 L294 560 L127 560 L96 392 Z " />
<glyph glyph-name="tonos" unicode="&#x384;" horiz-adv-x="480" d="M251 635 L336 635 L417 835 L241 835 L251 635 Z " />
<glyph glyph-name="dieresistonos" unicode="&#x385;" horiz-adv-x="480" d="M441 649 L585 649 L611 793 L467 793 L441 649 Z M7 649 L151 649 L176 793 L32 793 L7 649 Z M257 635 L329 635 L410 835 L249 835 L257 635 Z " />
<glyph glyph-name="Alphatonos" unicode="&#x386;" horiz-adv-x="1236" d="M980 0 L1174 0 L770 700 L597 700 L-56 0 L152 0 L258 116 L914 116 L980 0 Z M664 558 L838 251 L382 251 L664 558 Z M174 500 L259 500 L340 700 L164 700 L174 500 Z " />
<glyph glyph-name="anoteleia" unicode="&#x387;" horiz-adv-x="318" d="M65 206 L211 206 L237 354 L91 354 L65 206 Z " />
<glyph glyph-name="Epsilontonos" unicode="&#x388;" horiz-adv-x="1319" d="M221 0 L1189 0 L1216 150 L413 150 L435 282 L1140 282 L1165 418 L460 418 L483 550 L1286 550 L1314 700 L346 700 L221 0 Z M73 500 L158 500 L239 700 L63 700 L73 500 Z " />
<glyph glyph-name="Etatonos" unicode="&#x389;" horiz-adv-x="1420" d="M1085 0 L1250 0 L1375 700 L1210 700 L1161 425 L461 425 L511 700 L346 700 L221 0 L386 0 L433 275 L1133 275 L1085 0 Z M73 500 L158 500 L239 700 L63 700 L73 500 Z " />
<glyph glyph-name="Iotatonos" unicode="&#x38a;" horiz-adv-x="557" d="M221 0 L386 0 L511 700 L346 700 L221 0 Z M73 500 L158 500 L239 700 L63 700 L73 500 Z " />
<glyph glyph-name="Omicrontonos" unicode="&#x38c;" horiz-adv-x="1425" d="M866 -10 C1229 -10 1368 179 1368 407 C1368 578 1261 710 989 710 L697 710 C334 710 193 522 193 295 C193 122 303 -10 574 -10 L866 -10 Z M606 140 C425 140 370 216 370 315 C370 429 432 560 686 560 L956 560 C1135 560 1191 484 1191 388 C1191 264 1123 140 876 140 L606 140 Z M73 500 L158 500 L239 700 L63 700 L73 500 Z " />
<glyph glyph-name="Upsilontonos" unicode="&#x38e;" horiz-adv-x="1411" d="M667 0 L832 0 L869 213 L1483 700 L1231 700 L802 342 L496 700 L267 700 L704 213 L667 0 Z M73 500 L158 500 L239 700 L63 700 L73 500 Z " />
<glyph glyph-name="Omegatonos" unicode="&#x38f;" horiz-adv-x="1420" d="M585 124 C435 147 370 226 370 319 C370 426 426 560 667 560 L955 560 C1127 560 1177 488 1177 394 C1177 277 1087 148 875 124 L854 0 L1300 0 L1328 150 L1200 150 C1307 229 1347 336 1347 446 C1347 593 1252 710 1012 710 L661 710 C342 710 213 530 213 337 C213 265 238 194 286 150 L148 150 L120 0 L565 0 L585 124 Z M73 500 L158 500 L239 700 L63 700 L73 500 Z " />
<glyph glyph-name="iotadieresistonos" unicode="&#x390;" horiz-adv-x="349" d="M42 0 L188 0 L287 560 L141 560 L42 0 Z M373 649 L517 649 L543 793 L399 793 L373 649 Z M-61 649 L83 649 L108 793 L-36 793 L-61 649 Z M189 635 L261 635 L342 835 L181 835 L189 635 Z " />
<glyph glyph-name="Alpha" unicode="&#x391;" horiz-adv-x="1236" d="M980 0 L1174 0 L770 700 L597 700 L-56 0 L152 0 L258 116 L914 116 L980 0 Z M664 558 L838 251 L382 251 L664 558 Z " />
<glyph glyph-name="Beta" unicode="&#x392;" horiz-adv-x="1208" d="M52 0 L851 0 C1039 0 1113 106 1113 219 C1113 287 1082 343 1003 363 C1087 402 1126 471 1126 554 C1126 636 1072 700 935 700 L177 700 L52 0 Z M856 282 C923 282 941 256 941 228 C941 192 914 150 834 150 L244 150 L266 282 L856 282 Z M947 496 C947 461 921 418 840 418 L291 418 L314 550 L862 550 C930 550 947 527 947 496 L947 496 Z " />
<glyph glyph-name="Gamma" unicode="&#x393;" horiz-adv-x="1083" d="M52 0 L217 0 L314 550 L1098 550 L1126 700 L177 700 L52 0 Z " />
<glyph glyph-name="Delta" unicode="&#x394;" horiz-adv-x="1236" d="M772 700 L596 700 L-56 0 L1175 0 L772 700 Z M669 562 L900 150 L295 150 L669 562 Z " />
<glyph glyph-name="Epsilon" unicode="&#x395;" horiz-adv-x="1150" d="M52 0 L1020 0 L1047 150 L244 150 L266 282 L971 282 L996 418 L291 418 L314 550 L1117 550 L1145 700 L177 700 L52 0 Z " />
<glyph glyph-name="Zeta" unicode="&#x396;" horiz-adv-x="1153" d="M9 0 L1040 0 L1067 150 L364 150 L1124 584 L1141 700 L139 700 L111 550 L785 550 L25 116 L9 0 Z " />
<glyph glyph-name="Eta" unicode="&#x397;" horiz-adv-x="1252" d="M916 0 L1081 0 L1206 700 L1041 700 L992 425 L292 425 L342 700 L177 700 L52 0 L217 0 L264 275 L964 275 L916 0 Z " />
<glyph glyph-name="Theta" unicode="&#x398;" horiz-adv-x="1293" d="M402 282 L871 282 L896 418 L427 418 L402 282 Z M734 -10 C1097 -10 1236 179 1236 407 C1236 578 1129 710 857 710 L565 710 C202 710 61 522 61 295 C61 122 171 -10 442 -10 L734 -10 Z M474 140 C293 140 238 216 238 315 C238 429 300 560 554 560 L824 560 C1003 560 1059 484 1059 388 C1059 264 991 140 744 140 L474 140 Z " />
<glyph glyph-name="Iota" unicode="&#x399;" horiz-adv-x="388" d="M52 0 L217 0 L342 700 L177 700 L52 0 Z " />
<glyph glyph-name="Kappa" unicode="&#x39a;" horiz-adv-x="1247" d="M1226 700 L939 700 L270 311 L339 700 L177 700 L52 0 L214 0 L238 133 L541 307 L936 0 L1189 0 L684 388 L1226 700 Z " />
<glyph glyph-name="Lambda" unicode="&#x39b;" horiz-adv-x="1236" d="M596 700 L-56 0 L161 0 L663 559 L971 0 L1175 0 L772 700 L596 700 Z " />
<glyph glyph-name="Mu" unicode="&#x39c;" horiz-adv-x="1397" d="M1183 700 L673 244 L324 700 L177 700 L52 0 L217 0 L299 472 L642 19 L1143 472 L1061 0 L1226 0 L1351 700 L1183 700 Z " />
<glyph glyph-name="Nu" unicode="&#x39d;" horiz-adv-x="1256" d="M928 0 L1085 0 L1210 700 L1044 700 L952 180 L334 700 L177 700 L52 0 L217 0 L308 520 L928 0 Z " />
<glyph glyph-name="Xi" unicode="&#x39e;" horiz-adv-x="1158" d="M109 550 L1125 550 L1153 700 L137 700 L109 550 Z M1054 150 L38 150 L11 0 L1027 0 L1054 150 Z M149 282 L989 282 L1014 418 L174 418 L149 282 Z " />
<glyph glyph-name="Omicron" unicode="&#x39f;" horiz-adv-x="1293" d="M734 -10 C1097 -10 1236 179 1236 407 C1236 578 1129 710 857 710 L565 710 C202 710 61 522 61 295 C61 122 171 -10 442 -10 L734 -10 Z M474 140 C293 140 238 216 238 315 C238 429 300 560 554 560 L824 560 C1003 560 1059 484 1059 388 C1059 264 991 140 744 140 L474 140 Z " />
<glyph glyph-name="Pi" unicode="&#x3a0;" horiz-adv-x="1252" d="M916 0 L1081 0 L1206 700 L177 700 L52 0 L217 0 L314 550 L1013 550 L916 0 Z " />
<glyph glyph-name="Rho" unicode="&#x3a1;" horiz-adv-x="1147" d="M52 0 L217 0 L259 235 L820 235 C1056 235 1150 354 1150 504 C1150 613 1085 700 903 700 L177 700 L52 0 Z M871 550 C955 550 976 520 976 481 C976 430 941 385 843 385 L286 385 L314 550 L871 550 Z " />
<glyph glyph-name="Sigma" unicode="&#x3a3;" horiz-adv-x="1129" d="M113 577 L491 355 L34 123 L11 0 L999 0 L1025 150 L384 150 L778 345 L444 550 L1096 550 L1124 700 L137 700 L113 577 Z " />
<glyph glyph-name="Tau" unicode="&#x3a4;" horiz-adv-x="1136" d="M61 550 L523 550 L425 0 L591 0 L688 550 L1151 550 L1178 700 L89 700 L61 550 Z " />
<glyph glyph-name="Upsilon" unicode="&#x3a5;" horiz-adv-x="1204" d="M460 0 L625 0 L662 213 L1276 700 L1024 700 L595 342 L289 700 L60 700 L497 213 L460 0 Z " />
<glyph glyph-name="Phi" unicode="&#x3a6;" horiz-adv-x="1252" d="M810 62 C1105 62 1213 217 1213 395 C1213 527 1123 638 908 638 L763 638 L783 750 L617 750 L597 638 L448 638 C155 638 45 479 45 303 C45 169 136 62 350 62 L494 62 L474 -50 L640 -50 L660 62 L810 62 Z M885 488 C1008 488 1036 435 1036 368 C1036 284 961 212 819 212 L688 212 L734 488 L885 488 Z M224 331 C224 413 297 488 439 488 L569 488 L523 212 L374 212 C251 212 224 263 224 331 L224 331 Z " />
<glyph glyph-name="Chi" unicode="&#x3a7;" horiz-adv-x="1177" d="M79 700 L469 352 L-51 0 L220 0 L585 265 L859 0 L1111 0 L717 352 L1231 700 L960 700 L599 439 L331 700 L79 700 Z " />
<glyph glyph-name="Psi" unicode="&#x3a8;" horiz-adv-x="1243" d="M479 0 L645 0 L668 135 L784 135 C1064 135 1176 260 1210 451 L1255 700 L1090 700 L1049 479 C1027 360 960 285 806 285 L696 285 L770 700 L604 700 L531 285 L424 285 C259 285 223 361 242 468 L284 700 L119 700 L77 469 C42 276 118 135 406 135 L503 135 L479 0 Z " />
<glyph glyph-name="Omega" unicode="&#x3a9;" horiz-adv-x="1301" d="M466 124 C316 147 251 226 251 319 C251 426 307 560 548 560 L836 560 C1008 560 1058 488 1058 394 C1058 277 968 148 756 124 L735 0 L1181 0 L1209 150 L1081 150 C1188 229 1228 336 1228 446 C1228 593 1133 710 893 710 L542 710 C223 710 94 530 94 337 C94 265 119 194 167 150 L29 150 L1 0 L446 0 L466 124 Z " />
<glyph glyph-name="Iotadieresis" unicode="&#x3aa;" horiz-adv-x="388" d="M52 0 L217 0 L342 700 L177 700 L52 0 Z M338 785 L486 785 L512 933 L364 933 L338 785 Z M54 785 L202 785 L227 933 L80 933 L54 785 Z " />
<glyph glyph-name="Upsilondieresis" unicode="&#x3ab;" horiz-adv-x="1204" d="M460 0 L625 0 L662 213 L1276 700 L1024 700 L595 342 L289 700 L60 700 L497 213 L460 0 Z M748 785 L896 785 L922 933 L774 933 L748 785 Z M464 785 L612 785 L637 933 L490 933 L464 785 Z " />
<glyph glyph-name="alphatonos" unicode="&#x3ac;" horiz-adv-x="1056" d="M818 0 L993 0 L646 560 L491 560 L-55 0 L131 0 L224 97 L759 97 L818 0 Z M552 440 L692 208 L330 208 L552 440 Z M110 360 L195 360 L276 560 L100 560 L110 360 Z " />
<glyph glyph-name="epsilontonos" unicode="&#x3ad;" horiz-adv-x="1159" d="M211 0 L1035 0 L1058 127 L380 127 L396 224 L989 224 L1010 336 L417 336 L433 433 L1111 433 L1134 560 L310 560 L211 0 Z M48 360 L133 360 L214 560 L38 560 L48 360 Z " />
<glyph glyph-name="etatonos" unicode="&#x3ae;" horiz-adv-x="1249" d="M941 0 L1087 0 L1186 560 L1040 560 L1002 344 L420 344 L456 560 L310 560 L211 0 L357 0 L395 216 L978 216 L941 0 Z M48 360 L133 360 L214 560 L38 560 L48 360 Z " />
<glyph glyph-name="iotatonos" unicode="&#x3af;" horiz-adv-x="518" d="M211 0 L357 0 L456 560 L310 560 L211 0 Z M48 360 L133 360 L214 560 L38 560 L48 360 Z " />
<glyph glyph-name="upsilondieresistonos" unicode="&#x3b0;" horiz-adv-x="1023" d="M379 0 L526 0 L556 171 L1069 560 L847 560 L494 279 L237 560 L34 560 L409 171 L379 0 Z M714 649 L858 649 L884 793 L740 793 L714 649 Z M280 649 L424 649 L449 793 L305 793 L280 649 Z M530 635 L602 635 L683 835 L522 835 L530 635 Z " />
<glyph glyph-name="alpha" unicode="&#x3b1;" horiz-adv-x="1056" d="M818 0 L993 0 L646 560 L491 560 L-55 0 L131 0 L224 97 L759 97 L818 0 Z M552 440 L692 208 L330 208 L552 440 Z " />
<glyph glyph-name="beta" unicode="&#x3b2;" horiz-adv-x="1038" d="M42 0 L726 0 C890 0 943 86 943 174 C943 229 916 274 848 291 C919 323 949 379 949 442 C949 510 907 560 792 560 L141 560 L42 0 Z M211 127 L227 224 L725 224 C777 224 790 210 790 188 C790 161 772 127 708 127 L211 127 Z M726 433 C778 433 791 419 791 397 C791 370 773 336 709 336 L248 336 L264 433 L726 433 Z " />
<glyph glyph-name="gamma" unicode="&#x3b3;" horiz-adv-x="944" d="M42 0 L188 0 L264 433 L926 433 L949 560 L141 560 L42 0 Z " />
<glyph glyph-name="delta" unicode="&#x3b4;" horiz-adv-x="1056" d="M646 560 L491 560 L-55 0 L993 0 L646 560 Z M552 442 L744 127 L251 127 L552 442 Z " />
<glyph glyph-name="epsilon" unicode="&#x3b5;" horiz-adv-x="990" d="M42 0 L866 0 L889 127 L211 127 L227 224 L820 224 L841 336 L248 336 L264 433 L942 433 L965 560 L141 560 L42 0 Z " />
<glyph glyph-name="zeta" unicode="&#x3b6;" horiz-adv-x="986" d="M2 0 L880 0 L903 127 L317 127 L946 462 L959 560 L105 560 L82 433 L641 433 L14 98 L2 0 Z " />
<glyph glyph-name="eta" unicode="&#x3b7;" horiz-adv-x="1079" d="M772 0 L918 0 L1017 560 L871 560 L833 344 L251 344 L287 560 L141 560 L42 0 L188 0 L226 216 L809 216 L772 0 Z " />
<glyph glyph-name="theta" unicode="&#x3b8;" horiz-adv-x="1106" d="M337 224 L725 224 L746 336 L358 336 L337 224 Z M622 -8 C927 -8 1040 152 1042 326 C1045 461 960 568 726 568 L464 568 C159 568 48 408 45 234 C42 99 125 -8 360 -8 L622 -8 Z M385 119 C240 119 200 176 201 249 C202 339 270 441 442 441 L702 441 C847 441 886 384 886 311 C886 224 819 119 645 119 L385 119 Z " />
<glyph glyph-name="iota" unicode="&#x3b9;" horiz-adv-x="349" d="M42 0 L188 0 L287 560 L141 560 L42 0 Z " />
<glyph glyph-name="kappa" unicode="&#x3ba;" horiz-adv-x="1073" d="M1041 560 L776 560 L233 257 L287 560 L141 560 L42 0 L188 0 L207 101 L459 240 L783 0 L1011 0 L587 310 L1041 560 Z " />
<glyph glyph-name="lambda" unicode="&#x3bb;" horiz-adv-x="1056" d="M490 560 L-55 0 L135 0 L551 440 L813 0 L993 0 L645 560 L490 560 Z " />
<glyph glyph-name="mu" unicode="&#x3bc;" horiz-adv-x="1202" d="M992 560 L570 205 L272 560 L141 560 L42 0 L188 0 L253 366 L544 14 L959 366 L895 0 L1041 0 L1140 560 L992 560 Z " />
<glyph glyph-name="nu" unicode="&#x3bd;" horiz-adv-x="1083" d="M922 0 L1021 560 L874 560 L803 155 L280 560 L141 560 L42 0 L188 0 L259 405 L783 0 L922 0 Z " />
<glyph glyph-name="xi" unicode="&#x3be;" horiz-adv-x="992" d="M81 433 L945 433 L968 560 L104 560 L81 433 Z M892 127 L28 127 L5 0 L869 0 L892 127 Z M119 224 L831 224 L853 336 L140 336 L119 224 Z " />
<glyph glyph-name="omicron" unicode="&#x3bf;" horiz-adv-x="1106" d="M622 -8 C927 -8 1040 152 1042 326 C1045 461 960 568 726 568 L464 568 C159 568 48 408 45 234 C42 99 125 -8 360 -8 L622 -8 Z M385 119 C240 119 200 176 201 249 C202 339 270 441 442 441 L702 441 C847 441 886 384 886 311 C886 224 819 119 645 119 L385 119 Z " />
<glyph glyph-name="pi" unicode="&#x3c0;" horiz-adv-x="1079" d="M772 0 L918 0 L1017 560 L141 560 L42 0 L188 0 L264 433 L847 433 L772 0 Z " />
<glyph glyph-name="rho" unicode="&#x3c1;" horiz-adv-x="996" d="M42 0 L188 0 L220 184 L696 184 C901 184 972 290 972 400 C972 489 917 560 763 560 L141 560 L42 0 Z M736 433 C801 433 816 412 816 383 C816 349 796 312 715 312 L244 312 L264 433 L736 433 Z " />
<glyph glyph-name="uni03C2" unicode="&#x3c2;" horiz-adv-x="967" d="M84 456 L404 283 L22 104 L4 0 L844 0 L867 127 L330 127 L657 277 L378 433 L920 433 L943 560 L103 560 L84 456 Z " />
<glyph glyph-name="sigma" unicode="&#x3c3;" horiz-adv-x="967" d="M84 456 L404 283 L22 104 L4 0 L844 0 L867 127 L330 127 L657 277 L378 433 L920 433 L943 560 L103 560 L84 456 Z " />
<glyph glyph-name="tau" unicode="&#x3c4;" horiz-adv-x="996" d="M52 433 L441 433 L366 0 L512 0 L588 433 L978 433 L1001 560 L75 560 L52 433 Z " />
<glyph glyph-name="upsilon" unicode="&#x3c5;" horiz-adv-x="1023" d="M379 0 L526 0 L556 171 L1069 560 L847 560 L494 279 L237 560 L34 560 L409 171 L379 0 Z " />
<glyph glyph-name="phi" unicode="&#x3c6;" horiz-adv-x="1081" d="M690 50 C944 50 1028 177 1028 318 C1028 424 959 510 771 510 L645 510 L661 600 L515 600 L499 510 L373 510 C123 510 35 380 35 241 C35 133 104 50 292 50 L417 50 L400 -40 L546 -40 L563 50 L690 50 Z M752 383 C847 383 871 347 871 300 C871 238 824 177 707 177 L587 177 L622 383 L752 383 Z M311 177 C216 177 191 213 191 260 C191 322 238 383 355 383 L475 383 L440 177 L311 177 Z " />
<glyph glyph-name="chi" unicode="&#x3c7;" horiz-adv-x="1018" d="M58 560 L390 282 L-45 0 L197 0 L496 204 L723 0 L945 0 L607 282 L1041 560 L798 560 L505 358 L281 560 L58 560 Z " />
<glyph glyph-name="psi" unicode="&#x3c8;" horiz-adv-x="1067" d="M401 0 L547 0 L565 107 L639 107 C898 107 996 216 1023 370 L1056 560 L910 560 L877 371 C863 289 822 233 662 233 L589 233 L646 560 L500 560 L443 233 L371 233 C212 233 189 289 203 371 L236 560 L90 560 L57 371 C30 217 87 107 346 107 L418 107 L401 0 Z " />
<glyph glyph-name="omega" unicode="&#x3c9;" horiz-adv-x="1119" d="M622 0 L1002 0 L1026 127 L923 127 C1004 185 1038 269 1038 358 C1038 475 964 568 752 568 L445 568 C172 568 75 423 75 271 C75 216 99 160 136 127 L22 127 L-2 0 L378 0 L398 105 C253 118 212 185 212 257 C212 347 285 441 457 441 L703 441 C853 441 890 383 890 312 C890 214 835 129 643 105 L622 0 Z " />
<glyph glyph-name="iotadieresis" unicode="&#x3ca;" horiz-adv-x="349" d="M42 0 L188 0 L287 560 L141 560 L42 0 Z M294 645 L442 645 L468 793 L320 793 L294 645 Z M10 645 L158 645 L183 793 L36 793 L10 645 Z " />
<glyph glyph-name="upsilondieresis" unicode="&#x3cb;" horiz-adv-x="1023" d="M379 0 L526 0 L556 171 L1069 560 L847 560 L494 279 L237 560 L34 560 L409 171 L379 0 Z M635 645 L783 645 L809 793 L661 793 L635 645 Z M351 645 L499 645 L524 793 L377 793 L351 645 Z " />
<glyph glyph-name="omicrontonos" unicode="&#x3cc;" horiz-adv-x="1258" d="M773 -8 C1078 -8 1191 152 1193 326 C1196 461 1111 568 877 568 L615 568 C310 568 199 408 196 234 C193 99 276 -8 511 -8 L773 -8 Z M536 119 C391 119 351 176 352 249 C353 339 421 441 593 441 L853 441 C998 441 1037 384 1037 311 C1037 224 970 119 796 119 L536 119 Z M48 360 L133 360 L214 560 L38 560 L48 360 Z " />
<glyph glyph-name="upsilontonos" unicode="&#x3cd;" horiz-adv-x="1230" d="M586 0 L733 0 L763 171 L1276 560 L1054 560 L701 279 L444 560 L241 560 L616 171 L586 0 Z M48 360 L133 360 L214 560 L38 560 L48 360 Z " />
<glyph glyph-name="omegatonos" unicode="&#x3ce;" horiz-adv-x="1253" d="M755 0 L1135 0 L1159 127 L1056 127 C1137 185 1171 269 1171 358 C1171 475 1097 568 885 568 L578 568 C305 568 208 423 208 271 C208 216 232 160 269 127 L155 127 L131 0 L511 0 L531 105 C386 118 345 185 345 257 C345 347 418 441 590 441 L836 441 C986 441 1023 383 1023 312 C1023 214 968 129 776 105 L755 0 Z M48 360 L133 360 L214 560 L38 560 L48 360 Z " />
<glyph glyph-name="uni0400" unicode="&#x400;" horiz-adv-x="1150" d="M52 0 L1020 0 L1047 150 L244 150 L266 282 L971 282 L996 418 L291 418 L314 550 L1117 550 L1145 700 L177 700 L52 0 Z M692 946 L517 946 L653 775 L755 775 L692 946 Z " />
<glyph glyph-name="uni0401" unicode="&#x401;" horiz-adv-x="1150" d="M52 0 L1020 0 L1047 150 L244 150 L266 282 L971 282 L996 418 L291 418 L314 550 L1117 550 L1145 700 L177 700 L52 0 Z M730 785 L878 785 L904 933 L756 933 L730 785 Z M446 785 L594 785 L619 933 L472 933 L446 785 Z " />
<glyph glyph-name="uni0402" unicode="&#x402;" horiz-adv-x="1299" d="M679 0 L954 0 C1172 0 1256 111 1256 241 C1256 341 1192 418 1028 418 L501 418 L523 550 L961 550 L989 700 L89 700 L61 550 L358 550 L261 -1 L426 -1 L477 282 L999 282 C1066 282 1080 256 1080 227 C1080 187 1056 150 977 150 L707 150 L679 0 Z " />
<glyph glyph-name="uni0403" unicode="&#x403;" horiz-adv-x="1083" d="M52 0 L217 0 L314 550 L1098 550 L1126 700 L177 700 L52 0 Z M561 775 L674 775 L874 946 L685 946 L561 775 Z " />
<glyph glyph-name="uni0404" unicode="&#x404;" horiz-adv-x="1136" d="M957 282 L982 418 L257 418 C289 489 364 550 530 550 L1103 550 L1130 700 L545 700 C199 700 61 507 61 296 C61 130 162 0 430 0 L1005 0 L1031 150 L457 150 C309 150 252 205 240 282 L957 282 Z " />
<glyph glyph-name="uni0405" unicode="&#x405;" horiz-adv-x="1158" d="M798 150 L70 150 L42 0 L775 0 C989 0 1077 108 1077 241 C1077 341 1013 418 848 418 L344 418 C277 418 263 444 263 473 C263 513 287 550 366 550 L1094 550 L1122 700 L389 700 C175 700 87 592 87 459 C87 359 152 282 315 282 L820 282 C887 282 901 256 901 227 C901 187 877 150 798 150 L798 150 Z " />
<glyph glyph-name="uni0406" unicode="&#x406;" horiz-adv-x="388" d="M52 0 L217 0 L342 700 L177 700 L52 0 Z " />
<glyph glyph-name="uni0407" unicode="&#x407;" horiz-adv-x="388" d="M52 0 L217 0 L342 700 L177 700 L52 0 Z M338 785 L486 785 L512 933 L364 933 L338 785 Z M54 785 L202 785 L227 933 L80 933 L54 785 Z " />
<glyph glyph-name="uni0408" unicode="&#x408;" horiz-adv-x="1181" d="M300 -5 L640 -5 C921 -5 1030 109 1065 304 L1135 700 L970 700 L902 332 C881 213 815 145 662 145 L329 145 C197 145 173 199 188 275 L200 336 L35 336 L23 275 C-6 124 60 -5 300 -5 L300 -5 Z " />
<glyph glyph-name="uni0409" unicode="&#x409;" horiz-adv-x="1786" d="M771 0 L1419 0 C1655 0 1749 119 1749 269 C1749 378 1684 465 1502 465 L1021 465 L1062 700 L349 700 L202 231 C187 181 150 150 86 150 L-9 150 L-37 0 L57 0 C243 0 324 92 357 200 L464 550 L868 550 L771 0 Z M1442 150 L965 150 L993 315 L1470 315 C1554 315 1575 285 1575 246 C1575 195 1540 150 1442 150 L1442 150 Z " />
<glyph glyph-name="uni040A" unicode="&#x40a;" horiz-adv-x="1800" d="M784 0 L1432 0 C1668 0 1763 119 1763 269 C1763 378 1697 465 1515 465 L1034 465 L1076 700 L910 700 L869 465 L301 465 L342 700 L177 700 L52 0 L217 0 L273 315 L841 315 L784 0 Z M1006 315 L1483 315 C1567 315 1588 285 1588 246 C1588 195 1553 150 1455 150 L978 150 L1006 315 Z " />
<glyph glyph-name="uni040B" unicode="&#x40b;" horiz-adv-x="1328" d="M1213 -1 L1248 193 C1271 319 1229 414 1036 414 L500 414 L523 550 L961 550 L989 700 L89 700 L61 550 L358 550 L259 -1 L424 -1 L472 263 L1011 263 C1079 263 1091 236 1082 183 L1048 -1 L1213 -1 Z " />
<glyph glyph-name="uni040C" unicode="&#x40c;" horiz-adv-x="1246" d="M536 775 L649 775 L849 946 L660 946 L536 775 Z M710 356 L1223 700 L958 700 L564 425 L292 425 L342 700 L177 700 L52 0 L217 0 L264 275 L563 275 L933 0 L1189 0 L710 356 Z " />
<glyph glyph-name="uni040D" unicode="&#x40d;" horiz-adv-x="1256" d="M735 946 L560 946 L696 775 L798 775 L735 946 Z M1009 507 L919 0 L1085 0 L1210 700 L1048 700 L252 193 L342 700 L177 700 L52 0 L213 0 L1009 507 Z " />
<glyph glyph-name="uni040E" unicode="&#x40e;" horiz-adv-x="1208" d="M712 877 C649 877 628 906 632 945 L545 945 C534 867 552 775 696 775 C839 775 891 864 909 945 L819 945 C808 906 773 877 712 877 L712 877 Z M433 0 L1283 700 L1037 700 L607 329 L288 700 L62 700 L484 232 L188 0 L433 0 Z " />
<glyph glyph-name="uni040F" unicode="&#x40f;" horiz-adv-x="1252" d="M943 150 L244 150 L342 700 L177 700 L52 0 L484 0 L456 -150 L622 -150 L650 0 L1081 0 L1206 700 L1041 700 L943 150 Z " />
<glyph glyph-name="uni0410" unicode="&#x410;" horiz-adv-x="1236" d="M980 0 L1174 0 L770 700 L597 700 L-56 0 L152 0 L258 116 L914 116 L980 0 Z M664 558 L838 251 L382 251 L664 558 Z " />
<glyph glyph-name="uni0411" unicode="&#x411;" horiz-adv-x="1185" d="M52 0 L804 0 C1018 0 1106 108 1106 241 C1106 341 1042 418 877 418 L291 418 L314 550 L1098 550 L1126 700 L177 700 L52 0 Z M267 282 L849 282 C916 282 930 256 930 227 C930 187 906 150 827 150 L245 150 L267 282 Z " />
<glyph glyph-name="uni0412" unicode="&#x412;" horiz-adv-x="1208" d="M52 0 L851 0 C1039 0 1113 106 1113 219 C1113 287 1082 343 1003 363 C1087 402 1126 471 1126 554 C1126 636 1072 700 935 700 L177 700 L52 0 Z M856 282 C923 282 941 256 941 228 C941 192 914 150 834 150 L244 150 L266 282 L856 282 Z M947 496 C947 461 921 418 840 418 L291 418 L314 550 L862 550 C930 550 947 527 947 496 L947 496 Z " />
<glyph glyph-name="uni0413" unicode="&#x413;" horiz-adv-x="1083" d="M52 0 L217 0 L314 550 L1098 550 L1126 700 L177 700 L52 0 Z " />
<glyph glyph-name="uni0414" unicode="&#x414;" horiz-adv-x="1200" d="M128 0 L919 0 L891 -150 L1056 -150 L1111 150 L1027 150 L1126 700 L349 700 L202 231 C187 179 159 150 93 150 L-10 150 L-64 -150 L101 -150 L128 0 Z M464 550 L933 550 L862 150 L298 150 C337 174 363 212 377 259 L464 550 Z " />
<glyph glyph-name="uni0415" unicode="&#x415;" horiz-adv-x="1150" d="M52 0 L1020 0 L1047 150 L244 150 L266 282 L971 282 L996 418 L291 418 L314 550 L1117 550 L1145 700 L177 700 L52 0 Z " />
<glyph glyph-name="uni0416" unicode="&#x416;" horiz-adv-x="1572" d="M1156 352 L1576 700 L1342 700 L1019 425 L885 425 L935 700 L769 700 L720 425 L568 425 L345 700 L130 700 L425 352 L-46 0 L204 0 L561 275 L692 275 L644 0 L810 0 L857 275 L1008 275 L1270 0 L1501 0 L1156 352 Z " />
<glyph glyph-name="uni0417" unicode="&#x417;" horiz-adv-x="1217" d="M1 0 L861 0 C1049 0 1123 106 1123 219 C1123 287 1090 343 1012 363 C1095 402 1135 471 1135 554 C1135 636 1081 700 944 700 L146 700 L118 550 L871 550 C939 550 956 527 956 496 C956 461 930 418 850 418 L179 418 L154 282 L866 282 C933 282 951 256 951 228 C951 192 924 150 844 150 L28 150 L1 0 Z " />
<glyph glyph-name="uni0418" unicode="&#x418;" horiz-adv-x="1256" d="M1009 507 L919 0 L1085 0 L1210 700 L1048 700 L252 193 L342 700 L177 700 L52 0 L213 0 L1009 507 Z " />
<glyph glyph-name="uni0419" unicode="&#x419;" horiz-adv-x="1256" d="M719 877 C656 877 635 906 639 945 L552 945 C541 867 559 775 703 775 C846 775 898 864 916 945 L826 945 C815 906 780 877 719 877 L719 877 Z M1009 507 L919 0 L1085 0 L1210 700 L1048 700 L252 193 L342 700 L177 700 L52 0 L213 0 L1009 507 Z " />
<glyph glyph-name="uni041A" unicode="&#x41a;" horiz-adv-x="1246" d="M710 356 L1223 700 L958 700 L564 425 L292 425 L342 700 L177 700 L52 0 L217 0 L264 275 L563 275 L933 0 L1189 0 L710 356 Z " />
<glyph glyph-name="uni041B" unicode="&#x41b;" horiz-adv-x="1207" d="M349 700 L202 231 C187 181 150 150 85 150 L-10 150 L-37 0 L57 0 C243 0 324 92 357 200 L464 550 L968 550 L871 0 L1036 0 L1161 700 L349 700 Z " />
<glyph glyph-name="uni041C" unicode="&#x41c;" horiz-adv-x="1397" d="M1183 700 L673 244 L324 700 L177 700 L52 0 L217 0 L299 472 L642 19 L1143 472 L1061 0 L1226 0 L1351 700 L1183 700 Z " />
<glyph glyph-name="uni041D" unicode="&#x41d;" horiz-adv-x="1252" d="M916 0 L1081 0 L1206 700 L1041 700 L992 425 L292 425 L342 700 L177 700 L52 0 L217 0 L264 275 L964 275 L916 0 Z " />
<glyph glyph-name="uni041E" unicode="&#x41e;" horiz-adv-x="1293" d="M734 -10 C1097 -10 1236 179 1236 407 C1236 578 1129 710 857 710 L565 710 C202 710 61 522 61 295 C61 122 171 -10 442 -10 L734 -10 Z M474 140 C293 140 238 216 238 315 C238 429 300 560 554 560 L824 560 C1003 560 1059 484 1059 388 C1059 264 991 140 744 140 L474 140 Z " />
<glyph glyph-name="uni041F" unicode="&#x41f;" horiz-adv-x="1252" d="M916 0 L1081 0 L1206 700 L177 700 L52 0 L217 0 L314 550 L1013 550 L916 0 Z " />
<glyph glyph-name="uni0420" unicode="&#x420;" horiz-adv-x="1147" d="M52 0 L217 0 L259 235 L820 235 C1056 235 1150 354 1150 504 C1150 613 1085 700 903 700 L177 700 L52 0 Z M871 550 C955 550 976 520 976 481 C976 430 941 385 843 385 L286 385 L314 550 L871 550 Z " />
<glyph glyph-name="uni0421" unicode="&#x421;" horiz-adv-x="1136" d="M238 317 C238 422 289 550 530 550 L1103 550 L1130 700 L545 700 C199 700 61 507 61 296 C61 130 162 0 430 0 L1005 0 L1031 150 L457 150 C287 150 238 223 238 317 L238 317 Z " />
<glyph glyph-name="uni0422" unicode="&#x422;" horiz-adv-x="1136" d="M61 550 L523 550 L425 0 L591 0 L688 550 L1151 550 L1178 700 L89 700 L61 550 Z " />
<glyph glyph-name="uni0423" unicode="&#x423;" horiz-adv-x="1208" d="M433 0 L1283 700 L1037 700 L607 329 L288 700 L62 700 L484 232 L188 0 L433 0 Z " />
<glyph glyph-name="uni0424" unicode="&#x424;" horiz-adv-x="1252" d="M810 62 C1105 62 1213 217 1213 395 C1213 527 1123 638 908 638 L763 638 L783 750 L617 750 L597 638 L448 638 C155 638 45 479 45 303 C45 169 136 62 350 62 L494 62 L474 -50 L640 -50 L660 62 L810 62 Z M885 488 C1008 488 1036 435 1036 368 C1036 284 961 212 819 212 L688 212 L734 488 L885 488 Z M224 331 C224 413 297 488 439 488 L569 488 L523 212 L374 212 C251 212 224 263 224 331 L224 331 Z " />
<glyph glyph-name="uni0425" unicode="&#x425;" horiz-adv-x="1177" d="M79 700 L469 352 L-51 0 L220 0 L585 265 L859 0 L1111 0 L717 352 L1231 700 L960 700 L599 439 L331 700 L79 700 Z " />
<glyph glyph-name="uni0426" unicode="&#x426;" horiz-adv-x="1245" d="M908 150 L244 150 L342 700 L177 700 L52 0 L964 0 L936 -150 L1101 -150 L1156 150 L1073 150 L1171 700 L1006 700 L908 150 Z " />
<glyph glyph-name="uni0427" unicode="&#x427;" horiz-adv-x="1176" d="M119 699 L73 450 C50 323 93 228 285 228 L880 228 L838 -1 L1003 -1 L1130 699 L965 699 L907 379 L310 379 C242 379 230 408 239 459 L284 699 L119 699 Z " />
<glyph glyph-name="uni0428" unicode="&#x428;" horiz-adv-x="1534" d="M1225 150 L817 150 L915 700 L749 700 L652 150 L244 150 L342 700 L177 700 L52 0 L1363 0 L1489 700 L1324 700 L1225 150 Z " />
<glyph glyph-name="uni0429" unicode="&#x429;" horiz-adv-x="1528" d="M1191 150 L800 150 L898 700 L732 700 L635 150 L244 150 L342 700 L177 700 L52 0 L1247 0 L1219 -150 L1384 -150 L1439 150 L1356 150 L1454 700 L1289 700 L1191 150 Z " />
<glyph glyph-name="uni042A" unicode="&#x42a;" horiz-adv-x="1299" d="M551 700 L89 700 L61 550 L358 550 L261 0 L930 0 C1166 0 1261 119 1261 269 C1261 378 1195 465 1013 465 L510 465 L551 700 Z M482 315 L981 315 C1065 315 1086 285 1086 246 C1086 195 1051 150 953 150 L454 150 L482 315 Z " />
<glyph glyph-name="uni042B" unicode="&#x42b;" horiz-adv-x="1530" d="M1199 0 L1364 0 L1489 700 L1324 700 L1199 0 Z M301 465 L342 700 L177 700 L52 0 L779 0 C1015 0 1110 119 1110 269 C1110 378 1044 465 862 465 L301 465 Z M273 315 L830 315 C914 315 935 285 935 246 C935 195 900 150 802 150 L245 150 L273 315 Z " />
<glyph glyph-name="uni042C" unicode="&#x42c;" horiz-adv-x="1147" d="M301 465 L342 700 L177 700 L52 0 L779 0 C1015 0 1110 119 1110 269 C1110 378 1044 465 862 465 L301 465 Z M273 315 L830 315 C914 315 935 285 935 246 C935 195 900 150 802 150 L245 150 L273 315 Z " />
<glyph glyph-name="uni042D" unicode="&#x42d;" horiz-adv-x="1136" d="M158 282 L882 282 C851 210 775 150 610 150 L37 150 L10 0 L595 0 C941 0 1079 193 1079 404 C1079 570 978 700 710 700 L135 700 L109 550 L683 550 C831 550 887 494 899 418 L183 418 L158 282 Z " />
<glyph glyph-name="uni042E" unicode="&#x42e;" horiz-adv-x="1803" d="M1244 -10 C1607 -10 1746 179 1746 407 C1746 578 1639 710 1367 710 L1122 710 C831 710 683 589 635 425 L292 425 L342 700 L177 700 L52 0 L217 0 L264 275 L618 275 C627 112 738 -10 999 -10 L1244 -10 Z M1031 140 C850 140 795 216 795 315 C795 429 857 560 1111 560 L1334 560 C1513 560 1569 484 1569 388 C1569 264 1501 140 1254 140 L1031 140 Z " />
<glyph glyph-name="uni042F" unicode="&#x42f;" horiz-adv-x="1229" d="M1184 700 L467 700 C235 700 137 583 137 435 C137 335 195 254 347 242 L-61 0 L212 0 L597 238 L935 238 L893 0 L1058 0 L1184 700 Z M310 452 C310 505 345 550 449 550 L990 550 L962 382 L414 382 C332 382 310 412 310 452 L310 452 Z " />
<glyph glyph-name="uni0430" unicode="&#x430;" horiz-adv-x="1056" d="M818 0 L993 0 L646 560 L491 560 L-55 0 L131 0 L224 97 L759 97 L818 0 Z M552 440 L692 208 L330 208 L552 440 Z " />
<glyph glyph-name="uni0431" unicode="&#x431;" horiz-adv-x="1017" d="M42 0 L686 0 C875 0 936 92 936 196 C936 275 885 334 746 334 L249 334 L265 433 L927 433 L951 560 L143 560 L42 0 Z M230 226 L719 226 C770 226 783 207 783 186 C783 159 766 127 702 127 L212 127 L230 226 Z " />
<glyph glyph-name="uni0432" unicode="&#x432;" horiz-adv-x="1038" d="M42 0 L726 0 C890 0 943 86 943 174 C943 229 916 274 848 291 C919 323 949 379 949 442 C949 510 907 560 792 560 L141 560 L42 0 Z M211 127 L227 224 L725 224 C777 224 790 210 790 188 C790 161 772 127 708 127 L211 127 Z M726 433 C778 433 791 419 791 397 C791 370 773 336 709 336 L248 336 L264 433 L726 433 Z " />
<glyph glyph-name="uni0433" unicode="&#x433;" horiz-adv-x="944" d="M42 0 L188 0 L264 433 L926 433 L949 560 L141 560 L42 0 Z " />
<glyph glyph-name="uni0434" unicode="&#x434;" horiz-adv-x="1040" d="M122 0 L783 0 L760 -120 L906 -120 L952 127 L881 127 L957 560 L296 560 L176 182 C164 146 142 127 89 127 L-1 127 L-47 -120 L99 -120 L122 0 Z M399 433 L787 433 L734 127 L273 127 C303 149 322 184 333 220 L399 433 Z " />
<glyph glyph-name="uni0435" unicode="&#x435;" horiz-adv-x="990" d="M42 0 L866 0 L889 127 L211 127 L227 224 L820 224 L841 336 L248 336 L264 433 L942 433 L965 560 L141 560 L42 0 Z " />
<glyph glyph-name="uni0436" unicode="&#x436;" horiz-adv-x="1351" d="M984 281 L1332 560 L1133 560 L873 344 L751 344 L788 560 L643 560 L605 344 L482 344 L298 560 L99 560 L347 281 L-42 0 L171 0 L460 216 L581 216 L543 0 L689 0 L726 216 L848 216 L1063 0 L1275 0 L984 281 Z " />
<glyph glyph-name="uni0437" unicode="&#x437;" horiz-adv-x="1041" d="M20 127 L-4 0 L731 0 C895 0 948 86 948 174 C948 229 921 274 853 291 C924 323 954 379 954 442 C954 510 913 560 797 560 L114 560 L89 433 L731 433 C783 433 796 419 796 397 C796 370 778 336 715 336 L144 336 L124 224 L730 224 C782 224 795 210 795 188 C795 161 777 127 713 127 L20 127 Z " />
<glyph glyph-name="uni0438" unicode="&#x438;" horiz-adv-x="1083" d="M844 397 L775 0 L922 0 L1021 560 L874 560 L218 163 L287 560 L141 560 L42 0 L189 0 L844 397 Z " />
<glyph glyph-name="uni0439" unicode="&#x439;" horiz-adv-x="1083" d="M609 737 C546 737 525 766 529 805 L442 805 C431 727 449 635 593 635 C736 635 788 724 806 805 L716 805 C705 766 670 737 609 737 L609 737 Z M844 397 L775 0 L922 0 L1021 560 L874 560 L218 163 L287 560 L141 560 L42 0 L189 0 L844 397 Z " />
<glyph glyph-name="uni043A" unicode="&#x43a;" horiz-adv-x="1074" d="M605 285 L1032 560 L795 560 L475 344 L251 344 L287 560 L141 560 L42 0 L188 0 L226 216 L471 216 L775 0 L1010 0 L605 285 Z " />
<glyph glyph-name="uni043B" unicode="&#x43b;" horiz-adv-x="1049" d="M538 433 L817 433 L742 0 L888 0 L987 560 L528 560 L538 433 Z M528 560 L296 560 L176 186 C164 145 134 127 85 127 L-1 127 L-24 0 L78 0 C219 0 284 68 313 161 L399 433 L538 433 L528 560 Z " />
<glyph glyph-name="uni043C" unicode="&#x43c;" horiz-adv-x="1202" d="M992 560 L570 205 L272 560 L141 560 L42 0 L188 0 L253 366 L544 14 L959 366 L895 0 L1041 0 L1140 560 L992 560 Z " />
<glyph glyph-name="uni043D" unicode="&#x43d;" horiz-adv-x="1079" d="M772 0 L918 0 L1017 560 L871 560 L833 344 L251 344 L287 560 L141 560 L42 0 L188 0 L226 216 L809 216 L772 0 Z " />
<glyph glyph-name="uni043E" unicode="&#x43e;" horiz-adv-x="1106" d="M622 -8 C927 -8 1040 152 1042 326 C1045 461 960 568 726 568 L464 568 C159 568 48 408 45 234 C42 99 125 -8 360 -8 L622 -8 Z M385 119 C240 119 200 176 201 249 C202 339 270 441 442 441 L702 441 C847 441 886 384 886 311 C886 224 819 119 645 119 L385 119 Z " />
<glyph glyph-name="uni043F" unicode="&#x43f;" horiz-adv-x="1079" d="M772 0 L918 0 L1017 560 L141 560 L42 0 L188 0 L264 433 L847 433 L772 0 Z " />
<glyph glyph-name="uni0440" unicode="&#x440;" horiz-adv-x="996" d="M42 0 L188 0 L220 184 L696 184 C901 184 972 290 972 400 C972 489 917 560 763 560 L141 560 L42 0 Z M736 433 C801 433 816 412 816 383 C816 349 796 312 715 312 L244 312 L264 433 L736 433 Z " />
<glyph glyph-name="uni0441" unicode="&#x441;" horiz-adv-x="972" d="M202 249 C202 343 278 433 445 433 L927 433 L951 560 L453 560 C152 560 45 400 45 232 C45 102 127 0 352 0 L850 0 L874 127 L368 127 C241 127 202 173 202 249 L202 249 Z " />
<glyph glyph-name="uni0442" unicode="&#x442;" horiz-adv-x="996" d="M52 433 L441 433 L366 0 L512 0 L588 433 L978 433 L1001 560 L75 560 L52 433 Z " />
<glyph glyph-name="uni0443" unicode="&#x443;" horiz-adv-x="1027" d="M365 0 L1075 560 L855 560 L507 271 L237 560 L36 560 L396 188 L145 0 L365 0 Z " />
<glyph glyph-name="uni0444" unicode="&#x444;" horiz-adv-x="1081" d="M690 50 C944 50 1028 177 1028 318 C1028 424 959 510 771 510 L645 510 L661 600 L515 600 L499 510 L373 510 C123 510 35 380 35 241 C35 133 104 50 292 50 L417 50 L400 -40 L546 -40 L563 50 L690 50 Z M752 383 C847 383 871 347 871 300 C871 238 824 177 707 177 L587 177 L622 383 L752 383 Z M311 177 C216 177 191 213 191 260 C191 322 238 383 355 383 L475 383 L440 177 L311 177 Z " />
<glyph glyph-name="uni0445" unicode="&#x445;" horiz-adv-x="1018" d="M58 560 L390 282 L-45 0 L197 0 L496 204 L723 0 L945 0 L607 282 L1041 560 L798 560 L505 358 L281 560 L58 560 Z " />
<glyph glyph-name="uni0446" unicode="&#x446;" horiz-adv-x="1070" d="M764 127 L211 127 L287 560 L141 560 L42 0 L813 0 L790 -120 L936 -120 L982 127 L911 127 L987 560 L841 560 L764 127 Z " />
<glyph glyph-name="uni0447" unicode="&#x447;" horiz-adv-x="1013" d="M760 306 L248 306 C207 306 196 329 204 365 L236 559 L90 559 L54 354 C36 253 71 179 221 179 L737 179 L704 -1 L850 -1 L951 559 L805 559 L760 306 Z " />
<glyph glyph-name="uni0448" unicode="&#x448;" horiz-adv-x="1319" d="M1035 127 L695 127 L772 560 L626 560 L549 127 L211 127 L287 560 L141 560 L42 0 L1158 0 L1257 560 L1112 560 L1035 127 Z " />
<glyph glyph-name="uni0449" unicode="&#x449;" horiz-adv-x="1311" d="M1005 127 L681 127 L757 560 L611 560 L534 127 L211 127 L287 560 L141 560 L42 0 L1054 0 L1031 -120 L1177 -120 L1223 127 L1152 127 L1228 560 L1082 560 L1005 127 Z " />
<glyph glyph-name="uni044A" unicode="&#x44a;" horiz-adv-x="1134" d="M473 560 L75 560 L52 433 L305 433 L228 0 L800 0 C1005 0 1076 106 1076 216 C1076 305 1022 376 867 376 L442 376 L473 560 Z M819 127 L397 127 L418 248 L840 248 C905 248 920 227 920 198 C920 164 901 127 819 127 L819 127 Z " />
<glyph glyph-name="uni044B" unicode="&#x44b;" horiz-adv-x="1341" d="M1038 0 L1184 0 L1283 560 L1137 560 L1038 0 Z M287 560 L141 560 L42 0 L663 0 C868 0 939 106 939 216 C939 305 885 376 730 376 L256 376 L287 560 Z M232 248 L703 248 C768 248 783 227 783 198 C783 164 764 127 682 127 L211 127 L232 248 Z " />
<glyph glyph-name="uni044C" unicode="&#x44c;" horiz-adv-x="996" d="M287 560 L141 560 L42 0 L663 0 C868 0 939 106 939 216 C939 305 885 376 730 376 L256 376 L287 560 Z M232 248 L703 248 C768 248 783 227 783 198 C783 164 764 127 682 127 L211 127 L232 248 Z " />
<glyph glyph-name="uni044D" unicode="&#x44d;" horiz-adv-x="973" d="M129 224 L728 224 C693 168 622 127 509 127 L27 127 L3 0 L501 0 C802 0 909 160 909 328 C909 458 827 560 602 560 L104 560 L80 433 L586 433 C698 433 742 397 750 336 L150 336 L129 224 Z " />
<glyph glyph-name="uni044E" unicode="&#x44e;" horiz-adv-x="1544" d="M1060 -8 C1365 -8 1478 152 1480 326 C1482 461 1398 568 1164 568 L942 568 C703 568 584 470 541 344 L251 344 L287 560 L141 560 L42 0 L188 0 L226 216 L523 216 C527 89 613 -8 838 -8 L1060 -8 Z M863 119 C718 119 678 176 679 249 C680 339 748 441 920 441 L1140 441 C1285 441 1324 384 1324 311 C1324 224 1257 119 1083 119 L863 119 Z " />
<glyph glyph-name="uni044F" unicode="&#x44f;" horiz-adv-x="1061" d="M1001 560 L386 560 C180 560 110 454 110 340 C110 262 164 201 281 190 L-52 0 L193 0 L509 187 L786 187 L753 0 L900 0 L1001 560 Z M830 433 L809 309 L346 309 C279 309 265 333 265 360 C265 394 287 433 369 433 L830 433 Z " />
<glyph glyph-name="uni0450" unicode="&#x450;" horiz-adv-x="990" d="M42 0 L866 0 L889 127 L211 127 L227 224 L820 224 L841 336 L248 336 L264 433 L942 433 L965 560 L141 560 L42 0 Z M589 806 L414 806 L550 635 L652 635 L589 806 Z " />
<glyph glyph-name="uni0451" unicode="&#x451;" horiz-adv-x="990" d="M42 0 L866 0 L889 127 L211 127 L227 224 L820 224 L841 336 L248 336 L264 433 L942 433 L965 560 L141 560 L42 0 Z M627 645 L775 645 L801 793 L653 793 L627 645 Z M343 645 L491 645 L516 793 L369 793 L343 645 Z " />
<glyph glyph-name="uni0452" unicode="&#x452;" horiz-adv-x="1134" d="M586 0 L823 0 C1012 0 1073 92 1073 196 C1073 275 1022 334 883 334 L435 334 L451 433 L819 433 L843 560 L77 560 L52 433 L305 433 L228 -1 L374 -1 L416 226 L856 226 C907 226 920 207 920 186 C920 159 903 127 839 127 L609 127 L586 0 Z " />
<glyph glyph-name="uni0453" unicode="&#x453;" horiz-adv-x="944" d="M42 0 L188 0 L264 433 L926 433 L949 560 L141 560 L42 0 Z M465 635 L578 635 L778 806 L589 806 L465 635 Z " />
<glyph glyph-name="uni0454" unicode="&#x454;" horiz-adv-x="973" d="M804 224 L825 336 L226 336 C260 392 332 433 445 433 L927 433 L951 560 L453 560 C152 560 45 400 45 232 C45 102 127 0 352 0 L850 0 L874 127 L368 127 C255 127 212 163 203 224 L804 224 Z " />
<glyph glyph-name="uni0455" unicode="&#x455;" horiz-adv-x="989" d="M673 127 L53 127 L29 0 L657 0 C846 0 907 92 907 196 C907 275 856 334 717 334 L280 334 C229 334 216 353 216 374 C216 402 234 433 298 433 L918 433 L942 560 L314 560 C125 560 63 468 63 365 C63 285 115 226 253 226 L690 226 C741 226 754 207 754 186 C754 159 737 127 673 127 L673 127 Z " />
<glyph glyph-name="uni0456" unicode="&#x456;" horiz-adv-x="349" d="M42 0 L188 0 L287 560 L141 560 L42 0 Z " />
<glyph glyph-name="uni0457" unicode="&#x457;" horiz-adv-x="349" d="M42 0 L188 0 L287 560 L141 560 L42 0 Z M294 645 L442 645 L468 793 L320 793 L294 645 Z M10 645 L158 645 L183 793 L36 793 L10 645 Z " />
<glyph glyph-name="uni0458" unicode="&#x458;" horiz-adv-x="998" d="M248 -4 L552 -4 C774 -4 871 85 899 243 L956 560 L810 560 L755 260 C738 169 685 123 560 123 L258 123 C161 123 149 166 158 220 L166 270 L22 270 L13 220 C-8 97 40 -4 248 -4 L248 -4 Z " />
<glyph glyph-name="uni0459" unicode="&#x459;" horiz-adv-x="1548" d="M905 560 L296 560 L176 186 C164 145 134 127 85 127 L-1 127 L-24 0 L78 0 C219 0 284 68 313 161 L399 433 L735 433 L660 0 L1215 0 C1420 0 1491 106 1491 216 C1491 305 1437 376 1282 376 L874 376 L905 560 Z M1234 127 L829 127 L850 248 L1255 248 C1320 248 1335 227 1335 198 C1335 164 1316 127 1234 127 L1234 127 Z " />
<glyph glyph-name="uni045A" unicode="&#x45a;" horiz-adv-x="1551" d="M908 560 L762 560 L730 376 L256 376 L287 560 L141 560 L42 0 L188 0 L232 248 L707 248 L663 0 L1218 0 C1423 0 1494 106 1494 216 C1494 305 1440 376 1285 376 L877 376 L908 560 Z M1237 127 L832 127 L853 248 L1258 248 C1323 248 1338 227 1338 198 C1338 164 1319 127 1237 127 L1237 127 Z " />
<glyph glyph-name="uni045B" unicode="&#x45b;" horiz-adv-x="1150" d="M410 206 L874 206 C916 206 926 183 919 147 L892 -1 L1038 -1 L1068 158 C1087 259 1051 333 901 333 L434 333 L450 433 L818 433 L841 560 L75 560 L52 433 L305 433 L226 -1 L373 -1 L410 206 Z " />
<glyph glyph-name="uni045C" unicode="&#x45c;" horiz-adv-x="1074" d="M430 635 L543 635 L743 806 L554 806 L430 635 Z M605 285 L1032 560 L795 560 L475 344 L251 344 L287 560 L141 560 L42 0 L188 0 L226 216 L471 216 L775 0 L1010 0 L605 285 Z " />
<glyph glyph-name="uni045D" unicode="&#x45d;" horiz-adv-x="1083" d="M625 806 L450 806 L586 635 L688 635 L625 806 Z M844 397 L775 0 L922 0 L1021 560 L874 560 L218 163 L287 560 L141 560 L42 0 L189 0 L844 397 Z " />
<glyph glyph-name="uni045E" unicode="&#x45e;" horiz-adv-x="1027" d="M595 737 C532 737 511 766 515 805 L428 805 C417 727 435 635 579 635 C722 635 774 724 792 805 L702 805 C691 766 656 737 595 737 L595 737 Z M365 0 L1075 560 L855 560 L507 271 L237 560 L36 560 L396 188 L145 0 L365 0 Z " />
<glyph glyph-name="uni045F" unicode="&#x45f;" horiz-adv-x="1079" d="M794 127 L211 127 L287 560 L141 560 L42 0 L408 0 L384 -120 L530 -120 L553 0 L918 0 L1017 560 L871 560 L794 127 Z " />
<glyph glyph-name="uni0490" unicode="&#x490;" horiz-adv-x="1083" d="M961 700 L177 700 L52 0 L217 0 L314 550 L1098 550 L1152 850 L987 850 L961 700 Z " />
<glyph glyph-name="uni0491" unicode="&#x491;" horiz-adv-x="944" d="M803 560 L141 560 L42 0 L188 0 L264 433 L926 433 L970 680 L824 680 L803 560 Z " />
<glyph glyph-name="uni1E00" unicode="&#x1e00;" horiz-adv-x="1236" d="M980 0 L1174 0 L770 700 L597 700 L-56 0 L152 0 L258 116 L914 116 L980 0 Z M664 558 L838 251 L382 251 L664 558 Z M489 -163 C489 -139 511 -121 534 -121 C554 -121 569 -137 569 -157 C569 -181 548 -200 526 -200 C505 -200 489 -183 489 -163 L489 -163 Z M398 -168 C397 -230 443 -277 518 -277 C599 -277 662 -220 662 -150 C662 -90 614 -43 542 -43 C459 -43 399 -99 398 -168 L398 -168 Z " />
<glyph glyph-name="uni1E01" unicode="&#x1e01;" horiz-adv-x="1056" d="M818 0 L993 0 L646 560 L491 560 L-55 0 L131 0 L224 97 L759 97 L818 0 Z M552 440 L692 208 L330 208 L552 440 Z M398 -163 C398 -139 420 -121 443 -121 C463 -121 478 -137 478 -157 C478 -181 457 -200 435 -200 C414 -200 398 -183 398 -163 L398 -163 Z M307 -168 C306 -230 352 -277 427 -277 C508 -277 571 -220 571 -150 C571 -90 523 -43 451 -43 C368 -43 308 -99 307 -168 L307 -168 Z " />
<glyph glyph-name="uni1E02" unicode="&#x1e02;" horiz-adv-x="1208" d="M52 0 L851 0 C1039 0 1113 106 1113 219 C1113 287 1082 343 1003 363 C1087 402 1126 471 1126 554 C1126 636 1072 700 935 700 L177 700 L52 0 Z M856 282 C923 282 941 256 941 228 C941 192 914 150 834 150 L244 150 L266 282 L856 282 Z M947 496 C947 461 921 418 840 418 L291 418 L314 550 L862 550 C930 550 947 527 947 496 L947 496 Z M586 785 L732 785 L758 933 L612 933 L586 785 Z " />
<glyph glyph-name="uni1E03" unicode="&#x1e03;" horiz-adv-x="1038" d="M42 0 L726 0 C890 0 943 86 943 174 C943 229 916 274 848 291 C919 323 949 379 949 442 C949 510 907 560 792 560 L141 560 L42 0 Z M211 127 L227 224 L725 224 C777 224 790 210 790 188 C790 161 772 127 708 127 L211 127 Z M726 433 C778 433 791 419 791 397 C791 370 773 336 709 336 L248 336 L264 433 L726 433 Z M477 645 L623 645 L649 793 L503 793 L477 645 Z " />
<glyph glyph-name="uni1E04" unicode="&#x1e04;" horiz-adv-x="1208" d="M52 0 L851 0 C1039 0 1113 106 1113 219 C1113 287 1082 343 1003 363 C1087 402 1126 471 1126 554 C1126 636 1072 700 935 700 L177 700 L52 0 Z M856 282 C923 282 941 256 941 228 C941 192 914 150 834 150 L244 150 L266 282 L856 282 Z M947 496 C947 461 921 418 840 418 L291 418 L314 550 L862 550 C930 550 947 527 947 496 L947 496 Z M445 -236 L591 -236 L617 -88 L471 -88 L445 -236 Z " />
<glyph glyph-name="uni1E05" unicode="&#x1e05;" horiz-adv-x="1038" d="M42 0 L726 0 C890 0 943 86 943 174 C943 229 916 274 848 291 C919 323 949 379 949 442 C949 510 907 560 792 560 L141 560 L42 0 Z M211 127 L227 224 L725 224 C777 224 790 210 790 188 C790 161 772 127 708 127 L211 127 Z M726 433 C778 433 791 419 791 397 C791 370 773 336 709 336 L248 336 L264 433 L726 433 Z M359 -236 L505 -236 L531 -88 L385 -88 L359 -236 Z " />
<glyph glyph-name="uni1E06" unicode="&#x1e06;" horiz-adv-x="1208" d="M52 0 L851 0 C1039 0 1113 106 1113 219 C1113 287 1082 343 1003 363 C1087 402 1126 471 1126 554 C1126 636 1072 700 935 700 L177 700 L52 0 Z M856 282 C923 282 941 256 941 228 C941 192 914 150 834 150 L244 150 L266 282 L856 282 Z M947 496 C947 461 921 418 840 418 L291 418 L314 550 L862 550 C930 550 947 527 947 496 L947 496 Z M334 -214 L709 -214 L728 -108 L353 -108 L334 -214 Z " />
<glyph glyph-name="uni1E07" unicode="&#x1e07;" horiz-adv-x="1038" d="M42 0 L726 0 C890 0 943 86 943 174 C943 229 916 274 848 291 C919 323 949 379 949 442 C949 510 907 560 792 560 L141 560 L42 0 Z M211 127 L227 224 L725 224 C777 224 790 210 790 188 C790 161 772 127 708 127 L211 127 Z M726 433 C778 433 791 419 791 397 C791 370 773 336 709 336 L248 336 L264 433 L726 433 Z M248 -214 L623 -214 L642 -108 L267 -108 L248 -214 Z " />
<glyph glyph-name="uni1E08" unicode="&#x1e08;" horiz-adv-x="1136" d="M462 -135 L501 -135 C544 -135 567 -143 567 -167 C567 -207 517 -215 469 -215 C434 -215 402 -204 387 -192 L373 -263 C398 -278 445 -293 495 -292 C583 -291 679 -265 679 -159 C679 -91 610 -65 546 -71 L579 0 L1005 0 L1031 150 L457 150 C287 150 238 223 238 317 C238 422 289 550 530 550 L1103 550 L1130 700 L545 700 C199 700 61 507 61 296 C61 130 162 0 430 0 L521 0 L462 -135 Z M592 775 L705 775 L905 946 L716 946 L592 775 Z " />
<glyph glyph-name="uni1E09" unicode="&#x1e09;" horiz-adv-x="972" d="M371 -135 L410 -135 C453 -135 476 -143 476 -167 C476 -207 426 -215 378 -215 C343 -215 311 -204 296 -192 L282 -263 C307 -278 354 -293 404 -292 C492 -291 588 -265 588 -159 C588 -91 519 -65 455 -71 L488 0 L850 0 L874 127 L368 127 C241 127 202 173 202 249 C202 343 278 433 445 433 L927 433 L951 560 L453 560 C152 560 45 400 45 232 C45 102 127 0 352 0 L430 0 L371 -135 Z M477 635 L590 635 L790 806 L601 806 L477 635 Z " />
<glyph glyph-name="uni1E0A" unicode="&#x1e0a;" horiz-adv-x="1204" d="M52 0 L663 0 C1007 0 1146 193 1146 404 C1146 570 1045 700 777 700 L177 700 L52 0 Z M750 550 C920 550 969 477 969 383 C969 278 918 150 677 150 L241 150 L312 550 L750 550 Z M594 785 L740 785 L766 933 L620 933 L594 785 Z " />
<glyph glyph-name="uni1E0B" unicode="&#x1e0b;" horiz-adv-x="1035" d="M42 0 L564 0 C865 0 972 160 972 328 C972 457 888 560 665 560 L143 560 L42 0 Z M649 433 C776 433 815 387 815 311 C815 217 740 127 573 127 L212 127 L265 433 L649 433 Z M491 645 L637 645 L663 793 L517 793 L491 645 Z " />
<glyph glyph-name="uni1E0C" unicode="&#x1e0c;" horiz-adv-x="1204" d="M52 0 L663 0 C1007 0 1146 193 1146 404 C1146 570 1045 700 777 700 L177 700 L52 0 Z M750 550 C920 550 969 477 969 383 C969 278 918 150 677 150 L241 150 L312 550 L750 550 Z M414 -236 L560 -236 L586 -88 L440 -88 L414 -236 Z " />
<glyph glyph-name="uni1E0D" unicode="&#x1e0d;" horiz-adv-x="1035" d="M42 0 L564 0 C865 0 972 160 972 328 C972 457 888 560 665 560 L143 560 L42 0 Z M649 433 C776 433 815 387 815 311 C815 217 740 127 573 127 L212 127 L265 433 L649 433 Z M335 -236 L481 -236 L507 -88 L361 -88 L335 -236 Z " />
<glyph glyph-name="uni1E0E" unicode="&#x1e0e;" horiz-adv-x="1204" d="M52 0 L663 0 C1007 0 1146 193 1146 404 C1146 570 1045 700 777 700 L177 700 L52 0 Z M750 550 C920 550 969 477 969 383 C969 278 918 150 677 150 L241 150 L312 550 L750 550 Z M303 -214 L678 -214 L697 -108 L322 -108 L303 -214 Z " />
<glyph glyph-name="uni1E0F" unicode="&#x1e0f;" horiz-adv-x="1035" d="M42 0 L564 0 C865 0 972 160 972 328 C972 457 888 560 665 560 L143 560 L42 0 Z M649 433 C776 433 815 387 815 311 C815 217 740 127 573 127 L212 127 L265 433 L649 433 Z M224 -214 L599 -214 L618 -108 L243 -108 L224 -214 Z " />
<glyph glyph-name="uni1E10" unicode="&#x1e10;" horiz-adv-x="1204" d="M52 0 L663 0 C1007 0 1146 193 1146 404 C1146 570 1045 700 777 700 L177 700 L52 0 Z M750 550 C920 550 969 477 969 383 C969 278 918 150 677 150 L241 150 L312 550 L750 550 Z M423 -236 L473 -236 L381 -368 L450 -368 L568 -223 L592 -88 L450 -88 L423 -236 Z " />
<glyph glyph-name="uni1E11" unicode="&#x1e11;" horiz-adv-x="1035" d="M42 0 L564 0 C865 0 972 160 972 328 C972 457 888 560 665 560 L143 560 L42 0 Z M649 433 C776 433 815 387 815 311 C815 217 740 127 573 127 L212 127 L265 433 L649 433 Z M344 -236 L394 -236 L302 -368 L371 -368 L489 -223 L513 -88 L371 -88 L344 -236 Z " />
<glyph glyph-name="uni1E12" unicode="&#x1e12;" horiz-adv-x="1204" d="M52 0 L663 0 C1007 0 1146 193 1146 404 C1146 570 1045 700 777 700 L177 700 L52 0 Z M750 550 C920 550 969 477 969 383 C969 278 918 150 677 150 L241 150 L312 550 L750 550 Z M282 -246 L390 -246 L503 -153 L580 -246 L684 -246 L607 -75 L421 -75 L282 -246 Z " />
<glyph glyph-name="uni1E13" unicode="&#x1e13;" horiz-adv-x="1035" d="M42 0 L564 0 C865 0 972 160 972 328 C972 457 888 560 665 560 L143 560 L42 0 Z M649 433 C776 433 815 387 815 311 C815 217 740 127 573 127 L212 127 L265 433 L649 433 Z M203 -246 L311 -246 L424 -153 L501 -246 L605 -246 L528 -75 L342 -75 L203 -246 Z " />
<glyph glyph-name="uni1E14" unicode="&#x1e14;" horiz-adv-x="1150" d="M52 0 L1020 0 L1047 150 L244 150 L266 282 L971 282 L996 418 L291 418 L314 550 L1117 550 L1145 700 L177 700 L52 0 Z M727 1144 L552 1144 L688 973 L790 973 L727 1144 Z M480 807 L855 807 L874 913 L499 913 L480 807 Z " />
<glyph glyph-name="uni1E15" unicode="&#x1e15;" horiz-adv-x="990" d="M42 0 L866 0 L889 127 L211 127 L227 224 L820 224 L841 336 L248 336 L264 433 L942 433 L965 560 L141 560 L42 0 Z M624 1004 L449 1004 L585 833 L687 833 L624 1004 Z M377 667 L752 667 L771 773 L396 773 L377 667 Z " />
<glyph glyph-name="uni1E16" unicode="&#x1e16;" horiz-adv-x="1150" d="M52 0 L1020 0 L1047 150 L244 150 L266 282 L971 282 L996 418 L291 418 L314 550 L1117 550 L1145 700 L177 700 L52 0 Z M596 973 L709 973 L909 1144 L720 1144 L596 973 Z M480 807 L855 807 L874 913 L499 913 L480 807 Z " />
<glyph glyph-name="uni1E17" unicode="&#x1e17;" horiz-adv-x="990" d="M42 0 L866 0 L889 127 L211 127 L227 224 L820 224 L841 336 L248 336 L264 433 L942 433 L965 560 L141 560 L42 0 Z M493 833 L606 833 L806 1004 L617 1004 L493 833 Z M377 667 L752 667 L771 773 L396 773 L377 667 Z " />
<glyph glyph-name="uni1E18" unicode="&#x1e18;" horiz-adv-x="1150" d="M52 0 L1020 0 L1047 150 L244 150 L266 282 L971 282 L996 418 L291 418 L314 550 L1117 550 L1145 700 L177 700 L52 0 Z M279 -246 L387 -246 L500 -153 L577 -246 L681 -246 L604 -75 L418 -75 L279 -246 Z " />
<glyph glyph-name="uni1E19" unicode="&#x1e19;" horiz-adv-x="990" d="M42 0 L866 0 L889 127 L211 127 L227 224 L820 224 L841 336 L248 336 L264 433 L942 433 L965 560 L141 560 L42 0 Z M200 -246 L308 -246 L421 -153 L498 -246 L602 -246 L525 -75 L339 -75 L200 -246 Z " />
<glyph glyph-name="uni1E1A" unicode="&#x1e1a;" horiz-adv-x="1150" d="M52 0 L1020 0 L1047 150 L244 150 L266 282 L971 282 L996 418 L291 418 L314 550 L1117 550 L1145 700 L177 700 L52 0 Z M612 -77 C604 -114 591 -127 571 -127 C537 -127 500 -83 440 -83 C374 -83 324 -124 299 -245 L380 -245 C386 -209 399 -195 420 -195 C453 -195 490 -240 550 -240 C617 -240 667 -198 693 -77 L612 -77 Z " />
<glyph glyph-name="uni1E1B" unicode="&#x1e1b;" horiz-adv-x="990" d="M42 0 L866 0 L889 127 L211 127 L227 224 L820 224 L841 336 L248 336 L264 433 L942 433 L965 560 L141 560 L42 0 Z M533 -77 C525 -114 512 -127 492 -127 C458 -127 421 -83 361 -83 C295 -83 245 -124 220 -245 L301 -245 C307 -209 320 -195 341 -195 C374 -195 411 -240 471 -240 C538 -240 588 -198 614 -77 L533 -77 Z " />
<glyph glyph-name="uni1E1C" unicode="&#x1e1c;" horiz-adv-x="1150" d="M52 0 L491 0 L432 -135 L471 -135 C514 -135 537 -143 537 -167 C537 -207 487 -215 439 -215 C404 -215 372 -204 357 -192 L343 -263 C368 -278 415 -293 465 -292 C553 -291 649 -265 649 -159 C649 -91 580 -65 516 -71 L549 0 L1020 0 L1047 150 L244 150 L266 282 L971 282 L996 418 L291 418 L314 550 L1117 550 L1145 700 L177 700 L52 0 Z M676 877 C613 877 592 906 596 945 L509 945 C498 867 516 775 660 775 C803 775 855 864 873 945 L783 945 C772 906 737 877 676 877 L676 877 Z " />
<glyph glyph-name="uni1E1D" unicode="&#x1e1d;" horiz-adv-x="990" d="M42 0 L412 0 L353 -135 L392 -135 C435 -135 458 -143 458 -167 C458 -207 408 -215 360 -215 C325 -215 293 -204 278 -192 L264 -263 C289 -278 336 -293 386 -292 C474 -291 570 -265 570 -159 C570 -91 501 -65 437 -71 L470 0 L866 0 L889 127 L211 127 L227 224 L820 224 L841 336 L248 336 L264 433 L942 433 L965 560 L141 560 L42 0 Z M574 737 C511 737 490 766 494 805 L407 805 C396 727 414 635 558 635 C701 635 753 724 771 805 L681 805 C670 766 635 737 574 737 L574 737 Z " />
<glyph glyph-name="uni1E1E" unicode="&#x1e1e;" horiz-adv-x="1112" d="M52 0 L217 0 L263 264 L968 264 L995 414 L290 414 L314 550 L1117 550 L1145 700 L177 700 L52 0 Z M581 785 L727 785 L753 933 L607 933 L581 785 Z " />
<glyph glyph-name="uni1E1F" unicode="&#x1e1f;" horiz-adv-x="973" d="M42 0 L188 0 L224 207 L817 207 L841 334 L248 334 L264 433 L942 433 L965 560 L141 560 L42 0 Z M484 645 L630 645 L656 793 L510 793 L484 645 Z " />
<glyph glyph-name="uni1E20" unicode="&#x1e20;" horiz-adv-x="1205" d="M622 282 L948 282 L926 150 L457 150 C287 150 238 223 238 317 C238 422 289 550 530 550 L1103 550 L1130 700 L545 700 C199 700 61 507 61 296 C61 130 162 0 430 0 L1058 0 L1132 418 L647 418 L622 282 Z M520 807 L895 807 L914 913 L539 913 L520 807 Z " />
<glyph glyph-name="uni1E21" unicode="&#x1e21;" horiz-adv-x="1034" d="M352 0 L894 0 L953 336 L539 336 L518 224 L789 224 L774 127 L368 127 C241 127 202 173 202 249 C202 343 278 433 445 433 L926 433 L949 560 L453 560 C152 560 45 400 45 232 C45 102 127 0 352 0 L352 0 Z M399 667 L774 667 L793 773 L418 773 L399 667 Z " />
<glyph glyph-name="uni1E22" unicode="&#x1e22;" horiz-adv-x="1252" d="M916 0 L1081 0 L1206 700 L1041 700 L992 425 L292 425 L342 700 L177 700 L52 0 L217 0 L264 275 L964 275 L916 0 Z M632 785 L778 785 L804 933 L658 933 L632 785 Z " />
<glyph glyph-name="uni1E23" unicode="&#x1e23;" horiz-adv-x="1079" d="M772 0 L918 0 L1017 560 L871 560 L833 344 L251 344 L287 560 L141 560 L42 0 L188 0 L226 216 L809 216 L772 0 Z M522 645 L668 645 L694 793 L548 793 L522 645 Z " />
<glyph glyph-name="uni1E24" unicode="&#x1e24;" horiz-adv-x="1252" d="M916 0 L1081 0 L1206 700 L1041 700 L992 425 L292 425 L342 700 L177 700 L52 0 L217 0 L264 275 L964 275 L916 0 Z M452 -236 L598 -236 L624 -88 L478 -88 L452 -236 Z " />
<glyph glyph-name="uni1E25" unicode="&#x1e25;" horiz-adv-x="1079" d="M772 0 L918 0 L1017 560 L871 560 L833 344 L251 344 L287 560 L141 560 L42 0 L188 0 L226 216 L809 216 L772 0 Z M366 -236 L512 -236 L538 -88 L392 -88 L366 -236 Z " />
<glyph glyph-name="uni1E26" unicode="&#x1e26;" horiz-adv-x="1252" d="M916 0 L1081 0 L1206 700 L1041 700 L992 425 L292 425 L342 700 L177 700 L52 0 L217 0 L264 275 L964 275 L916 0 Z M771 785 L919 785 L945 933 L797 933 L771 785 Z M487 785 L635 785 L660 933 L513 933 L487 785 Z " />
<glyph glyph-name="uni1E27" unicode="&#x1e27;" horiz-adv-x="1079" d="M772 0 L918 0 L1017 560 L871 560 L833 344 L251 344 L287 560 L141 560 L42 0 L188 0 L226 216 L809 216 L772 0 Z M661 645 L809 645 L835 793 L687 793 L661 645 Z M377 645 L525 645 L550 793 L403 793 L377 645 Z " />
<glyph glyph-name="uni1E28" unicode="&#x1e28;" horiz-adv-x="1252" d="M38 -135 L77 -135 C120 -135 143 -143 143 -167 C143 -207 93 -215 45 -215 C10 -215 -22 -204 -37 -192 L-51 -263 C-26 -278 21 -293 71 -292 C159 -291 255 -265 255 -159 C255 -91 186 -65 122 -71 L155 0 L217 0 L264 275 L964 275 L916 0 L1081 0 L1206 700 L1041 700 L992 425 L292 425 L342 700 L177 700 L52 0 L97 0 L38 -135 Z " />
<glyph glyph-name="uni1E29" unicode="&#x1e29;" horiz-adv-x="1079" d="M19 -135 L58 -135 C101 -135 124 -143 124 -167 C124 -207 74 -215 26 -215 C-9 -215 -41 -204 -56 -192 L-70 -263 C-45 -278 2 -293 52 -292 C140 -291 236 -265 236 -159 C236 -91 167 -65 103 -71 L136 0 L188 0 L226 216 L809 216 L772 0 L918 0 L1017 560 L871 560 L833 344 L251 344 L287 560 L141 560 L42 0 L78 0 L19 -135 Z " />
<glyph glyph-name="uni1E2A" unicode="&#x1e2a;" horiz-adv-x="1252" d="M916 0 L1081 0 L1206 700 L1041 700 L992 425 L292 425 L342 700 L177 700 L52 0 L217 0 L264 275 L964 275 L916 0 Z M537 -144 C474 -144 453 -115 457 -76 L370 -76 C359 -154 377 -246 521 -246 C664 -246 716 -157 734 -76 L644 -76 C633 -115 598 -144 537 -144 L537 -144 Z " />
<glyph glyph-name="uni1E2B" unicode="&#x1e2b;" horiz-adv-x="1079" d="M772 0 L918 0 L1017 560 L871 560 L833 344 L251 344 L287 560 L141 560 L42 0 L188 0 L226 216 L809 216 L772 0 Z M451 -144 C388 -144 367 -115 371 -76 L284 -76 C273 -154 291 -246 435 -246 C578 -246 630 -157 648 -76 L558 -76 C547 -115 512 -144 451 -144 L451 -144 Z " />
<glyph glyph-name="uni1E2C" unicode="&#x1e2c;" horiz-adv-x="388" d="M52 0 L217 0 L342 700 L177 700 L52 0 Z M219 -77 C211 -114 198 -127 178 -127 C144 -127 107 -83 47 -83 C-19 -83 -69 -124 -94 -245 L-13 -245 C-7 -209 6 -195 27 -195 C60 -195 97 -240 157 -240 C224 -240 274 -198 300 -77 L219 -77 Z " />
<glyph glyph-name="uni1E2D" unicode="&#x1e2d;" horiz-adv-x="349" d="M42 0 L188 0 L287 560 L141 560 L42 0 Z M200 -77 C192 -114 179 -127 159 -127 C125 -127 88 -83 28 -83 C-38 -83 -88 -124 -113 -245 L-32 -245 C-26 -209 -13 -195 8 -195 C41 -195 78 -240 138 -240 C205 -240 255 -198 281 -77 L200 -77 Z " />
<glyph glyph-name="uni1E2E" unicode="&#x1e2e;" horiz-adv-x="388" d="M52 0 L217 0 L342 700 L177 700 L52 0 Z M204 982 L317 982 L517 1153 L328 1153 L204 982 Z M338 785 L486 785 L512 933 L364 933 L338 785 Z M54 785 L202 785 L227 933 L80 933 L54 785 Z " />
<glyph glyph-name="uni1E2F" unicode="&#x1e2f;" horiz-adv-x="349" d="M163 842 L276 842 L476 1013 L287 1013 L163 842 Z M294 645 L442 645 L468 793 L320 793 L294 645 Z M10 645 L158 645 L183 793 L36 793 L10 645 Z M42 0 L188 0 L287 560 L141 560 L42 0 Z " />
<glyph glyph-name="uni1E30" unicode="&#x1e30;" horiz-adv-x="1247" d="M1226 700 L939 700 L270 311 L339 700 L177 700 L52 0 L214 0 L238 133 L541 307 L936 0 L1189 0 L684 388 L1226 700 Z M561 775 L674 775 L874 946 L685 946 L561 775 Z " />
<glyph glyph-name="uni1E31" unicode="&#x1e31;" horiz-adv-x="1073" d="M1041 560 L776 560 L233 257 L287 560 L141 560 L42 0 L188 0 L207 101 L459 240 L783 0 L1011 0 L587 310 L1041 560 Z M455 635 L568 635 L768 806 L579 806 L455 635 Z " />
<glyph glyph-name="uni1E32" unicode="&#x1e32;" horiz-adv-x="1247" d="M1226 700 L939 700 L270 311 L339 700 L177 700 L52 0 L214 0 L238 133 L541 307 L936 0 L1189 0 L684 388 L1226 700 Z M441 -236 L587 -236 L613 -88 L467 -88 L441 -236 Z " />
<glyph glyph-name="uni1E33" unicode="&#x1e33;" horiz-adv-x="1073" d="M1041 560 L776 560 L233 257 L287 560 L141 560 L42 0 L188 0 L207 101 L459 240 L783 0 L1011 0 L587 310 L1041 560 Z M355 -236 L501 -236 L527 -88 L381 -88 L355 -236 Z " />
<glyph glyph-name="uni1E34" unicode="&#x1e34;" horiz-adv-x="1247" d="M1226 700 L939 700 L270 311 L339 700 L177 700 L52 0 L214 0 L238 133 L541 307 L936 0 L1189 0 L684 388 L1226 700 Z M330 -214 L705 -214 L724 -108 L349 -108 L330 -214 Z " />
<glyph glyph-name="uni1E35" unicode="&#x1e35;" horiz-adv-x="1073" d="M1041 560 L776 560 L233 257 L287 560 L141 560 L42 0 L188 0 L207 101 L459 240 L783 0 L1011 0 L587 310 L1041 560 Z M244 -214 L619 -214 L638 -108 L263 -108 L244 -214 Z " />
<glyph glyph-name="uni1E36" unicode="&#x1e36;" horiz-adv-x="1083" d="M342 700 L177 700 L52 0 L1001 0 L1027 150 L244 150 L342 700 Z M411 -236 L557 -236 L583 -88 L437 -88 L411 -236 Z " />
<glyph glyph-name="uni1E37" unicode="&#x1e37;" horiz-adv-x="944" d="M287 560 L141 560 L42 0 L850 0 L873 127 L211 127 L287 560 Z M338 -236 L484 -236 L510 -88 L364 -88 L338 -236 Z " />
<glyph glyph-name="uni1E38" unicode="&#x1e38;" horiz-adv-x="1083" d="M342 700 L177 700 L52 0 L1001 0 L1027 150 L244 150 L342 700 Z M116 807 L491 807 L510 913 L135 913 L116 807 Z M411 -236 L557 -236 L583 -88 L437 -88 L411 -236 Z " />
<glyph glyph-name="uni1E39" unicode="&#x1e39;" horiz-adv-x="944" d="M287 560 L141 560 L42 0 L850 0 L873 127 L211 127 L287 560 Z M73 667 L448 667 L467 773 L92 773 L73 667 Z M338 -236 L484 -236 L510 -88 L364 -88 L338 -236 Z " />
<glyph glyph-name="uni1E3A" unicode="&#x1e3a;" horiz-adv-x="1083" d="M342 700 L177 700 L52 0 L1001 0 L1027 150 L244 150 L342 700 Z M300 -214 L675 -214 L694 -108 L319 -108 L300 -214 Z " />
<glyph glyph-name="uni1E3B" unicode="&#x1e3b;" horiz-adv-x="944" d="M287 560 L141 560 L42 0 L850 0 L873 127 L211 127 L287 560 Z M227 -214 L602 -214 L621 -108 L246 -108 L227 -214 Z " />
<glyph glyph-name="uni1E3C" unicode="&#x1e3c;" horiz-adv-x="1083" d="M342 700 L177 700 L52 0 L1001 0 L1027 150 L244 150 L342 700 Z M279 -246 L387 -246 L500 -153 L577 -246 L681 -246 L604 -75 L418 -75 L279 -246 Z " />
</font>
</svg>
