<?xml version="1.0" encoding="UTF-8"?>
<svg xmlns="http://www.w3.org/2000/svg" xmlns:xlink="http://www.w3.org/1999/xlink" version="1.2" >
<font id="Stereo Gothic 300">
<font-face  font-family="Stereo Gothic" units-per-em="1000" ascent="700" descent="-300" font-style="normal" font-weight="300" font-stretch="normal" cap-height="700" x-height="560" underline-position="-75" underline-thickness="50" />
<missing-glyph  horiz-adv-x="1000" d="M150 0 L850 0 L850 700 L150 700 L150 0 Z M184 669 L795 669 L184 58 L184 669 Z M205 31 L816 642 L816 31 L205 31 Z " />
<glyph glyph-name="NULL" d="" />
<glyph glyph-name="CR" unicode="&#xd;" horiz-adv-x="250" d="" />
<glyph glyph-name="space" unicode="&#x20;" horiz-adv-x="500" d="" />
<glyph glyph-name="exclam" unicode="&#x21;" horiz-adv-x="321" d="M120 0 L200 0 L200 80 L120 80 L120 0 Z M131 148 L190 148 L194 700 L127 700 L131 148 Z " />
<glyph glyph-name="quotedbl" unicode="&#x22;" horiz-adv-x="488" d="M116 400 L163 400 L175 700 L104 700 L116 400 Z M325 400 L372 400 L384 700 L313 700 L325 400 Z " />
<glyph glyph-name="numbersign" unicode="&#x23;" horiz-adv-x="1298" d="M940 0 L1000 0 L1020 196 L1172 196 L1172 252 L1026 252 L1047 448 L1202 448 L1202 504 L1053 504 L1073 700 L1013 700 L993 504 L337 504 L357 700 L297 700 L277 504 L126 504 L126 448 L271 448 L250 252 L96 252 L96 196 L244 196 L224 0 L284 0 L304 196 L960 196 L940 0 Z M331 448 L987 448 L966 252 L310 252 L331 448 Z " />
<glyph glyph-name="dollar" unicode="&#x24;" horiz-adv-x="1298" d="M619 -20 L679 -20 L679 70 L973 70 C1112 70 1167 139 1167 223 C1167 309 1112 375 973 375 L679 375 L679 575 L1135 575 L1135 630 L679 630 L679 720 L619 720 L619 630 L325 630 C185 630 131 561 131 477 C131 391 185 325 325 325 L619 325 L619 125 L163 125 L163 70 L619 70 L619 -20 Z M968 325 C1068 325 1103 281 1103 225 C1103 171 1066 125 968 125 L679 125 L679 325 L968 325 Z M195 475 C195 529 230 575 329 575 L619 575 L619 375 L329 375 C231 375 195 419 195 475 L195 475 Z " />
<glyph glyph-name="percent" unicode="&#x25;" horiz-adv-x="1298" d="M1044 700 L181 0 L254 0 L1117 700 L1044 700 Z M101 474 C101 405 145 350 257 350 L412 350 C524 350 568 405 568 474 L568 576 C568 645 524 700 412 700 L257 700 C145 700 101 645 101 576 L101 474 Z M415 653 C493 653 517 618 517 574 L517 476 C517 432 493 397 415 397 L256 397 C177 397 152 432 152 476 L152 574 C152 617 178 653 256 653 L415 653 Z M730 124 C730 55 774 0 886 0 L1041 0 C1153 0 1197 55 1197 124 L1197 226 C1197 295 1153 350 1041 350 L886 350 C774 350 730 295 730 226 L730 124 Z M1044 303 C1122 303 1146 268 1146 224 L1146 126 C1146 82 1122 47 1044 47 L885 47 C806 47 781 82 781 126 L781 224 C781 267 807 303 885 303 L1044 303 Z " />
<glyph glyph-name="ampersand" unicode="&#x26;" horiz-adv-x="1316" d="M326 0 L973 0 C1131 0 1192 75 1192 172 C1192 237 1163 295 1092 322 L1242 322 L1242 378 L382 378 C256 378 214 437 214 509 C214 581 258 640 389 640 L1022 640 L1022 700 L374 700 C209 700 146 621 146 521 C146 447 180 384 262 359 C143 340 96 268 96 182 C96 80 160 0 326 0 L326 0 Z M948 60 L341 60 C210 60 166 118 166 191 C166 262 210 322 338 322 L952 322 C1080 322 1124 262 1124 191 C1124 118 1079 60 948 60 L948 60 Z " />
<glyph glyph-name="quotesingle" unicode="&#x27;" horiz-adv-x="279" d="M116 400 L163 400 L175 700 L104 700 L116 400 Z " />
<glyph glyph-name="parenleft" unicode="&#x28;" horiz-adv-x="485" d="M393 -116 C149 156 149 544 393 815 L338 815 C77 547 77 153 338 -116 L393 -116 Z " />
<glyph glyph-name="parenright" unicode="&#x29;" horiz-adv-x="485" d="M147 -116 C408 153 408 547 147 815 L92 815 C336 544 336 156 92 -116 L147 -116 Z " />
<glyph glyph-name="asterisk" unicode="&#x2a;" horiz-adv-x="592" d="M534 503 L515 565 L314 483 L329 700 L264 700 L278 483 L78 565 L58 503 L267 450 L129 285 L181 247 L296 429 L411 247 L463 285 L325 450 L534 503 Z " />
<glyph glyph-name="plus" unicode="&#x2b;" horiz-adv-x="1298" d="M291 320 L616 320 L616 30 L682 30 L682 320 L1007 320 L1007 380 L682 380 L682 670 L616 670 L616 380 L291 380 L291 320 Z " />
<glyph glyph-name="comma" unicode="&#x2c;" horiz-adv-x="282" d="M101 0 L139 0 L103 -103 L135 -103 L181 4 L181 80 L101 80 L101 0 Z " />
<glyph glyph-name="hyphen" unicode="&#x2d;" horiz-adv-x="600" d="M96 250 L504 250 L504 310 L96 310 L96 250 Z " />
<glyph glyph-name="period" unicode="&#x2e;" horiz-adv-x="282" d="M101 0 L181 0 L181 80 L101 80 L101 0 Z " />
<glyph glyph-name="slash" unicode="&#x2f;" horiz-adv-x="533" d="M-14 -75 L45 -75 L547 776 L488 776 L-14 -75 Z " />
<glyph glyph-name="zero" unicode="0" horiz-adv-x="1298" d="M106 248 C106 111 194 0 418 0 L880 0 C1104 0 1192 111 1192 248 L1192 452 C1192 589 1104 700 880 700 L418 700 C194 700 106 589 106 452 L106 248 Z M882 640 C1062 640 1126 554 1126 449 L1126 251 C1126 147 1063 60 882 60 L416 60 C235 60 172 147 172 251 L172 449 C172 553 235 640 416 640 L882 640 Z " />
<glyph glyph-name="one" unicode="1" horiz-adv-x="1298" d="M385 640 L676 640 L676 60 L235 60 L235 0 L1063 0 L1063 60 L742 60 L742 700 L385 700 L385 640 Z " />
<glyph glyph-name="two" unicode="2" horiz-adv-x="1298" d="M1172 60 L172 60 L172 190 C172 263 217 322 346 322 L961 322 C1135 322 1202 405 1202 511 C1202 616 1135 700 961 700 L146 700 L146 640 L959 640 C1090 640 1133 580 1133 509 C1133 436 1090 378 959 378 L343 378 C173 378 106 297 106 190 L106 0 L1172 0 L1172 60 Z " />
<glyph glyph-name="three" unicode="3" horiz-adv-x="1298" d="M86 0 L967 0 C1133 0 1197 80 1197 182 C1197 268 1149 340 1031 359 C1112 384 1147 447 1147 521 C1147 621 1084 700 919 700 L106 700 L106 640 L904 640 C1035 640 1079 580 1079 509 C1079 437 1036 378 911 378 L193 378 L193 322 L952 322 C1083 322 1127 263 1127 191 C1127 118 1083 60 952 60 L86 60 L86 0 Z " />
<glyph glyph-name="four" unicode="4" horiz-adv-x="1298" d="M1056 700 L77 179 L77 127 L1054 127 L1054 0 L1120 0 L1120 127 L1231 127 L1231 187 L1120 187 L1120 700 L1056 700 Z M207 187 L1054 636 L1054 187 L207 187 Z " />
<glyph glyph-name="five" unicode="5" horiz-adv-x="1298" d="M106 322 L959 322 C1090 322 1133 264 1133 191 C1133 120 1090 60 959 60 L124 60 L124 0 L961 0 C1135 0 1202 84 1202 189 C1202 295 1135 378 961 378 L171 378 L191 640 L1162 640 L1162 700 L136 700 L106 322 Z " />
<glyph glyph-name="six" unicode="6" horiz-adv-x="1298" d="M171 350 C171 510 277 640 551 640 L1152 640 L1152 700 L546 700 C229 700 105 543 105 350 L105 248 C105 111 193 0 417 0 L976 0 C1150 0 1217 84 1217 189 C1217 295 1150 378 976 378 L367 378 C262 378 200 344 171 293 L171 350 Z M348 322 L974 322 C1105 322 1148 264 1148 191 C1148 119 1103 60 974 60 L418 60 C256 60 186 128 173 216 C183 277 233 322 348 322 L348 322 Z " />
<glyph glyph-name="seven" unicode="7" horiz-adv-x="1298" d="M495 0 L1202 646 L1202 700 L86 700 L86 640 L1105 640 L399 0 L495 0 Z " />
<glyph glyph-name="eight" unicode="8" horiz-adv-x="1298" d="M984 0 C1150 0 1214 80 1214 182 C1214 268 1166 340 1048 359 C1129 384 1164 447 1164 521 C1164 621 1101 700 936 700 L362 700 C197 700 134 621 134 521 C134 447 168 384 250 359 C131 340 84 268 84 182 C84 80 148 0 314 0 L984 0 Z M1144 191 C1144 118 1100 60 969 60 L329 60 C198 60 154 118 154 191 C154 263 198 322 329 322 L969 322 C1100 322 1144 263 1144 191 L1144 191 Z M928 378 L370 378 C244 378 202 437 202 509 C202 581 246 640 377 640 L921 640 C1052 640 1096 581 1096 509 C1096 437 1053 378 928 378 L928 378 Z " />
<glyph glyph-name="nine" unicode="9" horiz-adv-x="1298" d="M747 60 L146 60 L146 0 L752 0 C1069 0 1193 157 1193 350 L1193 452 C1193 589 1105 700 881 700 L322 700 C148 700 81 616 81 511 C81 405 148 322 322 322 L931 322 C1036 322 1097 355 1127 406 L1127 350 C1127 190 1021 60 747 60 L747 60 Z M950 378 L324 378 C193 378 150 436 150 509 C150 581 194 640 324 640 L880 640 C1041 640 1112 573 1125 483 C1115 422 1064 378 950 378 L950 378 Z " />
<glyph glyph-name="colon" unicode="&#x3a;" horiz-adv-x="282" d="M101 480 L181 480 L181 560 L101 560 L101 480 Z M101 0 L181 0 L181 80 L101 80 L101 0 Z " />
<glyph glyph-name="semicolon" unicode="&#x3b;" horiz-adv-x="282" d="M101 0 L139 0 L103 -103 L135 -103 L181 4 L181 80 L101 80 L101 0 Z M101 480 L181 480 L181 560 L101 560 L101 480 Z " />
<glyph glyph-name="less" unicode="&#x3c;" horiz-adv-x="1298" d="M997 94 L379 350 L997 606 L997 670 L301 381 L301 319 L997 30 L997 94 Z " />
<glyph glyph-name="equal" unicode="&#x3d;" horiz-adv-x="1298" d="M291 166 L1007 166 L1007 226 L291 226 L291 166 Z M291 474 L1007 474 L1007 534 L291 534 L291 474 Z " />
<glyph glyph-name="greater" unicode="&#x3e;" horiz-adv-x="1298" d="M301 30 L997 319 L997 381 L301 670 L301 606 L919 350 L301 94 L301 30 Z " />
<glyph glyph-name="question" unicode="&#x3f;" horiz-adv-x="1070" d="M340 148 L401 148 L401 323 L793 323 C967 323 1034 405 1034 512 C1034 616 967 700 793 700 L34 700 L34 640 L790 640 C921 640 965 580 965 508 C965 435 921 377 790 377 L340 377 L340 148 Z M331 0 L411 0 L411 80 L331 80 L331 0 Z " />
<glyph glyph-name="at" unicode="&#x40;" horiz-adv-x="1398" d="M725 420 L647 420 C451 420 375 323 375 205 C375 87 451 -10 647 -10 L725 -10 C850 -10 922 34 955 98 L960 0 L1227 0 C1288 67 1315 154 1315 248 C1315 462 1178 635 827 635 L625 635 C236 635 83 443 83 205 C83 -32 236 -224 625 -224 L770 -224 L770 -174 L626 -174 C272 -174 142 -4 142 205 C142 415 273 585 627 585 L825 585 C1141 585 1256 434 1256 248 C1256 173 1239 104 1196 50 L1001 50 L1001 410 L960 410 L956 311 C922 376 850 420 725 420 L725 420 Z M648 40 C487 40 432 114 432 205 C432 296 487 370 648 370 L727 370 C893 370 946 293 946 199 C946 111 884 40 727 40 L648 40 Z " />
<glyph glyph-name="A" unicode="A" horiz-adv-x="1266" d="M1170 0 L1252 0 L669 700 L597 700 L14 0 L96 0 L215 144 L1050 144 L1170 0 Z M633 646 L1003 200 L262 200 L633 646 Z " />
<glyph glyph-name="B" unicode="B" horiz-adv-x="1259" d="M126 0 L945 0 C1111 0 1175 80 1175 182 C1175 268 1127 340 1009 359 C1090 384 1125 447 1125 521 C1125 621 1062 700 897 700 L126 700 L126 0 Z M930 322 C1061 322 1105 263 1105 191 C1105 118 1061 60 930 60 L192 60 L192 322 L930 322 Z M1057 509 C1057 437 1014 378 889 378 L192 378 L192 640 L882 640 C1010 640 1057 581 1057 509 L1057 509 Z " />
<glyph glyph-name="C" unicode="C" horiz-adv-x="1184" d="M149 350 C149 510 247 640 521 640 L1100 640 L1100 700 L520 700 C203 700 79 543 79 350 C79 157 203 0 520 0 L1100 0 L1100 60 L521 60 C247 60 149 190 149 350 L149 350 Z " />
<glyph glyph-name="D" unicode="D" horiz-adv-x="1255" d="M126 0 L735 0 C1052 0 1176 157 1176 350 C1176 543 1052 700 735 700 L126 700 L126 0 Z M734 640 C1008 640 1106 510 1106 350 C1106 190 1008 60 734 60 L192 60 L192 640 L734 640 Z " />
<glyph glyph-name="E" unicode="E" horiz-adv-x="1199" d="M126 0 L1115 0 L1115 60 L192 60 L192 322 L1013 322 L1013 378 L192 378 L192 640 L1115 640 L1115 700 L126 700 L126 0 Z " />
<glyph glyph-name="F" unicode="F" horiz-adv-x="1159" d="M126 0 L192 0 L192 317 L1013 317 L1013 377 L192 377 L192 640 L1115 640 L1115 700 L126 700 L126 0 Z " />
<glyph glyph-name="G" unicode="G" horiz-adv-x="1256" d="M668 322 L1090 322 L1090 60 L521 60 C247 60 149 190 149 350 C149 510 247 640 521 640 L1100 640 L1100 700 L520 700 C203 700 79 543 79 350 C79 157 203 0 520 0 L1155 0 L1155 378 L668 378 L668 322 Z " />
<glyph glyph-name="H" unicode="H" horiz-adv-x="1305" d="M1113 0 L1179 0 L1179 700 L1113 700 L1113 380 L192 380 L192 700 L126 700 L126 0 L192 0 L192 320 L1113 320 L1113 0 Z " />
<glyph glyph-name="I" unicode="I" horiz-adv-x="318" d="M126 0 L192 0 L192 700 L126 700 L126 0 Z " />
<glyph glyph-name="J" unicode="J" horiz-adv-x="1211" d="M389 -5 L684 -5 C1001 -5 1105 132 1105 325 L1105 700 L1039 700 L1039 325 C1039 166 955 55 683 55 L390 55 C180 55 112 153 112 275 L112 318 L46 318 L46 275 C46 121 135 -5 389 -5 L389 -5 Z " />
<glyph glyph-name="K" unicode="K" horiz-adv-x="1286" d="M1186 700 L1068 700 L192 212 L192 700 L126 700 L126 0 L192 0 L192 146 L543 341 L1160 0 L1277 0 L604 376 L1186 700 Z " />
<glyph glyph-name="L" unicode="L" horiz-adv-x="1129" d="M192 700 L126 700 L126 0 L1095 0 L1095 60 L192 60 L192 700 Z " />
<glyph glyph-name="M" unicode="M" horiz-adv-x="1446" d="M1257 700 L723 122 L189 700 L126 700 L126 0 L192 0 L192 609 L723 32 L1254 609 L1254 0 L1320 0 L1320 700 L1257 700 Z " />
<glyph glyph-name="N" unicode="N" horiz-adv-x="1304" d="M1115 0 L1178 0 L1178 700 L1112 700 L1112 77 L189 700 L126 700 L126 0 L192 0 L192 623 L1115 0 Z " />
<glyph glyph-name="O" unicode="O" horiz-adv-x="1348" d="M815 -10 C1141 -10 1269 151 1269 350 C1269 549 1141 710 815 710 L533 710 C207 710 79 549 79 350 C79 151 207 -10 533 -10 L815 -10 Z M534 50 C251 50 149 184 149 350 C149 516 251 650 534 650 L814 650 C1097 650 1199 516 1199 350 C1199 184 1097 50 814 50 L534 50 Z " />
<glyph glyph-name="P" unicode="P" horiz-adv-x="1196" d="M126 0 L192 0 L192 280 L894 280 C1086 280 1160 372 1160 490 C1160 605 1086 700 894 700 L126 700 L126 0 Z M892 640 C1041 640 1091 572 1091 490 C1091 405 1041 340 892 340 L192 340 L192 640 L892 640 Z " />
<glyph glyph-name="Q" unicode="Q" horiz-adv-x="1348" d="M815 -10 C875 -10 929 -4 977 6 L1221 -110 L1344 -110 L1050 27 C1204 86 1269 208 1269 350 C1269 549 1141 710 815 710 L533 710 C207 710 79 549 79 350 C79 151 207 -10 533 -10 L815 -10 Z M534 50 C251 50 149 184 149 350 C149 516 251 650 534 650 L814 650 C1097 650 1199 516 1199 350 C1199 184 1097 50 814 50 L534 50 Z " />
<glyph glyph-name="R" unicode="R" horiz-adv-x="1277" d="M126 0 L192 0 L192 281 L648 281 L1152 0 L1268 0 L755 282 L877 282 C1069 282 1143 373 1143 491 C1143 606 1069 700 877 700 L126 700 L126 0 Z M874 640 C1023 640 1074 572 1074 490 C1074 405 1023 339 874 339 L192 339 L192 640 L874 640 Z " />
<glyph glyph-name="S" unicode="S" horiz-adv-x="1207" d="M116 0 L890 0 C1064 0 1131 84 1131 189 C1131 295 1064 378 890 378 L318 378 C188 378 145 436 145 509 C145 580 188 640 318 640 L1091 640 L1091 700 L317 700 C143 700 76 616 76 511 C76 405 143 322 317 322 L889 322 C1019 322 1062 264 1062 191 C1062 120 1019 60 889 60 L116 60 L116 0 Z " />
<glyph glyph-name="T" unicode="T" horiz-adv-x="1184" d="M34 640 L559 640 L559 0 L625 0 L625 640 L1150 640 L1150 700 L34 700 L34 640 Z " />
<glyph glyph-name="U" unicode="U" horiz-adv-x="1275" d="M172 323 L172 700 L106 700 L106 323 C106 130 210 -10 527 -10 L748 -10 C1065 -10 1169 130 1169 323 L1169 700 L1103 700 L1103 323 C1103 164 1019 50 747 50 L528 50 C256 50 172 164 172 323 L172 323 Z " />
<glyph glyph-name="V" unicode="V" horiz-adv-x="1266" d="M669 0 L1252 700 L1167 700 L633 54 L99 700 L14 700 L597 0 L669 0 Z " />
<glyph glyph-name="W" unicode="W" horiz-adv-x="1618" d="M809 619 L1151 0 L1201 0 L1592 700 L1513 700 L1176 82 L834 700 L784 700 L442 82 L105 700 L26 700 L417 0 L467 0 L809 619 Z " />
<glyph glyph-name="X" unicode="X" horiz-adv-x="1228" d="M26 700 L560 351 L21 0 L129 0 L614 318 L1099 0 L1207 0 L668 351 L1202 700 L1094 700 L614 385 L134 700 L26 700 Z " />
<glyph glyph-name="Y" unicode="Y" horiz-adv-x="1245" d="M589 0 L655 0 L655 211 L1241 700 L1142 700 L622 263 L102 700 L4 700 L589 211 L589 0 Z " />
<glyph glyph-name="Z" unicode="Z" horiz-adv-x="1193" d="M76 0 L1127 0 L1127 60 L201 60 L1107 652 L1107 700 L86 700 L86 640 L981 640 L76 48 L76 0 Z " />
<glyph glyph-name="bracketleft" unicode="&#x5b;" horiz-adv-x="485" d="M135 -150 L430 -150 L430 -102 L200 -102 L200 802 L430 802 L430 850 L135 850 L135 -150 Z " />
<glyph glyph-name="backslash" unicode="&#x5c;" horiz-adv-x="533" d="M45 776 L-14 776 L488 -75 L547 -75 L45 776 Z " />
<glyph glyph-name="bracketright" unicode="&#x5d;" horiz-adv-x="485" d="M350 850 L55 850 L55 802 L285 802 L285 -102 L55 -102 L55 -150 L350 -150 L350 850 Z " />
<glyph glyph-name="asciicircum" unicode="&#x5e;" horiz-adv-x="1298" d="M991 350 L1072 350 L685 800 L613 800 L226 350 L307 350 L649 745 L991 350 Z " />
<glyph glyph-name="underscore" unicode="&#x5f;" horiz-adv-x="500" d="M0 -141 L500 -141 L500 -83 L0 -83 L0 -141 Z " />
<glyph glyph-name="grave" unicode="&#x60;" horiz-adv-x="500" d="M200 806 L120 806 L268 635 L311 635 L200 806 Z " />
<glyph glyph-name="a" unicode="a" horiz-adv-x="1084" d="M994 0 L1069 0 L575 560 L509 560 L15 0 L90 0 L195 119 L889 119 L994 0 Z M542 511 L846 167 L238 167 L542 511 Z " />
<glyph glyph-name="b" unicode="b" horiz-adv-x="1084" d="M116 0 L818 0 C960 0 1008 64 1008 146 C1008 215 972 272 872 288 C941 308 966 358 966 417 C966 497 918 560 778 560 L116 560 L116 0 Z M804 256 C913 256 944 210 944 154 C944 98 913 53 804 53 L176 53 L176 256 L804 256 Z M769 304 L176 304 L176 507 L763 507 C870 507 903 461 903 406 C903 350 873 304 769 304 L769 304 Z " />
<glyph glyph-name="c" unicode="c" horiz-adv-x="1016" d="M136 280 C136 405 209 507 439 507 L940 507 L940 560 L439 560 C169 560 72 434 72 280 C72 126 169 0 439 0 L940 0 L940 53 L439 53 C209 53 136 155 136 280 L136 280 Z " />
<glyph glyph-name="d" unicode="d" horiz-adv-x="1081" d="M116 0 L642 0 C912 0 1009 126 1009 280 C1009 434 912 560 642 560 L116 560 L116 0 Z M642 507 C872 507 945 405 945 280 C945 155 872 53 642 53 L176 53 L176 507 L642 507 Z " />
<glyph glyph-name="e" unicode="e" horiz-adv-x="1034" d="M116 0 L957 0 L957 53 L176 53 L176 256 L870 256 L870 304 L176 304 L176 507 L957 507 L957 560 L116 560 L116 0 Z " />
<glyph glyph-name="f" unicode="f" horiz-adv-x="1017" d="M116 0 L176 0 L176 251 L870 251 L870 303 L176 303 L176 507 L957 507 L957 560 L116 560 L116 0 Z " />
<glyph glyph-name="g" unicode="g" horiz-adv-x="1081" d="M572 256 L928 256 L928 53 L439 53 C209 53 136 155 136 280 C136 405 209 507 439 507 L940 507 L940 560 L439 560 C169 560 72 434 72 280 C72 126 169 0 439 0 L987 0 L987 304 L572 304 L572 256 Z " />
<glyph glyph-name="h" unicode="h" horiz-adv-x="1128" d="M952 0 L1012 0 L1012 560 L952 560 L952 307 L176 307 L176 560 L116 560 L116 0 L176 0 L176 253 L952 253 L952 0 Z " />
<glyph glyph-name="i" unicode="i" horiz-adv-x="292" d="M116 0 L176 0 L176 560 L116 560 L116 0 Z " />
<glyph glyph-name="j" unicode="j" horiz-adv-x="1043" d="M332 -4 L597 -4 C867 -4 947 106 947 260 L947 560 L887 560 L887 260 C887 136 825 49 597 49 L333 49 C157 49 106 125 106 220 L106 256 L46 256 L46 220 C46 97 116 -4 332 -4 L332 -4 Z " />
<glyph glyph-name="k" unicode="k" horiz-adv-x="1110" d="M1024 560 L912 560 L176 175 L176 560 L116 560 L116 0 L176 0 L176 115 L474 271 L987 0 L1096 0 L529 300 L1024 560 Z " />
<glyph glyph-name="l" unicode="l" horiz-adv-x="987" d="M176 560 L116 560 L116 0 L940 0 L940 53 L176 53 L176 560 Z " />
<glyph glyph-name="m" unicode="m" horiz-adv-x="1248" d="M1075 560 L624 104 L173 560 L116 560 L116 0 L176 0 L176 479 L624 25 L1072 479 L1072 0 L1132 0 L1132 560 L1075 560 Z " />
<glyph glyph-name="n" unicode="n" horiz-adv-x="1127" d="M1011 0 L1011 560 L951 560 L951 68 L173 560 L116 560 L116 0 L176 0 L176 492 L954 0 L1011 0 Z " />
<glyph glyph-name="o" unicode="o" horiz-adv-x="1156" d="M706 -8 C983 -8 1084 121 1084 280 C1084 439 983 568 706 568 L450 568 C173 568 72 439 72 280 C72 121 173 -8 450 -8 L706 -8 Z M451 45 C213 45 135 150 135 280 C135 410 213 515 451 515 L705 515 C944 515 1020 410 1020 280 C1020 150 944 45 705 45 L451 45 Z " />
<glyph glyph-name="p" unicode="p" horiz-adv-x="1042" d="M116 0 L176 0 L176 221 L775 221 C939 221 996 295 996 391 C996 484 939 560 775 560 L116 560 L116 0 Z M773 507 C897 507 933 455 933 391 C933 325 897 275 773 275 L176 275 L176 507 L773 507 Z " />
<glyph glyph-name="q" unicode="q" horiz-adv-x="1156" d="M706 -8 C754 -8 796 -4 834 3 L1035 -88 L1146 -88 L902 21 C1032 68 1084 166 1084 280 C1084 439 983 568 706 568 L450 568 C173 568 72 439 72 280 C72 121 173 -8 450 -8 L706 -8 Z M451 45 C213 45 135 150 135 280 C135 410 213 515 451 515 L705 515 C944 515 1020 410 1020 280 C1020 150 944 45 705 45 L451 45 Z " />
<glyph glyph-name="r" unicode="r" horiz-adv-x="1105" d="M116 0 L176 0 L176 222 L561 222 L981 0 L1087 0 L660 223 L760 223 C924 223 982 297 982 392 C982 485 924 560 760 560 L116 560 L116 0 Z M758 507 C882 507 919 455 919 390 C919 325 882 274 758 274 L176 274 L176 507 L758 507 Z " />
<glyph glyph-name="s" unicode="s" horiz-adv-x="1033" d="M102 0 L766 0 C914 0 965 68 965 152 C965 238 914 304 766 304 L270 304 C162 304 131 349 131 406 C131 461 162 507 270 507 L931 507 L931 560 L267 560 C119 560 68 492 68 408 C68 322 119 256 267 256 L763 256 C871 256 902 211 902 154 C902 99 871 53 763 53 L102 53 L102 0 Z " />
<glyph glyph-name="t" unicode="t" horiz-adv-x="1042" d="M47 507 L491 507 L491 0 L551 0 L551 507 L995 507 L995 560 L47 560 L47 507 Z " />
<glyph glyph-name="u" unicode="u" horiz-adv-x="1096" d="M156 258 L156 560 L96 560 L96 258 C96 104 176 -8 445 -8 L650 -8 C919 -8 1000 104 1000 258 L1000 560 L940 560 L940 258 C940 134 878 45 649 45 L446 45 C218 45 156 134 156 258 L156 258 Z " />
<glyph glyph-name="v" unicode="v" horiz-adv-x="1084" d="M575 0 L1069 560 L992 560 L542 49 L92 560 L15 560 L509 0 L575 0 Z " />
<glyph glyph-name="w" unicode="w" horiz-adv-x="1384" d="M692 488 L980 0 L1026 0 L1358 560 L1286 560 L1002 72 L715 560 L669 560 L383 72 L98 560 L26 560 L359 0 L404 0 L692 488 Z " />
<glyph glyph-name="x" unicode="x" horiz-adv-x="1066" d="M32 560 L485 282 L27 0 L128 0 L533 251 L938 0 L1039 0 L581 282 L1035 560 L934 560 L533 313 L133 560 L32 560 Z " />
<glyph glyph-name="y" unicode="y" horiz-adv-x="1060" d="M500 0 L561 0 L561 170 L1056 560 L967 560 L530 215 L93 560 L4 560 L500 170 L500 0 Z " />
<glyph glyph-name="z" unicode="z" horiz-adv-x="1023" d="M69 0 L964 0 L964 53 L184 53 L947 518 L947 560 L78 560 L78 507 L831 507 L69 42 L69 0 Z " />
<glyph glyph-name="braceleft" unicode="&#x7b;" horiz-adv-x="485" d="M174 455 C174 410 156 374 80 374 L54 374 L54 326 L80 326 C156 326 174 290 174 245 L174 -36 C174 -100 210 -150 315 -150 L431 -150 L431 -102 L333 -102 C257 -102 239 -66 239 -21 L239 244 C239 293 214 333 155 350 C214 366 239 407 239 456 L239 721 C239 766 257 802 333 802 L431 802 L431 850 L315 850 C210 850 174 800 174 736 L174 455 Z " />
<glyph glyph-name="bar" unicode="&#x7c;" horiz-adv-x="500" d="M221 850 L221 -150 L279 -150 L279 850 L221 850 Z " />
<glyph glyph-name="braceright" unicode="&#x7d;" horiz-adv-x="485" d="M311 736 C311 800 275 850 170 850 L54 850 L54 802 L152 802 C228 802 246 766 246 721 L246 456 C246 407 271 366 330 350 C271 333 246 293 246 244 L246 -21 C246 -66 228 -102 152 -102 L54 -102 L54 -150 L170 -150 C275 -150 311 -100 311 -36 L311 245 C311 290 329 326 405 326 L431 326 L431 374 L405 374 C329 374 311 410 311 455 L311 736 Z " />
<glyph glyph-name="asciitilde" unicode="&#x7e;" horiz-adv-x="1298" d="M1007 423 C732 200 581 578 291 365 L291 300 C566 523 717 145 1007 358 L1007 423 Z " />
<glyph glyph-name="uni00A0" unicode="&#xa0;" horiz-adv-x="500" d="" />
<glyph glyph-name="exclamdown" unicode="&#xa1;" horiz-adv-x="321" d="M201 700 L121 700 L121 620 L201 620 L201 700 Z M190 552 L131 552 L127 0 L194 0 L190 552 Z " />
<glyph glyph-name="cent" unicode="&#xa2;" horiz-adv-x="1298" d="M1156 181 L671 181 L742 519 L1158 519 L1158 574 L755 574 L786 720 L725 720 L694 574 L422 574 C219 574 139 473 139 350 C139 227 219 126 422 126 L599 126 L568 -20 L629 -20 L660 126 L1156 126 L1156 181 Z M203 350 C203 447 263 519 435 519 L682 519 L610 181 L435 181 C263 181 203 253 203 350 L203 350 Z " />
<glyph glyph-name="sterling" unicode="&#xa3;" horiz-adv-x="1298" d="M752 378 L333 378 L333 449 C333 553 376 640 557 640 L1052 640 L1052 700 L559 700 C335 700 267 589 267 452 L267 378 L126 378 L126 322 L267 322 L267 136 C267 90 247 58 194 58 L126 58 L126 0 L1172 0 L1172 60 L285 60 C315 72 333 104 333 141 L333 322 L752 322 L752 378 Z " />
<glyph glyph-name="currency" unicode="&#xa4;" horiz-adv-x="1298" d="M770 87 C872 87 947 108 999 146 L1154 -10 L1197 32 L1044 184 C1084 228 1102 286 1102 350 C1102 413 1084 471 1044 515 L1197 668 L1154 710 L999 554 C947 591 872 613 770 613 L526 613 C424 613 350 591 298 554 L144 710 L101 668 L253 516 C213 471 194 414 194 350 C194 286 213 228 253 184 L101 32 L144 -10 L298 145 C350 108 424 87 526 87 L770 87 Z M262 350 C262 463 330 555 527 555 L769 555 C966 555 1034 463 1034 350 C1034 236 966 145 769 145 L527 145 C330 145 262 236 262 350 L262 350 Z " />
<glyph glyph-name="yen" unicode="&#xa5;" horiz-adv-x="1298" d="M1110 700 L649 315 L188 700 L92 700 L465 395 L110 395 L110 343 L521 343 L616 264 L616 210 L110 210 L110 158 L616 158 L616 0 L682 0 L682 158 L1188 158 L1188 210 L682 210 L682 264 L777 343 L1188 343 L1188 395 L833 395 L1206 700 L1110 700 Z " />
<glyph glyph-name="brokenbar" unicode="&#xa6;" horiz-adv-x="500" d="M279 467 L279 850 L221 850 L221 467 L279 467 Z M221 233 L221 -150 L279 -150 L279 233 L221 233 Z " />
<glyph glyph-name="section" unicode="&#xa7;" horiz-adv-x="1226" d="M265 151 L839 151 C934 151 966 107 966 53 C966 -1 934 -45 834 -45 L228 -45 L228 -100 L856 -100 C981 -100 1030 -38 1030 38 C1030 87 1009 130 959 153 L978 153 C1101 153 1150 221 1150 300 C1150 383 1097 449 961 449 L392 449 C293 449 260 490 260 547 C260 600 292 645 392 645 L998 645 L998 700 L370 700 C245 700 196 638 196 562 C196 512 217 470 266 447 L248 447 C125 447 76 379 76 300 C76 217 129 151 265 151 L265 151 Z M269 202 C170 202 137 246 137 300 C137 355 170 398 269 398 L957 398 C1056 398 1089 354 1089 300 C1089 245 1056 202 957 202 L269 202 Z " />
<glyph glyph-name="dieresis" unicode="&#xa8;" horiz-adv-x="500" d="M341 683 L415 683 L415 757 L341 757 L341 683 Z M85 683 L159 683 L159 757 L85 757 L85 683 Z " />
<glyph glyph-name="copyright" unicode="&#xa9;" horiz-adv-x="1208" d="M685 -10 C1011 -10 1139 151 1139 350 C1139 549 1011 710 685 710 L523 710 C197 710 69 549 69 350 C69 151 197 -10 523 -10 L685 -10 Z M524 36 C231 36 122 176 122 350 C122 524 231 664 524 664 L684 664 C977 664 1086 524 1086 350 C1086 176 977 36 684 36 L524 36 Z M823 215 L532 215 C402 215 358 275 358 350 C358 424 402 485 532 485 L823 485 L823 525 L531 525 C372 525 310 446 310 350 C310 253 372 175 531 175 L823 175 L823 215 Z " />
<glyph glyph-name="ordfeminine" unicode="&#xaa;" horiz-adv-x="764" d="M632 350 L695 350 L409 700 L355 700 L69 350 L132 350 L186 415 L578 415 L632 350 Z M382 655 L544 459 L220 459 L382 655 Z " />
<glyph glyph-name="guillemotleft" unicode="&#xab;" horiz-adv-x="765" d="M310 560 L103 281 L312 0 L382 0 L174 281 L380 560 L310 560 Z M590 560 L383 281 L592 0 L662 0 L454 281 L660 560 L590 560 Z " />
<glyph glyph-name="logicalnot" unicode="&#xac;" horiz-adv-x="1298" d="M291 320 L941 320 L941 40 L1007 40 L1007 380 L291 380 L291 320 Z " />
<glyph glyph-name="uni00AD" unicode="&#xad;" horiz-adv-x="600" d="M96 251 L504 251 L504 309 L96 309 L96 251 Z " />
<glyph glyph-name="registered" unicode="&#xae;" horiz-adv-x="1208" d="M685 -10 C1011 -10 1139 151 1139 350 C1139 549 1011 710 685 710 L523 710 C197 710 69 549 69 350 C69 151 197 -10 523 -10 L685 -10 Z M524 36 C231 36 122 176 122 350 C122 524 231 664 524 664 L684 664 C977 664 1085 524 1085 350 C1085 176 977 36 684 36 L524 36 Z M347 175 L391 175 L391 311 L623 311 L851 175 L920 175 L691 311 L722 311 C820 311 858 357 858 418 C858 477 820 525 722 525 L347 525 L347 175 Z M718 485 C788 485 810 455 810 417 C810 378 788 349 718 349 L391 349 L391 485 L718 485 Z " />
<glyph glyph-name="macron" unicode="&#xaf;" horiz-adv-x="500" d="M74 698 L426 698 L426 742 L74 742 L74 698 Z " />
<glyph glyph-name="degree" unicode="&#xb0;" horiz-adv-x="568" d="M83 510 C83 395 174 310 284 310 C394 310 485 395 485 510 C485 625 394 710 284 710 C174 710 83 625 83 510 L83 510 Z M137 510 C137 597 201 661 284 661 C367 661 431 597 431 510 C431 423 367 359 284 359 C201 359 137 423 137 510 L137 510 Z " />
<glyph glyph-name="plusminus" unicode="&#xb1;" horiz-adv-x="1298" d="M291 400 L616 400 L616 160 L682 160 L682 400 L1007 400 L1007 460 L682 460 L682 700 L616 700 L616 460 L291 460 L291 400 Z M291 0 L1007 0 L1007 60 L291 60 L291 0 Z " />
<glyph glyph-name="twosuperior" unicode="&#xb2;" horiz-adv-x="748" d="M639 397 L154 397 L154 451 C154 479 172 505 230 505 L529 505 C619 505 654 547 654 602 C654 657 619 700 529 700 L123 700 L123 653 L526 653 C583 653 602 628 602 599 C602 570 583 545 526 545 L228 545 C138 545 103 503 103 448 L103 350 L639 350 L639 397 Z " />
<glyph glyph-name="threesuperior" unicode="&#xb3;" horiz-adv-x="748" d="M88 350 L530 350 C614 350 646 391 646 441 C646 484 623 520 567 530 C605 544 621 574 621 610 C621 660 589 700 507 700 L98 700 L98 653 L494 653 C551 653 568 628 568 599 C568 570 552 545 497 545 L141 545 L141 505 L517 505 C575 505 592 480 592 451 C592 421 575 397 517 397 L88 397 L88 350 Z " />
<glyph glyph-name="acute" unicode="&#xb4;" horiz-adv-x="500" d="M188 635 L231 635 L379 806 L299 806 L188 635 Z " />
<glyph glyph-name="uni00B5" unicode="&#xb5;" horiz-adv-x="1298" d="M1114 0 L1162 0 L1162 560 L1096 560 L1096 357 C1096 193 987 60 706 60 L379 60 C249 60 202 115 202 191 L202 560 L136 560 L136 -200 L202 -200 L202 88 C233 18 301 0 390 0 L712 0 C931 0 1053 81 1102 196 L1114 0 Z " />
<glyph glyph-name="paragraph" unicode="&#xb6;" horiz-adv-x="1199" d="M615 640 L934 640 L934 -100 L1000 -100 L1000 640 L1100 640 L1100 700 L332 700 C140 700 66 605 66 490 C66 372 140 280 332 280 L549 280 L549 -100 L615 -100 L615 640 Z " />
<glyph glyph-name="periodcentered" unicode="&#xb7;" horiz-adv-x="282" d="M101 310 L181 310 L181 390 L101 390 L101 310 Z " />
<glyph glyph-name="cedilla" unicode="&#xb8;" horiz-adv-x="500" d="M206 -100 L227 -100 C295 -100 333 -114 333 -159 C333 -238 183 -222 137 -199 L137 -230 C210 -265 382 -276 382 -161 C382 -85 318 -69 247 -69 L244 -69 L262 0 L233 0 L206 -100 Z " />
<glyph glyph-name="onesuperior" unicode="&#xb9;" horiz-adv-x="748" d="M240 653 L378 653 L378 397 L165 397 L165 350 L582 350 L582 397 L429 397 L429 700 L240 700 L240 653 Z " />
<glyph glyph-name="ordmasculine" unicode="&#xba;" horiz-adv-x="763" d="M453 345 C616 345 680 425 680 525 C680 624 616 705 453 705 L310 705 C147 705 83 624 83 525 C83 425 147 345 310 345 L453 345 Z M310 392 C181 392 135 451 135 525 C135 598 180 658 310 658 L452 658 C581 658 628 598 628 525 C628 451 581 392 452 392 L310 392 Z " />
<glyph glyph-name="guillemotright" unicode="&#xbb;" horiz-adv-x="765" d="M385 560 L591 281 L383 0 L453 0 L662 281 L455 560 L385 560 Z M105 560 L311 281 L103 0 L173 0 L382 281 L175 560 L105 560 Z " />
<glyph glyph-name="onequarter" unicode="&#xbc;" horiz-adv-x="1496" d="M240 653 L378 653 L378 397 L165 397 L165 350 L582 350 L582 397 L429 397 L429 700 L240 700 L240 653 Z M1143 700 L280 0 L353 0 L1216 700 L1143 700 Z M1312 350 L837 100 L837 61 L1310 61 L1310 0 L1361 0 L1361 61 L1417 61 L1417 108 L1361 108 L1361 350 L1312 350 Z M939 108 L1310 301 L1310 108 L939 108 Z " />
<glyph glyph-name="onehalf" unicode="&#xbd;" horiz-adv-x="1496" d="M240 653 L378 653 L378 397 L165 397 L165 350 L582 350 L582 397 L429 397 L429 700 L240 700 L240 653 Z M1143 700 L280 0 L353 0 L1216 700 L1143 700 Z M1387 47 L902 47 L902 101 C902 129 920 155 978 155 L1277 155 C1367 155 1402 197 1402 252 C1402 307 1367 350 1277 350 L871 350 L871 303 L1274 303 C1331 303 1350 278 1350 249 C1350 220 1331 195 1274 195 L976 195 C886 195 851 153 851 98 L851 0 L1387 0 L1387 47 Z " />
<glyph glyph-name="threequarters" unicode="&#xbe;" horiz-adv-x="1496" d="M88 350 L530 350 C614 350 646 391 646 441 C646 484 623 520 567 530 C605 544 621 574 621 610 C621 660 589 700 507 700 L98 700 L98 653 L494 653 C551 653 568 628 568 599 C568 570 552 545 497 545 L141 545 L141 505 L517 505 C575 505 592 480 592 451 C592 421 575 397 517 397 L88 397 L88 350 Z M1143 700 L280 0 L353 0 L1216 700 L1143 700 Z M1312 350 L837 100 L837 61 L1310 61 L1310 0 L1361 0 L1361 61 L1417 61 L1417 108 L1361 108 L1361 350 L1312 350 Z M939 108 L1310 301 L1310 108 L939 108 Z " />
<glyph glyph-name="questiondown" unicode="&#xbf;" horiz-adv-x="1070" d="M730 552 L669 552 L669 377 L277 377 C103 377 36 295 36 188 C36 84 103 0 277 0 L1036 0 L1036 60 L280 60 C149 60 105 120 105 192 C105 265 149 323 280 323 L730 323 L730 552 Z M739 700 L659 700 L659 620 L739 620 L739 700 Z " />
<glyph glyph-name="Agrave" unicode="&#xc0;" horiz-adv-x="1266" d="M1170 0 L1252 0 L669 700 L597 700 L14 0 L96 0 L215 144 L1050 144 L1170 0 Z M633 646 L1003 200 L262 200 L633 646 Z M583 946 L503 946 L651 775 L694 775 L583 946 Z " />
<glyph glyph-name="Aacute" unicode="&#xc1;" horiz-adv-x="1266" d="M1170 0 L1252 0 L669 700 L597 700 L14 0 L96 0 L215 144 L1050 144 L1170 0 Z M633 646 L1003 200 L262 200 L633 646 Z M571 775 L614 775 L762 946 L682 946 L571 775 Z " />
<glyph glyph-name="Acircumflex" unicode="&#xc2;" horiz-adv-x="1266" d="M1170 0 L1252 0 L669 700 L597 700 L14 0 L96 0 L215 144 L1050 144 L1170 0 Z M633 646 L1003 200 L262 200 L633 646 Z M673 946 L592 946 L466 775 L509 775 L633 909 L756 775 L799 775 L673 946 Z " />
<glyph glyph-name="Atilde" unicode="&#xc3;" horiz-adv-x="1266" d="M1170 0 L1252 0 L669 700 L597 700 L14 0 L96 0 L215 144 L1050 144 L1170 0 Z M633 646 L1003 200 L262 200 L633 646 Z M768 927 C761 862 739 852 710 852 C661 852 620 919 555 919 C506 919 472 892 463 794 L498 794 C505 858 527 870 556 870 C604 870 646 803 711 803 C760 803 794 829 803 927 L768 927 Z " />
<glyph glyph-name="Adieresis" unicode="&#xc4;" horiz-adv-x="1266" d="M1170 0 L1252 0 L669 700 L597 700 L14 0 L96 0 L215 144 L1050 144 L1170 0 Z M633 646 L1003 200 L262 200 L633 646 Z M724 823 L798 823 L798 897 L724 897 L724 823 Z M468 823 L542 823 L542 897 L468 897 L468 823 Z " />
<glyph glyph-name="Aring" unicode="&#xc5;" horiz-adv-x="1266" d="M1170 0 L1252 0 L669 700 L597 700 L14 0 L96 0 L215 144 L1050 144 L1170 0 Z M633 646 L1003 200 L262 200 L633 646 Z M561 861 C561 900 593 932 632 932 C672 932 704 900 704 861 C704 821 672 789 632 789 C593 789 561 821 561 861 L561 861 Z M520 861 C520 801 569 752 632 752 C695 752 745 801 745 861 C745 921 695 969 632 969 C569 969 520 921 520 861 L520 861 Z " />
<glyph glyph-name="AE" unicode="&#xc6;" horiz-adv-x="1701" d="M733 143 L733 0 L1617 0 L1617 60 L799 60 L799 322 L1515 322 L1515 378 L799 378 L799 640 L1617 640 L1617 700 L697 700 L14 0 L97 0 L236 143 L733 143 Z M733 653 L733 199 L291 199 L733 653 Z " />
<glyph glyph-name="Ccedilla" unicode="&#xc7;" horiz-adv-x="1184" d="M598 -100 L619 -100 C687 -100 725 -114 725 -159 C725 -238 575 -222 529 -199 L529 -230 C602 -265 774 -276 774 -161 C774 -85 710 -69 639 -69 L636 -69 L654 0 L1100 0 L1100 60 L521 60 C247 60 149 190 149 350 C149 510 247 640 521 640 L1100 640 L1100 700 L520 700 C203 700 79 543 79 350 C79 157 203 0 520 0 L625 0 L598 -100 Z " />
<glyph glyph-name="Egrave" unicode="&#xc8;" horiz-adv-x="1199" d="M126 0 L1115 0 L1115 60 L192 60 L192 322 L1013 322 L1013 378 L192 378 L192 640 L1115 640 L1115 700 L126 700 L126 0 Z M560 946 L480 946 L628 775 L671 775 L560 946 Z " />
<glyph glyph-name="Eacute" unicode="&#xc9;" horiz-adv-x="1199" d="M126 0 L1115 0 L1115 60 L192 60 L192 322 L1013 322 L1013 378 L192 378 L192 640 L1115 640 L1115 700 L126 700 L126 0 Z M548 775 L591 775 L739 946 L659 946 L548 775 Z " />
<glyph glyph-name="Ecircumflex" unicode="&#xca;" horiz-adv-x="1199" d="M126 0 L1115 0 L1115 60 L192 60 L192 322 L1013 322 L1013 378 L192 378 L192 640 L1115 640 L1115 700 L126 700 L126 0 Z M650 946 L569 946 L443 775 L486 775 L610 909 L733 775 L776 775 L650 946 Z " />
<glyph glyph-name="Edieresis" unicode="&#xcb;" horiz-adv-x="1199" d="M126 0 L1115 0 L1115 60 L192 60 L192 322 L1013 322 L1013 378 L192 378 L192 640 L1115 640 L1115 700 L126 700 L126 0 Z M701 823 L775 823 L775 897 L701 897 L701 823 Z M445 823 L519 823 L519 897 L445 897 L445 823 Z " />
<glyph glyph-name="Igrave" unicode="&#xcc;" horiz-adv-x="318" d="M126 0 L192 0 L192 700 L126 700 L126 0 Z M110 946 L30 946 L178 775 L221 775 L110 946 Z " />
<glyph glyph-name="Iacute" unicode="&#xcd;" horiz-adv-x="318" d="M126 0 L192 0 L192 700 L126 700 L126 0 Z M98 775 L141 775 L289 946 L209 946 L98 775 Z " />
<glyph glyph-name="Icircumflex" unicode="&#xce;" horiz-adv-x="318" d="M126 0 L192 0 L192 700 L126 700 L126 0 Z M200 946 L119 946 L-7 775 L36 775 L160 909 L283 775 L326 775 L200 946 Z " />
<glyph glyph-name="Idieresis" unicode="&#xcf;" horiz-adv-x="318" d="M126 0 L192 0 L192 700 L126 700 L126 0 Z M250 823 L324 823 L324 897 L250 897 L250 823 Z M-6 823 L68 823 L68 897 L-6 897 L-6 823 Z " />
<glyph glyph-name="Eth" unicode="&#xd0;" horiz-adv-x="1255" d="M-4 322 L126 322 L126 0 L735 0 C1052 0 1176 157 1176 350 C1176 543 1052 700 735 700 L126 700 L126 378 L-4 378 L-4 322 Z M734 640 C1008 640 1106 510 1106 350 C1106 190 1008 60 734 60 L192 60 L192 322 L634 322 L634 378 L192 378 L192 640 L734 640 Z " />
<glyph glyph-name="Ntilde" unicode="&#xd1;" horiz-adv-x="1304" d="M1115 0 L1178 0 L1178 700 L1112 700 L1112 77 L189 700 L126 700 L126 0 L192 0 L192 623 L1115 0 Z M787 927 C780 862 758 852 729 852 C680 852 639 919 574 919 C525 919 491 892 482 794 L517 794 C524 858 546 870 575 870 C623 870 665 803 730 803 C779 803 813 829 822 927 L787 927 Z " />
<glyph glyph-name="Ograve" unicode="&#xd2;" horiz-adv-x="1348" d="M815 -10 C1141 -10 1269 151 1269 350 C1269 549 1141 710 815 710 L533 710 C207 710 79 549 79 350 C79 151 207 -10 533 -10 L815 -10 Z M534 50 C251 50 149 184 149 350 C149 516 251 650 534 650 L814 650 C1097 650 1199 516 1199 350 C1199 184 1097 50 814 50 L534 50 Z M624 946 L544 946 L692 775 L735 775 L624 946 Z " />
<glyph glyph-name="Oacute" unicode="&#xd3;" horiz-adv-x="1348" d="M815 -10 C1141 -10 1269 151 1269 350 C1269 549 1141 710 815 710 L533 710 C207 710 79 549 79 350 C79 151 207 -10 533 -10 L815 -10 Z M534 50 C251 50 149 184 149 350 C149 516 251 650 534 650 L814 650 C1097 650 1199 516 1199 350 C1199 184 1097 50 814 50 L534 50 Z M612 775 L655 775 L803 946 L723 946 L612 775 Z " />
<glyph glyph-name="Ocircumflex" unicode="&#xd4;" horiz-adv-x="1348" d="M815 -10 C1141 -10 1269 151 1269 350 C1269 549 1141 710 815 710 L533 710 C207 710 79 549 79 350 C79 151 207 -10 533 -10 L815 -10 Z M534 50 C251 50 149 184 149 350 C149 516 251 650 534 650 L814 650 C1097 650 1199 516 1199 350 C1199 184 1097 50 814 50 L534 50 Z M714 946 L633 946 L507 775 L550 775 L674 909 L797 775 L840 775 L714 946 Z " />
<glyph glyph-name="Otilde" unicode="&#xd5;" horiz-adv-x="1348" d="M815 -10 C1141 -10 1269 151 1269 350 C1269 549 1141 710 815 710 L533 710 C207 710 79 549 79 350 C79 151 207 -10 533 -10 L815 -10 Z M534 50 C251 50 149 184 149 350 C149 516 251 650 534 650 L814 650 C1097 650 1199 516 1199 350 C1199 184 1097 50 814 50 L534 50 Z M809 927 C802 862 780 852 751 852 C702 852 661 919 596 919 C547 919 513 892 504 794 L539 794 C546 858 568 870 597 870 C645 870 687 803 752 803 C801 803 835 829 844 927 L809 927 Z " />
<glyph glyph-name="Odieresis" unicode="&#xd6;" horiz-adv-x="1348" d="M815 -10 C1141 -10 1269 151 1269 350 C1269 549 1141 710 815 710 L533 710 C207 710 79 549 79 350 C79 151 207 -10 533 -10 L815 -10 Z M534 50 C251 50 149 184 149 350 C149 516 251 650 534 650 L814 650 C1097 650 1199 516 1199 350 C1199 184 1097 50 814 50 L534 50 Z M765 823 L839 823 L839 897 L765 897 L765 823 Z M509 823 L583 823 L583 897 L509 897 L509 823 Z " />
<glyph glyph-name="multiply" unicode="&#xd7;" horiz-adv-x="1298" d="M951 593 L906 638 L647 390 L390 635 L346 590 L603 349 L346 107 L390 62 L647 308 L906 62 L951 107 L692 349 L951 593 Z " />
<glyph glyph-name="Oslash" unicode="&#xd8;" horiz-adv-x="1348" d="M815 -10 C1141 -10 1269 151 1269 350 C1269 508 1188 643 990 691 L1079 800 L1002 800 L923 703 C890 707 854 710 815 710 L533 710 C207 710 79 549 79 350 C79 191 160 57 358 9 L269 -100 L347 -100 L425 -3 C458 -8 494 -10 533 -10 L815 -10 Z M149 350 C149 516 251 650 534 650 L814 650 C836 650 857 649 878 647 L401 62 C218 98 149 213 149 350 L149 350 Z M534 50 C512 50 491 51 471 52 L947 638 C1130 602 1199 487 1199 350 C1199 184 1097 50 814 50 L534 50 Z " />
<glyph glyph-name="Ugrave" unicode="&#xd9;" horiz-adv-x="1275" d="M172 323 L172 700 L106 700 L106 323 C106 130 210 -10 527 -10 L748 -10 C1065 -10 1169 130 1169 323 L1169 700 L1103 700 L1103 323 C1103 164 1019 50 747 50 L528 50 C256 50 172 164 172 323 L172 323 Z M588 946 L508 946 L656 775 L699 775 L588 946 Z " />
<glyph glyph-name="Uacute" unicode="&#xda;" horiz-adv-x="1275" d="M172 323 L172 700 L106 700 L106 323 C106 130 210 -10 527 -10 L748 -10 C1065 -10 1169 130 1169 323 L1169 700 L1103 700 L1103 323 C1103 164 1019 50 747 50 L528 50 C256 50 172 164 172 323 L172 323 Z M576 775 L619 775 L767 946 L687 946 L576 775 Z " />
<glyph glyph-name="Ucircumflex" unicode="&#xdb;" horiz-adv-x="1275" d="M172 323 L172 700 L106 700 L106 323 C106 130 210 -10 527 -10 L748 -10 C1065 -10 1169 130 1169 323 L1169 700 L1103 700 L1103 323 C1103 164 1019 50 747 50 L528 50 C256 50 172 164 172 323 L172 323 Z M678 946 L597 946 L471 775 L514 775 L638 909 L761 775 L804 775 L678 946 Z " />
<glyph glyph-name="Udieresis" unicode="&#xdc;" horiz-adv-x="1275" d="M172 323 L172 700 L106 700 L106 323 C106 130 210 -10 527 -10 L748 -10 C1065 -10 1169 130 1169 323 L1169 700 L1103 700 L1103 323 C1103 164 1019 50 747 50 L528 50 C256 50 172 164 172 323 L172 323 Z M728 823 L802 823 L802 897 L728 897 L728 823 Z M472 823 L546 823 L546 897 L472 897 L472 823 Z " />
<glyph glyph-name="Yacute" unicode="&#xdd;" horiz-adv-x="1245" d="M589 0 L655 0 L655 211 L1241 700 L1142 700 L622 263 L102 700 L4 700 L589 211 L589 0 Z M561 775 L604 775 L752 946 L672 946 L561 775 Z " />
<glyph glyph-name="Thorn" unicode="&#xde;" horiz-adv-x="1195" d="M126 0 L192 0 L192 140 L894 140 C1086 140 1160 232 1160 350 C1160 465 1086 560 894 560 L192 560 L192 700 L126 700 L126 0 Z M892 500 C1041 500 1091 432 1091 350 C1091 265 1040 200 892 200 L192 200 L192 500 L892 500 Z " />
<glyph glyph-name="germandbls" unicode="&#xdf;" horiz-adv-x="1089" d="M498 256 L829 256 C937 256 968 211 968 155 C968 99 938 53 829 53 L352 53 L352 0 L832 0 C980 0 1031 67 1031 152 C1031 237 980 304 832 304 L592 304 L951 518 L951 560 L453 560 C184 560 96 450 96 296 L96 0 L156 0 L156 296 C156 420 226 507 454 507 L840 507 L498 299 L498 256 Z " />
<glyph glyph-name="agrave" unicode="&#xe0;" horiz-adv-x="1084" d="M994 0 L1069 0 L575 560 L509 560 L15 0 L90 0 L195 119 L889 119 L994 0 Z M542 511 L846 167 L238 167 L542 511 Z M492 806 L412 806 L560 635 L603 635 L492 806 Z " />
<glyph glyph-name="aacute" unicode="&#xe1;" horiz-adv-x="1084" d="M994 0 L1069 0 L575 560 L509 560 L15 0 L90 0 L195 119 L889 119 L994 0 Z M542 511 L846 167 L238 167 L542 511 Z M480 635 L523 635 L671 806 L591 806 L480 635 Z " />
<glyph glyph-name="acircumflex" unicode="&#xe2;" horiz-adv-x="1084" d="M994 0 L1069 0 L575 560 L509 560 L15 0 L90 0 L195 119 L889 119 L994 0 Z M542 511 L846 167 L238 167 L542 511 Z M582 806 L501 806 L375 635 L418 635 L542 769 L665 635 L708 635 L582 806 Z " />
<glyph glyph-name="atilde" unicode="&#xe3;" horiz-adv-x="1084" d="M994 0 L1069 0 L575 560 L509 560 L15 0 L90 0 L195 119 L889 119 L994 0 Z M542 511 L846 167 L238 167 L542 511 Z M677 787 C670 722 648 712 619 712 C570 712 529 779 464 779 C415 779 381 752 372 654 L407 654 C414 718 436 730 465 730 C513 730 555 663 620 663 C669 663 703 689 712 787 L677 787 Z " />
<glyph glyph-name="adieresis" unicode="&#xe4;" horiz-adv-x="1084" d="M994 0 L1069 0 L575 560 L509 560 L15 0 L90 0 L195 119 L889 119 L994 0 Z M542 511 L846 167 L238 167 L542 511 Z M633 683 L707 683 L707 757 L633 757 L633 683 Z M377 683 L451 683 L451 757 L377 757 L377 683 Z " />
<glyph glyph-name="aring" unicode="&#xe5;" horiz-adv-x="1084" d="M994 0 L1069 0 L575 560 L509 560 L15 0 L90 0 L195 119 L889 119 L994 0 Z M542 511 L846 167 L238 167 L542 511 Z M470 721 C470 760 502 792 541 792 C581 792 613 760 613 721 C613 681 581 649 541 649 C502 649 470 681 470 721 L470 721 Z M429 721 C429 661 478 612 541 612 C604 612 654 661 654 721 C654 781 604 829 541 829 C478 829 429 781 429 721 L429 721 Z " />
<glyph glyph-name="ae" unicode="&#xe6;" horiz-adv-x="1456" d="M627 113 L627 0 L1379 0 L1379 53 L687 53 L687 256 L1292 256 L1292 304 L687 304 L687 507 L1379 507 L1379 560 L594 560 L15 0 L91 0 L208 113 L627 113 Z M627 516 L627 161 L258 161 L627 516 Z " />
<glyph glyph-name="ccedilla" unicode="&#xe7;" horiz-adv-x="1016" d="M504 -100 L525 -100 C593 -100 631 -114 631 -159 C631 -238 481 -222 435 -199 L435 -230 C508 -265 680 -276 680 -161 C680 -85 616 -69 545 -69 L542 -69 L560 0 L940 0 L940 53 L439 53 C209 53 136 155 136 280 C136 405 209 507 439 507 L940 507 L940 560 L439 560 C169 560 72 434 72 280 C72 126 169 0 439 0 L531 0 L504 -100 Z " />
<glyph glyph-name="egrave" unicode="&#xe8;" horiz-adv-x="1034" d="M116 0 L957 0 L957 53 L176 53 L176 256 L870 256 L870 304 L176 304 L176 507 L957 507 L957 560 L116 560 L116 0 Z M479 806 L399 806 L547 635 L590 635 L479 806 Z " />
<glyph glyph-name="eacute" unicode="&#xe9;" horiz-adv-x="1034" d="M116 0 L957 0 L957 53 L176 53 L176 256 L870 256 L870 304 L176 304 L176 507 L957 507 L957 560 L116 560 L116 0 Z M467 635 L510 635 L658 806 L578 806 L467 635 Z " />
<glyph glyph-name="ecircumflex" unicode="&#xea;" horiz-adv-x="1034" d="M116 0 L957 0 L957 53 L176 53 L176 256 L870 256 L870 304 L176 304 L176 507 L957 507 L957 560 L116 560 L116 0 Z M569 806 L488 806 L362 635 L405 635 L529 769 L652 635 L695 635 L569 806 Z " />
<glyph glyph-name="edieresis" unicode="&#xeb;" horiz-adv-x="1034" d="M116 0 L957 0 L957 53 L176 53 L176 256 L870 256 L870 304 L176 304 L176 507 L957 507 L957 560 L116 560 L116 0 Z M620 683 L694 683 L694 757 L620 757 L620 683 Z M364 683 L438 683 L438 757 L364 757 L364 683 Z " />
<glyph glyph-name="igrave" unicode="&#xec;" horiz-adv-x="292" d="M116 0 L176 0 L176 560 L116 560 L116 0 Z M97 806 L17 806 L165 635 L208 635 L97 806 Z " />
<glyph glyph-name="iacute" unicode="&#xed;" horiz-adv-x="292" d="M116 0 L176 0 L176 560 L116 560 L116 0 Z M85 635 L128 635 L276 806 L196 806 L85 635 Z " />
<glyph glyph-name="icircumflex" unicode="&#xee;" horiz-adv-x="292" d="M116 0 L176 0 L176 560 L116 560 L116 0 Z M187 806 L106 806 L-20 635 L23 635 L147 769 L270 635 L313 635 L187 806 Z " />
<glyph glyph-name="idieresis" unicode="&#xef;" horiz-adv-x="292" d="M116 0 L176 0 L176 560 L116 560 L116 0 Z M237 683 L311 683 L311 757 L237 757 L237 683 Z M-19 683 L55 683 L55 757 L-19 757 L-19 683 Z " />
<glyph glyph-name="eth" unicode="&#xf0;" horiz-adv-x="1081" d="M-4 256 L116 256 L116 0 L642 0 C912 0 1009 126 1009 280 C1009 434 912 560 642 560 L116 560 L116 304 L-4 304 L-4 256 Z M642 507 C872 507 945 405 945 280 C945 155 872 53 642 53 L176 53 L176 256 L563 256 L563 304 L176 304 L176 507 L642 507 Z " />
<glyph glyph-name="ntilde" unicode="&#xf1;" horiz-adv-x="1127" d="M1011 0 L1011 560 L951 560 L951 68 L173 560 L116 560 L116 0 L176 0 L176 492 L954 0 L1011 0 Z M698 787 C691 722 669 712 640 712 C591 712 550 779 485 779 C436 779 402 752 393 654 L428 654 C435 718 457 730 486 730 C534 730 576 663 641 663 C690 663 724 689 733 787 L698 787 Z " />
<glyph glyph-name="ograve" unicode="&#xf2;" horiz-adv-x="1156" d="M706 -8 C983 -8 1084 121 1084 280 C1084 439 983 568 706 568 L450 568 C173 568 72 439 72 280 C72 121 173 -8 450 -8 L706 -8 Z M451 45 C213 45 135 150 135 280 C135 410 213 515 451 515 L705 515 C944 515 1020 410 1020 280 C1020 150 944 45 705 45 L451 45 Z M528 806 L448 806 L596 635 L639 635 L528 806 Z " />
<glyph glyph-name="oacute" unicode="&#xf3;" horiz-adv-x="1156" d="M706 -8 C983 -8 1084 121 1084 280 C1084 439 983 568 706 568 L450 568 C173 568 72 439 72 280 C72 121 173 -8 450 -8 L706 -8 Z M451 45 C213 45 135 150 135 280 C135 410 213 515 451 515 L705 515 C944 515 1020 410 1020 280 C1020 150 944 45 705 45 L451 45 Z M516 635 L559 635 L707 806 L627 806 L516 635 Z " />
<glyph glyph-name="ocircumflex" unicode="&#xf4;" horiz-adv-x="1156" d="M706 -8 C983 -8 1084 121 1084 280 C1084 439 983 568 706 568 L450 568 C173 568 72 439 72 280 C72 121 173 -8 450 -8 L706 -8 Z M451 45 C213 45 135 150 135 280 C135 410 213 515 451 515 L705 515 C944 515 1020 410 1020 280 C1020 150 944 45 705 45 L451 45 Z M618 806 L537 806 L411 635 L454 635 L578 769 L701 635 L744 635 L618 806 Z " />
<glyph glyph-name="otilde" unicode="&#xf5;" horiz-adv-x="1156" d="M706 -8 C983 -8 1084 121 1084 280 C1084 439 983 568 706 568 L450 568 C173 568 72 439 72 280 C72 121 173 -8 450 -8 L706 -8 Z M451 45 C213 45 135 150 135 280 C135 410 213 515 451 515 L705 515 C944 515 1020 410 1020 280 C1020 150 944 45 705 45 L451 45 Z M713 787 C706 722 684 712 655 712 C606 712 565 779 500 779 C451 779 417 752 408 654 L443 654 C450 718 472 730 501 730 C549 730 591 663 656 663 C705 663 739 689 748 787 L713 787 Z " />
<glyph glyph-name="odieresis" unicode="&#xf6;" horiz-adv-x="1156" d="M706 -8 C983 -8 1084 121 1084 280 C1084 439 983 568 706 568 L450 568 C173 568 72 439 72 280 C72 121 173 -8 450 -8 L706 -8 Z M451 45 C213 45 135 150 135 280 C135 410 213 515 451 515 L705 515 C944 515 1020 410 1020 280 C1020 150 944 45 705 45 L451 45 Z M669 683 L743 683 L743 757 L669 757 L669 683 Z M413 683 L487 683 L487 757 L413 757 L413 683 Z " />
<glyph glyph-name="divide" unicode="&#xf7;" horiz-adv-x="1298" d="M291 320 L1007 320 L1007 380 L291 380 L291 320 Z M612 50 L685 50 L685 123 L612 123 L612 50 Z M612 577 L685 577 L685 650 L612 650 L612 577 Z " />
<glyph glyph-name="oslash" unicode="&#xf8;" horiz-adv-x="1156" d="M706 -8 C983 -8 1084 121 1084 280 C1084 408 1018 516 849 554 L923 640 L851 640 L785 564 C761 566 734 568 706 568 L450 568 C173 568 72 439 72 280 C72 152 137 44 306 6 L232 -80 L304 -80 L369 -3 C394 -6 421 -8 450 -8 L706 -8 Z M451 45 C437 45 424 45 412 46 L808 507 C966 480 1020 389 1020 280 C1020 150 944 45 705 45 L451 45 Z M135 280 C135 410 213 515 451 515 L705 515 C718 515 730 514 743 514 L346 53 C189 80 135 171 135 280 L135 280 Z " />
<glyph glyph-name="ugrave" unicode="&#xf9;" horiz-adv-x="1096" d="M156 258 L156 560 L96 560 L96 258 C96 104 176 -8 445 -8 L650 -8 C919 -8 1000 104 1000 258 L1000 560 L940 560 L940 258 C940 134 878 45 649 45 L446 45 C218 45 156 134 156 258 L156 258 Z M498 806 L418 806 L566 635 L609 635 L498 806 Z " />
<glyph glyph-name="uacute" unicode="&#xfa;" horiz-adv-x="1096" d="M156 258 L156 560 L96 560 L96 258 C96 104 176 -8 445 -8 L650 -8 C919 -8 1000 104 1000 258 L1000 560 L940 560 L940 258 C940 134 878 45 649 45 L446 45 C218 45 156 134 156 258 L156 258 Z M486 635 L529 635 L677 806 L597 806 L486 635 Z " />
<glyph glyph-name="ucircumflex" unicode="&#xfb;" horiz-adv-x="1096" d="M156 258 L156 560 L96 560 L96 258 C96 104 176 -8 445 -8 L650 -8 C919 -8 1000 104 1000 258 L1000 560 L940 560 L940 258 C940 134 878 45 649 45 L446 45 C218 45 156 134 156 258 L156 258 Z M588 806 L507 806 L381 635 L424 635 L548 769 L671 635 L714 635 L588 806 Z " />
<glyph glyph-name="udieresis" unicode="&#xfc;" horiz-adv-x="1096" d="M156 258 L156 560 L96 560 L96 258 C96 104 176 -8 445 -8 L650 -8 C919 -8 1000 104 1000 258 L1000 560 L940 560 L940 258 C940 134 878 45 649 45 L446 45 C218 45 156 134 156 258 L156 258 Z M639 683 L713 683 L713 757 L639 757 L639 683 Z M383 683 L457 683 L457 757 L383 757 L383 683 Z " />
<glyph glyph-name="yacute" unicode="&#xfd;" horiz-adv-x="1060" d="M500 0 L561 0 L561 170 L1056 560 L967 560 L530 215 L93 560 L4 560 L500 170 L500 0 Z M468 635 L511 635 L659 806 L579 806 L468 635 Z " />
<glyph glyph-name="thorn" unicode="&#xfe;" horiz-adv-x="1042" d="M116 0 L176 0 L176 111 L775 111 C939 111 996 184 996 280 C996 373 939 449 775 449 L176 449 L176 560 L116 560 L116 0 Z M772 396 C897 396 933 344 933 280 C933 214 897 164 772 164 L176 164 L176 396 L772 396 Z " />
<glyph glyph-name="ydieresis" unicode="&#xff;" horiz-adv-x="1060" d="M500 0 L561 0 L561 170 L1056 560 L967 560 L530 215 L93 560 L4 560 L500 170 L500 0 Z M621 683 L695 683 L695 757 L621 757 L621 683 Z M365 683 L439 683 L439 757 L365 757 L365 683 Z " />
<glyph glyph-name="Amacron" unicode="&#x100;" horiz-adv-x="1266" d="M1170 0 L1252 0 L669 700 L597 700 L14 0 L96 0 L215 144 L1050 144 L1170 0 Z M633 646 L1003 200 L262 200 L633 646 Z M457 838 L809 838 L809 882 L457 882 L457 838 Z " />
<glyph glyph-name="amacron" unicode="&#x101;" horiz-adv-x="1084" d="M994 0 L1069 0 L575 560 L509 560 L15 0 L90 0 L195 119 L889 119 L994 0 Z M542 511 L846 167 L238 167 L542 511 Z M366 698 L718 698 L718 742 L366 742 L366 698 Z " />
<glyph glyph-name="Abreve" unicode="&#x102;" horiz-adv-x="1266" d="M1170 0 L1252 0 L669 700 L597 700 L14 0 L96 0 L215 144 L1050 144 L1170 0 Z M633 646 L1003 200 L262 200 L633 646 Z M633 835 C547 835 515 880 510 932 L472 932 C478 863 514 789 633 789 C750 789 787 863 793 932 L755 932 C750 880 719 835 633 835 L633 835 Z " />
<glyph glyph-name="abreve" unicode="&#x103;" horiz-adv-x="1084" d="M994 0 L1069 0 L575 560 L509 560 L15 0 L90 0 L195 119 L889 119 L994 0 Z M542 511 L846 167 L238 167 L542 511 Z M542 695 C456 695 424 740 419 792 L381 792 C387 723 423 649 542 649 C659 649 696 723 702 792 L664 792 C659 740 628 695 542 695 L542 695 Z " />
<glyph glyph-name="Aogonek" unicode="&#x104;" horiz-adv-x="1266" d="M1011 -160 C1011 -214 1055 -246 1122 -246 C1160 -246 1193 -240 1234 -222 L1234 -191 C1197 -206 1172 -210 1144 -210 C1098 -210 1065 -188 1065 -146 C1065 -78 1137 -28 1215 0 L1252 0 L669 700 L597 700 L14 0 L96 0 L215 144 L1050 144 L1170 0 C1096 -23 1011 -82 1011 -160 L1011 -160 Z M633 646 L1003 200 L262 200 L633 646 Z " />
<glyph glyph-name="aogonek" unicode="&#x105;" horiz-adv-x="1084" d="M835 -160 C835 -214 879 -246 946 -246 C984 -246 1017 -240 1058 -222 L1058 -191 C1021 -206 996 -210 968 -210 C922 -210 889 -188 889 -146 C889 -78 961 -28 1039 0 L1069 0 L575 560 L509 560 L15 0 L90 0 L195 119 L889 119 L994 0 C920 -23 835 -82 835 -160 L835 -160 Z M542 511 L846 167 L238 167 L542 511 Z " />
<glyph glyph-name="Cacute" unicode="&#x106;" horiz-adv-x="1184" d="M149 350 C149 510 247 640 521 640 L1100 640 L1100 700 L520 700 C203 700 79 543 79 350 C79 157 203 0 520 0 L1100 0 L1100 60 L521 60 C247 60 149 190 149 350 L149 350 Z M580 775 L623 775 L771 946 L691 946 L580 775 Z " />
<glyph glyph-name="cacute" unicode="&#x107;" horiz-adv-x="1016" d="M136 280 C136 405 209 507 439 507 L940 507 L940 560 L439 560 C169 560 72 434 72 280 C72 126 169 0 439 0 L940 0 L940 53 L439 53 C209 53 136 155 136 280 L136 280 Z M486 635 L529 635 L677 806 L597 806 L486 635 Z " />
<glyph glyph-name="Ccircumflex" unicode="&#x108;" horiz-adv-x="1184" d="M149 350 C149 510 247 640 521 640 L1100 640 L1100 700 L520 700 C203 700 79 543 79 350 C79 157 203 0 520 0 L1100 0 L1100 60 L521 60 C247 60 149 190 149 350 L149 350 Z M682 946 L601 946 L475 775 L518 775 L642 909 L765 775 L808 775 L682 946 Z " />
<glyph glyph-name="ccircumflex" unicode="&#x109;" horiz-adv-x="1016" d="M136 280 C136 405 209 507 439 507 L940 507 L940 560 L439 560 C169 560 72 434 72 280 C72 126 169 0 439 0 L940 0 L940 53 L439 53 C209 53 136 155 136 280 L136 280 Z M588 806 L507 806 L381 635 L424 635 L548 769 L671 635 L714 635 L588 806 Z " />
<glyph glyph-name="Cdotaccent" unicode="&#x10a;" horiz-adv-x="1184" d="M149 350 C149 510 247 640 521 640 L1100 640 L1100 700 L520 700 C203 700 79 543 79 350 C79 157 203 0 520 0 L1100 0 L1100 60 L521 60 C247 60 149 190 149 350 L149 350 Z M605 823 L679 823 L679 897 L605 897 L605 823 Z " />
<glyph glyph-name="cdotaccent" unicode="&#x10b;" horiz-adv-x="1016" d="M136 280 C136 405 209 507 439 507 L940 507 L940 560 L439 560 C169 560 72 434 72 280 C72 126 169 0 439 0 L940 0 L940 53 L439 53 C209 53 136 155 136 280 L136 280 Z M511 683 L585 683 L585 757 L511 757 L511 683 Z " />
<glyph glyph-name="Ccaron" unicode="&#x10c;" horiz-adv-x="1184" d="M149 350 C149 510 247 640 521 640 L1100 640 L1100 700 L520 700 C203 700 79 543 79 350 C79 157 203 0 520 0 L1100 0 L1100 60 L521 60 C247 60 149 190 149 350 L149 350 Z M808 946 L765 946 L642 812 L518 946 L475 946 L601 775 L682 775 L808 946 Z " />
<glyph glyph-name="ccaron" unicode="&#x10d;" horiz-adv-x="1016" d="M136 280 C136 405 209 507 439 507 L940 507 L940 560 L439 560 C169 560 72 434 72 280 C72 126 169 0 439 0 L940 0 L940 53 L439 53 C209 53 136 155 136 280 L136 280 Z M714 806 L671 806 L548 672 L424 806 L381 806 L507 635 L588 635 L714 806 Z " />
<glyph glyph-name="Dcaron" unicode="&#x10e;" horiz-adv-x="1255" d="M126 0 L735 0 C1052 0 1176 157 1176 350 C1176 543 1052 700 735 700 L126 700 L126 0 Z M734 640 C1008 640 1106 510 1106 350 C1106 190 1008 60 734 60 L192 60 L192 640 L734 640 Z M779 946 L736 946 L613 812 L489 946 L446 946 L572 775 L653 775 L779 946 Z " />
<glyph glyph-name="dcaron" unicode="&#x10f;" horiz-adv-x="1081" d="M698 806 L655 806 L532 672 L408 806 L365 806 L491 635 L572 635 L698 806 Z M116 0 L642 0 C912 0 1009 126 1009 280 C1009 434 912 560 642 560 L116 560 L116 0 Z M642 507 C872 507 945 405 945 280 C945 155 872 53 642 53 L176 53 L176 507 L642 507 Z " />
<glyph glyph-name="Dcroat" unicode="&#x110;" horiz-adv-x="1255" d="M-4 322 L126 322 L126 0 L735 0 C1052 0 1176 157 1176 350 C1176 543 1052 700 735 700 L126 700 L126 378 L-4 378 L-4 322 Z M734 640 C1008 640 1106 510 1106 350 C1106 190 1008 60 734 60 L192 60 L192 322 L634 322 L634 378 L192 378 L192 640 L734 640 Z " />
<glyph glyph-name="dcroat" unicode="&#x111;" horiz-adv-x="1081" d="M-4 256 L116 256 L116 0 L642 0 C912 0 1009 126 1009 280 C1009 434 912 560 642 560 L116 560 L116 304 L-4 304 L-4 256 Z M642 507 C872 507 945 405 945 280 C945 155 872 53 642 53 L176 53 L176 256 L563 256 L563 304 L176 304 L176 507 L642 507 Z " />
<glyph glyph-name="Emacron" unicode="&#x112;" horiz-adv-x="1199" d="M126 0 L1115 0 L1115 60 L192 60 L192 322 L1013 322 L1013 378 L192 378 L192 640 L1115 640 L1115 700 L126 700 L126 0 Z M434 838 L786 838 L786 882 L434 882 L434 838 Z " />
<glyph glyph-name="emacron" unicode="&#x113;" horiz-adv-x="1034" d="M116 0 L957 0 L957 53 L176 53 L176 256 L870 256 L870 304 L176 304 L176 507 L957 507 L957 560 L116 560 L116 0 Z M353 698 L705 698 L705 742 L353 742 L353 698 Z " />
<glyph glyph-name="Ebreve" unicode="&#x114;" horiz-adv-x="1199" d="M126 0 L1115 0 L1115 60 L192 60 L192 322 L1013 322 L1013 378 L192 378 L192 640 L1115 640 L1115 700 L126 700 L126 0 Z M610 835 C524 835 492 880 487 932 L449 932 C455 863 491 789 610 789 C727 789 764 863 770 932 L732 932 C727 880 696 835 610 835 L610 835 Z " />
<glyph glyph-name="ebreve" unicode="&#x115;" horiz-adv-x="1034" d="M116 0 L957 0 L957 53 L176 53 L176 256 L870 256 L870 304 L176 304 L176 507 L957 507 L957 560 L116 560 L116 0 Z M529 695 C443 695 411 740 406 792 L368 792 C374 723 410 649 529 649 C646 649 683 723 689 792 L651 792 C646 740 615 695 529 695 L529 695 Z " />
<glyph glyph-name="Edotaccent" unicode="&#x116;" horiz-adv-x="1199" d="M126 0 L1115 0 L1115 60 L192 60 L192 322 L1013 322 L1013 378 L192 378 L192 640 L1115 640 L1115 700 L126 700 L126 0 Z M572 823 L646 823 L646 897 L572 897 L572 823 Z " />
<glyph glyph-name="edotaccent" unicode="&#x117;" horiz-adv-x="1034" d="M116 0 L957 0 L957 53 L176 53 L176 256 L870 256 L870 304 L176 304 L176 507 L957 507 L957 560 L116 560 L116 0 Z M492 683 L566 683 L566 757 L492 757 L492 683 Z " />
<glyph glyph-name="Eogonek" unicode="&#x118;" horiz-adv-x="1199" d="M126 0 L1051 0 C977 -23 892 -82 892 -160 C892 -214 936 -246 1003 -246 C1041 -246 1074 -240 1115 -222 L1115 -191 C1078 -206 1053 -210 1025 -210 C979 -210 946 -188 946 -146 C946 -78 1018 -28 1096 0 L1115 0 L1115 60 L192 60 L192 322 L1013 322 L1013 378 L192 378 L192 640 L1115 640 L1115 700 L126 700 L126 0 Z " />
<glyph glyph-name="eogonek" unicode="&#x119;" horiz-adv-x="1034" d="M116 0 L893 0 C819 -23 734 -82 734 -160 C734 -214 778 -246 845 -246 C883 -246 916 -240 957 -222 L957 -191 C920 -206 895 -210 867 -210 C821 -210 788 -188 788 -146 C788 -78 860 -28 938 0 L957 0 L957 53 L176 53 L176 256 L870 256 L870 304 L176 304 L176 507 L957 507 L957 560 L116 560 L116 0 Z " />
<glyph glyph-name="Ecaron" unicode="&#x11a;" horiz-adv-x="1199" d="M126 0 L1115 0 L1115 60 L192 60 L192 322 L1013 322 L1013 378 L192 378 L192 640 L1115 640 L1115 700 L126 700 L126 0 Z M776 946 L733 946 L610 812 L486 946 L443 946 L569 775 L650 775 L776 946 Z " />
<glyph glyph-name="ecaron" unicode="&#x11b;" horiz-adv-x="1034" d="M116 0 L957 0 L957 53 L176 53 L176 256 L870 256 L870 304 L176 304 L176 507 L957 507 L957 560 L116 560 L116 0 Z M695 806 L652 806 L529 672 L405 806 L362 806 L488 635 L569 635 L695 806 Z " />
<glyph glyph-name="Gcircumflex" unicode="&#x11c;" horiz-adv-x="1256" d="M668 322 L1090 322 L1090 60 L521 60 C247 60 149 190 149 350 C149 510 247 640 521 640 L1100 640 L1100 700 L520 700 C203 700 79 543 79 350 C79 157 203 0 520 0 L1155 0 L1155 378 L668 378 L668 322 Z M692 946 L611 946 L485 775 L528 775 L652 909 L775 775 L818 775 L692 946 Z " />
<glyph glyph-name="gcircumflex" unicode="&#x11d;" horiz-adv-x="1081" d="M572 256 L928 256 L928 53 L439 53 C209 53 136 155 136 280 C136 405 209 507 439 507 L940 507 L940 560 L439 560 C169 560 72 434 72 280 C72 126 169 0 439 0 L987 0 L987 304 L572 304 L572 256 Z M592 806 L511 806 L385 635 L428 635 L552 769 L675 635 L718 635 L592 806 Z " />
<glyph glyph-name="Gbreve" unicode="&#x11e;" horiz-adv-x="1256" d="M668 322 L1090 322 L1090 60 L521 60 C247 60 149 190 149 350 C149 510 247 640 521 640 L1100 640 L1100 700 L520 700 C203 700 79 543 79 350 C79 157 203 0 520 0 L1155 0 L1155 378 L668 378 L668 322 Z M652 835 C566 835 534 880 529 932 L491 932 C497 863 533 789 652 789 C769 789 806 863 812 932 L774 932 C769 880 738 835 652 835 L652 835 Z " />
<glyph glyph-name="gbreve" unicode="&#x11f;" horiz-adv-x="1081" d="M572 256 L928 256 L928 53 L439 53 C209 53 136 155 136 280 C136 405 209 507 439 507 L940 507 L940 560 L439 560 C169 560 72 434 72 280 C72 126 169 0 439 0 L987 0 L987 304 L572 304 L572 256 Z M552 695 C466 695 434 740 429 792 L391 792 C397 723 433 649 552 649 C669 649 706 723 712 792 L674 792 C669 740 638 695 552 695 L552 695 Z " />
<glyph glyph-name="Gdotaccent" unicode="&#x120;" horiz-adv-x="1256" d="M668 322 L1090 322 L1090 60 L521 60 C247 60 149 190 149 350 C149 510 247 640 521 640 L1100 640 L1100 700 L520 700 C203 700 79 543 79 350 C79 157 203 0 520 0 L1155 0 L1155 378 L668 378 L668 322 Z M615 823 L689 823 L689 897 L615 897 L615 823 Z " />
<glyph glyph-name="gdotaccent" unicode="&#x121;" horiz-adv-x="1081" d="M572 256 L928 256 L928 53 L439 53 C209 53 136 155 136 280 C136 405 209 507 439 507 L940 507 L940 560 L439 560 C169 560 72 434 72 280 C72 126 169 0 439 0 L987 0 L987 304 L572 304 L572 256 Z M515 683 L589 683 L589 757 L515 757 L515 683 Z " />
<glyph glyph-name="uni0122" unicode="&#x122;" horiz-adv-x="1256" d="M668 322 L1090 322 L1090 60 L521 60 C247 60 149 190 149 350 C149 510 247 640 521 640 L1100 640 L1100 700 L520 700 C203 700 79 543 79 350 C79 157 203 0 520 0 L1155 0 L1155 378 L668 378 L668 322 Z M628 -198 L660 -198 L624 -293 L656 -293 L702 -194 L702 -124 L628 -124 L628 -198 Z " />
<glyph glyph-name="uni0123" unicode="&#x123;" horiz-adv-x="1081" d="M572 256 L928 256 L928 53 L439 53 C209 53 136 155 136 280 C136 405 209 507 439 507 L940 507 L940 560 L439 560 C169 560 72 434 72 280 C72 126 169 0 439 0 L987 0 L987 304 L572 304 L572 256 Z M526 -198 L558 -198 L522 -293 L554 -293 L600 -194 L600 -124 L526 -124 L526 -198 Z " />
<glyph glyph-name="Hcircumflex" unicode="&#x124;" horiz-adv-x="1305" d="M1113 0 L1179 0 L1179 700 L1113 700 L1113 380 L192 380 L192 700 L126 700 L126 0 L192 0 L192 320 L1113 320 L1113 0 Z M693 946 L612 946 L486 775 L529 775 L653 909 L776 775 L819 775 L693 946 Z " />
<glyph glyph-name="hcircumflex" unicode="&#x125;" horiz-adv-x="1128" d="M952 0 L1012 0 L1012 560 L952 560 L952 307 L176 307 L176 560 L116 560 L116 0 L176 0 L176 253 L952 253 L952 0 Z M604 806 L523 806 L397 635 L440 635 L564 769 L687 635 L730 635 L604 806 Z " />
<glyph glyph-name="Hbar" unicode="&#x126;" horiz-adv-x="1305" d="M26 521 L126 521 L126 0 L192 0 L192 320 L1113 320 L1113 0 L1179 0 L1179 521 L1279 521 L1279 559 L1179 559 L1179 700 L1113 700 L1113 559 L192 559 L192 700 L126 700 L126 559 L26 559 L26 521 Z M192 380 L192 521 L1113 521 L1113 380 L192 380 Z " />
<glyph glyph-name="hbar" unicode="&#x127;" horiz-adv-x="1128" d="M26 414 L116 414 L116 0 L176 0 L176 253 L952 253 L952 0 L1012 0 L1012 414 L1102 414 L1102 452 L1012 452 L1012 560 L952 560 L952 452 L176 452 L176 560 L116 560 L116 452 L26 452 L26 414 Z M176 307 L176 414 L952 414 L952 307 L176 307 Z " />
<glyph glyph-name="Itilde" unicode="&#x128;" horiz-adv-x="318" d="M126 0 L192 0 L192 700 L126 700 L126 0 Z M294 927 C287 862 265 852 236 852 C187 852 146 919 81 919 C32 919 -2 892 -11 794 L24 794 C31 858 53 870 82 870 C130 870 172 803 237 803 C286 803 320 829 329 927 L294 927 Z " />
<glyph glyph-name="itilde" unicode="&#x129;" horiz-adv-x="292" d="M116 0 L176 0 L176 560 L116 560 L116 0 Z M281 787 C274 722 252 712 223 712 C174 712 133 779 68 779 C19 779 -15 752 -24 654 L11 654 C18 718 40 730 69 730 C117 730 159 663 224 663 C273 663 307 689 316 787 L281 787 Z " />
<glyph glyph-name="Imacron" unicode="&#x12a;" horiz-adv-x="318" d="M126 0 L192 0 L192 700 L126 700 L126 0 Z M-16 838 L336 838 L336 882 L-16 882 L-16 838 Z " />
<glyph glyph-name="imacron" unicode="&#x12b;" horiz-adv-x="292" d="M116 0 L176 0 L176 560 L116 560 L116 0 Z M-29 698 L323 698 L323 742 L-29 742 L-29 698 Z " />
<glyph glyph-name="Ibreve" unicode="&#x12c;" horiz-adv-x="318" d="M126 0 L192 0 L192 700 L126 700 L126 0 Z M160 835 C74 835 42 880 37 932 L-1 932 C5 863 41 789 160 789 C277 789 314 863 320 932 L282 932 C277 880 246 835 160 835 L160 835 Z " />
<glyph glyph-name="ibreve" unicode="&#x12d;" horiz-adv-x="292" d="M116 0 L176 0 L176 560 L116 560 L116 0 Z M147 695 C61 695 29 740 24 792 L-14 792 C-8 723 28 649 147 649 C264 649 301 723 307 792 L269 792 C264 740 233 695 147 695 L147 695 Z " />
<glyph glyph-name="Iogonek" unicode="&#x12e;" horiz-adv-x="318" d="M16 -149 C16 -216 73 -246 127 -246 C165 -246 198 -240 239 -222 L239 -191 C202 -206 177 -210 149 -210 C97 -210 67 -183 67 -137 C67 -80 99 -39 159 0 L192 0 L192 700 L126 700 L126 0 C68 -31 16 -83 16 -149 L16 -149 Z " />
<glyph glyph-name="iogonek" unicode="&#x12f;" horiz-adv-x="292" d="M6 -149 C6 -216 63 -246 117 -246 C155 -246 188 -240 229 -222 L229 -191 C192 -206 167 -210 139 -210 C87 -210 57 -183 57 -137 C57 -80 89 -39 149 0 L176 0 L176 560 L116 560 L116 0 C58 -31 6 -83 6 -149 L6 -149 Z " />
<glyph glyph-name="Idotaccent" unicode="&#x130;" horiz-adv-x="318" d="M126 0 L192 0 L192 700 L126 700 L126 0 Z M122 823 L196 823 L196 897 L122 897 L122 823 Z " />
<glyph glyph-name="dotlessi" unicode="&#x131;" horiz-adv-x="292" d="M116 0 L176 0 L176 560 L116 560 L116 0 Z " />
<glyph glyph-name="IJ" unicode="&#x132;" horiz-adv-x="1271" d="M449 -5 L744 -5 C1061 -5 1165 132 1165 325 L1165 700 L1099 700 L1099 325 C1099 166 1015 55 743 55 L450 55 C240 55 172 153 172 275 L172 318 L106 318 L106 275 C106 121 195 -5 449 -5 L449 -5 Z M106 445 L172 445 L172 700 L106 700 L106 445 Z " />
<glyph glyph-name="ij" unicode="&#x133;" horiz-adv-x="1093" d="M96 356 L156 356 L156 560 L96 560 L96 356 Z M382 -4 L647 -4 C917 -4 997 106 997 260 L997 560 L937 560 L937 260 C937 136 875 49 647 49 L383 49 C207 49 156 125 156 220 L156 256 L96 256 L96 220 C96 97 166 -4 382 -4 L382 -4 Z " />
<glyph glyph-name="Jcircumflex" unicode="&#x134;" horiz-adv-x="1211" d="M389 -5 L684 -5 C1001 -5 1105 132 1105 325 L1105 700 L1039 700 L1039 325 C1039 166 955 55 683 55 L390 55 C180 55 112 153 112 275 L112 318 L46 318 L46 275 C46 121 135 -5 389 -5 L389 -5 Z M1083 946 L1002 946 L876 775 L919 775 L1043 909 L1166 775 L1209 775 L1083 946 Z " />
<glyph glyph-name="jcircumflex" unicode="&#x135;" horiz-adv-x="1043" d="M332 -4 L597 -4 C867 -4 947 106 947 260 L947 560 L887 560 L887 260 C887 136 825 49 597 49 L333 49 C157 49 106 125 106 220 L106 256 L46 256 L46 220 C46 97 116 -4 332 -4 L332 -4 Z M928 806 L847 806 L721 635 L764 635 L888 769 L1011 635 L1054 635 L928 806 Z " />
<glyph glyph-name="uni0136" unicode="&#x136;" horiz-adv-x="1286" d="M1186 700 L1068 700 L192 212 L192 700 L126 700 L126 0 L192 0 L192 146 L543 341 L1160 0 L1277 0 L604 376 L1186 700 Z M605 -198 L637 -198 L601 -293 L633 -293 L679 -194 L679 -124 L605 -124 L605 -198 Z " />
<glyph glyph-name="uni0137" unicode="&#x137;" horiz-adv-x="1110" d="M1024 560 L912 560 L176 175 L176 560 L116 560 L116 0 L176 0 L176 115 L474 271 L987 0 L1096 0 L529 300 L1024 560 Z M516 -198 L548 -198 L512 -293 L544 -293 L590 -194 L590 -124 L516 -124 L516 -198 Z " />
<glyph glyph-name="kgreenlandic" unicode="&#x138;" horiz-adv-x="1231" d="M1175 465 L1143 465 L1179 560 L1147 560 L1101 461 L1101 391 L1175 391 L1175 465 Z M1024 560 L912 560 L176 175 L176 560 L116 560 L116 0 L176 0 L176 115 L474 271 L987 0 L1096 0 L529 300 L1024 560 Z " />
<glyph glyph-name="Lacute" unicode="&#x139;" horiz-adv-x="1129" d="M192 700 L126 700 L126 0 L1095 0 L1095 60 L192 60 L192 700 Z M98 775 L141 775 L289 946 L209 946 L98 775 Z " />
<glyph glyph-name="lacute" unicode="&#x13a;" horiz-adv-x="987" d="M176 560 L116 560 L116 0 L940 0 L940 53 L176 53 L176 560 Z M85 635 L128 635 L276 806 L196 806 L85 635 Z " />
<glyph glyph-name="uni013B" unicode="&#x13b;" horiz-adv-x="1129" d="M192 700 L126 700 L126 0 L1095 0 L1095 60 L192 60 L192 700 Z M568 -198 L600 -198 L564 -293 L596 -293 L642 -194 L642 -124 L568 -124 L568 -198 Z " />
<glyph glyph-name="uni013C" unicode="&#x13c;" horiz-adv-x="987" d="M176 560 L116 560 L116 0 L940 0 L940 53 L176 53 L176 560 Z M494 -198 L526 -198 L490 -293 L522 -293 L568 -194 L568 -124 L494 -124 L494 -198 Z " />
<glyph glyph-name="Lcaron" unicode="&#x13d;" horiz-adv-x="1129" d="M192 700 L126 700 L126 0 L1095 0 L1095 60 L192 60 L192 700 Z M893 620 L931 620 L895 517 L927 517 L973 624 L973 700 L893 700 L893 620 Z " />
<glyph glyph-name="lcaron" unicode="&#x13e;" horiz-adv-x="987" d="M176 560 L116 560 L116 0 L940 0 L940 53 L176 53 L176 560 Z M774 486 L806 486 L770 391 L802 391 L848 490 L848 560 L774 560 L774 486 Z " />
<glyph glyph-name="Ldot" unicode="&#x13f;" horiz-adv-x="1129" d="M192 700 L126 700 L126 0 L1095 0 L1095 60 L192 60 L192 700 Z M721 343 L795 343 L795 417 L721 417 L721 343 Z " />
<glyph glyph-name="ldot" unicode="&#x140;" horiz-adv-x="987" d="M176 560 L116 560 L116 0 L940 0 L940 53 L176 53 L176 560 Z M632 270 L706 270 L706 344 L632 344 L632 270 Z " />
<glyph glyph-name="Lslash" unicode="&#x141;" horiz-adv-x="1129" d="M590 541 L192 335 L192 700 L126 700 L126 302 L27 252 L27 185 L126 237 L126 0 L1095 0 L1095 60 L192 60 L192 271 L590 474 L590 541 Z " />
<glyph glyph-name="lslash" unicode="&#x142;" horiz-adv-x="987" d="M511 436 L176 273 L176 560 L116 560 L116 244 L32 205 L32 146 L116 187 L116 0 L940 0 L940 53 L176 53 L176 217 L511 377 L511 436 Z " />
<glyph glyph-name="Nacute" unicode="&#x143;" horiz-adv-x="1304" d="M1115 0 L1178 0 L1178 700 L1112 700 L1112 77 L189 700 L126 700 L126 0 L192 0 L192 623 L1115 0 Z M590 775 L633 775 L781 946 L701 946 L590 775 Z " />
<glyph glyph-name="nacute" unicode="&#x144;" horiz-adv-x="1127" d="M1011 0 L1011 560 L951 560 L951 68 L173 560 L116 560 L116 0 L176 0 L176 492 L954 0 L1011 0 Z M502 635 L545 635 L693 806 L613 806 L502 635 Z " />
<glyph glyph-name="uni0145" unicode="&#x145;" horiz-adv-x="1304" d="M616 -198 L648 -198 L612 -293 L644 -293 L690 -194 L690 -124 L616 -124 L616 -198 Z M1115 0 L1178 0 L1178 700 L1112 700 L1112 77 L189 700 L126 700 L126 0 L192 0 L192 623 L1115 0 Z " />
<glyph glyph-name="uni0146" unicode="&#x146;" horiz-adv-x="1127" d="M527 -198 L559 -198 L523 -293 L555 -293 L601 -194 L601 -124 L527 -124 L527 -198 Z M1011 0 L1011 560 L951 560 L951 68 L173 560 L116 560 L116 0 L176 0 L176 492 L954 0 L1011 0 Z " />
<glyph glyph-name="Ncaron" unicode="&#x147;" horiz-adv-x="1304" d="M1115 0 L1178 0 L1178 700 L1112 700 L1112 77 L189 700 L126 700 L126 0 L192 0 L192 623 L1115 0 Z M818 946 L775 946 L652 812 L528 946 L485 946 L611 775 L692 775 L818 946 Z " />
<glyph glyph-name="ncaron" unicode="&#x148;" horiz-adv-x="1127" d="M1011 0 L1011 560 L951 560 L951 68 L173 560 L116 560 L116 0 L176 0 L176 492 L954 0 L1011 0 Z M730 806 L687 806 L564 672 L440 806 L397 806 L523 635 L604 635 L730 806 Z " />
<glyph glyph-name="napostrophe" unicode="&#x149;" horiz-adv-x="1302" d="M61 626 L93 626 L57 531 L89 531 L135 630 L135 700 L61 700 L61 626 Z M1186 0 L1186 560 L1126 560 L1126 68 L348 560 L291 560 L291 0 L351 0 L351 492 L1129 0 L1186 0 Z " />
<glyph glyph-name="Eng" unicode="&#x14a;" horiz-adv-x="1304" d="M751 -230 L937 -230 C1111 -230 1178 -145 1178 -41 L1178 700 L1112 700 L1112 77 L189 700 L126 700 L126 0 L192 0 L192 623 L1112 2 L1112 -40 C1112 -111 1065 -170 936 -170 L751 -170 L751 -230 Z " />
<glyph glyph-name="eng" unicode="&#x14b;" horiz-adv-x="1127" d="M647 -184 L812 -184 C960 -184 1011 -116 1011 -32 L1011 560 L951 560 L951 68 L173 560 L116 560 L116 0 L176 0 L176 492 L951 2 L951 -31 C951 -86 919 -131 810 -131 L647 -131 L647 -184 Z " />
<glyph glyph-name="Omacron" unicode="&#x14c;" horiz-adv-x="1348" d="M815 -10 C1141 -10 1269 151 1269 350 C1269 549 1141 710 815 710 L533 710 C207 710 79 549 79 350 C79 151 207 -10 533 -10 L815 -10 Z M534 50 C251 50 149 184 149 350 C149 516 251 650 534 650 L814 650 C1097 650 1199 516 1199 350 C1199 184 1097 50 814 50 L534 50 Z M498 838 L850 838 L850 882 L498 882 L498 838 Z " />
<glyph glyph-name="omacron" unicode="&#x14d;" horiz-adv-x="1156" d="M706 -8 C983 -8 1084 121 1084 280 C1084 439 983 568 706 568 L450 568 C173 568 72 439 72 280 C72 121 173 -8 450 -8 L706 -8 Z M451 45 C213 45 135 150 135 280 C135 410 213 515 451 515 L705 515 C944 515 1020 410 1020 280 C1020 150 944 45 705 45 L451 45 Z M402 698 L754 698 L754 742 L402 742 L402 698 Z " />
<glyph glyph-name="Obreve" unicode="&#x14e;" horiz-adv-x="1348" d="M815 -10 C1141 -10 1269 151 1269 350 C1269 549 1141 710 815 710 L533 710 C207 710 79 549 79 350 C79 151 207 -10 533 -10 L815 -10 Z M534 50 C251 50 149 184 149 350 C149 516 251 650 534 650 L814 650 C1097 650 1199 516 1199 350 C1199 184 1097 50 814 50 L534 50 Z M674 835 C588 835 556 880 551 932 L513 932 C519 863 555 789 674 789 C791 789 828 863 834 932 L796 932 C791 880 760 835 674 835 L674 835 Z " />
<glyph glyph-name="obreve" unicode="&#x14f;" horiz-adv-x="1156" d="M706 -8 C983 -8 1084 121 1084 280 C1084 439 983 568 706 568 L450 568 C173 568 72 439 72 280 C72 121 173 -8 450 -8 L706 -8 Z M451 45 C213 45 135 150 135 280 C135 410 213 515 451 515 L705 515 C944 515 1020 410 1020 280 C1020 150 944 45 705 45 L451 45 Z M578 695 C492 695 460 740 455 792 L417 792 C423 723 459 649 578 649 C695 649 732 723 738 792 L700 792 C695 740 664 695 578 695 L578 695 Z " />
<glyph glyph-name="Ohungarumlaut" unicode="&#x150;" horiz-adv-x="1348" d="M815 -10 C1141 -10 1269 151 1269 350 C1269 549 1141 710 815 710 L533 710 C207 710 79 549 79 350 C79 151 207 -10 533 -10 L815 -10 Z M534 50 C251 50 149 184 149 350 C149 516 251 650 534 650 L814 650 C1097 650 1199 516 1199 350 C1199 184 1097 50 814 50 L534 50 Z M719 775 L762 775 L910 946 L830 946 L719 775 Z M505 775 L548 775 L696 946 L616 946 L505 775 Z " />
<glyph glyph-name="ohungarumlaut" unicode="&#x151;" horiz-adv-x="1156" d="M706 -8 C983 -8 1084 121 1084 280 C1084 439 983 568 706 568 L450 568 C173 568 72 439 72 280 C72 121 173 -8 450 -8 L706 -8 Z M451 45 C213 45 135 150 135 280 C135 410 213 515 451 515 L705 515 C944 515 1020 410 1020 280 C1020 150 944 45 705 45 L451 45 Z M623 635 L666 635 L814 806 L734 806 L623 635 Z M409 635 L452 635 L600 806 L520 806 L409 635 Z " />
<glyph glyph-name="OE" unicode="&#x152;" horiz-adv-x="1742" d="M79 350 C79 157 203 0 520 0 L1658 0 L1658 60 L840 60 L840 322 L1556 322 L1556 378 L840 378 L840 640 L1658 640 L1658 700 L520 700 C203 700 79 543 79 350 L79 350 Z M149 350 C149 510 247 640 521 640 L774 640 L774 60 L521 60 C247 60 149 190 149 350 L149 350 Z " />
<glyph glyph-name="oe" unicode="&#x153;" horiz-adv-x="1492" d="M72 280 C72 126 169 0 439 0 L1415 0 L1415 53 L723 53 L723 256 L1327 256 L1327 304 L723 304 L723 507 L1415 507 L1415 560 L439 560 C169 560 72 434 72 280 L72 280 Z M136 280 C136 405 209 507 439 507 L663 507 L663 53 L439 53 C209 53 136 155 136 280 L136 280 Z " />
<glyph glyph-name="Racute" unicode="&#x154;" horiz-adv-x="1277" d="M126 0 L192 0 L192 281 L648 281 L1152 0 L1268 0 L755 282 L877 282 C1069 282 1143 373 1143 491 C1143 606 1069 700 877 700 L126 700 L126 0 Z M874 640 C1023 640 1074 572 1074 490 C1074 405 1023 339 874 339 L192 339 L192 640 L874 640 Z M537 775 L580 775 L728 946 L648 946 L537 775 Z " />
<glyph glyph-name="racute" unicode="&#x155;" horiz-adv-x="1105" d="M116 0 L176 0 L176 222 L561 222 L981 0 L1087 0 L660 223 L760 223 C924 223 982 297 982 392 C982 485 924 560 760 560 L116 560 L116 0 Z M758 507 C882 507 919 455 919 390 C919 325 882 274 758 274 L176 274 L176 507 L758 507 Z M456 635 L499 635 L647 806 L567 806 L456 635 Z " />
<glyph glyph-name="uni0156" unicode="&#x156;" horiz-adv-x="1277" d="M126 0 L192 0 L192 281 L648 281 L1152 0 L1268 0 L755 282 L877 282 C1069 282 1143 373 1143 491 C1143 606 1069 700 877 700 L126 700 L126 0 Z M874 640 C1023 640 1074 572 1074 490 C1074 405 1023 339 874 339 L192 339 L192 640 L874 640 Z M601 -198 L633 -198 L597 -293 L629 -293 L675 -194 L675 -124 L601 -124 L601 -198 Z " />
<glyph glyph-name="uni0157" unicode="&#x157;" horiz-adv-x="1105" d="M116 0 L176 0 L176 222 L561 222 L981 0 L1087 0 L660 223 L760 223 C924 223 982 297 982 392 C982 485 924 560 760 560 L116 560 L116 0 Z M758 507 C882 507 919 455 919 390 C919 325 882 274 758 274 L176 274 L176 507 L758 507 Z M512 -198 L544 -198 L508 -293 L540 -293 L586 -194 L586 -124 L512 -124 L512 -198 Z " />
<glyph glyph-name="Rcaron" unicode="&#x158;" horiz-adv-x="1277" d="M126 0 L192 0 L192 281 L648 281 L1152 0 L1268 0 L755 282 L877 282 C1069 282 1143 373 1143 491 C1143 606 1069 700 877 700 L126 700 L126 0 Z M874 640 C1023 640 1074 572 1074 490 C1074 405 1023 339 874 339 L192 339 L192 640 L874 640 Z M765 946 L722 946 L599 812 L475 946 L432 946 L558 775 L639 775 L765 946 Z " />
<glyph glyph-name="rcaron" unicode="&#x159;" horiz-adv-x="1105" d="M116 0 L176 0 L176 222 L561 222 L981 0 L1087 0 L660 223 L760 223 C924 223 982 297 982 392 C982 485 924 560 760 560 L116 560 L116 0 Z M758 507 C882 507 919 455 919 390 C919 325 882 274 758 274 L176 274 L176 507 L758 507 Z M684 806 L641 806 L518 672 L394 806 L351 806 L477 635 L558 635 L684 806 Z " />
<glyph glyph-name="Sacute" unicode="&#x15a;" horiz-adv-x="1207" d="M116 0 L890 0 C1064 0 1131 84 1131 189 C1131 295 1064 378 890 378 L318 378 C188 378 145 436 145 509 C145 580 188 640 318 640 L1091 640 L1091 700 L317 700 C143 700 76 616 76 511 C76 405 143 322 317 322 L889 322 C1019 322 1062 264 1062 191 C1062 120 1019 60 889 60 L116 60 L116 0 Z M542 775 L585 775 L733 946 L653 946 L542 775 Z " />
<glyph glyph-name="sacute" unicode="&#x15b;" horiz-adv-x="1033" d="M102 0 L766 0 C914 0 965 68 965 152 C965 238 914 304 766 304 L270 304 C162 304 131 349 131 406 C131 461 162 507 270 507 L931 507 L931 560 L267 560 C119 560 68 492 68 408 C68 322 119 256 267 256 L763 256 C871 256 902 211 902 154 C902 99 871 53 763 53 L102 53 L102 0 Z M455 635 L498 635 L646 806 L566 806 L455 635 Z " />
<glyph glyph-name="Scircumflex" unicode="&#x15c;" horiz-adv-x="1207" d="M116 0 L890 0 C1064 0 1131 84 1131 189 C1131 295 1064 378 890 378 L318 378 C188 378 145 436 145 509 C145 580 188 640 318 640 L1091 640 L1091 700 L317 700 C143 700 76 616 76 511 C76 405 143 322 317 322 L889 322 C1019 322 1062 264 1062 191 C1062 120 1019 60 889 60 L116 60 L116 0 Z M644 946 L563 946 L437 775 L480 775 L604 909 L727 775 L770 775 L644 946 Z " />
<glyph glyph-name="scircumflex" unicode="&#x15d;" horiz-adv-x="1033" d="M102 0 L766 0 C914 0 965 68 965 152 C965 238 914 304 766 304 L270 304 C162 304 131 349 131 406 C131 461 162 507 270 507 L931 507 L931 560 L267 560 C119 560 68 492 68 408 C68 322 119 256 267 256 L763 256 C871 256 902 211 902 154 C902 99 871 53 763 53 L102 53 L102 0 Z M557 806 L476 806 L350 635 L393 635 L517 769 L640 635 L683 635 L557 806 Z " />
<glyph glyph-name="Scedilla" unicode="&#x15e;" horiz-adv-x="1207" d="M116 0 L587 0 L560 -100 L581 -100 C649 -100 687 -114 687 -159 C687 -238 537 -222 491 -199 L491 -230 C564 -265 736 -276 736 -161 C736 -85 672 -69 601 -69 L598 -69 L616 0 L890 0 C1064 0 1131 84 1131 189 C1131 295 1064 378 890 378 L318 378 C188 378 145 436 145 509 C145 580 188 640 318 640 L1091 640 L1091 700 L317 700 C143 700 76 616 76 511 C76 405 143 322 317 322 L889 322 C1019 322 1062 264 1062 191 C1062 120 1019 60 889 60 L116 60 L116 0 Z " />
<glyph glyph-name="scedilla" unicode="&#x15f;" horiz-adv-x="1033" d="M102 0 L500 0 L473 -100 L494 -100 C562 -100 600 -114 600 -159 C600 -238 450 -222 404 -199 L404 -230 C477 -265 649 -276 649 -161 C649 -85 585 -69 514 -69 L511 -69 L529 0 L766 0 C914 0 965 68 965 152 C965 238 914 304 766 304 L270 304 C162 304 131 349 131 406 C131 461 162 507 270 507 L931 507 L931 560 L267 560 C119 560 68 492 68 408 C68 322 119 256 267 256 L763 256 C871 256 902 211 902 154 C902 99 871 53 763 53 L102 53 L102 0 Z " />
<glyph glyph-name="Scaron" unicode="&#x160;" horiz-adv-x="1207" d="M116 0 L890 0 C1064 0 1131 84 1131 189 C1131 295 1064 378 890 378 L318 378 C188 378 145 436 145 509 C145 580 188 640 318 640 L1091 640 L1091 700 L317 700 C143 700 76 616 76 511 C76 405 143 322 317 322 L889 322 C1019 322 1062 264 1062 191 C1062 120 1019 60 889 60 L116 60 L116 0 Z M770 946 L727 946 L604 812 L480 946 L437 946 L563 775 L644 775 L770 946 Z " />
<glyph glyph-name="scaron" unicode="&#x161;" horiz-adv-x="1033" d="M102 0 L766 0 C914 0 965 68 965 152 C965 238 914 304 766 304 L270 304 C162 304 131 349 131 406 C131 461 162 507 270 507 L931 507 L931 560 L267 560 C119 560 68 492 68 408 C68 322 119 256 267 256 L763 256 C871 256 902 211 902 154 C902 99 871 53 763 53 L102 53 L102 0 Z M683 806 L640 806 L517 672 L393 806 L350 806 L476 635 L557 635 L683 806 Z " />
<glyph glyph-name="uni0162" unicode="&#x162;" horiz-adv-x="1184" d="M34 640 L559 640 L559 0 L575 0 L548 -100 L569 -100 C637 -100 675 -114 675 -159 C675 -238 525 -222 479 -199 L479 -230 C552 -265 724 -276 724 -161 C724 -85 660 -69 589 -69 L586 -69 L604 0 L625 0 L625 640 L1150 640 L1150 700 L34 700 L34 640 Z " />
<glyph glyph-name="uni0163" unicode="&#x163;" horiz-adv-x="1042" d="M47 507 L491 507 L491 0 L504 0 L477 -100 L498 -100 C566 -100 604 -114 604 -159 C604 -238 454 -222 408 -199 L408 -230 C481 -265 653 -276 653 -161 C653 -85 589 -69 518 -69 L515 -69 L533 0 L551 0 L551 507 L995 507 L995 560 L47 560 L47 507 Z " />
<glyph glyph-name="Tcaron" unicode="&#x164;" horiz-adv-x="1184" d="M34 640 L559 640 L559 0 L625 0 L625 640 L1150 640 L1150 700 L34 700 L34 640 Z M758 946 L715 946 L592 812 L468 946 L425 946 L551 775 L632 775 L758 946 Z " />
<glyph glyph-name="tcaron" unicode="&#x165;" horiz-adv-x="1042" d="M687 806 L644 806 L521 672 L397 806 L354 806 L480 635 L561 635 L687 806 Z M47 507 L491 507 L491 0 L551 0 L551 507 L995 507 L995 560 L47 560 L47 507 Z " />
<glyph glyph-name="Tbar" unicode="&#x166;" horiz-adv-x="1184" d="M34 640 L559 640 L559 377 L273 377 L273 323 L559 323 L559 0 L625 0 L625 323 L911 323 L911 377 L625 377 L625 640 L1150 640 L1150 700 L34 700 L34 640 Z " />
<glyph glyph-name="tbar" unicode="&#x167;" horiz-adv-x="1042" d="M47 507 L491 507 L491 299 L237 299 L237 253 L491 253 L491 0 L551 0 L551 253 L804 253 L804 299 L551 299 L551 507 L995 507 L995 560 L47 560 L47 507 Z " />
<glyph glyph-name="Utilde" unicode="&#x168;" horiz-adv-x="1275" d="M172 323 L172 700 L106 700 L106 323 C106 130 210 -10 527 -10 L748 -10 C1065 -10 1169 130 1169 323 L1169 700 L1103 700 L1103 323 C1103 164 1019 50 747 50 L528 50 C256 50 172 164 172 323 L172 323 Z M772 927 C765 862 743 852 714 852 C665 852 624 919 559 919 C510 919 476 892 467 794 L502 794 C509 858 531 870 560 870 C608 870 650 803 715 803 C764 803 798 829 807 927 L772 927 Z " />
<glyph glyph-name="utilde" unicode="&#x169;" horiz-adv-x="1096" d="M156 258 L156 560 L96 560 L96 258 C96 104 176 -8 445 -8 L650 -8 C919 -8 1000 104 1000 258 L1000 560 L940 560 L940 258 C940 134 878 45 649 45 L446 45 C218 45 156 134 156 258 L156 258 Z M683 787 C676 722 654 712 625 712 C576 712 535 779 470 779 C421 779 387 752 378 654 L413 654 C420 718 442 730 471 730 C519 730 561 663 626 663 C675 663 709 689 718 787 L683 787 Z " />
<glyph glyph-name="Umacron" unicode="&#x16a;" horiz-adv-x="1275" d="M172 323 L172 700 L106 700 L106 323 C106 130 210 -10 527 -10 L748 -10 C1065 -10 1169 130 1169 323 L1169 700 L1103 700 L1103 323 C1103 164 1019 50 747 50 L528 50 C256 50 172 164 172 323 L172 323 Z M462 838 L814 838 L814 882 L462 882 L462 838 Z " />
<glyph glyph-name="umacron" unicode="&#x16b;" horiz-adv-x="1096" d="M156 258 L156 560 L96 560 L96 258 C96 104 176 -8 445 -8 L650 -8 C919 -8 1000 104 1000 258 L1000 560 L940 560 L940 258 C940 134 878 45 649 45 L446 45 C218 45 156 134 156 258 L156 258 Z M372 698 L724 698 L724 742 L372 742 L372 698 Z " />
<glyph glyph-name="Ubreve" unicode="&#x16c;" horiz-adv-x="1275" d="M172 323 L172 700 L106 700 L106 323 C106 130 210 -10 527 -10 L748 -10 C1065 -10 1169 130 1169 323 L1169 700 L1103 700 L1103 323 C1103 164 1019 50 747 50 L528 50 C256 50 172 164 172 323 L172 323 Z M638 835 C552 835 520 880 515 932 L477 932 C483 863 519 789 638 789 C755 789 792 863 798 932 L760 932 C755 880 724 835 638 835 L638 835 Z " />
<glyph glyph-name="ubreve" unicode="&#x16d;" horiz-adv-x="1096" d="M156 258 L156 560 L96 560 L96 258 C96 104 176 -8 445 -8 L650 -8 C919 -8 1000 104 1000 258 L1000 560 L940 560 L940 258 C940 134 878 45 649 45 L446 45 C218 45 156 134 156 258 L156 258 Z M548 695 C462 695 430 740 425 792 L387 792 C393 723 429 649 548 649 C665 649 702 723 708 792 L670 792 C665 740 634 695 548 695 L548 695 Z " />
<glyph glyph-name="Uring" unicode="&#x16e;" horiz-adv-x="1275" d="M172 323 L172 700 L106 700 L106 323 C106 130 210 -10 527 -10 L748 -10 C1065 -10 1169 130 1169 323 L1169 700 L1103 700 L1103 323 C1103 164 1019 50 747 50 L528 50 C256 50 172 164 172 323 L172 323 Z M566 861 C566 900 598 932 637 932 C677 932 709 900 709 861 C709 821 677 789 637 789 C598 789 566 821 566 861 L566 861 Z M525 861 C525 801 574 752 637 752 C700 752 750 801 750 861 C750 921 700 969 637 969 C574 969 525 921 525 861 L525 861 Z " />
<glyph glyph-name="uring" unicode="&#x16f;" horiz-adv-x="1096" d="M156 258 L156 560 L96 560 L96 258 C96 104 176 -8 445 -8 L650 -8 C919 -8 1000 104 1000 258 L1000 560 L940 560 L940 258 C940 134 878 45 649 45 L446 45 C218 45 156 134 156 258 L156 258 Z M476 721 C476 760 508 792 547 792 C587 792 619 760 619 721 C619 681 587 649 547 649 C508 649 476 681 476 721 L476 721 Z M435 721 C435 661 484 612 547 612 C610 612 660 661 660 721 C660 781 610 829 547 829 C484 829 435 781 435 721 L435 721 Z " />
<glyph glyph-name="Uhungarumlaut" unicode="&#x170;" horiz-adv-x="1275" d="M172 323 L172 700 L106 700 L106 323 C106 130 210 -10 527 -10 L748 -10 C1065 -10 1169 130 1169 323 L1169 700 L1103 700 L1103 323 C1103 164 1019 50 747 50 L528 50 C256 50 172 164 172 323 L172 323 Z M683 775 L726 775 L874 946 L794 946 L683 775 Z M469 775 L512 775 L660 946 L580 946 L469 775 Z " />
<glyph glyph-name="uhungarumlaut" unicode="&#x171;" horiz-adv-x="1096" d="M156 258 L156 560 L96 560 L96 258 C96 104 176 -8 445 -8 L650 -8 C919 -8 1000 104 1000 258 L1000 560 L940 560 L940 258 C940 134 878 45 649 45 L446 45 C218 45 156 134 156 258 L156 258 Z M593 635 L636 635 L784 806 L704 806 L593 635 Z M379 635 L422 635 L570 806 L490 806 L379 635 Z " />
<glyph glyph-name="Uogonek" unicode="&#x172;" horiz-adv-x="1275" d="M677 -160 C677 -214 721 -246 788 -246 C826 -246 859 -240 900 -222 L900 -191 C863 -206 838 -210 810 -210 C764 -210 731 -188 731 -146 C731 -78 802 -28 880 0 C1094 34 1169 160 1169 323 L1169 700 L1103 700 L1103 323 C1103 164 1019 50 747 50 L528 50 C256 50 172 164 172 323 L172 700 L106 700 L106 323 C106 130 210 -10 527 -10 L748 -10 C771 -10 793 -9 814 -7 C746 -34 677 -89 677 -160 L677 -160 Z " />
<glyph glyph-name="uogonek" unicode="&#x173;" horiz-adv-x="1096" d="M559 -160 C559 -214 603 -246 670 -246 C708 -246 741 -240 782 -222 L782 -191 C745 -206 720 -210 692 -210 C646 -210 613 -188 613 -146 C613 -78 685 -28 761 0 C942 28 1000 128 1000 258 L1000 560 L940 560 L940 258 C940 134 878 45 649 45 L446 45 C218 45 156 134 156 258 L156 560 L96 560 L96 258 C96 104 176 -8 445 -8 L650 -8 C667 -8 684 -7 699 -6 C630 -33 559 -88 559 -160 L559 -160 Z " />
<glyph glyph-name="Wcircumflex" unicode="&#x174;" horiz-adv-x="1618" d="M809 619 L1151 0 L1201 0 L1592 700 L1513 700 L1176 82 L834 700 L784 700 L442 82 L105 700 L26 700 L417 0 L467 0 L809 619 Z M849 946 L768 946 L642 775 L685 775 L809 909 L932 775 L975 775 L849 946 Z " />
<glyph glyph-name="wcircumflex" unicode="&#x175;" horiz-adv-x="1384" d="M692 488 L980 0 L1026 0 L1358 560 L1286 560 L1002 72 L715 560 L669 560 L383 72 L98 560 L26 560 L359 0 L404 0 L692 488 Z M732 806 L651 806 L525 635 L568 635 L692 769 L815 635 L858 635 L732 806 Z " />
<glyph glyph-name="Ycircumflex" unicode="&#x176;" horiz-adv-x="1245" d="M589 0 L655 0 L655 211 L1241 700 L1142 700 L622 263 L102 700 L4 700 L589 211 L589 0 Z M663 946 L582 946 L456 775 L499 775 L623 909 L746 775 L789 775 L663 946 Z " />
<glyph glyph-name="ycircumflex" unicode="&#x177;" horiz-adv-x="1060" d="M500 0 L561 0 L561 170 L1056 560 L967 560 L530 215 L93 560 L4 560 L500 170 L500 0 Z M570 806 L489 806 L363 635 L406 635 L530 769 L653 635 L696 635 L570 806 Z " />
<glyph glyph-name="Ydieresis" unicode="&#x178;" horiz-adv-x="1245" d="M589 0 L655 0 L655 211 L1241 700 L1142 700 L622 263 L102 700 L4 700 L589 211 L589 0 Z M713 823 L787 823 L787 897 L713 897 L713 823 Z M457 823 L531 823 L531 897 L457 897 L457 823 Z " />
<glyph glyph-name="Zacute" unicode="&#x179;" horiz-adv-x="1193" d="M76 0 L1127 0 L1127 60 L201 60 L1107 652 L1107 700 L86 700 L86 640 L981 640 L76 48 L76 0 Z M535 775 L578 775 L726 946 L646 946 L535 775 Z " />
<glyph glyph-name="zacute" unicode="&#x17a;" horiz-adv-x="1023" d="M69 0 L964 0 L964 53 L184 53 L947 518 L947 560 L78 560 L78 507 L831 507 L69 42 L69 0 Z M450 635 L493 635 L641 806 L561 806 L450 635 Z " />
<glyph glyph-name="Zdotaccent" unicode="&#x17b;" horiz-adv-x="1193" d="M76 0 L1127 0 L1127 60 L201 60 L1107 652 L1107 700 L86 700 L86 640 L981 640 L76 48 L76 0 Z M559 823 L633 823 L633 897 L559 897 L559 823 Z " />
<glyph glyph-name="zdotaccent" unicode="&#x17c;" horiz-adv-x="1023" d="M69 0 L964 0 L964 53 L184 53 L947 518 L947 560 L78 560 L78 507 L831 507 L69 42 L69 0 Z M474 683 L548 683 L548 757 L474 757 L474 683 Z " />
<glyph glyph-name="Zcaron" unicode="&#x17d;" horiz-adv-x="1193" d="M76 0 L1127 0 L1127 60 L201 60 L1107 652 L1107 700 L86 700 L86 640 L981 640 L76 48 L76 0 Z M763 946 L720 946 L597 812 L473 946 L430 946 L556 775 L637 775 L763 946 Z " />
<glyph glyph-name="zcaron" unicode="&#x17e;" horiz-adv-x="1023" d="M69 0 L964 0 L964 53 L184 53 L947 518 L947 560 L78 560 L78 507 L831 507 L69 42 L69 0 Z M678 806 L635 806 L512 672 L388 806 L345 806 L471 635 L552 635 L678 806 Z " />
<glyph glyph-name="uni0186" unicode="&#x186;" horiz-adv-x="1184" d="M1035 350 C1035 190 937 60 663 60 L84 60 L84 0 L664 0 C981 0 1105 157 1105 350 C1105 543 981 700 664 700 L84 700 L84 640 L663 640 C937 640 1035 510 1035 350 L1035 350 Z " />
<glyph glyph-name="uni0189" unicode="&#x189;" horiz-adv-x="1255" d="M-4 322 L126 322 L126 0 L735 0 C1052 0 1176 157 1176 350 C1176 543 1052 700 735 700 L126 700 L126 378 L-4 378 L-4 322 Z M734 640 C1008 640 1106 510 1106 350 C1106 190 1008 60 734 60 L192 60 L192 322 L634 322 L634 378 L192 378 L192 640 L734 640 Z " />
<glyph glyph-name="uni018E" unicode="&#x18e;" horiz-adv-x="1199" d="M1073 700 L84 700 L84 640 L1007 640 L1007 378 L186 378 L186 322 L1007 322 L1007 60 L84 60 L84 0 L1073 0 L1073 700 Z " />
<glyph glyph-name="florin" unicode="&#x192;" horiz-adv-x="1298" d="M512 91 C501 -23 445 -100 267 -100 L183 -100 L183 -160 L267 -160 C483 -160 563 -59 578 88 L602 321 L928 321 L928 377 L608 377 L616 449 C628 553 699 640 880 640 L1125 640 L1125 700 L882 700 C658 700 564 589 550 452 L542 377 L302 377 L302 321 L536 321 L512 91 Z " />
<glyph glyph-name="Ohorn" unicode="&#x1a0;" horiz-adv-x="1348" d="M815 -10 C1141 -10 1269 151 1269 350 C1269 483 1212 598 1077 661 L1190 661 C1285 661 1352 681 1352 777 C1352 792 1350 808 1347 826 L1284 826 C1287 809 1288 794 1288 782 C1288 713 1247 700 1176 700 L945 700 C905 706 862 710 815 710 L533 710 C207 710 79 549 79 350 C79 151 207 -10 533 -10 L815 -10 Z M534 50 C251 50 149 184 149 350 C149 516 251 650 534 650 L814 650 C1097 650 1199 516 1199 350 C1199 184 1097 50 814 50 L534 50 Z " />
<glyph glyph-name="ohorn" unicode="&#x1a1;" horiz-adv-x="1156" d="M706 -8 C983 -8 1084 121 1084 280 C1084 380 1043 469 943 521 L998 521 C1093 521 1160 541 1160 637 C1160 652 1158 668 1155 686 L1092 686 C1095 669 1096 654 1096 642 C1096 573 1055 560 984 560 L815 560 C782 565 746 568 706 568 L450 568 C173 568 72 439 72 280 C72 121 173 -8 450 -8 L706 -8 Z M451 45 C213 45 135 150 135 280 C135 410 213 515 451 515 L705 515 C944 515 1020 410 1020 280 C1020 150 944 45 705 45 L451 45 Z " />
<glyph glyph-name="uni01A7" unicode="&#x1a7;" horiz-adv-x="1207" d="M1091 60 L318 60 C188 60 145 120 145 191 C145 264 188 322 318 322 L890 322 C1064 322 1131 405 1131 511 C1131 616 1064 700 890 700 L116 700 L116 640 L889 640 C1019 640 1062 580 1062 509 C1062 436 1019 378 889 378 L317 378 C143 378 76 295 76 189 C76 84 143 0 317 0 L1091 0 L1091 60 Z " />
<glyph glyph-name="uni01A8" unicode="&#x1a8;" horiz-adv-x="1033" d="M931 53 L270 53 C162 53 131 99 131 154 C131 211 162 256 270 256 L766 256 C914 256 965 322 965 408 C965 492 914 560 766 560 L102 560 L102 507 L763 507 C871 507 902 461 902 406 C902 349 871 304 763 304 L267 304 C119 304 68 238 68 152 C68 68 119 0 267 0 L931 0 L931 53 Z " />
<glyph glyph-name="Uhorn" unicode="&#x1af;" horiz-adv-x="1424" d="M172 323 L172 700 L106 700 L106 323 C106 130 210 -10 527 -10 L748 -10 C1065 -10 1169 130 1169 323 L1169 661 L1261 661 C1356 661 1423 681 1423 777 C1423 792 1421 808 1418 826 L1355 826 C1358 809 1359 794 1359 782 C1359 713 1318 700 1247 700 L1103 700 L1103 323 C1103 164 1019 50 747 50 L528 50 C256 50 172 164 172 323 L172 323 Z " />
<glyph glyph-name="uhorn" unicode="&#x1b0;" horiz-adv-x="1255" d="M156 258 L156 560 L96 560 L96 258 C96 104 176 -8 445 -8 L650 -8 C919 -8 1000 104 1000 258 L1000 521 L1092 521 C1187 521 1254 541 1254 637 C1254 652 1252 668 1249 686 L1186 686 C1189 669 1190 654 1190 642 C1190 573 1149 560 1078 560 L940 560 L940 258 C940 134 878 45 649 45 L446 45 C218 45 156 134 156 258 L156 258 Z " />
<glyph glyph-name="uni01B1" unicode="&#x1b1;" horiz-adv-x="1356" d="M851 649 C1097 604 1189 468 1189 323 C1189 172 1097 50 839 50 L517 50 C259 50 167 172 167 323 C167 469 259 604 505 649 L505 700 L73 700 L73 640 L342 640 C171 574 103 443 103 309 C103 133 217 -10 506 -10 L850 -10 C1139 -10 1253 133 1253 309 C1253 443 1183 574 1014 640 L1283 640 L1283 700 L851 700 L851 649 Z " />
<glyph glyph-name="uni01C0" unicode="&#x1c0;" horiz-adv-x="310" d="M184 800 L126 800 L126 -100 L184 -100 L184 800 Z " />
<glyph glyph-name="uni01C1" unicode="&#x1c1;" horiz-adv-x="598" d="M184 800 L126 800 L126 -100 L184 -100 L184 800 Z M472 800 L414 800 L414 -100 L472 -100 L472 800 Z " />
<glyph glyph-name="uni01C2" unicode="&#x1c2;" horiz-adv-x="740" d="M399 166 L694 166 L694 218 L399 218 L399 482 L694 482 L694 534 L399 534 L399 800 L341 800 L341 534 L46 534 L46 482 L341 482 L341 218 L46 218 L46 166 L341 166 L341 -100 L399 -100 L399 166 Z " />
<glyph glyph-name="uni01C3" unicode="&#x1c3;" horiz-adv-x="321" d="M120 0 L200 0 L200 80 L120 80 L120 0 Z M131 148 L190 148 L194 700 L127 700 L131 148 Z " />
<glyph glyph-name="uni01C4" unicode="&#x1c4;" horiz-adv-x="2448" d="M126 0 L735 0 C1052 0 1176 157 1176 350 C1176 543 1052 700 735 700 L126 700 L126 0 Z M734 640 C1008 640 1106 510 1106 350 C1106 190 1008 60 734 60 L192 60 L192 640 L734 640 Z M1331 0 L2382 0 L2382 60 L1456 60 L2362 652 L2362 700 L1341 700 L1341 640 L2236 640 L1331 48 L1331 0 Z M2018 946 L1975 946 L1852 812 L1728 946 L1685 946 L1811 775 L1892 775 L2018 946 Z " />
<glyph glyph-name="uni01C5" unicode="&#x1c5;" horiz-adv-x="2278" d="M126 0 L735 0 C1052 0 1176 157 1176 350 C1176 543 1052 700 735 700 L126 700 L126 0 Z M734 640 C1008 640 1106 510 1106 350 C1106 190 1008 60 734 60 L192 60 L192 640 L734 640 Z M1324 0 L2219 0 L2219 53 L1439 53 L2202 518 L2202 560 L1333 560 L1333 507 L2086 507 L1324 42 L1324 0 Z M1933 806 L1890 806 L1767 672 L1643 806 L1600 806 L1726 635 L1807 635 L1933 806 Z " />
<glyph glyph-name="uni01C6" unicode="&#x1c6;" horiz-adv-x="2104" d="M116 0 L642 0 C912 0 1009 126 1009 280 C1009 434 912 560 642 560 L116 560 L116 0 Z M642 507 C872 507 945 405 945 280 C945 155 872 53 642 53 L176 53 L176 507 L642 507 Z M1150 0 L2045 0 L2045 53 L1265 53 L2028 518 L2028 560 L1159 560 L1159 507 L1912 507 L1150 42 L1150 0 Z M1759 806 L1716 806 L1593 672 L1469 806 L1426 806 L1552 635 L1633 635 L1759 806 Z " />
<glyph glyph-name="uni01C7" unicode="&#x1c7;" horiz-adv-x="2340" d="M192 700 L126 700 L126 0 L1095 0 L1095 60 L192 60 L192 700 Z M1518 -5 L1813 -5 C2130 -5 2234 132 2234 325 L2234 700 L2168 700 L2168 325 C2168 166 2084 55 1812 55 L1519 55 C1309 55 1241 153 1241 275 L1241 318 L1175 318 L1175 275 C1175 121 1264 -5 1518 -5 L1518 -5 Z " />
<glyph glyph-name="uni01C8" unicode="&#x1c8;" horiz-adv-x="2172" d="M192 700 L126 700 L126 0 L1095 0 L1095 60 L192 60 L192 700 Z M1461 -4 L1726 -4 C1996 -4 2076 106 2076 260 L2076 560 L2016 560 L2016 260 C2016 136 1954 49 1726 49 L1462 49 C1286 49 1235 125 1235 220 L1235 256 L1175 256 L1175 220 C1175 97 1245 -4 1461 -4 L1461 -4 Z " />
<glyph glyph-name="uni01C9" unicode="&#x1c9;" horiz-adv-x="2030" d="M176 560 L116 560 L116 0 L940 0 L940 53 L176 53 L176 560 Z M1319 -4 L1584 -4 C1854 -4 1934 106 1934 260 L1934 560 L1874 560 L1874 260 C1874 136 1812 49 1584 49 L1320 49 C1144 49 1093 125 1093 220 L1093 256 L1033 256 L1033 220 C1033 97 1103 -4 1319 -4 L1319 -4 Z " />
<glyph glyph-name="uni01CA" unicode="&#x1ca;" horiz-adv-x="2515" d="M1115 0 L1178 0 L1178 700 L1112 700 L1112 77 L189 700 L126 700 L126 0 L192 0 L192 623 L1115 0 Z M1693 -5 L1988 -5 C2305 -5 2409 132 2409 325 L2409 700 L2343 700 L2343 325 C2343 166 2259 55 1987 55 L1694 55 C1484 55 1416 153 1416 275 L1416 318 L1350 318 L1350 275 C1350 121 1439 -5 1693 -5 L1693 -5 Z " />
<glyph glyph-name="uni01CB" unicode="&#x1cb;" horiz-adv-x="2347" d="M1115 0 L1178 0 L1178 700 L1112 700 L1112 77 L189 700 L126 700 L126 0 L192 0 L192 623 L1115 0 Z M1636 -4 L1901 -4 C2171 -4 2251 106 2251 260 L2251 560 L2191 560 L2191 260 C2191 136 2129 49 1901 49 L1637 49 C1461 49 1410 125 1410 220 L1410 256 L1350 256 L1350 220 C1350 97 1420 -4 1636 -4 L1636 -4 Z " />
<glyph glyph-name="uni01CC" unicode="&#x1cc;" horiz-adv-x="2170" d="M1011 0 L1011 560 L951 560 L951 68 L173 560 L116 560 L116 0 L176 0 L176 492 L954 0 L1011 0 Z M1459 -4 L1724 -4 C1994 -4 2074 106 2074 260 L2074 560 L2014 560 L2014 260 C2014 136 1952 49 1724 49 L1460 49 C1284 49 1233 125 1233 220 L1233 256 L1173 256 L1173 220 C1173 97 1243 -4 1459 -4 L1459 -4 Z " />
<glyph glyph-name="uni01CD" unicode="&#x1cd;" horiz-adv-x="1266" d="M1170 0 L1252 0 L669 700 L597 700 L14 0 L96 0 L215 144 L1050 144 L1170 0 Z M633 646 L1003 200 L262 200 L633 646 Z M799 946 L756 946 L633 812 L509 946 L466 946 L592 775 L673 775 L799 946 Z " />
<glyph glyph-name="uni01CE" unicode="&#x1ce;" horiz-adv-x="1084" d="M994 0 L1069 0 L575 560 L509 560 L15 0 L90 0 L195 119 L889 119 L994 0 Z M542 511 L846 167 L238 167 L542 511 Z M708 806 L665 806 L542 672 L418 806 L375 806 L501 635 L582 635 L708 806 Z " />
<glyph glyph-name="uni01CF" unicode="&#x1cf;" horiz-adv-x="318" d="M126 0 L192 0 L192 700 L126 700 L126 0 Z M326 946 L283 946 L160 812 L36 946 L-7 946 L119 775 L200 775 L326 946 Z " />
<glyph glyph-name="uni01D0" unicode="&#x1d0;" horiz-adv-x="292" d="M116 0 L176 0 L176 560 L116 560 L116 0 Z M313 806 L270 806 L147 672 L23 806 L-20 806 L106 635 L187 635 L313 806 Z " />
<glyph glyph-name="uni01D1" unicode="&#x1d1;" horiz-adv-x="1348" d="M815 -10 C1141 -10 1269 151 1269 350 C1269 549 1141 710 815 710 L533 710 C207 710 79 549 79 350 C79 151 207 -10 533 -10 L815 -10 Z M534 50 C251 50 149 184 149 350 C149 516 251 650 534 650 L814 650 C1097 650 1199 516 1199 350 C1199 184 1097 50 814 50 L534 50 Z M840 946 L797 946 L674 812 L550 946 L507 946 L633 775 L714 775 L840 946 Z " />
<glyph glyph-name="uni01D2" unicode="&#x1d2;" horiz-adv-x="1156" d="M706 -8 C983 -8 1084 121 1084 280 C1084 439 983 568 706 568 L450 568 C173 568 72 439 72 280 C72 121 173 -8 450 -8 L706 -8 Z M451 45 C213 45 135 150 135 280 C135 410 213 515 451 515 L705 515 C944 515 1020 410 1020 280 C1020 150 944 45 705 45 L451 45 Z M744 806 L701 806 L578 672 L454 806 L411 806 L537 635 L618 635 L744 806 Z " />
<glyph glyph-name="uni01D3" unicode="&#x1d3;" horiz-adv-x="1275" d="M172 323 L172 700 L106 700 L106 323 C106 130 210 -10 527 -10 L748 -10 C1065 -10 1169 130 1169 323 L1169 700 L1103 700 L1103 323 C1103 164 1019 50 747 50 L528 50 C256 50 172 164 172 323 L172 323 Z M804 946 L761 946 L638 812 L514 946 L471 946 L597 775 L678 775 L804 946 Z " />
<glyph glyph-name="uni01D4" unicode="&#x1d4;" horiz-adv-x="1096" d="M156 258 L156 560 L96 560 L96 258 C96 104 176 -8 445 -8 L650 -8 C919 -8 1000 104 1000 258 L1000 560 L940 560 L940 258 C940 134 878 45 649 45 L446 45 C218 45 156 134 156 258 L156 258 Z M714 806 L671 806 L548 672 L424 806 L381 806 L507 635 L588 635 L714 806 Z " />
<glyph glyph-name="uni01D5" unicode="&#x1d5;" horiz-adv-x="1275" d="M729 823 L803 823 L803 897 L729 897 L729 823 Z M473 823 L547 823 L547 897 L473 897 L473 823 Z M462 998 L814 998 L814 1042 L462 1042 L462 998 Z M172 323 L172 700 L106 700 L106 323 C106 130 210 -10 527 -10 L748 -10 C1065 -10 1169 130 1169 323 L1169 700 L1103 700 L1103 323 C1103 164 1019 50 747 50 L528 50 C256 50 172 164 172 323 L172 323 Z " />
<glyph glyph-name="uni01D6" unicode="&#x1d6;" horiz-adv-x="1096" d="M639 683 L713 683 L713 757 L639 757 L639 683 Z M383 683 L457 683 L457 757 L383 757 L383 683 Z M372 858 L724 858 L724 902 L372 902 L372 858 Z M156 258 L156 560 L96 560 L96 258 C96 104 176 -8 445 -8 L650 -8 C919 -8 1000 104 1000 258 L1000 560 L940 560 L940 258 C940 134 878 45 649 45 L446 45 C218 45 156 134 156 258 L156 258 Z " />
<glyph glyph-name="uni01D7" unicode="&#x1d7;" horiz-adv-x="1275" d="M172 323 L172 700 L106 700 L106 323 C106 130 210 -10 527 -10 L748 -10 C1065 -10 1169 130 1169 323 L1169 700 L1103 700 L1103 323 C1103 164 1019 50 747 50 L528 50 C256 50 172 164 172 323 L172 323 Z M729 823 L803 823 L803 897 L729 897 L729 823 Z M473 823 L547 823 L547 897 L473 897 L473 823 Z M576 953 L619 953 L767 1124 L687 1124 L576 953 Z " />
<glyph glyph-name="uni01D8" unicode="&#x1d8;" horiz-adv-x="1096" d="M156 258 L156 560 L96 560 L96 258 C96 104 176 -8 445 -8 L650 -8 C919 -8 1000 104 1000 258 L1000 560 L940 560 L940 258 C940 134 878 45 649 45 L446 45 C218 45 156 134 156 258 L156 258 Z M639 683 L713 683 L713 757 L639 757 L639 683 Z M383 683 L457 683 L457 757 L383 757 L383 683 Z M486 813 L529 813 L677 984 L597 984 L486 813 Z " />
<glyph glyph-name="uni01D9" unicode="&#x1d9;" horiz-adv-x="1275" d="M172 323 L172 700 L106 700 L106 323 C106 130 210 -10 527 -10 L748 -10 C1065 -10 1169 130 1169 323 L1169 700 L1103 700 L1103 323 C1103 164 1019 50 747 50 L528 50 C256 50 172 164 172 323 L172 323 Z M729 823 L803 823 L803 897 L729 897 L729 823 Z M473 823 L547 823 L547 897 L473 897 L473 823 Z M804 1124 L761 1124 L638 990 L514 1124 L471 1124 L597 953 L678 953 L804 1124 Z " />
<glyph glyph-name="uni01DA" unicode="&#x1da;" horiz-adv-x="1096" d="M156 258 L156 560 L96 560 L96 258 C96 104 176 -8 445 -8 L650 -8 C919 -8 1000 104 1000 258 L1000 560 L940 560 L940 258 C940 134 878 45 649 45 L446 45 C218 45 156 134 156 258 L156 258 Z M639 683 L713 683 L713 757 L639 757 L639 683 Z M383 683 L457 683 L457 757 L383 757 L383 683 Z M714 984 L671 984 L548 850 L424 984 L381 984 L507 813 L588 813 L714 984 Z " />
<glyph glyph-name="uni01DB" unicode="&#x1db;" horiz-adv-x="1275" d="M172 323 L172 700 L106 700 L106 323 C106 130 210 -10 527 -10 L748 -10 C1065 -10 1169 130 1169 323 L1169 700 L1103 700 L1103 323 C1103 164 1019 50 747 50 L528 50 C256 50 172 164 172 323 L172 323 Z M729 823 L803 823 L803 897 L729 897 L729 823 Z M473 823 L547 823 L547 897 L473 897 L473 823 Z M588 1124 L508 1124 L656 953 L699 953 L588 1124 Z " />
<glyph glyph-name="uni01DC" unicode="&#x1dc;" horiz-adv-x="1096" d="M156 258 L156 560 L96 560 L96 258 C96 104 176 -8 445 -8 L650 -8 C919 -8 1000 104 1000 258 L1000 560 L940 560 L940 258 C940 134 878 45 649 45 L446 45 C218 45 156 134 156 258 L156 258 Z M639 683 L713 683 L713 757 L639 757 L639 683 Z M383 683 L457 683 L457 757 L383 757 L383 683 Z M498 984 L418 984 L566 813 L609 813 L498 984 Z " />
<glyph glyph-name="uni01DD" unicode="&#x1dd;" horiz-adv-x="1034" d="M918 560 L77 560 L77 507 L858 507 L858 304 L164 304 L164 256 L858 256 L858 53 L77 53 L77 0 L918 0 L918 560 Z " />
<glyph glyph-name="uni01DE" unicode="&#x1de;" horiz-adv-x="1266" d="M724 823 L798 823 L798 897 L724 897 L724 823 Z M468 823 L542 823 L542 897 L468 897 L468 823 Z M457 998 L809 998 L809 1042 L457 1042 L457 998 Z M1170 0 L1252 0 L669 700 L597 700 L14 0 L96 0 L215 144 L1050 144 L1170 0 Z M633 646 L1003 200 L262 200 L633 646 Z " />
<glyph glyph-name="uni01DF" unicode="&#x1df;" horiz-adv-x="1084" d="M633 683 L707 683 L707 757 L633 757 L633 683 Z M377 683 L451 683 L451 757 L377 757 L377 683 Z M366 858 L718 858 L718 902 L366 902 L366 858 Z M994 0 L1069 0 L575 560 L509 560 L15 0 L90 0 L195 119 L889 119 L994 0 Z M542 511 L846 167 L238 167 L542 511 Z " />
<glyph glyph-name="uni01E0" unicode="&#x1e0;" horiz-adv-x="1266" d="M596 823 L670 823 L670 897 L596 897 L596 823 Z M457 998 L809 998 L809 1042 L457 1042 L457 998 Z M1170 0 L1252 0 L669 700 L597 700 L14 0 L96 0 L215 144 L1050 144 L1170 0 Z M633 646 L1003 200 L262 200 L633 646 Z " />
<glyph glyph-name="uni01E1" unicode="&#x1e1;" horiz-adv-x="1084" d="M505 683 L579 683 L579 757 L505 757 L505 683 Z M366 858 L718 858 L718 902 L366 902 L366 858 Z M994 0 L1069 0 L575 560 L509 560 L15 0 L90 0 L195 119 L889 119 L994 0 Z M542 511 L846 167 L238 167 L542 511 Z " />
<glyph glyph-name="uni01E2" unicode="&#x1e2;" horiz-adv-x="1701" d="M733 143 L733 0 L1617 0 L1617 60 L799 60 L799 322 L1515 322 L1515 378 L799 378 L799 640 L1617 640 L1617 700 L697 700 L14 0 L97 0 L236 143 L733 143 Z M733 653 L733 199 L291 199 L733 653 Z M796 838 L1148 838 L1148 882 L796 882 L796 838 Z " />
<glyph glyph-name="uni01E3" unicode="&#x1e3;" horiz-adv-x="1456" d="M627 113 L627 0 L1379 0 L1379 53 L687 53 L687 256 L1292 256 L1292 304 L687 304 L687 507 L1379 507 L1379 560 L594 560 L15 0 L91 0 L208 113 L627 113 Z M627 516 L627 161 L258 161 L627 516 Z M685 698 L1037 698 L1037 742 L685 742 L685 698 Z " />
<glyph glyph-name="Gcaron" unicode="&#x1e6;" horiz-adv-x="1256" d="M668 322 L1090 322 L1090 60 L521 60 C247 60 149 190 149 350 C149 510 247 640 521 640 L1100 640 L1100 700 L520 700 C203 700 79 543 79 350 C79 157 203 0 520 0 L1155 0 L1155 378 L668 378 L668 322 Z M818 946 L775 946 L652 812 L528 946 L485 946 L611 775 L692 775 L818 946 Z " />
<glyph glyph-name="gcaron" unicode="&#x1e7;" horiz-adv-x="1081" d="M572 256 L928 256 L928 53 L439 53 C209 53 136 155 136 280 C136 405 209 507 439 507 L940 507 L940 560 L439 560 C169 560 72 434 72 280 C72 126 169 0 439 0 L987 0 L987 304 L572 304 L572 256 Z M718 806 L675 806 L552 672 L428 806 L385 806 L511 635 L592 635 L718 806 Z " />
<glyph glyph-name="uni01E8" unicode="&#x1e8;" horiz-adv-x="1286" d="M1186 700 L1068 700 L192 212 L192 700 L126 700 L126 0 L192 0 L192 146 L543 341 L1160 0 L1277 0 L604 376 L1186 700 Z M769 946 L726 946 L603 812 L479 946 L436 946 L562 775 L643 775 L769 946 Z " />
<glyph glyph-name="uni01E9" unicode="&#x1e9;" horiz-adv-x="1110" d="M1024 560 L912 560 L176 175 L176 560 L116 560 L116 0 L176 0 L176 115 L474 271 L987 0 L1096 0 L529 300 L1024 560 Z M686 806 L643 806 L520 672 L396 806 L353 806 L479 635 L560 635 L686 806 Z " />
<glyph glyph-name="uni01EA" unicode="&#x1ea;" horiz-adv-x="1348" d="M741 -160 C741 -214 785 -246 852 -246 C890 -246 923 -240 964 -222 L964 -191 C927 -206 902 -210 874 -210 C828 -210 795 -188 795 -146 C795 -78 867 -28 945 0 C1175 38 1269 180 1269 350 C1269 549 1141 710 815 710 L533 710 C207 710 79 549 79 350 C79 151 207 -10 533 -10 L815 -10 C836 -10 857 -9 877 -8 C810 -35 741 -90 741 -160 L741 -160 Z M534 50 C251 50 149 184 149 350 C149 516 251 650 534 650 L814 650 C1097 650 1199 516 1199 350 C1199 184 1097 50 814 50 L534 50 Z " />
<glyph glyph-name="uni01EB" unicode="&#x1eb;" horiz-adv-x="1156" d="M612 -160 C612 -214 656 -246 723 -246 C761 -246 794 -240 835 -222 L835 -191 C798 -206 773 -210 745 -210 C699 -210 666 -188 666 -146 C666 -78 738 -28 815 0 C1010 30 1084 144 1084 280 C1084 439 983 568 706 568 L450 568 C173 568 72 439 72 280 C72 121 173 -8 450 -8 L706 -8 C722 -8 737 -7 752 -6 C683 -33 612 -88 612 -160 L612 -160 Z M451 45 C213 45 135 150 135 280 C135 410 213 515 451 515 L705 515 C944 515 1020 410 1020 280 C1020 150 944 45 705 45 L451 45 Z " />
<glyph glyph-name="uni01EC" unicode="&#x1ec;" horiz-adv-x="1348" d="M741 -160 C741 -214 785 -246 852 -246 C890 -246 923 -240 964 -222 L964 -191 C927 -206 902 -210 874 -210 C828 -210 795 -188 795 -146 C795 -78 867 -28 945 0 C1175 38 1269 180 1269 350 C1269 549 1141 710 815 710 L533 710 C207 710 79 549 79 350 C79 151 207 -10 533 -10 L815 -10 C836 -10 857 -9 877 -8 C810 -35 741 -90 741 -160 L741 -160 Z M534 50 C251 50 149 184 149 350 C149 516 251 650 534 650 L814 650 C1097 650 1199 516 1199 350 C1199 184 1097 50 814 50 L534 50 Z M498 838 L850 838 L850 882 L498 882 L498 838 Z " />
<glyph glyph-name="uni01ED" unicode="&#x1ed;" horiz-adv-x="1156" d="M612 -160 C612 -214 656 -246 723 -246 C761 -246 794 -240 835 -222 L835 -191 C798 -206 773 -210 745 -210 C699 -210 666 -188 666 -146 C666 -78 738 -28 815 0 C1010 30 1084 144 1084 280 C1084 439 983 568 706 568 L450 568 C173 568 72 439 72 280 C72 121 173 -8 450 -8 L706 -8 C722 -8 737 -7 752 -6 C683 -33 612 -88 612 -160 L612 -160 Z M451 45 C213 45 135 150 135 280 C135 410 213 515 451 515 L705 515 C944 515 1020 410 1020 280 C1020 150 944 45 705 45 L451 45 Z M402 698 L754 698 L754 742 L402 742 L402 698 Z " />
<glyph glyph-name="uni01F0" unicode="&#x1f0;" horiz-adv-x="1043" d="M332 -4 L597 -4 C867 -4 947 106 947 260 L947 560 L887 560 L887 260 C887 136 825 49 597 49 L333 49 C157 49 106 125 106 220 L106 256 L46 256 L46 220 C46 97 116 -4 332 -4 L332 -4 Z M1054 806 L1011 806 L888 672 L764 806 L721 806 L847 635 L928 635 L1054 806 Z " />
<glyph glyph-name="uni01F1" unicode="&#x1f1;" horiz-adv-x="2448" d="M126 0 L735 0 C1052 0 1176 157 1176 350 C1176 543 1052 700 735 700 L126 700 L126 0 Z M734 640 C1008 640 1106 510 1106 350 C1106 190 1008 60 734 60 L192 60 L192 640 L734 640 Z M1331 0 L2382 0 L2382 60 L1456 60 L2362 652 L2362 700 L1341 700 L1341 640 L2236 640 L1331 48 L1331 0 Z " />
<glyph glyph-name="uni01F2" unicode="&#x1f2;" horiz-adv-x="2278" d="M126 0 L735 0 C1052 0 1176 157 1176 350 C1176 543 1052 700 735 700 L126 700 L126 0 Z M734 640 C1008 640 1106 510 1106 350 C1106 190 1008 60 734 60 L192 60 L192 640 L734 640 Z M1324 0 L2219 0 L2219 53 L1439 53 L2202 518 L2202 560 L1333 560 L1333 507 L2086 507 L1324 42 L1324 0 Z " />
<glyph glyph-name="uni01F3" unicode="&#x1f3;" horiz-adv-x="2104" d="M116 0 L642 0 C912 0 1009 126 1009 280 C1009 434 912 560 642 560 L116 560 L116 0 Z M642 507 C872 507 945 405 945 280 C945 155 872 53 642 53 L176 53 L176 507 L642 507 Z M1150 0 L2045 0 L2045 53 L1265 53 L2028 518 L2028 560 L1159 560 L1159 507 L1912 507 L1150 42 L1150 0 Z " />
<glyph glyph-name="uni01F4" unicode="&#x1f4;" horiz-adv-x="1256" d="M668 322 L1090 322 L1090 60 L521 60 C247 60 149 190 149 350 C149 510 247 640 521 640 L1100 640 L1100 700 L520 700 C203 700 79 543 79 350 C79 157 203 0 520 0 L1155 0 L1155 378 L668 378 L668 322 Z M590 775 L633 775 L781 946 L701 946 L590 775 Z " />
<glyph glyph-name="uni01F5" unicode="&#x1f5;" horiz-adv-x="1081" d="M572 256 L928 256 L928 53 L439 53 C209 53 136 155 136 280 C136 405 209 507 439 507 L940 507 L940 560 L439 560 C169 560 72 434 72 280 C72 126 169 0 439 0 L987 0 L987 304 L572 304 L572 256 Z M490 635 L533 635 L681 806 L601 806 L490 635 Z " />
<glyph glyph-name="uni01F8" unicode="&#x1f8;" horiz-adv-x="1304" d="M1115 0 L1178 0 L1178 700 L1112 700 L1112 77 L189 700 L126 700 L126 0 L192 0 L192 623 L1115 0 Z M602 946 L522 946 L670 775 L713 775 L602 946 Z " />
<glyph glyph-name="uni01F9" unicode="&#x1f9;" horiz-adv-x="1127" d="M1011 0 L1011 560 L951 560 L951 68 L173 560 L116 560 L116 0 L176 0 L176 492 L954 0 L1011 0 Z M514 806 L434 806 L582 635 L625 635 L514 806 Z " />
<glyph glyph-name="Aringacute" unicode="&#x1fa;" horiz-adv-x="1266" d="M1170 0 L1252 0 L669 700 L597 700 L14 0 L96 0 L215 144 L1050 144 L1170 0 Z M633 646 L1003 200 L262 200 L633 646 Z M561 861 C561 900 593 932 632 932 C672 932 704 900 704 861 C704 821 672 789 632 789 C593 789 561 821 561 861 L561 861 Z M520 861 C520 801 569 752 632 752 C695 752 745 801 745 861 C745 921 695 969 632 969 C569 969 520 921 520 861 L520 861 Z M571 997 L614 997 L762 1168 L682 1168 L571 997 Z " />
<glyph glyph-name="aringacute" unicode="&#x1fb;" horiz-adv-x="1084" d="M994 0 L1069 0 L575 560 L509 560 L15 0 L90 0 L195 119 L889 119 L994 0 Z M542 511 L846 167 L238 167 L542 511 Z M470 721 C470 760 502 792 541 792 C581 792 613 760 613 721 C613 681 581 649 541 649 C502 649 470 681 470 721 L470 721 Z M429 721 C429 661 478 612 541 612 C604 612 654 661 654 721 C654 781 604 829 541 829 C478 829 429 781 429 721 L429 721 Z M480 857 L523 857 L671 1028 L591 1028 L480 857 Z " />
<glyph glyph-name="AEacute" unicode="&#x1fc;" horiz-adv-x="1701" d="M733 143 L733 0 L1617 0 L1617 60 L799 60 L799 322 L1515 322 L1515 378 L799 378 L799 640 L1617 640 L1617 700 L697 700 L14 0 L97 0 L236 143 L733 143 Z M733 653 L733 199 L291 199 L733 653 Z M910 775 L953 775 L1101 946 L1021 946 L910 775 Z " />
<glyph glyph-name="aeacute" unicode="&#x1fd;" horiz-adv-x="1456" d="M627 113 L627 0 L1379 0 L1379 53 L687 53 L687 256 L1292 256 L1292 304 L687 304 L687 507 L1379 507 L1379 560 L594 560 L15 0 L91 0 L208 113 L627 113 Z M627 516 L627 161 L258 161 L627 516 Z M799 635 L842 635 L990 806 L910 806 L799 635 Z " />
<glyph glyph-name="Oslashacute" unicode="&#x1fe;" horiz-adv-x="1348" d="M612 775 L655 775 L803 946 L723 946 L612 775 Z M815 -10 C1141 -10 1269 151 1269 350 C1269 508 1188 643 990 691 L1079 800 L1002 800 L923 703 C890 707 854 710 815 710 L533 710 C207 710 79 549 79 350 C79 191 160 57 358 9 L269 -100 L347 -100 L425 -3 C458 -8 494 -10 533 -10 L815 -10 Z M149 350 C149 516 251 650 534 650 L814 650 C836 650 857 649 878 647 L401 62 C218 98 149 213 149 350 L149 350 Z M534 50 C512 50 491 51 471 52 L947 638 C1130 602 1199 487 1199 350 C1199 184 1097 50 814 50 L534 50 Z " />
<glyph glyph-name="oslashacute" unicode="&#x1ff;" horiz-adv-x="1156" d="M516 635 L559 635 L707 806 L627 806 L516 635 Z M706 -8 C983 -8 1084 121 1084 280 C1084 408 1018 516 849 554 L923 640 L851 640 L785 564 C761 566 734 568 706 568 L450 568 C173 568 72 439 72 280 C72 152 137 44 306 6 L232 -80 L304 -80 L369 -3 C394 -6 421 -8 450 -8 L706 -8 Z M451 45 C437 45 424 45 412 46 L808 507 C966 480 1020 389 1020 280 C1020 150 944 45 705 45 L451 45 Z M135 280 C135 410 213 515 451 515 L705 515 C718 515 730 514 743 514 L346 53 C189 80 135 171 135 280 L135 280 Z " />
<glyph glyph-name="uni0200" unicode="&#x200;" horiz-adv-x="1266" d="M476 946 L396 946 L544 775 L587 775 L476 946 Z M690 946 L610 946 L758 775 L801 775 L690 946 Z M1170 0 L1252 0 L669 700 L597 700 L14 0 L96 0 L215 144 L1050 144 L1170 0 Z M633 646 L1003 200 L262 200 L633 646 Z " />
<glyph glyph-name="uni0201" unicode="&#x201;" horiz-adv-x="1084" d="M385 806 L305 806 L453 635 L496 635 L385 806 Z M599 806 L519 806 L667 635 L710 635 L599 806 Z M994 0 L1069 0 L575 560 L509 560 L15 0 L90 0 L195 119 L889 119 L994 0 Z M542 511 L846 167 L238 167 L542 511 Z " />
<glyph glyph-name="uni0202" unicode="&#x202;" horiz-adv-x="1266" d="M633 886 C719 886 750 841 755 789 L793 789 C787 858 750 932 633 932 C514 932 478 858 472 789 L510 789 C515 841 547 886 633 886 L633 886 Z M1170 0 L1252 0 L669 700 L597 700 L14 0 L96 0 L215 144 L1050 144 L1170 0 Z M633 646 L1003 200 L262 200 L633 646 Z " />
<glyph glyph-name="uni0203" unicode="&#x203;" horiz-adv-x="1084" d="M542 746 C628 746 659 701 664 649 L702 649 C696 718 659 792 542 792 C423 792 387 718 381 649 L419 649 C424 701 456 746 542 746 L542 746 Z M994 0 L1069 0 L575 560 L509 560 L15 0 L90 0 L195 119 L889 119 L994 0 Z M542 511 L846 167 L238 167 L542 511 Z " />
<glyph glyph-name="uni0204" unicode="&#x204;" horiz-adv-x="1199" d="M126 0 L1115 0 L1115 60 L192 60 L192 322 L1013 322 L1013 378 L192 378 L192 640 L1115 640 L1115 700 L126 700 L126 0 Z M453 946 L373 946 L521 775 L564 775 L453 946 Z M667 946 L587 946 L735 775 L778 775 L667 946 Z " />
<glyph glyph-name="uni0205" unicode="&#x205;" horiz-adv-x="1034" d="M116 0 L957 0 L957 53 L176 53 L176 256 L870 256 L870 304 L176 304 L176 507 L957 507 L957 560 L116 560 L116 0 Z M372 806 L292 806 L440 635 L483 635 L372 806 Z M586 806 L506 806 L654 635 L697 635 L586 806 Z " />
<glyph glyph-name="uni0206" unicode="&#x206;" horiz-adv-x="1199" d="M126 0 L1115 0 L1115 60 L192 60 L192 322 L1013 322 L1013 378 L192 378 L192 640 L1115 640 L1115 700 L126 700 L126 0 Z M610 886 C696 886 727 841 732 789 L770 789 C764 858 727 932 610 932 C491 932 455 858 449 789 L487 789 C492 841 524 886 610 886 L610 886 Z " />
<glyph glyph-name="uni0207" unicode="&#x207;" horiz-adv-x="1034" d="M116 0 L957 0 L957 53 L176 53 L176 256 L870 256 L870 304 L176 304 L176 507 L957 507 L957 560 L116 560 L116 0 Z M529 746 C615 746 646 701 651 649 L689 649 C683 718 646 792 529 792 C410 792 374 718 368 649 L406 649 C411 701 443 746 529 746 L529 746 Z " />
<glyph glyph-name="uni0208" unicode="&#x208;" horiz-adv-x="318" d="M3 946 L-77 946 L71 775 L114 775 L3 946 Z M217 946 L137 946 L285 775 L328 775 L217 946 Z M126 0 L192 0 L192 700 L126 700 L126 0 Z " />
<glyph glyph-name="uni0209" unicode="&#x209;" horiz-adv-x="292" d="M-10 806 L-90 806 L58 635 L101 635 L-10 806 Z M204 806 L124 806 L272 635 L315 635 L204 806 Z M116 0 L176 0 L176 560 L116 560 L116 0 Z " />
<glyph glyph-name="uni020A" unicode="&#x20a;" horiz-adv-x="318" d="M159 886 C245 886 276 841 281 789 L319 789 C313 858 276 932 159 932 C40 932 4 858 -2 789 L36 789 C41 841 73 886 159 886 L159 886 Z M126 0 L192 0 L192 700 L126 700 L126 0 Z " />
<glyph glyph-name="uni020B" unicode="&#x20b;" horiz-adv-x="292" d="M147 746 C233 746 264 701 269 649 L307 649 C301 718 264 792 147 792 C28 792 -8 718 -14 649 L24 649 C29 701 61 746 147 746 L147 746 Z M116 0 L176 0 L176 560 L116 560 L116 0 Z " />
<glyph glyph-name="uni020C" unicode="&#x20c;" horiz-adv-x="1348" d="M517 946 L437 946 L585 775 L628 775 L517 946 Z M731 946 L651 946 L799 775 L842 775 L731 946 Z M815 -10 C1141 -10 1269 151 1269 350 C1269 549 1141 710 815 710 L533 710 C207 710 79 549 79 350 C79 151 207 -10 533 -10 L815 -10 Z M534 50 C251 50 149 184 149 350 C149 516 251 650 534 650 L814 650 C1097 650 1199 516 1199 350 C1199 184 1097 50 814 50 L534 50 Z " />
<glyph glyph-name="uni020D" unicode="&#x20d;" horiz-adv-x="1156" d="M421 806 L341 806 L489 635 L532 635 L421 806 Z M635 806 L555 806 L703 635 L746 635 L635 806 Z M706 -8 C983 -8 1084 121 1084 280 C1084 439 983 568 706 568 L450 568 C173 568 72 439 72 280 C72 121 173 -8 450 -8 L706 -8 Z M451 45 C213 45 135 150 135 280 C135 410 213 515 451 515 L705 515 C944 515 1020 410 1020 280 C1020 150 944 45 705 45 L451 45 Z " />
<glyph glyph-name="uni020E" unicode="&#x20e;" horiz-adv-x="1348" d="M674 886 C760 886 791 841 796 789 L834 789 C828 858 791 932 674 932 C555 932 519 858 513 789 L551 789 C556 841 588 886 674 886 L674 886 Z M815 -10 C1141 -10 1269 151 1269 350 C1269 549 1141 710 815 710 L533 710 C207 710 79 549 79 350 C79 151 207 -10 533 -10 L815 -10 Z M534 50 C251 50 149 184 149 350 C149 516 251 650 534 650 L814 650 C1097 650 1199 516 1199 350 C1199 184 1097 50 814 50 L534 50 Z " />
<glyph glyph-name="uni020F" unicode="&#x20f;" horiz-adv-x="1156" d="M578 746 C664 746 695 701 700 649 L738 649 C732 718 695 792 578 792 C459 792 423 718 417 649 L455 649 C460 701 492 746 578 746 L578 746 Z M706 -8 C983 -8 1084 121 1084 280 C1084 439 983 568 706 568 L450 568 C173 568 72 439 72 280 C72 121 173 -8 450 -8 L706 -8 Z M451 45 C213 45 135 150 135 280 C135 410 213 515 451 515 L705 515 C944 515 1020 410 1020 280 C1020 150 944 45 705 45 L451 45 Z " />
<glyph glyph-name="uni0210" unicode="&#x210;" horiz-adv-x="1277" d="M126 0 L192 0 L192 281 L648 281 L1152 0 L1268 0 L755 282 L877 282 C1069 282 1143 373 1143 491 C1143 606 1069 700 877 700 L126 700 L126 0 Z M874 640 C1023 640 1074 572 1074 490 C1074 405 1023 339 874 339 L192 339 L192 640 L874 640 Z M442 946 L362 946 L510 775 L553 775 L442 946 Z M656 946 L576 946 L724 775 L767 775 L656 946 Z " />
<glyph glyph-name="uni0211" unicode="&#x211;" horiz-adv-x="1105" d="M116 0 L176 0 L176 222 L561 222 L981 0 L1087 0 L660 223 L760 223 C924 223 982 297 982 392 C982 485 924 560 760 560 L116 560 L116 0 Z M758 507 C882 507 919 455 919 390 C919 325 882 274 758 274 L176 274 L176 507 L758 507 Z M361 806 L281 806 L429 635 L472 635 L361 806 Z M575 806 L495 806 L643 635 L686 635 L575 806 Z " />
<glyph glyph-name="uni0212" unicode="&#x212;" horiz-adv-x="1277" d="M126 0 L192 0 L192 281 L648 281 L1152 0 L1268 0 L755 282 L877 282 C1069 282 1143 373 1143 491 C1143 606 1069 700 877 700 L126 700 L126 0 Z M874 640 C1023 640 1074 572 1074 490 C1074 405 1023 339 874 339 L192 339 L192 640 L874 640 Z M599 886 C685 886 716 841 721 789 L759 789 C753 858 716 932 599 932 C480 932 444 858 438 789 L476 789 C481 841 513 886 599 886 L599 886 Z " />
<glyph glyph-name="uni0213" unicode="&#x213;" horiz-adv-x="1105" d="M116 0 L176 0 L176 222 L561 222 L981 0 L1087 0 L660 223 L760 223 C924 223 982 297 982 392 C982 485 924 560 760 560 L116 560 L116 0 Z M758 507 C882 507 919 455 919 390 C919 325 882 274 758 274 L176 274 L176 507 L758 507 Z M518 746 C604 746 635 701 640 649 L678 649 C672 718 635 792 518 792 C399 792 363 718 357 649 L395 649 C400 701 432 746 518 746 L518 746 Z " />
<glyph glyph-name="uni0214" unicode="&#x214;" horiz-adv-x="1275" d="M481 946 L401 946 L549 775 L592 775 L481 946 Z M695 946 L615 946 L763 775 L806 775 L695 946 Z M172 323 L172 700 L106 700 L106 323 C106 130 210 -10 527 -10 L748 -10 C1065 -10 1169 130 1169 323 L1169 700 L1103 700 L1103 323 C1103 164 1019 50 747 50 L528 50 C256 50 172 164 172 323 L172 323 Z " />
<glyph glyph-name="uni0215" unicode="&#x215;" horiz-adv-x="1096" d="M391 806 L311 806 L459 635 L502 635 L391 806 Z M605 806 L525 806 L673 635 L716 635 L605 806 Z M156 258 L156 560 L96 560 L96 258 C96 104 176 -8 445 -8 L650 -8 C919 -8 1000 104 1000 258 L1000 560 L940 560 L940 258 C940 134 878 45 649 45 L446 45 C218 45 156 134 156 258 L156 258 Z " />
<glyph glyph-name="uni0216" unicode="&#x216;" horiz-adv-x="1275" d="M638 886 C724 886 755 841 760 789 L798 789 C792 858 755 932 638 932 C519 932 483 858 477 789 L515 789 C520 841 552 886 638 886 L638 886 Z M172 323 L172 700 L106 700 L106 323 C106 130 210 -10 527 -10 L748 -10 C1065 -10 1169 130 1169 323 L1169 700 L1103 700 L1103 323 C1103 164 1019 50 747 50 L528 50 C256 50 172 164 172 323 L172 323 Z " />
<glyph glyph-name="uni0217" unicode="&#x217;" horiz-adv-x="1096" d="M548 746 C634 746 665 701 670 649 L708 649 C702 718 665 792 548 792 C429 792 393 718 387 649 L425 649 C430 701 462 746 548 746 L548 746 Z M156 258 L156 560 L96 560 L96 258 C96 104 176 -8 445 -8 L650 -8 C919 -8 1000 104 1000 258 L1000 560 L940 560 L940 258 C940 134 878 45 649 45 L446 45 C218 45 156 134 156 258 L156 258 Z " />
<glyph glyph-name="uni0218" unicode="&#x218;" horiz-adv-x="1207" d="M567 -198 L599 -198 L563 -293 L595 -293 L641 -194 L641 -124 L567 -124 L567 -198 Z M116 0 L890 0 C1064 0 1131 84 1131 189 C1131 295 1064 378 890 378 L318 378 C188 378 145 436 145 509 C145 580 188 640 318 640 L1091 640 L1091 700 L317 700 C143 700 76 616 76 511 C76 405 143 322 317 322 L889 322 C1019 322 1062 264 1062 191 C1062 120 1019 60 889 60 L116 60 L116 0 Z " />
<glyph glyph-name="uni0219" unicode="&#x219;" horiz-adv-x="1033" d="M480 -198 L512 -198 L476 -293 L508 -293 L554 -194 L554 -124 L480 -124 L480 -198 Z M102 0 L766 0 C914 0 965 68 965 152 C965 238 914 304 766 304 L270 304 C162 304 131 349 131 406 C131 461 162 507 270 507 L931 507 L931 560 L267 560 C119 560 68 492 68 408 C68 322 119 256 267 256 L763 256 C871 256 902 211 902 154 C902 99 871 53 763 53 L102 53 L102 0 Z " />
<glyph glyph-name="uni021A" unicode="&#x21a;" horiz-adv-x="1184" d="M556 -198 L588 -198 L552 -293 L584 -293 L630 -194 L630 -124 L556 -124 L556 -198 Z M34 640 L559 640 L559 0 L625 0 L625 640 L1150 640 L1150 700 L34 700 L34 640 Z " />
<glyph glyph-name="uni021B" unicode="&#x21b;" horiz-adv-x="1042" d="M485 -198 L517 -198 L481 -293 L513 -293 L559 -194 L559 -124 L485 -124 L485 -198 Z M47 507 L491 507 L491 0 L551 0 L551 507 L995 507 L995 560 L47 560 L47 507 Z " />
<glyph glyph-name="uni021E" unicode="&#x21e;" horiz-adv-x="1305" d="M1113 0 L1179 0 L1179 700 L1113 700 L1113 380 L192 380 L192 700 L126 700 L126 0 L192 0 L192 320 L1113 320 L1113 0 Z M819 946 L776 946 L653 812 L529 946 L486 946 L612 775 L693 775 L819 946 Z " />
<glyph glyph-name="uni021F" unicode="&#x21f;" horiz-adv-x="1128" d="M952 0 L1012 0 L1012 560 L952 560 L952 307 L176 307 L176 560 L116 560 L116 0 L176 0 L176 253 L952 253 L952 0 Z M730 806 L687 806 L564 672 L440 806 L397 806 L523 635 L604 635 L730 806 Z " />
<glyph glyph-name="uni0226" unicode="&#x226;" horiz-adv-x="1266" d="M1170 0 L1252 0 L669 700 L597 700 L14 0 L96 0 L215 144 L1050 144 L1170 0 Z M633 646 L1003 200 L262 200 L633 646 Z M596 823 L670 823 L670 897 L596 897 L596 823 Z " />
<glyph glyph-name="uni0227" unicode="&#x227;" horiz-adv-x="1084" d="M994 0 L1069 0 L575 560 L509 560 L15 0 L90 0 L195 119 L889 119 L994 0 Z M542 511 L846 167 L238 167 L542 511 Z M505 683 L579 683 L579 757 L505 757 L505 683 Z " />
<glyph glyph-name="uni0228" unicode="&#x228;" horiz-adv-x="1199" d="M126 0 L593 0 L566 -100 L587 -100 C655 -100 693 -114 693 -159 C693 -238 543 -222 497 -199 L497 -230 C570 -265 742 -276 742 -161 C742 -85 678 -69 607 -69 L604 -69 L622 0 L1115 0 L1115 60 L192 60 L192 322 L1013 322 L1013 378 L192 378 L192 640 L1115 640 L1115 700 L126 700 L126 0 Z " />
<glyph glyph-name="uni0229" unicode="&#x229;" horiz-adv-x="1034" d="M116 0 L512 0 L485 -100 L506 -100 C574 -100 612 -114 612 -159 C612 -238 462 -222 416 -199 L416 -230 C489 -265 661 -276 661 -161 C661 -85 597 -69 526 -69 L523 -69 L541 0 L957 0 L957 53 L176 53 L176 256 L870 256 L870 304 L176 304 L176 507 L957 507 L957 560 L116 560 L116 0 Z " />
<glyph glyph-name="uni022A" unicode="&#x22a;" horiz-adv-x="1348" d="M765 823 L839 823 L839 897 L765 897 L765 823 Z M509 823 L583 823 L583 897 L509 897 L509 823 Z M498 998 L850 998 L850 1042 L498 1042 L498 998 Z M815 -10 C1141 -10 1269 151 1269 350 C1269 549 1141 710 815 710 L533 710 C207 710 79 549 79 350 C79 151 207 -10 533 -10 L815 -10 Z M534 50 C251 50 149 184 149 350 C149 516 251 650 534 650 L814 650 C1097 650 1199 516 1199 350 C1199 184 1097 50 814 50 L534 50 Z " />
<glyph glyph-name="uni022B" unicode="&#x22b;" horiz-adv-x="1156" d="M669 683 L743 683 L743 757 L669 757 L669 683 Z M413 683 L487 683 L487 757 L413 757 L413 683 Z M402 858 L754 858 L754 902 L402 902 L402 858 Z M706 -8 C983 -8 1084 121 1084 280 C1084 439 983 568 706 568 L450 568 C173 568 72 439 72 280 C72 121 173 -8 450 -8 L706 -8 Z M451 45 C213 45 135 150 135 280 C135 410 213 515 451 515 L705 515 C944 515 1020 410 1020 280 C1020 150 944 45 705 45 L451 45 Z " />
<glyph glyph-name="uni022C" unicode="&#x22c;" horiz-adv-x="1348" d="M809 927 C802 862 780 852 751 852 C702 852 661 919 596 919 C547 919 513 892 504 794 L539 794 C546 858 568 870 597 870 C645 870 687 803 752 803 C801 803 835 829 844 927 L809 927 Z M498 1006 L850 1006 L850 1050 L498 1050 L498 1006 Z M815 -10 C1141 -10 1269 151 1269 350 C1269 549 1141 710 815 710 L533 710 C207 710 79 549 79 350 C79 151 207 -10 533 -10 L815 -10 Z M534 50 C251 50 149 184 149 350 C149 516 251 650 534 650 L814 650 C1097 650 1199 516 1199 350 C1199 184 1097 50 814 50 L534 50 Z " />
<glyph glyph-name="uni022D" unicode="&#x22d;" horiz-adv-x="1156" d="M713 787 C706 722 684 712 655 712 C606 712 565 779 500 779 C451 779 417 752 408 654 L443 654 C450 718 472 730 501 730 C549 730 591 663 656 663 C705 663 739 689 748 787 L713 787 Z M402 866 L754 866 L754 910 L402 910 L402 866 Z M706 -8 C983 -8 1084 121 1084 280 C1084 439 983 568 706 568 L450 568 C173 568 72 439 72 280 C72 121 173 -8 450 -8 L706 -8 Z M451 45 C213 45 135 150 135 280 C135 410 213 515 451 515 L705 515 C944 515 1020 410 1020 280 C1020 150 944 45 705 45 L451 45 Z " />
<glyph glyph-name="uni022E" unicode="&#x22e;" horiz-adv-x="1348" d="M815 -10 C1141 -10 1269 151 1269 350 C1269 549 1141 710 815 710 L533 710 C207 710 79 549 79 350 C79 151 207 -10 533 -10 L815 -10 Z M534 50 C251 50 149 184 149 350 C149 516 251 650 534 650 L814 650 C1097 650 1199 516 1199 350 C1199 184 1097 50 814 50 L534 50 Z M637 823 L711 823 L711 897 L637 897 L637 823 Z " />
<glyph glyph-name="uni022F" unicode="&#x22f;" horiz-adv-x="1156" d="M706 -8 C983 -8 1084 121 1084 280 C1084 439 983 568 706 568 L450 568 C173 568 72 439 72 280 C72 121 173 -8 450 -8 L706 -8 Z M451 45 C213 45 135 150 135 280 C135 410 213 515 451 515 L705 515 C944 515 1020 410 1020 280 C1020 150 944 45 705 45 L451 45 Z M541 683 L615 683 L615 757 L541 757 L541 683 Z " />
<glyph glyph-name="uni0230" unicode="&#x230;" horiz-adv-x="1348" d="M637 823 L711 823 L711 897 L637 897 L637 823 Z M498 998 L850 998 L850 1042 L498 1042 L498 998 Z M815 -10 C1141 -10 1269 151 1269 350 C1269 549 1141 710 815 710 L533 710 C207 710 79 549 79 350 C79 151 207 -10 533 -10 L815 -10 Z M534 50 C251 50 149 184 149 350 C149 516 251 650 534 650 L814 650 C1097 650 1199 516 1199 350 C1199 184 1097 50 814 50 L534 50 Z " />
<glyph glyph-name="uni0231" unicode="&#x231;" horiz-adv-x="1156" d="M541 683 L615 683 L615 757 L541 757 L541 683 Z M402 858 L754 858 L754 902 L402 902 L402 858 Z M706 -8 C983 -8 1084 121 1084 280 C1084 439 983 568 706 568 L450 568 C173 568 72 439 72 280 C72 121 173 -8 450 -8 L706 -8 Z M451 45 C213 45 135 150 135 280 C135 410 213 515 451 515 L705 515 C944 515 1020 410 1020 280 C1020 150 944 45 705 45 L451 45 Z " />
<glyph glyph-name="uni0232" unicode="&#x232;" horiz-adv-x="1245" d="M589 0 L655 0 L655 211 L1241 700 L1142 700 L622 263 L102 700 L4 700 L589 211 L589 0 Z M446 838 L798 838 L798 882 L446 882 L446 838 Z " />
<glyph glyph-name="uni0233" unicode="&#x233;" horiz-adv-x="1060" d="M500 0 L561 0 L561 170 L1056 560 L967 560 L530 215 L93 560 L4 560 L500 170 L500 0 Z M354 698 L706 698 L706 742 L354 742 L354 698 Z " />
<glyph glyph-name="uni0237" unicode="&#x237;" horiz-adv-x="1043" d="M332 -4 L597 -4 C867 -4 947 106 947 260 L947 560 L887 560 L887 260 C887 136 825 49 597 49 L333 49 C157 49 106 125 106 220 L106 256 L46 256 L46 220 C46 97 116 -4 332 -4 L332 -4 Z " />
<glyph glyph-name="uni0256" unicode="&#x256;" horiz-adv-x="1081" d="M-4 256 L116 256 L116 0 L642 0 C912 0 1009 126 1009 280 C1009 434 912 560 642 560 L116 560 L116 304 L-4 304 L-4 256 Z M642 507 C872 507 945 405 945 280 C945 155 872 53 642 53 L176 53 L176 256 L563 256 L563 304 L176 304 L176 507 L642 507 Z " />
<glyph glyph-name="uni02BB" unicode="&#x2bb;" horiz-adv-x="282" d="M181 597 L143 597 L179 700 L147 700 L101 593 L101 517 L181 517 L181 597 Z " />
<glyph glyph-name="uni02BC" unicode="&#x2bc;" horiz-adv-x="282" d="M101 620 L139 620 L103 517 L135 517 L181 624 L181 700 L101 700 L101 620 Z " />
<glyph glyph-name="uni02BD" unicode="&#x2bd;" horiz-adv-x="282" d="M181 700 L101 700 L101 624 L147 517 L179 517 L143 620 L181 620 L181 700 Z " />
<glyph glyph-name="circumflex" unicode="&#x2c6;" horiz-adv-x="500" d="M290 806 L209 806 L83 635 L126 635 L250 769 L373 635 L416 635 L290 806 Z " />
<glyph glyph-name="caron" unicode="&#x2c7;" horiz-adv-x="500" d="M416 806 L373 806 L250 672 L126 806 L83 806 L209 635 L290 635 L416 806 Z " />
<glyph glyph-name="uni02C9" unicode="&#x2c9;" horiz-adv-x="500" d="M74 698 L426 698 L426 742 L74 742 L74 698 Z " />
<glyph glyph-name="uni02CA" unicode="&#x2ca;" horiz-adv-x="500" d="M188 635 L231 635 L379 806 L299 806 L188 635 Z " />
<glyph glyph-name="uni02CB" unicode="&#x2cb;" horiz-adv-x="500" d="M200 806 L120 806 L268 635 L311 635 L200 806 Z " />
<glyph glyph-name="uni02CD" unicode="&#x2cd;" horiz-adv-x="500" d="M74 -183 L426 -183 L426 -139 L74 -139 L74 -183 Z " />
<glyph glyph-name="uni02CE" unicode="&#x2ce;" horiz-adv-x="500" d="M200 -75 L120 -75 L268 -246 L311 -246 L200 -75 Z " />
<glyph glyph-name="uni02CF" unicode="&#x2cf;" horiz-adv-x="500" d="M188 -246 L231 -246 L379 -75 L299 -75 L188 -246 Z " />
<glyph glyph-name="breve" unicode="&#x2d8;" horiz-adv-x="500" d="M250 695 C164 695 132 740 127 792 L89 792 C95 723 131 649 250 649 C367 649 404 723 410 792 L372 792 C367 740 336 695 250 695 L250 695 Z " />
<glyph glyph-name="dotaccent" unicode="&#x2d9;" horiz-adv-x="500" d="M213 683 L287 683 L287 757 L213 757 L213 683 Z " />
<glyph glyph-name="ring" unicode="&#x2da;" horiz-adv-x="500" d="M178 721 C178 760 210 792 249 792 C289 792 321 760 321 721 C321 681 289 649 249 649 C210 649 178 681 178 721 L178 721 Z M137 721 C137 661 186 612 249 612 C312 612 362 661 362 721 C362 781 312 829 249 829 C186 829 137 781 137 721 L137 721 Z " />
<glyph glyph-name="ogonek" unicode="&#x2db;" horiz-adv-x="500" d="M175 -160 C175 -214 219 -246 286 -246 C324 -246 357 -240 398 -222 L398 -191 C361 -206 336 -210 308 -210 C262 -210 229 -188 229 -146 C229 -78 301 -28 379 0 L334 0 C260 -23 175 -82 175 -160 L175 -160 Z " />
<glyph glyph-name="tilde" unicode="&#x2dc;" horiz-adv-x="500" d="M385 787 C378 722 356 712 327 712 C278 712 237 779 172 779 C123 779 89 752 80 654 L115 654 C122 718 144 730 173 730 C221 730 263 663 328 663 C377 663 411 689 420 787 L385 787 Z " />
<glyph glyph-name="hungarumlaut" unicode="&#x2dd;" horiz-adv-x="500" d="M295 635 L338 635 L486 806 L406 806 L295 635 Z M81 635 L124 635 L272 806 L192 806 L81 635 Z " />
<glyph glyph-name="uni02EC" unicode="&#x2ec;" horiz-adv-x="500" d="M416 -75 L373 -75 L250 -209 L126 -75 L83 -75 L209 -246 L290 -246 L416 -75 Z " />
<glyph glyph-name="uni02EE" unicode="&#x2ee;" horiz-adv-x="485" d="M101 620 L139 620 L103 517 L135 517 L181 624 L181 700 L101 700 L101 620 Z M304 620 L342 620 L306 517 L338 517 L384 624 L384 700 L304 700 L304 620 Z " />
<glyph glyph-name="gravecomb" unicode="&#x300;" d="M-635 806 L-715 806 L-567 635 L-524 635 L-635 806 Z " />
<glyph glyph-name="acutecomb" unicode="&#x301;" d="M-647 635 L-604 635 L-456 806 L-536 806 L-647 635 Z " />
<glyph glyph-name="uni0302" unicode="&#x302;" d="M-545 806 L-626 806 L-752 635 L-709 635 L-585 769 L-462 635 L-419 635 L-545 806 Z " />
<glyph glyph-name="tildecomb" unicode="&#x303;" d="M-451 787 C-458 722 -480 712 -509 712 C-558 712 -599 779 -664 779 C-713 779 -747 752 -756 654 L-721 654 C-714 718 -692 730 -663 730 C-615 730 -573 663 -508 663 C-459 663 -425 689 -416 787 L-451 787 Z " />
<glyph glyph-name="uni0304" unicode="&#x304;" d="M-761 698 L-409 698 L-409 742 L-761 742 L-761 698 Z " />
<glyph glyph-name="uni0306" unicode="&#x306;" d="M-585 695 C-671 695 -703 740 -708 792 L-746 792 C-740 723 -704 649 -585 649 C-468 649 -431 723 -425 792 L-463 792 C-468 740 -499 695 -585 695 L-585 695 Z " />
<glyph glyph-name="uni0307" unicode="&#x307;" d="M-623 683 L-549 683 L-549 757 L-623 757 L-623 683 Z " />
<glyph glyph-name="uni0308" unicode="&#x308;" d="M-495 683 L-421 683 L-421 757 L-495 757 L-495 683 Z M-751 683 L-677 683 L-677 757 L-751 757 L-751 683 Z " />
<glyph glyph-name="hookabovecomb" unicode="&#x309;" d="M-629 637 L-592 637 L-592 674 L-586 674 C-517 674 -443 686 -443 762 C-443 833 -509 850 -578 850 C-625 850 -672 841 -701 828 L-701 795 C-676 806 -637 813 -597 813 C-545 813 -495 805 -495 759 C-495 712 -535 701 -607 701 L-629 701 L-629 637 Z " />
<glyph glyph-name="uni030A" unicode="&#x30a;" d="M-657 721 C-657 760 -625 792 -586 792 C-546 792 -514 760 -514 721 C-514 681 -546 649 -586 649 C-625 649 -657 681 -657 721 L-657 721 Z M-698 721 C-698 661 -649 612 -586 612 C-523 612 -473 661 -473 721 C-473 781 -523 829 -586 829 C-649 829 -698 781 -698 721 L-698 721 Z " />
<glyph glyph-name="uni030B" unicode="&#x30b;" d="M-540 635 L-497 635 L-349 806 L-429 806 L-540 635 Z M-754 635 L-711 635 L-563 806 L-643 806 L-754 635 Z " />
<glyph glyph-name="uni030C" unicode="&#x30c;" d="M-419 806 L-462 806 L-585 672 L-709 806 L-752 806 L-626 635 L-545 635 L-419 806 Z " />
<glyph glyph-name="uni030F" unicode="&#x30f;" d="M-742 806 L-822 806 L-674 635 L-631 635 L-742 806 Z M-528 806 L-608 806 L-460 635 L-417 635 L-528 806 Z " />
<glyph glyph-name="uni0311" unicode="&#x311;" d="M-585 746 C-499 746 -468 701 -463 649 L-425 649 C-431 718 -468 792 -585 792 C-704 792 -740 718 -746 649 L-708 649 C-703 701 -671 746 -585 746 L-585 746 Z " />
<glyph glyph-name="uni0312" unicode="&#x312;" d="M-546 597 L-584 597 L-548 700 L-580 700 L-626 593 L-626 517 L-546 517 L-546 597 Z " />
<glyph glyph-name="uni0313" unicode="&#x313;" d="M-626 620 L-588 620 L-624 517 L-592 517 L-546 624 L-546 700 L-626 700 L-626 620 Z " />
<glyph glyph-name="uni0314" unicode="&#x314;" d="M-546 700 L-626 700 L-626 624 L-580 517 L-548 517 L-584 620 L-546 620 L-546 700 Z " />
<glyph glyph-name="uni0316" unicode="&#x316;" d="M-635 -75 L-715 -75 L-567 -246 L-524 -246 L-635 -75 Z " />
<glyph glyph-name="uni0317" unicode="&#x317;" d="M-647 -246 L-604 -246 L-456 -75 L-536 -75 L-647 -246 Z " />
<glyph glyph-name="uni031B" unicode="&#x31b;" d="M-126 521 L-12 521 C83 521 150 541 150 637 C150 652 148 668 145 686 L82 686 C85 669 86 654 86 642 C86 573 45 560 -26 560 L-126 560 L-126 521 Z " />
<glyph glyph-name="uni031C" unicode="&#x31c;" d="M-545 -52 C-608 -52 -657 -100 -657 -160 C-657 -220 -608 -269 -545 -269 L-545 -232 C-584 -232 -616 -200 -616 -160 C-616 -121 -584 -89 -545 -89 L-545 -52 Z " />
<glyph glyph-name="dotbelowcomb" unicode="&#x323;" d="M-623 -198 L-549 -198 L-549 -124 L-623 -124 L-623 -198 Z " />
<glyph glyph-name="uni0324" unicode="&#x324;" d="M-495 -198 L-421 -198 L-421 -124 L-495 -124 L-495 -198 Z M-751 -198 L-677 -198 L-677 -124 L-751 -124 L-751 -198 Z " />
<glyph glyph-name="uni0325" unicode="&#x325;" d="M-657 -160 C-657 -121 -625 -89 -586 -89 C-546 -89 -514 -121 -514 -160 C-514 -200 -546 -232 -586 -232 C-625 -232 -657 -200 -657 -160 L-657 -160 Z M-698 -160 C-698 -220 -649 -269 -586 -269 C-523 -269 -473 -220 -473 -160 C-473 -100 -523 -52 -586 -52 C-649 -52 -698 -100 -698 -160 L-698 -160 Z " />
<glyph glyph-name="uni0326" unicode="&#x326;" d="M-622 -198 L-590 -198 L-626 -293 L-594 -293 L-548 -194 L-548 -124 L-622 -124 L-622 -198 Z " />
<glyph glyph-name="uni0327" unicode="&#x327;" d="M-629 -100 L-608 -100 C-540 -100 -502 -114 -502 -159 C-502 -238 -652 -222 -698 -199 L-698 -230 C-625 -265 -453 -276 -453 -161 C-453 -85 -517 -69 -588 -69 L-591 -69 L-573 0 L-602 0 L-629 -100 Z " />
<glyph glyph-name="uni0328" unicode="&#x328;" d="M-660 -160 C-660 -214 -616 -246 -549 -246 C-511 -246 -478 -240 -437 -222 L-437 -191 C-474 -206 -499 -210 -527 -210 C-573 -210 -606 -188 -606 -146 C-606 -78 -534 -28 -456 0 L-501 0 C-575 -23 -660 -82 -660 -160 L-660 -160 Z " />
<glyph glyph-name="uni032C" unicode="&#x32c;" d="M-419 -75 L-462 -75 L-585 -209 L-709 -75 L-752 -75 L-626 -246 L-545 -246 L-419 -75 Z " />
<glyph glyph-name="uni032D" unicode="&#x32d;" d="M-545 -75 L-626 -75 L-752 -246 L-709 -246 L-585 -112 L-462 -246 L-419 -246 L-545 -75 Z " />
<glyph glyph-name="uni032E" unicode="&#x32e;" d="M-585 -186 C-671 -186 -703 -141 -708 -89 L-746 -89 C-740 -158 -704 -232 -585 -232 C-468 -232 -431 -158 -425 -89 L-463 -89 C-468 -141 -499 -186 -585 -186 L-585 -186 Z " />
<glyph glyph-name="uni032F" unicode="&#x32f;" d="M-585 -135 C-499 -135 -468 -180 -463 -232 L-425 -232 C-431 -163 -468 -89 -585 -89 C-704 -89 -740 -163 -746 -232 L-708 -232 C-703 -180 -671 -135 -585 -135 L-585 -135 Z " />
<glyph glyph-name="uni0330" unicode="&#x330;" d="M-451 -94 C-458 -159 -480 -169 -509 -169 C-558 -169 -599 -102 -664 -102 C-713 -102 -747 -129 -756 -227 L-721 -227 C-714 -163 -692 -151 -663 -151 C-615 -151 -573 -218 -508 -218 C-459 -218 -425 -192 -416 -94 L-451 -94 Z " />
<glyph glyph-name="uni0331" unicode="&#x331;" d="M-761 -183 L-409 -183 L-409 -139 L-761 -139 L-761 -183 Z " />
<glyph glyph-name="uni0338" unicode="&#x338;" d="M-866 -75 L-807 -75 L-305 776 L-364 776 L-866 -75 Z " />
<glyph glyph-name="uni0339" unicode="&#x339;" d="M-627 -89 C-588 -89 -556 -121 -556 -160 C-556 -200 -588 -232 -627 -232 L-627 -269 C-564 -269 -515 -220 -515 -160 C-515 -100 -564 -52 -627 -52 L-627 -89 Z " />
<glyph glyph-name="uni0340" unicode="&#x340;" d="M-635 806 L-715 806 L-567 635 L-524 635 L-635 806 Z " />
<glyph glyph-name="uni0341" unicode="&#x341;" d="M-647 635 L-604 635 L-456 806 L-536 806 L-647 635 Z " />
<glyph glyph-name="uni0343" unicode="&#x343;" d="M-626 620 L-588 620 L-624 517 L-592 517 L-546 624 L-546 700 L-626 700 L-626 620 Z " />
<glyph glyph-name="uni0344" unicode="&#x344;" d="M-464 684 L-391 684 L-391 757 L-464 757 L-464 684 Z M-781 684 L-708 684 L-708 757 L-781 757 L-781 684 Z M-601 635 L-573 635 L-551 835 L-621 835 L-601 635 Z " />
<glyph glyph-name="uni034F" unicode="&#x34f;" d="" />
<glyph glyph-name="uni0351" unicode="&#x351;" d="M-545 829 C-608 829 -657 781 -657 721 C-657 661 -608 612 -545 612 L-545 649 C-584 649 -616 681 -616 721 C-616 760 -584 792 -545 792 L-545 829 Z " />
<glyph glyph-name="uni0357" unicode="&#x357;" d="M-627 792 C-588 792 -556 760 -556 721 C-556 681 -588 649 -627 649 L-627 612 C-564 612 -515 661 -515 721 C-515 781 -564 829 -627 829 L-627 792 Z " />
<glyph glyph-name="uni0374" unicode="&#x374;" horiz-adv-x="279" d="M111 400 L153 400 L227 700 L149 700 L111 400 Z " />
<glyph glyph-name="uni0375" unicode="&#x375;" horiz-adv-x="279" d="M111 -100 L153 -100 L227 200 L149 200 L111 -100 Z " />
<glyph glyph-name="uni037E" unicode="&#x37e;" horiz-adv-x="282" d="M101 0 L139 0 L103 -103 L135 -103 L181 4 L181 80 L101 80 L101 0 Z M101 480 L181 480 L181 560 L101 560 L101 480 Z " />
<glyph glyph-name="tonos" unicode="&#x384;" horiz-adv-x="500" d="M233 635 L266 635 L288 835 L211 835 L233 635 Z " />
<glyph glyph-name="dieresistonos" unicode="&#x385;" horiz-adv-x="500" d="M372 684 L445 684 L445 757 L372 757 L372 684 Z M55 684 L128 684 L128 757 L55 757 L55 684 Z M235 635 L263 635 L285 835 L215 835 L235 635 Z " />
<glyph glyph-name="Alphatonos" unicode="&#x386;" horiz-adv-x="1266" d="M1170 0 L1252 0 L669 700 L597 700 L14 0 L96 0 L215 144 L1050 144 L1170 0 Z M633 646 L1003 200 L262 200 L633 646 Z M167 500 L200 500 L222 700 L145 700 L167 500 Z " />
<glyph glyph-name="anoteleia" unicode="&#x387;" horiz-adv-x="276" d="M101 243 L175 243 L175 317 L101 317 L101 243 Z " />
<glyph glyph-name="Epsilontonos" unicode="&#x388;" horiz-adv-x="1350" d="M59 500 L92 500 L114 700 L37 700 L59 500 Z M277 0 L1266 0 L1266 60 L343 60 L343 322 L1164 322 L1164 378 L343 378 L343 640 L1266 640 L1266 700 L277 700 L277 0 Z " />
<glyph glyph-name="Etatonos" unicode="&#x389;" horiz-adv-x="1456" d="M59 500 L92 500 L114 700 L37 700 L59 500 Z M1264 0 L1330 0 L1330 700 L1264 700 L1264 380 L343 380 L343 700 L277 700 L277 0 L343 0 L343 320 L1264 320 L1264 0 Z " />
<glyph glyph-name="Iotatonos" unicode="&#x38a;" horiz-adv-x="469" d="M59 500 L92 500 L114 700 L37 700 L59 500 Z M277 0 L343 0 L343 700 L277 700 L277 0 Z " />
<glyph glyph-name="Omicrontonos" unicode="&#x38c;" horiz-adv-x="1470" d="M59 500 L92 500 L114 700 L37 700 L59 500 Z M937 -10 C1263 -10 1391 151 1391 350 C1391 549 1263 710 937 710 L655 710 C329 710 201 549 201 350 C201 151 329 -10 655 -10 L937 -10 Z M656 50 C373 50 271 184 271 350 C271 516 373 650 656 650 L936 650 C1219 650 1321 516 1321 350 C1321 184 1219 50 936 50 L656 50 Z " />
<glyph glyph-name="Upsilontonos" unicode="&#x38e;" horiz-adv-x="1408" d="M59 500 L92 500 L114 700 L37 700 L59 500 Z M752 0 L818 0 L818 211 L1404 700 L1305 700 L785 263 L265 700 L167 700 L752 211 L752 0 Z " />
<glyph glyph-name="Omegatonos" unicode="&#x38f;" horiz-adv-x="1464" d="M59 500 L92 500 L114 700 L37 700 L59 500 Z M959 0 L1391 0 L1391 60 L1122 60 C1291 126 1361 257 1361 391 C1361 567 1247 710 958 710 L614 710 C325 710 211 567 211 391 C211 257 279 126 450 60 L181 60 L181 0 L613 0 L613 51 C367 96 275 231 275 377 C275 528 367 650 625 650 L947 650 C1205 650 1297 528 1297 377 C1297 232 1205 96 959 51 L959 0 Z " />
<glyph glyph-name="iotadieresistonos" unicode="&#x390;" horiz-adv-x="292" d="M268 684 L341 684 L341 757 L268 757 L268 684 Z M-49 684 L24 684 L24 757 L-49 757 L-49 684 Z M131 635 L159 635 L181 835 L111 835 L131 635 Z M116 0 L176 0 L176 560 L116 560 L116 0 Z " />
<glyph glyph-name="Alpha" unicode="&#x391;" horiz-adv-x="1266" d="M1170 0 L1252 0 L669 700 L597 700 L14 0 L96 0 L215 144 L1050 144 L1170 0 Z M633 646 L1003 200 L262 200 L633 646 Z " />
<glyph glyph-name="Beta" unicode="&#x392;" horiz-adv-x="1259" d="M126 0 L945 0 C1111 0 1175 80 1175 182 C1175 268 1127 340 1009 359 C1090 384 1125 447 1125 521 C1125 621 1062 700 897 700 L126 700 L126 0 Z M930 322 C1061 322 1105 263 1105 191 C1105 118 1061 60 930 60 L192 60 L192 322 L930 322 Z M1057 509 C1057 437 1014 378 889 378 L192 378 L192 640 L882 640 C1010 640 1057 581 1057 509 L1057 509 Z " />
<glyph glyph-name="Gamma" unicode="&#x393;" horiz-adv-x="1129" d="M126 0 L192 0 L192 640 L1095 640 L1095 700 L126 700 L126 0 Z " />
<glyph glyph-name="Delta" unicode="&#x394;" horiz-adv-x="1266" d="M669 700 L597 700 L14 0 L1252 0 L669 700 Z M633 647 L1126 60 L140 60 L633 647 Z " />
<glyph glyph-name="Epsilon" unicode="&#x395;" horiz-adv-x="1199" d="M126 0 L1115 0 L1115 60 L192 60 L192 322 L1013 322 L1013 378 L192 378 L192 640 L1115 640 L1115 700 L126 700 L126 0 Z " />
<glyph glyph-name="Zeta" unicode="&#x396;" horiz-adv-x="1193" d="M76 0 L1127 0 L1127 60 L201 60 L1107 652 L1107 700 L86 700 L86 640 L981 640 L76 48 L76 0 Z " />
<glyph glyph-name="Eta" unicode="&#x397;" horiz-adv-x="1305" d="M1113 0 L1179 0 L1179 700 L1113 700 L1113 380 L192 380 L192 700 L126 700 L126 0 L192 0 L192 320 L1113 320 L1113 0 Z " />
<glyph glyph-name="Theta" unicode="&#x398;" horiz-adv-x="1348" d="M334 322 L1014 322 L1014 378 L334 378 L334 322 Z M815 -10 C1141 -10 1269 151 1269 350 C1269 549 1141 710 815 710 L533 710 C207 710 79 549 79 350 C79 151 207 -10 533 -10 L815 -10 Z M534 50 C251 50 149 184 149 350 C149 516 251 650 534 650 L814 650 C1097 650 1199 516 1199 350 C1199 184 1097 50 814 50 L534 50 Z " />
<glyph glyph-name="Iota" unicode="&#x399;" horiz-adv-x="318" d="M126 0 L192 0 L192 700 L126 700 L126 0 Z " />
<glyph glyph-name="Kappa" unicode="&#x39a;" horiz-adv-x="1286" d="M1186 700 L1068 700 L192 212 L192 700 L126 700 L126 0 L192 0 L192 146 L543 341 L1160 0 L1277 0 L604 376 L1186 700 Z " />
<glyph glyph-name="Lambda" unicode="&#x39b;" horiz-adv-x="1266" d="M597 700 L14 0 L98 0 L633 646 L1168 0 L1252 0 L669 700 L597 700 Z " />
<glyph glyph-name="Mu" unicode="&#x39c;" horiz-adv-x="1446" d="M1257 700 L723 122 L189 700 L126 700 L126 0 L192 0 L192 609 L723 32 L1254 609 L1254 0 L1320 0 L1320 700 L1257 700 Z " />
<glyph glyph-name="Nu" unicode="&#x39d;" horiz-adv-x="1304" d="M1115 0 L1178 0 L1178 700 L1112 700 L1112 77 L189 700 L126 700 L126 0 L192 0 L192 623 L1115 0 Z " />
<glyph glyph-name="Xi" unicode="&#x39e;" horiz-adv-x="1207" d="M84 640 L1123 640 L1123 700 L84 700 L84 640 Z M1123 60 L84 60 L84 0 L1123 0 L1123 60 Z M176 322 L1031 322 L1031 378 L176 378 L176 322 Z " />
<glyph glyph-name="Omicron" unicode="&#x39f;" horiz-adv-x="1348" d="M815 -10 C1141 -10 1269 151 1269 350 C1269 549 1141 710 815 710 L533 710 C207 710 79 549 79 350 C79 151 207 -10 533 -10 L815 -10 Z M534 50 C251 50 149 184 149 350 C149 516 251 650 534 650 L814 650 C1097 650 1199 516 1199 350 C1199 184 1097 50 814 50 L534 50 Z " />
<glyph glyph-name="Pi" unicode="&#x3a0;" horiz-adv-x="1305" d="M1113 0 L1179 0 L1179 700 L126 700 L126 0 L192 0 L192 640 L1113 640 L1113 0 Z " />
<glyph glyph-name="Rho" unicode="&#x3a1;" horiz-adv-x="1196" d="M126 0 L192 0 L192 280 L894 280 C1086 280 1160 372 1160 490 C1160 605 1086 700 894 700 L126 700 L126 0 Z M892 640 C1041 640 1091 572 1091 490 C1091 405 1041 340 892 340 L192 340 L192 640 L892 640 Z " />
<glyph glyph-name="Sigma" unicode="&#x3a3;" horiz-adv-x="1177" d="M84 649 L594 350 L84 51 L84 0 L1093 0 L1093 60 L215 60 L708 350 L215 640 L1093 640 L1093 700 L84 700 L84 649 Z " />
<glyph glyph-name="Tau" unicode="&#x3a4;" horiz-adv-x="1184" d="M34 640 L559 640 L559 0 L625 0 L625 640 L1150 640 L1150 700 L34 700 L34 640 Z " />
<glyph glyph-name="Upsilon" unicode="&#x3a5;" horiz-adv-x="1245" d="M589 0 L655 0 L655 211 L1241 700 L1142 700 L622 263 L102 700 L4 700 L589 211 L589 0 Z " />
<glyph glyph-name="Phi" unicode="&#x3a6;" horiz-adv-x="1305" d="M880 62 C1144 62 1245 188 1245 350 C1245 508 1144 638 880 638 L685 638 L685 750 L619 750 L619 638 L425 638 C161 638 60 508 60 350 C60 188 161 62 425 62 L619 62 L619 -50 L685 -50 L685 62 L880 62 Z M879 578 C1100 578 1175 475 1175 350 C1175 222 1100 122 879 122 L685 122 L685 578 L879 578 Z M130 350 C130 475 205 578 426 578 L619 578 L619 122 L426 122 C205 122 130 222 130 350 L130 350 Z " />
<glyph glyph-name="Chi" unicode="&#x3a7;" horiz-adv-x="1228" d="M26 700 L560 351 L21 0 L129 0 L614 318 L1099 0 L1207 0 L668 351 L1202 700 L1094 700 L614 385 L134 700 L26 700 Z " />
<glyph glyph-name="Psi" unicode="&#x3a8;" horiz-adv-x="1296" d="M615 0 L681 0 L681 153 L809 153 C1126 153 1230 290 1230 483 L1230 700 L1164 700 L1164 483 C1164 324 1080 213 808 213 L681 213 L681 700 L615 700 L615 213 L488 213 C216 213 132 324 132 483 L132 700 L66 700 L66 483 C66 290 170 153 487 153 L615 153 L615 0 Z " />
<glyph glyph-name="Omega" unicode="&#x3a9;" horiz-adv-x="1356" d="M851 0 L1283 0 L1283 60 L1014 60 C1183 126 1253 257 1253 391 C1253 567 1139 710 850 710 L506 710 C217 710 103 567 103 391 C103 257 171 126 342 60 L73 60 L73 0 L505 0 L505 51 C259 96 167 231 167 377 C167 528 259 650 517 650 L839 650 C1097 650 1189 528 1189 377 C1189 232 1097 96 851 51 L851 0 Z " />
<glyph glyph-name="Iotadieresis" unicode="&#x3aa;" horiz-adv-x="318" d="M126 0 L192 0 L192 700 L126 700 L126 0 Z M250 823 L324 823 L324 897 L250 897 L250 823 Z M-6 823 L68 823 L68 897 L-6 897 L-6 823 Z " />
<glyph glyph-name="Upsilondieresis" unicode="&#x3ab;" horiz-adv-x="1245" d="M589 0 L655 0 L655 211 L1241 700 L1142 700 L622 263 L102 700 L4 700 L589 211 L589 0 Z M714 823 L788 823 L788 897 L714 897 L714 823 Z M458 823 L532 823 L532 897 L458 897 L458 823 Z " />
<glyph glyph-name="alphatonos" unicode="&#x3ac;" horiz-adv-x="1084" d="M994 0 L1069 0 L575 560 L509 560 L15 0 L90 0 L195 119 L889 119 L994 0 Z M542 511 L846 167 L238 167 L542 511 Z M127 360 L160 360 L182 560 L105 560 L127 360 Z " />
<glyph glyph-name="epsilontonos" unicode="&#x3ad;" horiz-adv-x="1185" d="M59 360 L92 360 L114 560 L37 560 L59 360 Z M267 0 L1108 0 L1108 53 L327 53 L327 256 L1021 256 L1021 304 L327 304 L327 507 L1108 507 L1108 560 L267 560 L267 0 Z " />
<glyph glyph-name="etatonos" unicode="&#x3ae;" horiz-adv-x="1279" d="M59 360 L92 360 L114 560 L37 560 L59 360 Z M1103 0 L1163 0 L1163 560 L1103 560 L1103 307 L327 307 L327 560 L267 560 L267 0 L327 0 L327 253 L1103 253 L1103 0 Z " />
<glyph glyph-name="iotatonos" unicode="&#x3af;" horiz-adv-x="443" d="M59 360 L92 360 L114 560 L37 560 L59 360 Z M267 0 L327 0 L327 560 L267 560 L267 0 Z " />
<glyph glyph-name="upsilondieresistonos" unicode="&#x3b0;" horiz-adv-x="1060" d="M653 684 L726 684 L726 757 L653 757 L653 684 Z M336 684 L409 684 L409 757 L336 757 L336 684 Z M516 635 L544 635 L566 835 L496 835 L516 635 Z M500 0 L561 0 L561 170 L1056 560 L967 560 L530 215 L93 560 L4 560 L500 170 L500 0 Z " />
<glyph glyph-name="alpha" unicode="&#x3b1;" horiz-adv-x="1084" d="M994 0 L1069 0 L575 560 L509 560 L15 0 L90 0 L195 119 L889 119 L994 0 Z M542 511 L846 167 L238 167 L542 511 Z " />
<glyph glyph-name="beta" unicode="&#x3b2;" horiz-adv-x="1084" d="M116 0 L818 0 C960 0 1008 64 1008 146 C1008 215 972 272 872 288 C941 308 966 358 966 417 C966 497 918 560 778 560 L116 560 L116 0 Z M804 256 C913 256 944 210 944 154 C944 98 913 53 804 53 L176 53 L176 256 L804 256 Z M769 304 L176 304 L176 507 L763 507 C870 507 903 461 903 406 C903 350 873 304 769 304 L769 304 Z " />
<glyph glyph-name="gamma" unicode="&#x3b3;" horiz-adv-x="987" d="M116 0 L176 0 L176 507 L940 507 L940 560 L116 560 L116 0 Z " />
<glyph glyph-name="delta" unicode="&#x3b4;" horiz-adv-x="1084" d="M575 560 L509 560 L15 0 L1069 0 L575 560 Z M542 513 L954 53 L130 53 L542 513 Z " />
<glyph glyph-name="epsilon" unicode="&#x3b5;" horiz-adv-x="1034" d="M116 0 L957 0 L957 53 L176 53 L176 256 L870 256 L870 304 L176 304 L176 507 L957 507 L957 560 L116 560 L116 0 Z " />
<glyph glyph-name="zeta" unicode="&#x3b6;" horiz-adv-x="1023" d="M69 0 L964 0 L964 53 L184 53 L947 518 L947 560 L78 560 L78 507 L831 507 L69 42 L69 0 Z " />
<glyph glyph-name="eta" unicode="&#x3b7;" horiz-adv-x="1128" d="M952 0 L1012 0 L1012 560 L952 560 L952 307 L176 307 L176 560 L116 560 L116 0 L176 0 L176 253 L952 253 L952 0 Z " />
<glyph glyph-name="theta" unicode="&#x3b8;" horiz-adv-x="1156" d="M292 256 L863 256 L863 304 L292 304 L292 256 Z M706 -8 C983 -8 1084 121 1084 280 C1084 439 983 568 706 568 L450 568 C173 568 72 439 72 280 C72 121 173 -8 450 -8 L706 -8 Z M451 45 C213 45 135 150 135 280 C135 410 213 515 451 515 L705 515 C944 515 1020 410 1020 280 C1020 150 944 45 705 45 L451 45 Z " />
<glyph glyph-name="iota" unicode="&#x3b9;" horiz-adv-x="292" d="M116 0 L176 0 L176 560 L116 560 L116 0 Z " />
<glyph glyph-name="kappa" unicode="&#x3ba;" horiz-adv-x="1110" d="M1024 560 L912 560 L176 175 L176 560 L116 560 L116 0 L176 0 L176 115 L474 271 L987 0 L1096 0 L529 300 L1024 560 Z " />
<glyph glyph-name="lambda" unicode="&#x3bb;" horiz-adv-x="1084" d="M509 560 L15 0 L92 0 L542 511 L992 0 L1069 0 L575 560 L509 560 Z " />
<glyph glyph-name="mu" unicode="&#x3bc;" horiz-adv-x="1248" d="M1075 560 L624 104 L173 560 L116 560 L116 0 L176 0 L176 479 L624 25 L1072 479 L1072 0 L1132 0 L1132 560 L1075 560 Z " />
<glyph glyph-name="nu" unicode="&#x3bd;" horiz-adv-x="1127" d="M1011 0 L1011 560 L951 560 L951 68 L173 560 L116 560 L116 0 L176 0 L176 492 L954 0 L1011 0 Z " />
<glyph glyph-name="xi" unicode="&#x3be;" horiz-adv-x="1038" d="M77 507 L961 507 L961 560 L77 560 L77 507 Z M961 53 L77 53 L77 0 L961 0 L961 53 Z M156 256 L882 256 L882 304 L156 304 L156 256 Z " />
<glyph glyph-name="omicron" unicode="&#x3bf;" horiz-adv-x="1156" d="M706 -8 C983 -8 1084 121 1084 280 C1084 439 983 568 706 568 L450 568 C173 568 72 439 72 280 C72 121 173 -8 450 -8 L706 -8 Z M451 45 C213 45 135 150 135 280 C135 410 213 515 451 515 L705 515 C944 515 1020 410 1020 280 C1020 150 944 45 705 45 L451 45 Z " />
<glyph glyph-name="pi" unicode="&#x3c0;" horiz-adv-x="1128" d="M952 0 L1012 0 L1012 560 L116 560 L116 0 L176 0 L176 507 L952 507 L952 0 Z " />
<glyph glyph-name="rho" unicode="&#x3c1;" horiz-adv-x="1042" d="M116 0 L176 0 L176 221 L775 221 C939 221 996 295 996 391 C996 484 939 560 775 560 L116 560 L116 0 Z M773 507 C897 507 933 455 933 391 C933 325 897 275 773 275 L176 275 L176 507 L773 507 Z " />
<glyph glyph-name="uni03C2" unicode="&#x3c2;" horiz-adv-x="1010" d="M76 515 L506 280 L76 45 L76 0 L934 0 L934 53 L195 53 L610 280 L195 507 L934 507 L934 560 L76 560 L76 515 Z " />
<glyph glyph-name="sigma" unicode="&#x3c3;" horiz-adv-x="1010" d="M76 515 L506 280 L76 45 L76 0 L934 0 L934 53 L195 53 L610 280 L195 507 L934 507 L934 560 L76 560 L76 515 Z " />
<glyph glyph-name="tau" unicode="&#x3c4;" horiz-adv-x="1042" d="M47 507 L491 507 L491 0 L551 0 L551 507 L995 507 L995 560 L47 560 L47 507 Z " />
<glyph glyph-name="upsilon" unicode="&#x3c5;" horiz-adv-x="1060" d="M500 0 L561 0 L561 170 L1056 560 L967 560 L530 215 L93 560 L4 560 L500 170 L500 0 Z " />
<glyph glyph-name="phi" unicode="&#x3c6;" horiz-adv-x="1130" d="M765 50 C989 50 1069 150 1069 280 C1069 406 989 510 765 510 L595 510 L595 600 L534 600 L534 510 L365 510 C141 510 61 406 61 280 C61 150 141 50 365 50 L534 50 L534 -40 L595 -40 L595 50 L765 50 Z M764 457 C947 457 1006 377 1006 280 C1006 180 947 103 764 103 L595 103 L595 457 L764 457 Z M124 280 C124 377 183 457 366 457 L534 457 L534 103 L366 103 C183 103 124 180 124 280 L124 280 Z " />
<glyph glyph-name="chi" unicode="&#x3c7;" horiz-adv-x="1066" d="M32 560 L485 282 L27 0 L128 0 L533 251 L938 0 L1039 0 L581 282 L1035 560 L934 560 L533 313 L133 560 L32 560 Z " />
<glyph glyph-name="psi" unicode="&#x3c8;" horiz-adv-x="1116" d="M527 0 L588 0 L588 121 L701 121 C970 121 1053 231 1053 385 L1053 560 L993 560 L993 385 C993 261 928 174 700 174 L588 174 L588 560 L527 560 L527 174 L415 174 C187 174 123 261 123 385 L123 560 L63 560 L63 385 C63 231 145 121 414 121 L527 121 L527 0 Z " />
<glyph glyph-name="omega" unicode="&#x3c9;" horiz-adv-x="1170" d="M731 0 L1100 0 L1100 53 L878 53 C1017 106 1074 209 1074 313 C1074 454 985 568 739 568 L430 568 C185 568 96 454 96 313 C96 209 151 106 290 53 L70 53 L70 0 L438 0 L438 45 C231 80 154 186 154 300 C154 419 223 515 440 515 L730 515 C947 515 1016 419 1016 300 C1016 186 938 80 731 45 L731 0 Z " />
<glyph glyph-name="iotadieresis" unicode="&#x3ca;" horiz-adv-x="292" d="M116 0 L176 0 L176 560 L116 560 L116 0 Z M237 683 L311 683 L311 757 L237 757 L237 683 Z M-19 683 L55 683 L55 757 L-19 757 L-19 683 Z " />
<glyph glyph-name="upsilondieresis" unicode="&#x3cb;" horiz-adv-x="1060" d="M500 0 L561 0 L561 170 L1056 560 L967 560 L530 215 L93 560 L4 560 L500 170 L500 0 Z M622 683 L696 683 L696 757 L622 757 L622 683 Z M366 683 L440 683 L440 757 L366 757 L366 683 Z " />
<glyph glyph-name="omicrontonos" unicode="&#x3cc;" horiz-adv-x="1289" d="M59 360 L92 360 L114 560 L37 560 L59 360 Z M839 -8 C1116 -8 1217 121 1217 280 C1217 439 1116 568 839 568 L583 568 C306 568 205 439 205 280 C205 121 306 -8 583 -8 L839 -8 Z M584 45 C346 45 268 150 268 280 C268 410 346 515 584 515 L838 515 C1077 515 1153 410 1153 280 C1153 150 1077 45 838 45 L584 45 Z " />
<glyph glyph-name="upsilontonos" unicode="&#x3cd;" horiz-adv-x="1223" d="M59 360 L92 360 L114 560 L37 560 L59 360 Z M663 0 L724 0 L724 170 L1219 560 L1130 560 L693 215 L256 560 L167 560 L663 170 L663 0 Z " />
<glyph glyph-name="omegatonos" unicode="&#x3ce;" horiz-adv-x="1284" d="M59 360 L92 360 L114 560 L37 560 L59 360 Z M845 0 L1214 0 L1214 53 L992 53 C1131 106 1188 209 1188 313 C1188 454 1099 568 853 568 L544 568 C299 568 210 454 210 313 C210 209 265 106 404 53 L184 53 L184 0 L552 0 L552 45 C345 80 268 186 268 300 C268 419 337 515 554 515 L844 515 C1061 515 1130 419 1130 300 C1130 186 1052 80 845 45 L845 0 Z " />
<glyph glyph-name="uni0400" unicode="&#x400;" horiz-adv-x="1199" d="M126 0 L1115 0 L1115 60 L192 60 L192 322 L1013 322 L1013 378 L192 378 L192 640 L1115 640 L1115 700 L126 700 L126 0 Z M560 946 L480 946 L628 775 L671 775 L560 946 Z " />
<glyph glyph-name="uni0401" unicode="&#x401;" horiz-adv-x="1199" d="M126 0 L1115 0 L1115 60 L192 60 L192 322 L1013 322 L1013 378 L192 378 L192 640 L1115 640 L1115 700 L126 700 L126 0 Z M700 823 L774 823 L774 897 L700 897 L700 823 Z M444 823 L518 823 L518 897 L444 897 L444 823 Z " />
<glyph glyph-name="uni0402" unicode="&#x402;" horiz-adv-x="1354" d="M731 0 L1077 0 C1251 0 1318 84 1318 189 C1318 295 1251 378 1077 378 L410 378 L410 640 L953 640 L953 700 L34 700 L34 640 L344 640 L344 0 L410 0 L410 322 L1075 322 C1206 322 1249 264 1249 191 C1249 120 1206 60 1075 60 L731 60 L731 0 Z " />
<glyph glyph-name="uni0403" unicode="&#x403;" horiz-adv-x="1129" d="M126 0 L192 0 L192 640 L1095 640 L1095 700 L126 700 L126 0 Z M543 775 L586 775 L734 946 L654 946 L543 775 Z " />
<glyph glyph-name="uni0404" unicode="&#x404;" horiz-adv-x="1184" d="M998 322 L998 378 L149 378 C159 523 263 640 521 640 L1100 640 L1100 700 L520 700 C203 700 79 543 79 350 C79 157 203 0 520 0 L1100 0 L1100 60 L521 60 C263 60 159 175 149 322 L998 322 Z " />
<glyph glyph-name="uni0405" unicode="&#x405;" horiz-adv-x="1207" d="M116 0 L890 0 C1064 0 1131 84 1131 189 C1131 295 1064 378 890 378 L318 378 C188 378 145 436 145 509 C145 580 188 640 318 640 L1091 640 L1091 700 L317 700 C143 700 76 616 76 511 C76 405 143 322 317 322 L889 322 C1019 322 1062 264 1062 191 C1062 120 1019 60 889 60 L116 60 L116 0 Z " />
<glyph glyph-name="uni0406" unicode="&#x406;" horiz-adv-x="318" d="M126 0 L192 0 L192 700 L126 700 L126 0 Z " />
<glyph glyph-name="uni0407" unicode="&#x407;" horiz-adv-x="318" d="M126 0 L192 0 L192 700 L126 700 L126 0 Z M250 823 L324 823 L324 897 L250 897 L250 823 Z M-6 823 L68 823 L68 897 L-6 897 L-6 823 Z " />
<glyph glyph-name="uni0408" unicode="&#x408;" horiz-adv-x="1231" d="M389 -5 L684 -5 C1001 -5 1105 132 1105 325 L1105 700 L1039 700 L1039 325 C1039 166 955 55 683 55 L390 55 C180 55 112 153 112 275 L112 318 L46 318 L46 275 C46 121 135 -5 389 -5 L389 -5 Z " />
<glyph glyph-name="uni0409" unicode="&#x409;" horiz-adv-x="1862" d="M314 700 L242 186 C232 114 196 60 77 60 L34 60 L34 0 L73 0 C241 0 293 77 308 186 L371 640 L919 640 L919 0 L1560 0 C1752 0 1826 92 1826 210 C1826 325 1752 420 1560 420 L985 420 L985 700 L314 700 Z M1558 360 C1707 360 1757 292 1757 210 C1757 125 1707 60 1558 60 L985 60 L985 360 L1558 360 Z " />
<glyph glyph-name="uni040A" unicode="&#x40a;" horiz-adv-x="1876" d="M933 0 L1574 0 C1766 0 1840 92 1840 210 C1840 325 1766 420 1574 420 L999 420 L999 700 L933 700 L933 420 L192 420 L192 700 L126 700 L126 0 L192 0 L192 360 L933 360 L933 0 Z M1572 360 C1721 360 1771 292 1771 210 C1771 125 1721 60 1572 60 L999 60 L999 360 L1572 360 Z " />
<glyph glyph-name="uni040B" unicode="&#x40b;" horiz-adv-x="1384" d="M1318 0 L1318 185 C1318 293 1267 377 1091 377 L410 377 L410 640 L953 640 L953 700 L34 700 L34 640 L344 640 L344 0 L410 0 L410 316 L1091 316 C1222 316 1252 257 1252 181 L1252 0 L1318 0 Z " />
<glyph glyph-name="uni040C" unicode="&#x40c;" horiz-adv-x="1285" d="M640 352 L1191 700 L1086 700 L579 380 L192 380 L192 700 L126 700 L126 0 L192 0 L192 320 L577 320 L1159 0 L1276 0 L640 352 Z M516 775 L559 775 L707 946 L627 946 L516 775 Z " />
<glyph glyph-name="uni040D" unicode="&#x40d;" horiz-adv-x="1304" d="M1112 623 L1112 0 L1178 0 L1178 700 L1115 700 L192 77 L192 700 L126 700 L126 0 L189 0 L1112 623 Z M602 946 L522 946 L670 775 L713 775 L602 946 Z " />
<glyph glyph-name="uni040E" unicode="&#x40e;" horiz-adv-x="1249" d="M421 0 L1247 700 L1151 700 L632 256 L103 700 L6 700 L587 216 L327 0 L421 0 Z M633 835 C547 835 515 880 510 932 L472 932 C478 863 514 789 633 789 C750 789 787 863 793 932 L755 932 C750 880 719 835 633 835 L633 835 Z " />
<glyph glyph-name="uni040F" unicode="&#x40f;" horiz-adv-x="1305" d="M1113 60 L192 60 L192 700 L126 700 L126 0 L620 0 L620 -150 L686 -150 L686 0 L1179 0 L1179 700 L1113 700 L1113 60 Z " />
<glyph glyph-name="uni0410" unicode="&#x410;" horiz-adv-x="1266" d="M1170 0 L1252 0 L669 700 L597 700 L14 0 L96 0 L215 144 L1050 144 L1170 0 Z M633 646 L1003 200 L262 200 L633 646 Z " />
<glyph glyph-name="uni0411" unicode="&#x411;" horiz-adv-x="1236" d="M126 0 L919 0 C1093 0 1160 84 1160 189 C1160 295 1093 378 919 378 L192 378 L192 640 L1095 640 L1095 700 L126 700 L126 0 Z M917 322 C1048 322 1091 264 1091 191 C1091 120 1048 60 917 60 L192 60 L192 322 L917 322 Z " />
<glyph glyph-name="uni0412" unicode="&#x412;" horiz-adv-x="1259" d="M126 0 L945 0 C1111 0 1175 80 1175 182 C1175 268 1127 340 1009 359 C1090 384 1125 447 1125 521 C1125 621 1062 700 897 700 L126 700 L126 0 Z M930 322 C1061 322 1105 263 1105 191 C1105 118 1061 60 930 60 L192 60 L192 322 L930 322 Z M1057 509 C1057 437 1014 378 889 378 L192 378 L192 640 L882 640 C1010 640 1057 581 1057 509 L1057 509 Z " />
<glyph glyph-name="uni0413" unicode="&#x413;" horiz-adv-x="1129" d="M126 0 L192 0 L192 640 L1095 640 L1095 700 L126 700 L126 0 Z " />
<glyph glyph-name="uni0414" unicode="&#x414;" horiz-adv-x="1250" d="M100 0 L1115 0 L1115 -150 L1181 -150 L1181 60 L1094 60 L1094 700 L314 700 L242 186 C232 115 197 60 81 60 L34 60 L34 -150 L100 -150 L100 0 Z M310 199 L371 640 L1028 640 L1028 60 L222 60 C279 86 301 137 310 199 L310 199 Z " />
<glyph glyph-name="uni0415" unicode="&#x415;" horiz-adv-x="1199" d="M126 0 L1115 0 L1115 60 L192 60 L192 322 L1013 322 L1013 378 L192 378 L192 640 L1115 640 L1115 700 L126 700 L126 0 Z " />
<glyph glyph-name="uni0416" unicode="&#x416;" horiz-adv-x="1621" d="M1091 351 L1539 700 L1446 700 L1033 380 L843 380 L843 700 L777 700 L777 380 L588 380 L175 700 L82 700 L530 351 L24 0 L124 0 L589 320 L777 320 L777 0 L843 0 L843 320 L1032 320 L1497 0 L1597 0 L1091 351 Z " />
<glyph glyph-name="uni0417" unicode="&#x417;" horiz-adv-x="1269" d="M74 0 L955 0 C1121 0 1185 80 1185 182 C1185 268 1137 340 1019 359 C1100 384 1135 447 1135 521 C1135 621 1072 700 907 700 L94 700 L94 640 L892 640 C1023 640 1067 580 1067 509 C1067 437 1024 378 899 378 L181 378 L181 322 L940 322 C1071 322 1115 263 1115 191 C1115 118 1071 60 940 60 L74 60 L74 0 Z " />
<glyph glyph-name="uni0418" unicode="&#x418;" horiz-adv-x="1304" d="M1112 623 L1112 0 L1178 0 L1178 700 L1115 700 L192 77 L192 700 L126 700 L126 0 L189 0 L1112 623 Z " />
<glyph glyph-name="uni0419" unicode="&#x419;" horiz-adv-x="1304" d="M1112 623 L1112 0 L1178 0 L1178 700 L1115 700 L192 77 L192 700 L126 700 L126 0 L189 0 L1112 623 Z M652 835 C566 835 534 880 529 932 L491 932 C497 863 533 789 652 789 C769 789 806 863 812 932 L774 932 C769 880 738 835 652 835 L652 835 Z " />
<glyph glyph-name="uni041A" unicode="&#x41a;" horiz-adv-x="1285" d="M640 352 L1191 700 L1086 700 L579 380 L192 380 L192 700 L126 700 L126 0 L192 0 L192 320 L577 320 L1159 0 L1276 0 L640 352 Z " />
<glyph glyph-name="uni041B" unicode="&#x41b;" horiz-adv-x="1257" d="M314 700 L242 186 C232 114 196 60 77 60 L34 60 L34 0 L73 0 C241 0 293 77 308 186 L371 640 L1065 640 L1065 0 L1131 0 L1131 700 L314 700 Z " />
<glyph glyph-name="uni041C" unicode="&#x41c;" horiz-adv-x="1446" d="M1257 700 L723 122 L189 700 L126 700 L126 0 L192 0 L192 609 L723 32 L1254 609 L1254 0 L1320 0 L1320 700 L1257 700 Z " />
<glyph glyph-name="uni041D" unicode="&#x41d;" horiz-adv-x="1305" d="M1113 0 L1179 0 L1179 700 L1113 700 L1113 380 L192 380 L192 700 L126 700 L126 0 L192 0 L192 320 L1113 320 L1113 0 Z " />
<glyph glyph-name="uni041E" unicode="&#x41e;" horiz-adv-x="1348" d="M815 -10 C1141 -10 1269 151 1269 350 C1269 549 1141 710 815 710 L533 710 C207 710 79 549 79 350 C79 151 207 -10 533 -10 L815 -10 Z M534 50 C251 50 149 184 149 350 C149 516 251 650 534 650 L814 650 C1097 650 1199 516 1199 350 C1199 184 1097 50 814 50 L534 50 Z " />
<glyph glyph-name="uni041F" unicode="&#x41f;" horiz-adv-x="1305" d="M1113 0 L1179 0 L1179 700 L126 700 L126 0 L192 0 L192 640 L1113 640 L1113 0 Z " />
<glyph glyph-name="uni0420" unicode="&#x420;" horiz-adv-x="1196" d="M126 0 L192 0 L192 280 L894 280 C1086 280 1160 372 1160 490 C1160 605 1086 700 894 700 L126 700 L126 0 Z M892 640 C1041 640 1091 572 1091 490 C1091 405 1041 340 892 340 L192 340 L192 640 L892 640 Z " />
<glyph glyph-name="uni0421" unicode="&#x421;" horiz-adv-x="1184" d="M149 350 C149 510 247 640 521 640 L1100 640 L1100 700 L520 700 C203 700 79 543 79 350 C79 157 203 0 520 0 L1100 0 L1100 60 L521 60 C247 60 149 190 149 350 L149 350 Z " />
<glyph glyph-name="uni0422" unicode="&#x422;" horiz-adv-x="1184" d="M34 640 L559 640 L559 0 L625 0 L625 640 L1150 640 L1150 700 L34 700 L34 640 Z " />
<glyph glyph-name="uni0423" unicode="&#x423;" horiz-adv-x="1249" d="M421 0 L1247 700 L1151 700 L632 256 L103 700 L6 700 L587 216 L327 0 L421 0 Z " />
<glyph glyph-name="uni0424" unicode="&#x424;" horiz-adv-x="1305" d="M880 62 C1144 62 1245 188 1245 350 C1245 508 1144 638 880 638 L685 638 L685 750 L619 750 L619 638 L425 638 C161 638 60 508 60 350 C60 188 161 62 425 62 L619 62 L619 -50 L685 -50 L685 62 L880 62 Z M879 578 C1100 578 1175 475 1175 350 C1175 222 1100 122 879 122 L685 122 L685 578 L879 578 Z M130 350 C130 475 205 578 426 578 L619 578 L619 122 L426 122 C205 122 130 222 130 350 L130 350 Z " />
<glyph glyph-name="uni0425" unicode="&#x425;" horiz-adv-x="1228" d="M26 700 L560 351 L21 0 L129 0 L614 318 L1099 0 L1207 0 L668 351 L1202 700 L1094 700 L614 385 L134 700 L26 700 Z " />
<glyph glyph-name="uni0426" unicode="&#x426;" horiz-adv-x="1297" d="M1076 60 L192 60 L192 700 L126 700 L126 0 L1162 0 L1162 -150 L1228 -150 L1228 60 L1142 60 L1142 700 L1076 700 L1076 60 Z " />
<glyph glyph-name="uni0427" unicode="&#x427;" horiz-adv-x="1226" d="M66 700 L66 469 C66 362 117 278 293 278 L1034 278 L1034 0 L1100 0 L1100 700 L1034 700 L1034 338 L293 338 C162 338 132 398 132 474 L132 700 L66 700 Z " />
<glyph glyph-name="uni0428" unicode="&#x428;" horiz-adv-x="1599" d="M1407 60 L832 60 L832 700 L766 700 L766 60 L192 60 L192 700 L126 700 L126 0 L1473 0 L1473 700 L1407 700 L1407 60 Z " />
<glyph glyph-name="uni0429" unicode="&#x429;" horiz-adv-x="1593" d="M1371 60 L814 60 L814 700 L748 700 L748 60 L192 60 L192 700 L126 700 L126 0 L1458 0 L1458 -150 L1524 -150 L1524 60 L1437 60 L1437 700 L1371 700 L1371 60 Z " />
<glyph glyph-name="uni042A" unicode="&#x42a;" horiz-adv-x="1354" d="M34 640 L344 640 L344 0 L1052 0 C1244 0 1318 92 1318 210 C1318 326 1244 420 1052 420 L410 420 L410 700 L34 700 L34 640 Z M1050 360 C1199 360 1249 293 1249 210 C1249 125 1198 60 1050 60 L410 60 L410 360 L1050 360 Z " />
<glyph glyph-name="uni042B" unicode="&#x42b;" horiz-adv-x="1514" d="M126 0 L894 0 C1086 0 1160 91 1160 210 C1160 325 1086 420 894 420 L192 420 L192 700 L126 700 L126 0 Z M892 360 C1041 360 1091 292 1091 210 C1091 125 1040 60 892 60 L192 60 L192 360 L892 360 Z M1322 0 L1388 0 L1388 700 L1322 700 L1322 0 Z " />
<glyph glyph-name="uni042C" unicode="&#x42c;" horiz-adv-x="1196" d="M126 0 L894 0 C1086 0 1160 91 1160 210 C1160 325 1086 420 894 420 L192 420 L192 700 L126 700 L126 0 Z M892 360 C1041 360 1091 292 1091 210 C1091 125 1040 60 892 60 L192 60 L192 360 L892 360 Z " />
<glyph glyph-name="uni042D" unicode="&#x42d;" horiz-adv-x="1184" d="M186 322 L1035 322 C1024 175 920 60 663 60 L84 60 L84 0 L664 0 C981 0 1105 157 1105 350 C1105 543 981 700 664 700 L84 700 L84 640 L663 640 C920 640 1024 523 1035 378 L186 378 L186 322 Z " />
<glyph glyph-name="uni042E" unicode="&#x42e;" horiz-adv-x="1879" d="M1346 -10 C1672 -10 1800 151 1800 350 C1800 549 1672 710 1346 710 L1114 710 C804 710 674 564 662 380 L192 380 L192 700 L126 700 L126 0 L192 0 L192 320 L662 320 C674 135 804 -10 1114 -10 L1346 -10 Z M1115 50 C832 50 730 184 730 350 C730 516 832 650 1115 650 L1345 650 C1628 650 1730 516 1730 350 C1730 184 1628 50 1345 50 L1115 50 Z " />
<glyph glyph-name="uni042F" unicode="&#x42f;" horiz-adv-x="1277" d="M1159 700 L408 700 C216 700 142 606 142 491 C142 373 216 282 408 282 L530 282 L17 0 L133 0 L637 281 L1093 281 L1093 0 L1159 0 L1159 700 Z M1093 640 L1093 339 L411 339 C262 339 211 405 211 490 C211 572 262 640 411 640 L1093 640 Z " />
<glyph glyph-name="uni0430" unicode="&#x430;" horiz-adv-x="1084" d="M994 0 L1069 0 L575 560 L509 560 L15 0 L90 0 L195 119 L889 119 L994 0 Z M542 511 L846 167 L238 167 L542 511 Z " />
<glyph glyph-name="uni0431" unicode="&#x431;" horiz-adv-x="1064" d="M116 0 L796 0 C945 0 996 68 996 152 C996 238 945 304 796 304 L176 304 L176 507 L940 507 L940 560 L116 560 L116 0 Z M792 256 C901 256 933 211 933 154 C933 99 902 53 792 53 L176 53 L176 256 L792 256 Z " />
<glyph glyph-name="uni0432" unicode="&#x432;" horiz-adv-x="1084" d="M116 0 L818 0 C960 0 1008 64 1008 146 C1008 215 972 272 872 288 C941 308 966 358 966 417 C966 497 918 560 778 560 L116 560 L116 0 Z M804 256 C913 256 944 210 944 154 C944 98 913 53 804 53 L176 53 L176 256 L804 256 Z M769 304 L176 304 L176 507 L763 507 C870 507 903 461 903 406 C903 350 873 304 769 304 L769 304 Z " />
<glyph glyph-name="uni0433" unicode="&#x433;" horiz-adv-x="987" d="M116 0 L176 0 L176 507 L940 507 L940 560 L116 560 L116 0 Z " />
<glyph glyph-name="uni0434" unicode="&#x434;" horiz-adv-x="1087" d="M107 0 L963 0 L963 -120 L1023 -120 L1023 53 L949 53 L949 560 L285 560 L223 151 C215 96 186 53 89 53 L47 53 L47 -120 L107 -120 L107 0 Z M285 164 L337 507 L889 507 L889 53 L212 53 C260 74 278 115 285 164 L285 164 Z " />
<glyph glyph-name="uni0435" unicode="&#x435;" horiz-adv-x="1034" d="M116 0 L957 0 L957 53 L176 53 L176 256 L870 256 L870 304 L176 304 L176 507 L957 507 L957 560 L116 560 L116 0 Z " />
<glyph glyph-name="uni0436" unicode="&#x436;" horiz-adv-x="1394" d="M942 280 L1317 560 L1232 560 L891 307 L727 307 L727 560 L667 560 L667 307 L503 307 L162 560 L77 560 L452 280 L28 0 L119 0 L505 253 L667 253 L667 0 L727 0 L727 253 L890 253 L1274 0 L1366 0 L942 280 Z " />
<glyph glyph-name="uni0437" unicode="&#x437;" horiz-adv-x="1089" d="M68 0 L823 0 C964 0 1013 64 1013 146 C1013 215 976 272 877 288 C945 308 970 358 970 417 C970 497 923 560 782 560 L85 560 L85 507 L770 507 C879 507 910 461 910 406 C910 350 880 304 776 304 L159 304 L159 256 L810 256 C920 256 951 210 951 154 C951 98 920 53 810 53 L68 53 L68 0 Z " />
<glyph glyph-name="uni0438" unicode="&#x438;" horiz-adv-x="1127" d="M951 492 L951 0 L1011 0 L1011 560 L954 560 L176 68 L176 560 L116 560 L116 0 L173 0 L951 492 Z " />
<glyph glyph-name="uni0439" unicode="&#x439;" horiz-adv-x="1127" d="M951 492 L951 0 L1011 0 L1011 560 L954 560 L176 68 L176 560 L116 560 L116 0 L173 0 L951 492 Z M564 695 C478 695 446 740 441 792 L403 792 C409 723 445 649 564 649 C681 649 718 723 724 792 L686 792 C681 740 650 695 564 695 L564 695 Z " />
<glyph glyph-name="uni043A" unicode="&#x43a;" horiz-adv-x="1111" d="M557 281 L1022 560 L925 560 L500 307 L176 307 L176 560 L116 560 L116 0 L176 0 L176 253 L500 253 L988 0 L1095 0 L557 281 Z " />
<glyph glyph-name="uni043B" unicode="&#x43b;" horiz-adv-x="1096" d="M285 560 L223 151 C215 95 185 53 85 53 L47 53 L47 0 L82 0 C225 0 271 62 284 151 L337 507 L920 507 L920 0 L980 0 L980 560 L285 560 Z " />
<glyph glyph-name="uni043C" unicode="&#x43c;" horiz-adv-x="1248" d="M1075 560 L624 104 L173 560 L116 560 L116 0 L176 0 L176 479 L624 25 L1072 479 L1072 0 L1132 0 L1132 560 L1075 560 Z " />
<glyph glyph-name="uni043D" unicode="&#x43d;" horiz-adv-x="1128" d="M952 0 L1012 0 L1012 560 L952 560 L952 307 L176 307 L176 560 L116 560 L116 0 L176 0 L176 253 L952 253 L952 0 Z " />
<glyph glyph-name="uni043E" unicode="&#x43e;" horiz-adv-x="1156" d="M706 -8 C983 -8 1084 121 1084 280 C1084 439 983 568 706 568 L450 568 C173 568 72 439 72 280 C72 121 173 -8 450 -8 L706 -8 Z M451 45 C213 45 135 150 135 280 C135 410 213 515 451 515 L705 515 C944 515 1020 410 1020 280 C1020 150 944 45 705 45 L451 45 Z " />
<glyph glyph-name="uni043F" unicode="&#x43f;" horiz-adv-x="1128" d="M952 0 L1012 0 L1012 560 L116 560 L116 0 L176 0 L176 507 L952 507 L952 0 Z " />
<glyph glyph-name="uni0440" unicode="&#x440;" horiz-adv-x="1042" d="M116 0 L176 0 L176 221 L775 221 C939 221 996 295 996 391 C996 484 939 560 775 560 L116 560 L116 0 Z M773 507 C897 507 933 455 933 391 C933 325 897 275 773 275 L176 275 L176 507 L773 507 Z " />
<glyph glyph-name="uni0441" unicode="&#x441;" horiz-adv-x="1016" d="M136 280 C136 405 209 507 439 507 L940 507 L940 560 L439 560 C169 560 72 434 72 280 C72 126 169 0 439 0 L940 0 L940 53 L439 53 C209 53 136 155 136 280 L136 280 Z " />
<glyph glyph-name="uni0442" unicode="&#x442;" horiz-adv-x="1042" d="M47 507 L491 507 L491 0 L551 0 L551 507 L995 507 L995 560 L47 560 L47 507 Z " />
<glyph glyph-name="uni0443" unicode="&#x443;" horiz-adv-x="1064" d="M363 0 L1062 560 L974 560 L539 210 L94 560 L6 560 L498 174 L275 0 L363 0 Z " />
<glyph glyph-name="uni0444" unicode="&#x444;" horiz-adv-x="1130" d="M765 50 C989 50 1069 150 1069 280 C1069 406 989 510 765 510 L595 510 L595 600 L534 600 L534 510 L365 510 C141 510 61 406 61 280 C61 150 141 50 365 50 L534 50 L534 -40 L595 -40 L595 50 L765 50 Z M764 457 C947 457 1006 377 1006 280 C1006 180 947 103 764 103 L595 103 L595 457 L764 457 Z M124 280 C124 377 183 457 366 457 L534 457 L534 103 L366 103 C183 103 124 180 124 280 L124 280 Z " />
<glyph glyph-name="uni0445" unicode="&#x445;" horiz-adv-x="1066" d="M32 560 L485 282 L27 0 L128 0 L533 251 L938 0 L1039 0 L581 282 L1035 560 L934 560 L533 313 L133 560 L32 560 Z " />
<glyph glyph-name="uni0446" unicode="&#x446;" horiz-adv-x="1118" d="M920 53 L176 53 L176 560 L116 560 L116 0 L994 0 L994 -120 L1054 -120 L1054 53 L980 53 L980 560 L920 560 L920 53 Z " />
<glyph glyph-name="uni0447" unicode="&#x447;" horiz-adv-x="1058" d="M63 560 L63 374 C63 287 104 220 254 220 L882 220 L882 0 L942 0 L942 560 L882 560 L882 273 L253 273 C147 273 123 319 123 378 L123 560 L63 560 Z " />
<glyph glyph-name="uni0448" unicode="&#x448;" horiz-adv-x="1378" d="M1202 53 L719 53 L719 560 L658 560 L658 53 L176 53 L176 560 L116 560 L116 0 L1262 0 L1262 560 L1202 560 L1202 53 Z " />
<glyph glyph-name="uni0449" unicode="&#x449;" horiz-adv-x="1369" d="M1171 53 L704 53 L704 560 L643 560 L643 53 L176 53 L176 560 L116 560 L116 0 L1245 0 L1245 -120 L1305 -120 L1305 53 L1231 53 L1231 560 L1171 560 L1171 53 Z " />
<glyph glyph-name="uni044A" unicode="&#x44a;" horiz-adv-x="1185" d="M47 507 L310 507 L310 0 L918 0 C1082 0 1139 74 1139 169 C1139 263 1082 339 918 339 L370 339 L370 560 L47 560 L47 507 Z M370 53 L370 285 L915 285 C1040 285 1076 234 1076 169 C1076 103 1040 53 915 53 L370 53 Z " />
<glyph glyph-name="uni044B" unicode="&#x44b;" horiz-adv-x="1334" d="M116 0 L775 0 C939 0 996 74 996 169 C996 263 939 339 775 339 L176 339 L176 560 L116 560 L116 0 Z M772 285 C897 285 933 234 933 169 C933 103 897 53 772 53 L176 53 L176 285 L772 285 Z M1158 0 L1218 0 L1218 560 L1158 560 L1158 0 Z " />
<glyph glyph-name="uni044C" unicode="&#x44c;" horiz-adv-x="1042" d="M116 0 L775 0 C939 0 996 74 996 169 C996 263 939 339 775 339 L176 339 L176 560 L116 560 L116 0 Z M772 285 C897 285 933 234 933 169 C933 103 897 53 772 53 L176 53 L176 285 L772 285 Z " />
<glyph glyph-name="uni044D" unicode="&#x44d;" horiz-adv-x="1017" d="M883 256 C874 142 793 53 578 53 L77 53 L77 0 L578 0 C848 0 945 126 945 280 C945 434 848 560 578 560 L77 560 L77 507 L578 507 C793 507 874 417 883 304 L164 304 L164 256 L883 256 Z " />
<glyph glyph-name="uni044E" unicode="&#x44e;" horiz-adv-x="1612" d="M948 -8 L1162 -8 C1439 -8 1540 121 1540 280 C1540 439 1439 568 1162 568 L948 568 C687 568 582 453 571 307 L176 307 L176 560 L116 560 L116 0 L176 0 L176 253 L571 253 C582 106 687 -8 948 -8 L948 -8 Z M1161 515 C1399 515 1476 410 1476 280 C1476 150 1399 45 1161 45 L949 45 C711 45 634 150 634 280 C634 410 711 515 949 515 L1161 515 Z " />
<glyph glyph-name="uni044F" unicode="&#x44f;" horiz-adv-x="1105" d="M989 560 L345 560 C181 560 123 485 123 392 C123 297 181 223 345 223 L445 223 L18 0 L124 0 L544 222 L929 222 L929 0 L989 0 L989 560 Z M929 507 L929 274 L347 274 C223 274 186 325 186 390 C186 455 223 507 347 507 L929 507 Z " />
<glyph glyph-name="uni0450" unicode="&#x450;" horiz-adv-x="1034" d="M116 0 L957 0 L957 53 L176 53 L176 256 L870 256 L870 304 L176 304 L176 507 L957 507 L957 560 L116 560 L116 0 Z M479 806 L399 806 L547 635 L590 635 L479 806 Z " />
<glyph glyph-name="uni0451" unicode="&#x451;" horiz-adv-x="1034" d="M116 0 L957 0 L957 53 L176 53 L176 256 L870 256 L870 304 L176 304 L176 507 L957 507 L957 560 L116 560 L116 0 Z M620 683 L694 683 L694 757 L620 757 L620 683 Z M364 683 L438 683 L438 757 L364 757 L364 683 Z " />
<glyph glyph-name="uni0452" unicode="&#x452;" horiz-adv-x="1185" d="M640 0 L939 0 C1088 0 1139 68 1139 152 C1139 238 1088 304 939 304 L370 304 L370 507 L828 507 L828 560 L47 560 L47 507 L310 507 L310 0 L370 0 L370 256 L935 256 C1044 256 1076 211 1076 154 C1076 99 1045 53 935 53 L640 53 L640 0 Z " />
<glyph glyph-name="uni0453" unicode="&#x453;" horiz-adv-x="987" d="M116 0 L176 0 L176 507 L940 507 L940 560 L116 560 L116 0 Z M469 635 L512 635 L660 806 L580 806 L469 635 Z " />
<glyph glyph-name="uni0454" unicode="&#x454;" horiz-adv-x="1017" d="M853 256 L853 304 L134 304 C143 417 224 507 439 507 L940 507 L940 560 L439 560 C169 560 72 434 72 280 C72 126 169 0 439 0 L940 0 L940 53 L439 53 C224 53 143 142 134 256 L853 256 Z " />
<glyph glyph-name="uni0455" unicode="&#x455;" horiz-adv-x="1033" d="M102 0 L766 0 C914 0 965 68 965 152 C965 238 914 304 766 304 L270 304 C162 304 131 349 131 406 C131 461 162 507 270 507 L931 507 L931 560 L267 560 C119 560 68 492 68 408 C68 322 119 256 267 256 L763 256 C871 256 902 211 902 154 C902 99 871 53 763 53 L102 53 L102 0 Z " />
<glyph glyph-name="uni0456" unicode="&#x456;" horiz-adv-x="292" d="M116 0 L176 0 L176 560 L116 560 L116 0 Z " />
<glyph glyph-name="uni0457" unicode="&#x457;" horiz-adv-x="292" d="M116 0 L176 0 L176 560 L116 560 L116 0 Z M237 683 L311 683 L311 757 L237 757 L237 683 Z M-19 683 L55 683 L55 757 L-19 757 L-19 683 Z " />
<glyph glyph-name="uni0458" unicode="&#x458;" horiz-adv-x="1043" d="M332 -4 L597 -4 C867 -4 947 106 947 260 L947 560 L887 560 L887 260 C887 136 825 49 597 49 L333 49 C157 49 106 125 106 220 L106 256 L46 256 L46 220 C46 97 116 -4 332 -4 L332 -4 Z " />
<glyph glyph-name="uni0459" unicode="&#x459;" horiz-adv-x="1617" d="M285 560 L223 151 C215 96 184 53 85 53 L47 53 L47 0 L81 0 C225 0 270 62 283 151 L337 507 L797 507 L797 0 L1349 0 C1514 0 1571 74 1571 169 C1571 263 1514 339 1349 339 L858 339 L858 560 L285 560 Z M1347 285 C1472 285 1508 234 1508 169 C1508 103 1472 53 1347 53 L858 53 L858 285 L1347 285 Z " />
<glyph glyph-name="uni045A" unicode="&#x45a;" horiz-adv-x="1620" d="M800 0 L1353 0 C1517 0 1574 74 1574 169 C1574 263 1517 339 1353 339 L861 339 L861 560 L800 560 L800 339 L176 339 L176 560 L116 560 L116 0 L176 0 L176 285 L800 285 L800 0 Z M1350 285 C1475 285 1511 234 1511 169 C1511 103 1475 53 1350 53 L861 53 L861 285 L1350 285 Z " />
<glyph glyph-name="uni045B" unicode="&#x45b;" horiz-adv-x="1202" d="M1139 0 L1139 149 C1139 235 1101 303 951 303 L370 303 L370 507 L828 507 L828 560 L47 560 L47 507 L310 507 L310 0 L370 0 L370 250 L952 250 C1059 250 1079 204 1079 146 L1079 0 L1139 0 Z " />
<glyph glyph-name="uni045C" unicode="&#x45c;" horiz-adv-x="1111" d="M557 281 L1022 560 L925 560 L500 307 L176 307 L176 560 L116 560 L116 0 L176 0 L176 253 L500 253 L988 0 L1095 0 L557 281 Z M432 635 L475 635 L623 806 L543 806 L432 635 Z " />
<glyph glyph-name="uni045D" unicode="&#x45d;" horiz-adv-x="1127" d="M951 492 L951 0 L1011 0 L1011 560 L954 560 L176 68 L176 560 L116 560 L116 0 L173 0 L951 492 Z M514 806 L434 806 L582 635 L625 635 L514 806 Z " />
<glyph glyph-name="uni045E" unicode="&#x45e;" horiz-adv-x="1064" d="M363 0 L1062 560 L974 560 L539 210 L94 560 L6 560 L498 174 L275 0 L363 0 Z M541 695 C455 695 423 740 418 792 L380 792 C386 723 422 649 541 649 C658 649 695 723 701 792 L663 792 C658 740 627 695 541 695 L541 695 Z " />
<glyph glyph-name="uni045F" unicode="&#x45f;" horiz-adv-x="1128" d="M952 53 L176 53 L176 560 L116 560 L116 0 L534 0 L534 -120 L594 -120 L594 0 L1012 0 L1012 560 L952 560 L952 53 Z " />
<glyph glyph-name="uni0490" unicode="&#x490;" horiz-adv-x="1129" d="M1029 700 L126 700 L126 0 L192 0 L192 640 L1095 640 L1095 850 L1029 850 L1029 700 Z " />
<glyph glyph-name="uni0491" unicode="&#x491;" horiz-adv-x="987" d="M880 560 L116 560 L116 0 L176 0 L176 507 L940 507 L940 680 L880 680 L880 560 Z " />
<glyph glyph-name="uni1E00" unicode="&#x1e00;" horiz-adv-x="1266" d="M561 -160 C561 -121 593 -89 632 -89 C672 -89 704 -121 704 -160 C704 -200 672 -232 632 -232 C593 -232 561 -200 561 -160 L561 -160 Z M520 -160 C520 -220 569 -269 632 -269 C695 -269 745 -220 745 -160 C745 -100 695 -52 632 -52 C569 -52 520 -100 520 -160 L520 -160 Z M1170 0 L1252 0 L669 700 L597 700 L14 0 L96 0 L215 144 L1050 144 L1170 0 Z M633 646 L1003 200 L262 200 L633 646 Z " />
<glyph glyph-name="uni1E01" unicode="&#x1e01;" horiz-adv-x="1084" d="M470 -160 C470 -121 502 -89 541 -89 C581 -89 613 -121 613 -160 C613 -200 581 -232 541 -232 C502 -232 470 -200 470 -160 L470 -160 Z M429 -160 C429 -220 478 -269 541 -269 C604 -269 654 -220 654 -160 C654 -100 604 -52 541 -52 C478 -52 429 -100 429 -160 L429 -160 Z M994 0 L1069 0 L575 560 L509 560 L15 0 L90 0 L195 119 L889 119 L994 0 Z M542 511 L846 167 L238 167 L542 511 Z " />
<glyph glyph-name="uni1E02" unicode="&#x1e02;" horiz-adv-x="1259" d="M126 0 L945 0 C1111 0 1175 80 1175 182 C1175 268 1127 340 1009 359 C1090 384 1125 447 1125 521 C1125 621 1062 700 897 700 L126 700 L126 0 Z M930 322 C1061 322 1105 263 1105 191 C1105 118 1061 60 930 60 L192 60 L192 322 L930 322 Z M1057 509 C1057 437 1014 378 889 378 L192 378 L192 640 L882 640 C1010 640 1057 581 1057 509 L1057 509 Z M567 823 L641 823 L641 897 L567 897 L567 823 Z " />
<glyph glyph-name="uni1E03" unicode="&#x1e03;" horiz-adv-x="1084" d="M116 0 L818 0 C960 0 1008 64 1008 146 C1008 215 972 272 872 288 C941 308 966 358 966 417 C966 497 918 560 778 560 L116 560 L116 0 Z M804 256 C913 256 944 210 944 154 C944 98 913 53 804 53 L176 53 L176 256 L804 256 Z M769 304 L176 304 L176 507 L763 507 C870 507 903 461 903 406 C903 350 873 304 769 304 L769 304 Z M480 683 L554 683 L554 757 L480 757 L480 683 Z " />
<glyph glyph-name="uni1E04" unicode="&#x1e04;" horiz-adv-x="1259" d="M607 -198 L681 -198 L681 -124 L607 -124 L607 -198 Z M126 0 L945 0 C1111 0 1175 80 1175 182 C1175 268 1127 340 1009 359 C1090 384 1125 447 1125 521 C1125 621 1062 700 897 700 L126 700 L126 0 Z M930 322 C1061 322 1105 263 1105 191 C1105 118 1061 60 930 60 L192 60 L192 322 L930 322 Z M1057 509 C1057 437 1014 378 889 378 L192 378 L192 640 L882 640 C1010 640 1057 581 1057 509 L1057 509 Z " />
<glyph glyph-name="uni1E05" unicode="&#x1e05;" horiz-adv-x="1084" d="M520 -198 L594 -198 L594 -124 L520 -124 L520 -198 Z M116 0 L818 0 C960 0 1008 64 1008 146 C1008 215 972 272 872 288 C941 308 966 358 966 417 C966 497 918 560 778 560 L116 560 L116 0 Z M804 256 C913 256 944 210 944 154 C944 98 913 53 804 53 L176 53 L176 256 L804 256 Z M769 304 L176 304 L176 507 L763 507 C870 507 903 461 903 406 C903 350 873 304 769 304 L769 304 Z " />
<glyph glyph-name="uni1E06" unicode="&#x1e06;" horiz-adv-x="1259" d="M468 -183 L820 -183 L820 -139 L468 -139 L468 -183 Z M126 0 L945 0 C1111 0 1175 80 1175 182 C1175 268 1127 340 1009 359 C1090 384 1125 447 1125 521 C1125 621 1062 700 897 700 L126 700 L126 0 Z M930 322 C1061 322 1105 263 1105 191 C1105 118 1061 60 930 60 L192 60 L192 322 L930 322 Z M1057 509 C1057 437 1014 378 889 378 L192 378 L192 640 L882 640 C1010 640 1057 581 1057 509 L1057 509 Z " />
<glyph glyph-name="uni1E07" unicode="&#x1e07;" horiz-adv-x="1084" d="M381 -183 L733 -183 L733 -139 L381 -139 L381 -183 Z M116 0 L818 0 C960 0 1008 64 1008 146 C1008 215 972 272 872 288 C941 308 966 358 966 417 C966 497 918 560 778 560 L116 560 L116 0 Z M804 256 C913 256 944 210 944 154 C944 98 913 53 804 53 L176 53 L176 256 L804 256 Z M769 304 L176 304 L176 507 L763 507 C870 507 903 461 903 406 C903 350 873 304 769 304 L769 304 Z " />
<glyph glyph-name="uni1E08" unicode="&#x1e08;" horiz-adv-x="1184" d="M598 -100 L619 -100 C687 -100 725 -114 725 -159 C725 -238 575 -222 529 -199 L529 -230 C602 -265 774 -276 774 -161 C774 -85 710 -69 639 -69 L636 -69 L654 0 L1100 0 L1100 60 L521 60 C247 60 149 190 149 350 C149 510 247 640 521 640 L1100 640 L1100 700 L520 700 C203 700 79 543 79 350 C79 157 203 0 520 0 L625 0 L598 -100 Z M580 775 L623 775 L771 946 L691 946 L580 775 Z " />
<glyph glyph-name="uni1E09" unicode="&#x1e09;" horiz-adv-x="1016" d="M504 -100 L525 -100 C593 -100 631 -114 631 -159 C631 -238 481 -222 435 -199 L435 -230 C508 -265 680 -276 680 -161 C680 -85 616 -69 545 -69 L542 -69 L560 0 L940 0 L940 53 L439 53 C209 53 136 155 136 280 C136 405 209 507 439 507 L940 507 L940 560 L439 560 C169 560 72 434 72 280 C72 126 169 0 439 0 L531 0 L504 -100 Z M486 635 L529 635 L677 806 L597 806 L486 635 Z " />
<glyph glyph-name="uni1E0A" unicode="&#x1e0a;" horiz-adv-x="1255" d="M126 0 L735 0 C1052 0 1176 157 1176 350 C1176 543 1052 700 735 700 L126 700 L126 0 Z M734 640 C1008 640 1106 510 1106 350 C1106 190 1008 60 734 60 L192 60 L192 640 L734 640 Z M576 823 L650 823 L650 897 L576 897 L576 823 Z " />
<glyph glyph-name="uni1E0B" unicode="&#x1e0b;" horiz-adv-x="1081" d="M495 683 L569 683 L569 757 L495 757 L495 683 Z M116 0 L642 0 C912 0 1009 126 1009 280 C1009 434 912 560 642 560 L116 560 L116 0 Z M642 507 C872 507 945 405 945 280 C945 155 872 53 642 53 L176 53 L176 507 L642 507 Z " />
<glyph glyph-name="uni1E0C" unicode="&#x1e0c;" horiz-adv-x="1255" d="M126 0 L735 0 C1052 0 1176 157 1176 350 C1176 543 1052 700 735 700 L126 700 L126 0 Z M734 640 C1008 640 1106 510 1106 350 C1106 190 1008 60 734 60 L192 60 L192 640 L734 640 Z M576 -198 L650 -198 L650 -124 L576 -124 L576 -198 Z " />
<glyph glyph-name="uni1E0D" unicode="&#x1e0d;" horiz-adv-x="1081" d="M116 0 L642 0 C912 0 1009 126 1009 280 C1009 434 912 560 642 560 L116 560 L116 0 Z M642 507 C872 507 945 405 945 280 C945 155 872 53 642 53 L176 53 L176 507 L642 507 Z M495 -198 L569 -198 L569 -124 L495 -124 L495 -198 Z " />
<glyph glyph-name="uni1E0E" unicode="&#x1e0e;" horiz-adv-x="1255" d="M126 0 L735 0 C1052 0 1176 157 1176 350 C1176 543 1052 700 735 700 L126 700 L126 0 Z M734 640 C1008 640 1106 510 1106 350 C1106 190 1008 60 734 60 L192 60 L192 640 L734 640 Z M437 -183 L789 -183 L789 -139 L437 -139 L437 -183 Z " />
<glyph glyph-name="uni1E0F" unicode="&#x1e0f;" horiz-adv-x="1081" d="M116 0 L642 0 C912 0 1009 126 1009 280 C1009 434 912 560 642 560 L116 560 L116 0 Z M642 507 C872 507 945 405 945 280 C945 155 872 53 642 53 L176 53 L176 507 L642 507 Z M356 -183 L708 -183 L708 -139 L356 -139 L356 -183 Z " />
<glyph glyph-name="uni1E10" unicode="&#x1e10;" horiz-adv-x="1255" d="M126 0 L735 0 C1052 0 1176 157 1176 350 C1176 543 1052 700 735 700 L126 700 L126 0 Z M734 640 C1008 640 1106 510 1106 350 C1106 190 1008 60 734 60 L192 60 L192 640 L734 640 Z M578 -198 L610 -198 L574 -293 L606 -293 L652 -194 L652 -124 L578 -124 L578 -198 Z " />
<glyph glyph-name="uni1E11" unicode="&#x1e11;" horiz-adv-x="1081" d="M116 0 L642 0 C912 0 1009 126 1009 280 C1009 434 912 560 642 560 L116 560 L116 0 Z M642 507 C872 507 945 405 945 280 C945 155 872 53 642 53 L176 53 L176 507 L642 507 Z M497 -198 L529 -198 L493 -293 L525 -293 L571 -194 L571 -124 L497 -124 L497 -198 Z " />
<glyph glyph-name="uni1E12" unicode="&#x1e12;" horiz-adv-x="1255" d="M126 0 L735 0 C1052 0 1176 157 1176 350 C1176 543 1052 700 735 700 L126 700 L126 0 Z M734 640 C1008 640 1106 510 1106 350 C1106 190 1008 60 734 60 L192 60 L192 640 L734 640 Z M653 -75 L572 -75 L446 -246 L489 -246 L613 -112 L736 -246 L779 -246 L653 -75 Z " />
<glyph glyph-name="uni1E13" unicode="&#x1e13;" horiz-adv-x="1081" d="M116 0 L642 0 C912 0 1009 126 1009 280 C1009 434 912 560 642 560 L116 560 L116 0 Z M642 507 C872 507 945 405 945 280 C945 155 872 53 642 53 L176 53 L176 507 L642 507 Z M572 -75 L491 -75 L365 -246 L408 -246 L532 -112 L655 -246 L698 -246 L572 -75 Z " />
<glyph glyph-name="uni1E14" unicode="&#x1e14;" horiz-adv-x="1199" d="M126 0 L1115 0 L1115 60 L192 60 L192 322 L1013 322 L1013 378 L192 378 L192 640 L1115 640 L1115 700 L126 700 L126 0 Z M434 838 L786 838 L786 882 L434 882 L434 838 Z M560 1121 L480 1121 L628 950 L671 950 L560 1121 Z " />
<glyph glyph-name="uni1E15" unicode="&#x1e15;" horiz-adv-x="1034" d="M116 0 L957 0 L957 53 L176 53 L176 256 L870 256 L870 304 L176 304 L176 507 L957 507 L957 560 L116 560 L116 0 Z M353 698 L705 698 L705 742 L353 742 L353 698 Z M479 981 L399 981 L547 810 L590 810 L479 981 Z " />
<glyph glyph-name="uni1E16" unicode="&#x1e16;" horiz-adv-x="1199" d="M126 0 L1115 0 L1115 60 L192 60 L192 322 L1013 322 L1013 378 L192 378 L192 640 L1115 640 L1115 700 L126 700 L126 0 Z M434 838 L786 838 L786 882 L434 882 L434 838 Z M548 950 L591 950 L739 1121 L659 1121 L548 950 Z " />
<glyph glyph-name="uni1E17" unicode="&#x1e17;" horiz-adv-x="1034" d="M116 0 L957 0 L957 53 L176 53 L176 256 L870 256 L870 304 L176 304 L176 507 L957 507 L957 560 L116 560 L116 0 Z M353 698 L705 698 L705 742 L353 742 L353 698 Z M467 810 L510 810 L658 981 L578 981 L467 810 Z " />
<glyph glyph-name="uni1E18" unicode="&#x1e18;" horiz-adv-x="1199" d="M126 0 L1115 0 L1115 60 L192 60 L192 322 L1013 322 L1013 378 L192 378 L192 640 L1115 640 L1115 700 L126 700 L126 0 Z M650 -75 L569 -75 L443 -246 L486 -246 L610 -112 L733 -246 L776 -246 L650 -75 Z " />
<glyph glyph-name="uni1E19" unicode="&#x1e19;" horiz-adv-x="1034" d="M116 0 L957 0 L957 53 L176 53 L176 256 L870 256 L870 304 L176 304 L176 507 L957 507 L957 560 L116 560 L116 0 Z M569 -75 L488 -75 L362 -246 L405 -246 L529 -112 L652 -246 L695 -246 L569 -75 Z " />
<glyph glyph-name="uni1E1A" unicode="&#x1e1a;" horiz-adv-x="1199" d="M126 0 L1115 0 L1115 60 L192 60 L192 322 L1013 322 L1013 378 L192 378 L192 640 L1115 640 L1115 700 L126 700 L126 0 Z M745 -94 C738 -159 716 -169 687 -169 C638 -169 597 -102 532 -102 C483 -102 449 -129 440 -227 L475 -227 C482 -163 504 -151 533 -151 C581 -151 623 -218 688 -218 C737 -218 771 -192 780 -94 L745 -94 Z " />
<glyph glyph-name="uni1E1B" unicode="&#x1e1b;" horiz-adv-x="1034" d="M116 0 L957 0 L957 53 L176 53 L176 256 L870 256 L870 304 L176 304 L176 507 L957 507 L957 560 L116 560 L116 0 Z M664 -94 C657 -159 635 -169 606 -169 C557 -169 516 -102 451 -102 C402 -102 368 -129 359 -227 L394 -227 C401 -163 423 -151 452 -151 C500 -151 542 -218 607 -218 C656 -218 690 -192 699 -94 L664 -94 Z " />
<glyph glyph-name="uni1E1C" unicode="&#x1e1c;" horiz-adv-x="1199" d="M126 0 L593 0 L566 -100 L587 -100 C655 -100 693 -114 693 -159 C693 -238 543 -222 497 -199 L497 -230 C570 -265 742 -276 742 -161 C742 -85 678 -69 607 -69 L604 -69 L622 0 L1115 0 L1115 60 L192 60 L192 322 L1013 322 L1013 378 L192 378 L192 640 L1115 640 L1115 700 L126 700 L126 0 Z M610 835 C524 835 492 880 487 932 L449 932 C455 863 491 789 610 789 C727 789 764 863 770 932 L732 932 C727 880 696 835 610 835 L610 835 Z " />
<glyph glyph-name="uni1E1D" unicode="&#x1e1d;" horiz-adv-x="1034" d="M116 0 L512 0 L485 -100 L506 -100 C574 -100 612 -114 612 -159 C612 -238 462 -222 416 -199 L416 -230 C489 -265 661 -276 661 -161 C661 -85 597 -69 526 -69 L523 -69 L541 0 L957 0 L957 53 L176 53 L176 256 L870 256 L870 304 L176 304 L176 507 L957 507 L957 560 L116 560 L116 0 Z M529 695 C443 695 411 740 406 792 L368 792 C374 723 410 649 529 649 C646 649 683 723 689 792 L651 792 C646 740 615 695 529 695 L529 695 Z " />
<glyph glyph-name="uni1E1E" unicode="&#x1e1e;" horiz-adv-x="1159" d="M126 0 L192 0 L192 317 L1013 317 L1013 377 L192 377 L192 640 L1115 640 L1115 700 L126 700 L126 0 Z M562 823 L636 823 L636 897 L562 897 L562 823 Z " />
<glyph glyph-name="uni1E1F" unicode="&#x1e1f;" horiz-adv-x="1017" d="M116 0 L176 0 L176 251 L870 251 L870 303 L176 303 L176 507 L957 507 L957 560 L116 560 L116 0 Z M486 683 L560 683 L560 757 L486 757 L486 683 Z " />
<glyph glyph-name="uni1E20" unicode="&#x1e20;" horiz-adv-x="1256" d="M668 322 L1090 322 L1090 60 L521 60 C247 60 149 190 149 350 C149 510 247 640 521 640 L1100 640 L1100 700 L520 700 C203 700 79 543 79 350 C79 157 203 0 520 0 L1155 0 L1155 378 L668 378 L668 322 Z M476 838 L828 838 L828 882 L476 882 L476 838 Z " />
<glyph glyph-name="uni1E21" unicode="&#x1e21;" horiz-adv-x="1081" d="M572 256 L928 256 L928 53 L439 53 C209 53 136 155 136 280 C136 405 209 507 439 507 L940 507 L940 560 L439 560 C169 560 72 434 72 280 C72 126 169 0 439 0 L987 0 L987 304 L572 304 L572 256 Z M376 698 L728 698 L728 742 L376 742 L376 698 Z " />
<glyph glyph-name="uni1E22" unicode="&#x1e22;" horiz-adv-x="1305" d="M1113 0 L1179 0 L1179 700 L1113 700 L1113 380 L192 380 L192 700 L126 700 L126 0 L192 0 L192 320 L1113 320 L1113 0 Z M615 823 L689 823 L689 897 L615 897 L615 823 Z " />
<glyph glyph-name="uni1E23" unicode="&#x1e23;" horiz-adv-x="1128" d="M952 0 L1012 0 L1012 560 L952 560 L952 307 L176 307 L176 560 L116 560 L116 0 L176 0 L176 253 L952 253 L952 0 Z M527 683 L601 683 L601 757 L527 757 L527 683 Z " />
<glyph glyph-name="uni1E24" unicode="&#x1e24;" horiz-adv-x="1305" d="M615 -198 L689 -198 L689 -124 L615 -124 L615 -198 Z M1113 0 L1179 0 L1179 700 L1113 700 L1113 380 L192 380 L192 700 L126 700 L126 0 L192 0 L192 320 L1113 320 L1113 0 Z " />
<glyph glyph-name="uni1E25" unicode="&#x1e25;" horiz-adv-x="1128" d="M527 -198 L601 -198 L601 -124 L527 -124 L527 -198 Z M952 0 L1012 0 L1012 560 L952 560 L952 307 L176 307 L176 560 L116 560 L116 0 L176 0 L176 253 L952 253 L952 0 Z " />
<glyph glyph-name="uni1E26" unicode="&#x1e26;" horiz-adv-x="1305" d="M1113 0 L1179 0 L1179 700 L1113 700 L1113 380 L192 380 L192 700 L126 700 L126 0 L192 0 L192 320 L1113 320 L1113 0 Z M743 823 L817 823 L817 897 L743 897 L743 823 Z M487 823 L561 823 L561 897 L487 897 L487 823 Z " />
<glyph glyph-name="uni1E27" unicode="&#x1e27;" horiz-adv-x="1128" d="M952 0 L1012 0 L1012 560 L952 560 L952 307 L176 307 L176 560 L116 560 L116 0 L176 0 L176 253 L952 253 L952 0 Z M655 683 L729 683 L729 757 L655 757 L655 683 Z M399 683 L473 683 L473 757 L399 757 L399 683 Z " />
<glyph glyph-name="uni1E28" unicode="&#x1e28;" horiz-adv-x="1305" d="M116 -100 L137 -100 C205 -100 243 -114 243 -159 C243 -238 93 -222 47 -199 L47 -230 C120 -265 292 -276 292 -161 C292 -85 228 -69 157 -69 L154 -69 L172 0 L192 0 L192 320 L1113 320 L1113 0 L1179 0 L1179 700 L1113 700 L1113 380 L192 380 L192 700 L126 700 L126 0 L143 0 L116 -100 Z " />
<glyph glyph-name="uni1E29" unicode="&#x1e29;" horiz-adv-x="1128" d="M103 -100 L124 -100 C192 -100 230 -114 230 -159 C230 -238 80 -222 34 -199 L34 -230 C107 -265 279 -276 279 -161 C279 -85 215 -69 144 -69 L141 -69 L159 0 L176 0 L176 253 L952 253 L952 0 L1012 0 L1012 560 L952 560 L952 307 L176 307 L176 560 L116 560 L116 0 L130 0 L103 -100 Z " />
<glyph glyph-name="uni1E2A" unicode="&#x1e2a;" horiz-adv-x="1305" d="M653 -186 C567 -186 535 -141 530 -89 L492 -89 C498 -158 534 -232 653 -232 C770 -232 807 -158 813 -89 L775 -89 C770 -141 739 -186 653 -186 L653 -186 Z M1113 0 L1179 0 L1179 700 L1113 700 L1113 380 L192 380 L192 700 L126 700 L126 0 L192 0 L192 320 L1113 320 L1113 0 Z " />
<glyph glyph-name="uni1E2B" unicode="&#x1e2b;" horiz-adv-x="1128" d="M564 -186 C478 -186 446 -141 441 -89 L403 -89 C409 -158 445 -232 564 -232 C681 -232 718 -158 724 -89 L686 -89 C681 -141 650 -186 564 -186 L564 -186 Z M952 0 L1012 0 L1012 560 L952 560 L952 307 L176 307 L176 560 L116 560 L116 0 L176 0 L176 253 L952 253 L952 0 Z " />
<glyph glyph-name="uni1E2C" unicode="&#x1e2c;" horiz-adv-x="318" d="M294 -94 C287 -159 265 -169 236 -169 C187 -169 146 -102 81 -102 C32 -102 -2 -129 -11 -227 L24 -227 C31 -163 53 -151 82 -151 C130 -151 172 -218 237 -218 C286 -218 320 -192 329 -94 L294 -94 Z M126 0 L192 0 L192 700 L126 700 L126 0 Z " />
<glyph glyph-name="uni1E2D" unicode="&#x1e2d;" horiz-adv-x="292" d="M281 -94 C274 -159 252 -169 223 -169 C174 -169 133 -102 68 -102 C19 -102 -15 -129 -24 -227 L11 -227 C18 -163 40 -151 69 -151 C117 -151 159 -218 224 -218 C273 -218 307 -192 316 -94 L281 -94 Z M116 0 L176 0 L176 560 L116 560 L116 0 Z " />
<glyph glyph-name="uni1E2E" unicode="&#x1e2e;" horiz-adv-x="318" d="M126 0 L192 0 L192 700 L126 700 L126 0 Z M250 823 L324 823 L324 897 L250 897 L250 823 Z M-6 823 L68 823 L68 897 L-6 897 L-6 823 Z M97 953 L140 953 L288 1124 L208 1124 L97 953 Z " />
<glyph glyph-name="uni1E2F" unicode="&#x1e2f;" horiz-adv-x="292" d="M116 0 L176 0 L176 560 L116 560 L116 0 Z M237 683 L311 683 L311 757 L237 757 L237 683 Z M-19 683 L55 683 L55 757 L-19 757 L-19 683 Z M84 813 L127 813 L275 984 L195 984 L84 813 Z " />
<glyph glyph-name="uni1E30" unicode="&#x1e30;" horiz-adv-x="1286" d="M1186 700 L1068 700 L192 212 L192 700 L126 700 L126 0 L192 0 L192 146 L543 341 L1160 0 L1277 0 L604 376 L1186 700 Z M541 775 L584 775 L732 946 L652 946 L541 775 Z " />
<glyph glyph-name="uni1E31" unicode="&#x1e31;" horiz-adv-x="1110" d="M1024 560 L912 560 L176 175 L176 560 L116 560 L116 0 L176 0 L176 115 L474 271 L987 0 L1096 0 L529 300 L1024 560 Z M458 635 L501 635 L649 806 L569 806 L458 635 Z " />
<glyph glyph-name="uni1E32" unicode="&#x1e32;" horiz-adv-x="1286" d="M1186 700 L1068 700 L192 212 L192 700 L126 700 L126 0 L192 0 L192 146 L543 341 L1160 0 L1277 0 L604 376 L1186 700 Z M605 -198 L679 -198 L679 -124 L605 -124 L605 -198 Z " />
<glyph glyph-name="uni1E33" unicode="&#x1e33;" horiz-adv-x="1110" d="M1024 560 L912 560 L176 175 L176 560 L116 560 L116 0 L176 0 L176 115 L474 271 L987 0 L1096 0 L529 300 L1024 560 Z M516 -198 L590 -198 L590 -124 L516 -124 L516 -198 Z " />
<glyph glyph-name="uni1E34" unicode="&#x1e34;" horiz-adv-x="1286" d="M1186 700 L1068 700 L192 212 L192 700 L126 700 L126 0 L192 0 L192 146 L543 341 L1160 0 L1277 0 L604 376 L1186 700 Z M466 -183 L818 -183 L818 -139 L466 -139 L466 -183 Z " />
<glyph glyph-name="uni1E35" unicode="&#x1e35;" horiz-adv-x="1110" d="M1024 560 L912 560 L176 175 L176 560 L116 560 L116 0 L176 0 L176 115 L474 271 L987 0 L1096 0 L529 300 L1024 560 Z M377 -183 L729 -183 L729 -139 L377 -139 L377 -183 Z " />
<glyph glyph-name="uni1E36" unicode="&#x1e36;" horiz-adv-x="1129" d="M192 700 L126 700 L126 0 L1095 0 L1095 60 L192 60 L192 700 Z M568 -198 L642 -198 L642 -124 L568 -124 L568 -198 Z " />
<glyph glyph-name="uni1E37" unicode="&#x1e37;" horiz-adv-x="987" d="M176 560 L116 560 L116 0 L940 0 L940 53 L176 53 L176 560 Z M494 -198 L568 -198 L568 -124 L494 -124 L494 -198 Z " />
<glyph glyph-name="uni1E38" unicode="&#x1e38;" horiz-adv-x="1129" d="M192 700 L126 700 L126 0 L1095 0 L1095 60 L192 60 L192 700 Z M568 -198 L642 -198 L642 -124 L568 -124 L568 -198 Z M14 838 L366 838 L366 882 L14 882 L14 838 Z " />
<glyph glyph-name="uni1E39" unicode="&#x1e39;" horiz-adv-x="987" d="M176 560 L116 560 L116 0 L940 0 L940 53 L176 53 L176 560 Z M494 -198 L568 -198 L568 -124 L494 -124 L494 -198 Z M1 698 L353 698 L353 742 L1 742 L1 698 Z " />
<glyph glyph-name="uni1E3A" unicode="&#x1e3a;" horiz-adv-x="1129" d="M192 700 L126 700 L126 0 L1095 0 L1095 60 L192 60 L192 700 Z M429 -183 L781 -183 L781 -139 L429 -139 L429 -183 Z " />
<glyph glyph-name="uni1E3B" unicode="&#x1e3b;" horiz-adv-x="987" d="M176 560 L116 560 L116 0 L940 0 L940 53 L176 53 L176 560 Z M355 -183 L707 -183 L707 -139 L355 -139 L355 -183 Z " />
</font>
</svg>
