<?xml version="1.0" encoding="UTF-8"?>
<svg xmlns="http://www.w3.org/2000/svg" xmlns:xlink="http://www.w3.org/1999/xlink" version="1.2" >
<font id="Stereo Gothic 500 Italic">
<font-face  font-family="Stereo Gothic" units-per-em="1000" ascent="700" descent="-300" font-style="italic" font-weight="500" font-stretch="normal" slope="-10" cap-height="700" x-height="560" underline-position="-75" underline-thickness="50" />
<missing-glyph  horiz-adv-x="1000" d="M152 0 L852 0 L852 700 L152 700 L152 0 Z M225 42 L806 623 L806 42 L225 42 Z M198 658 L777 658 L198 79 L198 658 Z " />
<glyph glyph-name="NULL" d="" />
<glyph glyph-name="CR" unicode="&#xd;" horiz-adv-x="250" d="" />
<glyph glyph-name="space" unicode="&#x20;" horiz-adv-x="480" d="" />
<glyph glyph-name="exclam" unicode="&#x21;" horiz-adv-x="337" d="M51 0 L168 0 L189 119 L72 119 L51 0 Z M92 185 L186 185 L289 700 L181 700 L92 185 Z " />
<glyph glyph-name="quotedbl" unicode="&#x22;" horiz-adv-x="529" d="M123 400 L202 400 L273 700 L161 700 L123 400 Z M353 400 L432 400 L504 700 L391 700 L353 400 Z " />
<glyph glyph-name="numbersign" unicode="&#x23;" horiz-adv-x="1245" d="M805 0 L904 0 L951 173 L1099 173 L1115 263 L977 263 L1026 437 L1176 437 L1192 527 L1051 527 L1099 700 L1000 700 L952 527 L397 527 L445 700 L346 700 L298 527 L151 527 L134 437 L272 437 L224 263 L74 263 L58 173 L198 173 L151 0 L250 0 L297 173 L852 173 L805 0 Z M371 437 L926 437 L877 263 L323 263 L371 437 Z " />
<glyph glyph-name="dollar" unicode="&#x24;" horiz-adv-x="1245" d="M508 -20 L608 -20 L625 70 L882 70 C1044 70 1108 158 1108 256 C1108 332 1062 390 937 390 L683 390 L709 539 L1129 539 L1146 630 L725 630 L742 721 L642 721 L625 630 L369 630 C205 630 142 540 142 441 C142 367 191 310 314 310 L569 310 L542 161 L122 161 L104 70 L525 70 L508 -20 Z M336 390 C270 390 249 417 249 451 C249 500 281 539 373 539 L609 539 L583 390 L336 390 Z M915 310 C981 310 1003 283 1003 249 C1002 200 970 161 879 161 L642 161 L668 310 L915 310 Z " />
<glyph glyph-name="percent" unicode="&#x25;" horiz-adv-x="1245" d="M1029 700 L110 0 L223 0 L1142 700 L1029 700 Z M117 478 C104 404 137 350 245 350 L414 350 C522 350 568 405 580 474 L596 572 C608 645 578 700 471 700 L300 700 C192 700 146 645 134 576 L117 478 Z M469 627 C515 627 522 601 517 572 L500 478 C494 449 473 423 422 423 L246 423 C199 423 193 449 198 478 L214 572 C219 601 241 627 292 627 L469 627 Z M652 128 C639 54 672 0 780 0 L950 0 C1058 0 1104 55 1116 124 L1132 222 C1144 295 1114 350 1007 350 L835 350 C727 350 681 295 669 226 L652 128 Z M1005 277 C1051 277 1058 251 1053 222 L1036 128 C1030 99 1009 73 958 73 L781 73 C734 73 728 99 733 128 L749 222 C754 251 776 277 827 277 L1005 277 Z " />
<glyph glyph-name="ampersand" unicode="&#x26;" horiz-adv-x="1262" d="M252 0 L887 0 C1054 0 1122 91 1122 194 C1122 240 1103 284 1062 305 L1190 305 L1207 395 L392 395 C305 395 278 433 278 479 C278 538 318 600 433 600 L1030 600 L1047 700 L421 700 C238 700 165 599 165 489 C165 433 192 383 243 361 C109 336 57 245 57 154 C57 68 111 0 252 0 L252 0 Z M858 100 L299 100 C209 100 179 136 179 184 C179 243 219 305 334 305 L901 305 C985 305 1014 267 1014 221 C1014 158 974 100 858 100 L858 100 Z " />
<glyph glyph-name="quotesingle" unicode="&#x27;" horiz-adv-x="301" d="M123 400 L202 400 L273 700 L161 700 L123 400 Z " />
<glyph glyph-name="parenleft" unicode="&#x28;" horiz-adv-x="476" d="M322 -116 C148 158 218 542 490 815 L399 815 C98 547 27 153 232 -116 L322 -116 Z " />
<glyph glyph-name="parenright" unicode="&#x29;" horiz-adv-x="476" d="M82 -116 C383 153 455 547 250 815 L159 815 C335 542 265 158 -9 -116 L82 -116 Z " />
<glyph glyph-name="asterisk" unicode="&#x2a;" horiz-adv-x="571" d="M549 484 L520 584 L335 498 L362 700 L258 700 L277 498 L95 584 L62 485 L258 443 L119 297 L202 236 L304 409 L400 236 L485 296 L351 443 L549 484 Z " />
<glyph glyph-name="plus" unicode="&#x2b;" horiz-adv-x="1245" d="M277 300 L570 300 L570 30 L680 30 L680 300 L973 300 L973 400 L680 400 L680 670 L570 670 L570 400 L277 400 L277 300 Z " />
<glyph glyph-name="comma" unicode="&#x2c;" horiz-adv-x="300" d="M33 0 L85 0 L10 -127 L60 -127 L152 8 L173 119 L54 119 L33 0 Z " />
<glyph glyph-name="hyphen" unicode="&#x2d;" horiz-adv-x="576" d="M68 230 L468 230 L487 330 L87 330 L68 230 Z " />
<glyph glyph-name="period" unicode="&#x2e;" horiz-adv-x="300" d="M33 0 L151 0 L173 119 L54 119 L33 0 Z " />
<glyph glyph-name="slash" unicode="&#x2f;" horiz-adv-x="541" d="M-92 -76 L6 -76 L641 776 L542 776 L-92 -76 Z " />
<glyph glyph-name="zero" unicode="0" horiz-adv-x="1245" d="M82 248 C57 111 122 0 337 0 L798 0 C1014 0 1108 103 1133 245 L1169 452 C1194 589 1129 700 914 700 L453 700 C237 700 143 597 118 455 L82 248 Z M901 600 C1044 600 1073 529 1058 447 L1024 254 C1009 168 952 100 811 100 L350 100 C206 100 177 171 193 252 L227 446 C242 532 299 600 439 600 L901 600 Z " />
<glyph glyph-name="one" unicode="1" horiz-adv-x="1245" d="M412 600 L672 600 L584 100 L179 100 L161 0 L965 0 L983 100 L694 100 L801 700 L431 700 L412 600 Z " />
<glyph glyph-name="two" unicode="2" horiz-adv-x="1245" d="M1087 100 L165 100 L183 199 C194 256 234 305 333 305 L908 305 C1112 305 1192 414 1192 535 C1192 628 1135 700 979 700 L201 700 L182 600 L958 600 C1049 600 1075 561 1075 515 C1075 452 1034 395 922 395 L346 395 C176 395 94 315 74 202 L38 0 L1069 0 L1087 100 Z " />
<glyph glyph-name="three" unicode="3" horiz-adv-x="1245" d="M18 0 L870 0 C1056 0 1130 103 1130 216 C1130 285 1093 342 1008 360 C1099 394 1142 466 1142 555 C1142 636 1088 700 951 700 L163 700 L144 600 L904 600 C994 600 1023 564 1023 516 C1023 459 983 395 873 395 L192 395 L175 305 L895 305 C986 305 1015 266 1015 220 C1015 159 973 100 861 100 L36 100 L18 0 Z " />
<glyph glyph-name="four" unicode="4" horiz-adv-x="1245" d="M1041 700 L46 205 L30 121 L931 121 L911 0 L1019 0 L1040 121 L1146 121 L1164 221 L1058 221 L1144 700 L1041 700 Z M267 221 L1017 593 L949 221 L267 221 Z " />
<glyph glyph-name="five" unicode="5" horiz-adv-x="1245" d="M91 305 L904 305 C994 305 1022 267 1022 220 C1022 157 980 100 869 100 L73 100 L55 0 L854 0 C1056 0 1137 106 1137 228 C1137 322 1080 395 925 395 L218 395 L270 600 L1166 600 L1185 700 L193 700 L91 305 Z " />
<glyph glyph-name="six" unicode="6" horiz-adv-x="1245" d="M210 350 C236 494 334 600 566 600 L1157 600 L1175 700 L575 700 C270 700 136 556 101 357 L82 248 C57 111 122 0 336 0 L869 0 C1070 0 1152 105 1152 229 C1152 323 1094 395 939 395 L392 395 C302 395 242 368 206 326 L210 350 Z M335 305 L920 305 C1009 305 1035 266 1035 219 C1035 157 995 100 883 100 L349 100 C229 100 189 150 189 215 C202 266 241 305 335 305 L335 305 Z " />
<glyph glyph-name="seven" unicode="7" horiz-adv-x="1245" d="M452 0 L1206 612 L1223 700 L144 700 L125 600 L1038 600 L287 0 L452 0 Z " />
<glyph glyph-name="eight" unicode="8" horiz-adv-x="1245" d="M240 0 L886 0 C1072 0 1146 103 1146 216 C1146 285 1109 342 1024 360 C1115 394 1158 466 1158 555 C1158 636 1104 700 967 700 L409 700 C226 700 153 599 153 489 C153 433 177 383 231 361 C97 336 45 245 45 154 C45 68 99 0 240 0 L240 0 Z M876 100 L286 100 C197 100 167 136 167 184 C167 243 206 305 322 305 L910 305 C1002 305 1031 266 1031 220 C1031 159 989 100 876 100 L876 100 Z M920 600 C1009 600 1039 563 1039 516 C1039 459 1000 395 888 395 L379 395 C293 395 265 432 265 479 C265 538 305 600 420 600 L920 600 Z " />
<glyph glyph-name="nine" unicode="9" horiz-adv-x="1245" d="M685 100 L94 100 L76 0 L676 0 C981 0 1115 144 1150 343 L1169 452 C1194 589 1129 700 915 700 L382 700 C181 700 101 595 99 471 C98 377 157 305 312 305 L859 305 C949 305 1008 332 1045 374 L1041 350 C1015 206 917 100 685 100 L685 100 Z M916 395 L331 395 C242 395 216 434 216 481 C216 543 256 600 368 600 L902 600 C1022 600 1061 549 1061 484 C1049 433 1009 395 916 395 L916 395 Z " />
<glyph glyph-name="colon" unicode="&#x3a;" horiz-adv-x="300" d="M110 441 L229 441 L250 560 L132 560 L110 441 Z M33 0 L151 0 L173 119 L54 119 L33 0 Z " />
<glyph glyph-name="semicolon" unicode="&#x3b;" horiz-adv-x="300" d="M33 0 L85 0 L10 -127 L60 -127 L152 8 L173 119 L54 119 L33 0 Z M110 441 L229 441 L250 560 L132 560 L110 441 Z " />
<glyph glyph-name="less" unicode="&#x3c;" horiz-adv-x="1245" d="M963 126 L421 349 L963 574 L963 682 L287 402 L287 298 L963 18 L963 126 Z " />
<glyph glyph-name="equal" unicode="&#x3d;" horiz-adv-x="1245" d="M277 141 L973 141 L973 241 L277 241 L277 141 Z M277 459 L973 459 L973 559 L277 559 L277 459 Z " />
<glyph glyph-name="greater" unicode="&#x3e;" horiz-adv-x="1245" d="M287 18 L963 298 L963 402 L287 682 L287 574 L829 349 L287 126 L287 18 Z " />
<glyph glyph-name="question" unicode="&#x3f;" horiz-adv-x="1026" d="M275 185 L375 185 L396 307 L747 307 C951 307 1030 414 1030 535 C1030 628 972 700 816 700 L94 700 L75 600 L796 600 C886 600 912 561 912 514 C912 451 872 393 758 393 L312 393 L275 185 Z M232 0 L351 0 L372 119 L254 119 L232 0 Z " />
<glyph glyph-name="at" unicode="&#x40;" horiz-adv-x="1341" d="M704 420 L631 420 C413 420 328 298 328 169 C328 69 391 -10 554 -10 L638 -10 C740 -10 808 22 850 74 L849 0 L1123 0 C1216 89 1258 195 1258 309 C1258 492 1147 635 850 635 L649 635 C219 635 43 394 43 129 C43 -69 173 -224 496 -224 L644 -224 L658 -145 L507 -145 C230 -145 139 -16 139 148 C139 355 274 556 640 556 L803 556 C1046 556 1163 468 1163 298 C1163 215 1131 129 1083 79 L920 79 L979 410 L919 410 L895 322 C874 379 810 420 704 420 L704 420 Z M570 69 C457 69 421 118 421 181 C421 264 476 341 617 341 L702 341 C819 341 855 291 855 226 C855 146 808 69 654 69 L570 69 Z " />
<glyph glyph-name="A" unicode="A" horiz-adv-x="1224" d="M1028 0 L1156 0 L736 700 L620 700 L-51 0 L89 0 L214 132 L949 132 L1028 0 Z M665 606 L894 223 L301 223 L665 606 Z " />
<glyph glyph-name="B" unicode="B" horiz-adv-x="1208" d="M57 0 L849 0 C1035 0 1108 103 1108 216 C1108 285 1072 342 987 360 C1079 394 1121 466 1121 555 C1121 636 1067 700 930 700 L182 700 L57 0 Z M873 305 C965 305 994 266 994 220 C994 160 951 100 839 100 L185 100 L220 305 L873 305 Z M1002 516 C1002 459 963 395 851 395 L237 395 L273 600 L883 600 C973 600 1002 563 1002 516 L1002 516 Z " />
<glyph glyph-name="C" unicode="C" horiz-adv-x="1136" d="M184 309 C184 451 267 600 543 600 L1107 600 L1125 700 L551 700 C205 700 66 507 66 296 C66 130 167 0 435 0 L1000 0 L1017 100 L453 100 C250 100 184 192 184 309 L184 309 Z " />
<glyph glyph-name="D" unicode="D" horiz-adv-x="1204" d="M57 0 L657 0 C1002 0 1141 193 1141 404 C1141 570 1040 700 772 700 L182 700 L57 0 Z M754 600 C957 600 1024 508 1024 391 C1024 249 941 100 665 100 L183 100 L272 600 L754 600 Z " />
<glyph glyph-name="E" unicode="E" horiz-adv-x="1150" d="M57 0 L1015 0 L1033 100 L185 100 L220 305 L970 305 L987 395 L237 395 L273 600 L1121 600 L1140 700 L182 700 L57 0 Z " />
<glyph glyph-name="F" unicode="F" horiz-adv-x="1112" d="M57 0 L167 0 L218 293 L968 293 L987 393 L237 393 L273 600 L1121 600 L1140 700 L182 700 L57 0 Z " />
<glyph glyph-name="G" unicode="G" horiz-adv-x="1205" d="M630 305 L1000 305 L964 100 L453 100 C250 100 184 192 184 309 C184 451 266 600 543 600 L1107 600 L1125 700 L551 700 C205 700 66 507 66 296 C66 130 167 0 435 0 L1053 0 L1123 395 L648 395 L630 305 Z " />
<glyph glyph-name="H" unicode="H" horiz-adv-x="1252" d="M966 0 L1076 0 L1201 700 L1091 700 L1037 400 L238 400 L292 700 L182 700 L57 0 L167 0 L219 300 L1018 300 L966 0 Z " />
<glyph glyph-name="I" unicode="I" horiz-adv-x="343" d="M57 0 L167 0 L292 700 L182 700 L57 0 Z " />
<glyph glyph-name="J" unicode="J" horiz-adv-x="1162" d="M306 -5 L626 -5 C916 -5 1025 112 1060 306 L1130 700 L1020 700 L952 327 C926 181 845 95 640 95 L326 95 C155 95 117 172 138 274 L148 326 L38 326 L28 275 C-1 123 65 -5 306 -5 L306 -5 Z " />
<glyph glyph-name="K" unicode="K" horiz-adv-x="1240" d="M1213 700 L1019 700 L212 258 L290 700 L182 700 L57 0 L165 0 L190 138 L534 327 L1004 0 L1176 0 L632 381 L1213 700 Z " />
<glyph glyph-name="L" unicode="L" horiz-adv-x="1083" d="M292 700 L182 700 L57 0 L996 0 L1013 100 L185 100 L292 700 Z " />
<glyph glyph-name="M" unicode="M" horiz-adv-x="1392" d="M1229 700 L661 176 L280 700 L182 700 L57 0 L167 0 L263 548 L640 27 L1202 548 L1106 0 L1216 0 L1341 700 L1229 700 Z " />
<glyph glyph-name="N" unicode="N" horiz-adv-x="1253" d="M973 0 L1077 0 L1202 700 L1092 700 L989 119 L286 700 L182 700 L57 0 L167 0 L269 581 L973 0 Z " />
<glyph glyph-name="O" unicode="O" horiz-adv-x="1293" d="M731 -10 C1094 -10 1231 185 1231 409 C1231 579 1124 710 853 710 L568 710 C207 710 66 518 66 294 C66 122 174 -10 446 -10 L731 -10 Z M467 90 C255 90 184 184 184 307 C184 457 275 610 562 610 L831 610 C1042 610 1113 517 1113 395 C1113 241 1022 90 737 90 L467 90 Z " />
<glyph glyph-name="P" unicode="P" horiz-adv-x="1147" d="M57 0 L167 0 L213 260 L835 260 C1058 260 1148 374 1148 514 C1148 618 1086 700 914 700 L182 700 L57 0 Z M893 600 C999 600 1031 555 1031 499 C1031 425 981 360 850 360 L231 360 L273 600 L893 600 Z " />
<glyph glyph-name="Q" unicode="Q" horiz-adv-x="1293" d="M731 -10 C778 -10 822 -6 862 0 L1044 -110 L1213 -110 L981 31 C1159 99 1231 246 1231 409 C1231 579 1124 710 853 710 L568 710 C207 710 66 518 66 294 C66 122 174 -10 446 -10 L731 -10 Z M467 90 C255 90 184 184 184 307 C184 457 275 610 562 610 L831 610 C1042 610 1113 517 1113 395 C1113 241 1022 90 737 90 L467 90 Z " />
<glyph glyph-name="R" unicode="R" horiz-adv-x="1227" d="M57 0 L165 0 L212 262 L616 262 L993 0 L1163 0 L773 263 L823 263 C1043 263 1135 377 1135 515 C1135 618 1071 700 901 700 L182 700 L57 0 Z M880 600 C985 600 1019 555 1019 499 C1019 424 968 358 834 358 L229 358 L272 600 L880 600 Z " />
<glyph glyph-name="S" unicode="S" horiz-adv-x="1158" d="M800 100 L66 100 L47 0 L786 0 C987 0 1069 105 1069 229 C1069 323 1010 395 856 395 L327 395 C238 395 212 434 212 481 C212 543 252 600 364 600 L1099 600 L1117 700 L378 700 C177 700 95 595 95 471 C95 377 154 305 308 305 L837 305 C926 305 953 266 953 219 C953 157 912 100 800 100 L800 100 Z " />
<glyph glyph-name="T" unicode="T" horiz-adv-x="1136" d="M75 600 L560 600 L453 0 L563 0 L670 600 L1155 600 L1173 700 L94 700 L75 600 Z " />
<glyph glyph-name="U" unicode="U" horiz-adv-x="1223" d="M204 323 L273 700 L163 700 L94 323 C59 130 135 -10 429 -10 L687 -10 C976 -10 1088 118 1122 308 L1192 700 L1082 700 L1015 329 C989 183 906 90 702 90 L442 90 C228 90 180 186 204 323 L204 323 Z " />
<glyph glyph-name="V" unicode="V" horiz-adv-x="1224" d="M612 0 L1282 700 L1137 700 L565 93 L210 700 L74 700 L494 0 L612 0 Z " />
<glyph glyph-name="W" unicode="W" horiz-adv-x="1552" d="M815 564 L1012 0 L1094 0 L1598 700 L1460 700 L1070 137 L877 700 L795 700 L400 137 L212 700 L86 700 L339 0 L421 0 L815 564 Z " />
<glyph glyph-name="X" unicode="X" horiz-adv-x="1178" d="M89 700 L509 352 L-41 0 L141 0 L588 294 L932 0 L1101 0 L676 352 L1221 700 L1039 700 L596 409 L258 700 L89 700 Z " />
<glyph glyph-name="Y" unicode="Y" horiz-adv-x="1199" d="M485 0 L595 0 L632 212 L1265 700 L1097 700 L587 298 L218 700 L65 700 L522 212 L485 0 Z " />
<glyph glyph-name="Z" unicode="Z" horiz-adv-x="1148" d="M13 0 L1030 0 L1048 100 L246 100 L1122 622 L1132 700 L144 700 L125 600 L898 600 L23 78 L13 0 Z " />
<glyph glyph-name="bracketleft" unicode="&#x5b;" horiz-adv-x="476" d="M38 -150 L342 -150 L357 -70 L161 -70 L311 770 L507 770 L521 850 L216 850 L38 -150 Z " />
<glyph glyph-name="backslash" unicode="&#x5c;" horiz-adv-x="541" d="M154 776 L66 776 L394 -76 L483 -76 L154 776 Z " />
<glyph glyph-name="bracketright" unicode="&#x5d;" horiz-adv-x="476" d="M444 850 L140 850 L126 770 L321 770 L171 -70 L-24 -70 L-39 -150 L265 -150 L444 850 Z " />
<glyph glyph-name="asciicircum" unicode="&#x5e;" horiz-adv-x="1245" d="M900 350 L1035 350 L684 800 L566 800 L215 350 L350 350 L625 705 L900 350 Z " />
<glyph glyph-name="underscore" unicode="&#x5f;" horiz-adv-x="500" d="M-60 -155 L440 -155 L440 -67 L-60 -67 L-60 -155 Z " />
<glyph glyph-name="grave" unicode="&#x60;" horiz-adv-x="480" d="M298 806 L177 806 L299 635 L367 635 L298 806 Z " />
<glyph glyph-name="a" unicode="a" horiz-adv-x="1047" d="M861 0 L978 0 L616 560 L511 560 L-50 0 L76 0 L185 110 L790 110 L861 0 Z M553 480 L741 186 L261 186 L553 480 Z " />
<glyph glyph-name="b" unicode="b" horiz-adv-x="1040" d="M47 0 L725 0 C887 0 939 84 939 172 C939 228 910 273 837 288 C916 317 946 379 946 442 C946 509 905 560 789 560 L146 560 L47 0 Z M747 474 C819 474 840 449 840 412 C840 367 813 318 722 318 L202 318 L229 474 L747 474 Z M742 242 C814 242 835 217 835 180 C835 135 808 86 717 86 L161 86 L188 242 L742 242 Z " />
<glyph glyph-name="c" unicode="c" horiz-adv-x="974" d="M155 244 C155 361 240 474 452 474 L930 474 L947 560 L458 560 C157 560 50 400 50 232 C50 102 132 0 357 0 L846 0 L862 86 L368 86 C208 86 155 151 155 244 L155 244 Z " />
<glyph glyph-name="d" unicode="d" horiz-adv-x="1037" d="M47 0 L560 0 C861 0 968 160 968 328 C968 457 885 560 661 560 L148 560 L47 0 Z M651 474 C810 474 863 409 863 316 C863 199 778 86 566 86 L162 86 L229 474 L651 474 Z " />
<glyph glyph-name="e" unicode="e" horiz-adv-x="992" d="M47 0 L862 0 L877 86 L161 86 L187 242 L820 242 L834 318 L202 318 L229 474 L946 474 L961 560 L146 560 L47 0 Z " />
<glyph glyph-name="f" unicode="f" horiz-adv-x="975" d="M47 0 L146 0 L186 231 L818 231 L834 317 L202 317 L229 474 L946 474 L961 560 L146 560 L47 0 Z " />
<glyph glyph-name="g" unicode="g" horiz-adv-x="1036" d="M809 86 L368 86 C208 86 155 151 155 244 C155 361 240 474 452 474 L930 474 L945 560 L458 560 C157 560 50 400 50 232 C50 102 132 0 357 0 L891 0 L947 318 L542 318 L526 242 L836 242 L809 86 Z " />
<glyph glyph-name="h" unicode="h" horiz-adv-x="1081" d="M816 0 L915 0 L1014 560 L915 560 L874 323 L204 323 L245 560 L146 560 L47 0 L146 0 L187 237 L857 237 L816 0 Z " />
<glyph glyph-name="i" unicode="i" horiz-adv-x="312" d="M47 0 L146 0 L245 560 L146 560 L47 0 Z " />
<glyph glyph-name="j" unicode="j" horiz-adv-x="1000" d="M253 -4 L541 -4 C776 -4 868 88 896 245 L952 560 L854 560 L800 261 C779 147 720 82 548 82 L260 82 C127 82 101 141 115 219 L123 262 L26 262 L18 220 C-5 98 45 -4 253 -4 L253 -4 Z " />
<glyph glyph-name="k" unicode="k" horiz-adv-x="1069" d="M1031 560 L850 560 L183 213 L245 560 L146 560 L47 0 L146 0 L164 107 L453 258 L844 0 L1001 0 L541 304 L1031 560 Z " />
<glyph glyph-name="l" unicode="l" horiz-adv-x="946" d="M245 560 L146 560 L47 0 L846 0 L861 86 L161 86 L245 560 Z " />
<glyph glyph-name="m" unicode="m" horiz-adv-x="1200" d="M1032 560 L561 149 L234 560 L146 560 L47 0 L145 0 L221 429 L544 20 L1011 429 L935 0 L1034 0 L1133 560 L1032 560 Z " />
<glyph glyph-name="n" unicode="n" horiz-adv-x="1082" d="M916 0 L1015 560 L916 560 L836 105 L240 560 L146 560 L47 0 L146 0 L226 456 L822 0 L916 0 Z " />
<glyph glyph-name="o" unicode="o" horiz-adv-x="1108" d="M618 -8 C923 -8 1037 152 1039 326 C1040 461 957 568 722 568 L469 568 C164 568 52 408 50 234 C48 99 130 -8 365 -8 L618 -8 Z M382 78 C208 78 154 150 154 242 C155 361 238 482 457 482 L706 482 C880 482 934 409 934 317 C934 201 851 78 631 78 L382 78 Z " />
<glyph glyph-name="p" unicode="p" horiz-adv-x="998" d="M47 0 L146 0 L181 205 L710 205 C905 205 970 305 970 410 C970 493 918 560 773 560 L146 560 L47 0 Z M755 474 C841 474 865 442 865 398 C865 345 833 291 722 291 L197 291 L229 474 L755 474 Z " />
<glyph glyph-name="q" unicode="q" horiz-adv-x="1108" d="M618 -8 C656 -8 691 -6 724 -1 L871 -88 L1024 -88 L827 25 C977 81 1037 199 1039 326 C1040 461 957 568 722 568 L469 568 C164 568 52 408 50 234 C48 99 130 -8 365 -8 L618 -8 Z M382 78 C208 78 154 150 154 242 C155 361 238 482 457 482 L706 482 C880 482 934 409 934 317 C934 201 851 78 631 78 L382 78 Z " />
<glyph glyph-name="r" unicode="r" horiz-adv-x="1061" d="M47 0 L146 0 L182 207 L523 207 L834 0 L989 0 L665 208 L700 208 C893 208 959 306 959 412 C959 494 908 560 763 560 L147 560 L47 0 Z M744 474 C831 474 855 440 855 398 C855 344 825 289 710 289 L197 289 L230 474 L744 474 Z " />
<glyph glyph-name="s" unicode="s" horiz-adv-x="991" d="M676 86 L50 86 L34 0 L667 0 C844 0 901 89 901 186 C901 261 854 317 724 317 L265 317 C194 317 173 346 173 381 C173 429 202 474 295 474 L921 474 L938 560 L305 560 C127 560 70 471 70 375 C70 299 117 243 248 243 L705 243 C777 243 798 214 798 179 C798 132 769 86 676 86 L676 86 Z " />
<glyph glyph-name="t" unicode="t" horiz-adv-x="998" d="M64 474 L474 474 L390 0 L489 0 L572 474 L982 474 L998 560 L80 560 L64 474 Z " />
<glyph glyph-name="u" unicode="u" horiz-adv-x="1050" d="M171 258 L225 560 L127 560 L73 258 C45 104 95 -8 352 -8 L590 -8 C825 -8 917 84 945 241 L1002 560 L904 560 L849 257 C828 143 770 78 598 78 L367 78 C179 78 152 148 171 258 L171 258 Z " />
<glyph glyph-name="v" unicode="v" horiz-adv-x="1047" d="M517 0 L1077 560 L949 560 L475 80 L170 560 L49 560 L412 0 L517 0 Z " />
<glyph glyph-name="w" unicode="w" horiz-adv-x="1328" d="M682 443 L852 0 L925 0 L1346 560 L1225 560 L904 118 L736 560 L663 560 L339 118 L175 560 L60 560 L284 0 L357 0 L682 443 Z " />
<glyph glyph-name="x" unicode="x" horiz-adv-x="1021" d="M68 560 L426 282 L-35 0 L129 0 L498 229 L787 0 L937 0 L574 282 L1033 560 L868 560 L504 333 L218 560 L68 560 Z " />
<glyph glyph-name="y" unicode="y" horiz-adv-x="1020" d="M402 0 L500 0 L530 170 L1060 560 L910 560 L488 243 L176 560 L39 560 L431 170 L402 0 Z " />
<glyph glyph-name="z" unicode="z" horiz-adv-x="984" d="M6 0 L872 0 L887 86 L216 86 L943 493 L951 560 L110 560 L94 474 L739 474 L13 67 L6 0 Z " />
<glyph glyph-name="braceleft" unicode="&#x7b;" horiz-adv-x="476" d="M183 456 C176 420 161 390 101 390 L57 390 L42 310 L87 310 C146 310 153 280 146 244 L98 -29 C86 -96 113 -150 221 -150 L344 -150 L358 -70 L268 -70 C208 -70 204 -40 211 -4 L254 237 C263 289 243 337 185 350 C253 361 283 402 292 456 L336 704 C343 742 361 770 420 770 L507 770 L521 850 L397 850 C288 850 243 796 231 729 L183 456 Z " />
<glyph glyph-name="bar" unicode="&#x7c;" horiz-adv-x="500" d="M204 850 L204 -150 L298 -150 L298 850 L204 850 Z " />
<glyph glyph-name="braceright" unicode="&#x7d;" horiz-adv-x="476" d="M299 244 C306 280 322 310 381 310 L426 310 L440 390 L395 390 C336 390 330 420 336 456 L385 729 C397 796 369 850 261 850 L138 850 L124 770 L215 770 C274 770 278 740 272 704 L229 463 C219 411 239 363 298 350 C229 339 200 298 190 244 L146 -4 C140 -42 122 -70 62 -70 L-24 -70 L-39 -150 L86 -150 C194 -150 239 -96 251 -29 L299 244 Z " />
<glyph glyph-name="asciitilde" unicode="&#x7e;" horiz-adv-x="1245" d="M973 443 C709 220 556 598 277 385 L277 280 C541 503 695 125 973 338 L973 443 Z " />
<glyph glyph-name="uni00A0" unicode="&#xa0;" horiz-adv-x="480" d="" />
<glyph glyph-name="exclamdown" unicode="&#xa1;" horiz-adv-x="337" d="M295 700 L178 700 L157 581 L274 581 L295 700 Z M254 515 L160 515 L57 0 L166 0 L254 515 Z " />
<glyph glyph-name="cent" unicode="&#xa2;" horiz-adv-x="1245" d="M1093 217 L651 217 L750 483 L1141 483 L1160 574 L788 574 L843 721 L744 721 L688 574 L443 574 C217 574 126 449 126 316 C126 212 198 126 364 126 L516 126 L459 -20 L559 -20 L616 126 L1077 126 L1093 217 Z M233 328 C233 412 296 483 439 483 L650 483 L551 217 L383 217 C274 217 233 261 233 328 L233 328 Z " />
<glyph glyph-name="sterling" unicode="&#xa3;" horiz-adv-x="1245" d="M737 395 L368 395 L377 447 C392 529 432 600 574 600 L1061 600 L1079 700 L580 700 C377 700 294 592 269 457 L258 395 L127 395 L110 305 L242 305 L218 170 C211 125 183 96 137 96 L74 96 L57 0 L1069 0 L1087 100 L267 100 C300 114 326 146 331 185 L352 305 L719 305 L737 395 Z " />
<glyph glyph-name="currency" unicode="&#xa4;" horiz-adv-x="1245" d="M698 80 C788 80 859 97 915 128 L1018 -12 L1105 57 L992 183 C1048 234 1078 313 1079 395 C1080 434 1070 478 1054 506 L1212 631 L1138 711 L992 569 C949 601 885 620 796 620 L551 620 C462 620 389 603 334 572 L230 714 L143 641 L255 515 C191 450 169 371 169 305 C168 265 179 222 195 193 L36 62 L104 -14 L254 130 C298 99 364 80 454 80 L698 80 Z M282 318 C282 413 329 524 533 524 L778 524 C920 524 966 462 966 381 C966 286 920 176 716 176 L471 176 C330 176 282 237 282 318 L282 318 Z " />
<glyph glyph-name="yen" unicode="&#xa5;" horiz-adv-x="1245" d="M1065 700 L619 352 L298 700 L146 700 L418 421 L117 421 L100 335 L490 335 L555 266 L547 220 L80 220 L64 134 L531 134 L508 0 L618 0 L641 134 L1107 134 L1124 220 L657 220 L665 266 L754 335 L1144 335 L1160 421 L859 421 L1230 700 L1065 700 Z " />
<glyph glyph-name="brokenbar" unicode="&#xa6;" horiz-adv-x="500" d="M298 467 L298 850 L204 850 L204 467 L298 467 Z M204 233 L204 -150 L298 -150 L298 233 L204 233 Z " />
<glyph glyph-name="section" unicode="&#xa7;" horiz-adv-x="1176" d="M227 143 L755 143 C820 143 842 116 842 83 C842 38 815 -9 724 -9 L154 -9 L136 -100 L746 -100 C886 -100 942 -22 942 63 C942 96 930 128 904 145 C1052 145 1106 237 1106 326 C1106 399 1057 457 937 457 L409 457 C344 457 322 484 322 517 C322 562 349 609 440 609 L1010 609 L1028 700 L418 700 C278 700 222 622 222 537 C222 504 234 472 260 455 C112 455 58 363 58 274 C58 201 107 143 227 143 L227 143 Z M916 377 C984 377 1005 349 1005 314 C1005 269 975 223 886 223 L248 223 C180 223 159 251 159 286 C159 331 189 377 278 377 L916 377 Z " />
<glyph glyph-name="dieresis" unicode="&#xa8;" horiz-adv-x="480" d="M375 666 L481 666 L500 773 L394 773 L375 666 Z M112 666 L218 666 L237 773 L130 773 L112 666 Z " />
<glyph glyph-name="copyright" unicode="&#xa9;" horiz-adv-x="1159" d="M664 -10 C977 -10 1100 151 1100 350 C1100 549 977 710 664 710 L500 710 C187 710 64 549 64 350 C64 151 187 -10 500 -10 L664 -10 Z M501 61 C239 61 147 191 147 350 C147 509 239 639 501 639 L663 639 C925 639 1017 509 1017 350 C1017 191 925 61 663 61 L501 61 Z M796 235 L512 235 C403 235 370 286 370 350 C370 413 403 465 512 465 L796 465 L796 525 L512 525 C359 525 300 446 300 350 C300 253 359 175 512 175 L796 175 L796 235 Z " />
<glyph glyph-name="ordfeminine" unicode="&#xaa;" horiz-adv-x="731" d="M576 350 L675 350 L473 700 L388 700 L61 350 L166 350 L215 405 L545 405 L576 350 Z M416 628 L504 473 L277 473 L416 628 Z " />
<glyph glyph-name="guillemotleft" unicode="&#xab;" horiz-adv-x="771" d="M313 560 L76 282 L216 0 L327 0 L191 273 L434 560 L313 560 Z M611 560 L374 282 L514 0 L625 0 L489 273 L732 560 L611 560 Z " />
<glyph glyph-name="logicalnot" unicode="&#xac;" horiz-adv-x="1245" d="M277 300 L863 300 L863 40 L973 40 L973 400 L277 400 L277 300 Z " />
<glyph glyph-name="uni00AD" unicode="&#xad;" horiz-adv-x="576" d="M69 236 L469 236 L486 324 L86 324 L69 236 Z " />
<glyph glyph-name="registered" unicode="&#xae;" horiz-adv-x="1159" d="M664 -10 C977 -10 1100 151 1100 350 C1100 549 977 710 664 710 L500 710 C187 710 64 549 64 350 C64 151 187 -10 500 -10 L664 -10 Z M501 61 C239 61 147 191 147 350 C147 509 239 639 501 639 L663 639 C925 639 1017 509 1017 350 C1017 191 925 61 663 61 L501 61 Z M332 175 L399 175 L399 301 L607 301 L788 175 L888 175 L700 302 C791 305 828 352 828 413 C828 475 790 525 692 525 L332 525 L332 175 Z M687 465 C743 465 757 441 757 411 C757 381 743 358 687 358 L399 358 L399 465 L687 465 Z " />
<glyph glyph-name="macron" unicode="&#xaf;" horiz-adv-x="480" d="M116 684 L486 684 L499 756 L129 756 L116 684 Z " />
<glyph glyph-name="degree" unicode="&#xb0;" horiz-adv-x="542" d="M98 508 C98 391 191 306 302 306 C413 306 506 391 506 508 C506 625 413 710 302 710 C191 710 98 625 98 508 L98 508 Z M184 508 C184 580 234 632 302 632 C370 632 420 580 420 508 C420 436 370 384 302 384 C234 384 184 436 184 508 L184 508 Z " />
<glyph glyph-name="plusminus" unicode="&#xb1;" horiz-adv-x="1245" d="M277 400 L570 400 L570 200 L680 200 L680 400 L973 400 L973 500 L680 500 L680 700 L570 700 L570 500 L277 500 L277 400 Z M277 0 L973 0 L973 100 L277 100 L277 0 Z " />
<glyph glyph-name="twosuperior" unicode="&#xb2;" horiz-adv-x="715" d="M630 423 L185 423 L192 458 C195 476 210 494 252 494 L531 494 C641 494 677 547 677 612 C677 661 645 700 565 700 L178 700 L164 627 L548 627 C584 627 593 613 593 596 C593 575 576 556 535 556 L262 556 C169 556 126 513 114 454 L97 350 L618 350 L630 423 Z " />
<glyph glyph-name="threesuperior" unicode="&#xb3;" horiz-adv-x="715" d="M82 350 L510 350 C604 350 642 402 642 459 C642 493 624 520 585 531 C629 550 647 586 647 624 C647 667 620 700 553 700 L155 700 L142 627 L516 627 C553 627 561 613 561 596 C561 575 544 556 503 556 L170 556 L159 494 L513 494 C550 494 558 480 558 463 C558 442 542 423 501 423 L96 423 L82 350 Z " />
<glyph glyph-name="acute" unicode="&#xb4;" horiz-adv-x="480" d="M213 635 L288 635 L474 806 L344 806 L213 635 Z " />
<glyph glyph-name="uni00B5" unicode="&#xb5;" horiz-adv-x="1245" d="M985 0 L1060 0 L1159 560 L1049 560 L1013 355 C988 213 892 100 658 100 L332 100 C228 100 202 144 212 202 L276 560 L166 560 L29 -200 L139 -200 L188 74 C205 17 262 0 339 0 L659 0 C833 0 933 65 987 156 L985 0 Z " />
<glyph glyph-name="paragraph" unicode="&#xb6;" horiz-adv-x="1150" d="M612 600 L854 600 L854 -100 L964 -100 L964 600 L1060 600 L1060 700 L328 700 C134 700 59 601 59 480 C59 356 134 260 328 260 L502 260 L502 -100 L612 -100 L612 600 Z " />
<glyph glyph-name="periodcentered" unicode="&#xb7;" horiz-adv-x="300" d="M84 290 L202 290 L224 409 L106 409 L84 290 Z " />
<glyph glyph-name="cedilla" unicode="&#xb8;" horiz-adv-x="480" d="M104 -115 L133 -115 C185 -115 214 -126 214 -157 C214 -204 161 -217 111 -217 C75 -217 41 -207 25 -196 L15 -245 C40 -259 82 -271 127 -271 C206 -270 290 -245 290 -152 C290 -86 224 -64 165 -70 L197 0 L156 0 L104 -115 Z " />
<glyph glyph-name="onesuperior" unicode="&#xb9;" horiz-adv-x="715" d="M276 627 L396 627 L361 423 L170 423 L156 350 L563 350 L575 423 L441 423 L491 700 L290 700 L276 627 Z " />
<glyph glyph-name="ordmasculine" unicode="&#xba;" horiz-adv-x="727" d="M438 345 C619 345 690 444 690 555 C690 636 636 705 500 705 L358 705 C177 705 106 605 106 495 C106 413 160 345 296 345 L438 345 Z M310 418 C219 418 188 457 188 507 C188 570 228 632 350 632 L487 632 C577 632 609 592 609 543 C609 479 568 418 446 418 L310 418 Z " />
<glyph glyph-name="guillemotright" unicode="&#xbb;" horiz-adv-x="771" d="M143 0 L380 278 L240 560 L129 560 L265 287 L22 0 L143 0 Z M441 0 L677 278 L538 560 L427 560 L563 287 L320 0 L441 0 Z " />
<glyph glyph-name="onequarter" unicode="&#xbc;" horiz-adv-x="1430" d="M276 627 L396 627 L361 423 L170 423 L156 350 L563 350 L575 423 L441 423 L491 700 L290 700 L276 627 Z M1119 700 L199 0 L317 0 L1236 700 L1119 700 Z M1231 350 L757 118 L744 57 L1173 57 L1165 0 L1246 0 L1254 57 L1308 57 L1322 130 L1268 130 L1308 350 L1231 350 Z M923 130 L1212 270 L1188 130 L923 130 Z " />
<glyph glyph-name="onehalf" unicode="&#xbd;" horiz-adv-x="1430" d="M276 627 L396 627 L361 423 L170 423 L156 350 L563 350 L575 423 L441 423 L491 700 L290 700 L276 627 Z M1119 700 L199 0 L317 0 L1236 700 L1119 700 Z M1283 73 L838 73 L845 108 C848 126 863 144 905 144 L1184 144 C1294 144 1330 197 1330 262 C1330 311 1298 350 1218 350 L831 350 L817 277 L1201 277 C1237 277 1246 263 1246 246 C1246 225 1229 206 1188 206 L915 206 C822 206 779 163 767 104 L750 0 L1271 0 L1283 73 Z " />
<glyph glyph-name="threequarters" unicode="&#xbe;" horiz-adv-x="1430" d="M82 350 L510 350 C604 350 642 402 642 459 C642 493 624 520 585 531 C629 550 647 586 647 624 C647 667 620 700 553 700 L155 700 L142 627 L516 627 C553 627 561 613 561 596 C561 575 544 556 503 556 L170 556 L159 494 L513 494 C550 494 558 480 558 463 C558 442 542 423 501 423 L96 423 L82 350 Z M1119 700 L199 0 L317 0 L1236 700 L1119 700 Z M1231 350 L757 118 L744 57 L1173 57 L1165 0 L1246 0 L1254 57 L1308 57 L1322 130 L1268 130 L1308 350 L1231 350 Z M923 130 L1212 270 L1188 130 L923 130 Z " />
<glyph glyph-name="questiondown" unicode="&#xbf;" horiz-adv-x="1026" d="M758 515 L658 515 L637 393 L286 393 C82 393 3 286 3 165 C3 72 61 0 217 0 L939 0 L958 100 L237 100 C147 100 121 139 121 186 C121 249 161 307 275 307 L721 307 L758 515 Z M801 700 L682 700 L661 581 L779 581 L801 700 Z " />
<glyph glyph-name="Agrave" unicode="&#xc0;" horiz-adv-x="1224" d="M1028 0 L1156 0 L736 700 L620 700 L-51 0 L89 0 L214 132 L949 132 L1028 0 Z M665 606 L894 223 L301 223 L665 606 Z M695 946 L574 946 L696 775 L764 775 L695 946 Z " />
<glyph glyph-name="Aacute" unicode="&#xc1;" horiz-adv-x="1224" d="M1028 0 L1156 0 L736 700 L620 700 L-51 0 L89 0 L214 132 L949 132 L1028 0 Z M665 606 L894 223 L301 223 L665 606 Z M610 775 L685 775 L871 946 L741 946 L610 775 Z " />
<glyph glyph-name="Acircumflex" unicode="&#xc2;" horiz-adv-x="1224" d="M1028 0 L1156 0 L736 700 L620 700 L-51 0 L89 0 L214 132 L949 132 L1028 0 Z M665 606 L894 223 L301 223 L665 606 Z M510 775 L582 775 L711 890 L798 775 L866 775 L783 946 L656 946 L510 775 Z " />
<glyph glyph-name="Atilde" unicode="&#xc3;" horiz-adv-x="1224" d="M1028 0 L1156 0 L736 700 L620 700 L-51 0 L89 0 L214 132 L949 132 L1028 0 Z M665 606 L894 223 L301 223 L665 606 Z M833 934 C819 882 801 871 777 871 C736 871 704 927 642 927 C586 927 544 894 518 786 L573 786 C586 838 604 850 629 850 C669 850 701 793 762 793 C819 793 862 826 888 934 L833 934 Z " />
<glyph glyph-name="Adieresis" unicode="&#xc4;" horiz-adv-x="1224" d="M1028 0 L1156 0 L736 700 L620 700 L-51 0 L89 0 L214 132 L949 132 L1028 0 Z M665 606 L894 223 L301 223 L665 606 Z M772 806 L878 806 L897 913 L791 913 L772 806 Z M509 806 L615 806 L634 913 L527 913 L509 806 Z " />
<glyph glyph-name="Aring" unicode="&#xc5;" horiz-adv-x="1224" d="M1028 0 L1156 0 L736 700 L620 700 L-51 0 L89 0 L214 132 L949 132 L1028 0 Z M665 606 L894 223 L301 223 L665 606 Z M646 856 C646 890 676 918 710 918 C739 918 761 895 761 866 C761 831 730 804 697 804 C667 804 646 827 646 856 L646 856 Z M582 852 C582 794 625 749 692 749 C765 749 825 803 825 871 C825 929 781 973 715 973 C641 973 582 920 582 852 L582 852 Z " />
<glyph glyph-name="AE" unicode="&#xc6;" horiz-adv-x="1641" d="M671 130 L649 0 L1506 0 L1524 100 L776 100 L812 305 L1461 305 L1479 395 L829 395 L864 600 L1611 600 L1631 700 L715 700 L-51 0 L90 0 L231 130 L671 130 Z M329 220 L756 613 L688 220 L329 220 Z " />
<glyph glyph-name="Ccedilla" unicode="&#xc7;" horiz-adv-x="1136" d="M480 -115 L509 -115 C561 -115 590 -126 590 -157 C590 -204 537 -217 487 -217 C451 -217 417 -207 401 -196 L391 -245 C416 -259 458 -271 503 -271 C582 -270 666 -245 666 -152 C666 -86 600 -64 541 -70 L573 0 L1000 0 L1017 100 L453 100 C250 100 184 192 184 309 C184 451 267 600 543 600 L1107 600 L1125 700 L551 700 C205 700 66 507 66 296 C66 130 167 0 435 0 L532 0 L480 -115 Z " />
<glyph glyph-name="Egrave" unicode="&#xc8;" horiz-adv-x="1150" d="M57 0 L1015 0 L1033 100 L185 100 L220 305 L970 305 L987 395 L237 395 L273 600 L1121 600 L1140 700 L182 700 L57 0 Z M667 946 L546 946 L668 775 L736 775 L667 946 Z " />
<glyph glyph-name="Eacute" unicode="&#xc9;" horiz-adv-x="1150" d="M57 0 L1015 0 L1033 100 L185 100 L220 305 L970 305 L987 395 L237 395 L273 600 L1121 600 L1140 700 L182 700 L57 0 Z M582 775 L657 775 L843 946 L713 946 L582 775 Z " />
<glyph glyph-name="Ecircumflex" unicode="&#xca;" horiz-adv-x="1150" d="M57 0 L1015 0 L1033 100 L185 100 L220 305 L970 305 L987 395 L237 395 L273 600 L1121 600 L1140 700 L182 700 L57 0 Z M482 775 L554 775 L683 890 L770 775 L838 775 L755 946 L628 946 L482 775 Z " />
<glyph glyph-name="Edieresis" unicode="&#xcb;" horiz-adv-x="1150" d="M57 0 L1015 0 L1033 100 L185 100 L220 305 L970 305 L987 395 L237 395 L273 600 L1121 600 L1140 700 L182 700 L57 0 Z M744 806 L850 806 L869 913 L763 913 L744 806 Z M481 806 L587 806 L606 913 L499 913 L481 806 Z " />
<glyph glyph-name="Igrave" unicode="&#xcc;" horiz-adv-x="343" d="M57 0 L167 0 L292 700 L182 700 L57 0 Z M253 946 L132 946 L254 775 L322 775 L253 946 Z " />
<glyph glyph-name="Iacute" unicode="&#xcd;" horiz-adv-x="343" d="M57 0 L167 0 L292 700 L182 700 L57 0 Z M168 775 L243 775 L429 946 L299 946 L168 775 Z " />
<glyph glyph-name="Icircumflex" unicode="&#xce;" horiz-adv-x="343" d="M57 0 L167 0 L292 700 L182 700 L57 0 Z M68 775 L140 775 L269 890 L356 775 L424 775 L341 946 L214 946 L68 775 Z " />
<glyph glyph-name="Idieresis" unicode="&#xcf;" horiz-adv-x="343" d="M57 0 L167 0 L292 700 L182 700 L57 0 Z M330 806 L436 806 L455 913 L349 913 L330 806 Z M67 806 L173 806 L192 913 L85 913 L67 806 Z " />
<glyph glyph-name="Eth" unicode="&#xd0;" horiz-adv-x="1204" d="M-15 305 L111 305 L57 0 L657 0 C1002 0 1141 193 1141 404 C1141 570 1040 700 772 700 L182 700 L127 395 L3 395 L-15 305 Z M754 600 C957 600 1024 508 1024 391 C1024 249 941 100 665 100 L183 100 L219 305 L608 305 L625 395 L235 395 L272 600 L754 600 Z " />
<glyph glyph-name="Ntilde" unicode="&#xd1;" horiz-adv-x="1253" d="M973 0 L1077 0 L1202 700 L1092 700 L989 119 L286 700 L182 700 L57 0 L167 0 L269 581 L973 0 Z M847 934 C833 882 815 871 791 871 C750 871 718 927 656 927 C600 927 558 894 532 786 L587 786 C600 838 618 850 643 850 C683 850 715 793 776 793 C833 793 876 826 902 934 L847 934 Z " />
<glyph glyph-name="Ograve" unicode="&#xd2;" horiz-adv-x="1293" d="M731 -10 C1094 -10 1231 185 1231 409 C1231 579 1124 710 853 710 L568 710 C207 710 66 518 66 294 C66 122 174 -10 446 -10 L731 -10 Z M467 90 C255 90 184 184 184 307 C184 457 275 610 562 610 L831 610 C1042 610 1113 517 1113 395 C1113 241 1022 90 737 90 L467 90 Z M728 946 L607 946 L729 775 L797 775 L728 946 Z " />
<glyph glyph-name="Oacute" unicode="&#xd3;" horiz-adv-x="1293" d="M731 -10 C1094 -10 1231 185 1231 409 C1231 579 1124 710 853 710 L568 710 C207 710 66 518 66 294 C66 122 174 -10 446 -10 L731 -10 Z M467 90 C255 90 184 184 184 307 C184 457 275 610 562 610 L831 610 C1042 610 1113 517 1113 395 C1113 241 1022 90 737 90 L467 90 Z M643 775 L718 775 L904 946 L774 946 L643 775 Z " />
<glyph glyph-name="Ocircumflex" unicode="&#xd4;" horiz-adv-x="1293" d="M731 -10 C1094 -10 1231 185 1231 409 C1231 579 1124 710 853 710 L568 710 C207 710 66 518 66 294 C66 122 174 -10 446 -10 L731 -10 Z M467 90 C255 90 184 184 184 307 C184 457 275 610 562 610 L831 610 C1042 610 1113 517 1113 395 C1113 241 1022 90 737 90 L467 90 Z M543 775 L615 775 L744 890 L831 775 L899 775 L816 946 L689 946 L543 775 Z " />
<glyph glyph-name="Otilde" unicode="&#xd5;" horiz-adv-x="1293" d="M731 -10 C1094 -10 1231 185 1231 409 C1231 579 1124 710 853 710 L568 710 C207 710 66 518 66 294 C66 122 174 -10 446 -10 L731 -10 Z M467 90 C255 90 184 184 184 307 C184 457 275 610 562 610 L831 610 C1042 610 1113 517 1113 395 C1113 241 1022 90 737 90 L467 90 Z M867 934 C853 882 835 871 811 871 C770 871 738 927 676 927 C620 927 578 894 552 786 L607 786 C620 838 638 850 663 850 C703 850 735 793 796 793 C853 793 896 826 922 934 L867 934 Z " />
<glyph glyph-name="Odieresis" unicode="&#xd6;" horiz-adv-x="1293" d="M731 -10 C1094 -10 1231 185 1231 409 C1231 579 1124 710 853 710 L568 710 C207 710 66 518 66 294 C66 122 174 -10 446 -10 L731 -10 Z M467 90 C255 90 184 184 184 307 C184 457 275 610 562 610 L831 610 C1042 610 1113 517 1113 395 C1113 241 1022 90 737 90 L467 90 Z M805 806 L911 806 L930 913 L824 913 L805 806 Z M542 806 L648 806 L667 913 L560 913 L542 806 Z " />
<glyph glyph-name="multiply" unicode="&#xd7;" horiz-adv-x="1245" d="M929 576 L854 650 L623 416 L396 644 L322 570 L550 348 L322 124 L396 50 L623 280 L854 50 L929 124 L696 349 L929 576 Z " />
<glyph glyph-name="Oslash" unicode="&#xd8;" horiz-adv-x="1293" d="M731 -10 C1094 -10 1231 185 1231 409 C1231 537 1169 644 1022 688 L1125 800 L998 800 L913 707 C894 709 874 710 853 710 L568 710 C207 710 66 518 66 294 C66 164 128 57 276 12 L173 -100 L300 -100 L384 -7 C404 -9 424 -10 446 -10 L731 -10 Z M184 307 C184 457 275 610 562 610 L824 610 L357 101 C229 129 184 208 184 307 L184 307 Z M1113 395 C1113 241 1022 90 737 90 L474 90 L941 599 C1067 572 1113 492 1113 395 L1113 395 Z " />
<glyph glyph-name="Ugrave" unicode="&#xd9;" horiz-adv-x="1223" d="M204 323 L273 700 L163 700 L94 323 C59 130 135 -10 429 -10 L687 -10 C976 -10 1088 118 1122 308 L1192 700 L1082 700 L1015 329 C989 183 906 90 702 90 L442 90 C228 90 180 186 204 323 L204 323 Z M694 946 L573 946 L695 775 L763 775 L694 946 Z " />
<glyph glyph-name="Uacute" unicode="&#xda;" horiz-adv-x="1223" d="M204 323 L273 700 L163 700 L94 323 C59 130 135 -10 429 -10 L687 -10 C976 -10 1088 118 1122 308 L1192 700 L1082 700 L1015 329 C989 183 906 90 702 90 L442 90 C228 90 180 186 204 323 L204 323 Z M609 775 L684 775 L870 946 L740 946 L609 775 Z " />
<glyph glyph-name="Ucircumflex" unicode="&#xdb;" horiz-adv-x="1223" d="M204 323 L273 700 L163 700 L94 323 C59 130 135 -10 429 -10 L687 -10 C976 -10 1088 118 1122 308 L1192 700 L1082 700 L1015 329 C989 183 906 90 702 90 L442 90 C228 90 180 186 204 323 L204 323 Z M509 775 L581 775 L710 890 L797 775 L865 775 L782 946 L655 946 L509 775 Z " />
<glyph glyph-name="Udieresis" unicode="&#xdc;" horiz-adv-x="1223" d="M204 323 L273 700 L163 700 L94 323 C59 130 135 -10 429 -10 L687 -10 C976 -10 1088 118 1122 308 L1192 700 L1082 700 L1015 329 C989 183 906 90 702 90 L442 90 C228 90 180 186 204 323 L204 323 Z M771 806 L877 806 L896 913 L790 913 L771 806 Z M508 806 L614 806 L633 913 L526 913 L508 806 Z " />
<glyph glyph-name="Yacute" unicode="&#xdd;" horiz-adv-x="1199" d="M485 0 L595 0 L632 212 L1265 700 L1097 700 L587 298 L218 700 L65 700 L522 212 L485 0 Z M596 775 L671 775 L857 946 L727 946 L596 775 Z " />
<glyph glyph-name="Thorn" unicode="&#xde;" horiz-adv-x="1146" d="M57 0 L167 0 L190 130 L812 130 C1036 130 1126 244 1126 384 C1126 488 1064 570 892 570 L269 570 L292 700 L182 700 L57 0 Z M871 470 C977 470 1009 425 1009 369 C1009 295 959 230 828 230 L209 230 L250 470 L871 470 Z " />
<glyph glyph-name="germandbls" unicode="&#xdf;" horiz-adv-x="1044" d="M733 243 C804 243 826 214 826 179 C826 132 797 86 703 86 L310 86 L295 0 L694 0 C872 0 929 89 929 186 C929 261 881 317 751 317 L613 317 L944 493 L952 560 L466 560 C208 560 108 450 81 296 L28 0 L126 0 L179 296 C197 401 262 474 452 474 L755 474 L459 310 L448 243 L733 243 Z " />
<glyph glyph-name="agrave" unicode="&#xe0;" horiz-adv-x="1047" d="M861 0 L978 0 L616 560 L511 560 L-50 0 L76 0 L185 110 L790 110 L861 0 Z M553 480 L741 186 L261 186 L553 480 Z M581 806 L460 806 L582 635 L650 635 L581 806 Z " />
<glyph glyph-name="aacute" unicode="&#xe1;" horiz-adv-x="1047" d="M861 0 L978 0 L616 560 L511 560 L-50 0 L76 0 L185 110 L790 110 L861 0 Z M553 480 L741 186 L261 186 L553 480 Z M496 635 L571 635 L757 806 L627 806 L496 635 Z " />
<glyph glyph-name="acircumflex" unicode="&#xe2;" horiz-adv-x="1047" d="M861 0 L978 0 L616 560 L511 560 L-50 0 L76 0 L185 110 L790 110 L861 0 Z M553 480 L741 186 L261 186 L553 480 Z M396 635 L468 635 L597 750 L684 635 L752 635 L669 806 L542 806 L396 635 Z " />
<glyph glyph-name="atilde" unicode="&#xe3;" horiz-adv-x="1047" d="M861 0 L978 0 L616 560 L511 560 L-50 0 L76 0 L185 110 L790 110 L861 0 Z M553 480 L741 186 L261 186 L553 480 Z M720 794 C706 742 688 731 664 731 C623 731 591 787 529 787 C473 787 431 754 405 646 L460 646 C473 698 491 710 516 710 C556 710 588 653 649 653 C706 653 749 686 775 794 L720 794 Z " />
<glyph glyph-name="adieresis" unicode="&#xe4;" horiz-adv-x="1047" d="M861 0 L978 0 L616 560 L511 560 L-50 0 L76 0 L185 110 L790 110 L861 0 Z M553 480 L741 186 L261 186 L553 480 Z M658 666 L764 666 L783 773 L677 773 L658 666 Z M395 666 L501 666 L520 773 L413 773 L395 666 Z " />
<glyph glyph-name="aring" unicode="&#xe5;" horiz-adv-x="1047" d="M861 0 L978 0 L616 560 L511 560 L-50 0 L76 0 L185 110 L790 110 L861 0 Z M553 480 L741 186 L261 186 L553 480 Z M532 716 C532 750 562 778 596 778 C625 778 647 755 647 726 C647 691 616 664 583 664 C553 664 532 687 532 716 L532 716 Z M468 712 C468 654 511 609 578 609 C651 609 711 663 711 731 C711 789 667 833 601 833 C527 833 468 780 468 712 L468 712 Z " />
<glyph glyph-name="ae" unicode="&#xe6;" horiz-adv-x="1404" d="M563 102 L545 0 L1276 0 L1290 86 L659 86 L686 242 L1233 242 L1248 318 L700 318 L727 474 L1359 474 L1375 560 L592 560 L-50 0 L77 0 L193 102 L563 102 Z M280 178 L631 484 L577 178 L280 178 Z " />
<glyph glyph-name="ccedilla" unicode="&#xe7;" horiz-adv-x="974" d="M389 -115 L418 -115 C470 -115 499 -126 499 -157 C499 -204 446 -217 396 -217 C360 -217 326 -207 310 -196 L300 -245 C325 -259 367 -271 412 -271 C491 -270 575 -245 575 -152 C575 -86 509 -64 450 -70 L482 0 L846 0 L862 86 L368 86 C208 86 155 151 155 244 C155 361 240 474 452 474 L930 474 L947 560 L458 560 C157 560 50 400 50 232 C50 102 132 0 357 0 L441 0 L389 -115 Z " />
<glyph glyph-name="egrave" unicode="&#xe8;" horiz-adv-x="992" d="M47 0 L862 0 L877 86 L161 86 L187 242 L820 242 L834 318 L202 318 L229 474 L946 474 L961 560 L146 560 L47 0 Z M565 806 L444 806 L566 635 L634 635 L565 806 Z " />
<glyph glyph-name="eacute" unicode="&#xe9;" horiz-adv-x="992" d="M47 0 L862 0 L877 86 L161 86 L187 242 L820 242 L834 318 L202 318 L229 474 L946 474 L961 560 L146 560 L47 0 Z M480 635 L555 635 L741 806 L611 806 L480 635 Z " />
<glyph glyph-name="ecircumflex" unicode="&#xea;" horiz-adv-x="992" d="M47 0 L862 0 L877 86 L161 86 L187 242 L820 242 L834 318 L202 318 L229 474 L946 474 L961 560 L146 560 L47 0 Z M380 635 L452 635 L581 750 L668 635 L736 635 L653 806 L526 806 L380 635 Z " />
<glyph glyph-name="edieresis" unicode="&#xeb;" horiz-adv-x="992" d="M47 0 L862 0 L877 86 L161 86 L187 242 L820 242 L834 318 L202 318 L229 474 L946 474 L961 560 L146 560 L47 0 Z M642 666 L748 666 L767 773 L661 773 L642 666 Z M379 666 L485 666 L504 773 L397 773 L379 666 Z " />
<glyph glyph-name="igrave" unicode="&#xec;" horiz-adv-x="312" d="M214 806 L93 806 L215 635 L283 635 L214 806 Z M47 0 L146 0 L245 560 L146 560 L47 0 Z " />
<glyph glyph-name="iacute" unicode="&#xed;" horiz-adv-x="312" d="M129 635 L204 635 L390 806 L260 806 L129 635 Z M47 0 L146 0 L245 560 L146 560 L47 0 Z " />
<glyph glyph-name="icircumflex" unicode="&#xee;" horiz-adv-x="312" d="M47 0 L146 0 L245 560 L146 560 L47 0 Z M29 635 L101 635 L230 750 L317 635 L385 635 L302 806 L175 806 L29 635 Z " />
<glyph glyph-name="idieresis" unicode="&#xef;" horiz-adv-x="312" d="M290 666 L396 666 L415 773 L309 773 L290 666 Z M27 666 L133 666 L152 773 L45 773 L27 666 Z M47 0 L146 0 L245 560 L146 560 L47 0 Z " />
<glyph glyph-name="eth" unicode="&#xf0;" horiz-adv-x="1037" d="M-26 242 L90 242 L47 0 L560 0 C861 0 968 160 968 328 C968 457 885 560 661 560 L148 560 L104 318 L-11 318 L-26 242 Z M651 474 C810 474 863 409 863 316 C863 199 778 86 566 86 L162 86 L189 242 L525 242 L539 318 L202 318 L229 474 L651 474 Z " />
<glyph glyph-name="ntilde" unicode="&#xf1;" horiz-adv-x="1082" d="M916 0 L1015 560 L916 560 L836 105 L240 560 L146 560 L47 0 L146 0 L226 456 L822 0 L916 0 Z M738 794 C724 742 706 731 682 731 C641 731 609 787 547 787 C491 787 449 754 423 646 L478 646 C491 698 509 710 534 710 C574 710 606 653 667 653 C724 653 767 686 793 794 L738 794 Z " />
<glyph glyph-name="ograve" unicode="&#xf2;" horiz-adv-x="1108" d="M618 -8 C923 -8 1037 152 1039 326 C1040 461 957 568 722 568 L469 568 C164 568 52 408 50 234 C48 99 130 -8 365 -8 L618 -8 Z M382 78 C208 78 154 150 154 242 C155 361 238 482 457 482 L706 482 C880 482 934 409 934 317 C934 201 851 78 631 78 L382 78 Z M612 806 L491 806 L613 635 L681 635 L612 806 Z " />
<glyph glyph-name="oacute" unicode="&#xf3;" horiz-adv-x="1108" d="M618 -8 C923 -8 1037 152 1039 326 C1040 461 957 568 722 568 L469 568 C164 568 52 408 50 234 C48 99 130 -8 365 -8 L618 -8 Z M382 78 C208 78 154 150 154 242 C155 361 238 482 457 482 L706 482 C880 482 934 409 934 317 C934 201 851 78 631 78 L382 78 Z M527 635 L602 635 L788 806 L658 806 L527 635 Z " />
<glyph glyph-name="ocircumflex" unicode="&#xf4;" horiz-adv-x="1108" d="M618 -8 C923 -8 1037 152 1039 326 C1040 461 957 568 722 568 L469 568 C164 568 52 408 50 234 C48 99 130 -8 365 -8 L618 -8 Z M382 78 C208 78 154 150 154 242 C155 361 238 482 457 482 L706 482 C880 482 934 409 934 317 C934 201 851 78 631 78 L382 78 Z M427 635 L499 635 L628 750 L715 635 L783 635 L700 806 L573 806 L427 635 Z " />
<glyph glyph-name="otilde" unicode="&#xf5;" horiz-adv-x="1108" d="M618 -8 C923 -8 1037 152 1039 326 C1040 461 957 568 722 568 L469 568 C164 568 52 408 50 234 C48 99 130 -8 365 -8 L618 -8 Z M382 78 C208 78 154 150 154 242 C155 361 238 482 457 482 L706 482 C880 482 934 409 934 317 C934 201 851 78 631 78 L382 78 Z M750 794 C736 742 718 731 694 731 C653 731 621 787 559 787 C503 787 461 754 435 646 L490 646 C503 698 521 710 546 710 C586 710 618 653 679 653 C736 653 779 686 805 794 L750 794 Z " />
<glyph glyph-name="odieresis" unicode="&#xf6;" horiz-adv-x="1108" d="M618 -8 C923 -8 1037 152 1039 326 C1040 461 957 568 722 568 L469 568 C164 568 52 408 50 234 C48 99 130 -8 365 -8 L618 -8 Z M382 78 C208 78 154 150 154 242 C155 361 238 482 457 482 L706 482 C880 482 934 409 934 317 C934 201 851 78 631 78 L382 78 Z M689 666 L795 666 L814 773 L708 773 L689 666 Z M426 666 L532 666 L551 773 L444 773 L426 666 Z " />
<glyph glyph-name="divide" unicode="&#xf7;" horiz-adv-x="1245" d="M277 300 L973 300 L973 400 L277 400 L277 300 Z M567 30 L682 30 L682 145 L567 145 L567 30 Z M567 555 L682 555 L682 670 L567 670 L567 555 Z " />
<glyph glyph-name="oslash" unicode="&#xf8;" horiz-adv-x="1108" d="M618 -8 C923 -8 1037 152 1039 326 C1040 430 990 517 860 552 L944 640 L832 640 L761 566 C749 567 735 568 722 568 L469 568 C164 568 52 408 50 234 C48 130 97 42 226 8 L142 -80 L254 -80 L324 -6 C337 -7 351 -8 365 -8 L618 -8 Z M934 317 C934 201 851 78 631 78 L405 78 L786 475 C897 456 934 393 934 317 L934 317 Z M154 242 C155 361 238 482 457 482 L680 482 L300 84 C190 104 154 166 154 242 L154 242 Z " />
<glyph glyph-name="ugrave" unicode="&#xf9;" horiz-adv-x="1050" d="M171 258 L225 560 L127 560 L73 258 C45 104 95 -8 352 -8 L590 -8 C825 -8 917 84 945 241 L1002 560 L904 560 L849 257 C828 143 770 78 598 78 L367 78 C179 78 152 148 171 258 L171 258 Z M584 806 L463 806 L585 635 L653 635 L584 806 Z " />
<glyph glyph-name="uacute" unicode="&#xfa;" horiz-adv-x="1050" d="M171 258 L225 560 L127 560 L73 258 C45 104 95 -8 352 -8 L590 -8 C825 -8 917 84 945 241 L1002 560 L904 560 L849 257 C828 143 770 78 598 78 L367 78 C179 78 152 148 171 258 L171 258 Z M499 635 L574 635 L760 806 L630 806 L499 635 Z " />
<glyph glyph-name="ucircumflex" unicode="&#xfb;" horiz-adv-x="1050" d="M171 258 L225 560 L127 560 L73 258 C45 104 95 -8 352 -8 L590 -8 C825 -8 917 84 945 241 L1002 560 L904 560 L849 257 C828 143 770 78 598 78 L367 78 C179 78 152 148 171 258 L171 258 Z M399 635 L471 635 L600 750 L687 635 L755 635 L672 806 L545 806 L399 635 Z " />
<glyph glyph-name="udieresis" unicode="&#xfc;" horiz-adv-x="1050" d="M171 258 L225 560 L127 560 L73 258 C45 104 95 -8 352 -8 L590 -8 C825 -8 917 84 945 241 L1002 560 L904 560 L849 257 C828 143 770 78 598 78 L367 78 C179 78 152 148 171 258 L171 258 Z M660 666 L766 666 L785 773 L679 773 L660 666 Z M397 666 L503 666 L522 773 L415 773 L397 666 Z " />
<glyph glyph-name="yacute" unicode="&#xfd;" horiz-adv-x="1020" d="M402 0 L500 0 L530 170 L1060 560 L910 560 L488 243 L176 560 L39 560 L431 170 L402 0 Z M483 635 L558 635 L744 806 L614 806 L483 635 Z " />
<glyph glyph-name="thorn" unicode="&#xfe;" horiz-adv-x="998" d="M47 0 L146 0 L164 102 L693 102 C888 102 953 203 953 308 C953 391 901 458 756 458 L228 458 L247 560 L148 560 L47 0 Z M738 371 C824 371 848 339 848 296 C848 242 816 189 705 189 L180 189 L212 371 L738 371 Z " />
<glyph glyph-name="ydieresis" unicode="&#xff;" horiz-adv-x="1020" d="M402 0 L500 0 L530 170 L1060 560 L910 560 L488 243 L176 560 L39 560 L431 170 L402 0 Z M645 666 L751 666 L770 773 L664 773 L645 666 Z M382 666 L488 666 L507 773 L400 773 L382 666 Z " />
<glyph glyph-name="Amacron" unicode="&#x100;" horiz-adv-x="1224" d="M1028 0 L1156 0 L736 700 L620 700 L-51 0 L89 0 L214 132 L949 132 L1028 0 Z M665 606 L894 223 L301 223 L665 606 Z M513 824 L883 824 L896 896 L526 896 L513 824 Z " />
<glyph glyph-name="amacron" unicode="&#x101;" horiz-adv-x="1047" d="M861 0 L978 0 L616 560 L511 560 L-50 0 L76 0 L185 110 L790 110 L861 0 Z M553 480 L741 186 L261 186 L553 480 Z M399 684 L769 684 L782 756 L412 756 L399 684 Z " />
<glyph glyph-name="Abreve" unicode="&#x102;" horiz-adv-x="1224" d="M1028 0 L1156 0 L736 700 L620 700 L-51 0 L89 0 L214 132 L949 132 L1028 0 Z M665 606 L894 223 L301 223 L665 606 Z M700 853 C626 853 605 891 609 937 L550 937 C541 864 562 783 689 783 C816 783 865 863 884 937 L822 937 C810 891 773 853 700 853 L700 853 Z " />
<glyph glyph-name="abreve" unicode="&#x103;" horiz-adv-x="1047" d="M861 0 L978 0 L616 560 L511 560 L-50 0 L76 0 L185 110 L790 110 L861 0 Z M553 480 L741 186 L261 186 L553 480 Z M587 713 C513 713 492 751 496 797 L437 797 C428 724 449 643 576 643 C703 643 752 723 771 797 L709 797 C697 751 660 713 587 713 L587 713 Z " />
<glyph glyph-name="Aogonek" unicode="&#x104;" horiz-adv-x="1224" d="M840 -181 C840 -231 882 -262 949 -262 C989 -262 1029 -257 1076 -239 L1085 -189 C1047 -205 1026 -208 999 -208 C958 -208 932 -189 932 -154 C932 -85 1010 -34 1089 0 L1156 0 L736 700 L620 700 L-51 0 L89 0 L214 132 L949 132 L1028 0 C939 -30 840 -94 840 -181 L840 -181 Z M665 606 L894 223 L301 223 L665 606 Z " />
<glyph glyph-name="aogonek" unicode="&#x105;" horiz-adv-x="1047" d="M673 -181 C673 -231 715 -262 782 -262 C822 -262 862 -257 909 -239 L918 -189 C880 -205 859 -208 832 -208 C791 -208 765 -189 765 -154 C765 -85 843 -34 922 0 L978 0 L616 560 L511 560 L-50 0 L76 0 L185 110 L790 110 L861 0 C772 -30 673 -94 673 -181 L673 -181 Z M553 480 L741 186 L261 186 L553 480 Z " />
<glyph glyph-name="Cacute" unicode="&#x106;" horiz-adv-x="1136" d="M184 309 C184 451 267 600 543 600 L1107 600 L1125 700 L551 700 C205 700 66 507 66 296 C66 130 167 0 435 0 L1000 0 L1017 100 L453 100 C250 100 184 192 184 309 L184 309 Z M613 775 L688 775 L874 946 L744 946 L613 775 Z " />
<glyph glyph-name="cacute" unicode="&#x107;" horiz-adv-x="974" d="M155 244 C155 361 240 474 452 474 L930 474 L947 560 L458 560 C157 560 50 400 50 232 C50 102 132 0 357 0 L846 0 L862 86 L368 86 C208 86 155 151 155 244 L155 244 Z M499 635 L574 635 L760 806 L630 806 L499 635 Z " />
<glyph glyph-name="Ccircumflex" unicode="&#x108;" horiz-adv-x="1136" d="M184 309 C184 451 267 600 543 600 L1107 600 L1125 700 L551 700 C205 700 66 507 66 296 C66 130 167 0 435 0 L1000 0 L1017 100 L453 100 C250 100 184 192 184 309 L184 309 Z M513 775 L585 775 L714 890 L801 775 L869 775 L786 946 L659 946 L513 775 Z " />
<glyph glyph-name="ccircumflex" unicode="&#x109;" horiz-adv-x="974" d="M155 244 C155 361 240 474 452 474 L930 474 L947 560 L458 560 C157 560 50 400 50 232 C50 102 132 0 357 0 L846 0 L862 86 L368 86 C208 86 155 151 155 244 L155 244 Z M399 635 L471 635 L600 750 L687 635 L755 635 L672 806 L545 806 L399 635 Z " />
<glyph glyph-name="Cdotaccent" unicode="&#x10a;" horiz-adv-x="1136" d="M184 309 C184 451 267 600 543 600 L1107 600 L1125 700 L551 700 C205 700 66 507 66 296 C66 130 167 0 435 0 L1000 0 L1017 100 L453 100 C250 100 184 192 184 309 L184 309 Z M645 806 L750 806 L769 913 L664 913 L645 806 Z " />
<glyph glyph-name="cdotaccent" unicode="&#x10b;" horiz-adv-x="974" d="M155 244 C155 361 240 474 452 474 L930 474 L947 560 L458 560 C157 560 50 400 50 232 C50 102 132 0 357 0 L846 0 L862 86 L368 86 C208 86 155 151 155 244 L155 244 Z M531 666 L636 666 L655 773 L550 773 L531 666 Z " />
<glyph glyph-name="Ccaron" unicode="&#x10c;" horiz-adv-x="1136" d="M184 309 C184 451 267 600 543 600 L1107 600 L1125 700 L551 700 C205 700 66 507 66 296 C66 130 167 0 435 0 L1000 0 L1017 100 L453 100 C250 100 184 192 184 309 L184 309 Z M902 946 L830 946 L701 831 L614 946 L546 946 L629 775 L756 775 L902 946 Z " />
<glyph glyph-name="ccaron" unicode="&#x10d;" horiz-adv-x="974" d="M155 244 C155 361 240 474 452 474 L930 474 L947 560 L458 560 C157 560 50 400 50 232 C50 102 132 0 357 0 L846 0 L862 86 L368 86 C208 86 155 151 155 244 L155 244 Z M788 806 L716 806 L587 691 L500 806 L432 806 L515 635 L642 635 L788 806 Z " />
<glyph glyph-name="Dcaron" unicode="&#x10e;" horiz-adv-x="1204" d="M57 0 L657 0 C1002 0 1141 193 1141 404 C1141 570 1040 700 772 700 L182 700 L57 0 Z M754 600 C957 600 1024 508 1024 391 C1024 249 941 100 665 100 L183 100 L272 600 L754 600 Z M874 946 L802 946 L673 831 L586 946 L518 946 L601 775 L728 775 L874 946 Z " />
<glyph glyph-name="dcaron" unicode="&#x10f;" horiz-adv-x="1037" d="M47 0 L560 0 C861 0 968 160 968 328 C968 457 885 560 661 560 L148 560 L47 0 Z M651 474 C810 474 863 409 863 316 C863 199 778 86 566 86 L162 86 L229 474 L651 474 Z M772 806 L700 806 L571 691 L484 806 L416 806 L499 635 L626 635 L772 806 Z " />
<glyph glyph-name="Dcroat" unicode="&#x110;" horiz-adv-x="1204" d="M-15 305 L111 305 L57 0 L657 0 C1002 0 1141 193 1141 404 C1141 570 1040 700 772 700 L182 700 L127 395 L3 395 L-15 305 Z M754 600 C957 600 1024 508 1024 391 C1024 249 941 100 665 100 L183 100 L219 305 L608 305 L625 395 L235 395 L272 600 L754 600 Z " />
<glyph glyph-name="dcroat" unicode="&#x111;" horiz-adv-x="1037" d="M-26 242 L90 242 L47 0 L560 0 C861 0 968 160 968 328 C968 457 885 560 661 560 L148 560 L104 318 L-11 318 L-26 242 Z M651 474 C810 474 863 409 863 316 C863 199 778 86 566 86 L162 86 L189 242 L525 242 L539 318 L202 318 L229 474 L651 474 Z " />
<glyph glyph-name="Emacron" unicode="&#x112;" horiz-adv-x="1150" d="M57 0 L1015 0 L1033 100 L185 100 L220 305 L970 305 L987 395 L237 395 L273 600 L1121 600 L1140 700 L182 700 L57 0 Z M485 824 L855 824 L868 896 L498 896 L485 824 Z " />
<glyph glyph-name="emacron" unicode="&#x113;" horiz-adv-x="992" d="M47 0 L862 0 L877 86 L161 86 L187 242 L820 242 L834 318 L202 318 L229 474 L946 474 L961 560 L146 560 L47 0 Z M383 684 L753 684 L766 756 L396 756 L383 684 Z " />
<glyph glyph-name="Ebreve" unicode="&#x114;" horiz-adv-x="1150" d="M57 0 L1015 0 L1033 100 L185 100 L220 305 L970 305 L987 395 L237 395 L273 600 L1121 600 L1140 700 L182 700 L57 0 Z M673 853 C599 853 578 891 582 937 L523 937 C514 864 535 783 662 783 C789 783 838 863 857 937 L795 937 C783 891 746 853 673 853 L673 853 Z " />
<glyph glyph-name="ebreve" unicode="&#x115;" horiz-adv-x="992" d="M47 0 L862 0 L877 86 L161 86 L187 242 L820 242 L834 318 L202 318 L229 474 L946 474 L961 560 L146 560 L47 0 Z M571 713 C497 713 476 751 480 797 L421 797 C412 724 433 643 560 643 C687 643 736 723 755 797 L693 797 C681 751 644 713 571 713 L571 713 Z " />
<glyph glyph-name="Edotaccent" unicode="&#x116;" horiz-adv-x="1150" d="M57 0 L1015 0 L1033 100 L185 100 L220 305 L970 305 L987 395 L237 395 L273 600 L1121 600 L1140 700 L182 700 L57 0 Z M614 806 L719 806 L738 913 L633 913 L614 806 Z " />
<glyph glyph-name="edotaccent" unicode="&#x117;" horiz-adv-x="992" d="M47 0 L862 0 L877 86 L161 86 L187 242 L820 242 L834 318 L202 318 L229 474 L946 474 L961 560 L146 560 L47 0 Z M512 666 L617 666 L636 773 L531 773 L512 666 Z " />
<glyph glyph-name="Eogonek" unicode="&#x118;" horiz-adv-x="1150" d="M57 0 L924 0 C835 -30 736 -94 736 -181 C736 -231 778 -262 845 -262 C885 -262 925 -257 972 -239 L981 -189 C943 -205 922 -208 895 -208 C854 -208 828 -189 828 -154 C828 -85 906 -34 985 0 L1015 0 L1033 100 L185 100 L220 305 L970 305 L987 395 L237 395 L273 600 L1121 600 L1140 700 L182 700 L57 0 Z " />
<glyph glyph-name="eogonek" unicode="&#x119;" horiz-adv-x="992" d="M47 0 L771 0 C682 -30 583 -94 583 -181 C583 -231 625 -262 692 -262 C732 -262 772 -257 819 -239 L828 -189 C790 -205 769 -208 742 -208 C701 -208 675 -189 675 -154 C675 -85 753 -34 832 0 L862 0 L877 86 L161 86 L187 242 L820 242 L834 318 L202 318 L229 474 L946 474 L961 560 L146 560 L47 0 Z " />
<glyph glyph-name="Ecaron" unicode="&#x11a;" horiz-adv-x="1150" d="M57 0 L1015 0 L1033 100 L185 100 L220 305 L970 305 L987 395 L237 395 L273 600 L1121 600 L1140 700 L182 700 L57 0 Z M871 946 L799 946 L670 831 L583 946 L515 946 L598 775 L725 775 L871 946 Z " />
<glyph glyph-name="ecaron" unicode="&#x11b;" horiz-adv-x="992" d="M47 0 L862 0 L877 86 L161 86 L187 242 L820 242 L834 318 L202 318 L229 474 L946 474 L961 560 L146 560 L47 0 Z M769 806 L697 806 L568 691 L481 806 L413 806 L496 635 L623 635 L769 806 Z " />
<glyph glyph-name="Gcircumflex" unicode="&#x11c;" horiz-adv-x="1205" d="M630 305 L1000 305 L964 100 L453 100 C250 100 184 192 184 309 C184 451 266 600 543 600 L1107 600 L1125 700 L551 700 C205 700 66 507 66 296 C66 130 167 0 435 0 L1053 0 L1123 395 L648 395 L630 305 Z M522 775 L594 775 L723 890 L810 775 L878 775 L795 946 L668 946 L522 775 Z " />
<glyph glyph-name="gcircumflex" unicode="&#x11d;" horiz-adv-x="1036" d="M809 86 L368 86 C208 86 155 151 155 244 C155 361 240 474 452 474 L930 474 L945 560 L458 560 C157 560 50 400 50 232 C50 102 132 0 357 0 L891 0 L947 318 L542 318 L526 242 L836 242 L809 86 Z M402 635 L474 635 L603 750 L690 635 L758 635 L675 806 L548 806 L402 635 Z " />
<glyph glyph-name="Gbreve" unicode="&#x11e;" horiz-adv-x="1205" d="M630 305 L1000 305 L964 100 L453 100 C250 100 184 192 184 309 C184 451 266 600 543 600 L1107 600 L1125 700 L551 700 C205 700 66 507 66 296 C66 130 167 0 435 0 L1053 0 L1123 395 L648 395 L630 305 Z M713 853 C639 853 618 891 622 937 L563 937 C554 864 575 783 702 783 C829 783 878 863 897 937 L835 937 C823 891 786 853 713 853 L713 853 Z " />
<glyph glyph-name="gbreve" unicode="&#x11f;" horiz-adv-x="1036" d="M809 86 L368 86 C208 86 155 151 155 244 C155 361 240 474 452 474 L930 474 L945 560 L458 560 C157 560 50 400 50 232 C50 102 132 0 357 0 L891 0 L947 318 L542 318 L526 242 L836 242 L809 86 Z M593 713 C519 713 498 751 502 797 L443 797 C434 724 455 643 582 643 C709 643 758 723 777 797 L715 797 C703 751 666 713 593 713 L593 713 Z " />
<glyph glyph-name="Gdotaccent" unicode="&#x120;" horiz-adv-x="1205" d="M630 305 L1000 305 L964 100 L453 100 C250 100 184 192 184 309 C184 451 266 600 543 600 L1107 600 L1125 700 L551 700 C205 700 66 507 66 296 C66 130 167 0 435 0 L1053 0 L1123 395 L648 395 L630 305 Z M654 806 L759 806 L778 913 L673 913 L654 806 Z " />
<glyph glyph-name="gdotaccent" unicode="&#x121;" horiz-adv-x="1036" d="M809 86 L368 86 C208 86 155 151 155 244 C155 361 240 474 452 474 L930 474 L945 560 L458 560 C157 560 50 400 50 232 C50 102 132 0 357 0 L891 0 L947 318 L542 318 L526 242 L836 242 L809 86 Z M534 666 L639 666 L658 773 L553 773 L534 666 Z " />
<glyph glyph-name="uni0122" unicode="&#x122;" horiz-adv-x="1205" d="M630 305 L1000 305 L964 100 L453 100 C250 100 184 192 184 309 C184 451 266 600 543 600 L1107 600 L1125 700 L551 700 C205 700 66 507 66 296 C66 130 167 0 435 0 L1053 0 L1123 395 L648 395 L630 305 Z M488 -215 L527 -215 L458 -326 L506 -326 L592 -207 L610 -108 L507 -108 L488 -215 Z " />
<glyph glyph-name="uni0123" unicode="&#x123;" horiz-adv-x="1036" d="M809 86 L368 86 C208 86 155 151 155 244 C155 361 240 474 452 474 L930 474 L945 560 L458 560 C157 560 50 400 50 232 C50 102 132 0 357 0 L891 0 L947 318 L542 318 L526 242 L836 242 L809 86 Z M392 -215 L431 -215 L362 -326 L410 -326 L496 -207 L514 -108 L411 -108 L392 -215 Z " />
<glyph glyph-name="Hcircumflex" unicode="&#x124;" horiz-adv-x="1252" d="M966 0 L1076 0 L1201 700 L1091 700 L1037 400 L238 400 L292 700 L182 700 L57 0 L167 0 L219 300 L1018 300 L966 0 Z M523 775 L595 775 L724 890 L811 775 L879 775 L796 946 L669 946 L523 775 Z " />
<glyph glyph-name="hcircumflex" unicode="&#x125;" horiz-adv-x="1081" d="M816 0 L915 0 L1014 560 L915 560 L874 323 L204 323 L245 560 L146 560 L47 0 L146 0 L187 237 L857 237 L816 0 Z M414 635 L486 635 L615 750 L702 635 L770 635 L687 806 L560 806 L414 635 Z " />
<glyph glyph-name="Hbar" unicode="&#x126;" horiz-adv-x="1252" d="M54 528 L151 528 L57 0 L167 0 L219 300 L1018 300 L966 0 L1076 0 L1170 528 L1266 528 L1275 572 L1178 572 L1201 700 L1091 700 L1068 572 L269 572 L292 700 L182 700 L159 572 L63 572 L54 528 Z M238 400 L261 528 L1060 528 L1037 400 L238 400 Z " />
<glyph glyph-name="hbar" unicode="&#x127;" horiz-adv-x="1081" d="M36 419 L121 419 L47 0 L146 0 L187 237 L857 237 L816 0 L915 0 L989 419 L1075 419 L1083 464 L997 464 L1014 560 L915 560 L898 464 L228 464 L245 560 L146 560 L129 464 L43 464 L36 419 Z M204 323 L220 419 L890 419 L874 323 L204 323 Z " />
<glyph glyph-name="Itilde" unicode="&#x128;" horiz-adv-x="343" d="M57 0 L167 0 L292 700 L182 700 L57 0 Z M391 934 C377 882 359 871 335 871 C294 871 262 927 200 927 C144 927 102 894 76 786 L131 786 C144 838 162 850 187 850 C227 850 259 793 320 793 C377 793 420 826 446 934 L391 934 Z " />
<glyph glyph-name="itilde" unicode="&#x129;" horiz-adv-x="312" d="M47 0 L146 0 L245 560 L146 560 L47 0 Z M352 794 C338 742 320 731 296 731 C255 731 223 787 161 787 C105 787 63 754 37 646 L92 646 C105 698 123 710 148 710 C188 710 220 653 281 653 C338 653 381 686 407 794 L352 794 Z " />
<glyph glyph-name="Imacron" unicode="&#x12a;" horiz-adv-x="343" d="M57 0 L167 0 L292 700 L182 700 L57 0 Z M71 824 L441 824 L454 896 L84 896 L71 824 Z " />
<glyph glyph-name="imacron" unicode="&#x12b;" horiz-adv-x="312" d="M47 0 L146 0 L245 560 L146 560 L47 0 Z M32 684 L402 684 L415 756 L45 756 L32 684 Z " />
<glyph glyph-name="Ibreve" unicode="&#x12c;" horiz-adv-x="343" d="M57 0 L167 0 L292 700 L182 700 L57 0 Z M259 853 C185 853 164 891 168 937 L109 937 C100 864 121 783 248 783 C375 783 424 863 443 937 L381 937 C369 891 332 853 259 853 L259 853 Z " />
<glyph glyph-name="ibreve" unicode="&#x12d;" horiz-adv-x="312" d="M47 0 L146 0 L245 560 L146 560 L47 0 Z M219 713 C145 713 124 751 128 797 L69 797 C60 724 81 643 208 643 C335 643 384 723 403 797 L341 797 C329 751 292 713 219 713 L219 713 Z " />
<glyph glyph-name="Iogonek" unicode="&#x12e;" horiz-adv-x="343" d="M-82 -172 C-82 -235 -26 -262 24 -262 C65 -262 104 -257 152 -239 L162 -189 C123 -205 103 -208 76 -208 C29 -208 5 -185 5 -146 C5 -90 41 -43 105 0 L167 0 L292 700 L182 700 L57 0 C-14 -35 -82 -96 -82 -172 L-82 -172 Z " />
<glyph glyph-name="iogonek" unicode="&#x12f;" horiz-adv-x="312" d="M-92 -172 C-92 -235 -36 -262 14 -262 C55 -262 94 -257 142 -239 L152 -189 C113 -205 93 -208 66 -208 C19 -208 -5 -185 -5 -146 C-5 -90 31 -43 95 0 L146 0 L245 560 L146 560 L47 0 C-24 -35 -92 -96 -92 -172 L-92 -172 Z " />
<glyph glyph-name="Idotaccent" unicode="&#x130;" horiz-adv-x="343" d="M57 0 L167 0 L292 700 L182 700 L57 0 Z M200 806 L305 806 L324 913 L219 913 L200 806 Z " />
<glyph glyph-name="dotlessi" unicode="&#x131;" horiz-adv-x="312" d="M47 0 L146 0 L245 560 L146 560 L47 0 Z " />
<glyph glyph-name="IJ" unicode="&#x132;" horiz-adv-x="1219" d="M117 445 L227 445 L273 700 L163 700 L117 445 Z M364 -5 L684 -5 C974 -5 1083 112 1118 306 L1188 700 L1078 700 L1010 327 C984 181 903 95 698 95 L384 95 C213 95 175 172 196 274 L206 326 L96 326 L86 275 C57 123 123 -5 364 -5 L364 -5 Z " />
<glyph glyph-name="ij" unicode="&#x133;" horiz-adv-x="1048" d="M91 356 L190 356 L226 560 L127 560 L91 356 Z M301 -4 L589 -4 C824 -4 916 88 944 245 L1000 560 L902 560 L848 261 C827 147 768 82 596 82 L308 82 C175 82 149 141 163 219 L171 262 L74 262 L66 220 C43 98 93 -4 301 -4 L301 -4 Z " />
<glyph glyph-name="Jcircumflex" unicode="&#x134;" horiz-adv-x="1162" d="M306 -5 L626 -5 C916 -5 1025 112 1060 306 L1130 700 L1020 700 L952 327 C926 181 845 95 640 95 L326 95 C155 95 117 172 138 274 L148 326 L38 326 L28 275 C-1 123 65 -5 306 -5 L306 -5 Z M881 775 L953 775 L1082 890 L1169 775 L1237 775 L1154 946 L1027 946 L881 775 Z " />
<glyph glyph-name="jcircumflex" unicode="&#x135;" horiz-adv-x="1000" d="M253 -4 L541 -4 C776 -4 868 88 896 245 L952 560 L854 560 L800 261 C779 147 720 82 548 82 L260 82 C127 82 101 141 115 219 L123 262 L26 262 L18 220 C-5 98 45 -4 253 -4 L253 -4 Z M710 635 L782 635 L911 750 L998 635 L1066 635 L983 806 L856 806 L710 635 Z " />
<glyph glyph-name="uni0136" unicode="&#x136;" horiz-adv-x="1240" d="M1213 700 L1019 700 L212 258 L290 700 L182 700 L57 0 L165 0 L190 138 L534 327 L1004 0 L1176 0 L632 381 L1213 700 Z M466 -215 L505 -215 L436 -326 L484 -326 L570 -207 L588 -108 L485 -108 L466 -215 Z " />
<glyph glyph-name="uni0137" unicode="&#x137;" horiz-adv-x="1069" d="M1031 560 L850 560 L183 213 L245 560 L146 560 L47 0 L146 0 L164 107 L453 258 L844 0 L1001 0 L541 304 L1031 560 Z M383 -215 L422 -215 L353 -326 L401 -326 L487 -207 L505 -108 L402 -108 L383 -215 Z " />
<glyph glyph-name="kgreenlandic" unicode="&#x138;" horiz-adv-x="1199" d="M1164 448 L1124 448 L1194 560 L1146 560 L1060 440 L1042 342 L1145 342 L1164 448 Z M1031 560 L850 560 L183 213 L245 560 L146 560 L47 0 L146 0 L164 107 L453 258 L844 0 L1001 0 L541 304 L1031 560 Z " />
<glyph glyph-name="Lacute" unicode="&#x139;" horiz-adv-x="1083" d="M292 700 L182 700 L57 0 L996 0 L1013 100 L185 100 L292 700 Z M168 775 L243 775 L429 946 L299 946 L168 775 Z " />
<glyph glyph-name="lacute" unicode="&#x13a;" horiz-adv-x="946" d="M245 560 L146 560 L47 0 L846 0 L861 86 L161 86 L245 560 Z M129 635 L204 635 L390 806 L260 806 L129 635 Z " />
<glyph glyph-name="uni013B" unicode="&#x13b;" horiz-adv-x="1083" d="M292 700 L182 700 L57 0 L996 0 L1013 100 L185 100 L292 700 Z M433 -215 L472 -215 L403 -326 L451 -326 L537 -207 L555 -108 L452 -108 L433 -215 Z " />
<glyph glyph-name="uni013C" unicode="&#x13c;" horiz-adv-x="946" d="M245 560 L146 560 L47 0 L846 0 L861 86 L161 86 L245 560 Z M361 -215 L400 -215 L331 -326 L379 -326 L465 -207 L483 -108 L380 -108 L361 -215 Z " />
<glyph glyph-name="Lcaron" unicode="&#x13d;" horiz-adv-x="1083" d="M292 700 L182 700 L57 0 L996 0 L1013 100 L185 100 L292 700 Z M873 581 L925 581 L850 454 L900 454 L992 589 L1013 700 L894 700 L873 581 Z " />
<glyph glyph-name="lcaron" unicode="&#x13e;" horiz-adv-x="946" d="M240 560 L145 560 L47 0 L846 0 L860 86 L156 86 L240 560 Z M741 453 L780 453 L711 342 L759 342 L845 461 L863 560 L760 560 L741 453 Z " />
<glyph glyph-name="Ldot" unicode="&#x13f;" horiz-adv-x="1083" d="M292 700 L182 700 L57 0 L996 0 L1013 100 L185 100 L292 700 Z M698 351 L803 351 L822 458 L717 458 L698 351 Z " />
<glyph glyph-name="ldot" unicode="&#x140;" horiz-adv-x="946" d="M245 560 L146 560 L47 0 L846 0 L861 86 L161 86 L245 560 Z M596 274 L701 274 L720 381 L615 381 L596 274 Z " />
<glyph glyph-name="Lslash" unicode="&#x141;" horiz-adv-x="1083" d="M613 569 L234 382 L290 700 L182 700 L116 327 L12 280 L-9 166 L97 219 L57 0 L995 0 L1013 100 L183 100 L213 272 L591 455 L613 569 Z " />
<glyph glyph-name="lslash" unicode="&#x142;" horiz-adv-x="946" d="M517 460 L201 312 L243 560 L146 560 L94 266 L7 228 L-12 130 L78 174 L47 0 L846 0 L861 86 L159 86 L182 217 L497 362 L517 460 Z " />
<glyph glyph-name="Nacute" unicode="&#x143;" horiz-adv-x="1253" d="M973 0 L1077 0 L1202 700 L1092 700 L989 119 L286 700 L182 700 L57 0 L167 0 L269 581 L973 0 Z M624 775 L699 775 L885 946 L755 946 L624 775 Z " />
<glyph glyph-name="nacute" unicode="&#x144;" horiz-adv-x="1082" d="M916 0 L1015 560 L916 560 L836 105 L240 560 L146 560 L47 0 L146 0 L226 456 L822 0 L916 0 Z M514 635 L589 635 L775 806 L645 806 L514 635 Z " />
<glyph glyph-name="uni0145" unicode="&#x145;" horiz-adv-x="1253" d="M973 0 L1077 0 L1202 700 L1092 700 L989 119 L286 700 L182 700 L57 0 L167 0 L269 581 L973 0 Z M478 -215 L517 -215 L448 -326 L496 -326 L582 -207 L600 -108 L497 -108 L478 -215 Z " />
<glyph glyph-name="uni0146" unicode="&#x146;" horiz-adv-x="1082" d="M916 0 L1015 560 L916 560 L836 105 L240 560 L146 560 L47 0 L146 0 L226 456 L822 0 L916 0 Z M392 -215 L431 -215 L362 -326 L410 -326 L496 -207 L514 -108 L411 -108 L392 -215 Z " />
<glyph glyph-name="Ncaron" unicode="&#x147;" horiz-adv-x="1253" d="M973 0 L1077 0 L1202 700 L1092 700 L989 119 L286 700 L182 700 L57 0 L167 0 L269 581 L973 0 Z M913 946 L841 946 L712 831 L625 946 L557 946 L640 775 L767 775 L913 946 Z " />
<glyph glyph-name="ncaron" unicode="&#x148;" horiz-adv-x="1082" d="M916 0 L1015 560 L916 560 L836 105 L240 560 L146 560 L47 0 L146 0 L226 456 L822 0 L916 0 Z M803 806 L731 806 L602 691 L515 806 L447 806 L530 635 L657 635 L803 806 Z " />
<glyph glyph-name="napostrophe" unicode="&#x149;" horiz-adv-x="1287" d="M1121 0 L1220 560 L1121 560 L1041 105 L445 560 L351 560 L252 0 L351 0 L431 456 L1027 0 L1121 0 Z M103 593 L142 593 L73 482 L121 482 L207 601 L225 700 L122 700 L103 593 Z " />
<glyph glyph-name="Eng" unicode="&#x14a;" horiz-adv-x="1253" d="M614 -230 L793 -230 C969 -230 1049 -149 1068 -41 L1202 700 L1092 700 L989 119 L286 700 L182 700 L57 0 L167 0 L269 581 L968 4 L963 -26 C952 -85 906 -130 803 -130 L633 -130 L614 -230 Z " />
<glyph glyph-name="eng" unicode="&#x14b;" horiz-adv-x="1082" d="M523 -184 L686 -184 C832 -184 895 -120 910 -30 L1015 560 L916 560 L836 105 L240 560 L146 560 L47 0 L146 0 L226 456 L818 4 L814 -18 C806 -63 777 -98 693 -98 L540 -98 L523 -184 Z " />
<glyph glyph-name="Omacron" unicode="&#x14c;" horiz-adv-x="1293" d="M731 -10 C1094 -10 1231 185 1231 409 C1231 579 1124 710 853 710 L568 710 C207 710 66 518 66 294 C66 122 174 -10 446 -10 L731 -10 Z M467 90 C255 90 184 184 184 307 C184 457 275 610 562 610 L831 610 C1042 610 1113 517 1113 395 C1113 241 1022 90 737 90 L467 90 Z M546 824 L916 824 L929 896 L559 896 L546 824 Z " />
<glyph glyph-name="omacron" unicode="&#x14d;" horiz-adv-x="1108" d="M618 -8 C923 -8 1037 152 1039 326 C1040 461 957 568 722 568 L469 568 C164 568 52 408 50 234 C48 99 130 -8 365 -8 L618 -8 Z M382 78 C208 78 154 150 154 242 C155 361 238 482 457 482 L706 482 C880 482 934 409 934 317 C934 201 851 78 631 78 L382 78 Z M430 684 L800 684 L813 756 L443 756 L430 684 Z " />
<glyph glyph-name="Obreve" unicode="&#x14e;" horiz-adv-x="1293" d="M731 -10 C1094 -10 1231 185 1231 409 C1231 579 1124 710 853 710 L568 710 C207 710 66 518 66 294 C66 122 174 -10 446 -10 L731 -10 Z M467 90 C255 90 184 184 184 307 C184 457 275 610 562 610 L831 610 C1042 610 1113 517 1113 395 C1113 241 1022 90 737 90 L467 90 Z M734 853 C660 853 639 891 643 937 L584 937 C575 864 596 783 723 783 C850 783 899 863 918 937 L856 937 C844 891 807 853 734 853 L734 853 Z " />
<glyph glyph-name="obreve" unicode="&#x14f;" horiz-adv-x="1108" d="M618 -8 C923 -8 1037 152 1039 326 C1040 461 957 568 722 568 L469 568 C164 568 52 408 50 234 C48 99 130 -8 365 -8 L618 -8 Z M382 78 C208 78 154 150 154 242 C155 361 238 482 457 482 L706 482 C880 482 934 409 934 317 C934 201 851 78 631 78 L382 78 Z M618 713 C544 713 523 751 527 797 L468 797 C459 724 480 643 607 643 C734 643 783 723 802 797 L740 797 C728 751 691 713 618 713 L618 713 Z " />
<glyph glyph-name="Ohungarumlaut" unicode="&#x150;" horiz-adv-x="1293" d="M731 -10 C1094 -10 1231 185 1231 409 C1231 579 1124 710 853 710 L568 710 C207 710 66 518 66 294 C66 122 174 -10 446 -10 L731 -10 Z M467 90 C255 90 184 184 184 307 C184 457 275 610 562 610 L831 610 C1042 610 1113 517 1113 395 C1113 241 1022 90 737 90 L467 90 Z M764 775 L839 775 L1024 946 L896 946 L764 775 Z M527 775 L602 775 L787 946 L659 946 L527 775 Z " />
<glyph glyph-name="ohungarumlaut" unicode="&#x151;" horiz-adv-x="1108" d="M618 -8 C923 -8 1037 152 1039 326 C1040 461 957 568 722 568 L469 568 C164 568 52 408 50 234 C48 99 130 -8 365 -8 L618 -8 Z M382 78 C208 78 154 150 154 242 C155 361 238 482 457 482 L706 482 C880 482 934 409 934 317 C934 201 851 78 631 78 L382 78 Z M648 635 L723 635 L908 806 L780 806 L648 635 Z M411 635 L486 635 L671 806 L543 806 L411 635 Z " />
<glyph glyph-name="OE" unicode="&#x152;" horiz-adv-x="1675" d="M66 296 C63 130 167 0 435 0 L1540 0 L1558 100 L811 100 L846 305 L1496 305 L1513 395 L864 395 L899 600 L1647 600 L1665 700 L560 700 C214 700 69 507 66 296 L66 296 Z M185 309 C188 451 263 600 542 600 L789 600 L701 100 L454 100 C251 100 183 192 185 309 L185 309 Z " />
<glyph glyph-name="oe" unicode="&#x153;" horiz-adv-x="1434" d="M357 0 L1306 0 L1321 86 L688 86 L716 242 L1263 242 L1277 318 L730 318 L758 474 L1389 474 L1405 560 L458 560 C157 560 50 400 50 232 C50 102 132 0 357 0 L357 0 Z M155 244 C155 361 240 474 452 474 L660 474 L591 86 L368 86 C208 86 155 151 155 244 L155 244 Z " />
<glyph glyph-name="Racute" unicode="&#x154;" horiz-adv-x="1227" d="M57 0 L165 0 L212 262 L616 262 L993 0 L1163 0 L773 263 L823 263 C1043 263 1135 377 1135 515 C1135 618 1071 700 901 700 L182 700 L57 0 Z M880 600 C985 600 1019 555 1019 499 C1019 424 968 358 834 358 L229 358 L272 600 L880 600 Z M573 775 L648 775 L834 946 L704 946 L573 775 Z " />
<glyph glyph-name="racute" unicode="&#x155;" horiz-adv-x="1061" d="M47 0 L146 0 L182 207 L523 207 L834 0 L989 0 L665 208 L700 208 C893 208 959 306 959 412 C959 494 908 560 763 560 L147 560 L47 0 Z M744 474 C831 474 855 440 855 398 C855 344 825 289 710 289 L197 289 L230 474 L744 474 Z M471 635 L546 635 L732 806 L602 806 L471 635 Z " />
<glyph glyph-name="uni0156" unicode="&#x156;" horiz-adv-x="1227" d="M57 0 L165 0 L212 262 L616 262 L993 0 L1163 0 L773 263 L823 263 C1043 263 1135 377 1135 515 C1135 618 1071 700 901 700 L182 700 L57 0 Z M880 600 C985 600 1019 555 1019 499 C1019 424 968 358 834 358 L229 358 L272 600 L880 600 Z M459 -215 L498 -215 L429 -326 L477 -326 L563 -207 L581 -108 L478 -108 L459 -215 Z " />
<glyph glyph-name="uni0157" unicode="&#x157;" horiz-adv-x="1061" d="M47 0 L146 0 L182 207 L523 207 L834 0 L989 0 L665 208 L700 208 C893 208 959 306 959 412 C959 494 908 560 763 560 L147 560 L47 0 Z M744 474 C831 474 855 440 855 398 C855 344 825 289 710 289 L197 289 L230 474 L744 474 Z M376 -215 L415 -215 L346 -326 L394 -326 L480 -207 L498 -108 L395 -108 L376 -215 Z " />
<glyph glyph-name="Rcaron" unicode="&#x158;" horiz-adv-x="1227" d="M57 0 L165 0 L212 262 L616 262 L993 0 L1163 0 L773 263 L823 263 C1043 263 1135 377 1135 515 C1135 618 1071 700 901 700 L182 700 L57 0 Z M880 600 C985 600 1019 555 1019 499 C1019 424 968 358 834 358 L229 358 L272 600 L880 600 Z M862 946 L790 946 L661 831 L574 946 L506 946 L589 775 L716 775 L862 946 Z " />
<glyph glyph-name="rcaron" unicode="&#x159;" horiz-adv-x="1061" d="M47 0 L146 0 L182 207 L523 207 L834 0 L989 0 L665 208 L700 208 C893 208 959 306 959 412 C959 494 908 560 763 560 L147 560 L47 0 Z M744 474 C831 474 855 440 855 398 C855 344 825 289 710 289 L197 289 L230 474 L744 474 Z M760 806 L688 806 L559 691 L472 806 L404 806 L487 635 L614 635 L760 806 Z " />
<glyph glyph-name="Sacute" unicode="&#x15a;" horiz-adv-x="1158" d="M800 100 L66 100 L47 0 L786 0 C987 0 1069 105 1069 229 C1069 323 1010 395 856 395 L327 395 C238 395 212 434 212 481 C212 543 252 600 364 600 L1099 600 L1117 700 L378 700 C177 700 95 595 95 471 C95 377 154 305 308 305 L837 305 C926 305 953 266 953 219 C953 157 912 100 800 100 L800 100 Z M576 775 L651 775 L837 946 L707 946 L576 775 Z " />
<glyph glyph-name="sacute" unicode="&#x15b;" horiz-adv-x="991" d="M676 86 L50 86 L34 0 L667 0 C844 0 901 89 901 186 C901 261 854 317 724 317 L265 317 C194 317 173 346 173 381 C173 429 202 474 295 474 L921 474 L938 560 L305 560 C127 560 70 471 70 375 C70 299 117 243 248 243 L705 243 C777 243 798 214 798 179 C798 132 769 86 676 86 L676 86 Z M468 635 L543 635 L729 806 L599 806 L468 635 Z " />
<glyph glyph-name="Scircumflex" unicode="&#x15c;" horiz-adv-x="1158" d="M800 100 L66 100 L47 0 L786 0 C987 0 1069 105 1069 229 C1069 323 1010 395 856 395 L327 395 C238 395 212 434 212 481 C212 543 252 600 364 600 L1099 600 L1117 700 L378 700 C177 700 95 595 95 471 C95 377 154 305 308 305 L837 305 C926 305 953 266 953 219 C953 157 912 100 800 100 L800 100 Z M476 775 L548 775 L677 890 L764 775 L832 775 L749 946 L622 946 L476 775 Z " />
<glyph glyph-name="scircumflex" unicode="&#x15d;" horiz-adv-x="991" d="M676 86 L50 86 L34 0 L667 0 C844 0 901 89 901 186 C901 261 854 317 724 317 L265 317 C194 317 173 346 173 381 C173 429 202 474 295 474 L921 474 L938 560 L305 560 C127 560 70 471 70 375 C70 299 117 243 248 243 L705 243 C777 243 798 214 798 179 C798 132 769 86 676 86 L676 86 Z M368 635 L440 635 L569 750 L656 635 L724 635 L641 806 L514 806 L368 635 Z " />
<glyph glyph-name="Scedilla" unicode="&#x15e;" horiz-adv-x="1158" d="M443 -115 L472 -115 C524 -115 553 -126 553 -157 C553 -204 500 -217 450 -217 C414 -217 380 -207 364 -196 L354 -245 C379 -259 421 -271 466 -271 C545 -270 629 -245 629 -152 C629 -86 563 -64 504 -70 L536 0 L786 0 C987 0 1069 105 1069 229 C1069 323 1010 395 856 395 L327 395 C238 395 212 434 212 481 C212 543 252 600 364 600 L1099 600 L1117 700 L378 700 C177 700 95 595 95 471 C95 377 154 305 308 305 L837 305 C926 305 953 266 953 219 C953 157 912 100 800 100 L66 100 L47 0 L495 0 L443 -115 Z " />
<glyph glyph-name="scedilla" unicode="&#x15f;" horiz-adv-x="991" d="M359 -115 L388 -115 C440 -115 469 -126 469 -157 C469 -204 416 -217 366 -217 C330 -217 296 -207 280 -196 L270 -245 C295 -259 337 -271 382 -271 C461 -270 545 -245 545 -152 C545 -86 479 -64 420 -70 L452 0 L667 0 C844 0 901 89 901 186 C901 261 854 317 724 317 L265 317 C194 317 173 346 173 381 C173 429 202 474 295 474 L921 474 L938 560 L305 560 C127 560 70 471 70 375 C70 299 117 243 248 243 L705 243 C777 243 798 214 798 179 C798 132 769 86 676 86 L50 86 L34 0 L411 0 L359 -115 Z " />
<glyph glyph-name="Scaron" unicode="&#x160;" horiz-adv-x="1158" d="M800 100 L66 100 L47 0 L786 0 C987 0 1069 105 1069 229 C1069 323 1010 395 856 395 L327 395 C238 395 212 434 212 481 C212 543 252 600 364 600 L1099 600 L1117 700 L378 700 C177 700 95 595 95 471 C95 377 154 305 308 305 L837 305 C926 305 953 266 953 219 C953 157 912 100 800 100 L800 100 Z M865 946 L793 946 L664 831 L577 946 L509 946 L592 775 L719 775 L865 946 Z " />
<glyph glyph-name="scaron" unicode="&#x161;" horiz-adv-x="991" d="M676 86 L50 86 L34 0 L667 0 C844 0 901 89 901 186 C901 261 854 317 724 317 L265 317 C194 317 173 346 173 381 C173 429 202 474 295 474 L921 474 L938 560 L305 560 C127 560 70 471 70 375 C70 299 117 243 248 243 L705 243 C777 243 798 214 798 179 C798 132 769 86 676 86 L676 86 Z M757 806 L685 806 L556 691 L469 806 L401 806 L484 635 L611 635 L757 806 Z " />
<glyph glyph-name="uni0162" unicode="&#x162;" horiz-adv-x="1136" d="M432 -115 L461 -115 C513 -115 542 -126 542 -157 C542 -204 489 -217 439 -217 C403 -217 369 -207 353 -196 L343 -245 C368 -259 410 -271 455 -271 C534 -270 618 -245 618 -152 C618 -86 552 -64 493 -70 L525 0 L563 0 L670 600 L1155 600 L1173 700 L94 700 L75 600 L560 600 L453 0 L484 0 L432 -115 Z " />
<glyph glyph-name="uni0163" unicode="&#x163;" horiz-adv-x="998" d="M363 -115 L392 -115 C444 -115 473 -126 473 -157 C473 -204 420 -217 370 -217 C334 -217 300 -207 284 -196 L274 -245 C299 -259 341 -271 386 -271 C465 -270 549 -245 549 -152 C549 -86 483 -64 424 -70 L456 0 L489 0 L572 474 L982 474 L998 560 L80 560 L64 474 L474 474 L390 0 L415 0 L363 -115 Z " />
<glyph glyph-name="Tcaron" unicode="&#x164;" horiz-adv-x="1136" d="M75 600 L560 600 L453 0 L563 0 L670 600 L1155 600 L1173 700 L94 700 L75 600 Z M854 946 L782 946 L653 831 L566 946 L498 946 L581 775 L708 775 L854 946 Z " />
<glyph glyph-name="tcaron" unicode="&#x165;" horiz-adv-x="998" d="M64 474 L474 474 L390 0 L489 0 L572 474 L982 474 L998 560 L80 560 L64 474 Z M762 806 L690 806 L561 691 L474 806 L406 806 L489 635 L616 635 L762 806 Z " />
<glyph glyph-name="Tbar" unicode="&#x166;" horiz-adv-x="1136" d="M75 600 L560 600 L523 393 L267 393 L250 307 L507 307 L453 0 L563 0 L617 307 L872 307 L889 393 L633 393 L670 600 L1155 600 L1173 700 L94 700 L75 600 Z " />
<glyph glyph-name="tbar" unicode="&#x167;" horiz-adv-x="998" d="M64 474 L474 474 L444 309 L218 309 L204 235 L431 235 L390 0 L489 0 L530 235 L756 235 L770 309 L543 309 L572 474 L982 474 L998 560 L80 560 L64 474 Z " />
<glyph glyph-name="Utilde" unicode="&#x168;" horiz-adv-x="1223" d="M204 323 L273 700 L163 700 L94 323 C59 130 135 -10 429 -10 L687 -10 C976 -10 1088 118 1122 308 L1192 700 L1082 700 L1015 329 C989 183 906 90 702 90 L442 90 C228 90 180 186 204 323 L204 323 Z M832 934 C818 882 800 871 776 871 C735 871 703 927 641 927 C585 927 543 894 517 786 L572 786 C585 838 603 850 628 850 C668 850 700 793 761 793 C818 793 861 826 887 934 L832 934 Z " />
<glyph glyph-name="utilde" unicode="&#x169;" horiz-adv-x="1050" d="M171 258 L225 560 L127 560 L73 258 C45 104 95 -8 352 -8 L590 -8 C825 -8 917 84 945 241 L1002 560 L904 560 L849 257 C828 143 770 78 598 78 L367 78 C179 78 152 148 171 258 L171 258 Z M722 794 C708 742 690 731 666 731 C625 731 593 787 531 787 C475 787 433 754 407 646 L462 646 C475 698 493 710 518 710 C558 710 590 653 651 653 C708 653 751 686 777 794 L722 794 Z " />
<glyph glyph-name="Umacron" unicode="&#x16a;" horiz-adv-x="1223" d="M204 323 L273 700 L163 700 L94 323 C59 130 135 -10 429 -10 L687 -10 C976 -10 1088 118 1122 308 L1192 700 L1082 700 L1015 329 C989 183 906 90 702 90 L442 90 C228 90 180 186 204 323 L204 323 Z M512 824 L882 824 L895 896 L525 896 L512 824 Z " />
<glyph glyph-name="umacron" unicode="&#x16b;" horiz-adv-x="1050" d="M171 258 L225 560 L127 560 L73 258 C45 104 95 -8 352 -8 L590 -8 C825 -8 917 84 945 241 L1002 560 L904 560 L849 257 C828 143 770 78 598 78 L367 78 C179 78 152 148 171 258 L171 258 Z M402 684 L772 684 L785 756 L415 756 L402 684 Z " />
<glyph glyph-name="Ubreve" unicode="&#x16c;" horiz-adv-x="1223" d="M204 323 L273 700 L163 700 L94 323 C59 130 135 -10 429 -10 L687 -10 C976 -10 1088 118 1122 308 L1192 700 L1082 700 L1015 329 C989 183 906 90 702 90 L442 90 C228 90 180 186 204 323 L204 323 Z M699 853 C625 853 604 891 608 937 L549 937 C540 864 561 783 688 783 C815 783 864 863 883 937 L821 937 C809 891 772 853 699 853 L699 853 Z " />
<glyph glyph-name="ubreve" unicode="&#x16d;" horiz-adv-x="1050" d="M171 258 L225 560 L127 560 L73 258 C45 104 95 -8 352 -8 L590 -8 C825 -8 917 84 945 241 L1002 560 L904 560 L849 257 C828 143 770 78 598 78 L367 78 C179 78 152 148 171 258 L171 258 Z M589 713 C515 713 494 751 498 797 L439 797 C430 724 451 643 578 643 C705 643 754 723 773 797 L711 797 C699 751 662 713 589 713 L589 713 Z " />
<glyph glyph-name="Uring" unicode="&#x16e;" horiz-adv-x="1223" d="M204 323 L273 700 L163 700 L94 323 C59 130 135 -10 429 -10 L687 -10 C976 -10 1088 118 1122 308 L1192 700 L1082 700 L1015 329 C989 183 906 90 702 90 L442 90 C228 90 180 186 204 323 L204 323 Z M645 856 C645 890 675 918 709 918 C738 918 760 895 760 866 C760 831 729 804 696 804 C666 804 645 827 645 856 L645 856 Z M581 852 C581 794 624 749 691 749 C764 749 824 803 824 871 C824 929 780 973 714 973 C640 973 581 920 581 852 L581 852 Z " />
<glyph glyph-name="uring" unicode="&#x16f;" horiz-adv-x="1050" d="M171 258 L225 560 L127 560 L73 258 C45 104 95 -8 352 -8 L590 -8 C825 -8 917 84 945 241 L1002 560 L904 560 L849 257 C828 143 770 78 598 78 L367 78 C179 78 152 148 171 258 L171 258 Z M535 716 C535 750 565 778 599 778 C628 778 650 755 650 726 C650 691 619 664 586 664 C556 664 535 687 535 716 L535 716 Z M471 712 C471 654 514 609 581 609 C654 609 714 663 714 731 C714 789 670 833 604 833 C530 833 471 780 471 712 L471 712 Z " />
<glyph glyph-name="Uhungarumlaut" unicode="&#x170;" horiz-adv-x="1223" d="M204 323 L273 700 L163 700 L94 323 C59 130 135 -10 429 -10 L687 -10 C976 -10 1088 118 1122 308 L1192 700 L1082 700 L1015 329 C989 183 906 90 702 90 L442 90 C228 90 180 186 204 323 L204 323 Z M729 775 L804 775 L989 946 L861 946 L729 775 Z M492 775 L567 775 L752 946 L624 946 L492 775 Z " />
<glyph glyph-name="uhungarumlaut" unicode="&#x171;" horiz-adv-x="1050" d="M171 258 L225 560 L127 560 L73 258 C45 104 95 -8 352 -8 L590 -8 C825 -8 917 84 945 241 L1002 560 L904 560 L849 257 C828 143 770 78 598 78 L367 78 C179 78 152 148 171 258 L171 258 Z M619 635 L694 635 L879 806 L751 806 L619 635 Z M382 635 L457 635 L642 806 L514 806 L382 635 Z " />
<glyph glyph-name="Uogonek" unicode="&#x172;" horiz-adv-x="1223" d="M541 -181 C541 -231 583 -262 650 -262 C690 -262 730 -257 777 -239 L786 -189 C748 -205 727 -208 700 -208 C659 -208 633 -189 633 -154 C633 -88 703 -39 778 -5 C1000 20 1092 139 1122 308 L1192 700 L1082 700 L1015 329 C989 183 906 90 702 90 L442 90 C228 90 180 186 204 323 L273 700 L163 700 L94 323 C59 130 135 -10 429 -10 L702 -10 C621 -43 541 -102 541 -181 L541 -181 Z " />
<glyph glyph-name="uogonek" unicode="&#x173;" horiz-adv-x="1050" d="M426 -181 C426 -231 468 -262 535 -262 C575 -262 615 -257 662 -239 L671 -189 C633 -205 612 -208 585 -208 C544 -208 518 -189 518 -154 C518 -88 589 -38 664 -4 C845 13 920 101 945 241 L1002 560 L904 560 L849 257 C828 143 770 78 598 78 L367 78 C179 78 152 148 171 258 L225 560 L127 560 L73 258 C45 104 95 -8 352 -8 L592 -8 C510 -40 426 -101 426 -181 L426 -181 Z " />
<glyph glyph-name="Wcircumflex" unicode="&#x174;" horiz-adv-x="1552" d="M815 564 L1012 0 L1094 0 L1598 700 L1460 700 L1070 137 L877 700 L795 700 L400 137 L212 700 L86 700 L339 0 L421 0 L815 564 Z M673 775 L745 775 L874 890 L961 775 L1029 775 L946 946 L819 946 L673 775 Z " />
<glyph glyph-name="wcircumflex" unicode="&#x175;" horiz-adv-x="1328" d="M682 443 L852 0 L925 0 L1346 560 L1225 560 L904 118 L736 560 L663 560 L339 118 L175 560 L60 560 L284 0 L357 0 L682 443 Z M537 635 L609 635 L738 750 L825 635 L893 635 L810 806 L683 806 L537 635 Z " />
<glyph glyph-name="Ycircumflex" unicode="&#x176;" horiz-adv-x="1199" d="M485 0 L595 0 L632 212 L1265 700 L1097 700 L587 298 L218 700 L65 700 L522 212 L485 0 Z M496 775 L568 775 L697 890 L784 775 L852 775 L769 946 L642 946 L496 775 Z " />
<glyph glyph-name="ycircumflex" unicode="&#x177;" horiz-adv-x="1020" d="M402 0 L500 0 L530 170 L1060 560 L910 560 L488 243 L176 560 L39 560 L431 170 L402 0 Z M383 635 L455 635 L584 750 L671 635 L739 635 L656 806 L529 806 L383 635 Z " />
<glyph glyph-name="Ydieresis" unicode="&#x178;" horiz-adv-x="1199" d="M485 0 L595 0 L632 212 L1265 700 L1097 700 L587 298 L218 700 L65 700 L522 212 L485 0 Z M758 806 L864 806 L883 913 L777 913 L758 806 Z M495 806 L601 806 L620 913 L513 913 L495 806 Z " />
<glyph glyph-name="Zacute" unicode="&#x179;" horiz-adv-x="1148" d="M13 0 L1030 0 L1048 100 L246 100 L1122 622 L1132 700 L144 700 L125 600 L898 600 L23 78 L13 0 Z M571 775 L646 775 L832 946 L702 946 L571 775 Z " />
<glyph glyph-name="zacute" unicode="&#x17a;" horiz-adv-x="984" d="M6 0 L872 0 L887 86 L216 86 L943 493 L951 560 L110 560 L94 474 L739 474 L13 67 L6 0 Z M465 635 L540 635 L726 806 L596 806 L465 635 Z " />
<glyph glyph-name="Zdotaccent" unicode="&#x17b;" horiz-adv-x="1148" d="M13 0 L1030 0 L1048 100 L246 100 L1122 622 L1132 700 L144 700 L125 600 L898 600 L23 78 L13 0 Z M603 806 L708 806 L727 913 L622 913 L603 806 Z " />
<glyph glyph-name="zdotaccent" unicode="&#x17c;" horiz-adv-x="984" d="M6 0 L872 0 L887 86 L216 86 L943 493 L951 560 L110 560 L94 474 L739 474 L13 67 L6 0 Z M497 666 L602 666 L621 773 L516 773 L497 666 Z " />
<glyph glyph-name="Zcaron" unicode="&#x17d;" horiz-adv-x="1148" d="M13 0 L1030 0 L1048 100 L246 100 L1122 622 L1132 700 L144 700 L125 600 L898 600 L23 78 L13 0 Z M860 946 L788 946 L659 831 L572 946 L504 946 L587 775 L714 775 L860 946 Z " />
<glyph glyph-name="zcaron" unicode="&#x17e;" horiz-adv-x="984" d="M6 0 L872 0 L887 86 L216 86 L943 493 L951 560 L110 560 L94 474 L739 474 L13 67 L6 0 Z M754 806 L682 806 L553 691 L466 806 L398 806 L481 635 L608 635 L754 806 Z " />
<glyph glyph-name="uni0186" unicode="&#x186;" horiz-adv-x="1136" d="M956 391 C956 249 873 100 597 100 L33 100 L15 0 L589 0 C935 0 1074 193 1074 404 C1074 570 973 700 705 700 L140 700 L123 600 L687 600 C890 600 956 508 956 391 L956 391 Z " />
<glyph glyph-name="uni0189" unicode="&#x189;" horiz-adv-x="1204" d="M-15 305 L111 305 L57 0 L657 0 C1002 0 1141 193 1141 404 C1141 570 1040 700 772 700 L182 700 L127 395 L3 395 L-15 305 Z M754 600 C957 600 1024 508 1024 391 C1024 249 941 100 665 100 L183 100 L219 305 L608 305 L625 395 L235 395 L272 600 L754 600 Z " />
<glyph glyph-name="uni018E" unicode="&#x18e;" horiz-adv-x="1150" d="M1100 700 L142 700 L123 600 L971 600 L935 395 L185 395 L168 305 L918 305 L882 100 L34 100 L16 0 L974 0 L1100 700 Z " />
<glyph glyph-name="florin" unicode="&#x192;" horiz-adv-x="1245" d="M423 102 C397 8 332 -60 195 -60 L101 -60 L82 -160 L192 -160 C393 -160 489 -59 529 88 L587 302 L890 302 L907 393 L612 393 L625 438 C650 528 715 600 856 600 L1131 600 L1149 700 L868 700 C658 700 558 589 520 452 L503 393 L298 393 L281 302 L478 302 L423 102 Z " />
<glyph glyph-name="Ohorn" unicode="&#x1a0;" horiz-adv-x="1293" d="M731 -10 C1094 -10 1231 185 1231 409 C1231 503 1198 586 1121 641 L1187 641 C1282 641 1357 662 1376 770 C1378 787 1380 805 1380 826 L1280 826 C1281 807 1279 791 1276 778 C1265 712 1227 700 1170 700 L972 700 C936 706 897 710 853 710 L568 710 C207 710 66 518 66 294 C66 122 174 -10 446 -10 L731 -10 Z M467 90 C255 90 184 184 184 307 C184 457 275 610 562 610 L831 610 C1042 610 1113 517 1113 395 C1113 241 1022 90 737 90 L467 90 Z " />
<glyph glyph-name="ohorn" unicode="&#x1a1;" horiz-adv-x="1108" d="M618 -8 C923 -8 1037 152 1039 326 C1039 395 1018 457 965 501 L978 501 C1073 501 1148 522 1167 630 C1169 647 1171 665 1171 686 L1071 686 C1072 667 1070 651 1067 638 C1056 572 1018 560 961 560 L823 560 C793 565 759 568 722 568 L469 568 C164 568 52 408 50 234 C48 99 130 -8 365 -8 L618 -8 Z M382 78 C208 78 154 150 154 242 C155 361 238 482 457 482 L706 482 C880 482 934 409 934 317 C934 201 851 78 631 78 L382 78 Z " />
<glyph glyph-name="uni01A7" unicode="&#x1a7;" horiz-adv-x="1158" d="M1011 100 L274 100 C184 100 157 139 157 185 C157 248 198 305 310 305 L840 305 C1044 305 1124 414 1124 535 C1124 628 1067 700 911 700 L172 700 L154 600 L890 600 C981 600 1007 561 1007 515 C1007 452 966 395 854 395 L324 395 C120 395 40 286 40 165 C40 72 98 0 253 0 L992 0 L1011 100 Z " />
<glyph glyph-name="uni01A8" unicode="&#x1a8;" horiz-adv-x="991" d="M853 86 L224 86 C153 86 132 115 132 150 C132 195 162 243 254 243 L710 243 C888 243 945 331 945 429 C945 504 897 560 768 560 L135 560 L118 474 L747 474 C819 474 840 445 840 410 C840 365 810 317 717 317 L261 317 C84 317 26 229 26 131 C26 57 74 0 204 0 L837 0 L853 86 Z " />
<glyph glyph-name="Uhorn" unicode="&#x1af;" horiz-adv-x="1367" d="M204 323 L273 700 L163 700 L94 323 C59 130 135 -10 429 -10 L687 -10 C976 -10 1088 118 1122 308 L1181 641 L1255 641 C1350 641 1425 662 1444 770 C1446 787 1448 805 1448 826 L1348 826 C1349 807 1347 791 1344 778 C1333 712 1295 700 1238 700 L1082 700 L1015 329 C989 183 906 90 702 90 L442 90 C228 90 180 186 204 323 L204 323 Z " />
<glyph glyph-name="uhorn" unicode="&#x1b0;" horiz-adv-x="1203" d="M171 258 L225 560 L127 560 L73 258 C45 104 95 -8 352 -8 L590 -8 C825 -8 917 84 945 241 L991 501 L1068 501 C1163 501 1238 522 1257 630 C1259 647 1261 665 1261 686 L1161 686 C1162 667 1160 651 1157 638 C1146 572 1108 560 1051 560 L904 560 L849 257 C828 143 770 78 598 78 L367 78 C179 78 152 148 171 258 L171 258 Z " />
<glyph glyph-name="uni01B1" unicode="&#x1b1;" horiz-adv-x="1301" d="M859 616 C1033 585 1104 486 1104 375 C1104 241 1023 90 756 90 L456 90 C261 90 197 177 197 288 C197 429 304 577 547 616 L560 700 L131 700 L113 600 L319 600 C150 521 84 389 84 254 C84 107 179 -10 420 -10 L759 -10 C1079 -10 1208 169 1208 364 C1208 460 1165 551 1070 600 L1283 600 L1301 700 L873 700 L859 616 Z " />
<glyph glyph-name="uni01C0" unicode="&#x1c0;" horiz-adv-x="324" d="M293 800 L200 800 L38 -100 L132 -100 L293 800 Z " />
<glyph glyph-name="uni01C1" unicode="&#x1c1;" horiz-adv-x="635" d="M293 800 L200 800 L38 -100 L132 -100 L293 800 Z M608 800 L515 800 L354 -100 L447 -100 L608 800 Z " />
<glyph glyph-name="uni01C2" unicode="&#x1c2;" horiz-adv-x="702" d="M364 153 L629 153 L643 237 L379 237 L420 463 L684 463 L699 547 L435 547 L481 800 L387 800 L341 547 L77 547 L62 463 L326 463 L285 237 L21 237 L6 153 L271 153 L226 -100 L319 -100 L364 153 Z " />
<glyph glyph-name="uni01C3" unicode="&#x1c3;" horiz-adv-x="337" d="M51 0 L168 0 L189 119 L72 119 L51 0 Z M92 185 L186 185 L289 700 L181 700 L92 185 Z " />
<glyph glyph-name="uni01C4" unicode="&#x1c4;" horiz-adv-x="2352" d="M57 0 L657 0 C1002 0 1141 193 1141 404 C1141 570 1040 700 772 700 L182 700 L57 0 Z M754 600 C957 600 1024 508 1024 391 C1024 249 941 100 665 100 L183 100 L272 600 L754 600 Z M1217 0 L2234 0 L2252 100 L1450 100 L2326 622 L2336 700 L1348 700 L1329 600 L2102 600 L1227 78 L1217 0 Z M2065 946 L1993 946 L1864 831 L1777 946 L1709 946 L1792 775 L1919 775 L2065 946 Z " />
<glyph glyph-name="uni01C5" unicode="&#x1c5;" horiz-adv-x="2187" d="M57 0 L657 0 C1002 0 1141 193 1141 404 C1141 570 1040 700 772 700 L182 700 L57 0 Z M754 600 C957 600 1024 508 1024 391 C1024 249 941 100 665 100 L183 100 L272 600 L754 600 Z M1210 0 L2076 0 L2091 86 L1420 86 L2147 493 L2155 560 L1314 560 L1298 474 L1943 474 L1217 67 L1210 0 Z M1958 806 L1886 806 L1757 691 L1670 806 L1602 806 L1685 635 L1812 635 L1958 806 Z " />
<glyph glyph-name="uni01C6" unicode="&#x1c6;" horiz-adv-x="2020" d="M47 0 L560 0 C861 0 968 160 968 328 C968 457 885 560 661 560 L148 560 L47 0 Z M651 474 C810 474 863 409 863 316 C863 199 778 86 566 86 L162 86 L229 474 L651 474 Z M1043 0 L1909 0 L1924 86 L1253 86 L1980 493 L1988 560 L1147 560 L1131 474 L1776 474 L1050 67 L1043 0 Z M1791 806 L1719 806 L1590 691 L1503 806 L1435 806 L1518 635 L1645 635 L1791 806 Z " />
<glyph glyph-name="uni01C7" unicode="&#x1c7;" horiz-adv-x="2245" d="M1389 -5 L1709 -5 C1999 -5 2108 112 2143 306 L2213 700 L2103 700 L2035 327 C2009 181 1928 95 1723 95 L1409 95 C1238 95 1200 172 1221 274 L1231 326 L1121 326 L1111 275 C1082 123 1148 -5 1389 -5 L1389 -5 Z M292 700 L182 700 L57 0 L996 0 L1013 100 L185 100 L292 700 Z " />
<glyph glyph-name="uni01C8" unicode="&#x1c8;" horiz-adv-x="2083" d="M292 700 L182 700 L57 0 L996 0 L1013 100 L185 100 L292 700 Z M1336 -4 L1624 -4 C1859 -4 1951 88 1979 245 L2035 560 L1937 560 L1883 261 C1862 147 1803 82 1631 82 L1343 82 C1210 82 1184 141 1198 219 L1206 262 L1109 262 L1101 220 C1078 98 1128 -4 1336 -4 L1336 -4 Z " />
<glyph glyph-name="uni01C9" unicode="&#x1c9;" horiz-adv-x="1946" d="M1199 -4 L1487 -4 C1722 -4 1814 88 1842 245 L1898 560 L1800 560 L1746 261 C1725 147 1666 82 1494 82 L1206 82 C1073 82 1047 141 1061 219 L1069 262 L972 262 L964 220 C941 98 991 -4 1199 -4 L1199 -4 Z M245 560 L146 560 L47 0 L846 0 L861 86 L161 86 L245 560 Z " />
<glyph glyph-name="uni01CA" unicode="&#x1ca;" horiz-adv-x="2415" d="M1559 -5 L1879 -5 C2169 -5 2278 112 2313 306 L2383 700 L2273 700 L2205 327 C2179 181 2098 95 1893 95 L1579 95 C1408 95 1370 172 1391 274 L1401 326 L1291 326 L1281 275 C1252 123 1318 -5 1559 -5 L1559 -5 Z M973 0 L1077 0 L1202 700 L1092 700 L989 119 L286 700 L182 700 L57 0 L167 0 L269 581 L973 0 Z " />
<glyph glyph-name="uni01CB" unicode="&#x1cb;" horiz-adv-x="2253" d="M973 0 L1077 0 L1202 700 L1092 700 L989 119 L286 700 L182 700 L57 0 L167 0 L269 581 L973 0 Z M1506 -4 L1794 -4 C2029 -4 2121 88 2149 245 L2205 560 L2107 560 L2053 261 C2032 147 1973 82 1801 82 L1513 82 C1380 82 1354 141 1368 219 L1376 262 L1279 262 L1271 220 C1248 98 1298 -4 1506 -4 L1506 -4 Z " />
<glyph glyph-name="uni01CC" unicode="&#x1cc;" horiz-adv-x="2082" d="M1335 -4 L1623 -4 C1858 -4 1950 88 1978 245 L2034 560 L1936 560 L1882 261 C1861 147 1802 82 1630 82 L1342 82 C1209 82 1183 141 1197 219 L1205 262 L1108 262 L1100 220 C1077 98 1127 -4 1335 -4 L1335 -4 Z M916 0 L1015 560 L916 560 L836 105 L240 560 L146 560 L47 0 L146 0 L226 456 L822 0 L916 0 Z " />
<glyph glyph-name="uni01CD" unicode="&#x1cd;" horiz-adv-x="1224" d="M1028 0 L1156 0 L736 700 L620 700 L-51 0 L89 0 L214 132 L949 132 L1028 0 Z M665 606 L894 223 L301 223 L665 606 Z M899 946 L827 946 L698 831 L611 946 L543 946 L626 775 L753 775 L899 946 Z " />
<glyph glyph-name="uni01CE" unicode="&#x1ce;" horiz-adv-x="1047" d="M861 0 L978 0 L616 560 L511 560 L-50 0 L76 0 L185 110 L790 110 L861 0 Z M553 480 L741 186 L261 186 L553 480 Z M785 806 L713 806 L584 691 L497 806 L429 806 L512 635 L639 635 L785 806 Z " />
<glyph glyph-name="uni01CF" unicode="&#x1cf;" horiz-adv-x="343" d="M57 0 L167 0 L292 700 L182 700 L57 0 Z M457 946 L385 946 L256 831 L169 946 L101 946 L184 775 L311 775 L457 946 Z " />
<glyph glyph-name="uni01D0" unicode="&#x1d0;" horiz-adv-x="312" d="M418 806 L346 806 L217 691 L130 806 L62 806 L145 635 L272 635 L418 806 Z M47 0 L146 0 L245 560 L146 560 L47 0 Z " />
<glyph glyph-name="uni01D1" unicode="&#x1d1;" horiz-adv-x="1293" d="M731 -10 C1094 -10 1231 185 1231 409 C1231 579 1124 710 853 710 L568 710 C207 710 66 518 66 294 C66 122 174 -10 446 -10 L731 -10 Z M467 90 C255 90 184 184 184 307 C184 457 275 610 562 610 L831 610 C1042 610 1113 517 1113 395 C1113 241 1022 90 737 90 L467 90 Z M932 946 L860 946 L731 831 L644 946 L576 946 L659 775 L786 775 L932 946 Z " />
<glyph glyph-name="uni01D2" unicode="&#x1d2;" horiz-adv-x="1108" d="M618 -8 C923 -8 1037 152 1039 326 C1040 461 957 568 722 568 L469 568 C164 568 52 408 50 234 C48 99 130 -8 365 -8 L618 -8 Z M382 78 C208 78 154 150 154 242 C155 361 238 482 457 482 L706 482 C880 482 934 409 934 317 C934 201 851 78 631 78 L382 78 Z M816 806 L744 806 L615 691 L528 806 L460 806 L543 635 L670 635 L816 806 Z " />
<glyph glyph-name="uni01D3" unicode="&#x1d3;" horiz-adv-x="1223" d="M204 323 L273 700 L163 700 L94 323 C59 130 135 -10 429 -10 L687 -10 C976 -10 1088 118 1122 308 L1192 700 L1082 700 L1015 329 C989 183 906 90 702 90 L442 90 C228 90 180 186 204 323 L204 323 Z M898 946 L826 946 L697 831 L610 946 L542 946 L625 775 L752 775 L898 946 Z " />
<glyph glyph-name="uni01D4" unicode="&#x1d4;" horiz-adv-x="1050" d="M171 258 L225 560 L127 560 L73 258 C45 104 95 -8 352 -8 L590 -8 C825 -8 917 84 945 241 L1002 560 L904 560 L849 257 C828 143 770 78 598 78 L367 78 C179 78 152 148 171 258 L171 258 Z M788 806 L716 806 L587 691 L500 806 L432 806 L515 635 L642 635 L788 806 Z " />
<glyph glyph-name="uni01D5" unicode="&#x1d5;" horiz-adv-x="1223" d="M204 323 L273 700 L163 700 L94 323 C59 130 135 -10 429 -10 L687 -10 C976 -10 1088 118 1122 308 L1192 700 L1082 700 L1015 329 C989 183 906 90 702 90 L442 90 C228 90 180 186 204 323 L204 323 Z M543 998 L913 998 L926 1070 L556 1070 L543 998 Z M771 806 L877 806 L896 913 L790 913 L771 806 Z M508 806 L614 806 L633 913 L526 913 L508 806 Z " />
<glyph glyph-name="uni01D6" unicode="&#x1d6;" horiz-adv-x="1050" d="M171 258 L225 560 L127 560 L73 258 C45 104 95 -8 352 -8 L590 -8 C825 -8 917 84 945 241 L1002 560 L904 560 L849 257 C828 143 770 78 598 78 L367 78 C179 78 152 148 171 258 L171 258 Z M432 858 L802 858 L815 930 L445 930 L432 858 Z M661 666 L767 666 L786 773 L680 773 L661 666 Z M398 666 L504 666 L523 773 L416 773 L398 666 Z " />
<glyph glyph-name="uni01D7" unicode="&#x1d7;" horiz-adv-x="1223" d="M204 323 L273 700 L163 700 L94 323 C59 130 135 -10 429 -10 L687 -10 C976 -10 1088 118 1122 308 L1192 700 L1082 700 L1015 329 C989 183 906 90 702 90 L442 90 C228 90 180 186 204 323 L204 323 Z M643 966 L718 966 L904 1137 L774 1137 L643 966 Z M771 806 L877 806 L896 913 L790 913 L771 806 Z M508 806 L614 806 L633 913 L526 913 L508 806 Z " />
<glyph glyph-name="uni01D8" unicode="&#x1d8;" horiz-adv-x="1050" d="M171 258 L225 560 L127 560 L73 258 C45 104 95 -8 352 -8 L590 -8 C825 -8 917 84 945 241 L1002 560 L904 560 L849 257 C828 143 770 78 598 78 L367 78 C179 78 152 148 171 258 L171 258 Z M532 826 L607 826 L793 997 L663 997 L532 826 Z M661 666 L767 666 L786 773 L680 773 L661 666 Z M398 666 L504 666 L523 773 L416 773 L398 666 Z " />
<glyph glyph-name="uni01D9" unicode="&#x1d9;" horiz-adv-x="1223" d="M204 323 L273 700 L163 700 L94 323 C59 130 135 -10 429 -10 L687 -10 C976 -10 1088 118 1122 308 L1192 700 L1082 700 L1015 329 C989 183 906 90 702 90 L442 90 C228 90 180 186 204 323 L204 323 Z M932 1137 L860 1137 L731 1022 L644 1137 L576 1137 L659 966 L786 966 L932 1137 Z M771 806 L877 806 L896 913 L790 913 L771 806 Z M508 806 L614 806 L633 913 L526 913 L508 806 Z " />
<glyph glyph-name="uni01DA" unicode="&#x1da;" horiz-adv-x="1050" d="M171 258 L225 560 L127 560 L73 258 C45 104 95 -8 352 -8 L590 -8 C825 -8 917 84 945 241 L1002 560 L904 560 L849 257 C828 143 770 78 598 78 L367 78 C179 78 152 148 171 258 L171 258 Z M821 997 L749 997 L620 882 L533 997 L465 997 L548 826 L675 826 L821 997 Z M661 666 L767 666 L786 773 L680 773 L661 666 Z M398 666 L504 666 L523 773 L416 773 L398 666 Z " />
<glyph glyph-name="uni01DB" unicode="&#x1db;" horiz-adv-x="1223" d="M204 323 L273 700 L163 700 L94 323 C59 130 135 -10 429 -10 L687 -10 C976 -10 1088 118 1122 308 L1192 700 L1082 700 L1015 329 C989 183 906 90 702 90 L442 90 C228 90 180 186 204 323 L204 323 Z M728 1137 L607 1137 L729 966 L797 966 L728 1137 Z M771 806 L877 806 L896 913 L790 913 L771 806 Z M508 806 L614 806 L633 913 L526 913 L508 806 Z " />
<glyph glyph-name="uni01DC" unicode="&#x1dc;" horiz-adv-x="1050" d="M171 258 L225 560 L127 560 L73 258 C45 104 95 -8 352 -8 L590 -8 C825 -8 917 84 945 241 L1002 560 L904 560 L849 257 C828 143 770 78 598 78 L367 78 C179 78 152 148 171 258 L171 258 Z M617 997 L496 997 L618 826 L686 826 L617 997 Z M661 666 L767 666 L786 773 L680 773 L661 666 Z M398 666 L504 666 L523 773 L416 773 L398 666 Z " />
<glyph glyph-name="uni01DD" unicode="&#x1dd;" horiz-adv-x="992" d="M924 560 L109 560 L93 474 L810 474 L783 318 L150 318 L135 242 L768 242 L742 86 L25 86 L10 0 L825 0 L924 560 Z " />
<glyph glyph-name="uni01DE" unicode="&#x1de;" horiz-adv-x="1224" d="M1028 0 L1156 0 L736 700 L620 700 L-51 0 L89 0 L214 132 L949 132 L1028 0 Z M665 606 L894 223 L301 223 L665 606 Z M544 998 L914 998 L927 1070 L557 1070 L544 998 Z M772 806 L878 806 L897 913 L791 913 L772 806 Z M509 806 L615 806 L634 913 L527 913 L509 806 Z " />
<glyph glyph-name="uni01DF" unicode="&#x1df;" horiz-adv-x="1047" d="M861 0 L978 0 L616 560 L511 560 L-50 0 L76 0 L185 110 L790 110 L861 0 Z M553 480 L741 186 L261 186 L553 480 Z M430 858 L800 858 L813 930 L443 930 L430 858 Z M658 666 L764 666 L783 773 L677 773 L658 666 Z M395 666 L501 666 L520 773 L413 773 L395 666 Z " />
<glyph glyph-name="uni01E0" unicode="&#x1e0;" horiz-adv-x="1224" d="M1028 0 L1156 0 L736 700 L620 700 L-51 0 L89 0 L214 132 L949 132 L1028 0 Z M665 606 L894 223 L301 223 L665 606 Z M544 998 L914 998 L927 1070 L557 1070 L544 998 Z M642 806 L747 806 L766 913 L661 913 L642 806 Z " />
<glyph glyph-name="uni01E1" unicode="&#x1e1;" horiz-adv-x="1047" d="M861 0 L978 0 L616 560 L511 560 L-50 0 L76 0 L185 110 L790 110 L861 0 Z M553 480 L741 186 L261 186 L553 480 Z M430 858 L800 858 L813 930 L443 930 L430 858 Z M528 666 L633 666 L652 773 L547 773 L528 666 Z " />
<glyph glyph-name="uni01E2" unicode="&#x1e2;" horiz-adv-x="1641" d="M671 130 L649 0 L1506 0 L1524 100 L776 100 L812 305 L1461 305 L1479 395 L829 395 L864 600 L1611 600 L1631 700 L715 700 L-51 0 L90 0 L231 130 L671 130 Z M329 220 L756 613 L688 220 L329 220 Z M841 824 L1211 824 L1224 896 L854 896 L841 824 Z " />
<glyph glyph-name="uni01E3" unicode="&#x1e3;" horiz-adv-x="1404" d="M563 102 L545 0 L1276 0 L1290 86 L659 86 L686 242 L1233 242 L1248 318 L700 318 L727 474 L1359 474 L1375 560 L592 560 L-50 0 L77 0 L193 102 L563 102 Z M280 178 L631 484 L577 178 L280 178 Z M709 684 L1079 684 L1092 756 L722 756 L709 684 Z " />
<glyph glyph-name="Gcaron" unicode="&#x1e6;" horiz-adv-x="1205" d="M630 305 L1000 305 L964 100 L453 100 C250 100 184 192 184 309 C184 451 266 600 543 600 L1107 600 L1125 700 L551 700 C205 700 66 507 66 296 C66 130 167 0 435 0 L1053 0 L1123 395 L648 395 L630 305 Z M911 946 L839 946 L710 831 L623 946 L555 946 L638 775 L765 775 L911 946 Z " />
<glyph glyph-name="gcaron" unicode="&#x1e7;" horiz-adv-x="1036" d="M809 86 L368 86 C208 86 155 151 155 244 C155 361 240 474 452 474 L930 474 L945 560 L458 560 C157 560 50 400 50 232 C50 102 132 0 357 0 L891 0 L947 318 L542 318 L526 242 L836 242 L809 86 Z M791 806 L719 806 L590 691 L503 806 L435 806 L518 635 L645 635 L791 806 Z " />
<glyph glyph-name="uni01E8" unicode="&#x1e8;" horiz-adv-x="1240" d="M1213 700 L1019 700 L212 258 L290 700 L182 700 L57 0 L165 0 L190 138 L534 327 L1004 0 L1176 0 L632 381 L1213 700 Z M868 946 L796 946 L667 831 L580 946 L512 946 L595 775 L722 775 L868 946 Z " />
<glyph glyph-name="uni01E9" unicode="&#x1e9;" horiz-adv-x="1069" d="M1031 560 L850 560 L183 213 L245 560 L146 560 L47 0 L146 0 L164 107 L453 258 L844 0 L1001 0 L541 304 L1031 560 Z M762 806 L690 806 L561 691 L474 806 L406 806 L489 635 L616 635 L762 806 Z " />
<glyph glyph-name="uni01EA" unicode="&#x1ea;" horiz-adv-x="1293" d="M603 -181 C603 -231 645 -262 712 -262 C752 -262 792 -257 839 -239 L848 -189 C810 -205 789 -208 762 -208 C721 -208 695 -189 695 -154 C695 -86 769 -36 846 -2 C1123 35 1231 210 1231 409 C1231 579 1124 710 853 710 L568 710 C207 710 66 518 66 294 C66 122 174 -10 446 -10 L731 -10 C743 -10 754 -10 766 -9 C684 -42 603 -102 603 -181 L603 -181 Z M467 90 C255 90 184 184 184 307 C184 457 275 610 562 610 L831 610 C1042 610 1113 517 1113 395 C1113 241 1022 90 737 90 L467 90 Z " />
<glyph glyph-name="uni01EB" unicode="&#x1eb;" horiz-adv-x="1108" d="M478 -181 C478 -231 520 -262 587 -262 C627 -262 667 -257 714 -239 L723 -189 C685 -205 664 -208 637 -208 C596 -208 570 -189 570 -154 C570 -85 647 -34 725 0 C950 33 1037 174 1039 326 C1040 461 957 568 722 568 L469 568 C164 568 52 408 50 234 C48 99 130 -8 365 -8 L618 -8 C627 -8 637 -8 646 -7 C563 -40 478 -100 478 -181 L478 -181 Z M382 78 C208 78 154 150 154 242 C155 361 238 482 457 482 L706 482 C880 482 934 409 934 317 C934 201 851 78 631 78 L382 78 Z " />
<glyph glyph-name="uni01EC" unicode="&#x1ec;" horiz-adv-x="1293" d="M603 -181 C603 -231 645 -262 712 -262 C752 -262 792 -257 839 -239 L848 -189 C810 -205 789 -208 762 -208 C721 -208 695 -189 695 -154 C695 -86 769 -36 846 -2 C1123 35 1231 210 1231 409 C1231 579 1124 710 853 710 L568 710 C207 710 66 518 66 294 C66 122 174 -10 446 -10 L731 -10 C743 -10 754 -10 766 -9 C684 -42 603 -102 603 -181 L603 -181 Z M467 90 C255 90 184 184 184 307 C184 457 275 610 562 610 L831 610 C1042 610 1113 517 1113 395 C1113 241 1022 90 737 90 L467 90 Z M546 824 L916 824 L929 896 L559 896 L546 824 Z " />
<glyph glyph-name="uni01ED" unicode="&#x1ed;" horiz-adv-x="1108" d="M478 -181 C478 -231 520 -262 587 -262 C627 -262 667 -257 714 -239 L723 -189 C685 -205 664 -208 637 -208 C596 -208 570 -189 570 -154 C570 -85 647 -34 725 0 C950 33 1037 174 1039 326 C1040 461 957 568 722 568 L469 568 C164 568 52 408 50 234 C48 99 130 -8 365 -8 L618 -8 C627 -8 637 -8 646 -7 C563 -40 478 -100 478 -181 L478 -181 Z M382 78 C208 78 154 150 154 242 C155 361 238 482 457 482 L706 482 C880 482 934 409 934 317 C934 201 851 78 631 78 L382 78 Z M430 684 L800 684 L813 756 L443 756 L430 684 Z " />
<glyph glyph-name="uni01F0" unicode="&#x1f0;" horiz-adv-x="1000" d="M253 -4 L541 -4 C776 -4 868 88 896 245 L952 560 L854 560 L800 261 C779 147 720 82 548 82 L260 82 C127 82 101 141 115 219 L123 262 L26 262 L18 220 C-5 98 45 -4 253 -4 L253 -4 Z M1099 806 L1027 806 L898 691 L811 806 L743 806 L826 635 L953 635 L1099 806 Z " />
<glyph glyph-name="uni01F1" unicode="&#x1f1;" horiz-adv-x="2352" d="M57 0 L657 0 C1002 0 1141 193 1141 404 C1141 570 1040 700 772 700 L182 700 L57 0 Z M754 600 C957 600 1024 508 1024 391 C1024 249 941 100 665 100 L183 100 L272 600 L754 600 Z M1217 0 L2234 0 L2252 100 L1450 100 L2326 622 L2336 700 L1348 700 L1329 600 L2102 600 L1227 78 L1217 0 Z " />
<glyph glyph-name="uni01F2" unicode="&#x1f2;" horiz-adv-x="2187" d="M57 0 L657 0 C1002 0 1141 193 1141 404 C1141 570 1040 700 772 700 L182 700 L57 0 Z M754 600 C957 600 1024 508 1024 391 C1024 249 941 100 665 100 L183 100 L272 600 L754 600 Z M1210 0 L2076 0 L2091 86 L1420 86 L2147 493 L2155 560 L1314 560 L1298 474 L1943 474 L1217 67 L1210 0 Z " />
<glyph glyph-name="uni01F3" unicode="&#x1f3;" horiz-adv-x="2020" d="M47 0 L560 0 C861 0 968 160 968 328 C968 457 885 560 661 560 L148 560 L47 0 Z M651 474 C810 474 863 409 863 316 C863 199 778 86 566 86 L162 86 L229 474 L651 474 Z M1043 0 L1909 0 L1924 86 L1253 86 L1980 493 L1988 560 L1147 560 L1131 474 L1776 474 L1050 67 L1043 0 Z " />
<glyph glyph-name="uni01F4" unicode="&#x1f4;" horiz-adv-x="1205" d="M630 305 L1000 305 L964 100 L453 100 C250 100 184 192 184 309 C184 451 266 600 543 600 L1107 600 L1125 700 L551 700 C205 700 66 507 66 296 C66 130 167 0 435 0 L1053 0 L1123 395 L648 395 L630 305 Z M622 775 L697 775 L883 946 L753 946 L622 775 Z " />
<glyph glyph-name="uni01F5" unicode="&#x1f5;" horiz-adv-x="1036" d="M809 86 L368 86 C208 86 155 151 155 244 C155 361 240 474 452 474 L930 474 L945 560 L458 560 C157 560 50 400 50 232 C50 102 132 0 357 0 L891 0 L947 318 L542 318 L526 242 L836 242 L809 86 Z M502 635 L577 635 L763 806 L633 806 L502 635 Z " />
<glyph glyph-name="uni01F8" unicode="&#x1f8;" horiz-adv-x="1253" d="M973 0 L1077 0 L1202 700 L1092 700 L989 119 L286 700 L182 700 L57 0 L167 0 L269 581 L973 0 Z M709 946 L588 946 L710 775 L778 775 L709 946 Z " />
<glyph glyph-name="uni01F9" unicode="&#x1f9;" horiz-adv-x="1082" d="M916 0 L1015 560 L916 560 L836 105 L240 560 L146 560 L47 0 L146 0 L226 456 L822 0 L916 0 Z M599 806 L478 806 L600 635 L668 635 L599 806 Z " />
<glyph glyph-name="Aringacute" unicode="&#x1fa;" horiz-adv-x="1224" d="M1028 0 L1156 0 L736 700 L620 700 L-51 0 L89 0 L214 132 L949 132 L1028 0 Z M665 606 L894 223 L301 223 L665 606 Z M646 856 C646 890 676 918 710 918 C739 918 761 895 761 866 C761 831 730 804 697 804 C667 804 646 827 646 856 L646 856 Z M582 852 C582 794 625 749 692 749 C765 749 825 803 825 871 C825 929 781 973 715 973 C641 973 582 920 582 852 L582 852 Z M650 1003 L725 1003 L911 1174 L781 1174 L650 1003 Z " />
<glyph glyph-name="aringacute" unicode="&#x1fb;" horiz-adv-x="1047" d="M861 0 L978 0 L616 560 L511 560 L-50 0 L76 0 L185 110 L790 110 L861 0 Z M553 480 L741 186 L261 186 L553 480 Z M532 716 C532 750 562 778 596 778 C625 778 647 755 647 726 C647 691 616 664 583 664 C553 664 532 687 532 716 L532 716 Z M468 712 C468 654 511 609 578 609 C651 609 711 663 711 731 C711 789 667 833 601 833 C527 833 468 780 468 712 L468 712 Z M536 863 L611 863 L797 1034 L667 1034 L536 863 Z " />
<glyph glyph-name="AEacute" unicode="&#x1fc;" horiz-adv-x="1641" d="M671 130 L649 0 L1506 0 L1524 100 L776 100 L812 305 L1461 305 L1479 395 L829 395 L864 600 L1611 600 L1631 700 L715 700 L-51 0 L90 0 L231 130 L671 130 Z M329 220 L756 613 L688 220 L329 220 Z M938 775 L1013 775 L1199 946 L1069 946 L938 775 Z " />
<glyph glyph-name="aeacute" unicode="&#x1fd;" horiz-adv-x="1404" d="M563 102 L545 0 L1276 0 L1290 86 L659 86 L686 242 L1233 242 L1248 318 L700 318 L727 474 L1359 474 L1375 560 L592 560 L-50 0 L77 0 L193 102 L563 102 Z M280 178 L631 484 L577 178 L280 178 Z M806 635 L881 635 L1067 806 L937 806 L806 635 Z " />
<glyph glyph-name="Oslashacute" unicode="&#x1fe;" horiz-adv-x="1293" d="M643 775 L718 775 L904 946 L774 946 L643 775 Z M731 -10 C1094 -10 1231 185 1231 409 C1231 537 1169 644 1022 688 L1125 800 L998 800 L913 707 C894 709 874 710 853 710 L568 710 C207 710 66 518 66 294 C66 164 128 57 276 12 L173 -100 L300 -100 L384 -7 C404 -9 424 -10 446 -10 L731 -10 Z M184 307 C184 457 275 610 562 610 L824 610 L357 101 C229 129 184 208 184 307 L184 307 Z M1113 395 C1113 241 1022 90 737 90 L474 90 L941 599 C1067 572 1113 492 1113 395 L1113 395 Z " />
<glyph glyph-name="oslashacute" unicode="&#x1ff;" horiz-adv-x="1108" d="M513 635 L588 635 L774 806 L644 806 L513 635 Z M618 -8 C923 -8 1037 152 1039 326 C1040 430 990 517 860 552 L944 640 L832 640 L761 566 C749 567 735 568 722 568 L469 568 C164 568 52 408 50 234 C48 130 97 42 226 8 L142 -80 L254 -80 L324 -6 C337 -7 351 -8 365 -8 L618 -8 Z M934 317 C934 201 851 78 631 78 L405 78 L786 475 C897 456 934 393 934 317 L934 317 Z M154 242 C155 361 238 482 457 482 L680 482 L300 84 C190 104 154 166 154 242 L154 242 Z " />
<glyph glyph-name="uni0200" unicode="&#x200;" horiz-adv-x="1224" d="M1028 0 L1156 0 L736 700 L620 700 L-51 0 L89 0 L214 132 L949 132 L1028 0 Z M665 606 L894 223 L301 223 L665 606 Z M788 946 L667 946 L790 775 L857 775 L788 946 Z M571 946 L450 946 L573 775 L641 775 L571 946 Z " />
<glyph glyph-name="uni0201" unicode="&#x201;" horiz-adv-x="1047" d="M861 0 L978 0 L616 560 L511 560 L-50 0 L76 0 L185 110 L790 110 L861 0 Z M553 480 L741 186 L261 186 L553 480 Z M674 806 L553 806 L676 635 L743 635 L674 806 Z M457 806 L336 806 L459 635 L527 635 L457 806 Z " />
<glyph glyph-name="uni0202" unicode="&#x202;" horiz-adv-x="1224" d="M1028 0 L1156 0 L736 700 L620 700 L-51 0 L89 0 L214 132 L949 132 L1028 0 Z M665 606 L894 223 L301 223 L665 606 Z M715 867 C789 867 810 829 806 783 L865 783 C874 856 853 937 726 937 C599 937 550 857 531 783 L593 783 C605 829 642 867 715 867 L715 867 Z " />
<glyph glyph-name="uni0203" unicode="&#x203;" horiz-adv-x="1047" d="M861 0 L978 0 L616 560 L511 560 L-50 0 L76 0 L185 110 L790 110 L861 0 Z M553 480 L741 186 L261 186 L553 480 Z M602 727 C676 727 697 689 693 643 L752 643 C761 716 740 797 613 797 C486 797 437 717 418 643 L480 643 C492 689 529 727 602 727 L602 727 Z " />
<glyph glyph-name="uni0204" unicode="&#x204;" horiz-adv-x="1150" d="M57 0 L1015 0 L1033 100 L185 100 L220 305 L970 305 L987 395 L237 395 L273 600 L1121 600 L1140 700 L182 700 L57 0 Z M760 946 L639 946 L762 775 L829 775 L760 946 Z M543 946 L422 946 L545 775 L613 775 L543 946 Z " />
<glyph glyph-name="uni0205" unicode="&#x205;" horiz-adv-x="992" d="M47 0 L862 0 L877 86 L161 86 L187 242 L820 242 L834 318 L202 318 L229 474 L946 474 L961 560 L146 560 L47 0 Z M658 806 L537 806 L660 635 L727 635 L658 806 Z M441 806 L320 806 L443 635 L511 635 L441 806 Z " />
<glyph glyph-name="uni0206" unicode="&#x206;" horiz-adv-x="1150" d="M57 0 L1015 0 L1033 100 L185 100 L220 305 L970 305 L987 395 L237 395 L273 600 L1121 600 L1140 700 L182 700 L57 0 Z M688 867 C762 867 783 829 779 783 L838 783 C847 856 826 937 699 937 C572 937 523 857 504 783 L566 783 C578 829 615 867 688 867 L688 867 Z " />
<glyph glyph-name="uni0207" unicode="&#x207;" horiz-adv-x="992" d="M47 0 L862 0 L877 86 L161 86 L187 242 L820 242 L834 318 L202 318 L229 474 L946 474 L961 560 L146 560 L47 0 Z M586 727 C660 727 681 689 677 643 L736 643 C745 716 724 797 597 797 C470 797 421 717 402 643 L464 643 C476 689 513 727 586 727 L586 727 Z " />
<glyph glyph-name="uni0208" unicode="&#x208;" horiz-adv-x="343" d="M57 0 L167 0 L292 700 L182 700 L57 0 Z M346 946 L225 946 L348 775 L415 775 L346 946 Z M129 946 L8 946 L131 775 L199 775 L129 946 Z " />
<glyph glyph-name="uni0209" unicode="&#x209;" horiz-adv-x="312" d="M47 0 L146 0 L245 560 L146 560 L47 0 Z M307 806 L186 806 L309 635 L376 635 L307 806 Z M90 806 L-31 806 L92 635 L160 635 L90 806 Z " />
<glyph glyph-name="uni020A" unicode="&#x20a;" horiz-adv-x="343" d="M57 0 L167 0 L292 700 L182 700 L57 0 Z M274 867 C348 867 369 829 365 783 L424 783 C433 856 412 937 285 937 C158 937 109 857 90 783 L152 783 C164 829 201 867 274 867 L274 867 Z " />
<glyph glyph-name="uni020B" unicode="&#x20b;" horiz-adv-x="312" d="M47 0 L146 0 L245 560 L146 560 L47 0 Z M234 727 C308 727 329 689 325 643 L384 643 C393 716 372 797 245 797 C118 797 69 717 50 643 L112 643 C124 689 161 727 234 727 L234 727 Z " />
<glyph glyph-name="uni020C" unicode="&#x20c;" horiz-adv-x="1293" d="M731 -10 C1094 -10 1231 185 1231 409 C1231 579 1124 710 853 710 L568 710 C207 710 66 518 66 294 C66 122 174 -10 446 -10 L731 -10 Z M467 90 C255 90 184 184 184 307 C184 457 275 610 562 610 L831 610 C1042 610 1113 517 1113 395 C1113 241 1022 90 737 90 L467 90 Z M821 946 L700 946 L823 775 L890 775 L821 946 Z M604 946 L483 946 L606 775 L674 775 L604 946 Z " />
<glyph glyph-name="uni020D" unicode="&#x20d;" horiz-adv-x="1108" d="M618 -8 C923 -8 1037 152 1039 326 C1040 461 957 568 722 568 L469 568 C164 568 52 408 50 234 C48 99 130 -8 365 -8 L618 -8 Z M382 78 C208 78 154 150 154 242 C155 361 238 482 457 482 L706 482 C880 482 934 409 934 317 C934 201 851 78 631 78 L382 78 Z M705 806 L584 806 L707 635 L774 635 L705 806 Z M488 806 L367 806 L490 635 L558 635 L488 806 Z " />
<glyph glyph-name="uni020E" unicode="&#x20e;" horiz-adv-x="1293" d="M731 -10 C1094 -10 1231 185 1231 409 C1231 579 1124 710 853 710 L568 710 C207 710 66 518 66 294 C66 122 174 -10 446 -10 L731 -10 Z M467 90 C255 90 184 184 184 307 C184 457 275 610 562 610 L831 610 C1042 610 1113 517 1113 395 C1113 241 1022 90 737 90 L467 90 Z M749 867 C823 867 844 829 840 783 L899 783 C908 856 887 937 760 937 C633 937 584 857 565 783 L627 783 C639 829 676 867 749 867 L749 867 Z " />
<glyph glyph-name="uni020F" unicode="&#x20f;" horiz-adv-x="1108" d="M618 -8 C923 -8 1037 152 1039 326 C1040 461 957 568 722 568 L469 568 C164 568 52 408 50 234 C48 99 130 -8 365 -8 L618 -8 Z M382 78 C208 78 154 150 154 242 C155 361 238 482 457 482 L706 482 C880 482 934 409 934 317 C934 201 851 78 631 78 L382 78 Z M633 727 C707 727 728 689 724 643 L783 643 C792 716 771 797 644 797 C517 797 468 717 449 643 L511 643 C523 689 560 727 633 727 L633 727 Z " />
<glyph glyph-name="uni0210" unicode="&#x210;" horiz-adv-x="1227" d="M57 0 L165 0 L212 262 L616 262 L993 0 L1163 0 L773 263 L823 263 C1043 263 1135 377 1135 515 C1135 618 1071 700 901 700 L182 700 L57 0 Z M880 600 C985 600 1019 555 1019 499 C1019 424 968 358 834 358 L229 358 L272 600 L880 600 Z M751 946 L630 946 L753 775 L820 775 L751 946 Z M534 946 L413 946 L536 775 L604 775 L534 946 Z " />
<glyph glyph-name="uni0211" unicode="&#x211;" horiz-adv-x="1061" d="M47 0 L146 0 L182 207 L523 207 L834 0 L989 0 L665 208 L700 208 C893 208 959 306 959 412 C959 494 908 560 763 560 L147 560 L47 0 Z M744 474 C831 474 855 440 855 398 C855 344 825 289 710 289 L197 289 L230 474 L744 474 Z M649 806 L528 806 L651 635 L718 635 L649 806 Z M432 806 L311 806 L434 635 L502 635 L432 806 Z " />
<glyph glyph-name="uni0212" unicode="&#x212;" horiz-adv-x="1227" d="M57 0 L165 0 L212 262 L616 262 L993 0 L1163 0 L773 263 L823 263 C1043 263 1135 377 1135 515 C1135 618 1071 700 901 700 L182 700 L57 0 Z M880 600 C985 600 1019 555 1019 499 C1019 424 968 358 834 358 L229 358 L272 600 L880 600 Z M679 867 C753 867 774 829 770 783 L829 783 C838 856 817 937 690 937 C563 937 514 857 495 783 L557 783 C569 829 606 867 679 867 L679 867 Z " />
<glyph glyph-name="uni0213" unicode="&#x213;" horiz-adv-x="1061" d="M47 0 L146 0 L182 207 L523 207 L834 0 L989 0 L665 208 L700 208 C893 208 959 306 959 412 C959 494 908 560 763 560 L147 560 L47 0 Z M744 474 C831 474 855 440 855 398 C855 344 825 289 710 289 L197 289 L230 474 L744 474 Z M577 727 C651 727 672 689 668 643 L727 643 C736 716 715 797 588 797 C461 797 412 717 393 643 L455 643 C467 689 504 727 577 727 L577 727 Z " />
<glyph glyph-name="uni0214" unicode="&#x214;" horiz-adv-x="1223" d="M204 323 L273 700 L163 700 L94 323 C59 130 135 -10 429 -10 L687 -10 C976 -10 1088 118 1122 308 L1192 700 L1082 700 L1015 329 C989 183 906 90 702 90 L442 90 C228 90 180 186 204 323 L204 323 Z M786 946 L665 946 L788 775 L855 775 L786 946 Z M569 946 L448 946 L571 775 L639 775 L569 946 Z " />
<glyph glyph-name="uni0215" unicode="&#x215;" horiz-adv-x="1050" d="M171 258 L225 560 L127 560 L73 258 C45 104 95 -8 352 -8 L590 -8 C825 -8 917 84 945 241 L1002 560 L904 560 L849 257 C828 143 770 78 598 78 L367 78 C179 78 152 148 171 258 L171 258 Z M676 806 L555 806 L678 635 L745 635 L676 806 Z M459 806 L338 806 L461 635 L529 635 L459 806 Z " />
<glyph glyph-name="uni0216" unicode="&#x216;" horiz-adv-x="1223" d="M204 323 L273 700 L163 700 L94 323 C59 130 135 -10 429 -10 L687 -10 C976 -10 1088 118 1122 308 L1192 700 L1082 700 L1015 329 C989 183 906 90 702 90 L442 90 C228 90 180 186 204 323 L204 323 Z M714 867 C788 867 809 829 805 783 L864 783 C873 856 852 937 725 937 C598 937 549 857 530 783 L592 783 C604 829 641 867 714 867 L714 867 Z " />
<glyph glyph-name="uni0217" unicode="&#x217;" horiz-adv-x="1050" d="M171 258 L225 560 L127 560 L73 258 C45 104 95 -8 352 -8 L590 -8 C825 -8 917 84 945 241 L1002 560 L904 560 L849 257 C828 143 770 78 598 78 L367 78 C179 78 152 148 171 258 L171 258 Z M604 727 C678 727 699 689 695 643 L754 643 C763 716 742 797 615 797 C488 797 439 717 420 643 L482 643 C494 689 531 727 604 727 L604 727 Z " />
<glyph glyph-name="uni0218" unicode="&#x218;" horiz-adv-x="1158" d="M800 100 L66 100 L47 0 L786 0 C987 0 1069 105 1069 229 C1069 323 1010 395 856 395 L327 395 C238 395 212 434 212 481 C212 543 252 600 364 600 L1099 600 L1117 700 L378 700 C177 700 95 595 95 471 C95 377 154 305 308 305 L837 305 C926 305 953 266 953 219 C953 157 912 100 800 100 L800 100 Z M430 -215 L469 -215 L400 -326 L448 -326 L534 -207 L552 -108 L449 -108 L430 -215 Z " />
<glyph glyph-name="uni0219" unicode="&#x219;" horiz-adv-x="991" d="M676 86 L50 86 L34 0 L667 0 C844 0 901 89 901 186 C901 261 854 317 724 317 L265 317 C194 317 173 346 173 381 C173 429 202 474 295 474 L921 474 L938 560 L305 560 C127 560 70 471 70 375 C70 299 117 243 248 243 L705 243 C777 243 798 214 798 179 C798 132 769 86 676 86 L676 86 Z M346 -215 L385 -215 L316 -326 L364 -326 L450 -207 L468 -108 L365 -108 L346 -215 Z " />
<glyph glyph-name="uni021A" unicode="&#x21a;" horiz-adv-x="1136" d="M75 600 L560 600 L453 0 L563 0 L670 600 L1155 600 L1173 700 L94 700 L75 600 Z M419 -215 L458 -215 L389 -326 L437 -326 L523 -207 L541 -108 L438 -108 L419 -215 Z " />
<glyph glyph-name="uni021B" unicode="&#x21b;" horiz-adv-x="998" d="M64 474 L474 474 L390 0 L489 0 L572 474 L982 474 L998 560 L80 560 L64 474 Z M350 -215 L389 -215 L320 -326 L368 -326 L454 -207 L472 -108 L369 -108 L350 -215 Z " />
<glyph glyph-name="uni021E" unicode="&#x21e;" horiz-adv-x="1252" d="M966 0 L1076 0 L1201 700 L1091 700 L1037 400 L238 400 L292 700 L182 700 L57 0 L167 0 L219 300 L1018 300 L966 0 Z M912 946 L840 946 L711 831 L624 946 L556 946 L639 775 L766 775 L912 946 Z " />
<glyph glyph-name="uni021F" unicode="&#x21f;" horiz-adv-x="1081" d="M816 0 L915 0 L1014 560 L915 560 L874 323 L204 323 L245 560 L146 560 L47 0 L146 0 L187 237 L857 237 L816 0 Z M803 806 L731 806 L602 691 L515 806 L447 806 L530 635 L657 635 L803 806 Z " />
<glyph glyph-name="uni0226" unicode="&#x226;" horiz-adv-x="1224" d="M1028 0 L1156 0 L736 700 L620 700 L-51 0 L89 0 L214 132 L949 132 L1028 0 Z M665 606 L894 223 L301 223 L665 606 Z M642 806 L747 806 L766 913 L661 913 L642 806 Z " />
<glyph glyph-name="uni0227" unicode="&#x227;" horiz-adv-x="1047" d="M861 0 L978 0 L616 560 L511 560 L-50 0 L76 0 L185 110 L790 110 L861 0 Z M553 480 L741 186 L261 186 L553 480 Z M528 666 L633 666 L652 773 L547 773 L528 666 Z " />
<glyph glyph-name="uni0228" unicode="&#x228;" horiz-adv-x="1150" d="M57 0 L502 0 L450 -115 L479 -115 C531 -115 560 -126 560 -157 C560 -204 507 -217 457 -217 C421 -217 387 -207 371 -196 L361 -245 C386 -259 428 -271 473 -271 C552 -270 636 -245 636 -152 C636 -86 570 -64 511 -70 L543 0 L1015 0 L1033 100 L185 100 L220 305 L970 305 L987 395 L237 395 L273 600 L1121 600 L1140 700 L182 700 L57 0 Z " />
<glyph glyph-name="uni0229" unicode="&#x229;" horiz-adv-x="992" d="M47 0 L423 0 L371 -115 L400 -115 C452 -115 481 -126 481 -157 C481 -204 428 -217 378 -217 C342 -217 308 -207 292 -196 L282 -245 C307 -259 349 -271 394 -271 C473 -270 557 -245 557 -152 C557 -86 491 -64 432 -70 L464 0 L862 0 L877 86 L161 86 L187 242 L820 242 L834 318 L202 318 L229 474 L946 474 L961 560 L146 560 L47 0 Z " />
<glyph glyph-name="uni022A" unicode="&#x22a;" horiz-adv-x="1293" d="M731 -10 C1094 -10 1231 185 1231 409 C1231 579 1124 710 853 710 L568 710 C207 710 66 518 66 294 C66 122 174 -10 446 -10 L731 -10 Z M467 90 C255 90 184 184 184 307 C184 457 275 610 562 610 L831 610 C1042 610 1113 517 1113 395 C1113 241 1022 90 737 90 L467 90 Z M578 998 L948 998 L961 1070 L591 1070 L578 998 Z M805 806 L911 806 L930 913 L824 913 L805 806 Z M542 806 L648 806 L667 913 L560 913 L542 806 Z " />
<glyph glyph-name="uni022B" unicode="&#x22b;" horiz-adv-x="1108" d="M618 -8 C923 -8 1037 152 1039 326 C1040 461 957 568 722 568 L469 568 C164 568 52 408 50 234 C48 99 130 -8 365 -8 L618 -8 Z M382 78 C208 78 154 150 154 242 C155 361 238 482 457 482 L706 482 C880 482 934 409 934 317 C934 201 851 78 631 78 L382 78 Z M460 858 L830 858 L843 930 L473 930 L460 858 Z M689 666 L795 666 L814 773 L708 773 L689 666 Z M426 666 L532 666 L551 773 L444 773 L426 666 Z " />
<glyph glyph-name="uni022C" unicode="&#x22c;" horiz-adv-x="1293" d="M731 -10 C1094 -10 1231 185 1231 409 C1231 579 1124 710 853 710 L568 710 C207 710 66 518 66 294 C66 122 174 -10 446 -10 L731 -10 Z M467 90 C255 90 184 184 184 307 C184 457 275 610 562 610 L831 610 C1042 610 1113 517 1113 395 C1113 241 1022 90 737 90 L467 90 Z M867 934 C853 882 835 871 811 871 C770 871 738 927 676 927 C620 927 578 894 552 786 L607 786 C620 838 638 850 663 850 C703 850 735 793 796 793 C853 793 896 826 922 934 L867 934 Z M578 1003 L948 1003 L961 1075 L591 1075 L578 1003 Z " />
<glyph glyph-name="uni022D" unicode="&#x22d;" horiz-adv-x="1108" d="M618 -8 C923 -8 1037 152 1039 326 C1040 461 957 568 722 568 L469 568 C164 568 52 408 50 234 C48 99 130 -8 365 -8 L618 -8 Z M382 78 C208 78 154 150 154 242 C155 361 238 482 457 482 L706 482 C880 482 934 409 934 317 C934 201 851 78 631 78 L382 78 Z M751 794 C737 742 719 731 695 731 C654 731 622 787 560 787 C504 787 462 754 436 646 L491 646 C504 698 522 710 547 710 C587 710 619 653 680 653 C737 653 780 686 806 794 L751 794 Z M461 863 L831 863 L844 935 L474 935 L461 863 Z " />
<glyph glyph-name="uni022E" unicode="&#x22e;" horiz-adv-x="1293" d="M731 -10 C1094 -10 1231 185 1231 409 C1231 579 1124 710 853 710 L568 710 C207 710 66 518 66 294 C66 122 174 -10 446 -10 L731 -10 Z M467 90 C255 90 184 184 184 307 C184 457 275 610 562 610 L831 610 C1042 610 1113 517 1113 395 C1113 241 1022 90 737 90 L467 90 Z M675 806 L780 806 L799 913 L694 913 L675 806 Z " />
<glyph glyph-name="uni022F" unicode="&#x22f;" horiz-adv-x="1108" d="M618 -8 C923 -8 1037 152 1039 326 C1040 461 957 568 722 568 L469 568 C164 568 52 408 50 234 C48 99 130 -8 365 -8 L618 -8 Z M382 78 C208 78 154 150 154 242 C155 361 238 482 457 482 L706 482 C880 482 934 409 934 317 C934 201 851 78 631 78 L382 78 Z M559 666 L664 666 L683 773 L578 773 L559 666 Z " />
<glyph glyph-name="uni0230" unicode="&#x230;" horiz-adv-x="1293" d="M731 -10 C1094 -10 1231 185 1231 409 C1231 579 1124 710 853 710 L568 710 C207 710 66 518 66 294 C66 122 174 -10 446 -10 L731 -10 Z M467 90 C255 90 184 184 184 307 C184 457 275 610 562 610 L831 610 C1042 610 1113 517 1113 395 C1113 241 1022 90 737 90 L467 90 Z M578 998 L948 998 L961 1070 L591 1070 L578 998 Z M675 806 L780 806 L799 913 L694 913 L675 806 Z " />
<glyph glyph-name="uni0231" unicode="&#x231;" horiz-adv-x="1108" d="M618 -8 C923 -8 1037 152 1039 326 C1040 461 957 568 722 568 L469 568 C164 568 52 408 50 234 C48 99 130 -8 365 -8 L618 -8 Z M382 78 C208 78 154 150 154 242 C155 361 238 482 457 482 L706 482 C880 482 934 409 934 317 C934 201 851 78 631 78 L382 78 Z M460 858 L830 858 L843 930 L473 930 L460 858 Z M559 666 L664 666 L683 773 L578 773 L559 666 Z " />
<glyph glyph-name="uni0232" unicode="&#x232;" horiz-adv-x="1199" d="M485 0 L595 0 L632 212 L1265 700 L1097 700 L587 298 L218 700 L65 700 L522 212 L485 0 Z M499 824 L869 824 L882 896 L512 896 L499 824 Z " />
<glyph glyph-name="uni0233" unicode="&#x233;" horiz-adv-x="1020" d="M402 0 L500 0 L530 170 L1060 560 L910 560 L488 243 L176 560 L39 560 L431 170 L402 0 Z M386 684 L756 684 L769 756 L399 756 L386 684 Z " />
<glyph glyph-name="uni0237" unicode="&#x237;" horiz-adv-x="1000" d="M253 -4 L541 -4 C776 -4 868 88 896 245 L952 560 L854 560 L800 261 C779 147 720 82 548 82 L260 82 C127 82 101 141 115 219 L123 262 L26 262 L18 220 C-5 98 45 -4 253 -4 L253 -4 Z " />
<glyph glyph-name="uni0256" unicode="&#x256;" horiz-adv-x="1037" d="M-26 242 L90 242 L47 0 L560 0 C861 0 968 160 968 328 C968 457 885 560 661 560 L148 560 L104 318 L-11 318 L-26 242 Z M651 474 C810 474 863 409 863 316 C863 199 778 86 566 86 L162 86 L189 242 L525 242 L539 318 L202 318 L229 474 L651 474 Z " />
<glyph glyph-name="uni02BB" unicode="&#x2bb;" horiz-adv-x="300" d="M253 573 L200 573 L275 700 L225 700 L133 565 L113 454 L231 454 L253 573 Z " />
<glyph glyph-name="uni02BC" unicode="&#x2bc;" horiz-adv-x="300" d="M136 581 L189 581 L114 454 L164 454 L256 589 L276 700 L158 700 L136 581 Z " />
<glyph glyph-name="uni02BD" unicode="&#x2bd;" horiz-adv-x="300" d="M276 700 L158 700 L137 589 L180 454 L230 454 L202 581 L254 581 L276 700 Z " />
<glyph glyph-name="circumflex" unicode="&#x2c6;" horiz-adv-x="480" d="M113 635 L185 635 L314 750 L401 635 L469 635 L386 806 L259 806 L113 635 Z " />
<glyph glyph-name="caron" unicode="&#x2c7;" horiz-adv-x="480" d="M502 806 L430 806 L301 691 L214 806 L146 806 L229 635 L356 635 L502 806 Z " />
<glyph glyph-name="uni02C9" unicode="&#x2c9;" horiz-adv-x="480" d="M116 684 L486 684 L499 756 L129 756 L116 684 Z " />
<glyph glyph-name="uni02CA" unicode="&#x2ca;" horiz-adv-x="480" d="M213 635 L288 635 L474 806 L344 806 L213 635 Z " />
<glyph glyph-name="uni02CB" unicode="&#x2cb;" horiz-adv-x="480" d="M298 806 L177 806 L299 635 L367 635 L298 806 Z " />
<glyph glyph-name="uni02CD" unicode="&#x2cd;" horiz-adv-x="480" d="M-39 -197 L331 -197 L344 -125 L-26 -125 L-39 -197 Z " />
<glyph glyph-name="uni02CE" unicode="&#x2ce;" horiz-adv-x="480" d="M143 -75 L22 -75 L144 -246 L212 -246 L143 -75 Z " />
<glyph glyph-name="uni02CF" unicode="&#x2cf;" horiz-adv-x="480" d="M58 -246 L133 -246 L319 -75 L189 -75 L58 -246 Z " />
<glyph glyph-name="breve" unicode="&#x2d8;" horiz-adv-x="480" d="M304 713 C230 713 209 751 213 797 L154 797 C145 724 166 643 293 643 C420 643 469 723 488 797 L426 797 C414 751 377 713 304 713 L304 713 Z " />
<glyph glyph-name="dotaccent" unicode="&#x2d9;" horiz-adv-x="480" d="M245 666 L350 666 L369 773 L264 773 L245 666 Z " />
<glyph glyph-name="ring" unicode="&#x2da;" horiz-adv-x="480" d="M249 716 C249 750 279 778 313 778 C342 778 364 755 364 726 C364 691 333 664 300 664 C270 664 249 687 249 716 L249 716 Z M185 712 C185 654 228 609 295 609 C368 609 428 663 428 731 C428 789 384 833 318 833 C244 833 185 780 185 712 L185 712 Z " />
<glyph glyph-name="ogonek" unicode="&#x2db;" horiz-adv-x="480" d="M58 -181 C58 -231 100 -262 167 -262 C207 -262 247 -257 294 -239 L303 -189 C265 -205 244 -208 217 -208 C176 -208 150 -189 150 -154 C150 -85 228 -34 307 0 L246 0 C157 -30 58 -94 58 -181 L58 -181 Z " />
<glyph glyph-name="tilde" unicode="&#x2dc;" horiz-adv-x="480" d="M437 794 C423 742 405 731 381 731 C340 731 308 787 246 787 C190 787 148 754 122 646 L177 646 C190 698 208 710 233 710 C273 710 305 653 366 653 C423 653 466 686 492 794 L437 794 Z " />
<glyph glyph-name="hungarumlaut" unicode="&#x2dd;" horiz-adv-x="480" d="M334 635 L409 635 L594 806 L466 806 L334 635 Z M97 635 L172 635 L357 806 L229 806 L97 635 Z " />
<glyph glyph-name="uni02EC" unicode="&#x2ec;" horiz-adv-x="480" d="M347 -75 L275 -75 L146 -190 L59 -75 L-9 -75 L74 -246 L201 -246 L347 -75 Z " />
<glyph glyph-name="uni02EE" unicode="&#x2ee;" horiz-adv-x="526" d="M135 581 L187 581 L112 454 L162 454 L254 589 L275 700 L156 700 L135 581 Z M365 581 L417 581 L342 454 L391 454 L484 589 L504 700 L386 700 L365 581 Z " />
<glyph glyph-name="gravecomb" unicode="&#x300;" d="M-510 806 L-631 806 L-509 635 L-441 635 L-510 806 Z " />
<glyph glyph-name="acutecomb" unicode="&#x301;" d="M-595 635 L-520 635 L-334 806 L-464 806 L-595 635 Z " />
<glyph glyph-name="uni0302" unicode="&#x302;" d="M-695 635 L-623 635 L-494 750 L-407 635 L-339 635 L-422 806 L-549 806 L-695 635 Z " />
<glyph glyph-name="tildecomb" unicode="&#x303;" d="M-371 794 C-385 742 -403 731 -427 731 C-468 731 -500 787 -562 787 C-618 787 -660 754 -686 646 L-631 646 C-618 698 -600 710 -575 710 C-535 710 -503 653 -442 653 C-385 653 -342 686 -316 794 L-371 794 Z " />
<glyph glyph-name="uni0304" unicode="&#x304;" d="M-692 684 L-322 684 L-309 756 L-679 756 L-692 684 Z " />
<glyph glyph-name="uni0306" unicode="&#x306;" d="M-505 713 C-579 713 -600 751 -596 797 L-655 797 C-664 724 -643 643 -516 643 C-389 643 -340 723 -321 797 L-383 797 C-395 751 -432 713 -505 713 L-505 713 Z " />
<glyph glyph-name="uni0307" unicode="&#x307;" d="M-563 666 L-458 666 L-439 773 L-544 773 L-563 666 Z " />
<glyph glyph-name="uni0308" unicode="&#x308;" d="M-434 666 L-328 666 L-309 773 L-415 773 L-434 666 Z M-697 666 L-591 666 L-572 773 L-679 773 L-697 666 Z " />
<glyph glyph-name="hookabovecomb" unicode="&#x309;" d="M-570 626 L-516 626 L-509 666 L-505 666 C-426 666 -339 683 -339 777 C-339 841 -399 857 -465 857 C-515 857 -569 847 -601 833 L-610 782 C-585 793 -544 802 -504 802 C-460 802 -422 796 -422 761 C-422 720 -454 708 -524 708 L-555 708 L-570 626 Z " />
<glyph glyph-name="uni030A" unicode="&#x30a;" d="M-559 716 C-559 750 -529 778 -495 778 C-466 778 -444 755 -444 726 C-444 691 -475 664 -508 664 C-538 664 -559 687 -559 716 L-559 716 Z M-623 712 C-623 654 -580 609 -513 609 C-440 609 -380 663 -380 731 C-380 789 -424 833 -490 833 C-564 833 -623 780 -623 712 L-623 712 Z " />
<glyph glyph-name="uni030B" unicode="&#x30b;" d="M-475 635 L-400 635 L-215 806 L-343 806 L-475 635 Z M-712 635 L-637 635 L-452 806 L-580 806 L-712 635 Z " />
<glyph glyph-name="uni030C" unicode="&#x30c;" d="M-306 806 L-378 806 L-507 691 L-594 806 L-662 806 L-579 635 L-452 635 L-306 806 Z " />
<glyph glyph-name="uni030F" unicode="&#x30f;" d="M-418 806 L-539 806 L-416 635 L-348 635 L-418 806 Z M-635 806 L-756 806 L-633 635 L-565 635 L-635 806 Z " />
<glyph glyph-name="uni0311" unicode="&#x311;" d="M-497 728 C-424 728 -403 690 -407 644 L-348 644 C-340 718 -360 798 -487 798 C-614 798 -665 718 -682 644 L-619 644 C-607 690 -570 728 -497 728 L-497 728 Z " />
<glyph glyph-name="uni0312" unicode="&#x312;" d="M-351 573 L-403 573 L-328 700 L-378 700 L-470 565 L-491 454 L-372 454 L-351 573 Z " />
<glyph glyph-name="uni0313" unicode="&#x313;" d="M-583 581 L-531 581 L-606 454 L-556 454 L-464 589 L-443 700 L-562 700 L-583 581 Z " />
<glyph glyph-name="uni0314" unicode="&#x314;" d="M-325 700 L-444 700 L-463 589 L-420 454 L-370 454 L-399 581 L-347 581 L-325 700 Z " />
<glyph glyph-name="uni0316" unicode="&#x316;" d="M-665 -75 L-786 -75 L-664 -246 L-596 -246 L-665 -75 Z " />
<glyph glyph-name="uni0317" unicode="&#x317;" d="M-750 -246 L-675 -246 L-489 -75 L-619 -75 L-750 -246 Z " />
<glyph glyph-name="uni031B" unicode="&#x31b;" d="M-96 501 L2 501 C97 501 172 522 191 630 C193 647 195 665 195 686 L95 686 C96 667 94 651 91 638 C80 572 42 560 -15 560 L-86 560 L-96 501 Z " />
<glyph glyph-name="uni031C" unicode="&#x31c;" d="M-593 -48 C-661 -48 -718 -97 -730 -160 C-740 -223 -701 -272 -633 -272 L-623 -217 C-654 -217 -674 -192 -669 -160 C-663 -128 -634 -103 -603 -103 L-593 -48 Z " />
<glyph glyph-name="dotbelowcomb" unicode="&#x323;" d="M-718 -215 L-613 -215 L-594 -108 L-699 -108 L-718 -215 Z " />
<glyph glyph-name="uni0324" unicode="&#x324;" d="M-589 -215 L-483 -215 L-464 -108 L-570 -108 L-589 -215 Z M-852 -215 L-746 -215 L-727 -108 L-834 -108 L-852 -215 Z " />
<glyph glyph-name="uni0325" unicode="&#x325;" d="M-714 -165 C-714 -131 -684 -103 -650 -103 C-621 -103 -599 -126 -599 -155 C-599 -190 -630 -217 -663 -217 C-693 -217 -714 -194 -714 -165 L-714 -165 Z M-778 -169 C-778 -227 -735 -272 -668 -272 C-595 -272 -535 -218 -535 -150 C-535 -92 -579 -48 -645 -48 C-719 -48 -778 -101 -778 -169 L-778 -169 Z " />
<glyph glyph-name="uni0326" unicode="&#x326;" d="M-715 -215 L-676 -215 L-745 -326 L-697 -326 L-611 -207 L-593 -108 L-696 -108 L-715 -215 Z " />
<glyph glyph-name="uni0327" unicode="&#x327;" d="M-705 -115 L-676 -115 C-624 -115 -595 -126 -595 -157 C-595 -204 -648 -217 -698 -217 C-734 -217 -768 -207 -784 -196 L-794 -245 C-769 -259 -727 -271 -682 -271 C-603 -270 -519 -245 -519 -152 C-519 -86 -585 -64 -644 -70 L-612 0 L-653 0 L-705 -115 Z " />
<glyph glyph-name="uni0328" unicode="&#x328;" d="M-750 -181 C-750 -231 -708 -262 -641 -262 C-601 -262 -561 -257 -514 -239 L-505 -189 C-543 -205 -564 -208 -591 -208 C-632 -208 -658 -189 -658 -154 C-658 -85 -580 -34 -501 0 L-562 0 C-651 -30 -750 -94 -750 -181 L-750 -181 Z " />
<glyph glyph-name="uni032C" unicode="&#x32c;" d="M-461 -75 L-533 -75 L-662 -190 L-749 -75 L-817 -75 L-734 -246 L-607 -246 L-461 -75 Z " />
<glyph glyph-name="uni032D" unicode="&#x32d;" d="M-850 -246 L-778 -246 L-649 -131 L-562 -246 L-494 -246 L-577 -75 L-704 -75 L-850 -246 Z " />
<glyph glyph-name="uni032E" unicode="&#x32e;" d="M-660 -168 C-734 -168 -755 -130 -751 -84 L-810 -84 C-819 -157 -798 -238 -671 -238 C-544 -238 -495 -158 -476 -84 L-538 -84 C-550 -130 -587 -168 -660 -168 L-660 -168 Z " />
<glyph glyph-name="uni032F" unicode="&#x32f;" d="M-655 -154 C-582 -154 -559 -192 -563 -238 L-504 -238 C-494 -163 -517 -83 -644 -83 C-771 -83 -820 -163 -839 -238 L-775 -238 C-762 -192 -728 -154 -655 -154 L-655 -154 Z " />
<glyph glyph-name="uni0330" unicode="&#x330;" d="M-526 -87 C-540 -139 -558 -150 -582 -150 C-623 -150 -655 -94 -717 -94 C-773 -94 -815 -127 -841 -235 L-786 -235 C-773 -183 -755 -171 -730 -171 C-690 -171 -658 -228 -597 -228 C-540 -228 -497 -195 -471 -87 L-526 -87 Z " />
<glyph glyph-name="uni0331" unicode="&#x331;" d="M-847 -197 L-477 -197 L-464 -125 L-834 -125 L-847 -197 Z " />
<glyph glyph-name="uni0338" unicode="&#x338;" d="M-932 -76 L-834 -76 L-199 776 L-298 776 L-932 -76 Z " />
<glyph glyph-name="uni0339" unicode="&#x339;" d="M-690 -103 C-660 -103 -640 -128 -646 -160 C-651 -192 -681 -217 -711 -217 L-721 -272 C-654 -272 -596 -223 -585 -160 C-574 -97 -614 -48 -681 -48 L-690 -103 Z " />
<glyph glyph-name="uni0340" unicode="&#x340;" d="M-510 806 L-631 806 L-509 635 L-441 635 L-510 806 Z " />
<glyph glyph-name="uni0341" unicode="&#x341;" d="M-595 635 L-520 635 L-334 806 L-464 806 L-595 635 Z " />
<glyph glyph-name="uni0343" unicode="&#x343;" d="M-583 581 L-531 581 L-606 454 L-556 454 L-464 589 L-443 700 L-562 700 L-583 581 Z " />
<glyph glyph-name="uni0344" unicode="&#x344;" d="M-380 669 L-276 669 L-257 773 L-361 773 L-380 669 Z M-744 669 L-640 669 L-621 773 L-725 773 L-744 669 Z M-540 635 L-493 635 L-424 835 L-535 835 L-540 635 Z " />
<glyph glyph-name="uni034F" unicode="&#x34f;" d="" />
<glyph glyph-name="uni0351" unicode="&#x351;" d="M-438 833 C-506 833 -563 784 -574 721 C-585 658 -545 609 -477 609 L-468 664 C-499 664 -519 689 -513 721 C-508 753 -478 778 -447 778 L-438 833 Z " />
<glyph glyph-name="uni0357" unicode="&#x357;" d="M-535 778 C-505 778 -485 753 -490 721 C-496 689 -526 664 -556 664 L-565 609 C-498 609 -441 658 -429 721 C-419 784 -459 833 -526 833 L-535 778 Z " />
<glyph glyph-name="uni0374" unicode="&#x374;" horiz-adv-x="301" d="M113 400 L188 400 L324 700 L196 700 L113 400 Z " />
<glyph glyph-name="uni0375" unicode="&#x375;" horiz-adv-x="301" d="M25 -100 L100 -100 L236 200 L108 200 L25 -100 Z " />
<glyph glyph-name="uni037E" unicode="&#x37e;" horiz-adv-x="300" d="M33 0 L85 0 L10 -127 L60 -127 L152 8 L173 119 L54 119 L33 0 Z M110 441 L229 441 L250 560 L132 560 L110 441 Z " />
<glyph glyph-name="tonos" unicode="&#x384;" horiz-adv-x="480" d="M265 635 L321 635 L389 835 L269 835 L265 635 Z " />
<glyph glyph-name="dieresistonos" unicode="&#x385;" horiz-adv-x="480" d="M429 669 L533 669 L552 773 L448 773 L429 669 Z M65 669 L169 669 L188 773 L84 773 L65 669 Z M269 635 L316 635 L385 835 L274 835 L269 635 Z " />
<glyph glyph-name="Alphatonos" unicode="&#x386;" horiz-adv-x="1224" d="M1028 0 L1156 0 L736 700 L620 700 L-51 0 L89 0 L214 132 L949 132 L1028 0 Z M665 606 L894 223 L301 223 L665 606 Z M183 500 L239 500 L307 700 L187 700 L183 500 Z " />
<glyph glyph-name="anoteleia" unicode="&#x387;" horiz-adv-x="288" d="M73 226 L178 226 L197 333 L92 333 L73 226 Z " />
<glyph glyph-name="Epsilontonos" unicode="&#x388;" horiz-adv-x="1306" d="M212 0 L1170 0 L1188 100 L340 100 L375 305 L1125 305 L1142 395 L392 395 L428 600 L1276 600 L1295 700 L337 700 L212 0 Z M80 500 L136 500 L204 700 L84 700 L80 500 Z " />
<glyph glyph-name="Etatonos" unicode="&#x389;" horiz-adv-x="1407" d="M1121 0 L1231 0 L1356 700 L1246 700 L1192 400 L393 400 L447 700 L337 700 L212 0 L322 0 L374 300 L1173 300 L1121 0 Z M80 500 L136 500 L204 700 L84 700 L80 500 Z " />
<glyph glyph-name="Iotatonos" unicode="&#x38a;" horiz-adv-x="497" d="M211 0 L321 0 L446 700 L336 700 L211 0 Z M80 500 L136 500 L204 700 L84 700 L80 500 Z " />
<glyph glyph-name="Omicrontonos" unicode="&#x38c;" horiz-adv-x="1417" d="M854 -10 C1217 -10 1354 185 1354 409 C1354 579 1247 710 976 710 L691 710 C330 710 189 518 189 294 C189 122 297 -10 569 -10 L854 -10 Z M590 90 C378 90 307 184 307 307 C307 457 398 610 685 610 L954 610 C1165 610 1236 517 1236 395 C1236 241 1145 90 860 90 L590 90 Z M80 500 L136 500 L204 700 L84 700 L80 500 Z " />
<glyph glyph-name="Upsilontonos" unicode="&#x38e;" horiz-adv-x="1378" d="M664 0 L774 0 L811 212 L1444 700 L1276 700 L766 298 L397 700 L244 700 L701 212 L664 0 Z M80 500 L136 500 L204 700 L84 700 L80 500 Z " />
<glyph glyph-name="Omegatonos" unicode="&#x38f;" horiz-adv-x="1412" d="M559 84 C385 115 314 214 314 325 C314 459 395 610 662 610 L962 610 C1157 610 1221 523 1221 412 C1221 271 1114 123 871 84 L858 0 L1287 0 L1305 100 L1099 100 C1268 179 1334 311 1334 446 C1334 593 1239 710 998 710 L659 710 C339 710 210 531 210 336 C210 240 253 149 348 100 L135 100 L117 0 L545 0 L559 84 Z M80 500 L136 500 L204 700 L84 700 L80 500 Z " />
<glyph glyph-name="iotadieresistonos" unicode="&#x390;" horiz-adv-x="312" d="M47 0 L146 0 L245 560 L146 560 L47 0 Z M344 669 L448 669 L467 773 L363 773 L344 669 Z M-20 669 L84 669 L103 773 L-1 773 L-20 669 Z M184 635 L231 635 L300 835 L189 835 L184 635 Z " />
<glyph glyph-name="Alpha" unicode="&#x391;" horiz-adv-x="1224" d="M1028 0 L1156 0 L736 700 L620 700 L-51 0 L89 0 L214 132 L949 132 L1028 0 Z M665 606 L894 223 L301 223 L665 606 Z " />
<glyph glyph-name="Beta" unicode="&#x392;" horiz-adv-x="1208" d="M57 0 L849 0 C1035 0 1108 103 1108 216 C1108 285 1072 342 987 360 C1079 394 1121 466 1121 555 C1121 636 1067 700 930 700 L182 700 L57 0 Z M873 305 C965 305 994 266 994 220 C994 160 951 100 839 100 L185 100 L220 305 L873 305 Z M1002 516 C1002 459 963 395 851 395 L237 395 L273 600 L883 600 C973 600 1002 563 1002 516 L1002 516 Z " />
<glyph glyph-name="Gamma" unicode="&#x393;" horiz-adv-x="1083" d="M57 0 L167 0 L273 600 L1102 600 L1121 700 L182 700 L57 0 Z " />
<glyph glyph-name="Delta" unicode="&#x394;" horiz-adv-x="1224" d="M737 700 L619 700 L-51 0 L1157 0 L737 700 Z M668 609 L973 100 L184 100 L668 609 Z " />
<glyph glyph-name="Epsilon" unicode="&#x395;" horiz-adv-x="1150" d="M57 0 L1015 0 L1033 100 L185 100 L220 305 L970 305 L987 395 L237 395 L273 600 L1121 600 L1140 700 L182 700 L57 0 Z " />
<glyph glyph-name="Zeta" unicode="&#x396;" horiz-adv-x="1148" d="M13 0 L1030 0 L1048 100 L246 100 L1122 622 L1132 700 L144 700 L125 600 L898 600 L23 78 L13 0 Z " />
<glyph glyph-name="Eta" unicode="&#x397;" horiz-adv-x="1252" d="M966 0 L1076 0 L1201 700 L1091 700 L1037 400 L238 400 L292 700 L182 700 L57 0 L167 0 L219 300 L1018 300 L966 0 Z " />
<glyph glyph-name="Theta" unicode="&#x398;" horiz-adv-x="1293" d="M356 305 L924 305 L942 395 L373 395 L356 305 Z M731 -10 C1094 -10 1231 185 1231 409 C1231 579 1124 710 853 710 L568 710 C207 710 66 518 66 294 C66 122 174 -10 446 -10 L731 -10 Z M467 90 C255 90 184 184 184 307 C184 457 275 610 562 610 L831 610 C1042 610 1113 517 1113 395 C1113 241 1022 90 737 90 L467 90 Z " />
<glyph glyph-name="Iota" unicode="&#x399;" horiz-adv-x="343" d="M57 0 L167 0 L292 700 L182 700 L57 0 Z " />
<glyph glyph-name="Kappa" unicode="&#x39a;" horiz-adv-x="1240" d="M1213 700 L1019 700 L212 258 L290 700 L182 700 L57 0 L165 0 L190 138 L534 327 L1004 0 L1176 0 L632 381 L1213 700 Z " />
<glyph glyph-name="Lambda" unicode="&#x39b;" horiz-adv-x="1224" d="M619 700 L-51 0 L94 0 L664 607 L1022 0 L1157 0 L737 700 L619 700 Z " />
<glyph glyph-name="Mu" unicode="&#x39c;" horiz-adv-x="1392" d="M1229 700 L661 176 L280 700 L182 700 L57 0 L167 0 L263 548 L640 27 L1202 548 L1106 0 L1216 0 L1341 700 L1229 700 Z " />
<glyph glyph-name="Nu" unicode="&#x39d;" horiz-adv-x="1253" d="M973 0 L1077 0 L1202 700 L1092 700 L989 119 L286 700 L182 700 L57 0 L167 0 L269 581 L973 0 Z " />
<glyph glyph-name="Xi" unicode="&#x39e;" horiz-adv-x="1158" d="M123 600 L1129 600 L1148 700 L142 700 L123 600 Z M1040 100 L34 100 L16 0 L1022 0 L1040 100 Z M158 305 L987 305 L1005 395 L175 395 L158 305 Z " />
<glyph glyph-name="Omicron" unicode="&#x39f;" horiz-adv-x="1293" d="M731 -10 C1094 -10 1231 185 1231 409 C1231 579 1124 710 853 710 L568 710 C207 710 66 518 66 294 C66 122 174 -10 446 -10 L731 -10 Z M467 90 C255 90 184 184 184 307 C184 457 275 610 562 610 L831 610 C1042 610 1113 517 1113 395 C1113 241 1022 90 737 90 L467 90 Z " />
<glyph glyph-name="Pi" unicode="&#x3a0;" horiz-adv-x="1252" d="M966 0 L1076 0 L1201 700 L182 700 L57 0 L167 0 L273 600 L1072 600 L966 0 Z " />
<glyph glyph-name="Rho" unicode="&#x3a1;" horiz-adv-x="1147" d="M57 0 L167 0 L213 260 L835 260 C1058 260 1148 374 1148 514 C1148 618 1086 700 914 700 L182 700 L57 0 Z M893 600 C999 600 1031 555 1031 499 C1031 425 981 360 850 360 L231 360 L273 600 L893 600 Z " />
<glyph glyph-name="Sigma" unicode="&#x3a3;" horiz-adv-x="1129" d="M126 617 L535 353 L32 83 L16 0 L994 0 L1011 100 L262 100 L725 346 L343 600 L1100 600 L1119 700 L142 700 L126 617 Z " />
<glyph glyph-name="Tau" unicode="&#x3a4;" horiz-adv-x="1136" d="M75 600 L560 600 L453 0 L563 0 L670 600 L1155 600 L1173 700 L94 700 L75 600 Z " />
<glyph glyph-name="Upsilon" unicode="&#x3a5;" horiz-adv-x="1199" d="M485 0 L595 0 L632 212 L1265 700 L1097 700 L587 298 L218 700 L65 700 L522 212 L485 0 Z " />
<glyph glyph-name="Phi" unicode="&#x3a6;" horiz-adv-x="1252" d="M803 62 C1098 62 1208 219 1208 397 C1208 529 1120 638 903 638 L735 638 L755 750 L645 750 L625 638 L455 638 C162 638 50 477 50 301 C50 167 139 62 355 62 L522 62 L502 -50 L612 -50 L632 62 L803 62 Z M888 538 C1043 538 1090 467 1090 379 C1090 265 1003 162 808 162 L650 162 L717 538 L888 538 Z M169 320 C169 432 257 538 450 538 L607 538 L540 162 L371 162 C216 162 169 230 169 320 L169 320 Z " />
<glyph glyph-name="Chi" unicode="&#x3a7;" horiz-adv-x="1178" d="M89 700 L509 352 L-41 0 L141 0 L588 294 L932 0 L1101 0 L676 352 L1221 700 L1039 700 L596 409 L258 700 L89 700 Z " />
<glyph glyph-name="Psi" unicode="&#x3a8;" horiz-adv-x="1243" d="M507 0 L617 0 L642 145 L772 145 C1061 145 1174 273 1208 463 L1250 700 L1140 700 L1101 484 C1074 338 992 245 787 245 L661 245 L742 700 L632 700 L551 245 L432 245 C218 245 170 341 194 478 L234 700 L124 700 L84 479 C48 286 125 145 419 145 L532 145 L507 0 Z " />
<glyph glyph-name="Omega" unicode="&#x3a9;" horiz-adv-x="1301" d="M448 84 C274 115 203 214 203 325 C203 459 284 610 551 610 L851 610 C1046 610 1110 523 1110 412 C1110 271 1003 123 760 84 L747 0 L1176 0 L1194 100 L988 100 C1157 179 1223 311 1223 446 C1223 593 1128 710 887 710 L548 710 C228 710 99 531 99 336 C99 240 142 149 237 100 L24 100 L6 0 L434 0 L448 84 Z " />
<glyph glyph-name="Iotadieresis" unicode="&#x3aa;" horiz-adv-x="343" d="M57 0 L167 0 L292 700 L182 700 L57 0 Z M330 806 L436 806 L455 913 L349 913 L330 806 Z M67 806 L173 806 L192 913 L85 913 L67 806 Z " />
<glyph glyph-name="Upsilondieresis" unicode="&#x3ab;" horiz-adv-x="1199" d="M485 0 L595 0 L632 212 L1265 700 L1097 700 L587 298 L218 700 L65 700 L522 212 L485 0 Z M760 806 L866 806 L885 913 L779 913 L760 806 Z M497 806 L603 806 L622 913 L515 913 L497 806 Z " />
<glyph glyph-name="alphatonos" unicode="&#x3ac;" horiz-adv-x="1047" d="M861 0 L978 0 L616 560 L511 560 L-50 0 L76 0 L185 110 L790 110 L861 0 Z M553 480 L741 186 L261 186 L553 480 Z M119 360 L175 360 L243 560 L123 560 L119 360 Z " />
<glyph glyph-name="epsilontonos" unicode="&#x3ad;" horiz-adv-x="1146" d="M202 0 L1017 0 L1032 86 L316 86 L342 242 L975 242 L989 318 L357 318 L384 474 L1101 474 L1116 560 L301 560 L202 0 Z M55 360 L111 360 L179 560 L59 560 L55 360 Z " />
<glyph glyph-name="etatonos" unicode="&#x3ae;" horiz-adv-x="1236" d="M971 0 L1070 0 L1169 560 L1070 560 L1029 323 L359 323 L400 560 L301 560 L202 0 L301 0 L342 237 L1012 237 L971 0 Z M55 360 L111 360 L179 560 L59 560 L55 360 Z " />
<glyph glyph-name="iotatonos" unicode="&#x3af;" horiz-adv-x="467" d="M202 0 L301 0 L400 560 L301 560 L202 0 Z M55 360 L111 360 L179 560 L59 560 L55 360 Z " />
<glyph glyph-name="upsilondieresistonos" unicode="&#x3b0;" horiz-adv-x="1020" d="M402 0 L500 0 L530 170 L1060 560 L910 560 L488 243 L176 560 L39 560 L431 170 L402 0 Z M700 669 L804 669 L823 773 L719 773 L700 669 Z M336 669 L440 669 L459 773 L355 773 L336 669 Z M540 635 L587 635 L656 835 L545 835 L540 635 Z " />
<glyph glyph-name="alpha" unicode="&#x3b1;" horiz-adv-x="1047" d="M861 0 L978 0 L616 560 L511 560 L-50 0 L76 0 L185 110 L790 110 L861 0 Z M553 480 L741 186 L261 186 L553 480 Z " />
<glyph glyph-name="beta" unicode="&#x3b2;" horiz-adv-x="1040" d="M47 0 L725 0 C887 0 939 84 939 172 C939 228 910 273 837 288 C916 317 946 379 946 442 C946 509 905 560 789 560 L146 560 L47 0 Z M747 474 C819 474 840 449 840 412 C840 367 813 318 722 318 L202 318 L229 474 L747 474 Z M742 242 C814 242 835 217 835 180 C835 135 808 86 717 86 L161 86 L188 242 L742 242 Z " />
<glyph glyph-name="gamma" unicode="&#x3b3;" horiz-adv-x="946" d="M47 0 L146 0 L229 474 L930 474 L945 560 L146 560 L47 0 Z " />
<glyph glyph-name="delta" unicode="&#x3b4;" horiz-adv-x="1047" d="M616 560 L511 560 L-50 0 L978 0 L616 560 Z M553 481 L811 86 L157 86 L553 481 Z " />
<glyph glyph-name="epsilon" unicode="&#x3b5;" horiz-adv-x="992" d="M47 0 L862 0 L877 86 L161 86 L187 242 L820 242 L834 318 L202 318 L229 474 L946 474 L961 560 L146 560 L47 0 Z " />
<glyph glyph-name="zeta" unicode="&#x3b6;" horiz-adv-x="984" d="M6 0 L872 0 L887 86 L216 86 L943 493 L951 560 L110 560 L94 474 L739 474 L13 67 L6 0 Z " />
<glyph glyph-name="eta" unicode="&#x3b7;" horiz-adv-x="1081" d="M816 0 L915 0 L1014 560 L915 560 L874 323 L204 323 L245 560 L146 560 L47 0 L146 0 L187 237 L857 237 L816 0 Z " />
<glyph glyph-name="theta" unicode="&#x3b8;" horiz-adv-x="1108" d="M298 242 L773 242 L787 318 L313 318 L298 242 Z M618 -8 C923 -8 1037 152 1039 326 C1040 461 957 568 722 568 L469 568 C164 568 52 408 50 234 C48 99 130 -8 365 -8 L618 -8 Z M382 78 C208 78 154 150 154 242 C155 361 238 482 457 482 L706 482 C880 482 934 409 934 317 C934 201 851 78 631 78 L382 78 Z " />
<glyph glyph-name="iota" unicode="&#x3b9;" horiz-adv-x="312" d="M47 0 L146 0 L245 560 L146 560 L47 0 Z " />
<glyph glyph-name="kappa" unicode="&#x3ba;" horiz-adv-x="1069" d="M1031 560 L850 560 L183 213 L245 560 L146 560 L47 0 L146 0 L164 107 L453 258 L844 0 L1001 0 L541 304 L1031 560 Z " />
<glyph glyph-name="lambda" unicode="&#x3bb;" horiz-adv-x="1047" d="M510 560 L-50 0 L79 0 L552 480 L857 0 L978 0 L615 560 L510 560 Z " />
<glyph glyph-name="mu" unicode="&#x3bc;" horiz-adv-x="1200" d="M1032 560 L561 149 L234 560 L146 560 L47 0 L145 0 L221 429 L544 20 L1011 429 L935 0 L1034 0 L1133 560 L1032 560 Z " />
<glyph glyph-name="nu" unicode="&#x3bd;" horiz-adv-x="1082" d="M916 0 L1015 560 L916 560 L836 105 L240 560 L146 560 L47 0 L146 0 L226 456 L822 0 L916 0 Z " />
<glyph glyph-name="xi" unicode="&#x3be;" horiz-adv-x="994" d="M93 474 L949 474 L965 560 L109 560 L93 474 Z M881 86 L25 86 L10 0 L866 0 L881 86 Z M127 242 L831 242 L846 318 L142 318 L127 242 Z " />
<glyph glyph-name="omicron" unicode="&#x3bf;" horiz-adv-x="1108" d="M618 -8 C923 -8 1037 152 1039 326 C1040 461 957 568 722 568 L469 568 C164 568 52 408 50 234 C48 99 130 -8 365 -8 L618 -8 Z M382 78 C208 78 154 150 154 242 C155 361 238 482 457 482 L706 482 C880 482 934 409 934 317 C934 201 851 78 631 78 L382 78 Z " />
<glyph glyph-name="pi" unicode="&#x3c0;" horiz-adv-x="1081" d="M816 0 L915 0 L1014 560 L146 560 L47 0 L146 0 L229 474 L900 474 L816 0 Z " />
<glyph glyph-name="rho" unicode="&#x3c1;" horiz-adv-x="998" d="M47 0 L146 0 L181 205 L710 205 C905 205 970 305 970 410 C970 493 918 560 773 560 L146 560 L47 0 Z M755 474 C841 474 865 442 865 398 C865 345 833 291 722 291 L197 291 L229 474 L755 474 Z " />
<glyph glyph-name="uni03C2" unicode="&#x3c2;" horiz-adv-x="969" d="M95 489 L442 282 L21 71 L9 0 L840 0 L855 86 L226 86 L612 278 L290 474 L924 474 L939 560 L108 560 L95 489 Z " />
<glyph glyph-name="sigma" unicode="&#x3c3;" horiz-adv-x="969" d="M95 489 L442 282 L21 71 L9 0 L840 0 L855 86 L226 86 L612 278 L290 474 L924 474 L939 560 L108 560 L95 489 Z " />
<glyph glyph-name="tau" unicode="&#x3c4;" horiz-adv-x="998" d="M64 474 L474 474 L390 0 L489 0 L572 474 L982 474 L998 560 L80 560 L64 474 Z " />
<glyph glyph-name="upsilon" unicode="&#x3c5;" horiz-adv-x="1020" d="M402 0 L500 0 L530 170 L1060 560 L910 560 L488 243 L176 560 L39 560 L431 170 L402 0 Z " />
<glyph glyph-name="phi" unicode="&#x3c6;" horiz-adv-x="1083" d="M687 50 C939 50 1025 177 1025 318 C1025 424 956 510 768 510 L622 510 L638 600 L540 600 L524 510 L378 510 C128 510 40 380 40 241 C40 133 109 50 297 50 L442 50 L425 -40 L523 -40 L540 50 L687 50 Z M755 424 C880 424 919 373 919 307 C919 219 860 136 697 136 L556 136 L606 424 L755 424 Z M309 136 C183 136 145 187 145 253 C145 341 204 424 367 424 L508 424 L458 136 L309 136 Z " />
<glyph glyph-name="chi" unicode="&#x3c7;" horiz-adv-x="1021" d="M68 560 L426 282 L-35 0 L129 0 L498 229 L787 0 L937 0 L574 282 L1033 560 L868 560 L504 333 L218 560 L68 560 Z " />
<glyph glyph-name="psi" unicode="&#x3c8;" horiz-adv-x="1069" d="M426 0 L524 0 L543 115 L642 115 C900 115 993 218 1021 374 L1053 560 L954 560 L923 380 C904 272 852 201 658 201 L560 201 L623 560 L525 560 L461 201 L365 201 C174 201 144 274 162 379 L193 560 L95 560 L64 380 C37 226 91 115 350 115 L445 115 L426 0 Z " />
<glyph glyph-name="omega" unicode="&#x3c9;" horiz-adv-x="1121" d="M632 0 L999 0 L1015 86 L844 86 C979 145 1035 249 1035 358 C1035 475 960 568 751 568 L451 568 C177 568 80 423 80 270 C80 196 116 123 196 86 L19 86 L3 0 L369 0 L382 72 C223 94 172 175 172 262 C172 372 252 482 459 482 L720 482 C886 482 935 413 935 327 C935 212 860 108 646 72 L632 0 Z " />
<glyph glyph-name="iotadieresis" unicode="&#x3ca;" horiz-adv-x="312" d="M47 0 L146 0 L245 560 L146 560 L47 0 Z M290 666 L396 666 L415 773 L309 773 L290 666 Z M27 666 L133 666 L152 773 L45 773 L27 666 Z " />
<glyph glyph-name="upsilondieresis" unicode="&#x3cb;" horiz-adv-x="1020" d="M402 0 L500 0 L530 170 L1060 560 L910 560 L488 243 L176 560 L39 560 L431 170 L402 0 Z M647 666 L753 666 L772 773 L666 773 L647 666 Z M384 666 L490 666 L509 773 L402 773 L384 666 Z " />
<glyph glyph-name="omicrontonos" unicode="&#x3cc;" horiz-adv-x="1246" d="M756 -8 C1061 -8 1175 152 1177 326 C1178 461 1095 568 860 568 L607 568 C302 568 190 408 188 234 C186 99 268 -8 503 -8 L756 -8 Z M520 78 C346 78 292 150 292 242 C293 361 376 482 595 482 L844 482 C1018 482 1072 409 1072 317 C1072 201 989 78 769 78 L520 78 Z M55 360 L111 360 L179 560 L59 560 L55 360 Z " />
<glyph glyph-name="upsilontonos" unicode="&#x3cd;" horiz-adv-x="1199" d="M581 0 L679 0 L709 170 L1239 560 L1089 560 L667 243 L355 560 L218 560 L610 170 L581 0 Z M55 360 L111 360 L179 560 L59 560 L55 360 Z " />
<glyph glyph-name="omegatonos" unicode="&#x3ce;" horiz-adv-x="1241" d="M752 0 L1119 0 L1135 86 L964 86 C1099 145 1155 249 1155 358 C1155 475 1080 568 871 568 L571 568 C297 568 200 423 200 270 C200 196 236 123 316 86 L139 86 L123 0 L489 0 L502 72 C343 94 292 175 292 262 C292 372 372 482 579 482 L840 482 C1006 482 1055 413 1055 327 C1055 212 980 108 766 72 L752 0 Z M55 360 L111 360 L179 560 L59 560 L55 360 Z " />
<glyph glyph-name="uni0400" unicode="&#x400;" horiz-adv-x="1150" d="M57 0 L1015 0 L1033 100 L185 100 L220 305 L970 305 L987 395 L237 395 L273 600 L1121 600 L1140 700 L182 700 L57 0 Z M667 946 L546 946 L668 775 L736 775 L667 946 Z " />
<glyph glyph-name="uni0401" unicode="&#x401;" horiz-adv-x="1150" d="M57 0 L1015 0 L1033 100 L185 100 L220 305 L970 305 L987 395 L237 395 L273 600 L1121 600 L1140 700 L182 700 L57 0 Z M744 806 L850 806 L869 913 L763 913 L744 806 Z M481 806 L587 806 L606 913 L499 913 L481 806 Z " />
<glyph glyph-name="uni0402" unicode="&#x402;" horiz-adv-x="1299" d="M659 0 L966 0 C1169 0 1249 107 1249 229 C1249 323 1190 395 1035 395 L447 395 L483 600 L966 600 L984 700 L94 700 L76 600 L373 600 L266 -1 L376 -1 L431 305 L1017 305 C1106 305 1132 266 1132 219 C1132 157 1091 100 980 100 L678 100 L659 0 Z " />
<glyph glyph-name="uni0403" unicode="&#x403;" horiz-adv-x="1083" d="M57 0 L167 0 L273 600 L1102 600 L1121 700 L182 700 L57 0 Z M579 775 L654 775 L840 946 L710 946 L579 775 Z " />
<glyph glyph-name="uni0404" unicode="&#x404;" horiz-adv-x="1136" d="M956 305 L973 395 L195 395 C226 505 323 600 543 600 L1107 600 L1125 700 L551 700 C205 700 66 507 66 296 C66 130 167 0 435 0 L1000 0 L1017 100 L453 100 C252 100 185 190 184 305 L956 305 Z " />
<glyph glyph-name="uni0405" unicode="&#x405;" horiz-adv-x="1158" d="M800 100 L66 100 L47 0 L786 0 C987 0 1069 105 1069 229 C1069 323 1010 395 856 395 L327 395 C238 395 212 434 212 481 C212 543 252 600 364 600 L1099 600 L1117 700 L378 700 C177 700 95 595 95 471 C95 377 154 305 308 305 L837 305 C926 305 953 266 953 219 C953 157 912 100 800 100 L800 100 Z " />
<glyph glyph-name="uni0406" unicode="&#x406;" horiz-adv-x="343" d="M57 0 L167 0 L292 700 L182 700 L57 0 Z " />
<glyph glyph-name="uni0407" unicode="&#x407;" horiz-adv-x="343" d="M57 0 L167 0 L292 700 L182 700 L57 0 Z M330 806 L436 806 L455 913 L349 913 L330 806 Z M67 806 L173 806 L192 913 L85 913 L67 806 Z " />
<glyph glyph-name="uni0408" unicode="&#x408;" horiz-adv-x="1181" d="M306 -5 L626 -5 C916 -5 1025 112 1060 306 L1130 700 L1020 700 L952 327 C926 181 845 95 640 95 L326 95 C155 95 117 172 138 274 L148 326 L38 326 L28 275 C-1 123 65 -5 306 -5 L306 -5 Z " />
<glyph glyph-name="uni0409" unicode="&#x409;" horiz-adv-x="1787" d="M799 0 L1429 0 C1652 0 1742 114 1742 254 C1742 358 1680 440 1508 440 L988 440 L1034 700 L359 700 L204 206 C184 144 142 100 53 100 L-14 100 L-32 0 L34 0 C205 0 276 85 307 184 L436 600 L906 600 L799 0 Z M1444 100 L928 100 L970 340 L1487 340 C1593 340 1625 295 1625 239 C1625 165 1575 100 1444 100 L1444 100 Z " />
<glyph glyph-name="uni040A" unicode="&#x40a;" horiz-adv-x="1800" d="M812 0 L1443 0 C1666 0 1755 115 1755 255 C1755 358 1693 440 1522 440 L1002 440 L1048 700 L938 700 L892 440 L246 440 L292 700 L182 700 L57 0 L167 0 L228 340 L874 340 L812 0 Z M1457 100 L941 100 L984 340 L1500 340 C1606 340 1639 296 1639 239 C1639 166 1588 100 1457 100 L1457 100 Z " />
<glyph glyph-name="uni040B" unicode="&#x40b;" horiz-adv-x="1328" d="M1209 -1 L1242 188 C1263 304 1226 393 1046 393 L446 393 L482 600 L965 600 L984 700 L94 700 L75 600 L372 600 L265 -1 L375 -1 L427 293 L1029 293 C1126 293 1144 249 1132 182 L1099 -1 L1209 -1 Z " />
<glyph glyph-name="uni040C" unicode="&#x40c;" horiz-adv-x="1239" d="M554 775 L629 775 L815 946 L685 946 L554 775 Z M660 353 L1215 700 L1036 700 L561 400 L238 400 L292 700 L182 700 L57 0 L167 0 L219 300 L559 300 L1002 0 L1176 0 L660 353 Z " />
<glyph glyph-name="uni040D" unicode="&#x40d;" horiz-adv-x="1253" d="M709 946 L588 946 L710 775 L778 775 L709 946 Z M1068 571 L967 0 L1077 0 L1202 700 L1094 700 L190 129 L292 700 L182 700 L57 0 L165 0 L1068 571 Z " />
<glyph glyph-name="uni040E" unicode="&#x40e;" horiz-adv-x="1203" d="M701 853 C627 853 606 891 610 937 L551 937 C542 864 563 783 690 783 C817 783 866 863 885 937 L823 937 C811 891 774 853 701 853 L701 853 Z M386 0 L1272 700 L1107 700 L596 288 L218 700 L67 700 L513 224 L221 0 L386 0 Z " />
<glyph glyph-name="uni040F" unicode="&#x40f;" horiz-adv-x="1252" d="M984 100 L185 100 L292 700 L182 700 L57 0 L512 0 L484 -150 L594 -150 L622 0 L1076 0 L1201 700 L1091 700 L984 100 Z " />
<glyph glyph-name="uni0410" unicode="&#x410;" horiz-adv-x="1224" d="M1028 0 L1156 0 L736 700 L620 700 L-51 0 L89 0 L214 132 L949 132 L1028 0 Z M665 606 L894 223 L301 223 L665 606 Z " />
<glyph glyph-name="uni0411" unicode="&#x411;" horiz-adv-x="1186" d="M57 0 L815 0 C1016 0 1098 105 1098 229 C1098 323 1039 395 885 395 L237 395 L274 600 L1103 600 L1121 700 L182 700 L57 0 Z M221 305 L866 305 C955 305 981 266 981 219 C981 157 941 100 829 100 L186 100 L221 305 Z " />
<glyph glyph-name="uni0412" unicode="&#x412;" horiz-adv-x="1208" d="M57 0 L849 0 C1035 0 1108 103 1108 216 C1108 285 1072 342 987 360 C1079 394 1121 466 1121 555 C1121 636 1067 700 930 700 L182 700 L57 0 Z M873 305 C965 305 994 266 994 220 C994 160 951 100 839 100 L185 100 L220 305 L873 305 Z M1002 516 C1002 459 963 395 851 395 L237 395 L273 600 L883 600 C973 600 1002 563 1002 516 L1002 516 Z " />
<glyph glyph-name="uni0413" unicode="&#x413;" horiz-adv-x="1083" d="M57 0 L167 0 L273 600 L1102 600 L1121 700 L182 700 L57 0 Z " />
<glyph glyph-name="uni0414" unicode="&#x414;" horiz-adv-x="1200" d="M78 0 L969 0 L941 -150 L1051 -150 L1096 100 L1012 100 L1121 700 L359 700 L204 206 C184 142 148 100 58 100 L-14 100 L-59 -150 L51 -150 L78 0 Z M435 600 L991 600 L902 100 L223 100 C273 124 303 169 318 221 L435 600 Z " />
<glyph glyph-name="uni0415" unicode="&#x415;" horiz-adv-x="1150" d="M57 0 L1015 0 L1033 100 L185 100 L220 305 L970 305 L987 395 L237 395 L273 600 L1121 600 L1140 700 L182 700 L57 0 Z " />
<glyph glyph-name="uni0416" unicode="&#x416;" horiz-adv-x="1563" d="M1098 351 L1558 700 L1400 700 L1006 400 L848 400 L902 700 L792 700 L738 400 L568 400 L282 700 L138 700 L472 351 L-41 0 L128 0 L563 300 L719 300 L667 0 L777 0 L829 300 L999 300 L1330 0 L1486 0 L1098 351 Z " />
<glyph glyph-name="uni0417" unicode="&#x417;" horiz-adv-x="1217" d="M6 0 L858 0 C1044 0 1118 103 1118 216 C1118 285 1081 342 996 360 C1087 394 1130 466 1130 555 C1130 636 1076 700 939 700 L151 700 L132 600 L892 600 C982 600 1011 564 1011 516 C1011 459 971 395 861 395 L180 395 L163 305 L883 305 C974 305 1003 266 1003 220 C1003 159 961 100 849 100 L24 100 L6 0 Z " />
<glyph glyph-name="uni0418" unicode="&#x418;" horiz-adv-x="1253" d="M1068 571 L967 0 L1077 0 L1202 700 L1094 700 L190 129 L292 700 L182 700 L57 0 L165 0 L1068 571 Z " />
<glyph glyph-name="uni0419" unicode="&#x419;" horiz-adv-x="1253" d="M714 853 C640 853 619 891 623 937 L564 937 C555 864 576 783 703 783 C830 783 879 863 898 937 L836 937 C824 891 787 853 714 853 L714 853 Z M1068 571 L967 0 L1077 0 L1202 700 L1094 700 L190 129 L292 700 L182 700 L57 0 L165 0 L1068 571 Z " />
<glyph glyph-name="uni041A" unicode="&#x41a;" horiz-adv-x="1239" d="M660 353 L1215 700 L1036 700 L561 400 L238 400 L292 700 L182 700 L57 0 L167 0 L219 300 L559 300 L1002 0 L1176 0 L660 353 Z " />
<glyph glyph-name="uni041B" unicode="&#x41b;" horiz-adv-x="1207" d="M359 700 L204 206 C184 144 142 100 53 100 L-14 100 L-32 0 L34 0 C205 0 276 85 307 184 L435 600 L1026 600 L921 0 L1031 0 L1156 700 L359 700 Z " />
<glyph glyph-name="uni041C" unicode="&#x41c;" horiz-adv-x="1392" d="M1229 700 L661 176 L280 700 L182 700 L57 0 L167 0 L263 548 L640 27 L1202 548 L1106 0 L1216 0 L1341 700 L1229 700 Z " />
<glyph glyph-name="uni041D" unicode="&#x41d;" horiz-adv-x="1252" d="M966 0 L1076 0 L1201 700 L1091 700 L1037 400 L238 400 L292 700 L182 700 L57 0 L167 0 L219 300 L1018 300 L966 0 Z " />
<glyph glyph-name="uni041E" unicode="&#x41e;" horiz-adv-x="1293" d="M731 -10 C1094 -10 1231 185 1231 409 C1231 579 1124 710 853 710 L568 710 C207 710 66 518 66 294 C66 122 174 -10 446 -10 L731 -10 Z M467 90 C255 90 184 184 184 307 C184 457 275 610 562 610 L831 610 C1042 610 1113 517 1113 395 C1113 241 1022 90 737 90 L467 90 Z " />
<glyph glyph-name="uni041F" unicode="&#x41f;" horiz-adv-x="1252" d="M966 0 L1076 0 L1201 700 L182 700 L57 0 L167 0 L273 600 L1072 600 L966 0 Z " />
<glyph glyph-name="uni0420" unicode="&#x420;" horiz-adv-x="1147" d="M57 0 L167 0 L213 260 L835 260 C1058 260 1148 374 1148 514 C1148 618 1086 700 914 700 L182 700 L57 0 Z M893 600 C999 600 1031 555 1031 499 C1031 425 981 360 850 360 L231 360 L273 600 L893 600 Z " />
<glyph glyph-name="uni0421" unicode="&#x421;" horiz-adv-x="1136" d="M184 309 C184 451 267 600 543 600 L1107 600 L1125 700 L551 700 C205 700 66 507 66 296 C66 130 167 0 435 0 L1000 0 L1017 100 L453 100 C250 100 184 192 184 309 L184 309 Z " />
<glyph glyph-name="uni0422" unicode="&#x422;" horiz-adv-x="1136" d="M75 600 L560 600 L453 0 L563 0 L670 600 L1155 600 L1173 700 L94 700 L75 600 Z " />
<glyph glyph-name="uni0423" unicode="&#x423;" horiz-adv-x="1203" d="M386 0 L1272 700 L1107 700 L596 288 L218 700 L67 700 L513 224 L221 0 L386 0 Z " />
<glyph glyph-name="uni0424" unicode="&#x424;" horiz-adv-x="1252" d="M803 62 C1098 62 1208 219 1208 397 C1208 529 1120 638 903 638 L735 638 L755 750 L645 750 L625 638 L455 638 C162 638 50 477 50 301 C50 167 139 62 355 62 L522 62 L502 -50 L612 -50 L632 62 L803 62 Z M888 538 C1043 538 1090 467 1090 379 C1090 265 1003 162 808 162 L650 162 L717 538 L888 538 Z M169 320 C169 432 257 538 450 538 L607 538 L540 162 L371 162 C216 162 169 230 169 320 L169 320 Z " />
<glyph glyph-name="uni0425" unicode="&#x425;" horiz-adv-x="1178" d="M89 700 L509 352 L-41 0 L141 0 L588 294 L932 0 L1101 0 L676 352 L1221 700 L1039 700 L596 409 L258 700 L89 700 Z " />
<glyph glyph-name="uni0426" unicode="&#x426;" horiz-adv-x="1245" d="M949 100 L185 100 L292 700 L182 700 L57 0 L1014 0 L986 -150 L1096 -150 L1141 100 L1059 100 L1166 700 L1056 700 L949 100 Z " />
<glyph glyph-name="uni0427" unicode="&#x427;" horiz-adv-x="1176" d="M124 699 L81 462 C59 345 98 256 277 256 L935 256 L889 -1 L999 -1 L1125 699 L1015 699 L953 357 L294 357 C197 357 179 401 191 467 L234 699 L124 699 Z " />
<glyph glyph-name="uni0428" unicode="&#x428;" horiz-adv-x="1534" d="M1266 100 L780 100 L887 700 L777 700 L670 100 L185 100 L292 700 L182 700 L57 0 L1358 0 L1484 700 L1374 700 L1266 100 Z " />
<glyph glyph-name="uni0429" unicode="&#x429;" horiz-adv-x="1528" d="M1232 100 L763 100 L870 700 L760 700 L653 100 L185 100 L292 700 L182 700 L57 0 L1297 0 L1269 -150 L1379 -150 L1425 100 L1342 100 L1449 700 L1339 700 L1232 100 Z " />
<glyph glyph-name="uni042A" unicode="&#x42a;" horiz-adv-x="1299" d="M266 0 L941 0 C1164 0 1253 114 1253 254 C1253 358 1191 440 1020 440 L455 440 L501 700 L94 700 L76 600 L373 600 L266 0 Z M437 340 L998 340 C1104 340 1137 295 1137 239 C1137 165 1086 100 955 100 L395 100 L437 340 Z " />
<glyph glyph-name="uni042B" unicode="&#x42b;" horiz-adv-x="1487" d="M1204 0 L1314 0 L1439 700 L1329 700 L1204 0 Z M57 0 L790 0 C1013 0 1102 114 1102 254 C1102 358 1040 440 869 440 L246 440 L292 700 L182 700 L57 0 Z M228 340 L847 340 C953 340 986 295 986 239 C986 165 935 100 804 100 L186 100 L228 340 Z " />
<glyph glyph-name="uni042C" unicode="&#x42c;" horiz-adv-x="1147" d="M57 0 L790 0 C1013 0 1102 114 1102 254 C1102 358 1040 440 869 440 L246 440 L292 700 L182 700 L57 0 Z M228 340 L847 340 C953 340 986 295 986 239 C986 165 935 100 804 100 L186 100 L228 340 Z " />
<glyph glyph-name="uni042D" unicode="&#x42d;" horiz-adv-x="1136" d="M167 305 L944 305 C914 194 817 100 597 100 L33 100 L15 0 L589 0 C935 0 1074 193 1074 404 C1074 570 973 700 705 700 L140 700 L123 600 L687 600 C887 600 954 510 956 395 L184 395 L167 305 Z " />
<glyph glyph-name="uni042E" unicode="&#x42e;" horiz-adv-x="1803" d="M1241 -10 C1604 -10 1741 185 1741 409 C1741 579 1634 710 1363 710 L1125 710 C823 710 675 575 634 400 L238 400 L292 700 L182 700 L57 0 L167 0 L219 300 L623 300 L623 294 C623 122 732 -10 1004 -10 L1241 -10 Z M1025 90 C812 90 741 184 741 307 C741 457 832 610 1120 610 L1341 610 C1552 610 1623 517 1623 395 C1623 241 1532 90 1247 90 L1025 90 Z " />
<glyph glyph-name="uni042F" unicode="&#x42f;" horiz-adv-x="1227" d="M1176 700 L457 700 C237 700 145 587 145 448 C145 345 209 263 379 263 L421 263 L-56 0 L129 0 L594 262 L988 262 L940 0 L1050 0 L1176 700 Z M261 459 C261 535 311 600 446 600 L1048 600 L1005 358 L399 358 C294 358 261 403 261 459 L261 459 Z " />
<glyph glyph-name="uni0430" unicode="&#x430;" horiz-adv-x="1047" d="M861 0 L978 0 L616 560 L511 560 L-50 0 L76 0 L185 110 L790 110 L861 0 Z M553 480 L741 186 L261 186 L553 480 Z " />
<glyph glyph-name="uni0431" unicode="&#x431;" horiz-adv-x="1019" d="M47 0 L696 0 C874 0 931 89 931 186 C931 261 883 317 753 317 L203 317 L230 474 L930 474 L947 560 L148 560 L47 0 Z M190 243 L735 243 C806 243 828 214 828 179 C828 132 799 86 705 86 L162 86 L190 243 Z " />
<glyph glyph-name="uni0432" unicode="&#x432;" horiz-adv-x="1040" d="M47 0 L725 0 C887 0 939 84 939 172 C939 228 910 273 837 288 C916 317 946 379 946 442 C946 509 905 560 789 560 L146 560 L47 0 Z M747 474 C819 474 840 449 840 412 C840 367 813 318 722 318 L202 318 L229 474 L747 474 Z M742 242 C814 242 835 217 835 180 C835 135 808 86 717 86 L161 86 L188 242 L742 242 Z " />
<glyph glyph-name="uni0433" unicode="&#x433;" horiz-adv-x="946" d="M47 0 L146 0 L229 474 L930 474 L945 560 L146 560 L47 0 Z " />
<glyph glyph-name="uni0434" unicode="&#x434;" horiz-adv-x="1042" d="M80 0 L827 0 L804 -120 L902 -120 L940 86 L869 86 L953 560 L305 560 L178 164 C163 117 134 86 59 86 L-4 86 L-42 -120 L57 -120 L80 0 Z M374 474 L840 474 L771 86 L208 86 C249 107 269 143 283 185 L374 474 Z " />
<glyph glyph-name="uni0435" unicode="&#x435;" horiz-adv-x="992" d="M47 0 L862 0 L877 86 L161 86 L187 242 L820 242 L834 318 L202 318 L229 474 L946 474 L961 560 L146 560 L47 0 Z " />
<glyph glyph-name="uni0436" unicode="&#x436;" horiz-adv-x="1343" d="M935 281 L1317 560 L1181 560 L860 323 L719 323 L760 560 L663 560 L621 323 L480 323 L241 560 L107 560 L388 281 L-37 0 L109 0 L466 237 L605 237 L563 0 L661 0 L702 237 L843 237 L1118 0 L1263 0 L935 281 Z " />
<glyph glyph-name="uni0437" unicode="&#x437;" horiz-adv-x="1043" d="M17 86 L1 0 L731 0 C893 0 944 84 944 172 C944 228 916 273 843 288 C921 317 951 379 951 442 C951 509 910 560 794 560 L119 560 L102 474 L752 474 C825 474 845 449 845 412 C845 367 818 318 727 318 L146 318 L132 242 L747 242 C820 242 840 217 840 180 C840 135 813 86 722 86 L17 86 Z " />
<glyph glyph-name="uni0438" unicode="&#x438;" horiz-adv-x="1082" d="M896 449 L817 0 L916 0 L1015 560 L916 560 L166 111 L245 560 L146 560 L47 0 L145 0 L896 449 Z " />
<glyph glyph-name="uni0439" unicode="&#x439;" horiz-adv-x="1082" d="M605 713 C531 713 510 751 514 797 L455 797 C446 724 467 643 594 643 C721 643 770 723 789 797 L727 797 C715 751 678 713 605 713 L605 713 Z M896 449 L817 0 L916 0 L1015 560 L916 560 L166 111 L245 560 L146 560 L47 0 L145 0 L896 449 Z " />
<glyph glyph-name="uni043A" unicode="&#x43a;" horiz-adv-x="1070" d="M561 283 L1026 560 L864 560 L472 323 L204 323 L245 560 L146 560 L47 0 L146 0 L187 237 L469 237 L839 0 L1000 0 L561 283 Z " />
<glyph glyph-name="uni043B" unicode="&#x43b;" horiz-adv-x="1051" d="M983 560 L305 560 L179 166 C163 115 132 86 61 86 L-4 86 L-19 0 L56 0 C190 0 244 63 271 148 L374 474 L869 474 L786 0 L884 0 L983 560 Z " />
<glyph glyph-name="uni043C" unicode="&#x43c;" horiz-adv-x="1200" d="M1032 560 L561 149 L234 560 L146 560 L47 0 L145 0 L221 429 L544 20 L1011 429 L935 0 L1034 0 L1133 560 L1032 560 Z " />
<glyph glyph-name="uni043D" unicode="&#x43d;" horiz-adv-x="1081" d="M816 0 L915 0 L1014 560 L915 560 L874 323 L204 323 L245 560 L146 560 L47 0 L146 0 L187 237 L857 237 L816 0 Z " />
<glyph glyph-name="uni043E" unicode="&#x43e;" horiz-adv-x="1108" d="M618 -8 C923 -8 1037 152 1039 326 C1040 461 957 568 722 568 L469 568 C164 568 52 408 50 234 C48 99 130 -8 365 -8 L618 -8 Z M382 78 C208 78 154 150 154 242 C155 361 238 482 457 482 L706 482 C880 482 934 409 934 317 C934 201 851 78 631 78 L382 78 Z " />
<glyph glyph-name="uni043F" unicode="&#x43f;" horiz-adv-x="1081" d="M816 0 L915 0 L1014 560 L146 560 L47 0 L146 0 L229 474 L900 474 L816 0 Z " />
<glyph glyph-name="uni0440" unicode="&#x440;" horiz-adv-x="998" d="M47 0 L146 0 L181 205 L710 205 C905 205 970 305 970 410 C970 493 918 560 773 560 L146 560 L47 0 Z M755 474 C841 474 865 442 865 398 C865 345 833 291 722 291 L197 291 L229 474 L755 474 Z " />
<glyph glyph-name="uni0441" unicode="&#x441;" horiz-adv-x="974" d="M155 244 C155 361 240 474 452 474 L930 474 L947 560 L458 560 C157 560 50 400 50 232 C50 102 132 0 357 0 L846 0 L862 86 L368 86 C208 86 155 151 155 244 L155 244 Z " />
<glyph glyph-name="uni0442" unicode="&#x442;" horiz-adv-x="998" d="M64 474 L474 474 L390 0 L489 0 L572 474 L982 474 L998 560 L80 560 L64 474 Z " />
<glyph glyph-name="uni0443" unicode="&#x443;" horiz-adv-x="1024" d="M324 0 L1066 560 L918 560 L498 237 L176 560 L41 560 L423 181 L175 0 L324 0 Z " />
<glyph glyph-name="uni0444" unicode="&#x444;" horiz-adv-x="1083" d="M687 50 C939 50 1025 177 1025 318 C1025 424 956 510 768 510 L622 510 L638 600 L540 600 L524 510 L378 510 C128 510 40 380 40 241 C40 133 109 50 297 50 L442 50 L425 -40 L523 -40 L540 50 L687 50 Z M755 424 C880 424 919 373 919 307 C919 219 860 136 697 136 L556 136 L606 424 L755 424 Z M309 136 C183 136 145 187 145 253 C145 341 204 424 367 424 L508 424 L458 136 L309 136 Z " />
<glyph glyph-name="uni0445" unicode="&#x445;" horiz-adv-x="1021" d="M68 560 L426 282 L-35 0 L129 0 L498 229 L787 0 L937 0 L574 282 L1033 560 L868 560 L504 333 L218 560 L68 560 Z " />
<glyph glyph-name="uni0446" unicode="&#x446;" horiz-adv-x="1072" d="M801 86 L161 86 L245 560 L146 560 L47 0 L857 0 L834 -120 L932 -120 L970 86 L899 86 L983 560 L885 560 L801 86 Z " />
<glyph glyph-name="uni0447" unicode="&#x447;" horiz-adv-x="1015" d="M800 288 L235 288 C164 288 152 321 161 372 L194 559 L95 559 L61 365 C44 272 73 202 218 202 L784 202 L749 -1 L847 -1 L947 559 L849 559 L800 288 Z " />
<glyph glyph-name="uni0448" unicode="&#x448;" horiz-adv-x="1321" d="M1072 86 L664 86 L749 560 L651 560 L566 86 L161 86 L245 560 L146 560 L47 0 L1155 0 L1254 560 L1156 560 L1072 86 Z " />
<glyph glyph-name="uni0449" unicode="&#x449;" horiz-adv-x="1313" d="M1042 86 L650 86 L734 560 L636 560 L552 86 L161 86 L245 560 L146 560 L47 0 L1098 0 L1075 -120 L1173 -120 L1211 86 L1140 86 L1224 560 L1126 560 L1042 86 Z " />
<glyph glyph-name="uni044A" unicode="&#x44a;" horiz-adv-x="1136" d="M431 560 L80 560 L64 474 L317 474 L233 0 L810 0 C1005 0 1071 100 1071 205 C1071 288 1019 355 874 355 L395 355 L431 560 Z M823 86 L347 86 L379 269 L856 269 C941 269 966 236 966 193 C966 139 934 86 823 86 L823 86 Z " />
<glyph glyph-name="uni044B" unicode="&#x44b;" horiz-adv-x="1307" d="M1045 0 L1144 0 L1243 560 L1144 560 L1045 0 Z M245 560 L146 560 L47 0 L673 0 C868 0 934 100 934 205 C934 288 882 355 737 355 L209 355 L245 560 Z M193 269 L719 269 C804 269 829 236 829 193 C829 139 797 86 686 86 L161 86 L193 269 Z " />
<glyph glyph-name="uni044C" unicode="&#x44c;" horiz-adv-x="998" d="M245 560 L146 560 L47 0 L673 0 C868 0 934 100 934 205 C934 288 882 355 737 355 L209 355 L245 560 Z M193 269 L719 269 C804 269 829 236 829 193 C829 139 797 86 686 86 L161 86 L193 269 Z " />
<glyph glyph-name="uni044D" unicode="&#x44d;" horiz-adv-x="975" d="M137 242 L787 242 C757 155 669 86 503 86 L25 86 L8 0 L497 0 C798 0 905 160 905 328 C905 458 823 560 598 560 L109 560 L93 474 L587 474 C746 474 799 410 800 318 L151 318 L137 242 Z " />
<glyph glyph-name="uni044E" unicode="&#x44e;" horiz-adv-x="1546" d="M1056 -8 C1361 -8 1475 152 1477 326 C1478 461 1395 568 1160 568 L947 568 C695 568 575 459 539 323 L204 323 L245 560 L146 560 L47 0 L146 0 L187 237 L528 237 L528 234 C526 99 608 -8 843 -8 L1056 -8 Z M860 78 C686 78 632 150 632 242 C633 361 716 482 935 482 L1144 482 C1318 482 1372 409 1372 317 C1372 201 1289 78 1069 78 L860 78 Z " />
<glyph glyph-name="uni044F" unicode="&#x44f;" horiz-adv-x="1061" d="M996 560 L378 560 C183 560 118 460 118 353 C118 271 177 208 315 208 L349 208 L-47 0 L121 0 L507 207 L832 207 L796 0 L895 0 L996 560 Z M880 474 L848 289 L333 289 C247 289 222 324 222 366 C222 419 256 474 366 474 L880 474 Z " />
<glyph glyph-name="uni0450" unicode="&#x450;" horiz-adv-x="992" d="M47 0 L862 0 L877 86 L161 86 L187 242 L820 242 L834 318 L202 318 L229 474 L946 474 L961 560 L146 560 L47 0 Z M565 806 L444 806 L566 635 L634 635 L565 806 Z " />
<glyph glyph-name="uni0451" unicode="&#x451;" horiz-adv-x="992" d="M47 0 L862 0 L877 86 L161 86 L187 242 L820 242 L834 318 L202 318 L229 474 L946 474 L961 560 L146 560 L47 0 Z M642 666 L748 666 L767 773 L661 773 L642 666 Z M379 666 L485 666 L504 773 L397 773 L379 666 Z " />
<glyph glyph-name="uni0452" unicode="&#x452;" horiz-adv-x="1136" d="M569 0 L833 0 C1011 0 1068 89 1068 186 C1068 261 1020 317 890 317 L389 317 L416 474 L822 474 L839 560 L82 560 L65 474 L318 474 L233 -1 L332 -1 L376 243 L872 243 C943 243 965 214 965 179 C965 132 936 86 842 86 L585 86 L569 0 Z " />
<glyph glyph-name="uni0453" unicode="&#x453;" horiz-adv-x="946" d="M47 0 L146 0 L229 474 L930 474 L945 560 L146 560 L47 0 Z M484 635 L559 635 L745 806 L615 806 L484 635 Z " />
<glyph glyph-name="uni0454" unicode="&#x454;" horiz-adv-x="975" d="M804 242 L818 318 L167 318 C198 404 285 474 452 474 L930 474 L947 560 L458 560 C157 560 50 400 50 232 C50 102 132 0 357 0 L846 0 L862 86 L368 86 C209 86 156 150 155 242 L804 242 Z " />
<glyph glyph-name="uni0455" unicode="&#x455;" horiz-adv-x="991" d="M676 86 L50 86 L34 0 L667 0 C844 0 901 89 901 186 C901 261 854 317 724 317 L265 317 C194 317 173 346 173 381 C173 429 202 474 295 474 L921 474 L938 560 L305 560 C127 560 70 471 70 375 C70 299 117 243 248 243 L705 243 C777 243 798 214 798 179 C798 132 769 86 676 86 L676 86 Z " />
<glyph glyph-name="uni0456" unicode="&#x456;" horiz-adv-x="312" d="M47 0 L146 0 L245 560 L146 560 L47 0 Z " />
<glyph glyph-name="uni0457" unicode="&#x457;" horiz-adv-x="312" d="M47 0 L146 0 L245 560 L146 560 L47 0 Z M290 666 L396 666 L415 773 L309 773 L290 666 Z M27 666 L133 666 L152 773 L45 773 L27 666 Z " />
<glyph glyph-name="uni0458" unicode="&#x458;" horiz-adv-x="1000" d="M253 -4 L541 -4 C776 -4 868 88 896 245 L952 560 L854 560 L800 261 C779 147 720 82 548 82 L260 82 C127 82 101 141 115 219 L123 262 L26 262 L18 220 C-5 98 45 -4 253 -4 L253 -4 Z " />
<glyph glyph-name="uni0459" unicode="&#x459;" horiz-adv-x="1550" d="M882 560 L305 560 L179 166 C163 115 132 86 61 86 L-4 86 L-19 0 L56 0 C190 0 244 63 271 148 L374 474 L768 474 L685 0 L1225 0 C1420 0 1486 100 1486 205 C1486 288 1434 355 1289 355 L846 355 L882 560 Z M831 269 L1271 269 C1356 269 1381 236 1381 193 C1381 139 1349 86 1238 86 L798 86 L831 269 Z " />
<glyph glyph-name="uni045A" unicode="&#x45a;" horiz-adv-x="1553" d="M885 560 L787 560 L750 355 L209 355 L245 560 L146 560 L47 0 L146 0 L193 269 L735 269 L688 0 L1228 0 C1423 0 1489 100 1489 205 C1489 288 1437 355 1292 355 L849 355 L885 560 Z M1241 86 L801 86 L833 269 L1274 269 C1359 269 1384 236 1384 193 C1384 139 1352 86 1241 86 L1241 86 Z " />
<glyph glyph-name="uni045B" unicode="&#x45b;" horiz-adv-x="1152" d="M372 231 L889 231 C961 231 973 197 963 146 L937 -1 L1036 -1 L1063 153 C1080 247 1051 316 907 316 L388 316 L415 474 L822 474 L837 560 L80 560 L64 474 L317 474 L232 -1 L330 -1 L372 231 Z " />
<glyph glyph-name="uni045C" unicode="&#x45c;" horiz-adv-x="1070" d="M448 635 L523 635 L709 806 L579 806 L448 635 Z M561 283 L1026 560 L864 560 L472 323 L204 323 L245 560 L146 560 L47 0 L146 0 L187 237 L469 237 L839 0 L1000 0 L561 283 Z " />
<glyph glyph-name="uni045D" unicode="&#x45d;" horiz-adv-x="1082" d="M599 806 L478 806 L600 635 L668 635 L599 806 Z M896 449 L817 0 L916 0 L1015 560 L916 560 L166 111 L245 560 L146 560 L47 0 L145 0 L896 449 Z " />
<glyph glyph-name="uni045E" unicode="&#x45e;" horiz-adv-x="1024" d="M586 713 C512 713 491 751 495 797 L436 797 C427 724 448 643 575 643 C702 643 751 723 770 797 L708 797 C696 751 659 713 586 713 L586 713 Z M324 0 L1066 560 L918 560 L498 237 L176 560 L41 560 L423 181 L175 0 L324 0 Z " />
<glyph glyph-name="uni045F" unicode="&#x45f;" horiz-adv-x="1081" d="M831 86 L161 86 L245 560 L146 560 L47 0 L433 0 L409 -120 L507 -120 L530 0 L915 0 L1014 560 L915 560 L831 86 Z " />
<glyph glyph-name="uni0490" unicode="&#x490;" horiz-adv-x="1083" d="M1011 700 L182 700 L57 0 L167 0 L273 600 L1102 600 L1147 850 L1037 850 L1011 700 Z " />
<glyph glyph-name="uni0491" unicode="&#x491;" horiz-adv-x="946" d="M847 560 L146 560 L47 0 L146 0 L229 474 L930 474 L966 680 L868 680 L847 560 Z " />
<glyph glyph-name="uni1E00" unicode="&#x1e00;" horiz-adv-x="1224" d="M1028 0 L1156 0 L736 700 L620 700 L-51 0 L89 0 L214 132 L949 132 L1028 0 Z M665 606 L894 223 L301 223 L665 606 Z M466 -165 C466 -131 496 -103 530 -103 C559 -103 581 -126 581 -155 C581 -190 550 -217 517 -217 C487 -217 466 -194 466 -165 L466 -165 Z M402 -169 C402 -227 445 -272 512 -272 C585 -272 645 -218 645 -150 C645 -92 601 -48 535 -48 C461 -48 402 -101 402 -169 L402 -169 Z " />
<glyph glyph-name="uni1E01" unicode="&#x1e01;" horiz-adv-x="1047" d="M861 0 L978 0 L616 560 L511 560 L-50 0 L76 0 L185 110 L790 110 L861 0 Z M553 480 L741 186 L261 186 L553 480 Z M376 -165 C376 -131 406 -103 440 -103 C469 -103 491 -126 491 -155 C491 -190 460 -217 427 -217 C397 -217 376 -194 376 -165 L376 -165 Z M312 -169 C312 -227 355 -272 422 -272 C495 -272 555 -218 555 -150 C555 -92 511 -48 445 -48 C371 -48 312 -101 312 -169 L312 -169 Z " />
<glyph glyph-name="uni1E02" unicode="&#x1e02;" horiz-adv-x="1208" d="M57 0 L849 0 C1035 0 1108 103 1108 216 C1108 285 1072 342 987 360 C1079 394 1121 466 1121 555 C1121 636 1067 700 930 700 L182 700 L57 0 Z M873 305 C965 305 994 266 994 220 C994 160 951 100 839 100 L185 100 L220 305 L873 305 Z M1002 516 C1002 459 963 395 851 395 L237 395 L273 600 L883 600 C973 600 1002 563 1002 516 L1002 516 Z M609 806 L714 806 L733 913 L628 913 L609 806 Z " />
<glyph glyph-name="uni1E03" unicode="&#x1e03;" horiz-adv-x="1040" d="M47 0 L725 0 C887 0 939 84 939 172 C939 228 910 273 837 288 C916 317 946 379 946 442 C946 509 905 560 789 560 L146 560 L47 0 Z M747 474 C819 474 840 449 840 412 C840 367 813 318 722 318 L202 318 L229 474 L747 474 Z M742 242 C814 242 835 217 835 180 C835 135 808 86 717 86 L161 86 L188 242 L742 242 Z M501 666 L606 666 L625 773 L520 773 L501 666 Z " />
<glyph glyph-name="uni1E04" unicode="&#x1e04;" horiz-adv-x="1208" d="M57 0 L849 0 C1035 0 1108 103 1108 216 C1108 285 1072 342 987 360 C1079 394 1121 466 1121 555 C1121 636 1067 700 930 700 L182 700 L57 0 Z M873 305 C965 305 994 266 994 220 C994 160 951 100 839 100 L185 100 L220 305 L873 305 Z M1002 516 C1002 459 963 395 851 395 L237 395 L273 600 L883 600 C973 600 1002 563 1002 516 L1002 516 Z M468 -215 L573 -215 L592 -108 L487 -108 L468 -215 Z " />
<glyph glyph-name="uni1E05" unicode="&#x1e05;" horiz-adv-x="1040" d="M47 0 L725 0 C887 0 939 84 939 172 C939 228 910 273 837 288 C916 317 946 379 946 442 C946 509 905 560 789 560 L146 560 L47 0 Z M747 474 C819 474 840 449 840 412 C840 367 813 318 722 318 L202 318 L229 474 L747 474 Z M742 242 C814 242 835 217 835 180 C835 135 808 86 717 86 L161 86 L188 242 L742 242 Z M383 -215 L488 -215 L507 -108 L402 -108 L383 -215 Z " />
<glyph glyph-name="uni1E06" unicode="&#x1e06;" horiz-adv-x="1208" d="M57 0 L849 0 C1035 0 1108 103 1108 216 C1108 285 1072 342 987 360 C1079 394 1121 466 1121 555 C1121 636 1067 700 930 700 L182 700 L57 0 Z M873 305 C965 305 994 266 994 220 C994 160 951 100 839 100 L185 100 L220 305 L873 305 Z M1002 516 C1002 459 963 395 851 395 L237 395 L273 600 L883 600 C973 600 1002 563 1002 516 L1002 516 Z M339 -197 L709 -197 L722 -125 L352 -125 L339 -197 Z " />
<glyph glyph-name="uni1E07" unicode="&#x1e07;" horiz-adv-x="1040" d="M47 0 L725 0 C887 0 939 84 939 172 C939 228 910 273 837 288 C916 317 946 379 946 442 C946 509 905 560 789 560 L146 560 L47 0 Z M747 474 C819 474 840 449 840 412 C840 367 813 318 722 318 L202 318 L229 474 L747 474 Z M742 242 C814 242 835 217 835 180 C835 135 808 86 717 86 L161 86 L188 242 L742 242 Z M254 -197 L624 -197 L637 -125 L267 -125 L254 -197 Z " />
<glyph glyph-name="uni1E08" unicode="&#x1e08;" horiz-adv-x="1136" d="M480 -115 L509 -115 C561 -115 590 -126 590 -157 C590 -204 537 -217 487 -217 C451 -217 417 -207 401 -196 L391 -245 C416 -259 458 -271 503 -271 C582 -270 666 -245 666 -152 C666 -86 600 -64 541 -70 L573 0 L1000 0 L1017 100 L453 100 C250 100 184 192 184 309 C184 451 267 600 543 600 L1107 600 L1125 700 L551 700 C205 700 66 507 66 296 C66 130 167 0 435 0 L532 0 L480 -115 Z M613 775 L688 775 L874 946 L744 946 L613 775 Z " />
<glyph glyph-name="uni1E09" unicode="&#x1e09;" horiz-adv-x="974" d="M389 -115 L418 -115 C470 -115 499 -126 499 -157 C499 -204 446 -217 396 -217 C360 -217 326 -207 310 -196 L300 -245 C325 -259 367 -271 412 -271 C491 -270 575 -245 575 -152 C575 -86 509 -64 450 -70 L482 0 L846 0 L862 86 L368 86 C208 86 155 151 155 244 C155 361 240 474 452 474 L930 474 L947 560 L458 560 C157 560 50 400 50 232 C50 102 132 0 357 0 L441 0 L389 -115 Z M499 635 L574 635 L760 806 L630 806 L499 635 Z " />
<glyph glyph-name="uni1E0A" unicode="&#x1e0a;" horiz-adv-x="1204" d="M57 0 L657 0 C1002 0 1141 193 1141 404 C1141 570 1040 700 772 700 L182 700 L57 0 Z M754 600 C957 600 1024 508 1024 391 C1024 249 941 100 665 100 L183 100 L272 600 L754 600 Z M617 806 L722 806 L741 913 L636 913 L617 806 Z " />
<glyph glyph-name="uni1E0B" unicode="&#x1e0b;" horiz-adv-x="1037" d="M47 0 L560 0 C861 0 968 160 968 328 C968 457 885 560 661 560 L148 560 L47 0 Z M651 474 C810 474 863 409 863 316 C863 199 778 86 566 86 L162 86 L229 474 L651 474 Z M515 666 L620 666 L639 773 L534 773 L515 666 Z " />
<glyph glyph-name="uni1E0C" unicode="&#x1e0c;" horiz-adv-x="1204" d="M57 0 L657 0 C1002 0 1141 193 1141 404 C1141 570 1040 700 772 700 L182 700 L57 0 Z M754 600 C957 600 1024 508 1024 391 C1024 249 941 100 665 100 L183 100 L272 600 L754 600 Z M437 -215 L542 -215 L561 -108 L456 -108 L437 -215 Z " />
<glyph glyph-name="uni1E0D" unicode="&#x1e0d;" horiz-adv-x="1037" d="M47 0 L560 0 C861 0 968 160 968 328 C968 457 885 560 661 560 L148 560 L47 0 Z M651 474 C810 474 863 409 863 316 C863 199 778 86 566 86 L162 86 L229 474 L651 474 Z M359 -215 L464 -215 L483 -108 L378 -108 L359 -215 Z " />
<glyph glyph-name="uni1E0E" unicode="&#x1e0e;" horiz-adv-x="1204" d="M57 0 L657 0 C1002 0 1141 193 1141 404 C1141 570 1040 700 772 700 L182 700 L57 0 Z M754 600 C957 600 1024 508 1024 391 C1024 249 941 100 665 100 L183 100 L272 600 L754 600 Z M308 -197 L678 -197 L691 -125 L321 -125 L308 -197 Z " />
<glyph glyph-name="uni1E0F" unicode="&#x1e0f;" horiz-adv-x="1037" d="M47 0 L560 0 C861 0 968 160 968 328 C968 457 885 560 661 560 L148 560 L47 0 Z M651 474 C810 474 863 409 863 316 C863 199 778 86 566 86 L162 86 L229 474 L651 474 Z M230 -197 L600 -197 L613 -125 L243 -125 L230 -197 Z " />
<glyph glyph-name="uni1E10" unicode="&#x1e10;" horiz-adv-x="1204" d="M57 0 L657 0 C1002 0 1141 193 1141 404 C1141 570 1040 700 772 700 L182 700 L57 0 Z M754 600 C957 600 1024 508 1024 391 C1024 249 941 100 665 100 L183 100 L272 600 L754 600 Z M441 -215 L480 -215 L411 -326 L459 -326 L545 -207 L563 -108 L460 -108 L441 -215 Z " />
<glyph glyph-name="uni1E11" unicode="&#x1e11;" horiz-adv-x="1037" d="M47 0 L560 0 C861 0 968 160 968 328 C968 457 885 560 661 560 L148 560 L47 0 Z M651 474 C810 474 863 409 863 316 C863 199 778 86 566 86 L162 86 L229 474 L651 474 Z M363 -215 L402 -215 L333 -326 L381 -326 L467 -207 L485 -108 L382 -108 L363 -215 Z " />
<glyph glyph-name="uni1E12" unicode="&#x1e12;" horiz-adv-x="1204" d="M57 0 L657 0 C1002 0 1141 193 1141 404 C1141 570 1040 700 772 700 L182 700 L57 0 Z M754 600 C957 600 1024 508 1024 391 C1024 249 941 100 665 100 L183 100 L272 600 L754 600 Z M305 -246 L377 -246 L506 -131 L593 -246 L661 -246 L578 -75 L451 -75 L305 -246 Z " />
<glyph glyph-name="uni1E13" unicode="&#x1e13;" horiz-adv-x="1037" d="M47 0 L560 0 C861 0 968 160 968 328 C968 457 885 560 661 560 L148 560 L47 0 Z M651 474 C810 474 863 409 863 316 C863 199 778 86 566 86 L162 86 L229 474 L651 474 Z M227 -246 L299 -246 L428 -131 L515 -246 L583 -246 L500 -75 L373 -75 L227 -246 Z " />
<glyph glyph-name="uni1E14" unicode="&#x1e14;" horiz-adv-x="1150" d="M57 0 L1015 0 L1033 100 L185 100 L220 305 L970 305 L987 395 L237 395 L273 600 L1121 600 L1140 700 L182 700 L57 0 Z M700 1131 L579 1131 L701 960 L769 960 L700 1131 Z M485 824 L855 824 L868 896 L498 896 L485 824 Z " />
<glyph glyph-name="uni1E15" unicode="&#x1e15;" horiz-adv-x="992" d="M47 0 L862 0 L877 86 L161 86 L187 242 L820 242 L834 318 L202 318 L229 474 L946 474 L961 560 L146 560 L47 0 Z M598 991 L477 991 L599 820 L667 820 L598 991 Z M383 684 L753 684 L766 756 L396 756 L383 684 Z " />
<glyph glyph-name="uni1E16" unicode="&#x1e16;" horiz-adv-x="1150" d="M57 0 L1015 0 L1033 100 L185 100 L220 305 L970 305 L987 395 L237 395 L273 600 L1121 600 L1140 700 L182 700 L57 0 Z M615 960 L690 960 L876 1131 L746 1131 L615 960 Z M485 824 L855 824 L868 896 L498 896 L485 824 Z " />
<glyph glyph-name="uni1E17" unicode="&#x1e17;" horiz-adv-x="992" d="M47 0 L862 0 L877 86 L161 86 L187 242 L820 242 L834 318 L202 318 L229 474 L946 474 L961 560 L146 560 L47 0 Z M513 820 L588 820 L774 991 L644 991 L513 820 Z M383 684 L753 684 L766 756 L396 756 L383 684 Z " />
<glyph glyph-name="uni1E18" unicode="&#x1e18;" horiz-adv-x="1150" d="M57 0 L1015 0 L1033 100 L185 100 L220 305 L970 305 L987 395 L237 395 L273 600 L1121 600 L1140 700 L182 700 L57 0 Z M302 -246 L374 -246 L503 -131 L590 -246 L658 -246 L575 -75 L448 -75 L302 -246 Z " />
<glyph glyph-name="uni1E19" unicode="&#x1e19;" horiz-adv-x="992" d="M47 0 L862 0 L877 86 L161 86 L187 242 L820 242 L834 318 L202 318 L229 474 L946 474 L961 560 L146 560 L47 0 Z M224 -246 L296 -246 L425 -131 L512 -246 L580 -246 L497 -75 L370 -75 L224 -246 Z " />
<glyph glyph-name="uni1E1A" unicode="&#x1e1a;" horiz-adv-x="1150" d="M57 0 L1015 0 L1033 100 L185 100 L220 305 L970 305 L987 395 L237 395 L273 600 L1121 600 L1140 700 L182 700 L57 0 Z M626 -87 C612 -139 594 -150 570 -150 C529 -150 497 -94 435 -94 C379 -94 337 -127 311 -235 L366 -235 C379 -183 397 -171 422 -171 C462 -171 494 -228 555 -228 C612 -228 655 -195 681 -87 L626 -87 Z " />
<glyph glyph-name="uni1E1B" unicode="&#x1e1b;" horiz-adv-x="992" d="M47 0 L862 0 L877 86 L161 86 L187 242 L820 242 L834 318 L202 318 L229 474 L946 474 L961 560 L146 560 L47 0 Z M548 -87 C534 -139 516 -150 492 -150 C451 -150 419 -94 357 -94 C301 -94 259 -127 233 -235 L288 -235 C301 -183 319 -171 344 -171 C384 -171 416 -228 477 -228 C534 -228 577 -195 603 -87 L548 -87 Z " />
<glyph glyph-name="uni1E1C" unicode="&#x1e1c;" horiz-adv-x="1150" d="M57 0 L502 0 L450 -115 L479 -115 C531 -115 560 -126 560 -157 C560 -204 507 -217 457 -217 C421 -217 387 -207 371 -196 L361 -245 C386 -259 428 -271 473 -271 C552 -270 636 -245 636 -152 C636 -86 570 -64 511 -70 L543 0 L1015 0 L1033 100 L185 100 L220 305 L970 305 L987 395 L237 395 L273 600 L1121 600 L1140 700 L182 700 L57 0 Z M673 853 C599 853 578 891 582 937 L523 937 C514 864 535 783 662 783 C789 783 838 863 857 937 L795 937 C783 891 746 853 673 853 L673 853 Z " />
<glyph glyph-name="uni1E1D" unicode="&#x1e1d;" horiz-adv-x="992" d="M47 0 L423 0 L371 -115 L400 -115 C452 -115 481 -126 481 -157 C481 -204 428 -217 378 -217 C342 -217 308 -207 292 -196 L282 -245 C307 -259 349 -271 394 -271 C473 -270 557 -245 557 -152 C557 -86 491 -64 432 -70 L464 0 L862 0 L877 86 L161 86 L187 242 L820 242 L834 318 L202 318 L229 474 L946 474 L961 560 L146 560 L47 0 Z M571 713 C497 713 476 751 480 797 L421 797 C412 724 433 643 560 643 C687 643 736 723 755 797 L693 797 C681 751 644 713 571 713 L571 713 Z " />
<glyph glyph-name="uni1E1E" unicode="&#x1e1e;" horiz-adv-x="1112" d="M57 0 L167 0 L218 293 L968 293 L987 393 L237 393 L273 600 L1121 600 L1140 700 L182 700 L57 0 Z M604 806 L709 806 L728 913 L623 913 L604 806 Z " />
<glyph glyph-name="uni1E1F" unicode="&#x1e1f;" horiz-adv-x="975" d="M47 0 L146 0 L186 231 L818 231 L834 317 L202 317 L229 474 L946 474 L961 560 L146 560 L47 0 Z M507 666 L612 666 L631 773 L526 773 L507 666 Z " />
<glyph glyph-name="uni1E20" unicode="&#x1e20;" horiz-adv-x="1205" d="M630 305 L1000 305 L964 100 L453 100 C250 100 184 192 184 309 C184 451 266 600 543 600 L1107 600 L1125 700 L551 700 C205 700 66 507 66 296 C66 130 167 0 435 0 L1053 0 L1123 395 L648 395 L630 305 Z M525 824 L895 824 L908 896 L538 896 L525 824 Z " />
<glyph glyph-name="uni1E21" unicode="&#x1e21;" horiz-adv-x="1036" d="M809 86 L368 86 C208 86 155 151 155 244 C155 361 240 474 452 474 L930 474 L945 560 L458 560 C157 560 50 400 50 232 C50 102 132 0 357 0 L891 0 L947 318 L542 318 L526 242 L836 242 L809 86 Z M405 684 L775 684 L788 756 L418 756 L405 684 Z " />
<glyph glyph-name="uni1E22" unicode="&#x1e22;" horiz-adv-x="1252" d="M966 0 L1076 0 L1201 700 L1091 700 L1037 400 L238 400 L292 700 L182 700 L57 0 L167 0 L219 300 L1018 300 L966 0 Z M655 806 L760 806 L779 913 L674 913 L655 806 Z " />
<glyph glyph-name="uni1E23" unicode="&#x1e23;" horiz-adv-x="1081" d="M816 0 L915 0 L1014 560 L915 560 L874 323 L204 323 L245 560 L146 560 L47 0 L146 0 L187 237 L857 237 L816 0 Z M546 666 L651 666 L670 773 L565 773 L546 666 Z " />
<glyph glyph-name="uni1E24" unicode="&#x1e24;" horiz-adv-x="1252" d="M966 0 L1076 0 L1201 700 L1091 700 L1037 400 L238 400 L292 700 L182 700 L57 0 L167 0 L219 300 L1018 300 L966 0 Z M475 -215 L580 -215 L599 -108 L494 -108 L475 -215 Z " />
<glyph glyph-name="uni1E25" unicode="&#x1e25;" horiz-adv-x="1081" d="M816 0 L915 0 L1014 560 L915 560 L874 323 L204 323 L245 560 L146 560 L47 0 L146 0 L187 237 L857 237 L816 0 Z M390 -215 L495 -215 L514 -108 L409 -108 L390 -215 Z " />
<glyph glyph-name="uni1E26" unicode="&#x1e26;" horiz-adv-x="1252" d="M966 0 L1076 0 L1201 700 L1091 700 L1037 400 L238 400 L292 700 L182 700 L57 0 L167 0 L219 300 L1018 300 L966 0 Z M785 806 L891 806 L910 913 L804 913 L785 806 Z M522 806 L628 806 L647 913 L540 913 L522 806 Z " />
<glyph glyph-name="uni1E27" unicode="&#x1e27;" horiz-adv-x="1081" d="M816 0 L915 0 L1014 560 L915 560 L874 323 L204 323 L245 560 L146 560 L47 0 L146 0 L187 237 L857 237 L816 0 Z M675 666 L781 666 L800 773 L694 773 L675 666 Z M412 666 L518 666 L537 773 L430 773 L412 666 Z " />
<glyph glyph-name="uni1E28" unicode="&#x1e28;" horiz-adv-x="1252" d="M34 -115 L63 -115 C115 -115 144 -126 144 -157 C144 -204 91 -217 41 -217 C5 -217 -29 -207 -45 -196 L-55 -245 C-30 -259 12 -271 57 -271 C136 -270 220 -245 220 -152 C220 -86 154 -64 95 -70 L127 0 L167 0 L219 300 L1018 300 L966 0 L1076 0 L1201 700 L1091 700 L1037 400 L238 400 L292 700 L182 700 L57 0 L86 0 L34 -115 Z " />
<glyph glyph-name="uni1E29" unicode="&#x1e29;" horiz-adv-x="1081" d="M19 -115 L48 -115 C100 -115 129 -126 129 -157 C129 -204 76 -217 26 -217 C-10 -217 -44 -207 -60 -196 L-70 -245 C-45 -259 -3 -271 42 -271 C121 -270 205 -245 205 -152 C205 -86 139 -64 80 -70 L112 0 L146 0 L187 237 L857 237 L816 0 L915 0 L1014 560 L915 560 L874 323 L204 323 L245 560 L146 560 L47 0 L71 0 L19 -115 Z " />
<glyph glyph-name="uni1E2A" unicode="&#x1e2a;" horiz-adv-x="1252" d="M966 0 L1076 0 L1201 700 L1091 700 L1037 400 L238 400 L292 700 L182 700 L57 0 L167 0 L219 300 L1018 300 L966 0 Z M534 -168 C460 -168 439 -130 443 -84 L384 -84 C375 -157 396 -238 523 -238 C650 -238 699 -158 718 -84 L656 -84 C644 -130 607 -168 534 -168 L534 -168 Z " />
<glyph glyph-name="uni1E2B" unicode="&#x1e2b;" horiz-adv-x="1081" d="M816 0 L915 0 L1014 560 L915 560 L874 323 L204 323 L245 560 L146 560 L47 0 L146 0 L187 237 L857 237 L816 0 Z M448 -168 C374 -168 353 -130 357 -84 L298 -84 C289 -157 310 -238 437 -238 C564 -238 613 -158 632 -84 L570 -84 C558 -130 521 -168 448 -168 L448 -168 Z " />
<glyph glyph-name="uni1E2C" unicode="&#x1e2c;" horiz-adv-x="343" d="M57 0 L167 0 L292 700 L182 700 L57 0 Z M211 -87 C197 -139 179 -150 155 -150 C114 -150 82 -94 20 -94 C-36 -94 -78 -127 -104 -235 L-49 -235 C-36 -183 -18 -171 7 -171 C47 -171 79 -228 140 -228 C197 -228 240 -195 266 -87 L211 -87 Z " />
<glyph glyph-name="uni1E2D" unicode="&#x1e2d;" horiz-adv-x="312" d="M47 0 L146 0 L245 560 L146 560 L47 0 Z M197 -87 C183 -139 165 -150 141 -150 C100 -150 68 -94 6 -94 C-50 -94 -92 -127 -118 -235 L-63 -235 C-50 -183 -32 -171 -7 -171 C33 -171 65 -228 126 -228 C183 -228 226 -195 252 -87 L197 -87 Z " />
<glyph glyph-name="uni1E2E" unicode="&#x1e2e;" horiz-adv-x="343" d="M57 0 L167 0 L292 700 L182 700 L57 0 Z M201 966 L276 966 L462 1137 L332 1137 L201 966 Z M330 806 L436 806 L455 913 L349 913 L330 806 Z M67 806 L173 806 L192 913 L85 913 L67 806 Z " />
<glyph glyph-name="uni1E2F" unicode="&#x1e2f;" horiz-adv-x="312" d="M163 826 L238 826 L424 997 L294 997 L163 826 Z M290 666 L396 666 L415 773 L309 773 L290 666 Z M27 666 L133 666 L152 773 L45 773 L27 666 Z M47 0 L146 0 L245 560 L146 560 L47 0 Z " />
<glyph glyph-name="uni1E30" unicode="&#x1e30;" horiz-adv-x="1240" d="M1213 700 L1019 700 L212 258 L290 700 L182 700 L57 0 L165 0 L190 138 L534 327 L1004 0 L1176 0 L632 381 L1213 700 Z M579 775 L654 775 L840 946 L710 946 L579 775 Z " />
<glyph glyph-name="uni1E31" unicode="&#x1e31;" horiz-adv-x="1069" d="M1031 560 L850 560 L183 213 L245 560 L146 560 L47 0 L146 0 L164 107 L453 258 L844 0 L1001 0 L541 304 L1031 560 Z M473 635 L548 635 L734 806 L604 806 L473 635 Z " />
<glyph glyph-name="uni1E32" unicode="&#x1e32;" horiz-adv-x="1240" d="M1213 700 L1019 700 L212 258 L290 700 L182 700 L57 0 L165 0 L190 138 L534 327 L1004 0 L1176 0 L632 381 L1213 700 Z M464 -215 L569 -215 L588 -108 L483 -108 L464 -215 Z " />
<glyph glyph-name="uni1E33" unicode="&#x1e33;" horiz-adv-x="1069" d="M1031 560 L850 560 L183 213 L245 560 L146 560 L47 0 L146 0 L164 107 L453 258 L844 0 L1001 0 L541 304 L1031 560 Z M381 -215 L486 -215 L505 -108 L400 -108 L381 -215 Z " />
<glyph glyph-name="uni1E34" unicode="&#x1e34;" horiz-adv-x="1240" d="M1213 700 L1019 700 L212 258 L290 700 L182 700 L57 0 L165 0 L190 138 L534 327 L1004 0 L1176 0 L632 381 L1213 700 Z M335 -197 L705 -197 L718 -125 L348 -125 L335 -197 Z " />
<glyph glyph-name="uni1E35" unicode="&#x1e35;" horiz-adv-x="1069" d="M1031 560 L850 560 L183 213 L245 560 L146 560 L47 0 L146 0 L164 107 L453 258 L844 0 L1001 0 L541 304 L1031 560 Z M252 -197 L622 -197 L635 -125 L265 -125 L252 -197 Z " />
<glyph glyph-name="uni1E36" unicode="&#x1e36;" horiz-adv-x="1083" d="M292 700 L182 700 L57 0 L996 0 L1013 100 L185 100 L292 700 Z M431 -215 L536 -215 L555 -108 L450 -108 L431 -215 Z " />
<glyph glyph-name="uni1E37" unicode="&#x1e37;" horiz-adv-x="946" d="M245 560 L146 560 L47 0 L846 0 L861 86 L161 86 L245 560 Z M359 -215 L464 -215 L483 -108 L378 -108 L359 -215 Z " />
<glyph glyph-name="uni1E38" unicode="&#x1e38;" horiz-adv-x="1083" d="M292 700 L182 700 L57 0 L996 0 L1013 100 L185 100 L292 700 Z M100 824 L470 824 L483 896 L113 896 L100 824 Z M431 -215 L536 -215 L555 -108 L450 -108 L431 -215 Z " />
<glyph glyph-name="uni1E39" unicode="&#x1e39;" horiz-adv-x="946" d="M245 560 L146 560 L47 0 L846 0 L861 86 L161 86 L245 560 Z M61 684 L431 684 L444 756 L74 756 L61 684 Z M359 -215 L464 -215 L483 -108 L378 -108 L359 -215 Z " />
<glyph glyph-name="uni1E3A" unicode="&#x1e3a;" horiz-adv-x="1083" d="M292 700 L182 700 L57 0 L996 0 L1013 100 L185 100 L292 700 Z M302 -197 L672 -197 L685 -125 L315 -125 L302 -197 Z " />
<glyph glyph-name="uni1E3B" unicode="&#x1e3b;" horiz-adv-x="946" d="M245 560 L146 560 L47 0 L846 0 L861 86 L161 86 L245 560 Z M230 -197 L600 -197 L613 -125 L243 -125 L230 -197 Z " />
<glyph glyph-name="uni1E3C" unicode="&#x1e3c;" horiz-adv-x="1083" d="M292 700 L182 700 L57 0 L996 0 L1013 100 L185 100 L292 700 Z M299 -246 L371 -246 L500 -131 L587 -246 L655 -246 L572 -75 L445 -75 L299 -246 Z " />
</font>
</svg>
