<?xml version="1.0" encoding="UTF-8"?>
<svg xmlns="http://www.w3.org/2000/svg" xmlns:xlink="http://www.w3.org/1999/xlink" version="1.2" >
<font id="Stereo Gothic 400 Italic">
<font-face  font-family="Stereo Gothic" units-per-em="1000" ascent="700" descent="-300" font-style="italic" font-weight="400" font-stretch="normal" slope="-10" cap-height="700" x-height="560" underline-position="-75" underline-thickness="50" />
<missing-glyph  horiz-adv-x="1000" d="M152 0 L852 0 L852 700 L152 700 L152 0 Z M215 36 L812 633 L812 36 L215 36 Z M192 664 L787 664 L192 69 L192 664 Z " />
<glyph glyph-name="NULL" d="" />
<glyph glyph-name="CR" unicode="&#xd;" horiz-adv-x="250" d="" />
<glyph glyph-name="space" unicode="&#x20;" horiz-adv-x="480" d="" />
<glyph glyph-name="exclam" unicode="&#x21;" horiz-adv-x="322" d="M53 0 L151 0 L168 100 L71 100 L53 0 Z M91 167 L165 167 L271 700 L183 700 L91 167 Z " />
<glyph glyph-name="quotedbl" unicode="&#x22;" horiz-adv-x="499" d="M123 400 L185 400 L254 700 L163 700 L123 400 Z M338 400 L401 400 L470 700 L379 700 L338 400 Z " />
<glyph glyph-name="numbersign" unicode="&#x23;" horiz-adv-x="1246" d="M822 0 L902 0 L952 184 L1099 184 L1113 258 L973 258 L1025 442 L1175 442 L1188 516 L1046 516 L1098 700 L1018 700 L967 516 L376 516 L428 700 L348 700 L296 516 L150 516 L138 442 L276 442 L224 258 L76 258 L62 184 L203 184 L153 0 L233 0 L282 184 L873 184 L822 0 Z M355 442 L946 442 L894 258 L304 258 L355 442 Z " />
<glyph glyph-name="dollar" unicode="&#x24;" horiz-adv-x="1246" d="M518 -20 L598 -20 L615 70 L884 70 C1042 70 1106 156 1106 251 C1106 326 1061 383 939 383 L672 383 L702 557 L1130 557 L1144 630 L715 630 L732 720 L652 720 L635 630 L366 630 C207 630 144 542 144 445 C144 372 193 317 312 317 L579 317 L549 143 L121 143 L106 70 L535 70 L518 -20 Z M330 383 C256 383 230 413 230 454 C231 511 270 557 369 557 L622 557 L592 383 L330 383 Z M921 317 C995 317 1020 287 1020 246 C1020 189 981 143 881 143 L629 143 L659 317 L921 317 Z " />
<glyph glyph-name="percent" unicode="&#x25;" horiz-adv-x="1246" d="M1047 700 L111 0 L204 0 L1140 700 L1047 700 Z M119 477 C106 404 138 350 246 350 L410 350 C518 350 564 404 576 474 L592 573 C604 645 575 700 468 700 L303 700 C195 700 148 646 136 576 L119 477 Z M466 640 C523 640 535 610 528 573 L511 477 C504 440 477 410 416 410 L247 410 C189 410 179 440 185 477 L201 573 C207 610 236 640 297 640 L466 640 Z M657 127 C644 54 676 0 784 0 L948 0 C1056 0 1102 54 1114 124 L1130 223 C1142 295 1113 350 1006 350 L841 350 C733 350 686 296 674 226 L657 127 Z M1004 290 C1061 290 1073 260 1066 223 L1049 127 C1042 90 1015 60 954 60 L785 60 C727 60 717 90 723 127 L739 223 C745 260 774 290 835 290 L1004 290 Z " />
<glyph glyph-name="ampersand" unicode="&#x26;" horiz-adv-x="1263" d="M252 0 L881 0 C1052 0 1120 93 1120 197 C1120 246 1100 293 1054 313 L1190 313 L1204 387 L383 387 C289 387 257 429 257 483 C257 551 303 620 431 620 L1032 620 L1047 700 L422 700 C241 700 168 599 168 489 C168 431 194 381 250 360 C112 338 59 245 59 152 C59 67 112 0 252 0 L252 0 Z M859 80 L289 80 C191 80 156 121 156 176 C156 244 201 313 330 313 L905 313 C1000 313 1033 270 1033 218 C1033 145 989 80 859 80 L859 80 Z " />
<glyph glyph-name="quotesingle" unicode="&#x27;" horiz-adv-x="284" d="M123 400 L185 400 L254 700 L163 700 L123 400 Z " />
<glyph glyph-name="parenleft" unicode="&#x28;" horiz-adv-x="471" d="M309 -116 C131 157 200 543 477 815 L404 815 C104 547 33 153 237 -116 L309 -116 Z " />
<glyph glyph-name="parenright" unicode="&#x29;" horiz-adv-x="471" d="M71 -116 C371 153 443 547 239 815 L166 815 C346 543 276 157 -2 -116 L71 -116 Z " />
<glyph glyph-name="asterisk" unicode="&#x2a;" horiz-adv-x="569" d="M546 494 L522 574 L329 491 L351 700 L267 700 L282 490 L92 574 L64 494 L266 447 L127 291 L194 241 L304 419 L407 241 L477 291 L342 446 L546 494 Z " />
<glyph glyph-name="plus" unicode="&#x2b;" horiz-adv-x="1246" d="M279 310 L581 310 L581 30 L669 30 L669 310 L971 310 L971 390 L669 390 L669 670 L581 670 L581 390 L279 390 L279 310 Z " />
<glyph glyph-name="comma" unicode="&#x2c;" horiz-adv-x="285" d="M35 0 L80 0 L15 -115 L55 -115 L134 6 L152 100 L52 100 L35 0 Z " />
<glyph glyph-name="hyphen" unicode="&#x2d;" horiz-adv-x="576" d="M72 240 L468 240 L483 320 L87 320 L72 240 Z " />
<glyph glyph-name="period" unicode="&#x2e;" horiz-adv-x="285" d="M35 0 L134 0 L152 100 L52 100 L35 0 Z " />
<glyph glyph-name="slash" unicode="&#x2f;" horiz-adv-x="527" d="M-90 -75 L-11 -75 L624 776 L543 776 L-90 -75 Z " />
<glyph glyph-name="zero" unicode="0" horiz-adv-x="1246" d="M84 248 C59 111 124 0 339 0 L795 0 C1011 0 1105 104 1131 246 L1167 452 C1192 589 1127 700 912 700 L456 700 C240 700 146 596 120 454 L84 248 Z M901 620 C1058 620 1096 542 1078 448 L1043 253 C1026 156 961 80 805 80 L349 80 C192 80 155 159 172 252 L207 447 C224 544 289 620 446 620 L901 620 Z " />
<glyph glyph-name="one" unicode="1" horiz-adv-x="1246" d="M417 620 L686 620 L591 80 L177 80 L163 0 L963 0 L977 80 L679 80 L790 700 L433 700 L417 620 Z " />
<glyph glyph-name="two" unicode="2" horiz-adv-x="1246" d="M1082 80 L142 80 L162 195 C174 259 220 313 331 313 L915 313 C1113 313 1191 420 1191 538 C1191 629 1135 700 984 700 L203 700 L188 620 L967 620 C1066 620 1097 577 1097 523 C1097 450 1050 387 925 387 L342 387 C175 387 95 309 75 197 L40 0 L1067 0 L1082 80 Z " />
<glyph glyph-name="three" unicode="3" horiz-adv-x="1246" d="M20 0 L870 0 C1055 0 1127 103 1127 214 C1127 284 1089 341 1001 358 C1096 392 1140 464 1140 555 C1140 636 1087 700 950 700 L165 700 L150 620 L913 620 C1012 620 1045 578 1045 523 C1045 458 1000 387 877 387 L192 387 L178 313 L903 313 C1003 313 1036 270 1036 217 C1036 146 987 80 862 80 L35 80 L20 0 Z " />
<glyph glyph-name="four" unicode="4" horiz-adv-x="1246" d="M1059 700 L46 192 L33 124 L952 124 L931 0 L1018 0 L1038 124 L1145 124 L1159 204 L1053 204 L1143 700 L1059 700 Z M223 204 L1040 614 L966 204 L223 204 Z " />
<glyph glyph-name="five" unicode="5" horiz-adv-x="1246" d="M95 313 L910 313 C1010 313 1042 271 1042 217 C1042 144 994 80 870 80 L72 80 L57 0 L858 0 C1055 0 1134 104 1134 224 C1134 315 1078 387 927 387 L197 387 L255 620 L1168 620 L1183 700 L195 700 L95 313 Z " />
<glyph glyph-name="six" unicode="6" horiz-adv-x="1246" d="M190 350 C217 503 324 620 570 620 L1158 620 L1173 700 L577 700 C271 700 137 553 103 356 L84 248 C59 111 124 0 339 0 L873 0 C1069 0 1149 104 1149 224 C1149 316 1092 387 942 387 L377 387 C281 387 218 357 182 310 L190 350 Z M332 313 L926 313 C1024 313 1056 271 1056 217 C1056 144 1008 80 884 80 L349 80 C218 80 171 135 168 207 C180 267 226 313 332 313 L332 313 Z " />
<glyph glyph-name="seven" unicode="7" horiz-adv-x="1246" d="M434 0 L1207 629 L1221 700 L146 700 L130 620 L1073 620 L303 0 L434 0 Z " />
<glyph glyph-name="eight" unicode="8" horiz-adv-x="1246" d="M240 0 L886 0 C1071 0 1143 103 1143 214 C1143 284 1105 341 1017 358 C1112 392 1156 464 1156 555 C1156 636 1103 700 966 700 L411 700 C229 700 156 599 156 489 C156 431 181 381 238 360 C100 338 47 245 47 152 C47 67 100 0 240 0 L240 0 Z M878 80 L277 80 C178 80 144 121 144 176 C144 244 189 313 317 313 L918 313 C1019 313 1052 270 1052 217 C1052 147 1004 80 878 80 L878 80 Z M929 620 C1027 620 1061 578 1061 524 C1061 458 1016 387 893 387 L371 387 C276 387 245 429 245 483 C245 551 291 620 419 620 L929 620 Z " />
<glyph glyph-name="nine" unicode="9" horiz-adv-x="1246" d="M681 80 L93 80 L78 0 L674 0 C980 0 1114 147 1148 344 L1167 452 C1192 589 1127 700 912 700 L378 700 C182 700 103 596 102 476 C101 384 159 313 309 313 L874 313 C970 313 1032 343 1068 390 L1061 350 C1034 197 927 80 681 80 L681 80 Z M919 387 L325 387 C227 387 195 429 195 483 C195 556 243 620 367 620 L902 620 C1033 620 1080 565 1082 492 C1070 433 1024 387 919 387 L919 387 Z " />
<glyph glyph-name="colon" unicode="&#x3a;" horiz-adv-x="285" d="M116 460 L215 460 L233 560 L134 560 L116 460 Z M35 0 L134 0 L152 100 L52 100 L35 0 Z " />
<glyph glyph-name="semicolon" unicode="&#x3b;" horiz-adv-x="285" d="M35 0 L80 0 L15 -115 L55 -115 L134 6 L152 100 L52 100 L35 0 Z M116 460 L215 460 L233 560 L134 560 L116 460 Z " />
<glyph glyph-name="less" unicode="&#x3c;" horiz-adv-x="1246" d="M961 110 L395 350 L961 590 L961 676 L289 391 L289 308 L961 24 L961 110 Z " />
<glyph glyph-name="equal" unicode="&#x3d;" horiz-adv-x="1246" d="M279 154 L971 154 L971 234 L279 234 L279 154 Z M279 466 L971 466 L971 546 L279 546 L279 466 Z " />
<glyph glyph-name="greater" unicode="&#x3e;" horiz-adv-x="1246" d="M289 24 L961 308 L961 391 L289 676 L289 590 L855 350 L289 110 L289 24 Z " />
<glyph glyph-name="question" unicode="&#x3f;" horiz-adv-x="1027" d="M283 167 L364 167 L389 315 L753 315 C952 315 1028 420 1028 538 C1028 629 973 700 821 700 L96 700 L81 620 L804 620 C903 620 935 576 935 523 C935 450 887 385 761 385 L322 385 L283 167 Z M244 0 L344 0 L361 100 L262 100 L244 0 Z " />
<glyph glyph-name="at" unicode="&#x40;" horiz-adv-x="1342" d="M706 420 L633 420 C415 420 330 298 330 169 C330 69 393 -10 556 -10 L637 -10 C747 -10 817 25 861 81 L856 0 L1120 0 C1214 89 1256 195 1256 309 C1256 491 1146 635 849 635 L650 635 C220 635 45 394 45 129 C45 -69 175 -224 498 -224 L642 -224 L653 -159 L506 -159 C220 -159 123 -25 123 146 C123 362 266 570 644 570 L811 570 C1065 570 1180 470 1180 300 C1180 213 1144 121 1089 65 L915 65 L977 410 L926 410 L903 314 C882 375 819 420 706 420 L706 420 Z M570 55 C447 55 406 109 406 179 C406 270 465 355 622 355 L704 355 C830 355 870 299 870 228 C870 137 814 55 650 55 L570 55 Z " />
<glyph glyph-name="A" unicode="A" horiz-adv-x="1220" d="M1046 0 L1150 0 L722 700 L628 700 L-49 0 L63 0 L195 138 L962 138 L1046 0 Z M665 626 L917 211 L265 211 L665 626 Z " />
<glyph glyph-name="B" unicode="B" horiz-adv-x="1209" d="M59 0 L848 0 C1033 0 1106 103 1106 214 C1106 284 1069 341 980 358 C1075 392 1119 464 1119 555 C1119 636 1066 700 929 700 L184 700 L59 0 Z M881 313 C981 313 1015 270 1015 217 C1015 147 966 80 841 80 L162 80 L202 313 L881 313 Z M1024 523 C1024 458 979 387 856 387 L216 387 L257 620 L892 620 C990 620 1024 578 1024 523 L1024 523 Z " />
<glyph glyph-name="C" unicode="C" horiz-adv-x="1137" d="M162 307 C162 462 257 620 547 620 L1108 620 L1123 700 L554 700 C208 700 68 507 68 296 C68 130 170 0 438 0 L998 0 L1012 80 L452 80 C235 80 162 179 162 307 L162 307 Z " />
<glyph glyph-name="D" unicode="D" horiz-adv-x="1205" d="M59 0 L654 0 C1000 0 1140 193 1140 404 C1140 569 1038 700 770 700 L184 700 L59 0 Z M756 620 C972 620 1046 520 1046 393 C1046 238 950 80 660 80 L160 80 L255 620 L756 620 Z " />
<glyph glyph-name="E" unicode="E" horiz-adv-x="1151" d="M59 0 L1013 0 L1027 80 L161 80 L201 313 L969 313 L984 387 L216 387 L256 620 L1122 620 L1138 700 L184 700 L59 0 Z " />
<glyph glyph-name="F" unicode="F" horiz-adv-x="1113" d="M59 0 L147 0 L200 305 L968 305 L983 385 L215 385 L256 620 L1122 620 L1138 700 L184 700 L59 0 Z " />
<glyph glyph-name="G" unicode="G" horiz-adv-x="1206" d="M634 313 L1020 313 L980 80 L452 80 C235 80 162 179 162 307 C162 462 257 620 547 620 L1108 620 L1123 700 L554 700 C208 700 68 507 68 296 C68 130 170 0 438 0 L1051 0 L1120 387 L648 387 L634 313 Z " />
<glyph glyph-name="H" unicode="H" horiz-adv-x="1253" d="M986 0 L1074 0 L1199 700 L1111 700 L1056 390 L216 390 L272 700 L184 700 L59 0 L147 0 L200 310 L1040 310 L986 0 Z " />
<glyph glyph-name="I" unicode="I" horiz-adv-x="326" d="M59 0 L147 0 L272 700 L184 700 L59 0 Z " />
<glyph glyph-name="J" unicode="J" horiz-adv-x="1162" d="M308 -5 L621 -5 C914 -5 1024 113 1058 306 L1128 700 L1040 700 L972 325 C944 169 856 75 632 75 L325 75 C139 75 94 162 117 273 L127 322 L40 322 L31 275 C0 123 66 -5 308 -5 L308 -5 Z " />
<glyph glyph-name="K" unicode="K" horiz-adv-x="1237" d="M1209 700 L1051 700 L188 237 L271 700 L184 700 L59 0 L146 0 L170 141 L531 335 L1032 0 L1172 0 L610 378 L1209 700 Z " />
<glyph glyph-name="L" unicode="L" horiz-adv-x="1084" d="M272 700 L184 700 L59 0 L994 0 L1007 80 L161 80 L272 700 Z " />
<glyph glyph-name="M" unicode="M" horiz-adv-x="1391" d="M1247 700 L656 148 L262 700 L184 700 L59 0 L146 0 L248 578 L640 29 L1225 578 L1125 0 L1212 0 L1337 700 L1247 700 Z " />
<glyph glyph-name="N" unicode="N" horiz-adv-x="1253" d="M990 0 L1074 0 L1199 700 L1111 700 L1003 95 L267 700 L184 700 L59 0 L147 0 L253 605 L990 0 Z " />
<glyph glyph-name="O" unicode="O" horiz-adv-x="1294" d="M730 -10 C1092 -10 1229 187 1229 411 C1229 580 1122 710 851 710 L569 710 C210 710 68 516 68 294 C68 122 176 -10 448 -10 L730 -10 Z M465 70 C239 70 162 172 162 305 C162 468 264 630 566 630 L834 630 C1057 630 1135 529 1135 399 C1135 232 1034 70 733 70 L465 70 Z " />
<glyph glyph-name="P" unicode="P" horiz-adv-x="1148" d="M59 0 L147 0 L195 270 L842 270 C1060 270 1146 383 1146 519 C1146 619 1086 700 919 700 L184 700 L59 0 Z M901 620 C1016 620 1054 570 1054 506 C1054 424 997 350 852 350 L209 350 L257 620 L901 620 Z " />
<glyph glyph-name="Q" unicode="Q" horiz-adv-x="1294" d="M730 -10 C783 -10 831 -6 875 2 L1073 -110 L1211 -110 L969 27 C1154 95 1229 245 1229 411 C1229 580 1122 710 851 710 L569 710 C210 710 68 516 68 294 C68 122 176 -10 448 -10 L730 -10 Z M465 70 C239 70 162 172 162 305 C162 468 264 630 566 630 L834 630 C1057 630 1135 529 1135 399 C1135 232 1034 70 733 70 L465 70 Z " />
<glyph glyph-name="R" unicode="R" horiz-adv-x="1226" d="M59 0 L146 0 L194 271 L617 271 L1022 0 L1160 0 L743 273 L827 273 C1044 273 1132 384 1132 519 C1132 620 1071 700 904 700 L184 700 L59 0 Z M887 620 C1002 620 1039 570 1039 507 C1039 422 983 349 835 349 L207 349 L256 620 L887 620 Z " />
<glyph glyph-name="S" unicode="S" horiz-adv-x="1159" d="M802 80 L64 80 L49 0 L791 0 C987 0 1067 104 1067 224 C1067 316 1010 387 859 387 L321 387 C223 387 191 429 191 484 C191 556 239 620 362 620 L1100 620 L1115 700 L374 700 C178 700 98 596 98 476 C98 384 155 313 305 313 L844 313 C942 313 973 271 973 216 C973 144 926 80 802 80 L802 80 Z " />
<glyph glyph-name="T" unicode="T" horiz-adv-x="1137" d="M80 620 L574 620 L464 0 L552 0 L662 620 L1156 620 L1171 700 L96 700 L80 620 Z " />
<glyph glyph-name="U" unicode="U" horiz-adv-x="1224" d="M184 323 L253 700 L165 700 L96 323 C61 130 137 -10 433 -10 L681 -10 C975 -10 1086 118 1120 309 L1190 700 L1102 700 L1035 326 C1006 170 918 70 693 70 L445 70 C211 70 158 174 184 323 L184 323 Z " />
<glyph glyph-name="V" unicode="V" horiz-adv-x="1220" d="M598 0 L1275 700 L1159 700 L559 74 L185 700 L76 700 L503 0 L598 0 Z " />
<glyph glyph-name="W" unicode="W" horiz-adv-x="1553" d="M821 591 L1027 0 L1093 0 L1596 700 L1486 700 L1074 110 L870 700 L804 700 L388 110 L189 700 L88 700 L340 0 L405 0 L821 591 Z " />
<glyph glyph-name="X" unicode="X" horiz-adv-x="1178" d="M93 700 L525 351 L-37 0 L110 0 L588 305 L961 0 L1097 0 L660 351 L1217 700 L1070 700 L595 398 L229 700 L93 700 Z " />
<glyph glyph-name="Y" unicode="Y" horiz-adv-x="1196" d="M494 0 L582 0 L619 212 L1261 700 L1126 700 L583 280 L190 700 L67 700 L531 212 L494 0 Z " />
<glyph glyph-name="Z" unicode="Z" horiz-adv-x="1147" d="M14 0 L1026 0 L1040 80 L199 80 L1120 637 L1129 700 L146 700 L130 620 L943 620 L22 63 L14 0 Z " />
<glyph glyph-name="bracketleft" unicode="&#x5b;" horiz-adv-x="471" d="M40 -150 L334 -150 L346 -86 L138 -86 L294 786 L502 786 L513 850 L218 850 L40 -150 Z " />
<glyph glyph-name="backslash" unicode="&#x5c;" horiz-adv-x="527" d="M138 776 L66 776 L395 -75 L466 -75 L138 776 Z " />
<glyph glyph-name="bracketright" unicode="&#x5d;" horiz-adv-x="471" d="M436 850 L142 850 L131 786 L338 786 L182 -86 L-25 -86 L-37 -150 L257 -150 L436 850 Z " />
<glyph glyph-name="asciicircum" unicode="&#x5e;" horiz-adv-x="1246" d="M925 350 L1033 350 L673 800 L577 800 L217 350 L325 350 L625 725 L925 350 Z " />
<glyph glyph-name="underscore" unicode="&#x5f;" horiz-adv-x="500" d="M-60 -145 L440 -145 L440 -75 L-60 -75 L-60 -145 Z " />
<glyph glyph-name="grave" unicode="&#x60;" horiz-adv-x="480" d="M287 806 L188 806 L306 635 L360 635 L287 806 Z " />
<glyph glyph-name="a" unicode="a" horiz-adv-x="1044" d="M878 0 L973 0 L605 560 L519 560 L-48 0 L54 0 L169 114 L803 114 L878 0 Z M554 495 L763 176 L231 176 L554 495 Z " />
<glyph glyph-name="b" unicode="b" horiz-adv-x="1040" d="M49 0 L725 0 C887 0 937 84 937 172 C937 227 908 273 833 287 C915 314 944 379 944 442 C944 509 903 560 787 560 L148 560 L49 0 Z M717 69 L140 69 L172 249 L748 249 C834 249 854 215 854 172 C854 117 822 69 717 69 L717 69 Z M755 491 C836 491 859 460 859 417 C859 366 829 311 727 311 L184 311 L215 491 L755 491 Z " />
<glyph glyph-name="c" unicode="c" horiz-adv-x="974" d="M137 241 C137 368 225 491 456 491 L932 491 L946 560 L460 560 C159 560 52 400 52 232 C52 102 134 0 359 0 L845 0 L857 69 L367 69 C195 69 137 141 137 241 L137 241 Z " />
<glyph glyph-name="d" unicode="d" horiz-adv-x="1037" d="M49 0 L559 0 C860 0 967 160 967 328 C967 458 884 560 660 560 L149 560 L49 0 Z M651 491 C824 491 882 419 882 319 C882 192 794 69 563 69 L141 69 L215 491 L651 491 Z " />
<glyph glyph-name="e" unicode="e" horiz-adv-x="992" d="M49 0 L861 0 L873 69 L140 69 L172 249 L820 249 L832 311 L184 311 L215 491 L947 491 L960 560 L148 560 L49 0 Z " />
<glyph glyph-name="f" unicode="f" horiz-adv-x="975" d="M49 0 L128 0 L170 241 L819 241 L832 310 L184 310 L215 491 L947 491 L960 560 L148 560 L49 0 Z " />
<glyph glyph-name="g" unicode="g" horiz-adv-x="1037" d="M359 0 L889 0 L944 311 L542 311 L530 249 L854 249 L824 69 L367 69 C195 69 137 141 137 241 C137 368 225 491 456 491 L931 491 L944 560 L460 560 C159 560 52 400 52 232 C52 102 134 0 359 0 L359 0 Z " />
<glyph glyph-name="h" unicode="h" horiz-adv-x="1082" d="M834 0 L913 0 L1012 560 L933 560 L890 315 L185 315 L227 560 L148 560 L49 0 L128 0 L171 245 L876 245 L834 0 Z " />
<glyph glyph-name="i" unicode="i" horiz-adv-x="297" d="M49 0 L128 0 L227 560 L148 560 L49 0 Z " />
<glyph glyph-name="j" unicode="j" horiz-adv-x="1000" d="M255 -4 L536 -4 C777 -4 867 88 895 246 L951 560 L871 560 L817 261 C795 138 733 65 542 65 L261 65 C113 65 82 132 98 218 L105 259 L27 259 L20 220 C-3 98 47 -4 255 -4 L255 -4 Z " />
<glyph glyph-name="k" unicode="k" horiz-adv-x="1067" d="M1026 560 L879 560 L162 196 L227 560 L148 560 L49 0 L128 0 L147 110 L451 265 L869 0 L997 0 L522 302 L1026 560 Z " />
<glyph glyph-name="l" unicode="l" horiz-adv-x="946" d="M227 560 L148 560 L49 0 L845 0 L857 69 L140 69 L227 560 Z " />
<glyph glyph-name="m" unicode="m" horiz-adv-x="1199" d="M1048 560 L557 127 L218 560 L148 560 L49 0 L128 0 L209 454 L543 23 L1032 454 L951 0 L1030 0 L1129 560 L1048 560 Z " />
<glyph glyph-name="n" unicode="n" horiz-adv-x="1082" d="M913 0 L1012 560 L933 560 L848 84 L223 560 L148 560 L49 0 L128 0 L213 476 L838 0 L913 0 Z " />
<glyph glyph-name="o" unicode="o" horiz-adv-x="1109" d="M617 -8 C922 -8 1036 152 1037 326 C1039 461 955 568 721 568 L471 568 C166 568 53 408 52 234 C51 99 132 -8 367 -8 L617 -8 Z M381 61 C196 61 135 140 136 239 C136 370 226 499 463 499 L708 499 C893 499 953 420 953 320 C953 192 865 61 626 61 L381 61 Z " />
<glyph glyph-name="p" unicode="p" horiz-adv-x="999" d="M49 0 L128 0 L166 213 L715 213 C906 213 969 311 969 414 C969 495 919 560 778 560 L148 560 L49 0 Z M763 491 C856 491 885 453 885 404 C885 343 848 283 726 283 L179 283 L215 491 L763 491 Z " />
<glyph glyph-name="q" unicode="q" horiz-adv-x="1109" d="M617 -8 C660 -8 699 -4 735 1 L898 -88 L1024 -88 L819 22 C974 77 1036 198 1037 326 C1039 461 955 568 721 568 L471 568 C166 568 53 408 52 234 C51 99 132 -8 367 -8 L617 -8 Z M381 61 C196 61 135 140 136 239 C136 370 226 499 463 499 L708 499 C893 499 953 420 953 320 C953 192 865 61 626 61 L381 61 Z " />
<glyph glyph-name="r" unicode="r" horiz-adv-x="1061" d="M49 0 L128 0 L166 214 L526 214 L860 0 L986 0 L641 215 L704 215 C893 215 957 312 957 416 C957 495 907 560 766 560 L149 560 L49 0 Z M750 491 C844 491 872 452 872 404 C872 343 838 282 713 282 L179 282 L215 491 L750 491 Z " />
<glyph glyph-name="s" unicode="s" horiz-adv-x="991" d="M677 69 L49 69 L36 0 L670 0 C844 0 899 89 899 182 C899 255 853 310 726 310 L260 310 C181 310 156 342 156 384 C156 439 189 491 295 491 L923 491 L937 560 L302 560 C128 560 73 471 73 378 C73 305 119 250 245 250 L712 250 C791 250 816 218 816 176 C816 121 783 69 677 69 L677 69 Z " />
<glyph glyph-name="t" unicode="t" horiz-adv-x="999" d="M70 491 L487 491 L400 0 L479 0 L566 491 L984 491 L996 560 L82 560 L70 491 Z " />
<glyph glyph-name="u" unicode="u" horiz-adv-x="1051" d="M153 257 L208 560 L129 560 L75 258 C47 104 97 -8 354 -8 L585 -8 C826 -8 916 85 944 242 L1000 560 L922 560 L867 257 C845 135 783 61 592 61 L366 61 C165 61 133 140 153 257 L153 257 Z " />
<glyph glyph-name="v" unicode="v" horiz-adv-x="1044" d="M506 0 L1072 560 L967 560 L471 65 L149 560 L51 560 L420 0 L506 0 Z " />
<glyph glyph-name="w" unicode="w" horiz-adv-x="1328" d="M687 466 L865 0 L925 0 L1345 560 L1247 560 L908 95 L731 560 L672 560 L329 95 L154 560 L62 560 L284 0 L343 0 L687 466 Z " />
<glyph glyph-name="x" unicode="x" horiz-adv-x="1022" d="M72 560 L441 282 L-31 0 L102 0 L499 239 L812 0 L934 0 L561 282 L1030 560 L896 560 L504 323 L193 560 L72 560 Z " />
<glyph glyph-name="y" unicode="y" horiz-adv-x="1019" d="M410 0 L490 0 L519 170 L1057 560 L936 560 L486 229 L151 560 L41 560 L440 170 L410 0 Z " />
<glyph glyph-name="z" unicode="z" horiz-adv-x="982" d="M7 0 L869 0 L881 69 L175 69 L942 506 L949 560 L112 560 L100 491 L779 491 L13 54 L7 0 Z " />
<glyph glyph-name="braceleft" unicode="&#x7b;" horiz-adv-x="471" d="M185 455 C178 415 158 382 93 382 L57 382 L46 318 L81 318 C147 318 155 286 148 245 L99 -32 C87 -98 114 -150 219 -150 L336 -150 L348 -86 L253 -86 C188 -86 182 -53 189 -13 L234 241 C244 292 224 337 167 349 C233 360 262 401 272 455 L318 713 C325 755 347 786 413 786 L501 786 L513 850 L394 850 C290 850 246 798 234 732 L185 455 Z " />
<glyph glyph-name="bar" unicode="&#x7c;" horiz-adv-x="500" d="M212 850 L212 -150 L288 -150 L288 850 L212 850 Z " />
<glyph glyph-name="braceright" unicode="&#x7d;" horiz-adv-x="471" d="M292 245 C299 285 318 318 384 318 L419 318 L431 382 L396 382 C330 382 321 414 329 455 L377 732 C389 798 363 850 258 850 L141 850 L129 786 L223 786 C289 786 295 753 287 713 L242 459 C233 408 252 363 309 351 C244 340 214 299 205 245 L159 -13 C151 -55 129 -86 64 -86 L-25 -86 L-36 -150 L82 -150 C187 -150 231 -98 243 -32 L292 245 Z " />
<glyph glyph-name="asciitilde" unicode="&#x7e;" horiz-adv-x="1246" d="M971 433 C707 210 558 588 279 375 L279 290 C543 513 693 135 971 348 L971 433 Z " />
<glyph glyph-name="uni00A0" unicode="&#xa0;" horiz-adv-x="480" d="" />
<glyph glyph-name="exclamdown" unicode="&#xa1;" horiz-adv-x="322" d="M278 700 L180 700 L162 600 L260 600 L278 700 Z M240 533 L165 533 L60 0 L147 0 L240 533 Z " />
<glyph glyph-name="cent" unicode="&#xa2;" horiz-adv-x="1246" d="M1088 199 L634 199 L747 501 L1143 501 L1157 574 L778 574 L834 720 L753 720 L698 574 L446 574 C220 574 128 449 128 316 C128 212 199 126 366 126 L526 126 L469 -20 L549 -20 L606 126 L1075 126 L1088 199 Z M214 326 C215 418 282 501 443 501 L667 501 L554 199 L381 199 C260 199 214 251 214 326 L214 326 Z " />
<glyph glyph-name="sterling" unicode="&#xa3;" horiz-adv-x="1246" d="M733 387 L349 387 L359 448 C376 541 422 620 578 620 L1062 620 L1077 700 L583 700 C377 700 297 592 273 456 L261 387 L128 387 L113 313 L247 313 L219 153 C211 108 185 77 136 77 L72 77 L59 0 L1067 0 L1081 80 L246 80 C278 93 304 125 309 163 L335 313 L719 313 L733 387 Z " />
<glyph glyph-name="currency" unicode="&#xa4;" horiz-adv-x="1246" d="M696 83 C790 83 864 101 919 136 L1029 -11 L1100 43 L982 180 C1040 233 1072 312 1072 396 C1072 437 1061 481 1042 510 L1211 647 L1152 711 L994 561 C950 596 885 617 792 617 L552 617 C459 617 384 598 328 564 L218 713 L148 655 L266 518 C202 455 176 376 175 304 C175 263 187 218 205 190 L37 47 L91 -13 L253 139 C296 105 363 83 456 83 L696 83 Z M267 316 C267 423 325 539 538 539 L778 539 C931 539 982 473 982 384 C982 277 923 161 710 161 L470 161 C319 161 267 227 267 316 L267 316 Z " />
<glyph glyph-name="yen" unicode="&#xa5;" horiz-adv-x="1246" d="M1094 700 L617 334 L271 700 L149 700 L436 408 L116 408 L103 339 L495 339 L565 265 L557 215 L82 215 L68 146 L544 146 L519 0 L607 0 L632 146 L1108 146 L1121 215 L645 215 L653 265 L751 339 L1142 339 L1156 408 L836 408 L1227 700 L1094 700 Z " />
<glyph glyph-name="brokenbar" unicode="&#xa6;" horiz-adv-x="500" d="M288 467 L288 850 L212 850 L212 467 L288 467 Z M212 233 L212 -150 L288 -150 L288 233 L212 233 Z " />
<glyph glyph-name="section" unicode="&#xa7;" horiz-adv-x="1177" d="M763 147 C833 147 860 115 860 77 C860 25 827 -27 728 -27 L153 -27 L138 -100 L745 -100 C884 -100 940 -22 940 62 C940 98 925 131 897 149 L911 149 C1049 149 1104 236 1104 325 C1104 396 1057 453 941 453 L401 453 C331 453 304 485 304 523 C304 575 337 627 436 627 L1011 627 L1026 700 L419 700 C280 700 224 622 224 538 C224 502 239 469 267 451 L253 451 C115 451 60 364 60 275 C60 204 107 147 223 147 L763 147 Z M923 387 C998 387 1022 355 1022 316 C1022 262 988 213 889 213 L241 213 C166 213 142 245 142 284 C142 338 176 387 275 387 L923 387 Z " />
<glyph glyph-name="dieresis" unicode="&#xa8;" horiz-adv-x="480" d="M381 675 L471 675 L487 765 L397 765 L381 675 Z M126 675 L216 675 L231 765 L142 765 L126 675 Z " />
<glyph glyph-name="copyright" unicode="&#xa9;" horiz-adv-x="1160" d="M662 -10 C975 -10 1098 151 1098 350 C1098 549 975 710 662 710 L502 710 C189 710 66 549 66 350 C66 151 189 -10 502 -10 L662 -10 Z M503 49 C232 49 134 183 134 350 C134 517 232 651 503 651 L661 651 C932 651 1030 517 1030 350 C1030 183 932 49 661 49 L503 49 Z M794 225 L513 225 C396 225 358 281 358 350 C358 419 396 475 513 475 L794 475 L794 525 L512 525 C359 525 300 446 300 350 C300 253 359 175 512 175 L794 175 L794 225 Z " />
<glyph glyph-name="ordfeminine" unicode="&#xaa;" horiz-adv-x="732" d="M591 350 L672 350 L466 700 L396 700 L64 350 L150 350 L205 410 L556 410 L591 350 Z M419 641 L523 466 L256 466 L419 641 Z " />
<glyph glyph-name="guillemotleft" unicode="&#xab;" horiz-adv-x="752" d="M324 560 L82 281 L227 0 L316 0 L174 275 L422 560 L324 560 Z M608 560 L366 281 L511 0 L600 0 L458 275 L706 560 L608 560 Z " />
<glyph glyph-name="logicalnot" unicode="&#xac;" horiz-adv-x="1246" d="M279 310 L883 310 L883 40 L971 40 L971 390 L279 390 L279 310 Z " />
<glyph glyph-name="uni00AD" unicode="&#xad;" horiz-adv-x="576" d="M73 245 L469 245 L483 315 L87 315 L73 245 Z " />
<glyph glyph-name="registered" unicode="&#xae;" horiz-adv-x="1160" d="M662 -10 C975 -10 1098 151 1098 350 C1098 549 975 710 662 710 L502 710 C189 710 66 549 66 350 C66 151 189 -10 502 -10 L662 -10 Z M503 49 C232 49 134 183 134 350 C134 517 232 651 503 651 L661 651 C932 651 1029 517 1029 350 C1029 183 932 49 661 49 L503 49 Z M334 175 L389 175 L389 306 L605 306 L803 175 L886 175 L684 307 L694 307 C789 307 827 354 827 416 C827 476 790 525 694 525 L334 525 L334 175 Z M689 475 C750 475 768 448 768 414 C768 379 750 354 689 354 L389 354 L389 475 L689 475 Z " />
<glyph glyph-name="macron" unicode="&#xaf;" horiz-adv-x="480" d="M118 691 L486 691 L496 749 L128 749 L118 691 Z " />
<glyph glyph-name="degree" unicode="&#xb0;" horiz-adv-x="543" d="M101 509 C101 393 192 308 303 308 C414 308 505 393 505 509 C505 625 414 710 303 710 C192 710 101 625 101 509 L101 509 Z M171 509 C171 588 227 646 303 646 C379 646 435 588 435 509 C435 430 379 372 303 372 C227 372 171 430 171 509 L171 509 Z " />
<glyph glyph-name="plusminus" unicode="&#xb1;" horiz-adv-x="1246" d="M279 400 L581 400 L581 180 L669 180 L669 400 L971 400 L971 480 L669 480 L669 700 L581 700 L581 480 L279 480 L279 400 Z M279 0 L971 0 L971 80 L279 80 L279 0 Z " />
<glyph glyph-name="twosuperior" unicode="&#xb2;" horiz-adv-x="716" d="M627 410 L171 410 L179 454 C184 478 203 499 251 499 L534 499 C640 499 677 551 677 614 C677 662 646 700 568 700 L180 700 L169 640 L555 640 C597 640 608 623 608 602 C608 575 588 551 537 551 L259 551 C169 551 127 508 115 451 L99 350 L617 350 L627 410 Z " />
<glyph glyph-name="threesuperior" unicode="&#xb3;" horiz-adv-x="716" d="M84 350 L511 350 C604 350 641 402 641 458 C641 493 623 520 582 530 C628 548 647 586 647 625 C647 667 620 700 552 700 L157 700 L146 640 L524 640 C566 640 576 623 576 602 C576 575 556 551 506 551 L171 551 L162 499 L520 499 C561 499 573 483 573 461 C573 435 553 410 502 410 L95 410 L84 350 Z " />
<glyph glyph-name="acute" unicode="&#xb4;" horiz-adv-x="480" d="M221 635 L282 635 L462 806 L355 806 L221 635 Z " />
<glyph glyph-name="uni00B5" unicode="&#xb5;" horiz-adv-x="1246" d="M997 0 L1058 0 L1157 560 L1069 560 L1033 356 C1006 202 901 80 651 80 L323 80 C210 80 179 129 191 196 L256 560 L168 560 L31 -200 L119 -200 L170 81 C187 18 247 0 329 0 L651 0 C845 0 951 74 1008 175 L997 0 Z " />
<glyph glyph-name="paragraph" unicode="&#xb6;" horiz-adv-x="1151" d="M603 620 L875 620 L875 -100 L963 -100 L963 620 L1059 620 L1059 700 L324 700 C134 700 62 603 62 485 C62 364 134 270 324 270 L515 270 L515 -100 L603 -100 L603 620 Z " />
<glyph glyph-name="periodcentered" unicode="&#xb7;" horiz-adv-x="285" d="M88 300 L186 300 L205 400 L106 400 L88 300 Z " />
<glyph glyph-name="cedilla" unicode="&#xb8;" horiz-adv-x="480" d="M112 -108 L136 -108 C192 -108 222 -119 222 -154 C222 -203 168 -217 117 -217 C81 -217 46 -208 30 -197 L23 -237 C47 -251 88 -262 130 -262 C206 -262 286 -236 286 -148 C286 -84 221 -64 163 -69 L195 0 L160 0 L112 -108 Z " />
<glyph glyph-name="onesuperior" unicode="&#xb9;" horiz-adv-x="716" d="M281 640 L407 640 L366 410 L169 410 L158 350 L562 350 L572 410 L432 410 L484 700 L292 700 L281 640 Z " />
<glyph glyph-name="ordmasculine" unicode="&#xba;" horiz-adv-x="730" d="M438 345 C619 345 691 444 691 555 C691 636 637 705 501 705 L361 705 C180 705 108 605 108 495 C108 413 162 345 298 345 L438 345 Z M309 405 C210 405 175 449 175 504 C175 576 222 645 355 645 L490 645 C587 645 623 601 623 545 C623 473 576 405 444 405 L309 405 Z " />
<glyph glyph-name="guillemotright" unicode="&#xbb;" horiz-adv-x="752" d="M126 0 L368 279 L223 560 L134 560 L275 285 L28 0 L126 0 Z M410 0 L652 279 L507 560 L418 560 L559 285 L312 0 L410 0 Z " />
<glyph glyph-name="onequarter" unicode="&#xbc;" horiz-adv-x="1432" d="M281 640 L407 640 L366 410 L169 410 L158 350 L562 350 L572 410 L432 410 L484 700 L292 700 L281 640 Z M1138 700 L202 0 L299 0 L1235 700 L1138 700 Z M1245 350 L758 109 L748 59 L1189 59 L1180 0 L1246 0 L1255 59 L1309 59 L1320 119 L1266 119 L1308 350 L1245 350 Z M894 119 L1230 284 L1201 119 L894 119 Z " />
<glyph glyph-name="onehalf" unicode="&#xbd;" horiz-adv-x="1432" d="M281 640 L407 640 L366 410 L169 410 L158 350 L562 350 L572 410 L432 410 L484 700 L292 700 L281 640 Z M1138 700 L202 0 L299 0 L1235 700 L1138 700 Z M1281 60 L825 60 L833 104 C838 128 857 149 905 149 L1188 149 C1294 149 1331 201 1331 264 C1331 312 1300 350 1222 350 L834 350 L823 290 L1209 290 C1251 290 1262 273 1262 252 C1262 225 1242 201 1191 201 L913 201 C823 201 781 158 769 101 L753 0 L1271 0 L1281 60 Z " />
<glyph glyph-name="threequarters" unicode="&#xbe;" horiz-adv-x="1432" d="M84 350 L511 350 C604 350 641 402 641 458 C641 493 623 520 582 530 C628 548 647 586 647 625 C647 667 620 700 552 700 L157 700 L146 640 L524 640 C566 640 576 623 576 602 C576 575 556 551 506 551 L171 551 L162 499 L520 499 C561 499 573 483 573 461 C573 435 553 410 502 410 L95 410 L84 350 Z M1138 700 L202 0 L299 0 L1235 700 L1138 700 Z M1245 350 L758 109 L748 59 L1189 59 L1180 0 L1246 0 L1255 59 L1309 59 L1320 119 L1266 119 L1308 350 L1245 350 Z M894 119 L1230 284 L1201 119 L894 119 Z " />
<glyph glyph-name="questiondown" unicode="&#xbf;" horiz-adv-x="1027" d="M750 533 L669 533 L644 385 L280 385 C81 385 5 280 5 162 C5 71 60 0 212 0 L937 0 L952 80 L229 80 C129 80 98 124 98 177 C98 250 145 315 272 315 L711 315 L750 533 Z M789 700 L689 700 L672 600 L771 600 L789 700 Z " />
<glyph glyph-name="Agrave" unicode="&#xc0;" horiz-adv-x="1220" d="M1046 0 L1150 0 L722 700 L628 700 L-49 0 L63 0 L195 138 L962 138 L1046 0 Z M665 626 L917 211 L265 211 L665 626 Z M681 946 L582 946 L700 775 L754 775 L681 946 Z " />
<glyph glyph-name="Aacute" unicode="&#xc1;" horiz-adv-x="1220" d="M1046 0 L1150 0 L722 700 L628 700 L-49 0 L63 0 L195 138 L962 138 L1046 0 Z M665 626 L917 211 L265 211 L665 626 Z M615 775 L676 775 L856 946 L749 946 L615 775 Z " />
<glyph glyph-name="Acircumflex" unicode="&#xc2;" horiz-adv-x="1220" d="M1046 0 L1150 0 L722 700 L628 700 L-49 0 L63 0 L195 138 L962 138 L1046 0 Z M665 626 L917 211 L265 211 L665 626 Z M515 775 L574 775 L710 900 L800 775 L855 775 L769 946 L664 946 L515 775 Z " />
<glyph glyph-name="Atilde" unicode="&#xc3;" horiz-adv-x="1220" d="M1046 0 L1150 0 L722 700 L628 700 L-49 0 L63 0 L195 138 L962 138 L1046 0 Z M665 626 L917 211 L265 211 L665 626 Z M836 931 C820 872 800 861 774 861 C730 861 700 923 638 923 C587 923 546 893 520 790 L565 790 C580 848 602 860 628 860 C671 860 700 798 762 798 C814 798 855 828 881 931 L836 931 Z " />
<glyph glyph-name="Adieresis" unicode="&#xc4;" horiz-adv-x="1220" d="M1046 0 L1150 0 L722 700 L628 700 L-49 0 L63 0 L195 138 L962 138 L1046 0 Z M665 626 L917 211 L265 211 L665 626 Z M775 815 L865 815 L881 905 L791 905 L775 815 Z M520 815 L610 815 L625 905 L536 905 L520 815 Z " />
<glyph glyph-name="Aring" unicode="&#xc5;" horiz-adv-x="1220" d="M1046 0 L1150 0 L722 700 L628 700 L-49 0 L63 0 L195 138 L962 138 L1046 0 Z M665 626 L917 211 L265 211 L665 626 Z M635 856 C635 894 670 925 707 925 C741 925 764 899 764 866 C764 828 731 796 694 796 C660 796 635 822 635 856 L635 856 Z M583 851 C583 794 625 750 688 750 C759 750 817 805 817 871 C817 927 774 971 711 971 C640 971 583 918 583 851 L583 851 Z " />
<glyph glyph-name="AE" unicode="&#xc6;" horiz-adv-x="1636" d="M669 136 L646 0 L1499 0 L1513 80 L748 80 L789 313 L1456 313 L1470 387 L803 387 L843 620 L1609 620 L1624 700 L724 700 L-49 0 L64 0 L213 136 L669 136 Z M294 210 L758 632 L684 210 L294 210 Z " />
<glyph glyph-name="Ccedilla" unicode="&#xc7;" horiz-adv-x="1137" d="M487 -108 L511 -108 C567 -108 597 -119 597 -154 C597 -203 543 -217 492 -217 C456 -217 421 -208 405 -197 L398 -237 C422 -251 463 -262 505 -262 C581 -262 661 -236 661 -148 C661 -84 596 -64 538 -69 L570 0 L998 0 L1012 80 L452 80 C235 80 162 179 162 307 C162 462 257 620 547 620 L1108 620 L1123 700 L554 700 C208 700 68 507 68 296 C68 130 170 0 438 0 L535 0 L487 -108 Z " />
<glyph glyph-name="Egrave" unicode="&#xc8;" horiz-adv-x="1151" d="M59 0 L1013 0 L1027 80 L161 80 L201 313 L969 313 L984 387 L216 387 L256 620 L1122 620 L1138 700 L184 700 L59 0 Z M657 946 L558 946 L676 775 L730 775 L657 946 Z " />
<glyph glyph-name="Eacute" unicode="&#xc9;" horiz-adv-x="1151" d="M59 0 L1013 0 L1027 80 L161 80 L201 313 L969 313 L984 387 L216 387 L256 620 L1122 620 L1138 700 L184 700 L59 0 Z M591 775 L652 775 L832 946 L725 946 L591 775 Z " />
<glyph glyph-name="Ecircumflex" unicode="&#xca;" horiz-adv-x="1151" d="M59 0 L1013 0 L1027 80 L161 80 L201 313 L969 313 L984 387 L216 387 L256 620 L1122 620 L1138 700 L184 700 L59 0 Z M491 775 L550 775 L686 900 L776 775 L831 775 L745 946 L640 946 L491 775 Z " />
<glyph glyph-name="Edieresis" unicode="&#xcb;" horiz-adv-x="1151" d="M59 0 L1013 0 L1027 80 L161 80 L201 313 L969 313 L984 387 L216 387 L256 620 L1122 620 L1138 700 L184 700 L59 0 Z M751 815 L841 815 L857 905 L767 905 L751 815 Z M496 815 L586 815 L601 905 L512 905 L496 815 Z " />
<glyph glyph-name="Igrave" unicode="&#xcc;" horiz-adv-x="326" d="M59 0 L147 0 L272 700 L184 700 L59 0 Z M234 946 L135 946 L253 775 L307 775 L234 946 Z " />
<glyph glyph-name="Iacute" unicode="&#xcd;" horiz-adv-x="326" d="M59 0 L147 0 L272 700 L184 700 L59 0 Z M168 775 L229 775 L409 946 L302 946 L168 775 Z " />
<glyph glyph-name="Icircumflex" unicode="&#xce;" horiz-adv-x="326" d="M59 0 L147 0 L272 700 L184 700 L59 0 Z M68 775 L127 775 L263 900 L353 775 L408 775 L322 946 L217 946 L68 775 Z " />
<glyph glyph-name="Idieresis" unicode="&#xcf;" horiz-adv-x="326" d="M59 0 L147 0 L272 700 L184 700 L59 0 Z M327 815 L417 815 L433 905 L343 905 L327 815 Z M72 815 L162 815 L177 905 L88 905 L72 815 Z " />
<glyph glyph-name="Eth" unicode="&#xd0;" horiz-adv-x="1205" d="M-11 313 L115 313 L59 0 L654 0 C1000 0 1140 193 1140 404 C1140 569 1038 700 770 700 L184 700 L128 387 L3 387 L-11 313 Z M756 620 C972 620 1046 520 1046 393 C1046 238 950 80 660 80 L160 80 L201 313 L607 313 L621 387 L214 387 L255 620 L756 620 Z " />
<glyph glyph-name="Ntilde" unicode="&#xd1;" horiz-adv-x="1253" d="M990 0 L1074 0 L1199 700 L1111 700 L1003 95 L267 700 L184 700 L59 0 L147 0 L253 605 L990 0 Z M852 931 C836 872 816 861 790 861 C746 861 716 923 654 923 C603 923 562 893 536 790 L581 790 C596 848 618 860 644 860 C687 860 716 798 778 798 C830 798 871 828 897 931 L852 931 Z " />
<glyph glyph-name="Ograve" unicode="&#xd2;" horiz-adv-x="1294" d="M730 -10 C1092 -10 1229 187 1229 411 C1229 580 1122 710 851 710 L569 710 C210 710 68 516 68 294 C68 122 176 -10 448 -10 L730 -10 Z M465 70 C239 70 162 172 162 305 C162 468 264 630 566 630 L834 630 C1057 630 1135 529 1135 399 C1135 232 1034 70 733 70 L465 70 Z M718 946 L619 946 L737 775 L791 775 L718 946 Z " />
<glyph glyph-name="Oacute" unicode="&#xd3;" horiz-adv-x="1294" d="M730 -10 C1092 -10 1229 187 1229 411 C1229 580 1122 710 851 710 L569 710 C210 710 68 516 68 294 C68 122 176 -10 448 -10 L730 -10 Z M465 70 C239 70 162 172 162 305 C162 468 264 630 566 630 L834 630 C1057 630 1135 529 1135 399 C1135 232 1034 70 733 70 L465 70 Z M652 775 L713 775 L893 946 L786 946 L652 775 Z " />
<glyph glyph-name="Ocircumflex" unicode="&#xd4;" horiz-adv-x="1294" d="M730 -10 C1092 -10 1229 187 1229 411 C1229 580 1122 710 851 710 L569 710 C210 710 68 516 68 294 C68 122 176 -10 448 -10 L730 -10 Z M465 70 C239 70 162 172 162 305 C162 468 264 630 566 630 L834 630 C1057 630 1135 529 1135 399 C1135 232 1034 70 733 70 L465 70 Z M552 775 L611 775 L747 900 L837 775 L892 775 L806 946 L701 946 L552 775 Z " />
<glyph glyph-name="Otilde" unicode="&#xd5;" horiz-adv-x="1294" d="M730 -10 C1092 -10 1229 187 1229 411 C1229 580 1122 710 851 710 L569 710 C210 710 68 516 68 294 C68 122 176 -10 448 -10 L730 -10 Z M465 70 C239 70 162 172 162 305 C162 468 264 630 566 630 L834 630 C1057 630 1135 529 1135 399 C1135 232 1034 70 733 70 L465 70 Z M873 931 C857 872 837 861 811 861 C767 861 737 923 675 923 C624 923 583 893 557 790 L602 790 C617 848 639 860 665 860 C708 860 737 798 799 798 C851 798 892 828 918 931 L873 931 Z " />
<glyph glyph-name="Odieresis" unicode="&#xd6;" horiz-adv-x="1294" d="M730 -10 C1092 -10 1229 187 1229 411 C1229 580 1122 710 851 710 L569 710 C210 710 68 516 68 294 C68 122 176 -10 448 -10 L730 -10 Z M465 70 C239 70 162 172 162 305 C162 468 264 630 566 630 L834 630 C1057 630 1135 529 1135 399 C1135 232 1034 70 733 70 L465 70 Z M812 815 L902 815 L918 905 L828 905 L812 815 Z M557 815 L647 815 L662 905 L573 905 L557 815 Z " />
<glyph glyph-name="multiply" unicode="&#xd7;" horiz-adv-x="1246" d="M922 584 L863 644 L623 403 L388 640 L328 580 L565 349 L328 116 L388 56 L624 294 L863 56 L922 116 L682 349 L922 584 Z " />
<glyph glyph-name="Oslash" unicode="&#xd8;" horiz-adv-x="1294" d="M730 -10 C1092 -10 1229 187 1229 411 C1229 539 1167 645 1018 689 L1122 800 L1020 800 L931 705 C906 708 879 710 851 710 L569 710 C210 710 68 516 68 294 C68 163 130 55 280 11 L176 -100 L278 -100 L366 -5 C392 -8 419 -10 448 -10 L730 -10 Z M162 305 C162 468 264 630 566 630 L834 630 C843 630 851 630 860 629 L346 81 C211 112 162 198 162 305 L162 305 Z M438 70 L951 618 C1085 588 1135 503 1135 399 C1135 232 1034 70 733 70 L438 70 Z " />
<glyph glyph-name="Ugrave" unicode="&#xd9;" horiz-adv-x="1224" d="M184 323 L253 700 L165 700 L96 323 C61 130 137 -10 433 -10 L681 -10 C975 -10 1086 118 1120 309 L1190 700 L1102 700 L1035 326 C1006 170 918 70 693 70 L445 70 C211 70 158 174 184 323 L184 323 Z M683 946 L584 946 L702 775 L756 775 L683 946 Z " />
<glyph glyph-name="Uacute" unicode="&#xda;" horiz-adv-x="1224" d="M184 323 L253 700 L165 700 L96 323 C61 130 137 -10 433 -10 L681 -10 C975 -10 1086 118 1120 309 L1190 700 L1102 700 L1035 326 C1006 170 918 70 693 70 L445 70 C211 70 158 174 184 323 L184 323 Z M617 775 L678 775 L858 946 L751 946 L617 775 Z " />
<glyph glyph-name="Ucircumflex" unicode="&#xdb;" horiz-adv-x="1224" d="M184 323 L253 700 L165 700 L96 323 C61 130 137 -10 433 -10 L681 -10 C975 -10 1086 118 1120 309 L1190 700 L1102 700 L1035 326 C1006 170 918 70 693 70 L445 70 C211 70 158 174 184 323 L184 323 Z M517 775 L576 775 L712 900 L802 775 L857 775 L771 946 L666 946 L517 775 Z " />
<glyph glyph-name="Udieresis" unicode="&#xdc;" horiz-adv-x="1224" d="M184 323 L253 700 L165 700 L96 323 C61 130 137 -10 433 -10 L681 -10 C975 -10 1086 118 1120 309 L1190 700 L1102 700 L1035 326 C1006 170 918 70 693 70 L445 70 C211 70 158 174 184 323 L184 323 Z M777 815 L867 815 L883 905 L793 905 L777 815 Z M522 815 L612 815 L627 905 L538 905 L522 815 Z " />
<glyph glyph-name="Yacute" unicode="&#xdd;" horiz-adv-x="1196" d="M494 0 L582 0 L619 212 L1261 700 L1126 700 L583 280 L190 700 L67 700 L531 212 L494 0 Z M603 775 L664 775 L844 946 L737 946 L603 775 Z " />
<glyph glyph-name="Thorn" unicode="&#xde;" horiz-adv-x="1147" d="M59 0 L147 0 L171 135 L818 135 C1037 135 1123 248 1123 384 C1123 484 1063 565 895 565 L248 565 L272 700 L184 700 L59 0 Z M878 485 C993 485 1031 435 1031 371 C1031 289 974 215 829 215 L186 215 L233 485 L878 485 Z " />
<glyph glyph-name="germandbls" unicode="&#xdf;" horiz-adv-x="1044" d="M455 250 L748 250 C828 250 853 218 853 176 C853 121 819 69 714 69 L299 69 L287 0 L707 0 C880 0 935 89 935 182 C935 255 890 310 763 310 L590 310 L944 506 L950 560 L466 560 C208 560 110 450 83 296 L30 0 L109 0 L162 296 C181 411 254 491 457 491 L792 491 L465 304 L455 250 Z " />
<glyph glyph-name="agrave" unicode="&#xe0;" horiz-adv-x="1044" d="M878 0 L973 0 L605 560 L519 560 L-48 0 L54 0 L169 114 L803 114 L878 0 Z M554 495 L763 176 L231 176 L554 495 Z M569 806 L470 806 L588 635 L642 635 L569 806 Z " />
<glyph glyph-name="aacute" unicode="&#xe1;" horiz-adv-x="1044" d="M878 0 L973 0 L605 560 L519 560 L-48 0 L54 0 L169 114 L803 114 L878 0 Z M554 495 L763 176 L231 176 L554 495 Z M503 635 L564 635 L744 806 L637 806 L503 635 Z " />
<glyph glyph-name="acircumflex" unicode="&#xe2;" horiz-adv-x="1044" d="M878 0 L973 0 L605 560 L519 560 L-48 0 L54 0 L169 114 L803 114 L878 0 Z M554 495 L763 176 L231 176 L554 495 Z M403 635 L462 635 L598 760 L688 635 L743 635 L657 806 L552 806 L403 635 Z " />
<glyph glyph-name="atilde" unicode="&#xe3;" horiz-adv-x="1044" d="M878 0 L973 0 L605 560 L519 560 L-48 0 L54 0 L169 114 L803 114 L878 0 Z M554 495 L763 176 L231 176 L554 495 Z M723 791 C707 732 687 721 661 721 C617 721 587 783 525 783 C474 783 433 753 407 650 L452 650 C467 708 489 720 515 720 C558 720 587 658 649 658 C701 658 742 688 768 791 L723 791 Z " />
<glyph glyph-name="adieresis" unicode="&#xe4;" horiz-adv-x="1044" d="M878 0 L973 0 L605 560 L519 560 L-48 0 L54 0 L169 114 L803 114 L878 0 Z M554 495 L763 176 L231 176 L554 495 Z M663 675 L753 675 L769 765 L679 765 L663 675 Z M408 675 L498 675 L513 765 L424 765 L408 675 Z " />
<glyph glyph-name="aring" unicode="&#xe5;" horiz-adv-x="1044" d="M878 0 L973 0 L605 560 L519 560 L-48 0 L54 0 L169 114 L803 114 L878 0 Z M554 495 L763 176 L231 176 L554 495 Z M523 716 C523 754 558 785 595 785 C629 785 652 759 652 726 C652 688 619 656 582 656 C548 656 523 682 523 716 L523 716 Z M471 711 C471 654 513 610 576 610 C647 610 705 665 705 731 C705 787 662 831 599 831 C528 831 471 778 471 711 L471 711 Z " />
<glyph glyph-name="ae" unicode="&#xe6;" horiz-adv-x="1400" d="M562 108 L544 0 L1270 0 L1282 69 L635 69 L666 249 L1229 249 L1241 311 L678 311 L709 491 L1357 491 L1369 560 L600 560 L-48 0 L55 0 L180 108 L562 108 Z M252 170 L632 498 L573 170 L252 170 Z " />
<glyph glyph-name="ccedilla" unicode="&#xe7;" horiz-adv-x="974" d="M398 -108 L422 -108 C478 -108 508 -119 508 -154 C508 -203 454 -217 403 -217 C367 -217 332 -208 316 -197 L309 -237 C333 -251 374 -262 416 -262 C492 -262 572 -236 572 -148 C572 -84 507 -64 449 -69 L481 0 L845 0 L857 69 L367 69 C195 69 137 141 137 241 C137 368 225 491 456 491 L932 491 L946 560 L460 560 C159 560 52 400 52 232 C52 102 134 0 359 0 L446 0 L398 -108 Z " />
<glyph glyph-name="egrave" unicode="&#xe8;" horiz-adv-x="992" d="M49 0 L861 0 L873 69 L140 69 L172 249 L820 249 L832 311 L184 311 L215 491 L947 491 L960 560 L148 560 L49 0 Z M555 806 L456 806 L574 635 L628 635 L555 806 Z " />
<glyph glyph-name="eacute" unicode="&#xe9;" horiz-adv-x="992" d="M49 0 L861 0 L873 69 L140 69 L172 249 L820 249 L832 311 L184 311 L215 491 L947 491 L960 560 L148 560 L49 0 Z M489 635 L550 635 L730 806 L623 806 L489 635 Z " />
<glyph glyph-name="ecircumflex" unicode="&#xea;" horiz-adv-x="992" d="M49 0 L861 0 L873 69 L140 69 L172 249 L820 249 L832 311 L184 311 L215 491 L947 491 L960 560 L148 560 L49 0 Z M389 635 L448 635 L584 760 L674 635 L729 635 L643 806 L538 806 L389 635 Z " />
<glyph glyph-name="edieresis" unicode="&#xeb;" horiz-adv-x="992" d="M49 0 L861 0 L873 69 L140 69 L172 249 L820 249 L832 311 L184 311 L215 491 L947 491 L960 560 L148 560 L49 0 Z M649 675 L739 675 L755 765 L665 765 L649 675 Z M394 675 L484 675 L499 765 L410 765 L394 675 Z " />
<glyph glyph-name="igrave" unicode="&#xec;" horiz-adv-x="297" d="M195 806 L96 806 L214 635 L268 635 L195 806 Z M49 0 L128 0 L227 560 L148 560 L49 0 Z " />
<glyph glyph-name="iacute" unicode="&#xed;" horiz-adv-x="297" d="M129 635 L190 635 L370 806 L263 806 L129 635 Z M49 0 L128 0 L227 560 L148 560 L49 0 Z " />
<glyph glyph-name="icircumflex" unicode="&#xee;" horiz-adv-x="297" d="M49 0 L128 0 L227 560 L148 560 L49 0 Z M29 635 L88 635 L224 760 L314 635 L369 635 L283 806 L178 806 L29 635 Z " />
<glyph glyph-name="idieresis" unicode="&#xef;" horiz-adv-x="297" d="M289 675 L379 675 L395 765 L305 765 L289 675 Z M34 675 L124 675 L139 765 L50 765 L34 675 Z M49 0 L128 0 L227 560 L148 560 L49 0 Z " />
<glyph glyph-name="eth" unicode="&#xf0;" horiz-adv-x="1037" d="M-23 249 L93 249 L49 0 L559 0 C860 0 967 160 967 328 C967 458 884 560 660 560 L149 560 L104 311 L-11 311 L-23 249 Z M651 491 C824 491 882 419 882 319 C882 192 794 69 563 69 L141 69 L172 249 L524 249 L537 311 L183 311 L215 491 L651 491 Z " />
<glyph glyph-name="ntilde" unicode="&#xf1;" horiz-adv-x="1082" d="M913 0 L1012 560 L933 560 L848 84 L223 560 L148 560 L49 0 L128 0 L213 476 L838 0 L913 0 Z M742 791 C726 732 706 721 680 721 C636 721 606 783 544 783 C493 783 452 753 426 650 L471 650 C486 708 508 720 534 720 C577 720 606 658 668 658 C720 658 761 688 787 791 L742 791 Z " />
<glyph glyph-name="ograve" unicode="&#xf2;" horiz-adv-x="1109" d="M617 -8 C922 -8 1036 152 1037 326 C1039 461 955 568 721 568 L471 568 C166 568 53 408 52 234 C51 99 132 -8 367 -8 L617 -8 Z M381 61 C196 61 135 140 136 239 C136 370 226 499 463 499 L708 499 C893 499 953 420 953 320 C953 192 865 61 626 61 L381 61 Z M602 806 L503 806 L621 635 L675 635 L602 806 Z " />
<glyph glyph-name="oacute" unicode="&#xf3;" horiz-adv-x="1109" d="M617 -8 C922 -8 1036 152 1037 326 C1039 461 955 568 721 568 L471 568 C166 568 53 408 52 234 C51 99 132 -8 367 -8 L617 -8 Z M381 61 C196 61 135 140 136 239 C136 370 226 499 463 499 L708 499 C893 499 953 420 953 320 C953 192 865 61 626 61 L381 61 Z M536 635 L597 635 L777 806 L670 806 L536 635 Z " />
<glyph glyph-name="ocircumflex" unicode="&#xf4;" horiz-adv-x="1109" d="M617 -8 C922 -8 1036 152 1037 326 C1039 461 955 568 721 568 L471 568 C166 568 53 408 52 234 C51 99 132 -8 367 -8 L617 -8 Z M381 61 C196 61 135 140 136 239 C136 370 226 499 463 499 L708 499 C893 499 953 420 953 320 C953 192 865 61 626 61 L381 61 Z M436 635 L495 635 L631 760 L721 635 L776 635 L690 806 L585 806 L436 635 Z " />
<glyph glyph-name="otilde" unicode="&#xf5;" horiz-adv-x="1109" d="M617 -8 C922 -8 1036 152 1037 326 C1039 461 955 568 721 568 L471 568 C166 568 53 408 52 234 C51 99 132 -8 367 -8 L617 -8 Z M381 61 C196 61 135 140 136 239 C136 370 226 499 463 499 L708 499 C893 499 953 420 953 320 C953 192 865 61 626 61 L381 61 Z M756 791 C740 732 720 721 694 721 C650 721 620 783 558 783 C507 783 466 753 440 650 L485 650 C500 708 522 720 548 720 C591 720 620 658 682 658 C734 658 775 688 801 791 L756 791 Z " />
<glyph glyph-name="odieresis" unicode="&#xf6;" horiz-adv-x="1109" d="M617 -8 C922 -8 1036 152 1037 326 C1039 461 955 568 721 568 L471 568 C166 568 53 408 52 234 C51 99 132 -8 367 -8 L617 -8 Z M381 61 C196 61 135 140 136 239 C136 370 226 499 463 499 L708 499 C893 499 953 420 953 320 C953 192 865 61 626 61 L381 61 Z M695 675 L785 675 L801 765 L711 765 L695 675 Z M440 675 L530 675 L545 765 L456 765 L440 675 Z " />
<glyph glyph-name="divide" unicode="&#xf7;" horiz-adv-x="1246" d="M279 310 L971 310 L971 390 L279 390 L279 310 Z M578 40 L672 40 L672 134 L578 134 L578 40 Z M578 566 L672 566 L672 660 L578 660 L578 566 Z " />
<glyph glyph-name="oslash" unicode="&#xf8;" horiz-adv-x="1109" d="M617 -8 C922 -8 1036 152 1037 326 C1038 430 988 518 856 552 L942 640 L850 640 L777 565 C759 567 740 568 721 568 L471 568 C166 568 53 408 52 234 C51 129 99 42 230 8 L144 -80 L236 -80 L309 -5 C327 -7 346 -8 367 -8 L617 -8 Z M374 61 L796 491 C912 469 953 402 953 320 C953 192 865 61 626 61 L374 61 Z M136 239 C136 370 226 499 463 499 L711 499 L290 69 C175 91 135 158 136 239 L136 239 Z " />
<glyph glyph-name="ugrave" unicode="&#xf9;" horiz-adv-x="1051" d="M153 257 L208 560 L129 560 L75 258 C47 104 97 -8 354 -8 L585 -8 C826 -8 916 85 944 242 L1000 560 L922 560 L867 257 C845 135 783 61 592 61 L366 61 C165 61 133 140 153 257 L153 257 Z M573 806 L474 806 L592 635 L646 635 L573 806 Z " />
<glyph glyph-name="uacute" unicode="&#xfa;" horiz-adv-x="1051" d="M153 257 L208 560 L129 560 L75 258 C47 104 97 -8 354 -8 L585 -8 C826 -8 916 85 944 242 L1000 560 L922 560 L867 257 C845 135 783 61 592 61 L366 61 C165 61 133 140 153 257 L153 257 Z M507 635 L568 635 L748 806 L641 806 L507 635 Z " />
<glyph glyph-name="ucircumflex" unicode="&#xfb;" horiz-adv-x="1051" d="M153 257 L208 560 L129 560 L75 258 C47 104 97 -8 354 -8 L585 -8 C826 -8 916 85 944 242 L1000 560 L922 560 L867 257 C845 135 783 61 592 61 L366 61 C165 61 133 140 153 257 L153 257 Z M407 635 L466 635 L602 760 L692 635 L747 635 L661 806 L556 806 L407 635 Z " />
<glyph glyph-name="udieresis" unicode="&#xfc;" horiz-adv-x="1051" d="M153 257 L208 560 L129 560 L75 258 C47 104 97 -8 354 -8 L585 -8 C826 -8 916 85 944 242 L1000 560 L922 560 L867 257 C845 135 783 61 592 61 L366 61 C165 61 133 140 153 257 L153 257 Z M667 675 L757 675 L773 765 L683 765 L667 675 Z M412 675 L502 675 L517 765 L428 765 L412 675 Z " />
<glyph glyph-name="yacute" unicode="&#xfd;" horiz-adv-x="1019" d="M410 0 L490 0 L519 170 L1057 560 L936 560 L486 229 L151 560 L41 560 L440 170 L410 0 Z M490 635 L551 635 L731 806 L624 806 L490 635 Z " />
<glyph glyph-name="thorn" unicode="&#xfe;" horiz-adv-x="999" d="M49 0 L128 0 L148 107 L697 107 C888 107 951 204 951 307 C951 388 901 453 760 453 L210 453 L229 560 L150 560 L49 0 Z M745 384 C838 384 867 347 867 297 C867 237 830 176 708 176 L161 176 L197 384 L745 384 Z " />
<glyph glyph-name="ydieresis" unicode="&#xff;" horiz-adv-x="1019" d="M410 0 L490 0 L519 170 L1057 560 L936 560 L486 229 L151 560 L41 560 L440 170 L410 0 Z M650 675 L740 675 L756 765 L666 765 L650 675 Z M395 675 L485 675 L500 765 L411 765 L395 675 Z " />
<glyph glyph-name="Amacron" unicode="&#x100;" horiz-adv-x="1220" d="M1046 0 L1150 0 L722 700 L628 700 L-49 0 L63 0 L195 138 L962 138 L1046 0 Z M665 626 L917 211 L265 211 L665 626 Z M512 831 L880 831 L890 889 L522 889 L512 831 Z " />
<glyph glyph-name="amacron" unicode="&#x101;" horiz-adv-x="1044" d="M878 0 L973 0 L605 560 L519 560 L-48 0 L54 0 L169 114 L803 114 L878 0 Z M554 495 L763 176 L231 176 L554 495 Z M400 691 L768 691 L778 749 L410 749 L400 691 Z " />
<glyph glyph-name="Abreve" unicode="&#x102;" horiz-adv-x="1220" d="M1046 0 L1150 0 L722 700 L628 700 L-49 0 L63 0 L195 138 L962 138 L1046 0 Z M665 626 L917 211 L265 211 L665 626 Z M697 844 C619 844 596 886 601 935 L554 935 C546 864 567 785 688 785 C807 785 857 862 874 935 L825 935 C811 886 774 844 697 844 L697 844 Z " />
<glyph glyph-name="abreve" unicode="&#x103;" horiz-adv-x="1044" d="M878 0 L973 0 L605 560 L519 560 L-48 0 L54 0 L169 114 L803 114 L878 0 Z M554 495 L763 176 L231 176 L554 495 Z M584 704 C506 704 483 746 488 795 L441 795 C433 724 454 645 575 645 C694 645 744 722 761 795 L712 795 C698 746 661 704 584 704 L584 704 Z " />
<glyph glyph-name="Aogonek" unicode="&#x104;" horiz-adv-x="1220" d="M860 -177 C860 -225 899 -254 962 -254 C1000 -254 1036 -249 1082 -230 L1089 -190 C1050 -205 1029 -209 1002 -209 C961 -209 934 -190 934 -154 C934 -84 1016 -32 1098 0 L1150 0 L722 700 L628 700 L-49 0 L63 0 L195 138 L962 138 L1046 0 C960 -28 860 -91 860 -177 L860 -177 Z M665 626 L917 211 L265 211 L665 626 Z " />
<glyph glyph-name="aogonek" unicode="&#x105;" horiz-adv-x="1044" d="M692 -177 C692 -225 731 -254 794 -254 C832 -254 868 -249 914 -230 L921 -190 C882 -205 861 -209 834 -209 C793 -209 766 -190 766 -154 C766 -84 848 -32 930 0 L973 0 L605 560 L519 560 L-48 0 L54 0 L169 114 L803 114 L878 0 C792 -28 692 -91 692 -177 L692 -177 Z M554 495 L763 176 L231 176 L554 495 Z " />
<glyph glyph-name="Cacute" unicode="&#x106;" horiz-adv-x="1137" d="M162 307 C162 462 257 620 547 620 L1108 620 L1123 700 L554 700 C208 700 68 507 68 296 C68 130 170 0 438 0 L998 0 L1012 80 L452 80 C235 80 162 179 162 307 L162 307 Z M621 775 L682 775 L862 946 L755 946 L621 775 Z " />
<glyph glyph-name="cacute" unicode="&#x107;" horiz-adv-x="974" d="M137 241 C137 368 225 491 456 491 L932 491 L946 560 L460 560 C159 560 52 400 52 232 C52 102 134 0 359 0 L845 0 L857 69 L367 69 C195 69 137 141 137 241 L137 241 Z M507 635 L568 635 L748 806 L641 806 L507 635 Z " />
<glyph glyph-name="Ccircumflex" unicode="&#x108;" horiz-adv-x="1137" d="M162 307 C162 462 257 620 547 620 L1108 620 L1123 700 L554 700 C208 700 68 507 68 296 C68 130 170 0 438 0 L998 0 L1012 80 L452 80 C235 80 162 179 162 307 L162 307 Z M521 775 L580 775 L716 900 L806 775 L861 775 L775 946 L670 946 L521 775 Z " />
<glyph glyph-name="ccircumflex" unicode="&#x109;" horiz-adv-x="974" d="M137 241 C137 368 225 491 456 491 L932 491 L946 560 L460 560 C159 560 52 400 52 232 C52 102 134 0 359 0 L845 0 L857 69 L367 69 C195 69 137 141 137 241 L137 241 Z M407 635 L466 635 L602 760 L692 635 L747 635 L661 806 L556 806 L407 635 Z " />
<glyph glyph-name="Cdotaccent" unicode="&#x10a;" horiz-adv-x="1137" d="M162 307 C162 462 257 620 547 620 L1108 620 L1123 700 L554 700 C208 700 68 507 68 296 C68 130 170 0 438 0 L998 0 L1012 80 L452 80 C235 80 162 179 162 307 L162 307 Z M655 815 L744 815 L759 905 L670 905 L655 815 Z " />
<glyph glyph-name="cdotaccent" unicode="&#x10b;" horiz-adv-x="974" d="M137 241 C137 368 225 491 456 491 L932 491 L946 560 L460 560 C159 560 52 400 52 232 C52 102 134 0 359 0 L845 0 L857 69 L367 69 C195 69 137 141 137 241 L137 241 Z M541 675 L630 675 L645 765 L556 765 L541 675 Z " />
<glyph glyph-name="Ccaron" unicode="&#x10c;" horiz-adv-x="1137" d="M162 307 C162 462 257 620 547 620 L1108 620 L1123 700 L554 700 C208 700 68 507 68 296 C68 130 170 0 438 0 L998 0 L1012 80 L452 80 C235 80 162 179 162 307 L162 307 Z M894 946 L835 946 L699 821 L609 946 L554 946 L640 775 L745 775 L894 946 Z " />
<glyph glyph-name="ccaron" unicode="&#x10d;" horiz-adv-x="974" d="M137 241 C137 368 225 491 456 491 L932 491 L946 560 L460 560 C159 560 52 400 52 232 C52 102 134 0 359 0 L845 0 L857 69 L367 69 C195 69 137 141 137 241 L137 241 Z M780 806 L721 806 L585 681 L495 806 L440 806 L526 635 L631 635 L780 806 Z " />
<glyph glyph-name="Dcaron" unicode="&#x10e;" horiz-adv-x="1205" d="M59 0 L654 0 C1000 0 1140 193 1140 404 C1140 569 1038 700 770 700 L184 700 L59 0 Z M756 620 C972 620 1046 520 1046 393 C1046 238 950 80 660 80 L160 80 L255 620 L756 620 Z M866 946 L807 946 L671 821 L581 946 L526 946 L612 775 L717 775 L866 946 Z " />
<glyph glyph-name="dcaron" unicode="&#x10f;" horiz-adv-x="1037" d="M49 0 L559 0 C860 0 967 160 967 328 C967 458 884 560 660 560 L149 560 L49 0 Z M651 491 C824 491 882 419 882 319 C882 192 794 69 563 69 L141 69 L215 491 L651 491 Z M764 806 L705 806 L569 681 L479 806 L424 806 L510 635 L615 635 L764 806 Z " />
<glyph glyph-name="Dcroat" unicode="&#x110;" horiz-adv-x="1205" d="M-11 313 L115 313 L59 0 L654 0 C1000 0 1140 193 1140 404 C1140 569 1038 700 770 700 L184 700 L128 387 L3 387 L-11 313 Z M756 620 C972 620 1046 520 1046 393 C1046 238 950 80 660 80 L160 80 L201 313 L607 313 L621 387 L214 387 L255 620 L756 620 Z " />
<glyph glyph-name="dcroat" unicode="&#x111;" horiz-adv-x="1037" d="M-23 249 L93 249 L49 0 L559 0 C860 0 967 160 967 328 C967 458 884 560 660 560 L149 560 L104 311 L-11 311 L-23 249 Z M651 491 C824 491 882 419 882 319 C882 192 794 69 563 69 L141 69 L172 249 L524 249 L537 311 L183 311 L215 491 L651 491 Z " />
<glyph glyph-name="Emacron" unicode="&#x112;" horiz-adv-x="1151" d="M59 0 L1013 0 L1027 80 L161 80 L201 313 L969 313 L984 387 L216 387 L256 620 L1122 620 L1138 700 L184 700 L59 0 Z M488 831 L856 831 L866 889 L498 889 L488 831 Z " />
<glyph glyph-name="emacron" unicode="&#x113;" horiz-adv-x="992" d="M49 0 L861 0 L873 69 L140 69 L172 249 L820 249 L832 311 L184 311 L215 491 L947 491 L960 560 L148 560 L49 0 Z M386 691 L754 691 L764 749 L396 749 L386 691 Z " />
<glyph glyph-name="Ebreve" unicode="&#x114;" horiz-adv-x="1151" d="M59 0 L1013 0 L1027 80 L161 80 L201 313 L969 313 L984 387 L216 387 L256 620 L1122 620 L1138 700 L184 700 L59 0 Z M672 844 C594 844 571 886 576 935 L529 935 C521 864 542 785 663 785 C782 785 832 862 849 935 L800 935 C786 886 749 844 672 844 L672 844 Z " />
<glyph glyph-name="ebreve" unicode="&#x115;" horiz-adv-x="992" d="M49 0 L861 0 L873 69 L140 69 L172 249 L820 249 L832 311 L184 311 L215 491 L947 491 L960 560 L148 560 L49 0 Z M571 704 C493 704 470 746 475 795 L428 795 C420 724 441 645 562 645 C681 645 731 722 748 795 L699 795 C685 746 648 704 571 704 L571 704 Z " />
<glyph glyph-name="Edotaccent" unicode="&#x116;" horiz-adv-x="1151" d="M59 0 L1013 0 L1027 80 L161 80 L201 313 L969 313 L984 387 L216 387 L256 620 L1122 620 L1138 700 L184 700 L59 0 Z M625 815 L714 815 L729 905 L640 905 L625 815 Z " />
<glyph glyph-name="edotaccent" unicode="&#x117;" horiz-adv-x="992" d="M49 0 L861 0 L873 69 L140 69 L172 249 L820 249 L832 311 L184 311 L215 491 L947 491 L960 560 L148 560 L49 0 Z M523 675 L612 675 L627 765 L538 765 L523 675 Z " />
<glyph glyph-name="Eogonek" unicode="&#x118;" horiz-adv-x="1151" d="M59 0 L937 0 C851 -28 751 -91 751 -177 C751 -225 790 -254 853 -254 C891 -254 927 -249 973 -230 L980 -190 C941 -205 920 -209 893 -209 C852 -209 825 -190 825 -154 C825 -84 907 -32 989 0 L1013 0 L1027 80 L161 80 L201 313 L969 313 L984 387 L216 387 L256 620 L1122 620 L1138 700 L184 700 L59 0 Z " />
<glyph glyph-name="eogonek" unicode="&#x119;" horiz-adv-x="992" d="M49 0 L785 0 C699 -28 599 -91 599 -177 C599 -225 638 -254 701 -254 C739 -254 775 -249 821 -230 L828 -190 C789 -205 768 -209 741 -209 C700 -209 673 -190 673 -154 C673 -84 755 -32 837 0 L861 0 L873 69 L140 69 L172 249 L820 249 L832 311 L184 311 L215 491 L947 491 L960 560 L148 560 L49 0 Z " />
<glyph glyph-name="Ecaron" unicode="&#x11a;" horiz-adv-x="1151" d="M59 0 L1013 0 L1027 80 L161 80 L201 313 L969 313 L984 387 L216 387 L256 620 L1122 620 L1138 700 L184 700 L59 0 Z M864 946 L805 946 L669 821 L579 946 L524 946 L610 775 L715 775 L864 946 Z " />
<glyph glyph-name="ecaron" unicode="&#x11b;" horiz-adv-x="992" d="M49 0 L861 0 L873 69 L140 69 L172 249 L820 249 L832 311 L184 311 L215 491 L947 491 L960 560 L148 560 L49 0 Z M762 806 L703 806 L567 681 L477 806 L422 806 L508 635 L613 635 L762 806 Z " />
<glyph glyph-name="Gcircumflex" unicode="&#x11c;" horiz-adv-x="1206" d="M634 313 L1020 313 L980 80 L452 80 C235 80 162 179 162 307 C162 462 257 620 547 620 L1108 620 L1123 700 L554 700 C208 700 68 507 68 296 C68 130 170 0 438 0 L1051 0 L1120 387 L648 387 L634 313 Z M531 775 L590 775 L726 900 L816 775 L871 775 L785 946 L680 946 L531 775 Z " />
<glyph glyph-name="gcircumflex" unicode="&#x11d;" horiz-adv-x="1037" d="M359 0 L889 0 L944 311 L542 311 L530 249 L854 249 L824 69 L367 69 C195 69 137 141 137 241 C137 368 225 491 456 491 L931 491 L944 560 L460 560 C159 560 52 400 52 232 C52 102 134 0 359 0 L359 0 Z M411 635 L470 635 L606 760 L696 635 L751 635 L665 806 L560 806 L411 635 Z " />
<glyph glyph-name="Gbreve" unicode="&#x11e;" horiz-adv-x="1206" d="M634 313 L1020 313 L980 80 L452 80 C235 80 162 179 162 307 C162 462 257 620 547 620 L1108 620 L1123 700 L554 700 C208 700 68 507 68 296 C68 130 170 0 438 0 L1051 0 L1120 387 L648 387 L634 313 Z M713 844 C635 844 612 886 617 935 L570 935 C562 864 583 785 704 785 C823 785 873 862 890 935 L841 935 C827 886 790 844 713 844 L713 844 Z " />
<glyph glyph-name="gbreve" unicode="&#x11f;" horiz-adv-x="1037" d="M359 0 L889 0 L944 311 L542 311 L530 249 L854 249 L824 69 L367 69 C195 69 137 141 137 241 C137 368 225 491 456 491 L931 491 L944 560 L460 560 C159 560 52 400 52 232 C52 102 134 0 359 0 L359 0 Z M593 704 C515 704 492 746 497 795 L450 795 C442 724 463 645 584 645 C703 645 753 722 770 795 L721 795 C707 746 670 704 593 704 L593 704 Z " />
<glyph glyph-name="Gdotaccent" unicode="&#x120;" horiz-adv-x="1206" d="M634 313 L1020 313 L980 80 L452 80 C235 80 162 179 162 307 C162 462 257 620 547 620 L1108 620 L1123 700 L554 700 C208 700 68 507 68 296 C68 130 170 0 438 0 L1051 0 L1120 387 L648 387 L634 313 Z M665 815 L754 815 L769 905 L680 905 L665 815 Z " />
<glyph glyph-name="gdotaccent" unicode="&#x121;" horiz-adv-x="1037" d="M359 0 L889 0 L944 311 L542 311 L530 249 L854 249 L824 69 L367 69 C195 69 137 141 137 241 C137 368 225 491 456 491 L931 491 L944 560 L460 560 C159 560 52 400 52 232 C52 102 134 0 359 0 L359 0 Z M545 675 L634 675 L649 765 L560 765 L545 675 Z " />
<glyph glyph-name="uni0122" unicode="&#x122;" horiz-adv-x="1206" d="M634 313 L1020 313 L980 80 L452 80 C235 80 162 179 162 307 C162 462 257 620 547 620 L1108 620 L1123 700 L554 700 C208 700 68 507 68 296 C68 130 170 0 438 0 L1051 0 L1120 387 L648 387 L634 313 Z M499 -206 L534 -206 L473 -310 L512 -310 L587 -200 L601 -116 L515 -116 L499 -206 Z " />
<glyph glyph-name="uni0123" unicode="&#x123;" horiz-adv-x="1037" d="M359 0 L889 0 L944 311 L542 311 L530 249 L854 249 L824 69 L367 69 C195 69 137 141 137 241 C137 368 225 491 456 491 L931 491 L944 560 L460 560 C159 560 52 400 52 232 C52 102 134 0 359 0 L359 0 Z M404 -206 L439 -206 L378 -310 L417 -310 L492 -200 L506 -116 L420 -116 L404 -206 Z " />
<glyph glyph-name="Hcircumflex" unicode="&#x124;" horiz-adv-x="1253" d="M986 0 L1074 0 L1199 700 L1111 700 L1056 390 L216 390 L272 700 L184 700 L59 0 L147 0 L200 310 L1040 310 L986 0 Z M532 775 L591 775 L727 900 L817 775 L872 775 L786 946 L681 946 L532 775 Z " />
<glyph glyph-name="hcircumflex" unicode="&#x125;" horiz-adv-x="1082" d="M834 0 L913 0 L1012 560 L933 560 L890 315 L185 315 L227 560 L148 560 L49 0 L128 0 L171 245 L876 245 L834 0 Z M422 635 L481 635 L617 760 L707 635 L762 635 L676 806 L571 806 L422 635 Z " />
<glyph glyph-name="Hbar" unicode="&#x126;" horiz-adv-x="1253" d="M56 526 L153 526 L59 0 L147 0 L200 310 L1040 310 L986 0 L1074 0 L1167 526 L1264 526 L1271 564 L1174 564 L1199 700 L1111 700 L1087 564 L247 564 L272 700 L184 700 L160 564 L64 564 L56 526 Z M216 390 L240 526 L1080 526 L1056 390 L216 390 Z " />
<glyph glyph-name="hbar" unicode="&#x127;" horiz-adv-x="1082" d="M37 419 L123 419 L49 0 L128 0 L171 245 L876 245 L834 0 L913 0 L987 419 L1074 419 L1081 456 L993 456 L1012 560 L933 560 L915 456 L209 456 L227 560 L148 560 L129 456 L44 456 L37 419 Z M185 315 L203 419 L908 419 L890 315 L185 315 Z " />
<glyph glyph-name="Itilde" unicode="&#x128;" horiz-adv-x="326" d="M59 0 L147 0 L272 700 L184 700 L59 0 Z M388 931 C372 872 352 861 326 861 C282 861 252 923 190 923 C139 923 98 893 72 790 L117 790 C132 848 154 860 180 860 C223 860 252 798 314 798 C366 798 407 828 433 931 L388 931 Z " />
<glyph glyph-name="itilde" unicode="&#x129;" horiz-adv-x="297" d="M49 0 L128 0 L227 560 L148 560 L49 0 Z M349 791 C333 732 313 721 287 721 C243 721 213 783 151 783 C100 783 59 753 33 650 L78 650 C93 708 115 720 141 720 C184 720 213 658 275 658 C327 658 368 688 394 791 L349 791 Z " />
<glyph glyph-name="Imacron" unicode="&#x12a;" horiz-adv-x="326" d="M59 0 L147 0 L272 700 L184 700 L59 0 Z M65 831 L433 831 L443 889 L75 889 L65 831 Z " />
<glyph glyph-name="imacron" unicode="&#x12b;" horiz-adv-x="297" d="M49 0 L128 0 L227 560 L148 560 L49 0 Z M26 691 L394 691 L404 749 L36 749 L26 691 Z " />
<glyph glyph-name="Ibreve" unicode="&#x12c;" horiz-adv-x="326" d="M59 0 L147 0 L272 700 L184 700 L59 0 Z M249 844 C171 844 148 886 153 935 L106 935 C98 864 119 785 240 785 C359 785 409 862 426 935 L377 935 C363 886 326 844 249 844 L249 844 Z " />
<glyph glyph-name="ibreve" unicode="&#x12d;" horiz-adv-x="297" d="M49 0 L128 0 L227 560 L148 560 L49 0 Z M211 704 C133 704 110 746 115 795 L68 795 C60 724 81 645 202 645 C321 645 371 722 388 795 L339 795 C325 746 288 704 211 704 L211 704 Z " />
<glyph glyph-name="Iogonek" unicode="&#x12e;" horiz-adv-x="326" d="M-77 -169 C-77 -227 -26 -254 23 -254 C60 -254 97 -249 142 -230 L151 -190 C111 -205 89 -209 62 -209 C18 -209 -7 -187 -7 -149 C-7 -91 30 -45 100 0 L147 0 L272 700 L184 700 L59 0 C-10 -34 -77 -94 -77 -169 L-77 -169 Z " />
<glyph glyph-name="iogonek" unicode="&#x12f;" horiz-adv-x="297" d="M49 0 C-20 -34 -87 -94 -87 -169 C-87 -227 -36 -254 13 -254 C50 -254 87 -249 132 -230 L141 -190 C101 -205 79 -209 52 -209 C8 -209 -17 -187 -17 -149 C-17 -91 20 -45 90 0 L128 0 L227 560 L148 560 L49 0 Z " />
<glyph glyph-name="Idotaccent" unicode="&#x130;" horiz-adv-x="326" d="M59 0 L147 0 L272 700 L184 700 L59 0 Z M202 815 L291 815 L306 905 L217 905 L202 815 Z " />
<glyph glyph-name="dotlessi" unicode="&#x131;" horiz-adv-x="297" d="M49 0 L128 0 L227 560 L148 560 L49 0 Z " />
<glyph glyph-name="IJ" unicode="&#x132;" horiz-adv-x="1220" d="M119 445 L207 445 L253 700 L165 700 L119 445 Z M366 -5 L679 -5 C972 -5 1082 113 1116 306 L1186 700 L1098 700 L1030 325 C1002 169 914 75 690 75 L383 75 C197 75 152 162 175 273 L185 322 L98 322 L89 275 C58 123 124 -5 366 -5 L366 -5 Z " />
<glyph glyph-name="ij" unicode="&#x133;" horiz-adv-x="1048" d="M93 356 L172 356 L208 560 L129 560 L93 356 Z M303 -4 L584 -4 C825 -4 915 88 943 246 L999 560 L919 560 L865 261 C843 138 781 65 590 65 L309 65 C161 65 130 132 146 218 L153 259 L75 259 L68 220 C45 98 95 -4 303 -4 L303 -4 Z " />
<glyph glyph-name="Jcircumflex" unicode="&#x134;" horiz-adv-x="1162" d="M308 -5 L621 -5 C914 -5 1024 113 1058 306 L1128 700 L1040 700 L972 325 C944 169 856 75 632 75 L325 75 C139 75 94 162 117 273 L127 322 L40 322 L31 275 C0 123 66 -5 308 -5 L308 -5 Z M898 775 L957 775 L1093 900 L1183 775 L1238 775 L1152 946 L1047 946 L898 775 Z " />
<glyph glyph-name="jcircumflex" unicode="&#x135;" horiz-adv-x="1000" d="M255 -4 L536 -4 C777 -4 867 88 895 246 L951 560 L871 560 L817 261 C795 138 733 65 542 65 L261 65 C113 65 82 132 98 218 L105 259 L27 259 L20 220 C-3 98 47 -4 255 -4 L255 -4 Z M726 635 L785 635 L921 760 L1011 635 L1066 635 L980 806 L875 806 L726 635 Z " />
<glyph glyph-name="uni0136" unicode="&#x136;" horiz-adv-x="1237" d="M1209 700 L1051 700 L188 237 L271 700 L184 700 L59 0 L146 0 L170 141 L531 335 L1032 0 L1172 0 L610 378 L1209 700 Z M476 -206 L511 -206 L450 -310 L489 -310 L564 -200 L578 -116 L492 -116 L476 -206 Z " />
<glyph glyph-name="uni0137" unicode="&#x137;" horiz-adv-x="1067" d="M1026 560 L879 560 L162 196 L227 560 L148 560 L49 0 L128 0 L147 110 L451 265 L869 0 L997 0 L522 302 L1026 560 Z M394 -206 L429 -206 L368 -310 L407 -310 L482 -200 L496 -116 L410 -116 L394 -206 Z " />
<glyph glyph-name="kgreenlandic" unicode="&#x138;" horiz-adv-x="1191" d="M1156 457 L1122 457 L1182 560 L1142 560 L1068 451 L1054 366 L1141 366 L1156 457 Z M1026 560 L879 560 L162 196 L227 560 L148 560 L49 0 L128 0 L147 110 L451 265 L869 0 L997 0 L522 302 L1026 560 Z " />
<glyph glyph-name="Lacute" unicode="&#x139;" horiz-adv-x="1084" d="M272 700 L184 700 L59 0 L994 0 L1007 80 L161 80 L272 700 Z M168 775 L229 775 L409 946 L302 946 L168 775 Z " />
<glyph glyph-name="lacute" unicode="&#x13a;" horiz-adv-x="946" d="M227 560 L148 560 L49 0 L845 0 L857 69 L140 69 L227 560 Z M129 635 L190 635 L370 806 L263 806 L129 635 Z " />
<glyph glyph-name="uni013B" unicode="&#x13b;" horiz-adv-x="1084" d="M272 700 L184 700 L59 0 L994 0 L1007 80 L161 80 L272 700 Z M443 -206 L478 -206 L417 -310 L456 -310 L531 -200 L545 -116 L459 -116 L443 -206 Z " />
<glyph glyph-name="uni013C" unicode="&#x13c;" horiz-adv-x="946" d="M227 560 L148 560 L49 0 L845 0 L857 69 L140 69 L227 560 Z M371 -206 L406 -206 L345 -310 L384 -310 L459 -200 L473 -116 L387 -116 L371 -206 Z " />
<glyph glyph-name="Lcaron" unicode="&#x13d;" horiz-adv-x="1084" d="M272 700 L184 700 L59 0 L994 0 L1007 80 L161 80 L272 700 Z M890 600 L935 600 L870 485 L910 485 L989 606 L1007 700 L907 700 L890 600 Z " />
<glyph glyph-name="lcaron" unicode="&#x13e;" horiz-adv-x="946" d="M223 560 L147 560 L49 0 L844 0 L856 69 L137 69 L223 560 Z M755 470 L790 470 L730 366 L768 366 L843 476 L857 560 L770 560 L755 470 Z " />
<glyph glyph-name="Ldot" unicode="&#x13f;" horiz-adv-x="1084" d="M272 700 L184 700 L59 0 L994 0 L1007 80 L161 80 L272 700 Z M696 351 L785 351 L800 441 L711 441 L696 351 Z " />
<glyph glyph-name="ldot" unicode="&#x140;" horiz-adv-x="946" d="M227 560 L148 560 L49 0 L845 0 L857 69 L140 69 L227 560 Z M595 275 L684 275 L699 365 L610 365 L595 275 Z " />
<glyph glyph-name="Lslash" unicode="&#x141;" horiz-adv-x="1084" d="M608 556 L211 359 L271 700 L184 700 L115 316 L12 267 L-6 176 L100 229 L59 0 L994 0 L1007 80 L160 80 L193 270 L591 465 L608 556 Z " />
<glyph glyph-name="lslash" unicode="&#x142;" horiz-adv-x="946" d="M513 449 L180 294 L226 560 L148 560 L95 256 L8 217 L-8 138 L82 182 L49 0 L844 0 L856 69 L139 69 L165 217 L497 369 L513 449 Z " />
<glyph glyph-name="Nacute" unicode="&#x143;" horiz-adv-x="1253" d="M990 0 L1074 0 L1199 700 L1111 700 L1003 95 L267 700 L184 700 L59 0 L147 0 L253 605 L990 0 Z M631 775 L692 775 L872 946 L765 946 L631 775 Z " />
<glyph glyph-name="nacute" unicode="&#x144;" horiz-adv-x="1082" d="M913 0 L1012 560 L933 560 L848 84 L223 560 L148 560 L49 0 L128 0 L213 476 L838 0 L913 0 Z M522 635 L583 635 L763 806 L656 806 L522 635 Z " />
<glyph glyph-name="uni0145" unicode="&#x145;" horiz-adv-x="1253" d="M990 0 L1074 0 L1199 700 L1111 700 L1003 95 L267 700 L184 700 L59 0 L147 0 L253 605 L990 0 Z M487 -206 L522 -206 L461 -310 L500 -310 L575 -200 L589 -116 L503 -116 L487 -206 Z " />
<glyph glyph-name="uni0146" unicode="&#x146;" horiz-adv-x="1082" d="M913 0 L1012 560 L933 560 L848 84 L223 560 L148 560 L49 0 L128 0 L213 476 L838 0 L913 0 Z M401 -206 L436 -206 L375 -310 L414 -310 L489 -200 L503 -116 L417 -116 L401 -206 Z " />
<glyph glyph-name="Ncaron" unicode="&#x147;" horiz-adv-x="1253" d="M990 0 L1074 0 L1199 700 L1111 700 L1003 95 L267 700 L184 700 L59 0 L147 0 L253 605 L990 0 Z M904 946 L845 946 L709 821 L619 946 L564 946 L650 775 L755 775 L904 946 Z " />
<glyph glyph-name="ncaron" unicode="&#x148;" horiz-adv-x="1082" d="M913 0 L1012 560 L933 560 L848 84 L223 560 L148 560 L49 0 L128 0 L213 476 L838 0 L913 0 Z M795 806 L736 806 L600 681 L510 806 L455 806 L541 635 L646 635 L795 806 Z " />
<glyph glyph-name="napostrophe" unicode="&#x149;" horiz-adv-x="1269" d="M1101 0 L1200 560 L1121 560 L1036 84 L411 560 L336 560 L237 0 L316 0 L401 476 L1026 0 L1101 0 Z M108 610 L143 610 L82 506 L121 506 L196 616 L210 700 L124 700 L108 610 Z " />
<glyph glyph-name="Eng" unicode="&#x14a;" horiz-adv-x="1253" d="M616 -230 L795 -230 C968 -230 1046 -150 1065 -45 L1199 700 L1111 700 L1003 95 L267 700 L184 700 L59 0 L147 0 L253 605 L987 3 L980 -32 C968 -98 917 -150 804 -150 L631 -150 L616 -230 Z " />
<glyph glyph-name="eng" unicode="&#x14b;" horiz-adv-x="1082" d="M525 -184 L687 -184 C830 -184 892 -120 908 -33 L1012 560 L933 560 L848 84 L223 560 L148 560 L49 0 L128 0 L213 476 L834 3 L829 -24 C821 -75 787 -115 693 -115 L538 -115 L525 -184 Z " />
<glyph glyph-name="Omacron" unicode="&#x14c;" horiz-adv-x="1294" d="M730 -10 C1092 -10 1229 187 1229 411 C1229 580 1122 710 851 710 L569 710 C210 710 68 516 68 294 C68 122 176 -10 448 -10 L730 -10 Z M465 70 C239 70 162 172 162 305 C162 468 264 630 566 630 L834 630 C1057 630 1135 529 1135 399 C1135 232 1034 70 733 70 L465 70 Z M549 831 L917 831 L927 889 L559 889 L549 831 Z " />
<glyph glyph-name="omacron" unicode="&#x14d;" horiz-adv-x="1109" d="M617 -8 C922 -8 1036 152 1037 326 C1039 461 955 568 721 568 L471 568 C166 568 53 408 52 234 C51 99 132 -8 367 -8 L617 -8 Z M381 61 C196 61 135 140 136 239 C136 370 226 499 463 499 L708 499 C893 499 953 420 953 320 C953 192 865 61 626 61 L381 61 Z M433 691 L801 691 L811 749 L443 749 L433 691 Z " />
<glyph glyph-name="Obreve" unicode="&#x14e;" horiz-adv-x="1294" d="M730 -10 C1092 -10 1229 187 1229 411 C1229 580 1122 710 851 710 L569 710 C210 710 68 516 68 294 C68 122 176 -10 448 -10 L730 -10 Z M465 70 C239 70 162 172 162 305 C162 468 264 630 566 630 L834 630 C1057 630 1135 529 1135 399 C1135 232 1034 70 733 70 L465 70 Z M734 844 C656 844 633 886 638 935 L591 935 C583 864 604 785 725 785 C844 785 894 862 911 935 L862 935 C848 886 811 844 734 844 L734 844 Z " />
<glyph glyph-name="obreve" unicode="&#x14f;" horiz-adv-x="1109" d="M617 -8 C922 -8 1036 152 1037 326 C1039 461 955 568 721 568 L471 568 C166 568 53 408 52 234 C51 99 132 -8 367 -8 L617 -8 Z M381 61 C196 61 135 140 136 239 C136 370 226 499 463 499 L708 499 C893 499 953 420 953 320 C953 192 865 61 626 61 L381 61 Z M617 704 C539 704 516 746 521 795 L474 795 C466 724 487 645 608 645 C727 645 777 722 794 795 L745 795 C731 746 694 704 617 704 L617 704 Z " />
<glyph glyph-name="Ohungarumlaut" unicode="&#x150;" horiz-adv-x="1294" d="M730 -10 C1092 -10 1229 187 1229 411 C1229 580 1122 710 851 710 L569 710 C210 710 68 516 68 294 C68 122 176 -10 448 -10 L730 -10 Z M465 70 C239 70 162 172 162 305 C162 468 264 630 566 630 L834 630 C1057 630 1135 529 1135 399 C1135 232 1034 70 733 70 L465 70 Z M765 775 L825 775 L1006 946 L900 946 L765 775 Z M544 775 L603 775 L784 946 L679 946 L544 775 Z " />
<glyph glyph-name="ohungarumlaut" unicode="&#x151;" horiz-adv-x="1109" d="M617 -8 C922 -8 1036 152 1037 326 C1039 461 955 568 721 568 L471 568 C166 568 53 408 52 234 C51 99 132 -8 367 -8 L617 -8 Z M381 61 C196 61 135 140 136 239 C136 370 226 499 463 499 L708 499 C893 499 953 420 953 320 C953 192 865 61 626 61 L381 61 Z M648 635 L708 635 L889 806 L783 806 L648 635 Z M427 635 L486 635 L667 806 L562 806 L427 635 Z " />
<glyph glyph-name="OE" unicode="&#x152;" horiz-adv-x="1674" d="M68 296 C65 130 169 0 437 0 L1536 0 L1550 80 L785 80 L826 313 L1493 313 L1507 387 L840 387 L880 620 L1646 620 L1661 700 L562 700 C216 700 71 507 68 296 L68 296 Z M163 307 C166 462 255 620 547 620 L792 620 L697 80 L452 80 C237 80 161 180 163 307 L163 307 Z " />
<glyph glyph-name="oe" unicode="&#x153;" horiz-adv-x="1433" d="M359 0 L1302 0 L1314 69 L666 69 L698 249 L1261 249 L1273 311 L710 311 L742 491 L1389 491 L1401 560 L460 560 C159 560 52 400 52 232 C52 102 134 0 359 0 L359 0 Z M137 241 C137 368 225 491 456 491 L663 491 L588 69 L367 69 C195 69 137 141 137 241 L137 241 Z " />
<glyph glyph-name="Racute" unicode="&#x154;" horiz-adv-x="1226" d="M59 0 L146 0 L194 271 L617 271 L1022 0 L1160 0 L743 273 L827 273 C1044 273 1132 384 1132 519 C1132 620 1071 700 904 700 L184 700 L59 0 Z M887 620 C1002 620 1039 570 1039 507 C1039 422 983 349 835 349 L207 349 L256 620 L887 620 Z M581 775 L642 775 L822 946 L715 946 L581 775 Z " />
<glyph glyph-name="racute" unicode="&#x155;" horiz-adv-x="1061" d="M49 0 L128 0 L166 214 L526 214 L860 0 L986 0 L641 215 L704 215 C893 215 957 312 957 416 C957 495 907 560 766 560 L149 560 L49 0 Z M750 491 C844 491 872 452 872 404 C872 343 838 282 713 282 L179 282 L215 491 L750 491 Z M479 635 L540 635 L720 806 L613 806 L479 635 Z " />
<glyph glyph-name="uni0156" unicode="&#x156;" horiz-adv-x="1226" d="M59 0 L146 0 L194 271 L617 271 L1022 0 L1160 0 L743 273 L827 273 C1044 273 1132 384 1132 519 C1132 620 1071 700 904 700 L184 700 L59 0 Z M887 620 C1002 620 1039 570 1039 507 C1039 422 983 349 835 349 L207 349 L256 620 L887 620 Z M471 -206 L506 -206 L445 -310 L484 -310 L559 -200 L573 -116 L487 -116 L471 -206 Z " />
<glyph glyph-name="uni0157" unicode="&#x157;" horiz-adv-x="1061" d="M49 0 L128 0 L166 214 L526 214 L860 0 L986 0 L641 215 L704 215 C893 215 957 312 957 416 C957 495 907 560 766 560 L149 560 L49 0 Z M750 491 C844 491 872 452 872 404 C872 343 838 282 713 282 L179 282 L215 491 L750 491 Z M389 -206 L424 -206 L363 -310 L402 -310 L477 -200 L491 -116 L405 -116 L389 -206 Z " />
<glyph glyph-name="Rcaron" unicode="&#x158;" horiz-adv-x="1226" d="M59 0 L146 0 L194 271 L617 271 L1022 0 L1160 0 L743 273 L827 273 C1044 273 1132 384 1132 519 C1132 620 1071 700 904 700 L184 700 L59 0 Z M887 620 C1002 620 1039 570 1039 507 C1039 422 983 349 835 349 L207 349 L256 620 L887 620 Z M854 946 L795 946 L659 821 L569 946 L514 946 L600 775 L705 775 L854 946 Z " />
<glyph glyph-name="rcaron" unicode="&#x159;" horiz-adv-x="1061" d="M49 0 L128 0 L166 214 L526 214 L860 0 L986 0 L641 215 L704 215 C893 215 957 312 957 416 C957 495 907 560 766 560 L149 560 L49 0 Z M750 491 C844 491 872 452 872 404 C872 343 838 282 713 282 L179 282 L215 491 L750 491 Z M752 806 L693 806 L557 681 L467 806 L412 806 L498 635 L603 635 L752 806 Z " />
<glyph glyph-name="Sacute" unicode="&#x15a;" horiz-adv-x="1159" d="M802 80 L64 80 L49 0 L791 0 C987 0 1067 104 1067 224 C1067 316 1010 387 859 387 L321 387 C223 387 191 429 191 484 C191 556 239 620 362 620 L1100 620 L1115 700 L374 700 C178 700 98 596 98 476 C98 384 155 313 305 313 L844 313 C942 313 973 271 973 216 C973 144 926 80 802 80 L802 80 Z M585 775 L646 775 L826 946 L719 946 L585 775 Z " />
<glyph glyph-name="sacute" unicode="&#x15b;" horiz-adv-x="991" d="M677 69 L49 69 L36 0 L670 0 C844 0 899 89 899 182 C899 255 853 310 726 310 L260 310 C181 310 156 342 156 384 C156 439 189 491 295 491 L923 491 L937 560 L302 560 C128 560 73 471 73 378 C73 305 119 250 245 250 L712 250 C791 250 816 218 816 176 C816 121 783 69 677 69 L677 69 Z M477 635 L538 635 L718 806 L611 806 L477 635 Z " />
<glyph glyph-name="Scircumflex" unicode="&#x15c;" horiz-adv-x="1159" d="M802 80 L64 80 L49 0 L791 0 C987 0 1067 104 1067 224 C1067 316 1010 387 859 387 L321 387 C223 387 191 429 191 484 C191 556 239 620 362 620 L1100 620 L1115 700 L374 700 C178 700 98 596 98 476 C98 384 155 313 305 313 L844 313 C942 313 973 271 973 216 C973 144 926 80 802 80 L802 80 Z M485 775 L544 775 L680 900 L770 775 L825 775 L739 946 L634 946 L485 775 Z " />
<glyph glyph-name="scircumflex" unicode="&#x15d;" horiz-adv-x="991" d="M677 69 L49 69 L36 0 L670 0 C844 0 899 89 899 182 C899 255 853 310 726 310 L260 310 C181 310 156 342 156 384 C156 439 189 491 295 491 L923 491 L937 560 L302 560 C128 560 73 471 73 378 C73 305 119 250 245 250 L712 250 C791 250 816 218 816 176 C816 121 783 69 677 69 L677 69 Z M377 635 L436 635 L572 760 L662 635 L717 635 L631 806 L526 806 L377 635 Z " />
<glyph glyph-name="Scedilla" unicode="&#x15e;" horiz-adv-x="1159" d="M451 -108 L475 -108 C531 -108 561 -119 561 -154 C561 -203 507 -217 456 -217 C420 -217 385 -208 369 -197 L362 -237 C386 -251 427 -262 469 -262 C545 -262 625 -236 625 -148 C625 -84 560 -64 502 -69 L534 0 L791 0 C987 0 1067 104 1067 224 C1067 316 1010 387 859 387 L321 387 C223 387 191 429 191 484 C191 556 239 620 362 620 L1100 620 L1115 700 L374 700 C178 700 98 596 98 476 C98 384 155 313 305 313 L844 313 C942 313 973 271 973 216 C973 144 926 80 802 80 L64 80 L49 0 L499 0 L451 -108 Z " />
<glyph glyph-name="scedilla" unicode="&#x15f;" horiz-adv-x="991" d="M368 -108 L392 -108 C448 -108 478 -119 478 -154 C478 -203 424 -217 373 -217 C337 -217 302 -208 286 -197 L279 -237 C303 -251 344 -262 386 -262 C462 -262 542 -236 542 -148 C542 -84 477 -64 419 -69 L451 0 L670 0 C844 0 899 89 899 182 C899 255 853 310 726 310 L260 310 C181 310 156 342 156 384 C156 439 189 491 295 491 L923 491 L937 560 L302 560 C128 560 73 471 73 378 C73 305 119 250 245 250 L712 250 C791 250 816 218 816 176 C816 121 783 69 677 69 L49 69 L36 0 L416 0 L368 -108 Z " />
<glyph glyph-name="Scaron" unicode="&#x160;" horiz-adv-x="1159" d="M802 80 L64 80 L49 0 L791 0 C987 0 1067 104 1067 224 C1067 316 1010 387 859 387 L321 387 C223 387 191 429 191 484 C191 556 239 620 362 620 L1100 620 L1115 700 L374 700 C178 700 98 596 98 476 C98 384 155 313 305 313 L844 313 C942 313 973 271 973 216 C973 144 926 80 802 80 L802 80 Z M858 946 L799 946 L663 821 L573 946 L518 946 L604 775 L709 775 L858 946 Z " />
<glyph glyph-name="scaron" unicode="&#x161;" horiz-adv-x="991" d="M677 69 L49 69 L36 0 L670 0 C844 0 899 89 899 182 C899 255 853 310 726 310 L260 310 C181 310 156 342 156 384 C156 439 189 491 295 491 L923 491 L937 560 L302 560 C128 560 73 471 73 378 C73 305 119 250 245 250 L712 250 C791 250 816 218 816 176 C816 121 783 69 677 69 L677 69 Z M750 806 L691 806 L555 681 L465 806 L410 806 L496 635 L601 635 L750 806 Z " />
<glyph glyph-name="uni0162" unicode="&#x162;" horiz-adv-x="1137" d="M440 -108 L464 -108 C520 -108 550 -119 550 -154 C550 -203 496 -217 445 -217 C409 -217 374 -208 358 -197 L351 -237 C375 -251 416 -262 458 -262 C534 -262 614 -236 614 -148 C614 -84 549 -64 491 -69 L523 0 L552 0 L662 620 L1156 620 L1171 700 L96 700 L80 620 L574 620 L464 0 L488 0 L440 -108 Z " />
<glyph glyph-name="uni0163" unicode="&#x163;" horiz-adv-x="999" d="M372 -108 L396 -108 C452 -108 482 -119 482 -154 C482 -203 428 -217 377 -217 C341 -217 306 -208 290 -197 L283 -237 C307 -251 348 -262 390 -262 C466 -262 546 -236 546 -148 C546 -84 481 -64 423 -69 L455 0 L479 0 L566 491 L984 491 L996 560 L82 560 L70 491 L487 491 L400 0 L420 0 L372 -108 Z " />
<glyph glyph-name="Tcaron" unicode="&#x164;" horiz-adv-x="1137" d="M80 620 L574 620 L464 0 L552 0 L662 620 L1156 620 L1171 700 L96 700 L80 620 Z M846 946 L787 946 L651 821 L561 946 L506 946 L592 775 L697 775 L846 946 Z " />
<glyph glyph-name="tcaron" unicode="&#x165;" horiz-adv-x="999" d="M70 491 L487 491 L400 0 L479 0 L566 491 L984 491 L996 560 L82 560 L70 491 Z M754 806 L695 806 L559 681 L469 806 L414 806 L500 635 L605 635 L754 806 Z " />
<glyph glyph-name="Tbar" unicode="&#x166;" horiz-adv-x="1137" d="M80 620 L574 620 L532 385 L268 385 L254 315 L520 315 L464 0 L552 0 L608 315 L872 315 L886 385 L620 385 L662 620 L1156 620 L1171 700 L96 700 L80 620 Z " />
<glyph glyph-name="tbar" unicode="&#x167;" horiz-adv-x="999" d="M70 491 L487 491 L453 304 L220 304 L208 244 L443 244 L400 0 L479 0 L522 244 L755 244 L767 304 L532 304 L566 491 L984 491 L996 560 L82 560 L70 491 Z " />
<glyph glyph-name="Utilde" unicode="&#x168;" horiz-adv-x="1224" d="M184 323 L253 700 L165 700 L96 323 C61 130 137 -10 433 -10 L681 -10 C975 -10 1086 118 1120 309 L1190 700 L1102 700 L1035 326 C1006 170 918 70 693 70 L445 70 C211 70 158 174 184 323 L184 323 Z M838 931 C822 872 802 861 776 861 C732 861 702 923 640 923 C589 923 548 893 522 790 L567 790 C582 848 604 860 630 860 C673 860 702 798 764 798 C816 798 857 828 883 931 L838 931 Z " />
<glyph glyph-name="utilde" unicode="&#x169;" horiz-adv-x="1051" d="M153 257 L208 560 L129 560 L75 258 C47 104 97 -8 354 -8 L585 -8 C826 -8 916 85 944 242 L1000 560 L922 560 L867 257 C845 135 783 61 592 61 L366 61 C165 61 133 140 153 257 L153 257 Z M727 791 C711 732 691 721 665 721 C621 721 591 783 529 783 C478 783 437 753 411 650 L456 650 C471 708 493 720 519 720 C562 720 591 658 653 658 C705 658 746 688 772 791 L727 791 Z " />
<glyph glyph-name="Umacron" unicode="&#x16a;" horiz-adv-x="1224" d="M184 323 L253 700 L165 700 L96 323 C61 130 137 -10 433 -10 L681 -10 C975 -10 1086 118 1120 309 L1190 700 L1102 700 L1035 326 C1006 170 918 70 693 70 L445 70 C211 70 158 174 184 323 L184 323 Z M514 831 L882 831 L892 889 L524 889 L514 831 Z " />
<glyph glyph-name="umacron" unicode="&#x16b;" horiz-adv-x="1051" d="M153 257 L208 560 L129 560 L75 258 C47 104 97 -8 354 -8 L585 -8 C826 -8 916 85 944 242 L1000 560 L922 560 L867 257 C845 135 783 61 592 61 L366 61 C165 61 133 140 153 257 L153 257 Z M404 691 L772 691 L782 749 L414 749 L404 691 Z " />
<glyph glyph-name="Ubreve" unicode="&#x16c;" horiz-adv-x="1224" d="M184 323 L253 700 L165 700 L96 323 C61 130 137 -10 433 -10 L681 -10 C975 -10 1086 118 1120 309 L1190 700 L1102 700 L1035 326 C1006 170 918 70 693 70 L445 70 C211 70 158 174 184 323 L184 323 Z M699 844 C621 844 598 886 603 935 L556 935 C548 864 569 785 690 785 C809 785 859 862 876 935 L827 935 C813 886 776 844 699 844 L699 844 Z " />
<glyph glyph-name="ubreve" unicode="&#x16d;" horiz-adv-x="1051" d="M153 257 L208 560 L129 560 L75 258 C47 104 97 -8 354 -8 L585 -8 C826 -8 916 85 944 242 L1000 560 L922 560 L867 257 C845 135 783 61 592 61 L366 61 C165 61 133 140 153 257 L153 257 Z M589 704 C511 704 488 746 493 795 L446 795 C438 724 459 645 580 645 C699 645 749 722 766 795 L717 795 C703 746 666 704 589 704 L589 704 Z " />
<glyph glyph-name="Uring" unicode="&#x16e;" horiz-adv-x="1224" d="M184 323 L253 700 L165 700 L96 323 C61 130 137 -10 433 -10 L681 -10 C975 -10 1086 118 1120 309 L1190 700 L1102 700 L1035 326 C1006 170 918 70 693 70 L445 70 C211 70 158 174 184 323 L184 323 Z M637 856 C637 894 672 925 709 925 C743 925 766 899 766 866 C766 828 733 796 696 796 C662 796 637 822 637 856 L637 856 Z M585 851 C585 794 627 750 690 750 C761 750 819 805 819 871 C819 927 776 971 713 971 C642 971 585 918 585 851 L585 851 Z " />
<glyph glyph-name="uring" unicode="&#x16f;" horiz-adv-x="1051" d="M153 257 L208 560 L129 560 L75 258 C47 104 97 -8 354 -8 L585 -8 C826 -8 916 85 944 242 L1000 560 L922 560 L867 257 C845 135 783 61 592 61 L366 61 C165 61 133 140 153 257 L153 257 Z M527 716 C527 754 562 785 599 785 C633 785 656 759 656 726 C656 688 623 656 586 656 C552 656 527 682 527 716 L527 716 Z M475 711 C475 654 517 610 580 610 C651 610 709 665 709 731 C709 787 666 831 603 831 C532 831 475 778 475 711 L475 711 Z " />
<glyph glyph-name="Uhungarumlaut" unicode="&#x170;" horiz-adv-x="1224" d="M184 323 L253 700 L165 700 L96 323 C61 130 137 -10 433 -10 L681 -10 C975 -10 1086 118 1120 309 L1190 700 L1102 700 L1035 326 C1006 170 918 70 693 70 L445 70 C211 70 158 174 184 323 L184 323 Z M730 775 L790 775 L971 946 L865 946 L730 775 Z M509 775 L568 775 L749 946 L644 946 L509 775 Z " />
<glyph glyph-name="uhungarumlaut" unicode="&#x171;" horiz-adv-x="1051" d="M153 257 L208 560 L129 560 L75 258 C47 104 97 -8 354 -8 L585 -8 C826 -8 916 85 944 242 L1000 560 L922 560 L867 257 C845 135 783 61 592 61 L366 61 C165 61 133 140 153 257 L153 257 Z M620 635 L680 635 L861 806 L755 806 L620 635 Z M399 635 L458 635 L639 806 L534 806 L399 635 Z " />
<glyph glyph-name="Uogonek" unicode="&#x172;" horiz-adv-x="1224" d="M550 -177 C550 -225 589 -254 652 -254 C690 -254 726 -249 772 -230 L779 -190 C740 -205 719 -209 692 -209 C651 -209 624 -190 624 -154 C624 -87 698 -37 776 -4 C999 21 1090 140 1120 309 L1190 700 L1102 700 L1035 326 C1006 170 918 70 693 70 L445 70 C211 70 158 174 184 323 L253 700 L165 700 L96 323 C61 130 137 -10 433 -10 L681 -10 C691 -10 700 -10 709 -9 C630 -41 550 -99 550 -177 L550 -177 Z " />
<glyph glyph-name="uogonek" unicode="&#x173;" horiz-adv-x="1051" d="M436 -177 C436 -225 475 -254 538 -254 C576 -254 612 -249 658 -230 L665 -190 C626 -205 605 -209 578 -209 C537 -209 510 -190 510 -154 C510 -87 585 -36 664 -4 C846 15 919 103 944 242 L1000 560 L922 560 L867 257 C845 135 783 61 592 61 L366 61 C165 61 133 140 153 257 L208 560 L129 560 L75 258 C47 104 97 -8 354 -8 L600 -8 C520 -39 436 -98 436 -177 L436 -177 Z " />
<glyph glyph-name="Wcircumflex" unicode="&#x174;" horiz-adv-x="1553" d="M821 591 L1027 0 L1093 0 L1596 700 L1486 700 L1074 110 L870 700 L804 700 L388 110 L189 700 L88 700 L340 0 L405 0 L821 591 Z M682 775 L741 775 L877 900 L967 775 L1022 775 L936 946 L831 946 L682 775 Z " />
<glyph glyph-name="wcircumflex" unicode="&#x175;" horiz-adv-x="1328" d="M687 466 L865 0 L925 0 L1345 560 L1247 560 L908 95 L731 560 L672 560 L329 95 L154 560 L62 560 L284 0 L343 0 L687 466 Z M545 635 L604 635 L740 760 L830 635 L885 635 L799 806 L694 806 L545 635 Z " />
<glyph glyph-name="Ycircumflex" unicode="&#x176;" horiz-adv-x="1196" d="M494 0 L582 0 L619 212 L1261 700 L1126 700 L583 280 L190 700 L67 700 L531 212 L494 0 Z M503 775 L562 775 L698 900 L788 775 L843 775 L757 946 L652 946 L503 775 Z " />
<glyph glyph-name="ycircumflex" unicode="&#x177;" horiz-adv-x="1019" d="M410 0 L490 0 L519 170 L1057 560 L936 560 L486 229 L151 560 L41 560 L440 170 L410 0 Z M391 635 L450 635 L586 760 L676 635 L731 635 L645 806 L540 806 L391 635 Z " />
<glyph glyph-name="Ydieresis" unicode="&#x178;" horiz-adv-x="1196" d="M494 0 L582 0 L619 212 L1261 700 L1126 700 L583 280 L190 700 L67 700 L531 212 L494 0 Z M763 815 L853 815 L869 905 L779 905 L763 815 Z M508 815 L598 815 L613 905 L524 905 L508 815 Z " />
<glyph glyph-name="Zacute" unicode="&#x179;" horiz-adv-x="1147" d="M14 0 L1026 0 L1040 80 L199 80 L1120 637 L1129 700 L146 700 L130 620 L943 620 L22 63 L14 0 Z M579 775 L640 775 L820 946 L713 946 L579 775 Z " />
<glyph glyph-name="zacute" unicode="&#x17a;" horiz-adv-x="982" d="M7 0 L869 0 L881 69 L175 69 L942 506 L949 560 L112 560 L100 491 L779 491 L13 54 L7 0 Z M473 635 L534 635 L714 806 L607 806 L473 635 Z " />
<glyph glyph-name="Zdotaccent" unicode="&#x17b;" horiz-adv-x="1147" d="M14 0 L1026 0 L1040 80 L199 80 L1120 637 L1129 700 L146 700 L130 620 L943 620 L22 63 L14 0 Z M613 815 L702 815 L717 905 L628 905 L613 815 Z " />
<glyph glyph-name="zdotaccent" unicode="&#x17c;" horiz-adv-x="982" d="M7 0 L869 0 L881 69 L175 69 L942 506 L949 560 L112 560 L100 491 L779 491 L13 54 L7 0 Z M507 675 L596 675 L611 765 L522 765 L507 675 Z " />
<glyph glyph-name="Zcaron" unicode="&#x17d;" horiz-adv-x="1147" d="M14 0 L1026 0 L1040 80 L199 80 L1120 637 L1129 700 L146 700 L130 620 L943 620 L22 63 L14 0 Z M852 946 L793 946 L657 821 L567 946 L512 946 L598 775 L703 775 L852 946 Z " />
<glyph glyph-name="zcaron" unicode="&#x17e;" horiz-adv-x="982" d="M7 0 L869 0 L881 69 L175 69 L942 506 L949 560 L112 560 L100 491 L779 491 L13 54 L7 0 Z M746 806 L687 806 L551 681 L461 806 L406 806 L492 635 L597 635 L746 806 Z " />
<glyph glyph-name="uni0186" unicode="&#x186;" horiz-adv-x="1137" d="M978 393 C978 238 883 80 593 80 L32 80 L17 0 L586 0 C932 0 1072 193 1072 404 C1072 570 970 700 702 700 L142 700 L128 620 L688 620 C905 620 978 521 978 393 L978 393 Z " />
<glyph glyph-name="uni0189" unicode="&#x189;" horiz-adv-x="1205" d="M-11 313 L115 313 L59 0 L654 0 C1000 0 1140 193 1140 404 C1140 569 1038 700 770 700 L184 700 L128 387 L3 387 L-11 313 Z M756 620 C972 620 1046 520 1046 393 C1046 238 950 80 660 80 L160 80 L201 313 L607 313 L621 387 L214 387 L255 620 L756 620 Z " />
<glyph glyph-name="uni018E" unicode="&#x18e;" horiz-adv-x="1151" d="M1098 700 L144 700 L128 620 L994 620 L953 387 L185 387 L171 313 L939 313 L898 80 L32 80 L18 0 L972 0 L1098 700 Z " />
<glyph glyph-name="florin" unicode="&#x192;" horiz-adv-x="1246" d="M435 99 C406 -5 335 -80 183 -80 L100 -80 L84 -160 L180 -160 C384 -160 479 -59 520 88 L582 312 L888 312 L903 385 L602 385 L618 441 C645 539 718 620 875 620 L1132 620 L1147 700 L883 700 C672 700 571 589 533 452 L514 385 L297 385 L283 312 L494 312 L435 99 Z " />
<glyph glyph-name="Ohorn" unicode="&#x1a0;" horiz-adv-x="1294" d="M730 -10 C1092 -10 1229 187 1229 411 C1229 511 1191 597 1105 651 L1193 651 C1286 651 1357 671 1375 774 C1378 789 1380 807 1379 826 L1299 826 C1300 808 1298 793 1295 779 C1284 713 1243 700 1181 700 L970 700 C934 706 895 710 851 710 L569 710 C210 710 68 516 68 294 C68 122 176 -10 448 -10 L730 -10 Z M465 70 C239 70 162 172 162 305 C162 468 264 630 566 630 L834 630 C1057 630 1135 529 1135 399 C1135 232 1034 70 733 70 L465 70 Z " />
<glyph glyph-name="ohorn" unicode="&#x1a1;" horiz-adv-x="1109" d="M617 -8 C922 -8 1036 152 1037 326 C1038 401 1012 467 950 511 L984 511 C1077 511 1148 531 1166 634 C1169 649 1171 667 1170 686 L1090 686 C1091 668 1089 653 1086 639 C1075 573 1034 560 972 560 L822 560 C792 565 758 568 721 568 L471 568 C166 568 53 408 52 234 C51 99 132 -8 367 -8 L617 -8 Z M381 61 C196 61 135 140 136 239 C136 370 226 499 463 499 L708 499 C893 499 953 420 953 320 C953 192 865 61 626 61 L381 61 Z " />
<glyph glyph-name="uni01A7" unicode="&#x1a7;" horiz-adv-x="1159" d="M1005 80 L266 80 C166 80 135 123 135 177 C135 250 183 313 308 313 L847 313 C1045 313 1123 420 1123 538 C1123 629 1067 700 916 700 L174 700 L159 620 L899 620 C998 620 1029 577 1029 523 C1029 450 982 387 857 387 L318 387 C120 387 42 280 42 162 C42 71 97 0 249 0 L990 0 L1005 80 Z " />
<glyph glyph-name="uni01A8" unicode="&#x1a8;" horiz-adv-x="991" d="M849 69 L217 69 C137 69 112 103 112 143 C112 196 147 250 252 250 L716 250 C889 250 945 336 945 432 C945 504 898 560 772 560 L137 560 L123 491 L755 491 C835 491 860 457 860 417 C860 364 824 310 721 310 L256 310 C83 310 28 224 28 128 C28 56 74 0 201 0 L836 0 L849 69 Z " />
<glyph glyph-name="Uhorn" unicode="&#x1af;" horiz-adv-x="1366" d="M184 323 L253 700 L165 700 L96 323 C61 130 137 -10 433 -10 L681 -10 C975 -10 1086 118 1120 309 L1181 651 L1261 651 C1354 651 1425 671 1443 774 C1446 789 1448 807 1447 826 L1367 826 C1368 808 1366 793 1363 779 C1352 713 1311 700 1249 700 L1102 700 L1035 326 C1006 170 918 70 693 70 L445 70 C211 70 158 174 184 323 L184 323 Z " />
<glyph glyph-name="uhorn" unicode="&#x1b0;" horiz-adv-x="1204" d="M153 257 L208 560 L129 560 L75 258 C47 104 97 -8 354 -8 L585 -8 C826 -8 916 85 944 242 L991 511 L1074 511 C1167 511 1238 531 1256 634 C1259 649 1261 667 1260 686 L1180 686 C1181 668 1179 653 1176 639 C1165 573 1124 560 1062 560 L922 560 L867 257 C845 135 783 61 592 61 L366 61 C165 61 133 140 153 257 L153 257 Z " />
<glyph glyph-name="uni01B1" unicode="&#x1b1;" horiz-adv-x="1302" d="M867 633 C1049 598 1123 491 1123 373 C1123 227 1033 70 756 70 L451 70 C247 70 176 162 176 281 C176 431 289 588 545 633 L556 700 L133 700 L118 620 L356 620 C162 542 86 398 86 254 C86 107 181 -10 422 -10 L757 -10 C1077 -10 1207 169 1207 365 C1207 469 1157 568 1042 620 L1284 620 L1299 700 L877 700 L867 633 Z " />
<glyph glyph-name="uni01C0" unicode="&#x1c0;" horiz-adv-x="311" d="M277 800 L202 800 L40 -100 L116 -100 L277 800 Z " />
<glyph glyph-name="uni01C1" unicode="&#x1c1;" horiz-adv-x="604" d="M277 800 L202 800 L40 -100 L116 -100 L277 800 Z M574 800 L498 800 L337 -100 L413 -100 L574 800 Z " />
<glyph glyph-name="uni01C2" unicode="&#x1c2;" horiz-adv-x="706" d="M359 159 L632 159 L644 227 L371 227 L414 473 L687 473 L701 541 L428 541 L474 800 L398 800 L352 541 L79 541 L65 473 L338 473 L295 227 L22 227 L10 159 L283 159 L237 -100 L312 -100 L359 159 Z " />
<glyph glyph-name="uni01C3" unicode="&#x1c3;" horiz-adv-x="322" d="M53 0 L151 0 L168 100 L71 100 L53 0 Z M91 167 L165 167 L271 700 L183 700 L91 167 Z " />
<glyph glyph-name="uni01C4" unicode="&#x1c4;" horiz-adv-x="2351" d="M59 0 L654 0 C1000 0 1140 193 1140 404 C1140 569 1038 700 770 700 L184 700 L59 0 Z M756 620 C972 620 1046 520 1046 393 C1046 238 950 80 660 80 L160 80 L255 620 L756 620 Z M1219 0 L2231 0 L2245 80 L1404 80 L2325 637 L2334 700 L1351 700 L1335 620 L2148 620 L1227 63 L1219 0 Z M2056 946 L1997 946 L1861 821 L1771 946 L1716 946 L1802 775 L1907 775 L2056 946 Z " />
<glyph glyph-name="uni01C5" unicode="&#x1c5;" horiz-adv-x="2187" d="M59 0 L654 0 C1000 0 1140 193 1140 404 C1140 569 1038 700 770 700 L184 700 L59 0 Z M756 620 C972 620 1046 520 1046 393 C1046 238 950 80 660 80 L160 80 L255 620 L756 620 Z M1212 0 L2074 0 L2086 69 L1380 69 L2147 506 L2154 560 L1317 560 L1305 491 L1984 491 L1218 54 L1212 0 Z M1950 806 L1891 806 L1755 681 L1665 806 L1610 806 L1696 635 L1801 635 L1950 806 Z " />
<glyph glyph-name="uni01C6" unicode="&#x1c6;" horiz-adv-x="2019" d="M49 0 L559 0 C860 0 967 160 967 328 C967 458 884 560 660 560 L149 560 L49 0 Z M651 491 C824 491 882 419 882 319 C882 192 794 69 563 69 L141 69 L215 491 L651 491 Z M1044 0 L1906 0 L1918 69 L1212 69 L1979 506 L1986 560 L1149 560 L1137 491 L1816 491 L1050 54 L1044 0 Z M1782 806 L1723 806 L1587 681 L1497 806 L1442 806 L1528 635 L1633 635 L1782 806 Z " />
<glyph glyph-name="uni01C7" unicode="&#x1c7;" horiz-adv-x="2245" d="M1392 -5 L1705 -5 C1998 -5 2108 113 2142 306 L2212 700 L2124 700 L2056 325 C2028 169 1940 75 1716 75 L1409 75 C1223 75 1178 162 1201 273 L1211 322 L1124 322 L1115 275 C1084 123 1150 -5 1392 -5 L1392 -5 Z M272 700 L184 700 L59 0 L994 0 L1007 80 L161 80 L272 700 Z " />
<glyph glyph-name="uni01C8" unicode="&#x1c8;" horiz-adv-x="2084" d="M272 700 L184 700 L59 0 L994 0 L1007 80 L161 80 L272 700 Z M1339 -4 L1620 -4 C1861 -4 1951 88 1979 246 L2035 560 L1955 560 L1901 261 C1879 138 1817 65 1626 65 L1345 65 C1197 65 1166 132 1182 218 L1189 259 L1111 259 L1104 220 C1081 98 1131 -4 1339 -4 L1339 -4 Z " />
<glyph glyph-name="uni01C9" unicode="&#x1c9;" horiz-adv-x="1948" d="M1201 -4 L1482 -4 C1723 -4 1813 88 1841 246 L1897 560 L1817 560 L1763 261 C1741 138 1679 65 1488 65 L1207 65 C1059 65 1028 132 1044 218 L1051 259 L973 259 L966 220 C943 98 993 -4 1201 -4 L1201 -4 Z M227 560 L148 560 L49 0 L845 0 L857 69 L140 69 L227 560 Z " />
<glyph glyph-name="uni01CA" unicode="&#x1ca;" horiz-adv-x="2414" d="M1561 -5 L1874 -5 C2167 -5 2277 113 2311 306 L2381 700 L2293 700 L2225 325 C2197 169 2109 75 1885 75 L1578 75 C1392 75 1347 162 1370 273 L1380 322 L1293 322 L1284 275 C1253 123 1319 -5 1561 -5 L1561 -5 Z M990 0 L1074 0 L1199 700 L1111 700 L1003 95 L267 700 L184 700 L59 0 L147 0 L253 605 L990 0 Z " />
<glyph glyph-name="uni01CB" unicode="&#x1cb;" horiz-adv-x="2253" d="M990 0 L1074 0 L1199 700 L1111 700 L1003 95 L267 700 L184 700 L59 0 L147 0 L253 605 L990 0 Z M1508 -4 L1789 -4 C2030 -4 2120 88 2148 246 L2204 560 L2124 560 L2070 261 C2048 138 1986 65 1795 65 L1514 65 C1366 65 1335 132 1351 218 L1358 259 L1280 259 L1273 220 C1250 98 1300 -4 1508 -4 L1508 -4 Z " />
<glyph glyph-name="uni01CC" unicode="&#x1cc;" horiz-adv-x="2082" d="M1337 -4 L1618 -4 C1859 -4 1949 88 1977 246 L2033 560 L1953 560 L1899 261 C1877 138 1815 65 1624 65 L1343 65 C1195 65 1164 132 1180 218 L1187 259 L1109 259 L1102 220 C1079 98 1129 -4 1337 -4 L1337 -4 Z M913 0 L1012 560 L933 560 L848 84 L223 560 L148 560 L49 0 L128 0 L213 476 L838 0 L913 0 Z " />
<glyph glyph-name="uni01CD" unicode="&#x1cd;" horiz-adv-x="1220" d="M1046 0 L1150 0 L722 700 L628 700 L-49 0 L63 0 L195 138 L962 138 L1046 0 Z M665 626 L917 211 L265 211 L665 626 Z M888 946 L829 946 L693 821 L603 946 L548 946 L634 775 L739 775 L888 946 Z " />
<glyph glyph-name="uni01CE" unicode="&#x1ce;" horiz-adv-x="1044" d="M878 0 L973 0 L605 560 L519 560 L-48 0 L54 0 L169 114 L803 114 L878 0 Z M554 495 L763 176 L231 176 L554 495 Z M776 806 L717 806 L581 681 L491 806 L436 806 L522 635 L627 635 L776 806 Z " />
<glyph glyph-name="uni01CF" unicode="&#x1cf;" horiz-adv-x="326" d="M59 0 L147 0 L272 700 L184 700 L59 0 Z M441 946 L382 946 L246 821 L156 946 L101 946 L187 775 L292 775 L441 946 Z " />
<glyph glyph-name="uni01D0" unicode="&#x1d0;" horiz-adv-x="297" d="M402 806 L343 806 L207 681 L117 806 L62 806 L148 635 L253 635 L402 806 Z M49 0 L128 0 L227 560 L148 560 L49 0 Z " />
<glyph glyph-name="uni01D1" unicode="&#x1d1;" horiz-adv-x="1294" d="M730 -10 C1092 -10 1229 187 1229 411 C1229 580 1122 710 851 710 L569 710 C210 710 68 516 68 294 C68 122 176 -10 448 -10 L730 -10 Z M465 70 C239 70 162 172 162 305 C162 468 264 630 566 630 L834 630 C1057 630 1135 529 1135 399 C1135 232 1034 70 733 70 L465 70 Z M925 946 L866 946 L730 821 L640 946 L585 946 L671 775 L776 775 L925 946 Z " />
<glyph glyph-name="uni01D2" unicode="&#x1d2;" horiz-adv-x="1109" d="M617 -8 C922 -8 1036 152 1037 326 C1039 461 955 568 721 568 L471 568 C166 568 53 408 52 234 C51 99 132 -8 367 -8 L617 -8 Z M381 61 C196 61 135 140 136 239 C136 370 226 499 463 499 L708 499 C893 499 953 420 953 320 C953 192 865 61 626 61 L381 61 Z M809 806 L750 806 L614 681 L524 806 L469 806 L555 635 L660 635 L809 806 Z " />
<glyph glyph-name="uni01D3" unicode="&#x1d3;" horiz-adv-x="1224" d="M184 323 L253 700 L165 700 L96 323 C61 130 137 -10 433 -10 L681 -10 C975 -10 1086 118 1120 309 L1190 700 L1102 700 L1035 326 C1006 170 918 70 693 70 L445 70 C211 70 158 174 184 323 L184 323 Z M890 946 L831 946 L695 821 L605 946 L550 946 L636 775 L741 775 L890 946 Z " />
<glyph glyph-name="uni01D4" unicode="&#x1d4;" horiz-adv-x="1051" d="M153 257 L208 560 L129 560 L75 258 C47 104 97 -8 354 -8 L585 -8 C826 -8 916 85 944 242 L1000 560 L922 560 L867 257 C845 135 783 61 592 61 L366 61 C165 61 133 140 153 257 L153 257 Z M780 806 L721 806 L585 681 L495 806 L440 806 L526 635 L631 635 L780 806 Z " />
<glyph glyph-name="uni01D5" unicode="&#x1d5;" horiz-adv-x="1224" d="M184 323 L253 700 L165 700 L96 323 C61 130 137 -10 433 -10 L681 -10 C975 -10 1086 118 1120 309 L1190 700 L1102 700 L1035 326 C1006 170 918 70 693 70 L445 70 C211 70 158 174 184 323 L184 323 Z M544 997 L912 997 L922 1055 L554 1055 L544 997 Z M777 815 L867 815 L883 905 L793 905 L777 815 Z M522 815 L612 815 L627 905 L538 905 L522 815 Z " />
<glyph glyph-name="uni01D6" unicode="&#x1d6;" horiz-adv-x="1051" d="M153 257 L208 560 L129 560 L75 258 C47 104 97 -8 354 -8 L585 -8 C826 -8 916 85 944 242 L1000 560 L922 560 L867 257 C845 135 783 61 592 61 L366 61 C165 61 133 140 153 257 L153 257 Z M433 857 L801 857 L811 915 L443 915 L433 857 Z M667 675 L757 675 L773 765 L683 765 L667 675 Z M412 675 L502 675 L517 765 L428 765 L412 675 Z " />
<glyph glyph-name="uni01D7" unicode="&#x1d7;" horiz-adv-x="1224" d="M184 323 L253 700 L165 700 L96 323 C61 130 137 -10 433 -10 L681 -10 C975 -10 1086 118 1120 309 L1190 700 L1102 700 L1035 326 C1006 170 918 70 693 70 L445 70 C211 70 158 174 184 323 L184 323 Z M649 959 L710 959 L890 1130 L783 1130 L649 959 Z M777 815 L867 815 L883 905 L793 905 L777 815 Z M522 815 L612 815 L627 905 L538 905 L522 815 Z " />
<glyph glyph-name="uni01D8" unicode="&#x1d8;" horiz-adv-x="1051" d="M153 257 L208 560 L129 560 L75 258 C47 104 97 -8 354 -8 L585 -8 C826 -8 916 85 944 242 L1000 560 L922 560 L867 257 C845 135 783 61 592 61 L366 61 C165 61 133 140 153 257 L153 257 Z M540 819 L601 819 L781 990 L674 990 L540 819 Z M667 675 L757 675 L773 765 L683 765 L667 675 Z M412 675 L502 675 L517 765 L428 765 L412 675 Z " />
<glyph glyph-name="uni01D9" unicode="&#x1d9;" horiz-adv-x="1224" d="M184 323 L253 700 L165 700 L96 323 C61 130 137 -10 433 -10 L681 -10 C975 -10 1086 118 1120 309 L1190 700 L1102 700 L1035 326 C1006 170 918 70 693 70 L445 70 C211 70 158 174 184 323 L184 323 Z M922 1130 L863 1130 L727 1005 L637 1130 L582 1130 L668 959 L773 959 L922 1130 Z M777 815 L867 815 L883 905 L793 905 L777 815 Z M522 815 L612 815 L627 905 L538 905 L522 815 Z " />
<glyph glyph-name="uni01DA" unicode="&#x1da;" horiz-adv-x="1051" d="M153 257 L208 560 L129 560 L75 258 C47 104 97 -8 354 -8 L585 -8 C826 -8 916 85 944 242 L1000 560 L922 560 L867 257 C845 135 783 61 592 61 L366 61 C165 61 133 140 153 257 L153 257 Z M813 990 L754 990 L618 865 L528 990 L473 990 L559 819 L664 819 L813 990 Z M667 675 L757 675 L773 765 L683 765 L667 675 Z M412 675 L502 675 L517 765 L428 765 L412 675 Z " />
<glyph glyph-name="uni01DB" unicode="&#x1db;" horiz-adv-x="1224" d="M184 323 L253 700 L165 700 L96 323 C61 130 137 -10 433 -10 L681 -10 C975 -10 1086 118 1120 309 L1190 700 L1102 700 L1035 326 C1006 170 918 70 693 70 L445 70 C211 70 158 174 184 323 L184 323 Z M715 1130 L616 1130 L734 959 L788 959 L715 1130 Z M777 815 L867 815 L883 905 L793 905 L777 815 Z M522 815 L612 815 L627 905 L538 905 L522 815 Z " />
<glyph glyph-name="uni01DC" unicode="&#x1dc;" horiz-adv-x="1051" d="M153 257 L208 560 L129 560 L75 258 C47 104 97 -8 354 -8 L585 -8 C826 -8 916 85 944 242 L1000 560 L922 560 L867 257 C845 135 783 61 592 61 L366 61 C165 61 133 140 153 257 L153 257 Z M606 990 L507 990 L625 819 L679 819 L606 990 Z M667 675 L757 675 L773 765 L683 765 L667 675 Z M412 675 L502 675 L517 765 L428 765 L412 675 Z " />
<glyph glyph-name="uni01DD" unicode="&#x1dd;" horiz-adv-x="992" d="M923 560 L111 560 L99 491 L831 491 L799 311 L151 311 L139 249 L787 249 L756 69 L24 69 L12 0 L824 0 L923 560 Z " />
<glyph glyph-name="uni01DE" unicode="&#x1de;" horiz-adv-x="1220" d="M1046 0 L1150 0 L722 700 L628 700 L-49 0 L63 0 L195 138 L962 138 L1046 0 Z M665 626 L917 211 L265 211 L665 626 Z M542 997 L910 997 L920 1055 L552 1055 L542 997 Z M775 815 L865 815 L881 905 L791 905 L775 815 Z M520 815 L610 815 L625 905 L536 905 L520 815 Z " />
<glyph glyph-name="uni01DF" unicode="&#x1df;" horiz-adv-x="1044" d="M878 0 L973 0 L605 560 L519 560 L-48 0 L54 0 L169 114 L803 114 L878 0 Z M554 495 L763 176 L231 176 L554 495 Z M428 857 L796 857 L806 915 L438 915 L428 857 Z M663 675 L753 675 L769 765 L679 765 L663 675 Z M408 675 L498 675 L513 765 L424 765 L408 675 Z " />
<glyph glyph-name="uni01E0" unicode="&#x1e0;" horiz-adv-x="1220" d="M1046 0 L1150 0 L722 700 L628 700 L-49 0 L63 0 L195 138 L962 138 L1046 0 Z M665 626 L917 211 L265 211 L665 626 Z M542 997 L910 997 L920 1055 L552 1055 L542 997 Z M649 815 L738 815 L753 905 L664 905 L649 815 Z " />
<glyph glyph-name="uni01E1" unicode="&#x1e1;" horiz-adv-x="1044" d="M878 0 L973 0 L605 560 L519 560 L-48 0 L54 0 L169 114 L803 114 L878 0 Z M554 495 L763 176 L231 176 L554 495 Z M428 857 L796 857 L806 915 L438 915 L428 857 Z M537 675 L626 675 L641 765 L552 765 L537 675 Z " />
<glyph glyph-name="uni01E2" unicode="&#x1e2;" horiz-adv-x="1636" d="M669 136 L646 0 L1499 0 L1513 80 L748 80 L789 313 L1456 313 L1470 387 L803 387 L843 620 L1609 620 L1624 700 L724 700 L-49 0 L64 0 L213 136 L669 136 Z M294 210 L758 632 L684 210 L294 210 Z M839 831 L1207 831 L1217 889 L849 889 L839 831 Z " />
<glyph glyph-name="uni01E3" unicode="&#x1e3;" horiz-adv-x="1400" d="M562 108 L544 0 L1270 0 L1282 69 L635 69 L666 249 L1229 249 L1241 311 L678 311 L709 491 L1357 491 L1369 560 L600 560 L-48 0 L55 0 L180 108 L562 108 Z M252 170 L632 498 L573 170 L252 170 Z M708 691 L1076 691 L1086 749 L718 749 L708 691 Z " />
<glyph glyph-name="Gcaron" unicode="&#x1e6;" horiz-adv-x="1206" d="M634 313 L1020 313 L980 80 L452 80 C235 80 162 179 162 307 C162 462 257 620 547 620 L1108 620 L1123 700 L554 700 C208 700 68 507 68 296 C68 130 170 0 438 0 L1051 0 L1120 387 L648 387 L634 313 Z M904 946 L845 946 L709 821 L619 946 L564 946 L650 775 L755 775 L904 946 Z " />
<glyph glyph-name="gcaron" unicode="&#x1e7;" horiz-adv-x="1037" d="M359 0 L889 0 L944 311 L542 311 L530 249 L854 249 L824 69 L367 69 C195 69 137 141 137 241 C137 368 225 491 456 491 L931 491 L944 560 L460 560 C159 560 52 400 52 232 C52 102 134 0 359 0 L359 0 Z M784 806 L725 806 L589 681 L499 806 L444 806 L530 635 L635 635 L784 806 Z " />
<glyph glyph-name="uni01E8" unicode="&#x1e8;" horiz-adv-x="1237" d="M1209 700 L1051 700 L188 237 L271 700 L184 700 L59 0 L146 0 L170 141 L531 335 L1032 0 L1172 0 L610 378 L1209 700 Z M858 946 L799 946 L663 821 L573 946 L518 946 L604 775 L709 775 L858 946 Z " />
<glyph glyph-name="uni01E9" unicode="&#x1e9;" horiz-adv-x="1067" d="M1026 560 L879 560 L162 196 L227 560 L148 560 L49 0 L128 0 L147 110 L451 265 L869 0 L997 0 L522 302 L1026 560 Z M754 806 L695 806 L559 681 L469 806 L414 806 L500 635 L605 635 L754 806 Z " />
<glyph glyph-name="uni01EA" unicode="&#x1ea;" horiz-adv-x="1294" d="M612 -177 C612 -225 651 -254 714 -254 C752 -254 788 -249 834 -230 L841 -190 C802 -205 781 -209 754 -209 C713 -209 686 -190 686 -154 C686 -86 763 -35 843 -3 C1121 34 1229 212 1229 411 C1229 580 1122 710 851 710 L569 710 C210 710 68 516 68 294 C68 122 176 -10 448 -10 L730 -10 C745 -10 759 -9 773 -9 C694 -40 612 -99 612 -177 L612 -177 Z M465 70 C239 70 162 172 162 305 C162 468 264 630 566 630 L834 630 C1057 630 1135 529 1135 399 C1135 232 1034 70 733 70 L465 70 Z " />
<glyph glyph-name="uni01EB" unicode="&#x1eb;" horiz-adv-x="1109" d="M486 -177 C486 -225 525 -254 588 -254 C626 -254 662 -249 708 -230 L715 -190 C676 -205 655 -209 628 -209 C587 -209 560 -190 560 -154 C560 -85 640 -33 721 -1 C948 31 1036 173 1037 326 C1039 461 955 568 721 568 L471 568 C166 568 53 408 52 234 C51 99 132 -8 367 -8 L617 -8 C629 -8 640 -7 652 -7 C571 -37 486 -97 486 -177 L486 -177 Z M381 61 C196 61 135 140 136 239 C136 370 226 499 463 499 L708 499 C893 499 953 420 953 320 C953 192 865 61 626 61 L381 61 Z " />
<glyph glyph-name="uni01EC" unicode="&#x1ec;" horiz-adv-x="1294" d="M612 -177 C612 -225 651 -254 714 -254 C752 -254 788 -249 834 -230 L841 -190 C802 -205 781 -209 754 -209 C713 -209 686 -190 686 -154 C686 -86 763 -35 843 -3 C1121 34 1229 212 1229 411 C1229 580 1122 710 851 710 L569 710 C210 710 68 516 68 294 C68 122 176 -10 448 -10 L730 -10 C745 -10 759 -9 773 -9 C694 -40 612 -99 612 -177 L612 -177 Z M465 70 C239 70 162 172 162 305 C162 468 264 630 566 630 L834 630 C1057 630 1135 529 1135 399 C1135 232 1034 70 733 70 L465 70 Z M549 831 L917 831 L927 889 L559 889 L549 831 Z " />
<glyph glyph-name="uni01ED" unicode="&#x1ed;" horiz-adv-x="1109" d="M486 -177 C486 -225 525 -254 588 -254 C626 -254 662 -249 708 -230 L715 -190 C676 -205 655 -209 628 -209 C587 -209 560 -190 560 -154 C560 -85 640 -33 721 -1 C948 31 1036 173 1037 326 C1039 461 955 568 721 568 L471 568 C166 568 53 408 52 234 C51 99 132 -8 367 -8 L617 -8 C629 -8 640 -7 652 -7 C571 -37 486 -97 486 -177 L486 -177 Z M381 61 C196 61 135 140 136 239 C136 370 226 499 463 499 L708 499 C893 499 953 420 953 320 C953 192 865 61 626 61 L381 61 Z M433 691 L801 691 L811 749 L443 749 L433 691 Z " />
<glyph glyph-name="uni01F0" unicode="&#x1f0;" horiz-adv-x="1000" d="M255 -4 L536 -4 C777 -4 867 88 895 246 L951 560 L871 560 L817 261 C795 138 733 65 542 65 L261 65 C113 65 82 132 98 218 L105 259 L27 259 L20 220 C-3 98 47 -4 255 -4 L255 -4 Z M1099 806 L1040 806 L904 681 L814 806 L759 806 L845 635 L950 635 L1099 806 Z " />
<glyph glyph-name="uni01F1" unicode="&#x1f1;" horiz-adv-x="2351" d="M59 0 L654 0 C1000 0 1140 193 1140 404 C1140 569 1038 700 770 700 L184 700 L59 0 Z M756 620 C972 620 1046 520 1046 393 C1046 238 950 80 660 80 L160 80 L255 620 L756 620 Z M1218 0 L2230 0 L2244 80 L1403 80 L2324 637 L2333 700 L1350 700 L1334 620 L2147 620 L1226 63 L1218 0 Z " />
<glyph glyph-name="uni01F2" unicode="&#x1f2;" horiz-adv-x="2187" d="M59 0 L654 0 C1000 0 1140 193 1140 404 C1140 569 1038 700 770 700 L184 700 L59 0 Z M756 620 C972 620 1046 520 1046 393 C1046 238 950 80 660 80 L160 80 L255 620 L756 620 Z M1212 0 L2074 0 L2086 69 L1380 69 L2147 506 L2154 560 L1317 560 L1305 491 L1984 491 L1218 54 L1212 0 Z " />
<glyph glyph-name="uni01F3" unicode="&#x1f3;" horiz-adv-x="2019" d="M49 0 L559 0 C860 0 967 160 967 328 C967 458 884 560 660 560 L149 560 L49 0 Z M651 491 C824 491 882 419 882 319 C882 192 794 69 563 69 L141 69 L215 491 L651 491 Z M1044 0 L1906 0 L1918 69 L1212 69 L1979 506 L1986 560 L1149 560 L1137 491 L1816 491 L1050 54 L1044 0 Z " />
<glyph glyph-name="uni01F4" unicode="&#x1f4;" horiz-adv-x="1206" d="M634 313 L1020 313 L980 80 L452 80 C235 80 162 179 162 307 C162 462 257 620 547 620 L1108 620 L1123 700 L554 700 C208 700 68 507 68 296 C68 130 170 0 438 0 L1051 0 L1120 387 L648 387 L634 313 Z M631 775 L692 775 L872 946 L765 946 L631 775 Z " />
<glyph glyph-name="uni01F5" unicode="&#x1f5;" horiz-adv-x="1037" d="M359 0 L889 0 L944 311 L542 311 L530 249 L854 249 L824 69 L367 69 C195 69 137 141 137 241 C137 368 225 491 456 491 L931 491 L944 560 L460 560 C159 560 52 400 52 232 C52 102 134 0 359 0 L359 0 Z M511 635 L572 635 L752 806 L645 806 L511 635 Z " />
<glyph glyph-name="uni01F8" unicode="&#x1f8;" horiz-adv-x="1253" d="M990 0 L1074 0 L1199 700 L1111 700 L1003 95 L267 700 L184 700 L59 0 L147 0 L253 605 L990 0 Z M697 946 L598 946 L716 775 L770 775 L697 946 Z " />
<glyph glyph-name="uni01F9" unicode="&#x1f9;" horiz-adv-x="1082" d="M913 0 L1012 560 L933 560 L848 84 L223 560 L148 560 L49 0 L128 0 L213 476 L838 0 L913 0 Z M588 806 L489 806 L607 635 L661 635 L588 806 Z " />
<glyph glyph-name="Aringacute" unicode="&#x1fa;" horiz-adv-x="1220" d="M1046 0 L1150 0 L722 700 L628 700 L-49 0 L63 0 L195 138 L962 138 L1046 0 Z M665 626 L917 211 L265 211 L665 626 Z M635 856 C635 894 670 925 707 925 C741 925 764 899 764 866 C764 828 731 796 694 796 C660 796 635 822 635 856 L635 856 Z M583 851 C583 794 625 750 688 750 C759 750 817 805 817 871 C817 927 774 971 711 971 C640 971 583 918 583 851 L583 851 Z M655 1000 L716 1000 L896 1171 L789 1171 L655 1000 Z " />
<glyph glyph-name="aringacute" unicode="&#x1fb;" horiz-adv-x="1044" d="M878 0 L973 0 L605 560 L519 560 L-48 0 L54 0 L169 114 L803 114 L878 0 Z M554 495 L763 176 L231 176 L554 495 Z M523 716 C523 754 558 785 595 785 C629 785 652 759 652 726 C652 688 619 656 582 656 C548 656 523 682 523 716 L523 716 Z M471 711 C471 654 513 610 576 610 C647 610 705 665 705 731 C705 787 662 831 599 831 C528 831 471 778 471 711 L471 711 Z M541 860 L602 860 L782 1031 L675 1031 L541 860 Z " />
<glyph glyph-name="AEacute" unicode="&#x1fc;" horiz-adv-x="1636" d="M669 136 L646 0 L1499 0 L1513 80 L748 80 L789 313 L1456 313 L1470 387 L803 387 L843 620 L1609 620 L1624 700 L724 700 L-49 0 L64 0 L213 136 L669 136 Z M294 210 L758 632 L684 210 L294 210 Z M942 775 L1003 775 L1183 946 L1076 946 L942 775 Z " />
<glyph glyph-name="aeacute" unicode="&#x1fd;" horiz-adv-x="1400" d="M562 108 L544 0 L1270 0 L1282 69 L635 69 L666 249 L1229 249 L1241 311 L678 311 L709 491 L1357 491 L1369 560 L600 560 L-48 0 L55 0 L180 108 L562 108 Z M252 170 L632 498 L573 170 L252 170 Z M811 635 L872 635 L1052 806 L945 806 L811 635 Z " />
<glyph glyph-name="Oslashacute" unicode="&#x1fe;" horiz-adv-x="1294" d="M652 775 L713 775 L893 946 L786 946 L652 775 Z M730 -10 C1092 -10 1229 187 1229 411 C1229 539 1167 645 1018 689 L1122 800 L1020 800 L931 705 C906 708 879 710 851 710 L569 710 C210 710 68 516 68 294 C68 163 130 55 280 11 L176 -100 L278 -100 L366 -5 C392 -8 419 -10 448 -10 L730 -10 Z M162 305 C162 468 264 630 566 630 L834 630 C843 630 851 630 860 629 L346 81 C211 112 162 198 162 305 L162 305 Z M438 70 L951 618 C1085 588 1135 503 1135 399 C1135 232 1034 70 733 70 L438 70 Z " />
<glyph glyph-name="oslashacute" unicode="&#x1ff;" horiz-adv-x="1109" d="M516 635 L577 635 L757 806 L650 806 L516 635 Z M617 -8 C922 -8 1036 152 1037 326 C1038 430 988 518 856 552 L942 640 L850 640 L777 565 C759 567 740 568 721 568 L471 568 C166 568 53 408 52 234 C51 129 99 42 230 8 L144 -80 L236 -80 L309 -5 C327 -7 346 -8 367 -8 L617 -8 Z M374 61 L796 491 C912 469 953 402 953 320 C953 192 865 61 626 61 L374 61 Z M136 239 C136 370 226 499 463 499 L711 499 L290 69 C175 91 135 158 136 239 L136 239 Z " />
<glyph glyph-name="uni0200" unicode="&#x200;" horiz-adv-x="1220" d="M1046 0 L1150 0 L722 700 L628 700 L-49 0 L63 0 L195 138 L962 138 L1046 0 Z M665 626 L917 211 L265 211 L665 626 Z M767 946 L668 946 L785 775 L840 775 L767 946 Z M565 946 L466 946 L583 775 L637 775 L565 946 Z " />
<glyph glyph-name="uni0201" unicode="&#x201;" horiz-adv-x="1044" d="M878 0 L973 0 L605 560 L519 560 L-48 0 L54 0 L169 114 L803 114 L878 0 Z M554 495 L763 176 L231 176 L554 495 Z M655 806 L556 806 L673 635 L728 635 L655 806 Z M453 806 L354 806 L471 635 L525 635 L453 806 Z " />
<glyph glyph-name="uni0202" unicode="&#x202;" horiz-adv-x="1220" d="M1046 0 L1150 0 L722 700 L628 700 L-49 0 L63 0 L195 138 L962 138 L1046 0 Z M665 626 L917 211 L265 211 L665 626 Z M713 876 C791 876 814 834 809 785 L856 785 C864 856 843 935 722 935 C603 935 553 858 536 785 L585 785 C599 834 636 876 713 876 L713 876 Z " />
<glyph glyph-name="uni0203" unicode="&#x203;" horiz-adv-x="1044" d="M878 0 L973 0 L605 560 L519 560 L-48 0 L54 0 L169 114 L803 114 L878 0 Z M554 495 L763 176 L231 176 L554 495 Z M600 736 C678 736 701 694 696 645 L743 645 C751 716 730 795 609 795 C490 795 440 718 423 645 L472 645 C486 694 523 736 600 736 L600 736 Z " />
<glyph glyph-name="uni0204" unicode="&#x204;" horiz-adv-x="1151" d="M59 0 L1013 0 L1027 80 L161 80 L201 313 L969 313 L984 387 L216 387 L256 620 L1122 620 L1138 700 L184 700 L59 0 Z M743 946 L644 946 L761 775 L816 775 L743 946 Z M541 946 L442 946 L559 775 L613 775 L541 946 Z " />
<glyph glyph-name="uni0205" unicode="&#x205;" horiz-adv-x="992" d="M49 0 L861 0 L873 69 L140 69 L172 249 L820 249 L832 311 L184 311 L215 491 L947 491 L960 560 L148 560 L49 0 Z M641 806 L542 806 L659 635 L714 635 L641 806 Z M439 806 L340 806 L457 635 L511 635 L439 806 Z " />
<glyph glyph-name="uni0206" unicode="&#x206;" horiz-adv-x="1151" d="M59 0 L1013 0 L1027 80 L161 80 L201 313 L969 313 L984 387 L216 387 L256 620 L1122 620 L1138 700 L184 700 L59 0 Z M688 876 C766 876 789 834 784 785 L831 785 C839 856 818 935 697 935 C578 935 528 858 511 785 L560 785 C574 834 611 876 688 876 L688 876 Z " />
<glyph glyph-name="uni0207" unicode="&#x207;" horiz-adv-x="992" d="M49 0 L861 0 L873 69 L140 69 L172 249 L820 249 L832 311 L184 311 L215 491 L947 491 L960 560 L148 560 L49 0 Z M587 736 C665 736 688 694 683 645 L730 645 C738 716 717 795 596 795 C477 795 427 718 410 645 L459 645 C473 694 510 736 587 736 L587 736 Z " />
<glyph glyph-name="uni0208" unicode="&#x208;" horiz-adv-x="326" d="M59 0 L147 0 L272 700 L184 700 L59 0 Z M320 946 L221 946 L338 775 L393 775 L320 946 Z M118 946 L19 946 L136 775 L190 775 L118 946 Z " />
<glyph glyph-name="uni0209" unicode="&#x209;" horiz-adv-x="297" d="M49 0 L128 0 L227 560 L148 560 L49 0 Z M281 806 L182 806 L299 635 L354 635 L281 806 Z M79 806 L-20 806 L97 635 L151 635 L79 806 Z " />
<glyph glyph-name="uni020A" unicode="&#x20a;" horiz-adv-x="326" d="M59 0 L147 0 L272 700 L184 700 L59 0 Z M266 876 C344 876 367 834 362 785 L409 785 C417 856 396 935 275 935 C156 935 106 858 89 785 L138 785 C152 834 189 876 266 876 L266 876 Z " />
<glyph glyph-name="uni020B" unicode="&#x20b;" horiz-adv-x="297" d="M49 0 L128 0 L227 560 L148 560 L49 0 Z M227 736 C305 736 328 694 323 645 L370 645 C378 716 357 795 236 795 C117 795 67 718 50 645 L99 645 C113 694 150 736 227 736 L227 736 Z " />
<glyph glyph-name="uni020C" unicode="&#x20c;" horiz-adv-x="1294" d="M730 -10 C1092 -10 1229 187 1229 411 C1229 580 1122 710 851 710 L569 710 C210 710 68 516 68 294 C68 122 176 -10 448 -10 L730 -10 Z M465 70 C239 70 162 172 162 305 C162 468 264 630 566 630 L834 630 C1057 630 1135 529 1135 399 C1135 232 1034 70 733 70 L465 70 Z M804 946 L705 946 L822 775 L877 775 L804 946 Z M602 946 L503 946 L620 775 L674 775 L602 946 Z " />
<glyph glyph-name="uni020D" unicode="&#x20d;" horiz-adv-x="1109" d="M617 -8 C922 -8 1036 152 1037 326 C1039 461 955 568 721 568 L471 568 C166 568 53 408 52 234 C51 99 132 -8 367 -8 L617 -8 Z M381 61 C196 61 135 140 136 239 C136 370 226 499 463 499 L708 499 C893 499 953 420 953 320 C953 192 865 61 626 61 L381 61 Z M688 806 L589 806 L706 635 L761 635 L688 806 Z M486 806 L387 806 L504 635 L558 635 L486 806 Z " />
<glyph glyph-name="uni020E" unicode="&#x20e;" horiz-adv-x="1294" d="M730 -10 C1092 -10 1229 187 1229 411 C1229 580 1122 710 851 710 L569 710 C210 710 68 516 68 294 C68 122 176 -10 448 -10 L730 -10 Z M465 70 C239 70 162 172 162 305 C162 468 264 630 566 630 L834 630 C1057 630 1135 529 1135 399 C1135 232 1034 70 733 70 L465 70 Z M750 876 C828 876 851 834 846 785 L893 785 C901 856 880 935 759 935 C640 935 590 858 573 785 L622 785 C636 834 673 876 750 876 L750 876 Z " />
<glyph glyph-name="uni020F" unicode="&#x20f;" horiz-adv-x="1109" d="M617 -8 C922 -8 1036 152 1037 326 C1039 461 955 568 721 568 L471 568 C166 568 53 408 52 234 C51 99 132 -8 367 -8 L617 -8 Z M381 61 C196 61 135 140 136 239 C136 370 226 499 463 499 L708 499 C893 499 953 420 953 320 C953 192 865 61 626 61 L381 61 Z M633 736 C711 736 734 694 729 645 L776 645 C784 716 763 795 642 795 C523 795 473 718 456 645 L505 645 C519 694 556 736 633 736 L633 736 Z " />
<glyph glyph-name="uni0210" unicode="&#x210;" horiz-adv-x="1226" d="M59 0 L146 0 L194 271 L617 271 L1022 0 L1160 0 L743 273 L827 273 C1044 273 1132 384 1132 519 C1132 620 1071 700 904 700 L184 700 L59 0 Z M887 620 C1002 620 1039 570 1039 507 C1039 422 983 349 835 349 L207 349 L256 620 L887 620 Z M733 946 L634 946 L751 775 L806 775 L733 946 Z M531 946 L432 946 L549 775 L603 775 L531 946 Z " />
<glyph glyph-name="uni0211" unicode="&#x211;" horiz-adv-x="1061" d="M49 0 L128 0 L166 214 L526 214 L860 0 L986 0 L641 215 L704 215 C893 215 957 312 957 416 C957 495 907 560 766 560 L149 560 L49 0 Z M750 491 C844 491 872 452 872 404 C872 343 838 282 713 282 L179 282 L215 491 L750 491 Z M631 806 L532 806 L649 635 L704 635 L631 806 Z M429 806 L330 806 L447 635 L501 635 L429 806 Z " />
<glyph glyph-name="uni0212" unicode="&#x212;" horiz-adv-x="1226" d="M59 0 L146 0 L194 271 L617 271 L1022 0 L1160 0 L743 273 L827 273 C1044 273 1132 384 1132 519 C1132 620 1071 700 904 700 L184 700 L59 0 Z M887 620 C1002 620 1039 570 1039 507 C1039 422 983 349 835 349 L207 349 L256 620 L887 620 Z M679 876 C757 876 780 834 775 785 L822 785 C830 856 809 935 688 935 C569 935 519 858 502 785 L551 785 C565 834 602 876 679 876 L679 876 Z " />
<glyph glyph-name="uni0213" unicode="&#x213;" horiz-adv-x="1061" d="M49 0 L128 0 L166 214 L526 214 L860 0 L986 0 L641 215 L704 215 C893 215 957 312 957 416 C957 495 907 560 766 560 L149 560 L49 0 Z M750 491 C844 491 872 452 872 404 C872 343 838 282 713 282 L179 282 L215 491 L750 491 Z M577 736 C655 736 678 694 673 645 L720 645 C728 716 707 795 586 795 C467 795 417 718 400 645 L449 645 C463 694 500 736 577 736 L577 736 Z " />
<glyph glyph-name="uni0214" unicode="&#x214;" horiz-adv-x="1224" d="M184 323 L253 700 L165 700 L96 323 C61 130 137 -10 433 -10 L681 -10 C975 -10 1086 118 1120 309 L1190 700 L1102 700 L1035 326 C1006 170 918 70 693 70 L445 70 C211 70 158 174 184 323 L184 323 Z M769 946 L670 946 L787 775 L842 775 L769 946 Z M567 946 L468 946 L585 775 L639 775 L567 946 Z " />
<glyph glyph-name="uni0215" unicode="&#x215;" horiz-adv-x="1051" d="M153 257 L208 560 L129 560 L75 258 C47 104 97 -8 354 -8 L585 -8 C826 -8 916 85 944 242 L1000 560 L922 560 L867 257 C845 135 783 61 592 61 L366 61 C165 61 133 140 153 257 L153 257 Z M659 806 L560 806 L677 635 L732 635 L659 806 Z M457 806 L358 806 L475 635 L529 635 L457 806 Z " />
<glyph glyph-name="uni0216" unicode="&#x216;" horiz-adv-x="1224" d="M184 323 L253 700 L165 700 L96 323 C61 130 137 -10 433 -10 L681 -10 C975 -10 1086 118 1120 309 L1190 700 L1102 700 L1035 326 C1006 170 918 70 693 70 L445 70 C211 70 158 174 184 323 L184 323 Z M715 876 C793 876 816 834 811 785 L858 785 C866 856 845 935 724 935 C605 935 555 858 538 785 L587 785 C601 834 638 876 715 876 L715 876 Z " />
<glyph glyph-name="uni0217" unicode="&#x217;" horiz-adv-x="1051" d="M153 257 L208 560 L129 560 L75 258 C47 104 97 -8 354 -8 L585 -8 C826 -8 916 85 944 242 L1000 560 L922 560 L867 257 C845 135 783 61 592 61 L366 61 C165 61 133 140 153 257 L153 257 Z M605 736 C683 736 706 694 701 645 L748 645 C756 716 735 795 614 795 C495 795 445 718 428 645 L477 645 C491 694 528 736 605 736 L605 736 Z " />
<glyph glyph-name="uni0218" unicode="&#x218;" horiz-adv-x="1159" d="M802 80 L64 80 L49 0 L791 0 C987 0 1067 104 1067 224 C1067 316 1010 387 859 387 L321 387 C223 387 191 429 191 484 C191 556 239 620 362 620 L1100 620 L1115 700 L374 700 C178 700 98 596 98 476 C98 384 155 313 305 313 L844 313 C942 313 973 271 973 216 C973 144 926 80 802 80 L802 80 Z M441 -206 L476 -206 L415 -310 L454 -310 L529 -200 L543 -116 L457 -116 L441 -206 Z " />
<glyph glyph-name="uni0219" unicode="&#x219;" horiz-adv-x="991" d="M677 69 L49 69 L36 0 L670 0 C844 0 899 89 899 182 C899 255 853 310 726 310 L260 310 C181 310 156 342 156 384 C156 439 189 491 295 491 L923 491 L937 560 L302 560 C128 560 73 471 73 378 C73 305 119 250 245 250 L712 250 C791 250 816 218 816 176 C816 121 783 69 677 69 L677 69 Z M356 -206 L391 -206 L330 -310 L369 -310 L444 -200 L458 -116 L372 -116 L356 -206 Z " />
<glyph glyph-name="uni021A" unicode="&#x21a;" horiz-adv-x="1137" d="M80 620 L574 620 L464 0 L552 0 L662 620 L1156 620 L1171 700 L96 700 L80 620 Z M429 -206 L464 -206 L403 -310 L442 -310 L517 -200 L531 -116 L445 -116 L429 -206 Z " />
<glyph glyph-name="uni021B" unicode="&#x21b;" horiz-adv-x="999" d="M70 491 L487 491 L400 0 L479 0 L566 491 L984 491 L996 560 L82 560 L70 491 Z M361 -206 L396 -206 L335 -310 L374 -310 L449 -200 L463 -116 L377 -116 L361 -206 Z " />
<glyph glyph-name="uni021E" unicode="&#x21e;" horiz-adv-x="1253" d="M986 0 L1074 0 L1199 700 L1111 700 L1056 390 L216 390 L272 700 L184 700 L59 0 L147 0 L200 310 L1040 310 L986 0 Z M905 946 L846 946 L710 821 L620 946 L565 946 L651 775 L756 775 L905 946 Z " />
<glyph glyph-name="uni021F" unicode="&#x21f;" horiz-adv-x="1082" d="M834 0 L913 0 L1012 560 L933 560 L890 315 L185 315 L227 560 L148 560 L49 0 L128 0 L171 245 L876 245 L834 0 Z M795 806 L736 806 L600 681 L510 806 L455 806 L541 635 L646 635 L795 806 Z " />
<glyph glyph-name="uni0226" unicode="&#x226;" horiz-adv-x="1220" d="M1046 0 L1150 0 L722 700 L628 700 L-49 0 L63 0 L195 138 L962 138 L1046 0 Z M665 626 L917 211 L265 211 L665 626 Z M649 815 L738 815 L753 905 L664 905 L649 815 Z " />
<glyph glyph-name="uni0227" unicode="&#x227;" horiz-adv-x="1044" d="M878 0 L973 0 L605 560 L519 560 L-48 0 L54 0 L169 114 L803 114 L878 0 Z M554 495 L763 176 L231 176 L554 495 Z M537 675 L626 675 L641 765 L552 765 L537 675 Z " />
<glyph glyph-name="uni0228" unicode="&#x228;" horiz-adv-x="1151" d="M59 0 L505 0 L457 -108 L481 -108 C537 -108 567 -119 567 -154 C567 -203 513 -217 462 -217 C426 -217 391 -208 375 -197 L368 -237 C392 -251 433 -262 475 -262 C551 -262 631 -236 631 -148 C631 -84 566 -64 508 -69 L540 0 L1013 0 L1027 80 L161 80 L201 313 L969 313 L984 387 L216 387 L256 620 L1122 620 L1138 700 L184 700 L59 0 Z " />
<glyph glyph-name="uni0229" unicode="&#x229;" horiz-adv-x="992" d="M49 0 L428 0 L380 -108 L404 -108 C460 -108 490 -119 490 -154 C490 -203 436 -217 385 -217 C349 -217 314 -208 298 -197 L291 -237 C315 -251 356 -262 398 -262 C474 -262 554 -236 554 -148 C554 -84 489 -64 431 -69 L463 0 L861 0 L873 69 L140 69 L172 249 L820 249 L832 311 L184 311 L215 491 L947 491 L960 560 L148 560 L49 0 Z " />
<glyph glyph-name="uni022A" unicode="&#x22a;" horiz-adv-x="1294" d="M730 -10 C1092 -10 1229 187 1229 411 C1229 580 1122 710 851 710 L569 710 C210 710 68 516 68 294 C68 122 176 -10 448 -10 L730 -10 Z M465 70 C239 70 162 172 162 305 C162 468 264 630 566 630 L834 630 C1057 630 1135 529 1135 399 C1135 232 1034 70 733 70 L465 70 Z M578 997 L946 997 L956 1055 L588 1055 L578 997 Z M812 815 L902 815 L918 905 L828 905 L812 815 Z M557 815 L647 815 L662 905 L573 905 L557 815 Z " />
<glyph glyph-name="uni022B" unicode="&#x22b;" horiz-adv-x="1109" d="M617 -8 C922 -8 1036 152 1037 326 C1039 461 955 568 721 568 L471 568 C166 568 53 408 52 234 C51 99 132 -8 367 -8 L617 -8 Z M381 61 C196 61 135 140 136 239 C136 370 226 499 463 499 L708 499 C893 499 953 420 953 320 C953 192 865 61 626 61 L381 61 Z M462 857 L830 857 L840 915 L472 915 L462 857 Z M696 675 L786 675 L802 765 L712 765 L696 675 Z M441 675 L531 675 L546 765 L457 765 L441 675 Z " />
<glyph glyph-name="uni022C" unicode="&#x22c;" horiz-adv-x="1294" d="M730 -10 C1092 -10 1229 187 1229 411 C1229 580 1122 710 851 710 L569 710 C210 710 68 516 68 294 C68 122 176 -10 448 -10 L730 -10 Z M465 70 C239 70 162 172 162 305 C162 468 264 630 566 630 L834 630 C1057 630 1135 529 1135 399 C1135 232 1034 70 733 70 L465 70 Z M873 931 C857 872 837 861 811 861 C767 861 737 923 675 923 C624 923 583 893 557 790 L602 790 C617 848 639 860 665 860 C708 860 737 798 799 798 C851 798 892 828 918 931 L873 931 Z M580 1004 L948 1004 L958 1062 L590 1062 L580 1004 Z " />
<glyph glyph-name="uni022D" unicode="&#x22d;" horiz-adv-x="1109" d="M617 -8 C922 -8 1036 152 1037 326 C1039 461 955 568 721 568 L471 568 C166 568 53 408 52 234 C51 99 132 -8 367 -8 L617 -8 Z M381 61 C196 61 135 140 136 239 C136 370 226 499 463 499 L708 499 C893 499 953 420 953 320 C953 192 865 61 626 61 L381 61 Z M757 791 C741 732 721 721 695 721 C651 721 621 783 559 783 C508 783 467 753 441 650 L486 650 C501 708 523 720 549 720 C592 720 621 658 683 658 C735 658 776 688 802 791 L757 791 Z M463 864 L831 864 L841 922 L473 922 L463 864 Z " />
<glyph glyph-name="uni022E" unicode="&#x22e;" horiz-adv-x="1294" d="M730 -10 C1092 -10 1229 187 1229 411 C1229 580 1122 710 851 710 L569 710 C210 710 68 516 68 294 C68 122 176 -10 448 -10 L730 -10 Z M465 70 C239 70 162 172 162 305 C162 468 264 630 566 630 L834 630 C1057 630 1135 529 1135 399 C1135 232 1034 70 733 70 L465 70 Z M686 815 L775 815 L790 905 L701 905 L686 815 Z " />
<glyph glyph-name="uni022F" unicode="&#x22f;" horiz-adv-x="1109" d="M617 -8 C922 -8 1036 152 1037 326 C1039 461 955 568 721 568 L471 568 C166 568 53 408 52 234 C51 99 132 -8 367 -8 L617 -8 Z M381 61 C196 61 135 140 136 239 C136 370 226 499 463 499 L708 499 C893 499 953 420 953 320 C953 192 865 61 626 61 L381 61 Z M570 675 L659 675 L674 765 L585 765 L570 675 Z " />
<glyph glyph-name="uni0230" unicode="&#x230;" horiz-adv-x="1294" d="M730 -10 C1092 -10 1229 187 1229 411 C1229 580 1122 710 851 710 L569 710 C210 710 68 516 68 294 C68 122 176 -10 448 -10 L730 -10 Z M465 70 C239 70 162 172 162 305 C162 468 264 630 566 630 L834 630 C1057 630 1135 529 1135 399 C1135 232 1034 70 733 70 L465 70 Z M578 997 L946 997 L956 1055 L588 1055 L578 997 Z M686 815 L775 815 L790 905 L701 905 L686 815 Z " />
<glyph glyph-name="uni0231" unicode="&#x231;" horiz-adv-x="1109" d="M617 -8 C922 -8 1036 152 1037 326 C1039 461 955 568 721 568 L471 568 C166 568 53 408 52 234 C51 99 132 -8 367 -8 L617 -8 Z M381 61 C196 61 135 140 136 239 C136 370 226 499 463 499 L708 499 C893 499 953 420 953 320 C953 192 865 61 626 61 L381 61 Z M462 857 L830 857 L840 915 L472 915 L462 857 Z M570 675 L659 675 L674 765 L585 765 L570 675 Z " />
<glyph glyph-name="uni0232" unicode="&#x232;" horiz-adv-x="1196" d="M494 0 L582 0 L619 212 L1261 700 L1126 700 L583 280 L190 700 L67 700 L531 212 L494 0 Z M500 831 L868 831 L878 889 L510 889 L500 831 Z " />
<glyph glyph-name="uni0233" unicode="&#x233;" horiz-adv-x="1019" d="M410 0 L490 0 L519 170 L1057 560 L936 560 L486 229 L151 560 L41 560 L440 170 L410 0 Z M388 691 L756 691 L766 749 L398 749 L388 691 Z " />
<glyph glyph-name="uni0237" unicode="&#x237;" horiz-adv-x="1000" d="M255 -4 L536 -4 C777 -4 867 88 895 246 L951 560 L871 560 L817 261 C795 138 733 65 542 65 L261 65 C113 65 82 132 98 218 L105 259 L27 259 L20 220 C-3 98 47 -4 255 -4 L255 -4 Z " />
<glyph glyph-name="uni0256" unicode="&#x256;" horiz-adv-x="1037" d="M-23 249 L93 249 L49 0 L559 0 C860 0 967 160 967 328 C967 458 884 560 660 560 L149 560 L104 311 L-11 311 L-23 249 Z M651 491 C824 491 882 419 882 319 C882 192 794 69 563 69 L141 69 L172 249 L524 249 L537 311 L183 311 L215 491 L651 491 Z " />
<glyph glyph-name="uni02BB" unicode="&#x2bb;" horiz-adv-x="285" d="M237 585 L192 585 L257 700 L216 700 L138 579 L120 485 L220 485 L237 585 Z " />
<glyph glyph-name="uni02BC" unicode="&#x2bc;" horiz-adv-x="285" d="M141 600 L187 600 L122 485 L163 485 L241 606 L259 700 L160 700 L141 600 Z " />
<glyph glyph-name="uni02BD" unicode="&#x2bd;" horiz-adv-x="285" d="M259 700 L160 700 L142 606 L177 485 L218 485 L195 600 L241 600 L259 700 Z " />
<glyph glyph-name="circumflex" unicode="&#x2c6;" horiz-adv-x="480" d="M121 635 L180 635 L316 760 L406 635 L461 635 L375 806 L270 806 L121 635 Z " />
<glyph glyph-name="caron" unicode="&#x2c7;" horiz-adv-x="480" d="M494 806 L435 806 L299 681 L209 806 L154 806 L240 635 L345 635 L494 806 Z " />
<glyph glyph-name="uni02C9" unicode="&#x2c9;" horiz-adv-x="480" d="M118 691 L486 691 L496 749 L128 749 L118 691 Z " />
<glyph glyph-name="uni02CA" unicode="&#x2ca;" horiz-adv-x="480" d="M221 635 L282 635 L462 806 L355 806 L221 635 Z " />
<glyph glyph-name="uni02CB" unicode="&#x2cb;" horiz-adv-x="480" d="M287 806 L188 806 L306 635 L360 635 L287 806 Z " />
<glyph glyph-name="uni02CD" unicode="&#x2cd;" horiz-adv-x="480" d="M-37 -190 L331 -190 L341 -132 L-27 -132 L-37 -190 Z " />
<glyph glyph-name="uni02CE" unicode="&#x2ce;" horiz-adv-x="480" d="M132 -75 L33 -75 L151 -246 L205 -246 L132 -75 Z " />
<glyph glyph-name="uni02CF" unicode="&#x2cf;" horiz-adv-x="480" d="M66 -246 L127 -246 L307 -75 L200 -75 L66 -246 Z " />
<glyph glyph-name="breve" unicode="&#x2d8;" horiz-adv-x="480" d="M303 704 C225 704 202 746 207 795 L160 795 C152 724 173 645 294 645 C413 645 463 722 480 795 L431 795 C417 746 380 704 303 704 L303 704 Z " />
<glyph glyph-name="dotaccent" unicode="&#x2d9;" horiz-adv-x="480" d="M255 675 L344 675 L359 765 L270 765 L255 675 Z " />
<glyph glyph-name="ring" unicode="&#x2da;" horiz-adv-x="480" d="M241 716 C241 754 276 785 313 785 C347 785 370 759 370 726 C370 688 337 656 300 656 C266 656 241 682 241 716 L241 716 Z M189 711 C189 654 231 610 294 610 C365 610 423 665 423 731 C423 787 380 831 317 831 C246 831 189 778 189 711 L189 711 Z " />
<glyph glyph-name="ogonek" unicode="&#x2db;" horiz-adv-x="480" d="M67 -177 C67 -225 106 -254 169 -254 C207 -254 243 -249 289 -230 L296 -190 C257 -205 236 -209 209 -209 C168 -209 141 -190 141 -154 C141 -84 223 -32 305 0 L253 0 C167 -28 67 -91 67 -177 L67 -177 Z " />
<glyph glyph-name="tilde" unicode="&#x2dc;" horiz-adv-x="480" d="M442 791 C426 732 406 721 380 721 C336 721 306 783 244 783 C193 783 152 753 126 650 L171 650 C186 708 208 720 234 720 C277 720 306 658 368 658 C420 658 461 688 487 791 L442 791 Z " />
<glyph glyph-name="hungarumlaut" unicode="&#x2dd;" horiz-adv-x="480" d="M334 635 L394 635 L575 806 L469 806 L334 635 Z M113 635 L172 635 L353 806 L248 806 L113 635 Z " />
<glyph glyph-name="uni02EC" unicode="&#x2ec;" horiz-adv-x="480" d="M339 -75 L280 -75 L144 -200 L54 -75 L-1 -75 L85 -246 L190 -246 L339 -75 Z " />
<glyph glyph-name="uni02EE" unicode="&#x2ee;" horiz-adv-x="496" d="M141 600 L186 600 L121 485 L161 485 L240 606 L258 700 L158 700 L141 600 Z M354 600 L399 600 L334 485 L374 485 L454 606 L470 700 L371 700 L354 600 Z " />
<glyph glyph-name="gravecomb" unicode="&#x300;" d="M-518 806 L-617 806 L-499 635 L-445 635 L-518 806 Z " />
<glyph glyph-name="acutecomb" unicode="&#x301;" d="M-584 635 L-523 635 L-343 806 L-450 806 L-584 635 Z " />
<glyph glyph-name="uni0302" unicode="&#x302;" d="M-684 635 L-625 635 L-489 760 L-399 635 L-344 635 L-430 806 L-535 806 L-684 635 Z " />
<glyph glyph-name="tildecomb" unicode="&#x303;" d="M-363 791 C-379 732 -399 721 -425 721 C-469 721 -499 783 -561 783 C-612 783 -653 753 -679 650 L-634 650 C-619 708 -597 720 -571 720 C-528 720 -499 658 -437 658 C-385 658 -344 688 -318 791 L-363 791 Z " />
<glyph glyph-name="uni0304" unicode="&#x304;" d="M-687 691 L-319 691 L-309 749 L-677 749 L-687 691 Z " />
<glyph glyph-name="uni0306" unicode="&#x306;" d="M-502 704 C-580 704 -603 746 -598 795 L-645 795 C-653 724 -632 645 -511 645 C-392 645 -342 722 -325 795 L-374 795 C-388 746 -425 704 -502 704 L-502 704 Z " />
<glyph glyph-name="uni0307" unicode="&#x307;" d="M-550 675 L-461 675 L-446 765 L-535 765 L-550 675 Z " />
<glyph glyph-name="uni0308" unicode="&#x308;" d="M-424 675 L-334 675 L-318 765 L-408 765 L-424 675 Z M-679 675 L-589 675 L-574 765 L-663 765 L-679 675 Z " />
<glyph glyph-name="hookabovecomb" unicode="&#x309;" d="M-560 632 L-515 632 L-509 670 L-504 670 C-428 670 -343 685 -343 777 C-343 838 -401 854 -465 854 C-512 854 -563 844 -593 831 L-601 788 C-575 799 -535 807 -497 807 C-451 807 -411 801 -411 764 C-411 717 -447 704 -522 704 L-547 704 L-560 632 Z " />
<glyph glyph-name="uni030A" unicode="&#x30a;" d="M-564 716 C-564 754 -529 785 -492 785 C-458 785 -435 759 -435 726 C-435 688 -468 656 -505 656 C-539 656 -564 682 -564 716 L-564 716 Z M-616 711 C-616 654 -574 610 -511 610 C-440 610 -382 665 -382 731 C-382 787 -425 831 -488 831 C-559 831 -616 778 -616 711 L-616 711 Z " />
<glyph glyph-name="uni030B" unicode="&#x30b;" d="M-471 635 L-411 635 L-230 806 L-336 806 L-471 635 Z M-692 635 L-633 635 L-452 806 L-557 806 L-692 635 Z " />
<glyph glyph-name="uni030C" unicode="&#x30c;" d="M-311 806 L-370 806 L-506 681 L-596 806 L-651 806 L-565 635 L-460 635 L-311 806 Z " />
<glyph glyph-name="uni030F" unicode="&#x30f;" d="M-432 806 L-531 806 L-414 635 L-360 635 L-432 806 Z M-634 806 L-733 806 L-616 635 L-562 635 L-634 806 Z " />
<glyph glyph-name="uni0311" unicode="&#x311;" d="M-492 737 C-415 737 -393 695 -397 646 L-350 646 C-342 719 -363 796 -483 796 C-605 796 -654 719 -672 646 L-621 646 C-607 695 -570 737 -492 737 L-492 737 Z " />
<glyph glyph-name="uni0312" unicode="&#x312;" d="M-354 585 L-399 585 L-334 700 L-374 700 L-453 579 L-471 485 L-371 485 L-354 585 Z " />
<glyph glyph-name="uni0313" unicode="&#x313;" d="M-567 600 L-522 600 L-587 485 L-547 485 L-468 606 L-450 700 L-550 700 L-567 600 Z " />
<glyph glyph-name="uni0314" unicode="&#x314;" d="M-328 700 L-428 700 L-445 606 L-410 485 L-370 485 L-393 600 L-348 600 L-328 700 Z " />
<glyph glyph-name="uni0316" unicode="&#x316;" d="M-673 -75 L-772 -75 L-654 -246 L-600 -246 L-673 -75 Z " />
<glyph glyph-name="uni0317" unicode="&#x317;" d="M-739 -246 L-678 -246 L-498 -75 L-605 -75 L-739 -246 Z " />
<glyph glyph-name="uni031B" unicode="&#x31b;" d="M-92 511 L11 511 C104 511 175 531 193 634 C196 649 198 667 197 686 L117 686 C118 668 116 653 113 639 C102 573 61 560 -1 560 L-84 560 L-92 511 Z " />
<glyph glyph-name="uni031C" unicode="&#x31c;" d="M-592 -50 C-657 -50 -713 -99 -724 -160 C-735 -221 -696 -271 -631 -271 L-623 -225 C-657 -225 -680 -196 -674 -160 C-667 -125 -634 -96 -600 -96 L-592 -50 Z " />
<glyph glyph-name="dotbelowcomb" unicode="&#x323;" d="M-705 -206 L-616 -206 L-601 -116 L-690 -116 L-705 -206 Z " />
<glyph glyph-name="uni0324" unicode="&#x324;" d="M-579 -206 L-489 -206 L-473 -116 L-563 -116 L-579 -206 Z M-834 -206 L-744 -206 L-729 -116 L-818 -116 L-834 -206 Z " />
<glyph glyph-name="uni0325" unicode="&#x325;" d="M-719 -165 C-719 -127 -684 -96 -647 -96 C-613 -96 -590 -122 -590 -155 C-590 -193 -623 -225 -660 -225 C-694 -225 -719 -199 -719 -165 L-719 -165 Z M-771 -170 C-771 -227 -729 -271 -666 -271 C-595 -271 -537 -216 -537 -150 C-537 -94 -580 -50 -643 -50 C-714 -50 -771 -103 -771 -170 L-771 -170 Z " />
<glyph glyph-name="uni0326" unicode="&#x326;" d="M-702 -206 L-667 -206 L-728 -310 L-689 -310 L-614 -200 L-600 -116 L-686 -116 L-702 -206 Z " />
<glyph glyph-name="uni0327" unicode="&#x327;" d="M-693 -108 L-669 -108 C-613 -108 -583 -119 -583 -154 C-583 -203 -637 -217 -688 -217 C-724 -217 -759 -208 -775 -197 L-782 -237 C-758 -251 -717 -262 -675 -262 C-599 -262 -519 -236 -519 -148 C-519 -84 -584 -64 -642 -69 L-610 0 L-645 0 L-693 -108 Z " />
<glyph glyph-name="uni0328" unicode="&#x328;" d="M-738 -177 C-738 -225 -699 -254 -636 -254 C-598 -254 -562 -249 -516 -230 L-509 -190 C-548 -205 -569 -209 -596 -209 C-637 -209 -664 -190 -664 -154 C-664 -84 -582 -32 -500 0 L-552 0 C-638 -28 -738 -91 -738 -177 L-738 -177 Z " />
<glyph glyph-name="uni032C" unicode="&#x32c;" d="M-466 -75 L-525 -75 L-661 -200 L-751 -75 L-806 -75 L-720 -246 L-615 -246 L-466 -75 Z " />
<glyph glyph-name="uni032D" unicode="&#x32d;" d="M-839 -246 L-780 -246 L-644 -121 L-554 -246 L-499 -246 L-585 -75 L-690 -75 L-839 -246 Z " />
<glyph glyph-name="uni032E" unicode="&#x32e;" d="M-657 -177 C-735 -177 -758 -135 -753 -86 L-800 -86 C-808 -157 -787 -236 -666 -236 C-547 -236 -497 -159 -480 -86 L-529 -86 C-543 -135 -580 -177 -657 -177 L-657 -177 Z " />
<glyph glyph-name="uni032F" unicode="&#x32f;" d="M-649 -144 C-572 -144 -549 -186 -553 -235 L-506 -235 C-498 -163 -520 -86 -640 -86 C-762 -86 -809 -163 -828 -235 L-777 -235 C-763 -186 -727 -144 -649 -144 L-649 -144 Z " />
<glyph glyph-name="uni0330" unicode="&#x330;" d="M-518 -90 C-534 -149 -554 -160 -580 -160 C-624 -160 -654 -98 -716 -98 C-767 -98 -808 -128 -834 -231 L-789 -231 C-774 -173 -752 -161 -726 -161 C-683 -161 -654 -223 -592 -223 C-540 -223 -499 -193 -473 -90 L-518 -90 Z " />
<glyph glyph-name="uni0331" unicode="&#x331;" d="M-842 -190 L-474 -190 L-464 -132 L-832 -132 L-842 -190 Z " />
<glyph glyph-name="uni0338" unicode="&#x338;" d="M-919 -75 L-840 -75 L-205 776 L-286 776 L-919 -75 Z " />
<glyph glyph-name="uni0339" unicode="&#x339;" d="M-684 -96 C-650 -96 -627 -125 -634 -160 C-640 -196 -672 -225 -706 -225 L-714 -271 C-650 -271 -594 -221 -584 -160 C-572 -99 -611 -50 -675 -50 L-684 -96 Z " />
<glyph glyph-name="uni0340" unicode="&#x340;" d="M-518 806 L-617 806 L-499 635 L-445 635 L-518 806 Z " />
<glyph glyph-name="uni0341" unicode="&#x341;" d="M-584 635 L-523 635 L-343 806 L-450 806 L-584 635 Z " />
<glyph glyph-name="uni0343" unicode="&#x343;" d="M-567 600 L-522 600 L-587 485 L-547 485 L-468 606 L-450 700 L-550 700 L-567 600 Z " />
<glyph glyph-name="uni0344" unicode="&#x344;" d="M-381 676 L-293 676 L-278 765 L-366 765 L-381 676 Z M-717 676 L-629 676 L-614 765 L-702 765 L-717 676 Z M-532 635 L-494 635 L-432 835 L-522 835 L-532 635 Z " />
<glyph glyph-name="uni034F" unicode="&#x34f;" d="" />
<glyph glyph-name="uni0351" unicode="&#x351;" d="M-437 831 C-502 831 -558 782 -568 721 C-580 660 -541 610 -476 610 L-468 656 C-502 656 -525 685 -518 721 C-512 756 -479 785 -445 785 L-437 831 Z " />
<glyph glyph-name="uni0357" unicode="&#x357;" d="M-528 785 C-494 785 -472 756 -478 721 C-485 685 -517 656 -551 656 L-559 610 C-495 610 -439 660 -428 721 C-417 782 -456 831 -520 831 L-528 785 Z " />
<glyph glyph-name="uni0374" unicode="&#x374;" horiz-adv-x="284" d="M114 400 L175 400 L305 700 L201 700 L114 400 Z " />
<glyph glyph-name="uni0375" unicode="&#x375;" horiz-adv-x="284" d="M26 -100 L87 -100 L217 200 L113 200 L26 -100 Z " />
<glyph glyph-name="uni037E" unicode="&#x37e;" horiz-adv-x="285" d="M35 0 L80 0 L15 -115 L55 -115 L134 6 L152 100 L52 100 L35 0 Z M116 460 L215 460 L233 560 L134 560 L116 460 Z " />
<glyph glyph-name="tonos" unicode="&#x384;" horiz-adv-x="480" d="M270 635 L315 635 L378 835 L279 835 L270 635 Z " />
<glyph glyph-name="dieresistonos" unicode="&#x385;" horiz-adv-x="480" d="M425 676 L513 676 L528 765 L440 765 L425 676 Z M89 676 L177 676 L192 765 L104 765 L89 676 Z M274 635 L312 635 L374 835 L284 835 L274 635 Z " />
<glyph glyph-name="Alphatonos" unicode="&#x386;" horiz-adv-x="1220" d="M1046 0 L1150 0 L722 700 L628 700 L-49 0 L63 0 L195 138 L962 138 L1046 0 Z M665 626 L917 211 L265 211 L665 626 Z M186 500 L231 500 L294 700 L195 700 L186 500 Z " />
<glyph glyph-name="anoteleia" unicode="&#x387;" horiz-adv-x="277" d="M77 235 L166 235 L181 325 L92 325 L77 235 Z " />
<glyph glyph-name="Epsilontonos" unicode="&#x388;" horiz-adv-x="1300" d="M209 0 L1163 0 L1177 80 L311 80 L351 313 L1119 313 L1134 387 L366 387 L406 620 L1272 620 L1288 700 L334 700 L209 0 Z M82 500 L127 500 L190 700 L91 700 L82 500 Z " />
<glyph glyph-name="Etatonos" unicode="&#x389;" horiz-adv-x="1402" d="M1136 0 L1224 0 L1349 700 L1261 700 L1206 390 L366 390 L422 700 L334 700 L209 0 L297 0 L350 310 L1190 310 L1136 0 Z M82 500 L127 500 L190 700 L91 700 L82 500 Z " />
<glyph glyph-name="Iotatonos" unicode="&#x38a;" horiz-adv-x="476" d="M209 0 L297 0 L422 700 L334 700 L209 0 Z M82 500 L127 500 L190 700 L91 700 L82 500 Z " />
<glyph glyph-name="Omicrontonos" unicode="&#x38c;" horiz-adv-x="1414" d="M850 -10 C1212 -10 1349 187 1349 411 C1349 580 1242 710 971 710 L689 710 C330 710 188 516 188 294 C188 122 296 -10 568 -10 L850 -10 Z M585 70 C359 70 282 172 282 305 C282 468 384 630 686 630 L954 630 C1177 630 1255 529 1255 399 C1255 232 1154 70 853 70 L585 70 Z M82 500 L127 500 L190 700 L91 700 L82 500 Z " />
<glyph glyph-name="Upsilontonos" unicode="&#x38e;" horiz-adv-x="1363" d="M661 0 L749 0 L786 212 L1428 700 L1293 700 L750 280 L357 700 L234 700 L698 212 L661 0 Z M82 500 L127 500 L190 700 L91 700 L82 500 Z " />
<glyph glyph-name="Omegatonos" unicode="&#x38f;" horiz-adv-x="1410" d="M547 67 C365 102 291 209 291 327 C291 473 381 630 658 630 L963 630 C1167 630 1238 538 1238 419 C1238 269 1125 112 869 67 L858 0 L1281 0 L1296 80 L1058 80 C1252 158 1328 302 1328 446 C1328 593 1233 710 992 710 L657 710 C337 710 207 531 207 335 C207 231 257 131 372 80 L130 80 L115 0 L537 0 L547 67 Z M82 500 L127 500 L190 700 L91 700 L82 500 Z " />
<glyph glyph-name="iotadieresistonos" unicode="&#x390;" horiz-adv-x="297" d="M49 0 L128 0 L227 560 L148 560 L49 0 Z M332 676 L420 676 L435 765 L347 765 L332 676 Z M-4 676 L84 676 L99 765 L11 765 L-4 676 Z M181 635 L219 635 L281 835 L191 835 L181 635 Z " />
<glyph glyph-name="Alpha" unicode="&#x391;" horiz-adv-x="1220" d="M1046 0 L1150 0 L722 700 L628 700 L-49 0 L63 0 L195 138 L962 138 L1046 0 Z M665 626 L917 211 L265 211 L665 626 Z " />
<glyph glyph-name="Beta" unicode="&#x392;" horiz-adv-x="1209" d="M59 0 L848 0 C1033 0 1106 103 1106 214 C1106 284 1069 341 980 358 C1075 392 1119 464 1119 555 C1119 636 1066 700 929 700 L184 700 L59 0 Z M881 313 C981 313 1015 270 1015 217 C1015 147 966 80 841 80 L162 80 L202 313 L881 313 Z M1024 523 C1024 458 979 387 856 387 L216 387 L257 620 L892 620 C990 620 1024 578 1024 523 L1024 523 Z " />
<glyph glyph-name="Gamma" unicode="&#x393;" horiz-adv-x="1084" d="M59 0 L147 0 L256 620 L1103 620 L1119 700 L184 700 L59 0 Z " />
<glyph glyph-name="Delta" unicode="&#x394;" horiz-adv-x="1220" d="M723 700 L628 700 L-49 0 L1150 0 L723 700 Z M667 628 L1003 80 L139 80 L667 628 Z " />
<glyph glyph-name="Epsilon" unicode="&#x395;" horiz-adv-x="1151" d="M59 0 L1013 0 L1027 80 L161 80 L201 313 L969 313 L984 387 L216 387 L256 620 L1122 620 L1138 700 L184 700 L59 0 Z " />
<glyph glyph-name="Zeta" unicode="&#x396;" horiz-adv-x="1147" d="M14 0 L1026 0 L1040 80 L199 80 L1120 637 L1129 700 L146 700 L130 620 L943 620 L22 63 L14 0 Z " />
<glyph glyph-name="Eta" unicode="&#x397;" horiz-adv-x="1253" d="M986 0 L1074 0 L1199 700 L1111 700 L1056 390 L216 390 L272 700 L184 700 L59 0 L147 0 L200 310 L1040 310 L986 0 Z " />
<glyph glyph-name="Theta" unicode="&#x398;" horiz-adv-x="1294" d="M337 313 L946 313 L960 387 L352 387 L337 313 Z M730 -10 C1092 -10 1229 187 1229 411 C1229 580 1122 710 851 710 L569 710 C210 710 68 516 68 294 C68 122 176 -10 448 -10 L730 -10 Z M465 70 C239 70 162 172 162 305 C162 468 264 630 566 630 L834 630 C1057 630 1135 529 1135 399 C1135 232 1034 70 733 70 L465 70 Z " />
<glyph glyph-name="Iota" unicode="&#x399;" horiz-adv-x="326" d="M59 0 L147 0 L272 700 L184 700 L59 0 Z " />
<glyph glyph-name="Kappa" unicode="&#x39a;" horiz-adv-x="1237" d="M1209 700 L1051 700 L188 237 L271 700 L184 700 L59 0 L146 0 L170 141 L531 335 L1032 0 L1172 0 L610 378 L1209 700 Z " />
<glyph glyph-name="Lambda" unicode="&#x39b;" horiz-adv-x="1220" d="M628 700 L-49 0 L67 0 L665 626 L1042 0 L1150 0 L723 700 L628 700 Z " />
<glyph glyph-name="Mu" unicode="&#x39c;" horiz-adv-x="1391" d="M1247 700 L656 148 L262 700 L184 700 L59 0 L146 0 L248 578 L640 29 L1225 578 L1125 0 L1212 0 L1337 700 L1247 700 Z " />
<glyph glyph-name="Nu" unicode="&#x39d;" horiz-adv-x="1253" d="M990 0 L1074 0 L1199 700 L1111 700 L1003 95 L267 700 L184 700 L59 0 L147 0 L253 605 L990 0 Z " />
<glyph glyph-name="Xi" unicode="&#x39e;" horiz-adv-x="1159" d="M128 620 L1130 620 L1146 700 L144 700 L128 620 Z M1034 80 L32 80 L18 0 L1020 0 L1034 80 Z M161 313 L987 313 L1001 387 L176 387 L161 313 Z " />
<glyph glyph-name="Omicron" unicode="&#x39f;" horiz-adv-x="1294" d="M730 -10 C1092 -10 1229 187 1229 411 C1229 580 1122 710 851 710 L569 710 C210 710 68 516 68 294 C68 122 176 -10 448 -10 L730 -10 Z M465 70 C239 70 162 172 162 305 C162 468 264 630 566 630 L834 630 C1057 630 1135 529 1135 399 C1135 232 1034 70 733 70 L465 70 Z " />
<glyph glyph-name="Pi" unicode="&#x3a0;" horiz-adv-x="1253" d="M986 0 L1074 0 L1199 700 L184 700 L59 0 L147 0 L256 620 L1095 620 L986 0 Z " />
<glyph glyph-name="Rho" unicode="&#x3a1;" horiz-adv-x="1148" d="M59 0 L147 0 L195 270 L842 270 C1060 270 1146 383 1146 519 C1146 619 1086 700 919 700 L184 700 L59 0 Z M901 620 C1016 620 1054 570 1054 506 C1054 424 997 350 852 350 L209 350 L257 620 L901 620 Z " />
<glyph glyph-name="Sigma" unicode="&#x3a3;" horiz-adv-x="1130" d="M131 633 L552 352 L30 67 L18 0 L992 0 L1005 80 L213 80 L704 347 L303 620 L1101 620 L1117 700 L144 700 L131 633 Z " />
<glyph glyph-name="Tau" unicode="&#x3a4;" horiz-adv-x="1137" d="M80 620 L574 620 L464 0 L552 0 L662 620 L1156 620 L1171 700 L96 700 L80 620 Z " />
<glyph glyph-name="Upsilon" unicode="&#x3a5;" horiz-adv-x="1196" d="M494 0 L582 0 L619 212 L1261 700 L1126 700 L583 280 L190 700 L67 700 L531 212 L494 0 Z " />
<glyph glyph-name="Phi" unicode="&#x3a6;" horiz-adv-x="1253" d="M800 62 C1095 62 1206 219 1206 397 C1206 529 1119 638 901 638 L724 638 L744 750 L656 750 L636 638 L458 638 C165 638 52 477 52 301 C52 167 140 62 357 62 L533 62 L513 -50 L601 -50 L621 62 L800 62 Z M888 558 C1056 558 1112 481 1112 383 C1112 257 1019 142 804 142 L636 142 L709 558 L888 558 Z M147 315 C147 440 240 558 454 558 L621 558 L548 142 L370 142 C202 142 147 217 147 315 L147 315 Z " />
<glyph glyph-name="Chi" unicode="&#x3a7;" horiz-adv-x="1178" d="M93 700 L525 351 L-37 0 L110 0 L588 305 L961 0 L1097 0 L660 351 L1217 700 L1070 700 L595 398 L229 700 L93 700 Z " />
<glyph glyph-name="Psi" unicode="&#x3a8;" horiz-adv-x="1244" d="M518 0 L606 0 L632 149 L768 149 C1061 149 1172 277 1206 468 L1248 700 L1160 700 L1121 485 C1093 329 1004 229 779 229 L647 229 L731 700 L643 700 L559 229 L435 229 C202 229 148 332 174 482 L214 700 L126 700 L86 482 C51 289 127 149 424 149 L544 149 L518 0 Z " />
<glyph glyph-name="Omega" unicode="&#x3a9;" horiz-adv-x="1302" d="M440 67 C258 102 184 209 184 327 C184 473 274 630 551 630 L856 630 C1060 630 1131 538 1131 419 C1131 269 1018 112 762 67 L751 0 L1174 0 L1189 80 L951 80 C1145 158 1221 302 1221 446 C1221 593 1126 710 885 710 L550 710 C230 710 100 531 100 335 C100 231 150 131 265 80 L23 80 L8 0 L430 0 L440 67 Z " />
<glyph glyph-name="Iotadieresis" unicode="&#x3aa;" horiz-adv-x="326" d="M59 0 L147 0 L272 700 L184 700 L59 0 Z M327 815 L417 815 L433 905 L343 905 L327 815 Z M72 815 L162 815 L177 905 L88 905 L72 815 Z " />
<glyph glyph-name="Upsilondieresis" unicode="&#x3ab;" horiz-adv-x="1196" d="M494 0 L582 0 L619 212 L1261 700 L1126 700 L583 280 L190 700 L67 700 L531 212 L494 0 Z M764 815 L854 815 L870 905 L780 905 L764 815 Z M509 815 L599 815 L614 905 L525 905 L509 815 Z " />
<glyph glyph-name="alphatonos" unicode="&#x3ac;" horiz-adv-x="1044" d="M878 0 L973 0 L605 560 L519 560 L-48 0 L54 0 L169 114 L803 114 L878 0 Z M554 495 L763 176 L231 176 L554 495 Z M122 360 L167 360 L230 560 L131 560 L122 360 Z " />
<glyph glyph-name="epsilontonos" unicode="&#x3ad;" horiz-adv-x="1142" d="M199 0 L1011 0 L1023 69 L290 69 L322 249 L970 249 L982 311 L334 311 L365 491 L1097 491 L1110 560 L298 560 L199 0 Z M57 360 L102 360 L165 560 L66 560 L57 360 Z " />
<glyph glyph-name="etatonos" unicode="&#x3ae;" horiz-adv-x="1232" d="M984 0 L1063 0 L1162 560 L1083 560 L1040 315 L335 315 L377 560 L298 560 L199 0 L278 0 L321 245 L1026 245 L984 0 Z M57 360 L102 360 L165 560 L66 560 L57 360 Z " />
<glyph glyph-name="iotatonos" unicode="&#x3af;" horiz-adv-x="446" d="M198 0 L277 0 L376 560 L297 560 L198 0 Z M57 360 L102 360 L165 560 L66 560 L57 360 Z " />
<glyph glyph-name="upsilondieresistonos" unicode="&#x3b0;" horiz-adv-x="1019" d="M410 0 L490 0 L519 170 L1057 560 L936 560 L486 229 L151 560 L41 560 L440 170 L410 0 Z M696 676 L784 676 L799 765 L711 765 L696 676 Z M360 676 L448 676 L463 765 L375 765 L360 676 Z M545 635 L583 635 L645 835 L555 835 L545 635 Z " />
<glyph glyph-name="alpha" unicode="&#x3b1;" horiz-adv-x="1044" d="M878 0 L973 0 L605 560 L519 560 L-48 0 L54 0 L169 114 L803 114 L878 0 Z M554 495 L763 176 L231 176 L554 495 Z " />
<glyph glyph-name="beta" unicode="&#x3b2;" horiz-adv-x="1040" d="M49 0 L725 0 C887 0 937 84 937 172 C937 227 908 273 833 287 C915 314 944 379 944 442 C944 509 903 560 787 560 L148 560 L49 0 Z M717 69 L140 69 L172 249 L748 249 C834 249 854 215 854 172 C854 117 822 69 717 69 L717 69 Z M755 491 C836 491 859 460 859 417 C859 366 829 311 727 311 L184 311 L215 491 L755 491 Z " />
<glyph glyph-name="gamma" unicode="&#x3b3;" horiz-adv-x="946" d="M49 0 L128 0 L215 491 L931 491 L944 560 L148 560 L49 0 Z " />
<glyph glyph-name="delta" unicode="&#x3b4;" horiz-adv-x="1044" d="M605 560 L519 560 L-48 0 L973 0 L605 560 Z M554 496 L837 69 L119 69 L554 496 Z " />
<glyph glyph-name="epsilon" unicode="&#x3b5;" horiz-adv-x="992" d="M49 0 L861 0 L873 69 L140 69 L172 249 L820 249 L832 311 L184 311 L215 491 L947 491 L960 560 L148 560 L49 0 Z " />
<glyph glyph-name="zeta" unicode="&#x3b6;" horiz-adv-x="982" d="M7 0 L869 0 L881 69 L175 69 L942 506 L949 560 L112 560 L100 491 L779 491 L13 54 L7 0 Z " />
<glyph glyph-name="eta" unicode="&#x3b7;" horiz-adv-x="1082" d="M834 0 L913 0 L1012 560 L933 560 L890 315 L185 315 L227 560 L148 560 L49 0 L128 0 L171 245 L876 245 L834 0 Z " />
<glyph glyph-name="theta" unicode="&#x3b8;" horiz-adv-x="1109" d="M283 249 L792 249 L804 311 L294 311 L283 249 Z M617 -8 C922 -8 1036 152 1037 326 C1039 461 955 568 721 568 L471 568 C166 568 53 408 52 234 C51 99 132 -8 367 -8 L617 -8 Z M381 61 C196 61 135 140 136 239 C136 370 226 499 463 499 L708 499 C893 499 953 420 953 320 C953 192 865 61 626 61 L381 61 Z " />
<glyph glyph-name="iota" unicode="&#x3b9;" horiz-adv-x="297" d="M49 0 L128 0 L227 560 L148 560 L49 0 Z " />
<glyph glyph-name="kappa" unicode="&#x3ba;" horiz-adv-x="1067" d="M1026 560 L879 560 L162 196 L227 560 L148 560 L49 0 L128 0 L147 110 L451 265 L869 0 L997 0 L522 302 L1026 560 Z " />
<glyph glyph-name="lambda" unicode="&#x3bb;" horiz-adv-x="1044" d="M518 560 L-48 0 L56 0 L553 495 L875 0 L973 0 L604 560 L518 560 Z " />
<glyph glyph-name="mu" unicode="&#x3bc;" horiz-adv-x="1199" d="M1048 560 L557 127 L218 560 L148 560 L49 0 L128 0 L209 454 L543 23 L1032 454 L951 0 L1030 0 L1129 560 L1048 560 Z " />
<glyph glyph-name="nu" unicode="&#x3bd;" horiz-adv-x="1082" d="M913 0 L1012 560 L933 560 L848 84 L223 560 L148 560 L49 0 L128 0 L213 476 L838 0 L913 0 Z " />
<glyph glyph-name="xi" unicode="&#x3be;" horiz-adv-x="995" d="M99 491 L951 491 L963 560 L111 560 L99 491 Z M876 69 L24 69 L12 0 L864 0 L876 69 Z M131 249 L831 249 L844 311 L143 311 L131 249 Z " />
<glyph glyph-name="omicron" unicode="&#x3bf;" horiz-adv-x="1109" d="M617 -8 C922 -8 1036 152 1037 326 C1039 461 955 568 721 568 L471 568 C166 568 53 408 52 234 C51 99 132 -8 367 -8 L617 -8 Z M381 61 C196 61 135 140 136 239 C136 370 226 499 463 499 L708 499 C893 499 953 420 953 320 C953 192 865 61 626 61 L381 61 Z " />
<glyph glyph-name="pi" unicode="&#x3c0;" horiz-adv-x="1082" d="M834 0 L913 0 L1012 560 L148 560 L49 0 L128 0 L215 491 L921 491 L834 0 Z " />
<glyph glyph-name="rho" unicode="&#x3c1;" horiz-adv-x="999" d="M49 0 L128 0 L166 213 L715 213 C906 213 969 311 969 414 C969 495 919 560 778 560 L148 560 L49 0 Z M763 491 C856 491 885 453 885 404 C885 343 848 283 726 283 L179 283 L215 491 L763 491 Z " />
<glyph glyph-name="uni03C2" unicode="&#x3c2;" horiz-adv-x="969" d="M100 502 L458 281 L21 58 L11 0 L839 0 L851 69 L185 69 L594 278 L255 491 L925 491 L938 560 L110 560 L100 502 Z " />
<glyph glyph-name="sigma" unicode="&#x3c3;" horiz-adv-x="969" d="M100 502 L458 281 L21 58 L11 0 L839 0 L851 69 L185 69 L594 278 L255 491 L925 491 L938 560 L110 560 L100 502 Z " />
<glyph glyph-name="tau" unicode="&#x3c4;" horiz-adv-x="999" d="M70 491 L487 491 L400 0 L479 0 L566 491 L984 491 L996 560 L82 560 L70 491 Z " />
<glyph glyph-name="upsilon" unicode="&#x3c5;" horiz-adv-x="1019" d="M410 0 L490 0 L519 170 L1057 560 L936 560 L486 229 L151 560 L41 560 L440 170 L410 0 Z " />
<glyph glyph-name="phi" unicode="&#x3c6;" horiz-adv-x="1084" d="M685 50 C938 50 1023 178 1023 319 C1023 425 954 510 767 510 L613 510 L629 600 L549 600 L533 510 L380 510 C130 510 42 379 42 240 C42 132 110 50 298 50 L451 50 L434 -40 L514 -40 L531 50 L685 50 Z M756 441 C894 441 937 383 937 309 C937 212 874 119 693 119 L543 119 L600 441 L756 441 Z M308 119 C171 119 127 177 127 251 C127 348 190 441 371 441 L521 441 L464 119 L308 119 Z " />
<glyph glyph-name="chi" unicode="&#x3c7;" horiz-adv-x="1022" d="M72 560 L441 282 L-31 0 L102 0 L499 239 L812 0 L934 0 L561 282 L1030 560 L896 560 L504 323 L193 560 L72 560 Z " />
<glyph glyph-name="psi" unicode="&#x3c8;" horiz-adv-x="1070" d="M435 0 L515 0 L535 118 L644 118 C901 118 992 220 1019 375 L1051 560 L972 560 L941 383 C921 265 864 187 657 187 L548 187 L614 560 L534 560 L469 187 L362 187 C159 187 125 268 145 383 L176 560 L97 560 L66 383 C40 229 93 118 351 118 L455 118 L435 0 Z " />
<glyph glyph-name="omega" unicode="&#x3c9;" horiz-adv-x="1122" d="M637 0 L997 0 L1010 69 L813 69 C969 130 1033 242 1033 357 C1033 475 958 568 750 568 L453 568 C178 568 82 423 82 270 C82 189 124 109 220 69 L18 69 L5 0 L365 0 L376 58 C212 84 156 170 156 263 C156 381 238 499 459 499 L726 499 C899 499 954 425 954 333 C954 211 871 99 648 58 L637 0 Z " />
<glyph glyph-name="iotadieresis" unicode="&#x3ca;" horiz-adv-x="297" d="M49 0 L128 0 L227 560 L148 560 L49 0 Z M289 675 L379 675 L395 765 L305 765 L289 675 Z M34 675 L124 675 L139 765 L50 765 L34 675 Z " />
<glyph glyph-name="upsilondieresis" unicode="&#x3cb;" horiz-adv-x="1019" d="M410 0 L490 0 L519 170 L1057 560 L936 560 L486 229 L151 560 L41 560 L440 170 L410 0 Z M652 675 L742 675 L758 765 L668 765 L652 675 Z M397 675 L487 675 L502 765 L413 765 L397 675 Z " />
<glyph glyph-name="omicrontonos" unicode="&#x3cc;" horiz-adv-x="1241" d="M749 -8 C1054 -8 1168 152 1169 326 C1171 461 1087 568 853 568 L603 568 C298 568 185 408 184 234 C183 99 264 -8 499 -8 L749 -8 Z M513 61 C328 61 267 140 268 239 C268 370 358 499 595 499 L840 499 C1025 499 1085 420 1085 320 C1085 192 997 61 758 61 L513 61 Z M57 360 L102 360 L165 560 L66 560 L57 360 Z " />
<glyph glyph-name="upsilontonos" unicode="&#x3cd;" horiz-adv-x="1186" d="M577 0 L657 0 L686 170 L1224 560 L1103 560 L653 229 L318 560 L208 560 L607 170 L577 0 Z M57 360 L102 360 L165 560 L66 560 L57 360 Z " />
<glyph glyph-name="omegatonos" unicode="&#x3ce;" horiz-adv-x="1236" d="M751 0 L1111 0 L1124 69 L927 69 C1083 130 1147 242 1147 357 C1147 475 1072 568 864 568 L567 568 C292 568 196 423 196 270 C196 189 238 109 334 69 L132 69 L119 0 L479 0 L490 58 C326 84 270 170 270 263 C270 381 352 499 573 499 L840 499 C1013 499 1068 425 1068 333 C1068 211 985 99 762 58 L751 0 Z M57 360 L102 360 L165 560 L66 560 L57 360 Z " />
<glyph glyph-name="uni0400" unicode="&#x400;" horiz-adv-x="1151" d="M59 0 L1013 0 L1027 80 L161 80 L201 313 L969 313 L984 387 L216 387 L256 620 L1122 620 L1138 700 L184 700 L59 0 Z M657 946 L558 946 L676 775 L730 775 L657 946 Z " />
<glyph glyph-name="uni0401" unicode="&#x401;" horiz-adv-x="1151" d="M59 0 L1013 0 L1027 80 L161 80 L201 313 L969 313 L984 387 L216 387 L256 620 L1122 620 L1138 700 L184 700 L59 0 Z M750 815 L840 815 L856 905 L766 905 L750 815 Z M495 815 L585 815 L600 905 L511 905 L495 815 Z " />
<glyph glyph-name="uni0402" unicode="&#x402;" horiz-adv-x="1300" d="M651 0 L970 0 C1168 0 1246 105 1246 224 C1246 316 1189 387 1039 387 L425 387 L466 620 L967 620 L982 700 L96 700 L81 620 L378 620 L268 0 L356 0 L412 313 L1023 313 C1121 313 1153 271 1153 216 C1153 144 1106 80 981 80 L666 80 L651 0 Z " />
<glyph glyph-name="uni0403" unicode="&#x403;" horiz-adv-x="1084" d="M59 0 L147 0 L256 620 L1103 620 L1119 700 L184 700 L59 0 Z M587 775 L648 775 L828 946 L721 946 L587 775 Z " />
<glyph glyph-name="uni0404" unicode="&#x404;" horiz-adv-x="1137" d="M162 307 L162 313 L955 313 L969 387 L171 387 C201 512 307 620 547 620 L1108 620 L1123 700 L554 700 C208 700 68 507 68 296 C68 130 170 0 438 0 L998 0 L1012 80 L452 80 C235 80 162 179 162 307 L162 307 Z " />
<glyph glyph-name="uni0405" unicode="&#x405;" horiz-adv-x="1159" d="M802 80 L64 80 L49 0 L791 0 C987 0 1067 104 1067 224 C1067 316 1010 387 859 387 L321 387 C223 387 191 429 191 484 C191 556 239 620 362 620 L1100 620 L1115 700 L374 700 C178 700 98 596 98 476 C98 384 155 313 305 313 L844 313 C942 313 973 271 973 216 C973 144 926 80 802 80 L802 80 Z " />
<glyph glyph-name="uni0406" unicode="&#x406;" horiz-adv-x="326" d="M59 0 L147 0 L272 700 L184 700 L59 0 Z " />
<glyph glyph-name="uni0407" unicode="&#x407;" horiz-adv-x="326" d="M59 0 L147 0 L272 700 L184 700 L59 0 Z M327 815 L417 815 L433 905 L343 905 L327 815 Z M72 815 L162 815 L177 905 L88 905 L72 815 Z " />
<glyph glyph-name="uni0408" unicode="&#x408;" horiz-adv-x="1182" d="M308 -5 L621 -5 C914 -5 1024 113 1058 306 L1128 700 L1040 700 L972 325 C944 169 856 75 632 75 L325 75 C139 75 94 162 117 273 L127 322 L40 322 L31 275 C0 123 66 -5 308 -5 L308 -5 Z " />
<glyph glyph-name="uni0409" unicode="&#x409;" horiz-adv-x="1787" d="M810 0 L1434 0 C1652 0 1738 113 1738 249 C1738 349 1678 430 1511 430 L976 430 L1023 700 L362 700 L204 196 C183 128 139 80 40 80 L-15 80 L-30 0 L25 0 C190 0 257 81 286 178 L424 620 L920 620 L810 0 Z M1444 80 L913 80 L961 350 L1493 350 C1608 350 1646 300 1646 236 C1646 154 1589 80 1444 80 L1444 80 Z " />
<glyph glyph-name="uni040A" unicode="&#x40a;" horiz-adv-x="1801" d="M823 0 L1447 0 C1665 0 1752 112 1752 248 C1752 349 1692 430 1524 430 L989 430 L1037 700 L949 700 L901 430 L224 430 L272 700 L184 700 L59 0 L147 0 L209 350 L886 350 L823 0 Z M974 350 L1507 350 C1622 350 1659 299 1659 236 C1659 153 1603 80 1458 80 L926 80 L974 350 Z " />
<glyph glyph-name="uni040B" unicode="&#x40b;" horiz-adv-x="1329" d="M1207 0 L1240 186 C1260 299 1224 385 1050 385 L425 385 L465 620 L967 620 L982 700 L96 700 L80 620 L377 620 L267 0 L355 0 L409 304 L1035 304 C1145 304 1165 254 1151 181 L1119 0 L1207 0 Z " />
<glyph glyph-name="uni040C" unicode="&#x40c;" horiz-adv-x="1236" d="M561 775 L622 775 L802 946 L695 946 L561 775 Z M639 353 L1212 700 L1067 700 L559 390 L216 390 L272 700 L184 700 L59 0 L147 0 L200 310 L558 310 L1030 0 L1171 0 L639 353 Z " />
<glyph glyph-name="uni040D" unicode="&#x40d;" horiz-adv-x="1253" d="M697 946 L598 946 L716 775 L770 775 L697 946 Z M1092 597 L986 0 L1074 0 L1199 700 L1113 700 L165 103 L272 700 L184 700 L59 0 L145 0 L1092 597 Z " />
<glyph glyph-name="uni040E" unicode="&#x40e;" horiz-adv-x="1200" d="M698 844 C620 844 597 886 602 935 L555 935 C547 864 568 785 689 785 C808 785 858 862 875 935 L826 935 C812 886 775 844 698 844 L698 844 Z M366 0 L1267 700 L1135 700 L592 271 L190 700 L69 700 L526 221 L234 0 L366 0 Z " />
<glyph glyph-name="uni040F" unicode="&#x40f;" horiz-adv-x="1253" d="M1000 80 L161 80 L272 700 L184 700 L59 0 L523 0 L495 -150 L583 -150 L611 0 L1074 0 L1199 700 L1111 700 L1000 80 Z " />
<glyph glyph-name="uni0410" unicode="&#x410;" horiz-adv-x="1220" d="M1046 0 L1150 0 L722 700 L628 700 L-49 0 L63 0 L195 138 L962 138 L1046 0 Z M665 626 L917 211 L265 211 L665 626 Z " />
<glyph glyph-name="uni0411" unicode="&#x411;" horiz-adv-x="1186" d="M59 0 L819 0 C1015 0 1095 104 1095 224 C1095 316 1038 387 887 387 L216 387 L257 620 L1104 620 L1119 700 L184 700 L59 0 Z M203 313 L872 313 C970 313 1002 271 1002 216 C1002 144 954 80 830 80 L162 80 L203 313 Z " />
<glyph glyph-name="uni0412" unicode="&#x412;" horiz-adv-x="1209" d="M59 0 L848 0 C1033 0 1106 103 1106 214 C1106 284 1069 341 980 358 C1075 392 1119 464 1119 555 C1119 636 1066 700 929 700 L184 700 L59 0 Z M881 313 C981 313 1015 270 1015 217 C1015 147 966 80 841 80 L162 80 L202 313 L881 313 Z M1024 523 C1024 458 979 387 856 387 L216 387 L257 620 L892 620 C990 620 1024 578 1024 523 L1024 523 Z " />
<glyph glyph-name="uni0413" unicode="&#x413;" horiz-adv-x="1084" d="M59 0 L147 0 L256 620 L1103 620 L1119 700 L184 700 L59 0 Z " />
<glyph glyph-name="uni0414" unicode="&#x414;" horiz-adv-x="1200" d="M58 0 L988 0 L960 -150 L1048 -150 L1091 80 L1007 80 L1118 700 L362 700 L204 196 C183 127 144 80 43 80 L-16 80 L-57 -150 L31 -150 L58 0 Z M423 620 L1015 620 L919 80 L193 80 C248 104 279 151 295 206 L423 620 Z " />
<glyph glyph-name="uni0415" unicode="&#x415;" horiz-adv-x="1151" d="M59 0 L1013 0 L1027 80 L161 80 L201 313 L969 313 L984 387 L216 387 L256 620 L1122 620 L1138 700 L184 700 L59 0 Z " />
<glyph glyph-name="uni0416" unicode="&#x416;" horiz-adv-x="1559" d="M1075 351 L1551 700 L1423 700 L1001 390 L833 390 L889 700 L801 700 L745 390 L568 390 L257 700 L141 700 L490 351 L-39 0 L98 0 L565 310 L730 310 L676 0 L764 0 L818 310 L995 310 L1354 0 L1480 0 L1075 351 Z " />
<glyph glyph-name="uni0417" unicode="&#x417;" horiz-adv-x="1218" d="M8 0 L858 0 C1043 0 1115 103 1115 214 C1115 284 1077 341 989 358 C1084 392 1128 464 1128 555 C1128 636 1075 700 938 700 L153 700 L138 620 L901 620 C1000 620 1033 578 1033 523 C1033 458 988 387 865 387 L180 387 L166 313 L891 313 C991 313 1024 270 1024 217 C1024 146 975 80 850 80 L23 80 L8 0 Z " />
<glyph glyph-name="uni0418" unicode="&#x418;" horiz-adv-x="1253" d="M1092 597 L986 0 L1074 0 L1199 700 L1113 700 L165 103 L272 700 L184 700 L59 0 L145 0 L1092 597 Z " />
<glyph glyph-name="uni0419" unicode="&#x419;" horiz-adv-x="1253" d="M713 844 C635 844 612 886 617 935 L570 935 C562 864 583 785 704 785 C823 785 873 862 890 935 L841 935 C827 886 790 844 713 844 L713 844 Z M1092 597 L986 0 L1074 0 L1199 700 L1113 700 L165 103 L272 700 L184 700 L59 0 L145 0 L1092 597 Z " />
<glyph glyph-name="uni041A" unicode="&#x41a;" horiz-adv-x="1236" d="M639 353 L1212 700 L1067 700 L559 390 L216 390 L272 700 L184 700 L59 0 L147 0 L200 310 L558 310 L1030 0 L1171 0 L639 353 Z " />
<glyph glyph-name="uni041B" unicode="&#x41b;" horiz-adv-x="1207" d="M362 700 L204 196 C183 128 139 80 39 80 L-16 80 L-30 0 L25 0 C190 0 257 81 286 178 L423 620 L1050 620 L940 0 L1028 0 L1153 700 L362 700 Z " />
<glyph glyph-name="uni041C" unicode="&#x41c;" horiz-adv-x="1391" d="M1247 700 L656 148 L262 700 L184 700 L59 0 L146 0 L248 578 L640 29 L1225 578 L1125 0 L1212 0 L1337 700 L1247 700 Z " />
<glyph glyph-name="uni041D" unicode="&#x41d;" horiz-adv-x="1253" d="M986 0 L1074 0 L1199 700 L1111 700 L1056 390 L216 390 L272 700 L184 700 L59 0 L147 0 L200 310 L1040 310 L986 0 Z " />
<glyph glyph-name="uni041E" unicode="&#x41e;" horiz-adv-x="1294" d="M730 -10 C1092 -10 1229 187 1229 411 C1229 580 1122 710 851 710 L569 710 C210 710 68 516 68 294 C68 122 176 -10 448 -10 L730 -10 Z M465 70 C239 70 162 172 162 305 C162 468 264 630 566 630 L834 630 C1057 630 1135 529 1135 399 C1135 232 1034 70 733 70 L465 70 Z " />
<glyph glyph-name="uni041F" unicode="&#x41f;" horiz-adv-x="1253" d="M986 0 L1074 0 L1199 700 L184 700 L59 0 L147 0 L256 620 L1095 620 L986 0 Z " />
<glyph glyph-name="uni0420" unicode="&#x420;" horiz-adv-x="1148" d="M59 0 L147 0 L195 270 L842 270 C1060 270 1146 383 1146 519 C1146 619 1086 700 919 700 L184 700 L59 0 Z M901 620 C1016 620 1054 570 1054 506 C1054 424 997 350 852 350 L209 350 L257 620 L901 620 Z " />
<glyph glyph-name="uni0421" unicode="&#x421;" horiz-adv-x="1137" d="M162 307 C162 462 257 620 547 620 L1108 620 L1123 700 L554 700 C208 700 68 507 68 296 C68 130 170 0 438 0 L998 0 L1012 80 L452 80 C235 80 162 179 162 307 L162 307 Z " />
<glyph glyph-name="uni0422" unicode="&#x422;" horiz-adv-x="1137" d="M80 620 L574 620 L464 0 L552 0 L662 620 L1156 620 L1171 700 L96 700 L80 620 Z " />
<glyph glyph-name="uni0423" unicode="&#x423;" horiz-adv-x="1200" d="M366 0 L1267 700 L1135 700 L592 271 L190 700 L69 700 L526 221 L234 0 L366 0 Z " />
<glyph glyph-name="uni0424" unicode="&#x424;" horiz-adv-x="1253" d="M800 62 C1095 62 1206 219 1206 397 C1206 529 1119 638 901 638 L724 638 L744 750 L656 750 L636 638 L458 638 C165 638 52 477 52 301 C52 167 140 62 357 62 L533 62 L513 -50 L601 -50 L621 62 L800 62 Z M888 558 C1056 558 1112 481 1112 383 C1112 257 1019 142 804 142 L636 142 L709 558 L888 558 Z M147 315 C147 440 240 558 454 558 L621 558 L548 142 L370 142 C202 142 147 217 147 315 L147 315 Z " />
<glyph glyph-name="uni0425" unicode="&#x425;" horiz-adv-x="1178" d="M93 700 L525 351 L-37 0 L110 0 L588 305 L961 0 L1097 0 L660 351 L1217 700 L1070 700 L595 398 L229 700 L93 700 Z " />
<glyph glyph-name="uni0426" unicode="&#x426;" horiz-adv-x="1245" d="M965 80 L161 80 L272 700 L184 700 L59 0 L1033 0 L1005 -150 L1093 -150 L1136 80 L1053 80 L1164 700 L1076 700 L965 80 Z " />
<glyph glyph-name="uni0427" unicode="&#x427;" horiz-adv-x="1177" d="M126 700 L83 466 C63 353 99 267 274 267 L957 267 L909 0 L997 0 L1123 700 L1035 700 L972 347 L288 347 C178 347 159 398 172 470 L214 700 L126 700 Z " />
<glyph glyph-name="uni0428" unicode="&#x428;" horiz-adv-x="1535" d="M1282 80 L765 80 L876 700 L788 700 L677 80 L161 80 L272 700 L184 700 L59 0 L1356 0 L1482 700 L1394 700 L1282 80 Z " />
<glyph glyph-name="uni0429" unicode="&#x429;" horiz-adv-x="1529" d="M1248 80 L748 80 L859 700 L771 700 L660 80 L161 80 L272 700 L184 700 L59 0 L1317 0 L1289 -150 L1377 -150 L1419 80 L1336 80 L1447 700 L1359 700 L1248 80 Z " />
<glyph glyph-name="uni042A" unicode="&#x42a;" horiz-adv-x="1300" d="M268 0 L945 0 C1163 0 1250 113 1250 249 C1250 349 1190 430 1022 430 L433 430 L481 700 L96 700 L81 620 L378 620 L268 0 Z M419 350 L1005 350 C1120 350 1157 300 1157 236 C1157 154 1101 80 956 80 L371 80 L419 350 Z " />
<glyph glyph-name="uni042B" unicode="&#x42b;" horiz-adv-x="1470" d="M1207 0 L1295 0 L1420 700 L1332 700 L1207 0 Z M59 0 L794 0 C1012 0 1099 113 1099 249 C1099 349 1039 430 871 430 L224 430 L272 700 L184 700 L59 0 Z M209 350 L854 350 C969 350 1006 300 1006 236 C1006 154 950 80 805 80 L162 80 L209 350 Z " />
<glyph glyph-name="uni042C" unicode="&#x42c;" horiz-adv-x="1148" d="M59 0 L794 0 C1012 0 1099 113 1099 249 C1099 349 1039 430 871 430 L224 430 L272 700 L184 700 L59 0 Z M209 350 L854 350 C969 350 1006 300 1006 236 C1006 154 950 80 805 80 L162 80 L209 350 Z " />
<glyph glyph-name="uni042D" unicode="&#x42d;" horiz-adv-x="1137" d="M978 393 L978 387 L185 387 L171 313 L969 313 C939 188 832 80 593 80 L32 80 L17 0 L586 0 C932 0 1072 193 1072 404 C1072 570 970 700 702 700 L142 700 L128 620 L688 620 C905 620 978 521 978 393 L978 393 Z " />
<glyph glyph-name="uni042E" unicode="&#x42e;" horiz-adv-x="1804" d="M1240 -10 C1602 -10 1739 187 1739 411 C1739 580 1632 710 1361 710 L1127 710 C820 710 672 569 635 390 L216 390 L272 700 L184 700 L59 0 L147 0 L200 310 L626 310 L626 294 C626 122 733 -10 1005 -10 L1240 -10 Z M1022 70 C797 70 720 172 720 305 C720 468 822 630 1123 630 L1344 630 C1567 630 1645 529 1645 399 C1645 232 1544 70 1243 70 L1022 70 Z " />
<glyph glyph-name="uni042F" unicode="&#x42f;" horiz-adv-x="1226" d="M1174 700 L454 700 C237 700 149 588 149 453 C149 353 210 273 377 273 L455 273 L-54 0 L96 0 L593 271 L1009 271 L960 0 L1048 0 L1174 700 Z M241 463 C241 546 298 620 445 620 L1071 620 L1023 349 L393 349 C279 349 241 399 241 463 L241 463 Z " />
<glyph glyph-name="uni0430" unicode="&#x430;" horiz-adv-x="1044" d="M878 0 L973 0 L605 560 L519 560 L-48 0 L54 0 L169 114 L803 114 L878 0 Z M554 495 L763 176 L231 176 L554 495 Z " />
<glyph glyph-name="uni0431" unicode="&#x431;" horiz-adv-x="1020" d="M49 0 L700 0 C873 0 928 89 928 182 C928 255 883 310 756 310 L184 310 L215 491 L932 491 L946 560 L150 560 L49 0 Z M174 250 L741 250 C821 250 845 218 845 176 C845 121 812 69 707 69 L141 69 L174 250 Z " />
<glyph glyph-name="uni0432" unicode="&#x432;" horiz-adv-x="1040" d="M49 0 L725 0 C887 0 937 84 937 172 C937 227 908 273 833 287 C915 314 944 379 944 442 C944 509 903 560 787 560 L148 560 L49 0 Z M717 69 L140 69 L172 249 L748 249 C834 249 854 215 854 172 C854 117 822 69 717 69 L717 69 Z M755 491 C836 491 859 460 859 417 C859 366 829 311 727 311 L184 311 L215 491 L755 491 Z " />
<glyph glyph-name="uni0433" unicode="&#x433;" horiz-adv-x="946" d="M49 0 L128 0 L215 491 L931 491 L944 560 L148 560 L49 0 Z " />
<glyph glyph-name="uni0434" unicode="&#x434;" horiz-adv-x="1042" d="M62 0 L844 0 L821 -120 L901 -120 L936 69 L865 69 L952 560 L308 560 L179 157 C162 105 131 69 47 69 L-5 69 L-40 -120 L39 -120 L62 0 Z M365 491 L861 491 L785 69 L182 69 C227 90 248 127 262 170 L365 491 Z " />
<glyph glyph-name="uni0435" unicode="&#x435;" horiz-adv-x="992" d="M49 0 L861 0 L873 69 L140 69 L172 249 L820 249 L832 311 L184 311 L215 491 L947 491 L960 560 L148 560 L49 0 Z " />
<glyph glyph-name="uni0436" unicode="&#x436;" horiz-adv-x="1341" d="M916 280 L1310 560 L1199 560 L854 315 L707 315 L749 560 L671 560 L628 315 L478 315 L219 560 L110 560 L405 280 L-35 0 L85 0 L469 245 L614 245 L571 0 L650 0 L693 245 L841 245 L1140 0 L1257 0 L916 280 Z " />
<glyph glyph-name="uni0437" unicode="&#x437;" horiz-adv-x="1044" d="M3 0 L730 0 C892 0 943 84 943 172 C943 227 913 273 838 287 C921 314 950 379 950 442 C950 509 909 560 793 560 L121 560 L107 491 L761 491 C841 491 865 460 865 417 C865 366 835 311 733 311 L146 311 L136 249 L754 249 C840 249 859 215 859 172 C859 117 827 69 723 69 L16 69 L3 0 Z " />
<glyph glyph-name="uni0438" unicode="&#x438;" horiz-adv-x="1082" d="M917 471 L834 0 L913 0 L1012 560 L934 560 L144 89 L227 560 L148 560 L49 0 L128 0 L917 471 Z " />
<glyph glyph-name="uni0439" unicode="&#x439;" horiz-adv-x="1082" d="M603 704 C525 704 502 746 507 795 L460 795 C452 724 473 645 594 645 C713 645 763 722 780 795 L731 795 C717 746 680 704 603 704 L603 704 Z M917 471 L834 0 L913 0 L1012 560 L934 560 L144 89 L227 560 L148 560 L49 0 L128 0 L917 471 Z " />
<glyph glyph-name="uni043A" unicode="&#x43a;" horiz-adv-x="1068" d="M544 282 L1023 560 L891 560 L471 315 L185 315 L227 560 L148 560 L49 0 L128 0 L171 245 L469 245 L864 0 L996 0 L544 282 Z " />
<glyph glyph-name="uni043B" unicode="&#x43b;" horiz-adv-x="1051" d="M365 491 L890 491 L803 0 L883 0 L982 560 L308 560 L179 158 C162 104 132 69 51 69 L-5 69 L-17 0 L48 0 C179 0 227 62 253 143 L365 491 Z " />
<glyph glyph-name="uni043C" unicode="&#x43c;" horiz-adv-x="1199" d="M1048 560 L557 127 L218 560 L148 560 L49 0 L128 0 L209 454 L543 23 L1032 454 L951 0 L1030 0 L1129 560 L1048 560 Z " />
<glyph glyph-name="uni043D" unicode="&#x43d;" horiz-adv-x="1082" d="M834 0 L913 0 L1012 560 L933 560 L890 315 L185 315 L227 560 L148 560 L49 0 L128 0 L171 245 L876 245 L834 0 Z " />
<glyph glyph-name="uni043E" unicode="&#x43e;" horiz-adv-x="1109" d="M617 -8 C922 -8 1036 152 1037 326 C1039 461 955 568 721 568 L471 568 C166 568 53 408 52 234 C51 99 132 -8 367 -8 L617 -8 Z M381 61 C196 61 135 140 136 239 C136 370 226 499 463 499 L708 499 C893 499 953 420 953 320 C953 192 865 61 626 61 L381 61 Z " />
<glyph glyph-name="uni043F" unicode="&#x43f;" horiz-adv-x="1082" d="M834 0 L913 0 L1012 560 L148 560 L49 0 L128 0 L215 491 L921 491 L834 0 Z " />
<glyph glyph-name="uni0440" unicode="&#x440;" horiz-adv-x="999" d="M49 0 L128 0 L166 213 L715 213 C906 213 969 311 969 414 C969 495 919 560 778 560 L148 560 L49 0 Z M763 491 C856 491 885 453 885 404 C885 343 848 283 726 283 L179 283 L215 491 L763 491 Z " />
<glyph glyph-name="uni0441" unicode="&#x441;" horiz-adv-x="974" d="M137 241 C137 368 225 491 456 491 L932 491 L946 560 L460 560 C159 560 52 400 52 232 C52 102 134 0 359 0 L845 0 L857 69 L367 69 C195 69 137 141 137 241 L137 241 Z " />
<glyph glyph-name="uni0442" unicode="&#x442;" horiz-adv-x="999" d="M70 491 L487 491 L400 0 L479 0 L566 491 L984 491 L996 560 L82 560 L70 491 Z " />
<glyph glyph-name="uni0443" unicode="&#x443;" horiz-adv-x="1023" d="M307 0 L1063 560 L943 560 L494 223 L152 560 L43 560 L433 178 L187 0 L307 0 Z " />
<glyph glyph-name="uni0444" unicode="&#x444;" horiz-adv-x="1084" d="M685 50 C938 50 1023 178 1023 319 C1023 425 954 510 767 510 L613 510 L629 600 L549 600 L533 510 L380 510 C130 510 42 379 42 240 C42 132 110 50 298 50 L451 50 L434 -40 L514 -40 L531 50 L685 50 Z M756 441 C894 441 937 383 937 309 C937 212 874 119 693 119 L543 119 L600 441 L756 441 Z M308 119 C171 119 127 177 127 251 C127 348 190 441 371 441 L521 441 L464 119 L308 119 Z " />
<glyph glyph-name="uni0445" unicode="&#x445;" horiz-adv-x="1022" d="M72 560 L441 282 L-31 0 L102 0 L499 239 L812 0 L934 0 L561 282 L1030 560 L896 560 L504 323 L193 560 L72 560 Z " />
<glyph glyph-name="uni0446" unicode="&#x446;" horiz-adv-x="1072" d="M815 69 L140 69 L227 560 L148 560 L49 0 L874 0 L851 -120 L931 -120 L966 69 L895 69 L982 560 L902 560 L815 69 Z " />
<glyph glyph-name="uni0447" unicode="&#x447;" horiz-adv-x="1015" d="M216 211 L804 211 L766 0 L846 0 L946 560 L866 560 L817 280 L230 280 C147 280 134 318 144 375 L176 560 L97 560 L64 370 C48 279 74 211 216 211 L216 211 Z " />
<glyph glyph-name="uni0448" unicode="&#x448;" horiz-adv-x="1322" d="M1086 69 L652 69 L740 560 L660 560 L573 69 L140 69 L227 560 L148 560 L49 0 L1153 0 L1252 560 L1173 560 L1086 69 Z " />
<glyph glyph-name="uni0449" unicode="&#x449;" horiz-adv-x="1313" d="M1056 69 L638 69 L725 560 L645 560 L558 69 L140 69 L227 560 L148 560 L49 0 L1115 0 L1092 -120 L1172 -120 L1207 69 L1136 69 L1223 560 L1143 560 L1056 69 Z " />
<glyph glyph-name="uni044A" unicode="&#x44a;" horiz-adv-x="1137" d="M413 560 L82 560 L70 491 L323 491 L235 0 L815 0 C1006 0 1068 98 1068 201 C1068 282 1018 347 877 347 L376 347 L413 560 Z M825 69 L326 69 L364 277 L862 277 C956 277 984 240 984 190 C984 130 947 69 825 69 L825 69 Z " />
<glyph glyph-name="uni044B" unicode="&#x44b;" horiz-adv-x="1294" d="M1048 0 L1127 0 L1226 560 L1147 560 L1048 0 Z M227 560 L148 560 L49 0 L678 0 C869 0 931 98 931 201 C931 282 881 347 740 347 L190 347 L227 560 Z M178 277 L725 277 C819 277 847 240 847 190 C847 130 810 69 688 69 L140 69 L178 277 Z " />
<glyph glyph-name="uni044C" unicode="&#x44c;" horiz-adv-x="999" d="M227 560 L148 560 L49 0 L678 0 C869 0 931 98 931 201 C931 282 881 347 740 347 L190 347 L227 560 Z M178 277 L725 277 C819 277 847 240 847 190 C847 130 810 69 688 69 L140 69 L178 277 Z " />
<glyph glyph-name="uni044D" unicode="&#x44d;" horiz-adv-x="975" d="M819 319 L819 311 L153 311 L140 249 L809 249 C781 150 688 69 500 69 L24 69 L10 0 L496 0 C797 0 904 160 904 328 C904 458 822 560 597 560 L111 560 L99 491 L589 491 C761 491 819 419 819 319 L819 319 Z " />
<glyph glyph-name="uni044E" unicode="&#x44e;" horiz-adv-x="1546" d="M1055 -8 C1360 -8 1473 152 1475 326 C1476 461 1393 568 1159 568 L949 568 C692 568 572 454 539 315 L185 315 L227 560 L148 560 L49 0 L128 0 L171 245 L530 245 L530 234 C529 99 610 -8 845 -8 L1055 -8 Z M859 61 C674 61 613 140 614 239 C614 370 704 499 941 499 L1146 499 C1331 499 1391 420 1391 320 C1391 192 1303 61 1064 61 L859 61 Z " />
<glyph glyph-name="uni044F" unicode="&#x44f;" horiz-adv-x="1061" d="M993 560 L375 560 C183 560 121 462 121 357 C121 278 177 215 313 215 L374 215 L-45 0 L93 0 L504 214 L851 214 L813 0 L892 0 L993 560 Z M900 491 L863 282 L328 282 C233 282 205 320 205 369 C205 430 243 491 366 491 L900 491 Z " />
<glyph glyph-name="uni0450" unicode="&#x450;" horiz-adv-x="992" d="M49 0 L861 0 L873 69 L140 69 L172 249 L820 249 L832 311 L184 311 L215 491 L947 491 L960 560 L148 560 L49 0 Z M555 806 L456 806 L574 635 L628 635 L555 806 Z " />
<glyph glyph-name="uni0451" unicode="&#x451;" horiz-adv-x="992" d="M49 0 L861 0 L873 69 L140 69 L172 249 L820 249 L832 311 L184 311 L215 491 L947 491 L960 560 L148 560 L49 0 Z M648 675 L738 675 L754 765 L664 765 L648 675 Z M393 675 L483 675 L498 765 L409 765 L393 675 Z " />
<glyph glyph-name="uni0452" unicode="&#x452;" horiz-adv-x="1137" d="M562 0 L837 0 C1010 0 1065 89 1065 182 C1065 255 1020 310 893 310 L370 310 L402 491 L824 491 L838 560 L84 560 L70 491 L323 491 L235 0 L314 0 L360 250 L878 250 C958 250 982 218 982 176 C982 121 949 69 844 69 L575 69 L562 0 Z " />
<glyph glyph-name="uni0453" unicode="&#x453;" horiz-adv-x="946" d="M49 0 L128 0 L215 491 L931 491 L944 560 L148 560 L49 0 Z M491 635 L552 635 L732 806 L625 806 L491 635 Z " />
<glyph glyph-name="uni0454" unicode="&#x454;" horiz-adv-x="975" d="M137 241 L137 249 L803 249 L816 311 L146 311 C174 410 268 491 456 491 L932 491 L946 560 L460 560 C159 560 52 400 52 232 C52 102 134 0 359 0 L845 0 L857 69 L367 69 C195 69 137 141 137 241 L137 241 Z " />
<glyph glyph-name="uni0455" unicode="&#x455;" horiz-adv-x="991" d="M677 69 L49 69 L36 0 L670 0 C844 0 899 89 899 182 C899 255 853 310 726 310 L260 310 C181 310 156 342 156 384 C156 439 189 491 295 491 L923 491 L937 560 L302 560 C128 560 73 471 73 378 C73 305 119 250 245 250 L712 250 C791 250 816 218 816 176 C816 121 783 69 677 69 L677 69 Z " />
<glyph glyph-name="uni0456" unicode="&#x456;" horiz-adv-x="297" d="M49 0 L128 0 L227 560 L148 560 L49 0 Z " />
<glyph glyph-name="uni0457" unicode="&#x457;" horiz-adv-x="297" d="M49 0 L128 0 L227 560 L148 560 L49 0 Z M289 675 L379 675 L395 765 L305 765 L289 675 Z M34 675 L124 675 L139 765 L50 765 L34 675 Z " />
<glyph glyph-name="uni0458" unicode="&#x458;" horiz-adv-x="1000" d="M255 -4 L536 -4 C777 -4 867 88 895 246 L951 560 L871 560 L817 261 C795 138 733 65 542 65 L261 65 C113 65 82 132 98 218 L105 259 L27 259 L20 220 C-3 98 47 -4 255 -4 L255 -4 Z " />
<glyph glyph-name="uni0459" unicode="&#x459;" horiz-adv-x="1551" d="M873 560 L308 560 L179 158 C162 104 132 69 51 69 L-5 69 L-17 0 L48 0 C179 0 227 62 253 143 L365 491 L781 491 L694 0 L1230 0 C1421 0 1483 98 1483 201 C1483 282 1433 347 1292 347 L835 347 L873 560 Z M823 277 L1277 277 C1371 277 1399 240 1399 190 C1399 130 1362 69 1240 69 L786 69 L823 277 Z " />
<glyph glyph-name="uni045A" unicode="&#x45a;" horiz-adv-x="1554" d="M876 560 L796 560 L759 347 L190 347 L227 560 L148 560 L49 0 L128 0 L178 277 L747 277 L697 0 L1233 0 C1424 0 1486 98 1486 201 C1486 282 1436 347 1295 347 L838 347 L876 560 Z M1243 69 L789 69 L826 277 L1280 277 C1374 277 1402 240 1402 190 C1402 130 1365 69 1243 69 L1243 69 Z " />
<glyph glyph-name="uni045B" unicode="&#x45b;" horiz-adv-x="1153" d="M896 240 C978 240 991 203 981 146 L955 0 L1034 0 L1062 151 C1078 241 1052 310 909 310 L370 310 L402 491 L823 491 L836 560 L82 560 L70 491 L323 491 L234 0 L313 0 L356 240 L896 240 Z " />
<glyph glyph-name="uni045C" unicode="&#x45c;" horiz-adv-x="1068" d="M456 635 L517 635 L697 806 L590 806 L456 635 Z M544 282 L1023 560 L891 560 L471 315 L185 315 L227 560 L148 560 L49 0 L128 0 L171 245 L469 245 L864 0 L996 0 L544 282 Z " />
<glyph glyph-name="uni045D" unicode="&#x45d;" horiz-adv-x="1082" d="M588 806 L489 806 L607 635 L661 635 L588 806 Z M917 471 L834 0 L913 0 L1012 560 L934 560 L144 89 L227 560 L148 560 L49 0 L128 0 L917 471 Z " />
<glyph glyph-name="uni045E" unicode="&#x45e;" horiz-adv-x="1023" d="M584 704 C506 704 483 746 488 795 L441 795 C433 724 454 645 575 645 C694 645 744 722 761 795 L712 795 C698 746 661 704 584 704 L584 704 Z M307 0 L1063 560 L943 560 L494 223 L152 560 L43 560 L433 178 L187 0 L307 0 Z " />
<glyph glyph-name="uni045F" unicode="&#x45f;" horiz-adv-x="1082" d="M846 69 L140 69 L227 560 L148 560 L49 0 L442 0 L418 -120 L498 -120 L521 0 L913 0 L1012 560 L933 560 L846 69 Z " />
<glyph glyph-name="uni0490" unicode="&#x490;" horiz-adv-x="1084" d="M1031 700 L184 700 L59 0 L147 0 L256 620 L1103 620 L1145 850 L1057 850 L1031 700 Z " />
<glyph glyph-name="uni0491" unicode="&#x491;" horiz-adv-x="946" d="M864 560 L148 560 L49 0 L128 0 L215 491 L931 491 L965 680 L885 680 L864 560 Z " />
<glyph glyph-name="uni1E00" unicode="&#x1e00;" horiz-adv-x="1220" d="M1046 0 L1150 0 L722 700 L628 700 L-49 0 L63 0 L195 138 L962 138 L1046 0 Z M665 626 L917 211 L265 211 L665 626 Z M455 -165 C455 -127 490 -96 527 -96 C561 -96 584 -122 584 -155 C584 -193 551 -225 514 -225 C480 -225 455 -199 455 -165 L455 -165 Z M403 -170 C403 -227 445 -271 508 -271 C579 -271 637 -216 637 -150 C637 -94 594 -50 531 -50 C460 -50 403 -103 403 -170 L403 -170 Z " />
<glyph glyph-name="uni1E01" unicode="&#x1e01;" horiz-adv-x="1044" d="M878 0 L973 0 L605 560 L519 560 L-48 0 L54 0 L169 114 L803 114 L878 0 Z M554 495 L763 176 L231 176 L554 495 Z M367 -165 C367 -127 402 -96 439 -96 C473 -96 496 -122 496 -155 C496 -193 463 -225 426 -225 C392 -225 367 -199 367 -165 L367 -165 Z M315 -170 C315 -227 357 -271 420 -271 C491 -271 549 -216 549 -150 C549 -94 506 -50 443 -50 C372 -50 315 -103 315 -170 L315 -170 Z " />
<glyph glyph-name="uni1E02" unicode="&#x1e02;" horiz-adv-x="1209" d="M59 0 L848 0 C1033 0 1106 103 1106 214 C1106 284 1069 341 980 358 C1075 392 1119 464 1119 555 C1119 636 1066 700 929 700 L184 700 L59 0 Z M881 313 C981 313 1015 270 1015 217 C1015 147 966 80 841 80 L162 80 L202 313 L881 313 Z M1024 523 C1024 458 979 387 856 387 L216 387 L257 620 L892 620 C990 620 1024 578 1024 523 L1024 523 Z M620 815 L709 815 L724 905 L635 905 L620 815 Z " />
<glyph glyph-name="uni1E03" unicode="&#x1e03;" horiz-adv-x="1040" d="M49 0 L725 0 C887 0 937 84 937 172 C937 227 908 273 833 287 C915 314 944 379 944 442 C944 509 903 560 787 560 L148 560 L49 0 Z M717 69 L140 69 L172 249 L748 249 C834 249 854 215 854 172 C854 117 822 69 717 69 L717 69 Z M755 491 C836 491 859 460 859 417 C859 366 829 311 727 311 L184 311 L215 491 L755 491 Z M511 675 L600 675 L615 765 L526 765 L511 675 Z " />
<glyph glyph-name="uni1E04" unicode="&#x1e04;" horiz-adv-x="1209" d="M59 0 L848 0 C1033 0 1106 103 1106 214 C1106 284 1069 341 980 358 C1075 392 1119 464 1119 555 C1119 636 1066 700 929 700 L184 700 L59 0 Z M881 313 C981 313 1015 270 1015 217 C1015 147 966 80 841 80 L162 80 L202 313 L881 313 Z M1024 523 C1024 458 979 387 856 387 L216 387 L257 620 L892 620 C990 620 1024 578 1024 523 L1024 523 Z M478 -206 L567 -206 L582 -116 L493 -116 L478 -206 Z " />
<glyph glyph-name="uni1E05" unicode="&#x1e05;" horiz-adv-x="1040" d="M49 0 L725 0 C887 0 937 84 937 172 C937 227 908 273 833 287 C915 314 944 379 944 442 C944 509 903 560 787 560 L148 560 L49 0 Z M717 69 L140 69 L172 249 L748 249 C834 249 854 215 854 172 C854 117 822 69 717 69 L717 69 Z M755 491 C836 491 859 460 859 417 C859 366 829 311 727 311 L184 311 L215 491 L755 491 Z M394 -206 L483 -206 L498 -116 L409 -116 L394 -206 Z " />
<glyph glyph-name="uni1E06" unicode="&#x1e06;" horiz-adv-x="1209" d="M59 0 L848 0 C1033 0 1106 103 1106 214 C1106 284 1069 341 980 358 C1075 392 1119 464 1119 555 C1119 636 1066 700 929 700 L184 700 L59 0 Z M881 313 C981 313 1015 270 1015 217 C1015 147 966 80 841 80 L162 80 L202 313 L881 313 Z M1024 523 C1024 458 979 387 856 387 L216 387 L257 620 L892 620 C990 620 1024 578 1024 523 L1024 523 Z M341 -190 L709 -190 L719 -132 L351 -132 L341 -190 Z " />
<glyph glyph-name="uni1E07" unicode="&#x1e07;" horiz-adv-x="1040" d="M49 0 L725 0 C887 0 937 84 937 172 C937 227 908 273 833 287 C915 314 944 379 944 442 C944 509 903 560 787 560 L148 560 L49 0 Z M717 69 L140 69 L172 249 L748 249 C834 249 854 215 854 172 C854 117 822 69 717 69 L717 69 Z M755 491 C836 491 859 460 859 417 C859 366 829 311 727 311 L184 311 L215 491 L755 491 Z M257 -190 L625 -190 L635 -132 L267 -132 L257 -190 Z " />
<glyph glyph-name="uni1E08" unicode="&#x1e08;" horiz-adv-x="1137" d="M487 -108 L511 -108 C567 -108 597 -119 597 -154 C597 -203 543 -217 492 -217 C456 -217 421 -208 405 -197 L398 -237 C422 -251 463 -262 505 -262 C581 -262 661 -236 661 -148 C661 -84 596 -64 538 -69 L570 0 L998 0 L1012 80 L452 80 C235 80 162 179 162 307 C162 462 257 620 547 620 L1108 620 L1123 700 L554 700 C208 700 68 507 68 296 C68 130 170 0 438 0 L535 0 L487 -108 Z M621 775 L682 775 L862 946 L755 946 L621 775 Z " />
<glyph glyph-name="uni1E09" unicode="&#x1e09;" horiz-adv-x="974" d="M398 -108 L422 -108 C478 -108 508 -119 508 -154 C508 -203 454 -217 403 -217 C367 -217 332 -208 316 -197 L309 -237 C333 -251 374 -262 416 -262 C492 -262 572 -236 572 -148 C572 -84 507 -64 449 -69 L481 0 L845 0 L857 69 L367 69 C195 69 137 141 137 241 C137 368 225 491 456 491 L932 491 L946 560 L460 560 C159 560 52 400 52 232 C52 102 134 0 359 0 L446 0 L398 -108 Z M507 635 L568 635 L748 806 L641 806 L507 635 Z " />
<glyph glyph-name="uni1E0A" unicode="&#x1e0a;" horiz-adv-x="1205" d="M59 0 L654 0 C1000 0 1140 193 1140 404 C1140 569 1038 700 770 700 L184 700 L59 0 Z M756 620 C972 620 1046 520 1046 393 C1046 238 950 80 660 80 L160 80 L255 620 L756 620 Z M627 815 L716 815 L731 905 L642 905 L627 815 Z " />
<glyph glyph-name="uni1E0B" unicode="&#x1e0b;" horiz-adv-x="1037" d="M49 0 L559 0 C860 0 967 160 967 328 C967 458 884 560 660 560 L149 560 L49 0 Z M651 491 C824 491 882 419 882 319 C882 192 794 69 563 69 L141 69 L215 491 L651 491 Z M525 675 L614 675 L629 765 L540 765 L525 675 Z " />
<glyph glyph-name="uni1E0C" unicode="&#x1e0c;" horiz-adv-x="1205" d="M59 0 L654 0 C1000 0 1140 193 1140 404 C1140 569 1038 700 770 700 L184 700 L59 0 Z M756 620 C972 620 1046 520 1046 393 C1046 238 950 80 660 80 L160 80 L255 620 L756 620 Z M447 -206 L536 -206 L551 -116 L462 -116 L447 -206 Z " />
<glyph glyph-name="uni1E0D" unicode="&#x1e0d;" horiz-adv-x="1037" d="M49 0 L559 0 C860 0 967 160 967 328 C967 458 884 560 660 560 L149 560 L49 0 Z M651 491 C824 491 882 419 882 319 C882 192 794 69 563 69 L141 69 L215 491 L651 491 Z M369 -206 L458 -206 L473 -116 L384 -116 L369 -206 Z " />
<glyph glyph-name="uni1E0E" unicode="&#x1e0e;" horiz-adv-x="1205" d="M59 0 L654 0 C1000 0 1140 193 1140 404 C1140 569 1038 700 770 700 L184 700 L59 0 Z M756 620 C972 620 1046 520 1046 393 C1046 238 950 80 660 80 L160 80 L255 620 L756 620 Z M310 -190 L678 -190 L688 -132 L320 -132 L310 -190 Z " />
<glyph glyph-name="uni1E0F" unicode="&#x1e0f;" horiz-adv-x="1037" d="M49 0 L559 0 C860 0 967 160 967 328 C967 458 884 560 660 560 L149 560 L49 0 Z M651 491 C824 491 882 419 882 319 C882 192 794 69 563 69 L141 69 L215 491 L651 491 Z M232 -190 L600 -190 L610 -132 L242 -132 L232 -190 Z " />
<glyph glyph-name="uni1E10" unicode="&#x1e10;" horiz-adv-x="1205" d="M59 0 L654 0 C1000 0 1140 193 1140 404 C1140 569 1038 700 770 700 L184 700 L59 0 Z M756 620 C972 620 1046 520 1046 393 C1046 238 950 80 660 80 L160 80 L255 620 L756 620 Z M449 -206 L484 -206 L423 -310 L462 -310 L537 -200 L551 -116 L465 -116 L449 -206 Z " />
<glyph glyph-name="uni1E11" unicode="&#x1e11;" horiz-adv-x="1037" d="M49 0 L559 0 C860 0 967 160 967 328 C967 458 884 560 660 560 L149 560 L49 0 Z M651 491 C824 491 882 419 882 319 C882 192 794 69 563 69 L141 69 L215 491 L651 491 Z M371 -206 L406 -206 L345 -310 L384 -310 L459 -200 L473 -116 L387 -116 L371 -206 Z " />
<glyph glyph-name="uni1E12" unicode="&#x1e12;" horiz-adv-x="1205" d="M59 0 L654 0 C1000 0 1140 193 1140 404 C1140 569 1038 700 770 700 L184 700 L59 0 Z M756 620 C972 620 1046 520 1046 393 C1046 238 950 80 660 80 L160 80 L255 620 L756 620 Z M313 -246 L372 -246 L508 -121 L598 -246 L653 -246 L567 -75 L462 -75 L313 -246 Z " />
<glyph glyph-name="uni1E13" unicode="&#x1e13;" horiz-adv-x="1037" d="M49 0 L559 0 C860 0 967 160 967 328 C967 458 884 560 660 560 L149 560 L49 0 Z M651 491 C824 491 882 419 882 319 C882 192 794 69 563 69 L141 69 L215 491 L651 491 Z M235 -246 L294 -246 L430 -121 L520 -246 L575 -246 L489 -75 L384 -75 L235 -246 Z " />
<glyph glyph-name="uni1E14" unicode="&#x1e14;" horiz-adv-x="1151" d="M59 0 L1013 0 L1027 80 L161 80 L201 313 L969 313 L984 387 L216 387 L256 620 L1122 620 L1138 700 L184 700 L59 0 Z M688 1126 L589 1126 L707 955 L761 955 L688 1126 Z M488 831 L856 831 L866 889 L498 889 L488 831 Z " />
<glyph glyph-name="uni1E15" unicode="&#x1e15;" horiz-adv-x="992" d="M49 0 L861 0 L873 69 L140 69 L172 249 L820 249 L832 311 L184 311 L215 491 L947 491 L960 560 L148 560 L49 0 Z M586 986 L487 986 L605 815 L659 815 L586 986 Z M386 691 L754 691 L764 749 L396 749 L386 691 Z " />
<glyph glyph-name="uni1E16" unicode="&#x1e16;" horiz-adv-x="1151" d="M59 0 L1013 0 L1027 80 L161 80 L201 313 L969 313 L984 387 L216 387 L256 620 L1122 620 L1138 700 L184 700 L59 0 Z M622 955 L683 955 L863 1126 L756 1126 L622 955 Z M488 831 L856 831 L866 889 L498 889 L488 831 Z " />
<glyph glyph-name="uni1E17" unicode="&#x1e17;" horiz-adv-x="992" d="M49 0 L861 0 L873 69 L140 69 L172 249 L820 249 L832 311 L184 311 L215 491 L947 491 L960 560 L148 560 L49 0 Z M520 815 L581 815 L761 986 L654 986 L520 815 Z M386 691 L754 691 L764 749 L396 749 L386 691 Z " />
<glyph glyph-name="uni1E18" unicode="&#x1e18;" horiz-adv-x="1151" d="M59 0 L1013 0 L1027 80 L161 80 L201 313 L969 313 L984 387 L216 387 L256 620 L1122 620 L1138 700 L184 700 L59 0 Z M311 -246 L370 -246 L506 -121 L596 -246 L651 -246 L565 -75 L460 -75 L311 -246 Z " />
<glyph glyph-name="uni1E19" unicode="&#x1e19;" horiz-adv-x="992" d="M49 0 L861 0 L873 69 L140 69 L172 249 L820 249 L832 311 L184 311 L215 491 L947 491 L960 560 L148 560 L49 0 Z M233 -246 L292 -246 L428 -121 L518 -246 L573 -246 L487 -75 L382 -75 L233 -246 Z " />
<glyph glyph-name="uni1E1A" unicode="&#x1e1a;" horiz-adv-x="1151" d="M59 0 L1013 0 L1027 80 L161 80 L201 313 L969 313 L984 387 L216 387 L256 620 L1122 620 L1138 700 L184 700 L59 0 Z M632 -90 C616 -149 596 -160 570 -160 C526 -160 496 -98 434 -98 C383 -98 342 -128 316 -231 L361 -231 C376 -173 398 -161 424 -161 C467 -161 496 -223 558 -223 C610 -223 651 -193 677 -90 L632 -90 Z " />
<glyph glyph-name="uni1E1B" unicode="&#x1e1b;" horiz-adv-x="992" d="M49 0 L861 0 L873 69 L140 69 L172 249 L820 249 L832 311 L184 311 L215 491 L947 491 L960 560 L148 560 L49 0 Z M554 -90 C538 -149 518 -160 492 -160 C448 -160 418 -98 356 -98 C305 -98 264 -128 238 -231 L283 -231 C298 -173 320 -161 346 -161 C389 -161 418 -223 480 -223 C532 -223 573 -193 599 -90 L554 -90 Z " />
<glyph glyph-name="uni1E1C" unicode="&#x1e1c;" horiz-adv-x="1151" d="M59 0 L505 0 L457 -108 L481 -108 C537 -108 567 -119 567 -154 C567 -203 513 -217 462 -217 C426 -217 391 -208 375 -197 L368 -237 C392 -251 433 -262 475 -262 C551 -262 631 -236 631 -148 C631 -84 566 -64 508 -69 L540 0 L1013 0 L1027 80 L161 80 L201 313 L969 313 L984 387 L216 387 L256 620 L1122 620 L1138 700 L184 700 L59 0 Z M672 844 C594 844 571 886 576 935 L529 935 C521 864 542 785 663 785 C782 785 832 862 849 935 L800 935 C786 886 749 844 672 844 L672 844 Z " />
<glyph glyph-name="uni1E1D" unicode="&#x1e1d;" horiz-adv-x="992" d="M49 0 L428 0 L380 -108 L404 -108 C460 -108 490 -119 490 -154 C490 -203 436 -217 385 -217 C349 -217 314 -208 298 -197 L291 -237 C315 -251 356 -262 398 -262 C474 -262 554 -236 554 -148 C554 -84 489 -64 431 -69 L463 0 L861 0 L873 69 L140 69 L172 249 L820 249 L832 311 L184 311 L215 491 L947 491 L960 560 L148 560 L49 0 Z M571 704 C493 704 470 746 475 795 L428 795 C420 724 441 645 562 645 C681 645 731 722 748 795 L699 795 C685 746 648 704 571 704 L571 704 Z " />
<glyph glyph-name="uni1E1E" unicode="&#x1e1e;" horiz-adv-x="1113" d="M59 0 L147 0 L200 305 L968 305 L983 385 L215 385 L256 620 L1122 620 L1138 700 L184 700 L59 0 Z M615 815 L704 815 L719 905 L630 905 L615 815 Z " />
<glyph glyph-name="uni1E1F" unicode="&#x1e1f;" horiz-adv-x="975" d="M49 0 L128 0 L170 241 L819 241 L832 310 L184 310 L215 491 L947 491 L960 560 L148 560 L49 0 Z M518 675 L607 675 L622 765 L533 765 L518 675 Z " />
<glyph glyph-name="uni1E20" unicode="&#x1e20;" horiz-adv-x="1206" d="M634 313 L1020 313 L980 80 L452 80 C235 80 162 179 162 307 C162 462 257 620 547 620 L1108 620 L1123 700 L554 700 C208 700 68 507 68 296 C68 130 170 0 438 0 L1051 0 L1120 387 L648 387 L634 313 Z M528 831 L896 831 L906 889 L538 889 L528 831 Z " />
<glyph glyph-name="uni1E21" unicode="&#x1e21;" horiz-adv-x="1037" d="M359 0 L889 0 L944 311 L542 311 L530 249 L854 249 L824 69 L367 69 C195 69 137 141 137 241 C137 368 225 491 456 491 L931 491 L944 560 L460 560 C159 560 52 400 52 232 C52 102 134 0 359 0 L359 0 Z M408 691 L776 691 L786 749 L418 749 L408 691 Z " />
<glyph glyph-name="uni1E22" unicode="&#x1e22;" horiz-adv-x="1253" d="M986 0 L1074 0 L1199 700 L1111 700 L1056 390 L216 390 L272 700 L184 700 L59 0 L147 0 L200 310 L1040 310 L986 0 Z M666 815 L755 815 L770 905 L681 905 L666 815 Z " />
<glyph glyph-name="uni1E23" unicode="&#x1e23;" horiz-adv-x="1082" d="M834 0 L913 0 L1012 560 L933 560 L890 315 L185 315 L227 560 L148 560 L49 0 L128 0 L171 245 L876 245 L834 0 Z M556 675 L645 675 L660 765 L571 765 L556 675 Z " />
<glyph glyph-name="uni1E24" unicode="&#x1e24;" horiz-adv-x="1253" d="M986 0 L1074 0 L1199 700 L1111 700 L1056 390 L216 390 L272 700 L184 700 L59 0 L147 0 L200 310 L1040 310 L986 0 Z M486 -206 L575 -206 L590 -116 L501 -116 L486 -206 Z " />
<glyph glyph-name="uni1E25" unicode="&#x1e25;" horiz-adv-x="1082" d="M834 0 L913 0 L1012 560 L933 560 L890 315 L185 315 L227 560 L148 560 L49 0 L128 0 L171 245 L876 245 L834 0 Z M400 -206 L489 -206 L504 -116 L415 -116 L400 -206 Z " />
<glyph glyph-name="uni1E26" unicode="&#x1e26;" horiz-adv-x="1253" d="M986 0 L1074 0 L1199 700 L1111 700 L1056 390 L216 390 L272 700 L184 700 L59 0 L147 0 L200 310 L1040 310 L986 0 Z M791 815 L881 815 L897 905 L807 905 L791 815 Z M536 815 L626 815 L641 905 L552 905 L536 815 Z " />
<glyph glyph-name="uni1E27" unicode="&#x1e27;" horiz-adv-x="1082" d="M834 0 L913 0 L1012 560 L933 560 L890 315 L185 315 L227 560 L148 560 L49 0 L128 0 L171 245 L876 245 L834 0 Z M682 675 L772 675 L788 765 L698 765 L682 675 Z M427 675 L517 675 L532 765 L443 765 L427 675 Z " />
<glyph glyph-name="uni1E28" unicode="&#x1e28;" horiz-adv-x="1253" d="M33 -108 L57 -108 C113 -108 143 -119 143 -154 C143 -203 89 -217 38 -217 C2 -217 -33 -208 -49 -197 L-56 -237 C-32 -251 9 -262 51 -262 C127 -262 207 -236 207 -148 C207 -84 142 -64 84 -69 L116 0 L147 0 L200 310 L1040 310 L986 0 L1074 0 L1199 700 L1111 700 L1056 390 L216 390 L272 700 L184 700 L59 0 L81 0 L33 -108 Z " />
<glyph glyph-name="uni1E29" unicode="&#x1e29;" horiz-adv-x="1082" d="M20 -108 L44 -108 C100 -108 130 -119 130 -154 C130 -203 76 -217 25 -217 C-11 -217 -46 -208 -62 -197 L-69 -237 C-45 -251 -4 -262 38 -262 C114 -262 194 -236 194 -148 C194 -84 129 -64 71 -69 L103 0 L128 0 L171 245 L876 245 L834 0 L913 0 L1012 560 L933 560 L890 315 L185 315 L227 560 L148 560 L49 0 L68 0 L20 -108 Z " />
<glyph glyph-name="uni1E2A" unicode="&#x1e2a;" horiz-adv-x="1253" d="M986 0 L1074 0 L1199 700 L1111 700 L1056 390 L216 390 L272 700 L184 700 L59 0 L147 0 L200 310 L1040 310 L986 0 Z M533 -177 C455 -177 432 -135 437 -86 L390 -86 C382 -157 403 -236 524 -236 C643 -236 693 -159 710 -86 L661 -86 C647 -135 610 -177 533 -177 L533 -177 Z " />
<glyph glyph-name="uni1E2B" unicode="&#x1e2b;" horiz-adv-x="1082" d="M834 0 L913 0 L1012 560 L933 560 L890 315 L185 315 L227 560 L148 560 L49 0 L128 0 L171 245 L876 245 L834 0 Z M448 -177 C370 -177 347 -135 352 -86 L305 -86 C297 -157 318 -236 439 -236 C558 -236 608 -159 625 -86 L576 -86 C562 -135 525 -177 448 -177 L448 -177 Z " />
<glyph glyph-name="uni1E2C" unicode="&#x1e2c;" horiz-adv-x="326" d="M59 0 L147 0 L272 700 L184 700 L59 0 Z M208 -90 C192 -149 172 -160 146 -160 C102 -160 72 -98 10 -98 C-41 -98 -82 -128 -108 -231 L-63 -231 C-48 -173 -26 -161 0 -161 C43 -161 72 -223 134 -223 C186 -223 227 -193 253 -90 L208 -90 Z " />
<glyph glyph-name="uni1E2D" unicode="&#x1e2d;" horiz-adv-x="297" d="M49 0 L128 0 L227 560 L148 560 L49 0 Z M194 -90 C178 -149 158 -160 132 -160 C88 -160 58 -98 -4 -98 C-55 -98 -96 -128 -122 -231 L-77 -231 C-62 -173 -40 -161 -14 -161 C29 -161 58 -223 120 -223 C172 -223 213 -193 239 -90 L194 -90 Z " />
<glyph glyph-name="uni1E2E" unicode="&#x1e2e;" horiz-adv-x="326" d="M59 0 L147 0 L272 700 L184 700 L59 0 Z M199 959 L260 959 L440 1130 L333 1130 L199 959 Z M327 815 L417 815 L433 905 L343 905 L327 815 Z M72 815 L162 815 L177 905 L88 905 L72 815 Z " />
<glyph glyph-name="uni1E2F" unicode="&#x1e2f;" horiz-adv-x="297" d="M162 819 L223 819 L403 990 L296 990 L162 819 Z M289 675 L379 675 L395 765 L305 765 L289 675 Z M34 675 L124 675 L139 765 L50 765 L34 675 Z M49 0 L128 0 L227 560 L148 560 L49 0 Z " />
<glyph glyph-name="uni1E30" unicode="&#x1e30;" horiz-adv-x="1237" d="M1209 700 L1051 700 L188 237 L271 700 L184 700 L59 0 L146 0 L170 141 L531 335 L1032 0 L1172 0 L610 378 L1209 700 Z M585 775 L646 775 L826 946 L719 946 L585 775 Z " />
<glyph glyph-name="uni1E31" unicode="&#x1e31;" horiz-adv-x="1067" d="M1026 560 L879 560 L162 196 L227 560 L148 560 L49 0 L128 0 L147 110 L451 265 L869 0 L997 0 L522 302 L1026 560 Z M481 635 L542 635 L722 806 L615 806 L481 635 Z " />
<glyph glyph-name="uni1E32" unicode="&#x1e32;" horiz-adv-x="1237" d="M1209 700 L1051 700 L188 237 L271 700 L184 700 L59 0 L146 0 L170 141 L531 335 L1032 0 L1172 0 L610 378 L1209 700 Z M475 -206 L564 -206 L579 -116 L490 -116 L475 -206 Z " />
<glyph glyph-name="uni1E33" unicode="&#x1e33;" horiz-adv-x="1067" d="M1026 560 L879 560 L162 196 L227 560 L148 560 L49 0 L128 0 L147 110 L451 265 L869 0 L997 0 L522 302 L1026 560 Z M392 -206 L481 -206 L496 -116 L407 -116 L392 -206 Z " />
<glyph glyph-name="uni1E34" unicode="&#x1e34;" horiz-adv-x="1237" d="M1209 700 L1051 700 L188 237 L271 700 L184 700 L59 0 L146 0 L170 141 L531 335 L1032 0 L1172 0 L610 378 L1209 700 Z M338 -190 L706 -190 L716 -132 L348 -132 L338 -190 Z " />
<glyph glyph-name="uni1E35" unicode="&#x1e35;" horiz-adv-x="1067" d="M1026 560 L879 560 L162 196 L227 560 L148 560 L49 0 L128 0 L147 110 L451 265 L869 0 L997 0 L522 302 L1026 560 Z M255 -190 L623 -190 L633 -132 L265 -132 L255 -190 Z " />
<glyph glyph-name="uni1E36" unicode="&#x1e36;" horiz-adv-x="1084" d="M272 700 L184 700 L59 0 L994 0 L1007 80 L161 80 L272 700 Z M441 -206 L530 -206 L545 -116 L456 -116 L441 -206 Z " />
<glyph glyph-name="uni1E37" unicode="&#x1e37;" horiz-adv-x="946" d="M227 560 L148 560 L49 0 L845 0 L857 69 L140 69 L227 560 Z M369 -206 L458 -206 L473 -116 L384 -116 L369 -206 Z " />
<glyph glyph-name="uni1E38" unicode="&#x1e38;" horiz-adv-x="1084" d="M272 700 L184 700 L59 0 L994 0 L1007 80 L161 80 L272 700 Z M93 831 L461 831 L471 889 L103 889 L93 831 Z M441 -206 L530 -206 L545 -116 L456 -116 L441 -206 Z " />
<glyph glyph-name="uni1E39" unicode="&#x1e39;" horiz-adv-x="946" d="M227 560 L148 560 L49 0 L845 0 L857 69 L140 69 L227 560 Z M55 691 L423 691 L433 749 L65 749 L55 691 Z M369 -206 L458 -206 L473 -116 L384 -116 L369 -206 Z " />
<glyph glyph-name="uni1E3A" unicode="&#x1e3a;" horiz-adv-x="1084" d="M272 700 L184 700 L59 0 L994 0 L1007 80 L161 80 L272 700 Z M304 -190 L672 -190 L682 -132 L314 -132 L304 -190 Z " />
<glyph glyph-name="uni1E3B" unicode="&#x1e3b;" horiz-adv-x="946" d="M227 560 L148 560 L49 0 L845 0 L857 69 L140 69 L227 560 Z M232 -190 L600 -190 L610 -132 L242 -132 L232 -190 Z " />
<glyph glyph-name="uni1E3C" unicode="&#x1e3c;" horiz-adv-x="1084" d="M272 700 L184 700 L59 0 L994 0 L1007 80 L161 80 L272 700 Z M307 -246 L366 -246 L502 -121 L592 -246 L647 -246 L561 -75 L456 -75 L307 -246 Z " />
<glyph glyph-name="uni1E3D" unicode="&#x1e3d;" horiz-adv-x="946" d="M227 560 L148 560 L49 0 L845 0 L857 69 L140 69 L227 560 Z M235 -246 L294 -246 L430 -121 L520 -246 L575 -246 L489 -75 L384 -75 L235 -246 Z " />
</font>
</svg>
