<?xml version="1.0" encoding="UTF-8"?>
<svg xmlns="http://www.w3.org/2000/svg" xmlns:xlink="http://www.w3.org/1999/xlink" version="1.2" >
<font id="Stereo Gothic 350">
<font-face  font-family="Stereo Gothic" units-per-em="1000" ascent="700" descent="-300" font-style="normal" font-weight="350" font-stretch="normal" cap-height="700" x-height="560" underline-position="-75" underline-thickness="50" />
<missing-glyph  horiz-adv-x="1000" d="M150 0 L850 0 L850 700 L150 700 L150 0 Z M187 666 L790 666 L187 63 L187 666 Z M210 34 L813 637 L813 34 L210 34 Z " />
<glyph glyph-name="NULL" d="" />
<glyph glyph-name="CR" unicode="&#xd;" horiz-adv-x="250" d="" />
<glyph glyph-name="space" unicode="&#x20;" horiz-adv-x="500" d="" />
<glyph glyph-name="exclam" unicode="&#x21;" horiz-adv-x="329" d="M119 0 L209 0 L209 90 L119 90 L119 0 Z M129 158 L198 158 L203 700 L125 700 L129 158 Z " />
<glyph glyph-name="quotedbl" unicode="&#x22;" horiz-adv-x="504" d="M116 400 L172 400 L185 700 L103 700 L116 400 Z M332 400 L388 400 L401 700 L319 700 L332 400 Z " />
<glyph glyph-name="numbersign" unicode="&#x23;" horiz-adv-x="1298" d="M931 0 L1001 0 L1021 190 L1173 190 L1173 255 L1027 255 L1048 445 L1203 445 L1203 510 L1054 510 L1074 700 L1004 700 L984 510 L346 510 L366 700 L296 700 L276 510 L125 510 L125 445 L270 445 L249 255 L95 255 L95 190 L243 190 L223 0 L293 0 L313 190 L951 190 L931 0 Z M339 445 L978 445 L958 255 L319 255 L339 445 Z " />
<glyph glyph-name="dollar" unicode="&#x24;" horiz-adv-x="1298" d="M614 -20 L684 -20 L684 70 L971 70 C1112 70 1168 140 1168 225 C1168 312 1112 379 971 379 L684 379 L684 566 L1136 566 L1136 630 L684 630 L684 720 L614 720 L614 630 L326 630 C185 630 130 560 130 475 C130 388 185 321 326 321 L614 321 L614 134 L162 134 L162 70 L614 70 L614 -20 Z M966 321 C1062 321 1094 280 1094 228 C1094 177 1059 134 966 134 L684 134 L684 321 L966 321 Z M204 472 C204 523 237 566 331 566 L614 566 L614 379 L331 379 C237 379 204 420 204 472 L204 472 Z " />
<glyph glyph-name="percent" unicode="&#x25;" horiz-adv-x="1298" d="M1035 700 L180 0 L263 0 L1118 700 L1035 700 Z M100 474 C100 405 144 350 256 350 L413 350 C525 350 569 405 569 474 L569 576 C569 645 525 700 413 700 L256 700 C144 700 100 645 100 576 L100 474 Z M415 647 C488 647 510 614 510 573 L510 477 C510 437 488 403 415 403 L254 403 C181 403 159 436 159 477 L159 573 C159 613 181 647 254 647 L415 647 Z M729 124 C729 55 773 0 885 0 L1042 0 C1154 0 1198 55 1198 124 L1198 226 C1198 295 1154 350 1042 350 L885 350 C773 350 729 295 729 226 L729 124 Z M1044 297 C1117 297 1139 264 1139 223 L1139 127 C1139 87 1117 53 1044 53 L883 53 C810 53 788 86 788 127 L788 223 C788 263 810 297 883 297 L1044 297 Z " />
<glyph glyph-name="ampersand" unicode="&#x26;" horiz-adv-x="1316" d="M326 0 L976 0 C1132 0 1193 75 1193 171 C1193 234 1165 291 1097 318 L1243 318 L1243 382 L385 382 C264 382 224 439 224 506 C224 574 266 630 392 630 L1022 630 L1022 700 L373 700 C208 700 145 621 145 521 C145 448 179 385 259 359 C142 340 95 268 95 182 C95 81 159 0 326 0 L326 0 Z M946 70 L344 70 C218 70 177 125 177 194 C177 261 218 318 340 318 L950 318 C1073 318 1113 261 1113 194 C1113 125 1072 70 946 70 L946 70 Z " />
<glyph glyph-name="quotesingle" unicode="&#x27;" horiz-adv-x="288" d="M116 400 L172 400 L185 700 L103 700 L116 400 Z " />
<glyph glyph-name="parenleft" unicode="&#x28;" horiz-adv-x="488" d="M400 -116 C158 156 158 544 400 815 L336 815 C74 547 74 153 336 -116 L400 -116 Z " />
<glyph glyph-name="parenright" unicode="&#x29;" horiz-adv-x="488" d="M152 -116 C414 153 414 547 152 815 L88 815 C330 544 330 156 88 -116 L152 -116 Z " />
<glyph glyph-name="asterisk" unicode="&#x2a;" horiz-adv-x="592" d="M535 498 L514 570 L317 487 L334 700 L259 700 L275 487 L80 570 L57 499 L262 448 L125 288 L185 244 L296 424 L407 244 L467 288 L330 448 L535 498 Z " />
<glyph glyph-name="plus" unicode="&#x2b;" horiz-adv-x="1298" d="M290 315 L611 315 L611 30 L687 30 L687 315 L1008 315 L1008 385 L687 385 L687 670 L611 670 L611 385 L290 385 L290 315 Z " />
<glyph glyph-name="comma" unicode="&#x2c;" horiz-adv-x="289" d="M100 0 L141 0 L101 -109 L138 -109 L189 5 L189 90 L100 90 L100 0 Z " />
<glyph glyph-name="hyphen" unicode="&#x2d;" horiz-adv-x="600" d="M95 245 L505 245 L505 315 L95 315 L95 245 Z " />
<glyph glyph-name="period" unicode="&#x2e;" horiz-adv-x="289" d="M100 0 L189 0 L189 90 L100 90 L100 0 Z " />
<glyph glyph-name="slash" unicode="&#x2f;" horiz-adv-x="541" d="M-15 -75 L54 -75 L556 776 L487 776 L-15 -75 Z " />
<glyph glyph-name="zero" unicode="0" horiz-adv-x="1298" d="M105 248 C105 111 193 0 417 0 L881 0 C1105 0 1193 111 1193 248 L1193 452 C1193 589 1105 700 881 700 L417 700 C193 700 105 589 105 452 L105 248 Z M883 630 C1057 630 1116 548 1116 449 L1116 251 C1116 153 1057 70 883 70 L415 70 C241 70 182 153 182 251 L182 449 C182 547 241 630 415 630 L883 630 Z " />
<glyph glyph-name="one" unicode="1" horiz-adv-x="1298" d="M384 630 L671 630 L671 70 L234 70 L234 0 L1064 0 L1064 70 L747 70 L747 700 L384 700 L384 630 Z " />
<glyph glyph-name="two" unicode="2" horiz-adv-x="1298" d="M1173 70 L182 70 L182 192 C182 261 225 318 348 318 L959 318 C1135 318 1203 401 1203 509 C1203 615 1135 700 959 700 L145 700 L145 630 L957 630 C1083 630 1123 573 1123 506 C1123 437 1083 382 957 382 L345 382 C173 382 105 301 105 193 L105 0 L1173 0 L1173 70 Z " />
<glyph glyph-name="three" unicode="3" horiz-adv-x="1298" d="M85 0 L967 0 C1134 0 1198 81 1198 182 C1198 268 1151 340 1034 359 C1114 385 1148 448 1148 521 C1148 621 1085 700 920 700 L105 700 L105 630 L901 630 C1027 630 1069 573 1069 506 C1069 438 1029 382 908 382 L192 382 L192 318 L949 318 C1075 318 1116 262 1116 194 C1116 126 1075 70 949 70 L85 70 L85 0 Z " />
<glyph glyph-name="four" unicode="4" horiz-adv-x="1298" d="M1047 700 L76 185 L76 126 L1044 126 L1044 0 L1121 0 L1121 126 L1232 126 L1232 195 L1121 195 L1121 700 L1047 700 Z M228 195 L1044 626 L1044 195 L228 195 Z " />
<glyph glyph-name="five" unicode="5" horiz-adv-x="1298" d="M105 318 L957 318 C1083 318 1123 263 1123 194 C1123 127 1083 70 957 70 L123 70 L123 0 L959 0 C1135 0 1203 85 1203 191 C1203 299 1135 382 959 382 L181 382 L200 630 L1163 630 L1163 700 L135 700 L105 318 Z " />
<glyph glyph-name="six" unicode="6" horiz-adv-x="1298" d="M181 350 C181 505 284 630 551 630 L1153 630 L1153 700 L545 700 C228 700 104 543 104 350 L104 248 C104 111 192 0 416 0 L974 0 C1150 0 1218 85 1218 191 C1218 299 1150 382 974 382 L374 382 C272 382 211 350 181 301 L181 350 Z M351 318 L972 318 C1098 318 1138 263 1138 194 C1138 126 1096 70 972 70 L417 70 C261 70 195 135 183 219 C193 276 241 318 351 318 L351 318 Z " />
<glyph glyph-name="seven" unicode="7" horiz-adv-x="1298" d="M504 0 L1203 638 L1203 700 L85 700 L85 630 L1090 630 L392 0 L504 0 Z " />
<glyph glyph-name="eight" unicode="8" horiz-adv-x="1298" d="M984 0 C1151 0 1215 81 1215 182 C1215 268 1168 340 1051 359 C1131 385 1165 448 1165 521 C1165 621 1102 700 937 700 L361 700 C196 700 133 621 133 521 C133 448 167 385 247 359 C130 340 83 268 83 182 C83 81 147 0 314 0 L984 0 Z M1133 194 C1133 125 1092 70 966 70 L332 70 C206 70 165 125 165 194 C165 262 206 318 332 318 L966 318 C1092 318 1133 262 1133 194 L1133 194 Z M925 382 L373 382 C252 382 212 438 212 506 C212 574 254 630 380 630 L918 630 C1044 630 1086 574 1086 506 C1086 439 1046 382 925 382 L925 382 Z " />
<glyph glyph-name="nine" unicode="9" horiz-adv-x="1298" d="M747 70 L145 70 L145 0 L753 0 C1070 0 1194 157 1194 350 L1194 452 C1194 589 1106 700 882 700 L324 700 C148 700 80 615 80 509 C80 401 148 318 324 318 L924 318 C1026 318 1087 349 1117 398 L1117 350 C1117 195 1014 70 747 70 L747 70 Z M947 382 L326 382 C200 382 160 437 160 506 C160 574 202 630 326 630 L881 630 C1036 630 1103 565 1115 480 C1104 424 1057 382 947 382 L947 382 Z " />
<glyph glyph-name="colon" unicode="&#x3a;" horiz-adv-x="289" d="M100 470 L189 470 L189 560 L100 560 L100 470 Z M100 0 L189 0 L189 90 L100 90 L100 0 Z " />
<glyph glyph-name="semicolon" unicode="&#x3b;" horiz-adv-x="289" d="M100 0 L141 0 L101 -109 L138 -109 L189 5 L189 90 L100 90 L100 0 Z M100 470 L189 470 L189 560 L100 560 L100 470 Z " />
<glyph glyph-name="less" unicode="&#x3c;" horiz-adv-x="1298" d="M998 102 L392 350 L998 598 L998 673 L300 386 L300 314 L998 27 L998 102 Z " />
<glyph glyph-name="equal" unicode="&#x3d;" horiz-adv-x="1298" d="M290 160 L1008 160 L1008 230 L290 230 L290 160 Z M290 470 L1008 470 L1008 540 L290 540 L290 470 Z " />
<glyph glyph-name="greater" unicode="&#x3e;" horiz-adv-x="1298" d="M300 27 L998 314 L998 386 L300 673 L300 598 L906 350 L300 102 L300 27 Z " />
<glyph glyph-name="question" unicode="&#x3f;" horiz-adv-x="1070" d="M334 158 L405 158 L405 319 L791 319 C967 319 1035 402 1035 510 C1035 615 967 700 791 700 L33 700 L33 630 L788 630 C914 630 954 573 954 505 C954 436 914 381 788 381 L334 381 L334 158 Z M325 0 L415 0 L415 90 L325 90 L325 0 Z " />
<glyph glyph-name="at" unicode="&#x40;" horiz-adv-x="1398" d="M725 420 L646 420 C450 420 374 323 374 205 C374 87 450 -10 646 -10 L725 -10 C847 -10 917 32 950 94 L956 0 L1228 0 C1289 67 1316 154 1316 248 C1316 462 1179 635 828 635 L624 635 C235 635 82 443 82 205 C82 -32 235 -224 624 -224 L771 -224 L771 -167 L625 -167 C277 -167 150 0 150 205 C150 411 278 578 626 578 L826 578 C1136 578 1248 430 1248 248 C1248 176 1233 110 1192 57 L1002 57 L1002 410 L956 410 L951 315 C917 378 847 420 725 420 L725 420 Z M647 47 C492 47 440 118 440 205 C440 292 492 363 647 363 L728 363 C888 363 938 289 938 200 C938 115 880 47 728 47 L647 47 Z " />
<glyph glyph-name="A" unicode="A" horiz-adv-x="1268" d="M1160 0 L1255 0 L676 700 L593 700 L13 0 L108 0 L224 141 L1043 141 L1160 0 Z M634 636 L989 206 L278 206 L634 636 Z " />
<glyph glyph-name="B" unicode="B" horiz-adv-x="1259" d="M125 0 L945 0 C1112 0 1176 81 1176 182 C1176 268 1129 340 1012 359 C1092 385 1126 448 1126 521 C1126 621 1063 700 898 700 L125 700 L125 0 Z M927 318 C1053 318 1094 262 1094 194 C1094 125 1053 70 927 70 L202 70 L202 318 L927 318 Z M1047 506 C1047 439 1007 382 886 382 L202 382 L202 630 L879 630 C1003 630 1047 574 1047 506 L1047 506 Z " />
<glyph glyph-name="C" unicode="C" horiz-adv-x="1184" d="M160 350 C160 505 253 630 520 630 L1101 630 L1101 700 L519 700 C202 700 78 543 78 350 C78 157 202 0 519 0 L1101 0 L1101 70 L520 70 C253 70 160 195 160 350 L160 350 Z " />
<glyph glyph-name="D" unicode="D" horiz-adv-x="1255" d="M125 0 L736 0 C1053 0 1177 157 1177 350 C1177 543 1053 700 736 700 L125 700 L125 0 Z M735 630 C1002 630 1095 505 1095 350 C1095 195 1002 70 735 70 L202 70 L202 630 L735 630 Z " />
<glyph glyph-name="E" unicode="E" horiz-adv-x="1199" d="M125 0 L1116 0 L1116 70 L202 70 L202 318 L1014 318 L1014 382 L202 382 L202 630 L1116 630 L1116 700 L125 700 L125 0 Z " />
<glyph glyph-name="F" unicode="F" horiz-adv-x="1159" d="M125 0 L202 0 L202 311 L1014 311 L1014 381 L202 381 L202 630 L1116 630 L1116 700 L125 700 L125 0 Z " />
<glyph glyph-name="G" unicode="G" horiz-adv-x="1256" d="M667 318 L1080 318 L1080 70 L520 70 C253 70 160 195 160 350 C160 505 253 630 520 630 L1101 630 L1101 700 L519 700 C202 700 78 543 78 350 C78 157 202 0 519 0 L1156 0 L1156 382 L667 382 L667 318 Z " />
<glyph glyph-name="H" unicode="H" horiz-adv-x="1305" d="M1103 0 L1180 0 L1180 700 L1103 700 L1103 385 L202 385 L202 700 L125 700 L125 0 L202 0 L202 315 L1103 315 L1103 0 Z " />
<glyph glyph-name="I" unicode="I" horiz-adv-x="327" d="M125 0 L202 0 L202 700 L125 700 L125 0 Z " />
<glyph glyph-name="J" unicode="J" horiz-adv-x="1211" d="M388 -5 L685 -5 C1002 -5 1106 132 1106 325 L1106 700 L1029 700 L1029 325 C1029 172 949 65 684 65 L389 65 C187 65 122 159 122 275 L122 320 L45 320 L45 275 C45 121 134 -5 388 -5 L388 -5 Z " />
<glyph glyph-name="K" unicode="K" horiz-adv-x="1287" d="M1188 700 L1052 700 L202 223 L202 700 L125 700 L125 0 L202 0 L202 145 L544 337 L1144 0 L1279 0 L615 377 L1188 700 Z " />
<glyph glyph-name="L" unicode="L" horiz-adv-x="1129" d="M202 700 L125 700 L125 0 L1096 0 L1096 70 L202 70 L202 700 Z " />
<glyph glyph-name="M" unicode="M" horiz-adv-x="1447" d="M1249 700 L723 136 L198 700 L125 700 L125 0 L202 0 L202 593 L723 31 L1245 593 L1245 0 L1322 0 L1322 700 L1249 700 Z " />
<glyph glyph-name="N" unicode="N" horiz-adv-x="1304" d="M1106 0 L1179 0 L1179 700 L1102 700 L1102 90 L198 700 L125 700 L125 0 L202 0 L202 610 L1106 0 Z " />
<glyph glyph-name="O" unicode="O" horiz-adv-x="1348" d="M816 -10 C1142 -10 1270 151 1270 350 C1270 549 1142 710 816 710 L532 710 C206 710 78 549 78 350 C78 151 206 -10 532 -10 L816 -10 Z M533 60 C257 60 160 189 160 350 C160 511 257 640 533 640 L815 640 C1091 640 1188 511 1188 350 C1188 189 1091 60 815 60 L533 60 Z " />
<glyph glyph-name="P" unicode="P" horiz-adv-x="1196" d="M125 0 L202 0 L202 275 L892 275 C1086 275 1161 368 1161 488 C1161 604 1086 700 892 700 L125 700 L125 0 Z M890 630 C1034 630 1081 566 1081 488 C1081 407 1034 345 890 345 L202 345 L202 630 L890 630 Z " />
<glyph glyph-name="Q" unicode="Q" horiz-adv-x="1348" d="M816 -10 C874 -10 925 -5 971 4 L1206 -110 L1345 -110 L1056 29 C1207 89 1270 210 1270 350 C1270 549 1142 710 816 710 L532 710 C206 710 78 549 78 350 C78 151 206 -10 532 -10 L816 -10 Z M533 60 C257 60 160 189 160 350 C160 511 257 640 533 640 L815 640 C1091 640 1188 511 1188 350 C1188 189 1091 60 815 60 L533 60 Z " />
<glyph glyph-name="R" unicode="R" horiz-adv-x="1277" d="M125 0 L202 0 L202 276 L650 276 L1136 0 L1269 0 L773 277 L876 277 C1069 277 1145 370 1145 489 C1145 605 1069 700 876 700 L125 700 L125 0 Z M872 630 C1016 630 1064 565 1064 487 C1064 407 1016 344 872 344 L202 344 L202 630 L872 630 Z " />
<glyph glyph-name="S" unicode="S" horiz-adv-x="1207" d="M115 0 L888 0 C1064 0 1132 85 1132 191 C1132 299 1064 382 888 382 L321 382 C195 382 155 437 155 506 C155 573 195 630 321 630 L1092 630 L1092 700 L319 700 C143 700 75 615 75 509 C75 401 143 318 319 318 L886 318 C1012 318 1052 263 1052 194 C1052 127 1012 70 886 70 L115 70 L115 0 Z " />
<glyph glyph-name="T" unicode="T" horiz-adv-x="1184" d="M33 630 L554 630 L554 0 L630 0 L630 630 L1151 630 L1151 700 L33 700 L33 630 Z " />
<glyph glyph-name="U" unicode="U" horiz-adv-x="1275" d="M182 323 L182 700 L105 700 L105 323 C105 130 209 -10 526 -10 L749 -10 C1066 -10 1170 130 1170 323 L1170 700 L1093 700 L1093 323 C1093 170 1013 60 748 60 L527 60 C262 60 182 170 182 323 L182 323 Z " />
<glyph glyph-name="V" unicode="V" horiz-adv-x="1268" d="M676 0 L1255 700 L1157 700 L634 64 L112 700 L13 700 L593 0 L676 0 Z " />
<glyph glyph-name="W" unicode="W" horiz-adv-x="1618" d="M809 605 L1143 0 L1201 0 L1593 700 L1501 700 L1172 96 L838 700 L780 700 L446 96 L117 700 L25 700 L417 0 L475 0 L809 605 Z " />
<glyph glyph-name="X" unicode="X" horiz-adv-x="1228" d="M24 700 L551 351 L19 0 L144 0 L614 312 L1084 0 L1209 0 L677 351 L1204 700 L1079 700 L614 391 L149 700 L24 700 Z " />
<glyph glyph-name="Y" unicode="Y" horiz-adv-x="1246" d="M584 0 L661 0 L661 211 L1243 700 L1128 700 L623 272 L118 700 L3 700 L584 211 L584 0 Z " />
<glyph glyph-name="Z" unicode="Z" horiz-adv-x="1194" d="M75 0 L1129 0 L1129 70 L223 70 L1109 645 L1109 700 L85 700 L85 630 L960 630 L75 55 L75 0 Z " />
<glyph glyph-name="bracketleft" unicode="&#x5b;" horiz-adv-x="488" d="M134 -150 L434 -150 L434 -94 L210 -94 L210 794 L434 794 L434 850 L134 850 L134 -150 Z " />
<glyph glyph-name="backslash" unicode="&#x5c;" horiz-adv-x="541" d="M54 776 L-15 776 L487 -75 L556 -75 L54 776 Z " />
<glyph glyph-name="bracketright" unicode="&#x5d;" horiz-adv-x="488" d="M354 850 L54 850 L54 794 L278 794 L278 -94 L54 -94 L54 -150 L354 -150 L354 850 Z " />
<glyph glyph-name="asciicircum" unicode="&#x5e;" horiz-adv-x="1298" d="M979 350 L1073 350 L691 800 L607 800 L225 350 L319 350 L649 735 L979 350 Z " />
<glyph glyph-name="underscore" unicode="&#x5f;" horiz-adv-x="500" d="M0 -145 L500 -145 L500 -79 L0 -79 L0 -145 Z " />
<glyph glyph-name="grave" unicode="&#x60;" horiz-adv-x="500" d="M206 806 L114 806 L266 635 L315 635 L206 806 Z " />
<glyph glyph-name="a" unicode="a" horiz-adv-x="1086" d="M985 0 L1072 0 L581 560 L505 560 L14 0 L101 0 L204 117 L882 117 L985 0 Z M543 503 L834 172 L252 172 L543 503 Z " />
<glyph glyph-name="b" unicode="b" horiz-adv-x="1084" d="M115 0 L818 0 C961 0 1009 64 1009 146 C1009 215 973 272 874 288 C942 309 967 358 967 417 C967 497 919 560 779 560 L115 560 L115 0 Z M801 253 C906 253 934 209 934 157 C934 104 906 61 801 61 L185 61 L185 253 L801 253 Z M766 307 L185 307 L185 499 L760 499 C863 499 894 456 894 403 C894 351 866 307 766 307 L766 307 Z " />
<glyph glyph-name="c" unicode="c" horiz-adv-x="1016" d="M145 280 C145 401 214 499 438 499 L941 499 L941 560 L438 560 C168 560 71 434 71 280 C71 126 168 0 438 0 L941 0 L941 61 L438 61 C214 61 145 159 145 280 L145 280 Z " />
<glyph glyph-name="d" unicode="d" horiz-adv-x="1081" d="M115 0 L643 0 C913 0 1010 126 1010 280 C1010 434 913 560 643 560 L115 560 L115 0 Z M643 499 C867 499 936 401 936 280 C936 159 867 61 643 61 L185 61 L185 499 L643 499 Z " />
<glyph glyph-name="e" unicode="e" horiz-adv-x="1034" d="M115 0 L958 0 L958 61 L185 61 L185 253 L871 253 L871 307 L185 307 L185 499 L958 499 L958 560 L115 560 L115 0 Z " />
<glyph glyph-name="f" unicode="f" horiz-adv-x="1017" d="M115 0 L185 0 L185 246 L871 246 L871 307 L185 307 L185 499 L958 499 L958 560 L115 560 L115 0 Z " />
<glyph glyph-name="g" unicode="g" horiz-adv-x="1081" d="M571 253 L919 253 L919 61 L438 61 C214 61 145 159 145 280 C145 401 214 499 438 499 L941 499 L941 560 L438 560 C168 560 71 434 71 280 C71 126 168 0 438 0 L988 0 L988 307 L571 307 L571 253 Z " />
<glyph glyph-name="h" unicode="h" horiz-adv-x="1128" d="M943 0 L1013 0 L1013 560 L943 560 L943 311 L185 311 L185 560 L115 560 L115 0 L185 0 L185 249 L943 249 L943 0 Z " />
<glyph glyph-name="i" unicode="i" horiz-adv-x="300" d="M115 0 L185 0 L185 560 L115 560 L115 0 Z " />
<glyph glyph-name="j" unicode="j" horiz-adv-x="1043" d="M331 -4 L598 -4 C868 -4 948 106 948 260 L948 560 L878 560 L878 260 C878 141 819 57 598 57 L332 57 C163 57 115 130 115 220 L115 257 L45 257 L45 220 C45 97 115 -4 331 -4 L331 -4 Z " />
<glyph glyph-name="k" unicode="k" horiz-adv-x="1111" d="M1026 560 L897 560 L185 184 L185 560 L115 560 L115 0 L185 0 L185 115 L474 268 L974 0 L1098 0 L538 302 L1026 560 Z " />
<glyph glyph-name="l" unicode="l" horiz-adv-x="987" d="M185 560 L115 560 L115 0 L941 0 L941 61 L185 61 L185 560 Z " />
<glyph glyph-name="m" unicode="m" horiz-adv-x="1249" d="M1067 560 L624 116 L182 560 L115 560 L115 0 L185 0 L185 467 L624 24 L1064 467 L1064 0 L1134 0 L1134 560 L1067 560 Z " />
<glyph glyph-name="n" unicode="n" horiz-adv-x="1127" d="M1012 0 L1012 560 L942 560 L942 79 L181 560 L115 560 L115 0 L185 0 L185 481 L946 0 L1012 0 Z " />
<glyph glyph-name="o" unicode="o" horiz-adv-x="1156" d="M707 -8 C984 -8 1085 121 1085 280 C1085 439 984 568 707 568 L449 568 C172 568 71 439 71 280 C71 121 172 -8 449 -8 L707 -8 Z M450 53 C218 53 145 154 145 280 C145 406 218 507 450 507 L706 507 C938 507 1011 406 1011 280 C1011 154 938 53 706 53 L450 53 Z " />
<glyph glyph-name="p" unicode="p" horiz-adv-x="1042" d="M115 0 L185 0 L185 217 L773 217 C939 217 997 292 997 389 C997 483 939 560 773 560 L115 560 L115 0 Z M771 499 C891 499 924 450 924 389 C924 326 891 279 771 279 L185 279 L185 499 L771 499 Z " />
<glyph glyph-name="q" unicode="q" horiz-adv-x="1156" d="M707 -8 C752 -8 792 -4 828 2 L1021 -88 L1146 -88 L906 22 C1034 70 1085 167 1085 280 C1085 439 984 568 707 568 L449 568 C172 568 71 439 71 280 C71 121 172 -8 449 -8 L707 -8 Z M450 53 C218 53 145 154 145 280 C145 406 218 507 450 507 L706 507 C938 507 1011 406 1011 280 C1011 154 938 53 706 53 L450 53 Z " />
<glyph glyph-name="r" unicode="r" horiz-adv-x="1105" d="M115 0 L185 0 L185 218 L561 218 L967 0 L1088 0 L675 219 L759 219 C924 219 983 294 983 390 C983 484 924 560 759 560 L115 560 L115 0 Z M756 499 C876 499 910 449 910 388 C910 326 876 278 756 278 L185 278 L185 499 L756 499 Z " />
<glyph glyph-name="s" unicode="s" horiz-adv-x="1033" d="M101 0 L764 0 C914 0 966 68 966 154 C966 240 914 307 764 307 L272 307 C169 307 140 350 140 403 C140 455 169 499 272 499 L932 499 L932 560 L269 560 C119 560 67 492 67 406 C67 320 119 253 269 253 L761 253 C864 253 893 210 893 157 C893 105 864 61 761 61 L101 61 L101 0 Z " />
<glyph glyph-name="t" unicode="t" horiz-adv-x="1042" d="M46 499 L486 499 L486 0 L556 0 L556 499 L996 499 L996 560 L46 560 L46 499 Z " />
<glyph glyph-name="u" unicode="u" horiz-adv-x="1096" d="M164 258 L164 560 L95 560 L95 258 C95 104 175 -8 444 -8 L651 -8 C920 -8 1001 104 1001 258 L1001 560 L931 560 L931 258 C931 139 872 53 650 53 L445 53 C223 53 164 139 164 258 L164 258 Z " />
<glyph glyph-name="v" unicode="v" horiz-adv-x="1086" d="M581 0 L1072 560 L983 560 L543 57 L103 560 L14 560 L505 0 L581 0 Z " />
<glyph glyph-name="w" unicode="w" horiz-adv-x="1384" d="M692 477 L973 0 L1026 0 L1359 560 L1275 560 L998 84 L719 560 L666 560 L386 84 L108 560 L25 560 L359 0 L411 0 L692 477 Z " />
<glyph glyph-name="x" unicode="x" horiz-adv-x="1065" d="M30 560 L477 282 L25 0 L141 0 L533 246 L925 0 L1041 0 L589 282 L1037 560 L921 560 L533 318 L146 560 L30 560 Z " />
<glyph glyph-name="y" unicode="y" horiz-adv-x="1061" d="M496 0 L566 0 L566 170 L1058 560 L954 560 L531 223 L107 560 L3 560 L496 170 L496 0 Z " />
<glyph glyph-name="z" unicode="z" horiz-adv-x="1023" d="M68 0 L965 0 L965 61 L202 61 L948 512 L948 560 L77 560 L77 499 L813 499 L68 48 L68 0 Z " />
<glyph glyph-name="braceleft" unicode="&#x7b;" horiz-adv-x="488" d="M173 455 C173 412 156 378 84 378 L53 378 L53 322 L84 322 C156 322 173 288 173 245 L173 -34 C173 -99 209 -150 316 -150 L435 -150 L435 -94 L338 -94 C265 -94 249 -60 249 -17 L249 242 C249 292 224 333 164 350 C224 366 249 408 249 458 L249 717 C249 760 265 794 338 794 L435 794 L435 850 L316 850 C209 850 173 799 173 734 L173 455 Z " />
<glyph glyph-name="bar" unicode="&#x7c;" horiz-adv-x="500" d="M217 850 L217 -150 L283 -150 L283 850 L217 850 Z " />
<glyph glyph-name="braceright" unicode="&#x7d;" horiz-adv-x="488" d="M315 734 C315 799 279 850 172 850 L53 850 L53 794 L150 794 C223 794 239 760 239 717 L239 458 C239 408 264 366 324 350 C264 333 239 292 239 242 L239 -17 C239 -60 223 -94 150 -94 L53 -94 L53 -150 L172 -150 C279 -150 315 -99 315 -34 L315 245 C315 288 332 322 404 322 L435 322 L435 378 L404 378 C332 378 315 412 315 455 L315 734 Z " />
<glyph glyph-name="asciitilde" unicode="&#x7e;" horiz-adv-x="1298" d="M1008 428 C940 373 880 355 824 355 C704 355 600 438 476 438 C419 438 359 420 290 370 L290 295 C357 350 417 368 474 368 C593 368 697 285 822 285 C878 285 939 302 1008 353 L1008 428 Z " />
<glyph glyph-name="uni00A0" unicode="&#xa0;" horiz-adv-x="500" d="" />
<glyph glyph-name="exclamdown" unicode="&#xa1;" horiz-adv-x="329" d="M210 700 L120 700 L120 610 L210 610 L210 700 Z M200 542 L131 542 L126 0 L204 0 L200 542 Z " />
<glyph glyph-name="cent" unicode="&#xa2;" horiz-adv-x="1298" d="M1157 190 L678 190 L745 510 L1159 510 L1159 574 L760 574 L791 720 L720 720 L689 574 L421 574 C218 574 138 473 138 350 C138 227 218 126 421 126 L594 126 L563 -20 L634 -20 L665 126 L1157 126 L1157 190 Z M212 350 C212 443 268 510 436 510 L675 510 L607 190 L437 190 C269 190 212 257 212 350 L212 350 Z " />
<glyph glyph-name="sterling" unicode="&#xa3;" horiz-adv-x="1298" d="M753 382 L342 382 L342 449 C342 547 383 630 556 630 L1053 630 L1053 700 L559 700 C335 700 265 589 265 452 L265 382 L125 382 L125 318 L265 318 L265 144 C265 99 245 67 193 67 L125 67 L125 0 L1173 0 L1173 70 L293 70 C324 83 342 115 342 152 L342 318 L753 318 L753 382 Z " />
<glyph glyph-name="currency" unicode="&#xa4;" horiz-adv-x="1298" d="M771 85 C871 85 946 106 998 142 L1148 -10 L1198 39 L1049 186 C1088 230 1105 287 1105 350 C1105 412 1088 469 1049 513 L1198 661 L1148 710 L998 558 C946 593 871 615 771 615 L525 615 C425 615 351 594 299 558 L150 710 L100 661 L248 514 C209 469 191 413 191 350 C191 287 209 230 248 186 L100 39 L150 -10 L299 141 C351 106 425 85 525 85 L771 85 Z M270 350 C270 459 334 547 526 547 L770 547 C962 547 1027 459 1027 350 C1027 241 962 153 770 153 L526 153 C334 153 270 241 270 350 L270 350 Z " />
<glyph glyph-name="yen" unicode="&#xa5;" horiz-adv-x="1298" d="M1096 700 L649 325 L202 700 L90 700 L455 402 L109 402 L109 341 L519 341 L611 264 L611 212 L109 212 L109 152 L611 152 L611 0 L687 0 L687 152 L1189 152 L1189 212 L687 212 L687 264 L779 341 L1189 341 L1189 402 L844 402 L1208 700 L1096 700 Z " />
<glyph glyph-name="brokenbar" unicode="&#xa6;" horiz-adv-x="500" d="M283 467 L283 850 L217 850 L217 467 L283 467 Z M217 233 L217 -150 L283 -150 L283 233 L217 233 Z " />
<glyph glyph-name="section" unicode="&#xa7;" horiz-adv-x="1226" d="M267 149 L835 149 C928 149 957 108 957 57 C957 6 928 -36 830 -36 L227 -36 L227 -100 L857 -100 C982 -100 1031 -38 1031 38 C1031 86 1011 128 963 151 L980 151 C1102 151 1151 221 1151 300 C1151 384 1097 451 959 451 L396 451 C299 451 269 490 269 543 C269 594 298 636 396 636 L999 636 L999 700 L369 700 C244 700 195 638 195 562 C195 513 215 472 262 449 L246 449 C123 449 75 379 75 300 C75 216 129 149 267 149 L267 149 Z M272 207 C176 207 145 249 145 300 C145 352 176 393 272 393 L954 393 C1050 393 1081 351 1081 300 C1081 248 1050 207 954 207 L272 207 Z " />
<glyph glyph-name="dieresis" unicode="&#xa8;" horiz-adv-x="500" d="M338 679 L421 679 L421 761 L338 761 L338 679 Z M79 679 L162 679 L162 761 L79 761 L79 679 Z " />
<glyph glyph-name="copyright" unicode="&#xa9;" horiz-adv-x="1208" d="M686 -10 C1012 -10 1140 151 1140 350 C1140 549 1012 710 686 710 L522 710 C196 710 68 549 68 350 C68 151 196 -10 522 -10 L686 -10 Z M523 42 C234 42 128 180 128 350 C128 520 234 658 523 658 L685 658 C974 658 1080 520 1080 350 C1080 180 974 42 685 42 L523 42 Z M824 220 L532 220 C406 220 364 278 364 350 C364 421 406 480 532 480 L824 480 L824 525 L531 525 C372 525 310 446 310 350 C310 253 372 175 531 175 L824 175 L824 220 Z " />
<glyph glyph-name="ordfeminine" unicode="&#xaa;" horiz-adv-x="764" d="M624 350 L696 350 L413 700 L350 700 L67 350 L139 350 L190 413 L573 413 L624 350 Z M381 648 L533 462 L230 462 L381 648 Z " />
<glyph glyph-name="guillemotleft" unicode="&#xab;" horiz-adv-x="774" d="M304 560 L100 281 L306 0 L388 0 L182 281 L386 560 L304 560 Z M590 560 L386 281 L592 0 L674 0 L468 281 L672 560 L590 560 Z " />
<glyph glyph-name="logicalnot" unicode="&#xac;" horiz-adv-x="1298" d="M290 315 L931 315 L931 40 L1008 40 L1008 385 L290 385 L290 315 Z " />
<glyph glyph-name="uni00AD" unicode="&#xad;" horiz-adv-x="600" d="M95 247 L505 247 L505 313 L95 313 L95 247 Z " />
<glyph glyph-name="registered" unicode="&#xae;" horiz-adv-x="1208" d="M686 -10 C1012 -10 1140 151 1140 350 C1140 549 1012 710 686 710 L522 710 C196 710 68 549 68 350 C68 151 196 -10 522 -10 L686 -10 Z M523 42 C234 42 128 180 128 350 C128 520 234 658 523 658 L685 658 C974 658 1079 520 1079 350 C1079 180 974 42 685 42 L523 42 Z M346 175 L396 175 L396 308 L627 308 L844 175 L921 175 L699 309 L721 309 C820 309 858 356 858 417 C858 477 820 525 721 525 L346 525 L346 175 Z M717 480 C784 480 805 451 805 415 C805 379 784 351 717 351 L396 351 L396 480 L717 480 Z " />
<glyph glyph-name="macron" unicode="&#xaf;" horiz-adv-x="500" d="M72 694 L428 694 L428 746 L72 746 L72 694 Z " />
<glyph glyph-name="degree" unicode="&#xb0;" horiz-adv-x="568" d="M82 510 C82 394 174 309 284 309 C394 309 486 394 486 510 C486 625 394 710 284 710 C174 710 82 625 82 510 L82 510 Z M144 510 C144 593 205 654 284 654 C363 654 424 593 424 510 C424 426 363 365 284 365 C205 365 144 426 144 510 L144 510 Z " />
<glyph glyph-name="plusminus" unicode="&#xb1;" horiz-adv-x="1298" d="M290 400 L611 400 L611 170 L687 170 L687 400 L1008 400 L1008 470 L687 470 L687 700 L611 700 L611 470 L290 470 L290 400 Z M290 0 L1008 0 L1008 70 L290 70 L290 0 Z " />
<glyph glyph-name="twosuperior" unicode="&#xb2;" horiz-adv-x="748" d="M640 403 L161 403 L161 452 C161 479 177 502 231 502 L527 502 C619 502 655 544 655 601 C655 656 619 700 527 700 L122 700 L122 647 L525 647 C578 647 594 623 594 597 C594 570 578 548 525 548 L230 548 C137 548 102 506 102 449 L102 350 L640 350 L640 403 Z " />
<glyph glyph-name="threesuperior" unicode="&#xb3;" horiz-adv-x="748" d="M87 350 L530 350 C614 350 646 391 646 442 C646 484 624 519 568 531 C605 544 621 575 621 610 C621 660 590 700 507 700 L97 700 L97 647 L493 647 C546 647 561 624 561 597 C561 571 546 548 494 548 L140 548 L140 502 L515 502 C569 502 584 479 584 452 C584 426 569 403 515 403 L87 403 L87 350 Z " />
<glyph glyph-name="acute" unicode="&#xb4;" horiz-adv-x="500" d="M184 635 L233 635 L385 806 L293 806 L184 635 Z " />
<glyph glyph-name="uni00B5" unicode="&#xb5;" horiz-adv-x="1298" d="M1108 0 L1163 0 L1163 560 L1086 560 L1086 357 C1086 198 981 70 707 70 L382 70 C256 70 212 122 212 194 L212 560 L135 560 L135 -200 L212 -200 L212 85 C242 18 308 0 395 0 L715 0 C925 0 1044 77 1093 186 L1108 0 Z " />
<glyph glyph-name="paragraph" unicode="&#xb6;" horiz-adv-x="1199" d="M620 630 L924 630 L924 -100 L1001 -100 L1001 630 L1101 630 L1101 700 L334 700 C140 700 65 604 65 488 C65 368 140 275 334 275 L543 275 L543 -100 L620 -100 L620 630 Z " />
<glyph glyph-name="periodcentered" unicode="&#xb7;" horiz-adv-x="289" d="M100 305 L189 305 L189 395 L100 395 L100 305 Z " />
<glyph glyph-name="cedilla" unicode="&#xb8;" horiz-adv-x="500" d="M203 -104 L226 -104 C292 -104 329 -117 329 -161 C329 -237 180 -222 134 -198 L134 -234 C207 -269 385 -281 385 -163 C385 -86 320 -69 247 -69 L245 -69 L263 0 L231 0 L203 -104 Z " />
<glyph glyph-name="onesuperior" unicode="&#xb9;" horiz-adv-x="748" d="M239 647 L374 647 L374 403 L164 403 L164 350 L583 350 L583 403 L433 403 L433 700 L239 700 L239 647 Z " />
<glyph glyph-name="ordmasculine" unicode="&#xba;" horiz-adv-x="762" d="M453 345 C616 345 680 425 680 525 C680 624 616 705 453 705 L309 705 C146 705 82 624 82 525 C82 425 146 345 309 345 L453 345 Z M309 398 C184 398 140 455 140 525 C140 594 183 652 309 652 L452 652 C577 652 621 594 621 525 C621 455 577 398 452 398 L309 398 Z " />
<glyph glyph-name="guillemotright" unicode="&#xbb;" horiz-adv-x="774" d="M388 560 L592 281 L386 0 L468 0 L674 281 L470 560 L388 560 Z M102 560 L306 281 L100 0 L182 0 L388 281 L184 560 L102 560 Z " />
<glyph glyph-name="onequarter" unicode="&#xbc;" horiz-adv-x="1496" d="M239 647 L374 647 L374 403 L164 403 L164 350 L583 350 L583 403 L433 403 L433 700 L239 700 L239 647 Z M1134 700 L279 0 L362 0 L1217 700 L1134 700 Z M1306 350 L836 104 L836 60 L1303 60 L1303 0 L1362 0 L1362 60 L1418 60 L1418 113 L1362 113 L1362 350 L1306 350 Z M952 113 L1303 294 L1303 113 L952 113 Z " />
<glyph glyph-name="onehalf" unicode="&#xbd;" horiz-adv-x="1496" d="M239 647 L374 647 L374 403 L164 403 L164 350 L583 350 L583 403 L433 403 L433 700 L239 700 L239 647 Z M1134 700 L279 0 L362 0 L1217 700 L1134 700 Z M1388 53 L909 53 L909 102 C909 129 925 152 979 152 L1275 152 C1367 152 1403 194 1403 251 C1403 306 1367 350 1275 350 L870 350 L870 297 L1273 297 C1326 297 1342 273 1342 247 C1342 220 1326 198 1273 198 L978 198 C885 198 850 156 850 99 L850 0 L1388 0 L1388 53 Z " />
<glyph glyph-name="threequarters" unicode="&#xbe;" horiz-adv-x="1496" d="M87 350 L530 350 C614 350 646 391 646 442 C646 484 624 519 568 531 C605 544 621 575 621 610 C621 660 590 700 507 700 L97 700 L97 647 L493 647 C546 647 561 624 561 597 C561 571 546 548 494 548 L140 548 L140 502 L515 502 C569 502 584 479 584 452 C584 426 569 403 515 403 L87 403 L87 350 Z M1134 700 L279 0 L362 0 L1217 700 L1134 700 Z M1306 350 L836 104 L836 60 L1303 60 L1303 0 L1362 0 L1362 60 L1418 60 L1418 113 L1362 113 L1362 350 L1306 350 Z M952 113 L1303 294 L1303 113 L952 113 Z " />
<glyph glyph-name="questiondown" unicode="&#xbf;" horiz-adv-x="1070" d="M736 542 L665 542 L665 381 L279 381 C103 381 35 298 35 190 C35 85 103 0 279 0 L1037 0 L1037 70 L282 70 C156 70 116 127 116 195 C116 264 156 319 282 319 L736 319 L736 542 Z M745 700 L655 700 L655 610 L745 610 L745 700 Z " />
<glyph glyph-name="Agrave" unicode="&#xc0;" horiz-adv-x="1268" d="M1160 0 L1255 0 L676 700 L593 700 L13 0 L108 0 L224 141 L1043 141 L1160 0 Z M634 636 L989 206 L278 206 L634 636 Z M590 946 L498 946 L650 775 L699 775 L590 946 Z " />
<glyph glyph-name="Aacute" unicode="&#xc1;" horiz-adv-x="1268" d="M1160 0 L1255 0 L676 700 L593 700 L13 0 L108 0 L224 141 L1043 141 L1160 0 Z M634 636 L989 206 L278 206 L634 636 Z M568 775 L617 775 L769 946 L677 946 L568 775 Z " />
<glyph glyph-name="Acircumflex" unicode="&#xc2;" horiz-adv-x="1268" d="M1160 0 L1255 0 L676 700 L593 700 L13 0 L108 0 L224 141 L1043 141 L1160 0 Z M634 636 L989 206 L278 206 L634 636 Z M680 946 L586 946 L463 775 L512 775 L633 904 L754 775 L805 775 L680 946 Z " />
<glyph glyph-name="Atilde" unicode="&#xc3;" horiz-adv-x="1268" d="M1160 0 L1255 0 L676 700 L593 700 L13 0 L108 0 L224 141 L1043 141 L1160 0 Z M634 636 L989 206 L278 206 L634 636 Z M766 929 C760 867 739 857 711 857 C663 857 621 921 557 921 C506 921 471 892 462 792 L502 792 C508 853 529 865 557 865 C604 865 646 800 711 800 C762 800 798 828 806 929 L766 929 Z " />
<glyph glyph-name="Adieresis" unicode="&#xc4;" horiz-adv-x="1268" d="M1160 0 L1255 0 L676 700 L593 700 L13 0 L108 0 L224 141 L1043 141 L1160 0 Z M634 636 L989 206 L278 206 L634 636 Z M722 819 L805 819 L805 901 L722 901 L722 819 Z M463 819 L546 819 L546 901 L463 901 L463 819 Z " />
<glyph glyph-name="Aring" unicode="&#xc5;" horiz-adv-x="1268" d="M1160 0 L1255 0 L676 700 L593 700 L13 0 L108 0 L224 141 L1043 141 L1160 0 Z M634 636 L989 206 L278 206 L634 636 Z M566 861 C566 898 597 929 634 929 C672 929 702 898 702 861 C702 823 672 793 634 793 C597 793 566 823 566 861 L566 861 Z M520 861 C520 800 568 751 634 751 C700 751 748 800 748 861 C748 922 700 970 634 970 C568 970 520 922 520 861 L520 861 Z " />
<glyph glyph-name="AE" unicode="&#xc6;" horiz-adv-x="1703" d="M734 140 L734 0 L1620 0 L1620 70 L811 70 L811 318 L1518 318 L1518 382 L811 382 L811 630 L1620 630 L1620 700 L693 700 L13 0 L110 0 L245 140 L734 140 Z M734 644 L734 204 L307 204 L734 644 Z " />
<glyph glyph-name="Ccedilla" unicode="&#xc7;" horiz-adv-x="1184" d="M596 -104 L619 -104 C685 -104 722 -117 722 -161 C722 -237 573 -222 527 -198 L527 -234 C600 -269 778 -281 778 -163 C778 -86 713 -69 640 -69 L638 -69 L656 0 L1101 0 L1101 70 L520 70 C253 70 160 195 160 350 C160 505 253 630 520 630 L1101 630 L1101 700 L519 700 C202 700 78 543 78 350 C78 157 202 0 519 0 L624 0 L596 -104 Z " />
<glyph glyph-name="Egrave" unicode="&#xc8;" horiz-adv-x="1199" d="M125 0 L1116 0 L1116 70 L202 70 L202 318 L1014 318 L1014 382 L202 382 L202 630 L1116 630 L1116 700 L125 700 L125 0 Z M565 946 L473 946 L625 775 L674 775 L565 946 Z " />
<glyph glyph-name="Eacute" unicode="&#xc9;" horiz-adv-x="1199" d="M125 0 L1116 0 L1116 70 L202 70 L202 318 L1014 318 L1014 382 L202 382 L202 630 L1116 630 L1116 700 L125 700 L125 0 Z M543 775 L592 775 L744 946 L652 946 L543 775 Z " />
<glyph glyph-name="Ecircumflex" unicode="&#xca;" horiz-adv-x="1199" d="M125 0 L1116 0 L1116 70 L202 70 L202 318 L1014 318 L1014 382 L202 382 L202 630 L1116 630 L1116 700 L125 700 L125 0 Z M655 946 L561 946 L438 775 L487 775 L608 904 L729 775 L780 775 L655 946 Z " />
<glyph glyph-name="Edieresis" unicode="&#xcb;" horiz-adv-x="1199" d="M125 0 L1116 0 L1116 70 L202 70 L202 318 L1014 318 L1014 382 L202 382 L202 630 L1116 630 L1116 700 L125 700 L125 0 Z M697 819 L780 819 L780 901 L697 901 L697 819 Z M438 819 L521 819 L521 901 L438 901 L438 819 Z " />
<glyph glyph-name="Igrave" unicode="&#xcc;" horiz-adv-x="327" d="M125 0 L202 0 L202 700 L125 700 L125 0 Z M120 946 L28 946 L180 775 L229 775 L120 946 Z " />
<glyph glyph-name="Iacute" unicode="&#xcd;" horiz-adv-x="327" d="M125 0 L202 0 L202 700 L125 700 L125 0 Z M98 775 L147 775 L299 946 L207 946 L98 775 Z " />
<glyph glyph-name="Icircumflex" unicode="&#xce;" horiz-adv-x="327" d="M125 0 L202 0 L202 700 L125 700 L125 0 Z M210 946 L116 946 L-7 775 L42 775 L163 904 L284 775 L335 775 L210 946 Z " />
<glyph glyph-name="Idieresis" unicode="&#xcf;" horiz-adv-x="327" d="M125 0 L202 0 L202 700 L125 700 L125 0 Z M252 819 L335 819 L335 901 L252 901 L252 819 Z M-7 819 L76 819 L76 901 L-7 901 L-7 819 Z " />
<glyph glyph-name="Eth" unicode="&#xd0;" horiz-adv-x="1255" d="M-5 318 L125 318 L125 0 L736 0 C1053 0 1177 157 1177 350 C1177 543 1053 700 736 700 L125 700 L125 382 L-5 382 L-5 318 Z M735 630 C1002 630 1095 505 1095 350 C1095 195 1002 70 735 70 L202 70 L202 318 L637 318 L637 382 L202 382 L202 630 L735 630 Z " />
<glyph glyph-name="Ntilde" unicode="&#xd1;" horiz-adv-x="1304" d="M1106 0 L1179 0 L1179 700 L1102 700 L1102 90 L198 700 L125 700 L125 0 L202 0 L202 610 L1106 0 Z M784 929 C778 867 757 857 729 857 C681 857 639 921 575 921 C524 921 489 892 480 792 L520 792 C526 853 547 865 575 865 C622 865 664 800 729 800 C780 800 816 828 824 929 L784 929 Z " />
<glyph glyph-name="Ograve" unicode="&#xd2;" horiz-adv-x="1348" d="M816 -10 C1142 -10 1270 151 1270 350 C1270 549 1142 710 816 710 L532 710 C206 710 78 549 78 350 C78 151 206 -10 532 -10 L816 -10 Z M533 60 C257 60 160 189 160 350 C160 511 257 640 533 640 L815 640 C1091 640 1188 511 1188 350 C1188 189 1091 60 815 60 L533 60 Z M630 946 L538 946 L690 775 L739 775 L630 946 Z " />
<glyph glyph-name="Oacute" unicode="&#xd3;" horiz-adv-x="1348" d="M816 -10 C1142 -10 1270 151 1270 350 C1270 549 1142 710 816 710 L532 710 C206 710 78 549 78 350 C78 151 206 -10 532 -10 L816 -10 Z M533 60 C257 60 160 189 160 350 C160 511 257 640 533 640 L815 640 C1091 640 1188 511 1188 350 C1188 189 1091 60 815 60 L533 60 Z M608 775 L657 775 L809 946 L717 946 L608 775 Z " />
<glyph glyph-name="Ocircumflex" unicode="&#xd4;" horiz-adv-x="1348" d="M816 -10 C1142 -10 1270 151 1270 350 C1270 549 1142 710 816 710 L532 710 C206 710 78 549 78 350 C78 151 206 -10 532 -10 L816 -10 Z M533 60 C257 60 160 189 160 350 C160 511 257 640 533 640 L815 640 C1091 640 1188 511 1188 350 C1188 189 1091 60 815 60 L533 60 Z M720 946 L626 946 L503 775 L552 775 L673 904 L794 775 L845 775 L720 946 Z " />
<glyph glyph-name="Otilde" unicode="&#xd5;" horiz-adv-x="1348" d="M816 -10 C1142 -10 1270 151 1270 350 C1270 549 1142 710 816 710 L532 710 C206 710 78 549 78 350 C78 151 206 -10 532 -10 L816 -10 Z M533 60 C257 60 160 189 160 350 C160 511 257 640 533 640 L815 640 C1091 640 1188 511 1188 350 C1188 189 1091 60 815 60 L533 60 Z M806 929 C800 867 779 857 751 857 C703 857 661 921 597 921 C546 921 511 892 502 792 L542 792 C548 853 569 865 597 865 C644 865 686 800 751 800 C802 800 838 828 846 929 L806 929 Z " />
<glyph glyph-name="Odieresis" unicode="&#xd6;" horiz-adv-x="1348" d="M816 -10 C1142 -10 1270 151 1270 350 C1270 549 1142 710 816 710 L532 710 C206 710 78 549 78 350 C78 151 206 -10 532 -10 L816 -10 Z M533 60 C257 60 160 189 160 350 C160 511 257 640 533 640 L815 640 C1091 640 1188 511 1188 350 C1188 189 1091 60 815 60 L533 60 Z M762 819 L845 819 L845 901 L762 901 L762 819 Z M503 819 L586 819 L586 901 L503 901 L503 819 Z " />
<glyph glyph-name="multiply" unicode="&#xd7;" horiz-adv-x="1298" d="M954 589 L902 641 L647 396 L395 637 L343 585 L596 349 L343 111 L395 59 L647 301 L902 59 L954 111 L698 349 L954 589 Z " />
<glyph glyph-name="Oslash" unicode="&#xd8;" horiz-adv-x="1348" d="M816 -10 C1142 -10 1270 151 1270 350 C1270 508 1189 642 992 690 L1080 800 L990 800 L913 704 C883 708 850 710 816 710 L532 710 C206 710 78 549 78 350 C78 192 158 58 355 9 L267 -100 L357 -100 L433 -4 C464 -8 497 -10 532 -10 L816 -10 Z M533 60 C517 60 501 60 486 61 L942 629 C1121 594 1188 483 1188 350 C1188 189 1091 60 815 60 L533 60 Z M160 350 C160 511 257 640 533 640 L815 640 C831 640 846 639 860 638 L404 71 C226 106 160 217 160 350 L160 350 Z " />
<glyph glyph-name="Ugrave" unicode="&#xd9;" horiz-adv-x="1275" d="M182 323 L182 700 L105 700 L105 323 C105 130 209 -10 526 -10 L749 -10 C1066 -10 1170 130 1170 323 L1170 700 L1093 700 L1093 323 C1093 170 1013 60 748 60 L527 60 C262 60 182 170 182 323 L182 323 Z M593 946 L501 946 L653 775 L702 775 L593 946 Z " />
<glyph glyph-name="Uacute" unicode="&#xda;" horiz-adv-x="1275" d="M182 323 L182 700 L105 700 L105 323 C105 130 209 -10 526 -10 L749 -10 C1066 -10 1170 130 1170 323 L1170 700 L1093 700 L1093 323 C1093 170 1013 60 748 60 L527 60 C262 60 182 170 182 323 L182 323 Z M571 775 L620 775 L772 946 L680 946 L571 775 Z " />
<glyph glyph-name="Ucircumflex" unicode="&#xdb;" horiz-adv-x="1275" d="M182 323 L182 700 L105 700 L105 323 C105 130 209 -10 526 -10 L749 -10 C1066 -10 1170 130 1170 323 L1170 700 L1093 700 L1093 323 C1093 170 1013 60 748 60 L527 60 C262 60 182 170 182 323 L182 323 Z M683 946 L589 946 L466 775 L515 775 L636 904 L757 775 L808 775 L683 946 Z " />
<glyph glyph-name="Udieresis" unicode="&#xdc;" horiz-adv-x="1275" d="M182 323 L182 700 L105 700 L105 323 C105 130 209 -10 526 -10 L749 -10 C1066 -10 1170 130 1170 323 L1170 700 L1093 700 L1093 323 C1093 170 1013 60 748 60 L527 60 C262 60 182 170 182 323 L182 323 Z M725 819 L808 819 L808 901 L725 901 L725 819 Z M466 819 L549 819 L549 901 L466 901 L466 819 Z " />
<glyph glyph-name="Yacute" unicode="&#xdd;" horiz-adv-x="1246" d="M584 0 L661 0 L661 211 L1243 700 L1128 700 L623 272 L118 700 L3 700 L584 211 L584 0 Z M557 775 L606 775 L758 946 L666 946 L557 775 Z " />
<glyph glyph-name="Thorn" unicode="&#xde;" horiz-adv-x="1195" d="M125 0 L202 0 L202 138 L892 138 C1086 138 1161 230 1161 350 C1161 467 1086 562 892 562 L202 562 L202 700 L125 700 L125 0 Z M889 493 C1034 493 1080 428 1080 350 C1080 269 1033 207 889 207 L202 207 L202 493 L889 493 Z " />
<glyph glyph-name="germandbls" unicode="&#xdf;" horiz-adv-x="1089" d="M495 253 L827 253 C930 253 959 210 959 157 C959 105 931 61 827 61 L356 61 L356 0 L830 0 C980 0 1032 68 1032 154 C1032 240 980 307 830 307 L604 307 L952 512 L952 560 L452 560 C183 560 95 450 95 296 L95 0 L164 0 L164 296 C164 415 231 499 453 499 L822 499 L495 302 L495 253 Z " />
<glyph glyph-name="agrave" unicode="&#xe0;" horiz-adv-x="1086" d="M985 0 L1072 0 L581 560 L505 560 L14 0 L101 0 L204 117 L882 117 L985 0 Z M543 503 L834 172 L252 172 L543 503 Z M499 806 L407 806 L559 635 L608 635 L499 806 Z " />
<glyph glyph-name="aacute" unicode="&#xe1;" horiz-adv-x="1086" d="M985 0 L1072 0 L581 560 L505 560 L14 0 L101 0 L204 117 L882 117 L985 0 Z M543 503 L834 172 L252 172 L543 503 Z M477 635 L526 635 L678 806 L586 806 L477 635 Z " />
<glyph glyph-name="acircumflex" unicode="&#xe2;" horiz-adv-x="1086" d="M985 0 L1072 0 L581 560 L505 560 L14 0 L101 0 L204 117 L882 117 L985 0 Z M543 503 L834 172 L252 172 L543 503 Z M589 806 L495 806 L372 635 L421 635 L542 764 L663 635 L714 635 L589 806 Z " />
<glyph glyph-name="atilde" unicode="&#xe3;" horiz-adv-x="1086" d="M985 0 L1072 0 L581 560 L505 560 L14 0 L101 0 L204 117 L882 117 L985 0 Z M543 503 L834 172 L252 172 L543 503 Z M675 789 C669 727 648 717 620 717 C572 717 530 781 466 781 C415 781 380 752 371 652 L411 652 C417 713 438 725 466 725 C513 725 555 660 620 660 C671 660 707 688 715 789 L675 789 Z " />
<glyph glyph-name="adieresis" unicode="&#xe4;" horiz-adv-x="1086" d="M985 0 L1072 0 L581 560 L505 560 L14 0 L101 0 L204 117 L882 117 L985 0 Z M543 503 L834 172 L252 172 L543 503 Z M631 679 L714 679 L714 761 L631 761 L631 679 Z M372 679 L455 679 L455 761 L372 761 L372 679 Z " />
<glyph glyph-name="aring" unicode="&#xe5;" horiz-adv-x="1086" d="M985 0 L1072 0 L581 560 L505 560 L14 0 L101 0 L204 117 L882 117 L985 0 Z M543 503 L834 172 L252 172 L543 503 Z M475 721 C475 758 506 789 543 789 C581 789 611 758 611 721 C611 683 581 653 543 653 C506 653 475 683 475 721 L475 721 Z M429 721 C429 660 477 611 543 611 C609 611 657 660 657 721 C657 782 609 830 543 830 C477 830 429 782 429 721 L429 721 Z " />
<glyph glyph-name="ae" unicode="&#xe6;" horiz-adv-x="1458" d="M628 110 L628 0 L1382 0 L1382 61 L697 61 L697 253 L1294 253 L1294 307 L697 307 L697 499 L1382 499 L1382 560 L590 560 L14 0 L102 0 L215 110 L628 110 Z M628 509 L628 165 L272 165 L628 509 Z " />
<glyph glyph-name="ccedilla" unicode="&#xe7;" horiz-adv-x="1016" d="M482 -104 L505 -104 C571 -104 608 -117 608 -161 C608 -237 459 -222 413 -198 L413 -234 C486 -269 664 -281 664 -163 C664 -86 599 -69 526 -69 L524 -69 L542 0 L941 0 L941 61 L438 61 C214 61 145 159 145 280 C145 401 214 499 438 499 L941 499 L941 560 L438 560 C168 560 71 434 71 280 C71 126 168 0 438 0 L510 0 L482 -104 Z " />
<glyph glyph-name="egrave" unicode="&#xe8;" horiz-adv-x="1034" d="M115 0 L958 0 L958 61 L185 61 L185 253 L871 253 L871 307 L185 307 L185 499 L958 499 L958 560 L115 560 L115 0 Z M485 806 L393 806 L545 635 L594 635 L485 806 Z " />
<glyph glyph-name="eacute" unicode="&#xe9;" horiz-adv-x="1034" d="M115 0 L958 0 L958 61 L185 61 L185 253 L871 253 L871 307 L185 307 L185 499 L958 499 L958 560 L115 560 L115 0 Z M463 635 L512 635 L664 806 L572 806 L463 635 Z " />
<glyph glyph-name="ecircumflex" unicode="&#xea;" horiz-adv-x="1034" d="M115 0 L958 0 L958 61 L185 61 L185 253 L871 253 L871 307 L185 307 L185 499 L958 499 L958 560 L115 560 L115 0 Z M575 806 L481 806 L358 635 L407 635 L528 764 L649 635 L700 635 L575 806 Z " />
<glyph glyph-name="edieresis" unicode="&#xeb;" horiz-adv-x="1034" d="M115 0 L958 0 L958 61 L185 61 L185 253 L871 253 L871 307 L185 307 L185 499 L958 499 L958 560 L115 560 L115 0 Z M617 679 L700 679 L700 761 L617 761 L617 679 Z M358 679 L441 679 L441 761 L358 761 L358 679 Z " />
<glyph glyph-name="igrave" unicode="&#xec;" horiz-adv-x="300" d="M115 0 L185 0 L185 560 L115 560 L115 0 Z M106 806 L14 806 L166 635 L215 635 L106 806 Z " />
<glyph glyph-name="iacute" unicode="&#xed;" horiz-adv-x="300" d="M115 0 L185 0 L185 560 L115 560 L115 0 Z M84 635 L133 635 L285 806 L193 806 L84 635 Z " />
<glyph glyph-name="icircumflex" unicode="&#xee;" horiz-adv-x="300" d="M115 0 L185 0 L185 560 L115 560 L115 0 Z M196 806 L102 806 L-21 635 L28 635 L149 764 L270 635 L321 635 L196 806 Z " />
<glyph glyph-name="idieresis" unicode="&#xef;" horiz-adv-x="300" d="M115 0 L185 0 L185 560 L115 560 L115 0 Z M238 679 L321 679 L321 761 L238 761 L238 679 Z M-21 679 L62 679 L62 761 L-21 761 L-21 679 Z " />
<glyph glyph-name="eth" unicode="&#xf0;" horiz-adv-x="1081" d="M-5 253 L115 253 L115 0 L643 0 C913 0 1010 126 1010 280 C1010 434 913 560 643 560 L115 560 L115 307 L-5 307 L-5 253 Z M643 499 C867 499 936 401 936 280 C936 159 867 61 643 61 L185 61 L185 253 L564 253 L564 307 L185 307 L185 499 L643 499 Z " />
<glyph glyph-name="ntilde" unicode="&#xf1;" horiz-adv-x="1127" d="M1012 0 L1012 560 L942 560 L942 79 L181 560 L115 560 L115 0 L185 0 L185 481 L946 0 L1012 0 Z M695 789 C689 727 668 717 640 717 C592 717 550 781 486 781 C435 781 400 752 391 652 L431 652 C437 713 458 725 486 725 C533 725 575 660 640 660 C691 660 727 688 735 789 L695 789 Z " />
<glyph glyph-name="ograve" unicode="&#xf2;" horiz-adv-x="1156" d="M707 -8 C984 -8 1085 121 1085 280 C1085 439 984 568 707 568 L449 568 C172 568 71 439 71 280 C71 121 172 -8 449 -8 L707 -8 Z M450 53 C218 53 145 154 145 280 C145 406 218 507 450 507 L706 507 C938 507 1011 406 1011 280 C1011 154 938 53 706 53 L450 53 Z M534 806 L442 806 L594 635 L643 635 L534 806 Z " />
<glyph glyph-name="oacute" unicode="&#xf3;" horiz-adv-x="1156" d="M707 -8 C984 -8 1085 121 1085 280 C1085 439 984 568 707 568 L449 568 C172 568 71 439 71 280 C71 121 172 -8 449 -8 L707 -8 Z M450 53 C218 53 145 154 145 280 C145 406 218 507 450 507 L706 507 C938 507 1011 406 1011 280 C1011 154 938 53 706 53 L450 53 Z M512 635 L561 635 L713 806 L621 806 L512 635 Z " />
<glyph glyph-name="ocircumflex" unicode="&#xf4;" horiz-adv-x="1156" d="M707 -8 C984 -8 1085 121 1085 280 C1085 439 984 568 707 568 L449 568 C172 568 71 439 71 280 C71 121 172 -8 449 -8 L707 -8 Z M450 53 C218 53 145 154 145 280 C145 406 218 507 450 507 L706 507 C938 507 1011 406 1011 280 C1011 154 938 53 706 53 L450 53 Z M624 806 L530 806 L407 635 L456 635 L577 764 L698 635 L749 635 L624 806 Z " />
<glyph glyph-name="otilde" unicode="&#xf5;" horiz-adv-x="1156" d="M707 -8 C984 -8 1085 121 1085 280 C1085 439 984 568 707 568 L449 568 C172 568 71 439 71 280 C71 121 172 -8 449 -8 L707 -8 Z M450 53 C218 53 145 154 145 280 C145 406 218 507 450 507 L706 507 C938 507 1011 406 1011 280 C1011 154 938 53 706 53 L450 53 Z M710 789 C704 727 683 717 655 717 C607 717 565 781 501 781 C450 781 415 752 406 652 L446 652 C452 713 473 725 501 725 C548 725 590 660 655 660 C706 660 742 688 750 789 L710 789 Z " />
<glyph glyph-name="odieresis" unicode="&#xf6;" horiz-adv-x="1156" d="M707 -8 C984 -8 1085 121 1085 280 C1085 439 984 568 707 568 L449 568 C172 568 71 439 71 280 C71 121 172 -8 449 -8 L707 -8 Z M450 53 C218 53 145 154 145 280 C145 406 218 507 450 507 L706 507 C938 507 1011 406 1011 280 C1011 154 938 53 706 53 L450 53 Z M666 679 L749 679 L749 761 L666 761 L666 679 Z M407 679 L490 679 L490 761 L407 761 L407 679 Z " />
<glyph glyph-name="divide" unicode="&#xf7;" horiz-adv-x="1298" d="M290 315 L1008 315 L1008 385 L290 385 L290 315 Z M607 45 L690 45 L690 128 L607 128 L607 45 Z M607 572 L690 572 L690 655 L607 655 L607 572 Z " />
<glyph glyph-name="oslash" unicode="&#xf8;" horiz-adv-x="1156" d="M707 -8 C984 -8 1085 121 1085 280 C1085 407 1020 515 851 553 L925 640 L843 640 L779 564 C756 566 732 568 707 568 L449 568 C172 568 71 439 71 280 C71 152 136 44 305 6 L232 -80 L314 -80 L378 -4 C400 -6 424 -8 449 -8 L707 -8 Z M145 280 C145 406 218 507 450 507 L730 507 L351 60 C196 86 145 174 145 280 L145 280 Z M427 53 L805 499 C959 474 1011 386 1011 280 C1011 154 938 53 706 53 L427 53 Z " />
<glyph glyph-name="ugrave" unicode="&#xf9;" horiz-adv-x="1096" d="M164 258 L164 560 L95 560 L95 258 C95 104 175 -8 444 -8 L651 -8 C920 -8 1001 104 1001 258 L1001 560 L931 560 L931 258 C931 139 872 53 650 53 L445 53 C223 53 164 139 164 258 L164 258 Z M504 806 L412 806 L564 635 L613 635 L504 806 Z " />
<glyph glyph-name="uacute" unicode="&#xfa;" horiz-adv-x="1096" d="M164 258 L164 560 L95 560 L95 258 C95 104 175 -8 444 -8 L651 -8 C920 -8 1001 104 1001 258 L1001 560 L931 560 L931 258 C931 139 872 53 650 53 L445 53 C223 53 164 139 164 258 L164 258 Z M482 635 L531 635 L683 806 L591 806 L482 635 Z " />
<glyph glyph-name="ucircumflex" unicode="&#xfb;" horiz-adv-x="1096" d="M164 258 L164 560 L95 560 L95 258 C95 104 175 -8 444 -8 L651 -8 C920 -8 1001 104 1001 258 L1001 560 L931 560 L931 258 C931 139 872 53 650 53 L445 53 C223 53 164 139 164 258 L164 258 Z M594 806 L500 806 L377 635 L426 635 L547 764 L668 635 L719 635 L594 806 Z " />
<glyph glyph-name="udieresis" unicode="&#xfc;" horiz-adv-x="1096" d="M164 258 L164 560 L95 560 L95 258 C95 104 175 -8 444 -8 L651 -8 C920 -8 1001 104 1001 258 L1001 560 L931 560 L931 258 C931 139 872 53 650 53 L445 53 C223 53 164 139 164 258 L164 258 Z M636 679 L719 679 L719 761 L636 761 L636 679 Z M377 679 L460 679 L460 761 L377 761 L377 679 Z " />
<glyph glyph-name="yacute" unicode="&#xfd;" horiz-adv-x="1061" d="M496 0 L566 0 L566 170 L1058 560 L954 560 L531 223 L107 560 L3 560 L496 170 L496 0 Z M464 635 L513 635 L665 806 L573 806 L464 635 Z " />
<glyph glyph-name="thorn" unicode="&#xfe;" horiz-adv-x="1042" d="M115 0 L185 0 L185 109 L773 109 C939 109 997 183 997 280 C997 374 939 451 773 451 L185 451 L185 560 L115 560 L115 0 Z M770 390 C891 390 924 341 924 280 C924 218 890 170 770 170 L185 170 L185 390 L770 390 Z " />
<glyph glyph-name="ydieresis" unicode="&#xff;" horiz-adv-x="1061" d="M496 0 L566 0 L566 170 L1058 560 L954 560 L531 223 L107 560 L3 560 L496 170 L496 0 Z M618 679 L701 679 L701 761 L618 761 L618 679 Z M359 679 L442 679 L442 761 L359 761 L359 679 Z " />
<glyph glyph-name="Amacron" unicode="&#x100;" horiz-adv-x="1268" d="M1160 0 L1255 0 L676 700 L593 700 L13 0 L108 0 L224 141 L1043 141 L1160 0 Z M634 636 L989 206 L278 206 L634 636 Z M456 834 L812 834 L812 886 L456 886 L456 834 Z " />
<glyph glyph-name="amacron" unicode="&#x101;" horiz-adv-x="1086" d="M985 0 L1072 0 L581 560 L505 560 L14 0 L101 0 L204 117 L882 117 L985 0 Z M543 503 L834 172 L252 172 L543 503 Z M365 694 L721 694 L721 746 L365 746 L365 694 Z " />
<glyph glyph-name="Abreve" unicode="&#x102;" horiz-adv-x="1268" d="M1160 0 L1255 0 L676 700 L593 700 L13 0 L108 0 L224 141 L1043 141 L1160 0 Z M634 636 L989 206 L278 206 L634 636 Z M634 839 C550 839 519 883 514 933 L470 933 C476 862 512 787 634 787 C755 787 792 862 797 933 L754 933 C748 883 718 839 634 839 L634 839 Z " />
<glyph glyph-name="abreve" unicode="&#x103;" horiz-adv-x="1086" d="M985 0 L1072 0 L581 560 L505 560 L14 0 L101 0 L204 117 L882 117 L985 0 Z M543 503 L834 172 L252 172 L543 503 Z M543 699 C459 699 428 743 423 793 L379 793 C385 722 421 647 543 647 C664 647 701 722 706 793 L663 793 C657 743 627 699 543 699 L543 699 Z " />
<glyph glyph-name="Aogonek" unicode="&#x104;" horiz-adv-x="1268" d="M1000 -162 C1000 -217 1046 -250 1116 -250 C1154 -250 1189 -244 1231 -226 L1231 -190 C1194 -206 1170 -210 1142 -210 C1096 -210 1063 -187 1063 -146 C1063 -78 1133 -29 1209 0 L1255 0 L676 700 L593 700 L13 0 L108 0 L224 141 L1043 141 L1160 0 C1085 -24 1000 -83 1000 -162 L1000 -162 Z M634 636 L989 206 L278 206 L634 636 Z " />
<glyph glyph-name="aogonek" unicode="&#x105;" horiz-adv-x="1086" d="M825 -162 C825 -217 871 -250 941 -250 C979 -250 1014 -244 1056 -226 L1056 -190 C1019 -206 995 -210 967 -210 C921 -210 888 -187 888 -146 C888 -78 958 -29 1034 0 L1072 0 L581 560 L505 560 L14 0 L101 0 L204 117 L882 117 L985 0 C910 -24 825 -83 825 -162 L825 -162 Z M543 503 L834 172 L252 172 L543 503 Z " />
<glyph glyph-name="Cacute" unicode="&#x106;" horiz-adv-x="1184" d="M160 350 C160 505 253 630 520 630 L1101 630 L1101 700 L519 700 C202 700 78 543 78 350 C78 157 202 0 519 0 L1101 0 L1101 70 L520 70 C253 70 160 195 160 350 L160 350 Z M576 775 L625 775 L777 946 L685 946 L576 775 Z " />
<glyph glyph-name="cacute" unicode="&#x107;" horiz-adv-x="1016" d="M145 280 C145 401 214 499 438 499 L941 499 L941 560 L438 560 C168 560 71 434 71 280 C71 126 168 0 438 0 L941 0 L941 61 L438 61 C214 61 145 159 145 280 L145 280 Z M482 635 L531 635 L683 806 L591 806 L482 635 Z " />
<glyph glyph-name="Ccircumflex" unicode="&#x108;" horiz-adv-x="1184" d="M160 350 C160 505 253 630 520 630 L1101 630 L1101 700 L519 700 C202 700 78 543 78 350 C78 157 202 0 519 0 L1101 0 L1101 70 L520 70 C253 70 160 195 160 350 L160 350 Z M688 946 L594 946 L471 775 L520 775 L641 904 L762 775 L813 775 L688 946 Z " />
<glyph glyph-name="ccircumflex" unicode="&#x109;" horiz-adv-x="1016" d="M145 280 C145 401 214 499 438 499 L941 499 L941 560 L438 560 C168 560 71 434 71 280 C71 126 168 0 438 0 L941 0 L941 61 L438 61 C214 61 145 159 145 280 L145 280 Z M594 806 L500 806 L377 635 L426 635 L547 764 L668 635 L719 635 L594 806 Z " />
<glyph glyph-name="Cdotaccent" unicode="&#x10a;" horiz-adv-x="1184" d="M160 350 C160 505 253 630 520 630 L1101 630 L1101 700 L519 700 C202 700 78 543 78 350 C78 157 202 0 519 0 L1101 0 L1101 70 L520 70 C253 70 160 195 160 350 L160 350 Z M600 819 L683 819 L683 901 L600 901 L600 819 Z " />
<glyph glyph-name="cdotaccent" unicode="&#x10b;" horiz-adv-x="1016" d="M145 280 C145 401 214 499 438 499 L941 499 L941 560 L438 560 C168 560 71 434 71 280 C71 126 168 0 438 0 L941 0 L941 61 L438 61 C214 61 145 159 145 280 L145 280 Z M506 679 L589 679 L589 761 L506 761 L506 679 Z " />
<glyph glyph-name="Ccaron" unicode="&#x10c;" horiz-adv-x="1184" d="M160 350 C160 505 253 630 520 630 L1101 630 L1101 700 L519 700 C202 700 78 543 78 350 C78 157 202 0 519 0 L1101 0 L1101 70 L520 70 C253 70 160 195 160 350 L160 350 Z M813 946 L762 946 L641 817 L520 946 L471 946 L594 775 L688 775 L813 946 Z " />
<glyph glyph-name="ccaron" unicode="&#x10d;" horiz-adv-x="1016" d="M145 280 C145 401 214 499 438 499 L941 499 L941 560 L438 560 C168 560 71 434 71 280 C71 126 168 0 438 0 L941 0 L941 61 L438 61 C214 61 145 159 145 280 L145 280 Z M719 806 L668 806 L547 677 L426 806 L377 806 L500 635 L594 635 L719 806 Z " />
<glyph glyph-name="Dcaron" unicode="&#x10e;" horiz-adv-x="1255" d="M125 0 L736 0 C1053 0 1177 157 1177 350 C1177 543 1053 700 736 700 L125 700 L125 0 Z M735 630 C1002 630 1095 505 1095 350 C1095 195 1002 70 735 70 L202 70 L202 630 L735 630 Z M783 946 L732 946 L611 817 L490 946 L441 946 L564 775 L658 775 L783 946 Z " />
<glyph glyph-name="dcaron" unicode="&#x10f;" horiz-adv-x="1081" d="M702 806 L651 806 L530 677 L409 806 L360 806 L483 635 L577 635 L702 806 Z M115 0 L643 0 C913 0 1010 126 1010 280 C1010 434 913 560 643 560 L115 560 L115 0 Z M643 499 C867 499 936 401 936 280 C936 159 867 61 643 61 L185 61 L185 499 L643 499 Z " />
<glyph glyph-name="Dcroat" unicode="&#x110;" horiz-adv-x="1255" d="M-5 318 L125 318 L125 0 L736 0 C1053 0 1177 157 1177 350 C1177 543 1053 700 736 700 L125 700 L125 382 L-5 382 L-5 318 Z M735 630 C1002 630 1095 505 1095 350 C1095 195 1002 70 735 70 L202 70 L202 318 L637 318 L637 382 L202 382 L202 630 L735 630 Z " />
<glyph glyph-name="dcroat" unicode="&#x111;" horiz-adv-x="1081" d="M-5 253 L115 253 L115 0 L643 0 C913 0 1010 126 1010 280 C1010 434 913 560 643 560 L115 560 L115 307 L-5 307 L-5 253 Z M643 499 C867 499 936 401 936 280 C936 159 867 61 643 61 L185 61 L185 253 L564 253 L564 307 L185 307 L185 499 L643 499 Z " />
<glyph glyph-name="Emacron" unicode="&#x112;" horiz-adv-x="1199" d="M125 0 L1116 0 L1116 70 L202 70 L202 318 L1014 318 L1014 382 L202 382 L202 630 L1116 630 L1116 700 L125 700 L125 0 Z M431 834 L787 834 L787 886 L431 886 L431 834 Z " />
<glyph glyph-name="emacron" unicode="&#x113;" horiz-adv-x="1034" d="M115 0 L958 0 L958 61 L185 61 L185 253 L871 253 L871 307 L185 307 L185 499 L958 499 L958 560 L115 560 L115 0 Z M351 694 L707 694 L707 746 L351 746 L351 694 Z " />
<glyph glyph-name="Ebreve" unicode="&#x114;" horiz-adv-x="1199" d="M125 0 L1116 0 L1116 70 L202 70 L202 318 L1014 318 L1014 382 L202 382 L202 630 L1116 630 L1116 700 L125 700 L125 0 Z M610 839 C526 839 495 883 490 933 L446 933 C452 862 488 787 610 787 C731 787 768 862 773 933 L730 933 C724 883 694 839 610 839 L610 839 Z " />
<glyph glyph-name="ebreve" unicode="&#x115;" horiz-adv-x="1034" d="M115 0 L958 0 L958 61 L185 61 L185 253 L871 253 L871 307 L185 307 L185 499 L958 499 L958 560 L115 560 L115 0 Z M529 699 C445 699 414 743 409 793 L365 793 C371 722 407 647 529 647 C650 647 687 722 692 793 L649 793 C643 743 613 699 529 699 L529 699 Z " />
<glyph glyph-name="Edotaccent" unicode="&#x116;" horiz-adv-x="1199" d="M125 0 L1116 0 L1116 70 L202 70 L202 318 L1014 318 L1014 382 L202 382 L202 630 L1116 630 L1116 700 L125 700 L125 0 Z M568 819 L651 819 L651 901 L568 901 L568 819 Z " />
<glyph glyph-name="edotaccent" unicode="&#x117;" horiz-adv-x="1034" d="M115 0 L958 0 L958 61 L185 61 L185 253 L871 253 L871 307 L185 307 L185 499 L958 499 L958 560 L115 560 L115 0 Z M487 679 L570 679 L570 761 L487 761 L487 679 Z " />
<glyph glyph-name="Eogonek" unicode="&#x118;" horiz-adv-x="1199" d="M125 0 L1045 0 C970 -24 885 -83 885 -162 C885 -217 931 -250 1001 -250 C1039 -250 1074 -244 1116 -226 L1116 -190 C1079 -206 1055 -210 1027 -210 C981 -210 948 -187 948 -146 C948 -78 1018 -29 1094 0 L1116 0 L1116 70 L202 70 L202 318 L1014 318 L1014 382 L202 382 L202 630 L1116 630 L1116 700 L125 700 L125 0 Z " />
<glyph glyph-name="eogonek" unicode="&#x119;" horiz-adv-x="1034" d="M115 0 L887 0 C812 -24 727 -83 727 -162 C727 -217 773 -250 843 -250 C881 -250 916 -244 958 -226 L958 -190 C921 -206 897 -210 869 -210 C823 -210 790 -187 790 -146 C790 -78 860 -29 936 0 L958 0 L958 61 L185 61 L185 253 L871 253 L871 307 L185 307 L185 499 L958 499 L958 560 L115 560 L115 0 Z " />
<glyph glyph-name="Ecaron" unicode="&#x11a;" horiz-adv-x="1199" d="M125 0 L1116 0 L1116 70 L202 70 L202 318 L1014 318 L1014 382 L202 382 L202 630 L1116 630 L1116 700 L125 700 L125 0 Z M780 946 L729 946 L608 817 L487 946 L438 946 L561 775 L655 775 L780 946 Z " />
<glyph glyph-name="ecaron" unicode="&#x11b;" horiz-adv-x="1034" d="M115 0 L958 0 L958 61 L185 61 L185 253 L871 253 L871 307 L185 307 L185 499 L958 499 L958 560 L115 560 L115 0 Z M700 806 L649 806 L528 677 L407 806 L358 806 L481 635 L575 635 L700 806 Z " />
<glyph glyph-name="Gcircumflex" unicode="&#x11c;" horiz-adv-x="1256" d="M667 318 L1080 318 L1080 70 L520 70 C253 70 160 195 160 350 C160 505 253 630 520 630 L1101 630 L1101 700 L519 700 C202 700 78 543 78 350 C78 157 202 0 519 0 L1156 0 L1156 382 L667 382 L667 318 Z M698 946 L604 946 L481 775 L530 775 L651 904 L772 775 L823 775 L698 946 Z " />
<glyph glyph-name="gcircumflex" unicode="&#x11d;" horiz-adv-x="1081" d="M571 253 L919 253 L919 61 L438 61 C214 61 145 159 145 280 C145 401 214 499 438 499 L941 499 L941 560 L438 560 C168 560 71 434 71 280 C71 126 168 0 438 0 L988 0 L988 307 L571 307 L571 253 Z M598 806 L504 806 L381 635 L430 635 L551 764 L672 635 L723 635 L598 806 Z " />
<glyph glyph-name="Gbreve" unicode="&#x11e;" horiz-adv-x="1256" d="M667 318 L1080 318 L1080 70 L520 70 C253 70 160 195 160 350 C160 505 253 630 520 630 L1101 630 L1101 700 L519 700 C202 700 78 543 78 350 C78 157 202 0 519 0 L1156 0 L1156 382 L667 382 L667 318 Z M652 839 C568 839 537 883 532 933 L488 933 C494 862 530 787 652 787 C773 787 810 862 815 933 L772 933 C766 883 736 839 652 839 L652 839 Z " />
<glyph glyph-name="gbreve" unicode="&#x11f;" horiz-adv-x="1081" d="M571 253 L919 253 L919 61 L438 61 C214 61 145 159 145 280 C145 401 214 499 438 499 L941 499 L941 560 L438 560 C168 560 71 434 71 280 C71 126 168 0 438 0 L988 0 L988 307 L571 307 L571 253 Z M552 699 C468 699 437 743 432 793 L388 793 C394 722 430 647 552 647 C673 647 710 722 715 793 L672 793 C666 743 636 699 552 699 L552 699 Z " />
<glyph glyph-name="Gdotaccent" unicode="&#x120;" horiz-adv-x="1256" d="M667 318 L1080 318 L1080 70 L520 70 C253 70 160 195 160 350 C160 505 253 630 520 630 L1101 630 L1101 700 L519 700 C202 700 78 543 78 350 C78 157 202 0 519 0 L1156 0 L1156 382 L667 382 L667 318 Z M610 819 L693 819 L693 901 L610 901 L610 819 Z " />
<glyph glyph-name="gdotaccent" unicode="&#x121;" horiz-adv-x="1081" d="M571 253 L919 253 L919 61 L438 61 C214 61 145 159 145 280 C145 401 214 499 438 499 L941 499 L941 560 L438 560 C168 560 71 434 71 280 C71 126 168 0 438 0 L988 0 L988 307 L571 307 L571 253 Z M510 679 L593 679 L593 761 L510 761 L510 679 Z " />
<glyph glyph-name="uni0122" unicode="&#x122;" horiz-adv-x="1256" d="M667 318 L1080 318 L1080 70 L520 70 C253 70 160 195 160 350 C160 505 253 630 520 630 L1101 630 L1101 700 L519 700 C202 700 78 543 78 350 C78 157 202 0 519 0 L1156 0 L1156 382 L667 382 L667 318 Z M623 -202 L658 -202 L618 -302 L655 -302 L706 -197 L706 -120 L623 -120 L623 -202 Z " />
<glyph glyph-name="uni0123" unicode="&#x123;" horiz-adv-x="1081" d="M571 253 L919 253 L919 61 L438 61 C214 61 145 159 145 280 C145 401 214 499 438 499 L941 499 L941 560 L438 560 C168 560 71 434 71 280 C71 126 168 0 438 0 L988 0 L988 307 L571 307 L571 253 Z M521 -202 L556 -202 L516 -302 L553 -302 L604 -197 L604 -120 L521 -120 L521 -202 Z " />
<glyph glyph-name="Hcircumflex" unicode="&#x124;" horiz-adv-x="1305" d="M1103 0 L1180 0 L1180 700 L1103 700 L1103 385 L202 385 L202 700 L125 700 L125 0 L202 0 L202 315 L1103 315 L1103 0 Z M698 946 L604 946 L481 775 L530 775 L651 904 L772 775 L823 775 L698 946 Z " />
<glyph glyph-name="hcircumflex" unicode="&#x125;" horiz-adv-x="1128" d="M943 0 L1013 0 L1013 560 L943 560 L943 311 L185 311 L185 560 L115 560 L115 0 L185 0 L185 249 L943 249 L943 0 Z M610 806 L516 806 L393 635 L442 635 L563 764 L684 635 L735 635 L610 806 Z " />
<glyph glyph-name="Hbar" unicode="&#x126;" horiz-adv-x="1305" d="M25 520 L125 520 L125 0 L202 0 L202 315 L1103 315 L1103 0 L1180 0 L1180 520 L1280 520 L1280 564 L1180 564 L1180 700 L1103 700 L1103 564 L202 564 L202 700 L125 700 L125 564 L25 564 L25 520 Z M202 385 L202 520 L1103 520 L1103 385 L202 385 Z " />
<glyph glyph-name="hbar" unicode="&#x127;" horiz-adv-x="1128" d="M25 413 L115 413 L115 0 L185 0 L185 249 L943 249 L943 0 L1013 0 L1013 413 L1103 413 L1103 457 L1013 457 L1013 560 L943 560 L943 457 L185 457 L185 560 L115 560 L115 457 L25 457 L25 413 Z M185 311 L185 413 L943 413 L943 311 L185 311 Z " />
<glyph glyph-name="Itilde" unicode="&#x128;" horiz-adv-x="327" d="M125 0 L202 0 L202 700 L125 700 L125 0 Z M296 929 C290 867 269 857 241 857 C193 857 151 921 87 921 C36 921 1 892 -8 792 L32 792 C38 853 59 865 87 865 C134 865 176 800 241 800 C292 800 328 828 336 929 L296 929 Z " />
<glyph glyph-name="itilde" unicode="&#x129;" horiz-adv-x="300" d="M115 0 L185 0 L185 560 L115 560 L115 0 Z M282 789 C276 727 255 717 227 717 C179 717 137 781 73 781 C22 781 -13 752 -22 652 L18 652 C24 713 45 725 73 725 C120 725 162 660 227 660 C278 660 314 688 322 789 L282 789 Z " />
<glyph glyph-name="Imacron" unicode="&#x12a;" horiz-adv-x="327" d="M125 0 L202 0 L202 700 L125 700 L125 0 Z M-14 834 L342 834 L342 886 L-14 886 L-14 834 Z " />
<glyph glyph-name="imacron" unicode="&#x12b;" horiz-adv-x="300" d="M115 0 L185 0 L185 560 L115 560 L115 0 Z M-28 694 L328 694 L328 746 L-28 746 L-28 694 Z " />
<glyph glyph-name="Ibreve" unicode="&#x12c;" horiz-adv-x="327" d="M125 0 L202 0 L202 700 L125 700 L125 0 Z M164 839 C80 839 49 883 44 933 L0 933 C6 862 42 787 164 787 C285 787 322 862 327 933 L284 933 C278 883 248 839 164 839 L164 839 Z " />
<glyph glyph-name="ibreve" unicode="&#x12d;" horiz-adv-x="300" d="M115 0 L185 0 L185 560 L115 560 L115 0 Z M151 699 C67 699 36 743 31 793 L-13 793 C-7 722 29 647 151 647 C272 647 309 722 314 793 L271 793 C265 743 235 699 151 699 L151 699 Z " />
<glyph glyph-name="Iogonek" unicode="&#x12e;" horiz-adv-x="327" d="M14 -151 C14 -220 74 -250 130 -250 C168 -250 203 -244 245 -226 L245 -190 C208 -206 184 -210 156 -210 C104 -210 73 -182 73 -136 C73 -79 104 -38 162 0 L202 0 L202 700 L125 700 L125 0 C67 -31 14 -84 14 -151 L14 -151 Z " />
<glyph glyph-name="iogonek" unicode="&#x12f;" horiz-adv-x="300" d="M4 -151 C4 -220 64 -250 120 -250 C158 -250 193 -244 235 -226 L235 -190 C198 -206 174 -210 146 -210 C94 -210 63 -182 63 -136 C63 -79 94 -38 152 0 L185 0 L185 560 L115 560 L115 0 C57 -31 4 -84 4 -151 L4 -151 Z " />
<glyph glyph-name="Idotaccent" unicode="&#x130;" horiz-adv-x="327" d="M125 0 L202 0 L202 700 L125 700 L125 0 Z M122 819 L205 819 L205 901 L122 901 L122 819 Z " />
<glyph glyph-name="dotlessi" unicode="&#x131;" horiz-adv-x="300" d="M115 0 L185 0 L185 560 L115 560 L115 0 Z " />
<glyph glyph-name="IJ" unicode="&#x132;" horiz-adv-x="1271" d="M448 -5 L745 -5 C1062 -5 1166 132 1166 325 L1166 700 L1089 700 L1089 325 C1089 172 1009 65 744 65 L449 65 C247 65 182 159 182 275 L182 320 L105 320 L105 275 C105 121 194 -5 448 -5 L448 -5 Z M105 445 L182 445 L182 700 L105 700 L105 445 Z " />
<glyph glyph-name="ij" unicode="&#x133;" horiz-adv-x="1093" d="M95 356 L165 356 L165 560 L95 560 L95 356 Z M381 -4 L648 -4 C918 -4 998 106 998 260 L998 560 L928 560 L928 260 C928 141 869 57 648 57 L382 57 C213 57 165 130 165 220 L165 257 L95 257 L95 220 C95 97 165 -4 381 -4 L381 -4 Z " />
<glyph glyph-name="Jcircumflex" unicode="&#x134;" horiz-adv-x="1211" d="M388 -5 L685 -5 C1002 -5 1106 132 1106 325 L1106 700 L1029 700 L1029 325 C1029 172 949 65 684 65 L389 65 C187 65 122 159 122 275 L122 320 L45 320 L45 275 C45 121 134 -5 388 -5 L388 -5 Z M1084 946 L990 946 L867 775 L916 775 L1037 904 L1158 775 L1209 775 L1084 946 Z " />
<glyph glyph-name="jcircumflex" unicode="&#x135;" horiz-adv-x="1043" d="M331 -4 L598 -4 C868 -4 948 106 948 260 L948 560 L878 560 L878 260 C878 141 819 57 598 57 L332 57 C163 57 115 130 115 220 L115 257 L45 257 L45 220 C45 97 115 -4 331 -4 L331 -4 Z M929 806 L835 806 L712 635 L761 635 L882 764 L1003 635 L1054 635 L929 806 Z " />
<glyph glyph-name="uni0136" unicode="&#x136;" horiz-adv-x="1287" d="M1188 700 L1052 700 L202 223 L202 700 L125 700 L125 0 L202 0 L202 145 L544 337 L1144 0 L1279 0 L615 377 L1188 700 Z M600 -202 L635 -202 L595 -302 L632 -302 L683 -197 L683 -120 L600 -120 L600 -202 Z " />
<glyph glyph-name="uni0137" unicode="&#x137;" horiz-adv-x="1111" d="M1026 560 L897 560 L185 184 L185 560 L115 560 L115 0 L185 0 L185 115 L474 268 L974 0 L1098 0 L538 302 L1026 560 Z M511 -202 L546 -202 L506 -302 L543 -302 L594 -197 L594 -120 L511 -120 L511 -202 Z " />
<glyph glyph-name="kgreenlandic" unicode="&#x138;" horiz-adv-x="1235" d="M1180 460 L1145 460 L1185 560 L1148 560 L1097 455 L1097 378 L1180 378 L1180 460 Z M1026 560 L897 560 L185 184 L185 560 L115 560 L115 0 L185 0 L185 115 L474 268 L974 0 L1098 0 L538 302 L1026 560 Z " />
<glyph glyph-name="Lacute" unicode="&#x139;" horiz-adv-x="1129" d="M202 700 L125 700 L125 0 L1096 0 L1096 70 L202 70 L202 700 Z M99 775 L148 775 L300 946 L208 946 L99 775 Z " />
<glyph glyph-name="lacute" unicode="&#x13a;" horiz-adv-x="987" d="M185 560 L115 560 L115 0 L941 0 L941 61 L185 61 L185 560 Z M85 635 L134 635 L286 806 L194 806 L85 635 Z " />
<glyph glyph-name="uni013B" unicode="&#x13b;" horiz-adv-x="1129" d="M202 700 L125 700 L125 0 L1096 0 L1096 70 L202 70 L202 700 Z M563 -202 L598 -202 L558 -302 L595 -302 L646 -197 L646 -120 L563 -120 L563 -202 Z " />
<glyph glyph-name="uni013C" unicode="&#x13c;" horiz-adv-x="987" d="M185 560 L115 560 L115 0 L941 0 L941 61 L185 61 L185 560 Z M489 -202 L524 -202 L484 -302 L521 -302 L572 -197 L572 -120 L489 -120 L489 -202 Z " />
<glyph glyph-name="Lcaron" unicode="&#x13d;" horiz-adv-x="1129" d="M202 700 L125 700 L125 0 L1096 0 L1096 70 L202 70 L202 700 Z M887 610 L928 610 L888 501 L925 501 L976 615 L976 700 L887 700 L887 610 Z " />
<glyph glyph-name="lcaron" unicode="&#x13e;" horiz-adv-x="987" d="M185 560 L115 560 L115 0 L941 0 L941 61 L185 61 L185 560 Z M768 478 L803 478 L763 378 L800 378 L851 483 L851 560 L768 560 L768 478 Z " />
<glyph glyph-name="Ldot" unicode="&#x13f;" horiz-adv-x="1129" d="M202 700 L125 700 L125 0 L1096 0 L1096 70 L202 70 L202 700 Z M722 344 L805 344 L805 426 L722 426 L722 344 Z " />
<glyph glyph-name="ldot" unicode="&#x140;" horiz-adv-x="987" d="M185 560 L115 560 L115 0 L941 0 L941 61 L185 61 L185 560 Z M632 269 L715 269 L715 351 L632 351 L632 269 Z " />
<glyph glyph-name="Lslash" unicode="&#x141;" horiz-adv-x="1129" d="M591 547 L202 346 L202 700 L125 700 L125 308 L26 259 L26 180 L125 232 L125 0 L1096 0 L1096 70 L202 70 L202 272 L591 469 L591 547 Z " />
<glyph glyph-name="lslash" unicode="&#x142;" horiz-adv-x="987" d="M512 442 L185 282 L185 560 L115 560 L115 249 L31 210 L31 142 L115 183 L115 0 L941 0 L941 61 L185 61 L185 218 L512 373 L512 442 Z " />
<glyph glyph-name="Nacute" unicode="&#x143;" horiz-adv-x="1304" d="M1106 0 L1179 0 L1179 700 L1102 700 L1102 90 L198 700 L125 700 L125 0 L202 0 L202 610 L1106 0 Z M586 775 L635 775 L787 946 L695 946 L586 775 Z " />
<glyph glyph-name="nacute" unicode="&#x144;" horiz-adv-x="1127" d="M1012 0 L1012 560 L942 560 L942 79 L181 560 L115 560 L115 0 L185 0 L185 481 L946 0 L1012 0 Z M498 635 L547 635 L699 806 L607 806 L498 635 Z " />
<glyph glyph-name="uni0145" unicode="&#x145;" horiz-adv-x="1304" d="M611 -202 L646 -202 L606 -302 L643 -302 L694 -197 L694 -120 L611 -120 L611 -202 Z M1106 0 L1179 0 L1179 700 L1102 700 L1102 90 L198 700 L125 700 L125 0 L202 0 L202 610 L1106 0 Z " />
<glyph glyph-name="uni0146" unicode="&#x146;" horiz-adv-x="1127" d="M522 -202 L557 -202 L517 -302 L554 -302 L605 -197 L605 -120 L522 -120 L522 -202 Z M1012 0 L1012 560 L942 560 L942 79 L181 560 L115 560 L115 0 L185 0 L185 481 L946 0 L1012 0 Z " />
<glyph glyph-name="Ncaron" unicode="&#x147;" horiz-adv-x="1304" d="M1106 0 L1179 0 L1179 700 L1102 700 L1102 90 L198 700 L125 700 L125 0 L202 0 L202 610 L1106 0 Z M823 946 L772 946 L651 817 L530 946 L481 946 L604 775 L698 775 L823 946 Z " />
<glyph glyph-name="ncaron" unicode="&#x148;" horiz-adv-x="1127" d="M1012 0 L1012 560 L942 560 L942 79 L181 560 L115 560 L115 0 L185 0 L185 481 L946 0 L1012 0 Z M734 806 L683 806 L562 677 L441 806 L392 806 L515 635 L609 635 L734 806 Z " />
<glyph glyph-name="napostrophe" unicode="&#x149;" horiz-adv-x="1311" d="M60 618 L95 618 L55 518 L92 518 L143 623 L143 700 L60 700 L60 618 Z M1196 0 L1196 560 L1126 560 L1126 79 L365 560 L299 560 L299 0 L369 0 L369 481 L1130 0 L1196 0 Z " />
<glyph glyph-name="Eng" unicode="&#x14a;" horiz-adv-x="1304" d="M750 -230 L936 -230 C1112 -230 1179 -144 1179 -39 L1179 700 L1103 700 L1103 90 L198 700 L125 700 L125 0 L202 0 L202 610 L1103 2 L1103 -38 C1103 -104 1058 -160 934 -160 L750 -160 L750 -230 Z " />
<glyph glyph-name="eng" unicode="&#x14b;" horiz-adv-x="1127" d="M646 -184 L810 -184 C961 -184 1012 -115 1012 -30 L1012 560 L942 560 L942 79 L181 560 L115 560 L115 0 L185 0 L185 481 L942 2 L942 -29 C942 -80 912 -123 808 -123 L646 -123 L646 -184 Z " />
<glyph glyph-name="Omacron" unicode="&#x14c;" horiz-adv-x="1348" d="M816 -10 C1142 -10 1270 151 1270 350 C1270 549 1142 710 816 710 L532 710 C206 710 78 549 78 350 C78 151 206 -10 532 -10 L816 -10 Z M533 60 C257 60 160 189 160 350 C160 511 257 640 533 640 L815 640 C1091 640 1188 511 1188 350 C1188 189 1091 60 815 60 L533 60 Z M496 834 L852 834 L852 886 L496 886 L496 834 Z " />
<glyph glyph-name="omacron" unicode="&#x14d;" horiz-adv-x="1156" d="M707 -8 C984 -8 1085 121 1085 280 C1085 439 984 568 707 568 L449 568 C172 568 71 439 71 280 C71 121 172 -8 449 -8 L707 -8 Z M450 53 C218 53 145 154 145 280 C145 406 218 507 450 507 L706 507 C938 507 1011 406 1011 280 C1011 154 938 53 706 53 L450 53 Z M400 694 L756 694 L756 746 L400 746 L400 694 Z " />
<glyph glyph-name="Obreve" unicode="&#x14e;" horiz-adv-x="1348" d="M816 -10 C1142 -10 1270 151 1270 350 C1270 549 1142 710 816 710 L532 710 C206 710 78 549 78 350 C78 151 206 -10 532 -10 L816 -10 Z M533 60 C257 60 160 189 160 350 C160 511 257 640 533 640 L815 640 C1091 640 1188 511 1188 350 C1188 189 1091 60 815 60 L533 60 Z M674 839 C590 839 559 883 554 933 L510 933 C516 862 552 787 674 787 C795 787 832 862 837 933 L794 933 C788 883 758 839 674 839 L674 839 Z " />
<glyph glyph-name="obreve" unicode="&#x14f;" horiz-adv-x="1156" d="M707 -8 C984 -8 1085 121 1085 280 C1085 439 984 568 707 568 L449 568 C172 568 71 439 71 280 C71 121 172 -8 449 -8 L707 -8 Z M450 53 C218 53 145 154 145 280 C145 406 218 507 450 507 L706 507 C938 507 1011 406 1011 280 C1011 154 938 53 706 53 L450 53 Z M578 699 C494 699 463 743 458 793 L414 793 C420 722 456 647 578 647 C699 647 736 722 741 793 L698 793 C692 743 662 699 578 699 L578 699 Z " />
<glyph glyph-name="Ohungarumlaut" unicode="&#x150;" horiz-adv-x="1348" d="M816 -10 C1142 -10 1270 151 1270 350 C1270 549 1142 710 816 710 L532 710 C206 710 78 549 78 350 C78 151 206 -10 532 -10 L816 -10 Z M533 60 C257 60 160 189 160 350 C160 511 257 640 533 640 L815 640 C1091 640 1188 511 1188 350 C1188 189 1091 60 815 60 L533 60 Z M719 775 L768 775 L920 946 L828 946 L719 775 Z M498 775 L548 775 L699 946 L608 946 L498 775 Z " />
<glyph glyph-name="ohungarumlaut" unicode="&#x151;" horiz-adv-x="1156" d="M707 -8 C984 -8 1085 121 1085 280 C1085 439 984 568 707 568 L449 568 C172 568 71 439 71 280 C71 121 172 -8 449 -8 L707 -8 Z M450 53 C218 53 145 154 145 280 C145 406 218 507 450 507 L706 507 C938 507 1011 406 1011 280 C1011 154 938 53 706 53 L450 53 Z M623 635 L672 635 L824 806 L732 806 L623 635 Z M402 635 L452 635 L603 806 L512 806 L402 635 Z " />
<glyph glyph-name="OE" unicode="&#x152;" horiz-adv-x="1743" d="M78 350 C78 157 202 0 519 0 L1660 0 L1660 70 L851 70 L851 318 L1558 318 L1558 382 L851 382 L851 630 L1660 630 L1660 700 L519 700 C202 700 78 543 78 350 L78 350 Z M160 350 C160 505 253 630 520 630 L774 630 L774 70 L520 70 C253 70 160 195 160 350 L160 350 Z " />
<glyph glyph-name="oe" unicode="&#x153;" horiz-adv-x="1493" d="M71 280 C71 126 168 0 438 0 L1417 0 L1417 61 L732 61 L732 253 L1329 253 L1329 307 L732 307 L732 499 L1417 499 L1417 560 L438 560 C168 560 71 434 71 280 L71 280 Z M145 280 C145 401 214 499 438 499 L663 499 L663 61 L438 61 C214 61 145 159 145 280 L145 280 Z " />
<glyph glyph-name="Racute" unicode="&#x154;" horiz-adv-x="1277" d="M125 0 L202 0 L202 276 L650 276 L1136 0 L1269 0 L773 277 L876 277 C1069 277 1145 370 1145 489 C1145 605 1069 700 876 700 L125 700 L125 0 Z M872 630 C1016 630 1064 565 1064 487 C1064 407 1016 344 872 344 L202 344 L202 630 L872 630 Z M532 775 L581 775 L733 946 L641 946 L532 775 Z " />
<glyph glyph-name="racute" unicode="&#x155;" horiz-adv-x="1105" d="M115 0 L185 0 L185 218 L561 218 L967 0 L1088 0 L675 219 L759 219 C924 219 983 294 983 390 C983 484 924 560 759 560 L115 560 L115 0 Z M756 499 C876 499 910 449 910 388 C910 326 876 278 756 278 L185 278 L185 499 L756 499 Z M451 635 L500 635 L652 806 L560 806 L451 635 Z " />
<glyph glyph-name="uni0156" unicode="&#x156;" horiz-adv-x="1277" d="M125 0 L202 0 L202 276 L650 276 L1136 0 L1269 0 L773 277 L876 277 C1069 277 1145 370 1145 489 C1145 605 1069 700 876 700 L125 700 L125 0 Z M872 630 C1016 630 1064 565 1064 487 C1064 407 1016 344 872 344 L202 344 L202 630 L872 630 Z M595 -202 L630 -202 L590 -302 L627 -302 L678 -197 L678 -120 L595 -120 L595 -202 Z " />
<glyph glyph-name="uni0157" unicode="&#x157;" horiz-adv-x="1105" d="M115 0 L185 0 L185 218 L561 218 L967 0 L1088 0 L675 219 L759 219 C924 219 983 294 983 390 C983 484 924 560 759 560 L115 560 L115 0 Z M756 499 C876 499 910 449 910 388 C910 326 876 278 756 278 L185 278 L185 499 L756 499 Z M506 -202 L541 -202 L501 -302 L538 -302 L589 -197 L589 -120 L506 -120 L506 -202 Z " />
<glyph glyph-name="Rcaron" unicode="&#x158;" horiz-adv-x="1277" d="M125 0 L202 0 L202 276 L650 276 L1136 0 L1269 0 L773 277 L876 277 C1069 277 1145 370 1145 489 C1145 605 1069 700 876 700 L125 700 L125 0 Z M872 630 C1016 630 1064 565 1064 487 C1064 407 1016 344 872 344 L202 344 L202 630 L872 630 Z M769 946 L718 946 L597 817 L476 946 L427 946 L550 775 L644 775 L769 946 Z " />
<glyph glyph-name="rcaron" unicode="&#x159;" horiz-adv-x="1105" d="M115 0 L185 0 L185 218 L561 218 L967 0 L1088 0 L675 219 L759 219 C924 219 983 294 983 390 C983 484 924 560 759 560 L115 560 L115 0 Z M756 499 C876 499 910 449 910 388 C910 326 876 278 756 278 L185 278 L185 499 L756 499 Z M688 806 L637 806 L516 677 L395 806 L346 806 L469 635 L563 635 L688 806 Z " />
<glyph glyph-name="Sacute" unicode="&#x15a;" horiz-adv-x="1207" d="M115 0 L888 0 C1064 0 1132 85 1132 191 C1132 299 1064 382 888 382 L321 382 C195 382 155 437 155 506 C155 573 195 630 321 630 L1092 630 L1092 700 L319 700 C143 700 75 615 75 509 C75 401 143 318 319 318 L886 318 C1012 318 1052 263 1052 194 C1052 127 1012 70 886 70 L115 70 L115 0 Z M537 775 L586 775 L738 946 L646 946 L537 775 Z " />
<glyph glyph-name="sacute" unicode="&#x15b;" horiz-adv-x="1033" d="M101 0 L764 0 C914 0 966 68 966 154 C966 240 914 307 764 307 L272 307 C169 307 140 350 140 403 C140 455 169 499 272 499 L932 499 L932 560 L269 560 C119 560 67 492 67 406 C67 320 119 253 269 253 L761 253 C864 253 893 210 893 157 C893 105 864 61 761 61 L101 61 L101 0 Z M450 635 L499 635 L651 806 L559 806 L450 635 Z " />
<glyph glyph-name="Scircumflex" unicode="&#x15c;" horiz-adv-x="1207" d="M115 0 L888 0 C1064 0 1132 85 1132 191 C1132 299 1064 382 888 382 L321 382 C195 382 155 437 155 506 C155 573 195 630 321 630 L1092 630 L1092 700 L319 700 C143 700 75 615 75 509 C75 401 143 318 319 318 L886 318 C1012 318 1052 263 1052 194 C1052 127 1012 70 886 70 L115 70 L115 0 Z M649 946 L555 946 L432 775 L481 775 L602 904 L723 775 L774 775 L649 946 Z " />
<glyph glyph-name="scircumflex" unicode="&#x15d;" horiz-adv-x="1033" d="M101 0 L764 0 C914 0 966 68 966 154 C966 240 914 307 764 307 L272 307 C169 307 140 350 140 403 C140 455 169 499 272 499 L932 499 L932 560 L269 560 C119 560 67 492 67 406 C67 320 119 253 269 253 L761 253 C864 253 893 210 893 157 C893 105 864 61 761 61 L101 61 L101 0 Z M562 806 L468 806 L345 635 L394 635 L515 764 L636 635 L687 635 L562 806 Z " />
<glyph glyph-name="Scedilla" unicode="&#x15e;" horiz-adv-x="1207" d="M115 0 L585 0 L557 -104 L580 -104 C646 -104 683 -117 683 -161 C683 -237 534 -222 488 -198 L488 -234 C561 -269 739 -281 739 -163 C739 -86 674 -69 601 -69 L599 -69 L617 0 L888 0 C1064 0 1132 85 1132 191 C1132 299 1064 382 888 382 L321 382 C195 382 155 437 155 506 C155 573 195 630 321 630 L1092 630 L1092 700 L319 700 C143 700 75 615 75 509 C75 401 143 318 319 318 L886 318 C1012 318 1052 263 1052 194 C1052 127 1012 70 886 70 L115 70 L115 0 Z " />
<glyph glyph-name="scedilla" unicode="&#x15f;" horiz-adv-x="1033" d="M101 0 L498 0 L470 -104 L493 -104 C559 -104 596 -117 596 -161 C596 -237 447 -222 401 -198 L401 -234 C474 -269 652 -281 652 -163 C652 -86 587 -69 514 -69 L512 -69 L530 0 L764 0 C914 0 966 68 966 154 C966 240 914 307 764 307 L272 307 C169 307 140 350 140 403 C140 455 169 499 272 499 L932 499 L932 560 L269 560 C119 560 67 492 67 406 C67 320 119 253 269 253 L761 253 C864 253 893 210 893 157 C893 105 864 61 761 61 L101 61 L101 0 Z " />
<glyph glyph-name="Scaron" unicode="&#x160;" horiz-adv-x="1207" d="M115 0 L888 0 C1064 0 1132 85 1132 191 C1132 299 1064 382 888 382 L321 382 C195 382 155 437 155 506 C155 573 195 630 321 630 L1092 630 L1092 700 L319 700 C143 700 75 615 75 509 C75 401 143 318 319 318 L886 318 C1012 318 1052 263 1052 194 C1052 127 1012 70 886 70 L115 70 L115 0 Z M774 946 L723 946 L602 817 L481 946 L432 946 L555 775 L649 775 L774 946 Z " />
<glyph glyph-name="scaron" unicode="&#x161;" horiz-adv-x="1033" d="M101 0 L764 0 C914 0 966 68 966 154 C966 240 914 307 764 307 L272 307 C169 307 140 350 140 403 C140 455 169 499 272 499 L932 499 L932 560 L269 560 C119 560 67 492 67 406 C67 320 119 253 269 253 L761 253 C864 253 893 210 893 157 C893 105 864 61 761 61 L101 61 L101 0 Z M687 806 L636 806 L515 677 L394 806 L345 806 L468 635 L562 635 L687 806 Z " />
<glyph glyph-name="uni0162" unicode="&#x162;" horiz-adv-x="1184" d="M33 630 L554 630 L554 0 L573 0 L545 -104 L568 -104 C634 -104 671 -117 671 -161 C671 -237 522 -222 476 -198 L476 -234 C549 -269 727 -281 727 -163 C727 -86 662 -69 589 -69 L587 -69 L605 0 L630 0 L630 630 L1151 630 L1151 700 L33 700 L33 630 Z " />
<glyph glyph-name="uni0163" unicode="&#x163;" horiz-adv-x="1042" d="M46 499 L486 499 L486 0 L502 0 L474 -104 L497 -104 C563 -104 600 -117 600 -161 C600 -237 451 -222 405 -198 L405 -234 C478 -269 656 -281 656 -163 C656 -86 591 -69 518 -69 L516 -69 L534 0 L556 0 L556 499 L996 499 L996 560 L46 560 L46 499 Z " />
<glyph glyph-name="Tcaron" unicode="&#x164;" horiz-adv-x="1184" d="M33 630 L554 630 L554 0 L630 0 L630 630 L1151 630 L1151 700 L33 700 L33 630 Z M763 946 L712 946 L591 817 L470 946 L421 946 L544 775 L638 775 L763 946 Z " />
<glyph glyph-name="tcaron" unicode="&#x165;" horiz-adv-x="1042" d="M692 806 L641 806 L520 677 L399 806 L350 806 L473 635 L567 635 L692 806 Z M46 499 L486 499 L486 0 L556 0 L556 499 L996 499 L996 560 L46 560 L46 499 Z " />
<glyph glyph-name="Tbar" unicode="&#x166;" horiz-adv-x="1184" d="M33 630 L554 630 L554 381 L271 381 L271 319 L554 319 L554 0 L630 0 L630 319 L913 319 L913 381 L630 381 L630 630 L1151 630 L1151 700 L33 700 L33 630 Z " />
<glyph glyph-name="tbar" unicode="&#x167;" horiz-adv-x="1042" d="M46 499 L486 499 L486 302 L236 302 L236 248 L486 248 L486 0 L556 0 L556 248 L805 248 L805 302 L556 302 L556 499 L996 499 L996 560 L46 560 L46 499 Z " />
<glyph glyph-name="Utilde" unicode="&#x168;" horiz-adv-x="1275" d="M182 323 L182 700 L105 700 L105 323 C105 130 209 -10 526 -10 L749 -10 C1066 -10 1170 130 1170 323 L1170 700 L1093 700 L1093 323 C1093 170 1013 60 748 60 L527 60 C262 60 182 170 182 323 L182 323 Z M769 929 C763 867 742 857 714 857 C666 857 624 921 560 921 C509 921 474 892 465 792 L505 792 C511 853 532 865 560 865 C607 865 649 800 714 800 C765 800 801 828 809 929 L769 929 Z " />
<glyph glyph-name="utilde" unicode="&#x169;" horiz-adv-x="1096" d="M164 258 L164 560 L95 560 L95 258 C95 104 175 -8 444 -8 L651 -8 C920 -8 1001 104 1001 258 L1001 560 L931 560 L931 258 C931 139 872 53 650 53 L445 53 C223 53 164 139 164 258 L164 258 Z M680 789 C674 727 653 717 625 717 C577 717 535 781 471 781 C420 781 385 752 376 652 L416 652 C422 713 443 725 471 725 C518 725 560 660 625 660 C676 660 712 688 720 789 L680 789 Z " />
<glyph glyph-name="Umacron" unicode="&#x16a;" horiz-adv-x="1275" d="M182 323 L182 700 L105 700 L105 323 C105 130 209 -10 526 -10 L749 -10 C1066 -10 1170 130 1170 323 L1170 700 L1093 700 L1093 323 C1093 170 1013 60 748 60 L527 60 C262 60 182 170 182 323 L182 323 Z M459 834 L815 834 L815 886 L459 886 L459 834 Z " />
<glyph glyph-name="umacron" unicode="&#x16b;" horiz-adv-x="1096" d="M164 258 L164 560 L95 560 L95 258 C95 104 175 -8 444 -8 L651 -8 C920 -8 1001 104 1001 258 L1001 560 L931 560 L931 258 C931 139 872 53 650 53 L445 53 C223 53 164 139 164 258 L164 258 Z M370 694 L726 694 L726 746 L370 746 L370 694 Z " />
<glyph glyph-name="Ubreve" unicode="&#x16c;" horiz-adv-x="1275" d="M182 323 L182 700 L105 700 L105 323 C105 130 209 -10 526 -10 L749 -10 C1066 -10 1170 130 1170 323 L1170 700 L1093 700 L1093 323 C1093 170 1013 60 748 60 L527 60 C262 60 182 170 182 323 L182 323 Z M638 839 C554 839 523 883 518 933 L474 933 C480 862 516 787 638 787 C759 787 796 862 801 933 L758 933 C752 883 722 839 638 839 L638 839 Z " />
<glyph glyph-name="ubreve" unicode="&#x16d;" horiz-adv-x="1096" d="M164 258 L164 560 L95 560 L95 258 C95 104 175 -8 444 -8 L651 -8 C920 -8 1001 104 1001 258 L1001 560 L931 560 L931 258 C931 139 872 53 650 53 L445 53 C223 53 164 139 164 258 L164 258 Z M548 699 C464 699 433 743 428 793 L384 793 C390 722 426 647 548 647 C669 647 706 722 711 793 L668 793 C662 743 632 699 548 699 L548 699 Z " />
<glyph glyph-name="Uring" unicode="&#x16e;" horiz-adv-x="1275" d="M182 323 L182 700 L105 700 L105 323 C105 130 209 -10 526 -10 L749 -10 C1066 -10 1170 130 1170 323 L1170 700 L1093 700 L1093 323 C1093 170 1013 60 748 60 L527 60 C262 60 182 170 182 323 L182 323 Z M569 861 C569 898 600 929 637 929 C675 929 705 898 705 861 C705 823 675 793 637 793 C600 793 569 823 569 861 L569 861 Z M523 861 C523 800 571 751 637 751 C703 751 751 800 751 861 C751 922 703 970 637 970 C571 970 523 922 523 861 L523 861 Z " />
<glyph glyph-name="uring" unicode="&#x16f;" horiz-adv-x="1096" d="M164 258 L164 560 L95 560 L95 258 C95 104 175 -8 444 -8 L651 -8 C920 -8 1001 104 1001 258 L1001 560 L931 560 L931 258 C931 139 872 53 650 53 L445 53 C223 53 164 139 164 258 L164 258 Z M480 721 C480 758 511 789 548 789 C586 789 616 758 616 721 C616 683 586 653 548 653 C511 653 480 683 480 721 L480 721 Z M434 721 C434 660 482 611 548 611 C614 611 662 660 662 721 C662 782 614 830 548 830 C482 830 434 782 434 721 L434 721 Z " />
<glyph glyph-name="Uhungarumlaut" unicode="&#x170;" horiz-adv-x="1275" d="M182 323 L182 700 L105 700 L105 323 C105 130 209 -10 526 -10 L749 -10 C1066 -10 1170 130 1170 323 L1170 700 L1093 700 L1093 323 C1093 170 1013 60 748 60 L527 60 C262 60 182 170 182 323 L182 323 Z M682 775 L731 775 L883 946 L791 946 L682 775 Z M461 775 L511 775 L662 946 L571 946 L461 775 Z " />
<glyph glyph-name="uhungarumlaut" unicode="&#x171;" horiz-adv-x="1096" d="M164 258 L164 560 L95 560 L95 258 C95 104 175 -8 444 -8 L651 -8 C920 -8 1001 104 1001 258 L1001 560 L931 560 L931 258 C931 139 872 53 650 53 L445 53 C223 53 164 139 164 258 L164 258 Z M593 635 L642 635 L794 806 L702 806 L593 635 Z M372 635 L422 635 L573 806 L482 806 L372 635 Z " />
<glyph glyph-name="Uogonek" unicode="&#x172;" horiz-adv-x="1275" d="M673 -162 C673 -217 719 -250 789 -250 C827 -250 862 -244 904 -226 L904 -190 C867 -206 843 -210 815 -210 C769 -210 736 -187 736 -146 C736 -78 805 -29 881 0 C1095 34 1170 160 1170 323 L1170 700 L1093 700 L1093 323 C1093 170 1013 60 748 60 L527 60 C262 60 182 170 182 323 L182 700 L105 700 L105 323 C105 130 209 -10 526 -10 L749 -10 C770 -10 791 -9 810 -8 C742 -36 673 -91 673 -162 L673 -162 Z " />
<glyph glyph-name="uogonek" unicode="&#x173;" horiz-adv-x="1096" d="M555 -162 C555 -217 601 -250 671 -250 C709 -250 744 -244 786 -226 L786 -190 C749 -206 725 -210 697 -210 C651 -210 618 -187 618 -146 C618 -78 688 -29 762 0 C943 28 1001 128 1001 258 L1001 560 L931 560 L931 258 C931 139 872 53 650 53 L445 53 C223 53 164 139 164 258 L164 560 L95 560 L95 258 C95 104 175 -8 444 -8 L651 -8 C666 -8 681 -7 696 -6 C626 -34 555 -89 555 -162 L555 -162 Z " />
<glyph glyph-name="Wcircumflex" unicode="&#x174;" horiz-adv-x="1618" d="M809 605 L1143 0 L1201 0 L1593 700 L1501 700 L1172 96 L838 700 L780 700 L446 96 L117 700 L25 700 L417 0 L475 0 L809 605 Z M855 946 L761 946 L638 775 L687 775 L808 904 L929 775 L980 775 L855 946 Z " />
<glyph glyph-name="wcircumflex" unicode="&#x175;" horiz-adv-x="1384" d="M692 477 L973 0 L1026 0 L1359 560 L1275 560 L998 84 L719 560 L666 560 L386 84 L108 560 L25 560 L359 0 L411 0 L692 477 Z M738 806 L644 806 L521 635 L570 635 L691 764 L812 635 L863 635 L738 806 Z " />
<glyph glyph-name="Ycircumflex" unicode="&#x176;" horiz-adv-x="1246" d="M584 0 L661 0 L661 211 L1243 700 L1128 700 L623 272 L118 700 L3 700 L584 211 L584 0 Z M669 946 L575 946 L452 775 L501 775 L622 904 L743 775 L794 775 L669 946 Z " />
<glyph glyph-name="ycircumflex" unicode="&#x177;" horiz-adv-x="1061" d="M496 0 L566 0 L566 170 L1058 560 L954 560 L531 223 L107 560 L3 560 L496 170 L496 0 Z M576 806 L482 806 L359 635 L408 635 L529 764 L650 635 L701 635 L576 806 Z " />
<glyph glyph-name="Ydieresis" unicode="&#x178;" horiz-adv-x="1246" d="M584 0 L661 0 L661 211 L1243 700 L1128 700 L623 272 L118 700 L3 700 L584 211 L584 0 Z M711 819 L794 819 L794 901 L711 901 L711 819 Z M452 819 L535 819 L535 901 L452 901 L452 819 Z " />
<glyph glyph-name="Zacute" unicode="&#x179;" horiz-adv-x="1194" d="M75 0 L1129 0 L1129 70 L223 70 L1109 645 L1109 700 L85 700 L85 630 L960 630 L75 55 L75 0 Z M531 775 L580 775 L732 946 L640 946 L531 775 Z " />
<glyph glyph-name="zacute" unicode="&#x17a;" horiz-adv-x="1023" d="M68 0 L965 0 L965 61 L202 61 L948 512 L948 560 L77 560 L77 499 L813 499 L68 48 L68 0 Z M445 635 L494 635 L646 806 L554 806 L445 635 Z " />
<glyph glyph-name="Zdotaccent" unicode="&#x17b;" horiz-adv-x="1194" d="M75 0 L1129 0 L1129 70 L223 70 L1109 645 L1109 700 L85 700 L85 630 L960 630 L75 55 L75 0 Z M555 819 L638 819 L638 901 L555 901 L555 819 Z " />
<glyph glyph-name="zdotaccent" unicode="&#x17c;" horiz-adv-x="1023" d="M68 0 L965 0 L965 61 L202 61 L948 512 L948 560 L77 560 L77 499 L813 499 L68 48 L68 0 Z M470 679 L553 679 L553 761 L470 761 L470 679 Z " />
<glyph glyph-name="Zcaron" unicode="&#x17d;" horiz-adv-x="1194" d="M75 0 L1129 0 L1129 70 L223 70 L1109 645 L1109 700 L85 700 L85 630 L960 630 L75 55 L75 0 Z M768 946 L717 946 L596 817 L475 946 L426 946 L549 775 L643 775 L768 946 Z " />
<glyph glyph-name="zcaron" unicode="&#x17e;" horiz-adv-x="1023" d="M68 0 L965 0 L965 61 L202 61 L948 512 L948 560 L77 560 L77 499 L813 499 L68 48 L68 0 Z M682 806 L631 806 L510 677 L389 806 L340 806 L463 635 L557 635 L682 806 Z " />
<glyph glyph-name="uni0186" unicode="&#x186;" horiz-adv-x="1184" d="M1024 350 C1024 195 931 70 664 70 L83 70 L83 0 L665 0 C982 0 1106 157 1106 350 C1106 543 982 700 665 700 L83 700 L83 630 L664 630 C931 630 1024 505 1024 350 L1024 350 Z " />
<glyph glyph-name="uni0189" unicode="&#x189;" horiz-adv-x="1255" d="M-5 318 L125 318 L125 0 L736 0 C1053 0 1177 157 1177 350 C1177 543 1053 700 736 700 L125 700 L125 382 L-5 382 L-5 318 Z M735 630 C1002 630 1095 505 1095 350 C1095 195 1002 70 735 70 L202 70 L202 318 L637 318 L637 382 L202 382 L202 630 L735 630 Z " />
<glyph glyph-name="uni018E" unicode="&#x18e;" horiz-adv-x="1199" d="M1074 700 L83 700 L83 630 L997 630 L997 382 L185 382 L185 318 L997 318 L997 70 L83 70 L83 0 L1074 0 L1074 700 Z " />
<glyph glyph-name="florin" unicode="&#x192;" horiz-adv-x="1298" d="M506 91 C495 -17 443 -90 273 -90 L182 -90 L182 -160 L273 -160 C487 -160 567 -59 582 88 L606 316 L929 316 L929 381 L613 381 L620 449 C630 547 698 630 872 630 L1126 630 L1126 700 L875 700 C651 700 558 589 544 452 L536 381 L301 381 L301 316 L529 316 L506 91 Z " />
<glyph glyph-name="Ohorn" unicode="&#x1a0;" horiz-adv-x="1348" d="M816 -10 C1142 -10 1270 151 1270 350 C1270 479 1216 592 1088 656 L1188 656 C1284 656 1353 676 1353 775 C1353 790 1351 807 1348 826 L1275 826 C1278 809 1279 794 1279 781 C1279 713 1238 700 1171 700 L946 700 C906 706 863 710 816 710 L532 710 C206 710 78 549 78 350 C78 151 206 -10 532 -10 L816 -10 Z M533 60 C257 60 160 189 160 350 C160 511 257 640 533 640 L815 640 C1091 640 1188 511 1188 350 C1188 189 1091 60 815 60 L533 60 Z " />
<glyph glyph-name="ohorn" unicode="&#x1a1;" horiz-adv-x="1156" d="M707 -8 C984 -8 1085 121 1085 280 C1085 377 1047 464 953 516 L996 516 C1092 516 1161 536 1161 635 C1161 650 1159 667 1156 686 L1083 686 C1086 669 1087 654 1087 641 C1087 573 1046 560 979 560 L816 560 C783 565 747 568 707 568 L449 568 C172 568 71 439 71 280 C71 121 172 -8 449 -8 L707 -8 Z M450 53 C218 53 145 154 145 280 C145 406 218 507 450 507 L706 507 C938 507 1011 406 1011 280 C1011 154 938 53 706 53 L450 53 Z " />
<glyph glyph-name="uni01A7" unicode="&#x1a7;" horiz-adv-x="1207" d="M1092 70 L321 70 C195 70 155 127 155 194 C155 263 195 318 321 318 L888 318 C1064 318 1132 401 1132 509 C1132 615 1064 700 888 700 L115 700 L115 630 L886 630 C1012 630 1052 573 1052 506 C1052 437 1012 382 886 382 L319 382 C143 382 75 299 75 191 C75 85 143 0 319 0 L1092 0 L1092 70 Z " />
<glyph glyph-name="uni01A8" unicode="&#x1a8;" horiz-adv-x="1033" d="M932 61 L272 61 C169 61 140 105 140 157 C140 210 169 253 272 253 L764 253 C914 253 966 320 966 406 C966 492 914 560 764 560 L101 560 L101 499 L761 499 C864 499 893 455 893 403 C893 350 864 307 761 307 L269 307 C119 307 67 240 67 154 C67 68 119 0 269 0 L932 0 L932 61 Z " />
<glyph glyph-name="Uhorn" unicode="&#x1af;" horiz-adv-x="1424" d="M182 323 L182 700 L105 700 L105 323 C105 130 209 -10 526 -10 L749 -10 C1066 -10 1170 130 1170 323 L1170 656 L1259 656 C1355 656 1424 676 1424 775 C1424 790 1422 807 1419 826 L1346 826 C1349 809 1350 794 1350 781 C1350 713 1309 700 1242 700 L1093 700 L1093 323 C1093 170 1013 60 748 60 L527 60 C262 60 182 170 182 323 L182 323 Z " />
<glyph glyph-name="uhorn" unicode="&#x1b0;" horiz-adv-x="1255" d="M164 258 L164 560 L95 560 L95 258 C95 104 175 -8 444 -8 L651 -8 C920 -8 1001 104 1001 258 L1001 516 L1090 516 C1186 516 1255 536 1255 635 C1255 650 1253 667 1250 686 L1177 686 C1180 669 1181 654 1181 641 C1181 573 1140 560 1073 560 L931 560 L931 258 C931 139 872 53 650 53 L445 53 C223 53 164 139 164 258 L164 258 Z " />
<glyph glyph-name="uni01B1" unicode="&#x1b1;" horiz-adv-x="1356" d="M849 641 C1090 598 1179 467 1179 325 C1179 178 1091 60 838 60 L518 60 C265 60 177 178 177 325 C177 468 266 598 507 641 L507 700 L72 700 L72 630 L323 630 C166 564 102 437 102 309 C102 133 216 -10 505 -10 L851 -10 C1140 -10 1254 133 1254 309 C1254 437 1189 564 1031 630 L1284 630 L1284 700 L849 700 L849 641 Z " />
<glyph glyph-name="uni01C0" unicode="&#x1c0;" horiz-adv-x="316" d="M191 800 L125 800 L125 -100 L191 -100 L191 800 Z " />
<glyph glyph-name="uni01C1" unicode="&#x1c1;" horiz-adv-x="612" d="M191 800 L125 800 L125 -100 L191 -100 L191 800 Z M487 800 L421 800 L421 -100 L487 -100 L487 800 Z " />
<glyph glyph-name="uni01C2" unicode="&#x1c2;" horiz-adv-x="738" d="M402 163 L693 163 L693 223 L402 223 L402 477 L693 477 L693 537 L402 537 L402 800 L336 800 L336 537 L45 537 L45 477 L336 477 L336 223 L45 223 L45 163 L336 163 L336 -100 L402 -100 L402 163 Z " />
<glyph glyph-name="uni01C3" unicode="&#x1c3;" horiz-adv-x="329" d="M119 0 L209 0 L209 90 L119 90 L119 0 Z M129 158 L198 158 L203 700 L125 700 L129 158 Z " />
<glyph glyph-name="uni01C4" unicode="&#x1c4;" horiz-adv-x="2449" d="M125 0 L736 0 C1053 0 1177 157 1177 350 C1177 543 1053 700 736 700 L125 700 L125 0 Z M735 630 C1002 630 1095 505 1095 350 C1095 195 1002 70 735 70 L202 70 L202 630 L735 630 Z M1330 0 L2384 0 L2384 70 L1478 70 L2364 645 L2364 700 L1340 700 L1340 630 L2215 630 L1330 55 L1330 0 Z M2023 946 L1972 946 L1851 817 L1730 946 L1681 946 L1804 775 L1898 775 L2023 946 Z " />
<glyph glyph-name="uni01C5" unicode="&#x1c5;" horiz-adv-x="2278" d="M125 0 L736 0 C1053 0 1177 157 1177 350 C1177 543 1053 700 736 700 L125 700 L125 0 Z M735 630 C1002 630 1095 505 1095 350 C1095 195 1002 70 735 70 L202 70 L202 630 L735 630 Z M1323 0 L2220 0 L2220 61 L1457 61 L2203 512 L2203 560 L1332 560 L1332 499 L2068 499 L1323 48 L1323 0 Z M1937 806 L1886 806 L1765 677 L1644 806 L1595 806 L1718 635 L1812 635 L1937 806 Z " />
<glyph glyph-name="uni01C6" unicode="&#x1c6;" horiz-adv-x="2104" d="M115 0 L643 0 C913 0 1010 126 1010 280 C1010 434 913 560 643 560 L115 560 L115 0 Z M643 499 C867 499 936 401 936 280 C936 159 867 61 643 61 L185 61 L185 499 L643 499 Z M1149 0 L2046 0 L2046 61 L1283 61 L2029 512 L2029 560 L1158 560 L1158 499 L1894 499 L1149 48 L1149 0 Z M1763 806 L1712 806 L1591 677 L1470 806 L1421 806 L1544 635 L1638 635 L1763 806 Z " />
<glyph glyph-name="uni01C7" unicode="&#x1c7;" horiz-adv-x="2340" d="M202 700 L125 700 L125 0 L1096 0 L1096 70 L202 70 L202 700 Z M1517 -5 L1814 -5 C2131 -5 2235 132 2235 325 L2235 700 L2158 700 L2158 325 C2158 172 2078 65 1813 65 L1518 65 C1316 65 1251 159 1251 275 L1251 320 L1174 320 L1174 275 C1174 121 1263 -5 1517 -5 L1517 -5 Z " />
<glyph glyph-name="uni01C8" unicode="&#x1c8;" horiz-adv-x="2172" d="M202 700 L125 700 L125 0 L1096 0 L1096 70 L202 70 L202 700 Z M1460 -4 L1727 -4 C1997 -4 2077 106 2077 260 L2077 560 L2007 560 L2007 260 C2007 141 1948 57 1727 57 L1461 57 C1292 57 1244 130 1244 220 L1244 257 L1174 257 L1174 220 C1174 97 1244 -4 1460 -4 L1460 -4 Z " />
<glyph glyph-name="uni01C9" unicode="&#x1c9;" horiz-adv-x="2030" d="M185 560 L115 560 L115 0 L941 0 L941 61 L185 61 L185 560 Z M1318 -4 L1585 -4 C1855 -4 1935 106 1935 260 L1935 560 L1865 560 L1865 260 C1865 141 1806 57 1585 57 L1319 57 C1150 57 1102 130 1102 220 L1102 257 L1032 257 L1032 220 C1032 97 1102 -4 1318 -4 L1318 -4 Z " />
<glyph glyph-name="uni01CA" unicode="&#x1ca;" horiz-adv-x="2515" d="M1106 0 L1179 0 L1179 700 L1102 700 L1102 90 L198 700 L125 700 L125 0 L202 0 L202 610 L1106 0 Z M1692 -5 L1989 -5 C2306 -5 2410 132 2410 325 L2410 700 L2333 700 L2333 325 C2333 172 2253 65 1988 65 L1693 65 C1491 65 1426 159 1426 275 L1426 320 L1349 320 L1349 275 C1349 121 1438 -5 1692 -5 L1692 -5 Z " />
<glyph glyph-name="uni01CB" unicode="&#x1cb;" horiz-adv-x="2347" d="M1106 0 L1179 0 L1179 700 L1102 700 L1102 90 L198 700 L125 700 L125 0 L202 0 L202 610 L1106 0 Z M1635 -4 L1902 -4 C2172 -4 2252 106 2252 260 L2252 560 L2182 560 L2182 260 C2182 141 2123 57 1902 57 L1636 57 C1467 57 1419 130 1419 220 L1419 257 L1349 257 L1349 220 C1349 97 1419 -4 1635 -4 L1635 -4 Z " />
<glyph glyph-name="uni01CC" unicode="&#x1cc;" horiz-adv-x="2170" d="M1012 0 L1012 560 L942 560 L942 79 L181 560 L115 560 L115 0 L185 0 L185 481 L946 0 L1012 0 Z M1458 -4 L1725 -4 C1995 -4 2075 106 2075 260 L2075 560 L2005 560 L2005 260 C2005 141 1946 57 1725 57 L1459 57 C1290 57 1242 130 1242 220 L1242 257 L1172 257 L1172 220 C1172 97 1242 -4 1458 -4 L1458 -4 Z " />
<glyph glyph-name="uni01CD" unicode="&#x1cd;" horiz-adv-x="1268" d="M1160 0 L1255 0 L676 700 L593 700 L13 0 L108 0 L224 141 L1043 141 L1160 0 Z M634 636 L989 206 L278 206 L634 636 Z M805 946 L754 946 L633 817 L512 946 L463 946 L586 775 L680 775 L805 946 Z " />
<glyph glyph-name="uni01CE" unicode="&#x1ce;" horiz-adv-x="1086" d="M985 0 L1072 0 L581 560 L505 560 L14 0 L101 0 L204 117 L882 117 L985 0 Z M543 503 L834 172 L252 172 L543 503 Z M714 806 L663 806 L542 677 L421 806 L372 806 L495 635 L589 635 L714 806 Z " />
<glyph glyph-name="uni01CF" unicode="&#x1cf;" horiz-adv-x="327" d="M125 0 L202 0 L202 700 L125 700 L125 0 Z M335 946 L284 946 L163 817 L42 946 L-7 946 L116 775 L210 775 L335 946 Z " />
<glyph glyph-name="uni01D0" unicode="&#x1d0;" horiz-adv-x="300" d="M115 0 L185 0 L185 560 L115 560 L115 0 Z M321 806 L270 806 L149 677 L28 806 L-21 806 L102 635 L196 635 L321 806 Z " />
<glyph glyph-name="uni01D1" unicode="&#x1d1;" horiz-adv-x="1348" d="M816 -10 C1142 -10 1270 151 1270 350 C1270 549 1142 710 816 710 L532 710 C206 710 78 549 78 350 C78 151 206 -10 532 -10 L816 -10 Z M533 60 C257 60 160 189 160 350 C160 511 257 640 533 640 L815 640 C1091 640 1188 511 1188 350 C1188 189 1091 60 815 60 L533 60 Z M845 946 L794 946 L673 817 L552 946 L503 946 L626 775 L720 775 L845 946 Z " />
<glyph glyph-name="uni01D2" unicode="&#x1d2;" horiz-adv-x="1156" d="M707 -8 C984 -8 1085 121 1085 280 C1085 439 984 568 707 568 L449 568 C172 568 71 439 71 280 C71 121 172 -8 449 -8 L707 -8 Z M450 53 C218 53 145 154 145 280 C145 406 218 507 450 507 L706 507 C938 507 1011 406 1011 280 C1011 154 938 53 706 53 L450 53 Z M749 806 L698 806 L577 677 L456 806 L407 806 L530 635 L624 635 L749 806 Z " />
<glyph glyph-name="uni01D3" unicode="&#x1d3;" horiz-adv-x="1275" d="M182 323 L182 700 L105 700 L105 323 C105 130 209 -10 526 -10 L749 -10 C1066 -10 1170 130 1170 323 L1170 700 L1093 700 L1093 323 C1093 170 1013 60 748 60 L527 60 C262 60 182 170 182 323 L182 323 Z M808 946 L757 946 L636 817 L515 946 L466 946 L589 775 L683 775 L808 946 Z " />
<glyph glyph-name="uni01D4" unicode="&#x1d4;" horiz-adv-x="1096" d="M164 258 L164 560 L95 560 L95 258 C95 104 175 -8 444 -8 L651 -8 C920 -8 1001 104 1001 258 L1001 560 L931 560 L931 258 C931 139 872 53 650 53 L445 53 C223 53 164 139 164 258 L164 258 Z M719 806 L668 806 L547 677 L426 806 L377 806 L500 635 L594 635 L719 806 Z " />
<glyph glyph-name="uni01D5" unicode="&#x1d5;" horiz-adv-x="1275" d="M725 819 L808 819 L808 901 L725 901 L725 819 Z M466 819 L549 819 L549 901 L466 901 L466 819 Z M459 997 L815 997 L815 1049 L459 1049 L459 997 Z M182 323 L182 700 L105 700 L105 323 C105 130 209 -10 526 -10 L749 -10 C1066 -10 1170 130 1170 323 L1170 700 L1093 700 L1093 323 C1093 170 1013 60 748 60 L527 60 C262 60 182 170 182 323 L182 323 Z " />
<glyph glyph-name="uni01D6" unicode="&#x1d6;" horiz-adv-x="1096" d="M636 679 L719 679 L719 761 L636 761 L636 679 Z M377 679 L460 679 L460 761 L377 761 L377 679 Z M370 857 L726 857 L726 909 L370 909 L370 857 Z M164 258 L164 560 L95 560 L95 258 C95 104 175 -8 444 -8 L651 -8 C920 -8 1001 104 1001 258 L1001 560 L931 560 L931 258 C931 139 872 53 650 53 L445 53 C223 53 164 139 164 258 L164 258 Z " />
<glyph glyph-name="uni01D7" unicode="&#x1d7;" horiz-adv-x="1275" d="M182 323 L182 700 L105 700 L105 323 C105 130 209 -10 526 -10 L749 -10 C1066 -10 1170 130 1170 323 L1170 700 L1093 700 L1093 323 C1093 170 1013 60 748 60 L527 60 C262 60 182 170 182 323 L182 323 Z M725 819 L808 819 L808 901 L725 901 L725 819 Z M466 819 L549 819 L549 901 L466 901 L466 819 Z M571 956 L620 956 L772 1127 L680 1127 L571 956 Z " />
<glyph glyph-name="uni01D8" unicode="&#x1d8;" horiz-adv-x="1096" d="M164 258 L164 560 L95 560 L95 258 C95 104 175 -8 444 -8 L651 -8 C920 -8 1001 104 1001 258 L1001 560 L931 560 L931 258 C931 139 872 53 650 53 L445 53 C223 53 164 139 164 258 L164 258 Z M636 679 L719 679 L719 761 L636 761 L636 679 Z M377 679 L460 679 L460 761 L377 761 L377 679 Z M482 816 L531 816 L683 987 L591 987 L482 816 Z " />
<glyph glyph-name="uni01D9" unicode="&#x1d9;" horiz-adv-x="1275" d="M182 323 L182 700 L105 700 L105 323 C105 130 209 -10 526 -10 L749 -10 C1066 -10 1170 130 1170 323 L1170 700 L1093 700 L1093 323 C1093 170 1013 60 748 60 L527 60 C262 60 182 170 182 323 L182 323 Z M725 819 L808 819 L808 901 L725 901 L725 819 Z M466 819 L549 819 L549 901 L466 901 L466 819 Z M808 1127 L757 1127 L636 998 L515 1127 L466 1127 L589 956 L683 956 L808 1127 Z " />
<glyph glyph-name="uni01DA" unicode="&#x1da;" horiz-adv-x="1096" d="M164 258 L164 560 L95 560 L95 258 C95 104 175 -8 444 -8 L651 -8 C920 -8 1001 104 1001 258 L1001 560 L931 560 L931 258 C931 139 872 53 650 53 L445 53 C223 53 164 139 164 258 L164 258 Z M636 679 L719 679 L719 761 L636 761 L636 679 Z M377 679 L460 679 L460 761 L377 761 L377 679 Z M719 987 L668 987 L547 858 L426 987 L377 987 L500 816 L594 816 L719 987 Z " />
<glyph glyph-name="uni01DB" unicode="&#x1db;" horiz-adv-x="1275" d="M182 323 L182 700 L105 700 L105 323 C105 130 209 -10 526 -10 L749 -10 C1066 -10 1170 130 1170 323 L1170 700 L1093 700 L1093 323 C1093 170 1013 60 748 60 L527 60 C262 60 182 170 182 323 L182 323 Z M725 819 L808 819 L808 901 L725 901 L725 819 Z M466 819 L549 819 L549 901 L466 901 L466 819 Z M593 1127 L501 1127 L653 956 L702 956 L593 1127 Z " />
<glyph glyph-name="uni01DC" unicode="&#x1dc;" horiz-adv-x="1096" d="M164 258 L164 560 L95 560 L95 258 C95 104 175 -8 444 -8 L651 -8 C920 -8 1001 104 1001 258 L1001 560 L931 560 L931 258 C931 139 872 53 650 53 L445 53 C223 53 164 139 164 258 L164 258 Z M636 679 L719 679 L719 761 L636 761 L636 679 Z M377 679 L460 679 L460 761 L377 761 L377 679 Z M504 987 L412 987 L564 816 L613 816 L504 987 Z " />
<glyph glyph-name="uni01DD" unicode="&#x1dd;" horiz-adv-x="1034" d="M919 560 L76 560 L76 499 L849 499 L849 307 L163 307 L163 253 L849 253 L849 61 L76 61 L76 0 L919 0 L919 560 Z " />
<glyph glyph-name="uni01DE" unicode="&#x1de;" horiz-adv-x="1268" d="M722 819 L805 819 L805 901 L722 901 L722 819 Z M463 819 L546 819 L546 901 L463 901 L463 819 Z M456 997 L812 997 L812 1049 L456 1049 L456 997 Z M1160 0 L1255 0 L676 700 L593 700 L13 0 L108 0 L224 141 L1043 141 L1160 0 Z M634 636 L989 206 L278 206 L634 636 Z " />
<glyph glyph-name="uni01DF" unicode="&#x1df;" horiz-adv-x="1086" d="M631 679 L714 679 L714 761 L631 761 L631 679 Z M372 679 L455 679 L455 761 L372 761 L372 679 Z M365 857 L721 857 L721 909 L365 909 L365 857 Z M985 0 L1072 0 L581 560 L505 560 L14 0 L101 0 L204 117 L882 117 L985 0 Z M543 503 L834 172 L252 172 L543 503 Z " />
<glyph glyph-name="uni01E0" unicode="&#x1e0;" horiz-adv-x="1268" d="M592 819 L675 819 L675 901 L592 901 L592 819 Z M456 997 L812 997 L812 1049 L456 1049 L456 997 Z M1160 0 L1255 0 L676 700 L593 700 L13 0 L108 0 L224 141 L1043 141 L1160 0 Z M634 636 L989 206 L278 206 L634 636 Z " />
<glyph glyph-name="uni01E1" unicode="&#x1e1;" horiz-adv-x="1086" d="M501 679 L584 679 L584 761 L501 761 L501 679 Z M365 857 L721 857 L721 909 L365 909 L365 857 Z M985 0 L1072 0 L581 560 L505 560 L14 0 L101 0 L204 117 L882 117 L985 0 Z M543 503 L834 172 L252 172 L543 503 Z " />
<glyph glyph-name="uni01E2" unicode="&#x1e2;" horiz-adv-x="1703" d="M734 140 L734 0 L1620 0 L1620 70 L811 70 L811 318 L1518 318 L1518 382 L811 382 L811 630 L1620 630 L1620 700 L693 700 L13 0 L110 0 L245 140 L734 140 Z M734 644 L734 204 L307 204 L734 644 Z M795 834 L1151 834 L1151 886 L795 886 L795 834 Z " />
<glyph glyph-name="uni01E3" unicode="&#x1e3;" horiz-adv-x="1458" d="M628 110 L628 0 L1382 0 L1382 61 L697 61 L697 253 L1294 253 L1294 307 L697 307 L697 499 L1382 499 L1382 560 L590 560 L14 0 L102 0 L215 110 L628 110 Z M628 509 L628 165 L272 165 L628 509 Z M685 694 L1041 694 L1041 746 L685 746 L685 694 Z " />
<glyph glyph-name="Gcaron" unicode="&#x1e6;" horiz-adv-x="1256" d="M667 318 L1080 318 L1080 70 L520 70 C253 70 160 195 160 350 C160 505 253 630 520 630 L1101 630 L1101 700 L519 700 C202 700 78 543 78 350 C78 157 202 0 519 0 L1156 0 L1156 382 L667 382 L667 318 Z M823 946 L772 946 L651 817 L530 946 L481 946 L604 775 L698 775 L823 946 Z " />
<glyph glyph-name="gcaron" unicode="&#x1e7;" horiz-adv-x="1081" d="M571 253 L919 253 L919 61 L438 61 C214 61 145 159 145 280 C145 401 214 499 438 499 L941 499 L941 560 L438 560 C168 560 71 434 71 280 C71 126 168 0 438 0 L988 0 L988 307 L571 307 L571 253 Z M723 806 L672 806 L551 677 L430 806 L381 806 L504 635 L598 635 L723 806 Z " />
<glyph glyph-name="uni01E8" unicode="&#x1e8;" horiz-adv-x="1287" d="M1188 700 L1052 700 L202 223 L202 700 L125 700 L125 0 L202 0 L202 145 L544 337 L1144 0 L1279 0 L615 377 L1188 700 Z M774 946 L723 946 L602 817 L481 946 L432 946 L555 775 L649 775 L774 946 Z " />
<glyph glyph-name="uni01E9" unicode="&#x1e9;" horiz-adv-x="1111" d="M1026 560 L897 560 L185 184 L185 560 L115 560 L115 0 L185 0 L185 115 L474 268 L974 0 L1098 0 L538 302 L1026 560 Z M691 806 L640 806 L519 677 L398 806 L349 806 L472 635 L566 635 L691 806 Z " />
<glyph glyph-name="uni01EA" unicode="&#x1ea;" horiz-adv-x="1348" d="M738 -162 C738 -217 784 -250 854 -250 C892 -250 927 -244 969 -226 L969 -190 C932 -206 908 -210 880 -210 C834 -210 801 -187 801 -146 C801 -78 871 -29 946 0 C1176 38 1270 180 1270 350 C1270 549 1142 710 816 710 L532 710 C206 710 78 549 78 350 C78 151 206 -10 532 -10 L816 -10 C836 -10 856 -9 875 -8 C806 -36 738 -91 738 -162 L738 -162 Z M533 60 C257 60 160 189 160 350 C160 511 257 640 533 640 L815 640 C1091 640 1188 511 1188 350 C1188 189 1091 60 815 60 L533 60 Z " />
<glyph glyph-name="uni01EB" unicode="&#x1eb;" horiz-adv-x="1156" d="M608 -162 C608 -217 654 -250 724 -250 C762 -250 797 -244 839 -226 L839 -190 C802 -206 778 -210 750 -210 C704 -210 671 -187 671 -146 C671 -78 741 -29 816 0 C1011 30 1085 144 1085 280 C1085 439 984 568 707 568 L449 568 C172 568 71 439 71 280 C71 121 172 -8 449 -8 L707 -8 C721 -8 735 -7 748 -7 C679 -34 608 -90 608 -162 L608 -162 Z M450 53 C218 53 145 154 145 280 C145 406 218 507 450 507 L706 507 C938 507 1011 406 1011 280 C1011 154 938 53 706 53 L450 53 Z " />
<glyph glyph-name="uni01EC" unicode="&#x1ec;" horiz-adv-x="1348" d="M738 -162 C738 -217 784 -250 854 -250 C892 -250 927 -244 969 -226 L969 -190 C932 -206 908 -210 880 -210 C834 -210 801 -187 801 -146 C801 -78 871 -29 946 0 C1176 38 1270 180 1270 350 C1270 549 1142 710 816 710 L532 710 C206 710 78 549 78 350 C78 151 206 -10 532 -10 L816 -10 C836 -10 856 -9 875 -8 C806 -36 738 -91 738 -162 L738 -162 Z M533 60 C257 60 160 189 160 350 C160 511 257 640 533 640 L815 640 C1091 640 1188 511 1188 350 C1188 189 1091 60 815 60 L533 60 Z M496 834 L852 834 L852 886 L496 886 L496 834 Z " />
<glyph glyph-name="uni01ED" unicode="&#x1ed;" horiz-adv-x="1156" d="M608 -162 C608 -217 654 -250 724 -250 C762 -250 797 -244 839 -226 L839 -190 C802 -206 778 -210 750 -210 C704 -210 671 -187 671 -146 C671 -78 741 -29 816 0 C1011 30 1085 144 1085 280 C1085 439 984 568 707 568 L449 568 C172 568 71 439 71 280 C71 121 172 -8 449 -8 L707 -8 C721 -8 735 -7 748 -7 C679 -34 608 -90 608 -162 L608 -162 Z M450 53 C218 53 145 154 145 280 C145 406 218 507 450 507 L706 507 C938 507 1011 406 1011 280 C1011 154 938 53 706 53 L450 53 Z M400 694 L756 694 L756 746 L400 746 L400 694 Z " />
<glyph glyph-name="uni01F0" unicode="&#x1f0;" horiz-adv-x="1043" d="M331 -4 L598 -4 C868 -4 948 106 948 260 L948 560 L878 560 L878 260 C878 141 819 57 598 57 L332 57 C163 57 115 130 115 220 L115 257 L45 257 L45 220 C45 97 115 -4 331 -4 L331 -4 Z M1054 806 L1003 806 L882 677 L761 806 L712 806 L835 635 L929 635 L1054 806 Z " />
<glyph glyph-name="uni01F1" unicode="&#x1f1;" horiz-adv-x="2449" d="M125 0 L736 0 C1053 0 1177 157 1177 350 C1177 543 1053 700 736 700 L125 700 L125 0 Z M735 630 C1002 630 1095 505 1095 350 C1095 195 1002 70 735 70 L202 70 L202 630 L735 630 Z M1330 0 L2384 0 L2384 70 L1478 70 L2364 645 L2364 700 L1340 700 L1340 630 L2215 630 L1330 55 L1330 0 Z " />
<glyph glyph-name="uni01F2" unicode="&#x1f2;" horiz-adv-x="2278" d="M125 0 L736 0 C1053 0 1177 157 1177 350 C1177 543 1053 700 736 700 L125 700 L125 0 Z M735 630 C1002 630 1095 505 1095 350 C1095 195 1002 70 735 70 L202 70 L202 630 L735 630 Z M1323 0 L2220 0 L2220 61 L1457 61 L2203 512 L2203 560 L1332 560 L1332 499 L2068 499 L1323 48 L1323 0 Z " />
<glyph glyph-name="uni01F3" unicode="&#x1f3;" horiz-adv-x="2104" d="M115 0 L643 0 C913 0 1010 126 1010 280 C1010 434 913 560 643 560 L115 560 L115 0 Z M643 499 C867 499 936 401 936 280 C936 159 867 61 643 61 L185 61 L185 499 L643 499 Z M1149 0 L2046 0 L2046 61 L1283 61 L2029 512 L2029 560 L1158 560 L1158 499 L1894 499 L1149 48 L1149 0 Z " />
<glyph glyph-name="uni01F4" unicode="&#x1f4;" horiz-adv-x="1256" d="M667 318 L1080 318 L1080 70 L520 70 C253 70 160 195 160 350 C160 505 253 630 520 630 L1101 630 L1101 700 L519 700 C202 700 78 543 78 350 C78 157 202 0 519 0 L1156 0 L1156 382 L667 382 L667 318 Z M586 775 L635 775 L787 946 L695 946 L586 775 Z " />
<glyph glyph-name="uni01F5" unicode="&#x1f5;" horiz-adv-x="1081" d="M571 253 L919 253 L919 61 L438 61 C214 61 145 159 145 280 C145 401 214 499 438 499 L941 499 L941 560 L438 560 C168 560 71 434 71 280 C71 126 168 0 438 0 L988 0 L988 307 L571 307 L571 253 Z M486 635 L535 635 L687 806 L595 806 L486 635 Z " />
<glyph glyph-name="uni01F8" unicode="&#x1f8;" horiz-adv-x="1304" d="M1106 0 L1179 0 L1179 700 L1102 700 L1102 90 L198 700 L125 700 L125 0 L202 0 L202 610 L1106 0 Z M608 946 L516 946 L668 775 L717 775 L608 946 Z " />
<glyph glyph-name="uni01F9" unicode="&#x1f9;" horiz-adv-x="1127" d="M1012 0 L1012 560 L942 560 L942 79 L181 560 L115 560 L115 0 L185 0 L185 481 L946 0 L1012 0 Z M519 806 L427 806 L579 635 L628 635 L519 806 Z " />
<glyph glyph-name="Aringacute" unicode="&#x1fa;" horiz-adv-x="1268" d="M1160 0 L1255 0 L676 700 L593 700 L13 0 L108 0 L224 141 L1043 141 L1160 0 Z M634 636 L989 206 L278 206 L634 636 Z M566 861 C566 898 597 929 634 929 C672 929 702 898 702 861 C702 823 672 793 634 793 C597 793 566 823 566 861 L566 861 Z M520 861 C520 800 568 751 634 751 C700 751 748 800 748 861 C748 922 700 970 634 970 C568 970 520 922 520 861 L520 861 Z M568 998 L617 998 L769 1169 L677 1169 L568 998 Z " />
<glyph glyph-name="aringacute" unicode="&#x1fb;" horiz-adv-x="1086" d="M985 0 L1072 0 L581 560 L505 560 L14 0 L101 0 L204 117 L882 117 L985 0 Z M543 503 L834 172 L252 172 L543 503 Z M475 721 C475 758 506 789 543 789 C581 789 611 758 611 721 C611 683 581 653 543 653 C506 653 475 683 475 721 L475 721 Z M429 721 C429 660 477 611 543 611 C609 611 657 660 657 721 C657 782 609 830 543 830 C477 830 429 782 429 721 L429 721 Z M477 858 L526 858 L678 1029 L586 1029 L477 858 Z " />
<glyph glyph-name="AEacute" unicode="&#x1fc;" horiz-adv-x="1703" d="M734 140 L734 0 L1620 0 L1620 70 L811 70 L811 318 L1518 318 L1518 382 L811 382 L811 630 L1620 630 L1620 700 L693 700 L13 0 L110 0 L245 140 L734 140 Z M734 644 L734 204 L307 204 L734 644 Z M907 775 L956 775 L1108 946 L1016 946 L907 775 Z " />
<glyph glyph-name="aeacute" unicode="&#x1fd;" horiz-adv-x="1458" d="M628 110 L628 0 L1382 0 L1382 61 L697 61 L697 253 L1294 253 L1294 307 L697 307 L697 499 L1382 499 L1382 560 L590 560 L14 0 L102 0 L215 110 L628 110 Z M628 509 L628 165 L272 165 L628 509 Z M797 635 L846 635 L998 806 L906 806 L797 635 Z " />
<glyph glyph-name="Oslashacute" unicode="&#x1fe;" horiz-adv-x="1348" d="M608 775 L657 775 L809 946 L717 946 L608 775 Z M816 -10 C1142 -10 1270 151 1270 350 C1270 508 1189 642 992 690 L1080 800 L990 800 L913 704 C883 708 850 710 816 710 L532 710 C206 710 78 549 78 350 C78 192 158 58 355 9 L267 -100 L357 -100 L433 -4 C464 -8 497 -10 532 -10 L816 -10 Z M533 60 C517 60 501 60 486 61 L942 629 C1121 594 1188 483 1188 350 C1188 189 1091 60 815 60 L533 60 Z M160 350 C160 511 257 640 533 640 L815 640 C831 640 846 639 860 638 L404 71 C226 106 160 217 160 350 L160 350 Z " />
<glyph glyph-name="oslashacute" unicode="&#x1ff;" horiz-adv-x="1156" d="M512 635 L561 635 L713 806 L621 806 L512 635 Z M707 -8 C984 -8 1085 121 1085 280 C1085 407 1020 515 851 553 L925 640 L843 640 L779 564 C756 566 732 568 707 568 L449 568 C172 568 71 439 71 280 C71 152 136 44 305 6 L232 -80 L314 -80 L378 -4 C400 -6 424 -8 449 -8 L707 -8 Z M145 280 C145 406 218 507 450 507 L730 507 L351 60 C196 86 145 174 145 280 L145 280 Z M427 53 L805 499 C959 474 1011 386 1011 280 C1011 154 938 53 706 53 L427 53 Z " />
<glyph glyph-name="uni0200" unicode="&#x200;" horiz-adv-x="1268" d="M480 946 L388 946 L540 775 L589 775 L480 946 Z M700 946 L609 946 L760 775 L810 775 L700 946 Z M1160 0 L1255 0 L676 700 L593 700 L13 0 L108 0 L224 141 L1043 141 L1160 0 Z M634 636 L989 206 L278 206 L634 636 Z " />
<glyph glyph-name="uni0201" unicode="&#x201;" horiz-adv-x="1086" d="M389 806 L297 806 L449 635 L498 635 L389 806 Z M609 806 L518 806 L669 635 L719 635 L609 806 Z M985 0 L1072 0 L581 560 L505 560 L14 0 L101 0 L204 117 L882 117 L985 0 Z M543 503 L834 172 L252 172 L543 503 Z " />
<glyph glyph-name="uni0202" unicode="&#x202;" horiz-adv-x="1268" d="M634 882 C718 882 748 838 754 788 L797 788 C792 859 755 934 634 934 C512 934 476 859 470 788 L514 788 C519 838 550 882 634 882 L634 882 Z M1160 0 L1255 0 L676 700 L593 700 L13 0 L108 0 L224 141 L1043 141 L1160 0 Z M634 636 L989 206 L278 206 L634 636 Z " />
<glyph glyph-name="uni0203" unicode="&#x203;" horiz-adv-x="1086" d="M543 742 C627 742 657 698 663 648 L706 648 C701 719 664 794 543 794 C421 794 385 719 379 648 L423 648 C428 698 459 742 543 742 L543 742 Z M985 0 L1072 0 L581 560 L505 560 L14 0 L101 0 L204 117 L882 117 L985 0 Z M543 503 L834 172 L252 172 L543 503 Z " />
<glyph glyph-name="uni0204" unicode="&#x204;" horiz-adv-x="1199" d="M455 946 L363 946 L515 775 L564 775 L455 946 Z M675 946 L584 946 L735 775 L785 775 L675 946 Z M125 0 L1116 0 L1116 70 L202 70 L202 318 L1014 318 L1014 382 L202 382 L202 630 L1116 630 L1116 700 L125 700 L125 0 Z " />
<glyph glyph-name="uni0205" unicode="&#x205;" horiz-adv-x="1034" d="M375 806 L283 806 L435 635 L484 635 L375 806 Z M595 806 L504 806 L655 635 L705 635 L595 806 Z M115 0 L958 0 L958 61 L185 61 L185 253 L871 253 L871 307 L185 307 L185 499 L958 499 L958 560 L115 560 L115 0 Z " />
<glyph glyph-name="uni0206" unicode="&#x206;" horiz-adv-x="1199" d="M610 882 C694 882 724 838 730 788 L773 788 C768 859 731 934 610 934 C488 934 452 859 446 788 L490 788 C495 838 526 882 610 882 L610 882 Z M125 0 L1116 0 L1116 70 L202 70 L202 318 L1014 318 L1014 382 L202 382 L202 630 L1116 630 L1116 700 L125 700 L125 0 Z " />
<glyph glyph-name="uni0207" unicode="&#x207;" horiz-adv-x="1034" d="M530 742 C614 742 644 698 650 648 L693 648 C688 719 651 794 530 794 C408 794 372 719 366 648 L410 648 C415 698 446 742 530 742 L530 742 Z M115 0 L958 0 L958 61 L185 61 L185 253 L871 253 L871 307 L185 307 L185 499 L958 499 L958 560 L115 560 L115 0 Z " />
<glyph glyph-name="uni0208" unicode="&#x208;" horiz-adv-x="327" d="M10 946 L-82 946 L70 775 L119 775 L10 946 Z M230 946 L139 946 L290 775 L340 775 L230 946 Z M125 0 L202 0 L202 700 L125 700 L125 0 Z " />
<glyph glyph-name="uni0209" unicode="&#x209;" horiz-adv-x="300" d="M-4 806 L-96 806 L56 635 L105 635 L-4 806 Z M216 806 L125 806 L276 635 L326 635 L216 806 Z M115 0 L185 0 L185 560 L115 560 L115 0 Z " />
<glyph glyph-name="uni020A" unicode="&#x20a;" horiz-adv-x="327" d="M164 882 C248 882 278 838 284 788 L327 788 C322 859 285 934 164 934 C42 934 6 859 0 788 L44 788 C49 838 80 882 164 882 L164 882 Z M125 0 L202 0 L202 700 L125 700 L125 0 Z " />
<glyph glyph-name="uni020B" unicode="&#x20b;" horiz-adv-x="300" d="M151 742 C235 742 265 698 271 648 L314 648 C309 719 272 794 151 794 C29 794 -7 719 -13 648 L31 648 C36 698 67 742 151 742 L151 742 Z M115 0 L185 0 L185 560 L115 560 L115 0 Z " />
<glyph glyph-name="uni020C" unicode="&#x20c;" horiz-adv-x="1348" d="M520 946 L428 946 L580 775 L629 775 L520 946 Z M740 946 L649 946 L800 775 L850 775 L740 946 Z M816 -10 C1142 -10 1270 151 1270 350 C1270 549 1142 710 816 710 L532 710 C206 710 78 549 78 350 C78 151 206 -10 532 -10 L816 -10 Z M533 60 C257 60 160 189 160 350 C160 511 257 640 533 640 L815 640 C1091 640 1188 511 1188 350 C1188 189 1091 60 815 60 L533 60 Z " />
<glyph glyph-name="uni020D" unicode="&#x20d;" horiz-adv-x="1156" d="M424 806 L332 806 L484 635 L533 635 L424 806 Z M644 806 L553 806 L704 635 L754 635 L644 806 Z M707 -8 C984 -8 1085 121 1085 280 C1085 439 984 568 707 568 L449 568 C172 568 71 439 71 280 C71 121 172 -8 449 -8 L707 -8 Z M450 53 C218 53 145 154 145 280 C145 406 218 507 450 507 L706 507 C938 507 1011 406 1011 280 C1011 154 938 53 706 53 L450 53 Z " />
<glyph glyph-name="uni020E" unicode="&#x20e;" horiz-adv-x="1348" d="M674 882 C758 882 788 838 794 788 L837 788 C832 859 795 934 674 934 C552 934 516 859 510 788 L554 788 C559 838 590 882 674 882 L674 882 Z M816 -10 C1142 -10 1270 151 1270 350 C1270 549 1142 710 816 710 L532 710 C206 710 78 549 78 350 C78 151 206 -10 532 -10 L816 -10 Z M533 60 C257 60 160 189 160 350 C160 511 257 640 533 640 L815 640 C1091 640 1188 511 1188 350 C1188 189 1091 60 815 60 L533 60 Z " />
<glyph glyph-name="uni020F" unicode="&#x20f;" horiz-adv-x="1156" d="M578 742 C662 742 692 698 698 648 L741 648 C736 719 699 794 578 794 C456 794 420 719 414 648 L458 648 C463 698 494 742 578 742 L578 742 Z M707 -8 C984 -8 1085 121 1085 280 C1085 439 984 568 707 568 L449 568 C172 568 71 439 71 280 C71 121 172 -8 449 -8 L707 -8 Z M450 53 C218 53 145 154 145 280 C145 406 218 507 450 507 L706 507 C938 507 1011 406 1011 280 C1011 154 938 53 706 53 L450 53 Z " />
<glyph glyph-name="uni0210" unicode="&#x210;" horiz-adv-x="1277" d="M444 946 L352 946 L504 775 L553 775 L444 946 Z M664 946 L573 946 L724 775 L774 775 L664 946 Z M125 0 L202 0 L202 276 L650 276 L1136 0 L1269 0 L773 277 L876 277 C1069 277 1145 370 1145 489 C1145 605 1069 700 876 700 L125 700 L125 0 Z M872 630 C1016 630 1064 565 1064 487 C1064 407 1016 344 872 344 L202 344 L202 630 L872 630 Z " />
<glyph glyph-name="uni0211" unicode="&#x211;" horiz-adv-x="1105" d="M363 806 L271 806 L423 635 L472 635 L363 806 Z M583 806 L492 806 L643 635 L693 635 L583 806 Z M115 0 L185 0 L185 218 L561 218 L967 0 L1088 0 L675 219 L759 219 C924 219 983 294 983 390 C983 484 924 560 759 560 L115 560 L115 0 Z M756 499 C876 499 910 449 910 388 C910 326 876 278 756 278 L185 278 L185 499 L756 499 Z " />
<glyph glyph-name="uni0212" unicode="&#x212;" horiz-adv-x="1277" d="M599 882 C683 882 713 838 719 788 L762 788 C757 859 720 934 599 934 C477 934 441 859 435 788 L479 788 C484 838 515 882 599 882 L599 882 Z M125 0 L202 0 L202 276 L650 276 L1136 0 L1269 0 L773 277 L876 277 C1069 277 1145 370 1145 489 C1145 605 1069 700 876 700 L125 700 L125 0 Z M872 630 C1016 630 1064 565 1064 487 C1064 407 1016 344 872 344 L202 344 L202 630 L872 630 Z " />
<glyph glyph-name="uni0213" unicode="&#x213;" horiz-adv-x="1105" d="M518 742 C602 742 632 698 638 648 L681 648 C676 719 639 794 518 794 C396 794 360 719 354 648 L398 648 C403 698 434 742 518 742 L518 742 Z M115 0 L185 0 L185 218 L561 218 L967 0 L1088 0 L675 219 L759 219 C924 219 983 294 983 390 C983 484 924 560 759 560 L115 560 L115 0 Z M756 499 C876 499 910 449 910 388 C910 326 876 278 756 278 L185 278 L185 499 L756 499 Z " />
<glyph glyph-name="uni0214" unicode="&#x214;" horiz-adv-x="1275" d="M483 946 L391 946 L543 775 L592 775 L483 946 Z M703 946 L612 946 L763 775 L813 775 L703 946 Z M182 323 L182 700 L105 700 L105 323 C105 130 209 -10 526 -10 L749 -10 C1066 -10 1170 130 1170 323 L1170 700 L1093 700 L1093 323 C1093 170 1013 60 748 60 L527 60 C262 60 182 170 182 323 L182 323 Z " />
<glyph glyph-name="uni0215" unicode="&#x215;" horiz-adv-x="1096" d="M394 806 L302 806 L454 635 L503 635 L394 806 Z M614 806 L523 806 L674 635 L724 635 L614 806 Z M164 258 L164 560 L95 560 L95 258 C95 104 175 -8 444 -8 L651 -8 C920 -8 1001 104 1001 258 L1001 560 L931 560 L931 258 C931 139 872 53 650 53 L445 53 C223 53 164 139 164 258 L164 258 Z " />
<glyph glyph-name="uni0216" unicode="&#x216;" horiz-adv-x="1275" d="M638 882 C722 882 752 838 758 788 L801 788 C796 859 759 934 638 934 C516 934 480 859 474 788 L518 788 C523 838 554 882 638 882 L638 882 Z M182 323 L182 700 L105 700 L105 323 C105 130 209 -10 526 -10 L749 -10 C1066 -10 1170 130 1170 323 L1170 700 L1093 700 L1093 323 C1093 170 1013 60 748 60 L527 60 C262 60 182 170 182 323 L182 323 Z " />
<glyph glyph-name="uni0217" unicode="&#x217;" horiz-adv-x="1096" d="M548 742 C632 742 662 698 668 648 L711 648 C706 719 669 794 548 794 C426 794 390 719 384 648 L428 648 C433 698 464 742 548 742 L548 742 Z M164 258 L164 560 L95 560 L95 258 C95 104 175 -8 444 -8 L651 -8 C920 -8 1001 104 1001 258 L1001 560 L931 560 L931 258 C931 139 872 53 650 53 L445 53 C223 53 164 139 164 258 L164 258 Z " />
<glyph glyph-name="uni0218" unicode="&#x218;" horiz-adv-x="1207" d="M115 0 L888 0 C1064 0 1132 85 1132 191 C1132 299 1064 382 888 382 L321 382 C195 382 155 437 155 506 C155 573 195 630 321 630 L1092 630 L1092 700 L319 700 C143 700 75 615 75 509 C75 401 143 318 319 318 L886 318 C1012 318 1052 263 1052 194 C1052 127 1012 70 886 70 L115 70 L115 0 Z M562 -202 L597 -202 L557 -302 L594 -302 L645 -197 L645 -120 L562 -120 L562 -202 Z " />
<glyph glyph-name="uni0219" unicode="&#x219;" horiz-adv-x="1033" d="M101 0 L764 0 C914 0 966 68 966 154 C966 240 914 307 764 307 L272 307 C169 307 140 350 140 403 C140 455 169 499 272 499 L932 499 L932 560 L269 560 C119 560 67 492 67 406 C67 320 119 253 269 253 L761 253 C864 253 893 210 893 157 C893 105 864 61 761 61 L101 61 L101 0 Z M475 -202 L510 -202 L470 -302 L507 -302 L558 -197 L558 -120 L475 -120 L475 -202 Z " />
<glyph glyph-name="uni021A" unicode="&#x21a;" horiz-adv-x="1184" d="M551 -202 L586 -202 L546 -302 L583 -302 L634 -197 L634 -120 L551 -120 L551 -202 Z M33 630 L554 630 L554 0 L630 0 L630 630 L1151 630 L1151 700 L33 700 L33 630 Z " />
<glyph glyph-name="uni021B" unicode="&#x21b;" horiz-adv-x="1042" d="M480 -202 L515 -202 L475 -302 L512 -302 L563 -197 L563 -120 L480 -120 L480 -202 Z M46 499 L486 499 L486 0 L556 0 L556 499 L996 499 L996 560 L46 560 L46 499 Z " />
<glyph glyph-name="uni021E" unicode="&#x21e;" horiz-adv-x="1305" d="M1103 0 L1180 0 L1180 700 L1103 700 L1103 385 L202 385 L202 700 L125 700 L125 0 L202 0 L202 315 L1103 315 L1103 0 Z M823 946 L772 946 L651 817 L530 946 L481 946 L604 775 L698 775 L823 946 Z " />
<glyph glyph-name="uni021F" unicode="&#x21f;" horiz-adv-x="1128" d="M943 0 L1013 0 L1013 560 L943 560 L943 311 L185 311 L185 560 L115 560 L115 0 L185 0 L185 249 L943 249 L943 0 Z M735 806 L684 806 L563 677 L442 806 L393 806 L516 635 L610 635 L735 806 Z " />
<glyph glyph-name="uni0226" unicode="&#x226;" horiz-adv-x="1268" d="M1160 0 L1255 0 L676 700 L593 700 L13 0 L108 0 L224 141 L1043 141 L1160 0 Z M634 636 L989 206 L278 206 L634 636 Z M592 819 L675 819 L675 901 L592 901 L592 819 Z " />
<glyph glyph-name="uni0227" unicode="&#x227;" horiz-adv-x="1086" d="M985 0 L1072 0 L581 560 L505 560 L14 0 L101 0 L204 117 L882 117 L985 0 Z M543 503 L834 172 L252 172 L543 503 Z M501 679 L584 679 L584 761 L501 761 L501 679 Z " />
<glyph glyph-name="uni0228" unicode="&#x228;" horiz-adv-x="1199" d="M125 0 L591 0 L563 -104 L586 -104 C652 -104 689 -117 689 -161 C689 -237 540 -222 494 -198 L494 -234 C567 -269 745 -281 745 -163 C745 -86 680 -69 607 -69 L605 -69 L623 0 L1116 0 L1116 70 L202 70 L202 318 L1014 318 L1014 382 L202 382 L202 630 L1116 630 L1116 700 L125 700 L125 0 Z " />
<glyph glyph-name="uni0229" unicode="&#x229;" horiz-adv-x="1034" d="M115 0 L511 0 L483 -104 L506 -104 C572 -104 609 -117 609 -161 C609 -237 460 -222 414 -198 L414 -234 C487 -269 665 -281 665 -163 C665 -86 600 -69 527 -69 L525 -69 L543 0 L958 0 L958 61 L185 61 L185 253 L871 253 L871 307 L185 307 L185 499 L958 499 L958 560 L115 560 L115 0 Z " />
<glyph glyph-name="uni022A" unicode="&#x22a;" horiz-adv-x="1348" d="M762 819 L845 819 L845 901 L762 901 L762 819 Z M503 819 L586 819 L586 901 L503 901 L503 819 Z M496 997 L852 997 L852 1049 L496 1049 L496 997 Z M816 -10 C1142 -10 1270 151 1270 350 C1270 549 1142 710 816 710 L532 710 C206 710 78 549 78 350 C78 151 206 -10 532 -10 L816 -10 Z M533 60 C257 60 160 189 160 350 C160 511 257 640 533 640 L815 640 C1091 640 1188 511 1188 350 C1188 189 1091 60 815 60 L533 60 Z " />
<glyph glyph-name="uni022B" unicode="&#x22b;" horiz-adv-x="1156" d="M666 679 L749 679 L749 761 L666 761 L666 679 Z M407 679 L490 679 L490 761 L407 761 L407 679 Z M400 857 L756 857 L756 909 L400 909 L400 857 Z M707 -8 C984 -8 1085 121 1085 280 C1085 439 984 568 707 568 L449 568 C172 568 71 439 71 280 C71 121 172 -8 449 -8 L707 -8 Z M450 53 C218 53 145 154 145 280 C145 406 218 507 450 507 L706 507 C938 507 1011 406 1011 280 C1011 154 938 53 706 53 L450 53 Z " />
<glyph glyph-name="uni022C" unicode="&#x22c;" horiz-adv-x="1348" d="M806 929 C800 867 779 857 751 857 C703 857 661 921 597 921 C546 921 511 892 502 792 L542 792 C548 853 569 865 597 865 C644 865 686 800 751 800 C802 800 838 828 846 929 L806 929 Z M496 1004 L852 1004 L852 1056 L496 1056 L496 1004 Z M816 -10 C1142 -10 1270 151 1270 350 C1270 549 1142 710 816 710 L532 710 C206 710 78 549 78 350 C78 151 206 -10 532 -10 L816 -10 Z M533 60 C257 60 160 189 160 350 C160 511 257 640 533 640 L815 640 C1091 640 1188 511 1188 350 C1188 189 1091 60 815 60 L533 60 Z " />
<glyph glyph-name="uni022D" unicode="&#x22d;" horiz-adv-x="1156" d="M710 789 C704 727 683 717 655 717 C607 717 565 781 501 781 C450 781 415 752 406 652 L446 652 C452 713 473 725 501 725 C548 725 590 660 655 660 C706 660 742 688 750 789 L710 789 Z M400 864 L756 864 L756 916 L400 916 L400 864 Z M707 -8 C984 -8 1085 121 1085 280 C1085 439 984 568 707 568 L449 568 C172 568 71 439 71 280 C71 121 172 -8 449 -8 L707 -8 Z M450 53 C218 53 145 154 145 280 C145 406 218 507 450 507 L706 507 C938 507 1011 406 1011 280 C1011 154 938 53 706 53 L450 53 Z " />
<glyph glyph-name="uni022E" unicode="&#x22e;" horiz-adv-x="1348" d="M816 -10 C1142 -10 1270 151 1270 350 C1270 549 1142 710 816 710 L532 710 C206 710 78 549 78 350 C78 151 206 -10 532 -10 L816 -10 Z M533 60 C257 60 160 189 160 350 C160 511 257 640 533 640 L815 640 C1091 640 1188 511 1188 350 C1188 189 1091 60 815 60 L533 60 Z M632 819 L715 819 L715 901 L632 901 L632 819 Z " />
<glyph glyph-name="uni022F" unicode="&#x22f;" horiz-adv-x="1156" d="M707 -8 C984 -8 1085 121 1085 280 C1085 439 984 568 707 568 L449 568 C172 568 71 439 71 280 C71 121 172 -8 449 -8 L707 -8 Z M450 53 C218 53 145 154 145 280 C145 406 218 507 450 507 L706 507 C938 507 1011 406 1011 280 C1011 154 938 53 706 53 L450 53 Z M536 679 L619 679 L619 761 L536 761 L536 679 Z " />
<glyph glyph-name="uni0230" unicode="&#x230;" horiz-adv-x="1348" d="M632 819 L715 819 L715 901 L632 901 L632 819 Z M496 997 L852 997 L852 1049 L496 1049 L496 997 Z M816 -10 C1142 -10 1270 151 1270 350 C1270 549 1142 710 816 710 L532 710 C206 710 78 549 78 350 C78 151 206 -10 532 -10 L816 -10 Z M533 60 C257 60 160 189 160 350 C160 511 257 640 533 640 L815 640 C1091 640 1188 511 1188 350 C1188 189 1091 60 815 60 L533 60 Z " />
<glyph glyph-name="uni0231" unicode="&#x231;" horiz-adv-x="1156" d="M536 679 L619 679 L619 761 L536 761 L536 679 Z M400 857 L756 857 L756 909 L400 909 L400 857 Z M707 -8 C984 -8 1085 121 1085 280 C1085 439 984 568 707 568 L449 568 C172 568 71 439 71 280 C71 121 172 -8 449 -8 L707 -8 Z M450 53 C218 53 145 154 145 280 C145 406 218 507 450 507 L706 507 C938 507 1011 406 1011 280 C1011 154 938 53 706 53 L450 53 Z " />
<glyph glyph-name="uni0232" unicode="&#x232;" horiz-adv-x="1246" d="M584 0 L661 0 L661 211 L1243 700 L1128 700 L623 272 L118 700 L3 700 L584 211 L584 0 Z M445 834 L801 834 L801 886 L445 886 L445 834 Z " />
<glyph glyph-name="uni0233" unicode="&#x233;" horiz-adv-x="1061" d="M496 0 L566 0 L566 170 L1058 560 L954 560 L531 223 L107 560 L3 560 L496 170 L496 0 Z M352 694 L708 694 L708 746 L352 746 L352 694 Z " />
<glyph glyph-name="uni0237" unicode="&#x237;" horiz-adv-x="1043" d="M331 -4 L598 -4 C868 -4 948 106 948 260 L948 560 L878 560 L878 260 C878 141 819 57 598 57 L332 57 C163 57 115 130 115 220 L115 257 L45 257 L45 220 C45 97 115 -4 331 -4 L331 -4 Z " />
<glyph glyph-name="uni0256" unicode="&#x256;" horiz-adv-x="1081" d="M-5 253 L115 253 L115 0 L643 0 C913 0 1010 126 1010 280 C1010 434 913 560 643 560 L115 560 L115 307 L-5 307 L-5 253 Z M643 499 C867 499 936 401 936 280 C936 159 867 61 643 61 L185 61 L185 253 L564 253 L564 307 L185 307 L185 499 L643 499 Z " />
<glyph glyph-name="uni02BB" unicode="&#x2bb;" horiz-adv-x="289" d="M189 591 L148 591 L188 700 L151 700 L100 586 L100 501 L189 501 L189 591 Z " />
<glyph glyph-name="uni02BC" unicode="&#x2bc;" horiz-adv-x="289" d="M100 610 L141 610 L101 501 L138 501 L189 615 L189 700 L100 700 L100 610 Z " />
<glyph glyph-name="uni02BD" unicode="&#x2bd;" horiz-adv-x="289" d="M189 700 L100 700 L100 615 L151 501 L188 501 L148 610 L189 610 L189 700 Z " />
<glyph glyph-name="circumflex" unicode="&#x2c6;" horiz-adv-x="500" d="M296 806 L202 806 L79 635 L128 635 L249 764 L370 635 L421 635 L296 806 Z " />
<glyph glyph-name="caron" unicode="&#x2c7;" horiz-adv-x="500" d="M421 806 L370 806 L249 677 L128 806 L79 806 L202 635 L296 635 L421 806 Z " />
<glyph glyph-name="uni02C9" unicode="&#x2c9;" horiz-adv-x="500" d="M72 694 L428 694 L428 746 L72 746 L72 694 Z " />
<glyph glyph-name="uni02CA" unicode="&#x2ca;" horiz-adv-x="500" d="M184 635 L233 635 L385 806 L293 806 L184 635 Z " />
<glyph glyph-name="uni02CB" unicode="&#x2cb;" horiz-adv-x="500" d="M206 806 L114 806 L266 635 L315 635 L206 806 Z " />
<glyph glyph-name="uni02CD" unicode="&#x2cd;" horiz-adv-x="500" d="M72 -187 L428 -187 L428 -135 L72 -135 L72 -187 Z " />
<glyph glyph-name="uni02CE" unicode="&#x2ce;" horiz-adv-x="500" d="M206 -75 L114 -75 L266 -246 L315 -246 L206 -75 Z " />
<glyph glyph-name="uni02CF" unicode="&#x2cf;" horiz-adv-x="500" d="M184 -246 L233 -246 L385 -75 L293 -75 L184 -246 Z " />
<glyph glyph-name="breve" unicode="&#x2d8;" horiz-adv-x="500" d="M250 699 C166 699 135 743 130 793 L86 793 C92 722 128 647 250 647 C371 647 408 722 413 793 L370 793 C364 743 334 699 250 699 L250 699 Z " />
<glyph glyph-name="dotaccent" unicode="&#x2d9;" horiz-adv-x="500" d="M208 679 L291 679 L291 761 L208 761 L208 679 Z " />
<glyph glyph-name="ring" unicode="&#x2da;" horiz-adv-x="500" d="M182 721 C182 758 213 789 250 789 C288 789 318 758 318 721 C318 683 288 653 250 653 C213 653 182 683 182 721 L182 721 Z M136 721 C136 660 184 611 250 611 C316 611 364 660 364 721 C364 782 316 830 250 830 C184 830 136 782 136 721 L136 721 Z " />
<glyph glyph-name="ogonek" unicode="&#x2db;" horiz-adv-x="500" d="M170 -162 C170 -217 216 -250 286 -250 C324 -250 359 -244 401 -226 L401 -190 C364 -206 340 -210 312 -210 C266 -210 233 -187 233 -146 C233 -78 303 -29 379 0 L330 0 C255 -24 170 -83 170 -162 L170 -162 Z " />
<glyph glyph-name="tilde" unicode="&#x2dc;" horiz-adv-x="500" d="M382 789 C376 727 355 717 327 717 C279 717 237 781 173 781 C122 781 87 752 78 652 L118 652 C124 713 145 725 173 725 C220 725 262 660 327 660 C378 660 414 688 422 789 L382 789 Z " />
<glyph glyph-name="hungarumlaut" unicode="&#x2dd;" horiz-adv-x="500" d="M295 635 L344 635 L496 806 L404 806 L295 635 Z M74 635 L124 635 L275 806 L184 806 L74 635 Z " />
<glyph glyph-name="uni02EC" unicode="&#x2ec;" horiz-adv-x="500" d="M421 -75 L370 -75 L249 -204 L128 -75 L79 -75 L202 -246 L296 -246 L421 -75 Z " />
<glyph glyph-name="uni02EE" unicode="&#x2ee;" horiz-adv-x="501" d="M100 610 L141 610 L101 501 L138 501 L189 615 L189 700 L100 700 L100 610 Z M312 610 L353 610 L313 501 L350 501 L401 615 L401 700 L312 700 L312 610 Z " />
<glyph glyph-name="gravecomb" unicode="&#x300;" d="M-631 806 L-723 806 L-571 635 L-522 635 L-631 806 Z " />
<glyph glyph-name="acutecomb" unicode="&#x301;" d="M-653 635 L-604 635 L-452 806 L-544 806 L-653 635 Z " />
<glyph glyph-name="uni0302" unicode="&#x302;" d="M-542 806 L-636 806 L-759 635 L-710 635 L-589 764 L-468 635 L-417 635 L-542 806 Z " />
<glyph glyph-name="tildecomb" unicode="&#x303;" d="M-456 789 C-462 727 -483 717 -511 717 C-559 717 -601 781 -665 781 C-716 781 -751 752 -760 652 L-720 652 C-714 713 -693 725 -665 725 C-618 725 -576 660 -511 660 C-460 660 -424 688 -416 789 L-456 789 Z " />
<glyph glyph-name="uni0304" unicode="&#x304;" d="M-766 694 L-410 694 L-410 746 L-766 746 L-766 694 Z " />
<glyph glyph-name="uni0306" unicode="&#x306;" d="M-587 699 C-671 699 -702 743 -707 793 L-751 793 C-745 722 -709 647 -587 647 C-466 647 -429 722 -424 793 L-467 793 C-473 743 -503 699 -587 699 L-587 699 Z " />
<glyph glyph-name="uni0307" unicode="&#x307;" d="M-629 679 L-546 679 L-546 761 L-629 761 L-629 679 Z " />
<glyph glyph-name="uni0308" unicode="&#x308;" d="M-500 679 L-417 679 L-417 761 L-500 761 L-500 679 Z M-759 679 L-676 679 L-676 761 L-759 761 L-759 679 Z " />
<glyph glyph-name="hookabovecomb" unicode="&#x309;" d="M-633 635 L-592 635 L-592 672 L-586 672 C-516 672 -441 685 -441 762 C-441 835 -509 852 -579 852 C-627 852 -676 843 -705 830 L-705 792 C-680 803 -640 811 -600 811 C-549 811 -500 803 -500 758 C-500 713 -539 703 -609 703 L-633 703 L-633 635 Z " />
<glyph glyph-name="uni030A" unicode="&#x30a;" d="M-656 721 C-656 758 -625 789 -588 789 C-550 789 -520 758 -520 721 C-520 683 -550 653 -588 653 C-625 653 -656 683 -656 721 L-656 721 Z M-702 721 C-702 660 -654 611 -588 611 C-522 611 -474 660 -474 721 C-474 782 -522 830 -588 830 C-654 830 -702 782 -702 721 L-702 721 Z " />
<glyph glyph-name="uni030B" unicode="&#x30b;" d="M-543 635 L-494 635 L-342 806 L-434 806 L-543 635 Z M-764 635 L-714 635 L-563 806 L-654 806 L-764 635 Z " />
<glyph glyph-name="uni030C" unicode="&#x30c;" d="M-417 806 L-468 806 L-589 677 L-710 806 L-759 806 L-636 635 L-542 635 L-417 806 Z " />
<glyph glyph-name="uni030F" unicode="&#x30f;" d="M-742 806 L-834 806 L-682 635 L-633 635 L-742 806 Z M-522 806 L-613 806 L-462 635 L-412 635 L-522 806 Z " />
<glyph glyph-name="uni0311" unicode="&#x311;" d="M-587 742 C-503 742 -473 698 -467 648 L-424 648 C-429 719 -466 794 -587 794 C-709 794 -745 719 -751 648 L-707 648 C-702 698 -671 742 -587 742 L-587 742 Z " />
<glyph glyph-name="uni0312" unicode="&#x312;" d="M-543 591 L-584 591 L-544 700 L-581 700 L-632 586 L-632 501 L-543 501 L-543 591 Z " />
<glyph glyph-name="uni0313" unicode="&#x313;" d="M-632 610 L-591 610 L-631 501 L-594 501 L-543 615 L-543 700 L-632 700 L-632 610 Z " />
<glyph glyph-name="uni0314" unicode="&#x314;" d="M-543 700 L-632 700 L-632 615 L-581 501 L-544 501 L-584 610 L-543 610 L-543 700 Z " />
<glyph glyph-name="uni0316" unicode="&#x316;" d="M-631 -75 L-723 -75 L-571 -246 L-522 -246 L-631 -75 Z " />
<glyph glyph-name="uni0317" unicode="&#x317;" d="M-653 -246 L-604 -246 L-452 -75 L-544 -75 L-653 -246 Z " />
<glyph glyph-name="uni031B" unicode="&#x31b;" d="M-127 516 L-16 516 C80 516 149 536 149 635 C149 650 147 667 144 686 L71 686 C74 669 75 654 75 641 C75 573 34 560 -33 560 L-127 560 L-127 516 Z " />
<glyph glyph-name="uni031C" unicode="&#x31c;" d="M-546 -51 C-612 -51 -660 -99 -660 -160 C-660 -221 -612 -270 -546 -270 L-546 -228 C-583 -228 -614 -198 -614 -160 C-614 -123 -583 -92 -546 -92 L-546 -51 Z " />
<glyph glyph-name="dotbelowcomb" unicode="&#x323;" d="M-629 -202 L-546 -202 L-546 -120 L-629 -120 L-629 -202 Z " />
<glyph glyph-name="uni0324" unicode="&#x324;" d="M-500 -202 L-417 -202 L-417 -120 L-500 -120 L-500 -202 Z M-759 -202 L-676 -202 L-676 -120 L-759 -120 L-759 -202 Z " />
<glyph glyph-name="uni0325" unicode="&#x325;" d="M-656 -160 C-656 -123 -625 -92 -588 -92 C-550 -92 -520 -123 -520 -160 C-520 -198 -550 -228 -588 -228 C-625 -228 -656 -198 -656 -160 L-656 -160 Z M-702 -160 C-702 -221 -654 -270 -588 -270 C-522 -270 -474 -221 -474 -160 C-474 -99 -522 -51 -588 -51 C-654 -51 -702 -99 -702 -160 L-702 -160 Z " />
<glyph glyph-name="uni0326" unicode="&#x326;" d="M-628 -202 L-593 -202 L-633 -302 L-596 -302 L-545 -197 L-545 -120 L-628 -120 L-628 -202 Z " />
<glyph glyph-name="uni0327" unicode="&#x327;" d="M-634 -104 L-611 -104 C-545 -104 -508 -117 -508 -161 C-508 -237 -657 -222 -703 -198 L-703 -234 C-630 -269 -452 -281 -452 -163 C-452 -86 -517 -69 -590 -69 L-592 -69 L-574 0 L-606 0 L-634 -104 Z " />
<glyph glyph-name="uni0328" unicode="&#x328;" d="M-668 -162 C-668 -217 -622 -250 -552 -250 C-514 -250 -479 -244 -437 -226 L-437 -190 C-474 -206 -498 -210 -526 -210 C-572 -210 -605 -187 -605 -146 C-605 -78 -535 -29 -459 0 L-508 0 C-583 -24 -668 -83 -668 -162 L-668 -162 Z " />
<glyph glyph-name="uni032C" unicode="&#x32c;" d="M-417 -75 L-468 -75 L-589 -204 L-710 -75 L-759 -75 L-636 -246 L-542 -246 L-417 -75 Z " />
<glyph glyph-name="uni032D" unicode="&#x32d;" d="M-542 -75 L-636 -75 L-759 -246 L-710 -246 L-589 -117 L-468 -246 L-417 -246 L-542 -75 Z " />
<glyph glyph-name="uni032E" unicode="&#x32e;" d="M-587 -182 C-671 -182 -702 -138 -707 -88 L-751 -88 C-745 -159 -709 -234 -587 -234 C-466 -234 -429 -159 -424 -88 L-467 -88 C-473 -138 -503 -182 -587 -182 L-587 -182 Z " />
<glyph glyph-name="uni032F" unicode="&#x32f;" d="M-587 -139 C-503 -139 -473 -183 -467 -233 L-424 -233 C-429 -162 -466 -87 -587 -87 C-709 -87 -745 -162 -751 -233 L-707 -233 C-702 -183 -671 -139 -587 -139 L-587 -139 Z " />
<glyph glyph-name="uni0330" unicode="&#x330;" d="M-456 -92 C-462 -154 -483 -164 -511 -164 C-559 -164 -601 -100 -665 -100 C-716 -100 -751 -129 -760 -229 L-720 -229 C-714 -168 -693 -156 -665 -156 C-618 -156 -576 -221 -511 -221 C-460 -221 -424 -193 -416 -92 L-456 -92 Z " />
<glyph glyph-name="uni0331" unicode="&#x331;" d="M-766 -187 L-410 -187 L-410 -135 L-766 -135 L-766 -187 Z " />
<glyph glyph-name="uni0338" unicode="&#x338;" d="M-873 -75 L-804 -75 L-302 776 L-371 776 L-873 -75 Z " />
<glyph glyph-name="uni0339" unicode="&#x339;" d="M-630 -92 C-593 -92 -562 -123 -562 -160 C-562 -198 -593 -228 -630 -228 L-630 -270 C-564 -270 -516 -221 -516 -160 C-516 -99 -564 -51 -630 -51 L-630 -92 Z " />
<glyph glyph-name="uni0340" unicode="&#x340;" d="M-631 806 L-723 806 L-571 635 L-522 635 L-631 806 Z " />
<glyph glyph-name="uni0341" unicode="&#x341;" d="M-653 635 L-604 635 L-452 806 L-544 806 L-653 635 Z " />
<glyph glyph-name="uni0343" unicode="&#x343;" d="M-632 610 L-591 610 L-631 501 L-594 501 L-543 615 L-543 700 L-632 700 L-632 610 Z " />
<glyph glyph-name="uni0344" unicode="&#x344;" d="M-462 680 L-381 680 L-381 761 L-462 761 L-462 680 Z M-794 680 L-713 680 L-713 761 L-794 761 L-794 680 Z M-605 635 L-572 635 L-547 835 L-628 835 L-605 635 Z " />
<glyph glyph-name="uni034F" unicode="&#x34f;" d="" />
<glyph glyph-name="uni0351" unicode="&#x351;" d="M-546 830 C-612 830 -660 782 -660 721 C-660 660 -612 611 -546 611 L-546 653 C-583 653 -614 683 -614 721 C-614 758 -583 789 -546 789 L-546 830 Z " />
<glyph glyph-name="uni0357" unicode="&#x357;" d="M-630 789 C-593 789 -562 758 -562 721 C-562 683 -593 653 -630 653 L-630 611 C-564 611 -516 660 -516 721 C-516 782 -564 830 -630 830 L-630 789 Z " />
<glyph glyph-name="uni0374" unicode="&#x374;" horiz-adv-x="288" d="M111 400 L161 400 L237 700 L147 700 L111 400 Z " />
<glyph glyph-name="uni0375" unicode="&#x375;" horiz-adv-x="288" d="M111 -100 L161 -100 L237 200 L147 200 L111 -100 Z " />
<glyph glyph-name="uni037E" unicode="&#x37e;" horiz-adv-x="289" d="M100 0 L141 0 L101 -109 L138 -109 L189 5 L189 90 L100 90 L100 0 Z M100 470 L189 470 L189 560 L100 560 L100 470 Z " />
<glyph glyph-name="tonos" unicode="&#x384;" horiz-adv-x="500" d="M230 635 L269 635 L294 835 L206 835 L230 635 Z " />
<glyph glyph-name="dieresistonos" unicode="&#x385;" horiz-adv-x="500" d="M375 680 L456 680 L456 761 L375 761 L375 680 Z M43 680 L124 680 L124 761 L43 761 L43 680 Z M232 635 L265 635 L290 835 L209 835 L232 635 Z " />
<glyph glyph-name="Alphatonos" unicode="&#x386;" horiz-adv-x="1268" d="M1160 0 L1255 0 L676 700 L593 700 L13 0 L108 0 L224 141 L1043 141 L1160 0 Z M634 636 L989 206 L278 206 L634 636 Z M165 500 L204 500 L229 700 L141 700 L165 500 Z " />
<glyph glyph-name="anoteleia" unicode="&#x387;" horiz-adv-x="283" d="M100 239 L183 239 L183 321 L100 321 L100 239 Z " />
<glyph glyph-name="Epsilontonos" unicode="&#x388;" horiz-adv-x="1353" d="M57 500 L96 500 L121 700 L33 700 L57 500 Z M279 0 L1270 0 L1270 70 L356 70 L356 318 L1168 318 L1168 382 L356 382 L356 630 L1270 630 L1270 700 L279 700 L279 0 Z " />
<glyph glyph-name="Etatonos" unicode="&#x389;" horiz-adv-x="1459" d="M57 500 L96 500 L121 700 L33 700 L57 500 Z M1257 0 L1334 0 L1334 700 L1257 700 L1257 385 L356 385 L356 700 L279 700 L279 0 L356 0 L356 315 L1257 315 L1257 0 Z " />
<glyph glyph-name="Iotatonos" unicode="&#x38a;" horiz-adv-x="481" d="M57 500 L96 500 L121 700 L33 700 L57 500 Z M279 0 L356 0 L356 700 L279 700 L279 0 Z " />
<glyph glyph-name="Omicrontonos" unicode="&#x38c;" horiz-adv-x="1472" d="M57 500 L96 500 L121 700 L33 700 L57 500 Z M940 -10 C1266 -10 1394 151 1394 350 C1394 549 1266 710 940 710 L656 710 C330 710 202 549 202 350 C202 151 330 -10 656 -10 L940 -10 Z M657 60 C381 60 284 189 284 350 C284 511 381 640 657 640 L939 640 C1215 640 1312 511 1312 350 C1312 189 1215 60 939 60 L657 60 Z " />
<glyph glyph-name="Upsilontonos" unicode="&#x38e;" horiz-adv-x="1415" d="M57 500 L96 500 L121 700 L33 700 L57 500 Z M753 0 L830 0 L830 211 L1412 700 L1297 700 L792 272 L287 700 L172 700 L753 211 L753 0 Z " />
<glyph glyph-name="Omegatonos" unicode="&#x38f;" horiz-adv-x="1466" d="M57 500 L96 500 L121 700 L33 700 L57 500 Z M959 0 L1394 0 L1394 70 L1141 70 C1299 136 1364 262 1364 391 C1364 567 1250 710 961 710 L615 710 C326 710 212 567 212 391 C212 262 276 136 433 70 L182 70 L182 0 L617 0 L617 59 C376 102 287 232 287 375 C287 522 375 640 628 640 L948 640 C1201 640 1289 522 1289 375 C1289 233 1200 102 959 59 L959 0 Z " />
<glyph glyph-name="iotadieresistonos" unicode="&#x390;" horiz-adv-x="300" d="M276 680 L357 680 L357 761 L276 761 L276 680 Z M-56 680 L25 680 L25 761 L-56 761 L-56 680 Z M133 635 L166 635 L191 835 L110 835 L133 635 Z M115 0 L185 0 L185 560 L115 560 L115 0 Z " />
<glyph glyph-name="Alpha" unicode="&#x391;" horiz-adv-x="1268" d="M1160 0 L1255 0 L676 700 L593 700 L13 0 L108 0 L224 141 L1043 141 L1160 0 Z M634 636 L989 206 L278 206 L634 636 Z " />
<glyph glyph-name="Beta" unicode="&#x392;" horiz-adv-x="1259" d="M125 0 L945 0 C1112 0 1176 81 1176 182 C1176 268 1129 340 1012 359 C1092 385 1126 448 1126 521 C1126 621 1063 700 898 700 L125 700 L125 0 Z M927 318 C1053 318 1094 262 1094 194 C1094 125 1053 70 927 70 L202 70 L202 318 L927 318 Z M1047 506 C1047 439 1007 382 886 382 L202 382 L202 630 L879 630 C1003 630 1047 574 1047 506 L1047 506 Z " />
<glyph glyph-name="Gamma" unicode="&#x393;" horiz-adv-x="1129" d="M125 0 L202 0 L202 630 L1096 630 L1096 700 L125 700 L125 0 Z " />
<glyph glyph-name="Delta" unicode="&#x394;" horiz-adv-x="1268" d="M676 700 L593 700 L13 0 L1255 0 L676 700 Z M634 638 L1109 70 L160 70 L634 638 Z " />
<glyph glyph-name="Epsilon" unicode="&#x395;" horiz-adv-x="1199" d="M125 0 L1116 0 L1116 70 L202 70 L202 318 L1014 318 L1014 382 L202 382 L202 630 L1116 630 L1116 700 L125 700 L125 0 Z " />
<glyph glyph-name="Zeta" unicode="&#x396;" horiz-adv-x="1194" d="M75 0 L1129 0 L1129 70 L223 70 L1109 645 L1109 700 L85 700 L85 630 L960 630 L75 55 L75 0 Z " />
<glyph glyph-name="Eta" unicode="&#x397;" horiz-adv-x="1305" d="M1103 0 L1180 0 L1180 700 L1103 700 L1103 385 L202 385 L202 700 L125 700 L125 0 L202 0 L202 315 L1103 315 L1103 0 Z " />
<glyph glyph-name="Theta" unicode="&#x398;" horiz-adv-x="1348" d="M344 318 L1004 318 L1004 382 L344 382 L344 318 Z M816 -10 C1142 -10 1270 151 1270 350 C1270 549 1142 710 816 710 L532 710 C206 710 78 549 78 350 C78 151 206 -10 532 -10 L816 -10 Z M533 60 C257 60 160 189 160 350 C160 511 257 640 533 640 L815 640 C1091 640 1188 511 1188 350 C1188 189 1091 60 815 60 L533 60 Z " />
<glyph glyph-name="Iota" unicode="&#x399;" horiz-adv-x="327" d="M125 0 L202 0 L202 700 L125 700 L125 0 Z " />
<glyph glyph-name="Kappa" unicode="&#x39a;" horiz-adv-x="1287" d="M1188 700 L1052 700 L202 223 L202 700 L125 700 L125 0 L202 0 L202 145 L544 337 L1144 0 L1279 0 L615 377 L1188 700 Z " />
<glyph glyph-name="Lambda" unicode="&#x39b;" horiz-adv-x="1268" d="M593 700 L13 0 L111 0 L634 636 L1158 0 L1255 0 L676 700 L593 700 Z " />
<glyph glyph-name="Mu" unicode="&#x39c;" horiz-adv-x="1447" d="M1249 700 L723 136 L198 700 L125 700 L125 0 L202 0 L202 593 L723 31 L1245 593 L1245 0 L1322 0 L1322 700 L1249 700 Z " />
<glyph glyph-name="Nu" unicode="&#x39d;" horiz-adv-x="1304" d="M1106 0 L1179 0 L1179 700 L1102 700 L1102 90 L198 700 L125 700 L125 0 L202 0 L202 610 L1106 0 Z " />
<glyph glyph-name="Xi" unicode="&#x39e;" horiz-adv-x="1207" d="M83 630 L1124 630 L1124 700 L83 700 L83 630 Z M1124 70 L83 70 L83 0 L1124 0 L1124 70 Z M175 318 L1032 318 L1032 382 L175 382 L175 318 Z " />
<glyph glyph-name="Omicron" unicode="&#x39f;" horiz-adv-x="1348" d="M816 -10 C1142 -10 1270 151 1270 350 C1270 549 1142 710 816 710 L532 710 C206 710 78 549 78 350 C78 151 206 -10 532 -10 L816 -10 Z M533 60 C257 60 160 189 160 350 C160 511 257 640 533 640 L815 640 C1091 640 1188 511 1188 350 C1188 189 1091 60 815 60 L533 60 Z " />
<glyph glyph-name="Pi" unicode="&#x3a0;" horiz-adv-x="1305" d="M1103 0 L1180 0 L1180 700 L125 700 L125 0 L202 0 L202 630 L1103 630 L1103 0 Z " />
<glyph glyph-name="Rho" unicode="&#x3a1;" horiz-adv-x="1196" d="M125 0 L202 0 L202 275 L892 275 C1086 275 1161 368 1161 488 C1161 604 1086 700 892 700 L125 700 L125 0 Z M890 630 C1034 630 1081 566 1081 488 C1081 407 1034 345 890 345 L202 345 L202 630 L890 630 Z " />
<glyph glyph-name="Sigma" unicode="&#x3a3;" horiz-adv-x="1177" d="M83 641 L585 350 L83 59 L83 0 L1094 0 L1094 70 L237 70 L718 350 L237 630 L1094 630 L1094 700 L83 700 L83 641 Z " />
<glyph glyph-name="Tau" unicode="&#x3a4;" horiz-adv-x="1184" d="M33 630 L554 630 L554 0 L630 0 L630 630 L1151 630 L1151 700 L33 700 L33 630 Z " />
<glyph glyph-name="Upsilon" unicode="&#x3a5;" horiz-adv-x="1246" d="M584 0 L661 0 L661 211 L1243 700 L1128 700 L623 272 L118 700 L3 700 L584 211 L584 0 Z " />
<glyph glyph-name="Phi" unicode="&#x3a6;" horiz-adv-x="1304" d="M881 62 C1145 62 1246 188 1246 350 C1246 508 1145 638 881 638 L690 638 L690 750 L614 750 L614 638 L424 638 C160 638 59 508 59 350 C59 188 160 62 424 62 L614 62 L614 -50 L690 -50 L690 62 L881 62 Z M880 568 C1093 568 1164 470 1164 350 C1164 227 1093 132 880 132 L690 132 L690 568 L880 568 Z M141 350 C141 470 212 568 425 568 L614 568 L614 132 L425 132 C212 132 141 227 141 350 L141 350 Z " />
<glyph glyph-name="Chi" unicode="&#x3a7;" horiz-adv-x="1228" d="M24 700 L551 351 L19 0 L144 0 L614 312 L1084 0 L1209 0 L677 351 L1204 700 L1079 700 L614 391 L149 700 L24 700 Z " />
<glyph glyph-name="Psi" unicode="&#x3a8;" horiz-adv-x="1296" d="M610 0 L686 0 L686 151 L810 151 C1127 151 1231 288 1231 481 L1231 700 L1154 700 L1154 481 C1154 328 1074 221 809 221 L686 221 L686 700 L610 700 L610 221 L487 221 C222 221 142 328 142 481 L142 700 L65 700 L65 481 C65 288 169 151 486 151 L610 151 L610 0 Z " />
<glyph glyph-name="Omega" unicode="&#x3a9;" horiz-adv-x="1356" d="M849 0 L1284 0 L1284 70 L1031 70 C1189 136 1254 262 1254 391 C1254 567 1140 710 851 710 L505 710 C216 710 102 567 102 391 C102 262 166 136 323 70 L72 70 L72 0 L507 0 L507 59 C266 102 177 232 177 375 C177 522 265 640 518 640 L838 640 C1091 640 1179 522 1179 375 C1179 233 1090 102 849 59 L849 0 Z " />
<glyph glyph-name="Iotadieresis" unicode="&#x3aa;" horiz-adv-x="327" d="M125 0 L202 0 L202 700 L125 700 L125 0 Z M252 819 L335 819 L335 901 L252 901 L252 819 Z M-7 819 L76 819 L76 901 L-7 901 L-7 819 Z " />
<glyph glyph-name="Upsilondieresis" unicode="&#x3ab;" horiz-adv-x="1246" d="M584 0 L661 0 L661 211 L1243 700 L1128 700 L623 272 L118 700 L3 700 L584 211 L584 0 Z M712 819 L795 819 L795 901 L712 901 L712 819 Z M453 819 L536 819 L536 901 L453 901 L453 819 Z " />
<glyph glyph-name="alphatonos" unicode="&#x3ac;" horiz-adv-x="1086" d="M985 0 L1072 0 L581 560 L505 560 L14 0 L101 0 L204 117 L882 117 L985 0 Z M543 503 L834 172 L252 172 L543 503 Z M125 360 L164 360 L189 560 L101 560 L125 360 Z " />
<glyph glyph-name="epsilontonos" unicode="&#x3ad;" horiz-adv-x="1188" d="M57 360 L96 360 L121 560 L33 560 L57 360 Z M269 0 L1112 0 L1112 61 L339 61 L339 253 L1025 253 L1025 307 L339 307 L339 499 L1112 499 L1112 560 L269 560 L269 0 Z " />
<glyph glyph-name="etatonos" unicode="&#x3ae;" horiz-adv-x="1282" d="M57 360 L96 360 L121 560 L33 560 L57 360 Z M1097 0 L1167 0 L1167 560 L1097 560 L1097 311 L339 311 L339 560 L269 560 L269 0 L339 0 L339 249 L1097 249 L1097 0 Z " />
<glyph glyph-name="iotatonos" unicode="&#x3af;" horiz-adv-x="454" d="M57 360 L96 360 L121 560 L33 560 L57 360 Z M269 0 L339 0 L339 560 L269 560 L269 0 Z " />
<glyph glyph-name="upsilondieresistonos" unicode="&#x3b0;" horiz-adv-x="1061" d="M657 680 L738 680 L738 761 L657 761 L657 680 Z M325 680 L406 680 L406 761 L325 761 L325 680 Z M514 635 L547 635 L572 835 L491 835 L514 635 Z M496 0 L566 0 L566 170 L1058 560 L954 560 L531 223 L107 560 L3 560 L496 170 L496 0 Z " />
<glyph glyph-name="alpha" unicode="&#x3b1;" horiz-adv-x="1086" d="M985 0 L1072 0 L581 560 L505 560 L14 0 L101 0 L204 117 L882 117 L985 0 Z M543 503 L834 172 L252 172 L543 503 Z " />
<glyph glyph-name="beta" unicode="&#x3b2;" horiz-adv-x="1084" d="M115 0 L818 0 C961 0 1009 64 1009 146 C1009 215 973 272 874 288 C942 309 967 358 967 417 C967 497 919 560 779 560 L115 560 L115 0 Z M801 253 C906 253 934 209 934 157 C934 104 906 61 801 61 L185 61 L185 253 L801 253 Z M766 307 L185 307 L185 499 L760 499 C863 499 894 456 894 403 C894 351 866 307 766 307 L766 307 Z " />
<glyph glyph-name="gamma" unicode="&#x3b3;" horiz-adv-x="987" d="M115 0 L185 0 L185 499 L941 499 L941 560 L115 560 L115 0 Z " />
<glyph glyph-name="delta" unicode="&#x3b4;" horiz-adv-x="1086" d="M581 560 L505 560 L14 0 L1072 0 L581 560 Z M543 505 L939 61 L147 61 L543 505 Z " />
<glyph glyph-name="epsilon" unicode="&#x3b5;" horiz-adv-x="1034" d="M115 0 L958 0 L958 61 L185 61 L185 253 L871 253 L871 307 L185 307 L185 499 L958 499 L958 560 L115 560 L115 0 Z " />
<glyph glyph-name="zeta" unicode="&#x3b6;" horiz-adv-x="1023" d="M68 0 L965 0 L965 61 L202 61 L948 512 L948 560 L77 560 L77 499 L813 499 L68 48 L68 0 Z " />
<glyph glyph-name="eta" unicode="&#x3b7;" horiz-adv-x="1128" d="M943 0 L1013 0 L1013 560 L943 560 L943 311 L185 311 L185 560 L115 560 L115 0 L185 0 L185 249 L943 249 L943 0 Z " />
<glyph glyph-name="theta" unicode="&#x3b8;" horiz-adv-x="1156" d="M300 253 L854 253 L854 307 L300 307 L300 253 Z M707 -8 C984 -8 1085 121 1085 280 C1085 439 984 568 707 568 L449 568 C172 568 71 439 71 280 C71 121 172 -8 449 -8 L707 -8 Z M450 53 C218 53 145 154 145 280 C145 406 218 507 450 507 L706 507 C938 507 1011 406 1011 280 C1011 154 938 53 706 53 L450 53 Z " />
<glyph glyph-name="iota" unicode="&#x3b9;" horiz-adv-x="300" d="M115 0 L185 0 L185 560 L115 560 L115 0 Z " />
<glyph glyph-name="kappa" unicode="&#x3ba;" horiz-adv-x="1111" d="M1026 560 L897 560 L185 184 L185 560 L115 560 L115 0 L185 0 L185 115 L474 268 L974 0 L1098 0 L538 302 L1026 560 Z " />
<glyph glyph-name="lambda" unicode="&#x3bb;" horiz-adv-x="1086" d="M505 560 L14 0 L103 0 L543 503 L983 0 L1072 0 L581 560 L505 560 Z " />
<glyph glyph-name="mu" unicode="&#x3bc;" horiz-adv-x="1249" d="M1067 560 L624 116 L182 560 L115 560 L115 0 L185 0 L185 467 L624 24 L1064 467 L1064 0 L1134 0 L1134 560 L1067 560 Z " />
<glyph glyph-name="nu" unicode="&#x3bd;" horiz-adv-x="1128" d="M1012 0 L1012 560 L942 560 L942 79 L181 560 L115 560 L115 0 L185 0 L185 481 L946 0 L1012 0 Z " />
<glyph glyph-name="xi" unicode="&#x3be;" horiz-adv-x="1038" d="M76 499 L962 499 L962 560 L76 560 L76 499 Z M962 61 L76 61 L76 0 L962 0 L962 61 Z M155 253 L883 253 L883 307 L155 307 L155 253 Z " />
<glyph glyph-name="omicron" unicode="&#x3bf;" horiz-adv-x="1156" d="M707 -8 C984 -8 1085 121 1085 280 C1085 439 984 568 707 568 L449 568 C172 568 71 439 71 280 C71 121 172 -8 449 -8 L707 -8 Z M450 53 C218 53 145 154 145 280 C145 406 218 507 450 507 L706 507 C938 507 1011 406 1011 280 C1011 154 938 53 706 53 L450 53 Z " />
<glyph glyph-name="pi" unicode="&#x3c0;" horiz-adv-x="1128" d="M943 0 L1013 0 L1013 560 L115 560 L115 0 L185 0 L185 499 L943 499 L943 0 Z " />
<glyph glyph-name="rho" unicode="&#x3c1;" horiz-adv-x="1042" d="M115 0 L185 0 L185 217 L773 217 C939 217 997 292 997 389 C997 483 939 560 773 560 L115 560 L115 0 Z M771 499 C891 499 924 450 924 389 C924 326 891 279 771 279 L185 279 L185 499 L771 499 Z " />
<glyph glyph-name="uni03C2" unicode="&#x3c2;" horiz-adv-x="1010" d="M75 509 L498 280 L75 51 L75 0 L935 0 L935 61 L215 61 L619 280 L215 499 L935 499 L935 560 L75 560 L75 509 Z " />
<glyph glyph-name="sigma" unicode="&#x3c3;" horiz-adv-x="1010" d="M75 509 L498 280 L75 51 L75 0 L935 0 L935 61 L215 61 L619 280 L215 499 L935 499 L935 560 L75 560 L75 509 Z " />
<glyph glyph-name="tau" unicode="&#x3c4;" horiz-adv-x="1042" d="M46 499 L486 499 L486 0 L556 0 L556 499 L996 499 L996 560 L46 560 L46 499 Z " />
<glyph glyph-name="upsilon" unicode="&#x3c5;" horiz-adv-x="1061" d="M496 0 L566 0 L566 170 L1058 560 L954 560 L531 223 L107 560 L3 560 L496 170 L496 0 Z " />
<glyph glyph-name="phi" unicode="&#x3c6;" horiz-adv-x="1130" d="M766 50 C990 50 1070 150 1070 280 C1070 406 990 510 766 510 L599 510 L599 600 L529 600 L529 510 L364 510 C140 510 60 406 60 280 C60 150 140 50 364 50 L529 50 L529 -40 L599 -40 L599 50 L766 50 Z M764 449 C941 449 997 373 997 280 C997 185 941 111 764 111 L599 111 L599 449 L764 449 Z M133 280 C133 373 188 449 365 449 L529 449 L529 111 L365 111 C188 111 133 185 133 280 L133 280 Z " />
<glyph glyph-name="chi" unicode="&#x3c7;" horiz-adv-x="1065" d="M30 560 L477 282 L25 0 L141 0 L533 246 L925 0 L1041 0 L589 282 L1037 560 L921 560 L533 318 L146 560 L30 560 Z " />
<glyph glyph-name="psi" unicode="&#x3c8;" horiz-adv-x="1116" d="M523 0 L593 0 L593 120 L702 120 C971 120 1054 230 1054 384 L1054 560 L984 560 L984 384 C984 264 922 181 701 181 L593 181 L593 560 L523 560 L523 181 L414 181 C192 181 131 264 131 384 L131 560 L62 560 L62 384 C62 230 144 120 413 120 L523 120 L523 0 Z " />
<glyph glyph-name="omega" unicode="&#x3c9;" horiz-adv-x="1170" d="M729 0 L1101 0 L1101 61 L895 61 C1022 114 1075 213 1075 313 C1075 454 986 568 740 568 L429 568 C184 568 95 454 95 313 C95 213 146 114 274 61 L69 61 L69 0 L440 0 L440 52 C237 85 163 187 163 298 C163 414 228 507 441 507 L728 507 C942 507 1007 414 1007 298 C1007 187 932 85 729 52 L729 0 Z " />
<glyph glyph-name="iotadieresis" unicode="&#x3ca;" horiz-adv-x="300" d="M115 0 L185 0 L185 560 L115 560 L115 0 Z M238 679 L321 679 L321 761 L238 761 L238 679 Z M-21 679 L62 679 L62 761 L-21 761 L-21 679 Z " />
<glyph glyph-name="upsilondieresis" unicode="&#x3cb;" horiz-adv-x="1061" d="M496 0 L566 0 L566 170 L1058 560 L954 560 L531 223 L107 560 L3 560 L496 170 L496 0 Z M620 679 L703 679 L703 761 L620 761 L620 679 Z M361 679 L444 679 L444 761 L361 761 L361 679 Z " />
<glyph glyph-name="omicrontonos" unicode="&#x3cc;" horiz-adv-x="1292" d="M57 360 L96 360 L121 560 L33 560 L57 360 Z M843 -8 C1120 -8 1221 121 1221 280 C1221 439 1120 568 843 568 L585 568 C308 568 207 439 207 280 C207 121 308 -8 585 -8 L843 -8 Z M586 53 C354 53 281 154 281 280 C281 406 354 507 586 507 L842 507 C1074 507 1147 406 1147 280 C1147 154 1074 53 842 53 L586 53 Z " />
<glyph glyph-name="upsilontonos" unicode="&#x3cd;" horiz-adv-x="1230" d="M57 360 L96 360 L121 560 L33 560 L57 360 Z M665 0 L735 0 L735 170 L1227 560 L1123 560 L700 223 L276 560 L172 560 L665 170 L665 0 Z " />
<glyph glyph-name="omegatonos" unicode="&#x3ce;" horiz-adv-x="1287" d="M57 360 L96 360 L121 560 L33 560 L57 360 Z M846 0 L1218 0 L1218 61 L1012 61 C1139 114 1192 213 1192 313 C1192 454 1103 568 857 568 L546 568 C301 568 212 454 212 313 C212 213 263 114 391 61 L186 61 L186 0 L557 0 L557 52 C354 85 280 187 280 298 C280 414 345 507 558 507 L845 507 C1059 507 1124 414 1124 298 C1124 187 1049 85 846 52 L846 0 Z " />
<glyph glyph-name="uni0400" unicode="&#x400;" horiz-adv-x="1199" d="M125 0 L1116 0 L1116 70 L202 70 L202 318 L1014 318 L1014 382 L202 382 L202 630 L1116 630 L1116 700 L125 700 L125 0 Z M565 946 L473 946 L625 775 L674 775 L565 946 Z " />
<glyph glyph-name="uni0401" unicode="&#x401;" horiz-adv-x="1199" d="M125 0 L1116 0 L1116 70 L202 70 L202 318 L1014 318 L1014 382 L202 382 L202 630 L1116 630 L1116 700 L125 700 L125 0 Z M697 819 L780 819 L780 901 L697 901 L697 819 Z M438 819 L521 819 L521 901 L438 901 L438 819 Z " />
<glyph glyph-name="uni0402" unicode="&#x402;" horiz-adv-x="1354" d="M735 0 L1075 0 C1251 0 1319 85 1319 191 C1319 299 1251 382 1075 382 L420 382 L420 630 L954 630 L954 700 L33 700 L33 630 L343 630 L343 0 L420 0 L420 318 L1073 318 C1199 318 1238 263 1238 194 C1238 127 1199 70 1073 70 L735 70 L735 0 Z " />
<glyph glyph-name="uni0403" unicode="&#x403;" horiz-adv-x="1129" d="M125 0 L202 0 L202 630 L1096 630 L1096 700 L125 700 L125 0 Z M539 775 L588 775 L740 946 L648 946 L539 775 Z " />
<glyph glyph-name="uni0404" unicode="&#x404;" horiz-adv-x="1184" d="M999 318 L999 382 L160 382 C171 520 273 630 520 630 L1101 630 L1101 700 L519 700 C202 700 78 543 78 350 C78 157 202 0 519 0 L1101 0 L1101 70 L520 70 C273 70 171 178 160 318 L999 318 Z " />
<glyph glyph-name="uni0405" unicode="&#x405;" horiz-adv-x="1207" d="M115 0 L888 0 C1064 0 1132 85 1132 191 C1132 299 1064 382 888 382 L321 382 C195 382 155 437 155 506 C155 573 195 630 321 630 L1092 630 L1092 700 L319 700 C143 700 75 615 75 509 C75 401 143 318 319 318 L886 318 C1012 318 1052 263 1052 194 C1052 127 1012 70 886 70 L115 70 L115 0 Z " />
<glyph glyph-name="uni0406" unicode="&#x406;" horiz-adv-x="327" d="M125 0 L202 0 L202 700 L125 700 L125 0 Z " />
<glyph glyph-name="uni0407" unicode="&#x407;" horiz-adv-x="327" d="M125 0 L202 0 L202 700 L125 700 L125 0 Z M252 819 L335 819 L335 901 L252 901 L252 819 Z M-7 819 L76 819 L76 901 L-7 901 L-7 819 Z " />
<glyph glyph-name="uni0408" unicode="&#x408;" horiz-adv-x="1231" d="M388 -5 L685 -5 C1002 -5 1106 132 1106 325 L1106 700 L1029 700 L1029 325 C1029 172 949 65 684 65 L389 65 C187 65 122 159 122 275 L122 320 L45 320 L45 275 C45 121 134 -5 388 -5 L388 -5 Z " />
<glyph glyph-name="uni0409" unicode="&#x409;" horiz-adv-x="1862" d="M312 700 L241 191 C231 122 196 70 81 70 L33 70 L33 0 L76 0 C248 0 302 79 318 191 L379 630 L914 630 L914 0 L1558 0 C1752 0 1827 93 1827 212 C1827 329 1752 425 1558 425 L990 425 L990 700 L312 700 Z M1555 355 C1700 355 1746 291 1746 212 C1746 132 1700 70 1555 70 L990 70 L990 355 L1555 355 Z " />
<glyph glyph-name="uni040A" unicode="&#x40a;" horiz-adv-x="1876" d="M928 0 L1572 0 C1766 0 1841 93 1841 212 C1841 329 1766 425 1572 425 L1004 425 L1004 700 L928 700 L928 425 L202 425 L202 700 L125 700 L125 0 L202 0 L202 355 L928 355 L928 0 Z M1569 355 C1714 355 1760 291 1760 212 C1760 132 1714 70 1569 70 L1004 70 L1004 355 L1569 355 Z " />
<glyph glyph-name="uni040B" unicode="&#x40b;" horiz-adv-x="1384" d="M1319 0 L1319 187 C1319 296 1267 381 1088 381 L420 381 L420 630 L954 630 L954 700 L33 700 L33 630 L343 630 L343 0 L420 0 L420 310 L1089 310 C1214 310 1242 254 1242 181 L1242 0 L1319 0 Z " />
<glyph glyph-name="uni040C" unicode="&#x40c;" horiz-adv-x="1286" d="M650 352 L1192 700 L1071 700 L580 385 L202 385 L202 700 L125 700 L125 0 L202 0 L202 315 L578 315 L1144 0 L1278 0 L650 352 Z M512 775 L561 775 L713 946 L621 946 L512 775 Z " />
<glyph glyph-name="uni040D" unicode="&#x40d;" horiz-adv-x="1304" d="M1102 610 L1102 0 L1179 0 L1179 700 L1106 700 L202 90 L202 700 L125 700 L125 0 L198 0 L1102 610 Z M608 946 L516 946 L668 775 L717 775 L608 946 Z " />
<glyph glyph-name="uni040E" unicode="&#x40e;" horiz-adv-x="1250" d="M431 0 L1249 700 L1138 700 L633 265 L118 700 L5 700 L581 217 L321 0 L431 0 Z M635 839 C551 839 520 883 515 933 L471 933 C477 862 513 787 635 787 C756 787 793 862 798 933 L755 933 C749 883 719 839 635 839 L635 839 Z " />
<glyph glyph-name="uni040F" unicode="&#x40f;" horiz-adv-x="1305" d="M1103 70 L202 70 L202 700 L125 700 L125 0 L614 0 L614 -150 L691 -150 L691 0 L1180 0 L1180 700 L1103 700 L1103 70 Z " />
<glyph glyph-name="uni0410" unicode="&#x410;" horiz-adv-x="1268" d="M1160 0 L1255 0 L676 700 L593 700 L13 0 L108 0 L224 141 L1043 141 L1160 0 Z M634 636 L989 206 L278 206 L634 636 Z " />
<glyph glyph-name="uni0411" unicode="&#x411;" horiz-adv-x="1236" d="M125 0 L917 0 C1093 0 1161 85 1161 190 C1161 298 1093 381 917 381 L202 381 L202 630 L1096 630 L1096 700 L125 700 L125 0 Z M915 319 C1041 319 1080 264 1080 195 C1080 127 1041 70 915 70 L202 70 L202 319 L915 319 Z " />
<glyph glyph-name="uni0412" unicode="&#x412;" horiz-adv-x="1259" d="M125 0 L945 0 C1112 0 1176 81 1176 182 C1176 268 1129 340 1012 359 C1092 385 1126 448 1126 521 C1126 621 1063 700 898 700 L125 700 L125 0 Z M927 318 C1053 318 1094 262 1094 194 C1094 125 1053 70 927 70 L202 70 L202 318 L927 318 Z M1047 506 C1047 439 1007 382 886 382 L202 382 L202 630 L879 630 C1003 630 1047 574 1047 506 L1047 506 Z " />
<glyph glyph-name="uni0413" unicode="&#x413;" horiz-adv-x="1129" d="M125 0 L202 0 L202 630 L1096 630 L1096 700 L125 700 L125 0 Z " />
<glyph glyph-name="uni0414" unicode="&#x414;" horiz-adv-x="1250" d="M110 0 L1105 0 L1105 -150 L1182 -150 L1182 70 L1095 70 L1095 700 L312 700 L241 191 C231 123 197 70 86 70 L33 70 L33 -150 L110 -150 L110 0 Z M320 208 L379 630 L1018 630 L1018 70 L236 70 C290 97 311 147 320 208 L320 208 Z " />
<glyph glyph-name="uni0415" unicode="&#x415;" horiz-adv-x="1199" d="M125 0 L1116 0 L1116 70 L202 70 L202 318 L1014 318 L1014 382 L202 382 L202 630 L1116 630 L1116 700 L125 700 L125 0 Z " />
<glyph glyph-name="uni0416" unicode="&#x416;" horiz-adv-x="1623" d="M1103 351 L1542 700 L1435 700 L1035 385 L849 385 L849 700 L773 700 L773 385 L588 385 L188 700 L81 700 L520 351 L23 0 L138 0 L588 315 L773 315 L773 0 L849 0 L849 315 L1035 315 L1485 0 L1600 0 L1103 351 Z " />
<glyph glyph-name="uni0417" unicode="&#x417;" horiz-adv-x="1269" d="M73 0 L955 0 C1122 0 1186 81 1186 182 C1186 268 1139 340 1022 359 C1102 385 1136 448 1136 521 C1136 621 1073 700 908 700 L93 700 L93 630 L889 630 C1015 630 1057 573 1057 506 C1057 438 1017 382 896 382 L180 382 L180 318 L937 318 C1063 318 1104 262 1104 194 C1104 126 1063 70 937 70 L73 70 L73 0 Z " />
<glyph glyph-name="uni0418" unicode="&#x418;" horiz-adv-x="1304" d="M1102 610 L1102 0 L1179 0 L1179 700 L1106 700 L202 90 L202 700 L125 700 L125 0 L198 0 L1102 610 Z " />
<glyph glyph-name="uni0419" unicode="&#x419;" horiz-adv-x="1304" d="M1102 610 L1102 0 L1179 0 L1179 700 L1106 700 L202 90 L202 700 L125 700 L125 0 L198 0 L1102 610 Z M652 839 C568 839 537 883 532 933 L488 933 C494 862 530 787 652 787 C773 787 810 862 815 933 L772 933 C766 883 736 839 652 839 L652 839 Z " />
<glyph glyph-name="uni041A" unicode="&#x41a;" horiz-adv-x="1286" d="M650 352 L1192 700 L1071 700 L580 385 L202 385 L202 700 L125 700 L125 0 L202 0 L202 315 L578 315 L1144 0 L1278 0 L650 352 Z " />
<glyph glyph-name="uni041B" unicode="&#x41b;" horiz-adv-x="1257" d="M312 700 L241 191 C231 122 196 70 81 70 L33 70 L33 0 L76 0 C248 0 302 78 318 191 L379 630 L1055 630 L1055 0 L1132 0 L1132 700 L312 700 Z " />
<glyph glyph-name="uni041C" unicode="&#x41c;" horiz-adv-x="1447" d="M1249 700 L723 136 L198 700 L125 700 L125 0 L202 0 L202 593 L723 31 L1245 593 L1245 0 L1322 0 L1322 700 L1249 700 Z " />
<glyph glyph-name="uni041D" unicode="&#x41d;" horiz-adv-x="1305" d="M1103 0 L1180 0 L1180 700 L1103 700 L1103 385 L202 385 L202 700 L125 700 L125 0 L202 0 L202 315 L1103 315 L1103 0 Z " />
<glyph glyph-name="uni041E" unicode="&#x41e;" horiz-adv-x="1348" d="M816 -10 C1142 -10 1270 151 1270 350 C1270 549 1142 710 816 710 L532 710 C206 710 78 549 78 350 C78 151 206 -10 532 -10 L816 -10 Z M533 60 C257 60 160 189 160 350 C160 511 257 640 533 640 L815 640 C1091 640 1188 511 1188 350 C1188 189 1091 60 815 60 L533 60 Z " />
<glyph glyph-name="uni041F" unicode="&#x41f;" horiz-adv-x="1305" d="M1103 0 L1180 0 L1180 700 L125 700 L125 0 L202 0 L202 630 L1103 630 L1103 0 Z " />
<glyph glyph-name="uni0420" unicode="&#x420;" horiz-adv-x="1196" d="M125 0 L202 0 L202 275 L892 275 C1086 275 1161 368 1161 488 C1161 604 1086 700 892 700 L125 700 L125 0 Z M890 630 C1034 630 1081 566 1081 488 C1081 407 1034 345 890 345 L202 345 L202 630 L890 630 Z " />
<glyph glyph-name="uni0421" unicode="&#x421;" horiz-adv-x="1184" d="M160 350 C160 505 253 630 520 630 L1101 630 L1101 700 L519 700 C202 700 78 543 78 350 C78 157 202 0 519 0 L1101 0 L1101 70 L520 70 C253 70 160 195 160 350 L160 350 Z " />
<glyph glyph-name="uni0422" unicode="&#x422;" horiz-adv-x="1184" d="M33 630 L554 630 L554 0 L630 0 L630 630 L1151 630 L1151 700 L33 700 L33 630 Z " />
<glyph glyph-name="uni0423" unicode="&#x423;" horiz-adv-x="1250" d="M431 0 L1249 700 L1138 700 L633 265 L118 700 L5 700 L581 217 L321 0 L431 0 Z " />
<glyph glyph-name="uni0424" unicode="&#x424;" horiz-adv-x="1304" d="M881 62 C1145 62 1246 188 1246 350 C1246 508 1145 638 881 638 L690 638 L690 750 L614 750 L614 638 L424 638 C160 638 59 508 59 350 C59 188 160 62 424 62 L614 62 L614 -50 L690 -50 L690 62 L881 62 Z M880 568 C1093 568 1164 470 1164 350 C1164 227 1093 132 880 132 L690 132 L690 568 L880 568 Z M141 350 C141 470 212 568 425 568 L614 568 L614 132 L425 132 C212 132 141 227 141 350 L141 350 Z " />
<glyph glyph-name="uni0425" unicode="&#x425;" horiz-adv-x="1228" d="M24 700 L551 351 L19 0 L144 0 L614 312 L1084 0 L1209 0 L677 351 L1204 700 L1079 700 L614 391 L149 700 L24 700 Z " />
<glyph glyph-name="uni0426" unicode="&#x426;" horiz-adv-x="1297" d="M1066 70 L202 70 L202 700 L125 700 L125 0 L1152 0 L1152 -150 L1229 -150 L1229 70 L1143 70 L1143 700 L1066 700 L1066 70 Z " />
<glyph glyph-name="uni0427" unicode="&#x427;" horiz-adv-x="1226" d="M65 700 L65 466 C65 358 117 273 296 273 L1024 273 L1024 0 L1101 0 L1101 700 L1024 700 L1024 343 L295 343 C170 343 142 400 142 472 L142 700 L65 700 Z " />
<glyph glyph-name="uni0428" unicode="&#x428;" horiz-adv-x="1599" d="M1397 70 L837 70 L837 700 L761 700 L761 70 L202 70 L202 700 L125 700 L125 0 L1474 0 L1474 700 L1397 700 L1397 70 Z " />
<glyph glyph-name="uni0429" unicode="&#x429;" horiz-adv-x="1593" d="M1361 70 L819 70 L819 700 L743 700 L743 70 L202 70 L202 700 L125 700 L125 0 L1448 0 L1448 -150 L1525 -150 L1525 70 L1438 70 L1438 700 L1361 700 L1361 70 Z " />
<glyph glyph-name="uni042A" unicode="&#x42a;" horiz-adv-x="1354" d="M33 630 L343 630 L343 0 L1050 0 C1244 0 1319 93 1319 212 C1319 330 1244 425 1050 425 L420 425 L420 700 L33 700 L33 630 Z M1047 355 C1192 355 1238 291 1238 212 C1238 132 1191 70 1047 70 L420 70 L420 355 L1047 355 Z " />
<glyph glyph-name="uni042B" unicode="&#x42b;" horiz-adv-x="1523" d="M125 0 L892 0 C1086 0 1161 92 1161 212 C1161 329 1086 425 892 425 L202 425 L202 700 L125 700 L125 0 Z M889 355 C1034 355 1080 291 1080 212 C1080 132 1033 70 889 70 L202 70 L202 355 L889 355 Z M1321 0 L1398 0 L1398 700 L1321 700 L1321 0 Z " />
<glyph glyph-name="uni042C" unicode="&#x42c;" horiz-adv-x="1196" d="M125 0 L892 0 C1086 0 1161 92 1161 212 C1161 329 1086 425 892 425 L202 425 L202 700 L125 700 L125 0 Z M889 355 C1034 355 1080 291 1080 212 C1080 132 1033 70 889 70 L202 70 L202 355 L889 355 Z " />
<glyph glyph-name="uni042D" unicode="&#x42d;" horiz-adv-x="1184" d="M185 318 L1024 318 C1012 178 910 70 664 70 L83 70 L83 0 L665 0 C982 0 1106 157 1106 350 C1106 543 982 700 665 700 L83 700 L83 630 L664 630 C910 630 1012 520 1024 382 L185 382 L185 318 Z " />
<glyph glyph-name="uni042E" unicode="&#x42e;" horiz-adv-x="1879" d="M1347 -10 C1673 -10 1801 151 1801 350 C1801 549 1673 710 1347 710 L1113 710 C806 710 675 567 661 385 L202 385 L202 700 L125 700 L125 0 L202 0 L202 315 L661 315 C675 132 806 -10 1113 -10 L1347 -10 Z M1114 60 C838 60 741 189 741 350 C741 511 838 640 1114 640 L1346 640 C1622 640 1719 511 1719 350 C1719 189 1622 60 1346 60 L1114 60 Z " />
<glyph glyph-name="uni042F" unicode="&#x42f;" horiz-adv-x="1277" d="M1162 700 L411 700 C218 700 142 605 142 489 C142 370 218 277 411 277 L514 277 L18 0 L151 0 L637 276 L1085 276 L1085 0 L1162 0 L1162 700 Z M1085 630 L1085 344 L415 344 C271 344 223 407 223 487 C223 565 271 630 415 630 L1085 630 Z " />
<glyph glyph-name="uni0430" unicode="&#x430;" horiz-adv-x="1086" d="M985 0 L1072 0 L581 560 L505 560 L14 0 L101 0 L204 117 L882 117 L985 0 Z M543 503 L834 172 L252 172 L543 503 Z " />
<glyph glyph-name="uni0431" unicode="&#x431;" horiz-adv-x="1064" d="M115 0 L794 0 C945 0 997 68 997 154 C997 240 945 307 794 307 L185 307 L185 499 L941 499 L941 560 L115 560 L115 0 Z M790 253 C894 253 924 210 924 157 C924 105 895 61 790 61 L185 61 L185 253 L790 253 Z " />
<glyph glyph-name="uni0432" unicode="&#x432;" horiz-adv-x="1084" d="M115 0 L818 0 C961 0 1009 64 1009 146 C1009 215 973 272 874 288 C942 309 967 358 967 417 C967 497 919 560 779 560 L115 560 L115 0 Z M801 253 C906 253 934 209 934 157 C934 104 906 61 801 61 L185 61 L185 253 L801 253 Z M766 307 L185 307 L185 499 L760 499 C863 499 894 456 894 403 C894 351 866 307 766 307 L766 307 Z " />
<glyph glyph-name="uni0433" unicode="&#x433;" horiz-adv-x="987" d="M115 0 L185 0 L185 499 L941 499 L941 560 L115 560 L115 0 Z " />
<glyph glyph-name="uni0434" unicode="&#x434;" horiz-adv-x="1087" d="M116 0 L954 0 L954 -120 L1024 -120 L1024 61 L950 61 L950 560 L283 560 L222 155 C214 103 186 61 93 61 L46 61 L46 -120 L116 -120 L116 0 Z M294 171 L343 499 L880 499 L880 61 L224 61 C269 83 287 123 294 171 L294 171 Z " />
<glyph glyph-name="uni0435" unicode="&#x435;" horiz-adv-x="1034" d="M115 0 L958 0 L958 61 L185 61 L185 253 L871 253 L871 307 L185 307 L185 499 L958 499 L958 560 L115 560 L115 0 Z " />
<glyph glyph-name="uni0436" unicode="&#x436;" horiz-adv-x="1396" d="M952 280 L1320 560 L1223 560 L893 311 L732 311 L732 560 L663 560 L663 311 L503 311 L173 560 L76 560 L444 280 L27 0 L132 0 L504 249 L663 249 L663 0 L732 0 L732 249 L892 249 L1263 0 L1369 0 L952 280 Z " />
<glyph glyph-name="uni0437" unicode="&#x437;" horiz-adv-x="1089" d="M67 0 L823 0 C965 0 1014 64 1014 146 C1014 215 977 272 879 288 C946 309 971 358 971 417 C971 497 923 560 783 560 L84 560 L84 499 L768 499 C873 499 901 455 901 403 C901 351 874 307 773 307 L158 307 L158 253 L808 253 C913 253 942 209 942 157 C942 105 913 61 808 61 L67 61 L67 0 Z " />
<glyph glyph-name="uni0438" unicode="&#x438;" horiz-adv-x="1128" d="M943 481 L943 0 L1013 0 L1013 560 L947 560 L185 79 L185 560 L115 560 L115 0 L181 0 L943 481 Z " />
<glyph glyph-name="uni0439" unicode="&#x439;" horiz-adv-x="1128" d="M943 481 L943 0 L1013 0 L1013 560 L947 560 L185 79 L185 560 L115 560 L115 0 L181 0 L943 481 Z M564 699 C480 699 449 743 444 793 L400 793 C406 722 442 647 564 647 C685 647 722 722 727 793 L684 793 C678 743 648 699 564 699 L564 699 Z " />
<glyph glyph-name="uni043A" unicode="&#x43a;" horiz-adv-x="1112" d="M566 282 L1023 560 L911 560 L500 311 L185 311 L185 560 L115 560 L115 0 L185 0 L185 249 L501 249 L975 0 L1097 0 L566 282 Z " />
<glyph glyph-name="uni043B" unicode="&#x43b;" horiz-adv-x="1096" d="M283 560 L222 155 C214 101 185 61 89 61 L46 61 L46 0 L85 0 C232 0 279 64 292 155 L343 499 L911 499 L911 0 L981 0 L981 560 L283 560 Z " />
<glyph glyph-name="uni043C" unicode="&#x43c;" horiz-adv-x="1249" d="M1067 560 L624 116 L182 560 L115 560 L115 0 L185 0 L185 467 L624 24 L1064 467 L1064 0 L1134 0 L1134 560 L1067 560 Z " />
<glyph glyph-name="uni043D" unicode="&#x43d;" horiz-adv-x="1128" d="M943 0 L1013 0 L1013 560 L943 560 L943 311 L185 311 L185 560 L115 560 L115 0 L185 0 L185 249 L943 249 L943 0 Z " />
<glyph glyph-name="uni043E" unicode="&#x43e;" horiz-adv-x="1156" d="M707 -8 C984 -8 1085 121 1085 280 C1085 439 984 568 707 568 L449 568 C172 568 71 439 71 280 C71 121 172 -8 449 -8 L707 -8 Z M450 53 C218 53 145 154 145 280 C145 406 218 507 450 507 L706 507 C938 507 1011 406 1011 280 C1011 154 938 53 706 53 L450 53 Z " />
<glyph glyph-name="uni043F" unicode="&#x43f;" horiz-adv-x="1128" d="M943 0 L1013 0 L1013 560 L115 560 L115 0 L185 0 L185 499 L943 499 L943 0 Z " />
<glyph glyph-name="uni0440" unicode="&#x440;" horiz-adv-x="1042" d="M115 0 L185 0 L185 217 L773 217 C939 217 997 292 997 389 C997 483 939 560 773 560 L115 560 L115 0 Z M771 499 C891 499 924 450 924 389 C924 326 891 279 771 279 L185 279 L185 499 L771 499 Z " />
<glyph glyph-name="uni0441" unicode="&#x441;" horiz-adv-x="1016" d="M145 280 C145 401 214 499 438 499 L941 499 L941 560 L438 560 C168 560 71 434 71 280 C71 126 168 0 438 0 L941 0 L941 61 L438 61 C214 61 145 159 145 280 L145 280 Z " />
<glyph glyph-name="uni0442" unicode="&#x442;" horiz-adv-x="1042" d="M46 499 L486 499 L486 0 L556 0 L556 499 L996 499 L996 560 L46 560 L46 499 Z " />
<glyph glyph-name="uni0443" unicode="&#x443;" horiz-adv-x="1064" d="M371 0 L1064 560 L962 560 L540 217 L107 560 L5 560 L492 175 L270 0 L371 0 Z " />
<glyph glyph-name="uni0444" unicode="&#x444;" horiz-adv-x="1130" d="M766 50 C990 50 1070 150 1070 280 C1070 406 990 510 766 510 L599 510 L599 600 L529 600 L529 510 L364 510 C140 510 60 406 60 280 C60 150 140 50 364 50 L529 50 L529 -40 L599 -40 L599 50 L766 50 Z M764 449 C941 449 997 373 997 280 C997 185 941 111 764 111 L599 111 L599 449 L764 449 Z M133 280 C133 373 188 449 365 449 L529 449 L529 111 L365 111 C188 111 133 185 133 280 L133 280 Z " />
<glyph glyph-name="uni0445" unicode="&#x445;" horiz-adv-x="1065" d="M30 560 L477 282 L25 0 L141 0 L533 246 L925 0 L1041 0 L589 282 L1037 560 L921 560 L533 318 L146 560 L30 560 Z " />
<glyph glyph-name="uni0446" unicode="&#x446;" horiz-adv-x="1118" d="M911 61 L185 61 L185 560 L115 560 L115 0 L985 0 L985 -120 L1055 -120 L1055 61 L981 61 L981 560 L911 560 L911 61 Z " />
<glyph glyph-name="uni0447" unicode="&#x447;" horiz-adv-x="1058" d="M62 560 L62 372 C62 283 104 216 256 216 L873 216 L873 0 L943 0 L943 560 L873 560 L873 277 L255 277 C154 277 132 320 132 376 L132 560 L62 560 Z " />
<glyph glyph-name="uni0448" unicode="&#x448;" horiz-adv-x="1378" d="M1193 61 L723 61 L723 560 L653 560 L653 61 L185 61 L185 560 L115 560 L115 0 L1263 0 L1263 560 L1193 560 L1193 61 Z " />
<glyph glyph-name="uni0449" unicode="&#x449;" horiz-adv-x="1369" d="M1162 61 L708 61 L708 560 L638 560 L638 61 L185 61 L185 560 L115 560 L115 0 L1236 0 L1236 -120 L1306 -120 L1306 61 L1232 61 L1232 560 L1162 560 L1162 61 Z " />
<glyph glyph-name="uni044A" unicode="&#x44a;" horiz-adv-x="1185" d="M46 499 L309 499 L309 0 L916 0 C1082 0 1140 75 1140 171 C1140 266 1082 343 916 343 L379 343 L379 560 L46 560 L46 499 Z M875 61 L379 61 L379 281 L913 281 C1034 281 1067 232 1067 171 C1067 109 1033 61 913 61 L875 61 Z " />
<glyph glyph-name="uni044B" unicode="&#x44b;" horiz-adv-x="1342" d="M115 0 L773 0 C939 0 997 75 997 171 C997 266 939 343 773 343 L185 343 L185 560 L115 560 L115 0 Z M770 281 C891 281 924 232 924 171 C924 109 890 61 770 61 L185 61 L185 281 L770 281 Z M1157 0 L1227 0 L1227 560 L1157 560 L1157 0 Z " />
<glyph glyph-name="uni044C" unicode="&#x44c;" horiz-adv-x="1042" d="M115 0 L773 0 C939 0 997 75 997 171 C997 266 939 343 773 343 L185 343 L185 560 L115 560 L115 0 Z M770 281 C891 281 924 232 924 171 C924 109 890 61 770 61 L185 61 L185 281 L770 281 Z " />
<glyph glyph-name="uni044D" unicode="&#x44d;" horiz-adv-x="1017" d="M875 253 C864 144 786 61 579 61 L76 61 L76 0 L579 0 C849 0 946 126 946 280 C946 434 849 560 579 560 L76 560 L76 499 L579 499 C786 499 864 415 875 307 L163 307 L163 253 L875 253 Z " />
<glyph glyph-name="uni044E" unicode="&#x44e;" horiz-adv-x="1612" d="M947 -8 L1163 -8 C1440 -8 1541 121 1541 280 C1541 439 1440 568 1163 568 L947 568 C688 568 583 455 570 311 L185 311 L185 560 L115 560 L115 0 L185 0 L185 249 L570 249 C583 104 688 -8 947 -8 L947 -8 Z M1162 507 C1394 507 1467 406 1467 280 C1467 154 1394 53 1162 53 L948 53 C716 53 643 154 643 280 C643 406 716 507 948 507 L1162 507 Z " />
<glyph glyph-name="uni044F" unicode="&#x44f;" horiz-adv-x="1105" d="M990 560 L346 560 C181 560 122 484 122 390 C122 294 181 219 346 219 L430 219 L17 0 L138 0 L544 218 L920 218 L920 0 L990 0 L990 560 Z M920 499 L920 278 L349 278 C229 278 195 326 195 388 C195 449 229 499 349 499 L920 499 Z " />
<glyph glyph-name="uni0450" unicode="&#x450;" horiz-adv-x="1034" d="M115 0 L958 0 L958 61 L185 61 L185 253 L871 253 L871 307 L185 307 L185 499 L958 499 L958 560 L115 560 L115 0 Z M485 806 L393 806 L545 635 L594 635 L485 806 Z " />
<glyph glyph-name="uni0451" unicode="&#x451;" horiz-adv-x="1034" d="M115 0 L958 0 L958 61 L185 61 L185 253 L871 253 L871 307 L185 307 L185 499 L958 499 L958 560 L115 560 L115 0 Z M617 679 L700 679 L700 761 L617 761 L617 679 Z M358 679 L441 679 L441 761 L358 761 L358 679 Z " />
<glyph glyph-name="uni0452" unicode="&#x452;" horiz-adv-x="1185" d="M644 0 L937 0 C1088 0 1140 68 1140 154 C1140 240 1088 307 937 307 L379 307 L379 499 L829 499 L829 560 L46 560 L46 499 L309 499 L309 0 L379 0 L379 253 L933 253 C1037 253 1067 210 1067 157 C1067 105 1038 61 933 61 L644 61 L644 0 Z " />
<glyph glyph-name="uni0453" unicode="&#x453;" horiz-adv-x="987" d="M115 0 L185 0 L185 499 L941 499 L941 560 L115 560 L115 0 Z M465 635 L514 635 L666 806 L574 806 L465 635 Z " />
<glyph glyph-name="uni0454" unicode="&#x454;" horiz-adv-x="1017" d="M854 253 L854 307 L142 307 C153 415 231 499 438 499 L941 499 L941 560 L438 560 C168 560 71 434 71 280 C71 126 168 0 438 0 L941 0 L941 61 L438 61 C231 61 153 144 142 253 L854 253 Z " />
<glyph glyph-name="uni0455" unicode="&#x455;" horiz-adv-x="1033" d="M101 0 L764 0 C914 0 966 68 966 154 C966 240 914 307 764 307 L272 307 C169 307 140 350 140 403 C140 455 169 499 272 499 L932 499 L932 560 L269 560 C119 560 67 492 67 406 C67 320 119 253 269 253 L761 253 C864 253 893 210 893 157 C893 105 864 61 761 61 L101 61 L101 0 Z " />
<glyph glyph-name="uni0456" unicode="&#x456;" horiz-adv-x="300" d="M115 0 L185 0 L185 560 L115 560 L115 0 Z " />
<glyph glyph-name="uni0457" unicode="&#x457;" horiz-adv-x="300" d="M115 0 L185 0 L185 560 L115 560 L115 0 Z M238 679 L321 679 L321 761 L238 761 L238 679 Z M-21 679 L62 679 L62 761 L-21 761 L-21 679 Z " />
<glyph glyph-name="uni0458" unicode="&#x458;" horiz-adv-x="1043" d="M331 -4 L598 -4 C868 -4 948 106 948 260 L948 560 L878 560 L878 260 C878 141 819 57 598 57 L332 57 C163 57 115 130 115 220 L115 257 L45 257 L45 220 C45 97 115 -4 331 -4 L331 -4 Z " />
<glyph glyph-name="uni0459" unicode="&#x459;" horiz-adv-x="1617" d="M283 560 L222 155 C214 102 184 61 89 61 L46 61 L46 0 L84 0 C232 0 278 64 292 155 L343 499 L792 499 L792 0 L1347 0 C1514 0 1572 75 1572 171 C1572 266 1514 343 1347 343 L862 343 L862 560 L283 560 Z M1345 281 C1466 281 1499 232 1499 171 C1499 109 1466 61 1345 61 L862 61 L862 281 L1345 281 Z " />
<glyph glyph-name="uni045A" unicode="&#x45a;" horiz-adv-x="1620" d="M795 0 L1351 0 C1517 0 1575 75 1575 171 C1575 266 1517 343 1351 343 L865 343 L865 560 L795 560 L795 343 L185 343 L185 560 L115 560 L115 0 L185 0 L185 281 L795 281 L795 0 Z M1348 281 C1469 281 1502 232 1502 171 C1502 109 1469 61 1348 61 L865 61 L865 281 L1348 281 Z " />
<glyph glyph-name="uni045B" unicode="&#x45b;" horiz-adv-x="1202" d="M1140 0 L1140 150 C1140 238 1101 306 948 306 L379 306 L379 499 L829 499 L829 560 L46 560 L46 499 L309 499 L309 0 L379 0 L379 245 L950 245 C1051 245 1070 201 1070 146 L1070 0 L1140 0 Z " />
<glyph glyph-name="uni045C" unicode="&#x45c;" horiz-adv-x="1112" d="M566 282 L1023 560 L911 560 L500 311 L185 311 L185 560 L115 560 L115 0 L185 0 L185 249 L501 249 L975 0 L1097 0 L566 282 Z M428 635 L477 635 L629 806 L537 806 L428 635 Z " />
<glyph glyph-name="uni045D" unicode="&#x45d;" horiz-adv-x="1128" d="M943 481 L943 0 L1013 0 L1013 560 L947 560 L185 79 L185 560 L115 560 L115 0 L181 0 L943 481 Z M519 806 L427 806 L579 635 L628 635 L519 806 Z " />
<glyph glyph-name="uni045E" unicode="&#x45e;" horiz-adv-x="1064" d="M371 0 L1064 560 L962 560 L540 217 L107 560 L5 560 L492 175 L270 0 L371 0 Z M541 699 C457 699 426 743 421 793 L377 793 C383 722 419 647 541 647 C662 647 699 722 704 793 L661 793 C655 743 625 699 541 699 L541 699 Z " />
<glyph glyph-name="uni045F" unicode="&#x45f;" horiz-adv-x="1128" d="M943 61 L185 61 L185 560 L115 560 L115 0 L529 0 L529 -120 L599 -120 L599 0 L1013 0 L1013 560 L943 560 L943 61 Z " />
<glyph glyph-name="uni0490" unicode="&#x490;" horiz-adv-x="1129" d="M1019 700 L125 700 L125 0 L202 0 L202 630 L1096 630 L1096 850 L1019 850 L1019 700 Z " />
<glyph glyph-name="uni0491" unicode="&#x491;" horiz-adv-x="987" d="M871 560 L115 560 L115 0 L185 0 L185 499 L941 499 L941 680 L871 680 L871 560 Z " />
<glyph glyph-name="uni1E00" unicode="&#x1e00;" horiz-adv-x="1268" d="M566 -160 C566 -123 597 -92 634 -92 C672 -92 702 -123 702 -160 C702 -198 672 -228 634 -228 C597 -228 566 -198 566 -160 L566 -160 Z M520 -160 C520 -221 568 -270 634 -270 C700 -270 748 -221 748 -160 C748 -99 700 -51 634 -51 C568 -51 520 -99 520 -160 L520 -160 Z M1160 0 L1255 0 L676 700 L593 700 L13 0 L108 0 L224 141 L1043 141 L1160 0 Z M634 636 L989 206 L278 206 L634 636 Z " />
<glyph glyph-name="uni1E01" unicode="&#x1e01;" horiz-adv-x="1086" d="M475 -160 C475 -123 506 -92 543 -92 C581 -92 611 -123 611 -160 C611 -198 581 -228 543 -228 C506 -228 475 -198 475 -160 L475 -160 Z M429 -160 C429 -221 477 -270 543 -270 C609 -270 657 -221 657 -160 C657 -99 609 -51 543 -51 C477 -51 429 -99 429 -160 L429 -160 Z M985 0 L1072 0 L581 560 L505 560 L14 0 L101 0 L204 117 L882 117 L985 0 Z M543 503 L834 172 L252 172 L543 503 Z " />
<glyph glyph-name="uni1E02" unicode="&#x1e02;" horiz-adv-x="1259" d="M125 0 L945 0 C1112 0 1176 81 1176 182 C1176 268 1129 340 1012 359 C1092 385 1126 448 1126 521 C1126 621 1063 700 898 700 L125 700 L125 0 Z M927 318 C1053 318 1094 262 1094 194 C1094 125 1053 70 927 70 L202 70 L202 318 L927 318 Z M1047 506 C1047 439 1007 382 886 382 L202 382 L202 630 L879 630 C1003 630 1047 574 1047 506 L1047 506 Z M563 819 L646 819 L646 901 L563 901 L563 819 Z " />
<glyph glyph-name="uni1E03" unicode="&#x1e03;" horiz-adv-x="1084" d="M115 0 L818 0 C961 0 1009 64 1009 146 C1009 215 973 272 874 288 C942 309 967 358 967 417 C967 497 919 560 779 560 L115 560 L115 0 Z M801 253 C906 253 934 209 934 157 C934 104 906 61 801 61 L185 61 L185 253 L801 253 Z M766 307 L185 307 L185 499 L760 499 C863 499 894 456 894 403 C894 351 866 307 766 307 L766 307 Z M475 679 L558 679 L558 761 L475 761 L475 679 Z " />
<glyph glyph-name="uni1E04" unicode="&#x1e04;" horiz-adv-x="1259" d="M603 -202 L686 -202 L686 -120 L603 -120 L603 -202 Z M125 0 L945 0 C1112 0 1176 81 1176 182 C1176 268 1129 340 1012 359 C1092 385 1126 448 1126 521 C1126 621 1063 700 898 700 L125 700 L125 0 Z M927 318 C1053 318 1094 262 1094 194 C1094 125 1053 70 927 70 L202 70 L202 318 L927 318 Z M1047 506 C1047 439 1007 382 886 382 L202 382 L202 630 L879 630 C1003 630 1047 574 1047 506 L1047 506 Z " />
<glyph glyph-name="uni1E05" unicode="&#x1e05;" horiz-adv-x="1084" d="M515 -202 L598 -202 L598 -120 L515 -120 L515 -202 Z M115 0 L818 0 C961 0 1009 64 1009 146 C1009 215 973 272 874 288 C942 309 967 358 967 417 C967 497 919 560 779 560 L115 560 L115 0 Z M801 253 C906 253 934 209 934 157 C934 104 906 61 801 61 L185 61 L185 253 L801 253 Z M766 307 L185 307 L185 499 L760 499 C863 499 894 456 894 403 C894 351 866 307 766 307 L766 307 Z " />
<glyph glyph-name="uni1E06" unicode="&#x1e06;" horiz-adv-x="1259" d="M467 -187 L823 -187 L823 -135 L467 -135 L467 -187 Z M125 0 L945 0 C1112 0 1176 81 1176 182 C1176 268 1129 340 1012 359 C1092 385 1126 448 1126 521 C1126 621 1063 700 898 700 L125 700 L125 0 Z M927 318 C1053 318 1094 262 1094 194 C1094 125 1053 70 927 70 L202 70 L202 318 L927 318 Z M1047 506 C1047 439 1007 382 886 382 L202 382 L202 630 L879 630 C1003 630 1047 574 1047 506 L1047 506 Z " />
<glyph glyph-name="uni1E07" unicode="&#x1e07;" horiz-adv-x="1084" d="M379 -187 L735 -187 L735 -135 L379 -135 L379 -187 Z M115 0 L818 0 C961 0 1009 64 1009 146 C1009 215 973 272 874 288 C942 309 967 358 967 417 C967 497 919 560 779 560 L115 560 L115 0 Z M801 253 C906 253 934 209 934 157 C934 104 906 61 801 61 L185 61 L185 253 L801 253 Z M766 307 L185 307 L185 499 L760 499 C863 499 894 456 894 403 C894 351 866 307 766 307 L766 307 Z " />
<glyph glyph-name="uni1E08" unicode="&#x1e08;" horiz-adv-x="1184" d="M596 -104 L619 -104 C685 -104 722 -117 722 -161 C722 -237 573 -222 527 -198 L527 -234 C600 -269 778 -281 778 -163 C778 -86 713 -69 640 -69 L638 -69 L656 0 L1101 0 L1101 70 L520 70 C253 70 160 195 160 350 C160 505 253 630 520 630 L1101 630 L1101 700 L519 700 C202 700 78 543 78 350 C78 157 202 0 519 0 L624 0 L596 -104 Z M576 775 L625 775 L777 946 L685 946 L576 775 Z " />
<glyph glyph-name="uni1E09" unicode="&#x1e09;" horiz-adv-x="1016" d="M482 -104 L505 -104 C571 -104 608 -117 608 -161 C608 -237 459 -222 413 -198 L413 -234 C486 -269 664 -281 664 -163 C664 -86 599 -69 526 -69 L524 -69 L542 0 L941 0 L941 61 L438 61 C214 61 145 159 145 280 C145 401 214 499 438 499 L941 499 L941 560 L438 560 C168 560 71 434 71 280 C71 126 168 0 438 0 L510 0 L482 -104 Z M482 635 L531 635 L683 806 L591 806 L482 635 Z " />
<glyph glyph-name="uni1E0A" unicode="&#x1e0a;" horiz-adv-x="1255" d="M125 0 L736 0 C1053 0 1177 157 1177 350 C1177 543 1053 700 736 700 L125 700 L125 0 Z M735 630 C1002 630 1095 505 1095 350 C1095 195 1002 70 735 70 L202 70 L202 630 L735 630 Z M570 819 L653 819 L653 901 L570 901 L570 819 Z " />
<glyph glyph-name="uni1E0B" unicode="&#x1e0b;" horiz-adv-x="1081" d="M489 679 L572 679 L572 761 L489 761 L489 679 Z M115 0 L643 0 C913 0 1010 126 1010 280 C1010 434 913 560 643 560 L115 560 L115 0 Z M643 499 C867 499 936 401 936 280 C936 159 867 61 643 61 L185 61 L185 499 L643 499 Z " />
<glyph glyph-name="uni1E0C" unicode="&#x1e0c;" horiz-adv-x="1255" d="M125 0 L736 0 C1053 0 1177 157 1177 350 C1177 543 1053 700 736 700 L125 700 L125 0 Z M735 630 C1002 630 1095 505 1095 350 C1095 195 1002 70 735 70 L202 70 L202 630 L735 630 Z M570 -202 L653 -202 L653 -120 L570 -120 L570 -202 Z " />
<glyph glyph-name="uni1E0D" unicode="&#x1e0d;" horiz-adv-x="1081" d="M115 0 L643 0 C913 0 1010 126 1010 280 C1010 434 913 560 643 560 L115 560 L115 0 Z M643 499 C867 499 936 401 936 280 C936 159 867 61 643 61 L185 61 L185 499 L643 499 Z M489 -202 L572 -202 L572 -120 L489 -120 L489 -202 Z " />
<glyph glyph-name="uni1E0E" unicode="&#x1e0e;" horiz-adv-x="1255" d="M125 0 L736 0 C1053 0 1177 157 1177 350 C1177 543 1053 700 736 700 L125 700 L125 0 Z M735 630 C1002 630 1095 505 1095 350 C1095 195 1002 70 735 70 L202 70 L202 630 L735 630 Z M434 -187 L790 -187 L790 -135 L434 -135 L434 -187 Z " />
<glyph glyph-name="uni1E0F" unicode="&#x1e0f;" horiz-adv-x="1081" d="M115 0 L643 0 C913 0 1010 126 1010 280 C1010 434 913 560 643 560 L115 560 L115 0 Z M643 499 C867 499 936 401 936 280 C936 159 867 61 643 61 L185 61 L185 499 L643 499 Z M353 -187 L709 -187 L709 -135 L353 -135 L353 -187 Z " />
<glyph glyph-name="uni1E10" unicode="&#x1e10;" horiz-adv-x="1255" d="M125 0 L736 0 C1053 0 1177 157 1177 350 C1177 543 1053 700 736 700 L125 700 L125 0 Z M735 630 C1002 630 1095 505 1095 350 C1095 195 1002 70 735 70 L202 70 L202 630 L735 630 Z M572 -202 L607 -202 L567 -302 L604 -302 L655 -197 L655 -120 L572 -120 L572 -202 Z " />
<glyph glyph-name="uni1E11" unicode="&#x1e11;" horiz-adv-x="1081" d="M115 0 L643 0 C913 0 1010 126 1010 280 C1010 434 913 560 643 560 L115 560 L115 0 Z M643 499 C867 499 936 401 936 280 C936 159 867 61 643 61 L185 61 L185 499 L643 499 Z M491 -202 L526 -202 L486 -302 L523 -302 L574 -197 L574 -120 L491 -120 L491 -202 Z " />
<glyph glyph-name="uni1E12" unicode="&#x1e12;" horiz-adv-x="1255" d="M125 0 L736 0 C1053 0 1177 157 1177 350 C1177 543 1053 700 736 700 L125 700 L125 0 Z M735 630 C1002 630 1095 505 1095 350 C1095 195 1002 70 735 70 L202 70 L202 630 L735 630 Z M658 -75 L564 -75 L441 -246 L490 -246 L611 -117 L732 -246 L783 -246 L658 -75 Z " />
<glyph glyph-name="uni1E13" unicode="&#x1e13;" horiz-adv-x="1081" d="M115 0 L643 0 C913 0 1010 126 1010 280 C1010 434 913 560 643 560 L115 560 L115 0 Z M643 499 C867 499 936 401 936 280 C936 159 867 61 643 61 L185 61 L185 499 L643 499 Z M577 -75 L483 -75 L360 -246 L409 -246 L530 -117 L651 -246 L702 -246 L577 -75 Z " />
<glyph glyph-name="uni1E14" unicode="&#x1e14;" horiz-adv-x="1199" d="M125 0 L1116 0 L1116 70 L202 70 L202 318 L1014 318 L1014 382 L202 382 L202 630 L1116 630 L1116 700 L125 700 L125 0 Z M431 834 L787 834 L787 886 L431 886 L431 834 Z M565 1123 L473 1123 L625 952 L674 952 L565 1123 Z " />
<glyph glyph-name="uni1E15" unicode="&#x1e15;" horiz-adv-x="1034" d="M115 0 L958 0 L958 61 L185 61 L185 253 L871 253 L871 307 L185 307 L185 499 L958 499 L958 560 L115 560 L115 0 Z M351 694 L707 694 L707 746 L351 746 L351 694 Z M485 983 L393 983 L545 812 L594 812 L485 983 Z " />
<glyph glyph-name="uni1E16" unicode="&#x1e16;" horiz-adv-x="1199" d="M125 0 L1116 0 L1116 70 L202 70 L202 318 L1014 318 L1014 382 L202 382 L202 630 L1116 630 L1116 700 L125 700 L125 0 Z M431 834 L787 834 L787 886 L431 886 L431 834 Z M543 952 L592 952 L744 1123 L652 1123 L543 952 Z " />
<glyph glyph-name="uni1E17" unicode="&#x1e17;" horiz-adv-x="1034" d="M115 0 L958 0 L958 61 L185 61 L185 253 L871 253 L871 307 L185 307 L185 499 L958 499 L958 560 L115 560 L115 0 Z M351 694 L707 694 L707 746 L351 746 L351 694 Z M463 812 L512 812 L664 983 L572 983 L463 812 Z " />
<glyph glyph-name="uni1E18" unicode="&#x1e18;" horiz-adv-x="1199" d="M125 0 L1116 0 L1116 70 L202 70 L202 318 L1014 318 L1014 382 L202 382 L202 630 L1116 630 L1116 700 L125 700 L125 0 Z M655 -75 L561 -75 L438 -246 L487 -246 L608 -117 L729 -246 L780 -246 L655 -75 Z " />
<glyph glyph-name="uni1E19" unicode="&#x1e19;" horiz-adv-x="1034" d="M115 0 L958 0 L958 61 L185 61 L185 253 L871 253 L871 307 L185 307 L185 499 L958 499 L958 560 L115 560 L115 0 Z M575 -75 L481 -75 L358 -246 L407 -246 L528 -117 L649 -246 L700 -246 L575 -75 Z " />
<glyph glyph-name="uni1E1A" unicode="&#x1e1a;" horiz-adv-x="1199" d="M125 0 L1116 0 L1116 70 L202 70 L202 318 L1014 318 L1014 382 L202 382 L202 630 L1116 630 L1116 700 L125 700 L125 0 Z M741 -92 C735 -154 714 -164 686 -164 C638 -164 596 -100 532 -100 C481 -100 446 -129 437 -229 L477 -229 C483 -168 504 -156 532 -156 C579 -156 621 -221 686 -221 C737 -221 773 -193 781 -92 L741 -92 Z " />
<glyph glyph-name="uni1E1B" unicode="&#x1e1b;" horiz-adv-x="1034" d="M115 0 L958 0 L958 61 L185 61 L185 253 L871 253 L871 307 L185 307 L185 499 L958 499 L958 560 L115 560 L115 0 Z M661 -92 C655 -154 634 -164 606 -164 C558 -164 516 -100 452 -100 C401 -100 366 -129 357 -229 L397 -229 C403 -168 424 -156 452 -156 C499 -156 541 -221 606 -221 C657 -221 693 -193 701 -92 L661 -92 Z " />
<glyph glyph-name="uni1E1C" unicode="&#x1e1c;" horiz-adv-x="1199" d="M125 0 L591 0 L563 -104 L586 -104 C652 -104 689 -117 689 -161 C689 -237 540 -222 494 -198 L494 -234 C567 -269 745 -281 745 -163 C745 -86 680 -69 607 -69 L605 -69 L623 0 L1116 0 L1116 70 L202 70 L202 318 L1014 318 L1014 382 L202 382 L202 630 L1116 630 L1116 700 L125 700 L125 0 Z M610 839 C526 839 495 883 490 933 L446 933 C452 862 488 787 610 787 C731 787 768 862 773 933 L730 933 C724 883 694 839 610 839 L610 839 Z " />
<glyph glyph-name="uni1E1D" unicode="&#x1e1d;" horiz-adv-x="1034" d="M115 0 L510 0 L482 -104 L505 -104 C571 -104 608 -117 608 -161 C608 -237 459 -222 413 -198 L413 -234 C486 -269 664 -281 664 -163 C664 -86 599 -69 526 -69 L524 -69 L542 0 L958 0 L958 61 L185 61 L185 253 L871 253 L871 307 L185 307 L185 499 L958 499 L958 560 L115 560 L115 0 Z M529 699 C445 699 414 743 409 793 L365 793 C371 722 407 647 529 647 C650 647 687 722 692 793 L649 793 C643 743 613 699 529 699 L529 699 Z " />
<glyph glyph-name="uni1E1E" unicode="&#x1e1e;" horiz-adv-x="1159" d="M125 0 L202 0 L202 311 L1014 311 L1014 381 L202 381 L202 630 L1116 630 L1116 700 L125 700 L125 0 Z M558 819 L641 819 L641 901 L558 901 L558 819 Z " />
<glyph glyph-name="uni1E1F" unicode="&#x1e1f;" horiz-adv-x="1017" d="M115 0 L185 0 L185 246 L871 246 L871 307 L185 307 L185 499 L958 499 L958 560 L115 560 L115 0 Z M482 679 L565 679 L565 761 L482 761 L482 679 Z " />
<glyph glyph-name="uni1E20" unicode="&#x1e20;" horiz-adv-x="1256" d="M667 318 L1080 318 L1080 70 L520 70 C253 70 160 195 160 350 C160 505 253 630 520 630 L1101 630 L1101 700 L519 700 C202 700 78 543 78 350 C78 157 202 0 519 0 L1156 0 L1156 382 L667 382 L667 318 Z M474 834 L830 834 L830 886 L474 886 L474 834 Z " />
<glyph glyph-name="uni1E21" unicode="&#x1e21;" horiz-adv-x="1081" d="M571 253 L919 253 L919 61 L438 61 C214 61 145 159 145 280 C145 401 214 499 438 499 L941 499 L941 560 L438 560 C168 560 71 434 71 280 C71 126 168 0 438 0 L988 0 L988 307 L571 307 L571 253 Z M374 694 L730 694 L730 746 L374 746 L374 694 Z " />
<glyph glyph-name="uni1E22" unicode="&#x1e22;" horiz-adv-x="1305" d="M1103 0 L1180 0 L1180 700 L1103 700 L1103 385 L202 385 L202 700 L125 700 L125 0 L202 0 L202 315 L1103 315 L1103 0 Z M611 819 L694 819 L694 901 L611 901 L611 819 Z " />
<glyph glyph-name="uni1E23" unicode="&#x1e23;" horiz-adv-x="1128" d="M943 0 L1013 0 L1013 560 L943 560 L943 311 L185 311 L185 560 L115 560 L115 0 L185 0 L185 249 L943 249 L943 0 Z M522 679 L605 679 L605 761 L522 761 L522 679 Z " />
<glyph glyph-name="uni1E24" unicode="&#x1e24;" horiz-adv-x="1305" d="M611 -202 L694 -202 L694 -120 L611 -120 L611 -202 Z M1103 0 L1180 0 L1180 700 L1103 700 L1103 385 L202 385 L202 700 L125 700 L125 0 L202 0 L202 315 L1103 315 L1103 0 Z " />
<glyph glyph-name="uni1E25" unicode="&#x1e25;" horiz-adv-x="1128" d="M522 -202 L605 -202 L605 -120 L522 -120 L522 -202 Z M943 0 L1013 0 L1013 560 L943 560 L943 311 L185 311 L185 560 L115 560 L115 0 L185 0 L185 249 L943 249 L943 0 Z " />
<glyph glyph-name="uni1E26" unicode="&#x1e26;" horiz-adv-x="1305" d="M1103 0 L1180 0 L1180 700 L1103 700 L1103 385 L202 385 L202 700 L125 700 L125 0 L202 0 L202 315 L1103 315 L1103 0 Z M740 819 L823 819 L823 901 L740 901 L740 819 Z M481 819 L564 819 L564 901 L481 901 L481 819 Z " />
<glyph glyph-name="uni1E27" unicode="&#x1e27;" horiz-adv-x="1128" d="M943 0 L1013 0 L1013 560 L943 560 L943 311 L185 311 L185 560 L115 560 L115 0 L185 0 L185 249 L943 249 L943 0 Z M652 679 L735 679 L735 761 L652 761 L652 679 Z M393 679 L476 679 L476 761 L393 761 L393 679 Z " />
<glyph glyph-name="uni1E28" unicode="&#x1e28;" horiz-adv-x="1305" d="M118 -104 L141 -104 C207 -104 244 -117 244 -161 C244 -237 95 -222 49 -198 L49 -234 C122 -269 300 -281 300 -163 C300 -86 235 -69 162 -69 L160 -69 L178 0 L202 0 L202 315 L1103 315 L1103 0 L1180 0 L1180 700 L1103 700 L1103 385 L202 385 L202 700 L125 700 L125 0 L146 0 L118 -104 Z " />
<glyph glyph-name="uni1E29" unicode="&#x1e29;" horiz-adv-x="1128" d="M104 -104 L127 -104 C193 -104 230 -117 230 -161 C230 -237 81 -222 35 -198 L35 -234 C108 -269 286 -281 286 -163 C286 -86 221 -69 148 -69 L146 -69 L164 0 L185 0 L185 249 L943 249 L943 0 L1013 0 L1013 560 L943 560 L943 311 L185 311 L185 560 L115 560 L115 0 L132 0 L104 -104 Z " />
<glyph glyph-name="uni1E2A" unicode="&#x1e2a;" horiz-adv-x="1305" d="M653 -182 C569 -182 538 -138 533 -88 L489 -88 C495 -159 531 -234 653 -234 C774 -234 811 -159 816 -88 L773 -88 C767 -138 737 -182 653 -182 L653 -182 Z M1103 0 L1180 0 L1180 700 L1103 700 L1103 385 L202 385 L202 700 L125 700 L125 0 L202 0 L202 315 L1103 315 L1103 0 Z " />
<glyph glyph-name="uni1E2B" unicode="&#x1e2b;" horiz-adv-x="1128" d="M564 -182 C480 -182 449 -138 444 -88 L400 -88 C406 -159 442 -234 564 -234 C685 -234 722 -159 727 -88 L684 -88 C678 -138 648 -182 564 -182 L564 -182 Z M943 0 L1013 0 L1013 560 L943 560 L943 311 L185 311 L185 560 L115 560 L115 0 L185 0 L185 249 L943 249 L943 0 Z " />
<glyph glyph-name="uni1E2C" unicode="&#x1e2c;" horiz-adv-x="327" d="M296 -92 C290 -154 269 -164 241 -164 C193 -164 151 -100 87 -100 C36 -100 1 -129 -8 -229 L32 -229 C38 -168 59 -156 87 -156 C134 -156 176 -221 241 -221 C292 -221 328 -193 336 -92 L296 -92 Z M125 0 L202 0 L202 700 L125 700 L125 0 Z " />
<glyph glyph-name="uni1E2D" unicode="&#x1e2d;" horiz-adv-x="300" d="M282 -92 C276 -154 255 -164 227 -164 C179 -164 137 -100 73 -100 C22 -100 -13 -129 -22 -229 L18 -229 C24 -168 45 -156 73 -156 C120 -156 162 -221 227 -221 C278 -221 314 -193 322 -92 L282 -92 Z M115 0 L185 0 L185 560 L115 560 L115 0 Z " />
<glyph glyph-name="uni1E2E" unicode="&#x1e2e;" horiz-adv-x="327" d="M125 0 L202 0 L202 700 L125 700 L125 0 Z M252 819 L335 819 L335 901 L252 901 L252 819 Z M-7 819 L76 819 L76 901 L-7 901 L-7 819 Z M98 956 L147 956 L299 1127 L207 1127 L98 956 Z " />
<glyph glyph-name="uni1E2F" unicode="&#x1e2f;" horiz-adv-x="300" d="M115 0 L185 0 L185 560 L115 560 L115 0 Z M238 679 L321 679 L321 761 L238 761 L238 679 Z M-21 679 L62 679 L62 761 L-21 761 L-21 679 Z M84 816 L133 816 L285 987 L193 987 L84 816 Z " />
<glyph glyph-name="uni1E30" unicode="&#x1e30;" horiz-adv-x="1287" d="M1188 700 L1052 700 L202 223 L202 700 L125 700 L125 0 L202 0 L202 145 L544 337 L1144 0 L1279 0 L615 377 L1188 700 Z M537 775 L586 775 L738 946 L646 946 L537 775 Z " />
<glyph glyph-name="uni1E31" unicode="&#x1e31;" horiz-adv-x="1111" d="M1026 560 L897 560 L185 184 L185 560 L115 560 L115 0 L185 0 L185 115 L474 268 L974 0 L1098 0 L538 302 L1026 560 Z M454 635 L503 635 L655 806 L563 806 L454 635 Z " />
<glyph glyph-name="uni1E32" unicode="&#x1e32;" horiz-adv-x="1287" d="M1188 700 L1052 700 L202 223 L202 700 L125 700 L125 0 L202 0 L202 145 L544 337 L1144 0 L1279 0 L615 377 L1188 700 Z M600 -202 L683 -202 L683 -120 L600 -120 L600 -202 Z " />
<glyph glyph-name="uni1E33" unicode="&#x1e33;" horiz-adv-x="1111" d="M1026 560 L897 560 L185 184 L185 560 L115 560 L115 0 L185 0 L185 115 L474 268 L974 0 L1098 0 L538 302 L1026 560 Z M511 -202 L594 -202 L594 -120 L511 -120 L511 -202 Z " />
<glyph glyph-name="uni1E34" unicode="&#x1e34;" horiz-adv-x="1287" d="M1188 700 L1052 700 L202 223 L202 700 L125 700 L125 0 L202 0 L202 145 L544 337 L1144 0 L1279 0 L615 377 L1188 700 Z M464 -187 L820 -187 L820 -135 L464 -135 L464 -187 Z " />
<glyph glyph-name="uni1E35" unicode="&#x1e35;" horiz-adv-x="1111" d="M1026 560 L897 560 L185 184 L185 560 L115 560 L115 0 L185 0 L185 115 L474 268 L974 0 L1098 0 L538 302 L1026 560 Z M375 -187 L731 -187 L731 -135 L375 -135 L375 -187 Z " />
<glyph glyph-name="uni1E36" unicode="&#x1e36;" horiz-adv-x="1129" d="M202 700 L125 700 L125 0 L1096 0 L1096 70 L202 70 L202 700 Z M563 -202 L646 -202 L646 -120 L563 -120 L563 -202 Z " />
<glyph glyph-name="uni1E37" unicode="&#x1e37;" horiz-adv-x="987" d="M185 560 L115 560 L115 0 L941 0 L941 61 L185 61 L185 560 Z M489 -202 L572 -202 L572 -120 L489 -120 L489 -202 Z " />
<glyph glyph-name="uni1E38" unicode="&#x1e38;" horiz-adv-x="1129" d="M202 700 L125 700 L125 0 L1096 0 L1096 70 L202 70 L202 700 Z M563 -202 L646 -202 L646 -120 L563 -120 L563 -202 Z M17 834 L373 834 L373 886 L17 886 L17 834 Z " />
<glyph glyph-name="uni1E39" unicode="&#x1e39;" horiz-adv-x="987" d="M185 560 L115 560 L115 0 L941 0 L941 61 L185 61 L185 560 Z M489 -202 L572 -202 L572 -120 L489 -120 L489 -202 Z M3 694 L359 694 L359 746 L3 746 L3 694 Z " />
<glyph glyph-name="uni1E3A" unicode="&#x1e3a;" horiz-adv-x="1129" d="M202 700 L125 700 L125 0 L1096 0 L1096 70 L202 70 L202 700 Z M427 -187 L783 -187 L783 -135 L427 -135 L427 -187 Z " />
<glyph glyph-name="uni1E3B" unicode="&#x1e3b;" horiz-adv-x="987" d="M185 560 L115 560 L115 0 L941 0 L941 61 L185 61 L185 560 Z M353 -187 L709 -187 L709 -135 L353 -135 L353 -187 Z " />
</font>
</svg>
