<?xml version="1.0" encoding="UTF-8"?>
<svg xmlns="http://www.w3.org/2000/svg" xmlns:xlink="http://www.w3.org/1999/xlink" version="1.2" >
<font id="Stereo Gothic 100 Italic">
<font-face  font-family="Stereo Gothic" units-per-em="1000" ascent="700" descent="-300" font-style="italic" font-weight="100" font-stretch="normal" slope="-10" cap-height="700" x-height="560" underline-position="-75" underline-thickness="50" />
<missing-glyph  horiz-adv-x="1000" d="M152 0 L852 0 L852 700 L152 700 L152 0 Z M185 20 L830 665 L830 20 L185 20 Z M174 680 L815 680 L174 39 L174 680 Z " />
<glyph glyph-name="NULL" d="" />
<glyph glyph-name="CR" unicode="&#xd;" horiz-adv-x="250" d="" />
<glyph glyph-name="space" unicode="&#x20;" horiz-adv-x="480" d="" />
<glyph glyph-name="exclam" unicode="&#x21;" horiz-adv-x="278" d="M59 0 L99 0 L106 41 L66 41 L59 0 Z M86 112 L103 112 L217 700 L192 700 L86 112 Z " />
<glyph glyph-name="quotedbl" unicode="&#x22;" horiz-adv-x="407" d="M121 400 L136 400 L198 700 L169 700 L121 400 Z M293 400 L308 400 L370 700 L341 700 L293 400 Z " />
<glyph glyph-name="numbersign" unicode="&#x23;" horiz-adv-x="1246" d="M875 0 L896 0 L956 220 L1099 220 L1104 240 L963 240 L1025 460 L1173 460 L1176 480 L1030 480 L1092 700 L1071 700 L1009 480 L313 480 L375 700 L354 700 L292 480 L150 480 L147 460 L287 460 L226 240 L79 240 L74 220 L219 220 L159 0 L180 0 L240 220 L935 220 L875 0 Z M308 460 L1004 460 L942 240 L247 240 L308 460 Z " />
<glyph glyph-name="dollar" unicode="&#x24;" horiz-adv-x="1246" d="M547 -20 L569 -20 L586 70 L892 70 C1037 70 1097 150 1097 238 C1097 307 1056 360 944 360 L638 360 L683 610 L1135 610 L1138 630 L686 630 L703 720 L681 720 L664 630 L358 630 C212 630 153 548 153 458 C153 390 197 340 306 340 L612 340 L568 90 L116 90 L112 70 L564 70 L547 -20 Z M311 360 C214 360 176 404 176 463 C176 542 234 610 360 610 L660 610 L616 360 L311 360 Z M939 340 C1036 340 1074 296 1074 237 C1074 158 1016 90 890 90 L590 90 L634 340 L939 340 Z " />
<glyph glyph-name="percent" unicode="&#x25;" horiz-adv-x="1246" d="M1101 700 L117 0 L150 0 L1135 700 L1101 700 Z M580 576 C592 645 560 700 452 700 L311 700 C201 700 157 650 144 578 L125 474 C113 405 145 350 253 350 L394 350 C504 350 548 400 561 472 L580 576 Z M165 575 C176 633 212 680 306 680 L448 680 C542 680 568 633 558 575 L539 475 C529 417 493 370 399 370 L256 370 C163 370 137 417 147 475 L165 575 Z M1124 226 C1138 295 1105 350 998 350 L856 350 C747 350 700 300 688 228 L671 124 C658 55 692 0 799 0 L941 0 C1050 0 1095 50 1107 122 L1124 226 Z M710 225 C720 283 759 330 853 330 L995 330 C1089 330 1113 283 1103 225 L1086 125 C1075 67 1038 20 944 20 L802 20 C708 20 683 67 693 125 L710 225 Z " />
<glyph glyph-name="ampersand" unicode="&#x26;" horiz-adv-x="1263" d="M255 0 L864 0 C1045 0 1116 99 1116 209 C1116 266 1088 319 1027 340 L1189 340 L1193 360 L359 360 C240 360 197 420 197 492 C197 588 260 680 428 680 L1041 680 L1044 700 L428 700 C247 700 174 598 174 490 C174 428 203 375 268 357 C122 341 64 244 64 149 C64 66 117 0 255 0 L255 0 Z M863 20 L261 20 C135 20 87 77 87 153 C87 248 148 340 317 340 L920 340 C1045 340 1093 282 1093 208 C1093 109 1032 20 863 20 L863 20 Z " />
<glyph glyph-name="quotesingle" unicode="&#x27;" horiz-adv-x="235" d="M121 400 L136 400 L198 700 L169 700 L121 400 Z " />
<glyph glyph-name="parenleft" unicode="&#x28;" horiz-adv-x="454" d="M272 -116 C78 154 148 546 440 815 L421 815 C124 547 53 153 254 -116 L272 -116 Z " />
<glyph glyph-name="parenright" unicode="&#x29;" horiz-adv-x="454" d="M36 -116 C333 153 405 547 204 815 L185 815 C381 546 310 154 17 -116 L36 -116 Z " />
<glyph glyph-name="asterisk" unicode="&#x2a;" horiz-adv-x="564" d="M537 521 L530 546 L310 468 L321 700 L295 700 L297 468 L81 547 L73 522 L292 456 L148 274 L169 259 L303 448 L430 258 L451 273 L313 456 L537 521 Z " />
<glyph glyph-name="plus" unicode="&#x2b;" horiz-adv-x="1246" d="M285 340 L614 340 L614 30 L636 30 L636 340 L965 340 L965 360 L636 360 L636 670 L614 670 L614 360 L285 360 L285 340 Z " />
<glyph glyph-name="comma" unicode="&#x2c;" horiz-adv-x="241" d="M41 0 L63 0 L29 -79 L42 -79 L81 0 L88 41 L47 41 L41 0 Z " />
<glyph glyph-name="hyphen" unicode="&#x2d;" horiz-adv-x="576" d="M83 270 L467 270 L472 290 L88 290 L83 270 Z " />
<glyph glyph-name="period" unicode="&#x2e;" horiz-adv-x="241" d="M41 0 L81 0 L88 41 L47 41 L41 0 Z " />
<glyph glyph-name="slash" unicode="&#x2f;" horiz-adv-x="483" d="M-84 -75 L-61 -75 L572 775 L549 775 L-84 -75 Z " />
<glyph glyph-name="zero" unicode="0" horiz-adv-x="1246" d="M90 248 C65 111 130 0 345 0 L786 0 C1001 0 1099 106 1125 248 L1161 452 C1186 589 1121 700 906 700 L465 700 C250 700 152 594 126 452 L90 248 Z M903 680 C1103 680 1163 578 1139 451 L1103 251 C1080 122 990 20 787 20 L348 20 C147 20 89 123 112 249 L148 449 C171 578 261 680 464 680 L903 680 Z " />
<glyph glyph-name="one" unicode="1" horiz-adv-x="1246" d="M434 680 L730 680 L613 20 L172 20 L169 0 L957 0 L960 20 L635 20 L757 700 L439 700 L434 680 Z " />
<glyph glyph-name="two" unicode="2" horiz-adv-x="1246" d="M1065 20 L71 20 L100 180 C116 270 181 340 326 340 L933 340 C1114 340 1187 440 1187 550 C1187 634 1137 700 997 700 L209 700 L205 680 L992 680 C1119 680 1164 623 1164 548 C1164 447 1097 360 933 360 L329 360 C170 360 98 288 79 183 L46 0 L1061 0 L1065 20 Z " />
<glyph glyph-name="three" unicode="3" horiz-adv-x="1246" d="M26 0 L867 0 C1049 0 1121 100 1121 210 C1121 282 1078 340 982 354 C1086 383 1134 458 1134 556 C1134 636 1081 700 944 700 L171 700 L167 680 L938 680 C1064 680 1111 622 1111 547 C1111 456 1049 360 890 360 L193 360 L189 340 L924 340 C1052 340 1098 282 1098 208 C1098 107 1031 20 868 20 L30 20 L26 0 Z " />
<glyph glyph-name="four" unicode="4" horiz-adv-x="1246" d="M1115 700 L44 152 L41 133 L1013 133 L990 0 L1012 0 L1035 133 L1141 133 L1144 153 L1038 153 L1137 700 L1115 700 Z M89 153 L1110 676 L1016 153 L89 153 Z " />
<glyph glyph-name="five" unicode="5" horiz-adv-x="1246" d="M106 340 L929 340 C1055 340 1102 284 1102 209 C1102 108 1035 20 873 20 L67 20 L63 0 L871 0 C1053 0 1125 100 1125 209 C1125 293 1074 360 935 360 L132 360 L213 680 L1173 680 L1177 700 L198 700 L106 340 Z " />
<glyph glyph-name="six" unicode="6" horiz-adv-x="1246" d="M130 350 C162 532 293 680 582 680 L1164 680 L1167 700 L583 700 C276 700 142 546 108 350 L90 248 C65 111 130 0 345 0 L886 0 C1067 0 1140 100 1140 210 C1140 294 1089 360 950 360 L330 360 C215 360 146 318 113 257 L130 350 Z M326 340 L946 340 C1071 340 1117 283 1117 208 C1117 108 1050 20 887 20 L348 20 C180 20 112 92 107 190 C123 276 187 340 326 340 L326 340 Z " />
<glyph glyph-name="seven" unicode="7" horiz-adv-x="1246" d="M381 0 L1211 680 L1215 700 L152 700 L147 680 L1178 680 L349 0 L381 0 Z " />
<glyph glyph-name="eight" unicode="8" horiz-adv-x="1246" d="M243 0 L883 0 C1065 0 1137 100 1137 210 C1137 282 1094 340 998 354 C1102 383 1150 458 1150 556 C1150 636 1097 700 960 700 L416 700 C235 700 162 598 162 490 C162 428 191 375 256 357 C110 341 52 244 52 149 C52 66 105 0 243 0 L243 0 Z M884 20 L249 20 C123 20 75 77 75 153 C75 248 136 340 305 340 L939 340 C1068 340 1114 282 1114 208 C1114 109 1047 20 884 20 L884 20 Z M954 680 C1079 680 1127 621 1127 547 C1127 456 1066 360 906 360 L347 360 C228 360 185 419 185 492 C185 588 248 680 416 680 L954 680 Z " />
<glyph glyph-name="nine" unicode="9" horiz-adv-x="1246" d="M669 20 L87 20 L84 0 L668 0 C975 0 1109 154 1143 350 L1161 452 C1186 589 1121 700 906 700 L365 700 C184 700 111 600 111 490 C111 406 162 340 301 340 L921 340 C1036 340 1104 381 1137 443 L1121 350 C1089 168 958 20 669 20 L669 20 Z M925 360 L305 360 C180 360 134 417 134 492 C134 592 201 680 364 680 L903 680 C1071 680 1139 607 1143 509 C1127 424 1064 360 925 360 L925 360 Z " />
<glyph glyph-name="colon" unicode="&#x3a;" horiz-adv-x="241" d="M133 519 L174 519 L180 560 L140 560 L133 519 Z M41 0 L81 0 L88 41 L47 41 L41 0 Z " />
<glyph glyph-name="semicolon" unicode="&#x3b;" horiz-adv-x="241" d="M41 0 L63 0 L29 -79 L42 -79 L81 0 L88 41 L47 41 L41 0 Z M133 519 L174 519 L180 560 L140 560 L133 519 Z " />
<glyph glyph-name="less" unicode="&#x3c;" horiz-adv-x="1246" d="M955 62 L317 350 L955 638 L955 658 L295 360 L295 340 L955 42 L955 62 Z " />
<glyph glyph-name="equal" unicode="&#x3d;" horiz-adv-x="1246" d="M285 190 L965 190 L965 210 L285 210 L285 190 Z M285 490 L965 490 L965 510 L285 510 L285 490 Z " />
<glyph glyph-name="greater" unicode="&#x3e;" horiz-adv-x="1246" d="M295 42 L955 340 L955 360 L295 658 L295 638 L933 350 L295 62 L295 42 Z " />
<glyph glyph-name="question" unicode="&#x3f;" horiz-adv-x="1027" d="M308 112 L330 112 L370 340 L771 340 C952 340 1025 440 1025 550 C1025 634 975 700 834 700 L102 700 L98 680 L830 680 C957 680 1002 623 1002 548 C1002 447 935 360 771 360 L352 360 L308 112 Z M279 0 L320 0 L326 41 L286 41 L279 0 Z " />
<glyph glyph-name="at" unicode="&#x40;" horiz-adv-x="1342" d="M712 420 L638 420 C420 420 336 298 336 169 C336 69 399 -10 562 -10 L632 -10 C766 -10 843 31 892 99 L877 0 L1114 0 C1207 88 1250 198 1250 309 C1250 491 1141 635 844 635 L655 635 C226 635 51 394 51 129 C51 -69 181 -224 504 -224 L636 -224 L639 -204 L504 -204 C188 -204 75 -53 75 140 C75 382 245 615 656 615 L838 615 C1122 615 1228 479 1228 306 C1228 206 1185 95 1106 20 L901 20 L971 410 L950 410 L927 291 C909 364 846 420 712 420 L712 420 Z M568 10 C417 10 360 81 360 172 C360 289 435 400 635 400 L707 400 C863 400 915 326 915 232 C915 113 831 10 636 10 L568 10 Z " />
<glyph glyph-name="A" unicode="A" horiz-adv-x="1206" d="M1103 0 L1129 0 L681 700 L655 700 L-43 0 L-13 0 L143 157 L1003 157 L1103 0 Z M666 684 L990 177 L163 177 L666 684 Z " />
<glyph glyph-name="B" unicode="B" horiz-adv-x="1209" d="M65 0 L846 0 C1028 0 1100 100 1100 210 C1100 282 1057 340 961 354 C1065 383 1113 458 1113 556 C1113 636 1060 700 923 700 L190 700 L65 0 Z M902 340 C1031 340 1077 282 1077 208 C1077 109 1010 20 847 20 L91 20 L147 340 L902 340 Z M1090 547 C1090 456 1029 360 869 360 L151 360 L208 680 L917 680 C1042 680 1090 621 1090 547 L1090 547 Z " />
<glyph glyph-name="C" unicode="C" horiz-adv-x="1137" d="M97 298 C97 497 230 680 562 680 L1113 680 L1117 700 L561 700 C215 700 74 507 74 296 C74 130 176 0 444 0 L992 0 L995 20 L447 20 C191 20 97 142 97 298 L97 298 Z " />
<glyph glyph-name="D" unicode="D" horiz-adv-x="1205" d="M65 0 L647 0 C994 0 1134 193 1134 404 C1134 569 1032 700 764 700 L190 700 L65 0 Z M761 680 C1016 680 1111 557 1111 402 C1111 203 978 20 646 20 L90 20 L207 680 L761 680 Z " />
<glyph glyph-name="E" unicode="E" horiz-adv-x="1151" d="M65 0 L1007 0 L1010 20 L90 20 L146 340 L968 340 L973 360 L151 360 L207 680 L1127 680 L1132 700 L190 700 L65 0 Z " />
<glyph glyph-name="F" unicode="F" horiz-adv-x="1113" d="M65 0 L87 0 L146 340 L968 340 L973 360 L151 360 L207 680 L1127 680 L1132 700 L190 700 L65 0 Z " />
<glyph glyph-name="G" unicode="G" horiz-adv-x="1206" d="M644 340 L1082 340 L1026 20 L447 20 C191 20 97 142 97 298 C97 497 230 680 562 680 L1113 680 L1117 700 L561 700 C215 700 74 507 74 296 C74 130 176 0 444 0 L1045 0 L1109 360 L649 360 L644 340 Z " />
<glyph glyph-name="H" unicode="H" horiz-adv-x="1253" d="M1046 0 L1068 0 L1193 700 L1171 700 L1110 360 L151 360 L212 700 L190 700 L65 0 L87 0 L146 340 L1105 340 L1046 0 Z " />
<glyph glyph-name="I" unicode="I" horiz-adv-x="272" d="M65 0 L87 0 L212 700 L190 700 L65 0 Z " />
<glyph glyph-name="J" unicode="J" horiz-adv-x="1163" d="M315 -5 L604 -5 C908 -5 1018 117 1052 308 L1122 700 L1100 700 L1032 319 C998 131 892 15 606 15 L322 15 C89 15 27 130 57 272 L65 310 L44 310 L37 275 C6 122 72 -5 315 -5 L315 -5 Z " />
<glyph glyph-name="K" unicode="K" horiz-adv-x="1229" d="M1194 700 L1147 700 L118 173 L212 700 L190 700 L65 0 L87 0 L112 147 L524 358 L1114 0 L1157 0 L547 369 L1194 700 Z " />
<glyph glyph-name="L" unicode="L" horiz-adv-x="1084" d="M212 700 L190 700 L65 0 L988 0 L990 20 L90 20 L212 700 Z " />
<glyph glyph-name="M" unicode="M" horiz-adv-x="1385" d="M1302 700 L642 66 L209 700 L190 700 L65 0 L86 0 L205 669 L638 38 L1296 669 L1179 0 L1200 0 L1325 700 L1302 700 Z " />
<glyph glyph-name="N" unicode="N" horiz-adv-x="1250" d="M1044 0 L1065 0 L1190 700 L1168 700 L1047 23 L211 700 L190 700 L65 0 L87 0 L206 677 L1044 0 Z " />
<glyph glyph-name="O" unicode="O" horiz-adv-x="1294" d="M726 -10 C1088 -10 1223 194 1223 414 C1223 581 1116 710 846 710 L573 710 C216 710 74 511 74 293 C74 122 180 -10 453 -10 L726 -10 Z M457 10 C193 10 97 134 97 296 C97 501 234 690 576 690 L842 690 C1104 690 1200 568 1200 408 C1200 204 1071 10 724 10 L457 10 Z " />
<glyph glyph-name="P" unicode="P" horiz-adv-x="1148" d="M65 0 L87 0 L140 300 L860 300 C1063 300 1143 407 1143 531 C1143 625 1087 700 932 700 L190 700 L65 0 Z M927 680 C1069 680 1120 612 1120 528 C1120 418 1045 320 860 320 L143 320 L208 680 L927 680 Z " />
<glyph glyph-name="Q" unicode="Q" horiz-adv-x="1294" d="M726 -10 C795 -10 856 -2 910 11 L1160 -110 L1208 -110 L937 19 C1142 83 1223 243 1223 414 C1223 581 1116 710 846 710 L573 710 C216 710 74 511 74 293 C74 122 180 -10 453 -10 L726 -10 Z M457 10 C193 10 97 134 97 296 C97 501 234 690 576 690 L842 690 C1104 690 1200 568 1200 408 C1200 204 1071 10 724 10 L457 10 Z " />
<glyph glyph-name="R" unicode="R" horiz-adv-x="1224" d="M65 0 L87 0 L140 300 L617 300 L1111 0 L1152 0 L657 300 L841 300 C1044 300 1124 407 1124 531 C1124 625 1068 700 913 700 L190 700 L65 0 Z M908 680 C1050 680 1101 612 1101 528 C1101 418 1026 320 841 320 L143 320 L208 680 L908 680 Z " />
<glyph glyph-name="S" unicode="S" horiz-adv-x="1159" d="M805 20 L59 20 L55 0 L804 0 C985 0 1058 100 1058 210 C1058 294 1007 360 868 360 L301 360 C176 360 130 417 130 493 C130 592 197 680 359 680 L1106 680 L1109 700 L361 700 C180 700 107 600 107 490 C107 406 158 340 297 340 L864 340 C989 340 1035 283 1035 207 C1035 108 968 20 805 20 L805 20 Z " />
<glyph glyph-name="T" unicode="T" horiz-adv-x="1137" d="M97 680 L618 680 L497 0 L519 0 L640 680 L1161 680 L1165 700 L102 700 L97 680 Z " />
<glyph glyph-name="U" unicode="U" horiz-adv-x="1224" d="M124 323 L193 700 L171 700 L102 323 C67 130 143 -10 447 -10 L665 -10 C969 -10 1080 121 1114 311 L1184 700 L1162 700 L1094 320 C1060 132 953 10 667 10 L452 10 C161 10 92 138 124 323 L124 323 Z " />
<glyph glyph-name="V" unicode="V" horiz-adv-x="1206" d="M556 0 L1254 700 L1224 700 L544 16 L110 700 L82 700 L530 0 L556 0 Z " />
<glyph glyph-name="W" unicode="W" horiz-adv-x="1553" d="M836 674 L1075 0 L1093 0 L1590 700 L1563 700 L1087 27 L850 700 L832 700 L352 27 L119 700 L94 700 L340 0 L358 0 L836 674 Z " />
<glyph glyph-name="X" unicode="X" horiz-adv-x="1179" d="M105 700 L573 351 L-25 0 L15 0 L591 340 L1049 0 L1085 0 L611 351 L1205 700 L1165 700 L592 362 L141 700 L105 700 Z " />
<glyph glyph-name="Y" unicode="Y" horiz-adv-x="1190" d="M524 0 L546 0 L583 211 L1248 700 L1212 700 L573 227 L105 700 L73 700 L561 211 L524 0 Z " />
<glyph glyph-name="Z" unicode="Z" horiz-adv-x="1141" d="M19 0 L1014 0 L1017 20 L59 20 L1117 682 L1118 700 L152 700 L147 680 L1078 680 L20 18 L19 0 Z " />
<glyph glyph-name="bracketleft" unicode="&#x5b;" horiz-adv-x="454" d="M46 -150 L310 -150 L313 -134 L69 -134 L244 834 L487 834 L489 850 L224 850 L46 -150 Z " />
<glyph glyph-name="backslash" unicode="&#x5c;" horiz-adv-x="483" d="M88 775 L69 775 L398 -75 L417 -75 L88 775 Z " />
<glyph glyph-name="bracketright" unicode="&#x5d;" horiz-adv-x="454" d="M412 850 L148 850 L146 834 L389 834 L215 -134 L-28 -134 L-31 -150 L233 -150 L412 850 Z " />
<glyph glyph-name="asciicircum" unicode="&#x5e;" horiz-adv-x="1246" d="M1000 350 L1027 350 L638 800 L612 800 L223 350 L250 350 L625 784 L1000 350 Z " />
<glyph glyph-name="underscore" unicode="&#x5f;" horiz-adv-x="500" d="M-60 -118 L440 -118 L440 -98 L-60 -98 L-60 -118 Z " />
<glyph glyph-name="grave" unicode="&#x60;" horiz-adv-x="480" d="M257 806 L223 806 L324 635 L337 635 L257 806 Z " />
<glyph glyph-name="a" unicode="a" horiz-adv-x="1033" d="M929 0 L955 0 L569 560 L543 560 L-42 0 L-12 0 L122 129 L840 129 L929 0 Z M555 543 L826 149 L143 149 L555 543 Z " />
<glyph glyph-name="b" unicode="b" horiz-adv-x="1042" d="M55 0 L724 0 C884 0 932 82 932 170 C932 226 901 272 820 283 C912 307 940 379 940 442 C940 508 900 560 783 560 L154 560 L55 0 Z M725 20 L80 20 L125 270 L769 270 C875 270 909 225 909 167 C908 88 864 20 725 20 L725 20 Z M780 540 C885 540 918 496 918 435 C918 362 877 290 742 290 L129 290 L173 540 L780 540 Z " />
<glyph glyph-name="c" unicode="c" horiz-adv-x="976" d="M81 235 C81 389 180 540 465 540 L936 540 L941 560 L466 560 C165 560 58 400 58 232 C58 102 140 0 365 0 L840 0 L843 20 L367 20 C155 20 81 114 81 235 L81 235 Z " />
<glyph glyph-name="d" unicode="d" horiz-adv-x="1039" d="M55 0 L554 0 C855 0 962 160 962 328 C962 458 880 560 655 560 L155 560 L55 0 Z M653 540 C865 540 939 446 939 325 C939 171 840 20 555 20 L81 20 L172 540 L653 540 Z " />
<glyph glyph-name="e" unicode="e" horiz-adv-x="994" d="M55 0 L856 0 L859 20 L80 20 L124 270 L820 270 L824 290 L129 290 L173 540 L952 540 L955 560 L154 560 L55 0 Z " />
<glyph glyph-name="f" unicode="f" horiz-adv-x="977" d="M55 0 L77 0 L124 270 L820 270 L824 290 L129 290 L173 540 L952 540 L955 560 L154 560 L55 0 Z " />
<glyph glyph-name="g" unicode="g" horiz-adv-x="1039" d="M365 0 L885 0 L937 290 L545 290 L540 270 L910 270 L866 20 L367 20 C155 20 81 114 81 235 C81 389 180 540 465 540 L936 540 L939 560 L466 560 C165 560 58 400 58 232 C58 102 140 0 365 0 L365 0 Z " />
<glyph glyph-name="h" unicode="h" horiz-adv-x="1084" d="M887 0 L909 0 L1008 560 L986 560 L939 290 L129 290 L176 560 L154 560 L55 0 L77 0 L124 270 L934 270 L887 0 Z " />
<glyph glyph-name="i" unicode="i" horiz-adv-x="252" d="M55 0 L77 0 L176 560 L154 560 L55 0 Z " />
<glyph glyph-name="j" unicode="j" horiz-adv-x="1002" d="M261 -4 L523 -4 C779 -4 863 91 891 248 L946 560 L924 560 L871 262 C844 112 775 16 527 16 L264 16 C72 16 25 102 47 217 L53 249 L32 249 L26 220 C1 99 53 -4 261 -4 L261 -4 Z " />
<glyph glyph-name="k" unicode="k" horiz-adv-x="1062" d="M1014 560 L966 560 L102 143 L176 560 L154 560 L55 0 L77 0 L97 117 L446 285 L942 0 L985 0 L467 295 L1014 560 Z " />
<glyph glyph-name="l" unicode="l" horiz-adv-x="948" d="M176 560 L154 560 L55 0 L840 0 L843 20 L80 20 L176 560 Z " />
<glyph glyph-name="m" unicode="m" horiz-adv-x="1196" d="M1096 560 L546 60 L172 560 L154 560 L55 0 L76 0 L171 529 L543 30 L1094 529 L999 0 L1021 0 L1120 560 L1096 560 Z " />
<glyph glyph-name="n" unicode="n" horiz-adv-x="1081" d="M906 0 L1005 560 L983 560 L887 24 L175 560 L154 560 L55 0 L77 0 L173 537 L885 0 L906 0 Z " />
<glyph glyph-name="o" unicode="o" horiz-adv-x="1111" d="M612 -8 C917 -8 1033 152 1033 326 C1033 461 951 568 716 568 L477 568 C172 568 58 408 58 234 C58 99 138 -8 373 -8 L612 -8 Z M377 12 C158 12 80 109 80 231 C80 396 188 548 481 548 L713 548 C933 548 1010 450 1010 327 C1010 165 904 12 609 12 L377 12 Z " />
<glyph glyph-name="p" unicode="p" horiz-adv-x="1001" d="M55 0 L77 0 L119 238 L732 238 C911 238 967 329 967 426 C967 500 920 560 790 560 L154 560 L55 0 Z M786 540 C904 540 944 489 944 422 C944 338 892 258 735 258 L123 258 L173 540 L786 540 Z " />
<glyph glyph-name="q" unicode="q" horiz-adv-x="1111" d="M612 -8 C670 -8 722 -2 767 9 L978 -88 L1024 -88 L794 16 C964 67 1033 192 1033 326 C1033 461 951 568 716 568 L477 568 C172 568 58 408 58 234 C58 99 138 -8 373 -8 L612 -8 Z M377 12 C158 12 80 109 80 231 C80 396 188 548 481 548 L713 548 C933 548 1010 450 1010 327 C1010 165 904 12 609 12 L377 12 Z " />
<glyph glyph-name="r" unicode="r" horiz-adv-x="1061" d="M55 0 L77 0 L119 238 L523 238 L937 0 L980 0 L563 238 L716 238 C894 238 949 329 949 428 C949 501 904 560 774 560 L154 560 L55 0 Z M769 540 C886 540 926 490 926 424 C926 338 879 258 719 258 L123 258 L173 540 L769 540 Z " />
<glyph glyph-name="s" unicode="s" horiz-adv-x="993" d="M681 20 L46 20 L42 0 L682 0 C842 0 892 86 892 170 C892 238 851 290 734 290 L242 290 C139 290 104 333 104 392 C104 471 151 540 292 540 L927 540 L932 560 L291 560 C131 560 81 474 81 390 C81 322 122 270 239 270 L730 270 C834 270 869 227 869 168 C869 89 822 20 681 20 L681 20 Z " />
<glyph glyph-name="t" unicode="t" horiz-adv-x="1001" d="M85 540 L526 540 L429 0 L451 0 L547 540 L989 540 L992 560 L88 560 L85 540 Z " />
<glyph glyph-name="u" unicode="u" horiz-adv-x="1053" d="M102 257 L157 560 L135 560 L81 258 C53 104 104 -8 362 -8 L572 -8 C828 -8 912 87 940 244 L996 560 L975 560 L920 258 C893 109 824 12 576 12 L361 12 C120 12 77 114 102 257 L102 257 Z " />
<glyph glyph-name="v" unicode="v" horiz-adv-x="1033" d="M470 0 L1054 560 L1023 560 L458 17 L84 560 L57 560 L444 0 L470 0 Z " />
<glyph glyph-name="w" unicode="w" horiz-adv-x="1330" d="M701 534 L907 0 L925 0 L1340 560 L1314 560 L920 27 L713 560 L696 560 L298 27 L94 560 L68 560 L286 0 L303 0 L701 534 Z " />
<glyph glyph-name="x" unicode="x" horiz-adv-x="1026" d="M84 560 L484 282 L-19 0 L21 0 L502 269 L889 0 L925 0 L521 282 L1021 560 L980 560 L503 293 L119 560 L84 560 Z " />
<glyph glyph-name="y" unicode="y" horiz-adv-x="1015" d="M437 0 L459 0 L488 169 L1046 560 L1012 560 L479 186 L78 560 L47 560 L466 169 L437 0 Z " />
<glyph glyph-name="z" unicode="z" horiz-adv-x="979" d="M12 0 L859 0 L862 20 L54 20 L939 543 L940 560 L118 560 L115 540 L897 540 L12 17 L12 0 Z " />
<glyph glyph-name="braceleft" unicode="&#x7b;" horiz-adv-x="454" d="M191 454 C181 400 151 358 66 358 L59 358 L56 342 L63 342 C148 342 164 301 154 246 L103 -44 C92 -104 116 -150 211 -150 L312 -150 L315 -134 L211 -134 C126 -134 115 -92 125 -38 L176 250 C185 299 168 339 115 349 C173 358 202 398 211 450 L262 738 C272 796 307 834 392 834 L486 834 L489 850 L388 850 C293 850 253 804 242 744 L191 454 Z " />
<glyph glyph-name="bar" unicode="&#x7c;" horiz-adv-x="500" d="M239 850 L239 -150 L261 -150 L261 850 L239 850 Z " />
<glyph glyph-name="braceright" unicode="&#x7d;" horiz-adv-x="454" d="M268 246 C278 300 308 342 393 342 L400 342 L403 358 L396 358 C311 358 295 399 305 454 L356 744 C367 804 343 850 248 850 L147 850 L144 834 L248 834 C333 834 344 792 334 738 L283 450 C274 401 291 361 344 351 C286 342 257 302 248 250 L197 -38 C187 -96 152 -134 67 -134 L-27 -134 L-30 -150 L71 -150 C166 -150 206 -104 217 -44 L268 246 Z " />
<glyph glyph-name="asciitilde" unicode="&#x7e;" horiz-adv-x="1246" d="M965 403 C701 180 564 558 285 345 L285 320 C549 543 687 165 965 378 L965 403 Z " />
<glyph glyph-name="uni00A0" unicode="&#xa0;" horiz-adv-x="480" d="" />
<glyph glyph-name="exclamdown" unicode="&#xa1;" horiz-adv-x="278" d="M225 700 L185 700 L178 659 L218 659 L225 700 Z M198 588 L181 588 L67 0 L92 0 L198 588 Z " />
<glyph glyph-name="cent" unicode="&#xa2;" horiz-adv-x="1246" d="M1070 146 L585 146 L740 554 L1146 554 L1151 574 L750 574 L805 720 L783 720 L728 574 L453 574 C227 574 135 449 135 316 C135 212 203 126 372 126 L556 126 L499 -20 L521 -20 L578 126 L1067 126 L1070 146 Z M159 318 C159 439 243 554 452 554 L718 554 L563 146 L374 146 C219 146 159 221 159 318 L159 318 Z " />
<glyph glyph-name="sterling" unicode="&#xa3;" horiz-adv-x="1246" d="M722 360 L290 360 L306 451 C328 577 391 680 592 680 L1067 680 L1071 700 L592 700 C377 700 309 589 284 452 L268 360 L129 360 L124 340 L264 340 L221 102 C213 55 189 20 135 20 L68 20 L65 0 L1061 0 L1064 20 L186 20 C215 31 237 62 243 97 L286 340 L717 340 L722 360 Z " />
<glyph glyph-name="currency" unicode="&#xa4;" horiz-adv-x="1246" d="M690 94 C796 94 877 116 934 159 L1064 -10 L1082 4 L949 172 C1015 229 1051 306 1051 397 C1051 444 1033 493 1009 522 L1208 696 L1193 712 L997 536 C954 578 887 606 782 606 L557 606 C452 606 371 583 313 541 L183 710 L165 696 L298 528 C232 471 196 394 196 303 C196 256 214 207 238 178 L39 4 L54 -12 L250 164 C293 122 360 94 465 94 L690 94 Z M220 307 C220 450 315 586 555 586 L780 586 C961 586 1029 503 1029 393 C1029 249 934 114 694 114 L469 114 C289 114 220 197 220 307 L220 307 Z " />
<glyph glyph-name="yen" unicode="&#xa5;" horiz-adv-x="1246" d="M1181 700 L610 279 L191 700 L160 700 L492 370 L115 370 L111 351 L510 351 L598 262 L587 200 L85 200 L81 181 L584 181 L552 0 L574 0 L606 181 L1108 181 L1112 200 L609 200 L620 262 L741 351 L1139 351 L1143 370 L767 370 L1216 700 L1181 700 Z " />
<glyph glyph-name="brokenbar" unicode="&#xa6;" horiz-adv-x="500" d="M261 467 L261 850 L239 850 L239 467 L261 467 Z M239 233 L239 -150 L261 -150 L261 233 L239 233 Z " />
<glyph glyph-name="section" unicode="&#xa7;" horiz-adv-x="1177" d="M214 160 L789 160 C872 160 911 115 911 61 C911 -14 862 -80 737 -80 L149 -80 L144 -100 L740 -100 C878 -100 934 -22 934 61 C934 104 913 142 873 160 L899 160 C1041 160 1098 235 1098 321 C1098 387 1055 440 950 440 L375 440 C292 440 253 485 253 539 C253 614 302 680 427 680 L1015 680 L1020 700 L424 700 C286 700 230 622 230 539 C230 496 251 458 291 440 L265 440 C123 440 66 365 66 279 C66 213 109 160 214 160 L214 160 Z M945 420 C1039 420 1074 376 1074 320 C1074 244 1024 180 897 180 L219 180 C125 180 90 224 90 280 C90 356 140 420 267 420 L945 420 Z " />
<glyph glyph-name="dieresis" unicode="&#xa8;" horiz-adv-x="480" d="M398 700 L438 700 L445 741 L405 741 L398 700 Z M168 700 L208 700 L215 741 L175 741 L168 700 Z " />
<glyph glyph-name="copyright" unicode="&#xa9;" horiz-adv-x="1160" d="M656 -10 C969 -10 1092 151 1092 350 C1092 549 969 710 656 710 L508 710 C195 710 72 549 72 350 C72 151 195 -10 508 -10 L656 -10 Z M509 10 C210 10 95 162 95 350 C95 538 210 690 509 690 L655 690 C954 690 1069 538 1069 350 C1069 162 954 10 655 10 L509 10 Z M789 195 L514 195 C376 195 324 264 324 350 C324 435 376 505 514 505 L789 505 L789 525 L513 525 C360 525 301 446 301 350 C301 253 360 175 513 175 L789 175 L789 195 Z " />
<glyph glyph-name="ordfeminine" unicode="&#xaa;" horiz-adv-x="736" d="M100 350 L173 425 L590 425 L637 350 L663 350 L442 700 L419 700 L74 350 L100 350 Z M428 682 L579 444 L193 444 L428 682 Z " />
<glyph glyph-name="guillemotleft" unicode="&#xab;" horiz-adv-x="695" d="M357 560 L97 281 L260 0 L285 0 L124 279 L385 560 L357 560 Z M599 560 L339 281 L502 0 L527 0 L366 279 L627 560 L599 560 Z " />
<glyph glyph-name="logicalnot" unicode="&#xac;" horiz-adv-x="1246" d="M285 340 L943 340 L943 40 L965 40 L965 360 L285 360 L285 340 Z " />
<glyph glyph-name="uni00AD" unicode="&#xad;" horiz-adv-x="576" d="M83 270 L467 270 L472 290 L88 290 L83 270 Z " />
<glyph glyph-name="registered" unicode="&#xae;" horiz-adv-x="1160" d="M656 -10 C969 -10 1092 151 1092 350 C1092 549 969 710 656 710 L508 710 C195 710 72 549 72 350 C72 151 195 -10 508 -10 L656 -10 Z M509 10 C210 10 95 162 95 350 C95 538 210 690 509 690 L655 690 C954 690 1068 538 1068 350 C1068 162 954 10 655 10 L509 10 Z M337 175 L360 175 L360 320 L591 320 L845 175 L883 175 L630 320 L698 320 C786 320 823 363 823 422 C823 479 788 525 698 525 L337 525 L337 175 Z M696 505 C773 505 799 468 799 422 C799 375 773 340 696 340 L360 340 L360 505 L696 505 Z " />
<glyph glyph-name="macron" unicode="&#xaf;" horiz-adv-x="480" d="M124 711 L486 711 L489 729 L127 729 L124 711 Z " />
<glyph glyph-name="degree" unicode="&#xb0;" horiz-adv-x="547" d="M107 512 C107 398 196 314 305 314 C414 314 503 398 503 512 C503 626 414 710 305 710 C196 710 107 626 107 512 L107 512 Z M129 512 C129 615 207 690 305 690 C403 690 481 615 481 512 C481 409 403 334 305 334 C207 334 129 409 129 512 L129 512 Z " />
<glyph glyph-name="plusminus" unicode="&#xb1;" horiz-adv-x="1246" d="M285 400 L614 400 L614 120 L636 120 L636 400 L965 400 L965 420 L636 420 L636 700 L614 700 L614 420 L285 420 L285 400 Z M285 0 L965 0 L965 20 L285 20 L285 0 Z " />
<glyph glyph-name="twosuperior" unicode="&#xb2;" horiz-adv-x="721" d="M617 370 L129 370 L142 443 C149 483 182 516 250 516 L545 516 C639 516 676 564 676 621 C676 664 649 700 579 700 L186 700 L182 680 L578 680 C636 680 654 654 654 620 C654 575 623 534 544 534 L250 534 C168 534 130 494 120 442 L105 350 L615 350 L617 370 Z " />
<glyph glyph-name="threesuperior" unicode="&#xb3;" horiz-adv-x="721" d="M90 350 L512 350 C604 350 640 401 640 455 C640 492 620 520 572 528 C623 541 646 585 646 626 C646 668 619 700 551 700 L163 700 L159 680 L547 680 C605 680 623 654 623 619 C623 575 592 534 513 534 L174 534 L171 516 L541 516 C595 516 617 491 617 456 C617 413 586 370 507 370 L94 370 L90 350 Z " />
<glyph glyph-name="acute" unicode="&#xb4;" horiz-adv-x="480" d="M246 635 L262 635 L425 806 L388 806 L246 635 Z " />
<glyph glyph-name="uni00B5" unicode="&#xb5;" horiz-adv-x="1246" d="M1031 0 L1052 0 L1151 560 L1129 560 L1094 360 C1061 172 931 20 632 20 L298 20 C155 20 111 86 128 180 L196 560 L174 560 L37 -200 L59 -200 L114 103 C132 18 205 0 297 0 L630 0 C883 0 1005 98 1070 232 L1031 0 Z " />
<glyph glyph-name="paragraph" unicode="&#xb6;" horiz-adv-x="1151" d="M574 680 L936 680 L936 -100 L958 -100 L958 680 L1054 680 L1054 700 L312 700 C136 700 69 610 69 500 C69 387 136 300 312 300 L552 300 L552 -100 L574 -100 L574 680 Z " />
<glyph glyph-name="periodcentered" unicode="&#xb7;" horiz-adv-x="241" d="M99 329 L139 329 L147 370 L107 370 L99 329 Z " />
<glyph glyph-name="cedilla" unicode="&#xb8;" horiz-adv-x="480" d="M134 -84 L146 -84 C212 -84 249 -99 249 -142 C249 -199 192 -219 138 -219 C101 -219 64 -211 47 -202 L45 -215 C68 -228 104 -237 140 -237 C205 -237 271 -212 271 -139 C271 -78 209 -63 157 -68 L188 0 L173 0 L134 -84 Z " />
<glyph glyph-name="onesuperior" unicode="&#xb9;" horiz-adv-x="721" d="M295 680 L438 680 L383 370 L167 370 L164 350 L560 350 L563 370 L404 370 L464 700 L298 700 L295 680 Z " />
<glyph glyph-name="ordmasculine" unicode="&#xba;" horiz-adv-x="736" d="M437 345 C618 345 691 445 691 556 C691 637 637 705 501 705 L368 705 C187 705 114 604 114 494 C114 412 168 345 304 345 L437 345 Z M306 365 C183 365 137 423 137 496 C137 594 203 685 368 685 L497 685 C620 685 668 627 668 553 C668 455 600 365 436 365 L306 365 Z " />
<glyph glyph-name="guillemotright" unicode="&#xbb;" horiz-adv-x="695" d="M75 0 L335 279 L172 560 L147 560 L308 281 L47 0 L75 0 Z M317 0 L577 279 L414 560 L389 560 L550 281 L289 0 L317 0 Z " />
<glyph glyph-name="onequarter" unicode="&#xbc;" horiz-adv-x="1442" d="M1290 350 L764 82 L761 65 L1238 65 L1227 0 L1249 0 L1260 65 L1313 65 L1316 85 L1262 85 L1311 350 L1290 350 Z M809 85 L1284 326 L1241 85 L809 85 Z M1199 700 L214 0 L248 0 L1233 700 L1199 700 Z M295 680 L438 680 L383 370 L167 370 L164 350 L560 350 L563 370 L404 370 L464 700 L298 700 L295 680 Z " />
<glyph glyph-name="onehalf" unicode="&#xbd;" horiz-adv-x="1442" d="M1276 20 L788 20 L801 93 C808 133 841 166 909 166 L1204 166 C1298 166 1335 214 1335 271 C1335 314 1308 350 1238 350 L845 350 L841 330 L1237 330 C1295 330 1313 304 1313 270 C1313 225 1282 184 1203 184 L909 184 C827 184 789 144 779 92 L764 0 L1274 0 L1276 20 Z M1199 700 L214 0 L248 0 L1233 700 L1199 700 Z M295 680 L438 680 L383 370 L167 370 L164 350 L560 350 L563 370 L404 370 L464 700 L298 700 L295 680 Z " />
<glyph glyph-name="threequarters" unicode="&#xbe;" horiz-adv-x="1442" d="M1290 350 L764 82 L761 65 L1238 65 L1227 0 L1249 0 L1260 65 L1313 65 L1316 85 L1262 85 L1311 350 L1290 350 Z M809 85 L1284 326 L1241 85 L809 85 Z M1199 700 L214 0 L248 0 L1233 700 L1199 700 Z M90 350 L512 350 C604 350 640 401 640 455 C640 492 620 520 572 528 C623 541 646 585 646 626 C646 668 619 700 551 700 L163 700 L159 680 L547 680 C605 680 623 654 623 619 C623 575 592 534 513 534 L174 534 L171 516 L541 516 C595 516 617 491 617 456 C617 413 586 370 507 370 L94 370 L90 350 Z " />
<glyph glyph-name="questiondown" unicode="&#xbf;" horiz-adv-x="1027" d="M725 588 L703 588 L663 360 L262 360 C81 360 8 260 8 150 C8 66 58 0 199 0 L931 0 L935 20 L203 20 C76 20 31 77 31 152 C31 253 98 340 262 340 L681 340 L725 588 Z M754 700 L713 700 L707 659 L747 659 L754 700 Z " />
<glyph glyph-name="Agrave" unicode="&#xc0;" horiz-adv-x="1206" d="M1103 0 L1129 0 L681 700 L655 700 L-43 0 L-13 0 L143 157 L1003 157 L1103 0 Z M666 684 L990 177 L163 177 L666 684 Z M644 946 L610 946 L711 775 L724 775 L644 946 Z " />
<glyph glyph-name="Aacute" unicode="&#xc1;" horiz-adv-x="1206" d="M1103 0 L1129 0 L681 700 L655 700 L-43 0 L-13 0 L143 157 L1003 157 L1103 0 Z M666 684 L990 177 L163 177 L666 684 Z M633 775 L649 775 L812 946 L775 946 L633 775 Z " />
<glyph glyph-name="Acircumflex" unicode="&#xc2;" horiz-adv-x="1206" d="M1103 0 L1129 0 L681 700 L655 700 L-43 0 L-13 0 L143 157 L1003 157 L1103 0 Z M666 684 L990 177 L163 177 L666 684 Z M535 775 L551 775 L707 927 L808 775 L821 775 L727 946 L693 946 L535 775 Z " />
<glyph glyph-name="Atilde" unicode="&#xc3;" horiz-adv-x="1206" d="M1103 0 L1129 0 L681 700 L655 700 L-43 0 L-13 0 L143 157 L1003 157 L1103 0 Z M666 684 L990 177 L163 177 L666 684 Z M846 919 C822 842 796 833 766 833 C713 833 689 910 625 910 C586 910 554 890 527 802 L541 802 C564 879 593 889 623 889 C675 889 698 812 761 812 C801 812 834 832 860 919 L846 919 Z " />
<glyph glyph-name="Adieresis" unicode="&#xc4;" horiz-adv-x="1206" d="M1103 0 L1129 0 L681 700 L655 700 L-43 0 L-13 0 L143 157 L1003 157 L1103 0 Z M666 684 L990 177 L163 177 L666 684 Z M785 840 L825 840 L832 881 L792 881 L785 840 Z M555 840 L595 840 L602 881 L562 881 L555 840 Z " />
<glyph glyph-name="Aring" unicode="&#xc5;" horiz-adv-x="1206" d="M1103 0 L1129 0 L681 700 L655 700 L-43 0 L-13 0 L143 157 L1003 157 L1103 0 Z M666 684 L990 177 L163 177 L666 684 Z M607 854 C607 904 652 946 702 946 C747 946 778 912 778 868 C778 817 734 775 684 775 C639 775 607 809 607 854 L607 854 Z M588 850 C588 797 627 756 681 756 C742 756 797 808 797 871 C797 924 758 965 703 965 C642 965 588 915 588 850 L588 850 Z " />
<glyph glyph-name="AE" unicode="&#xc6;" horiz-adv-x="1624" d="M666 157 L639 0 L1480 0 L1483 20 L664 20 L720 340 L1441 340 L1446 360 L725 360 L781 680 L1600 680 L1605 700 L751 700 L-43 0 L-14 0 L163 157 L666 157 Z M762 686 L759 682 L671 177 L186 177 L762 686 Z " />
<glyph glyph-name="Ccedilla" unicode="&#xc7;" horiz-adv-x="1137" d="M509 -84 L521 -84 C587 -84 624 -99 624 -142 C624 -199 567 -219 513 -219 C476 -219 439 -211 422 -202 L420 -215 C443 -228 479 -237 515 -237 C580 -237 646 -212 646 -139 C646 -78 584 -63 532 -68 L563 0 L992 0 L995 20 L447 20 C191 20 97 142 97 298 C97 497 230 680 562 680 L1113 680 L1117 700 L561 700 C215 700 74 507 74 296 C74 130 176 0 444 0 L548 0 L509 -84 Z " />
<glyph glyph-name="Egrave" unicode="&#xc8;" horiz-adv-x="1151" d="M65 0 L1007 0 L1010 20 L90 20 L146 340 L968 340 L973 360 L151 360 L207 680 L1127 680 L1132 700 L190 700 L65 0 Z M627 946 L593 946 L694 775 L707 775 L627 946 Z " />
<glyph glyph-name="Eacute" unicode="&#xc9;" horiz-adv-x="1151" d="M65 0 L1007 0 L1010 20 L90 20 L146 340 L968 340 L973 360 L151 360 L207 680 L1127 680 L1132 700 L190 700 L65 0 Z M616 775 L632 775 L795 946 L758 946 L616 775 Z " />
<glyph glyph-name="Ecircumflex" unicode="&#xca;" horiz-adv-x="1151" d="M65 0 L1007 0 L1010 20 L90 20 L146 340 L968 340 L973 360 L151 360 L207 680 L1127 680 L1132 700 L190 700 L65 0 Z M518 775 L534 775 L690 927 L791 775 L804 775 L710 946 L676 946 L518 775 Z " />
<glyph glyph-name="Edieresis" unicode="&#xcb;" horiz-adv-x="1151" d="M65 0 L1007 0 L1010 20 L90 20 L146 340 L968 340 L973 360 L151 360 L207 680 L1127 680 L1132 700 L190 700 L65 0 Z M768 840 L808 840 L815 881 L775 881 L768 840 Z M538 840 L578 840 L585 881 L545 881 L538 840 Z " />
<glyph glyph-name="Igrave" unicode="&#xcc;" horiz-adv-x="272" d="M65 0 L87 0 L212 700 L190 700 L65 0 Z M178 946 L144 946 L245 775 L258 775 L178 946 Z " />
<glyph glyph-name="Iacute" unicode="&#xcd;" horiz-adv-x="272" d="M65 0 L87 0 L212 700 L190 700 L65 0 Z M167 775 L183 775 L346 946 L309 946 L167 775 Z " />
<glyph glyph-name="Icircumflex" unicode="&#xce;" horiz-adv-x="272" d="M65 0 L87 0 L212 700 L190 700 L65 0 Z M69 775 L85 775 L241 927 L342 775 L355 775 L261 946 L227 946 L69 775 Z " />
<glyph glyph-name="Idieresis" unicode="&#xcf;" horiz-adv-x="272" d="M65 0 L87 0 L212 700 L190 700 L65 0 Z M318 840 L358 840 L365 881 L325 881 L318 840 Z M88 840 L128 840 L135 881 L95 881 L88 840 Z " />
<glyph glyph-name="Eth" unicode="&#xd0;" horiz-adv-x="1205" d="M-1 340 L125 340 L65 0 L647 0 C994 0 1134 193 1134 404 C1134 569 1032 700 764 700 L190 700 L129 360 L4 360 L-1 340 Z M761 680 C1016 680 1111 557 1111 402 C1111 203 978 20 646 20 L90 20 L147 340 L605 340 L610 360 L150 360 L207 680 L761 680 Z " />
<glyph glyph-name="Ntilde" unicode="&#xd1;" horiz-adv-x="1250" d="M1044 0 L1065 0 L1190 700 L1168 700 L1047 23 L211 700 L190 700 L65 0 L87 0 L206 677 L1044 0 Z M868 919 C844 842 818 833 788 833 C735 833 711 910 647 910 C608 910 576 890 549 802 L563 802 C586 879 615 889 645 889 C697 889 720 812 783 812 C823 812 856 832 882 919 L868 919 Z " />
<glyph glyph-name="Ograve" unicode="&#xd2;" horiz-adv-x="1294" d="M726 -10 C1088 -10 1223 194 1223 414 C1223 581 1116 710 846 710 L573 710 C216 710 74 511 74 293 C74 122 180 -10 453 -10 L726 -10 Z M457 10 C193 10 97 134 97 296 C97 501 234 690 576 690 L842 690 C1104 690 1200 568 1200 408 C1200 204 1071 10 724 10 L457 10 Z M688 946 L654 946 L755 775 L768 775 L688 946 Z " />
<glyph glyph-name="Oacute" unicode="&#xd3;" horiz-adv-x="1294" d="M726 -10 C1088 -10 1223 194 1223 414 C1223 581 1116 710 846 710 L573 710 C216 710 74 511 74 293 C74 122 180 -10 453 -10 L726 -10 Z M457 10 C193 10 97 134 97 296 C97 501 234 690 576 690 L842 690 C1104 690 1200 568 1200 408 C1200 204 1071 10 724 10 L457 10 Z M677 775 L693 775 L856 946 L819 946 L677 775 Z " />
<glyph glyph-name="Ocircumflex" unicode="&#xd4;" horiz-adv-x="1294" d="M726 -10 C1088 -10 1223 194 1223 414 C1223 581 1116 710 846 710 L573 710 C216 710 74 511 74 293 C74 122 180 -10 453 -10 L726 -10 Z M457 10 C193 10 97 134 97 296 C97 501 234 690 576 690 L842 690 C1104 690 1200 568 1200 408 C1200 204 1071 10 724 10 L457 10 Z M579 775 L595 775 L751 927 L852 775 L865 775 L771 946 L737 946 L579 775 Z " />
<glyph glyph-name="Otilde" unicode="&#xd5;" horiz-adv-x="1294" d="M726 -10 C1088 -10 1223 194 1223 414 C1223 581 1116 710 846 710 L573 710 C216 710 74 511 74 293 C74 122 180 -10 453 -10 L726 -10 Z M457 10 C193 10 97 134 97 296 C97 501 234 690 576 690 L842 690 C1104 690 1200 568 1200 408 C1200 204 1071 10 724 10 L457 10 Z M890 919 C866 842 840 833 810 833 C757 833 733 910 669 910 C630 910 598 890 571 802 L585 802 C608 879 637 889 667 889 C719 889 742 812 805 812 C845 812 878 832 904 919 L890 919 Z " />
<glyph glyph-name="Odieresis" unicode="&#xd6;" horiz-adv-x="1294" d="M726 -10 C1088 -10 1223 194 1223 414 C1223 581 1116 710 846 710 L573 710 C216 710 74 511 74 293 C74 122 180 -10 453 -10 L726 -10 Z M457 10 C193 10 97 134 97 296 C97 501 234 690 576 690 L842 690 C1104 690 1200 568 1200 408 C1200 204 1071 10 724 10 L457 10 Z M829 840 L869 840 L876 881 L836 881 L829 840 Z M599 840 L639 840 L646 881 L606 881 L599 840 Z " />
<glyph glyph-name="multiply" unicode="&#xd7;" horiz-adv-x="1246" d="M904 611 L889 626 L624 363 L361 626 L346 611 L610 350 L346 89 L361 74 L624 336 L889 74 L904 89 L639 350 L904 611 Z " />
<glyph glyph-name="Oslash" unicode="&#xd8;" horiz-adv-x="1294" d="M726 -10 C1088 -10 1223 194 1223 414 C1223 543 1159 650 1004 691 L1113 800 L1084 800 L981 696 C941 705 896 710 846 710 L573 710 C216 710 74 511 74 293 C74 160 138 51 294 9 L185 -100 L214 -100 L317 3 C357 -5 402 -10 453 -10 L726 -10 Z M97 296 C97 501 234 690 576 690 L842 690 C887 690 927 686 963 679 L311 26 C156 64 97 168 97 296 L97 296 Z M457 10 C411 10 370 14 334 21 L987 674 C1140 636 1200 534 1200 408 C1200 204 1071 10 724 10 L457 10 Z " />
<glyph glyph-name="Ugrave" unicode="&#xd9;" horiz-adv-x="1224" d="M124 323 L193 700 L171 700 L102 323 C67 130 143 -10 447 -10 L665 -10 C969 -10 1080 121 1114 311 L1184 700 L1162 700 L1094 320 C1060 132 953 10 667 10 L452 10 C161 10 92 138 124 323 L124 323 Z M653 946 L619 946 L720 775 L733 775 L653 946 Z " />
<glyph glyph-name="Uacute" unicode="&#xda;" horiz-adv-x="1224" d="M124 323 L193 700 L171 700 L102 323 C67 130 143 -10 447 -10 L665 -10 C969 -10 1080 121 1114 311 L1184 700 L1162 700 L1094 320 C1060 132 953 10 667 10 L452 10 C161 10 92 138 124 323 L124 323 Z M642 775 L658 775 L821 946 L784 946 L642 775 Z " />
<glyph glyph-name="Ucircumflex" unicode="&#xdb;" horiz-adv-x="1224" d="M124 323 L193 700 L171 700 L102 323 C67 130 143 -10 447 -10 L665 -10 C969 -10 1080 121 1114 311 L1184 700 L1162 700 L1094 320 C1060 132 953 10 667 10 L452 10 C161 10 92 138 124 323 L124 323 Z M544 775 L560 775 L716 927 L817 775 L830 775 L736 946 L702 946 L544 775 Z " />
<glyph glyph-name="Udieresis" unicode="&#xdc;" horiz-adv-x="1224" d="M124 323 L193 700 L171 700 L102 323 C67 130 143 -10 447 -10 L665 -10 C969 -10 1080 121 1114 311 L1184 700 L1162 700 L1094 320 C1060 132 953 10 667 10 L452 10 C161 10 92 138 124 323 L124 323 Z M794 840 L834 840 L841 881 L801 881 L794 840 Z M564 840 L604 840 L611 881 L571 881 L564 840 Z " />
<glyph glyph-name="Yacute" unicode="&#xdd;" horiz-adv-x="1190" d="M524 0 L546 0 L583 211 L1248 700 L1212 700 L573 227 L105 700 L73 700 L561 211 L524 0 Z M625 775 L641 775 L804 946 L767 946 L625 775 Z " />
<glyph glyph-name="Thorn" unicode="&#xde;" horiz-adv-x="1147" d="M65 0 L87 0 L114 150 L834 150 C1037 150 1117 257 1117 381 C1117 475 1061 550 906 550 L186 550 L212 700 L190 700 L65 0 Z M901 530 C1043 530 1094 462 1094 378 C1094 268 1019 170 834 170 L118 170 L181 530 L901 530 Z " />
<glyph glyph-name="germandbls" unicode="&#xdf;" horiz-adv-x="1046" d="M798 290 L521 290 L947 543 L947 560 L468 560 C210 560 116 450 89 296 L36 0 L58 0 L111 296 C136 439 229 540 469 540 L904 540 L480 288 L479 270 L794 270 C898 270 933 227 933 168 C933 89 886 20 745 20 L267 20 L264 0 L746 0 C906 0 956 86 956 170 C956 238 915 290 798 290 L798 290 Z " />
<glyph glyph-name="agrave" unicode="&#xe0;" horiz-adv-x="1033" d="M929 0 L955 0 L569 560 L543 560 L-42 0 L-12 0 L122 129 L840 129 L929 0 Z M555 543 L826 149 L143 149 L555 543 Z M533 806 L499 806 L600 635 L613 635 L533 806 Z " />
<glyph glyph-name="aacute" unicode="&#xe1;" horiz-adv-x="1033" d="M929 0 L955 0 L569 560 L543 560 L-42 0 L-12 0 L122 129 L840 129 L929 0 Z M555 543 L826 149 L143 149 L555 543 Z M522 635 L538 635 L701 806 L664 806 L522 635 Z " />
<glyph glyph-name="acircumflex" unicode="&#xe2;" horiz-adv-x="1033" d="M929 0 L955 0 L569 560 L543 560 L-42 0 L-12 0 L122 129 L840 129 L929 0 Z M555 543 L826 149 L143 149 L555 543 Z M424 635 L440 635 L596 787 L697 635 L710 635 L616 806 L582 806 L424 635 Z " />
<glyph glyph-name="atilde" unicode="&#xe3;" horiz-adv-x="1033" d="M929 0 L955 0 L569 560 L543 560 L-42 0 L-12 0 L122 129 L840 129 L929 0 Z M555 543 L826 149 L143 149 L555 543 Z M735 779 C711 702 685 693 655 693 C602 693 578 770 514 770 C475 770 443 750 416 662 L430 662 C453 739 482 749 512 749 C564 749 587 672 650 672 C690 672 723 692 749 779 L735 779 Z " />
<glyph glyph-name="adieresis" unicode="&#xe4;" horiz-adv-x="1033" d="M929 0 L955 0 L569 560 L543 560 L-42 0 L-12 0 L122 129 L840 129 L929 0 Z M555 543 L826 149 L143 149 L555 543 Z M674 700 L714 700 L721 741 L681 741 L674 700 Z M444 700 L484 700 L491 741 L451 741 L444 700 Z " />
<glyph glyph-name="aring" unicode="&#xe5;" horiz-adv-x="1033" d="M929 0 L955 0 L569 560 L543 560 L-42 0 L-12 0 L122 129 L840 129 L929 0 Z M555 543 L826 149 L143 149 L555 543 Z M496 714 C496 764 541 806 591 806 C636 806 667 772 667 728 C667 677 623 635 573 635 C528 635 496 669 496 714 L496 714 Z M477 710 C477 657 516 616 570 616 C631 616 686 668 686 731 C686 784 647 825 592 825 C531 825 477 775 477 710 L477 710 Z " />
<glyph glyph-name="ae" unicode="&#xe6;" horiz-adv-x="1391" d="M559 124 L538 0 L1254 0 L1256 20 L563 20 L607 270 L1217 270 L1222 290 L612 290 L656 540 L1350 540 L1353 560 L624 560 L-42 0 L-13 0 L135 124 L559 124 Z M633 540 L635 543 L563 144 L159 144 L633 540 Z " />
<glyph glyph-name="ccedilla" unicode="&#xe7;" horiz-adv-x="976" d="M420 -84 L432 -84 C498 -84 535 -99 535 -142 C535 -199 478 -219 424 -219 C387 -219 350 -211 333 -202 L331 -215 C354 -228 390 -237 426 -237 C491 -237 557 -212 557 -139 C557 -78 495 -63 443 -68 L474 0 L840 0 L843 20 L367 20 C155 20 81 114 81 235 C81 389 180 540 465 540 L936 540 L941 560 L466 560 C165 560 58 400 58 232 C58 102 140 0 365 0 L459 0 L420 -84 Z " />
<glyph glyph-name="egrave" unicode="&#xe8;" horiz-adv-x="994" d="M55 0 L856 0 L859 20 L80 20 L124 270 L820 270 L824 290 L129 290 L173 540 L952 540 L955 560 L154 560 L55 0 Z M526 806 L492 806 L593 635 L606 635 L526 806 Z " />
<glyph glyph-name="eacute" unicode="&#xe9;" horiz-adv-x="994" d="M55 0 L856 0 L859 20 L80 20 L124 270 L820 270 L824 290 L129 290 L173 540 L952 540 L955 560 L154 560 L55 0 Z M515 635 L531 635 L694 806 L657 806 L515 635 Z " />
<glyph glyph-name="ecircumflex" unicode="&#xea;" horiz-adv-x="994" d="M55 0 L856 0 L859 20 L80 20 L124 270 L820 270 L824 290 L129 290 L173 540 L952 540 L955 560 L154 560 L55 0 Z M417 635 L433 635 L589 787 L690 635 L703 635 L609 806 L575 806 L417 635 Z " />
<glyph glyph-name="edieresis" unicode="&#xeb;" horiz-adv-x="994" d="M55 0 L856 0 L859 20 L80 20 L124 270 L820 270 L824 290 L129 290 L173 540 L952 540 L955 560 L154 560 L55 0 Z M667 700 L707 700 L714 741 L674 741 L667 700 Z M437 700 L477 700 L484 741 L444 741 L437 700 Z " />
<glyph glyph-name="igrave" unicode="&#xec;" horiz-adv-x="252" d="M144 806 L110 806 L211 635 L224 635 L144 806 Z M55 0 L77 0 L176 560 L154 560 L55 0 Z " />
<glyph glyph-name="iacute" unicode="&#xed;" horiz-adv-x="252" d="M133 635 L149 635 L312 806 L275 806 L133 635 Z M55 0 L77 0 L176 560 L154 560 L55 0 Z " />
<glyph glyph-name="icircumflex" unicode="&#xee;" horiz-adv-x="252" d="M55 0 L77 0 L176 560 L154 560 L55 0 Z M35 635 L51 635 L207 787 L308 635 L321 635 L227 806 L193 806 L35 635 Z " />
<glyph glyph-name="idieresis" unicode="&#xef;" horiz-adv-x="252" d="M284 700 L324 700 L331 741 L291 741 L284 700 Z M54 700 L94 700 L101 741 L61 741 L54 700 Z M55 0 L77 0 L176 560 L154 560 L55 0 Z " />
<glyph glyph-name="eth" unicode="&#xf0;" horiz-adv-x="1039" d="M-13 270 L103 270 L55 0 L554 0 C855 0 962 160 962 328 C962 458 880 560 655 560 L155 560 L106 290 L-8 290 L-13 270 Z M653 540 C865 540 939 446 939 325 C939 171 840 20 555 20 L81 20 L124 270 L523 270 L528 290 L128 290 L172 540 L653 540 Z " />
<glyph glyph-name="ntilde" unicode="&#xf1;" horiz-adv-x="1081" d="M906 0 L1005 560 L983 560 L887 24 L175 560 L154 560 L55 0 L77 0 L173 537 L885 0 L906 0 Z M759 779 C735 702 709 693 679 693 C626 693 602 770 538 770 C499 770 467 750 440 662 L454 662 C477 739 506 749 536 749 C588 749 611 672 674 672 C714 672 747 692 773 779 L759 779 Z " />
<glyph glyph-name="ograve" unicode="&#xf2;" horiz-adv-x="1111" d="M612 -8 C917 -8 1033 152 1033 326 C1033 461 951 568 716 568 L477 568 C172 568 58 408 58 234 C58 99 138 -8 373 -8 L612 -8 Z M377 12 C158 12 80 109 80 231 C80 396 188 548 481 548 L713 548 C933 548 1010 450 1010 327 C1010 165 904 12 609 12 L377 12 Z M573 806 L539 806 L640 635 L653 635 L573 806 Z " />
<glyph glyph-name="oacute" unicode="&#xf3;" horiz-adv-x="1111" d="M612 -8 C917 -8 1033 152 1033 326 C1033 461 951 568 716 568 L477 568 C172 568 58 408 58 234 C58 99 138 -8 373 -8 L612 -8 Z M377 12 C158 12 80 109 80 231 C80 396 188 548 481 548 L713 548 C933 548 1010 450 1010 327 C1010 165 904 12 609 12 L377 12 Z M562 635 L578 635 L741 806 L704 806 L562 635 Z " />
<glyph glyph-name="ocircumflex" unicode="&#xf4;" horiz-adv-x="1111" d="M612 -8 C917 -8 1033 152 1033 326 C1033 461 951 568 716 568 L477 568 C172 568 58 408 58 234 C58 99 138 -8 373 -8 L612 -8 Z M377 12 C158 12 80 109 80 231 C80 396 188 548 481 548 L713 548 C933 548 1010 450 1010 327 C1010 165 904 12 609 12 L377 12 Z M464 635 L480 635 L636 787 L737 635 L750 635 L656 806 L622 806 L464 635 Z " />
<glyph glyph-name="otilde" unicode="&#xf5;" horiz-adv-x="1111" d="M612 -8 C917 -8 1033 152 1033 326 C1033 461 951 568 716 568 L477 568 C172 568 58 408 58 234 C58 99 138 -8 373 -8 L612 -8 Z M377 12 C158 12 80 109 80 231 C80 396 188 548 481 548 L713 548 C933 548 1010 450 1010 327 C1010 165 904 12 609 12 L377 12 Z M774 779 C750 702 724 693 694 693 C641 693 617 770 553 770 C514 770 482 750 455 662 L469 662 C492 739 521 749 551 749 C603 749 626 672 689 672 C729 672 762 692 788 779 L774 779 Z " />
<glyph glyph-name="odieresis" unicode="&#xf6;" horiz-adv-x="1111" d="M612 -8 C917 -8 1033 152 1033 326 C1033 461 951 568 716 568 L477 568 C172 568 58 408 58 234 C58 99 138 -8 373 -8 L612 -8 Z M377 12 C158 12 80 109 80 231 C80 396 188 548 481 548 L713 548 C933 548 1010 450 1010 327 C1010 165 904 12 609 12 L377 12 Z M713 700 L753 700 L760 741 L720 741 L713 700 Z M483 700 L523 700 L530 741 L490 741 L483 700 Z " />
<glyph glyph-name="divide" unicode="&#xf7;" horiz-adv-x="1246" d="M285 340 L965 340 L965 360 L285 360 L285 340 Z M609 70 L640 70 L640 101 L609 101 L609 70 Z M609 599 L640 599 L640 630 L609 630 L609 599 Z " />
<glyph glyph-name="oslash" unicode="&#xf8;" horiz-adv-x="1111" d="M612 -8 C917 -8 1033 152 1033 326 C1033 432 982 521 845 554 L935 640 L907 640 L822 559 C790 564 755 568 716 568 L477 568 C172 568 58 408 58 234 C58 128 107 39 243 6 L153 -80 L181 -80 L266 1 C297 -5 333 -8 373 -8 L612 -8 Z M377 12 C343 12 312 14 285 19 L827 537 C960 508 1010 425 1010 327 C1010 165 904 12 609 12 L377 12 Z M80 231 C80 396 188 548 481 548 L713 548 C746 548 776 546 803 541 L261 23 C129 52 80 133 80 231 L80 231 Z " />
<glyph glyph-name="ugrave" unicode="&#xf9;" horiz-adv-x="1053" d="M102 257 L157 560 L135 560 L81 258 C53 104 104 -8 362 -8 L572 -8 C828 -8 912 87 940 244 L996 560 L975 560 L920 258 C893 109 824 12 576 12 L361 12 C120 12 77 114 102 257 L102 257 Z M544 806 L510 806 L611 635 L624 635 L544 806 Z " />
<glyph glyph-name="uacute" unicode="&#xfa;" horiz-adv-x="1053" d="M102 257 L157 560 L135 560 L81 258 C53 104 104 -8 362 -8 L572 -8 C828 -8 912 87 940 244 L996 560 L975 560 L920 258 C893 109 824 12 576 12 L361 12 C120 12 77 114 102 257 L102 257 Z M533 635 L549 635 L712 806 L675 806 L533 635 Z " />
<glyph glyph-name="ucircumflex" unicode="&#xfb;" horiz-adv-x="1053" d="M102 257 L157 560 L135 560 L81 258 C53 104 104 -8 362 -8 L572 -8 C828 -8 912 87 940 244 L996 560 L975 560 L920 258 C893 109 824 12 576 12 L361 12 C120 12 77 114 102 257 L102 257 Z M435 635 L451 635 L607 787 L708 635 L721 635 L627 806 L593 806 L435 635 Z " />
<glyph glyph-name="udieresis" unicode="&#xfc;" horiz-adv-x="1053" d="M102 257 L157 560 L135 560 L81 258 C53 104 104 -8 362 -8 L572 -8 C828 -8 912 87 940 244 L996 560 L975 560 L920 258 C893 109 824 12 576 12 L361 12 C120 12 77 114 102 257 L102 257 Z M684 700 L724 700 L731 741 L691 741 L684 700 Z M454 700 L494 700 L501 741 L461 741 L454 700 Z " />
<glyph glyph-name="yacute" unicode="&#xfd;" horiz-adv-x="1015" d="M437 0 L459 0 L488 169 L1046 560 L1012 560 L479 186 L78 560 L47 560 L466 169 L437 0 Z M513 635 L529 635 L692 806 L655 806 L513 635 Z " />
<glyph glyph-name="thorn" unicode="&#xfe;" horiz-adv-x="1001" d="M55 0 L77 0 L98 119 L711 119 C890 119 946 210 946 307 C946 381 899 441 769 441 L157 441 L178 560 L156 560 L55 0 Z M765 421 C883 421 923 370 923 303 C923 219 871 139 714 139 L102 139 L152 421 L765 421 Z " />
<glyph glyph-name="ydieresis" unicode="&#xff;" horiz-adv-x="1015" d="M437 0 L459 0 L488 169 L1046 560 L1012 560 L479 186 L78 560 L47 560 L466 169 L437 0 Z M665 700 L705 700 L712 741 L672 741 L665 700 Z M435 700 L475 700 L482 741 L442 741 L435 700 Z " />
<glyph glyph-name="Amacron" unicode="&#x100;" horiz-adv-x="1206" d="M1103 0 L1129 0 L681 700 L655 700 L-43 0 L-13 0 L143 157 L1003 157 L1103 0 Z M666 684 L990 177 L163 177 L666 684 Z M511 851 L873 851 L876 869 L514 869 L511 851 Z " />
<glyph glyph-name="amacron" unicode="&#x101;" horiz-adv-x="1033" d="M929 0 L955 0 L569 560 L543 560 L-42 0 L-12 0 L122 129 L840 129 L929 0 Z M555 543 L826 149 L143 149 L555 543 Z M400 711 L762 711 L765 729 L403 729 L400 711 Z " />
<glyph glyph-name="Abreve" unicode="&#x102;" horiz-adv-x="1206" d="M1103 0 L1129 0 L681 700 L655 700 L-43 0 L-13 0 L143 157 L1003 157 L1103 0 Z M666 684 L990 177 L163 177 L666 684 Z M685 815 C594 815 571 868 576 926 L563 926 C557 861 581 794 682 794 C782 794 829 861 846 926 L831 926 C816 868 776 815 685 815 L685 815 Z " />
<glyph glyph-name="abreve" unicode="&#x103;" horiz-adv-x="1033" d="M929 0 L955 0 L569 560 L543 560 L-42 0 L-12 0 L122 129 L840 129 L929 0 Z M555 543 L826 149 L143 149 L555 543 Z M574 675 C483 675 460 728 465 786 L452 786 C446 721 470 654 571 654 C671 654 718 721 735 786 L720 786 C705 728 665 675 574 675 L574 675 Z " />
<glyph glyph-name="Aogonek" unicode="&#x104;" horiz-adv-x="1206" d="M921 -164 C921 -206 952 -229 1004 -229 C1035 -229 1062 -222 1099 -205 L1101 -192 C1062 -208 1037 -212 1010 -212 C970 -212 944 -192 944 -157 C944 -83 1036 -28 1129 0 L681 700 L655 700 L-43 0 L-13 0 L143 157 L1003 157 L1103 0 C1023 -22 921 -85 921 -164 L921 -164 Z M666 684 L990 177 L163 177 L666 684 Z " />
<glyph glyph-name="aogonek" unicode="&#x105;" horiz-adv-x="1033" d="M555 543 L826 149 L143 149 L555 543 Z M929 0 C849 -22 747 -85 747 -164 C747 -206 778 -229 830 -229 C861 -229 888 -222 925 -205 L927 -192 C888 -208 863 -212 836 -212 C796 -212 770 -192 770 -157 C770 -83 862 -28 955 0 L569 560 L543 560 L-42 0 L-12 0 L122 129 L840 129 L929 0 Z " />
<glyph glyph-name="Cacute" unicode="&#x106;" horiz-adv-x="1137" d="M97 298 C97 497 230 680 562 680 L1113 680 L1117 700 L561 700 C215 700 74 507 74 296 C74 130 176 0 444 0 L992 0 L995 20 L447 20 C191 20 97 142 97 298 L97 298 Z M646 775 L662 775 L825 946 L788 946 L646 775 Z " />
<glyph glyph-name="cacute" unicode="&#x107;" horiz-adv-x="976" d="M81 235 C81 389 180 540 465 540 L936 540 L941 560 L466 560 C165 560 58 400 58 232 C58 102 140 0 365 0 L840 0 L843 20 L367 20 C155 20 81 114 81 235 L81 235 Z M533 635 L549 635 L712 806 L675 806 L533 635 Z " />
<glyph glyph-name="Ccircumflex" unicode="&#x108;" horiz-adv-x="1137" d="M97 298 C97 497 230 680 562 680 L1113 680 L1117 700 L561 700 C215 700 74 507 74 296 C74 130 176 0 444 0 L992 0 L995 20 L447 20 C191 20 97 142 97 298 L97 298 Z M548 775 L564 775 L720 927 L821 775 L834 775 L740 946 L706 946 L548 775 Z " />
<glyph glyph-name="ccircumflex" unicode="&#x109;" horiz-adv-x="976" d="M81 235 C81 389 180 540 465 540 L936 540 L941 560 L466 560 C165 560 58 400 58 232 C58 102 140 0 365 0 L840 0 L843 20 L367 20 C155 20 81 114 81 235 L81 235 Z M435 635 L451 635 L607 787 L708 635 L721 635 L627 806 L593 806 L435 635 Z " />
<glyph glyph-name="Cdotaccent" unicode="&#x10a;" horiz-adv-x="1137" d="M97 298 C97 497 230 680 562 680 L1113 680 L1117 700 L561 700 C215 700 74 507 74 296 C74 130 176 0 444 0 L992 0 L995 20 L447 20 C191 20 97 142 97 298 L97 298 Z M683 840 L723 840 L729 881 L689 881 L683 840 Z " />
<glyph glyph-name="cdotaccent" unicode="&#x10b;" horiz-adv-x="976" d="M81 235 C81 389 180 540 465 540 L936 540 L941 560 L466 560 C165 560 58 400 58 232 C58 102 140 0 365 0 L840 0 L843 20 L367 20 C155 20 81 114 81 235 L81 235 Z M570 700 L610 700 L616 741 L576 741 L570 700 Z " />
<glyph glyph-name="Ccaron" unicode="&#x10c;" horiz-adv-x="1137" d="M97 298 C97 497 230 680 562 680 L1113 680 L1117 700 L561 700 C215 700 74 507 74 296 C74 130 176 0 444 0 L992 0 L995 20 L447 20 C191 20 97 142 97 298 L97 298 Z M867 946 L851 946 L695 794 L594 946 L581 946 L675 775 L709 775 L867 946 Z " />
<glyph glyph-name="ccaron" unicode="&#x10d;" horiz-adv-x="976" d="M81 235 C81 389 180 540 465 540 L936 540 L941 560 L466 560 C165 560 58 400 58 232 C58 102 140 0 365 0 L840 0 L843 20 L367 20 C155 20 81 114 81 235 L81 235 Z M754 806 L738 806 L582 654 L481 806 L468 806 L562 635 L596 635 L754 806 Z " />
<glyph glyph-name="Dcaron" unicode="&#x10e;" horiz-adv-x="1205" d="M65 0 L647 0 C994 0 1134 193 1134 404 C1134 569 1032 700 764 700 L190 700 L65 0 Z M761 680 C1016 680 1111 557 1111 402 C1111 203 978 20 646 20 L90 20 L207 680 L761 680 Z M839 946 L823 946 L667 794 L566 946 L553 946 L647 775 L681 775 L839 946 Z " />
<glyph glyph-name="dcaron" unicode="&#x10f;" horiz-adv-x="1039" d="M55 0 L554 0 C855 0 962 160 962 328 C962 458 880 560 655 560 L155 560 L55 0 Z M653 540 C865 540 939 446 939 325 C939 171 840 20 555 20 L81 20 L172 540 L653 540 Z M738 806 L722 806 L566 654 L465 806 L452 806 L546 635 L580 635 L738 806 Z " />
<glyph glyph-name="Dcroat" unicode="&#x110;" horiz-adv-x="1205" d="M-1 340 L125 340 L65 0 L647 0 C994 0 1134 193 1134 404 C1134 569 1032 700 764 700 L190 700 L129 360 L4 360 L-1 340 Z M761 680 C1016 680 1111 557 1111 402 C1111 203 978 20 646 20 L90 20 L147 340 L605 340 L610 360 L150 360 L207 680 L761 680 Z " />
<glyph glyph-name="dcroat" unicode="&#x111;" horiz-adv-x="1039" d="M-13 270 L103 270 L55 0 L554 0 C855 0 962 160 962 328 C962 458 880 560 655 560 L155 560 L106 290 L-8 290 L-13 270 Z M653 540 C865 540 939 446 939 325 C939 171 840 20 555 20 L81 20 L124 270 L523 270 L528 290 L128 290 L172 540 L653 540 Z " />
<glyph glyph-name="Emacron" unicode="&#x112;" horiz-adv-x="1151" d="M65 0 L1007 0 L1010 20 L90 20 L146 340 L968 340 L973 360 L151 360 L207 680 L1127 680 L1132 700 L190 700 L65 0 Z M494 851 L856 851 L859 869 L497 869 L494 851 Z " />
<glyph glyph-name="emacron" unicode="&#x113;" horiz-adv-x="994" d="M55 0 L856 0 L859 20 L80 20 L124 270 L820 270 L824 290 L129 290 L173 540 L952 540 L955 560 L154 560 L55 0 Z M393 711 L755 711 L758 729 L396 729 L393 711 Z " />
<glyph glyph-name="Ebreve" unicode="&#x114;" horiz-adv-x="1151" d="M65 0 L1007 0 L1010 20 L90 20 L146 340 L968 340 L973 360 L151 360 L207 680 L1127 680 L1132 700 L190 700 L65 0 Z M668 815 C577 815 554 868 559 926 L546 926 C540 861 564 794 665 794 C765 794 812 861 829 926 L814 926 C799 868 759 815 668 815 L668 815 Z " />
<glyph glyph-name="ebreve" unicode="&#x115;" horiz-adv-x="994" d="M55 0 L856 0 L859 20 L80 20 L124 270 L820 270 L824 290 L129 290 L173 540 L952 540 L955 560 L154 560 L55 0 Z M567 675 C476 675 453 728 458 786 L445 786 C439 721 463 654 564 654 C664 654 711 721 728 786 L713 786 C698 728 658 675 567 675 L567 675 Z " />
<glyph glyph-name="Edotaccent" unicode="&#x116;" horiz-adv-x="1151" d="M65 0 L1007 0 L1010 20 L90 20 L146 340 L968 340 L973 360 L151 360 L207 680 L1127 680 L1132 700 L190 700 L65 0 Z M653 840 L693 840 L699 881 L659 881 L653 840 Z " />
<glyph glyph-name="edotaccent" unicode="&#x117;" horiz-adv-x="994" d="M55 0 L856 0 L859 20 L80 20 L124 270 L820 270 L824 290 L129 290 L173 540 L952 540 L955 560 L154 560 L55 0 Z M552 700 L592 700 L598 741 L558 741 L552 700 Z " />
<glyph glyph-name="Eogonek" unicode="&#x118;" horiz-adv-x="1151" d="M65 0 L976 0 C896 -22 794 -85 794 -164 C794 -206 825 -229 877 -229 C908 -229 935 -222 972 -205 L974 -192 C935 -208 910 -212 883 -212 C843 -212 817 -192 817 -157 C817 -83 909 -28 1002 0 L1007 0 L1010 20 L90 20 L146 340 L968 340 L973 360 L151 360 L207 680 L1127 680 L1132 700 L190 700 L65 0 Z " />
<glyph glyph-name="eogonek" unicode="&#x119;" horiz-adv-x="994" d="M55 0 L825 0 C745 -22 643 -85 643 -164 C643 -206 674 -229 726 -229 C757 -229 784 -222 821 -205 L823 -192 C784 -208 759 -212 732 -212 C692 -212 666 -192 666 -157 C666 -83 758 -28 851 0 L856 0 L859 20 L80 20 L124 270 L820 270 L824 290 L129 290 L173 540 L952 540 L955 560 L154 560 L55 0 Z " />
<glyph glyph-name="Ecaron" unicode="&#x11a;" horiz-adv-x="1151" d="M65 0 L1007 0 L1010 20 L90 20 L146 340 L968 340 L973 360 L151 360 L207 680 L1127 680 L1132 700 L190 700 L65 0 Z M837 946 L821 946 L665 794 L564 946 L551 946 L645 775 L679 775 L837 946 Z " />
<glyph glyph-name="ecaron" unicode="&#x11b;" horiz-adv-x="994" d="M55 0 L856 0 L859 20 L80 20 L124 270 L820 270 L824 290 L129 290 L173 540 L952 540 L955 560 L154 560 L55 0 Z M736 806 L720 806 L564 654 L463 806 L450 806 L544 635 L578 635 L736 806 Z " />
<glyph glyph-name="Gcircumflex" unicode="&#x11c;" horiz-adv-x="1206" d="M644 340 L1082 340 L1026 20 L447 20 C191 20 97 142 97 298 C97 497 230 680 562 680 L1113 680 L1117 700 L561 700 C215 700 74 507 74 296 C74 130 176 0 444 0 L1045 0 L1109 360 L649 360 L644 340 Z M558 775 L574 775 L730 927 L831 775 L844 775 L750 946 L716 946 L558 775 Z " />
<glyph glyph-name="gcircumflex" unicode="&#x11d;" horiz-adv-x="1039" d="M365 0 L885 0 L937 290 L545 290 L540 270 L910 270 L866 20 L367 20 C155 20 81 114 81 235 C81 389 180 540 465 540 L936 540 L939 560 L466 560 C165 560 58 400 58 232 C58 102 140 0 365 0 L365 0 Z M439 635 L455 635 L611 787 L712 635 L725 635 L631 806 L597 806 L439 635 Z " />
<glyph glyph-name="Gbreve" unicode="&#x11e;" horiz-adv-x="1206" d="M644 340 L1082 340 L1026 20 L447 20 C191 20 97 142 97 298 C97 497 230 680 562 680 L1113 680 L1117 700 L561 700 C215 700 74 507 74 296 C74 130 176 0 444 0 L1045 0 L1109 360 L649 360 L644 340 Z M708 815 C617 815 594 868 599 926 L586 926 C580 861 604 794 705 794 C805 794 852 861 869 926 L854 926 C839 868 799 815 708 815 L708 815 Z " />
<glyph glyph-name="gbreve" unicode="&#x11f;" horiz-adv-x="1039" d="M365 0 L885 0 L937 290 L545 290 L540 270 L910 270 L866 20 L367 20 C155 20 81 114 81 235 C81 389 180 540 465 540 L936 540 L939 560 L466 560 C165 560 58 400 58 232 C58 102 140 0 365 0 L365 0 Z M589 675 C498 675 475 728 480 786 L467 786 C461 721 485 654 586 654 C686 654 733 721 750 786 L735 786 C720 728 680 675 589 675 L589 675 Z " />
<glyph glyph-name="Gdotaccent" unicode="&#x120;" horiz-adv-x="1206" d="M644 340 L1082 340 L1026 20 L447 20 C191 20 97 142 97 298 C97 497 230 680 562 680 L1113 680 L1117 700 L561 700 C215 700 74 507 74 296 C74 130 176 0 444 0 L1045 0 L1109 360 L649 360 L644 340 Z M693 840 L733 840 L739 881 L699 881 L693 840 Z " />
<glyph glyph-name="gdotaccent" unicode="&#x121;" horiz-adv-x="1039" d="M365 0 L885 0 L937 290 L545 290 L540 270 L910 270 L866 20 L367 20 C155 20 81 114 81 235 C81 389 180 540 465 540 L936 540 L939 560 L466 560 C165 560 58 400 58 232 C58 102 140 0 365 0 L365 0 Z M574 700 L614 700 L620 741 L580 741 L574 700 Z " />
<glyph glyph-name="uni0122" unicode="&#x122;" horiz-adv-x="1206" d="M644 340 L1082 340 L1026 20 L447 20 C191 20 97 142 97 298 C97 497 230 680 562 680 L1113 680 L1117 700 L561 700 C215 700 74 507 74 296 C74 130 176 0 444 0 L1045 0 L1109 360 L649 360 L644 340 Z M527 -181 L549 -181 L516 -260 L529 -260 L566 -181 L573 -140 L534 -140 L527 -181 Z " />
<glyph glyph-name="uni0123" unicode="&#x123;" horiz-adv-x="1039" d="M365 0 L885 0 L937 290 L545 290 L540 270 L910 270 L866 20 L367 20 C155 20 81 114 81 235 C81 389 180 540 465 540 L936 540 L939 560 L466 560 C165 560 58 400 58 232 C58 102 140 0 365 0 L365 0 Z M435 -181 L457 -181 L424 -260 L437 -260 L474 -181 L481 -140 L442 -140 L435 -181 Z " />
<glyph glyph-name="Hcircumflex" unicode="&#x124;" horiz-adv-x="1253" d="M1046 0 L1068 0 L1193 700 L1171 700 L1110 360 L151 360 L212 700 L190 700 L65 0 L87 0 L146 340 L1105 340 L1046 0 Z M559 775 L575 775 L731 927 L832 775 L845 775 L751 946 L717 946 L559 775 Z " />
<glyph glyph-name="hcircumflex" unicode="&#x125;" horiz-adv-x="1084" d="M887 0 L909 0 L1008 560 L986 560 L939 290 L129 290 L176 560 L154 560 L55 0 L77 0 L124 270 L934 270 L887 0 Z M450 635 L466 635 L622 787 L723 635 L736 635 L642 806 L608 806 L450 635 Z " />
<glyph glyph-name="Hbar" unicode="&#x126;" horiz-adv-x="1253" d="M61 521 L158 521 L65 0 L87 0 L146 340 L1105 340 L1046 0 L1068 0 L1161 521 L1257 521 L1261 539 L1164 539 L1193 700 L1171 700 L1142 539 L183 539 L212 700 L190 700 L161 539 L65 539 L61 521 Z M151 360 L180 521 L1139 521 L1110 360 L151 360 Z " />
<glyph glyph-name="hbar" unicode="&#x127;" horiz-adv-x="1084" d="M43 416 L128 416 L55 0 L77 0 L124 270 L934 270 L887 0 L909 0 L982 416 L1069 416 L1072 434 L985 434 L1008 560 L986 560 L964 434 L154 434 L176 560 L154 560 L131 434 L46 434 L43 416 Z M129 290 L151 416 L961 416 L939 290 L129 290 Z " />
<glyph glyph-name="Itilde" unicode="&#x128;" horiz-adv-x="272" d="M65 0 L87 0 L212 700 L190 700 L65 0 Z M379 919 C355 842 329 833 299 833 C246 833 222 910 158 910 C119 910 87 890 60 802 L74 802 C97 879 126 889 156 889 C208 889 231 812 294 812 C334 812 367 832 393 919 L379 919 Z " />
<glyph glyph-name="itilde" unicode="&#x129;" horiz-adv-x="252" d="M55 0 L77 0 L176 560 L154 560 L55 0 Z M345 779 C321 702 295 693 265 693 C212 693 188 770 124 770 C85 770 53 750 26 662 L40 662 C63 739 92 749 122 749 C174 749 197 672 260 672 C300 672 333 692 359 779 L345 779 Z " />
<glyph glyph-name="Imacron" unicode="&#x12a;" horiz-adv-x="272" d="M65 0 L87 0 L212 700 L190 700 L65 0 Z M45 851 L407 851 L410 869 L48 869 L45 851 Z " />
<glyph glyph-name="imacron" unicode="&#x12b;" horiz-adv-x="252" d="M55 0 L77 0 L176 560 L154 560 L55 0 Z M11 711 L373 711 L376 729 L14 729 L11 711 Z " />
<glyph glyph-name="Ibreve" unicode="&#x12c;" horiz-adv-x="272" d="M65 0 L87 0 L212 700 L190 700 L65 0 Z M219 815 C128 815 105 868 110 926 L97 926 C91 861 115 794 216 794 C316 794 363 861 380 926 L365 926 C350 868 310 815 219 815 L219 815 Z " />
<glyph glyph-name="ibreve" unicode="&#x12d;" horiz-adv-x="252" d="M55 0 L77 0 L176 560 L154 560 L55 0 Z M185 675 C94 675 71 728 76 786 L63 786 C57 721 81 654 182 654 C282 654 329 721 346 786 L331 786 C316 728 276 675 185 675 L185 675 Z " />
<glyph glyph-name="Iogonek" unicode="&#x12e;" horiz-adv-x="272" d="M-67 -157 C-67 -206 -31 -229 14 -229 C45 -229 72 -222 109 -205 L112 -192 C72 -208 47 -212 20 -212 C-21 -212 -44 -191 -44 -155 C-44 -93 -4 -50 84 0 L87 0 L212 700 L190 700 L65 0 C-3 -34 -67 -91 -67 -157 L-67 -157 Z " />
<glyph glyph-name="iogonek" unicode="&#x12f;" horiz-adv-x="252" d="M-77 -157 C-77 -206 -41 -229 4 -229 C35 -229 62 -222 99 -205 L102 -192 C62 -208 37 -212 10 -212 C-31 -212 -54 -191 -54 -155 C-54 -93 -14 -50 74 0 L77 0 L176 560 L154 560 L55 0 C-13 -34 -77 -91 -77 -157 L-77 -157 Z " />
<glyph glyph-name="Idotaccent" unicode="&#x130;" horiz-adv-x="272" d="M65 0 L87 0 L212 700 L190 700 L65 0 Z M204 840 L244 840 L250 881 L210 881 L204 840 Z " />
<glyph glyph-name="dotlessi" unicode="&#x131;" horiz-adv-x="252" d="M55 0 L77 0 L176 560 L154 560 L55 0 Z " />
<glyph glyph-name="IJ" unicode="&#x132;" horiz-adv-x="1220" d="M125 445 L147 445 L193 700 L171 700 L125 445 Z M373 -5 L662 -5 C966 -5 1076 117 1110 308 L1180 700 L1158 700 L1090 319 C1056 131 950 15 664 15 L380 15 C147 15 85 130 115 272 L123 310 L102 310 L95 275 C64 122 130 -5 373 -5 L373 -5 Z " />
<glyph glyph-name="ij" unicode="&#x133;" horiz-adv-x="1050" d="M99 356 L121 356 L157 560 L135 560 L99 356 Z M309 -4 L571 -4 C827 -4 911 91 939 248 L994 560 L972 560 L919 262 C892 112 823 16 575 16 L312 16 C120 16 73 102 95 217 L101 249 L80 249 L74 220 C49 99 101 -4 309 -4 L309 -4 Z " />
<glyph glyph-name="Jcircumflex" unicode="&#x134;" horiz-adv-x="1163" d="M315 -5 L604 -5 C908 -5 1018 117 1052 308 L1122 700 L1100 700 L1032 319 C998 131 892 15 606 15 L322 15 C89 15 27 130 57 272 L65 310 L44 310 L37 275 C6 122 72 -5 315 -5 L315 -5 Z M951 775 L967 775 L1123 927 L1224 775 L1237 775 L1143 946 L1109 946 L951 775 Z " />
<glyph glyph-name="jcircumflex" unicode="&#x135;" horiz-adv-x="1002" d="M261 -4 L523 -4 C779 -4 863 91 891 248 L946 560 L924 560 L871 262 C844 112 775 16 527 16 L264 16 C72 16 25 102 47 217 L53 249 L32 249 L26 220 C1 99 53 -4 261 -4 L261 -4 Z M776 635 L792 635 L948 787 L1049 635 L1062 635 L968 806 L934 806 L776 635 Z " />
<glyph glyph-name="uni0136" unicode="&#x136;" horiz-adv-x="1229" d="M1194 700 L1147 700 L118 173 L212 700 L190 700 L65 0 L87 0 L112 147 L524 358 L1114 0 L1157 0 L547 369 L1194 700 Z M505 -181 L527 -181 L494 -260 L507 -260 L544 -181 L551 -140 L512 -140 L505 -181 Z " />
<glyph glyph-name="uni0137" unicode="&#x137;" horiz-adv-x="1062" d="M1014 560 L966 560 L102 143 L176 560 L154 560 L55 0 L77 0 L97 117 L446 285 L942 0 L985 0 L467 295 L1014 560 Z M426 -181 L448 -181 L415 -260 L428 -260 L465 -181 L472 -140 L433 -140 L426 -181 Z " />
<glyph glyph-name="kgreenlandic" unicode="&#x138;" horiz-adv-x="1168" d="M1135 481 L1113 481 L1146 560 L1132 560 L1095 481 L1088 440 L1128 440 L1135 481 Z M1014 560 L966 560 L102 143 L176 560 L154 560 L55 0 L77 0 L97 117 L446 285 L942 0 L985 0 L467 295 L1014 560 Z " />
<glyph glyph-name="Lacute" unicode="&#x139;" horiz-adv-x="1084" d="M212 700 L190 700 L65 0 L988 0 L990 20 L90 20 L212 700 Z M167 775 L183 775 L346 946 L309 946 L167 775 Z " />
<glyph glyph-name="lacute" unicode="&#x13a;" horiz-adv-x="948" d="M176 560 L154 560 L55 0 L840 0 L843 20 L80 20 L176 560 Z M133 635 L149 635 L312 806 L275 806 L133 635 Z " />
<glyph glyph-name="uni013B" unicode="&#x13b;" horiz-adv-x="1084" d="M212 700 L190 700 L65 0 L988 0 L990 20 L90 20 L212 700 Z M468 -181 L490 -181 L457 -260 L470 -260 L507 -181 L514 -140 L475 -140 L468 -181 Z " />
<glyph glyph-name="uni013C" unicode="&#x13c;" horiz-adv-x="948" d="M176 560 L154 560 L55 0 L840 0 L843 20 L80 20 L176 560 Z M397 -181 L419 -181 L386 -260 L399 -260 L436 -181 L443 -140 L404 -140 L397 -181 Z " />
<glyph glyph-name="Lcaron" unicode="&#x13d;" horiz-adv-x="1084" d="M212 700 L190 700 L65 0 L988 0 L990 20 L90 20 L212 700 Z M939 659 L961 659 L927 580 L940 580 L979 659 L986 700 L945 700 L939 659 Z " />
<glyph glyph-name="lcaron" unicode="&#x13e;" horiz-adv-x="948" d="M174 560 L153 560 L55 0 L840 0 L843 20 L79 20 L174 560 Z M795 519 L817 519 L784 440 L797 440 L835 519 L842 560 L802 560 L795 519 Z " />
<glyph glyph-name="Ldot" unicode="&#x13f;" horiz-adv-x="1084" d="M212 700 L190 700 L65 0 L988 0 L990 20 L90 20 L212 700 Z M688 350 L728 350 L734 391 L694 391 L688 350 Z " />
<glyph glyph-name="ldot" unicode="&#x140;" horiz-adv-x="948" d="M176 560 L154 560 L55 0 L840 0 L843 20 L80 20 L176 560 Z M593 279 L633 279 L639 320 L599 320 L593 279 Z " />
<glyph glyph-name="Lslash" unicode="&#x141;" horiz-adv-x="1084" d="M596 517 L140 292 L212 700 L190 700 L115 280 L11 229 L5 204 L111 256 L65 0 L988 0 L990 20 L90 20 L134 267 L590 493 L596 517 Z " />
<glyph glyph-name="lslash" unicode="&#x142;" horiz-adv-x="948" d="M503 417 L120 238 L176 560 L154 560 L95 227 L8 186 L2 161 L91 203 L55 0 L840 0 L843 20 L80 20 L114 214 L497 393 L503 417 Z " />
<glyph glyph-name="Nacute" unicode="&#x143;" horiz-adv-x="1250" d="M1044 0 L1065 0 L1190 700 L1168 700 L1047 23 L211 700 L190 700 L65 0 L87 0 L206 677 L1044 0 Z M655 775 L671 775 L834 946 L797 946 L655 775 Z " />
<glyph glyph-name="nacute" unicode="&#x144;" horiz-adv-x="1081" d="M906 0 L1005 560 L983 560 L887 24 L175 560 L154 560 L55 0 L77 0 L173 537 L885 0 L906 0 Z M546 635 L562 635 L725 806 L688 806 L546 635 Z " />
<glyph glyph-name="uni0145" unicode="&#x145;" horiz-adv-x="1250" d="M1044 0 L1065 0 L1190 700 L1168 700 L1047 23 L211 700 L190 700 L65 0 L87 0 L206 677 L1044 0 Z M514 -181 L536 -181 L503 -260 L516 -260 L553 -181 L560 -140 L521 -140 L514 -181 Z " />
<glyph glyph-name="uni0146" unicode="&#x146;" horiz-adv-x="1081" d="M906 0 L1005 560 L983 560 L887 24 L175 560 L154 560 L55 0 L77 0 L173 537 L885 0 L906 0 Z M429 -181 L451 -181 L418 -260 L431 -260 L468 -181 L475 -140 L436 -140 L429 -181 Z " />
<glyph glyph-name="Ncaron" unicode="&#x147;" horiz-adv-x="1250" d="M1044 0 L1065 0 L1190 700 L1168 700 L1047 23 L211 700 L190 700 L65 0 L87 0 L206 677 L1044 0 Z M876 946 L860 946 L704 794 L603 946 L590 946 L684 775 L718 775 L876 946 Z " />
<glyph glyph-name="ncaron" unicode="&#x148;" horiz-adv-x="1081" d="M906 0 L1005 560 L983 560 L887 24 L175 560 L154 560 L55 0 L77 0 L173 537 L885 0 L906 0 Z M767 806 L751 806 L595 654 L494 806 L481 806 L575 635 L609 635 L767 806 Z " />
<glyph glyph-name="napostrophe" unicode="&#x149;" horiz-adv-x="1216" d="M1041 0 L1140 560 L1118 560 L1022 24 L310 560 L289 560 L190 0 L212 0 L308 537 L1020 0 L1041 0 Z M119 659 L141 659 L108 580 L121 580 L158 659 L165 700 L126 700 L119 659 Z " />
<glyph glyph-name="Eng" unicode="&#x14a;" horiz-adv-x="1250" d="M622 -230 L803 -230 C962 -230 1037 -152 1054 -57 L1190 700 L1168 700 L1047 23 L211 700 L190 700 L65 0 L87 0 L206 677 L1044 0 L1034 -50 C1016 -139 951 -210 806 -210 L626 -210 L622 -230 Z " />
<glyph glyph-name="eng" unicode="&#x14b;" horiz-adv-x="1081" d="M531 -184 L691 -184 C826 -184 885 -119 899 -39 L1005 560 L983 560 L887 24 L175 560 L154 560 L55 0 L77 0 L173 537 L884 1 L877 -39 C865 -108 816 -164 695 -164 L535 -164 L531 -184 Z " />
<glyph glyph-name="Omacron" unicode="&#x14c;" horiz-adv-x="1294" d="M726 -10 C1088 -10 1223 194 1223 414 C1223 581 1116 710 846 710 L573 710 C216 710 74 511 74 293 C74 122 180 -10 453 -10 L726 -10 Z M457 10 C193 10 97 134 97 296 C97 501 234 690 576 690 L842 690 C1104 690 1200 568 1200 408 C1200 204 1071 10 724 10 L457 10 Z M555 851 L917 851 L920 869 L558 869 L555 851 Z " />
<glyph glyph-name="omacron" unicode="&#x14d;" horiz-adv-x="1111" d="M612 -8 C917 -8 1033 152 1033 326 C1033 461 951 568 716 568 L477 568 C172 568 58 408 58 234 C58 99 138 -8 373 -8 L612 -8 Z M377 12 C158 12 80 109 80 231 C80 396 188 548 481 548 L713 548 C933 548 1010 450 1010 327 C1010 165 904 12 609 12 L377 12 Z M440 711 L802 711 L805 729 L443 729 L440 711 Z " />
<glyph glyph-name="Obreve" unicode="&#x14e;" horiz-adv-x="1294" d="M726 -10 C1088 -10 1223 194 1223 414 C1223 581 1116 710 846 710 L573 710 C216 710 74 511 74 293 C74 122 180 -10 453 -10 L726 -10 Z M457 10 C193 10 97 134 97 296 C97 501 234 690 576 690 L842 690 C1104 690 1200 568 1200 408 C1200 204 1071 10 724 10 L457 10 Z M729 815 C638 815 615 868 620 926 L607 926 C601 861 625 794 726 794 C826 794 873 861 890 926 L875 926 C860 868 820 815 729 815 L729 815 Z " />
<glyph glyph-name="obreve" unicode="&#x14f;" horiz-adv-x="1111" d="M612 -8 C917 -8 1033 152 1033 326 C1033 461 951 568 716 568 L477 568 C172 568 58 408 58 234 C58 99 138 -8 373 -8 L612 -8 Z M377 12 C158 12 80 109 80 231 C80 396 188 548 481 548 L713 548 C933 548 1010 450 1010 327 C1010 165 904 12 609 12 L377 12 Z M614 675 C523 675 500 728 505 786 L492 786 C486 721 510 654 611 654 C711 654 758 721 775 786 L760 786 C745 728 705 675 614 675 L614 675 Z " />
<glyph glyph-name="Ohungarumlaut" unicode="&#x150;" horiz-adv-x="1294" d="M726 -10 C1088 -10 1223 194 1223 414 C1223 581 1116 710 846 710 L573 710 C216 710 74 511 74 293 C74 122 180 -10 453 -10 L726 -10 Z M457 10 C193 10 97 134 97 296 C97 501 234 690 576 690 L842 690 C1104 690 1200 568 1200 408 C1200 204 1071 10 724 10 L457 10 Z M767 775 L783 775 L947 946 L910 946 L767 775 Z M590 775 L606 775 L769 946 L733 946 L590 775 Z " />
<glyph glyph-name="ohungarumlaut" unicode="&#x151;" horiz-adv-x="1111" d="M612 -8 C917 -8 1033 152 1033 326 C1033 461 951 568 716 568 L477 568 C172 568 58 408 58 234 C58 99 138 -8 373 -8 L612 -8 Z M377 12 C158 12 80 109 80 231 C80 396 188 548 481 548 L713 548 C933 548 1010 450 1010 327 C1010 165 904 12 609 12 L377 12 Z M652 635 L668 635 L832 806 L795 806 L652 635 Z M475 635 L491 635 L654 806 L618 806 L475 635 Z " />
<glyph glyph-name="OE" unicode="&#x152;" horiz-adv-x="1668" d="M74 296 C71 130 175 0 443 0 L1524 0 L1527 20 L708 20 L764 340 L1486 340 L1490 360 L769 360 L825 680 L1645 680 L1649 700 L568 700 C222 700 77 507 74 296 L74 296 Z M98 298 C101 497 232 680 564 680 L803 680 L686 20 L447 20 C192 20 95 143 98 298 L98 298 Z " />
<glyph glyph-name="oe" unicode="&#x153;" horiz-adv-x="1430" d="M1293 0 L1296 20 L601 20 L646 270 L1256 270 L1260 290 L650 290 L695 540 L1389 540 L1392 560 L466 560 C165 560 58 400 58 232 C58 102 140 0 365 0 L1293 0 Z M81 235 C81 389 180 540 465 540 L673 540 L579 20 L367 20 C155 20 81 114 81 235 L81 235 Z " />
<glyph glyph-name="Racute" unicode="&#x154;" horiz-adv-x="1224" d="M65 0 L87 0 L140 300 L617 300 L1111 0 L1152 0 L657 300 L841 300 C1044 300 1124 407 1124 531 C1124 625 1068 700 913 700 L190 700 L65 0 Z M908 680 C1050 680 1101 612 1101 528 C1101 418 1026 320 841 320 L143 320 L208 680 L908 680 Z M603 775 L619 775 L782 946 L745 946 L603 775 Z " />
<glyph glyph-name="racute" unicode="&#x155;" horiz-adv-x="1061" d="M55 0 L77 0 L119 238 L523 238 L937 0 L980 0 L563 238 L716 238 C894 238 949 329 949 428 C949 501 904 560 774 560 L154 560 L55 0 Z M769 540 C886 540 926 490 926 424 C926 338 879 258 719 258 L123 258 L173 540 L769 540 Z M502 635 L518 635 L681 806 L644 806 L502 635 Z " />
<glyph glyph-name="uni0156" unicode="&#x156;" horiz-adv-x="1224" d="M65 0 L87 0 L140 300 L617 300 L1111 0 L1152 0 L657 300 L841 300 C1044 300 1124 407 1124 531 C1124 625 1068 700 913 700 L190 700 L65 0 Z M908 680 C1050 680 1101 612 1101 528 C1101 418 1026 320 841 320 L143 320 L208 680 L908 680 Z M502 -181 L524 -181 L491 -260 L504 -260 L541 -181 L548 -140 L509 -140 L502 -181 Z " />
<glyph glyph-name="uni0157" unicode="&#x157;" horiz-adv-x="1061" d="M55 0 L77 0 L119 238 L523 238 L937 0 L980 0 L563 238 L716 238 C894 238 949 329 949 428 C949 501 904 560 774 560 L154 560 L55 0 Z M769 540 C886 540 926 490 926 424 C926 338 879 258 719 258 L123 258 L173 540 L769 540 Z M423 -181 L445 -181 L412 -260 L425 -260 L462 -181 L469 -140 L430 -140 L423 -181 Z " />
<glyph glyph-name="Rcaron" unicode="&#x158;" horiz-adv-x="1224" d="M65 0 L87 0 L140 300 L617 300 L1111 0 L1152 0 L657 300 L841 300 C1044 300 1124 407 1124 531 C1124 625 1068 700 913 700 L190 700 L65 0 Z M908 680 C1050 680 1101 612 1101 528 C1101 418 1026 320 841 320 L143 320 L208 680 L908 680 Z M824 946 L808 946 L652 794 L551 946 L538 946 L632 775 L666 775 L824 946 Z " />
<glyph glyph-name="rcaron" unicode="&#x159;" horiz-adv-x="1061" d="M55 0 L77 0 L119 238 L523 238 L937 0 L980 0 L563 238 L716 238 C894 238 949 329 949 428 C949 501 904 560 774 560 L154 560 L55 0 Z M769 540 C886 540 926 490 926 424 C926 338 879 258 719 258 L123 258 L173 540 L769 540 Z M723 806 L707 806 L551 654 L450 806 L437 806 L531 635 L565 635 L723 806 Z " />
<glyph glyph-name="Sacute" unicode="&#x15a;" horiz-adv-x="1159" d="M805 20 L59 20 L55 0 L804 0 C985 0 1058 100 1058 210 C1058 294 1007 360 868 360 L301 360 C176 360 130 417 130 493 C130 592 197 680 359 680 L1106 680 L1109 700 L361 700 C180 700 107 600 107 490 C107 406 158 340 297 340 L864 340 C989 340 1035 283 1035 207 C1035 108 968 20 805 20 L805 20 Z M610 775 L626 775 L789 946 L752 946 L610 775 Z " />
<glyph glyph-name="sacute" unicode="&#x15b;" horiz-adv-x="993" d="M681 20 L46 20 L42 0 L682 0 C842 0 892 86 892 170 C892 238 851 290 734 290 L242 290 C139 290 104 333 104 392 C104 471 151 540 292 540 L927 540 L932 560 L291 560 C131 560 81 474 81 390 C81 322 122 270 239 270 L730 270 C834 270 869 227 869 168 C869 89 822 20 681 20 L681 20 Z M502 635 L518 635 L681 806 L644 806 L502 635 Z " />
<glyph glyph-name="Scircumflex" unicode="&#x15c;" horiz-adv-x="1159" d="M805 20 L59 20 L55 0 L804 0 C985 0 1058 100 1058 210 C1058 294 1007 360 868 360 L301 360 C176 360 130 417 130 493 C130 592 197 680 359 680 L1106 680 L1109 700 L361 700 C180 700 107 600 107 490 C107 406 158 340 297 340 L864 340 C989 340 1035 283 1035 207 C1035 108 968 20 805 20 L805 20 Z M512 775 L528 775 L684 927 L785 775 L798 775 L704 946 L670 946 L512 775 Z " />
<glyph glyph-name="scircumflex" unicode="&#x15d;" horiz-adv-x="993" d="M681 20 L46 20 L42 0 L682 0 C842 0 892 86 892 170 C892 238 851 290 734 290 L242 290 C139 290 104 333 104 392 C104 471 151 540 292 540 L927 540 L932 560 L291 560 C131 560 81 474 81 390 C81 322 122 270 239 270 L730 270 C834 270 869 227 869 168 C869 89 822 20 681 20 L681 20 Z M404 635 L420 635 L576 787 L677 635 L690 635 L596 806 L562 806 L404 635 Z " />
<glyph glyph-name="Scedilla" unicode="&#x15e;" horiz-adv-x="1159" d="M473 -84 L485 -84 C551 -84 588 -99 588 -142 C588 -199 531 -219 477 -219 C440 -219 403 -211 386 -202 L384 -215 C407 -228 443 -237 479 -237 C544 -237 610 -212 610 -139 C610 -78 548 -63 496 -68 L527 0 L804 0 C985 0 1058 100 1058 210 C1058 294 1007 360 868 360 L301 360 C176 360 130 417 130 493 C130 592 197 680 359 680 L1106 680 L1109 700 L361 700 C180 700 107 600 107 490 C107 406 158 340 297 340 L864 340 C989 340 1035 283 1035 207 C1035 108 968 20 805 20 L59 20 L55 0 L512 0 L473 -84 Z " />
<glyph glyph-name="scedilla" unicode="&#x15f;" horiz-adv-x="993" d="M390 -84 L402 -84 C468 -84 505 -99 505 -142 C505 -199 448 -219 394 -219 C357 -219 320 -211 303 -202 L301 -215 C324 -228 360 -237 396 -237 C461 -237 527 -212 527 -139 C527 -78 465 -63 413 -68 L444 0 L682 0 C842 0 892 86 892 170 C892 238 851 290 734 290 L242 290 C139 290 104 333 104 392 C104 471 151 540 292 540 L927 540 L932 560 L291 560 C131 560 81 474 81 390 C81 322 122 270 239 270 L730 270 C834 270 869 227 869 168 C869 89 822 20 681 20 L46 20 L42 0 L429 0 L390 -84 Z " />
<glyph glyph-name="Scaron" unicode="&#x160;" horiz-adv-x="1159" d="M805 20 L59 20 L55 0 L804 0 C985 0 1058 100 1058 210 C1058 294 1007 360 868 360 L301 360 C176 360 130 417 130 493 C130 592 197 680 359 680 L1106 680 L1109 700 L361 700 C180 700 107 600 107 490 C107 406 158 340 297 340 L864 340 C989 340 1035 283 1035 207 C1035 108 968 20 805 20 L805 20 Z M831 946 L815 946 L659 794 L558 946 L545 946 L639 775 L673 775 L831 946 Z " />
<glyph glyph-name="scaron" unicode="&#x161;" horiz-adv-x="993" d="M681 20 L46 20 L42 0 L682 0 C842 0 892 86 892 170 C892 238 851 290 734 290 L242 290 C139 290 104 333 104 392 C104 471 151 540 292 540 L927 540 L932 560 L291 560 C131 560 81 474 81 390 C81 322 122 270 239 270 L730 270 C834 270 869 227 869 168 C869 89 822 20 681 20 L681 20 Z M723 806 L707 806 L551 654 L450 806 L437 806 L531 635 L565 635 L723 806 Z " />
<glyph glyph-name="uni0162" unicode="&#x162;" horiz-adv-x="1137" d="M462 -84 L474 -84 C540 -84 577 -99 577 -142 C577 -199 520 -219 466 -219 C429 -219 392 -211 375 -202 L373 -215 C396 -228 432 -237 468 -237 C533 -237 599 -212 599 -139 C599 -78 537 -63 485 -68 L516 0 L519 0 L640 680 L1161 680 L1165 700 L102 700 L97 680 L618 680 L497 0 L501 0 L462 -84 Z " />
<glyph glyph-name="uni0163" unicode="&#x163;" horiz-adv-x="1001" d="M394 -84 L406 -84 C472 -84 509 -99 509 -142 C509 -199 452 -219 398 -219 C361 -219 324 -211 307 -202 L305 -215 C328 -228 364 -237 400 -237 C465 -237 531 -212 531 -139 C531 -78 469 -63 417 -68 L448 0 L451 0 L547 540 L989 540 L992 560 L88 560 L85 540 L526 540 L429 0 L433 0 L394 -84 Z " />
<glyph glyph-name="Tcaron" unicode="&#x164;" horiz-adv-x="1137" d="M97 680 L618 680 L497 0 L519 0 L640 680 L1161 680 L1165 700 L102 700 L97 680 Z M819 946 L803 946 L647 794 L546 946 L533 946 L627 775 L661 775 L819 946 Z " />
<glyph glyph-name="tcaron" unicode="&#x165;" horiz-adv-x="1001" d="M85 540 L526 540 L429 0 L451 0 L547 540 L989 540 L992 560 L88 560 L85 540 Z M728 806 L712 806 L556 654 L455 806 L442 806 L536 635 L570 635 L728 806 Z " />
<glyph glyph-name="Tbar" unicode="&#x166;" horiz-adv-x="1137" d="M97 680 L618 680 L561 360 L269 360 L264 340 L557 340 L497 0 L519 0 L579 340 L870 340 L875 360 L583 360 L640 680 L1161 680 L1165 700 L102 700 L97 680 Z " />
<glyph glyph-name="tbar" unicode="&#x167;" horiz-adv-x="1001" d="M85 540 L526 540 L481 290 L224 290 L219 270 L477 270 L429 0 L451 0 L499 270 L755 270 L760 290 L502 290 L547 540 L989 540 L992 560 L88 560 L85 540 Z " />
<glyph glyph-name="Utilde" unicode="&#x168;" horiz-adv-x="1224" d="M124 323 L193 700 L171 700 L102 323 C67 130 143 -10 447 -10 L665 -10 C969 -10 1080 121 1114 311 L1184 700 L1162 700 L1094 320 C1060 132 953 10 667 10 L452 10 C161 10 92 138 124 323 L124 323 Z M855 919 C831 842 805 833 775 833 C722 833 698 910 634 910 C595 910 563 890 536 802 L550 802 C573 879 602 889 632 889 C684 889 707 812 770 812 C810 812 843 832 869 919 L855 919 Z " />
<glyph glyph-name="utilde" unicode="&#x169;" horiz-adv-x="1053" d="M102 257 L157 560 L135 560 L81 258 C53 104 104 -8 362 -8 L572 -8 C828 -8 912 87 940 244 L996 560 L975 560 L920 258 C893 109 824 12 576 12 L361 12 C120 12 77 114 102 257 L102 257 Z M745 779 C721 702 695 693 665 693 C612 693 588 770 524 770 C485 770 453 750 426 662 L440 662 C463 739 492 749 522 749 C574 749 597 672 660 672 C700 672 733 692 759 779 L745 779 Z " />
<glyph glyph-name="Umacron" unicode="&#x16a;" horiz-adv-x="1224" d="M124 323 L193 700 L171 700 L102 323 C67 130 143 -10 447 -10 L665 -10 C969 -10 1080 121 1114 311 L1184 700 L1162 700 L1094 320 C1060 132 953 10 667 10 L452 10 C161 10 92 138 124 323 L124 323 Z M520 851 L882 851 L885 869 L523 869 L520 851 Z " />
<glyph glyph-name="umacron" unicode="&#x16b;" horiz-adv-x="1053" d="M102 257 L157 560 L135 560 L81 258 C53 104 104 -8 362 -8 L572 -8 C828 -8 912 87 940 244 L996 560 L975 560 L920 258 C893 109 824 12 576 12 L361 12 C120 12 77 114 102 257 L102 257 Z M411 711 L773 711 L776 729 L414 729 L411 711 Z " />
<glyph glyph-name="Ubreve" unicode="&#x16c;" horiz-adv-x="1224" d="M124 323 L193 700 L171 700 L102 323 C67 130 143 -10 447 -10 L665 -10 C969 -10 1080 121 1114 311 L1184 700 L1162 700 L1094 320 C1060 132 953 10 667 10 L452 10 C161 10 92 138 124 323 L124 323 Z M694 815 C603 815 580 868 585 926 L572 926 C566 861 590 794 691 794 C791 794 838 861 855 926 L840 926 C825 868 785 815 694 815 L694 815 Z " />
<glyph glyph-name="ubreve" unicode="&#x16d;" horiz-adv-x="1053" d="M102 257 L157 560 L135 560 L81 258 C53 104 104 -8 362 -8 L572 -8 C828 -8 912 87 940 244 L996 560 L975 560 L920 258 C893 109 824 12 576 12 L361 12 C120 12 77 114 102 257 L102 257 Z M585 675 C494 675 471 728 476 786 L463 786 C457 721 481 654 582 654 C682 654 729 721 746 786 L731 786 C716 728 676 675 585 675 L585 675 Z " />
<glyph glyph-name="Uring" unicode="&#x16e;" horiz-adv-x="1224" d="M124 323 L193 700 L171 700 L102 323 C67 130 143 -10 447 -10 L665 -10 C969 -10 1080 121 1114 311 L1184 700 L1162 700 L1094 320 C1060 132 953 10 667 10 L452 10 C161 10 92 138 124 323 L124 323 Z M616 854 C616 904 661 946 711 946 C756 946 787 912 787 868 C787 817 743 775 693 775 C648 775 616 809 616 854 L616 854 Z M597 850 C597 797 636 756 690 756 C751 756 806 808 806 871 C806 924 767 965 712 965 C651 965 597 915 597 850 L597 850 Z " />
<glyph glyph-name="uring" unicode="&#x16f;" horiz-adv-x="1053" d="M102 257 L157 560 L135 560 L81 258 C53 104 104 -8 362 -8 L572 -8 C828 -8 912 87 940 244 L996 560 L975 560 L920 258 C893 109 824 12 576 12 L361 12 C120 12 77 114 102 257 L102 257 Z M507 714 C507 764 552 806 602 806 C647 806 678 772 678 728 C678 677 634 635 584 635 C539 635 507 669 507 714 L507 714 Z M488 710 C488 657 527 616 581 616 C642 616 697 668 697 731 C697 784 658 825 603 825 C542 825 488 775 488 710 L488 710 Z " />
<glyph glyph-name="Uhungarumlaut" unicode="&#x170;" horiz-adv-x="1224" d="M124 323 L193 700 L171 700 L102 323 C67 130 143 -10 447 -10 L665 -10 C969 -10 1080 121 1114 311 L1184 700 L1162 700 L1094 320 C1060 132 953 10 667 10 L452 10 C161 10 92 138 124 323 L124 323 Z M732 775 L748 775 L912 946 L875 946 L732 775 Z M555 775 L571 775 L734 946 L698 946 L555 775 Z " />
<glyph glyph-name="uhungarumlaut" unicode="&#x171;" horiz-adv-x="1053" d="M102 257 L157 560 L135 560 L81 258 C53 104 104 -8 362 -8 L572 -8 C828 -8 912 87 940 244 L996 560 L975 560 L920 258 C893 109 824 12 576 12 L361 12 C120 12 77 114 102 257 L102 257 Z M623 635 L639 635 L803 806 L766 806 L623 635 Z M446 635 L462 635 L625 806 L589 806 L446 635 Z " />
<glyph glyph-name="Uogonek" unicode="&#x172;" horiz-adv-x="1224" d="M574 -164 C574 -206 605 -229 657 -229 C688 -229 715 -222 752 -205 L754 -192 C715 -208 690 -212 663 -212 C623 -212 597 -192 597 -157 C597 -86 680 -33 768 -4 C995 23 1084 144 1114 311 L1184 700 L1162 700 L1094 320 C1060 132 953 10 667 10 L452 10 C161 10 91 138 124 323 L193 700 L171 700 L102 323 C67 130 143 -10 447 -10 L665 -10 C688 -10 710 -9 731 -8 C656 -35 574 -93 574 -164 L574 -164 Z " />
<glyph glyph-name="uogonek" unicode="&#x173;" horiz-adv-x="1053" d="M462 -164 C462 -206 493 -229 545 -229 C576 -229 603 -222 640 -205 L642 -192 C603 -208 578 -212 551 -212 C511 -212 485 -192 485 -157 C485 -86 569 -32 658 -3 C847 16 915 106 940 244 L996 560 L975 560 L920 258 C893 109 824 12 576 12 L361 12 C120 12 76 114 102 257 L157 560 L135 560 L81 258 C53 104 104 -8 362 -8 L572 -8 C589 -8 606 -8 622 -7 C546 -33 462 -92 462 -164 L462 -164 Z " />
<glyph glyph-name="Wcircumflex" unicode="&#x174;" horiz-adv-x="1553" d="M836 674 L1075 0 L1093 0 L1590 700 L1563 700 L1087 27 L850 700 L832 700 L352 27 L119 700 L94 700 L340 0 L358 0 L836 674 Z M709 775 L725 775 L881 927 L982 775 L995 775 L901 946 L867 946 L709 775 Z " />
<glyph glyph-name="wcircumflex" unicode="&#x175;" horiz-adv-x="1330" d="M701 534 L907 0 L925 0 L1340 560 L1314 560 L920 27 L713 560 L696 560 L298 27 L94 560 L68 560 L286 0 L303 0 L701 534 Z M573 635 L589 635 L745 787 L846 635 L859 635 L765 806 L731 806 L573 635 Z " />
<glyph glyph-name="Ycircumflex" unicode="&#x176;" horiz-adv-x="1190" d="M524 0 L546 0 L583 211 L1248 700 L1212 700 L573 227 L105 700 L73 700 L561 211 L524 0 Z M527 775 L543 775 L699 927 L800 775 L813 775 L719 946 L685 946 L527 775 Z " />
<glyph glyph-name="ycircumflex" unicode="&#x177;" horiz-adv-x="1015" d="M437 0 L459 0 L488 169 L1046 560 L1012 560 L479 186 L78 560 L47 560 L466 169 L437 0 Z M416 635 L432 635 L588 787 L689 635 L702 635 L608 806 L574 806 L416 635 Z " />
<glyph glyph-name="Ydieresis" unicode="&#x178;" horiz-adv-x="1190" d="M524 0 L546 0 L583 211 L1248 700 L1212 700 L573 227 L105 700 L73 700 L561 211 L524 0 Z M777 840 L817 840 L824 881 L784 881 L777 840 Z M547 840 L587 840 L594 881 L554 881 L547 840 Z " />
<glyph glyph-name="Zacute" unicode="&#x179;" horiz-adv-x="1141" d="M19 0 L1014 0 L1017 20 L59 20 L1117 682 L1118 700 L152 700 L147 680 L1078 680 L20 18 L19 0 Z M601 775 L617 775 L780 946 L743 946 L601 775 Z " />
<glyph glyph-name="zacute" unicode="&#x17a;" horiz-adv-x="979" d="M12 0 L859 0 L862 20 L54 20 L939 543 L940 560 L118 560 L115 540 L897 540 L12 17 L12 0 Z M496 635 L512 635 L675 806 L638 806 L496 635 Z " />
<glyph glyph-name="Zdotaccent" unicode="&#x17b;" horiz-adv-x="1141" d="M19 0 L1014 0 L1017 20 L59 20 L1117 682 L1118 700 L152 700 L147 680 L1078 680 L20 18 L19 0 Z M638 840 L678 840 L684 881 L644 881 L638 840 Z " />
<glyph glyph-name="zdotaccent" unicode="&#x17c;" horiz-adv-x="979" d="M12 0 L859 0 L862 20 L54 20 L939 543 L940 560 L118 560 L115 540 L897 540 L12 17 L12 0 Z M533 700 L573 700 L579 741 L539 741 L533 700 Z " />
<glyph glyph-name="Zcaron" unicode="&#x17d;" horiz-adv-x="1141" d="M19 0 L1014 0 L1017 20 L59 20 L1117 682 L1118 700 L152 700 L147 680 L1078 680 L20 18 L19 0 Z M822 946 L806 946 L650 794 L549 946 L536 946 L630 775 L664 775 L822 946 Z " />
<glyph glyph-name="zcaron" unicode="&#x17e;" horiz-adv-x="979" d="M12 0 L859 0 L862 20 L54 20 L939 543 L940 560 L118 560 L115 540 L897 540 L12 17 L12 0 Z M717 806 L701 806 L545 654 L444 806 L431 806 L525 635 L559 635 L717 806 Z " />
<glyph glyph-name="uni0186" unicode="&#x186;" horiz-adv-x="1137" d="M1043 402 C1043 203 910 20 578 20 L27 20 L23 0 L579 0 C925 0 1066 193 1066 404 C1066 570 964 700 696 700 L148 700 L145 680 L693 680 C949 680 1043 558 1043 402 L1043 402 Z " />
<glyph glyph-name="uni0189" unicode="&#x189;" horiz-adv-x="1205" d="M-1 340 L125 340 L65 0 L647 0 C994 0 1134 193 1134 404 C1134 569 1032 700 764 700 L190 700 L129 360 L4 360 L-1 340 Z M761 680 C1016 680 1111 557 1111 402 C1111 203 978 20 646 20 L90 20 L147 340 L605 340 L610 360 L150 360 L207 680 L761 680 Z " />
<glyph glyph-name="uni018E" unicode="&#x18e;" horiz-adv-x="1151" d="M1092 700 L150 700 L145 680 L1065 680 L1008 360 L186 360 L182 340 L1004 340 L947 20 L27 20 L24 0 L966 0 L1092 700 Z " />
<glyph glyph-name="florin" unicode="&#x192;" horiz-adv-x="1246" d="M471 89 C435 -41 346 -140 146 -140 L94 -140 L90 -160 L144 -160 C357 -160 452 -59 493 88 L563 340 L884 340 L889 360 L568 360 L594 451 C628 574 728 680 929 680 L1137 680 L1141 700 L930 700 C715 700 610 589 572 452 L546 360 L296 360 L291 340 L541 340 L471 89 Z " />
<glyph glyph-name="Ohorn" unicode="&#x1a0;" horiz-adv-x="1294" d="M726 -10 C1088 -10 1223 194 1223 414 C1223 533 1168 632 1039 680 L1209 680 C1297 680 1356 699 1371 783 C1373 796 1375 810 1374 826 L1353 826 C1354 810 1352 796 1350 784 C1338 715 1291 700 1211 700 L964 700 C929 706 890 710 846 710 L573 710 C216 710 74 511 74 293 C74 122 180 -10 453 -10 L726 -10 Z M457 10 C193 10 97 134 97 296 C97 501 234 690 576 690 L842 690 C1104 690 1200 568 1200 408 C1200 204 1071 10 724 10 L457 10 Z " />
<glyph glyph-name="ohorn" unicode="&#x1a1;" horiz-adv-x="1111" d="M612 -8 C917 -8 1033 152 1033 326 C1033 419 993 499 891 540 L1002 540 C1090 540 1149 559 1164 643 C1166 656 1168 670 1167 686 L1146 686 C1147 670 1145 656 1143 644 C1131 575 1084 560 1004 560 L817 560 C787 565 753 568 716 568 L477 568 C172 568 58 408 58 234 C58 99 138 -8 373 -8 L612 -8 Z M377 12 C158 12 80 109 80 231 C80 396 188 548 481 548 L713 548 C933 548 1010 450 1010 327 C1010 165 904 12 609 12 L377 12 Z " />
<glyph glyph-name="uni01A7" unicode="&#x1a7;" horiz-adv-x="1159" d="M988 20 L241 20 C114 20 69 77 69 152 C69 253 136 340 300 340 L865 340 C1046 340 1119 440 1119 550 C1119 634 1069 700 929 700 L180 700 L177 680 L924 680 C1051 680 1096 623 1096 548 C1096 447 1029 360 865 360 L300 360 C119 360 46 260 46 150 C46 66 96 0 236 0 L984 0 L988 20 Z " />
<glyph glyph-name="uni01A8" unicode="&#x1a8;" horiz-adv-x="993" d="M835 20 L193 20 C90 20 55 65 55 122 C55 197 105 270 244 270 L732 270 C890 270 942 352 942 440 C942 507 899 560 784 560 L143 560 L138 540 L780 540 C884 540 919 495 919 438 C919 363 868 290 730 290 L242 290 C83 290 32 208 32 120 C32 53 74 0 190 0 L831 0 L835 20 Z " />
<glyph glyph-name="Uhorn" unicode="&#x1af;" horiz-adv-x="1366" d="M124 323 L193 700 L171 700 L102 323 C67 130 143 -10 447 -10 L665 -10 C969 -10 1080 121 1114 311 L1180 680 L1276 680 C1364 680 1423 699 1438 783 C1440 796 1442 810 1441 826 L1420 826 C1421 810 1419 796 1417 784 C1405 715 1358 700 1278 700 L1162 700 L1094 320 C1060 132 953 10 667 10 L452 10 C161 10 92 138 124 323 L124 323 Z " />
<glyph glyph-name="uhorn" unicode="&#x1b0;" horiz-adv-x="1205" d="M102 257 L157 560 L135 560 L81 258 C53 104 104 -8 362 -8 L572 -8 C828 -8 912 87 940 244 L992 540 L1091 540 C1179 540 1238 559 1253 643 C1255 656 1257 670 1256 686 L1235 686 C1236 670 1234 656 1232 644 C1220 575 1173 560 1093 560 L975 560 L920 258 C893 109 824 12 576 12 L361 12 C120 12 77 114 102 257 L102 257 Z " />
<glyph glyph-name="uni01B1" unicode="&#x1b1;" horiz-adv-x="1302" d="M889 681 C1099 636 1179 505 1179 366 C1179 187 1061 10 753 10 L433 10 C202 10 114 120 114 259 C114 438 247 618 540 681 L542 700 L139 700 L136 680 L466 680 C199 602 92 428 92 254 C92 107 187 -10 429 -10 L750 -10 C1071 -10 1201 168 1201 366 C1201 499 1130 622 958 680 L1290 680 L1293 700 L891 700 L889 681 Z " />
<glyph glyph-name="uni01C0" unicode="&#x1c0;" horiz-adv-x="271" d="M229 800 L208 800 L46 -100 L68 -100 L229 800 Z " />
<glyph glyph-name="uni01C1" unicode="&#x1c1;" horiz-adv-x="513" d="M229 800 L208 800 L46 -100 L68 -100 L229 800 Z M472 800 L450 800 L289 -100 L311 -100 L472 800 Z " />
<glyph glyph-name="uni01C2" unicode="&#x1c2;" horiz-adv-x="718" d="M341 178 L642 178 L644 198 L344 198 L399 502 L699 502 L704 522 L404 522 L453 800 L431 800 L382 522 L82 522 L77 502 L377 502 L322 198 L22 198 L19 178 L320 178 L270 -100 L291 -100 L341 178 Z " />
<glyph glyph-name="uni01C3" unicode="&#x1c3;" horiz-adv-x="278" d="M59 0 L99 0 L106 41 L66 41 L59 0 Z M86 112 L103 112 L217 700 L192 700 L86 112 Z " />
<glyph glyph-name="uni01C4" unicode="&#x1c4;" horiz-adv-x="2346" d="M65 0 L647 0 C994 0 1134 193 1134 404 C1134 569 1032 700 764 700 L190 700 L65 0 Z M761 680 C1016 680 1111 557 1111 402 C1111 203 978 20 646 20 L90 20 L207 680 L761 680 Z M1224 0 L2219 0 L2222 20 L1264 20 L2322 682 L2323 700 L1357 700 L1352 680 L2283 680 L1225 18 L1224 0 Z M2027 946 L2011 946 L1855 794 L1754 946 L1741 946 L1835 775 L1869 775 L2027 946 Z " />
<glyph glyph-name="uni01C5" unicode="&#x1c5;" horiz-adv-x="2184" d="M65 0 L647 0 C994 0 1134 193 1134 404 C1134 569 1032 700 764 700 L190 700 L65 0 Z M761 680 C1016 680 1111 557 1111 402 C1111 203 978 20 646 20 L90 20 L207 680 L761 680 Z M1217 0 L2064 0 L2067 20 L1259 20 L2144 543 L2145 560 L1323 560 L1320 540 L2102 540 L1217 17 L1217 0 Z M1921 806 L1905 806 L1749 654 L1648 806 L1635 806 L1729 635 L1763 635 L1921 806 Z " />
<glyph glyph-name="uni01C6" unicode="&#x1c6;" horiz-adv-x="2018" d="M55 0 L554 0 C855 0 962 160 962 328 C962 458 880 560 655 560 L155 560 L55 0 Z M653 540 C865 540 939 446 939 325 C939 171 840 20 555 20 L81 20 L172 540 L653 540 Z M1051 0 L1898 0 L1901 20 L1093 20 L1978 543 L1979 560 L1157 560 L1154 540 L1936 540 L1051 17 L1051 0 Z M1755 806 L1739 806 L1583 654 L1482 806 L1469 806 L1563 635 L1597 635 L1755 806 Z " />
<glyph glyph-name="uni01C7" unicode="&#x1c7;" horiz-adv-x="2246" d="M1399 -5 L1688 -5 C1992 -5 2102 117 2136 308 L2206 700 L2184 700 L2116 319 C2082 131 1976 15 1690 15 L1406 15 C1173 15 1111 130 1141 272 L1149 310 L1128 310 L1121 275 C1090 122 1156 -5 1399 -5 L1399 -5 Z M212 700 L190 700 L65 0 L988 0 L990 20 L90 20 L212 700 Z " />
<glyph glyph-name="uni01C8" unicode="&#x1c8;" horiz-adv-x="2086" d="M212 700 L190 700 L65 0 L988 0 L990 20 L90 20 L212 700 Z M1345 -4 L1607 -4 C1863 -4 1947 91 1975 248 L2030 560 L2008 560 L1955 262 C1928 112 1859 16 1611 16 L1348 16 C1156 16 1109 102 1131 217 L1137 249 L1116 249 L1110 220 C1085 99 1137 -4 1345 -4 L1345 -4 Z " />
<glyph glyph-name="uni01C9" unicode="&#x1c9;" horiz-adv-x="1951" d="M1209 -4 L1471 -4 C1727 -4 1811 91 1839 248 L1894 560 L1872 560 L1819 262 C1792 112 1723 16 1475 16 L1212 16 C1020 16 973 102 995 217 L1001 249 L980 249 L974 220 C949 99 1001 -4 1209 -4 L1209 -4 Z M176 560 L154 560 L55 0 L840 0 L843 20 L80 20 L176 560 Z " />
<glyph glyph-name="uni01CA" unicode="&#x1ca;" horiz-adv-x="2412" d="M1565 -5 L1854 -5 C2158 -5 2268 117 2302 308 L2372 700 L2350 700 L2282 319 C2248 131 2142 15 1856 15 L1572 15 C1339 15 1277 130 1307 272 L1315 310 L1294 310 L1287 275 C1256 122 1322 -5 1565 -5 L1565 -5 Z M1044 0 L1065 0 L1190 700 L1168 700 L1047 23 L211 700 L190 700 L65 0 L87 0 L206 677 L1044 0 Z " />
<glyph glyph-name="uni01CB" unicode="&#x1cb;" horiz-adv-x="2252" d="M1044 0 L1065 0 L1190 700 L1168 700 L1047 23 L211 700 L190 700 L65 0 L87 0 L206 677 L1044 0 Z M1511 -4 L1773 -4 C2029 -4 2113 91 2141 248 L2196 560 L2174 560 L2121 262 C2094 112 2025 16 1777 16 L1514 16 C1322 16 1275 102 1297 217 L1303 249 L1282 249 L1276 220 C1251 99 1303 -4 1511 -4 L1511 -4 Z " />
<glyph glyph-name="uni01CC" unicode="&#x1cc;" horiz-adv-x="2083" d="M1342 -4 L1604 -4 C1860 -4 1944 91 1972 248 L2027 560 L2005 560 L1952 262 C1925 112 1856 16 1608 16 L1345 16 C1153 16 1106 102 1128 217 L1134 249 L1113 249 L1107 220 C1082 99 1134 -4 1342 -4 L1342 -4 Z M906 0 L1005 560 L983 560 L887 24 L175 560 L154 560 L55 0 L77 0 L173 537 L885 0 L906 0 Z " />
<glyph glyph-name="uni01CD" unicode="&#x1cd;" horiz-adv-x="1206" d="M1103 0 L1129 0 L681 700 L655 700 L-43 0 L-13 0 L143 157 L1003 157 L1103 0 Z M666 684 L990 177 L163 177 L666 684 Z M854 946 L838 946 L682 794 L581 946 L568 946 L662 775 L696 775 L854 946 Z " />
<glyph glyph-name="uni01CE" unicode="&#x1ce;" horiz-adv-x="1033" d="M929 0 L955 0 L569 560 L543 560 L-42 0 L-12 0 L122 129 L840 129 L929 0 Z M555 543 L826 149 L143 149 L555 543 Z M743 806 L727 806 L571 654 L470 806 L457 806 L551 635 L585 635 L743 806 Z " />
<glyph glyph-name="uni01CF" unicode="&#x1cf;" horiz-adv-x="272" d="M65 0 L87 0 L212 700 L190 700 L65 0 Z M388 946 L372 946 L216 794 L115 946 L102 946 L196 775 L230 775 L388 946 Z " />
<glyph glyph-name="uni01D0" unicode="&#x1d0;" horiz-adv-x="252" d="M354 806 L338 806 L182 654 L81 806 L68 806 L162 635 L196 635 L354 806 Z M55 0 L77 0 L176 560 L154 560 L55 0 Z " />
<glyph glyph-name="uni01D1" unicode="&#x1d1;" horiz-adv-x="1294" d="M726 -10 C1088 -10 1223 194 1223 414 C1223 581 1116 710 846 710 L573 710 C216 710 74 511 74 293 C74 122 180 -10 453 -10 L726 -10 Z M457 10 C193 10 97 134 97 296 C97 501 234 690 576 690 L842 690 C1104 690 1200 568 1200 408 C1200 204 1071 10 724 10 L457 10 Z M898 946 L882 946 L726 794 L625 946 L612 946 L706 775 L740 775 L898 946 Z " />
<glyph glyph-name="uni01D2" unicode="&#x1d2;" horiz-adv-x="1111" d="M612 -8 C917 -8 1033 152 1033 326 C1033 461 951 568 716 568 L477 568 C172 568 58 408 58 234 C58 99 138 -8 373 -8 L612 -8 Z M377 12 C158 12 80 109 80 231 C80 396 188 548 481 548 L713 548 C933 548 1010 450 1010 327 C1010 165 904 12 609 12 L377 12 Z M783 806 L767 806 L611 654 L510 806 L497 806 L591 635 L625 635 L783 806 Z " />
<glyph glyph-name="uni01D3" unicode="&#x1d3;" horiz-adv-x="1224" d="M124 323 L193 700 L171 700 L102 323 C67 130 143 -10 447 -10 L665 -10 C969 -10 1080 121 1114 311 L1184 700 L1162 700 L1094 320 C1060 132 953 10 667 10 L452 10 C161 10 92 138 124 323 L124 323 Z M863 946 L847 946 L691 794 L590 946 L577 946 L671 775 L705 775 L863 946 Z " />
<glyph glyph-name="uni01D4" unicode="&#x1d4;" horiz-adv-x="1053" d="M102 257 L157 560 L135 560 L81 258 C53 104 104 -8 362 -8 L572 -8 C828 -8 912 87 940 244 L996 560 L975 560 L920 258 C893 109 824 12 576 12 L361 12 C120 12 77 114 102 257 L102 257 Z M754 806 L738 806 L582 654 L481 806 L468 806 L562 635 L596 635 L754 806 Z " />
<glyph glyph-name="uni01D5" unicode="&#x1d5;" horiz-adv-x="1224" d="M124 323 L193 700 L171 700 L102 323 C67 130 143 -10 447 -10 L665 -10 C969 -10 1080 121 1114 311 L1184 700 L1162 700 L1094 320 C1060 132 953 10 667 10 L452 10 C161 10 92 138 124 323 L124 323 Z M546 996 L908 996 L911 1014 L549 1014 L546 996 Z M794 840 L834 840 L841 881 L801 881 L794 840 Z M564 840 L604 840 L611 881 L571 881 L564 840 Z " />
<glyph glyph-name="uni01D6" unicode="&#x1d6;" horiz-adv-x="1053" d="M102 257 L157 560 L135 560 L81 258 C53 104 104 -8 362 -8 L572 -8 C828 -8 912 87 940 244 L996 560 L975 560 L920 258 C893 109 824 12 576 12 L361 12 C120 12 77 114 102 257 L102 257 Z M436 856 L798 856 L801 874 L439 874 L436 856 Z M685 700 L725 700 L732 741 L692 741 L685 700 Z M455 700 L495 700 L502 741 L462 741 L455 700 Z " />
<glyph glyph-name="uni01D7" unicode="&#x1d7;" horiz-adv-x="1224" d="M124 323 L193 700 L171 700 L102 323 C67 130 143 -10 447 -10 L665 -10 C969 -10 1080 121 1114 311 L1184 700 L1162 700 L1094 320 C1060 132 953 10 667 10 L452 10 C161 10 92 138 124 323 L124 323 Z M671 940 L687 940 L850 1111 L813 1111 L671 940 Z M794 840 L834 840 L841 881 L801 881 L794 840 Z M564 840 L604 840 L611 881 L571 881 L564 840 Z " />
<glyph glyph-name="uni01D8" unicode="&#x1d8;" horiz-adv-x="1053" d="M102 257 L157 560 L135 560 L81 258 C53 104 104 -8 362 -8 L572 -8 C828 -8 912 87 940 244 L996 560 L975 560 L920 258 C893 109 824 12 576 12 L361 12 C120 12 77 114 102 257 L102 257 Z M562 800 L578 800 L741 971 L704 971 L562 800 Z M685 700 L725 700 L732 741 L692 741 L685 700 Z M455 700 L495 700 L502 741 L462 741 L455 700 Z " />
<glyph glyph-name="uni01D9" unicode="&#x1d9;" horiz-adv-x="1224" d="M124 323 L193 700 L171 700 L102 323 C67 130 143 -10 447 -10 L665 -10 C969 -10 1080 121 1114 311 L1184 700 L1162 700 L1094 320 C1060 132 953 10 667 10 L452 10 C161 10 92 138 124 323 L124 323 Z M892 1111 L876 1111 L720 959 L619 1111 L606 1111 L700 940 L734 940 L892 1111 Z M794 840 L834 840 L841 881 L801 881 L794 840 Z M564 840 L604 840 L611 881 L571 881 L564 840 Z " />
<glyph glyph-name="uni01DA" unicode="&#x1da;" horiz-adv-x="1053" d="M102 257 L157 560 L135 560 L81 258 C53 104 104 -8 362 -8 L572 -8 C828 -8 912 87 940 244 L996 560 L975 560 L920 258 C893 109 824 12 576 12 L361 12 C120 12 77 114 102 257 L102 257 Z M783 971 L767 971 L611 819 L510 971 L497 971 L591 800 L625 800 L783 971 Z M685 700 L725 700 L732 741 L692 741 L685 700 Z M455 700 L495 700 L502 741 L462 741 L455 700 Z " />
<glyph glyph-name="uni01DB" unicode="&#x1db;" horiz-adv-x="1224" d="M124 323 L193 700 L171 700 L102 323 C67 130 143 -10 447 -10 L665 -10 C969 -10 1080 121 1114 311 L1184 700 L1162 700 L1094 320 C1060 132 953 10 667 10 L452 10 C161 10 92 138 124 323 L124 323 Z M682 1111 L648 1111 L749 940 L762 940 L682 1111 Z M794 840 L834 840 L841 881 L801 881 L794 840 Z M564 840 L604 840 L611 881 L571 881 L564 840 Z " />
<glyph glyph-name="uni01DC" unicode="&#x1dc;" horiz-adv-x="1053" d="M102 257 L157 560 L135 560 L81 258 C53 104 104 -8 362 -8 L572 -8 C828 -8 912 87 940 244 L996 560 L975 560 L920 258 C893 109 824 12 576 12 L361 12 C120 12 77 114 102 257 L102 257 Z M573 971 L539 971 L640 800 L653 800 L573 971 Z M685 700 L725 700 L732 741 L692 741 L685 700 Z M455 700 L495 700 L502 741 L462 741 L455 700 Z " />
<glyph glyph-name="uni01DD" unicode="&#x1dd;" horiz-adv-x="994" d="M918 560 L117 560 L114 540 L893 540 L849 290 L153 290 L148 270 L844 270 L800 20 L21 20 L18 0 L819 0 L918 560 Z " />
<glyph glyph-name="uni01DE" unicode="&#x1de;" horiz-adv-x="1206" d="M1103 0 L1129 0 L681 700 L655 700 L-43 0 L-13 0 L143 157 L1003 157 L1103 0 Z M666 684 L990 177 L163 177 L666 684 Z M537 996 L899 996 L902 1014 L540 1014 L537 996 Z M785 840 L825 840 L832 881 L792 881 L785 840 Z M555 840 L595 840 L602 881 L562 881 L555 840 Z " />
<glyph glyph-name="uni01DF" unicode="&#x1df;" horiz-adv-x="1033" d="M929 0 L955 0 L569 560 L543 560 L-42 0 L-12 0 L122 129 L840 129 L929 0 Z M555 543 L826 149 L143 149 L555 543 Z M425 856 L787 856 L790 874 L428 874 L425 856 Z M674 700 L714 700 L721 741 L681 741 L674 700 Z M444 700 L484 700 L491 741 L451 741 L444 700 Z " />
<glyph glyph-name="uni01E0" unicode="&#x1e0;" horiz-adv-x="1206" d="M1103 0 L1129 0 L681 700 L655 700 L-43 0 L-13 0 L143 157 L1003 157 L1103 0 Z M666 684 L990 177 L163 177 L666 684 Z M537 996 L899 996 L902 1014 L540 1014 L537 996 Z M670 840 L710 840 L716 881 L676 881 L670 840 Z " />
<glyph glyph-name="uni01E1" unicode="&#x1e1;" horiz-adv-x="1033" d="M929 0 L955 0 L569 560 L543 560 L-42 0 L-12 0 L122 129 L840 129 L929 0 Z M555 543 L826 149 L143 149 L555 543 Z M425 856 L787 856 L790 874 L428 874 L425 856 Z M559 700 L599 700 L605 741 L565 741 L559 700 Z " />
<glyph glyph-name="uni01E2" unicode="&#x1e2;" horiz-adv-x="1624" d="M666 157 L639 0 L1480 0 L1483 20 L664 20 L720 340 L1441 340 L1446 360 L725 360 L781 680 L1600 680 L1605 700 L751 700 L-43 0 L-14 0 L163 157 L666 157 Z M762 686 L759 682 L671 177 L186 177 L762 686 Z M832 851 L1194 851 L1197 869 L835 869 L832 851 Z " />
<glyph glyph-name="uni01E3" unicode="&#x1e3;" horiz-adv-x="1391" d="M559 124 L538 0 L1254 0 L1256 20 L563 20 L607 270 L1217 270 L1222 290 L612 290 L656 540 L1350 540 L1353 560 L624 560 L-42 0 L-13 0 L135 124 L559 124 Z M633 540 L635 543 L563 144 L159 144 L633 540 Z M704 711 L1066 711 L1069 729 L707 729 L704 711 Z " />
<glyph glyph-name="Gcaron" unicode="&#x1e6;" horiz-adv-x="1206" d="M644 340 L1082 340 L1026 20 L447 20 C191 20 97 142 97 298 C97 497 230 680 562 680 L1113 680 L1117 700 L561 700 C215 700 74 507 74 296 C74 130 176 0 444 0 L1045 0 L1109 360 L649 360 L644 340 Z M877 946 L861 946 L705 794 L604 946 L591 946 L685 775 L719 775 L877 946 Z " />
<glyph glyph-name="gcaron" unicode="&#x1e7;" horiz-adv-x="1039" d="M365 0 L885 0 L937 290 L545 290 L540 270 L910 270 L866 20 L367 20 C155 20 81 114 81 235 C81 389 180 540 465 540 L936 540 L939 560 L466 560 C165 560 58 400 58 232 C58 102 140 0 365 0 L365 0 Z M758 806 L742 806 L586 654 L485 806 L472 806 L566 635 L600 635 L758 806 Z " />
<glyph glyph-name="uni01E8" unicode="&#x1e8;" horiz-adv-x="1229" d="M1194 700 L1147 700 L118 173 L212 700 L190 700 L65 0 L87 0 L112 147 L524 358 L1114 0 L1157 0 L547 369 L1194 700 Z M827 946 L811 946 L655 794 L554 946 L541 946 L635 775 L669 775 L827 946 Z " />
<glyph glyph-name="uni01E9" unicode="&#x1e9;" horiz-adv-x="1062" d="M1014 560 L966 560 L102 143 L176 560 L154 560 L55 0 L77 0 L97 117 L446 285 L942 0 L985 0 L467 295 L1014 560 Z M724 806 L708 806 L552 654 L451 806 L438 806 L532 635 L566 635 L724 806 Z " />
<glyph glyph-name="uni01EA" unicode="&#x1ea;" horiz-adv-x="1294" d="M636 -164 C636 -206 667 -229 719 -229 C750 -229 777 -222 814 -205 L816 -192 C777 -208 752 -212 725 -212 C685 -212 659 -192 659 -157 C659 -86 744 -32 833 -3 C1115 33 1223 217 1223 414 C1223 581 1116 710 846 710 L573 710 C216 710 74 511 74 293 C74 122 180 -10 453 -10 L726 -10 C750 -10 773 -8 795 -7 C719 -33 636 -92 636 -164 L636 -164 Z M457 10 C193 10 97 134 97 296 C97 501 234 690 576 690 L842 690 C1104 690 1200 568 1200 408 C1200 204 1071 10 724 10 L457 10 Z " />
<glyph glyph-name="uni01EB" unicode="&#x1eb;" horiz-adv-x="1111" d="M512 -164 C512 -206 543 -229 595 -229 C626 -229 653 -222 690 -205 L692 -192 C653 -208 628 -212 601 -212 C561 -212 535 -192 535 -157 C535 -84 624 -29 715 -1 C943 31 1033 173 1033 326 C1033 461 951 568 716 568 L477 568 C172 568 58 408 58 234 C58 99 138 -8 373 -8 L612 -8 C634 -8 655 -7 675 -5 C598 -31 512 -91 512 -164 L512 -164 Z M377 12 C158 12 80 109 80 231 C80 396 188 548 481 548 L713 548 C933 548 1010 450 1010 327 C1010 165 904 12 609 12 L377 12 Z " />
<glyph glyph-name="uni01EC" unicode="&#x1ec;" horiz-adv-x="1294" d="M636 -164 C636 -206 667 -229 719 -229 C750 -229 777 -222 814 -205 L816 -192 C777 -208 752 -212 725 -212 C685 -212 659 -192 659 -157 C659 -86 744 -32 833 -3 C1115 33 1223 217 1223 414 C1223 581 1116 710 846 710 L573 710 C216 710 74 511 74 293 C74 122 180 -10 453 -10 L726 -10 C750 -10 773 -8 795 -7 C719 -33 636 -92 636 -164 L636 -164 Z M457 10 C193 10 97 134 97 296 C97 501 234 690 576 690 L842 690 C1104 690 1200 568 1200 408 C1200 204 1071 10 724 10 L457 10 Z M555 851 L917 851 L920 869 L558 869 L555 851 Z " />
<glyph glyph-name="uni01ED" unicode="&#x1ed;" horiz-adv-x="1111" d="M512 -164 C512 -206 543 -229 595 -229 C626 -229 653 -222 690 -205 L692 -192 C653 -208 628 -212 601 -212 C561 -212 535 -192 535 -157 C535 -84 624 -29 715 -1 C943 31 1033 173 1033 326 C1033 461 951 568 716 568 L477 568 C172 568 58 408 58 234 C58 99 138 -8 373 -8 L612 -8 C634 -8 655 -7 675 -5 C598 -31 512 -91 512 -164 L512 -164 Z M377 12 C158 12 80 109 80 231 C80 396 188 548 481 548 L713 548 C933 548 1010 450 1010 327 C1010 165 904 12 609 12 L377 12 Z M440 711 L802 711 L805 729 L443 729 L440 711 Z " />
<glyph glyph-name="uni01F0" unicode="&#x1f0;" horiz-adv-x="1002" d="M261 -4 L523 -4 C779 -4 863 91 891 248 L946 560 L924 560 L871 262 C844 112 775 16 527 16 L264 16 C72 16 25 102 47 217 L53 249 L32 249 L26 220 C1 99 53 -4 261 -4 L261 -4 Z M1095 806 L1079 806 L923 654 L822 806 L809 806 L903 635 L937 635 L1095 806 Z " />
<glyph glyph-name="uni01F1" unicode="&#x1f1;" horiz-adv-x="2346" d="M65 0 L647 0 C994 0 1134 193 1134 404 C1134 569 1032 700 764 700 L190 700 L65 0 Z M761 680 C1016 680 1111 557 1111 402 C1111 203 978 20 646 20 L90 20 L207 680 L761 680 Z M1224 0 L2219 0 L2222 20 L1264 20 L2322 682 L2323 700 L1357 700 L1352 680 L2283 680 L1225 18 L1224 0 Z " />
<glyph glyph-name="uni01F2" unicode="&#x1f2;" horiz-adv-x="2184" d="M65 0 L647 0 C994 0 1134 193 1134 404 C1134 569 1032 700 764 700 L190 700 L65 0 Z M761 680 C1016 680 1111 557 1111 402 C1111 203 978 20 646 20 L90 20 L207 680 L761 680 Z M1217 0 L2064 0 L2067 20 L1259 20 L2144 543 L2145 560 L1323 560 L1320 540 L2102 540 L1217 17 L1217 0 Z " />
<glyph glyph-name="uni01F3" unicode="&#x1f3;" horiz-adv-x="2018" d="M55 0 L554 0 C855 0 962 160 962 328 C962 458 880 560 655 560 L155 560 L55 0 Z M653 540 C865 540 939 446 939 325 C939 171 840 20 555 20 L81 20 L172 540 L653 540 Z M1051 0 L1898 0 L1901 20 L1093 20 L1978 543 L1979 560 L1157 560 L1154 540 L1936 540 L1051 17 L1051 0 Z " />
<glyph glyph-name="uni01F4" unicode="&#x1f4;" horiz-adv-x="1206" d="M644 340 L1082 340 L1026 20 L447 20 C191 20 97 142 97 298 C97 497 230 680 562 680 L1113 680 L1117 700 L561 700 C215 700 74 507 74 296 C74 130 176 0 444 0 L1045 0 L1109 360 L649 360 L644 340 Z M656 775 L672 775 L835 946 L798 946 L656 775 Z " />
<glyph glyph-name="uni01F5" unicode="&#x1f5;" horiz-adv-x="1039" d="M365 0 L885 0 L937 290 L545 290 L540 270 L910 270 L866 20 L367 20 C155 20 81 114 81 235 C81 389 180 540 465 540 L936 540 L939 560 L466 560 C165 560 58 400 58 232 C58 102 140 0 365 0 L365 0 Z M537 635 L553 635 L716 806 L679 806 L537 635 Z " />
<glyph glyph-name="uni01F8" unicode="&#x1f8;" horiz-adv-x="1250" d="M1044 0 L1065 0 L1190 700 L1168 700 L1047 23 L211 700 L190 700 L65 0 L87 0 L206 677 L1044 0 Z M666 946 L632 946 L733 775 L746 775 L666 946 Z " />
<glyph glyph-name="uni01F9" unicode="&#x1f9;" horiz-adv-x="1081" d="M906 0 L1005 560 L983 560 L887 24 L175 560 L154 560 L55 0 L77 0 L173 537 L885 0 L906 0 Z M557 806 L523 806 L624 635 L637 635 L557 806 Z " />
<glyph glyph-name="Aringacute" unicode="&#x1fa;" horiz-adv-x="1206" d="M1103 0 L1129 0 L681 700 L655 700 L-43 0 L-13 0 L143 157 L1003 157 L1103 0 Z M666 684 L990 177 L163 177 L666 684 Z M607 854 C607 904 652 946 702 946 C747 946 778 912 778 868 C778 817 734 775 684 775 C639 775 607 809 607 854 L607 854 Z M588 850 C588 797 627 756 681 756 C742 756 797 808 797 871 C797 924 758 965 703 965 C642 965 588 915 588 850 L588 850 Z M671 990 L687 990 L850 1161 L813 1161 L671 990 Z " />
<glyph glyph-name="aringacute" unicode="&#x1fb;" horiz-adv-x="1033" d="M929 0 L955 0 L569 560 L543 560 L-42 0 L-12 0 L122 129 L840 129 L929 0 Z M555 543 L826 149 L143 149 L555 543 Z M496 714 C496 764 541 806 591 806 C636 806 667 772 667 728 C667 677 623 635 573 635 C528 635 496 669 496 714 L496 714 Z M477 710 C477 657 516 616 570 616 C631 616 686 668 686 731 C686 784 647 825 592 825 C531 825 477 775 477 710 L477 710 Z M559 850 L575 850 L738 1021 L701 1021 L559 850 Z " />
<glyph glyph-name="AEacute" unicode="&#x1fc;" horiz-adv-x="1624" d="M666 157 L639 0 L1480 0 L1483 20 L664 20 L720 340 L1441 340 L1446 360 L725 360 L781 680 L1600 680 L1605 700 L751 700 L-43 0 L-14 0 L163 157 L666 157 Z M762 686 L759 682 L671 177 L186 177 L762 686 Z M954 775 L970 775 L1133 946 L1096 946 L954 775 Z " />
<glyph glyph-name="aeacute" unicode="&#x1fd;" horiz-adv-x="1391" d="M559 124 L538 0 L1254 0 L1256 20 L563 20 L607 270 L1217 270 L1222 290 L612 290 L656 540 L1350 540 L1353 560 L624 560 L-42 0 L-13 0 L135 124 L559 124 Z M633 540 L635 543 L563 144 L159 144 L633 540 Z M826 635 L842 635 L1005 806 L968 806 L826 635 Z " />
<glyph glyph-name="Oslashacute" unicode="&#x1fe;" horiz-adv-x="1294" d="M677 775 L693 775 L856 946 L819 946 L677 775 Z M726 -10 C1088 -10 1223 194 1223 414 C1223 543 1159 650 1004 691 L1113 800 L1084 800 L981 696 C941 705 896 710 846 710 L573 710 C216 710 74 511 74 293 C74 160 138 51 294 9 L185 -100 L214 -100 L317 3 C357 -5 402 -10 453 -10 L726 -10 Z M97 296 C97 501 234 690 576 690 L842 690 C887 690 927 686 963 679 L311 26 C156 64 97 168 97 296 L97 296 Z M457 10 C411 10 370 14 334 21 L987 674 C1140 636 1200 534 1200 408 C1200 204 1071 10 724 10 L457 10 Z " />
<glyph glyph-name="oslashacute" unicode="&#x1ff;" horiz-adv-x="1111" d="M528 635 L544 635 L707 806 L670 806 L528 635 Z M612 -8 C917 -8 1033 152 1033 326 C1033 432 982 521 845 554 L935 640 L907 640 L822 559 C790 564 755 568 716 568 L477 568 C172 568 58 408 58 234 C58 128 107 39 243 6 L153 -80 L181 -80 L266 1 C297 -5 333 -8 373 -8 L612 -8 Z M377 12 C343 12 312 14 285 19 L827 537 C960 508 1010 425 1010 327 C1010 165 904 12 609 12 L377 12 Z M80 231 C80 396 188 548 481 548 L713 548 C746 548 776 546 803 541 L261 23 C129 52 80 133 80 231 L80 231 Z " />
<glyph glyph-name="uni0200" unicode="&#x200;" horiz-adv-x="1206" d="M1103 0 L1129 0 L681 700 L655 700 L-43 0 L-13 0 L143 157 L1003 157 L1103 0 Z M666 684 L990 177 L163 177 L666 684 Z M708 946 L674 946 L775 775 L788 775 L708 946 Z M550 946 L516 946 L617 775 L630 775 L550 946 Z " />
<glyph glyph-name="uni0201" unicode="&#x201;" horiz-adv-x="1033" d="M929 0 L955 0 L569 560 L543 560 L-42 0 L-12 0 L122 129 L840 129 L929 0 Z M555 543 L826 149 L143 149 L555 543 Z M597 806 L563 806 L664 635 L677 635 L597 806 Z M439 806 L405 806 L506 635 L519 635 L439 806 Z " />
<glyph glyph-name="uni0202" unicode="&#x202;" horiz-adv-x="1206" d="M1103 0 L1129 0 L681 700 L655 700 L-43 0 L-13 0 L143 157 L1003 157 L1103 0 Z M666 684 L990 177 L163 177 L666 684 Z M708 905 C799 905 822 852 817 794 L830 794 C836 859 812 926 711 926 C611 926 564 859 547 794 L562 794 C577 852 617 905 708 905 L708 905 Z " />
<glyph glyph-name="uni0203" unicode="&#x203;" horiz-adv-x="1033" d="M929 0 L955 0 L569 560 L543 560 L-42 0 L-12 0 L122 129 L840 129 L929 0 Z M555 543 L826 149 L143 149 L555 543 Z M597 765 C688 765 711 712 706 654 L719 654 C725 719 701 786 600 786 C500 786 453 719 436 654 L451 654 C466 712 506 765 597 765 L597 765 Z " />
<glyph glyph-name="uni0204" unicode="&#x204;" horiz-adv-x="1151" d="M65 0 L1007 0 L1010 20 L90 20 L146 340 L968 340 L973 360 L151 360 L207 680 L1127 680 L1132 700 L190 700 L65 0 Z M691 946 L657 946 L758 775 L771 775 L691 946 Z M533 946 L499 946 L600 775 L613 775 L533 946 Z " />
<glyph glyph-name="uni0205" unicode="&#x205;" horiz-adv-x="994" d="M55 0 L856 0 L859 20 L80 20 L124 270 L820 270 L824 290 L129 290 L173 540 L952 540 L955 560 L154 560 L55 0 Z M590 806 L556 806 L657 635 L670 635 L590 806 Z M432 806 L398 806 L499 635 L512 635 L432 806 Z " />
<glyph glyph-name="uni0206" unicode="&#x206;" horiz-adv-x="1151" d="M65 0 L1007 0 L1010 20 L90 20 L146 340 L968 340 L973 360 L151 360 L207 680 L1127 680 L1132 700 L190 700 L65 0 Z M691 905 C782 905 805 852 800 794 L813 794 C819 859 795 926 694 926 C594 926 547 859 530 794 L545 794 C560 852 600 905 691 905 L691 905 Z " />
<glyph glyph-name="uni0207" unicode="&#x207;" horiz-adv-x="994" d="M55 0 L856 0 L859 20 L80 20 L124 270 L820 270 L824 290 L129 290 L173 540 L952 540 L955 560 L154 560 L55 0 Z M590 765 C681 765 704 712 699 654 L712 654 C718 719 694 786 593 786 C493 786 446 719 429 654 L444 654 C459 712 499 765 590 765 L590 765 Z " />
<glyph glyph-name="uni0208" unicode="&#x208;" horiz-adv-x="272" d="M65 0 L87 0 L212 700 L190 700 L65 0 Z M242 946 L208 946 L309 775 L322 775 L242 946 Z M84 946 L50 946 L151 775 L164 775 L84 946 Z " />
<glyph glyph-name="uni0209" unicode="&#x209;" horiz-adv-x="252" d="M55 0 L77 0 L176 560 L154 560 L55 0 Z M208 806 L174 806 L275 635 L288 635 L208 806 Z M50 806 L16 806 L117 635 L130 635 L50 806 Z " />
<glyph glyph-name="uni020A" unicode="&#x20a;" horiz-adv-x="272" d="M65 0 L87 0 L212 700 L190 700 L65 0 Z M242 905 C333 905 356 852 351 794 L364 794 C370 859 346 926 245 926 C145 926 98 859 81 794 L96 794 C111 852 151 905 242 905 L242 905 Z " />
<glyph glyph-name="uni020B" unicode="&#x20b;" horiz-adv-x="252" d="M55 0 L77 0 L176 560 L154 560 L55 0 Z M208 765 C299 765 322 712 317 654 L330 654 C336 719 312 786 211 786 C111 786 64 719 47 654 L62 654 C77 712 117 765 208 765 L208 765 Z " />
<glyph glyph-name="uni020C" unicode="&#x20c;" horiz-adv-x="1294" d="M726 -10 C1088 -10 1223 194 1223 414 C1223 581 1116 710 846 710 L573 710 C216 710 74 511 74 293 C74 122 180 -10 453 -10 L726 -10 Z M457 10 C193 10 97 134 97 296 C97 501 234 690 576 690 L842 690 C1104 690 1200 568 1200 408 C1200 204 1071 10 724 10 L457 10 Z M752 946 L718 946 L819 775 L832 775 L752 946 Z M594 946 L560 946 L661 775 L674 775 L594 946 Z " />
<glyph glyph-name="uni020D" unicode="&#x20d;" horiz-adv-x="1111" d="M612 -8 C917 -8 1033 152 1033 326 C1033 461 951 568 716 568 L477 568 C172 568 58 408 58 234 C58 99 138 -8 373 -8 L612 -8 Z M377 12 C158 12 80 109 80 231 C80 396 188 548 481 548 L713 548 C933 548 1010 450 1010 327 C1010 165 904 12 609 12 L377 12 Z M637 806 L603 806 L704 635 L717 635 L637 806 Z M479 806 L445 806 L546 635 L559 635 L479 806 Z " />
<glyph glyph-name="uni020E" unicode="&#x20e;" horiz-adv-x="1294" d="M726 -10 C1088 -10 1223 194 1223 414 C1223 581 1116 710 846 710 L573 710 C216 710 74 511 74 293 C74 122 180 -10 453 -10 L726 -10 Z M457 10 C193 10 97 134 97 296 C97 501 234 690 576 690 L842 690 C1104 690 1200 568 1200 408 C1200 204 1071 10 724 10 L457 10 Z M752 905 C843 905 866 852 861 794 L874 794 C880 859 856 926 755 926 C655 926 608 859 591 794 L606 794 C621 852 661 905 752 905 L752 905 Z " />
<glyph glyph-name="uni020F" unicode="&#x20f;" horiz-adv-x="1111" d="M612 -8 C917 -8 1033 152 1033 326 C1033 461 951 568 716 568 L477 568 C172 568 58 408 58 234 C58 99 138 -8 373 -8 L612 -8 Z M377 12 C158 12 80 109 80 231 C80 396 188 548 481 548 L713 548 C933 548 1010 450 1010 327 C1010 165 904 12 609 12 L377 12 Z M637 765 C728 765 751 712 746 654 L759 654 C765 719 741 786 640 786 C540 786 493 719 476 654 L491 654 C506 712 546 765 637 765 L637 765 Z " />
<glyph glyph-name="uni0210" unicode="&#x210;" horiz-adv-x="1224" d="M65 0 L87 0 L140 300 L617 300 L1111 0 L1152 0 L657 300 L841 300 C1044 300 1124 407 1124 531 C1124 625 1068 700 913 700 L190 700 L65 0 Z M908 680 C1050 680 1101 612 1101 528 C1101 418 1026 320 841 320 L143 320 L208 680 L908 680 Z M678 946 L644 946 L745 775 L758 775 L678 946 Z M520 946 L486 946 L587 775 L600 775 L520 946 Z " />
<glyph glyph-name="uni0211" unicode="&#x211;" horiz-adv-x="1061" d="M55 0 L77 0 L119 238 L523 238 L937 0 L980 0 L563 238 L716 238 C894 238 949 329 949 428 C949 501 904 560 774 560 L154 560 L55 0 Z M769 540 C886 540 926 490 926 424 C926 338 879 258 719 258 L123 258 L173 540 L769 540 Z M577 806 L543 806 L644 635 L657 635 L577 806 Z M419 806 L385 806 L486 635 L499 635 L419 806 Z " />
<glyph glyph-name="uni0212" unicode="&#x212;" horiz-adv-x="1224" d="M65 0 L87 0 L140 300 L617 300 L1111 0 L1152 0 L657 300 L841 300 C1044 300 1124 407 1124 531 C1124 625 1068 700 913 700 L190 700 L65 0 Z M908 680 C1050 680 1101 612 1101 528 C1101 418 1026 320 841 320 L143 320 L208 680 L908 680 Z M678 905 C769 905 792 852 787 794 L800 794 C806 859 782 926 681 926 C581 926 534 859 517 794 L532 794 C547 852 587 905 678 905 L678 905 Z " />
<glyph glyph-name="uni0213" unicode="&#x213;" horiz-adv-x="1061" d="M55 0 L77 0 L119 238 L523 238 L937 0 L980 0 L563 238 L716 238 C894 238 949 329 949 428 C949 501 904 560 774 560 L154 560 L55 0 Z M769 540 C886 540 926 490 926 424 C926 338 879 258 719 258 L123 258 L173 540 L769 540 Z M577 765 C668 765 691 712 686 654 L699 654 C705 719 681 786 580 786 C480 786 433 719 416 654 L431 654 C446 712 486 765 577 765 L577 765 Z " />
<glyph glyph-name="uni0214" unicode="&#x214;" horiz-adv-x="1224" d="M124 323 L193 700 L171 700 L102 323 C67 130 143 -10 447 -10 L665 -10 C969 -10 1080 121 1114 311 L1184 700 L1162 700 L1094 320 C1060 132 953 10 667 10 L452 10 C161 10 92 138 124 323 L124 323 Z M717 946 L683 946 L784 775 L797 775 L717 946 Z M559 946 L525 946 L626 775 L639 775 L559 946 Z " />
<glyph glyph-name="uni0215" unicode="&#x215;" horiz-adv-x="1053" d="M102 257 L157 560 L135 560 L81 258 C53 104 104 -8 362 -8 L572 -8 C828 -8 912 87 940 244 L996 560 L975 560 L920 258 C893 109 824 12 576 12 L361 12 C120 12 77 114 102 257 L102 257 Z M608 806 L574 806 L675 635 L688 635 L608 806 Z M450 806 L416 806 L517 635 L530 635 L450 806 Z " />
<glyph glyph-name="uni0216" unicode="&#x216;" horiz-adv-x="1224" d="M124 323 L193 700 L171 700 L102 323 C67 130 143 -10 447 -10 L665 -10 C969 -10 1080 121 1114 311 L1184 700 L1162 700 L1094 320 C1060 132 953 10 667 10 L452 10 C161 10 92 138 124 323 L124 323 Z M717 905 C808 905 831 852 826 794 L839 794 C845 859 821 926 720 926 C620 926 573 859 556 794 L571 794 C586 852 626 905 717 905 L717 905 Z " />
<glyph glyph-name="uni0217" unicode="&#x217;" horiz-adv-x="1053" d="M102 257 L157 560 L135 560 L81 258 C53 104 104 -8 362 -8 L572 -8 C828 -8 912 87 940 244 L996 560 L975 560 L920 258 C893 109 824 12 576 12 L361 12 C120 12 77 114 102 257 L102 257 Z M608 765 C699 765 722 712 717 654 L730 654 C736 719 712 786 611 786 C511 786 464 719 447 654 L462 654 C477 712 517 765 608 765 L608 765 Z " />
<glyph glyph-name="uni0218" unicode="&#x218;" horiz-adv-x="1159" d="M805 20 L59 20 L55 0 L804 0 C985 0 1058 100 1058 210 C1058 294 1007 360 868 360 L301 360 C176 360 130 417 130 493 C130 592 197 680 359 680 L1106 680 L1109 700 L361 700 C180 700 107 600 107 490 C107 406 158 340 297 340 L864 340 C989 340 1035 283 1035 207 C1035 108 968 20 805 20 L805 20 Z M469 -181 L491 -181 L458 -260 L471 -260 L508 -181 L515 -140 L476 -140 L469 -181 Z " />
<glyph glyph-name="uni0219" unicode="&#x219;" horiz-adv-x="993" d="M681 20 L46 20 L42 0 L682 0 C842 0 892 86 892 170 C892 238 851 290 734 290 L242 290 C139 290 104 333 104 392 C104 471 151 540 292 540 L927 540 L932 560 L291 560 C131 560 81 474 81 390 C81 322 122 270 239 270 L730 270 C834 270 869 227 869 168 C869 89 822 20 681 20 L681 20 Z M385 -181 L407 -181 L374 -260 L387 -260 L424 -181 L431 -140 L392 -140 L385 -181 Z " />
<glyph glyph-name="uni021A" unicode="&#x21a;" horiz-adv-x="1137" d="M97 680 L618 680 L497 0 L519 0 L640 680 L1161 680 L1165 700 L102 700 L97 680 Z M457 -181 L479 -181 L446 -260 L459 -260 L496 -181 L503 -140 L464 -140 L457 -181 Z " />
<glyph glyph-name="uni021B" unicode="&#x21b;" horiz-adv-x="1001" d="M85 540 L526 540 L429 0 L451 0 L547 540 L989 540 L992 560 L88 560 L85 540 Z M390 -181 L412 -181 L379 -260 L392 -260 L429 -181 L436 -140 L397 -140 L390 -181 Z " />
<glyph glyph-name="uni021E" unicode="&#x21e;" horiz-adv-x="1253" d="M1046 0 L1068 0 L1193 700 L1171 700 L1110 360 L151 360 L212 700 L190 700 L65 0 L87 0 L146 340 L1105 340 L1046 0 Z M878 946 L862 946 L706 794 L605 946 L592 946 L686 775 L720 775 L878 946 Z " />
<glyph glyph-name="uni021F" unicode="&#x21f;" horiz-adv-x="1084" d="M887 0 L909 0 L1008 560 L986 560 L939 290 L129 290 L176 560 L154 560 L55 0 L77 0 L124 270 L934 270 L887 0 Z M769 806 L753 806 L597 654 L496 806 L483 806 L577 635 L611 635 L769 806 Z " />
<glyph glyph-name="uni0226" unicode="&#x226;" horiz-adv-x="1206" d="M1103 0 L1129 0 L681 700 L655 700 L-43 0 L-13 0 L143 157 L1003 157 L1103 0 Z M666 684 L990 177 L163 177 L666 684 Z M670 840 L710 840 L716 881 L676 881 L670 840 Z " />
<glyph glyph-name="uni0227" unicode="&#x227;" horiz-adv-x="1033" d="M929 0 L955 0 L569 560 L543 560 L-42 0 L-12 0 L122 129 L840 129 L929 0 Z M555 543 L826 149 L143 149 L555 543 Z M559 700 L599 700 L605 741 L565 741 L559 700 Z " />
<glyph glyph-name="uni0228" unicode="&#x228;" horiz-adv-x="1151" d="M65 0 L518 0 L479 -84 L491 -84 C557 -84 594 -99 594 -142 C594 -199 537 -219 483 -219 C446 -219 409 -211 392 -202 L390 -215 C413 -228 449 -237 485 -237 C550 -237 616 -212 616 -139 C616 -78 554 -63 502 -68 L533 0 L1007 0 L1010 20 L90 20 L146 340 L968 340 L973 360 L151 360 L207 680 L1127 680 L1132 700 L190 700 L65 0 Z " />
<glyph glyph-name="uni0229" unicode="&#x229;" horiz-adv-x="994" d="M55 0 L441 0 L402 -84 L414 -84 C480 -84 517 -99 517 -142 C517 -199 460 -219 406 -219 C369 -219 332 -211 315 -202 L313 -215 C336 -228 372 -237 408 -237 C473 -237 539 -212 539 -139 C539 -78 477 -63 425 -68 L456 0 L856 0 L859 20 L80 20 L124 270 L820 270 L824 290 L129 290 L173 540 L952 540 L955 560 L154 560 L55 0 Z " />
<glyph glyph-name="uni022A" unicode="&#x22a;" horiz-adv-x="1294" d="M726 -10 C1088 -10 1223 194 1223 414 C1223 581 1116 710 846 710 L573 710 C216 710 74 511 74 293 C74 122 180 -10 453 -10 L726 -10 Z M457 10 C193 10 97 134 97 296 C97 501 234 690 576 690 L842 690 C1104 690 1200 568 1200 408 C1200 204 1071 10 724 10 L457 10 Z M581 996 L943 996 L946 1014 L584 1014 L581 996 Z M829 840 L869 840 L876 881 L836 881 L829 840 Z M599 840 L639 840 L646 881 L606 881 L599 840 Z " />
<glyph glyph-name="uni022B" unicode="&#x22b;" horiz-adv-x="1111" d="M612 -8 C917 -8 1033 152 1033 326 C1033 461 951 568 716 568 L477 568 C172 568 58 408 58 234 C58 99 138 -8 373 -8 L612 -8 Z M377 12 C158 12 80 109 80 231 C80 396 188 548 481 548 L713 548 C933 548 1010 450 1010 327 C1010 165 904 12 609 12 L377 12 Z M465 856 L827 856 L830 874 L468 874 L465 856 Z M714 700 L754 700 L761 741 L721 741 L714 700 Z M484 700 L524 700 L531 741 L491 741 L484 700 Z " />
<glyph glyph-name="uni022C" unicode="&#x22c;" horiz-adv-x="1294" d="M726 -10 C1088 -10 1223 194 1223 414 C1223 581 1116 710 846 710 L573 710 C216 710 74 511 74 293 C74 122 180 -10 453 -10 L726 -10 Z M457 10 C193 10 97 134 97 296 C97 501 234 690 576 690 L842 690 C1104 690 1200 568 1200 408 C1200 204 1071 10 724 10 L457 10 Z M890 919 C866 842 840 833 810 833 C757 833 733 910 669 910 C630 910 598 890 571 802 L585 802 C608 879 637 889 667 889 C719 889 742 812 805 812 C845 812 878 832 904 919 L890 919 Z M583 1008 L945 1008 L948 1026 L586 1026 L583 1008 Z " />
<glyph glyph-name="uni022D" unicode="&#x22d;" horiz-adv-x="1111" d="M612 -8 C917 -8 1033 152 1033 326 C1033 461 951 568 716 568 L477 568 C172 568 58 408 58 234 C58 99 138 -8 373 -8 L612 -8 Z M377 12 C158 12 80 109 80 231 C80 396 188 548 481 548 L713 548 C933 548 1010 450 1010 327 C1010 165 904 12 609 12 L377 12 Z M775 779 C751 702 725 693 695 693 C642 693 618 770 554 770 C515 770 483 750 456 662 L470 662 C493 739 522 749 552 749 C604 749 627 672 690 672 C730 672 763 692 789 779 L775 779 Z M467 868 L829 868 L832 886 L470 886 L467 868 Z " />
<glyph glyph-name="uni022E" unicode="&#x22e;" horiz-adv-x="1294" d="M726 -10 C1088 -10 1223 194 1223 414 C1223 581 1116 710 846 710 L573 710 C216 710 74 511 74 293 C74 122 180 -10 453 -10 L726 -10 Z M457 10 C193 10 97 134 97 296 C97 501 234 690 576 690 L842 690 C1104 690 1200 568 1200 408 C1200 204 1071 10 724 10 L457 10 Z M714 840 L754 840 L760 881 L720 881 L714 840 Z " />
<glyph glyph-name="uni022F" unicode="&#x22f;" horiz-adv-x="1111" d="M612 -8 C917 -8 1033 152 1033 326 C1033 461 951 568 716 568 L477 568 C172 568 58 408 58 234 C58 99 138 -8 373 -8 L612 -8 Z M377 12 C158 12 80 109 80 231 C80 396 188 548 481 548 L713 548 C933 548 1010 450 1010 327 C1010 165 904 12 609 12 L377 12 Z M599 700 L639 700 L645 741 L605 741 L599 700 Z " />
<glyph glyph-name="uni0230" unicode="&#x230;" horiz-adv-x="1294" d="M726 -10 C1088 -10 1223 194 1223 414 C1223 581 1116 710 846 710 L573 710 C216 710 74 511 74 293 C74 122 180 -10 453 -10 L726 -10 Z M457 10 C193 10 97 134 97 296 C97 501 234 690 576 690 L842 690 C1104 690 1200 568 1200 408 C1200 204 1071 10 724 10 L457 10 Z M581 996 L943 996 L946 1014 L584 1014 L581 996 Z M714 840 L754 840 L760 881 L720 881 L714 840 Z " />
<glyph glyph-name="uni0231" unicode="&#x231;" horiz-adv-x="1111" d="M612 -8 C917 -8 1033 152 1033 326 C1033 461 951 568 716 568 L477 568 C172 568 58 408 58 234 C58 99 138 -8 373 -8 L612 -8 Z M377 12 C158 12 80 109 80 231 C80 396 188 548 481 548 L713 548 C933 548 1010 450 1010 327 C1010 165 904 12 609 12 L377 12 Z M465 856 L827 856 L830 874 L468 874 L465 856 Z M599 700 L639 700 L645 741 L605 741 L599 700 Z " />
<glyph glyph-name="uni0232" unicode="&#x232;" horiz-adv-x="1190" d="M524 0 L546 0 L583 211 L1248 700 L1212 700 L573 227 L105 700 L73 700 L561 211 L524 0 Z M503 851 L865 851 L868 869 L506 869 L503 851 Z " />
<glyph glyph-name="uni0233" unicode="&#x233;" horiz-adv-x="1015" d="M437 0 L459 0 L488 169 L1046 560 L1012 560 L479 186 L78 560 L47 560 L466 169 L437 0 Z M392 711 L754 711 L757 729 L395 729 L392 711 Z " />
<glyph glyph-name="uni0237" unicode="&#x237;" horiz-adv-x="1002" d="M261 -4 L523 -4 C779 -4 863 91 891 248 L946 560 L924 560 L871 262 C844 112 775 16 527 16 L264 16 C72 16 25 102 47 217 L53 249 L32 249 L26 220 C1 99 53 -4 261 -4 L261 -4 Z " />
<glyph glyph-name="uni0256" unicode="&#x256;" horiz-adv-x="1039" d="M-13 270 L103 270 L55 0 L554 0 C855 0 962 160 962 328 C962 458 880 560 655 560 L155 560 L106 290 L-8 290 L-13 270 Z M653 540 C865 540 939 446 939 325 C939 171 840 20 555 20 L81 20 L124 270 L523 270 L528 290 L128 290 L172 540 L653 540 Z " />
<glyph glyph-name="uni02BB" unicode="&#x2bb;" horiz-adv-x="241" d="M191 621 L169 621 L203 700 L189 700 L151 621 L144 580 L185 580 L191 621 Z " />
<glyph glyph-name="uni02BC" unicode="&#x2bc;" horiz-adv-x="241" d="M158 659 L181 659 L147 580 L161 580 L199 659 L206 700 L166 700 L158 659 Z " />
<glyph glyph-name="uni02BD" unicode="&#x2bd;" horiz-adv-x="241" d="M206 700 L166 700 L158 659 L168 580 L182 580 L176 659 L199 659 L206 700 Z " />
<glyph glyph-name="circumflex" unicode="&#x2c6;" horiz-adv-x="480" d="M148 635 L164 635 L320 787 L421 635 L434 635 L340 806 L306 806 L148 635 Z " />
<glyph glyph-name="caron" unicode="&#x2c7;" horiz-adv-x="480" d="M467 806 L451 806 L295 654 L194 806 L181 806 L275 635 L309 635 L467 806 Z " />
<glyph glyph-name="uni02C9" unicode="&#x2c9;" horiz-adv-x="480" d="M124 711 L486 711 L489 729 L127 729 L124 711 Z " />
<glyph glyph-name="uni02CA" unicode="&#x2ca;" horiz-adv-x="480" d="M246 635 L262 635 L425 806 L388 806 L246 635 Z " />
<glyph glyph-name="uni02CB" unicode="&#x2cb;" horiz-adv-x="480" d="M257 806 L223 806 L324 635 L337 635 L257 806 Z " />
<glyph glyph-name="uni02CD" unicode="&#x2cd;" horiz-adv-x="480" d="M-31 -170 L331 -170 L334 -152 L-28 -152 L-31 -170 Z " />
<glyph glyph-name="uni02CE" unicode="&#x2ce;" horiz-adv-x="480" d="M102 -75 L68 -75 L169 -246 L182 -246 L102 -75 Z " />
<glyph glyph-name="uni02CF" unicode="&#x2cf;" horiz-adv-x="480" d="M91 -246 L107 -246 L270 -75 L233 -75 L91 -246 Z " />
<glyph glyph-name="breve" unicode="&#x2d8;" horiz-adv-x="480" d="M298 675 C207 675 184 728 189 786 L176 786 C170 721 194 654 295 654 C395 654 442 721 459 786 L444 786 C429 728 389 675 298 675 L298 675 Z " />
<glyph glyph-name="dotaccent" unicode="&#x2d9;" horiz-adv-x="480" d="M283 700 L323 700 L329 741 L289 741 L283 700 Z " />
<glyph glyph-name="ring" unicode="&#x2da;" horiz-adv-x="480" d="M220 714 C220 764 265 806 315 806 C360 806 391 772 391 728 C391 677 347 635 297 635 C252 635 220 669 220 714 L220 714 Z M201 710 C201 657 240 616 294 616 C355 616 410 668 410 731 C410 784 371 825 316 825 C255 825 201 775 201 710 L201 710 Z " />
<glyph glyph-name="ogonek" unicode="&#x2db;" horiz-adv-x="480" d="M93 -164 C93 -206 124 -229 176 -229 C207 -229 234 -222 271 -205 L273 -192 C234 -208 209 -212 182 -212 C142 -212 116 -192 116 -157 C116 -83 208 -28 301 0 L275 0 C195 -22 93 -85 93 -164 L93 -164 Z " />
<glyph glyph-name="tilde" unicode="&#x2dc;" horiz-adv-x="480" d="M459 779 C435 702 409 693 379 693 C326 693 302 770 238 770 C199 770 167 750 140 662 L154 662 C177 739 206 749 236 749 C288 749 311 672 374 672 C414 672 447 692 473 779 L459 779 Z " />
<glyph glyph-name="hungarumlaut" unicode="&#x2dd;" horiz-adv-x="480" d="M336 635 L352 635 L516 806 L479 806 L336 635 Z M159 635 L175 635 L338 806 L302 806 L159 635 Z " />
<glyph glyph-name="uni02EC" unicode="&#x2ec;" horiz-adv-x="480" d="M312 -75 L296 -75 L140 -227 L39 -75 L26 -75 L120 -246 L154 -246 L312 -75 Z " />
<glyph glyph-name="uni02EE" unicode="&#x2ee;" horiz-adv-x="404" d="M157 659 L179 659 L145 580 L158 580 L197 659 L204 700 L163 700 L157 659 Z M321 659 L343 659 L309 580 L322 580 L361 659 L367 700 L327 700 L321 659 Z " />
<glyph glyph-name="gravecomb" unicode="&#x300;" d="M-537 806 L-571 806 L-470 635 L-457 635 L-537 806 Z " />
<glyph glyph-name="acutecomb" unicode="&#x301;" d="M-548 635 L-532 635 L-369 806 L-406 806 L-548 635 Z " />
<glyph glyph-name="uni0302" unicode="&#x302;" d="M-646 635 L-630 635 L-474 787 L-373 635 L-360 635 L-454 806 L-488 806 L-646 635 Z " />
<glyph glyph-name="tildecomb" unicode="&#x303;" d="M-335 779 C-359 702 -385 693 -415 693 C-468 693 -492 770 -556 770 C-595 770 -627 750 -654 662 L-640 662 C-617 739 -588 749 -558 749 C-506 749 -483 672 -420 672 C-380 672 -347 692 -321 779 L-335 779 Z " />
<glyph glyph-name="uni0304" unicode="&#x304;" d="M-670 711 L-308 711 L-305 729 L-667 729 L-670 711 Z " />
<glyph glyph-name="uni0306" unicode="&#x306;" d="M-496 675 C-587 675 -610 728 -605 786 L-618 786 C-624 721 -600 654 -499 654 C-399 654 -352 721 -335 786 L-350 786 C-365 728 -405 675 -496 675 L-496 675 Z " />
<glyph glyph-name="uni0307" unicode="&#x307;" d="M-511 700 L-471 700 L-465 741 L-505 741 L-511 700 Z " />
<glyph glyph-name="uni0308" unicode="&#x308;" d="M-397 700 L-357 700 L-350 741 L-390 741 L-397 700 Z M-627 700 L-587 700 L-580 741 L-620 741 L-627 700 Z " />
<glyph glyph-name="hookabovecomb" unicode="&#x309;" d="M-533 647 L-513 647 L-508 681 L-501 681 C-434 681 -356 693 -356 774 C-356 828 -407 843 -463 843 C-503 843 -545 835 -571 823 L-574 809 C-548 818 -511 824 -475 824 C-424 824 -379 816 -379 770 C-379 711 -426 695 -513 695 L-525 695 L-533 647 Z " />
<glyph glyph-name="uni030A" unicode="&#x30a;" d="M-574 714 C-574 764 -529 806 -479 806 C-434 806 -403 772 -403 728 C-403 677 -447 635 -497 635 C-542 635 -574 669 -574 714 L-574 714 Z M-593 710 C-593 657 -554 616 -500 616 C-439 616 -384 668 -384 731 C-384 784 -423 825 -478 825 C-539 825 -593 775 -593 710 L-593 710 Z " />
<glyph glyph-name="uni030B" unicode="&#x30b;" d="M-458 635 L-442 635 L-278 806 L-315 806 L-458 635 Z M-635 635 L-619 635 L-456 806 L-492 806 L-635 635 Z " />
<glyph glyph-name="uni030C" unicode="&#x30c;" d="M-327 806 L-343 806 L-499 654 L-600 806 L-613 806 L-519 635 L-485 635 L-327 806 Z " />
<glyph glyph-name="uni030F" unicode="&#x30f;" d="M-473 806 L-507 806 L-406 635 L-393 635 L-473 806 Z M-631 806 L-665 806 L-564 635 L-551 635 L-631 806 Z " />
<glyph glyph-name="uni0311" unicode="&#x311;" d="M-476 766 C-385 766 -364 713 -369 655 L-356 655 C-351 720 -374 787 -474 787 C-575 787 -623 720 -640 655 L-624 655 C-609 713 -567 766 -476 766 L-476 766 Z " />
<glyph glyph-name="uni0312" unicode="&#x312;" d="M-365 621 L-387 621 L-353 700 L-366 700 L-405 621 L-412 580 L-371 580 L-365 621 Z " />
<glyph glyph-name="uni0313" unicode="&#x313;" d="M-517 659 L-495 659 L-529 580 L-516 580 L-477 659 L-470 700 L-511 700 L-517 659 Z " />
<glyph glyph-name="uni0314" unicode="&#x314;" d="M-342 700 L-383 700 L-391 659 L-380 580 L-367 580 L-373 659 L-351 659 L-342 700 Z " />
<glyph glyph-name="uni0316" unicode="&#x316;" d="M-692 -75 L-726 -75 L-625 -246 L-612 -246 L-692 -75 Z " />
<glyph glyph-name="uni0317" unicode="&#x317;" d="M-703 -246 L-687 -246 L-524 -75 L-561 -75 L-703 -246 Z " />
<glyph glyph-name="uni031B" unicode="&#x31b;" d="M-81 540 L38 540 C126 540 185 559 200 643 C202 656 204 670 203 686 L182 686 C183 670 181 656 179 644 C167 575 120 560 40 560 L-78 560 L-81 540 Z " />
<glyph glyph-name="uni031C" unicode="&#x31c;" d="M-588 -56 C-644 -56 -696 -102 -707 -160 C-717 -218 -681 -265 -625 -265 L-622 -246 C-667 -246 -697 -208 -689 -160 C-680 -113 -637 -75 -592 -75 L-588 -56 Z " />
<glyph glyph-name="dotbelowcomb" unicode="&#x323;" d="M-666 -181 L-626 -181 L-620 -140 L-660 -140 L-666 -181 Z " />
<glyph glyph-name="uni0324" unicode="&#x324;" d="M-552 -181 L-512 -181 L-505 -140 L-545 -140 L-552 -181 Z M-782 -181 L-742 -181 L-735 -140 L-775 -140 L-782 -181 Z " />
<glyph glyph-name="uni0325" unicode="&#x325;" d="M-729 -167 C-729 -117 -684 -75 -634 -75 C-589 -75 -558 -109 -558 -153 C-558 -204 -602 -246 -652 -246 C-697 -246 -729 -212 -729 -167 L-729 -167 Z M-748 -171 C-748 -224 -709 -265 -655 -265 C-594 -265 -539 -213 -539 -150 C-539 -97 -578 -56 -633 -56 C-694 -56 -748 -106 -748 -171 L-748 -171 Z " />
<glyph glyph-name="uni0326" unicode="&#x326;" d="M-665 -181 L-643 -181 L-676 -260 L-663 -260 L-626 -181 L-619 -140 L-658 -140 L-665 -181 Z " />
<glyph glyph-name="uni0327" unicode="&#x327;" d="M-661 -84 L-649 -84 C-583 -84 -546 -99 -546 -142 C-546 -199 -603 -219 -657 -219 C-694 -219 -731 -211 -748 -202 L-750 -215 C-727 -228 -691 -237 -655 -237 C-590 -237 -524 -212 -524 -139 C-524 -78 -586 -63 -638 -68 L-607 0 L-622 0 L-661 -84 Z " />
<glyph glyph-name="uni0328" unicode="&#x328;" d="M-701 -164 C-701 -206 -670 -229 -618 -229 C-587 -229 -560 -222 -523 -205 L-521 -192 C-560 -208 -585 -212 -612 -212 C-652 -212 -678 -192 -678 -157 C-678 -83 -586 -28 -493 0 L-519 0 C-599 -22 -701 -85 -701 -164 L-701 -164 Z " />
<glyph glyph-name="uni032C" unicode="&#x32c;" d="M-482 -75 L-498 -75 L-654 -227 L-755 -75 L-768 -75 L-674 -246 L-640 -246 L-482 -75 Z " />
<glyph glyph-name="uni032D" unicode="&#x32d;" d="M-801 -246 L-785 -246 L-629 -94 L-528 -246 L-515 -246 L-609 -75 L-643 -75 L-801 -246 Z " />
<glyph glyph-name="uni032E" unicode="&#x32e;" d="M-651 -206 C-742 -206 -765 -153 -760 -95 L-773 -95 C-779 -160 -755 -227 -654 -227 C-554 -227 -507 -160 -490 -95 L-505 -95 C-520 -153 -560 -206 -651 -206 L-651 -206 Z " />
<glyph glyph-name="uni032F" unicode="&#x32f;" d="M-634 -116 C-543 -116 -521 -169 -526 -227 L-513 -227 C-507 -162 -531 -95 -631 -95 C-732 -95 -779 -162 -797 -227 L-781 -227 C-765 -169 -725 -116 -634 -116 L-634 -116 Z " />
<glyph glyph-name="uni0330" unicode="&#x330;" d="M-490 -102 C-514 -179 -540 -188 -570 -188 C-623 -188 -647 -111 -711 -111 C-750 -111 -782 -131 -809 -219 L-795 -219 C-772 -142 -743 -132 -713 -132 C-661 -132 -638 -209 -575 -209 C-535 -209 -502 -189 -476 -102 L-490 -102 Z " />
<glyph glyph-name="uni0331" unicode="&#x331;" d="M-825 -170 L-463 -170 L-460 -152 L-822 -152 L-825 -170 Z " />
<glyph glyph-name="uni0338" unicode="&#x338;" d="M-880 -75 L-857 -75 L-224 775 L-247 775 L-880 -75 Z " />
<glyph glyph-name="uni0339" unicode="&#x339;" d="M-663 -75 C-618 -75 -588 -113 -597 -160 C-605 -208 -648 -246 -693 -246 L-696 -265 C-641 -265 -589 -218 -579 -160 C-568 -102 -604 -56 -659 -56 L-663 -75 Z " />
<glyph glyph-name="uni0340" unicode="&#x340;" d="M-537 806 L-571 806 L-470 635 L-457 635 L-537 806 Z " />
<glyph glyph-name="uni0341" unicode="&#x341;" d="M-548 635 L-532 635 L-369 806 L-406 806 L-548 635 Z " />
<glyph glyph-name="uni0343" unicode="&#x343;" d="M-517 659 L-495 659 L-529 580 L-516 580 L-477 659 L-470 700 L-511 700 L-517 659 Z " />
<glyph glyph-name="uni0344" unicode="&#x344;" d="M-384 700 L-344 700 L-338 741 L-378 741 L-384 700 Z M-636 700 L-596 700 L-589 741 L-629 741 L-636 700 Z M-507 635 L-498 635 L-451 835 L-481 835 L-507 635 Z " />
<glyph glyph-name="uni034F" unicode="&#x34f;" d="" />
<glyph glyph-name="uni0351" unicode="&#x351;" d="M-433 825 C-489 825 -541 779 -551 721 C-562 663 -526 616 -470 616 L-467 635 C-512 635 -542 673 -533 721 C-525 768 -481 806 -436 806 L-433 825 Z " />
<glyph glyph-name="uni0357" unicode="&#x357;" d="M-507 806 C-462 806 -433 768 -441 721 C-450 673 -493 635 -538 635 L-541 616 C-486 616 -434 663 -423 721 C-413 779 -449 825 -504 825 L-507 806 Z " />
<glyph glyph-name="uni0374" unicode="&#x374;" horiz-adv-x="235" d="M119 400 L134 400 L249 700 L217 700 L119 400 Z " />
<glyph glyph-name="uni0375" unicode="&#x375;" horiz-adv-x="235" d="M31 -100 L46 -100 L161 200 L129 200 L31 -100 Z " />
<glyph glyph-name="uni037E" unicode="&#x37e;" horiz-adv-x="241" d="M41 0 L63 0 L29 -79 L42 -79 L81 0 L88 41 L47 41 L41 0 Z M133 519 L174 519 L180 560 L140 560 L133 519 Z " />
<glyph glyph-name="tonos" unicode="&#x384;" horiz-adv-x="480" d="M287 635 L297 635 L345 835 L312 835 L287 635 Z " />
<glyph glyph-name="dieresistonos" unicode="&#x385;" horiz-adv-x="480" d="M411 700 L451 700 L457 741 L417 741 L411 700 Z M159 700 L199 700 L206 741 L166 741 L159 700 Z M288 635 L297 635 L344 835 L314 835 L288 635 Z " />
<glyph glyph-name="Alphatonos" unicode="&#x386;" horiz-adv-x="1206" d="M1103 0 L1129 0 L681 700 L655 700 L-43 0 L-13 0 L143 157 L1003 157 L1103 0 Z M666 684 L990 177 L163 177 L666 684 Z M197 500 L207 500 L255 700 L222 700 L197 500 Z " />
<glyph glyph-name="anoteleia" unicode="&#x387;" horiz-adv-x="241" d="M87 259 L127 259 L133 300 L93 300 L87 259 Z " />
<glyph glyph-name="Epsilontonos" unicode="&#x388;" horiz-adv-x="1284" d="M198 0 L1140 0 L1143 20 L223 20 L279 340 L1101 340 L1106 360 L284 360 L340 680 L1260 680 L1265 700 L323 700 L198 0 Z M91 500 L101 500 L149 700 L116 700 L91 500 Z " />
<glyph glyph-name="Etatonos" unicode="&#x389;" horiz-adv-x="1386" d="M1179 0 L1201 0 L1326 700 L1304 700 L1243 360 L284 360 L345 700 L323 700 L198 0 L220 0 L279 340 L1238 340 L1179 0 Z M91 500 L101 500 L149 700 L116 700 L91 500 Z " />
<glyph glyph-name="Iotatonos" unicode="&#x38a;" horiz-adv-x="405" d="M198 0 L220 0 L345 700 L323 700 L198 0 Z M91 500 L101 500 L149 700 L116 700 L91 500 Z " />
<glyph glyph-name="Omicrontonos" unicode="&#x38c;" horiz-adv-x="1404" d="M835 -10 C1197 -10 1332 194 1332 414 C1332 581 1225 710 955 710 L682 710 C325 710 183 511 183 293 C183 122 289 -10 562 -10 L835 -10 Z M566 10 C302 10 206 134 206 296 C206 501 343 690 685 690 L951 690 C1213 690 1309 568 1309 408 C1309 204 1180 10 833 10 L566 10 Z M91 500 L101 500 L149 700 L116 700 L91 500 Z " />
<glyph glyph-name="Upsilontonos" unicode="&#x38e;" horiz-adv-x="1324" d="M657 0 L679 0 L716 211 L1381 700 L1345 700 L706 227 L238 700 L206 700 L694 211 L657 0 Z M91 500 L101 500 L149 700 L116 700 L91 500 Z " />
<glyph glyph-name="Omegatonos" unicode="&#x38f;" horiz-adv-x="1401" d="M515 19 C305 64 225 195 225 334 C225 513 343 690 651 690 L971 690 C1202 690 1290 580 1290 441 C1290 262 1157 82 864 19 L862 0 L1265 0 L1268 20 L938 20 C1205 98 1312 272 1312 446 C1312 593 1217 710 975 710 L654 710 C333 710 203 532 203 334 C203 201 274 78 446 20 L114 20 L111 0 L513 0 L515 19 Z M91 500 L101 500 L149 700 L116 700 L91 500 Z " />
<glyph glyph-name="iotadieresistonos" unicode="&#x390;" horiz-adv-x="252" d="M55 0 L77 0 L176 560 L154 560 L55 0 Z M297 700 L337 700 L343 741 L303 741 L297 700 Z M45 700 L85 700 L92 741 L52 741 L45 700 Z M174 635 L183 635 L230 835 L200 835 L174 635 Z " />
<glyph glyph-name="Alpha" unicode="&#x391;" horiz-adv-x="1206" d="M1103 0 L1129 0 L681 700 L655 700 L-43 0 L-13 0 L143 157 L1003 157 L1103 0 Z M666 684 L990 177 L163 177 L666 684 Z " />
<glyph glyph-name="Beta" unicode="&#x392;" horiz-adv-x="1209" d="M65 0 L846 0 C1028 0 1100 100 1100 210 C1100 282 1057 340 961 354 C1065 383 1113 458 1113 556 C1113 636 1060 700 923 700 L190 700 L65 0 Z M902 340 C1031 340 1077 282 1077 208 C1077 109 1010 20 847 20 L91 20 L147 340 L902 340 Z M1090 547 C1090 456 1029 360 869 360 L151 360 L208 680 L917 680 C1042 680 1090 621 1090 547 L1090 547 Z " />
<glyph glyph-name="Gamma" unicode="&#x393;" horiz-adv-x="1084" d="M65 0 L87 0 L207 680 L1108 680 L1113 700 L190 700 L65 0 Z " />
<glyph glyph-name="Delta" unicode="&#x394;" horiz-adv-x="1206" d="M681 700 L655 700 L-43 0 L1129 0 L681 700 Z M666 684 L1091 20 L6 20 L666 684 Z " />
<glyph glyph-name="Epsilon" unicode="&#x395;" horiz-adv-x="1151" d="M65 0 L1007 0 L1010 20 L90 20 L146 340 L968 340 L973 360 L151 360 L207 680 L1127 680 L1132 700 L190 700 L65 0 Z " />
<glyph glyph-name="Zeta" unicode="&#x396;" horiz-adv-x="1141" d="M19 0 L1014 0 L1017 20 L59 20 L1117 682 L1118 700 L152 700 L147 680 L1078 680 L20 18 L19 0 Z " />
<glyph glyph-name="Eta" unicode="&#x397;" horiz-adv-x="1253" d="M1046 0 L1068 0 L1193 700 L1171 700 L1110 360 L151 360 L212 700 L190 700 L65 0 L87 0 L146 340 L1105 340 L1046 0 Z " />
<glyph glyph-name="Theta" unicode="&#x398;" horiz-adv-x="1294" d="M282 340 L1010 340 L1015 360 L287 360 L282 340 Z M726 -10 C1088 -10 1223 194 1223 414 C1223 581 1116 710 846 710 L573 710 C216 710 74 511 74 293 C74 122 180 -10 453 -10 L726 -10 Z M457 10 C193 10 97 134 97 296 C97 501 234 690 576 690 L842 690 C1104 690 1200 568 1200 408 C1200 204 1071 10 724 10 L457 10 Z " />
<glyph glyph-name="Iota" unicode="&#x399;" horiz-adv-x="272" d="M65 0 L87 0 L212 700 L190 700 L65 0 Z " />
<glyph glyph-name="Kappa" unicode="&#x39a;" horiz-adv-x="1229" d="M1194 700 L1147 700 L118 173 L212 700 L190 700 L65 0 L87 0 L112 147 L524 358 L1114 0 L1157 0 L547 369 L1194 700 Z " />
<glyph glyph-name="Lambda" unicode="&#x39b;" horiz-adv-x="1206" d="M655 700 L-43 0 L-13 0 L666 684 L1103 0 L1129 0 L681 700 L655 700 Z " />
<glyph glyph-name="Mu" unicode="&#x39c;" horiz-adv-x="1385" d="M1302 700 L642 66 L209 700 L190 700 L65 0 L86 0 L205 669 L638 38 L1296 669 L1179 0 L1200 0 L1325 700 L1302 700 Z " />
<glyph glyph-name="Nu" unicode="&#x39d;" horiz-adv-x="1250" d="M1044 0 L1065 0 L1190 700 L1168 700 L1047 23 L211 700 L190 700 L65 0 L87 0 L206 677 L1044 0 Z " />
<glyph glyph-name="Xi" unicode="&#x39e;" horiz-adv-x="1159" d="M145 680 L1135 680 L1140 700 L150 700 L145 680 Z M1017 20 L27 20 L24 0 L1014 0 L1017 20 Z M172 340 L985 340 L990 360 L177 360 L172 340 Z " />
<glyph glyph-name="Omicron" unicode="&#x39f;" horiz-adv-x="1294" d="M726 -10 C1088 -10 1223 194 1223 414 C1223 581 1116 710 846 710 L573 710 C216 710 74 511 74 293 C74 122 180 -10 453 -10 L726 -10 Z M457 10 C193 10 97 134 97 296 C97 501 234 690 576 690 L842 690 C1104 690 1200 568 1200 408 C1200 204 1071 10 724 10 L457 10 Z " />
<glyph glyph-name="Pi" unicode="&#x3a0;" horiz-adv-x="1253" d="M1046 0 L1068 0 L1193 700 L190 700 L65 0 L87 0 L207 680 L1166 680 L1046 0 Z " />
<glyph glyph-name="Rho" unicode="&#x3a1;" horiz-adv-x="1148" d="M65 0 L87 0 L140 300 L860 300 C1063 300 1143 407 1143 531 C1143 625 1087 700 932 700 L190 700 L65 0 Z M927 680 C1069 680 1120 612 1120 528 C1120 418 1045 320 860 320 L143 320 L208 680 L927 680 Z " />
<glyph glyph-name="Sigma" unicode="&#x3a3;" horiz-adv-x="1130" d="M146 681 L605 350 L27 19 L24 0 L986 0 L988 20 L67 20 L642 348 L182 680 L1106 680 L1111 700 L150 700 L146 681 Z " />
<glyph glyph-name="Tau" unicode="&#x3a4;" horiz-adv-x="1137" d="M97 680 L618 680 L497 0 L519 0 L640 680 L1161 680 L1165 700 L102 700 L97 680 Z " />
<glyph glyph-name="Upsilon" unicode="&#x3a5;" horiz-adv-x="1190" d="M524 0 L546 0 L583 211 L1248 700 L1212 700 L573 227 L105 700 L73 700 L561 211 L524 0 Z " />
<glyph glyph-name="Phi" unicode="&#x3a6;" horiz-adv-x="1253" d="M792 62 C1087 62 1200 221 1200 399 C1200 531 1115 638 895 638 L691 638 L711 750 L689 750 L669 638 L466 638 C173 638 58 475 58 299 C58 165 144 62 363 62 L566 62 L546 -50 L568 -50 L588 62 L792 62 Z M891 618 C1098 618 1177 520 1177 396 C1177 234 1069 82 791 82 L591 82 L688 618 L891 618 Z M82 302 C82 463 192 618 467 618 L666 618 L569 82 L367 82 C160 82 82 177 82 302 L82 302 Z " />
<glyph glyph-name="Chi" unicode="&#x3a7;" horiz-adv-x="1179" d="M105 700 L573 351 L-25 0 L15 0 L591 340 L1049 0 L1085 0 L611 351 L1205 700 L1165 700 L592 362 L141 700 L105 700 Z " />
<glyph glyph-name="Psi" unicode="&#x3a8;" horiz-adv-x="1244" d="M551 0 L573 0 L601 161 L754 161 C1058 161 1169 292 1203 482 L1242 700 L1220 700 L1183 491 C1149 303 1042 181 756 181 L605 181 L698 700 L676 700 L583 181 L444 181 C153 181 84 308 116 494 L154 700 L132 700 L94 494 C58 301 135 161 440 161 L579 161 L551 0 Z " />
<glyph glyph-name="Omega" unicode="&#x3a9;" horiz-adv-x="1302" d="M418 19 C208 64 128 195 128 334 C128 513 246 690 554 690 L874 690 C1105 690 1193 580 1193 441 C1193 262 1060 82 767 19 L765 0 L1168 0 L1171 20 L841 20 C1108 98 1215 272 1215 446 C1215 593 1120 710 878 710 L557 710 C236 710 106 532 106 334 C106 201 177 78 349 20 L17 20 L14 0 L416 0 L418 19 Z " />
<glyph glyph-name="Iotadieresis" unicode="&#x3aa;" horiz-adv-x="272" d="M65 0 L87 0 L212 700 L190 700 L65 0 Z M318 840 L358 840 L365 881 L325 881 L318 840 Z M88 840 L128 840 L135 881 L95 881 L88 840 Z " />
<glyph glyph-name="Upsilondieresis" unicode="&#x3ab;" horiz-adv-x="1190" d="M524 0 L546 0 L583 211 L1248 700 L1212 700 L573 227 L105 700 L73 700 L561 211 L524 0 Z M778 840 L818 840 L825 881 L785 881 L778 840 Z M548 840 L588 840 L595 881 L555 881 L548 840 Z " />
<glyph glyph-name="alphatonos" unicode="&#x3ac;" horiz-adv-x="1033" d="M929 0 L955 0 L569 560 L543 560 L-42 0 L-12 0 L122 129 L840 129 L929 0 Z M555 543 L826 149 L143 149 L555 543 Z M133 360 L143 360 L191 560 L158 560 L133 360 Z " />
<glyph glyph-name="epsilontonos" unicode="&#x3ad;" horiz-adv-x="1127" d="M188 0 L989 0 L992 20 L213 20 L257 270 L953 270 L957 290 L262 290 L306 540 L1085 540 L1088 560 L287 560 L188 0 Z M66 360 L76 360 L124 560 L91 560 L66 360 Z " />
<glyph glyph-name="etatonos" unicode="&#x3ae;" horiz-adv-x="1217" d="M1020 0 L1042 0 L1141 560 L1119 560 L1072 290 L262 290 L309 560 L287 560 L188 0 L210 0 L257 270 L1067 270 L1020 0 Z M66 360 L76 360 L124 560 L91 560 L66 360 Z " />
<glyph glyph-name="iotatonos" unicode="&#x3af;" horiz-adv-x="385" d="M188 0 L210 0 L309 560 L287 560 L188 0 Z M66 360 L76 360 L124 560 L91 560 L66 360 Z " />
<glyph glyph-name="upsilondieresistonos" unicode="&#x3b0;" horiz-adv-x="1015" d="M437 0 L459 0 L488 169 L1046 560 L1012 560 L479 186 L78 560 L47 560 L466 169 L437 0 Z M680 700 L720 700 L726 741 L686 741 L680 700 Z M428 700 L468 700 L475 741 L435 741 L428 700 Z M557 635 L566 635 L613 835 L583 835 L557 635 Z " />
<glyph glyph-name="alpha" unicode="&#x3b1;" horiz-adv-x="1033" d="M929 0 L955 0 L569 560 L543 560 L-42 0 L-12 0 L122 129 L840 129 L929 0 Z M555 543 L826 149 L143 149 L555 543 Z " />
<glyph glyph-name="beta" unicode="&#x3b2;" horiz-adv-x="1042" d="M55 0 L724 0 C884 0 932 82 932 170 C932 226 901 272 820 283 C912 307 940 379 940 442 C940 508 900 560 783 560 L154 560 L55 0 Z M725 20 L80 20 L125 270 L769 270 C875 270 909 225 909 167 C908 88 864 20 725 20 L725 20 Z M780 540 C885 540 918 496 918 435 C918 362 877 290 742 290 L129 290 L173 540 L780 540 Z " />
<glyph glyph-name="gamma" unicode="&#x3b3;" horiz-adv-x="948" d="M55 0 L77 0 L173 540 L936 540 L939 560 L154 560 L55 0 Z " />
<glyph glyph-name="delta" unicode="&#x3b4;" horiz-adv-x="1033" d="M569 560 L543 560 L-42 0 L955 0 L569 560 Z M555 543 L917 20 L6 20 L555 543 Z " />
<glyph glyph-name="epsilon" unicode="&#x3b5;" horiz-adv-x="994" d="M55 0 L856 0 L859 20 L80 20 L124 270 L820 270 L824 290 L129 290 L173 540 L952 540 L955 560 L154 560 L55 0 Z " />
<glyph glyph-name="zeta" unicode="&#x3b6;" horiz-adv-x="979" d="M12 0 L859 0 L862 20 L54 20 L939 543 L940 560 L118 560 L115 540 L897 540 L12 17 L12 0 Z " />
<glyph glyph-name="eta" unicode="&#x3b7;" horiz-adv-x="1084" d="M887 0 L909 0 L1008 560 L986 560 L939 290 L129 290 L176 560 L154 560 L55 0 L77 0 L124 270 L934 270 L887 0 Z " />
<glyph glyph-name="theta" unicode="&#x3b8;" horiz-adv-x="1111" d="M236 270 L849 270 L853 290 L240 290 L236 270 Z M612 -8 C917 -8 1033 152 1033 326 C1033 461 951 568 716 568 L477 568 C172 568 58 408 58 234 C58 99 138 -8 373 -8 L612 -8 Z M377 12 C158 12 80 109 80 231 C80 396 188 548 481 548 L713 548 C933 548 1010 450 1010 327 C1010 165 904 12 609 12 L377 12 Z " />
<glyph glyph-name="iota" unicode="&#x3b9;" horiz-adv-x="252" d="M55 0 L77 0 L176 560 L154 560 L55 0 Z " />
<glyph glyph-name="kappa" unicode="&#x3ba;" horiz-adv-x="1062" d="M1014 560 L966 560 L102 143 L176 560 L154 560 L55 0 L77 0 L97 117 L446 285 L942 0 L985 0 L467 295 L1014 560 Z " />
<glyph glyph-name="lambda" unicode="&#x3bb;" horiz-adv-x="1033" d="M542 560 L-42 0 L-11 0 L554 543 L928 0 L955 0 L568 560 L542 560 Z " />
<glyph glyph-name="mu" unicode="&#x3bc;" horiz-adv-x="1196" d="M1096 560 L546 60 L172 560 L154 560 L55 0 L76 0 L171 529 L543 30 L1094 529 L999 0 L1021 0 L1120 560 L1096 560 Z " />
<glyph glyph-name="nu" unicode="&#x3bd;" horiz-adv-x="1081" d="M906 0 L1005 560 L983 560 L887 24 L175 560 L154 560 L55 0 L77 0 L173 537 L885 0 L906 0 Z " />
<glyph glyph-name="xi" unicode="&#x3be;" horiz-adv-x="997" d="M114 540 L956 540 L959 560 L117 560 L114 540 Z M863 20 L21 20 L18 0 L860 0 L863 20 Z M141 270 L831 270 L836 290 L146 290 L141 270 Z " />
<glyph glyph-name="omicron" unicode="&#x3bf;" horiz-adv-x="1111" d="M612 -8 C917 -8 1033 152 1033 326 C1033 461 951 568 716 568 L477 568 C172 568 58 408 58 234 C58 99 138 -8 373 -8 L612 -8 Z M377 12 C158 12 80 109 80 231 C80 396 188 548 481 548 L713 548 C933 548 1010 450 1010 327 C1010 165 904 12 609 12 L377 12 Z " />
<glyph glyph-name="pi" unicode="&#x3c0;" horiz-adv-x="1084" d="M887 0 L909 0 L1008 560 L154 560 L55 0 L77 0 L173 540 L983 540 L887 0 Z " />
<glyph glyph-name="rho" unicode="&#x3c1;" horiz-adv-x="1001" d="M55 0 L77 0 L119 238 L732 238 C911 238 967 329 967 426 C967 500 920 560 790 560 L154 560 L55 0 Z M786 540 C904 540 944 489 944 422 C944 338 892 258 735 258 L123 258 L173 540 L786 540 Z " />
<glyph glyph-name="uni03C2" unicode="&#x3c2;" horiz-adv-x="971" d="M113 542 L504 280 L20 18 L17 0 L834 0 L837 20 L60 20 L541 279 L151 540 L930 540 L933 560 L116 560 L113 542 Z " />
<glyph glyph-name="sigma" unicode="&#x3c3;" horiz-adv-x="971" d="M113 542 L504 280 L20 18 L17 0 L834 0 L837 20 L60 20 L541 279 L151 540 L930 540 L933 560 L116 560 L113 542 Z " />
<glyph glyph-name="tau" unicode="&#x3c4;" horiz-adv-x="1001" d="M85 540 L526 540 L429 0 L451 0 L547 540 L989 540 L992 560 L88 560 L85 540 Z " />
<glyph glyph-name="upsilon" unicode="&#x3c5;" horiz-adv-x="1015" d="M437 0 L459 0 L488 169 L1046 560 L1012 560 L479 186 L78 560 L47 560 L466 169 L437 0 Z " />
<glyph glyph-name="phi" unicode="&#x3c6;" horiz-adv-x="1086" d="M681 50 C932 50 1019 178 1019 319 C1019 425 950 510 763 510 L585 510 L601 600 L579 600 L563 510 L386 510 C136 510 48 379 48 240 C48 132 116 50 304 50 L481 50 L464 -40 L486 -40 L503 50 L681 50 Z M760 490 C934 490 994 414 994 317 C994 189 917 70 681 70 L506 70 L581 490 L760 490 Z M306 70 C132 70 72 146 72 243 C72 371 149 490 385 490 L560 490 L485 70 L306 70 Z " />
<glyph glyph-name="chi" unicode="&#x3c7;" horiz-adv-x="1026" d="M84 560 L484 282 L-19 0 L21 0 L502 269 L889 0 L925 0 L521 282 L1021 560 L980 560 L503 293 L119 560 L84 560 Z " />
<glyph glyph-name="psi" unicode="&#x3c8;" horiz-adv-x="1072" d="M465 0 L487 0 L509 128 L648 128 C904 128 988 223 1016 380 L1047 560 L1025 560 L996 394 C970 245 900 148 652 148 L513 148 L586 560 L564 560 L491 148 L355 148 C114 148 71 250 96 393 L125 560 L103 560 L74 394 C48 240 98 128 356 128 L487 128 L465 0 Z " />
<glyph glyph-name="omega" unicode="&#x3c9;" horiz-adv-x="1124" d="M649 0 L993 0 L997 20 L720 20 C939 82 1029 218 1029 357 C1029 475 953 568 749 568 L460 568 C184 568 88 423 88 269 C88 165 145 65 292 20 L15 20 L11 0 L354 0 L357 18 C176 55 108 158 108 269 C108 411 198 548 461 548 L746 548 C939 548 1008 461 1008 351 C1008 209 901 74 652 18 L649 0 Z " />
<glyph glyph-name="iotadieresis" unicode="&#x3ca;" horiz-adv-x="252" d="M55 0 L77 0 L176 560 L154 560 L55 0 Z M284 700 L324 700 L331 741 L291 741 L284 700 Z M54 700 L94 700 L101 741 L61 741 L54 700 Z " />
<glyph glyph-name="upsilondieresis" unicode="&#x3cb;" horiz-adv-x="1015" d="M437 0 L459 0 L488 169 L1046 560 L1012 560 L479 186 L78 560 L47 560 L466 169 L437 0 Z M667 700 L707 700 L714 741 L674 741 L667 700 Z M437 700 L477 700 L484 741 L444 741 L437 700 Z " />
<glyph glyph-name="omicrontonos" unicode="&#x3cc;" horiz-adv-x="1227" d="M728 -8 C1033 -8 1149 152 1149 326 C1149 461 1067 568 832 568 L593 568 C288 568 174 408 174 234 C174 99 254 -8 489 -8 L728 -8 Z M493 12 C274 12 196 109 196 231 C196 396 304 548 597 548 L829 548 C1049 548 1126 450 1126 327 C1126 165 1020 12 725 12 L493 12 Z M66 360 L76 360 L124 560 L91 560 L66 360 Z " />
<glyph glyph-name="upsilontonos" unicode="&#x3cd;" horiz-adv-x="1148" d="M570 0 L592 0 L621 169 L1179 560 L1145 560 L612 186 L211 560 L180 560 L599 169 L570 0 Z M66 360 L76 360 L124 560 L91 560 L66 360 Z " />
<glyph glyph-name="omegatonos" unicode="&#x3ce;" horiz-adv-x="1222" d="M747 0 L1091 0 L1095 20 L818 20 C1037 82 1127 218 1127 357 C1127 475 1051 568 847 568 L558 568 C282 568 186 423 186 269 C186 165 243 65 390 20 L113 20 L109 0 L452 0 L455 18 C274 55 206 158 206 269 C206 411 296 548 559 548 L844 548 C1037 548 1106 461 1106 351 C1106 209 999 74 750 18 L747 0 Z M66 360 L76 360 L124 560 L91 560 L66 360 Z " />
<glyph glyph-name="uni0400" unicode="&#x400;" horiz-adv-x="1151" d="M65 0 L1007 0 L1010 20 L90 20 L146 340 L968 340 L973 360 L151 360 L207 680 L1127 680 L1132 700 L190 700 L65 0 Z M627 946 L593 946 L694 775 L707 775 L627 946 Z " />
<glyph glyph-name="uni0401" unicode="&#x401;" horiz-adv-x="1151" d="M65 0 L1007 0 L1010 20 L90 20 L146 340 L968 340 L973 360 L151 360 L207 680 L1127 680 L1132 700 L190 700 L65 0 Z M767 840 L807 840 L814 881 L774 881 L767 840 Z M537 840 L577 840 L584 881 L544 881 L537 840 Z " />
<glyph glyph-name="uni0402" unicode="&#x402;" horiz-adv-x="1300" d="M627 0 L984 0 C1165 0 1238 100 1238 210 C1238 294 1187 360 1048 360 L360 360 L418 680 L973 680 L976 700 L102 700 L99 680 L396 680 L274 0 L296 0 L357 340 L1044 340 C1169 340 1215 283 1215 207 C1215 108 1148 20 985 20 L631 20 L627 0 Z " />
<glyph glyph-name="uni0403" unicode="&#x403;" horiz-adv-x="1084" d="M65 0 L87 0 L207 680 L1108 680 L1113 700 L190 700 L65 0 Z M609 775 L625 775 L788 946 L751 946 L609 775 Z " />
<glyph glyph-name="uni0404" unicode="&#x404;" horiz-adv-x="1137" d="M97 298 C97 312 97 326 99 340 L954 340 L958 360 L101 360 C127 533 265 680 562 680 L1113 680 L1117 700 L561 700 C215 700 74 507 74 296 C74 130 176 0 444 0 L992 0 L995 20 L447 20 C191 20 97 142 97 298 L97 298 Z " />
<glyph glyph-name="uni0405" unicode="&#x405;" horiz-adv-x="1159" d="M805 20 L59 20 L55 0 L804 0 C985 0 1058 100 1058 210 C1058 294 1007 360 868 360 L301 360 C176 360 130 417 130 493 C130 592 197 680 359 680 L1106 680 L1109 700 L361 700 C180 700 107 600 107 490 C107 406 158 340 297 340 L864 340 C989 340 1035 283 1035 207 C1035 108 968 20 805 20 L805 20 Z " />
<glyph glyph-name="uni0406" unicode="&#x406;" horiz-adv-x="272" d="M65 0 L87 0 L212 700 L190 700 L65 0 Z " />
<glyph glyph-name="uni0407" unicode="&#x407;" horiz-adv-x="272" d="M65 0 L87 0 L212 700 L190 700 L65 0 Z M318 840 L358 840 L365 881 L325 881 L318 840 Z M88 840 L128 840 L135 881 L95 881 L88 840 Z " />
<glyph glyph-name="uni0408" unicode="&#x408;" horiz-adv-x="1182" d="M315 -5 L604 -5 C908 -5 1018 117 1052 308 L1122 700 L1100 700 L1032 319 C998 131 892 15 606 15 L322 15 C89 15 27 130 57 272 L65 310 L44 310 L37 275 C6 122 72 -5 315 -5 L315 -5 Z " />
<glyph glyph-name="uni0409" unicode="&#x409;" horiz-adv-x="1788" d="M843 0 L1446 0 C1649 0 1729 107 1729 231 C1729 325 1673 400 1518 400 L937 400 L990 700 L374 700 L206 166 C180 83 129 20 0 20 L-21 20 L-24 0 L-3 0 C144 0 199 72 226 159 L390 680 L965 680 L843 0 Z M1446 20 L869 20 L934 380 L1513 380 C1655 380 1706 312 1706 228 C1706 118 1631 20 1446 20 L1446 20 Z " />
<glyph glyph-name="uni040A" unicode="&#x40a;" horiz-adv-x="1801" d="M856 0 L1460 0 C1663 0 1743 107 1743 231 C1743 325 1687 400 1532 400 L951 400 L1004 700 L982 700 L929 400 L159 400 L212 700 L190 700 L65 0 L87 0 L155 380 L925 380 L856 0 Z M947 380 L1527 380 C1669 380 1720 312 1720 228 C1720 118 1645 20 1460 20 L882 20 L947 380 Z " />
<glyph glyph-name="uni040B" unicode="&#x40b;" horiz-adv-x="1329" d="M1202 0 L1233 180 C1251 281 1220 360 1062 360 L360 360 L416 680 L972 680 L976 700 L102 700 L97 680 L394 680 L274 0 L296 0 L355 340 L1056 340 C1201 340 1227 270 1211 180 L1180 0 L1202 0 Z " />
<glyph glyph-name="uni040C" unicode="&#x40c;" horiz-adv-x="1228" d="M582 775 L598 775 L761 946 L724 946 L582 775 Z M579 350 L1202 700 L1159 700 L555 360 L151 360 L212 700 L190 700 L65 0 L87 0 L146 340 L553 340 L1113 0 L1156 0 L579 350 Z " />
<glyph glyph-name="uni040D" unicode="&#x40d;" horiz-adv-x="1250" d="M666 946 L632 946 L733 775 L746 775 L666 946 Z M1163 674 L1043 0 L1065 0 L1190 700 L1168 700 L91 26 L212 700 L190 700 L65 0 L87 0 L1163 674 Z " />
<glyph glyph-name="uni040E" unicode="&#x40e;" horiz-adv-x="1194" d="M685 815 C594 815 571 868 576 926 L563 926 C557 861 581 794 682 794 C782 794 829 861 846 926 L831 926 C816 868 776 815 685 815 L685 815 Z M309 0 L1254 700 L1218 700 L579 222 L107 700 L75 700 L562 212 L274 0 L309 0 Z " />
<glyph glyph-name="uni040F" unicode="&#x40f;" horiz-adv-x="1253" d="M1049 20 L90 20 L212 700 L190 700 L65 0 L556 0 L528 -150 L550 -150 L578 0 L1068 0 L1193 700 L1171 700 L1049 20 Z " />
<glyph glyph-name="uni0410" unicode="&#x410;" horiz-adv-x="1206" d="M1103 0 L1129 0 L681 700 L655 700 L-43 0 L-13 0 L143 157 L1003 157 L1103 0 Z M666 684 L990 177 L163 177 L666 684 Z " />
<glyph glyph-name="uni0411" unicode="&#x411;" horiz-adv-x="1187" d="M65 0 L832 0 C1013 0 1086 100 1086 210 C1086 294 1035 360 896 360 L151 360 L209 680 L1110 680 L1113 700 L190 700 L65 0 Z M833 20 L91 20 L148 340 L892 340 C1017 340 1063 283 1063 207 C1063 108 996 20 833 20 L833 20 Z " />
<glyph glyph-name="uni0412" unicode="&#x412;" horiz-adv-x="1209" d="M65 0 L846 0 C1028 0 1100 100 1100 210 C1100 282 1057 340 961 354 C1065 383 1113 458 1113 556 C1113 636 1060 700 923 700 L190 700 L65 0 Z M902 340 C1031 340 1077 282 1077 208 C1077 109 1010 20 847 20 L91 20 L147 340 L902 340 Z M1090 547 C1090 456 1029 360 869 360 L151 360 L208 680 L917 680 C1042 680 1090 621 1090 547 L1090 547 Z " />
<glyph glyph-name="uni0413" unicode="&#x413;" horiz-adv-x="1084" d="M65 0 L87 0 L207 680 L1108 680 L1113 700 L190 700 L65 0 Z " />
<glyph glyph-name="uni0414" unicode="&#x414;" horiz-adv-x="1200" d="M-2 0 L1048 0 L1020 -150 L1042 -150 L1073 20 L989 20 L1112 700 L374 700 L206 166 C180 83 131 20 1 20 L-21 20 L-51 -150 L-29 -150 L-2 0 Z M388 680 L1085 680 L967 20 L103 20 C173 45 207 99 226 161 L388 680 Z " />
<glyph glyph-name="uni0415" unicode="&#x415;" horiz-adv-x="1151" d="M65 0 L1007 0 L1010 20 L90 20 L146 340 L968 340 L973 360 L151 360 L207 680 L1127 680 L1132 700 L190 700 L65 0 Z " />
<glyph glyph-name="uni0416" unicode="&#x416;" horiz-adv-x="1548" d="M1007 350 L1529 700 L1493 700 L985 360 L789 360 L850 700 L828 700 L767 360 L568 360 L182 700 L151 700 L546 350 L-33 0 L7 0 L568 340 L762 340 L703 0 L725 0 L784 340 L984 340 L1426 0 L1462 0 L1007 350 Z " />
<glyph glyph-name="uni0417" unicode="&#x417;" horiz-adv-x="1218" d="M14 0 L855 0 C1037 0 1109 100 1109 210 C1109 282 1066 340 970 354 C1074 383 1122 458 1122 556 C1122 636 1069 700 932 700 L159 700 L155 680 L926 680 C1052 680 1099 622 1099 547 C1099 456 1037 360 878 360 L181 360 L177 340 L912 340 C1040 340 1086 282 1086 208 C1086 107 1019 20 856 20 L18 20 L14 0 Z " />
<glyph glyph-name="uni0418" unicode="&#x418;" horiz-adv-x="1250" d="M1163 674 L1043 0 L1065 0 L1190 700 L1168 700 L91 26 L212 700 L190 700 L65 0 L87 0 L1163 674 Z " />
<glyph glyph-name="uni0419" unicode="&#x419;" horiz-adv-x="1250" d="M707 815 C616 815 593 868 598 926 L585 926 C579 861 603 794 704 794 C804 794 851 861 868 926 L853 926 C838 868 798 815 707 815 L707 815 Z M1163 674 L1043 0 L1065 0 L1190 700 L1168 700 L91 26 L212 700 L190 700 L65 0 L87 0 L1163 674 Z " />
<glyph glyph-name="uni041A" unicode="&#x41a;" horiz-adv-x="1228" d="M579 350 L1202 700 L1159 700 L555 360 L151 360 L212 700 L190 700 L65 0 L87 0 L146 340 L553 340 L1113 0 L1156 0 L579 350 Z " />
<glyph glyph-name="uni041B" unicode="&#x41b;" horiz-adv-x="1207" d="M374 700 L206 166 C180 83 129 20 0 20 L-21 20 L-24 0 L-3 0 C144 0 199 72 226 159 L388 680 L1120 680 L1000 0 L1022 0 L1147 700 L374 700 Z " />
<glyph glyph-name="uni041C" unicode="&#x41c;" horiz-adv-x="1385" d="M1302 700 L642 66 L209 700 L190 700 L65 0 L86 0 L205 669 L638 38 L1296 669 L1179 0 L1200 0 L1325 700 L1302 700 Z " />
<glyph glyph-name="uni041D" unicode="&#x41d;" horiz-adv-x="1253" d="M1046 0 L1068 0 L1193 700 L1171 700 L1110 360 L151 360 L212 700 L190 700 L65 0 L87 0 L146 340 L1105 340 L1046 0 Z " />
<glyph glyph-name="uni041E" unicode="&#x41e;" horiz-adv-x="1294" d="M726 -10 C1088 -10 1223 194 1223 414 C1223 581 1116 710 846 710 L573 710 C216 710 74 511 74 293 C74 122 180 -10 453 -10 L726 -10 Z M457 10 C193 10 97 134 97 296 C97 501 234 690 576 690 L842 690 C1104 690 1200 568 1200 408 C1200 204 1071 10 724 10 L457 10 Z " />
<glyph glyph-name="uni041F" unicode="&#x41f;" horiz-adv-x="1253" d="M1046 0 L1068 0 L1193 700 L190 700 L65 0 L87 0 L207 680 L1166 680 L1046 0 Z " />
<glyph glyph-name="uni0420" unicode="&#x420;" horiz-adv-x="1148" d="M65 0 L87 0 L140 300 L860 300 C1063 300 1143 407 1143 531 C1143 625 1087 700 932 700 L190 700 L65 0 Z M927 680 C1069 680 1120 612 1120 528 C1120 418 1045 320 860 320 L143 320 L208 680 L927 680 Z " />
<glyph glyph-name="uni0421" unicode="&#x421;" horiz-adv-x="1137" d="M97 298 C97 497 230 680 562 680 L1113 680 L1117 700 L561 700 C215 700 74 507 74 296 C74 130 176 0 444 0 L992 0 L995 20 L447 20 C191 20 97 142 97 298 L97 298 Z " />
<glyph glyph-name="uni0422" unicode="&#x422;" horiz-adv-x="1137" d="M97 680 L618 680 L497 0 L519 0 L640 680 L1161 680 L1165 700 L102 700 L97 680 Z " />
<glyph glyph-name="uni0423" unicode="&#x423;" horiz-adv-x="1194" d="M309 0 L1254 700 L1218 700 L579 222 L107 700 L75 700 L562 212 L274 0 L309 0 Z " />
<glyph glyph-name="uni0424" unicode="&#x424;" horiz-adv-x="1253" d="M792 62 C1087 62 1200 221 1200 399 C1200 531 1115 638 895 638 L691 638 L711 750 L689 750 L669 638 L466 638 C173 638 58 475 58 299 C58 165 144 62 363 62 L566 62 L546 -50 L568 -50 L588 62 L792 62 Z M891 618 C1098 618 1177 520 1177 396 C1177 234 1069 82 791 82 L591 82 L688 618 L891 618 Z M82 302 C82 463 192 618 467 618 L666 618 L569 82 L367 82 C160 82 82 177 82 302 L82 302 Z " />
<glyph glyph-name="uni0425" unicode="&#x425;" horiz-adv-x="1179" d="M105 700 L573 351 L-25 0 L15 0 L591 340 L1049 0 L1085 0 L611 351 L1205 700 L1165 700 L592 362 L141 700 L105 700 Z " />
<glyph glyph-name="uni0426" unicode="&#x426;" horiz-adv-x="1245" d="M1014 20 L90 20 L212 700 L190 700 L65 0 L1093 0 L1065 -150 L1087 -150 L1118 20 L1036 20 L1158 700 L1136 700 L1014 20 Z " />
<glyph glyph-name="uni0427" unicode="&#x427;" horiz-adv-x="1177" d="M132 700 L92 480 C74 379 105 300 264 300 L1023 300 L970 0 L992 0 L1117 700 L1095 700 L1027 320 L269 320 C124 320 98 390 114 480 L154 700 L132 700 Z " />
<glyph glyph-name="uni0428" unicode="&#x428;" horiz-adv-x="1535" d="M1331 20 L721 20 L843 700 L821 700 L699 20 L90 20 L212 700 L190 700 L65 0 L1350 0 L1476 700 L1454 700 L1331 20 Z " />
<glyph glyph-name="uni0429" unicode="&#x429;" horiz-adv-x="1529" d="M1297 20 L704 20 L826 700 L804 700 L682 20 L90 20 L212 700 L190 700 L65 0 L1377 0 L1349 -150 L1371 -150 L1402 20 L1319 20 L1441 700 L1419 700 L1297 20 Z " />
<glyph glyph-name="uni042A" unicode="&#x42a;" horiz-adv-x="1300" d="M274 0 L958 0 C1161 0 1241 107 1241 231 C1241 325 1185 400 1030 400 L368 400 L421 700 L102 700 L99 680 L396 680 L274 0 Z M365 380 L1025 380 C1167 380 1218 312 1218 228 C1218 118 1143 20 958 20 L300 20 L365 380 Z " />
<glyph glyph-name="uni042B" unicode="&#x42b;" horiz-adv-x="1419" d="M1213 0 L1235 0 L1360 700 L1338 700 L1213 0 Z M212 700 L190 700 L65 0 L807 0 C1010 0 1090 107 1090 231 C1090 325 1034 400 879 400 L159 400 L212 700 Z M155 380 L874 380 C1016 380 1067 312 1067 228 C1067 118 992 20 807 20 L91 20 L155 380 Z " />
<glyph glyph-name="uni042C" unicode="&#x42c;" horiz-adv-x="1148" d="M212 700 L190 700 L65 0 L807 0 C1010 0 1090 107 1090 231 C1090 325 1034 400 879 400 L159 400 L212 700 Z M155 380 L874 380 C1016 380 1067 312 1067 228 C1067 118 992 20 807 20 L91 20 L155 380 Z " />
<glyph glyph-name="uni042D" unicode="&#x42d;" horiz-adv-x="1137" d="M1043 402 C1043 388 1042 374 1040 360 L186 360 L182 340 L1038 340 C1013 166 875 20 578 20 L27 20 L23 0 L579 0 C925 0 1066 193 1066 404 C1066 570 964 700 696 700 L148 700 L145 680 L693 680 C949 680 1043 558 1043 402 L1043 402 Z " />
<glyph glyph-name="uni042E" unicode="&#x42e;" horiz-adv-x="1804" d="M1236 -10 C1598 -10 1733 194 1733 414 C1733 581 1626 710 1356 710 L1131 710 C811 710 664 550 637 360 L151 360 L212 700 L190 700 L65 0 L87 0 L146 340 L634 340 C633 324 632 309 632 293 C632 122 738 -10 1011 -10 L1236 -10 Z M1015 10 C751 10 655 134 655 296 C655 501 792 690 1134 690 L1352 690 C1614 690 1710 568 1710 408 C1710 204 1581 10 1234 10 L1015 10 Z " />
<glyph glyph-name="uni042F" unicode="&#x42f;" horiz-adv-x="1224" d="M1165 700 L442 700 C239 700 159 593 159 469 C159 375 215 300 370 300 L554 300 L-48 0 L-2 0 L598 300 L1071 300 L1017 0 L1039 0 L1165 700 Z M182 472 C182 582 257 680 442 680 L1140 680 L1075 320 L375 320 C233 320 182 388 182 472 L182 472 Z " />
<glyph glyph-name="uni0430" unicode="&#x430;" horiz-adv-x="1033" d="M929 0 L955 0 L569 560 L543 560 L-42 0 L-12 0 L122 129 L840 129 L929 0 Z M555 543 L826 149 L143 149 L555 543 Z " />
<glyph glyph-name="uni0431" unicode="&#x431;" horiz-adv-x="1022" d="M55 0 L712 0 C872 0 922 86 922 170 C922 238 881 290 764 290 L129 290 L173 540 L936 540 L941 560 L156 560 L55 0 Z M126 270 L760 270 C864 270 899 227 899 168 C899 89 852 20 711 20 L81 20 L126 270 Z " />
<glyph glyph-name="uni0432" unicode="&#x432;" horiz-adv-x="1042" d="M55 0 L724 0 C884 0 932 82 932 170 C932 226 901 272 820 283 C912 307 940 379 940 442 C940 508 900 560 783 560 L154 560 L55 0 Z M725 20 L80 20 L125 270 L769 270 C875 270 909 225 909 167 C908 88 864 20 725 20 L725 20 Z M780 540 C885 540 918 496 918 435 C918 362 877 290 742 290 L129 290 L173 540 L780 540 Z " />
<glyph glyph-name="uni0433" unicode="&#x433;" horiz-adv-x="948" d="M55 0 L77 0 L173 540 L936 540 L939 560 L154 560 L55 0 Z " />
<glyph glyph-name="uni0434" unicode="&#x434;" horiz-adv-x="1044" d="M11 0 L897 0 L874 -120 L896 -120 L922 20 L851 20 L947 560 L319 560 L182 135 C161 70 121 20 11 20 L-8 20 L-34 -120 L-12 -120 L11 0 Z M335 540 L923 540 L829 20 L104 20 C162 40 185 78 202 128 L335 540 Z " />
<glyph glyph-name="uni0435" unicode="&#x435;" horiz-adv-x="994" d="M55 0 L856 0 L859 20 L80 20 L124 270 L820 270 L824 290 L129 290 L173 540 L952 540 L955 560 L154 560 L55 0 Z " />
<glyph glyph-name="uni0436" unicode="&#x436;" horiz-adv-x="1332" d="M857 280 L1292 560 L1256 560 L838 290 L669 290 L716 560 L695 560 L647 290 L475 290 L151 560 L119 560 L454 280 L-29 0 L11 0 L476 270 L643 270 L595 0 L617 0 L664 270 L835 270 L1206 0 L1242 0 L857 280 Z " />
<glyph glyph-name="uni0437" unicode="&#x437;" horiz-adv-x="1046" d="M9 0 L730 0 C890 0 938 82 938 170 C938 226 907 272 826 283 C918 307 946 379 946 442 C946 508 906 560 789 560 L127 560 L122 540 L786 540 C891 540 924 496 924 435 C924 362 883 290 748 290 L148 290 L146 270 L775 270 C881 270 915 225 915 167 C914 88 870 20 731 20 L13 20 L9 0 Z " />
<glyph glyph-name="uni0438" unicode="&#x438;" horiz-adv-x="1081" d="M979 534 L884 0 L906 0 L1005 560 L985 560 L81 26 L176 560 L154 560 L55 0 L75 0 L979 534 Z " />
<glyph glyph-name="uni0439" unicode="&#x439;" horiz-adv-x="1081" d="M598 675 C507 675 484 728 489 786 L476 786 C470 721 494 654 595 654 C695 654 742 721 759 786 L744 786 C729 728 689 675 598 675 L598 675 Z M979 534 L884 0 L906 0 L1005 560 L985 560 L81 26 L176 560 L154 560 L55 0 L75 0 L979 534 Z " />
<glyph glyph-name="uni043A" unicode="&#x43a;" horiz-adv-x="1063" d="M491 280 L1016 560 L974 560 L468 290 L129 290 L176 560 L154 560 L55 0 L77 0 L124 270 L467 270 L941 0 L984 0 L491 280 Z " />
<glyph glyph-name="uni043B" unicode="&#x43b;" horiz-adv-x="1053" d="M952 540 L856 0 L878 0 L977 560 L319 560 L182 134 C161 68 130 20 22 20 L-8 20 L-11 0 L22 0 C144 0 179 56 202 127 L335 540 L952 540 Z " />
<glyph glyph-name="uni043C" unicode="&#x43c;" horiz-adv-x="1196" d="M1096 560 L546 60 L172 560 L154 560 L55 0 L76 0 L171 529 L543 30 L1094 529 L999 0 L1021 0 L1120 560 L1096 560 Z " />
<glyph glyph-name="uni043D" unicode="&#x43d;" horiz-adv-x="1084" d="M887 0 L909 0 L1008 560 L986 560 L939 290 L129 290 L176 560 L154 560 L55 0 L77 0 L124 270 L934 270 L887 0 Z " />
<glyph glyph-name="uni043E" unicode="&#x43e;" horiz-adv-x="1111" d="M612 -8 C917 -8 1033 152 1033 326 C1033 461 951 568 716 568 L477 568 C172 568 58 408 58 234 C58 99 138 -8 373 -8 L612 -8 Z M377 12 C158 12 80 109 80 231 C80 396 188 548 481 548 L713 548 C933 548 1010 450 1010 327 C1010 165 904 12 609 12 L377 12 Z " />
<glyph glyph-name="uni043F" unicode="&#x43f;" horiz-adv-x="1084" d="M887 0 L909 0 L1008 560 L154 560 L55 0 L77 0 L173 540 L983 540 L887 0 Z " />
<glyph glyph-name="uni0440" unicode="&#x440;" horiz-adv-x="1001" d="M55 0 L77 0 L119 238 L732 238 C911 238 967 329 967 426 C967 500 920 560 790 560 L154 560 L55 0 Z M786 540 C904 540 944 489 944 422 C944 338 892 258 735 258 L123 258 L173 540 L786 540 Z " />
<glyph glyph-name="uni0441" unicode="&#x441;" horiz-adv-x="976" d="M81 235 C81 389 180 540 465 540 L936 540 L941 560 L466 560 C165 560 58 400 58 232 C58 102 140 0 365 0 L840 0 L843 20 L367 20 C155 20 81 114 81 235 L81 235 Z " />
<glyph glyph-name="uni0442" unicode="&#x442;" horiz-adv-x="1001" d="M85 540 L526 540 L429 0 L451 0 L547 540 L989 540 L992 560 L88 560 L85 540 Z " />
<glyph glyph-name="uni0443" unicode="&#x443;" horiz-adv-x="1019" d="M258 0 L1052 560 L1017 560 L483 182 L80 560 L49 560 L466 170 L223 0 L258 0 Z " />
<glyph glyph-name="uni0444" unicode="&#x444;" horiz-adv-x="1086" d="M681 50 C932 50 1019 178 1019 319 C1019 425 950 510 763 510 L585 510 L601 600 L579 600 L563 510 L386 510 C136 510 48 379 48 240 C48 132 116 50 304 50 L481 50 L464 -40 L486 -40 L503 50 L681 50 Z M760 490 C934 490 994 414 994 317 C994 189 917 70 681 70 L506 70 L581 490 L760 490 Z M306 70 C132 70 72 146 72 243 C72 371 149 490 385 490 L560 490 L485 70 L306 70 Z " />
<glyph glyph-name="uni0445" unicode="&#x445;" horiz-adv-x="1026" d="M84 560 L484 282 L-19 0 L21 0 L502 269 L889 0 L925 0 L521 282 L1021 560 L980 560 L503 293 L119 560 L84 560 Z " />
<glyph glyph-name="uni0446" unicode="&#x446;" horiz-adv-x="1074" d="M859 20 L80 20 L176 560 L154 560 L55 0 L927 0 L904 -120 L926 -120 L952 20 L881 20 L977 560 L955 560 L859 20 Z " />
<glyph glyph-name="uni0447" unicode="&#x447;" horiz-adv-x="1017" d="M865 258 L214 258 C96 258 81 308 94 383 L125 560 L103 560 L72 383 C58 302 76 238 212 238 L861 238 L820 0 L842 0 L941 560 L919 560 L865 258 Z " />
<glyph glyph-name="uni0448" unicode="&#x448;" horiz-adv-x="1324" d="M1130 20 L615 20 L712 560 L690 560 L593 20 L80 20 L176 560 L154 560 L55 0 L1149 0 L1248 560 L1226 560 L1130 20 Z " />
<glyph glyph-name="uni0449" unicode="&#x449;" horiz-adv-x="1315" d="M1100 20 L601 20 L697 560 L675 560 L579 20 L80 20 L176 560 L154 560 L55 0 L1168 0 L1145 -120 L1167 -120 L1193 20 L1122 20 L1218 560 L1196 560 L1100 20 Z " />
<glyph glyph-name="uni044A" unicode="&#x44a;" horiz-adv-x="1139" d="M362 560 L88 560 L85 540 L338 540 L241 0 L827 0 C1006 0 1062 91 1062 188 C1062 262 1015 322 885 322 L320 322 L362 560 Z M317 302 L881 302 C999 302 1039 251 1039 184 C1039 100 987 20 830 20 L266 20 L317 302 Z " />
<glyph glyph-name="uni044B" unicode="&#x44b;" horiz-adv-x="1253" d="M1056 0 L1078 0 L1177 560 L1155 560 L1056 0 Z M690 0 C869 0 925 91 925 188 C925 262 878 322 748 322 L134 322 L176 560 L154 560 L55 0 L690 0 Z M693 20 L80 20 L131 302 L744 302 C862 302 902 251 902 184 C902 100 850 20 693 20 L693 20 Z " />
<glyph glyph-name="uni044C" unicode="&#x44c;" horiz-adv-x="1001" d="M690 0 C869 0 925 91 925 188 C925 262 878 322 748 322 L134 322 L176 560 L154 560 L55 0 L690 0 Z M693 20 L80 20 L131 302 L744 302 C862 302 902 251 902 184 C902 100 850 20 693 20 L693 20 Z " />
<glyph glyph-name="uni044D" unicode="&#x44d;" horiz-adv-x="977" d="M876 325 C876 314 876 302 875 290 L154 290 L149 270 L872 270 C850 137 743 20 492 20 L21 20 L16 0 L491 0 C792 0 899 160 899 328 C899 458 817 560 592 560 L117 560 L114 540 L590 540 C802 540 876 446 876 325 L876 325 Z " />
<glyph glyph-name="uni044E" unicode="&#x44e;" horiz-adv-x="1548" d="M1050 -8 C1355 -8 1471 152 1471 326 C1471 461 1389 568 1154 568 L955 568 C683 568 563 441 540 290 L129 290 L176 560 L154 560 L55 0 L77 0 L124 270 L538 270 C537 258 536 246 536 234 C536 99 616 -8 851 -8 L1050 -8 Z M855 12 C636 12 558 109 558 231 C558 396 666 548 959 548 L1151 548 C1371 548 1448 450 1448 327 C1448 165 1342 12 1047 12 L855 12 Z " />
<glyph glyph-name="uni044F" unicode="&#x44f;" horiz-adv-x="1061" d="M987 560 L366 560 C186 560 131 469 131 372 C131 298 178 238 308 238 L464 238 L-39 0 L7 0 L508 238 L906 238 L864 0 L886 0 L987 560 Z M960 540 L910 258 L312 258 C194 258 154 309 154 376 C154 460 206 540 363 540 L960 540 Z " />
<glyph glyph-name="uni0450" unicode="&#x450;" horiz-adv-x="994" d="M55 0 L856 0 L859 20 L80 20 L124 270 L820 270 L824 290 L129 290 L173 540 L952 540 L955 560 L154 560 L55 0 Z M526 806 L492 806 L593 635 L606 635 L526 806 Z " />
<glyph glyph-name="uni0451" unicode="&#x451;" horiz-adv-x="994" d="M55 0 L856 0 L859 20 L80 20 L124 270 L820 270 L824 290 L129 290 L173 540 L952 540 L955 560 L154 560 L55 0 Z M666 700 L706 700 L713 741 L673 741 L666 700 Z M436 700 L476 700 L483 741 L443 741 L436 700 Z " />
<glyph glyph-name="uni0452" unicode="&#x452;" horiz-adv-x="1139" d="M542 0 L849 0 C1009 0 1059 86 1059 170 C1059 238 1018 290 901 290 L315 290 L360 540 L828 540 L833 560 L90 560 L85 540 L338 540 L241 0 L263 0 L312 270 L897 270 C1001 270 1036 227 1036 168 C1036 89 989 20 848 20 L546 20 L542 0 Z " />
<glyph glyph-name="uni0453" unicode="&#x453;" horiz-adv-x="948" d="M55 0 L77 0 L173 540 L936 540 L939 560 L154 560 L55 0 Z M514 635 L530 635 L693 806 L656 806 L514 635 Z " />
<glyph glyph-name="uni0454" unicode="&#x454;" horiz-adv-x="977" d="M81 235 C81 246 81 258 82 270 L803 270 L808 290 L85 290 C107 423 214 540 465 540 L936 540 L941 560 L466 560 C165 560 58 400 58 232 C58 102 140 0 365 0 L840 0 L843 20 L367 20 C155 20 81 114 81 235 L81 235 Z " />
<glyph glyph-name="uni0455" unicode="&#x455;" horiz-adv-x="993" d="M681 20 L46 20 L42 0 L682 0 C842 0 892 86 892 170 C892 238 851 290 734 290 L242 290 C139 290 104 333 104 392 C104 471 151 540 292 540 L927 540 L932 560 L291 560 C131 560 81 474 81 390 C81 322 122 270 239 270 L730 270 C834 270 869 227 869 168 C869 89 822 20 681 20 L681 20 Z " />
<glyph glyph-name="uni0456" unicode="&#x456;" horiz-adv-x="252" d="M55 0 L77 0 L176 560 L154 560 L55 0 Z " />
<glyph glyph-name="uni0457" unicode="&#x457;" horiz-adv-x="252" d="M55 0 L77 0 L176 560 L154 560 L55 0 Z M284 700 L324 700 L331 741 L291 741 L284 700 Z M54 700 L94 700 L101 741 L61 741 L54 700 Z " />
<glyph glyph-name="uni0458" unicode="&#x458;" horiz-adv-x="1002" d="M261 -4 L523 -4 C779 -4 863 91 891 248 L946 560 L924 560 L871 262 C844 112 775 16 527 16 L264 16 C72 16 25 102 47 217 L53 249 L32 249 L26 220 C1 99 53 -4 261 -4 L261 -4 Z " />
<glyph glyph-name="uni0459" unicode="&#x459;" horiz-adv-x="1553" d="M802 322 L845 560 L319 560 L182 134 C161 68 130 20 22 20 L-8 20 L-11 0 L22 0 C144 0 179 56 202 127 L335 540 L820 540 L724 0 L1242 0 C1421 0 1477 91 1477 188 C1477 262 1430 322 1300 322 L802 322 Z M1245 20 L749 20 L800 302 L1296 302 C1414 302 1454 251 1454 184 C1454 100 1402 20 1245 20 L1245 20 Z " />
<glyph glyph-name="uni045A" unicode="&#x45a;" horiz-adv-x="1556" d="M848 560 L826 560 L783 322 L134 322 L176 560 L154 560 L55 0 L77 0 L131 302 L781 302 L727 0 L1245 0 C1424 0 1480 91 1480 188 C1480 262 1433 322 1303 322 L805 322 L848 560 Z M1248 20 L752 20 L802 302 L1299 302 C1417 302 1457 251 1457 184 C1457 100 1405 20 1248 20 L1248 20 Z " />
<glyph glyph-name="uni045B" unicode="&#x45b;" horiz-adv-x="1155" d="M310 270 L914 270 C1032 270 1047 220 1034 145 L1009 0 L1031 0 L1056 145 C1070 226 1052 290 916 290 L315 290 L360 540 L828 540 L831 560 L88 560 L85 540 L338 540 L241 0 L263 0 L310 270 Z " />
<glyph glyph-name="uni045C" unicode="&#x45c;" horiz-adv-x="1063" d="M478 635 L494 635 L657 806 L620 806 L478 635 Z M491 280 L1016 560 L974 560 L468 290 L129 290 L176 560 L154 560 L55 0 L77 0 L124 270 L467 270 L941 0 L984 0 L491 280 Z " />
<glyph glyph-name="uni045D" unicode="&#x45d;" horiz-adv-x="1081" d="M557 806 L523 806 L624 635 L637 635 L557 806 Z M979 534 L884 0 L906 0 L1005 560 L985 560 L81 26 L176 560 L154 560 L55 0 L75 0 L979 534 Z " />
<glyph glyph-name="uni045E" unicode="&#x45e;" horiz-adv-x="1019" d="M573 675 C482 675 459 728 464 786 L451 786 C445 721 469 654 570 654 C670 654 717 721 734 786 L719 786 C704 728 664 675 573 675 L573 675 Z M258 0 L1052 560 L1017 560 L483 182 L80 560 L49 560 L466 170 L223 0 L258 0 Z " />
<glyph glyph-name="uni045F" unicode="&#x45f;" horiz-adv-x="1084" d="M890 20 L80 20 L176 560 L154 560 L55 0 L472 0 L448 -120 L470 -120 L493 0 L909 0 L1008 560 L986 560 L890 20 Z " />
<glyph glyph-name="uni0490" unicode="&#x490;" horiz-adv-x="1084" d="M1091 700 L190 700 L65 0 L87 0 L207 680 L1108 680 L1139 850 L1117 850 L1091 700 Z " />
<glyph glyph-name="uni0491" unicode="&#x491;" horiz-adv-x="948" d="M917 560 L154 560 L55 0 L77 0 L173 540 L936 540 L960 680 L938 680 L917 560 Z " />
<glyph glyph-name="uni1E00" unicode="&#x1e00;" horiz-adv-x="1206" d="M1103 0 L1129 0 L681 700 L655 700 L-43 0 L-13 0 L143 157 L1003 157 L1103 0 Z M666 684 L990 177 L163 177 L666 684 Z M427 -167 C427 -117 472 -75 522 -75 C567 -75 598 -109 598 -153 C598 -204 554 -246 504 -246 C459 -246 427 -212 427 -167 L427 -167 Z M408 -171 C408 -224 447 -265 501 -265 C562 -265 617 -213 617 -150 C617 -97 578 -56 523 -56 C462 -56 408 -106 408 -171 L408 -171 Z " />
<glyph glyph-name="uni1E01" unicode="&#x1e01;" horiz-adv-x="1033" d="M929 0 L955 0 L569 560 L543 560 L-42 0 L-12 0 L122 129 L840 129 L929 0 Z M555 543 L826 149 L143 149 L555 543 Z M340 -167 C340 -117 385 -75 435 -75 C480 -75 511 -109 511 -153 C511 -204 467 -246 417 -246 C372 -246 340 -212 340 -167 L340 -167 Z M321 -171 C321 -224 360 -265 414 -265 C475 -265 530 -213 530 -150 C530 -97 491 -56 436 -56 C375 -56 321 -106 321 -171 L321 -171 Z " />
<glyph glyph-name="uni1E02" unicode="&#x1e02;" horiz-adv-x="1209" d="M65 0 L846 0 C1028 0 1100 100 1100 210 C1100 282 1057 340 961 354 C1065 383 1113 458 1113 556 C1113 636 1060 700 923 700 L190 700 L65 0 Z M902 340 C1031 340 1077 282 1077 208 C1077 109 1010 20 847 20 L91 20 L147 340 L902 340 Z M1090 547 C1090 456 1029 360 869 360 L151 360 L208 680 L917 680 C1042 680 1090 621 1090 547 L1090 547 Z M648 840 L688 840 L694 881 L654 881 L648 840 Z " />
<glyph glyph-name="uni1E03" unicode="&#x1e03;" horiz-adv-x="1042" d="M55 0 L724 0 C884 0 932 82 932 170 C932 226 901 272 820 283 C912 307 940 379 940 442 C940 508 900 560 783 560 L154 560 L55 0 Z M725 20 L80 20 L125 270 L769 270 C875 270 909 225 909 167 C908 88 864 20 725 20 L725 20 Z M780 540 C885 540 918 496 918 435 C918 362 877 290 742 290 L129 290 L173 540 L780 540 Z M540 700 L580 700 L586 741 L546 741 L540 700 Z " />
<glyph glyph-name="uni1E04" unicode="&#x1e04;" horiz-adv-x="1209" d="M65 0 L846 0 C1028 0 1100 100 1100 210 C1100 282 1057 340 961 354 C1065 383 1113 458 1113 556 C1113 636 1060 700 923 700 L190 700 L65 0 Z M902 340 C1031 340 1077 282 1077 208 C1077 109 1010 20 847 20 L91 20 L147 340 L902 340 Z M1090 547 C1090 456 1029 360 869 360 L151 360 L208 680 L917 680 C1042 680 1090 621 1090 547 L1090 547 Z M506 -181 L546 -181 L552 -140 L512 -140 L506 -181 Z " />
<glyph glyph-name="uni1E05" unicode="&#x1e05;" horiz-adv-x="1042" d="M55 0 L724 0 C884 0 932 82 932 170 C932 226 901 272 820 283 C912 307 940 379 940 442 C940 508 900 560 783 560 L154 560 L55 0 Z M725 20 L80 20 L125 270 L769 270 C875 270 909 225 909 167 C908 88 864 20 725 20 L725 20 Z M780 540 C885 540 918 496 918 435 C918 362 877 290 742 290 L129 290 L173 540 L780 540 Z M423 -181 L463 -181 L469 -140 L429 -140 L423 -181 Z " />
<glyph glyph-name="uni1E06" unicode="&#x1e06;" horiz-adv-x="1209" d="M65 0 L846 0 C1028 0 1100 100 1100 210 C1100 282 1057 340 961 354 C1065 383 1113 458 1113 556 C1113 636 1060 700 923 700 L190 700 L65 0 Z M902 340 C1031 340 1077 282 1077 208 C1077 109 1010 20 847 20 L91 20 L147 340 L902 340 Z M1090 547 C1090 456 1029 360 869 360 L151 360 L208 680 L917 680 C1042 680 1090 621 1090 547 L1090 547 Z M347 -170 L709 -170 L712 -152 L350 -152 L347 -170 Z " />
<glyph glyph-name="uni1E07" unicode="&#x1e07;" horiz-adv-x="1042" d="M55 0 L724 0 C884 0 932 82 932 170 C932 226 901 272 820 283 C912 307 940 379 940 442 C940 508 900 560 783 560 L154 560 L55 0 Z M725 20 L80 20 L125 270 L769 270 C875 270 909 225 909 167 C908 88 864 20 725 20 L725 20 Z M780 540 C885 540 918 496 918 435 C918 362 877 290 742 290 L129 290 L173 540 L780 540 Z M264 -170 L626 -170 L629 -152 L267 -152 L264 -170 Z " />
<glyph glyph-name="uni1E08" unicode="&#x1e08;" horiz-adv-x="1137" d="M509 -84 L521 -84 C587 -84 624 -99 624 -142 C624 -199 567 -219 513 -219 C476 -219 439 -211 422 -202 L420 -215 C443 -228 479 -237 515 -237 C580 -237 646 -212 646 -139 C646 -78 584 -63 532 -68 L563 0 L992 0 L995 20 L447 20 C191 20 97 142 97 298 C97 497 230 680 562 680 L1113 680 L1117 700 L561 700 C215 700 74 507 74 296 C74 130 176 0 444 0 L548 0 L509 -84 Z M646 775 L662 775 L825 946 L788 946 L646 775 Z " />
<glyph glyph-name="uni1E09" unicode="&#x1e09;" horiz-adv-x="976" d="M420 -84 L432 -84 C498 -84 535 -99 535 -142 C535 -199 478 -219 424 -219 C387 -219 350 -211 333 -202 L331 -215 C354 -228 390 -237 426 -237 C491 -237 557 -212 557 -139 C557 -78 495 -63 443 -68 L474 0 L840 0 L843 20 L367 20 C155 20 81 114 81 235 C81 389 180 540 465 540 L936 540 L941 560 L466 560 C165 560 58 400 58 232 C58 102 140 0 365 0 L459 0 L420 -84 Z M533 635 L549 635 L712 806 L675 806 L533 635 Z " />
<glyph glyph-name="uni1E0A" unicode="&#x1e0a;" horiz-adv-x="1205" d="M65 0 L647 0 C994 0 1134 193 1134 404 C1134 569 1032 700 764 700 L190 700 L65 0 Z M761 680 C1016 680 1111 557 1111 402 C1111 203 978 20 646 20 L90 20 L207 680 L761 680 Z M655 840 L695 840 L701 881 L661 881 L655 840 Z " />
<glyph glyph-name="uni1E0B" unicode="&#x1e0b;" horiz-adv-x="1039" d="M55 0 L554 0 C855 0 962 160 962 328 C962 458 880 560 655 560 L155 560 L55 0 Z M653 540 C865 540 939 446 939 325 C939 171 840 20 555 20 L81 20 L172 540 L653 540 Z M554 700 L594 700 L600 741 L560 741 L554 700 Z " />
<glyph glyph-name="uni1E0C" unicode="&#x1e0c;" horiz-adv-x="1205" d="M65 0 L647 0 C994 0 1134 193 1134 404 C1134 569 1032 700 764 700 L190 700 L65 0 Z M761 680 C1016 680 1111 557 1111 402 C1111 203 978 20 646 20 L90 20 L207 680 L761 680 Z M475 -181 L515 -181 L521 -140 L481 -140 L475 -181 Z " />
<glyph glyph-name="uni1E0D" unicode="&#x1e0d;" horiz-adv-x="1039" d="M55 0 L554 0 C855 0 962 160 962 328 C962 458 880 560 655 560 L155 560 L55 0 Z M653 540 C865 540 939 446 939 325 C939 171 840 20 555 20 L81 20 L172 540 L653 540 Z M398 -181 L438 -181 L444 -140 L404 -140 L398 -181 Z " />
<glyph glyph-name="uni1E0E" unicode="&#x1e0e;" horiz-adv-x="1205" d="M65 0 L647 0 C994 0 1134 193 1134 404 C1134 569 1032 700 764 700 L190 700 L65 0 Z M761 680 C1016 680 1111 557 1111 402 C1111 203 978 20 646 20 L90 20 L207 680 L761 680 Z M316 -170 L678 -170 L681 -152 L319 -152 L316 -170 Z " />
<glyph glyph-name="uni1E0F" unicode="&#x1e0f;" horiz-adv-x="1039" d="M55 0 L554 0 C855 0 962 160 962 328 C962 458 880 560 655 560 L155 560 L55 0 Z M653 540 C865 540 939 446 939 325 C939 171 840 20 555 20 L81 20 L172 540 L653 540 Z M239 -170 L601 -170 L604 -152 L242 -152 L239 -170 Z " />
<glyph glyph-name="uni1E10" unicode="&#x1e10;" horiz-adv-x="1205" d="M65 0 L647 0 C994 0 1134 193 1134 404 C1134 569 1032 700 764 700 L190 700 L65 0 Z M761 680 C1016 680 1111 557 1111 402 C1111 203 978 20 646 20 L90 20 L207 680 L761 680 Z M475 -181 L497 -181 L464 -260 L477 -260 L514 -181 L521 -140 L482 -140 L475 -181 Z " />
<glyph glyph-name="uni1E11" unicode="&#x1e11;" horiz-adv-x="1039" d="M55 0 L554 0 C855 0 962 160 962 328 C962 458 880 560 655 560 L155 560 L55 0 Z M653 540 C865 540 939 446 939 325 C939 171 840 20 555 20 L81 20 L172 540 L653 540 Z M398 -181 L420 -181 L387 -260 L400 -260 L437 -181 L444 -140 L405 -140 L398 -181 Z " />
<glyph glyph-name="uni1E12" unicode="&#x1e12;" horiz-adv-x="1205" d="M65 0 L647 0 C994 0 1134 193 1134 404 C1134 569 1032 700 764 700 L190 700 L65 0 Z M761 680 C1016 680 1111 557 1111 402 C1111 203 978 20 646 20 L90 20 L207 680 L761 680 Z M340 -246 L356 -246 L512 -94 L613 -246 L626 -246 L532 -75 L498 -75 L340 -246 Z " />
<glyph glyph-name="uni1E13" unicode="&#x1e13;" horiz-adv-x="1039" d="M55 0 L554 0 C855 0 962 160 962 328 C962 458 880 560 655 560 L155 560 L55 0 Z M653 540 C865 540 939 446 939 325 C939 171 840 20 555 20 L81 20 L172 540 L653 540 Z M263 -246 L279 -246 L435 -94 L536 -246 L549 -246 L455 -75 L421 -75 L263 -246 Z " />
<glyph glyph-name="uni1E14" unicode="&#x1e14;" horiz-adv-x="1151" d="M65 0 L1007 0 L1010 20 L90 20 L146 340 L968 340 L973 360 L151 360 L207 680 L1127 680 L1132 700 L190 700 L65 0 Z M656 1111 L622 1111 L723 940 L736 940 L656 1111 Z M494 851 L856 851 L859 869 L497 869 L494 851 Z " />
<glyph glyph-name="uni1E15" unicode="&#x1e15;" horiz-adv-x="994" d="M55 0 L856 0 L859 20 L80 20 L124 270 L820 270 L824 290 L129 290 L173 540 L952 540 L955 560 L154 560 L55 0 Z M555 971 L521 971 L622 800 L635 800 L555 971 Z M393 711 L755 711 L758 729 L396 729 L393 711 Z " />
<glyph glyph-name="uni1E16" unicode="&#x1e16;" horiz-adv-x="1151" d="M65 0 L1007 0 L1010 20 L90 20 L146 340 L968 340 L973 360 L151 360 L207 680 L1127 680 L1132 700 L190 700 L65 0 Z M645 940 L661 940 L824 1111 L787 1111 L645 940 Z M494 851 L856 851 L859 869 L497 869 L494 851 Z " />
<glyph glyph-name="uni1E17" unicode="&#x1e17;" horiz-adv-x="994" d="M55 0 L856 0 L859 20 L80 20 L124 270 L820 270 L824 290 L129 290 L173 540 L952 540 L955 560 L154 560 L55 0 Z M544 800 L560 800 L723 971 L686 971 L544 800 Z M393 711 L755 711 L758 729 L396 729 L393 711 Z " />
<glyph glyph-name="uni1E18" unicode="&#x1e18;" horiz-adv-x="1151" d="M65 0 L1007 0 L1010 20 L90 20 L146 340 L968 340 L973 360 L151 360 L207 680 L1127 680 L1132 700 L190 700 L65 0 Z M338 -246 L354 -246 L510 -94 L611 -246 L624 -246 L530 -75 L496 -75 L338 -246 Z " />
<glyph glyph-name="uni1E19" unicode="&#x1e19;" horiz-adv-x="994" d="M55 0 L856 0 L859 20 L80 20 L124 270 L820 270 L824 290 L129 290 L173 540 L952 540 L955 560 L154 560 L55 0 Z M261 -246 L277 -246 L433 -94 L534 -246 L547 -246 L453 -75 L419 -75 L261 -246 Z " />
<glyph glyph-name="uni1E1A" unicode="&#x1e1a;" horiz-adv-x="1151" d="M65 0 L1007 0 L1010 20 L90 20 L146 340 L968 340 L973 360 L151 360 L207 680 L1127 680 L1132 700 L190 700 L65 0 Z M649 -102 C625 -179 599 -188 569 -188 C516 -188 492 -111 428 -111 C389 -111 357 -131 330 -219 L344 -219 C367 -142 396 -132 426 -132 C478 -132 501 -209 564 -209 C604 -209 637 -189 663 -102 L649 -102 Z " />
<glyph glyph-name="uni1E1B" unicode="&#x1e1b;" horiz-adv-x="994" d="M55 0 L856 0 L859 20 L80 20 L124 270 L820 270 L824 290 L129 290 L173 540 L952 540 L955 560 L154 560 L55 0 Z M572 -102 C548 -179 522 -188 492 -188 C439 -188 415 -111 351 -111 C312 -111 280 -131 253 -219 L267 -219 C290 -142 319 -132 349 -132 C401 -132 424 -209 487 -209 C527 -209 560 -189 586 -102 L572 -102 Z " />
<glyph glyph-name="uni1E1C" unicode="&#x1e1c;" horiz-adv-x="1151" d="M65 0 L518 0 L479 -84 L491 -84 C557 -84 594 -99 594 -142 C594 -199 537 -219 483 -219 C446 -219 409 -211 392 -202 L390 -215 C413 -228 449 -237 485 -237 C550 -237 616 -212 616 -139 C616 -78 554 -63 502 -68 L533 0 L1007 0 L1010 20 L90 20 L146 340 L968 340 L973 360 L151 360 L207 680 L1127 680 L1132 700 L190 700 L65 0 Z M668 815 C577 815 554 868 559 926 L546 926 C540 861 564 794 665 794 C765 794 812 861 829 926 L814 926 C799 868 759 815 668 815 L668 815 Z " />
<glyph glyph-name="uni1E1D" unicode="&#x1e1d;" horiz-adv-x="994" d="M55 0 L441 0 L402 -84 L414 -84 C480 -84 517 -99 517 -142 C517 -199 460 -219 406 -219 C369 -219 332 -211 315 -202 L313 -215 C336 -228 372 -237 408 -237 C473 -237 539 -212 539 -139 C539 -78 477 -63 425 -68 L456 0 L856 0 L859 20 L80 20 L124 270 L820 270 L824 290 L129 290 L173 540 L952 540 L955 560 L154 560 L55 0 Z M567 675 C476 675 453 728 458 786 L445 786 C439 721 463 654 564 654 C664 654 711 721 728 786 L713 786 C698 728 658 675 567 675 L567 675 Z " />
<glyph glyph-name="uni1E1E" unicode="&#x1e1e;" horiz-adv-x="1113" d="M65 0 L87 0 L146 340 L968 340 L973 360 L151 360 L207 680 L1127 680 L1132 700 L190 700 L65 0 Z M643 840 L683 840 L689 881 L649 881 L643 840 Z " />
<glyph glyph-name="uni1E1F" unicode="&#x1e1f;" horiz-adv-x="977" d="M55 0 L77 0 L124 270 L820 270 L824 290 L129 290 L173 540 L952 540 L955 560 L154 560 L55 0 Z M546 700 L586 700 L592 741 L552 741 L546 700 Z " />
<glyph glyph-name="uni1E20" unicode="&#x1e20;" horiz-adv-x="1206" d="M644 340 L1082 340 L1026 20 L447 20 C191 20 97 142 97 298 C97 497 230 680 562 680 L1113 680 L1117 700 L561 700 C215 700 74 507 74 296 C74 130 176 0 444 0 L1045 0 L1109 360 L649 360 L644 340 Z M534 851 L896 851 L899 869 L537 869 L534 851 Z " />
<glyph glyph-name="uni1E21" unicode="&#x1e21;" horiz-adv-x="1039" d="M365 0 L885 0 L937 290 L545 290 L540 270 L910 270 L866 20 L367 20 C155 20 81 114 81 235 C81 389 180 540 465 540 L936 540 L939 560 L466 560 C165 560 58 400 58 232 C58 102 140 0 365 0 L365 0 Z M415 711 L777 711 L780 729 L418 729 L415 711 Z " />
<glyph glyph-name="uni1E22" unicode="&#x1e22;" horiz-adv-x="1253" d="M1046 0 L1068 0 L1193 700 L1171 700 L1110 360 L151 360 L212 700 L190 700 L65 0 L87 0 L146 340 L1105 340 L1046 0 Z M694 840 L734 840 L740 881 L700 881 L694 840 Z " />
<glyph glyph-name="uni1E23" unicode="&#x1e23;" horiz-adv-x="1084" d="M887 0 L909 0 L1008 560 L986 560 L939 290 L129 290 L176 560 L154 560 L55 0 L77 0 L124 270 L934 270 L887 0 Z M585 700 L625 700 L631 741 L591 741 L585 700 Z " />
<glyph glyph-name="uni1E24" unicode="&#x1e24;" horiz-adv-x="1253" d="M1046 0 L1068 0 L1193 700 L1171 700 L1110 360 L151 360 L212 700 L190 700 L65 0 L87 0 L146 340 L1105 340 L1046 0 Z M514 -181 L554 -181 L560 -140 L520 -140 L514 -181 Z " />
<glyph glyph-name="uni1E25" unicode="&#x1e25;" horiz-adv-x="1084" d="M887 0 L909 0 L1008 560 L986 560 L939 290 L129 290 L176 560 L154 560 L55 0 L77 0 L124 270 L934 270 L887 0 Z M429 -181 L469 -181 L475 -140 L435 -140 L429 -181 Z " />
<glyph glyph-name="uni1E26" unicode="&#x1e26;" horiz-adv-x="1253" d="M1046 0 L1068 0 L1193 700 L1171 700 L1110 360 L151 360 L212 700 L190 700 L65 0 L87 0 L146 340 L1105 340 L1046 0 Z M808 840 L848 840 L855 881 L815 881 L808 840 Z M578 840 L618 840 L625 881 L585 881 L578 840 Z " />
<glyph glyph-name="uni1E27" unicode="&#x1e27;" horiz-adv-x="1084" d="M887 0 L909 0 L1008 560 L986 560 L939 290 L129 290 L176 560 L154 560 L55 0 L77 0 L124 270 L934 270 L887 0 Z M699 700 L739 700 L746 741 L706 741 L699 700 Z M469 700 L509 700 L516 741 L476 741 L469 700 Z " />
<glyph glyph-name="uni1E28" unicode="&#x1e28;" horiz-adv-x="1253" d="M29 -84 L41 -84 C107 -84 144 -99 144 -142 C144 -199 87 -219 33 -219 C-4 -219 -41 -211 -58 -202 L-60 -215 C-37 -228 -1 -237 35 -237 C100 -237 166 -212 166 -139 C166 -78 104 -63 52 -68 L83 0 L87 0 L146 340 L1105 340 L1046 0 L1068 0 L1193 700 L1171 700 L1110 360 L151 360 L212 700 L190 700 L65 0 L68 0 L29 -84 Z " />
<glyph glyph-name="uni1E29" unicode="&#x1e29;" horiz-adv-x="1084" d="M20 -84 L32 -84 C98 -84 135 -99 135 -142 C135 -199 78 -219 24 -219 C-13 -219 -50 -211 -67 -202 L-69 -215 C-46 -228 -10 -237 26 -237 C91 -237 157 -212 157 -139 C157 -78 95 -63 43 -68 L74 0 L77 0 L124 270 L934 270 L887 0 L909 0 L1008 560 L986 560 L939 290 L129 290 L176 560 L154 560 L55 0 L59 0 L20 -84 Z " />
<glyph glyph-name="uni1E2A" unicode="&#x1e2a;" horiz-adv-x="1253" d="M1046 0 L1068 0 L1193 700 L1171 700 L1110 360 L151 360 L212 700 L190 700 L65 0 L87 0 L146 340 L1105 340 L1046 0 Z M529 -206 C438 -206 415 -153 420 -95 L407 -95 C401 -160 425 -227 526 -227 C626 -227 673 -160 690 -95 L675 -95 C660 -153 620 -206 529 -206 L529 -206 Z " />
<glyph glyph-name="uni1E2B" unicode="&#x1e2b;" horiz-adv-x="1084" d="M887 0 L909 0 L1008 560 L986 560 L939 290 L129 290 L176 560 L154 560 L55 0 L77 0 L124 270 L934 270 L887 0 Z M444 -206 C353 -206 330 -153 335 -95 L322 -95 C316 -160 340 -227 441 -227 C541 -227 588 -160 605 -95 L590 -95 C575 -153 535 -206 444 -206 L444 -206 Z " />
<glyph glyph-name="uni1E2C" unicode="&#x1e2c;" horiz-adv-x="272" d="M65 0 L87 0 L212 700 L190 700 L65 0 Z M199 -102 C175 -179 149 -188 119 -188 C66 -188 42 -111 -22 -111 C-61 -111 -93 -131 -120 -219 L-106 -219 C-83 -142 -54 -132 -24 -132 C28 -132 51 -209 114 -209 C154 -209 187 -189 213 -102 L199 -102 Z " />
<glyph glyph-name="uni1E2D" unicode="&#x1e2d;" horiz-adv-x="252" d="M55 0 L77 0 L176 560 L154 560 L55 0 Z M190 -102 C166 -179 140 -188 110 -188 C57 -188 33 -111 -31 -111 C-70 -111 -102 -131 -129 -219 L-115 -219 C-92 -142 -63 -132 -33 -132 C19 -132 42 -209 105 -209 C145 -209 178 -189 204 -102 L190 -102 Z " />
<glyph glyph-name="uni1E2E" unicode="&#x1e2e;" horiz-adv-x="272" d="M65 0 L87 0 L212 700 L190 700 L65 0 Z M195 940 L211 940 L374 1111 L337 1111 L195 940 Z M318 840 L358 840 L365 881 L325 881 L318 840 Z M88 840 L128 840 L135 881 L95 881 L88 840 Z " />
<glyph glyph-name="uni1E2F" unicode="&#x1e2f;" horiz-adv-x="252" d="M162 800 L178 800 L341 971 L304 971 L162 800 Z M284 700 L324 700 L331 741 L291 741 L284 700 Z M54 700 L94 700 L101 741 L61 741 L54 700 Z M55 0 L77 0 L176 560 L154 560 L55 0 Z " />
<glyph glyph-name="uni1E30" unicode="&#x1e30;" horiz-adv-x="1229" d="M1194 700 L1147 700 L118 173 L212 700 L190 700 L65 0 L87 0 L112 147 L524 358 L1114 0 L1157 0 L547 369 L1194 700 Z M606 775 L622 775 L785 946 L748 946 L606 775 Z " />
<glyph glyph-name="uni1E31" unicode="&#x1e31;" horiz-adv-x="1062" d="M1014 560 L966 560 L102 143 L176 560 L154 560 L55 0 L77 0 L97 117 L446 285 L942 0 L985 0 L467 295 L1014 560 Z M503 635 L519 635 L682 806 L645 806 L503 635 Z " />
<glyph glyph-name="uni1E32" unicode="&#x1e32;" horiz-adv-x="1229" d="M1194 700 L1147 700 L118 173 L212 700 L190 700 L65 0 L87 0 L112 147 L524 358 L1114 0 L1157 0 L547 369 L1194 700 Z M503 -181 L543 -181 L549 -140 L509 -140 L503 -181 Z " />
<glyph glyph-name="uni1E33" unicode="&#x1e33;" horiz-adv-x="1062" d="M1014 560 L966 560 L102 143 L176 560 L154 560 L55 0 L77 0 L97 117 L446 285 L942 0 L985 0 L467 295 L1014 560 Z M424 -181 L464 -181 L470 -140 L430 -140 L424 -181 Z " />
<glyph glyph-name="uni1E34" unicode="&#x1e34;" horiz-adv-x="1229" d="M1194 700 L1147 700 L118 173 L212 700 L190 700 L65 0 L87 0 L112 147 L524 358 L1114 0 L1157 0 L547 369 L1194 700 Z M344 -170 L706 -170 L709 -152 L347 -152 L344 -170 Z " />
<glyph glyph-name="uni1E35" unicode="&#x1e35;" horiz-adv-x="1062" d="M1014 560 L966 560 L102 143 L176 560 L154 560 L55 0 L77 0 L97 117 L446 285 L942 0 L985 0 L467 295 L1014 560 Z M265 -170 L627 -170 L630 -152 L268 -152 L265 -170 Z " />
<glyph glyph-name="uni1E36" unicode="&#x1e36;" horiz-adv-x="1084" d="M212 700 L190 700 L65 0 L988 0 L990 20 L90 20 L212 700 Z M466 -181 L506 -181 L512 -140 L472 -140 L466 -181 Z " />
<glyph glyph-name="uni1E37" unicode="&#x1e37;" horiz-adv-x="948" d="M176 560 L154 560 L55 0 L840 0 L843 20 L80 20 L176 560 Z M395 -181 L435 -181 L441 -140 L401 -140 L395 -181 Z " />
<glyph glyph-name="uni1E38" unicode="&#x1e38;" horiz-adv-x="1084" d="M212 700 L190 700 L65 0 L988 0 L990 20 L90 20 L212 700 Z M74 851 L436 851 L439 869 L77 869 L74 851 Z M466 -181 L506 -181 L512 -140 L472 -140 L466 -181 Z " />
<glyph glyph-name="uni1E39" unicode="&#x1e39;" horiz-adv-x="948" d="M176 560 L154 560 L55 0 L840 0 L843 20 L80 20 L176 560 Z M40 711 L402 711 L405 729 L43 729 L40 711 Z M395 -181 L435 -181 L441 -140 L401 -140 L395 -181 Z " />
<glyph glyph-name="uni1E3A" unicode="&#x1e3a;" horiz-adv-x="1084" d="M212 700 L190 700 L65 0 L988 0 L990 20 L90 20 L212 700 Z M307 -170 L669 -170 L672 -152 L310 -152 L307 -170 Z " />
<glyph glyph-name="uni1E3B" unicode="&#x1e3b;" horiz-adv-x="948" d="M176 560 L154 560 L55 0 L840 0 L843 20 L80 20 L176 560 Z M236 -170 L598 -170 L601 -152 L239 -152 L236 -170 Z " />
<glyph glyph-name="uni1E3C" unicode="&#x1e3c;" horiz-adv-x="1084" d="M212 700 L190 700 L65 0 L988 0 L990 20 L90 20 L212 700 Z M331 -246 L347 -246 L503 -94 L604 -246 L617 -246 L523 -75 L489 -75 L331 -246 Z " />
<glyph glyph-name="uni1E3D" unicode="&#x1e3d;" horiz-adv-x="948" d="M176 560 L154 560 L55 0 L840 0 L843 20 L80 20 L176 560 Z M260 -246 L276 -246 L432 -94 L533 -246 L546 -246 L452 -75 L418 -75 L260 -246 Z " />
<glyph glyph-name="uni1E3E" unicode="&#x1e3e;" horiz-adv-x="1385" d="M1302 700 L642 66 L209 700 L190 700 L65 0 L86 0 L205 669 L638 38 L1296 669 L1179 0 L1200 0 L1325 700 L1302 700 Z M722 775 L738 775 L901 946 L864 946 L722 775 Z " />
</font>
</svg>
