<?xml version="1.0" encoding="UTF-8"?>
<svg xmlns="http://www.w3.org/2000/svg" xmlns:xlink="http://www.w3.org/1999/xlink" version="1.2" >
<font id="Stereo Gothic 250">
<font-face  font-family="Stereo Gothic" units-per-em="1000" ascent="700" descent="-300" font-style="normal" font-weight="100" font-stretch="normal" cap-height="700" x-height="560" underline-position="-75" underline-thickness="50" />
<missing-glyph  horiz-adv-x="1000" d="M150 0 L850 0 L850 700 L150 700 L150 0 Z M181 672 L801 672 L181 52 L181 672 Z M199 28 L819 648 L819 28 L199 28 Z " />
<glyph glyph-name="NULL" d="" />
<glyph glyph-name="CR" unicode="&#xd;" horiz-adv-x="250" d="" />
<glyph glyph-name="space" unicode="&#x20;" horiz-adv-x="500" d="" />
<glyph glyph-name="exclam" unicode="&#x21;" horiz-adv-x="313" d="M121 0 L191 0 L191 70 L121 70 L121 0 Z M132 139 L181 139 L185 700 L128 700 L132 139 Z " />
<glyph glyph-name="quotedbl" unicode="&#x22;" horiz-adv-x="472" d="M115 400 L155 400 L166 700 L105 700 L115 400 Z M316 400 L356 400 L367 700 L306 700 L316 400 Z " />
<glyph glyph-name="numbersign" unicode="&#x23;" horiz-adv-x="1298" d="M949 0 L999 0 L1020 202 L1171 202 L1171 249 L1025 249 L1046 451 L1201 451 L1201 498 L1051 498 L1072 700 L1022 700 L1001 498 L327 498 L348 700 L298 700 L277 498 L127 498 L127 451 L272 451 L251 249 L97 249 L97 202 L246 202 L225 0 L275 0 L296 202 L970 202 L949 0 Z M322 451 L996 451 L975 249 L301 249 L322 451 Z " />
<glyph glyph-name="dollar" unicode="&#x24;" horiz-adv-x="1298" d="M623 -20 L675 -20 L675 70 L974 70 C1112 70 1166 138 1166 221 C1166 305 1112 371 974 371 L675 371 L675 583 L1134 583 L1134 630 L675 630 L675 720 L623 720 L623 630 L323 630 C185 630 132 561 132 479 C132 395 185 329 323 329 L623 329 L623 117 L164 117 L164 70 L623 70 L623 -20 Z M970 329 C1075 329 1112 282 1112 223 C1112 164 1072 117 970 117 L675 117 L675 329 L970 329 Z M186 477 C186 536 224 583 327 583 L623 583 L623 371 L327 371 C224 371 186 418 186 477 L186 477 Z " />
<glyph glyph-name="percent" unicode="&#x25;" horiz-adv-x="1298" d="M1053 700 L182 0 L245 0 L1116 700 L1053 700 Z M102 474 C102 405 146 350 258 350 L409 350 C521 350 565 405 565 474 L565 576 C565 645 521 700 409 700 L258 700 C146 700 102 645 102 576 L102 474 Z M411 660 C494 660 521 622 521 574 L521 476 C521 428 494 390 411 390 L257 390 C174 390 146 428 146 476 L146 574 C146 621 175 660 257 660 L411 660 Z M733 124 C733 55 777 0 889 0 L1040 0 C1152 0 1196 55 1196 124 L1196 226 C1196 295 1152 350 1040 350 L889 350 C777 350 733 295 733 226 L733 124 Z M1042 310 C1125 310 1152 272 1152 224 L1152 126 C1152 78 1125 40 1042 40 L888 40 C805 40 777 78 777 126 L777 224 C777 271 806 310 888 310 L1042 310 Z " />
<glyph glyph-name="ampersand" unicode="&#x26;" horiz-adv-x="1316" d="M327 0 L971 0 C1129 0 1191 76 1191 174 C1191 241 1160 299 1086 327 L1241 327 L1241 373 L378 373 C249 373 204 436 204 512 C204 587 251 650 387 650 L1021 650 L1021 700 L375 700 C210 700 147 621 147 521 C147 447 182 383 266 358 C145 341 97 268 97 181 C97 80 161 0 327 0 L327 0 Z M951 50 L339 50 C203 50 155 111 155 188 C155 264 202 327 336 327 L953 327 C1087 327 1134 264 1134 188 C1134 111 1087 50 951 50 L951 50 Z " />
<glyph glyph-name="quotesingle" unicode="&#x27;" horiz-adv-x="271" d="M115 400 L155 400 L166 700 L105 700 L115 400 Z " />
<glyph glyph-name="parenleft" unicode="&#x28;" horiz-adv-x="482" d="M387 -116 C141 155 141 545 387 815 L341 815 C81 547 81 153 341 -116 L387 -116 Z " />
<glyph glyph-name="parenright" unicode="&#x29;" horiz-adv-x="482" d="M141 -116 C401 153 401 547 141 815 L95 815 C341 545 341 155 95 -116 L141 -116 Z " />
<glyph glyph-name="asterisk" unicode="&#x2a;" horiz-adv-x="590" d="M531 507 L516 560 L310 480 L323 700 L268 700 L280 479 L76 561 L59 508 L270 451 L132 283 L176 250 L295 434 L413 250 L458 282 L319 451 L531 507 Z " />
<glyph glyph-name="plus" unicode="&#x2b;" horiz-adv-x="1298" d="M292 325 L622 325 L622 30 L676 30 L676 325 L1006 325 L1006 375 L676 375 L676 670 L622 670 L622 375 L292 375 L292 325 Z " />
<glyph glyph-name="comma" unicode="&#x2c;" horiz-adv-x="274" d="M102 0 L136 0 L104 -97 L132 -97 L172 3 L172 70 L102 70 L102 0 Z " />
<glyph glyph-name="hyphen" unicode="&#x2d;" horiz-adv-x="600" d="M97 255 L503 255 L503 305 L97 305 L97 255 Z " />
<glyph glyph-name="period" unicode="&#x2e;" horiz-adv-x="274" d="M102 0 L172 0 L172 70 L102 70 L102 0 Z " />
<glyph glyph-name="slash" unicode="&#x2f;" horiz-adv-x="527" d="M-13 -75 L38 -75 L540 775 L489 775 L-13 -75 Z " />
<glyph glyph-name="zero" unicode="0" horiz-adv-x="1298" d="M107 248 C107 111 195 0 419 0 L879 0 C1103 0 1191 111 1191 248 L1191 452 C1191 589 1103 700 879 700 L419 700 C195 700 107 589 107 452 L107 248 Z M880 650 C1068 650 1136 560 1136 450 L1136 250 C1136 141 1069 50 880 50 L418 50 C229 50 162 141 162 250 L162 450 C162 559 229 650 418 650 L880 650 Z " />
<glyph glyph-name="one" unicode="1" horiz-adv-x="1298" d="M386 650 L682 650 L682 50 L236 50 L236 0 L1062 0 L1062 50 L736 50 L736 700 L386 700 L386 650 Z " />
<glyph glyph-name="two" unicode="2" horiz-adv-x="1298" d="M1171 50 L162 50 L162 187 C162 265 210 327 344 327 L964 327 C1135 327 1201 408 1201 513 C1201 616 1135 700 964 700 L147 700 L147 650 L961 650 C1097 650 1144 587 1144 512 C1144 434 1097 373 961 373 L342 373 C173 373 107 293 107 188 L107 0 L1171 0 L1171 50 Z " />
<glyph glyph-name="three" unicode="3" horiz-adv-x="1298" d="M87 0 L966 0 C1132 0 1196 80 1196 181 C1196 268 1148 341 1027 358 C1111 383 1146 447 1146 521 C1146 621 1083 700 918 700 L107 700 L107 650 L906 650 C1042 650 1089 587 1089 511 C1089 436 1044 373 915 373 L194 373 L194 327 L954 327 C1090 327 1138 264 1138 189 C1138 111 1090 50 954 50 L87 50 L87 0 Z " />
<glyph glyph-name="four" unicode="4" horiz-adv-x="1298" d="M1066 700 L78 172 L78 129 L1064 129 L1064 0 L1119 0 L1119 129 L1230 129 L1230 178 L1119 178 L1119 700 L1066 700 Z M186 178 L1064 646 L1064 178 L186 178 Z " />
<glyph glyph-name="five" unicode="5" horiz-adv-x="1298" d="M107 327 L961 327 C1097 327 1144 266 1144 188 C1144 113 1097 50 961 50 L125 50 L125 0 L964 0 C1135 0 1201 84 1201 187 C1201 292 1135 373 964 373 L161 373 L183 650 L1161 650 L1161 700 L136 700 L107 327 Z " />
<glyph glyph-name="six" unicode="6" horiz-adv-x="1298" d="M161 350 C161 516 270 650 551 650 L1151 650 L1151 700 L547 700 C230 700 106 543 106 350 L106 248 C106 111 194 0 418 0 L979 0 C1150 0 1216 84 1216 187 C1216 292 1150 373 979 373 L360 373 C252 373 189 338 161 285 L161 350 Z M346 327 L976 327 C1112 327 1159 266 1159 188 C1159 112 1111 50 976 50 L419 50 C250 50 176 121 163 215 C174 279 227 327 346 327 L346 327 Z " />
<glyph glyph-name="seven" unicode="7" horiz-adv-x="1298" d="M486 0 L1201 655 L1201 700 L87 700 L87 650 L1121 650 L406 0 L486 0 Z " />
<glyph glyph-name="eight" unicode="8" horiz-adv-x="1298" d="M983 0 C1149 0 1213 80 1213 181 C1213 268 1165 341 1044 358 C1128 383 1163 447 1163 521 C1163 621 1100 700 935 700 L363 700 C198 700 135 621 135 521 C135 447 170 383 254 358 C133 341 85 268 85 181 C85 80 149 0 315 0 L983 0 Z M1155 188 C1155 111 1107 50 971 50 L327 50 C191 50 143 111 143 188 C143 264 191 327 327 327 L971 327 C1107 327 1155 264 1155 188 L1155 188 Z M932 373 L366 373 C237 373 192 435 192 512 C192 587 239 650 375 650 L923 650 C1059 650 1106 587 1106 512 C1106 436 1061 373 932 373 L932 373 Z " />
<glyph glyph-name="nine" unicode="9" horiz-adv-x="1298" d="M747 50 L147 50 L147 0 L751 0 C1068 0 1192 157 1192 350 L1192 452 C1192 589 1104 700 880 700 L319 700 C148 700 82 616 82 513 C82 408 148 327 319 327 L938 327 C1046 327 1108 362 1137 415 L1137 350 C1137 184 1028 50 747 50 L747 50 Z M952 373 L322 373 C186 373 139 434 139 512 C139 588 187 650 322 650 L879 650 C1046 650 1121 579 1135 484 C1124 420 1071 373 952 373 L952 373 Z " />
<glyph glyph-name="colon" unicode="&#x3a;" horiz-adv-x="274" d="M102 490 L172 490 L172 560 L102 560 L102 490 Z M102 0 L172 0 L172 70 L102 70 L102 0 Z " />
<glyph glyph-name="semicolon" unicode="&#x3b;" horiz-adv-x="274" d="M102 0 L136 0 L104 -97 L132 -97 L172 3 L172 70 L102 70 L102 0 Z M102 490 L172 490 L172 560 L102 560 L102 490 Z " />
<glyph glyph-name="less" unicode="&#x3c;" horiz-adv-x="1298" d="M996 86 L366 350 L996 614 L996 667 L302 376 L302 324 L996 33 L996 86 Z " />
<glyph glyph-name="equal" unicode="&#x3d;" horiz-adv-x="1298" d="M292 172 L1006 172 L1006 222 L292 222 L292 172 Z M292 478 L1006 478 L1006 528 L292 528 L292 478 Z " />
<glyph glyph-name="greater" unicode="&#x3e;" horiz-adv-x="1298" d="M302 33 L996 324 L996 376 L302 667 L302 614 L932 350 L302 86 L302 33 Z " />
<glyph glyph-name="question" unicode="&#x3f;" horiz-adv-x="1070" d="M345 139 L397 139 L397 328 L796 328 C967 328 1033 409 1033 514 C1033 617 967 700 796 700 L35 700 L35 650 L793 650 C929 650 975 587 975 511 C975 434 929 372 793 372 L345 372 L345 139 Z M336 0 L407 0 L407 70 L336 70 L336 0 Z " />
<glyph glyph-name="at" unicode="&#x40;" horiz-adv-x="1398" d="M725 420 L648 420 C452 420 376 323 376 205 C376 87 452 -10 648 -10 L725 -10 C854 -10 927 36 960 102 L964 0 L1226 0 C1287 67 1314 154 1314 248 C1314 462 1177 635 826 635 L626 635 C237 635 84 443 84 205 C84 -32 237 -224 626 -224 L769 -224 L769 -182 L627 -182 C268 -182 134 -9 134 205 C134 420 269 593 628 593 L824 593 C1145 593 1264 439 1264 248 C1264 170 1246 99 1200 42 L1000 42 L1000 410 L964 410 L960 308 C927 374 854 420 725 420 L725 420 Z M649 32 C483 32 425 110 425 205 C425 300 483 378 649 378 L726 378 C897 378 953 297 953 199 C953 106 888 32 726 32 L649 32 Z " />
<glyph glyph-name="A" unicode="A" horiz-adv-x="1263" d="M1180 0 L1248 0 L662 700 L602 700 L15 0 L83 0 L207 148 L1056 148 L1180 0 Z M632 655 L1017 194 L245 194 L632 655 Z " />
<glyph glyph-name="B" unicode="B" horiz-adv-x="1259" d="M127 0 L944 0 C1110 0 1174 80 1174 181 C1174 268 1126 341 1005 358 C1089 383 1124 447 1124 521 C1124 621 1061 700 896 700 L127 700 L127 0 Z M932 327 C1068 327 1116 264 1116 188 C1116 111 1068 50 932 50 L182 50 L182 327 L932 327 Z M1067 512 C1067 436 1022 373 893 373 L182 373 L182 650 L884 650 C1017 650 1067 588 1067 512 L1067 512 Z " />
<glyph glyph-name="C" unicode="C" horiz-adv-x="1184" d="M138 350 C138 516 241 650 522 650 L1099 650 L1099 700 L521 700 C204 700 80 543 80 350 C80 157 204 0 521 0 L1099 0 L1099 50 L522 50 C241 50 138 184 138 350 L138 350 Z " />
<glyph glyph-name="D" unicode="D" horiz-adv-x="1255" d="M127 0 L734 0 C1051 0 1175 157 1175 350 C1175 543 1051 700 734 700 L127 700 L127 0 Z M733 650 C1014 650 1117 516 1117 350 C1117 184 1014 50 733 50 L182 50 L182 650 L733 650 Z " />
<glyph glyph-name="E" unicode="E" horiz-adv-x="1199" d="M127 0 L1114 0 L1114 50 L182 50 L182 327 L1012 327 L1012 373 L182 373 L182 650 L1114 650 L1114 700 L127 700 L127 0 Z " />
<glyph glyph-name="F" unicode="F" horiz-adv-x="1159" d="M127 0 L182 0 L182 322 L1012 322 L1012 372 L182 372 L182 650 L1114 650 L1114 700 L127 700 L127 0 Z " />
<glyph glyph-name="G" unicode="G" horiz-adv-x="1256" d="M669 327 L1100 327 L1100 50 L522 50 C241 50 138 184 138 350 C138 516 241 650 522 650 L1099 650 L1099 700 L521 700 C204 700 80 543 80 350 C80 157 204 0 521 0 L1154 0 L1154 373 L669 373 L669 327 Z " />
<glyph glyph-name="H" unicode="H" horiz-adv-x="1305" d="M1123 0 L1178 0 L1178 700 L1123 700 L1123 375 L182 375 L182 700 L127 700 L127 0 L182 0 L182 325 L1123 325 L1123 0 Z " />
<glyph glyph-name="I" unicode="I" horiz-adv-x="309" d="M127 0 L182 0 L182 700 L127 700 L127 0 Z " />
<glyph glyph-name="J" unicode="J" horiz-adv-x="1211" d="M390 -5 L683 -5 C1000 -5 1104 132 1104 325 L1104 700 L1049 700 L1049 325 C1049 160 962 45 682 45 L391 45 C174 45 102 148 102 275 L102 316 L47 316 L47 275 C47 121 136 -5 390 -5 L390 -5 Z " />
<glyph glyph-name="K" unicode="K" horiz-adv-x="1284" d="M1183 700 L1084 700 L182 202 L182 700 L127 700 L127 0 L182 0 L182 146 L542 345 L1175 0 L1274 0 L593 374 L1183 700 Z " />
<glyph glyph-name="L" unicode="L" horiz-adv-x="1129" d="M182 700 L127 700 L127 0 L1094 0 L1094 50 L182 50 L182 700 Z " />
<glyph glyph-name="M" unicode="M" horiz-adv-x="1445" d="M1266 700 L722 109 L179 700 L127 700 L127 0 L182 0 L182 624 L722 34 L1263 624 L1263 0 L1318 0 L1318 700 L1266 700 Z " />
<glyph glyph-name="N" unicode="N" horiz-adv-x="1303" d="M1124 0 L1176 0 L1176 700 L1121 700 L1121 65 L179 700 L127 700 L127 0 L182 0 L182 635 L1124 0 Z " />
<glyph glyph-name="O" unicode="O" horiz-adv-x="1348" d="M814 -10 C1140 -10 1268 151 1268 350 C1268 549 1140 710 814 710 L534 710 C208 710 80 549 80 350 C80 151 208 -10 534 -10 L814 -10 Z M535 40 C245 40 138 178 138 350 C138 522 245 660 535 660 L813 660 C1103 660 1210 522 1210 350 C1210 178 1103 40 813 40 L535 40 Z " />
<glyph glyph-name="P" unicode="P" horiz-adv-x="1196" d="M127 0 L182 0 L182 285 L896 285 C1086 285 1159 375 1159 493 C1159 607 1086 700 896 700 L127 700 L127 0 Z M895 650 C1048 650 1102 579 1102 493 C1102 403 1048 335 895 335 L182 335 L182 650 L895 650 Z " />
<glyph glyph-name="Q" unicode="Q" horiz-adv-x="1348" d="M814 -10 C877 -10 933 -3 982 7 L1237 -110 L1344 -110 L1045 26 C1202 84 1268 207 1268 350 C1268 549 1140 710 814 710 L534 710 C208 710 80 549 80 350 C80 151 208 -10 534 -10 L814 -10 Z M535 40 C244 40 138 178 138 350 C138 522 245 660 535 660 L813 660 C1103 660 1210 522 1210 350 C1210 178 1103 40 813 40 L535 40 Z " />
<glyph glyph-name="R" unicode="R" horiz-adv-x="1276" d="M127 0 L182 0 L182 286 L648 286 L1168 0 L1266 0 L741 286 L879 286 C1068 286 1141 377 1141 493 C1141 607 1068 700 879 700 L127 700 L127 0 Z M876 650 C1030 650 1084 579 1084 492 C1084 403 1030 334 876 334 L182 334 L182 650 L876 650 Z " />
<glyph glyph-name="S" unicode="S" horiz-adv-x="1207" d="M117 0 L893 0 C1064 0 1130 84 1130 187 C1130 292 1064 373 893 373 L316 373 C181 373 134 434 134 512 C134 587 181 650 316 650 L1090 650 L1090 700 L314 700 C143 700 77 616 77 513 C77 408 143 327 314 327 L891 327 C1026 327 1073 266 1073 188 C1073 113 1026 50 891 50 L117 50 L117 0 Z " />
<glyph glyph-name="T" unicode="T" horiz-adv-x="1184" d="M35 650 L565 650 L565 0 L619 0 L619 650 L1149 650 L1149 700 L35 700 L35 650 Z " />
<glyph glyph-name="U" unicode="U" horiz-adv-x="1275" d="M162 323 L162 700 L107 700 L107 323 C107 130 211 -10 528 -10 L747 -10 C1064 -10 1168 130 1168 323 L1168 700 L1113 700 L1113 323 C1113 158 1026 40 746 40 L529 40 C249 40 162 158 162 323 L162 323 Z " />
<glyph glyph-name="V" unicode="V" horiz-adv-x="1263" d="M662 0 L1248 700 L1178 700 L632 45 L86 700 L15 700 L602 0 L662 0 Z " />
<glyph glyph-name="W" unicode="W" horiz-adv-x="1618" d="M809 632 L1159 0 L1201 0 L1591 700 L1525 700 L1180 68 L830 700 L788 700 L438 68 L93 700 L27 700 L417 0 L459 0 L809 632 Z " />
<glyph glyph-name="X" unicode="X" horiz-adv-x="1228" d="M28 700 L569 351 L23 0 L114 0 L614 323 L1114 0 L1205 0 L659 351 L1200 700 L1109 700 L614 379 L119 700 L28 700 Z " />
<glyph glyph-name="Y" unicode="Y" horiz-adv-x="1243" d="M594 0 L649 0 L649 211 L1238 700 L1156 700 L622 254 L87 700 L5 700 L594 211 L594 0 Z " />
<glyph glyph-name="Z" unicode="Z" horiz-adv-x="1192" d="M77 0 L1125 0 L1125 50 L180 50 L1105 660 L1105 700 L87 700 L87 650 L1001 650 L77 40 L77 0 Z " />
<glyph glyph-name="bracketleft" unicode="&#x5b;" horiz-adv-x="482" d="M136 -150 L426 -150 L426 -110 L190 -110 L190 810 L426 810 L426 850 L136 850 L136 -150 Z " />
<glyph glyph-name="backslash" unicode="&#x5c;" horiz-adv-x="527" d="M38 775 L-13 775 L489 -75 L540 -75 L38 775 Z " />
<glyph glyph-name="bracketright" unicode="&#x5d;" horiz-adv-x="482" d="M346 850 L56 850 L56 810 L292 810 L292 -110 L56 -110 L56 -150 L346 -150 L346 850 Z " />
<glyph glyph-name="asciicircum" unicode="&#x5e;" horiz-adv-x="1298" d="M1004 350 L1071 350 L679 800 L619 800 L227 350 L294 350 L649 754 L1004 350 Z " />
<glyph glyph-name="underscore" unicode="&#x5f;" horiz-adv-x="500" d="M0 -134 L500 -134 L500 -86 L0 -86 L0 -134 Z " />
<glyph glyph-name="grave" unicode="&#x60;" horiz-adv-x="500" d="M195 806 L126 806 L271 635 L307 635 L195 806 Z " />
<glyph glyph-name="a" unicode="a" horiz-adv-x="1082" d="M1003 0 L1066 0 L569 560 L513 560 L16 0 L79 0 L187 122 L894 122 L1003 0 Z M541 519 L858 163 L224 163 L541 519 Z " />
<glyph glyph-name="b" unicode="b" horiz-adv-x="1084" d="M117 0 L818 0 C960 0 1007 64 1007 145 C1007 214 971 273 870 287 C940 307 965 357 965 417 C965 497 917 560 777 560 L117 560 L117 0 Z M807 260 C920 260 953 211 953 152 C953 92 920 45 807 45 L168 45 L168 260 L807 260 Z M772 300 L168 300 L168 515 L765 515 C876 515 912 467 912 408 C912 349 880 300 772 300 L772 300 Z " />
<glyph glyph-name="c" unicode="c" horiz-adv-x="1016" d="M127 280 C127 410 204 515 440 515 L939 515 L939 560 L440 560 C170 560 73 434 73 280 C73 126 170 0 440 0 L939 0 L939 45 L440 45 C204 45 127 150 127 280 L127 280 Z " />
<glyph glyph-name="d" unicode="d" horiz-adv-x="1081" d="M117 0 L641 0 C911 0 1008 126 1008 280 C1008 434 911 560 641 560 L117 560 L117 0 Z M641 515 C878 515 955 410 955 280 C955 150 878 45 641 45 L168 45 L168 515 L641 515 Z " />
<glyph glyph-name="e" unicode="e" horiz-adv-x="1034" d="M117 0 L956 0 L956 45 L168 45 L168 260 L869 260 L869 300 L168 300 L168 515 L956 515 L956 560 L117 560 L117 0 Z " />
<glyph glyph-name="f" unicode="f" horiz-adv-x="1017" d="M117 0 L168 0 L168 255 L869 255 L869 300 L168 300 L168 515 L956 515 L956 560 L117 560 L117 0 Z " />
<glyph glyph-name="g" unicode="g" horiz-adv-x="1081" d="M573 260 L936 260 L936 45 L440 45 C204 45 127 150 127 280 C127 410 204 515 440 515 L939 515 L939 560 L440 560 C170 560 73 434 73 280 C73 126 170 0 440 0 L986 0 L986 300 L573 300 L573 260 Z " />
<glyph glyph-name="h" unicode="h" horiz-adv-x="1128" d="M960 0 L1011 0 L1011 560 L960 560 L960 302 L168 302 L168 560 L117 560 L117 0 L168 0 L168 258 L960 258 L960 0 Z " />
<glyph glyph-name="i" unicode="i" horiz-adv-x="285" d="M117 0 L168 0 L168 560 L117 560 L117 0 Z " />
<glyph glyph-name="j" unicode="j" horiz-adv-x="1043" d="M333 -4 L596 -4 C866 -4 946 106 946 260 L946 560 L896 560 L896 260 C896 131 831 41 596 41 L334 41 C152 41 98 121 98 220 L98 254 L47 254 L47 220 C47 97 117 -4 333 -4 L333 -4 Z " />
<glyph glyph-name="k" unicode="k" horiz-adv-x="1109" d="M1022 560 L926 560 L168 166 L168 560 L117 560 L117 0 L168 0 L168 115 L474 274 L1001 0 L1094 0 L521 299 L1022 560 Z " />
<glyph glyph-name="l" unicode="l" horiz-adv-x="987" d="M168 560 L117 560 L117 0 L939 0 L939 45 L168 45 L168 560 Z " />
<glyph glyph-name="m" unicode="m" horiz-adv-x="1248" d="M1082 560 L624 93 L165 560 L117 560 L117 0 L168 0 L168 492 L624 26 L1080 492 L1080 0 L1131 0 L1131 560 L1082 560 Z " />
<glyph glyph-name="n" unicode="n" horiz-adv-x="1127" d="M1010 0 L1010 560 L959 560 L959 58 L165 560 L117 560 L117 0 L168 0 L168 502 L961 0 L1010 0 Z " />
<glyph glyph-name="o" unicode="o" horiz-adv-x="1156" d="M705 -8 C982 -8 1083 121 1083 280 C1083 439 982 568 705 568 L451 568 C174 568 73 439 73 280 C73 121 174 -8 451 -8 L705 -8 Z M452 37 C208 37 126 145 126 280 C126 415 208 523 452 523 L704 523 C949 523 1030 415 1030 280 C1030 145 949 37 704 37 L452 37 Z " />
<glyph glyph-name="p" unicode="p" horiz-adv-x="1042" d="M117 0 L168 0 L168 226 L777 226 C939 226 995 299 995 393 C995 485 939 560 777 560 L117 560 L117 0 Z M775 515 C904 515 942 461 942 393 C942 323 904 270 775 270 L168 270 L168 515 L775 515 Z " />
<glyph glyph-name="q" unicode="q" horiz-adv-x="1156" d="M705 -8 C755 -8 800 -3 839 4 L1049 -88 L1146 -88 L897 20 C1030 66 1083 165 1083 280 C1083 439 982 568 705 568 L451 568 C174 568 73 439 73 280 C73 121 174 -8 451 -8 L705 -8 Z M452 37 C208 37 126 145 126 280 C126 415 208 523 452 523 L704 523 C949 523 1030 415 1030 280 C1030 145 949 37 704 37 L452 37 Z " />
<glyph glyph-name="r" unicode="r" horiz-adv-x="1105" d="M117 0 L168 0 L168 226 L561 226 L995 0 L1086 0 L645 227 L762 227 C923 227 980 299 980 393 C980 485 923 560 762 560 L117 560 L117 0 Z M760 515 C888 515 927 460 927 393 C927 323 888 270 760 270 L168 270 L168 515 L760 515 Z " />
<glyph glyph-name="s" unicode="s" horiz-adv-x="1033" d="M103 0 L768 0 C914 0 964 67 964 150 C964 235 914 300 768 300 L268 300 C156 300 122 348 122 408 C122 467 156 515 268 515 L930 515 L930 560 L265 560 C119 560 69 493 69 410 C69 325 119 260 265 260 L766 260 C877 260 911 212 911 152 C911 93 878 45 766 45 L103 45 L103 0 Z " />
<glyph glyph-name="t" unicode="t" horiz-adv-x="1042" d="M48 515 L495 515 L495 0 L546 0 L546 515 L994 515 L994 560 L48 560 L48 515 Z " />
<glyph glyph-name="u" unicode="u" horiz-adv-x="1096" d="M147 258 L147 560 L97 560 L97 258 C97 104 177 -8 446 -8 L649 -8 C918 -8 999 104 999 258 L999 560 L948 560 L948 258 C948 129 884 37 648 37 L447 37 C212 37 147 129 147 258 L147 258 Z " />
<glyph glyph-name="v" unicode="v" horiz-adv-x="1082" d="M569 0 L1066 560 L1001 560 L541 41 L81 560 L16 560 L513 0 L569 0 Z " />
<glyph glyph-name="w" unicode="w" horiz-adv-x="1384" d="M693 500 L987 0 L1026 0 L1357 560 L1297 560 L1006 61 L712 560 L673 560 L379 61 L87 560 L27 560 L359 0 L397 0 L693 500 Z " />
<glyph glyph-name="x" unicode="x" horiz-adv-x="1066" d="M34 560 L493 282 L29 0 L115 0 L533 256 L952 0 L1038 0 L574 282 L1034 560 L948 560 L533 308 L120 560 L34 560 Z " />
<glyph glyph-name="y" unicode="y" horiz-adv-x="1059" d="M505 0 L555 0 L555 169 L1054 560 L979 560 L530 208 L80 560 L5 560 L505 169 L505 0 Z " />
<glyph glyph-name="z" unicode="z" horiz-adv-x="1022" d="M70 0 L962 0 L962 45 L165 45 L945 524 L945 560 L79 560 L79 515 L848 515 L70 36 L70 0 Z " />
<glyph glyph-name="braceleft" unicode="&#x7b;" horiz-adv-x="482" d="M175 455 C175 407 155 370 76 370 L55 370 L55 330 L76 330 C155 330 175 293 175 245 L175 -38 C175 -101 210 -150 314 -150 L427 -150 L427 -110 L328 -110 C248 -110 229 -73 229 -25 L229 245 C229 294 205 334 145 350 C205 365 229 406 229 455 L229 725 C229 773 248 810 328 810 L427 810 L427 850 L314 850 C210 850 175 801 175 738 L175 455 Z " />
<glyph glyph-name="bar" unicode="&#x7c;" horiz-adv-x="500" d="M226 850 L226 -150 L274 -150 L274 850 L226 850 Z " />
<glyph glyph-name="braceright" unicode="&#x7d;" horiz-adv-x="482" d="M307 738 C307 801 272 850 168 850 L55 850 L55 810 L154 810 C234 810 253 773 253 725 L253 455 C253 406 277 365 337 350 C277 334 253 294 253 245 L253 -25 C253 -73 234 -110 154 -110 L55 -110 L55 -150 L168 -150 C272 -150 307 -101 307 -38 L307 245 C307 293 327 330 406 330 L427 330 L427 370 L406 370 C327 370 307 407 307 455 L307 738 Z " />
<glyph glyph-name="asciitilde" unicode="&#x7e;" horiz-adv-x="1298" d="M1006 418 C731 195 582 573 292 360 L292 305 C567 528 716 150 1006 363 L1006 418 Z " />
<glyph glyph-name="uni00A0" unicode="&#xa0;" horiz-adv-x="500" d="" />
<glyph glyph-name="exclamdown" unicode="&#xa1;" horiz-adv-x="313" d="M192 700 L122 700 L122 630 L192 630 L192 700 Z M181 561 L132 561 L128 0 L185 0 L181 561 Z " />
<glyph glyph-name="cent" unicode="&#xa2;" horiz-adv-x="1298" d="M1155 173 L665 173 L740 527 L1157 527 L1157 574 L750 574 L781 720 L730 720 L699 574 L423 574 C220 574 140 473 140 350 C140 227 220 126 423 126 L604 126 L573 -20 L624 -20 L655 126 L1155 126 L1155 173 Z M193 350 C193 452 257 527 433 527 L688 527 L614 173 L433 173 C258 173 193 248 193 350 L193 350 Z " />
<glyph glyph-name="sterling" unicode="&#xa3;" horiz-adv-x="1298" d="M751 373 L324 373 L324 450 C324 559 369 650 557 650 L1051 650 L1051 700 L559 700 C335 700 269 589 269 452 L269 373 L127 373 L127 327 L269 327 L269 127 C269 81 250 48 196 48 L127 48 L127 0 L1171 0 L1171 50 L277 50 C307 62 324 94 324 130 L324 327 L751 327 L751 373 Z " />
<glyph glyph-name="currency" unicode="&#xa4;" horiz-adv-x="1298" d="M769 89 C873 89 949 111 1001 150 L1160 -10 L1196 25 L1038 182 C1079 227 1098 285 1098 350 C1098 414 1079 472 1038 518 L1196 675 L1160 710 L1001 550 C949 588 873 611 769 611 L527 611 C423 611 348 588 296 550 L138 710 L102 675 L259 519 C217 473 198 415 198 350 C198 285 217 226 259 181 L102 25 L138 -10 L296 149 C348 111 423 89 527 89 L769 89 Z M254 350 C254 468 326 563 528 563 L768 563 C970 563 1042 468 1042 350 C1042 232 970 137 768 137 L528 137 C326 137 254 232 254 350 L254 350 Z " />
<glyph glyph-name="yen" unicode="&#xa5;" horiz-adv-x="1298" d="M1124 700 L649 306 L174 700 L94 700 L476 389 L111 389 L111 345 L523 345 L622 263 L622 207 L111 207 L111 163 L622 163 L622 0 L676 0 L676 163 L1187 163 L1187 207 L676 207 L676 263 L775 345 L1187 345 L1187 389 L823 389 L1204 700 L1124 700 Z " />
<glyph glyph-name="brokenbar" unicode="&#xa6;" horiz-adv-x="500" d="M274 467 L274 850 L226 850 L226 467 L274 467 Z M226 233 L226 -150 L274 -150 L274 233 L226 233 Z " />
<glyph glyph-name="section" unicode="&#xa7;" horiz-adv-x="1226" d="M263 154 L843 154 C941 154 975 107 975 50 C975 -7 941 -53 837 -53 L229 -53 L229 -100 L855 -100 C980 -100 1029 -38 1029 37 C1029 88 1007 132 955 154 L976 154 C1100 154 1149 221 1149 300 C1149 382 1097 446 963 446 L389 446 C287 446 251 490 251 550 C251 607 285 653 389 653 L997 653 L997 700 L371 700 C246 700 197 638 197 563 C197 511 218 468 271 446 L250 446 C126 446 77 379 77 300 C77 218 129 154 263 154 L263 154 Z M267 196 C164 196 128 242 128 300 C128 359 164 404 267 404 L959 404 C1062 404 1098 358 1098 300 C1098 242 1062 196 959 196 L267 196 Z " />
<glyph glyph-name="dieresis" unicode="&#xa8;" horiz-adv-x="500" d="M342 687 L408 687 L408 753 L342 753 L342 687 Z M92 687 L158 687 L158 753 L92 753 L92 687 Z " />
<glyph glyph-name="copyright" unicode="&#xa9;" horiz-adv-x="1208" d="M684 -10 C1010 -10 1138 151 1138 350 C1138 549 1010 710 684 710 L524 710 C198 710 70 549 70 350 C70 151 198 -10 524 -10 L684 -10 Z M525 29 C227 29 115 173 115 350 C115 527 227 671 525 671 L683 671 C981 671 1093 527 1093 350 C1093 173 981 29 683 29 L525 29 Z M823 210 L532 210 C399 210 352 272 352 350 C352 427 399 490 532 490 L823 490 L823 525 L532 525 C373 525 311 446 311 350 C311 253 373 175 532 175 L823 175 L823 210 Z " />
<glyph glyph-name="ordfeminine" unicode="&#xaa;" horiz-adv-x="765" d="M640 350 L694 350 L406 700 L359 700 L71 350 L125 350 L181 418 L584 418 L640 350 Z M382 662 L554 455 L211 455 L382 662 Z " />
<glyph glyph-name="guillemotleft" unicode="&#xab;" horiz-adv-x="755" d="M315 560 L105 281 L317 0 L376 0 L165 281 L374 560 L315 560 Z M588 560 L378 281 L590 0 L649 0 L438 281 L647 560 L588 560 Z " />
<glyph glyph-name="logicalnot" unicode="&#xac;" horiz-adv-x="1298" d="M292 325 L951 325 L951 40 L1006 40 L1006 375 L292 375 L292 325 Z " />
<glyph glyph-name="uni00AD" unicode="&#xad;" horiz-adv-x="600" d="M97 256 L503 256 L503 304 L97 304 L97 256 Z " />
<glyph glyph-name="registered" unicode="&#xae;" horiz-adv-x="1208" d="M684 -10 C1010 -10 1138 151 1138 350 C1138 549 1010 710 684 710 L524 710 C198 710 70 549 70 350 C70 151 198 -10 524 -10 L684 -10 Z M525 29 C227 29 115 173 115 350 C115 527 227 671 525 671 L683 671 C981 671 1092 527 1092 350 C1092 173 981 29 683 29 L525 29 Z M347 175 L387 175 L387 313 L621 313 L858 175 L920 175 L682 313 L723 313 C820 313 857 359 857 419 C857 478 820 525 723 525 L347 525 L347 175 Z M720 490 C792 490 815 458 815 418 C815 377 792 347 720 347 L387 347 L387 490 L720 490 Z " />
<glyph glyph-name="macron" unicode="&#xaf;" horiz-adv-x="500" d="M76 701 L424 701 L424 739 L76 739 L76 701 Z " />
<glyph glyph-name="degree" unicode="&#xb0;" horiz-adv-x="568" d="M84 511 C84 395 174 311 284 311 C394 311 484 395 484 511 C484 626 394 710 284 710 C174 710 84 626 84 511 L84 511 Z M130 511 C130 602 197 668 284 668 C371 668 438 602 438 511 C438 419 371 353 284 353 C197 353 130 419 130 511 L130 511 Z " />
<glyph glyph-name="plusminus" unicode="&#xb1;" horiz-adv-x="1298" d="M292 400 L622 400 L622 150 L676 150 L676 400 L1006 400 L1006 450 L676 450 L676 700 L622 700 L622 450 L292 450 L292 400 Z M292 0 L1006 0 L1006 50 L292 50 L292 0 Z " />
<glyph glyph-name="twosuperior" unicode="&#xb2;" horiz-adv-x="749" d="M639 390 L148 390 L148 449 C148 480 168 508 229 508 L531 508 C619 508 654 549 654 604 C654 657 619 700 531 700 L124 700 L124 660 L528 660 C588 660 609 633 609 601 C609 569 588 542 528 542 L227 542 C138 542 104 501 104 446 L104 350 L639 350 L639 390 Z " />
<glyph glyph-name="threesuperior" unicode="&#xb3;" horiz-adv-x="749" d="M89 350 L530 350 C614 350 646 391 646 441 C646 484 623 520 565 530 C604 543 621 574 621 610 C621 660 589 700 507 700 L99 700 L99 660 L496 660 C556 660 575 633 575 601 C575 569 557 542 499 542 L142 542 L142 508 L519 508 C580 508 599 481 599 449 C599 416 580 390 519 390 L89 390 L89 350 Z " />
<glyph glyph-name="acute" unicode="&#xb4;" horiz-adv-x="500" d="M192 635 L228 635 L373 806 L304 806 L192 635 Z " />
<glyph glyph-name="uni00B5" unicode="&#xb5;" horiz-adv-x="1298" d="M1120 0 L1161 0 L1161 560 L1106 560 L1106 358 C1106 187 994 50 705 50 L377 50 C242 50 192 108 192 188 L192 560 L137 560 L137 -200 L192 -200 L192 92 C224 18 295 0 385 0 L710 0 C937 0 1062 85 1110 206 L1120 0 Z " />
<glyph glyph-name="paragraph" unicode="&#xb6;" horiz-adv-x="1199" d="M610 650 L944 650 L944 -100 L999 -100 L999 650 L1099 650 L1099 700 L330 700 C140 700 67 607 67 493 C67 375 140 285 330 285 L555 285 L555 -100 L610 -100 L610 650 Z " />
<glyph glyph-name="periodcentered" unicode="&#xb7;" horiz-adv-x="274" d="M102 315 L172 315 L172 385 L102 385 L102 315 Z " />
<glyph glyph-name="cedilla" unicode="&#xb8;" horiz-adv-x="500" d="M209 -96 L227 -96 C298 -96 337 -111 337 -157 C337 -238 186 -223 140 -200 L140 -226 C212 -261 380 -271 380 -158 C380 -84 316 -69 246 -69 L241 -69 L260 0 L236 0 L209 -96 Z " />
<glyph glyph-name="onesuperior" unicode="&#xb9;" horiz-adv-x="749" d="M241 660 L382 660 L382 390 L166 390 L166 350 L582 350 L582 390 L426 390 L426 700 L241 700 L241 660 Z " />
<glyph glyph-name="ordmasculine" unicode="&#xba;" horiz-adv-x="764" d="M453 345 C616 345 680 425 680 525 C680 624 616 705 453 705 L311 705 C148 705 84 624 84 525 C84 425 148 345 311 345 L453 345 Z M311 385 C177 385 128 447 128 525 C128 602 176 665 311 665 L452 665 C586 665 636 602 636 525 C636 447 586 385 452 385 L311 385 Z " />
<glyph glyph-name="guillemotright" unicode="&#xbb;" horiz-adv-x="755" d="M381 560 L590 281 L379 0 L438 0 L650 281 L440 560 L381 560 Z M108 560 L317 281 L106 0 L165 0 L377 281 L167 560 L108 560 Z " />
<glyph glyph-name="onequarter" unicode="&#xbc;" horiz-adv-x="1498" d="M241 660 L382 660 L382 390 L166 390 L166 350 L582 350 L582 390 L426 390 L426 700 L241 700 L241 660 Z M1153 700 L282 0 L345 0 L1216 700 L1153 700 Z M1320 350 L839 95 L839 62 L1318 62 L1318 0 L1362 0 L1362 62 L1418 62 L1418 102 L1362 102 L1362 350 L1320 350 Z M926 102 L1318 308 L1318 102 L926 102 Z " />
<glyph glyph-name="onehalf" unicode="&#xbd;" horiz-adv-x="1498" d="M241 660 L382 660 L382 390 L166 390 L166 350 L582 350 L582 390 L426 390 L426 700 L241 700 L241 660 Z M1153 700 L282 0 L345 0 L1216 700 L1153 700 Z M1388 40 L897 40 L897 99 C897 130 917 158 978 158 L1280 158 C1368 158 1403 199 1403 254 C1403 307 1368 350 1280 350 L873 350 L873 310 L1277 310 C1337 310 1358 283 1358 251 C1358 219 1337 192 1277 192 L976 192 C887 192 853 151 853 96 L853 0 L1388 0 L1388 40 Z " />
<glyph glyph-name="threequarters" unicode="&#xbe;" horiz-adv-x="1498" d="M89 350 L530 350 C614 350 646 391 646 441 C646 484 623 520 565 530 C604 543 621 574 621 610 C621 660 589 700 507 700 L99 700 L99 660 L496 660 C556 660 575 633 575 601 C575 569 557 542 499 542 L142 542 L142 508 L519 508 C580 508 599 481 599 449 C599 416 580 390 519 390 L89 390 L89 350 Z M1153 700 L282 0 L345 0 L1216 700 L1153 700 Z M1320 350 L839 95 L839 62 L1318 62 L1318 0 L1362 0 L1362 62 L1418 62 L1418 102 L1362 102 L1362 350 L1320 350 Z M926 102 L1318 308 L1318 102 L926 102 Z " />
<glyph glyph-name="questiondown" unicode="&#xbf;" horiz-adv-x="1070" d="M725 561 L673 561 L673 372 L274 372 C103 372 37 291 37 186 C37 83 103 0 274 0 L1035 0 L1035 50 L277 50 C141 50 95 113 95 189 C95 266 141 328 277 328 L725 328 L725 561 Z M734 700 L663 700 L663 630 L734 630 L734 700 Z " />
<glyph glyph-name="Agrave" unicode="&#xc0;" horiz-adv-x="1263" d="M1180 0 L1248 0 L662 700 L602 700 L15 0 L83 0 L207 148 L1056 148 L1180 0 Z M632 655 L1017 194 L245 194 L632 655 Z M576 946 L507 946 L652 775 L688 775 L576 946 Z " />
<glyph glyph-name="Aacute" unicode="&#xc1;" horiz-adv-x="1263" d="M1180 0 L1248 0 L662 700 L602 700 L15 0 L83 0 L207 148 L1056 148 L1180 0 Z M632 655 L1017 194 L245 194 L632 655 Z M573 775 L609 775 L754 946 L685 946 L573 775 Z " />
<glyph glyph-name="Acircumflex" unicode="&#xc2;" horiz-adv-x="1263" d="M1180 0 L1248 0 L662 700 L602 700 L15 0 L83 0 L207 148 L1056 148 L1180 0 Z M632 655 L1017 194 L245 194 L632 655 Z M665 946 L595 946 L469 775 L504 775 L630 913 L756 775 L793 775 L665 946 Z " />
<glyph glyph-name="Atilde" unicode="&#xc3;" horiz-adv-x="1263" d="M1180 0 L1248 0 L662 700 L602 700 L15 0 L83 0 L207 148 L1056 148 L1180 0 Z M632 655 L1017 194 L245 194 L632 655 Z M769 925 C762 857 738 847 709 847 C659 847 618 916 553 916 C506 916 473 891 463 796 L493 796 C500 864 524 874 553 874 C603 874 644 805 709 805 C756 805 790 830 799 925 L769 925 Z " />
<glyph glyph-name="Adieresis" unicode="&#xc4;" horiz-adv-x="1263" d="M1180 0 L1248 0 L662 700 L602 700 L15 0 L83 0 L207 148 L1056 148 L1180 0 Z M632 655 L1017 194 L245 194 L632 655 Z M723 827 L789 827 L789 893 L723 893 L723 827 Z M473 827 L539 827 L539 893 L473 893 L473 827 Z " />
<glyph glyph-name="Aring" unicode="&#xc5;" horiz-adv-x="1263" d="M1180 0 L1248 0 L662 700 L602 700 L15 0 L83 0 L207 148 L1056 148 L1180 0 Z M632 655 L1017 194 L245 194 L632 655 Z M556 861 C556 902 590 936 631 936 C673 936 706 902 706 861 C706 819 673 786 631 786 C590 786 556 819 556 861 L556 861 Z M521 861 C521 801 568 753 631 753 C693 753 741 801 741 861 C741 921 693 968 631 968 C568 968 521 921 521 861 L521 861 Z " />
<glyph glyph-name="AE" unicode="&#xc6;" horiz-adv-x="1699" d="M732 147 L732 0 L1614 0 L1614 50 L787 50 L787 327 L1512 327 L1512 373 L787 373 L787 650 L1614 650 L1614 700 L702 700 L15 0 L84 0 L228 147 L732 147 Z M732 661 L732 193 L273 193 L732 661 Z " />
<glyph glyph-name="Ccedilla" unicode="&#xc7;" horiz-adv-x="1184" d="M602 -96 L620 -96 C691 -96 730 -111 730 -157 C730 -238 579 -223 533 -200 L533 -226 C605 -261 773 -271 773 -158 C773 -84 709 -69 639 -69 L634 -69 L653 0 L1099 0 L1099 50 L522 50 C241 50 138 184 138 350 C138 516 241 650 522 650 L1099 650 L1099 700 L521 700 C204 700 80 543 80 350 C80 157 204 0 521 0 L629 0 L602 -96 Z " />
<glyph glyph-name="Egrave" unicode="&#xc8;" horiz-adv-x="1199" d="M127 0 L1114 0 L1114 50 L182 50 L182 327 L1012 327 L1012 373 L182 373 L182 650 L1114 650 L1114 700 L127 700 L127 0 Z M554 946 L485 946 L630 775 L666 775 L554 946 Z " />
<glyph glyph-name="Eacute" unicode="&#xc9;" horiz-adv-x="1199" d="M127 0 L1114 0 L1114 50 L182 50 L182 327 L1012 327 L1012 373 L182 373 L182 650 L1114 650 L1114 700 L127 700 L127 0 Z M551 775 L587 775 L732 946 L663 946 L551 775 Z " />
<glyph glyph-name="Ecircumflex" unicode="&#xca;" horiz-adv-x="1199" d="M127 0 L1114 0 L1114 50 L182 50 L182 327 L1012 327 L1012 373 L182 373 L182 650 L1114 650 L1114 700 L127 700 L127 0 Z M643 946 L573 946 L447 775 L482 775 L608 913 L734 775 L771 775 L643 946 Z " />
<glyph glyph-name="Edieresis" unicode="&#xcb;" horiz-adv-x="1199" d="M127 0 L1114 0 L1114 50 L182 50 L182 327 L1012 327 L1012 373 L182 373 L182 650 L1114 650 L1114 700 L127 700 L127 0 Z M701 827 L767 827 L767 893 L701 893 L701 827 Z M451 827 L517 827 L517 893 L451 893 L451 827 Z " />
<glyph glyph-name="Igrave" unicode="&#xcc;" horiz-adv-x="309" d="M127 0 L182 0 L182 700 L127 700 L127 0 Z M100 946 L31 946 L176 775 L212 775 L100 946 Z " />
<glyph glyph-name="Iacute" unicode="&#xcd;" horiz-adv-x="309" d="M127 0 L182 0 L182 700 L127 700 L127 0 Z M97 775 L133 775 L278 946 L209 946 L97 775 Z " />
<glyph glyph-name="Icircumflex" unicode="&#xce;" horiz-adv-x="309" d="M127 0 L182 0 L182 700 L127 700 L127 0 Z M189 946 L119 946 L-7 775 L28 775 L154 913 L280 775 L317 775 L189 946 Z " />
<glyph glyph-name="Idieresis" unicode="&#xcf;" horiz-adv-x="309" d="M127 0 L182 0 L182 700 L127 700 L127 0 Z M247 827 L313 827 L313 893 L247 893 L247 827 Z M-3 827 L63 827 L63 893 L-3 893 L-3 827 Z " />
<glyph glyph-name="Eth" unicode="&#xd0;" horiz-adv-x="1255" d="M-3 327 L127 327 L127 0 L734 0 C1051 0 1175 157 1175 350 C1175 543 1051 700 734 700 L127 700 L127 373 L-3 373 L-3 327 Z M733 650 C1014 650 1117 516 1117 350 C1117 184 1014 50 733 50 L182 50 L182 327 L634 327 L634 373 L182 373 L182 650 L733 650 Z " />
<glyph glyph-name="Ntilde" unicode="&#xd1;" horiz-adv-x="1303" d="M1124 0 L1176 0 L1176 700 L1121 700 L1121 65 L179 700 L127 700 L127 0 L182 0 L182 635 L1124 0 Z M789 925 C782 857 758 847 729 847 C679 847 638 916 573 916 C526 916 493 891 483 796 L513 796 C520 864 544 874 573 874 C623 874 664 805 729 805 C776 805 810 830 819 925 L789 925 Z " />
<glyph glyph-name="Ograve" unicode="&#xd2;" horiz-adv-x="1348" d="M814 -10 C1140 -10 1268 151 1268 350 C1268 549 1140 710 814 710 L534 710 C208 710 80 549 80 350 C80 151 208 -10 534 -10 L814 -10 Z M535 40 C245 40 138 178 138 350 C138 522 245 660 535 660 L813 660 C1103 660 1210 522 1210 350 C1210 178 1103 40 813 40 L535 40 Z M619 946 L550 946 L695 775 L731 775 L619 946 Z " />
<glyph glyph-name="Oacute" unicode="&#xd3;" horiz-adv-x="1348" d="M814 -10 C1140 -10 1268 151 1268 350 C1268 549 1140 710 814 710 L534 710 C208 710 80 549 80 350 C80 151 208 -10 534 -10 L814 -10 Z M535 40 C245 40 138 178 138 350 C138 522 245 660 535 660 L813 660 C1103 660 1210 522 1210 350 C1210 178 1103 40 813 40 L535 40 Z M616 775 L652 775 L797 946 L728 946 L616 775 Z " />
<glyph glyph-name="Ocircumflex" unicode="&#xd4;" horiz-adv-x="1348" d="M814 -10 C1140 -10 1268 151 1268 350 C1268 549 1140 710 814 710 L534 710 C208 710 80 549 80 350 C80 151 208 -10 534 -10 L814 -10 Z M535 40 C245 40 138 178 138 350 C138 522 245 660 535 660 L813 660 C1103 660 1210 522 1210 350 C1210 178 1103 40 813 40 L535 40 Z M708 946 L638 946 L512 775 L547 775 L673 913 L799 775 L836 775 L708 946 Z " />
<glyph glyph-name="Otilde" unicode="&#xd5;" horiz-adv-x="1348" d="M814 -10 C1140 -10 1268 151 1268 350 C1268 549 1140 710 814 710 L534 710 C208 710 80 549 80 350 C80 151 208 -10 534 -10 L814 -10 Z M535 40 C245 40 138 178 138 350 C138 522 245 660 535 660 L813 660 C1103 660 1210 522 1210 350 C1210 178 1103 40 813 40 L535 40 Z M812 925 C805 857 781 847 752 847 C702 847 661 916 596 916 C549 916 516 891 506 796 L536 796 C543 864 567 874 596 874 C646 874 687 805 752 805 C799 805 833 830 842 925 L812 925 Z " />
<glyph glyph-name="Odieresis" unicode="&#xd6;" horiz-adv-x="1348" d="M814 -10 C1140 -10 1268 151 1268 350 C1268 549 1140 710 814 710 L534 710 C208 710 80 549 80 350 C80 151 208 -10 534 -10 L814 -10 Z M535 40 C245 40 138 178 138 350 C138 522 245 660 535 660 L813 660 C1103 660 1210 522 1210 350 C1210 178 1103 40 813 40 L535 40 Z M766 827 L832 827 L832 893 L766 893 L766 827 Z M516 827 L582 827 L582 893 L516 893 L516 827 Z " />
<glyph glyph-name="multiply" unicode="&#xd7;" horiz-adv-x="1298" d="M948 598 L911 635 L647 383 L386 633 L349 596 L611 349 L349 102 L386 65 L648 315 L911 65 L948 102 L684 350 L948 598 Z " />
<glyph glyph-name="Oslash" unicode="&#xd8;" horiz-adv-x="1348" d="M814 -10 C1140 -10 1268 151 1268 350 C1268 509 1186 643 987 691 L1077 800 L1011 800 L930 702 C895 707 856 710 814 710 L534 710 C208 710 80 549 80 350 C80 191 161 57 359 9 L270 -100 L335 -100 L416 -2 C452 -7 491 -10 534 -10 L814 -10 Z M535 40 C506 40 479 41 454 44 L951 647 C1138 609 1210 491 1210 350 C1210 178 1103 40 813 40 L535 40 Z M138 350 C138 522 245 660 535 660 L813 660 C841 660 867 658 892 656 L395 52 C210 90 138 209 138 350 L138 350 Z " />
<glyph glyph-name="Ugrave" unicode="&#xd9;" horiz-adv-x="1275" d="M162 323 L162 700 L107 700 L107 323 C107 130 211 -10 528 -10 L747 -10 C1064 -10 1168 130 1168 323 L1168 700 L1113 700 L1113 323 C1113 158 1026 40 746 40 L529 40 C249 40 162 158 162 323 L162 323 Z M582 946 L513 946 L658 775 L694 775 L582 946 Z " />
<glyph glyph-name="Uacute" unicode="&#xda;" horiz-adv-x="1275" d="M162 323 L162 700 L107 700 L107 323 C107 130 211 -10 528 -10 L747 -10 C1064 -10 1168 130 1168 323 L1168 700 L1113 700 L1113 323 C1113 158 1026 40 746 40 L529 40 C249 40 162 158 162 323 L162 323 Z M579 775 L615 775 L760 946 L691 946 L579 775 Z " />
<glyph glyph-name="Ucircumflex" unicode="&#xdb;" horiz-adv-x="1275" d="M162 323 L162 700 L107 700 L107 323 C107 130 211 -10 528 -10 L747 -10 C1064 -10 1168 130 1168 323 L1168 700 L1113 700 L1113 323 C1113 158 1026 40 746 40 L529 40 C249 40 162 158 162 323 L162 323 Z M671 946 L601 946 L475 775 L510 775 L636 913 L762 775 L799 775 L671 946 Z " />
<glyph glyph-name="Udieresis" unicode="&#xdc;" horiz-adv-x="1275" d="M162 323 L162 700 L107 700 L107 323 C107 130 211 -10 528 -10 L747 -10 C1064 -10 1168 130 1168 323 L1168 700 L1113 700 L1113 323 C1113 158 1026 40 746 40 L529 40 C249 40 162 158 162 323 L162 323 Z M729 827 L795 827 L795 893 L729 893 L729 827 Z M479 827 L545 827 L545 893 L479 893 L479 827 Z " />
<glyph glyph-name="Yacute" unicode="&#xdd;" horiz-adv-x="1243" d="M594 0 L649 0 L649 211 L1238 700 L1156 700 L622 254 L87 700 L5 700 L594 211 L594 0 Z M563 775 L599 775 L744 946 L675 946 L563 775 Z " />
<glyph glyph-name="Thorn" unicode="&#xde;" horiz-adv-x="1195" d="M127 0 L182 0 L182 143 L896 143 C1086 143 1159 233 1159 350 C1159 464 1086 557 896 557 L182 557 L182 700 L127 700 L127 0 Z M894 508 C1048 508 1101 437 1101 350 C1101 261 1047 192 894 192 L182 192 L182 508 L894 508 Z " />
<glyph glyph-name="germandbls" unicode="&#xdf;" horiz-adv-x="1089" d="M501 260 L832 260 C944 260 977 212 977 152 C977 93 944 45 832 45 L349 45 L349 0 L834 0 C980 0 1030 67 1030 150 C1030 235 980 300 834 300 L580 300 L950 524 L950 560 L454 560 C185 560 97 450 97 296 L97 0 L147 0 L147 296 C147 425 220 515 455 515 L858 515 L501 296 L501 260 Z " />
<glyph glyph-name="agrave" unicode="&#xe0;" horiz-adv-x="1082" d="M1003 0 L1066 0 L569 560 L513 560 L16 0 L79 0 L187 122 L894 122 L1003 0 Z M541 519 L858 163 L224 163 L541 519 Z M486 806 L417 806 L562 635 L598 635 L486 806 Z " />
<glyph glyph-name="aacute" unicode="&#xe1;" horiz-adv-x="1082" d="M1003 0 L1066 0 L569 560 L513 560 L16 0 L79 0 L187 122 L894 122 L1003 0 Z M541 519 L858 163 L224 163 L541 519 Z M483 635 L519 635 L664 806 L595 806 L483 635 Z " />
<glyph glyph-name="acircumflex" unicode="&#xe2;" horiz-adv-x="1082" d="M1003 0 L1066 0 L569 560 L513 560 L16 0 L79 0 L187 122 L894 122 L1003 0 Z M541 519 L858 163 L224 163 L541 519 Z M575 806 L505 806 L379 635 L414 635 L540 773 L666 635 L703 635 L575 806 Z " />
<glyph glyph-name="atilde" unicode="&#xe3;" horiz-adv-x="1082" d="M1003 0 L1066 0 L569 560 L513 560 L16 0 L79 0 L187 122 L894 122 L1003 0 Z M541 519 L858 163 L224 163 L541 519 Z M679 785 C672 717 648 707 619 707 C569 707 528 776 463 776 C416 776 383 751 373 656 L403 656 C410 724 434 734 463 734 C513 734 554 665 619 665 C666 665 700 690 709 785 L679 785 Z " />
<glyph glyph-name="adieresis" unicode="&#xe4;" horiz-adv-x="1082" d="M1003 0 L1066 0 L569 560 L513 560 L16 0 L79 0 L187 122 L894 122 L1003 0 Z M541 519 L858 163 L224 163 L541 519 Z M633 687 L699 687 L699 753 L633 753 L633 687 Z M383 687 L449 687 L449 753 L383 753 L383 687 Z " />
<glyph glyph-name="aring" unicode="&#xe5;" horiz-adv-x="1082" d="M1003 0 L1066 0 L569 560 L513 560 L16 0 L79 0 L187 122 L894 122 L1003 0 Z M541 519 L858 163 L224 163 L541 519 Z M466 721 C466 762 500 796 541 796 C583 796 616 762 616 721 C616 679 583 646 541 646 C500 646 466 679 466 721 L466 721 Z M431 721 C431 661 478 613 541 613 C603 613 651 661 651 721 C651 781 603 828 541 828 C478 828 431 781 431 721 L431 721 Z " />
<glyph glyph-name="ae" unicode="&#xe6;" horiz-adv-x="1454" d="M626 116 L626 0 L1376 0 L1376 45 L676 45 L676 260 L1289 260 L1289 300 L676 300 L676 515 L1376 515 L1376 560 L598 560 L16 0 L80 0 L201 116 L626 116 Z M626 523 L626 157 L244 157 L626 523 Z " />
<glyph glyph-name="ccedilla" unicode="&#xe7;" horiz-adv-x="1016" d="M508 -96 L526 -96 C597 -96 636 -111 636 -157 C636 -238 485 -223 439 -200 L439 -226 C511 -261 679 -271 679 -158 C679 -84 615 -69 545 -69 L540 -69 L559 0 L939 0 L939 45 L440 45 C204 45 127 150 127 280 C127 410 204 515 440 515 L939 515 L939 560 L440 560 C170 560 73 434 73 280 C73 126 170 0 440 0 L535 0 L508 -96 Z " />
<glyph glyph-name="egrave" unicode="&#xe8;" horiz-adv-x="1034" d="M117 0 L956 0 L956 45 L168 45 L168 260 L869 260 L869 300 L168 300 L168 515 L956 515 L956 560 L117 560 L117 0 Z M474 806 L405 806 L550 635 L586 635 L474 806 Z " />
<glyph glyph-name="eacute" unicode="&#xe9;" horiz-adv-x="1034" d="M117 0 L956 0 L956 45 L168 45 L168 260 L869 260 L869 300 L168 300 L168 515 L956 515 L956 560 L117 560 L117 0 Z M471 635 L507 635 L652 806 L583 806 L471 635 Z " />
<glyph glyph-name="ecircumflex" unicode="&#xea;" horiz-adv-x="1034" d="M117 0 L956 0 L956 45 L168 45 L168 260 L869 260 L869 300 L168 300 L168 515 L956 515 L956 560 L117 560 L117 0 Z M563 806 L493 806 L367 635 L402 635 L528 773 L654 635 L691 635 L563 806 Z " />
<glyph glyph-name="edieresis" unicode="&#xeb;" horiz-adv-x="1034" d="M117 0 L956 0 L956 45 L168 45 L168 260 L869 260 L869 300 L168 300 L168 515 L956 515 L956 560 L117 560 L117 0 Z M621 687 L687 687 L687 753 L621 753 L621 687 Z M371 687 L437 687 L437 753 L371 753 L371 687 Z " />
<glyph glyph-name="igrave" unicode="&#xec;" horiz-adv-x="285" d="M117 0 L168 0 L168 560 L117 560 L117 0 Z M88 806 L19 806 L164 635 L200 635 L88 806 Z " />
<glyph glyph-name="iacute" unicode="&#xed;" horiz-adv-x="285" d="M117 0 L168 0 L168 560 L117 560 L117 0 Z M85 635 L121 635 L266 806 L197 806 L85 635 Z " />
<glyph glyph-name="icircumflex" unicode="&#xee;" horiz-adv-x="285" d="M117 0 L168 0 L168 560 L117 560 L117 0 Z M177 806 L107 806 L-19 635 L16 635 L142 773 L268 635 L305 635 L177 806 Z " />
<glyph glyph-name="idieresis" unicode="&#xef;" horiz-adv-x="285" d="M117 0 L168 0 L168 560 L117 560 L117 0 Z M235 687 L301 687 L301 753 L235 753 L235 687 Z M-15 687 L51 687 L51 753 L-15 753 L-15 687 Z " />
<glyph glyph-name="eth" unicode="&#xf0;" horiz-adv-x="1081" d="M-3 260 L117 260 L117 0 L641 0 C911 0 1008 126 1008 280 C1008 434 911 560 641 560 L117 560 L117 300 L-3 300 L-3 260 Z M641 515 C878 515 955 410 955 280 C955 150 878 45 641 45 L168 45 L168 260 L561 260 L561 300 L168 300 L168 515 L641 515 Z " />
<glyph glyph-name="ntilde" unicode="&#xf1;" horiz-adv-x="1127" d="M1010 0 L1010 560 L959 560 L959 58 L165 560 L117 560 L117 0 L168 0 L168 502 L961 0 L1010 0 Z M701 785 C694 717 670 707 641 707 C591 707 550 776 485 776 C438 776 405 751 395 656 L425 656 C432 724 456 734 485 734 C535 734 576 665 641 665 C688 665 722 690 731 785 L701 785 Z " />
<glyph glyph-name="ograve" unicode="&#xf2;" horiz-adv-x="1156" d="M705 -8 C982 -8 1083 121 1083 280 C1083 439 982 568 705 568 L451 568 C174 568 73 439 73 280 C73 121 174 -8 451 -8 L705 -8 Z M452 37 C208 37 126 145 126 280 C126 415 208 523 452 523 L704 523 C949 523 1030 415 1030 280 C1030 145 949 37 704 37 L452 37 Z M523 806 L454 806 L599 635 L635 635 L523 806 Z " />
<glyph glyph-name="oacute" unicode="&#xf3;" horiz-adv-x="1156" d="M705 -8 C982 -8 1083 121 1083 280 C1083 439 982 568 705 568 L451 568 C174 568 73 439 73 280 C73 121 174 -8 451 -8 L705 -8 Z M452 37 C208 37 126 145 126 280 C126 415 208 523 452 523 L704 523 C949 523 1030 415 1030 280 C1030 145 949 37 704 37 L452 37 Z M520 635 L556 635 L701 806 L632 806 L520 635 Z " />
<glyph glyph-name="ocircumflex" unicode="&#xf4;" horiz-adv-x="1156" d="M705 -8 C982 -8 1083 121 1083 280 C1083 439 982 568 705 568 L451 568 C174 568 73 439 73 280 C73 121 174 -8 451 -8 L705 -8 Z M452 37 C208 37 126 145 126 280 C126 415 208 523 452 523 L704 523 C949 523 1030 415 1030 280 C1030 145 949 37 704 37 L452 37 Z M612 806 L542 806 L416 635 L451 635 L577 773 L703 635 L740 635 L612 806 Z " />
<glyph glyph-name="otilde" unicode="&#xf5;" horiz-adv-x="1156" d="M705 -8 C982 -8 1083 121 1083 280 C1083 439 982 568 705 568 L451 568 C174 568 73 439 73 280 C73 121 174 -8 451 -8 L705 -8 Z M452 37 C208 37 126 145 126 280 C126 415 208 523 452 523 L704 523 C949 523 1030 415 1030 280 C1030 145 949 37 704 37 L452 37 Z M716 785 C709 717 685 707 656 707 C606 707 565 776 500 776 C453 776 420 751 410 656 L440 656 C447 724 471 734 500 734 C550 734 591 665 656 665 C703 665 737 690 746 785 L716 785 Z " />
<glyph glyph-name="odieresis" unicode="&#xf6;" horiz-adv-x="1156" d="M705 -8 C982 -8 1083 121 1083 280 C1083 439 982 568 705 568 L451 568 C174 568 73 439 73 280 C73 121 174 -8 451 -8 L705 -8 Z M452 37 C208 37 126 145 126 280 C126 415 208 523 452 523 L704 523 C949 523 1030 415 1030 280 C1030 145 949 37 704 37 L452 37 Z M670 687 L736 687 L736 753 L670 753 L670 687 Z M420 687 L486 687 L486 753 L420 753 L420 687 Z " />
<glyph glyph-name="divide" unicode="&#xf7;" horiz-adv-x="1298" d="M292 325 L1006 325 L1006 375 L292 375 L292 325 Z M617 55 L680 55 L680 117 L617 117 L617 55 Z M617 583 L680 583 L680 645 L617 645 L617 583 Z " />
<glyph glyph-name="oslash" unicode="&#xf8;" horiz-adv-x="1156" d="M705 -8 C982 -8 1083 121 1083 280 C1083 408 1017 516 846 554 L921 640 L861 640 L794 563 C766 566 737 568 705 568 L451 568 C174 568 73 439 73 280 C73 152 139 43 309 6 L234 -80 L294 -80 L361 -2 C389 -6 419 -8 451 -8 L705 -8 Z M452 37 C433 37 415 37 398 39 L812 514 C973 486 1030 393 1030 280 C1030 145 949 37 704 37 L452 37 Z M126 280 C126 415 208 523 452 523 L704 523 C723 523 740 522 757 521 L343 45 C183 73 126 167 126 280 L126 280 Z " />
<glyph glyph-name="ugrave" unicode="&#xf9;" horiz-adv-x="1096" d="M147 258 L147 560 L97 560 L97 258 C97 104 177 -8 446 -8 L649 -8 C918 -8 999 104 999 258 L999 560 L948 560 L948 258 C948 129 884 37 648 37 L447 37 C212 37 147 129 147 258 L147 258 Z M493 806 L424 806 L569 635 L605 635 L493 806 Z " />
<glyph glyph-name="uacute" unicode="&#xfa;" horiz-adv-x="1096" d="M147 258 L147 560 L97 560 L97 258 C97 104 177 -8 446 -8 L649 -8 C918 -8 999 104 999 258 L999 560 L948 560 L948 258 C948 129 884 37 648 37 L447 37 C212 37 147 129 147 258 L147 258 Z M490 635 L526 635 L671 806 L602 806 L490 635 Z " />
<glyph glyph-name="ucircumflex" unicode="&#xfb;" horiz-adv-x="1096" d="M147 258 L147 560 L97 560 L97 258 C97 104 177 -8 446 -8 L649 -8 C918 -8 999 104 999 258 L999 560 L948 560 L948 258 C948 129 884 37 648 37 L447 37 C212 37 147 129 147 258 L147 258 Z M582 806 L512 806 L386 635 L421 635 L547 773 L673 635 L710 635 L582 806 Z " />
<glyph glyph-name="udieresis" unicode="&#xfc;" horiz-adv-x="1096" d="M147 258 L147 560 L97 560 L97 258 C97 104 177 -8 446 -8 L649 -8 C918 -8 999 104 999 258 L999 560 L948 560 L948 258 C948 129 884 37 648 37 L447 37 C212 37 147 129 147 258 L147 258 Z M640 687 L706 687 L706 753 L640 753 L640 687 Z M390 687 L456 687 L456 753 L390 753 L390 687 Z " />
<glyph glyph-name="yacute" unicode="&#xfd;" horiz-adv-x="1059" d="M505 0 L555 0 L555 169 L1054 560 L979 560 L530 208 L80 560 L5 560 L505 169 L505 0 Z M471 635 L507 635 L652 806 L583 806 L471 635 Z " />
<glyph glyph-name="thorn" unicode="&#xfe;" horiz-adv-x="1042" d="M117 0 L168 0 L168 113 L777 113 C939 113 995 186 995 280 C995 372 939 447 777 447 L168 447 L168 560 L117 560 L117 0 Z M774 402 C904 402 942 348 942 280 C942 211 903 158 774 158 L168 158 L168 402 L774 402 Z " />
<glyph glyph-name="ydieresis" unicode="&#xff;" horiz-adv-x="1059" d="M505 0 L555 0 L555 169 L1054 560 L979 560 L530 208 L80 560 L5 560 L505 169 L505 0 Z M621 687 L687 687 L687 753 L621 753 L621 687 Z M371 687 L437 687 L437 753 L371 753 L371 687 Z " />
<glyph glyph-name="Amacron" unicode="&#x100;" horiz-adv-x="1263" d="M1180 0 L1248 0 L662 700 L602 700 L15 0 L83 0 L207 148 L1056 148 L1180 0 Z M632 655 L1017 194 L245 194 L632 655 Z M457 841 L805 841 L805 879 L457 879 L457 841 Z " />
<glyph glyph-name="amacron" unicode="&#x101;" horiz-adv-x="1082" d="M1003 0 L1066 0 L569 560 L513 560 L16 0 L79 0 L187 122 L894 122 L1003 0 Z M541 519 L858 163 L224 163 L541 519 Z M367 701 L715 701 L715 739 L367 739 L367 701 Z " />
<glyph glyph-name="Abreve" unicode="&#x102;" horiz-adv-x="1263" d="M1180 0 L1248 0 L662 700 L602 700 L15 0 L83 0 L207 148 L1056 148 L1180 0 Z M632 655 L1017 194 L245 194 L632 655 Z M631 830 C543 830 511 877 506 931 L474 931 C479 862 516 790 631 790 C745 790 782 862 788 931 L756 931 C750 877 719 830 631 830 L631 830 Z " />
<glyph glyph-name="abreve" unicode="&#x103;" horiz-adv-x="1082" d="M1003 0 L1066 0 L569 560 L513 560 L16 0 L79 0 L187 122 L894 122 L1003 0 Z M541 519 L858 163 L224 163 L541 519 Z M541 690 C453 690 421 737 416 791 L384 791 C389 722 426 650 541 650 C655 650 692 722 698 791 L666 791 C660 737 629 690 541 690 L541 690 Z " />
<glyph glyph-name="Aogonek" unicode="&#x104;" horiz-adv-x="1263" d="M1021 -158 C1021 -211 1064 -241 1129 -241 C1165 -241 1197 -235 1236 -218 L1236 -191 C1199 -207 1174 -211 1146 -211 C1101 -211 1068 -188 1068 -147 C1068 -77 1140 -28 1221 0 L1248 0 L662 700 L602 700 L15 0 L83 0 L207 148 L1056 148 L1180 0 C1106 -22 1021 -81 1021 -158 L1021 -158 Z M632 655 L1017 194 L245 194 L632 655 Z " />
<glyph glyph-name="aogonek" unicode="&#x105;" horiz-adv-x="1082" d="M844 -158 C844 -211 887 -241 952 -241 C988 -241 1020 -235 1059 -218 L1059 -191 C1022 -207 997 -211 969 -211 C924 -211 891 -188 891 -147 C891 -77 963 -28 1044 0 L1066 0 L569 560 L513 560 L16 0 L79 0 L187 122 L894 122 L1003 0 C929 -22 844 -81 844 -158 L844 -158 Z M541 519 L858 163 L224 163 L541 519 Z " />
<glyph glyph-name="Cacute" unicode="&#x106;" horiz-adv-x="1184" d="M138 350 C138 516 241 650 522 650 L1099 650 L1099 700 L521 700 C204 700 80 543 80 350 C80 157 204 0 521 0 L1099 0 L1099 50 L522 50 C241 50 138 184 138 350 L138 350 Z M584 775 L620 775 L765 946 L696 946 L584 775 Z " />
<glyph glyph-name="cacute" unicode="&#x107;" horiz-adv-x="1016" d="M127 280 C127 410 204 515 440 515 L939 515 L939 560 L440 560 C170 560 73 434 73 280 C73 126 170 0 440 0 L939 0 L939 45 L440 45 C204 45 127 150 127 280 L127 280 Z M490 635 L526 635 L671 806 L602 806 L490 635 Z " />
<glyph glyph-name="Ccircumflex" unicode="&#x108;" horiz-adv-x="1184" d="M138 350 C138 516 241 650 522 650 L1099 650 L1099 700 L521 700 C204 700 80 543 80 350 C80 157 204 0 521 0 L1099 0 L1099 50 L522 50 C241 50 138 184 138 350 L138 350 Z M676 946 L606 946 L480 775 L515 775 L641 913 L767 775 L804 775 L676 946 Z " />
<glyph glyph-name="ccircumflex" unicode="&#x109;" horiz-adv-x="1016" d="M127 280 C127 410 204 515 440 515 L939 515 L939 560 L440 560 C170 560 73 434 73 280 C73 126 170 0 440 0 L939 0 L939 45 L440 45 C204 45 127 150 127 280 L127 280 Z M582 806 L512 806 L386 635 L421 635 L547 773 L673 635 L710 635 L582 806 Z " />
<glyph glyph-name="Cdotaccent" unicode="&#x10a;" horiz-adv-x="1184" d="M138 350 C138 516 241 650 522 650 L1099 650 L1099 700 L521 700 C204 700 80 543 80 350 C80 157 204 0 521 0 L1099 0 L1099 50 L522 50 C241 50 138 184 138 350 L138 350 Z M609 827 L675 827 L675 893 L609 893 L609 827 Z " />
<glyph glyph-name="cdotaccent" unicode="&#x10b;" horiz-adv-x="1016" d="M127 280 C127 410 204 515 440 515 L939 515 L939 560 L440 560 C170 560 73 434 73 280 C73 126 170 0 440 0 L939 0 L939 45 L440 45 C204 45 127 150 127 280 L127 280 Z M515 687 L581 687 L581 753 L515 753 L515 687 Z " />
<glyph glyph-name="Ccaron" unicode="&#x10c;" horiz-adv-x="1184" d="M138 350 C138 516 241 650 522 650 L1099 650 L1099 700 L521 700 C204 700 80 543 80 350 C80 157 204 0 521 0 L1099 0 L1099 50 L522 50 C241 50 138 184 138 350 L138 350 Z M804 946 L767 946 L641 808 L515 946 L480 946 L606 775 L676 775 L804 946 Z " />
<glyph glyph-name="ccaron" unicode="&#x10d;" horiz-adv-x="1016" d="M127 280 C127 410 204 515 440 515 L939 515 L939 560 L440 560 C170 560 73 434 73 280 C73 126 170 0 440 0 L939 0 L939 45 L440 45 C204 45 127 150 127 280 L127 280 Z M710 806 L673 806 L547 668 L421 806 L386 806 L512 635 L582 635 L710 806 Z " />
<glyph glyph-name="Dcaron" unicode="&#x10e;" horiz-adv-x="1255" d="M127 0 L734 0 C1051 0 1175 157 1175 350 C1175 543 1051 700 734 700 L127 700 L127 0 Z M733 650 C1014 650 1117 516 1117 350 C1117 184 1014 50 733 50 L182 50 L182 650 L733 650 Z M774 946 L737 946 L611 808 L485 946 L450 946 L576 775 L646 775 L774 946 Z " />
<glyph glyph-name="dcaron" unicode="&#x10f;" horiz-adv-x="1081" d="M693 806 L656 806 L530 668 L404 806 L369 806 L495 635 L565 635 L693 806 Z M117 0 L641 0 C911 0 1008 126 1008 280 C1008 434 911 560 641 560 L117 560 L117 0 Z M641 515 C878 515 955 410 955 280 C955 150 878 45 641 45 L168 45 L168 515 L641 515 Z " />
<glyph glyph-name="Dcroat" unicode="&#x110;" horiz-adv-x="1255" d="M-3 327 L127 327 L127 0 L734 0 C1051 0 1175 157 1175 350 C1175 543 1051 700 734 700 L127 700 L127 373 L-3 373 L-3 327 Z M733 650 C1014 650 1117 516 1117 350 C1117 184 1014 50 733 50 L182 50 L182 327 L634 327 L634 373 L182 373 L182 650 L733 650 Z " />
<glyph glyph-name="dcroat" unicode="&#x111;" horiz-adv-x="1081" d="M-3 260 L117 260 L117 0 L641 0 C911 0 1008 126 1008 280 C1008 434 911 560 641 560 L117 560 L117 300 L-3 300 L-3 260 Z M641 515 C878 515 955 410 955 280 C955 150 878 45 641 45 L168 45 L168 260 L561 260 L561 300 L168 300 L168 515 L641 515 Z " />
<glyph glyph-name="Emacron" unicode="&#x112;" horiz-adv-x="1199" d="M127 0 L1114 0 L1114 50 L182 50 L182 327 L1012 327 L1012 373 L182 373 L182 650 L1114 650 L1114 700 L127 700 L127 0 Z M435 841 L783 841 L783 879 L435 879 L435 841 Z " />
<glyph glyph-name="emacron" unicode="&#x113;" horiz-adv-x="1034" d="M117 0 L956 0 L956 45 L168 45 L168 260 L869 260 L869 300 L168 300 L168 515 L956 515 L956 560 L117 560 L117 0 Z M355 701 L703 701 L703 739 L355 739 L355 701 Z " />
<glyph glyph-name="Ebreve" unicode="&#x114;" horiz-adv-x="1199" d="M127 0 L1114 0 L1114 50 L182 50 L182 327 L1012 327 L1012 373 L182 373 L182 650 L1114 650 L1114 700 L127 700 L127 0 Z M609 830 C521 830 489 877 484 931 L452 931 C457 862 494 790 609 790 C723 790 760 862 766 931 L734 931 C728 877 697 830 609 830 L609 830 Z " />
<glyph glyph-name="ebreve" unicode="&#x115;" horiz-adv-x="1034" d="M117 0 L956 0 L956 45 L168 45 L168 260 L869 260 L869 300 L168 300 L168 515 L956 515 L956 560 L117 560 L117 0 Z M529 690 C441 690 409 737 404 791 L372 791 C377 722 414 650 529 650 C643 650 680 722 686 791 L654 791 C648 737 617 690 529 690 L529 690 Z " />
<glyph glyph-name="Edotaccent" unicode="&#x116;" horiz-adv-x="1199" d="M127 0 L1114 0 L1114 50 L182 50 L182 327 L1012 327 L1012 373 L182 373 L182 650 L1114 650 L1114 700 L127 700 L127 0 Z M576 827 L642 827 L642 893 L576 893 L576 827 Z " />
<glyph glyph-name="edotaccent" unicode="&#x117;" horiz-adv-x="1034" d="M117 0 L956 0 L956 45 L168 45 L168 260 L869 260 L869 300 L168 300 L168 515 L956 515 L956 560 L117 560 L117 0 Z M496 687 L562 687 L562 753 L496 753 L496 687 Z " />
<glyph glyph-name="Eogonek" unicode="&#x118;" horiz-adv-x="1199" d="M127 0 L1058 0 C984 -22 899 -81 899 -158 C899 -211 942 -241 1007 -241 C1043 -241 1075 -235 1114 -218 L1114 -191 C1077 -207 1052 -211 1024 -211 C979 -211 946 -188 946 -147 C946 -77 1018 -28 1099 0 L1114 0 L1114 50 L182 50 L182 327 L1012 327 L1012 373 L182 373 L182 650 L1114 650 L1114 700 L127 700 L127 0 Z " />
<glyph glyph-name="eogonek" unicode="&#x119;" horiz-adv-x="1034" d="M117 0 L900 0 C826 -22 741 -81 741 -158 C741 -211 784 -241 849 -241 C885 -241 917 -235 956 -218 L956 -191 C919 -207 894 -211 866 -211 C821 -211 788 -188 788 -147 C788 -77 860 -28 941 0 L956 0 L956 45 L168 45 L168 260 L869 260 L869 300 L168 300 L168 515 L956 515 L956 560 L117 560 L117 0 Z " />
<glyph glyph-name="Ecaron" unicode="&#x11a;" horiz-adv-x="1199" d="M127 0 L1114 0 L1114 50 L182 50 L182 327 L1012 327 L1012 373 L182 373 L182 650 L1114 650 L1114 700 L127 700 L127 0 Z M771 946 L734 946 L608 808 L482 946 L447 946 L573 775 L643 775 L771 946 Z " />
<glyph glyph-name="ecaron" unicode="&#x11b;" horiz-adv-x="1034" d="M117 0 L956 0 L956 45 L168 45 L168 260 L869 260 L869 300 L168 300 L168 515 L956 515 L956 560 L117 560 L117 0 Z M691 806 L654 806 L528 668 L402 806 L367 806 L493 635 L563 635 L691 806 Z " />
<glyph glyph-name="Gcircumflex" unicode="&#x11c;" horiz-adv-x="1256" d="M669 327 L1100 327 L1100 50 L522 50 C241 50 138 184 138 350 C138 516 241 650 522 650 L1099 650 L1099 700 L521 700 C204 700 80 543 80 350 C80 157 204 0 521 0 L1154 0 L1154 373 L669 373 L669 327 Z M686 946 L616 946 L490 775 L525 775 L651 913 L777 775 L814 775 L686 946 Z " />
<glyph glyph-name="gcircumflex" unicode="&#x11d;" horiz-adv-x="1081" d="M573 260 L936 260 L936 45 L440 45 C204 45 127 150 127 280 C127 410 204 515 440 515 L939 515 L939 560 L440 560 C170 560 73 434 73 280 C73 126 170 0 440 0 L986 0 L986 300 L573 300 L573 260 Z M586 806 L516 806 L390 635 L425 635 L551 773 L677 635 L714 635 L586 806 Z " />
<glyph glyph-name="Gbreve" unicode="&#x11e;" horiz-adv-x="1256" d="M669 327 L1100 327 L1100 50 L522 50 C241 50 138 184 138 350 C138 516 241 650 522 650 L1099 650 L1099 700 L521 700 C204 700 80 543 80 350 C80 157 204 0 521 0 L1154 0 L1154 373 L669 373 L669 327 Z M652 830 C564 830 532 877 527 931 L495 931 C500 862 537 790 652 790 C766 790 803 862 809 931 L777 931 C771 877 740 830 652 830 L652 830 Z " />
<glyph glyph-name="gbreve" unicode="&#x11f;" horiz-adv-x="1081" d="M573 260 L936 260 L936 45 L440 45 C204 45 127 150 127 280 C127 410 204 515 440 515 L939 515 L939 560 L440 560 C170 560 73 434 73 280 C73 126 170 0 440 0 L986 0 L986 300 L573 300 L573 260 Z M552 690 C464 690 432 737 427 791 L395 791 C400 722 437 650 552 650 C666 650 703 722 709 791 L677 791 C671 737 640 690 552 690 L552 690 Z " />
<glyph glyph-name="Gdotaccent" unicode="&#x120;" horiz-adv-x="1256" d="M669 327 L1100 327 L1100 50 L522 50 C241 50 138 184 138 350 C138 516 241 650 522 650 L1099 650 L1099 700 L521 700 C204 700 80 543 80 350 C80 157 204 0 521 0 L1154 0 L1154 373 L669 373 L669 327 Z M619 827 L685 827 L685 893 L619 893 L619 827 Z " />
<glyph glyph-name="gdotaccent" unicode="&#x121;" horiz-adv-x="1081" d="M573 260 L936 260 L936 45 L440 45 C204 45 127 150 127 280 C127 410 204 515 440 515 L939 515 L939 560 L440 560 C170 560 73 434 73 280 C73 126 170 0 440 0 L986 0 L986 300 L573 300 L573 260 Z M519 687 L585 687 L585 753 L519 753 L519 687 Z " />
<glyph glyph-name="uni0122" unicode="&#x122;" horiz-adv-x="1256" d="M669 327 L1100 327 L1100 50 L522 50 C241 50 138 184 138 350 C138 516 241 650 522 650 L1099 650 L1099 700 L521 700 C204 700 80 543 80 350 C80 157 204 0 521 0 L1154 0 L1154 373 L669 373 L669 327 Z M631 -194 L661 -194 L629 -284 L657 -284 L697 -190 L697 -128 L631 -128 L631 -194 Z " />
<glyph glyph-name="uni0123" unicode="&#x123;" horiz-adv-x="1081" d="M573 260 L936 260 L936 45 L440 45 C204 45 127 150 127 280 C127 410 204 515 440 515 L939 515 L939 560 L440 560 C170 560 73 434 73 280 C73 126 170 0 440 0 L986 0 L986 300 L573 300 L573 260 Z M529 -194 L559 -194 L527 -284 L555 -284 L595 -190 L595 -128 L529 -128 L529 -194 Z " />
<glyph glyph-name="Hcircumflex" unicode="&#x124;" horiz-adv-x="1305" d="M1123 0 L1178 0 L1178 700 L1123 700 L1123 375 L182 375 L182 700 L127 700 L127 0 L182 0 L182 325 L1123 325 L1123 0 Z M686 946 L616 946 L490 775 L525 775 L651 913 L777 775 L814 775 L686 946 Z " />
<glyph glyph-name="hcircumflex" unicode="&#x125;" horiz-adv-x="1128" d="M960 0 L1011 0 L1011 560 L960 560 L960 302 L168 302 L168 560 L117 560 L117 0 L168 0 L168 258 L960 258 L960 0 Z M598 806 L528 806 L402 635 L437 635 L563 773 L689 635 L726 635 L598 806 Z " />
<glyph glyph-name="Hbar" unicode="&#x126;" horiz-adv-x="1305" d="M27 520 L127 520 L127 0 L182 0 L182 325 L1123 325 L1123 0 L1178 0 L1178 520 L1278 520 L1278 554 L1178 554 L1178 700 L1123 700 L1123 554 L182 554 L182 700 L127 700 L127 554 L27 554 L27 520 Z M182 375 L182 520 L1123 520 L1123 375 L182 375 Z " />
<glyph glyph-name="hbar" unicode="&#x127;" horiz-adv-x="1128" d="M27 414 L117 414 L117 0 L168 0 L168 258 L960 258 L960 0 L1011 0 L1011 414 L1101 414 L1101 448 L1011 448 L1011 560 L960 560 L960 448 L168 448 L168 560 L117 560 L117 448 L27 448 L27 414 Z M168 302 L168 414 L960 414 L960 302 L168 302 Z " />
<glyph glyph-name="Itilde" unicode="&#x128;" horiz-adv-x="309" d="M127 0 L182 0 L182 700 L127 700 L127 0 Z M293 925 C286 857 262 847 233 847 C183 847 142 916 77 916 C30 916 -3 891 -13 796 L17 796 C24 864 48 874 77 874 C127 874 168 805 233 805 C280 805 314 830 323 925 L293 925 Z " />
<glyph glyph-name="itilde" unicode="&#x129;" horiz-adv-x="285" d="M117 0 L168 0 L168 560 L117 560 L117 0 Z M281 785 C274 717 250 707 221 707 C171 707 130 776 65 776 C18 776 -15 751 -25 656 L5 656 C12 724 36 734 65 734 C115 734 156 665 221 665 C268 665 302 690 311 785 L281 785 Z " />
<glyph glyph-name="Imacron" unicode="&#x12a;" horiz-adv-x="309" d="M127 0 L182 0 L182 700 L127 700 L127 0 Z M-19 841 L329 841 L329 879 L-19 879 L-19 841 Z " />
<glyph glyph-name="imacron" unicode="&#x12b;" horiz-adv-x="285" d="M117 0 L168 0 L168 560 L117 560 L117 0 Z M-31 701 L317 701 L317 739 L-31 739 L-31 701 Z " />
<glyph glyph-name="Ibreve" unicode="&#x12c;" horiz-adv-x="309" d="M127 0 L182 0 L182 700 L127 700 L127 0 Z M155 830 C67 830 35 877 30 931 L-2 931 C3 862 40 790 155 790 C269 790 306 862 312 931 L280 931 C274 877 243 830 155 830 L155 830 Z " />
<glyph glyph-name="ibreve" unicode="&#x12d;" horiz-adv-x="285" d="M117 0 L168 0 L168 560 L117 560 L117 0 Z M143 690 C55 690 23 737 18 791 L-14 791 C-9 722 28 650 143 650 C257 650 294 722 300 791 L268 791 C262 737 231 690 143 690 L143 690 Z " />
<glyph glyph-name="Iogonek" unicode="&#x12e;" horiz-adv-x="309" d="M17 -147 C17 -213 71 -241 125 -241 C161 -241 193 -235 232 -218 L232 -191 C195 -207 170 -211 142 -211 C91 -211 61 -184 61 -139 C61 -80 94 -40 157 0 L182 0 L182 700 L127 700 L127 0 C69 -31 17 -83 17 -147 L17 -147 Z " />
<glyph glyph-name="iogonek" unicode="&#x12f;" horiz-adv-x="285" d="M7 -147 C7 -213 61 -241 115 -241 C151 -241 183 -235 222 -218 L222 -191 C185 -207 160 -211 132 -211 C81 -211 51 -184 51 -139 C51 -80 84 -40 147 0 L168 0 L168 560 L117 560 L117 0 C59 -31 7 -83 7 -147 L7 -147 Z " />
<glyph glyph-name="Idotaccent" unicode="&#x130;" horiz-adv-x="309" d="M127 0 L182 0 L182 700 L127 700 L127 0 Z M122 827 L188 827 L188 893 L122 893 L122 827 Z " />
<glyph glyph-name="dotlessi" unicode="&#x131;" horiz-adv-x="285" d="M117 0 L168 0 L168 560 L117 560 L117 0 Z " />
<glyph glyph-name="IJ" unicode="&#x132;" horiz-adv-x="1271" d="M450 -5 L743 -5 C1060 -5 1164 132 1164 325 L1164 700 L1109 700 L1109 325 C1109 160 1022 45 742 45 L451 45 C234 45 162 148 162 275 L162 316 L107 316 L107 275 C107 121 196 -5 450 -5 L450 -5 Z M107 445 L162 445 L162 700 L107 700 L107 445 Z " />
<glyph glyph-name="ij" unicode="&#x133;" horiz-adv-x="1093" d="M97 356 L148 356 L148 560 L97 560 L97 356 Z M383 -4 L646 -4 C916 -4 996 106 996 260 L996 560 L946 560 L946 260 C946 131 881 41 646 41 L384 41 C202 41 148 121 148 220 L148 254 L97 254 L97 220 C97 97 167 -4 383 -4 L383 -4 Z " />
<glyph glyph-name="Jcircumflex" unicode="&#x134;" horiz-adv-x="1211" d="M390 -5 L683 -5 C1000 -5 1104 132 1104 325 L1104 700 L1049 700 L1049 325 C1049 160 962 45 682 45 L391 45 C174 45 102 148 102 275 L102 316 L47 316 L47 275 C47 121 136 -5 390 -5 L390 -5 Z M1081 946 L1011 946 L885 775 L920 775 L1046 913 L1172 775 L1209 775 L1081 946 Z " />
<glyph glyph-name="jcircumflex" unicode="&#x135;" horiz-adv-x="1043" d="M333 -4 L596 -4 C866 -4 946 106 946 260 L946 560 L896 560 L896 260 C896 131 831 41 596 41 L334 41 C152 41 98 121 98 220 L98 254 L47 254 L47 220 C47 97 117 -4 333 -4 L333 -4 Z M925 806 L855 806 L729 635 L764 635 L890 773 L1016 635 L1053 635 L925 806 Z " />
<glyph glyph-name="uni0136" unicode="&#x136;" horiz-adv-x="1284" d="M1183 700 L1084 700 L182 202 L182 700 L127 700 L127 0 L182 0 L182 146 L542 345 L1175 0 L1274 0 L593 374 L1183 700 Z M608 -194 L638 -194 L606 -284 L634 -284 L674 -190 L674 -128 L608 -128 L608 -194 Z " />
<glyph glyph-name="uni0137" unicode="&#x137;" horiz-adv-x="1109" d="M1022 560 L926 560 L168 166 L168 560 L117 560 L117 0 L168 0 L168 115 L474 274 L1001 0 L1094 0 L521 299 L1022 560 Z M519 -194 L549 -194 L517 -284 L545 -284 L585 -190 L585 -128 L519 -128 L519 -194 Z " />
<glyph glyph-name="kgreenlandic" unicode="&#x138;" horiz-adv-x="1227" d="M1171 470 L1141 470 L1173 560 L1145 560 L1105 466 L1105 404 L1171 404 L1171 470 Z M1022 560 L926 560 L168 166 L168 560 L117 560 L117 0 L168 0 L168 115 L474 274 L1001 0 L1094 0 L521 299 L1022 560 Z " />
<glyph glyph-name="Lacute" unicode="&#x139;" horiz-adv-x="1129" d="M182 700 L127 700 L127 0 L1094 0 L1094 50 L182 50 L182 700 Z M98 775 L134 775 L279 946 L210 946 L98 775 Z " />
<glyph glyph-name="lacute" unicode="&#x13a;" horiz-adv-x="987" d="M168 560 L117 560 L117 0 L939 0 L939 45 L168 45 L168 560 Z M86 635 L122 635 L267 806 L198 806 L86 635 Z " />
<glyph glyph-name="uni013B" unicode="&#x13b;" horiz-adv-x="1129" d="M182 700 L127 700 L127 0 L1094 0 L1094 50 L182 50 L182 700 Z M570 -194 L600 -194 L568 -284 L596 -284 L636 -190 L636 -128 L570 -128 L570 -194 Z " />
<glyph glyph-name="uni013C" unicode="&#x13c;" horiz-adv-x="987" d="M168 560 L117 560 L117 0 L939 0 L939 45 L168 45 L168 560 Z M496 -194 L526 -194 L494 -284 L522 -284 L562 -190 L562 -128 L496 -128 L496 -194 Z " />
<glyph glyph-name="Lcaron" unicode="&#x13d;" horiz-adv-x="1129" d="M182 700 L127 700 L127 0 L1094 0 L1094 50 L182 50 L182 700 Z M900 630 L934 630 L902 533 L930 533 L970 633 L970 700 L900 700 L900 630 Z " />
<glyph glyph-name="lcaron" unicode="&#x13e;" horiz-adv-x="987" d="M168 560 L117 560 L117 0 L939 0 L939 45 L168 45 L168 560 Z M779 494 L809 494 L777 404 L805 404 L845 498 L845 560 L779 560 L779 494 Z " />
<glyph glyph-name="Ldot" unicode="&#x13f;" horiz-adv-x="1129" d="M182 700 L127 700 L127 0 L1094 0 L1094 50 L182 50 L182 700 Z M719 342 L785 342 L785 408 L719 408 L719 342 Z " />
<glyph glyph-name="ldot" unicode="&#x140;" horiz-adv-x="987" d="M168 560 L117 560 L117 0 L939 0 L939 45 L168 45 L168 560 Z M631 269 L697 269 L697 335 L631 335 L631 269 Z " />
<glyph glyph-name="Lslash" unicode="&#x141;" horiz-adv-x="1129" d="M589 534 L182 324 L182 700 L127 700 L127 296 L28 246 L28 190 L127 241 L127 0 L1094 0 L1094 50 L182 50 L182 270 L589 479 L589 534 Z " />
<glyph glyph-name="lslash" unicode="&#x142;" horiz-adv-x="987" d="M510 431 L168 264 L168 560 L117 560 L117 240 L33 200 L33 149 L117 191 L117 0 L939 0 L939 45 L168 45 L168 216 L510 381 L510 431 Z " />
<glyph glyph-name="Nacute" unicode="&#x143;" horiz-adv-x="1303" d="M1124 0 L1176 0 L1176 700 L1121 700 L1121 65 L179 700 L127 700 L127 0 L182 0 L182 635 L1124 0 Z M594 775 L630 775 L775 946 L706 946 L594 775 Z " />
<glyph glyph-name="nacute" unicode="&#x144;" horiz-adv-x="1127" d="M1010 0 L1010 560 L959 560 L959 58 L165 560 L117 560 L117 0 L168 0 L168 502 L961 0 L1010 0 Z M506 635 L542 635 L687 806 L618 806 L506 635 Z " />
<glyph glyph-name="uni0145" unicode="&#x145;" horiz-adv-x="1303" d="M618 -194 L648 -194 L616 -284 L644 -284 L684 -190 L684 -128 L618 -128 L618 -194 Z M1124 0 L1176 0 L1176 700 L1121 700 L1121 65 L179 700 L127 700 L127 0 L182 0 L182 635 L1124 0 Z " />
<glyph glyph-name="uni0146" unicode="&#x146;" horiz-adv-x="1127" d="M530 -194 L560 -194 L528 -284 L556 -284 L596 -190 L596 -128 L530 -128 L530 -194 Z M1010 0 L1010 560 L959 560 L959 58 L165 560 L117 560 L117 0 L168 0 L168 502 L961 0 L1010 0 Z " />
<glyph glyph-name="Ncaron" unicode="&#x147;" horiz-adv-x="1303" d="M1124 0 L1176 0 L1176 700 L1121 700 L1121 65 L179 700 L127 700 L127 0 L182 0 L182 635 L1124 0 Z M813 946 L776 946 L650 808 L524 946 L489 946 L615 775 L685 775 L813 946 Z " />
<glyph glyph-name="ncaron" unicode="&#x148;" horiz-adv-x="1127" d="M1010 0 L1010 560 L959 560 L959 58 L165 560 L117 560 L117 0 L168 0 L168 502 L961 0 L1010 0 Z M725 806 L688 806 L562 668 L436 806 L401 806 L527 635 L597 635 L725 806 Z " />
<glyph glyph-name="napostrophe" unicode="&#x149;" horiz-adv-x="1293" d="M61 634 L91 634 L59 544 L87 544 L127 638 L127 700 L61 700 L61 634 Z M1176 0 L1176 560 L1125 560 L1125 58 L331 560 L283 560 L283 0 L334 0 L334 502 L1127 0 L1176 0 Z " />
<glyph glyph-name="Eng" unicode="&#x14a;" horiz-adv-x="1303" d="M752 -230 L939 -230 C1111 -230 1176 -146 1176 -43 L1176 700 L1121 700 L1121 64 L179 700 L127 700 L127 0 L182 0 L182 635 L1121 1 L1121 -43 C1121 -118 1073 -180 937 -180 L752 -180 L752 -230 Z " />
<glyph glyph-name="eng" unicode="&#x14b;" horiz-adv-x="1127" d="M648 -184 L813 -184 C960 -184 1010 -117 1010 -33 L1010 560 L959 560 L959 57 L165 560 L117 560 L117 0 L168 0 L168 502 L959 1 L959 -33 C959 -91 925 -139 812 -139 L648 -139 L648 -184 Z " />
<glyph glyph-name="Omacron" unicode="&#x14c;" horiz-adv-x="1348" d="M814 -10 C1140 -10 1268 151 1268 350 C1268 549 1140 710 814 710 L534 710 C208 710 80 549 80 350 C80 151 208 -10 534 -10 L814 -10 Z M535 40 C245 40 138 178 138 350 C138 522 245 660 535 660 L813 660 C1103 660 1210 522 1210 350 C1210 178 1103 40 813 40 L535 40 Z M500 841 L848 841 L848 879 L500 879 L500 841 Z " />
<glyph glyph-name="omacron" unicode="&#x14d;" horiz-adv-x="1156" d="M705 -8 C982 -8 1083 121 1083 280 C1083 439 982 568 705 568 L451 568 C174 568 73 439 73 280 C73 121 174 -8 451 -8 L705 -8 Z M452 37 C208 37 126 145 126 280 C126 415 208 523 452 523 L704 523 C949 523 1030 415 1030 280 C1030 145 949 37 704 37 L452 37 Z M404 701 L752 701 L752 739 L404 739 L404 701 Z " />
<glyph glyph-name="Obreve" unicode="&#x14e;" horiz-adv-x="1348" d="M814 -10 C1140 -10 1268 151 1268 350 C1268 549 1140 710 814 710 L534 710 C208 710 80 549 80 350 C80 151 208 -10 534 -10 L814 -10 Z M535 40 C245 40 138 178 138 350 C138 522 245 660 535 660 L813 660 C1103 660 1210 522 1210 350 C1210 178 1103 40 813 40 L535 40 Z M674 830 C586 830 554 877 549 931 L517 931 C522 862 559 790 674 790 C788 790 825 862 831 931 L799 931 C793 877 762 830 674 830 L674 830 Z " />
<glyph glyph-name="obreve" unicode="&#x14f;" horiz-adv-x="1156" d="M705 -8 C982 -8 1083 121 1083 280 C1083 439 982 568 705 568 L451 568 C174 568 73 439 73 280 C73 121 174 -8 451 -8 L705 -8 Z M452 37 C208 37 126 145 126 280 C126 415 208 523 452 523 L704 523 C949 523 1030 415 1030 280 C1030 145 949 37 704 37 L452 37 Z M578 690 C490 690 458 737 453 791 L421 791 C426 722 463 650 578 650 C692 650 729 722 735 791 L703 791 C697 737 666 690 578 690 L578 690 Z " />
<glyph glyph-name="Ohungarumlaut" unicode="&#x150;" horiz-adv-x="1348" d="M814 -10 C1140 -10 1268 151 1268 350 C1268 549 1140 710 814 710 L534 710 C208 710 80 549 80 350 C80 151 208 -10 534 -10 L814 -10 Z M535 40 C245 40 138 178 138 350 C138 522 245 660 535 660 L813 660 C1103 660 1210 522 1210 350 C1210 178 1103 40 813 40 L535 40 Z M719 775 L755 775 L900 946 L831 946 L719 775 Z M513 775 L549 775 L694 946 L626 946 L513 775 Z " />
<glyph glyph-name="ohungarumlaut" unicode="&#x151;" horiz-adv-x="1156" d="M705 -8 C982 -8 1083 121 1083 280 C1083 439 982 568 705 568 L451 568 C174 568 73 439 73 280 C73 121 174 -8 451 -8 L705 -8 Z M452 37 C208 37 126 145 126 280 C126 415 208 523 452 523 L704 523 C949 523 1030 415 1030 280 C1030 145 949 37 704 37 L452 37 Z M623 635 L659 635 L804 806 L735 806 L623 635 Z M417 635 L453 635 L598 806 L530 806 L417 635 Z " />
<glyph glyph-name="OE" unicode="&#x152;" horiz-adv-x="1741" d="M80 350 C80 157 204 0 521 0 L1656 0 L1656 50 L829 50 L829 327 L1554 327 L1554 373 L829 373 L829 650 L1656 650 L1656 700 L521 700 C204 700 80 543 80 350 L80 350 Z M138 350 C138 516 241 650 522 650 L774 650 L774 50 L522 50 C241 50 138 184 138 350 L138 350 Z " />
<glyph glyph-name="oe" unicode="&#x153;" horiz-adv-x="1492" d="M73 280 C73 126 170 0 440 0 L1414 0 L1414 45 L713 45 L713 260 L1326 260 L1326 300 L713 300 L713 515 L1414 515 L1414 560 L440 560 C170 560 73 434 73 280 L73 280 Z M127 280 C127 410 204 515 440 515 L663 515 L663 45 L440 45 C204 45 127 150 127 280 L127 280 Z " />
<glyph glyph-name="Racute" unicode="&#x154;" horiz-adv-x="1276" d="M127 0 L182 0 L182 286 L648 286 L1168 0 L1266 0 L741 286 L879 286 C1068 286 1141 377 1141 493 C1141 607 1068 700 879 700 L127 700 L127 0 Z M876 650 C1030 650 1084 579 1084 492 C1084 403 1030 334 876 334 L182 334 L182 650 L876 650 Z M540 775 L576 775 L721 946 L652 946 L540 775 Z " />
<glyph glyph-name="racute" unicode="&#x155;" horiz-adv-x="1105" d="M117 0 L168 0 L168 226 L561 226 L995 0 L1086 0 L645 227 L762 227 C923 227 980 299 980 393 C980 485 923 560 762 560 L117 560 L117 0 Z M760 515 C888 515 927 460 927 393 C927 323 888 270 760 270 L168 270 L168 515 L760 515 Z M459 635 L495 635 L640 806 L571 806 L459 635 Z " />
<glyph glyph-name="uni0156" unicode="&#x156;" horiz-adv-x="1276" d="M127 0 L182 0 L182 286 L648 286 L1168 0 L1266 0 L741 286 L879 286 C1068 286 1141 377 1141 493 C1141 607 1068 700 879 700 L127 700 L127 0 Z M876 650 C1030 650 1084 579 1084 492 C1084 403 1030 334 876 334 L182 334 L182 650 L876 650 Z M604 -194 L634 -194 L602 -284 L630 -284 L670 -190 L670 -128 L604 -128 L604 -194 Z " />
<glyph glyph-name="uni0157" unicode="&#x157;" horiz-adv-x="1105" d="M117 0 L168 0 L168 226 L561 226 L995 0 L1086 0 L645 227 L762 227 C923 227 980 299 980 393 C980 485 923 560 762 560 L117 560 L117 0 Z M760 515 C888 515 927 460 927 393 C927 323 888 270 760 270 L168 270 L168 515 L760 515 Z M515 -194 L545 -194 L513 -284 L541 -284 L581 -190 L581 -128 L515 -128 L515 -194 Z " />
<glyph glyph-name="Rcaron" unicode="&#x158;" horiz-adv-x="1276" d="M127 0 L182 0 L182 286 L648 286 L1168 0 L1266 0 L741 286 L879 286 C1068 286 1141 377 1141 493 C1141 607 1068 700 879 700 L127 700 L127 0 Z M876 650 C1030 650 1084 579 1084 492 C1084 403 1030 334 876 334 L182 334 L182 650 L876 650 Z M760 946 L723 946 L597 808 L471 946 L436 946 L562 775 L632 775 L760 946 Z " />
<glyph glyph-name="rcaron" unicode="&#x159;" horiz-adv-x="1105" d="M117 0 L168 0 L168 226 L561 226 L995 0 L1086 0 L645 227 L762 227 C923 227 980 299 980 393 C980 485 923 560 762 560 L117 560 L117 0 Z M760 515 C888 515 927 460 927 393 C927 323 888 270 760 270 L168 270 L168 515 L760 515 Z M679 806 L642 806 L516 668 L390 806 L355 806 L481 635 L551 635 L679 806 Z " />
<glyph glyph-name="Sacute" unicode="&#x15a;" horiz-adv-x="1207" d="M117 0 L893 0 C1064 0 1130 84 1130 187 C1130 292 1064 373 893 373 L316 373 C181 373 134 434 134 512 C134 587 181 650 316 650 L1090 650 L1090 700 L314 700 C143 700 77 616 77 513 C77 408 143 327 314 327 L891 327 C1026 327 1073 266 1073 188 C1073 113 1026 50 891 50 L117 50 L117 0 Z M545 775 L581 775 L726 946 L657 946 L545 775 Z " />
<glyph glyph-name="sacute" unicode="&#x15b;" horiz-adv-x="1033" d="M103 0 L768 0 C914 0 964 67 964 150 C964 235 914 300 768 300 L268 300 C156 300 122 348 122 408 C122 467 156 515 268 515 L930 515 L930 560 L265 560 C119 560 69 493 69 410 C69 325 119 260 265 260 L766 260 C877 260 911 212 911 152 C911 93 878 45 766 45 L103 45 L103 0 Z M458 635 L494 635 L639 806 L570 806 L458 635 Z " />
<glyph glyph-name="Scircumflex" unicode="&#x15c;" horiz-adv-x="1207" d="M117 0 L893 0 C1064 0 1130 84 1130 187 C1130 292 1064 373 893 373 L316 373 C181 373 134 434 134 512 C134 587 181 650 316 650 L1090 650 L1090 700 L314 700 C143 700 77 616 77 513 C77 408 143 327 314 327 L891 327 C1026 327 1073 266 1073 188 C1073 113 1026 50 891 50 L117 50 L117 0 Z M637 946 L567 946 L441 775 L476 775 L602 913 L728 775 L765 775 L637 946 Z " />
<glyph glyph-name="scircumflex" unicode="&#x15d;" horiz-adv-x="1033" d="M103 0 L768 0 C914 0 964 67 964 150 C964 235 914 300 768 300 L268 300 C156 300 122 348 122 408 C122 467 156 515 268 515 L930 515 L930 560 L265 560 C119 560 69 493 69 410 C69 325 119 260 265 260 L766 260 C877 260 911 212 911 152 C911 93 878 45 766 45 L103 45 L103 0 Z M550 806 L480 806 L354 635 L389 635 L515 773 L641 635 L678 635 L550 806 Z " />
<glyph glyph-name="Scedilla" unicode="&#x15e;" horiz-adv-x="1207" d="M117 0 L590 0 L563 -96 L581 -96 C652 -96 691 -111 691 -157 C691 -238 540 -223 494 -200 L494 -226 C566 -261 734 -271 734 -158 C734 -84 670 -69 600 -69 L595 -69 L614 0 L893 0 C1064 0 1130 84 1130 187 C1130 292 1064 373 893 373 L316 373 C181 373 134 434 134 512 C134 587 181 650 316 650 L1090 650 L1090 700 L314 700 C143 700 77 616 77 513 C77 408 143 327 314 327 L891 327 C1026 327 1073 266 1073 188 C1073 113 1026 50 891 50 L117 50 L117 0 Z " />
<glyph glyph-name="scedilla" unicode="&#x15f;" horiz-adv-x="1033" d="M103 0 L503 0 L476 -96 L494 -96 C565 -96 604 -111 604 -157 C604 -238 453 -223 407 -200 L407 -226 C479 -261 647 -271 647 -158 C647 -84 583 -69 513 -69 L508 -69 L527 0 L768 0 C914 0 964 67 964 150 C964 235 914 300 768 300 L268 300 C156 300 122 348 122 408 C122 467 156 515 268 515 L930 515 L930 560 L265 560 C119 560 69 493 69 410 C69 325 119 260 265 260 L766 260 C877 260 911 212 911 152 C911 93 878 45 766 45 L103 45 L103 0 Z " />
<glyph glyph-name="Scaron" unicode="&#x160;" horiz-adv-x="1207" d="M117 0 L893 0 C1064 0 1130 84 1130 187 C1130 292 1064 373 893 373 L316 373 C181 373 134 434 134 512 C134 587 181 650 316 650 L1090 650 L1090 700 L314 700 C143 700 77 616 77 513 C77 408 143 327 314 327 L891 327 C1026 327 1073 266 1073 188 C1073 113 1026 50 891 50 L117 50 L117 0 Z M765 946 L728 946 L602 808 L476 946 L441 946 L567 775 L637 775 L765 946 Z " />
<glyph glyph-name="scaron" unicode="&#x161;" horiz-adv-x="1033" d="M103 0 L768 0 C914 0 964 67 964 150 C964 235 914 300 768 300 L268 300 C156 300 122 348 122 408 C122 467 156 515 268 515 L930 515 L930 560 L265 560 C119 560 69 493 69 410 C69 325 119 260 265 260 L766 260 C877 260 911 212 911 152 C911 93 878 45 766 45 L103 45 L103 0 Z M678 806 L641 806 L515 668 L389 806 L354 806 L480 635 L550 635 L678 806 Z " />
<glyph glyph-name="uni0162" unicode="&#x162;" horiz-adv-x="1184" d="M35 650 L565 650 L565 0 L578 0 L551 -96 L569 -96 C640 -96 679 -111 679 -157 C679 -238 528 -223 482 -200 L482 -226 C554 -261 722 -271 722 -158 C722 -84 658 -69 588 -69 L583 -69 L602 0 L619 0 L619 650 L1149 650 L1149 700 L35 700 L35 650 Z " />
<glyph glyph-name="uni0163" unicode="&#x163;" horiz-adv-x="1042" d="M48 515 L495 515 L495 0 L507 0 L480 -96 L498 -96 C569 -96 608 -111 608 -157 C608 -238 457 -223 411 -200 L411 -226 C483 -261 651 -271 651 -158 C651 -84 587 -69 517 -69 L512 -69 L531 0 L546 0 L546 515 L994 515 L994 560 L48 560 L48 515 Z " />
<glyph glyph-name="Tcaron" unicode="&#x164;" horiz-adv-x="1184" d="M35 650 L565 650 L565 0 L619 0 L619 650 L1149 650 L1149 700 L35 700 L35 650 Z M754 946 L717 946 L591 808 L465 946 L430 946 L556 775 L626 775 L754 946 Z " />
<glyph glyph-name="tcaron" unicode="&#x165;" horiz-adv-x="1042" d="M683 806 L646 806 L520 668 L394 806 L359 806 L485 635 L555 635 L683 806 Z M48 515 L495 515 L495 0 L546 0 L546 515 L994 515 L994 560 L48 560 L48 515 Z " />
<glyph glyph-name="Tbar" unicode="&#x166;" horiz-adv-x="1184" d="M35 650 L565 650 L565 372 L273 372 L273 328 L565 328 L565 0 L619 0 L619 328 L910 328 L910 372 L619 372 L619 650 L1149 650 L1149 700 L35 700 L35 650 Z " />
<glyph glyph-name="tbar" unicode="&#x167;" horiz-adv-x="1042" d="M48 515 L495 515 L495 297 L239 297 L239 257 L495 257 L495 0 L546 0 L546 257 L803 257 L803 297 L546 297 L546 515 L994 515 L994 560 L48 560 L48 515 Z " />
<glyph glyph-name="Utilde" unicode="&#x168;" horiz-adv-x="1275" d="M162 323 L162 700 L107 700 L107 323 C107 130 211 -10 528 -10 L747 -10 C1064 -10 1168 130 1168 323 L1168 700 L1113 700 L1113 323 C1113 158 1026 40 746 40 L529 40 C249 40 162 158 162 323 L162 323 Z M775 925 C768 857 744 847 715 847 C665 847 624 916 559 916 C512 916 479 891 469 796 L499 796 C506 864 530 874 559 874 C609 874 650 805 715 805 C762 805 796 830 805 925 L775 925 Z " />
<glyph glyph-name="utilde" unicode="&#x169;" horiz-adv-x="1096" d="M147 258 L147 560 L97 560 L97 258 C97 104 177 -8 446 -8 L649 -8 C918 -8 999 104 999 258 L999 560 L948 560 L948 258 C948 129 884 37 648 37 L447 37 C212 37 147 129 147 258 L147 258 Z M686 785 C679 717 655 707 626 707 C576 707 535 776 470 776 C423 776 390 751 380 656 L410 656 C417 724 441 734 470 734 C520 734 561 665 626 665 C673 665 707 690 716 785 L686 785 Z " />
<glyph glyph-name="Umacron" unicode="&#x16a;" horiz-adv-x="1275" d="M162 323 L162 700 L107 700 L107 323 C107 130 211 -10 528 -10 L747 -10 C1064 -10 1168 130 1168 323 L1168 700 L1113 700 L1113 323 C1113 158 1026 40 746 40 L529 40 C249 40 162 158 162 323 L162 323 Z M463 841 L811 841 L811 879 L463 879 L463 841 Z " />
<glyph glyph-name="umacron" unicode="&#x16b;" horiz-adv-x="1096" d="M147 258 L147 560 L97 560 L97 258 C97 104 177 -8 446 -8 L649 -8 C918 -8 999 104 999 258 L999 560 L948 560 L948 258 C948 129 884 37 648 37 L447 37 C212 37 147 129 147 258 L147 258 Z M374 701 L722 701 L722 739 L374 739 L374 701 Z " />
<glyph glyph-name="Ubreve" unicode="&#x16c;" horiz-adv-x="1275" d="M162 323 L162 700 L107 700 L107 323 C107 130 211 -10 528 -10 L747 -10 C1064 -10 1168 130 1168 323 L1168 700 L1113 700 L1113 323 C1113 158 1026 40 746 40 L529 40 C249 40 162 158 162 323 L162 323 Z M637 830 C549 830 517 877 512 931 L480 931 C485 862 522 790 637 790 C751 790 788 862 794 931 L762 931 C756 877 725 830 637 830 L637 830 Z " />
<glyph glyph-name="ubreve" unicode="&#x16d;" horiz-adv-x="1096" d="M147 258 L147 560 L97 560 L97 258 C97 104 177 -8 446 -8 L649 -8 C918 -8 999 104 999 258 L999 560 L948 560 L948 258 C948 129 884 37 648 37 L447 37 C212 37 147 129 147 258 L147 258 Z M548 690 C460 690 428 737 423 791 L391 791 C396 722 433 650 548 650 C662 650 699 722 705 791 L673 791 C667 737 636 690 548 690 L548 690 Z " />
<glyph glyph-name="Uring" unicode="&#x16e;" horiz-adv-x="1275" d="M162 323 L162 700 L107 700 L107 323 C107 130 211 -10 528 -10 L747 -10 C1064 -10 1168 130 1168 323 L1168 700 L1113 700 L1113 323 C1113 158 1026 40 746 40 L529 40 C249 40 162 158 162 323 L162 323 Z M562 861 C562 902 596 936 637 936 C679 936 712 902 712 861 C712 819 679 786 637 786 C596 786 562 819 562 861 L562 861 Z M527 861 C527 801 574 753 637 753 C699 753 747 801 747 861 C747 921 699 968 637 968 C574 968 527 921 527 861 L527 861 Z " />
<glyph glyph-name="uring" unicode="&#x16f;" horiz-adv-x="1096" d="M147 258 L147 560 L97 560 L97 258 C97 104 177 -8 446 -8 L649 -8 C918 -8 999 104 999 258 L999 560 L948 560 L948 258 C948 129 884 37 648 37 L447 37 C212 37 147 129 147 258 L147 258 Z M473 721 C473 762 507 796 548 796 C590 796 623 762 623 721 C623 679 590 646 548 646 C507 646 473 679 473 721 L473 721 Z M438 721 C438 661 485 613 548 613 C610 613 658 661 658 721 C658 781 610 828 548 828 C485 828 438 781 438 721 L438 721 Z " />
<glyph glyph-name="Uhungarumlaut" unicode="&#x170;" horiz-adv-x="1275" d="M162 323 L162 700 L107 700 L107 323 C107 130 211 -10 528 -10 L747 -10 C1064 -10 1168 130 1168 323 L1168 700 L1113 700 L1113 323 C1113 158 1026 40 746 40 L529 40 C249 40 162 158 162 323 L162 323 Z M683 775 L719 775 L864 946 L795 946 L683 775 Z M477 775 L513 775 L658 946 L590 946 L477 775 Z " />
<glyph glyph-name="uhungarumlaut" unicode="&#x171;" horiz-adv-x="1096" d="M147 258 L147 560 L97 560 L97 258 C97 104 177 -8 446 -8 L649 -8 C918 -8 999 104 999 258 L999 560 L948 560 L948 258 C948 129 884 37 648 37 L447 37 C212 37 147 129 147 258 L147 258 Z M593 635 L629 635 L774 806 L705 806 L593 635 Z M387 635 L423 635 L568 806 L500 806 L387 635 Z " />
<glyph glyph-name="Uogonek" unicode="&#x172;" horiz-adv-x="1275" d="M680 -158 C680 -211 723 -241 788 -241 C824 -241 856 -235 895 -218 L895 -191 C858 -207 833 -211 805 -211 C760 -211 727 -188 727 -147 C727 -77 798 -28 879 0 C1093 34 1168 160 1168 323 L1168 700 L1113 700 L1113 323 C1113 158 1026 40 746 40 L529 40 C249 40 162 158 162 323 L162 700 L107 700 L107 323 C107 130 211 -10 528 -10 L747 -10 C771 -10 795 -9 817 -7 C749 -33 680 -88 680 -158 L680 -158 Z " />
<glyph glyph-name="uogonek" unicode="&#x173;" horiz-adv-x="1096" d="M562 -158 C562 -211 605 -241 670 -241 C706 -241 738 -235 777 -218 L777 -191 C740 -207 715 -211 687 -211 C642 -211 609 -188 609 -147 C609 -77 681 -28 760 0 C941 28 999 128 999 258 L999 560 L948 560 L948 258 C948 129 884 37 648 37 L447 37 C212 37 147 129 147 258 L147 560 L97 560 L97 258 C97 104 177 -8 446 -8 L649 -8 C667 -8 685 -7 702 -6 C633 -31 562 -87 562 -158 L562 -158 Z " />
<glyph glyph-name="Wcircumflex" unicode="&#x174;" horiz-adv-x="1618" d="M809 632 L1159 0 L1201 0 L1591 700 L1525 700 L1180 68 L830 700 L788 700 L438 68 L93 700 L27 700 L417 0 L459 0 L809 632 Z M843 946 L773 946 L647 775 L682 775 L808 913 L934 775 L971 775 L843 946 Z " />
<glyph glyph-name="wcircumflex" unicode="&#x175;" horiz-adv-x="1384" d="M693 500 L987 0 L1026 0 L1357 560 L1297 560 L1006 61 L712 560 L673 560 L379 61 L87 560 L27 560 L359 0 L397 0 L693 500 Z M726 806 L656 806 L530 635 L565 635 L691 773 L817 635 L854 635 L726 806 Z " />
<glyph glyph-name="Ycircumflex" unicode="&#x176;" horiz-adv-x="1243" d="M594 0 L649 0 L649 211 L1238 700 L1156 700 L622 254 L87 700 L5 700 L594 211 L594 0 Z M655 946 L585 946 L459 775 L494 775 L620 913 L746 775 L783 775 L655 946 Z " />
<glyph glyph-name="ycircumflex" unicode="&#x177;" horiz-adv-x="1059" d="M505 0 L555 0 L555 169 L1054 560 L979 560 L530 208 L80 560 L5 560 L505 169 L505 0 Z M563 806 L493 806 L367 635 L402 635 L528 773 L654 635 L691 635 L563 806 Z " />
<glyph glyph-name="Ydieresis" unicode="&#x178;" horiz-adv-x="1243" d="M594 0 L649 0 L649 211 L1238 700 L1156 700 L622 254 L87 700 L5 700 L594 211 L594 0 Z M713 827 L779 827 L779 893 L713 893 L713 827 Z M463 827 L529 827 L529 893 L463 893 L463 827 Z " />
<glyph glyph-name="Zacute" unicode="&#x179;" horiz-adv-x="1192" d="M77 0 L1125 0 L1125 50 L180 50 L1105 660 L1105 700 L87 700 L87 650 L1001 650 L77 40 L77 0 Z M538 775 L574 775 L719 946 L650 946 L538 775 Z " />
<glyph glyph-name="zacute" unicode="&#x17a;" horiz-adv-x="1022" d="M70 0 L962 0 L962 45 L165 45 L945 524 L945 560 L79 560 L79 515 L848 515 L70 36 L70 0 Z M453 635 L489 635 L634 806 L565 806 L453 635 Z " />
<glyph glyph-name="Zdotaccent" unicode="&#x17b;" horiz-adv-x="1192" d="M77 0 L1125 0 L1125 50 L180 50 L1105 660 L1105 700 L87 700 L87 650 L1001 650 L77 40 L77 0 Z M563 827 L629 827 L629 893 L563 893 L563 827 Z " />
<glyph glyph-name="zdotaccent" unicode="&#x17c;" horiz-adv-x="1022" d="M70 0 L962 0 L962 45 L165 45 L945 524 L945 560 L79 560 L79 515 L848 515 L70 36 L70 0 Z M478 687 L544 687 L544 753 L478 753 L478 687 Z " />
<glyph glyph-name="Zcaron" unicode="&#x17d;" horiz-adv-x="1192" d="M77 0 L1125 0 L1125 50 L180 50 L1105 660 L1105 700 L87 700 L87 650 L1001 650 L77 40 L77 0 Z M758 946 L721 946 L595 808 L469 946 L434 946 L560 775 L630 775 L758 946 Z " />
<glyph glyph-name="zcaron" unicode="&#x17e;" horiz-adv-x="1022" d="M70 0 L962 0 L962 45 L165 45 L945 524 L945 560 L79 560 L79 515 L848 515 L70 36 L70 0 Z M673 806 L636 806 L510 668 L384 806 L349 806 L475 635 L545 635 L673 806 Z " />
<glyph glyph-name="uni0186" unicode="&#x186;" horiz-adv-x="1184" d="M1046 350 C1046 184 943 50 662 50 L85 50 L85 0 L663 0 C980 0 1104 157 1104 350 C1104 543 980 700 663 700 L85 700 L85 650 L662 650 C943 650 1046 516 1046 350 L1046 350 Z " />
<glyph glyph-name="uni0189" unicode="&#x189;" horiz-adv-x="1255" d="M-3 327 L127 327 L127 0 L734 0 C1051 0 1175 157 1175 350 C1175 543 1051 700 734 700 L127 700 L127 373 L-3 373 L-3 327 Z M733 650 C1014 650 1117 516 1117 350 C1117 184 1014 50 733 50 L182 50 L182 327 L634 327 L634 373 L182 373 L182 650 L733 650 Z " />
<glyph glyph-name="uni018E" unicode="&#x18e;" horiz-adv-x="1199" d="M1072 700 L85 700 L85 650 L1017 650 L1017 373 L187 373 L187 327 L1017 327 L1017 50 L85 50 L85 0 L1072 0 L1072 700 Z " />
<glyph glyph-name="florin" unicode="&#x192;" horiz-adv-x="1298" d="M519 90 C506 -29 446 -110 261 -110 L184 -110 L184 -160 L261 -160 C478 -160 558 -59 573 88 L598 326 L926 326 L926 372 L603 372 L611 450 C623 559 699 650 888 650 L1124 650 L1124 700 L890 700 C666 700 571 589 557 452 L548 372 L302 372 L302 326 L544 326 L519 90 Z " />
<glyph glyph-name="Ohorn" unicode="&#x1a0;" horiz-adv-x="1348" d="M814 -10 C1140 -10 1268 151 1268 350 C1268 486 1208 603 1067 665 L1193 665 C1288 665 1351 685 1351 779 C1351 793 1350 808 1347 826 L1294 826 C1297 809 1298 795 1298 783 C1298 714 1255 700 1182 700 L944 700 C904 706 861 710 814 710 L534 710 C208 710 80 549 80 350 C80 151 208 -10 534 -10 L814 -10 Z M535 40 C245 40 138 178 138 350 C138 522 245 660 535 660 L813 660 C1103 660 1210 522 1210 350 C1210 178 1103 40 813 40 L535 40 Z " />
<glyph glyph-name="ohorn" unicode="&#x1a1;" horiz-adv-x="1156" d="M705 -8 C982 -8 1083 121 1083 280 C1083 383 1040 474 934 525 L1001 525 C1096 525 1159 545 1159 639 C1159 653 1158 668 1155 686 L1102 686 C1105 669 1106 655 1106 643 C1106 574 1063 560 990 560 L814 560 C781 565 745 568 705 568 L451 568 C174 568 73 439 73 280 C73 121 174 -8 451 -8 L705 -8 Z M452 37 C208 37 126 145 126 280 C126 415 208 523 452 523 L704 523 C949 523 1030 415 1030 280 C1030 145 949 37 704 37 L452 37 Z " />
<glyph glyph-name="uni01A7" unicode="&#x1a7;" horiz-adv-x="1207" d="M1090 50 L316 50 C181 50 134 113 134 188 C134 266 181 327 316 327 L893 327 C1064 327 1130 408 1130 513 C1130 616 1064 700 893 700 L117 700 L117 650 L891 650 C1026 650 1073 587 1073 512 C1073 434 1026 373 891 373 L314 373 C143 373 77 292 77 187 C77 84 143 0 314 0 L1090 0 L1090 50 Z " />
<glyph glyph-name="uni01A8" unicode="&#x1a8;" horiz-adv-x="1033" d="M930 45 L267 45 C155 45 122 93 122 152 C122 212 156 260 267 260 L768 260 C914 260 964 325 964 410 C964 493 914 560 768 560 L103 560 L103 515 L765 515 C877 515 911 467 911 408 C911 348 877 300 765 300 L265 300 C119 300 69 235 69 150 C69 67 119 0 265 0 L930 0 L930 45 Z " />
<glyph glyph-name="Uhorn" unicode="&#x1af;" horiz-adv-x="1423" d="M162 323 L162 700 L107 700 L107 323 C107 130 211 -10 528 -10 L747 -10 C1064 -10 1168 130 1168 323 L1168 665 L1263 665 C1358 665 1421 685 1421 779 C1421 793 1420 808 1417 826 L1364 826 C1367 809 1368 795 1368 783 C1368 714 1325 700 1252 700 L1113 700 L1113 323 C1113 158 1026 40 746 40 L529 40 C249 40 162 158 162 323 L162 323 Z " />
<glyph glyph-name="uhorn" unicode="&#x1b0;" horiz-adv-x="1254" d="M147 258 L147 560 L97 560 L97 258 C97 104 177 -8 446 -8 L649 -8 C918 -8 999 104 999 258 L999 525 L1094 525 C1189 525 1252 545 1252 639 C1252 653 1251 668 1248 686 L1195 686 C1198 669 1199 655 1199 643 C1199 574 1156 560 1083 560 L948 560 L948 258 C948 129 884 37 648 37 L447 37 C212 37 147 129 147 258 L147 258 Z " />
<glyph glyph-name="uni01B1" unicode="&#x1b1;" horiz-adv-x="1356" d="M853 657 C1104 610 1199 470 1199 320 C1199 165 1103 40 841 40 L515 40 C253 40 157 165 157 320 C157 471 252 610 503 657 L503 700 L74 700 L74 650 L359 650 C177 583 104 448 104 310 C104 133 218 -10 508 -10 L848 -10 C1138 -10 1252 133 1252 310 C1252 448 1178 583 995 650 L1282 650 L1282 700 L853 700 L853 657 Z " />
<glyph glyph-name="uni01C0" unicode="&#x1c0;" horiz-adv-x="302" d="M175 800 L127 800 L127 -100 L175 -100 L175 800 Z " />
<glyph glyph-name="uni01C1" unicode="&#x1c1;" horiz-adv-x="611" d="M175 800 L127 800 L127 -100 L175 -100 L175 800 Z M454 800 L406 800 L406 -100 L454 -100 L454 800 Z " />
<glyph glyph-name="uni01C2" unicode="&#x1c2;" horiz-adv-x="742" d="M395 169 L695 169 L695 213 L395 213 L395 487 L695 487 L695 531 L395 531 L395 800 L347 800 L347 531 L47 531 L47 487 L347 487 L347 213 L47 213 L47 169 L347 169 L347 -100 L395 -100 L395 169 Z " />
<glyph glyph-name="uni01C3" unicode="&#x1c3;" horiz-adv-x="313" d="M121 0 L191 0 L191 70 L121 70 L121 0 Z M132 139 L181 139 L185 700 L128 700 L132 139 Z " />
<glyph glyph-name="uni01C4" unicode="&#x1c4;" horiz-adv-x="2447" d="M127 0 L734 0 C1051 0 1175 157 1175 350 C1175 543 1051 700 734 700 L127 700 L127 0 Z M733 650 C1014 650 1117 516 1117 350 C1117 184 1014 50 733 50 L182 50 L182 650 L733 650 Z M1332 0 L2380 0 L2380 50 L1435 50 L2360 660 L2360 700 L1342 700 L1342 650 L2256 650 L1332 40 L1332 0 Z M2013 946 L1976 946 L1850 808 L1724 946 L1689 946 L1815 775 L1885 775 L2013 946 Z " />
<glyph glyph-name="uni01C5" unicode="&#x1c5;" horiz-adv-x="2277" d="M127 0 L734 0 C1051 0 1175 157 1175 350 C1175 543 1051 700 734 700 L127 700 L127 0 Z M733 650 C1014 650 1117 516 1117 350 C1117 184 1014 50 733 50 L182 50 L182 650 L733 650 Z M1325 0 L2217 0 L2217 45 L1420 45 L2200 524 L2200 560 L1334 560 L1334 515 L2103 515 L1325 36 L1325 0 Z M1928 806 L1891 806 L1765 668 L1639 806 L1604 806 L1730 635 L1800 635 L1928 806 Z " />
<glyph glyph-name="uni01C6" unicode="&#x1c6;" horiz-adv-x="2103" d="M117 0 L641 0 C911 0 1008 126 1008 280 C1008 434 911 560 641 560 L117 560 L117 0 Z M641 515 C878 515 955 410 955 280 C955 150 878 45 641 45 L168 45 L168 515 L641 515 Z M1151 0 L2043 0 L2043 45 L1246 45 L2026 524 L2026 560 L1160 560 L1160 515 L1929 515 L1151 36 L1151 0 Z M1754 806 L1717 806 L1591 668 L1465 806 L1430 806 L1556 635 L1626 635 L1754 806 Z " />
<glyph glyph-name="uni01C7" unicode="&#x1c7;" horiz-adv-x="2340" d="M182 700 L127 700 L127 0 L1094 0 L1094 50 L182 50 L182 700 Z M1519 -5 L1812 -5 C2129 -5 2233 132 2233 325 L2233 700 L2178 700 L2178 325 C2178 160 2091 45 1811 45 L1520 45 C1303 45 1231 148 1231 275 L1231 316 L1176 316 L1176 275 C1176 121 1265 -5 1519 -5 L1519 -5 Z " />
<glyph glyph-name="uni01C8" unicode="&#x1c8;" horiz-adv-x="2172" d="M182 700 L127 700 L127 0 L1094 0 L1094 50 L182 50 L182 700 Z M1462 -4 L1725 -4 C1995 -4 2075 106 2075 260 L2075 560 L2025 560 L2025 260 C2025 131 1960 41 1725 41 L1463 41 C1281 41 1227 121 1227 220 L1227 254 L1176 254 L1176 220 C1176 97 1246 -4 1462 -4 L1462 -4 Z " />
<glyph glyph-name="uni01C9" unicode="&#x1c9;" horiz-adv-x="2030" d="M168 560 L117 560 L117 0 L939 0 L939 45 L168 45 L168 560 Z M1320 -4 L1583 -4 C1853 -4 1933 106 1933 260 L1933 560 L1883 560 L1883 260 C1883 131 1818 41 1583 41 L1321 41 C1139 41 1085 121 1085 220 L1085 254 L1034 254 L1034 220 C1034 97 1104 -4 1320 -4 L1320 -4 Z " />
<glyph glyph-name="uni01CA" unicode="&#x1ca;" horiz-adv-x="2514" d="M1124 0 L1176 0 L1176 700 L1121 700 L1121 65 L179 700 L127 700 L127 0 L182 0 L182 635 L1124 0 Z M1693 -5 L1986 -5 C2303 -5 2407 132 2407 325 L2407 700 L2352 700 L2352 325 C2352 160 2265 45 1985 45 L1694 45 C1477 45 1405 148 1405 275 L1405 316 L1350 316 L1350 275 C1350 121 1439 -5 1693 -5 L1693 -5 Z " />
<glyph glyph-name="uni01CB" unicode="&#x1cb;" horiz-adv-x="2346" d="M1124 0 L1176 0 L1176 700 L1121 700 L1121 65 L179 700 L127 700 L127 0 L182 0 L182 635 L1124 0 Z M1636 -4 L1899 -4 C2169 -4 2249 106 2249 260 L2249 560 L2199 560 L2199 260 C2199 131 2134 41 1899 41 L1637 41 C1455 41 1401 121 1401 220 L1401 254 L1350 254 L1350 220 C1350 97 1420 -4 1636 -4 L1636 -4 Z " />
<glyph glyph-name="uni01CC" unicode="&#x1cc;" horiz-adv-x="2170" d="M1010 0 L1010 560 L959 560 L959 58 L165 560 L117 560 L117 0 L168 0 L168 502 L961 0 L1010 0 Z M1460 -4 L1723 -4 C1993 -4 2073 106 2073 260 L2073 560 L2023 560 L2023 260 C2023 131 1958 41 1723 41 L1461 41 C1279 41 1225 121 1225 220 L1225 254 L1174 254 L1174 220 C1174 97 1244 -4 1460 -4 L1460 -4 Z " />
<glyph glyph-name="uni01CD" unicode="&#x1cd;" horiz-adv-x="1263" d="M1180 0 L1248 0 L662 700 L602 700 L15 0 L83 0 L207 148 L1056 148 L1180 0 Z M632 655 L1017 194 L245 194 L632 655 Z M793 946 L756 946 L630 808 L504 946 L469 946 L595 775 L665 775 L793 946 Z " />
<glyph glyph-name="uni01CE" unicode="&#x1ce;" horiz-adv-x="1082" d="M1003 0 L1066 0 L569 560 L513 560 L16 0 L79 0 L187 122 L894 122 L1003 0 Z M541 519 L858 163 L224 163 L541 519 Z M703 806 L666 806 L540 668 L414 806 L379 806 L505 635 L575 635 L703 806 Z " />
<glyph glyph-name="uni01CF" unicode="&#x1cf;" horiz-adv-x="309" d="M127 0 L182 0 L182 700 L127 700 L127 0 Z M317 946 L280 946 L154 808 L28 946 L-7 946 L119 775 L189 775 L317 946 Z " />
<glyph glyph-name="uni01D0" unicode="&#x1d0;" horiz-adv-x="285" d="M117 0 L168 0 L168 560 L117 560 L117 0 Z M305 806 L268 806 L142 668 L16 806 L-19 806 L107 635 L177 635 L305 806 Z " />
<glyph glyph-name="uni01D1" unicode="&#x1d1;" horiz-adv-x="1348" d="M814 -10 C1140 -10 1268 151 1268 350 C1268 549 1140 710 814 710 L534 710 C208 710 80 549 80 350 C80 151 208 -10 534 -10 L814 -10 Z M535 40 C245 40 138 178 138 350 C138 522 245 660 535 660 L813 660 C1103 660 1210 522 1210 350 C1210 178 1103 40 813 40 L535 40 Z M836 946 L799 946 L673 808 L547 946 L512 946 L638 775 L708 775 L836 946 Z " />
<glyph glyph-name="uni01D2" unicode="&#x1d2;" horiz-adv-x="1156" d="M705 -8 C982 -8 1083 121 1083 280 C1083 439 982 568 705 568 L451 568 C174 568 73 439 73 280 C73 121 174 -8 451 -8 L705 -8 Z M452 37 C208 37 126 145 126 280 C126 415 208 523 452 523 L704 523 C949 523 1030 415 1030 280 C1030 145 949 37 704 37 L452 37 Z M740 806 L703 806 L577 668 L451 806 L416 806 L542 635 L612 635 L740 806 Z " />
<glyph glyph-name="uni01D3" unicode="&#x1d3;" horiz-adv-x="1275" d="M162 323 L162 700 L107 700 L107 323 C107 130 211 -10 528 -10 L747 -10 C1064 -10 1168 130 1168 323 L1168 700 L1113 700 L1113 323 C1113 158 1026 40 746 40 L529 40 C249 40 162 158 162 323 L162 323 Z M799 946 L762 946 L636 808 L510 946 L475 946 L601 775 L671 775 L799 946 Z " />
<glyph glyph-name="uni01D4" unicode="&#x1d4;" horiz-adv-x="1096" d="M147 258 L147 560 L97 560 L97 258 C97 104 177 -8 446 -8 L649 -8 C918 -8 999 104 999 258 L999 560 L948 560 L948 258 C948 129 884 37 648 37 L447 37 C212 37 147 129 147 258 L147 258 Z M710 806 L673 806 L547 668 L421 806 L386 806 L512 635 L582 635 L710 806 Z " />
<glyph glyph-name="uni01D5" unicode="&#x1d5;" horiz-adv-x="1275" d="M729 827 L795 827 L795 893 L729 893 L729 827 Z M479 827 L545 827 L545 893 L479 893 L479 827 Z M463 997 L811 997 L811 1035 L463 1035 L463 997 Z M162 323 L162 700 L107 700 L107 323 C107 130 211 -10 528 -10 L747 -10 C1064 -10 1168 130 1168 323 L1168 700 L1113 700 L1113 323 C1113 158 1026 40 746 40 L529 40 C249 40 162 158 162 323 L162 323 Z " />
<glyph glyph-name="uni01D6" unicode="&#x1d6;" horiz-adv-x="1096" d="M640 687 L706 687 L706 753 L640 753 L640 687 Z M390 687 L456 687 L456 753 L390 753 L390 687 Z M374 857 L722 857 L722 895 L374 895 L374 857 Z M147 258 L147 560 L97 560 L97 258 C97 104 177 -8 446 -8 L649 -8 C918 -8 999 104 999 258 L999 560 L948 560 L948 258 C948 129 884 37 648 37 L447 37 C212 37 147 129 147 258 L147 258 Z " />
<glyph glyph-name="uni01D7" unicode="&#x1d7;" horiz-adv-x="1275" d="M162 323 L162 700 L107 700 L107 323 C107 130 211 -10 528 -10 L747 -10 C1064 -10 1168 130 1168 323 L1168 700 L1113 700 L1113 323 C1113 158 1026 40 746 40 L529 40 C249 40 162 158 162 323 L162 323 Z M729 827 L795 827 L795 893 L729 893 L729 827 Z M479 827 L545 827 L545 893 L479 893 L479 827 Z M579 950 L615 950 L760 1121 L691 1121 L579 950 Z " />
<glyph glyph-name="uni01D8" unicode="&#x1d8;" horiz-adv-x="1096" d="M147 258 L147 560 L97 560 L97 258 C97 104 177 -8 446 -8 L649 -8 C918 -8 999 104 999 258 L999 560 L948 560 L948 258 C948 129 884 37 648 37 L447 37 C212 37 147 129 147 258 L147 258 Z M640 687 L706 687 L706 753 L640 753 L640 687 Z M390 687 L456 687 L456 753 L390 753 L390 687 Z M490 810 L526 810 L671 981 L602 981 L490 810 Z " />
<glyph glyph-name="uni01D9" unicode="&#x1d9;" horiz-adv-x="1275" d="M162 323 L162 700 L107 700 L107 323 C107 130 211 -10 528 -10 L747 -10 C1064 -10 1168 130 1168 323 L1168 700 L1113 700 L1113 323 C1113 158 1026 40 746 40 L529 40 C249 40 162 158 162 323 L162 323 Z M729 827 L795 827 L795 893 L729 893 L729 827 Z M479 827 L545 827 L545 893 L479 893 L479 827 Z M799 1121 L762 1121 L636 983 L510 1121 L475 1121 L601 950 L671 950 L799 1121 Z " />
<glyph glyph-name="uni01DA" unicode="&#x1da;" horiz-adv-x="1096" d="M147 258 L147 560 L97 560 L97 258 C97 104 177 -8 446 -8 L649 -8 C918 -8 999 104 999 258 L999 560 L948 560 L948 258 C948 129 884 37 648 37 L447 37 C212 37 147 129 147 258 L147 258 Z M640 687 L706 687 L706 753 L640 753 L640 687 Z M390 687 L456 687 L456 753 L390 753 L390 687 Z M710 981 L673 981 L547 843 L421 981 L386 981 L512 810 L582 810 L710 981 Z " />
<glyph glyph-name="uni01DB" unicode="&#x1db;" horiz-adv-x="1275" d="M162 323 L162 700 L107 700 L107 323 C107 130 211 -10 528 -10 L747 -10 C1064 -10 1168 130 1168 323 L1168 700 L1113 700 L1113 323 C1113 158 1026 40 746 40 L529 40 C249 40 162 158 162 323 L162 323 Z M729 827 L795 827 L795 893 L729 893 L729 827 Z M479 827 L545 827 L545 893 L479 893 L479 827 Z M582 1121 L513 1121 L658 950 L694 950 L582 1121 Z " />
<glyph glyph-name="uni01DC" unicode="&#x1dc;" horiz-adv-x="1096" d="M147 258 L147 560 L97 560 L97 258 C97 104 177 -8 446 -8 L649 -8 C918 -8 999 104 999 258 L999 560 L948 560 L948 258 C948 129 884 37 648 37 L447 37 C212 37 147 129 147 258 L147 258 Z M640 687 L706 687 L706 753 L640 753 L640 687 Z M390 687 L456 687 L456 753 L390 753 L390 687 Z M493 981 L424 981 L569 810 L605 810 L493 981 Z " />
<glyph glyph-name="uni01DD" unicode="&#x1dd;" horiz-adv-x="1034" d="M917 560 L78 560 L78 515 L866 515 L866 300 L165 300 L165 260 L866 260 L866 45 L78 45 L78 0 L917 0 L917 560 Z " />
<glyph glyph-name="uni01DE" unicode="&#x1de;" horiz-adv-x="1263" d="M723 827 L789 827 L789 893 L723 893 L723 827 Z M473 827 L539 827 L539 893 L473 893 L473 827 Z M457 997 L805 997 L805 1035 L457 1035 L457 997 Z M1180 0 L1248 0 L662 700 L602 700 L15 0 L83 0 L207 148 L1056 148 L1180 0 Z M632 655 L1017 194 L245 194 L632 655 Z " />
<glyph glyph-name="uni01DF" unicode="&#x1df;" horiz-adv-x="1082" d="M633 687 L699 687 L699 753 L633 753 L633 687 Z M383 687 L449 687 L449 753 L383 753 L383 687 Z M367 857 L715 857 L715 895 L367 895 L367 857 Z M1003 0 L1066 0 L569 560 L513 560 L16 0 L79 0 L187 122 L894 122 L1003 0 Z M541 519 L858 163 L224 163 L541 519 Z " />
<glyph glyph-name="uni01E0" unicode="&#x1e0;" horiz-adv-x="1263" d="M598 827 L664 827 L664 893 L598 893 L598 827 Z M457 997 L805 997 L805 1035 L457 1035 L457 997 Z M1180 0 L1248 0 L662 700 L602 700 L15 0 L83 0 L207 148 L1056 148 L1180 0 Z M632 655 L1017 194 L245 194 L632 655 Z " />
<glyph glyph-name="uni01E1" unicode="&#x1e1;" horiz-adv-x="1082" d="M508 687 L574 687 L574 753 L508 753 L508 687 Z M367 857 L715 857 L715 895 L367 895 L367 857 Z M1003 0 L1066 0 L569 560 L513 560 L16 0 L79 0 L187 122 L894 122 L1003 0 Z M541 519 L858 163 L224 163 L541 519 Z " />
<glyph glyph-name="uni01E2" unicode="&#x1e2;" horiz-adv-x="1699" d="M732 147 L732 0 L1614 0 L1614 50 L787 50 L787 327 L1512 327 L1512 373 L787 373 L787 650 L1614 650 L1614 700 L702 700 L15 0 L84 0 L228 147 L732 147 Z M732 661 L732 193 L273 193 L732 661 Z M795 841 L1143 841 L1143 879 L795 879 L795 841 Z " />
<glyph glyph-name="uni01E3" unicode="&#x1e3;" horiz-adv-x="1454" d="M626 116 L626 0 L1376 0 L1376 45 L676 45 L676 260 L1289 260 L1289 300 L676 300 L676 515 L1376 515 L1376 560 L598 560 L16 0 L80 0 L201 116 L626 116 Z M626 523 L626 157 L244 157 L626 523 Z M685 701 L1033 701 L1033 739 L685 739 L685 701 Z " />
<glyph glyph-name="Gcaron" unicode="&#x1e6;" horiz-adv-x="1256" d="M669 327 L1100 327 L1100 50 L522 50 C241 50 138 184 138 350 C138 516 241 650 522 650 L1099 650 L1099 700 L521 700 C204 700 80 543 80 350 C80 157 204 0 521 0 L1154 0 L1154 373 L669 373 L669 327 Z M814 946 L777 946 L651 808 L525 946 L490 946 L616 775 L686 775 L814 946 Z " />
<glyph glyph-name="gcaron" unicode="&#x1e7;" horiz-adv-x="1081" d="M573 260 L936 260 L936 45 L440 45 C204 45 127 150 127 280 C127 410 204 515 440 515 L939 515 L939 560 L440 560 C170 560 73 434 73 280 C73 126 170 0 440 0 L986 0 L986 300 L573 300 L573 260 Z M714 806 L677 806 L551 668 L425 806 L390 806 L516 635 L586 635 L714 806 Z " />
<glyph glyph-name="uni01E8" unicode="&#x1e8;" horiz-adv-x="1284" d="M1183 700 L1084 700 L182 202 L182 700 L127 700 L127 0 L182 0 L182 146 L542 345 L1175 0 L1274 0 L593 374 L1183 700 Z M764 946 L727 946 L601 808 L475 946 L440 946 L566 775 L636 775 L764 946 Z " />
<glyph glyph-name="uni01E9" unicode="&#x1e9;" horiz-adv-x="1109" d="M1022 560 L926 560 L168 166 L168 560 L117 560 L117 0 L168 0 L168 115 L474 274 L1001 0 L1094 0 L521 299 L1022 560 Z M681 806 L644 806 L518 668 L392 806 L357 806 L483 635 L553 635 L681 806 Z " />
<glyph glyph-name="uni01EA" unicode="&#x1ea;" horiz-adv-x="1348" d="M744 -158 C744 -211 787 -241 852 -241 C888 -241 920 -235 959 -218 L959 -191 C922 -207 897 -211 869 -211 C824 -211 791 -188 791 -147 C791 -77 863 -28 944 0 C1174 38 1268 180 1268 350 C1268 549 1140 710 814 710 L534 710 C208 710 80 549 80 350 C80 151 208 -10 534 -10 L814 -10 C837 -10 859 -9 880 -8 C812 -34 744 -89 744 -158 L744 -158 Z M535 40 C245 40 138 178 138 350 C138 522 245 660 535 660 L813 660 C1103 660 1210 522 1210 350 C1210 178 1103 40 813 40 L535 40 Z " />
<glyph glyph-name="uni01EB" unicode="&#x1eb;" horiz-adv-x="1156" d="M615 -158 C615 -211 658 -241 723 -241 C759 -241 791 -235 830 -218 L830 -191 C793 -207 768 -211 740 -211 C695 -211 662 -188 662 -147 C662 -77 734 -28 814 0 C1009 30 1083 144 1083 280 C1083 439 982 568 705 568 L451 568 C174 568 73 439 73 280 C73 121 174 -8 451 -8 L705 -8 C722 -8 738 -7 754 -6 C685 -32 615 -88 615 -158 L615 -158 Z M452 37 C208 37 126 145 126 280 C126 415 208 523 452 523 L704 523 C949 523 1030 415 1030 280 C1030 145 949 37 704 37 L452 37 Z " />
<glyph glyph-name="uni01EC" unicode="&#x1ec;" horiz-adv-x="1348" d="M744 -158 C744 -211 787 -241 852 -241 C888 -241 920 -235 959 -218 L959 -191 C922 -207 897 -211 869 -211 C824 -211 791 -188 791 -147 C791 -77 863 -28 944 0 C1174 38 1268 180 1268 350 C1268 549 1140 710 814 710 L534 710 C208 710 80 549 80 350 C80 151 208 -10 534 -10 L814 -10 C837 -10 859 -9 880 -8 C812 -34 744 -89 744 -158 L744 -158 Z M535 40 C245 40 138 178 138 350 C138 522 245 660 535 660 L813 660 C1103 660 1210 522 1210 350 C1210 178 1103 40 813 40 L535 40 Z M500 841 L848 841 L848 879 L500 879 L500 841 Z " />
<glyph glyph-name="uni01ED" unicode="&#x1ed;" horiz-adv-x="1156" d="M615 -158 C615 -211 658 -241 723 -241 C759 -241 791 -235 830 -218 L830 -191 C793 -207 768 -211 740 -211 C695 -211 662 -188 662 -147 C662 -77 734 -28 814 0 C1009 30 1083 144 1083 280 C1083 439 982 568 705 568 L451 568 C174 568 73 439 73 280 C73 121 174 -8 451 -8 L705 -8 C722 -8 738 -7 754 -6 C685 -32 615 -88 615 -158 L615 -158 Z M452 37 C208 37 126 145 126 280 C126 415 208 523 452 523 L704 523 C949 523 1030 415 1030 280 C1030 145 949 37 704 37 L452 37 Z M404 701 L752 701 L752 739 L404 739 L404 701 Z " />
<glyph glyph-name="uni01F0" unicode="&#x1f0;" horiz-adv-x="1043" d="M333 -4 L596 -4 C866 -4 946 106 946 260 L946 560 L896 560 L896 260 C896 131 831 41 596 41 L334 41 C152 41 98 121 98 220 L98 254 L47 254 L47 220 C47 97 117 -4 333 -4 L333 -4 Z M1053 806 L1016 806 L890 668 L764 806 L729 806 L855 635 L925 635 L1053 806 Z " />
<glyph glyph-name="uni01F1" unicode="&#x1f1;" horiz-adv-x="2447" d="M127 0 L734 0 C1051 0 1175 157 1175 350 C1175 543 1051 700 734 700 L127 700 L127 0 Z M733 650 C1014 650 1117 516 1117 350 C1117 184 1014 50 733 50 L182 50 L182 650 L733 650 Z M1332 0 L2380 0 L2380 50 L1435 50 L2360 660 L2360 700 L1342 700 L1342 650 L2256 650 L1332 40 L1332 0 Z " />
<glyph glyph-name="uni01F2" unicode="&#x1f2;" horiz-adv-x="2277" d="M127 0 L734 0 C1051 0 1175 157 1175 350 C1175 543 1051 700 734 700 L127 700 L127 0 Z M733 650 C1014 650 1117 516 1117 350 C1117 184 1014 50 733 50 L182 50 L182 650 L733 650 Z M1325 0 L2217 0 L2217 45 L1420 45 L2200 524 L2200 560 L1334 560 L1334 515 L2103 515 L1325 36 L1325 0 Z " />
<glyph glyph-name="uni01F3" unicode="&#x1f3;" horiz-adv-x="2103" d="M117 0 L641 0 C911 0 1008 126 1008 280 C1008 434 911 560 641 560 L117 560 L117 0 Z M641 515 C878 515 955 410 955 280 C955 150 878 45 641 45 L168 45 L168 515 L641 515 Z M1151 0 L2043 0 L2043 45 L1246 45 L2026 524 L2026 560 L1160 560 L1160 515 L1929 515 L1151 36 L1151 0 Z " />
<glyph glyph-name="uni01F4" unicode="&#x1f4;" horiz-adv-x="1256" d="M669 327 L1100 327 L1100 50 L522 50 C241 50 138 184 138 350 C138 516 241 650 522 650 L1099 650 L1099 700 L521 700 C204 700 80 543 80 350 C80 157 204 0 521 0 L1154 0 L1154 373 L669 373 L669 327 Z M594 775 L630 775 L775 946 L706 946 L594 775 Z " />
<glyph glyph-name="uni01F5" unicode="&#x1f5;" horiz-adv-x="1081" d="M573 260 L936 260 L936 45 L440 45 C204 45 127 150 127 280 C127 410 204 515 440 515 L939 515 L939 560 L440 560 C170 560 73 434 73 280 C73 126 170 0 440 0 L986 0 L986 300 L573 300 L573 260 Z M494 635 L530 635 L675 806 L606 806 L494 635 Z " />
<glyph glyph-name="uni01F8" unicode="&#x1f8;" horiz-adv-x="1303" d="M1124 0 L1176 0 L1176 700 L1121 700 L1121 65 L179 700 L127 700 L127 0 L182 0 L182 635 L1124 0 Z M596 946 L527 946 L672 775 L708 775 L596 946 Z " />
<glyph glyph-name="uni01F9" unicode="&#x1f9;" horiz-adv-x="1127" d="M1010 0 L1010 560 L959 560 L959 58 L165 560 L117 560 L117 0 L168 0 L168 502 L961 0 L1010 0 Z M508 806 L439 806 L584 635 L620 635 L508 806 Z " />
<glyph glyph-name="Aringacute" unicode="&#x1fa;" horiz-adv-x="1263" d="M1180 0 L1248 0 L662 700 L602 700 L15 0 L83 0 L207 148 L1056 148 L1180 0 Z M632 655 L1017 194 L245 194 L632 655 Z M556 861 C556 902 590 936 631 936 C673 936 706 902 706 861 C706 819 673 786 631 786 C590 786 556 819 556 861 L556 861 Z M521 861 C521 801 568 753 631 753 C693 753 741 801 741 861 C741 921 693 968 631 968 C568 968 521 921 521 861 L521 861 Z M573 995 L609 995 L754 1166 L685 1166 L573 995 Z " />
<glyph glyph-name="aringacute" unicode="&#x1fb;" horiz-adv-x="1082" d="M1003 0 L1066 0 L569 560 L513 560 L16 0 L79 0 L187 122 L894 122 L1003 0 Z M541 519 L858 163 L224 163 L541 519 Z M466 721 C466 762 500 796 541 796 C583 796 616 762 616 721 C616 679 583 646 541 646 C500 646 466 679 466 721 L466 721 Z M431 721 C431 661 478 613 541 613 C603 613 651 661 651 721 C651 781 603 828 541 828 C478 828 431 781 431 721 L431 721 Z M483 855 L519 855 L664 1026 L595 1026 L483 855 Z " />
<glyph glyph-name="AEacute" unicode="&#x1fc;" horiz-adv-x="1699" d="M732 147 L732 0 L1614 0 L1614 50 L787 50 L787 327 L1512 327 L1512 373 L787 373 L787 650 L1614 650 L1614 700 L702 700 L15 0 L84 0 L228 147 L732 147 Z M732 661 L732 193 L273 193 L732 661 Z M911 775 L947 775 L1092 946 L1023 946 L911 775 Z " />
<glyph glyph-name="aeacute" unicode="&#x1fd;" horiz-adv-x="1454" d="M626 116 L626 0 L1376 0 L1376 45 L676 45 L676 260 L1289 260 L1289 300 L676 300 L676 515 L1376 515 L1376 560 L598 560 L16 0 L80 0 L201 116 L626 116 Z M626 523 L626 157 L244 157 L626 523 Z M801 635 L837 635 L982 806 L913 806 L801 635 Z " />
<glyph glyph-name="Oslashacute" unicode="&#x1fe;" horiz-adv-x="1348" d="M616 775 L652 775 L797 946 L728 946 L616 775 Z M814 -10 C1140 -10 1268 151 1268 350 C1268 509 1186 643 987 691 L1077 800 L1011 800 L930 702 C895 707 856 710 814 710 L534 710 C208 710 80 549 80 350 C80 191 161 57 359 9 L270 -100 L335 -100 L416 -2 C452 -7 491 -10 534 -10 L814 -10 Z M535 40 C506 40 479 41 454 44 L951 647 C1138 609 1210 491 1210 350 C1210 178 1103 40 813 40 L535 40 Z M138 350 C138 522 245 660 535 660 L813 660 C841 660 867 658 892 656 L395 52 C210 90 138 209 138 350 L138 350 Z " />
<glyph glyph-name="oslashacute" unicode="&#x1ff;" horiz-adv-x="1156" d="M520 635 L556 635 L701 806 L632 806 L520 635 Z M705 -8 C982 -8 1083 121 1083 280 C1083 408 1017 516 846 554 L921 640 L861 640 L794 563 C766 566 737 568 705 568 L451 568 C174 568 73 439 73 280 C73 152 139 43 309 6 L234 -80 L294 -80 L361 -2 C389 -6 419 -8 451 -8 L705 -8 Z M452 37 C433 37 415 37 398 39 L812 514 C973 486 1030 393 1030 280 C1030 145 949 37 704 37 L452 37 Z M126 280 C126 415 208 523 452 523 L704 523 C723 523 740 522 757 521 L343 45 C183 73 126 167 126 280 L126 280 Z " />
<glyph glyph-name="uni0200" unicode="&#x200;" horiz-adv-x="1263" d="M474 946 L405 946 L550 775 L586 775 L474 946 Z M679 946 L611 946 L756 775 L792 775 L679 946 Z M1180 0 L1248 0 L662 700 L602 700 L15 0 L83 0 L207 148 L1056 148 L1180 0 Z M632 655 L1017 194 L245 194 L632 655 Z " />
<glyph glyph-name="uni0201" unicode="&#x201;" horiz-adv-x="1082" d="M383 806 L314 806 L459 635 L495 635 L383 806 Z M588 806 L520 806 L665 635 L701 635 L588 806 Z M1003 0 L1066 0 L569 560 L513 560 L16 0 L79 0 L187 122 L894 122 L1003 0 Z M541 519 L858 163 L224 163 L541 519 Z " />
<glyph glyph-name="uni0202" unicode="&#x202;" horiz-adv-x="1263" d="M631 891 C719 891 750 844 756 790 L788 790 C782 859 745 931 631 931 C516 931 479 859 474 790 L506 790 C511 844 543 891 631 891 L631 891 Z M1180 0 L1248 0 L662 700 L602 700 L15 0 L83 0 L207 148 L1056 148 L1180 0 Z M632 655 L1017 194 L245 194 L632 655 Z " />
<glyph glyph-name="uni0203" unicode="&#x203;" horiz-adv-x="1082" d="M541 751 C629 751 660 704 666 650 L698 650 C692 719 655 791 541 791 C426 791 389 719 384 650 L416 650 C421 704 453 751 541 751 L541 751 Z M1003 0 L1066 0 L569 560 L513 560 L16 0 L79 0 L187 122 L894 122 L1003 0 Z M541 519 L858 163 L224 163 L541 519 Z " />
<glyph glyph-name="uni0204" unicode="&#x204;" horiz-adv-x="1199" d="M127 0 L1114 0 L1114 50 L182 50 L182 327 L1012 327 L1012 373 L182 373 L182 650 L1114 650 L1114 700 L127 700 L127 0 Z M452 946 L383 946 L528 775 L564 775 L452 946 Z M657 946 L589 946 L734 775 L770 775 L657 946 Z " />
<glyph glyph-name="uni0205" unicode="&#x205;" horiz-adv-x="1034" d="M117 0 L956 0 L956 45 L168 45 L168 260 L869 260 L869 300 L168 300 L168 515 L956 515 L956 560 L117 560 L117 0 Z M372 806 L303 806 L448 635 L484 635 L372 806 Z M577 806 L509 806 L654 635 L690 635 L577 806 Z " />
<glyph glyph-name="uni0206" unicode="&#x206;" horiz-adv-x="1199" d="M127 0 L1114 0 L1114 50 L182 50 L182 327 L1012 327 L1012 373 L182 373 L182 650 L1114 650 L1114 700 L127 700 L127 0 Z M609 891 C697 891 728 844 734 790 L766 790 C760 859 723 931 609 931 C494 931 457 859 452 790 L484 790 C489 844 521 891 609 891 L609 891 Z " />
<glyph glyph-name="uni0207" unicode="&#x207;" horiz-adv-x="1034" d="M117 0 L956 0 L956 45 L168 45 L168 260 L869 260 L869 300 L168 300 L168 515 L956 515 L956 560 L117 560 L117 0 Z M529 751 C617 751 648 704 654 650 L686 650 C680 719 643 791 529 791 C414 791 377 719 372 650 L404 650 C409 704 441 751 529 751 L529 751 Z " />
<glyph glyph-name="uni0208" unicode="&#x208;" horiz-adv-x="309" d="M-3 946 L-72 946 L73 775 L109 775 L-3 946 Z M202 946 L134 946 L279 775 L315 775 L202 946 Z M127 0 L182 0 L182 700 L127 700 L127 0 Z " />
<glyph glyph-name="uni0209" unicode="&#x209;" horiz-adv-x="285" d="M-15 806 L-84 806 L61 635 L97 635 L-15 806 Z M190 806 L122 806 L267 635 L303 635 L190 806 Z M117 0 L168 0 L168 560 L117 560 L117 0 Z " />
<glyph glyph-name="uni020A" unicode="&#x20a;" horiz-adv-x="309" d="M154 891 C242 891 273 844 279 790 L311 790 C305 859 268 931 154 931 C39 931 2 859 -3 790 L29 790 C34 844 66 891 154 891 L154 891 Z M127 0 L182 0 L182 700 L127 700 L127 0 Z " />
<glyph glyph-name="uni020B" unicode="&#x20b;" horiz-adv-x="285" d="M143 751 C231 751 262 704 268 650 L300 650 C294 719 257 791 143 791 C28 791 -9 719 -14 650 L18 650 C23 704 55 751 143 751 L143 751 Z M117 0 L168 0 L168 560 L117 560 L117 0 Z " />
<glyph glyph-name="uni020C" unicode="&#x20c;" horiz-adv-x="1348" d="M516 946 L447 946 L592 775 L628 775 L516 946 Z M721 946 L653 946 L798 775 L834 775 L721 946 Z M814 -10 C1140 -10 1268 151 1268 350 C1268 549 1140 710 814 710 L534 710 C208 710 80 549 80 350 C80 151 208 -10 534 -10 L814 -10 Z M535 40 C245 40 138 178 138 350 C138 522 245 660 535 660 L813 660 C1103 660 1210 522 1210 350 C1210 178 1103 40 813 40 L535 40 Z " />
<glyph glyph-name="uni020D" unicode="&#x20d;" horiz-adv-x="1156" d="M420 806 L351 806 L496 635 L532 635 L420 806 Z M625 806 L557 806 L702 635 L738 635 L625 806 Z M705 -8 C982 -8 1083 121 1083 280 C1083 439 982 568 705 568 L451 568 C174 568 73 439 73 280 C73 121 174 -8 451 -8 L705 -8 Z M452 37 C208 37 126 145 126 280 C126 415 208 523 452 523 L704 523 C949 523 1030 415 1030 280 C1030 145 949 37 704 37 L452 37 Z " />
<glyph glyph-name="uni020E" unicode="&#x20e;" horiz-adv-x="1348" d="M674 891 C762 891 793 844 799 790 L831 790 C825 859 788 931 674 931 C559 931 522 859 517 790 L549 790 C554 844 586 891 674 891 L674 891 Z M814 -10 C1140 -10 1268 151 1268 350 C1268 549 1140 710 814 710 L534 710 C208 710 80 549 80 350 C80 151 208 -10 534 -10 L814 -10 Z M535 40 C245 40 138 178 138 350 C138 522 245 660 535 660 L813 660 C1103 660 1210 522 1210 350 C1210 178 1103 40 813 40 L535 40 Z " />
<glyph glyph-name="uni020F" unicode="&#x20f;" horiz-adv-x="1156" d="M578 751 C666 751 697 704 703 650 L735 650 C729 719 692 791 578 791 C463 791 426 719 421 650 L453 650 C458 704 490 751 578 751 L578 751 Z M705 -8 C982 -8 1083 121 1083 280 C1083 439 982 568 705 568 L451 568 C174 568 73 439 73 280 C73 121 174 -8 451 -8 L705 -8 Z M452 37 C208 37 126 145 126 280 C126 415 208 523 452 523 L704 523 C949 523 1030 415 1030 280 C1030 145 949 37 704 37 L452 37 Z " />
<glyph glyph-name="uni0210" unicode="&#x210;" horiz-adv-x="1276" d="M127 0 L182 0 L182 286 L648 286 L1168 0 L1266 0 L741 286 L879 286 C1068 286 1141 377 1141 493 C1141 607 1068 700 879 700 L127 700 L127 0 Z M876 650 C1030 650 1084 579 1084 492 C1084 403 1030 334 876 334 L182 334 L182 650 L876 650 Z M441 946 L372 946 L517 775 L553 775 L441 946 Z M646 946 L578 946 L723 775 L759 775 L646 946 Z " />
<glyph glyph-name="uni0211" unicode="&#x211;" horiz-adv-x="1105" d="M117 0 L168 0 L168 226 L561 226 L995 0 L1086 0 L645 227 L762 227 C923 227 980 299 980 393 C980 485 923 560 762 560 L117 560 L117 0 Z M760 515 C888 515 927 460 927 393 C927 323 888 270 760 270 L168 270 L168 515 L760 515 Z M360 806 L291 806 L436 635 L472 635 L360 806 Z M565 806 L497 806 L642 635 L678 635 L565 806 Z " />
<glyph glyph-name="uni0212" unicode="&#x212;" horiz-adv-x="1276" d="M127 0 L182 0 L182 286 L648 286 L1168 0 L1266 0 L741 286 L879 286 C1068 286 1141 377 1141 493 C1141 607 1068 700 879 700 L127 700 L127 0 Z M876 650 C1030 650 1084 579 1084 492 C1084 403 1030 334 876 334 L182 334 L182 650 L876 650 Z M598 891 C686 891 717 844 723 790 L755 790 C749 859 712 931 598 931 C483 931 446 859 441 790 L473 790 C478 844 510 891 598 891 L598 891 Z " />
<glyph glyph-name="uni0213" unicode="&#x213;" horiz-adv-x="1105" d="M117 0 L168 0 L168 226 L561 226 L995 0 L1086 0 L645 227 L762 227 C923 227 980 299 980 393 C980 485 923 560 762 560 L117 560 L117 0 Z M760 515 C888 515 927 460 927 393 C927 323 888 270 760 270 L168 270 L168 515 L760 515 Z M517 751 C605 751 636 704 642 650 L674 650 C668 719 631 791 517 791 C402 791 365 719 360 650 L392 650 C397 704 429 751 517 751 L517 751 Z " />
<glyph glyph-name="uni0214" unicode="&#x214;" horiz-adv-x="1275" d="M480 946 L411 946 L556 775 L592 775 L480 946 Z M685 946 L617 946 L762 775 L798 775 L685 946 Z M162 323 L162 700 L107 700 L107 323 C107 130 211 -10 528 -10 L747 -10 C1064 -10 1168 130 1168 323 L1168 700 L1113 700 L1113 323 C1113 158 1026 40 746 40 L529 40 C249 40 162 158 162 323 L162 323 Z " />
<glyph glyph-name="uni0215" unicode="&#x215;" horiz-adv-x="1096" d="M390 806 L321 806 L466 635 L502 635 L390 806 Z M595 806 L527 806 L672 635 L708 635 L595 806 Z M147 258 L147 560 L97 560 L97 258 C97 104 177 -8 446 -8 L649 -8 C918 -8 999 104 999 258 L999 560 L948 560 L948 258 C948 129 884 37 648 37 L447 37 C212 37 147 129 147 258 L147 258 Z " />
<glyph glyph-name="uni0216" unicode="&#x216;" horiz-adv-x="1275" d="M637 891 C725 891 756 844 762 790 L794 790 C788 859 751 931 637 931 C522 931 485 859 480 790 L512 790 C517 844 549 891 637 891 L637 891 Z M162 323 L162 700 L107 700 L107 323 C107 130 211 -10 528 -10 L747 -10 C1064 -10 1168 130 1168 323 L1168 700 L1113 700 L1113 323 C1113 158 1026 40 746 40 L529 40 C249 40 162 158 162 323 L162 323 Z " />
<glyph glyph-name="uni0217" unicode="&#x217;" horiz-adv-x="1096" d="M548 751 C636 751 667 704 673 650 L705 650 C699 719 662 791 548 791 C433 791 396 719 391 650 L423 650 C428 704 460 751 548 751 L548 751 Z M147 258 L147 560 L97 560 L97 258 C97 104 177 -8 446 -8 L649 -8 C918 -8 999 104 999 258 L999 560 L948 560 L948 258 C948 129 884 37 648 37 L447 37 C212 37 147 129 147 258 L147 258 Z " />
<glyph glyph-name="uni0218" unicode="&#x218;" horiz-adv-x="1207" d="M570 -194 L600 -194 L568 -284 L596 -284 L636 -190 L636 -128 L570 -128 L570 -194 Z M117 0 L893 0 C1064 0 1130 84 1130 187 C1130 292 1064 373 893 373 L316 373 C181 373 134 434 134 512 C134 587 181 650 316 650 L1090 650 L1090 700 L314 700 C143 700 77 616 77 513 C77 408 143 327 314 327 L891 327 C1026 327 1073 266 1073 188 C1073 113 1026 50 891 50 L117 50 L117 0 Z " />
<glyph glyph-name="uni0219" unicode="&#x219;" horiz-adv-x="1033" d="M483 -194 L513 -194 L481 -284 L509 -284 L549 -190 L549 -128 L483 -128 L483 -194 Z M103 0 L768 0 C914 0 964 67 964 150 C964 235 914 300 768 300 L268 300 C156 300 122 348 122 408 C122 467 156 515 268 515 L930 515 L930 560 L265 560 C119 560 69 493 69 410 C69 325 119 260 265 260 L766 260 C877 260 911 212 911 152 C911 93 878 45 766 45 L103 45 L103 0 Z " />
<glyph glyph-name="uni021A" unicode="&#x21a;" horiz-adv-x="1184" d="M559 -194 L589 -194 L557 -284 L585 -284 L625 -190 L625 -128 L559 -128 L559 -194 Z M35 650 L565 650 L565 0 L619 0 L619 650 L1149 650 L1149 700 L35 700 L35 650 Z " />
<glyph glyph-name="uni021B" unicode="&#x21b;" horiz-adv-x="1042" d="M488 -194 L518 -194 L486 -284 L514 -284 L554 -190 L554 -128 L488 -128 L488 -194 Z M48 515 L495 515 L495 0 L546 0 L546 515 L994 515 L994 560 L48 560 L48 515 Z " />
<glyph glyph-name="uni021E" unicode="&#x21e;" horiz-adv-x="1305" d="M1123 0 L1178 0 L1178 700 L1123 700 L1123 375 L182 375 L182 700 L127 700 L127 0 L182 0 L182 325 L1123 325 L1123 0 Z M814 946 L777 946 L651 808 L525 946 L490 946 L616 775 L686 775 L814 946 Z " />
<glyph glyph-name="uni021F" unicode="&#x21f;" horiz-adv-x="1128" d="M960 0 L1011 0 L1011 560 L960 560 L960 302 L168 302 L168 560 L117 560 L117 0 L168 0 L168 258 L960 258 L960 0 Z M726 806 L689 806 L563 668 L437 806 L402 806 L528 635 L598 635 L726 806 Z " />
<glyph glyph-name="uni0226" unicode="&#x226;" horiz-adv-x="1263" d="M1180 0 L1248 0 L662 700 L602 700 L15 0 L83 0 L207 148 L1056 148 L1180 0 Z M632 655 L1017 194 L245 194 L632 655 Z M598 827 L664 827 L664 893 L598 893 L598 827 Z " />
<glyph glyph-name="uni0227" unicode="&#x227;" horiz-adv-x="1082" d="M1003 0 L1066 0 L569 560 L513 560 L16 0 L79 0 L187 122 L894 122 L1003 0 Z M541 519 L858 163 L224 163 L541 519 Z M508 687 L574 687 L574 753 L508 753 L508 687 Z " />
<glyph glyph-name="uni0228" unicode="&#x228;" horiz-adv-x="1199" d="M127 0 L596 0 L569 -96 L587 -96 C658 -96 697 -111 697 -157 C697 -238 546 -223 500 -200 L500 -226 C572 -261 740 -271 740 -158 C740 -84 676 -69 606 -69 L601 -69 L620 0 L1114 0 L1114 50 L182 50 L182 327 L1012 327 L1012 373 L182 373 L182 650 L1114 650 L1114 700 L127 700 L127 0 Z " />
<glyph glyph-name="uni0229" unicode="&#x229;" horiz-adv-x="1034" d="M117 0 L516 0 L489 -96 L507 -96 C578 -96 617 -111 617 -157 C617 -238 466 -223 420 -200 L420 -226 C492 -261 660 -271 660 -158 C660 -84 596 -69 526 -69 L521 -69 L540 0 L956 0 L956 45 L168 45 L168 260 L869 260 L869 300 L168 300 L168 515 L956 515 L956 560 L117 560 L117 0 Z " />
<glyph glyph-name="uni022A" unicode="&#x22a;" horiz-adv-x="1348" d="M766 827 L832 827 L832 893 L766 893 L766 827 Z M516 827 L582 827 L582 893 L516 893 L516 827 Z M500 997 L848 997 L848 1035 L500 1035 L500 997 Z M814 -10 C1140 -10 1268 151 1268 350 C1268 549 1140 710 814 710 L534 710 C208 710 80 549 80 350 C80 151 208 -10 534 -10 L814 -10 Z M535 40 C245 40 138 178 138 350 C138 522 245 660 535 660 L813 660 C1103 660 1210 522 1210 350 C1210 178 1103 40 813 40 L535 40 Z " />
<glyph glyph-name="uni022B" unicode="&#x22b;" horiz-adv-x="1156" d="M670 687 L736 687 L736 753 L670 753 L670 687 Z M420 687 L486 687 L486 753 L420 753 L420 687 Z M404 857 L752 857 L752 895 L404 895 L404 857 Z M705 -8 C982 -8 1083 121 1083 280 C1083 439 982 568 705 568 L451 568 C174 568 73 439 73 280 C73 121 174 -8 451 -8 L705 -8 Z M452 37 C208 37 126 145 126 280 C126 415 208 523 452 523 L704 523 C949 523 1030 415 1030 280 C1030 145 949 37 704 37 L452 37 Z " />
<glyph glyph-name="uni022C" unicode="&#x22c;" horiz-adv-x="1348" d="M812 925 C805 857 781 847 752 847 C702 847 661 916 596 916 C549 916 516 891 506 796 L536 796 C543 864 567 874 596 874 C646 874 687 805 752 805 C799 805 833 830 842 925 L812 925 Z M500 1006 L848 1006 L848 1044 L500 1044 L500 1006 Z M814 -10 C1140 -10 1268 151 1268 350 C1268 549 1140 710 814 710 L534 710 C208 710 80 549 80 350 C80 151 208 -10 534 -10 L814 -10 Z M535 40 C245 40 138 178 138 350 C138 522 245 660 535 660 L813 660 C1103 660 1210 522 1210 350 C1210 178 1103 40 813 40 L535 40 Z " />
<glyph glyph-name="uni022D" unicode="&#x22d;" horiz-adv-x="1156" d="M716 785 C709 717 685 707 656 707 C606 707 565 776 500 776 C453 776 420 751 410 656 L440 656 C447 724 471 734 500 734 C550 734 591 665 656 665 C703 665 737 690 746 785 L716 785 Z M404 866 L752 866 L752 904 L404 904 L404 866 Z M705 -8 C982 -8 1083 121 1083 280 C1083 439 982 568 705 568 L451 568 C174 568 73 439 73 280 C73 121 174 -8 451 -8 L705 -8 Z M452 37 C208 37 126 145 126 280 C126 415 208 523 452 523 L704 523 C949 523 1030 415 1030 280 C1030 145 949 37 704 37 L452 37 Z " />
<glyph glyph-name="uni022E" unicode="&#x22e;" horiz-adv-x="1348" d="M814 -10 C1140 -10 1268 151 1268 350 C1268 549 1140 710 814 710 L534 710 C208 710 80 549 80 350 C80 151 208 -10 534 -10 L814 -10 Z M535 40 C245 40 138 178 138 350 C138 522 245 660 535 660 L813 660 C1103 660 1210 522 1210 350 C1210 178 1103 40 813 40 L535 40 Z M641 827 L707 827 L707 893 L641 893 L641 827 Z " />
<glyph glyph-name="uni022F" unicode="&#x22f;" horiz-adv-x="1156" d="M705 -8 C982 -8 1083 121 1083 280 C1083 439 982 568 705 568 L451 568 C174 568 73 439 73 280 C73 121 174 -8 451 -8 L705 -8 Z M452 37 C208 37 126 145 126 280 C126 415 208 523 452 523 L704 523 C949 523 1030 415 1030 280 C1030 145 949 37 704 37 L452 37 Z M545 687 L611 687 L611 753 L545 753 L545 687 Z " />
<glyph glyph-name="uni0230" unicode="&#x230;" horiz-adv-x="1348" d="M641 827 L707 827 L707 893 L641 893 L641 827 Z M500 997 L848 997 L848 1035 L500 1035 L500 997 Z M814 -10 C1140 -10 1268 151 1268 350 C1268 549 1140 710 814 710 L534 710 C208 710 80 549 80 350 C80 151 208 -10 534 -10 L814 -10 Z M535 40 C245 40 138 178 138 350 C138 522 245 660 535 660 L813 660 C1103 660 1210 522 1210 350 C1210 178 1103 40 813 40 L535 40 Z " />
<glyph glyph-name="uni0231" unicode="&#x231;" horiz-adv-x="1156" d="M545 687 L611 687 L611 753 L545 753 L545 687 Z M404 857 L752 857 L752 895 L404 895 L404 857 Z M705 -8 C982 -8 1083 121 1083 280 C1083 439 982 568 705 568 L451 568 C174 568 73 439 73 280 C73 121 174 -8 451 -8 L705 -8 Z M452 37 C208 37 126 145 126 280 C126 415 208 523 452 523 L704 523 C949 523 1030 415 1030 280 C1030 145 949 37 704 37 L452 37 Z " />
<glyph glyph-name="uni0232" unicode="&#x232;" horiz-adv-x="1243" d="M594 0 L649 0 L649 211 L1238 700 L1156 700 L622 254 L87 700 L5 700 L594 211 L594 0 Z M447 841 L795 841 L795 879 L447 879 L447 841 Z " />
<glyph glyph-name="uni0233" unicode="&#x233;" horiz-adv-x="1059" d="M505 0 L555 0 L555 169 L1054 560 L979 560 L530 208 L80 560 L5 560 L505 169 L505 0 Z M355 701 L703 701 L703 739 L355 739 L355 701 Z " />
<glyph glyph-name="uni0237" unicode="&#x237;" horiz-adv-x="1043" d="M333 -4 L596 -4 C866 -4 946 106 946 260 L946 560 L896 560 L896 260 C896 131 831 41 596 41 L334 41 C152 41 98 121 98 220 L98 254 L47 254 L47 220 C47 97 117 -4 333 -4 L333 -4 Z " />
<glyph glyph-name="uni0256" unicode="&#x256;" horiz-adv-x="1081" d="M-3 260 L117 260 L117 0 L641 0 C911 0 1008 126 1008 280 C1008 434 911 560 641 560 L117 560 L117 300 L-3 300 L-3 260 Z M641 515 C878 515 955 410 955 280 C955 150 878 45 641 45 L168 45 L168 260 L561 260 L561 300 L168 300 L168 515 L641 515 Z " />
<glyph glyph-name="uni02BB" unicode="&#x2bb;" horiz-adv-x="274" d="M172 603 L138 603 L170 700 L142 700 L102 600 L102 533 L172 533 L172 603 Z " />
<glyph glyph-name="uni02BC" unicode="&#x2bc;" horiz-adv-x="274" d="M102 630 L136 630 L104 533 L132 533 L172 633 L172 700 L102 700 L102 630 Z " />
<glyph glyph-name="uni02BD" unicode="&#x2bd;" horiz-adv-x="274" d="M172 700 L102 700 L102 633 L142 533 L170 533 L138 630 L172 630 L172 700 Z " />
<glyph glyph-name="circumflex" unicode="&#x2c6;" horiz-adv-x="500" d="M284 806 L214 806 L88 635 L123 635 L249 773 L375 635 L412 635 L284 806 Z " />
<glyph glyph-name="caron" unicode="&#x2c7;" horiz-adv-x="500" d="M412 806 L375 806 L249 668 L123 806 L88 806 L214 635 L284 635 L412 806 Z " />
<glyph glyph-name="uni02C9" unicode="&#x2c9;" horiz-adv-x="500" d="M76 701 L424 701 L424 739 L76 739 L76 701 Z " />
<glyph glyph-name="uni02CA" unicode="&#x2ca;" horiz-adv-x="500" d="M192 635 L228 635 L373 806 L304 806 L192 635 Z " />
<glyph glyph-name="uni02CB" unicode="&#x2cb;" horiz-adv-x="500" d="M195 806 L126 806 L271 635 L307 635 L195 806 Z " />
<glyph glyph-name="uni02CD" unicode="&#x2cd;" horiz-adv-x="500" d="M76 -180 L424 -180 L424 -142 L76 -142 L76 -180 Z " />
<glyph glyph-name="uni02CE" unicode="&#x2ce;" horiz-adv-x="500" d="M195 -75 L126 -75 L271 -246 L307 -246 L195 -75 Z " />
<glyph glyph-name="uni02CF" unicode="&#x2cf;" horiz-adv-x="500" d="M192 -246 L228 -246 L373 -75 L304 -75 L192 -246 Z " />
<glyph glyph-name="breve" unicode="&#x2d8;" horiz-adv-x="500" d="M250 690 C162 690 130 737 125 791 L93 791 C98 722 135 650 250 650 C364 650 401 722 407 791 L375 791 C369 737 338 690 250 690 L250 690 Z " />
<glyph glyph-name="dotaccent" unicode="&#x2d9;" horiz-adv-x="500" d="M217 687 L283 687 L283 753 L217 753 L217 687 Z " />
<glyph glyph-name="ring" unicode="&#x2da;" horiz-adv-x="500" d="M175 721 C175 762 209 796 250 796 C292 796 325 762 325 721 C325 679 292 646 250 646 C209 646 175 679 175 721 L175 721 Z M140 721 C140 661 187 613 250 613 C312 613 360 661 360 721 C360 781 312 828 250 828 C187 828 140 781 140 721 L140 721 Z " />
<glyph glyph-name="ogonek" unicode="&#x2db;" horiz-adv-x="500" d="M179 -158 C179 -211 222 -241 287 -241 C323 -241 355 -235 394 -218 L394 -191 C357 -207 332 -211 304 -211 C259 -211 226 -188 226 -147 C226 -77 298 -28 379 0 L338 0 C264 -22 179 -81 179 -158 L179 -158 Z " />
<glyph glyph-name="tilde" unicode="&#x2dc;" horiz-adv-x="500" d="M388 785 C381 717 357 707 328 707 C278 707 237 776 172 776 C125 776 92 751 82 656 L112 656 C119 724 143 734 172 734 C222 734 263 665 328 665 C375 665 409 690 418 785 L388 785 Z " />
<glyph glyph-name="hungarumlaut" unicode="&#x2dd;" horiz-adv-x="500" d="M295 635 L331 635 L476 806 L407 806 L295 635 Z M89 635 L125 635 L270 806 L202 806 L89 635 Z " />
<glyph glyph-name="uni02EC" unicode="&#x2ec;" horiz-adv-x="500" d="M412 -75 L375 -75 L249 -213 L123 -75 L88 -75 L214 -246 L284 -246 L412 -75 Z " />
<glyph glyph-name="uni02EE" unicode="&#x2ee;" horiz-adv-x="469" d="M102 630 L136 630 L104 533 L132 533 L172 633 L172 700 L102 700 L102 630 Z M297 630 L331 630 L299 533 L327 533 L367 633 L367 700 L297 700 L297 630 Z " />
<glyph glyph-name="gravecomb" unicode="&#x300;" d="M-638 806 L-707 806 L-562 635 L-526 635 L-638 806 Z " />
<glyph glyph-name="acutecomb" unicode="&#x301;" d="M-641 635 L-605 635 L-460 806 L-529 806 L-641 635 Z " />
<glyph glyph-name="uni0302" unicode="&#x302;" d="M-550 806 L-620 806 L-746 635 L-711 635 L-585 773 L-459 635 L-422 635 L-550 806 Z " />
<glyph glyph-name="tildecomb" unicode="&#x303;" d="M-446 785 C-453 717 -477 707 -506 707 C-556 707 -597 776 -662 776 C-709 776 -742 751 -752 656 L-722 656 C-715 724 -691 734 -662 734 C-612 734 -571 665 -506 665 C-459 665 -425 690 -416 785 L-446 785 Z " />
<glyph glyph-name="uni0304" unicode="&#x304;" d="M-758 701 L-410 701 L-410 739 L-758 739 L-758 701 Z " />
<glyph glyph-name="uni0306" unicode="&#x306;" d="M-584 690 C-672 690 -704 737 -709 791 L-741 791 C-736 722 -699 650 -584 650 C-470 650 -433 722 -427 791 L-459 791 C-465 737 -496 690 -584 690 L-584 690 Z " />
<glyph glyph-name="uni0307" unicode="&#x307;" d="M-617 687 L-551 687 L-551 753 L-617 753 L-617 687 Z " />
<glyph glyph-name="uni0308" unicode="&#x308;" d="M-492 687 L-426 687 L-426 753 L-492 753 L-492 687 Z M-742 687 L-676 687 L-676 753 L-742 753 L-742 687 Z " />
<glyph glyph-name="hookabovecomb" unicode="&#x309;" d="M-624 639 L-592 639 L-592 675 L-586 675 C-519 675 -445 687 -445 762 C-445 831 -510 848 -578 848 C-623 848 -669 839 -697 827 L-697 799 C-672 808 -633 816 -594 816 C-541 816 -490 808 -490 759 C-490 710 -531 700 -606 700 L-624 700 L-624 639 Z " />
<glyph glyph-name="uni030A" unicode="&#x30a;" d="M-659 721 C-659 762 -625 796 -584 796 C-542 796 -509 762 -509 721 C-509 679 -542 646 -584 646 C-625 646 -659 679 -659 721 L-659 721 Z M-694 721 C-694 661 -647 613 -584 613 C-522 613 -474 661 -474 721 C-474 781 -522 828 -584 828 C-647 828 -694 781 -694 721 L-694 721 Z " />
<glyph glyph-name="uni030B" unicode="&#x30b;" d="M-538 635 L-502 635 L-357 806 L-426 806 L-538 635 Z M-744 635 L-708 635 L-563 806 L-631 806 L-744 635 Z " />
<glyph glyph-name="uni030C" unicode="&#x30c;" d="M-422 806 L-459 806 L-585 668 L-711 806 L-746 806 L-620 635 L-550 635 L-422 806 Z " />
<glyph glyph-name="uni030F" unicode="&#x30f;" d="M-741 806 L-810 806 L-665 635 L-629 635 L-741 806 Z M-536 806 L-604 806 L-459 635 L-423 635 L-536 806 Z " />
<glyph glyph-name="uni0311" unicode="&#x311;" d="M-584 751 C-496 751 -465 704 -459 650 L-427 650 C-433 719 -470 791 -584 791 C-699 791 -736 719 -741 650 L-709 650 C-704 704 -672 751 -584 751 L-584 751 Z " />
<glyph glyph-name="uni0312" unicode="&#x312;" d="M-549 603 L-583 603 L-551 700 L-579 700 L-619 600 L-619 533 L-549 533 L-549 603 Z " />
<glyph glyph-name="uni0313" unicode="&#x313;" d="M-619 630 L-585 630 L-617 533 L-589 533 L-549 633 L-549 700 L-619 700 L-619 630 Z " />
<glyph glyph-name="uni0314" unicode="&#x314;" d="M-549 700 L-619 700 L-619 633 L-579 533 L-551 533 L-583 630 L-549 630 L-549 700 Z " />
<glyph glyph-name="uni0316" unicode="&#x316;" d="M-638 -75 L-707 -75 L-562 -246 L-526 -246 L-638 -75 Z " />
<glyph glyph-name="uni0317" unicode="&#x317;" d="M-641 -246 L-605 -246 L-460 -75 L-529 -75 L-641 -246 Z " />
<glyph glyph-name="uni031B" unicode="&#x31b;" d="M-125 525 L-8 525 C87 525 150 545 150 639 C150 653 149 668 146 686 L93 686 C96 669 97 655 97 643 C97 574 54 560 -19 560 L-125 560 L-125 525 Z " />
<glyph glyph-name="uni031C" unicode="&#x31c;" d="M-544 -53 C-607 -53 -654 -100 -654 -160 C-654 -220 -607 -268 -544 -268 L-544 -235 C-585 -235 -619 -202 -619 -160 C-619 -119 -585 -85 -544 -85 L-544 -53 Z " />
<glyph glyph-name="dotbelowcomb" unicode="&#x323;" d="M-617 -194 L-551 -194 L-551 -128 L-617 -128 L-617 -194 Z " />
<glyph glyph-name="uni0324" unicode="&#x324;" d="M-492 -194 L-426 -194 L-426 -128 L-492 -128 L-492 -194 Z M-742 -194 L-676 -194 L-676 -128 L-742 -128 L-742 -194 Z " />
<glyph glyph-name="uni0325" unicode="&#x325;" d="M-659 -160 C-659 -119 -625 -85 -584 -85 C-542 -85 -509 -119 -509 -160 C-509 -202 -542 -235 -584 -235 C-625 -235 -659 -202 -659 -160 L-659 -160 Z M-694 -160 C-694 -220 -647 -268 -584 -268 C-522 -268 -474 -220 -474 -160 C-474 -100 -522 -53 -584 -53 C-647 -53 -694 -100 -694 -160 L-694 -160 Z " />
<glyph glyph-name="uni0326" unicode="&#x326;" d="M-617 -194 L-587 -194 L-619 -284 L-591 -284 L-551 -190 L-551 -128 L-617 -128 L-617 -194 Z " />
<glyph glyph-name="uni0327" unicode="&#x327;" d="M-624 -96 L-606 -96 C-535 -96 -496 -111 -496 -157 C-496 -238 -647 -223 -693 -200 L-693 -226 C-621 -261 -453 -271 -453 -158 C-453 -84 -517 -69 -587 -69 L-592 -69 L-573 0 L-597 0 L-624 -96 Z " />
<glyph glyph-name="uni0328" unicode="&#x328;" d="M-655 -158 C-655 -211 -612 -241 -547 -241 C-511 -241 -479 -235 -440 -218 L-440 -191 C-477 -207 -502 -211 -530 -211 C-575 -211 -608 -188 -608 -147 C-608 -77 -536 -28 -455 0 L-496 0 C-570 -22 -655 -81 -655 -158 L-655 -158 Z " />
<glyph glyph-name="uni032C" unicode="&#x32c;" d="M-422 -75 L-459 -75 L-585 -213 L-711 -75 L-746 -75 L-620 -246 L-550 -246 L-422 -75 Z " />
<glyph glyph-name="uni032D" unicode="&#x32d;" d="M-550 -75 L-620 -75 L-746 -246 L-711 -246 L-585 -108 L-459 -246 L-422 -246 L-550 -75 Z " />
<glyph glyph-name="uni032E" unicode="&#x32e;" d="M-584 -191 C-672 -191 -704 -144 -709 -90 L-741 -90 C-736 -159 -699 -231 -584 -231 C-470 -231 -433 -159 -427 -90 L-459 -90 C-465 -144 -496 -191 -584 -191 L-584 -191 Z " />
<glyph glyph-name="uni032F" unicode="&#x32f;" d="M-584 -130 C-496 -130 -465 -177 -459 -231 L-427 -231 C-433 -162 -470 -90 -584 -90 C-699 -90 -736 -162 -741 -231 L-709 -231 C-704 -177 -672 -130 -584 -130 L-584 -130 Z " />
<glyph glyph-name="uni0330" unicode="&#x330;" d="M-446 -96 C-453 -164 -477 -174 -506 -174 C-556 -174 -597 -105 -662 -105 C-709 -105 -742 -130 -752 -225 L-722 -225 C-715 -157 -691 -147 -662 -147 C-612 -147 -571 -216 -506 -216 C-459 -216 -425 -191 -416 -96 L-446 -96 Z " />
<glyph glyph-name="uni0331" unicode="&#x331;" d="M-758 -180 L-410 -180 L-410 -142 L-758 -142 L-758 -180 Z " />
<glyph glyph-name="uni0338" unicode="&#x338;" d="M-860 -75 L-809 -75 L-307 775 L-358 775 L-860 -75 Z " />
<glyph glyph-name="uni0339" unicode="&#x339;" d="M-624 -85 C-583 -85 -549 -119 -549 -160 C-549 -202 -583 -235 -624 -235 L-624 -268 C-561 -268 -514 -220 -514 -160 C-514 -100 -561 -53 -624 -53 L-624 -85 Z " />
<glyph glyph-name="uni0340" unicode="&#x340;" d="M-638 806 L-707 806 L-562 635 L-526 635 L-638 806 Z " />
<glyph glyph-name="uni0341" unicode="&#x341;" d="M-641 635 L-605 635 L-460 806 L-529 806 L-641 635 Z " />
<glyph glyph-name="uni0343" unicode="&#x343;" d="" />
<glyph glyph-name="uni0344" unicode="&#x344;" d="M-465 688 L-400 688 L-400 753 L-465 753 L-465 688 Z M-768 688 L-703 688 L-703 753 L-768 753 L-768 688 Z M-596 635 L-573 635 L-554 835 L-614 835 L-596 635 Z " />
<glyph glyph-name="uni034F" unicode="&#x34f;" d="" />
<glyph glyph-name="uni0351" unicode="&#x351;" d="M-544 828 C-607 828 -654 781 -654 721 C-654 661 -607 613 -544 613 L-544 646 C-585 646 -619 679 -619 721 C-619 762 -585 796 -544 796 L-544 828 Z " />
<glyph glyph-name="uni0357" unicode="&#x357;" d="M-624 796 C-583 796 -549 762 -549 721 C-549 679 -583 646 -624 646 L-624 613 C-561 613 -514 661 -514 721 C-514 781 -561 828 -624 828 L-624 796 Z " />
<glyph glyph-name="uni0374" unicode="&#x374;" horiz-adv-x="271" d="M113 400 L148 400 L218 700 L152 700 L113 400 Z " />
<glyph glyph-name="uni0375" unicode="&#x375;" horiz-adv-x="271" d="M113 -100 L148 -100 L218 200 L152 200 L113 -100 Z " />
<glyph glyph-name="uni037E" unicode="&#x37e;" horiz-adv-x="274" d="M102 0 L136 0 L104 -97 L132 -97 L172 3 L172 70 L102 70 L102 0 Z M102 490 L172 490 L172 560 L102 560 L102 490 Z " />
<glyph glyph-name="tonos" unicode="&#x384;" horiz-adv-x="500" d="M235 635 L263 635 L282 835 L217 835 L235 635 Z " />
<glyph glyph-name="dieresistonos" unicode="&#x385;" horiz-adv-x="500" d="M369 688 L434 688 L434 753 L369 753 L369 688 Z M66 688 L131 688 L131 753 L66 753 L66 688 Z M238 635 L261 635 L280 835 L220 835 L238 635 Z " />
<glyph glyph-name="Alphatonos" unicode="&#x386;" horiz-adv-x="1263" d="M1180 0 L1248 0 L662 700 L602 700 L15 0 L83 0 L207 148 L1056 148 L1180 0 Z M632 655 L1017 194 L245 194 L632 655 Z M168 500 L196 500 L215 700 L150 700 L168 500 Z " />
<glyph glyph-name="anoteleia" unicode="&#x387;" horiz-adv-x="270" d="M102 247 L168 247 L168 313 L102 313 L102 247 Z " />
<glyph glyph-name="Epsilontonos" unicode="&#x388;" horiz-adv-x="1346" d="M59 500 L87 500 L106 700 L41 700 L59 500 Z M274 0 L1261 0 L1261 50 L329 50 L329 327 L1159 327 L1159 373 L329 373 L329 650 L1261 650 L1261 700 L274 700 L274 0 Z " />
<glyph glyph-name="Etatonos" unicode="&#x389;" horiz-adv-x="1452" d="M59 500 L87 500 L106 700 L41 700 L59 500 Z M1270 0 L1325 0 L1325 700 L1270 700 L1270 375 L329 375 L329 700 L274 700 L274 0 L329 0 L329 325 L1270 325 L1270 0 Z " />
<glyph glyph-name="Iotatonos" unicode="&#x38a;" horiz-adv-x="456" d="M59 500 L87 500 L106 700 L41 700 L59 500 Z M274 0 L329 0 L329 700 L274 700 L274 0 Z " />
<glyph glyph-name="Omicrontonos" unicode="&#x38c;" horiz-adv-x="1467" d="M59 500 L87 500 L106 700 L41 700 L59 500 Z M933 -10 C1259 -10 1387 151 1387 350 C1387 549 1259 710 933 710 L653 710 C327 710 199 549 199 350 C199 151 327 -10 653 -10 L933 -10 Z M654 40 C364 40 257 178 257 350 C257 522 364 660 654 660 L932 660 C1222 660 1329 522 1329 350 C1329 178 1222 40 932 40 L654 40 Z " />
<glyph glyph-name="Upsilontonos" unicode="&#x38e;" horiz-adv-x="1399" d="M59 500 L87 500 L106 700 L41 700 L59 500 Z M750 0 L805 0 L805 211 L1394 700 L1312 700 L778 254 L243 700 L161 700 L750 211 L750 0 Z " />
<glyph glyph-name="Omegatonos" unicode="&#x38f;" horiz-adv-x="1461" d="M59 500 L87 500 L106 700 L41 700 L59 500 Z M958 0 L1387 0 L1387 50 L1100 50 C1283 117 1357 251 1357 390 C1357 567 1243 710 953 710 L613 710 C323 710 209 567 209 390 C209 251 282 117 464 50 L179 50 L179 0 L608 0 L608 43 C357 90 262 229 262 380 C262 535 358 660 620 660 L946 660 C1208 660 1304 535 1304 380 C1304 230 1209 90 958 43 L958 0 Z " />
<glyph glyph-name="iotadieresistonos" unicode="&#x390;" horiz-adv-x="285" d="M262 688 L327 688 L327 753 L262 753 L262 688 Z M-41 688 L24 688 L24 753 L-41 753 L-41 688 Z M131 635 L154 635 L173 835 L113 835 L131 635 Z M117 0 L168 0 L168 560 L117 560 L117 0 Z " />
<glyph glyph-name="Alpha" unicode="&#x391;" horiz-adv-x="1263" d="M1180 0 L1248 0 L662 700 L602 700 L15 0 L83 0 L207 148 L1056 148 L1180 0 Z M632 655 L1017 194 L245 194 L632 655 Z " />
<glyph glyph-name="Beta" unicode="&#x392;" horiz-adv-x="1259" d="M127 0 L944 0 C1110 0 1174 80 1174 181 C1174 268 1126 341 1005 358 C1089 383 1124 447 1124 521 C1124 621 1061 700 896 700 L127 700 L127 0 Z M932 327 C1068 327 1116 264 1116 188 C1116 111 1068 50 932 50 L182 50 L182 327 L932 327 Z M1067 512 C1067 436 1022 373 893 373 L182 373 L182 650 L884 650 C1017 650 1067 588 1067 512 L1067 512 Z " />
<glyph glyph-name="Gamma" unicode="&#x393;" horiz-adv-x="1129" d="M127 0 L182 0 L182 650 L1094 650 L1094 700 L127 700 L127 0 Z " />
<glyph glyph-name="Delta" unicode="&#x394;" horiz-adv-x="1263" d="M662 700 L602 700 L15 0 L1248 0 L662 700 Z M632 657 L1143 50 L120 50 L632 657 Z " />
<glyph glyph-name="Epsilon" unicode="&#x395;" horiz-adv-x="1199" d="M127 0 L1114 0 L1114 50 L182 50 L182 327 L1012 327 L1012 373 L182 373 L182 650 L1114 650 L1114 700 L127 700 L127 0 Z " />
<glyph glyph-name="Zeta" unicode="&#x396;" horiz-adv-x="1192" d="M77 0 L1125 0 L1125 50 L180 50 L1105 660 L1105 700 L87 700 L87 650 L1001 650 L77 40 L77 0 Z " />
<glyph glyph-name="Eta" unicode="&#x397;" horiz-adv-x="1305" d="M1123 0 L1178 0 L1178 700 L1123 700 L1123 375 L182 375 L182 700 L127 700 L127 0 L182 0 L182 325 L1123 325 L1123 0 Z " />
<glyph glyph-name="Theta" unicode="&#x398;" horiz-adv-x="1348" d="M324 327 L1024 327 L1024 373 L324 373 L324 327 Z M814 -10 C1140 -10 1268 151 1268 350 C1268 549 1140 710 814 710 L534 710 C208 710 80 549 80 350 C80 151 208 -10 534 -10 L814 -10 Z M535 40 C245 40 138 178 138 350 C138 522 245 660 535 660 L813 660 C1103 660 1210 522 1210 350 C1210 178 1103 40 813 40 L535 40 Z " />
<glyph glyph-name="Iota" unicode="&#x399;" horiz-adv-x="309" d="M127 0 L182 0 L182 700 L127 700 L127 0 Z " />
<glyph glyph-name="Kappa" unicode="&#x39a;" horiz-adv-x="1284" d="M1183 700 L1084 700 L182 202 L182 700 L127 700 L127 0 L182 0 L182 146 L542 345 L1175 0 L1274 0 L593 374 L1183 700 Z " />
<glyph glyph-name="Lambda" unicode="&#x39b;" horiz-adv-x="1263" d="M602 700 L15 0 L85 0 L632 655 L1179 0 L1248 0 L662 700 L602 700 Z " />
<glyph glyph-name="Mu" unicode="&#x39c;" horiz-adv-x="1445" d="M1266 700 L722 109 L179 700 L127 700 L127 0 L182 0 L182 624 L722 34 L1263 624 L1263 0 L1318 0 L1318 700 L1266 700 Z " />
<glyph glyph-name="Nu" unicode="&#x39d;" horiz-adv-x="1303" d="M1124 0 L1176 0 L1176 700 L1121 700 L1121 65 L179 700 L127 700 L127 0 L182 0 L182 635 L1124 0 Z " />
<glyph glyph-name="Xi" unicode="&#x39e;" horiz-adv-x="1207" d="M85 650 L1122 650 L1122 700 L85 700 L85 650 Z M1122 50 L85 50 L85 0 L1122 0 L1122 50 Z M177 327 L1030 327 L1030 373 L177 373 L177 327 Z " />
<glyph glyph-name="Omicron" unicode="&#x39f;" horiz-adv-x="1348" d="M814 -10 C1140 -10 1268 151 1268 350 C1268 549 1140 710 814 710 L534 710 C208 710 80 549 80 350 C80 151 208 -10 534 -10 L814 -10 Z M535 40 C245 40 138 178 138 350 C138 522 245 660 535 660 L813 660 C1103 660 1210 522 1210 350 C1210 178 1103 40 813 40 L535 40 Z " />
<glyph glyph-name="Pi" unicode="&#x3a0;" horiz-adv-x="1305" d="M1123 0 L1178 0 L1178 700 L127 700 L127 0 L182 0 L182 650 L1123 650 L1123 0 Z " />
<glyph glyph-name="Rho" unicode="&#x3a1;" horiz-adv-x="1196" d="M127 0 L182 0 L182 285 L896 285 C1086 285 1159 375 1159 493 C1159 607 1086 700 896 700 L127 700 L127 0 Z M895 650 C1048 650 1102 579 1102 493 C1102 403 1048 335 895 335 L182 335 L182 650 L895 650 Z " />
<glyph glyph-name="Sigma" unicode="&#x3a3;" horiz-adv-x="1177" d="M85 657 L603 350 L85 43 L85 0 L1092 0 L1092 50 L193 50 L697 350 L193 650 L1092 650 L1092 700 L85 700 L85 657 Z " />
<glyph glyph-name="Tau" unicode="&#x3a4;" horiz-adv-x="1184" d="M35 650 L565 650 L565 0 L619 0 L619 650 L1149 650 L1149 700 L35 700 L35 650 Z " />
<glyph glyph-name="Upsilon" unicode="&#x3a5;" horiz-adv-x="1243" d="M594 0 L649 0 L649 211 L1238 700 L1156 700 L622 254 L87 700 L5 700 L594 211 L594 0 Z " />
<glyph glyph-name="Phi" unicode="&#x3a6;" horiz-adv-x="1305" d="M879 62 C1143 62 1244 188 1244 350 C1244 508 1143 638 879 638 L679 638 L679 750 L625 750 L625 638 L426 638 C162 638 61 508 61 350 C61 188 162 62 426 62 L625 62 L625 -50 L679 -50 L679 62 L879 62 Z M878 588 C1106 588 1186 481 1186 350 C1186 216 1106 112 878 112 L679 112 L679 588 L878 588 Z M119 350 C119 481 199 588 427 588 L625 588 L625 112 L427 112 C199 112 119 216 119 350 L119 350 Z " />
<glyph glyph-name="Chi" unicode="&#x3a7;" horiz-adv-x="1228" d="M28 700 L569 351 L23 0 L114 0 L614 323 L1114 0 L1205 0 L659 351 L1200 700 L1109 700 L614 379 L119 700 L28 700 Z " />
<glyph glyph-name="Psi" unicode="&#x3a8;" horiz-adv-x="1296" d="M621 0 L675 0 L675 155 L808 155 C1125 155 1229 292 1229 485 L1229 700 L1174 700 L1174 485 C1174 320 1087 205 807 205 L675 205 L675 700 L621 700 L621 205 L489 205 C209 205 122 320 122 485 L122 700 L67 700 L67 485 C67 292 171 155 488 155 L621 155 L621 0 Z " />
<glyph glyph-name="Omega" unicode="&#x3a9;" horiz-adv-x="1356" d="M853 0 L1282 0 L1282 50 L995 50 C1178 117 1252 251 1252 390 C1252 567 1138 710 848 710 L508 710 C218 710 104 567 104 390 C104 251 177 117 359 50 L74 50 L74 0 L503 0 L503 43 C252 90 157 229 157 380 C157 535 253 660 515 660 L841 660 C1103 660 1199 535 1199 380 C1199 230 1104 90 853 43 L853 0 Z " />
<glyph glyph-name="Iotadieresis" unicode="&#x3aa;" horiz-adv-x="309" d="M127 0 L182 0 L182 700 L127 700 L127 0 Z M247 827 L313 827 L313 893 L247 893 L247 827 Z M-3 827 L63 827 L63 893 L-3 893 L-3 827 Z " />
<glyph glyph-name="Upsilondieresis" unicode="&#x3ab;" horiz-adv-x="1243" d="M594 0 L649 0 L649 211 L1238 700 L1156 700 L622 254 L87 700 L5 700 L594 211 L594 0 Z M715 827 L781 827 L781 893 L715 893 L715 827 Z M465 827 L531 827 L531 893 L465 893 L465 827 Z " />
<glyph glyph-name="alphatonos" unicode="&#x3ac;" horiz-adv-x="1082" d="M1003 0 L1066 0 L569 560 L513 560 L16 0 L79 0 L187 122 L894 122 L1003 0 Z M541 519 L858 163 L224 163 L541 519 Z M128 360 L156 360 L175 560 L110 560 L128 360 Z " />
<glyph glyph-name="epsilontonos" unicode="&#x3ad;" horiz-adv-x="1181" d="M59 360 L87 360 L106 560 L41 560 L59 360 Z M264 0 L1103 0 L1103 45 L315 45 L315 260 L1016 260 L1016 300 L315 300 L315 515 L1103 515 L1103 560 L264 560 L264 0 Z " />
<glyph glyph-name="etatonos" unicode="&#x3ae;" horiz-adv-x="1275" d="M59 360 L87 360 L106 560 L41 560 L59 360 Z M1107 0 L1158 0 L1158 560 L1107 560 L1107 302 L315 302 L315 560 L264 560 L264 0 L315 0 L315 258 L1107 258 L1107 0 Z " />
<glyph glyph-name="iotatonos" unicode="&#x3af;" horiz-adv-x="432" d="M59 360 L87 360 L106 560 L41 560 L59 360 Z M264 0 L315 0 L315 560 L264 560 L264 0 Z " />
<glyph glyph-name="upsilondieresistonos" unicode="&#x3b0;" horiz-adv-x="1059" d="M650 688 L715 688 L715 753 L650 753 L650 688 Z M347 688 L412 688 L412 753 L347 753 L347 688 Z M519 635 L542 635 L561 835 L501 835 L519 635 Z M505 0 L555 0 L555 169 L1054 560 L979 560 L530 208 L80 560 L5 560 L505 169 L505 0 Z " />
<glyph glyph-name="alpha" unicode="&#x3b1;" horiz-adv-x="1082" d="M1003 0 L1066 0 L569 560 L513 560 L16 0 L79 0 L187 122 L894 122 L1003 0 Z M541 519 L858 163 L224 163 L541 519 Z " />
<glyph glyph-name="beta" unicode="&#x3b2;" horiz-adv-x="1084" d="M117 0 L818 0 C960 0 1007 64 1007 145 C1007 214 971 273 870 287 C940 307 965 357 965 417 C965 497 917 560 777 560 L117 560 L117 0 Z M807 260 C920 260 953 211 953 152 C953 92 920 45 807 45 L168 45 L168 260 L807 260 Z M772 300 L168 300 L168 515 L765 515 C876 515 912 467 912 408 C912 349 880 300 772 300 L772 300 Z " />
<glyph glyph-name="gamma" unicode="&#x3b3;" horiz-adv-x="987" d="M117 0 L168 0 L168 515 L939 515 L939 560 L117 560 L117 0 Z " />
<glyph glyph-name="delta" unicode="&#x3b4;" horiz-adv-x="1082" d="M569 560 L513 560 L16 0 L1066 0 L569 560 Z M541 521 L969 45 L113 45 L541 521 Z " />
<glyph glyph-name="epsilon" unicode="&#x3b5;" horiz-adv-x="1034" d="M117 0 L956 0 L956 45 L168 45 L168 260 L869 260 L869 300 L168 300 L168 515 L956 515 L956 560 L117 560 L117 0 Z " />
<glyph glyph-name="zeta" unicode="&#x3b6;" horiz-adv-x="1022" d="M70 0 L962 0 L962 45 L165 45 L945 524 L945 560 L79 560 L79 515 L848 515 L70 36 L70 0 Z " />
<glyph glyph-name="eta" unicode="&#x3b7;" horiz-adv-x="1128" d="M960 0 L1011 0 L1011 560 L960 560 L960 302 L168 302 L168 560 L117 560 L117 0 L168 0 L168 258 L960 258 L960 0 Z " />
<glyph glyph-name="theta" unicode="&#x3b8;" horiz-adv-x="1156" d="M283 260 L872 260 L872 300 L283 300 L283 260 Z M705 -8 C982 -8 1083 121 1083 280 C1083 439 982 568 705 568 L451 568 C174 568 73 439 73 280 C73 121 174 -8 451 -8 L705 -8 Z M452 37 C208 37 126 145 126 280 C126 415 208 523 452 523 L704 523 C949 523 1030 415 1030 280 C1030 145 949 37 704 37 L452 37 Z " />
<glyph glyph-name="iota" unicode="&#x3b9;" horiz-adv-x="285" d="M117 0 L168 0 L168 560 L117 560 L117 0 Z " />
<glyph glyph-name="kappa" unicode="&#x3ba;" horiz-adv-x="1109" d="M1022 560 L926 560 L168 166 L168 560 L117 560 L117 0 L168 0 L168 115 L474 274 L1001 0 L1094 0 L521 299 L1022 560 Z " />
<glyph glyph-name="lambda" unicode="&#x3bb;" horiz-adv-x="1082" d="M513 560 L16 0 L81 0 L541 519 L1001 0 L1066 0 L569 560 L513 560 Z " />
<glyph glyph-name="mu" unicode="&#x3bc;" horiz-adv-x="1248" d="M1082 560 L624 93 L165 560 L117 560 L117 0 L168 0 L168 492 L624 26 L1080 492 L1080 0 L1131 0 L1131 560 L1082 560 Z " />
<glyph glyph-name="nu" unicode="&#x3bd;" horiz-adv-x="1127" d="M1010 0 L1010 560 L959 560 L959 58 L165 560 L117 560 L117 0 L168 0 L168 502 L961 0 L1010 0 Z " />
<glyph glyph-name="xi" unicode="&#x3be;" horiz-adv-x="1038" d="M78 515 L960 515 L960 560 L78 560 L78 515 Z M960 45 L78 45 L78 0 L960 0 L960 45 Z M157 260 L881 260 L881 300 L157 300 L157 260 Z " />
<glyph glyph-name="omicron" unicode="&#x3bf;" horiz-adv-x="1156" d="M705 -8 C982 -8 1083 121 1083 280 C1083 439 982 568 705 568 L451 568 C174 568 73 439 73 280 C73 121 174 -8 451 -8 L705 -8 Z M452 37 C208 37 126 145 126 280 C126 415 208 523 452 523 L704 523 C949 523 1030 415 1030 280 C1030 145 949 37 704 37 L452 37 Z " />
<glyph glyph-name="pi" unicode="&#x3c0;" horiz-adv-x="1128" d="M960 0 L1011 0 L1011 560 L117 560 L117 0 L168 0 L168 515 L960 515 L960 0 Z " />
<glyph glyph-name="rho" unicode="&#x3c1;" horiz-adv-x="1042" d="M117 0 L168 0 L168 226 L777 226 C939 226 995 299 995 393 C995 485 939 560 777 560 L117 560 L117 0 Z M775 515 C904 515 942 461 942 393 C942 323 904 270 775 270 L168 270 L168 515 L775 515 Z " />
<glyph glyph-name="uni03C2" unicode="&#x3c2;" horiz-adv-x="1010" d="M77 522 L514 280 L77 38 L77 0 L933 0 L933 45 L176 45 L601 280 L176 515 L933 515 L933 560 L77 560 L77 522 Z " />
<glyph glyph-name="sigma" unicode="&#x3c3;" horiz-adv-x="1010" d="M77 522 L514 280 L77 38 L77 0 L933 0 L933 45 L176 45 L601 280 L176 515 L933 515 L933 560 L77 560 L77 522 Z " />
<glyph glyph-name="tau" unicode="&#x3c4;" horiz-adv-x="1042" d="M48 515 L495 515 L495 0 L546 0 L546 515 L994 515 L994 560 L48 560 L48 515 Z " />
<glyph glyph-name="upsilon" unicode="&#x3c5;" horiz-adv-x="1059" d="M505 0 L555 0 L555 169 L1054 560 L979 560 L530 208 L80 560 L5 560 L505 169 L505 0 Z " />
<glyph glyph-name="phi" unicode="&#x3c6;" horiz-adv-x="1130" d="M764 50 C988 50 1068 150 1068 280 C1068 406 988 510 764 510 L590 510 L590 600 L539 600 L539 510 L366 510 C142 510 62 406 62 280 C62 150 142 50 366 50 L539 50 L539 -40 L590 -40 L590 50 L764 50 Z M763 465 C953 465 1015 382 1015 280 C1015 175 953 95 763 95 L590 95 L590 465 L763 465 Z M115 280 C115 382 177 465 367 465 L539 465 L539 95 L367 95 C177 95 115 175 115 280 L115 280 Z " />
<glyph glyph-name="chi" unicode="&#x3c7;" horiz-adv-x="1066" d="M34 560 L493 282 L29 0 L115 0 L533 256 L952 0 L1038 0 L574 282 L1034 560 L948 560 L533 308 L120 560 L34 560 Z " />
<glyph glyph-name="psi" unicode="&#x3c8;" horiz-adv-x="1116" d="M532 0 L583 0 L583 123 L700 123 C969 123 1052 233 1052 387 L1052 560 L1001 560 L1001 387 C1001 258 934 168 699 168 L583 168 L583 560 L532 560 L532 168 L416 168 C181 168 114 258 114 387 L114 560 L64 560 L64 387 C64 233 146 123 415 123 L532 123 L532 0 Z " />
<glyph glyph-name="omega" unicode="&#x3c9;" horiz-adv-x="1170" d="M733 0 L1099 0 L1099 45 L863 45 C1012 99 1073 204 1073 312 C1073 454 984 568 739 568 L432 568 C186 568 97 454 97 312 C97 204 157 99 306 45 L71 45 L71 0 L437 0 L437 38 C225 75 146 185 146 303 C146 425 218 523 439 523 L731 523 C953 523 1024 425 1024 303 C1024 185 944 75 733 38 L733 0 Z " />
<glyph glyph-name="iotadieresis" unicode="&#x3ca;" horiz-adv-x="285" d="M117 0 L168 0 L168 560 L117 560 L117 0 Z M235 687 L301 687 L301 753 L235 753 L235 687 Z M-15 687 L51 687 L51 753 L-15 753 L-15 687 Z " />
<glyph glyph-name="upsilondieresis" unicode="&#x3cb;" horiz-adv-x="1059" d="M505 0 L555 0 L555 169 L1054 560 L979 560 L530 208 L80 560 L5 560 L505 169 L505 0 Z M623 687 L689 687 L689 753 L623 753 L623 687 Z M373 687 L439 687 L439 753 L373 753 L373 687 Z " />
<glyph glyph-name="omicrontonos" unicode="&#x3cc;" horiz-adv-x="1285" d="M59 360 L87 360 L106 560 L41 560 L59 360 Z M834 -8 C1111 -8 1212 121 1212 280 C1212 439 1111 568 834 568 L580 568 C303 568 202 439 202 280 C202 121 303 -8 580 -8 L834 -8 Z M581 37 C337 37 255 145 255 280 C255 415 337 523 581 523 L833 523 C1078 523 1159 415 1159 280 C1159 145 1078 37 833 37 L581 37 Z " />
<glyph glyph-name="upsilontonos" unicode="&#x3cd;" horiz-adv-x="1215" d="M59 360 L87 360 L106 560 L41 560 L59 360 Z M661 0 L711 0 L711 169 L1210 560 L1135 560 L686 208 L236 560 L161 560 L661 169 L661 0 Z " />
<glyph glyph-name="omegatonos" unicode="&#x3ce;" horiz-adv-x="1280" d="M59 360 L87 360 L106 560 L41 560 L59 360 Z M843 0 L1209 0 L1209 45 L973 45 C1122 99 1183 204 1183 312 C1183 454 1094 568 849 568 L542 568 C296 568 207 454 207 312 C207 204 267 99 416 45 L181 45 L181 0 L547 0 L547 38 C335 75 256 185 256 303 C256 425 328 523 549 523 L841 523 C1063 523 1134 425 1134 303 C1134 185 1054 75 843 38 L843 0 Z " />
<glyph glyph-name="uni0400" unicode="&#x400;" horiz-adv-x="1199" d="M127 0 L1114 0 L1114 50 L182 50 L182 327 L1012 327 L1012 373 L182 373 L182 650 L1114 650 L1114 700 L127 700 L127 0 Z M554 946 L485 946 L630 775 L666 775 L554 946 Z " />
<glyph glyph-name="uni0401" unicode="&#x401;" horiz-adv-x="1199" d="M127 0 L1114 0 L1114 50 L182 50 L182 327 L1012 327 L1012 373 L182 373 L182 650 L1114 650 L1114 700 L127 700 L127 0 Z M701 827 L767 827 L767 893 L701 893 L701 827 Z M451 827 L517 827 L517 893 L451 893 L451 827 Z " />
<glyph glyph-name="uni0402" unicode="&#x402;" horiz-adv-x="1354" d="M727 0 L1080 0 C1251 0 1317 84 1317 187 C1317 292 1251 373 1080 373 L400 373 L400 650 L952 650 L952 700 L35 700 L35 650 L345 650 L345 0 L400 0 L400 327 L1077 327 C1213 327 1259 266 1259 188 C1259 113 1213 50 1077 50 L727 50 L727 0 Z " />
<glyph glyph-name="uni0403" unicode="&#x403;" horiz-adv-x="1129" d="M127 0 L182 0 L182 650 L1094 650 L1094 700 L127 700 L127 0 Z M546 775 L582 775 L727 946 L658 946 L546 775 Z " />
<glyph glyph-name="uni0404" unicode="&#x404;" horiz-adv-x="1184" d="M997 327 L997 373 L138 373 C147 527 254 650 522 650 L1099 650 L1099 700 L521 700 C204 700 80 543 80 350 C80 157 204 0 521 0 L1099 0 L1099 50 L522 50 C254 50 147 171 138 327 L997 327 Z " />
<glyph glyph-name="uni0405" unicode="&#x405;" horiz-adv-x="1207" d="M117 0 L893 0 C1064 0 1130 84 1130 187 C1130 292 1064 373 893 373 L316 373 C181 373 134 434 134 512 C134 587 181 650 316 650 L1090 650 L1090 700 L314 700 C143 700 77 616 77 513 C77 408 143 327 314 327 L891 327 C1026 327 1073 266 1073 188 C1073 113 1026 50 891 50 L117 50 L117 0 Z " />
<glyph glyph-name="uni0406" unicode="&#x406;" horiz-adv-x="309" d="M127 0 L182 0 L182 700 L127 700 L127 0 Z " />
<glyph glyph-name="uni0407" unicode="&#x407;" horiz-adv-x="309" d="M127 0 L182 0 L182 700 L127 700 L127 0 Z M247 827 L313 827 L313 893 L247 893 L247 827 Z M-3 827 L63 827 L63 893 L-3 893 L-3 827 Z " />
<glyph glyph-name="uni0408" unicode="&#x408;" horiz-adv-x="1231" d="M390 -5 L683 -5 C1000 -5 1104 132 1104 325 L1104 700 L1049 700 L1049 325 C1049 160 962 45 682 45 L391 45 C174 45 102 148 102 275 L102 316 L47 316 L47 275 C47 121 136 -5 390 -5 L390 -5 Z " />
<glyph glyph-name="uni0409" unicode="&#x409;" horiz-adv-x="1862" d="M316 700 L243 181 C233 107 195 50 72 50 L35 50 L35 0 L69 0 C234 0 283 75 298 181 L364 650 L925 650 L925 0 L1562 0 C1752 0 1825 90 1825 207 C1825 322 1752 415 1562 415 L979 415 L979 700 L316 700 Z M1560 365 C1714 365 1767 294 1767 207 C1767 118 1714 50 1560 50 L979 50 L979 365 L1560 365 Z " />
<glyph glyph-name="uni040A" unicode="&#x40a;" horiz-adv-x="1876" d="M939 0 L1576 0 C1766 0 1839 90 1839 207 C1839 322 1766 415 1576 415 L993 415 L993 700 L939 700 L939 415 L182 415 L182 700 L127 700 L127 0 L182 0 L182 365 L939 365 L939 0 Z M1574 365 C1728 365 1781 294 1781 207 C1781 118 1728 50 1574 50 L993 50 L993 365 L1574 365 Z " />
<glyph glyph-name="uni040B" unicode="&#x40b;" horiz-adv-x="1384" d="M1317 0 L1317 184 C1317 290 1267 372 1094 372 L400 372 L400 650 L952 650 L952 700 L35 700 L35 650 L345 650 L345 0 L400 0 L400 322 L1094 322 C1229 322 1262 260 1262 181 L1262 0 L1317 0 Z " />
<glyph glyph-name="uni040C" unicode="&#x40c;" horiz-adv-x="1283" d="M630 351 L1189 700 L1100 700 L579 375 L182 375 L182 700 L127 700 L127 0 L182 0 L182 325 L576 325 L1174 0 L1273 0 L630 351 Z M519 775 L555 775 L700 946 L631 946 L519 775 Z " />
<glyph glyph-name="uni040D" unicode="&#x40d;" horiz-adv-x="1303" d="M1121 635 L1121 0 L1176 0 L1176 700 L1124 700 L182 65 L182 700 L127 700 L127 0 L179 0 L1121 635 Z M596 946 L527 946 L672 775 L708 775 L596 946 Z " />
<glyph glyph-name="uni040E" unicode="&#x40e;" horiz-adv-x="1248" d="M412 0 L1245 700 L1164 700 L630 248 L88 700 L7 700 L593 215 L332 0 L412 0 Z M632 830 C544 830 512 877 507 931 L475 931 C480 862 517 790 632 790 C746 790 783 862 789 931 L757 931 C751 877 720 830 632 830 L632 830 Z " />
<glyph glyph-name="uni040F" unicode="&#x40f;" horiz-adv-x="1305" d="M1123 50 L182 50 L182 700 L127 700 L127 0 L625 0 L625 -150 L680 -150 L680 0 L1178 0 L1178 700 L1123 700 L1123 50 Z " />
<glyph glyph-name="uni0410" unicode="&#x410;" horiz-adv-x="1263" d="M1180 0 L1248 0 L662 700 L602 700 L15 0 L83 0 L207 148 L1056 148 L1180 0 Z M632 655 L1017 194 L245 194 L632 655 Z " />
<glyph glyph-name="uni0411" unicode="&#x411;" horiz-adv-x="1236" d="M127 0 L922 0 C1093 0 1159 84 1159 187 C1159 292 1093 373 922 373 L182 373 L182 650 L1094 650 L1094 700 L127 700 L127 0 Z M919 327 C1055 327 1101 266 1101 188 C1101 113 1055 50 919 50 L182 50 L182 327 L919 327 Z " />
<glyph glyph-name="uni0412" unicode="&#x412;" horiz-adv-x="1259" d="M127 0 L944 0 C1110 0 1174 80 1174 181 C1174 268 1126 341 1005 358 C1089 383 1124 447 1124 521 C1124 621 1061 700 896 700 L127 700 L127 0 Z M932 327 C1068 327 1116 264 1116 188 C1116 111 1068 50 932 50 L182 50 L182 327 L932 327 Z M1067 512 C1067 436 1022 373 893 373 L182 373 L182 650 L884 650 C1017 650 1067 588 1067 512 L1067 512 Z " />
<glyph glyph-name="uni0413" unicode="&#x413;" horiz-adv-x="1129" d="M127 0 L182 0 L182 650 L1094 650 L1094 700 L127 700 L127 0 Z " />
<glyph glyph-name="uni0414" unicode="&#x414;" horiz-adv-x="1250" d="M90 0 L1125 0 L1125 -150 L1180 -150 L1180 50 L1093 50 L1093 700 L316 700 L243 181 C233 107 197 50 76 50 L35 50 L35 -150 L90 -150 L90 0 Z M300 191 L364 650 L1038 650 L1038 50 L208 50 C268 76 290 128 300 191 L300 191 Z " />
<glyph glyph-name="uni0415" unicode="&#x415;" horiz-adv-x="1199" d="M127 0 L1114 0 L1114 50 L182 50 L182 327 L1012 327 L1012 373 L182 373 L182 650 L1114 650 L1114 700 L127 700 L127 0 Z " />
<glyph glyph-name="uni0416" unicode="&#x416;" horiz-adv-x="1619" d="M1080 350 L1535 700 L1457 700 L1031 375 L836 375 L836 700 L782 700 L782 375 L588 375 L162 700 L84 700 L539 350 L25 0 L109 0 L589 325 L782 325 L782 0 L836 0 L836 325 L1030 325 L1510 0 L1594 0 L1080 350 Z " />
<glyph glyph-name="uni0417" unicode="&#x417;" horiz-adv-x="1269" d="M75 0 L954 0 C1120 0 1184 80 1184 181 C1184 268 1136 341 1015 358 C1099 383 1134 447 1134 521 C1134 621 1071 700 906 700 L95 700 L95 650 L894 650 C1030 650 1077 587 1077 511 C1077 436 1032 373 903 373 L182 373 L182 327 L942 327 C1078 327 1126 264 1126 189 C1126 111 1078 50 942 50 L75 50 L75 0 Z " />
<glyph glyph-name="uni0418" unicode="&#x418;" horiz-adv-x="1303" d="M1121 635 L1121 0 L1176 0 L1176 700 L1124 700 L182 65 L182 700 L127 700 L127 0 L179 0 L1121 635 Z " />
<glyph glyph-name="uni0419" unicode="&#x419;" horiz-adv-x="1303" d="M1121 635 L1121 0 L1176 0 L1176 700 L1124 700 L182 65 L182 700 L127 700 L127 0 L179 0 L1121 635 Z M651 830 C563 830 531 877 526 931 L494 931 C499 862 536 790 651 790 C765 790 802 862 808 931 L776 931 C770 877 739 830 651 830 L651 830 Z " />
<glyph glyph-name="uni041A" unicode="&#x41a;" horiz-adv-x="1283" d="M630 351 L1189 700 L1100 700 L579 375 L182 375 L182 700 L127 700 L127 0 L182 0 L182 325 L576 325 L1174 0 L1273 0 L630 351 Z " />
<glyph glyph-name="uni041B" unicode="&#x41b;" horiz-adv-x="1257" d="M316 700 L243 181 C233 106 195 50 72 50 L35 50 L35 0 L69 0 C234 0 283 75 298 181 L364 650 L1075 650 L1075 0 L1130 0 L1130 700 L316 700 Z " />
<glyph glyph-name="uni041C" unicode="&#x41c;" horiz-adv-x="1445" d="M1266 700 L722 109 L179 700 L127 700 L127 0 L182 0 L182 624 L722 34 L1263 624 L1263 0 L1318 0 L1318 700 L1266 700 Z " />
<glyph glyph-name="uni041D" unicode="&#x41d;" horiz-adv-x="1305" d="M1123 0 L1178 0 L1178 700 L1123 700 L1123 375 L182 375 L182 700 L127 700 L127 0 L182 0 L182 325 L1123 325 L1123 0 Z " />
<glyph glyph-name="uni041E" unicode="&#x41e;" horiz-adv-x="1348" d="M814 -10 C1140 -10 1268 151 1268 350 C1268 549 1140 710 814 710 L534 710 C208 710 80 549 80 350 C80 151 208 -10 534 -10 L814 -10 Z M535 40 C245 40 138 178 138 350 C138 522 245 660 535 660 L813 660 C1103 660 1210 522 1210 350 C1210 178 1103 40 813 40 L535 40 Z " />
<glyph glyph-name="uni041F" unicode="&#x41f;" horiz-adv-x="1305" d="M1123 0 L1178 0 L1178 700 L127 700 L127 0 L182 0 L182 650 L1123 650 L1123 0 Z " />
<glyph glyph-name="uni0420" unicode="&#x420;" horiz-adv-x="1196" d="M127 0 L182 0 L182 285 L896 285 C1086 285 1159 375 1159 493 C1159 607 1086 700 896 700 L127 700 L127 0 Z M895 650 C1048 650 1102 579 1102 493 C1102 403 1048 335 895 335 L182 335 L182 650 L895 650 Z " />
<glyph glyph-name="uni0421" unicode="&#x421;" horiz-adv-x="1184" d="M138 350 C138 516 241 650 522 650 L1099 650 L1099 700 L521 700 C204 700 80 543 80 350 C80 157 204 0 521 0 L1099 0 L1099 50 L522 50 C241 50 138 184 138 350 L138 350 Z " />
<glyph glyph-name="uni0422" unicode="&#x422;" horiz-adv-x="1184" d="M35 650 L565 650 L565 0 L619 0 L619 650 L1149 650 L1149 700 L35 700 L35 650 Z " />
<glyph glyph-name="uni0423" unicode="&#x423;" horiz-adv-x="1248" d="M412 0 L1245 700 L1164 700 L630 248 L88 700 L7 700 L593 215 L332 0 L412 0 Z " />
<glyph glyph-name="uni0424" unicode="&#x424;" horiz-adv-x="1305" d="M879 62 C1143 62 1244 188 1244 350 C1244 508 1143 638 879 638 L679 638 L679 750 L625 750 L625 638 L426 638 C162 638 61 508 61 350 C61 188 162 62 426 62 L625 62 L625 -50 L679 -50 L679 62 L879 62 Z M878 588 C1106 588 1186 481 1186 350 C1186 216 1106 112 878 112 L679 112 L679 588 L878 588 Z M119 350 C119 481 199 588 427 588 L625 588 L625 112 L427 112 C199 112 119 216 119 350 L119 350 Z " />
<glyph glyph-name="uni0425" unicode="&#x425;" horiz-adv-x="1228" d="M28 700 L569 351 L23 0 L114 0 L614 323 L1114 0 L1205 0 L659 351 L1200 700 L1109 700 L614 379 L119 700 L28 700 Z " />
<glyph glyph-name="uni0426" unicode="&#x426;" horiz-adv-x="1297" d="M1086 50 L182 50 L182 700 L127 700 L127 0 L1172 0 L1172 -150 L1227 -150 L1227 50 L1141 50 L1141 700 L1086 700 L1086 50 Z " />
<glyph glyph-name="uni0427" unicode="&#x427;" horiz-adv-x="1226" d="M67 700 L67 472 C67 366 117 284 290 284 L1044 284 L1044 0 L1099 0 L1099 700 L1044 700 L1044 334 L290 334 C155 334 122 396 122 475 L122 700 L67 700 Z " />
<glyph glyph-name="uni0428" unicode="&#x428;" horiz-adv-x="1599" d="M1417 50 L826 50 L826 700 L772 700 L772 50 L182 50 L182 700 L127 700 L127 0 L1472 0 L1472 700 L1417 700 L1417 50 Z " />
<glyph glyph-name="uni0429" unicode="&#x429;" horiz-adv-x="1593" d="M1381 50 L808 50 L808 700 L754 700 L754 50 L182 50 L182 700 L127 700 L127 0 L1468 0 L1468 -150 L1523 -150 L1523 50 L1436 50 L1436 700 L1381 700 L1381 50 Z " />
<glyph glyph-name="uni042A" unicode="&#x42a;" horiz-adv-x="1354" d="M35 650 L345 650 L345 0 L1054 0 C1244 0 1317 90 1317 207 C1317 322 1244 415 1054 415 L400 415 L400 700 L35 700 L35 650 Z M1052 365 C1206 365 1259 295 1259 207 C1259 118 1205 50 1052 50 L400 50 L400 365 L1052 365 Z " />
<glyph glyph-name="uni042B" unicode="&#x42b;" horiz-adv-x="1505" d="M127 0 L896 0 C1086 0 1159 90 1159 207 C1159 321 1086 415 896 415 L182 415 L182 700 L127 700 L127 0 Z M894 365 C1048 365 1101 294 1101 207 C1101 118 1047 50 894 50 L182 50 L182 365 L894 365 Z M1323 0 L1378 0 L1378 700 L1323 700 L1323 0 Z " />
<glyph glyph-name="uni042C" unicode="&#x42c;" horiz-adv-x="1196" d="M127 0 L896 0 C1086 0 1159 90 1159 207 C1159 321 1086 415 896 415 L182 415 L182 700 L127 700 L127 0 Z M894 365 C1048 365 1101 294 1101 207 C1101 118 1047 50 894 50 L182 50 L182 365 L894 365 Z " />
<glyph glyph-name="uni042D" unicode="&#x42d;" horiz-adv-x="1184" d="M187 327 L1046 327 C1036 171 929 50 662 50 L85 50 L85 0 L663 0 C980 0 1104 157 1104 350 C1104 543 980 700 663 700 L85 700 L85 650 L662 650 C929 650 1036 527 1046 373 L187 373 L187 327 Z " />
<glyph glyph-name="uni042E" unicode="&#x42e;" horiz-adv-x="1879" d="M1345 -10 C1671 -10 1799 151 1799 350 C1799 549 1671 710 1345 710 L1115 710 C803 710 672 562 662 375 L182 375 L182 700 L127 700 L127 0 L182 0 L182 325 L662 325 C672 137 803 -10 1115 -10 L1345 -10 Z M1116 40 C826 40 719 178 719 350 C719 522 826 660 1116 660 L1344 660 C1634 660 1741 522 1741 350 C1741 178 1634 40 1344 40 L1116 40 Z " />
<glyph glyph-name="uni042F" unicode="&#x42f;" horiz-adv-x="1276" d="M1155 700 L403 700 C214 700 141 607 141 493 C141 377 214 286 403 286 L541 286 L16 0 L114 0 L634 286 L1100 286 L1100 0 L1155 0 L1155 700 Z M1100 650 L1100 334 L406 334 C252 334 198 403 198 492 C198 579 252 650 406 650 L1100 650 Z " />
<glyph glyph-name="uni0430" unicode="&#x430;" horiz-adv-x="1082" d="M1003 0 L1066 0 L569 560 L513 560 L16 0 L79 0 L187 122 L894 122 L1003 0 Z M541 519 L858 163 L224 163 L541 519 Z " />
<glyph glyph-name="uni0431" unicode="&#x431;" horiz-adv-x="1064" d="M117 0 L798 0 C945 0 995 67 995 150 C995 235 945 300 798 300 L168 300 L168 515 L939 515 L939 560 L117 560 L117 0 Z M795 260 C908 260 942 212 942 152 C942 93 908 45 795 45 L168 45 L168 260 L795 260 Z " />
<glyph glyph-name="uni0432" unicode="&#x432;" horiz-adv-x="1084" d="M117 0 L818 0 C960 0 1007 64 1007 145 C1007 214 971 273 870 287 C940 307 965 357 965 417 C965 497 917 560 777 560 L117 560 L117 0 Z M807 260 C920 260 953 211 953 152 C953 92 920 45 807 45 L168 45 L168 260 L807 260 Z M772 300 L168 300 L168 515 L765 515 C876 515 912 467 912 408 C912 349 880 300 772 300 L772 300 Z " />
<glyph glyph-name="uni0433" unicode="&#x433;" horiz-adv-x="987" d="M117 0 L168 0 L168 515 L939 515 L939 560 L117 560 L117 0 Z " />
<glyph glyph-name="uni0434" unicode="&#x434;" horiz-adv-x="1087" d="M99 0 L972 0 L972 -120 L1022 -120 L1022 45 L948 45 L948 560 L287 560 L225 147 C216 90 185 45 84 45 L48 45 L48 -120 L99 -120 L99 0 Z M276 157 L330 515 L898 515 L898 45 L200 45 C250 66 269 107 276 157 L276 157 Z " />
<glyph glyph-name="uni0435" unicode="&#x435;" horiz-adv-x="1034" d="M117 0 L956 0 L956 45 L168 45 L168 260 L869 260 L869 300 L168 300 L168 515 L956 515 L956 560 L117 560 L117 0 Z " />
<glyph glyph-name="uni0436" unicode="&#x436;" horiz-adv-x="1393" d="M932 280 L1314 560 L1242 560 L889 302 L721 302 L721 560 L671 560 L671 302 L504 302 L151 560 L79 560 L460 280 L29 0 L107 0 L505 258 L671 258 L671 0 L721 0 L721 258 L887 258 L1284 0 L1364 0 L932 280 Z " />
<glyph glyph-name="uni0437" unicode="&#x437;" horiz-adv-x="1089" d="M69 0 L823 0 C964 0 1012 64 1012 145 C1012 214 976 273 874 287 C944 307 969 357 969 417 C969 497 922 560 781 560 L86 560 L86 515 L772 515 C885 515 919 467 919 408 C919 349 887 300 779 300 L160 300 L160 260 L813 260 C927 260 960 211 960 152 C960 93 927 45 813 45 L69 45 L69 0 Z " />
<glyph glyph-name="uni0438" unicode="&#x438;" horiz-adv-x="1127" d="M959 502 L959 0 L1010 0 L1010 560 L962 560 L168 58 L168 560 L117 560 L117 0 L165 0 L959 502 Z " />
<glyph glyph-name="uni0439" unicode="&#x439;" horiz-adv-x="1127" d="M959 502 L959 0 L1010 0 L1010 560 L962 560 L168 58 L168 560 L117 560 L117 0 L165 0 L959 502 Z M563 690 C475 690 443 737 438 791 L406 791 C411 722 448 650 563 650 C677 650 714 722 720 791 L688 791 C682 737 651 690 563 690 L563 690 Z " />
<glyph glyph-name="uni043A" unicode="&#x43a;" horiz-adv-x="1110" d="M548 281 L1021 560 L938 560 L500 302 L168 302 L168 560 L117 560 L117 0 L168 0 L168 258 L499 258 L1001 0 L1093 0 L548 281 Z " />
<glyph glyph-name="uni043B" unicode="&#x43b;" horiz-adv-x="1096" d="M287 560 L225 147 C216 88 185 45 81 45 L48 45 L48 0 L79 0 C219 0 262 61 275 147 L330 515 L929 515 L929 0 L979 0 L979 560 L287 560 Z " />
<glyph glyph-name="uni043C" unicode="&#x43c;" horiz-adv-x="1248" d="M1082 560 L624 93 L165 560 L117 560 L117 0 L168 0 L168 492 L624 26 L1080 492 L1080 0 L1131 0 L1131 560 L1082 560 Z " />
<glyph glyph-name="uni043D" unicode="&#x43d;" horiz-adv-x="1128" d="M960 0 L1011 0 L1011 560 L960 560 L960 302 L168 302 L168 560 L117 560 L117 0 L168 0 L168 258 L960 258 L960 0 Z " />
<glyph glyph-name="uni043E" unicode="&#x43e;" horiz-adv-x="1156" d="M705 -8 C982 -8 1083 121 1083 280 C1083 439 982 568 705 568 L451 568 C174 568 73 439 73 280 C73 121 174 -8 451 -8 L705 -8 Z M452 37 C208 37 126 145 126 280 C126 415 208 523 452 523 L704 523 C949 523 1030 415 1030 280 C1030 145 949 37 704 37 L452 37 Z " />
<glyph glyph-name="uni043F" unicode="&#x43f;" horiz-adv-x="1128" d="M960 0 L1011 0 L1011 560 L117 560 L117 0 L168 0 L168 515 L960 515 L960 0 Z " />
<glyph glyph-name="uni0440" unicode="&#x440;" horiz-adv-x="1042" d="M117 0 L168 0 L168 226 L777 226 C939 226 995 299 995 393 C995 485 939 560 777 560 L117 560 L117 0 Z M775 515 C904 515 942 461 942 393 C942 323 904 270 775 270 L168 270 L168 515 L775 515 Z " />
<glyph glyph-name="uni0441" unicode="&#x441;" horiz-adv-x="1016" d="M127 280 C127 410 204 515 440 515 L939 515 L939 560 L440 560 C170 560 73 434 73 280 C73 126 170 0 440 0 L939 0 L939 45 L440 45 C204 45 127 150 127 280 L127 280 Z " />
<glyph glyph-name="uni0442" unicode="&#x442;" horiz-adv-x="1042" d="M48 515 L495 515 L495 0 L546 0 L546 515 L994 515 L994 560 L48 560 L48 515 Z " />
<glyph glyph-name="uni0443" unicode="&#x443;" horiz-adv-x="1063" d="M355 0 L1060 560 L986 560 L537 203 L81 560 L7 560 L503 172 L281 0 L355 0 Z " />
<glyph glyph-name="uni0444" unicode="&#x444;" horiz-adv-x="1130" d="M764 50 C988 50 1068 150 1068 280 C1068 406 988 510 764 510 L590 510 L590 600 L539 600 L539 510 L366 510 C142 510 62 406 62 280 C62 150 142 50 366 50 L539 50 L539 -40 L590 -40 L590 50 L764 50 Z M763 465 C953 465 1015 382 1015 280 C1015 175 953 95 763 95 L590 95 L590 465 L763 465 Z M115 280 C115 382 177 465 367 465 L539 465 L539 95 L367 95 C177 95 115 175 115 280 L115 280 Z " />
<glyph glyph-name="uni0445" unicode="&#x445;" horiz-adv-x="1066" d="M34 560 L493 282 L29 0 L115 0 L533 256 L952 0 L1038 0 L574 282 L1034 560 L948 560 L533 308 L120 560 L34 560 Z " />
<glyph glyph-name="uni0446" unicode="&#x446;" horiz-adv-x="1118" d="M929 45 L168 45 L168 560 L117 560 L117 0 L1003 0 L1003 -120 L1053 -120 L1053 45 L979 45 L979 560 L929 560 L929 45 Z " />
<glyph glyph-name="uni0447" unicode="&#x447;" horiz-adv-x="1058" d="M64 560 L64 376 C64 290 104 225 252 225 L891 225 L891 0 L941 0 L941 560 L891 560 L891 269 L251 269 C140 269 115 317 115 379 L115 560 L64 560 Z " />
<glyph glyph-name="uni0448" unicode="&#x448;" horiz-adv-x="1378" d="M1211 45 L714 45 L714 560 L663 560 L663 45 L168 45 L168 560 L117 560 L117 0 L1261 0 L1261 560 L1211 560 L1211 45 Z " />
<glyph glyph-name="uni0449" unicode="&#x449;" horiz-adv-x="1369" d="M1180 45 L699 45 L699 560 L648 560 L648 45 L168 45 L168 560 L117 560 L117 0 L1254 0 L1254 -120 L1304 -120 L1304 45 L1230 45 L1230 560 L1180 560 L1180 45 Z " />
<glyph glyph-name="uni044A" unicode="&#x44a;" horiz-adv-x="1185" d="M48 515 L311 515 L311 0 L920 0 C1082 0 1138 73 1138 167 C1138 259 1082 334 920 334 L362 334 L362 560 L48 560 L48 515 Z M362 45 L362 290 L917 290 C1047 290 1085 235 1085 167 C1085 98 1046 45 917 45 L362 45 Z " />
<glyph glyph-name="uni044B" unicode="&#x44b;" horiz-adv-x="1327" d="M117 0 L777 0 C939 0 995 73 995 167 C995 259 939 334 777 334 L168 334 L168 560 L117 560 L117 0 Z M774 290 C904 290 942 235 942 167 C942 98 903 45 774 45 L168 45 L168 290 L774 290 Z M1159 0 L1210 0 L1210 560 L1159 560 L1159 0 Z " />
<glyph glyph-name="uni044C" unicode="&#x44c;" horiz-adv-x="1042" d="M117 0 L777 0 C939 0 995 73 995 167 C995 259 939 334 777 334 L168 334 L168 560 L117 560 L117 0 Z M774 290 C904 290 942 235 942 167 C942 98 903 45 774 45 L168 45 L168 290 L774 290 Z " />
<glyph glyph-name="uni044D" unicode="&#x44d;" horiz-adv-x="1017" d="M893 260 C885 139 801 45 577 45 L78 45 L78 0 L577 0 C847 0 944 126 944 280 C944 434 847 560 577 560 L78 560 L78 515 L577 515 C801 515 885 420 893 300 L165 300 L165 260 L893 260 Z " />
<glyph glyph-name="uni044E" unicode="&#x44e;" horiz-adv-x="1612" d="M949 -8 L1161 -8 C1438 -8 1539 121 1539 280 C1539 439 1438 568 1161 568 L949 568 C685 568 580 450 571 302 L168 302 L168 560 L117 560 L117 0 L168 0 L168 258 L571 258 C580 109 685 -8 949 -8 L949 -8 Z M1160 523 C1405 523 1486 415 1486 280 C1486 145 1405 37 1160 37 L950 37 C706 37 625 145 625 280 C625 415 706 523 950 523 L1160 523 Z " />
<glyph glyph-name="uni044F" unicode="&#x44f;" horiz-adv-x="1105" d="M988 560 L343 560 C182 560 125 485 125 393 C125 299 182 227 343 227 L460 227 L19 0 L110 0 L544 226 L937 226 L937 0 L988 0 L988 560 Z M937 515 L937 270 L345 270 C217 270 178 323 178 393 C178 460 217 515 345 515 L937 515 Z " />
<glyph glyph-name="uni0450" unicode="&#x450;" horiz-adv-x="1034" d="M117 0 L956 0 L956 45 L168 45 L168 260 L869 260 L869 300 L168 300 L168 515 L956 515 L956 560 L117 560 L117 0 Z M474 806 L405 806 L550 635 L586 635 L474 806 Z " />
<glyph glyph-name="uni0451" unicode="&#x451;" horiz-adv-x="1034" d="M117 0 L956 0 L956 45 L168 45 L168 260 L869 260 L869 300 L168 300 L168 515 L956 515 L956 560 L117 560 L117 0 Z M621 687 L687 687 L687 753 L621 753 L621 687 Z M371 687 L437 687 L437 753 L371 753 L371 687 Z " />
<glyph glyph-name="uni0452" unicode="&#x452;" horiz-adv-x="1185" d="M637 0 L941 0 C1088 0 1138 67 1138 150 C1138 235 1088 300 941 300 L362 300 L362 515 L827 515 L827 560 L48 560 L48 515 L311 515 L311 0 L362 0 L362 260 L938 260 C1051 260 1085 212 1085 152 C1085 93 1051 45 938 45 L637 45 L637 0 Z " />
<glyph glyph-name="uni0453" unicode="&#x453;" horiz-adv-x="987" d="M117 0 L168 0 L168 515 L939 515 L939 560 L117 560 L117 0 Z M472 635 L508 635 L653 806 L584 806 L472 635 Z " />
<glyph glyph-name="uni0454" unicode="&#x454;" horiz-adv-x="1017" d="M852 260 L852 300 L124 300 C132 420 216 515 440 515 L939 515 L939 560 L440 560 C170 560 73 434 73 280 C73 126 170 0 440 0 L939 0 L939 45 L440 45 C216 45 132 139 124 260 L852 260 Z " />
<glyph glyph-name="uni0455" unicode="&#x455;" horiz-adv-x="1033" d="M103 0 L768 0 C914 0 964 67 964 150 C964 235 914 300 768 300 L268 300 C156 300 122 348 122 408 C122 467 156 515 268 515 L930 515 L930 560 L265 560 C119 560 69 493 69 410 C69 325 119 260 265 260 L766 260 C877 260 911 212 911 152 C911 93 878 45 766 45 L103 45 L103 0 Z " />
<glyph glyph-name="uni0456" unicode="&#x456;" horiz-adv-x="285" d="M117 0 L168 0 L168 560 L117 560 L117 0 Z " />
<glyph glyph-name="uni0457" unicode="&#x457;" horiz-adv-x="285" d="M117 0 L168 0 L168 560 L117 560 L117 0 Z M235 687 L301 687 L301 753 L235 753 L235 687 Z M-15 687 L51 687 L51 753 L-15 753 L-15 687 Z " />
<glyph glyph-name="uni0458" unicode="&#x458;" horiz-adv-x="1043" d="M333 -4 L596 -4 C866 -4 946 106 946 260 L946 560 L896 560 L896 260 C896 131 831 41 596 41 L334 41 C152 41 98 121 98 220 L98 254 L47 254 L47 220 C47 97 117 -4 333 -4 L333 -4 Z " />
<glyph glyph-name="uni0459" unicode="&#x459;" horiz-adv-x="1617" d="M286 560 L224 147 C215 89 184 45 81 45 L48 45 L48 0 L79 0 C219 0 262 61 275 147 L330 515 L802 515 L802 0 L1351 0 C1514 0 1570 73 1570 167 C1570 259 1514 334 1351 334 L853 334 L853 560 L286 560 Z M1349 290 C1479 290 1517 235 1517 167 C1517 98 1479 45 1349 45 L853 45 L853 290 L1349 290 Z " />
<glyph glyph-name="uni045A" unicode="&#x45a;" horiz-adv-x="1620" d="M805 0 L1355 0 C1517 0 1573 73 1573 167 C1573 259 1517 334 1355 334 L856 334 L856 560 L805 560 L805 334 L168 334 L168 560 L117 560 L117 0 L168 0 L168 290 L805 290 L805 0 Z M1352 290 C1482 290 1520 235 1520 167 C1520 98 1482 45 1352 45 L856 45 L856 290 L1352 290 Z " />
<glyph glyph-name="uni045B" unicode="&#x45b;" horiz-adv-x="1202" d="M1138 0 L1138 148 C1138 233 1102 300 954 300 L362 300 L362 515 L827 515 L827 560 L48 560 L48 515 L311 515 L311 0 L362 0 L362 255 L955 255 C1066 255 1087 207 1087 145 L1087 0 L1138 0 Z " />
<glyph glyph-name="uni045C" unicode="&#x45c;" horiz-adv-x="1110" d="M548 281 L1021 560 L938 560 L500 302 L168 302 L168 560 L117 560 L117 0 L168 0 L168 258 L499 258 L1001 0 L1093 0 L548 281 Z M435 635 L471 635 L616 806 L547 806 L435 635 Z " />
<glyph glyph-name="uni045D" unicode="&#x45d;" horiz-adv-x="1127" d="M959 502 L959 0 L1010 0 L1010 560 L962 560 L168 58 L168 560 L117 560 L117 0 L165 0 L959 502 Z M508 806 L439 806 L584 635 L620 635 L508 806 Z " />
<glyph glyph-name="uni045E" unicode="&#x45e;" horiz-adv-x="1063" d="M355 0 L1060 560 L986 560 L537 203 L81 560 L7 560 L503 172 L281 0 L355 0 Z M538 690 C450 690 418 737 413 791 L381 791 C386 722 423 650 538 650 C652 650 689 722 695 791 L663 791 C657 737 626 690 538 690 L538 690 Z " />
<glyph glyph-name="uni045F" unicode="&#x45f;" horiz-adv-x="1128" d="M960 45 L168 45 L168 560 L117 560 L117 0 L539 0 L539 -120 L589 -120 L589 0 L1011 0 L1011 560 L960 560 L960 45 Z " />
<glyph glyph-name="uni0490" unicode="&#x490;" horiz-adv-x="1129" d="M1039 700 L127 700 L127 0 L182 0 L182 650 L1094 650 L1094 850 L1039 850 L1039 700 Z " />
<glyph glyph-name="uni0491" unicode="&#x491;" horiz-adv-x="987" d="M889 560 L117 560 L117 0 L168 0 L168 515 L939 515 L939 680 L889 680 L889 560 Z " />
<glyph glyph-name="uni1E00" unicode="&#x1e00;" horiz-adv-x="1263" d="M556 -160 C556 -119 590 -85 631 -85 C673 -85 706 -119 706 -160 C706 -202 673 -235 631 -235 C590 -235 556 -202 556 -160 L556 -160 Z M521 -160 C521 -220 568 -268 631 -268 C693 -268 741 -220 741 -160 C741 -100 693 -53 631 -53 C568 -53 521 -100 521 -160 L521 -160 Z M1180 0 L1248 0 L662 700 L602 700 L15 0 L83 0 L207 148 L1056 148 L1180 0 Z M632 655 L1017 194 L245 194 L632 655 Z " />
<glyph glyph-name="uni1E01" unicode="&#x1e01;" horiz-adv-x="1082" d="M466 -160 C466 -119 500 -85 541 -85 C583 -85 616 -119 616 -160 C616 -202 583 -235 541 -235 C500 -235 466 -202 466 -160 L466 -160 Z M431 -160 C431 -220 478 -268 541 -268 C603 -268 651 -220 651 -160 C651 -100 603 -53 541 -53 C478 -53 431 -100 431 -160 L431 -160 Z M1003 0 L1066 0 L569 560 L513 560 L16 0 L79 0 L187 122 L894 122 L1003 0 Z M541 519 L858 163 L224 163 L541 519 Z " />
<glyph glyph-name="uni1E02" unicode="&#x1e02;" horiz-adv-x="1259" d="M127 0 L944 0 C1110 0 1174 80 1174 181 C1174 268 1126 341 1005 358 C1089 383 1124 447 1124 521 C1124 621 1061 700 896 700 L127 700 L127 0 Z M932 327 C1068 327 1116 264 1116 188 C1116 111 1068 50 932 50 L182 50 L182 327 L932 327 Z M1067 512 C1067 436 1022 373 893 373 L182 373 L182 650 L884 650 C1017 650 1067 588 1067 512 L1067 512 Z M571 827 L637 827 L637 893 L571 893 L571 827 Z " />
<glyph glyph-name="uni1E03" unicode="&#x1e03;" horiz-adv-x="1084" d="M117 0 L818 0 C960 0 1007 64 1007 145 C1007 214 971 273 870 287 C940 307 965 357 965 417 C965 497 917 560 777 560 L117 560 L117 0 Z M807 260 C920 260 953 211 953 152 C953 92 920 45 807 45 L168 45 L168 260 L807 260 Z M772 300 L168 300 L168 515 L765 515 C876 515 912 467 912 408 C912 349 880 300 772 300 L772 300 Z M484 687 L550 687 L550 753 L484 753 L484 687 Z " />
<glyph glyph-name="uni1E04" unicode="&#x1e04;" horiz-adv-x="1259" d="M611 -194 L677 -194 L677 -128 L611 -128 L611 -194 Z M127 0 L944 0 C1110 0 1174 80 1174 181 C1174 268 1126 341 1005 358 C1089 383 1124 447 1124 521 C1124 621 1061 700 896 700 L127 700 L127 0 Z M932 327 C1068 327 1116 264 1116 188 C1116 111 1068 50 932 50 L182 50 L182 327 L932 327 Z M1067 512 C1067 436 1022 373 893 373 L182 373 L182 650 L884 650 C1017 650 1067 588 1067 512 L1067 512 Z " />
<glyph glyph-name="uni1E05" unicode="&#x1e05;" horiz-adv-x="1084" d="M524 -194 L590 -194 L590 -128 L524 -128 L524 -194 Z M117 0 L818 0 C960 0 1007 64 1007 145 C1007 214 971 273 870 287 C940 307 965 357 965 417 C965 497 917 560 777 560 L117 560 L117 0 Z M807 260 C920 260 953 211 953 152 C953 92 920 45 807 45 L168 45 L168 260 L807 260 Z M772 300 L168 300 L168 515 L765 515 C876 515 912 467 912 408 C912 349 880 300 772 300 L772 300 Z " />
<glyph glyph-name="uni1E06" unicode="&#x1e06;" horiz-adv-x="1259" d="M470 -180 L818 -180 L818 -142 L470 -142 L470 -180 Z M127 0 L944 0 C1110 0 1174 80 1174 181 C1174 268 1126 341 1005 358 C1089 383 1124 447 1124 521 C1124 621 1061 700 896 700 L127 700 L127 0 Z M932 327 C1068 327 1116 264 1116 188 C1116 111 1068 50 932 50 L182 50 L182 327 L932 327 Z M1067 512 C1067 436 1022 373 893 373 L182 373 L182 650 L884 650 C1017 650 1067 588 1067 512 L1067 512 Z " />
<glyph glyph-name="uni1E07" unicode="&#x1e07;" horiz-adv-x="1084" d="M383 -180 L731 -180 L731 -142 L383 -142 L383 -180 Z M117 0 L818 0 C960 0 1007 64 1007 145 C1007 214 971 273 870 287 C940 307 965 357 965 417 C965 497 917 560 777 560 L117 560 L117 0 Z M807 260 C920 260 953 211 953 152 C953 92 920 45 807 45 L168 45 L168 260 L807 260 Z M772 300 L168 300 L168 515 L765 515 C876 515 912 467 912 408 C912 349 880 300 772 300 L772 300 Z " />
<glyph glyph-name="uni1E08" unicode="&#x1e08;" horiz-adv-x="1184" d="M602 -96 L620 -96 C691 -96 730 -111 730 -157 C730 -238 579 -223 533 -200 L533 -226 C605 -261 773 -271 773 -158 C773 -84 709 -69 639 -69 L634 -69 L653 0 L1099 0 L1099 50 L522 50 C241 50 138 184 138 350 C138 516 241 650 522 650 L1099 650 L1099 700 L521 700 C204 700 80 543 80 350 C80 157 204 0 521 0 L629 0 L602 -96 Z M584 775 L620 775 L765 946 L696 946 L584 775 Z " />
<glyph glyph-name="uni1E09" unicode="&#x1e09;" horiz-adv-x="1016" d="M508 -96 L526 -96 C597 -96 636 -111 636 -157 C636 -238 485 -223 439 -200 L439 -226 C511 -261 679 -271 679 -158 C679 -84 615 -69 545 -69 L540 -69 L559 0 L939 0 L939 45 L440 45 C204 45 127 150 127 280 C127 410 204 515 440 515 L939 515 L939 560 L440 560 C170 560 73 434 73 280 C73 126 170 0 440 0 L535 0 L508 -96 Z M490 635 L526 635 L671 806 L602 806 L490 635 Z " />
<glyph glyph-name="uni1E0A" unicode="&#x1e0a;" horiz-adv-x="1255" d="M127 0 L734 0 C1051 0 1175 157 1175 350 C1175 543 1051 700 734 700 L127 700 L127 0 Z M733 650 C1014 650 1117 516 1117 350 C1117 184 1014 50 733 50 L182 50 L182 650 L733 650 Z M579 827 L645 827 L645 893 L579 893 L579 827 Z " />
<glyph glyph-name="uni1E0B" unicode="&#x1e0b;" horiz-adv-x="1081" d="M498 687 L564 687 L564 753 L498 753 L498 687 Z M117 0 L641 0 C911 0 1008 126 1008 280 C1008 434 911 560 641 560 L117 560 L117 0 Z M641 515 C878 515 955 410 955 280 C955 150 878 45 641 45 L168 45 L168 515 L641 515 Z " />
<glyph glyph-name="uni1E0C" unicode="&#x1e0c;" horiz-adv-x="1255" d="M127 0 L734 0 C1051 0 1175 157 1175 350 C1175 543 1051 700 734 700 L127 700 L127 0 Z M733 650 C1014 650 1117 516 1117 350 C1117 184 1014 50 733 50 L182 50 L182 650 L733 650 Z M579 -194 L645 -194 L645 -128 L579 -128 L579 -194 Z " />
<glyph glyph-name="uni1E0D" unicode="&#x1e0d;" horiz-adv-x="1081" d="M117 0 L641 0 C911 0 1008 126 1008 280 C1008 434 911 560 641 560 L117 560 L117 0 Z M641 515 C878 515 955 410 955 280 C955 150 878 45 641 45 L168 45 L168 515 L641 515 Z M498 -194 L564 -194 L564 -128 L498 -128 L498 -194 Z " />
<glyph glyph-name="uni1E0E" unicode="&#x1e0e;" horiz-adv-x="1255" d="M127 0 L734 0 C1051 0 1175 157 1175 350 C1175 543 1051 700 734 700 L127 700 L127 0 Z M733 650 C1014 650 1117 516 1117 350 C1117 184 1014 50 733 50 L182 50 L182 650 L733 650 Z M438 -180 L786 -180 L786 -142 L438 -142 L438 -180 Z " />
<glyph glyph-name="uni1E0F" unicode="&#x1e0f;" horiz-adv-x="1081" d="M117 0 L641 0 C911 0 1008 126 1008 280 C1008 434 911 560 641 560 L117 560 L117 0 Z M641 515 C878 515 955 410 955 280 C955 150 878 45 641 45 L168 45 L168 515 L641 515 Z M357 -180 L705 -180 L705 -142 L357 -142 L357 -180 Z " />
<glyph glyph-name="uni1E10" unicode="&#x1e10;" horiz-adv-x="1255" d="M127 0 L734 0 C1051 0 1175 157 1175 350 C1175 543 1051 700 734 700 L127 700 L127 0 Z M733 650 C1014 650 1117 516 1117 350 C1117 184 1014 50 733 50 L182 50 L182 650 L733 650 Z M580 -194 L610 -194 L578 -284 L606 -284 L646 -190 L646 -128 L580 -128 L580 -194 Z " />
<glyph glyph-name="uni1E11" unicode="&#x1e11;" horiz-adv-x="1081" d="M117 0 L641 0 C911 0 1008 126 1008 280 C1008 434 911 560 641 560 L117 560 L117 0 Z M641 515 C878 515 955 410 955 280 C955 150 878 45 641 45 L168 45 L168 515 L641 515 Z M499 -194 L529 -194 L497 -284 L525 -284 L565 -190 L565 -128 L499 -128 L499 -194 Z " />
<glyph glyph-name="uni1E12" unicode="&#x1e12;" horiz-adv-x="1255" d="M127 0 L734 0 C1051 0 1175 157 1175 350 C1175 543 1051 700 734 700 L127 700 L127 0 Z M733 650 C1014 650 1117 516 1117 350 C1117 184 1014 50 733 50 L182 50 L182 650 L733 650 Z M646 -75 L576 -75 L450 -246 L485 -246 L611 -108 L737 -246 L774 -246 L646 -75 Z " />
<glyph glyph-name="uni1E13" unicode="&#x1e13;" horiz-adv-x="1081" d="M117 0 L641 0 C911 0 1008 126 1008 280 C1008 434 911 560 641 560 L117 560 L117 0 Z M641 515 C878 515 955 410 955 280 C955 150 878 45 641 45 L168 45 L168 515 L641 515 Z M565 -75 L495 -75 L369 -246 L404 -246 L530 -108 L656 -246 L693 -246 L565 -75 Z " />
<glyph glyph-name="uni1E14" unicode="&#x1e14;" horiz-adv-x="1199" d="M127 0 L1114 0 L1114 50 L182 50 L182 327 L1012 327 L1012 373 L182 373 L182 650 L1114 650 L1114 700 L127 700 L127 0 Z M435 841 L783 841 L783 879 L435 879 L435 841 Z M554 1118 L485 1118 L630 947 L666 947 L554 1118 Z " />
<glyph glyph-name="uni1E15" unicode="&#x1e15;" horiz-adv-x="1034" d="M117 0 L956 0 L956 45 L168 45 L168 260 L869 260 L869 300 L168 300 L168 515 L956 515 L956 560 L117 560 L117 0 Z M355 701 L703 701 L703 739 L355 739 L355 701 Z M474 978 L405 978 L550 807 L586 807 L474 978 Z " />
<glyph glyph-name="uni1E16" unicode="&#x1e16;" horiz-adv-x="1199" d="M127 0 L1114 0 L1114 50 L182 50 L182 327 L1012 327 L1012 373 L182 373 L182 650 L1114 650 L1114 700 L127 700 L127 0 Z M435 841 L783 841 L783 879 L435 879 L435 841 Z M551 947 L587 947 L732 1118 L663 1118 L551 947 Z " />
<glyph glyph-name="uni1E17" unicode="&#x1e17;" horiz-adv-x="1034" d="M117 0 L956 0 L956 45 L168 45 L168 260 L869 260 L869 300 L168 300 L168 515 L956 515 L956 560 L117 560 L117 0 Z M355 701 L703 701 L703 739 L355 739 L355 701 Z M471 807 L507 807 L652 978 L583 978 L471 807 Z " />
<glyph glyph-name="uni1E18" unicode="&#x1e18;" horiz-adv-x="1199" d="M127 0 L1114 0 L1114 50 L182 50 L182 327 L1012 327 L1012 373 L182 373 L182 650 L1114 650 L1114 700 L127 700 L127 0 Z M643 -75 L573 -75 L447 -246 L482 -246 L608 -108 L734 -246 L771 -246 L643 -75 Z " />
<glyph glyph-name="uni1E19" unicode="&#x1e19;" horiz-adv-x="1034" d="M117 0 L956 0 L956 45 L168 45 L168 260 L869 260 L869 300 L168 300 L168 515 L956 515 L956 560 L117 560 L117 0 Z M563 -75 L493 -75 L367 -246 L402 -246 L528 -108 L654 -246 L691 -246 L563 -75 Z " />
<glyph glyph-name="uni1E1A" unicode="&#x1e1a;" horiz-adv-x="1199" d="M127 0 L1114 0 L1114 50 L182 50 L182 327 L1012 327 L1012 373 L182 373 L182 650 L1114 650 L1114 700 L127 700 L127 0 Z M747 -96 C740 -164 716 -174 687 -174 C637 -174 596 -105 531 -105 C484 -105 451 -130 441 -225 L471 -225 C478 -157 502 -147 531 -147 C581 -147 622 -216 687 -216 C734 -216 768 -191 777 -96 L747 -96 Z " />
<glyph glyph-name="uni1E1B" unicode="&#x1e1b;" horiz-adv-x="1034" d="M117 0 L956 0 L956 45 L168 45 L168 260 L869 260 L869 300 L168 300 L168 515 L956 515 L956 560 L117 560 L117 0 Z M667 -96 C660 -164 636 -174 607 -174 C557 -174 516 -105 451 -105 C404 -105 371 -130 361 -225 L391 -225 C398 -157 422 -147 451 -147 C501 -147 542 -216 607 -216 C654 -216 688 -191 697 -96 L667 -96 Z " />
<glyph glyph-name="uni1E1C" unicode="&#x1e1c;" horiz-adv-x="1199" d="M127 0 L595 0 L568 -96 L586 -96 C657 -96 696 -111 696 -157 C696 -238 545 -223 499 -200 L499 -226 C571 -261 739 -271 739 -158 C739 -84 675 -69 605 -69 L600 -69 L619 0 L1114 0 L1114 50 L182 50 L182 327 L1012 327 L1012 373 L182 373 L182 650 L1114 650 L1114 700 L127 700 L127 0 Z M609 830 C521 830 489 877 484 931 L452 931 C457 862 494 790 609 790 C723 790 760 862 766 931 L734 931 C728 877 697 830 609 830 L609 830 Z " />
<glyph glyph-name="uni1E1D" unicode="&#x1e1d;" horiz-adv-x="1034" d="M117 0 L515 0 L488 -96 L506 -96 C577 -96 616 -111 616 -157 C616 -238 465 -223 419 -200 L419 -226 C491 -261 659 -271 659 -158 C659 -84 595 -69 525 -69 L520 -69 L539 0 L956 0 L956 45 L168 45 L168 260 L869 260 L869 300 L168 300 L168 515 L956 515 L956 560 L117 560 L117 0 Z M529 690 C441 690 409 737 404 791 L372 791 C377 722 414 650 529 650 C643 650 680 722 686 791 L654 791 C648 737 617 690 529 690 L529 690 Z " />
<glyph glyph-name="uni1E1E" unicode="&#x1e1e;" horiz-adv-x="1159" d="M127 0 L182 0 L182 322 L1012 322 L1012 372 L182 372 L182 650 L1114 650 L1114 700 L127 700 L127 0 Z M566 827 L632 827 L632 893 L566 893 L566 827 Z " />
<glyph glyph-name="uni1E1F" unicode="&#x1e1f;" horiz-adv-x="1017" d="M117 0 L168 0 L168 255 L869 255 L869 300 L168 300 L168 515 L956 515 L956 560 L117 560 L117 0 Z M490 687 L556 687 L556 753 L490 753 L490 687 Z " />
<glyph glyph-name="uni1E20" unicode="&#x1e20;" horiz-adv-x="1256" d="M669 327 L1100 327 L1100 50 L522 50 C241 50 138 184 138 350 C138 516 241 650 522 650 L1099 650 L1099 700 L521 700 C204 700 80 543 80 350 C80 157 204 0 521 0 L1154 0 L1154 373 L669 373 L669 327 Z M478 841 L826 841 L826 879 L478 879 L478 841 Z " />
<glyph glyph-name="uni1E21" unicode="&#x1e21;" horiz-adv-x="1081" d="M573 260 L936 260 L936 45 L440 45 C204 45 127 150 127 280 C127 410 204 515 440 515 L939 515 L939 560 L440 560 C170 560 73 434 73 280 C73 126 170 0 440 0 L986 0 L986 300 L573 300 L573 260 Z M378 701 L726 701 L726 739 L378 739 L378 701 Z " />
<glyph glyph-name="uni1E22" unicode="&#x1e22;" horiz-adv-x="1305" d="M1123 0 L1178 0 L1178 700 L1123 700 L1123 375 L182 375 L182 700 L127 700 L127 0 L182 0 L182 325 L1123 325 L1123 0 Z M619 827 L685 827 L685 893 L619 893 L619 827 Z " />
<glyph glyph-name="uni1E23" unicode="&#x1e23;" horiz-adv-x="1128" d="M960 0 L1011 0 L1011 560 L960 560 L960 302 L168 302 L168 560 L117 560 L117 0 L168 0 L168 258 L960 258 L960 0 Z M531 687 L597 687 L597 753 L531 753 L531 687 Z " />
<glyph glyph-name="uni1E24" unicode="&#x1e24;" horiz-adv-x="1305" d="M619 -194 L685 -194 L685 -128 L619 -128 L619 -194 Z M1123 0 L1178 0 L1178 700 L1123 700 L1123 375 L182 375 L182 700 L127 700 L127 0 L182 0 L182 325 L1123 325 L1123 0 Z " />
<glyph glyph-name="uni1E25" unicode="&#x1e25;" horiz-adv-x="1128" d="M531 -194 L597 -194 L597 -128 L531 -128 L531 -194 Z M960 0 L1011 0 L1011 560 L960 560 L960 302 L168 302 L168 560 L117 560 L117 0 L168 0 L168 258 L960 258 L960 0 Z " />
<glyph glyph-name="uni1E26" unicode="&#x1e26;" horiz-adv-x="1305" d="M1123 0 L1178 0 L1178 700 L1123 700 L1123 375 L182 375 L182 700 L127 700 L127 0 L182 0 L182 325 L1123 325 L1123 0 Z M744 827 L810 827 L810 893 L744 893 L744 827 Z M494 827 L560 827 L560 893 L494 893 L494 827 Z " />
<glyph glyph-name="uni1E27" unicode="&#x1e27;" horiz-adv-x="1128" d="M960 0 L1011 0 L1011 560 L960 560 L960 302 L168 302 L168 560 L117 560 L117 0 L168 0 L168 258 L960 258 L960 0 Z M656 687 L722 687 L722 753 L656 753 L656 687 Z M406 687 L472 687 L472 753 L406 753 L406 687 Z " />
<glyph glyph-name="uni1E28" unicode="&#x1e28;" horiz-adv-x="1305" d="M114 -96 L132 -96 C203 -96 242 -111 242 -157 C242 -238 91 -223 45 -200 L45 -226 C117 -261 285 -271 285 -158 C285 -84 221 -69 151 -69 L146 -69 L165 0 L182 0 L182 325 L1123 325 L1123 0 L1178 0 L1178 700 L1123 700 L1123 375 L182 375 L182 700 L127 700 L127 0 L141 0 L114 -96 Z " />
<glyph glyph-name="uni1E29" unicode="&#x1e29;" horiz-adv-x="1128" d="M101 -96 L119 -96 C190 -96 229 -111 229 -157 C229 -238 78 -223 32 -200 L32 -226 C104 -261 272 -271 272 -158 C272 -84 208 -69 138 -69 L133 -69 L152 0 L168 0 L168 258 L960 258 L960 0 L1011 0 L1011 560 L960 560 L960 302 L168 302 L168 560 L117 560 L117 0 L128 0 L101 -96 Z " />
<glyph glyph-name="uni1E2A" unicode="&#x1e2a;" horiz-adv-x="1305" d="M652 -191 C564 -191 532 -144 527 -90 L495 -90 C500 -159 537 -231 652 -231 C766 -231 803 -159 809 -90 L777 -90 C771 -144 740 -191 652 -191 L652 -191 Z M1123 0 L1178 0 L1178 700 L1123 700 L1123 375 L182 375 L182 700 L127 700 L127 0 L182 0 L182 325 L1123 325 L1123 0 Z " />
<glyph glyph-name="uni1E2B" unicode="&#x1e2b;" horiz-adv-x="1128" d="M564 -191 C476 -191 444 -144 439 -90 L407 -90 C412 -159 449 -231 564 -231 C678 -231 715 -159 721 -90 L689 -90 C683 -144 652 -191 564 -191 L564 -191 Z M960 0 L1011 0 L1011 560 L960 560 L960 302 L168 302 L168 560 L117 560 L117 0 L168 0 L168 258 L960 258 L960 0 Z " />
<glyph glyph-name="uni1E2C" unicode="&#x1e2c;" horiz-adv-x="309" d="M293 -96 C286 -164 262 -174 233 -174 C183 -174 142 -105 77 -105 C30 -105 -3 -130 -13 -225 L17 -225 C24 -157 48 -147 77 -147 C127 -147 168 -216 233 -216 C280 -216 314 -191 323 -96 L293 -96 Z M127 0 L182 0 L182 700 L127 700 L127 0 Z " />
<glyph glyph-name="uni1E2D" unicode="&#x1e2d;" horiz-adv-x="285" d="M281 -96 C274 -164 250 -174 221 -174 C171 -174 130 -105 65 -105 C18 -105 -15 -130 -25 -225 L5 -225 C12 -157 36 -147 65 -147 C115 -147 156 -216 221 -216 C268 -216 302 -191 311 -96 L281 -96 Z M117 0 L168 0 L168 560 L117 560 L117 0 Z " />
<glyph glyph-name="uni1E2E" unicode="&#x1e2e;" horiz-adv-x="309" d="M127 0 L182 0 L182 700 L127 700 L127 0 Z M247 827 L313 827 L313 893 L247 893 L247 827 Z M-3 827 L63 827 L63 893 L-3 893 L-3 827 Z M97 950 L133 950 L278 1121 L209 1121 L97 950 Z " />
<glyph glyph-name="uni1E2F" unicode="&#x1e2f;" horiz-adv-x="285" d="M117 0 L168 0 L168 560 L117 560 L117 0 Z M235 687 L301 687 L301 753 L235 753 L235 687 Z M-15 687 L51 687 L51 753 L-15 753 L-15 687 Z M85 810 L121 810 L266 981 L197 981 L85 810 Z " />
<glyph glyph-name="uni1E30" unicode="&#x1e30;" horiz-adv-x="1284" d="M1183 700 L1084 700 L182 202 L182 700 L127 700 L127 0 L182 0 L182 146 L542 345 L1175 0 L1274 0 L593 374 L1183 700 Z M544 775 L580 775 L725 946 L656 946 L544 775 Z " />
<glyph glyph-name="uni1E31" unicode="&#x1e31;" horiz-adv-x="1109" d="M1022 560 L926 560 L168 166 L168 560 L117 560 L117 0 L168 0 L168 115 L474 274 L1001 0 L1094 0 L521 299 L1022 560 Z M461 635 L497 635 L642 806 L573 806 L461 635 Z " />
<glyph glyph-name="uni1E32" unicode="&#x1e32;" horiz-adv-x="1284" d="M1183 700 L1084 700 L182 202 L182 700 L127 700 L127 0 L182 0 L182 146 L542 345 L1175 0 L1274 0 L593 374 L1183 700 Z M608 -194 L674 -194 L674 -128 L608 -128 L608 -194 Z " />
<glyph glyph-name="uni1E33" unicode="&#x1e33;" horiz-adv-x="1109" d="M1022 560 L926 560 L168 166 L168 560 L117 560 L117 0 L168 0 L168 115 L474 274 L1001 0 L1094 0 L521 299 L1022 560 Z M519 -194 L585 -194 L585 -128 L519 -128 L519 -194 Z " />
<glyph glyph-name="uni1E34" unicode="&#x1e34;" horiz-adv-x="1284" d="M1183 700 L1084 700 L182 202 L182 700 L127 700 L127 0 L182 0 L182 146 L542 345 L1175 0 L1274 0 L593 374 L1183 700 Z M467 -180 L815 -180 L815 -142 L467 -142 L467 -180 Z " />
<glyph glyph-name="uni1E35" unicode="&#x1e35;" horiz-adv-x="1109" d="M1022 560 L926 560 L168 166 L168 560 L117 560 L117 0 L168 0 L168 115 L474 274 L1001 0 L1094 0 L521 299 L1022 560 Z M378 -180 L726 -180 L726 -142 L378 -142 L378 -180 Z " />
<glyph glyph-name="uni1E36" unicode="&#x1e36;" horiz-adv-x="1129" d="M182 700 L127 700 L127 0 L1094 0 L1094 50 L182 50 L182 700 Z M570 -194 L636 -194 L636 -128 L570 -128 L570 -194 Z " />
<glyph glyph-name="uni1E37" unicode="&#x1e37;" horiz-adv-x="987" d="M168 560 L117 560 L117 0 L939 0 L939 45 L168 45 L168 560 Z M496 -194 L562 -194 L562 -128 L496 -128 L496 -194 Z " />
<glyph glyph-name="uni1E38" unicode="&#x1e38;" horiz-adv-x="1129" d="M182 700 L127 700 L127 0 L1094 0 L1094 50 L182 50 L182 700 Z M570 -194 L636 -194 L636 -128 L570 -128 L570 -194 Z M12 841 L360 841 L360 879 L12 879 L12 841 Z " />
<glyph glyph-name="uni1E39" unicode="&#x1e39;" horiz-adv-x="987" d="M168 560 L117 560 L117 0 L939 0 L939 45 L168 45 L168 560 Z M496 -194 L562 -194 L562 -128 L496 -128 L496 -194 Z M0 701 L348 701 L348 739 L0 739 L0 701 Z " />
<glyph glyph-name="uni1E3A" unicode="&#x1e3a;" horiz-adv-x="1129" d="M182 700 L127 700 L127 0 L1094 0 L1094 50 L182 50 L182 700 Z M429 -180 L777 -180 L777 -142 L429 -142 L429 -180 Z " />
<glyph glyph-name="uni1E3B" unicode="&#x1e3b;" horiz-adv-x="987" d="M168 560 L117 560 L117 0 L939 0 L939 45 L168 45 L168 560 Z M355 -180 L703 -180 L703 -142 L355 -142 L355 -180 Z " />
<glyph glyph-name="uni1E3C" unicode="&#x1e3c;" horiz-adv-x="1129" d="M182 700 L127 700 L127 0 L1094 0 L1094 50 L182 50 L182 700 Z M637 -75 L567 -75 L441 -246 L476 -246 L602 -108 L728 -246 L765 -246 L637 -75 Z " />
</font>
</svg>
