<?xml version="1.0" encoding="UTF-8"?>
<svg xmlns="http://www.w3.org/2000/svg" xmlns:xlink="http://www.w3.org/1999/xlink" version="1.2" >
<font id="Stereo Gothic 300 Italic">
<font-face  font-family="Stereo Gothic" units-per-em="1000" ascent="700" descent="-300" font-style="italic" font-weight="300" font-stretch="normal" slope="-10" cap-height="700" x-height="560" underline-position="-75" underline-thickness="50" />
<missing-glyph  horiz-adv-x="1000" d="M152 0 L852 0 L852 700 L152 700 L152 0 Z M205 31 L818 643 L818 31 L205 31 Z M186 669 L796 669 L186 59 L186 669 Z " />
<glyph glyph-name="NULL" d="" />
<glyph glyph-name="CR" unicode="&#xd;" horiz-adv-x="250" d="" />
<glyph glyph-name="space" unicode="&#x20;" horiz-adv-x="480" d="" />
<glyph glyph-name="exclam" unicode="&#x21;" horiz-adv-x="308" d="M55 0 L133 0 L148 80 L69 80 L55 0 Z M89 148 L145 148 L253 700 L186 700 L89 148 Z " />
<glyph glyph-name="quotedbl" unicode="&#x22;" horiz-adv-x="468" d="M122 400 L169 400 L236 700 L165 700 L122 400 Z M323 400 L370 400 L437 700 L366 700 L323 400 Z " />
<glyph glyph-name="numbersign" unicode="&#x23;" horiz-adv-x="1246" d="M840 0 L900 0 L953 196 L1099 196 L1110 252 L970 252 L1025 448 L1174 448 L1184 504 L1041 504 L1096 700 L1036 700 L981 504 L355 504 L410 700 L350 700 L295 504 L150 504 L141 448 L280 448 L225 252 L77 252 L66 196 L208 196 L155 0 L215 0 L268 196 L893 196 L840 0 Z M340 448 L965 448 L910 252 L285 252 L340 448 Z " />
<glyph glyph-name="dollar" unicode="&#x24;" horiz-adv-x="1246" d="M528 -20 L588 -20 L605 70 L887 70 C1040 70 1103 154 1103 247 C1103 320 1059 375 941 375 L661 375 L696 575 L1132 575 L1142 630 L705 630 L722 720 L662 720 L645 630 L363 630 C209 630 147 544 147 449 C147 378 194 325 310 325 L590 325 L555 125 L119 125 L108 70 L545 70 L528 -20 Z M324 375 C242 375 212 410 212 457 C212 521 258 575 366 575 L635 575 L600 375 L324 375 Z M927 325 C1009 325 1038 290 1038 243 C1038 179 993 125 884 125 L616 125 L651 325 L927 325 Z " />
<glyph glyph-name="percent" unicode="&#x25;" horiz-adv-x="1246" d="M1065 700 L113 0 L186 0 L1138 700 L1065 700 Z M120 476 C107 405 140 350 248 350 L404 350 C512 350 559 403 571 474 L588 574 C600 645 570 700 463 700 L306 700 C198 700 151 647 138 576 L120 476 Z M463 653 C531 653 546 619 539 574 L521 476 C513 431 480 397 409 397 L248 397 C179 397 164 431 172 476 L188 574 C196 618 230 653 301 653 L463 653 Z M660 126 C647 55 680 0 788 0 L944 0 C1052 0 1099 53 1111 124 L1128 224 C1140 295 1110 350 1003 350 L846 350 C738 350 691 297 678 226 L660 126 Z M1003 303 C1071 303 1086 269 1079 224 L1061 126 C1053 81 1020 47 949 47 L788 47 C719 47 704 81 712 126 L728 224 C736 268 770 303 841 303 L1003 303 Z " />
<glyph glyph-name="ampersand" unicode="&#x26;" horiz-adv-x="1263" d="M253 0 L875 0 C1050 0 1119 95 1119 201 C1119 253 1096 302 1045 322 L1190 322 L1200 378 L375 378 C272 378 237 426 237 486 C237 563 289 640 430 640 L1035 640 L1046 700 L424 700 C243 700 170 599 170 489 C170 430 197 379 256 359 C115 339 61 245 61 151 C61 67 114 0 253 0 L253 0 Z M860 60 L280 60 C172 60 133 106 133 168 C133 245 183 322 326 322 L910 322 C1015 322 1053 274 1053 215 C1053 133 1003 60 860 60 L860 60 Z " />
<glyph glyph-name="quotesingle" unicode="&#x27;" horiz-adv-x="268" d="M122 400 L169 400 L236 700 L165 700 L122 400 Z " />
<glyph glyph-name="parenleft" unicode="&#x28;" horiz-adv-x="465" d="M297 -116 C113 156 183 544 465 815 L410 815 C111 547 40 153 243 -116 L297 -116 Z " />
<glyph glyph-name="parenright" unicode="&#x29;" horiz-adv-x="465" d="M59 -116 C358 153 430 547 227 815 L172 815 C358 544 287 156 4 -116 L59 -116 Z " />
<glyph glyph-name="asterisk" unicode="&#x2a;" horiz-adv-x="567" d="M543 503 L525 565 L323 483 L341 700 L276 700 L287 483 L88 565 L67 503 L275 450 L134 285 L186 247 L304 429 L415 247 L468 285 L332 449 L543 503 Z " />
<glyph glyph-name="plus" unicode="&#x2b;" horiz-adv-x="1246" d="M281 320 L592 320 L592 30 L658 30 L658 320 L969 320 L969 380 L658 380 L658 670 L592 670 L592 380 L281 380 L281 320 Z " />
<glyph glyph-name="comma" unicode="&#x2c;" horiz-adv-x="270" d="M37 0 L74 0 L20 -103 L51 -103 L117 4 L130 80 L50 80 L37 0 Z " />
<glyph glyph-name="hyphen" unicode="&#x2d;" horiz-adv-x="576" d="M76 250 L468 250 L479 310 L87 310 L76 250 Z " />
<glyph glyph-name="period" unicode="&#x2e;" horiz-adv-x="270" d="M37 0 L116 0 L130 80 L50 80 L37 0 Z " />
<glyph glyph-name="slash" unicode="&#x2f;" horiz-adv-x="512" d="M-88 -75 L-27 -75 L606 776 L545 776 L-88 -75 Z " />
<glyph glyph-name="zero" unicode="0" horiz-adv-x="1246" d="M86 248 C61 111 126 0 341 0 L792 0 C1008 0 1103 105 1129 247 L1165 452 C1190 589 1125 700 910 700 L459 700 C243 700 148 595 122 453 L86 248 Z M902 640 C1073 640 1118 554 1099 449 L1063 252 C1044 145 971 60 799 60 L349 60 C177 60 133 147 152 251 L187 448 C206 555 280 640 452 640 L902 640 Z " />
<glyph glyph-name="one" unicode="1" horiz-adv-x="1246" d="M423 640 L701 640 L598 60 L175 60 L165 0 L961 0 L971 60 L664 60 L779 700 L435 700 L423 640 Z " />
<glyph glyph-name="two" unicode="2" horiz-adv-x="1246" d="M1076 60 L118 60 L142 190 C155 263 207 322 329 322 L921 322 C1113 322 1190 427 1190 542 C1190 631 1136 700 988 700 L205 700 L194 640 L975 640 C1084 640 1120 592 1120 531 C1120 449 1066 378 928 378 L338 378 C173 378 96 302 76 192 L42 0 L1065 0 L1076 60 Z " />
<glyph glyph-name="three" unicode="3" horiz-adv-x="1246" d="M22 0 L869 0 C1053 0 1125 102 1125 213 C1125 283 1085 341 995 357 C1093 389 1138 462 1138 555 C1138 636 1085 700 948 700 L167 700 L156 640 L921 640 C1029 640 1067 593 1067 531 C1067 457 1016 378 881 378 L192 378 L182 322 L910 322 C1019 322 1057 274 1057 214 C1057 133 1002 60 864 60 L33 60 L22 0 Z " />
<glyph glyph-name="four" unicode="4" horiz-adv-x="1246" d="M1078 700 L45 179 L36 127 L972 127 L951 0 L1016 0 L1037 127 L1144 127 L1154 187 L1048 187 L1141 700 L1078 700 Z M178 187 L1064 635 L983 187 L178 187 Z " />
<glyph glyph-name="five" unicode="5" horiz-adv-x="1246" d="M99 322 L916 322 C1025 322 1062 275 1062 214 C1062 132 1008 60 871 60 L70 60 L59 0 L862 0 C1054 0 1131 103 1131 219 C1131 308 1077 378 930 378 L175 378 L241 640 L1170 640 L1181 700 L196 700 L99 322 Z " />
<glyph glyph-name="six" unicode="6" horiz-adv-x="1246" d="M170 350 C199 513 314 640 574 640 L1160 640 L1171 700 L579 700 C273 700 139 551 105 354 L86 248 C61 111 126 0 341 0 L877 0 C1068 0 1146 103 1146 219 C1146 309 1091 378 945 378 L361 378 C259 378 195 345 160 294 L170 350 Z M330 322 L933 322 C1040 322 1076 275 1076 214 C1076 132 1022 60 885 60 L349 60 C204 60 150 122 148 203 C162 271 214 322 330 322 L330 322 Z " />
<glyph glyph-name="seven" unicode="7" horiz-adv-x="1246" d="M417 0 L1208 646 L1219 700 L148 700 L136 640 L1108 640 L318 0 L417 0 Z " />
<glyph glyph-name="eight" unicode="8" horiz-adv-x="1246" d="M241 0 L885 0 C1069 0 1141 102 1141 213 C1141 283 1101 341 1011 357 C1109 389 1154 462 1154 555 C1154 636 1101 700 964 700 L413 700 C231 700 158 599 158 489 C158 430 184 379 244 359 C103 339 49 245 49 151 C49 67 102 0 241 0 L241 0 Z M880 60 L268 60 C160 60 121 106 121 168 C121 245 171 322 313 322 L925 322 C1035 322 1073 274 1073 214 C1073 134 1018 60 880 60 L880 60 Z M937 640 C1044 640 1083 592 1083 532 C1083 457 1033 378 897 378 L363 378 C260 378 225 426 225 486 C225 563 276 640 418 640 L937 640 Z " />
<glyph glyph-name="nine" unicode="9" horiz-adv-x="1246" d="M677 60 L91 60 L80 0 L672 0 C978 0 1112 149 1146 346 L1165 452 C1190 589 1125 700 910 700 L374 700 C183 700 106 597 105 481 C104 391 160 322 306 322 L890 322 C992 322 1055 355 1091 406 L1081 350 C1052 187 937 60 677 60 L677 60 Z M921 378 L318 378 C211 378 175 425 175 486 C175 568 229 640 366 640 L902 640 C1047 640 1100 578 1103 496 C1088 429 1036 378 921 378 L921 378 Z " />
<glyph glyph-name="colon" unicode="&#x3a;" horiz-adv-x="270" d="M122 480 L201 480 L215 560 L136 560 L122 480 Z M37 0 L116 0 L130 80 L50 80 L37 0 Z " />
<glyph glyph-name="semicolon" unicode="&#x3b;" horiz-adv-x="270" d="M37 0 L74 0 L20 -103 L51 -103 L117 4 L130 80 L50 80 L37 0 Z M122 480 L201 480 L215 560 L136 560 L122 480 Z " />
<glyph glyph-name="less" unicode="&#x3c;" horiz-adv-x="1246" d="M959 94 L369 350 L959 606 L959 670 L291 381 L291 319 L959 30 L959 94 Z " />
<glyph glyph-name="equal" unicode="&#x3d;" horiz-adv-x="1246" d="M281 166 L969 166 L969 226 L281 226 L281 166 Z M281 474 L969 474 L969 534 L281 534 L281 474 Z " />
<glyph glyph-name="greater" unicode="&#x3e;" horiz-adv-x="1246" d="M291 30 L959 319 L959 381 L291 670 L291 606 L881 350 L291 94 L291 30 Z " />
<glyph glyph-name="question" unicode="&#x3f;" horiz-adv-x="1027" d="M291 148 L353 148 L383 323 L759 323 C952 323 1027 427 1027 542 C1027 631 974 700 825 700 L98 700 L87 640 L813 640 C921 640 957 592 957 531 C957 449 903 377 764 377 L332 377 L291 148 Z M256 0 L336 0 L349 80 L270 80 L256 0 Z " />
<glyph glyph-name="at" unicode="&#x40;" horiz-adv-x="1342" d="M708 420 L635 420 C417 420 332 298 332 169 C332 69 395 -10 558 -10 L635 -10 C753 -10 826 27 871 87 L863 0 L1118 0 C1212 89 1254 196 1254 309 C1254 491 1144 635 847 635 L652 635 C222 635 47 394 47 129 C47 -69 177 -224 500 -224 L640 -224 L648 -174 L505 -174 C209 -174 107 -34 107 144 C107 369 259 585 648 585 L820 585 C1084 585 1196 473 1196 302 C1196 211 1158 112 1095 50 L910 50 L975 410 L934 410 L911 306 C891 371 828 420 708 420 L708 420 Z M569 40 C437 40 390 100 390 177 C390 276 455 370 626 370 L705 370 C841 370 885 308 885 229 C885 129 820 40 645 40 L569 40 Z " />
<glyph glyph-name="A" unicode="A" horiz-adv-x="1215" d="M1065 0 L1143 0 L708 700 L637 700 L-47 0 L38 0 L178 144 L975 144 L1065 0 Z M665 645 L941 200 L232 200 L665 645 Z " />
<glyph glyph-name="B" unicode="B" horiz-adv-x="1209" d="M61 0 L847 0 C1031 0 1104 102 1104 213 C1104 283 1065 341 974 357 C1072 389 1117 462 1117 555 C1117 636 1064 700 927 700 L186 700 L61 0 Z M888 322 C998 322 1035 274 1035 214 C1035 134 981 60 843 60 L138 60 L183 322 L888 322 Z M1046 531 C1046 457 996 378 860 378 L194 378 L240 640 L900 640 C1008 640 1046 592 1046 531 L1046 531 Z " />
<glyph glyph-name="C" unicode="C" horiz-adv-x="1137" d="M140 304 C140 474 248 640 552 640 L1110 640 L1121 700 L556 700 C210 700 70 507 70 296 C70 130 172 0 440 0 L996 0 L1006 60 L450 60 C220 60 140 167 140 304 L140 304 Z " />
<glyph glyph-name="D" unicode="D" horiz-adv-x="1205" d="M61 0 L652 0 C998 0 1138 193 1138 404 C1138 569 1036 700 768 700 L186 700 L61 0 Z M758 640 C987 640 1067 532 1067 396 C1067 226 959 60 655 60 L136 60 L239 640 L758 640 Z " />
<glyph glyph-name="E" unicode="E" horiz-adv-x="1151" d="M61 0 L1011 0 L1021 60 L137 60 L183 322 L969 322 L980 378 L194 378 L240 640 L1124 640 L1136 700 L186 700 L61 0 Z " />
<glyph glyph-name="F" unicode="F" horiz-adv-x="1113" d="M61 0 L127 0 L182 317 L968 317 L980 377 L194 377 L240 640 L1124 640 L1136 700 L186 700 L61 0 Z " />
<glyph glyph-name="G" unicode="G" horiz-adv-x="1206" d="M637 322 L1041 322 L995 60 L450 60 C220 60 140 167 140 304 C140 474 248 640 552 640 L1110 640 L1121 700 L556 700 C210 700 70 507 70 296 C70 130 172 0 440 0 L1049 0 L1116 378 L648 378 L637 322 Z " />
<glyph glyph-name="H" unicode="H" horiz-adv-x="1253" d="M1006 0 L1072 0 L1197 700 L1131 700 L1074 380 L194 380 L252 700 L186 700 L61 0 L127 0 L182 320 L1062 320 L1006 0 Z " />
<glyph glyph-name="I" unicode="I" horiz-adv-x="308" d="M61 0 L127 0 L252 700 L186 700 L61 0 Z " />
<glyph glyph-name="J" unicode="J" horiz-adv-x="1162" d="M310 -5 L615 -5 C912 -5 1022 114 1056 307 L1126 700 L1060 700 L992 323 C962 156 868 55 623 55 L324 55 C122 55 72 151 97 273 L106 318 L41 318 L33 275 C2 123 68 -5 310 -5 L310 -5 Z " />
<glyph glyph-name="K" unicode="K" horiz-adv-x="1234" d="M1204 700 L1083 700 L165 215 L251 700 L186 700 L61 0 L126 0 L151 143 L528 342 L1059 0 L1167 0 L590 375 L1204 700 Z " />
<glyph glyph-name="L" unicode="L" horiz-adv-x="1084" d="M252 700 L186 700 L61 0 L992 0 L1001 60 L137 60 L252 700 Z " />
<glyph glyph-name="M" unicode="M" horiz-adv-x="1389" d="M1266 700 L651 121 L244 700 L186 700 L61 0 L126 0 L234 609 L639 32 L1249 609 L1143 0 L1208 0 L1333 700 L1266 700 Z " />
<glyph glyph-name="N" unicode="N" horiz-adv-x="1252" d="M1008 0 L1071 0 L1196 700 L1130 700 L1018 71 L249 700 L186 700 L61 0 L127 0 L237 629 L1008 0 Z " />
<glyph glyph-name="O" unicode="O" horiz-adv-x="1294" d="M729 -10 C1091 -10 1227 189 1227 412 C1227 580 1120 710 849 710 L570 710 C212 710 70 514 70 294 C70 122 177 -10 450 -10 L729 -10 Z M462 50 C224 50 140 159 140 302 C140 479 254 650 569 650 L837 650 C1073 650 1157 542 1157 402 C1157 223 1046 50 730 50 L462 50 Z " />
<glyph glyph-name="P" unicode="P" horiz-adv-x="1148" d="M61 0 L127 0 L176 280 L848 280 C1061 280 1145 391 1145 523 C1145 621 1086 700 923 700 L186 700 L61 0 Z M910 640 C1034 640 1076 584 1076 513 C1076 422 1013 340 855 340 L187 340 L240 640 L910 640 Z " />
<glyph glyph-name="Q" unicode="Q" horiz-adv-x="1294" d="M729 -10 C788 -10 840 -4 888 5 L1102 -110 L1210 -110 L960 24 C1150 91 1227 245 1227 412 C1227 580 1120 710 849 710 L570 710 C212 710 70 514 70 294 C70 122 177 -10 450 -10 L729 -10 Z M462 50 C224 50 140 159 140 302 C140 479 254 650 569 650 L837 650 C1073 650 1157 542 1157 402 C1157 223 1046 50 730 50 L462 50 Z " />
<glyph glyph-name="R" unicode="R" horiz-adv-x="1225" d="M61 0 L126 0 L176 281 L617 281 L1052 0 L1157 0 L715 282 L832 282 C1044 282 1129 392 1129 523 C1129 622 1070 700 907 700 L186 700 L61 0 Z M894 640 C1018 640 1060 584 1060 514 C1060 421 997 339 837 339 L186 339 L240 640 L894 640 Z " />
<glyph glyph-name="S" unicode="S" horiz-adv-x="1159" d="M803 60 L62 60 L51 0 L795 0 C986 0 1064 103 1064 219 C1064 309 1009 378 862 378 L314 378 C207 378 171 425 171 487 C171 568 225 640 361 640 L1102 640 L1113 700 L370 700 C179 700 101 597 101 481 C101 391 156 322 302 322 L851 322 C958 322 994 275 994 213 C994 132 940 60 803 60 L803 60 Z " />
<glyph glyph-name="T" unicode="T" horiz-adv-x="1137" d="M86 640 L589 640 L475 0 L541 0 L655 640 L1158 640 L1169 700 L98 700 L86 640 Z " />
<glyph glyph-name="U" unicode="U" horiz-adv-x="1224" d="M164 323 L233 700 L167 700 L98 323 C63 130 139 -10 438 -10 L676 -10 C973 -10 1084 119 1118 310 L1188 700 L1122 700 L1055 324 C1024 157 930 50 684 50 L447 50 C195 50 136 162 164 323 L164 323 Z " />
<glyph glyph-name="V" unicode="V" horiz-adv-x="1215" d="M584 0 L1268 700 L1181 700 L554 54 L160 700 L78 700 L512 0 L584 0 Z " />
<glyph glyph-name="W" unicode="W" horiz-adv-x="1553" d="M826 619 L1043 0 L1093 0 L1594 700 L1511 700 L1078 82 L863 700 L813 700 L376 82 L165 700 L90 700 L340 0 L390 0 L826 619 Z " />
<glyph glyph-name="X" unicode="X" horiz-adv-x="1178" d="M97 700 L541 351 L-33 0 L78 0 L589 317 L991 0 L1093 0 L643 351 L1213 700 L1102 700 L594 386 L199 700 L97 700 Z " />
<glyph glyph-name="Y" unicode="Y" horiz-adv-x="1194" d="M504 0 L570 0 L607 212 L1257 700 L1154 700 L580 262 L161 700 L69 700 L541 212 L504 0 Z " />
<glyph glyph-name="Z" unicode="Z" horiz-adv-x="1145" d="M16 0 L1022 0 L1032 60 L152 60 L1119 652 L1125 700 L148 700 L136 640 L988 640 L21 48 L16 0 Z " />
<glyph glyph-name="bracketleft" unicode="&#x5b;" horiz-adv-x="465" d="M42 -150 L326 -150 L335 -102 L115 -102 L278 802 L497 802 L505 850 L220 850 L42 -150 Z " />
<glyph glyph-name="backslash" unicode="&#x5c;" horiz-adv-x="512" d="M121 776 L67 776 L396 -75 L450 -75 L121 776 Z " />
<glyph glyph-name="bracketright" unicode="&#x5d;" horiz-adv-x="465" d="M428 850 L144 850 L136 802 L355 802 L193 -102 L-26 -102 L-35 -150 L249 -150 L428 850 Z " />
<glyph glyph-name="asciicircum" unicode="&#x5e;" horiz-adv-x="1246" d="M950 350 L1031 350 L661 800 L589 800 L219 350 L300 350 L625 745 L950 350 Z " />
<glyph glyph-name="underscore" unicode="&#x5f;" horiz-adv-x="500" d="M-60 -136 L440 -136 L440 -83 L-60 -83 L-60 -136 Z " />
<glyph glyph-name="grave" unicode="&#x60;" horiz-adv-x="480" d="M277 806 L200 806 L312 635 L352 635 L277 806 Z " />
<glyph glyph-name="a" unicode="a" horiz-adv-x="1040" d="M895 0 L967 0 L593 560 L527 560 L-46 0 L32 0 L153 119 L815 119 L895 0 Z M554 511 L783 167 L202 167 L554 511 Z " />
<glyph glyph-name="b" unicode="b" horiz-adv-x="1041" d="M51 0 L725 0 C886 0 935 83 935 171 C935 227 906 273 829 286 C914 312 943 379 943 442 C943 509 902 560 786 560 L150 560 L51 0 Z M720 53 L120 53 L156 256 L755 256 C848 256 872 218 872 170 C872 107 836 53 720 53 L720 53 Z M763 507 C852 507 879 472 879 423 C879 365 845 304 732 304 L165 304 L201 507 L763 507 Z " />
<glyph glyph-name="c" unicode="c" horiz-adv-x="975" d="M118 239 C118 375 210 507 459 507 L933 507 L944 560 L462 560 C161 560 54 400 54 232 C54 102 136 0 361 0 L843 0 L852 53 L367 53 C181 53 118 132 118 239 L118 239 Z " />
<glyph glyph-name="d" unicode="d" horiz-adv-x="1038" d="M51 0 L557 0 C858 0 965 160 965 328 C965 458 883 560 658 560 L151 560 L51 0 Z M652 507 C838 507 901 428 901 321 C901 185 809 53 560 53 L121 53 L200 507 L652 507 Z " />
<glyph glyph-name="e" unicode="e" horiz-adv-x="993" d="M51 0 L859 0 L868 53 L120 53 L156 256 L820 256 L829 304 L165 304 L201 507 L949 507 L958 560 L150 560 L51 0 Z " />
<glyph glyph-name="f" unicode="f" horiz-adv-x="976" d="M51 0 L111 0 L155 251 L819 251 L829 303 L165 303 L201 507 L949 507 L958 560 L150 560 L51 0 Z " />
<glyph glyph-name="g" unicode="g" horiz-adv-x="1038" d="M838 53 L367 53 C181 53 118 132 118 239 C118 375 210 507 459 507 L933 507 L942 560 L462 560 C161 560 54 400 54 232 C54 102 136 0 361 0 L888 0 L942 304 L543 304 L533 256 L873 256 L838 53 Z " />
<glyph glyph-name="h" unicode="h" horiz-adv-x="1083" d="M852 0 L912 0 L1011 560 L951 560 L906 307 L166 307 L210 560 L150 560 L51 0 L111 0 L155 253 L896 253 L852 0 Z " />
<glyph glyph-name="i" unicode="i" horiz-adv-x="282" d="M51 0 L111 0 L210 560 L150 560 L51 0 Z " />
<glyph glyph-name="j" unicode="j" horiz-adv-x="1001" d="M257 -4 L532 -4 C778 -4 866 89 894 247 L949 560 L889 560 L835 261 C812 129 747 49 537 49 L262 49 C99 49 63 122 81 218 L88 256 L29 256 L22 220 C-2 98 49 -4 257 -4 L257 -4 Z " />
<glyph glyph-name="k" unicode="k" horiz-adv-x="1065" d="M1022 560 L908 560 L142 178 L210 560 L150 560 L51 0 L111 0 L131 112 L449 272 L893 0 L993 0 L504 299 L1022 560 Z " />
<glyph glyph-name="l" unicode="l" horiz-adv-x="947" d="M210 560 L150 560 L51 0 L843 0 L852 53 L120 53 L210 560 Z " />
<glyph glyph-name="m" unicode="m" horiz-adv-x="1198" d="M1064 560 L553 104 L203 560 L150 560 L51 0 L110 0 L196 479 L543 25 L1053 479 L967 0 L1027 0 L1126 560 L1064 560 Z " />
<glyph glyph-name="n" unicode="n" horiz-adv-x="1082" d="M911 0 L1010 560 L950 560 L861 64 L207 560 L150 560 L51 0 L111 0 L199 497 L854 0 L911 0 Z " />
<glyph glyph-name="o" unicode="o" horiz-adv-x="1110" d="M615 -8 C920 -8 1035 152 1036 326 C1037 461 954 568 719 568 L473 568 C168 568 55 408 54 234 C53 99 134 -8 369 -8 L615 -8 Z M380 45 C183 45 117 130 117 236 C117 379 213 515 469 515 L710 515 C906 515 972 430 972 322 C972 183 878 45 620 45 L380 45 Z " />
<glyph glyph-name="p" unicode="p" horiz-adv-x="1000" d="M51 0 L111 0 L150 221 L721 221 C908 221 968 317 968 418 C968 497 919 560 782 560 L150 560 L51 0 Z M771 507 C872 507 905 465 905 410 C905 341 863 275 729 275 L160 275 L201 507 L771 507 Z " />
<glyph glyph-name="q" unicode="q" horiz-adv-x="1110" d="M615 -8 C664 -8 707 -3 747 4 L924 -88 L1024 -88 L811 20 C971 73 1035 196 1036 326 C1037 461 954 568 719 568 L473 568 C168 568 55 408 54 234 C53 99 134 -8 369 -8 L615 -8 Z M380 45 C183 45 117 130 117 236 C117 379 213 515 469 515 L710 515 C906 515 972 430 972 322 C972 183 878 45 620 45 L380 45 Z " />
<glyph glyph-name="r" unicode="r" horiz-adv-x="1061" d="M51 0 L111 0 L150 222 L525 222 L886 0 L984 0 L615 223 L708 223 C893 223 954 318 954 420 C954 497 906 560 769 560 L151 560 L51 0 Z M756 507 C858 507 890 465 890 411 C890 341 852 274 715 274 L160 274 L201 507 L756 507 Z " />
<glyph glyph-name="s" unicode="s" horiz-adv-x="992" d="M678 53 L48 53 L38 0 L674 0 C843 0 897 88 897 178 C897 249 852 303 729 303 L254 303 C167 303 138 339 138 387 C138 450 176 507 294 507 L924 507 L935 560 L298 560 C129 560 76 472 76 382 C76 311 120 257 243 257 L718 257 C805 257 834 221 834 173 C834 110 796 53 678 53 L678 53 Z " />
<glyph glyph-name="t" unicode="t" horiz-adv-x="1000" d="M75 507 L500 507 L410 0 L470 0 L560 507 L986 507 L995 560 L84 560 L75 507 Z " />
<glyph glyph-name="u" unicode="u" horiz-adv-x="1052" d="M136 257 L191 560 L131 560 L77 258 C49 104 99 -8 357 -8 L581 -8 C827 -8 915 86 943 243 L999 560 L940 560 L885 257 C861 126 797 45 587 45 L364 45 C150 45 115 131 136 257 L136 257 Z " />
<glyph glyph-name="v" unicode="v" horiz-adv-x="1040" d="M494 0 L1066 560 L986 560 L467 49 L127 560 L53 560 L428 0 L494 0 Z " />
<glyph glyph-name="w" unicode="w" horiz-adv-x="1329" d="M692 488 L879 0 L925 0 L1343 560 L1270 560 L912 72 L725 560 L680 560 L319 72 L134 560 L64 560 L285 0 L330 0 L692 488 Z " />
<glyph glyph-name="x" unicode="x" horiz-adv-x="1023" d="M76 560 L455 282 L-27 0 L75 0 L500 249 L838 0 L931 0 L547 282 L1027 560 L924 560 L504 313 L169 560 L76 560 Z " />
<glyph glyph-name="y" unicode="y" horiz-adv-x="1018" d="M419 0 L480 0 L509 170 L1053 560 L961 560 L484 214 L127 560 L43 560 L449 170 L419 0 Z " />
<glyph glyph-name="z" unicode="z" horiz-adv-x="981" d="M9 0 L866 0 L875 53 L135 53 L941 518 L946 560 L114 560 L105 507 L818 507 L13 42 L9 0 Z " />
<glyph glyph-name="braceleft" unicode="&#x7b;" horiz-adv-x="465" d="M187 455 C179 410 156 374 84 374 L58 374 L49 326 L75 326 C147 326 158 291 150 245 L100 -36 C89 -100 115 -150 216 -150 L328 -150 L337 -102 L239 -102 C167 -102 159 -66 168 -21 L215 244 C224 294 206 338 150 349 C213 359 242 400 251 453 L299 721 C307 769 334 802 406 802 L496 802 L505 850 L392 850 C291 850 248 800 237 736 L187 455 Z " />
<glyph glyph-name="bar" unicode="&#x7c;" horiz-adv-x="500" d="M221 850 L221 -150 L279 -150 L279 850 L221 850 Z " />
<glyph glyph-name="braceright" unicode="&#x7d;" horiz-adv-x="465" d="M284 245 C292 290 315 326 387 326 L413 326 L422 374 L396 374 C324 374 312 409 321 455 L370 736 C382 800 356 850 255 850 L143 850 L134 802 L231 802 C304 802 311 766 303 721 L256 456 C247 406 265 362 321 351 C258 341 228 300 219 247 L172 -21 C163 -69 137 -102 65 -102 L-26 -102 L-34 -150 L78 -150 C180 -150 223 -100 234 -36 L284 245 Z " />
<glyph glyph-name="asciitilde" unicode="&#x7e;" horiz-adv-x="1246" d="M969 423 C705 200 560 578 281 365 L281 300 C545 523 691 145 969 358 L969 423 Z " />
<glyph glyph-name="uni00A0" unicode="&#xa0;" horiz-adv-x="480" d="" />
<glyph glyph-name="exclamdown" unicode="&#xa1;" horiz-adv-x="308" d="M260 700 L182 700 L167 620 L246 620 L260 700 Z M226 552 L170 552 L62 0 L129 0 L226 552 Z " />
<glyph glyph-name="cent" unicode="&#xa2;" horiz-adv-x="1246" d="M1082 181 L618 181 L745 519 L1144 519 L1155 574 L769 574 L824 720 L763 720 L708 574 L448 574 C222 574 130 449 130 316 C130 212 200 126 368 126 L536 126 L479 -20 L540 -20 L597 126 L1072 126 L1082 181 Z M196 323 C196 425 269 519 446 519 L684 519 L557 181 L379 181 C246 181 196 241 196 323 L196 323 Z " />
<glyph glyph-name="sterling" unicode="&#xa3;" horiz-adv-x="1246" d="M729 378 L329 378 L342 449 C360 553 412 640 583 640 L1064 640 L1075 700 L586 700 C377 700 301 591 277 455 L263 378 L128 378 L117 322 L253 322 L220 136 C212 90 186 58 136 58 L71 58 L61 0 L1065 0 L1075 60 L226 60 C257 72 281 104 287 141 L319 322 L718 322 L729 378 Z " />
<glyph glyph-name="currency" unicode="&#xa4;" horiz-adv-x="1246" d="M694 87 C792 87 868 106 924 144 L1041 -11 L1094 30 L971 177 C1032 232 1065 310 1065 396 C1065 439 1052 485 1031 514 L1210 664 L1166 711 L995 553 C951 590 886 613 789 613 L554 613 C457 613 380 593 323 556 L206 712 L154 669 L277 521 C212 460 183 382 182 304 C182 261 196 214 216 186 L38 33 L79 -13 L252 147 C295 111 362 87 459 87 L694 87 Z M251 313 C251 432 322 555 544 555 L779 555 C941 555 998 483 998 387 C998 268 927 145 705 145 L470 145 C309 145 251 217 251 313 L251 313 Z " />
<glyph glyph-name="yen" unicode="&#xa5;" horiz-adv-x="1246" d="M1123 700 L615 315 L244 700 L153 700 L455 395 L116 395 L106 343 L500 343 L576 264 L567 210 L83 210 L72 158 L557 158 L530 0 L596 0 L623 158 L1108 158 L1118 210 L633 210 L642 264 L748 343 L1141 343 L1152 395 L813 395 L1223 700 L1123 700 Z " />
<glyph glyph-name="brokenbar" unicode="&#xa6;" horiz-adv-x="500" d="M279 467 L279 850 L221 850 L221 467 L279 467 Z M221 233 L221 -150 L279 -150 L279 233 L221 233 Z " />
<glyph glyph-name="section" unicode="&#xa7;" horiz-adv-x="1177" d="M220 151 L772 151 C846 151 877 115 877 72 C877 12 839 -45 731 -45 L152 -45 L140 -100 L743 -100 C882 -100 938 -22 938 62 C938 100 921 135 889 153 L907 153 C1046 153 1102 236 1102 324 C1102 393 1056 449 944 449 L392 449 C318 449 287 485 287 528 C287 588 325 645 433 645 L1012 645 L1024 700 L421 700 C282 700 226 622 226 538 C226 500 243 465 275 447 L257 447 C118 447 62 364 62 276 C62 207 108 151 220 151 L220 151 Z M930 398 C1012 398 1040 362 1040 317 C1040 256 1000 202 892 202 L234 202 C152 202 124 238 124 283 C124 344 164 398 272 398 L930 398 Z " />
<glyph glyph-name="dieresis" unicode="&#xa8;" horiz-adv-x="480" d="M387 683 L460 683 L473 757 L400 757 L387 683 Z M140 683 L213 683 L226 757 L153 757 L140 683 Z " />
<glyph glyph-name="copyright" unicode="&#xa9;" horiz-adv-x="1160" d="M660 -10 C973 -10 1096 151 1096 350 C1096 549 973 710 660 710 L504 710 C191 710 68 549 68 350 C68 151 191 -10 504 -10 L660 -10 Z M505 36 C225 36 121 176 121 350 C121 524 225 664 505 664 L659 664 C939 664 1043 524 1043 350 C1043 176 939 36 659 36 L505 36 Z M792 215 L513 215 C389 215 347 275 347 350 C347 424 389 485 513 485 L792 485 L792 525 L512 525 C359 525 300 446 300 350 C300 253 359 175 512 175 L792 175 L792 215 Z " />
<glyph glyph-name="ordfeminine" unicode="&#xaa;" horiz-adv-x="733" d="M607 350 L670 350 L459 700 L405 700 L68 350 L133 350 L193 415 L568 415 L607 350 Z M422 655 L542 459 L235 459 L422 655 Z " />
<glyph glyph-name="guillemotleft" unicode="&#xab;" horiz-adv-x="733" d="M335 560 L87 281 L238 0 L306 0 L158 276 L409 560 L335 560 Z M605 560 L357 281 L508 0 L576 0 L428 276 L679 560 L605 560 Z " />
<glyph glyph-name="logicalnot" unicode="&#xac;" horiz-adv-x="1246" d="M281 320 L903 320 L903 40 L969 40 L969 380 L281 380 L281 320 Z " />
<glyph glyph-name="uni00AD" unicode="&#xad;" horiz-adv-x="576" d="M76 253 L468 253 L479 307 L87 307 L76 253 Z " />
<glyph glyph-name="registered" unicode="&#xae;" horiz-adv-x="1160" d="M660 -10 C973 -10 1096 151 1096 350 C1096 549 973 710 660 710 L504 710 C191 710 68 549 68 350 C68 151 191 -10 504 -10 L660 -10 Z M505 36 C225 36 121 176 121 350 C121 524 225 664 505 664 L659 664 C939 664 1042 524 1042 350 C1042 176 939 36 659 36 L505 36 Z M335 175 L379 175 L379 311 L600 311 L817 175 L885 175 L667 311 L695 311 C788 311 826 357 826 418 C826 477 789 525 695 525 L335 525 L335 175 Z M691 485 C758 485 778 455 778 417 C778 378 758 349 691 349 L379 349 L379 485 L691 485 Z " />
<glyph glyph-name="macron" unicode="&#xaf;" horiz-adv-x="480" d="M120 698 L486 698 L494 742 L128 742 L120 698 Z " />
<glyph glyph-name="degree" unicode="&#xb0;" horiz-adv-x="544" d="M103 510 C103 395 193 310 304 310 C414 310 504 395 504 510 C504 625 414 710 304 710 C193 710 103 625 103 510 L103 510 Z M157 510 C157 597 220 661 304 661 C387 661 450 597 450 510 C450 423 387 359 304 359 C220 359 157 423 157 510 L157 510 Z " />
<glyph glyph-name="plusminus" unicode="&#xb1;" horiz-adv-x="1246" d="M281 400 L592 400 L592 160 L658 160 L658 400 L969 400 L969 460 L658 460 L658 700 L592 700 L592 460 L281 460 L281 400 Z M281 0 L969 0 L969 60 L281 60 L281 0 Z " />
<glyph glyph-name="twosuperior" unicode="&#xb2;" horiz-adv-x="718" d="M624 397 L157 397 L167 451 C172 479 196 505 251 505 L538 505 C640 505 676 556 676 617 C676 663 647 700 572 700 L182 700 L173 653 L563 653 C610 653 623 634 623 608 C623 575 599 545 540 545 L256 545 C168 545 128 503 117 448 L101 350 L616 350 L624 397 Z " />
<glyph glyph-name="threesuperior" unicode="&#xb3;" horiz-adv-x="718" d="M86 350 L511 350 C604 350 641 401 641 457 C641 492 622 520 579 529 C626 545 646 585 646 625 C646 668 619 700 552 700 L159 700 L151 653 L531 653 C579 653 592 634 592 607 C592 575 568 545 508 545 L172 545 L165 505 L527 505 C572 505 588 486 588 460 C588 428 564 397 504 397 L95 397 L86 350 Z " />
<glyph glyph-name="acute" unicode="&#xb4;" horiz-adv-x="480" d="M229 635 L275 635 L450 806 L366 806 L229 635 Z " />
<glyph glyph-name="uni00B5" unicode="&#xb5;" horiz-adv-x="1246" d="M1008 0 L1056 0 L1155 560 L1089 560 L1054 357 C1025 192 911 60 645 60 L315 60 C191 60 156 115 170 191 L236 560 L170 560 L33 -200 L99 -200 L151 88 C168 18 233 0 318 0 L644 0 C858 0 969 82 1029 194 L1008 0 Z " />
<glyph glyph-name="paragraph" unicode="&#xb6;" horiz-adv-x="1151" d="M593 640 L895 640 L895 -100 L961 -100 L961 640 L1057 640 L1057 700 L320 700 C135 700 64 605 64 490 C64 372 135 280 320 280 L527 280 L527 -100 L593 -100 L593 640 Z " />
<glyph glyph-name="periodcentered" unicode="&#xb7;" horiz-adv-x="270" d="M92 310 L171 310 L185 390 L106 390 L92 310 Z " />
<glyph glyph-name="cedilla" unicode="&#xb8;" horiz-adv-x="480" d="M119 -100 L139 -100 C199 -100 231 -112 231 -150 C231 -202 176 -218 124 -218 C88 -218 52 -209 36 -199 L30 -230 C54 -243 93 -254 133 -254 C206 -254 281 -228 281 -145 C281 -82 217 -64 161 -69 L193 0 L164 0 L119 -100 Z " />
<glyph glyph-name="onesuperior" unicode="&#xb9;" horiz-adv-x="718" d="M286 653 L417 653 L372 397 L168 397 L160 350 L561 350 L569 397 L423 397 L477 700 L294 700 L286 653 Z " />
<glyph glyph-name="ordmasculine" unicode="&#xba;" horiz-adv-x="732" d="M438 345 C619 345 691 444 691 555 C691 636 637 705 501 705 L363 705 C182 705 110 605 110 495 C110 413 164 345 300 345 L438 345 Z M308 392 C201 392 163 440 163 502 C163 582 216 658 359 658 L492 658 C598 658 638 609 638 548 C638 467 584 392 441 392 L308 392 Z " />
<glyph glyph-name="guillemotright" unicode="&#xbb;" horiz-adv-x="733" d="M109 0 L357 279 L206 560 L138 560 L286 284 L34 0 L109 0 Z M379 0 L627 279 L476 560 L408 560 L556 284 L304 0 L379 0 Z " />
<glyph glyph-name="onequarter" unicode="&#xbc;" horiz-adv-x="1436" d="M286 653 L417 653 L372 397 L168 397 L160 350 L561 350 L569 397 L423 397 L477 700 L294 700 L286 653 Z M1159 700 L206 0 L282 0 L1235 700 L1159 700 Z M1260 350 L761 100 L753 61 L1206 61 L1196 0 L1247 0 L1257 61 L1310 61 L1319 108 L1265 108 L1309 350 L1260 350 Z M866 108 L1248 298 L1214 108 L866 108 Z " />
<glyph glyph-name="onehalf" unicode="&#xbd;" horiz-adv-x="1436" d="M286 653 L417 653 L372 397 L168 397 L160 350 L561 350 L569 397 L423 397 L477 700 L294 700 L286 653 Z M1159 700 L206 0 L282 0 L1235 700 L1159 700 Z M1280 47 L813 47 L823 101 C828 129 852 155 907 155 L1194 155 C1296 155 1332 206 1332 267 C1332 313 1303 350 1228 350 L838 350 L829 303 L1219 303 C1266 303 1279 284 1279 258 C1279 225 1255 195 1196 195 L912 195 C824 195 784 153 773 98 L757 0 L1272 0 L1280 47 Z " />
<glyph glyph-name="threequarters" unicode="&#xbe;" horiz-adv-x="1436" d="M86 350 L511 350 C604 350 641 401 641 457 C641 492 622 520 579 529 C626 545 646 585 646 625 C646 668 619 700 552 700 L159 700 L151 653 L531 653 C579 653 592 634 592 607 C592 575 568 545 508 545 L172 545 L165 505 L527 505 C572 505 588 486 588 460 C588 428 564 397 504 397 L95 397 L86 350 Z M1159 700 L206 0 L282 0 L1235 700 L1159 700 Z M1260 350 L761 100 L753 61 L1206 61 L1196 0 L1247 0 L1257 61 L1310 61 L1319 108 L1265 108 L1309 350 L1260 350 Z M866 108 L1248 298 L1214 108 L866 108 Z " />
<glyph glyph-name="questiondown" unicode="&#xbf;" horiz-adv-x="1027" d="M742 552 L680 552 L650 377 L274 377 C81 377 6 273 6 158 C6 69 59 0 208 0 L935 0 L946 60 L220 60 C112 60 76 108 76 169 C76 251 130 323 269 323 L701 323 L742 552 Z M777 700 L697 700 L684 620 L763 620 L777 700 Z " />
<glyph glyph-name="Agrave" unicode="&#xc0;" horiz-adv-x="1215" d="M1065 0 L1143 0 L708 700 L637 700 L-47 0 L38 0 L178 144 L975 144 L1065 0 Z M665 645 L941 200 L232 200 L665 645 Z M669 946 L592 946 L704 775 L744 775 L669 946 Z " />
<glyph glyph-name="Aacute" unicode="&#xc1;" horiz-adv-x="1215" d="M1065 0 L1143 0 L708 700 L637 700 L-47 0 L38 0 L178 144 L975 144 L1065 0 Z M665 645 L941 200 L232 200 L665 645 Z M621 775 L667 775 L842 946 L758 946 L621 775 Z " />
<glyph glyph-name="Acircumflex" unicode="&#xc2;" horiz-adv-x="1215" d="M1065 0 L1143 0 L708 700 L637 700 L-47 0 L38 0 L178 144 L975 144 L1065 0 Z M665 645 L941 200 L232 200 L665 645 Z M522 775 L567 775 L709 909 L803 775 L844 775 L755 946 L674 946 L522 775 Z " />
<glyph glyph-name="Atilde" unicode="&#xc3;" horiz-adv-x="1215" d="M1065 0 L1143 0 L708 700 L637 700 L-47 0 L38 0 L178 144 L975 144 L1065 0 Z M665 645 L941 200 L232 200 L665 645 Z M840 927 C821 862 799 852 772 852 C725 852 697 919 634 919 C587 919 549 892 523 794 L557 794 C575 858 599 870 627 870 C673 870 700 803 762 803 C810 803 848 829 874 927 L840 927 Z " />
<glyph glyph-name="Adieresis" unicode="&#xc4;" horiz-adv-x="1215" d="M1065 0 L1143 0 L708 700 L637 700 L-47 0 L38 0 L178 144 L975 144 L1065 0 Z M665 645 L941 200 L232 200 L665 645 Z M779 823 L852 823 L865 897 L792 897 L779 823 Z M532 823 L605 823 L618 897 L545 897 L532 823 Z " />
<glyph glyph-name="Aring" unicode="&#xc5;" horiz-adv-x="1215" d="M1065 0 L1143 0 L708 700 L637 700 L-47 0 L38 0 L178 144 L975 144 L1065 0 Z M665 645 L941 200 L232 200 L665 645 Z M626 855 C626 897 664 932 706 932 C743 932 769 903 769 867 C769 824 732 789 691 789 C653 789 626 818 626 855 L626 855 Z M585 851 C585 795 626 752 686 752 C754 752 811 806 811 871 C811 926 769 969 709 969 C641 969 585 917 585 851 L585 851 Z " />
<glyph glyph-name="AE" unicode="&#xc6;" horiz-adv-x="1632" d="M668 143 L644 0 L1493 0 L1503 60 L720 60 L766 322 L1451 322 L1462 378 L777 378 L823 640 L1606 640 L1618 700 L733 700 L-47 0 L38 0 L196 143 L668 143 Z M762 653 L758 649 L680 199 L258 199 L762 653 Z " />
<glyph glyph-name="Ccedilla" unicode="&#xc7;" horiz-adv-x="1137" d="M494 -100 L514 -100 C574 -100 606 -112 606 -150 C606 -202 551 -218 499 -218 C463 -218 427 -209 411 -199 L405 -230 C429 -243 468 -254 508 -254 C581 -254 656 -228 656 -145 C656 -82 592 -64 536 -69 L568 0 L996 0 L1006 60 L450 60 C220 60 140 167 140 304 C140 474 248 640 552 640 L1110 640 L1121 700 L556 700 C210 700 70 507 70 296 C70 130 172 0 440 0 L539 0 L494 -100 Z " />
<glyph glyph-name="Egrave" unicode="&#xc8;" horiz-adv-x="1151" d="M61 0 L1011 0 L1021 60 L137 60 L183 322 L969 322 L980 378 L194 378 L240 640 L1124 640 L1136 700 L186 700 L61 0 Z M647 946 L570 946 L682 775 L722 775 L647 946 Z " />
<glyph glyph-name="Eacute" unicode="&#xc9;" horiz-adv-x="1151" d="M61 0 L1011 0 L1021 60 L137 60 L183 322 L969 322 L980 378 L194 378 L240 640 L1124 640 L1136 700 L186 700 L61 0 Z M599 775 L645 775 L820 946 L736 946 L599 775 Z " />
<glyph glyph-name="Ecircumflex" unicode="&#xca;" horiz-adv-x="1151" d="M61 0 L1011 0 L1021 60 L137 60 L183 322 L969 322 L980 378 L194 378 L240 640 L1124 640 L1136 700 L186 700 L61 0 Z M500 775 L545 775 L687 909 L781 775 L822 775 L733 946 L652 946 L500 775 Z " />
<glyph glyph-name="Edieresis" unicode="&#xcb;" horiz-adv-x="1151" d="M61 0 L1011 0 L1021 60 L137 60 L183 322 L969 322 L980 378 L194 378 L240 640 L1124 640 L1136 700 L186 700 L61 0 Z M757 823 L830 823 L843 897 L770 897 L757 823 Z M510 823 L583 823 L596 897 L523 897 L510 823 Z " />
<glyph glyph-name="Igrave" unicode="&#xcc;" horiz-adv-x="308" d="M61 0 L127 0 L252 700 L186 700 L61 0 Z M215 946 L138 946 L250 775 L290 775 L215 946 Z " />
<glyph glyph-name="Iacute" unicode="&#xcd;" horiz-adv-x="308" d="M61 0 L127 0 L252 700 L186 700 L61 0 Z M167 775 L213 775 L388 946 L304 946 L167 775 Z " />
<glyph glyph-name="Icircumflex" unicode="&#xce;" horiz-adv-x="308" d="M61 0 L127 0 L252 700 L186 700 L61 0 Z M68 775 L113 775 L255 909 L349 775 L390 775 L301 946 L220 946 L68 775 Z " />
<glyph glyph-name="Idieresis" unicode="&#xcf;" horiz-adv-x="308" d="M61 0 L127 0 L252 700 L186 700 L61 0 Z M324 823 L397 823 L410 897 L337 897 L324 823 Z M77 823 L150 823 L163 897 L90 897 L77 823 Z " />
<glyph glyph-name="Eth" unicode="&#xd0;" horiz-adv-x="1205" d="M-8 322 L118 322 L61 0 L652 0 C998 0 1138 193 1138 404 C1138 569 1036 700 768 700 L186 700 L128 378 L3 378 L-8 322 Z M758 640 C987 640 1067 532 1067 396 C1067 226 959 60 655 60 L136 60 L182 322 L606 322 L617 378 L192 378 L239 640 L758 640 Z " />
<glyph glyph-name="Ntilde" unicode="&#xd1;" horiz-adv-x="1252" d="M1008 0 L1071 0 L1196 700 L1130 700 L1018 71 L249 700 L186 700 L61 0 L127 0 L237 629 L1008 0 Z M858 927 C839 862 817 852 790 852 C743 852 715 919 652 919 C605 919 567 892 541 794 L575 794 C593 858 617 870 645 870 C691 870 718 803 780 803 C828 803 866 829 892 927 L858 927 Z " />
<glyph glyph-name="Ograve" unicode="&#xd2;" horiz-adv-x="1294" d="M729 -10 C1091 -10 1227 189 1227 412 C1227 580 1120 710 849 710 L570 710 C212 710 70 514 70 294 C70 122 177 -10 450 -10 L729 -10 Z M462 50 C224 50 140 159 140 302 C140 479 254 650 569 650 L837 650 C1073 650 1157 542 1157 402 C1157 223 1046 50 730 50 L462 50 Z M708 946 L631 946 L743 775 L783 775 L708 946 Z " />
<glyph glyph-name="Oacute" unicode="&#xd3;" horiz-adv-x="1294" d="M729 -10 C1091 -10 1227 189 1227 412 C1227 580 1120 710 849 710 L570 710 C212 710 70 514 70 294 C70 122 177 -10 450 -10 L729 -10 Z M462 50 C224 50 140 159 140 302 C140 479 254 650 569 650 L837 650 C1073 650 1157 542 1157 402 C1157 223 1046 50 730 50 L462 50 Z M660 775 L706 775 L881 946 L797 946 L660 775 Z " />
<glyph glyph-name="Ocircumflex" unicode="&#xd4;" horiz-adv-x="1294" d="M729 -10 C1091 -10 1227 189 1227 412 C1227 580 1120 710 849 710 L570 710 C212 710 70 514 70 294 C70 122 177 -10 450 -10 L729 -10 Z M462 50 C224 50 140 159 140 302 C140 479 254 650 569 650 L837 650 C1073 650 1157 542 1157 402 C1157 223 1046 50 730 50 L462 50 Z M561 775 L606 775 L748 909 L842 775 L883 775 L794 946 L713 946 L561 775 Z " />
<glyph glyph-name="Otilde" unicode="&#xd5;" horiz-adv-x="1294" d="M729 -10 C1091 -10 1227 189 1227 412 C1227 580 1120 710 849 710 L570 710 C212 710 70 514 70 294 C70 122 177 -10 450 -10 L729 -10 Z M462 50 C224 50 140 159 140 302 C140 479 254 650 569 650 L837 650 C1073 650 1157 542 1157 402 C1157 223 1046 50 730 50 L462 50 Z M879 927 C860 862 838 852 811 852 C764 852 736 919 673 919 C626 919 588 892 562 794 L596 794 C614 858 638 870 666 870 C712 870 739 803 801 803 C849 803 887 829 913 927 L879 927 Z " />
<glyph glyph-name="Odieresis" unicode="&#xd6;" horiz-adv-x="1294" d="M729 -10 C1091 -10 1227 189 1227 412 C1227 580 1120 710 849 710 L570 710 C212 710 70 514 70 294 C70 122 177 -10 450 -10 L729 -10 Z M462 50 C224 50 140 159 140 302 C140 479 254 650 569 650 L837 650 C1073 650 1157 542 1157 402 C1157 223 1046 50 730 50 L462 50 Z M818 823 L891 823 L904 897 L831 897 L818 823 Z M571 823 L644 823 L657 897 L584 897 L571 823 Z " />
<glyph glyph-name="multiply" unicode="&#xd7;" horiz-adv-x="1246" d="M916 593 L872 638 L623 390 L379 635 L334 590 L580 349 L334 107 L379 62 L624 308 L872 62 L916 107 L667 349 L916 593 Z " />
<glyph glyph-name="Oslash" unicode="&#xd8;" horiz-adv-x="1294" d="M729 -10 C1091 -10 1227 189 1227 412 C1227 540 1164 646 1013 689 L1119 800 L1041 800 L948 703 C918 707 885 710 849 710 L570 710 C212 710 70 514 70 294 C70 162 133 54 285 10 L179 -100 L257 -100 L349 -3 C380 -7 413 -10 450 -10 L729 -10 Z M140 302 C140 479 254 650 569 650 L837 650 C857 650 877 649 895 647 L335 63 C193 96 140 188 140 302 L140 302 Z M462 50 C441 50 421 51 402 52 L963 637 C1104 604 1157 513 1157 402 C1157 223 1046 50 730 50 L462 50 Z " />
<glyph glyph-name="Ugrave" unicode="&#xd9;" horiz-adv-x="1224" d="M164 323 L233 700 L167 700 L98 323 C63 130 139 -10 438 -10 L676 -10 C973 -10 1084 119 1118 310 L1188 700 L1122 700 L1055 324 C1024 157 930 50 684 50 L447 50 C195 50 136 162 164 323 L164 323 Z M673 946 L596 946 L708 775 L748 775 L673 946 Z " />
<glyph glyph-name="Uacute" unicode="&#xda;" horiz-adv-x="1224" d="M164 323 L233 700 L167 700 L98 323 C63 130 139 -10 438 -10 L676 -10 C973 -10 1084 119 1118 310 L1188 700 L1122 700 L1055 324 C1024 157 930 50 684 50 L447 50 C195 50 136 162 164 323 L164 323 Z M625 775 L671 775 L846 946 L762 946 L625 775 Z " />
<glyph glyph-name="Ucircumflex" unicode="&#xdb;" horiz-adv-x="1224" d="M164 323 L233 700 L167 700 L98 323 C63 130 139 -10 438 -10 L676 -10 C973 -10 1084 119 1118 310 L1188 700 L1122 700 L1055 324 C1024 157 930 50 684 50 L447 50 C195 50 136 162 164 323 L164 323 Z M526 775 L571 775 L713 909 L807 775 L848 775 L759 946 L678 946 L526 775 Z " />
<glyph glyph-name="Udieresis" unicode="&#xdc;" horiz-adv-x="1224" d="M164 323 L233 700 L167 700 L98 323 C63 130 139 -10 438 -10 L676 -10 C973 -10 1084 119 1118 310 L1188 700 L1122 700 L1055 324 C1024 157 930 50 684 50 L447 50 C195 50 136 162 164 323 L164 323 Z M783 823 L856 823 L869 897 L796 897 L783 823 Z M536 823 L609 823 L622 897 L549 897 L536 823 Z " />
<glyph glyph-name="Yacute" unicode="&#xdd;" horiz-adv-x="1194" d="M504 0 L570 0 L607 212 L1257 700 L1154 700 L580 262 L161 700 L69 700 L541 212 L504 0 Z M610 775 L656 775 L831 946 L747 946 L610 775 Z " />
<glyph glyph-name="Thorn" unicode="&#xde;" horiz-adv-x="1147" d="M61 0 L127 0 L152 140 L823 140 C1037 140 1121 251 1121 383 C1121 481 1062 560 899 560 L228 560 L252 700 L186 700 L61 0 Z M886 500 C1010 500 1052 444 1052 373 C1052 282 989 200 831 200 L163 200 L215 500 L886 500 Z " />
<glyph glyph-name="germandbls" unicode="&#xdf;" horiz-adv-x="1045" d="M763 257 C851 257 879 221 879 173 C879 110 842 53 724 53 L288 53 L279 0 L720 0 C889 0 942 88 942 178 C942 249 898 303 775 303 L567 303 L945 518 L949 560 L467 560 C209 560 112 450 85 296 L32 0 L92 0 L145 296 C166 420 246 507 461 507 L830 507 L470 299 L463 257 L763 257 Z " />
<glyph glyph-name="agrave" unicode="&#xe0;" horiz-adv-x="1040" d="M895 0 L967 0 L593 560 L527 560 L-46 0 L32 0 L153 119 L815 119 L895 0 Z M554 511 L783 167 L202 167 L554 511 Z M557 806 L480 806 L592 635 L632 635 L557 806 Z " />
<glyph glyph-name="aacute" unicode="&#xe1;" horiz-adv-x="1040" d="M895 0 L967 0 L593 560 L527 560 L-46 0 L32 0 L153 119 L815 119 L895 0 Z M554 511 L783 167 L202 167 L554 511 Z M509 635 L555 635 L730 806 L646 806 L509 635 Z " />
<glyph glyph-name="acircumflex" unicode="&#xe2;" horiz-adv-x="1040" d="M895 0 L967 0 L593 560 L527 560 L-46 0 L32 0 L153 119 L815 119 L895 0 Z M554 511 L783 167 L202 167 L554 511 Z M410 635 L455 635 L597 769 L691 635 L732 635 L643 806 L562 806 L410 635 Z " />
<glyph glyph-name="atilde" unicode="&#xe3;" horiz-adv-x="1040" d="M895 0 L967 0 L593 560 L527 560 L-46 0 L32 0 L153 119 L815 119 L895 0 Z M554 511 L783 167 L202 167 L554 511 Z M727 787 C708 722 686 712 659 712 C612 712 584 779 521 779 C474 779 436 752 410 654 L444 654 C462 718 486 730 514 730 C560 730 587 663 649 663 C697 663 735 689 761 787 L727 787 Z " />
<glyph glyph-name="adieresis" unicode="&#xe4;" horiz-adv-x="1040" d="M895 0 L967 0 L593 560 L527 560 L-46 0 L32 0 L153 119 L815 119 L895 0 Z M554 511 L783 167 L202 167 L554 511 Z M667 683 L740 683 L753 757 L680 757 L667 683 Z M420 683 L493 683 L506 757 L433 757 L420 683 Z " />
<glyph glyph-name="aring" unicode="&#xe5;" horiz-adv-x="1040" d="M895 0 L967 0 L593 560 L527 560 L-46 0 L32 0 L153 119 L815 119 L895 0 Z M554 511 L783 167 L202 167 L554 511 Z M514 715 C514 757 552 792 594 792 C631 792 657 763 657 727 C657 684 620 649 579 649 C541 649 514 678 514 715 L514 715 Z M473 711 C473 655 514 612 574 612 C642 612 699 666 699 731 C699 786 657 829 597 829 C529 829 473 777 473 711 L473 711 Z " />
<glyph glyph-name="ae" unicode="&#xe6;" horiz-adv-x="1397" d="M561 113 L542 0 L1265 0 L1273 53 L611 53 L646 256 L1225 256 L1235 304 L656 304 L692 507 L1355 507 L1364 560 L608 560 L-46 0 L32 0 L164 113 L561 113 Z M221 161 L633 512 L570 161 L221 161 Z " />
<glyph glyph-name="ccedilla" unicode="&#xe7;" horiz-adv-x="975" d="M405 -100 L425 -100 C485 -100 517 -112 517 -150 C517 -202 462 -218 410 -218 C374 -218 338 -209 322 -199 L316 -230 C340 -243 379 -254 419 -254 C492 -254 567 -228 567 -145 C567 -82 503 -64 447 -69 L479 0 L843 0 L852 53 L367 53 C181 53 118 132 118 239 C118 375 210 507 459 507 L933 507 L944 560 L462 560 C161 560 54 400 54 232 C54 102 136 0 361 0 L450 0 L405 -100 Z " />
<glyph glyph-name="egrave" unicode="&#xe8;" horiz-adv-x="993" d="M51 0 L859 0 L868 53 L120 53 L156 256 L820 256 L829 304 L165 304 L201 507 L949 507 L958 560 L150 560 L51 0 Z M545 806 L468 806 L580 635 L620 635 L545 806 Z " />
<glyph glyph-name="eacute" unicode="&#xe9;" horiz-adv-x="993" d="M51 0 L859 0 L868 53 L120 53 L156 256 L820 256 L829 304 L165 304 L201 507 L949 507 L958 560 L150 560 L51 0 Z M497 635 L543 635 L718 806 L634 806 L497 635 Z " />
<glyph glyph-name="ecircumflex" unicode="&#xea;" horiz-adv-x="993" d="M51 0 L859 0 L868 53 L120 53 L156 256 L820 256 L829 304 L165 304 L201 507 L949 507 L958 560 L150 560 L51 0 Z M398 635 L443 635 L585 769 L679 635 L720 635 L631 806 L550 806 L398 635 Z " />
<glyph glyph-name="edieresis" unicode="&#xeb;" horiz-adv-x="993" d="M51 0 L859 0 L868 53 L120 53 L156 256 L820 256 L829 304 L165 304 L201 507 L949 507 L958 560 L150 560 L51 0 Z M655 683 L728 683 L741 757 L668 757 L655 683 Z M408 683 L481 683 L494 757 L421 757 L408 683 Z " />
<glyph glyph-name="igrave" unicode="&#xec;" horiz-adv-x="282" d="M178 806 L101 806 L213 635 L253 635 L178 806 Z M51 0 L111 0 L210 560 L150 560 L51 0 Z " />
<glyph glyph-name="iacute" unicode="&#xed;" horiz-adv-x="282" d="M130 635 L176 635 L351 806 L267 806 L130 635 Z M51 0 L111 0 L210 560 L150 560 L51 0 Z " />
<glyph glyph-name="icircumflex" unicode="&#xee;" horiz-adv-x="282" d="M51 0 L111 0 L210 560 L150 560 L51 0 Z M31 635 L76 635 L218 769 L312 635 L353 635 L264 806 L183 806 L31 635 Z " />
<glyph glyph-name="idieresis" unicode="&#xef;" horiz-adv-x="282" d="M288 683 L361 683 L374 757 L301 757 L288 683 Z M41 683 L114 683 L127 757 L54 757 L41 683 Z M51 0 L111 0 L210 560 L150 560 L51 0 Z " />
<glyph glyph-name="eth" unicode="&#xf0;" horiz-adv-x="1038" d="M-20 256 L96 256 L51 0 L557 0 C858 0 965 160 965 328 C965 458 883 560 658 560 L151 560 L105 304 L-10 304 L-20 256 Z M652 507 C838 507 901 428 901 321 C901 185 809 53 560 53 L121 53 L156 256 L524 256 L534 304 L165 304 L200 507 L652 507 Z " />
<glyph glyph-name="ntilde" unicode="&#xf1;" horiz-adv-x="1082" d="M911 0 L1010 560 L950 560 L861 64 L207 560 L150 560 L51 0 L111 0 L199 497 L854 0 L911 0 Z M748 787 C729 722 707 712 680 712 C633 712 605 779 542 779 C495 779 457 752 431 654 L465 654 C483 718 507 730 535 730 C581 730 608 663 670 663 C718 663 756 689 782 787 L748 787 Z " />
<glyph glyph-name="ograve" unicode="&#xf2;" horiz-adv-x="1110" d="M615 -8 C920 -8 1035 152 1036 326 C1037 461 954 568 719 568 L473 568 C168 568 55 408 54 234 C53 99 134 -8 369 -8 L615 -8 Z M380 45 C183 45 117 130 117 236 C117 379 213 515 469 515 L710 515 C906 515 972 430 972 322 C972 183 878 45 620 45 L380 45 Z M592 806 L515 806 L627 635 L667 635 L592 806 Z " />
<glyph glyph-name="oacute" unicode="&#xf3;" horiz-adv-x="1110" d="M615 -8 C920 -8 1035 152 1036 326 C1037 461 954 568 719 568 L473 568 C168 568 55 408 54 234 C53 99 134 -8 369 -8 L615 -8 Z M380 45 C183 45 117 130 117 236 C117 379 213 515 469 515 L710 515 C906 515 972 430 972 322 C972 183 878 45 620 45 L380 45 Z M544 635 L590 635 L765 806 L681 806 L544 635 Z " />
<glyph glyph-name="ocircumflex" unicode="&#xf4;" horiz-adv-x="1110" d="M615 -8 C920 -8 1035 152 1036 326 C1037 461 954 568 719 568 L473 568 C168 568 55 408 54 234 C53 99 134 -8 369 -8 L615 -8 Z M380 45 C183 45 117 130 117 236 C117 379 213 515 469 515 L710 515 C906 515 972 430 972 322 C972 183 878 45 620 45 L380 45 Z M445 635 L490 635 L632 769 L726 635 L767 635 L678 806 L597 806 L445 635 Z " />
<glyph glyph-name="otilde" unicode="&#xf5;" horiz-adv-x="1110" d="M615 -8 C920 -8 1035 152 1036 326 C1037 461 954 568 719 568 L473 568 C168 568 55 408 54 234 C53 99 134 -8 369 -8 L615 -8 Z M380 45 C183 45 117 130 117 236 C117 379 213 515 469 515 L710 515 C906 515 972 430 972 322 C972 183 878 45 620 45 L380 45 Z M762 787 C743 722 721 712 694 712 C647 712 619 779 556 779 C509 779 471 752 445 654 L479 654 C497 718 521 730 549 730 C595 730 622 663 684 663 C732 663 770 689 796 787 L762 787 Z " />
<glyph glyph-name="odieresis" unicode="&#xf6;" horiz-adv-x="1110" d="M615 -8 C920 -8 1035 152 1036 326 C1037 461 954 568 719 568 L473 568 C168 568 55 408 54 234 C53 99 134 -8 369 -8 L615 -8 Z M380 45 C183 45 117 130 117 236 C117 379 213 515 469 515 L710 515 C906 515 972 430 972 322 C972 183 878 45 620 45 L380 45 Z M701 683 L774 683 L787 757 L714 757 L701 683 Z M454 683 L527 683 L540 757 L467 757 L454 683 Z " />
<glyph glyph-name="divide" unicode="&#xf7;" horiz-adv-x="1246" d="M281 320 L969 320 L969 380 L281 380 L281 320 Z M588 50 L661 50 L661 123 L588 123 L588 50 Z M588 577 L661 577 L661 650 L588 650 L588 577 Z " />
<glyph glyph-name="oslash" unicode="&#xf8;" horiz-adv-x="1110" d="M615 -8 C920 -8 1035 152 1036 326 C1037 431 986 519 853 553 L940 640 L869 640 L793 564 C770 566 745 568 719 568 L473 568 C168 568 55 408 54 234 C53 129 102 41 234 7 L147 -80 L217 -80 L293 -3 C316 -6 342 -8 369 -8 L615 -8 Z M380 45 C367 45 355 45 343 46 L806 506 C928 482 972 410 972 322 C972 183 878 45 620 45 L380 45 Z M117 236 C117 379 213 515 469 515 L710 515 C721 515 732 515 743 514 L281 53 C160 78 117 150 117 236 L117 236 Z " />
<glyph glyph-name="ugrave" unicode="&#xf9;" horiz-adv-x="1052" d="M136 257 L191 560 L131 560 L77 258 C49 104 99 -8 357 -8 L581 -8 C827 -8 915 86 943 243 L999 560 L940 560 L885 257 C861 126 797 45 587 45 L364 45 C150 45 115 131 136 257 L136 257 Z M563 806 L486 806 L598 635 L638 635 L563 806 Z " />
<glyph glyph-name="uacute" unicode="&#xfa;" horiz-adv-x="1052" d="M136 257 L191 560 L131 560 L77 258 C49 104 99 -8 357 -8 L581 -8 C827 -8 915 86 943 243 L999 560 L940 560 L885 257 C861 126 797 45 587 45 L364 45 C150 45 115 131 136 257 L136 257 Z M515 635 L561 635 L736 806 L652 806 L515 635 Z " />
<glyph glyph-name="ucircumflex" unicode="&#xfb;" horiz-adv-x="1052" d="M136 257 L191 560 L131 560 L77 258 C49 104 99 -8 357 -8 L581 -8 C827 -8 915 86 943 243 L999 560 L940 560 L885 257 C861 126 797 45 587 45 L364 45 C150 45 115 131 136 257 L136 257 Z M416 635 L461 635 L603 769 L697 635 L738 635 L649 806 L568 806 L416 635 Z " />
<glyph glyph-name="udieresis" unicode="&#xfc;" horiz-adv-x="1052" d="M136 257 L191 560 L131 560 L77 258 C49 104 99 -8 357 -8 L581 -8 C827 -8 915 86 943 243 L999 560 L940 560 L885 257 C861 126 797 45 587 45 L364 45 C150 45 115 131 136 257 L136 257 Z M673 683 L746 683 L759 757 L686 757 L673 683 Z M426 683 L499 683 L512 757 L439 757 L426 683 Z " />
<glyph glyph-name="yacute" unicode="&#xfd;" horiz-adv-x="1018" d="M419 0 L480 0 L509 170 L1053 560 L961 560 L484 214 L127 560 L43 560 L449 170 L419 0 Z M497 635 L543 635 L718 806 L634 806 L497 635 Z " />
<glyph glyph-name="thorn" unicode="&#xfe;" horiz-adv-x="1000" d="M51 0 L111 0 L131 111 L702 111 C889 111 949 206 949 307 C949 386 900 449 763 449 L193 449 L212 560 L152 560 L51 0 Z M752 396 C853 396 886 355 886 299 C886 231 844 164 710 164 L141 164 L182 396 L752 396 Z " />
<glyph glyph-name="ydieresis" unicode="&#xff;" horiz-adv-x="1018" d="M419 0 L480 0 L509 170 L1053 560 L961 560 L484 214 L127 560 L43 560 L449 170 L419 0 Z M655 683 L728 683 L741 757 L668 757 L655 683 Z M408 683 L481 683 L494 757 L421 757 L408 683 Z " />
<glyph glyph-name="Amacron" unicode="&#x100;" horiz-adv-x="1215" d="M1065 0 L1143 0 L708 700 L637 700 L-47 0 L38 0 L178 144 L975 144 L1065 0 Z M665 645 L941 200 L232 200 L665 645 Z M512 838 L878 838 L886 882 L520 882 L512 838 Z " />
<glyph glyph-name="amacron" unicode="&#x101;" horiz-adv-x="1040" d="M895 0 L967 0 L593 560 L527 560 L-46 0 L32 0 L153 119 L815 119 L895 0 Z M554 511 L783 167 L202 167 L554 511 Z M400 698 L766 698 L774 742 L408 742 L400 698 Z " />
<glyph glyph-name="Abreve" unicode="&#x102;" horiz-adv-x="1215" d="M1065 0 L1143 0 L708 700 L637 700 L-47 0 L38 0 L178 144 L975 144 L1065 0 Z M665 645 L941 200 L232 200 L665 645 Z M693 834 C611 834 588 880 593 932 L557 932 C550 863 572 788 686 788 C799 788 848 862 865 932 L827 932 C813 880 775 834 693 834 L693 834 Z " />
<glyph glyph-name="abreve" unicode="&#x103;" horiz-adv-x="1040" d="M895 0 L967 0 L593 560 L527 560 L-46 0 L32 0 L153 119 L815 119 L895 0 Z M554 511 L783 167 L202 167 L554 511 Z M580 694 C498 694 475 740 480 792 L444 792 C437 723 459 648 573 648 C686 648 735 722 752 792 L714 792 C700 740 662 694 580 694 L580 694 Z " />
<glyph glyph-name="Aogonek" unicode="&#x104;" horiz-adv-x="1215" d="M881 -173 C881 -219 917 -246 976 -246 C1012 -246 1045 -240 1088 -222 L1093 -191 C1054 -206 1032 -210 1005 -210 C964 -210 938 -191 938 -155 C938 -84 1023 -31 1109 0 L1143 0 L708 700 L637 700 L-47 0 L38 0 L178 144 L975 144 L1065 0 C981 -26 881 -89 881 -173 L881 -173 Z M665 645 L941 200 L232 200 L665 645 Z " />
<glyph glyph-name="aogonek" unicode="&#x105;" horiz-adv-x="1040" d="M711 -173 C711 -219 747 -246 806 -246 C842 -246 875 -240 918 -222 L923 -191 C884 -206 862 -210 835 -210 C794 -210 768 -191 768 -155 C768 -84 853 -31 939 0 L967 0 L593 560 L527 560 L-46 0 L32 0 L153 119 L815 119 L895 0 C811 -26 711 -89 711 -173 L711 -173 Z M554 511 L783 167 L202 167 L554 511 Z " />
<glyph glyph-name="Cacute" unicode="&#x106;" horiz-adv-x="1137" d="M140 304 C140 474 248 640 552 640 L1110 640 L1121 700 L556 700 C210 700 70 507 70 296 C70 130 172 0 440 0 L996 0 L1006 60 L450 60 C220 60 140 167 140 304 L140 304 Z M629 775 L675 775 L850 946 L766 946 L629 775 Z " />
<glyph glyph-name="cacute" unicode="&#x107;" horiz-adv-x="975" d="M118 239 C118 375 210 507 459 507 L933 507 L944 560 L462 560 C161 560 54 400 54 232 C54 102 136 0 361 0 L843 0 L852 53 L367 53 C181 53 118 132 118 239 L118 239 Z M515 635 L561 635 L736 806 L652 806 L515 635 Z " />
<glyph glyph-name="Ccircumflex" unicode="&#x108;" horiz-adv-x="1137" d="M140 304 C140 474 248 640 552 640 L1110 640 L1121 700 L556 700 C210 700 70 507 70 296 C70 130 172 0 440 0 L996 0 L1006 60 L450 60 C220 60 140 167 140 304 L140 304 Z M530 775 L575 775 L717 909 L811 775 L852 775 L763 946 L682 946 L530 775 Z " />
<glyph glyph-name="ccircumflex" unicode="&#x109;" horiz-adv-x="975" d="M118 239 C118 375 210 507 459 507 L933 507 L944 560 L462 560 C161 560 54 400 54 232 C54 102 136 0 361 0 L843 0 L852 53 L367 53 C181 53 118 132 118 239 L118 239 Z M416 635 L461 635 L603 769 L697 635 L738 635 L649 806 L568 806 L416 635 Z " />
<glyph glyph-name="Cdotaccent" unicode="&#x10a;" horiz-adv-x="1137" d="M140 304 C140 474 248 640 552 640 L1110 640 L1121 700 L556 700 C210 700 70 507 70 296 C70 130 172 0 440 0 L996 0 L1006 60 L450 60 C220 60 140 167 140 304 L140 304 Z M664 823 L737 823 L749 897 L676 897 L664 823 Z " />
<glyph glyph-name="cdotaccent" unicode="&#x10b;" horiz-adv-x="975" d="M118 239 C118 375 210 507 459 507 L933 507 L944 560 L462 560 C161 560 54 400 54 232 C54 102 136 0 361 0 L843 0 L852 53 L367 53 C181 53 118 132 118 239 L118 239 Z M550 683 L623 683 L635 757 L562 757 L550 683 Z " />
<glyph glyph-name="Ccaron" unicode="&#x10c;" horiz-adv-x="1137" d="M140 304 C140 474 248 640 552 640 L1110 640 L1121 700 L556 700 C210 700 70 507 70 296 C70 130 172 0 440 0 L996 0 L1006 60 L450 60 C220 60 140 167 140 304 L140 304 Z M885 946 L840 946 L698 812 L604 946 L563 946 L652 775 L733 775 L885 946 Z " />
<glyph glyph-name="ccaron" unicode="&#x10d;" horiz-adv-x="975" d="M118 239 C118 375 210 507 459 507 L933 507 L944 560 L462 560 C161 560 54 400 54 232 C54 102 136 0 361 0 L843 0 L852 53 L367 53 C181 53 118 132 118 239 L118 239 Z M771 806 L726 806 L584 672 L490 806 L449 806 L538 635 L619 635 L771 806 Z " />
<glyph glyph-name="Dcaron" unicode="&#x10e;" horiz-adv-x="1205" d="M61 0 L652 0 C998 0 1138 193 1138 404 C1138 569 1036 700 768 700 L186 700 L61 0 Z M758 640 C987 640 1067 532 1067 396 C1067 226 959 60 655 60 L136 60 L239 640 L758 640 Z M857 946 L812 946 L670 812 L576 946 L535 946 L624 775 L705 775 L857 946 Z " />
<glyph glyph-name="dcaron" unicode="&#x10f;" horiz-adv-x="1038" d="M51 0 L557 0 C858 0 965 160 965 328 C965 458 883 560 658 560 L151 560 L51 0 Z M652 507 C838 507 901 428 901 321 C901 185 809 53 560 53 L121 53 L200 507 L652 507 Z M755 806 L710 806 L568 672 L474 806 L433 806 L522 635 L603 635 L755 806 Z " />
<glyph glyph-name="Dcroat" unicode="&#x110;" horiz-adv-x="1205" d="M-8 322 L118 322 L61 0 L652 0 C998 0 1138 193 1138 404 C1138 569 1036 700 768 700 L186 700 L128 378 L3 378 L-8 322 Z M758 640 C987 640 1067 532 1067 396 C1067 226 959 60 655 60 L136 60 L182 322 L606 322 L617 378 L192 378 L239 640 L758 640 Z " />
<glyph glyph-name="dcroat" unicode="&#x111;" horiz-adv-x="1038" d="M-20 256 L96 256 L51 0 L557 0 C858 0 965 160 965 328 C965 458 883 560 658 560 L151 560 L105 304 L-10 304 L-20 256 Z M652 507 C838 507 901 428 901 321 C901 185 809 53 560 53 L121 53 L156 256 L524 256 L534 304 L165 304 L200 507 L652 507 Z " />
<glyph glyph-name="Emacron" unicode="&#x112;" horiz-adv-x="1151" d="M61 0 L1011 0 L1021 60 L137 60 L183 322 L969 322 L980 378 L194 378 L240 640 L1124 640 L1136 700 L186 700 L61 0 Z M490 838 L856 838 L864 882 L498 882 L490 838 Z " />
<glyph glyph-name="emacron" unicode="&#x113;" horiz-adv-x="993" d="M51 0 L859 0 L868 53 L120 53 L156 256 L820 256 L829 304 L165 304 L201 507 L949 507 L958 560 L150 560 L51 0 Z M388 698 L754 698 L762 742 L396 742 L388 698 Z " />
<glyph glyph-name="Ebreve" unicode="&#x114;" horiz-adv-x="1151" d="M61 0 L1011 0 L1021 60 L137 60 L183 322 L969 322 L980 378 L194 378 L240 640 L1124 640 L1136 700 L186 700 L61 0 Z M670 834 C588 834 565 880 570 932 L534 932 C527 863 549 788 663 788 C776 788 825 862 842 932 L804 932 C790 880 752 834 670 834 L670 834 Z " />
<glyph glyph-name="ebreve" unicode="&#x115;" horiz-adv-x="993" d="M51 0 L859 0 L868 53 L120 53 L156 256 L820 256 L829 304 L165 304 L201 507 L949 507 L958 560 L150 560 L51 0 Z M569 694 C487 694 464 740 469 792 L433 792 C426 723 448 648 562 648 C675 648 724 722 741 792 L703 792 C689 740 651 694 569 694 L569 694 Z " />
<glyph glyph-name="Edotaccent" unicode="&#x116;" horiz-adv-x="1151" d="M61 0 L1011 0 L1021 60 L137 60 L183 322 L969 322 L980 378 L194 378 L240 640 L1124 640 L1136 700 L186 700 L61 0 Z M634 823 L707 823 L719 897 L646 897 L634 823 Z " />
<glyph glyph-name="edotaccent" unicode="&#x117;" horiz-adv-x="993" d="M51 0 L859 0 L868 53 L120 53 L156 256 L820 256 L829 304 L165 304 L201 507 L949 507 L958 560 L150 560 L51 0 Z M532 683 L605 683 L617 757 L544 757 L532 683 Z " />
<glyph glyph-name="Eogonek" unicode="&#x118;" horiz-adv-x="1151" d="M61 0 L950 0 C866 -26 766 -89 766 -173 C766 -219 802 -246 861 -246 C897 -246 930 -240 973 -222 L978 -191 C939 -206 917 -210 890 -210 C849 -210 823 -191 823 -155 C823 -84 908 -31 994 0 L1011 0 L1021 60 L137 60 L183 322 L969 322 L980 378 L194 378 L240 640 L1124 640 L1136 700 L186 700 L61 0 Z " />
<glyph glyph-name="eogonek" unicode="&#x119;" horiz-adv-x="993" d="M51 0 L798 0 C714 -26 614 -89 614 -173 C614 -219 650 -246 709 -246 C745 -246 778 -240 821 -222 L826 -191 C787 -206 765 -210 738 -210 C697 -210 671 -191 671 -155 C671 -84 756 -31 842 0 L859 0 L868 53 L120 53 L156 256 L820 256 L829 304 L165 304 L201 507 L949 507 L958 560 L150 560 L51 0 Z " />
<glyph glyph-name="Ecaron" unicode="&#x11a;" horiz-adv-x="1151" d="M61 0 L1011 0 L1021 60 L137 60 L183 322 L969 322 L980 378 L194 378 L240 640 L1124 640 L1136 700 L186 700 L61 0 Z M855 946 L810 946 L668 812 L574 946 L533 946 L622 775 L703 775 L855 946 Z " />
<glyph glyph-name="ecaron" unicode="&#x11b;" horiz-adv-x="993" d="M51 0 L859 0 L868 53 L120 53 L156 256 L820 256 L829 304 L165 304 L201 507 L949 507 L958 560 L150 560 L51 0 Z M753 806 L708 806 L566 672 L472 806 L431 806 L520 635 L601 635 L753 806 Z " />
<glyph glyph-name="Gcircumflex" unicode="&#x11c;" horiz-adv-x="1206" d="M637 322 L1041 322 L995 60 L450 60 C220 60 140 167 140 304 C140 474 248 640 552 640 L1110 640 L1121 700 L556 700 C210 700 70 507 70 296 C70 130 172 0 440 0 L1049 0 L1116 378 L648 378 L637 322 Z M540 775 L585 775 L727 909 L821 775 L862 775 L773 946 L692 946 L540 775 Z " />
<glyph glyph-name="gcircumflex" unicode="&#x11d;" horiz-adv-x="1038" d="M838 53 L367 53 C181 53 118 132 118 239 C118 375 210 507 459 507 L933 507 L942 560 L462 560 C161 560 54 400 54 232 C54 102 136 0 361 0 L888 0 L942 304 L543 304 L533 256 L873 256 L838 53 Z M420 635 L465 635 L607 769 L701 635 L742 635 L653 806 L572 806 L420 635 Z " />
<glyph glyph-name="Gbreve" unicode="&#x11e;" horiz-adv-x="1206" d="M637 322 L1041 322 L995 60 L450 60 C220 60 140 167 140 304 C140 474 248 640 552 640 L1110 640 L1121 700 L556 700 C210 700 70 507 70 296 C70 130 172 0 440 0 L1049 0 L1116 378 L648 378 L637 322 Z M711 834 C629 834 606 880 611 932 L575 932 C568 863 590 788 704 788 C817 788 866 862 883 932 L845 932 C831 880 793 834 711 834 L711 834 Z " />
<glyph glyph-name="gbreve" unicode="&#x11f;" horiz-adv-x="1038" d="M838 53 L367 53 C181 53 118 132 118 239 C118 375 210 507 459 507 L933 507 L942 560 L462 560 C161 560 54 400 54 232 C54 102 136 0 361 0 L888 0 L942 304 L543 304 L533 256 L873 256 L838 53 Z M591 694 C509 694 486 740 491 792 L455 792 C448 723 470 648 584 648 C697 648 746 722 763 792 L725 792 C711 740 673 694 591 694 L591 694 Z " />
<glyph glyph-name="Gdotaccent" unicode="&#x120;" horiz-adv-x="1206" d="M637 322 L1041 322 L995 60 L450 60 C220 60 140 167 140 304 C140 474 248 640 552 640 L1110 640 L1121 700 L556 700 C210 700 70 507 70 296 C70 130 172 0 440 0 L1049 0 L1116 378 L648 378 L637 322 Z M674 823 L747 823 L759 897 L686 897 L674 823 Z " />
<glyph glyph-name="gdotaccent" unicode="&#x121;" horiz-adv-x="1038" d="M838 53 L367 53 C181 53 118 132 118 239 C118 375 210 507 459 507 L933 507 L942 560 L462 560 C161 560 54 400 54 232 C54 102 136 0 361 0 L888 0 L942 304 L543 304 L533 256 L873 256 L838 53 Z M554 683 L627 683 L639 757 L566 757 L554 683 Z " />
<glyph glyph-name="uni0122" unicode="&#x122;" horiz-adv-x="1206" d="M637 322 L1041 322 L995 60 L450 60 C220 60 140 167 140 304 C140 474 248 640 552 640 L1110 640 L1121 700 L556 700 C210 700 70 507 70 296 C70 130 172 0 440 0 L1049 0 L1116 378 L648 378 L637 322 Z M508 -198 L539 -198 L488 -293 L518 -293 L580 -194 L592 -124 L521 -124 L508 -198 Z " />
<glyph glyph-name="uni0123" unicode="&#x123;" horiz-adv-x="1038" d="M838 53 L367 53 C181 53 118 132 118 239 C118 375 210 507 459 507 L933 507 L942 560 L462 560 C161 560 54 400 54 232 C54 102 136 0 361 0 L888 0 L942 304 L543 304 L533 256 L873 256 L838 53 Z M414 -198 L445 -198 L394 -293 L424 -293 L486 -194 L498 -124 L427 -124 L414 -198 Z " />
<glyph glyph-name="Hcircumflex" unicode="&#x124;" horiz-adv-x="1253" d="M1006 0 L1072 0 L1197 700 L1131 700 L1074 380 L194 380 L252 700 L186 700 L61 0 L127 0 L182 320 L1062 320 L1006 0 Z M541 775 L586 775 L728 909 L822 775 L863 775 L774 946 L693 946 L541 775 Z " />
<glyph glyph-name="hcircumflex" unicode="&#x125;" horiz-adv-x="1083" d="M852 0 L912 0 L1011 560 L951 560 L906 307 L166 307 L210 560 L150 560 L51 0 L111 0 L155 253 L896 253 L852 0 Z M431 635 L476 635 L618 769 L712 635 L753 635 L664 806 L583 806 L431 635 Z " />
<glyph glyph-name="Hbar" unicode="&#x126;" horiz-adv-x="1253" d="M58 524 L154 524 L61 0 L127 0 L182 320 L1062 320 L1006 0 L1072 0 L1165 524 L1262 524 L1268 556 L1171 556 L1197 700 L1131 700 L1105 556 L226 556 L252 700 L186 700 L160 556 L64 556 L58 524 Z M194 380 L220 524 L1099 524 L1074 380 L194 380 Z " />
<glyph glyph-name="hbar" unicode="&#x127;" horiz-adv-x="1083" d="M39 418 L125 418 L51 0 L111 0 L155 253 L896 253 L852 0 L912 0 L986 418 L1072 418 L1078 449 L991 449 L1011 560 L951 560 L931 449 L191 449 L210 560 L150 560 L130 449 L45 449 L39 418 Z M166 307 L185 418 L925 418 L906 307 L166 307 Z " />
<glyph glyph-name="Itilde" unicode="&#x128;" horiz-adv-x="308" d="M61 0 L127 0 L252 700 L186 700 L61 0 Z M385 927 C366 862 344 852 317 852 C270 852 242 919 179 919 C132 919 94 892 68 794 L102 794 C120 858 144 870 172 870 C218 870 245 803 307 803 C355 803 393 829 419 927 L385 927 Z " />
<glyph glyph-name="itilde" unicode="&#x129;" horiz-adv-x="282" d="M51 0 L111 0 L210 560 L150 560 L51 0 Z M348 787 C329 722 307 712 280 712 C233 712 205 779 142 779 C95 779 57 752 31 654 L65 654 C83 718 107 730 135 730 C181 730 208 663 270 663 C318 663 356 689 382 787 L348 787 Z " />
<glyph glyph-name="Imacron" unicode="&#x12a;" horiz-adv-x="308" d="M61 0 L127 0 L252 700 L186 700 L61 0 Z M58 838 L424 838 L432 882 L66 882 L58 838 Z " />
<glyph glyph-name="imacron" unicode="&#x12b;" horiz-adv-x="282" d="M51 0 L111 0 L210 560 L150 560 L51 0 Z M21 698 L387 698 L395 742 L29 742 L21 698 Z " />
<glyph glyph-name="Ibreve" unicode="&#x12c;" horiz-adv-x="308" d="M61 0 L127 0 L252 700 L186 700 L61 0 Z M239 834 C157 834 134 880 139 932 L103 932 C96 863 118 788 232 788 C345 788 394 862 411 932 L373 932 C359 880 321 834 239 834 L239 834 Z " />
<glyph glyph-name="ibreve" unicode="&#x12d;" horiz-adv-x="282" d="M51 0 L111 0 L210 560 L150 560 L51 0 Z M202 694 C120 694 97 740 102 792 L66 792 C59 723 81 648 195 648 C308 648 357 722 374 792 L336 792 C322 740 284 694 202 694 L202 694 Z " />
<glyph glyph-name="Iogonek" unicode="&#x12e;" horiz-adv-x="308" d="M-74 -165 C-74 -220 -28 -246 20 -246 C55 -246 89 -240 131 -222 L138 -191 C98 -206 75 -210 48 -210 C5 -210 -19 -188 -19 -151 C-19 -92 19 -47 95 0 L127 0 L252 700 L186 700 L61 0 C-8 -34 -74 -93 -74 -165 L-74 -165 Z " />
<glyph glyph-name="iogonek" unicode="&#x12f;" horiz-adv-x="282" d="M51 0 C-18 -34 -84 -93 -84 -165 C-84 -220 -38 -246 10 -246 C45 -246 79 -240 121 -222 L128 -191 C88 -206 65 -210 38 -210 C-5 -210 -29 -188 -29 -151 C-29 -92 9 -47 85 0 L111 0 L210 560 L150 560 L51 0 Z " />
<glyph glyph-name="Idotaccent" unicode="&#x130;" horiz-adv-x="308" d="M61 0 L127 0 L252 700 L186 700 L61 0 Z M202 823 L275 823 L287 897 L214 897 L202 823 Z " />
<glyph glyph-name="dotlessi" unicode="&#x131;" horiz-adv-x="282" d="M51 0 L111 0 L210 560 L150 560 L51 0 Z " />
<glyph glyph-name="IJ" unicode="&#x132;" horiz-adv-x="1220" d="M121 445 L187 445 L233 700 L167 700 L121 445 Z M368 -5 L673 -5 C970 -5 1080 114 1114 307 L1184 700 L1118 700 L1050 323 C1020 156 926 55 681 55 L382 55 C180 55 130 151 155 273 L164 318 L99 318 L91 275 C60 123 126 -5 368 -5 L368 -5 Z " />
<glyph glyph-name="ij" unicode="&#x133;" horiz-adv-x="1049" d="M95 356 L155 356 L191 560 L131 560 L95 356 Z M305 -4 L580 -4 C826 -4 914 89 942 247 L997 560 L937 560 L883 261 C859 129 795 49 585 49 L310 49 C147 49 111 122 129 218 L136 256 L77 256 L70 220 C46 98 97 -4 305 -4 L305 -4 Z " />
<glyph glyph-name="Jcircumflex" unicode="&#x134;" horiz-adv-x="1162" d="M310 -5 L615 -5 C912 -5 1022 114 1056 307 L1126 700 L1060 700 L992 323 C962 156 868 55 623 55 L324 55 C122 55 72 151 97 273 L106 318 L41 318 L33 275 C2 123 68 -5 310 -5 L310 -5 Z M916 775 L961 775 L1103 909 L1197 775 L1238 775 L1149 946 L1068 946 L916 775 Z " />
<glyph glyph-name="jcircumflex" unicode="&#x135;" horiz-adv-x="1001" d="M257 -4 L532 -4 C778 -4 866 89 894 247 L949 560 L889 560 L835 261 C812 129 747 49 537 49 L262 49 C99 49 63 122 81 218 L88 256 L29 256 L22 220 C-2 98 49 -4 257 -4 L257 -4 Z M743 635 L788 635 L930 769 L1024 635 L1065 635 L976 806 L895 806 L743 635 Z " />
<glyph glyph-name="uni0136" unicode="&#x136;" horiz-adv-x="1234" d="M1204 700 L1083 700 L165 215 L251 700 L186 700 L61 0 L126 0 L151 143 L528 342 L1059 0 L1167 0 L590 375 L1204 700 Z M485 -198 L516 -198 L465 -293 L495 -293 L557 -194 L569 -124 L498 -124 L485 -198 Z " />
<glyph glyph-name="uni0137" unicode="&#x137;" horiz-adv-x="1065" d="M1022 560 L908 560 L142 178 L210 560 L150 560 L51 0 L111 0 L131 112 L449 272 L893 0 L993 0 L504 299 L1022 560 Z M404 -198 L435 -198 L384 -293 L414 -293 L476 -194 L488 -124 L417 -124 L404 -198 Z " />
<glyph glyph-name="kgreenlandic" unicode="&#x138;" horiz-adv-x="1183" d="M1149 465 L1119 465 L1170 560 L1139 560 L1077 461 L1065 391 L1137 391 L1149 465 Z M1022 560 L908 560 L142 178 L210 560 L150 560 L51 0 L111 0 L131 112 L449 272 L893 0 L993 0 L504 299 L1022 560 Z " />
<glyph glyph-name="Lacute" unicode="&#x139;" horiz-adv-x="1084" d="M252 700 L186 700 L61 0 L992 0 L1001 60 L137 60 L252 700 Z M167 775 L213 775 L388 946 L304 946 L167 775 Z " />
<glyph glyph-name="lacute" unicode="&#x13a;" horiz-adv-x="947" d="M210 560 L150 560 L51 0 L843 0 L852 53 L120 53 L210 560 Z M130 635 L176 635 L351 806 L267 806 L130 635 Z " />
<glyph glyph-name="uni013B" unicode="&#x13b;" horiz-adv-x="1084" d="M252 700 L186 700 L61 0 L992 0 L1001 60 L137 60 L252 700 Z M451 -198 L482 -198 L431 -293 L461 -293 L523 -194 L535 -124 L464 -124 L451 -198 Z " />
<glyph glyph-name="uni013C" unicode="&#x13c;" horiz-adv-x="947" d="M210 560 L150 560 L51 0 L843 0 L852 53 L120 53 L210 560 Z M379 -198 L410 -198 L359 -293 L389 -293 L451 -194 L463 -124 L392 -124 L379 -198 Z " />
<glyph glyph-name="Lcaron" unicode="&#x13d;" horiz-adv-x="1084" d="M252 700 L186 700 L61 0 L992 0 L1001 60 L137 60 L252 700 Z M906 620 L943 620 L889 517 L920 517 L986 624 L999 700 L919 700 L906 620 Z " />
<glyph glyph-name="lcaron" unicode="&#x13e;" horiz-adv-x="947" d="M207 560 L149 560 L51 0 L843 0 L852 53 L117 53 L207 560 Z M768 486 L799 486 L748 391 L778 391 L840 490 L852 560 L781 560 L768 486 Z " />
<glyph glyph-name="Ldot" unicode="&#x13f;" horiz-adv-x="1084" d="M252 700 L186 700 L61 0 L992 0 L1001 60 L137 60 L252 700 Z M693 350 L766 350 L778 424 L705 424 L693 350 Z " />
<glyph glyph-name="ldot" unicode="&#x140;" horiz-adv-x="947" d="M210 560 L150 560 L51 0 L843 0 L852 53 L120 53 L210 560 Z M594 276 L667 276 L679 350 L606 350 L594 276 Z " />
<glyph glyph-name="Lslash" unicode="&#x141;" horiz-adv-x="1084" d="M604 543 L187 337 L251 700 L186 700 L115 304 L12 254 L-2 185 L104 238 L61 0 L992 0 L1001 60 L136 60 L173 269 L591 474 L604 543 Z " />
<glyph glyph-name="lslash" unicode="&#x142;" horiz-adv-x="947" d="M510 438 L160 275 L210 560 L150 560 L95 246 L8 207 L-5 146 L85 189 L51 0 L843 0 L852 53 L120 53 L148 216 L497 377 L510 438 Z " />
<glyph glyph-name="Nacute" unicode="&#x143;" horiz-adv-x="1252" d="M1008 0 L1071 0 L1196 700 L1130 700 L1018 71 L249 700 L186 700 L61 0 L127 0 L237 629 L1008 0 Z M639 775 L685 775 L860 946 L776 946 L639 775 Z " />
<glyph glyph-name="nacute" unicode="&#x144;" horiz-adv-x="1082" d="M911 0 L1010 560 L950 560 L861 64 L207 560 L150 560 L51 0 L111 0 L199 497 L854 0 L911 0 Z M530 635 L576 635 L751 806 L667 806 L530 635 Z " />
<glyph glyph-name="uni0145" unicode="&#x145;" horiz-adv-x="1252" d="M1008 0 L1071 0 L1196 700 L1130 700 L1018 71 L249 700 L186 700 L61 0 L127 0 L237 629 L1008 0 Z M496 -198 L527 -198 L476 -293 L506 -293 L568 -194 L580 -124 L509 -124 L496 -198 Z " />
<glyph glyph-name="uni0146" unicode="&#x146;" horiz-adv-x="1082" d="M911 0 L1010 560 L950 560 L861 64 L207 560 L150 560 L51 0 L111 0 L199 497 L854 0 L911 0 Z M410 -198 L441 -198 L390 -293 L420 -293 L482 -194 L494 -124 L423 -124 L410 -198 Z " />
<glyph glyph-name="Ncaron" unicode="&#x147;" horiz-adv-x="1252" d="M1008 0 L1071 0 L1196 700 L1130 700 L1018 71 L249 700 L186 700 L61 0 L127 0 L237 629 L1008 0 Z M895 946 L850 946 L708 812 L614 946 L573 946 L662 775 L743 775 L895 946 Z " />
<glyph glyph-name="ncaron" unicode="&#x148;" horiz-adv-x="1082" d="M911 0 L1010 560 L950 560 L861 64 L207 560 L150 560 L51 0 L111 0 L199 497 L854 0 L911 0 Z M786 806 L741 806 L599 672 L505 806 L464 806 L553 635 L634 635 L786 806 Z " />
<glyph glyph-name="napostrophe" unicode="&#x149;" horiz-adv-x="1252" d="M1081 0 L1180 560 L1120 560 L1031 64 L377 560 L320 560 L221 0 L281 0 L369 497 L1024 0 L1081 0 Z M111 626 L142 626 L91 531 L121 531 L183 630 L195 700 L124 700 L111 626 Z " />
<glyph glyph-name="Eng" unicode="&#x14a;" horiz-adv-x="1252" d="M618 -230 L798 -230 C966 -230 1043 -151 1061 -49 L1196 700 L1130 700 L1018 71 L249 700 L186 700 L61 0 L127 0 L237 629 L1006 2 L998 -38 C984 -112 928 -170 805 -170 L629 -170 L618 -230 Z " />
<glyph glyph-name="eng" unicode="&#x14b;" horiz-adv-x="1082" d="M527 -184 L688 -184 C829 -184 890 -120 905 -35 L1010 560 L950 560 L861 64 L207 560 L150 560 L51 0 L111 0 L199 497 L851 2 L845 -29 C836 -86 797 -131 694 -131 L537 -131 L527 -184 Z " />
<glyph glyph-name="Omacron" unicode="&#x14c;" horiz-adv-x="1294" d="M729 -10 C1091 -10 1227 189 1227 412 C1227 580 1120 710 849 710 L570 710 C212 710 70 514 70 294 C70 122 177 -10 450 -10 L729 -10 Z M462 50 C224 50 140 159 140 302 C140 479 254 650 569 650 L837 650 C1073 650 1157 542 1157 402 C1157 223 1046 50 730 50 L462 50 Z M551 838 L917 838 L925 882 L559 882 L551 838 Z " />
<glyph glyph-name="omacron" unicode="&#x14d;" horiz-adv-x="1110" d="M615 -8 C920 -8 1035 152 1036 326 C1037 461 954 568 719 568 L473 568 C168 568 55 408 54 234 C53 99 134 -8 369 -8 L615 -8 Z M380 45 C183 45 117 130 117 236 C117 379 213 515 469 515 L710 515 C906 515 972 430 972 322 C972 183 878 45 620 45 L380 45 Z M435 698 L801 698 L809 742 L443 742 L435 698 Z " />
<glyph glyph-name="Obreve" unicode="&#x14e;" horiz-adv-x="1294" d="M729 -10 C1091 -10 1227 189 1227 412 C1227 580 1120 710 849 710 L570 710 C212 710 70 514 70 294 C70 122 177 -10 450 -10 L729 -10 Z M462 50 C224 50 140 159 140 302 C140 479 254 650 569 650 L837 650 C1073 650 1157 542 1157 402 C1157 223 1046 50 730 50 L462 50 Z M732 834 C650 834 627 880 632 932 L596 932 C589 863 611 788 725 788 C838 788 887 862 904 932 L866 932 C852 880 814 834 732 834 L732 834 Z " />
<glyph glyph-name="obreve" unicode="&#x14f;" horiz-adv-x="1110" d="M615 -8 C920 -8 1035 152 1036 326 C1037 461 954 568 719 568 L473 568 C168 568 55 408 54 234 C53 99 134 -8 369 -8 L615 -8 Z M380 45 C183 45 117 130 117 236 C117 379 213 515 469 515 L710 515 C906 515 972 430 972 322 C972 183 878 45 620 45 L380 45 Z M616 694 C534 694 511 740 516 792 L480 792 C473 723 495 648 609 648 C722 648 771 722 788 792 L750 792 C736 740 698 694 616 694 L616 694 Z " />
<glyph glyph-name="Ohungarumlaut" unicode="&#x150;" horiz-adv-x="1294" d="M729 -10 C1091 -10 1227 189 1227 412 C1227 580 1120 710 849 710 L570 710 C212 710 70 514 70 294 C70 122 177 -10 450 -10 L729 -10 Z M462 50 C224 50 140 159 140 302 C140 479 254 650 569 650 L837 650 C1073 650 1157 542 1157 402 C1157 223 1046 50 730 50 L462 50 Z M766 775 L811 775 L986 946 L903 946 L766 775 Z M559 775 L604 775 L779 946 L697 946 L559 775 Z " />
<glyph glyph-name="ohungarumlaut" unicode="&#x151;" horiz-adv-x="1110" d="M615 -8 C920 -8 1035 152 1036 326 C1037 461 954 568 719 568 L473 568 C168 568 55 408 54 234 C53 99 134 -8 369 -8 L615 -8 Z M380 45 C183 45 117 130 117 236 C117 379 213 515 469 515 L710 515 C906 515 972 430 972 322 C972 183 878 45 620 45 L380 45 Z M650 635 L695 635 L870 806 L787 806 L650 635 Z M443 635 L488 635 L663 806 L581 806 L443 635 Z " />
<glyph glyph-name="OE" unicode="&#x152;" horiz-adv-x="1672" d="M70 296 C67 130 171 0 439 0 L1532 0 L1542 60 L759 60 L805 322 L1491 322 L1501 378 L816 378 L862 640 L1646 640 L1657 700 L564 700 C218 700 73 507 70 296 L70 296 Z M142 304 C144 474 247 640 553 640 L796 640 L693 60 L450 60 C222 60 139 168 142 304 L142 304 Z " />
<glyph glyph-name="oe" unicode="&#x153;" horiz-adv-x="1432" d="M1299 0 L1308 53 L645 53 L681 256 L1259 256 L1269 304 L690 304 L726 507 L1389 507 L1398 560 L462 560 C161 560 54 400 54 232 C54 102 136 0 361 0 L1299 0 Z M118 239 C118 375 210 507 459 507 L666 507 L585 53 L367 53 C181 53 118 132 118 239 L118 239 Z " />
<glyph glyph-name="Racute" unicode="&#x154;" horiz-adv-x="1225" d="M61 0 L126 0 L176 281 L617 281 L1052 0 L1157 0 L715 282 L832 282 C1044 282 1129 392 1129 523 C1129 622 1070 700 907 700 L186 700 L61 0 Z M894 640 C1018 640 1060 584 1060 514 C1060 421 997 339 837 339 L186 339 L240 640 L894 640 Z M588 775 L634 775 L809 946 L725 946 L588 775 Z " />
<glyph glyph-name="racute" unicode="&#x155;" horiz-adv-x="1061" d="M51 0 L111 0 L150 222 L525 222 L886 0 L984 0 L615 223 L708 223 C893 223 954 318 954 420 C954 497 906 560 769 560 L151 560 L51 0 Z M756 507 C858 507 890 465 890 411 C890 341 852 274 715 274 L160 274 L201 507 L756 507 Z M486 635 L532 635 L707 806 L623 806 L486 635 Z " />
<glyph glyph-name="uni0156" unicode="&#x156;" horiz-adv-x="1225" d="M61 0 L126 0 L176 281 L617 281 L1052 0 L1157 0 L715 282 L832 282 C1044 282 1129 392 1129 523 C1129 622 1070 700 907 700 L186 700 L61 0 Z M894 640 C1018 640 1060 584 1060 514 C1060 421 997 339 837 339 L186 339 L240 640 L894 640 Z M481 -198 L512 -198 L461 -293 L491 -293 L553 -194 L565 -124 L494 -124 L481 -198 Z " />
<glyph glyph-name="uni0157" unicode="&#x157;" horiz-adv-x="1061" d="M51 0 L111 0 L150 222 L525 222 L886 0 L984 0 L615 223 L708 223 C893 223 954 318 954 420 C954 497 906 560 769 560 L151 560 L51 0 Z M756 507 C858 507 890 465 890 411 C890 341 852 274 715 274 L160 274 L201 507 L756 507 Z M400 -198 L431 -198 L380 -293 L410 -293 L472 -194 L484 -124 L413 -124 L400 -198 Z " />
<glyph glyph-name="Rcaron" unicode="&#x158;" horiz-adv-x="1225" d="M61 0 L126 0 L176 281 L617 281 L1052 0 L1157 0 L715 282 L832 282 C1044 282 1129 392 1129 523 C1129 622 1070 700 907 700 L186 700 L61 0 Z M894 640 C1018 640 1060 584 1060 514 C1060 421 997 339 837 339 L186 339 L240 640 L894 640 Z M844 946 L799 946 L657 812 L563 946 L522 946 L611 775 L692 775 L844 946 Z " />
<glyph glyph-name="rcaron" unicode="&#x159;" horiz-adv-x="1061" d="M51 0 L111 0 L150 222 L525 222 L886 0 L984 0 L615 223 L708 223 C893 223 954 318 954 420 C954 497 906 560 769 560 L151 560 L51 0 Z M756 507 C858 507 890 465 890 411 C890 341 852 274 715 274 L160 274 L201 507 L756 507 Z M742 806 L697 806 L555 672 L461 806 L420 806 L509 635 L590 635 L742 806 Z " />
<glyph glyph-name="Sacute" unicode="&#x15a;" horiz-adv-x="1159" d="M803 60 L62 60 L51 0 L795 0 C986 0 1064 103 1064 219 C1064 309 1009 378 862 378 L314 378 C207 378 171 425 171 487 C171 568 225 640 361 640 L1102 640 L1113 700 L370 700 C179 700 101 597 101 481 C101 391 156 322 302 322 L851 322 C958 322 994 275 994 213 C994 132 940 60 803 60 L803 60 Z M593 775 L639 775 L814 946 L730 946 L593 775 Z " />
<glyph glyph-name="sacute" unicode="&#x15b;" horiz-adv-x="992" d="M678 53 L48 53 L38 0 L674 0 C843 0 897 88 897 178 C897 249 852 303 729 303 L254 303 C167 303 138 339 138 387 C138 450 176 507 294 507 L924 507 L935 560 L298 560 C129 560 76 472 76 382 C76 311 120 257 243 257 L718 257 C805 257 834 221 834 173 C834 110 796 53 678 53 L678 53 Z M485 635 L531 635 L706 806 L622 806 L485 635 Z " />
<glyph glyph-name="Scircumflex" unicode="&#x15c;" horiz-adv-x="1159" d="M803 60 L62 60 L51 0 L795 0 C986 0 1064 103 1064 219 C1064 309 1009 378 862 378 L314 378 C207 378 171 425 171 487 C171 568 225 640 361 640 L1102 640 L1113 700 L370 700 C179 700 101 597 101 481 C101 391 156 322 302 322 L851 322 C958 322 994 275 994 213 C994 132 940 60 803 60 L803 60 Z M494 775 L539 775 L681 909 L775 775 L816 775 L727 946 L646 946 L494 775 Z " />
<glyph glyph-name="scircumflex" unicode="&#x15d;" horiz-adv-x="992" d="M678 53 L48 53 L38 0 L674 0 C843 0 897 88 897 178 C897 249 852 303 729 303 L254 303 C167 303 138 339 138 387 C138 450 176 507 294 507 L924 507 L935 560 L298 560 C129 560 76 472 76 382 C76 311 120 257 243 257 L718 257 C805 257 834 221 834 173 C834 110 796 53 678 53 L678 53 Z M386 635 L431 635 L573 769 L667 635 L708 635 L619 806 L538 806 L386 635 Z " />
<glyph glyph-name="Scedilla" unicode="&#x15e;" horiz-adv-x="1159" d="M458 -100 L478 -100 C538 -100 570 -112 570 -150 C570 -202 515 -218 463 -218 C427 -218 391 -209 375 -199 L369 -230 C393 -243 432 -254 472 -254 C545 -254 620 -228 620 -145 C620 -82 556 -64 500 -69 L532 0 L795 0 C986 0 1064 103 1064 219 C1064 309 1009 378 862 378 L314 378 C207 378 171 425 171 487 C171 568 225 640 361 640 L1102 640 L1113 700 L370 700 C179 700 101 597 101 481 C101 391 156 322 302 322 L851 322 C958 322 994 275 994 213 C994 132 940 60 803 60 L62 60 L51 0 L503 0 L458 -100 Z " />
<glyph glyph-name="scedilla" unicode="&#x15f;" horiz-adv-x="992" d="M375 -100 L395 -100 C455 -100 487 -112 487 -150 C487 -202 432 -218 380 -218 C344 -218 308 -209 292 -199 L286 -230 C310 -243 349 -254 389 -254 C462 -254 537 -228 537 -145 C537 -82 473 -64 417 -69 L449 0 L674 0 C843 0 897 88 897 178 C897 249 852 303 729 303 L254 303 C167 303 138 339 138 387 C138 450 176 507 294 507 L924 507 L935 560 L298 560 C129 560 76 472 76 382 C76 311 120 257 243 257 L718 257 C805 257 834 221 834 173 C834 110 796 53 678 53 L48 53 L38 0 L420 0 L375 -100 Z " />
<glyph glyph-name="Scaron" unicode="&#x160;" horiz-adv-x="1159" d="M803 60 L62 60 L51 0 L795 0 C986 0 1064 103 1064 219 C1064 309 1009 378 862 378 L314 378 C207 378 171 425 171 487 C171 568 225 640 361 640 L1102 640 L1113 700 L370 700 C179 700 101 597 101 481 C101 391 156 322 302 322 L851 322 C958 322 994 275 994 213 C994 132 940 60 803 60 L803 60 Z M849 946 L804 946 L662 812 L568 946 L527 946 L616 775 L697 775 L849 946 Z " />
<glyph glyph-name="scaron" unicode="&#x161;" horiz-adv-x="992" d="M678 53 L48 53 L38 0 L674 0 C843 0 897 88 897 178 C897 249 852 303 729 303 L254 303 C167 303 138 339 138 387 C138 450 176 507 294 507 L924 507 L935 560 L298 560 C129 560 76 472 76 382 C76 311 120 257 243 257 L718 257 C805 257 834 221 834 173 C834 110 796 53 678 53 L678 53 Z M741 806 L696 806 L554 672 L460 806 L419 806 L508 635 L589 635 L741 806 Z " />
<glyph glyph-name="uni0162" unicode="&#x162;" horiz-adv-x="1137" d="M447 -100 L467 -100 C527 -100 559 -112 559 -150 C559 -202 504 -218 452 -218 C416 -218 380 -209 364 -199 L358 -230 C382 -243 421 -254 461 -254 C534 -254 609 -228 609 -145 C609 -82 545 -64 489 -69 L521 0 L541 0 L655 640 L1158 640 L1169 700 L98 700 L86 640 L589 640 L475 0 L492 0 L447 -100 Z " />
<glyph glyph-name="uni0163" unicode="&#x163;" horiz-adv-x="1000" d="M379 -100 L399 -100 C459 -100 491 -112 491 -150 C491 -202 436 -218 384 -218 C348 -218 312 -209 296 -199 L290 -230 C314 -243 353 -254 393 -254 C466 -254 541 -228 541 -145 C541 -82 477 -64 421 -69 L453 0 L470 0 L560 507 L986 507 L995 560 L84 560 L75 507 L500 507 L410 0 L424 0 L379 -100 Z " />
<glyph glyph-name="Tcaron" unicode="&#x164;" horiz-adv-x="1137" d="M86 640 L589 640 L475 0 L541 0 L655 640 L1158 640 L1169 700 L98 700 L86 640 Z M837 946 L792 946 L650 812 L556 946 L515 946 L604 775 L685 775 L837 946 Z " />
<glyph glyph-name="tcaron" unicode="&#x165;" horiz-adv-x="1000" d="M75 507 L500 507 L410 0 L470 0 L560 507 L986 507 L995 560 L84 560 L75 507 Z M745 806 L700 806 L558 672 L464 806 L423 806 L512 635 L593 635 L745 806 Z " />
<glyph glyph-name="Tbar" unicode="&#x166;" horiz-adv-x="1137" d="M86 640 L589 640 L542 377 L268 377 L257 323 L532 323 L475 0 L541 0 L598 323 L871 323 L882 377 L608 377 L655 640 L1158 640 L1169 700 L98 700 L86 640 Z " />
<glyph glyph-name="tbar" unicode="&#x167;" horiz-adv-x="1000" d="M75 507 L500 507 L463 299 L221 299 L212 253 L455 253 L410 0 L470 0 L515 253 L755 253 L765 299 L523 299 L560 507 L986 507 L995 560 L84 560 L75 507 Z " />
<glyph glyph-name="Utilde" unicode="&#x168;" horiz-adv-x="1224" d="M164 323 L233 700 L167 700 L98 323 C63 130 139 -10 438 -10 L676 -10 C973 -10 1084 119 1118 310 L1188 700 L1122 700 L1055 324 C1024 157 930 50 684 50 L447 50 C195 50 136 162 164 323 L164 323 Z M844 927 C825 862 803 852 776 852 C729 852 701 919 638 919 C591 919 553 892 527 794 L561 794 C579 858 603 870 631 870 C677 870 704 803 766 803 C814 803 852 829 878 927 L844 927 Z " />
<glyph glyph-name="utilde" unicode="&#x169;" horiz-adv-x="1052" d="M136 257 L191 560 L131 560 L77 258 C49 104 99 -8 357 -8 L581 -8 C827 -8 915 86 943 243 L999 560 L940 560 L885 257 C861 126 797 45 587 45 L364 45 C150 45 115 131 136 257 L136 257 Z M733 787 C714 722 692 712 665 712 C618 712 590 779 527 779 C480 779 442 752 416 654 L450 654 C468 718 492 730 520 730 C566 730 593 663 655 663 C703 663 741 689 767 787 L733 787 Z " />
<glyph glyph-name="Umacron" unicode="&#x16a;" horiz-adv-x="1224" d="M164 323 L233 700 L167 700 L98 323 C63 130 139 -10 438 -10 L676 -10 C973 -10 1084 119 1118 310 L1188 700 L1122 700 L1055 324 C1024 157 930 50 684 50 L447 50 C195 50 136 162 164 323 L164 323 Z M516 838 L882 838 L890 882 L524 882 L516 838 Z " />
<glyph glyph-name="umacron" unicode="&#x16b;" horiz-adv-x="1052" d="M136 257 L191 560 L131 560 L77 258 C49 104 99 -8 357 -8 L581 -8 C827 -8 915 86 943 243 L999 560 L940 560 L885 257 C861 126 797 45 587 45 L364 45 C150 45 115 131 136 257 L136 257 Z M406 698 L772 698 L780 742 L414 742 L406 698 Z " />
<glyph glyph-name="Ubreve" unicode="&#x16c;" horiz-adv-x="1224" d="M164 323 L233 700 L167 700 L98 323 C63 130 139 -10 438 -10 L676 -10 C973 -10 1084 119 1118 310 L1188 700 L1122 700 L1055 324 C1024 157 930 50 684 50 L447 50 C195 50 136 162 164 323 L164 323 Z M697 834 C615 834 592 880 597 932 L561 932 C554 863 576 788 690 788 C803 788 852 862 869 932 L831 932 C817 880 779 834 697 834 L697 834 Z " />
<glyph glyph-name="ubreve" unicode="&#x16d;" horiz-adv-x="1052" d="M136 257 L191 560 L131 560 L77 258 C49 104 99 -8 357 -8 L581 -8 C827 -8 915 86 943 243 L999 560 L940 560 L885 257 C861 126 797 45 587 45 L364 45 C150 45 115 131 136 257 L136 257 Z M587 694 C505 694 482 740 487 792 L451 792 C444 723 466 648 580 648 C693 648 742 722 759 792 L721 792 C707 740 669 694 587 694 L587 694 Z " />
<glyph glyph-name="Uring" unicode="&#x16e;" horiz-adv-x="1224" d="M164 323 L233 700 L167 700 L98 323 C63 130 139 -10 438 -10 L676 -10 C973 -10 1084 119 1118 310 L1188 700 L1122 700 L1055 324 C1024 157 930 50 684 50 L447 50 C195 50 136 162 164 323 L164 323 Z M630 855 C630 897 668 932 710 932 C747 932 773 903 773 867 C773 824 736 789 695 789 C657 789 630 818 630 855 L630 855 Z M589 851 C589 795 630 752 690 752 C758 752 815 806 815 871 C815 926 773 969 713 969 C645 969 589 917 589 851 L589 851 Z " />
<glyph glyph-name="uring" unicode="&#x16f;" horiz-adv-x="1052" d="M136 257 L191 560 L131 560 L77 258 C49 104 99 -8 357 -8 L581 -8 C827 -8 915 86 943 243 L999 560 L940 560 L885 257 C861 126 797 45 587 45 L364 45 C150 45 115 131 136 257 L136 257 Z M520 715 C520 757 558 792 600 792 C637 792 663 763 663 727 C663 684 626 649 585 649 C547 649 520 678 520 715 L520 715 Z M479 711 C479 655 520 612 580 612 C648 612 705 666 705 731 C705 786 663 829 603 829 C535 829 479 777 479 711 L479 711 Z " />
<glyph glyph-name="Uhungarumlaut" unicode="&#x170;" horiz-adv-x="1224" d="M164 323 L233 700 L167 700 L98 323 C63 130 139 -10 438 -10 L676 -10 C973 -10 1084 119 1118 310 L1188 700 L1122 700 L1055 324 C1024 157 930 50 684 50 L447 50 C195 50 136 162 164 323 L164 323 Z M731 775 L776 775 L951 946 L868 946 L731 775 Z M524 775 L569 775 L744 946 L662 946 L524 775 Z " />
<glyph glyph-name="uhungarumlaut" unicode="&#x171;" horiz-adv-x="1052" d="M136 257 L191 560 L131 560 L77 258 C49 104 99 -8 357 -8 L581 -8 C827 -8 915 86 943 243 L999 560 L940 560 L885 257 C861 126 797 45 587 45 L364 45 C150 45 115 131 136 257 L136 257 Z M621 635 L666 635 L841 806 L758 806 L621 635 Z M414 635 L459 635 L634 806 L552 806 L414 635 Z " />
<glyph glyph-name="Uogonek" unicode="&#x172;" horiz-adv-x="1224" d="M558 -173 C558 -219 594 -246 653 -246 C689 -246 722 -240 765 -222 L770 -191 C731 -206 709 -210 682 -210 C641 -210 615 -191 615 -155 C615 -87 692 -36 774 -4 C998 22 1088 142 1118 310 L1188 700 L1122 700 L1055 324 C1024 157 930 50 684 50 L447 50 C195 50 136 162 164 323 L233 700 L167 700 L98 323 C63 130 139 -10 438 -10 L676 -10 C690 -10 703 -10 716 -9 C638 -39 558 -97 558 -173 L558 -173 Z " />
<glyph glyph-name="uogonek" unicode="&#x173;" horiz-adv-x="1052" d="M445 -173 C445 -219 481 -246 540 -246 C576 -246 609 -240 652 -222 L657 -191 C618 -206 596 -210 569 -210 C528 -210 502 -191 502 -155 C502 -86 580 -35 663 -4 C847 15 918 105 943 243 L999 560 L940 560 L885 257 C861 126 797 45 587 45 L364 45 C150 45 115 131 136 257 L191 560 L131 560 L77 258 C49 104 99 -8 357 -8 L606 -8 C528 -37 445 -96 445 -173 L445 -173 Z " />
<glyph glyph-name="Wcircumflex" unicode="&#x174;" horiz-adv-x="1553" d="M826 619 L1043 0 L1093 0 L1594 700 L1511 700 L1078 82 L863 700 L813 700 L376 82 L165 700 L90 700 L340 0 L390 0 L826 619 Z M691 775 L736 775 L878 909 L972 775 L1013 775 L924 946 L843 946 L691 775 Z " />
<glyph glyph-name="wcircumflex" unicode="&#x175;" horiz-adv-x="1329" d="M692 488 L879 0 L925 0 L1343 560 L1270 560 L912 72 L725 560 L680 560 L319 72 L134 560 L64 560 L285 0 L330 0 L692 488 Z M554 635 L599 635 L741 769 L835 635 L876 635 L787 806 L706 806 L554 635 Z " />
<glyph glyph-name="Ycircumflex" unicode="&#x176;" horiz-adv-x="1194" d="M504 0 L570 0 L607 212 L1257 700 L1154 700 L580 262 L161 700 L69 700 L541 212 L504 0 Z M511 775 L556 775 L698 909 L792 775 L833 775 L744 946 L663 946 L511 775 Z " />
<glyph glyph-name="ycircumflex" unicode="&#x177;" horiz-adv-x="1018" d="M419 0 L480 0 L509 170 L1053 560 L961 560 L484 214 L127 560 L43 560 L449 170 L419 0 Z M399 635 L444 635 L586 769 L680 635 L721 635 L632 806 L551 806 L399 635 Z " />
<glyph glyph-name="Ydieresis" unicode="&#x178;" horiz-adv-x="1194" d="M504 0 L570 0 L607 212 L1257 700 L1154 700 L580 262 L161 700 L69 700 L541 212 L504 0 Z M768 823 L841 823 L854 897 L781 897 L768 823 Z M521 823 L594 823 L607 897 L534 897 L521 823 Z " />
<glyph glyph-name="Zacute" unicode="&#x179;" horiz-adv-x="1145" d="M16 0 L1022 0 L1032 60 L152 60 L1119 652 L1125 700 L148 700 L136 640 L988 640 L21 48 L16 0 Z M586 775 L632 775 L807 946 L723 946 L586 775 Z " />
<glyph glyph-name="zacute" unicode="&#x17a;" horiz-adv-x="981" d="M9 0 L866 0 L875 53 L135 53 L941 518 L946 560 L114 560 L105 507 L818 507 L13 42 L9 0 Z M480 635 L526 635 L701 806 L617 806 L480 635 Z " />
<glyph glyph-name="Zdotaccent" unicode="&#x17b;" horiz-adv-x="1145" d="M16 0 L1022 0 L1032 60 L152 60 L1119 652 L1125 700 L148 700 L136 640 L988 640 L21 48 L16 0 Z M621 823 L694 823 L706 897 L633 897 L621 823 Z " />
<glyph glyph-name="zdotaccent" unicode="&#x17c;" horiz-adv-x="981" d="M9 0 L866 0 L875 53 L135 53 L941 518 L946 560 L114 560 L105 507 L818 507 L13 42 L9 0 Z M515 683 L588 683 L600 757 L527 757 L515 683 Z " />
<glyph glyph-name="Zcaron" unicode="&#x17d;" horiz-adv-x="1145" d="M16 0 L1022 0 L1032 60 L152 60 L1119 652 L1125 700 L148 700 L136 640 L988 640 L21 48 L16 0 Z M842 946 L797 946 L655 812 L561 946 L520 946 L609 775 L690 775 L842 946 Z " />
<glyph glyph-name="zcaron" unicode="&#x17e;" horiz-adv-x="981" d="M9 0 L866 0 L875 53 L135 53 L941 518 L946 560 L114 560 L105 507 L818 507 L13 42 L9 0 Z M736 806 L691 806 L549 672 L455 806 L414 806 L503 635 L584 635 L736 806 Z " />
<glyph glyph-name="uni0186" unicode="&#x186;" horiz-adv-x="1137" d="M1000 396 C1000 226 892 60 588 60 L30 60 L19 0 L584 0 C930 0 1070 193 1070 404 C1070 570 968 700 700 700 L144 700 L134 640 L690 640 C920 640 1000 533 1000 396 L1000 396 Z " />
<glyph glyph-name="uni0189" unicode="&#x189;" horiz-adv-x="1205" d="M-8 322 L118 322 L61 0 L652 0 C998 0 1138 193 1138 404 C1138 569 1036 700 768 700 L186 700 L128 378 L3 378 L-8 322 Z M758 640 C987 640 1067 532 1067 396 C1067 226 959 60 655 60 L136 60 L182 322 L606 322 L617 378 L192 378 L239 640 L758 640 Z " />
<glyph glyph-name="uni018E" unicode="&#x18e;" horiz-adv-x="1151" d="M1096 700 L146 700 L134 640 L1018 640 L972 378 L185 378 L175 322 L961 322 L915 60 L30 60 L20 0 L970 0 L1096 700 Z " />
<glyph glyph-name="florin" unicode="&#x192;" horiz-adv-x="1246" d="M447 96 C416 -17 339 -100 170 -100 L98 -100 L86 -160 L168 -160 C375 -160 470 -59 511 88 L576 321 L887 321 L898 377 L591 377 L610 444 C639 551 721 640 893 640 L1134 640 L1145 700 L899 700 C686 700 584 589 546 452 L525 377 L297 377 L286 321 L509 321 L447 96 Z " />
<glyph glyph-name="Ohorn" unicode="&#x1a0;" horiz-adv-x="1294" d="M729 -10 C1091 -10 1227 189 1227 412 C1227 517 1184 608 1085 661 L1198 661 C1289 661 1356 680 1373 777 C1376 791 1378 808 1377 826 L1317 826 C1317 809 1315 794 1313 781 C1301 714 1259 700 1191 700 L968 700 C932 706 893 710 849 710 L570 710 C212 710 70 514 70 294 C70 122 177 -10 450 -10 L729 -10 Z M462 50 C224 50 140 159 140 302 C140 479 254 650 569 650 L837 650 C1073 650 1157 542 1157 402 C1157 223 1046 50 730 50 L462 50 Z " />
<glyph glyph-name="ohorn" unicode="&#x1a1;" horiz-adv-x="1110" d="M615 -8 C920 -8 1035 152 1036 326 C1036 406 1007 477 933 521 L990 521 C1081 521 1148 540 1165 637 C1168 651 1170 668 1169 686 L1109 686 C1109 669 1107 654 1105 641 C1093 574 1051 560 983 560 L820 560 C790 565 756 568 719 568 L473 568 C168 568 55 408 54 234 C53 99 134 -8 369 -8 L615 -8 Z M380 45 C183 45 117 130 117 236 C117 379 213 515 469 515 L710 515 C906 515 972 430 972 322 C972 183 878 45 620 45 L380 45 Z " />
<glyph glyph-name="uni01A7" unicode="&#x1a7;" horiz-adv-x="1159" d="M999 60 L258 60 C149 60 113 108 113 169 C113 251 167 322 305 322 L853 322 C1045 322 1122 427 1122 542 C1122 631 1068 700 920 700 L176 700 L165 640 L907 640 C1016 640 1052 592 1052 531 C1052 449 998 378 860 378 L312 378 C120 378 43 273 43 158 C43 69 97 0 245 0 L988 0 L999 60 Z " />
<glyph glyph-name="uni01A8" unicode="&#x1a8;" horiz-adv-x="992" d="M844 53 L209 53 C121 53 93 90 93 136 C93 196 133 257 249 257 L721 257 C889 257 944 341 944 435 C944 505 898 560 776 560 L139 560 L128 507 L763 507 C851 507 880 470 880 424 C880 364 839 303 724 303 L251 303 C83 303 29 219 29 125 C29 55 74 0 197 0 L834 0 L844 53 Z " />
<glyph glyph-name="Uhorn" unicode="&#x1af;" horiz-adv-x="1366" d="M164 323 L233 700 L167 700 L98 323 C63 130 139 -10 438 -10 L676 -10 C973 -10 1084 119 1118 310 L1181 661 L1266 661 C1357 661 1424 680 1441 777 C1444 791 1446 808 1445 826 L1385 826 C1385 809 1383 794 1381 781 C1369 714 1327 700 1259 700 L1122 700 L1055 324 C1024 157 930 50 684 50 L447 50 C195 50 136 162 164 323 L164 323 Z " />
<glyph glyph-name="uhorn" unicode="&#x1b0;" horiz-adv-x="1204" d="M136 257 L191 560 L131 560 L77 258 C49 104 99 -8 357 -8 L581 -8 C827 -8 915 86 943 243 L992 521 L1080 521 C1171 521 1238 540 1255 637 C1258 651 1260 668 1259 686 L1199 686 C1199 669 1197 654 1195 641 C1183 574 1141 560 1073 560 L940 560 L885 257 C861 126 797 45 587 45 L364 45 C150 45 115 131 136 257 L136 257 Z " />
<glyph glyph-name="uni01B1" unicode="&#x1b1;" horiz-adv-x="1302" d="M874 649 C1066 611 1142 496 1142 371 C1142 214 1042 50 755 50 L445 50 C232 50 155 148 155 274 C155 433 275 598 543 649 L551 700 L135 700 L124 640 L392 640 C174 562 88 408 88 254 C88 107 183 -10 424 -10 L755 -10 C1075 -10 1205 169 1205 365 C1205 479 1148 586 1014 640 L1286 640 L1297 700 L882 700 L874 649 Z " />
<glyph glyph-name="uni01C0" unicode="&#x1c0;" horiz-adv-x="297" d="M261 800 L204 800 L42 -100 L100 -100 L261 800 Z " />
<glyph glyph-name="uni01C1" unicode="&#x1c1;" horiz-adv-x="574" d="M261 800 L204 800 L42 -100 L100 -100 L261 800 Z M540 800 L482 800 L321 -100 L379 -100 L540 800 Z " />
<glyph glyph-name="uni01C2" unicode="&#x1c2;" horiz-adv-x="710" d="M353 165 L635 165 L644 217 L362 217 L409 483 L691 483 L702 535 L420 535 L467 800 L409 800 L362 535 L80 535 L69 483 L351 483 L304 217 L22 217 L13 165 L295 165 L248 -100 L305 -100 L353 165 Z " />
<glyph glyph-name="uni01C3" unicode="&#x1c3;" horiz-adv-x="308" d="M55 0 L133 0 L148 80 L69 80 L55 0 Z M89 148 L145 148 L253 700 L186 700 L89 148 Z " />
<glyph glyph-name="uni01C4" unicode="&#x1c4;" horiz-adv-x="2349" d="M61 0 L652 0 C998 0 1138 193 1138 404 C1138 569 1036 700 768 700 L186 700 L61 0 Z M758 640 C987 640 1067 532 1067 396 C1067 226 959 60 655 60 L136 60 L239 640 L758 640 Z M1221 0 L2227 0 L2237 60 L1357 60 L2324 652 L2330 700 L1353 700 L1341 640 L2193 640 L1226 48 L1221 0 Z M2046 946 L2001 946 L1859 812 L1765 946 L1724 946 L1813 775 L1894 775 L2046 946 Z " />
<glyph glyph-name="uni01C5" unicode="&#x1c5;" horiz-adv-x="2186" d="M61 0 L652 0 C998 0 1138 193 1138 404 C1138 569 1036 700 768 700 L186 700 L61 0 Z M758 640 C987 640 1067 532 1067 396 C1067 226 959 60 655 60 L136 60 L239 640 L758 640 Z M1214 0 L2071 0 L2080 53 L1340 53 L2146 518 L2151 560 L1319 560 L1310 507 L2023 507 L1218 42 L1214 0 Z M1940 806 L1895 806 L1753 672 L1659 806 L1618 806 L1707 635 L1788 635 L1940 806 Z " />
<glyph glyph-name="uni01C6" unicode="&#x1c6;" horiz-adv-x="2019" d="M51 0 L557 0 C858 0 965 160 965 328 C965 458 883 560 658 560 L151 560 L51 0 Z M652 507 C838 507 901 428 901 321 C901 185 809 53 560 53 L121 53 L200 507 L652 507 Z M1047 0 L1904 0 L1913 53 L1173 53 L1979 518 L1984 560 L1152 560 L1143 507 L1856 507 L1051 42 L1047 0 Z M1773 806 L1728 806 L1586 672 L1492 806 L1451 806 L1540 635 L1621 635 L1773 806 Z " />
<glyph glyph-name="uni01C7" unicode="&#x1c7;" horiz-adv-x="2245" d="M1394 -5 L1699 -5 C1996 -5 2106 114 2140 307 L2210 700 L2144 700 L2076 323 C2046 156 1952 55 1707 55 L1408 55 C1206 55 1156 151 1181 273 L1190 318 L1125 318 L1117 275 C1086 123 1152 -5 1394 -5 L1394 -5 Z M252 700 L186 700 L61 0 L992 0 L1001 60 L137 60 L252 700 Z " />
<glyph glyph-name="uni01C8" unicode="&#x1c8;" horiz-adv-x="2085" d="M252 700 L186 700 L61 0 L992 0 L1001 60 L137 60 L252 700 Z M1341 -4 L1616 -4 C1862 -4 1950 89 1978 247 L2033 560 L1973 560 L1919 261 C1896 129 1831 49 1621 49 L1346 49 C1183 49 1147 122 1165 218 L1172 256 L1113 256 L1106 220 C1082 98 1133 -4 1341 -4 L1341 -4 Z " />
<glyph glyph-name="uni01C9" unicode="&#x1c9;" horiz-adv-x="1949" d="M1204 -4 L1479 -4 C1725 -4 1813 89 1841 247 L1896 560 L1836 560 L1782 261 C1759 129 1694 49 1484 49 L1209 49 C1046 49 1010 122 1028 218 L1035 256 L976 256 L969 220 C945 98 996 -4 1204 -4 L1204 -4 Z M210 560 L150 560 L51 0 L843 0 L852 53 L120 53 L210 560 Z " />
<glyph glyph-name="uni01CA" unicode="&#x1ca;" horiz-adv-x="2413" d="M1562 -5 L1867 -5 C2164 -5 2274 114 2308 307 L2378 700 L2312 700 L2244 323 C2214 156 2120 55 1875 55 L1576 55 C1374 55 1324 151 1349 273 L1358 318 L1293 318 L1285 275 C1254 123 1320 -5 1562 -5 L1562 -5 Z M1008 0 L1071 0 L1196 700 L1130 700 L1018 71 L249 700 L186 700 L61 0 L127 0 L237 629 L1008 0 Z " />
<glyph glyph-name="uni01CB" unicode="&#x1cb;" horiz-adv-x="2253" d="M1008 0 L1071 0 L1196 700 L1130 700 L1018 71 L249 700 L186 700 L61 0 L127 0 L237 629 L1008 0 Z M1509 -4 L1784 -4 C2030 -4 2118 89 2146 247 L2201 560 L2141 560 L2087 261 C2064 129 1999 49 1789 49 L1514 49 C1351 49 1315 122 1333 218 L1340 256 L1281 256 L1274 220 C1250 98 1301 -4 1509 -4 L1509 -4 Z " />
<glyph glyph-name="uni01CC" unicode="&#x1cc;" horiz-adv-x="2082" d="M1339 -4 L1614 -4 C1860 -4 1948 89 1976 247 L2031 560 L1971 560 L1917 261 C1894 129 1829 49 1619 49 L1344 49 C1181 49 1145 122 1163 218 L1170 256 L1111 256 L1104 220 C1080 98 1131 -4 1339 -4 L1339 -4 Z M911 0 L1010 560 L950 560 L861 64 L207 560 L150 560 L51 0 L111 0 L199 497 L854 0 L911 0 Z " />
<glyph glyph-name="uni01CD" unicode="&#x1cd;" horiz-adv-x="1215" d="M1065 0 L1143 0 L708 700 L637 700 L-47 0 L38 0 L178 144 L975 144 L1065 0 Z M665 645 L941 200 L232 200 L665 645 Z M877 946 L832 946 L690 812 L596 946 L555 946 L644 775 L725 775 L877 946 Z " />
<glyph glyph-name="uni01CE" unicode="&#x1ce;" horiz-adv-x="1040" d="M895 0 L967 0 L593 560 L527 560 L-46 0 L32 0 L153 119 L815 119 L895 0 Z M554 511 L783 167 L202 167 L554 511 Z M765 806 L720 806 L578 672 L484 806 L443 806 L532 635 L613 635 L765 806 Z " />
<glyph glyph-name="uni01CF" unicode="&#x1cf;" horiz-adv-x="308" d="M61 0 L127 0 L252 700 L186 700 L61 0 Z M423 946 L378 946 L236 812 L142 946 L101 946 L190 775 L271 775 L423 946 Z " />
<glyph glyph-name="uni01D0" unicode="&#x1d0;" horiz-adv-x="282" d="M386 806 L341 806 L199 672 L105 806 L64 806 L153 635 L234 635 L386 806 Z M51 0 L111 0 L210 560 L150 560 L51 0 Z " />
<glyph glyph-name="uni01D1" unicode="&#x1d1;" horiz-adv-x="1294" d="M729 -10 C1091 -10 1227 189 1227 412 C1227 580 1120 710 849 710 L570 710 C212 710 70 514 70 294 C70 122 177 -10 450 -10 L729 -10 Z M462 50 C224 50 140 159 140 302 C140 479 254 650 569 650 L837 650 C1073 650 1157 542 1157 402 C1157 223 1046 50 730 50 L462 50 Z M916 946 L871 946 L729 812 L635 946 L594 946 L683 775 L764 775 L916 946 Z " />
<glyph glyph-name="uni01D2" unicode="&#x1d2;" horiz-adv-x="1110" d="M615 -8 C920 -8 1035 152 1036 326 C1037 461 954 568 719 568 L473 568 C168 568 55 408 54 234 C53 99 134 -8 369 -8 L615 -8 Z M380 45 C183 45 117 130 117 236 C117 379 213 515 469 515 L710 515 C906 515 972 430 972 322 C972 183 878 45 620 45 L380 45 Z M800 806 L755 806 L613 672 L519 806 L478 806 L567 635 L648 635 L800 806 Z " />
<glyph glyph-name="uni01D3" unicode="&#x1d3;" horiz-adv-x="1224" d="M164 323 L233 700 L167 700 L98 323 C63 130 139 -10 438 -10 L676 -10 C973 -10 1084 119 1118 310 L1188 700 L1122 700 L1055 324 C1024 157 930 50 684 50 L447 50 C195 50 136 162 164 323 L164 323 Z M881 946 L836 946 L694 812 L600 946 L559 946 L648 775 L729 775 L881 946 Z " />
<glyph glyph-name="uni01D4" unicode="&#x1d4;" horiz-adv-x="1052" d="M136 257 L191 560 L131 560 L77 258 C49 104 99 -8 357 -8 L581 -8 C827 -8 915 86 943 243 L999 560 L940 560 L885 257 C861 126 797 45 587 45 L364 45 C150 45 115 131 136 257 L136 257 Z M771 806 L726 806 L584 672 L490 806 L449 806 L538 635 L619 635 L771 806 Z " />
<glyph glyph-name="uni01D5" unicode="&#x1d5;" horiz-adv-x="1224" d="M164 323 L233 700 L167 700 L98 323 C63 130 139 -10 438 -10 L676 -10 C973 -10 1084 119 1118 310 L1188 700 L1122 700 L1055 324 C1024 157 930 50 684 50 L447 50 C195 50 136 162 164 323 L164 323 Z M545 997 L911 997 L919 1041 L553 1041 L545 997 Z M783 823 L856 823 L869 897 L796 897 L783 823 Z M536 823 L609 823 L622 897 L549 897 L536 823 Z " />
<glyph glyph-name="uni01D6" unicode="&#x1d6;" horiz-adv-x="1052" d="M136 257 L191 560 L131 560 L77 258 C49 104 99 -8 357 -8 L581 -8 C827 -8 915 86 943 243 L999 560 L940 560 L885 257 C861 126 797 45 587 45 L364 45 C150 45 115 131 136 257 L136 257 Z M434 857 L800 857 L808 901 L442 901 L434 857 Z M673 683 L746 683 L759 757 L686 757 L673 683 Z M426 683 L499 683 L512 757 L439 757 L426 683 Z " />
<glyph glyph-name="uni01D7" unicode="&#x1d7;" horiz-adv-x="1224" d="M164 323 L233 700 L167 700 L98 323 C63 130 139 -10 438 -10 L676 -10 C973 -10 1084 119 1118 310 L1188 700 L1122 700 L1055 324 C1024 157 930 50 684 50 L447 50 C195 50 136 162 164 323 L164 323 Z M656 953 L702 953 L877 1124 L793 1124 L656 953 Z M783 823 L856 823 L869 897 L796 897 L783 823 Z M536 823 L609 823 L622 897 L549 897 L536 823 Z " />
<glyph glyph-name="uni01D8" unicode="&#x1d8;" horiz-adv-x="1052" d="M136 257 L191 560 L131 560 L77 258 C49 104 99 -8 357 -8 L581 -8 C827 -8 915 86 943 243 L999 560 L940 560 L885 257 C861 126 797 45 587 45 L364 45 C150 45 115 131 136 257 L136 257 Z M547 813 L593 813 L768 984 L684 984 L547 813 Z M673 683 L746 683 L759 757 L686 757 L673 683 Z M426 683 L499 683 L512 757 L439 757 L426 683 Z " />
<glyph glyph-name="uni01D9" unicode="&#x1d9;" horiz-adv-x="1224" d="M164 323 L233 700 L167 700 L98 323 C63 130 139 -10 438 -10 L676 -10 C973 -10 1084 119 1118 310 L1188 700 L1122 700 L1055 324 C1024 157 930 50 684 50 L447 50 C195 50 136 162 164 323 L164 323 Z M912 1124 L867 1124 L725 990 L631 1124 L590 1124 L679 953 L760 953 L912 1124 Z M783 823 L856 823 L869 897 L796 897 L783 823 Z M536 823 L609 823 L622 897 L549 897 L536 823 Z " />
<glyph glyph-name="uni01DA" unicode="&#x1da;" horiz-adv-x="1052" d="M136 257 L191 560 L131 560 L77 258 C49 104 99 -8 357 -8 L581 -8 C827 -8 915 86 943 243 L999 560 L940 560 L885 257 C861 126 797 45 587 45 L364 45 C150 45 115 131 136 257 L136 257 Z M803 984 L758 984 L616 850 L522 984 L481 984 L570 813 L651 813 L803 984 Z M673 683 L746 683 L759 757 L686 757 L673 683 Z M426 683 L499 683 L512 757 L439 757 L426 683 Z " />
<glyph glyph-name="uni01DB" unicode="&#x1db;" horiz-adv-x="1224" d="M164 323 L233 700 L167 700 L98 323 C63 130 139 -10 438 -10 L676 -10 C973 -10 1084 119 1118 310 L1188 700 L1122 700 L1055 324 C1024 157 930 50 684 50 L447 50 C195 50 136 162 164 323 L164 323 Z M704 1124 L627 1124 L739 953 L779 953 L704 1124 Z M783 823 L856 823 L869 897 L796 897 L783 823 Z M536 823 L609 823 L622 897 L549 897 L536 823 Z " />
<glyph glyph-name="uni01DC" unicode="&#x1dc;" horiz-adv-x="1052" d="M136 257 L191 560 L131 560 L77 258 C49 104 99 -8 357 -8 L581 -8 C827 -8 915 86 943 243 L999 560 L940 560 L885 257 C861 126 797 45 587 45 L364 45 C150 45 115 131 136 257 L136 257 Z M595 984 L518 984 L630 813 L670 813 L595 984 Z M673 683 L746 683 L759 757 L686 757 L673 683 Z M426 683 L499 683 L512 757 L439 757 L426 683 Z " />
<glyph glyph-name="uni01DD" unicode="&#x1dd;" horiz-adv-x="993" d="M921 560 L113 560 L104 507 L852 507 L816 304 L152 304 L142 256 L806 256 L771 53 L23 53 L14 0 L822 0 L921 560 Z " />
<glyph glyph-name="uni01DE" unicode="&#x1de;" horiz-adv-x="1215" d="M1065 0 L1143 0 L708 700 L637 700 L-47 0 L38 0 L178 144 L975 144 L1065 0 Z M665 645 L941 200 L232 200 L665 645 Z M540 997 L906 997 L914 1041 L548 1041 L540 997 Z M779 823 L852 823 L865 897 L792 897 L779 823 Z M532 823 L605 823 L618 897 L545 897 L532 823 Z " />
<glyph glyph-name="uni01DF" unicode="&#x1df;" horiz-adv-x="1040" d="M895 0 L967 0 L593 560 L527 560 L-46 0 L32 0 L153 119 L815 119 L895 0 Z M554 511 L783 167 L202 167 L554 511 Z M427 857 L793 857 L801 901 L435 901 L427 857 Z M667 683 L740 683 L753 757 L680 757 L667 683 Z M420 683 L493 683 L506 757 L433 757 L420 683 Z " />
<glyph glyph-name="uni01E0" unicode="&#x1e0;" horiz-adv-x="1215" d="M1065 0 L1143 0 L708 700 L637 700 L-47 0 L38 0 L178 144 L975 144 L1065 0 Z M665 645 L941 200 L232 200 L665 645 Z M540 997 L906 997 L914 1041 L548 1041 L540 997 Z M656 823 L729 823 L741 897 L668 897 L656 823 Z " />
<glyph glyph-name="uni01E1" unicode="&#x1e1;" horiz-adv-x="1040" d="M895 0 L967 0 L593 560 L527 560 L-46 0 L32 0 L153 119 L815 119 L895 0 Z M554 511 L783 167 L202 167 L554 511 Z M427 857 L793 857 L801 901 L435 901 L427 857 Z M544 683 L617 683 L629 757 L556 757 L544 683 Z " />
<glyph glyph-name="uni01E2" unicode="&#x1e2;" horiz-adv-x="1632" d="M668 143 L644 0 L1493 0 L1503 60 L720 60 L766 322 L1451 322 L1462 378 L777 378 L823 640 L1606 640 L1618 700 L733 700 L-47 0 L38 0 L196 143 L668 143 Z M762 653 L758 649 L680 199 L258 199 L762 653 Z M837 838 L1203 838 L1211 882 L845 882 L837 838 Z " />
<glyph glyph-name="uni01E3" unicode="&#x1e3;" horiz-adv-x="1397" d="M561 113 L542 0 L1265 0 L1273 53 L611 53 L646 256 L1225 256 L1235 304 L656 304 L692 507 L1355 507 L1364 560 L608 560 L-46 0 L32 0 L164 113 L561 113 Z M221 161 L633 512 L570 161 L221 161 Z M707 698 L1073 698 L1081 742 L715 742 L707 698 Z " />
<glyph glyph-name="Gcaron" unicode="&#x1e6;" horiz-adv-x="1206" d="M637 322 L1041 322 L995 60 L450 60 C220 60 140 167 140 304 C140 474 248 640 552 640 L1110 640 L1121 700 L556 700 C210 700 70 507 70 296 C70 130 172 0 440 0 L1049 0 L1116 378 L648 378 L637 322 Z M895 946 L850 946 L708 812 L614 946 L573 946 L662 775 L743 775 L895 946 Z " />
<glyph glyph-name="gcaron" unicode="&#x1e7;" horiz-adv-x="1038" d="M838 53 L367 53 C181 53 118 132 118 239 C118 375 210 507 459 507 L933 507 L942 560 L462 560 C161 560 54 400 54 232 C54 102 136 0 361 0 L888 0 L942 304 L543 304 L533 256 L873 256 L838 53 Z M775 806 L730 806 L588 672 L494 806 L453 806 L542 635 L623 635 L775 806 Z " />
<glyph glyph-name="uni01E8" unicode="&#x1e8;" horiz-adv-x="1234" d="M1204 700 L1083 700 L165 215 L251 700 L186 700 L61 0 L126 0 L151 143 L528 342 L1059 0 L1167 0 L590 375 L1204 700 Z M848 946 L803 946 L661 812 L567 946 L526 946 L615 775 L696 775 L848 946 Z " />
<glyph glyph-name="uni01E9" unicode="&#x1e9;" horiz-adv-x="1065" d="M1022 560 L908 560 L142 178 L210 560 L150 560 L51 0 L111 0 L131 112 L449 272 L893 0 L993 0 L504 299 L1022 560 Z M744 806 L699 806 L557 672 L463 806 L422 806 L511 635 L592 635 L744 806 Z " />
<glyph glyph-name="uni01EA" unicode="&#x1ea;" horiz-adv-x="1294" d="M620 -173 C620 -219 656 -246 715 -246 C751 -246 784 -240 827 -222 L832 -191 C793 -206 771 -210 744 -210 C703 -210 677 -191 677 -155 C677 -86 757 -34 841 -2 C1119 35 1227 213 1227 412 C1227 580 1120 710 849 710 L570 710 C212 710 70 514 70 294 C70 122 177 -10 450 -10 L729 -10 C746 -10 763 -9 779 -8 C702 -38 620 -97 620 -173 L620 -173 Z M462 50 C224 50 140 159 140 302 C140 479 254 650 569 650 L837 650 C1073 650 1157 542 1157 402 C1157 223 1046 50 730 50 L462 50 Z " />
<glyph glyph-name="uni01EB" unicode="&#x1eb;" horiz-adv-x="1110" d="M495 -173 C495 -219 531 -246 590 -246 C626 -246 659 -240 702 -222 L707 -191 C668 -206 646 -210 619 -210 C578 -210 552 -191 552 -155 C552 -84 635 -32 720 -1 C947 32 1035 173 1036 326 C1037 461 954 568 719 568 L473 568 C168 568 55 408 54 234 C53 99 134 -8 369 -8 L615 -8 C630 -8 644 -8 658 -7 C579 -36 495 -96 495 -173 L495 -173 Z M380 45 C183 45 117 130 117 236 C117 379 213 515 469 515 L710 515 C906 515 972 430 972 322 C972 183 878 45 620 45 L380 45 Z " />
<glyph glyph-name="uni01EC" unicode="&#x1ec;" horiz-adv-x="1294" d="M620 -173 C620 -219 656 -246 715 -246 C751 -246 784 -240 827 -222 L832 -191 C793 -206 771 -210 744 -210 C703 -210 677 -191 677 -155 C677 -86 757 -34 841 -2 C1119 35 1227 213 1227 412 C1227 580 1120 710 849 710 L570 710 C212 710 70 514 70 294 C70 122 177 -10 450 -10 L729 -10 C746 -10 763 -9 779 -8 C702 -38 620 -97 620 -173 L620 -173 Z M462 50 C224 50 140 159 140 302 C140 479 254 650 569 650 L837 650 C1073 650 1157 542 1157 402 C1157 223 1046 50 730 50 L462 50 Z M551 838 L917 838 L925 882 L559 882 L551 838 Z " />
<glyph glyph-name="uni01ED" unicode="&#x1ed;" horiz-adv-x="1110" d="M495 -173 C495 -219 531 -246 590 -246 C626 -246 659 -240 702 -222 L707 -191 C668 -206 646 -210 619 -210 C578 -210 552 -191 552 -155 C552 -84 635 -32 720 -1 C947 32 1035 173 1036 326 C1037 461 954 568 719 568 L473 568 C168 568 55 408 54 234 C53 99 134 -8 369 -8 L615 -8 C630 -8 644 -8 658 -7 C579 -36 495 -96 495 -173 L495 -173 Z M380 45 C183 45 117 130 117 236 C117 379 213 515 469 515 L710 515 C906 515 972 430 972 322 C972 183 878 45 620 45 L380 45 Z M435 698 L801 698 L809 742 L443 742 L435 698 Z " />
<glyph glyph-name="uni01F0" unicode="&#x1f0;" horiz-adv-x="1001" d="M257 -4 L532 -4 C778 -4 866 89 894 247 L949 560 L889 560 L835 261 C812 129 747 49 537 49 L262 49 C99 49 63 122 81 218 L88 256 L29 256 L22 220 C-2 98 49 -4 257 -4 L257 -4 Z M1098 806 L1053 806 L911 672 L817 806 L776 806 L865 635 L946 635 L1098 806 Z " />
<glyph glyph-name="uni01F1" unicode="&#x1f1;" horiz-adv-x="2349" d="M61 0 L652 0 C998 0 1138 193 1138 404 C1138 569 1036 700 768 700 L186 700 L61 0 Z M758 640 C987 640 1067 532 1067 396 C1067 226 959 60 655 60 L136 60 L239 640 L758 640 Z M1221 0 L2227 0 L2237 60 L1357 60 L2324 652 L2330 700 L1353 700 L1341 640 L2193 640 L1226 48 L1221 0 Z " />
<glyph glyph-name="uni01F2" unicode="&#x1f2;" horiz-adv-x="2186" d="M61 0 L652 0 C998 0 1138 193 1138 404 C1138 569 1036 700 768 700 L186 700 L61 0 Z M758 640 C987 640 1067 532 1067 396 C1067 226 959 60 655 60 L136 60 L239 640 L758 640 Z M1214 0 L2071 0 L2080 53 L1340 53 L2146 518 L2151 560 L1319 560 L1310 507 L2023 507 L1218 42 L1214 0 Z " />
<glyph glyph-name="uni01F3" unicode="&#x1f3;" horiz-adv-x="2019" d="M51 0 L557 0 C858 0 965 160 965 328 C965 458 883 560 658 560 L151 560 L51 0 Z M652 507 C838 507 901 428 901 321 C901 185 809 53 560 53 L121 53 L200 507 L652 507 Z M1047 0 L1904 0 L1913 53 L1173 53 L1979 518 L1984 560 L1152 560 L1143 507 L1856 507 L1051 42 L1047 0 Z " />
<glyph glyph-name="uni01F4" unicode="&#x1f4;" horiz-adv-x="1206" d="M637 322 L1041 322 L995 60 L450 60 C220 60 140 167 140 304 C140 474 248 640 552 640 L1110 640 L1121 700 L556 700 C210 700 70 507 70 296 C70 130 172 0 440 0 L1049 0 L1116 378 L648 378 L637 322 Z M639 775 L685 775 L860 946 L776 946 L639 775 Z " />
<glyph glyph-name="uni01F5" unicode="&#x1f5;" horiz-adv-x="1038" d="M838 53 L367 53 C181 53 118 132 118 239 C118 375 210 507 459 507 L933 507 L942 560 L462 560 C161 560 54 400 54 232 C54 102 136 0 361 0 L888 0 L942 304 L543 304 L533 256 L873 256 L838 53 Z M519 635 L565 635 L740 806 L656 806 L519 635 Z " />
<glyph glyph-name="uni01F8" unicode="&#x1f8;" horiz-adv-x="1252" d="M1008 0 L1071 0 L1196 700 L1130 700 L1018 71 L249 700 L186 700 L61 0 L127 0 L237 629 L1008 0 Z M687 946 L610 946 L722 775 L762 775 L687 946 Z " />
<glyph glyph-name="uni01F9" unicode="&#x1f9;" horiz-adv-x="1082" d="M911 0 L1010 560 L950 560 L861 64 L207 560 L150 560 L51 0 L111 0 L199 497 L854 0 L911 0 Z M578 806 L501 806 L613 635 L653 635 L578 806 Z " />
<glyph glyph-name="Aringacute" unicode="&#x1fa;" horiz-adv-x="1215" d="M1065 0 L1143 0 L708 700 L637 700 L-47 0 L38 0 L178 144 L975 144 L1065 0 Z M665 645 L941 200 L232 200 L665 645 Z M626 855 C626 897 664 932 706 932 C743 932 769 903 769 867 C769 824 732 789 691 789 C653 789 626 818 626 855 L626 855 Z M585 851 C585 795 626 752 686 752 C754 752 811 806 811 871 C811 926 769 969 709 969 C641 969 585 917 585 851 L585 851 Z M660 997 L706 997 L881 1168 L797 1168 L660 997 Z " />
<glyph glyph-name="aringacute" unicode="&#x1fb;" horiz-adv-x="1040" d="M895 0 L967 0 L593 560 L527 560 L-46 0 L32 0 L153 119 L815 119 L895 0 Z M554 511 L783 167 L202 167 L554 511 Z M514 715 C514 757 552 792 594 792 C631 792 657 763 657 727 C657 684 620 649 579 649 C541 649 514 678 514 715 L514 715 Z M473 711 C473 655 514 612 574 612 C642 612 699 666 699 731 C699 786 657 829 597 829 C529 829 473 777 473 711 L473 711 Z M547 857 L593 857 L768 1028 L684 1028 L547 857 Z " />
<glyph glyph-name="AEacute" unicode="&#x1fc;" horiz-adv-x="1632" d="M668 143 L644 0 L1493 0 L1503 60 L720 60 L766 322 L1451 322 L1462 378 L777 378 L823 640 L1606 640 L1618 700 L733 700 L-47 0 L38 0 L196 143 L668 143 Z M762 653 L758 649 L680 199 L258 199 L762 653 Z M946 775 L992 775 L1167 946 L1083 946 L946 775 Z " />
<glyph glyph-name="aeacute" unicode="&#x1fd;" horiz-adv-x="1397" d="M561 113 L542 0 L1265 0 L1273 53 L611 53 L646 256 L1225 256 L1235 304 L656 304 L692 507 L1355 507 L1364 560 L608 560 L-46 0 L32 0 L164 113 L561 113 Z M221 161 L633 512 L570 161 L221 161 Z M816 635 L862 635 L1037 806 L953 806 L816 635 Z " />
<glyph glyph-name="Oslashacute" unicode="&#x1fe;" horiz-adv-x="1294" d="M660 775 L706 775 L881 946 L797 946 L660 775 Z M729 -10 C1091 -10 1227 189 1227 412 C1227 540 1164 646 1013 689 L1119 800 L1041 800 L948 703 C918 707 885 710 849 710 L570 710 C212 710 70 514 70 294 C70 162 133 54 285 10 L179 -100 L257 -100 L349 -3 C380 -7 413 -10 450 -10 L729 -10 Z M140 302 C140 479 254 650 569 650 L837 650 C857 650 877 649 895 647 L335 63 C193 96 140 188 140 302 L140 302 Z M462 50 C441 50 421 51 402 52 L963 637 C1104 604 1157 513 1157 402 C1157 223 1046 50 730 50 L462 50 Z " />
<glyph glyph-name="oslashacute" unicode="&#x1ff;" horiz-adv-x="1110" d="M520 635 L566 635 L741 806 L657 806 L520 635 Z M615 -8 C920 -8 1035 152 1036 326 C1037 431 986 519 853 553 L940 640 L869 640 L793 564 C770 566 745 568 719 568 L473 568 C168 568 55 408 54 234 C53 129 102 41 234 7 L147 -80 L217 -80 L293 -3 C316 -6 342 -8 369 -8 L615 -8 Z M380 45 C367 45 355 45 343 46 L806 506 C928 482 972 410 972 322 C972 183 878 45 620 45 L380 45 Z M117 236 C117 379 213 515 469 515 L710 515 C721 515 732 515 743 514 L281 53 C160 78 117 150 117 236 L117 236 Z " />
<glyph glyph-name="uni0200" unicode="&#x200;" horiz-adv-x="1215" d="M1065 0 L1143 0 L708 700 L637 700 L-47 0 L38 0 L178 144 L975 144 L1065 0 Z M665 645 L941 200 L232 200 L665 645 Z M748 946 L670 946 L782 775 L823 775 L748 946 Z M560 946 L483 946 L595 775 L635 775 L560 946 Z " />
<glyph glyph-name="uni0201" unicode="&#x201;" horiz-adv-x="1040" d="M895 0 L967 0 L593 560 L527 560 L-46 0 L32 0 L153 119 L815 119 L895 0 Z M554 511 L783 167 L202 167 L554 511 Z M636 806 L558 806 L670 635 L711 635 L636 806 Z M448 806 L371 806 L483 635 L523 635 L448 806 Z " />
<glyph glyph-name="uni0202" unicode="&#x202;" horiz-adv-x="1215" d="M1065 0 L1143 0 L708 700 L637 700 L-47 0 L38 0 L178 144 L975 144 L1065 0 Z M665 645 L941 200 L232 200 L665 645 Z M712 886 C794 886 817 840 812 788 L848 788 C855 857 833 932 719 932 C606 932 557 858 540 788 L578 788 C592 840 630 886 712 886 L712 886 Z " />
<glyph glyph-name="uni0203" unicode="&#x203;" horiz-adv-x="1040" d="M895 0 L967 0 L593 560 L527 560 L-46 0 L32 0 L153 119 L815 119 L895 0 Z M554 511 L783 167 L202 167 L554 511 Z M599 746 C681 746 704 700 699 648 L735 648 C742 717 720 792 606 792 C493 792 444 718 427 648 L465 648 C479 700 517 746 599 746 L599 746 Z " />
<glyph glyph-name="uni0204" unicode="&#x204;" horiz-adv-x="1151" d="M61 0 L1011 0 L1021 60 L137 60 L183 322 L969 322 L980 378 L194 378 L240 640 L1124 640 L1136 700 L186 700 L61 0 Z M726 946 L648 946 L760 775 L801 775 L726 946 Z M538 946 L461 946 L573 775 L613 775 L538 946 Z " />
<glyph glyph-name="uni0205" unicode="&#x205;" horiz-adv-x="993" d="M51 0 L859 0 L868 53 L120 53 L156 256 L820 256 L829 304 L165 304 L201 507 L949 507 L958 560 L150 560 L51 0 Z M624 806 L546 806 L658 635 L699 635 L624 806 Z M436 806 L359 806 L471 635 L511 635 L436 806 Z " />
<glyph glyph-name="uni0206" unicode="&#x206;" horiz-adv-x="1151" d="M61 0 L1011 0 L1021 60 L137 60 L183 322 L969 322 L980 378 L194 378 L240 640 L1124 640 L1136 700 L186 700 L61 0 Z M689 886 C771 886 794 840 789 788 L825 788 C832 857 810 932 696 932 C583 932 534 858 517 788 L555 788 C569 840 607 886 689 886 L689 886 Z " />
<glyph glyph-name="uni0207" unicode="&#x207;" horiz-adv-x="993" d="M51 0 L859 0 L868 53 L120 53 L156 256 L820 256 L829 304 L165 304 L201 507 L949 507 L958 560 L150 560 L51 0 Z M588 746 C670 746 693 700 688 648 L724 648 C731 717 709 792 595 792 C482 792 433 718 416 648 L454 648 C468 700 506 746 588 746 L588 746 Z " />
<glyph glyph-name="uni0208" unicode="&#x208;" horiz-adv-x="308" d="M61 0 L127 0 L252 700 L186 700 L61 0 Z M294 946 L216 946 L328 775 L369 775 L294 946 Z M106 946 L29 946 L141 775 L181 775 L106 946 Z " />
<glyph glyph-name="uni0209" unicode="&#x209;" horiz-adv-x="282" d="M51 0 L111 0 L210 560 L150 560 L51 0 Z M257 806 L179 806 L291 635 L332 635 L257 806 Z M69 806 L-8 806 L104 635 L144 635 L69 806 Z " />
<glyph glyph-name="uni020A" unicode="&#x20a;" horiz-adv-x="308" d="M61 0 L127 0 L252 700 L186 700 L61 0 Z M258 886 C340 886 363 840 358 788 L394 788 C401 857 379 932 265 932 C152 932 103 858 86 788 L124 788 C138 840 176 886 258 886 L258 886 Z " />
<glyph glyph-name="uni020B" unicode="&#x20b;" horiz-adv-x="282" d="M51 0 L111 0 L210 560 L150 560 L51 0 Z M221 746 C303 746 326 700 321 648 L357 648 C364 717 342 792 228 792 C115 792 66 718 49 648 L87 648 C101 700 139 746 221 746 L221 746 Z " />
<glyph glyph-name="uni020C" unicode="&#x20c;" horiz-adv-x="1294" d="M729 -10 C1091 -10 1227 189 1227 412 C1227 580 1120 710 849 710 L570 710 C212 710 70 514 70 294 C70 122 177 -10 450 -10 L729 -10 Z M462 50 C224 50 140 159 140 302 C140 479 254 650 569 650 L837 650 C1073 650 1157 542 1157 402 C1157 223 1046 50 730 50 L462 50 Z M787 946 L709 946 L821 775 L862 775 L787 946 Z M599 946 L522 946 L634 775 L674 775 L599 946 Z " />
<glyph glyph-name="uni020D" unicode="&#x20d;" horiz-adv-x="1110" d="M615 -8 C920 -8 1035 152 1036 326 C1037 461 954 568 719 568 L473 568 C168 568 55 408 54 234 C53 99 134 -8 369 -8 L615 -8 Z M380 45 C183 45 117 130 117 236 C117 379 213 515 469 515 L710 515 C906 515 972 430 972 322 C972 183 878 45 620 45 L380 45 Z M671 806 L593 806 L705 635 L746 635 L671 806 Z M483 806 L406 806 L518 635 L558 635 L483 806 Z " />
<glyph glyph-name="uni020E" unicode="&#x20e;" horiz-adv-x="1294" d="M729 -10 C1091 -10 1227 189 1227 412 C1227 580 1120 710 849 710 L570 710 C212 710 70 514 70 294 C70 122 177 -10 450 -10 L729 -10 Z M462 50 C224 50 140 159 140 302 C140 479 254 650 569 650 L837 650 C1073 650 1157 542 1157 402 C1157 223 1046 50 730 50 L462 50 Z M751 886 C833 886 856 840 851 788 L887 788 C894 857 872 932 758 932 C645 932 596 858 579 788 L617 788 C631 840 669 886 751 886 L751 886 Z " />
<glyph glyph-name="uni020F" unicode="&#x20f;" horiz-adv-x="1110" d="M615 -8 C920 -8 1035 152 1036 326 C1037 461 954 568 719 568 L473 568 C168 568 55 408 54 234 C53 99 134 -8 369 -8 L615 -8 Z M380 45 C183 45 117 130 117 236 C117 379 213 515 469 515 L710 515 C906 515 972 430 972 322 C972 183 878 45 620 45 L380 45 Z M635 746 C717 746 740 700 735 648 L771 648 C778 717 756 792 642 792 C529 792 480 718 463 648 L501 648 C515 700 553 746 635 746 L635 746 Z " />
<glyph glyph-name="uni0210" unicode="&#x210;" horiz-adv-x="1225" d="M61 0 L126 0 L176 281 L617 281 L1052 0 L1157 0 L715 282 L832 282 C1044 282 1129 392 1129 523 C1129 622 1070 700 907 700 L186 700 L61 0 Z M894 640 C1018 640 1060 584 1060 514 C1060 421 997 339 837 339 L186 339 L240 640 L894 640 Z M715 946 L637 946 L749 775 L790 775 L715 946 Z M527 946 L450 946 L562 775 L602 775 L527 946 Z " />
<glyph glyph-name="uni0211" unicode="&#x211;" horiz-adv-x="1061" d="M51 0 L111 0 L150 222 L525 222 L886 0 L984 0 L615 223 L708 223 C893 223 954 318 954 420 C954 497 906 560 769 560 L151 560 L51 0 Z M756 507 C858 507 890 465 890 411 C890 341 852 274 715 274 L160 274 L201 507 L756 507 Z M613 806 L535 806 L647 635 L688 635 L613 806 Z M425 806 L348 806 L460 635 L500 635 L425 806 Z " />
<glyph glyph-name="uni0212" unicode="&#x212;" horiz-adv-x="1225" d="M61 0 L126 0 L176 281 L617 281 L1052 0 L1157 0 L715 282 L832 282 C1044 282 1129 392 1129 523 C1129 622 1070 700 907 700 L186 700 L61 0 Z M894 640 C1018 640 1060 584 1060 514 C1060 421 997 339 837 339 L186 339 L240 640 L894 640 Z M679 886 C761 886 784 840 779 788 L815 788 C822 857 800 932 686 932 C573 932 524 858 507 788 L545 788 C559 840 597 886 679 886 L679 886 Z " />
<glyph glyph-name="uni0213" unicode="&#x213;" horiz-adv-x="1061" d="M51 0 L111 0 L150 222 L525 222 L886 0 L984 0 L615 223 L708 223 C893 223 954 318 954 420 C954 497 906 560 769 560 L151 560 L51 0 Z M756 507 C858 507 890 465 890 411 C890 341 852 274 715 274 L160 274 L201 507 L756 507 Z M577 746 C659 746 682 700 677 648 L713 648 C720 717 698 792 584 792 C471 792 422 718 405 648 L443 648 C457 700 495 746 577 746 L577 746 Z " />
<glyph glyph-name="uni0214" unicode="&#x214;" horiz-adv-x="1224" d="M164 323 L233 700 L167 700 L98 323 C63 130 139 -10 438 -10 L676 -10 C973 -10 1084 119 1118 310 L1188 700 L1122 700 L1055 324 C1024 157 930 50 684 50 L447 50 C195 50 136 162 164 323 L164 323 Z M752 946 L674 946 L786 775 L827 775 L752 946 Z M564 946 L487 946 L599 775 L639 775 L564 946 Z " />
<glyph glyph-name="uni0215" unicode="&#x215;" horiz-adv-x="1052" d="M136 257 L191 560 L131 560 L77 258 C49 104 99 -8 357 -8 L581 -8 C827 -8 915 86 943 243 L999 560 L940 560 L885 257 C861 126 797 45 587 45 L364 45 C150 45 115 131 136 257 L136 257 Z M642 806 L564 806 L676 635 L717 635 L642 806 Z M454 806 L377 806 L489 635 L529 635 L454 806 Z " />
<glyph glyph-name="uni0216" unicode="&#x216;" horiz-adv-x="1224" d="M164 323 L233 700 L167 700 L98 323 C63 130 139 -10 438 -10 L676 -10 C973 -10 1084 119 1118 310 L1188 700 L1122 700 L1055 324 C1024 157 930 50 684 50 L447 50 C195 50 136 162 164 323 L164 323 Z M716 886 C798 886 821 840 816 788 L852 788 C859 857 837 932 723 932 C610 932 561 858 544 788 L582 788 C596 840 634 886 716 886 L716 886 Z " />
<glyph glyph-name="uni0217" unicode="&#x217;" horiz-adv-x="1052" d="M136 257 L191 560 L131 560 L77 258 C49 104 99 -8 357 -8 L581 -8 C827 -8 915 86 943 243 L999 560 L940 560 L885 257 C861 126 797 45 587 45 L364 45 C150 45 115 131 136 257 L136 257 Z M606 746 C688 746 711 700 706 648 L742 648 C749 717 727 792 613 792 C500 792 451 718 434 648 L472 648 C486 700 524 746 606 746 L606 746 Z " />
<glyph glyph-name="uni0218" unicode="&#x218;" horiz-adv-x="1159" d="M803 60 L62 60 L51 0 L795 0 C986 0 1064 103 1064 219 C1064 309 1009 378 862 378 L314 378 C207 378 171 425 171 487 C171 568 225 640 361 640 L1102 640 L1113 700 L370 700 C179 700 101 597 101 481 C101 391 156 322 302 322 L851 322 C958 322 994 275 994 213 C994 132 940 60 803 60 L803 60 Z M450 -198 L481 -198 L430 -293 L460 -293 L522 -194 L534 -124 L463 -124 L450 -198 Z " />
<glyph glyph-name="uni0219" unicode="&#x219;" horiz-adv-x="992" d="M678 53 L48 53 L38 0 L674 0 C843 0 897 88 897 178 C897 249 852 303 729 303 L254 303 C167 303 138 339 138 387 C138 450 176 507 294 507 L924 507 L935 560 L298 560 C129 560 76 472 76 382 C76 311 120 257 243 257 L718 257 C805 257 834 221 834 173 C834 110 796 53 678 53 L678 53 Z M365 -198 L396 -198 L345 -293 L375 -293 L437 -194 L449 -124 L378 -124 L365 -198 Z " />
<glyph glyph-name="uni021A" unicode="&#x21a;" horiz-adv-x="1137" d="M86 640 L589 640 L475 0 L541 0 L655 640 L1158 640 L1169 700 L98 700 L86 640 Z M438 -198 L469 -198 L418 -293 L448 -293 L510 -194 L522 -124 L451 -124 L438 -198 Z " />
<glyph glyph-name="uni021B" unicode="&#x21b;" horiz-adv-x="1000" d="M75 507 L500 507 L410 0 L470 0 L560 507 L986 507 L995 560 L84 560 L75 507 Z M370 -198 L401 -198 L350 -293 L380 -293 L442 -194 L454 -124 L383 -124 L370 -198 Z " />
<glyph glyph-name="uni021E" unicode="&#x21e;" horiz-adv-x="1253" d="M1006 0 L1072 0 L1197 700 L1131 700 L1074 380 L194 380 L252 700 L186 700 L61 0 L127 0 L182 320 L1062 320 L1006 0 Z M896 946 L851 946 L709 812 L615 946 L574 946 L663 775 L744 775 L896 946 Z " />
<glyph glyph-name="uni021F" unicode="&#x21f;" horiz-adv-x="1083" d="M852 0 L912 0 L1011 560 L951 560 L906 307 L166 307 L210 560 L150 560 L51 0 L111 0 L155 253 L896 253 L852 0 Z M786 806 L741 806 L599 672 L505 806 L464 806 L553 635 L634 635 L786 806 Z " />
<glyph glyph-name="uni0226" unicode="&#x226;" horiz-adv-x="1215" d="M1065 0 L1143 0 L708 700 L637 700 L-47 0 L38 0 L178 144 L975 144 L1065 0 Z M665 645 L941 200 L232 200 L665 645 Z M656 823 L729 823 L741 897 L668 897 L656 823 Z " />
<glyph glyph-name="uni0227" unicode="&#x227;" horiz-adv-x="1040" d="M895 0 L967 0 L593 560 L527 560 L-46 0 L32 0 L153 119 L815 119 L895 0 Z M554 511 L783 167 L202 167 L554 511 Z M544 683 L617 683 L629 757 L556 757 L544 683 Z " />
<glyph glyph-name="uni0228" unicode="&#x228;" horiz-adv-x="1151" d="M61 0 L509 0 L464 -100 L484 -100 C544 -100 576 -112 576 -150 C576 -202 521 -218 469 -218 C433 -218 397 -209 381 -199 L375 -230 C399 -243 438 -254 478 -254 C551 -254 626 -228 626 -145 C626 -82 562 -64 506 -69 L538 0 L1011 0 L1021 60 L137 60 L183 322 L969 322 L980 378 L194 378 L240 640 L1124 640 L1136 700 L186 700 L61 0 Z " />
<glyph glyph-name="uni0229" unicode="&#x229;" horiz-adv-x="993" d="M51 0 L432 0 L387 -100 L407 -100 C467 -100 499 -112 499 -150 C499 -202 444 -218 392 -218 C356 -218 320 -209 304 -199 L298 -230 C322 -243 361 -254 401 -254 C474 -254 549 -228 549 -145 C549 -82 485 -64 429 -69 L461 0 L859 0 L868 53 L120 53 L156 256 L820 256 L829 304 L165 304 L201 507 L949 507 L958 560 L150 560 L51 0 Z " />
<glyph glyph-name="uni022A" unicode="&#x22a;" horiz-adv-x="1294" d="M729 -10 C1091 -10 1227 189 1227 412 C1227 580 1120 710 849 710 L570 710 C212 710 70 514 70 294 C70 122 177 -10 450 -10 L729 -10 Z M462 50 C224 50 140 159 140 302 C140 479 254 650 569 650 L837 650 C1073 650 1157 542 1157 402 C1157 223 1046 50 730 50 L462 50 Z M579 997 L945 997 L953 1041 L587 1041 L579 997 Z M818 823 L891 823 L904 897 L831 897 L818 823 Z M571 823 L644 823 L657 897 L584 897 L571 823 Z " />
<glyph glyph-name="uni022B" unicode="&#x22b;" horiz-adv-x="1110" d="M615 -8 C920 -8 1035 152 1036 326 C1037 461 954 568 719 568 L473 568 C168 568 55 408 54 234 C53 99 134 -8 369 -8 L615 -8 Z M380 45 C183 45 117 130 117 236 C117 379 213 515 469 515 L710 515 C906 515 972 430 972 322 C972 183 878 45 620 45 L380 45 Z M463 857 L829 857 L837 901 L471 901 L463 857 Z M702 683 L775 683 L788 757 L715 757 L702 683 Z M455 683 L528 683 L541 757 L468 757 L455 683 Z " />
<glyph glyph-name="uni022C" unicode="&#x22c;" horiz-adv-x="1294" d="M729 -10 C1091 -10 1227 189 1227 412 C1227 580 1120 710 849 710 L570 710 C212 710 70 514 70 294 C70 122 177 -10 450 -10 L729 -10 Z M462 50 C224 50 140 159 140 302 C140 479 254 650 569 650 L837 650 C1073 650 1157 542 1157 402 C1157 223 1046 50 730 50 L462 50 Z M879 927 C860 862 838 852 811 852 C764 852 736 919 673 919 C626 919 588 892 562 794 L596 794 C614 858 638 870 666 870 C712 870 739 803 801 803 C849 803 887 829 913 927 L879 927 Z M581 1006 L947 1006 L955 1050 L589 1050 L581 1006 Z " />
<glyph glyph-name="uni022D" unicode="&#x22d;" horiz-adv-x="1110" d="M615 -8 C920 -8 1035 152 1036 326 C1037 461 954 568 719 568 L473 568 C168 568 55 408 54 234 C53 99 134 -8 369 -8 L615 -8 Z M380 45 C183 45 117 130 117 236 C117 379 213 515 469 515 L710 515 C906 515 972 430 972 322 C972 183 878 45 620 45 L380 45 Z M763 787 C744 722 722 712 695 712 C648 712 620 779 557 779 C510 779 472 752 446 654 L480 654 C498 718 522 730 550 730 C596 730 623 663 685 663 C733 663 771 689 797 787 L763 787 Z M464 866 L830 866 L838 910 L472 910 L464 866 Z " />
<glyph glyph-name="uni022E" unicode="&#x22e;" horiz-adv-x="1294" d="M729 -10 C1091 -10 1227 189 1227 412 C1227 580 1120 710 849 710 L570 710 C212 710 70 514 70 294 C70 122 177 -10 450 -10 L729 -10 Z M462 50 C224 50 140 159 140 302 C140 479 254 650 569 650 L837 650 C1073 650 1157 542 1157 402 C1157 223 1046 50 730 50 L462 50 Z M695 823 L768 823 L780 897 L707 897 L695 823 Z " />
<glyph glyph-name="uni022F" unicode="&#x22f;" horiz-adv-x="1110" d="M615 -8 C920 -8 1035 152 1036 326 C1037 461 954 568 719 568 L473 568 C168 568 55 408 54 234 C53 99 134 -8 369 -8 L615 -8 Z M380 45 C183 45 117 130 117 236 C117 379 213 515 469 515 L710 515 C906 515 972 430 972 322 C972 183 878 45 620 45 L380 45 Z M579 683 L652 683 L664 757 L591 757 L579 683 Z " />
<glyph glyph-name="uni0230" unicode="&#x230;" horiz-adv-x="1294" d="M729 -10 C1091 -10 1227 189 1227 412 C1227 580 1120 710 849 710 L570 710 C212 710 70 514 70 294 C70 122 177 -10 450 -10 L729 -10 Z M462 50 C224 50 140 159 140 302 C140 479 254 650 569 650 L837 650 C1073 650 1157 542 1157 402 C1157 223 1046 50 730 50 L462 50 Z M579 997 L945 997 L953 1041 L587 1041 L579 997 Z M695 823 L768 823 L780 897 L707 897 L695 823 Z " />
<glyph glyph-name="uni0231" unicode="&#x231;" horiz-adv-x="1110" d="M615 -8 C920 -8 1035 152 1036 326 C1037 461 954 568 719 568 L473 568 C168 568 55 408 54 234 C53 99 134 -8 369 -8 L615 -8 Z M380 45 C183 45 117 130 117 236 C117 379 213 515 469 515 L710 515 C906 515 972 430 972 322 C972 183 878 45 620 45 L380 45 Z M463 857 L829 857 L837 901 L471 901 L463 857 Z M579 683 L652 683 L664 757 L591 757 L579 683 Z " />
<glyph glyph-name="uni0232" unicode="&#x232;" horiz-adv-x="1194" d="M504 0 L570 0 L607 212 L1257 700 L1154 700 L580 262 L161 700 L69 700 L541 212 L504 0 Z M501 838 L867 838 L875 882 L509 882 L501 838 Z " />
<glyph glyph-name="uni0233" unicode="&#x233;" horiz-adv-x="1018" d="M419 0 L480 0 L509 170 L1053 560 L961 560 L484 214 L127 560 L43 560 L449 170 L419 0 Z M389 698 L755 698 L763 742 L397 742 L389 698 Z " />
<glyph glyph-name="uni0237" unicode="&#x237;" horiz-adv-x="1001" d="M257 -4 L532 -4 C778 -4 866 89 894 247 L949 560 L889 560 L835 261 C812 129 747 49 537 49 L262 49 C99 49 63 122 81 218 L88 256 L29 256 L22 220 C-2 98 49 -4 257 -4 L257 -4 Z " />
<glyph glyph-name="uni0256" unicode="&#x256;" horiz-adv-x="1038" d="M-20 256 L96 256 L51 0 L557 0 C858 0 965 160 965 328 C965 458 883 560 658 560 L151 560 L105 304 L-10 304 L-20 256 Z M652 507 C838 507 901 428 901 321 C901 185 809 53 560 53 L121 53 L156 256 L524 256 L534 304 L165 304 L200 507 L652 507 Z " />
<glyph glyph-name="uni02BB" unicode="&#x2bb;" horiz-adv-x="270" d="M222 597 L184 597 L239 700 L207 700 L142 593 L128 517 L208 517 L222 597 Z " />
<glyph glyph-name="uni02BC" unicode="&#x2bc;" horiz-adv-x="270" d="M147 620 L185 620 L130 517 L162 517 L227 624 L241 700 L162 700 L147 620 Z " />
<glyph glyph-name="uni02BD" unicode="&#x2bd;" horiz-adv-x="270" d="M241 700 L162 700 L147 624 L174 517 L206 517 L189 620 L227 620 L241 700 Z " />
<glyph glyph-name="circumflex" unicode="&#x2c6;" horiz-adv-x="480" d="M130 635 L175 635 L317 769 L411 635 L452 635 L363 806 L282 806 L130 635 Z " />
<glyph glyph-name="caron" unicode="&#x2c7;" horiz-adv-x="480" d="M485 806 L440 806 L298 672 L204 806 L163 806 L252 635 L333 635 L485 806 Z " />
<glyph glyph-name="uni02C9" unicode="&#x2c9;" horiz-adv-x="480" d="M120 698 L486 698 L494 742 L128 742 L120 698 Z " />
<glyph glyph-name="uni02CA" unicode="&#x2ca;" horiz-adv-x="480" d="M229 635 L275 635 L450 806 L366 806 L229 635 Z " />
<glyph glyph-name="uni02CB" unicode="&#x2cb;" horiz-adv-x="480" d="M277 806 L200 806 L312 635 L352 635 L277 806 Z " />
<glyph glyph-name="uni02CD" unicode="&#x2cd;" horiz-adv-x="480" d="M-35 -183 L331 -183 L339 -139 L-27 -139 L-35 -183 Z " />
<glyph glyph-name="uni02CE" unicode="&#x2ce;" horiz-adv-x="480" d="M122 -75 L45 -75 L157 -246 L197 -246 L122 -75 Z " />
<glyph glyph-name="uni02CF" unicode="&#x2cf;" horiz-adv-x="480" d="M74 -246 L120 -246 L295 -75 L211 -75 L74 -246 Z " />
<glyph glyph-name="breve" unicode="&#x2d8;" horiz-adv-x="480" d="M301 694 C219 694 196 740 201 792 L165 792 C158 723 180 648 294 648 C407 648 456 722 473 792 L435 792 C421 740 383 694 301 694 L301 694 Z " />
<glyph glyph-name="dotaccent" unicode="&#x2d9;" horiz-adv-x="480" d="M264 683 L337 683 L349 757 L276 757 L264 683 Z " />
<glyph glyph-name="ring" unicode="&#x2da;" horiz-adv-x="480" d="M234 715 C234 757 272 792 314 792 C351 792 377 763 377 727 C377 684 340 649 299 649 C261 649 234 678 234 715 L234 715 Z M193 711 C193 655 234 612 294 612 C362 612 419 666 419 731 C419 786 377 829 317 829 C249 829 193 777 193 711 L193 711 Z " />
<glyph glyph-name="ogonek" unicode="&#x2db;" horiz-adv-x="480" d="M76 -173 C76 -219 112 -246 171 -246 C207 -246 240 -240 283 -222 L288 -191 C249 -206 227 -210 200 -210 C159 -210 133 -191 133 -155 C133 -84 218 -31 304 0 L260 0 C176 -26 76 -89 76 -173 L76 -173 Z " />
<glyph glyph-name="tilde" unicode="&#x2dc;" horiz-adv-x="480" d="M448 787 C429 722 407 712 380 712 C333 712 305 779 242 779 C195 779 157 752 131 654 L165 654 C183 718 207 730 235 730 C281 730 308 663 370 663 C418 663 456 689 482 787 L448 787 Z " />
<glyph glyph-name="hungarumlaut" unicode="&#x2dd;" horiz-adv-x="480" d="M335 635 L380 635 L555 806 L472 806 L335 635 Z M128 635 L173 635 L348 806 L266 806 L128 635 Z " />
<glyph glyph-name="uni02EC" unicode="&#x2ec;" horiz-adv-x="480" d="M330 -75 L285 -75 L143 -209 L49 -75 L8 -75 L97 -246 L178 -246 L330 -75 Z " />
<glyph glyph-name="uni02EE" unicode="&#x2ee;" horiz-adv-x="465" d="M146 620 L183 620 L129 517 L160 517 L226 624 L239 700 L159 700 L146 620 Z M343 620 L380 620 L325 517 L357 517 L422 624 L435 700 L356 700 L343 620 Z " />
<glyph glyph-name="gravecomb" unicode="&#x300;" d="M-524 806 L-601 806 L-489 635 L-449 635 L-524 806 Z " />
<glyph glyph-name="acutecomb" unicode="&#x301;" d="M-572 635 L-526 635 L-351 806 L-435 806 L-572 635 Z " />
<glyph glyph-name="uni0302" unicode="&#x302;" d="M-671 635 L-626 635 L-484 769 L-390 635 L-349 635 L-438 806 L-519 806 L-671 635 Z " />
<glyph glyph-name="tildecomb" unicode="&#x303;" d="M-353 787 C-372 722 -394 712 -421 712 C-468 712 -496 779 -559 779 C-606 779 -644 752 -670 654 L-636 654 C-618 718 -594 730 -566 730 C-520 730 -493 663 -431 663 C-383 663 -345 689 -319 787 L-353 787 Z " />
<glyph glyph-name="uni0304" unicode="&#x304;" d="M-681 698 L-315 698 L-307 742 L-673 742 L-681 698 Z " />
<glyph glyph-name="uni0306" unicode="&#x306;" d="M-500 694 C-582 694 -605 740 -600 792 L-636 792 C-643 723 -621 648 -507 648 C-394 648 -345 722 -328 792 L-366 792 C-380 740 -418 694 -500 694 L-500 694 Z " />
<glyph glyph-name="uni0307" unicode="&#x307;" d="M-537 683 L-464 683 L-452 757 L-525 757 L-537 683 Z " />
<glyph glyph-name="uni0308" unicode="&#x308;" d="M-415 683 L-342 683 L-329 757 L-402 757 L-415 683 Z M-662 683 L-589 683 L-576 757 L-649 757 L-662 683 Z " />
<glyph glyph-name="hookabovecomb" unicode="&#x309;" d="M-551 637 L-514 637 L-509 674 L-503 674 C-430 674 -347 688 -347 776 C-347 835 -403 850 -464 850 C-509 850 -557 841 -586 828 L-592 795 C-566 805 -527 813 -490 813 C-442 813 -400 806 -400 766 C-400 715 -440 701 -519 701 L-540 701 L-551 637 Z " />
<glyph glyph-name="uni030A" unicode="&#x30a;" d="M-567 715 C-567 757 -529 792 -487 792 C-450 792 -424 763 -424 727 C-424 684 -461 649 -502 649 C-540 649 -567 678 -567 715 L-567 715 Z M-608 711 C-608 655 -567 612 -507 612 C-439 612 -382 666 -382 731 C-382 786 -424 829 -484 829 C-552 829 -608 777 -608 711 L-608 711 Z " />
<glyph glyph-name="uni030B" unicode="&#x30b;" d="M-466 635 L-421 635 L-246 806 L-329 806 L-466 635 Z M-673 635 L-628 635 L-453 806 L-535 806 L-673 635 Z " />
<glyph glyph-name="uni030C" unicode="&#x30c;" d="M-316 806 L-361 806 L-503 672 L-597 806 L-638 806 L-549 635 L-468 635 L-316 806 Z " />
<glyph glyph-name="uni030F" unicode="&#x30f;" d="M-446 806 L-523 806 L-411 635 L-371 635 L-446 806 Z M-633 806 L-710 806 L-598 635 L-558 635 L-633 806 Z " />
<glyph glyph-name="uni0311" unicode="&#x311;" d="M-487 747 C-405 747 -383 701 -388 649 L-352 649 C-345 719 -367 793 -480 793 C-595 793 -644 719 -661 649 L-622 649 C-608 701 -569 747 -487 747 L-487 747 Z " />
<glyph glyph-name="uni0312" unicode="&#x312;" d="M-358 597 L-395 597 L-341 700 L-372 700 L-438 593 L-451 517 L-371 517 L-358 597 Z " />
<glyph glyph-name="uni0313" unicode="&#x313;" d="M-550 620 L-513 620 L-567 517 L-536 517 L-470 624 L-457 700 L-537 700 L-550 620 Z " />
<glyph glyph-name="uni0314" unicode="&#x314;" d="M-332 700 L-412 700 L-427 624 L-400 517 L-369 517 L-385 620 L-348 620 L-332 700 Z " />
<glyph glyph-name="uni0316" unicode="&#x316;" d="M-679 -75 L-756 -75 L-644 -246 L-604 -246 L-679 -75 Z " />
<glyph glyph-name="uni0317" unicode="&#x317;" d="M-727 -246 L-681 -246 L-506 -75 L-590 -75 L-727 -246 Z " />
<glyph glyph-name="uni031B" unicode="&#x31b;" d="M-88 521 L20 521 C111 521 178 540 195 637 C198 651 200 668 199 686 L139 686 C139 669 137 654 135 641 C123 574 81 560 13 560 L-82 560 L-88 521 Z " />
<glyph glyph-name="uni031C" unicode="&#x31c;" d="M-591 -52 C-653 -52 -707 -100 -718 -160 C-729 -220 -691 -269 -629 -269 L-623 -232 C-660 -232 -686 -200 -679 -160 C-671 -121 -635 -89 -597 -89 L-591 -52 Z " />
<glyph glyph-name="dotbelowcomb" unicode="&#x323;" d="M-692 -198 L-619 -198 L-607 -124 L-680 -124 L-692 -198 Z " />
<glyph glyph-name="uni0324" unicode="&#x324;" d="M-570 -198 L-497 -198 L-484 -124 L-557 -124 L-570 -198 Z M-817 -198 L-744 -198 L-731 -124 L-804 -124 L-817 -198 Z " />
<glyph glyph-name="uni0325" unicode="&#x325;" d="M-722 -166 C-722 -124 -684 -89 -642 -89 C-605 -89 -579 -118 -579 -154 C-579 -197 -616 -232 -657 -232 C-695 -232 -722 -203 -722 -166 L-722 -166 Z M-763 -170 C-763 -226 -722 -269 -662 -269 C-594 -269 -537 -215 -537 -150 C-537 -95 -579 -52 -639 -52 C-707 -52 -763 -104 -763 -170 L-763 -170 Z " />
<glyph glyph-name="uni0326" unicode="&#x326;" d="M-690 -198 L-659 -198 L-710 -293 L-680 -293 L-618 -194 L-606 -124 L-677 -124 L-690 -198 Z " />
<glyph glyph-name="uni0327" unicode="&#x327;" d="M-683 -100 L-663 -100 C-603 -100 -571 -112 -571 -150 C-571 -202 -626 -218 -678 -218 C-714 -218 -750 -209 -766 -199 L-772 -230 C-748 -243 -709 -254 -669 -254 C-596 -254 -521 -228 -521 -145 C-521 -82 -585 -64 -641 -69 L-609 0 L-638 0 L-683 -100 Z " />
<glyph glyph-name="uni0328" unicode="&#x328;" d="M-725 -173 C-725 -219 -689 -246 -630 -246 C-594 -246 -561 -240 -518 -222 L-513 -191 C-552 -206 -574 -210 -601 -210 C-642 -210 -668 -191 -668 -155 C-668 -84 -583 -31 -497 0 L-541 0 C-625 -26 -725 -89 -725 -173 L-725 -173 Z " />
<glyph glyph-name="uni032C" unicode="&#x32c;" d="M-471 -75 L-516 -75 L-658 -209 L-752 -75 L-793 -75 L-704 -246 L-623 -246 L-471 -75 Z " />
<glyph glyph-name="uni032D" unicode="&#x32d;" d="M-826 -246 L-781 -246 L-639 -112 L-545 -246 L-504 -246 L-593 -75 L-674 -75 L-826 -246 Z " />
<glyph glyph-name="uni032E" unicode="&#x32e;" d="M-655 -187 C-737 -187 -760 -141 -755 -89 L-791 -89 C-798 -158 -776 -233 -662 -233 C-549 -233 -500 -159 -483 -89 L-521 -89 C-535 -141 -573 -187 -655 -187 L-655 -187 Z " />
<glyph glyph-name="uni032F" unicode="&#x32f;" d="M-644 -135 C-562 -135 -540 -180 -544 -232 L-508 -232 C-501 -163 -524 -89 -637 -89 C-752 -89 -799 -163 -818 -232 L-778 -232 C-764 -180 -726 -135 -644 -135 L-644 -135 Z " />
<glyph glyph-name="uni0330" unicode="&#x330;" d="M-508 -94 C-527 -159 -549 -169 -576 -169 C-623 -169 -651 -102 -714 -102 C-761 -102 -799 -129 -825 -227 L-791 -227 C-773 -163 -749 -151 -721 -151 C-675 -151 -648 -218 -586 -218 C-538 -218 -500 -192 -474 -94 L-508 -94 Z " />
<glyph glyph-name="uni0331" unicode="&#x331;" d="M-836 -183 L-470 -183 L-462 -139 L-828 -139 L-836 -183 Z " />
<glyph glyph-name="uni0338" unicode="&#x338;" d="M-906 -75 L-845 -75 L-212 776 L-273 776 L-906 -75 Z " />
<glyph glyph-name="uni0339" unicode="&#x339;" d="M-677 -89 C-639 -89 -614 -121 -622 -160 C-628 -200 -664 -232 -702 -232 L-708 -269 C-647 -269 -592 -220 -582 -160 C-571 -100 -609 -52 -670 -52 L-677 -89 Z " />
<glyph glyph-name="uni0340" unicode="&#x340;" d="M-524 806 L-601 806 L-489 635 L-449 635 L-524 806 Z " />
<glyph glyph-name="uni0341" unicode="&#x341;" d="M-572 635 L-526 635 L-351 806 L-435 806 L-572 635 Z " />
<glyph glyph-name="uni0343" unicode="&#x343;" d="M-550 620 L-513 620 L-567 517 L-536 517 L-470 624 L-457 700 L-537 700 L-550 620 Z " />
<glyph glyph-name="uni0344" unicode="&#x344;" d="M-382 684 L-310 684 L-298 757 L-370 757 L-382 684 Z M-690 684 L-618 684 L-605 757 L-677 757 L-690 684 Z M-523 635 L-495 635 L-438 835 L-508 835 L-523 635 Z " />
<glyph glyph-name="uni034F" unicode="&#x34f;" d="" />
<glyph glyph-name="uni0351" unicode="&#x351;" d="M-436 829 C-498 829 -552 781 -562 721 C-574 661 -536 612 -474 612 L-468 649 C-505 649 -531 681 -523 721 C-516 760 -480 792 -442 792 L-436 829 Z " />
<glyph glyph-name="uni0357" unicode="&#x357;" d="M-521 792 C-483 792 -459 760 -466 721 C-473 681 -509 649 -547 649 L-553 612 C-492 612 -437 661 -426 721 C-416 781 -454 829 -515 829 L-521 792 Z " />
<glyph glyph-name="uni0374" unicode="&#x374;" horiz-adv-x="268" d="M116 400 L161 400 L287 700 L206 700 L116 400 Z " />
<glyph glyph-name="uni0375" unicode="&#x375;" horiz-adv-x="268" d="M28 -100 L73 -100 L199 200 L118 200 L28 -100 Z " />
<glyph glyph-name="uni037E" unicode="&#x37e;" horiz-adv-x="270" d="M37 0 L74 0 L20 -103 L51 -103 L117 4 L130 80 L50 80 L37 0 Z M122 480 L201 480 L215 560 L136 560 L122 480 Z " />
<glyph glyph-name="tonos" unicode="&#x384;" horiz-adv-x="480" d="M276 635 L309 635 L367 835 L290 835 L276 635 Z " />
<glyph glyph-name="dieresistonos" unicode="&#x385;" horiz-adv-x="480" d="M420 684 L492 684 L504 757 L432 757 L420 684 Z M112 684 L184 684 L197 757 L125 757 L112 684 Z M279 635 L307 635 L364 835 L294 835 L279 635 Z " />
<glyph glyph-name="Alphatonos" unicode="&#x386;" horiz-adv-x="1215" d="M1065 0 L1143 0 L708 700 L637 700 L-47 0 L38 0 L178 144 L975 144 L1065 0 Z M665 645 L941 200 L232 200 L665 645 Z M190 500 L223 500 L281 700 L204 700 L190 500 Z " />
<glyph glyph-name="anoteleia" unicode="&#x387;" horiz-adv-x="265" d="M80 243 L153 243 L165 317 L92 317 L80 243 Z " />
<glyph glyph-name="Epsilontonos" unicode="&#x388;" horiz-adv-x="1295" d="M205 0 L1155 0 L1165 60 L281 60 L327 322 L1113 322 L1124 378 L338 378 L384 640 L1268 640 L1280 700 L330 700 L205 0 Z M85 500 L118 500 L176 700 L99 700 L85 500 Z " />
<glyph glyph-name="Etatonos" unicode="&#x389;" horiz-adv-x="1397" d="M1150 0 L1216 0 L1341 700 L1275 700 L1218 380 L338 380 L396 700 L330 700 L205 0 L271 0 L326 320 L1206 320 L1150 0 Z M85 500 L118 500 L176 700 L99 700 L85 500 Z " />
<glyph glyph-name="Iotatonos" unicode="&#x38a;" horiz-adv-x="452" d="M205 0 L271 0 L396 700 L330 700 L205 0 Z M85 500 L118 500 L176 700 L99 700 L85 500 Z " />
<glyph glyph-name="Omicrontonos" unicode="&#x38c;" horiz-adv-x="1411" d="M845 -10 C1207 -10 1343 189 1343 412 C1343 580 1236 710 965 710 L686 710 C328 710 186 514 186 294 C186 122 293 -10 566 -10 L845 -10 Z M578 50 C340 50 256 159 256 302 C256 479 370 650 685 650 L953 650 C1189 650 1273 542 1273 402 C1273 223 1162 50 846 50 L578 50 Z M85 500 L118 500 L176 700 L99 700 L85 500 Z " />
<glyph glyph-name="Upsilontonos" unicode="&#x38e;" horiz-adv-x="1350" d="M660 0 L726 0 L763 212 L1413 700 L1310 700 L736 262 L317 700 L225 700 L697 212 L660 0 Z M85 500 L118 500 L176 700 L99 700 L85 500 Z " />
<glyph glyph-name="Omegatonos" unicode="&#x38f;" horiz-adv-x="1407" d="M537 51 C345 89 270 204 270 329 C270 486 369 650 656 650 L966 650 C1179 650 1256 552 1256 426 C1256 267 1136 102 868 51 L860 0 L1276 0 L1287 60 L1019 60 C1236 138 1323 292 1323 446 C1323 593 1228 710 987 710 L656 710 C336 710 206 531 206 335 C206 221 263 114 397 60 L125 60 L114 0 L529 0 L537 51 Z M85 500 L118 500 L176 700 L99 700 L85 500 Z " />
<glyph glyph-name="iotadieresistonos" unicode="&#x390;" horiz-adv-x="282" d="M51 0 L111 0 L210 560 L150 560 L51 0 Z M320 684 L392 684 L404 757 L332 757 L320 684 Z M12 684 L84 684 L97 757 L25 757 L12 684 Z M179 635 L207 635 L264 835 L194 835 L179 635 Z " />
<glyph glyph-name="Alpha" unicode="&#x391;" horiz-adv-x="1215" d="M1065 0 L1143 0 L708 700 L637 700 L-47 0 L38 0 L178 144 L975 144 L1065 0 Z M665 645 L941 200 L232 200 L665 645 Z " />
<glyph glyph-name="Beta" unicode="&#x392;" horiz-adv-x="1209" d="M61 0 L847 0 C1031 0 1104 102 1104 213 C1104 283 1065 341 974 357 C1072 389 1117 462 1117 555 C1117 636 1064 700 927 700 L186 700 L61 0 Z M888 322 C998 322 1035 274 1035 214 C1035 134 981 60 843 60 L138 60 L183 322 L888 322 Z M1046 531 C1046 457 996 378 860 378 L194 378 L240 640 L900 640 C1008 640 1046 592 1046 531 L1046 531 Z " />
<glyph glyph-name="Gamma" unicode="&#x393;" horiz-adv-x="1084" d="M61 0 L127 0 L240 640 L1105 640 L1117 700 L186 700 L61 0 Z " />
<glyph glyph-name="Delta" unicode="&#x394;" horiz-adv-x="1215" d="M709 700 L637 700 L-47 0 L1143 0 L709 700 Z M667 647 L1032 60 L95 60 L667 647 Z " />
<glyph glyph-name="Epsilon" unicode="&#x395;" horiz-adv-x="1151" d="M61 0 L1011 0 L1021 60 L137 60 L183 322 L969 322 L980 378 L194 378 L240 640 L1124 640 L1136 700 L186 700 L61 0 Z " />
<glyph glyph-name="Zeta" unicode="&#x396;" horiz-adv-x="1145" d="M16 0 L1022 0 L1032 60 L152 60 L1119 652 L1125 700 L148 700 L136 640 L988 640 L21 48 L16 0 Z " />
<glyph glyph-name="Eta" unicode="&#x397;" horiz-adv-x="1253" d="M1006 0 L1072 0 L1197 700 L1131 700 L1074 380 L194 380 L252 700 L186 700 L61 0 L127 0 L182 320 L1062 320 L1006 0 Z " />
<glyph glyph-name="Theta" unicode="&#x398;" horiz-adv-x="1294" d="M319 322 L967 322 L979 378 L330 378 L319 322 Z M729 -10 C1091 -10 1227 189 1227 412 C1227 580 1120 710 849 710 L570 710 C212 710 70 514 70 294 C70 122 177 -10 450 -10 L729 -10 Z M462 50 C224 50 140 159 140 302 C140 479 254 650 569 650 L837 650 C1073 650 1157 542 1157 402 C1157 223 1046 50 730 50 L462 50 Z " />
<glyph glyph-name="Iota" unicode="&#x399;" horiz-adv-x="308" d="M61 0 L127 0 L252 700 L186 700 L61 0 Z " />
<glyph glyph-name="Kappa" unicode="&#x39a;" horiz-adv-x="1234" d="M1204 700 L1083 700 L165 215 L251 700 L186 700 L61 0 L126 0 L151 143 L528 342 L1059 0 L1167 0 L590 375 L1204 700 Z " />
<glyph glyph-name="Lambda" unicode="&#x39b;" horiz-adv-x="1215" d="M637 700 L-47 0 L40 0 L665 646 L1063 0 L1143 0 L709 700 L637 700 Z " />
<glyph glyph-name="Mu" unicode="&#x39c;" horiz-adv-x="1389" d="M1266 700 L651 121 L244 700 L186 700 L61 0 L126 0 L234 609 L639 32 L1249 609 L1143 0 L1208 0 L1333 700 L1266 700 Z " />
<glyph glyph-name="Nu" unicode="&#x39d;" horiz-adv-x="1252" d="M1008 0 L1071 0 L1196 700 L1130 700 L1018 71 L249 700 L186 700 L61 0 L127 0 L237 629 L1008 0 Z " />
<glyph glyph-name="Xi" unicode="&#x39e;" horiz-adv-x="1159" d="M134 640 L1132 640 L1144 700 L146 700 L134 640 Z M1028 60 L30 60 L20 0 L1018 0 L1028 60 Z M165 322 L986 322 L997 378 L176 378 L165 322 Z " />
<glyph glyph-name="Omicron" unicode="&#x39f;" horiz-adv-x="1294" d="M729 -10 C1091 -10 1227 189 1227 412 C1227 580 1120 710 849 710 L570 710 C212 710 70 514 70 294 C70 122 177 -10 450 -10 L729 -10 Z M462 50 C224 50 140 159 140 302 C140 479 254 650 569 650 L837 650 C1073 650 1157 542 1157 402 C1157 223 1046 50 730 50 L462 50 Z " />
<glyph glyph-name="Pi" unicode="&#x3a0;" horiz-adv-x="1253" d="M1006 0 L1072 0 L1197 700 L186 700 L61 0 L127 0 L240 640 L1119 640 L1006 0 Z " />
<glyph glyph-name="Rho" unicode="&#x3a1;" horiz-adv-x="1148" d="M61 0 L127 0 L176 280 L848 280 C1061 280 1145 391 1145 523 C1145 621 1086 700 923 700 L186 700 L61 0 Z M910 640 C1034 640 1076 584 1076 513 C1076 422 1013 340 855 340 L187 340 L240 640 L910 640 Z " />
<glyph glyph-name="Sigma" unicode="&#x3a3;" horiz-adv-x="1130" d="M136 649 L570 351 L29 51 L20 0 L990 0 L999 60 L164 60 L684 347 L262 640 L1103 640 L1115 700 L146 700 L136 649 Z " />
<glyph glyph-name="Tau" unicode="&#x3a4;" horiz-adv-x="1137" d="M86 640 L589 640 L475 0 L541 0 L655 640 L1158 640 L1169 700 L98 700 L86 640 Z " />
<glyph glyph-name="Upsilon" unicode="&#x3a5;" horiz-adv-x="1194" d="M504 0 L570 0 L607 212 L1257 700 L1154 700 L580 262 L161 700 L69 700 L541 212 L504 0 Z " />
<glyph glyph-name="Phi" unicode="&#x3a6;" horiz-adv-x="1253" d="M797 62 C1092 62 1204 220 1204 398 C1204 530 1118 638 899 638 L713 638 L733 750 L667 750 L647 638 L461 638 C168 638 54 476 54 300 C54 166 141 62 359 62 L544 62 L524 -50 L590 -50 L610 62 L797 62 Z M889 578 C1070 578 1134 494 1134 387 C1134 249 1036 122 800 122 L621 122 L702 578 L889 578 Z M126 311 C126 448 224 578 458 578 L636 578 L555 122 L369 122 C188 122 126 204 126 311 L126 311 Z " />
<glyph glyph-name="Chi" unicode="&#x3a7;" horiz-adv-x="1178" d="M97 700 L541 351 L-33 0 L78 0 L589 317 L991 0 L1093 0 L643 351 L1213 700 L1102 700 L594 386 L199 700 L97 700 Z " />
<glyph glyph-name="Psi" unicode="&#x3a8;" horiz-adv-x="1244" d="M529 0 L595 0 L622 153 L763 153 C1060 153 1171 282 1205 473 L1246 700 L1180 700 L1142 487 C1112 320 1017 213 771 213 L633 213 L720 700 L654 700 L567 213 L438 213 C185 213 127 324 155 486 L194 700 L128 700 L89 486 C53 293 130 153 429 153 L556 153 L529 0 Z " />
<glyph glyph-name="Omega" unicode="&#x3a9;" horiz-adv-x="1302" d="M433 51 C241 89 166 204 166 329 C166 486 265 650 552 650 L862 650 C1075 650 1152 552 1152 426 C1152 267 1032 102 764 51 L756 0 L1172 0 L1183 60 L915 60 C1132 138 1219 292 1219 446 C1219 593 1124 710 883 710 L552 710 C232 710 102 531 102 335 C102 221 159 114 293 60 L21 60 L10 0 L425 0 L433 51 Z " />
<glyph glyph-name="Iotadieresis" unicode="&#x3aa;" horiz-adv-x="308" d="M61 0 L127 0 L252 700 L186 700 L61 0 Z M324 823 L397 823 L410 897 L337 897 L324 823 Z M77 823 L150 823 L163 897 L90 897 L77 823 Z " />
<glyph glyph-name="Upsilondieresis" unicode="&#x3ab;" horiz-adv-x="1194" d="M504 0 L570 0 L607 212 L1257 700 L1154 700 L580 262 L161 700 L69 700 L541 212 L504 0 Z M769 823 L842 823 L855 897 L782 897 L769 823 Z M522 823 L595 823 L608 897 L535 897 L522 823 Z " />
<glyph glyph-name="alphatonos" unicode="&#x3ac;" horiz-adv-x="1040" d="M895 0 L967 0 L593 560 L527 560 L-46 0 L32 0 L153 119 L815 119 L895 0 Z M554 511 L783 167 L202 167 L554 511 Z M126 360 L159 360 L217 560 L140 560 L126 360 Z " />
<glyph glyph-name="epsilontonos" unicode="&#x3ad;" horiz-adv-x="1137" d="M195 0 L1003 0 L1012 53 L264 53 L300 256 L964 256 L973 304 L309 304 L345 507 L1093 507 L1102 560 L294 560 L195 0 Z M60 360 L93 360 L151 560 L74 560 L60 360 Z " />
<glyph glyph-name="etatonos" unicode="&#x3ae;" horiz-adv-x="1227" d="M996 0 L1056 0 L1155 560 L1095 560 L1050 307 L310 307 L354 560 L294 560 L195 0 L255 0 L299 253 L1040 253 L996 0 Z M60 360 L93 360 L151 560 L74 560 L60 360 Z " />
<glyph glyph-name="iotatonos" unicode="&#x3af;" horiz-adv-x="427" d="M196 0 L256 0 L355 560 L295 560 L196 0 Z M60 360 L93 360 L151 560 L74 560 L60 360 Z " />
<glyph glyph-name="upsilondieresistonos" unicode="&#x3b0;" horiz-adv-x="1018" d="M419 0 L480 0 L509 170 L1053 560 L961 560 L484 214 L127 560 L43 560 L449 170 L419 0 Z M690 684 L762 684 L774 757 L702 757 L690 684 Z M382 684 L454 684 L467 757 L395 757 L382 684 Z M549 635 L577 635 L634 835 L564 835 L549 635 Z " />
<glyph glyph-name="alpha" unicode="&#x3b1;" horiz-adv-x="1040" d="M895 0 L967 0 L593 560 L527 560 L-46 0 L32 0 L153 119 L815 119 L895 0 Z M554 511 L783 167 L202 167 L554 511 Z " />
<glyph glyph-name="beta" unicode="&#x3b2;" horiz-adv-x="1041" d="M51 0 L725 0 C886 0 935 83 935 171 C935 227 906 273 829 286 C914 312 943 379 943 442 C943 509 902 560 786 560 L150 560 L51 0 Z M720 53 L120 53 L156 256 L755 256 C848 256 872 218 872 170 C872 107 836 53 720 53 L720 53 Z M763 507 C852 507 879 472 879 423 C879 365 845 304 732 304 L165 304 L201 507 L763 507 Z " />
<glyph glyph-name="gamma" unicode="&#x3b3;" horiz-adv-x="947" d="M51 0 L111 0 L201 507 L933 507 L942 560 L150 560 L51 0 Z " />
<glyph glyph-name="delta" unicode="&#x3b4;" horiz-adv-x="1040" d="M593 560 L527 560 L-46 0 L967 0 L593 560 Z M554 512 L864 53 L81 53 L554 512 Z " />
<glyph glyph-name="epsilon" unicode="&#x3b5;" horiz-adv-x="993" d="M51 0 L859 0 L868 53 L120 53 L156 256 L820 256 L829 304 L165 304 L201 507 L949 507 L958 560 L150 560 L51 0 Z " />
<glyph glyph-name="zeta" unicode="&#x3b6;" horiz-adv-x="981" d="M9 0 L866 0 L875 53 L135 53 L941 518 L946 560 L114 560 L105 507 L818 507 L13 42 L9 0 Z " />
<glyph glyph-name="eta" unicode="&#x3b7;" horiz-adv-x="1083" d="M852 0 L912 0 L1011 560 L951 560 L906 307 L166 307 L210 560 L150 560 L51 0 L111 0 L155 253 L896 253 L852 0 Z " />
<glyph glyph-name="theta" unicode="&#x3b8;" horiz-adv-x="1110" d="M267 256 L811 256 L820 304 L276 304 L267 256 Z M615 -8 C920 -8 1035 152 1036 326 C1037 461 954 568 719 568 L473 568 C168 568 55 408 54 234 C53 99 134 -8 369 -8 L615 -8 Z M380 45 C183 45 117 130 117 236 C117 379 213 515 469 515 L710 515 C906 515 972 430 972 322 C972 183 878 45 620 45 L380 45 Z " />
<glyph glyph-name="iota" unicode="&#x3b9;" horiz-adv-x="282" d="M51 0 L111 0 L210 560 L150 560 L51 0 Z " />
<glyph glyph-name="kappa" unicode="&#x3ba;" horiz-adv-x="1065" d="M1022 560 L908 560 L142 178 L210 560 L150 560 L51 0 L111 0 L131 112 L449 272 L893 0 L993 0 L504 299 L1022 560 Z " />
<glyph glyph-name="lambda" unicode="&#x3bb;" horiz-adv-x="1040" d="M526 560 L-46 0 L34 0 L553 511 L893 0 L967 0 L592 560 L526 560 Z " />
<glyph glyph-name="mu" unicode="&#x3bc;" horiz-adv-x="1198" d="M1064 560 L553 104 L203 560 L150 560 L51 0 L110 0 L196 479 L543 25 L1053 479 L967 0 L1027 0 L1126 560 L1064 560 Z " />
<glyph glyph-name="nu" unicode="&#x3bd;" horiz-adv-x="1082" d="M911 0 L1010 560 L950 560 L861 64 L207 560 L150 560 L51 0 L111 0 L199 497 L854 0 L911 0 Z " />
<glyph glyph-name="xi" unicode="&#x3be;" horiz-adv-x="996" d="M104 507 L953 507 L962 560 L113 560 L104 507 Z M872 53 L23 53 L14 0 L863 0 L872 53 Z M134 256 L831 256 L841 304 L144 304 L134 256 Z " />
<glyph glyph-name="omicron" unicode="&#x3bf;" horiz-adv-x="1110" d="M615 -8 C920 -8 1035 152 1036 326 C1037 461 954 568 719 568 L473 568 C168 568 55 408 54 234 C53 99 134 -8 369 -8 L615 -8 Z M380 45 C183 45 117 130 117 236 C117 379 213 515 469 515 L710 515 C906 515 972 430 972 322 C972 183 878 45 620 45 L380 45 Z " />
<glyph glyph-name="pi" unicode="&#x3c0;" horiz-adv-x="1083" d="M852 0 L912 0 L1011 560 L150 560 L51 0 L111 0 L201 507 L941 507 L852 0 Z " />
<glyph glyph-name="rho" unicode="&#x3c1;" horiz-adv-x="1000" d="M51 0 L111 0 L150 221 L721 221 C908 221 968 317 968 418 C968 497 919 560 782 560 L150 560 L51 0 Z M771 507 C872 507 905 465 905 410 C905 341 863 275 729 275 L160 275 L201 507 L771 507 Z " />
<glyph glyph-name="uni03C2" unicode="&#x3c2;" horiz-adv-x="970" d="M104 515 L473 281 L21 45 L13 0 L837 0 L846 53 L143 53 L577 278 L221 507 L927 507 L936 560 L112 560 L104 515 Z " />
<glyph glyph-name="sigma" unicode="&#x3c3;" horiz-adv-x="970" d="M104 515 L473 281 L21 45 L13 0 L837 0 L846 53 L143 53 L577 278 L221 507 L927 507 L936 560 L112 560 L104 515 Z " />
<glyph glyph-name="tau" unicode="&#x3c4;" horiz-adv-x="1000" d="M75 507 L500 507 L410 0 L470 0 L560 507 L986 507 L995 560 L84 560 L75 507 Z " />
<glyph glyph-name="upsilon" unicode="&#x3c5;" horiz-adv-x="1018" d="M419 0 L480 0 L509 170 L1053 560 L961 560 L484 214 L127 560 L43 560 L449 170 L419 0 Z " />
<glyph glyph-name="phi" unicode="&#x3c6;" horiz-adv-x="1085" d="M684 50 C936 50 1022 178 1022 319 C1022 425 953 510 766 510 L604 510 L620 600 L559 600 L543 510 L382 510 C132 510 44 379 44 240 C44 132 112 50 300 50 L461 50 L444 -40 L505 -40 L522 50 L684 50 Z M757 457 C907 457 956 393 956 312 C956 204 888 103 689 103 L531 103 L594 457 L757 457 Z M307 103 C158 103 108 167 108 248 C108 356 176 457 376 457 L534 457 L471 103 L307 103 Z " />
<glyph glyph-name="chi" unicode="&#x3c7;" horiz-adv-x="1023" d="M76 560 L455 282 L-27 0 L75 0 L500 249 L838 0 L931 0 L547 282 L1027 560 L924 560 L504 313 L169 560 L76 560 Z " />
<glyph glyph-name="psi" unicode="&#x3c8;" horiz-adv-x="1071" d="M445 0 L506 0 L526 121 L645 121 C902 121 991 221 1018 377 L1050 560 L990 560 L960 387 C937 258 876 174 655 174 L536 174 L605 560 L544 560 L476 174 L360 174 C144 174 107 262 129 386 L159 560 L99 560 L69 387 C43 233 95 121 353 121 L466 121 L445 0 Z " />
<glyph glyph-name="omega" unicode="&#x3c9;" horiz-adv-x="1123" d="M641 0 L996 0 L1006 53 L782 53 C959 114 1032 234 1032 357 C1032 475 956 568 750 568 L455 568 C180 568 84 423 84 270 C84 181 131 94 244 53 L17 53 L7 0 L361 0 L370 45 C200 74 140 166 140 265 C140 391 225 515 460 515 L733 515 C912 515 972 437 972 339 C972 210 881 91 649 45 L641 0 Z " />
<glyph glyph-name="iotadieresis" unicode="&#x3ca;" horiz-adv-x="282" d="M51 0 L111 0 L210 560 L150 560 L51 0 Z M288 683 L361 683 L374 757 L301 757 L288 683 Z M41 683 L114 683 L127 757 L54 757 L41 683 Z " />
<glyph glyph-name="upsilondieresis" unicode="&#x3cb;" horiz-adv-x="1018" d="M419 0 L480 0 L509 170 L1053 560 L961 560 L484 214 L127 560 L43 560 L449 170 L419 0 Z M657 683 L730 683 L743 757 L670 757 L657 683 Z M410 683 L483 683 L496 757 L423 757 L410 683 Z " />
<glyph glyph-name="omicrontonos" unicode="&#x3cc;" horiz-adv-x="1236" d="M742 -8 C1047 -8 1162 152 1163 326 C1164 461 1081 568 846 568 L600 568 C295 568 182 408 181 234 C180 99 261 -8 496 -8 L742 -8 Z M507 45 C310 45 244 130 244 236 C244 379 340 515 596 515 L837 515 C1033 515 1099 430 1099 322 C1099 183 1005 45 747 45 L507 45 Z M60 360 L93 360 L151 560 L74 560 L60 360 Z " />
<glyph glyph-name="upsilontonos" unicode="&#x3cd;" horiz-adv-x="1174" d="M575 0 L636 0 L665 170 L1209 560 L1117 560 L640 214 L283 560 L199 560 L605 170 L575 0 Z M60 360 L93 360 L151 560 L74 560 L60 360 Z " />
<glyph glyph-name="omegatonos" unicode="&#x3ce;" horiz-adv-x="1231" d="M750 0 L1105 0 L1115 53 L891 53 C1068 114 1141 234 1141 357 C1141 475 1065 568 859 568 L564 568 C289 568 193 423 193 270 C193 181 240 94 353 53 L126 53 L116 0 L470 0 L479 45 C309 74 249 166 249 265 C249 391 334 515 569 515 L842 515 C1021 515 1081 437 1081 339 C1081 210 990 91 758 45 L750 0 Z M60 360 L93 360 L151 560 L74 560 L60 360 Z " />
<glyph glyph-name="uni0400" unicode="&#x400;" horiz-adv-x="1151" d="M61 0 L1011 0 L1021 60 L137 60 L183 322 L969 322 L980 378 L194 378 L240 640 L1124 640 L1136 700 L186 700 L61 0 Z M647 946 L570 946 L682 775 L722 775 L647 946 Z " />
<glyph glyph-name="uni0401" unicode="&#x401;" horiz-adv-x="1151" d="M61 0 L1011 0 L1021 60 L137 60 L183 322 L969 322 L980 378 L194 378 L240 640 L1124 640 L1136 700 L186 700 L61 0 Z M756 823 L829 823 L842 897 L769 897 L756 823 Z M509 823 L582 823 L595 897 L522 897 L509 823 Z " />
<glyph glyph-name="uni0402" unicode="&#x402;" horiz-adv-x="1300" d="M643 0 L975 0 C1167 0 1243 103 1243 219 C1243 309 1188 378 1042 378 L403 378 L450 640 L969 640 L980 700 L98 700 L87 640 L384 640 L270 0 L336 0 L394 322 L1030 322 C1137 322 1174 275 1174 213 C1174 132 1120 60 982 60 L654 60 L643 0 Z " />
<glyph glyph-name="uni0403" unicode="&#x403;" horiz-adv-x="1084" d="M61 0 L127 0 L240 640 L1105 640 L1117 700 L186 700 L61 0 Z M594 775 L640 775 L815 946 L731 946 L594 775 Z " />
<glyph glyph-name="uni0404" unicode="&#x404;" horiz-adv-x="1137" d="M140 304 L140 322 L955 322 L965 378 L147 378 C175 519 292 640 552 640 L1110 640 L1121 700 L556 700 C210 700 70 507 70 296 C70 130 172 0 440 0 L996 0 L1006 60 L450 60 C220 60 140 167 140 304 L140 304 Z " />
<glyph glyph-name="uni0405" unicode="&#x405;" horiz-adv-x="1159" d="M803 60 L62 60 L51 0 L795 0 C986 0 1064 103 1064 219 C1064 309 1009 378 862 378 L314 378 C207 378 171 425 171 487 C171 568 225 640 361 640 L1102 640 L1113 700 L370 700 C179 700 101 597 101 481 C101 391 156 322 302 322 L851 322 C958 322 994 275 994 213 C994 132 940 60 803 60 L803 60 Z " />
<glyph glyph-name="uni0406" unicode="&#x406;" horiz-adv-x="308" d="M61 0 L127 0 L252 700 L186 700 L61 0 Z " />
<glyph glyph-name="uni0407" unicode="&#x407;" horiz-adv-x="308" d="M61 0 L127 0 L252 700 L186 700 L61 0 Z M324 823 L397 823 L410 897 L337 897 L324 823 Z M77 823 L150 823 L163 897 L90 897 L77 823 Z " />
<glyph glyph-name="uni0408" unicode="&#x408;" horiz-adv-x="1182" d="M310 -5 L615 -5 C912 -5 1022 114 1056 307 L1126 700 L1060 700 L992 323 C962 156 868 55 623 55 L324 55 C122 55 72 151 97 273 L106 318 L41 318 L33 275 C2 123 68 -5 310 -5 L310 -5 Z " />
<glyph glyph-name="uni0409" unicode="&#x409;" horiz-adv-x="1787" d="M821 0 L1438 0 C1651 0 1735 111 1735 243 C1735 341 1676 420 1513 420 L963 420 L1012 700 L366 700 L205 186 C182 113 136 60 26 60 L-17 60 L-28 0 L16 0 C174 0 237 78 266 172 L413 640 L935 640 L821 0 Z M1445 60 L898 60 L952 360 L1500 360 C1624 360 1666 304 1666 233 C1666 142 1603 60 1445 60 L1445 60 Z " />
<glyph glyph-name="uni040A" unicode="&#x40a;" horiz-adv-x="1801" d="M834 0 L1451 0 C1664 0 1749 111 1749 243 C1749 341 1690 420 1527 420 L976 420 L1026 700 L960 700 L910 420 L203 420 L252 700 L186 700 L61 0 L127 0 L191 360 L899 360 L834 0 Z M1459 60 L911 60 L965 360 L1514 360 C1638 360 1680 304 1680 234 C1680 142 1617 60 1459 60 L1459 60 Z " />
<glyph glyph-name="uni040B" unicode="&#x40b;" horiz-adv-x="1329" d="M1205 0 L1238 184 C1257 293 1223 377 1054 377 L403 377 L449 640 L969 640 L980 700 L98 700 L86 640 L383 640 L269 0 L335 0 L391 316 L1042 316 C1164 316 1185 259 1171 181 L1140 0 L1205 0 Z " />
<glyph glyph-name="uni040C" unicode="&#x40c;" horiz-adv-x="1233" d="M568 775 L614 775 L789 946 L705 946 L568 775 Z M619 352 L1209 700 L1097 700 L558 380 L194 380 L252 700 L186 700 L61 0 L127 0 L182 320 L556 320 L1058 0 L1166 0 L619 352 Z " />
<glyph glyph-name="uni040D" unicode="&#x40d;" horiz-adv-x="1252" d="M687 946 L610 946 L722 775 L762 775 L687 946 Z M1116 623 L1005 0 L1071 0 L1196 700 L1131 700 L140 77 L252 700 L186 700 L61 0 L126 0 L1116 623 Z " />
<glyph glyph-name="uni040E" unicode="&#x40e;" horiz-adv-x="1198" d="M693 834 C611 834 588 880 593 932 L557 932 C550 863 572 788 686 788 C799 788 848 862 865 932 L827 932 C813 880 775 834 693 834 L693 834 Z M347 0 L1263 700 L1162 700 L588 255 L163 700 L71 700 L538 218 L247 0 L347 0 Z " />
<glyph glyph-name="uni040F" unicode="&#x40f;" horiz-adv-x="1253" d="M1016 60 L137 60 L252 700 L186 700 L61 0 L534 0 L506 -150 L572 -150 L600 0 L1072 0 L1197 700 L1131 700 L1016 60 Z " />
<glyph glyph-name="uni0410" unicode="&#x410;" horiz-adv-x="1215" d="M1065 0 L1143 0 L708 700 L637 700 L-47 0 L38 0 L178 144 L975 144 L1065 0 Z M665 645 L941 200 L232 200 L665 645 Z " />
<glyph glyph-name="uni0411" unicode="&#x411;" horiz-adv-x="1186" d="M61 0 L823 0 C1014 0 1092 103 1092 219 C1092 309 1037 378 890 378 L194 378 L241 640 L1106 640 L1117 700 L186 700 L61 0 Z M831 60 L138 60 L184 322 L879 322 C986 322 1022 275 1022 213 C1022 132 968 60 831 60 L831 60 Z " />
<glyph glyph-name="uni0412" unicode="&#x412;" horiz-adv-x="1209" d="M61 0 L847 0 C1031 0 1104 102 1104 213 C1104 283 1065 341 974 357 C1072 389 1117 462 1117 555 C1117 636 1064 700 927 700 L186 700 L61 0 Z M888 322 C998 322 1035 274 1035 214 C1035 134 981 60 843 60 L138 60 L183 322 L888 322 Z M1046 531 C1046 457 996 378 860 378 L194 378 L240 640 L900 640 C1008 640 1046 592 1046 531 L1046 531 Z " />
<glyph glyph-name="uni0413" unicode="&#x413;" horiz-adv-x="1084" d="M61 0 L127 0 L240 640 L1105 640 L1117 700 L186 700 L61 0 Z " />
<glyph glyph-name="uni0414" unicode="&#x414;" horiz-adv-x="1200" d="M38 0 L1008 0 L980 -150 L1046 -150 L1085 60 L1001 60 L1116 700 L366 700 L205 186 C182 112 140 60 29 60 L-18 60 L-55 -150 L11 -150 L38 0 Z M411 640 L1038 640 L935 60 L163 60 C223 85 255 134 272 191 L411 640 Z " />
<glyph glyph-name="uni0415" unicode="&#x415;" horiz-adv-x="1151" d="M61 0 L1011 0 L1021 60 L137 60 L183 322 L969 322 L980 378 L194 378 L240 640 L1124 640 L1136 700 L186 700 L61 0 Z " />
<glyph glyph-name="uni0416" unicode="&#x416;" horiz-adv-x="1555" d="M1053 351 L1544 700 L1447 700 L996 380 L818 380 L876 700 L810 700 L752 380 L568 380 L232 700 L144 700 L509 351 L-37 0 L67 0 L566 320 L741 320 L685 0 L751 0 L807 320 L991 320 L1378 0 L1474 0 L1053 351 Z " />
<glyph glyph-name="uni0417" unicode="&#x417;" horiz-adv-x="1218" d="M10 0 L857 0 C1041 0 1113 102 1113 213 C1113 283 1073 341 983 357 C1081 389 1126 462 1126 555 C1126 636 1073 700 936 700 L155 700 L144 640 L909 640 C1017 640 1055 593 1055 531 C1055 457 1004 378 869 378 L180 378 L170 322 L898 322 C1007 322 1045 274 1045 214 C1045 133 990 60 852 60 L21 60 L10 0 Z " />
<glyph glyph-name="uni0418" unicode="&#x418;" horiz-adv-x="1252" d="M1116 623 L1005 0 L1071 0 L1196 700 L1131 700 L140 77 L252 700 L186 700 L61 0 L126 0 L1116 623 Z " />
<glyph glyph-name="uni0419" unicode="&#x419;" horiz-adv-x="1252" d="M711 834 C629 834 606 880 611 932 L575 932 C568 863 590 788 704 788 C817 788 866 862 883 932 L845 932 C831 880 793 834 711 834 L711 834 Z M1116 623 L1005 0 L1071 0 L1196 700 L1131 700 L140 77 L252 700 L186 700 L61 0 L126 0 L1116 623 Z " />
<glyph glyph-name="uni041A" unicode="&#x41a;" horiz-adv-x="1233" d="M619 352 L1209 700 L1097 700 L558 380 L194 380 L252 700 L186 700 L61 0 L127 0 L182 320 L556 320 L1058 0 L1166 0 L619 352 Z " />
<glyph glyph-name="uni041B" unicode="&#x41b;" horiz-adv-x="1207" d="M366 700 L205 186 C182 113 136 60 26 60 L-18 60 L-28 0 L16 0 C174 0 237 78 266 172 L411 640 L1073 640 L960 0 L1026 0 L1151 700 L366 700 Z " />
<glyph glyph-name="uni041C" unicode="&#x41c;" horiz-adv-x="1389" d="M1266 700 L651 121 L244 700 L186 700 L61 0 L126 0 L234 609 L639 32 L1249 609 L1143 0 L1208 0 L1333 700 L1266 700 Z " />
<glyph glyph-name="uni041D" unicode="&#x41d;" horiz-adv-x="1253" d="M1006 0 L1072 0 L1197 700 L1131 700 L1074 380 L194 380 L252 700 L186 700 L61 0 L127 0 L182 320 L1062 320 L1006 0 Z " />
<glyph glyph-name="uni041E" unicode="&#x41e;" horiz-adv-x="1294" d="M729 -10 C1091 -10 1227 189 1227 412 C1227 580 1120 710 849 710 L570 710 C212 710 70 514 70 294 C70 122 177 -10 450 -10 L729 -10 Z M462 50 C224 50 140 159 140 302 C140 479 254 650 569 650 L837 650 C1073 650 1157 542 1157 402 C1157 223 1046 50 730 50 L462 50 Z " />
<glyph glyph-name="uni041F" unicode="&#x41f;" horiz-adv-x="1253" d="M1006 0 L1072 0 L1197 700 L186 700 L61 0 L127 0 L240 640 L1119 640 L1006 0 Z " />
<glyph glyph-name="uni0420" unicode="&#x420;" horiz-adv-x="1148" d="M61 0 L127 0 L176 280 L848 280 C1061 280 1145 391 1145 523 C1145 621 1086 700 923 700 L186 700 L61 0 Z M910 640 C1034 640 1076 584 1076 513 C1076 422 1013 340 855 340 L187 340 L240 640 L910 640 Z " />
<glyph glyph-name="uni0421" unicode="&#x421;" horiz-adv-x="1137" d="M140 304 C140 474 248 640 552 640 L1110 640 L1121 700 L556 700 C210 700 70 507 70 296 C70 130 172 0 440 0 L996 0 L1006 60 L450 60 C220 60 140 167 140 304 L140 304 Z " />
<glyph glyph-name="uni0422" unicode="&#x422;" horiz-adv-x="1137" d="M86 640 L589 640 L475 0 L541 0 L655 640 L1158 640 L1169 700 L98 700 L86 640 Z " />
<glyph glyph-name="uni0423" unicode="&#x423;" horiz-adv-x="1198" d="M347 0 L1263 700 L1162 700 L588 255 L163 700 L71 700 L538 218 L247 0 L347 0 Z " />
<glyph glyph-name="uni0424" unicode="&#x424;" horiz-adv-x="1253" d="M797 62 C1092 62 1204 220 1204 398 C1204 530 1118 638 899 638 L713 638 L733 750 L667 750 L647 638 L461 638 C168 638 54 476 54 300 C54 166 141 62 359 62 L544 62 L524 -50 L590 -50 L610 62 L797 62 Z M889 578 C1070 578 1134 494 1134 387 C1134 249 1036 122 800 122 L621 122 L702 578 L889 578 Z M126 311 C126 448 224 578 458 578 L636 578 L555 122 L369 122 C188 122 126 204 126 311 L126 311 Z " />
<glyph glyph-name="uni0425" unicode="&#x425;" horiz-adv-x="1178" d="M97 700 L541 351 L-33 0 L78 0 L589 317 L991 0 L1093 0 L643 351 L1213 700 L1102 700 L594 386 L199 700 L97 700 Z " />
<glyph glyph-name="uni0426" unicode="&#x426;" horiz-adv-x="1245" d="M981 60 L137 60 L252 700 L186 700 L61 0 L1053 0 L1025 -150 L1091 -150 L1130 60 L1047 60 L1162 700 L1096 700 L981 60 Z " />
<glyph glyph-name="uni0427" unicode="&#x427;" horiz-adv-x="1177" d="M128 700 L86 471 C67 362 101 278 271 278 L979 278 L930 0 L995 0 L1121 700 L1055 700 L990 338 L282 338 C160 338 138 395 152 473 L194 700 L128 700 Z " />
<glyph glyph-name="uni0428" unicode="&#x428;" horiz-adv-x="1535" d="M1298 60 L750 60 L865 700 L799 700 L684 60 L137 60 L252 700 L186 700 L61 0 L1354 0 L1480 700 L1414 700 L1298 60 Z " />
<glyph glyph-name="uni0429" unicode="&#x429;" horiz-adv-x="1529" d="M1264 60 L733 60 L848 700 L782 700 L667 60 L137 60 L252 700 L186 700 L61 0 L1337 0 L1309 -150 L1375 -150 L1413 60 L1330 60 L1445 700 L1379 700 L1264 60 Z " />
<glyph glyph-name="uni042A" unicode="&#x42a;" horiz-adv-x="1300" d="M270 0 L949 0 C1162 0 1247 111 1247 243 C1247 341 1188 420 1025 420 L412 420 L461 700 L98 700 L87 640 L384 640 L270 0 Z M401 360 L1012 360 C1136 360 1178 304 1178 233 C1178 142 1115 60 957 60 L347 60 L401 360 Z " />
<glyph glyph-name="uni042B" unicode="&#x42b;" horiz-adv-x="1453" d="M1209 0 L1275 0 L1400 700 L1334 700 L1209 0 Z M61 0 L798 0 C1011 0 1096 111 1096 243 C1096 341 1037 420 874 420 L203 420 L252 700 L186 700 L61 0 Z M191 360 L861 360 C985 360 1027 304 1027 233 C1027 142 964 60 806 60 L138 60 L191 360 Z " />
<glyph glyph-name="uni042C" unicode="&#x42c;" horiz-adv-x="1148" d="M61 0 L798 0 C1011 0 1096 111 1096 243 C1096 341 1037 420 874 420 L203 420 L252 700 L186 700 L61 0 Z M191 360 L861 360 C985 360 1027 304 1027 233 C1027 142 964 60 806 60 L138 60 L191 360 Z " />
<glyph glyph-name="uni042D" unicode="&#x42d;" horiz-adv-x="1137" d="M1000 396 C1000 390 1000 384 999 378 L185 378 L175 322 L993 322 C964 181 847 60 588 60 L30 60 L19 0 L584 0 C930 0 1070 193 1070 404 C1070 570 968 700 700 700 L144 700 L134 640 L690 640 C920 640 1000 533 1000 396 L1000 396 Z " />
<glyph glyph-name="uni042E" unicode="&#x42e;" horiz-adv-x="1804" d="M1239 -10 C1601 -10 1737 189 1737 412 C1737 580 1630 710 1359 710 L1128 710 C816 710 669 562 636 380 L194 380 L252 700 L186 700 L61 0 L127 0 L182 320 L629 320 C628 311 628 302 628 294 C628 122 735 -10 1007 -10 L1239 -10 Z M1020 50 C781 50 698 159 698 302 C698 479 812 650 1127 650 L1347 650 C1583 650 1667 542 1667 402 C1667 223 1556 50 1240 50 L1020 50 Z " />
<glyph glyph-name="uni042F" unicode="&#x42f;" horiz-adv-x="1225" d="M1171 700 L450 700 C238 700 152 590 152 458 C152 360 212 282 375 282 L487 282 L-52 0 L64 0 L595 281 L1029 281 L979 0 L1045 0 L1171 700 Z M221 466 C221 558 284 640 444 640 L1094 640 L1040 339 L387 339 C263 339 221 395 221 466 L221 466 Z " />
<glyph glyph-name="uni0430" unicode="&#x430;" horiz-adv-x="1040" d="M895 0 L967 0 L593 560 L527 560 L-46 0 L32 0 L153 119 L815 119 L895 0 Z M554 511 L783 167 L202 167 L554 511 Z " />
<glyph glyph-name="uni0431" unicode="&#x431;" horiz-adv-x="1021" d="M51 0 L704 0 C873 0 926 88 926 178 C926 249 882 303 759 303 L166 303 L201 507 L933 507 L944 560 L152 560 L51 0 Z M158 257 L747 257 C835 257 863 221 863 173 C863 110 825 53 708 53 L121 53 L158 257 Z " />
<glyph glyph-name="uni0432" unicode="&#x432;" horiz-adv-x="1041" d="M51 0 L725 0 C886 0 935 83 935 171 C935 227 906 273 829 286 C914 312 943 379 943 442 C943 509 902 560 786 560 L150 560 L51 0 Z M720 53 L120 53 L156 256 L755 256 C848 256 872 218 872 170 C872 107 836 53 720 53 L720 53 Z M763 507 C852 507 879 472 879 423 C879 365 845 304 732 304 L165 304 L201 507 L763 507 Z " />
<glyph glyph-name="uni0433" unicode="&#x433;" horiz-adv-x="947" d="M51 0 L111 0 L201 507 L933 507 L942 560 L150 560 L51 0 Z " />
<glyph glyph-name="uni0434" unicode="&#x434;" horiz-adv-x="1043" d="M45 0 L862 0 L839 -120 L899 -120 L931 53 L860 53 L950 560 L312 560 L180 150 C162 93 128 53 35 53 L-6 53 L-38 -120 L22 -120 L45 0 Z M355 507 L881 507 L800 53 L156 53 C205 73 227 110 242 156 L355 507 Z " />
<glyph glyph-name="uni0435" unicode="&#x435;" horiz-adv-x="993" d="M51 0 L859 0 L868 53 L120 53 L156 256 L820 256 L829 304 L165 304 L201 507 L949 507 L958 560 L150 560 L51 0 Z " />
<glyph glyph-name="uni0436" unicode="&#x436;" horiz-adv-x="1338" d="M896 280 L1304 560 L1218 560 L849 307 L694 307 L738 560 L679 560 L634 307 L477 307 L196 560 L113 560 L421 280 L-33 0 L60 0 L471 253 L624 253 L579 0 L639 0 L683 253 L839 253 L1162 0 L1252 0 L896 280 Z " />
<glyph glyph-name="uni0437" unicode="&#x437;" horiz-adv-x="1045" d="M5 0 L730 0 C891 0 941 83 941 171 C941 227 911 273 834 286 C920 312 949 379 949 442 C949 509 908 560 792 560 L123 560 L112 507 L769 507 C858 507 885 472 885 423 C885 365 851 304 738 304 L147 304 L139 256 L761 256 C854 256 878 218 878 170 C878 107 841 53 726 53 L15 53 L5 0 Z " />
<glyph glyph-name="uni0438" unicode="&#x438;" horiz-adv-x="1082" d="M938 492 L851 0 L911 0 L1010 560 L951 560 L123 68 L210 560 L150 560 L51 0 L110 0 L938 492 Z " />
<glyph glyph-name="uni0439" unicode="&#x439;" horiz-adv-x="1082" d="M601 694 C519 694 496 740 501 792 L465 792 C458 723 480 648 594 648 C707 648 756 722 773 792 L735 792 C721 740 683 694 601 694 L601 694 Z M938 492 L851 0 L911 0 L1010 560 L951 560 L123 68 L210 560 L150 560 L51 0 L110 0 L938 492 Z " />
<glyph glyph-name="uni043A" unicode="&#x43a;" horiz-adv-x="1066" d="M526 281 L1021 560 L919 560 L470 307 L166 307 L210 560 L150 560 L51 0 L111 0 L155 253 L468 253 L890 0 L992 0 L526 281 Z " />
<glyph glyph-name="uni043B" unicode="&#x43b;" horiz-adv-x="1052" d="M355 507 L911 507 L821 0 L881 0 L980 560 L312 560 L180 150 C162 92 131 53 41 53 L-6 53 L-15 0 L39 0 C167 0 211 60 236 138 L355 507 Z " />
<glyph glyph-name="uni043C" unicode="&#x43c;" horiz-adv-x="1198" d="M1064 560 L553 104 L203 560 L150 560 L51 0 L110 0 L196 479 L543 25 L1053 479 L967 0 L1027 0 L1126 560 L1064 560 Z " />
<glyph glyph-name="uni043D" unicode="&#x43d;" horiz-adv-x="1083" d="M852 0 L912 0 L1011 560 L951 560 L906 307 L166 307 L210 560 L150 560 L51 0 L111 0 L155 253 L896 253 L852 0 Z " />
<glyph glyph-name="uni043E" unicode="&#x43e;" horiz-adv-x="1110" d="M615 -8 C920 -8 1035 152 1036 326 C1037 461 954 568 719 568 L473 568 C168 568 55 408 54 234 C53 99 134 -8 369 -8 L615 -8 Z M380 45 C183 45 117 130 117 236 C117 379 213 515 469 515 L710 515 C906 515 972 430 972 322 C972 183 878 45 620 45 L380 45 Z " />
<glyph glyph-name="uni043F" unicode="&#x43f;" horiz-adv-x="1083" d="M852 0 L912 0 L1011 560 L150 560 L51 0 L111 0 L201 507 L941 507 L852 0 Z " />
<glyph glyph-name="uni0440" unicode="&#x440;" horiz-adv-x="1000" d="M51 0 L111 0 L150 221 L721 221 C908 221 968 317 968 418 C968 497 919 560 782 560 L150 560 L51 0 Z M771 507 C872 507 905 465 905 410 C905 341 863 275 729 275 L160 275 L201 507 L771 507 Z " />
<glyph glyph-name="uni0441" unicode="&#x441;" horiz-adv-x="975" d="M118 239 C118 375 210 507 459 507 L933 507 L944 560 L462 560 C161 560 54 400 54 232 C54 102 136 0 361 0 L843 0 L852 53 L367 53 C181 53 118 132 118 239 L118 239 Z " />
<glyph glyph-name="uni0442" unicode="&#x442;" horiz-adv-x="1000" d="M75 507 L500 507 L410 0 L470 0 L560 507 L986 507 L995 560 L84 560 L75 507 Z " />
<glyph glyph-name="uni0443" unicode="&#x443;" horiz-adv-x="1022" d="M291 0 L1059 560 L967 560 L490 209 L128 560 L45 560 L444 175 L199 0 L291 0 Z " />
<glyph glyph-name="uni0444" unicode="&#x444;" horiz-adv-x="1085" d="M684 50 C936 50 1022 178 1022 319 C1022 425 953 510 766 510 L604 510 L620 600 L559 600 L543 510 L382 510 C132 510 44 379 44 240 C44 132 112 50 300 50 L461 50 L444 -40 L505 -40 L522 50 L684 50 Z M757 457 C907 457 956 393 956 312 C956 204 888 103 689 103 L531 103 L594 457 L757 457 Z M307 103 C158 103 108 167 108 248 C108 356 176 457 376 457 L534 457 L471 103 L307 103 Z " />
<glyph glyph-name="uni0445" unicode="&#x445;" horiz-adv-x="1023" d="M76 560 L455 282 L-27 0 L75 0 L500 249 L838 0 L931 0 L547 282 L1027 560 L924 560 L504 313 L169 560 L76 560 Z " />
<glyph glyph-name="uni0446" unicode="&#x446;" horiz-adv-x="1073" d="M830 53 L120 53 L210 560 L150 560 L51 0 L892 0 L869 -120 L929 -120 L961 53 L890 53 L980 560 L920 560 L830 53 Z " />
<glyph glyph-name="uni0447" unicode="&#x447;" horiz-adv-x="1016" d="M823 220 L784 0 L845 0 L944 560 L884 560 L833 273 L225 273 C130 273 116 315 128 378 L159 560 L99 560 L67 374 C51 287 75 220 215 220 L823 220 Z " />
<glyph glyph-name="uni0448" unicode="&#x448;" horiz-adv-x="1323" d="M1101 53 L639 53 L731 560 L670 560 L580 53 L120 53 L210 560 L150 560 L51 0 L1152 0 L1251 560 L1191 560 L1101 53 Z " />
<glyph glyph-name="uni0449" unicode="&#x449;" horiz-adv-x="1314" d="M1071 53 L625 53 L716 560 L655 560 L565 53 L120 53 L210 560 L150 560 L51 0 L1133 0 L1110 -120 L1170 -120 L1202 53 L1131 53 L1221 560 L1161 560 L1071 53 Z " />
<glyph glyph-name="uni044A" unicode="&#x44a;" horiz-adv-x="1138" d="M396 560 L84 560 L75 507 L328 507 L237 0 L819 0 C1006 0 1066 96 1066 197 C1066 275 1017 339 880 339 L357 339 L396 560 Z M827 53 L306 53 L348 285 L868 285 C970 285 1003 244 1003 188 C1003 120 960 53 827 53 L827 53 Z " />
<glyph glyph-name="uni044B" unicode="&#x44b;" horiz-adv-x="1280" d="M1051 0 L1111 0 L1210 560 L1150 560 L1051 0 Z M210 560 L150 560 L51 0 L682 0 C869 0 929 96 929 197 C929 275 880 339 743 339 L171 339 L210 560 Z M162 285 L731 285 C833 285 866 244 866 188 C866 120 823 53 690 53 L120 53 L162 285 Z " />
<glyph glyph-name="uni044C" unicode="&#x44c;" horiz-adv-x="1000" d="M210 560 L150 560 L51 0 L682 0 C869 0 929 96 929 197 C929 275 880 339 743 339 L171 339 L210 560 Z M162 285 L731 285 C833 285 866 244 866 188 C866 120 823 53 690 53 L120 53 L162 285 Z " />
<glyph glyph-name="uni044D" unicode="&#x44d;" horiz-adv-x="976" d="M838 321 C838 315 838 309 837 304 L153 304 L143 256 L830 256 C804 146 706 53 497 53 L23 53 L12 0 L494 0 C795 0 902 160 902 328 C902 458 820 560 595 560 L113 560 L104 507 L589 507 C775 507 838 428 838 321 L838 321 Z " />
<glyph glyph-name="uni044E" unicode="&#x44e;" horiz-adv-x="1547" d="M1053 -8 C1358 -8 1473 152 1474 326 C1475 461 1392 568 1157 568 L951 568 C689 568 569 450 539 307 L166 307 L210 560 L150 560 L51 0 L111 0 L155 253 L532 253 L532 234 C531 99 612 -8 847 -8 L1053 -8 Z M858 45 C661 45 595 130 595 236 C595 379 691 515 947 515 L1148 515 C1344 515 1410 430 1410 322 C1410 183 1316 45 1058 45 L858 45 Z " />
<glyph glyph-name="uni044F" unicode="&#x44f;" horiz-adv-x="1061" d="M991 560 L372 560 C184 560 124 464 124 362 C124 285 177 223 311 223 L405 223 L-43 0 L64 0 L505 222 L869 222 L830 0 L890 0 L991 560 Z M920 507 L879 274 L323 274 C220 274 188 316 188 371 C188 440 231 507 365 507 L920 507 Z " />
<glyph glyph-name="uni0450" unicode="&#x450;" horiz-adv-x="993" d="M51 0 L859 0 L868 53 L120 53 L156 256 L820 256 L829 304 L165 304 L201 507 L949 507 L958 560 L150 560 L51 0 Z M545 806 L468 806 L580 635 L620 635 L545 806 Z " />
<glyph glyph-name="uni0451" unicode="&#x451;" horiz-adv-x="993" d="M51 0 L859 0 L868 53 L120 53 L156 256 L820 256 L829 304 L165 304 L201 507 L949 507 L958 560 L150 560 L51 0 Z M654 683 L727 683 L740 757 L667 757 L654 683 Z M407 683 L480 683 L493 757 L420 757 L407 683 Z " />
<glyph glyph-name="uni0452" unicode="&#x452;" horiz-adv-x="1138" d="M555 0 L841 0 C1010 0 1063 88 1063 178 C1063 249 1019 303 896 303 L352 303 L388 507 L825 507 L836 560 L86 560 L75 507 L328 507 L237 0 L297 0 L344 257 L884 257 C972 257 1000 221 1000 173 C1000 110 962 53 845 53 L565 53 L555 0 Z " />
<glyph glyph-name="uni0453" unicode="&#x453;" horiz-adv-x="947" d="M51 0 L111 0 L201 507 L933 507 L942 560 L150 560 L51 0 Z M498 635 L544 635 L719 806 L635 806 L498 635 Z " />
<glyph glyph-name="uni0454" unicode="&#x454;" horiz-adv-x="976" d="M118 239 L118 256 L803 256 L813 304 L125 304 C152 414 250 507 459 507 L933 507 L944 560 L462 560 C161 560 54 400 54 232 C54 102 136 0 361 0 L843 0 L852 53 L367 53 C181 53 118 132 118 239 L118 239 Z " />
<glyph glyph-name="uni0455" unicode="&#x455;" horiz-adv-x="992" d="M678 53 L48 53 L38 0 L674 0 C843 0 897 88 897 178 C897 249 852 303 729 303 L254 303 C167 303 138 339 138 387 C138 450 176 507 294 507 L924 507 L935 560 L298 560 C129 560 76 472 76 382 C76 311 120 257 243 257 L718 257 C805 257 834 221 834 173 C834 110 796 53 678 53 L678 53 Z " />
<glyph glyph-name="uni0456" unicode="&#x456;" horiz-adv-x="282" d="M51 0 L111 0 L210 560 L150 560 L51 0 Z " />
<glyph glyph-name="uni0457" unicode="&#x457;" horiz-adv-x="282" d="M51 0 L111 0 L210 560 L150 560 L51 0 Z M288 683 L361 683 L374 757 L301 757 L288 683 Z M41 683 L114 683 L127 757 L54 757 L41 683 Z " />
<glyph glyph-name="uni0458" unicode="&#x458;" horiz-adv-x="1001" d="M257 -4 L532 -4 C778 -4 866 89 894 247 L949 560 L889 560 L835 261 C812 129 747 49 537 49 L262 49 C99 49 63 122 81 218 L88 256 L29 256 L22 220 C-2 98 49 -4 257 -4 L257 -4 Z " />
<glyph glyph-name="uni0459" unicode="&#x459;" horiz-adv-x="1552" d="M864 560 L312 560 L180 150 C162 92 131 53 41 53 L-6 53 L-15 0 L39 0 C167 0 211 60 236 138 L355 507 L794 507 L704 0 L1234 0 C1421 0 1481 96 1481 197 C1481 275 1432 339 1295 339 L824 339 L864 560 Z M815 285 L1283 285 C1385 285 1418 244 1418 188 C1418 120 1375 53 1242 53 L773 53 L815 285 Z " />
<glyph glyph-name="uni045A" unicode="&#x45a;" horiz-adv-x="1555" d="M867 560 L806 560 L767 339 L171 339 L210 560 L150 560 L51 0 L111 0 L162 285 L758 285 L707 0 L1237 0 C1424 0 1484 96 1484 197 C1484 275 1435 339 1298 339 L827 339 L867 560 Z M1245 53 L776 53 L818 285 L1286 285 C1388 285 1421 244 1421 188 C1421 120 1378 53 1245 53 L1245 53 Z " />
<glyph glyph-name="uni045B" unicode="&#x45b;" horiz-adv-x="1154" d="M902 250 C996 250 1010 209 999 146 L973 0 L1033 0 L1060 149 C1075 236 1052 303 911 303 L351 303 L388 507 L825 507 L834 560 L84 560 L75 507 L328 507 L236 0 L297 0 L341 251 L902 250 Z " />
<glyph glyph-name="uni045C" unicode="&#x45c;" horiz-adv-x="1066" d="M463 635 L509 635 L684 806 L600 806 L463 635 Z M526 281 L1021 560 L919 560 L470 307 L166 307 L210 560 L150 560 L51 0 L111 0 L155 253 L468 253 L890 0 L992 0 L526 281 Z " />
<glyph glyph-name="uni045D" unicode="&#x45d;" horiz-adv-x="1082" d="M578 806 L501 806 L613 635 L653 635 L578 806 Z M938 492 L851 0 L911 0 L1010 560 L951 560 L123 68 L210 560 L150 560 L51 0 L110 0 L938 492 Z " />
<glyph glyph-name="uni045E" unicode="&#x45e;" horiz-adv-x="1022" d="M580 694 C498 694 475 740 480 792 L444 792 C437 723 459 648 573 648 C686 648 735 722 752 792 L714 792 C700 740 662 694 580 694 L580 694 Z M291 0 L1059 560 L967 560 L490 209 L128 560 L45 560 L444 175 L199 0 L291 0 Z " />
<glyph glyph-name="uni045F" unicode="&#x45f;" horiz-adv-x="1083" d="M861 53 L120 53 L210 560 L150 560 L51 0 L452 0 L428 -120 L489 -120 L512 0 L912 0 L1011 560 L951 560 L861 53 Z " />
<glyph glyph-name="uni0490" unicode="&#x490;" horiz-adv-x="1084" d="M1051 700 L186 700 L61 0 L127 0 L240 640 L1105 640 L1143 850 L1077 850 L1051 700 Z " />
<glyph glyph-name="uni0491" unicode="&#x491;" horiz-adv-x="947" d="M882 560 L150 560 L51 0 L111 0 L201 507 L933 507 L963 680 L903 680 L882 560 Z " />
<glyph glyph-name="uni1E00" unicode="&#x1e00;" horiz-adv-x="1215" d="M1065 0 L1143 0 L708 700 L637 700 L-47 0 L38 0 L178 144 L975 144 L1065 0 Z M665 645 L941 200 L232 200 L665 645 Z M446 -166 C446 -124 484 -89 526 -89 C563 -89 589 -118 589 -154 C589 -197 552 -232 511 -232 C473 -232 446 -203 446 -166 L446 -166 Z M405 -170 C405 -226 446 -269 506 -269 C574 -269 631 -215 631 -150 C631 -95 589 -52 529 -52 C461 -52 405 -104 405 -170 L405 -170 Z " />
<glyph glyph-name="uni1E01" unicode="&#x1e01;" horiz-adv-x="1040" d="M895 0 L967 0 L593 560 L527 560 L-46 0 L32 0 L153 119 L815 119 L895 0 Z M554 511 L783 167 L202 167 L554 511 Z M358 -166 C358 -124 396 -89 438 -89 C475 -89 501 -118 501 -154 C501 -197 464 -232 423 -232 C385 -232 358 -203 358 -166 L358 -166 Z M317 -170 C317 -226 358 -269 418 -269 C486 -269 543 -215 543 -150 C543 -95 501 -52 441 -52 C373 -52 317 -104 317 -170 L317 -170 Z " />
<glyph glyph-name="uni1E02" unicode="&#x1e02;" horiz-adv-x="1209" d="M61 0 L847 0 C1031 0 1104 102 1104 213 C1104 283 1065 341 974 357 C1072 389 1117 462 1117 555 C1117 636 1064 700 927 700 L186 700 L61 0 Z M888 322 C998 322 1035 274 1035 214 C1035 134 981 60 843 60 L138 60 L183 322 L888 322 Z M1046 531 C1046 457 996 378 860 378 L194 378 L240 640 L900 640 C1008 640 1046 592 1046 531 L1046 531 Z M629 823 L702 823 L714 897 L641 897 L629 823 Z " />
<glyph glyph-name="uni1E03" unicode="&#x1e03;" horiz-adv-x="1041" d="M51 0 L725 0 C886 0 935 83 935 171 C935 227 906 273 829 286 C914 312 943 379 943 442 C943 509 902 560 786 560 L150 560 L51 0 Z M720 53 L120 53 L156 256 L755 256 C848 256 872 218 872 170 C872 107 836 53 720 53 L720 53 Z M763 507 C852 507 879 472 879 423 C879 365 845 304 732 304 L165 304 L201 507 L763 507 Z M520 683 L593 683 L605 757 L532 757 L520 683 Z " />
<glyph glyph-name="uni1E04" unicode="&#x1e04;" horiz-adv-x="1209" d="M61 0 L847 0 C1031 0 1104 102 1104 213 C1104 283 1065 341 974 357 C1072 389 1117 462 1117 555 C1117 636 1064 700 927 700 L186 700 L61 0 Z M888 322 C998 322 1035 274 1035 214 C1035 134 981 60 843 60 L138 60 L183 322 L888 322 Z M1046 531 C1046 457 996 378 860 378 L194 378 L240 640 L900 640 C1008 640 1046 592 1046 531 L1046 531 Z M487 -198 L560 -198 L572 -124 L499 -124 L487 -198 Z " />
<glyph glyph-name="uni1E05" unicode="&#x1e05;" horiz-adv-x="1041" d="M51 0 L725 0 C886 0 935 83 935 171 C935 227 906 273 829 286 C914 312 943 379 943 442 C943 509 902 560 786 560 L150 560 L51 0 Z M720 53 L120 53 L156 256 L755 256 C848 256 872 218 872 170 C872 107 836 53 720 53 L720 53 Z M763 507 C852 507 879 472 879 423 C879 365 845 304 732 304 L165 304 L201 507 L763 507 Z M403 -198 L476 -198 L488 -124 L415 -124 L403 -198 Z " />
<glyph glyph-name="uni1E06" unicode="&#x1e06;" horiz-adv-x="1209" d="M61 0 L847 0 C1031 0 1104 102 1104 213 C1104 283 1065 341 974 357 C1072 389 1117 462 1117 555 C1117 636 1064 700 927 700 L186 700 L61 0 Z M888 322 C998 322 1035 274 1035 214 C1035 134 981 60 843 60 L138 60 L183 322 L888 322 Z M1046 531 C1046 457 996 378 860 378 L194 378 L240 640 L900 640 C1008 640 1046 592 1046 531 L1046 531 Z M343 -183 L709 -183 L717 -139 L351 -139 L343 -183 Z " />
<glyph glyph-name="uni1E07" unicode="&#x1e07;" horiz-adv-x="1041" d="M51 0 L725 0 C886 0 935 83 935 171 C935 227 906 273 829 286 C914 312 943 379 943 442 C943 509 902 560 786 560 L150 560 L51 0 Z M720 53 L120 53 L156 256 L755 256 C848 256 872 218 872 170 C872 107 836 53 720 53 L720 53 Z M763 507 C852 507 879 472 879 423 C879 365 845 304 732 304 L165 304 L201 507 L763 507 Z M259 -183 L625 -183 L633 -139 L267 -139 L259 -183 Z " />
<glyph glyph-name="uni1E08" unicode="&#x1e08;" horiz-adv-x="1137" d="M494 -100 L514 -100 C574 -100 606 -112 606 -150 C606 -202 551 -218 499 -218 C463 -218 427 -209 411 -199 L405 -230 C429 -243 468 -254 508 -254 C581 -254 656 -228 656 -145 C656 -82 592 -64 536 -69 L568 0 L996 0 L1006 60 L450 60 C220 60 140 167 140 304 C140 474 248 640 552 640 L1110 640 L1121 700 L556 700 C210 700 70 507 70 296 C70 130 172 0 440 0 L539 0 L494 -100 Z M629 775 L675 775 L850 946 L766 946 L629 775 Z " />
<glyph glyph-name="uni1E09" unicode="&#x1e09;" horiz-adv-x="975" d="M405 -100 L425 -100 C485 -100 517 -112 517 -150 C517 -202 462 -218 410 -218 C374 -218 338 -209 322 -199 L316 -230 C340 -243 379 -254 419 -254 C492 -254 567 -228 567 -145 C567 -82 503 -64 447 -69 L479 0 L843 0 L852 53 L367 53 C181 53 118 132 118 239 C118 375 210 507 459 507 L933 507 L944 560 L462 560 C161 560 54 400 54 232 C54 102 136 0 361 0 L450 0 L405 -100 Z M515 635 L561 635 L736 806 L652 806 L515 635 Z " />
<glyph glyph-name="uni1E0A" unicode="&#x1e0a;" horiz-adv-x="1205" d="M61 0 L652 0 C998 0 1138 193 1138 404 C1138 569 1036 700 768 700 L186 700 L61 0 Z M758 640 C987 640 1067 532 1067 396 C1067 226 959 60 655 60 L136 60 L239 640 L758 640 Z M636 823 L709 823 L721 897 L648 897 L636 823 Z " />
<glyph glyph-name="uni1E0B" unicode="&#x1e0b;" horiz-adv-x="1038" d="M51 0 L557 0 C858 0 965 160 965 328 C965 458 883 560 658 560 L151 560 L51 0 Z M652 507 C838 507 901 428 901 321 C901 185 809 53 560 53 L121 53 L200 507 L652 507 Z M534 683 L607 683 L619 757 L546 757 L534 683 Z " />
<glyph glyph-name="uni1E0C" unicode="&#x1e0c;" horiz-adv-x="1205" d="M61 0 L652 0 C998 0 1138 193 1138 404 C1138 569 1036 700 768 700 L186 700 L61 0 Z M758 640 C987 640 1067 532 1067 396 C1067 226 959 60 655 60 L136 60 L239 640 L758 640 Z M456 -198 L529 -198 L541 -124 L468 -124 L456 -198 Z " />
<glyph glyph-name="uni1E0D" unicode="&#x1e0d;" horiz-adv-x="1038" d="M51 0 L557 0 C858 0 965 160 965 328 C965 458 883 560 658 560 L151 560 L51 0 Z M652 507 C838 507 901 428 901 321 C901 185 809 53 560 53 L121 53 L200 507 L652 507 Z M378 -198 L451 -198 L463 -124 L390 -124 L378 -198 Z " />
<glyph glyph-name="uni1E0E" unicode="&#x1e0e;" horiz-adv-x="1205" d="M61 0 L652 0 C998 0 1138 193 1138 404 C1138 569 1036 700 768 700 L186 700 L61 0 Z M758 640 C987 640 1067 532 1067 396 C1067 226 959 60 655 60 L136 60 L239 640 L758 640 Z M312 -183 L678 -183 L686 -139 L320 -139 L312 -183 Z " />
<glyph glyph-name="uni1E0F" unicode="&#x1e0f;" horiz-adv-x="1038" d="M51 0 L557 0 C858 0 965 160 965 328 C965 458 883 560 658 560 L151 560 L51 0 Z M652 507 C838 507 901 428 901 321 C901 185 809 53 560 53 L121 53 L200 507 L652 507 Z M234 -183 L600 -183 L608 -139 L242 -139 L234 -183 Z " />
<glyph glyph-name="uni1E10" unicode="&#x1e10;" horiz-adv-x="1205" d="M61 0 L652 0 C998 0 1138 193 1138 404 C1138 569 1036 700 768 700 L186 700 L61 0 Z M758 640 C987 640 1067 532 1067 396 C1067 226 959 60 655 60 L136 60 L239 640 L758 640 Z M456 -198 L487 -198 L436 -293 L466 -293 L528 -194 L540 -124 L469 -124 L456 -198 Z " />
<glyph glyph-name="uni1E11" unicode="&#x1e11;" horiz-adv-x="1038" d="M51 0 L557 0 C858 0 965 160 965 328 C965 458 883 560 658 560 L151 560 L51 0 Z M652 507 C838 507 901 428 901 321 C901 185 809 53 560 53 L121 53 L200 507 L652 507 Z M378 -198 L409 -198 L358 -293 L388 -293 L450 -194 L462 -124 L391 -124 L378 -198 Z " />
<glyph glyph-name="uni1E12" unicode="&#x1e12;" horiz-adv-x="1205" d="M61 0 L652 0 C998 0 1138 193 1138 404 C1138 569 1036 700 768 700 L186 700 L61 0 Z M758 640 C987 640 1067 532 1067 396 C1067 226 959 60 655 60 L136 60 L239 640 L758 640 Z M322 -246 L367 -246 L509 -112 L603 -246 L644 -246 L555 -75 L474 -75 L322 -246 Z " />
<glyph glyph-name="uni1E13" unicode="&#x1e13;" horiz-adv-x="1038" d="M51 0 L557 0 C858 0 965 160 965 328 C965 458 883 560 658 560 L151 560 L51 0 Z M652 507 C838 507 901 428 901 321 C901 185 809 53 560 53 L121 53 L200 507 L652 507 Z M244 -246 L289 -246 L431 -112 L525 -246 L566 -246 L477 -75 L396 -75 L244 -246 Z " />
<glyph glyph-name="uni1E14" unicode="&#x1e14;" horiz-adv-x="1151" d="M61 0 L1011 0 L1021 60 L137 60 L183 322 L969 322 L980 378 L194 378 L240 640 L1124 640 L1136 700 L186 700 L61 0 Z M677 1121 L600 1121 L712 950 L752 950 L677 1121 Z M490 838 L856 838 L864 882 L498 882 L490 838 Z " />
<glyph glyph-name="uni1E15" unicode="&#x1e15;" horiz-adv-x="993" d="M51 0 L859 0 L868 53 L120 53 L156 256 L820 256 L829 304 L165 304 L201 507 L949 507 L958 560 L150 560 L51 0 Z M576 981 L499 981 L611 810 L651 810 L576 981 Z M388 698 L754 698 L762 742 L396 742 L388 698 Z " />
<glyph glyph-name="uni1E16" unicode="&#x1e16;" horiz-adv-x="1151" d="M61 0 L1011 0 L1021 60 L137 60 L183 322 L969 322 L980 378 L194 378 L240 640 L1124 640 L1136 700 L186 700 L61 0 Z M629 950 L675 950 L850 1121 L766 1121 L629 950 Z M490 838 L856 838 L864 882 L498 882 L490 838 Z " />
<glyph glyph-name="uni1E17" unicode="&#x1e17;" horiz-adv-x="993" d="M51 0 L859 0 L868 53 L120 53 L156 256 L820 256 L829 304 L165 304 L201 507 L949 507 L958 560 L150 560 L51 0 Z M528 810 L574 810 L749 981 L665 981 L528 810 Z M388 698 L754 698 L762 742 L396 742 L388 698 Z " />
<glyph glyph-name="uni1E18" unicode="&#x1e18;" horiz-adv-x="1151" d="M61 0 L1011 0 L1021 60 L137 60 L183 322 L969 322 L980 378 L194 378 L240 640 L1124 640 L1136 700 L186 700 L61 0 Z M320 -246 L365 -246 L507 -112 L601 -246 L642 -246 L553 -75 L472 -75 L320 -246 Z " />
<glyph glyph-name="uni1E19" unicode="&#x1e19;" horiz-adv-x="993" d="M51 0 L859 0 L868 53 L120 53 L156 256 L820 256 L829 304 L165 304 L201 507 L949 507 L958 560 L150 560 L51 0 Z M242 -246 L287 -246 L429 -112 L523 -246 L564 -246 L475 -75 L394 -75 L242 -246 Z " />
<glyph glyph-name="uni1E1A" unicode="&#x1e1a;" horiz-adv-x="1151" d="M61 0 L1011 0 L1021 60 L137 60 L183 322 L969 322 L980 378 L194 378 L240 640 L1124 640 L1136 700 L186 700 L61 0 Z M638 -94 C619 -159 597 -169 570 -169 C523 -169 495 -102 432 -102 C385 -102 347 -129 321 -227 L355 -227 C373 -163 397 -151 425 -151 C471 -151 498 -218 560 -218 C608 -218 646 -192 672 -94 L638 -94 Z " />
<glyph glyph-name="uni1E1B" unicode="&#x1e1b;" horiz-adv-x="993" d="M51 0 L859 0 L868 53 L120 53 L156 256 L820 256 L829 304 L165 304 L201 507 L949 507 L958 560 L150 560 L51 0 Z M560 -94 C541 -159 519 -169 492 -169 C445 -169 417 -102 354 -102 C307 -102 269 -129 243 -227 L277 -227 C295 -163 319 -151 347 -151 C393 -151 420 -218 482 -218 C530 -218 568 -192 594 -94 L560 -94 Z " />
<glyph glyph-name="uni1E1C" unicode="&#x1e1c;" horiz-adv-x="1151" d="M61 0 L509 0 L464 -100 L484 -100 C544 -100 576 -112 576 -150 C576 -202 521 -218 469 -218 C433 -218 397 -209 381 -199 L375 -230 C399 -243 438 -254 478 -254 C551 -254 626 -228 626 -145 C626 -82 562 -64 506 -69 L538 0 L1011 0 L1021 60 L137 60 L183 322 L969 322 L980 378 L194 378 L240 640 L1124 640 L1136 700 L186 700 L61 0 Z M670 834 C588 834 565 880 570 932 L534 932 C527 863 549 788 663 788 C776 788 825 862 842 932 L804 932 C790 880 752 834 670 834 L670 834 Z " />
<glyph glyph-name="uni1E1D" unicode="&#x1e1d;" horiz-adv-x="993" d="M51 0 L432 0 L387 -100 L407 -100 C467 -100 499 -112 499 -150 C499 -202 444 -218 392 -218 C356 -218 320 -209 304 -199 L298 -230 C322 -243 361 -254 401 -254 C474 -254 549 -228 549 -145 C549 -82 485 -64 429 -69 L461 0 L859 0 L868 53 L120 53 L156 256 L820 256 L829 304 L165 304 L201 507 L949 507 L958 560 L150 560 L51 0 Z M569 694 C487 694 464 740 469 792 L433 792 C426 723 448 648 562 648 C675 648 724 722 741 792 L703 792 C689 740 651 694 569 694 L569 694 Z " />
<glyph glyph-name="uni1E1E" unicode="&#x1e1e;" horiz-adv-x="1113" d="M61 0 L127 0 L182 317 L968 317 L980 377 L194 377 L240 640 L1124 640 L1136 700 L186 700 L61 0 Z M624 823 L697 823 L709 897 L636 897 L624 823 Z " />
<glyph glyph-name="uni1E1F" unicode="&#x1e1f;" horiz-adv-x="976" d="M51 0 L111 0 L155 251 L819 251 L829 303 L165 303 L201 507 L949 507 L958 560 L150 560 L51 0 Z M527 683 L600 683 L612 757 L539 757 L527 683 Z " />
<glyph glyph-name="uni1E20" unicode="&#x1e20;" horiz-adv-x="1206" d="M637 322 L1041 322 L995 60 L450 60 C220 60 140 167 140 304 C140 474 248 640 552 640 L1110 640 L1121 700 L556 700 C210 700 70 507 70 296 C70 130 172 0 440 0 L1049 0 L1116 378 L648 378 L637 322 Z M530 838 L896 838 L904 882 L538 882 L530 838 Z " />
<glyph glyph-name="uni1E21" unicode="&#x1e21;" horiz-adv-x="1038" d="M838 53 L367 53 C181 53 118 132 118 239 C118 375 210 507 459 507 L933 507 L942 560 L462 560 C161 560 54 400 54 232 C54 102 136 0 361 0 L888 0 L942 304 L543 304 L533 256 L873 256 L838 53 Z M410 698 L776 698 L784 742 L418 742 L410 698 Z " />
<glyph glyph-name="uni1E22" unicode="&#x1e22;" horiz-adv-x="1253" d="M1006 0 L1072 0 L1197 700 L1131 700 L1074 380 L194 380 L252 700 L186 700 L61 0 L127 0 L182 320 L1062 320 L1006 0 Z M675 823 L748 823 L760 897 L687 897 L675 823 Z " />
<glyph glyph-name="uni1E23" unicode="&#x1e23;" horiz-adv-x="1083" d="M852 0 L912 0 L1011 560 L951 560 L906 307 L166 307 L210 560 L150 560 L51 0 L111 0 L155 253 L896 253 L852 0 Z M565 683 L638 683 L650 757 L577 757 L565 683 Z " />
<glyph glyph-name="uni1E24" unicode="&#x1e24;" horiz-adv-x="1253" d="M1006 0 L1072 0 L1197 700 L1131 700 L1074 380 L194 380 L252 700 L186 700 L61 0 L127 0 L182 320 L1062 320 L1006 0 Z M495 -198 L568 -198 L580 -124 L507 -124 L495 -198 Z " />
<glyph glyph-name="uni1E25" unicode="&#x1e25;" horiz-adv-x="1083" d="M852 0 L912 0 L1011 560 L951 560 L906 307 L166 307 L210 560 L150 560 L51 0 L111 0 L155 253 L896 253 L852 0 Z M409 -198 L482 -198 L494 -124 L421 -124 L409 -198 Z " />
<glyph glyph-name="uni1E26" unicode="&#x1e26;" horiz-adv-x="1253" d="M1006 0 L1072 0 L1197 700 L1131 700 L1074 380 L194 380 L252 700 L186 700 L61 0 L127 0 L182 320 L1062 320 L1006 0 Z M797 823 L870 823 L883 897 L810 897 L797 823 Z M550 823 L623 823 L636 897 L563 897 L550 823 Z " />
<glyph glyph-name="uni1E27" unicode="&#x1e27;" horiz-adv-x="1083" d="M852 0 L912 0 L1011 560 L951 560 L906 307 L166 307 L210 560 L150 560 L51 0 L111 0 L155 253 L896 253 L852 0 Z M688 683 L761 683 L774 757 L701 757 L688 683 Z M441 683 L514 683 L527 757 L454 757 L441 683 Z " />
<glyph glyph-name="uni1E28" unicode="&#x1e28;" horiz-adv-x="1253" d="M31 -100 L51 -100 C111 -100 143 -112 143 -150 C143 -202 88 -218 36 -218 C0 -218 -36 -209 -52 -199 L-58 -230 C-34 -243 5 -254 45 -254 C118 -254 193 -228 193 -145 C193 -82 129 -64 73 -69 L105 0 L127 0 L182 320 L1062 320 L1006 0 L1072 0 L1197 700 L1131 700 L1074 380 L194 380 L252 700 L186 700 L61 0 L76 0 L31 -100 Z " />
<glyph glyph-name="uni1E29" unicode="&#x1e29;" horiz-adv-x="1083" d="M20 -100 L40 -100 C100 -100 132 -112 132 -150 C132 -202 77 -218 25 -218 C-11 -218 -47 -209 -63 -199 L-69 -230 C-45 -243 -6 -254 34 -254 C107 -254 182 -228 182 -145 C182 -82 118 -64 62 -69 L94 0 L111 0 L155 253 L896 253 L852 0 L912 0 L1011 560 L951 560 L906 307 L166 307 L210 560 L150 560 L51 0 L65 0 L20 -100 Z " />
<glyph glyph-name="uni1E2A" unicode="&#x1e2a;" horiz-adv-x="1253" d="M1006 0 L1072 0 L1197 700 L1131 700 L1074 380 L194 380 L252 700 L186 700 L61 0 L127 0 L182 320 L1062 320 L1006 0 Z M531 -187 C449 -187 426 -141 431 -89 L395 -89 C388 -158 410 -233 524 -233 C637 -233 686 -159 703 -89 L665 -89 C651 -141 613 -187 531 -187 L531 -187 Z " />
<glyph glyph-name="uni1E2B" unicode="&#x1e2b;" horiz-adv-x="1083" d="M852 0 L912 0 L1011 560 L951 560 L906 307 L166 307 L210 560 L150 560 L51 0 L111 0 L155 253 L896 253 L852 0 Z M446 -187 C364 -187 341 -141 346 -89 L310 -89 C303 -158 325 -233 439 -233 C552 -233 601 -159 618 -89 L580 -89 C566 -141 528 -187 446 -187 L446 -187 Z " />
<glyph glyph-name="uni1E2C" unicode="&#x1e2c;" horiz-adv-x="308" d="M61 0 L127 0 L252 700 L186 700 L61 0 Z M205 -94 C186 -159 164 -169 137 -169 C90 -169 62 -102 -1 -102 C-48 -102 -86 -129 -112 -227 L-78 -227 C-60 -163 -36 -151 -8 -151 C38 -151 65 -218 127 -218 C175 -218 213 -192 239 -94 L205 -94 Z " />
<glyph glyph-name="uni1E2D" unicode="&#x1e2d;" horiz-adv-x="282" d="M51 0 L111 0 L210 560 L150 560 L51 0 Z M193 -94 C174 -159 152 -169 125 -169 C78 -169 50 -102 -13 -102 C-60 -102 -98 -129 -124 -227 L-90 -227 C-72 -163 -48 -151 -20 -151 C26 -151 53 -218 115 -218 C163 -218 201 -192 227 -94 L193 -94 Z " />
<glyph glyph-name="uni1E2E" unicode="&#x1e2e;" horiz-adv-x="308" d="M61 0 L127 0 L252 700 L186 700 L61 0 Z M197 953 L243 953 L418 1124 L334 1124 L197 953 Z M324 823 L397 823 L410 897 L337 897 L324 823 Z M77 823 L150 823 L163 897 L90 897 L77 823 Z " />
<glyph glyph-name="uni1E2F" unicode="&#x1e2f;" horiz-adv-x="282" d="M162 813 L208 813 L383 984 L299 984 L162 813 Z M288 683 L361 683 L374 757 L301 757 L288 683 Z M41 683 L114 683 L127 757 L54 757 L41 683 Z M51 0 L111 0 L210 560 L150 560 L51 0 Z " />
<glyph glyph-name="uni1E30" unicode="&#x1e30;" horiz-adv-x="1234" d="M1204 700 L1083 700 L165 215 L251 700 L186 700 L61 0 L126 0 L151 143 L528 342 L1059 0 L1167 0 L590 375 L1204 700 Z M592 775 L638 775 L813 946 L729 946 L592 775 Z " />
<glyph glyph-name="uni1E31" unicode="&#x1e31;" horiz-adv-x="1065" d="M1022 560 L908 560 L142 178 L210 560 L150 560 L51 0 L111 0 L131 112 L449 272 L893 0 L993 0 L504 299 L1022 560 Z M488 635 L534 635 L709 806 L625 806 L488 635 Z " />
<glyph glyph-name="uni1E32" unicode="&#x1e32;" horiz-adv-x="1234" d="M1204 700 L1083 700 L165 215 L251 700 L186 700 L61 0 L126 0 L151 143 L528 342 L1059 0 L1167 0 L590 375 L1204 700 Z M484 -198 L557 -198 L569 -124 L496 -124 L484 -198 Z " />
<glyph glyph-name="uni1E33" unicode="&#x1e33;" horiz-adv-x="1065" d="M1022 560 L908 560 L142 178 L210 560 L150 560 L51 0 L111 0 L131 112 L449 272 L893 0 L993 0 L504 299 L1022 560 Z M402 -198 L475 -198 L487 -124 L414 -124 L402 -198 Z " />
<glyph glyph-name="uni1E34" unicode="&#x1e34;" horiz-adv-x="1234" d="M1204 700 L1083 700 L165 215 L251 700 L186 700 L61 0 L126 0 L151 143 L528 342 L1059 0 L1167 0 L590 375 L1204 700 Z M340 -183 L706 -183 L714 -139 L348 -139 L340 -183 Z " />
<glyph glyph-name="uni1E35" unicode="&#x1e35;" horiz-adv-x="1065" d="M1022 560 L908 560 L142 178 L210 560 L150 560 L51 0 L111 0 L131 112 L449 272 L893 0 L993 0 L504 299 L1022 560 Z M258 -183 L624 -183 L632 -139 L266 -139 L258 -183 Z " />
<glyph glyph-name="uni1E36" unicode="&#x1e36;" horiz-adv-x="1084" d="M252 700 L186 700 L61 0 L992 0 L1001 60 L137 60 L252 700 Z M449 -198 L522 -198 L534 -124 L461 -124 L449 -198 Z " />
<glyph glyph-name="uni1E37" unicode="&#x1e37;" horiz-adv-x="947" d="M210 560 L150 560 L51 0 L843 0 L852 53 L120 53 L210 560 Z M377 -198 L450 -198 L462 -124 L389 -124 L377 -198 Z " />
<glyph glyph-name="uni1E38" unicode="&#x1e38;" horiz-adv-x="1084" d="M252 700 L186 700 L61 0 L992 0 L1001 60 L137 60 L252 700 Z M87 838 L453 838 L461 882 L95 882 L87 838 Z M449 -198 L522 -198 L534 -124 L461 -124 L449 -198 Z " />
<glyph glyph-name="uni1E39" unicode="&#x1e39;" horiz-adv-x="947" d="M210 560 L150 560 L51 0 L843 0 L852 53 L120 53 L210 560 Z M50 698 L416 698 L424 742 L58 742 L50 698 Z M377 -198 L450 -198 L462 -124 L389 -124 L377 -198 Z " />
<glyph glyph-name="uni1E3A" unicode="&#x1e3a;" horiz-adv-x="1084" d="M252 700 L186 700 L61 0 L992 0 L1001 60 L137 60 L252 700 Z M305 -183 L671 -183 L679 -139 L313 -139 L305 -183 Z " />
<glyph glyph-name="uni1E3B" unicode="&#x1e3b;" horiz-adv-x="947" d="M210 560 L150 560 L51 0 L843 0 L852 53 L120 53 L210 560 Z M233 -183 L599 -183 L607 -139 L241 -139 L233 -183 Z " />
<glyph glyph-name="uni1E3C" unicode="&#x1e3c;" horiz-adv-x="1084" d="M252 700 L186 700 L61 0 L992 0 L1001 60 L137 60 L252 700 Z M315 -246 L360 -246 L502 -112 L596 -246 L637 -246 L548 -75 L467 -75 L315 -246 Z " />
</font>
</svg>
