<?xml version="1.0" encoding="UTF-8"?>
<svg xmlns="http://www.w3.org/2000/svg" xmlns:xlink="http://www.w3.org/1999/xlink" version="1.2" >
<font id="Stereo Gothic 800 Italic">
<font-face  font-family="Stereo Gothic" units-per-em="1000" ascent="700" descent="-300" font-style="italic" font-weight="800" font-stretch="normal" slope="-10" cap-height="700" x-height="560" underline-position="-75" underline-thickness="50" />
<missing-glyph  horiz-adv-x="1000" d="M152 0 L852 0 L852 700 L152 700 L152 0 Z M216 642 L749 642 L216 109 L216 642 Z M255 58 L788 591 L788 58 L255 58 Z " />
<glyph glyph-name="NULL" d="" />
<glyph glyph-name="CR" unicode="&#xd;" horiz-adv-x="250" d="" />
<glyph glyph-name="space" unicode="&#x20;" horiz-adv-x="480" d="" />
<glyph glyph-name="exclam" unicode="&#x21;" horiz-adv-x="382" d="M45 0 L220 0 L252 178 L77 178 L45 0 Z M97 240 L249 240 L343 700 L172 700 L97 240 Z " />
<glyph glyph-name="quotedbl" unicode="&#x22;" horiz-adv-x="621" d="M125 400 L251 400 L330 700 L155 700 L125 400 Z M398 400 L525 400 L604 700 L429 700 L398 400 Z " />
<glyph glyph-name="numbersign" unicode="&#x23;" horiz-adv-x="1245" d="M752 0 L910 0 L947 137 L1099 137 L1124 281 L987 281 L1026 419 L1178 419 L1204 563 L1067 563 L1105 700 L947 700 L910 563 L460 563 L498 700 L340 700 L302 563 L151 563 L125 419 L261 419 L222 281 L71 281 L46 137 L182 137 L145 0 L303 0 L339 137 L789 137 L752 0 Z M419 419 L868 419 L829 281 L380 281 L419 419 Z " />
<glyph glyph-name="dollar" unicode="&#x24;" horiz-adv-x="1245" d="M479 -20 L637 -20 L654 70 L874 70 C1049 70 1117 164 1117 269 C1117 351 1067 413 932 413 L717 413 L728 486 L1124 486 L1152 630 L754 630 L771 721 L613 721 L596 630 L377 630 C200 630 133 534 133 428 C133 349 187 287 320 287 L536 287 L523 214 L127 214 L98 70 L496 70 L479 -20 Z M355 413 C312 413 303 426 303 442 C304 469 317 486 382 486 L571 486 L559 413 L355 413 Z M897 287 C940 287 949 274 949 258 C948 231 935 214 870 214 L681 214 L693 287 L897 287 Z " />
<glyph glyph-name="percent" unicode="&#x25;" horiz-adv-x="1245" d="M975 700 L104 0 L277 0 L1147 700 L975 700 Z M609 574 C622 645 592 700 484 700 L295 700 C187 700 141 651 128 576 L110 475 C97 405 128 350 236 350 L425 350 C533 350 578 399 591 474 L609 574 Z M230 566 C234 588 250 603 283 603 L470 603 C502 603 507 588 503 566 L489 484 C484 462 469 447 435 447 L248 447 C218 447 212 462 216 484 L230 566 Z M1138 224 C1151 295 1121 350 1013 350 L824 350 C716 350 670 301 657 226 L639 125 C626 55 657 0 765 0 L954 0 C1062 0 1107 49 1120 124 L1138 224 Z M759 216 C763 238 779 253 812 253 L999 253 C1031 253 1036 238 1032 216 L1018 134 C1013 112 998 97 964 97 L777 97 C747 97 741 112 745 134 L759 216 Z " />
<glyph glyph-name="ampersand" unicode="&#x26;" horiz-adv-x="1262" d="M249 0 L904 0 C1061 0 1126 85 1126 182 C1126 220 1115 258 1089 278 L1191 278 L1218 422 L416 422 C354 422 338 442 338 470 C338 501 361 540 436 540 L1021 540 L1050 700 L415 700 C232 700 159 600 159 488 C159 436 183 389 225 364 C99 333 52 246 52 157 C52 69 106 0 249 0 L249 0 Z M854 160 L327 160 C265 160 249 180 249 207 C249 239 272 278 347 278 L886 278 C940 278 954 255 954 231 C954 194 931 160 854 160 L854 160 Z " />
<glyph glyph-name="quotesingle" unicode="&#x27;" horiz-adv-x="350" d="M125 400 L251 400 L330 700 L155 700 L125 400 Z " />
<glyph glyph-name="parenleft" unicode="&#x28;" horiz-adv-x="493" d="M359 -116 C201 161 270 539 527 815 L382 815 C78 547 7 153 215 -116 L359 -116 Z " />
<glyph glyph-name="parenright" unicode="&#x29;" horiz-adv-x="493" d="M117 -116 C421 153 493 547 285 815 L140 815 C300 539 231 161 -28 -116 L117 -116 Z " />
<glyph glyph-name="asterisk" unicode="&#x2a;" horiz-adv-x="576" d="M558 457 L512 612 L354 521 L392 700 L230 700 L262 520 L106 611 L53 457 L232 434 L98 314 L227 218 L305 380 L377 219 L511 314 L380 433 L558 457 Z " />
<glyph glyph-name="plus" unicode="&#x2b;" horiz-adv-x="1245" d="M271 270 L537 270 L537 30 L713 30 L713 270 L979 270 L979 430 L713 430 L713 670 L537 670 L537 430 L271 430 L271 270 Z " />
<glyph glyph-name="comma" unicode="&#x2c;" horiz-adv-x="344" d="M27 0 L102 0 L-4 -163 L73 -163 L206 14 L237 178 L59 178 L27 0 Z " />
<glyph glyph-name="hyphen" unicode="&#x2d;" horiz-adv-x="576" d="M57 200 L469 200 L498 360 L86 360 L57 200 Z " />
<glyph glyph-name="period" unicode="&#x2e;" horiz-adv-x="344" d="M27 0 L204 0 L237 178 L59 178 L27 0 Z " />
<glyph glyph-name="slash" unicode="&#x2f;" horiz-adv-x="585" d="M-98 -76 L57 -76 L693 777 L536 777 L-98 -76 Z " />
<glyph glyph-name="zero" unicode="0" horiz-adv-x="1245" d="M76 248 C51 111 116 0 331 0 L807 0 C1024 0 1114 101 1139 243 L1175 452 C1200 589 1135 700 920 700 L444 700 C227 700 137 599 112 457 L76 248 Z M899 540 C999 540 1006 493 997 444 L964 256 C955 202 923 160 829 160 L351 160 C251 160 244 207 253 255 L286 444 C295 498 327 540 421 540 L899 540 Z " />
<glyph glyph-name="one" unicode="1" horiz-adv-x="1245" d="M395 540 L628 540 L562 160 L184 160 L155 0 L971 0 L1000 160 L738 160 L834 700 L425 700 L395 540 Z " />
<glyph glyph-name="two" unicode="2" horiz-adv-x="1245" d="M1104 160 L236 160 L246 214 C252 245 273 278 338 278 L890 278 C1111 278 1196 394 1196 523 C1196 623 1133 700 966 700 L195 700 L165 540 L933 540 C996 540 1008 515 1008 490 C1008 455 987 422 914 422 L359 422 C181 422 91 336 70 216 L32 0 L1075 0 L1104 160 Z " />
<glyph glyph-name="three" unicode="3" horiz-adv-x="1245" d="M12 0 L873 0 C1062 0 1136 106 1136 220 C1136 287 1104 343 1027 364 C1109 403 1148 472 1148 554 C1148 636 1094 700 957 700 L157 700 L127 540 L879 540 C942 540 957 520 957 492 C957 461 934 422 860 422 L191 422 L164 278 L874 278 C937 278 953 254 953 229 C953 198 929 160 855 160 L41 160 L12 0 Z " />
<glyph glyph-name="four" unicode="4" horiz-adv-x="1245" d="M985 700 L48 245 L22 112 L870 112 L852 0 L1025 0 L1043 112 L1150 112 L1179 272 L1073 272 L1150 700 L985 700 Z M401 272 L947 531 L899 272 L401 272 Z " />
<glyph glyph-name="five" unicode="5" horiz-adv-x="1245" d="M80 278 L885 278 C949 278 962 254 962 228 C962 193 939 160 866 160 L78 160 L49 0 L841 0 C1058 0 1146 110 1146 243 C1146 344 1084 422 917 422 L283 422 L312 540 L1161 540 L1191 700 L190 700 L80 278 Z " />
<glyph glyph-name="six" unicode="6" horiz-adv-x="1245" d="M554 540 L1151 540 L1181 700 L569 700 C265 700 131 563 96 363 L76 248 C51 111 116 0 330 0 L856 0 C1072 0 1161 109 1161 243 C1161 345 1097 422 931 422 L439 422 C363 422 310 402 274 370 C300 473 376 540 554 540 L554 540 Z M341 278 L900 278 C962 278 974 254 974 228 C974 193 953 160 880 160 L350 160 C269 160 249 191 250 229 C257 256 279 278 341 278 L341 278 Z " />
<glyph glyph-name="seven" unicode="7" horiz-adv-x="1245" d="M506 0 L1202 561 L1229 700 L138 700 L108 540 L933 540 L241 0 L506 0 Z " />
<glyph glyph-name="eight" unicode="8" horiz-adv-x="1245" d="M237 0 L889 0 C1078 0 1152 106 1152 220 C1152 287 1120 343 1043 364 C1125 403 1164 472 1164 554 C1164 636 1110 700 973 700 L404 700 C220 700 147 600 147 488 C147 436 167 389 213 364 C87 333 40 246 40 157 C40 69 94 0 237 0 L237 0 Z M870 160 L314 160 C252 160 236 180 236 207 C236 239 259 278 334 278 L889 278 C953 278 969 254 969 229 C969 197 946 160 870 160 L870 160 Z M895 540 C957 540 973 520 973 493 C973 461 950 422 875 422 L403 422 C341 422 325 442 325 470 C325 501 348 540 423 540 L895 540 Z " />
<glyph glyph-name="nine" unicode="9" horiz-adv-x="1245" d="M697 160 L100 160 L70 0 L682 0 C986 0 1120 137 1155 337 L1175 452 C1200 589 1135 700 921 700 L395 700 C179 700 93 591 90 457 C88 355 154 278 320 278 L812 278 C887 278 941 298 977 330 C951 226 875 160 697 160 L697 160 Z M910 422 L351 422 C289 422 277 446 277 472 C277 507 298 540 371 540 L901 540 C982 540 1001 508 1001 470 C993 443 971 422 910 422 L910 422 Z " />
<glyph glyph-name="colon" unicode="&#x3a;" horiz-adv-x="344" d="M93 382 L270 382 L303 560 L126 560 L93 382 Z M27 0 L204 0 L237 178 L59 178 L27 0 Z " />
<glyph glyph-name="semicolon" unicode="&#x3b;" horiz-adv-x="344" d="M27 0 L102 0 L-4 -163 L73 -163 L206 14 L237 178 L59 178 L27 0 Z M93 382 L270 382 L303 560 L126 560 L93 382 Z " />
<glyph glyph-name="less" unicode="&#x3c;" horiz-adv-x="1245" d="M969 174 L499 349 L969 526 L969 700 L281 433 L281 266 L969 0 L969 174 Z " />
<glyph glyph-name="equal" unicode="&#x3d;" horiz-adv-x="1245" d="M271 105 L979 105 L979 265 L271 265 L271 105 Z M271 435 L979 435 L979 595 L271 595 L271 435 Z " />
<glyph glyph-name="greater" unicode="&#x3e;" horiz-adv-x="1245" d="M281 0 L969 266 L969 433 L281 700 L281 526 L751 349 L281 174 L281 0 Z " />
<glyph glyph-name="question" unicode="&#x3f;" horiz-adv-x="1026" d="M250 240 L409 240 L415 282 L729 282 C951 282 1033 394 1033 523 C1033 623 970 700 803 700 L88 700 L58 540 L770 540 C832 540 845 514 845 489 C845 454 824 418 748 418 L282 418 L250 240 Z M197 0 L375 0 L407 178 L230 178 L197 0 Z " />
<glyph glyph-name="at" unicode="&#x40;" horiz-adv-x="1341" d="M698 420 L626 420 C408 420 322 298 322 169 C322 69 385 -10 548 -10 L643 -10 C721 -10 782 16 819 56 L828 0 L1129 0 C1223 90 1264 192 1264 309 C1264 492 1152 635 855 635 L644 635 C213 635 37 394 37 129 C37 -69 167 -224 490 -224 L650 -224 L672 -100 L509 -100 C262 -100 187 12 187 154 C187 335 295 511 628 511 L776 511 C989 511 1115 459 1115 292 C1115 222 1090 155 1066 124 L934 124 L985 410 L895 410 L871 345 C847 390 783 420 698 420 L698 420 Z M572 114 C487 114 467 146 467 188 C467 245 506 296 604 296 L699 296 C786 296 810 264 810 222 C810 170 791 114 668 114 L572 114 Z " />
<glyph glyph-name="A" unicode="A" horiz-adv-x="1238" d="M971 0 L1177 0 L777 700 L593 700 L-57 0 L165 0 L268 113 L907 113 L971 0 Z M664 548 L827 257 L399 257 L664 548 Z " />
<glyph glyph-name="B" unicode="B" horiz-adv-x="1208" d="M51 0 L851 0 C1040 0 1114 106 1114 220 C1114 287 1084 343 1006 364 C1089 403 1127 472 1127 554 C1127 636 1073 700 936 700 L176 700 L51 0 Z M852 278 C915 278 931 254 931 229 C931 198 907 160 833 160 L256 160 L275 278 L852 278 Z M936 492 C936 461 913 422 838 422 L302 422 L322 540 L858 540 C921 540 936 520 936 492 L936 492 Z " />
<glyph glyph-name="C" unicode="C" horiz-adv-x="1136" d="M249 318 C249 416 294 540 528 540 L1102 540 L1131 700 L544 700 C198 700 60 507 60 296 C60 130 161 0 429 0 L1006 0 L1034 160 L458 160 C294 160 249 229 249 318 L249 318 Z " />
<glyph glyph-name="D" unicode="D" horiz-adv-x="1204" d="M51 0 L664 0 C1008 0 1147 193 1147 404 C1147 570 1046 700 778 700 L176 700 L51 0 Z M749 540 C913 540 958 471 958 382 C958 284 913 160 679 160 L253 160 L320 540 L749 540 Z " />
<glyph glyph-name="E" unicode="E" horiz-adv-x="1150" d="M51 0 L1021 0 L1050 160 L256 160 L275 278 L971 278 L998 422 L302 422 L322 540 L1116 540 L1146 700 L176 700 L51 0 Z " />
<glyph glyph-name="F" unicode="F" horiz-adv-x="1112" d="M51 0 L227 0 L272 258 L968 258 L997 418 L301 418 L322 540 L1116 540 L1146 700 L176 700 L51 0 Z " />
<glyph glyph-name="G" unicode="G" horiz-adv-x="1205" d="M620 278 L938 278 L918 160 L458 160 C294 160 249 229 249 318 C249 416 293 540 528 540 L1102 540 L1131 700 L544 700 C198 700 60 507 60 296 C60 130 161 0 429 0 L1059 0 L1134 422 L647 422 L620 278 Z " />
<glyph glyph-name="H" unicode="H" horiz-adv-x="1252" d="M906 0 L1082 0 L1207 700 L1031 700 L983 430 L303 430 L352 700 L176 700 L51 0 L227 0 L273 270 L953 270 L906 0 Z " />
<glyph glyph-name="I" unicode="I" horiz-adv-x="397" d="M51 0 L227 0 L352 700 L176 700 L51 0 Z " />
<glyph glyph-name="J" unicode="J" horiz-adv-x="1161" d="M299 -5 L643 -5 C922 -5 1031 108 1066 304 L1136 700 L960 700 L892 333 C872 219 809 155 666 155 L329 155 C205 155 184 204 198 275 L210 338 L34 338 L22 275 C-7 124 59 -5 299 -5 L299 -5 Z " />
<glyph glyph-name="K" unicode="K" horiz-adv-x="1248" d="M1228 700 L923 700 L282 322 L349 700 L176 700 L51 0 L224 0 L248 132 L543 303 L922 0 L1191 0 L694 390 L1228 700 Z " />
<glyph glyph-name="L" unicode="L" horiz-adv-x="1083" d="M352 700 L176 700 L51 0 L1002 0 L1030 160 L256 160 L352 700 Z " />
<glyph glyph-name="M" unicode="M" horiz-adv-x="1398" d="M1174 700 L675 258 L333 700 L176 700 L51 0 L227 0 L306 457 L642 18 L1131 457 L1052 0 L1228 0 L1353 700 L1174 700 Z " />
<glyph glyph-name="N" unicode="N" horiz-adv-x="1256" d="M919 0 L1086 0 L1211 700 L1035 700 L945 192 L343 700 L176 700 L51 0 L227 0 L316 508 L919 0 Z " />
<glyph glyph-name="O" unicode="O" horiz-adv-x="1293" d="M735 -10 C1098 -10 1237 178 1237 406 C1237 578 1130 710 858 710 L564 710 C201 710 60 523 60 295 C60 122 170 -10 441 -10 L735 -10 Z M475 150 C301 150 249 222 249 316 C249 424 305 550 552 550 L823 550 C995 550 1048 478 1048 386 C1048 269 985 150 746 150 L475 150 Z " />
<glyph glyph-name="P" unicode="P" horiz-adv-x="1147" d="M51 0 L227 0 L268 230 L817 230 C1055 230 1151 350 1151 502 C1151 612 1085 700 901 700 L176 700 L51 0 Z M867 540 C946 540 965 513 965 477 C965 431 933 390 842 390 L297 390 L322 540 L867 540 Z " />
<glyph glyph-name="Q" unicode="Q" horiz-adv-x="1293" d="M735 -10 C764 -10 792 -9 818 -6 L956 -110 L1216 -110 L1011 40 C1171 111 1237 249 1237 406 C1237 578 1130 710 858 710 L564 710 C201 710 60 523 60 295 C60 122 170 -10 441 -10 L735 -10 Z M475 150 C301 150 249 222 249 316 C249 424 305 550 552 550 L823 550 C995 550 1048 478 1048 386 C1048 269 985 150 746 150 L475 150 Z " />
<glyph glyph-name="R" unicode="R" horiz-adv-x="1229" d="M51 0 L224 0 L266 233 L609 233 L904 0 L1171 0 L853 237 C1055 251 1143 364 1143 503 C1143 613 1074 700 892 700 L176 700 L51 0 Z M859 540 C937 540 957 513 957 478 C957 428 925 387 828 387 L293 387 L320 540 L859 540 Z " />
<glyph glyph-name="S" unicode="S" horiz-adv-x="1158" d="M797 160 L71 160 L41 0 L773 0 C989 0 1078 109 1078 243 C1078 345 1013 422 847 422 L347 422 C285 422 273 446 273 472 C273 507 294 540 367 540 L1093 540 L1123 700 L391 700 C175 700 86 591 86 457 C86 355 151 278 316 278 L817 278 C879 278 891 254 891 228 C891 193 870 160 797 160 L797 160 Z " />
<glyph glyph-name="T" unicode="T" horiz-adv-x="1136" d="M58 540 L516 540 L420 0 L596 0 L692 540 L1150 540 L1179 700 L88 700 L58 540 Z " />
<glyph glyph-name="U" unicode="U" horiz-adv-x="1223" d="M264 323 L333 700 L157 700 L88 323 C53 130 129 -10 415 -10 L703 -10 C982 -10 1094 115 1128 306 L1198 700 L1022 700 L956 335 C935 221 871 150 728 150 L435 150 C279 150 247 222 264 323 L264 323 Z " />
<glyph glyph-name="V" unicode="V" horiz-adv-x="1238" d="M654 0 L1303 700 L1072 700 L580 151 L285 700 L68 700 L467 0 L654 0 Z " />
<glyph glyph-name="W" unicode="W" horiz-adv-x="1552" d="M800 481 L964 0 L1094 0 L1604 700 L1382 700 L1057 220 L897 700 L767 700 L436 220 L282 700 L80 700 L339 0 L469 0 L800 481 Z " />
<glyph glyph-name="X" unicode="X" horiz-adv-x="1177" d="M77 700 L461 352 L-53 0 L236 0 L585 259 L844 0 L1113 0 L725 352 L1233 700 L944 700 L599 445 L346 700 L77 700 Z " />
<glyph glyph-name="Y" unicode="Y" horiz-adv-x="1205" d="M455 0 L631 0 L668 213 L1278 700 L1010 700 L597 351 L303 700 L59 700 L492 213 L455 0 Z " />
<glyph glyph-name="Z" unicode="Z" horiz-adv-x="1154" d="M8 0 L1042 0 L1071 160 L387 160 L1125 577 L1143 700 L138 700 L108 540 L763 540 L25 123 L8 0 Z " />
<glyph glyph-name="bracketleft" unicode="&#x5b;" horiz-adv-x="493" d="M32 -150 L366 -150 L390 -22 L231 -22 L362 722 L522 722 L545 850 L210 850 L32 -150 Z " />
<glyph glyph-name="backslash" unicode="&#x5c;" horiz-adv-x="585" d="M204 777 L63 777 L391 -76 L532 -76 L204 777 Z " />
<glyph glyph-name="bracketright" unicode="&#x5d;" horiz-adv-x="493" d="M468 850 L134 850 L111 722 L270 722 L138 -22 L-21 -22 L-45 -150 L289 -150 L468 850 Z " />
<glyph glyph-name="asciicircum" unicode="&#x5e;" horiz-adv-x="1245" d="M825 350 L1041 350 L719 800 L531 800 L209 350 L425 350 L625 646 L825 350 Z " />
<glyph glyph-name="underscore" unicode="&#x5f;" horiz-adv-x="500" d="M-60 -182 L440 -182 L440 -44 L-60 -44 L-60 -182 Z " />
<glyph glyph-name="grave" unicode="&#x60;" horiz-adv-x="480" d="M328 806 L142 806 L281 635 L390 635 L328 806 Z " />
<glyph glyph-name="a" unicode="a" horiz-adv-x="1058" d="M810 0 L996 0 L652 560 L487 560 L-56 0 L142 0 L232 95 L753 95 L810 0 Z M552 432 L683 213 L344 213 L552 432 Z " />
<glyph glyph-name="b" unicode="b" horiz-adv-x="1038" d="M41 0 L726 0 C890 0 944 86 944 174 C944 229 917 274 850 292 C919 324 950 379 950 442 C950 510 908 560 793 560 L140 560 L41 0 Z M221 135 L235 221 L722 221 C770 221 781 209 781 190 C781 167 765 135 707 135 L221 135 Z M722 425 C770 425 781 413 781 394 C781 371 765 339 707 339 L257 339 L271 425 L722 425 Z " />
<glyph glyph-name="c" unicode="c" horiz-adv-x="972" d="M211 250 C211 340 285 425 443 425 L926 425 L952 560 L452 560 C151 560 44 400 44 232 C44 102 126 0 351 0 L851 0 L876 135 L368 135 C248 135 211 178 211 250 L211 250 Z " />
<glyph glyph-name="d" unicode="d" horiz-adv-x="1035" d="M41 0 L565 0 C866 0 973 160 973 328 C973 457 889 560 666 560 L142 560 L41 0 Z M649 425 C769 425 806 382 806 310 C806 220 732 135 574 135 L222 135 L272 425 L649 425 Z " />
<glyph glyph-name="e" unicode="e" horiz-adv-x="990" d="M41 0 L867 0 L891 135 L221 135 L235 221 L820 221 L842 339 L257 339 L271 425 L941 425 L966 560 L140 560 L41 0 Z " />
<glyph glyph-name="f" unicode="f" horiz-adv-x="973" d="M41 0 L197 0 L232 202 L817 202 L842 337 L257 337 L271 425 L941 425 L966 560 L140 560 L41 0 Z " />
<glyph glyph-name="g" unicode="g" horiz-adv-x="1034" d="M351 0 L895 0 L954 339 L539 339 L516 221 L780 221 L767 135 L368 135 C248 135 211 178 211 250 C211 340 285 425 443 425 L925 425 L950 560 L452 560 C151 560 44 400 44 232 C44 102 126 0 351 0 L351 0 Z " />
<glyph glyph-name="h" unicode="h" horiz-adv-x="1079" d="M763 0 L919 0 L1018 560 L862 560 L825 348 L260 348 L296 560 L140 560 L41 0 L197 0 L234 212 L799 212 L763 0 Z " />
<glyph glyph-name="i" unicode="i" horiz-adv-x="357" d="M41 0 L197 0 L296 560 L140 560 L41 0 Z " />
<glyph glyph-name="j" unicode="j" horiz-adv-x="998" d="M247 -4 L554 -4 C774 -4 872 85 900 243 L957 560 L801 560 L746 260 C730 173 678 131 563 131 L257 131 C168 131 158 171 166 220 L175 272 L21 272 L12 220 C-9 97 39 -4 247 -4 L247 -4 Z " />
<glyph glyph-name="k" unicode="k" horiz-adv-x="1074" d="M1043 560 L762 560 L243 266 L296 560 L140 560 L41 0 L197 0 L215 100 L460 236 L771 0 L1013 0 L596 311 L1043 560 Z " />
<glyph glyph-name="l" unicode="l" horiz-adv-x="944" d="M296 560 L140 560 L41 0 L851 0 L875 135 L221 135 L296 560 Z " />
<glyph glyph-name="m" unicode="m" horiz-adv-x="1203" d="M984 560 L572 216 L280 560 L140 560 L41 0 L197 0 L259 354 L544 13 L949 354 L887 0 L1043 0 L1142 560 L984 560 Z " />
<glyph glyph-name="n" unicode="n" horiz-adv-x="1083" d="M923 0 L1022 560 L866 560 L797 165 L288 560 L140 560 L41 0 L197 0 L266 395 L775 0 L923 0 Z " />
<glyph glyph-name="o" unicode="o" horiz-adv-x="1106" d="M623 -8 C928 -8 1040 152 1043 326 C1046 461 961 568 727 568 L463 568 C158 568 47 408 44 234 C41 99 124 -8 359 -8 L623 -8 Z M386 127 C246 127 209 181 210 250 C211 335 276 433 439 433 L701 433 C840 433 877 379 877 310 C877 228 812 127 648 127 L386 127 Z " />
<glyph glyph-name="p" unicode="p" horiz-adv-x="996" d="M41 0 L197 0 L228 180 L693 180 C900 180 972 287 972 398 C972 488 917 560 761 560 L140 560 L41 0 Z M732 425 C793 425 806 406 806 380 C806 350 789 316 713 316 L253 316 L271 425 L732 425 Z " />
<glyph glyph-name="q" unicode="q" horiz-adv-x="1106" d="M623 -8 C643 -8 663 -7 682 -6 L790 -88 L1024 -88 L851 33 C986 91 1041 205 1043 326 C1046 461 961 568 727 568 L463 568 C158 568 47 408 44 234 C41 99 124 -8 359 -8 L623 -8 Z M386 127 C246 127 209 181 210 250 C211 335 276 433 439 433 L701 433 C840 433 877 379 877 310 C877 228 812 127 648 127 L386 127 Z " />
<glyph glyph-name="r" unicode="r" horiz-adv-x="1061" d="M41 0 L197 0 L229 183 L520 183 L757 0 L995 0 L736 187 C904 202 967 298 967 400 C967 488 911 560 755 560 L142 560 L41 0 Z M725 425 C789 425 801 402 801 378 C801 349 784 313 704 313 L253 313 L272 425 L725 425 Z " />
<glyph glyph-name="s" unicode="s" horiz-adv-x="989" d="M672 135 L53 135 L28 0 L655 0 C846 0 908 92 908 198 C908 278 856 337 716 337 L283 337 C236 337 225 355 225 373 C225 397 240 425 298 425 L917 425 L943 560 L316 560 C124 560 62 468 62 363 C62 282 114 223 254 223 L687 223 C734 223 745 205 745 187 C745 164 730 135 672 135 L672 135 Z " />
<glyph glyph-name="t" unicode="t" horiz-adv-x="996" d="M49 425 L435 425 L361 0 L517 0 L591 425 L977 425 L1002 560 L74 560 L49 425 Z " />
<glyph glyph-name="u" unicode="u" horiz-adv-x="1048" d="M222 258 L276 560 L121 560 L67 258 C39 104 88 -8 344 -8 L603 -8 C823 -8 921 82 949 239 L1006 560 L851 560 L796 256 C780 169 729 127 614 127 L372 127 C224 127 209 174 222 258 L222 258 Z " />
<glyph glyph-name="v" unicode="v" horiz-adv-x="1058" d="M553 0 L1095 560 L893 560 L488 128 L235 560 L43 560 L388 0 L553 0 Z " />
<glyph glyph-name="w" unicode="w" horiz-adv-x="1326" d="M668 374 L810 0 L925 0 L1351 560 L1158 560 L892 186 L754 560 L639 560 L370 186 L235 560 L54 560 L282 0 L397 0 L668 374 Z " />
<glyph glyph-name="x" unicode="x" horiz-adv-x="1017" d="M56 560 L383 282 L-47 0 L210 0 L495 199 L710 0 L946 0 L614 282 L1042 560 L784 560 L505 363 L293 560 L56 560 Z " />
<glyph glyph-name="y" unicode="y" horiz-adv-x="1024" d="M375 0 L531 0 L561 171 L1071 560 L834 560 L495 286 L249 560 L33 560 L405 171 L375 0 Z " />
<glyph glyph-name="z" unicode="z" horiz-adv-x="987" d="M1 0 L882 0 L906 135 L337 135 L946 456 L960 560 L104 560 L79 425 L621 425 L14 104 L1 0 Z " />
<glyph glyph-name="braceleft" unicode="&#x7b;" horiz-adv-x="493" d="M177 457 C173 435 168 414 128 414 L55 414 L32 286 L105 286 C145 286 144 265 140 243 L94 -17 C81 -90 111 -150 229 -150 L368 -150 L391 -22 L310 -22 C270 -22 271 -1 275 21 L312 228 C322 282 300 335 237 350 C313 363 343 405 353 461 L392 679 C396 701 401 722 441 722 L522 722 L545 850 L403 850 C285 850 236 790 223 717 L177 457 Z " />
<glyph glyph-name="bar" unicode="&#x7c;" horiz-adv-x="500" d="M177 850 L177 -150 L325 -150 L325 850 L177 850 Z " />
<glyph glyph-name="braceright" unicode="&#x7d;" horiz-adv-x="493" d="M323 243 C327 265 332 286 372 286 L445 286 L468 414 L395 414 C355 414 356 435 360 457 L406 717 C419 790 389 850 271 850 L132 850 L109 722 L190 722 C230 722 229 701 225 679 L188 472 C178 418 200 365 263 350 C187 337 157 295 147 239 L108 21 C104 -1 99 -22 59 -22 L-22 -22 L-45 -150 L97 -150 C215 -150 264 -90 277 -17 L323 243 Z " />
<glyph glyph-name="asciitilde" unicode="&#x7e;" horiz-adv-x="1245" d="M979 473 C715 250 550 628 271 415 L271 250 C535 473 701 95 979 308 L979 473 Z " />
<glyph glyph-name="uni00A0" unicode="&#xa0;" horiz-adv-x="480" d="" />
<glyph glyph-name="exclamdown" unicode="&#xa1;" horiz-adv-x="382" d="M348 700 L173 700 L141 522 L316 522 L348 700 Z M296 460 L144 460 L50 0 L221 0 L296 460 Z " />
<glyph glyph-name="cent" unicode="&#xa2;" horiz-adv-x="1245" d="M1111 270 L700 270 L757 430 L1138 430 L1166 574 L816 574 L872 721 L714 721 L658 574 L436 574 C210 574 119 449 119 316 C119 212 194 126 358 126 L486 126 L429 -20 L587 -20 L644 126 L1085 126 L1111 270 Z M288 336 C289 391 335 430 430 430 L599 430 L542 270 L390 270 C315 270 288 291 288 336 L288 336 Z " />
<glyph glyph-name="sterling" unicode="&#xa3;" horiz-adv-x="1245" d="M748 422 L427 422 L431 444 C440 493 463 540 560 540 L1056 540 L1085 700 L571 700 C377 700 282 595 258 461 L251 422 L126 422 L99 278 L225 278 L216 221 C209 178 179 153 138 153 L78 153 L51 0 L1075 0 L1104 160 L327 160 C363 176 393 209 398 251 L401 278 L721 278 L748 422 Z " />
<glyph glyph-name="currency" unicode="&#xa4;" horiz-adv-x="1245" d="M704 69 C782 69 846 82 900 105 L983 -13 L1123 96 L1025 191 C1073 238 1099 319 1100 394 C1101 427 1098 466 1087 494 L1215 582 L1097 710 L989 594 C945 619 883 631 806 631 L546 631 C469 631 402 618 349 595 L265 717 L126 600 L223 505 C161 434 149 353 148 306 C147 272 152 233 162 205 L34 105 L141 -15 L257 105 C301 82 367 69 445 69 L704 69 Z M329 327 C329 386 339 477 516 477 L776 477 C890 477 919 432 919 372 C919 314 909 223 732 223 L472 223 C360 223 329 267 329 327 L329 327 Z " />
<glyph glyph-name="yen" unicode="&#xa5;" horiz-adv-x="1245" d="M978 700 L626 407 L378 700 L135 700 L362 459 L118 459 L92 323 L475 323 L522 269 L517 235 L77 235 L51 99 L491 99 L475 0 L651 0 L667 99 L1107 99 L1133 235 L693 235 L698 269 L764 323 L1147 323 L1173 459 L928 459 L1241 700 L978 700 Z " />
<glyph glyph-name="brokenbar" unicode="&#xa6;" horiz-adv-x="500" d="M325 467 L325 850 L177 850 L177 467 L325 467 Z M177 233 L177 -150 L325 -150 L325 233 L177 233 Z " />
<glyph glyph-name="section" unicode="&#xa7;" horiz-adv-x="1176" d="M236 130 L729 130 C781 130 791 116 791 99 C791 77 780 44 715 44 L158 44 L130 -100 L751 -100 C892 -100 948 -22 948 64 C948 90 942 117 928 134 C1059 151 1112 238 1112 330 C1112 408 1059 470 928 470 L435 470 C383 470 373 484 373 501 C373 523 384 556 449 556 L1006 556 L1034 700 L413 700 C272 700 216 622 216 536 C216 510 222 483 236 466 C105 449 52 362 52 270 C52 192 105 130 236 130 L236 130 Z M894 344 C943 344 953 328 953 310 C953 287 939 256 878 256 L270 256 C221 256 211 272 211 290 C211 313 225 344 286 344 L894 344 Z " />
<glyph glyph-name="dieresis" unicode="&#xa8;" horiz-adv-x="480" d="M358 641 L514 641 L542 797 L386 797 L358 641 Z M70 641 L226 641 L253 797 L97 797 L70 641 Z " />
<glyph glyph-name="copyright" unicode="&#xa9;" horiz-adv-x="1159" d="M670 -10 C983 -10 1106 151 1106 350 C1106 549 983 710 670 710 L494 710 C181 710 58 549 58 350 C58 151 181 -10 494 -10 L670 -10 Z M495 100 C261 100 186 212 186 350 C186 488 261 600 495 600 L669 600 C903 600 978 488 978 350 C978 212 903 100 669 100 L495 100 Z M801 265 L511 265 C423 265 404 303 404 350 C404 397 423 435 511 435 L801 435 L801 525 L511 525 C358 525 299 446 299 350 C299 253 358 175 511 175 L801 175 L801 265 Z " />
<glyph glyph-name="ordfeminine" unicode="&#xaa;" horiz-adv-x="721" d="M191 350 L233 400 L518 400 L546 350 L676 350 L481 700 L368 700 L49 350 L191 350 Z M408 601 L476 478 L298 478 L408 601 Z " />
<glyph glyph-name="guillemotleft" unicode="&#xab;" horiz-adv-x="828" d="M280 560 L61 282 L183 0 L358 0 L242 269 L471 560 L280 560 Z M620 560 L401 282 L523 0 L698 0 L582 269 L811 560 L620 560 Z " />
<glyph glyph-name="logicalnot" unicode="&#xac;" horiz-adv-x="1245" d="M271 270 L803 270 L803 40 L979 40 L979 430 L271 430 L271 270 Z " />
<glyph glyph-name="uni00AD" unicode="&#xad;" horiz-adv-x="576" d="M59 211 L471 211 L497 349 L85 349 L59 211 Z " />
<glyph glyph-name="registered" unicode="&#xae;" horiz-adv-x="1159" d="M670 -10 C983 -10 1106 151 1106 350 C1106 549 983 710 670 710 L494 710 C181 710 58 549 58 350 C58 151 181 -10 494 -10 L670 -10 Z M495 100 C261 100 186 212 186 350 C186 488 261 600 495 600 L669 600 C903 600 978 488 978 350 C978 212 903 100 669 100 L495 100 Z M329 175 L428 175 L428 287 L611 287 L746 175 L891 175 L740 294 C805 308 832 353 832 407 C832 472 792 525 688 525 L329 525 L329 175 Z M680 435 C720 435 726 421 726 403 C726 385 720 372 680 372 L428 372 L428 435 L680 435 Z " />
<glyph glyph-name="macron" unicode="&#xaf;" horiz-adv-x="480" d="M110 664 L486 664 L506 776 L130 776 L110 664 Z " />
<glyph glyph-name="degree" unicode="&#xb0;" horiz-adv-x="538" d="M92 505 C92 386 187 300 300 300 C413 300 508 386 508 505 C508 624 413 710 300 710 C187 710 92 624 92 505 L92 505 Z M226 505 C226 553 254 588 300 588 C346 588 374 553 374 505 C374 457 346 422 300 422 C254 422 226 457 226 505 L226 505 Z " />
<glyph glyph-name="plusminus" unicode="&#xb1;" horiz-adv-x="1245" d="M271 400 L537 400 L537 260 L713 260 L713 400 L979 400 L979 560 L713 560 L713 700 L537 700 L537 560 L271 560 L271 400 Z M271 0 L979 0 L979 160 L271 160 L271 0 Z " />
<glyph glyph-name="twosuperior" unicode="&#xb2;" horiz-adv-x="707" d="M530 603 C558 603 564 594 564 582 C564 568 555 555 522 555 L259 555 C164 555 120 513 109 452 L91 350 L614 350 L632 447 L211 447 L215 470 C217 482 227 495 254 495 L527 495 C637 495 677 548 677 615 C677 664 643 700 562 700 L172 700 L155 603 L530 603 Z " />
<glyph glyph-name="threesuperior" unicode="&#xb3;" horiz-adv-x="707" d="M496 495 C524 495 530 485 530 474 C530 460 520 447 486 447 L94 447 L76 350 L507 350 C602 350 639 401 639 459 C639 492 624 520 585 530 C626 550 646 585 646 623 C646 667 618 700 549 700 L150 700 L132 603 L493 603 C522 603 528 594 528 582 C528 569 518 555 484 555 L164 555 L153 495 L496 495 Z " />
<glyph glyph-name="acute" unicode="&#xb4;" horiz-adv-x="480" d="M188 635 L308 635 L511 806 L311 806 L188 635 Z " />
<glyph glyph-name="uni00B5" unicode="&#xb5;" horiz-adv-x="1245" d="M951 0 L1066 0 L1165 560 L989 560 L952 351 C933 243 862 160 677 160 L357 160 C283 160 270 187 275 218 L336 560 L160 560 L23 -200 L199 -200 L244 52 C260 17 304 0 371 0 L680 0 C795 0 879 41 925 99 L951 0 Z " />
<glyph glyph-name="paragraph" unicode="&#xb6;" horiz-adv-x="1150" d="M641 540 L793 540 L793 -100 L969 -100 L969 540 L1065 540 L1065 700 L340 700 C132 700 52 594 52 465 C52 333 132 230 340 230 L465 230 L465 -100 L641 -100 L641 540 Z " />
<glyph glyph-name="periodcentered" unicode="&#xb7;" horiz-adv-x="344" d="M73 261 L250 261 L282 439 L105 439 L73 261 Z " />
<glyph glyph-name="cedilla" unicode="&#xb8;" horiz-adv-x="480" d="M82 -139 L123 -139 C165 -139 187 -146 187 -169 C187 -208 137 -215 90 -215 C55 -215 23 -204 8 -191 L-7 -267 C19 -282 66 -297 117 -296 C207 -295 305 -269 305 -161 C305 -92 236 -65 171 -71 L204 0 L143 0 L82 -139 Z " />
<glyph glyph-name="onesuperior" unicode="&#xb9;" horiz-adv-x="707" d="M266 603 L376 603 L348 447 L166 447 L150 350 L560 350 L577 447 L452 447 L498 700 L284 700 L266 603 Z " />
<glyph glyph-name="ordmasculine" unicode="&#xba;" horiz-adv-x="719" d="M436 345 C617 345 688 443 688 554 C688 635 634 705 498 705 L351 705 C170 705 100 606 100 496 C100 414 154 345 290 345 L436 345 Z M309 442 C233 442 208 472 208 512 C208 559 237 608 340 608 L480 608 C555 608 580 577 580 538 C580 490 552 442 449 442 L309 442 Z " />
<glyph glyph-name="guillemotright" unicode="&#xbb;" horiz-adv-x="828" d="M194 0 L413 278 L291 560 L116 560 L232 291 L3 0 L194 0 Z M534 0 L753 278 L631 560 L456 560 L572 291 L343 0 L534 0 Z " />
<glyph glyph-name="onequarter" unicode="&#xbc;" horiz-adv-x="1414" d="M266 603 L376 603 L348 447 L166 447 L150 350 L560 350 L577 447 L452 447 L498 700 L284 700 L266 603 Z M1068 700 L184 0 L352 0 L1235 700 L1068 700 Z M1197 350 L746 136 L731 53 L1139 53 L1130 0 L1234 0 L1242 53 L1297 53 L1315 150 L1260 150 L1296 350 L1197 350 Z M947 150 L1175 258 L1156 150 L947 150 Z " />
<glyph glyph-name="onehalf" unicode="&#xbd;" horiz-adv-x="1414" d="M266 603 L376 603 L348 447 L166 447 L150 350 L560 350 L577 447 L452 447 L498 700 L284 700 L266 603 Z M1068 700 L184 0 L352 0 L1235 700 L1068 700 Z M1175 253 C1203 253 1209 244 1209 232 C1209 218 1200 205 1167 205 L904 205 C809 205 765 163 754 102 L736 0 L1259 0 L1277 97 L856 97 L860 120 C862 132 872 145 899 145 L1172 145 C1282 145 1322 198 1322 265 C1322 314 1288 350 1207 350 L817 350 L800 253 L1175 253 Z " />
<glyph glyph-name="threequarters" unicode="&#xbe;" horiz-adv-x="1414" d="M496 495 C524 495 530 485 530 474 C530 460 520 447 486 447 L94 447 L76 350 L507 350 C602 350 639 401 639 459 C639 492 624 520 585 530 C626 550 646 585 646 623 C646 667 618 700 549 700 L150 700 L132 603 L493 603 C522 603 528 594 528 582 C528 569 518 555 484 555 L164 555 L153 495 L496 495 Z M1068 700 L184 0 L352 0 L1235 700 L1068 700 Z M1197 350 L746 136 L731 53 L1139 53 L1130 0 L1234 0 L1242 53 L1297 53 L1315 150 L1260 150 L1296 350 L1197 350 Z M947 150 L1175 258 L1156 150 L947 150 Z " />
<glyph glyph-name="questiondown" unicode="&#xbf;" horiz-adv-x="1026" d="M783 460 L624 460 L618 418 L304 418 C82 418 0 306 0 177 C0 77 63 0 230 0 L945 0 L975 160 L263 160 C201 160 188 186 188 211 C188 246 209 282 285 282 L751 282 L783 460 Z M836 700 L658 700 L626 522 L803 522 L836 700 Z " />
<glyph glyph-name="Agrave" unicode="&#xc0;" horiz-adv-x="1238" d="M971 0 L1177 0 L777 700 L593 700 L-57 0 L165 0 L268 113 L907 113 L971 0 Z M664 548 L827 257 L399 257 L664 548 Z M732 946 L546 946 L685 775 L794 775 L732 946 Z " />
<glyph glyph-name="Aacute" unicode="&#xc1;" horiz-adv-x="1238" d="M971 0 L1177 0 L777 700 L593 700 L-57 0 L165 0 L268 113 L907 113 L971 0 Z M664 548 L827 257 L399 257 L664 548 Z M592 775 L712 775 L915 946 L715 946 L592 775 Z " />
<glyph glyph-name="Acircumflex" unicode="&#xc2;" horiz-adv-x="1238" d="M971 0 L1177 0 L777 700 L593 700 L-57 0 L165 0 L268 113 L907 113 L971 0 Z M664 548 L827 257 L399 257 L664 548 Z M490 775 L605 775 L714 863 L790 775 L900 775 L825 946 L627 946 L490 775 Z " />
<glyph glyph-name="Atilde" unicode="&#xc3;" horiz-adv-x="1238" d="M971 0 L1177 0 L777 700 L593 700 L-57 0 L165 0 L268 113 L907 113 L971 0 Z M664 548 L827 257 L399 257 L664 548 Z M823 946 C817 912 805 899 785 899 C753 899 715 940 655 940 C587 940 536 897 511 774 L597 774 C602 807 613 821 634 821 C665 821 703 779 763 779 C832 779 883 822 909 946 L823 946 Z " />
<glyph glyph-name="Adieresis" unicode="&#xc4;" horiz-adv-x="1238" d="M971 0 L1177 0 L777 700 L593 700 L-57 0 L165 0 L268 113 L907 113 L971 0 Z M664 548 L827 257 L399 257 L664 548 Z M762 781 L918 781 L946 937 L790 937 L762 781 Z M474 781 L630 781 L657 937 L501 937 L474 781 Z " />
<glyph glyph-name="Aring" unicode="&#xc5;" horiz-adv-x="1238" d="M971 0 L1177 0 L777 700 L593 700 L-57 0 L165 0 L268 113 L907 113 L971 0 Z M664 548 L827 257 L399 257 L664 548 Z M674 858 C674 880 694 897 715 897 C733 897 747 882 747 864 C747 842 727 825 707 825 C688 825 674 840 674 858 L674 858 Z M577 853 C577 791 623 743 699 743 C782 743 845 800 845 871 C845 932 797 979 723 979 C639 979 577 923 577 853 L577 853 Z " />
<glyph glyph-name="AE" unicode="&#xc6;" horiz-adv-x="1653" d="M674 109 L656 0 L1525 0 L1554 160 L861 160 L881 278 L1476 278 L1503 422 L908 422 L927 540 L1620 540 L1650 700 L688 700 L-57 0 L169 0 L283 109 L674 109 Z M433 253 L755 561 L701 253 L433 253 Z " />
<glyph glyph-name="Ccedilla" unicode="&#xc7;" horiz-adv-x="1136" d="M458 -139 L499 -139 C541 -139 563 -146 563 -169 C563 -208 513 -215 466 -215 C431 -215 399 -204 384 -191 L369 -267 C395 -282 442 -297 493 -296 C583 -295 681 -269 681 -161 C681 -92 612 -65 547 -71 L580 0 L1006 0 L1034 160 L458 160 C294 160 249 229 249 318 C249 416 294 540 528 540 L1102 540 L1131 700 L544 700 C198 700 60 507 60 296 C60 130 161 0 429 0 L519 0 L458 -139 Z " />
<glyph glyph-name="Egrave" unicode="&#xc8;" horiz-adv-x="1150" d="M51 0 L1021 0 L1050 160 L256 160 L275 278 L971 278 L998 422 L302 422 L322 540 L1116 540 L1146 700 L176 700 L51 0 Z M697 946 L511 946 L650 775 L759 775 L697 946 Z " />
<glyph glyph-name="Eacute" unicode="&#xc9;" horiz-adv-x="1150" d="M51 0 L1021 0 L1050 160 L256 160 L275 278 L971 278 L998 422 L302 422 L322 540 L1116 540 L1146 700 L176 700 L51 0 Z M557 775 L677 775 L880 946 L680 946 L557 775 Z " />
<glyph glyph-name="Ecircumflex" unicode="&#xca;" horiz-adv-x="1150" d="M51 0 L1021 0 L1050 160 L256 160 L275 278 L971 278 L998 422 L302 422 L322 540 L1116 540 L1146 700 L176 700 L51 0 Z M455 775 L570 775 L679 863 L755 775 L865 775 L790 946 L592 946 L455 775 Z " />
<glyph glyph-name="Edieresis" unicode="&#xcb;" horiz-adv-x="1150" d="M51 0 L1021 0 L1050 160 L256 160 L275 278 L971 278 L998 422 L302 422 L322 540 L1116 540 L1146 700 L176 700 L51 0 Z M727 781 L883 781 L911 937 L755 937 L727 781 Z M439 781 L595 781 L622 937 L466 937 L439 781 Z " />
<glyph glyph-name="Igrave" unicode="&#xcc;" horiz-adv-x="397" d="M51 0 L227 0 L352 700 L176 700 L51 0 Z M309 946 L123 946 L262 775 L371 775 L309 946 Z " />
<glyph glyph-name="Iacute" unicode="&#xcd;" horiz-adv-x="397" d="M51 0 L227 0 L352 700 L176 700 L51 0 Z M169 775 L289 775 L492 946 L292 946 L169 775 Z " />
<glyph glyph-name="Icircumflex" unicode="&#xce;" horiz-adv-x="397" d="M51 0 L227 0 L352 700 L176 700 L51 0 Z M67 775 L182 775 L291 863 L367 775 L477 775 L402 946 L204 946 L67 775 Z " />
<glyph glyph-name="Idieresis" unicode="&#xcf;" horiz-adv-x="397" d="M51 0 L227 0 L352 700 L176 700 L51 0 Z M339 781 L495 781 L523 937 L367 937 L339 781 Z M51 781 L207 781 L234 937 L78 937 L51 781 Z " />
<glyph glyph-name="Eth" unicode="&#xd0;" horiz-adv-x="1204" d="M-25 278 L100 278 L51 0 L664 0 C1008 0 1147 193 1147 404 C1147 570 1046 700 778 700 L176 700 L126 422 L2 422 L-25 278 Z M749 540 C913 540 958 471 958 382 C958 284 913 160 679 160 L253 160 L274 278 L610 278 L636 422 L299 422 L320 540 L749 540 Z " />
<glyph glyph-name="Ntilde" unicode="&#xd1;" horiz-adv-x="1256" d="M919 0 L1086 0 L1211 700 L1035 700 L945 192 L343 700 L176 700 L51 0 L227 0 L316 508 L919 0 Z M831 946 C825 912 813 899 793 899 C761 899 723 940 663 940 C595 940 544 897 519 774 L605 774 C610 807 621 821 642 821 C673 821 711 779 771 779 C840 779 891 822 917 946 L831 946 Z " />
<glyph glyph-name="Ograve" unicode="&#xd2;" horiz-adv-x="1293" d="M735 -10 C1098 -10 1237 178 1237 406 C1237 578 1130 710 858 710 L564 710 C201 710 60 523 60 295 C60 122 170 -10 441 -10 L735 -10 Z M475 150 C301 150 249 222 249 316 C249 424 305 550 552 550 L823 550 C995 550 1048 478 1048 386 C1048 269 985 150 746 150 L475 150 Z M758 946 L572 946 L711 775 L820 775 L758 946 Z " />
<glyph glyph-name="Oacute" unicode="&#xd3;" horiz-adv-x="1293" d="M735 -10 C1098 -10 1237 178 1237 406 C1237 578 1130 710 858 710 L564 710 C201 710 60 523 60 295 C60 122 170 -10 441 -10 L735 -10 Z M475 150 C301 150 249 222 249 316 C249 424 305 550 552 550 L823 550 C995 550 1048 478 1048 386 C1048 269 985 150 746 150 L475 150 Z M618 775 L738 775 L941 946 L741 946 L618 775 Z " />
<glyph glyph-name="Ocircumflex" unicode="&#xd4;" horiz-adv-x="1293" d="M735 -10 C1098 -10 1237 178 1237 406 C1237 578 1130 710 858 710 L564 710 C201 710 60 523 60 295 C60 122 170 -10 441 -10 L735 -10 Z M475 150 C301 150 249 222 249 316 C249 424 305 550 552 550 L823 550 C995 550 1048 478 1048 386 C1048 269 985 150 746 150 L475 150 Z M516 775 L631 775 L740 863 L816 775 L926 775 L851 946 L653 946 L516 775 Z " />
<glyph glyph-name="Otilde" unicode="&#xd5;" horiz-adv-x="1293" d="M735 -10 C1098 -10 1237 178 1237 406 C1237 578 1130 710 858 710 L564 710 C201 710 60 523 60 295 C60 122 170 -10 441 -10 L735 -10 Z M475 150 C301 150 249 222 249 316 C249 424 305 550 552 550 L823 550 C995 550 1048 478 1048 386 C1048 269 985 150 746 150 L475 150 Z M850 946 C844 912 832 899 812 899 C780 899 742 940 682 940 C614 940 563 897 538 774 L624 774 C629 807 640 821 661 821 C692 821 730 779 790 779 C859 779 910 822 936 946 L850 946 Z " />
<glyph glyph-name="Odieresis" unicode="&#xd6;" horiz-adv-x="1293" d="M735 -10 C1098 -10 1237 178 1237 406 C1237 578 1130 710 858 710 L564 710 C201 710 60 523 60 295 C60 122 170 -10 441 -10 L735 -10 Z M475 150 C301 150 249 222 249 316 C249 424 305 550 552 550 L823 550 C995 550 1048 478 1048 386 C1048 269 985 150 746 150 L475 150 Z M788 781 L944 781 L972 937 L816 937 L788 781 Z M500 781 L656 781 L683 937 L527 937 L500 781 Z " />
<glyph glyph-name="multiply" unicode="&#xd7;" horiz-adv-x="1245" d="M947 549 L828 668 L622 456 L423 658 L304 539 L505 347 L304 151 L423 32 L623 238 L828 32 L947 151 L739 348 L947 549 Z " />
<glyph glyph-name="Oslash" unicode="&#xd8;" horiz-adv-x="1293" d="M735 -10 C1098 -10 1237 178 1237 406 C1237 534 1178 639 1035 685 L1134 800 L934 800 L857 710 L564 710 C201 710 60 523 60 295 C60 166 120 61 262 15 L164 -100 L364 -100 L441 -10 L735 -10 Z M249 316 C249 424 305 550 552 550 L720 550 L385 158 C282 179 249 240 249 316 L249 316 Z M1048 386 C1048 269 985 150 746 150 L578 150 L913 542 C1014 520 1048 459 1048 386 L1048 386 Z " />
<glyph glyph-name="Ugrave" unicode="&#xd9;" horiz-adv-x="1223" d="M264 323 L333 700 L157 700 L88 323 C53 130 129 -10 415 -10 L703 -10 C982 -10 1094 115 1128 306 L1198 700 L1022 700 L956 335 C935 221 871 150 728 150 L435 150 C279 150 247 222 264 323 L264 323 Z M724 946 L538 946 L677 775 L786 775 L724 946 Z " />
<glyph glyph-name="Uacute" unicode="&#xda;" horiz-adv-x="1223" d="M264 323 L333 700 L157 700 L88 323 C53 130 129 -10 415 -10 L703 -10 C982 -10 1094 115 1128 306 L1198 700 L1022 700 L956 335 C935 221 871 150 728 150 L435 150 C279 150 247 222 264 323 L264 323 Z M584 775 L704 775 L907 946 L707 946 L584 775 Z " />
<glyph glyph-name="Ucircumflex" unicode="&#xdb;" horiz-adv-x="1223" d="M264 323 L333 700 L157 700 L88 323 C53 130 129 -10 415 -10 L703 -10 C982 -10 1094 115 1128 306 L1198 700 L1022 700 L956 335 C935 221 871 150 728 150 L435 150 C279 150 247 222 264 323 L264 323 Z M482 775 L597 775 L706 863 L782 775 L892 775 L817 946 L619 946 L482 775 Z " />
<glyph glyph-name="Udieresis" unicode="&#xdc;" horiz-adv-x="1223" d="M264 323 L333 700 L157 700 L88 323 C53 130 129 -10 415 -10 L703 -10 C982 -10 1094 115 1128 306 L1198 700 L1022 700 L956 335 C935 221 871 150 728 150 L435 150 C279 150 247 222 264 323 L264 323 Z M754 781 L910 781 L938 937 L782 937 L754 781 Z M466 781 L622 781 L649 937 L493 937 L466 781 Z " />
<glyph glyph-name="Yacute" unicode="&#xdd;" horiz-adv-x="1205" d="M455 0 L631 0 L668 213 L1278 700 L1010 700 L597 351 L303 700 L59 700 L492 213 L455 0 Z M574 775 L694 775 L897 946 L697 946 L574 775 Z " />
<glyph glyph-name="Thorn" unicode="&#xde;" horiz-adv-x="1146" d="M51 0 L227 0 L247 115 L796 115 C1036 115 1132 235 1132 387 C1132 497 1066 585 881 585 L332 585 L352 700 L176 700 L51 0 Z M848 425 C927 425 946 398 946 362 C946 316 914 275 823 275 L277 275 L302 425 L848 425 Z " />
<glyph glyph-name="germandbls" unicode="&#xdf;" horiz-adv-x="1042" d="M687 223 C734 223 745 205 745 187 C745 164 730 135 672 135 L342 135 L318 0 L655 0 C846 0 908 92 908 198 C908 278 856 337 716 337 L683 337 L941 456 L955 560 L464 560 C206 560 102 450 75 296 L22 0 L177 0 L230 296 C242 373 287 425 440 425 L643 425 L444 326 L424 223 L687 223 Z " />
<glyph glyph-name="agrave" unicode="&#xe0;" horiz-adv-x="1058" d="M810 0 L996 0 L652 560 L487 560 L-56 0 L142 0 L232 95 L753 95 L810 0 Z M552 432 L683 213 L344 213 L552 432 Z M617 806 L431 806 L570 635 L679 635 L617 806 Z " />
<glyph glyph-name="aacute" unicode="&#xe1;" horiz-adv-x="1058" d="M810 0 L996 0 L652 560 L487 560 L-56 0 L142 0 L232 95 L753 95 L810 0 Z M552 432 L683 213 L344 213 L552 432 Z M477 635 L597 635 L800 806 L600 806 L477 635 Z " />
<glyph glyph-name="acircumflex" unicode="&#xe2;" horiz-adv-x="1058" d="M810 0 L996 0 L652 560 L487 560 L-56 0 L142 0 L232 95 L753 95 L810 0 Z M552 432 L683 213 L344 213 L552 432 Z M375 635 L490 635 L599 723 L675 635 L785 635 L710 806 L512 806 L375 635 Z " />
<glyph glyph-name="atilde" unicode="&#xe3;" horiz-adv-x="1058" d="M810 0 L996 0 L652 560 L487 560 L-56 0 L142 0 L232 95 L753 95 L810 0 Z M552 432 L683 213 L344 213 L552 432 Z M708 806 C702 772 690 759 670 759 C638 759 600 800 540 800 C472 800 421 757 396 634 L482 634 C487 667 498 681 519 681 C550 681 588 639 648 639 C717 639 768 682 794 806 L708 806 Z " />
<glyph glyph-name="adieresis" unicode="&#xe4;" horiz-adv-x="1058" d="M810 0 L996 0 L652 560 L487 560 L-56 0 L142 0 L232 95 L753 95 L810 0 Z M552 432 L683 213 L344 213 L552 432 Z M647 641 L803 641 L831 797 L675 797 L647 641 Z M359 641 L515 641 L542 797 L386 797 L359 641 Z " />
<glyph glyph-name="aring" unicode="&#xe5;" horiz-adv-x="1058" d="M810 0 L996 0 L652 560 L487 560 L-56 0 L142 0 L232 95 L753 95 L810 0 Z M552 432 L683 213 L344 213 L552 432 Z M559 718 C559 740 579 757 600 757 C618 757 632 742 632 724 C632 702 612 685 592 685 C573 685 559 700 559 718 L559 718 Z M462 713 C462 651 508 603 584 603 C667 603 730 660 730 731 C730 792 682 839 608 839 C524 839 462 783 462 713 L462 713 Z " />
<glyph glyph-name="ae" unicode="&#xe6;" horiz-adv-x="1413" d="M566 86 L551 0 L1292 0 L1316 135 L731 135 L745 221 L1245 221 L1267 339 L767 339 L781 425 L1366 425 L1391 560 L568 560 L-56 0 L145 0 L239 86 L566 86 Z M369 204 L628 441 L587 204 L369 204 Z " />
<glyph glyph-name="ccedilla" unicode="&#xe7;" horiz-adv-x="972" d="M367 -139 L408 -139 C450 -139 472 -146 472 -169 C472 -208 422 -215 375 -215 C340 -215 308 -204 293 -191 L278 -267 C304 -282 351 -297 402 -296 C492 -295 590 -269 590 -161 C590 -92 521 -65 456 -71 L489 0 L851 0 L876 135 L368 135 C248 135 211 178 211 250 C211 340 285 425 443 425 L926 425 L952 560 L452 560 C151 560 44 400 44 232 C44 102 126 0 351 0 L428 0 L367 -139 Z " />
<glyph glyph-name="egrave" unicode="&#xe8;" horiz-adv-x="990" d="M41 0 L867 0 L891 135 L221 135 L235 221 L820 221 L842 339 L257 339 L271 425 L941 425 L966 560 L140 560 L41 0 Z M594 806 L408 806 L547 635 L656 635 L594 806 Z " />
<glyph glyph-name="eacute" unicode="&#xe9;" horiz-adv-x="990" d="M41 0 L867 0 L891 135 L221 135 L235 221 L820 221 L842 339 L257 339 L271 425 L941 425 L966 560 L140 560 L41 0 Z M454 635 L574 635 L777 806 L577 806 L454 635 Z " />
<glyph glyph-name="ecircumflex" unicode="&#xea;" horiz-adv-x="990" d="M41 0 L867 0 L891 135 L221 135 L235 221 L820 221 L842 339 L257 339 L271 425 L941 425 L966 560 L140 560 L41 0 Z M352 635 L467 635 L576 723 L652 635 L762 635 L687 806 L489 806 L352 635 Z " />
<glyph glyph-name="edieresis" unicode="&#xeb;" horiz-adv-x="990" d="M41 0 L867 0 L891 135 L221 135 L235 221 L820 221 L842 339 L257 339 L271 425 L941 425 L966 560 L140 560 L41 0 Z M624 641 L780 641 L808 797 L652 797 L624 641 Z M336 641 L492 641 L519 797 L363 797 L336 641 Z " />
<glyph glyph-name="igrave" unicode="&#xec;" horiz-adv-x="357" d="M265 806 L79 806 L218 635 L327 635 L265 806 Z M41 0 L197 0 L296 560 L140 560 L41 0 Z " />
<glyph glyph-name="iacute" unicode="&#xed;" horiz-adv-x="357" d="M125 635 L245 635 L448 806 L248 806 L125 635 Z M41 0 L197 0 L296 560 L140 560 L41 0 Z " />
<glyph glyph-name="icircumflex" unicode="&#xee;" horiz-adv-x="357" d="M41 0 L197 0 L296 560 L140 560 L41 0 Z M23 635 L138 635 L247 723 L323 635 L433 635 L358 806 L160 806 L23 635 Z " />
<glyph glyph-name="idieresis" unicode="&#xef;" horiz-adv-x="357" d="M295 641 L451 641 L479 797 L323 797 L295 641 Z M7 641 L163 641 L190 797 L34 797 L7 641 Z M41 0 L197 0 L296 560 L140 560 L41 0 Z " />
<glyph glyph-name="eth" unicode="&#xf0;" horiz-adv-x="1035" d="M-36 221 L81 221 L41 0 L565 0 C866 0 973 160 973 328 C973 457 889 560 666 560 L142 560 L102 339 L-14 339 L-36 221 Z M649 425 C769 425 806 382 806 310 C806 220 732 135 574 135 L222 135 L237 221 L526 221 L548 339 L257 339 L272 425 L649 425 Z " />
<glyph glyph-name="ntilde" unicode="&#xf1;" horiz-adv-x="1083" d="M923 0 L1022 560 L866 560 L797 165 L288 560 L140 560 L41 0 L197 0 L266 395 L775 0 L923 0 Z M721 806 C715 772 703 759 683 759 C651 759 613 800 553 800 C485 800 434 757 409 634 L495 634 C500 667 511 681 532 681 C563 681 601 639 661 639 C730 639 781 682 807 806 L721 806 Z " />
<glyph glyph-name="ograve" unicode="&#xf2;" horiz-adv-x="1106" d="M623 -8 C928 -8 1040 152 1043 326 C1046 461 961 568 727 568 L463 568 C158 568 47 408 44 234 C41 99 124 -8 359 -8 L623 -8 Z M386 127 C246 127 209 181 210 250 C211 335 276 433 439 433 L701 433 C840 433 877 379 877 310 C877 228 812 127 648 127 L386 127 Z M641 806 L455 806 L594 635 L703 635 L641 806 Z " />
<glyph glyph-name="oacute" unicode="&#xf3;" horiz-adv-x="1106" d="M623 -8 C928 -8 1040 152 1043 326 C1046 461 961 568 727 568 L463 568 C158 568 47 408 44 234 C41 99 124 -8 359 -8 L623 -8 Z M386 127 C246 127 209 181 210 250 C211 335 276 433 439 433 L701 433 C840 433 877 379 877 310 C877 228 812 127 648 127 L386 127 Z M501 635 L621 635 L824 806 L624 806 L501 635 Z " />
<glyph glyph-name="ocircumflex" unicode="&#xf4;" horiz-adv-x="1106" d="M623 -8 C928 -8 1040 152 1043 326 C1046 461 961 568 727 568 L463 568 C158 568 47 408 44 234 C41 99 124 -8 359 -8 L623 -8 Z M386 127 C246 127 209 181 210 250 C211 335 276 433 439 433 L701 433 C840 433 877 379 877 310 C877 228 812 127 648 127 L386 127 Z M399 635 L514 635 L623 723 L699 635 L809 635 L734 806 L536 806 L399 635 Z " />
<glyph glyph-name="otilde" unicode="&#xf5;" horiz-adv-x="1106" d="M623 -8 C928 -8 1040 152 1043 326 C1046 461 961 568 727 568 L463 568 C158 568 47 408 44 234 C41 99 124 -8 359 -8 L623 -8 Z M386 127 C246 127 209 181 210 250 C211 335 276 433 439 433 L701 433 C840 433 877 379 877 310 C877 228 812 127 648 127 L386 127 Z M732 806 C726 772 714 759 694 759 C662 759 624 800 564 800 C496 800 445 757 420 634 L506 634 C511 667 522 681 543 681 C574 681 612 639 672 639 C741 639 792 682 818 806 L732 806 Z " />
<glyph glyph-name="odieresis" unicode="&#xf6;" horiz-adv-x="1106" d="M623 -8 C928 -8 1040 152 1043 326 C1046 461 961 568 727 568 L463 568 C158 568 47 408 44 234 C41 99 124 -8 359 -8 L623 -8 Z M386 127 C246 127 209 181 210 250 C211 335 276 433 439 433 L701 433 C840 433 877 379 877 310 C877 228 812 127 648 127 L386 127 Z M671 641 L827 641 L855 797 L699 797 L671 641 Z M383 641 L539 641 L566 797 L410 797 L383 641 Z " />
<glyph glyph-name="divide" unicode="&#xf7;" horiz-adv-x="1245" d="M271 270 L979 270 L979 430 L271 430 L271 270 Z M536 0 L714 0 L714 178 L536 178 L536 0 Z M536 522 L714 522 L714 700 L536 700 L536 522 Z " />
<glyph glyph-name="oslash" unicode="&#xf8;" horiz-adv-x="1106" d="M623 -8 C928 -8 1040 152 1043 326 C1045 428 997 515 871 550 L951 640 L775 640 L711 568 L463 568 C158 568 47 408 44 234 C41 132 88 46 213 10 L133 -80 L309 -80 L373 -8 L623 -8 Z M877 310 C877 228 812 127 648 127 L493 127 L762 428 C851 414 877 367 877 310 L877 310 Z M210 250 C211 335 276 433 439 433 L590 433 L322 131 C234 146 209 193 210 250 L210 250 Z " />
<glyph glyph-name="ugrave" unicode="&#xf9;" horiz-adv-x="1048" d="M222 258 L276 560 L121 560 L67 258 C39 104 88 -8 344 -8 L603 -8 C823 -8 921 82 949 239 L1006 560 L851 560 L796 256 C780 169 729 127 614 127 L372 127 C224 127 209 174 222 258 L222 258 Z M613 806 L427 806 L566 635 L675 635 L613 806 Z " />
<glyph glyph-name="uacute" unicode="&#xfa;" horiz-adv-x="1048" d="M222 258 L276 560 L121 560 L67 258 C39 104 88 -8 344 -8 L603 -8 C823 -8 921 82 949 239 L1006 560 L851 560 L796 256 C780 169 729 127 614 127 L372 127 C224 127 209 174 222 258 L222 258 Z M473 635 L593 635 L796 806 L596 806 L473 635 Z " />
<glyph glyph-name="ucircumflex" unicode="&#xfb;" horiz-adv-x="1048" d="M222 258 L276 560 L121 560 L67 258 C39 104 88 -8 344 -8 L603 -8 C823 -8 921 82 949 239 L1006 560 L851 560 L796 256 C780 169 729 127 614 127 L372 127 C224 127 209 174 222 258 L222 258 Z M371 635 L486 635 L595 723 L671 635 L781 635 L706 806 L508 806 L371 635 Z " />
<glyph glyph-name="udieresis" unicode="&#xfc;" horiz-adv-x="1048" d="M222 258 L276 560 L121 560 L67 258 C39 104 88 -8 344 -8 L603 -8 C823 -8 921 82 949 239 L1006 560 L851 560 L796 256 C780 169 729 127 614 127 L372 127 C224 127 209 174 222 258 L222 258 Z M643 641 L799 641 L827 797 L671 797 L643 641 Z M355 641 L511 641 L538 797 L382 797 L355 641 Z " />
<glyph glyph-name="yacute" unicode="&#xfd;" horiz-adv-x="1024" d="M375 0 L531 0 L561 171 L1071 560 L834 560 L495 286 L249 560 L33 560 L405 171 L375 0 Z M460 635 L580 635 L783 806 L583 806 L460 635 Z " />
<glyph glyph-name="thorn" unicode="&#xfe;" horiz-adv-x="996" d="M41 0 L197 0 L214 90 L679 90 C886 90 958 197 958 308 C958 398 903 470 747 470 L282 470 L298 560 L142 560 L41 0 Z M718 334 C779 334 792 316 792 290 C792 260 775 226 699 226 L239 226 L257 334 L718 334 Z " />
<glyph glyph-name="ydieresis" unicode="&#xff;" horiz-adv-x="1024" d="M375 0 L531 0 L561 171 L1071 560 L834 560 L495 286 L249 560 L33 560 L405 171 L375 0 Z M630 641 L786 641 L814 797 L658 797 L630 641 Z M342 641 L498 641 L525 797 L369 797 L342 641 Z " />
<glyph glyph-name="Amacron" unicode="&#x100;" horiz-adv-x="1238" d="M971 0 L1177 0 L777 700 L593 700 L-57 0 L165 0 L268 113 L907 113 L971 0 Z M664 548 L827 257 L399 257 L664 548 Z M514 804 L890 804 L910 916 L534 916 L514 804 Z " />
<glyph glyph-name="amacron" unicode="&#x101;" horiz-adv-x="1058" d="M810 0 L996 0 L652 560 L487 560 L-56 0 L142 0 L232 95 L753 95 L810 0 Z M552 432 L683 213 L344 213 L552 432 Z M399 664 L775 664 L795 776 L419 776 L399 664 Z " />
<glyph glyph-name="Abreve" unicode="&#x102;" horiz-adv-x="1238" d="M971 0 L1177 0 L777 700 L593 700 L-57 0 L165 0 L268 113 L907 113 L971 0 Z M664 548 L827 257 L399 257 L664 548 Z M712 882 C651 882 630 909 634 946 L541 946 C530 867 548 774 695 774 C841 774 893 864 912 946 L816 946 C805 909 771 882 712 882 L712 882 Z " />
<glyph glyph-name="abreve" unicode="&#x103;" horiz-adv-x="1058" d="M810 0 L996 0 L652 560 L487 560 L-56 0 L142 0 L232 95 L753 95 L810 0 Z M552 432 L683 213 L344 213 L552 432 Z M597 742 C536 742 515 769 519 806 L426 806 C415 727 433 634 580 634 C726 634 778 724 797 806 L701 806 C690 769 656 742 597 742 L597 742 Z " />
<glyph glyph-name="Aogonek" unicode="&#x104;" horiz-adv-x="1238" d="M779 -194 C779 -250 829 -287 907 -287 C954 -287 1003 -284 1059 -264 L1073 -187 C1035 -202 1018 -205 991 -205 C949 -205 922 -187 922 -151 C922 -86 990 -38 1058 0 L1177 0 L777 700 L593 700 L-57 0 L165 0 L268 113 L907 113 L971 0 C876 -36 779 -100 779 -194 L779 -194 Z M664 548 L827 257 L399 257 L664 548 Z " />
<glyph glyph-name="aogonek" unicode="&#x105;" horiz-adv-x="1058" d="M618 -194 C618 -250 668 -287 746 -287 C793 -287 842 -284 898 -264 L912 -187 C874 -202 857 -205 830 -205 C788 -205 761 -187 761 -151 C761 -86 829 -38 897 0 L996 0 L652 560 L487 560 L-56 0 L142 0 L232 95 L753 95 L810 0 C715 -36 618 -100 618 -194 L618 -194 Z M552 432 L683 213 L344 213 L552 432 Z " />
<glyph glyph-name="Cacute" unicode="&#x106;" horiz-adv-x="1136" d="M249 318 C249 416 294 540 528 540 L1102 540 L1131 700 L544 700 C198 700 60 507 60 296 C60 130 161 0 429 0 L1006 0 L1034 160 L458 160 C294 160 249 229 249 318 L249 318 Z M588 775 L708 775 L911 946 L711 946 L588 775 Z " />
<glyph glyph-name="cacute" unicode="&#x107;" horiz-adv-x="972" d="M211 250 C211 340 285 425 443 425 L926 425 L952 560 L452 560 C151 560 44 400 44 232 C44 102 126 0 351 0 L851 0 L876 135 L368 135 C248 135 211 178 211 250 L211 250 Z M473 635 L593 635 L796 806 L596 806 L473 635 Z " />
<glyph glyph-name="Ccircumflex" unicode="&#x108;" horiz-adv-x="1136" d="M249 318 C249 416 294 540 528 540 L1102 540 L1131 700 L544 700 C198 700 60 507 60 296 C60 130 161 0 429 0 L1006 0 L1034 160 L458 160 C294 160 249 229 249 318 L249 318 Z M486 775 L601 775 L710 863 L786 775 L896 775 L821 946 L623 946 L486 775 Z " />
<glyph glyph-name="ccircumflex" unicode="&#x109;" horiz-adv-x="972" d="M211 250 C211 340 285 425 443 425 L926 425 L952 560 L452 560 C151 560 44 400 44 232 C44 102 126 0 351 0 L851 0 L876 135 L368 135 C248 135 211 178 211 250 L211 250 Z M371 635 L486 635 L595 723 L671 635 L781 635 L706 806 L508 806 L371 635 Z " />
<glyph glyph-name="Cdotaccent" unicode="&#x10a;" horiz-adv-x="1136" d="M249 318 C249 416 294 540 528 540 L1102 540 L1131 700 L544 700 C198 700 60 507 60 296 C60 130 161 0 429 0 L1006 0 L1034 160 L458 160 C294 160 249 229 249 318 L249 318 Z M617 781 L771 781 L799 937 L645 937 L617 781 Z " />
<glyph glyph-name="cdotaccent" unicode="&#x10b;" horiz-adv-x="972" d="M211 250 C211 340 285 425 443 425 L926 425 L952 560 L452 560 C151 560 44 400 44 232 C44 102 126 0 351 0 L851 0 L876 135 L368 135 C248 135 211 178 211 250 L211 250 Z M502 641 L656 641 L684 797 L530 797 L502 641 Z " />
<glyph glyph-name="Ccaron" unicode="&#x10c;" horiz-adv-x="1136" d="M249 318 C249 416 294 540 528 540 L1102 540 L1131 700 L544 700 C198 700 60 507 60 296 C60 130 161 0 429 0 L1006 0 L1034 160 L458 160 C294 160 249 229 249 318 L249 318 Z M929 946 L814 946 L705 858 L629 946 L519 946 L594 775 L792 775 L929 946 Z " />
<glyph glyph-name="ccaron" unicode="&#x10d;" horiz-adv-x="972" d="M211 250 C211 340 285 425 443 425 L926 425 L952 560 L452 560 C151 560 44 400 44 232 C44 102 126 0 351 0 L851 0 L876 135 L368 135 C248 135 211 178 211 250 L211 250 Z M814 806 L699 806 L590 718 L514 806 L404 806 L479 635 L677 635 L814 806 Z " />
<glyph glyph-name="Dcaron" unicode="&#x10e;" horiz-adv-x="1204" d="M51 0 L664 0 C1008 0 1147 193 1147 404 C1147 570 1046 700 778 700 L176 700 L51 0 Z M749 540 C913 540 958 471 958 382 C958 284 913 160 679 160 L253 160 L320 540 L749 540 Z M901 946 L786 946 L677 858 L601 946 L491 946 L566 775 L764 775 L901 946 Z " />
<glyph glyph-name="dcaron" unicode="&#x10f;" horiz-adv-x="1035" d="M41 0 L565 0 C866 0 973 160 973 328 C973 457 889 560 666 560 L142 560 L41 0 Z M649 425 C769 425 806 382 806 310 C806 220 732 135 574 135 L222 135 L272 425 L649 425 Z M798 806 L683 806 L574 718 L498 806 L388 806 L463 635 L661 635 L798 806 Z " />
<glyph glyph-name="Dcroat" unicode="&#x110;" horiz-adv-x="1204" d="M-25 278 L100 278 L51 0 L664 0 C1008 0 1147 193 1147 404 C1147 570 1046 700 778 700 L176 700 L126 422 L2 422 L-25 278 Z M749 540 C913 540 958 471 958 382 C958 284 913 160 679 160 L253 160 L274 278 L610 278 L636 422 L299 422 L320 540 L749 540 Z " />
<glyph glyph-name="dcroat" unicode="&#x111;" horiz-adv-x="1035" d="M-36 221 L81 221 L41 0 L565 0 C866 0 973 160 973 328 C973 457 889 560 666 560 L142 560 L102 339 L-14 339 L-36 221 Z M649 425 C769 425 806 382 806 310 C806 220 732 135 574 135 L222 135 L237 221 L526 221 L548 339 L257 339 L272 425 L649 425 Z " />
<glyph glyph-name="Emacron" unicode="&#x112;" horiz-adv-x="1150" d="M51 0 L1021 0 L1050 160 L256 160 L275 278 L971 278 L998 422 L302 422 L322 540 L1116 540 L1146 700 L176 700 L51 0 Z M479 804 L855 804 L875 916 L499 916 L479 804 Z " />
<glyph glyph-name="emacron" unicode="&#x113;" horiz-adv-x="990" d="M41 0 L867 0 L891 135 L221 135 L235 221 L820 221 L842 339 L257 339 L271 425 L941 425 L966 560 L140 560 L41 0 Z M376 664 L752 664 L772 776 L396 776 L376 664 Z " />
<glyph glyph-name="Ebreve" unicode="&#x114;" horiz-adv-x="1150" d="M51 0 L1021 0 L1050 160 L256 160 L275 278 L971 278 L998 422 L302 422 L322 540 L1116 540 L1146 700 L176 700 L51 0 Z M677 882 C616 882 595 909 599 946 L506 946 C495 867 513 774 660 774 C806 774 858 864 877 946 L781 946 C770 909 736 882 677 882 L677 882 Z " />
<glyph glyph-name="ebreve" unicode="&#x115;" horiz-adv-x="990" d="M41 0 L867 0 L891 135 L221 135 L235 221 L820 221 L842 339 L257 339 L271 425 L941 425 L966 560 L140 560 L41 0 Z M575 742 C514 742 493 769 497 806 L404 806 C393 727 411 634 558 634 C704 634 756 724 775 806 L679 806 C668 769 634 742 575 742 L575 742 Z " />
<glyph glyph-name="Edotaccent" unicode="&#x116;" horiz-adv-x="1150" d="M51 0 L1021 0 L1050 160 L256 160 L275 278 L971 278 L998 422 L302 422 L322 540 L1116 540 L1146 700 L176 700 L51 0 Z M586 781 L740 781 L768 937 L614 937 L586 781 Z " />
<glyph glyph-name="edotaccent" unicode="&#x117;" horiz-adv-x="990" d="M41 0 L867 0 L891 135 L221 135 L235 221 L820 221 L842 339 L257 339 L271 425 L941 425 L966 560 L140 560 L41 0 Z M483 641 L637 641 L665 797 L511 797 L483 641 Z " />
<glyph glyph-name="Eogonek" unicode="&#x118;" horiz-adv-x="1150" d="M51 0 L885 0 C790 -36 693 -100 693 -194 C693 -250 743 -287 821 -287 C868 -287 917 -284 973 -264 L987 -187 C949 -202 932 -205 905 -205 C863 -205 836 -187 836 -151 C836 -86 904 -38 972 0 L1021 0 L1050 160 L256 160 L275 278 L971 278 L998 422 L302 422 L322 540 L1116 540 L1146 700 L176 700 L51 0 Z " />
<glyph glyph-name="eogonek" unicode="&#x119;" horiz-adv-x="990" d="M41 0 L731 0 C636 -36 539 -100 539 -194 C539 -250 589 -287 667 -287 C714 -287 763 -284 819 -264 L833 -187 C795 -202 778 -205 751 -205 C709 -205 682 -187 682 -151 C682 -86 750 -38 818 0 L867 0 L891 135 L221 135 L235 221 L820 221 L842 339 L257 339 L271 425 L941 425 L966 560 L140 560 L41 0 Z " />
<glyph glyph-name="Ecaron" unicode="&#x11a;" horiz-adv-x="1150" d="M51 0 L1021 0 L1050 160 L256 160 L275 278 L971 278 L998 422 L302 422 L322 540 L1116 540 L1146 700 L176 700 L51 0 Z M898 946 L783 946 L674 858 L598 946 L488 946 L563 775 L761 775 L898 946 Z " />
<glyph glyph-name="ecaron" unicode="&#x11b;" horiz-adv-x="990" d="M41 0 L867 0 L891 135 L221 135 L235 221 L820 221 L842 339 L257 339 L271 425 L941 425 L966 560 L140 560 L41 0 Z M795 806 L680 806 L571 718 L495 806 L385 806 L460 635 L658 635 L795 806 Z " />
<glyph glyph-name="Gcircumflex" unicode="&#x11c;" horiz-adv-x="1205" d="M620 278 L938 278 L918 160 L458 160 C294 160 249 229 249 318 C249 416 293 540 528 540 L1102 540 L1131 700 L544 700 C198 700 60 507 60 296 C60 130 161 0 429 0 L1059 0 L1134 422 L647 422 L620 278 Z M495 775 L610 775 L719 863 L795 775 L905 775 L830 946 L632 946 L495 775 Z " />
<glyph glyph-name="gcircumflex" unicode="&#x11d;" horiz-adv-x="1034" d="M351 0 L895 0 L954 339 L539 339 L516 221 L780 221 L767 135 L368 135 C248 135 211 178 211 250 C211 340 285 425 443 425 L925 425 L950 560 L452 560 C151 560 44 400 44 232 C44 102 126 0 351 0 L351 0 Z M374 635 L489 635 L598 723 L674 635 L784 635 L709 806 L511 806 L374 635 Z " />
<glyph glyph-name="Gbreve" unicode="&#x11e;" horiz-adv-x="1205" d="M620 278 L938 278 L918 160 L458 160 C294 160 249 229 249 318 C249 416 293 540 528 540 L1102 540 L1131 700 L544 700 C198 700 60 507 60 296 C60 130 161 0 429 0 L1059 0 L1134 422 L647 422 L620 278 Z M718 882 C657 882 636 909 640 946 L547 946 C536 867 554 774 701 774 C847 774 899 864 918 946 L822 946 C811 909 777 882 718 882 L718 882 Z " />
<glyph glyph-name="gbreve" unicode="&#x11f;" horiz-adv-x="1034" d="M351 0 L895 0 L954 339 L539 339 L516 221 L780 221 L767 135 L368 135 C248 135 211 178 211 250 C211 340 285 425 443 425 L925 425 L950 560 L452 560 C151 560 44 400 44 232 C44 102 126 0 351 0 L351 0 Z M597 742 C536 742 515 769 519 806 L426 806 C415 727 433 634 580 634 C726 634 778 724 797 806 L701 806 C690 769 656 742 597 742 L597 742 Z " />
<glyph glyph-name="Gdotaccent" unicode="&#x120;" horiz-adv-x="1205" d="M620 278 L938 278 L918 160 L458 160 C294 160 249 229 249 318 C249 416 293 540 528 540 L1102 540 L1131 700 L544 700 C198 700 60 507 60 296 C60 130 161 0 429 0 L1059 0 L1134 422 L647 422 L620 278 Z M626 781 L780 781 L808 937 L654 937 L626 781 Z " />
<glyph glyph-name="gdotaccent" unicode="&#x121;" horiz-adv-x="1034" d="M351 0 L895 0 L954 339 L539 339 L516 221 L780 221 L767 135 L368 135 C248 135 211 178 211 250 C211 340 285 425 443 425 L925 425 L950 560 L452 560 C151 560 44 400 44 232 C44 102 126 0 351 0 L351 0 Z M505 641 L659 641 L687 797 L533 797 L505 641 Z " />
<glyph glyph-name="uni0122" unicode="&#x122;" horiz-adv-x="1205" d="M620 278 L938 278 L918 160 L458 160 C294 160 249 229 249 318 C249 416 293 540 528 540 L1102 540 L1131 700 L544 700 C198 700 60 507 60 296 C60 130 161 0 429 0 L1059 0 L1134 422 L647 422 L620 278 Z M460 -240 L512 -240 L415 -376 L489 -376 L613 -226 L638 -84 L488 -84 L460 -240 Z " />
<glyph glyph-name="uni0123" unicode="&#x123;" horiz-adv-x="1034" d="M351 0 L895 0 L954 339 L539 339 L516 221 L780 221 L767 135 L368 135 C248 135 211 178 211 250 C211 340 285 425 443 425 L925 425 L950 560 L452 560 C151 560 44 400 44 232 C44 102 126 0 351 0 L351 0 Z M361 -240 L413 -240 L316 -376 L390 -376 L514 -226 L539 -84 L389 -84 L361 -240 Z " />
<glyph glyph-name="Hcircumflex" unicode="&#x124;" horiz-adv-x="1252" d="M906 0 L1082 0 L1207 700 L1031 700 L983 430 L303 430 L352 700 L176 700 L51 0 L227 0 L273 270 L953 270 L906 0 Z M496 775 L611 775 L720 863 L796 775 L906 775 L831 946 L633 946 L496 775 Z " />
<glyph glyph-name="hcircumflex" unicode="&#x125;" horiz-adv-x="1079" d="M763 0 L919 0 L1018 560 L862 560 L825 348 L260 348 L296 560 L140 560 L41 0 L197 0 L234 212 L799 212 L763 0 Z M386 635 L501 635 L610 723 L686 635 L796 635 L721 806 L523 806 L386 635 Z " />
<glyph glyph-name="Hbar" unicode="&#x126;" horiz-adv-x="1252" d="M49 533 L146 533 L51 0 L227 0 L273 270 L953 270 L906 0 L1082 0 L1177 533 L1273 533 L1285 597 L1188 597 L1207 700 L1031 700 L1013 597 L333 597 L352 700 L176 700 L157 597 L62 597 L49 533 Z M303 430 L321 533 L1001 533 L983 430 L303 430 Z " />
<glyph glyph-name="hbar" unicode="&#x127;" horiz-adv-x="1079" d="M30 422 L115 422 L41 0 L197 0 L234 212 L799 212 L763 0 L919 0 L993 422 L1080 422 L1092 486 L1005 486 L1018 560 L862 560 L849 486 L283 486 L296 560 L140 560 L127 486 L41 486 L30 422 Z M260 348 L272 422 L838 422 L825 348 L260 348 Z " />
<glyph glyph-name="Itilde" unicode="&#x128;" horiz-adv-x="397" d="M51 0 L227 0 L352 700 L176 700 L51 0 Z M400 946 C394 912 382 899 362 899 C330 899 292 940 232 940 C164 940 113 897 88 774 L174 774 C179 807 190 821 211 821 C242 821 280 779 340 779 C409 779 460 822 486 946 L400 946 Z " />
<glyph glyph-name="itilde" unicode="&#x129;" horiz-adv-x="357" d="M41 0 L197 0 L296 560 L140 560 L41 0 Z M356 806 C350 772 338 759 318 759 C286 759 248 800 188 800 C120 800 69 757 44 634 L130 634 C135 667 146 681 167 681 C198 681 236 639 296 639 C365 639 416 682 442 806 L356 806 Z " />
<glyph glyph-name="Imacron" unicode="&#x12a;" horiz-adv-x="397" d="M51 0 L227 0 L352 700 L176 700 L51 0 Z M91 804 L467 804 L487 916 L111 916 L91 804 Z " />
<glyph glyph-name="imacron" unicode="&#x12b;" horiz-adv-x="357" d="M41 0 L197 0 L296 560 L140 560 L41 0 Z M47 664 L423 664 L443 776 L67 776 L47 664 Z " />
<glyph glyph-name="Ibreve" unicode="&#x12c;" horiz-adv-x="397" d="M51 0 L227 0 L352 700 L176 700 L51 0 Z M289 882 C228 882 207 909 211 946 L118 946 C107 867 125 774 272 774 C418 774 470 864 489 946 L393 946 C382 909 348 882 289 882 L289 882 Z " />
<glyph glyph-name="ibreve" unicode="&#x12d;" horiz-adv-x="357" d="M41 0 L197 0 L296 560 L140 560 L41 0 Z M245 742 C184 742 163 769 167 806 L74 806 C63 727 81 634 228 634 C374 634 426 724 445 806 L349 806 C338 769 304 742 245 742 L245 742 Z " />
<glyph glyph-name="Iogonek" unicode="&#x12e;" horiz-adv-x="397" d="M-92 -184 C-92 -256 -21 -287 33 -287 C80 -287 129 -284 185 -264 L201 -187 C162 -202 145 -205 118 -205 C68 -205 42 -181 42 -140 C42 -88 75 -38 121 0 L227 0 L352 700 L176 700 L51 0 C-21 -35 -92 -99 -92 -184 L-92 -184 Z " />
<glyph glyph-name="iogonek" unicode="&#x12f;" horiz-adv-x="357" d="M-102 -184 C-102 -256 -31 -287 23 -287 C70 -287 119 -284 175 -264 L191 -187 C152 -202 135 -205 108 -205 C58 -205 32 -181 32 -140 C32 -88 65 -38 111 0 L197 0 L296 560 L140 560 L41 0 C-31 -35 -102 -99 -102 -184 L-102 -184 Z " />
<glyph glyph-name="Idotaccent" unicode="&#x130;" horiz-adv-x="397" d="M51 0 L227 0 L352 700 L176 700 L51 0 Z M198 781 L352 781 L380 937 L226 937 L198 781 Z " />
<glyph glyph-name="dotlessi" unicode="&#x131;" horiz-adv-x="357" d="M41 0 L197 0 L296 560 L140 560 L41 0 Z " />
<glyph glyph-name="IJ" unicode="&#x132;" horiz-adv-x="1219" d="M111 445 L287 445 L333 700 L157 700 L111 445 Z M357 -5 L701 -5 C980 -5 1089 108 1124 304 L1194 700 L1018 700 L950 333 C930 219 867 155 724 155 L387 155 C263 155 242 204 256 275 L268 338 L92 338 L80 275 C51 124 117 -5 357 -5 L357 -5 Z " />
<glyph glyph-name="ij" unicode="&#x133;" horiz-adv-x="1046" d="M85 356 L241 356 L277 560 L121 560 L85 356 Z M295 -4 L602 -4 C822 -4 920 85 948 243 L1005 560 L849 560 L794 260 C778 173 726 131 611 131 L305 131 C216 131 206 171 214 220 L223 272 L69 272 L60 220 C39 97 87 -4 295 -4 L295 -4 Z " />
<glyph glyph-name="Jcircumflex" unicode="&#x134;" horiz-adv-x="1161" d="M299 -5 L643 -5 C922 -5 1031 108 1066 304 L1136 700 L960 700 L892 333 C872 219 809 155 666 155 L329 155 C205 155 184 204 198 275 L210 338 L34 338 L22 275 C-7 124 59 -5 299 -5 L299 -5 Z M828 775 L943 775 L1052 863 L1128 775 L1238 775 L1163 946 L965 946 L828 775 Z " />
<glyph glyph-name="jcircumflex" unicode="&#x135;" horiz-adv-x="998" d="M247 -4 L554 -4 C774 -4 872 85 900 243 L957 560 L801 560 L746 260 C730 173 678 131 563 131 L257 131 C168 131 158 171 166 220 L175 272 L21 272 L12 220 C-9 97 39 -4 247 -4 L247 -4 Z M660 635 L775 635 L884 723 L960 635 L1070 635 L995 806 L797 806 L660 635 Z " />
<glyph glyph-name="uni0136" unicode="&#x136;" horiz-adv-x="1248" d="M1228 700 L923 700 L282 322 L349 700 L176 700 L51 0 L224 0 L248 132 L543 303 L922 0 L1191 0 L694 390 L1228 700 Z M437 -240 L489 -240 L392 -376 L466 -376 L590 -226 L615 -84 L465 -84 L437 -240 Z " />
<glyph glyph-name="uni0137" unicode="&#x137;" horiz-adv-x="1074" d="M1043 560 L762 560 L243 266 L296 560 L140 560 L41 0 L197 0 L215 100 L460 236 L771 0 L1013 0 L596 311 L1043 560 Z M351 -240 L403 -240 L306 -376 L380 -376 L504 -226 L529 -84 L379 -84 L351 -240 Z " />
<glyph glyph-name="kgreenlandic" unicode="&#x138;" horiz-adv-x="1222" d="M41 0 L191 0 L209 104 L441 238 L754 0 L1011 0 L582 318 L1002 560 L746 560 L235 255 L289 560 L139 560 L41 0 Z M1185 424 L1133 424 L1230 560 L1156 560 L1033 410 L1008 268 L1158 268 L1185 424 Z " />
<glyph glyph-name="Lacute" unicode="&#x139;" horiz-adv-x="1083" d="M352 700 L176 700 L51 0 L1002 0 L1030 160 L256 160 L352 700 Z M169 775 L289 775 L492 946 L292 946 L169 775 Z " />
<glyph glyph-name="lacute" unicode="&#x13a;" horiz-adv-x="944" d="M296 560 L140 560 L41 0 L851 0 L875 135 L221 135 L296 560 Z M125 635 L245 635 L448 806 L248 806 L125 635 Z " />
<glyph glyph-name="uni013B" unicode="&#x13b;" horiz-adv-x="1083" d="M352 700 L176 700 L51 0 L1002 0 L1030 160 L256 160 L352 700 Z M408 -240 L460 -240 L363 -376 L437 -376 L561 -226 L586 -84 L436 -84 L408 -240 Z " />
<glyph glyph-name="uni013C" unicode="&#x13c;" horiz-adv-x="944" d="M296 560 L140 560 L41 0 L851 0 L875 135 L221 135 L296 560 Z M335 -240 L387 -240 L290 -376 L364 -376 L488 -226 L513 -84 L363 -84 L335 -240 Z " />
<glyph glyph-name="Lcaron" unicode="&#x13d;" horiz-adv-x="1083" d="M352 700 L176 700 L51 0 L1002 0 L1030 160 L256 160 L352 700 Z M824 522 L899 522 L793 359 L870 359 L1003 536 L1034 700 L856 700 L824 522 Z " />
<glyph glyph-name="lcaron" unicode="&#x13e;" horiz-adv-x="944" d="M289 560 L139 560 L41 0 L850 0 L873 135 L214 135 L289 560 Z M701 404 L753 404 L657 268 L730 268 L853 418 L878 560 L728 560 L701 404 Z " />
<glyph glyph-name="Ldot" unicode="&#x13f;" horiz-adv-x="1083" d="M352 700 L176 700 L51 0 L1002 0 L1030 160 L256 160 L352 700 Z M706 352 L860 352 L888 508 L734 508 L706 352 Z " />
<glyph glyph-name="ldot" unicode="&#x140;" horiz-adv-x="944" d="M296 560 L140 560 L41 0 L851 0 L875 135 L221 135 L296 560 Z M598 270 L752 270 L780 426 L626 426 L598 270 Z " />
<glyph glyph-name="Lslash" unicode="&#x141;" horiz-adv-x="1083" d="M625 608 L305 449 L349 700 L176 700 L116 363 L13 318 L-20 138 L86 192 L51 0 L1001 0 L1030 160 L253 160 L272 275 L592 427 L625 608 Z " />
<glyph glyph-name="lslash" unicode="&#x142;" horiz-adv-x="944" d="M527 492 L261 368 L294 560 L140 560 L94 295 L7 259 L-22 107 L69 153 L41 0 L850 0 L874 135 L219 135 L233 220 L497 338 L527 492 Z " />
<glyph glyph-name="Nacute" unicode="&#x143;" horiz-adv-x="1256" d="M919 0 L1086 0 L1211 700 L1035 700 L945 192 L343 700 L176 700 L51 0 L227 0 L316 508 L919 0 Z M600 775 L720 775 L923 946 L723 946 L600 775 Z " />
<glyph glyph-name="nacute" unicode="&#x144;" horiz-adv-x="1083" d="M923 0 L1022 560 L866 560 L797 165 L288 560 L140 560 L41 0 L197 0 L266 395 L775 0 L923 0 Z M490 635 L610 635 L813 806 L613 806 L490 635 Z " />
<glyph glyph-name="uni0145" unicode="&#x145;" horiz-adv-x="1256" d="M919 0 L1086 0 L1211 700 L1035 700 L945 192 L343 700 L176 700 L51 0 L227 0 L316 508 L919 0 Z M451 -240 L503 -240 L406 -376 L480 -376 L604 -226 L629 -84 L479 -84 L451 -240 Z " />
<glyph glyph-name="uni0146" unicode="&#x146;" horiz-adv-x="1083" d="M923 0 L1022 560 L866 560 L797 165 L288 560 L140 560 L41 0 L197 0 L266 395 L775 0 L923 0 Z M364 -240 L416 -240 L319 -376 L393 -376 L517 -226 L542 -84 L392 -84 L364 -240 Z " />
<glyph glyph-name="Ncaron" unicode="&#x147;" horiz-adv-x="1256" d="M919 0 L1086 0 L1211 700 L1035 700 L945 192 L343 700 L176 700 L51 0 L227 0 L316 508 L919 0 Z M941 946 L826 946 L717 858 L641 946 L531 946 L606 775 L804 775 L941 946 Z " />
<glyph glyph-name="ncaron" unicode="&#x148;" horiz-adv-x="1083" d="M923 0 L1022 560 L866 560 L797 165 L288 560 L140 560 L41 0 L197 0 L266 395 L775 0 L923 0 Z M831 806 L716 806 L607 718 L531 806 L421 806 L496 635 L694 635 L831 806 Z " />
<glyph glyph-name="napostrophe" unicode="&#x149;" horiz-adv-x="1341" d="M1181 0 L1280 560 L1124 560 L1055 165 L546 560 L398 560 L299 0 L455 0 L524 395 L1033 0 L1181 0 Z M92 544 L144 544 L47 408 L121 408 L245 558 L270 700 L120 700 L92 544 Z " />
<glyph glyph-name="Eng" unicode="&#x14a;" horiz-adv-x="1256" d="M608 -230 L785 -230 C975 -230 1058 -147 1079 -29 L1211 700 L1035 700 L945 192 L343 700 L176 700 L51 0 L227 0 L316 508 L911 7 L909 -8 C904 -44 872 -70 801 -70 L638 -70 L608 -230 Z " />
<glyph glyph-name="eng" unicode="&#x14b;" horiz-adv-x="1083" d="M517 -184 L682 -184 C836 -184 902 -121 919 -24 L1022 560 L866 560 L797 165 L288 560 L140 560 L41 0 L197 0 L266 395 L768 6 L766 -3 C762 -30 748 -49 691 -49 L543 -49 L517 -184 Z " />
<glyph glyph-name="Omacron" unicode="&#x14c;" horiz-adv-x="1293" d="M735 -10 C1098 -10 1237 178 1237 406 C1237 578 1130 710 858 710 L564 710 C201 710 60 523 60 295 C60 122 170 -10 441 -10 L735 -10 Z M475 150 C301 150 249 222 249 316 C249 424 305 550 552 550 L823 550 C995 550 1048 478 1048 386 C1048 269 985 150 746 150 L475 150 Z M540 804 L916 804 L936 916 L560 916 L540 804 Z " />
<glyph glyph-name="omacron" unicode="&#x14d;" horiz-adv-x="1106" d="M623 -8 C928 -8 1040 152 1043 326 C1046 461 961 568 727 568 L463 568 C158 568 47 408 44 234 C41 99 124 -8 359 -8 L623 -8 Z M386 127 C246 127 209 181 210 250 C211 335 276 433 439 433 L701 433 C840 433 877 379 877 310 C877 228 812 127 648 127 L386 127 Z M423 664 L799 664 L819 776 L443 776 L423 664 Z " />
<glyph glyph-name="Obreve" unicode="&#x14e;" horiz-adv-x="1293" d="M735 -10 C1098 -10 1237 178 1237 406 C1237 578 1130 710 858 710 L564 710 C201 710 60 523 60 295 C60 122 170 -10 441 -10 L735 -10 Z M475 150 C301 150 249 222 249 316 C249 424 305 550 552 550 L823 550 C995 550 1048 478 1048 386 C1048 269 985 150 746 150 L475 150 Z M739 882 C678 882 657 909 661 946 L568 946 C557 867 575 774 722 774 C868 774 920 864 939 946 L843 946 C832 909 798 882 739 882 L739 882 Z " />
<glyph glyph-name="obreve" unicode="&#x14f;" horiz-adv-x="1106" d="M623 -8 C928 -8 1040 152 1043 326 C1046 461 961 568 727 568 L463 568 C158 568 47 408 44 234 C41 99 124 -8 359 -8 L623 -8 Z M386 127 C246 127 209 181 210 250 C211 335 276 433 439 433 L701 433 C840 433 877 379 877 310 C877 228 812 127 648 127 L386 127 Z M621 742 C560 742 539 769 543 806 L450 806 C439 727 457 634 604 634 C750 634 802 724 821 806 L725 806 C714 769 680 742 621 742 L621 742 Z " />
<glyph glyph-name="Ohungarumlaut" unicode="&#x150;" horiz-adv-x="1293" d="M735 -10 C1098 -10 1237 178 1237 406 C1237 578 1130 710 858 710 L564 710 C201 710 60 523 60 295 C60 122 170 -10 441 -10 L735 -10 Z M475 150 C301 150 249 222 249 316 C249 424 305 550 552 550 L823 550 C995 550 1048 478 1048 386 C1048 269 985 150 746 150 L475 150 Z M762 775 L881 775 L1083 946 L886 946 L762 775 Z M481 775 L599 775 L802 946 L605 946 L481 775 Z " />
<glyph glyph-name="ohungarumlaut" unicode="&#x151;" horiz-adv-x="1106" d="M623 -8 C928 -8 1040 152 1043 326 C1046 461 961 568 727 568 L463 568 C158 568 47 408 44 234 C41 99 124 -8 359 -8 L623 -8 Z M386 127 C246 127 209 181 210 250 C211 335 276 433 439 433 L701 433 C840 433 877 379 877 310 C877 228 812 127 648 127 L386 127 Z M644 635 L763 635 L965 806 L768 806 L644 635 Z M363 635 L481 635 L684 806 L487 806 L363 635 Z " />
<glyph glyph-name="OE" unicode="&#x152;" horiz-adv-x="1681" d="M60 296 C57 130 161 0 429 0 L1552 0 L1581 160 L888 160 L908 278 L1503 278 L1530 422 L935 422 L954 540 L1648 540 L1677 700 L554 700 C208 700 63 507 60 296 L60 296 Z M251 318 C253 416 286 540 525 540 L778 540 L712 160 L459 160 C296 160 249 229 251 318 L251 318 Z " />
<glyph glyph-name="oe" unicode="&#x153;" horiz-adv-x="1437" d="M1315 0 L1339 135 L754 135 L768 221 L1268 221 L1290 339 L790 339 L805 425 L1389 425 L1414 560 L452 560 C151 560 44 400 44 232 C44 102 126 0 351 0 L1315 0 Z M211 250 C211 340 285 425 443 425 L650 425 L600 135 L368 135 C248 135 211 178 211 250 L211 250 Z " />
<glyph glyph-name="Racute" unicode="&#x154;" horiz-adv-x="1229" d="M51 0 L224 0 L266 233 L609 233 L904 0 L1171 0 L853 237 C1055 251 1143 364 1143 503 C1143 613 1074 700 892 700 L176 700 L51 0 Z M859 540 C937 540 957 513 957 478 C957 428 925 387 828 387 L293 387 L320 540 L859 540 Z M551 775 L671 775 L874 946 L674 946 L551 775 Z " />
<glyph glyph-name="racute" unicode="&#x155;" horiz-adv-x="1061" d="M41 0 L197 0 L229 183 L520 183 L757 0 L995 0 L736 187 C904 202 967 298 967 400 C967 488 911 560 755 560 L142 560 L41 0 Z M725 425 C789 425 801 402 801 378 C801 349 784 313 704 313 L253 313 L272 425 L725 425 Z M448 635 L568 635 L771 806 L571 806 L448 635 Z " />
<glyph glyph-name="uni0156" unicode="&#x156;" horiz-adv-x="1229" d="M51 0 L224 0 L266 233 L609 233 L904 0 L1171 0 L853 237 C1055 251 1143 364 1143 503 C1143 613 1074 700 892 700 L176 700 L51 0 Z M859 540 C937 540 957 513 957 478 C957 428 925 387 828 387 L293 387 L320 540 L859 540 Z M428 -240 L480 -240 L383 -376 L457 -376 L581 -226 L606 -84 L456 -84 L428 -240 Z " />
<glyph glyph-name="uni0157" unicode="&#x157;" horiz-adv-x="1061" d="M41 0 L197 0 L229 183 L520 183 L757 0 L995 0 L736 187 C904 202 967 298 967 400 C967 488 911 560 755 560 L142 560 L41 0 Z M725 425 C789 425 801 402 801 378 C801 349 784 313 704 313 L253 313 L272 425 L725 425 Z M342 -240 L394 -240 L297 -376 L371 -376 L495 -226 L520 -84 L370 -84 L342 -240 Z " />
<glyph glyph-name="Rcaron" unicode="&#x158;" horiz-adv-x="1229" d="M51 0 L224 0 L266 233 L609 233 L904 0 L1171 0 L853 237 C1055 251 1143 364 1143 503 C1143 613 1074 700 892 700 L176 700 L51 0 Z M859 540 C937 540 957 513 957 478 C957 428 925 387 828 387 L293 387 L320 540 L859 540 Z M892 946 L777 946 L668 858 L592 946 L482 946 L557 775 L755 775 L892 946 Z " />
<glyph glyph-name="rcaron" unicode="&#x159;" horiz-adv-x="1061" d="M41 0 L197 0 L229 183 L520 183 L757 0 L995 0 L736 187 C904 202 967 298 967 400 C967 488 911 560 755 560 L142 560 L41 0 Z M725 425 C789 425 801 402 801 378 C801 349 784 313 704 313 L253 313 L272 425 L725 425 Z M789 806 L674 806 L565 718 L489 806 L379 806 L454 635 L652 635 L789 806 Z " />
<glyph glyph-name="Sacute" unicode="&#x15a;" horiz-adv-x="1158" d="M797 160 L71 160 L41 0 L773 0 C989 0 1078 109 1078 243 C1078 345 1013 422 847 422 L347 422 C285 422 273 446 273 472 C273 507 294 540 367 540 L1093 540 L1123 700 L391 700 C175 700 86 591 86 457 C86 355 151 278 316 278 L817 278 C879 278 891 254 891 228 C891 193 870 160 797 160 L797 160 Z M551 775 L671 775 L874 946 L674 946 L551 775 Z " />
<glyph glyph-name="sacute" unicode="&#x15b;" horiz-adv-x="989" d="M672 135 L53 135 L28 0 L655 0 C846 0 908 92 908 198 C908 278 856 337 716 337 L283 337 C236 337 225 355 225 373 C225 397 240 425 298 425 L917 425 L943 560 L316 560 C124 560 62 468 62 363 C62 282 114 223 254 223 L687 223 C734 223 745 205 745 187 C745 164 730 135 672 135 L672 135 Z M443 635 L563 635 L766 806 L566 806 L443 635 Z " />
<glyph glyph-name="Scircumflex" unicode="&#x15c;" horiz-adv-x="1158" d="M797 160 L71 160 L41 0 L773 0 C989 0 1078 109 1078 243 C1078 345 1013 422 847 422 L347 422 C285 422 273 446 273 472 C273 507 294 540 367 540 L1093 540 L1123 700 L391 700 C175 700 86 591 86 457 C86 355 151 278 316 278 L817 278 C879 278 891 254 891 228 C891 193 870 160 797 160 L797 160 Z M449 775 L564 775 L673 863 L749 775 L859 775 L784 946 L586 946 L449 775 Z " />
<glyph glyph-name="scircumflex" unicode="&#x15d;" horiz-adv-x="989" d="M672 135 L53 135 L28 0 L655 0 C846 0 908 92 908 198 C908 278 856 337 716 337 L283 337 C236 337 225 355 225 373 C225 397 240 425 298 425 L917 425 L943 560 L316 560 C124 560 62 468 62 363 C62 282 114 223 254 223 L687 223 C734 223 745 205 745 187 C745 164 730 135 672 135 L672 135 Z M341 635 L456 635 L565 723 L641 635 L751 635 L676 806 L478 806 L341 635 Z " />
<glyph glyph-name="Scedilla" unicode="&#x15e;" horiz-adv-x="1158" d="M421 -139 L462 -139 C504 -139 526 -146 526 -169 C526 -208 476 -215 429 -215 C394 -215 362 -204 347 -191 L332 -267 C358 -282 405 -297 456 -296 C546 -295 644 -269 644 -161 C644 -92 575 -65 510 -71 L543 0 L773 0 C989 0 1078 109 1078 243 C1078 345 1013 422 847 422 L347 422 C285 422 273 446 273 472 C273 507 294 540 367 540 L1093 540 L1123 700 L391 700 C175 700 86 591 86 457 C86 355 151 278 316 278 L817 278 C879 278 891 254 891 228 C891 193 870 160 797 160 L71 160 L41 0 L482 0 L421 -139 Z " />
<glyph glyph-name="scedilla" unicode="&#x15f;" horiz-adv-x="989" d="M337 -139 L378 -139 C420 -139 442 -146 442 -169 C442 -208 392 -215 345 -215 C310 -215 278 -204 263 -191 L248 -267 C274 -282 321 -297 372 -296 C462 -295 560 -269 560 -161 C560 -92 491 -65 426 -71 L459 0 L655 0 C846 0 908 92 908 198 C908 278 856 337 716 337 L283 337 C236 337 225 355 225 373 C225 397 240 425 298 425 L917 425 L943 560 L316 560 C124 560 62 468 62 363 C62 282 114 223 254 223 L687 223 C734 223 745 205 745 187 C745 164 730 135 672 135 L53 135 L28 0 L398 0 L337 -139 Z " />
<glyph glyph-name="Scaron" unicode="&#x160;" horiz-adv-x="1158" d="M797 160 L71 160 L41 0 L773 0 C989 0 1078 109 1078 243 C1078 345 1013 422 847 422 L347 422 C285 422 273 446 273 472 C273 507 294 540 367 540 L1093 540 L1123 700 L391 700 C175 700 86 591 86 457 C86 355 151 278 316 278 L817 278 C879 278 891 254 891 228 C891 193 870 160 797 160 L797 160 Z M892 946 L777 946 L668 858 L592 946 L482 946 L557 775 L755 775 L892 946 Z " />
<glyph glyph-name="scaron" unicode="&#x161;" horiz-adv-x="989" d="M672 135 L53 135 L28 0 L655 0 C846 0 908 92 908 198 C908 278 856 337 716 337 L283 337 C236 337 225 355 225 373 C225 397 240 425 298 425 L917 425 L943 560 L316 560 C124 560 62 468 62 363 C62 282 114 223 254 223 L687 223 C734 223 745 205 745 187 C745 164 730 135 672 135 L672 135 Z M784 806 L669 806 L560 718 L484 806 L374 806 L449 635 L647 635 L784 806 Z " />
<glyph glyph-name="uni0162" unicode="&#x162;" horiz-adv-x="1136" d="M410 -139 L451 -139 C493 -139 515 -146 515 -169 C515 -208 465 -215 418 -215 C383 -215 351 -204 336 -191 L321 -267 C347 -282 394 -297 445 -296 C535 -295 633 -269 633 -161 C633 -92 564 -65 499 -71 L532 0 L596 0 L692 540 L1150 540 L1179 700 L88 700 L58 540 L516 540 L420 0 L471 0 L410 -139 Z " />
<glyph glyph-name="uni0163" unicode="&#x163;" horiz-adv-x="996" d="M341 -139 L382 -139 C424 -139 446 -146 446 -169 C446 -208 396 -215 349 -215 C314 -215 282 -204 267 -191 L252 -267 C278 -282 325 -297 376 -296 C466 -295 564 -269 564 -161 C564 -92 495 -65 430 -71 L463 0 L517 0 L591 425 L977 425 L1002 560 L74 560 L49 425 L435 425 L361 0 L402 0 L341 -139 Z " />
<glyph glyph-name="Tcaron" unicode="&#x164;" horiz-adv-x="1136" d="M58 540 L516 540 L420 0 L596 0 L692 540 L1150 540 L1179 700 L88 700 L58 540 Z M881 946 L766 946 L657 858 L581 946 L471 946 L546 775 L744 775 L881 946 Z " />
<glyph glyph-name="tcaron" unicode="&#x165;" horiz-adv-x="996" d="M49 425 L435 425 L361 0 L517 0 L591 425 L977 425 L1002 560 L74 560 L49 425 Z M788 806 L673 806 L564 718 L488 806 L378 806 L453 635 L651 635 L788 806 Z " />
<glyph glyph-name="Tbar" unicode="&#x166;" horiz-adv-x="1136" d="M58 540 L516 540 L494 418 L266 418 L240 282 L470 282 L420 0 L596 0 L646 282 L874 282 L900 418 L670 418 L692 540 L1150 540 L1179 700 L88 700 L58 540 Z " />
<glyph glyph-name="tbar" unicode="&#x167;" horiz-adv-x="996" d="M49 425 L435 425 L417 323 L214 323 L193 209 L397 209 L361 0 L517 0 L553 209 L756 209 L777 323 L573 323 L591 425 L977 425 L1002 560 L74 560 L49 425 Z " />
<glyph glyph-name="Utilde" unicode="&#x168;" horiz-adv-x="1223" d="M264 323 L333 700 L157 700 L88 323 C53 130 129 -10 415 -10 L703 -10 C982 -10 1094 115 1128 306 L1198 700 L1022 700 L956 335 C935 221 871 150 728 150 L435 150 C279 150 247 222 264 323 L264 323 Z M815 946 C809 912 797 899 777 899 C745 899 707 940 647 940 C579 940 528 897 503 774 L589 774 C594 807 605 821 626 821 C657 821 695 779 755 779 C824 779 875 822 901 946 L815 946 Z " />
<glyph glyph-name="utilde" unicode="&#x169;" horiz-adv-x="1048" d="M222 258 L276 560 L121 560 L67 258 C39 104 88 -8 344 -8 L603 -8 C823 -8 921 82 949 239 L1006 560 L851 560 L796 256 C780 169 729 127 614 127 L372 127 C224 127 209 174 222 258 L222 258 Z M704 806 C698 772 686 759 666 759 C634 759 596 800 536 800 C468 800 417 757 392 634 L478 634 C483 667 494 681 515 681 C546 681 584 639 644 639 C713 639 764 682 790 806 L704 806 Z " />
<glyph glyph-name="Umacron" unicode="&#x16a;" horiz-adv-x="1223" d="M264 323 L333 700 L157 700 L88 323 C53 130 129 -10 415 -10 L703 -10 C982 -10 1094 115 1128 306 L1198 700 L1022 700 L956 335 C935 221 871 150 728 150 L435 150 C279 150 247 222 264 323 L264 323 Z M506 804 L882 804 L902 916 L526 916 L506 804 Z " />
<glyph glyph-name="umacron" unicode="&#x16b;" horiz-adv-x="1048" d="M222 258 L276 560 L121 560 L67 258 C39 104 88 -8 344 -8 L603 -8 C823 -8 921 82 949 239 L1006 560 L851 560 L796 256 C780 169 729 127 614 127 L372 127 C224 127 209 174 222 258 L222 258 Z M395 664 L771 664 L791 776 L415 776 L395 664 Z " />
<glyph glyph-name="Ubreve" unicode="&#x16c;" horiz-adv-x="1223" d="M264 323 L333 700 L157 700 L88 323 C53 130 129 -10 415 -10 L703 -10 C982 -10 1094 115 1128 306 L1198 700 L1022 700 L956 335 C935 221 871 150 728 150 L435 150 C279 150 247 222 264 323 L264 323 Z M704 882 C643 882 622 909 626 946 L533 946 C522 867 540 774 687 774 C833 774 885 864 904 946 L808 946 C797 909 763 882 704 882 L704 882 Z " />
<glyph glyph-name="ubreve" unicode="&#x16d;" horiz-adv-x="1048" d="M222 258 L276 560 L121 560 L67 258 C39 104 88 -8 344 -8 L603 -8 C823 -8 921 82 949 239 L1006 560 L851 560 L796 256 C780 169 729 127 614 127 L372 127 C224 127 209 174 222 258 L222 258 Z M593 742 C532 742 511 769 515 806 L422 806 C411 727 429 634 576 634 C722 634 774 724 793 806 L697 806 C686 769 652 742 593 742 L593 742 Z " />
<glyph glyph-name="Uring" unicode="&#x16e;" horiz-adv-x="1223" d="M264 323 L333 700 L157 700 L88 323 C53 130 129 -10 415 -10 L703 -10 C982 -10 1094 115 1128 306 L1198 700 L1022 700 L956 335 C935 221 871 150 728 150 L435 150 C279 150 247 222 264 323 L264 323 Z M666 858 C666 880 686 897 707 897 C725 897 739 882 739 864 C739 842 719 825 699 825 C680 825 666 840 666 858 L666 858 Z M569 853 C569 791 615 743 691 743 C774 743 837 800 837 871 C837 932 789 979 715 979 C631 979 569 923 569 853 L569 853 Z " />
<glyph glyph-name="uring" unicode="&#x16f;" horiz-adv-x="1048" d="M222 258 L276 560 L121 560 L67 258 C39 104 88 -8 344 -8 L603 -8 C823 -8 921 82 949 239 L1006 560 L851 560 L796 256 C780 169 729 127 614 127 L372 127 C224 127 209 174 222 258 L222 258 Z M555 718 C555 740 575 757 596 757 C614 757 628 742 628 724 C628 702 608 685 588 685 C569 685 555 700 555 718 L555 718 Z M458 713 C458 651 504 603 580 603 C663 603 726 660 726 731 C726 792 678 839 604 839 C520 839 458 783 458 713 L458 713 Z " />
<glyph glyph-name="Uhungarumlaut" unicode="&#x170;" horiz-adv-x="1223" d="M264 323 L333 700 L157 700 L88 323 C53 130 129 -10 415 -10 L703 -10 C982 -10 1094 115 1128 306 L1198 700 L1022 700 L956 335 C935 221 871 150 728 150 L435 150 C279 150 247 222 264 323 L264 323 Z M727 775 L846 775 L1048 946 L851 946 L727 775 Z M446 775 L564 775 L767 946 L570 946 L446 775 Z " />
<glyph glyph-name="uhungarumlaut" unicode="&#x171;" horiz-adv-x="1048" d="M222 258 L276 560 L121 560 L67 258 C39 104 88 -8 344 -8 L603 -8 C823 -8 921 82 949 239 L1006 560 L851 560 L796 256 C780 169 729 127 614 127 L372 127 C224 127 209 174 222 258 L222 258 Z M616 635 L735 635 L937 806 L740 806 L616 635 Z M335 635 L453 635 L656 806 L459 806 L335 635 Z " />
<glyph glyph-name="Uogonek" unicode="&#x172;" horiz-adv-x="1223" d="M517 -194 C517 -250 567 -287 645 -287 C692 -287 741 -284 797 -264 L811 -187 C773 -202 756 -205 729 -205 C687 -205 660 -187 660 -151 C660 -89 720 -43 784 -6 C1004 16 1097 135 1128 306 L1198 700 L1022 700 L956 335 C935 221 871 150 728 150 L435 150 C279 150 247 222 264 323 L333 700 L157 700 L88 323 C53 130 129 -10 415 -10 L684 -10 C597 -47 517 -108 517 -194 L517 -194 Z " />
<glyph glyph-name="uogonek" unicode="&#x173;" horiz-adv-x="1048" d="M400 -194 C400 -250 450 -287 528 -287 C575 -287 624 -284 680 -264 L694 -187 C656 -202 639 -205 612 -205 C570 -205 543 -187 543 -151 C543 -89 605 -42 670 -5 C843 12 924 99 949 239 L1006 560 L851 560 L796 256 C780 169 729 127 614 127 L372 127 C224 127 209 174 222 258 L276 560 L121 560 L67 258 C39 104 88 -8 344 -8 L571 -8 C483 -45 400 -106 400 -194 L400 -194 Z " />
<glyph glyph-name="Wcircumflex" unicode="&#x174;" horiz-adv-x="1552" d="M800 481 L964 0 L1094 0 L1604 700 L1382 700 L1057 220 L897 700 L767 700 L436 220 L282 700 L80 700 L339 0 L469 0 L800 481 Z M646 775 L761 775 L870 863 L946 775 L1056 775 L981 946 L783 946 L646 775 Z " />
<glyph glyph-name="wcircumflex" unicode="&#x175;" horiz-adv-x="1326" d="M668 374 L810 0 L925 0 L1351 560 L1158 560 L892 186 L754 560 L639 560 L370 186 L235 560 L54 560 L282 0 L397 0 L668 374 Z M509 635 L624 635 L733 723 L809 635 L919 635 L844 806 L646 806 L509 635 Z " />
<glyph glyph-name="Ycircumflex" unicode="&#x176;" horiz-adv-x="1205" d="M455 0 L631 0 L668 213 L1278 700 L1010 700 L597 351 L303 700 L59 700 L492 213 L455 0 Z M472 775 L587 775 L696 863 L772 775 L882 775 L807 946 L609 946 L472 775 Z " />
<glyph glyph-name="ycircumflex" unicode="&#x177;" horiz-adv-x="1024" d="M375 0 L531 0 L561 171 L1071 560 L834 560 L495 286 L249 560 L33 560 L405 171 L375 0 Z M358 635 L473 635 L582 723 L658 635 L768 635 L693 806 L495 806 L358 635 Z " />
<glyph glyph-name="Ydieresis" unicode="&#x178;" horiz-adv-x="1205" d="M455 0 L631 0 L668 213 L1278 700 L1010 700 L597 351 L303 700 L59 700 L492 213 L455 0 Z M744 781 L900 781 L928 937 L772 937 L744 781 Z M456 781 L612 781 L639 937 L483 937 L456 781 Z " />
<glyph glyph-name="Zacute" unicode="&#x179;" horiz-adv-x="1154" d="M8 0 L1042 0 L1071 160 L387 160 L1125 577 L1143 700 L138 700 L108 540 L763 540 L25 123 L8 0 Z M549 775 L669 775 L872 946 L672 946 L549 775 Z " />
<glyph glyph-name="zacute" unicode="&#x17a;" horiz-adv-x="987" d="M1 0 L882 0 L906 135 L337 135 L946 456 L960 560 L104 560 L79 425 L621 425 L14 104 L1 0 Z M442 635 L562 635 L765 806 L565 806 L442 635 Z " />
<glyph glyph-name="Zdotaccent" unicode="&#x17b;" horiz-adv-x="1154" d="M8 0 L1042 0 L1071 160 L387 160 L1125 577 L1143 700 L138 700 L108 540 L763 540 L25 123 L8 0 Z M578 781 L732 781 L760 937 L606 937 L578 781 Z " />
<glyph glyph-name="zdotaccent" unicode="&#x17c;" horiz-adv-x="987" d="M1 0 L882 0 L906 135 L337 135 L946 456 L960 560 L104 560 L79 425 L621 425 L14 104 L1 0 Z M471 641 L625 641 L653 797 L499 797 L471 641 Z " />
<glyph glyph-name="Zcaron" unicode="&#x17d;" horiz-adv-x="1154" d="M8 0 L1042 0 L1071 160 L387 160 L1125 577 L1143 700 L138 700 L108 540 L763 540 L25 123 L8 0 Z M890 946 L775 946 L666 858 L590 946 L480 946 L555 775 L753 775 L890 946 Z " />
<glyph glyph-name="zcaron" unicode="&#x17e;" horiz-adv-x="987" d="M1 0 L882 0 L906 135 L337 135 L946 456 L960 560 L104 560 L79 425 L621 425 L14 104 L1 0 Z M783 806 L668 806 L559 718 L483 806 L373 806 L448 635 L646 635 L783 806 Z " />
<glyph glyph-name="uni0186" unicode="&#x186;" horiz-adv-x="1136" d="M891 382 C891 284 846 160 612 160 L38 160 L9 0 L596 0 C942 0 1080 193 1080 404 C1080 570 979 700 711 700 L134 700 L106 540 L682 540 C846 540 891 471 891 382 L891 382 Z " />
<glyph glyph-name="uni0189" unicode="&#x189;" horiz-adv-x="1204" d="M-25 278 L100 278 L51 0 L664 0 C1008 0 1147 193 1147 404 C1147 570 1046 700 778 700 L176 700 L126 422 L2 422 L-25 278 Z M749 540 C913 540 958 471 958 382 C958 284 913 160 679 160 L253 160 L274 278 L610 278 L636 422 L299 422 L320 540 L749 540 Z " />
<glyph glyph-name="uni018E" unicode="&#x18e;" horiz-adv-x="1150" d="M1106 700 L136 700 L106 540 L900 540 L880 422 L184 422 L157 278 L853 278 L833 160 L39 160 L10 0 L980 0 L1106 700 Z " />
<glyph glyph-name="florin" unicode="&#x192;" horiz-adv-x="1245" d="M387 112 C368 44 321 0 232 0 L107 0 L76 -160 L228 -160 C420 -160 516 -59 556 88 L607 274 L894 274 L921 418 L646 418 L649 428 C667 493 705 540 802 540 L1126 540 L1155 700 L821 700 C615 700 519 589 481 452 L471 418 L299 418 L273 274 L432 274 L387 112 Z " />
<glyph glyph-name="Ohorn" unicode="&#x1a0;" horiz-adv-x="1293" d="M735 -10 C1098 -10 1237 178 1237 406 C1237 486 1213 558 1160 612 L1171 612 C1271 612 1358 634 1380 761 C1383 780 1385 802 1385 826 L1226 826 C1226 805 1224 788 1221 773 C1210 710 1179 700 1140 700 L977 700 C942 706 902 710 858 710 L564 710 C201 710 60 523 60 295 C60 122 170 -10 441 -10 L735 -10 Z M475 150 C301 150 249 222 249 316 C249 424 305 550 552 550 L823 550 C995 550 1048 478 1048 386 C1048 269 985 150 746 150 L475 150 Z " />
<glyph glyph-name="ohorn" unicode="&#x1a1;" horiz-adv-x="1106" d="M623 -8 C928 -8 1040 152 1043 326 C1044 381 1030 432 997 473 C1081 479 1150 510 1169 621 C1172 640 1174 662 1174 686 L1015 686 C1015 665 1013 648 1010 633 C999 570 968 560 929 560 L828 560 C798 565 764 568 727 568 L463 568 C158 568 47 408 44 234 C41 99 124 -8 359 -8 L623 -8 Z M386 127 C246 127 209 181 210 250 C211 335 276 433 439 433 L701 433 C840 433 877 379 877 310 C877 228 812 127 648 127 L386 127 Z " />
<glyph glyph-name="uni01A7" unicode="&#x1a7;" horiz-adv-x="1158" d="M1028 160 L299 160 C236 160 224 185 224 210 C224 245 245 278 318 278 L822 278 C1043 278 1128 394 1128 523 C1128 623 1065 700 898 700 L166 700 L136 540 L865 540 C928 540 940 515 940 490 C940 455 919 422 846 422 L342 422 C121 422 36 306 36 177 C36 77 99 0 266 0 L998 0 L1028 160 Z " />
<glyph glyph-name="uni01A8" unicode="&#x1a8;" horiz-adv-x="989" d="M867 135 L248 135 C200 135 189 153 189 171 C189 194 204 223 262 223 L694 223 C887 223 948 315 948 421 C948 501 896 560 756 560 L129 560 L103 425 L722 425 C770 425 781 407 781 389 C781 366 766 337 708 337 L275 337 C84 337 22 245 22 139 C22 60 74 0 215 0 L842 0 L867 135 Z " />
<glyph glyph-name="Uhorn" unicode="&#x1af;" horiz-adv-x="1367" d="M264 323 L333 700 L157 700 L88 323 C53 130 129 -10 415 -10 L703 -10 C982 -10 1094 115 1128 306 L1182 612 L1240 612 C1340 612 1427 634 1449 761 C1452 780 1454 802 1454 826 L1295 826 C1295 805 1293 788 1290 773 C1279 710 1248 700 1209 700 L1022 700 L956 335 C935 221 871 150 728 150 L435 150 C279 150 247 222 264 323 L264 323 Z " />
<glyph glyph-name="uhorn" unicode="&#x1b0;" horiz-adv-x="1202" d="M222 258 L276 560 L121 560 L67 258 C39 104 88 -8 344 -8 L603 -8 C823 -8 921 82 949 239 L990 472 L1051 472 C1151 472 1238 494 1260 621 C1263 640 1265 662 1265 686 L1106 686 C1106 665 1104 648 1101 633 C1090 570 1059 560 1020 560 L851 560 L796 256 C780 169 729 127 614 127 L372 127 C224 127 209 174 222 258 L222 258 Z " />
<glyph glyph-name="uni01B1" unicode="&#x1b1;" horiz-adv-x="1301" d="M837 568 C983 547 1048 472 1048 382 C1048 281 995 150 759 150 L474 150 C306 150 259 219 259 310 C259 422 346 547 552 568 L574 700 L125 700 L95 540 L208 540 C113 461 78 359 78 254 C78 107 173 -10 413 -10 L766 -10 C1085 -10 1214 170 1214 363 C1214 430 1192 497 1154 540 L1277 540 L1307 700 L859 700 L837 568 Z " />
<glyph glyph-name="uni01C0" unicode="&#x1c0;" horiz-adv-x="364" d="M341 800 L194 800 L32 -100 L180 -100 L341 800 Z " />
<glyph glyph-name="uni01C1" unicode="&#x1c1;" horiz-adv-x="726" d="M341 800 L194 800 L32 -100 L180 -100 L341 800 Z M711 800 L563 800 L402 -100 L550 -100 L711 800 Z " />
<glyph glyph-name="uni01C2" unicode="&#x1c2;" horiz-adv-x="690" d="M382 134 L619 134 L643 266 L406 266 L435 434 L672 434 L696 566 L459 566 L502 800 L354 800 L311 566 L74 566 L50 434 L287 434 L258 266 L21 266 L-3 134 L234 134 L193 -100 L340 -100 L382 134 Z " />
<glyph glyph-name="uni01C3" unicode="&#x1c3;" horiz-adv-x="382" d="M45 0 L220 0 L252 178 L77 178 L45 0 Z M97 240 L249 240 L343 700 L172 700 L97 240 Z " />
<glyph glyph-name="uni01C4" unicode="&#x1c4;" horiz-adv-x="2357" d="M51 0 L664 0 C1008 0 1147 193 1147 404 C1147 570 1046 700 778 700 L176 700 L51 0 Z M749 540 C913 540 958 471 958 382 C958 284 913 160 679 160 L253 160 L320 540 L749 540 Z M1212 0 L2246 0 L2275 160 L1591 160 L2329 577 L2347 700 L1342 700 L1312 540 L1967 540 L1229 123 L1212 0 Z M2094 946 L1979 946 L1870 858 L1794 946 L1684 946 L1759 775 L1957 775 L2094 946 Z " />
<glyph glyph-name="uni01C5" unicode="&#x1c5;" horiz-adv-x="2190" d="M51 0 L664 0 C1008 0 1147 193 1147 404 C1147 570 1046 700 778 700 L176 700 L51 0 Z M749 540 C913 540 958 471 958 382 C958 284 913 160 679 160 L253 160 L320 540 L749 540 Z M1205 0 L2086 0 L2110 135 L1541 135 L2150 456 L2164 560 L1308 560 L1283 425 L1825 425 L1218 104 L1205 0 Z M1987 806 L1872 806 L1763 718 L1687 806 L1577 806 L1652 635 L1850 635 L1987 806 Z " />
<glyph glyph-name="uni01C6" unicode="&#x1c6;" horiz-adv-x="2021" d="M41 0 L565 0 C866 0 973 160 973 328 C973 457 889 560 666 560 L142 560 L41 0 Z M649 425 C769 425 806 382 806 310 C806 220 732 135 574 135 L222 135 L272 425 L649 425 Z M1036 0 L1917 0 L1941 135 L1372 135 L1981 456 L1995 560 L1139 560 L1114 425 L1656 425 L1049 104 L1036 0 Z M1818 806 L1703 806 L1594 718 L1518 806 L1408 806 L1483 635 L1681 635 L1818 806 Z " />
<glyph glyph-name="uni01C7" unicode="&#x1c7;" horiz-adv-x="2244" d="M1382 -5 L1726 -5 C2005 -5 2114 108 2149 304 L2219 700 L2043 700 L1975 333 C1955 219 1892 155 1749 155 L1412 155 C1288 155 1267 204 1281 275 L1293 338 L1117 338 L1105 275 C1076 124 1142 -5 1382 -5 L1382 -5 Z M352 700 L176 700 L51 0 L1002 0 L1030 160 L256 160 L352 700 Z " />
<glyph glyph-name="uni01C8" unicode="&#x1c8;" horiz-adv-x="2081" d="M352 700 L176 700 L51 0 L1002 0 L1030 160 L256 160 L352 700 Z M1330 -4 L1637 -4 C1857 -4 1955 85 1983 243 L2040 560 L1884 560 L1829 260 C1813 173 1761 131 1646 131 L1340 131 C1251 131 1241 171 1249 220 L1258 272 L1104 272 L1095 220 C1074 97 1122 -4 1330 -4 L1330 -4 Z " />
<glyph glyph-name="uni01C9" unicode="&#x1c9;" horiz-adv-x="1943" d="M1192 -4 L1499 -4 C1719 -4 1817 85 1845 243 L1902 560 L1746 560 L1691 260 C1675 173 1623 131 1508 131 L1202 131 C1113 131 1103 171 1111 220 L1120 272 L966 272 L957 220 C936 97 984 -4 1192 -4 L1192 -4 Z M296 560 L140 560 L41 0 L851 0 L875 135 L221 135 L296 560 Z " />
<glyph glyph-name="uni01CA" unicode="&#x1ca;" horiz-adv-x="2417" d="M1555 -5 L1899 -5 C2178 -5 2287 108 2322 304 L2392 700 L2216 700 L2148 333 C2128 219 2065 155 1922 155 L1585 155 C1461 155 1440 204 1454 275 L1466 338 L1290 338 L1278 275 C1249 124 1315 -5 1555 -5 L1555 -5 Z M919 0 L1086 0 L1211 700 L1035 700 L945 192 L343 700 L176 700 L51 0 L227 0 L316 508 L919 0 Z " />
<glyph glyph-name="uni01CB" unicode="&#x1cb;" horiz-adv-x="2254" d="M919 0 L1086 0 L1211 700 L1035 700 L945 192 L343 700 L176 700 L51 0 L227 0 L316 508 L919 0 Z M1503 -4 L1810 -4 C2030 -4 2128 85 2156 243 L2213 560 L2057 560 L2002 260 C1986 173 1934 131 1819 131 L1513 131 C1424 131 1414 171 1422 220 L1431 272 L1277 272 L1268 220 C1247 97 1295 -4 1503 -4 L1503 -4 Z " />
<glyph glyph-name="uni01CC" unicode="&#x1cc;" horiz-adv-x="2081" d="M1330 -4 L1637 -4 C1857 -4 1955 85 1983 243 L2040 560 L1884 560 L1829 260 C1813 173 1761 131 1646 131 L1340 131 C1251 131 1241 171 1249 220 L1258 272 L1104 272 L1095 220 C1074 97 1122 -4 1330 -4 L1330 -4 Z M923 0 L1022 560 L866 560 L797 165 L288 560 L140 560 L41 0 L197 0 L266 395 L775 0 L923 0 Z " />
<glyph glyph-name="uni01CD" unicode="&#x1cd;" horiz-adv-x="1238" d="M971 0 L1177 0 L777 700 L593 700 L-57 0 L165 0 L268 113 L907 113 L971 0 Z M664 548 L827 257 L399 257 L664 548 Z M933 946 L818 946 L709 858 L633 946 L523 946 L598 775 L796 775 L933 946 Z " />
<glyph glyph-name="uni01CE" unicode="&#x1ce;" horiz-adv-x="1058" d="M810 0 L996 0 L652 560 L487 560 L-56 0 L142 0 L232 95 L753 95 L810 0 Z M552 432 L683 213 L344 213 L552 432 Z M818 806 L703 806 L594 718 L518 806 L408 806 L483 635 L681 635 L818 806 Z " />
<glyph glyph-name="uni01CF" unicode="&#x1cf;" horiz-adv-x="397" d="M51 0 L227 0 L352 700 L176 700 L51 0 Z M510 946 L395 946 L286 858 L210 946 L100 946 L175 775 L373 775 L510 946 Z " />
<glyph glyph-name="uni01D0" unicode="&#x1d0;" horiz-adv-x="357" d="M466 806 L351 806 L242 718 L166 806 L56 806 L131 635 L329 635 L466 806 Z M41 0 L197 0 L296 560 L140 560 L41 0 Z " />
<glyph glyph-name="uni01D1" unicode="&#x1d1;" horiz-adv-x="1293" d="M735 -10 C1098 -10 1237 178 1237 406 C1237 578 1130 710 858 710 L564 710 C201 710 60 523 60 295 C60 122 170 -10 441 -10 L735 -10 Z M475 150 C301 150 249 222 249 316 C249 424 305 550 552 550 L823 550 C995 550 1048 478 1048 386 C1048 269 985 150 746 150 L475 150 Z M959 946 L844 946 L735 858 L659 946 L549 946 L624 775 L822 775 L959 946 Z " />
<glyph glyph-name="uni01D2" unicode="&#x1d2;" horiz-adv-x="1106" d="M623 -8 C928 -8 1040 152 1043 326 C1046 461 961 568 727 568 L463 568 C158 568 47 408 44 234 C41 99 124 -8 359 -8 L623 -8 Z M386 127 C246 127 209 181 210 250 C211 335 276 433 439 433 L701 433 C840 433 877 379 877 310 C877 228 812 127 648 127 L386 127 Z M842 806 L727 806 L618 718 L542 806 L432 806 L507 635 L705 635 L842 806 Z " />
<glyph glyph-name="uni01D3" unicode="&#x1d3;" horiz-adv-x="1223" d="M264 323 L333 700 L157 700 L88 323 C53 130 129 -10 415 -10 L703 -10 C982 -10 1094 115 1128 306 L1198 700 L1022 700 L956 335 C935 221 871 150 728 150 L435 150 C279 150 247 222 264 323 L264 323 Z M925 946 L810 946 L701 858 L625 946 L515 946 L590 775 L788 775 L925 946 Z " />
<glyph glyph-name="uni01D4" unicode="&#x1d4;" horiz-adv-x="1048" d="M222 258 L276 560 L121 560 L67 258 C39 104 88 -8 344 -8 L603 -8 C823 -8 921 82 949 239 L1006 560 L851 560 L796 256 C780 169 729 127 614 127 L372 127 C224 127 209 174 222 258 L222 258 Z M814 806 L699 806 L590 718 L514 806 L404 806 L479 635 L677 635 L814 806 Z " />
<glyph glyph-name="uni01D5" unicode="&#x1d5;" horiz-adv-x="1223" d="M264 323 L333 700 L157 700 L88 323 C53 130 129 -10 415 -10 L703 -10 C982 -10 1094 115 1128 306 L1198 700 L1022 700 L956 335 C935 221 871 150 728 150 L435 150 C279 150 247 222 264 323 L264 323 Z M541 999 L917 999 L937 1111 L561 1111 L541 999 Z M754 781 L910 781 L938 937 L782 937 L754 781 Z M466 781 L622 781 L649 937 L493 937 L466 781 Z " />
<glyph glyph-name="uni01D6" unicode="&#x1d6;" horiz-adv-x="1048" d="M222 258 L276 560 L121 560 L67 258 C39 104 88 -8 344 -8 L603 -8 C823 -8 921 82 949 239 L1006 560 L851 560 L796 256 C780 169 729 127 614 127 L372 127 C224 127 209 174 222 258 L222 258 Z M429 859 L805 859 L825 971 L449 971 L429 859 Z M643 641 L799 641 L827 797 L671 797 L643 641 Z M355 641 L511 641 L538 797 L382 797 L355 641 Z " />
<glyph glyph-name="uni01D7" unicode="&#x1d7;" horiz-adv-x="1223" d="M264 323 L333 700 L157 700 L88 323 C53 130 129 -10 415 -10 L703 -10 C982 -10 1094 115 1128 306 L1198 700 L1022 700 L956 335 C935 221 871 150 728 150 L435 150 C279 150 247 222 264 323 L264 323 Z M621 985 L741 985 L944 1156 L744 1156 L621 985 Z M754 781 L910 781 L938 937 L782 937 L754 781 Z M466 781 L622 781 L649 937 L493 937 L466 781 Z " />
<glyph glyph-name="uni01D8" unicode="&#x1d8;" horiz-adv-x="1048" d="M222 258 L276 560 L121 560 L67 258 C39 104 88 -8 344 -8 L603 -8 C823 -8 921 82 949 239 L1006 560 L851 560 L796 256 C780 169 729 127 614 127 L372 127 C224 127 209 174 222 258 L222 258 Z M510 845 L630 845 L833 1016 L633 1016 L510 845 Z M643 641 L799 641 L827 797 L671 797 L643 641 Z M355 641 L511 641 L538 797 L382 797 L355 641 Z " />
<glyph glyph-name="uni01D9" unicode="&#x1d9;" horiz-adv-x="1223" d="M264 323 L333 700 L157 700 L88 323 C53 130 129 -10 415 -10 L703 -10 C982 -10 1094 115 1128 306 L1198 700 L1022 700 L956 335 C935 221 871 150 728 150 L435 150 C279 150 247 222 264 323 L264 323 Z M962 1156 L847 1156 L738 1068 L662 1156 L552 1156 L627 985 L825 985 L962 1156 Z M754 781 L910 781 L938 937 L782 937 L754 781 Z M466 781 L622 781 L649 937 L493 937 L466 781 Z " />
<glyph glyph-name="uni01DA" unicode="&#x1da;" horiz-adv-x="1048" d="M222 258 L276 560 L121 560 L67 258 C39 104 88 -8 344 -8 L603 -8 C823 -8 921 82 949 239 L1006 560 L851 560 L796 256 C780 169 729 127 614 127 L372 127 C224 127 209 174 222 258 L222 258 Z M851 1016 L736 1016 L627 928 L551 1016 L441 1016 L516 845 L714 845 L851 1016 Z M643 641 L799 641 L827 797 L671 797 L643 641 Z M355 641 L511 641 L538 797 L382 797 L355 641 Z " />
<glyph glyph-name="uni01DB" unicode="&#x1db;" horiz-adv-x="1223" d="M264 323 L333 700 L157 700 L88 323 C53 130 129 -10 415 -10 L703 -10 C982 -10 1094 115 1128 306 L1198 700 L1022 700 L956 335 C935 221 871 150 728 150 L435 150 C279 150 247 222 264 323 L264 323 Z M761 1156 L575 1156 L714 985 L823 985 L761 1156 Z M754 781 L910 781 L938 937 L782 937 L754 781 Z M466 781 L622 781 L649 937 L493 937 L466 781 Z " />
<glyph glyph-name="uni01DC" unicode="&#x1dc;" horiz-adv-x="1048" d="M222 258 L276 560 L121 560 L67 258 C39 104 88 -8 344 -8 L603 -8 C823 -8 921 82 949 239 L1006 560 L851 560 L796 256 C780 169 729 127 614 127 L372 127 C224 127 209 174 222 258 L222 258 Z M650 1016 L464 1016 L603 845 L712 845 L650 1016 Z M643 641 L799 641 L827 797 L671 797 L643 641 Z M355 641 L511 641 L538 797 L382 797 L355 641 Z " />
<glyph glyph-name="uni01DD" unicode="&#x1dd;" horiz-adv-x="990" d="M929 560 L103 560 L78 425 L748 425 L733 339 L148 339 L126 221 L711 221 L698 135 L28 135 L4 0 L830 0 L929 560 Z " />
<glyph glyph-name="uni01DE" unicode="&#x1de;" horiz-adv-x="1238" d="M971 0 L1177 0 L777 700 L593 700 L-57 0 L165 0 L268 113 L907 113 L971 0 Z M664 548 L827 257 L399 257 L664 548 Z M549 999 L925 999 L945 1111 L569 1111 L549 999 Z M762 781 L918 781 L946 937 L790 937 L762 781 Z M474 781 L630 781 L657 937 L501 937 L474 781 Z " />
<glyph glyph-name="uni01DF" unicode="&#x1df;" horiz-adv-x="1058" d="M810 0 L996 0 L652 560 L487 560 L-56 0 L142 0 L232 95 L753 95 L810 0 Z M552 432 L683 213 L344 213 L552 432 Z M433 859 L809 859 L829 971 L453 971 L433 859 Z M647 641 L803 641 L831 797 L675 797 L647 641 Z M359 641 L515 641 L542 797 L386 797 L359 641 Z " />
<glyph glyph-name="uni01E0" unicode="&#x1e0;" horiz-adv-x="1238" d="M971 0 L1177 0 L777 700 L593 700 L-57 0 L165 0 L268 113 L907 113 L971 0 Z M664 548 L827 257 L399 257 L664 548 Z M549 999 L925 999 L945 1111 L569 1111 L549 999 Z M621 781 L775 781 L803 937 L649 937 L621 781 Z " />
<glyph glyph-name="uni01E1" unicode="&#x1e1;" horiz-adv-x="1058" d="M810 0 L996 0 L652 560 L487 560 L-56 0 L142 0 L232 95 L753 95 L810 0 Z M552 432 L683 213 L344 213 L552 432 Z M433 859 L809 859 L829 971 L453 971 L433 859 Z M506 641 L660 641 L688 797 L534 797 L506 641 Z " />
<glyph glyph-name="uni01E2" unicode="&#x1e2;" horiz-adv-x="1653" d="M674 109 L656 0 L1525 0 L1554 160 L861 160 L881 278 L1476 278 L1503 422 L908 422 L927 540 L1620 540 L1650 700 L688 700 L-57 0 L169 0 L283 109 L674 109 Z M433 253 L755 561 L701 253 L433 253 Z M848 804 L1224 804 L1244 916 L868 916 L848 804 Z " />
<glyph glyph-name="uni01E3" unicode="&#x1e3;" horiz-adv-x="1413" d="M566 86 L551 0 L1292 0 L1316 135 L731 135 L745 221 L1245 221 L1267 339 L767 339 L781 425 L1366 425 L1391 560 L568 560 L-56 0 L145 0 L239 86 L566 86 Z M369 204 L628 441 L587 204 L369 204 Z M713 664 L1089 664 L1109 776 L733 776 L713 664 Z " />
<glyph glyph-name="Gcaron" unicode="&#x1e6;" horiz-adv-x="1205" d="M620 278 L938 278 L918 160 L458 160 C294 160 249 229 249 318 C249 416 293 540 528 540 L1102 540 L1131 700 L544 700 C198 700 60 507 60 296 C60 130 161 0 429 0 L1059 0 L1134 422 L647 422 L620 278 Z M938 946 L823 946 L714 858 L638 946 L528 946 L603 775 L801 775 L938 946 Z " />
<glyph glyph-name="gcaron" unicode="&#x1e7;" horiz-adv-x="1034" d="M351 0 L895 0 L954 339 L539 339 L516 221 L780 221 L767 135 L368 135 C248 135 211 178 211 250 C211 340 285 425 443 425 L925 425 L950 560 L452 560 C151 560 44 400 44 232 C44 102 126 0 351 0 L351 0 Z M817 806 L702 806 L593 718 L517 806 L407 806 L482 635 L680 635 L817 806 Z " />
<glyph glyph-name="uni01E8" unicode="&#x1e8;" horiz-adv-x="1248" d="M1228 700 L923 700 L282 322 L349 700 L176 700 L51 0 L224 0 L248 132 L543 303 L922 0 L1191 0 L694 390 L1228 700 Z M899 946 L784 946 L675 858 L599 946 L489 946 L564 775 L762 775 L899 946 Z " />
<glyph glyph-name="uni01E9" unicode="&#x1e9;" horiz-adv-x="1074" d="M1043 560 L762 560 L243 266 L296 560 L140 560 L41 0 L197 0 L215 100 L460 236 L771 0 L1013 0 L596 311 L1043 560 Z M792 806 L677 806 L568 718 L492 806 L382 806 L457 635 L655 635 L792 806 Z " />
<glyph glyph-name="uni01EA" unicode="&#x1ea;" horiz-adv-x="1293" d="M746 -10 C660 -47 579 -108 579 -194 C579 -250 629 -287 707 -287 C754 -287 803 -284 859 -264 L873 -187 C835 -202 818 -205 791 -205 C749 -205 722 -187 722 -151 C722 -87 787 -40 853 -2 C1129 34 1237 204 1237 406 C1237 578 1130 710 858 710 L564 710 C201 710 60 523 60 295 C60 122 170 -10 441 -10 L746 -10 Z M475 150 C301 150 249 222 249 316 C249 424 305 550 552 550 L823 550 C995 550 1048 478 1048 386 C1048 269 985 150 746 150 L475 150 Z " />
<glyph glyph-name="uni01EB" unicode="&#x1eb;" horiz-adv-x="1106" d="M623 -8 C535 -45 452 -106 452 -194 C452 -250 502 -287 580 -287 C627 -287 676 -284 732 -264 L746 -187 C708 -202 691 -205 664 -205 C622 -205 595 -187 595 -151 C595 -86 662 -39 729 -1 C954 32 1040 174 1043 326 C1046 461 961 568 727 568 L463 568 C158 568 47 408 44 234 C41 99 124 -8 359 -8 L623 -8 Z M386 127 C246 127 209 181 210 250 C211 335 276 433 439 433 L701 433 C840 433 877 379 877 310 C877 228 812 127 648 127 L386 127 Z " />
<glyph glyph-name="uni01EC" unicode="&#x1ec;" horiz-adv-x="1293" d="M746 -10 C660 -47 579 -108 579 -194 C579 -250 629 -287 707 -287 C754 -287 803 -284 859 -264 L873 -187 C835 -202 818 -205 791 -205 C749 -205 722 -187 722 -151 C722 -87 787 -40 853 -2 C1129 34 1237 204 1237 406 C1237 578 1130 710 858 710 L564 710 C201 710 60 523 60 295 C60 122 170 -10 441 -10 L746 -10 Z M475 150 C301 150 249 222 249 316 C249 424 305 550 552 550 L823 550 C995 550 1048 478 1048 386 C1048 269 985 150 746 150 L475 150 Z M540 804 L916 804 L936 916 L560 916 L540 804 Z " />
<glyph glyph-name="uni01ED" unicode="&#x1ed;" horiz-adv-x="1106" d="M623 -8 C535 -45 452 -106 452 -194 C452 -250 502 -287 580 -287 C627 -287 676 -284 732 -264 L746 -187 C708 -202 691 -205 664 -205 C622 -205 595 -187 595 -151 C595 -86 662 -39 729 -1 C954 32 1040 174 1043 326 C1046 461 961 568 727 568 L463 568 C158 568 47 408 44 234 C41 99 124 -8 359 -8 L623 -8 Z M386 127 C246 127 209 181 210 250 C211 335 276 433 439 433 L701 433 C840 433 877 379 877 310 C877 228 812 127 648 127 L386 127 Z M423 664 L799 664 L819 776 L443 776 L423 664 Z " />
<glyph glyph-name="uni01F0" unicode="&#x1f0;" horiz-adv-x="998" d="M247 -4 L554 -4 C774 -4 872 85 900 243 L957 560 L801 560 L746 260 C730 173 678 131 563 131 L257 131 C168 131 158 171 166 220 L175 272 L21 272 L12 220 C-9 97 39 -4 247 -4 L247 -4 Z M1103 806 L988 806 L879 718 L803 806 L693 806 L768 635 L966 635 L1103 806 Z " />
<glyph glyph-name="uni01F1" unicode="&#x1f1;" horiz-adv-x="2357" d="M51 0 L664 0 C1008 0 1147 193 1147 404 C1147 570 1046 700 778 700 L176 700 L51 0 Z M749 540 C913 540 958 471 958 382 C958 284 913 160 679 160 L253 160 L320 540 L749 540 Z M1212 0 L2246 0 L2275 160 L1591 160 L2329 577 L2347 700 L1342 700 L1312 540 L1967 540 L1229 123 L1212 0 Z " />
<glyph glyph-name="uni01F2" unicode="&#x1f2;" horiz-adv-x="2190" d="M51 0 L664 0 C1008 0 1147 193 1147 404 C1147 570 1046 700 778 700 L176 700 L51 0 Z M749 540 C913 540 958 471 958 382 C958 284 913 160 679 160 L253 160 L320 540 L749 540 Z M1205 0 L2086 0 L2110 135 L1541 135 L2150 456 L2164 560 L1308 560 L1283 425 L1825 425 L1218 104 L1205 0 Z " />
<glyph glyph-name="uni01F3" unicode="&#x1f3;" horiz-adv-x="2021" d="M41 0 L565 0 C866 0 973 160 973 328 C973 457 889 560 666 560 L142 560 L41 0 Z M649 425 C769 425 806 382 806 310 C806 220 732 135 574 135 L222 135 L272 425 L649 425 Z M1036 0 L1917 0 L1941 135 L1372 135 L1981 456 L1995 560 L1139 560 L1114 425 L1656 425 L1049 104 L1036 0 Z " />
<glyph glyph-name="uni01F4" unicode="&#x1f4;" horiz-adv-x="1205" d="M620 278 L938 278 L918 160 L458 160 C294 160 249 229 249 318 C249 416 293 540 528 540 L1102 540 L1131 700 L544 700 C198 700 60 507 60 296 C60 130 161 0 429 0 L1059 0 L1134 422 L647 422 L620 278 Z M597 775 L717 775 L920 946 L720 946 L597 775 Z " />
<glyph glyph-name="uni01F5" unicode="&#x1f5;" horiz-adv-x="1034" d="M351 0 L895 0 L954 339 L539 339 L516 221 L780 221 L767 135 L368 135 C248 135 211 178 211 250 C211 340 285 425 443 425 L925 425 L950 560 L452 560 C151 560 44 400 44 232 C44 102 126 0 351 0 L351 0 Z M476 635 L596 635 L799 806 L599 806 L476 635 Z " />
<glyph glyph-name="uni01F8" unicode="&#x1f8;" horiz-adv-x="1256" d="M919 0 L1086 0 L1211 700 L1035 700 L945 192 L343 700 L176 700 L51 0 L227 0 L316 508 L919 0 Z M740 946 L554 946 L693 775 L802 775 L740 946 Z " />
<glyph glyph-name="uni01F9" unicode="&#x1f9;" horiz-adv-x="1083" d="M923 0 L1022 560 L866 560 L797 165 L288 560 L140 560 L41 0 L197 0 L266 395 L775 0 L923 0 Z M630 806 L444 806 L583 635 L692 635 L630 806 Z " />
<glyph glyph-name="Aringacute" unicode="&#x1fa;" horiz-adv-x="1238" d="M971 0 L1177 0 L777 700 L593 700 L-57 0 L165 0 L268 113 L907 113 L971 0 Z M664 548 L827 257 L399 257 L664 548 Z M674 858 C674 880 694 897 715 897 C733 897 747 882 747 864 C747 842 727 825 707 825 C688 825 674 840 674 858 L674 858 Z M577 853 C577 791 623 743 699 743 C782 743 845 800 845 871 C845 932 797 979 723 979 C639 979 577 923 577 853 L577 853 Z M634 1013 L754 1013 L957 1184 L757 1184 L634 1013 Z " />
<glyph glyph-name="aringacute" unicode="&#x1fb;" horiz-adv-x="1058" d="M810 0 L996 0 L652 560 L487 560 L-56 0 L142 0 L232 95 L753 95 L810 0 Z M552 432 L683 213 L344 213 L552 432 Z M559 718 C559 740 579 757 600 757 C618 757 632 742 632 724 C632 702 612 685 592 685 C573 685 559 700 559 718 L559 718 Z M462 713 C462 651 508 603 584 603 C667 603 730 660 730 731 C730 792 682 839 608 839 C524 839 462 783 462 713 L462 713 Z M518 873 L638 873 L841 1044 L641 1044 L518 873 Z " />
<glyph glyph-name="AEacute" unicode="&#x1fc;" horiz-adv-x="1653" d="M674 109 L656 0 L1525 0 L1554 160 L861 160 L881 278 L1476 278 L1503 422 L908 422 L927 540 L1620 540 L1650 700 L688 700 L-57 0 L169 0 L283 109 L674 109 Z M433 253 L755 561 L701 253 L433 253 Z M926 775 L1046 775 L1249 946 L1049 946 L926 775 Z " />
<glyph glyph-name="aeacute" unicode="&#x1fd;" horiz-adv-x="1413" d="M566 86 L551 0 L1292 0 L1316 135 L731 135 L745 221 L1245 221 L1267 339 L767 339 L781 425 L1366 425 L1391 560 L568 560 L-56 0 L145 0 L239 86 L566 86 Z M369 204 L628 441 L587 204 L369 204 Z M791 635 L911 635 L1114 806 L914 806 L791 635 Z " />
<glyph glyph-name="Oslashacute" unicode="&#x1fe;" horiz-adv-x="1293" d="M618 775 L738 775 L941 946 L741 946 L618 775 Z M735 -10 C1098 -10 1237 178 1237 406 C1237 534 1178 639 1035 685 L1134 800 L934 800 L857 710 L564 710 C201 710 60 523 60 295 C60 166 120 61 262 15 L164 -100 L364 -100 L441 -10 L735 -10 Z M249 316 C249 424 305 550 552 550 L720 550 L385 158 C282 179 249 240 249 316 L249 316 Z M1048 386 C1048 269 985 150 746 150 L578 150 L913 542 C1014 520 1048 459 1048 386 L1048 386 Z " />
<glyph glyph-name="oslashacute" unicode="&#x1ff;" horiz-adv-x="1106" d="M501 635 L621 635 L824 806 L624 806 L501 635 Z M623 -8 C928 -8 1040 152 1043 326 C1045 428 997 515 871 550 L951 640 L775 640 L711 568 L463 568 C158 568 47 408 44 234 C41 132 88 46 213 10 L133 -80 L309 -80 L373 -8 L623 -8 Z M877 310 C877 228 812 127 648 127 L493 127 L762 428 C851 414 877 367 877 310 L877 310 Z M210 250 C211 335 276 433 439 433 L590 433 L322 131 C234 146 209 193 210 250 L210 250 Z " />
<glyph glyph-name="uni0200" unicode="&#x200;" horiz-adv-x="1238" d="M971 0 L1177 0 L777 700 L593 700 L-57 0 L165 0 L268 113 L907 113 L971 0 Z M664 548 L827 257 L399 257 L664 548 Z M847 946 L661 946 L800 775 L909 775 L847 946 Z M586 946 L400 946 L539 775 L648 775 L586 946 Z " />
<glyph glyph-name="uni0201" unicode="&#x201;" horiz-adv-x="1058" d="M810 0 L996 0 L652 560 L487 560 L-56 0 L142 0 L232 95 L753 95 L810 0 Z M552 432 L683 213 L344 213 L552 432 Z M732 806 L546 806 L685 635 L794 635 L732 806 Z M471 806 L285 806 L424 635 L533 635 L471 806 Z " />
<glyph glyph-name="uni0202" unicode="&#x202;" horiz-adv-x="1238" d="M971 0 L1177 0 L777 700 L593 700 L-57 0 L165 0 L268 113 L907 113 L971 0 Z M664 548 L827 257 L399 257 L664 548 Z M720 838 C781 838 802 811 798 774 L891 774 C902 853 884 946 737 946 C591 946 539 856 520 774 L616 774 C627 811 661 838 720 838 L720 838 Z " />
<glyph glyph-name="uni0203" unicode="&#x203;" horiz-adv-x="1058" d="M810 0 L996 0 L652 560 L487 560 L-56 0 L142 0 L232 95 L753 95 L810 0 Z M552 432 L683 213 L344 213 L552 432 Z M605 698 C666 698 687 671 683 634 L776 634 C787 713 769 806 622 806 C476 806 424 716 405 634 L501 634 C512 671 546 698 605 698 L605 698 Z " />
<glyph glyph-name="uni0204" unicode="&#x204;" horiz-adv-x="1150" d="M51 0 L1021 0 L1050 160 L256 160 L275 278 L971 278 L998 422 L302 422 L322 540 L1116 540 L1146 700 L176 700 L51 0 Z M812 946 L626 946 L765 775 L874 775 L812 946 Z M551 946 L365 946 L504 775 L613 775 L551 946 Z " />
<glyph glyph-name="uni0205" unicode="&#x205;" horiz-adv-x="990" d="M41 0 L867 0 L891 135 L221 135 L235 221 L820 221 L842 339 L257 339 L271 425 L941 425 L966 560 L140 560 L41 0 Z M709 806 L523 806 L662 635 L771 635 L709 806 Z M448 806 L262 806 L401 635 L510 635 L448 806 Z " />
<glyph glyph-name="uni0206" unicode="&#x206;" horiz-adv-x="1150" d="M51 0 L1021 0 L1050 160 L256 160 L275 278 L971 278 L998 422 L302 422 L322 540 L1116 540 L1146 700 L176 700 L51 0 Z M685 838 C746 838 767 811 763 774 L856 774 C867 853 849 946 702 946 C556 946 504 856 485 774 L581 774 C592 811 626 838 685 838 L685 838 Z " />
<glyph glyph-name="uni0207" unicode="&#x207;" horiz-adv-x="990" d="M41 0 L867 0 L891 135 L221 135 L235 221 L820 221 L842 339 L257 339 L271 425 L941 425 L966 560 L140 560 L41 0 Z M583 698 C644 698 665 671 661 634 L754 634 C765 713 747 806 600 806 C454 806 402 716 383 634 L479 634 C490 671 524 698 583 698 L583 698 Z " />
<glyph glyph-name="uni0208" unicode="&#x208;" horiz-adv-x="397" d="M51 0 L227 0 L352 700 L176 700 L51 0 Z M424 946 L238 946 L377 775 L486 775 L424 946 Z M163 946 L-23 946 L116 775 L225 775 L163 946 Z " />
<glyph glyph-name="uni0209" unicode="&#x209;" horiz-adv-x="357" d="M41 0 L197 0 L296 560 L140 560 L41 0 Z M380 806 L194 806 L333 635 L442 635 L380 806 Z M119 806 L-67 806 L72 635 L181 635 L119 806 Z " />
<glyph glyph-name="uni020A" unicode="&#x20a;" horiz-adv-x="397" d="M51 0 L227 0 L352 700 L176 700 L51 0 Z M298 838 C359 838 380 811 376 774 L469 774 C480 853 462 946 315 946 C169 946 117 856 98 774 L194 774 C205 811 239 838 298 838 L298 838 Z " />
<glyph glyph-name="uni020B" unicode="&#x20b;" horiz-adv-x="357" d="M41 0 L197 0 L296 560 L140 560 L41 0 Z M253 698 C314 698 335 671 331 634 L424 634 C435 713 417 806 270 806 C124 806 72 716 53 634 L149 634 C160 671 194 698 253 698 L253 698 Z " />
<glyph glyph-name="uni020C" unicode="&#x20c;" horiz-adv-x="1293" d="M735 -10 C1098 -10 1237 178 1237 406 C1237 578 1130 710 858 710 L564 710 C201 710 60 523 60 295 C60 122 170 -10 441 -10 L735 -10 Z M475 150 C301 150 249 222 249 316 C249 424 305 550 552 550 L823 550 C995 550 1048 478 1048 386 C1048 269 985 150 746 150 L475 150 Z M873 946 L687 946 L826 775 L935 775 L873 946 Z M612 946 L426 946 L565 775 L674 775 L612 946 Z " />
<glyph glyph-name="uni020D" unicode="&#x20d;" horiz-adv-x="1106" d="M623 -8 C928 -8 1040 152 1043 326 C1046 461 961 568 727 568 L463 568 C158 568 47 408 44 234 C41 99 124 -8 359 -8 L623 -8 Z M386 127 C246 127 209 181 210 250 C211 335 276 433 439 433 L701 433 C840 433 877 379 877 310 C877 228 812 127 648 127 L386 127 Z M756 806 L570 806 L709 635 L818 635 L756 806 Z M495 806 L309 806 L448 635 L557 635 L495 806 Z " />
<glyph glyph-name="uni020E" unicode="&#x20e;" horiz-adv-x="1293" d="M735 -10 C1098 -10 1237 178 1237 406 C1237 578 1130 710 858 710 L564 710 C201 710 60 523 60 295 C60 122 170 -10 441 -10 L735 -10 Z M475 150 C301 150 249 222 249 316 C249 424 305 550 552 550 L823 550 C995 550 1048 478 1048 386 C1048 269 985 150 746 150 L475 150 Z M747 838 C808 838 829 811 825 774 L918 774 C929 853 911 946 764 946 C618 946 566 856 547 774 L643 774 C654 811 688 838 747 838 L747 838 Z " />
<glyph glyph-name="uni020F" unicode="&#x20f;" horiz-adv-x="1106" d="M623 -8 C928 -8 1040 152 1043 326 C1046 461 961 568 727 568 L463 568 C158 568 47 408 44 234 C41 99 124 -8 359 -8 L623 -8 Z M386 127 C246 127 209 181 210 250 C211 335 276 433 439 433 L701 433 C840 433 877 379 877 310 C877 228 812 127 648 127 L386 127 Z M629 698 C690 698 711 671 707 634 L800 634 C811 713 793 806 646 806 C500 806 448 716 429 634 L525 634 C536 671 570 698 629 698 L629 698 Z " />
<glyph glyph-name="uni0210" unicode="&#x210;" horiz-adv-x="1229" d="M51 0 L224 0 L266 233 L609 233 L904 0 L1171 0 L853 237 C1055 251 1143 364 1143 503 C1143 613 1074 700 892 700 L176 700 L51 0 Z M859 540 C937 540 957 513 957 478 C957 428 925 387 828 387 L293 387 L320 540 L859 540 Z M806 946 L620 946 L759 775 L868 775 L806 946 Z M545 946 L359 946 L498 775 L607 775 L545 946 Z " />
<glyph glyph-name="uni0211" unicode="&#x211;" horiz-adv-x="1061" d="M41 0 L197 0 L229 183 L520 183 L757 0 L995 0 L736 187 C904 202 967 298 967 400 C967 488 911 560 755 560 L142 560 L41 0 Z M725 425 C789 425 801 402 801 378 C801 349 784 313 704 313 L253 313 L272 425 L725 425 Z M703 806 L517 806 L656 635 L765 635 L703 806 Z M442 806 L256 806 L395 635 L504 635 L442 806 Z " />
<glyph glyph-name="uni0212" unicode="&#x212;" horiz-adv-x="1229" d="M51 0 L224 0 L266 233 L609 233 L904 0 L1171 0 L853 237 C1055 251 1143 364 1143 503 C1143 613 1074 700 892 700 L176 700 L51 0 Z M859 540 C937 540 957 513 957 478 C957 428 925 387 828 387 L293 387 L320 540 L859 540 Z M680 838 C741 838 762 811 758 774 L851 774 C862 853 844 946 697 946 C551 946 499 856 480 774 L576 774 C587 811 621 838 680 838 L680 838 Z " />
<glyph glyph-name="uni0213" unicode="&#x213;" horiz-adv-x="1061" d="M41 0 L197 0 L229 183 L520 183 L757 0 L995 0 L736 187 C904 202 967 298 967 400 C967 488 911 560 755 560 L142 560 L41 0 Z M725 425 C789 425 801 402 801 378 C801 349 784 313 704 313 L253 313 L272 425 L725 425 Z M577 698 C638 698 659 671 655 634 L748 634 C759 713 741 806 594 806 C448 806 396 716 377 634 L473 634 C484 671 518 698 577 698 L577 698 Z " />
<glyph glyph-name="uni0214" unicode="&#x214;" horiz-adv-x="1223" d="M264 323 L333 700 L157 700 L88 323 C53 130 129 -10 415 -10 L703 -10 C982 -10 1094 115 1128 306 L1198 700 L1022 700 L956 335 C935 221 871 150 728 150 L435 150 C279 150 247 222 264 323 L264 323 Z M838 946 L652 946 L791 775 L900 775 L838 946 Z M577 946 L391 946 L530 775 L639 775 L577 946 Z " />
<glyph glyph-name="uni0215" unicode="&#x215;" horiz-adv-x="1048" d="M222 258 L276 560 L121 560 L67 258 C39 104 88 -8 344 -8 L603 -8 C823 -8 921 82 949 239 L1006 560 L851 560 L796 256 C780 169 729 127 614 127 L372 127 C224 127 209 174 222 258 L222 258 Z M727 806 L541 806 L680 635 L789 635 L727 806 Z M466 806 L280 806 L419 635 L528 635 L466 806 Z " />
<glyph glyph-name="uni0216" unicode="&#x216;" horiz-adv-x="1223" d="M264 323 L333 700 L157 700 L88 323 C53 130 129 -10 415 -10 L703 -10 C982 -10 1094 115 1128 306 L1198 700 L1022 700 L956 335 C935 221 871 150 728 150 L435 150 C279 150 247 222 264 323 L264 323 Z M712 838 C773 838 794 811 790 774 L883 774 C894 853 876 946 729 946 C583 946 531 856 512 774 L608 774 C619 811 653 838 712 838 L712 838 Z " />
<glyph glyph-name="uni0217" unicode="&#x217;" horiz-adv-x="1048" d="M222 258 L276 560 L121 560 L67 258 C39 104 88 -8 344 -8 L603 -8 C823 -8 921 82 949 239 L1006 560 L851 560 L796 256 C780 169 729 127 614 127 L372 127 C224 127 209 174 222 258 L222 258 Z M601 698 C662 698 683 671 679 634 L772 634 C783 713 765 806 618 806 C472 806 420 716 401 634 L497 634 C508 671 542 698 601 698 L601 698 Z " />
<glyph glyph-name="uni0218" unicode="&#x218;" horiz-adv-x="1158" d="M797 160 L71 160 L41 0 L773 0 C989 0 1078 109 1078 243 C1078 345 1013 422 847 422 L347 422 C285 422 273 446 273 472 C273 507 294 540 367 540 L1093 540 L1123 700 L391 700 C175 700 86 591 86 457 C86 355 151 278 316 278 L817 278 C879 278 891 254 891 228 C891 193 870 160 797 160 L797 160 Z M402 -240 L454 -240 L357 -376 L431 -376 L555 -226 L580 -84 L430 -84 L402 -240 Z " />
<glyph glyph-name="uni0219" unicode="&#x219;" horiz-adv-x="989" d="M672 135 L53 135 L28 0 L655 0 C846 0 908 92 908 198 C908 278 856 337 716 337 L283 337 C236 337 225 355 225 373 C225 397 240 425 298 425 L917 425 L943 560 L316 560 C124 560 62 468 62 363 C62 282 114 223 254 223 L687 223 C734 223 745 205 745 187 C745 164 730 135 672 135 L672 135 Z M317 -240 L369 -240 L272 -376 L346 -376 L470 -226 L495 -84 L345 -84 L317 -240 Z " />
<glyph glyph-name="uni021A" unicode="&#x21a;" horiz-adv-x="1136" d="M58 540 L516 540 L420 0 L596 0 L692 540 L1150 540 L1179 700 L88 700 L58 540 Z M391 -240 L443 -240 L346 -376 L420 -376 L544 -226 L569 -84 L419 -84 L391 -240 Z " />
<glyph glyph-name="uni021B" unicode="&#x21b;" horiz-adv-x="996" d="M49 425 L435 425 L361 0 L517 0 L591 425 L977 425 L1002 560 L74 560 L49 425 Z M321 -240 L373 -240 L276 -376 L350 -376 L474 -226 L499 -84 L349 -84 L321 -240 Z " />
<glyph glyph-name="uni021E" unicode="&#x21e;" horiz-adv-x="1252" d="M906 0 L1082 0 L1207 700 L1031 700 L983 430 L303 430 L352 700 L176 700 L51 0 L227 0 L273 270 L953 270 L906 0 Z M939 946 L824 946 L715 858 L639 946 L529 946 L604 775 L802 775 L939 946 Z " />
<glyph glyph-name="uni021F" unicode="&#x21f;" horiz-adv-x="1079" d="M763 0 L919 0 L1018 560 L862 560 L825 348 L260 348 L296 560 L140 560 L41 0 L197 0 L234 212 L799 212 L763 0 Z M829 806 L714 806 L605 718 L529 806 L419 806 L494 635 L692 635 L829 806 Z " />
<glyph glyph-name="uni0226" unicode="&#x226;" horiz-adv-x="1238" d="M971 0 L1177 0 L777 700 L593 700 L-57 0 L165 0 L268 113 L907 113 L971 0 Z M664 548 L827 257 L399 257 L664 548 Z M621 781 L775 781 L803 937 L649 937 L621 781 Z " />
<glyph glyph-name="uni0227" unicode="&#x227;" horiz-adv-x="1058" d="M810 0 L996 0 L652 560 L487 560 L-56 0 L142 0 L232 95 L753 95 L810 0 Z M552 432 L683 213 L344 213 L552 432 Z M506 641 L660 641 L688 797 L534 797 L506 641 Z " />
<glyph glyph-name="uni0228" unicode="&#x228;" horiz-adv-x="1150" d="M51 0 L489 0 L428 -139 L469 -139 C511 -139 533 -146 533 -169 C533 -208 483 -215 436 -215 C401 -215 369 -204 354 -191 L339 -267 C365 -282 412 -297 463 -296 C553 -295 651 -269 651 -161 C651 -92 582 -65 517 -71 L550 0 L1021 0 L1050 160 L256 160 L275 278 L971 278 L998 422 L302 422 L322 540 L1116 540 L1146 700 L176 700 L51 0 Z " />
<glyph glyph-name="uni0229" unicode="&#x229;" horiz-adv-x="990" d="M41 0 L410 0 L349 -139 L390 -139 C432 -139 454 -146 454 -169 C454 -208 404 -215 357 -215 C322 -215 290 -204 275 -191 L260 -267 C286 -282 333 -297 384 -296 C474 -295 572 -269 572 -161 C572 -92 503 -65 438 -71 L471 0 L867 0 L891 135 L221 135 L235 221 L820 221 L842 339 L257 339 L271 425 L941 425 L966 560 L140 560 L41 0 Z " />
<glyph glyph-name="uni022A" unicode="&#x22a;" horiz-adv-x="1293" d="M735 -10 C1098 -10 1237 178 1237 406 C1237 578 1130 710 858 710 L564 710 C201 710 60 523 60 295 C60 122 170 -10 441 -10 L735 -10 Z M475 150 C301 150 249 222 249 316 C249 424 305 550 552 550 L823 550 C995 550 1048 478 1048 386 C1048 269 985 150 746 150 L475 150 Z M575 999 L951 999 L971 1111 L595 1111 L575 999 Z M788 781 L944 781 L972 937 L816 937 L788 781 Z M500 781 L656 781 L683 937 L527 937 L500 781 Z " />
<glyph glyph-name="uni022B" unicode="&#x22b;" horiz-adv-x="1106" d="M623 -8 C928 -8 1040 152 1043 326 C1046 461 961 568 727 568 L463 568 C158 568 47 408 44 234 C41 99 124 -8 359 -8 L623 -8 Z M386 127 C246 127 209 181 210 250 C211 335 276 433 439 433 L701 433 C840 433 877 379 877 310 C877 228 812 127 648 127 L386 127 Z M457 859 L833 859 L853 971 L477 971 L457 859 Z M671 641 L827 641 L855 797 L699 797 L671 641 Z M383 641 L539 641 L566 797 L410 797 L383 641 Z " />
<glyph glyph-name="uni022C" unicode="&#x22c;" horiz-adv-x="1293" d="M735 -10 C1098 -10 1237 178 1237 406 C1237 578 1130 710 858 710 L564 710 C201 710 60 523 60 295 C60 122 170 -10 441 -10 L735 -10 Z M475 150 C301 150 249 222 249 316 C249 424 305 550 552 550 L823 550 C995 550 1048 478 1048 386 C1048 269 985 150 746 150 L475 150 Z M850 946 C844 912 832 899 812 899 C780 899 742 940 682 940 C614 940 563 897 538 774 L624 774 C629 807 640 821 661 821 C692 821 730 779 790 779 C859 779 910 822 936 946 L850 946 Z M575 999 L951 999 L971 1111 L595 1111 L575 999 Z " />
<glyph glyph-name="uni022D" unicode="&#x22d;" horiz-adv-x="1106" d="M623 -8 C928 -8 1040 152 1043 326 C1046 461 961 568 727 568 L463 568 C158 568 47 408 44 234 C41 99 124 -8 359 -8 L623 -8 Z M386 127 C246 127 209 181 210 250 C211 335 276 433 439 433 L701 433 C840 433 877 379 877 310 C877 228 812 127 648 127 L386 127 Z M733 806 C727 772 715 759 695 759 C663 759 625 800 565 800 C497 800 446 757 421 634 L507 634 C512 667 523 681 544 681 C575 681 613 639 673 639 C742 639 793 682 819 806 L733 806 Z M457 859 L833 859 L853 971 L477 971 L457 859 Z " />
<glyph glyph-name="uni022E" unicode="&#x22e;" horiz-adv-x="1293" d="M735 -10 C1098 -10 1237 178 1237 406 C1237 578 1130 710 858 710 L564 710 C201 710 60 523 60 295 C60 122 170 -10 441 -10 L735 -10 Z M475 150 C301 150 249 222 249 316 C249 424 305 550 552 550 L823 550 C995 550 1048 478 1048 386 C1048 269 985 150 746 150 L475 150 Z M647 781 L801 781 L829 937 L675 937 L647 781 Z " />
<glyph glyph-name="uni022F" unicode="&#x22f;" horiz-adv-x="1106" d="M623 -8 C928 -8 1040 152 1043 326 C1046 461 961 568 727 568 L463 568 C158 568 47 408 44 234 C41 99 124 -8 359 -8 L623 -8 Z M386 127 C246 127 209 181 210 250 C211 335 276 433 439 433 L701 433 C840 433 877 379 877 310 C877 228 812 127 648 127 L386 127 Z M530 641 L684 641 L712 797 L558 797 L530 641 Z " />
<glyph glyph-name="uni0230" unicode="&#x230;" horiz-adv-x="1293" d="M735 -10 C1098 -10 1237 178 1237 406 C1237 578 1130 710 858 710 L564 710 C201 710 60 523 60 295 C60 122 170 -10 441 -10 L735 -10 Z M475 150 C301 150 249 222 249 316 C249 424 305 550 552 550 L823 550 C995 550 1048 478 1048 386 C1048 269 985 150 746 150 L475 150 Z M575 999 L951 999 L971 1111 L595 1111 L575 999 Z M647 781 L801 781 L829 937 L675 937 L647 781 Z " />
<glyph glyph-name="uni0231" unicode="&#x231;" horiz-adv-x="1106" d="M623 -8 C928 -8 1040 152 1043 326 C1046 461 961 568 727 568 L463 568 C158 568 47 408 44 234 C41 99 124 -8 359 -8 L623 -8 Z M386 127 C246 127 209 181 210 250 C211 335 276 433 439 433 L701 433 C840 433 877 379 877 310 C877 228 812 127 648 127 L386 127 Z M457 859 L833 859 L853 971 L477 971 L457 859 Z M530 641 L684 641 L712 797 L558 797 L530 641 Z " />
<glyph glyph-name="uni0232" unicode="&#x232;" horiz-adv-x="1205" d="M455 0 L631 0 L668 213 L1278 700 L1010 700 L597 351 L303 700 L59 700 L492 213 L455 0 Z M496 804 L872 804 L892 916 L516 916 L496 804 Z " />
<glyph glyph-name="uni0233" unicode="&#x233;" horiz-adv-x="1024" d="M375 0 L531 0 L561 171 L1071 560 L834 560 L495 286 L249 560 L33 560 L405 171 L375 0 Z M382 664 L758 664 L778 776 L402 776 L382 664 Z " />
<glyph glyph-name="uni0237" unicode="&#x237;" horiz-adv-x="998" d="M247 -4 L554 -4 C774 -4 872 85 900 243 L957 560 L801 560 L746 260 C730 173 678 131 563 131 L257 131 C168 131 158 171 166 220 L175 272 L21 272 L12 220 C-9 97 39 -4 247 -4 L247 -4 Z " />
<glyph glyph-name="uni0256" unicode="&#x256;" horiz-adv-x="1035" d="M-36 221 L81 221 L41 0 L565 0 C866 0 973 160 973 328 C973 457 889 560 666 560 L142 560 L102 339 L-14 339 L-36 221 Z M649 425 C769 425 806 382 806 310 C806 220 732 135 574 135 L222 135 L237 221 L526 221 L548 339 L257 339 L272 425 L649 425 Z " />
<glyph glyph-name="uni02BB" unicode="&#x2bb;" horiz-adv-x="344" d="M299 537 L223 537 L329 700 L252 700 L120 523 L89 359 L266 359 L299 537 Z " />
<glyph glyph-name="uni02BC" unicode="&#x2bc;" horiz-adv-x="344" d="M119 522 L195 522 L89 359 L166 359 L298 536 L329 700 L152 700 L119 522 Z " />
<glyph glyph-name="uni02BD" unicode="&#x2bd;" horiz-adv-x="344" d="M329 700 L152 700 L121 536 L189 359 L266 359 L221 522 L296 522 L329 700 Z " />
<glyph glyph-name="circumflex" unicode="&#x2c6;" horiz-adv-x="480" d="M86 635 L201 635 L310 723 L386 635 L496 635 L421 806 L223 806 L86 635 Z " />
<glyph glyph-name="caron" unicode="&#x2c7;" horiz-adv-x="480" d="M529 806 L414 806 L305 718 L229 806 L119 806 L194 635 L392 635 L529 806 Z " />
<glyph glyph-name="uni02C9" unicode="&#x2c9;" horiz-adv-x="480" d="M110 664 L486 664 L506 776 L130 776 L110 664 Z " />
<glyph glyph-name="uni02CA" unicode="&#x2ca;" horiz-adv-x="480" d="M188 635 L308 635 L511 806 L311 806 L188 635 Z " />
<glyph glyph-name="uni02CB" unicode="&#x2cb;" horiz-adv-x="480" d="M328 806 L142 806 L281 635 L390 635 L328 806 Z " />
<glyph glyph-name="uni02CD" unicode="&#x2cd;" horiz-adv-x="480" d="M-45 -217 L331 -217 L351 -105 L-25 -105 L-45 -217 Z " />
<glyph glyph-name="uni02CE" unicode="&#x2ce;" horiz-adv-x="480" d="M173 -75 L-13 -75 L126 -246 L235 -246 L173 -75 Z " />
<glyph glyph-name="uni02CF" unicode="&#x2cf;" horiz-adv-x="480" d="M33 -246 L153 -246 L356 -75 L156 -75 L33 -246 Z " />
<glyph glyph-name="breve" unicode="&#x2d8;" horiz-adv-x="480" d="M309 742 C248 742 227 769 231 806 L138 806 C127 727 145 634 292 634 C438 634 490 724 509 806 L413 806 C402 769 368 742 309 742 L309 742 Z " />
<glyph glyph-name="dotaccent" unicode="&#x2d9;" horiz-adv-x="480" d="M217 641 L371 641 L399 797 L245 797 L217 641 Z " />
<glyph glyph-name="ring" unicode="&#x2da;" horiz-adv-x="480" d="M270 718 C270 740 290 757 311 757 C329 757 343 742 343 724 C343 702 323 685 303 685 C284 685 270 700 270 718 L270 718 Z M173 713 C173 651 219 603 295 603 C378 603 441 660 441 731 C441 792 393 839 319 839 C235 839 173 783 173 713 L173 713 Z " />
<glyph glyph-name="ogonek" unicode="&#x2db;" horiz-adv-x="480" d="M32 -194 C32 -250 82 -287 160 -287 C207 -287 256 -284 312 -264 L326 -187 C288 -202 271 -205 244 -205 C202 -205 175 -187 175 -151 C175 -86 243 -38 311 0 L224 0 C129 -36 32 -100 32 -194 L32 -194 Z " />
<glyph glyph-name="tilde" unicode="&#x2dc;" horiz-adv-x="480" d="M420 806 C414 772 402 759 382 759 C350 759 312 800 252 800 C184 800 133 757 108 634 L194 634 C199 667 210 681 231 681 C262 681 300 639 360 639 C429 639 480 682 506 806 L420 806 Z " />
<glyph glyph-name="hungarumlaut" unicode="&#x2dd;" horiz-adv-x="480" d="M332 635 L451 635 L653 806 L456 806 L332 635 Z M51 635 L169 635 L372 806 L175 806 L51 635 Z " />
<glyph glyph-name="uni02EC" unicode="&#x2ec;" horiz-adv-x="480" d="M374 -75 L259 -75 L150 -163 L74 -75 L-36 -75 L39 -246 L237 -246 L374 -75 Z " />
<glyph glyph-name="uni02EE" unicode="&#x2ee;" horiz-adv-x="618" d="M119 522 L194 522 L88 359 L165 359 L298 536 L329 700 L151 700 L119 522 Z M398 522 L473 522 L367 359 L444 359 L577 536 L607 700 L430 700 L398 522 Z " />
<glyph glyph-name="gravecomb" unicode="&#x300;" d="M-491 806 L-677 806 L-538 635 L-429 635 L-491 806 Z " />
<glyph glyph-name="acutecomb" unicode="&#x301;" d="M-631 635 L-511 635 L-308 806 L-508 806 L-631 635 Z " />
<glyph glyph-name="uni0302" unicode="&#x302;" d="M-733 635 L-618 635 L-509 723 L-433 635 L-323 635 L-398 806 L-596 806 L-733 635 Z " />
<glyph glyph-name="tildecomb" unicode="&#x303;" d="M-399 806 C-405 772 -417 759 -437 759 C-469 759 -507 800 -567 800 C-635 800 -686 757 -711 634 L-625 634 C-620 667 -609 681 -588 681 C-557 681 -519 639 -459 639 C-390 639 -339 682 -313 806 L-399 806 Z " />
<glyph glyph-name="uni0304" unicode="&#x304;" d="M-709 664 L-333 664 L-313 776 L-689 776 L-709 664 Z " />
<glyph glyph-name="uni0306" unicode="&#x306;" d="M-511 742 C-572 742 -593 769 -589 806 L-682 806 C-693 727 -675 634 -528 634 C-382 634 -330 724 -311 806 L-407 806 C-418 769 -452 742 -511 742 L-511 742 Z " />
<glyph glyph-name="uni0307" unicode="&#x307;" d="M-602 641 L-448 641 L-420 797 L-574 797 L-602 641 Z " />
<glyph glyph-name="uni0308" unicode="&#x308;" d="M-461 641 L-305 641 L-277 797 L-433 797 L-461 641 Z M-749 641 L-593 641 L-566 797 L-722 797 L-749 641 Z " />
<glyph glyph-name="hookabovecomb" unicode="&#x309;" d="M-597 611 L-518 611 L-510 655 L-508 655 C-420 655 -326 675 -326 780 C-326 851 -393 868 -467 868 C-524 868 -587 856 -623 841 L-637 761 C-612 774 -568 785 -526 785 C-487 785 -454 781 -454 755 C-454 726 -475 717 -533 717 L-577 717 L-597 611 Z " />
<glyph glyph-name="uni030A" unicode="&#x30a;" d="M-549 718 C-549 740 -529 757 -508 757 C-490 757 -476 742 -476 724 C-476 702 -496 685 -516 685 C-535 685 -549 700 -549 718 L-549 718 Z M-646 713 C-646 651 -600 603 -524 603 C-441 603 -378 660 -378 731 C-378 792 -426 839 -500 839 C-584 839 -646 783 -646 713 L-646 713 Z " />
<glyph glyph-name="uni030B" unicode="&#x30b;" d="M-488 635 L-369 635 L-167 806 L-364 806 L-488 635 Z M-769 635 L-651 635 L-448 806 L-645 806 L-769 635 Z " />
<glyph glyph-name="uni030C" unicode="&#x30c;" d="M-290 806 L-405 806 L-514 718 L-590 806 L-700 806 L-625 635 L-427 635 L-290 806 Z " />
<glyph glyph-name="uni030F" unicode="&#x30f;" d="M-377 806 L-563 806 L-424 635 L-315 635 L-377 806 Z M-638 806 L-824 806 L-685 635 L-576 635 L-638 806 Z " />
<glyph glyph-name="uni0311" unicode="&#x311;" d="M-513 699 C-454 699 -432 672 -435 635 L-342 635 C-331 717 -349 807 -496 807 C-644 807 -696 717 -714 635 L-616 635 C-605 672 -573 699 -513 699 L-513 699 Z " />
<glyph glyph-name="uni0312" unicode="&#x312;" d="M-340 537 L-415 537 L-309 700 L-386 700 L-519 523 L-550 359 L-372 359 L-340 537 Z " />
<glyph glyph-name="uni0313" unicode="&#x313;" d="M-633 522 L-558 522 L-664 359 L-587 359 L-454 536 L-423 700 L-601 700 L-633 522 Z " />
<glyph glyph-name="uni0314" unicode="&#x314;" d="M-311 700 L-489 700 L-518 536 L-450 359 L-373 359 L-419 522 L-344 522 L-311 700 Z " />
<glyph glyph-name="uni0316" unicode="&#x316;" d="M-646 -75 L-832 -75 L-693 -246 L-584 -246 L-646 -75 Z " />
<glyph glyph-name="uni0317" unicode="&#x317;" d="M-786 -246 L-666 -246 L-463 -75 L-663 -75 L-786 -246 Z " />
<glyph glyph-name="uni031B" unicode="&#x31b;" d="M-107 472 L-25 472 C75 472 162 494 184 621 C187 640 189 662 189 686 L30 686 C30 665 28 648 25 633 C14 570 -17 560 -56 560 L-92 560 L-107 472 Z " />
<glyph glyph-name="uni031C" unicode="&#x31c;" d="M-597 -42 C-674 -42 -735 -94 -747 -160 C-758 -226 -716 -278 -639 -278 L-624 -196 C-644 -196 -657 -180 -654 -160 C-650 -140 -631 -124 -611 -124 L-597 -42 Z " />
<glyph glyph-name="dotbelowcomb" unicode="&#x323;" d="M-757 -240 L-603 -240 L-575 -84 L-729 -84 L-757 -240 Z " />
<glyph glyph-name="uni0324" unicode="&#x324;" d="M-616 -240 L-460 -240 L-432 -84 L-588 -84 L-616 -240 Z M-904 -240 L-748 -240 L-721 -84 L-877 -84 L-904 -240 Z " />
<glyph glyph-name="uni0325" unicode="&#x325;" d="M-704 -163 C-704 -141 -684 -124 -663 -124 C-645 -124 -631 -139 -631 -157 C-631 -179 -651 -196 -671 -196 C-690 -196 -704 -181 -704 -163 L-704 -163 Z M-801 -168 C-801 -230 -755 -278 -679 -278 C-596 -278 -533 -221 -533 -150 C-533 -89 -581 -42 -655 -42 C-739 -42 -801 -98 -801 -168 L-801 -168 Z " />
<glyph glyph-name="uni0326" unicode="&#x326;" d="M-752 -240 L-700 -240 L-797 -376 L-723 -376 L-599 -226 L-574 -84 L-724 -84 L-752 -240 Z " />
<glyph glyph-name="uni0327" unicode="&#x327;" d="M-737 -139 L-696 -139 C-654 -139 -632 -146 -632 -169 C-632 -208 -682 -215 -729 -215 C-764 -215 -796 -204 -811 -191 L-826 -267 C-800 -282 -753 -297 -702 -296 C-612 -295 -514 -269 -514 -161 C-514 -92 -583 -65 -648 -71 L-615 0 L-676 0 L-737 -139 Z " />
<glyph glyph-name="uni0328" unicode="&#x328;" d="M-787 -194 C-787 -250 -737 -287 -659 -287 C-612 -287 -563 -284 -507 -264 L-493 -187 C-531 -202 -548 -205 -575 -205 C-617 -205 -644 -187 -644 -151 C-644 -86 -576 -38 -508 0 L-595 0 C-690 -36 -787 -100 -787 -194 L-787 -194 Z " />
<glyph glyph-name="uni032C" unicode="&#x32c;" d="M-445 -75 L-560 -75 L-669 -163 L-745 -75 L-855 -75 L-780 -246 L-582 -246 L-445 -75 Z " />
<glyph glyph-name="uni032D" unicode="&#x32d;" d="M-888 -246 L-773 -246 L-664 -158 L-588 -246 L-478 -246 L-553 -75 L-751 -75 L-888 -246 Z " />
<glyph glyph-name="uni032E" unicode="&#x32e;" d="M-666 -139 C-727 -139 -748 -112 -744 -75 L-837 -75 C-848 -154 -830 -247 -683 -247 C-537 -247 -485 -157 -466 -75 L-562 -75 C-573 -112 -607 -139 -666 -139 L-666 -139 Z " />
<glyph glyph-name="uni032F" unicode="&#x32f;" d="M-670 -182 C-611 -182 -587 -209 -590 -246 L-497 -246 C-485 -164 -506 -74 -653 -74 C-801 -74 -850 -164 -870 -246 L-771 -246 C-760 -209 -730 -182 -670 -182 L-670 -182 Z " />
<glyph glyph-name="uni0330" unicode="&#x330;" d="M-554 -75 C-560 -109 -572 -122 -592 -122 C-624 -122 -662 -81 -722 -81 C-790 -81 -841 -124 -866 -247 L-780 -247 C-775 -214 -764 -200 -743 -200 C-712 -200 -674 -242 -614 -242 C-545 -242 -494 -199 -468 -75 L-554 -75 Z " />
<glyph glyph-name="uni0331" unicode="&#x331;" d="M-864 -217 L-488 -217 L-468 -105 L-844 -105 L-864 -217 Z " />
<glyph glyph-name="uni0338" unicode="&#x338;" d="M-971 -76 L-816 -76 L-180 777 L-337 777 L-971 -76 Z " />
<glyph glyph-name="uni0339" unicode="&#x339;" d="M-711 -124 C-692 -124 -679 -140 -683 -160 C-686 -180 -705 -196 -724 -196 L-739 -278 C-663 -278 -601 -226 -590 -160 C-578 -94 -621 -42 -697 -42 L-711 -124 Z " />
<glyph glyph-name="uni0340" unicode="&#x340;" d="M-491 806 L-677 806 L-538 635 L-429 635 L-491 806 Z " />
<glyph glyph-name="uni0341" unicode="&#x341;" d="M-631 635 L-511 635 L-308 806 L-508 806 L-631 635 Z " />
<glyph glyph-name="uni0343" unicode="&#x343;" d="M-633 522 L-558 522 L-664 359 L-587 359 L-454 536 L-423 700 L-601 700 L-633 522 Z " />
<glyph glyph-name="uni0344" unicode="&#x344;" d="M-377 645 L-225 645 L-197 797 L-349 797 L-377 645 Z M-825 645 L-673 645 L-646 797 L-798 797 L-825 645 Z M-565 635 L-489 635 L-405 835 L-576 835 L-565 635 Z " />
<glyph glyph-name="uni034F" unicode="&#x34f;" d="" />
<glyph glyph-name="uni0351" unicode="&#x351;" d="M-442 839 C-519 839 -580 787 -591 721 C-603 655 -560 603 -483 603 L-469 685 C-489 685 -502 701 -498 721 C-495 741 -476 757 -456 757 L-442 839 Z " />
<glyph glyph-name="uni0357" unicode="&#x357;" d="M-556 757 C-537 757 -524 741 -527 721 C-531 701 -550 685 -569 685 L-583 603 C-507 603 -446 655 -434 721 C-423 787 -466 839 -542 839 L-556 757 Z " />
<glyph glyph-name="uni0374" unicode="&#x374;" horiz-adv-x="350" d="M108 400 L229 400 L381 700 L180 700 L108 400 Z " />
<glyph glyph-name="uni0375" unicode="&#x375;" horiz-adv-x="350" d="M20 -100 L141 -100 L293 200 L92 200 L20 -100 Z " />
<glyph glyph-name="uni037E" unicode="&#x37e;" horiz-adv-x="344" d="M27 0 L102 0 L-4 -163 L73 -163 L206 14 L237 178 L59 178 L27 0 Z M93 382 L270 382 L303 560 L126 560 L93 382 Z " />
<glyph glyph-name="tonos" unicode="&#x384;" horiz-adv-x="480" d="M248 635 L339 635 L422 835 L236 835 L248 635 Z " />
<glyph glyph-name="dieresistonos" unicode="&#x385;" horiz-adv-x="480" d="M443 645 L595 645 L623 797 L471 797 L443 645 Z M-5 645 L147 645 L174 797 L22 797 L-5 645 Z M255 635 L331 635 L415 835 L244 835 L255 635 Z " />
<glyph glyph-name="Alphatonos" unicode="&#x386;" horiz-adv-x="1238" d="M971 0 L1177 0 L777 700 L593 700 L-57 0 L165 0 L268 113 L907 113 L971 0 Z M664 548 L827 257 L399 257 L664 548 Z M172 500 L263 500 L346 700 L160 700 L172 500 Z " />
<glyph glyph-name="anoteleia" unicode="&#x387;" horiz-adv-x="324" d="M63 202 L217 202 L245 358 L91 358 L63 202 Z " />
<glyph glyph-name="Epsilontonos" unicode="&#x388;" horiz-adv-x="1322" d="M223 0 L1193 0 L1222 160 L428 160 L447 278 L1143 278 L1170 422 L474 422 L494 540 L1288 540 L1318 700 L348 700 L223 0 Z M71 500 L162 500 L245 700 L59 700 L71 500 Z " />
<glyph glyph-name="Etatonos" unicode="&#x389;" horiz-adv-x="1423" d="M1078 0 L1254 0 L1379 700 L1203 700 L1155 430 L475 430 L524 700 L348 700 L223 0 L399 0 L445 270 L1125 270 L1078 0 Z M71 500 L162 500 L245 700 L59 700 L71 500 Z " />
<glyph glyph-name="Iotatonos" unicode="&#x38a;" horiz-adv-x="568" d="M222 0 L398 0 L523 700 L347 700 L222 0 Z M71 500 L162 500 L245 700 L59 700 L71 500 Z " />
<glyph glyph-name="Omicrontonos" unicode="&#x38c;" horiz-adv-x="1427" d="M869 -10 C1232 -10 1371 178 1371 406 C1371 578 1264 710 992 710 L698 710 C335 710 194 523 194 295 C194 122 304 -10 575 -10 L869 -10 Z M609 150 C435 150 383 222 383 316 C383 424 439 550 686 550 L957 550 C1129 550 1182 478 1182 386 C1182 269 1119 150 880 150 L609 150 Z M71 500 L162 500 L245 700 L59 700 L71 500 Z " />
<glyph glyph-name="Upsilontonos" unicode="&#x38e;" horiz-adv-x="1418" d="M668 0 L844 0 L881 213 L1491 700 L1223 700 L810 351 L516 700 L272 700 L705 213 L668 0 Z M71 500 L162 500 L245 700 L59 700 L71 500 Z " />
<glyph glyph-name="Omegatonos" unicode="&#x38f;" horiz-adv-x="1421" d="M591 132 C445 153 381 228 381 318 C381 419 433 550 669 550 L954 550 C1122 550 1169 481 1169 390 C1169 278 1082 153 876 132 L854 0 L1303 0 L1333 160 L1220 160 C1315 239 1350 341 1350 446 C1350 593 1255 710 1015 710 L662 710 C343 710 214 530 214 337 C214 270 236 203 274 160 L151 160 L121 0 L569 0 L591 132 Z M71 500 L162 500 L245 700 L59 700 L71 500 Z " />
<glyph glyph-name="iotadieresistonos" unicode="&#x390;" horiz-adv-x="357" d="M41 0 L197 0 L296 560 L140 560 L41 0 Z M379 645 L531 645 L559 797 L407 797 L379 645 Z M-69 645 L83 645 L110 797 L-42 797 L-69 645 Z M191 635 L267 635 L351 835 L180 835 L191 635 Z " />
<glyph glyph-name="Alpha" unicode="&#x391;" horiz-adv-x="1238" d="M971 0 L1177 0 L777 700 L593 700 L-57 0 L165 0 L268 113 L907 113 L971 0 Z M664 548 L827 257 L399 257 L664 548 Z " />
<glyph glyph-name="Beta" unicode="&#x392;" horiz-adv-x="1208" d="M51 0 L851 0 C1040 0 1114 106 1114 220 C1114 287 1084 343 1006 364 C1089 403 1127 472 1127 554 C1127 636 1073 700 936 700 L176 700 L51 0 Z M852 278 C915 278 931 254 931 229 C931 198 907 160 833 160 L256 160 L275 278 L852 278 Z M936 492 C936 461 913 422 838 422 L302 422 L322 540 L858 540 C921 540 936 520 936 492 L936 492 Z " />
<glyph glyph-name="Gamma" unicode="&#x393;" horiz-adv-x="1083" d="M51 0 L227 0 L322 540 L1097 540 L1127 700 L176 700 L51 0 Z " />
<glyph glyph-name="Delta" unicode="&#x394;" horiz-adv-x="1238" d="M779 700 L592 700 L-57 0 L1178 0 L779 700 Z M669 553 L885 160 L317 160 L669 553 Z " />
<glyph glyph-name="Epsilon" unicode="&#x395;" horiz-adv-x="1150" d="M51 0 L1021 0 L1050 160 L256 160 L275 278 L971 278 L998 422 L302 422 L322 540 L1116 540 L1146 700 L176 700 L51 0 Z " />
<glyph glyph-name="Zeta" unicode="&#x396;" horiz-adv-x="1154" d="M8 0 L1042 0 L1071 160 L387 160 L1125 577 L1143 700 L138 700 L108 540 L763 540 L25 123 L8 0 Z " />
<glyph glyph-name="Eta" unicode="&#x397;" horiz-adv-x="1252" d="M906 0 L1082 0 L1207 700 L1031 700 L983 430 L303 430 L352 700 L176 700 L51 0 L227 0 L273 270 L953 270 L906 0 Z " />
<glyph glyph-name="Theta" unicode="&#x398;" horiz-adv-x="1293" d="M411 278 L860 278 L887 422 L438 422 L411 278 Z M735 -10 C1098 -10 1237 178 1237 406 C1237 578 1130 710 858 710 L564 710 C201 710 60 523 60 295 C60 122 170 -10 441 -10 L735 -10 Z M475 150 C301 150 249 222 249 316 C249 424 305 550 552 550 L823 550 C995 550 1048 478 1048 386 C1048 269 985 150 746 150 L475 150 Z " />
<glyph glyph-name="Iota" unicode="&#x399;" horiz-adv-x="397" d="M51 0 L227 0 L352 700 L176 700 L51 0 Z " />
<glyph glyph-name="Kappa" unicode="&#x39a;" horiz-adv-x="1248" d="M1228 700 L923 700 L282 322 L349 700 L176 700 L51 0 L224 0 L248 132 L543 303 L922 0 L1191 0 L694 390 L1228 700 Z " />
<glyph glyph-name="Lambda" unicode="&#x39b;" horiz-adv-x="1238" d="M592 700 L-57 0 L174 0 L663 549 L961 0 L1178 0 L779 700 L592 700 Z " />
<glyph glyph-name="Mu" unicode="&#x39c;" horiz-adv-x="1398" d="M1174 700 L675 258 L333 700 L176 700 L51 0 L227 0 L306 457 L642 18 L1131 457 L1052 0 L1228 0 L1353 700 L1174 700 Z " />
<glyph glyph-name="Nu" unicode="&#x39d;" horiz-adv-x="1256" d="M919 0 L1086 0 L1211 700 L1035 700 L945 192 L343 700 L176 700 L51 0 L227 0 L316 508 L919 0 Z " />
<glyph glyph-name="Xi" unicode="&#x39e;" horiz-adv-x="1158" d="M106 540 L1124 540 L1154 700 L136 700 L106 540 Z M1057 160 L39 160 L10 0 L1028 0 L1057 160 Z M147 278 L989 278 L1016 422 L174 422 L147 278 Z " />
<glyph glyph-name="Omicron" unicode="&#x39f;" horiz-adv-x="1293" d="M735 -10 C1098 -10 1237 178 1237 406 C1237 578 1130 710 858 710 L564 710 C201 710 60 523 60 295 C60 122 170 -10 441 -10 L735 -10 Z M475 150 C301 150 249 222 249 316 C249 424 305 550 552 550 L823 550 C995 550 1048 478 1048 386 C1048 269 985 150 746 150 L475 150 Z " />
<glyph glyph-name="Pi" unicode="&#x3a0;" horiz-adv-x="1252" d="M906 0 L1082 0 L1207 700 L176 700 L51 0 L227 0 L322 540 L1001 540 L906 0 Z " />
<glyph glyph-name="Rho" unicode="&#x3a1;" horiz-adv-x="1147" d="M51 0 L227 0 L268 230 L817 230 C1055 230 1151 350 1151 502 C1151 612 1085 700 901 700 L176 700 L51 0 Z M867 540 C946 540 965 513 965 477 C965 431 933 390 842 390 L297 390 L322 540 L867 540 Z " />
<glyph glyph-name="Sigma" unicode="&#x3a3;" horiz-adv-x="1129" d="M111 569 L482 355 L35 131 L10 0 L1000 0 L1028 160 L408 160 L788 345 L464 540 L1095 540 L1125 700 L136 700 L111 569 Z " />
<glyph glyph-name="Tau" unicode="&#x3a4;" horiz-adv-x="1136" d="M58 540 L516 540 L420 0 L596 0 L692 540 L1150 540 L1179 700 L88 700 L58 540 Z " />
<glyph glyph-name="Upsilon" unicode="&#x3a5;" horiz-adv-x="1205" d="M455 0 L631 0 L668 213 L1278 700 L1010 700 L597 351 L303 700 L59 700 L492 213 L455 0 Z " />
<glyph glyph-name="Phi" unicode="&#x3a6;" horiz-adv-x="1252" d="M811 62 C1106 62 1214 217 1214 395 C1214 527 1124 638 909 638 L768 638 L788 750 L612 750 L592 638 L447 638 C154 638 44 479 44 303 C44 169 135 62 349 62 L489 62 L469 -50 L645 -50 L665 62 L811 62 Z M885 478 C1001 478 1025 428 1025 366 C1025 288 953 222 821 222 L695 222 L738 478 L885 478 Z M235 333 C235 409 305 478 437 478 L562 478 L519 222 L374 222 C258 222 235 270 235 333 L235 333 Z " />
<glyph glyph-name="Chi" unicode="&#x3a7;" horiz-adv-x="1177" d="M77 700 L461 352 L-53 0 L236 0 L585 259 L844 0 L1113 0 L725 352 L1233 700 L944 700 L599 445 L346 700 L77 700 Z " />
<glyph glyph-name="Psi" unicode="&#x3a8;" horiz-adv-x="1243" d="M474 0 L650 0 L673 133 L786 133 C1064 133 1177 258 1211 449 L1256 700 L1080 700 L1039 478 C1018 364 954 293 810 293 L703 293 L775 700 L599 700 L527 293 L423 293 C267 293 234 365 252 466 L294 700 L118 700 L76 467 C41 274 117 133 403 133 L497 133 L474 0 Z " />
<glyph glyph-name="Omega" unicode="&#x3a9;" horiz-adv-x="1301" d="M470 132 C324 153 260 228 260 318 C260 419 312 550 548 550 L833 550 C1001 550 1048 481 1048 390 C1048 278 961 153 755 132 L733 0 L1182 0 L1212 160 L1099 160 C1194 239 1229 341 1229 446 C1229 593 1134 710 894 710 L541 710 C222 710 93 530 93 337 C93 270 115 203 153 160 L30 160 L0 0 L448 0 L470 132 Z " />
<glyph glyph-name="Iotadieresis" unicode="&#x3aa;" horiz-adv-x="397" d="M51 0 L227 0 L352 700 L176 700 L51 0 Z M339 781 L495 781 L523 937 L367 937 L339 781 Z M51 781 L207 781 L234 937 L78 937 L51 781 Z " />
<glyph glyph-name="Upsilondieresis" unicode="&#x3ab;" horiz-adv-x="1205" d="M455 0 L631 0 L668 213 L1278 700 L1010 700 L597 351 L303 700 L59 700 L492 213 L455 0 Z M746 781 L902 781 L930 937 L774 937 L746 781 Z M458 781 L614 781 L641 937 L485 937 L458 781 Z " />
<glyph glyph-name="alphatonos" unicode="&#x3ac;" horiz-adv-x="1058" d="M810 0 L996 0 L652 560 L487 560 L-56 0 L142 0 L232 95 L753 95 L810 0 Z M552 432 L683 213 L344 213 L552 432 Z M108 360 L199 360 L282 560 L96 560 L108 360 Z " />
<glyph glyph-name="epsilontonos" unicode="&#x3ad;" horiz-adv-x="1161" d="M213 0 L1039 0 L1063 135 L393 135 L407 221 L992 221 L1014 339 L429 339 L443 425 L1113 425 L1138 560 L312 560 L213 0 Z M46 360 L137 360 L220 560 L34 560 L46 360 Z " />
<glyph glyph-name="etatonos" unicode="&#x3ae;" horiz-adv-x="1251" d="M935 0 L1091 0 L1190 560 L1034 560 L997 348 L432 348 L468 560 L312 560 L213 0 L369 0 L406 212 L971 212 L935 0 Z M46 360 L137 360 L220 560 L34 560 L46 360 Z " />
<glyph glyph-name="iotatonos" unicode="&#x3af;" horiz-adv-x="529" d="M213 0 L369 0 L468 560 L312 560 L213 0 Z M46 360 L137 360 L220 560 L34 560 L46 360 Z " />
<glyph glyph-name="upsilondieresistonos" unicode="&#x3b0;" horiz-adv-x="1024" d="M375 0 L531 0 L561 171 L1071 560 L834 560 L495 286 L249 560 L33 560 L405 171 L375 0 Z M716 645 L868 645 L896 797 L744 797 L716 645 Z M268 645 L420 645 L447 797 L295 797 L268 645 Z M528 635 L604 635 L688 835 L517 835 L528 635 Z " />
<glyph glyph-name="alpha" unicode="&#x3b1;" horiz-adv-x="1058" d="M810 0 L996 0 L652 560 L487 560 L-56 0 L142 0 L232 95 L753 95 L810 0 Z M552 432 L683 213 L344 213 L552 432 Z " />
<glyph glyph-name="beta" unicode="&#x3b2;" horiz-adv-x="1038" d="M41 0 L726 0 C890 0 944 86 944 174 C944 229 917 274 850 292 C919 324 950 379 950 442 C950 510 908 560 793 560 L140 560 L41 0 Z M221 135 L235 221 L722 221 C770 221 781 209 781 190 C781 167 765 135 707 135 L221 135 Z M722 425 C770 425 781 413 781 394 C781 371 765 339 707 339 L257 339 L271 425 L722 425 Z " />
<glyph glyph-name="gamma" unicode="&#x3b3;" horiz-adv-x="944" d="M41 0 L197 0 L271 425 L925 425 L950 560 L140 560 L41 0 Z " />
<glyph glyph-name="delta" unicode="&#x3b4;" horiz-adv-x="1058" d="M652 560 L487 560 L-56 0 L996 0 L652 560 Z M552 434 L731 135 L270 135 L552 434 Z " />
<glyph glyph-name="epsilon" unicode="&#x3b5;" horiz-adv-x="990" d="M41 0 L867 0 L891 135 L221 135 L235 221 L820 221 L842 339 L257 339 L271 425 L941 425 L966 560 L140 560 L41 0 Z " />
<glyph glyph-name="zeta" unicode="&#x3b6;" horiz-adv-x="987" d="M1 0 L882 0 L906 135 L337 135 L946 456 L960 560 L104 560 L79 425 L621 425 L14 104 L1 0 Z " />
<glyph glyph-name="eta" unicode="&#x3b7;" horiz-adv-x="1079" d="M763 0 L919 0 L1018 560 L862 560 L825 348 L260 348 L296 560 L140 560 L41 0 L197 0 L234 212 L799 212 L763 0 Z " />
<glyph glyph-name="theta" unicode="&#x3b8;" horiz-adv-x="1106" d="M345 221 L716 221 L738 339 L367 339 L345 221 Z M623 -8 C928 -8 1040 152 1043 326 C1046 461 961 568 727 568 L463 568 C158 568 47 408 44 234 C41 99 124 -8 359 -8 L623 -8 Z M386 127 C246 127 209 181 210 250 C211 335 276 433 439 433 L701 433 C840 433 877 379 877 310 C877 228 812 127 648 127 L386 127 Z " />
<glyph glyph-name="iota" unicode="&#x3b9;" horiz-adv-x="357" d="M41 0 L197 0 L296 560 L140 560 L41 0 Z " />
<glyph glyph-name="kappa" unicode="&#x3ba;" horiz-adv-x="1074" d="M1043 560 L762 560 L243 266 L296 560 L140 560 L41 0 L197 0 L215 100 L460 236 L771 0 L1013 0 L596 311 L1043 560 Z " />
<glyph glyph-name="lambda" unicode="&#x3bb;" horiz-adv-x="1058" d="M486 560 L-56 0 L146 0 L551 432 L804 0 L996 0 L651 560 L486 560 Z " />
<glyph glyph-name="mu" unicode="&#x3bc;" horiz-adv-x="1203" d="M984 560 L572 216 L280 560 L140 560 L41 0 L197 0 L259 354 L544 13 L949 354 L887 0 L1043 0 L1142 560 L984 560 Z " />
<glyph glyph-name="nu" unicode="&#x3bd;" horiz-adv-x="1083" d="M923 0 L1022 560 L866 560 L797 165 L288 560 L140 560 L41 0 L197 0 L266 395 L775 0 L923 0 Z " />
<glyph glyph-name="xi" unicode="&#x3be;" horiz-adv-x="992" d="M78 425 L944 425 L969 560 L103 560 L78 425 Z M894 135 L28 135 L4 0 L870 0 L894 135 Z M117 221 L831 221 L854 339 L139 339 L117 221 Z " />
<glyph glyph-name="omicron" unicode="&#x3bf;" horiz-adv-x="1106" d="M623 -8 C928 -8 1040 152 1043 326 C1046 461 961 568 727 568 L463 568 C158 568 47 408 44 234 C41 99 124 -8 359 -8 L623 -8 Z M386 127 C246 127 209 181 210 250 C211 335 276 433 439 433 L701 433 C840 433 877 379 877 310 C877 228 812 127 648 127 L386 127 Z " />
<glyph glyph-name="pi" unicode="&#x3c0;" horiz-adv-x="1079" d="M763 0 L919 0 L1018 560 L140 560 L41 0 L197 0 L271 425 L837 425 L763 0 Z " />
<glyph glyph-name="rho" unicode="&#x3c1;" horiz-adv-x="996" d="M41 0 L197 0 L228 180 L693 180 C900 180 972 287 972 398 C972 488 917 560 761 560 L140 560 L41 0 Z M732 425 C793 425 806 406 806 380 C806 350 789 316 713 316 L253 316 L271 425 L732 425 Z " />
<glyph glyph-name="uni03C2" unicode="&#x3c2;" horiz-adv-x="967" d="M82 449 L396 283 L22 111 L3 0 L845 0 L869 135 L351 135 L666 277 L395 425 L919 425 L944 560 L102 560 L82 449 Z " />
<glyph glyph-name="sigma" unicode="&#x3c3;" horiz-adv-x="967" d="M82 449 L396 283 L22 111 L3 0 L845 0 L869 135 L351 135 L666 277 L395 425 L919 425 L944 560 L102 560 L82 449 Z " />
<glyph glyph-name="tau" unicode="&#x3c4;" horiz-adv-x="996" d="M49 425 L435 425 L361 0 L517 0 L591 425 L977 425 L1002 560 L74 560 L49 425 Z " />
<glyph glyph-name="upsilon" unicode="&#x3c5;" horiz-adv-x="1024" d="M375 0 L531 0 L561 171 L1071 560 L834 560 L495 286 L249 560 L33 560 L405 171 L375 0 Z " />
<glyph glyph-name="phi" unicode="&#x3c6;" horiz-adv-x="1081" d="M691 50 C945 50 1029 177 1029 318 C1029 424 960 510 772 510 L650 510 L666 600 L510 600 L494 510 L372 510 C122 510 34 380 34 241 C34 133 103 50 291 50 L412 50 L395 -40 L551 -40 L568 50 L691 50 Z M751 375 C840 375 862 342 862 299 C862 242 817 185 709 185 L593 185 L625 375 L751 375 Z M311 185 C222 185 200 218 200 261 C200 318 245 375 353 375 L469 375 L437 185 L311 185 Z " />
<glyph glyph-name="chi" unicode="&#x3c7;" horiz-adv-x="1017" d="M56 560 L383 282 L-47 0 L210 0 L495 199 L710 0 L946 0 L614 282 L1042 560 L784 560 L505 363 L293 560 L56 560 Z " />
<glyph glyph-name="psi" unicode="&#x3c8;" horiz-adv-x="1067" d="M396 0 L552 0 L569 105 L638 105 C897 105 997 215 1024 369 L1057 560 L901 560 L868 369 C855 292 816 240 663 240 L595 240 L651 560 L495 560 L439 240 L372 240 C219 240 198 292 211 369 L244 560 L89 560 L56 369 C29 215 86 105 345 105 L413 105 L396 0 Z " />
<glyph glyph-name="omega" unicode="&#x3c9;" horiz-adv-x="1119" d="M620 0 L1003 0 L1028 135 L938 135 C1009 193 1039 273 1039 358 C1039 475 965 568 752 568 L444 568 C171 568 74 423 74 271 C74 220 95 167 124 135 L22 135 L-3 0 L380 0 L401 112 C259 123 220 187 220 256 C220 342 292 433 457 433 L700 433 C846 433 881 377 881 309 C881 214 830 133 642 112 L620 0 Z " />
<glyph glyph-name="iotadieresis" unicode="&#x3ca;" horiz-adv-x="357" d="M41 0 L197 0 L296 560 L140 560 L41 0 Z M295 641 L451 641 L479 797 L323 797 L295 641 Z M7 641 L163 641 L190 797 L34 797 L7 641 Z " />
<glyph glyph-name="upsilondieresis" unicode="&#x3cb;" horiz-adv-x="1024" d="M375 0 L531 0 L561 171 L1071 560 L834 560 L495 286 L249 560 L33 560 L405 171 L375 0 Z M632 641 L788 641 L816 797 L660 797 L632 641 Z M344 641 L500 641 L527 797 L371 797 L344 641 Z " />
<glyph glyph-name="omicrontonos" unicode="&#x3cc;" horiz-adv-x="1260" d="M777 -8 C1082 -8 1194 152 1197 326 C1200 461 1115 568 881 568 L617 568 C312 568 201 408 198 234 C195 99 278 -8 513 -8 L777 -8 Z M540 127 C400 127 363 181 364 250 C365 335 430 433 593 433 L855 433 C994 433 1031 379 1031 310 C1031 228 966 127 802 127 L540 127 Z M46 360 L137 360 L220 560 L34 560 L46 360 Z " />
<glyph glyph-name="upsilontonos" unicode="&#x3cd;" horiz-adv-x="1237" d="M588 0 L744 0 L774 171 L1284 560 L1047 560 L708 286 L462 560 L246 560 L618 171 L588 0 Z M46 360 L137 360 L220 560 L34 560 L46 360 Z " />
<glyph glyph-name="omegatonos" unicode="&#x3ce;" horiz-adv-x="1255" d="M756 0 L1139 0 L1164 135 L1074 135 C1145 193 1175 273 1175 358 C1175 475 1101 568 888 568 L580 568 C307 568 210 423 210 271 C210 220 231 167 260 135 L158 135 L133 0 L516 0 L537 112 C395 123 356 187 356 256 C356 342 428 433 593 433 L836 433 C982 433 1017 377 1017 309 C1017 214 966 133 778 112 L756 0 Z M46 360 L137 360 L220 560 L34 560 L46 360 Z " />
<glyph glyph-name="uni0400" unicode="&#x400;" horiz-adv-x="1150" d="M51 0 L1021 0 L1050 160 L256 160 L275 278 L971 278 L998 422 L302 422 L322 540 L1116 540 L1146 700 L176 700 L51 0 Z M697 946 L511 946 L650 775 L759 775 L697 946 Z " />
<glyph glyph-name="uni0401" unicode="&#x401;" horiz-adv-x="1150" d="M51 0 L1021 0 L1050 160 L256 160 L275 278 L971 278 L998 422 L302 422 L322 540 L1116 540 L1146 700 L176 700 L51 0 Z M727 781 L883 781 L911 937 L755 937 L727 781 Z M439 781 L595 781 L622 937 L466 937 L439 781 Z " />
<glyph glyph-name="uni0402" unicode="&#x402;" horiz-adv-x="1299" d="M683 0 L952 0 C1172 0 1257 112 1257 243 C1257 345 1192 422 1026 422 L512 422 L531 540 L960 540 L990 700 L88 700 L58 540 L355 540 L260 -1 L436 -1 L486 278 L996 278 C1058 278 1070 254 1070 228 C1070 193 1049 160 976 160 L713 160 L683 0 Z " />
<glyph glyph-name="uni0403" unicode="&#x403;" horiz-adv-x="1083" d="M51 0 L227 0 L322 540 L1097 540 L1127 700 L176 700 L51 0 Z M557 775 L677 775 L880 946 L680 946 L557 775 Z " />
<glyph glyph-name="uni0404" unicode="&#x404;" horiz-adv-x="1136" d="M957 278 L984 422 L270 422 C302 486 374 540 528 540 L1102 540 L1131 700 L544 700 C198 700 60 507 60 296 C60 130 161 0 429 0 L1006 0 L1034 160 L458 160 C319 160 266 209 252 278 L957 278 Z " />
<glyph glyph-name="uni0405" unicode="&#x405;" horiz-adv-x="1158" d="M797 160 L71 160 L41 0 L773 0 C989 0 1078 109 1078 243 C1078 345 1013 422 847 422 L347 422 C285 422 273 446 273 472 C273 507 294 540 367 540 L1093 540 L1123 700 L391 700 C175 700 86 591 86 457 C86 355 151 278 316 278 L817 278 C879 278 891 254 891 228 C891 193 870 160 797 160 L797 160 Z " />
<glyph glyph-name="uni0406" unicode="&#x406;" horiz-adv-x="397" d="M51 0 L227 0 L352 700 L176 700 L51 0 Z " />
<glyph glyph-name="uni0407" unicode="&#x407;" horiz-adv-x="397" d="M51 0 L227 0 L352 700 L176 700 L51 0 Z M339 781 L495 781 L523 937 L367 937 L339 781 Z M51 781 L207 781 L234 937 L78 937 L51 781 Z " />
<glyph glyph-name="uni0408" unicode="&#x408;" horiz-adv-x="1181" d="M299 -5 L643 -5 C922 -5 1031 108 1066 304 L1136 700 L960 700 L892 333 C872 219 809 155 666 155 L329 155 C205 155 184 204 198 275 L210 338 L34 338 L22 275 C-7 124 59 -5 299 -5 L299 -5 Z " />
<glyph glyph-name="uni0409" unicode="&#x409;" horiz-adv-x="1786" d="M766 0 L1417 0 C1655 0 1751 120 1751 272 C1751 382 1685 470 1501 470 L1027 470 L1067 700 L347 700 L202 236 C187 189 152 160 93 160 L-8 160 L-38 0 L62 0 C251 0 334 94 367 203 L470 540 L861 540 L766 0 Z M1442 160 L972 160 L997 310 L1467 310 C1546 310 1565 283 1565 247 C1565 201 1533 160 1442 160 L1442 160 Z " />
<glyph glyph-name="uni040A" unicode="&#x40a;" horiz-adv-x="1800" d="M779 0 L1430 0 C1668 0 1764 120 1764 272 C1764 382 1698 470 1514 470 L1040 470 L1081 700 L905 700 L864 470 L312 470 L352 700 L176 700 L51 0 L227 0 L282 310 L835 310 L779 0 Z M1011 310 L1480 310 C1559 310 1578 283 1578 247 C1578 201 1546 160 1455 160 L985 160 L1011 310 Z " />
<glyph glyph-name="uni040B" unicode="&#x40b;" horiz-adv-x="1328" d="M1214 -1 L1249 194 C1272 322 1230 418 1034 418 L511 418 L531 540 L960 540 L990 700 L88 700 L58 540 L355 540 L258 -1 L434 -1 L481 257 L1008 257 C1070 257 1081 233 1072 183 L1038 -1 L1214 -1 Z " />
<glyph glyph-name="uni040C" unicode="&#x40c;" horiz-adv-x="1247" d="M533 775 L653 775 L856 946 L656 946 L533 775 Z M720 356 L1225 700 L943 700 L565 430 L303 430 L352 700 L176 700 L51 0 L227 0 L273 270 L564 270 L919 0 L1191 0 L720 356 Z " />
<glyph glyph-name="uni040D" unicode="&#x40d;" horiz-adv-x="1256" d="M740 946 L554 946 L693 775 L802 775 L740 946 Z M997 494 L910 0 L1086 0 L1211 700 L1039 700 L264 206 L352 700 L176 700 L51 0 L223 0 L997 494 Z " />
<glyph glyph-name="uni040E" unicode="&#x40e;" horiz-adv-x="1209" d="M714 882 C653 882 632 909 636 946 L543 946 C532 867 550 774 697 774 C843 774 895 864 914 946 L818 946 C807 909 773 882 714 882 L714 882 Z M443 0 L1285 700 L1023 700 L609 337 L302 700 L61 700 L478 234 L181 0 L443 0 Z " />
<glyph glyph-name="uni040F" unicode="&#x40f;" horiz-adv-x="1252" d="M935 160 L256 160 L352 700 L176 700 L51 0 L479 0 L451 -150 L627 -150 L655 0 L1082 0 L1207 700 L1031 700 L935 160 Z " />
<glyph glyph-name="uni0410" unicode="&#x410;" horiz-adv-x="1238" d="M971 0 L1177 0 L777 700 L593 700 L-57 0 L165 0 L268 113 L907 113 L971 0 Z M664 548 L827 257 L399 257 L664 548 Z " />
<glyph glyph-name="uni0411" unicode="&#x411;" horiz-adv-x="1185" d="M51 0 L802 0 C1018 0 1107 109 1107 243 C1107 345 1042 422 876 422 L302 422 L322 540 L1097 540 L1127 700 L176 700 L51 0 Z M276 278 L846 278 C908 278 920 254 920 228 C920 193 899 160 826 160 L257 160 L276 278 Z " />
<glyph glyph-name="uni0412" unicode="&#x412;" horiz-adv-x="1208" d="M51 0 L851 0 C1040 0 1114 106 1114 220 C1114 287 1084 343 1006 364 C1089 403 1127 472 1127 554 C1127 636 1073 700 936 700 L176 700 L51 0 Z M852 278 C915 278 931 254 931 229 C931 198 907 160 833 160 L256 160 L275 278 L852 278 Z M936 492 C936 461 913 422 838 422 L302 422 L322 540 L858 540 C921 540 936 520 936 492 L936 492 Z " />
<glyph glyph-name="uni0413" unicode="&#x413;" horiz-adv-x="1083" d="M51 0 L227 0 L322 540 L1097 540 L1127 700 L176 700 L51 0 Z " />
<glyph glyph-name="uni0414" unicode="&#x414;" horiz-adv-x="1200" d="M138 0 L909 0 L881 -150 L1057 -150 L1114 160 L1030 160 L1127 700 L347 700 L202 236 C187 186 161 160 100 160 L-9 160 L-65 -150 L111 -150 L138 0 Z M470 540 L921 540 L854 160 L313 160 C349 184 375 221 388 266 L470 540 Z " />
<glyph glyph-name="uni0415" unicode="&#x415;" horiz-adv-x="1150" d="M51 0 L1021 0 L1050 160 L256 160 L275 278 L971 278 L998 422 L302 422 L322 540 L1116 540 L1146 700 L176 700 L51 0 Z " />
<glyph glyph-name="uni0416" unicode="&#x416;" horiz-adv-x="1574" d="M1167 352 L1580 700 L1330 700 L1022 430 L892 430 L941 700 L765 700 L716 430 L568 430 L357 700 L128 700 L416 352 L-47 0 L219 0 L560 270 L687 270 L640 0 L816 0 L863 270 L1010 270 L1258 0 L1504 0 L1167 352 Z " />
<glyph glyph-name="uni0417" unicode="&#x417;" horiz-adv-x="1217" d="M0 0 L861 0 C1050 0 1124 106 1124 220 C1124 287 1092 343 1015 364 C1097 403 1136 472 1136 554 C1136 636 1082 700 945 700 L145 700 L115 540 L867 540 C930 540 945 520 945 492 C945 461 922 422 848 422 L179 422 L152 278 L862 278 C925 278 941 254 941 229 C941 198 917 160 843 160 L29 160 L0 0 Z " />
<glyph glyph-name="uni0418" unicode="&#x418;" horiz-adv-x="1256" d="M997 494 L910 0 L1086 0 L1211 700 L1039 700 L264 206 L352 700 L176 700 L51 0 L223 0 L997 494 Z " />
<glyph glyph-name="uni0419" unicode="&#x419;" horiz-adv-x="1256" d="M720 882 C659 882 638 909 642 946 L549 946 C538 867 556 774 703 774 C849 774 901 864 920 946 L824 946 C813 909 779 882 720 882 L720 882 Z M997 494 L910 0 L1086 0 L1211 700 L1039 700 L264 206 L352 700 L176 700 L51 0 L223 0 L997 494 Z " />
<glyph glyph-name="uni041A" unicode="&#x41a;" horiz-adv-x="1247" d="M720 356 L1225 700 L943 700 L565 430 L303 430 L352 700 L176 700 L51 0 L227 0 L273 270 L564 270 L919 0 L1191 0 L720 356 Z " />
<glyph glyph-name="uni041B" unicode="&#x41b;" horiz-adv-x="1207" d="M347 700 L202 236 C187 189 152 160 92 160 L-9 160 L-38 0 L62 0 C251 0 334 94 367 203 L470 540 L956 540 L861 0 L1037 0 L1162 700 L347 700 Z " />
<glyph glyph-name="uni041C" unicode="&#x41c;" horiz-adv-x="1398" d="M1174 700 L675 258 L333 700 L176 700 L51 0 L227 0 L306 457 L642 18 L1131 457 L1052 0 L1228 0 L1353 700 L1174 700 Z " />
<glyph glyph-name="uni041D" unicode="&#x41d;" horiz-adv-x="1252" d="M906 0 L1082 0 L1207 700 L1031 700 L983 430 L303 430 L352 700 L176 700 L51 0 L227 0 L273 270 L953 270 L906 0 Z " />
<glyph glyph-name="uni041E" unicode="&#x41e;" horiz-adv-x="1293" d="M735 -10 C1098 -10 1237 178 1237 406 C1237 578 1130 710 858 710 L564 710 C201 710 60 523 60 295 C60 122 170 -10 441 -10 L735 -10 Z M475 150 C301 150 249 222 249 316 C249 424 305 550 552 550 L823 550 C995 550 1048 478 1048 386 C1048 269 985 150 746 150 L475 150 Z " />
<glyph glyph-name="uni041F" unicode="&#x41f;" horiz-adv-x="1252" d="M906 0 L1082 0 L1207 700 L176 700 L51 0 L227 0 L322 540 L1001 540 L906 0 Z " />
<glyph glyph-name="uni0420" unicode="&#x420;" horiz-adv-x="1147" d="M51 0 L227 0 L268 230 L817 230 C1055 230 1151 350 1151 502 C1151 612 1085 700 901 700 L176 700 L51 0 Z M867 540 C946 540 965 513 965 477 C965 431 933 390 842 390 L297 390 L322 540 L867 540 Z " />
<glyph glyph-name="uni0421" unicode="&#x421;" horiz-adv-x="1136" d="M249 318 C249 416 294 540 528 540 L1102 540 L1131 700 L544 700 C198 700 60 507 60 296 C60 130 161 0 429 0 L1006 0 L1034 160 L458 160 C294 160 249 229 249 318 L249 318 Z " />
<glyph glyph-name="uni0422" unicode="&#x422;" horiz-adv-x="1136" d="M58 540 L516 540 L420 0 L596 0 L692 540 L1150 540 L1179 700 L88 700 L58 540 Z " />
<glyph glyph-name="uni0423" unicode="&#x423;" horiz-adv-x="1209" d="M443 0 L1285 700 L1023 700 L609 337 L302 700 L61 700 L478 234 L181 0 L443 0 Z " />
<glyph glyph-name="uni0424" unicode="&#x424;" horiz-adv-x="1252" d="M811 62 C1106 62 1214 217 1214 395 C1214 527 1124 638 909 638 L768 638 L788 750 L612 750 L592 638 L447 638 C154 638 44 479 44 303 C44 169 135 62 349 62 L489 62 L469 -50 L645 -50 L665 62 L811 62 Z M885 478 C1001 478 1025 428 1025 366 C1025 288 953 222 821 222 L695 222 L738 478 L885 478 Z M235 333 C235 409 305 478 437 478 L562 478 L519 222 L374 222 C258 222 235 270 235 333 L235 333 Z " />
<glyph glyph-name="uni0425" unicode="&#x425;" horiz-adv-x="1177" d="M77 700 L461 352 L-53 0 L236 0 L585 259 L844 0 L1113 0 L725 352 L1233 700 L944 700 L599 445 L346 700 L77 700 Z " />
<glyph glyph-name="uni0426" unicode="&#x426;" horiz-adv-x="1245" d="M900 160 L256 160 L352 700 L176 700 L51 0 L954 0 L926 -150 L1102 -150 L1159 160 L1076 160 L1172 700 L996 700 L900 160 Z " />
<glyph glyph-name="uni0427" unicode="&#x427;" horiz-adv-x="1176" d="M118 699 L72 448 C48 319 92 223 287 223 L869 223 L828 -1 L1004 -1 L1131 699 L955 699 L898 384 L313 384 C251 384 240 409 249 457 L294 699 L118 699 Z " />
<glyph glyph-name="uni0428" unicode="&#x428;" horiz-adv-x="1534" d="M1217 160 L824 160 L920 700 L744 700 L648 160 L256 160 L352 700 L176 700 L51 0 L1364 0 L1490 700 L1314 700 L1217 160 Z " />
<glyph glyph-name="uni0429" unicode="&#x429;" horiz-adv-x="1528" d="M1183 160 L807 160 L903 700 L727 700 L631 160 L256 160 L352 700 L176 700 L51 0 L1237 0 L1209 -150 L1385 -150 L1442 160 L1359 160 L1455 700 L1279 700 L1183 160 Z " />
<glyph glyph-name="uni042A" unicode="&#x42a;" horiz-adv-x="1299" d="M561 700 L88 700 L58 540 L355 540 L260 0 L928 0 C1166 0 1262 120 1262 272 C1262 382 1196 470 1012 470 L521 470 L561 700 Z M491 310 L978 310 C1057 310 1076 283 1076 247 C1076 201 1044 160 953 160 L466 160 L491 310 Z " />
<glyph glyph-name="uni042B" unicode="&#x42b;" horiz-adv-x="1538" d="M1198 0 L1374 0 L1499 700 L1323 700 L1198 0 Z M352 700 L176 700 L51 0 L777 0 C1015 0 1111 120 1111 272 C1111 382 1045 470 861 470 L312 470 L352 700 Z M282 310 L827 310 C906 310 925 283 925 247 C925 201 893 160 802 160 L257 160 L282 310 Z " />
<glyph glyph-name="uni042C" unicode="&#x42c;" horiz-adv-x="1147" d="M352 700 L176 700 L51 0 L777 0 C1015 0 1111 120 1111 272 C1111 382 1045 470 861 470 L312 470 L352 700 Z M282 310 L827 310 C906 310 925 283 925 247 C925 201 893 160 802 160 L257 160 L282 310 Z " />
<glyph glyph-name="uni042D" unicode="&#x42d;" horiz-adv-x="1136" d="M156 278 L869 278 C838 213 765 160 612 160 L38 160 L9 0 L596 0 C942 0 1080 193 1080 404 C1080 570 979 700 711 700 L134 700 L106 540 L682 540 C820 540 873 491 887 422 L183 422 L156 278 Z " />
<glyph glyph-name="uni042E" unicode="&#x42e;" horiz-adv-x="1803" d="M1245 -10 C1608 -10 1747 178 1747 406 C1747 578 1640 710 1368 710 L1121 710 C833 710 685 592 636 430 L303 430 L352 700 L176 700 L51 0 L227 0 L273 270 L618 270 C628 109 740 -10 998 -10 L1245 -10 Z M1032 150 C858 150 806 222 806 316 C806 424 862 550 1109 550 L1333 550 C1505 550 1558 478 1558 386 C1558 269 1495 150 1256 150 L1032 150 Z " />
<glyph glyph-name="uni042F" unicode="&#x42f;" horiz-adv-x="1229" d="M1185 700 L469 700 C235 700 135 582 135 432 C135 334 190 254 332 238 L-62 0 L228 0 L596 233 L925 233 L883 0 L1059 0 L1185 700 Z M320 450 C320 499 352 540 449 540 L979 540 L953 387 L417 387 C340 387 320 414 320 450 L320 450 Z " />
<glyph glyph-name="uni0430" unicode="&#x430;" horiz-adv-x="1058" d="M810 0 L996 0 L652 560 L487 560 L-56 0 L142 0 L232 95 L753 95 L810 0 Z M552 432 L683 213 L344 213 L552 432 Z " />
<glyph glyph-name="uni0431" unicode="&#x431;" horiz-adv-x="1017" d="M41 0 L684 0 C875 0 937 92 937 198 C937 278 885 337 745 337 L258 337 L272 425 L926 425 L952 560 L142 560 L41 0 Z M238 223 L716 223 C763 223 774 205 774 187 C774 164 759 135 701 135 L222 135 L238 223 Z " />
<glyph glyph-name="uni0432" unicode="&#x432;" horiz-adv-x="1038" d="M41 0 L726 0 C890 0 944 86 944 174 C944 229 917 274 850 292 C919 324 950 379 950 442 C950 510 908 560 793 560 L140 560 L41 0 Z M221 135 L235 221 L722 221 C770 221 781 209 781 190 C781 167 765 135 707 135 L221 135 Z M722 425 C770 425 781 413 781 394 C781 371 765 339 707 339 L257 339 L271 425 L722 425 Z " />
<glyph glyph-name="uni0433" unicode="&#x433;" horiz-adv-x="944" d="M41 0 L197 0 L271 425 L925 425 L950 560 L140 560 L41 0 Z " />
<glyph glyph-name="uni0434" unicode="&#x434;" horiz-adv-x="1040" d="M131 0 L774 0 L751 -120 L907 -120 L954 135 L883 135 L958 560 L294 560 L175 186 C164 152 144 135 95 135 L-1 135 L-48 -120 L108 -120 L131 0 Z M404 425 L777 425 L727 135 L286 135 C314 157 332 192 343 227 L404 425 Z " />
<glyph glyph-name="uni0435" unicode="&#x435;" horiz-adv-x="990" d="M41 0 L867 0 L891 135 L221 135 L235 221 L820 221 L842 339 L257 339 L271 425 L941 425 L966 560 L140 560 L41 0 Z " />
<glyph glyph-name="uni0436" unicode="&#x436;" horiz-adv-x="1352" d="M994 281 L1335 560 L1124 560 L876 348 L757 348 L793 560 L639 560 L602 348 L483 348 L309 560 L98 560 L339 281 L-43 0 L183 0 L459 212 L576 212 L539 0 L694 0 L731 212 L849 212 L1052 0 L1278 0 L994 281 Z " />
<glyph glyph-name="uni0437" unicode="&#x437;" horiz-adv-x="1041" d="M20 135 L-5 0 L731 0 C895 0 949 86 949 174 C949 229 922 274 855 292 C924 324 955 379 955 442 C955 510 913 560 798 560 L113 560 L87 425 L727 425 C775 425 786 413 786 394 C786 371 770 339 712 339 L144 339 L122 221 L727 221 C775 221 786 209 786 190 C786 167 770 135 712 135 L20 135 Z " />
<glyph glyph-name="uni0438" unicode="&#x438;" horiz-adv-x="1083" d="M834 386 L767 0 L923 0 L1022 560 L865 560 L229 174 L296 560 L140 560 L41 0 L198 0 L834 386 Z " />
<glyph glyph-name="uni0439" unicode="&#x439;" horiz-adv-x="1083" d="M610 742 C549 742 528 769 532 806 L439 806 C428 727 446 634 593 634 C739 634 791 724 810 806 L714 806 C703 769 669 742 610 742 L610 742 Z M834 386 L767 0 L923 0 L1022 560 L865 560 L229 174 L296 560 L140 560 L41 0 L198 0 L834 386 Z " />
<glyph glyph-name="uni043A" unicode="&#x43a;" horiz-adv-x="1075" d="M614 285 L1033 560 L781 560 L475 348 L260 348 L296 560 L140 560 L41 0 L197 0 L234 212 L471 212 L762 0 L1012 0 L614 285 Z " />
<glyph glyph-name="uni043B" unicode="&#x43b;" horiz-adv-x="1049" d="M988 560 L294 560 L176 190 C164 151 134 135 90 135 L-1 135 L-25 0 L82 0 C225 0 292 69 322 164 L404 425 L807 425 L733 0 L889 0 L988 560 Z " />
<glyph glyph-name="uni043C" unicode="&#x43c;" horiz-adv-x="1203" d="M984 560 L572 216 L280 560 L140 560 L41 0 L197 0 L259 354 L544 13 L949 354 L887 0 L1043 0 L1142 560 L984 560 Z " />
<glyph glyph-name="uni043D" unicode="&#x43d;" horiz-adv-x="1079" d="M763 0 L919 0 L1018 560 L862 560 L825 348 L260 348 L296 560 L140 560 L41 0 L197 0 L234 212 L799 212 L763 0 Z " />
<glyph glyph-name="uni043E" unicode="&#x43e;" horiz-adv-x="1106" d="M623 -8 C928 -8 1040 152 1043 326 C1046 461 961 568 727 568 L463 568 C158 568 47 408 44 234 C41 99 124 -8 359 -8 L623 -8 Z M386 127 C246 127 209 181 210 250 C211 335 276 433 439 433 L701 433 C840 433 877 379 877 310 C877 228 812 127 648 127 L386 127 Z " />
<glyph glyph-name="uni043F" unicode="&#x43f;" horiz-adv-x="1079" d="M763 0 L919 0 L1018 560 L140 560 L41 0 L197 0 L271 425 L837 425 L763 0 Z " />
<glyph glyph-name="uni0440" unicode="&#x440;" horiz-adv-x="996" d="M41 0 L197 0 L228 180 L693 180 C900 180 972 287 972 398 C972 488 917 560 761 560 L140 560 L41 0 Z M732 425 C793 425 806 406 806 380 C806 350 789 316 713 316 L253 316 L271 425 L732 425 Z " />
<glyph glyph-name="uni0441" unicode="&#x441;" horiz-adv-x="972" d="M211 250 C211 340 285 425 443 425 L926 425 L952 560 L452 560 C151 560 44 400 44 232 C44 102 126 0 351 0 L851 0 L876 135 L368 135 C248 135 211 178 211 250 L211 250 Z " />
<glyph glyph-name="uni0442" unicode="&#x442;" horiz-adv-x="996" d="M49 425 L435 425 L361 0 L517 0 L591 425 L977 425 L1002 560 L74 560 L49 425 Z " />
<glyph glyph-name="uni0443" unicode="&#x443;" horiz-adv-x="1028" d="M373 0 L1077 560 L843 560 L509 278 L249 560 L35 560 L391 189 L139 0 L373 0 Z " />
<glyph glyph-name="uni0444" unicode="&#x444;" horiz-adv-x="1081" d="M691 50 C945 50 1029 177 1029 318 C1029 424 960 510 772 510 L650 510 L666 600 L510 600 L494 510 L372 510 C122 510 34 380 34 241 C34 133 103 50 291 50 L412 50 L395 -40 L551 -40 L568 50 L691 50 Z M751 375 C840 375 862 342 862 299 C862 242 817 185 709 185 L593 185 L625 375 L751 375 Z M311 185 C222 185 200 218 200 261 C200 318 245 375 353 375 L469 375 L437 185 L311 185 Z " />
<glyph glyph-name="uni0445" unicode="&#x445;" horiz-adv-x="1017" d="M56 560 L383 282 L-47 0 L210 0 L495 199 L710 0 L946 0 L614 282 L1042 560 L784 560 L505 363 L293 560 L56 560 Z " />
<glyph glyph-name="uni0446" unicode="&#x446;" horiz-adv-x="1070" d="M757 135 L221 135 L296 560 L140 560 L41 0 L804 0 L781 -120 L937 -120 L984 135 L913 135 L988 560 L832 560 L757 135 Z " />
<glyph glyph-name="uni0447" unicode="&#x447;" horiz-adv-x="1013" d="M752 310 L251 310 C215 310 205 331 212 364 L245 559 L89 559 L53 352 C34 249 71 175 222 175 L727 175 L695 -1 L851 -1 L952 559 L796 559 L752 310 Z " />
<glyph glyph-name="uni0448" unicode="&#x448;" horiz-adv-x="1319" d="M1028 135 L701 135 L777 560 L621 560 L546 135 L221 135 L296 560 L140 560 L41 0 L1159 0 L1258 560 L1103 560 L1028 135 Z " />
<glyph glyph-name="uni0449" unicode="&#x449;" horiz-adv-x="1311" d="M998 135 L687 135 L762 560 L606 560 L531 135 L221 135 L296 560 L140 560 L41 0 L1045 0 L1022 -120 L1178 -120 L1225 135 L1154 135 L1229 560 L1073 560 L998 135 Z " />
<glyph glyph-name="uni044A" unicode="&#x44a;" horiz-adv-x="1134" d="M227 0 L798 0 C1005 0 1077 107 1077 218 C1077 308 1022 380 866 380 L451 380 L482 560 L74 560 L49 425 L302 425 L227 0 Z M426 244 L837 244 C898 244 911 225 911 199 C911 169 894 135 818 135 L407 135 L426 244 Z " />
<glyph glyph-name="uni044B" unicode="&#x44b;" horiz-adv-x="1348" d="M1037 0 L1193 0 L1292 560 L1136 560 L1037 0 Z M41 0 L661 0 C868 0 940 107 940 218 C940 308 885 380 729 380 L265 380 L296 560 L140 560 L41 0 Z M681 135 L221 135 L240 244 L700 244 C761 244 774 225 774 199 C774 169 757 135 681 135 L681 135 Z " />
<glyph glyph-name="uni044C" unicode="&#x44c;" horiz-adv-x="996" d="M41 0 L661 0 C868 0 940 107 940 218 C940 308 885 380 729 380 L265 380 L296 560 L140 560 L41 0 Z M681 135 L221 135 L240 244 L700 244 C761 244 774 225 774 199 C774 169 757 135 681 135 L681 135 Z " />
<glyph glyph-name="uni044D" unicode="&#x44d;" horiz-adv-x="973" d="M128 221 L715 221 C681 171 613 135 511 135 L28 135 L2 0 L502 0 C803 0 910 160 910 328 C910 458 828 560 603 560 L103 560 L78 425 L586 425 C689 425 730 393 740 339 L150 339 L128 221 Z " />
<glyph glyph-name="uni044E" unicode="&#x44e;" horiz-adv-x="1544" d="M1061 -8 C1366 -8 1478 152 1481 326 C1484 461 1399 568 1165 568 L941 568 C705 568 585 472 541 348 L260 348 L296 560 L140 560 L41 0 L197 0 L234 212 L522 212 C528 87 615 -8 837 -8 L1061 -8 Z M864 127 C724 127 687 181 688 250 C689 335 754 433 917 433 L1139 433 C1278 433 1315 379 1315 310 C1315 228 1250 127 1086 127 L864 127 Z " />
<glyph glyph-name="uni044F" unicode="&#x44f;" horiz-adv-x="1061" d="M1002 560 L387 560 C180 560 108 453 108 338 C108 262 160 201 270 188 L-53 0 L207 0 L509 183 L777 183 L745 0 L901 0 L1002 560 Z M820 425 L801 313 L349 313 C286 313 273 335 273 359 C273 389 293 425 369 425 L820 425 Z " />
<glyph glyph-name="uni0450" unicode="&#x450;" horiz-adv-x="990" d="M41 0 L867 0 L891 135 L221 135 L235 221 L820 221 L842 339 L257 339 L271 425 L941 425 L966 560 L140 560 L41 0 Z M594 806 L408 806 L547 635 L656 635 L594 806 Z " />
<glyph glyph-name="uni0451" unicode="&#x451;" horiz-adv-x="990" d="M41 0 L867 0 L891 135 L221 135 L235 221 L820 221 L842 339 L257 339 L271 425 L941 425 L966 560 L140 560 L41 0 Z M624 641 L780 641 L808 797 L652 797 L624 641 Z M336 641 L492 641 L519 797 L363 797 L336 641 Z " />
<glyph glyph-name="uni0452" unicode="&#x452;" horiz-adv-x="1134" d="M589 0 L821 0 C1012 0 1074 92 1074 198 C1074 278 1022 337 882 337 L444 337 L458 425 L818 425 L844 560 L76 560 L50 425 L303 425 L227 -1 L383 -1 L424 223 L853 223 C900 223 911 205 911 187 C911 164 896 135 838 135 L614 135 L589 0 Z " />
<glyph glyph-name="uni0453" unicode="&#x453;" horiz-adv-x="944" d="M41 0 L197 0 L271 425 L925 425 L950 560 L140 560 L41 0 Z M461 635 L581 635 L784 806 L584 806 L461 635 Z " />
<glyph glyph-name="uni0454" unicode="&#x454;" horiz-adv-x="973" d="M804 221 L826 339 L238 339 C273 389 340 425 443 425 L926 425 L952 560 L452 560 C151 560 44 400 44 232 C44 102 126 0 351 0 L851 0 L876 135 L368 135 C265 135 223 166 213 221 L804 221 Z " />
<glyph glyph-name="uni0455" unicode="&#x455;" horiz-adv-x="989" d="M672 135 L53 135 L28 0 L655 0 C846 0 908 92 908 198 C908 278 856 337 716 337 L283 337 C236 337 225 355 225 373 C225 397 240 425 298 425 L917 425 L943 560 L316 560 C124 560 62 468 62 363 C62 282 114 223 254 223 L687 223 C734 223 745 205 745 187 C745 164 730 135 672 135 L672 135 Z " />
<glyph glyph-name="uni0456" unicode="&#x456;" horiz-adv-x="357" d="M41 0 L197 0 L296 560 L140 560 L41 0 Z " />
<glyph glyph-name="uni0457" unicode="&#x457;" horiz-adv-x="357" d="M41 0 L197 0 L296 560 L140 560 L41 0 Z M295 641 L451 641 L479 797 L323 797 L295 641 Z M7 641 L163 641 L190 797 L34 797 L7 641 Z " />
<glyph glyph-name="uni0458" unicode="&#x458;" horiz-adv-x="998" d="M247 -4 L554 -4 C774 -4 872 85 900 243 L957 560 L801 560 L746 260 C730 173 678 131 563 131 L257 131 C168 131 158 171 166 220 L175 272 L21 272 L12 220 C-9 97 39 -4 247 -4 L247 -4 Z " />
<glyph glyph-name="uni0459" unicode="&#x459;" horiz-adv-x="1548" d="M910 560 L294 560 L176 190 C164 151 134 135 90 135 L-1 135 L-25 0 L82 0 C225 0 292 69 322 164 L404 425 L729 425 L655 0 L1213 0 C1420 0 1492 107 1492 218 C1492 308 1437 380 1281 380 L879 380 L910 560 Z M1233 135 L835 135 L854 244 L1252 244 C1313 244 1326 225 1326 199 C1326 169 1309 135 1233 135 L1233 135 Z " />
<glyph glyph-name="uni045A" unicode="&#x45a;" horiz-adv-x="1551" d="M658 0 L1216 0 C1423 0 1495 107 1495 218 C1495 308 1440 380 1284 380 L882 380 L913 560 L757 560 L726 380 L265 380 L296 560 L140 560 L41 0 L197 0 L240 244 L701 244 L658 0 Z M857 244 L1255 244 C1316 244 1329 225 1329 199 C1329 169 1312 135 1236 135 L838 135 L857 244 Z " />
<glyph glyph-name="uni045B" unicode="&#x45b;" horiz-adv-x="1150" d="M418 201 L871 201 C907 201 917 180 910 147 L883 -1 L1039 -1 L1069 159 C1088 262 1051 336 900 336 L443 336 L457 425 L817 425 L842 560 L74 560 L49 425 L302 425 L225 -1 L381 -1 L418 201 Z " />
<glyph glyph-name="uni045C" unicode="&#x45c;" horiz-adv-x="1075" d="M426 635 L546 635 L749 806 L549 806 L426 635 Z M614 285 L1033 560 L781 560 L475 348 L260 348 L296 560 L140 560 L41 0 L197 0 L234 212 L471 212 L762 0 L1012 0 L614 285 Z " />
<glyph glyph-name="uni045D" unicode="&#x45d;" horiz-adv-x="1083" d="M630 806 L444 806 L583 635 L692 635 L630 806 Z M834 386 L767 0 L923 0 L1022 560 L865 560 L229 174 L296 560 L140 560 L41 0 L198 0 L834 386 Z " />
<glyph glyph-name="uni045E" unicode="&#x45e;" horiz-adv-x="1028" d="M597 742 C536 742 515 769 519 806 L426 806 C415 727 433 634 580 634 C726 634 778 724 797 806 L701 806 C690 769 656 742 597 742 L597 742 Z M373 0 L1077 560 L843 560 L509 278 L249 560 L35 560 L391 189 L139 0 L373 0 Z " />
<glyph glyph-name="uni045F" unicode="&#x45f;" horiz-adv-x="1079" d="M787 135 L221 135 L296 560 L140 560 L41 0 L403 0 L379 -120 L535 -120 L558 0 L919 0 L1018 560 L862 560 L787 135 Z " />
<glyph glyph-name="uni0490" unicode="&#x490;" horiz-adv-x="1083" d="M951 700 L176 700 L51 0 L227 0 L322 540 L1097 540 L1153 850 L977 850 L951 700 Z " />
<glyph glyph-name="uni0491" unicode="&#x491;" horiz-adv-x="944" d="M794 560 L140 560 L41 0 L197 0 L271 425 L925 425 L971 680 L815 680 L794 560 Z " />
<glyph glyph-name="uni1E00" unicode="&#x1e00;" horiz-adv-x="1238" d="M971 0 L1177 0 L777 700 L593 700 L-57 0 L165 0 L268 113 L907 113 L971 0 Z M664 548 L827 257 L399 257 L664 548 Z M494 -163 C494 -141 514 -124 535 -124 C553 -124 567 -139 567 -157 C567 -179 547 -196 527 -196 C508 -196 494 -181 494 -163 L494 -163 Z M397 -168 C397 -230 443 -278 519 -278 C602 -278 665 -221 665 -150 C665 -89 617 -42 543 -42 C459 -42 397 -98 397 -168 L397 -168 Z " />
<glyph glyph-name="uni1E01" unicode="&#x1e01;" horiz-adv-x="1058" d="M810 0 L996 0 L652 560 L487 560 L-56 0 L142 0 L232 95 L753 95 L810 0 Z M552 432 L683 213 L344 213 L552 432 Z M403 -163 C403 -141 423 -124 444 -124 C462 -124 476 -139 476 -157 C476 -179 456 -196 436 -196 C417 -196 403 -181 403 -163 L403 -163 Z M306 -168 C306 -230 352 -278 428 -278 C511 -278 574 -221 574 -150 C574 -89 526 -42 452 -42 C368 -42 306 -98 306 -168 L306 -168 Z " />
<glyph glyph-name="uni1E02" unicode="&#x1e02;" horiz-adv-x="1208" d="M51 0 L851 0 C1040 0 1114 106 1114 220 C1114 287 1084 343 1006 364 C1089 403 1127 472 1127 554 C1127 636 1073 700 936 700 L176 700 L51 0 Z M852 278 C915 278 931 254 931 229 C931 198 907 160 833 160 L256 160 L275 278 L852 278 Z M936 492 C936 461 913 422 838 422 L302 422 L322 540 L858 540 C921 540 936 520 936 492 L936 492 Z M581 781 L735 781 L763 937 L609 937 L581 781 Z " />
<glyph glyph-name="uni1E03" unicode="&#x1e03;" horiz-adv-x="1038" d="M41 0 L726 0 C890 0 944 86 944 174 C944 229 917 274 850 292 C919 324 950 379 950 442 C950 510 908 560 793 560 L140 560 L41 0 Z M221 135 L235 221 L722 221 C770 221 781 209 781 190 C781 167 765 135 707 135 L221 135 Z M722 425 C770 425 781 413 781 394 C781 371 765 339 707 339 L257 339 L271 425 L722 425 Z M472 641 L626 641 L654 797 L500 797 L472 641 Z " />
<glyph glyph-name="uni1E04" unicode="&#x1e04;" horiz-adv-x="1208" d="M51 0 L851 0 C1040 0 1114 106 1114 220 C1114 287 1084 343 1006 364 C1089 403 1127 472 1127 554 C1127 636 1073 700 936 700 L176 700 L51 0 Z M852 278 C915 278 931 254 931 229 C931 198 907 160 833 160 L256 160 L275 278 L852 278 Z M936 492 C936 461 913 422 838 422 L302 422 L322 540 L858 540 C921 540 936 520 936 492 L936 492 Z M440 -240 L594 -240 L622 -84 L468 -84 L440 -240 Z " />
<glyph glyph-name="uni1E05" unicode="&#x1e05;" horiz-adv-x="1038" d="M41 0 L726 0 C890 0 944 86 944 174 C944 229 917 274 850 292 C919 324 950 379 950 442 C950 510 908 560 793 560 L140 560 L41 0 Z M221 135 L235 221 L722 221 C770 221 781 209 781 190 C781 167 765 135 707 135 L221 135 Z M722 425 C770 425 781 413 781 394 C781 371 765 339 707 339 L257 339 L271 425 L722 425 Z M354 -240 L508 -240 L536 -84 L382 -84 L354 -240 Z " />
<glyph glyph-name="uni1E06" unicode="&#x1e06;" horiz-adv-x="1208" d="M51 0 L851 0 C1040 0 1114 106 1114 220 C1114 287 1084 343 1006 364 C1089 403 1127 472 1127 554 C1127 636 1073 700 936 700 L176 700 L51 0 Z M852 278 C915 278 931 254 931 229 C931 198 907 160 833 160 L256 160 L275 278 L852 278 Z M936 492 C936 461 913 422 838 422 L302 422 L322 540 L858 540 C921 540 936 520 936 492 L936 492 Z M333 -217 L709 -217 L729 -105 L353 -105 L333 -217 Z " />
<glyph glyph-name="uni1E07" unicode="&#x1e07;" horiz-adv-x="1038" d="M41 0 L726 0 C890 0 944 86 944 174 C944 229 917 274 850 292 C919 324 950 379 950 442 C950 510 908 560 793 560 L140 560 L41 0 Z M221 135 L235 221 L722 221 C770 221 781 209 781 190 C781 167 765 135 707 135 L221 135 Z M722 425 C770 425 781 413 781 394 C781 371 765 339 707 339 L257 339 L271 425 L722 425 Z M247 -217 L623 -217 L643 -105 L267 -105 L247 -217 Z " />
<glyph glyph-name="uni1E08" unicode="&#x1e08;" horiz-adv-x="1136" d="M458 -139 L499 -139 C541 -139 563 -146 563 -169 C563 -208 513 -215 466 -215 C431 -215 399 -204 384 -191 L369 -267 C395 -282 442 -297 493 -296 C583 -295 681 -269 681 -161 C681 -92 612 -65 547 -71 L580 0 L1006 0 L1034 160 L458 160 C294 160 249 229 249 318 C249 416 294 540 528 540 L1102 540 L1131 700 L544 700 C198 700 60 507 60 296 C60 130 161 0 429 0 L519 0 L458 -139 Z M588 775 L708 775 L911 946 L711 946 L588 775 Z " />
<glyph glyph-name="uni1E09" unicode="&#x1e09;" horiz-adv-x="972" d="M367 -139 L408 -139 C450 -139 472 -146 472 -169 C472 -208 422 -215 375 -215 C340 -215 308 -204 293 -191 L278 -267 C304 -282 351 -297 402 -296 C492 -295 590 -269 590 -161 C590 -92 521 -65 456 -71 L489 0 L851 0 L876 135 L368 135 C248 135 211 178 211 250 C211 340 285 425 443 425 L926 425 L952 560 L452 560 C151 560 44 400 44 232 C44 102 126 0 351 0 L428 0 L367 -139 Z M473 635 L593 635 L796 806 L596 806 L473 635 Z " />
<glyph glyph-name="uni1E0A" unicode="&#x1e0a;" horiz-adv-x="1204" d="M51 0 L664 0 C1008 0 1147 193 1147 404 C1147 570 1046 700 778 700 L176 700 L51 0 Z M749 540 C913 540 958 471 958 382 C958 284 913 160 679 160 L253 160 L320 540 L749 540 Z M589 781 L743 781 L771 937 L617 937 L589 781 Z " />
<glyph glyph-name="uni1E0B" unicode="&#x1e0b;" horiz-adv-x="1035" d="M41 0 L565 0 C866 0 973 160 973 328 C973 457 889 560 666 560 L142 560 L41 0 Z M649 425 C769 425 806 382 806 310 C806 220 732 135 574 135 L222 135 L272 425 L649 425 Z M486 641 L640 641 L668 797 L514 797 L486 641 Z " />
<glyph glyph-name="uni1E0C" unicode="&#x1e0c;" horiz-adv-x="1204" d="M51 0 L664 0 C1008 0 1147 193 1147 404 C1147 570 1046 700 778 700 L176 700 L51 0 Z M749 540 C913 540 958 471 958 382 C958 284 913 160 679 160 L253 160 L320 540 L749 540 Z M409 -240 L563 -240 L591 -84 L437 -84 L409 -240 Z " />
<glyph glyph-name="uni1E0D" unicode="&#x1e0d;" horiz-adv-x="1035" d="M41 0 L565 0 C866 0 973 160 973 328 C973 457 889 560 666 560 L142 560 L41 0 Z M649 425 C769 425 806 382 806 310 C806 220 732 135 574 135 L222 135 L272 425 L649 425 Z M330 -240 L484 -240 L512 -84 L358 -84 L330 -240 Z " />
<glyph glyph-name="uni1E0E" unicode="&#x1e0e;" horiz-adv-x="1204" d="M51 0 L664 0 C1008 0 1147 193 1147 404 C1147 570 1046 700 778 700 L176 700 L51 0 Z M749 540 C913 540 958 471 958 382 C958 284 913 160 679 160 L253 160 L320 540 L749 540 Z M302 -217 L678 -217 L698 -105 L322 -105 L302 -217 Z " />
<glyph glyph-name="uni1E0F" unicode="&#x1e0f;" horiz-adv-x="1035" d="M41 0 L565 0 C866 0 973 160 973 328 C973 457 889 560 666 560 L142 560 L41 0 Z M649 425 C769 425 806 382 806 310 C806 220 732 135 574 135 L222 135 L272 425 L649 425 Z M223 -217 L599 -217 L619 -105 L243 -105 L223 -217 Z " />
<glyph glyph-name="uni1E10" unicode="&#x1e10;" horiz-adv-x="1204" d="M51 0 L664 0 C1008 0 1147 193 1147 404 C1147 570 1046 700 778 700 L176 700 L51 0 Z M749 540 C913 540 958 471 958 382 C958 284 913 160 679 160 L253 160 L320 540 L749 540 Z M412 -240 L464 -240 L367 -376 L441 -376 L565 -226 L590 -84 L440 -84 L412 -240 Z " />
<glyph glyph-name="uni1E11" unicode="&#x1e11;" horiz-adv-x="1035" d="M41 0 L565 0 C866 0 973 160 973 328 C973 457 889 560 666 560 L142 560 L41 0 Z M649 425 C769 425 806 382 806 310 C806 220 732 135 574 135 L222 135 L272 425 L649 425 Z M332 -240 L384 -240 L287 -376 L361 -376 L485 -226 L510 -84 L360 -84 L332 -240 Z " />
<glyph glyph-name="uni1E12" unicode="&#x1e12;" horiz-adv-x="1204" d="M51 0 L664 0 C1008 0 1147 193 1147 404 C1147 570 1046 700 778 700 L176 700 L51 0 Z M749 540 C913 540 958 471 958 382 C958 284 913 160 679 160 L253 160 L320 540 L749 540 Z M278 -246 L393 -246 L502 -158 L578 -246 L688 -246 L613 -75 L415 -75 L278 -246 Z " />
<glyph glyph-name="uni1E13" unicode="&#x1e13;" horiz-adv-x="1035" d="M41 0 L565 0 C866 0 973 160 973 328 C973 457 889 560 666 560 L142 560 L41 0 Z M649 425 C769 425 806 382 806 310 C806 220 732 135 574 135 L222 135 L272 425 L649 425 Z M199 -246 L314 -246 L423 -158 L499 -246 L609 -246 L534 -75 L336 -75 L199 -246 Z " />
<glyph glyph-name="uni1E14" unicode="&#x1e14;" horiz-adv-x="1150" d="M51 0 L1021 0 L1050 160 L256 160 L275 278 L971 278 L998 422 L302 422 L322 540 L1116 540 L1146 700 L176 700 L51 0 Z M732 1146 L546 1146 L685 975 L794 975 L732 1146 Z M479 804 L855 804 L875 916 L499 916 L479 804 Z " />
<glyph glyph-name="uni1E15" unicode="&#x1e15;" horiz-adv-x="990" d="M41 0 L867 0 L891 135 L221 135 L235 221 L820 221 L842 339 L257 339 L271 425 L941 425 L966 560 L140 560 L41 0 Z M629 1006 L443 1006 L582 835 L691 835 L629 1006 Z M376 664 L752 664 L772 776 L396 776 L376 664 Z " />
<glyph glyph-name="uni1E16" unicode="&#x1e16;" horiz-adv-x="1150" d="M51 0 L1021 0 L1050 160 L256 160 L275 278 L971 278 L998 422 L302 422 L322 540 L1116 540 L1146 700 L176 700 L51 0 Z M592 975 L712 975 L915 1146 L715 1146 L592 975 Z M479 804 L855 804 L875 916 L499 916 L479 804 Z " />
<glyph glyph-name="uni1E17" unicode="&#x1e17;" horiz-adv-x="990" d="M41 0 L867 0 L891 135 L221 135 L235 221 L820 221 L842 339 L257 339 L271 425 L941 425 L966 560 L140 560 L41 0 Z M489 835 L609 835 L812 1006 L612 1006 L489 835 Z M376 664 L752 664 L772 776 L396 776 L376 664 Z " />
<glyph glyph-name="uni1E18" unicode="&#x1e18;" horiz-adv-x="1150" d="M51 0 L1021 0 L1050 160 L256 160 L275 278 L971 278 L998 422 L302 422 L322 540 L1116 540 L1146 700 L176 700 L51 0 Z M275 -246 L390 -246 L499 -158 L575 -246 L685 -246 L610 -75 L412 -75 L275 -246 Z " />
<glyph glyph-name="uni1E19" unicode="&#x1e19;" horiz-adv-x="990" d="M41 0 L867 0 L891 135 L221 135 L235 221 L820 221 L842 339 L257 339 L271 425 L941 425 L966 560 L140 560 L41 0 Z M196 -246 L311 -246 L420 -158 L496 -246 L606 -246 L531 -75 L333 -75 L196 -246 Z " />
<glyph glyph-name="uni1E1A" unicode="&#x1e1a;" horiz-adv-x="1150" d="M51 0 L1021 0 L1050 160 L256 160 L275 278 L971 278 L998 422 L302 422 L322 540 L1116 540 L1146 700 L176 700 L51 0 Z M609 -75 C603 -109 591 -122 571 -122 C539 -122 501 -81 441 -81 C373 -81 322 -124 297 -247 L383 -247 C388 -214 399 -200 420 -200 C451 -200 489 -242 549 -242 C618 -242 669 -199 695 -75 L609 -75 Z " />
<glyph glyph-name="uni1E1B" unicode="&#x1e1b;" horiz-adv-x="990" d="M41 0 L867 0 L891 135 L221 135 L235 221 L820 221 L842 339 L257 339 L271 425 L941 425 L966 560 L140 560 L41 0 Z M530 -75 C524 -109 512 -122 492 -122 C460 -122 422 -81 362 -81 C294 -81 243 -124 218 -247 L304 -247 C309 -214 320 -200 341 -200 C372 -200 410 -242 470 -242 C539 -242 590 -199 616 -75 L530 -75 Z " />
<glyph glyph-name="uni1E1C" unicode="&#x1e1c;" horiz-adv-x="1150" d="M51 0 L489 0 L428 -139 L469 -139 C511 -139 533 -146 533 -169 C533 -208 483 -215 436 -215 C401 -215 369 -204 354 -191 L339 -267 C365 -282 412 -297 463 -296 C553 -295 651 -269 651 -161 C651 -92 582 -65 517 -71 L550 0 L1021 0 L1050 160 L256 160 L275 278 L971 278 L998 422 L302 422 L322 540 L1116 540 L1146 700 L176 700 L51 0 Z M677 882 C616 882 595 909 599 946 L506 946 C495 867 513 774 660 774 C806 774 858 864 877 946 L781 946 C770 909 736 882 677 882 L677 882 Z " />
<glyph glyph-name="uni1E1D" unicode="&#x1e1d;" horiz-adv-x="990" d="M41 0 L410 0 L349 -139 L390 -139 C432 -139 454 -146 454 -169 C454 -208 404 -215 357 -215 C322 -215 290 -204 275 -191 L260 -267 C286 -282 333 -297 384 -296 C474 -295 572 -269 572 -161 C572 -92 503 -65 438 -71 L471 0 L867 0 L891 135 L221 135 L235 221 L820 221 L842 339 L257 339 L271 425 L941 425 L966 560 L140 560 L41 0 Z M575 742 C514 742 493 769 497 806 L404 806 C393 727 411 634 558 634 C704 634 756 724 775 806 L679 806 C668 769 634 742 575 742 L575 742 Z " />
<glyph glyph-name="uni1E1E" unicode="&#x1e1e;" horiz-adv-x="1112" d="M51 0 L227 0 L272 258 L968 258 L997 418 L301 418 L322 540 L1116 540 L1146 700 L176 700 L51 0 Z M576 781 L730 781 L758 937 L604 937 L576 781 Z " />
<glyph glyph-name="uni1E1F" unicode="&#x1e1f;" horiz-adv-x="973" d="M41 0 L197 0 L232 202 L817 202 L842 337 L257 337 L271 425 L941 425 L966 560 L140 560 L41 0 Z M479 641 L633 641 L661 797 L507 797 L479 641 Z " />
<glyph glyph-name="uni1E20" unicode="&#x1e20;" horiz-adv-x="1205" d="M620 278 L938 278 L918 160 L458 160 C294 160 249 229 249 318 C249 416 293 540 528 540 L1102 540 L1131 700 L544 700 C198 700 60 507 60 296 C60 130 161 0 429 0 L1059 0 L1134 422 L647 422 L620 278 Z M519 804 L895 804 L915 916 L539 916 L519 804 Z " />
<glyph glyph-name="uni1E21" unicode="&#x1e21;" horiz-adv-x="1034" d="M351 0 L895 0 L954 339 L539 339 L516 221 L780 221 L767 135 L368 135 C248 135 211 178 211 250 C211 340 285 425 443 425 L925 425 L950 560 L452 560 C151 560 44 400 44 232 C44 102 126 0 351 0 L351 0 Z M398 664 L774 664 L794 776 L418 776 L398 664 Z " />
<glyph glyph-name="uni1E22" unicode="&#x1e22;" horiz-adv-x="1252" d="M906 0 L1082 0 L1207 700 L1031 700 L983 430 L303 430 L352 700 L176 700 L51 0 L227 0 L273 270 L953 270 L906 0 Z M627 781 L781 781 L809 937 L655 937 L627 781 Z " />
<glyph glyph-name="uni1E23" unicode="&#x1e23;" horiz-adv-x="1079" d="M763 0 L919 0 L1018 560 L862 560 L825 348 L260 348 L296 560 L140 560 L41 0 L197 0 L234 212 L799 212 L763 0 Z M517 641 L671 641 L699 797 L545 797 L517 641 Z " />
<glyph glyph-name="uni1E24" unicode="&#x1e24;" horiz-adv-x="1252" d="M906 0 L1082 0 L1207 700 L1031 700 L983 430 L303 430 L352 700 L176 700 L51 0 L227 0 L273 270 L953 270 L906 0 Z M447 -240 L601 -240 L629 -84 L475 -84 L447 -240 Z " />
<glyph glyph-name="uni1E25" unicode="&#x1e25;" horiz-adv-x="1079" d="M763 0 L919 0 L1018 560 L862 560 L825 348 L260 348 L296 560 L140 560 L41 0 L197 0 L234 212 L799 212 L763 0 Z M361 -240 L515 -240 L543 -84 L389 -84 L361 -240 Z " />
<glyph glyph-name="uni1E26" unicode="&#x1e26;" horiz-adv-x="1252" d="M906 0 L1082 0 L1207 700 L1031 700 L983 430 L303 430 L352 700 L176 700 L51 0 L227 0 L273 270 L953 270 L906 0 Z M768 781 L924 781 L952 937 L796 937 L768 781 Z M480 781 L636 781 L663 937 L507 937 L480 781 Z " />
<glyph glyph-name="uni1E27" unicode="&#x1e27;" horiz-adv-x="1079" d="M763 0 L919 0 L1018 560 L862 560 L825 348 L260 348 L296 560 L140 560 L41 0 L197 0 L234 212 L799 212 L763 0 Z M658 641 L814 641 L842 797 L686 797 L658 641 Z M370 641 L526 641 L553 797 L397 797 L370 641 Z " />
<glyph glyph-name="uni1E28" unicode="&#x1e28;" horiz-adv-x="1252" d="M38 -139 L79 -139 C121 -139 143 -146 143 -169 C143 -208 93 -215 46 -215 C11 -215 -21 -204 -36 -191 L-51 -267 C-25 -282 22 -297 73 -296 C163 -295 261 -269 261 -161 C261 -92 192 -65 127 -71 L160 0 L227 0 L273 270 L953 270 L906 0 L1082 0 L1207 700 L1031 700 L983 430 L303 430 L352 700 L176 700 L51 0 L99 0 L38 -139 Z " />
<glyph glyph-name="uni1E29" unicode="&#x1e29;" horiz-adv-x="1079" d="M19 -139 L60 -139 C102 -139 124 -146 124 -169 C124 -208 74 -215 27 -215 C-8 -215 -40 -204 -55 -191 L-70 -267 C-44 -282 3 -297 54 -296 C144 -295 242 -269 242 -161 C242 -92 173 -65 108 -71 L141 0 L197 0 L234 212 L799 212 L763 0 L919 0 L1018 560 L862 560 L825 348 L260 348 L296 560 L140 560 L41 0 L80 0 L19 -139 Z " />
<glyph glyph-name="uni1E2A" unicode="&#x1e2a;" horiz-adv-x="1252" d="M906 0 L1082 0 L1207 700 L1031 700 L983 430 L303 430 L352 700 L176 700 L51 0 L227 0 L273 270 L953 270 L906 0 Z M538 -139 C477 -139 456 -112 460 -75 L367 -75 C356 -154 374 -247 521 -247 C667 -247 719 -157 738 -75 L642 -75 C631 -112 597 -139 538 -139 L538 -139 Z " />
<glyph glyph-name="uni1E2B" unicode="&#x1e2b;" horiz-adv-x="1079" d="M763 0 L919 0 L1018 560 L862 560 L825 348 L260 348 L296 560 L140 560 L41 0 L197 0 L234 212 L799 212 L763 0 Z M452 -139 C391 -139 370 -112 374 -75 L281 -75 C270 -154 288 -247 435 -247 C581 -247 633 -157 652 -75 L556 -75 C545 -112 511 -139 452 -139 L452 -139 Z " />
<glyph glyph-name="uni1E2C" unicode="&#x1e2c;" horiz-adv-x="397" d="M51 0 L227 0 L352 700 L176 700 L51 0 Z M220 -75 C214 -109 202 -122 182 -122 C150 -122 112 -81 52 -81 C-16 -81 -67 -124 -92 -247 L-6 -247 C-1 -214 10 -200 31 -200 C62 -200 100 -242 160 -242 C229 -242 280 -199 306 -75 L220 -75 Z " />
<glyph glyph-name="uni1E2D" unicode="&#x1e2d;" horiz-adv-x="357" d="M41 0 L197 0 L296 560 L140 560 L41 0 Z M201 -75 C195 -109 183 -122 163 -122 C131 -122 93 -81 33 -81 C-35 -81 -86 -124 -111 -247 L-25 -247 C-20 -214 -9 -200 12 -200 C43 -200 81 -242 141 -242 C210 -242 261 -199 287 -75 L201 -75 Z " />
<glyph glyph-name="uni1E2E" unicode="&#x1e2e;" horiz-adv-x="397" d="M51 0 L227 0 L352 700 L176 700 L51 0 Z M205 985 L325 985 L528 1156 L328 1156 L205 985 Z M339 781 L495 781 L523 937 L367 937 L339 781 Z M51 781 L207 781 L234 937 L78 937 L51 781 Z " />
<glyph glyph-name="uni1E2F" unicode="&#x1e2f;" horiz-adv-x="357" d="M163 845 L283 845 L486 1016 L286 1016 L163 845 Z M295 641 L451 641 L479 797 L323 797 L295 641 Z M7 641 L163 641 L190 797 L34 797 L7 641 Z M41 0 L197 0 L296 560 L140 560 L41 0 Z " />
<glyph glyph-name="uni1E30" unicode="&#x1e30;" horiz-adv-x="1248" d="M1228 700 L923 700 L282 322 L349 700 L176 700 L51 0 L224 0 L248 132 L543 303 L922 0 L1191 0 L694 390 L1228 700 Z M558 775 L678 775 L881 946 L681 946 L558 775 Z " />
<glyph glyph-name="uni1E31" unicode="&#x1e31;" horiz-adv-x="1074" d="M1043 560 L762 560 L243 266 L296 560 L140 560 L41 0 L197 0 L215 100 L460 236 L771 0 L1013 0 L596 311 L1043 560 Z M451 635 L571 635 L774 806 L574 806 L451 635 Z " />
<glyph glyph-name="uni1E32" unicode="&#x1e32;" horiz-adv-x="1248" d="M1228 700 L923 700 L282 322 L349 700 L176 700 L51 0 L224 0 L248 132 L543 303 L922 0 L1191 0 L694 390 L1228 700 Z M436 -240 L590 -240 L618 -84 L464 -84 L436 -240 Z " />
<glyph glyph-name="uni1E33" unicode="&#x1e33;" horiz-adv-x="1074" d="M1043 560 L762 560 L243 266 L296 560 L140 560 L41 0 L197 0 L215 100 L460 236 L771 0 L1013 0 L596 311 L1043 560 Z M349 -240 L503 -240 L531 -84 L377 -84 L349 -240 Z " />
<glyph glyph-name="uni1E34" unicode="&#x1e34;" horiz-adv-x="1248" d="M1228 700 L923 700 L282 322 L349 700 L176 700 L51 0 L224 0 L248 132 L543 303 L922 0 L1191 0 L694 390 L1228 700 Z M329 -217 L705 -217 L725 -105 L349 -105 L329 -217 Z " />
<glyph glyph-name="uni1E35" unicode="&#x1e35;" horiz-adv-x="1074" d="M1043 560 L762 560 L243 266 L296 560 L140 560 L41 0 L197 0 L215 100 L460 236 L771 0 L1013 0 L596 311 L1043 560 Z M242 -217 L618 -217 L638 -105 L262 -105 L242 -217 Z " />
<glyph glyph-name="uni1E36" unicode="&#x1e36;" horiz-adv-x="1083" d="M352 700 L176 700 L51 0 L1002 0 L1030 160 L256 160 L352 700 Z M406 -240 L560 -240 L588 -84 L434 -84 L406 -240 Z " />
<glyph glyph-name="uni1E37" unicode="&#x1e37;" horiz-adv-x="944" d="M296 560 L140 560 L41 0 L851 0 L875 135 L221 135 L296 560 Z M333 -240 L487 -240 L515 -84 L361 -84 L333 -240 Z " />
<glyph glyph-name="uni1E38" unicode="&#x1e38;" horiz-adv-x="1083" d="M352 700 L176 700 L51 0 L1002 0 L1030 160 L256 160 L352 700 Z M119 804 L495 804 L515 916 L139 916 L119 804 Z M406 -240 L560 -240 L588 -84 L434 -84 L406 -240 Z " />
<glyph glyph-name="uni1E39" unicode="&#x1e39;" horiz-adv-x="944" d="M296 560 L140 560 L41 0 L851 0 L875 135 L221 135 L296 560 Z M76 664 L452 664 L472 776 L96 776 L76 664 Z M333 -240 L487 -240 L515 -84 L361 -84 L333 -240 Z " />
<glyph glyph-name="uni1E3A" unicode="&#x1e3a;" horiz-adv-x="1083" d="M352 700 L176 700 L51 0 L1002 0 L1030 160 L256 160 L352 700 Z M299 -217 L675 -217 L695 -105 L319 -105 L299 -217 Z " />
<glyph glyph-name="uni1E3B" unicode="&#x1e3b;" horiz-adv-x="944" d="M296 560 L140 560 L41 0 L851 0 L875 135 L221 135 L296 560 Z M226 -217 L602 -217 L622 -105 L246 -105 L226 -217 Z " />
<glyph glyph-name="uni1E3C" unicode="&#x1e3c;" horiz-adv-x="1083" d="M352 700 L176 700 L51 0 L1002 0 L1030 160 L256 160 L352 700 Z M275 -246 L390 -246 L499 -158 L575 -246 L685 -246 L610 -75 L412 -75 L275 -246 Z " />
</font>
</svg>
