<?xml version="1.0" encoding="UTF-8"?>
<svg xmlns="http://www.w3.org/2000/svg" xmlns:xlink="http://www.w3.org/1999/xlink" version="1.2" >
<font id="Stereo Gothic 450">
<font-face  font-family="Stereo Gothic" units-per-em="1000" ascent="700" descent="-300" font-style="normal" font-weight="450" font-stretch="normal" cap-height="700" x-height="560" underline-position="-75" underline-thickness="50" />
<missing-glyph  horiz-adv-x="1000" d="M150 0 L850 0 L850 700 L150 700 L150 0 Z M193 661 L781 661 L193 73 L193 661 Z M219 39 L807 627 L807 39 L219 39 Z " />
<glyph glyph-name="NULL" d="" />
<glyph glyph-name="CR" unicode="&#xd;" horiz-adv-x="250" d="" />
<glyph glyph-name="space" unicode="&#x20;" horiz-adv-x="500" d="" />
<glyph glyph-name="exclam" unicode="&#x21;" horiz-adv-x="345" d="M117 0 L227 0 L227 109 L117 109 L117 0 Z M128 176 L216 176 L222 700 L122 700 L128 176 Z " />
<glyph glyph-name="quotedbl" unicode="&#x22;" horiz-adv-x="536" d="M117 400 L189 400 L205 700 L101 700 L117 400 Z M347 400 L419 400 L435 700 L331 700 L347 400 Z " />
<glyph glyph-name="numbersign" unicode="&#x23;" horiz-adv-x="1298" d="M913 0 L1003 0 L1021 178 L1175 178 L1175 260 L1030 260 L1049 439 L1205 439 L1205 521 L1057 521 L1076 700 L986 700 L968 521 L365 521 L383 700 L294 700 L275 521 L123 521 L123 439 L267 439 L248 260 L93 260 L93 178 L239 178 L221 0 L310 0 L329 178 L932 178 L913 0 Z M356 439 L959 439 L940 260 L337 260 L356 439 Z " />
<glyph glyph-name="dollar" unicode="&#x24;" horiz-adv-x="1298" d="M604 -20 L694 -20 L694 70 L968 70 C1113 70 1170 141 1170 229 C1170 318 1113 386 968 386 L694 386 L694 548 L1138 548 L1138 630 L694 630 L694 720 L604 720 L604 630 L329 630 C184 630 128 558 128 470 C128 382 184 313 329 313 L604 313 L604 152 L160 152 L160 70 L604 70 L604 -20 Z M961 313 C1048 313 1075 278 1075 233 C1075 189 1046 152 961 152 L694 152 L694 313 L961 313 Z M223 467 C223 511 250 548 336 548 L604 548 L604 386 L336 386 C250 386 223 422 223 467 L223 467 Z " />
<glyph glyph-name="percent" unicode="&#x25;" horiz-adv-x="1298" d="M1016 700 L178 0 L282 0 L1120 700 L1016 700 Z M98 474 C98 405 142 350 254 350 L418 350 C530 350 574 405 574 474 L574 576 C574 645 530 700 418 700 L254 700 C142 700 98 645 98 576 L98 474 Z M422 633 C485 633 501 605 501 573 L501 477 C501 445 485 417 422 417 L252 417 C187 417 171 445 171 477 L171 573 C171 605 188 633 252 633 L422 633 Z M724 124 C724 55 768 0 880 0 L1044 0 C1156 0 1200 55 1200 124 L1200 226 C1200 295 1156 350 1044 350 L880 350 C768 350 724 295 724 226 L724 124 Z M1048 283 C1111 283 1127 255 1127 223 L1127 127 C1127 95 1111 67 1048 67 L878 67 C813 67 797 95 797 127 L797 223 C797 255 814 283 878 283 L1048 283 Z " />
<glyph glyph-name="ampersand" unicode="&#x26;" horiz-adv-x="1316" d="M325 0 L982 0 C1135 0 1195 73 1195 167 C1195 228 1169 282 1107 309 L1245 309 L1245 391 L391 391 C279 391 245 441 245 500 C245 560 280 610 396 610 L1023 610 L1023 700 L371 700 C206 700 143 621 143 520 C143 449 175 387 253 360 C138 340 93 268 93 183 C93 81 157 0 325 0 L325 0 Z M941 90 L350 90 C234 90 198 139 198 199 C198 258 233 309 344 309 L947 309 C1058 309 1092 258 1092 199 C1092 139 1057 90 941 90 L941 90 Z " />
<glyph glyph-name="quotesingle" unicode="&#x27;" horiz-adv-x="306" d="M117 400 L189 400 L205 700 L101 700 L117 400 Z " />
<glyph glyph-name="parenleft" unicode="&#x28;" horiz-adv-x="494" d="M412 -116 C176 157 176 542 412 815 L330 815 C68 547 68 153 330 -116 L412 -116 Z " />
<glyph glyph-name="parenright" unicode="&#x29;" horiz-adv-x="494" d="M164 -116 C426 153 426 547 164 815 L82 815 C318 542 318 157 82 -116 L164 -116 Z " />
<glyph glyph-name="asterisk" unicode="&#x2a;" horiz-adv-x="594" d="M539 489 L511 579 L323 495 L344 700 L250 700 L271 494 L84 579 L55 489 L255 444 L118 294 L194 238 L297 414 L400 238 L476 293 L339 444 L539 489 Z " />
<glyph glyph-name="plus" unicode="&#x2b;" horiz-adv-x="1298" d="M288 305 L599 305 L599 30 L698 30 L698 305 L1010 305 L1010 395 L698 395 L698 670 L599 670 L599 395 L288 395 L288 305 Z " />
<glyph glyph-name="comma" unicode="&#x2c;" horiz-adv-x="305" d="M98 0 L147 0 L99 -121 L145 -121 L207 7 L207 109 L98 109 L98 0 Z " />
<glyph glyph-name="hyphen" unicode="&#x2d;" horiz-adv-x="600" d="M93 235 L507 235 L507 325 L93 325 L93 235 Z " />
<glyph glyph-name="period" unicode="&#x2e;" horiz-adv-x="305" d="M98 0 L207 0 L207 110 L98 110 L98 0 Z " />
<glyph glyph-name="slash" unicode="&#x2f;" horiz-adv-x="557" d="M-17 -76 L72 -76 L574 776 L485 776 L-17 -76 Z " />
<glyph glyph-name="zero" unicode="0" horiz-adv-x="1298" d="M103 248 C103 111 191 0 415 0 L883 0 C1107 0 1195 111 1195 248 L1195 452 C1195 589 1107 700 883 700 L415 700 C191 700 103 589 103 452 L103 248 Z M886 610 C1045 610 1096 535 1096 447 L1096 252 C1096 165 1046 90 886 90 L411 90 C252 90 202 165 202 252 L202 447 C202 535 252 610 411 610 L886 610 Z " />
<glyph glyph-name="one" unicode="1" horiz-adv-x="1298" d="M382 610 L659 610 L659 90 L232 90 L232 0 L1066 0 L1066 90 L758 90 L758 700 L382 700 L382 610 Z " />
<glyph glyph-name="two" unicode="2" horiz-adv-x="1298" d="M1175 90 L202 90 L202 197 C202 257 239 309 351 309 L955 309 C1135 309 1205 394 1205 504 C1205 613 1135 700 955 700 L143 700 L143 610 L952 610 C1068 610 1101 559 1101 500 C1101 440 1068 391 952 391 L347 391 C172 391 103 308 103 198 L103 0 L1175 0 L1175 90 Z " />
<glyph glyph-name="three" unicode="3" horiz-adv-x="1298" d="M83 0 L968 0 C1135 0 1200 81 1200 183 C1200 268 1154 340 1040 360 C1117 387 1150 449 1150 520 C1150 621 1086 700 921 700 L103 700 L103 610 L896 610 C1012 610 1048 559 1048 500 C1048 441 1013 391 902 391 L190 391 L190 309 L943 309 C1059 309 1094 259 1094 200 C1094 140 1059 90 943 90 L83 90 L83 0 Z " />
<glyph glyph-name="four" unicode="4" horiz-adv-x="1298" d="M1028 700 L74 198 L74 122 L1024 122 L1024 0 L1123 0 L1123 122 L1234 122 L1234 212 L1123 212 L1123 700 L1028 700 Z M270 212 L1024 605 L1024 212 L270 212 Z " />
<glyph glyph-name="five" unicode="5" horiz-adv-x="1298" d="M103 309 L952 309 C1068 309 1101 260 1101 199 C1101 140 1068 90 952 90 L121 90 L121 0 L955 0 C1135 0 1205 87 1205 195 C1205 306 1135 391 955 391 L200 391 L217 610 L1165 610 L1165 700 L134 700 L103 309 Z " />
<glyph glyph-name="six" unicode="6" horiz-adv-x="1298" d="M201 350 C201 493 298 610 551 610 L1155 610 L1155 700 L543 700 C226 700 102 543 102 350 L102 248 C102 111 190 0 414 0 L970 0 C1150 0 1220 87 1220 195 C1220 306 1150 391 970 391 L387 391 C291 391 232 362 201 317 L201 350 Z M355 309 L967 309 C1083 309 1116 260 1116 199 C1116 140 1082 90 967 90 L415 90 C273 90 214 147 203 221 C212 271 254 309 355 309 L355 309 Z " />
<glyph glyph-name="seven" unicode="7" horiz-adv-x="1298" d="M522 0 L1205 620 L1205 700 L83 700 L83 610 L1059 610 L377 0 L522 0 Z " />
<glyph glyph-name="eight" unicode="8" horiz-adv-x="1298" d="M985 0 C1152 0 1217 81 1217 183 C1217 268 1171 340 1057 360 C1134 387 1167 449 1167 520 C1167 621 1103 700 938 700 L359 700 C194 700 131 621 131 520 C131 449 163 387 241 360 C126 340 81 268 81 183 C81 81 145 0 313 0 L985 0 Z M1111 199 C1111 139 1076 90 960 90 L338 90 C222 90 186 139 186 199 C186 259 222 309 338 309 L960 309 C1076 309 1111 259 1111 199 L1111 199 Z M919 391 L379 391 C267 391 233 441 233 500 C233 560 268 610 384 610 L913 610 C1029 610 1065 560 1065 500 C1065 441 1030 391 919 391 L919 391 Z " />
<glyph glyph-name="nine" unicode="9" horiz-adv-x="1298" d="M747 90 L143 90 L143 0 L755 0 C1072 0 1196 157 1196 350 L1196 452 C1196 589 1108 700 884 700 L328 700 C147 700 78 613 78 504 C78 394 147 309 328 309 L910 309 C1007 309 1066 337 1097 382 L1097 350 C1097 206 999 90 747 90 L747 90 Z M942 391 L331 391 C215 391 181 440 181 500 C181 560 216 610 331 610 L883 610 C1023 610 1083 553 1095 478 C1086 428 1044 391 942 391 L942 391 Z " />
<glyph glyph-name="colon" unicode="&#x3a;" horiz-adv-x="305" d="M98 450 L207 450 L207 560 L98 560 L98 450 Z M98 0 L207 0 L207 110 L98 110 L98 0 Z " />
<glyph glyph-name="semicolon" unicode="&#x3b;" horiz-adv-x="305" d="M98 0 L147 0 L99 -121 L145 -121 L207 7 L207 109 L98 109 L98 0 Z M98 450 L207 450 L207 560 L98 560 L98 450 Z " />
<glyph glyph-name="less" unicode="&#x3c;" horiz-adv-x="1298" d="M1000 118 L418 349 L1000 582 L1000 679 L298 396 L298 303 L1000 21 L1000 118 Z " />
<glyph glyph-name="equal" unicode="&#x3d;" horiz-adv-x="1298" d="M288 147 L1010 147 L1010 237 L288 237 L288 147 Z M288 462 L1010 462 L1010 552 L288 552 L288 462 Z " />
<glyph glyph-name="greater" unicode="&#x3e;" horiz-adv-x="1298" d="M298 21 L1000 303 L1000 396 L298 679 L298 582 L880 349 L298 118 L298 21 Z " />
<glyph glyph-name="question" unicode="&#x3f;" horiz-adv-x="1070" d="M322 176 L412 176 L412 311 L787 311 C967 311 1037 395 1037 505 C1037 614 967 700 787 700 L31 700 L31 610 L782 610 C898 610 932 558 932 499 C932 439 898 389 782 389 L322 389 L322 176 Z M313 0 L422 0 L422 109 L313 109 L313 0 Z " />
<glyph glyph-name="at" unicode="&#x40;" horiz-adv-x="1398" d="M726 420 L644 420 C448 420 372 323 372 205 C372 87 448 -10 644 -10 L726 -10 C839 -10 907 28 940 86 L948 0 L1230 0 C1291 67 1318 154 1318 248 C1318 462 1181 635 830 635 L622 635 C233 635 80 443 80 205 C80 -32 233 -224 622 -224 L773 -224 L773 -152 L623 -152 C285 -152 165 8 165 205 C165 403 287 563 624 563 L827 563 C1127 563 1232 422 1232 248 C1232 182 1219 121 1183 72 L1004 72 L1004 410 L948 410 L941 323 C907 381 840 420 726 420 L726 420 Z M645 62 C500 62 455 126 455 205 C455 283 500 348 645 348 L729 348 C878 348 923 281 923 201 C923 124 872 62 730 62 L645 62 Z " />
<glyph glyph-name="A" unicode="A" horiz-adv-x="1273" d="M1140 0 L1262 0 L690 700 L583 700 L11 0 L133 0 L243 135 L1029 135 L1140 0 Z M636 616 L962 217 L310 217 L636 616 Z " />
<glyph glyph-name="B" unicode="B" horiz-adv-x="1259" d="M123 0 L946 0 C1113 0 1178 81 1178 183 C1178 268 1132 340 1018 360 C1095 387 1128 449 1128 520 C1128 621 1064 700 899 700 L123 700 L123 0 Z M921 309 C1037 309 1072 259 1072 199 C1072 139 1037 90 921 90 L222 90 L222 309 L921 309 Z M1026 500 C1026 441 991 391 880 391 L222 391 L222 610 L874 610 C988 610 1026 560 1026 500 L1026 500 Z " />
<glyph glyph-name="C" unicode="C" horiz-adv-x="1184" d="M181 350 C181 493 265 610 518 610 L1103 610 L1103 700 L517 700 C200 700 76 543 76 350 C76 157 200 0 517 0 L1103 0 L1103 90 L518 90 C265 90 181 206 181 350 L181 350 Z " />
<glyph glyph-name="D" unicode="D" horiz-adv-x="1255" d="M123 0 L738 0 C1055 0 1179 157 1179 350 C1179 543 1055 700 738 700 L123 700 L123 0 Z M737 610 C989 610 1073 493 1073 350 C1073 206 989 90 737 90 L222 90 L222 610 L737 610 Z " />
<glyph glyph-name="E" unicode="E" horiz-adv-x="1199" d="M123 0 L1118 0 L1118 90 L222 90 L222 309 L1016 309 L1016 391 L222 391 L222 610 L1118 610 L1118 700 L123 700 L123 0 Z " />
<glyph glyph-name="F" unicode="F" horiz-adv-x="1159" d="M123 0 L222 0 L222 299 L1016 299 L1016 389 L222 389 L222 610 L1118 610 L1118 700 L123 700 L123 0 Z " />
<glyph glyph-name="G" unicode="G" horiz-adv-x="1256" d="M665 309 L1061 309 L1061 90 L518 90 C265 90 181 206 181 350 C181 493 265 610 518 610 L1103 610 L1103 700 L517 700 C200 700 76 543 76 350 C76 157 200 0 517 0 L1158 0 L1158 391 L665 391 L665 309 Z " />
<glyph glyph-name="H" unicode="H" horiz-adv-x="1305" d="M1083 0 L1182 0 L1182 700 L1083 700 L1083 395 L222 395 L222 700 L123 700 L123 0 L222 0 L222 305 L1083 305 L1083 0 Z " />
<glyph glyph-name="I" unicode="I" horiz-adv-x="345" d="M123 0 L222 0 L222 700 L123 700 L123 0 Z " />
<glyph glyph-name="J" unicode="J" horiz-adv-x="1211" d="M386 -5 L687 -5 C1004 -5 1108 132 1108 325 L1108 700 L1009 700 L1009 325 C1009 183 935 85 686 85 L387 85 C199 85 142 170 142 275 L142 324 L43 324 L43 275 C43 121 132 -5 386 -5 L386 -5 Z " />
<glyph glyph-name="K" unicode="K" horiz-adv-x="1290" d="M1193 700 L1019 700 L222 243 L222 700 L123 700 L123 0 L222 0 L222 144 L546 329 L1113 0 L1284 0 L635 380 L1193 700 Z " />
<glyph glyph-name="L" unicode="L" horiz-adv-x="1129" d="M222 700 L123 700 L123 0 L1098 0 L1098 90 L222 90 L222 700 Z " />
<glyph glyph-name="M" unicode="M" horiz-adv-x="1449" d="M1231 700 L724 163 L217 700 L123 700 L123 0 L222 0 L222 563 L724 28 L1227 563 L1227 0 L1326 0 L1326 700 L1231 700 Z " />
<glyph glyph-name="N" unicode="N" horiz-adv-x="1305" d="M1088 0 L1182 0 L1182 700 L1083 700 L1083 116 L217 700 L123 700 L123 0 L222 0 L222 584 L1088 0 Z " />
<glyph glyph-name="O" unicode="O" horiz-adv-x="1348" d="M818 -10 C1144 -10 1272 151 1272 350 C1272 549 1144 710 818 710 L530 710 C204 710 76 549 76 350 C76 151 204 -10 530 -10 L818 -10 Z M531 80 C269 80 181 200 181 350 C181 499 269 620 531 620 L817 620 C1078 620 1166 499 1166 350 C1166 200 1078 80 817 80 L531 80 Z " />
<glyph glyph-name="P" unicode="P" horiz-adv-x="1196" d="M123 0 L222 0 L222 265 L887 265 C1086 265 1163 360 1163 482 C1163 602 1086 700 887 700 L123 700 L123 0 Z M885 610 C1019 610 1059 552 1059 482 C1059 410 1019 355 885 355 L222 355 L222 610 L885 610 Z " />
<glyph glyph-name="Q" unicode="Q" horiz-adv-x="1348" d="M818 -10 C869 -10 916 -6 958 1 L1174 -110 L1346 -110 L1065 32 C1211 93 1272 212 1272 350 C1272 549 1144 710 818 710 L530 710 C204 710 76 549 76 350 C76 151 204 -10 530 -10 L818 -10 Z M530 80 C269 80 181 200 181 350 C181 499 269 620 531 620 L817 620 C1078 620 1166 499 1166 350 C1166 200 1078 80 817 80 L530 80 Z " />
<glyph glyph-name="R" unicode="R" horiz-adv-x="1278" d="M123 0 L222 0 L222 266 L648 266 L1104 0 L1272 0 L803 268 L872 268 C1070 268 1148 362 1148 484 C1148 603 1070 700 872 700 L123 700 L123 0 Z M868 610 C1002 610 1045 552 1045 482 C1045 410 1002 353 868 353 L222 353 L222 610 L868 610 Z " />
<glyph glyph-name="S" unicode="S" horiz-adv-x="1207" d="M113 0 L884 0 C1064 0 1134 87 1134 195 C1134 306 1064 391 884 391 L325 391 C210 391 176 440 176 500 C176 559 210 610 325 610 L1094 610 L1094 700 L323 700 C142 700 73 613 73 504 C73 394 142 309 323 309 L881 309 C997 309 1030 260 1030 199 C1030 140 997 90 881 90 L113 90 L113 0 Z " />
<glyph glyph-name="T" unicode="T" horiz-adv-x="1184" d="M31 610 L542 610 L542 0 L641 0 L641 610 L1153 610 L1153 700 L31 700 L31 610 Z " />
<glyph glyph-name="U" unicode="U" horiz-adv-x="1275" d="M202 323 L202 700 L103 700 L103 323 C103 130 207 -10 524 -10 L751 -10 C1068 -10 1172 130 1172 323 L1172 700 L1073 700 L1073 323 C1073 181 999 80 750 80 L525 80 C275 80 202 181 202 323 L202 323 Z " />
<glyph glyph-name="V" unicode="V" horiz-adv-x="1273" d="M690 0 L1262 700 L1136 700 L636 83 L137 700 L11 700 L583 0 L690 0 Z " />
<glyph glyph-name="W" unicode="W" horiz-adv-x="1618" d="M809 577 L1127 0 L1201 0 L1595 700 L1476 700 L1163 123 L846 700 L772 700 L454 123 L142 700 L23 700 L416 0 L490 0 L809 577 Z " />
<glyph glyph-name="X" unicode="X" horiz-adv-x="1228" d="M21 700 L533 351 L16 0 L174 0 L614 301 L1053 0 L1212 0 L694 351 L1207 700 L1048 700 L614 402 L179 700 L21 700 Z " />
<glyph glyph-name="Y" unicode="Y" horiz-adv-x="1248" d="M574 0 L673 0 L673 211 L1247 700 L1100 700 L624 290 L148 700 L1 700 L574 211 L574 0 Z " />
<glyph glyph-name="Z" unicode="Z" horiz-adv-x="1196" d="M73 0 L1133 0 L1133 90 L265 90 L1113 629 L1113 700 L83 700 L83 610 L919 610 L73 70 L73 0 Z " />
<glyph glyph-name="bracketleft" unicode="&#x5b;" horiz-adv-x="494" d="M132 -150 L442 -150 L442 -78 L230 -78 L230 778 L442 778 L442 850 L132 850 L132 -150 Z " />
<glyph glyph-name="backslash" unicode="&#x5c;" horiz-adv-x="557" d="M72 776 L-17 776 L485 -76 L574 -76 L72 776 Z " />
<glyph glyph-name="bracketright" unicode="&#x5d;" horiz-adv-x="494" d="M362 850 L52 850 L52 778 L264 778 L264 -78 L52 -78 L52 -150 L362 -150 L362 850 Z " />
<glyph glyph-name="asciicircum" unicode="&#x5e;" horiz-adv-x="1298" d="M953 350 L1075 350 L702 800 L595 800 L223 350 L344 350 L649 715 L953 350 Z " />
<glyph glyph-name="underscore" unicode="&#x5f;" horiz-adv-x="500" d="M0 -155 L500 -155 L500 -71 L0 -71 L0 -155 Z " />
<glyph glyph-name="grave" unicode="&#x60;" horiz-adv-x="500" d="M217 806 L102 806 L259 635 L323 635 L217 806 Z " />
<glyph glyph-name="a" unicode="a" horiz-adv-x="1089" d="M967 0 L1077 0 L592 560 L497 560 L12 0 L122 0 L219 112 L870 112 L967 0 Z M544 487 L810 181 L279 181 L544 487 Z " />
<glyph glyph-name="b" unicode="b" horiz-adv-x="1083" d="M113 0 L819 0 C962 0 1010 65 1010 147 C1010 215 974 272 878 289 C943 311 968 359 968 416 C968 497 920 560 780 560 L113 560 L113 0 Z M795 245 C891 245 915 207 915 161 C915 115 891 77 795 77 L202 77 L202 245 L795 245 Z M760 314 L202 314 L202 482 L755 482 C850 482 875 444 875 398 C875 352 852 314 760 314 L760 314 Z " />
<glyph glyph-name="c" unicode="c" horiz-adv-x="1015" d="M163 280 C163 391 225 482 436 482 L942 482 L942 560 L436 560 C166 560 69 434 69 280 C69 126 166 0 436 0 L942 0 L942 77 L436 77 C225 77 163 168 163 280 L163 280 Z " />
<glyph glyph-name="d" unicode="d" horiz-adv-x="1080" d="M113 0 L644 0 C914 0 1011 126 1011 280 C1011 434 914 560 644 560 L113 560 L113 0 Z M644 482 C855 482 917 391 917 280 C917 168 855 77 644 77 L202 77 L202 482 L644 482 Z " />
<glyph glyph-name="e" unicode="e" horiz-adv-x="1033" d="M113 0 L959 0 L959 77 L202 77 L202 245 L872 245 L872 314 L202 314 L202 482 L959 482 L959 560 L113 560 L113 0 Z " />
<glyph glyph-name="f" unicode="f" horiz-adv-x="1016" d="M113 0 L202 0 L202 236 L872 236 L872 313 L202 313 L202 482 L959 482 L959 560 L113 560 L113 0 Z " />
<glyph glyph-name="g" unicode="g" horiz-adv-x="1080" d="M569 245 L902 245 L902 77 L436 77 C225 77 163 168 163 280 C163 391 225 482 436 482 L942 482 L942 560 L436 560 C166 560 69 434 69 280 C69 126 166 0 436 0 L989 0 L989 314 L569 314 L569 245 Z " />
<glyph glyph-name="h" unicode="h" horiz-adv-x="1127" d="M925 0 L1014 0 L1014 560 L925 560 L925 319 L202 319 L202 560 L113 560 L113 0 L202 0 L202 241 L925 241 L925 0 Z " />
<glyph glyph-name="i" unicode="i" horiz-adv-x="315" d="M113 0 L202 0 L202 560 L113 560 L113 0 Z " />
<glyph glyph-name="j" unicode="j" horiz-adv-x="1042" d="M329 -4 L599 -4 C869 -4 949 106 949 260 L949 560 L860 560 L860 260 C860 150 807 73 599 73 L330 73 C173 73 132 139 132 220 L132 260 L43 260 L43 220 C43 97 113 -4 329 -4 L329 -4 Z " />
<glyph glyph-name="k" unicode="k" horiz-adv-x="1113" d="M1030 560 L867 560 L202 201 L202 560 L113 560 L113 0 L202 0 L202 114 L475 261 L947 0 L1102 0 L555 304 L1030 560 Z " />
<glyph glyph-name="l" unicode="l" horiz-adv-x="986" d="M202 560 L113 560 L113 0 L942 0 L942 77 L202 77 L202 560 Z " />
<glyph glyph-name="m" unicode="m" horiz-adv-x="1250" d="M1052 560 L625 138 L198 560 L113 560 L113 0 L202 0 L202 441 L625 21 L1048 441 L1048 0 L1137 0 L1137 560 L1052 560 Z " />
<glyph glyph-name="n" unicode="n" horiz-adv-x="1127" d="M1014 0 L1014 560 L925 560 L925 100 L197 560 L113 560 L113 0 L202 0 L202 460 L930 0 L1014 0 Z " />
<glyph glyph-name="o" unicode="o" horiz-adv-x="1155" d="M708 -8 C985 -8 1086 121 1086 280 C1086 439 985 568 708 568 L447 568 C170 568 69 439 69 280 C69 121 170 -8 447 -8 L708 -8 Z M448 69 C228 69 163 163 163 280 C163 396 228 490 448 490 L707 490 C927 490 992 396 992 280 C992 163 927 69 707 69 L448 69 Z " />
<glyph glyph-name="p" unicode="p" horiz-adv-x="1041" d="M113 0 L202 0 L202 209 L768 209 C938 209 998 286 998 384 C998 481 938 560 768 560 L113 560 L113 0 Z M766 482 C878 482 905 438 905 384 C905 329 878 287 766 287 L202 287 L202 482 L766 482 Z " />
<glyph glyph-name="q" unicode="q" horiz-adv-x="1155" d="M708 -8 C747 -8 782 -5 815 0 L993 -88 L1146 -88 L913 24 C1037 72 1086 169 1086 280 C1086 439 985 568 708 568 L447 568 C170 568 69 439 69 280 C69 121 170 -8 447 -8 L708 -8 Z M448 69 C228 69 163 163 163 280 C163 396 228 490 448 490 L707 490 C927 490 992 396 992 280 C992 163 927 69 707 69 L448 69 Z " />
<glyph glyph-name="r" unicode="r" horiz-adv-x="1105" d="M113 0 L202 0 L202 210 L560 210 L939 0 L1090 0 L702 211 L756 211 C925 211 986 288 986 386 C986 482 925 560 756 560 L113 560 L113 0 Z M752 482 C864 482 893 438 893 384 C893 329 864 285 752 285 L202 285 L202 482 L752 482 Z " />
<glyph glyph-name="s" unicode="s" horiz-adv-x="1032" d="M99 0 L760 0 C914 0 967 69 967 157 C967 246 914 314 760 314 L277 314 C182 314 158 352 158 398 C158 444 182 482 277 482 L933 482 L933 560 L272 560 C118 560 65 490 65 402 C65 313 118 245 272 245 L755 245 C850 245 874 208 874 161 C874 115 850 77 755 77 L99 77 L99 0 Z " />
<glyph glyph-name="t" unicode="t" horiz-adv-x="1041" d="M44 482 L476 482 L476 0 L565 0 L565 482 L997 482 L997 560 L44 560 L44 482 Z " />
<glyph glyph-name="u" unicode="u" horiz-adv-x="1095" d="M181 258 L181 560 L93 560 L93 258 C93 104 173 -8 442 -8 L652 -8 C921 -8 1002 104 1002 258 L1002 560 L913 560 L913 258 C913 148 860 69 651 69 L443 69 C234 69 181 148 181 258 L181 258 Z " />
<glyph glyph-name="v" unicode="v" horiz-adv-x="1089" d="M592 0 L1077 560 L964 560 L544 72 L125 560 L12 560 L497 0 L592 0 Z " />
<glyph glyph-name="w" unicode="w" horiz-adv-x="1383" d="M692 454 L959 0 L1026 0 L1360 560 L1254 560 L991 106 L725 560 L658 560 L393 106 L129 560 L23 560 L358 0 L424 0 L692 454 Z " />
<glyph glyph-name="x" unicode="x" horiz-adv-x="1064" d="M26 560 L461 282 L21 0 L167 0 L532 237 L897 0 L1044 0 L603 282 L1040 560 L893 560 L532 327 L172 560 L26 560 Z " />
<glyph glyph-name="y" unicode="y" horiz-adv-x="1062" d="M487 0 L576 0 L576 170 L1061 560 L929 560 L531 237 L133 560 L1 560 L487 170 L487 0 Z " />
<glyph glyph-name="z" unicode="z" horiz-adv-x="1024" d="M66 0 L968 0 L968 77 L239 77 L951 499 L951 560 L75 560 L75 482 L777 482 L66 60 L66 0 Z " />
<glyph glyph-name="braceleft" unicode="&#x7b;" horiz-adv-x="494" d="M171 455 C171 417 157 386 91 386 L51 386 L51 314 L91 314 C157 314 171 282 171 244 L171 -31 C171 -97 208 -150 319 -150 L443 -150 L443 -78 L349 -78 C282 -78 269 -47 269 -9 L269 239 C269 289 244 332 183 350 C244 367 269 410 269 461 L269 708 C269 746 282 778 349 778 L443 778 L443 850 L319 850 C208 850 171 797 171 730 L171 455 Z " />
<glyph glyph-name="bar" unicode="&#x7c;" horiz-adv-x="500" d="M207 850 L207 -150 L292 -150 L292 850 L207 850 Z " />
<glyph glyph-name="braceright" unicode="&#x7d;" horiz-adv-x="494" d="M323 730 C323 797 286 850 175 850 L51 850 L51 778 L145 778 C212 778 225 746 225 708 L225 461 C225 410 250 367 311 350 C250 332 225 289 225 239 L225 -9 C225 -47 212 -78 145 -78 L51 -78 L51 -150 L175 -150 C286 -150 323 -97 323 -31 L323 244 C323 282 337 314 403 314 L443 314 L443 386 L403 386 C337 386 323 417 323 455 L323 730 Z " />
<glyph glyph-name="asciitilde" unicode="&#x7e;" horiz-adv-x="1298" d="M1010 438 C735 215 578 593 288 380 L288 285 C563 508 720 130 1010 343 L1010 438 Z " />
<glyph glyph-name="uni00A0" unicode="&#xa0;" horiz-adv-x="500" d="" />
<glyph glyph-name="exclamdown" unicode="&#xa1;" horiz-adv-x="345" d="M228 700 L118 700 L118 591 L228 591 L228 700 Z M217 524 L129 524 L123 0 L223 0 L217 524 Z " />
<glyph glyph-name="cent" unicode="&#xa2;" horiz-adv-x="1298" d="M1160 208 L691 208 L751 492 L1161 492 L1161 574 L769 574 L800 720 L710 720 L679 574 L418 574 C216 574 136 473 136 350 C136 227 216 126 418 126 L584 126 L553 -20 L643 -20 L674 126 L1160 126 L1160 208 Z M230 350 C230 435 279 492 439 492 L661 492 L601 208 L440 208 C280 208 230 265 230 350 L230 350 Z " />
<glyph glyph-name="sterling" unicode="&#xa3;" horiz-adv-x="1298" d="M755 391 L360 391 L360 447 C360 535 396 610 555 610 L1055 610 L1055 700 L559 700 C335 700 261 589 261 452 L261 391 L123 391 L123 309 L261 309 L261 161 C261 116 239 86 189 86 L123 86 L123 0 L1175 0 L1175 90 L309 90 C341 103 360 136 360 174 L360 309 L755 309 L755 391 Z " />
<glyph glyph-name="currency" unicode="&#xa4;" horiz-adv-x="1298" d="M774 81 C870 81 942 100 994 133 L1135 -10 L1200 53 L1060 190 C1096 234 1112 289 1112 350 C1112 410 1096 465 1060 509 L1200 646 L1135 710 L994 566 C942 598 870 618 774 618 L522 618 C426 618 354 599 302 566 L162 710 L98 646 L236 510 C200 465 184 410 184 350 C184 289 200 233 236 190 L98 53 L162 -10 L302 133 C354 100 426 81 522 81 L774 81 Z M285 350 C285 450 342 531 523 531 L773 531 C954 531 1011 450 1011 350 C1011 249 954 168 773 168 L523 168 C342 168 285 249 285 350 L285 350 Z " />
<glyph glyph-name="yen" unicode="&#xa5;" horiz-adv-x="1298" d="M1069 700 L650 343 L230 700 L87 700 L435 414 L108 414 L108 337 L515 337 L600 265 L600 217 L108 217 L108 140 L600 140 L600 0 L699 0 L699 140 L1192 140 L1192 217 L699 217 L699 265 L784 337 L1192 337 L1192 414 L865 414 L1212 700 L1069 700 Z " />
<glyph glyph-name="brokenbar" unicode="&#xa6;" horiz-adv-x="500" d="M292 467 L292 850 L207 850 L207 467 L292 467 Z M207 233 L207 -150 L292 -150 L292 233 L207 233 Z " />
<glyph glyph-name="section" unicode="&#xa7;" horiz-adv-x="1226" d="M270 145 L827 145 C915 145 938 108 938 63 C938 19 915 -18 823 -18 L225 -18 L225 -100 L858 -100 C983 -100 1033 -38 1033 38 C1033 84 1014 124 971 147 L985 147 C1105 147 1153 220 1153 300 C1153 386 1097 455 955 455 L402 455 C312 455 287 490 287 536 C287 580 311 618 402 618 L1001 618 L1001 700 L367 700 C242 700 193 638 193 562 C193 515 211 476 254 453 L241 453 C120 453 73 380 73 300 C73 213 128 145 270 145 L270 145 Z M277 218 C187 218 162 255 162 300 C162 346 188 382 277 382 L949 382 C1038 382 1063 345 1063 300 C1063 254 1038 218 949 218 L277 218 Z " />
<glyph glyph-name="dieresis" unicode="&#xa8;" horiz-adv-x="500" d="M334 670 L433 670 L433 769 L334 769 L334 670 Z M66 670 L165 670 L165 769 L66 769 L66 670 Z " />
<glyph glyph-name="copyright" unicode="&#xa9;" horiz-adv-x="1208" d="M688 -10 C1014 -10 1142 151 1142 350 C1142 549 1014 710 688 710 L520 710 C194 710 66 549 66 350 C66 151 194 -10 520 -10 L688 -10 Z M521 55 C241 55 141 187 141 350 C141 513 241 645 521 645 L687 645 C966 645 1066 513 1066 350 C1066 187 966 55 687 55 L521 55 Z M826 230 L531 230 C412 230 375 283 375 350 C375 416 412 470 531 470 L826 470 L826 525 L531 525 C372 525 310 446 310 350 C310 253 372 175 531 175 L826 175 L826 230 Z " />
<glyph glyph-name="ordfeminine" unicode="&#xaa;" horiz-adv-x="762" d="M609 350 L699 350 L420 700 L342 700 L64 350 L154 350 L200 408 L562 408 L609 350 Z M381 635 L513 470 L249 470 L381 635 Z " />
<glyph glyph-name="guillemotleft" unicode="&#xab;" horiz-adv-x="794" d="M293 560 L95 281 L295 0 L399 0 L199 281 L397 560 L293 560 Z M593 560 L395 281 L595 0 L699 0 L499 281 L697 560 L593 560 Z " />
<glyph glyph-name="logicalnot" unicode="&#xac;" horiz-adv-x="1298" d="M288 305 L911 305 L911 40 L1010 40 L1010 395 L288 395 L288 305 Z " />
<glyph glyph-name="uni00AD" unicode="&#xad;" horiz-adv-x="600" d="M93 238 L507 238 L507 322 L93 322 L93 238 Z " />
<glyph glyph-name="registered" unicode="&#xae;" horiz-adv-x="1208" d="M688 -10 C1014 -10 1142 151 1142 350 C1142 549 1014 710 688 710 L520 710 C194 710 66 549 66 350 C66 151 194 -10 520 -10 L688 -10 Z M521 55 C241 55 141 187 141 350 C141 513 241 645 521 645 L687 645 C966 645 1066 513 1066 350 C1066 187 966 55 687 55 L521 55 Z M345 175 L406 175 L406 303 L630 303 L829 175 L922 175 L717 304 L720 304 C821 304 859 352 859 414 C859 475 821 525 720 525 L345 525 L345 175 Z M715 470 C776 470 794 444 794 412 C794 380 776 356 715 356 L406 356 L406 470 L715 470 Z " />
<glyph glyph-name="macron" unicode="&#xaf;" horiz-adv-x="500" d="M68 687 L432 687 L432 752 L68 752 L68 687 Z " />
<glyph glyph-name="degree" unicode="&#xb0;" horiz-adv-x="566" d="M80 508 C80 392 172 307 283 307 C394 307 486 392 486 508 C486 625 394 710 283 710 C172 710 80 625 80 508 L80 508 Z M158 508 C158 584 211 639 283 639 C355 639 408 584 408 508 C408 433 355 378 283 378 C211 378 158 433 158 508 L158 508 Z " />
<glyph glyph-name="plusminus" unicode="&#xb1;" horiz-adv-x="1298" d="M288 400 L599 400 L599 190 L698 190 L698 400 L1010 400 L1010 490 L698 490 L698 700 L599 700 L599 490 L288 490 L288 400 Z M288 0 L1010 0 L1010 90 L288 90 L288 0 Z " />
<glyph glyph-name="twosuperior" unicode="&#xb2;" horiz-adv-x="746" d="M640 417 L173 417 L173 456 C173 477 186 497 234 497 L524 497 C618 497 655 540 655 598 C655 655 618 700 524 700 L120 700 L120 633 L521 633 C567 633 580 614 580 593 C580 572 567 553 521 553 L232 553 C137 553 100 510 100 452 L100 350 L640 350 L640 417 Z " />
<glyph glyph-name="threesuperior" unicode="&#xb3;" horiz-adv-x="746" d="M85 350 L529 350 C614 350 647 392 647 442 C647 485 625 519 572 531 C607 546 622 575 622 609 C622 660 590 700 508 700 L95 700 L95 633 L489 633 C535 633 546 614 546 593 C546 572 536 553 490 553 L138 553 L138 497 L510 497 C558 497 569 478 569 456 C569 435 558 417 510 417 L85 417 L85 350 Z " />
<glyph glyph-name="acute" unicode="&#xb4;" horiz-adv-x="500" d="M176 635 L240 635 L397 806 L282 806 L176 635 Z " />
<glyph glyph-name="uni00B5" unicode="&#xb5;" horiz-adv-x="1298" d="M1097 0 L1165 0 L1165 560 L1066 560 L1066 355 C1066 208 967 90 709 90 L386 90 C271 90 232 136 232 199 L232 560 L133 560 L133 -200 L232 -200 L232 77 C260 17 321 0 404 0 L719 0 C912 0 1025 69 1076 167 L1097 0 Z " />
<glyph glyph-name="paragraph" unicode="&#xb6;" horiz-adv-x="1199" d="M630 610 L904 610 L904 -100 L1003 -100 L1003 610 L1103 610 L1103 700 L338 700 C139 700 63 602 63 482 C63 360 139 265 338 265 L531 265 L531 -100 L630 -100 L630 610 Z " />
<glyph glyph-name="periodcentered" unicode="&#xb7;" horiz-adv-x="305" d="M98 295 L207 295 L207 405 L98 405 L98 295 Z " />
<glyph glyph-name="cedilla" unicode="&#xb8;" horiz-adv-x="500" d="M197 -112 L224 -112 C287 -112 320 -124 320 -165 C320 -236 173 -222 128 -197 L128 -241 C202 -278 391 -292 391 -167 C391 -88 325 -70 248 -70 L247 -70 L265 0 L227 0 L197 -112 Z " />
<glyph glyph-name="onesuperior" unicode="&#xb9;" horiz-adv-x="746" d="M237 633 L366 633 L366 417 L162 417 L162 350 L583 350 L583 417 L439 417 L439 700 L237 700 L237 633 Z " />
<glyph glyph-name="ordmasculine" unicode="&#xba;" horiz-adv-x="760" d="M453 345 C616 345 680 425 680 525 C680 624 616 705 453 705 L307 705 C144 705 80 624 80 525 C80 425 144 345 307 345 L453 345 Z M308 412 C192 412 154 463 154 525 C154 586 192 638 308 638 L452 638 C567 638 606 586 606 525 C606 463 567 412 452 412 L308 412 Z " />
<glyph glyph-name="guillemotright" unicode="&#xbb;" horiz-adv-x="794" d="M397 560 L595 281 L395 0 L499 0 L699 281 L501 560 L397 560 Z M97 560 L295 281 L95 0 L199 0 L399 281 L201 560 L97 560 Z " />
<glyph glyph-name="onequarter" unicode="&#xbc;" horiz-adv-x="1492" d="M237 633 L366 633 L366 417 L162 417 L162 350 L583 350 L583 417 L439 417 L439 700 L237 700 L237 633 Z M1113 700 L275 0 L379 0 L1217 700 L1113 700 Z M1290 350 L832 113 L832 58 L1287 58 L1287 0 L1360 0 L1360 58 L1416 58 L1416 125 L1360 125 L1360 350 L1290 350 Z M978 125 L1287 281 L1287 125 L978 125 Z " />
<glyph glyph-name="onehalf" unicode="&#xbd;" horiz-adv-x="1492" d="M237 633 L366 633 L366 417 L162 417 L162 350 L583 350 L583 417 L439 417 L439 700 L237 700 L237 633 Z M1113 700 L275 0 L379 0 L1217 700 L1113 700 Z M1386 67 L919 67 L919 106 C919 127 932 147 980 147 L1270 147 C1364 147 1401 190 1401 248 C1401 305 1364 350 1270 350 L866 350 L866 283 L1267 283 C1313 283 1326 264 1326 243 C1326 222 1313 203 1267 203 L978 203 C883 203 846 160 846 102 L846 0 L1386 0 L1386 67 Z " />
<glyph glyph-name="threequarters" unicode="&#xbe;" horiz-adv-x="1492" d="M85 350 L529 350 C614 350 647 392 647 442 C647 485 625 519 572 531 C607 546 622 575 622 609 C622 660 590 700 508 700 L95 700 L95 633 L489 633 C535 633 546 614 546 593 C546 572 536 553 490 553 L138 553 L138 497 L510 497 C558 497 569 478 569 456 C569 435 558 417 510 417 L85 417 L85 350 Z M1113 700 L275 0 L379 0 L1217 700 L1113 700 Z M1290 350 L832 113 L832 58 L1287 58 L1287 0 L1360 0 L1360 58 L1416 58 L1416 125 L1360 125 L1360 350 L1290 350 Z M978 125 L1287 281 L1287 125 L978 125 Z " />
<glyph glyph-name="questiondown" unicode="&#xbf;" horiz-adv-x="1070" d="M748 524 L658 524 L658 389 L283 389 C103 389 33 305 33 195 C33 86 103 0 283 0 L1039 0 L1039 90 L288 90 C172 90 138 142 138 201 C138 261 172 311 288 311 L748 311 L748 524 Z M757 700 L648 700 L648 591 L757 591 L757 700 Z " />
<glyph glyph-name="Agrave" unicode="&#xc0;" horiz-adv-x="1273" d="M1140 0 L1262 0 L690 700 L583 700 L11 0 L133 0 L243 135 L1029 135 L1140 0 Z M636 616 L962 217 L310 217 L636 616 Z M603 946 L488 946 L645 775 L709 775 L603 946 Z " />
<glyph glyph-name="Aacute" unicode="&#xc1;" horiz-adv-x="1273" d="M1140 0 L1262 0 L690 700 L583 700 L11 0 L133 0 L243 135 L1029 135 L1140 0 Z M636 616 L962 217 L310 217 L636 616 Z M562 775 L626 775 L783 946 L668 946 L562 775 Z " />
<glyph glyph-name="Acircumflex" unicode="&#xc2;" horiz-adv-x="1273" d="M1140 0 L1262 0 L690 700 L583 700 L11 0 L133 0 L243 135 L1029 135 L1140 0 Z M636 616 L962 217 L310 217 L636 616 Z M695 946 L577 946 L456 775 L520 775 L636 895 L752 775 L816 775 L695 946 Z " />
<glyph glyph-name="Atilde" unicode="&#xc3;" horiz-adv-x="1273" d="M1140 0 L1262 0 L690 700 L583 700 L11 0 L133 0 L243 135 L1029 135 L1140 0 Z M636 616 L962 217 L310 217 L636 616 Z M762 932 C757 877 739 866 712 866 C668 866 625 925 561 925 C505 925 468 893 461 788 L511 788 C516 843 535 855 561 855 C605 855 648 795 713 795 C768 795 806 827 812 932 L762 932 Z " />
<glyph glyph-name="Adieresis" unicode="&#xc4;" horiz-adv-x="1273" d="M1140 0 L1262 0 L690 700 L583 700 L11 0 L133 0 L243 135 L1029 135 L1140 0 Z M636 616 L962 217 L310 217 L636 616 Z M721 810 L820 810 L820 909 L721 909 L721 810 Z M453 810 L552 810 L552 909 L453 909 L453 810 Z " />
<glyph glyph-name="Aring" unicode="&#xc5;" horiz-adv-x="1273" d="M1140 0 L1262 0 L690 700 L583 700 L11 0 L133 0 L243 135 L1029 135 L1140 0 Z M636 616 L962 217 L310 217 L636 616 Z M575 861 C575 894 603 921 636 921 C670 921 697 894 697 861 C697 827 670 800 636 800 C603 800 575 827 575 861 L575 861 Z M517 861 C517 799 568 749 636 749 C704 749 755 799 755 861 C755 923 704 972 636 972 C568 972 517 923 517 861 L517 861 Z " />
<glyph glyph-name="AE" unicode="&#xc6;" horiz-adv-x="1707" d="M736 133 L736 0 L1626 0 L1626 90 L835 90 L835 309 L1524 309 L1524 391 L835 391 L835 610 L1626 610 L1626 700 L683 700 L11 0 L135 0 L263 133 L736 133 Z M736 627 L736 215 L340 215 L736 627 Z " />
<glyph glyph-name="Ccedilla" unicode="&#xc7;" horiz-adv-x="1184" d="M590 -112 L617 -112 C680 -112 713 -124 713 -165 C713 -236 566 -222 521 -197 L521 -241 C595 -278 784 -292 784 -167 C784 -88 718 -70 641 -70 L640 -70 L658 0 L1103 0 L1103 90 L518 90 C265 90 181 206 181 350 C181 493 265 610 518 610 L1103 610 L1103 700 L517 700 C200 700 76 543 76 350 C76 157 200 0 517 0 L620 0 L590 -112 Z " />
<glyph glyph-name="Egrave" unicode="&#xc8;" horiz-adv-x="1199" d="M123 0 L1118 0 L1118 90 L222 90 L222 309 L1016 309 L1016 391 L222 391 L222 610 L1118 610 L1118 700 L123 700 L123 0 Z M576 946 L461 946 L618 775 L682 775 L576 946 Z " />
<glyph glyph-name="Eacute" unicode="&#xc9;" horiz-adv-x="1199" d="M123 0 L1118 0 L1118 90 L222 90 L222 309 L1016 309 L1016 391 L222 391 L222 610 L1118 610 L1118 700 L123 700 L123 0 Z M535 775 L599 775 L756 946 L641 946 L535 775 Z " />
<glyph glyph-name="Ecircumflex" unicode="&#xca;" horiz-adv-x="1199" d="M123 0 L1118 0 L1118 90 L222 90 L222 309 L1016 309 L1016 391 L222 391 L222 610 L1118 610 L1118 700 L123 700 L123 0 Z M668 946 L550 946 L429 775 L493 775 L609 895 L725 775 L789 775 L668 946 Z " />
<glyph glyph-name="Edieresis" unicode="&#xcb;" horiz-adv-x="1199" d="M123 0 L1118 0 L1118 90 L222 90 L222 309 L1016 309 L1016 391 L222 391 L222 610 L1118 610 L1118 700 L123 700 L123 0 Z M693 810 L792 810 L792 909 L693 909 L693 810 Z M425 810 L524 810 L524 909 L425 909 L425 810 Z " />
<glyph glyph-name="Igrave" unicode="&#xcc;" horiz-adv-x="345" d="M123 0 L222 0 L222 700 L123 700 L123 0 Z M140 946 L25 946 L182 775 L246 775 L140 946 Z " />
<glyph glyph-name="Iacute" unicode="&#xcd;" horiz-adv-x="345" d="M123 0 L222 0 L222 700 L123 700 L123 0 Z M99 775 L163 775 L320 946 L205 946 L99 775 Z " />
<glyph glyph-name="Icircumflex" unicode="&#xce;" horiz-adv-x="345" d="M123 0 L222 0 L222 700 L123 700 L123 0 Z M232 946 L114 946 L-7 775 L57 775 L173 895 L289 775 L353 775 L232 946 Z " />
<glyph glyph-name="Idieresis" unicode="&#xcf;" horiz-adv-x="345" d="M123 0 L222 0 L222 700 L123 700 L123 0 Z M257 810 L356 810 L356 909 L257 909 L257 810 Z M-11 810 L88 810 L88 909 L-11 909 L-11 810 Z " />
<glyph glyph-name="Eth" unicode="&#xd0;" horiz-adv-x="1255" d="M-7 309 L123 309 L123 0 L738 0 C1055 0 1179 157 1179 350 C1179 543 1055 700 738 700 L123 700 L123 391 L-7 391 L-7 309 Z M737 610 C989 610 1073 493 1073 350 C1073 206 989 90 737 90 L222 90 L222 309 L637 309 L637 391 L222 391 L222 610 L737 610 Z " />
<glyph glyph-name="Ntilde" unicode="&#xd1;" horiz-adv-x="1305" d="M1088 0 L1182 0 L1182 700 L1083 700 L1083 116 L217 700 L123 700 L123 0 L222 0 L222 584 L1088 0 Z M778 932 C773 877 755 866 728 866 C684 866 641 925 577 925 C521 925 484 893 477 788 L527 788 C532 843 551 855 577 855 C621 855 664 795 729 795 C784 795 822 827 828 932 L778 932 Z " />
<glyph glyph-name="Ograve" unicode="&#xd2;" horiz-adv-x="1348" d="M818 -10 C1144 -10 1272 151 1272 350 C1272 549 1144 710 818 710 L530 710 C204 710 76 549 76 350 C76 151 204 -10 530 -10 L818 -10 Z M531 80 C269 80 181 200 181 350 C181 499 269 620 531 620 L817 620 C1078 620 1166 499 1166 350 C1166 200 1078 80 817 80 L531 80 Z M641 946 L526 946 L683 775 L747 775 L641 946 Z " />
<glyph glyph-name="Oacute" unicode="&#xd3;" horiz-adv-x="1348" d="M818 -10 C1144 -10 1272 151 1272 350 C1272 549 1144 710 818 710 L530 710 C204 710 76 549 76 350 C76 151 204 -10 530 -10 L818 -10 Z M531 80 C269 80 181 200 181 350 C181 499 269 620 531 620 L817 620 C1078 620 1166 499 1166 350 C1166 200 1078 80 817 80 L531 80 Z M600 775 L664 775 L821 946 L706 946 L600 775 Z " />
<glyph glyph-name="Ocircumflex" unicode="&#xd4;" horiz-adv-x="1348" d="M818 -10 C1144 -10 1272 151 1272 350 C1272 549 1144 710 818 710 L530 710 C204 710 76 549 76 350 C76 151 204 -10 530 -10 L818 -10 Z M531 80 C269 80 181 200 181 350 C181 499 269 620 531 620 L817 620 C1078 620 1166 499 1166 350 C1166 200 1078 80 817 80 L531 80 Z M733 946 L615 946 L494 775 L558 775 L674 895 L790 775 L854 775 L733 946 Z " />
<glyph glyph-name="Otilde" unicode="&#xd5;" horiz-adv-x="1348" d="M818 -10 C1144 -10 1272 151 1272 350 C1272 549 1144 710 818 710 L530 710 C204 710 76 549 76 350 C76 151 204 -10 530 -10 L818 -10 Z M531 80 C269 80 181 200 181 350 C181 499 269 620 531 620 L817 620 C1078 620 1166 499 1166 350 C1166 200 1078 80 817 80 L531 80 Z M799 932 C794 877 776 866 749 866 C705 866 662 925 598 925 C542 925 505 893 498 788 L548 788 C553 843 572 855 598 855 C642 855 685 795 750 795 C805 795 843 827 849 932 L799 932 Z " />
<glyph glyph-name="Odieresis" unicode="&#xd6;" horiz-adv-x="1348" d="M818 -10 C1144 -10 1272 151 1272 350 C1272 549 1144 710 818 710 L530 710 C204 710 76 549 76 350 C76 151 204 -10 530 -10 L818 -10 Z M531 80 C269 80 181 200 181 350 C181 499 269 620 531 620 L817 620 C1078 620 1166 499 1166 350 C1166 200 1078 80 817 80 L531 80 Z M758 810 L857 810 L857 909 L758 909 L758 810 Z M490 810 L589 810 L589 909 L490 909 L490 810 Z " />
<glyph glyph-name="multiply" unicode="&#xd7;" horiz-adv-x="1298" d="M961 580 L894 647 L647 410 L404 642 L337 575 L581 348 L337 120 L404 53 L648 286 L894 53 L961 120 L714 349 L961 580 Z " />
<glyph glyph-name="Oslash" unicode="&#xd8;" horiz-adv-x="1348" d="M818 -10 C1144 -10 1272 151 1272 350 C1272 507 1192 641 997 690 L1083 800 L968 800 L895 707 C870 709 845 710 818 710 L530 710 C204 710 76 549 76 350 C76 192 156 59 350 10 L264 -100 L378 -100 L451 -6 C476 -9 502 -10 530 -10 L818 -10 Z M531 80 L519 80 L934 610 C1105 578 1166 474 1166 350 C1166 200 1078 80 817 80 L531 80 Z M181 350 C181 499 269 620 531 620 L817 620 L827 620 L412 90 C242 121 181 225 181 350 L181 350 Z " />
<glyph glyph-name="Ugrave" unicode="&#xd9;" horiz-adv-x="1275" d="M202 323 L202 700 L103 700 L103 323 C103 130 207 -10 524 -10 L751 -10 C1068 -10 1172 130 1172 323 L1172 700 L1073 700 L1073 323 C1073 181 999 80 750 80 L525 80 C275 80 202 181 202 323 L202 323 Z M604 946 L489 946 L646 775 L710 775 L604 946 Z " />
<glyph glyph-name="Uacute" unicode="&#xda;" horiz-adv-x="1275" d="M202 323 L202 700 L103 700 L103 323 C103 130 207 -10 524 -10 L751 -10 C1068 -10 1172 130 1172 323 L1172 700 L1073 700 L1073 323 C1073 181 999 80 750 80 L525 80 C275 80 202 181 202 323 L202 323 Z M563 775 L627 775 L784 946 L669 946 L563 775 Z " />
<glyph glyph-name="Ucircumflex" unicode="&#xdb;" horiz-adv-x="1275" d="M202 323 L202 700 L103 700 L103 323 C103 130 207 -10 524 -10 L751 -10 C1068 -10 1172 130 1172 323 L1172 700 L1073 700 L1073 323 C1073 181 999 80 750 80 L525 80 C275 80 202 181 202 323 L202 323 Z M696 946 L578 946 L457 775 L521 775 L637 895 L753 775 L817 775 L696 946 Z " />
<glyph glyph-name="Udieresis" unicode="&#xdc;" horiz-adv-x="1275" d="M202 323 L202 700 L103 700 L103 323 C103 130 207 -10 524 -10 L751 -10 C1068 -10 1172 130 1172 323 L1172 700 L1073 700 L1073 323 C1073 181 999 80 750 80 L525 80 C275 80 202 181 202 323 L202 323 Z M722 810 L821 810 L821 909 L722 909 L722 810 Z M454 810 L553 810 L553 909 L454 909 L454 810 Z " />
<glyph glyph-name="Yacute" unicode="&#xdd;" horiz-adv-x="1248" d="M574 0 L673 0 L673 211 L1247 700 L1100 700 L624 290 L148 700 L1 700 L574 211 L574 0 Z M550 775 L614 775 L771 946 L656 946 L550 775 Z " />
<glyph glyph-name="Thorn" unicode="&#xde;" horiz-adv-x="1195" d="M123 0 L222 0 L222 132 L887 132 C1086 132 1163 227 1163 350 C1163 469 1086 567 887 567 L222 567 L222 700 L123 700 L123 0 Z M884 477 C1019 477 1058 420 1058 350 C1058 278 1018 222 884 222 L222 222 L222 477 L884 477 Z " />
<glyph glyph-name="germandbls" unicode="&#xdf;" horiz-adv-x="1088" d="M488 245 L821 245 C916 245 940 208 940 162 C940 116 917 77 821 77 L364 77 L364 0 L826 0 C980 0 1033 69 1033 157 C1033 246 980 314 826 314 L627 314 L953 499 L953 560 L450 560 C181 560 93 450 93 296 L93 0 L181 0 L181 296 C181 406 242 482 451 482 L786 482 L488 307 L488 245 Z " />
<glyph glyph-name="agrave" unicode="&#xe0;" horiz-adv-x="1089" d="M967 0 L1077 0 L592 560 L497 560 L12 0 L122 0 L219 112 L870 112 L967 0 Z M544 487 L810 181 L279 181 L544 487 Z M511 806 L396 806 L553 635 L617 635 L511 806 Z " />
<glyph glyph-name="aacute" unicode="&#xe1;" horiz-adv-x="1089" d="M967 0 L1077 0 L592 560 L497 560 L12 0 L122 0 L219 112 L870 112 L967 0 Z M544 487 L810 181 L279 181 L544 487 Z M470 635 L534 635 L691 806 L576 806 L470 635 Z " />
<glyph glyph-name="acircumflex" unicode="&#xe2;" horiz-adv-x="1089" d="M967 0 L1077 0 L592 560 L497 560 L12 0 L122 0 L219 112 L870 112 L967 0 Z M544 487 L810 181 L279 181 L544 487 Z M603 806 L485 806 L364 635 L428 635 L544 755 L660 635 L724 635 L603 806 Z " />
<glyph glyph-name="atilde" unicode="&#xe3;" horiz-adv-x="1089" d="M967 0 L1077 0 L592 560 L497 560 L12 0 L122 0 L219 112 L870 112 L967 0 Z M544 487 L810 181 L279 181 L544 487 Z M670 792 C665 737 647 726 620 726 C576 726 533 785 469 785 C413 785 376 753 369 648 L419 648 C424 703 443 715 469 715 C513 715 556 655 621 655 C676 655 714 687 720 792 L670 792 Z " />
<glyph glyph-name="adieresis" unicode="&#xe4;" horiz-adv-x="1089" d="M967 0 L1077 0 L592 560 L497 560 L12 0 L122 0 L219 112 L870 112 L967 0 Z M544 487 L810 181 L279 181 L544 487 Z M629 670 L728 670 L728 769 L629 769 L629 670 Z M361 670 L460 670 L460 769 L361 769 L361 670 Z " />
<glyph glyph-name="aring" unicode="&#xe5;" horiz-adv-x="1089" d="M967 0 L1077 0 L592 560 L497 560 L12 0 L122 0 L219 112 L870 112 L967 0 Z M544 487 L810 181 L279 181 L544 487 Z M483 721 C483 754 511 781 544 781 C578 781 605 754 605 721 C605 687 578 660 544 660 C511 660 483 687 483 721 L483 721 Z M425 721 C425 659 476 609 544 609 C612 609 663 659 663 721 C663 783 612 832 544 832 C476 832 425 783 425 721 L425 721 Z " />
<glyph glyph-name="ae" unicode="&#xe6;" horiz-adv-x="1461" d="M629 105 L629 0 L1387 0 L1387 77 L718 77 L718 245 L1299 245 L1299 314 L718 314 L718 482 L1387 482 L1387 560 L582 560 L12 0 L124 0 L232 105 L629 105 Z M629 496 L629 174 L301 174 L629 496 Z " />
<glyph glyph-name="ccedilla" unicode="&#xe7;" horiz-adv-x="1015" d="M495 -112 L522 -112 C585 -112 618 -124 618 -165 C618 -236 471 -222 426 -197 L426 -241 C500 -278 689 -292 689 -167 C689 -88 623 -70 546 -70 L545 -70 L563 0 L942 0 L942 77 L436 77 C225 77 163 168 163 280 C163 391 225 482 436 482 L942 482 L942 560 L436 560 C166 560 69 434 69 280 C69 126 166 0 436 0 L525 0 L495 -112 Z " />
<glyph glyph-name="egrave" unicode="&#xe8;" horiz-adv-x="1033" d="M113 0 L959 0 L959 77 L202 77 L202 245 L872 245 L872 314 L202 314 L202 482 L959 482 L959 560 L113 560 L113 0 Z M495 806 L380 806 L537 635 L601 635 L495 806 Z " />
<glyph glyph-name="eacute" unicode="&#xe9;" horiz-adv-x="1033" d="M113 0 L959 0 L959 77 L202 77 L202 245 L872 245 L872 314 L202 314 L202 482 L959 482 L959 560 L113 560 L113 0 Z M454 635 L518 635 L675 806 L560 806 L454 635 Z " />
<glyph glyph-name="ecircumflex" unicode="&#xea;" horiz-adv-x="1033" d="M113 0 L959 0 L959 77 L202 77 L202 245 L872 245 L872 314 L202 314 L202 482 L959 482 L959 560 L113 560 L113 0 Z M587 806 L469 806 L348 635 L412 635 L528 755 L644 635 L708 635 L587 806 Z " />
<glyph glyph-name="edieresis" unicode="&#xeb;" horiz-adv-x="1033" d="M113 0 L959 0 L959 77 L202 77 L202 245 L872 245 L872 314 L202 314 L202 482 L959 482 L959 560 L113 560 L113 0 Z M612 670 L711 670 L711 769 L612 769 L612 670 Z M344 670 L443 670 L443 769 L344 769 L344 670 Z " />
<glyph glyph-name="igrave" unicode="&#xec;" horiz-adv-x="315" d="M113 0 L202 0 L202 560 L113 560 L113 0 Z M125 806 L10 806 L167 635 L231 635 L125 806 Z " />
<glyph glyph-name="iacute" unicode="&#xed;" horiz-adv-x="315" d="M113 0 L202 0 L202 560 L113 560 L113 0 Z M84 635 L148 635 L305 806 L190 806 L84 635 Z " />
<glyph glyph-name="icircumflex" unicode="&#xee;" horiz-adv-x="315" d="M113 0 L202 0 L202 560 L113 560 L113 0 Z M217 806 L99 806 L-22 635 L42 635 L158 755 L274 635 L338 635 L217 806 Z " />
<glyph glyph-name="idieresis" unicode="&#xef;" horiz-adv-x="315" d="M113 0 L202 0 L202 560 L113 560 L113 0 Z M242 670 L341 670 L341 769 L242 769 L242 670 Z M-26 670 L73 670 L73 769 L-26 769 L-26 670 Z " />
<glyph glyph-name="eth" unicode="&#xf0;" horiz-adv-x="1080" d="M-7 245 L113 245 L113 0 L644 0 C914 0 1011 126 1011 280 C1011 434 914 560 644 560 L113 560 L113 314 L-7 314 L-7 245 Z M644 482 C855 482 917 391 917 280 C917 168 855 77 644 77 L202 77 L202 245 L563 245 L563 314 L202 314 L202 482 L644 482 Z " />
<glyph glyph-name="ntilde" unicode="&#xf1;" horiz-adv-x="1127" d="M1014 0 L1014 560 L925 560 L925 100 L197 560 L113 560 L113 0 L202 0 L202 460 L930 0 L1014 0 Z M689 792 C684 737 666 726 639 726 C595 726 552 785 488 785 C432 785 395 753 388 648 L438 648 C443 703 462 715 488 715 C532 715 575 655 640 655 C695 655 733 687 739 792 L689 792 Z " />
<glyph glyph-name="ograve" unicode="&#xf2;" horiz-adv-x="1155" d="M708 -8 C985 -8 1086 121 1086 280 C1086 439 985 568 708 568 L447 568 C170 568 69 439 69 280 C69 121 170 -8 447 -8 L708 -8 Z M448 69 C228 69 163 163 163 280 C163 396 228 490 448 490 L707 490 C927 490 992 396 992 280 C992 163 927 69 707 69 L448 69 Z M544 806 L429 806 L586 635 L650 635 L544 806 Z " />
<glyph glyph-name="oacute" unicode="&#xf3;" horiz-adv-x="1155" d="M708 -8 C985 -8 1086 121 1086 280 C1086 439 985 568 708 568 L447 568 C170 568 69 439 69 280 C69 121 170 -8 447 -8 L708 -8 Z M448 69 C228 69 163 163 163 280 C163 396 228 490 448 490 L707 490 C927 490 992 396 992 280 C992 163 927 69 707 69 L448 69 Z M503 635 L567 635 L724 806 L609 806 L503 635 Z " />
<glyph glyph-name="ocircumflex" unicode="&#xf4;" horiz-adv-x="1155" d="M708 -8 C985 -8 1086 121 1086 280 C1086 439 985 568 708 568 L447 568 C170 568 69 439 69 280 C69 121 170 -8 447 -8 L708 -8 Z M448 69 C228 69 163 163 163 280 C163 396 228 490 448 490 L707 490 C927 490 992 396 992 280 C992 163 927 69 707 69 L448 69 Z M636 806 L518 806 L397 635 L461 635 L577 755 L693 635 L757 635 L636 806 Z " />
<glyph glyph-name="otilde" unicode="&#xf5;" horiz-adv-x="1155" d="M708 -8 C985 -8 1086 121 1086 280 C1086 439 985 568 708 568 L447 568 C170 568 69 439 69 280 C69 121 170 -8 447 -8 L708 -8 Z M448 69 C228 69 163 163 163 280 C163 396 228 490 448 490 L707 490 C927 490 992 396 992 280 C992 163 927 69 707 69 L448 69 Z M703 792 C698 737 680 726 653 726 C609 726 566 785 502 785 C446 785 409 753 402 648 L452 648 C457 703 476 715 502 715 C546 715 589 655 654 655 C709 655 747 687 753 792 L703 792 Z " />
<glyph glyph-name="odieresis" unicode="&#xf6;" horiz-adv-x="1155" d="M708 -8 C985 -8 1086 121 1086 280 C1086 439 985 568 708 568 L447 568 C170 568 69 439 69 280 C69 121 170 -8 447 -8 L708 -8 Z M448 69 C228 69 163 163 163 280 C163 396 228 490 448 490 L707 490 C927 490 992 396 992 280 C992 163 927 69 707 69 L448 69 Z M662 670 L761 670 L761 769 L662 769 L662 670 Z M394 670 L493 670 L493 769 L394 769 L394 670 Z " />
<glyph glyph-name="divide" unicode="&#xf7;" horiz-adv-x="1298" d="M288 305 L1010 305 L1010 395 L288 395 L288 305 Z M596 35 L701 35 L701 139 L596 139 L596 35 Z M596 560 L701 560 L701 665 L596 665 L596 560 Z " />
<glyph glyph-name="oslash" unicode="&#xf8;" horiz-adv-x="1155" d="M708 -8 C985 -8 1086 121 1086 280 C1086 407 1021 515 854 553 L926 640 L823 640 L762 566 C745 567 727 568 708 568 L447 568 C170 568 69 439 69 280 C69 153 133 45 300 7 L228 -80 L331 -80 L392 -6 C409 -7 428 -8 447 -8 L708 -8 Z M992 280 C992 163 927 69 707 69 L454 69 L797 484 C945 461 992 378 992 280 L992 280 Z M163 280 C163 396 228 490 448 490 L699 490 L356 75 C209 98 163 181 163 280 L163 280 Z " />
<glyph glyph-name="ugrave" unicode="&#xf9;" horiz-adv-x="1095" d="M181 258 L181 560 L93 560 L93 258 C93 104 173 -8 442 -8 L652 -8 C921 -8 1002 104 1002 258 L1002 560 L913 560 L913 258 C913 148 860 69 651 69 L443 69 C234 69 181 148 181 258 L181 258 Z M514 806 L399 806 L556 635 L620 635 L514 806 Z " />
<glyph glyph-name="uacute" unicode="&#xfa;" horiz-adv-x="1095" d="M181 258 L181 560 L93 560 L93 258 C93 104 173 -8 442 -8 L652 -8 C921 -8 1002 104 1002 258 L1002 560 L913 560 L913 258 C913 148 860 69 651 69 L443 69 C234 69 181 148 181 258 L181 258 Z M473 635 L537 635 L694 806 L579 806 L473 635 Z " />
<glyph glyph-name="ucircumflex" unicode="&#xfb;" horiz-adv-x="1095" d="M181 258 L181 560 L93 560 L93 258 C93 104 173 -8 442 -8 L652 -8 C921 -8 1002 104 1002 258 L1002 560 L913 560 L913 258 C913 148 860 69 651 69 L443 69 C234 69 181 148 181 258 L181 258 Z M606 806 L488 806 L367 635 L431 635 L547 755 L663 635 L727 635 L606 806 Z " />
<glyph glyph-name="udieresis" unicode="&#xfc;" horiz-adv-x="1095" d="M181 258 L181 560 L93 560 L93 258 C93 104 173 -8 442 -8 L652 -8 C921 -8 1002 104 1002 258 L1002 560 L913 560 L913 258 C913 148 860 69 651 69 L443 69 C234 69 181 148 181 258 L181 258 Z M632 670 L731 670 L731 769 L632 769 L632 670 Z M364 670 L463 670 L463 769 L364 769 L364 670 Z " />
<glyph glyph-name="yacute" unicode="&#xfd;" horiz-adv-x="1062" d="M487 0 L576 0 L576 170 L1061 560 L929 560 L531 237 L133 560 L1 560 L487 170 L487 0 Z M457 635 L521 635 L678 806 L563 806 L457 635 Z " />
<glyph glyph-name="thorn" unicode="&#xfe;" horiz-adv-x="1041" d="M113 0 L202 0 L202 104 L768 104 C938 104 998 181 998 280 C998 376 938 455 768 455 L202 455 L202 560 L113 560 L113 0 Z M765 377 C878 377 905 334 905 280 C905 225 877 182 765 182 L202 182 L202 377 L765 377 Z " />
<glyph glyph-name="ydieresis" unicode="&#xff;" horiz-adv-x="1062" d="M487 0 L576 0 L576 170 L1061 560 L929 560 L531 237 L133 560 L1 560 L487 170 L487 0 Z M615 670 L714 670 L714 769 L615 769 L615 670 Z M347 670 L446 670 L446 769 L347 769 L347 670 Z " />
<glyph glyph-name="Amacron" unicode="&#x100;" horiz-adv-x="1273" d="M1140 0 L1262 0 L690 700 L583 700 L11 0 L133 0 L243 135 L1029 135 L1140 0 Z M636 616 L962 217 L310 217 L636 616 Z M454 827 L818 827 L818 892 L454 892 L454 827 Z " />
<glyph glyph-name="amacron" unicode="&#x101;" horiz-adv-x="1089" d="M967 0 L1077 0 L592 560 L497 560 L12 0 L122 0 L219 112 L870 112 L967 0 Z M544 487 L810 181 L279 181 L544 487 Z M362 687 L726 687 L726 752 L362 752 L362 687 Z " />
<glyph glyph-name="Abreve" unicode="&#x102;" horiz-adv-x="1273" d="M1140 0 L1262 0 L690 700 L583 700 L11 0 L133 0 L243 135 L1029 135 L1140 0 Z M636 616 L962 217 L310 217 L636 616 Z M637 848 C557 848 527 888 522 936 L467 936 C472 862 508 784 637 784 C764 784 801 862 806 936 L751 936 C746 888 716 848 637 848 L637 848 Z " />
<glyph glyph-name="abreve" unicode="&#x103;" horiz-adv-x="1089" d="M967 0 L1077 0 L592 560 L497 560 L12 0 L122 0 L219 112 L870 112 L967 0 Z M544 487 L810 181 L279 181 L544 487 Z M545 708 C465 708 435 748 430 796 L375 796 C380 722 416 644 545 644 C672 644 709 722 714 796 L659 796 C654 748 624 708 545 708 L545 708 Z " />
<glyph glyph-name="Aogonek" unicode="&#x104;" horiz-adv-x="1273" d="M979 -167 C979 -224 1029 -258 1102 -258 C1143 -258 1181 -253 1226 -235 L1226 -190 C1189 -205 1166 -209 1138 -209 C1092 -209 1059 -187 1059 -145 C1059 -78 1125 -30 1198 0 L1262 0 L690 700 L583 700 L11 0 L133 0 L243 135 L1029 135 L1140 0 C1063 -26 979 -85 979 -167 L979 -167 Z M636 616 L962 217 L310 217 L636 616 Z " />
<glyph glyph-name="aogonek" unicode="&#x105;" horiz-adv-x="1089" d="M806 -167 C806 -224 856 -258 929 -258 C970 -258 1008 -253 1053 -235 L1053 -190 C1016 -205 993 -209 965 -209 C919 -209 886 -187 886 -145 C886 -78 952 -30 1025 0 L1077 0 L592 560 L497 560 L12 0 L122 0 L219 112 L870 112 L967 0 C890 -26 806 -85 806 -167 L806 -167 Z M544 487 L810 181 L279 181 L544 487 Z " />
<glyph glyph-name="Cacute" unicode="&#x106;" horiz-adv-x="1184" d="M181 350 C181 493 265 610 518 610 L1103 610 L1103 700 L517 700 C200 700 76 543 76 350 C76 157 200 0 517 0 L1103 0 L1103 90 L518 90 C265 90 181 206 181 350 L181 350 Z M568 775 L632 775 L789 946 L674 946 L568 775 Z " />
<glyph glyph-name="cacute" unicode="&#x107;" horiz-adv-x="1015" d="M163 280 C163 391 225 482 436 482 L942 482 L942 560 L436 560 C166 560 69 434 69 280 C69 126 166 0 436 0 L942 0 L942 77 L436 77 C225 77 163 168 163 280 L163 280 Z M474 635 L538 635 L695 806 L580 806 L474 635 Z " />
<glyph glyph-name="Ccircumflex" unicode="&#x108;" horiz-adv-x="1184" d="M181 350 C181 493 265 610 518 610 L1103 610 L1103 700 L517 700 C200 700 76 543 76 350 C76 157 200 0 517 0 L1103 0 L1103 90 L518 90 C265 90 181 206 181 350 L181 350 Z M701 946 L583 946 L462 775 L526 775 L642 895 L758 775 L822 775 L701 946 Z " />
<glyph glyph-name="ccircumflex" unicode="&#x109;" horiz-adv-x="1015" d="M163 280 C163 391 225 482 436 482 L942 482 L942 560 L436 560 C166 560 69 434 69 280 C69 126 166 0 436 0 L942 0 L942 77 L436 77 C225 77 163 168 163 280 L163 280 Z M606 806 L488 806 L367 635 L431 635 L547 755 L663 635 L727 635 L606 806 Z " />
<glyph glyph-name="Cdotaccent" unicode="&#x10a;" horiz-adv-x="1184" d="M181 350 C181 493 265 610 518 610 L1103 610 L1103 700 L517 700 C200 700 76 543 76 350 C76 157 200 0 517 0 L1103 0 L1103 90 L518 90 C265 90 181 206 181 350 L181 350 Z M592 810 L691 810 L691 909 L592 909 L592 810 Z " />
<glyph glyph-name="cdotaccent" unicode="&#x10b;" horiz-adv-x="1015" d="M163 280 C163 391 225 482 436 482 L942 482 L942 560 L436 560 C166 560 69 434 69 280 C69 126 166 0 436 0 L942 0 L942 77 L436 77 C225 77 163 168 163 280 L163 280 Z M498 670 L597 670 L597 769 L498 769 L498 670 Z " />
<glyph glyph-name="Ccaron" unicode="&#x10c;" horiz-adv-x="1184" d="M181 350 C181 493 265 610 518 610 L1103 610 L1103 700 L517 700 C200 700 76 543 76 350 C76 157 200 0 517 0 L1103 0 L1103 90 L518 90 C265 90 181 206 181 350 L181 350 Z M822 946 L758 946 L642 826 L526 946 L462 946 L583 775 L701 775 L822 946 Z " />
<glyph glyph-name="ccaron" unicode="&#x10d;" horiz-adv-x="1015" d="M163 280 C163 391 225 482 436 482 L942 482 L942 560 L436 560 C166 560 69 434 69 280 C69 126 166 0 436 0 L942 0 L942 77 L436 77 C225 77 163 168 163 280 L163 280 Z M727 806 L663 806 L547 686 L431 806 L367 806 L488 635 L606 635 L727 806 Z " />
<glyph glyph-name="Dcaron" unicode="&#x10e;" horiz-adv-x="1255" d="M123 0 L738 0 C1055 0 1179 157 1179 350 C1179 543 1055 700 738 700 L123 700 L123 0 Z M737 610 C989 610 1073 493 1073 350 C1073 206 989 90 737 90 L222 90 L222 610 L737 610 Z M792 946 L728 946 L612 826 L496 946 L432 946 L553 775 L671 775 L792 946 Z " />
<glyph glyph-name="dcaron" unicode="&#x10f;" horiz-adv-x="1080" d="M711 806 L647 806 L531 686 L415 806 L351 806 L472 635 L590 635 L711 806 Z M113 0 L644 0 C914 0 1011 126 1011 280 C1011 434 914 560 644 560 L113 560 L113 0 Z M644 482 C855 482 917 391 917 280 C917 168 855 77 644 77 L202 77 L202 482 L644 482 Z " />
<glyph glyph-name="Dcroat" unicode="&#x110;" horiz-adv-x="1255" d="M-7 309 L123 309 L123 0 L738 0 C1055 0 1179 157 1179 350 C1179 543 1055 700 738 700 L123 700 L123 391 L-7 391 L-7 309 Z M737 610 C989 610 1073 493 1073 350 C1073 206 989 90 737 90 L222 90 L222 309 L637 309 L637 391 L222 391 L222 610 L737 610 Z " />
<glyph glyph-name="dcroat" unicode="&#x111;" horiz-adv-x="1080" d="M-7 245 L113 245 L113 0 L644 0 C914 0 1011 126 1011 280 C1011 434 914 560 644 560 L113 560 L113 314 L-7 314 L-7 245 Z M644 482 C855 482 917 391 917 280 C917 168 855 77 644 77 L202 77 L202 245 L563 245 L563 314 L202 314 L202 482 L644 482 Z " />
<glyph glyph-name="Emacron" unicode="&#x112;" horiz-adv-x="1199" d="M123 0 L1118 0 L1118 90 L222 90 L222 309 L1016 309 L1016 391 L222 391 L222 610 L1118 610 L1118 700 L123 700 L123 0 Z M427 827 L791 827 L791 892 L427 892 L427 827 Z " />
<glyph glyph-name="emacron" unicode="&#x113;" horiz-adv-x="1033" d="M113 0 L959 0 L959 77 L202 77 L202 245 L872 245 L872 314 L202 314 L202 482 L959 482 L959 560 L113 560 L113 0 Z M346 687 L710 687 L710 752 L346 752 L346 687 Z " />
<glyph glyph-name="Ebreve" unicode="&#x114;" horiz-adv-x="1199" d="M123 0 L1118 0 L1118 90 L222 90 L222 309 L1016 309 L1016 391 L222 391 L222 610 L1118 610 L1118 700 L123 700 L123 0 Z M610 848 C530 848 500 888 495 936 L440 936 C445 862 481 784 610 784 C737 784 774 862 779 936 L724 936 C719 888 689 848 610 848 L610 848 Z " />
<glyph glyph-name="ebreve" unicode="&#x115;" horiz-adv-x="1033" d="M113 0 L959 0 L959 77 L202 77 L202 245 L872 245 L872 314 L202 314 L202 482 L959 482 L959 560 L113 560 L113 0 Z M529 708 C449 708 419 748 414 796 L359 796 C364 722 400 644 529 644 C656 644 693 722 698 796 L643 796 C638 748 608 708 529 708 L529 708 Z " />
<glyph glyph-name="Edotaccent" unicode="&#x116;" horiz-adv-x="1199" d="M123 0 L1118 0 L1118 90 L222 90 L222 309 L1016 309 L1016 391 L222 391 L222 610 L1118 610 L1118 700 L123 700 L123 0 Z M560 810 L659 810 L659 909 L560 909 L560 810 Z " />
<glyph glyph-name="edotaccent" unicode="&#x117;" horiz-adv-x="1033" d="M113 0 L959 0 L959 77 L202 77 L202 245 L872 245 L872 314 L202 314 L202 482 L959 482 L959 560 L113 560 L113 0 Z M479 670 L578 670 L578 769 L479 769 L479 670 Z " />
<glyph glyph-name="Eogonek" unicode="&#x118;" horiz-adv-x="1199" d="M123 0 L1032 0 C955 -26 871 -85 871 -167 C871 -224 921 -258 994 -258 C1035 -258 1073 -253 1118 -235 L1118 -190 C1081 -205 1058 -209 1030 -209 C984 -209 951 -187 951 -145 C951 -78 1017 -30 1090 0 L1118 0 L1118 90 L222 90 L222 309 L1016 309 L1016 391 L222 391 L222 610 L1118 610 L1118 700 L123 700 L123 0 Z " />
<glyph glyph-name="eogonek" unicode="&#x119;" horiz-adv-x="1033" d="M113 0 L873 0 C796 -26 712 -85 712 -167 C712 -224 762 -258 835 -258 C876 -258 914 -253 959 -235 L959 -190 C922 -205 899 -209 871 -209 C825 -209 792 -187 792 -145 C792 -78 858 -30 931 0 L959 0 L959 77 L202 77 L202 245 L872 245 L872 314 L202 314 L202 482 L959 482 L959 560 L113 560 L113 0 Z " />
<glyph glyph-name="Ecaron" unicode="&#x11a;" horiz-adv-x="1199" d="M123 0 L1118 0 L1118 90 L222 90 L222 309 L1016 309 L1016 391 L222 391 L222 610 L1118 610 L1118 700 L123 700 L123 0 Z M789 946 L725 946 L609 826 L493 946 L429 946 L550 775 L668 775 L789 946 Z " />
<glyph glyph-name="ecaron" unicode="&#x11b;" horiz-adv-x="1033" d="M113 0 L959 0 L959 77 L202 77 L202 245 L872 245 L872 314 L202 314 L202 482 L959 482 L959 560 L113 560 L113 0 Z M708 806 L644 806 L528 686 L412 806 L348 806 L469 635 L587 635 L708 806 Z " />
<glyph glyph-name="Gcircumflex" unicode="&#x11c;" horiz-adv-x="1256" d="M665 309 L1061 309 L1061 90 L518 90 C265 90 181 206 181 350 C181 493 265 610 518 610 L1103 610 L1103 700 L517 700 C200 700 76 543 76 350 C76 157 200 0 517 0 L1158 0 L1158 391 L665 391 L665 309 Z M711 946 L593 946 L472 775 L536 775 L652 895 L768 775 L832 775 L711 946 Z " />
<glyph glyph-name="gcircumflex" unicode="&#x11d;" horiz-adv-x="1080" d="M569 245 L902 245 L902 77 L436 77 C225 77 163 168 163 280 C163 391 225 482 436 482 L942 482 L942 560 L436 560 C166 560 69 434 69 280 C69 126 166 0 436 0 L989 0 L989 314 L569 314 L569 245 Z M610 806 L492 806 L371 635 L435 635 L551 755 L667 635 L731 635 L610 806 Z " />
<glyph glyph-name="Gbreve" unicode="&#x11e;" horiz-adv-x="1256" d="M665 309 L1061 309 L1061 90 L518 90 C265 90 181 206 181 350 C181 493 265 610 518 610 L1103 610 L1103 700 L517 700 C200 700 76 543 76 350 C76 157 200 0 517 0 L1158 0 L1158 391 L665 391 L665 309 Z M652 848 C572 848 542 888 537 936 L482 936 C487 862 523 784 652 784 C779 784 816 862 821 936 L766 936 C761 888 731 848 652 848 L652 848 Z " />
<glyph glyph-name="gbreve" unicode="&#x11f;" horiz-adv-x="1080" d="M569 245 L902 245 L902 77 L436 77 C225 77 163 168 163 280 C163 391 225 482 436 482 L942 482 L942 560 L436 560 C166 560 69 434 69 280 C69 126 166 0 436 0 L989 0 L989 314 L569 314 L569 245 Z M551 708 C471 708 441 748 436 796 L381 796 C386 722 422 644 551 644 C678 644 715 722 720 796 L665 796 C660 748 630 708 551 708 L551 708 Z " />
<glyph glyph-name="Gdotaccent" unicode="&#x120;" horiz-adv-x="1256" d="M665 309 L1061 309 L1061 90 L518 90 C265 90 181 206 181 350 C181 493 265 610 518 610 L1103 610 L1103 700 L517 700 C200 700 76 543 76 350 C76 157 200 0 517 0 L1158 0 L1158 391 L665 391 L665 309 Z M602 810 L701 810 L701 909 L602 909 L602 810 Z " />
<glyph glyph-name="gdotaccent" unicode="&#x121;" horiz-adv-x="1080" d="M569 245 L902 245 L902 77 L436 77 C225 77 163 168 163 280 C163 391 225 482 436 482 L942 482 L942 560 L436 560 C166 560 69 434 69 280 C69 126 166 0 436 0 L989 0 L989 314 L569 314 L569 245 Z M501 670 L600 670 L600 769 L501 769 L501 670 Z " />
<glyph glyph-name="uni0122" unicode="&#x122;" horiz-adv-x="1256" d="M665 309 L1061 309 L1061 90 L518 90 C265 90 181 206 181 350 C181 493 265 610 518 610 L1103 610 L1103 700 L517 700 C200 700 76 543 76 350 C76 157 200 0 517 0 L1158 0 L1158 391 L665 391 L665 309 Z M615 -211 L654 -211 L606 -318 L651 -318 L714 -204 L714 -112 L615 -112 L615 -211 Z " />
<glyph glyph-name="uni0123" unicode="&#x123;" horiz-adv-x="1080" d="M569 245 L902 245 L902 77 L436 77 C225 77 163 168 163 280 C163 391 225 482 436 482 L942 482 L942 560 L436 560 C166 560 69 434 69 280 C69 126 166 0 436 0 L989 0 L989 314 L569 314 L569 245 Z M511 -211 L550 -211 L502 -318 L547 -318 L610 -204 L610 -112 L511 -112 L511 -211 Z " />
<glyph glyph-name="Hcircumflex" unicode="&#x124;" horiz-adv-x="1305" d="M1083 0 L1182 0 L1182 700 L1083 700 L1083 395 L222 395 L222 700 L123 700 L123 0 L222 0 L222 305 L1083 305 L1083 0 Z M711 946 L593 946 L472 775 L536 775 L652 895 L768 775 L832 775 L711 946 Z " />
<glyph glyph-name="hcircumflex" unicode="&#x125;" horiz-adv-x="1127" d="M925 0 L1014 0 L1014 560 L925 560 L925 319 L202 319 L202 560 L113 560 L113 0 L202 0 L202 241 L925 241 L925 0 Z M622 806 L504 806 L383 635 L447 635 L563 755 L679 635 L743 635 L622 806 Z " />
<glyph glyph-name="Hbar" unicode="&#x126;" horiz-adv-x="1305" d="M23 522 L123 522 L123 0 L222 0 L222 305 L1083 305 L1083 0 L1182 0 L1182 522 L1282 522 L1282 573 L1182 573 L1182 700 L1083 700 L1083 573 L222 573 L222 700 L123 700 L123 573 L23 573 L23 522 Z M222 395 L222 522 L1083 522 L1083 395 L222 395 Z " />
<glyph glyph-name="hbar" unicode="&#x127;" horiz-adv-x="1127" d="M23 414 L113 414 L113 0 L202 0 L202 241 L925 241 L925 0 L1014 0 L1014 414 L1104 414 L1104 465 L1014 465 L1014 560 L925 560 L925 465 L202 465 L202 560 L113 560 L113 465 L23 465 L23 414 Z M202 319 L202 414 L925 414 L925 319 L202 319 Z " />
<glyph glyph-name="Itilde" unicode="&#x128;" horiz-adv-x="345" d="M123 0 L222 0 L222 700 L123 700 L123 0 Z M298 932 C293 877 275 866 248 866 C204 866 161 925 97 925 C41 925 4 893 -3 788 L47 788 C52 843 71 855 97 855 C141 855 184 795 249 795 C304 795 342 827 348 932 L298 932 Z " />
<glyph glyph-name="itilde" unicode="&#x129;" horiz-adv-x="315" d="M113 0 L202 0 L202 560 L113 560 L113 0 Z M283 792 C278 737 260 726 233 726 C189 726 146 785 82 785 C26 785 -11 753 -18 648 L32 648 C37 703 56 715 82 715 C126 715 169 655 234 655 C289 655 327 687 333 792 L283 792 Z " />
<glyph glyph-name="Imacron" unicode="&#x12a;" horiz-adv-x="345" d="M123 0 L222 0 L222 700 L123 700 L123 0 Z M-9 827 L355 827 L355 892 L-9 892 L-9 827 Z " />
<glyph glyph-name="imacron" unicode="&#x12b;" horiz-adv-x="315" d="M113 0 L202 0 L202 560 L113 560 L113 0 Z M-24 687 L340 687 L340 752 L-24 752 L-24 687 Z " />
<glyph glyph-name="Ibreve" unicode="&#x12c;" horiz-adv-x="345" d="M123 0 L222 0 L222 700 L123 700 L123 0 Z M173 848 C93 848 63 888 58 936 L3 936 C8 862 44 784 173 784 C300 784 337 862 342 936 L287 936 C282 888 252 848 173 848 L173 848 Z " />
<glyph glyph-name="ibreve" unicode="&#x12d;" horiz-adv-x="315" d="M113 0 L202 0 L202 560 L113 560 L113 0 Z M158 708 C78 708 48 748 43 796 L-12 796 C-7 722 29 644 158 644 C285 644 322 722 327 796 L272 796 C267 748 237 708 158 708 L158 708 Z " />
<glyph glyph-name="Iogonek" unicode="&#x12e;" horiz-adv-x="345" d="M11 -154 C11 -227 77 -258 134 -258 C175 -258 213 -253 258 -235 L258 -190 C221 -205 198 -209 170 -209 C116 -209 85 -181 85 -134 C85 -78 115 -37 168 0 L222 0 L222 700 L123 700 L123 0 C64 -31 11 -85 11 -154 L11 -154 Z " />
<glyph glyph-name="iogonek" unicode="&#x12f;" horiz-adv-x="315" d="M1 -154 C1 -227 67 -258 124 -258 C165 -258 203 -253 248 -235 L248 -190 C211 -205 188 -209 160 -209 C106 -209 75 -181 75 -134 C75 -78 105 -37 158 0 L202 0 L202 560 L113 560 L113 0 C54 -31 1 -85 1 -154 L1 -154 Z " />
<glyph glyph-name="Idotaccent" unicode="&#x130;" horiz-adv-x="345" d="M123 0 L222 0 L222 700 L123 700 L123 0 Z M123 810 L222 810 L222 909 L123 909 L123 810 Z " />
<glyph glyph-name="dotlessi" unicode="&#x131;" horiz-adv-x="315" d="M113 0 L202 0 L202 560 L113 560 L113 0 Z " />
<glyph glyph-name="IJ" unicode="&#x132;" horiz-adv-x="1271" d="M446 -5 L747 -5 C1064 -5 1168 132 1168 325 L1168 700 L1069 700 L1069 325 C1069 183 995 85 746 85 L447 85 C259 85 202 170 202 275 L202 324 L103 324 L103 275 C103 121 192 -5 446 -5 L446 -5 Z M103 445 L202 445 L202 700 L103 700 L103 445 Z " />
<glyph glyph-name="ij" unicode="&#x133;" horiz-adv-x="1092" d="M93 356 L182 356 L182 560 L93 560 L93 356 Z M379 -4 L649 -4 C919 -4 999 106 999 260 L999 560 L910 560 L910 260 C910 150 857 73 649 73 L380 73 C223 73 182 139 182 220 L182 260 L93 260 L93 220 C93 97 163 -4 379 -4 L379 -4 Z " />
<glyph glyph-name="Jcircumflex" unicode="&#x134;" horiz-adv-x="1211" d="M386 -5 L687 -5 C1004 -5 1108 132 1108 325 L1108 700 L1009 700 L1009 325 C1009 183 935 85 686 85 L387 85 C199 85 142 170 142 275 L142 324 L43 324 L43 275 C43 121 132 -5 386 -5 L386 -5 Z M1087 946 L969 946 L848 775 L912 775 L1028 895 L1144 775 L1208 775 L1087 946 Z " />
<glyph glyph-name="jcircumflex" unicode="&#x135;" horiz-adv-x="1042" d="M329 -4 L599 -4 C869 -4 949 106 949 260 L949 560 L860 560 L860 260 C860 150 807 73 599 73 L330 73 C173 73 132 139 132 220 L132 260 L43 260 L43 220 C43 97 113 -4 329 -4 L329 -4 Z M933 806 L815 806 L694 635 L758 635 L874 755 L990 635 L1054 635 L933 806 Z " />
<glyph glyph-name="uni0136" unicode="&#x136;" horiz-adv-x="1290" d="M1193 700 L1019 700 L222 243 L222 700 L123 700 L123 0 L222 0 L222 144 L546 329 L1113 0 L1284 0 L635 380 L1193 700 Z M592 -211 L631 -211 L583 -318 L628 -318 L691 -204 L691 -112 L592 -112 L592 -211 Z " />
<glyph glyph-name="uni0137" unicode="&#x137;" horiz-adv-x="1113" d="M1030 560 L867 560 L202 201 L202 560 L113 560 L113 0 L202 0 L202 114 L475 261 L947 0 L1102 0 L555 304 L1030 560 Z M501 -211 L540 -211 L492 -318 L537 -318 L600 -204 L600 -112 L501 -112 L501 -211 Z " />
<glyph glyph-name="kgreenlandic" unicode="&#x138;" horiz-adv-x="1244" d="M1189 453 L1150 453 L1198 560 L1153 560 L1090 446 L1090 354 L1189 354 L1189 453 Z M1030 560 L867 560 L202 201 L202 560 L113 560 L113 0 L202 0 L202 114 L475 261 L947 0 L1102 0 L555 304 L1030 560 Z " />
<glyph glyph-name="Lacute" unicode="&#x139;" horiz-adv-x="1129" d="M222 700 L123 700 L123 0 L1098 0 L1098 90 L222 90 L222 700 Z M100 775 L164 775 L321 946 L206 946 L100 775 Z " />
<glyph glyph-name="lacute" unicode="&#x13a;" horiz-adv-x="986" d="M202 560 L113 560 L113 0 L942 0 L942 77 L202 77 L202 560 Z M85 635 L149 635 L306 806 L191 806 L85 635 Z " />
<glyph glyph-name="uni013B" unicode="&#x13b;" horiz-adv-x="1129" d="M222 700 L123 700 L123 0 L1098 0 L1098 90 L222 90 L222 700 Z M557 -211 L596 -211 L548 -318 L593 -318 L656 -204 L656 -112 L557 -112 L557 -211 Z " />
<glyph glyph-name="uni013C" unicode="&#x13c;" horiz-adv-x="986" d="M202 560 L113 560 L113 0 L942 0 L942 77 L202 77 L202 560 Z M482 -211 L521 -211 L473 -318 L518 -318 L581 -204 L581 -112 L482 -112 L482 -211 Z " />
<glyph glyph-name="Lcaron" unicode="&#x13d;" horiz-adv-x="1129" d="M222 700 L123 700 L123 0 L1098 0 L1098 90 L222 90 L222 700 Z M873 591 L922 591 L874 470 L920 470 L982 598 L982 700 L873 700 L873 591 Z " />
<glyph glyph-name="lcaron" unicode="&#x13e;" horiz-adv-x="986" d="M202 560 L113 560 L113 0 L942 0 L942 77 L202 77 L202 560 Z M757 461 L796 461 L748 354 L793 354 L856 468 L856 560 L757 560 L757 461 Z " />
<glyph glyph-name="Ldot" unicode="&#x13f;" horiz-adv-x="1129" d="M222 700 L123 700 L123 0 L1098 0 L1098 90 L222 90 L222 700 Z M725 345 L824 345 L824 444 L725 444 L725 345 Z " />
<glyph glyph-name="ldot" unicode="&#x140;" horiz-adv-x="986" d="M202 560 L113 560 L113 0 L942 0 L942 77 L202 77 L202 560 Z M633 269 L732 269 L732 368 L633 368 L633 269 Z " />
<glyph glyph-name="Lslash" unicode="&#x141;" horiz-adv-x="1129" d="M593 560 L222 368 L222 700 L123 700 L123 319 L24 271 L24 171 L123 223 L123 0 L1098 0 L1098 90 L222 90 L222 273 L593 460 L593 560 Z " />
<glyph glyph-name="lslash" unicode="&#x142;" horiz-adv-x="986" d="M513 452 L202 301 L202 560 L113 560 L113 259 L29 220 L29 134 L113 175 L113 0 L942 0 L942 77 L202 77 L202 219 L513 365 L513 452 Z " />
<glyph glyph-name="Nacute" unicode="&#x143;" horiz-adv-x="1305" d="M1088 0 L1182 0 L1182 700 L1083 700 L1083 116 L217 700 L123 700 L123 0 L222 0 L222 584 L1088 0 Z M579 775 L643 775 L800 946 L685 946 L579 775 Z " />
<glyph glyph-name="nacute" unicode="&#x144;" horiz-adv-x="1127" d="M1014 0 L1014 560 L925 560 L925 100 L197 560 L113 560 L113 0 L202 0 L202 460 L930 0 L1014 0 Z M490 635 L554 635 L711 806 L596 806 L490 635 Z " />
<glyph glyph-name="uni0145" unicode="&#x145;" horiz-adv-x="1305" d="M603 -211 L642 -211 L594 -318 L639 -318 L702 -204 L702 -112 L603 -112 L603 -211 Z M1088 0 L1182 0 L1182 700 L1083 700 L1083 116 L217 700 L123 700 L123 0 L222 0 L222 584 L1088 0 Z " />
<glyph glyph-name="uni0146" unicode="&#x146;" horiz-adv-x="1127" d="M514 -211 L553 -211 L505 -318 L550 -318 L613 -204 L613 -112 L514 -112 L514 -211 Z M1014 0 L1014 560 L925 560 L925 100 L197 560 L113 560 L113 0 L202 0 L202 460 L930 0 L1014 0 Z " />
<glyph glyph-name="Ncaron" unicode="&#x147;" horiz-adv-x="1305" d="M1088 0 L1182 0 L1182 700 L1083 700 L1083 116 L217 700 L123 700 L123 0 L222 0 L222 584 L1088 0 Z M832 946 L768 946 L652 826 L536 946 L472 946 L593 775 L711 775 L832 946 Z " />
<glyph glyph-name="ncaron" unicode="&#x148;" horiz-adv-x="1127" d="M1014 0 L1014 560 L925 560 L925 100 L197 560 L113 560 L113 0 L202 0 L202 460 L930 0 L1014 0 Z M743 806 L679 806 L563 686 L447 806 L383 806 L504 635 L622 635 L743 806 Z " />
<glyph glyph-name="napostrophe" unicode="&#x149;" horiz-adv-x="1330" d="M60 601 L99 601 L51 494 L96 494 L159 608 L159 700 L60 700 L60 601 Z M1217 0 L1217 560 L1128 560 L1128 100 L400 560 L316 560 L316 0 L405 0 L405 460 L1133 0 L1217 0 Z " />
<glyph glyph-name="Eng" unicode="&#x14a;" horiz-adv-x="1305" d="M748 -230 L932 -230 C1113 -230 1182 -143 1182 -34 L1182 700 L1083 700 L1083 116 L217 700 L123 700 L123 0 L222 0 L222 584 L1083 3 L1083 -33 C1083 -91 1044 -140 930 -140 L748 -140 L748 -230 Z " />
<glyph glyph-name="eng" unicode="&#x14b;" horiz-adv-x="1127" d="M644 -184 L807 -184 C961 -184 1014 -114 1014 -26 L1014 560 L925 560 L925 100 L197 560 L113 560 L113 0 L202 0 L202 460 L925 3 L925 -25 C925 -69 899 -107 804 -107 L644 -107 L644 -184 Z " />
<glyph glyph-name="Omacron" unicode="&#x14c;" horiz-adv-x="1348" d="M818 -10 C1144 -10 1272 151 1272 350 C1272 549 1144 710 818 710 L530 710 C204 710 76 549 76 350 C76 151 204 -10 530 -10 L818 -10 Z M531 80 C269 80 181 200 181 350 C181 499 269 620 531 620 L817 620 C1078 620 1166 499 1166 350 C1166 200 1078 80 817 80 L531 80 Z M492 827 L856 827 L856 892 L492 892 L492 827 Z " />
<glyph glyph-name="omacron" unicode="&#x14d;" horiz-adv-x="1155" d="M708 -8 C985 -8 1086 121 1086 280 C1086 439 985 568 708 568 L447 568 C170 568 69 439 69 280 C69 121 170 -8 447 -8 L708 -8 Z M448 69 C228 69 163 163 163 280 C163 396 228 490 448 490 L707 490 C927 490 992 396 992 280 C992 163 927 69 707 69 L448 69 Z M395 687 L759 687 L759 752 L395 752 L395 687 Z " />
<glyph glyph-name="Obreve" unicode="&#x14e;" horiz-adv-x="1348" d="M818 -10 C1144 -10 1272 151 1272 350 C1272 549 1144 710 818 710 L530 710 C204 710 76 549 76 350 C76 151 204 -10 530 -10 L818 -10 Z M531 80 C269 80 181 200 181 350 C181 499 269 620 531 620 L817 620 C1078 620 1166 499 1166 350 C1166 200 1078 80 817 80 L531 80 Z M674 848 C594 848 564 888 559 936 L504 936 C509 862 545 784 674 784 C801 784 838 862 843 936 L788 936 C783 888 753 848 674 848 L674 848 Z " />
<glyph glyph-name="obreve" unicode="&#x14f;" horiz-adv-x="1155" d="M708 -8 C985 -8 1086 121 1086 280 C1086 439 985 568 708 568 L447 568 C170 568 69 439 69 280 C69 121 170 -8 447 -8 L708 -8 Z M448 69 C228 69 163 163 163 280 C163 396 228 490 448 490 L707 490 C927 490 992 396 992 280 C992 163 927 69 707 69 L448 69 Z M578 708 C498 708 468 748 463 796 L408 796 C413 722 449 644 578 644 C705 644 742 722 747 796 L692 796 C687 748 657 708 578 708 L578 708 Z " />
<glyph glyph-name="Ohungarumlaut" unicode="&#x150;" horiz-adv-x="1348" d="M818 -10 C1144 -10 1272 151 1272 350 C1272 549 1144 710 818 710 L530 710 C204 710 76 549 76 350 C76 151 204 -10 530 -10 L818 -10 Z M531 80 C269 80 181 200 181 350 C181 499 269 620 531 620 L817 620 C1078 620 1166 499 1166 350 C1166 200 1078 80 817 80 L531 80 Z M718 775 L782 775 L939 946 L824 946 L718 775 Z M482 775 L546 775 L703 946 L589 946 L482 775 Z " />
<glyph glyph-name="ohungarumlaut" unicode="&#x151;" horiz-adv-x="1155" d="M708 -8 C985 -8 1086 121 1086 280 C1086 439 985 568 708 568 L447 568 C170 568 69 439 69 280 C69 121 170 -8 447 -8 L708 -8 Z M448 69 C228 69 163 163 163 280 C163 396 228 490 448 490 L707 490 C927 490 992 396 992 280 C992 163 927 69 707 69 L448 69 Z M622 635 L686 635 L843 806 L728 806 L622 635 Z M386 635 L450 635 L607 806 L493 806 L386 635 Z " />
<glyph glyph-name="OE" unicode="&#x152;" horiz-adv-x="1745" d="M76 350 C76 157 200 0 517 0 L1664 0 L1664 90 L873 90 L873 309 L1562 309 L1562 391 L873 391 L873 610 L1664 610 L1664 700 L517 700 C200 700 76 543 76 350 L76 350 Z M181 350 C181 493 265 610 518 610 L774 610 L774 90 L518 90 C265 90 181 206 181 350 L181 350 Z " />
<glyph glyph-name="oe" unicode="&#x153;" horiz-adv-x="1494" d="M69 280 C69 126 166 0 436 0 L1420 0 L1420 77 L751 77 L751 245 L1332 245 L1332 314 L751 314 L751 482 L1420 482 L1420 560 L436 560 C166 560 69 434 69 280 L69 280 Z M163 280 C163 391 225 482 436 482 L662 482 L662 77 L436 77 C225 77 163 168 163 280 L163 280 Z " />
<glyph glyph-name="Racute" unicode="&#x154;" horiz-adv-x="1278" d="M123 0 L222 0 L222 266 L648 266 L1104 0 L1272 0 L803 268 L872 268 C1070 268 1148 362 1148 484 C1148 603 1070 700 872 700 L123 700 L123 0 Z M868 610 C1002 610 1045 552 1045 482 C1045 410 1002 353 868 353 L222 353 L222 610 L868 610 Z M526 775 L590 775 L747 946 L632 946 L526 775 Z " />
<glyph glyph-name="racute" unicode="&#x155;" horiz-adv-x="1105" d="M113 0 L202 0 L202 210 L560 210 L939 0 L1090 0 L702 211 L756 211 C925 211 986 288 986 386 C986 482 925 560 756 560 L113 560 L113 0 Z M752 482 C864 482 893 438 893 384 C893 329 864 285 752 285 L202 285 L202 482 L752 482 Z M444 635 L508 635 L665 806 L550 806 L444 635 Z " />
<glyph glyph-name="uni0156" unicode="&#x156;" horiz-adv-x="1278" d="M123 0 L222 0 L222 266 L648 266 L1104 0 L1272 0 L803 268 L872 268 C1070 268 1148 362 1148 484 C1148 603 1070 700 872 700 L123 700 L123 0 Z M868 610 C1002 610 1045 552 1045 482 C1045 410 1002 353 868 353 L222 353 L222 610 L868 610 Z M585 -211 L624 -211 L576 -318 L621 -318 L684 -204 L684 -112 L585 -112 L585 -211 Z " />
<glyph glyph-name="uni0157" unicode="&#x157;" horiz-adv-x="1105" d="M113 0 L202 0 L202 210 L560 210 L939 0 L1090 0 L702 211 L756 211 C925 211 986 288 986 386 C986 482 925 560 756 560 L113 560 L113 0 Z M752 482 C864 482 893 438 893 384 C893 329 864 285 752 285 L202 285 L202 482 L752 482 Z M495 -211 L534 -211 L486 -318 L531 -318 L594 -204 L594 -112 L495 -112 L495 -211 Z " />
<glyph glyph-name="Rcaron" unicode="&#x158;" horiz-adv-x="1278" d="M123 0 L222 0 L222 266 L648 266 L1104 0 L1272 0 L803 268 L872 268 C1070 268 1148 362 1148 484 C1148 603 1070 700 872 700 L123 700 L123 0 Z M868 610 C1002 610 1045 552 1045 482 C1045 410 1002 353 868 353 L222 353 L222 610 L868 610 Z M780 946 L716 946 L600 826 L484 946 L420 946 L541 775 L659 775 L780 946 Z " />
<glyph glyph-name="rcaron" unicode="&#x159;" horiz-adv-x="1105" d="M113 0 L202 0 L202 210 L560 210 L939 0 L1090 0 L702 211 L756 211 C925 211 986 288 986 386 C986 482 925 560 756 560 L113 560 L113 0 Z M752 482 C864 482 893 438 893 384 C893 329 864 285 752 285 L202 285 L202 482 L752 482 Z M698 806 L634 806 L518 686 L402 806 L338 806 L459 635 L577 635 L698 806 Z " />
<glyph glyph-name="Sacute" unicode="&#x15a;" horiz-adv-x="1207" d="M113 0 L884 0 C1064 0 1134 87 1134 195 C1134 306 1064 391 884 391 L325 391 C210 391 176 440 176 500 C176 559 210 610 325 610 L1094 610 L1094 700 L323 700 C142 700 73 613 73 504 C73 394 142 309 323 309 L881 309 C997 309 1030 260 1030 199 C1030 140 997 90 881 90 L113 90 L113 0 Z M529 775 L593 775 L750 946 L635 946 L529 775 Z " />
<glyph glyph-name="sacute" unicode="&#x15b;" horiz-adv-x="1032" d="M99 0 L760 0 C914 0 967 69 967 157 C967 246 914 314 760 314 L277 314 C182 314 158 352 158 398 C158 444 182 482 277 482 L933 482 L933 560 L272 560 C118 560 65 490 65 402 C65 313 118 245 272 245 L755 245 C850 245 874 208 874 161 C874 115 850 77 755 77 L99 77 L99 0 Z M442 635 L506 635 L663 806 L548 806 L442 635 Z " />
<glyph glyph-name="Scircumflex" unicode="&#x15c;" horiz-adv-x="1207" d="M113 0 L884 0 C1064 0 1134 87 1134 195 C1134 306 1064 391 884 391 L325 391 C210 391 176 440 176 500 C176 559 210 610 325 610 L1094 610 L1094 700 L323 700 C142 700 73 613 73 504 C73 394 142 309 323 309 L881 309 C997 309 1030 260 1030 199 C1030 140 997 90 881 90 L113 90 L113 0 Z M662 946 L544 946 L423 775 L487 775 L603 895 L719 775 L783 775 L662 946 Z " />
<glyph glyph-name="scircumflex" unicode="&#x15d;" horiz-adv-x="1032" d="M99 0 L760 0 C914 0 967 69 967 157 C967 246 914 314 760 314 L277 314 C182 314 158 352 158 398 C158 444 182 482 277 482 L933 482 L933 560 L272 560 C118 560 65 490 65 402 C65 313 118 245 272 245 L755 245 C850 245 874 208 874 161 C874 115 850 77 755 77 L99 77 L99 0 Z M575 806 L457 806 L336 635 L400 635 L516 755 L632 635 L696 635 L575 806 Z " />
<glyph glyph-name="Scedilla" unicode="&#x15e;" horiz-adv-x="1207" d="M113 0 L581 0 L551 -112 L578 -112 C641 -112 674 -124 674 -165 C674 -236 527 -222 482 -197 L482 -241 C556 -278 745 -292 745 -167 C745 -88 679 -70 602 -70 L601 -70 L619 0 L884 0 C1064 0 1134 87 1134 195 C1134 306 1064 391 884 391 L325 391 C210 391 176 440 176 500 C176 559 210 610 325 610 L1094 610 L1094 700 L323 700 C142 700 73 613 73 504 C73 394 142 309 323 309 L881 309 C997 309 1030 260 1030 199 C1030 140 997 90 881 90 L113 90 L113 0 Z " />
<glyph glyph-name="scedilla" unicode="&#x15f;" horiz-adv-x="1032" d="M99 0 L493 0 L463 -112 L490 -112 C553 -112 586 -124 586 -165 C586 -236 439 -222 394 -197 L394 -241 C468 -278 657 -292 657 -167 C657 -88 591 -70 514 -70 L513 -70 L531 0 L760 0 C914 0 967 69 967 157 C967 246 914 314 760 314 L277 314 C182 314 158 352 158 398 C158 444 182 482 277 482 L933 482 L933 560 L272 560 C118 560 65 490 65 402 C65 313 118 245 272 245 L755 245 C850 245 874 208 874 161 C874 115 850 77 755 77 L99 77 L99 0 Z " />
<glyph glyph-name="Scaron" unicode="&#x160;" horiz-adv-x="1207" d="M113 0 L884 0 C1064 0 1134 87 1134 195 C1134 306 1064 391 884 391 L325 391 C210 391 176 440 176 500 C176 559 210 610 325 610 L1094 610 L1094 700 L323 700 C142 700 73 613 73 504 C73 394 142 309 323 309 L881 309 C997 309 1030 260 1030 199 C1030 140 997 90 881 90 L113 90 L113 0 Z M783 946 L719 946 L603 826 L487 946 L423 946 L544 775 L662 775 L783 946 Z " />
<glyph glyph-name="scaron" unicode="&#x161;" horiz-adv-x="1032" d="M99 0 L760 0 C914 0 967 69 967 157 C967 246 914 314 760 314 L277 314 C182 314 158 352 158 398 C158 444 182 482 277 482 L933 482 L933 560 L272 560 C118 560 65 490 65 402 C65 313 118 245 272 245 L755 245 C850 245 874 208 874 161 C874 115 850 77 755 77 L99 77 L99 0 Z M696 806 L632 806 L516 686 L400 806 L336 806 L457 635 L575 635 L696 806 Z " />
<glyph glyph-name="uni0162" unicode="&#x162;" horiz-adv-x="1184" d="M31 610 L542 610 L542 0 L569 0 L539 -112 L566 -112 C629 -112 662 -124 662 -165 C662 -236 515 -222 470 -197 L470 -241 C544 -278 733 -292 733 -167 C733 -88 667 -70 590 -70 L589 -70 L607 0 L641 0 L641 610 L1153 610 L1153 700 L31 700 L31 610 Z " />
<glyph glyph-name="uni0163" unicode="&#x163;" horiz-adv-x="1041" d="M44 482 L476 482 L476 0 L498 0 L468 -112 L495 -112 C558 -112 591 -124 591 -165 C591 -236 444 -222 399 -197 L399 -241 C473 -278 662 -292 662 -167 C662 -88 596 -70 519 -70 L518 -70 L536 0 L565 0 L565 482 L997 482 L997 560 L44 560 L44 482 Z " />
<glyph glyph-name="Tcaron" unicode="&#x164;" horiz-adv-x="1184" d="M31 610 L542 610 L542 0 L641 0 L641 610 L1153 610 L1153 700 L31 700 L31 610 Z M772 946 L708 946 L592 826 L476 946 L412 946 L533 775 L651 775 L772 946 Z " />
<glyph glyph-name="tcaron" unicode="&#x165;" horiz-adv-x="1041" d="M700 806 L636 806 L520 686 L404 806 L340 806 L461 635 L579 635 L700 806 Z M44 482 L476 482 L476 0 L565 0 L565 482 L997 482 L997 560 L44 560 L44 482 Z " />
<glyph glyph-name="Tbar" unicode="&#x166;" horiz-adv-x="1184" d="M31 610 L542 610 L542 389 L270 389 L270 311 L542 311 L542 0 L641 0 L641 311 L914 311 L914 389 L641 389 L641 610 L1153 610 L1153 700 L31 700 L31 610 Z " />
<glyph glyph-name="tbar" unicode="&#x167;" horiz-adv-x="1041" d="M44 482 L476 482 L476 306 L235 306 L235 239 L476 239 L476 0 L565 0 L565 239 L805 239 L805 306 L565 306 L565 482 L997 482 L997 560 L44 560 L44 482 Z " />
<glyph glyph-name="Utilde" unicode="&#x168;" horiz-adv-x="1275" d="M202 323 L202 700 L103 700 L103 323 C103 130 207 -10 524 -10 L751 -10 C1068 -10 1172 130 1172 323 L1172 700 L1073 700 L1073 323 C1073 181 999 80 750 80 L525 80 C275 80 202 181 202 323 L202 323 Z M763 932 C758 877 740 866 713 866 C669 866 626 925 562 925 C506 925 469 893 462 788 L512 788 C517 843 536 855 562 855 C606 855 649 795 714 795 C769 795 807 827 813 932 L763 932 Z " />
<glyph glyph-name="utilde" unicode="&#x169;" horiz-adv-x="1095" d="M181 258 L181 560 L93 560 L93 258 C93 104 173 -8 442 -8 L652 -8 C921 -8 1002 104 1002 258 L1002 560 L913 560 L913 258 C913 148 860 69 651 69 L443 69 C234 69 181 148 181 258 L181 258 Z M673 792 C668 737 650 726 623 726 C579 726 536 785 472 785 C416 785 379 753 372 648 L422 648 C427 703 446 715 472 715 C516 715 559 655 624 655 C679 655 717 687 723 792 L673 792 Z " />
<glyph glyph-name="Umacron" unicode="&#x16a;" horiz-adv-x="1275" d="M202 323 L202 700 L103 700 L103 323 C103 130 207 -10 524 -10 L751 -10 C1068 -10 1172 130 1172 323 L1172 700 L1073 700 L1073 323 C1073 181 999 80 750 80 L525 80 C275 80 202 181 202 323 L202 323 Z M455 827 L819 827 L819 892 L455 892 L455 827 Z " />
<glyph glyph-name="umacron" unicode="&#x16b;" horiz-adv-x="1095" d="M181 258 L181 560 L93 560 L93 258 C93 104 173 -8 442 -8 L652 -8 C921 -8 1002 104 1002 258 L1002 560 L913 560 L913 258 C913 148 860 69 651 69 L443 69 C234 69 181 148 181 258 L181 258 Z M365 687 L729 687 L729 752 L365 752 L365 687 Z " />
<glyph glyph-name="Ubreve" unicode="&#x16c;" horiz-adv-x="1275" d="M202 323 L202 700 L103 700 L103 323 C103 130 207 -10 524 -10 L751 -10 C1068 -10 1172 130 1172 323 L1172 700 L1073 700 L1073 323 C1073 181 999 80 750 80 L525 80 C275 80 202 181 202 323 L202 323 Z M638 848 C558 848 528 888 523 936 L468 936 C473 862 509 784 638 784 C765 784 802 862 807 936 L752 936 C747 888 717 848 638 848 L638 848 Z " />
<glyph glyph-name="ubreve" unicode="&#x16d;" horiz-adv-x="1095" d="M181 258 L181 560 L93 560 L93 258 C93 104 173 -8 442 -8 L652 -8 C921 -8 1002 104 1002 258 L1002 560 L913 560 L913 258 C913 148 860 69 651 69 L443 69 C234 69 181 148 181 258 L181 258 Z M548 708 C468 708 438 748 433 796 L378 796 C383 722 419 644 548 644 C675 644 712 722 717 796 L662 796 C657 748 627 708 548 708 L548 708 Z " />
<glyph glyph-name="Uring" unicode="&#x16e;" horiz-adv-x="1275" d="M202 323 L202 700 L103 700 L103 323 C103 130 207 -10 524 -10 L751 -10 C1068 -10 1172 130 1172 323 L1172 700 L1073 700 L1073 323 C1073 181 999 80 750 80 L525 80 C275 80 202 181 202 323 L202 323 Z M576 861 C576 894 604 921 637 921 C671 921 698 894 698 861 C698 827 671 800 637 800 C604 800 576 827 576 861 L576 861 Z M518 861 C518 799 569 749 637 749 C705 749 756 799 756 861 C756 923 705 972 637 972 C569 972 518 923 518 861 L518 861 Z " />
<glyph glyph-name="uring" unicode="&#x16f;" horiz-adv-x="1095" d="M181 258 L181 560 L93 560 L93 258 C93 104 173 -8 442 -8 L652 -8 C921 -8 1002 104 1002 258 L1002 560 L913 560 L913 258 C913 148 860 69 651 69 L443 69 C234 69 181 148 181 258 L181 258 Z M486 721 C486 754 514 781 547 781 C581 781 608 754 608 721 C608 687 581 660 547 660 C514 660 486 687 486 721 L486 721 Z M428 721 C428 659 479 609 547 609 C615 609 666 659 666 721 C666 783 615 832 547 832 C479 832 428 783 428 721 L428 721 Z " />
<glyph glyph-name="Uhungarumlaut" unicode="&#x170;" horiz-adv-x="1275" d="M202 323 L202 700 L103 700 L103 323 C103 130 207 -10 524 -10 L751 -10 C1068 -10 1172 130 1172 323 L1172 700 L1073 700 L1073 323 C1073 181 999 80 750 80 L525 80 C275 80 202 181 202 323 L202 323 Z M682 775 L746 775 L903 946 L788 946 L682 775 Z M446 775 L510 775 L667 946 L553 946 L446 775 Z " />
<glyph glyph-name="uhungarumlaut" unicode="&#x171;" horiz-adv-x="1095" d="M181 258 L181 560 L93 560 L93 258 C93 104 173 -8 442 -8 L652 -8 C921 -8 1002 104 1002 258 L1002 560 L913 560 L913 258 C913 148 860 69 651 69 L443 69 C234 69 181 148 181 258 L181 258 Z M592 635 L656 635 L813 806 L698 806 L592 635 Z M356 635 L420 635 L577 806 L463 806 L356 635 Z " />
<glyph glyph-name="Uogonek" unicode="&#x172;" horiz-adv-x="1275" d="M665 -167 C665 -224 715 -258 788 -258 C829 -258 867 -253 912 -235 L912 -190 C875 -205 852 -209 824 -209 C778 -209 745 -187 745 -145 C745 -78 810 -30 883 0 C1097 34 1172 160 1172 323 L1172 700 L1073 700 L1073 323 C1073 181 999 80 750 80 L525 80 C275 80 202 181 202 323 L202 700 L103 700 L103 323 C103 130 207 -10 524 -10 L751 -10 C769 -10 786 -9 803 -8 C733 -37 665 -93 665 -167 L665 -167 Z " />
<glyph glyph-name="uogonek" unicode="&#x173;" horiz-adv-x="1095" d="M545 -167 C545 -224 595 -258 668 -258 C709 -258 747 -253 792 -235 L792 -190 C755 -205 732 -209 704 -209 C658 -209 625 -187 625 -145 C625 -78 691 -30 763 0 C944 28 1002 128 1002 258 L1002 560 L913 560 L913 258 C913 148 860 69 651 69 L443 69 C234 69 181 148 181 258 L181 560 L93 560 L93 258 C93 104 173 -8 442 -8 L652 -8 C664 -8 675 -7 687 -7 C616 -36 545 -91 545 -167 L545 -167 Z " />
<glyph glyph-name="Wcircumflex" unicode="&#x174;" horiz-adv-x="1618" d="M809 577 L1127 0 L1201 0 L1595 700 L1476 700 L1163 123 L846 700 L772 700 L454 123 L142 700 L23 700 L416 0 L490 0 L809 577 Z M868 946 L750 946 L629 775 L693 775 L809 895 L925 775 L989 775 L868 946 Z " />
<glyph glyph-name="wcircumflex" unicode="&#x175;" horiz-adv-x="1383" d="M692 454 L959 0 L1026 0 L1360 560 L1254 560 L991 106 L725 560 L658 560 L393 106 L129 560 L23 560 L358 0 L424 0 L692 454 Z M750 806 L632 806 L511 635 L575 635 L691 755 L807 635 L871 635 L750 806 Z " />
<glyph glyph-name="Ycircumflex" unicode="&#x176;" horiz-adv-x="1248" d="M574 0 L673 0 L673 211 L1247 700 L1100 700 L624 290 L148 700 L1 700 L574 211 L574 0 Z M683 946 L565 946 L444 775 L508 775 L624 895 L740 775 L804 775 L683 946 Z " />
<glyph glyph-name="ycircumflex" unicode="&#x177;" horiz-adv-x="1062" d="M487 0 L576 0 L576 170 L1061 560 L929 560 L531 237 L133 560 L1 560 L487 170 L487 0 Z M590 806 L472 806 L351 635 L415 635 L531 755 L647 635 L711 635 L590 806 Z " />
<glyph glyph-name="Ydieresis" unicode="&#x178;" horiz-adv-x="1248" d="M574 0 L673 0 L673 211 L1247 700 L1100 700 L624 290 L148 700 L1 700 L574 211 L574 0 Z M708 810 L807 810 L807 909 L708 909 L708 810 Z M440 810 L539 810 L539 909 L440 909 L440 810 Z " />
<glyph glyph-name="Zacute" unicode="&#x179;" horiz-adv-x="1196" d="M73 0 L1133 0 L1133 90 L265 90 L1113 629 L1113 700 L83 700 L83 610 L919 610 L73 70 L73 0 Z M524 775 L588 775 L745 946 L630 946 L524 775 Z " />
<glyph glyph-name="zacute" unicode="&#x17a;" horiz-adv-x="1024" d="M66 0 L968 0 L968 77 L239 77 L951 499 L951 560 L75 560 L75 482 L777 482 L66 60 L66 0 Z M438 635 L502 635 L659 806 L544 806 L438 635 Z " />
<glyph glyph-name="Zdotaccent" unicode="&#x17b;" horiz-adv-x="1196" d="M73 0 L1133 0 L1133 90 L265 90 L1113 629 L1113 700 L83 700 L83 610 L919 610 L73 70 L73 0 Z M548 810 L647 810 L647 909 L548 909 L548 810 Z " />
<glyph glyph-name="zdotaccent" unicode="&#x17c;" horiz-adv-x="1024" d="M66 0 L968 0 L968 77 L239 77 L951 499 L951 560 L75 560 L75 482 L777 482 L66 60 L66 0 Z M462 670 L561 670 L561 769 L462 769 L462 670 Z " />
<glyph glyph-name="Zcaron" unicode="&#x17d;" horiz-adv-x="1196" d="M73 0 L1133 0 L1133 90 L265 90 L1113 629 L1113 700 L83 700 L83 610 L919 610 L73 70 L73 0 Z M778 946 L714 946 L598 826 L482 946 L418 946 L539 775 L657 775 L778 946 Z " />
<glyph glyph-name="zcaron" unicode="&#x17e;" horiz-adv-x="1024" d="M66 0 L968 0 L968 77 L239 77 L951 499 L951 560 L75 560 L75 482 L777 482 L66 60 L66 0 Z M692 806 L628 806 L512 686 L396 806 L332 806 L453 635 L571 635 L692 806 Z " />
<glyph glyph-name="uni0186" unicode="&#x186;" horiz-adv-x="1184" d="M1003 350 C1003 206 919 90 666 90 L81 90 L81 0 L667 0 C984 0 1108 157 1108 350 C1108 543 984 700 667 700 L81 700 L81 610 L666 610 C919 610 1003 493 1003 350 L1003 350 Z " />
<glyph glyph-name="uni0189" unicode="&#x189;" horiz-adv-x="1255" d="M-7 309 L123 309 L123 0 L738 0 C1055 0 1179 157 1179 350 C1179 543 1055 700 738 700 L123 700 L123 391 L-7 391 L-7 309 Z M737 610 C989 610 1073 493 1073 350 C1073 206 989 90 737 90 L222 90 L222 309 L637 309 L637 391 L222 391 L222 610 L737 610 Z " />
<glyph glyph-name="uni018E" unicode="&#x18e;" horiz-adv-x="1199" d="M1076 700 L81 700 L81 610 L977 610 L977 391 L183 391 L183 309 L977 309 L977 90 L81 90 L81 0 L1076 0 L1076 700 Z " />
<glyph glyph-name="florin" unicode="&#x192;" horiz-adv-x="1298" d="M493 92 C483 -5 440 -70 285 -70 L180 -70 L180 -160 L285 -160 C496 -160 576 -59 591 88 L614 307 L932 307 L932 389 L623 389 L629 447 C638 535 696 610 855 610 L1128 610 L1128 700 L859 700 C635 700 544 589 530 452 L523 389 L300 389 L300 307 L515 307 L493 92 Z " />
<glyph glyph-name="Ohorn" unicode="&#x1a0;" horiz-adv-x="1348" d="M818 -10 C1144 -10 1272 151 1272 350 C1272 473 1223 581 1109 646 L1185 646 C1283 646 1355 667 1355 772 C1355 788 1353 806 1350 826 L1256 826 C1259 808 1261 793 1261 780 C1261 712 1222 700 1160 700 L948 700 C908 706 865 710 818 710 L530 710 C204 710 76 549 76 350 C76 151 204 -10 530 -10 L818 -10 Z M531 80 C269 80 181 200 181 350 C181 499 269 620 531 620 L817 620 C1078 620 1166 499 1166 350 C1166 200 1078 80 817 80 L531 80 Z " />
<glyph glyph-name="ohorn" unicode="&#x1a1;" horiz-adv-x="1155" d="M708 -8 C985 -8 1086 121 1086 280 C1086 372 1052 453 970 506 L992 506 C1090 506 1162 527 1162 632 C1162 648 1160 666 1157 686 L1063 686 C1066 668 1068 653 1068 640 C1068 572 1029 560 967 560 L817 560 C784 565 748 568 708 568 L447 568 C170 568 69 439 69 280 C69 121 170 -8 447 -8 L708 -8 Z M448 69 C228 69 163 163 163 280 C163 396 228 490 448 490 L707 490 C927 490 992 396 992 280 C992 163 927 69 707 69 L448 69 Z " />
<glyph glyph-name="uni01A7" unicode="&#x1a7;" horiz-adv-x="1207" d="M1094 90 L326 90 C210 90 177 140 177 199 C177 260 210 309 326 309 L884 309 C1065 309 1134 394 1134 504 C1134 613 1065 700 884 700 L113 700 L113 610 L882 610 C997 610 1031 559 1031 500 C1031 440 997 391 882 391 L323 391 C143 391 73 306 73 195 C73 87 143 0 323 0 L1094 0 L1094 90 Z " />
<glyph glyph-name="uni01A8" unicode="&#x1a8;" horiz-adv-x="1032" d="M933 77 L277 77 C182 77 158 115 158 161 C158 208 182 245 277 245 L760 245 C914 245 967 313 967 402 C967 490 914 560 760 560 L99 560 L99 482 L755 482 C850 482 874 444 874 398 C874 352 850 314 755 314 L272 314 C118 314 65 246 65 157 C65 69 118 0 272 0 L933 0 L933 77 Z " />
<glyph glyph-name="Uhorn" unicode="&#x1af;" horiz-adv-x="1424" d="M202 323 L202 700 L103 700 L103 323 C103 130 207 -10 524 -10 L751 -10 C1068 -10 1172 130 1172 323 L1172 646 L1256 646 C1354 646 1426 667 1426 772 C1426 788 1424 806 1421 826 L1327 826 C1330 808 1332 793 1332 780 C1332 712 1293 700 1231 700 L1073 700 L1073 323 C1073 181 999 80 750 80 L525 80 C275 80 202 181 202 323 L202 323 Z " />
<glyph glyph-name="uhorn" unicode="&#x1b0;" horiz-adv-x="1254" d="M181 258 L181 560 L93 560 L93 258 C93 104 173 -8 442 -8 L652 -8 C921 -8 1002 104 1002 258 L1002 506 L1086 506 C1184 506 1256 527 1256 632 C1256 648 1254 666 1251 686 L1157 686 C1160 668 1162 653 1162 640 C1162 572 1123 560 1061 560 L913 560 L913 258 C913 148 860 69 651 69 L443 69 C234 69 181 148 181 258 L181 258 Z " />
<glyph glyph-name="uni01B1" unicode="&#x1b1;" horiz-adv-x="1356" d="M844 625 C1076 586 1159 464 1159 331 C1159 192 1078 80 835 80 L521 80 C277 80 197 192 197 331 C197 465 279 586 512 625 L512 700 L70 700 L70 610 L293 610 C156 545 100 428 100 309 C100 133 214 -10 503 -10 L853 -10 C1142 -10 1256 133 1256 309 C1256 428 1199 545 1062 610 L1286 610 L1286 700 L844 700 L844 625 Z " />
<glyph glyph-name="uni01C0" unicode="&#x1c0;" horiz-adv-x="331" d="M208 800 L123 800 L123 -100 L208 -100 L208 800 Z " />
<glyph glyph-name="uni01C1" unicode="&#x1c1;" horiz-adv-x="646" d="M208 800 L123 800 L123 -100 L208 -100 L208 800 Z M523 800 L438 800 L438 -100 L523 -100 L523 800 Z " />
<glyph glyph-name="uni01C2" unicode="&#x1c2;" horiz-adv-x="734" d="M409 157 L691 157 L691 233 L409 233 L409 467 L691 467 L691 543 L409 543 L409 800 L324 800 L324 543 L43 543 L43 467 L324 467 L324 233 L43 233 L43 157 L324 157 L324 -100 L409 -100 L409 157 Z " />
<glyph glyph-name="uni01C3" unicode="&#x1c3;" horiz-adv-x="345" d="M117 0 L227 0 L227 109 L117 109 L117 0 Z M128 176 L216 176 L222 700 L122 700 L128 176 Z " />
<glyph glyph-name="uni01C4" unicode="&#x1c4;" horiz-adv-x="2451" d="M123 0 L738 0 C1055 0 1179 157 1179 350 C1179 543 1055 700 738 700 L123 700 L123 0 Z M737 610 C989 610 1073 493 1073 350 C1073 206 989 90 737 90 L222 90 L222 610 L737 610 Z M1328 0 L2388 0 L2388 90 L1520 90 L2368 629 L2368 700 L1338 700 L1338 610 L2174 610 L1328 70 L1328 0 Z M2033 946 L1969 946 L1853 826 L1737 946 L1673 946 L1794 775 L1912 775 L2033 946 Z " />
<glyph glyph-name="uni01C5" unicode="&#x1c5;" horiz-adv-x="2279" d="M123 0 L738 0 C1055 0 1179 157 1179 350 C1179 543 1055 700 738 700 L123 700 L123 0 Z M737 610 C989 610 1073 493 1073 350 C1073 206 989 90 737 90 L222 90 L222 610 L737 610 Z M1321 0 L2223 0 L2223 77 L1494 77 L2206 499 L2206 560 L1330 560 L1330 482 L2032 482 L1321 60 L1321 0 Z M1947 806 L1883 806 L1767 686 L1651 806 L1587 806 L1708 635 L1826 635 L1947 806 Z " />
<glyph glyph-name="uni01C6" unicode="&#x1c6;" horiz-adv-x="2104" d="M113 0 L644 0 C914 0 1011 126 1011 280 C1011 434 914 560 644 560 L113 560 L113 0 Z M644 482 C855 482 917 391 917 280 C917 168 855 77 644 77 L202 77 L202 482 L644 482 Z M1146 0 L2048 0 L2048 77 L1319 77 L2031 499 L2031 560 L1155 560 L1155 482 L1857 482 L1146 60 L1146 0 Z M1772 806 L1708 806 L1592 686 L1476 806 L1412 806 L1533 635 L1651 635 L1772 806 Z " />
<glyph glyph-name="uni01C7" unicode="&#x1c7;" horiz-adv-x="2340" d="M222 700 L123 700 L123 0 L1098 0 L1098 90 L222 90 L222 700 Z M1515 -5 L1816 -5 C2133 -5 2237 132 2237 325 L2237 700 L2138 700 L2138 325 C2138 183 2064 85 1815 85 L1516 85 C1328 85 1271 170 1271 275 L1271 324 L1172 324 L1172 275 C1172 121 1261 -5 1515 -5 L1515 -5 Z " />
<glyph glyph-name="uni01C8" unicode="&#x1c8;" horiz-adv-x="2171" d="M222 700 L123 700 L123 0 L1098 0 L1098 90 L222 90 L222 700 Z M1458 -4 L1728 -4 C1998 -4 2078 106 2078 260 L2078 560 L1989 560 L1989 260 C1989 150 1936 73 1728 73 L1459 73 C1302 73 1261 139 1261 220 L1261 260 L1172 260 L1172 220 C1172 97 1242 -4 1458 -4 L1458 -4 Z " />
<glyph glyph-name="uni01C9" unicode="&#x1c9;" horiz-adv-x="2028" d="M202 560 L113 560 L113 0 L942 0 L942 77 L202 77 L202 560 Z M1315 -4 L1585 -4 C1855 -4 1935 106 1935 260 L1935 560 L1846 560 L1846 260 C1846 150 1793 73 1585 73 L1316 73 C1159 73 1118 139 1118 220 L1118 260 L1029 260 L1029 220 C1029 97 1099 -4 1315 -4 L1315 -4 Z " />
<glyph glyph-name="uni01CA" unicode="&#x1ca;" horiz-adv-x="2516" d="M1088 0 L1182 0 L1182 700 L1083 700 L1083 116 L217 700 L123 700 L123 0 L222 0 L222 584 L1088 0 Z M1691 -5 L1992 -5 C2309 -5 2413 132 2413 325 L2413 700 L2314 700 L2314 325 C2314 183 2240 85 1991 85 L1692 85 C1504 85 1447 170 1447 275 L1447 324 L1348 324 L1348 275 C1348 121 1437 -5 1691 -5 L1691 -5 Z " />
<glyph glyph-name="uni01CB" unicode="&#x1cb;" horiz-adv-x="2347" d="M1088 0 L1182 0 L1182 700 L1083 700 L1083 116 L217 700 L123 700 L123 0 L222 0 L222 584 L1088 0 Z M1634 -4 L1904 -4 C2174 -4 2254 106 2254 260 L2254 560 L2165 560 L2165 260 C2165 150 2112 73 1904 73 L1635 73 C1478 73 1437 139 1437 220 L1437 260 L1348 260 L1348 220 C1348 97 1418 -4 1634 -4 L1634 -4 Z " />
<glyph glyph-name="uni01CC" unicode="&#x1cc;" horiz-adv-x="2169" d="M1014 0 L1014 560 L925 560 L925 100 L197 560 L113 560 L113 0 L202 0 L202 460 L930 0 L1014 0 Z M1456 -4 L1726 -4 C1996 -4 2076 106 2076 260 L2076 560 L1987 560 L1987 260 C1987 150 1934 73 1726 73 L1457 73 C1300 73 1259 139 1259 220 L1259 260 L1170 260 L1170 220 C1170 97 1240 -4 1456 -4 L1456 -4 Z " />
<glyph glyph-name="uni01CD" unicode="&#x1cd;" horiz-adv-x="1273" d="M1140 0 L1262 0 L690 700 L583 700 L11 0 L133 0 L243 135 L1029 135 L1140 0 Z M636 616 L962 217 L310 217 L636 616 Z M816 946 L752 946 L636 826 L520 946 L456 946 L577 775 L695 775 L816 946 Z " />
<glyph glyph-name="uni01CE" unicode="&#x1ce;" horiz-adv-x="1089" d="M967 0 L1077 0 L592 560 L497 560 L12 0 L122 0 L219 112 L870 112 L967 0 Z M544 487 L810 181 L279 181 L544 487 Z M724 806 L660 806 L544 686 L428 806 L364 806 L485 635 L603 635 L724 806 Z " />
<glyph glyph-name="uni01CF" unicode="&#x1cf;" horiz-adv-x="345" d="M123 0 L222 0 L222 700 L123 700 L123 0 Z M353 946 L289 946 L173 826 L57 946 L-7 946 L114 775 L232 775 L353 946 Z " />
<glyph glyph-name="uni01D0" unicode="&#x1d0;" horiz-adv-x="315" d="M113 0 L202 0 L202 560 L113 560 L113 0 Z M338 806 L274 806 L158 686 L42 806 L-22 806 L99 635 L217 635 L338 806 Z " />
<glyph glyph-name="uni01D1" unicode="&#x1d1;" horiz-adv-x="1348" d="M818 -10 C1144 -10 1272 151 1272 350 C1272 549 1144 710 818 710 L530 710 C204 710 76 549 76 350 C76 151 204 -10 530 -10 L818 -10 Z M531 80 C269 80 181 200 181 350 C181 499 269 620 531 620 L817 620 C1078 620 1166 499 1166 350 C1166 200 1078 80 817 80 L531 80 Z M854 946 L790 946 L674 826 L558 946 L494 946 L615 775 L733 775 L854 946 Z " />
<glyph glyph-name="uni01D2" unicode="&#x1d2;" horiz-adv-x="1155" d="M708 -8 C985 -8 1086 121 1086 280 C1086 439 985 568 708 568 L447 568 C170 568 69 439 69 280 C69 121 170 -8 447 -8 L708 -8 Z M448 69 C228 69 163 163 163 280 C163 396 228 490 448 490 L707 490 C927 490 992 396 992 280 C992 163 927 69 707 69 L448 69 Z M757 806 L693 806 L577 686 L461 806 L397 806 L518 635 L636 635 L757 806 Z " />
<glyph glyph-name="uni01D3" unicode="&#x1d3;" horiz-adv-x="1275" d="M202 323 L202 700 L103 700 L103 323 C103 130 207 -10 524 -10 L751 -10 C1068 -10 1172 130 1172 323 L1172 700 L1073 700 L1073 323 C1073 181 999 80 750 80 L525 80 C275 80 202 181 202 323 L202 323 Z M817 946 L753 946 L637 826 L521 946 L457 946 L578 775 L696 775 L817 946 Z " />
<glyph glyph-name="uni01D4" unicode="&#x1d4;" horiz-adv-x="1095" d="M181 258 L181 560 L93 560 L93 258 C93 104 173 -8 442 -8 L652 -8 C921 -8 1002 104 1002 258 L1002 560 L913 560 L913 258 C913 148 860 69 651 69 L443 69 C234 69 181 148 181 258 L181 258 Z M727 806 L663 806 L547 686 L431 806 L367 806 L488 635 L606 635 L727 806 Z " />
<glyph glyph-name="uni01D5" unicode="&#x1d5;" horiz-adv-x="1275" d="M721 810 L820 810 L820 909 L721 909 L721 810 Z M453 810 L552 810 L552 909 L453 909 L453 810 Z M455 997 L819 997 L819 1062 L455 1062 L455 997 Z M202 323 L202 700 L103 700 L103 323 C103 130 207 -10 524 -10 L751 -10 C1068 -10 1172 130 1172 323 L1172 700 L1073 700 L1073 323 C1073 181 999 80 750 80 L525 80 C275 80 202 181 202 323 L202 323 Z " />
<glyph glyph-name="uni01D6" unicode="&#x1d6;" horiz-adv-x="1095" d="M631 670 L730 670 L730 769 L631 769 L631 670 Z M363 670 L462 670 L462 769 L363 769 L363 670 Z M365 857 L729 857 L729 922 L365 922 L365 857 Z M181 258 L181 560 L93 560 L93 258 C93 104 173 -8 442 -8 L652 -8 C921 -8 1002 104 1002 258 L1002 560 L913 560 L913 258 C913 148 860 69 651 69 L443 69 C234 69 181 148 181 258 L181 258 Z " />
<glyph glyph-name="uni01D7" unicode="&#x1d7;" horiz-adv-x="1275" d="M202 323 L202 700 L103 700 L103 323 C103 130 207 -10 524 -10 L751 -10 C1068 -10 1172 130 1172 323 L1172 700 L1073 700 L1073 323 C1073 181 999 80 750 80 L525 80 C275 80 202 181 202 323 L202 323 Z M721 810 L820 810 L820 909 L721 909 L721 810 Z M453 810 L552 810 L552 909 L453 909 L453 810 Z M563 962 L627 962 L784 1133 L669 1133 L563 962 Z " />
<glyph glyph-name="uni01D8" unicode="&#x1d8;" horiz-adv-x="1095" d="M181 258 L181 560 L93 560 L93 258 C93 104 173 -8 442 -8 L652 -8 C921 -8 1002 104 1002 258 L1002 560 L913 560 L913 258 C913 148 860 69 651 69 L443 69 C234 69 181 148 181 258 L181 258 Z M631 670 L730 670 L730 769 L631 769 L631 670 Z M363 670 L462 670 L462 769 L363 769 L363 670 Z M473 822 L537 822 L694 993 L579 993 L473 822 Z " />
<glyph glyph-name="uni01D9" unicode="&#x1d9;" horiz-adv-x="1275" d="M202 323 L202 700 L103 700 L103 323 C103 130 207 -10 524 -10 L751 -10 C1068 -10 1172 130 1172 323 L1172 700 L1073 700 L1073 323 C1073 181 999 80 750 80 L525 80 C275 80 202 181 202 323 L202 323 Z M721 810 L820 810 L820 909 L721 909 L721 810 Z M453 810 L552 810 L552 909 L453 909 L453 810 Z M817 1133 L753 1133 L637 1013 L521 1133 L457 1133 L578 962 L696 962 L817 1133 Z " />
<glyph glyph-name="uni01DA" unicode="&#x1da;" horiz-adv-x="1095" d="M181 258 L181 560 L93 560 L93 258 C93 104 173 -8 442 -8 L652 -8 C921 -8 1002 104 1002 258 L1002 560 L913 560 L913 258 C913 148 860 69 651 69 L443 69 C234 69 181 148 181 258 L181 258 Z M631 670 L730 670 L730 769 L631 769 L631 670 Z M363 670 L462 670 L462 769 L363 769 L363 670 Z M727 993 L663 993 L547 873 L431 993 L367 993 L488 822 L606 822 L727 993 Z " />
<glyph glyph-name="uni01DB" unicode="&#x1db;" horiz-adv-x="1275" d="M202 323 L202 700 L103 700 L103 323 C103 130 207 -10 524 -10 L751 -10 C1068 -10 1172 130 1172 323 L1172 700 L1073 700 L1073 323 C1073 181 999 80 750 80 L525 80 C275 80 202 181 202 323 L202 323 Z M721 810 L820 810 L820 909 L721 909 L721 810 Z M453 810 L552 810 L552 909 L453 909 L453 810 Z M604 1133 L489 1133 L646 962 L710 962 L604 1133 Z " />
<glyph glyph-name="uni01DC" unicode="&#x1dc;" horiz-adv-x="1095" d="M181 258 L181 560 L93 560 L93 258 C93 104 173 -8 442 -8 L652 -8 C921 -8 1002 104 1002 258 L1002 560 L913 560 L913 258 C913 148 860 69 651 69 L443 69 C234 69 181 148 181 258 L181 258 Z M631 670 L730 670 L730 769 L631 769 L631 670 Z M363 670 L462 670 L462 769 L363 769 L363 670 Z M514 993 L399 993 L556 822 L620 822 L514 993 Z " />
<glyph glyph-name="uni01DD" unicode="&#x1dd;" horiz-adv-x="1033" d="M920 560 L74 560 L74 482 L831 482 L831 314 L161 314 L161 245 L831 245 L831 77 L74 77 L74 0 L920 0 L920 560 Z " />
<glyph glyph-name="uni01DE" unicode="&#x1de;" horiz-adv-x="1273" d="M721 810 L820 810 L820 909 L721 909 L721 810 Z M453 810 L552 810 L552 909 L453 909 L453 810 Z M455 997 L819 997 L819 1062 L455 1062 L455 997 Z M1140 0 L1262 0 L690 700 L583 700 L11 0 L133 0 L243 135 L1029 135 L1140 0 Z M636 616 L962 217 L310 217 L636 616 Z " />
<glyph glyph-name="uni01DF" unicode="&#x1df;" horiz-adv-x="1089" d="M629 670 L728 670 L728 769 L629 769 L629 670 Z M361 670 L460 670 L460 769 L361 769 L361 670 Z M363 857 L727 857 L727 922 L363 922 L363 857 Z M967 0 L1077 0 L592 560 L497 560 L12 0 L122 0 L219 112 L870 112 L967 0 Z M544 487 L810 181 L279 181 L544 487 Z " />
<glyph glyph-name="uni01E0" unicode="&#x1e0;" horiz-adv-x="1273" d="M586 810 L685 810 L685 909 L586 909 L586 810 Z M454 997 L818 997 L818 1062 L454 1062 L454 997 Z M1140 0 L1262 0 L690 700 L583 700 L11 0 L133 0 L243 135 L1029 135 L1140 0 Z M636 616 L962 217 L310 217 L636 616 Z " />
<glyph glyph-name="uni01E1" unicode="&#x1e1;" horiz-adv-x="1089" d="M494 670 L593 670 L593 769 L494 769 L494 670 Z M362 857 L726 857 L726 922 L362 922 L362 857 Z M967 0 L1077 0 L592 560 L497 560 L12 0 L122 0 L219 112 L870 112 L967 0 Z M544 487 L810 181 L279 181 L544 487 Z " />
<glyph glyph-name="uni01E2" unicode="&#x1e2;" horiz-adv-x="1707" d="M736 133 L736 0 L1626 0 L1626 90 L835 90 L835 309 L1524 309 L1524 391 L835 391 L835 610 L1626 610 L1626 700 L683 700 L11 0 L135 0 L263 133 L736 133 Z M736 627 L736 215 L340 215 L736 627 Z M795 827 L1159 827 L1159 892 L795 892 L795 827 Z " />
<glyph glyph-name="uni01E3" unicode="&#x1e3;" horiz-adv-x="1461" d="M629 105 L629 0 L1387 0 L1387 77 L718 77 L718 245 L1299 245 L1299 314 L718 314 L718 482 L1387 482 L1387 560 L582 560 L12 0 L124 0 L232 105 L629 105 Z M629 496 L629 174 L301 174 L629 496 Z M684 687 L1048 687 L1048 752 L684 752 L684 687 Z " />
<glyph glyph-name="Gcaron" unicode="&#x1e6;" horiz-adv-x="1256" d="M665 309 L1061 309 L1061 90 L518 90 C265 90 181 206 181 350 C181 493 265 610 518 610 L1103 610 L1103 700 L517 700 C200 700 76 543 76 350 C76 157 200 0 517 0 L1158 0 L1158 391 L665 391 L665 309 Z M832 946 L768 946 L652 826 L536 946 L472 946 L593 775 L711 775 L832 946 Z " />
<glyph glyph-name="gcaron" unicode="&#x1e7;" horiz-adv-x="1080" d="M569 245 L902 245 L902 77 L436 77 C225 77 163 168 163 280 C163 391 225 482 436 482 L942 482 L942 560 L436 560 C166 560 69 434 69 280 C69 126 166 0 436 0 L989 0 L989 314 L569 314 L569 245 Z M731 806 L667 806 L551 686 L435 806 L371 806 L492 635 L610 635 L731 806 Z " />
<glyph glyph-name="uni01E8" unicode="&#x1e8;" horiz-adv-x="1290" d="M1193 700 L1019 700 L222 243 L222 700 L123 700 L123 0 L222 0 L222 144 L546 329 L1113 0 L1284 0 L635 380 L1193 700 Z M785 946 L721 946 L605 826 L489 946 L425 946 L546 775 L664 775 L785 946 Z " />
<glyph glyph-name="uni01E9" unicode="&#x1e9;" horiz-adv-x="1113" d="M1030 560 L867 560 L202 201 L202 560 L113 560 L113 0 L202 0 L202 114 L475 261 L947 0 L1102 0 L555 304 L1030 560 Z M701 806 L637 806 L521 686 L405 806 L341 806 L462 635 L580 635 L701 806 Z " />
<glyph glyph-name="uni01EA" unicode="&#x1ea;" horiz-adv-x="1348" d="M729 -167 C729 -224 779 -258 852 -258 C893 -258 931 -253 976 -235 L976 -190 C939 -205 916 -209 888 -209 C842 -209 809 -187 809 -145 C809 -78 875 -30 948 0 C1178 38 1272 180 1272 350 C1272 549 1144 710 818 710 L530 710 C204 710 76 549 76 350 C76 151 204 -10 530 -10 L818 -10 C835 -10 851 -10 867 -9 C797 -38 729 -93 729 -167 L729 -167 Z M531 80 C269 80 181 200 181 350 C181 499 269 620 531 620 L817 620 C1078 620 1166 499 1166 350 C1166 200 1078 80 817 80 L531 80 Z " />
<glyph glyph-name="uni01EB" unicode="&#x1eb;" horiz-adv-x="1155" d="M599 -167 C599 -224 649 -258 722 -258 C763 -258 801 -253 846 -235 L846 -190 C809 -205 786 -209 758 -209 C712 -209 679 -187 679 -145 C679 -78 745 -30 817 0 C1012 30 1086 144 1086 280 C1086 439 985 568 708 568 L447 568 C170 568 69 439 69 280 C69 121 170 -8 447 -8 L708 -8 C719 -8 730 -8 740 -7 C669 -36 599 -92 599 -167 L599 -167 Z M448 69 C228 69 163 163 163 280 C163 396 228 490 448 490 L707 490 C927 490 992 396 992 280 C992 163 927 69 707 69 L448 69 Z " />
<glyph glyph-name="uni01EC" unicode="&#x1ec;" horiz-adv-x="1348" d="M729 -167 C729 -224 779 -258 852 -258 C893 -258 931 -253 976 -235 L976 -190 C939 -205 916 -209 888 -209 C842 -209 809 -187 809 -145 C809 -78 875 -30 948 0 C1178 38 1272 180 1272 350 C1272 549 1144 710 818 710 L530 710 C204 710 76 549 76 350 C76 151 204 -10 530 -10 L818 -10 C835 -10 851 -10 867 -9 C797 -38 729 -93 729 -167 L729 -167 Z M531 80 C269 80 181 200 181 350 C181 499 269 620 531 620 L817 620 C1078 620 1166 499 1166 350 C1166 200 1078 80 817 80 L531 80 Z M492 827 L856 827 L856 892 L492 892 L492 827 Z " />
<glyph glyph-name="uni01ED" unicode="&#x1ed;" horiz-adv-x="1155" d="M599 -167 C599 -224 649 -258 722 -258 C763 -258 801 -253 846 -235 L846 -190 C809 -205 786 -209 758 -209 C712 -209 679 -187 679 -145 C679 -78 745 -30 817 0 C1012 30 1086 144 1086 280 C1086 439 985 568 708 568 L447 568 C170 568 69 439 69 280 C69 121 170 -8 447 -8 L708 -8 C719 -8 730 -8 740 -7 C669 -36 599 -92 599 -167 L599 -167 Z M448 69 C228 69 163 163 163 280 C163 396 228 490 448 490 L707 490 C927 490 992 396 992 280 C992 163 927 69 707 69 L448 69 Z M395 687 L759 687 L759 752 L395 752 L395 687 Z " />
<glyph glyph-name="uni01F0" unicode="&#x1f0;" horiz-adv-x="1042" d="M329 -4 L599 -4 C869 -4 949 106 949 260 L949 560 L860 560 L860 260 C860 150 807 73 599 73 L330 73 C173 73 132 139 132 220 L132 260 L43 260 L43 220 C43 97 113 -4 329 -4 L329 -4 Z M1054 806 L990 806 L874 686 L758 806 L694 806 L815 635 L933 635 L1054 806 Z " />
<glyph glyph-name="uni01F1" unicode="&#x1f1;" horiz-adv-x="2451" d="M123 0 L738 0 C1055 0 1179 157 1179 350 C1179 543 1055 700 738 700 L123 700 L123 0 Z M737 610 C989 610 1073 493 1073 350 C1073 206 989 90 737 90 L222 90 L222 610 L737 610 Z M1328 0 L2388 0 L2388 90 L1520 90 L2368 629 L2368 700 L1338 700 L1338 610 L2174 610 L1328 70 L1328 0 Z " />
<glyph glyph-name="uni01F2" unicode="&#x1f2;" horiz-adv-x="2279" d="M123 0 L738 0 C1055 0 1179 157 1179 350 C1179 543 1055 700 738 700 L123 700 L123 0 Z M737 610 C989 610 1073 493 1073 350 C1073 206 989 90 737 90 L222 90 L222 610 L737 610 Z M1321 0 L2223 0 L2223 77 L1494 77 L2206 499 L2206 560 L1330 560 L1330 482 L2032 482 L1321 60 L1321 0 Z " />
<glyph glyph-name="uni01F3" unicode="&#x1f3;" horiz-adv-x="2104" d="M113 0 L644 0 C914 0 1011 126 1011 280 C1011 434 914 560 644 560 L113 560 L113 0 Z M644 482 C855 482 917 391 917 280 C917 168 855 77 644 77 L202 77 L202 482 L644 482 Z M1146 0 L2048 0 L2048 77 L1319 77 L2031 499 L2031 560 L1155 560 L1155 482 L1857 482 L1146 60 L1146 0 Z " />
<glyph glyph-name="uni01F4" unicode="&#x1f4;" horiz-adv-x="1256" d="M665 309 L1061 309 L1061 90 L518 90 C265 90 181 206 181 350 C181 493 265 610 518 610 L1103 610 L1103 700 L517 700 C200 700 76 543 76 350 C76 157 200 0 517 0 L1158 0 L1158 391 L665 391 L665 309 Z M578 775 L642 775 L799 946 L684 946 L578 775 Z " />
<glyph glyph-name="uni01F5" unicode="&#x1f5;" horiz-adv-x="1080" d="M569 245 L902 245 L902 77 L436 77 C225 77 163 168 163 280 C163 391 225 482 436 482 L942 482 L942 560 L436 560 C166 560 69 434 69 280 C69 126 166 0 436 0 L989 0 L989 314 L569 314 L569 245 Z M477 635 L541 635 L698 806 L583 806 L477 635 Z " />
<glyph glyph-name="uni01F8" unicode="&#x1f8;" horiz-adv-x="1305" d="M1088 0 L1182 0 L1182 700 L1083 700 L1083 116 L217 700 L123 700 L123 0 L222 0 L222 584 L1088 0 Z M619 946 L504 946 L661 775 L725 775 L619 946 Z " />
<glyph glyph-name="uni01F9" unicode="&#x1f9;" horiz-adv-x="1127" d="M1014 0 L1014 560 L925 560 L925 100 L197 560 L113 560 L113 0 L202 0 L202 460 L930 0 L1014 0 Z M530 806 L415 806 L572 635 L636 635 L530 806 Z " />
<glyph glyph-name="Aringacute" unicode="&#x1fa;" horiz-adv-x="1273" d="M1140 0 L1262 0 L690 700 L583 700 L11 0 L133 0 L243 135 L1029 135 L1140 0 Z M636 616 L962 217 L310 217 L636 616 Z M575 861 C575 894 603 921 636 921 C670 921 697 894 697 861 C697 827 670 800 636 800 C603 800 575 827 575 861 L575 861 Z M517 861 C517 799 568 749 636 749 C704 749 755 799 755 861 C755 923 704 972 636 972 C568 972 517 923 517 861 L517 861 Z M562 1001 L626 1001 L783 1172 L668 1172 L562 1001 Z " />
<glyph glyph-name="aringacute" unicode="&#x1fb;" horiz-adv-x="1089" d="M967 0 L1077 0 L592 560 L497 560 L12 0 L122 0 L219 112 L870 112 L967 0 Z M544 487 L810 181 L279 181 L544 487 Z M483 721 C483 754 511 781 544 781 C578 781 605 754 605 721 C605 687 578 660 544 660 C511 660 483 687 483 721 L483 721 Z M425 721 C425 659 476 609 544 609 C612 609 663 659 663 721 C663 783 612 832 544 832 C476 832 425 783 425 721 L425 721 Z M470 861 L534 861 L691 1032 L576 1032 L470 861 Z " />
<glyph glyph-name="AEacute" unicode="&#x1fc;" horiz-adv-x="1707" d="M736 133 L736 0 L1626 0 L1626 90 L835 90 L835 309 L1524 309 L1524 391 L835 391 L835 610 L1626 610 L1626 700 L683 700 L11 0 L135 0 L263 133 L736 133 Z M736 627 L736 215 L340 215 L736 627 Z M903 775 L967 775 L1124 946 L1009 946 L903 775 Z " />
<glyph glyph-name="aeacute" unicode="&#x1fd;" horiz-adv-x="1461" d="M629 105 L629 0 L1387 0 L1387 77 L718 77 L718 245 L1299 245 L1299 314 L718 314 L718 482 L1387 482 L1387 560 L582 560 L12 0 L124 0 L232 105 L629 105 Z M629 496 L629 174 L301 174 L629 496 Z M792 635 L856 635 L1013 806 L898 806 L792 635 Z " />
<glyph glyph-name="Oslashacute" unicode="&#x1fe;" horiz-adv-x="1348" d="M600 775 L664 775 L821 946 L706 946 L600 775 Z M818 -10 C1144 -10 1272 151 1272 350 C1272 507 1192 641 997 690 L1083 800 L968 800 L895 707 C870 709 845 710 818 710 L530 710 C204 710 76 549 76 350 C76 192 156 59 350 10 L264 -100 L378 -100 L451 -6 C476 -9 502 -10 530 -10 L818 -10 Z M531 80 L519 80 L934 610 C1105 578 1166 474 1166 350 C1166 200 1078 80 817 80 L531 80 Z M181 350 C181 499 269 620 531 620 L817 620 L827 620 L412 90 C242 121 181 225 181 350 L181 350 Z " />
<glyph glyph-name="oslashacute" unicode="&#x1ff;" horiz-adv-x="1155" d="M503 635 L567 635 L724 806 L609 806 L503 635 Z M708 -8 C985 -8 1086 121 1086 280 C1086 407 1021 515 854 553 L926 640 L823 640 L762 566 C745 567 727 568 708 568 L447 568 C170 568 69 439 69 280 C69 153 133 45 300 7 L228 -80 L331 -80 L392 -6 C409 -7 428 -8 447 -8 L708 -8 Z M992 280 C992 163 927 69 707 69 L454 69 L797 484 C945 461 992 378 992 280 L992 280 Z M163 280 C163 396 228 490 448 490 L699 490 L356 75 C209 98 163 181 163 280 L163 280 Z " />
<glyph glyph-name="uni0200" unicode="&#x200;" horiz-adv-x="1273" d="M486 946 L371 946 L528 775 L592 775 L486 946 Z M721 946 L607 946 L764 775 L828 775 L721 946 Z M1140 0 L1262 0 L690 700 L583 700 L11 0 L133 0 L243 135 L1029 135 L1140 0 Z M636 616 L962 217 L310 217 L636 616 Z " />
<glyph glyph-name="uni0201" unicode="&#x201;" horiz-adv-x="1089" d="M394 806 L279 806 L436 635 L500 635 L394 806 Z M629 806 L515 806 L672 635 L736 635 L629 806 Z M967 0 L1077 0 L592 560 L497 560 L12 0 L122 0 L219 112 L870 112 L967 0 Z M544 487 L810 181 L279 181 L544 487 Z " />
<glyph glyph-name="uni0202" unicode="&#x202;" horiz-adv-x="1273" d="M637 873 C716 873 746 833 751 785 L806 785 C801 859 764 937 637 937 C508 937 472 859 467 785 L522 785 C527 833 557 873 637 873 L637 873 Z M1140 0 L1262 0 L690 700 L583 700 L11 0 L133 0 L243 135 L1029 135 L1140 0 Z M636 616 L962 217 L310 217 L636 616 Z " />
<glyph glyph-name="uni0203" unicode="&#x203;" horiz-adv-x="1089" d="M545 733 C624 733 654 693 659 645 L714 645 C709 719 672 797 545 797 C416 797 380 719 375 645 L430 645 C435 693 465 733 545 733 L545 733 Z M967 0 L1077 0 L592 560 L497 560 L12 0 L122 0 L219 112 L870 112 L967 0 Z M544 487 L810 181 L279 181 L544 487 Z " />
<glyph glyph-name="uni0204" unicode="&#x204;" horiz-adv-x="1199" d="M123 0 L1118 0 L1118 90 L222 90 L222 309 L1016 309 L1016 391 L222 391 L222 610 L1118 610 L1118 700 L123 700 L123 0 Z M459 946 L344 946 L501 775 L565 775 L459 946 Z M694 946 L580 946 L737 775 L801 775 L694 946 Z " />
<glyph glyph-name="uni0205" unicode="&#x205;" horiz-adv-x="1033" d="M113 0 L959 0 L959 77 L202 77 L202 245 L872 245 L872 314 L202 314 L202 482 L959 482 L959 560 L113 560 L113 0 Z M378 806 L263 806 L420 635 L484 635 L378 806 Z M613 806 L499 806 L656 635 L720 635 L613 806 Z " />
<glyph glyph-name="uni0206" unicode="&#x206;" horiz-adv-x="1199" d="M123 0 L1118 0 L1118 90 L222 90 L222 309 L1016 309 L1016 391 L222 391 L222 610 L1118 610 L1118 700 L123 700 L123 0 Z M610 873 C689 873 719 833 724 785 L779 785 C774 859 737 937 610 937 C481 937 445 859 440 785 L495 785 C500 833 530 873 610 873 L610 873 Z " />
<glyph glyph-name="uni0207" unicode="&#x207;" horiz-adv-x="1033" d="M113 0 L959 0 L959 77 L202 77 L202 245 L872 245 L872 314 L202 314 L202 482 L959 482 L959 560 L113 560 L113 0 Z M529 733 C608 733 638 693 643 645 L698 645 C693 719 656 797 529 797 C400 797 364 719 359 645 L414 645 C419 693 449 733 529 733 L529 733 Z " />
<glyph glyph-name="uni0208" unicode="&#x208;" horiz-adv-x="345" d="M22 946 L-93 946 L64 775 L128 775 L22 946 Z M257 946 L143 946 L300 775 L364 775 L257 946 Z M123 0 L222 0 L222 700 L123 700 L123 0 Z " />
<glyph glyph-name="uni0209" unicode="&#x209;" horiz-adv-x="315" d="M7 806 L-108 806 L49 635 L113 635 L7 806 Z M242 806 L128 806 L285 635 L349 635 L242 806 Z M113 0 L202 0 L202 560 L113 560 L113 0 Z " />
<glyph glyph-name="uni020A" unicode="&#x20a;" horiz-adv-x="345" d="M173 873 C252 873 282 833 287 785 L342 785 C337 859 300 937 173 937 C44 937 8 859 3 785 L58 785 C63 833 93 873 173 873 L173 873 Z M123 0 L222 0 L222 700 L123 700 L123 0 Z " />
<glyph glyph-name="uni020B" unicode="&#x20b;" horiz-adv-x="315" d="M158 733 C237 733 267 693 272 645 L327 645 C322 719 285 797 158 797 C29 797 -7 719 -12 645 L43 645 C48 693 78 733 158 733 L158 733 Z M113 0 L202 0 L202 560 L113 560 L113 0 Z " />
<glyph glyph-name="uni020C" unicode="&#x20c;" horiz-adv-x="1348" d="M523 946 L408 946 L565 775 L629 775 L523 946 Z M758 946 L644 946 L801 775 L865 775 L758 946 Z M818 -10 C1144 -10 1272 151 1272 350 C1272 549 1144 710 818 710 L530 710 C204 710 76 549 76 350 C76 151 204 -10 530 -10 L818 -10 Z M531 80 C269 80 181 200 181 350 C181 499 269 620 531 620 L817 620 C1078 620 1166 499 1166 350 C1166 200 1078 80 817 80 L531 80 Z " />
<glyph glyph-name="uni020D" unicode="&#x20d;" horiz-adv-x="1155" d="M427 806 L312 806 L469 635 L533 635 L427 806 Z M662 806 L548 806 L705 635 L769 635 L662 806 Z M708 -8 C985 -8 1086 121 1086 280 C1086 439 985 568 708 568 L447 568 C170 568 69 439 69 280 C69 121 170 -8 447 -8 L708 -8 Z M448 69 C228 69 163 163 163 280 C163 396 228 490 448 490 L707 490 C927 490 992 396 992 280 C992 163 927 69 707 69 L448 69 Z " />
<glyph glyph-name="uni020E" unicode="&#x20e;" horiz-adv-x="1348" d="M674 873 C753 873 783 833 788 785 L843 785 C838 859 801 937 674 937 C545 937 509 859 504 785 L559 785 C564 833 594 873 674 873 L674 873 Z M818 -10 C1144 -10 1272 151 1272 350 C1272 549 1144 710 818 710 L530 710 C204 710 76 549 76 350 C76 151 204 -10 530 -10 L818 -10 Z M531 80 C269 80 181 200 181 350 C181 499 269 620 531 620 L817 620 C1078 620 1166 499 1166 350 C1166 200 1078 80 817 80 L531 80 Z " />
<glyph glyph-name="uni020F" unicode="&#x20f;" horiz-adv-x="1155" d="M578 733 C657 733 687 693 692 645 L747 645 C742 719 705 797 578 797 C449 797 413 719 408 645 L463 645 C468 693 498 733 578 733 L578 733 Z M708 -8 C985 -8 1086 121 1086 280 C1086 439 985 568 708 568 L447 568 C170 568 69 439 69 280 C69 121 170 -8 447 -8 L708 -8 Z M448 69 C228 69 163 163 163 280 C163 396 228 490 448 490 L707 490 C927 490 992 396 992 280 C992 163 927 69 707 69 L448 69 Z " />
<glyph glyph-name="uni0210" unicode="&#x210;" horiz-adv-x="1278" d="M123 0 L222 0 L222 266 L648 266 L1104 0 L1272 0 L803 268 L872 268 C1070 268 1148 362 1148 484 C1148 603 1070 700 872 700 L123 700 L123 0 Z M868 610 C1002 610 1045 552 1045 482 C1045 410 1002 353 868 353 L222 353 L222 610 L868 610 Z M450 946 L335 946 L492 775 L556 775 L450 946 Z M685 946 L571 946 L728 775 L792 775 L685 946 Z " />
<glyph glyph-name="uni0211" unicode="&#x211;" horiz-adv-x="1105" d="M113 0 L202 0 L202 210 L560 210 L939 0 L1090 0 L702 211 L756 211 C925 211 986 288 986 386 C986 482 925 560 756 560 L113 560 L113 0 Z M752 482 C864 482 893 438 893 384 C893 329 864 285 752 285 L202 285 L202 482 L752 482 Z M368 806 L253 806 L410 635 L474 635 L368 806 Z M603 806 L489 806 L646 635 L710 635 L603 806 Z " />
<glyph glyph-name="uni0212" unicode="&#x212;" horiz-adv-x="1278" d="M123 0 L222 0 L222 266 L648 266 L1104 0 L1272 0 L803 268 L872 268 C1070 268 1148 362 1148 484 C1148 603 1070 700 872 700 L123 700 L123 0 Z M868 610 C1002 610 1045 552 1045 482 C1045 410 1002 353 868 353 L222 353 L222 610 L868 610 Z M601 873 C680 873 710 833 715 785 L770 785 C765 859 728 937 601 937 C472 937 436 859 431 785 L486 785 C491 833 521 873 601 873 L601 873 Z " />
<glyph glyph-name="uni0213" unicode="&#x213;" horiz-adv-x="1105" d="M113 0 L202 0 L202 210 L560 210 L939 0 L1090 0 L702 211 L756 211 C925 211 986 288 986 386 C986 482 925 560 756 560 L113 560 L113 0 Z M752 482 C864 482 893 438 893 384 C893 329 864 285 752 285 L202 285 L202 482 L752 482 Z M519 733 C598 733 628 693 633 645 L688 645 C683 719 646 797 519 797 C390 797 354 719 349 645 L404 645 C409 693 439 733 519 733 L519 733 Z " />
<glyph glyph-name="uni0214" unicode="&#x214;" horiz-adv-x="1275" d="M487 946 L372 946 L529 775 L593 775 L487 946 Z M722 946 L608 946 L765 775 L829 775 L722 946 Z M202 323 L202 700 L103 700 L103 323 C103 130 207 -10 524 -10 L751 -10 C1068 -10 1172 130 1172 323 L1172 700 L1073 700 L1073 323 C1073 181 999 80 750 80 L525 80 C275 80 202 181 202 323 L202 323 Z " />
<glyph glyph-name="uni0215" unicode="&#x215;" horiz-adv-x="1095" d="M397 806 L282 806 L439 635 L503 635 L397 806 Z M632 806 L518 806 L675 635 L739 635 L632 806 Z M181 258 L181 560 L93 560 L93 258 C93 104 173 -8 442 -8 L652 -8 C921 -8 1002 104 1002 258 L1002 560 L913 560 L913 258 C913 148 860 69 651 69 L443 69 C234 69 181 148 181 258 L181 258 Z " />
<glyph glyph-name="uni0216" unicode="&#x216;" horiz-adv-x="1275" d="M638 873 C717 873 747 833 752 785 L807 785 C802 859 765 937 638 937 C509 937 473 859 468 785 L523 785 C528 833 558 873 638 873 L638 873 Z M202 323 L202 700 L103 700 L103 323 C103 130 207 -10 524 -10 L751 -10 C1068 -10 1172 130 1172 323 L1172 700 L1073 700 L1073 323 C1073 181 999 80 750 80 L525 80 C275 80 202 181 202 323 L202 323 Z " />
<glyph glyph-name="uni0217" unicode="&#x217;" horiz-adv-x="1095" d="M548 733 C627 733 657 693 662 645 L717 645 C712 719 675 797 548 797 C419 797 383 719 378 645 L433 645 C438 693 468 733 548 733 L548 733 Z M181 258 L181 560 L93 560 L93 258 C93 104 173 -8 442 -8 L652 -8 C921 -8 1002 104 1002 258 L1002 560 L913 560 L913 258 C913 148 860 69 651 69 L443 69 C234 69 181 148 181 258 L181 258 Z " />
<glyph glyph-name="uni0218" unicode="&#x218;" horiz-adv-x="1207" d="M113 0 L884 0 C1064 0 1134 87 1134 195 C1134 306 1064 391 884 391 L325 391 C210 391 176 440 176 500 C176 559 210 610 325 610 L1094 610 L1094 700 L323 700 C142 700 73 613 73 504 C73 394 142 309 323 309 L881 309 C997 309 1030 260 1030 199 C1030 140 997 90 881 90 L113 90 L113 0 Z M554 -211 L593 -211 L545 -318 L590 -318 L653 -204 L653 -112 L554 -112 L554 -211 Z " />
<glyph glyph-name="uni0219" unicode="&#x219;" horiz-adv-x="1032" d="M99 0 L760 0 C914 0 967 69 967 157 C967 246 914 314 760 314 L277 314 C182 314 158 352 158 398 C158 444 182 482 277 482 L933 482 L933 560 L272 560 C118 560 65 490 65 402 C65 313 118 245 272 245 L755 245 C850 245 874 208 874 161 C874 115 850 77 755 77 L99 77 L99 0 Z M467 -211 L506 -211 L458 -318 L503 -318 L566 -204 L566 -112 L467 -112 L467 -211 Z " />
<glyph glyph-name="uni021A" unicode="&#x21a;" horiz-adv-x="1184" d="M543 -211 L582 -211 L534 -318 L579 -318 L642 -204 L642 -112 L543 -112 L543 -211 Z M31 610 L542 610 L542 0 L641 0 L641 610 L1153 610 L1153 700 L31 700 L31 610 Z " />
<glyph glyph-name="uni021B" unicode="&#x21b;" horiz-adv-x="1041" d="M471 -211 L510 -211 L462 -318 L507 -318 L570 -204 L570 -112 L471 -112 L471 -211 Z M44 482 L476 482 L476 0 L565 0 L565 482 L997 482 L997 560 L44 560 L44 482 Z " />
<glyph glyph-name="uni021E" unicode="&#x21e;" horiz-adv-x="1305" d="M1083 0 L1182 0 L1182 700 L1083 700 L1083 395 L222 395 L222 700 L123 700 L123 0 L222 0 L222 305 L1083 305 L1083 0 Z M832 946 L768 946 L652 826 L536 946 L472 946 L593 775 L711 775 L832 946 Z " />
<glyph glyph-name="uni021F" unicode="&#x21f;" horiz-adv-x="1127" d="M925 0 L1014 0 L1014 560 L925 560 L925 319 L202 319 L202 560 L113 560 L113 0 L202 0 L202 241 L925 241 L925 0 Z M743 806 L679 806 L563 686 L447 806 L383 806 L504 635 L622 635 L743 806 Z " />
<glyph glyph-name="uni0226" unicode="&#x226;" horiz-adv-x="1273" d="M1140 0 L1262 0 L690 700 L583 700 L11 0 L133 0 L243 135 L1029 135 L1140 0 Z M636 616 L962 217 L310 217 L636 616 Z M587 810 L686 810 L686 909 L587 909 L587 810 Z " />
<glyph glyph-name="uni0227" unicode="&#x227;" horiz-adv-x="1089" d="M967 0 L1077 0 L592 560 L497 560 L12 0 L122 0 L219 112 L870 112 L967 0 Z M544 487 L810 181 L279 181 L544 487 Z M495 670 L594 670 L594 769 L495 769 L495 670 Z " />
<glyph glyph-name="uni0228" unicode="&#x228;" horiz-adv-x="1199" d="M123 0 L587 0 L557 -112 L584 -112 C647 -112 680 -124 680 -165 C680 -236 533 -222 488 -197 L488 -241 C562 -278 751 -292 751 -167 C751 -88 685 -70 608 -70 L607 -70 L625 0 L1118 0 L1118 90 L222 90 L222 309 L1016 309 L1016 391 L222 391 L222 610 L1118 610 L1118 700 L123 700 L123 0 Z " />
<glyph glyph-name="uni0229" unicode="&#x229;" horiz-adv-x="1033" d="M113 0 L506 0 L476 -112 L503 -112 C566 -112 599 -124 599 -165 C599 -236 452 -222 407 -197 L407 -241 C481 -278 670 -292 670 -167 C670 -88 604 -70 527 -70 L526 -70 L544 0 L959 0 L959 77 L202 77 L202 245 L872 245 L872 314 L202 314 L202 482 L959 482 L959 560 L113 560 L113 0 Z " />
<glyph glyph-name="uni022A" unicode="&#x22a;" horiz-adv-x="1348" d="M758 810 L857 810 L857 909 L758 909 L758 810 Z M490 810 L589 810 L589 909 L490 909 L490 810 Z M492 997 L856 997 L856 1062 L492 1062 L492 997 Z M818 -10 C1144 -10 1272 151 1272 350 C1272 549 1144 710 818 710 L530 710 C204 710 76 549 76 350 C76 151 204 -10 530 -10 L818 -10 Z M531 80 C269 80 181 200 181 350 C181 499 269 620 531 620 L817 620 C1078 620 1166 499 1166 350 C1166 200 1078 80 817 80 L531 80 Z " />
<glyph glyph-name="uni022B" unicode="&#x22b;" horiz-adv-x="1155" d="M662 670 L761 670 L761 769 L662 769 L662 670 Z M394 670 L493 670 L493 769 L394 769 L394 670 Z M396 857 L760 857 L760 922 L396 922 L396 857 Z M708 -8 C985 -8 1086 121 1086 280 C1086 439 985 568 708 568 L447 568 C170 568 69 439 69 280 C69 121 170 -8 447 -8 L708 -8 Z M448 69 C228 69 163 163 163 280 C163 396 228 490 448 490 L707 490 C927 490 992 396 992 280 C992 163 927 69 707 69 L448 69 Z " />
<glyph glyph-name="uni022C" unicode="&#x22c;" horiz-adv-x="1348" d="M799 932 C794 877 776 866 749 866 C705 866 662 925 598 925 C542 925 505 893 498 788 L548 788 C553 843 572 855 598 855 C642 855 685 795 750 795 C805 795 843 827 849 932 L799 932 Z M492 1003 L856 1003 L856 1068 L492 1068 L492 1003 Z M818 -10 C1144 -10 1272 151 1272 350 C1272 549 1144 710 818 710 L530 710 C204 710 76 549 76 350 C76 151 204 -10 530 -10 L818 -10 Z M531 80 C269 80 181 200 181 350 C181 499 269 620 531 620 L817 620 C1078 620 1166 499 1166 350 C1166 200 1078 80 817 80 L531 80 Z " />
<glyph glyph-name="uni022D" unicode="&#x22d;" horiz-adv-x="1155" d="M702 792 C697 737 679 726 652 726 C608 726 565 785 501 785 C445 785 408 753 401 648 L451 648 C456 703 475 715 501 715 C545 715 588 655 653 655 C708 655 746 687 752 792 L702 792 Z M395 863 L759 863 L759 928 L395 928 L395 863 Z M708 -8 C985 -8 1086 121 1086 280 C1086 439 985 568 708 568 L447 568 C170 568 69 439 69 280 C69 121 170 -8 447 -8 L708 -8 Z M448 69 C228 69 163 163 163 280 C163 396 228 490 448 490 L707 490 C927 490 992 396 992 280 C992 163 927 69 707 69 L448 69 Z " />
<glyph glyph-name="uni022E" unicode="&#x22e;" horiz-adv-x="1348" d="M818 -10 C1144 -10 1272 151 1272 350 C1272 549 1144 710 818 710 L530 710 C204 710 76 549 76 350 C76 151 204 -10 530 -10 L818 -10 Z M531 80 C269 80 181 200 181 350 C181 499 269 620 531 620 L817 620 C1078 620 1166 499 1166 350 C1166 200 1078 80 817 80 L531 80 Z M624 810 L723 810 L723 909 L624 909 L624 810 Z " />
<glyph glyph-name="uni022F" unicode="&#x22f;" horiz-adv-x="1155" d="M708 -8 C985 -8 1086 121 1086 280 C1086 439 985 568 708 568 L447 568 C170 568 69 439 69 280 C69 121 170 -8 447 -8 L708 -8 Z M448 69 C228 69 163 163 163 280 C163 396 228 490 448 490 L707 490 C927 490 992 396 992 280 C992 163 927 69 707 69 L448 69 Z M528 670 L627 670 L627 769 L528 769 L528 670 Z " />
<glyph glyph-name="uni0230" unicode="&#x230;" horiz-adv-x="1348" d="M624 810 L723 810 L723 909 L624 909 L624 810 Z M492 997 L856 997 L856 1062 L492 1062 L492 997 Z M818 -10 C1144 -10 1272 151 1272 350 C1272 549 1144 710 818 710 L530 710 C204 710 76 549 76 350 C76 151 204 -10 530 -10 L818 -10 Z M531 80 C269 80 181 200 181 350 C181 499 269 620 531 620 L817 620 C1078 620 1166 499 1166 350 C1166 200 1078 80 817 80 L531 80 Z " />
<glyph glyph-name="uni0231" unicode="&#x231;" horiz-adv-x="1155" d="M527 670 L626 670 L626 769 L527 769 L527 670 Z M395 857 L759 857 L759 922 L395 922 L395 857 Z M708 -8 C985 -8 1086 121 1086 280 C1086 439 985 568 708 568 L447 568 C170 568 69 439 69 280 C69 121 170 -8 447 -8 L708 -8 Z M448 69 C228 69 163 163 163 280 C163 396 228 490 448 490 L707 490 C927 490 992 396 992 280 C992 163 927 69 707 69 L448 69 Z " />
<glyph glyph-name="uni0232" unicode="&#x232;" horiz-adv-x="1248" d="M574 0 L673 0 L673 211 L1247 700 L1100 700 L624 290 L148 700 L1 700 L574 211 L574 0 Z M442 827 L806 827 L806 892 L442 892 L442 827 Z " />
<glyph glyph-name="uni0233" unicode="&#x233;" horiz-adv-x="1062" d="M487 0 L576 0 L576 170 L1061 560 L929 560 L531 237 L133 560 L1 560 L487 170 L487 0 Z M349 687 L713 687 L713 752 L349 752 L349 687 Z " />
<glyph glyph-name="uni0237" unicode="&#x237;" horiz-adv-x="1042" d="M329 -4 L599 -4 C869 -4 949 106 949 260 L949 560 L860 560 L860 260 C860 150 807 73 599 73 L330 73 C173 73 132 139 132 220 L132 260 L43 260 L43 220 C43 97 113 -4 329 -4 L329 -4 Z " />
<glyph glyph-name="uni0256" unicode="&#x256;" horiz-adv-x="1080" d="M-7 245 L113 245 L113 0 L644 0 C914 0 1011 126 1011 280 C1011 434 914 560 644 560 L113 560 L113 314 L-7 314 L-7 245 Z M644 482 C855 482 917 391 917 280 C917 168 855 77 644 77 L202 77 L202 245 L563 245 L563 314 L202 314 L202 482 L644 482 Z " />
<glyph glyph-name="uni02BB" unicode="&#x2bb;" horiz-adv-x="305" d="M207 579 L158 579 L206 700 L160 700 L98 572 L98 470 L207 470 L207 579 Z " />
<glyph glyph-name="uni02BC" unicode="&#x2bc;" horiz-adv-x="305" d="M98 591 L147 591 L99 470 L145 470 L207 598 L207 700 L98 700 L98 591 Z " />
<glyph glyph-name="uni02BD" unicode="&#x2bd;" horiz-adv-x="305" d="M207 700 L98 700 L98 598 L160 470 L206 470 L158 591 L207 591 L207 700 Z " />
<glyph glyph-name="circumflex" unicode="&#x2c6;" horiz-adv-x="500" d="M309 806 L191 806 L70 635 L134 635 L250 755 L366 635 L430 635 L309 806 Z " />
<glyph glyph-name="caron" unicode="&#x2c7;" horiz-adv-x="500" d="M430 806 L366 806 L250 686 L134 806 L70 806 L191 635 L309 635 L430 806 Z " />
<glyph glyph-name="uni02C9" unicode="&#x2c9;" horiz-adv-x="500" d="M68 687 L432 687 L432 752 L68 752 L68 687 Z " />
<glyph glyph-name="uni02CA" unicode="&#x2ca;" horiz-adv-x="500" d="M176 635 L240 635 L397 806 L282 806 L176 635 Z " />
<glyph glyph-name="uni02CB" unicode="&#x2cb;" horiz-adv-x="500" d="M217 806 L102 806 L259 635 L323 635 L217 806 Z " />
<glyph glyph-name="uni02CD" unicode="&#x2cd;" horiz-adv-x="500" d="M68 -194 L432 -194 L432 -129 L68 -129 L68 -194 Z " />
<glyph glyph-name="uni02CE" unicode="&#x2ce;" horiz-adv-x="500" d="M217 -75 L102 -75 L259 -246 L323 -246 L217 -75 Z " />
<glyph glyph-name="uni02CF" unicode="&#x2cf;" horiz-adv-x="500" d="M176 -246 L240 -246 L397 -75 L282 -75 L176 -246 Z " />
<glyph glyph-name="breve" unicode="&#x2d8;" horiz-adv-x="500" d="M250 708 C170 708 140 748 135 796 L80 796 C85 722 121 644 250 644 C377 644 414 722 419 796 L364 796 C359 748 329 708 250 708 L250 708 Z " />
<glyph glyph-name="dotaccent" unicode="&#x2d9;" horiz-adv-x="500" d="M200 670 L299 670 L299 769 L200 769 L200 670 Z " />
<glyph glyph-name="ring" unicode="&#x2da;" horiz-adv-x="500" d="M189 721 C189 754 217 781 250 781 C284 781 311 754 311 721 C311 687 284 660 250 660 C217 660 189 687 189 721 L189 721 Z M131 721 C131 659 182 609 250 609 C318 609 369 659 369 721 C369 783 318 832 250 832 C182 832 131 783 131 721 L131 721 Z " />
<glyph glyph-name="ogonek" unicode="&#x2db;" horiz-adv-x="500" d="M163 -167 C163 -224 213 -258 286 -258 C327 -258 365 -253 410 -235 L410 -190 C373 -205 350 -209 322 -209 C276 -209 243 -187 243 -145 C243 -78 309 -30 382 0 L324 0 C247 -26 163 -85 163 -167 L163 -167 Z " />
<glyph glyph-name="tilde" unicode="&#x2dc;" horiz-adv-x="500" d="M375 792 C370 737 352 726 325 726 C281 726 238 785 174 785 C118 785 81 753 74 648 L124 648 C129 703 148 715 174 715 C218 715 261 655 326 655 C381 655 419 687 425 792 L375 792 Z " />
<glyph glyph-name="hungarumlaut" unicode="&#x2dd;" horiz-adv-x="500" d="M294 635 L358 635 L515 806 L400 806 L294 635 Z M58 635 L122 635 L279 806 L165 806 L58 635 Z " />
<glyph glyph-name="uni02EC" unicode="&#x2ec;" horiz-adv-x="500" d="M430 -75 L366 -75 L250 -195 L134 -75 L70 -75 L191 -246 L309 -246 L430 -75 Z " />
<glyph glyph-name="uni02EE" unicode="&#x2ee;" horiz-adv-x="533" d="M98 591 L147 591 L99 470 L145 470 L207 598 L207 700 L98 700 L98 591 Z M326 591 L375 591 L327 470 L373 470 L435 598 L435 700 L326 700 L326 591 Z " />
<glyph glyph-name="gravecomb" unicode="&#x300;" d="M-623 806 L-738 806 L-581 635 L-517 635 L-623 806 Z " />
<glyph glyph-name="acutecomb" unicode="&#x301;" d="M-664 635 L-600 635 L-443 806 L-558 806 L-664 635 Z " />
<glyph glyph-name="uni0302" unicode="&#x302;" d="M-532 806 L-650 806 L-771 635 L-707 635 L-591 755 L-475 635 L-411 635 L-532 806 Z " />
<glyph glyph-name="tildecomb" unicode="&#x303;" d="M-466 792 C-471 737 -489 726 -516 726 C-560 726 -603 785 -667 785 C-723 785 -760 753 -767 648 L-717 648 C-712 703 -693 715 -667 715 C-623 715 -580 655 -515 655 C-460 655 -422 687 -416 792 L-466 792 Z " />
<glyph glyph-name="uni0304" unicode="&#x304;" d="M-773 687 L-409 687 L-409 752 L-773 752 L-773 687 Z " />
<glyph glyph-name="uni0306" unicode="&#x306;" d="M-590 708 C-670 708 -700 748 -705 796 L-760 796 C-755 722 -719 644 -590 644 C-463 644 -426 722 -421 796 L-476 796 C-481 748 -511 708 -590 708 L-590 708 Z " />
<glyph glyph-name="uni0307" unicode="&#x307;" d="M-640 670 L-541 670 L-541 769 L-640 769 L-640 670 Z " />
<glyph glyph-name="uni0308" unicode="&#x308;" d="M-506 670 L-407 670 L-407 769 L-506 769 L-506 670 Z M-774 670 L-675 670 L-675 769 L-774 769 L-774 670 Z " />
<glyph glyph-name="hookabovecomb" unicode="&#x309;" d="M-640 629 L-591 629 L-591 668 L-586 668 C-513 668 -436 681 -436 762 C-436 837 -507 855 -580 855 C-631 855 -682 845 -712 832 L-712 785 C-688 796 -647 804 -606 804 C-557 804 -510 798 -510 756 C-510 714 -546 706 -612 706 L-640 706 L-640 629 Z " />
<glyph glyph-name="uni030A" unicode="&#x30a;" d="M-652 721 C-652 754 -624 781 -591 781 C-557 781 -530 754 -530 721 C-530 687 -557 660 -591 660 C-624 660 -652 687 -652 721 L-652 721 Z M-710 721 C-710 659 -659 609 -591 609 C-523 609 -472 659 -472 721 C-472 783 -523 832 -591 832 C-659 832 -710 783 -710 721 L-710 721 Z " />
<glyph glyph-name="uni030B" unicode="&#x30b;" d="M-546 635 L-482 635 L-325 806 L-440 806 L-546 635 Z M-782 635 L-718 635 L-561 806 L-675 806 L-782 635 Z " />
<glyph glyph-name="uni030C" unicode="&#x30c;" d="M-411 806 L-475 806 L-591 686 L-707 806 L-771 806 L-650 635 L-532 635 L-411 806 Z " />
<glyph glyph-name="uni030F" unicode="&#x30f;" d="M-741 806 L-856 806 L-699 635 L-635 635 L-741 806 Z M-506 806 L-620 806 L-463 635 L-399 635 L-506 806 Z " />
<glyph glyph-name="uni0311" unicode="&#x311;" d="M-590 733 C-511 733 -481 693 -476 645 L-421 645 C-426 719 -463 797 -590 797 C-719 797 -755 719 -760 645 L-705 645 C-700 693 -670 733 -590 733 L-590 733 Z " />
<glyph glyph-name="uni0312" unicode="&#x312;" d="M-536 579 L-585 579 L-537 700 L-583 700 L-645 572 L-645 470 L-536 470 L-536 579 Z " />
<glyph glyph-name="uni0313" unicode="&#x313;" d="M-645 591 L-596 591 L-644 470 L-598 470 L-536 598 L-536 700 L-645 700 L-645 591 Z " />
<glyph glyph-name="uni0314" unicode="&#x314;" d="M-536 700 L-645 700 L-645 598 L-583 470 L-537 470 L-585 591 L-536 591 L-536 700 Z " />
<glyph glyph-name="uni0316" unicode="&#x316;" d="M-623 -75 L-738 -75 L-581 -246 L-517 -246 L-623 -75 Z " />
<glyph glyph-name="uni0317" unicode="&#x317;" d="M-664 -246 L-600 -246 L-443 -75 L-558 -75 L-664 -246 Z " />
<glyph glyph-name="uni031B" unicode="&#x31b;" d="M-129 506 L-23 506 C75 506 147 527 147 632 C147 648 145 666 142 686 L48 686 C51 668 53 653 53 640 C53 572 14 560 -48 560 L-129 560 L-129 506 Z " />
<glyph glyph-name="uni031C" unicode="&#x31c;" d="M-546 -49 C-614 -49 -665 -98 -665 -160 C-665 -222 -614 -272 -546 -272 L-546 -221 C-579 -221 -607 -194 -607 -160 C-607 -127 -579 -100 -546 -100 L-546 -49 Z " />
<glyph glyph-name="dotbelowcomb" unicode="&#x323;" d="M-640 -211 L-541 -211 L-541 -112 L-640 -112 L-640 -211 Z " />
<glyph glyph-name="uni0324" unicode="&#x324;" d="M-506 -211 L-407 -211 L-407 -112 L-506 -112 L-506 -211 Z M-774 -211 L-675 -211 L-675 -112 L-774 -112 L-774 -211 Z " />
<glyph glyph-name="uni0325" unicode="&#x325;" d="M-652 -160 C-652 -127 -624 -100 -591 -100 C-557 -100 -530 -127 -530 -160 C-530 -194 -557 -221 -591 -221 C-624 -221 -652 -194 -652 -160 L-652 -160 Z M-710 -160 C-710 -222 -659 -272 -591 -272 C-523 -272 -472 -222 -472 -160 C-472 -98 -523 -49 -591 -49 C-659 -49 -710 -98 -710 -160 L-710 -160 Z " />
<glyph glyph-name="uni0326" unicode="&#x326;" d="M-638 -211 L-599 -211 L-647 -318 L-602 -318 L-539 -204 L-539 -112 L-638 -112 L-638 -211 Z " />
<glyph glyph-name="uni0327" unicode="&#x327;" d="M-643 -112 L-616 -112 C-553 -112 -520 -124 -520 -165 C-520 -236 -667 -222 -712 -197 L-712 -241 C-638 -278 -449 -292 -449 -167 C-449 -88 -515 -70 -592 -70 L-593 -70 L-575 0 L-613 0 L-643 -112 Z " />
<glyph glyph-name="uni0328" unicode="&#x328;" d="M-677 -167 C-677 -224 -627 -258 -554 -258 C-513 -258 -475 -253 -430 -235 L-430 -190 C-467 -205 -490 -209 -518 -209 C-564 -209 -597 -187 -597 -145 C-597 -78 -531 -30 -458 0 L-516 0 C-593 -26 -677 -85 -677 -167 L-677 -167 Z " />
<glyph glyph-name="uni032C" unicode="&#x32c;" d="M-411 -75 L-475 -75 L-591 -195 L-707 -75 L-771 -75 L-650 -246 L-532 -246 L-411 -75 Z " />
<glyph glyph-name="uni032D" unicode="&#x32d;" d="M-532 -75 L-650 -75 L-771 -246 L-707 -246 L-591 -126 L-475 -246 L-411 -246 L-532 -75 Z " />
<glyph glyph-name="uni032E" unicode="&#x32e;" d="M-590 -173 C-670 -173 -700 -133 -705 -85 L-760 -85 C-755 -159 -719 -237 -590 -237 C-463 -237 -426 -159 -421 -85 L-476 -85 C-481 -133 -511 -173 -590 -173 L-590 -173 Z " />
<glyph glyph-name="uni032F" unicode="&#x32f;" d="M-590 -148 C-511 -148 -481 -188 -476 -236 L-421 -236 C-426 -162 -463 -84 -590 -84 C-719 -84 -755 -162 -760 -236 L-705 -236 C-700 -188 -670 -148 -590 -148 L-590 -148 Z " />
<glyph glyph-name="uni0330" unicode="&#x330;" d="M-466 -89 C-471 -144 -489 -155 -516 -155 C-560 -155 -603 -96 -667 -96 C-723 -96 -760 -128 -767 -233 L-717 -233 C-712 -178 -693 -166 -667 -166 C-623 -166 -580 -226 -515 -226 C-460 -226 -422 -194 -416 -89 L-466 -89 Z " />
<glyph glyph-name="uni0331" unicode="&#x331;" d="M-773 -194 L-409 -194 L-409 -129 L-773 -129 L-773 -194 Z " />
<glyph glyph-name="uni0338" unicode="&#x338;" d="M-886 -76 L-797 -76 L-295 776 L-384 776 L-886 -76 Z " />
<glyph glyph-name="uni0339" unicode="&#x339;" d="M-635 -100 C-602 -100 -574 -127 -574 -160 C-574 -194 -602 -221 -635 -221 L-635 -272 C-567 -272 -516 -222 -516 -160 C-516 -98 -567 -49 -635 -49 L-635 -100 Z " />
<glyph glyph-name="uni0340" unicode="&#x340;" d="M-623 806 L-738 806 L-581 635 L-517 635 L-623 806 Z " />
<glyph glyph-name="uni0341" unicode="&#x341;" d="M-664 635 L-600 635 L-443 806 L-558 806 L-664 635 Z " />
<glyph glyph-name="uni0343" unicode="&#x343;" d="M-645 591 L-596 591 L-644 470 L-598 470 L-536 598 L-536 700 L-645 700 L-645 591 Z " />
<glyph glyph-name="uni0344" unicode="&#x344;" d="M-459 672 L-362 672 L-362 769 L-459 769 L-459 672 Z M-819 672 L-722 672 L-722 769 L-819 769 L-819 672 Z M-612 635 L-570 635 L-540 835 L-641 835 L-612 635 Z " />
<glyph glyph-name="uni034F" unicode="&#x34f;" d="" />
<glyph glyph-name="uni0351" unicode="&#x351;" d="M-546 832 C-614 832 -665 783 -665 721 C-665 659 -614 609 -546 609 L-546 660 C-579 660 -607 687 -607 721 C-607 754 -579 781 -546 781 L-546 832 Z " />
<glyph glyph-name="uni0357" unicode="&#x357;" d="M-635 781 C-602 781 -574 754 -574 721 C-574 687 -602 660 -635 660 L-635 609 C-567 609 -516 659 -516 721 C-516 783 -567 832 -635 832 L-635 781 Z " />
<glyph glyph-name="uni0374" unicode="&#x374;" horiz-adv-x="306" d="M110 400 L174 400 L255 700 L142 700 L110 400 Z " />
<glyph glyph-name="uni0375" unicode="&#x375;" horiz-adv-x="306" d="M110 -100 L174 -100 L255 200 L142 200 L110 -100 Z " />
<glyph glyph-name="uni037E" unicode="&#x37e;" horiz-adv-x="305" d="M98 0 L147 0 L99 -121 L145 -121 L207 7 L207 109 L98 109 L98 0 Z M98 450 L207 450 L207 560 L98 560 L98 450 Z " />
<glyph glyph-name="tonos" unicode="&#x384;" horiz-adv-x="500" d="M224 635 L275 635 L304 835 L195 835 L224 635 Z " />
<glyph glyph-name="dieresistonos" unicode="&#x385;" horiz-adv-x="500" d="M381 672 L478 672 L478 769 L381 769 L381 672 Z M21 672 L118 672 L118 769 L21 769 L21 672 Z M228 635 L270 635 L300 835 L199 835 L228 635 Z " />
<glyph glyph-name="Alphatonos" unicode="&#x386;" horiz-adv-x="1273" d="M1140 0 L1262 0 L690 700 L583 700 L11 0 L133 0 L243 135 L1029 135 L1140 0 Z M636 616 L962 217 L310 217 L636 616 Z M161 500 L212 500 L241 700 L132 700 L161 500 Z " />
<glyph glyph-name="anoteleia" unicode="&#x387;" horiz-adv-x="295" d="M98 230 L197 230 L197 329 L98 329 L98 230 Z " />
<glyph glyph-name="Epsilontonos" unicode="&#x388;" horiz-adv-x="1358" d="M54 500 L105 500 L134 700 L25 700 L54 500 Z M282 0 L1277 0 L1277 90 L381 90 L381 309 L1175 309 L1175 391 L381 391 L381 610 L1277 610 L1277 700 L282 700 L282 0 Z " />
<glyph glyph-name="Etatonos" unicode="&#x389;" horiz-adv-x="1464" d="M54 500 L105 500 L134 700 L25 700 L54 500 Z M1242 0 L1341 0 L1341 700 L1242 700 L1242 395 L381 395 L381 700 L282 700 L282 0 L381 0 L381 305 L1242 305 L1242 0 Z " />
<glyph glyph-name="Iotatonos" unicode="&#x38a;" horiz-adv-x="504" d="M54 500 L105 500 L134 700 L25 700 L54 500 Z M282 0 L381 0 L381 700 L282 700 L282 0 Z " />
<glyph glyph-name="Omicrontonos" unicode="&#x38c;" horiz-adv-x="1475" d="M54 500 L105 500 L134 700 L25 700 L54 500 Z M945 -10 C1271 -10 1399 151 1399 350 C1399 549 1271 710 945 710 L657 710 C331 710 203 549 203 350 C203 151 331 -10 657 -10 L945 -10 Z M658 80 C396 80 308 200 308 350 C308 499 396 620 658 620 L944 620 C1205 620 1293 499 1293 350 C1293 200 1205 80 944 80 L658 80 Z " />
<glyph glyph-name="Upsilontonos" unicode="&#x38e;" horiz-adv-x="1428" d="M54 500 L105 500 L134 700 L25 700 L54 500 Z M754 0 L853 0 L853 211 L1427 700 L1280 700 L804 290 L328 700 L181 700 L754 211 L754 0 Z " />
<glyph glyph-name="Omegatonos" unicode="&#x38f;" horiz-adv-x="1470" d="M54 500 L105 500 L134 700 L25 700 L54 500 Z M958 0 L1400 0 L1400 90 L1176 90 C1313 154 1370 271 1370 391 C1370 567 1256 710 967 710 L617 710 C328 710 214 567 214 391 C214 271 270 154 407 90 L184 90 L184 0 L626 0 L626 75 C393 114 311 235 311 369 C311 508 391 620 635 620 L949 620 C1192 620 1273 508 1273 369 C1273 236 1190 114 958 75 L958 0 Z " />
<glyph glyph-name="iotadieresistonos" unicode="&#x390;" horiz-adv-x="315" d="M289 672 L386 672 L386 769 L289 769 L289 672 Z M-71 672 L26 672 L26 769 L-71 769 L-71 672 Z M136 635 L178 635 L208 835 L107 835 L136 635 Z M113 0 L202 0 L202 560 L113 560 L113 0 Z " />
<glyph glyph-name="Alpha" unicode="&#x391;" horiz-adv-x="1273" d="M1140 0 L1262 0 L690 700 L583 700 L11 0 L133 0 L243 135 L1029 135 L1140 0 Z M636 616 L962 217 L310 217 L636 616 Z " />
<glyph glyph-name="Beta" unicode="&#x392;" horiz-adv-x="1259" d="M123 0 L946 0 C1113 0 1178 81 1178 183 C1178 268 1132 340 1018 360 C1095 387 1128 449 1128 520 C1128 621 1064 700 899 700 L123 700 L123 0 Z M921 309 C1037 309 1072 259 1072 199 C1072 139 1037 90 921 90 L222 90 L222 309 L921 309 Z M1026 500 C1026 441 991 391 880 391 L222 391 L222 610 L874 610 C988 610 1026 560 1026 500 L1026 500 Z " />
<glyph glyph-name="Gamma" unicode="&#x393;" horiz-adv-x="1129" d="M123 0 L222 0 L222 610 L1098 610 L1098 700 L123 700 L123 0 Z " />
<glyph glyph-name="Delta" unicode="&#x394;" horiz-adv-x="1273" d="M690 700 L583 700 L11 0 L1262 0 L690 700 Z M636 619 L1074 90 L199 90 L636 619 Z " />
<glyph glyph-name="Epsilon" unicode="&#x395;" horiz-adv-x="1199" d="M123 0 L1118 0 L1118 90 L222 90 L222 309 L1016 309 L1016 391 L222 391 L222 610 L1118 610 L1118 700 L123 700 L123 0 Z " />
<glyph glyph-name="Zeta" unicode="&#x396;" horiz-adv-x="1196" d="M73 0 L1133 0 L1133 90 L265 90 L1113 629 L1113 700 L83 700 L83 610 L919 610 L73 70 L73 0 Z " />
<glyph glyph-name="Eta" unicode="&#x397;" horiz-adv-x="1305" d="M1083 0 L1182 0 L1182 700 L1083 700 L1083 395 L222 395 L222 700 L123 700 L123 0 L222 0 L222 305 L1083 305 L1083 0 Z " />
<glyph glyph-name="Theta" unicode="&#x398;" horiz-adv-x="1348" d="M363 309 L984 309 L984 391 L363 391 L363 309 Z M818 -10 C1144 -10 1272 151 1272 350 C1272 549 1144 710 818 710 L530 710 C204 710 76 549 76 350 C76 151 204 -10 530 -10 L818 -10 Z M531 80 C269 80 181 200 181 350 C181 499 269 620 531 620 L817 620 C1078 620 1166 499 1166 350 C1166 200 1078 80 817 80 L531 80 Z " />
<glyph glyph-name="Iota" unicode="&#x399;" horiz-adv-x="345" d="M123 0 L222 0 L222 700 L123 700 L123 0 Z " />
<glyph glyph-name="Kappa" unicode="&#x39a;" horiz-adv-x="1290" d="M1193 700 L1019 700 L222 243 L222 700 L123 700 L123 0 L222 0 L222 144 L546 329 L1113 0 L1284 0 L635 380 L1193 700 Z " />
<glyph glyph-name="Lambda" unicode="&#x39b;" horiz-adv-x="1273" d="M583 700 L11 0 L137 0 L636 616 L1136 0 L1262 0 L690 700 L583 700 Z " />
<glyph glyph-name="Mu" unicode="&#x39c;" horiz-adv-x="1449" d="M1231 700 L724 163 L217 700 L123 700 L123 0 L222 0 L222 563 L724 28 L1227 563 L1227 0 L1326 0 L1326 700 L1231 700 Z " />
<glyph glyph-name="Nu" unicode="&#x39d;" horiz-adv-x="1305" d="M1088 0 L1182 0 L1182 700 L1083 700 L1083 116 L217 700 L123 700 L123 0 L222 0 L222 584 L1088 0 Z " />
<glyph glyph-name="Xi" unicode="&#x39e;" horiz-adv-x="1207" d="M81 610 L1126 610 L1126 700 L81 700 L81 610 Z M1126 90 L81 90 L81 0 L1126 0 L1126 90 Z M173 309 L1034 309 L1034 391 L173 391 L173 309 Z " />
<glyph glyph-name="Omicron" unicode="&#x39f;" horiz-adv-x="1348" d="M818 -10 C1144 -10 1272 151 1272 350 C1272 549 1144 710 818 710 L530 710 C204 710 76 549 76 350 C76 151 204 -10 530 -10 L818 -10 Z M531 80 C269 80 181 200 181 350 C181 499 269 620 531 620 L817 620 C1078 620 1166 499 1166 350 C1166 200 1078 80 817 80 L531 80 Z " />
<glyph glyph-name="Pi" unicode="&#x3a0;" horiz-adv-x="1305" d="M1083 0 L1182 0 L1182 700 L123 700 L123 0 L222 0 L222 610 L1083 610 L1083 0 Z " />
<glyph glyph-name="Rho" unicode="&#x3a1;" horiz-adv-x="1196" d="M123 0 L222 0 L222 265 L887 265 C1086 265 1163 360 1163 482 C1163 602 1086 700 887 700 L123 700 L123 0 Z M885 610 C1019 610 1059 552 1059 482 C1059 410 1019 355 885 355 L222 355 L222 610 L885 610 Z " />
<glyph glyph-name="Sigma" unicode="&#x3a3;" horiz-adv-x="1177" d="M81 625 L567 350 L81 75 L81 0 L1096 0 L1096 90 L281 90 L739 350 L281 610 L1096 610 L1096 700 L81 700 L81 625 Z " />
<glyph glyph-name="Tau" unicode="&#x3a4;" horiz-adv-x="1184" d="M31 610 L542 610 L542 0 L641 0 L641 610 L1153 610 L1153 700 L31 700 L31 610 Z " />
<glyph glyph-name="Upsilon" unicode="&#x3a5;" horiz-adv-x="1248" d="M574 0 L673 0 L673 211 L1247 700 L1100 700 L624 290 L148 700 L1 700 L574 211 L574 0 Z " />
<glyph glyph-name="Phi" unicode="&#x3a6;" horiz-adv-x="1305" d="M883 62 C1147 62 1248 188 1248 350 C1248 508 1147 638 883 638 L701 638 L701 750 L602 750 L602 638 L422 638 C158 638 57 508 57 350 C57 188 158 62 422 62 L602 62 L602 -50 L701 -50 L701 62 L883 62 Z M881 548 C1080 548 1143 458 1143 350 C1143 238 1080 152 881 152 L701 152 L701 548 L881 548 Z M162 350 C162 458 224 548 423 548 L602 548 L602 152 L423 152 C224 152 162 238 162 350 L162 350 Z " />
<glyph glyph-name="Chi" unicode="&#x3a7;" horiz-adv-x="1228" d="M21 700 L533 351 L16 0 L174 0 L614 301 L1053 0 L1212 0 L694 351 L1207 700 L1048 700 L614 402 L179 700 L21 700 Z " />
<glyph glyph-name="Psi" unicode="&#x3a8;" horiz-adv-x="1296" d="M598 0 L697 0 L697 147 L812 147 C1129 147 1233 284 1233 477 L1233 700 L1134 700 L1134 477 C1134 335 1060 237 811 237 L697 237 L697 700 L598 700 L598 237 L485 237 C235 237 162 335 162 477 L162 700 L63 700 L63 477 C63 284 167 147 484 147 L598 147 L598 0 Z " />
<glyph glyph-name="Omega" unicode="&#x3a9;" horiz-adv-x="1356" d="M844 0 L1286 0 L1286 90 L1062 90 C1199 154 1256 271 1256 391 C1256 567 1142 710 853 710 L503 710 C214 710 100 567 100 391 C100 271 156 154 293 90 L70 90 L70 0 L512 0 L512 75 C279 114 197 235 197 369 C197 508 277 620 521 620 L835 620 C1078 620 1159 508 1159 369 C1159 236 1076 114 844 75 L844 0 Z " />
<glyph glyph-name="Iotadieresis" unicode="&#x3aa;" horiz-adv-x="345" d="M123 0 L222 0 L222 700 L123 700 L123 0 Z M257 810 L356 810 L356 909 L257 909 L257 810 Z M-11 810 L88 810 L88 909 L-11 909 L-11 810 Z " />
<glyph glyph-name="Upsilondieresis" unicode="&#x3ab;" horiz-adv-x="1248" d="M574 0 L673 0 L673 211 L1247 700 L1100 700 L624 290 L148 700 L1 700 L574 211 L574 0 Z M710 810 L809 810 L809 909 L710 909 L710 810 Z M442 810 L541 810 L541 909 L442 909 L442 810 Z " />
<glyph glyph-name="alphatonos" unicode="&#x3ac;" horiz-adv-x="1089" d="M967 0 L1077 0 L592 560 L497 560 L12 0 L122 0 L219 112 L870 112 L967 0 Z M544 487 L810 181 L279 181 L544 487 Z M121 360 L172 360 L201 560 L92 560 L121 360 Z " />
<glyph glyph-name="epsilontonos" unicode="&#x3ad;" horiz-adv-x="1192" d="M54 360 L105 360 L134 560 L25 560 L54 360 Z M272 0 L1118 0 L1118 77 L361 77 L361 245 L1031 245 L1031 314 L361 314 L361 482 L1118 482 L1118 560 L272 560 L272 0 Z " />
<glyph glyph-name="etatonos" unicode="&#x3ae;" horiz-adv-x="1286" d="M54 360 L105 360 L134 560 L25 560 L54 360 Z M1084 0 L1173 0 L1173 560 L1084 560 L1084 319 L361 319 L361 560 L272 560 L272 0 L361 0 L361 241 L1084 241 L1084 0 Z " />
<glyph glyph-name="iotatonos" unicode="&#x3af;" horiz-adv-x="474" d="M54 360 L105 360 L134 560 L25 560 L54 360 Z M272 0 L361 0 L361 560 L272 560 L272 0 Z " />
<glyph glyph-name="upsilondieresistonos" unicode="&#x3b0;" horiz-adv-x="1062" d="M664 672 L761 672 L761 769 L664 769 L664 672 Z M304 672 L401 672 L401 769 L304 769 L304 672 Z M511 635 L553 635 L583 835 L482 835 L511 635 Z M487 0 L576 0 L576 170 L1061 560 L929 560 L531 237 L133 560 L1 560 L487 170 L487 0 Z " />
<glyph glyph-name="alpha" unicode="&#x3b1;" horiz-adv-x="1089" d="M967 0 L1077 0 L592 560 L497 560 L12 0 L122 0 L219 112 L870 112 L967 0 Z M544 487 L810 181 L279 181 L544 487 Z " />
<glyph glyph-name="beta" unicode="&#x3b2;" horiz-adv-x="1083" d="M113 0 L819 0 C962 0 1010 65 1010 147 C1010 215 974 272 878 289 C943 311 968 359 968 416 C968 497 920 560 780 560 L113 560 L113 0 Z M795 245 C891 245 915 207 915 161 C915 115 891 77 795 77 L202 77 L202 245 L795 245 Z M760 314 L202 314 L202 482 L755 482 C850 482 875 444 875 398 C875 352 852 314 760 314 L760 314 Z " />
<glyph glyph-name="gamma" unicode="&#x3b3;" horiz-adv-x="986" d="M113 0 L202 0 L202 482 L942 482 L942 560 L113 560 L113 0 Z " />
<glyph glyph-name="delta" unicode="&#x3b4;" horiz-adv-x="1089" d="M592 560 L497 560 L12 0 L1077 0 L592 560 Z M544 489 L908 77 L181 77 L544 489 Z " />
<glyph glyph-name="epsilon" unicode="&#x3b5;" horiz-adv-x="1033" d="M113 0 L959 0 L959 77 L202 77 L202 245 L872 245 L872 314 L202 314 L202 482 L959 482 L959 560 L113 560 L113 0 Z " />
<glyph glyph-name="zeta" unicode="&#x3b6;" horiz-adv-x="1024" d="M66 0 L968 0 L968 77 L239 77 L951 499 L951 560 L75 560 L75 482 L777 482 L66 60 L66 0 Z " />
<glyph glyph-name="eta" unicode="&#x3b7;" horiz-adv-x="1127" d="M925 0 L1014 0 L1014 560 L925 560 L925 319 L202 319 L202 560 L113 560 L113 0 L202 0 L202 241 L925 241 L925 0 Z " />
<glyph glyph-name="theta" unicode="&#x3b8;" horiz-adv-x="1155" d="M317 245 L836 245 L836 314 L317 314 L317 245 Z M708 -8 C985 -8 1086 121 1086 280 C1086 439 985 568 708 568 L447 568 C170 568 69 439 69 280 C69 121 170 -8 447 -8 L708 -8 Z M448 69 C228 69 163 163 163 280 C163 396 228 490 448 490 L707 490 C927 490 992 396 992 280 C992 163 927 69 707 69 L448 69 Z " />
<glyph glyph-name="iota" unicode="&#x3b9;" horiz-adv-x="315" d="M113 0 L202 0 L202 560 L113 560 L113 0 Z " />
<glyph glyph-name="kappa" unicode="&#x3ba;" horiz-adv-x="1113" d="M1030 560 L867 560 L202 201 L202 560 L113 560 L113 0 L202 0 L202 114 L475 261 L947 0 L1102 0 L555 304 L1030 560 Z " />
<glyph glyph-name="lambda" unicode="&#x3bb;" horiz-adv-x="1089" d="M497 560 L12 0 L125 0 L544 487 L964 0 L1077 0 L592 560 L497 560 Z " />
<glyph glyph-name="mu" unicode="&#x3bc;" horiz-adv-x="1250" d="M1052 560 L625 138 L198 560 L113 560 L113 0 L202 0 L202 441 L625 21 L1048 441 L1048 0 L1137 0 L1137 560 L1052 560 Z " />
<glyph glyph-name="nu" unicode="&#x3bd;" horiz-adv-x="1127" d="M1014 0 L1014 560 L925 560 L925 100 L197 560 L113 560 L113 0 L202 0 L202 460 L930 0 L1014 0 Z " />
<glyph glyph-name="xi" unicode="&#x3be;" horiz-adv-x="1037" d="M74 482 L963 482 L963 560 L74 560 L74 482 Z M963 77 L74 77 L74 0 L963 0 L963 77 Z M153 245 L884 245 L884 314 L153 314 L153 245 Z " />
<glyph glyph-name="omicron" unicode="&#x3bf;" horiz-adv-x="1155" d="M708 -8 C985 -8 1086 121 1086 280 C1086 439 985 568 708 568 L447 568 C170 568 69 439 69 280 C69 121 170 -8 447 -8 L708 -8 Z M448 69 C228 69 163 163 163 280 C163 396 228 490 448 490 L707 490 C927 490 992 396 992 280 C992 163 927 69 707 69 L448 69 Z " />
<glyph glyph-name="pi" unicode="&#x3c0;" horiz-adv-x="1127" d="M925 0 L1014 0 L1014 560 L113 560 L113 0 L202 0 L202 482 L925 482 L925 0 Z " />
<glyph glyph-name="rho" unicode="&#x3c1;" horiz-adv-x="1041" d="M113 0 L202 0 L202 209 L768 209 C938 209 998 286 998 384 C998 481 938 560 768 560 L113 560 L113 0 Z M766 482 C878 482 905 438 905 384 C905 329 878 287 766 287 L202 287 L202 482 L766 482 Z " />
<glyph glyph-name="uni03C2" unicode="&#x3c2;" horiz-adv-x="1009" d="M73 495 L483 280 L73 64 L73 0 L936 0 L936 77 L253 77 L636 280 L253 482 L936 482 L936 560 L73 560 L73 495 Z " />
<glyph glyph-name="sigma" unicode="&#x3c3;" horiz-adv-x="1009" d="M73 495 L483 280 L73 64 L73 0 L936 0 L936 77 L253 77 L636 280 L253 482 L936 482 L936 560 L73 560 L73 495 Z " />
<glyph glyph-name="tau" unicode="&#x3c4;" horiz-adv-x="1041" d="M44 482 L476 482 L476 0 L565 0 L565 482 L997 482 L997 560 L44 560 L44 482 Z " />
<glyph glyph-name="upsilon" unicode="&#x3c5;" horiz-adv-x="1062" d="M487 0 L576 0 L576 170 L1061 560 L929 560 L531 237 L133 560 L1 560 L487 170 L487 0 Z " />
<glyph glyph-name="phi" unicode="&#x3c6;" horiz-adv-x="1129" d="M767 50 C991 50 1071 150 1071 280 C1071 406 991 510 767 510 L608 510 L608 600 L519 600 L519 510 L362 510 C138 510 58 406 58 280 C58 150 138 50 362 50 L519 50 L519 -40 L608 -40 L608 50 L767 50 Z M765 432 C929 432 978 363 978 280 C978 194 929 127 765 127 L608 127 L608 432 L765 432 Z M151 280 C151 363 199 432 363 432 L519 432 L519 127 L363 127 C199 127 151 194 151 280 L151 280 Z " />
<glyph glyph-name="chi" unicode="&#x3c7;" horiz-adv-x="1064" d="M26 560 L461 282 L21 0 L167 0 L532 237 L897 0 L1044 0 L603 282 L1040 560 L893 560 L532 327 L172 560 L26 560 Z " />
<glyph glyph-name="psi" unicode="&#x3c8;" horiz-adv-x="1115" d="M513 0 L602 0 L602 116 L703 116 C972 116 1055 226 1055 380 L1055 560 L966 560 L966 380 C966 270 911 194 702 194 L602 194 L602 560 L513 560 L513 194 L412 194 C203 194 148 270 148 380 L148 560 L60 560 L60 380 C60 226 142 116 411 116 L513 116 L513 0 Z " />
<glyph glyph-name="omega" unicode="&#x3c9;" horiz-adv-x="1169" d="M724 0 L1102 0 L1102 77 L920 77 C1030 129 1076 220 1076 313 C1076 454 987 568 742 568 L427 568 C182 568 93 454 93 313 C93 220 138 129 247 77 L67 77 L67 0 L444 0 L444 65 C248 95 178 189 178 294 C178 403 239 490 443 490 L725 490 C930 490 990 403 990 294 C990 189 920 95 724 65 L724 0 Z " />
<glyph glyph-name="iotadieresis" unicode="&#x3ca;" horiz-adv-x="315" d="M113 0 L202 0 L202 560 L113 560 L113 0 Z M242 670 L341 670 L341 769 L242 769 L242 670 Z M-26 670 L73 670 L73 769 L-26 769 L-26 670 Z " />
<glyph glyph-name="upsilondieresis" unicode="&#x3cb;" horiz-adv-x="1062" d="M487 0 L576 0 L576 170 L1061 560 L929 560 L531 237 L133 560 L1 560 L487 170 L487 0 Z M617 670 L716 670 L716 769 L617 769 L617 670 Z M349 670 L448 670 L448 769 L349 769 L349 670 Z " />
<glyph glyph-name="omicrontonos" unicode="&#x3cc;" horiz-adv-x="1296" d="M54 360 L105 360 L134 560 L25 560 L54 360 Z M849 -8 C1126 -8 1227 121 1227 280 C1227 439 1126 568 849 568 L588 568 C311 568 210 439 210 280 C210 121 311 -8 588 -8 L849 -8 Z M589 69 C369 69 304 163 304 280 C304 396 369 490 589 490 L848 490 C1068 490 1133 396 1133 280 C1133 163 1068 69 848 69 L589 69 Z " />
<glyph glyph-name="upsilontonos" unicode="&#x3cd;" horiz-adv-x="1242" d="M54 360 L105 360 L134 560 L25 560 L54 360 Z M667 0 L756 0 L756 170 L1241 560 L1109 560 L711 237 L313 560 L181 560 L667 170 L667 0 Z " />
<glyph glyph-name="omegatonos" unicode="&#x3ce;" horiz-adv-x="1291" d="M54 360 L105 360 L134 560 L25 560 L54 360 Z M846 0 L1224 0 L1224 77 L1042 77 C1152 129 1198 220 1198 313 C1198 454 1109 568 864 568 L549 568 C304 568 215 454 215 313 C215 220 260 129 369 77 L189 77 L189 0 L566 0 L566 65 C370 95 300 189 300 294 C300 403 361 490 565 490 L847 490 C1052 490 1112 403 1112 294 C1112 189 1042 95 846 65 L846 0 Z " />
<glyph glyph-name="uni0400" unicode="&#x400;" horiz-adv-x="1199" d="M123 0 L1118 0 L1118 90 L222 90 L222 309 L1016 309 L1016 391 L222 391 L222 610 L1118 610 L1118 700 L123 700 L123 0 Z M576 946 L461 946 L618 775 L682 775 L576 946 Z " />
<glyph glyph-name="uni0401" unicode="&#x401;" horiz-adv-x="1199" d="M123 0 L1118 0 L1118 90 L222 90 L222 309 L1016 309 L1016 391 L222 391 L222 610 L1118 610 L1118 700 L123 700 L123 0 Z M694 810 L793 810 L793 909 L694 909 L694 810 Z M426 810 L525 810 L525 909 L426 909 L426 810 Z " />
<glyph glyph-name="uni0402" unicode="&#x402;" horiz-adv-x="1354" d="M743 0 L1071 0 C1251 0 1321 87 1321 195 C1321 306 1251 391 1071 391 L440 391 L440 610 L956 610 L956 700 L31 700 L31 610 L341 610 L341 -1 L440 -1 L440 309 L1068 309 C1184 309 1216 260 1216 199 C1216 140 1184 90 1068 90 L743 90 L743 0 Z " />
<glyph glyph-name="uni0403" unicode="&#x403;" horiz-adv-x="1129" d="M123 0 L222 0 L222 610 L1098 610 L1098 700 L123 700 L123 0 Z M532 775 L596 775 L753 946 L638 946 L532 775 Z " />
<glyph glyph-name="uni0404" unicode="&#x404;" horiz-adv-x="1184" d="M1001 309 L1001 391 L181 391 C196 514 292 610 518 610 L1103 610 L1103 700 L517 700 C200 700 76 543 76 350 C76 157 200 0 517 0 L1103 0 L1103 90 L518 90 C292 90 196 185 181 309 L1001 309 Z " />
<glyph glyph-name="uni0405" unicode="&#x405;" horiz-adv-x="1207" d="M113 0 L884 0 C1064 0 1134 87 1134 195 C1134 306 1064 391 884 391 L325 391 C210 391 176 440 176 500 C176 559 210 610 325 610 L1094 610 L1094 700 L323 700 C142 700 73 613 73 504 C73 394 142 309 323 309 L881 309 C997 309 1030 260 1030 199 C1030 140 997 90 881 90 L113 90 L113 0 Z " />
<glyph glyph-name="uni0406" unicode="&#x406;" horiz-adv-x="345" d="M123 0 L222 0 L222 700 L123 700 L123 0 Z " />
<glyph glyph-name="uni0407" unicode="&#x407;" horiz-adv-x="345" d="M123 0 L222 0 L222 700 L123 700 L123 0 Z M257 810 L356 810 L356 909 L257 909 L257 810 Z M-11 810 L88 810 L88 909 L-11 909 L-11 810 Z " />
<glyph glyph-name="uni0408" unicode="&#x408;" horiz-adv-x="1231" d="M386 -5 L687 -5 C1004 -5 1108 132 1108 325 L1108 700 L1009 700 L1009 325 C1009 183 935 85 686 85 L387 85 C199 85 142 170 142 275 L142 324 L43 324 L43 275 C43 121 132 -5 386 -5 L386 -5 Z " />
<glyph glyph-name="uni0409" unicode="&#x409;" horiz-adv-x="1862" d="M308 700 L238 201 C229 138 196 90 90 90 L31 90 L31 0 L83 0 C262 0 321 82 337 201 L394 610 L902 610 L902 0 L1553 0 C1752 0 1829 95 1829 217 C1829 337 1752 435 1553 435 L1001 435 L1001 700 L308 700 Z M1550 345 C1685 345 1724 287 1724 217 C1724 145 1685 90 1550 90 L1001 90 L1001 345 L1550 345 Z " />
<glyph glyph-name="uni040A" unicode="&#x40a;" horiz-adv-x="1876" d="M916 0 L1567 0 C1766 0 1843 95 1843 217 C1843 337 1766 435 1567 435 L1015 435 L1015 700 L916 700 L916 435 L222 435 L222 700 L123 700 L123 0 L222 0 L222 345 L916 345 L916 0 Z M1564 345 C1699 345 1738 287 1738 217 C1738 145 1699 90 1564 90 L1015 90 L1015 345 L1564 345 Z " />
<glyph glyph-name="uni040B" unicode="&#x40b;" horiz-adv-x="1384" d="M1321 -1 L1321 189 C1321 301 1266 389 1083 389 L440 389 L440 610 L956 610 L956 700 L31 700 L31 610 L341 610 L341 -1 L440 -1 L440 298 L1084 298 C1199 298 1222 247 1222 181 L1222 -1 L1321 -1 Z " />
<glyph glyph-name="uni040C" unicode="&#x40c;" horiz-adv-x="1289" d="M670 353 L1195 700 L1041 700 L581 395 L222 395 L222 700 L123 700 L123 0 L222 0 L222 305 L579 305 L1113 0 L1283 0 L670 353 Z M506 775 L570 775 L727 946 L612 946 L506 775 Z " />
<glyph glyph-name="uni040D" unicode="&#x40d;" horiz-adv-x="1305" d="M1083 584 L1083 0 L1182 0 L1182 700 L1088 700 L222 116 L222 700 L123 700 L123 0 L217 0 L1083 584 Z M619 946 L504 946 L661 775 L725 775 L619 946 Z " />
<glyph glyph-name="uni040E" unicode="&#x40e;" horiz-adv-x="1252" d="M450 0 L1253 700 L1111 700 L636 281 L147 700 L3 700 L569 219 L309 0 L450 0 Z M638 848 C558 848 528 888 523 936 L468 936 C473 862 509 784 638 784 C765 784 802 862 807 936 L752 936 C747 888 717 848 638 848 L638 848 Z " />
<glyph glyph-name="uni040F" unicode="&#x40f;" horiz-adv-x="1305" d="M1083 90 L222 90 L222 700 L123 700 L123 0 L603 0 L603 -150 L702 -150 L702 0 L1182 0 L1182 700 L1083 700 L1083 90 Z " />
<glyph glyph-name="uni0410" unicode="&#x410;" horiz-adv-x="1273" d="M1140 0 L1262 0 L690 700 L583 700 L11 0 L133 0 L243 135 L1029 135 L1140 0 Z M636 616 L962 217 L310 217 L636 616 Z " />
<glyph glyph-name="uni0411" unicode="&#x411;" horiz-adv-x="1236" d="M123 0 L913 0 C1093 0 1163 87 1163 195 C1163 306 1093 391 913 391 L222 391 L222 610 L1098 610 L1098 700 L123 700 L123 0 Z M910 309 C1026 309 1058 260 1058 199 C1058 140 1026 90 910 90 L222 90 L222 309 L910 309 Z " />
<glyph glyph-name="uni0412" unicode="&#x412;" horiz-adv-x="1259" d="M123 0 L946 0 C1113 0 1178 81 1178 183 C1178 268 1132 340 1018 360 C1095 387 1128 449 1128 520 C1128 621 1064 700 899 700 L123 700 L123 0 Z M921 309 C1037 309 1072 259 1072 199 C1072 139 1037 90 921 90 L222 90 L222 309 L921 309 Z M1026 500 C1026 441 991 391 880 391 L222 391 L222 610 L874 610 C988 610 1026 560 1026 500 L1026 500 Z " />
<glyph glyph-name="uni0413" unicode="&#x413;" horiz-adv-x="1129" d="M123 0 L222 0 L222 610 L1098 610 L1098 700 L123 700 L123 0 Z " />
<glyph glyph-name="uni0414" unicode="&#x414;" horiz-adv-x="1250" d="M130 0 L1085 0 L1085 -150 L1184 -150 L1184 90 L1097 90 L1097 700 L308 700 L238 201 C229 139 198 90 96 90 L31 90 L31 -150 L130 -150 L130 0 Z M340 224 L394 610 L998 610 L998 90 L263 90 C312 117 332 165 340 224 L340 224 Z " />
<glyph glyph-name="uni0415" unicode="&#x415;" horiz-adv-x="1199" d="M123 0 L1118 0 L1118 90 L222 90 L222 309 L1016 309 L1016 391 L222 391 L222 610 L1118 610 L1118 700 L123 700 L123 0 Z " />
<glyph glyph-name="uni0416" unicode="&#x416;" horiz-adv-x="1627" d="M1125 351 L1549 700 L1412 700 L1040 395 L862 395 L862 700 L763 700 L763 395 L587 395 L214 700 L77 700 L501 351 L21 0 L167 0 L587 305 L763 305 L763 0 L862 0 L862 305 L1039 305 L1460 0 L1606 0 L1125 351 Z " />
<glyph glyph-name="uni0417" unicode="&#x417;" horiz-adv-x="1269" d="M71 0 L956 0 C1123 0 1188 81 1188 183 C1188 268 1142 340 1028 360 C1105 387 1138 449 1138 520 C1138 621 1074 700 909 700 L91 700 L91 610 L884 610 C1000 610 1036 559 1036 500 C1036 441 1001 391 890 391 L178 391 L178 309 L931 309 C1047 309 1082 259 1082 200 C1082 140 1047 90 931 90 L71 90 L71 0 Z " />
<glyph glyph-name="uni0418" unicode="&#x418;" horiz-adv-x="1305" d="M1083 584 L1083 0 L1182 0 L1182 700 L1088 700 L222 116 L222 700 L123 700 L123 0 L217 0 L1083 584 Z " />
<glyph glyph-name="uni0419" unicode="&#x419;" horiz-adv-x="1305" d="M1083 584 L1083 0 L1182 0 L1182 700 L1088 700 L222 116 L222 700 L123 700 L123 0 L217 0 L1083 584 Z M653 848 C573 848 543 888 538 936 L483 936 C488 862 524 784 653 784 C780 784 817 862 822 936 L767 936 C762 888 732 848 653 848 L653 848 Z " />
<glyph glyph-name="uni041A" unicode="&#x41a;" horiz-adv-x="1289" d="M670 353 L1195 700 L1041 700 L581 395 L222 395 L222 700 L123 700 L123 0 L222 0 L222 305 L579 305 L1113 0 L1283 0 L670 353 Z " />
<glyph glyph-name="uni041B" unicode="&#x41b;" horiz-adv-x="1257" d="M308 700 L238 201 C229 137 196 90 90 90 L31 90 L31 0 L83 0 C262 0 321 81 337 201 L394 610 L1035 610 L1035 0 L1134 0 L1134 700 L308 700 Z " />
<glyph glyph-name="uni041C" unicode="&#x41c;" horiz-adv-x="1449" d="M1231 700 L724 163 L217 700 L123 700 L123 0 L222 0 L222 563 L724 28 L1227 563 L1227 0 L1326 0 L1326 700 L1231 700 Z " />
<glyph glyph-name="uni041D" unicode="&#x41d;" horiz-adv-x="1305" d="M1083 0 L1182 0 L1182 700 L1083 700 L1083 395 L222 395 L222 700 L123 700 L123 0 L222 0 L222 305 L1083 305 L1083 0 Z " />
<glyph glyph-name="uni041E" unicode="&#x41e;" horiz-adv-x="1348" d="M818 -10 C1144 -10 1272 151 1272 350 C1272 549 1144 710 818 710 L530 710 C204 710 76 549 76 350 C76 151 204 -10 530 -10 L818 -10 Z M531 80 C269 80 181 200 181 350 C181 499 269 620 531 620 L817 620 C1078 620 1166 499 1166 350 C1166 200 1078 80 817 80 L531 80 Z " />
<glyph glyph-name="uni041F" unicode="&#x41f;" horiz-adv-x="1305" d="M1083 0 L1182 0 L1182 700 L123 700 L123 0 L222 0 L222 610 L1083 610 L1083 0 Z " />
<glyph glyph-name="uni0420" unicode="&#x420;" horiz-adv-x="1196" d="M123 0 L222 0 L222 265 L887 265 C1086 265 1163 360 1163 482 C1163 602 1086 700 887 700 L123 700 L123 0 Z M885 610 C1019 610 1059 552 1059 482 C1059 410 1019 355 885 355 L222 355 L222 610 L885 610 Z " />
<glyph glyph-name="uni0421" unicode="&#x421;" horiz-adv-x="1184" d="M181 350 C181 493 265 610 518 610 L1103 610 L1103 700 L517 700 C200 700 76 543 76 350 C76 157 200 0 517 0 L1103 0 L1103 90 L518 90 C265 90 181 206 181 350 L181 350 Z " />
<glyph glyph-name="uni0422" unicode="&#x422;" horiz-adv-x="1184" d="M31 610 L542 610 L542 0 L641 0 L641 610 L1153 610 L1153 700 L31 700 L31 610 Z " />
<glyph glyph-name="uni0423" unicode="&#x423;" horiz-adv-x="1252" d="M450 0 L1253 700 L1111 700 L636 281 L147 700 L3 700 L569 219 L309 0 L450 0 Z " />
<glyph glyph-name="uni0424" unicode="&#x424;" horiz-adv-x="1305" d="M883 62 C1147 62 1248 188 1248 350 C1248 508 1147 638 883 638 L701 638 L701 750 L602 750 L602 638 L422 638 C158 638 57 508 57 350 C57 188 158 62 422 62 L602 62 L602 -50 L701 -50 L701 62 L883 62 Z M881 548 C1080 548 1143 458 1143 350 C1143 238 1080 152 881 152 L701 152 L701 548 L881 548 Z M162 350 C162 458 224 548 423 548 L602 548 L602 152 L423 152 C224 152 162 238 162 350 L162 350 Z " />
<glyph glyph-name="uni0425" unicode="&#x425;" horiz-adv-x="1228" d="M21 700 L533 351 L16 0 L174 0 L614 301 L1053 0 L1212 0 L694 351 L1207 700 L1048 700 L614 402 L179 700 L21 700 Z " />
<glyph glyph-name="uni0426" unicode="&#x426;" horiz-adv-x="1297" d="M1046 90 L222 90 L222 700 L123 700 L123 0 L1132 0 L1132 -150 L1231 -150 L1231 90 L1145 90 L1145 700 L1046 700 L1046 90 Z " />
<glyph glyph-name="uni0427" unicode="&#x427;" horiz-adv-x="1226" d="M63 699 L63 461 C63 349 117 261 301 261 L1004 261 L1004 -1 L1103 -1 L1103 699 L1004 699 L1004 352 L300 352 C185 352 162 403 162 469 L162 699 L63 699 Z " />
<glyph glyph-name="uni0428" unicode="&#x428;" horiz-adv-x="1599" d="M1377 90 L848 90 L848 700 L749 700 L749 90 L222 90 L222 700 L123 700 L123 0 L1476 0 L1476 700 L1377 700 L1377 90 Z " />
<glyph glyph-name="uni0429" unicode="&#x429;" horiz-adv-x="1593" d="M1341 90 L830 90 L830 700 L731 700 L731 90 L222 90 L222 700 L123 700 L123 0 L1428 0 L1428 -150 L1527 -150 L1527 90 L1440 90 L1440 700 L1341 700 L1341 90 Z " />
<glyph glyph-name="uni042A" unicode="&#x42a;" horiz-adv-x="1354" d="M31 610 L341 610 L341 0 L1045 0 C1244 0 1321 95 1321 217 C1321 337 1244 435 1045 435 L440 435 L440 700 L31 700 L31 610 Z M1042 345 C1177 345 1216 288 1216 217 C1216 145 1176 90 1042 90 L440 90 L440 345 L1042 345 Z " />
<glyph glyph-name="uni042B" unicode="&#x42b;" horiz-adv-x="1541" d="M123 0 L887 0 C1086 0 1163 94 1163 217 C1163 336 1086 435 887 435 L222 435 L222 700 L123 700 L123 0 Z M884 345 C1019 345 1058 287 1058 217 C1058 145 1018 90 884 90 L222 90 L222 345 L884 345 Z M1319 0 L1418 0 L1418 700 L1319 700 L1319 0 Z " />
<glyph glyph-name="uni042C" unicode="&#x42c;" horiz-adv-x="1196" d="M123 0 L887 0 C1086 0 1163 94 1163 217 C1163 336 1086 435 887 435 L222 435 L222 700 L123 700 L123 0 Z M884 345 C1019 345 1058 287 1058 217 C1058 145 1018 90 884 90 L222 90 L222 345 L884 345 Z " />
<glyph glyph-name="uni042D" unicode="&#x42d;" horiz-adv-x="1184" d="M183 309 L1002 309 C986 185 892 90 666 90 L81 90 L81 0 L667 0 C984 0 1108 157 1108 350 C1108 543 984 700 667 700 L81 700 L81 610 L666 610 C892 610 986 514 1002 391 L183 391 L183 309 Z " />
<glyph glyph-name="uni042E" unicode="&#x42e;" horiz-adv-x="1879" d="M1349 -10 C1675 -10 1803 151 1803 350 C1803 549 1675 710 1349 710 L1111 710 C810 710 678 572 660 395 L222 395 L222 700 L123 700 L123 0 L222 0 L222 305 L660 305 C678 127 810 -10 1111 -10 L1349 -10 Z M1112 80 C850 80 762 200 762 350 C762 499 850 620 1112 620 L1348 620 C1609 620 1697 499 1697 350 C1697 200 1609 80 1348 80 L1112 80 Z " />
<glyph glyph-name="uni042F" unicode="&#x42f;" horiz-adv-x="1278" d="M1169 700 L420 700 C222 700 144 603 144 484 C144 362 222 268 420 268 L489 268 L20 0 L188 0 L644 266 L1070 266 L1070 0 L1169 0 L1169 700 Z M1070 610 L1070 353 L424 353 C290 353 247 410 247 482 C247 552 290 610 424 610 L1070 610 Z " />
<glyph glyph-name="uni0430" unicode="&#x430;" horiz-adv-x="1089" d="M967 0 L1077 0 L592 560 L497 560 L12 0 L122 0 L219 112 L870 112 L967 0 Z M544 487 L810 181 L279 181 L544 487 Z " />
<glyph glyph-name="uni0431" unicode="&#x431;" horiz-adv-x="1063" d="M113 0 L790 0 C944 0 998 69 998 157 C998 246 944 314 790 314 L202 314 L202 482 L942 482 L942 560 L113 560 L113 0 Z M785 245 C880 245 905 208 905 161 C905 115 881 77 785 77 L202 77 L202 245 L785 245 Z " />
<glyph glyph-name="uni0432" unicode="&#x432;" horiz-adv-x="1083" d="M113 0 L819 0 C962 0 1010 65 1010 147 C1010 215 974 272 878 289 C943 311 968 359 968 416 C968 497 920 560 780 560 L113 560 L113 0 Z M795 245 C891 245 915 207 915 161 C915 115 891 77 795 77 L202 77 L202 245 L795 245 Z M760 314 L202 314 L202 482 L755 482 C850 482 875 444 875 398 C875 352 852 314 760 314 L760 314 Z " />
<glyph glyph-name="uni0433" unicode="&#x433;" horiz-adv-x="986" d="M113 0 L202 0 L202 482 L942 482 L942 560 L113 560 L113 0 Z " />
<glyph glyph-name="uni0434" unicode="&#x434;" horiz-adv-x="1086" d="M133 0 L936 0 L936 -120 L1025 -120 L1025 77 L951 77 L951 560 L279 560 L220 163 C213 116 186 77 102 77 L44 77 L44 -120 L133 -120 L133 0 Z M311 184 L356 482 L862 482 L862 77 L248 77 C288 100 304 138 311 184 L311 184 Z " />
<glyph glyph-name="uni0435" unicode="&#x435;" horiz-adv-x="1033" d="M113 0 L959 0 L959 77 L202 77 L202 245 L872 245 L872 314 L202 314 L202 482 L959 482 L959 560 L113 560 L113 0 Z " />
<glyph glyph-name="uni0436" unicode="&#x436;" horiz-adv-x="1399" d="M971 280 L1326 560 L1204 560 L897 319 L743 319 L743 560 L655 560 L655 319 L502 319 L195 560 L72 560 L427 280 L25 0 L156 0 L503 241 L655 241 L655 0 L743 0 L743 241 L896 241 L1241 0 L1374 0 L971 280 Z " />
<glyph glyph-name="uni0437" unicode="&#x437;" horiz-adv-x="1088" d="M65 0 L823 0 C966 0 1015 65 1015 147 C1015 215 979 272 883 289 C947 311 972 359 972 416 C972 497 924 560 784 560 L82 560 L82 482 L764 482 C860 482 883 444 883 398 C883 353 861 314 768 314 L156 314 L156 245 L803 245 C899 245 923 207 923 161 C923 116 899 77 803 77 L65 77 L65 0 Z " />
<glyph glyph-name="uni0438" unicode="&#x438;" horiz-adv-x="1127" d="M202 560 L113 560 L113 0 L197 0 L925 460 L925 0 L1014 0 L1014 560 L930 560 L202 100 L202 560 Z " />
<glyph glyph-name="uni0439" unicode="&#x439;" horiz-adv-x="1127" d="M202 560 L113 560 L113 0 L197 0 L925 460 L925 0 L1014 0 L1014 560 L930 560 L202 100 L202 560 Z M564 708 C484 708 454 748 449 796 L394 796 C399 722 435 644 564 644 C691 644 728 722 733 796 L678 796 C673 748 643 708 564 708 L564 708 Z " />
<glyph glyph-name="uni043A" unicode="&#x43a;" horiz-adv-x="1114" d="M583 282 L1025 560 L884 560 L501 319 L202 319 L202 560 L113 560 L113 0 L202 0 L202 241 L502 241 L948 0 L1101 0 L583 282 Z " />
<glyph glyph-name="uni043B" unicode="&#x43b;" horiz-adv-x="1095" d="M279 560 L220 163 C213 114 184 77 96 77 L44 77 L44 0 L90 0 C244 0 294 66 309 163 L356 482 L893 482 L893 0 L982 0 L982 560 L279 560 Z " />
<glyph glyph-name="uni043C" unicode="&#x43c;" horiz-adv-x="1250" d="M1052 560 L625 138 L198 560 L113 560 L113 0 L202 0 L202 441 L625 21 L1048 441 L1048 0 L1137 0 L1137 560 L1052 560 Z " />
<glyph glyph-name="uni043D" unicode="&#x43d;" horiz-adv-x="1127" d="M925 0 L1014 0 L1014 560 L925 560 L925 319 L202 319 L202 560 L113 560 L113 0 L202 0 L202 241 L925 241 L925 0 Z " />
<glyph glyph-name="uni043E" unicode="&#x43e;" horiz-adv-x="1155" d="M708 -8 C985 -8 1086 121 1086 280 C1086 439 985 568 708 568 L447 568 C170 568 69 439 69 280 C69 121 170 -8 447 -8 L708 -8 Z M448 69 C228 69 163 163 163 280 C163 396 228 490 448 490 L707 490 C927 490 992 396 992 280 C992 163 927 69 707 69 L448 69 Z " />
<glyph glyph-name="uni043F" unicode="&#x43f;" horiz-adv-x="1127" d="M925 0 L1014 0 L1014 560 L113 560 L113 0 L202 0 L202 482 L925 482 L925 0 Z " />
<glyph glyph-name="uni0440" unicode="&#x440;" horiz-adv-x="1041" d="M113 0 L202 0 L202 209 L768 209 C938 209 998 286 998 384 C998 481 938 560 768 560 L113 560 L113 0 Z M766 482 C878 482 905 438 905 384 C905 329 878 287 766 287 L202 287 L202 482 L766 482 Z " />
<glyph glyph-name="uni0441" unicode="&#x441;" horiz-adv-x="1015" d="M163 280 C163 391 225 482 436 482 L942 482 L942 560 L436 560 C166 560 69 434 69 280 C69 126 166 0 436 0 L942 0 L942 77 L436 77 C225 77 163 168 163 280 L163 280 Z " />
<glyph glyph-name="uni0442" unicode="&#x442;" horiz-adv-x="1041" d="M44 482 L476 482 L476 0 L565 0 L565 482 L997 482 L997 560 L44 560 L44 482 Z " />
<glyph glyph-name="uni0443" unicode="&#x443;" horiz-adv-x="1067" d="M387 0 L1067 560 L938 560 L542 231 L132 560 L3 560 L481 177 L259 0 L387 0 Z " />
<glyph glyph-name="uni0444" unicode="&#x444;" horiz-adv-x="1129" d="M767 50 C991 50 1071 150 1071 280 C1071 406 991 510 767 510 L608 510 L608 600 L519 600 L519 510 L362 510 C138 510 58 406 58 280 C58 150 138 50 362 50 L519 50 L519 -40 L608 -40 L608 50 L767 50 Z M765 432 C929 432 978 363 978 280 C978 194 929 127 765 127 L608 127 L608 432 L765 432 Z M151 280 C151 363 199 432 363 432 L519 432 L519 127 L363 127 C199 127 151 194 151 280 L151 280 Z " />
<glyph glyph-name="uni0445" unicode="&#x445;" horiz-adv-x="1064" d="M26 560 L461 282 L21 0 L167 0 L532 237 L897 0 L1044 0 L603 282 L1040 560 L893 560 L532 327 L172 560 L26 560 Z " />
<glyph glyph-name="uni0446" unicode="&#x446;" horiz-adv-x="1117" d="M893 77 L202 77 L202 560 L113 560 L113 0 L967 0 L967 -120 L1056 -120 L1056 77 L982 77 L982 560 L893 560 L893 77 Z " />
<glyph glyph-name="uni0447" unicode="&#x447;" horiz-adv-x="1057" d="M60 559 L60 367 C60 276 104 206 261 206 L855 206 L855 -1 L944 -1 L944 559 L855 559 L855 284 L258 284 C167 284 149 323 149 373 L149 559 L60 559 Z " />
<glyph glyph-name="uni0448" unicode="&#x448;" horiz-adv-x="1377" d="M1175 77 L732 77 L732 560 L643 560 L643 77 L202 77 L202 560 L113 560 L113 0 L1264 0 L1264 560 L1175 560 L1175 77 Z " />
<glyph glyph-name="uni0449" unicode="&#x449;" horiz-adv-x="1368" d="M1144 77 L717 77 L717 560 L628 560 L628 77 L202 77 L202 560 L113 560 L113 0 L1218 0 L1218 -120 L1307 -120 L1307 77 L1233 77 L1233 560 L1144 560 L1144 77 Z " />
<glyph glyph-name="uni044A" unicode="&#x44a;" horiz-adv-x="1184" d="M44 482 L307 482 L307 0 L911 0 C1081 0 1141 76 1141 175 C1141 272 1082 351 911 351 L396 351 L396 560 L44 560 L44 482 Z M396 77 L396 273 L908 273 C1021 273 1048 229 1048 175 C1048 120 1020 77 908 77 L396 77 Z " />
<glyph glyph-name="uni044B" unicode="&#x44b;" horiz-adv-x="1356" d="M113 0 L768 0 C938 0 998 76 998 175 C998 272 938 351 768 351 L202 351 L202 560 L113 560 L113 0 Z M765 273 C878 273 905 229 905 175 C905 120 877 77 765 77 L202 77 L202 273 L765 273 Z M1154 0 L1243 0 L1243 560 L1154 560 L1154 0 Z " />
<glyph glyph-name="uni044C" unicode="&#x44c;" horiz-adv-x="1041" d="M113 0 L768 0 C938 0 998 76 998 175 C998 272 938 351 768 351 L202 351 L202 560 L113 560 L113 0 Z M765 273 C878 273 905 229 905 175 C905 120 877 77 765 77 L202 77 L202 273 L765 273 Z " />
<glyph glyph-name="uni044D" unicode="&#x44d;" horiz-adv-x="1016" d="M856 245 C842 149 769 77 580 77 L74 77 L74 0 L580 0 C850 0 947 126 947 280 C947 434 850 560 580 560 L74 560 L74 482 L580 482 C769 482 842 409 856 314 L161 314 L161 245 L856 245 Z " />
<glyph glyph-name="uni044E" unicode="&#x44e;" horiz-adv-x="1611" d="M945 -8 L1164 -8 C1441 -8 1542 121 1542 280 C1542 439 1441 568 1164 568 L945 568 C691 568 585 459 569 319 L202 319 L202 560 L113 560 L113 0 L202 0 L202 241 L569 241 C585 100 691 -8 945 -8 L945 -8 Z M1163 490 C1382 490 1447 396 1447 280 C1447 163 1382 69 1163 69 L946 69 C726 69 661 163 661 280 C661 396 726 490 946 490 L1163 490 Z " />
<glyph glyph-name="uni044F" unicode="&#x44f;" horiz-adv-x="1105" d="M992 560 L349 560 C180 560 119 482 119 386 C119 288 180 211 349 211 L403 211 L15 0 L166 0 L545 210 L903 210 L903 0 L992 0 L992 560 Z M903 482 L903 285 L353 285 C241 285 212 329 212 384 C212 438 241 482 353 482 L903 482 Z " />
<glyph glyph-name="uni0450" unicode="&#x450;" horiz-adv-x="1033" d="M113 0 L959 0 L959 77 L202 77 L202 245 L872 245 L872 314 L202 314 L202 482 L959 482 L959 560 L113 560 L113 0 Z M495 806 L380 806 L537 635 L601 635 L495 806 Z " />
<glyph glyph-name="uni0451" unicode="&#x451;" horiz-adv-x="1033" d="M113 0 L959 0 L959 77 L202 77 L202 245 L872 245 L872 314 L202 314 L202 482 L959 482 L959 560 L113 560 L113 0 Z M613 670 L712 670 L712 769 L613 769 L613 670 Z M345 670 L444 670 L444 769 L345 769 L345 670 Z " />
<glyph glyph-name="uni0452" unicode="&#x452;" horiz-adv-x="1184" d="M650 0 L933 0 C1087 0 1141 69 1141 157 C1141 246 1087 314 933 314 L396 314 L396 482 L830 482 L830 560 L44 560 L44 482 L307 482 L307 -1 L396 -1 L396 245 L928 245 C1023 245 1048 208 1048 161 C1048 115 1024 77 928 77 L650 77 L650 0 Z " />
<glyph glyph-name="uni0453" unicode="&#x453;" horiz-adv-x="986" d="M113 0 L202 0 L202 482 L942 482 L942 560 L113 560 L113 0 Z M457 635 L521 635 L678 806 L563 806 L457 635 Z " />
<glyph glyph-name="uni0454" unicode="&#x454;" horiz-adv-x="1016" d="M855 245 L855 314 L160 314 C174 409 247 482 436 482 L942 482 L942 560 L436 560 C166 560 69 434 69 280 C69 126 166 0 436 0 L942 0 L942 77 L436 77 C247 77 174 149 160 245 L855 245 Z " />
<glyph glyph-name="uni0455" unicode="&#x455;" horiz-adv-x="1032" d="M99 0 L760 0 C914 0 967 69 967 157 C967 246 914 314 760 314 L277 314 C182 314 158 352 158 398 C158 444 182 482 277 482 L933 482 L933 560 L272 560 C118 560 65 490 65 402 C65 313 118 245 272 245 L755 245 C850 245 874 208 874 161 C874 115 850 77 755 77 L99 77 L99 0 Z " />
<glyph glyph-name="uni0456" unicode="&#x456;" horiz-adv-x="315" d="M113 0 L202 0 L202 560 L113 560 L113 0 Z " />
<glyph glyph-name="uni0457" unicode="&#x457;" horiz-adv-x="315" d="M113 0 L202 0 L202 560 L113 560 L113 0 Z M242 670 L341 670 L341 769 L242 769 L242 670 Z M-26 670 L73 670 L73 769 L-26 769 L-26 670 Z " />
<glyph glyph-name="uni0458" unicode="&#x458;" horiz-adv-x="1042" d="M329 -4 L599 -4 C869 -4 949 106 949 260 L949 560 L860 560 L860 260 C860 150 807 73 599 73 L330 73 C173 73 132 139 132 220 L132 260 L43 260 L43 220 C43 97 113 -4 329 -4 L329 -4 Z " />
<glyph glyph-name="uni0459" unicode="&#x459;" horiz-adv-x="1616" d="M279 560 L219 163 C212 115 184 77 96 77 L44 77 L44 0 L90 0 C244 0 294 66 308 163 L356 482 L782 482 L782 0 L1343 0 C1513 0 1573 76 1573 175 C1573 272 1514 351 1343 351 L871 351 L871 560 L279 560 Z M1340 273 C1453 273 1480 229 1480 175 C1480 120 1453 77 1340 77 L871 77 L871 273 L1340 273 Z " />
<glyph glyph-name="uni045A" unicode="&#x45a;" horiz-adv-x="1619" d="M785 0 L1346 0 C1516 0 1576 76 1576 175 C1576 272 1516 351 1346 351 L874 351 L874 560 L785 560 L785 351 L202 351 L202 560 L113 560 L113 0 L202 0 L202 273 L785 273 L785 0 Z M1343 273 C1456 273 1483 229 1483 175 C1483 120 1456 77 1343 77 L874 77 L874 273 L1343 273 Z " />
<glyph glyph-name="uni045B" unicode="&#x45b;" horiz-adv-x="1201" d="M1141 -1 L1141 152 C1141 242 1099 313 942 313 L396 313 L396 482 L830 482 L830 560 L44 560 L44 482 L307 482 L307 -1 L396 -1 L396 235 L945 235 C1036 235 1052 196 1052 146 L1052 -1 L1141 -1 Z " />
<glyph glyph-name="uni045C" unicode="&#x45c;" horiz-adv-x="1114" d="M583 282 L1025 560 L884 560 L501 319 L202 319 L202 560 L113 560 L113 0 L202 0 L202 241 L502 241 L948 0 L1101 0 L583 282 Z M421 635 L485 635 L642 806 L527 806 L421 635 Z " />
<glyph glyph-name="uni045D" unicode="&#x45d;" horiz-adv-x="1127" d="M202 560 L113 560 L113 0 L197 0 L925 460 L925 0 L1014 0 L1014 560 L930 560 L202 100 L202 560 Z M530 806 L415 806 L572 635 L636 635 L530 806 Z " />
<glyph glyph-name="uni045E" unicode="&#x45e;" horiz-adv-x="1067" d="M387 0 L1067 560 L938 560 L542 231 L132 560 L3 560 L481 177 L259 0 L387 0 Z M544 708 C464 708 434 748 429 796 L374 796 C379 722 415 644 544 644 C671 644 708 722 713 796 L658 796 C653 748 623 708 544 708 L544 708 Z " />
<glyph glyph-name="uni045F" unicode="&#x45f;" horiz-adv-x="1127" d="M925 78 L202 78 L202 560 L113 560 L113 0 L519 0 L519 -120 L608 -120 L608 0 L1014 0 L1014 560 L925 560 L925 78 Z " />
<glyph glyph-name="uni0490" unicode="&#x490;" horiz-adv-x="1129" d="M999 700 L123 700 L123 0 L222 0 L222 610 L1098 610 L1098 850 L999 850 L999 700 Z " />
<glyph glyph-name="uni0491" unicode="&#x491;" horiz-adv-x="986" d="M853 560 L113 560 L113 0 L202 0 L202 482 L942 482 L942 679 L853 679 L853 560 Z " />
<glyph glyph-name="uni1E00" unicode="&#x1e00;" horiz-adv-x="1273" d="M575 -160 C575 -127 603 -100 636 -100 C670 -100 697 -127 697 -160 C697 -194 670 -221 636 -221 C603 -221 575 -194 575 -160 L575 -160 Z M517 -160 C517 -222 568 -272 636 -272 C704 -272 755 -222 755 -160 C755 -98 704 -49 636 -49 C568 -49 517 -98 517 -160 L517 -160 Z M1140 0 L1262 0 L690 700 L583 700 L11 0 L133 0 L243 135 L1029 135 L1140 0 Z M636 616 L962 217 L310 217 L636 616 Z " />
<glyph glyph-name="uni1E01" unicode="&#x1e01;" horiz-adv-x="1089" d="M483 -160 C483 -127 511 -100 544 -100 C578 -100 605 -127 605 -160 C605 -194 578 -221 544 -221 C511 -221 483 -194 483 -160 L483 -160 Z M425 -160 C425 -222 476 -272 544 -272 C612 -272 663 -222 663 -160 C663 -98 612 -49 544 -49 C476 -49 425 -98 425 -160 L425 -160 Z M967 0 L1077 0 L592 560 L497 560 L12 0 L122 0 L219 112 L870 112 L967 0 Z M544 487 L810 181 L279 181 L544 487 Z " />
<glyph glyph-name="uni1E02" unicode="&#x1e02;" horiz-adv-x="1259" d="M123 0 L946 0 C1113 0 1178 81 1178 183 C1178 268 1132 340 1018 360 C1095 387 1128 449 1128 520 C1128 621 1064 700 899 700 L123 700 L123 0 Z M921 309 C1037 309 1072 259 1072 199 C1072 139 1037 90 921 90 L222 90 L222 309 L921 309 Z M1026 500 C1026 441 991 391 880 391 L222 391 L222 610 L874 610 C988 610 1026 560 1026 500 L1026 500 Z M555 810 L654 810 L654 909 L555 909 L555 810 Z " />
<glyph glyph-name="uni1E03" unicode="&#x1e03;" horiz-adv-x="1083" d="M113 0 L819 0 C962 0 1010 65 1010 147 C1010 215 974 272 878 289 C943 311 968 359 968 416 C968 497 920 560 780 560 L113 560 L113 0 Z M795 245 C891 245 915 207 915 161 C915 115 891 77 795 77 L202 77 L202 245 L795 245 Z M760 314 L202 314 L202 482 L755 482 C850 482 875 444 875 398 C875 352 852 314 760 314 L760 314 Z M467 670 L566 670 L566 769 L467 769 L467 670 Z " />
<glyph glyph-name="uni1E04" unicode="&#x1e04;" horiz-adv-x="1259" d="M595 -211 L694 -211 L694 -112 L595 -112 L595 -211 Z M123 0 L946 0 C1113 0 1178 81 1178 183 C1178 268 1132 340 1018 360 C1095 387 1128 449 1128 520 C1128 621 1064 700 899 700 L123 700 L123 0 Z M921 309 C1037 309 1072 259 1072 199 C1072 139 1037 90 921 90 L222 90 L222 309 L921 309 Z M1026 500 C1026 441 991 391 880 391 L222 391 L222 610 L874 610 C988 610 1026 560 1026 500 L1026 500 Z " />
<glyph glyph-name="uni1E05" unicode="&#x1e05;" horiz-adv-x="1083" d="M507 -211 L606 -211 L606 -112 L507 -112 L507 -211 Z M113 0 L819 0 C962 0 1010 65 1010 147 C1010 215 974 272 878 289 C943 311 968 359 968 416 C968 497 920 560 780 560 L113 560 L113 0 Z M795 245 C891 245 915 207 915 161 C915 115 891 77 795 77 L202 77 L202 245 L795 245 Z M760 314 L202 314 L202 482 L755 482 C850 482 875 444 875 398 C875 352 852 314 760 314 L760 314 Z " />
<glyph glyph-name="uni1E06" unicode="&#x1e06;" horiz-adv-x="1259" d="M463 -194 L827 -194 L827 -129 L463 -129 L463 -194 Z M123 0 L946 0 C1113 0 1178 81 1178 183 C1178 268 1132 340 1018 360 C1095 387 1128 449 1128 520 C1128 621 1064 700 899 700 L123 700 L123 0 Z M921 309 C1037 309 1072 259 1072 199 C1072 139 1037 90 921 90 L222 90 L222 309 L921 309 Z M1026 500 C1026 441 991 391 880 391 L222 391 L222 610 L874 610 C988 610 1026 560 1026 500 L1026 500 Z " />
<glyph glyph-name="uni1E07" unicode="&#x1e07;" horiz-adv-x="1083" d="M375 -194 L739 -194 L739 -129 L375 -129 L375 -194 Z M113 0 L819 0 C962 0 1010 65 1010 147 C1010 215 974 272 878 289 C943 311 968 359 968 416 C968 497 920 560 780 560 L113 560 L113 0 Z M795 245 C891 245 915 207 915 161 C915 115 891 77 795 77 L202 77 L202 245 L795 245 Z M760 314 L202 314 L202 482 L755 482 C850 482 875 444 875 398 C875 352 852 314 760 314 L760 314 Z " />
<glyph glyph-name="uni1E08" unicode="&#x1e08;" horiz-adv-x="1184" d="M590 -112 L617 -112 C680 -112 713 -124 713 -165 C713 -236 566 -222 521 -197 L521 -241 C595 -278 784 -292 784 -167 C784 -88 718 -70 641 -70 L640 -70 L658 0 L1103 0 L1103 90 L518 90 C265 90 181 206 181 350 C181 493 265 610 518 610 L1103 610 L1103 700 L517 700 C200 700 76 543 76 350 C76 157 200 0 517 0 L620 0 L590 -112 Z M701 946 L583 946 L462 775 L526 775 L642 895 L758 775 L822 775 L701 946 Z " />
<glyph glyph-name="uni1E09" unicode="&#x1e09;" horiz-adv-x="1015" d="M495 -112 L522 -112 C585 -112 618 -124 618 -165 C618 -236 471 -222 426 -197 L426 -241 C500 -278 689 -292 689 -167 C689 -88 623 -70 546 -70 L545 -70 L563 0 L942 0 L942 77 L436 77 C225 77 163 168 163 280 C163 391 225 482 436 482 L942 482 L942 560 L436 560 C166 560 69 434 69 280 C69 126 166 0 436 0 L525 0 L495 -112 Z M606 806 L488 806 L367 635 L431 635 L547 755 L663 635 L727 635 L606 806 Z " />
<glyph glyph-name="uni1E0A" unicode="&#x1e0a;" horiz-adv-x="1255" d="M123 0 L738 0 C1055 0 1179 157 1179 350 C1179 543 1055 700 738 700 L123 700 L123 0 Z M737 610 C989 610 1073 493 1073 350 C1073 206 989 90 737 90 L222 90 L222 610 L737 610 Z M562 810 L661 810 L661 909 L562 909 L562 810 Z " />
<glyph glyph-name="uni1E0B" unicode="&#x1e0b;" horiz-adv-x="1080" d="M481 670 L580 670 L580 769 L481 769 L481 670 Z M113 0 L644 0 C914 0 1011 126 1011 280 C1011 434 914 560 644 560 L113 560 L113 0 Z M644 482 C855 482 917 391 917 280 C917 168 855 77 644 77 L202 77 L202 482 L644 482 Z " />
<glyph glyph-name="uni1E0C" unicode="&#x1e0c;" horiz-adv-x="1255" d="M123 0 L738 0 C1055 0 1179 157 1179 350 C1179 543 1055 700 738 700 L123 700 L123 0 Z M737 610 C989 610 1073 493 1073 350 C1073 206 989 90 737 90 L222 90 L222 610 L737 610 Z M562 -211 L661 -211 L661 -112 L562 -112 L562 -211 Z " />
<glyph glyph-name="uni1E0D" unicode="&#x1e0d;" horiz-adv-x="1080" d="M113 0 L644 0 C914 0 1011 126 1011 280 C1011 434 914 560 644 560 L113 560 L113 0 Z M644 482 C855 482 917 391 917 280 C917 168 855 77 644 77 L202 77 L202 482 L644 482 Z M481 -211 L580 -211 L580 -112 L481 -112 L481 -211 Z " />
<glyph glyph-name="uni1E0E" unicode="&#x1e0e;" horiz-adv-x="1255" d="M123 0 L738 0 C1055 0 1179 157 1179 350 C1179 543 1055 700 738 700 L123 700 L123 0 Z M737 610 C989 610 1073 493 1073 350 C1073 206 989 90 737 90 L222 90 L222 610 L737 610 Z M430 -194 L794 -194 L794 -129 L430 -129 L430 -194 Z " />
<glyph glyph-name="uni1E0F" unicode="&#x1e0f;" horiz-adv-x="1080" d="M113 0 L644 0 C914 0 1011 126 1011 280 C1011 434 914 560 644 560 L113 560 L113 0 Z M644 482 C855 482 917 391 917 280 C917 168 855 77 644 77 L202 77 L202 482 L644 482 Z M349 -194 L713 -194 L713 -129 L349 -129 L349 -194 Z " />
<glyph glyph-name="uni1E10" unicode="&#x1e10;" horiz-adv-x="1255" d="M123 0 L738 0 C1055 0 1179 157 1179 350 C1179 543 1055 700 738 700 L123 700 L123 0 Z M737 610 C989 610 1073 493 1073 350 C1073 206 989 90 737 90 L222 90 L222 610 L737 610 Z M566 -211 L605 -211 L557 -318 L602 -318 L665 -204 L665 -112 L566 -112 L566 -211 Z " />
<glyph glyph-name="uni1E11" unicode="&#x1e11;" horiz-adv-x="1080" d="M113 0 L644 0 C914 0 1011 126 1011 280 C1011 434 914 560 644 560 L113 560 L113 0 Z M644 482 C855 482 917 391 917 280 C917 168 855 77 644 77 L202 77 L202 482 L644 482 Z M485 -211 L524 -211 L476 -318 L521 -318 L584 -204 L584 -112 L485 -112 L485 -211 Z " />
<glyph glyph-name="uni1E12" unicode="&#x1e12;" horiz-adv-x="1255" d="M123 0 L738 0 C1055 0 1179 157 1179 350 C1179 543 1055 700 738 700 L123 700 L123 0 Z M737 610 C989 610 1073 493 1073 350 C1073 206 989 90 737 90 L222 90 L222 610 L737 610 Z M671 -75 L553 -75 L432 -246 L496 -246 L612 -126 L728 -246 L792 -246 L671 -75 Z " />
<glyph glyph-name="uni1E13" unicode="&#x1e13;" horiz-adv-x="1080" d="M113 0 L644 0 C914 0 1011 126 1011 280 C1011 434 914 560 644 560 L113 560 L113 0 Z M644 482 C855 482 917 391 917 280 C917 168 855 77 644 77 L202 77 L202 482 L644 482 Z M590 -75 L472 -75 L351 -246 L415 -246 L531 -126 L647 -246 L711 -246 L590 -75 Z " />
<glyph glyph-name="uni1E14" unicode="&#x1e14;" horiz-adv-x="1199" d="M123 0 L1118 0 L1118 90 L222 90 L222 309 L1016 309 L1016 391 L222 391 L222 610 L1118 610 L1118 700 L123 700 L123 0 Z M427 827 L791 827 L791 892 L427 892 L427 827 Z M576 1128 L461 1128 L618 957 L682 957 L576 1128 Z " />
<glyph glyph-name="uni1E15" unicode="&#x1e15;" horiz-adv-x="1033" d="M113 0 L959 0 L959 77 L202 77 L202 245 L872 245 L872 314 L202 314 L202 482 L959 482 L959 560 L113 560 L113 0 Z M346 687 L710 687 L710 752 L346 752 L346 687 Z M495 988 L380 988 L537 817 L601 817 L495 988 Z " />
<glyph glyph-name="uni1E16" unicode="&#x1e16;" horiz-adv-x="1199" d="M123 0 L1118 0 L1118 90 L222 90 L222 309 L1016 309 L1016 391 L222 391 L222 610 L1118 610 L1118 700 L123 700 L123 0 Z M427 827 L791 827 L791 892 L427 892 L427 827 Z M535 957 L599 957 L756 1128 L641 1128 L535 957 Z " />
<glyph glyph-name="uni1E17" unicode="&#x1e17;" horiz-adv-x="1033" d="M113 0 L959 0 L959 77 L202 77 L202 245 L872 245 L872 314 L202 314 L202 482 L959 482 L959 560 L113 560 L113 0 Z M346 687 L710 687 L710 752 L346 752 L346 687 Z M454 817 L518 817 L675 988 L560 988 L454 817 Z " />
<glyph glyph-name="uni1E18" unicode="&#x1e18;" horiz-adv-x="1199" d="M123 0 L1118 0 L1118 90 L222 90 L222 309 L1016 309 L1016 391 L222 391 L222 610 L1118 610 L1118 700 L123 700 L123 0 Z M668 -75 L550 -75 L429 -246 L493 -246 L609 -126 L725 -246 L789 -246 L668 -75 Z " />
<glyph glyph-name="uni1E19" unicode="&#x1e19;" horiz-adv-x="1033" d="M113 0 L959 0 L959 77 L202 77 L202 245 L872 245 L872 314 L202 314 L202 482 L959 482 L959 560 L113 560 L113 0 Z M587 -75 L469 -75 L348 -246 L412 -246 L528 -126 L644 -246 L708 -246 L587 -75 Z " />
<glyph glyph-name="uni1E1A" unicode="&#x1e1a;" horiz-adv-x="1199" d="M123 0 L1118 0 L1118 90 L222 90 L222 309 L1016 309 L1016 391 L222 391 L222 610 L1118 610 L1118 700 L123 700 L123 0 Z M734 -89 C729 -144 711 -155 684 -155 C640 -155 597 -96 533 -96 C477 -96 440 -128 433 -233 L483 -233 C488 -178 507 -166 533 -166 C577 -166 620 -226 685 -226 C740 -226 778 -194 784 -89 L734 -89 Z " />
<glyph glyph-name="uni1E1B" unicode="&#x1e1b;" horiz-adv-x="1033" d="M113 0 L959 0 L959 77 L202 77 L202 245 L872 245 L872 314 L202 314 L202 482 L959 482 L959 560 L113 560 L113 0 Z M653 -89 C648 -144 630 -155 603 -155 C559 -155 516 -96 452 -96 C396 -96 359 -128 352 -233 L402 -233 C407 -178 426 -166 452 -166 C496 -166 539 -226 604 -226 C659 -226 697 -194 703 -89 L653 -89 Z " />
<glyph glyph-name="uni1E1C" unicode="&#x1e1c;" horiz-adv-x="1199" d="M123 0 L587 0 L557 -112 L584 -112 C647 -112 680 -124 680 -165 C680 -236 533 -222 488 -197 L488 -241 C562 -278 751 -292 751 -167 C751 -88 685 -70 608 -70 L607 -70 L625 0 L1118 0 L1118 90 L222 90 L222 309 L1016 309 L1016 391 L222 391 L222 610 L1118 610 L1118 700 L123 700 L123 0 Z M610 848 C530 848 500 888 495 936 L440 936 C445 862 481 784 610 784 C737 784 774 862 779 936 L724 936 C719 888 689 848 610 848 L610 848 Z " />
<glyph glyph-name="uni1E1D" unicode="&#x1e1d;" horiz-adv-x="1033" d="M113 0 L506 0 L476 -112 L503 -112 C566 -112 599 -124 599 -165 C599 -236 452 -222 407 -197 L407 -241 C481 -278 670 -292 670 -167 C670 -88 604 -70 527 -70 L526 -70 L544 0 L959 0 L959 77 L202 77 L202 245 L872 245 L872 314 L202 314 L202 482 L959 482 L959 560 L113 560 L113 0 Z M529 708 C449 708 419 748 414 796 L359 796 C364 722 400 644 529 644 C656 644 693 722 698 796 L643 796 C638 748 608 708 529 708 L529 708 Z " />
<glyph glyph-name="uni1E1E" unicode="&#x1e1e;" horiz-adv-x="1159" d="M123 0 L222 0 L222 299 L1016 299 L1016 389 L222 389 L222 610 L1118 610 L1118 700 L123 700 L123 0 Z M550 810 L649 810 L649 909 L550 909 L550 810 Z " />
<glyph glyph-name="uni1E1F" unicode="&#x1e1f;" horiz-adv-x="1016" d="M113 0 L202 0 L202 236 L872 236 L872 313 L202 313 L202 482 L959 482 L959 560 L113 560 L113 0 Z M473 670 L572 670 L572 769 L473 769 L473 670 Z " />
<glyph glyph-name="uni1E20" unicode="&#x1e20;" horiz-adv-x="1256" d="M665 309 L1061 309 L1061 90 L518 90 C265 90 181 206 181 350 C181 493 265 610 518 610 L1103 610 L1103 700 L517 700 C200 700 76 543 76 350 C76 157 200 0 517 0 L1158 0 L1158 391 L665 391 L665 309 Z M470 827 L834 827 L834 892 L470 892 L470 827 Z " />
<glyph glyph-name="uni1E21" unicode="&#x1e21;" horiz-adv-x="1080" d="M569 245 L902 245 L902 77 L436 77 C225 77 163 168 163 280 C163 391 225 482 436 482 L942 482 L942 560 L436 560 C166 560 69 434 69 280 C69 126 166 0 436 0 L989 0 L989 314 L569 314 L569 245 Z M369 687 L733 687 L733 752 L369 752 L369 687 Z " />
<glyph glyph-name="uni1E22" unicode="&#x1e22;" horiz-adv-x="1305" d="M1083 0 L1182 0 L1182 700 L1083 700 L1083 395 L222 395 L222 700 L123 700 L123 0 L222 0 L222 305 L1083 305 L1083 0 Z M603 810 L702 810 L702 909 L603 909 L603 810 Z " />
<glyph glyph-name="uni1E23" unicode="&#x1e23;" horiz-adv-x="1127" d="M925 0 L1014 0 L1014 560 L925 560 L925 319 L202 319 L202 560 L113 560 L113 0 L202 0 L202 241 L925 241 L925 0 Z M514 670 L613 670 L613 769 L514 769 L514 670 Z " />
<glyph glyph-name="uni1E24" unicode="&#x1e24;" horiz-adv-x="1305" d="M603 -211 L702 -211 L702 -112 L603 -112 L603 -211 Z M1083 0 L1182 0 L1182 700 L1083 700 L1083 395 L222 395 L222 700 L123 700 L123 0 L222 0 L222 305 L1083 305 L1083 0 Z " />
<glyph glyph-name="uni1E25" unicode="&#x1e25;" horiz-adv-x="1127" d="M514 -211 L613 -211 L613 -112 L514 -112 L514 -211 Z M925 0 L1014 0 L1014 560 L925 560 L925 319 L202 319 L202 560 L113 560 L113 0 L202 0 L202 241 L925 241 L925 0 Z " />
<glyph glyph-name="uni1E26" unicode="&#x1e26;" horiz-adv-x="1305" d="M1083 0 L1182 0 L1182 700 L1083 700 L1083 395 L222 395 L222 700 L123 700 L123 0 L222 0 L222 305 L1083 305 L1083 0 Z M737 810 L836 810 L836 909 L737 909 L737 810 Z M469 810 L568 810 L568 909 L469 909 L469 810 Z " />
<glyph glyph-name="uni1E27" unicode="&#x1e27;" horiz-adv-x="1127" d="M925 0 L1014 0 L1014 560 L925 560 L925 319 L202 319 L202 560 L113 560 L113 0 L202 0 L202 241 L925 241 L925 0 Z M648 670 L747 670 L747 769 L648 769 L648 670 Z M380 670 L479 670 L479 769 L380 769 L380 670 Z " />
<glyph glyph-name="uni1E28" unicode="&#x1e28;" horiz-adv-x="1305" d="M120 -112 L147 -112 C210 -112 243 -124 243 -165 C243 -236 96 -222 51 -197 L51 -241 C125 -278 314 -292 314 -167 C314 -88 248 -70 171 -70 L170 -70 L188 0 L222 0 L222 305 L1083 305 L1083 0 L1182 0 L1182 700 L1083 700 L1083 395 L222 395 L222 700 L123 700 L123 0 L150 0 L120 -112 Z " />
<glyph glyph-name="uni1E29" unicode="&#x1e29;" horiz-adv-x="1127" d="M105 -112 L132 -112 C195 -112 228 -124 228 -165 C228 -236 81 -222 36 -197 L36 -241 C110 -278 299 -292 299 -167 C299 -88 233 -70 156 -70 L155 -70 L173 0 L202 0 L202 241 L925 241 L925 0 L1014 0 L1014 560 L925 560 L925 319 L202 319 L202 560 L113 560 L113 0 L135 0 L105 -112 Z " />
<glyph glyph-name="uni1E2A" unicode="&#x1e2a;" horiz-adv-x="1305" d="M653 -173 C573 -173 543 -133 538 -85 L483 -85 C488 -159 524 -237 653 -237 C780 -237 817 -159 822 -85 L767 -85 C762 -133 732 -173 653 -173 L653 -173 Z M1083 0 L1182 0 L1182 700 L1083 700 L1083 395 L222 395 L222 700 L123 700 L123 0 L222 0 L222 305 L1083 305 L1083 0 Z " />
<glyph glyph-name="uni1E2B" unicode="&#x1e2b;" horiz-adv-x="1127" d="M564 -173 C484 -173 454 -133 449 -85 L394 -85 C399 -159 435 -237 564 -237 C691 -237 728 -159 733 -85 L678 -85 C673 -133 643 -173 564 -173 L564 -173 Z M925 0 L1014 0 L1014 560 L925 560 L925 319 L202 319 L202 560 L113 560 L113 0 L202 0 L202 241 L925 241 L925 0 Z " />
<glyph glyph-name="uni1E2C" unicode="&#x1e2c;" horiz-adv-x="345" d="M298 -89 C293 -144 275 -155 248 -155 C204 -155 161 -96 97 -96 C41 -96 4 -128 -3 -233 L47 -233 C52 -178 71 -166 97 -166 C141 -166 184 -226 249 -226 C304 -226 342 -194 348 -89 L298 -89 Z M123 0 L222 0 L222 700 L123 700 L123 0 Z " />
<glyph glyph-name="uni1E2D" unicode="&#x1e2d;" horiz-adv-x="315" d="M283 -89 C278 -144 260 -155 233 -155 C189 -155 146 -96 82 -96 C26 -96 -11 -128 -18 -233 L32 -233 C37 -178 56 -166 82 -166 C126 -166 169 -226 234 -226 C289 -226 327 -194 333 -89 L283 -89 Z M113 0 L202 0 L202 560 L113 560 L113 0 Z " />
<glyph glyph-name="uni1E2E" unicode="&#x1e2e;" horiz-adv-x="345" d="M123 0 L222 0 L222 700 L123 700 L123 0 Z M257 810 L356 810 L356 909 L257 909 L257 810 Z M-11 810 L88 810 L88 909 L-11 909 L-11 810 Z M99 962 L163 962 L320 1133 L205 1133 L99 962 Z " />
<glyph glyph-name="uni1E2F" unicode="&#x1e2f;" horiz-adv-x="315" d="M113 0 L202 0 L202 560 L113 560 L113 0 Z M242 670 L341 670 L341 769 L242 769 L242 670 Z M-26 670 L73 670 L73 769 L-26 769 L-26 670 Z M84 822 L148 822 L305 993 L190 993 L84 822 Z " />
<glyph glyph-name="uni1E30" unicode="&#x1e30;" horiz-adv-x="1290" d="M1193 700 L1019 700 L222 243 L222 700 L123 700 L123 0 L222 0 L222 144 L546 329 L1113 0 L1284 0 L635 380 L1193 700 Z M531 775 L595 775 L752 946 L637 946 L531 775 Z " />
<glyph glyph-name="uni1E31" unicode="&#x1e31;" horiz-adv-x="1113" d="M1030 560 L867 560 L202 201 L202 560 L113 560 L113 0 L202 0 L202 114 L475 261 L947 0 L1102 0 L555 304 L1030 560 Z M447 635 L511 635 L668 806 L553 806 L447 635 Z " />
<glyph glyph-name="uni1E32" unicode="&#x1e32;" horiz-adv-x="1290" d="M1193 700 L1019 700 L222 243 L222 700 L123 700 L123 0 L222 0 L222 144 L546 329 L1113 0 L1284 0 L635 380 L1193 700 Z M592 -211 L691 -211 L691 -112 L592 -112 L592 -211 Z " />
<glyph glyph-name="uni1E33" unicode="&#x1e33;" horiz-adv-x="1113" d="M1030 560 L867 560 L202 201 L202 560 L113 560 L113 0 L202 0 L202 114 L475 261 L947 0 L1102 0 L555 304 L1030 560 Z M501 -211 L600 -211 L600 -112 L501 -112 L501 -211 Z " />
<glyph glyph-name="uni1E34" unicode="&#x1e34;" horiz-adv-x="1290" d="M1193 700 L1019 700 L222 243 L222 700 L123 700 L123 0 L222 0 L222 144 L546 329 L1113 0 L1284 0 L635 380 L1193 700 Z M460 -194 L824 -194 L824 -129 L460 -129 L460 -194 Z " />
<glyph glyph-name="uni1E35" unicode="&#x1e35;" horiz-adv-x="1113" d="M1030 560 L867 560 L202 201 L202 560 L113 560 L113 0 L202 0 L202 114 L475 261 L947 0 L1102 0 L555 304 L1030 560 Z M369 -194 L733 -194 L733 -129 L369 -129 L369 -194 Z " />
<glyph glyph-name="uni1E36" unicode="&#x1e36;" horiz-adv-x="1129" d="M222 700 L123 700 L123 0 L1098 0 L1098 90 L222 90 L222 700 Z M557 -211 L656 -211 L656 -112 L557 -112 L557 -211 Z " />
<glyph glyph-name="uni1E37" unicode="&#x1e37;" horiz-adv-x="986" d="M202 560 L113 560 L113 0 L942 0 L942 77 L202 77 L202 560 Z M482 -211 L581 -211 L581 -112 L482 -112 L482 -211 Z " />
<glyph glyph-name="uni1E38" unicode="&#x1e38;" horiz-adv-x="1129" d="M222 700 L123 700 L123 0 L1098 0 L1098 90 L222 90 L222 700 Z M557 -211 L656 -211 L656 -112 L557 -112 L557 -211 Z M22 827 L386 827 L386 892 L22 892 L22 827 Z " />
<glyph glyph-name="uni1E39" unicode="&#x1e39;" horiz-adv-x="986" d="M202 560 L113 560 L113 0 L942 0 L942 77 L202 77 L202 560 Z M482 -211 L581 -211 L581 -112 L482 -112 L482 -211 Z M7 687 L371 687 L371 752 L7 752 L7 687 Z " />
<glyph glyph-name="uni1E3A" unicode="&#x1e3a;" horiz-adv-x="1129" d="M222 700 L123 700 L123 0 L1098 0 L1098 90 L222 90 L222 700 Z M425 -194 L789 -194 L789 -129 L425 -129 L425 -194 Z " />
<glyph glyph-name="uni1E3B" unicode="&#x1e3b;" horiz-adv-x="986" d="M202 560 L113 560 L113 0 L942 0 L942 77 L202 77 L202 560 Z M350 -194 L714 -194 L714 -129 L350 -129 L350 -194 Z " />
<glyph glyph-name="uni1E3C" unicode="&#x1e3c;" horiz-adv-x="1129" d="M222 700 L123 700 L123 0 L1098 0 L1098 90 L222 90 L222 700 Z M666 -75 L548 -75 L427 -246 L491 -246 L607 -126 L723 -246 L787 -246 L666 -75 Z " />
</font>
</svg>
