<?xml version="1.0" encoding="UTF-8"?>
<svg xmlns="http://www.w3.org/2000/svg" xmlns:xlink="http://www.w3.org/1999/xlink" version="1.2" >
<font id="Stereo Gothic 900">
<font-face  font-family="Stereo Gothic" units-per-em="1000" ascent="700" descent="-300" font-style="normal" font-weight="900" font-stretch="normal" cap-height="700" x-height="560" underline-position="-75" underline-thickness="50" />
<missing-glyph  horiz-adv-x="1000" d="M150 0 L850 0 L850 700 L150 700 L150 0 Z M220 636 L737 636 L220 119 L220 636 Z M263 64 L780 581 C780 408 780 236 780 64 L263 64 Z " />
<glyph glyph-name="NULL" d="" />
<glyph glyph-name="CR" unicode="&#xd;" horiz-adv-x="250" d="" />
<glyph glyph-name="space" unicode="&#x20;" horiz-adv-x="451" d="" />
<glyph glyph-name="exclam" unicode="&#x21;" horiz-adv-x="415" d="M118 258 L296 258 L307 700 L107 700 L118 258 Z M109 0 L306 0 L306 198 L109 198 L109 0 Z " />
<glyph glyph-name="quotedbl" unicode="&#x22;" horiz-adv-x="679" d="M120 400 L263 400 L292 700 L92 700 L120 400 Z M415 400 L558 400 L587 700 L387 700 L415 400 Z " />
<glyph glyph-name="numbersign" unicode="&#x23;" horiz-adv-x="1298" d="M834 0 L1012 0 L1024 125 L1184 125 L1184 287 L1041 287 L1056 413 L1214 413 L1214 575 L1073 575 L1085 700 L907 700 L895 575 L449 575 L463 700 L285 700 L273 575 L114 575 L114 413 L256 413 L241 287 L84 287 L84 125 L224 125 L212 0 L390 0 L402 125 L848 125 L834 0 Z M432 413 L878 413 L865 287 L419 287 L432 413 Z " />
<glyph glyph-name="dollar" unicode="&#x24;" horiz-adv-x="1298" d="M560 -20 L738 -20 L738 70 L953 70 C1115 70 1179 150 1179 248 C1179 346 1115 416 953 416 L738 416 L738 468 L1147 468 L1147 630 L738 630 L738 721 L560 721 L560 630 L345 630 C183 630 119 550 119 452 C119 354 183 284 345 284 L560 284 L560 232 L151 232 L151 70 L560 70 L560 -20 Z M942 287 C988 287 992 273 992 261 C992 248 990 232 942 232 L738 232 L738 287 L942 287 Z M306 439 C306 452 310 468 356 468 L560 468 L560 413 L356 413 C308 413 306 427 306 439 L306 439 Z " />
<glyph glyph-name="percent" unicode="&#x25;" horiz-adv-x="1298" d="M934 700 L168 0 L364 0 L1129 700 L934 700 Z M590 576 C590 645 545 700 433 700 L245 700 C132 700 89 645 89 576 L89 474 C89 406 132 350 245 350 L433 350 C545 350 590 406 590 474 L590 576 Z M203 563 C203 581 208 597 244 597 L434 597 C471 597 475 581 475 563 L475 486 C475 469 471 453 434 453 L244 453 C208 453 203 469 203 486 L203 563 Z M1209 226 C1209 295 1164 350 1052 350 L863 350 C750 350 707 295 707 226 L707 124 C707 56 750 0 863 0 L1052 0 C1164 0 1209 56 1209 124 L1209 226 Z M821 213 C821 231 826 247 863 247 L1052 247 C1090 247 1094 231 1094 213 L1094 136 C1094 119 1090 103 1052 103 L863 103 C826 103 821 119 821 136 L821 213 Z " />
<glyph glyph-name="ampersand" unicode="&#x26;" horiz-adv-x="1316" d="M322 0 L1008 0 C1148 0 1204 67 1204 155 C1204 200 1188 244 1153 270 L1254 270 L1254 430 L419 430 C348 430 337 453 337 475 C337 498 346 520 417 520 L1026 520 L1026 700 L363 700 C198 700 134 621 134 519 C134 455 160 398 225 364 C126 339 84 270 84 187 C84 84 150 0 322 0 L322 0 Z M920 180 L376 180 C305 180 296 203 296 225 C296 246 303 270 362 270 L932 270 C993 270 1000 246 1000 225 C1000 203 991 180 920 180 L920 180 Z " />
<glyph glyph-name="quotesingle" unicode="&#x27;" horiz-adv-x="384" d="M120 400 L263 400 L292 700 L92 700 L120 400 Z " />
<glyph glyph-name="parenleft" unicode="&#x28;" horiz-adv-x="521" d="M468 -116 C255 161 255 539 468 815 L305 815 C39 547 39 153 305 -116 L468 -116 Z " />
<glyph glyph-name="parenright" unicode="&#x29;" horiz-adv-x="521" d="M216 -116 C482 153 482 547 216 815 L53 815 C266 539 266 161 53 -116 L216 -116 Z " />
<glyph glyph-name="asterisk" unicode="&#x2a;" horiz-adv-x="601" d="M555 447 L502 622 L353 529 L392 700 L210 700 L251 527 L102 621 L46 447 L218 430 L87 320 L234 212 L301 370 L368 213 L516 320 L385 430 L555 447 Z " />
<glyph glyph-name="plus" unicode="&#x2b;" horiz-adv-x="1298" d="M279 260 L551 260 L551 30 L747 30 L747 260 L1019 260 L1019 440 L747 440 L747 670 L551 670 L551 440 L279 440 L279 260 Z " />
<glyph glyph-name="comma" unicode="&#x2c;" horiz-adv-x="374" d="M89 0 L171 0 L89 -175 L175 -175 L285 16 L285 198 L89 198 L89 0 Z " />
<glyph glyph-name="hyphen" unicode="&#x2d;" horiz-adv-x="562" d="M65 190 L497 190 L497 370 L65 370 L65 190 Z " />
<glyph glyph-name="period" unicode="&#x2e;" horiz-adv-x="374" d="M89 0 L285 0 L285 198 L89 198 L89 0 Z " />
<glyph glyph-name="slash" unicode="&#x2f;" horiz-adv-x="627" d="M-26 -76 L151 -76 L653 777 L476 777 L-26 -76 Z " />
<glyph glyph-name="zero" unicode="0" horiz-adv-x="1298" d="M94 248 C94 111 182 0 406 0 L892 0 C1116 0 1204 111 1204 248 L1204 452 C1204 589 1116 700 892 700 L406 700 C182 700 94 589 94 452 L94 248 Z M899 520 C994 520 1006 481 1006 444 L1006 256 C1006 219 994 180 899 180 L399 180 C304 180 292 219 292 256 L292 444 C292 481 304 520 399 520 L899 520 Z " />
<glyph glyph-name="one" unicode="1" horiz-adv-x="1298" d="M373 520 L611 520 L611 180 L223 180 L223 0 L1075 0 L1075 180 L807 180 L807 700 L373 700 L373 520 Z " />
<glyph glyph-name="two" unicode="2" horiz-adv-x="1298" d="M1184 180 L292 180 L292 218 C292 241 305 270 367 270 L936 270 C1136 270 1214 361 1214 485 C1214 605 1136 700 936 700 L134 700 L134 520 L932 520 C1003 520 1008 497 1008 475 C1008 452 1003 430 932 430 L359 430 C172 430 94 344 94 222 L94 0 L1184 0 L1184 180 Z " />
<glyph glyph-name="three" unicode="3" horiz-adv-x="1298" d="M74 0 L971 0 C1143 0 1209 84 1209 187 C1209 270 1169 339 1068 364 C1132 398 1159 455 1159 519 C1159 621 1095 700 930 700 L94 700 L94 520 L876 520 C947 520 956 497 956 474 C956 452 947 430 874 430 L181 430 L181 270 L917 270 C988 270 997 249 997 226 C997 204 988 180 917 180 L74 180 L74 0 Z " />
<glyph glyph-name="four" unicode="4" horiz-adv-x="1298" d="M944 700 L65 259 L65 110 L934 110 L934 0 L1132 0 L1132 110 L1243 110 L1243 288 L1132 288 L1132 700 L944 700 Z M460 288 L934 514 L934 288 L460 288 Z " />
<glyph glyph-name="five" unicode="5" horiz-adv-x="1298" d="M94 270 L932 270 C1003 270 1008 248 1008 225 C1008 203 1003 180 932 180 L112 180 L112 0 L936 0 C1136 0 1214 95 1214 215 C1214 339 1136 430 936 430 L288 430 L296 520 L1174 520 L1174 700 L128 700 L94 270 Z " />
<glyph glyph-name="six" unicode="6" horiz-adv-x="1298" d="M551 520 L1164 520 L1164 700 L534 700 C217 700 93 543 93 350 L93 248 C93 111 181 0 405 0 L951 0 C1151 0 1229 95 1229 215 C1229 339 1151 430 951 430 L450 430 C378 430 327 412 293 385 C311 462 386 520 551 520 L551 520 Z M376 270 L947 270 C1018 270 1023 248 1023 225 C1023 203 1018 180 947 180 L406 180 C325 180 298 205 292 235 C296 254 316 270 376 270 L376 270 Z " />
<glyph glyph-name="seven" unicode="7" horiz-adv-x="1298" d="M604 0 L1214 545 L1214 700 L74 700 L74 520 L921 520 L312 0 L604 0 Z " />
<glyph glyph-name="eight" unicode="8" horiz-adv-x="1298" d="M988 0 C1160 0 1226 84 1226 187 C1226 270 1186 339 1085 364 C1149 398 1176 455 1176 519 C1176 621 1112 700 947 700 L351 700 C186 700 122 621 122 519 C122 455 148 398 213 364 C114 339 72 270 72 187 C72 84 138 0 310 0 L988 0 Z M1014 225 C1014 203 1005 180 934 180 L364 180 C293 180 284 203 284 225 C284 248 293 270 364 270 L934 270 C1005 270 1014 248 1014 225 L1014 225 Z M891 430 L407 430 C336 430 325 453 325 475 C325 498 334 520 405 520 L893 520 C964 520 973 498 973 475 C973 453 964 430 891 430 L891 430 Z " />
<glyph glyph-name="nine" unicode="9" horiz-adv-x="1298" d="M747 180 L134 180 L134 0 L764 0 C1081 0 1205 157 1205 350 L1205 452 C1205 589 1117 700 893 700 L347 700 C147 700 69 605 69 485 C69 361 147 270 347 270 L848 270 C920 270 971 286 1003 315 C987 236 911 180 747 180 L747 180 Z M922 430 L351 430 C280 430 275 452 275 475 C275 497 280 520 351 520 L892 520 C973 520 1000 494 1005 463 C1000 445 982 430 922 430 L922 430 Z " />
<glyph glyph-name="colon" unicode="&#x3a;" horiz-adv-x="374" d="M89 0 L285 0 L285 198 L89 198 L89 0 Z M89 362 L285 362 L285 560 L89 560 L89 362 Z " />
<glyph glyph-name="semicolon" unicode="&#x3b;" horiz-adv-x="374" d="M89 0 L171 0 L89 -175 L175 -175 L285 16 L285 198 L89 198 L89 0 Z M89 362 L285 362 L285 560 L89 560 L89 362 Z " />
<glyph glyph-name="less" unicode="&#x3c;" horiz-adv-x="1298" d="M1009 190 L535 349 L1009 510 L1009 706 L289 443 L289 256 L1009 -6 L1009 190 Z " />
<glyph glyph-name="equal" unicode="&#x3d;" horiz-adv-x="1298" d="M279 93 L1019 93 L1019 273 L279 273 L279 93 Z M279 427 L1019 427 L1019 607 L279 607 L279 427 Z " />
<glyph glyph-name="greater" unicode="&#x3e;" horiz-adv-x="1298" d="M289 -6 L1009 256 L1009 443 L289 706 L289 510 L763 349 L289 190 L289 -6 Z " />
<glyph glyph-name="question" unicode="&#x3f;" horiz-adv-x="1070" d="M269 258 L448 258 L448 274 L768 274 C968 274 1046 365 1046 487 C1046 607 968 700 768 700 L22 700 L22 520 L758 520 C829 520 836 495 836 473 C836 450 829 426 758 426 L269 426 L269 258 Z M260 0 L458 0 L458 198 L260 198 L260 0 Z " />
<glyph glyph-name="at" unicode="&#x40;" horiz-adv-x="1398" d="M728 420 L635 420 C439 420 363 323 363 205 C363 87 439 -10 635 -10 L728 -10 C809 -10 862 12 896 51 L913 0 L1240 0 C1301 67 1327 154 1327 248 C1327 462 1190 635 839 635 L613 635 C224 635 71 443 71 205 C71 -32 224 -224 613 -224 L782 -224 L782 -86 L614 -86 C324 -86 237 45 237 205 C237 366 329 497 617 497 L835 497 C1085 497 1161 385 1161 248 C1161 209 1159 172 1146 138 L1013 138 L1013 410 L913 410 L897 358 C863 397 810 420 728 420 L728 420 Z M636 128 C539 128 524 163 524 205 C524 247 539 282 636 282 L738 282 C834 282 858 247 858 207 C858 163 836 128 739 128 L636 128 Z " />
<glyph glyph-name="A" unicode="A" horiz-adv-x="1295" d="M1050 0 L1293 0 L753 700 L544 700 L2 0 L245 0 L326 107 L968 107 L1050 0 Z M647 529 L845 269 L449 269 L647 529 Z " />
<glyph glyph-name="B" unicode="B" horiz-adv-x="1259" d="M114 0 L949 0 C1121 0 1187 84 1187 187 C1187 270 1147 339 1046 364 C1110 398 1137 455 1137 519 C1137 621 1073 700 908 700 L114 700 L114 0 Z M895 270 C966 270 975 248 975 225 C975 203 966 180 895 180 L312 180 L312 270 L895 270 Z M934 475 C934 453 925 430 852 430 L312 430 L312 520 L854 520 C925 520 934 498 934 475 L934 475 Z " />
<glyph glyph-name="C" unicode="C" horiz-adv-x="1184" d="M279 350 C279 445 321 520 509 520 L1112 520 L1112 700 L508 700 C191 700 67 543 67 350 C67 157 191 0 508 0 L1112 0 L1112 180 L509 180 C321 180 279 255 279 350 L279 350 Z " />
<glyph glyph-name="D" unicode="D" horiz-adv-x="1255" d="M114 0 L747 0 C1064 0 1188 157 1188 350 C1188 543 1064 700 747 700 L114 700 L114 0 Z M746 520 C934 520 976 445 976 350 C976 255 934 180 746 180 L312 180 L312 520 L746 520 Z " />
<glyph glyph-name="E" unicode="E" horiz-adv-x="1199" d="M114 0 L1127 0 L1127 180 L312 180 L312 270 L1025 270 L1025 430 L312 430 L312 520 L1127 520 L1127 700 L114 700 L114 0 Z " />
<glyph glyph-name="F" unicode="F" horiz-adv-x="1159" d="M114 0 L312 0 L312 246 L1025 246 L1025 426 L312 426 L312 520 L1127 520 L1127 700 L114 700 L114 0 Z " />
<glyph glyph-name="G" unicode="G" horiz-adv-x="1256" d="M656 270 L973 270 L973 180 L509 180 C321 180 279 255 279 350 C279 445 321 520 509 520 L1112 520 L1112 700 L508 700 C191 700 67 543 67 350 C67 157 191 0 508 0 L1167 0 L1167 430 L656 430 L656 270 Z " />
<glyph glyph-name="H" unicode="H" horiz-adv-x="1305" d="M993 0 L1191 0 L1191 700 L993 700 L993 440 L312 440 L312 700 L114 700 L114 0 L312 0 L312 260 L993 260 L993 0 Z " />
<glyph glyph-name="I" unicode="I" horiz-adv-x="426" d="M114 0 L312 0 L312 700 L114 700 L114 0 Z " />
<glyph glyph-name="J" unicode="J" horiz-adv-x="1211" d="M377 -5 L696 -5 C1013 -5 1117 132 1117 325 L1117 700 L919 700 L919 325 C919 236 878 175 695 175 L378 175 C256 175 232 221 232 275 L232 342 L34 342 L34 275 C34 121 123 -5 377 -5 L377 -5 Z " />
<glyph glyph-name="K" unicode="K" horiz-adv-x="1303" d="M1215 700 L874 700 L312 336 L312 700 L114 700 L114 0 L312 0 L312 142 L556 293 L976 0 L1306 0 L726 397 L1215 700 Z " />
<glyph glyph-name="L" unicode="L" horiz-adv-x="1129" d="M312 700 L114 700 L114 0 L1107 0 L1107 180 L312 180 L312 700 Z " />
<glyph glyph-name="M" unicode="M" horiz-adv-x="1458" d="M1156 700 L728 284 L302 700 L114 700 L114 0 L312 0 L312 427 L728 16 L1146 427 L1146 0 L1344 0 L1344 700 L1156 700 Z " />
<glyph glyph-name="N" unicode="N" horiz-adv-x="1309" d="M1008 0 L1195 0 L1195 700 L997 700 L997 232 L301 700 L114 700 L114 0 L312 0 L312 468 L1008 0 Z " />
<glyph glyph-name="O" unicode="O" horiz-adv-x="1348" d="M827 -10 C1153 -10 1281 151 1281 350 C1281 549 1153 710 827 710 L521 710 C195 710 67 549 67 350 C67 151 195 -10 521 -10 L827 -10 Z M522 170 C325 170 278 249 278 350 C278 451 325 530 523 530 L826 530 C1023 530 1069 451 1069 350 C1069 249 1023 170 826 170 L522 170 Z " />
<glyph glyph-name="P" unicode="P" horiz-adv-x="1196" d="M114 0 L312 0 L312 220 L868 220 C1087 220 1172 325 1172 461 C1172 592 1087 700 868 700 L114 700 L114 0 Z M864 520 C954 520 966 492 966 461 C966 427 954 400 864 400 L312 400 L312 520 L864 520 Z " />
<glyph glyph-name="Q" unicode="Q" horiz-adv-x="1348" d="M827 -10 C850 -10 871 -10 891 -8 L1036 -110 L1352 -110 L1107 48 C1229 112 1281 223 1281 350 C1281 549 1153 710 827 710 L521 710 C195 710 67 549 67 350 C67 151 195 -10 521 -10 L827 -10 Z M521 170 C324 170 278 249 278 350 C278 451 325 530 522 530 L826 530 C1023 530 1069 451 1069 350 C1069 249 1023 170 826 170 L521 170 Z " />
<glyph glyph-name="R" unicode="R" horiz-adv-x="1281" d="M114 0 L312 0 L312 223 L644 223 L960 0 L1284 0 L939 230 C1098 254 1165 349 1165 464 C1165 594 1077 700 860 700 L114 700 L114 0 Z M851 520 C941 520 957 491 957 458 C957 426 941 397 851 397 L312 397 L312 520 L851 520 Z " />
<glyph glyph-name="S" unicode="S" horiz-adv-x="1207" d="M104 0 L865 0 C1065 0 1143 95 1143 215 C1143 339 1065 430 865 430 L346 430 C275 430 270 452 270 475 C270 497 275 520 346 520 L1103 520 L1103 700 L342 700 C142 700 64 605 64 485 C64 361 142 270 342 270 L861 270 C932 270 937 248 937 225 C937 203 932 180 861 180 L104 180 L104 0 Z " />
<glyph glyph-name="T" unicode="T" horiz-adv-x="1184" d="M22 520 L494 520 L494 0 L690 0 L690 520 L1162 520 L1162 700 L22 700 L22 520 Z " />
<glyph glyph-name="U" unicode="U" horiz-adv-x="1275" d="M292 323 L292 700 L94 700 L94 323 C94 130 198 -10 515 -10 L760 -10 C1077 -10 1181 130 1181 323 L1181 700 L983 700 L983 323 C983 234 942 170 759 170 L516 170 C333 170 292 234 292 323 L292 323 Z " />
<glyph glyph-name="V" unicode="V" horiz-adv-x="1295" d="M753 0 L1293 700 L1043 700 L647 171 L254 700 L2 700 L544 0 L753 0 Z " />
<glyph glyph-name="W" unicode="W" horiz-adv-x="1618" d="M809 452 L1056 0 L1202 0 L1604 700 L1366 700 L1127 248 L882 700 L736 700 L491 248 L252 700 L14 700 L416 0 L562 0 L809 452 Z " />
<glyph glyph-name="X" unicode="X" horiz-adv-x="1228" d="M5 700 L454 352 L0 0 L311 0 L614 250 L917 0 L1228 0 L774 352 L1223 700 L912 700 L614 454 L316 700 L5 700 Z " />
<glyph glyph-name="Y" unicode="Y" horiz-adv-x="1258" d="M530 0 L728 0 L728 211 L1266 700 L974 700 L630 371 L284 700 L-8 700 L530 211 L530 0 Z " />
<glyph glyph-name="Z" unicode="Z" horiz-adv-x="1205" d="M64 0 L1151 0 L1151 180 L457 180 L1131 563 L1131 700 L74 700 L74 520 L737 520 L64 137 L64 0 Z " />
<glyph glyph-name="bracketleft" unicode="&#x5b;" horiz-adv-x="521" d="M123 -150 L478 -150 L478 -6 L320 -6 L320 706 L478 706 L478 850 L123 850 L123 -150 Z " />
<glyph glyph-name="backslash" unicode="&#x5c;" horiz-adv-x="627" d="M151 777 L-26 777 L476 -76 L653 -76 L151 777 Z " />
<glyph glyph-name="bracketright" unicode="&#x5d;" horiz-adv-x="521" d="M398 850 L43 850 L43 706 L201 706 L201 -6 L43 -6 L43 -150 L398 -150 L398 850 Z " />
<glyph glyph-name="asciicircum" unicode="&#x5e;" horiz-adv-x="1298" d="M842 350 L1084 350 L755 800 L543 800 L214 350 L456 350 L649 626 L842 350 Z " />
<glyph glyph-name="underscore" unicode="&#x5f;" horiz-adv-x="500" d="M0 -187 L500 -187 L500 -36 L0 -36 L0 -187 Z " />
<glyph glyph-name="grave" unicode="&#x60;" horiz-adv-x="500" d="M264 806 L48 806 L231 635 L359 635 L264 806 Z " />
<glyph glyph-name="a" unicode="a" horiz-adv-x="1107" d="M888 0 L1104 0 L646 560 L461 560 L3 0 L219 0 L291 91 L815 91 L888 0 Z M553 416 L708 223 L398 223 L553 416 Z " />
<glyph glyph-name="b" unicode="b" horiz-adv-x="1082" d="M104 0 L821 0 C968 0 1018 67 1018 150 C1018 216 982 271 898 292 C951 320 975 363 975 415 C975 497 927 560 787 560 L104 560 L104 0 Z M770 215 C826 215 828 199 828 182 C828 168 826 151 770 151 L280 151 L280 215 L770 215 Z M733 345 L280 345 L280 409 L735 409 C790 409 793 393 793 378 C793 361 789 345 733 345 L733 345 Z " />
<glyph glyph-name="c" unicode="c" horiz-adv-x="1014" d="M246 280 C246 352 272 409 427 409 L950 409 L950 560 L427 560 C157 560 60 434 60 280 C60 126 157 0 427 0 L950 0 L950 151 L427 151 C272 151 246 208 246 280 L246 280 Z " />
<glyph glyph-name="d" unicode="d" horiz-adv-x="1079" d="M104 0 L652 0 C921 0 1019 126 1019 280 C1019 434 921 560 652 560 L104 560 L104 0 Z M651 409 C807 409 833 352 833 280 C833 208 807 151 651 151 L280 151 L280 409 L651 409 Z " />
<glyph glyph-name="e" unicode="e" horiz-adv-x="1032" d="M104 0 L967 0 L967 151 L280 151 L280 215 L879 215 L879 345 L280 345 L280 409 L967 409 L967 560 L104 560 L104 0 Z " />
<glyph glyph-name="f" unicode="f" horiz-adv-x="1015" d="M104 0 L280 0 L280 192 L879 192 L879 343 L280 343 L280 409 L967 409 L967 560 L104 560 L104 0 Z " />
<glyph glyph-name="g" unicode="g" horiz-adv-x="1078" d="M560 215 L824 215 L824 151 L427 151 C272 151 246 208 246 280 C246 352 272 409 427 409 L950 409 L950 560 L427 560 C157 560 60 434 60 280 C60 126 157 0 427 0 L996 0 L996 345 L560 345 L560 215 Z " />
<glyph glyph-name="h" unicode="h" horiz-adv-x="1125" d="M845 0 L1021 0 L1021 560 L845 560 L845 356 L280 356 L280 560 L104 560 L104 0 L280 0 L280 204 L845 204 L845 0 Z " />
<glyph glyph-name="i" unicode="i" horiz-adv-x="384" d="M104 0 L280 0 L280 560 L104 560 L104 0 Z " />
<glyph glyph-name="j" unicode="j" horiz-adv-x="1041" d="M320 -4 L607 -4 C876 -4 957 106 957 260 L957 560 L781 560 L781 260 C781 193 755 147 606 147 L321 147 C221 147 210 181 210 220 L210 276 L34 276 L34 220 C34 97 104 -4 320 -4 L320 -4 Z " />
<glyph glyph-name="k" unicode="k" horiz-adv-x="1122" d="M1049 560 L735 560 L280 282 L280 560 L104 560 L104 0 L280 0 L280 112 L483 230 L827 0 L1120 0 L632 317 L1049 560 Z " />
<glyph glyph-name="l" unicode="l" horiz-adv-x="985" d="M280 560 L104 560 L104 0 L950 0 L950 151 L280 151 L280 560 Z " />
<glyph glyph-name="m" unicode="m" horiz-adv-x="1256" d="M983 560 L627 238 L271 560 L104 560 L104 0 L280 0 L280 330 L627 11 L976 330 L976 0 L1152 0 L1152 560 L983 560 Z " />
<glyph glyph-name="n" unicode="n" horiz-adv-x="1129" d="M1025 0 L1025 560 L851 560 L851 196 L270 560 L104 560 L104 0 L280 0 L280 364 L859 0 L1025 0 Z " />
<glyph glyph-name="o" unicode="o" horiz-adv-x="1153" d="M716 -8 C993 -8 1093 121 1093 280 C1093 439 993 568 716 568 L438 568 C161 568 60 439 60 280 C60 121 161 -8 438 -8 L716 -8 Z M439 143 C275 143 245 203 245 280 C245 357 275 417 439 417 L715 417 C876 417 908 357 908 280 C908 203 876 143 715 143 L439 143 Z " />
<glyph glyph-name="p" unicode="p" horiz-adv-x="1039" d="M104 0 L280 0 L280 172 L750 172 C938 172 1005 258 1005 366 C1005 472 938 560 750 560 L104 560 L104 0 Z M746 409 C821 409 822 390 822 366 C822 342 821 324 746 324 L280 324 L280 409 L746 409 Z " />
<glyph glyph-name="q" unicode="q" horiz-adv-x="1153" d="M716 -8 C728 -8 739 -7 750 -8 L868 -88 L1146 -88 L946 36 C1050 88 1093 177 1093 280 C1093 439 993 568 716 568 L438 568 C161 568 60 439 60 280 C60 121 161 -8 438 -8 L716 -8 Z M439 143 C275 143 245 203 245 280 C245 357 275 417 439 417 L715 417 C876 417 908 357 908 280 C908 203 876 143 715 143 L439 143 Z " />
<glyph glyph-name="r" unicode="r" horiz-adv-x="1106" d="M104 0 L280 0 L280 175 L561 175 L822 0 L1100 0 L806 180 C944 198 998 274 998 369 C998 474 928 560 744 560 L104 560 L104 0 Z M736 409 C810 409 815 387 815 365 C815 341 810 321 736 321 L280 321 L280 409 L736 409 Z " />
<glyph glyph-name="s" unicode="s" horiz-adv-x="1031" d="M90 0 L742 0 C914 0 975 76 975 174 C975 273 914 345 742 345 L297 345 C243 345 239 361 239 378 C239 393 242 409 297 409 L941 409 L941 560 L289 560 C117 560 56 484 56 386 C56 287 117 215 289 215 L734 215 C788 215 792 199 792 182 C792 167 789 151 734 151 L90 151 L90 0 Z " />
<glyph glyph-name="t" unicode="t" horiz-adv-x="1039" d="M35 409 L432 409 L432 0 L608 0 L608 409 L1004 409 L1004 560 L35 560 L35 409 Z " />
<glyph glyph-name="u" unicode="u" horiz-adv-x="1093" d="M257 258 L257 560 L84 560 L84 258 C84 104 164 -8 433 -8 L659 -8 C929 -8 1009 104 1009 258 L1009 560 L833 560 L833 258 C833 192 808 143 658 143 L434 143 C283 143 257 192 257 258 L257 258 Z " />
<glyph glyph-name="v" unicode="v" horiz-adv-x="1107" d="M646 0 L1104 560 L883 560 L553 144 L224 560 L3 560 L461 0 L646 0 Z " />
<glyph glyph-name="w" unicode="w" horiz-adv-x="1382" d="M691 352 L897 0 L1026 0 L1368 560 L1157 560 L957 208 L755 560 L625 560 L423 208 L223 560 L14 560 L356 0 L485 0 L691 352 Z " />
<glyph glyph-name="x" unicode="x" horiz-adv-x="1059" d="M7 560 L390 282 L2 0 L284 0 L529 194 L775 0 L1057 0 L668 282 L1053 560 L771 560 L529 370 L289 560 L7 560 Z " />
<glyph glyph-name="y" unicode="y" horiz-adv-x="1070" d="M448 0 L622 0 L622 171 L1078 560 L819 560 L534 301 L251 560 L-8 560 L448 171 L448 0 Z " />
<glyph glyph-name="z" unicode="z" horiz-adv-x="1031" d="M57 0 L984 0 L984 151 L404 151 L967 444 L967 560 L66 560 L66 409 L616 409 L57 116 L57 0 Z " />
<glyph glyph-name="braceleft" unicode="&#x7b;" horiz-adv-x="521" d="M162 457 C162 439 161 422 125 422 L42 422 L42 278 L125 278 C161 278 162 261 162 243 L162 -13 C162 -88 206 -150 330 -150 L479 -150 L479 -6 L396 -6 C358 -6 359 11 359 29 L359 224 C359 280 333 329 267 350 C333 370 359 419 359 476 L359 671 C359 689 358 706 396 706 L479 706 L479 850 L330 850 C206 850 162 788 162 713 L162 457 Z " />
<glyph glyph-name="bar" unicode="&#x7c;" horiz-adv-x="500" d="M168 850 L168 -150 L332 -150 L332 850 L168 850 Z " />
<glyph glyph-name="braceright" unicode="&#x7d;" horiz-adv-x="521" d="M359 713 C359 788 315 850 191 850 L42 850 L42 706 L125 706 C163 706 162 689 162 671 L162 476 C162 419 188 370 254 350 C188 329 162 280 162 224 L162 29 C162 11 163 -6 125 -6 L42 -6 L42 -150 L191 -150 C315 -150 359 -88 359 -13 L359 243 C359 261 360 278 396 278 L479 278 L479 422 L396 422 C360 422 359 439 359 457 L359 713 Z " />
<glyph glyph-name="asciitilde" unicode="&#x7e;" horiz-adv-x="1298" d="M1019 483 C744 260 569 638 279 425 L279 240 C554 463 729 85 1019 298 L1019 483 Z " />
<glyph glyph-name="uni00A0" unicode="&#xa0;" horiz-adv-x="500" d="" />
<glyph glyph-name="exclamdown" unicode="&#xa1;" horiz-adv-x="415" d="M307 700 L109 700 L109 502 L307 502 L307 700 Z M297 442 L119 442 L109 0 L305 0 L297 442 Z " />
<glyph glyph-name="cent" unicode="&#xa2;" horiz-adv-x="1298" d="M1171 288 L751 288 L777 412 L1171 412 L1171 574 L812 574 L843 721 L665 721 L634 574 L408 574 C206 574 126 473 126 350 C126 227 206 126 408 126 L539 126 L508 -20 L686 -20 L717 126 L1171 126 L1171 288 Z M312 350 C312 398 328 412 455 412 L599 412 L573 288 L457 288 C331 288 312 302 312 350 L312 350 Z " />
<glyph glyph-name="sterling" unicode="&#xa3;" horiz-adv-x="1298" d="M764 430 L441 430 L441 444 C441 481 457 520 550 520 L1064 520 L1064 700 L559 700 C335 700 243 589 243 452 L243 430 L114 430 L114 270 L243 270 L243 237 C243 196 218 171 177 171 L114 171 L114 0 L1184 0 L1184 180 L383 180 C419 196 441 232 441 273 L441 270 L764 270 L764 430 Z " />
<glyph glyph-name="currency" unicode="&#xa4;" horiz-adv-x="1298" d="M785 65 C863 65 927 76 979 97 L1081 -10 L1209 117 L1112 209 C1133 251 1143 299 1143 350 C1143 401 1133 448 1112 490 L1209 583 L1081 710 L979 602 C927 623 863 635 785 635 L512 635 C434 635 370 624 318 603 L217 710 L89 583 L185 491 C164 448 154 401 154 350 C154 299 164 251 185 209 L89 117 L217 -10 L318 97 C370 76 434 65 512 65 L785 65 Z M355 350 C355 411 379 461 513 461 L784 461 C918 461 942 411 942 350 C942 288 918 239 784 239 L513 239 C379 239 355 288 355 350 L355 350 Z " />
<glyph glyph-name="yen" unicode="&#xa5;" horiz-adv-x="1298" d="M943 700 L649 425 L355 700 L70 700 L341 471 L98 471 L98 319 L496 319 L551 269 L551 239 L98 239 L98 87 L551 87 L551 0 L747 0 L747 87 L1200 87 L1200 239 L747 239 L747 269 L802 319 L1200 319 L1200 471 L957 471 L1228 700 L943 700 Z " />
<glyph glyph-name="brokenbar" unicode="&#xa6;" horiz-adv-x="500" d="M332 467 L332 850 L168 850 L168 467 L332 467 Z M168 233 L168 -150 L332 -150 L332 233 L168 233 Z " />
<glyph glyph-name="section" unicode="&#xa7;" horiz-adv-x="1226" d="M288 126 L792 126 C858 126 856 111 856 93 C856 79 858 62 794 62 L216 62 L216 -100 L866 -100 C992 -100 1042 -38 1042 39 C1042 75 1032 106 1009 130 C1116 150 1162 218 1162 300 C1162 397 1099 474 938 474 L432 474 C368 474 370 490 370 507 C370 523 368 538 432 538 L1010 538 L1010 700 L360 700 C234 700 184 638 184 561 C184 525 194 494 217 470 C109 450 64 382 64 300 C64 203 127 126 288 126 L288 126 Z M301 266 C241 266 238 283 238 300 C238 318 242 334 301 334 L925 334 C984 334 988 317 988 300 C988 283 985 266 925 266 L301 266 Z " />
<glyph glyph-name="dieresis" unicode="&#xa8;" horiz-adv-x="500" d="M10 633 L184 633 L184 805 L10 805 L10 633 Z M315 633 L489 633 L489 805 L315 805 L315 633 Z " />
<glyph glyph-name="copyright" unicode="&#xa9;" horiz-adv-x="1208" d="M697 -10 C1023 -10 1151 151 1151 350 C1151 549 1023 710 697 710 L511 710 C185 710 57 549 57 350 C57 151 185 -10 511 -10 L697 -10 Z M512 112 C275 112 199 220 199 350 C199 480 275 588 512 588 L696 588 C933 588 1009 480 1009 350 C1009 220 933 112 696 112 L512 112 Z M834 275 L530 275 C442 275 427 309 427 350 C427 391 441 425 530 425 L834 425 L834 525 L530 525 C371 525 309 446 309 350 C309 253 371 175 530 175 L834 175 L834 275 Z " />
<glyph glyph-name="ordfeminine" unicode="&#xaa;" horiz-adv-x="748" d="M193 350 L229 399 L517 399 L553 350 L702 350 L435 700 L311 700 L46 350 L193 350 Z M373 593 L459 478 L287 478 L373 593 Z " />
<glyph glyph-name="guillemotleft" unicode="&#xab;" horiz-adv-x="883" d="M243 560 L71 282 L245 0 L448 0 L274 282 L446 560 L243 560 Z M605 560 L433 282 L607 0 L810 0 L636 282 L808 560 L605 560 Z " />
<glyph glyph-name="logicalnot" unicode="&#xac;" horiz-adv-x="1298" d="M279 260 L821 260 L821 40 L1019 40 L1019 440 L279 440 L279 260 Z " />
<glyph glyph-name="uni00AD" unicode="&#xad;" horiz-adv-x="600" d="M84 204 L516 204 L516 355 L84 355 L84 204 Z " />
<glyph glyph-name="registered" unicode="&#xae;" horiz-adv-x="1208" d="M697 -10 C1023 -10 1151 151 1151 350 C1151 549 1023 710 697 710 L511 710 C185 710 57 549 57 350 C57 151 185 -10 511 -10 L697 -10 Z M512 112 C275 112 199 220 199 350 C199 480 275 588 512 588 L696 588 C933 588 1009 480 1009 350 C1009 220 933 112 696 112 L512 112 Z M339 175 L450 175 L450 283 L636 283 L766 175 L928 175 L778 292 C840 308 866 352 866 405 C866 472 823 525 713 525 L339 525 L339 175 Z M705 425 C742 425 748 415 748 401 C748 387 742 376 705 376 L450 376 L450 425 L705 425 Z " />
<glyph glyph-name="macron" unicode="&#xaf;" horiz-adv-x="500" d="M25 658 L474 658 L474 782 L25 782 L25 658 Z " />
<glyph glyph-name="degree" unicode="&#xb0;" horiz-adv-x="561" d="M71 505 C71 384 167 298 281 298 C394 298 490 384 490 505 C490 624 394 710 281 710 C167 710 71 624 71 505 L71 505 Z M221 505 C221 545 242 574 281 574 C319 574 340 545 340 505 C340 463 319 434 281 434 C242 434 221 463 221 505 L221 505 Z " />
<glyph glyph-name="plusminus" unicode="&#xb1;" horiz-adv-x="1298" d="M279 400 L551 400 L551 280 L747 280 L747 400 L1019 400 L1019 580 L747 580 L747 700 L551 700 L551 580 L279 580 L279 400 Z M279 0 L1019 0 L1019 180 L279 180 L279 0 Z " />
<glyph glyph-name="twosuperior" unicode="&#xb2;" horiz-adv-x="736" d="M498 597 C534 597 536 586 536 574 C536 563 532 553 498 553 L228 553 C129 553 91 513 91 451 L91 350 L637 350 L637 453 L205 453 L205 474 C205 484 211 497 236 497 L516 497 C614 497 654 538 654 598 C654 657 614 700 516 700 L110 700 L110 597 L498 597 Z " />
<glyph glyph-name="threesuperior" unicode="&#xb3;" horiz-adv-x="736" d="M483 497 C518 497 519 486 519 474 C519 462 517 453 483 453 L76 453 L76 350 L525 350 C612 350 645 392 645 443 C645 485 624 520 573 532 C604 549 620 577 620 609 C620 661 588 700 504 700 L87 700 L87 597 L460 597 C496 597 497 586 497 574 C497 563 495 553 460 553 L128 553 L128 497 L483 497 Z " />
<glyph glyph-name="acute" unicode="&#xb4;" horiz-adv-x="500" d="M140 635 L268 635 L451 806 L235 806 L140 635 Z " />
<glyph glyph-name="uni00B5" unicode="&#xb5;" horiz-adv-x="1298" d="M1045 0 L1174 0 L1174 560 L976 560 L976 349 C976 254 907 180 718 180 L407 180 C336 180 322 201 322 224 L322 560 L124 560 L124 -200 L322 -200 L322 44 C343 17 381 0 448 0 L740 0 C857 0 942 33 998 79 L1045 0 Z " />
<glyph glyph-name="paragraph" unicode="&#xb6;" horiz-adv-x="1199" d="M675 520 L814 520 L814 -100 L1012 -100 L1012 520 L1112 520 L1112 700 L358 700 C139 700 54 592 54 461 C54 325 139 220 358 220 L477 220 L477 -100 L675 -100 L675 520 Z " />
<glyph glyph-name="periodcentered" unicode="&#xb7;" horiz-adv-x="374" d="M89 251 L285 251 L285 449 L89 449 L89 251 Z " />
<glyph glyph-name="cedilla" unicode="&#xb8;" horiz-adv-x="500" d="M170 -147 L216 -147 C262 -148 284 -152 284 -181 C284 -230 145 -221 102 -189 L102 -275 C178 -314 417 -338 417 -186 C417 -96 346 -71 257 -71 L275 0 L208 0 L170 -147 Z " />
<glyph glyph-name="onesuperior" unicode="&#xb9;" horiz-adv-x="736" d="M228 597 L339 597 L339 453 L153 453 L153 350 L582 350 L582 453 L454 453 L454 700 L228 700 L228 597 Z " />
<glyph glyph-name="ordmasculine" unicode="&#xba;" horiz-adv-x="746" d="M448 345 C611 345 675 425 675 525 C675 624 611 705 448 705 L298 705 C135 705 71 624 71 525 C71 425 135 345 298 345 L448 345 Z M299 448 C209 448 184 483 184 525 C184 566 209 602 299 602 L448 602 C537 602 562 566 562 525 C562 483 537 448 448 448 L299 448 Z " />
<glyph glyph-name="guillemotright" unicode="&#xbb;" horiz-adv-x="883" d="M436 560 L608 282 L434 0 L637 0 L811 282 L639 560 L436 560 Z M74 560 L246 282 L72 0 L275 0 L449 282 L277 560 L74 560 Z " />
<glyph glyph-name="onequarter" unicode="&#xbc;" horiz-adv-x="1471" d="M1239 350 L813 141 L813 52 L1233 52 L1233 0 L1346 0 L1346 52 L1405 52 L1405 156 L1346 156 L1346 350 L1239 350 Z M1024 156 L1233 256 L1233 156 L1024 156 Z M1037 700 L256 0 L437 0 L1217 700 L1037 700 Z M228 597 L339 597 L339 453 L153 453 L153 350 L582 350 L582 453 L454 453 L454 700 L228 700 L228 597 Z " />
<glyph glyph-name="onehalf" unicode="&#xbd;" horiz-adv-x="1471" d="M1234 247 C1270 247 1272 236 1272 224 C1272 213 1268 203 1234 203 L964 203 C865 203 827 163 827 101 L827 0 L1373 0 L1373 103 L941 103 L941 124 C941 134 947 147 972 147 L1252 147 C1350 147 1390 188 1390 248 C1390 307 1350 350 1252 350 L846 350 L846 247 L1234 247 Z M1037 700 L256 0 L437 0 L1217 700 L1037 700 Z M228 597 L339 597 L339 453 L153 453 L153 350 L582 350 L582 453 L454 453 L454 700 L228 700 L228 597 Z " />
<glyph glyph-name="threequarters" unicode="&#xbe;" horiz-adv-x="1471" d="M1239 350 L813 141 L813 52 L1233 52 L1233 0 L1346 0 L1346 52 L1405 52 L1405 156 L1346 156 L1346 350 L1239 350 Z M1024 156 L1233 256 L1233 156 L1024 156 Z M1037 700 L256 0 L437 0 L1217 700 L1037 700 Z M483 497 C518 497 519 486 519 474 C519 462 517 453 483 453 L76 453 L76 350 L525 350 C612 350 645 392 645 443 C645 485 624 520 573 532 C604 549 620 577 620 609 C620 661 588 700 504 700 L87 700 L87 597 L460 597 C496 597 497 586 497 574 C497 563 495 553 460 553 L128 553 L128 497 L483 497 Z " />
<glyph glyph-name="questiondown" unicode="&#xbf;" horiz-adv-x="1070" d="M801 442 L622 442 L622 426 L302 426 C102 426 24 335 24 213 C24 93 102 0 302 0 L1048 0 L1048 180 L312 180 C241 180 234 205 234 227 C234 250 241 274 312 274 L801 274 L801 442 Z M810 700 L612 700 L612 502 L810 502 L810 700 Z " />
<glyph glyph-name="Agrave" unicode="&#xc0;" horiz-adv-x="1295" d="M1050 0 L1293 0 L753 700 L544 700 L2 0 L245 0 L326 107 L968 107 L1050 0 Z M647 529 L845 269 L449 269 L647 529 Z M661 946 L445 946 L628 775 L756 775 L661 946 Z " />
<glyph glyph-name="Aacute" unicode="&#xc1;" horiz-adv-x="1295" d="M1050 0 L1293 0 L753 700 L544 700 L2 0 L245 0 L326 107 L968 107 L1050 0 Z M647 529 L845 269 L449 269 L647 529 Z M537 775 L665 775 L848 946 L632 946 L537 775 Z " />
<glyph glyph-name="Acircumflex" unicode="&#xc2;" horiz-adv-x="1295" d="M1050 0 L1293 0 L753 700 L544 700 L2 0 L245 0 L326 107 L968 107 L1050 0 Z M647 529 L845 269 L449 269 L647 529 Z M759 946 L534 946 L426 775 L554 775 L647 853 L739 775 L867 775 L759 946 Z " />
<glyph glyph-name="Atilde" unicode="&#xc3;" horiz-adv-x="1295" d="M1050 0 L1293 0 L753 700 L544 700 L2 0 L245 0 L326 107 L968 107 L1050 0 Z M647 529 L845 269 L449 269 L647 529 Z M744 950 C746 922 738 909 716 909 C686 909 637 944 577 944 C503 944 457 897 454 770 L550 770 C548 797 556 811 578 811 C607 811 656 775 717 775 C791 775 840 820 840 950 L744 950 Z " />
<glyph glyph-name="Adieresis" unicode="&#xc4;" horiz-adv-x="1295" d="M1050 0 L1293 0 L753 700 L544 700 L2 0 L245 0 L326 107 L968 107 L1050 0 Z M647 529 L845 269 L449 269 L647 529 Z M408 773 L582 773 L582 945 L408 945 L408 773 Z M713 773 L887 773 L887 945 L713 945 L713 773 Z " />
<glyph glyph-name="Aring" unicode="&#xc5;" horiz-adv-x="1295" d="M1050 0 L1293 0 L753 700 L544 700 L2 0 L245 0 L326 107 L968 107 L1050 0 Z M647 529 L845 269 L449 269 L647 529 Z M615 861 C615 878 630 893 648 893 C664 893 679 878 679 861 C679 844 664 830 648 830 C630 830 615 844 615 861 L615 861 Z M509 861 C509 793 563 741 648 741 C731 741 785 793 785 861 C785 929 731 981 648 981 C563 981 509 929 509 861 L509 861 Z " />
<glyph glyph-name="AE" unicode="&#xc6;" horiz-adv-x="1727" d="M747 103 L747 0 L1655 0 L1655 180 L945 180 L945 270 L1553 270 L1553 430 L945 430 L945 520 L1655 520 L1655 700 L644 700 L2 0 L251 0 L343 103 L747 103 Z M747 553 L747 263 L483 263 L747 553 Z " />
<glyph glyph-name="Ccedilla" unicode="&#xc7;" horiz-adv-x="1184" d="M563 -147 L609 -147 C655 -148 677 -152 677 -181 C677 -230 538 -221 495 -189 L495 -275 C571 -314 810 -338 810 -186 C810 -96 739 -71 650 -71 L668 0 L1112 0 L1112 180 L509 180 C321 180 279 255 279 350 C279 445 321 520 509 520 L1112 520 L1112 700 L508 700 C191 700 67 543 67 350 C67 157 191 0 508 0 L601 0 L563 -147 Z " />
<glyph glyph-name="Egrave" unicode="&#xc8;" horiz-adv-x="1199" d="M114 0 L1127 0 L1127 180 L312 180 L312 270 L1025 270 L1025 430 L312 430 L312 520 L1127 520 L1127 700 L114 700 L114 0 Z M623 946 L407 946 L590 775 L718 775 L623 946 Z " />
<glyph glyph-name="Eacute" unicode="&#xc9;" horiz-adv-x="1199" d="M114 0 L1127 0 L1127 180 L312 180 L312 270 L1025 270 L1025 430 L312 430 L312 520 L1127 520 L1127 700 L114 700 L114 0 Z M499 775 L627 775 L810 946 L594 946 L499 775 Z " />
<glyph glyph-name="Ecircumflex" unicode="&#xca;" horiz-adv-x="1199" d="M114 0 L1127 0 L1127 180 L312 180 L312 270 L1025 270 L1025 430 L312 430 L312 520 L1127 520 L1127 700 L114 700 L114 0 Z M721 946 L496 946 L388 775 L516 775 L609 853 L701 775 L829 775 L721 946 Z " />
<glyph glyph-name="Edieresis" unicode="&#xcb;" horiz-adv-x="1199" d="M114 0 L1127 0 L1127 180 L312 180 L312 270 L1025 270 L1025 430 L312 430 L312 520 L1127 520 L1127 700 L114 700 L114 0 Z M369 773 L543 773 L543 945 L369 945 L369 773 Z M674 773 L848 773 L848 945 L674 945 L674 773 Z " />
<glyph glyph-name="Igrave" unicode="&#xcc;" horiz-adv-x="426" d="M114 0 L312 0 L312 700 L114 700 L114 0 Z M227 946 L11 946 L194 775 L322 775 L227 946 Z " />
<glyph glyph-name="Iacute" unicode="&#xcd;" horiz-adv-x="426" d="M114 0 L312 0 L312 700 L114 700 L114 0 Z M103 775 L231 775 L414 946 L198 946 L103 775 Z " />
<glyph glyph-name="Icircumflex" unicode="&#xce;" horiz-adv-x="426" d="M114 0 L312 0 L312 700 L114 700 L114 0 Z M325 946 L100 946 L-8 775 L120 775 L213 853 L305 775 L433 775 L325 946 Z " />
<glyph glyph-name="Idieresis" unicode="&#xcf;" horiz-adv-x="426" d="M114 0 L312 0 L312 700 L114 700 L114 0 Z M-27 773 L147 773 L147 945 L-27 945 L-27 773 Z M278 773 L452 773 L452 945 L278 945 L278 773 Z " />
<glyph glyph-name="Eth" unicode="&#xd0;" horiz-adv-x="1255" d="M-16 270 L114 270 L114 0 L747 0 C1064 0 1188 157 1188 350 C1188 543 1064 700 747 700 L114 700 L114 430 L-16 430 L-16 270 Z M746 520 C934 520 976 445 976 350 C976 255 934 180 746 180 L312 180 L312 270 L648 270 L648 430 L312 430 L312 520 L746 520 Z " />
<glyph glyph-name="Ntilde" unicode="&#xd1;" horiz-adv-x="1309" d="M1008 0 L1195 0 L1195 700 L997 700 L997 232 L301 700 L114 700 L114 0 L312 0 L312 468 L1008 0 Z M751 950 C753 922 745 909 723 909 C693 909 644 944 584 944 C510 944 464 897 461 770 L557 770 C555 797 563 811 585 811 C614 811 663 775 724 775 C798 775 847 820 847 950 L751 950 Z " />
<glyph glyph-name="Ograve" unicode="&#xd2;" horiz-adv-x="1348" d="M827 -10 C1153 -10 1281 151 1281 350 C1281 549 1153 710 827 710 L521 710 C195 710 67 549 67 350 C67 151 195 -10 521 -10 L827 -10 Z M522 170 C325 170 278 249 278 350 C278 451 325 530 523 530 L826 530 C1023 530 1069 451 1069 350 C1069 249 1023 170 826 170 L522 170 Z M688 946 L472 946 L655 775 L783 775 L688 946 Z " />
<glyph glyph-name="Oacute" unicode="&#xd3;" horiz-adv-x="1348" d="M827 -10 C1153 -10 1281 151 1281 350 C1281 549 1153 710 827 710 L521 710 C195 710 67 549 67 350 C67 151 195 -10 521 -10 L827 -10 Z M522 170 C325 170 278 249 278 350 C278 451 325 530 523 530 L826 530 C1023 530 1069 451 1069 350 C1069 249 1023 170 826 170 L522 170 Z M564 775 L692 775 L875 946 L659 946 L564 775 Z " />
<glyph glyph-name="Ocircumflex" unicode="&#xd4;" horiz-adv-x="1348" d="M827 -10 C1153 -10 1281 151 1281 350 C1281 549 1153 710 827 710 L521 710 C195 710 67 549 67 350 C67 151 195 -10 521 -10 L827 -10 Z M522 170 C325 170 278 249 278 350 C278 451 325 530 523 530 L826 530 C1023 530 1069 451 1069 350 C1069 249 1023 170 826 170 L522 170 Z M786 946 L561 946 L453 775 L581 775 L674 853 L766 775 L894 775 L786 946 Z " />
<glyph glyph-name="Otilde" unicode="&#xd5;" horiz-adv-x="1348" d="M827 -10 C1153 -10 1281 151 1281 350 C1281 549 1153 710 827 710 L521 710 C195 710 67 549 67 350 C67 151 195 -10 521 -10 L827 -10 Z M522 170 C325 170 278 249 278 350 C278 451 325 530 523 530 L826 530 C1023 530 1069 451 1069 350 C1069 249 1023 170 826 170 L522 170 Z M771 950 C773 922 765 909 743 909 C713 909 664 944 604 944 C530 944 484 897 481 770 L577 770 C575 797 583 811 605 811 C634 811 683 775 744 775 C818 775 867 820 867 950 L771 950 Z " />
<glyph glyph-name="Odieresis" unicode="&#xd6;" horiz-adv-x="1348" d="M827 -10 C1153 -10 1281 151 1281 350 C1281 549 1153 710 827 710 L521 710 C195 710 67 549 67 350 C67 151 195 -10 521 -10 L827 -10 Z M522 170 C325 170 278 249 278 350 C278 451 325 530 523 530 L826 530 C1023 530 1069 451 1069 350 C1069 249 1023 170 826 170 L522 170 Z M434 773 L608 773 L608 945 L434 945 L434 773 Z M739 773 L913 773 L913 945 L739 945 L739 773 Z " />
<glyph glyph-name="multiply" unicode="&#xd7;" horiz-adv-x="1298" d="M988 541 L855 674 L646 470 L443 662 L310 529 L514 347 L310 159 L443 26 L647 224 L855 26 L988 159 L776 348 L988 541 Z " />
<glyph glyph-name="Oslash" unicode="&#xd8;" horiz-adv-x="1348" d="M827 -10 C1153 -10 1281 151 1281 350 C1281 503 1204 635 1018 687 L1096 800 L872 800 L810 710 C782 710 755 710 727 710 L521 710 C195 710 67 549 67 350 C67 196 142 65 328 13 L250 -100 L474 -100 L536 -10 C565 -10 593 -10 621 -10 L827 -10 Z M1069 350 C1069 249 1023 170 826 170 L661 170 L905 524 C1035 505 1069 435 1069 350 L1069 350 Z M278 350 C278 451 325 530 523 530 L685 530 L441 176 C312 195 278 264 278 350 L278 350 Z " />
<glyph glyph-name="Ugrave" unicode="&#xd9;" horiz-adv-x="1275" d="M292 323 L292 700 L94 700 L94 323 C94 130 198 -10 515 -10 L760 -10 C1077 -10 1181 130 1181 323 L1181 700 L983 700 L983 323 C983 234 942 170 759 170 L516 170 C333 170 292 234 292 323 L292 323 Z M651 946 L435 946 L618 775 L746 775 L651 946 Z " />
<glyph glyph-name="Uacute" unicode="&#xda;" horiz-adv-x="1275" d="M292 323 L292 700 L94 700 L94 323 C94 130 198 -10 515 -10 L760 -10 C1077 -10 1181 130 1181 323 L1181 700 L983 700 L983 323 C983 234 942 170 759 170 L516 170 C333 170 292 234 292 323 L292 323 Z M527 775 L655 775 L838 946 L622 946 L527 775 Z " />
<glyph glyph-name="Ucircumflex" unicode="&#xdb;" horiz-adv-x="1275" d="M292 323 L292 700 L94 700 L94 323 C94 130 198 -10 515 -10 L760 -10 C1077 -10 1181 130 1181 323 L1181 700 L983 700 L983 323 C983 234 942 170 759 170 L516 170 C333 170 292 234 292 323 L292 323 Z M749 946 L524 946 L416 775 L544 775 L637 853 L729 775 L857 775 L749 946 Z " />
<glyph glyph-name="Udieresis" unicode="&#xdc;" horiz-adv-x="1275" d="M292 323 L292 700 L94 700 L94 323 C94 130 198 -10 515 -10 L760 -10 C1077 -10 1181 130 1181 323 L1181 700 L983 700 L983 323 C983 234 942 170 759 170 L516 170 C333 170 292 234 292 323 L292 323 Z M398 773 L572 773 L572 945 L398 945 L398 773 Z M703 773 L877 773 L877 945 L703 945 L703 773 Z " />
<glyph glyph-name="Yacute" unicode="&#xdd;" horiz-adv-x="1258" d="M530 0 L728 0 L728 211 L1266 700 L974 700 L630 371 L284 700 L-8 700 L530 211 L530 0 Z M518 775 L646 775 L829 946 L613 946 L518 775 Z " />
<glyph glyph-name="Thorn" unicode="&#xde;" horiz-adv-x="1195" d="M114 0 L312 0 L312 111 L868 111 C1087 111 1172 216 1172 350 C1172 481 1087 589 868 589 L312 589 L312 700 L114 700 L114 0 Z M864 411 C954 411 962 383 962 350 C962 316 954 289 864 289 L312 289 L312 411 L864 411 Z " />
<glyph glyph-name="germandbls" unicode="&#xdf;" horiz-adv-x="1087" d="M461 215 L800 215 C854 215 858 199 858 182 C858 167 855 151 800 151 L399 151 L399 0 L808 0 C980 0 1041 76 1041 174 C1041 273 980 345 808 345 L733 345 L961 444 L961 560 L441 560 C172 560 84 450 84 296 L84 0 L257 0 L257 296 C257 363 291 409 442 409 L626 409 L461 332 L461 215 Z " />
<glyph glyph-name="agrave" unicode="&#xe0;" horiz-adv-x="1107" d="M888 0 L1104 0 L646 560 L461 560 L3 0 L219 0 L291 91 L815 91 L888 0 Z M553 416 L708 223 L398 223 L553 416 Z M567 806 L351 806 L534 635 L662 635 L567 806 Z " />
<glyph glyph-name="aacute" unicode="&#xe1;" horiz-adv-x="1107" d="M888 0 L1104 0 L646 560 L461 560 L3 0 L219 0 L291 91 L815 91 L888 0 Z M553 416 L708 223 L398 223 L553 416 Z M443 635 L571 635 L754 806 L538 806 L443 635 Z " />
<glyph glyph-name="acircumflex" unicode="&#xe2;" horiz-adv-x="1107" d="M888 0 L1104 0 L646 560 L461 560 L3 0 L219 0 L291 91 L815 91 L888 0 Z M553 416 L708 223 L398 223 L553 416 Z M665 806 L440 806 L332 635 L460 635 L553 713 L645 635 L773 635 L665 806 Z " />
<glyph glyph-name="atilde" unicode="&#xe3;" horiz-adv-x="1107" d="M888 0 L1104 0 L646 560 L461 560 L3 0 L219 0 L291 91 L815 91 L888 0 Z M553 416 L708 223 L398 223 L553 416 Z M650 810 C652 782 644 769 622 769 C592 769 543 804 483 804 C409 804 363 757 360 630 L456 630 C454 657 462 671 484 671 C513 671 562 635 623 635 C697 635 746 680 746 810 L650 810 Z " />
<glyph glyph-name="adieresis" unicode="&#xe4;" horiz-adv-x="1107" d="M888 0 L1104 0 L646 560 L461 560 L3 0 L219 0 L291 91 L815 91 L888 0 Z M553 416 L708 223 L398 223 L553 416 Z M314 633 L488 633 L488 805 L314 805 L314 633 Z M619 633 L793 633 L793 805 L619 805 L619 633 Z " />
<glyph glyph-name="aring" unicode="&#xe5;" horiz-adv-x="1107" d="M888 0 L1104 0 L646 560 L461 560 L3 0 L219 0 L291 91 L815 91 L888 0 Z M553 416 L708 223 L398 223 L553 416 Z M521 721 C521 738 536 753 554 753 C570 753 585 738 585 721 C585 704 570 690 554 690 C536 690 521 704 521 721 L521 721 Z M415 721 C415 653 469 601 554 601 C637 601 691 653 691 721 C691 789 637 841 554 841 C469 841 415 789 415 721 L415 721 Z " />
<glyph glyph-name="ae" unicode="&#xe6;" horiz-adv-x="1477" d="M638 80 L638 0 L1412 0 L1412 151 L812 151 L812 215 L1324 215 L1324 345 L812 345 L812 409 L1412 409 L1412 560 L546 560 L3 0 L223 0 L299 80 L638 80 Z M638 435 L638 212 L424 212 L638 435 Z " />
<glyph glyph-name="ccedilla" unicode="&#xe7;" horiz-adv-x="1014" d="M468 -147 L514 -147 C560 -148 582 -152 582 -181 C582 -230 443 -221 400 -189 L400 -275 C476 -314 715 -338 715 -186 C715 -96 644 -71 555 -71 L573 0 L950 0 L950 151 L427 151 C272 151 246 208 246 280 C246 352 272 409 427 409 L950 409 L950 560 L427 560 C157 560 60 434 60 280 C60 126 157 0 427 0 L506 0 L468 -147 Z " />
<glyph glyph-name="egrave" unicode="&#xe8;" horiz-adv-x="1032" d="M104 0 L967 0 L967 151 L280 151 L280 215 L879 215 L879 345 L280 345 L280 409 L967 409 L967 560 L104 560 L104 0 Z M542 806 L326 806 L509 635 L637 635 L542 806 Z " />
<glyph glyph-name="eacute" unicode="&#xe9;" horiz-adv-x="1032" d="M104 0 L967 0 L967 151 L280 151 L280 215 L879 215 L879 345 L280 345 L280 409 L967 409 L967 560 L104 560 L104 0 Z M418 635 L546 635 L729 806 L513 806 L418 635 Z " />
<glyph glyph-name="ecircumflex" unicode="&#xea;" horiz-adv-x="1032" d="M104 0 L967 0 L967 151 L280 151 L280 215 L879 215 L879 345 L280 345 L280 409 L967 409 L967 560 L104 560 L104 0 Z M640 806 L415 806 L307 635 L435 635 L528 713 L620 635 L748 635 L640 806 Z " />
<glyph glyph-name="edieresis" unicode="&#xeb;" horiz-adv-x="1032" d="M104 0 L967 0 L967 151 L280 151 L280 215 L879 215 L879 345 L280 345 L280 409 L967 409 L967 560 L104 560 L104 0 Z M288 633 L462 633 L462 805 L288 805 L288 633 Z M593 633 L767 633 L767 805 L593 805 L593 633 Z " />
<glyph glyph-name="igrave" unicode="&#xec;" horiz-adv-x="384" d="M206 806 L-10 806 L173 635 L301 635 L206 806 Z M104 0 L280 0 L280 560 L104 560 L104 0 Z " />
<glyph glyph-name="iacute" unicode="&#xed;" horiz-adv-x="384" d="M82 635 L210 635 L393 806 L177 806 L82 635 Z M104 0 L280 0 L280 560 L104 560 L104 0 Z " />
<glyph glyph-name="icircumflex" unicode="&#xee;" horiz-adv-x="384" d="M104 0 L280 0 L280 560 L104 560 L104 0 Z M304 806 L79 806 L-29 635 L99 635 L192 713 L284 635 L412 635 L304 806 Z " />
<glyph glyph-name="idieresis" unicode="&#xef;" horiz-adv-x="384" d="M-47 633 L127 633 L127 805 L-47 805 L-47 633 Z M258 633 L432 633 L432 805 L258 805 L258 633 Z M104 0 L280 0 L280 560 L104 560 L104 0 Z " />
<glyph glyph-name="eth" unicode="&#xf0;" horiz-adv-x="1079" d="M-16 215 L104 215 L104 0 L652 0 C921 0 1019 126 1019 280 C1019 434 921 560 652 560 L104 560 L104 345 L-16 345 L-16 215 Z M651 409 C807 409 833 352 833 280 C833 208 807 151 651 151 L280 151 L280 215 L572 215 L572 345 L280 345 L280 409 L651 409 Z " />
<glyph glyph-name="ntilde" unicode="&#xf1;" horiz-adv-x="1129" d="M1025 0 L1025 560 L851 560 L851 196 L270 560 L104 560 L104 0 L280 0 L280 364 L859 0 L1025 0 Z M661 810 C663 782 655 769 633 769 C603 769 554 804 494 804 C420 804 374 757 371 630 L467 630 C465 657 473 671 495 671 C524 671 573 635 634 635 C708 635 757 680 757 810 L661 810 Z " />
<glyph glyph-name="ograve" unicode="&#xf2;" horiz-adv-x="1153" d="M716 -8 C993 -8 1093 121 1093 280 C1093 439 993 568 716 568 L438 568 C161 568 60 439 60 280 C60 121 161 -8 438 -8 L716 -8 Z M439 143 C275 143 245 203 245 280 C245 357 275 417 439 417 L715 417 C876 417 908 357 908 280 C908 203 876 143 715 143 L439 143 Z M590 806 L374 806 L557 635 L685 635 L590 806 Z " />
<glyph glyph-name="oacute" unicode="&#xf3;" horiz-adv-x="1153" d="M716 -8 C993 -8 1093 121 1093 280 C1093 439 993 568 716 568 L438 568 C161 568 60 439 60 280 C60 121 161 -8 438 -8 L716 -8 Z M439 143 C275 143 245 203 245 280 C245 357 275 417 439 417 L715 417 C876 417 908 357 908 280 C908 203 876 143 715 143 L439 143 Z M466 635 L594 635 L777 806 L561 806 L466 635 Z " />
<glyph glyph-name="ocircumflex" unicode="&#xf4;" horiz-adv-x="1153" d="M716 -8 C993 -8 1093 121 1093 280 C1093 439 993 568 716 568 L438 568 C161 568 60 439 60 280 C60 121 161 -8 438 -8 L716 -8 Z M439 143 C275 143 245 203 245 280 C245 357 275 417 439 417 L715 417 C876 417 908 357 908 280 C908 203 876 143 715 143 L439 143 Z M688 806 L463 806 L355 635 L483 635 L576 713 L668 635 L796 635 L688 806 Z " />
<glyph glyph-name="otilde" unicode="&#xf5;" horiz-adv-x="1153" d="M716 -8 C993 -8 1093 121 1093 280 C1093 439 993 568 716 568 L438 568 C161 568 60 439 60 280 C60 121 161 -8 438 -8 L716 -8 Z M439 143 C275 143 245 203 245 280 C245 357 275 417 439 417 L715 417 C876 417 908 357 908 280 C908 203 876 143 715 143 L439 143 Z M673 810 C675 782 667 769 645 769 C615 769 566 804 506 804 C432 804 386 757 383 630 L479 630 C477 657 485 671 507 671 C536 671 585 635 646 635 C720 635 769 680 769 810 L673 810 Z " />
<glyph glyph-name="odieresis" unicode="&#xf6;" horiz-adv-x="1153" d="M716 -8 C993 -8 1093 121 1093 280 C1093 439 993 568 716 568 L438 568 C161 568 60 439 60 280 C60 121 161 -8 438 -8 L716 -8 Z M439 143 C275 143 245 203 245 280 C245 357 275 417 439 417 L715 417 C876 417 908 357 908 280 C908 203 876 143 715 143 L439 143 Z M337 633 L511 633 L511 805 L337 805 L337 633 Z M642 633 L816 633 L816 805 L642 805 L642 633 Z " />
<glyph glyph-name="divide" unicode="&#xf7;" horiz-adv-x="1298" d="M279 260 L1019 260 L1019 440 L279 440 L279 260 Z M550 -10 L748 -10 L748 188 L550 188 L550 -10 Z M550 512 L748 512 L748 710 L550 710 L550 512 Z " />
<glyph glyph-name="oslash" unicode="&#xf8;" horiz-adv-x="1153" d="M716 -8 C993 -8 1093 121 1093 280 C1093 405 1031 510 871 551 L936 640 L739 640 L687 568 L438 568 C161 568 60 439 60 280 C60 155 122 49 281 9 L216 -80 L413 -80 L465 -8 L716 -8 Z M908 280 C908 203 876 143 715 143 L575 143 L771 413 C883 400 908 346 908 280 L908 280 Z M245 280 C245 357 275 417 439 417 L576 417 L380 146 C267 160 245 213 245 280 L245 280 Z " />
<glyph glyph-name="ugrave" unicode="&#xf9;" horiz-adv-x="1093" d="M257 258 L257 560 L84 560 L84 258 C84 104 164 -8 433 -8 L659 -8 C929 -8 1009 104 1009 258 L1009 560 L833 560 L833 258 C833 192 808 143 658 143 L434 143 C283 143 257 192 257 258 L257 258 Z M560 806 L344 806 L527 635 L655 635 L560 806 Z " />
<glyph glyph-name="uacute" unicode="&#xfa;" horiz-adv-x="1093" d="M257 258 L257 560 L84 560 L84 258 C84 104 164 -8 433 -8 L659 -8 C929 -8 1009 104 1009 258 L1009 560 L833 560 L833 258 C833 192 808 143 658 143 L434 143 C283 143 257 192 257 258 L257 258 Z M436 635 L564 635 L747 806 L531 806 L436 635 Z " />
<glyph glyph-name="ucircumflex" unicode="&#xfb;" horiz-adv-x="1093" d="M257 258 L257 560 L84 560 L84 258 C84 104 164 -8 433 -8 L659 -8 C929 -8 1009 104 1009 258 L1009 560 L833 560 L833 258 C833 192 808 143 658 143 L434 143 C283 143 257 192 257 258 L257 258 Z M658 806 L433 806 L325 635 L453 635 L546 713 L638 635 L766 635 L658 806 Z " />
<glyph glyph-name="udieresis" unicode="&#xfc;" horiz-adv-x="1093" d="M257 258 L257 560 L84 560 L84 258 C84 104 164 -8 433 -8 L659 -8 C929 -8 1009 104 1009 258 L1009 560 L833 560 L833 258 C833 192 808 143 658 143 L434 143 C283 143 257 192 257 258 L257 258 Z M307 633 L481 633 L481 805 L307 805 L307 633 Z M612 633 L786 633 L786 805 L612 805 L612 633 Z " />
<glyph glyph-name="yacute" unicode="&#xfd;" horiz-adv-x="1070" d="M448 0 L622 0 L622 171 L1078 560 L819 560 L534 301 L251 560 L-8 560 L448 171 L448 0 Z M425 635 L553 635 L736 806 L520 806 L425 635 Z " />
<glyph glyph-name="thorn" unicode="&#xfe;" horiz-adv-x="1039" d="M104 0 L280 0 L280 86 L750 86 C938 86 1005 171 1005 280 C1005 386 938 474 750 474 L280 474 L280 560 L104 560 L104 0 Z M746 322 C821 322 822 304 822 280 C822 258 821 238 746 238 L280 238 L280 322 L746 322 Z " />
<glyph glyph-name="ydieresis" unicode="&#xff;" horiz-adv-x="1070" d="M448 0 L622 0 L622 171 L1078 560 L819 560 L534 301 L251 560 L-8 560 L448 171 L448 0 Z M295 633 L469 633 L469 805 L295 805 L295 633 Z M600 633 L774 633 L774 805 L600 805 L600 633 Z " />
<glyph glyph-name="Amacron" unicode="&#x100;" horiz-adv-x="1295" d="M1050 0 L1293 0 L753 700 L544 700 L2 0 L245 0 L326 107 L968 107 L1050 0 Z M647 529 L845 269 L449 269 L647 529 Z M423 798 L872 798 L872 922 L423 922 L423 798 Z " />
<glyph glyph-name="amacron" unicode="&#x101;" horiz-adv-x="1107" d="M888 0 L1104 0 L646 560 L461 560 L3 0 L219 0 L291 91 L815 91 L888 0 Z M553 416 L708 223 L398 223 L553 416 Z M329 658 L778 658 L778 782 L329 782 L329 658 Z " />
<glyph glyph-name="Abreve" unicode="&#x102;" horiz-adv-x="1295" d="M1050 0 L1293 0 L753 700 L544 700 L2 0 L245 0 L326 107 L968 107 L1050 0 Z M647 529 L845 269 L449 269 L647 529 Z M647 892 C587 892 559 915 557 949 L449 949 C453 865 489 771 647 771 C804 771 841 865 845 949 L737 949 C733 915 706 892 647 892 L647 892 Z " />
<glyph glyph-name="abreve" unicode="&#x103;" horiz-adv-x="1107" d="M888 0 L1104 0 L646 560 L461 560 L3 0 L219 0 L291 91 L815 91 L888 0 Z M553 416 L708 223 L398 223 L553 416 Z M553 752 C493 752 465 775 463 809 L355 809 C359 725 395 631 553 631 C710 631 747 725 751 809 L643 809 C639 775 612 752 553 752 L553 752 Z " />
<glyph glyph-name="Aogonek" unicode="&#x104;" horiz-adv-x="1295" d="M887 -185 C887 -251 950 -295 1042 -295 C1092 -295 1145 -292 1202 -272 L1202 -187 C1166 -202 1149 -205 1121 -205 C1073 -205 1040 -184 1040 -142 C1040 -79 1090 -36 1146 0 L1293 0 L753 700 L544 700 L2 0 L245 0 L326 107 L968 107 L1050 0 C965 -35 887 -93 887 -185 L887 -185 Z M647 529 L845 269 L449 269 L647 529 Z " />
<glyph glyph-name="aogonek" unicode="&#x105;" horiz-adv-x="1107" d="M725 -185 C725 -251 788 -295 880 -295 C930 -295 983 -292 1040 -272 L1040 -187 C1004 -202 987 -205 959 -205 C911 -205 878 -184 878 -142 C878 -79 928 -36 984 0 L1104 0 L646 560 L461 560 L3 0 L219 0 L291 91 L815 91 L888 0 C803 -35 725 -93 725 -185 L725 -185 Z M553 416 L708 223 L398 223 L553 416 Z " />
<glyph glyph-name="Cacute" unicode="&#x106;" horiz-adv-x="1184" d="M279 350 C279 445 321 520 509 520 L1112 520 L1112 700 L508 700 C191 700 67 543 67 350 C67 157 191 0 508 0 L1112 0 L1112 180 L509 180 C321 180 279 255 279 350 L279 350 Z M532 775 L660 775 L843 946 L627 946 L532 775 Z " />
<glyph glyph-name="cacute" unicode="&#x107;" horiz-adv-x="1014" d="M246 280 C246 352 272 409 427 409 L950 409 L950 560 L427 560 C157 560 60 434 60 280 C60 126 157 0 427 0 L950 0 L950 151 L427 151 C272 151 246 208 246 280 L246 280 Z M437 635 L565 635 L748 806 L532 806 L437 635 Z " />
<glyph glyph-name="Ccircumflex" unicode="&#x108;" horiz-adv-x="1184" d="M279 350 C279 445 321 520 509 520 L1112 520 L1112 700 L508 700 C191 700 67 543 67 350 C67 157 191 0 508 0 L1112 0 L1112 180 L509 180 C321 180 279 255 279 350 L279 350 Z M754 946 L529 946 L421 775 L549 775 L642 853 L734 775 L862 775 L754 946 Z " />
<glyph glyph-name="ccircumflex" unicode="&#x109;" horiz-adv-x="1014" d="M246 280 C246 352 272 409 427 409 L950 409 L950 560 L427 560 C157 560 60 434 60 280 C60 126 157 0 427 0 L950 0 L950 151 L427 151 C272 151 246 208 246 280 L246 280 Z M659 806 L434 806 L326 635 L454 635 L547 713 L639 635 L767 635 L659 806 Z " />
<glyph glyph-name="Cdotaccent" unicode="&#x10a;" horiz-adv-x="1184" d="M279 350 C279 445 321 520 509 520 L1112 520 L1112 700 L508 700 C191 700 67 543 67 350 C67 157 191 0 508 0 L1112 0 L1112 180 L509 180 C321 180 279 255 279 350 L279 350 Z M555 773 L729 773 L729 945 L555 945 L555 773 Z " />
<glyph glyph-name="cdotaccent" unicode="&#x10b;" horiz-adv-x="1014" d="M246 280 C246 352 272 409 427 409 L950 409 L950 560 L427 560 C157 560 60 434 60 280 C60 126 157 0 427 0 L950 0 L950 151 L427 151 C272 151 246 208 246 280 L246 280 Z M460 633 L634 633 L634 805 L460 805 L460 633 Z " />
<glyph glyph-name="Ccaron" unicode="&#x10c;" horiz-adv-x="1184" d="M279 350 C279 445 321 520 509 520 L1112 520 L1112 700 L508 700 C191 700 67 543 67 350 C67 157 191 0 508 0 L1112 0 L1112 180 L509 180 C321 180 279 255 279 350 L279 350 Z M862 946 L734 946 L642 868 L549 946 L421 946 L529 775 L754 775 L862 946 Z " />
<glyph glyph-name="ccaron" unicode="&#x10d;" horiz-adv-x="1014" d="M246 280 C246 352 272 409 427 409 L950 409 L950 560 L427 560 C157 560 60 434 60 280 C60 126 157 0 427 0 L950 0 L950 151 L427 151 C272 151 246 208 246 280 L246 280 Z M767 806 L639 806 L547 728 L454 806 L326 806 L434 635 L659 635 L767 806 Z " />
<glyph glyph-name="Dcaron" unicode="&#x10e;" horiz-adv-x="1255" d="M114 0 L747 0 C1064 0 1188 157 1188 350 C1188 543 1064 700 747 700 L114 700 L114 0 Z M746 520 C934 520 976 445 976 350 C976 255 934 180 746 180 L312 180 L312 520 L746 520 Z M832 946 L704 946 L612 868 L519 946 L391 946 L499 775 L724 775 L832 946 Z " />
<glyph glyph-name="dcaron" unicode="&#x10f;" horiz-adv-x="1079" d="M104 0 L652 0 C921 0 1019 126 1019 280 C1019 434 921 560 652 560 L104 560 L104 0 Z M651 409 C807 409 833 352 833 280 C833 208 807 151 651 151 L280 151 L280 409 L651 409 Z M750 806 L622 806 L530 728 L437 806 L309 806 L417 635 L642 635 L750 806 Z " />
<glyph glyph-name="Dcroat" unicode="&#x110;" horiz-adv-x="1255" d="M-16 270 L114 270 L114 0 L747 0 C1064 0 1188 157 1188 350 C1188 543 1064 700 747 700 L114 700 L114 430 L-16 430 L-16 270 Z M746 520 C934 520 976 445 976 350 C976 255 934 180 746 180 L312 180 L312 270 L648 270 L648 430 L312 430 L312 520 L746 520 Z " />
<glyph glyph-name="dcroat" unicode="&#x111;" horiz-adv-x="1079" d="M-16 215 L104 215 L104 0 L652 0 C921 0 1019 126 1019 280 C1019 434 921 560 652 560 L104 560 L104 345 L-16 345 L-16 215 Z M651 409 C807 409 833 352 833 280 C833 208 807 151 651 151 L280 151 L280 215 L572 215 L572 345 L280 345 L280 409 L651 409 Z " />
<glyph glyph-name="Emacron" unicode="&#x112;" horiz-adv-x="1199" d="M114 0 L1127 0 L1127 180 L312 180 L312 270 L1025 270 L1025 430 L312 430 L312 520 L1127 520 L1127 700 L114 700 L114 0 Z M385 798 L834 798 L834 922 L385 922 L385 798 Z " />
<glyph glyph-name="emacron" unicode="&#x113;" horiz-adv-x="1032" d="M104 0 L967 0 L967 151 L280 151 L280 215 L879 215 L879 345 L280 345 L280 409 L967 409 L967 560 L104 560 L104 0 Z M303 658 L752 658 L752 782 L303 782 L303 658 Z " />
<glyph glyph-name="Ebreve" unicode="&#x114;" horiz-adv-x="1199" d="M114 0 L1127 0 L1127 180 L312 180 L312 270 L1025 270 L1025 430 L312 430 L312 520 L1127 520 L1127 700 L114 700 L114 0 Z M609 892 C549 892 521 915 519 949 L411 949 C415 865 451 771 609 771 C766 771 803 865 807 949 L699 949 C695 915 668 892 609 892 L609 892 Z " />
<glyph glyph-name="ebreve" unicode="&#x115;" horiz-adv-x="1032" d="M104 0 L967 0 L967 151 L280 151 L280 215 L879 215 L879 345 L280 345 L280 409 L967 409 L967 560 L104 560 L104 0 Z M528 752 C468 752 440 775 438 809 L330 809 C334 725 370 631 528 631 C685 631 722 725 726 809 L618 809 C614 775 587 752 528 752 L528 752 Z " />
<glyph glyph-name="Edotaccent" unicode="&#x116;" horiz-adv-x="1199" d="M114 0 L1127 0 L1127 180 L312 180 L312 270 L1025 270 L1025 430 L312 430 L312 520 L1127 520 L1127 700 L114 700 L114 0 Z M522 773 L696 773 L696 945 L522 945 L522 773 Z " />
<glyph glyph-name="edotaccent" unicode="&#x117;" horiz-adv-x="1032" d="M104 0 L967 0 L967 151 L280 151 L280 215 L879 215 L879 345 L280 345 L280 409 L967 409 L967 560 L104 560 L104 0 Z M441 633 L615 633 L615 805 L441 805 L441 633 Z " />
<glyph glyph-name="Eogonek" unicode="&#x118;" horiz-adv-x="1199" d="M114 0 L975 0 C890 -35 811 -93 811 -185 C811 -251 875 -295 967 -295 C1017 -295 1070 -292 1127 -272 L1127 -187 C1091 -202 1074 -205 1046 -205 C998 -205 965 -184 965 -142 C965 -79 1015 -36 1071 0 L1127 0 L1127 180 L312 180 L312 270 L1025 270 L1025 430 L312 430 L312 520 L1127 520 L1127 700 L114 700 L114 0 Z " />
<glyph glyph-name="eogonek" unicode="&#x119;" horiz-adv-x="1032" d="M104 0 L814 0 C729 -35 651 -93 651 -185 C651 -251 715 -295 807 -295 C857 -295 909 -292 967 -272 L967 -187 C931 -202 913 -205 885 -205 C837 -205 804 -184 804 -142 C804 -79 854 -36 911 0 L967 0 L967 151 L280 151 L280 215 L879 215 L879 345 L280 345 L280 409 L967 409 L967 560 L104 560 L104 0 Z " />
<glyph glyph-name="Ecaron" unicode="&#x11a;" horiz-adv-x="1199" d="M114 0 L1127 0 L1127 180 L312 180 L312 270 L1025 270 L1025 430 L312 430 L312 520 L1127 520 L1127 700 L114 700 L114 0 Z M829 946 L701 946 L609 868 L516 946 L388 946 L496 775 L721 775 L829 946 Z " />
<glyph glyph-name="ecaron" unicode="&#x11b;" horiz-adv-x="1032" d="M104 0 L967 0 L967 151 L280 151 L280 215 L879 215 L879 345 L280 345 L280 409 L967 409 L967 560 L104 560 L104 0 Z M748 806 L620 806 L528 728 L435 806 L307 806 L415 635 L640 635 L748 806 Z " />
<glyph glyph-name="Gcircumflex" unicode="&#x11c;" horiz-adv-x="1256" d="M656 270 L973 270 L973 180 L509 180 C321 180 279 255 279 350 C279 445 321 520 509 520 L1112 520 L1112 700 L508 700 C191 700 67 543 67 350 C67 157 191 0 508 0 L1167 0 L1167 430 L656 430 L656 270 Z M764 946 L539 946 L431 775 L559 775 L652 853 L744 775 L872 775 L764 946 Z " />
<glyph glyph-name="gcircumflex" unicode="&#x11d;" horiz-adv-x="1078" d="M560 215 L824 215 L824 151 L427 151 C272 151 246 208 246 280 C246 352 272 409 427 409 L950 409 L950 560 L427 560 C157 560 60 434 60 280 C60 126 157 0 427 0 L996 0 L996 345 L560 345 L560 215 Z M663 806 L438 806 L330 635 L458 635 L551 713 L643 635 L771 635 L663 806 Z " />
<glyph glyph-name="Gbreve" unicode="&#x11e;" horiz-adv-x="1256" d="M656 270 L973 270 L973 180 L509 180 C321 180 279 255 279 350 C279 445 321 520 509 520 L1112 520 L1112 700 L508 700 C191 700 67 543 67 350 C67 157 191 0 508 0 L1167 0 L1167 430 L656 430 L656 270 Z M652 892 C592 892 564 915 562 949 L454 949 C458 865 494 771 652 771 C809 771 846 865 850 949 L742 949 C738 915 711 892 652 892 L652 892 Z " />
<glyph glyph-name="gbreve" unicode="&#x11f;" horiz-adv-x="1078" d="M560 215 L824 215 L824 151 L427 151 C272 151 246 208 246 280 C246 352 272 409 427 409 L950 409 L950 560 L427 560 C157 560 60 434 60 280 C60 126 157 0 427 0 L996 0 L996 345 L560 345 L560 215 Z M551 752 C491 752 463 775 461 809 L353 809 C357 725 393 631 551 631 C708 631 745 725 749 809 L641 809 C637 775 610 752 551 752 L551 752 Z " />
<glyph glyph-name="Gdotaccent" unicode="&#x120;" horiz-adv-x="1256" d="M656 270 L973 270 L973 180 L509 180 C321 180 279 255 279 350 C279 445 321 520 509 520 L1112 520 L1112 700 L508 700 C191 700 67 543 67 350 C67 157 191 0 508 0 L1167 0 L1167 430 L656 430 L656 270 Z M565 773 L739 773 L739 945 L565 945 L565 773 Z " />
<glyph glyph-name="gdotaccent" unicode="&#x121;" horiz-adv-x="1078" d="M560 215 L824 215 L824 151 L427 151 C272 151 246 208 246 280 C246 352 272 409 427 409 L950 409 L950 560 L427 560 C157 560 60 434 60 280 C60 126 157 0 427 0 L996 0 L996 345 L560 345 L560 215 Z M464 633 L638 633 L638 805 L464 805 L464 633 Z " />
<glyph glyph-name="uni0122" unicode="&#x122;" horiz-adv-x="1256" d="M656 270 L973 270 L973 180 L509 180 C321 180 279 255 279 350 C279 445 321 520 509 520 L1112 520 L1112 700 L508 700 C191 700 67 543 67 350 C67 157 191 0 508 0 L1167 0 L1167 430 L656 430 L656 270 Z M576 -248 L637 -248 L553 -392 L640 -392 L751 -232 L751 -76 L576 -76 L576 -248 Z " />
<glyph glyph-name="uni0123" unicode="&#x123;" horiz-adv-x="1078" d="M560 215 L824 215 L824 151 L427 151 C272 151 246 208 246 280 C246 352 272 409 427 409 L950 409 L950 560 L427 560 C157 560 60 434 60 280 C60 126 157 0 427 0 L996 0 L996 345 L560 345 L560 215 Z M477 -248 L538 -248 L454 -392 L541 -392 L652 -232 L652 -76 L477 -76 L477 -248 Z " />
<glyph glyph-name="Hcircumflex" unicode="&#x124;" horiz-adv-x="1305" d="M993 0 L1191 0 L1191 700 L993 700 L993 440 L312 440 L312 700 L114 700 L114 0 L312 0 L312 260 L993 260 L993 0 Z M764 946 L539 946 L431 775 L559 775 L652 853 L744 775 L872 775 L764 946 Z " />
<glyph glyph-name="hcircumflex" unicode="&#x125;" horiz-adv-x="1125" d="M845 0 L1021 0 L1021 560 L845 560 L845 356 L280 356 L280 560 L104 560 L104 0 L280 0 L280 204 L845 204 L845 0 Z M674 806 L449 806 L341 635 L469 635 L562 713 L654 635 L782 635 L674 806 Z " />
<glyph glyph-name="Hbar" unicode="&#x126;" horiz-adv-x="1305" d="M14 537 L114 537 L114 0 L312 0 L312 260 L993 260 L993 0 L1191 0 L1191 537 L1291 537 L1291 602 L1191 602 L1191 700 L993 700 L993 602 L312 602 L312 700 L114 700 L114 602 L14 602 L14 537 Z M312 440 L312 537 L993 537 L993 440 L312 440 Z " />
<glyph glyph-name="hbar" unicode="&#x127;" horiz-adv-x="1125" d="M14 426 L104 426 L104 0 L280 0 L280 204 L845 204 L845 0 L1021 0 L1021 426 L1111 426 L1111 490 L1021 490 L1021 560 L845 560 L845 490 L280 490 L280 560 L104 560 L104 490 L14 490 L14 426 Z M280 356 L280 426 L845 426 L845 356 L280 356 Z " />
<glyph glyph-name="Itilde" unicode="&#x128;" horiz-adv-x="426" d="M114 0 L312 0 L312 700 L114 700 L114 0 Z M310 950 C312 922 304 909 282 909 C252 909 203 944 143 944 C69 944 23 897 20 770 L116 770 C114 797 122 811 144 811 C173 811 222 775 283 775 C357 775 406 820 406 950 L310 950 Z " />
<glyph glyph-name="itilde" unicode="&#x129;" horiz-adv-x="384" d="M104 0 L280 0 L280 560 L104 560 L104 0 Z M289 810 C291 782 283 769 261 769 C231 769 182 804 122 804 C48 804 2 757 -1 630 L95 630 C93 657 101 671 123 671 C152 671 201 635 262 635 C336 635 385 680 385 810 L289 810 Z " />
<glyph glyph-name="Imacron" unicode="&#x12a;" horiz-adv-x="426" d="M114 0 L312 0 L312 700 L114 700 L114 0 Z M-12 798 L437 798 L437 922 L-12 922 L-12 798 Z " />
<glyph glyph-name="imacron" unicode="&#x12b;" horiz-adv-x="384" d="M104 0 L280 0 L280 560 L104 560 L104 0 Z M-32 658 L417 658 L417 782 L-32 782 L-32 658 Z " />
<glyph glyph-name="Ibreve" unicode="&#x12c;" horiz-adv-x="426" d="M114 0 L312 0 L312 700 L114 700 L114 0 Z M213 892 C153 892 125 915 123 949 L15 949 C19 865 55 771 213 771 C370 771 407 865 411 949 L303 949 C299 915 272 892 213 892 L213 892 Z " />
<glyph glyph-name="ibreve" unicode="&#x12d;" horiz-adv-x="384" d="M104 0 L280 0 L280 560 L104 560 L104 0 Z M192 752 C132 752 104 775 102 809 L-6 809 C-2 725 34 631 192 631 C349 631 386 725 390 809 L282 809 C278 775 251 752 192 752 L192 752 Z " />
<glyph glyph-name="Iogonek" unicode="&#x12e;" horiz-adv-x="426" d="M-1 -170 C-1 -260 92 -295 154 -295 C204 -295 257 -292 314 -272 L314 -187 C278 -202 261 -205 233 -205 C172 -205 139 -174 139 -124 C139 -72 161 -29 193 0 L312 0 L312 700 L114 700 L114 0 C54 -31 -1 -87 -1 -170 L-1 -170 Z " />
<glyph glyph-name="iogonek" unicode="&#x12f;" horiz-adv-x="384" d="M104 0 C44 -31 -11 -87 -11 -170 C-11 -260 82 -295 144 -295 C194 -295 247 -292 304 -272 L304 -187 C268 -202 251 -205 223 -205 C162 -205 129 -174 129 -124 C129 -72 151 -29 183 0 L280 0 L280 560 L104 560 L104 0 Z " />
<glyph glyph-name="Idotaccent" unicode="&#x130;" horiz-adv-x="426" d="M114 0 L312 0 L312 700 L114 700 L114 0 Z M126 773 L300 773 L300 945 L126 945 L126 773 Z " />
<glyph glyph-name="dotlessi" unicode="&#x131;" horiz-adv-x="384" d="M104 0 L280 0 L280 560 L104 560 L104 0 Z " />
<glyph glyph-name="IJ" unicode="&#x132;" horiz-adv-x="1271" d="M437 -5 L756 -5 C1073 -5 1177 132 1177 325 L1177 700 L979 700 L979 325 C979 236 938 175 755 175 L438 175 C316 175 292 221 292 275 L292 342 L94 342 L94 275 C94 121 183 -5 437 -5 L437 -5 Z M94 445 L292 445 L292 700 L94 700 L94 445 Z " />
<glyph glyph-name="ij" unicode="&#x133;" horiz-adv-x="1091" d="M84 356 L260 356 L260 560 L84 560 L84 356 Z M370 -4 L657 -4 C926 -4 1007 106 1007 260 L1007 560 L831 560 L831 260 C831 193 805 147 656 147 L371 147 C271 147 260 181 260 220 L260 276 L84 276 L84 220 C84 97 154 -4 370 -4 L370 -4 Z " />
<glyph glyph-name="Jcircumflex" unicode="&#x134;" horiz-adv-x="1211" d="M377 -5 L696 -5 C1013 -5 1117 132 1117 325 L1117 700 L919 700 L919 325 C919 236 878 175 695 175 L378 175 C256 175 232 221 232 275 L232 342 L34 342 L34 275 C34 121 123 -5 377 -5 L377 -5 Z M1101 946 L876 946 L768 775 L896 775 L989 853 L1081 775 L1209 775 L1101 946 Z " />
<glyph glyph-name="jcircumflex" unicode="&#x135;" horiz-adv-x="1041" d="M320 -4 L607 -4 C876 -4 957 106 957 260 L957 560 L781 560 L781 260 C781 193 755 147 606 147 L321 147 C221 147 210 181 210 220 L210 276 L34 276 L34 220 C34 97 104 -4 320 -4 L320 -4 Z M951 806 L726 806 L618 635 L746 635 L839 713 L931 635 L1059 635 L951 806 Z " />
<glyph glyph-name="uni0136" unicode="&#x136;" horiz-adv-x="1303" d="M1215 700 L874 700 L312 336 L312 700 L114 700 L114 0 L312 0 L312 142 L556 293 L976 0 L1306 0 L726 397 L1215 700 Z M553 -248 L614 -248 L530 -392 L617 -392 L728 -232 L728 -76 L553 -76 L553 -248 Z " />
<glyph glyph-name="uni0137" unicode="&#x137;" horiz-adv-x="1122" d="M1049 560 L735 560 L280 282 L280 560 L104 560 L104 0 L280 0 L280 112 L483 230 L827 0 L1120 0 L632 317 L1049 560 Z M467 -248 L528 -248 L444 -392 L531 -392 L642 -232 L642 -76 L467 -76 L467 -248 Z " />
<glyph glyph-name="kgreenlandic" unicode="&#x138;" horiz-adv-x="1284" d="M1233 416 L1172 416 L1256 560 L1169 560 L1058 400 L1058 244 L1233 244 L1233 416 Z M1049 560 L735 560 L280 282 L280 560 L104 560 L104 0 L280 0 L280 112 L483 230 L827 0 L1120 0 L632 317 L1049 560 Z " />
<glyph glyph-name="Lacute" unicode="&#x139;" horiz-adv-x="1129" d="M312 700 L114 700 L114 0 L1107 0 L1107 180 L312 180 L312 700 Z M103 775 L231 775 L414 946 L198 946 L103 775 Z " />
<glyph glyph-name="lacute" unicode="&#x13a;" horiz-adv-x="985" d="M280 560 L104 560 L104 0 L950 0 L950 151 L280 151 L280 560 Z M83 635 L211 635 L394 806 L178 806 L83 635 Z " />
<glyph glyph-name="uni013B" unicode="&#x13b;" horiz-adv-x="1129" d="M312 700 L114 700 L114 0 L1107 0 L1107 180 L312 180 L312 700 Z M530 -248 L591 -248 L507 -392 L594 -392 L705 -232 L705 -76 L530 -76 L530 -248 Z " />
<glyph glyph-name="uni013C" unicode="&#x13c;" horiz-adv-x="985" d="M280 560 L104 560 L104 0 L950 0 L950 151 L280 151 L280 560 Z M454 -248 L515 -248 L431 -392 L518 -392 L629 -232 L629 -76 L454 -76 L454 -248 Z " />
<glyph glyph-name="Lcaron" unicode="&#x13d;" horiz-adv-x="1129" d="M312 700 L114 700 L114 0 L1107 0 L1107 180 L312 180 L312 700 Z M812 502 L894 502 L812 327 L898 327 L1008 518 L1008 700 L812 700 L812 502 Z " />
<glyph glyph-name="lcaron" unicode="&#x13e;" horiz-adv-x="985" d="M280 560 L104 560 L104 0 L950 0 L950 151 L280 151 L280 560 Z M707 388 L768 388 L684 244 L771 244 L882 404 L882 560 L707 560 L707 388 Z " />
<glyph glyph-name="Ldot" unicode="&#x13f;" horiz-adv-x="1129" d="M312 700 L114 700 L114 0 L1107 0 L1107 180 L312 180 L312 700 Z M736 354 L910 354 L910 526 L736 526 L736 354 Z " />
<glyph glyph-name="ldot" unicode="&#x140;" horiz-adv-x="985" d="M280 560 L104 560 L104 0 L950 0 L950 151 L280 151 L280 560 Z M636 268 L810 268 L810 440 L636 440 L636 268 Z " />
<glyph glyph-name="Lslash" unicode="&#x141;" horiz-adv-x="1129" d="M602 618 L312 469 L312 700 L114 700 L114 373 L15 328 L15 128 L114 181 L114 0 L1107 0 L1107 180 L312 180 L312 282 L602 417 L602 618 Z " />
<glyph glyph-name="lslash" unicode="&#x142;" horiz-adv-x="985" d="M521 500 L280 384 L280 560 L104 560 L104 303 L20 267 L20 99 L104 141 L104 0 L950 0 L950 151 L280 151 L280 227 L521 330 L521 500 Z " />
<glyph glyph-name="Nacute" unicode="&#x143;" horiz-adv-x="1309" d="M1008 0 L1195 0 L1195 700 L997 700 L997 232 L301 700 L114 700 L114 0 L312 0 L312 468 L1008 0 Z M545 775 L673 775 L856 946 L640 946 L545 775 Z " />
<glyph glyph-name="nacute" unicode="&#x144;" horiz-adv-x="1129" d="M1025 0 L1025 560 L851 560 L851 196 L270 560 L104 560 L104 0 L280 0 L280 364 L859 0 L1025 0 Z M455 635 L583 635 L766 806 L550 806 L455 635 Z " />
<glyph glyph-name="uni0145" unicode="&#x145;" horiz-adv-x="1309" d="M1008 0 L1195 0 L1195 700 L997 700 L997 232 L301 700 L114 700 L114 0 L312 0 L312 468 L1008 0 Z M566 -248 L627 -248 L543 -392 L630 -392 L741 -232 L741 -76 L566 -76 L566 -248 Z " />
<glyph glyph-name="uni0146" unicode="&#x146;" horiz-adv-x="1129" d="M1025 0 L1025 560 L851 560 L851 196 L270 560 L104 560 L104 0 L280 0 L280 364 L859 0 L1025 0 Z M476 -248 L537 -248 L453 -392 L540 -392 L651 -232 L651 -76 L476 -76 L476 -248 Z " />
<glyph glyph-name="Ncaron" unicode="&#x147;" horiz-adv-x="1309" d="M1008 0 L1195 0 L1195 700 L997 700 L997 232 L301 700 L114 700 L114 0 L312 0 L312 468 L1008 0 Z M874 946 L746 946 L654 868 L561 946 L433 946 L541 775 L766 775 L874 946 Z " />
<glyph glyph-name="ncaron" unicode="&#x148;" horiz-adv-x="1129" d="M1025 0 L1025 560 L851 560 L851 196 L270 560 L104 560 L104 0 L280 0 L280 364 L859 0 L1025 0 Z M784 806 L656 806 L564 728 L471 806 L343 806 L451 635 L676 635 L784 806 Z " />
<glyph glyph-name="napostrophe" unicode="&#x149;" horiz-adv-x="1416" d="M1312 0 L1312 560 L1138 560 L1138 196 L557 560 L391 560 L391 0 L567 0 L567 364 L1146 0 L1312 0 Z M56 528 L117 528 L33 384 L120 384 L231 544 L231 700 L56 700 L56 528 Z " />
<glyph glyph-name="Eng" unicode="&#x14a;" horiz-adv-x="1309" d="M739 -230 L917 -230 C1119 -230 1195 -134 1195 -14 L1195 700 L999 700 L999 233 L301 700 L114 700 L114 0 L312 0 L312 468 L999 7 L999 -12 C999 -30 980 -50 913 -50 L739 -50 L739 -230 Z " />
<glyph glyph-name="eng" unicode="&#x14b;" horiz-adv-x="1129" d="M635 -184 L792 -184 C964 -184 1025 -106 1025 -9 L1025 560 L851 560 L851 197 L270 560 L104 560 L104 0 L280 0 L280 364 L851 6 L851 -7 C851 -18 843 -33 788 -33 L635 -33 L635 -184 Z " />
<glyph glyph-name="Omacron" unicode="&#x14c;" horiz-adv-x="1348" d="M827 -10 C1153 -10 1281 151 1281 350 C1281 549 1153 710 827 710 L521 710 C195 710 67 549 67 350 C67 151 195 -10 521 -10 L827 -10 Z M522 170 C325 170 278 249 278 350 C278 451 325 530 523 530 L826 530 C1023 530 1069 451 1069 350 C1069 249 1023 170 826 170 L522 170 Z M449 798 L898 798 L898 922 L449 922 L449 798 Z " />
<glyph glyph-name="omacron" unicode="&#x14d;" horiz-adv-x="1153" d="M716 -8 C993 -8 1093 121 1093 280 C1093 439 993 568 716 568 L438 568 C161 568 60 439 60 280 C60 121 161 -8 438 -8 L716 -8 Z M439 143 C275 143 245 203 245 280 C245 357 275 417 439 417 L715 417 C876 417 908 357 908 280 C908 203 876 143 715 143 L439 143 Z M352 658 L801 658 L801 782 L352 782 L352 658 Z " />
<glyph glyph-name="Obreve" unicode="&#x14e;" horiz-adv-x="1348" d="M827 -10 C1153 -10 1281 151 1281 350 C1281 549 1153 710 827 710 L521 710 C195 710 67 549 67 350 C67 151 195 -10 521 -10 L827 -10 Z M522 170 C325 170 278 249 278 350 C278 451 325 530 523 530 L826 530 C1023 530 1069 451 1069 350 C1069 249 1023 170 826 170 L522 170 Z M674 892 C614 892 586 915 584 949 L476 949 C480 865 516 771 674 771 C831 771 868 865 872 949 L764 949 C760 915 733 892 674 892 L674 892 Z " />
<glyph glyph-name="obreve" unicode="&#x14f;" horiz-adv-x="1153" d="M716 -8 C993 -8 1093 121 1093 280 C1093 439 993 568 716 568 L438 568 C161 568 60 439 60 280 C60 121 161 -8 438 -8 L716 -8 Z M439 143 C275 143 245 203 245 280 C245 357 275 417 439 417 L715 417 C876 417 908 357 908 280 C908 203 876 143 715 143 L439 143 Z M576 752 C516 752 488 775 486 809 L378 809 C382 725 418 631 576 631 C733 631 770 725 774 809 L666 809 C662 775 635 752 576 752 L576 752 Z " />
<glyph glyph-name="Ohungarumlaut" unicode="&#x150;" horiz-adv-x="1348" d="M827 -10 C1153 -10 1281 151 1281 350 C1281 549 1153 710 827 710 L521 710 C195 710 67 549 67 350 C67 151 195 -10 521 -10 L827 -10 Z M522 170 C325 170 278 249 278 350 C278 451 325 530 523 530 L826 530 C1023 530 1069 451 1069 350 C1069 249 1023 170 826 170 L522 170 Z M412 775 L540 775 L723 946 L507 946 L412 775 Z M717 775 L845 775 L1028 946 L811 946 L717 775 Z " />
<glyph glyph-name="ohungarumlaut" unicode="&#x151;" horiz-adv-x="1153" d="M716 -8 C993 -8 1093 121 1093 280 C1093 439 993 568 716 568 L438 568 C161 568 60 439 60 280 C60 121 161 -8 438 -8 L716 -8 Z M439 143 C275 143 245 203 245 280 C245 357 275 417 439 417 L715 417 C876 417 908 357 908 280 C908 203 876 143 715 143 L439 143 Z M314 635 L442 635 L625 806 L409 806 L314 635 Z M619 635 L747 635 L930 806 L713 806 L619 635 Z " />
<glyph glyph-name="OE" unicode="&#x152;" horiz-adv-x="1754" d="M67 350 C67 157 191 0 508 0 L1682 0 L1682 180 L972 180 L972 270 L1580 270 L1580 430 L972 430 L972 520 L1682 520 L1682 700 L508 700 C191 700 67 543 67 350 L67 350 Z M279 350 C279 445 321 520 509 520 L774 520 L774 180 L509 180 C321 180 279 255 279 350 L279 350 Z " />
<glyph glyph-name="oe" unicode="&#x153;" horiz-adv-x="1500" d="M60 280 C60 126 157 0 427 0 L1435 0 L1435 151 L835 151 L835 215 L1347 215 L1347 345 L835 345 L835 409 L1435 409 L1435 560 L427 560 C157 560 60 434 60 280 L60 280 Z M246 280 C246 352 272 409 427 409 L662 409 L662 151 L427 151 C272 151 246 208 246 280 L246 280 Z " />
<glyph glyph-name="Racute" unicode="&#x154;" horiz-adv-x="1281" d="M114 0 L312 0 L312 223 L644 223 L960 0 L1284 0 L939 230 C1098 254 1165 349 1165 464 C1165 594 1077 700 860 700 L114 700 L114 0 Z M851 520 C941 520 957 491 957 458 C957 426 941 397 851 397 L312 397 L312 520 L851 520 Z M493 775 L621 775 L804 946 L588 946 L493 775 Z " />
<glyph glyph-name="racute" unicode="&#x155;" horiz-adv-x="1106" d="M104 0 L280 0 L280 175 L561 175 L822 0 L1100 0 L806 180 C944 198 998 274 998 369 C998 474 928 560 744 560 L104 560 L104 0 Z M736 409 C810 409 815 387 815 365 C815 341 810 321 736 321 L280 321 L280 409 L736 409 Z M411 635 L539 635 L722 806 L506 806 L411 635 Z " />
<glyph glyph-name="uni0156" unicode="&#x156;" horiz-adv-x="1281" d="M114 0 L312 0 L312 223 L644 223 L960 0 L1284 0 L939 230 C1098 254 1165 349 1165 464 C1165 594 1077 700 860 700 L114 700 L114 0 Z M851 520 C941 520 957 491 957 458 C957 426 941 397 851 397 L312 397 L312 520 L851 520 Z M541 -248 L602 -248 L518 -392 L605 -392 L716 -232 L716 -76 L541 -76 L541 -248 Z " />
<glyph glyph-name="uni0157" unicode="&#x157;" horiz-adv-x="1106" d="M104 0 L280 0 L280 175 L561 175 L822 0 L1100 0 L806 180 C944 198 998 274 998 369 C998 474 928 560 744 560 L104 560 L104 0 Z M736 409 C810 409 815 387 815 365 C815 341 810 321 736 321 L280 321 L280 409 L736 409 Z M457 -248 L518 -248 L434 -392 L521 -392 L632 -232 L632 -76 L457 -76 L457 -248 Z " />
<glyph glyph-name="Rcaron" unicode="&#x158;" horiz-adv-x="1281" d="M114 0 L312 0 L312 223 L644 223 L960 0 L1284 0 L939 230 C1098 254 1165 349 1165 464 C1165 594 1077 700 860 700 L114 700 L114 0 Z M851 520 C941 520 957 491 957 458 C957 426 941 397 851 397 L312 397 L312 520 L851 520 Z M823 946 L695 946 L603 868 L510 946 L382 946 L490 775 L715 775 L823 946 Z " />
<glyph glyph-name="rcaron" unicode="&#x159;" horiz-adv-x="1106" d="M104 0 L280 0 L280 175 L561 175 L822 0 L1100 0 L806 180 C944 198 998 274 998 369 C998 474 928 560 744 560 L104 560 L104 0 Z M736 409 C810 409 815 387 815 365 C815 341 810 321 736 321 L280 321 L280 409 L736 409 Z M741 806 L613 806 L521 728 L428 806 L300 806 L408 635 L633 635 L741 806 Z " />
<glyph glyph-name="Sacute" unicode="&#x15a;" horiz-adv-x="1207" d="M104 0 L865 0 C1065 0 1143 95 1143 215 C1143 339 1065 430 865 430 L346 430 C275 430 270 452 270 475 C270 497 275 520 346 520 L1103 520 L1103 700 L342 700 C142 700 64 605 64 485 C64 361 142 270 342 270 L861 270 C932 270 937 248 937 225 C937 203 932 180 861 180 L104 180 L104 0 Z M493 775 L621 775 L804 946 L588 946 L493 775 Z " />
<glyph glyph-name="sacute" unicode="&#x15b;" horiz-adv-x="1031" d="M90 0 L742 0 C914 0 975 76 975 174 C975 273 914 345 742 345 L297 345 C243 345 239 361 239 378 C239 393 242 409 297 409 L941 409 L941 560 L289 560 C117 560 56 484 56 386 C56 287 117 215 289 215 L734 215 C788 215 792 199 792 182 C792 167 789 151 734 151 L90 151 L90 0 Z M405 635 L533 635 L716 806 L500 806 L405 635 Z " />
<glyph glyph-name="Scircumflex" unicode="&#x15c;" horiz-adv-x="1207" d="M104 0 L865 0 C1065 0 1143 95 1143 215 C1143 339 1065 430 865 430 L346 430 C275 430 270 452 270 475 C270 497 275 520 346 520 L1103 520 L1103 700 L342 700 C142 700 64 605 64 485 C64 361 142 270 342 270 L861 270 C932 270 937 248 937 225 C937 203 932 180 861 180 L104 180 L104 0 Z M715 946 L490 946 L382 775 L510 775 L603 853 L695 775 L823 775 L715 946 Z " />
<glyph glyph-name="scircumflex" unicode="&#x15d;" horiz-adv-x="1031" d="M90 0 L742 0 C914 0 975 76 975 174 C975 273 914 345 742 345 L297 345 C243 345 239 361 239 378 C239 393 242 409 297 409 L941 409 L941 560 L289 560 C117 560 56 484 56 386 C56 287 117 215 289 215 L734 215 C788 215 792 199 792 182 C792 167 789 151 734 151 L90 151 L90 0 Z M627 806 L402 806 L294 635 L422 635 L515 713 L607 635 L735 635 L627 806 Z " />
<glyph glyph-name="Scedilla" unicode="&#x15e;" horiz-adv-x="1207" d="M104 0 L562 0 L524 -147 L570 -147 C616 -148 638 -152 638 -181 C638 -230 499 -221 456 -189 L456 -275 C532 -314 771 -338 771 -186 C771 -96 700 -71 611 -71 L629 0 L865 0 C1065 0 1143 95 1143 215 C1143 339 1065 430 865 430 L346 430 C275 430 270 452 270 475 C270 497 275 520 346 520 L1103 520 L1103 700 L342 700 C142 700 64 605 64 485 C64 361 142 270 342 270 L861 270 C932 270 937 248 937 225 C937 203 932 180 861 180 L104 180 L104 0 Z " />
<glyph glyph-name="scedilla" unicode="&#x15f;" horiz-adv-x="1031" d="M90 0 L474 0 L436 -147 L482 -147 C528 -148 550 -152 550 -181 C550 -230 411 -221 368 -189 L368 -275 C444 -314 683 -338 683 -186 C683 -96 612 -71 523 -71 L541 0 L742 0 C914 0 975 76 975 174 C975 273 914 345 742 345 L297 345 C243 345 239 361 239 378 C239 393 242 409 297 409 L941 409 L941 560 L289 560 C117 560 56 484 56 386 C56 287 117 215 289 215 L734 215 C788 215 792 199 792 182 C792 167 789 151 734 151 L90 151 L90 0 Z " />
<glyph glyph-name="Scaron" unicode="&#x160;" horiz-adv-x="1207" d="M104 0 L865 0 C1065 0 1143 95 1143 215 C1143 339 1065 430 865 430 L346 430 C275 430 270 452 270 475 C270 497 275 520 346 520 L1103 520 L1103 700 L342 700 C142 700 64 605 64 485 C64 361 142 270 342 270 L861 270 C932 270 937 248 937 225 C937 203 932 180 861 180 L104 180 L104 0 Z M823 946 L695 946 L603 868 L510 946 L382 946 L490 775 L715 775 L823 946 Z " />
<glyph glyph-name="scaron" unicode="&#x161;" horiz-adv-x="1031" d="M90 0 L742 0 C914 0 975 76 975 174 C975 273 914 345 742 345 L297 345 C243 345 239 361 239 378 C239 393 242 409 297 409 L941 409 L941 560 L289 560 C117 560 56 484 56 386 C56 287 117 215 289 215 L734 215 C788 215 792 199 792 182 C792 167 789 151 734 151 L90 151 L90 0 Z M735 806 L607 806 L515 728 L422 806 L294 806 L402 635 L627 635 L735 806 Z " />
<glyph glyph-name="uni0162" unicode="&#x162;" horiz-adv-x="1184" d="M22 520 L494 520 L494 0 L550 0 L512 -147 L558 -147 C604 -148 626 -152 626 -181 C626 -230 487 -221 444 -189 L444 -275 C520 -314 759 -338 759 -186 C759 -96 688 -71 599 -71 L617 0 L690 0 L690 520 L1162 520 L1162 700 L22 700 L22 520 Z " />
<glyph glyph-name="uni0163" unicode="&#x163;" horiz-adv-x="1039" d="M35 409 L432 409 L432 0 L478 0 L440 -147 L486 -147 C532 -148 554 -152 554 -181 C554 -230 415 -221 372 -189 L372 -275 C448 -314 687 -338 687 -186 C687 -96 616 -71 527 -71 L545 0 L608 0 L608 409 L1004 409 L1004 560 L35 560 L35 409 Z " />
<glyph glyph-name="Tcaron" unicode="&#x164;" horiz-adv-x="1184" d="M22 520 L494 520 L494 0 L690 0 L690 520 L1162 520 L1162 700 L22 700 L22 520 Z M812 946 L684 946 L592 868 L499 946 L371 946 L479 775 L704 775 L812 946 Z " />
<glyph glyph-name="tcaron" unicode="&#x165;" horiz-adv-x="1039" d="M35 409 L432 409 L432 0 L608 0 L608 409 L1004 409 L1004 560 L35 560 L35 409 Z M739 806 L611 806 L519 728 L426 806 L298 806 L406 635 L631 635 L739 806 Z " />
<glyph glyph-name="Tbar" unicode="&#x166;" horiz-adv-x="1184" d="M22 520 L494 520 L494 426 L260 426 L260 274 L494 274 L494 0 L690 0 L690 274 L924 274 L924 426 L690 426 L690 520 L1162 520 L1162 700 L22 700 L22 520 Z " />
<glyph glyph-name="tbar" unicode="&#x167;" horiz-adv-x="1039" d="M35 409 L432 409 L432 327 L225 327 L225 201 L432 201 L432 0 L608 0 L608 201 L813 201 L813 327 L608 327 L608 409 L1004 409 L1004 560 L35 560 L35 409 Z " />
<glyph glyph-name="Utilde" unicode="&#x168;" horiz-adv-x="1275" d="M292 323 L292 700 L94 700 L94 323 C94 130 198 -10 515 -10 L760 -10 C1077 -10 1181 130 1181 323 L1181 700 L983 700 L983 323 C983 234 942 170 759 170 L516 170 C333 170 292 234 292 323 L292 323 Z M734 950 C736 922 728 909 706 909 C676 909 627 944 567 944 C493 944 447 897 444 770 L540 770 C538 797 546 811 568 811 C597 811 646 775 707 775 C781 775 830 820 830 950 L734 950 Z " />
<glyph glyph-name="utilde" unicode="&#x169;" horiz-adv-x="1093" d="M257 258 L257 560 L84 560 L84 258 C84 104 164 -8 433 -8 L659 -8 C929 -8 1009 104 1009 258 L1009 560 L833 560 L833 258 C833 192 808 143 658 143 L434 143 C283 143 257 192 257 258 L257 258 Z M643 810 C645 782 637 769 615 769 C585 769 536 804 476 804 C402 804 356 757 353 630 L449 630 C447 657 455 671 477 671 C506 671 555 635 616 635 C690 635 739 680 739 810 L643 810 Z " />
<glyph glyph-name="Umacron" unicode="&#x16a;" horiz-adv-x="1275" d="M292 323 L292 700 L94 700 L94 323 C94 130 198 -10 515 -10 L760 -10 C1077 -10 1181 130 1181 323 L1181 700 L983 700 L983 323 C983 234 942 170 759 170 L516 170 C333 170 292 234 292 323 L292 323 Z M413 798 L862 798 L862 922 L413 922 L413 798 Z " />
<glyph glyph-name="umacron" unicode="&#x16b;" horiz-adv-x="1093" d="M257 258 L257 560 L84 560 L84 258 C84 104 164 -8 433 -8 L659 -8 C929 -8 1009 104 1009 258 L1009 560 L833 560 L833 258 C833 192 808 143 658 143 L434 143 C283 143 257 192 257 258 L257 258 Z M322 658 L771 658 L771 782 L322 782 L322 658 Z " />
<glyph glyph-name="Ubreve" unicode="&#x16c;" horiz-adv-x="1275" d="M292 323 L292 700 L94 700 L94 323 C94 130 198 -10 515 -10 L760 -10 C1077 -10 1181 130 1181 323 L1181 700 L983 700 L983 323 C983 234 942 170 759 170 L516 170 C333 170 292 234 292 323 L292 323 Z M637 892 C577 892 549 915 547 949 L439 949 C443 865 479 771 637 771 C794 771 831 865 835 949 L727 949 C723 915 696 892 637 892 L637 892 Z " />
<glyph glyph-name="ubreve" unicode="&#x16d;" horiz-adv-x="1093" d="M257 258 L257 560 L84 560 L84 258 C84 104 164 -8 433 -8 L659 -8 C929 -8 1009 104 1009 258 L1009 560 L833 560 L833 258 C833 192 808 143 658 143 L434 143 C283 143 257 192 257 258 L257 258 Z M546 752 C486 752 458 775 456 809 L348 809 C352 725 388 631 546 631 C703 631 740 725 744 809 L636 809 C632 775 605 752 546 752 L546 752 Z " />
<glyph glyph-name="Uring" unicode="&#x16e;" horiz-adv-x="1275" d="M292 323 L292 700 L94 700 L94 323 C94 130 198 -10 515 -10 L760 -10 C1077 -10 1181 130 1181 323 L1181 700 L983 700 L983 323 C983 234 942 170 759 170 L516 170 C333 170 292 234 292 323 L292 323 Z M605 861 C605 878 620 893 638 893 C654 893 669 878 669 861 C669 844 654 830 638 830 C620 830 605 844 605 861 L605 861 Z M499 861 C499 793 553 741 638 741 C721 741 775 793 775 861 C775 929 721 981 638 981 C553 981 499 929 499 861 L499 861 Z " />
<glyph glyph-name="uring" unicode="&#x16f;" horiz-adv-x="1093" d="M257 258 L257 560 L84 560 L84 258 C84 104 164 -8 433 -8 L659 -8 C929 -8 1009 104 1009 258 L1009 560 L833 560 L833 258 C833 192 808 143 658 143 L434 143 C283 143 257 192 257 258 L257 258 Z M514 721 C514 738 529 753 547 753 C563 753 578 738 578 721 C578 704 563 690 547 690 C529 690 514 704 514 721 L514 721 Z M408 721 C408 653 462 601 547 601 C630 601 684 653 684 721 C684 789 630 841 547 841 C462 841 408 789 408 721 L408 721 Z " />
<glyph glyph-name="Uhungarumlaut" unicode="&#x170;" horiz-adv-x="1275" d="M292 323 L292 700 L94 700 L94 323 C94 130 198 -10 515 -10 L760 -10 C1077 -10 1181 130 1181 323 L1181 700 L983 700 L983 323 C983 234 942 170 759 170 L516 170 C333 170 292 234 292 323 L292 323 Z M375 775 L503 775 L686 946 L470 946 L375 775 Z M680 775 L808 775 L991 946 L774 946 L680 775 Z " />
<glyph glyph-name="uhungarumlaut" unicode="&#x171;" horiz-adv-x="1093" d="M257 258 L257 560 L84 560 L84 258 C84 104 164 -8 433 -8 L659 -8 C929 -8 1009 104 1009 258 L1009 560 L833 560 L833 258 C833 192 808 143 658 143 L434 143 C283 143 257 192 257 258 L257 258 Z M284 635 L412 635 L595 806 L379 806 L284 635 Z M589 635 L717 635 L900 806 L683 806 L589 635 Z " />
<glyph glyph-name="Uogonek" unicode="&#x172;" horiz-adv-x="1275" d="M633 -185 C633 -251 697 -295 789 -295 C839 -295 891 -292 949 -272 L949 -187 C913 -202 895 -205 867 -205 C819 -205 786 -184 786 -142 C786 -79 835 -36 891 0 C1106 34 1181 160 1181 323 L1181 700 L983 700 L983 323 C983 234 942 170 759 170 L516 170 C333 170 292 234 292 323 L292 700 L94 700 L94 323 C94 130 198 -10 515 -10 L760 -10 C764 -10 770 -10 775 -9 C698 -45 633 -101 633 -185 L633 -185 Z " />
<glyph glyph-name="uogonek" unicode="&#x173;" horiz-adv-x="1093" d="M512 -185 C512 -251 576 -295 668 -295 C718 -295 770 -292 828 -272 L828 -187 C792 -202 774 -205 746 -205 C698 -205 665 -184 665 -142 C665 -79 715 -36 771 0 C952 28 1009 128 1009 258 L1009 560 L833 560 L833 258 C833 192 808 143 658 143 L434 143 C283 143 257 192 257 258 L257 560 L84 560 L84 258 C84 104 164 -8 433 -8 L657 -8 C579 -44 512 -100 512 -185 L512 -185 Z " />
<glyph glyph-name="Wcircumflex" unicode="&#x174;" horiz-adv-x="1618" d="M809 452 L1056 0 L1202 0 L1604 700 L1366 700 L1127 248 L882 700 L736 700 L491 248 L252 700 L14 700 L416 0 L562 0 L809 452 Z M921 946 L696 946 L588 775 L716 775 L809 853 L901 775 L1029 775 L921 946 Z " />
<glyph glyph-name="wcircumflex" unicode="&#x175;" horiz-adv-x="1382" d="M691 352 L897 0 L1026 0 L1368 560 L1157 560 L957 208 L755 560 L625 560 L423 208 L223 560 L14 560 L356 0 L485 0 L691 352 Z M803 806 L578 806 L470 635 L598 635 L691 713 L783 635 L911 635 L803 806 Z " />
<glyph glyph-name="Ycircumflex" unicode="&#x176;" horiz-adv-x="1258" d="M530 0 L728 0 L728 211 L1266 700 L974 700 L630 371 L284 700 L-8 700 L530 211 L530 0 Z M740 946 L515 946 L407 775 L535 775 L628 853 L720 775 L848 775 L740 946 Z " />
<glyph glyph-name="ycircumflex" unicode="&#x177;" horiz-adv-x="1070" d="M448 0 L622 0 L622 171 L1078 560 L819 560 L534 301 L251 560 L-8 560 L448 171 L448 0 Z M646 806 L421 806 L313 635 L441 635 L534 713 L626 635 L754 635 L646 806 Z " />
<glyph glyph-name="Ydieresis" unicode="&#x178;" horiz-adv-x="1258" d="M530 0 L728 0 L728 211 L1266 700 L974 700 L630 371 L284 700 L-8 700 L530 211 L530 0 Z M389 773 L563 773 L563 945 L389 945 L389 773 Z M694 773 L868 773 L868 945 L694 945 L694 773 Z " />
<glyph glyph-name="Zacute" unicode="&#x179;" horiz-adv-x="1205" d="M64 0 L1151 0 L1151 180 L457 180 L1131 563 L1131 700 L74 700 L74 520 L737 520 L64 137 L64 0 Z M492 775 L620 775 L803 946 L587 946 L492 775 Z " />
<glyph glyph-name="zacute" unicode="&#x17a;" horiz-adv-x="1031" d="M57 0 L984 0 L984 151 L404 151 L967 444 L967 560 L66 560 L66 409 L616 409 L57 116 L57 0 Z M405 635 L533 635 L716 806 L500 806 L405 635 Z " />
<glyph glyph-name="Zdotaccent" unicode="&#x17b;" horiz-adv-x="1205" d="M64 0 L1151 0 L1151 180 L457 180 L1131 563 L1131 700 L74 700 L74 520 L737 520 L64 137 L64 0 Z M515 773 L689 773 L689 945 L515 945 L515 773 Z " />
<glyph glyph-name="zdotaccent" unicode="&#x17c;" horiz-adv-x="1031" d="M57 0 L984 0 L984 151 L404 151 L967 444 L967 560 L66 560 L66 409 L616 409 L57 116 L57 0 Z M428 633 L602 633 L602 805 L428 805 L428 633 Z " />
<glyph glyph-name="Zcaron" unicode="&#x17d;" horiz-adv-x="1205" d="M64 0 L1151 0 L1151 180 L457 180 L1131 563 L1131 700 L74 700 L74 520 L737 520 L64 137 L64 0 Z M822 946 L694 946 L602 868 L509 946 L381 946 L489 775 L714 775 L822 946 Z " />
<glyph glyph-name="zcaron" unicode="&#x17e;" horiz-adv-x="1031" d="M57 0 L984 0 L984 151 L404 151 L967 444 L967 560 L66 560 L66 409 L616 409 L57 116 L57 0 Z M735 806 L607 806 L515 728 L422 806 L294 806 L402 635 L627 635 L735 806 Z " />
<glyph glyph-name="uni0186" unicode="&#x186;" horiz-adv-x="1184" d="M905 350 C905 255 863 180 675 180 L72 180 L72 0 L676 0 C993 0 1117 157 1117 350 C1117 543 993 700 676 700 L72 700 L72 520 L675 520 C863 520 905 445 905 350 L905 350 Z " />
<glyph glyph-name="uni0189" unicode="&#x189;" horiz-adv-x="1255" d="M-16 270 L114 270 L114 0 L747 0 C1064 0 1188 157 1188 350 C1188 543 1064 700 747 700 L114 700 L114 430 L-16 430 L-16 270 Z M746 520 C934 520 976 445 976 350 C976 255 934 180 746 180 L312 180 L312 270 L648 270 L648 430 L312 430 L312 520 L746 520 Z " />
<glyph glyph-name="uni018E" unicode="&#x18e;" horiz-adv-x="1199" d="M1085 700 L72 700 L72 520 L887 520 L887 430 L174 430 L174 270 L887 270 L887 180 L72 180 L72 0 L1085 0 L1085 700 Z " />
<glyph glyph-name="florin" unicode="&#x192;" horiz-adv-x="1298" d="M436 96 C430 49 425 20 340 20 L171 20 L171 -160 L339 -160 C536 -160 616 -59 631 88 L650 264 L945 264 L945 426 L665 426 L668 444 C673 481 688 520 783 520 L1137 520 L1137 700 L793 700 C569 700 487 589 473 452 L470 426 L295 426 L295 264 L453 264 L436 96 Z " />
<glyph glyph-name="Ohorn" unicode="&#x1a0;" horiz-adv-x="1348" d="M827 -10 C1153 -10 1281 151 1281 350 C1281 448 1250 536 1179 602 C1279 602 1364 629 1364 757 C1364 778 1362 800 1358 826 L1172 826 C1175 805 1177 787 1177 772 C1177 710 1147 700 1114 700 L957 700 C917 706 874 710 827 710 L521 710 C195 710 67 549 67 350 C67 151 195 -10 521 -10 L827 -10 Z M522 170 C325 170 278 249 278 350 C278 451 325 530 523 530 L826 530 C1023 530 1069 451 1069 350 C1069 249 1023 170 826 170 L522 170 Z " />
<glyph glyph-name="ohorn" unicode="&#x1a1;" horiz-adv-x="1153" d="M716 -8 C993 -8 1093 121 1093 280 C1093 350 1073 414 1027 464 C1108 473 1169 507 1169 617 C1169 638 1167 660 1163 686 L976 686 C979 665 981 647 981 632 C981 570 951 560 919 560 L825 560 C792 565 756 568 716 568 L438 568 C161 568 60 439 60 280 C60 121 161 -8 438 -8 L716 -8 Z M439 143 C275 143 245 203 245 280 C245 357 275 417 439 417 L715 417 C876 417 908 357 908 280 C908 203 876 143 715 143 L439 143 Z " />
<glyph glyph-name="uni01A7" unicode="&#x1a7;" horiz-adv-x="1207" d="M1103 180 L346 180 C275 180 270 203 270 225 C270 248 275 270 346 270 L865 270 C1065 270 1143 361 1143 485 C1143 605 1065 700 865 700 L104 700 L104 520 L861 520 C932 520 937 497 937 475 C937 452 932 430 861 430 L342 430 C142 430 64 339 64 215 C64 95 142 0 342 0 L1103 0 L1103 180 Z " />
<glyph glyph-name="uni01A8" unicode="&#x1a8;" horiz-adv-x="1031" d="M941 151 L297 151 C241 151 239 167 239 182 C239 199 243 215 297 215 L742 215 C914 215 975 287 975 386 C975 484 914 560 742 560 L90 560 L90 409 L733 409 C789 409 792 393 792 378 C792 361 788 345 733 345 L289 345 C117 345 56 273 56 174 C56 76 117 0 289 0 L941 0 L941 151 Z " />
<glyph glyph-name="Uhorn" unicode="&#x1af;" horiz-adv-x="1425" d="M292 323 L292 700 L94 700 L94 323 C94 130 198 -10 515 -10 L760 -10 C1077 -10 1181 130 1181 323 L1181 602 L1240 602 C1346 602 1436 624 1436 757 C1436 778 1434 800 1430 826 L1244 826 C1247 805 1249 787 1249 772 C1249 710 1219 700 1186 700 L983 700 L983 323 C983 234 942 170 759 170 L516 170 C333 170 292 234 292 323 L292 323 Z " />
<glyph glyph-name="uhorn" unicode="&#x1b0;" horiz-adv-x="1253" d="M257 258 L257 560 L84 560 L84 258 C84 104 164 -8 433 -8 L659 -8 C929 -8 1009 104 1009 258 L1009 462 L1068 462 C1174 462 1264 484 1264 617 C1264 638 1262 660 1258 686 L1071 686 C1074 665 1076 647 1076 632 C1076 570 1046 560 1014 560 L833 560 L833 258 C833 192 808 143 658 143 L434 143 C283 143 257 192 257 258 L257 258 Z " />
<glyph glyph-name="uni01B1" unicode="&#x1b1;" horiz-adv-x="1356" d="M824 552 C1015 531 1071 452 1071 355 C1071 252 1023 170 823 170 L533 170 C333 170 285 252 285 355 C285 452 341 531 532 552 L532 700 L61 700 L61 520 L162 520 C113 460 91 389 91 308 C91 133 205 -10 493 -10 L863 -10 C1151 -10 1265 133 1265 308 C1265 389 1242 460 1194 520 L1295 520 L1295 700 L824 700 L824 552 Z " />
<glyph glyph-name="uni01C0" unicode="&#x1c0;" horiz-adv-x="392" d="M278 800 L114 800 L114 -100 L278 -100 L278 800 Z " />
<glyph glyph-name="uni01C1" unicode="&#x1c1;" horiz-adv-x="787" d="M278 800 L114 800 L114 -100 L278 -100 L278 800 Z M673 800 L508 800 L508 -100 L673 -100 L673 800 Z " />
<glyph glyph-name="uni01C2" unicode="&#x1c2;" horiz-adv-x="716" d="M440 132 L682 132 L682 280 L440 280 L440 419 L682 419 L682 567 L440 567 L440 800 L276 800 L276 567 L34 567 L34 419 L276 419 L276 280 L34 280 L34 132 L276 132 L276 -100 L440 -100 L440 132 Z " />
<glyph glyph-name="uni01C3" unicode="&#x1c3;" horiz-adv-x="415" d="M118 258 L296 258 L307 700 L107 700 L118 258 Z M109 0 L306 0 L306 198 L109 198 L109 0 Z " />
<glyph glyph-name="uni01C4" unicode="&#x1c4;" horiz-adv-x="2460" d="M114 0 L747 0 C1064 0 1188 157 1188 350 C1188 543 1064 700 747 700 L114 700 L114 0 Z M746 520 C934 520 976 445 976 350 C976 255 934 180 746 180 L312 180 L312 520 L746 520 Z M1319 0 L2406 0 L2406 180 L1712 180 L2386 563 L2386 700 L1329 700 L1329 520 L1992 520 L1319 137 L1319 0 Z M2077 946 L1949 946 L1857 868 L1764 946 L1636 946 L1744 775 L1969 775 L2077 946 Z " />
<glyph glyph-name="uni01C5" unicode="&#x1c5;" horiz-adv-x="2286" d="M114 0 L747 0 C1064 0 1188 157 1188 350 C1188 543 1064 700 747 700 L114 700 L114 0 Z M746 520 C934 520 976 445 976 350 C976 255 934 180 746 180 L312 180 L312 520 L746 520 Z M1312 0 L2239 0 L2239 151 L1659 151 L2222 444 L2222 560 L1321 560 L1321 409 L1871 409 L1312 116 L1312 0 Z M1990 806 L1862 806 L1770 728 L1677 806 L1549 806 L1657 635 L1882 635 L1990 806 Z " />
<glyph glyph-name="uni01C6" unicode="&#x1c6;" horiz-adv-x="2109" d="M104 0 L652 0 C921 0 1019 126 1019 280 C1019 434 921 560 652 560 L104 560 L104 0 Z M651 409 C807 409 833 352 833 280 C833 208 807 151 651 151 L280 151 L280 409 L651 409 Z M1136 0 L2063 0 L2063 151 L1483 151 L2046 444 L2046 560 L1145 560 L1145 409 L1695 409 L1136 116 L1136 0 Z M1814 806 L1686 806 L1594 728 L1501 806 L1373 806 L1481 635 L1706 635 L1814 806 Z " />
<glyph glyph-name="uni01C7" unicode="&#x1c7;" horiz-adv-x="2340" d="M1506 -5 L1825 -5 C2142 -5 2246 132 2246 325 L2246 700 L2048 700 L2048 325 C2048 236 2007 175 1824 175 L1507 175 C1385 175 1361 221 1361 275 L1361 342 L1163 342 L1163 275 C1163 121 1252 -5 1506 -5 L1506 -5 Z M312 700 L114 700 L114 0 L1107 0 L1107 180 L312 180 L312 700 Z " />
<glyph glyph-name="uni01C8" unicode="&#x1c8;" horiz-adv-x="2170" d="M312 700 L114 700 L114 0 L1107 0 L1107 180 L312 180 L312 700 Z M1449 -4 L1736 -4 C2005 -4 2086 106 2086 260 L2086 560 L1910 560 L1910 260 C1910 193 1884 147 1735 147 L1450 147 C1350 147 1339 181 1339 220 L1339 276 L1163 276 L1163 220 C1163 97 1233 -4 1449 -4 L1449 -4 Z " />
<glyph glyph-name="uni01C9" unicode="&#x1c9;" horiz-adv-x="2025" d="M1305 -4 L1592 -4 C1861 -4 1942 106 1942 260 L1942 560 L1766 560 L1766 260 C1766 193 1740 147 1591 147 L1306 147 C1206 147 1195 181 1195 220 L1195 276 L1019 276 L1019 220 C1019 97 1089 -4 1305 -4 L1305 -4 Z M280 560 L104 560 L104 0 L950 0 L950 151 L280 151 L280 560 Z " />
<glyph glyph-name="uni01CA" unicode="&#x1ca;" horiz-adv-x="2520" d="M1686 -5 L2005 -5 C2322 -5 2426 132 2426 325 L2426 700 L2228 700 L2228 325 C2228 236 2187 175 2004 175 L1687 175 C1565 175 1541 221 1541 275 L1541 342 L1343 342 L1343 275 C1343 121 1432 -5 1686 -5 L1686 -5 Z M1008 0 L1195 0 L1195 700 L997 700 L997 232 L301 700 L114 700 L114 0 L312 0 L312 468 L1008 0 Z " />
<glyph glyph-name="uni01CB" unicode="&#x1cb;" horiz-adv-x="2350" d="M1008 0 L1195 0 L1195 700 L997 700 L997 232 L301 700 L114 700 L114 0 L312 0 L312 468 L1008 0 Z M1629 -4 L1916 -4 C2185 -4 2266 106 2266 260 L2266 560 L2090 560 L2090 260 C2090 193 2064 147 1915 147 L1630 147 C1530 147 1519 181 1519 220 L1519 276 L1343 276 L1343 220 C1343 97 1413 -4 1629 -4 L1629 -4 Z " />
<glyph glyph-name="uni01CC" unicode="&#x1cc;" horiz-adv-x="2170" d="M1449 -4 L1736 -4 C2005 -4 2086 106 2086 260 L2086 560 L1910 560 L1910 260 C1910 193 1884 147 1735 147 L1450 147 C1350 147 1339 181 1339 220 L1339 276 L1163 276 L1163 220 C1163 97 1233 -4 1449 -4 L1449 -4 Z M1025 0 L1025 560 L851 560 L851 196 L270 560 L104 560 L104 0 L280 0 L280 364 L859 0 L1025 0 Z " />
<glyph glyph-name="uni01CD" unicode="&#x1cd;" horiz-adv-x="1295" d="M1050 0 L1293 0 L753 700 L544 700 L2 0 L245 0 L326 107 L968 107 L1050 0 Z M647 529 L845 269 L449 269 L647 529 Z M867 946 L739 946 L647 868 L554 946 L426 946 L534 775 L759 775 L867 946 Z " />
<glyph glyph-name="uni01CE" unicode="&#x1ce;" horiz-adv-x="1107" d="M888 0 L1104 0 L646 560 L461 560 L3 0 L219 0 L291 91 L815 91 L888 0 Z M553 416 L708 223 L398 223 L553 416 Z M773 806 L645 806 L553 728 L460 806 L332 806 L440 635 L665 635 L773 806 Z " />
<glyph glyph-name="uni01CF" unicode="&#x1cf;" horiz-adv-x="426" d="M114 0 L312 0 L312 700 L114 700 L114 0 Z M433 946 L305 946 L213 868 L120 946 L-8 946 L100 775 L325 775 L433 946 Z " />
<glyph glyph-name="uni01D0" unicode="&#x1d0;" horiz-adv-x="384" d="M412 806 L284 806 L192 728 L99 806 L-29 806 L79 635 L304 635 L412 806 Z M104 0 L280 0 L280 560 L104 560 L104 0 Z " />
<glyph glyph-name="uni01D1" unicode="&#x1d1;" horiz-adv-x="1348" d="M827 -10 C1153 -10 1281 151 1281 350 C1281 549 1153 710 827 710 L521 710 C195 710 67 549 67 350 C67 151 195 -10 521 -10 L827 -10 Z M522 170 C325 170 278 249 278 350 C278 451 325 530 523 530 L826 530 C1023 530 1069 451 1069 350 C1069 249 1023 170 826 170 L522 170 Z M894 946 L766 946 L674 868 L581 946 L453 946 L561 775 L786 775 L894 946 Z " />
<glyph glyph-name="uni01D2" unicode="&#x1d2;" horiz-adv-x="1153" d="M716 -8 C993 -8 1093 121 1093 280 C1093 439 993 568 716 568 L438 568 C161 568 60 439 60 280 C60 121 161 -8 438 -8 L716 -8 Z M439 143 C275 143 245 203 245 280 C245 357 275 417 439 417 L715 417 C876 417 908 357 908 280 C908 203 876 143 715 143 L439 143 Z M796 806 L668 806 L576 728 L483 806 L355 806 L463 635 L688 635 L796 806 Z " />
<glyph glyph-name="uni01D3" unicode="&#x1d3;" horiz-adv-x="1275" d="M292 323 L292 700 L94 700 L94 323 C94 130 198 -10 515 -10 L760 -10 C1077 -10 1181 130 1181 323 L1181 700 L983 700 L983 323 C983 234 942 170 759 170 L516 170 C333 170 292 234 292 323 L292 323 Z M857 946 L729 946 L637 868 L544 946 L416 946 L524 775 L749 775 L857 946 Z " />
<glyph glyph-name="uni01D4" unicode="&#x1d4;" horiz-adv-x="1093" d="M257 258 L257 560 L84 560 L84 258 C84 104 164 -8 433 -8 L659 -8 C929 -8 1009 104 1009 258 L1009 560 L833 560 L833 258 C833 192 808 143 658 143 L434 143 C283 143 257 192 257 258 L257 258 Z M766 806 L638 806 L546 728 L453 806 L325 806 L433 635 L658 635 L766 806 Z " />
<glyph glyph-name="uni01D5" unicode="&#x1d5;" horiz-adv-x="1275" d="M292 323 L292 700 L94 700 L94 323 C94 130 198 -10 515 -10 L760 -10 C1077 -10 1181 130 1181 323 L1181 700 L983 700 L983 323 C983 234 942 170 759 170 L516 170 C333 170 292 234 292 323 L292 323 Z M413 1001 L862 1001 L862 1125 L413 1125 L413 1001 Z M398 773 L572 773 L572 945 L398 945 L398 773 Z M703 773 L877 773 L877 945 L703 945 L703 773 Z " />
<glyph glyph-name="uni01D6" unicode="&#x1d6;" horiz-adv-x="1093" d="M257 258 L257 560 L84 560 L84 258 C84 104 164 -8 433 -8 L659 -8 C929 -8 1009 104 1009 258 L1009 560 L833 560 L833 258 C833 192 808 143 658 143 L434 143 C283 143 257 192 257 258 L257 258 Z M322 861 L771 861 L771 985 L322 985 L322 861 Z M307 633 L481 633 L481 805 L307 805 L307 633 Z M612 633 L786 633 L786 805 L612 805 L612 633 Z " />
<glyph glyph-name="uni01D7" unicode="&#x1d7;" horiz-adv-x="1275" d="M292 323 L292 700 L94 700 L94 323 C94 130 198 -10 515 -10 L760 -10 C1077 -10 1181 130 1181 323 L1181 700 L983 700 L983 323 C983 234 942 170 759 170 L516 170 C333 170 292 234 292 323 L292 323 Z M528 991 L656 991 L839 1162 L623 1162 L528 991 Z M398 773 L572 773 L572 945 L398 945 L398 773 Z M703 773 L877 773 L877 945 L703 945 L703 773 Z " />
<glyph glyph-name="uni01D8" unicode="&#x1d8;" horiz-adv-x="1093" d="M257 258 L257 560 L84 560 L84 258 C84 104 164 -8 433 -8 L659 -8 C929 -8 1009 104 1009 258 L1009 560 L833 560 L833 258 C833 192 808 143 658 143 L434 143 C283 143 257 192 257 258 L257 258 Z M437 851 L565 851 L748 1022 L532 1022 L437 851 Z M307 633 L481 633 L481 805 L307 805 L307 633 Z M612 633 L786 633 L786 805 L612 805 L612 633 Z " />
<glyph glyph-name="uni01D9" unicode="&#x1d9;" horiz-adv-x="1275" d="M292 323 L292 700 L94 700 L94 323 C94 130 198 -10 515 -10 L760 -10 C1077 -10 1181 130 1181 323 L1181 700 L983 700 L983 323 C983 234 942 170 759 170 L516 170 C333 170 292 234 292 323 L292 323 Z M858 1162 L730 1162 L638 1084 L545 1162 L417 1162 L525 991 L750 991 L858 1162 Z M398 773 L572 773 L572 945 L398 945 L398 773 Z M703 773 L877 773 L877 945 L703 945 L703 773 Z " />
<glyph glyph-name="uni01DA" unicode="&#x1da;" horiz-adv-x="1093" d="M257 258 L257 560 L84 560 L84 258 C84 104 164 -8 433 -8 L659 -8 C929 -8 1009 104 1009 258 L1009 560 L833 560 L833 258 C833 192 808 143 658 143 L434 143 C283 143 257 192 257 258 L257 258 Z M767 1022 L639 1022 L547 944 L454 1022 L326 1022 L434 851 L659 851 L767 1022 Z M307 633 L481 633 L481 805 L307 805 L307 633 Z M612 633 L786 633 L786 805 L612 805 L612 633 Z " />
<glyph glyph-name="uni01DB" unicode="&#x1db;" horiz-adv-x="1275" d="M292 323 L292 700 L94 700 L94 323 C94 130 198 -10 515 -10 L760 -10 C1077 -10 1181 130 1181 323 L1181 700 L983 700 L983 323 C983 234 942 170 759 170 L516 170 C333 170 292 234 292 323 L292 323 Z M652 1162 L436 1162 L619 991 L747 991 L652 1162 Z M398 773 L572 773 L572 945 L398 945 L398 773 Z M703 773 L877 773 L877 945 L703 945 L703 773 Z " />
<glyph glyph-name="uni01DC" unicode="&#x1dc;" horiz-adv-x="1093" d="M257 258 L257 560 L84 560 L84 258 C84 104 164 -8 433 -8 L659 -8 C929 -8 1009 104 1009 258 L1009 560 L833 560 L833 258 C833 192 808 143 658 143 L434 143 C283 143 257 192 257 258 L257 258 Z M561 1022 L345 1022 L528 851 L656 851 L561 1022 Z M307 633 L481 633 L481 805 L307 805 L307 633 Z M612 633 L786 633 L786 805 L612 805 L612 633 Z " />
<glyph glyph-name="uni01DD" unicode="&#x1dd;" horiz-adv-x="1032" d="M928 560 L65 560 L65 409 L752 409 L752 345 L153 345 L153 215 L752 215 L752 151 L65 151 L65 0 L928 0 L928 560 Z " />
<glyph glyph-name="uni01DE" unicode="&#x1de;" horiz-adv-x="1295" d="M1050 0 L1293 0 L753 700 L544 700 L2 0 L245 0 L326 107 L968 107 L1050 0 Z M647 529 L845 269 L449 269 L647 529 Z M423 1001 L872 1001 L872 1125 L423 1125 L423 1001 Z M408 773 L582 773 L582 945 L408 945 L408 773 Z M713 773 L887 773 L887 945 L713 945 L713 773 Z " />
<glyph glyph-name="uni01DF" unicode="&#x1df;" horiz-adv-x="1107" d="M888 0 L1104 0 L646 560 L461 560 L3 0 L219 0 L291 91 L815 91 L888 0 Z M553 416 L708 223 L398 223 L553 416 Z M329 861 L778 861 L778 985 L329 985 L329 861 Z M314 633 L488 633 L488 805 L314 805 L314 633 Z M619 633 L793 633 L793 805 L619 805 L619 633 Z " />
<glyph glyph-name="uni01E0" unicode="&#x1e0;" horiz-adv-x="1295" d="M1050 0 L1293 0 L753 700 L544 700 L2 0 L245 0 L326 107 L968 107 L1050 0 Z M647 529 L845 269 L449 269 L647 529 Z M423 1001 L872 1001 L872 1125 L423 1125 L423 1001 Z M561 773 L735 773 L735 945 L561 945 L561 773 Z " />
<glyph glyph-name="uni01E1" unicode="&#x1e1;" horiz-adv-x="1107" d="M888 0 L1104 0 L646 560 L461 560 L3 0 L219 0 L291 91 L815 91 L888 0 Z M553 416 L708 223 L398 223 L553 416 Z M329 861 L778 861 L778 985 L329 985 L329 861 Z M467 633 L641 633 L641 805 L467 805 L467 633 Z " />
<glyph glyph-name="uni01E2" unicode="&#x1e2;" horiz-adv-x="1727" d="M747 103 L747 0 L1655 0 L1655 180 L945 180 L945 270 L1553 270 L1553 430 L945 430 L945 520 L1655 520 L1655 700 L644 700 L2 0 L251 0 L343 103 L747 103 Z M747 553 L747 263 L483 263 L747 553 Z M773 798 L1222 798 L1222 922 L773 922 L773 798 Z " />
<glyph glyph-name="uni01E3" unicode="&#x1e3;" horiz-adv-x="1477" d="M638 80 L638 0 L1412 0 L1412 151 L812 151 L812 215 L1324 215 L1324 345 L812 345 L812 409 L1412 409 L1412 560 L546 560 L3 0 L223 0 L299 80 L638 80 Z M638 435 L638 212 L424 212 L638 435 Z M658 658 L1107 658 L1107 782 L658 782 L658 658 Z " />
<glyph glyph-name="Gcaron" unicode="&#x1e6;" horiz-adv-x="1256" d="M656 270 L973 270 L973 180 L509 180 C321 180 279 255 279 350 C279 445 321 520 509 520 L1112 520 L1112 700 L508 700 C191 700 67 543 67 350 C67 157 191 0 508 0 L1167 0 L1167 430 L656 430 L656 270 Z M872 946 L744 946 L652 868 L559 946 L431 946 L539 775 L764 775 L872 946 Z " />
<glyph glyph-name="gcaron" unicode="&#x1e7;" horiz-adv-x="1078" d="M560 215 L824 215 L824 151 L427 151 C272 151 246 208 246 280 C246 352 272 409 427 409 L950 409 L950 560 L427 560 C157 560 60 434 60 280 C60 126 157 0 427 0 L996 0 L996 345 L560 345 L560 215 Z M771 806 L643 806 L551 728 L458 806 L330 806 L438 635 L663 635 L771 806 Z " />
<glyph glyph-name="uni01E8" unicode="&#x1e8;" horiz-adv-x="1303" d="M1215 700 L874 700 L312 336 L312 700 L114 700 L114 0 L312 0 L312 142 L556 293 L976 0 L1306 0 L726 397 L1215 700 Z M832 946 L704 946 L612 868 L519 946 L391 946 L499 775 L724 775 L832 946 Z " />
<glyph glyph-name="uni01E9" unicode="&#x1e9;" horiz-adv-x="1122" d="M1049 560 L735 560 L280 282 L280 560 L104 560 L104 0 L280 0 L280 112 L483 230 L827 0 L1120 0 L632 317 L1049 560 Z M745 806 L617 806 L525 728 L432 806 L304 806 L412 635 L637 635 L745 806 Z " />
<glyph glyph-name="uni01EA" unicode="&#x1ea;" horiz-adv-x="1348" d="M827 -10 C830 -10 834 -10 838 -9 C762 -45 697 -101 697 -185 C697 -251 761 -295 853 -295 C903 -295 956 -292 1013 -272 L1013 -187 C977 -202 960 -205 932 -205 C884 -205 851 -184 851 -142 C851 -79 901 -36 957 0 C1187 38 1281 180 1281 350 C1281 549 1153 710 827 710 L521 710 C195 710 67 549 67 350 C67 151 195 -10 521 -10 L827 -10 Z M522 170 C325 170 278 249 278 350 C278 451 325 530 523 530 L826 530 C1023 530 1069 451 1069 350 C1069 249 1023 170 826 170 L522 170 Z " />
<glyph glyph-name="uni01EB" unicode="&#x1eb;" horiz-adv-x="1153" d="M566 -185 C566 -251 630 -295 722 -295 C772 -295 824 -292 882 -272 L882 -187 C846 -202 828 -205 800 -205 C752 -205 719 -184 719 -142 C719 -79 769 -36 826 0 C1020 30 1093 144 1093 280 C1093 439 993 568 716 568 L438 568 C161 568 60 439 60 280 C60 121 161 -8 438 -8 L711 -8 C633 -44 566 -100 566 -185 L566 -185 Z M439 143 C275 143 245 203 245 280 C245 357 275 417 439 417 L715 417 C876 417 908 357 908 280 C908 203 876 143 715 143 L439 143 Z " />
<glyph glyph-name="uni01EC" unicode="&#x1ec;" horiz-adv-x="1348" d="M827 -10 C830 -10 834 -10 838 -9 C762 -45 697 -101 697 -185 C697 -251 761 -295 853 -295 C903 -295 956 -292 1013 -272 L1013 -187 C977 -202 960 -205 932 -205 C884 -205 851 -184 851 -142 C851 -79 901 -36 957 0 C1187 38 1281 180 1281 350 C1281 549 1153 710 827 710 L521 710 C195 710 67 549 67 350 C67 151 195 -10 521 -10 L827 -10 Z M522 170 C325 170 278 249 278 350 C278 451 325 530 523 530 L826 530 C1023 530 1069 451 1069 350 C1069 249 1023 170 826 170 L522 170 Z M449 798 L898 798 L898 922 L449 922 L449 798 Z " />
<glyph glyph-name="uni01ED" unicode="&#x1ed;" horiz-adv-x="1153" d="M566 -185 C566 -251 630 -295 722 -295 C772 -295 824 -292 882 -272 L882 -187 C846 -202 828 -205 800 -205 C752 -205 719 -184 719 -142 C719 -79 769 -36 826 0 C1020 30 1093 144 1093 280 C1093 439 993 568 716 568 L438 568 C161 568 60 439 60 280 C60 121 161 -8 438 -8 L711 -8 C633 -44 566 -100 566 -185 L566 -185 Z M439 143 C275 143 245 203 245 280 C245 357 275 417 439 417 L715 417 C876 417 908 357 908 280 C908 203 876 143 715 143 L439 143 Z M352 658 L801 658 L801 782 L352 782 L352 658 Z " />
<glyph glyph-name="uni01F0" unicode="&#x1f0;" horiz-adv-x="1041" d="M320 -4 L607 -4 C876 -4 957 106 957 260 L957 560 L781 560 L781 260 C781 193 755 147 606 147 L321 147 C221 147 210 181 210 220 L210 276 L34 276 L34 220 C34 97 104 -4 320 -4 L320 -4 Z M1059 806 L931 806 L839 728 L746 806 L618 806 L726 635 L951 635 L1059 806 Z " />
<glyph glyph-name="uni01F1" unicode="&#x1f1;" horiz-adv-x="2460" d="M114 0 L747 0 C1064 0 1188 157 1188 350 C1188 543 1064 700 747 700 L114 700 L114 0 Z M746 520 C934 520 976 445 976 350 C976 255 934 180 746 180 L312 180 L312 520 L746 520 Z M1319 0 L2406 0 L2406 180 L1712 180 L2386 563 L2386 700 L1329 700 L1329 520 L1992 520 L1319 137 L1319 0 Z " />
<glyph glyph-name="uni01F2" unicode="&#x1f2;" horiz-adv-x="2286" d="M114 0 L747 0 C1064 0 1188 157 1188 350 C1188 543 1064 700 747 700 L114 700 L114 0 Z M746 520 C934 520 976 445 976 350 C976 255 934 180 746 180 L312 180 L312 520 L746 520 Z M1312 0 L2239 0 L2239 151 L1659 151 L2222 444 L2222 560 L1321 560 L1321 409 L1871 409 L1312 116 L1312 0 Z " />
<glyph glyph-name="uni01F3" unicode="&#x1f3;" horiz-adv-x="2109" d="M104 0 L652 0 C921 0 1019 126 1019 280 C1019 434 921 560 652 560 L104 560 L104 0 Z M651 409 C807 409 833 352 833 280 C833 208 807 151 651 151 L280 151 L280 409 L651 409 Z M1136 0 L2063 0 L2063 151 L1483 151 L2046 444 L2046 560 L1145 560 L1145 409 L1695 409 L1136 116 L1136 0 Z " />
<glyph glyph-name="uni01F4" unicode="&#x1f4;" horiz-adv-x="1256" d="M656 270 L973 270 L973 180 L509 180 C321 180 279 255 279 350 C279 445 321 520 509 520 L1112 520 L1112 700 L508 700 C191 700 67 543 67 350 C67 157 191 0 508 0 L1167 0 L1167 430 L656 430 L656 270 Z M542 775 L670 775 L853 946 L637 946 L542 775 Z " />
<glyph glyph-name="uni01F5" unicode="&#x1f5;" horiz-adv-x="1078" d="M560 215 L824 215 L824 151 L427 151 C272 151 246 208 246 280 C246 352 272 409 427 409 L950 409 L950 560 L427 560 C157 560 60 434 60 280 C60 126 157 0 427 0 L996 0 L996 345 L560 345 L560 215 Z M441 635 L569 635 L752 806 L536 806 L441 635 Z " />
<glyph glyph-name="uni01F8" unicode="&#x1f8;" horiz-adv-x="1309" d="M1008 0 L1195 0 L1195 700 L997 700 L997 232 L301 700 L114 700 L114 0 L312 0 L312 468 L1008 0 Z M668 946 L452 946 L635 775 L763 775 L668 946 Z " />
<glyph glyph-name="uni01F9" unicode="&#x1f9;" horiz-adv-x="1129" d="M1025 0 L1025 560 L851 560 L851 196 L270 560 L104 560 L104 0 L280 0 L280 364 L859 0 L1025 0 Z M578 806 L362 806 L545 635 L673 635 L578 806 Z " />
<glyph glyph-name="Aringacute" unicode="&#x1fa;" horiz-adv-x="1295" d="M1050 0 L1293 0 L753 700 L544 700 L2 0 L245 0 L326 107 L968 107 L1050 0 Z M647 529 L845 269 L449 269 L647 529 Z M615 861 C615 878 630 893 648 893 C664 893 679 878 679 861 C679 844 664 830 648 830 C630 830 615 844 615 861 L615 861 Z M509 861 C509 793 563 741 648 741 C731 741 785 793 785 861 C785 929 731 981 648 981 C563 981 509 929 509 861 L509 861 Z M537 1017 L665 1017 L848 1188 L632 1188 L537 1017 Z " />
<glyph glyph-name="aringacute" unicode="&#x1fb;" horiz-adv-x="1107" d="M888 0 L1104 0 L646 560 L461 560 L3 0 L219 0 L291 91 L815 91 L888 0 Z M553 416 L708 223 L398 223 L553 416 Z M521 721 C521 738 536 753 554 753 C570 753 585 738 585 721 C585 704 570 690 554 690 C536 690 521 704 521 721 L521 721 Z M415 721 C415 653 469 601 554 601 C637 601 691 653 691 721 C691 789 637 841 554 841 C469 841 415 789 415 721 L415 721 Z M443 877 L571 877 L754 1048 L538 1048 L443 877 Z " />
<glyph glyph-name="AEacute" unicode="&#x1fc;" horiz-adv-x="1727" d="M747 103 L747 0 L1655 0 L1655 180 L945 180 L945 270 L1553 270 L1553 430 L945 430 L945 520 L1655 520 L1655 700 L644 700 L2 0 L251 0 L343 103 L747 103 Z M747 553 L747 263 L483 263 L747 553 Z M888 775 L1016 775 L1199 946 L983 946 L888 775 Z " />
<glyph glyph-name="aeacute" unicode="&#x1fd;" horiz-adv-x="1477" d="M638 80 L638 0 L1412 0 L1412 151 L812 151 L812 215 L1324 215 L1324 345 L812 345 L812 409 L1412 409 L1412 560 L546 560 L3 0 L223 0 L299 80 L638 80 Z M638 435 L638 212 L424 212 L638 435 Z M773 635 L901 635 L1084 806 L868 806 L773 635 Z " />
<glyph glyph-name="Oslashacute" unicode="&#x1fe;" horiz-adv-x="1348" d="M564 775 L692 775 L875 946 L659 946 L564 775 Z M827 -10 C1153 -10 1281 151 1281 350 C1281 503 1204 635 1018 687 L1096 800 L872 800 L810 710 C782 710 755 710 727 710 L521 710 C195 710 67 549 67 350 C67 196 142 65 328 13 L250 -100 L474 -100 L536 -10 C565 -10 593 -10 621 -10 L827 -10 Z M1069 350 C1069 249 1023 170 826 170 L661 170 L905 524 C1035 505 1069 435 1069 350 L1069 350 Z M278 350 C278 451 325 530 523 530 L685 530 L441 176 C312 195 278 264 278 350 L278 350 Z " />
<glyph glyph-name="oslashacute" unicode="&#x1ff;" horiz-adv-x="1153" d="M466 635 L594 635 L777 806 L561 806 L466 635 Z M716 -8 C993 -8 1093 121 1093 280 C1093 405 1031 510 871 551 L936 640 L739 640 L687 568 L438 568 C161 568 60 439 60 280 C60 155 122 49 281 9 L216 -80 L413 -80 L465 -8 L716 -8 Z M908 280 C908 203 876 143 715 143 L575 143 L771 413 C883 400 908 346 908 280 L908 280 Z M245 280 C245 357 275 417 439 417 L576 417 L380 146 C267 160 245 213 245 280 L245 280 Z " />
<glyph glyph-name="uni0200" unicode="&#x200;" horiz-adv-x="1295" d="M1050 0 L1293 0 L753 700 L544 700 L2 0 L245 0 L326 107 L968 107 L1050 0 Z M647 529 L845 269 L449 269 L647 529 Z M814 946 L598 946 L781 775 L909 775 L814 946 Z M510 946 L293 946 L476 775 L604 775 L510 946 Z " />
<glyph glyph-name="uni0201" unicode="&#x201;" horiz-adv-x="1107" d="M888 0 L1104 0 L646 560 L461 560 L3 0 L219 0 L291 91 L815 91 L888 0 Z M553 416 L708 223 L398 223 L553 416 Z M720 806 L504 806 L687 635 L815 635 L720 806 Z M416 806 L199 806 L382 635 L510 635 L416 806 Z " />
<glyph glyph-name="uni0202" unicode="&#x202;" horiz-adv-x="1295" d="M1050 0 L1293 0 L753 700 L544 700 L2 0 L245 0 L326 107 L968 107 L1050 0 Z M647 529 L845 269 L449 269 L647 529 Z M647 829 C706 829 733 806 737 772 L845 772 C841 856 804 950 647 950 C489 950 453 856 449 772 L557 772 C559 806 587 829 647 829 L647 829 Z " />
<glyph glyph-name="uni0203" unicode="&#x203;" horiz-adv-x="1107" d="M888 0 L1104 0 L646 560 L461 560 L3 0 L219 0 L291 91 L815 91 L888 0 Z M553 416 L708 223 L398 223 L553 416 Z M553 689 C612 689 639 666 643 632 L751 632 C747 716 710 810 553 810 C395 810 359 716 355 632 L463 632 C465 666 493 689 553 689 L553 689 Z " />
<glyph glyph-name="uni0204" unicode="&#x204;" horiz-adv-x="1199" d="M114 0 L1127 0 L1127 180 L312 180 L312 270 L1025 270 L1025 430 L312 430 L312 520 L1127 520 L1127 700 L114 700 L114 0 Z M776 946 L560 946 L743 775 L871 775 L776 946 Z M472 946 L255 946 L438 775 L566 775 L472 946 Z " />
<glyph glyph-name="uni0205" unicode="&#x205;" horiz-adv-x="1032" d="M104 0 L967 0 L967 151 L280 151 L280 215 L879 215 L879 345 L280 345 L280 409 L967 409 L967 560 L104 560 L104 0 Z M695 806 L479 806 L662 635 L790 635 L695 806 Z M391 806 L174 806 L357 635 L485 635 L391 806 Z " />
<glyph glyph-name="uni0206" unicode="&#x206;" horiz-adv-x="1199" d="M114 0 L1127 0 L1127 180 L312 180 L312 270 L1025 270 L1025 430 L312 430 L312 520 L1127 520 L1127 700 L114 700 L114 0 Z M609 829 C668 829 695 806 699 772 L807 772 C803 856 766 950 609 950 C451 950 415 856 411 772 L519 772 C521 806 549 829 609 829 L609 829 Z " />
<glyph glyph-name="uni0207" unicode="&#x207;" horiz-adv-x="1032" d="M104 0 L967 0 L967 151 L280 151 L280 215 L879 215 L879 345 L280 345 L280 409 L967 409 L967 560 L104 560 L104 0 Z M528 689 C587 689 614 666 618 632 L726 632 C722 716 685 810 528 810 C370 810 334 716 330 632 L438 632 C440 666 468 689 528 689 L528 689 Z " />
<glyph glyph-name="uni0208" unicode="&#x208;" horiz-adv-x="426" d="M114 0 L312 0 L312 700 L114 700 L114 0 Z M380 946 L164 946 L347 775 L475 775 L380 946 Z M76 946 L-141 946 L42 775 L170 775 L76 946 Z " />
<glyph glyph-name="uni0209" unicode="&#x209;" horiz-adv-x="384" d="M104 0 L280 0 L280 560 L104 560 L104 0 Z M359 806 L143 806 L326 635 L454 635 L359 806 Z M55 806 L-162 806 L21 635 L149 635 L55 806 Z " />
<glyph glyph-name="uni020A" unicode="&#x20a;" horiz-adv-x="426" d="M114 0 L312 0 L312 700 L114 700 L114 0 Z M212 829 C271 829 298 806 302 772 L410 772 C406 856 369 950 212 950 C54 950 18 856 14 772 L122 772 C124 806 152 829 212 829 L212 829 Z " />
<glyph glyph-name="uni020B" unicode="&#x20b;" horiz-adv-x="384" d="M104 0 L280 0 L280 560 L104 560 L104 0 Z M192 689 C251 689 278 666 282 632 L390 632 C386 716 349 810 192 810 C34 810 -2 716 -6 632 L102 632 C104 666 132 689 192 689 L192 689 Z " />
<glyph glyph-name="uni020C" unicode="&#x20c;" horiz-adv-x="1348" d="M827 -10 C1153 -10 1281 151 1281 350 C1281 549 1153 710 827 710 L521 710 C195 710 67 549 67 350 C67 151 195 -10 521 -10 L827 -10 Z M522 170 C325 170 278 249 278 350 C278 451 325 530 523 530 L826 530 C1023 530 1069 451 1069 350 C1069 249 1023 170 826 170 L522 170 Z M841 946 L625 946 L808 775 L936 775 L841 946 Z M537 946 L320 946 L503 775 L631 775 L537 946 Z " />
<glyph glyph-name="uni020D" unicode="&#x20d;" horiz-adv-x="1153" d="M716 -8 C993 -8 1093 121 1093 280 C1093 439 993 568 716 568 L438 568 C161 568 60 439 60 280 C60 121 161 -8 438 -8 L716 -8 Z M439 143 C275 143 245 203 245 280 C245 357 275 417 439 417 L715 417 C876 417 908 357 908 280 C908 203 876 143 715 143 L439 143 Z M743 806 L527 806 L710 635 L838 635 L743 806 Z M439 806 L222 806 L405 635 L533 635 L439 806 Z " />
<glyph glyph-name="uni020E" unicode="&#x20e;" horiz-adv-x="1348" d="M827 -10 C1153 -10 1281 151 1281 350 C1281 549 1153 710 827 710 L521 710 C195 710 67 549 67 350 C67 151 195 -10 521 -10 L827 -10 Z M522 170 C325 170 278 249 278 350 C278 451 325 530 523 530 L826 530 C1023 530 1069 451 1069 350 C1069 249 1023 170 826 170 L522 170 Z M674 829 C733 829 760 806 764 772 L872 772 C868 856 831 950 674 950 C516 950 480 856 476 772 L584 772 C586 806 614 829 674 829 L674 829 Z " />
<glyph glyph-name="uni020F" unicode="&#x20f;" horiz-adv-x="1153" d="M716 -8 C993 -8 1093 121 1093 280 C1093 439 993 568 716 568 L438 568 C161 568 60 439 60 280 C60 121 161 -8 438 -8 L716 -8 Z M439 143 C275 143 245 203 245 280 C245 357 275 417 439 417 L715 417 C876 417 908 357 908 280 C908 203 876 143 715 143 L439 143 Z M576 689 C635 689 662 666 666 632 L774 632 C770 716 733 810 576 810 C418 810 382 716 378 632 L486 632 C488 666 516 689 576 689 L576 689 Z " />
<glyph glyph-name="uni0210" unicode="&#x210;" horiz-adv-x="1281" d="M114 0 L312 0 L312 223 L644 223 L960 0 L1284 0 L939 230 C1098 254 1165 349 1165 464 C1165 594 1077 700 860 700 L114 700 L114 0 Z M851 520 C941 520 957 491 957 458 C957 426 941 397 851 397 L312 397 L312 520 L851 520 Z M770 946 L554 946 L737 775 L865 775 L770 946 Z M466 946 L249 946 L432 775 L560 775 L466 946 Z " />
<glyph glyph-name="uni0211" unicode="&#x211;" horiz-adv-x="1106" d="M104 0 L280 0 L280 175 L561 175 L822 0 L1100 0 L806 180 C944 198 998 274 998 369 C998 474 928 560 744 560 L104 560 L104 0 Z M736 409 C810 409 815 387 815 365 C815 341 810 321 736 321 L280 321 L280 409 L736 409 Z M688 806 L472 806 L655 635 L783 635 L688 806 Z M384 806 L167 806 L350 635 L478 635 L384 806 Z " />
<glyph glyph-name="uni0212" unicode="&#x212;" horiz-adv-x="1281" d="M114 0 L312 0 L312 223 L644 223 L960 0 L1284 0 L939 230 C1098 254 1165 349 1165 464 C1165 594 1077 700 860 700 L114 700 L114 0 Z M851 520 C941 520 957 491 957 458 C957 426 941 397 851 397 L312 397 L312 520 L851 520 Z M603 829 C662 829 689 806 693 772 L801 772 C797 856 760 950 603 950 C445 950 409 856 405 772 L513 772 C515 806 543 829 603 829 L603 829 Z " />
<glyph glyph-name="uni0213" unicode="&#x213;" horiz-adv-x="1106" d="M104 0 L280 0 L280 175 L561 175 L822 0 L1100 0 L806 180 C944 198 998 274 998 369 C998 474 928 560 744 560 L104 560 L104 0 Z M736 409 C810 409 815 387 815 365 C815 341 810 321 736 321 L280 321 L280 409 L736 409 Z M521 689 C580 689 607 666 611 632 L719 632 C715 716 678 810 521 810 C363 810 327 716 323 632 L431 632 C433 666 461 689 521 689 L521 689 Z " />
<glyph glyph-name="uni0214" unicode="&#x214;" horiz-adv-x="1275" d="M292 323 L292 700 L94 700 L94 323 C94 130 198 -10 515 -10 L760 -10 C1077 -10 1181 130 1181 323 L1181 700 L983 700 L983 323 C983 234 942 170 759 170 L516 170 C333 170 292 234 292 323 L292 323 Z M804 946 L588 946 L771 775 L899 775 L804 946 Z M500 946 L283 946 L466 775 L594 775 L500 946 Z " />
<glyph glyph-name="uni0215" unicode="&#x215;" horiz-adv-x="1093" d="M257 258 L257 560 L84 560 L84 258 C84 104 164 -8 433 -8 L659 -8 C929 -8 1009 104 1009 258 L1009 560 L833 560 L833 258 C833 192 808 143 658 143 L434 143 C283 143 257 192 257 258 L257 258 Z M713 806 L497 806 L680 635 L808 635 L713 806 Z M409 806 L192 806 L375 635 L503 635 L409 806 Z " />
<glyph glyph-name="uni0216" unicode="&#x216;" horiz-adv-x="1275" d="M292 323 L292 700 L94 700 L94 323 C94 130 198 -10 515 -10 L760 -10 C1077 -10 1181 130 1181 323 L1181 700 L983 700 L983 323 C983 234 942 170 759 170 L516 170 C333 170 292 234 292 323 L292 323 Z M637 829 C696 829 723 806 727 772 L835 772 C831 856 794 950 637 950 C479 950 443 856 439 772 L547 772 C549 806 577 829 637 829 L637 829 Z " />
<glyph glyph-name="uni0217" unicode="&#x217;" horiz-adv-x="1093" d="M257 258 L257 560 L84 560 L84 258 C84 104 164 -8 433 -8 L659 -8 C929 -8 1009 104 1009 258 L1009 560 L833 560 L833 258 C833 192 808 143 658 143 L434 143 C283 143 257 192 257 258 L257 258 Z M546 689 C605 689 632 666 636 632 L744 632 C740 716 703 810 546 810 C388 810 352 716 348 632 L456 632 C458 666 486 689 546 689 L546 689 Z " />
<glyph glyph-name="uni0218" unicode="&#x218;" horiz-adv-x="1207" d="M104 0 L865 0 C1065 0 1143 95 1143 215 C1143 339 1065 430 865 430 L346 430 C275 430 270 452 270 475 C270 497 275 520 346 520 L1103 520 L1103 700 L342 700 C142 700 64 605 64 485 C64 361 142 270 342 270 L861 270 C932 270 937 248 937 225 C937 203 932 180 861 180 L104 180 L104 0 Z M515 -248 L576 -248 L492 -392 L579 -392 L690 -232 L690 -76 L515 -76 L515 -248 Z " />
<glyph glyph-name="uni0219" unicode="&#x219;" horiz-adv-x="1031" d="M90 0 L742 0 C914 0 975 76 975 174 C975 273 914 345 742 345 L297 345 C243 345 239 361 239 378 C239 393 242 409 297 409 L941 409 L941 560 L289 560 C117 560 56 484 56 386 C56 287 117 215 289 215 L734 215 C788 215 792 199 792 182 C792 167 789 151 734 151 L90 151 L90 0 Z M427 -248 L488 -248 L404 -392 L491 -392 L602 -232 L602 -76 L427 -76 L427 -248 Z " />
<glyph glyph-name="uni021A" unicode="&#x21a;" horiz-adv-x="1184" d="M22 520 L494 520 L494 0 L690 0 L690 520 L1162 520 L1162 700 L22 700 L22 520 Z M504 -248 L565 -248 L481 -392 L568 -392 L679 -232 L679 -76 L504 -76 L504 -248 Z " />
<glyph glyph-name="uni021B" unicode="&#x21b;" horiz-adv-x="1039" d="M35 409 L432 409 L432 0 L608 0 L608 409 L1004 409 L1004 560 L35 560 L35 409 Z M431 -248 L492 -248 L408 -392 L495 -392 L606 -232 L606 -76 L431 -76 L431 -248 Z " />
<glyph glyph-name="uni021E" unicode="&#x21e;" horiz-adv-x="1305" d="M993 0 L1191 0 L1191 700 L993 700 L993 440 L312 440 L312 700 L114 700 L114 0 L312 0 L312 260 L993 260 L993 0 Z M872 946 L744 946 L652 868 L559 946 L431 946 L539 775 L764 775 L872 946 Z " />
<glyph glyph-name="uni021F" unicode="&#x21f;" horiz-adv-x="1125" d="M845 0 L1021 0 L1021 560 L845 560 L845 356 L280 356 L280 560 L104 560 L104 0 L280 0 L280 204 L845 204 L845 0 Z M782 806 L654 806 L562 728 L469 806 L341 806 L449 635 L674 635 L782 806 Z " />
<glyph glyph-name="uni0226" unicode="&#x226;" horiz-adv-x="1295" d="M1050 0 L1293 0 L753 700 L544 700 L2 0 L245 0 L326 107 L968 107 L1050 0 Z M647 529 L845 269 L449 269 L647 529 Z M560 773 L734 773 L734 945 L560 945 L560 773 Z " />
<glyph glyph-name="uni0227" unicode="&#x227;" horiz-adv-x="1107" d="M888 0 L1104 0 L646 560 L461 560 L3 0 L219 0 L291 91 L815 91 L888 0 Z M553 416 L708 223 L398 223 L553 416 Z M466 633 L640 633 L640 805 L466 805 L466 633 Z " />
<glyph glyph-name="uni0228" unicode="&#x228;" horiz-adv-x="1199" d="M114 0 L569 0 L531 -147 L577 -147 C624 -148 645 -152 645 -181 C645 -230 506 -221 463 -189 L463 -275 C540 -314 778 -338 778 -186 C778 -96 708 -71 618 -71 L636 0 L1127 0 L1127 180 L312 180 L312 270 L1025 270 L1025 430 L312 430 L312 520 L1127 520 L1127 700 L114 700 L114 0 Z " />
<glyph glyph-name="uni0229" unicode="&#x229;" horiz-adv-x="1032" d="M104 0 L488 0 L450 -147 L496 -147 C543 -148 564 -152 564 -181 C564 -230 425 -221 382 -189 L382 -275 C459 -314 697 -338 697 -186 C697 -96 627 -71 537 -71 L555 0 L967 0 L967 151 L280 151 L280 215 L879 215 L879 345 L280 345 L280 409 L967 409 L967 560 L104 560 L104 0 Z " />
<glyph glyph-name="uni022A" unicode="&#x22a;" horiz-adv-x="1348" d="M827 -10 C1153 -10 1281 151 1281 350 C1281 549 1153 710 827 710 L521 710 C195 710 67 549 67 350 C67 151 195 -10 521 -10 L827 -10 Z M522 170 C325 170 278 249 278 350 C278 451 325 530 523 530 L826 530 C1023 530 1069 451 1069 350 C1069 249 1023 170 826 170 L522 170 Z M449 1001 L898 1001 L898 1125 L449 1125 L449 1001 Z M434 773 L608 773 L608 945 L434 945 L434 773 Z M739 773 L913 773 L913 945 L739 945 L739 773 Z " />
<glyph glyph-name="uni022B" unicode="&#x22b;" horiz-adv-x="1153" d="M716 -8 C993 -8 1093 121 1093 280 C1093 439 993 568 716 568 L438 568 C161 568 60 439 60 280 C60 121 161 -8 438 -8 L716 -8 Z M439 143 C275 143 245 203 245 280 C245 357 275 417 439 417 L715 417 C876 417 908 357 908 280 C908 203 876 143 715 143 L439 143 Z M352 861 L801 861 L801 985 L352 985 L352 861 Z M337 633 L511 633 L511 805 L337 805 L337 633 Z M642 633 L816 633 L816 805 L642 805 L642 633 Z " />
<glyph glyph-name="uni022C" unicode="&#x22c;" horiz-adv-x="1348" d="M827 -10 C1153 -10 1281 151 1281 350 C1281 549 1153 710 827 710 L521 710 C195 710 67 549 67 350 C67 151 195 -10 521 -10 L827 -10 Z M522 170 C325 170 278 249 278 350 C278 451 325 530 523 530 L826 530 C1023 530 1069 451 1069 350 C1069 249 1023 170 826 170 L522 170 Z M771 950 C773 922 765 909 743 909 C713 909 664 944 604 944 C530 944 484 897 481 770 L577 770 C575 797 583 811 605 811 C634 811 683 775 744 775 C818 775 867 820 867 950 L771 950 Z M449 999 L898 999 L898 1123 L449 1123 L449 999 Z " />
<glyph glyph-name="uni022D" unicode="&#x22d;" horiz-adv-x="1153" d="M716 -8 C993 -8 1093 121 1093 280 C1093 439 993 568 716 568 L438 568 C161 568 60 439 60 280 C60 121 161 -8 438 -8 L716 -8 Z M439 143 C275 143 245 203 245 280 C245 357 275 417 439 417 L715 417 C876 417 908 357 908 280 C908 203 876 143 715 143 L439 143 Z M674 810 C676 782 668 769 646 769 C616 769 567 804 507 804 C433 804 387 757 384 630 L480 630 C478 657 486 671 508 671 C537 671 586 635 647 635 C721 635 770 680 770 810 L674 810 Z M352 859 L801 859 L801 983 L352 983 L352 859 Z " />
<glyph glyph-name="uni022E" unicode="&#x22e;" horiz-adv-x="1348" d="M827 -10 C1153 -10 1281 151 1281 350 C1281 549 1153 710 827 710 L521 710 C195 710 67 549 67 350 C67 151 195 -10 521 -10 L827 -10 Z M522 170 C325 170 278 249 278 350 C278 451 325 530 523 530 L826 530 C1023 530 1069 451 1069 350 C1069 249 1023 170 826 170 L522 170 Z M587 773 L761 773 L761 945 L587 945 L587 773 Z " />
<glyph glyph-name="uni022F" unicode="&#x22f;" horiz-adv-x="1153" d="M716 -8 C993 -8 1093 121 1093 280 C1093 439 993 568 716 568 L438 568 C161 568 60 439 60 280 C60 121 161 -8 438 -8 L716 -8 Z M439 143 C275 143 245 203 245 280 C245 357 275 417 439 417 L715 417 C876 417 908 357 908 280 C908 203 876 143 715 143 L439 143 Z M489 633 L663 633 L663 805 L489 805 L489 633 Z " />
<glyph glyph-name="uni0230" unicode="&#x230;" horiz-adv-x="1348" d="M827 -10 C1153 -10 1281 151 1281 350 C1281 549 1153 710 827 710 L521 710 C195 710 67 549 67 350 C67 151 195 -10 521 -10 L827 -10 Z M522 170 C325 170 278 249 278 350 C278 451 325 530 523 530 L826 530 C1023 530 1069 451 1069 350 C1069 249 1023 170 826 170 L522 170 Z M449 1001 L898 1001 L898 1125 L449 1125 L449 1001 Z M587 773 L761 773 L761 945 L587 945 L587 773 Z " />
<glyph glyph-name="uni0231" unicode="&#x231;" horiz-adv-x="1153" d="M716 -8 C993 -8 1093 121 1093 280 C1093 439 993 568 716 568 L438 568 C161 568 60 439 60 280 C60 121 161 -8 438 -8 L716 -8 Z M439 143 C275 143 245 203 245 280 C245 357 275 417 439 417 L715 417 C876 417 908 357 908 280 C908 203 876 143 715 143 L439 143 Z M352 861 L801 861 L801 985 L352 985 L352 861 Z M490 633 L664 633 L664 805 L490 805 L490 633 Z " />
<glyph glyph-name="uni0232" unicode="&#x232;" horiz-adv-x="1258" d="M530 0 L728 0 L728 211 L1266 700 L974 700 L630 371 L284 700 L-8 700 L530 211 L530 0 Z M405 798 L854 798 L854 922 L405 922 L405 798 Z " />
<glyph glyph-name="uni0233" unicode="&#x233;" horiz-adv-x="1070" d="M448 0 L622 0 L622 171 L1078 560 L819 560 L534 301 L251 560 L-8 560 L448 171 L448 0 Z M310 658 L759 658 L759 782 L310 782 L310 658 Z " />
<glyph glyph-name="uni0237" unicode="&#x237;" horiz-adv-x="1041" d="M320 -4 L607 -4 C876 -4 957 106 957 260 L957 560 L781 560 L781 260 C781 193 755 147 606 147 L321 147 C221 147 210 181 210 220 L210 276 L34 276 L34 220 C34 97 104 -4 320 -4 L320 -4 Z " />
<glyph glyph-name="uni0256" unicode="&#x256;" horiz-adv-x="1079" d="M-16 215 L104 215 L104 0 L652 0 C921 0 1019 126 1019 280 C1019 434 921 560 652 560 L104 560 L104 345 L-16 345 L-16 215 Z M651 409 C807 409 833 352 833 280 C833 208 807 151 651 151 L280 151 L280 215 L572 215 L572 345 L280 345 L280 409 L651 409 Z " />
<glyph glyph-name="uni02BB" unicode="&#x2bb;" horiz-adv-x="374" d="M285 525 L203 525 L286 700 L199 700 L89 509 L89 327 L285 327 L285 525 Z " />
<glyph glyph-name="uni02BC" unicode="&#x2bc;" horiz-adv-x="374" d="M89 502 L171 502 L89 327 L175 327 L285 518 L285 700 L89 700 L89 502 Z " />
<glyph glyph-name="uni02BD" unicode="&#x2bd;" horiz-adv-x="374" d="M285 700 L89 700 L89 518 L199 327 L286 327 L203 502 L285 502 L285 700 Z " />
<glyph glyph-name="circumflex" unicode="&#x2c6;" horiz-adv-x="500" d="M362 806 L137 806 L29 635 L157 635 L250 713 L342 635 L470 635 L362 806 Z " />
<glyph glyph-name="caron" unicode="&#x2c7;" horiz-adv-x="500" d="M470 806 L342 806 L250 728 L157 806 L29 806 L137 635 L362 635 L470 806 Z " />
<glyph glyph-name="uni02C9" unicode="&#x2c9;" horiz-adv-x="500" d="M25 658 L474 658 L474 782 L25 782 L25 658 Z " />
<glyph glyph-name="uni02CA" unicode="&#x2ca;" horiz-adv-x="500" d="M140 635 L268 635 L451 806 L235 806 L140 635 Z " />
<glyph glyph-name="uni02CB" unicode="&#x2cb;" horiz-adv-x="500" d="M264 806 L48 806 L231 635 L359 635 L264 806 Z " />
<glyph glyph-name="uni02CD" unicode="&#x2cd;" horiz-adv-x="500" d="M25 -223 L474 -223 L474 -99 L25 -99 L25 -223 Z " />
<glyph glyph-name="uni02CE" unicode="&#x2ce;" horiz-adv-x="500" d="M264 -75 L48 -75 L231 -246 L359 -246 L264 -75 Z " />
<glyph glyph-name="uni02CF" unicode="&#x2cf;" horiz-adv-x="500" d="M140 -246 L268 -246 L451 -75 L235 -75 L140 -246 Z " />
<glyph glyph-name="breve" unicode="&#x2d8;" horiz-adv-x="500" d="M250 752 C190 752 162 775 160 809 L52 809 C56 725 92 631 250 631 C407 631 444 725 448 809 L340 809 C336 775 309 752 250 752 L250 752 Z " />
<glyph glyph-name="dotaccent" unicode="&#x2d9;" horiz-adv-x="500" d="M163 633 L337 633 L337 805 L163 805 L163 633 Z " />
<glyph glyph-name="ring" unicode="&#x2da;" horiz-adv-x="500" d="M218 721 C218 738 233 753 251 753 C267 753 282 738 282 721 C282 704 267 690 251 690 C233 690 218 704 218 721 L218 721 Z M112 721 C112 653 166 601 251 601 C334 601 388 653 388 721 C388 789 334 841 251 841 C166 841 112 789 112 721 L112 721 Z " />
<glyph glyph-name="ogonek" unicode="&#x2db;" horiz-adv-x="500" d="M128 -185 C128 -251 192 -295 284 -295 C334 -295 386 -292 444 -272 L444 -187 C408 -202 390 -205 362 -205 C314 -205 281 -184 281 -142 C281 -79 331 -36 388 0 L291 0 C206 -35 128 -93 128 -185 L128 -185 Z " />
<glyph glyph-name="tilde" unicode="&#x2dc;" horiz-adv-x="500" d="M347 810 C349 782 341 769 319 769 C289 769 240 804 180 804 C106 804 60 757 57 630 L153 630 C151 657 159 671 181 671 C210 671 259 635 320 635 C394 635 443 680 443 810 L347 810 Z " />
<glyph glyph-name="hungarumlaut" unicode="&#x2dd;" horiz-adv-x="500" d="M-12 635 L116 635 L299 806 L83 806 L-12 635 Z M293 635 L421 635 L604 806 L387 806 L293 635 Z " />
<glyph glyph-name="uni02EC" unicode="&#x2ec;" horiz-adv-x="500" d="M470 -75 L342 -75 L250 -153 L157 -75 L29 -75 L137 -246 L362 -246 L470 -75 Z " />
<glyph glyph-name="uni02EE" unicode="&#x2ee;" horiz-adv-x="677" d="M89 502 L171 502 L89 327 L175 327 L285 518 L285 700 L89 700 L89 502 Z M391 502 L474 502 L391 327 L478 327 L588 518 L588 700 L391 700 L391 502 Z " />
<glyph glyph-name="gravecomb" unicode="&#x300;" d="M-593 806 L-809 806 L-626 635 L-498 635 L-593 806 Z " />
<glyph glyph-name="acutecomb" unicode="&#x301;" d="M-717 635 L-589 635 L-406 806 L-622 806 L-717 635 Z " />
<glyph glyph-name="uni0302" unicode="&#x302;" d="M-496 806 L-721 806 L-828 635 L-700 635 L-608 713 L-516 635 L-387 635 L-496 806 Z " />
<glyph glyph-name="tildecomb" unicode="&#x303;" d="M-510 810 C-508 782 -516 769 -537 769 C-568 769 -616 804 -677 804 C-751 804 -797 757 -800 630 L-703 630 C-705 657 -697 671 -676 671 C-647 671 -598 635 -536 635 C-462 635 -414 680 -414 810 L-510 810 Z " />
<glyph glyph-name="uni0304" unicode="&#x304;" d="M-832 658 L-383 658 L-383 782 L-832 782 L-832 658 Z " />
<glyph glyph-name="uni0306" unicode="&#x306;" d="M-608 752 C-668 752 -696 775 -698 809 L-806 809 C-802 725 -766 631 -608 631 C-451 631 -414 725 -410 809 L-518 809 C-522 775 -549 752 -608 752 L-608 752 Z " />
<glyph glyph-name="uni0307" unicode="&#x307;" d="M-695 633 L-521 633 L-521 805 L-695 805 L-695 633 Z " />
<glyph glyph-name="uni0308" unicode="&#x308;" d="M-542 633 L-368 633 L-368 805 L-542 805 L-542 633 Z M-847 633 L-673 633 L-673 805 L-847 805 L-847 633 Z " />
<glyph glyph-name="hookabovecomb" unicode="&#x309;" d="M-675 606 L-588 606 L-588 651 L-586 651 C-501 651 -416 670 -416 762 C-416 853 -498 872 -586 872 C-647 872 -709 859 -746 844 L-746 755 C-722 768 -677 780 -633 780 C-592 780 -555 777 -555 751 C-555 722 -577 721 -627 721 L-675 721 L-675 606 Z " />
<glyph glyph-name="uni030A" unicode="&#x30a;" d="M-640 721 C-640 738 -625 753 -607 753 C-590 753 -576 738 -576 721 C-576 704 -590 690 -607 690 C-625 690 -640 704 -640 721 L-640 721 Z M-746 721 C-746 653 -692 601 -607 601 C-524 601 -470 653 -470 721 C-470 789 -524 841 -607 841 C-692 841 -746 789 -746 721 L-746 721 Z " />
<glyph glyph-name="uni030B" unicode="&#x30b;" d="M-565 635 L-437 635 L-254 806 L-470 806 L-565 635 Z M-870 635 L-742 635 L-559 806 L-775 806 L-870 635 Z " />
<glyph glyph-name="uni030C" unicode="&#x30c;" d="M-387 806 L-516 806 L-608 728 L-700 806 L-828 806 L-721 635 L-496 635 L-387 806 Z " />
<glyph glyph-name="uni030F" unicode="&#x30f;" d="M-746 806 L-962 806 L-779 635 L-651 635 L-746 806 Z M-441 806 L-657 806 L-474 635 L-346 635 L-441 806 Z " />
<glyph glyph-name="uni0311" unicode="&#x311;" d="M-608 689 C-549 689 -522 666 -518 631 L-410 631 C-414 716 -451 809 -608 809 C-766 809 -802 716 -806 631 L-698 631 C-696 666 -668 689 -608 689 L-608 689 Z " />
<glyph glyph-name="uni0312" unicode="&#x312;" d="M-509 525 L-592 525 L-509 700 L-596 700 L-706 509 L-706 327 L-509 327 L-509 525 Z " />
<glyph glyph-name="uni0313" unicode="&#x313;" d="M-706 502 L-623 502 L-706 327 L-619 327 L-509 518 L-509 700 L-706 700 L-706 502 Z " />
<glyph glyph-name="uni0314" unicode="&#x314;" d="M-509 700 L-706 700 L-706 518 L-596 327 L-509 327 L-592 502 L-509 502 L-509 700 Z " />
<glyph glyph-name="uni0316" unicode="&#x316;" d="M-593 -75 L-809 -75 L-626 -246 L-498 -246 L-593 -75 Z " />
<glyph glyph-name="uni0317" unicode="&#x317;" d="M-717 -246 L-589 -246 L-406 -75 L-622 -75 L-717 -246 Z " />
<glyph glyph-name="uni031B" unicode="&#x31b;" d="M-138 462 L-57 462 C49 462 139 484 139 617 C139 638 137 660 133 686 L-53 686 C-50 665 -48 647 -48 632 C-48 570 -78 560 -111 560 L-138 560 L-138 462 Z " />
<glyph glyph-name="uni031C" unicode="&#x31c;" d="M-553 -40 C-638 -40 -692 -92 -692 -160 C-692 -228 -638 -280 -553 -280 L-553 -191 C-571 -191 -586 -177 -586 -160 C-586 -143 -571 -128 -553 -128 L-553 -40 Z " />
<glyph glyph-name="dotbelowcomb" unicode="&#x323;" d="M-695 -248 L-521 -248 L-521 -76 L-695 -76 L-695 -248 Z " />
<glyph glyph-name="uni0324" unicode="&#x324;" d="M-542 -248 L-368 -248 L-368 -76 L-542 -76 L-542 -248 Z M-847 -248 L-673 -248 L-673 -76 L-847 -76 L-847 -248 Z " />
<glyph glyph-name="uni0325" unicode="&#x325;" d="M-640 -160 C-640 -143 -625 -128 -607 -128 C-590 -128 -576 -143 -576 -160 C-576 -177 -590 -191 -607 -191 C-625 -191 -640 -177 -640 -160 L-640 -160 Z M-746 -160 C-746 -228 -692 -280 -607 -280 C-524 -280 -470 -228 -470 -160 C-470 -92 -524 -40 -607 -40 C-692 -40 -746 -92 -746 -160 L-746 -160 Z " />
<glyph glyph-name="uni0326" unicode="&#x326;" d="M-689 -248 L-628 -248 L-712 -392 L-625 -392 L-514 -232 L-514 -76 L-689 -76 L-689 -248 Z " />
<glyph glyph-name="uni0327" unicode="&#x327;" d="M-687 -147 L-641 -147 C-594 -148 -573 -152 -573 -181 C-573 -230 -712 -221 -755 -189 L-755 -275 C-678 -314 -440 -338 -440 -186 C-440 -96 -510 -71 -600 -71 L-582 0 L-649 0 L-687 -147 Z " />
<glyph glyph-name="uni0328" unicode="&#x328;" d="M-730 -185 C-730 -251 -666 -295 -574 -295 C-524 -295 -471 -292 -414 -272 L-414 -187 C-450 -202 -467 -205 -495 -205 C-543 -205 -576 -184 -576 -142 C-576 -79 -526 -36 -470 0 L-566 0 C-651 -35 -730 -93 -730 -185 L-730 -185 Z " />
<glyph glyph-name="uni032C" unicode="&#x32c;" d="M-387 -75 L-516 -75 L-608 -153 L-700 -75 L-828 -75 L-721 -246 L-496 -246 L-387 -75 Z " />
<glyph glyph-name="uni032D" unicode="&#x32d;" d="M-496 -75 L-721 -75 L-828 -246 L-700 -246 L-608 -168 L-516 -246 L-387 -246 L-496 -75 Z " />
<glyph glyph-name="uni032E" unicode="&#x32e;" d="M-608 -129 C-668 -129 -696 -106 -698 -72 L-806 -72 C-802 -156 -766 -250 -608 -250 C-451 -250 -414 -156 -410 -72 L-518 -72 C-522 -106 -549 -129 -608 -129 L-608 -129 Z " />
<glyph glyph-name="uni032F" unicode="&#x32f;" d="M-608 -192 C-549 -192 -522 -215 -518 -250 L-410 -250 C-414 -165 -451 -72 -608 -72 C-766 -72 -802 -165 -806 -250 L-698 -250 C-696 -215 -668 -192 -608 -192 L-608 -192 Z " />
<glyph glyph-name="uni0330" unicode="&#x330;" d="M-510 -71 C-508 -99 -516 -112 -537 -112 C-568 -112 -616 -77 -677 -77 C-751 -77 -797 -124 -800 -251 L-703 -251 C-705 -224 -697 -210 -676 -210 C-647 -210 -598 -246 -536 -246 C-462 -246 -414 -201 -414 -71 L-510 -71 Z " />
<glyph glyph-name="uni0331" unicode="&#x331;" d="M-832 -223 L-383 -223 L-383 -99 L-832 -99 L-832 -223 Z " />
<glyph glyph-name="uni0338" unicode="&#x338;" d="M-947 -76 L-770 -76 L-268 777 L-445 777 L-947 -76 Z " />
<glyph glyph-name="uni0339" unicode="&#x339;" d="M-662 -128 C-643 -128 -629 -143 -629 -160 C-629 -177 -643 -191 -662 -191 L-662 -280 C-577 -280 -523 -228 -523 -160 C-523 -92 -577 -40 -662 -40 L-662 -128 Z " />
<glyph glyph-name="uni0340" unicode="&#x340;" d="M-593 806 L-809 806 L-626 635 L-498 635 L-593 806 Z " />
<glyph glyph-name="uni0341" unicode="&#x341;" d="M-717 635 L-589 635 L-406 806 L-622 806 L-717 635 Z " />
<glyph glyph-name="uni0343" unicode="&#x343;" d="M-706 502 L-623 502 L-706 327 L-619 327 L-509 518 L-509 700 L-706 700 L-706 502 Z " />
<glyph glyph-name="uni0344" unicode="&#x344;" d="M-449 637 L-280 637 L-280 805 L-449 805 L-449 637 Z M-651 635 L-566 635 L-512 835 L-703 835 L-651 635 Z M-935 637 L-766 637 L-766 805 L-935 805 L-935 637 Z " />
<glyph glyph-name="uni034F" unicode="&#x34f;" d="" />
<glyph glyph-name="uni0351" unicode="&#x351;" d="M-553 841 C-638 841 -692 789 -692 721 C-692 653 -638 601 -553 601 L-553 690 C-571 690 -586 704 -586 721 C-586 738 -571 753 -553 753 L-553 841 Z " />
<glyph glyph-name="uni0357" unicode="&#x357;" d="M-662 753 C-643 753 -629 738 -629 721 C-629 704 -643 690 -662 690 L-662 601 C-577 601 -523 653 -523 721 C-523 789 -577 841 -662 841 L-662 753 Z " />
<glyph glyph-name="uni0374" unicode="&#x374;" horiz-adv-x="384" d="M104 400 L233 400 L339 700 L119 700 L104 400 Z " />
<glyph glyph-name="uni0375" unicode="&#x375;" horiz-adv-x="384" d="M104 -100 L233 -100 L339 200 L119 200 L104 -100 Z " />
<glyph glyph-name="uni037E" unicode="&#x37e;" horiz-adv-x="374" d="M89 0 L171 0 L89 -175 L175 -175 L285 16 L285 198 L89 198 L89 0 Z M89 362 L285 362 L285 560 L89 560 L89 362 Z " />
<glyph glyph-name="tonos" unicode="&#x384;" horiz-adv-x="500" d="M198 635 L301 635 L353 835 L145 835 L198 635 Z " />
<glyph glyph-name="dieresistonos" unicode="&#x385;" horiz-adv-x="500" d="M409 637 L578 637 L578 805 L409 805 L409 637 Z M-77 637 L92 637 L92 805 L-77 805 L-77 637 Z M206 635 L292 635 L346 835 L155 835 L206 635 Z " />
<glyph glyph-name="Alphatonos" unicode="&#x386;" horiz-adv-x="1295" d="M1050 0 L1293 0 L753 700 L544 700 L2 0 L245 0 L326 107 L968 107 L1050 0 Z M647 529 L845 269 L449 269 L647 529 Z M144 500 L247 500 L299 700 L91 700 L144 500 Z " />
<glyph glyph-name="anoteleia" unicode="&#x387;" horiz-adv-x="352" d="M89 193 L263 193 L263 365 L89 365 L89 193 Z " />
<glyph glyph-name="Epsilontonos" unicode="&#x388;" horiz-adv-x="1385" d="M300 0 L1313 0 L1313 180 L498 180 L498 270 L1211 270 L1211 430 L498 430 L498 520 L1313 520 L1313 700 L300 700 L300 0 Z M41 500 L144 500 L196 700 L-12 700 L41 500 Z " />
<glyph glyph-name="Etatonos" unicode="&#x389;" horiz-adv-x="1491" d="M1179 0 L1377 0 L1377 700 L1179 700 L1179 440 L498 440 L498 700 L300 700 L300 0 L498 0 L498 260 L1179 260 L1179 0 Z M41 500 L144 500 L196 700 L-12 700 L41 500 Z " />
<glyph glyph-name="Iotatonos" unicode="&#x38a;" horiz-adv-x="612" d="M300 0 L498 0 L498 700 L300 700 L300 0 Z M41 500 L144 500 L196 700 L-12 700 L41 500 Z " />
<glyph glyph-name="Omicrontonos" unicode="&#x38c;" horiz-adv-x="1493" d="M972 -10 C1298 -10 1426 151 1426 350 C1426 549 1298 710 972 710 L666 710 C340 710 212 549 212 350 C212 151 340 -10 666 -10 L972 -10 Z M667 170 C470 170 423 249 423 350 C423 451 470 530 668 530 L971 530 C1168 530 1214 451 1214 350 C1214 249 1168 170 971 170 L667 170 Z M41 500 L144 500 L196 700 L-12 700 L41 500 Z " />
<glyph glyph-name="Upsilontonos" unicode="&#x38e;" horiz-adv-x="1492" d="M764 0 L962 0 L962 211 L1500 700 L1208 700 L864 371 L518 700 L226 700 L764 211 L764 0 Z M41 500 L144 500 L196 700 L-12 700 L41 500 Z " />
<glyph glyph-name="Omegatonos" unicode="&#x38f;" horiz-adv-x="1487" d="M955 0 L1426 0 L1426 180 L1325 180 C1373 240 1396 311 1396 392 C1396 567 1282 710 994 710 L624 710 C336 710 222 567 222 392 C222 311 244 240 293 180 L192 180 L192 0 L663 0 L663 148 C472 169 416 248 416 345 C416 448 464 530 664 530 L954 530 C1154 530 1202 448 1202 345 C1202 248 1146 169 955 148 L955 0 Z M41 500 L144 500 L196 700 L-12 700 L41 500 Z " />
<glyph glyph-name="iotadieresistonos" unicode="&#x390;" horiz-adv-x="384" d="M104 0 L280 0 L280 560 L104 560 L104 0 Z M351 637 L520 637 L520 805 L351 805 L351 637 Z M-135 637 L34 637 L34 805 L-135 805 L-135 637 Z M148 635 L234 635 L288 835 L97 835 L148 635 Z " />
<glyph glyph-name="Alpha" unicode="&#x391;" horiz-adv-x="1295" d="M1050 0 L1293 0 L753 700 L544 700 L2 0 L245 0 L326 107 L968 107 L1050 0 Z M647 529 L845 269 L449 269 L647 529 Z " />
<glyph glyph-name="Beta" unicode="&#x392;" horiz-adv-x="1259" d="M114 0 L949 0 C1121 0 1187 84 1187 187 C1187 270 1147 339 1046 364 C1110 398 1137 455 1137 519 C1137 621 1073 700 908 700 L114 700 L114 0 Z M895 270 C966 270 975 248 975 225 C975 203 966 180 895 180 L312 180 L312 270 L895 270 Z M934 475 C934 453 925 430 852 430 L312 430 L312 520 L854 520 C925 520 934 498 934 475 L934 475 Z " />
<glyph glyph-name="Gamma" unicode="&#x393;" horiz-adv-x="1129" d="M114 0 L312 0 L312 520 L1107 520 L1107 700 L114 700 L114 0 Z " />
<glyph glyph-name="Delta" unicode="&#x394;" horiz-adv-x="1295" d="M753 700 L544 700 L2 0 L1293 0 L753 700 Z M647 535 L919 180 L377 180 L647 535 Z " />
<glyph glyph-name="Epsilon" unicode="&#x395;" horiz-adv-x="1199" d="M114 0 L1127 0 L1127 180 L312 180 L312 270 L1025 270 L1025 430 L312 430 L312 520 L1127 520 L1127 700 L114 700 L114 0 Z " />
<glyph glyph-name="Zeta" unicode="&#x396;" horiz-adv-x="1205" d="M64 0 L1151 0 L1151 180 L457 180 L1131 563 L1131 700 L74 700 L74 520 L737 520 L64 137 L64 0 Z " />
<glyph glyph-name="Eta" unicode="&#x397;" horiz-adv-x="1305" d="M993 0 L1191 0 L1191 700 L993 700 L993 440 L312 440 L312 700 L114 700 L114 0 L312 0 L312 260 L993 260 L993 0 Z " />
<glyph glyph-name="Theta" unicode="&#x398;" horiz-adv-x="1348" d="M453 270 L894 270 L894 430 L453 430 L453 270 Z M827 -10 C1153 -10 1281 151 1281 350 C1281 549 1153 710 827 710 L521 710 C195 710 67 549 67 350 C67 151 195 -10 521 -10 L827 -10 Z M522 170 C325 170 278 249 278 350 C278 451 325 530 523 530 L826 530 C1023 530 1069 451 1069 350 C1069 249 1023 170 826 170 L522 170 Z " />
<glyph glyph-name="Iota" unicode="&#x399;" horiz-adv-x="426" d="M114 0 L312 0 L312 700 L114 700 L114 0 Z " />
<glyph glyph-name="Kappa" unicode="&#x39a;" horiz-adv-x="1303" d="M1215 700 L874 700 L312 336 L312 700 L114 700 L114 0 L312 0 L312 142 L556 293 L976 0 L1306 0 L726 397 L1215 700 Z " />
<glyph glyph-name="Lambda" unicode="&#x39b;" horiz-adv-x="1295" d="M544 700 L2 0 L254 0 L647 529 L1043 0 L1293 0 L753 700 L544 700 Z " />
<glyph glyph-name="Mu" unicode="&#x39c;" horiz-adv-x="1458" d="M1156 700 L728 284 L302 700 L114 700 L114 0 L312 0 L312 427 L728 16 L1146 427 L1146 0 L1344 0 L1344 700 L1156 700 Z " />
<glyph glyph-name="Nu" unicode="&#x39d;" horiz-adv-x="1309" d="M1008 0 L1195 0 L1195 700 L997 700 L997 232 L301 700 L114 700 L114 0 L312 0 L312 468 L1008 0 Z " />
<glyph glyph-name="Xi" unicode="&#x39e;" horiz-adv-x="1207" d="M72 520 L1135 520 L1135 700 L72 700 L72 520 Z M1043 430 L164 430 L164 270 L1043 270 L1043 430 Z M72 0 L1135 0 L1135 180 L72 180 L72 0 Z " />
<glyph glyph-name="Omicron" unicode="&#x39f;" horiz-adv-x="1348" d="M827 -10 C1153 -10 1281 151 1281 350 C1281 549 1153 710 827 710 L521 710 C195 710 67 549 67 350 C67 151 195 -10 521 -10 L827 -10 Z M522 170 C325 170 278 249 278 350 C278 451 325 530 523 530 L826 530 C1023 530 1069 451 1069 350 C1069 249 1023 170 826 170 L522 170 Z " />
<glyph glyph-name="Pi" unicode="&#x3a0;" horiz-adv-x="1305" d="M993 0 L1191 0 L1191 700 L114 700 L114 0 L312 0 L312 520 L993 520 L993 0 Z " />
<glyph glyph-name="Rho" unicode="&#x3a1;" horiz-adv-x="1196" d="M114 0 L312 0 L312 220 L868 220 C1087 220 1172 325 1172 461 C1172 592 1087 700 868 700 L114 700 L114 0 Z M864 520 C954 520 966 492 966 461 C966 427 954 400 864 400 L312 400 L312 520 L864 520 Z " />
<glyph glyph-name="Sigma" unicode="&#x3a3;" horiz-adv-x="1177" d="M72 553 L488 350 L72 147 L72 0 L1105 0 L1105 180 L481 180 L832 350 L481 520 L1105 520 L1105 700 L72 700 L72 553 Z " />
<glyph glyph-name="Tau" unicode="&#x3a4;" horiz-adv-x="1184" d="M22 520 L494 520 L494 0 L690 0 L690 520 L1162 520 L1162 700 L22 700 L22 520 Z " />
<glyph glyph-name="Upsilon" unicode="&#x3a5;" horiz-adv-x="1258" d="M530 0 L728 0 L728 211 L1266 700 L974 700 L630 371 L284 700 L-8 700 L530 211 L530 0 Z " />
<glyph glyph-name="Phi" unicode="&#x3a6;" horiz-adv-x="1305" d="M892 62 C1156 62 1257 188 1257 350 C1257 508 1156 638 892 638 L750 638 L750 750 L554 750 L554 638 L413 638 C149 638 48 508 48 350 C48 188 149 62 413 62 L554 62 L554 -50 L750 -50 L750 62 L892 62 Z M890 458 C1024 458 1046 410 1046 350 C1046 290 1024 242 890 242 L750 242 L750 458 L890 458 Z M259 350 C259 410 281 458 415 458 L554 458 L554 242 L415 242 C281 242 259 290 259 350 L259 350 Z " />
<glyph glyph-name="Chi" unicode="&#x3a7;" horiz-adv-x="1228" d="M5 700 L454 352 L0 0 L311 0 L614 250 L917 0 L1228 0 L774 352 L1223 700 L912 700 L614 454 L316 700 L5 700 Z " />
<glyph glyph-name="Psi" unicode="&#x3a8;" horiz-adv-x="1296" d="M550 0 L746 0 L746 129 L821 129 C1138 129 1242 266 1242 459 L1242 700 L1044 700 L1044 459 C1044 370 1003 309 820 309 L746 309 L746 700 L550 700 L550 309 L476 309 C293 309 252 370 252 459 L252 700 L54 700 L54 459 C54 266 158 129 475 129 L550 129 L550 0 Z " />
<glyph glyph-name="Omega" unicode="&#x3a9;" horiz-adv-x="1356" d="M824 0 L1295 0 L1295 180 L1194 180 C1242 240 1265 311 1265 392 C1265 567 1151 710 863 710 L493 710 C205 710 91 567 91 392 C91 311 113 240 162 180 L61 180 L61 0 L532 0 L532 148 C341 169 285 248 285 345 C285 448 333 530 533 530 L823 530 C1023 530 1071 448 1071 345 C1071 248 1015 169 824 148 L824 0 Z " />
<glyph glyph-name="Iotadieresis" unicode="&#x3aa;" horiz-adv-x="426" d="M114 0 L312 0 L312 700 L114 700 L114 0 Z M-27 773 L147 773 L147 945 L-27 945 L-27 773 Z M278 773 L452 773 L452 945 L278 945 L278 773 Z " />
<glyph glyph-name="Upsilondieresis" unicode="&#x3ab;" horiz-adv-x="1258" d="M530 0 L728 0 L728 211 L1266 700 L974 700 L630 371 L284 700 L-8 700 L530 211 L530 0 Z M390 773 L564 773 L564 945 L390 945 L390 773 Z M695 773 L869 773 L869 945 L695 945 L695 773 Z " />
<glyph glyph-name="alphatonos" unicode="&#x3ac;" horiz-adv-x="1107" d="M888 0 L1104 0 L646 560 L461 560 L3 0 L219 0 L291 91 L815 91 L888 0 Z M553 416 L708 223 L398 223 L553 416 Z M104 360 L207 360 L259 560 L51 560 L104 360 Z " />
<glyph glyph-name="epsilontonos" unicode="&#x3ad;" horiz-adv-x="1217" d="M290 0 L1153 0 L1153 151 L466 151 L466 215 L1065 215 L1065 345 L466 345 L466 409 L1153 409 L1153 560 L290 560 L290 0 Z M41 360 L144 360 L196 560 L-12 560 L41 360 Z " />
<glyph glyph-name="etatonos" unicode="&#x3ae;" horiz-adv-x="1310" d="M1031 0 L1207 0 L1207 560 L1031 560 L1031 356 L466 356 L466 560 L290 560 L290 0 L466 0 L466 204 L1031 204 L1031 0 Z M41 360 L144 360 L196 560 L-12 560 L41 360 Z " />
<glyph glyph-name="iotatonos" unicode="&#x3af;" horiz-adv-x="569" d="M290 0 L466 0 L466 560 L290 560 L290 0 Z M41 360 L144 360 L196 560 L-12 560 L41 360 Z " />
<glyph glyph-name="upsilondieresistonos" unicode="&#x3b0;" horiz-adv-x="1070" d="M448 0 L622 0 L622 171 L1078 560 L819 560 L534 301 L251 560 L-8 560 L448 171 L448 0 Z M694 637 L863 637 L863 805 L694 805 L694 637 Z M208 637 L377 637 L377 805 L208 805 L208 637 Z M491 635 L577 635 L631 835 L440 835 L491 635 Z " />
<glyph glyph-name="alpha" unicode="&#x3b1;" horiz-adv-x="1107" d="M888 0 L1104 0 L646 560 L461 560 L3 0 L219 0 L291 91 L815 91 L888 0 Z M553 416 L708 223 L398 223 L553 416 Z " />
<glyph glyph-name="beta" unicode="&#x3b2;" horiz-adv-x="1082" d="M104 0 L821 0 C968 0 1018 67 1018 150 C1018 216 982 271 898 292 C951 320 975 363 975 415 C975 497 927 560 787 560 L104 560 L104 0 Z M770 215 C826 215 828 199 828 182 C828 168 826 151 770 151 L280 151 L280 215 L770 215 Z M733 345 L280 345 L280 409 L735 409 C790 409 793 393 793 378 C793 361 789 345 733 345 L733 345 Z " />
<glyph glyph-name="gamma" unicode="&#x3b3;" horiz-adv-x="985" d="M104 0 L280 0 L280 409 L950 409 L950 560 L104 560 L104 0 Z " />
<glyph glyph-name="delta" unicode="&#x3b4;" horiz-adv-x="1107" d="M646 560 L461 560 L3 0 L1104 0 L646 560 Z M553 419 L772 151 L334 151 L553 419 Z " />
<glyph glyph-name="epsilon" unicode="&#x3b5;" horiz-adv-x="1032" d="M104 0 L967 0 L967 151 L280 151 L280 215 L879 215 L879 345 L280 345 L280 409 L967 409 L967 560 L104 560 L104 0 Z " />
<glyph glyph-name="zeta" unicode="&#x3b6;" horiz-adv-x="1031" d="M57 0 L984 0 L984 151 L404 151 L967 444 L967 560 L66 560 L66 409 L616 409 L57 116 L57 0 Z " />
<glyph glyph-name="eta" unicode="&#x3b7;" horiz-adv-x="1125" d="M845 0 L1021 0 L1021 560 L845 560 L845 356 L280 356 L280 560 L104 560 L104 0 L280 0 L280 204 L845 204 L845 0 Z " />
<glyph glyph-name="theta" unicode="&#x3b8;" horiz-adv-x="1153" d="M393 215 L757 215 L757 345 L393 345 L393 215 Z M716 -8 C993 -8 1093 121 1093 280 C1093 439 993 568 716 568 L438 568 C161 568 60 439 60 280 C60 121 161 -8 438 -8 L716 -8 Z M439 143 C275 143 245 203 245 280 C245 357 275 417 439 417 L715 417 C876 417 908 357 908 280 C908 203 876 143 715 143 L439 143 Z " />
<glyph glyph-name="iota" unicode="&#x3b9;" horiz-adv-x="384" d="M104 0 L280 0 L280 560 L104 560 L104 0 Z " />
<glyph glyph-name="kappa" unicode="&#x3ba;" horiz-adv-x="1122" d="M1049 560 L735 560 L280 282 L280 560 L104 560 L104 0 L280 0 L280 112 L483 230 L827 0 L1120 0 L632 317 L1049 560 Z " />
<glyph glyph-name="lambda" unicode="&#x3bb;" horiz-adv-x="1107" d="M461 560 L3 0 L224 0 L553 416 L883 0 L1104 0 L646 560 L461 560 Z " />
<glyph glyph-name="mu" unicode="&#x3bc;" horiz-adv-x="1256" d="M983 560 L627 238 L271 560 L104 560 L104 0 L280 0 L280 330 L627 11 L976 330 L976 0 L1152 0 L1152 560 L983 560 Z " />
<glyph glyph-name="nu" unicode="&#x3bd;" horiz-adv-x="1129" d="M1025 0 L1025 560 L851 560 L851 196 L270 560 L104 560 L104 0 L280 0 L280 364 L859 0 L1025 0 Z " />
<glyph glyph-name="xi" unicode="&#x3be;" horiz-adv-x="1035" d="M65 409 L970 409 L970 560 L65 560 L65 409 Z M891 345 L144 345 L144 215 L891 215 L891 345 Z M65 0 L970 0 L970 151 L65 151 L65 0 Z " />
<glyph glyph-name="omicron" unicode="&#x3bf;" horiz-adv-x="1153" d="M716 -8 C993 -8 1093 121 1093 280 C1093 439 993 568 716 568 L438 568 C161 568 60 439 60 280 C60 121 161 -8 438 -8 L716 -8 Z M439 143 C275 143 245 203 245 280 C245 357 275 417 439 417 L715 417 C876 417 908 357 908 280 C908 203 876 143 715 143 L439 143 Z " />
<glyph glyph-name="pi" unicode="&#x3c0;" horiz-adv-x="1125" d="M845 0 L1021 0 L1021 560 L104 560 L104 0 L280 0 L280 409 L845 409 L845 0 Z " />
<glyph glyph-name="rho" unicode="&#x3c1;" horiz-adv-x="1039" d="M104 0 L280 0 L280 172 L750 172 C938 172 1005 258 1005 366 C1005 472 938 560 750 560 L104 560 L104 0 Z M746 409 C821 409 822 390 822 366 C822 342 821 324 746 324 L280 324 L280 409 L746 409 Z " />
<glyph glyph-name="uni03C2" unicode="&#x3c2;" horiz-adv-x="1008" d="M64 435 L413 280 L64 125 L64 0 L944 0 L944 151 L425 151 L717 280 L425 409 L944 409 L944 560 L64 560 L64 435 Z " />
<glyph glyph-name="sigma" unicode="&#x3c3;" horiz-adv-x="1008" d="M64 435 L413 280 L64 125 L64 0 L944 0 L944 151 L425 151 L717 280 L425 409 L944 409 L944 560 L64 560 L64 435 Z " />
<glyph glyph-name="tau" unicode="&#x3c4;" horiz-adv-x="1039" d="M35 409 L432 409 L432 0 L608 0 L608 409 L1004 409 L1004 560 L35 560 L35 409 Z " />
<glyph glyph-name="upsilon" unicode="&#x3c5;" horiz-adv-x="1070" d="M448 0 L622 0 L622 171 L1078 560 L819 560 L534 301 L251 560 L-8 560 L448 171 L448 0 Z " />
<glyph glyph-name="phi" unicode="&#x3c6;" horiz-adv-x="1127" d="M774 50 C999 50 1078 150 1078 280 C1078 406 999 510 774 510 L651 510 L651 600 L475 600 L475 510 L353 510 C129 510 49 406 49 280 C49 150 129 50 353 50 L475 50 L475 -40 L651 -40 L651 50 L774 50 Z M772 359 C876 359 895 324 895 280 C895 237 876 201 772 201 L651 201 L651 359 L772 359 Z M233 280 C233 324 251 359 355 359 L475 359 L475 201 L355 201 C251 201 233 237 233 280 L233 280 Z " />
<glyph glyph-name="chi" unicode="&#x3c7;" horiz-adv-x="1059" d="M7 560 L390 282 L2 0 L284 0 L529 194 L775 0 L1057 0 L668 282 L1053 560 L771 560 L529 370 L289 560 L7 560 Z " />
<glyph glyph-name="psi" unicode="&#x3c8;" horiz-adv-x="1113" d="M468 0 L644 0 L644 101 L710 101 C980 101 1062 211 1062 365 L1062 560 L886 560 L886 365 C886 298 859 254 709 254 L644 254 L644 560 L468 560 L468 254 L403 254 C252 254 224 298 224 365 L224 560 L51 560 L51 365 C51 211 133 101 402 101 L468 101 L468 0 Z " />
<glyph glyph-name="omega" unicode="&#x3c9;" horiz-adv-x="1167" d="M706 0 L1109 0 L1109 151 L1032 151 C1065 199 1083 252 1083 314 C1083 454 994 568 750 568 L417 568 C173 568 84 454 84 314 C84 252 99 199 135 151 L58 151 L58 0 L461 0 L461 126 C301 140 254 200 254 275 C254 355 286 417 453 417 L714 417 C882 417 912 355 912 275 C912 200 866 140 706 126 L706 0 Z " />
<glyph glyph-name="iotadieresis" unicode="&#x3ca;" horiz-adv-x="384" d="M104 0 L280 0 L280 560 L104 560 L104 0 Z M-47 633 L127 633 L127 805 L-47 805 L-47 633 Z M258 633 L432 633 L432 805 L258 805 L258 633 Z " />
<glyph glyph-name="upsilondieresis" unicode="&#x3cb;" horiz-adv-x="1070" d="M448 0 L622 0 L622 171 L1078 560 L819 560 L534 301 L251 560 L-8 560 L448 171 L448 0 Z M296 633 L470 633 L470 805 L296 805 L296 633 Z M601 633 L775 633 L775 805 L601 805 L601 633 Z " />
<glyph glyph-name="omicrontonos" unicode="&#x3cc;" horiz-adv-x="1320" d="M884 -8 C1161 -8 1261 121 1261 280 C1261 439 1161 568 884 568 L606 568 C329 568 228 439 228 280 C228 121 329 -8 606 -8 L884 -8 Z M607 143 C443 143 413 203 413 280 C413 357 443 417 607 417 L883 417 C1044 417 1076 357 1076 280 C1076 203 1044 143 883 143 L607 143 Z M41 360 L144 360 L196 560 L-12 560 L41 360 Z " />
<glyph glyph-name="upsilontonos" unicode="&#x3cd;" horiz-adv-x="1303" d="M682 0 L856 0 L856 171 L1312 560 L1053 560 L768 301 L485 560 L226 560 L682 171 L682 0 Z M41 360 L144 360 L196 560 L-12 560 L41 360 Z " />
<glyph glyph-name="omegatonos" unicode="&#x3ce;" horiz-adv-x="1315" d="M855 0 L1258 0 L1258 151 L1181 151 C1214 199 1232 252 1232 314 C1232 454 1143 568 899 568 L566 568 C322 568 233 454 233 314 C233 252 248 199 284 151 L207 151 L207 0 L610 0 L610 126 C450 140 403 200 403 275 C403 355 435 417 602 417 L863 417 C1031 417 1061 355 1061 275 C1061 200 1015 140 855 126 L855 0 Z M41 360 L144 360 L196 560 L-12 560 L41 360 Z " />
<glyph glyph-name="uni0400" unicode="&#x400;" horiz-adv-x="1199" d="M114 0 L1127 0 L1127 180 L312 180 L312 270 L1025 270 L1025 430 L312 430 L312 520 L1127 520 L1127 700 L114 700 L114 0 Z M623 946 L407 946 L590 775 L718 775 L623 946 Z " />
<glyph glyph-name="uni0401" unicode="&#x401;" horiz-adv-x="1199" d="M114 0 L1127 0 L1127 180 L312 180 L312 270 L1025 270 L1025 430 L312 430 L312 520 L1127 520 L1127 700 L114 700 L114 0 Z M370 773 L544 773 L544 945 L370 945 L370 773 Z M675 773 L849 773 L849 945 L675 945 L675 773 Z " />
<glyph glyph-name="uni0402" unicode="&#x402;" horiz-adv-x="1354" d="M779 0 L1052 0 C1252 0 1330 95 1330 215 C1330 339 1252 430 1052 430 L530 430 L530 520 L965 520 L965 700 L22 700 L22 520 L332 520 L332 -1 L530 -1 L530 270 L1048 270 C1119 270 1120 248 1120 225 C1120 203 1119 180 1048 180 L779 180 L779 0 Z " />
<glyph glyph-name="uni0403" unicode="&#x403;" horiz-adv-x="1129" d="M114 0 L312 0 L312 520 L1107 520 L1107 700 L114 700 L114 0 Z M500 775 L628 775 L811 946 L595 946 L500 775 Z " />
<glyph glyph-name="uni0404" unicode="&#x404;" horiz-adv-x="1184" d="M1010 270 L1010 430 L279 430 C307 485 376 520 509 520 L1112 520 L1112 700 L508 700 C191 700 67 543 67 350 C67 157 191 0 508 0 L1112 0 L1112 180 L509 180 C376 180 307 214 279 270 L1010 270 Z " />
<glyph glyph-name="uni0405" unicode="&#x405;" horiz-adv-x="1207" d="M104 0 L865 0 C1065 0 1143 95 1143 215 C1143 339 1065 430 865 430 L346 430 C275 430 270 452 270 475 C270 497 275 520 346 520 L1103 520 L1103 700 L342 700 C142 700 64 605 64 485 C64 361 142 270 342 270 L861 270 C932 270 937 248 937 225 C937 203 932 180 861 180 L104 180 L104 0 Z " />
<glyph glyph-name="uni0406" unicode="&#x406;" horiz-adv-x="426" d="M114 0 L312 0 L312 700 L114 700 L114 0 Z " />
<glyph glyph-name="uni0407" unicode="&#x407;" horiz-adv-x="426" d="M114 0 L312 0 L312 700 L114 700 L114 0 Z M-27 773 L147 773 L147 945 L-27 945 L-27 773 Z M278 773 L452 773 L452 945 L278 945 L278 773 Z " />
<glyph glyph-name="uni0408" unicode="&#x408;" horiz-adv-x="1231" d="M377 -5 L696 -5 C1013 -5 1117 132 1117 325 L1117 700 L919 700 L919 325 C919 236 878 175 695 175 L378 175 C256 175 232 221 232 275 L232 342 L34 342 L34 275 C34 121 123 -5 377 -5 L377 -5 Z " />
<glyph glyph-name="uni0409" unicode="&#x409;" horiz-adv-x="1862" d="M291 700 L228 246 C222 209 197 180 130 180 L22 180 L22 0 L114 0 C327 0 405 98 426 246 L464 520 L854 520 L854 0 L1534 0 C1753 0 1838 105 1838 239 C1838 372 1753 480 1534 480 L1050 480 L1050 700 L291 700 Z M1530 300 C1620 300 1628 272 1628 239 C1628 207 1620 180 1530 180 L1050 180 L1050 300 L1530 300 Z " />
<glyph glyph-name="uni040A" unicode="&#x40a;" horiz-adv-x="1876" d="M868 0 L1548 0 C1767 0 1852 105 1852 239 C1852 372 1767 480 1548 480 L1064 480 L1064 700 L868 700 L868 480 L312 480 L312 700 L114 700 L114 0 L312 0 L312 300 L868 300 L868 0 Z M1544 300 C1634 300 1642 272 1642 239 C1642 207 1634 180 1544 180 L1064 180 L1064 300 L1544 300 Z " />
<glyph glyph-name="uni040B" unicode="&#x40b;" horiz-adv-x="1384" d="M1330 -1 L1330 201 C1330 328 1266 426 1058 426 L530 426 L530 520 L965 520 L965 700 L22 700 L22 520 L332 520 L332 -1 L530 -1 L530 245 L1063 245 C1130 245 1132 218 1132 183 L1132 -1 L1330 -1 Z " />
<glyph glyph-name="uni040C" unicode="&#x40c;" horiz-adv-x="1302" d="M477 775 L605 775 L788 946 L572 946 L477 775 Z M760 356 L1211 700 L909 700 L587 440 L312 440 L312 700 L114 700 L114 0 L312 0 L312 260 L586 260 L977 0 L1305 0 L760 356 Z " />
<glyph glyph-name="uni040D" unicode="&#x40d;" horiz-adv-x="1309" d="M668 946 L452 946 L635 775 L763 775 L668 946 Z M997 468 L997 0 L1195 0 L1195 700 L1008 700 L312 232 L312 700 L114 700 L114 0 L301 0 L997 468 Z " />
<glyph glyph-name="uni040E" unicode="&#x40e;" horiz-adv-x="1264" d="M650 892 C590 892 562 915 560 949 L452 949 C456 865 492 771 650 771 C807 771 844 865 848 949 L740 949 C736 915 709 892 650 892 L650 892 Z M537 0 L1273 700 L993 700 L649 356 L281 700 L-6 700 L516 230 L256 0 L537 0 Z " />
<glyph glyph-name="uni040F" unicode="&#x40f;" horiz-adv-x="1305" d="M993 180 L312 180 L312 700 L114 700 L114 0 L553 0 L553 -150 L751 -150 L751 0 L1191 0 L1191 700 L993 700 L993 180 Z " />
<glyph glyph-name="uni0410" unicode="&#x410;" horiz-adv-x="1295" d="M1050 0 L1293 0 L753 700 L544 700 L2 0 L245 0 L326 107 L968 107 L1050 0 Z M647 529 L845 269 L449 269 L647 529 Z " />
<glyph glyph-name="uni0411" unicode="&#x411;" horiz-adv-x="1236" d="M114 0 L894 0 C1094 0 1172 95 1172 215 C1172 339 1094 430 894 430 L312 430 L312 520 L1107 520 L1107 700 L114 700 L114 0 Z M890 270 C961 270 962 248 962 225 C962 203 961 180 890 180 L312 180 L312 270 L890 270 Z " />
<glyph glyph-name="uni0412" unicode="&#x412;" horiz-adv-x="1259" d="M114 0 L949 0 C1121 0 1187 84 1187 187 C1187 270 1147 339 1046 364 C1110 398 1137 455 1137 519 C1137 621 1073 700 908 700 L114 700 L114 0 Z M895 270 C966 270 975 248 975 225 C975 203 966 180 895 180 L312 180 L312 270 L895 270 Z M934 475 C934 453 925 430 852 430 L312 430 L312 520 L854 520 C925 520 934 498 934 475 L934 475 Z " />
<glyph glyph-name="uni0413" unicode="&#x413;" horiz-adv-x="1129" d="M114 0 L312 0 L312 520 L1107 520 L1107 700 L114 700 L114 0 Z " />
<glyph glyph-name="uni0414" unicode="&#x414;" horiz-adv-x="1251" d="M220 0 L996 0 L996 -150 L1194 -150 L1194 180 L1107 180 L1107 700 L291 700 L228 246 C223 211 200 180 143 180 L22 180 L22 -150 L220 -150 L220 0 Z M432 297 L464 520 L909 520 L909 180 L389 180 C412 210 425 249 432 297 L432 297 Z " />
<glyph glyph-name="uni0415" unicode="&#x415;" horiz-adv-x="1199" d="M114 0 L1127 0 L1127 180 L312 180 L312 270 L1025 270 L1025 430 L312 430 L312 520 L1127 520 L1127 700 L114 700 L114 0 Z " />
<glyph glyph-name="uni0416" unicode="&#x416;" horiz-adv-x="1645" d="M1227 352 L1583 700 L1313 700 L1060 440 L920 440 L920 700 L724 700 L724 440 L585 440 L332 700 L62 700 L418 352 L12 0 L296 0 L585 260 L724 260 L724 0 L920 0 L920 260 L1060 260 L1349 0 L1633 0 L1227 352 Z " />
<glyph glyph-name="uni0417" unicode="&#x417;" horiz-adv-x="1269" d="M62 0 L959 0 C1131 0 1197 84 1197 187 C1197 270 1157 339 1056 364 C1120 398 1147 455 1147 519 C1147 621 1083 700 918 700 L82 700 L82 520 L864 520 C935 520 944 497 944 474 C944 452 935 430 862 430 L169 430 L169 270 L905 270 C976 270 985 249 985 226 C985 204 976 180 905 180 L62 180 L62 0 Z " />
<glyph glyph-name="uni0418" unicode="&#x418;" horiz-adv-x="1309" d="M997 468 L997 0 L1195 0 L1195 700 L1008 700 L312 232 L312 700 L114 700 L114 0 L301 0 L997 468 Z " />
<glyph glyph-name="uni0419" unicode="&#x419;" horiz-adv-x="1309" d="M654 892 C594 892 566 915 564 949 L456 949 C460 865 496 771 654 771 C811 771 848 865 852 949 L744 949 C740 915 713 892 654 892 L654 892 Z M997 468 L997 0 L1195 0 L1195 700 L1008 700 L312 232 L312 700 L114 700 L114 0 L301 0 L997 468 Z " />
<glyph glyph-name="uni041A" unicode="&#x41a;" horiz-adv-x="1302" d="M760 356 L1211 700 L909 700 L587 440 L312 440 L312 700 L114 700 L114 0 L312 0 L312 260 L586 260 L977 0 L1305 0 L760 356 Z " />
<glyph glyph-name="uni041B" unicode="&#x41b;" horiz-adv-x="1258" d="M291 700 L228 246 C222 209 197 180 130 180 L22 180 L22 0 L114 0 C327 0 404 97 426 246 L464 520 L946 520 L946 0 L1144 0 L1144 700 L291 700 Z " />
<glyph glyph-name="uni041C" unicode="&#x41c;" horiz-adv-x="1458" d="M1156 700 L728 284 L302 700 L114 700 L114 0 L312 0 L312 427 L728 16 L1146 427 L1146 0 L1344 0 L1344 700 L1156 700 Z " />
<glyph glyph-name="uni041D" unicode="&#x41d;" horiz-adv-x="1305" d="M993 0 L1191 0 L1191 700 L993 700 L993 440 L312 440 L312 700 L114 700 L114 0 L312 0 L312 260 L993 260 L993 0 Z " />
<glyph glyph-name="uni041E" unicode="&#x41e;" horiz-adv-x="1348" d="M827 -10 C1153 -10 1281 151 1281 350 C1281 549 1153 710 827 710 L521 710 C195 710 67 549 67 350 C67 151 195 -10 521 -10 L827 -10 Z M522 170 C325 170 278 249 278 350 C278 451 325 530 523 530 L826 530 C1023 530 1069 451 1069 350 C1069 249 1023 170 826 170 L522 170 Z " />
<glyph glyph-name="uni041F" unicode="&#x41f;" horiz-adv-x="1305" d="M993 0 L1191 0 L1191 700 L114 700 L114 0 L312 0 L312 520 L993 520 L993 0 Z " />
<glyph glyph-name="uni0420" unicode="&#x420;" horiz-adv-x="1196" d="M114 0 L312 0 L312 220 L868 220 C1087 220 1172 325 1172 461 C1172 592 1087 700 868 700 L114 700 L114 0 Z M864 520 C954 520 966 492 966 461 C966 427 954 400 864 400 L312 400 L312 520 L864 520 Z " />
<glyph glyph-name="uni0421" unicode="&#x421;" horiz-adv-x="1184" d="M279 350 C279 445 321 520 509 520 L1112 520 L1112 700 L508 700 C191 700 67 543 67 350 C67 157 191 0 508 0 L1112 0 L1112 180 L509 180 C321 180 279 255 279 350 L279 350 Z " />
<glyph glyph-name="uni0422" unicode="&#x422;" horiz-adv-x="1184" d="M22 520 L494 520 L494 0 L690 0 L690 520 L1162 520 L1162 700 L22 700 L22 520 Z " />
<glyph glyph-name="uni0423" unicode="&#x423;" horiz-adv-x="1264" d="M537 0 L1273 700 L993 700 L649 356 L281 700 L-6 700 L516 230 L256 0 L537 0 Z " />
<glyph glyph-name="uni0424" unicode="&#x424;" horiz-adv-x="1305" d="M892 62 C1156 62 1257 188 1257 350 C1257 508 1156 638 892 638 L750 638 L750 750 L554 750 L554 638 L413 638 C149 638 48 508 48 350 C48 188 149 62 413 62 L554 62 L554 -50 L750 -50 L750 62 L892 62 Z M890 458 C1024 458 1046 410 1046 350 C1046 290 1024 242 890 242 L750 242 L750 458 L890 458 Z M259 350 C259 410 281 458 415 458 L554 458 L554 242 L415 242 C281 242 259 290 259 350 L259 350 Z " />
<glyph glyph-name="uni0425" unicode="&#x425;" horiz-adv-x="1228" d="M5 700 L454 352 L0 0 L311 0 L614 250 L917 0 L1228 0 L774 352 L1223 700 L912 700 L614 454 L316 700 L5 700 Z " />
<glyph glyph-name="uni0426" unicode="&#x426;" horiz-adv-x="1298" d="M956 180 L312 180 L312 700 L114 700 L114 0 L1043 0 L1043 -150 L1241 -150 L1241 180 L1154 180 L1154 700 L956 700 L956 180 Z " />
<glyph glyph-name="uni0427" unicode="&#x427;" horiz-adv-x="1226" d="M54 699 L54 436 C54 311 118 213 326 213 L914 213 L914 -1 L1112 -1 L1112 699 L914 699 L914 394 L321 394 C254 394 252 421 252 454 L252 699 L54 699 Z " />
<glyph glyph-name="uni0428" unicode="&#x428;" horiz-adv-x="1599" d="M1287 180 L897 180 L897 700 L701 700 L701 180 L312 180 L312 700 L114 700 L114 0 L1485 0 L1485 700 L1287 700 L1287 180 Z " />
<glyph glyph-name="uni0429" unicode="&#x429;" horiz-adv-x="1593" d="M1251 180 L879 180 L879 700 L683 700 L683 180 L312 180 L312 700 L114 700 L114 0 L1338 0 L1338 -150 L1536 -150 L1536 180 L1449 180 L1449 700 L1251 700 L1251 180 Z " />
<glyph glyph-name="uni042A" unicode="&#x42a;" horiz-adv-x="1354" d="M22 520 L332 520 L332 0 L1026 0 C1245 0 1330 105 1330 239 C1330 372 1245 480 1026 480 L530 480 L530 700 L22 700 L22 520 Z M1022 300 C1112 300 1120 272 1120 239 C1120 207 1112 180 1023 180 L530 180 L530 300 L1022 300 Z " />
<glyph glyph-name="uni042B" unicode="&#x42b;" horiz-adv-x="1622" d="M1310 0 L1508 0 L1508 700 L1310 700 L1310 0 Z M114 0 L868 0 C1087 0 1172 104 1172 239 C1172 371 1086 480 868 480 L312 480 L312 700 L114 700 L114 0 Z M864 300 C954 300 962 272 962 239 C962 207 954 180 864 180 L312 180 L312 300 L864 300 Z " />
<glyph glyph-name="uni042C" unicode="&#x42c;" horiz-adv-x="1196" d="M114 0 L868 0 C1087 0 1172 104 1172 239 C1172 371 1086 480 868 480 L312 480 L312 700 L114 700 L114 0 Z M864 300 C954 300 962 272 962 239 C962 207 954 180 864 180 L312 180 L312 300 L864 300 Z " />
<glyph glyph-name="uni042D" unicode="&#x42d;" horiz-adv-x="1184" d="M174 270 L904 270 C875 214 808 180 675 180 L72 180 L72 0 L676 0 C993 0 1117 157 1117 350 C1117 543 993 700 676 700 L72 700 L72 520 L675 520 C808 520 875 485 904 430 L174 430 L174 270 Z " />
<glyph glyph-name="uni042E" unicode="&#x42e;" horiz-adv-x="1879" d="M1358 -10 C1684 -10 1812 151 1812 350 C1812 549 1684 710 1358 710 L1102 710 C827 710 691 596 655 440 L312 440 L312 700 L114 700 L114 0 L312 0 L312 260 L655 260 C691 103 827 -10 1102 -10 L1358 -10 Z M1103 170 C906 170 859 249 859 350 C859 451 906 530 1103 530 L1357 530 C1554 530 1600 451 1600 350 C1600 249 1554 170 1357 170 L1103 170 Z " />
<glyph glyph-name="uni042F" unicode="&#x42f;" horiz-adv-x="1281" d="M964 397 L425 397 C334 397 318 426 318 458 C318 491 334 520 425 520 L964 520 L964 397 Z M416 700 C199 700 111 594 111 464 C111 349 178 254 336 230 L-9 0 L316 0 L631 223 L964 223 L964 0 L1162 0 L1162 700 L416 700 Z " />
<glyph glyph-name="uni0430" unicode="&#x430;" horiz-adv-x="1107" d="M888 0 L1104 0 L646 560 L461 560 L3 0 L219 0 L291 91 L815 91 L888 0 Z M553 416 L708 223 L398 223 L553 416 Z " />
<glyph glyph-name="uni0431" unicode="&#x431;" horiz-adv-x="1061" d="M104 0 L772 0 C944 0 1005 76 1005 174 C1005 273 944 345 772 345 L280 345 L280 409 L950 409 L950 560 L104 560 L104 0 Z M764 215 C818 215 822 199 822 182 C822 167 819 151 764 151 L280 151 L280 215 L764 215 Z " />
<glyph glyph-name="uni0432" unicode="&#x432;" horiz-adv-x="1082" d="M104 0 L821 0 C968 0 1018 67 1018 150 C1018 216 982 271 898 292 C951 320 975 363 975 415 C975 497 927 560 787 560 L104 560 L104 0 Z M770 215 C826 215 828 199 828 182 C828 168 826 151 770 151 L280 151 L280 215 L770 215 Z M733 345 L280 345 L280 409 L735 409 C790 409 793 393 793 378 C793 361 789 345 733 345 L733 345 Z " />
<glyph glyph-name="uni0433" unicode="&#x433;" horiz-adv-x="985" d="M104 0 L280 0 L280 409 L950 409 L950 560 L104 560 L104 0 Z " />
<glyph glyph-name="uni0434" unicode="&#x434;" horiz-adv-x="1085" d="M211 0 L857 0 L857 -120 L1033 -120 L1033 151 L959 151 L959 560 L263 560 L210 200 C206 176 187 151 141 151 L35 151 L35 -120 L211 -120 L211 0 Z M391 245 L414 409 L783 409 L783 151 L356 151 C373 178 385 208 391 245 L391 245 Z " />
<glyph glyph-name="uni0435" unicode="&#x435;" horiz-adv-x="1032" d="M104 0 L967 0 L967 151 L280 151 L280 215 L879 215 L879 345 L280 345 L280 409 L967 409 L967 560 L104 560 L104 0 Z " />
<glyph glyph-name="uni0436" unicode="&#x436;" horiz-adv-x="1414" d="M1060 281 L1354 560 L1120 560 L915 356 L792 356 L792 560 L619 560 L619 356 L499 356 L294 560 L60 560 L354 281 L16 0 L265 0 L497 204 L619 204 L619 0 L792 0 L792 204 L915 204 L1143 0 L1398 0 L1060 281 Z " />
<glyph glyph-name="uni0437" unicode="&#x437;" horiz-adv-x="1086" d="M56 0 L825 0 C972 0 1022 67 1022 150 C1022 216 987 271 902 292 C955 320 979 363 979 415 C979 497 931 560 791 560 L73 560 L73 409 L746 409 C804 409 804 392 804 378 C804 363 804 345 743 345 L147 345 L147 215 L782 215 C838 215 840 198 840 182 C840 169 838 151 782 151 L56 151 L56 0 Z " />
<glyph glyph-name="uni0438" unicode="&#x438;" horiz-adv-x="1129" d="M849 364 L849 0 L1025 0 L1025 560 L859 560 L280 196 L280 560 L104 560 L104 0 L270 0 L849 364 Z " />
<glyph glyph-name="uni0439" unicode="&#x439;" horiz-adv-x="1129" d="M564 752 C504 752 476 775 474 809 L366 809 C370 725 406 631 564 631 C721 631 758 725 762 809 L654 809 C650 775 623 752 564 752 L564 752 Z M849 364 L849 0 L1025 0 L1025 560 L859 560 L280 196 L280 560 L104 560 L104 0 L270 0 L849 364 Z " />
<glyph glyph-name="uni043A" unicode="&#x43a;" horiz-adv-x="1123" d="M662 285 L1036 560 L765 560 L503 356 L280 356 L280 560 L104 560 L104 0 L280 0 L280 204 L510 204 L829 0 L1119 0 L662 285 Z " />
<glyph glyph-name="uni043B" unicode="&#x43b;" horiz-adv-x="1094" d="M263 560 L210 200 C205 172 184 151 131 151 L35 151 L35 0 L117 0 C299 0 366 78 384 200 L414 409 L814 409 L814 0 L990 0 L990 560 L263 560 Z " />
<glyph glyph-name="uni043C" unicode="&#x43c;" horiz-adv-x="1256" d="M983 560 L627 238 L271 560 L104 560 L104 0 L280 0 L280 330 L627 11 L976 330 L976 0 L1152 0 L1152 560 L983 560 Z " />
<glyph glyph-name="uni043D" unicode="&#x43d;" horiz-adv-x="1125" d="M845 0 L1021 0 L1021 560 L845 560 L845 356 L280 356 L280 560 L104 560 L104 0 L280 0 L280 204 L845 204 L845 0 Z " />
<glyph glyph-name="uni043E" unicode="&#x43e;" horiz-adv-x="1153" d="M716 -8 C993 -8 1093 121 1093 280 C1093 439 993 568 716 568 L438 568 C161 568 60 439 60 280 C60 121 161 -8 438 -8 L716 -8 Z M439 143 C275 143 245 203 245 280 C245 357 275 417 439 417 L715 417 C876 417 908 357 908 280 C908 203 876 143 715 143 L439 143 Z " />
<glyph glyph-name="uni043F" unicode="&#x43f;" horiz-adv-x="1125" d="M845 0 L1021 0 L1021 560 L104 560 L104 0 L280 0 L280 409 L845 409 L845 0 Z " />
<glyph glyph-name="uni0440" unicode="&#x440;" horiz-adv-x="1039" d="M104 0 L280 0 L280 172 L750 172 C938 172 1005 258 1005 366 C1005 472 938 560 750 560 L104 560 L104 0 Z M746 409 C821 409 822 390 822 366 C822 342 821 324 746 324 L280 324 L280 409 L746 409 Z " />
<glyph glyph-name="uni0441" unicode="&#x441;" horiz-adv-x="1014" d="M246 280 C246 352 272 409 427 409 L950 409 L950 560 L427 560 C157 560 60 434 60 280 C60 126 157 0 427 0 L950 0 L950 151 L427 151 C272 151 246 208 246 280 L246 280 Z " />
<glyph glyph-name="uni0442" unicode="&#x442;" horiz-adv-x="1039" d="M35 409 L432 409 L432 0 L608 0 L608 409 L1004 409 L1004 560 L35 560 L35 409 Z " />
<glyph glyph-name="uni0443" unicode="&#x443;" horiz-adv-x="1072" d="M461 0 L1084 560 L830 560 L552 294 L248 560 L-6 560 L434 187 L211 0 L461 0 Z " />
<glyph glyph-name="uni0444" unicode="&#x444;" horiz-adv-x="1127" d="M774 50 C999 50 1078 150 1078 280 C1078 406 999 510 774 510 L651 510 L651 600 L475 600 L475 510 L353 510 C129 510 49 406 49 280 C49 150 129 50 353 50 L475 50 L475 -40 L651 -40 L651 50 L774 50 Z M772 359 C876 359 895 324 895 280 C895 237 876 201 772 201 L651 201 L651 359 L772 359 Z M233 280 C233 324 251 359 355 359 L475 359 L475 201 L355 201 C251 201 233 237 233 280 L233 280 Z " />
<glyph glyph-name="uni0445" unicode="&#x445;" horiz-adv-x="1059" d="M7 560 L390 282 L2 0 L284 0 L529 194 L775 0 L1057 0 L668 282 L1053 560 L771 560 L529 370 L289 560 L7 560 Z " />
<glyph glyph-name="uni0446" unicode="&#x446;" horiz-adv-x="1116" d="M814 151 L280 151 L280 560 L104 560 L104 0 L888 0 L888 -120 L1064 -120 L1064 151 L990 151 L990 560 L814 560 L814 151 Z " />
<glyph glyph-name="uni0447" unicode="&#x447;" horiz-adv-x="1056" d="M51 559 L51 347 C51 243 104 167 281 167 L776 167 L776 -1 L952 -1 L952 559 L776 559 L776 318 L275 318 C230 318 227 336 227 362 L227 559 L51 559 Z " />
<glyph glyph-name="uni0448" unicode="&#x448;" horiz-adv-x="1375" d="M1096 151 L775 151 L775 560 L599 560 L599 151 L280 151 L280 560 L104 560 L104 0 L1271 0 L1271 560 L1096 560 L1096 151 Z " />
<glyph glyph-name="uni0449" unicode="&#x449;" horiz-adv-x="1367" d="M1065 151 L760 151 L760 560 L584 560 L584 151 L280 151 L280 560 L104 560 L104 0 L1139 0 L1139 -120 L1315 -120 L1315 151 L1241 151 L1241 560 L1065 560 L1065 151 Z " />
<glyph glyph-name="uni044A" unicode="&#x44a;" horiz-adv-x="1182" d="M35 409 L298 409 L298 0 L893 0 C1081 0 1148 85 1148 194 C1148 300 1082 388 893 388 L474 388 L474 560 L35 560 L35 409 Z M474 151 L474 236 L889 236 C964 236 965 218 965 194 C965 171 964 151 889 151 L474 151 Z " />
<glyph glyph-name="uni044B" unicode="&#x44b;" horiz-adv-x="1422" d="M1143 0 L1319 0 L1319 560 L1143 560 L1143 0 Z M104 0 L750 0 C938 0 1005 85 1005 194 C1005 300 938 388 750 388 L280 388 L280 560 L104 560 L104 0 Z M746 236 C821 236 822 218 822 194 C822 171 821 151 746 151 L280 151 L280 236 L746 236 Z " />
<glyph glyph-name="uni044C" unicode="&#x44c;" horiz-adv-x="1039" d="M104 0 L750 0 C938 0 1005 85 1005 194 C1005 300 938 388 750 388 L280 388 L280 560 L104 560 L104 0 Z M746 236 C821 236 822 218 822 194 C822 171 821 151 746 151 L280 151 L280 236 L746 236 Z " />
<glyph glyph-name="uni044D" unicode="&#x44d;" horiz-adv-x="1015" d="M767 215 C744 176 692 151 588 151 L65 151 L65 0 L588 0 C858 0 955 126 955 280 C955 434 858 560 588 560 L65 560 L65 409 L588 409 C692 409 744 383 767 345 L153 345 L153 215 L767 215 Z " />
<glyph glyph-name="uni044E" unicode="&#x44e;" horiz-adv-x="1609" d="M936 -8 L1171 -8 C1448 -8 1549 121 1549 280 C1549 439 1448 568 1171 568 L936 568 C704 568 596 478 566 356 L280 356 L280 560 L104 560 L104 0 L280 0 L280 204 L566 204 C596 82 704 -8 936 -8 L936 -8 Z M1170 143 L937 143 C773 143 732 203 732 280 C732 357 773 417 937 417 L1170 417 C1334 417 1375 357 1375 280 C1375 203 1334 143 1170 143 L1170 143 Z " />
<glyph glyph-name="uni044F" unicode="&#x44f;" horiz-adv-x="1106" d="M1002 560 L362 560 C178 560 108 474 108 369 C108 274 162 198 299 180 L6 0 L284 0 L545 175 L826 175 L826 0 L1002 0 L1002 560 Z M826 409 L826 321 L370 321 C296 321 291 341 291 365 C291 387 296 409 370 409 L826 409 Z " />
<glyph glyph-name="uni0450" unicode="&#x450;" horiz-adv-x="1032" d="M104 0 L967 0 L967 151 L280 151 L280 215 L879 215 L879 345 L280 345 L280 409 L967 409 L967 560 L104 560 L104 0 Z M542 806 L326 806 L509 635 L637 635 L542 806 Z " />
<glyph glyph-name="uni0451" unicode="&#x451;" horiz-adv-x="1032" d="M104 0 L967 0 L967 151 L280 151 L280 215 L879 215 L879 345 L280 345 L280 409 L967 409 L967 560 L104 560 L104 0 Z M288 633 L462 633 L462 805 L288 805 L288 633 Z M593 633 L767 633 L767 805 L593 805 L593 633 Z " />
<glyph glyph-name="uni0452" unicode="&#x452;" horiz-adv-x="1182" d="M680 0 L915 0 C1087 0 1148 76 1148 174 C1148 273 1087 345 915 345 L474 345 L474 409 L838 409 L838 560 L35 560 L35 409 L298 409 L298 -1 L474 -1 L474 215 L907 215 C961 215 965 199 965 182 C965 167 962 151 907 151 L680 151 L680 0 Z " />
<glyph glyph-name="uni0453" unicode="&#x453;" horiz-adv-x="985" d="M425 635 L553 635 L736 806 L520 806 L425 635 Z M104 0 L280 0 L280 409 L950 409 L950 560 L104 560 L104 0 Z " />
<glyph glyph-name="uni0454" unicode="&#x454;" horiz-adv-x="1015" d="M862 215 L862 345 L248 345 C271 383 322 409 427 409 L950 409 L950 560 L427 560 C157 560 60 434 60 280 C60 126 157 0 427 0 L950 0 L950 151 L427 151 C322 151 271 176 248 215 L862 215 Z " />
<glyph glyph-name="uni0455" unicode="&#x455;" horiz-adv-x="1031" d="M90 0 L742 0 C914 0 975 76 975 174 C975 273 914 345 742 345 L297 345 C243 345 239 361 239 378 C239 393 242 409 297 409 L941 409 L941 560 L289 560 C117 560 56 484 56 386 C56 287 117 215 289 215 L734 215 C788 215 792 199 792 182 C792 167 789 151 734 151 L90 151 L90 0 Z " />
<glyph glyph-name="uni0456" unicode="&#x456;" horiz-adv-x="384" d="M104 0 L280 0 L280 560 L104 560 L104 0 Z " />
<glyph glyph-name="uni0457" unicode="&#x457;" horiz-adv-x="384" d="M104 0 L280 0 L280 560 L104 560 L104 0 Z M-47 633 L127 633 L127 805 L-47 805 L-47 633 Z M258 633 L432 633 L432 805 L258 805 L258 633 Z " />
<glyph glyph-name="uni0458" unicode="&#x458;" horiz-adv-x="1041" d="M320 -4 L607 -4 C876 -4 957 106 957 260 L957 560 L781 560 L781 260 C781 193 755 147 606 147 L321 147 C221 147 210 181 210 220 L210 276 L34 276 L34 220 C34 97 104 -4 320 -4 L320 -4 Z " />
<glyph glyph-name="uni0459" unicode="&#x459;" horiz-adv-x="1614" d="M262 560 L209 200 C204 172 183 151 131 151 L35 151 L35 0 L116 0 C299 0 365 78 383 200 L414 409 L738 409 L738 0 L1325 0 C1513 0 1580 85 1580 194 C1580 300 1514 388 1325 388 L914 388 L914 560 L262 560 Z M1321 236 C1396 236 1397 218 1397 194 C1397 170 1396 151 1321 151 L914 151 L914 236 L1321 236 Z " />
<glyph glyph-name="uni045A" unicode="&#x45a;" horiz-adv-x="1617" d="M741 0 L1328 0 C1516 0 1583 85 1583 194 C1583 300 1516 388 1328 388 L917 388 L917 560 L741 560 L741 388 L280 388 L280 560 L104 560 L104 0 L280 0 L280 236 L741 236 L741 0 Z M1324 236 C1399 236 1400 218 1400 194 C1400 171 1399 151 1324 151 L917 151 L917 236 L1324 236 Z " />
<glyph glyph-name="uni045B" unicode="&#x45b;" horiz-adv-x="1199" d="M1148 -1 L1148 161 C1148 263 1093 342 916 342 L474 342 L474 409 L838 409 L838 560 L35 560 L35 409 L298 409 L298 -1 L474 -1 L474 191 L924 191 C967 191 972 171 972 147 L972 -1 L1148 -1 Z " />
<glyph glyph-name="uni045C" unicode="&#x45c;" horiz-adv-x="1123" d="M389 635 L517 635 L700 806 L484 806 L389 635 Z M662 285 L1036 560 L765 560 L503 356 L280 356 L280 560 L104 560 L104 0 L280 0 L280 204 L510 204 L829 0 L1119 0 L662 285 Z " />
<glyph glyph-name="uni045D" unicode="&#x45d;" horiz-adv-x="1129" d="M578 806 L362 806 L545 635 L673 635 L578 806 Z M849 364 L849 0 L1025 0 L1025 560 L859 560 L280 196 L280 560 L104 560 L104 0 L270 0 L849 364 Z " />
<glyph glyph-name="uni045E" unicode="&#x45e;" horiz-adv-x="1072" d="M553 752 C493 752 465 775 463 809 L355 809 C359 725 395 631 553 631 C710 631 747 725 751 809 L643 809 C639 775 612 752 553 752 L553 752 Z M461 0 L1084 560 L830 560 L552 294 L248 560 L-6 560 L434 187 L211 0 L461 0 Z " />
<glyph glyph-name="uni045F" unicode="&#x45f;" horiz-adv-x="1125" d="M845 151 L280 151 L280 560 L104 560 L104 0 L475 0 L475 -120 L651 -120 L651 0 L1021 0 L1021 560 L845 560 L845 151 Z " />
<glyph glyph-name="uni0490" unicode="&#x490;" horiz-adv-x="1129" d="M909 700 L114 700 L114 0 L312 0 L312 520 L1107 520 L1107 850 L909 850 L909 700 Z " />
<glyph glyph-name="uni0491" unicode="&#x491;" horiz-adv-x="985" d="M774 560 L104 560 L104 0 L280 0 L280 409 L950 409 L950 680 L774 680 L774 560 Z " />
<glyph glyph-name="uni1E00" unicode="&#x1e00;" horiz-adv-x="1295" d="M1050 0 L1293 0 L753 700 L544 700 L2 0 L245 0 L326 107 L968 107 L1050 0 Z M647 529 L845 269 L449 269 L647 529 Z M615 -160 C615 -143 630 -128 648 -128 C664 -128 679 -143 679 -160 C679 -177 664 -191 648 -191 C630 -191 615 -177 615 -160 L615 -160 Z M509 -160 C509 -228 563 -280 648 -280 C731 -280 785 -228 785 -160 C785 -92 731 -40 648 -40 C563 -40 509 -92 509 -160 L509 -160 Z " />
<glyph glyph-name="uni1E01" unicode="&#x1e01;" horiz-adv-x="1107" d="M888 0 L1104 0 L646 560 L461 560 L3 0 L219 0 L291 91 L815 91 L888 0 Z M553 416 L708 223 L398 223 L553 416 Z M521 -160 C521 -143 536 -128 554 -128 C570 -128 585 -143 585 -160 C585 -177 570 -191 554 -191 C536 -191 521 -177 521 -160 L521 -160 Z M415 -160 C415 -228 469 -280 554 -280 C637 -280 691 -228 691 -160 C691 -92 637 -40 554 -40 C469 -40 415 -92 415 -160 L415 -160 Z " />
<glyph glyph-name="uni1E02" unicode="&#x1e02;" horiz-adv-x="1259" d="M114 0 L949 0 C1121 0 1187 84 1187 187 C1187 270 1147 339 1046 364 C1110 398 1137 455 1137 519 C1137 621 1073 700 908 700 L114 700 L114 0 Z M895 270 C966 270 975 248 975 225 C975 203 966 180 895 180 L312 180 L312 270 L895 270 Z M934 475 C934 453 925 430 852 430 L312 430 L312 520 L854 520 C925 520 934 498 934 475 L934 475 Z M517 773 L691 773 L691 945 L517 945 L517 773 Z " />
<glyph glyph-name="uni1E03" unicode="&#x1e03;" horiz-adv-x="1082" d="M104 0 L821 0 C968 0 1018 67 1018 150 C1018 216 982 271 898 292 C951 320 975 363 975 415 C975 497 927 560 787 560 L104 560 L104 0 Z M770 215 C826 215 828 199 828 182 C828 168 826 151 770 151 L280 151 L280 215 L770 215 Z M733 345 L280 345 L280 409 L735 409 C790 409 793 393 793 378 C793 361 789 345 733 345 L733 345 Z M429 633 L603 633 L603 805 L429 805 L429 633 Z " />
<glyph glyph-name="uni1E04" unicode="&#x1e04;" horiz-adv-x="1259" d="M114 0 L949 0 C1121 0 1187 84 1187 187 C1187 270 1147 339 1046 364 C1110 398 1137 455 1137 519 C1137 621 1073 700 908 700 L114 700 L114 0 Z M895 270 C966 270 975 248 975 225 C975 203 966 180 895 180 L312 180 L312 270 L895 270 Z M934 475 C934 453 925 430 852 430 L312 430 L312 520 L854 520 C925 520 934 498 934 475 L934 475 Z M558 -248 L732 -248 L732 -76 L558 -76 L558 -248 Z " />
<glyph glyph-name="uni1E05" unicode="&#x1e05;" horiz-adv-x="1082" d="M104 0 L821 0 C968 0 1018 67 1018 150 C1018 216 982 271 898 292 C951 320 975 363 975 415 C975 497 927 560 787 560 L104 560 L104 0 Z M770 215 C826 215 828 199 828 182 C828 168 826 151 770 151 L280 151 L280 215 L770 215 Z M733 345 L280 345 L280 409 L735 409 C790 409 793 393 793 378 C793 361 789 345 733 345 L733 345 Z M469 -248 L643 -248 L643 -76 L469 -76 L469 -248 Z " />
<glyph glyph-name="uni1E06" unicode="&#x1e06;" horiz-adv-x="1259" d="M114 0 L949 0 C1121 0 1187 84 1187 187 C1187 270 1147 339 1046 364 C1110 398 1137 455 1137 519 C1137 621 1073 700 908 700 L114 700 L114 0 Z M895 270 C966 270 975 248 975 225 C975 203 966 180 895 180 L312 180 L312 270 L895 270 Z M934 475 C934 453 925 430 852 430 L312 430 L312 520 L854 520 C925 520 934 498 934 475 L934 475 Z M420 -223 L869 -223 L869 -99 L420 -99 L420 -223 Z " />
<glyph glyph-name="uni1E07" unicode="&#x1e07;" horiz-adv-x="1082" d="M104 0 L821 0 C968 0 1018 67 1018 150 C1018 216 982 271 898 292 C951 320 975 363 975 415 C975 497 927 560 787 560 L104 560 L104 0 Z M770 215 C826 215 828 199 828 182 C828 168 826 151 770 151 L280 151 L280 215 L770 215 Z M733 345 L280 345 L280 409 L735 409 C790 409 793 393 793 378 C793 361 789 345 733 345 L733 345 Z M331 -223 L780 -223 L780 -99 L331 -99 L331 -223 Z " />
<glyph glyph-name="uni1E08" unicode="&#x1e08;" horiz-adv-x="1184" d="M563 -147 L609 -147 C655 -148 677 -152 677 -181 C677 -230 538 -221 495 -189 L495 -275 C571 -314 810 -338 810 -186 C810 -96 739 -71 650 -71 L668 0 L1112 0 L1112 180 L509 180 C321 180 279 255 279 350 C279 445 321 520 509 520 L1112 520 L1112 700 L508 700 C191 700 67 543 67 350 C67 157 191 0 508 0 L601 0 L563 -147 Z M532 775 L660 775 L843 946 L627 946 L532 775 Z " />
<glyph glyph-name="uni1E09" unicode="&#x1e09;" horiz-adv-x="1014" d="M468 -147 L514 -147 C560 -148 582 -152 582 -181 C582 -230 443 -221 400 -189 L400 -275 C476 -314 715 -338 715 -186 C715 -96 644 -71 555 -71 L573 0 L950 0 L950 151 L427 151 C272 151 246 208 246 280 C246 352 272 409 427 409 L950 409 L950 560 L427 560 C157 560 60 434 60 280 C60 126 157 0 427 0 L506 0 L468 -147 Z M437 635 L565 635 L748 806 L531 806 L437 635 Z " />
<glyph glyph-name="uni1E0A" unicode="&#x1e0a;" horiz-adv-x="1255" d="M114 0 L747 0 C1064 0 1188 157 1188 350 C1188 543 1064 700 747 700 L114 700 L114 0 Z M746 520 C934 520 976 445 976 350 C976 255 934 180 746 180 L312 180 L312 520 L746 520 Z M525 773 L699 773 L699 945 L525 945 L525 773 Z " />
<glyph glyph-name="uni1E0B" unicode="&#x1e0b;" horiz-adv-x="1079" d="M104 0 L652 0 C921 0 1019 126 1019 280 C1019 434 921 560 652 560 L104 560 L104 0 Z M651 409 C807 409 833 352 833 280 C833 208 807 151 651 151 L280 151 L280 409 L651 409 Z M443 633 L617 633 L617 805 L443 805 L443 633 Z " />
<glyph glyph-name="uni1E0C" unicode="&#x1e0c;" horiz-adv-x="1255" d="M114 0 L747 0 C1064 0 1188 157 1188 350 C1188 543 1064 700 747 700 L114 700 L114 0 Z M746 520 C934 520 976 445 976 350 C976 255 934 180 746 180 L312 180 L312 520 L746 520 Z M525 -248 L699 -248 L699 -76 L525 -76 L525 -248 Z " />
<glyph glyph-name="uni1E0D" unicode="&#x1e0d;" horiz-adv-x="1079" d="M104 0 L652 0 C921 0 1019 126 1019 280 C1019 434 921 560 652 560 L104 560 L104 0 Z M651 409 C807 409 833 352 833 280 C833 208 807 151 651 151 L280 151 L280 409 L651 409 Z M443 -248 L617 -248 L617 -76 L443 -76 L443 -248 Z " />
<glyph glyph-name="uni1E0E" unicode="&#x1e0e;" horiz-adv-x="1255" d="M114 0 L747 0 C1064 0 1188 157 1188 350 C1188 543 1064 700 747 700 L114 700 L114 0 Z M746 520 C934 520 976 445 976 350 C976 255 934 180 746 180 L312 180 L312 520 L746 520 Z M387 -223 L836 -223 L836 -99 L387 -99 L387 -223 Z " />
<glyph glyph-name="uni1E0F" unicode="&#x1e0f;" horiz-adv-x="1079" d="M104 0 L652 0 C921 0 1019 126 1019 280 C1019 434 921 560 652 560 L104 560 L104 0 Z M651 409 C807 409 833 352 833 280 C833 208 807 151 651 151 L280 151 L280 409 L651 409 Z M305 -223 L754 -223 L754 -99 L305 -99 L305 -223 Z " />
<glyph glyph-name="uni1E10" unicode="&#x1e10;" horiz-adv-x="1255" d="M114 0 L747 0 C1064 0 1188 157 1188 350 C1188 543 1064 700 747 700 L114 700 L114 0 Z M746 520 C934 520 976 445 976 350 C976 255 934 180 746 180 L312 180 L312 520 L746 520 Z M536 -248 L597 -248 L513 -392 L600 -392 L711 -232 L711 -76 L536 -76 L536 -248 Z " />
<glyph glyph-name="uni1E11" unicode="&#x1e11;" horiz-adv-x="1079" d="M104 0 L652 0 C921 0 1019 126 1019 280 C1019 434 921 560 652 560 L104 560 L104 0 Z M651 409 C807 409 833 352 833 280 C833 208 807 151 651 151 L280 151 L280 409 L651 409 Z M454 -248 L515 -248 L431 -392 L518 -392 L629 -232 L629 -76 L454 -76 L454 -248 Z " />
<glyph glyph-name="uni1E12" unicode="&#x1e12;" horiz-adv-x="1255" d="M114 0 L747 0 C1064 0 1188 157 1188 350 C1188 543 1064 700 747 700 L114 700 L114 0 Z M746 520 C934 520 976 445 976 350 C976 255 934 180 746 180 L312 180 L312 520 L746 520 Z M724 -75 L499 -75 L391 -246 L519 -246 L612 -168 L704 -246 L832 -246 L724 -75 Z " />
<glyph glyph-name="uni1E13" unicode="&#x1e13;" horiz-adv-x="1079" d="M104 0 L652 0 C921 0 1019 126 1019 280 C1019 434 921 560 652 560 L104 560 L104 0 Z M651 409 C807 409 833 352 833 280 C833 208 807 151 651 151 L280 151 L280 409 L651 409 Z M642 -75 L417 -75 L309 -246 L437 -246 L530 -168 L622 -246 L750 -246 L642 -75 Z " />
<glyph glyph-name="uni1E14" unicode="&#x1e14;" horiz-adv-x="1199" d="M114 0 L1127 0 L1127 180 L312 180 L312 270 L1025 270 L1025 430 L312 430 L312 520 L1127 520 L1127 700 L114 700 L114 0 Z M624 1150 L408 1150 L591 979 L719 979 L624 1150 Z M385 798 L834 798 L834 922 L385 922 L385 798 Z " />
<glyph glyph-name="uni1E15" unicode="&#x1e15;" horiz-adv-x="1032" d="M104 0 L967 0 L967 151 L280 151 L280 215 L879 215 L879 345 L280 345 L280 409 L967 409 L967 560 L104 560 L104 0 Z M542 1010 L326 1010 L509 839 L637 839 L542 1010 Z M303 658 L752 658 L752 782 L303 782 L303 658 Z " />
<glyph glyph-name="uni1E16" unicode="&#x1e16;" horiz-adv-x="1199" d="M114 0 L1127 0 L1127 180 L312 180 L312 270 L1025 270 L1025 430 L312 430 L312 520 L1127 520 L1127 700 L114 700 L114 0 Z M500 979 L628 979 L811 1150 L595 1150 L500 979 Z M385 798 L834 798 L834 922 L385 922 L385 798 Z " />
<glyph glyph-name="uni1E17" unicode="&#x1e17;" horiz-adv-x="1032" d="M104 0 L967 0 L967 151 L280 151 L280 215 L879 215 L879 345 L280 345 L280 409 L967 409 L967 560 L104 560 L104 0 Z M418 839 L546 839 L729 1010 L513 1010 L418 839 Z M303 658 L752 658 L752 782 L303 782 L303 658 Z " />
<glyph glyph-name="uni1E18" unicode="&#x1e18;" horiz-adv-x="1199" d="M114 0 L1127 0 L1127 180 L312 180 L312 270 L1025 270 L1025 430 L312 430 L312 520 L1127 520 L1127 700 L114 700 L114 0 Z M721 -75 L496 -75 L388 -246 L516 -246 L609 -168 L701 -246 L829 -246 L721 -75 Z " />
<glyph glyph-name="uni1E19" unicode="&#x1e19;" horiz-adv-x="1032" d="M104 0 L967 0 L967 151 L280 151 L280 215 L879 215 L879 345 L280 345 L280 409 L967 409 L967 560 L104 560 L104 0 Z M640 -75 L415 -75 L307 -246 L435 -246 L528 -168 L620 -246 L748 -246 L640 -75 Z " />
<glyph glyph-name="uni1E1A" unicode="&#x1e1a;" horiz-adv-x="1199" d="M114 0 L1127 0 L1127 180 L312 180 L312 270 L1025 270 L1025 430 L312 430 L312 520 L1127 520 L1127 700 L114 700 L114 0 Z M706 -71 C708 -99 700 -112 678 -112 C648 -112 599 -77 539 -77 C465 -77 419 -124 416 -251 L512 -251 C510 -224 518 -210 540 -210 C569 -210 618 -246 679 -246 C753 -246 802 -201 802 -71 L706 -71 Z " />
<glyph glyph-name="uni1E1B" unicode="&#x1e1b;" horiz-adv-x="1032" d="M104 0 L967 0 L967 151 L280 151 L280 215 L879 215 L879 345 L280 345 L280 409 L967 409 L967 560 L104 560 L104 0 Z M625 -71 C627 -99 619 -112 597 -112 C567 -112 518 -77 458 -77 C384 -77 338 -124 335 -251 L431 -251 C429 -224 437 -210 459 -210 C488 -210 537 -246 598 -246 C672 -246 721 -201 721 -71 L625 -71 Z " />
<glyph glyph-name="uni1E1C" unicode="&#x1e1c;" horiz-adv-x="1199" d="M114 0 L568 0 L530 -147 L576 -147 C622 -148 644 -152 644 -181 C644 -230 505 -221 462 -189 L462 -275 C538 -314 777 -338 777 -186 C777 -96 706 -71 617 -71 L635 0 L1127 0 L1127 180 L312 180 L312 270 L1025 270 L1025 430 L312 430 L312 520 L1127 520 L1127 700 L114 700 L114 0 Z M609 892 C549 892 521 915 518 949 L411 949 C414 865 450 771 609 771 C766 771 803 865 807 949 L699 949 C695 915 667 892 609 892 L609 892 Z " />
<glyph glyph-name="uni1E1D" unicode="&#x1e1d;" horiz-adv-x="1032" d="M104 0 L486 0 L448 -147 L494 -147 C540 -148 562 -152 562 -181 C562 -230 422 -221 380 -189 L380 -275 C456 -314 695 -338 695 -186 C695 -96 624 -71 534 -71 L553 0 L967 0 L967 151 L280 151 L280 215 L879 215 L879 345 L280 345 L280 409 L967 409 L967 560 L104 560 L104 0 Z M528 752 C468 752 440 775 437 809 L330 809 C333 725 369 631 528 631 C685 631 722 725 726 809 L618 809 C614 775 586 752 528 752 L528 752 Z " />
<glyph glyph-name="uni1E1E" unicode="&#x1e1e;" horiz-adv-x="1159" d="M114 0 L312 0 L312 246 L1025 246 L1025 426 L312 426 L312 520 L1127 520 L1127 700 L114 700 L114 0 Z M512 773 L686 773 L686 945 L512 945 L512 773 Z " />
<glyph glyph-name="uni1E1F" unicode="&#x1e1f;" horiz-adv-x="1015" d="M104 0 L280 0 L280 192 L879 192 L879 343 L280 343 L280 409 L967 409 L967 560 L104 560 L104 0 Z M435 633 L609 633 L609 805 L435 805 L435 633 Z " />
<glyph glyph-name="uni1E20" unicode="&#x1e20;" horiz-adv-x="1256" d="M656 270 L973 270 L973 180 L509 180 C321 180 279 255 279 350 C279 445 321 520 509 520 L1112 520 L1112 700 L508 700 C191 700 67 543 67 350 C67 157 191 0 508 0 L1167 0 L1167 430 L656 430 L656 270 Z M427 798 L876 798 L876 922 L427 922 L427 798 Z " />
<glyph glyph-name="uni1E21" unicode="&#x1e21;" horiz-adv-x="1078" d="M560 215 L824 215 L824 151 L427 151 C272 151 246 208 246 280 C246 352 272 409 427 409 L950 409 L950 560 L427 560 C157 560 60 434 60 280 C60 126 157 0 427 0 L996 0 L996 345 L560 345 L560 215 Z M326 658 L775 658 L775 782 L326 782 L326 658 Z " />
<glyph glyph-name="uni1E22" unicode="&#x1e22;" horiz-adv-x="1305" d="M993 0 L1191 0 L1191 700 L993 700 L993 440 L312 440 L312 700 L114 700 L114 0 L312 0 L312 260 L993 260 L993 0 Z M565 773 L739 773 L739 945 L565 945 L565 773 Z " />
<glyph glyph-name="uni1E23" unicode="&#x1e23;" horiz-adv-x="1125" d="M845 0 L1021 0 L1021 560 L845 560 L845 356 L280 356 L280 560 L104 560 L104 0 L280 0 L280 204 L845 204 L845 0 Z M475 633 L649 633 L649 805 L475 805 L475 633 Z " />
<glyph glyph-name="uni1E24" unicode="&#x1e24;" horiz-adv-x="1305" d="M993 0 L1191 0 L1191 700 L993 700 L993 440 L312 440 L312 700 L114 700 L114 0 L312 0 L312 260 L993 260 L993 0 Z M565 -248 L739 -248 L739 -76 L565 -76 L565 -248 Z " />
<glyph glyph-name="uni1E25" unicode="&#x1e25;" horiz-adv-x="1125" d="M845 0 L1021 0 L1021 560 L845 560 L845 356 L280 356 L280 560 L104 560 L104 0 L280 0 L280 204 L845 204 L845 0 Z M475 -248 L649 -248 L649 -76 L475 -76 L475 -248 Z " />
<glyph glyph-name="uni1E26" unicode="&#x1e26;" horiz-adv-x="1305" d="M993 0 L1191 0 L1191 700 L993 700 L993 440 L312 440 L312 700 L114 700 L114 0 L312 0 L312 260 L993 260 L993 0 Z M413 773 L587 773 L587 945 L413 945 L413 773 Z M718 773 L892 773 L892 945 L718 945 L718 773 Z " />
<glyph glyph-name="uni1E27" unicode="&#x1e27;" horiz-adv-x="1125" d="M845 0 L1021 0 L1021 560 L845 560 L845 356 L280 356 L280 560 L104 560 L104 0 L280 0 L280 204 L845 204 L845 0 Z M323 633 L497 633 L497 805 L323 805 L323 633 Z M628 633 L802 633 L802 805 L628 805 L628 633 Z " />
<glyph glyph-name="uni1E28" unicode="&#x1e28;" horiz-adv-x="1305" d="M134 -147 L180 -147 C227 -148 248 -152 248 -181 C248 -230 109 -221 66 -189 L66 -275 C143 -314 381 -338 381 -186 C381 -96 311 -71 221 -71 L239 0 L312 0 L312 260 L993 260 L993 0 L1191 0 L1191 700 L993 700 L993 440 L312 440 L312 700 L114 700 L114 0 L172 0 L134 -147 Z " />
<glyph glyph-name="uni1E29" unicode="&#x1e29;" horiz-adv-x="1125" d="M113 -147 L159 -147 C205 -148 227 -152 227 -181 C227 -230 88 -221 45 -189 L45 -275 C121 -314 360 -338 360 -186 C360 -96 289 -71 200 -71 L218 0 L280 0 L280 204 L845 204 L845 0 L1021 0 L1021 560 L845 560 L845 356 L280 356 L280 560 L104 560 L104 0 L151 0 L113 -147 Z " />
<glyph glyph-name="uni1E2A" unicode="&#x1e2a;" horiz-adv-x="1305" d="M993 0 L1191 0 L1191 700 L993 700 L993 440 L312 440 L312 700 L114 700 L114 0 L312 0 L312 260 L993 260 L993 0 Z M652 -129 C592 -129 564 -106 562 -72 L454 -72 C458 -156 494 -250 652 -250 C809 -250 846 -156 850 -72 L742 -72 C738 -106 711 -129 652 -129 L652 -129 Z " />
<glyph glyph-name="uni1E2B" unicode="&#x1e2b;" horiz-adv-x="1125" d="M845 0 L1021 0 L1021 560 L845 560 L845 356 L280 356 L280 560 L104 560 L104 0 L280 0 L280 204 L845 204 L845 0 Z M562 -129 C502 -129 474 -106 472 -72 L364 -72 C368 -156 404 -250 562 -250 C719 -250 756 -156 760 -72 L652 -72 C648 -106 621 -129 562 -129 L562 -129 Z " />
<glyph glyph-name="uni1E2C" unicode="&#x1e2c;" horiz-adv-x="426" d="M114 0 L312 0 L312 700 L114 700 L114 0 Z M309 -71 C311 -99 303 -112 281 -112 C251 -112 202 -77 142 -77 C68 -77 22 -124 19 -251 L115 -251 C113 -224 121 -210 143 -210 C172 -210 221 -246 282 -246 C356 -246 405 -201 405 -71 L309 -71 Z " />
<glyph glyph-name="uni1E2D" unicode="&#x1e2d;" horiz-adv-x="384" d="M104 0 L280 0 L280 560 L104 560 L104 0 Z M289 -71 C291 -99 283 -112 261 -112 C231 -112 182 -77 122 -77 C48 -77 2 -124 -1 -251 L95 -251 C93 -224 101 -210 123 -210 C152 -210 201 -246 262 -246 C336 -246 385 -201 385 -71 L289 -71 Z " />
<glyph glyph-name="uni1E2E" unicode="&#x1e2e;" horiz-adv-x="426" d="M114 0 L312 0 L312 700 L114 700 L114 0 Z M103 991 L231 991 L414 1162 L198 1162 L103 991 Z M-27 773 L147 773 L147 945 L-27 945 L-27 773 Z M278 773 L452 773 L452 945 L278 945 L278 773 Z " />
<glyph glyph-name="uni1E2F" unicode="&#x1e2f;" horiz-adv-x="384" d="M83 851 L211 851 L394 1022 L178 1022 L83 851 Z M-47 633 L127 633 L127 805 L-47 805 L-47 633 Z M258 633 L432 633 L432 805 L258 805 L258 633 Z M104 0 L280 0 L280 560 L104 560 L104 0 Z " />
<glyph glyph-name="uni1E30" unicode="&#x1e30;" horiz-adv-x="1303" d="M1215 700 L874 700 L312 336 L312 700 L114 700 L114 0 L312 0 L312 142 L556 293 L976 0 L1306 0 L726 397 L1215 700 Z M502 775 L630 775 L813 946 L597 946 L502 775 Z " />
<glyph glyph-name="uni1E31" unicode="&#x1e31;" horiz-adv-x="1122" d="M1049 560 L735 560 L280 282 L280 560 L104 560 L104 0 L280 0 L280 112 L483 230 L827 0 L1120 0 L632 317 L1049 560 Z M415 635 L543 635 L726 806 L510 806 L415 635 Z " />
<glyph glyph-name="uni1E32" unicode="&#x1e32;" horiz-adv-x="1303" d="M1215 700 L874 700 L312 336 L312 700 L114 700 L114 0 L312 0 L312 142 L556 293 L976 0 L1306 0 L726 397 L1215 700 Z M554 -248 L728 -248 L728 -76 L554 -76 L554 -248 Z " />
<glyph glyph-name="uni1E33" unicode="&#x1e33;" horiz-adv-x="1122" d="M1049 560 L735 560 L280 282 L280 560 L104 560 L104 0 L280 0 L280 112 L483 230 L827 0 L1120 0 L632 317 L1049 560 Z M468 -248 L642 -248 L642 -76 L468 -76 L468 -248 Z " />
<glyph glyph-name="uni1E34" unicode="&#x1e34;" horiz-adv-x="1303" d="M1215 700 L874 700 L312 336 L312 700 L114 700 L114 0 L312 0 L312 142 L556 293 L976 0 L1306 0 L726 397 L1215 700 Z M416 -223 L865 -223 L865 -99 L416 -99 L416 -223 Z " />
<glyph glyph-name="uni1E35" unicode="&#x1e35;" horiz-adv-x="1122" d="M1049 560 L735 560 L280 282 L280 560 L104 560 L104 0 L280 0 L280 112 L483 230 L827 0 L1120 0 L632 317 L1049 560 Z M330 -223 L779 -223 L779 -99 L330 -99 L330 -223 Z " />
<glyph glyph-name="uni1E36" unicode="&#x1e36;" horiz-adv-x="1129" d="M312 700 L114 700 L114 0 L1107 0 L1107 180 L312 180 L312 700 Z M531 -248 L705 -248 L705 -76 L531 -76 L531 -248 Z " />
<glyph glyph-name="uni1E37" unicode="&#x1e37;" horiz-adv-x="985" d="M280 560 L104 560 L104 0 L950 0 L950 151 L280 151 L280 560 Z M455 -248 L629 -248 L629 -76 L455 -76 L455 -248 Z " />
<glyph glyph-name="uni1E38" unicode="&#x1e38;" horiz-adv-x="1129" d="M312 700 L114 700 L114 0 L1107 0 L1107 180 L312 180 L312 700 Z M18 798 L467 798 L467 922 L18 922 L18 798 Z M531 -248 L705 -248 L705 -76 L531 -76 L531 -248 Z " />
<glyph glyph-name="uni1E39" unicode="&#x1e39;" horiz-adv-x="985" d="M280 560 L104 560 L104 0 L950 0 L950 151 L280 151 L280 560 Z M-2 658 L447 658 L447 782 L-2 782 L-2 658 Z M455 -248 L629 -248 L629 -76 L455 -76 L455 -248 Z " />
<glyph glyph-name="uni1E3A" unicode="&#x1e3a;" horiz-adv-x="1129" d="M312 700 L114 700 L114 0 L1107 0 L1107 180 L312 180 L312 700 Z M393 -223 L842 -223 L842 -99 L393 -99 L393 -223 Z " />
<glyph glyph-name="uni1E3B" unicode="&#x1e3b;" horiz-adv-x="985" d="M280 560 L104 560 L104 0 L950 0 L950 151 L280 151 L280 560 Z M317 -223 L766 -223 L766 -99 L317 -99 L317 -223 Z " />
<glyph glyph-name="uni1E3C" unicode="&#x1e3c;" horiz-adv-x="1129" d="M312 700 L114 700 L114 0 L1107 0 L1107 180 L312 180 L312 700 Z M730 -75 L505 -75 L397 -246 L525 -246 L618 -168 L710 -246 L838 -246 L730 -75 Z " />
</font>
</svg>
