<?xml version="1.0" encoding="UTF-8"?>
<svg xmlns="http://www.w3.org/2000/svg" xmlns:xlink="http://www.w3.org/1999/xlink" version="1.2" >
<font id="Stereo Gothic 450 Italic">
<font-face  font-family="Stereo Gothic" units-per-em="1000" ascent="700" descent="-300" font-style="italic" font-weight="450" font-stretch="normal" slope="-10" cap-height="700" x-height="560" underline-position="-75" underline-thickness="50" />
<missing-glyph  horiz-adv-x="1000" d="M152 0 L852 0 L852 700 L152 700 L152 0 Z M220 39 L809 628 L809 39 L220 39 Z M195 661 L782 661 L195 74 L195 661 Z " />
<glyph glyph-name="NULL" d="" />
<glyph glyph-name="CR" unicode="&#xd;" horiz-adv-x="250" d="" />
<glyph glyph-name="space" unicode="&#x20;" horiz-adv-x="480" d="" />
<glyph glyph-name="exclam" unicode="&#x21;" horiz-adv-x="330" d="M52 0 L159 0 L179 109 L71 109 L52 0 Z M91 176 L176 176 L280 700 L182 700 L91 176 Z " />
<glyph glyph-name="quotedbl" unicode="&#x22;" horiz-adv-x="514" d="M123 400 L193 400 L264 700 L162 700 L123 400 Z M345 400 L416 400 L487 700 L385 700 L345 400 Z " />
<glyph glyph-name="numbersign" unicode="&#x23;" horiz-adv-x="1245" d="M813 0 L903 0 L951 178 L1099 178 L1114 260 L975 260 L1025 439 L1175 439 L1190 521 L1048 521 L1098 700 L1009 700 L959 521 L386 521 L436 700 L347 700 L297 521 L150 521 L136 439 L274 439 L224 260 L75 260 L60 178 L200 178 L152 0 L241 0 L289 178 L862 178 L813 0 Z M363 439 L936 439 L885 260 L313 260 L363 439 Z " />
<glyph glyph-name="dollar" unicode="&#x24;" horiz-adv-x="1245" d="M513 -20 L603 -20 L620 70 L883 70 C1043 70 1107 157 1107 253 C1107 329 1061 386 938 386 L677 386 L705 548 L1129 548 L1145 630 L720 630 L737 720 L647 720 L630 630 L367 630 C206 630 143 541 143 443 C143 369 192 313 313 313 L574 313 L545 152 L121 152 L105 70 L530 70 L513 -20 Z M333 386 C263 386 239 415 239 452 C240 505 275 548 371 548 L615 548 L587 386 L333 386 Z M918 313 C988 313 1011 285 1011 247 C1011 194 975 152 880 152 L635 152 L663 313 L918 313 Z " />
<glyph glyph-name="percent" unicode="&#x25;" horiz-adv-x="1245" d="M1038 700 L110 0 L213 0 L1141 700 L1038 700 Z M118 477 C105 404 138 350 246 350 L411 350 C519 350 565 404 577 474 L594 572 C606 645 576 700 469 700 L302 700 C194 700 147 646 135 576 L118 477 Z M467 633 C519 633 528 606 522 573 L505 477 C499 444 474 417 419 417 L246 417 C194 417 186 444 191 477 L207 573 C213 605 238 633 294 633 L467 633 Z M655 127 C642 54 675 0 783 0 L948 0 C1056 0 1102 54 1114 124 L1131 222 C1143 295 1113 350 1006 350 L839 350 C731 350 684 296 672 226 L655 127 Z M1004 283 C1056 283 1065 256 1059 223 L1042 127 C1036 94 1011 67 956 67 L783 67 C731 67 723 94 728 127 L744 223 C750 255 775 283 831 283 L1004 283 Z " />
<glyph glyph-name="ampersand" unicode="&#x26;" horiz-adv-x="1262" d="M252 0 L884 0 C1053 0 1121 92 1121 195 C1121 243 1101 288 1058 309 L1190 309 L1205 391 L387 391 C297 391 267 431 267 481 C267 544 310 610 432 610 L1031 610 L1047 700 L421 700 C239 700 166 599 166 489 C166 432 193 382 246 360 C110 337 58 245 58 153 C58 67 111 0 252 0 L252 0 Z M858 90 L294 90 C200 90 168 128 168 180 C168 243 210 309 332 309 L903 309 C992 309 1023 268 1023 219 C1023 151 981 90 858 90 L858 90 Z " />
<glyph glyph-name="quotesingle" unicode="&#x27;" horiz-adv-x="292" d="M123 400 L193 400 L264 700 L162 700 L123 400 Z " />
<glyph glyph-name="parenleft" unicode="&#x28;" horiz-adv-x="473" d="M315 -116 C139 157 209 542 483 815 L401 815 C101 547 30 153 234 -116 L315 -116 Z " />
<glyph glyph-name="parenright" unicode="&#x29;" horiz-adv-x="473" d="M76 -116 C377 153 449 547 244 815 L162 815 C340 542 270 157 -6 -116 L76 -116 Z " />
<glyph glyph-name="asterisk" unicode="&#x2a;" horiz-adv-x="570" d="M547 489 L521 579 L332 494 L356 700 L262 700 L279 494 L93 579 L63 489 L262 445 L123 294 L198 238 L304 414 L403 238 L481 293 L346 444 L547 489 Z " />
<glyph glyph-name="plus" unicode="&#x2b;" horiz-adv-x="1245" d="M278 305 L575 305 L575 30 L674 30 L674 305 L972 305 L972 395 L674 395 L674 670 L575 670 L575 395 L278 395 L278 305 Z " />
<glyph glyph-name="comma" unicode="&#x2c;" horiz-adv-x="292" d="M34 0 L82 0 L12 -121 L57 -121 L143 7 L162 109 L53 109 L34 0 Z " />
<glyph glyph-name="hyphen" unicode="&#x2d;" horiz-adv-x="576" d="M70 235 L468 235 L485 325 L87 325 L70 235 Z " />
<glyph glyph-name="period" unicode="&#x2e;" horiz-adv-x="292" d="M34 0 L142 0 L162 109 L53 109 L34 0 Z " />
<glyph glyph-name="slash" unicode="&#x2f;" horiz-adv-x="534" d="M-91 -76 L-2 -76 L632 776 L542 776 L-91 -76 Z " />
<glyph glyph-name="zero" unicode="0" horiz-adv-x="1245" d="M83 248 C58 111 123 0 338 0 L796 0 C1012 0 1106 103 1132 245 L1168 452 C1193 589 1128 700 913 700 L454 700 C238 700 144 596 119 454 L83 248 Z M901 610 C1051 610 1084 535 1068 447 L1033 253 C1017 162 956 90 808 90 L349 90 C199 90 166 165 182 252 L217 446 C233 538 294 610 442 610 L901 610 Z " />
<glyph glyph-name="one" unicode="1" horiz-adv-x="1245" d="M414 610 L679 610 L587 90 L178 90 L162 0 L964 0 L980 90 L686 90 L795 700 L432 700 L414 610 Z " />
<glyph glyph-name="two" unicode="2" horiz-adv-x="1245" d="M1084 90 L153 90 L173 197 C184 257 227 309 332 309 L911 309 C1112 309 1191 417 1191 536 C1191 628 1135 700 981 700 L202 700 L185 610 L962 610 C1057 610 1086 569 1086 519 C1086 451 1042 391 923 391 L344 391 C175 391 94 312 74 199 L39 0 L1068 0 L1084 90 Z " />
<glyph glyph-name="three" unicode="3" horiz-adv-x="1245" d="M19 0 L870 0 C1055 0 1128 103 1128 215 C1128 284 1091 341 1004 359 C1097 393 1141 465 1141 555 C1141 636 1087 700 950 700 L164 700 L147 610 L908 610 C1003 610 1034 571 1034 519 C1034 458 991 391 875 391 L192 391 L176 309 L899 309 C994 309 1025 268 1025 218 C1025 152 980 90 861 90 L35 90 L19 0 Z " />
<glyph glyph-name="four" unicode="4" horiz-adv-x="1245" d="M1050 700 L46 198 L31 122 L941 122 L921 0 L1018 0 L1039 122 L1145 122 L1161 212 L1055 212 L1143 700 L1050 700 Z M245 212 L1028 603 L957 212 L245 212 Z " />
<glyph glyph-name="five" unicode="5" horiz-adv-x="1245" d="M93 309 L907 309 C1002 309 1032 269 1032 218 C1032 150 987 90 869 90 L72 90 L56 0 L856 0 C1055 0 1135 105 1135 226 C1135 318 1079 391 926 391 L207 391 L262 610 L1167 610 L1184 700 L194 700 L93 309 Z " />
<glyph glyph-name="six" unicode="6" horiz-adv-x="1245" d="M200 350 C228 498 329 610 568 610 L1157 610 L1174 700 L576 700 C270 700 136 554 102 356 L83 248 C58 111 123 0 337 0 L871 0 C1069 0 1150 104 1150 226 C1150 319 1093 391 940 391 L384 391 C291 391 230 362 194 318 L200 350 Z M333 309 L923 309 C1016 309 1045 268 1045 218 C1045 150 1001 90 883 90 L349 90 C224 90 180 142 178 210 C190 266 233 309 333 309 L333 309 Z " />
<glyph glyph-name="seven" unicode="7" horiz-adv-x="1245" d="M443 0 L1206 620 L1222 700 L145 700 L127 610 L1055 610 L295 0 L443 0 Z " />
<glyph glyph-name="eight" unicode="8" horiz-adv-x="1245" d="M240 0 L886 0 C1071 0 1144 103 1144 215 C1144 284 1107 341 1020 359 C1113 393 1157 465 1157 555 C1157 636 1103 700 966 700 L410 700 C227 700 154 599 154 489 C154 432 179 382 234 360 C98 337 46 245 46 153 C46 67 99 0 240 0 L240 0 Z M877 90 L281 90 C187 90 155 128 155 180 C155 243 197 309 319 309 L914 309 C1010 309 1041 268 1041 218 C1041 153 996 90 877 90 L877 90 Z M924 610 C1018 610 1050 570 1050 520 C1050 458 1008 391 890 391 L375 391 C284 391 255 430 255 481 C255 544 298 610 419 610 L924 610 Z " />
<glyph glyph-name="nine" unicode="9" horiz-adv-x="1245" d="M683 90 L93 90 L77 0 L675 0 C980 0 1114 145 1149 343 L1168 452 C1193 589 1128 700 913 700 L380 700 C181 700 102 595 100 473 C99 380 158 309 310 309 L866 309 C959 309 1020 337 1056 382 L1051 350 C1028 200 922 90 683 90 L683 90 Z M917 391 L328 391 C234 391 205 431 205 482 C205 549 249 610 367 610 L902 610 C1029 610 1071 555 1071 485 C1058 432 1015 391 917 391 L917 391 Z " />
<glyph glyph-name="colon" unicode="&#x3a;" horiz-adv-x="292" d="M113 450 L222 450 L241 560 L133 560 L113 450 Z M34 0 L142 0 L162 109 L53 109 L34 0 Z " />
<glyph glyph-name="semicolon" unicode="&#x3b;" horiz-adv-x="292" d="M34 0 L82 0 L12 -121 L57 -121 L143 7 L162 109 L53 109 L34 0 Z M113 450 L222 450 L241 560 L133 560 L113 450 Z " />
<glyph glyph-name="less" unicode="&#x3c;" horiz-adv-x="1245" d="M962 118 L408 349 L962 582 L962 679 L288 396 L288 303 L962 21 L962 118 Z " />
<glyph glyph-name="equal" unicode="&#x3d;" horiz-adv-x="1245" d="M278 147 L972 147 L972 237 L278 237 L278 147 Z M278 462 L972 462 L972 552 L278 552 L278 462 Z " />
<glyph glyph-name="greater" unicode="&#x3e;" horiz-adv-x="1245" d="M288 21 L962 303 L962 396 L288 679 L288 582 L842 349 L288 118 L288 21 Z " />
<glyph glyph-name="question" unicode="&#x3f;" horiz-adv-x="1026" d="M279 176 L369 176 L392 311 L750 311 C951 311 1029 417 1029 536 C1029 628 972 700 818 700 L95 700 L78 610 L800 610 C894 610 923 568 923 518 C923 450 879 389 759 389 L317 389 L279 176 Z M238 0 L347 0 L366 109 L258 109 L238 0 Z " />
<glyph glyph-name="at" unicode="&#x40;" horiz-adv-x="1341" d="M705 420 L632 420 C414 420 329 298 329 169 C329 69 392 -10 555 -10 L637 -10 C743 -10 812 23 855 77 L852 0 L1121 0 C1215 89 1257 195 1257 309 C1257 491 1146 635 849 635 L649 635 C219 635 44 394 44 129 C44 -69 174 -224 497 -224 L643 -224 L655 -152 L506 -152 C225 -152 131 -21 131 147 C131 358 270 563 642 563 L807 563 C1055 563 1171 469 1171 299 C1171 214 1137 125 1086 72 L917 72 L978 410 L922 410 L899 318 C878 377 814 420 705 420 L705 420 Z M570 62 C452 62 413 113 413 180 C413 267 470 348 619 348 L703 348 C824 348 862 295 862 227 C862 141 811 62 652 62 L570 62 Z " />
<glyph glyph-name="A" unicode="A" horiz-adv-x="1222" d="M1037 0 L1153 0 L729 700 L624 700 L-50 0 L76 0 L205 135 L955 135 L1037 0 Z M665 616 L906 217 L283 217 L665 616 Z " />
<glyph glyph-name="B" unicode="B" horiz-adv-x="1208" d="M58 0 L848 0 C1034 0 1107 103 1107 215 C1107 284 1070 341 983 359 C1077 393 1120 465 1120 555 C1120 636 1066 700 929 700 L183 700 L58 0 Z M877 309 C973 309 1004 268 1004 218 C1004 153 958 90 840 90 L173 90 L211 309 L877 309 Z M1013 519 C1013 458 971 391 853 391 L226 391 L265 610 L887 610 C981 610 1013 570 1013 519 L1013 519 Z " />
<glyph glyph-name="C" unicode="C" horiz-adv-x="1136" d="M173 308 C173 456 262 610 545 610 L1107 610 L1124 700 L552 700 C206 700 67 507 67 296 C67 130 168 0 436 0 L999 0 L1014 90 L452 90 C242 90 173 185 173 308 L173 308 Z " />
<glyph glyph-name="D" unicode="D" horiz-adv-x="1204" d="M58 0 L655 0 C1001 0 1140 193 1140 404 C1140 569 1039 700 771 700 L183 700 L58 0 Z M755 610 C964 610 1034 514 1034 392 C1034 243 945 90 662 90 L171 90 L263 610 L755 610 Z " />
<glyph glyph-name="E" unicode="E" horiz-adv-x="1150" d="M58 0 L1014 0 L1030 90 L173 90 L210 309 L969 309 L985 391 L226 391 L264 610 L1121 610 L1139 700 L183 700 L58 0 Z " />
<glyph glyph-name="F" unicode="F" horiz-adv-x="1112" d="M58 0 L157 0 L209 299 L968 299 L985 389 L226 389 L264 610 L1121 610 L1139 700 L183 700 L58 0 Z " />
<glyph glyph-name="G" unicode="G" horiz-adv-x="1205" d="M632 309 L1010 309 L972 90 L452 90 C242 90 173 185 173 308 C173 456 261 610 545 610 L1107 610 L1124 700 L552 700 C206 700 67 507 67 296 C67 130 168 0 436 0 L1052 0 L1121 391 L648 391 L632 309 Z " />
<glyph glyph-name="H" unicode="H" horiz-adv-x="1252" d="M976 0 L1075 0 L1200 700 L1101 700 L1046 395 L227 395 L282 700 L183 700 L58 0 L157 0 L209 305 L1029 305 L976 0 Z " />
<glyph glyph-name="I" unicode="I" horiz-adv-x="334" d="M58 0 L157 0 L282 700 L183 700 L58 0 Z " />
<glyph glyph-name="J" unicode="J" horiz-adv-x="1162" d="M307 -5 L623 -5 C915 -5 1024 112 1059 306 L1129 700 L1030 700 L962 326 C935 175 850 85 636 85 L325 85 C147 85 105 167 127 273 L137 324 L39 324 L29 275 C-1 123 65 -5 307 -5 L307 -5 Z " />
<glyph glyph-name="K" unicode="K" horiz-adv-x="1238" d="M1211 700 L1035 700 L200 247 L280 700 L183 700 L58 0 L155 0 L180 139 L533 331 L1018 0 L1174 0 L621 379 L1211 700 Z " />
<glyph glyph-name="L" unicode="L" horiz-adv-x="1083" d="M282 700 L183 700 L58 0 L995 0 L1010 90 L173 90 L282 700 Z " />
<glyph glyph-name="M" unicode="M" horiz-adv-x="1392" d="M1238 700 L658 162 L271 700 L183 700 L58 0 L156 0 L255 563 L640 28 L1213 563 L1115 0 L1214 0 L1339 700 L1238 700 Z " />
<glyph glyph-name="N" unicode="N" horiz-adv-x="1253" d="M981 0 L1075 0 L1200 700 L1101 700 L996 107 L277 700 L183 700 L58 0 L157 0 L261 592 L981 0 Z " />
<glyph glyph-name="O" unicode="O" horiz-adv-x="1293" d="M730 -10 C1093 -10 1230 186 1230 410 C1230 579 1123 710 852 710 L568 710 C208 710 67 517 67 294 C67 122 175 -10 447 -10 L730 -10 Z M466 80 C247 80 173 178 173 306 C173 462 269 620 564 620 L832 620 C1049 620 1124 523 1124 397 C1124 236 1028 80 735 80 L466 80 Z " />
<glyph glyph-name="P" unicode="P" horiz-adv-x="1147" d="M58 0 L157 0 L204 265 L838 265 C1059 265 1147 378 1147 516 C1147 618 1086 700 916 700 L183 700 L58 0 Z M897 610 C1007 610 1042 562 1042 502 C1042 424 989 355 851 355 L220 355 L265 610 L897 610 Z " />
<glyph glyph-name="Q" unicode="Q" horiz-adv-x="1293" d="M730 -10 C780 -10 826 -6 868 1 L1058 -110 L1212 -110 L975 29 C1156 97 1230 246 1230 410 C1230 579 1123 710 852 710 L568 710 C208 710 67 517 67 294 C67 122 175 -10 447 -10 L730 -10 Z M466 80 C247 80 173 178 173 306 C173 462 269 620 564 620 L832 620 C1049 620 1124 523 1124 397 C1124 236 1028 80 735 80 L466 80 Z " />
<glyph glyph-name="R" unicode="R" horiz-adv-x="1226" d="M58 0 L155 0 L203 266 L616 266 L1007 0 L1161 0 L758 268 L825 268 C1043 268 1133 380 1133 517 C1133 619 1071 700 902 700 L183 700 L58 0 Z M883 610 C993 610 1029 562 1029 503 C1029 423 975 353 834 353 L218 353 L264 610 L883 610 Z " />
<glyph glyph-name="S" unicode="S" horiz-adv-x="1158" d="M801 90 L65 90 L48 0 L788 0 C987 0 1068 104 1068 226 C1068 319 1010 391 857 391 L324 391 C230 391 201 431 201 482 C201 549 245 610 363 610 L1099 610 L1116 700 L376 700 C177 700 96 595 96 473 C96 380 154 309 306 309 L840 309 C934 309 963 268 963 217 C963 150 919 90 801 90 L801 90 Z " />
<glyph glyph-name="T" unicode="T" horiz-adv-x="1136" d="M77 610 L567 610 L458 0 L557 0 L666 610 L1155 610 L1172 700 L95 700 L77 610 Z " />
<glyph glyph-name="U" unicode="U" horiz-adv-x="1223" d="M194 323 L263 700 L164 700 L95 323 C60 130 136 -10 431 -10 L684 -10 C975 -10 1087 118 1121 308 L1191 700 L1092 700 L1025 327 C997 176 912 80 697 80 L443 80 C220 80 169 180 194 323 L194 323 Z " />
<glyph glyph-name="V" unicode="V" horiz-adv-x="1222" d="M605 0 L1278 700 L1148 700 L562 83 L197 700 L75 700 L498 0 L605 0 Z " />
<glyph glyph-name="W" unicode="W" horiz-adv-x="1552" d="M818 577 L1019 0 L1093 0 L1597 700 L1472 700 L1072 123 L873 700 L799 700 L394 123 L200 700 L87 700 L339 0 L413 0 L818 577 Z " />
<glyph glyph-name="X" unicode="X" horiz-adv-x="1178" d="M91 700 L517 351 L-39 0 L125 0 L588 299 L946 0 L1099 0 L668 351 L1219 700 L1054 700 L595 403 L243 700 L91 700 Z " />
<glyph glyph-name="Y" unicode="Y" horiz-adv-x="1197" d="M489 0 L588 0 L625 212 L1263 700 L1111 700 L585 289 L204 700 L66 700 L526 212 L489 0 Z " />
<glyph glyph-name="Z" unicode="Z" horiz-adv-x="1147" d="M13 0 L1028 0 L1044 90 L223 90 L1121 629 L1130 700 L145 700 L127 610 L920 610 L22 70 L13 0 Z " />
<glyph glyph-name="bracketleft" unicode="&#x5b;" horiz-adv-x="473" d="M39 -150 L338 -150 L351 -78 L150 -78 L303 778 L504 778 L517 850 L217 850 L39 -150 Z " />
<glyph glyph-name="backslash" unicode="&#x5c;" horiz-adv-x="534" d="M146 776 L66 776 L394 -76 L474 -76 L146 776 Z " />
<glyph glyph-name="bracketright" unicode="&#x5d;" horiz-adv-x="473" d="M440 850 L141 850 L128 778 L329 778 L176 -78 L-25 -78 L-38 -150 L261 -150 L440 850 Z " />
<glyph glyph-name="asciicircum" unicode="&#x5e;" horiz-adv-x="1245" d="M912 350 L1034 350 L678 800 L571 800 L216 350 L337 350 L625 715 L912 350 Z " />
<glyph glyph-name="underscore" unicode="&#x5f;" horiz-adv-x="500" d="M-60 -150 L440 -150 L440 -71 L-60 -71 L-60 -150 Z " />
<glyph glyph-name="grave" unicode="&#x60;" horiz-adv-x="480" d="M292 806 L182 806 L302 635 L363 635 L292 806 Z " />
<glyph glyph-name="a" unicode="a" horiz-adv-x="1045" d="M869 0 L975 0 L610 560 L515 560 L-49 0 L65 0 L177 112 L796 112 L869 0 Z M553 487 L751 181 L246 181 L553 487 Z " />
<glyph glyph-name="b" unicode="b" horiz-adv-x="1040" d="M48 0 L725 0 C887 0 938 84 938 172 C938 227 909 273 835 287 C915 315 945 379 945 442 C945 509 904 560 788 560 L147 560 L48 0 Z M751 482 C827 482 849 454 849 414 C849 366 821 314 724 314 L193 314 L222 482 L751 482 Z M745 245 C821 245 843 217 843 177 C843 129 815 77 718 77 L150 77 L180 245 L745 245 Z " />
<glyph glyph-name="c" unicode="c" horiz-adv-x="974" d="M146 242 C146 364 232 482 454 482 L931 482 L946 560 L459 560 C158 560 51 400 51 232 C51 102 133 0 358 0 L845 0 L859 77 L367 77 C201 77 146 146 146 242 L146 242 Z " />
<glyph glyph-name="d" unicode="d" horiz-adv-x="1037" d="M48 0 L559 0 C860 0 967 160 967 328 C967 457 884 560 660 560 L148 560 L48 0 Z M651 482 C817 482 872 414 872 317 C872 195 786 77 564 77 L151 77 L222 482 L651 482 Z " />
<glyph glyph-name="e" unicode="e" horiz-adv-x="992" d="M48 0 L861 0 L875 77 L150 77 L179 245 L820 245 L833 314 L193 314 L222 482 L946 482 L960 560 L147 560 L48 0 Z " />
<glyph glyph-name="f" unicode="f" horiz-adv-x="975" d="M48 0 L137 0 L178 236 L818 236 L833 313 L193 313 L222 482 L946 482 L960 560 L147 560 L48 0 Z " />
<glyph glyph-name="g" unicode="g" horiz-adv-x="1036" d="M358 0 L890 0 L945 314 L542 314 L528 245 L845 245 L816 77 L367 77 C201 77 146 146 146 242 C146 364 232 482 454 482 L930 482 L944 560 L459 560 C158 560 51 400 51 232 C51 102 133 0 358 0 L358 0 Z " />
<glyph glyph-name="h" unicode="h" horiz-adv-x="1081" d="M825 0 L914 0 L1013 560 L924 560 L882 319 L194 319 L236 560 L147 560 L48 0 L137 0 L179 241 L866 241 L825 0 Z " />
<glyph glyph-name="i" unicode="i" horiz-adv-x="304" d="M48 0 L137 0 L236 560 L147 560 L48 0 Z " />
<glyph glyph-name="j" unicode="j" horiz-adv-x="1000" d="M254 -4 L538 -4 C776 -4 867 88 895 245 L951 560 L862 560 L808 261 C787 142 726 73 545 73 L260 73 C120 73 91 136 106 218 L114 260 L26 260 L19 220 C-4 98 46 -4 254 -4 L254 -4 Z " />
<glyph glyph-name="k" unicode="k" horiz-adv-x="1068" d="M1028 560 L864 560 L172 204 L236 560 L147 560 L48 0 L137 0 L156 108 L452 261 L856 0 L999 0 L532 303 L1028 560 Z " />
<glyph glyph-name="l" unicode="l" horiz-adv-x="946" d="M236 560 L147 560 L48 0 L845 0 L859 77 L150 77 L236 560 Z " />
<glyph glyph-name="m" unicode="m" horiz-adv-x="1200" d="M1040 560 L559 138 L226 560 L147 560 L48 0 L136 0 L215 441 L543 21 L1021 441 L943 0 L1032 0 L1131 560 L1040 560 Z " />
<glyph glyph-name="n" unicode="n" horiz-adv-x="1082" d="M914 0 L1013 560 L924 560 L842 94 L231 560 L147 560 L48 0 L137 0 L219 466 L830 0 L914 0 Z " />
<glyph glyph-name="o" unicode="o" horiz-adv-x="1108" d="M617 -8 C922 -8 1036 152 1038 326 C1039 461 956 568 721 568 L470 568 C165 568 52 408 51 234 C49 99 131 -8 366 -8 L617 -8 Z M381 69 C202 69 144 145 145 240 C145 365 232 490 460 490 L707 490 C886 490 943 414 943 318 C943 196 858 69 628 69 L381 69 Z " />
<glyph glyph-name="p" unicode="p" horiz-adv-x="998" d="M48 0 L137 0 L173 209 L712 209 C905 209 969 308 969 412 C969 494 918 560 775 560 L147 560 L48 0 Z M759 482 C848 482 875 447 875 401 C875 344 840 287 724 287 L188 287 L222 482 L759 482 Z " />
<glyph glyph-name="q" unicode="q" horiz-adv-x="1108" d="M617 -8 C658 -8 695 -5 729 0 L884 -88 L1024 -88 L822 24 C975 79 1036 198 1038 326 C1039 461 956 568 721 568 L470 568 C165 568 52 408 51 234 C49 99 131 -8 366 -8 L617 -8 Z M381 69 C202 69 144 145 145 240 C145 365 232 490 460 490 L707 490 C886 490 943 414 943 318 C943 196 858 69 628 69 L381 69 Z " />
<glyph glyph-name="r" unicode="r" horiz-adv-x="1061" d="M48 0 L137 0 L174 210 L524 210 L847 0 L987 0 L651 211 L702 211 C893 211 958 309 958 414 C958 494 907 560 764 560 L148 560 L48 0 Z M747 482 C837 482 863 446 863 401 C863 343 831 285 711 285 L188 285 L222 482 L747 482 Z " />
<glyph glyph-name="s" unicode="s" horiz-adv-x="991" d="M676 77 L49 77 L35 0 L668 0 C844 0 900 89 900 184 C900 258 853 313 725 313 L262 313 C187 313 164 344 164 382 C164 434 195 482 295 482 L922 482 L937 560 L303 560 C127 560 71 471 71 376 C71 302 118 246 246 246 L708 246 C784 246 807 216 807 177 C807 126 776 77 676 77 L676 77 Z " />
<glyph glyph-name="t" unicode="t" horiz-adv-x="998" d="M67 482 L480 482 L395 0 L484 0 L569 482 L983 482 L997 560 L81 560 L67 482 Z " />
<glyph glyph-name="u" unicode="u" horiz-adv-x="1050" d="M162 257 L216 560 L128 560 L74 258 C46 104 96 -8 353 -8 L587 -8 C825 -8 916 84 944 241 L1001 560 L913 560 L858 257 C836 139 776 69 595 69 L366 69 C172 69 143 144 162 257 L162 257 Z " />
<glyph glyph-name="v" unicode="v" horiz-adv-x="1045" d="M511 0 L1074 560 L958 560 L473 72 L159 560 L50 560 L416 0 L511 0 Z " />
<glyph glyph-name="w" unicode="w" horiz-adv-x="1328" d="M684 454 L858 0 L925 0 L1345 560 L1236 560 L906 106 L733 560 L667 560 L334 106 L164 560 L61 560 L284 0 L350 0 L684 454 Z " />
<glyph glyph-name="x" unicode="x" horiz-adv-x="1021" d="M70 560 L433 282 L-33 0 L115 0 L498 234 L799 0 L935 0 L567 282 L1031 560 L882 560 L504 328 L206 560 L70 560 Z " />
<glyph glyph-name="y" unicode="y" horiz-adv-x="1019" d="M406 0 L495 0 L524 170 L1058 560 L923 560 L487 236 L163 560 L40 560 L435 170 L406 0 Z " />
<glyph glyph-name="z" unicode="z" horiz-adv-x="983" d="M6 0 L870 0 L884 77 L195 77 L942 499 L950 560 L111 560 L97 482 L759 482 L13 60 L6 0 Z " />
<glyph glyph-name="braceleft" unicode="&#x7b;" horiz-adv-x="473" d="M184 455 C177 417 159 386 97 386 L57 386 L44 314 L84 314 C146 314 154 283 147 244 L98 -31 C86 -97 113 -150 220 -150 L340 -150 L353 -78 L260 -78 C198 -78 193 -47 200 -9 L244 239 C253 290 234 337 176 349 C243 360 272 401 282 455 L327 708 C334 748 354 778 416 778 L504 778 L517 850 L395 850 C289 850 244 797 232 730 L184 455 Z " />
<glyph glyph-name="bar" unicode="&#x7c;" horiz-adv-x="500" d="M208 850 L208 -150 L293 -150 L293 850 L208 850 Z " />
<glyph glyph-name="braceright" unicode="&#x7d;" horiz-adv-x="473" d="M295 244 C302 282 320 314 382 314 L422 314 L435 386 L395 386 C333 386 325 417 332 455 L381 730 C393 797 366 850 259 850 L139 850 L126 778 L219 778 C281 778 286 746 279 708 L235 461 C226 409 245 363 303 350 C236 339 207 298 197 244 L152 -9 C145 -49 125 -78 63 -78 L-25 -78 L-38 -150 L84 -150 C190 -150 235 -97 247 -31 L295 244 Z " />
<glyph glyph-name="asciitilde" unicode="&#x7e;" horiz-adv-x="1245" d="M972 438 C708 215 557 593 278 380 L278 285 C542 508 694 130 972 343 L972 438 Z " />
<glyph glyph-name="uni00A0" unicode="&#xa0;" horiz-adv-x="480" d="" />
<glyph glyph-name="exclamdown" unicode="&#xa1;" horiz-adv-x="330" d="M286 700 L179 700 L159 590 L267 590 L286 700 Z M247 524 L162 524 L58 0 L156 0 L247 524 Z " />
<glyph glyph-name="cent" unicode="&#xa2;" horiz-adv-x="1245" d="M1090 208 L642 208 L748 492 L1142 492 L1158 574 L783 574 L838 720 L748 720 L693 574 L444 574 C218 574 127 449 127 316 C127 212 198 126 365 126 L521 126 L464 -20 L554 -20 L611 126 L1076 126 L1090 208 Z M223 327 C224 415 289 492 441 492 L658 492 L552 208 L382 208 C267 208 223 256 223 327 L223 327 Z " />
<glyph glyph-name="sterling" unicode="&#xa3;" horiz-adv-x="1245" d="M735 391 L358 391 L368 447 C384 535 427 610 576 610 L1061 610 L1078 700 L581 700 C377 700 295 592 271 456 L259 391 L127 391 L111 309 L244 309 L218 161 C211 116 184 86 136 86 L73 86 L58 0 L1068 0 L1084 90 L256 90 C289 103 315 135 320 174 L343 309 L719 309 L735 391 Z " />
<glyph glyph-name="currency" unicode="&#xa4;" horiz-adv-x="1245" d="M697 81 C789 81 861 99 917 132 L1023 -12 L1102 50 L987 181 C1044 233 1075 312 1075 395 C1075 435 1065 479 1048 508 L1211 639 L1145 711 L993 565 C949 598 885 618 794 618 L551 618 C460 618 386 600 331 568 L224 713 L145 648 L260 516 C196 452 172 373 172 304 C172 264 183 220 200 191 L36 54 L97 -14 L253 134 C297 102 363 81 455 81 L697 81 Z M274 317 C274 418 327 531 535 531 L778 531 C925 531 974 467 974 382 C974 281 921 168 713 168 L470 168 C324 168 274 232 274 317 L274 317 Z " />
<glyph glyph-name="yen" unicode="&#xa5;" horiz-adv-x="1245" d="M1079 700 L618 343 L284 700 L147 700 L427 414 L116 414 L101 337 L492 337 L560 265 L552 217 L81 217 L66 140 L537 140 L513 0 L612 0 L636 140 L1107 140 L1122 217 L651 217 L659 265 L752 337 L1143 337 L1158 414 L847 414 L1228 700 L1079 700 Z " />
<glyph glyph-name="brokenbar" unicode="&#xa6;" horiz-adv-x="500" d="M293 467 L293 850 L208 850 L208 467 L293 467 Z M208 233 L208 -150 L293 -150 L293 233 L208 233 Z " />
<glyph glyph-name="section" unicode="&#xa7;" horiz-adv-x="1176" d="M759 145 C826 145 851 115 851 80 C851 31 821 -18 726 -18 L153 -18 L137 -100 L745 -100 C885 -100 941 -22 941 62 C941 97 927 129 900 147 L910 147 C1048 147 1105 236 1105 325 C1105 397 1057 455 939 455 L405 455 C337 455 313 484 313 520 C313 568 343 618 438 618 L1010 618 L1027 700 L418 700 C279 700 223 622 223 537 C223 503 236 470 263 453 L253 453 C116 453 59 363 59 274 C59 202 107 145 225 145 L759 145 Z M919 382 C991 382 1013 352 1013 315 C1013 265 981 218 887 218 L244 218 C173 218 150 248 150 285 C150 334 182 382 276 382 L919 382 Z " />
<glyph glyph-name="dieresis" unicode="&#xa8;" horiz-adv-x="480" d="M378 670 L476 670 L493 769 L395 769 L378 670 Z M119 670 L217 670 L234 769 L136 769 L119 670 Z " />
<glyph glyph-name="copyright" unicode="&#xa9;" horiz-adv-x="1159" d="M663 -10 C976 -10 1099 151 1099 350 C1099 549 976 710 663 710 L501 710 C188 710 65 549 65 350 C65 151 188 -10 501 -10 L663 -10 Z M502 55 C235 55 140 187 140 350 C140 513 235 645 502 645 L662 645 C928 645 1023 513 1023 350 C1023 187 928 55 662 55 L502 55 Z M795 230 L512 230 C399 230 364 283 364 350 C364 416 399 470 512 470 L795 470 L795 525 L512 525 C359 525 300 446 300 350 C300 253 359 175 512 175 L795 175 L795 230 Z " />
<glyph glyph-name="ordfeminine" unicode="&#xaa;" horiz-adv-x="731" d="M584 350 L674 350 L470 700 L392 700 L63 350 L159 350 L210 408 L551 408 L584 350 Z M417 635 L514 470 L266 470 L417 635 Z " />
<glyph glyph-name="guillemotleft" unicode="&#xab;" horiz-adv-x="761" d="M318 560 L79 281 L221 0 L321 0 L183 274 L428 560 L318 560 Z M609 560 L370 281 L512 0 L612 0 L474 274 L719 560 L609 560 Z " />
<glyph glyph-name="logicalnot" unicode="&#xac;" horiz-adv-x="1245" d="M278 305 L873 305 L873 40 L972 40 L972 395 L278 395 L278 305 Z " />
<glyph glyph-name="uni00AD" unicode="&#xad;" horiz-adv-x="576" d="M71 240 L469 240 L484 319 L86 319 L71 240 Z " />
<glyph glyph-name="registered" unicode="&#xae;" horiz-adv-x="1159" d="M663 -10 C976 -10 1099 151 1099 350 C1099 549 976 710 663 710 L501 710 C188 710 65 549 65 350 C65 151 188 -10 501 -10 L663 -10 Z M502 55 C235 55 140 187 140 350 C140 513 235 645 502 645 L662 645 C928 645 1023 513 1023 350 C1023 187 928 55 662 55 L502 55 Z M333 175 L394 175 L394 303 L606 303 L795 175 L887 175 L692 304 C789 304 827 352 827 414 C827 475 790 525 693 525 L333 525 L333 175 Z M688 470 C746 470 762 444 762 412 C762 380 746 356 688 356 L394 356 L394 470 L688 470 Z " />
<glyph glyph-name="macron" unicode="&#xaf;" horiz-adv-x="480" d="M117 687 L486 687 L497 752 L128 752 L117 687 Z " />
<glyph glyph-name="degree" unicode="&#xb0;" horiz-adv-x="542" d="M99 508 C99 392 191 307 302 307 C413 307 505 392 505 508 C505 625 413 710 302 710 C191 710 99 625 99 508 L99 508 Z M177 508 C177 584 230 639 302 639 C374 639 427 584 427 508 C427 433 374 378 302 378 C230 378 177 433 177 508 L177 508 Z " />
<glyph glyph-name="plusminus" unicode="&#xb1;" horiz-adv-x="1245" d="M278 400 L575 400 L575 190 L674 190 L674 400 L972 400 L972 490 L674 490 L674 700 L575 700 L575 490 L278 490 L278 400 Z M278 0 L972 0 L972 90 L278 90 L278 0 Z " />
<glyph glyph-name="twosuperior" unicode="&#xb2;" horiz-adv-x="716" d="M629 417 L178 417 L186 456 C189 477 207 497 252 497 L533 497 C641 497 677 549 677 613 C677 662 645 700 567 700 L179 700 L166 633 L552 633 C591 633 600 618 600 599 C600 575 582 553 536 553 L260 553 C169 553 126 510 115 452 L98 350 L617 350 L629 417 Z " />
<glyph glyph-name="threesuperior" unicode="&#xb3;" horiz-adv-x="716" d="M83 350 L510 350 C604 350 642 402 642 458 C642 493 624 520 584 530 C628 549 647 586 647 624 C647 667 620 700 553 700 L156 700 L144 633 L520 633 C559 633 569 618 569 599 C569 575 550 553 504 553 L171 553 L160 497 L517 497 C555 497 566 482 566 462 C566 439 547 417 502 417 L96 417 L83 350 Z " />
<glyph glyph-name="acute" unicode="&#xb4;" horiz-adv-x="480" d="M217 635 L285 635 L468 806 L349 806 L217 635 Z " />
<glyph glyph-name="uni00B5" unicode="&#xb5;" horiz-adv-x="1245" d="M991 0 L1059 0 L1158 560 L1059 560 L1023 355 C997 207 896 90 654 90 L327 90 C219 90 190 136 201 199 L266 560 L167 560 L30 -200 L129 -200 L179 77 C196 17 254 0 334 0 L655 0 C839 0 942 69 997 165 L991 0 Z " />
<glyph glyph-name="paragraph" unicode="&#xb6;" horiz-adv-x="1150" d="M607 610 L864 610 L864 -100 L963 -100 L963 610 L1059 610 L1059 700 L326 700 C134 700 60 602 60 482 C60 360 134 265 326 265 L508 265 L508 -100 L607 -100 L607 610 Z " />
<glyph glyph-name="periodcentered" unicode="&#xb7;" horiz-adv-x="292" d="M86 295 L194 295 L214 404 L106 404 L86 295 Z " />
<glyph glyph-name="cedilla" unicode="&#xb8;" horiz-adv-x="480" d="M108 -112 L134 -112 C188 -112 218 -123 218 -156 C218 -204 164 -217 114 -217 C78 -217 43 -208 27 -197 L19 -241 C43 -255 85 -267 128 -267 C206 -266 288 -241 288 -150 C288 -85 222 -64 164 -70 L196 0 L158 0 L108 -112 Z " />
<glyph glyph-name="onesuperior" unicode="&#xb9;" horiz-adv-x="716" d="M279 633 L401 633 L364 417 L169 417 L157 350 L562 350 L574 417 L437 417 L487 700 L291 700 L279 633 Z " />
<glyph glyph-name="ordmasculine" unicode="&#xba;" horiz-adv-x="729" d="M438 345 C619 345 691 444 691 555 C691 636 637 705 501 705 L359 705 C178 705 107 605 107 495 C107 413 161 345 297 345 L438 345 Z M309 412 C215 412 182 453 182 506 C182 573 225 638 352 638 L488 638 C582 638 616 596 616 544 C616 476 572 412 445 412 L309 412 Z " />
<glyph glyph-name="guillemotright" unicode="&#xbb;" horiz-adv-x="761" d="M134 0 L374 278 L231 560 L131 560 L270 286 L25 0 L134 0 Z M425 0 L665 278 L522 560 L422 560 L561 286 L316 0 L425 0 Z " />
<glyph glyph-name="onequarter" unicode="&#xbc;" horiz-adv-x="1432" d="M279 633 L401 633 L364 417 L169 417 L157 350 L562 350 L574 417 L437 417 L487 700 L291 700 L279 633 Z M1129 700 L201 0 L308 0 L1236 700 L1129 700 Z M1238 350 L758 113 L747 58 L1182 58 L1173 0 L1246 0 L1255 58 L1309 58 L1321 125 L1267 125 L1308 350 L1238 350 Z M909 125 L1221 277 L1195 125 L909 125 Z " />
<glyph glyph-name="onehalf" unicode="&#xbd;" horiz-adv-x="1432" d="M279 633 L401 633 L364 417 L169 417 L157 350 L562 350 L574 417 L437 417 L487 700 L291 700 L279 633 Z M1129 700 L201 0 L308 0 L1236 700 L1129 700 Z M1283 67 L832 67 L840 106 C843 127 861 147 906 147 L1187 147 C1295 147 1331 199 1331 263 C1331 312 1299 350 1221 350 L833 350 L820 283 L1206 283 C1245 283 1254 268 1254 249 C1254 225 1236 203 1190 203 L914 203 C823 203 780 160 769 102 L752 0 L1271 0 L1283 67 Z " />
<glyph glyph-name="threequarters" unicode="&#xbe;" horiz-adv-x="1432" d="M83 350 L510 350 C604 350 642 402 642 458 C642 493 624 520 584 530 C628 549 647 586 647 624 C647 667 620 700 553 700 L156 700 L144 633 L520 633 C559 633 569 618 569 599 C569 575 550 553 504 553 L171 553 L160 497 L517 497 C555 497 566 482 566 462 C566 439 547 417 502 417 L96 417 L83 350 Z M1129 700 L201 0 L308 0 L1236 700 L1129 700 Z M1238 350 L758 113 L747 58 L1182 58 L1173 0 L1246 0 L1255 58 L1309 58 L1321 125 L1267 125 L1308 350 L1238 350 Z M909 125 L1221 277 L1195 125 L909 125 Z " />
<glyph glyph-name="questiondown" unicode="&#xbf;" horiz-adv-x="1026" d="M754 524 L663 524 L640 389 L283 389 C81 389 4 283 4 163 C4 71 60 0 214 0 L938 0 L955 90 L233 90 C138 90 109 131 109 181 C109 249 153 311 273 311 L716 311 L754 524 Z M795 700 L685 700 L666 590 L775 590 L795 700 Z " />
<glyph glyph-name="Agrave" unicode="&#xc0;" horiz-adv-x="1222" d="M1037 0 L1153 0 L729 700 L624 700 L-50 0 L76 0 L205 135 L955 135 L1037 0 Z M665 616 L906 217 L283 217 L665 616 Z M687 946 L577 946 L697 775 L758 775 L687 946 Z " />
<glyph glyph-name="Aacute" unicode="&#xc1;" horiz-adv-x="1222" d="M1037 0 L1153 0 L729 700 L624 700 L-50 0 L76 0 L205 135 L955 135 L1037 0 Z M665 616 L906 217 L283 217 L665 616 Z M612 775 L680 775 L863 946 L744 946 L612 775 Z " />
<glyph glyph-name="Acircumflex" unicode="&#xc2;" horiz-adv-x="1222" d="M1037 0 L1153 0 L729 700 L624 700 L-50 0 L76 0 L205 135 L955 135 L1037 0 Z M665 616 L906 217 L283 217 L665 616 Z M512 775 L577 775 L710 895 L798 775 L860 775 L775 946 L659 946 L512 775 Z " />
<glyph glyph-name="Atilde" unicode="&#xc3;" horiz-adv-x="1222" d="M1037 0 L1153 0 L729 700 L624 700 L-50 0 L76 0 L205 135 L955 135 L1037 0 Z M665 616 L906 217 L283 217 L665 616 Z M834 932 C819 877 800 866 775 866 C733 866 702 925 640 925 C586 925 545 893 519 788 L569 788 C583 843 603 855 628 855 C670 855 700 795 762 795 C816 795 858 827 884 932 L834 932 Z " />
<glyph glyph-name="Adieresis" unicode="&#xc4;" horiz-adv-x="1222" d="M1037 0 L1153 0 L729 700 L624 700 L-50 0 L76 0 L205 135 L955 135 L1037 0 Z M665 616 L906 217 L283 217 L665 616 Z M773 810 L871 810 L888 909 L790 909 L773 810 Z M514 810 L612 810 L629 909 L531 909 L514 810 Z " />
<glyph glyph-name="Aring" unicode="&#xc5;" horiz-adv-x="1222" d="M1037 0 L1153 0 L729 700 L624 700 L-50 0 L76 0 L205 135 L955 135 L1037 0 Z M665 616 L906 217 L283 217 L665 616 Z M640 856 C640 892 672 921 708 921 C739 921 762 897 762 866 C762 829 730 800 695 800 C663 800 640 824 640 856 L640 856 Z M582 851 C581 794 624 749 689 749 C761 749 820 804 820 871 C820 928 777 972 712 972 C640 972 582 919 582 851 L582 851 Z " />
<glyph glyph-name="AE" unicode="&#xc6;" horiz-adv-x="1638" d="M670 133 L647 0 L1502 0 L1518 90 L762 90 L800 309 L1458 309 L1474 391 L816 391 L854 610 L1610 610 L1627 700 L719 700 L-50 0 L77 0 L222 133 L670 133 Z M312 215 L756 622 L686 215 L312 215 Z " />
<glyph glyph-name="Ccedilla" unicode="&#xc7;" horiz-adv-x="1136" d="M483 -112 L509 -112 C563 -112 593 -123 593 -156 C593 -204 539 -217 489 -217 C453 -217 418 -208 402 -197 L394 -241 C418 -255 460 -267 503 -267 C581 -266 663 -241 663 -150 C663 -85 597 -64 539 -70 L571 0 L999 0 L1014 90 L452 90 C242 90 173 185 173 308 C173 456 262 610 545 610 L1107 610 L1124 700 L552 700 C206 700 67 507 67 296 C67 130 168 0 436 0 L533 0 L483 -112 Z " />
<glyph glyph-name="Egrave" unicode="&#xc8;" horiz-adv-x="1150" d="M58 0 L1014 0 L1030 90 L173 90 L210 309 L969 309 L985 391 L226 391 L264 610 L1121 610 L1139 700 L183 700 L58 0 Z M661 946 L551 946 L671 775 L732 775 L661 946 Z " />
<glyph glyph-name="Eacute" unicode="&#xc9;" horiz-adv-x="1150" d="M58 0 L1014 0 L1030 90 L173 90 L210 309 L969 309 L985 391 L226 391 L264 610 L1121 610 L1139 700 L183 700 L58 0 Z M586 775 L654 775 L837 946 L718 946 L586 775 Z " />
<glyph glyph-name="Ecircumflex" unicode="&#xca;" horiz-adv-x="1150" d="M58 0 L1014 0 L1030 90 L173 90 L210 309 L969 309 L985 391 L226 391 L264 610 L1121 610 L1139 700 L183 700 L58 0 Z M486 775 L551 775 L684 895 L772 775 L834 775 L749 946 L633 946 L486 775 Z " />
<glyph glyph-name="Edieresis" unicode="&#xcb;" horiz-adv-x="1150" d="M58 0 L1014 0 L1030 90 L173 90 L210 309 L969 309 L985 391 L226 391 L264 610 L1121 610 L1139 700 L183 700 L58 0 Z M747 810 L845 810 L862 909 L764 909 L747 810 Z M488 810 L586 810 L603 909 L505 909 L488 810 Z " />
<glyph glyph-name="Igrave" unicode="&#xcc;" horiz-adv-x="334" d="M58 0 L157 0 L282 700 L183 700 L58 0 Z M243 946 L133 946 L253 775 L314 775 L243 946 Z " />
<glyph glyph-name="Iacute" unicode="&#xcd;" horiz-adv-x="334" d="M58 0 L157 0 L282 700 L183 700 L58 0 Z M168 775 L236 775 L419 946 L300 946 L168 775 Z " />
<glyph glyph-name="Icircumflex" unicode="&#xce;" horiz-adv-x="334" d="M58 0 L157 0 L282 700 L183 700 L58 0 Z M68 775 L133 775 L266 895 L354 775 L416 775 L331 946 L215 946 L68 775 Z " />
<glyph glyph-name="Idieresis" unicode="&#xcf;" horiz-adv-x="334" d="M58 0 L157 0 L282 700 L183 700 L58 0 Z M328 810 L426 810 L443 909 L345 909 L328 810 Z M69 810 L167 810 L184 909 L86 909 L69 810 Z " />
<glyph glyph-name="Eth" unicode="&#xd0;" horiz-adv-x="1204" d="M-13 309 L113 309 L58 0 L655 0 C1001 0 1140 193 1140 404 C1140 569 1039 700 771 700 L183 700 L127 391 L3 391 L-13 309 Z M755 610 C964 610 1034 514 1034 392 C1034 243 945 90 662 90 L171 90 L209 309 L607 309 L623 391 L224 391 L263 610 L755 610 Z " />
<glyph glyph-name="Ntilde" unicode="&#xd1;" horiz-adv-x="1253" d="M981 0 L1075 0 L1200 700 L1101 700 L996 107 L277 700 L183 700 L58 0 L157 0 L261 592 L981 0 Z M849 932 C834 877 815 866 790 866 C748 866 717 925 655 925 C601 925 560 893 534 788 L584 788 C598 843 618 855 643 855 C685 855 715 795 777 795 C831 795 873 827 899 932 L849 932 Z " />
<glyph glyph-name="Ograve" unicode="&#xd2;" horiz-adv-x="1293" d="M730 -10 C1093 -10 1230 186 1230 410 C1230 579 1123 710 852 710 L568 710 C208 710 67 517 67 294 C67 122 175 -10 447 -10 L730 -10 Z M466 80 C247 80 173 178 173 306 C173 462 269 620 564 620 L832 620 C1049 620 1124 523 1124 397 C1124 236 1028 80 735 80 L466 80 Z M722 946 L612 946 L732 775 L793 775 L722 946 Z " />
<glyph glyph-name="Oacute" unicode="&#xd3;" horiz-adv-x="1293" d="M730 -10 C1093 -10 1230 186 1230 410 C1230 579 1123 710 852 710 L568 710 C208 710 67 517 67 294 C67 122 175 -10 447 -10 L730 -10 Z M466 80 C247 80 173 178 173 306 C173 462 269 620 564 620 L832 620 C1049 620 1124 523 1124 397 C1124 236 1028 80 735 80 L466 80 Z M647 775 L715 775 L898 946 L779 946 L647 775 Z " />
<glyph glyph-name="Ocircumflex" unicode="&#xd4;" horiz-adv-x="1293" d="M730 -10 C1093 -10 1230 186 1230 410 C1230 579 1123 710 852 710 L568 710 C208 710 67 517 67 294 C67 122 175 -10 447 -10 L730 -10 Z M466 80 C247 80 173 178 173 306 C173 462 269 620 564 620 L832 620 C1049 620 1124 523 1124 397 C1124 236 1028 80 735 80 L466 80 Z M547 775 L612 775 L745 895 L833 775 L895 775 L810 946 L694 946 L547 775 Z " />
<glyph glyph-name="Otilde" unicode="&#xd5;" horiz-adv-x="1293" d="M730 -10 C1093 -10 1230 186 1230 410 C1230 579 1123 710 852 710 L568 710 C208 710 67 517 67 294 C67 122 175 -10 447 -10 L730 -10 Z M466 80 C247 80 173 178 173 306 C173 462 269 620 564 620 L832 620 C1049 620 1124 523 1124 397 C1124 236 1028 80 735 80 L466 80 Z M869 932 C854 877 835 866 810 866 C768 866 737 925 675 925 C621 925 580 893 554 788 L604 788 C618 843 638 855 663 855 C705 855 735 795 797 795 C851 795 893 827 919 932 L869 932 Z " />
<glyph glyph-name="Odieresis" unicode="&#xd6;" horiz-adv-x="1293" d="M730 -10 C1093 -10 1230 186 1230 410 C1230 579 1123 710 852 710 L568 710 C208 710 67 517 67 294 C67 122 175 -10 447 -10 L730 -10 Z M466 80 C247 80 173 178 173 306 C173 462 269 620 564 620 L832 620 C1049 620 1124 523 1124 397 C1124 236 1028 80 735 80 L466 80 Z M808 810 L906 810 L923 909 L825 909 L808 810 Z M549 810 L647 810 L664 909 L566 909 L549 810 Z " />
<glyph glyph-name="multiply" unicode="&#xd7;" horiz-adv-x="1245" d="M925 580 L858 647 L623 409 L392 642 L325 575 L557 348 L325 120 L392 53 L623 287 L858 53 L925 120 L689 349 L925 580 Z " />
<glyph glyph-name="Oslash" unicode="&#xd8;" horiz-adv-x="1293" d="M730 -10 C1093 -10 1230 186 1230 410 C1230 538 1168 645 1019 688 L1123 800 L1009 800 L922 706 C900 708 877 710 852 710 L568 710 C208 710 67 517 67 294 C67 163 129 56 278 12 L174 -100 L289 -100 L375 -6 C398 -8 421 -10 447 -10 L730 -10 Z M173 306 C173 462 269 620 564 620 L842 620 L351 91 C220 120 173 203 173 306 L173 306 Z M455 80 L946 609 C1076 580 1124 497 1124 397 C1124 236 1028 80 735 80 L455 80 Z " />
<glyph glyph-name="Ugrave" unicode="&#xd9;" horiz-adv-x="1223" d="M194 323 L263 700 L164 700 L95 323 C60 130 136 -10 431 -10 L684 -10 C975 -10 1087 118 1121 308 L1191 700 L1092 700 L1025 327 C997 176 912 80 697 80 L443 80 C220 80 169 180 194 323 L194 323 Z M688 946 L578 946 L698 775 L759 775 L688 946 Z " />
<glyph glyph-name="Uacute" unicode="&#xda;" horiz-adv-x="1223" d="M194 323 L263 700 L164 700 L95 323 C60 130 136 -10 431 -10 L684 -10 C975 -10 1087 118 1121 308 L1191 700 L1092 700 L1025 327 C997 176 912 80 697 80 L443 80 C220 80 169 180 194 323 L194 323 Z M613 775 L681 775 L864 946 L745 946 L613 775 Z " />
<glyph glyph-name="Ucircumflex" unicode="&#xdb;" horiz-adv-x="1223" d="M194 323 L263 700 L164 700 L95 323 C60 130 136 -10 431 -10 L684 -10 C975 -10 1087 118 1121 308 L1191 700 L1092 700 L1025 327 C997 176 912 80 697 80 L443 80 C220 80 169 180 194 323 L194 323 Z M513 775 L578 775 L711 895 L799 775 L861 775 L776 946 L660 946 L513 775 Z " />
<glyph glyph-name="Udieresis" unicode="&#xdc;" horiz-adv-x="1223" d="M194 323 L263 700 L164 700 L95 323 C60 130 136 -10 431 -10 L684 -10 C975 -10 1087 118 1121 308 L1191 700 L1092 700 L1025 327 C997 176 912 80 697 80 L443 80 C220 80 169 180 194 323 L194 323 Z M774 810 L872 810 L889 909 L791 909 L774 810 Z M515 810 L613 810 L630 909 L532 909 L515 810 Z " />
<glyph glyph-name="Yacute" unicode="&#xdd;" horiz-adv-x="1197" d="M489 0 L588 0 L625 212 L1263 700 L1111 700 L585 289 L204 700 L66 700 L526 212 L489 0 Z M599 775 L667 775 L850 946 L731 946 L599 775 Z " />
<glyph glyph-name="Thorn" unicode="&#xde;" horiz-adv-x="1146" d="M58 0 L157 0 L180 132 L815 132 C1036 132 1124 246 1124 384 C1124 486 1063 567 893 567 L259 567 L282 700 L183 700 L58 0 Z M874 477 C985 477 1020 430 1020 370 C1020 292 966 222 828 222 L197 222 L241 477 L874 477 Z " />
<glyph glyph-name="germandbls" unicode="&#xdf;" horiz-adv-x="1044" d="M451 246 L740 246 C816 246 839 216 839 177 C839 126 808 77 708 77 L304 77 L291 0 L700 0 C876 0 932 89 932 184 C932 258 885 313 757 313 L602 313 L944 499 L951 560 L466 560 C208 560 109 450 82 296 L29 0 L117 0 L170 296 C189 406 258 482 454 482 L773 482 L462 307 L451 246 Z " />
<glyph glyph-name="agrave" unicode="&#xe0;" horiz-adv-x="1045" d="M869 0 L975 0 L610 560 L515 560 L-49 0 L65 0 L177 112 L796 112 L869 0 Z M553 487 L751 181 L246 181 L553 487 Z M574 806 L464 806 L584 635 L645 635 L574 806 Z " />
<glyph glyph-name="aacute" unicode="&#xe1;" horiz-adv-x="1045" d="M869 0 L975 0 L610 560 L515 560 L-49 0 L65 0 L177 112 L796 112 L869 0 Z M553 487 L751 181 L246 181 L553 487 Z M499 635 L567 635 L750 806 L631 806 L499 635 Z " />
<glyph glyph-name="acircumflex" unicode="&#xe2;" horiz-adv-x="1045" d="M869 0 L975 0 L610 560 L515 560 L-49 0 L65 0 L177 112 L796 112 L869 0 Z M553 487 L751 181 L246 181 L553 487 Z M399 635 L464 635 L597 755 L685 635 L747 635 L662 806 L546 806 L399 635 Z " />
<glyph glyph-name="atilde" unicode="&#xe3;" horiz-adv-x="1045" d="M869 0 L975 0 L610 560 L515 560 L-49 0 L65 0 L177 112 L796 112 L869 0 Z M553 487 L751 181 L246 181 L553 487 Z M721 792 C706 737 687 726 662 726 C620 726 589 785 527 785 C473 785 432 753 406 648 L456 648 C470 703 490 715 515 715 C557 715 587 655 649 655 C703 655 745 687 771 792 L721 792 Z " />
<glyph glyph-name="adieresis" unicode="&#xe4;" horiz-adv-x="1045" d="M869 0 L975 0 L610 560 L515 560 L-49 0 L65 0 L177 112 L796 112 L869 0 Z M553 487 L751 181 L246 181 L553 487 Z M660 670 L758 670 L775 769 L677 769 L660 670 Z M401 670 L499 670 L516 769 L418 769 L401 670 Z " />
<glyph glyph-name="aring" unicode="&#xe5;" horiz-adv-x="1045" d="M869 0 L975 0 L610 560 L515 560 L-49 0 L65 0 L177 112 L796 112 L869 0 Z M553 487 L751 181 L246 181 L553 487 Z M527 716 C527 752 559 781 595 781 C626 781 649 757 649 726 C649 689 617 660 582 660 C550 660 527 684 527 716 L527 716 Z M469 711 C468 654 511 609 576 609 C648 609 707 664 707 731 C707 788 664 832 599 832 C527 832 469 779 469 711 L469 711 Z " />
<glyph glyph-name="ae" unicode="&#xe6;" horiz-adv-x="1402" d="M562 105 L544 0 L1273 0 L1286 77 L647 77 L676 245 L1231 245 L1244 314 L689 314 L718 482 L1358 482 L1372 560 L596 560 L-49 0 L66 0 L187 105 L562 105 Z M266 174 L631 490 L575 174 L266 174 Z " />
<glyph glyph-name="ccedilla" unicode="&#xe7;" horiz-adv-x="974" d="M393 -112 L419 -112 C473 -112 503 -123 503 -156 C503 -204 449 -217 399 -217 C363 -217 328 -208 312 -197 L304 -241 C328 -255 370 -267 413 -267 C491 -266 573 -241 573 -150 C573 -85 507 -64 449 -70 L481 0 L845 0 L859 77 L367 77 C201 77 146 146 146 242 C146 364 232 482 454 482 L931 482 L946 560 L459 560 C158 560 51 400 51 232 C51 102 133 0 358 0 L443 0 L393 -112 Z " />
<glyph glyph-name="egrave" unicode="&#xe8;" horiz-adv-x="992" d="M48 0 L861 0 L875 77 L150 77 L179 245 L820 245 L833 314 L193 314 L222 482 L946 482 L960 560 L147 560 L48 0 Z M559 806 L449 806 L569 635 L630 635 L559 806 Z " />
<glyph glyph-name="eacute" unicode="&#xe9;" horiz-adv-x="992" d="M48 0 L861 0 L875 77 L150 77 L179 245 L820 245 L833 314 L193 314 L222 482 L946 482 L960 560 L147 560 L48 0 Z M484 635 L552 635 L735 806 L616 806 L484 635 Z " />
<glyph glyph-name="ecircumflex" unicode="&#xea;" horiz-adv-x="992" d="M48 0 L861 0 L875 77 L150 77 L179 245 L820 245 L833 314 L193 314 L222 482 L946 482 L960 560 L147 560 L48 0 Z M384 635 L449 635 L582 755 L670 635 L732 635 L647 806 L531 806 L384 635 Z " />
<glyph glyph-name="edieresis" unicode="&#xeb;" horiz-adv-x="992" d="M48 0 L861 0 L875 77 L150 77 L179 245 L820 245 L833 314 L193 314 L222 482 L946 482 L960 560 L147 560 L48 0 Z M645 670 L743 670 L760 769 L662 769 L645 670 Z M386 670 L484 670 L501 769 L403 769 L386 670 Z " />
<glyph glyph-name="igrave" unicode="&#xec;" horiz-adv-x="304" d="M204 806 L94 806 L214 635 L275 635 L204 806 Z M48 0 L137 0 L236 560 L147 560 L48 0 Z " />
<glyph glyph-name="iacute" unicode="&#xed;" horiz-adv-x="304" d="M129 635 L197 635 L380 806 L261 806 L129 635 Z M48 0 L137 0 L236 560 L147 560 L48 0 Z " />
<glyph glyph-name="icircumflex" unicode="&#xee;" horiz-adv-x="304" d="M48 0 L137 0 L236 560 L147 560 L48 0 Z M29 635 L94 635 L227 755 L315 635 L377 635 L292 806 L176 806 L29 635 Z " />
<glyph glyph-name="idieresis" unicode="&#xef;" horiz-adv-x="304" d="M289 670 L387 670 L404 769 L306 769 L289 670 Z M30 670 L128 670 L145 769 L47 769 L30 670 Z M48 0 L137 0 L236 560 L147 560 L48 0 Z " />
<glyph glyph-name="eth" unicode="&#xf0;" horiz-adv-x="1037" d="M-25 245 L91 245 L48 0 L559 0 C860 0 967 160 967 328 C967 457 884 560 660 560 L148 560 L104 314 L-11 314 L-25 245 Z M651 482 C817 482 872 414 872 317 C872 195 786 77 564 77 L151 77 L180 245 L524 245 L538 314 L192 314 L222 482 L651 482 Z " />
<glyph glyph-name="ntilde" unicode="&#xf1;" horiz-adv-x="1082" d="M914 0 L1013 560 L924 560 L842 94 L231 560 L147 560 L48 0 L137 0 L219 466 L830 0 L914 0 Z M739 792 C724 737 705 726 680 726 C638 726 607 785 545 785 C491 785 450 753 424 648 L474 648 C488 703 508 715 533 715 C575 715 605 655 667 655 C721 655 763 687 789 792 L739 792 Z " />
<glyph glyph-name="ograve" unicode="&#xf2;" horiz-adv-x="1108" d="M617 -8 C922 -8 1036 152 1038 326 C1039 461 956 568 721 568 L470 568 C165 568 52 408 51 234 C49 99 131 -8 366 -8 L617 -8 Z M381 69 C202 69 144 145 145 240 C145 365 232 490 460 490 L707 490 C886 490 943 414 943 318 C943 196 858 69 628 69 L381 69 Z M606 806 L496 806 L616 635 L677 635 L606 806 Z " />
<glyph glyph-name="oacute" unicode="&#xf3;" horiz-adv-x="1108" d="M617 -8 C922 -8 1036 152 1038 326 C1039 461 956 568 721 568 L470 568 C165 568 52 408 51 234 C49 99 131 -8 366 -8 L617 -8 Z M381 69 C202 69 144 145 145 240 C145 365 232 490 460 490 L707 490 C886 490 943 414 943 318 C943 196 858 69 628 69 L381 69 Z M531 635 L599 635 L782 806 L663 806 L531 635 Z " />
<glyph glyph-name="ocircumflex" unicode="&#xf4;" horiz-adv-x="1108" d="M617 -8 C922 -8 1036 152 1038 326 C1039 461 956 568 721 568 L470 568 C165 568 52 408 51 234 C49 99 131 -8 366 -8 L617 -8 Z M381 69 C202 69 144 145 145 240 C145 365 232 490 460 490 L707 490 C886 490 943 414 943 318 C943 196 858 69 628 69 L381 69 Z M431 635 L496 635 L629 755 L717 635 L779 635 L694 806 L578 806 L431 635 Z " />
<glyph glyph-name="otilde" unicode="&#xf5;" horiz-adv-x="1108" d="M617 -8 C922 -8 1036 152 1038 326 C1039 461 956 568 721 568 L470 568 C165 568 52 408 51 234 C49 99 131 -8 366 -8 L617 -8 Z M381 69 C202 69 144 145 145 240 C145 365 232 490 460 490 L707 490 C886 490 943 414 943 318 C943 196 858 69 628 69 L381 69 Z M752 792 C737 737 718 726 693 726 C651 726 620 785 558 785 C504 785 463 753 437 648 L487 648 C501 703 521 715 546 715 C588 715 618 655 680 655 C734 655 776 687 802 792 L752 792 Z " />
<glyph glyph-name="odieresis" unicode="&#xf6;" horiz-adv-x="1108" d="M617 -8 C922 -8 1036 152 1038 326 C1039 461 956 568 721 568 L470 568 C165 568 52 408 51 234 C49 99 131 -8 366 -8 L617 -8 Z M381 69 C202 69 144 145 145 240 C145 365 232 490 460 490 L707 490 C886 490 943 414 943 318 C943 196 858 69 628 69 L381 69 Z M692 670 L790 670 L807 769 L709 769 L692 670 Z M433 670 L531 670 L548 769 L450 769 L433 670 Z " />
<glyph glyph-name="divide" unicode="&#xf7;" horiz-adv-x="1245" d="M278 305 L972 305 L972 395 L278 395 L278 305 Z M572 35 L677 35 L677 139 L572 139 L572 35 Z M572 560 L677 560 L677 665 L572 665 L572 560 Z " />
<glyph glyph-name="oslash" unicode="&#xf8;" horiz-adv-x="1108" d="M617 -8 C922 -8 1038 152 1038 326 C1038 430 989 518 858 552 L943 640 L841 640 L769 566 C754 567 738 568 721 568 L470 568 C165 568 52 408 51 234 C51 130 98 42 228 8 L143 -80 L245 -80 L316 -6 C332 -7 348 -8 366 -8 L617 -8 Z M943 318 C943 196 858 69 628 69 L389 69 L791 483 C904 463 943 397 943 318 L943 318 Z M145 240 C145 365 232 490 460 490 L695 490 L294 76 C183 97 144 162 145 240 L145 240 Z " />
<glyph glyph-name="ugrave" unicode="&#xf9;" horiz-adv-x="1050" d="M162 257 L216 560 L128 560 L74 258 C46 104 96 -8 353 -8 L587 -8 C825 -8 916 84 944 241 L1001 560 L913 560 L858 257 C836 139 776 69 595 69 L366 69 C172 69 143 144 162 257 L162 257 Z M578 806 L468 806 L588 635 L649 635 L578 806 Z " />
<glyph glyph-name="uacute" unicode="&#xfa;" horiz-adv-x="1050" d="M162 257 L216 560 L128 560 L74 258 C46 104 96 -8 353 -8 L587 -8 C825 -8 916 84 944 241 L1001 560 L913 560 L858 257 C836 139 776 69 595 69 L366 69 C172 69 143 144 162 257 L162 257 Z M503 635 L571 635 L754 806 L635 806 L503 635 Z " />
<glyph glyph-name="ucircumflex" unicode="&#xfb;" horiz-adv-x="1050" d="M162 257 L216 560 L128 560 L74 258 C46 104 96 -8 353 -8 L587 -8 C825 -8 916 84 944 241 L1001 560 L913 560 L858 257 C836 139 776 69 595 69 L366 69 C172 69 143 144 162 257 L162 257 Z M403 635 L468 635 L601 755 L689 635 L751 635 L666 806 L550 806 L403 635 Z " />
<glyph glyph-name="udieresis" unicode="&#xfc;" horiz-adv-x="1050" d="M162 257 L216 560 L128 560 L74 258 C46 104 96 -8 353 -8 L587 -8 C825 -8 916 84 944 241 L1001 560 L913 560 L858 257 C836 139 776 69 595 69 L366 69 C172 69 143 144 162 257 L162 257 Z M663 670 L761 670 L778 769 L680 769 L663 670 Z M404 670 L502 670 L519 769 L421 769 L404 670 Z " />
<glyph glyph-name="yacute" unicode="&#xfd;" horiz-adv-x="1019" d="M406 0 L495 0 L524 170 L1058 560 L923 560 L487 236 L163 560 L40 560 L435 170 L406 0 Z M486 635 L554 635 L737 806 L618 806 L486 635 Z " />
<glyph glyph-name="thorn" unicode="&#xfe;" horiz-adv-x="998" d="M48 0 L137 0 L156 104 L695 104 C888 104 952 203 952 307 C952 389 901 455 758 455 L219 455 L238 560 L149 560 L48 0 Z M741 377 C831 377 857 343 857 296 C857 239 823 182 706 182 L170 182 L204 377 L741 377 Z " />
<glyph glyph-name="ydieresis" unicode="&#xff;" horiz-adv-x="1019" d="M406 0 L495 0 L524 170 L1058 560 L923 560 L487 236 L163 560 L40 560 L435 170 L406 0 Z M647 670 L745 670 L762 769 L664 769 L647 670 Z M388 670 L486 670 L503 769 L405 769 L388 670 Z " />
<glyph glyph-name="Amacron" unicode="&#x100;" horiz-adv-x="1222" d="M1037 0 L1153 0 L729 700 L624 700 L-50 0 L76 0 L205 135 L955 135 L1037 0 Z M665 616 L906 217 L283 217 L665 616 Z M512 827 L881 827 L892 892 L523 892 L512 827 Z " />
<glyph glyph-name="amacron" unicode="&#x101;" horiz-adv-x="1045" d="M869 0 L975 0 L610 560 L515 560 L-49 0 L65 0 L177 112 L796 112 L869 0 Z M553 487 L751 181 L246 181 L553 487 Z M399 687 L768 687 L779 752 L410 752 L399 687 Z " />
<glyph glyph-name="Abreve" unicode="&#x102;" horiz-adv-x="1222" d="M1037 0 L1153 0 L729 700 L624 700 L-50 0 L76 0 L205 135 L955 135 L1037 0 Z M665 616 L906 217 L283 217 L665 616 Z M698 848 C622 848 600 888 605 936 L552 936 C543 864 564 784 688 784 C811 784 861 862 879 936 L823 936 C810 888 773 848 698 848 L698 848 Z " />
<glyph glyph-name="abreve" unicode="&#x103;" horiz-adv-x="1045" d="M869 0 L975 0 L610 560 L515 560 L-49 0 L65 0 L177 112 L796 112 L869 0 Z M553 487 L751 181 L246 181 L553 487 Z M585 708 C509 708 487 748 492 796 L439 796 C430 724 451 644 575 644 C698 644 748 722 766 796 L710 796 C697 748 660 708 585 708 L585 708 Z " />
<glyph glyph-name="Aogonek" unicode="&#x104;" horiz-adv-x="1222" d="M850 -179 C850 -228 891 -258 956 -258 C995 -258 1033 -253 1079 -235 L1087 -190 C1049 -205 1028 -209 1001 -209 C960 -209 933 -190 933 -154 C933 -85 1013 -33 1094 0 L1153 0 L729 700 L624 700 L-50 0 L76 0 L205 135 L955 135 L1037 0 C950 -29 850 -93 850 -179 L850 -179 Z M665 616 L906 217 L283 217 L665 616 Z " />
<glyph glyph-name="aogonek" unicode="&#x105;" horiz-adv-x="1045" d="M682 -179 C682 -228 723 -258 788 -258 C827 -258 865 -253 911 -235 L919 -190 C881 -205 860 -209 833 -209 C792 -209 765 -190 765 -154 C765 -85 845 -33 926 0 L975 0 L610 560 L515 560 L-49 0 L65 0 L177 112 L796 112 L869 0 C782 -29 682 -93 682 -179 L682 -179 Z M553 487 L751 181 L246 181 L553 487 Z " />
<glyph glyph-name="Cacute" unicode="&#x106;" horiz-adv-x="1136" d="M173 308 C173 456 262 610 545 610 L1107 610 L1124 700 L552 700 C206 700 67 507 67 296 C67 130 168 0 436 0 L999 0 L1014 90 L452 90 C242 90 173 185 173 308 L173 308 Z M617 775 L685 775 L868 946 L749 946 L617 775 Z " />
<glyph glyph-name="cacute" unicode="&#x107;" horiz-adv-x="974" d="M146 242 C146 364 232 482 454 482 L931 482 L946 560 L459 560 C158 560 51 400 51 232 C51 102 133 0 358 0 L845 0 L859 77 L367 77 C201 77 146 146 146 242 L146 242 Z M503 635 L571 635 L754 806 L635 806 L503 635 Z " />
<glyph glyph-name="Ccircumflex" unicode="&#x108;" horiz-adv-x="1136" d="M173 308 C173 456 262 610 545 610 L1107 610 L1124 700 L552 700 C206 700 67 507 67 296 C67 130 168 0 436 0 L999 0 L1014 90 L452 90 C242 90 173 185 173 308 L173 308 Z M517 775 L582 775 L715 895 L803 775 L865 775 L780 946 L664 946 L517 775 Z " />
<glyph glyph-name="ccircumflex" unicode="&#x109;" horiz-adv-x="974" d="M146 242 C146 364 232 482 454 482 L931 482 L946 560 L459 560 C158 560 51 400 51 232 C51 102 133 0 358 0 L845 0 L859 77 L367 77 C201 77 146 146 146 242 L146 242 Z M403 635 L468 635 L601 755 L689 635 L751 635 L666 806 L550 806 L403 635 Z " />
<glyph glyph-name="Cdotaccent" unicode="&#x10a;" horiz-adv-x="1136" d="M173 308 C173 456 262 610 545 610 L1107 610 L1124 700 L552 700 C206 700 67 507 67 296 C67 130 168 0 436 0 L999 0 L1014 90 L452 90 C242 90 173 185 173 308 L173 308 Z M650 810 L747 810 L764 909 L667 909 L650 810 Z " />
<glyph glyph-name="cdotaccent" unicode="&#x10b;" horiz-adv-x="974" d="M146 242 C146 364 232 482 454 482 L931 482 L946 560 L459 560 C158 560 51 400 51 232 C51 102 133 0 358 0 L845 0 L859 77 L367 77 C201 77 146 146 146 242 L146 242 Z M536 670 L633 670 L650 769 L553 769 L536 670 Z " />
<glyph glyph-name="Ccaron" unicode="&#x10c;" horiz-adv-x="1136" d="M173 308 C173 456 262 610 545 610 L1107 610 L1124 700 L552 700 C206 700 67 507 67 296 C67 130 168 0 436 0 L999 0 L1014 90 L452 90 C242 90 173 185 173 308 L173 308 Z M898 946 L832 946 L700 826 L611 946 L550 946 L634 775 L750 775 L898 946 Z " />
<glyph glyph-name="ccaron" unicode="&#x10d;" horiz-adv-x="974" d="M146 242 C146 364 232 482 454 482 L931 482 L946 560 L459 560 C158 560 51 400 51 232 C51 102 133 0 358 0 L845 0 L859 77 L367 77 C201 77 146 146 146 242 L146 242 Z M784 806 L718 806 L586 686 L497 806 L436 806 L520 635 L636 635 L784 806 Z " />
<glyph glyph-name="Dcaron" unicode="&#x10e;" horiz-adv-x="1204" d="M58 0 L655 0 C1001 0 1140 193 1140 404 C1140 569 1039 700 771 700 L183 700 L58 0 Z M755 610 C964 610 1034 514 1034 392 C1034 243 945 90 662 90 L171 90 L263 610 L755 610 Z M870 946 L804 946 L672 826 L583 946 L522 946 L606 775 L722 775 L870 946 Z " />
<glyph glyph-name="dcaron" unicode="&#x10f;" horiz-adv-x="1037" d="M48 0 L559 0 C860 0 967 160 967 328 C967 457 884 560 660 560 L148 560 L48 0 Z M651 482 C817 482 872 414 872 317 C872 195 786 77 564 77 L151 77 L222 482 L651 482 Z M768 806 L702 806 L570 686 L481 806 L420 806 L504 635 L620 635 L768 806 Z " />
<glyph glyph-name="Dcroat" unicode="&#x110;" horiz-adv-x="1204" d="M-13 309 L113 309 L58 0 L655 0 C1001 0 1140 193 1140 404 C1140 569 1039 700 771 700 L183 700 L127 391 L3 391 L-13 309 Z M755 610 C964 610 1034 514 1034 392 C1034 243 945 90 662 90 L171 90 L209 309 L607 309 L623 391 L224 391 L263 610 L755 610 Z " />
<glyph glyph-name="dcroat" unicode="&#x111;" horiz-adv-x="1037" d="M-25 245 L91 245 L48 0 L559 0 C860 0 967 160 967 328 C967 457 884 560 660 560 L148 560 L104 314 L-11 314 L-25 245 Z M651 482 C817 482 872 414 872 317 C872 195 786 77 564 77 L151 77 L180 245 L524 245 L538 314 L192 314 L222 482 L651 482 Z " />
<glyph glyph-name="Emacron" unicode="&#x112;" horiz-adv-x="1150" d="M58 0 L1014 0 L1030 90 L173 90 L210 309 L969 309 L985 391 L226 391 L264 610 L1121 610 L1139 700 L183 700 L58 0 Z M486 827 L855 827 L866 892 L497 892 L486 827 Z " />
<glyph glyph-name="emacron" unicode="&#x113;" horiz-adv-x="992" d="M48 0 L861 0 L875 77 L150 77 L179 245 L820 245 L833 314 L193 314 L222 482 L946 482 L960 560 L147 560 L48 0 Z M384 687 L753 687 L764 752 L395 752 L384 687 Z " />
<glyph glyph-name="Ebreve" unicode="&#x114;" horiz-adv-x="1150" d="M58 0 L1014 0 L1030 90 L173 90 L210 309 L969 309 L985 391 L226 391 L264 610 L1121 610 L1139 700 L183 700 L58 0 Z M672 848 C596 848 574 888 579 936 L526 936 C517 864 538 784 662 784 C785 784 835 862 853 936 L797 936 C784 888 747 848 672 848 L672 848 Z " />
<glyph glyph-name="ebreve" unicode="&#x115;" horiz-adv-x="992" d="M48 0 L861 0 L875 77 L150 77 L179 245 L820 245 L833 314 L193 314 L222 482 L946 482 L960 560 L147 560 L48 0 Z M570 708 C494 708 472 748 477 796 L424 796 C415 724 436 644 560 644 C683 644 733 722 751 796 L695 796 C682 748 645 708 570 708 L570 708 Z " />
<glyph glyph-name="Edotaccent" unicode="&#x116;" horiz-adv-x="1150" d="M58 0 L1014 0 L1030 90 L173 90 L210 309 L969 309 L985 391 L226 391 L264 610 L1121 610 L1139 700 L183 700 L58 0 Z M619 810 L716 810 L733 909 L636 909 L619 810 Z " />
<glyph glyph-name="edotaccent" unicode="&#x117;" horiz-adv-x="992" d="M48 0 L861 0 L875 77 L150 77 L179 245 L820 245 L833 314 L193 314 L222 482 L946 482 L960 560 L147 560 L48 0 Z M517 670 L614 670 L631 769 L534 769 L517 670 Z " />
<glyph glyph-name="Eogonek" unicode="&#x118;" horiz-adv-x="1150" d="M58 0 L930 0 C843 -29 743 -93 743 -179 C743 -228 784 -258 849 -258 C888 -258 926 -253 972 -235 L980 -190 C942 -205 921 -209 894 -209 C853 -209 826 -190 826 -154 C826 -85 906 -33 987 0 L1014 0 L1030 90 L173 90 L210 309 L969 309 L985 391 L226 391 L264 610 L1121 610 L1139 700 L183 700 L58 0 Z " />
<glyph glyph-name="eogonek" unicode="&#x119;" horiz-adv-x="992" d="M48 0 L777 0 C690 -29 590 -93 590 -179 C590 -228 631 -258 696 -258 C735 -258 773 -253 819 -235 L827 -190 C789 -205 768 -209 741 -209 C700 -209 673 -190 673 -154 C673 -85 753 -33 834 0 L861 0 L875 77 L150 77 L179 245 L820 245 L833 314 L193 314 L222 482 L946 482 L960 560 L147 560 L48 0 Z " />
<glyph glyph-name="Ecaron" unicode="&#x11a;" horiz-adv-x="1150" d="M58 0 L1014 0 L1030 90 L173 90 L210 309 L969 309 L985 391 L226 391 L264 610 L1121 610 L1139 700 L183 700 L58 0 Z M867 946 L801 946 L669 826 L580 946 L519 946 L603 775 L719 775 L867 946 Z " />
<glyph glyph-name="ecaron" unicode="&#x11b;" horiz-adv-x="992" d="M48 0 L861 0 L875 77 L150 77 L179 245 L820 245 L833 314 L193 314 L222 482 L946 482 L960 560 L147 560 L48 0 Z M765 806 L699 806 L567 686 L478 806 L417 806 L501 635 L617 635 L765 806 Z " />
<glyph glyph-name="Gcircumflex" unicode="&#x11c;" horiz-adv-x="1205" d="M632 309 L1010 309 L972 90 L452 90 C242 90 173 185 173 308 C173 456 261 610 545 610 L1107 610 L1124 700 L552 700 C206 700 67 507 67 296 C67 130 168 0 436 0 L1052 0 L1121 391 L648 391 L632 309 Z M526 775 L591 775 L724 895 L812 775 L874 775 L789 946 L673 946 L526 775 Z " />
<glyph glyph-name="gcircumflex" unicode="&#x11d;" horiz-adv-x="1036" d="M358 0 L890 0 L945 314 L542 314 L528 245 L845 245 L816 77 L367 77 C201 77 146 146 146 242 C146 364 232 482 454 482 L930 482 L944 560 L459 560 C158 560 51 400 51 232 C51 102 133 0 358 0 L358 0 Z M406 635 L471 635 L604 755 L692 635 L754 635 L669 806 L553 806 L406 635 Z " />
<glyph glyph-name="Gbreve" unicode="&#x11e;" horiz-adv-x="1205" d="M632 309 L1010 309 L972 90 L452 90 C242 90 173 185 173 308 C173 456 261 610 545 610 L1107 610 L1124 700 L552 700 C206 700 67 507 67 296 C67 130 168 0 436 0 L1052 0 L1121 391 L648 391 L632 309 Z M712 848 C636 848 614 888 619 936 L566 936 C557 864 578 784 702 784 C825 784 875 862 893 936 L837 936 C824 888 787 848 712 848 L712 848 Z " />
<glyph glyph-name="gbreve" unicode="&#x11f;" horiz-adv-x="1036" d="M358 0 L890 0 L945 314 L542 314 L528 245 L845 245 L816 77 L367 77 C201 77 146 146 146 242 C146 364 232 482 454 482 L930 482 L944 560 L459 560 C158 560 51 400 51 232 C51 102 133 0 358 0 L358 0 Z M592 708 C516 708 494 748 499 796 L446 796 C437 724 458 644 582 644 C705 644 755 722 773 796 L717 796 C704 748 667 708 592 708 L592 708 Z " />
<glyph glyph-name="Gdotaccent" unicode="&#x120;" horiz-adv-x="1205" d="M632 309 L1010 309 L972 90 L452 90 C242 90 173 185 173 308 C173 456 261 610 545 610 L1107 610 L1124 700 L552 700 C206 700 67 507 67 296 C67 130 168 0 436 0 L1052 0 L1121 391 L648 391 L632 309 Z M659 810 L756 810 L773 909 L676 909 L659 810 Z " />
<glyph glyph-name="gdotaccent" unicode="&#x121;" horiz-adv-x="1036" d="M358 0 L890 0 L945 314 L542 314 L528 245 L845 245 L816 77 L367 77 C201 77 146 146 146 242 C146 364 232 482 454 482 L930 482 L944 560 L459 560 C158 560 51 400 51 232 C51 102 133 0 358 0 L358 0 Z M539 670 L636 670 L653 769 L556 769 L539 670 Z " />
<glyph glyph-name="uni0122" unicode="&#x122;" horiz-adv-x="1205" d="M632 309 L1010 309 L972 90 L452 90 C242 90 173 185 173 308 C173 456 261 610 545 610 L1107 610 L1124 700 L552 700 C206 700 67 507 67 296 C67 130 168 0 436 0 L1052 0 L1121 391 L648 391 L632 309 Z M493 -211 L530 -211 L465 -318 L509 -318 L589 -204 L605 -112 L511 -112 L493 -211 Z " />
<glyph glyph-name="uni0123" unicode="&#x123;" horiz-adv-x="1036" d="M358 0 L890 0 L945 314 L542 314 L528 245 L845 245 L816 77 L367 77 C201 77 146 146 146 242 C146 364 232 482 454 482 L930 482 L944 560 L459 560 C158 560 51 400 51 232 C51 102 133 0 358 0 L358 0 Z M397 -211 L434 -211 L369 -318 L413 -318 L493 -204 L509 -112 L415 -112 L397 -211 Z " />
<glyph glyph-name="Hcircumflex" unicode="&#x124;" horiz-adv-x="1252" d="M976 0 L1075 0 L1200 700 L1101 700 L1046 395 L227 395 L282 700 L183 700 L58 0 L157 0 L209 305 L1029 305 L976 0 Z M527 775 L592 775 L725 895 L813 775 L875 775 L790 946 L674 946 L527 775 Z " />
<glyph glyph-name="hcircumflex" unicode="&#x125;" horiz-adv-x="1081" d="M825 0 L914 0 L1013 560 L924 560 L882 319 L194 319 L236 560 L147 560 L48 0 L137 0 L179 241 L866 241 L825 0 Z M418 635 L483 635 L616 755 L704 635 L766 635 L681 806 L565 806 L418 635 Z " />
<glyph glyph-name="Hbar" unicode="&#x126;" horiz-adv-x="1252" d="M55 527 L152 527 L58 0 L157 0 L209 305 L1029 305 L976 0 L1075 0 L1169 527 L1265 527 L1273 568 L1176 568 L1200 700 L1101 700 L1077 568 L258 568 L282 700 L183 700 L159 568 L63 568 L55 527 Z M227 395 L251 527 L1070 527 L1046 395 L227 395 Z " />
<glyph glyph-name="hbar" unicode="&#x127;" horiz-adv-x="1081" d="M36 419 L122 419 L48 0 L137 0 L179 241 L866 241 L825 0 L914 0 L988 419 L1074 419 L1082 460 L995 460 L1013 560 L924 560 L906 460 L218 460 L236 560 L147 560 L129 460 L43 460 L36 419 Z M194 319 L211 419 L899 419 L882 319 L194 319 Z " />
<glyph glyph-name="Itilde" unicode="&#x128;" horiz-adv-x="334" d="M58 0 L157 0 L282 700 L183 700 L58 0 Z M389 932 C374 877 355 866 330 866 C288 866 257 925 195 925 C141 925 100 893 74 788 L124 788 C138 843 158 855 183 855 C225 855 255 795 317 795 C371 795 413 827 439 932 L389 932 Z " />
<glyph glyph-name="itilde" unicode="&#x129;" horiz-adv-x="304" d="M48 0 L137 0 L236 560 L147 560 L48 0 Z M350 792 C335 737 316 726 291 726 C249 726 218 785 156 785 C102 785 61 753 35 648 L85 648 C99 703 119 715 144 715 C186 715 216 655 278 655 C332 655 374 687 400 792 L350 792 Z " />
<glyph glyph-name="Imacron" unicode="&#x12a;" horiz-adv-x="334" d="M58 0 L157 0 L282 700 L183 700 L58 0 Z M68 827 L437 827 L448 892 L79 892 L68 827 Z " />
<glyph glyph-name="imacron" unicode="&#x12b;" horiz-adv-x="304" d="M48 0 L137 0 L236 560 L147 560 L48 0 Z M29 687 L398 687 L409 752 L40 752 L29 687 Z " />
<glyph glyph-name="Ibreve" unicode="&#x12c;" horiz-adv-x="334" d="M58 0 L157 0 L282 700 L183 700 L58 0 Z M253 848 C177 848 155 888 160 936 L107 936 C98 864 119 784 243 784 C366 784 416 862 434 936 L378 936 C365 888 328 848 253 848 L253 848 Z " />
<glyph glyph-name="ibreve" unicode="&#x12d;" horiz-adv-x="304" d="M48 0 L137 0 L236 560 L147 560 L48 0 Z M214 708 C138 708 116 748 121 796 L68 796 C59 724 80 644 204 644 C327 644 377 722 395 796 L339 796 C326 748 289 708 214 708 L214 708 Z " />
<glyph glyph-name="Iogonek" unicode="&#x12e;" horiz-adv-x="334" d="M-80 -171 C-80 -231 -26 -258 23 -258 C62 -258 100 -253 147 -235 L156 -190 C117 -205 96 -209 69 -209 C23 -209 -1 -186 -1 -148 C-1 -91 35 -44 102 0 L157 0 L282 700 L183 700 L58 0 C-12 -35 -80 -95 -80 -171 L-80 -171 Z " />
<glyph glyph-name="iogonek" unicode="&#x12f;" horiz-adv-x="304" d="M48 0 C-22 -35 -90 -95 -90 -171 C-90 -231 -36 -258 13 -258 C52 -258 90 -253 137 -235 L146 -190 C107 -205 86 -209 59 -209 C13 -209 -11 -186 -11 -148 C-11 -91 25 -44 92 0 L137 0 L236 560 L147 560 L48 0 Z " />
<glyph glyph-name="Idotaccent" unicode="&#x130;" horiz-adv-x="334" d="M58 0 L157 0 L282 700 L183 700 L58 0 Z M201 810 L298 810 L315 909 L218 909 L201 810 Z " />
<glyph glyph-name="dotlessi" unicode="&#x131;" horiz-adv-x="304" d="M48 0 L137 0 L236 560 L147 560 L48 0 Z " />
<glyph glyph-name="IJ" unicode="&#x132;" horiz-adv-x="1219" d="M118 445 L217 445 L263 700 L164 700 L118 445 Z M365 -5 L681 -5 C973 -5 1082 112 1117 306 L1187 700 L1088 700 L1020 326 C993 175 908 85 694 85 L383 85 C205 85 163 167 185 273 L195 324 L97 324 L87 275 C57 123 123 -5 365 -5 L365 -5 Z " />
<glyph glyph-name="ij" unicode="&#x133;" horiz-adv-x="1048" d="M92 356 L181 356 L217 560 L128 560 L92 356 Z M302 -4 L586 -4 C824 -4 915 88 943 245 L999 560 L910 560 L856 261 C835 142 774 73 593 73 L308 73 C168 73 139 136 154 218 L162 260 L74 260 L67 220 C44 98 94 -4 302 -4 L302 -4 Z " />
<glyph glyph-name="Jcircumflex" unicode="&#x134;" horiz-adv-x="1162" d="M307 -5 L623 -5 C915 -5 1024 112 1059 306 L1129 700 L1030 700 L962 326 C935 175 850 85 636 85 L325 85 C147 85 105 167 127 273 L137 324 L39 324 L29 275 C-1 123 65 -5 307 -5 L307 -5 Z M889 775 L954 775 L1087 895 L1175 775 L1237 775 L1152 946 L1036 946 L889 775 Z " />
<glyph glyph-name="jcircumflex" unicode="&#x135;" horiz-adv-x="1000" d="M254 -4 L538 -4 C776 -4 867 88 895 245 L951 560 L862 560 L808 261 C787 142 726 73 545 73 L260 73 C120 73 91 136 106 218 L114 260 L26 260 L19 220 C-4 98 46 -4 254 -4 L254 -4 Z M718 635 L783 635 L916 755 L1004 635 L1066 635 L981 806 L865 806 L718 635 Z " />
<glyph glyph-name="uni0136" unicode="&#x136;" horiz-adv-x="1238" d="M1211 700 L1035 700 L200 247 L280 700 L183 700 L58 0 L155 0 L180 139 L533 331 L1018 0 L1174 0 L621 379 L1211 700 Z M470 -211 L507 -211 L442 -318 L486 -318 L566 -204 L582 -112 L488 -112 L470 -211 Z " />
<glyph glyph-name="uni0137" unicode="&#x137;" horiz-adv-x="1068" d="M1028 560 L864 560 L172 204 L236 560 L147 560 L48 0 L137 0 L156 108 L452 261 L856 0 L999 0 L532 303 L1028 560 Z M388 -211 L425 -211 L360 -318 L404 -318 L484 -204 L500 -112 L406 -112 L388 -211 Z " />
<glyph glyph-name="kgreenlandic" unicode="&#x138;" horiz-adv-x="1195" d="M1160 452 L1123 452 L1188 560 L1144 560 L1064 445 L1048 354 L1143 354 L1160 452 Z M1028 560 L864 560 L172 204 L236 560 L147 560 L48 0 L137 0 L156 108 L452 261 L856 0 L999 0 L532 303 L1028 560 Z " />
<glyph glyph-name="Lacute" unicode="&#x139;" horiz-adv-x="1083" d="M282 700 L183 700 L58 0 L995 0 L1010 90 L173 90 L282 700 Z M168 775 L236 775 L419 946 L300 946 L168 775 Z " />
<glyph glyph-name="lacute" unicode="&#x13a;" horiz-adv-x="946" d="M236 560 L147 560 L48 0 L845 0 L859 77 L150 77 L236 560 Z M129 635 L197 635 L380 806 L261 806 L129 635 Z " />
<glyph glyph-name="uni013B" unicode="&#x13b;" horiz-adv-x="1083" d="M282 700 L183 700 L58 0 L995 0 L1010 90 L173 90 L282 700 Z M437 -211 L474 -211 L409 -318 L453 -318 L533 -204 L549 -112 L455 -112 L437 -211 Z " />
<glyph glyph-name="uni013C" unicode="&#x13c;" horiz-adv-x="946" d="M236 560 L147 560 L48 0 L845 0 L859 77 L150 77 L236 560 Z M365 -211 L402 -211 L337 -318 L381 -318 L461 -204 L477 -112 L383 -112 L365 -211 Z " />
<glyph glyph-name="Lcaron" unicode="&#x13d;" horiz-adv-x="1083" d="M282 700 L183 700 L58 0 L995 0 L1010 90 L173 90 L282 700 Z M881 590 L929 590 L859 469 L904 469 L990 597 L1009 699 L900 699 L881 590 Z " />
<glyph glyph-name="lcaron" unicode="&#x13e;" horiz-adv-x="946" d="M231 560 L146 560 L48 0 L845 0 L858 77 L146 77 L231 560 Z M748 461 L785 461 L720 354 L763 354 L844 468 L860 560 L765 560 L748 461 Z " />
<glyph glyph-name="Ldot" unicode="&#x13f;" horiz-adv-x="1083" d="M282 700 L183 700 L58 0 L995 0 L1010 90 L173 90 L282 700 Z M697 350 L794 350 L811 449 L714 449 L697 350 Z " />
<glyph glyph-name="ldot" unicode="&#x140;" horiz-adv-x="946" d="M236 560 L147 560 L48 0 L845 0 L859 77 L150 77 L236 560 Z M595 274 L692 274 L709 373 L612 373 L595 274 Z " />
<glyph glyph-name="Lslash" unicode="&#x141;" horiz-adv-x="1083" d="M610 562 L222 370 L280 700 L183 700 L115 321 L12 273 L-8 171 L98 224 L58 0 L994 0 L1010 90 L171 90 L203 271 L591 460 L610 562 Z " />
<glyph glyph-name="lslash" unicode="&#x142;" horiz-adv-x="946" d="M515 454 L190 303 L235 560 L147 560 L94 261 L7 222 L-10 134 L80 178 L48 0 L845 0 L858 77 L149 77 L173 217 L497 365 L515 454 Z " />
<glyph glyph-name="Nacute" unicode="&#x143;" horiz-adv-x="1253" d="M981 0 L1075 0 L1200 700 L1101 700 L996 107 L277 700 L183 700 L58 0 L157 0 L261 592 L981 0 Z M627 775 L695 775 L878 946 L759 946 L627 775 Z " />
<glyph glyph-name="nacute" unicode="&#x144;" horiz-adv-x="1082" d="M914 0 L1013 560 L924 560 L842 94 L231 560 L147 560 L48 0 L137 0 L219 466 L830 0 L914 0 Z M518 635 L586 635 L769 806 L650 806 L518 635 Z " />
<glyph glyph-name="uni0145" unicode="&#x145;" horiz-adv-x="1253" d="M981 0 L1075 0 L1200 700 L1101 700 L996 107 L277 700 L183 700 L58 0 L157 0 L261 592 L981 0 Z M482 -211 L519 -211 L454 -318 L498 -318 L578 -204 L594 -112 L500 -112 L482 -211 Z " />
<glyph glyph-name="uni0146" unicode="&#x146;" horiz-adv-x="1082" d="M914 0 L1013 560 L924 560 L842 94 L231 560 L147 560 L48 0 L137 0 L219 466 L830 0 L914 0 Z M396 -211 L433 -211 L368 -318 L412 -318 L492 -204 L508 -112 L414 -112 L396 -211 Z " />
<glyph glyph-name="Ncaron" unicode="&#x147;" horiz-adv-x="1253" d="M981 0 L1075 0 L1200 700 L1101 700 L996 107 L277 700 L183 700 L58 0 L157 0 L261 592 L981 0 Z M908 946 L842 946 L710 826 L621 946 L560 946 L644 775 L760 775 L908 946 Z " />
<glyph glyph-name="ncaron" unicode="&#x148;" horiz-adv-x="1082" d="M914 0 L1013 560 L924 560 L842 94 L231 560 L147 560 L48 0 L137 0 L219 466 L830 0 L914 0 Z M799 806 L733 806 L601 686 L512 806 L451 806 L535 635 L651 635 L799 806 Z " />
<glyph glyph-name="napostrophe" unicode="&#x149;" horiz-adv-x="1278" d="M1110 0 L1209 560 L1120 560 L1038 94 L427 560 L343 560 L244 0 L333 0 L415 466 L1026 0 L1110 0 Z M105 601 L142 601 L77 494 L121 494 L201 608 L217 700 L123 700 L105 601 Z " />
<glyph glyph-name="Eng" unicode="&#x14a;" horiz-adv-x="1253" d="M615 -230 L794 -230 C968 -230 1047 -150 1066 -43 L1200 700 L1101 700 L996 107 L277 700 L183 700 L58 0 L157 0 L261 592 L977 3 L971 -29 C960 -92 911 -140 803 -140 L632 -140 L615 -230 Z " />
<glyph glyph-name="eng" unicode="&#x14b;" horiz-adv-x="1082" d="M524 -184 L686 -184 C831 -184 893 -120 909 -32 L1013 560 L924 560 L842 94 L231 560 L147 560 L48 0 L137 0 L219 466 L826 3 L821 -21 C813 -69 782 -107 693 -107 L539 -107 L524 -184 Z " />
<glyph glyph-name="Omacron" unicode="&#x14c;" horiz-adv-x="1293" d="M730 -10 C1093 -10 1230 186 1230 410 C1230 579 1123 710 852 710 L568 710 C208 710 67 517 67 294 C67 122 175 -10 447 -10 L730 -10 Z M466 80 C247 80 173 178 173 306 C173 462 269 620 564 620 L832 620 C1049 620 1124 523 1124 397 C1124 236 1028 80 735 80 L466 80 Z M547 827 L916 827 L927 892 L558 892 L547 827 Z " />
<glyph glyph-name="omacron" unicode="&#x14d;" horiz-adv-x="1108" d="M617 -8 C922 -8 1036 152 1038 326 C1039 461 956 568 721 568 L470 568 C165 568 52 408 51 234 C49 99 131 -8 366 -8 L617 -8 Z M381 69 C202 69 144 145 145 240 C145 365 232 490 460 490 L707 490 C886 490 943 414 943 318 C943 196 858 69 628 69 L381 69 Z M431 687 L800 687 L811 752 L442 752 L431 687 Z " />
<glyph glyph-name="Obreve" unicode="&#x14e;" horiz-adv-x="1293" d="M730 -10 C1093 -10 1230 186 1230 410 C1230 579 1123 710 852 710 L568 710 C208 710 67 517 67 294 C67 122 175 -10 447 -10 L730 -10 Z M466 80 C247 80 173 178 173 306 C173 462 269 620 564 620 L832 620 C1049 620 1124 523 1124 397 C1124 236 1028 80 735 80 L466 80 Z M733 848 C657 848 635 888 640 936 L587 936 C578 864 599 784 723 784 C846 784 896 862 914 936 L858 936 C845 888 808 848 733 848 L733 848 Z " />
<glyph glyph-name="obreve" unicode="&#x14f;" horiz-adv-x="1108" d="M617 -8 C922 -8 1036 152 1038 326 C1039 461 956 568 721 568 L470 568 C165 568 52 408 51 234 C49 99 131 -8 366 -8 L617 -8 Z M381 69 C202 69 144 145 145 240 C145 365 232 490 460 490 L707 490 C886 490 943 414 943 318 C943 196 858 69 628 69 L381 69 Z M617 708 C541 708 519 748 524 796 L471 796 C462 724 483 644 607 644 C730 644 780 722 798 796 L742 796 C729 748 692 708 617 708 L617 708 Z " />
<glyph glyph-name="Ohungarumlaut" unicode="&#x150;" horiz-adv-x="1293" d="M730 -10 C1093 -10 1230 186 1230 410 C1230 579 1123 710 852 710 L568 710 C208 710 67 517 67 294 C67 122 175 -10 447 -10 L730 -10 Z M466 80 C247 80 173 178 173 306 C173 462 269 620 564 620 L832 620 C1049 620 1124 523 1124 397 C1124 236 1028 80 735 80 L466 80 Z M764 775 L831 775 L1014 946 L897 946 L764 775 Z M535 775 L602 775 L785 946 L668 946 L535 775 Z " />
<glyph glyph-name="ohungarumlaut" unicode="&#x151;" horiz-adv-x="1108" d="M617 -8 C922 -8 1036 152 1038 326 C1039 461 956 568 721 568 L470 568 C165 568 52 408 51 234 C49 99 131 -8 366 -8 L617 -8 Z M381 69 C202 69 144 145 145 240 C145 365 232 490 460 490 L707 490 C886 490 943 414 943 318 C943 196 858 69 628 69 L381 69 Z M648 635 L715 635 L898 806 L781 806 L648 635 Z M419 635 L486 635 L669 806 L552 806 L419 635 Z " />
<glyph glyph-name="OE" unicode="&#x152;" horiz-adv-x="1674" d="M67 296 C64 130 168 0 436 0 L1538 0 L1554 90 L798 90 L836 309 L1494 309 L1510 391 L852 391 L889 610 L1646 610 L1663 700 L561 700 C215 700 70 507 67 296 L67 296 Z M174 308 C177 456 259 610 544 610 L790 610 L699 90 L453 90 C244 90 172 186 174 308 L174 308 Z " />
<glyph glyph-name="oe" unicode="&#x153;" horiz-adv-x="1433" d="M358 0 L1304 0 L1317 77 L677 77 L707 245 L1262 245 L1275 314 L720 314 L750 482 L1389 482 L1403 560 L459 560 C158 560 51 400 51 232 C51 102 133 0 358 0 L358 0 Z M146 242 C146 364 232 482 454 482 L661 482 L589 77 L367 77 C201 77 146 146 146 242 L146 242 Z " />
<glyph glyph-name="Racute" unicode="&#x154;" horiz-adv-x="1226" d="M58 0 L155 0 L203 266 L616 266 L1007 0 L1161 0 L758 268 L825 268 C1043 268 1133 380 1133 517 C1133 619 1071 700 902 700 L183 700 L58 0 Z M883 610 C993 610 1029 562 1029 503 C1029 423 975 353 834 353 L218 353 L264 610 L883 610 Z M577 775 L645 775 L828 946 L709 946 L577 775 Z " />
<glyph glyph-name="racute" unicode="&#x155;" horiz-adv-x="1061" d="M48 0 L137 0 L174 210 L524 210 L847 0 L987 0 L651 211 L702 211 C893 211 958 309 958 414 C958 494 907 560 764 560 L148 560 L48 0 Z M747 482 C837 482 863 446 863 401 C863 343 831 285 711 285 L188 285 L222 482 L747 482 Z M475 635 L543 635 L726 806 L607 806 L475 635 Z " />
<glyph glyph-name="uni0156" unicode="&#x156;" horiz-adv-x="1226" d="M58 0 L155 0 L203 266 L616 266 L1007 0 L1161 0 L758 268 L825 268 C1043 268 1133 380 1133 517 C1133 619 1071 700 902 700 L183 700 L58 0 Z M883 610 C993 610 1029 562 1029 503 C1029 423 975 353 834 353 L218 353 L264 610 L883 610 Z M464 -211 L501 -211 L436 -318 L480 -318 L560 -204 L576 -112 L482 -112 L464 -211 Z " />
<glyph glyph-name="uni0157" unicode="&#x157;" horiz-adv-x="1061" d="M48 0 L137 0 L174 210 L524 210 L847 0 L987 0 L651 211 L702 211 C893 211 958 309 958 414 C958 494 907 560 764 560 L148 560 L48 0 Z M747 482 C837 482 863 446 863 401 C863 343 831 285 711 285 L188 285 L222 482 L747 482 Z M382 -211 L419 -211 L354 -318 L398 -318 L478 -204 L494 -112 L400 -112 L382 -211 Z " />
<glyph glyph-name="Rcaron" unicode="&#x158;" horiz-adv-x="1226" d="M58 0 L155 0 L203 266 L616 266 L1007 0 L1161 0 L758 268 L825 268 C1043 268 1133 380 1133 517 C1133 619 1071 700 902 700 L183 700 L58 0 Z M883 610 C993 610 1029 562 1029 503 C1029 423 975 353 834 353 L218 353 L264 610 L883 610 Z M858 946 L792 946 L660 826 L571 946 L510 946 L594 775 L710 775 L858 946 Z " />
<glyph glyph-name="rcaron" unicode="&#x159;" horiz-adv-x="1061" d="M48 0 L137 0 L174 210 L524 210 L847 0 L987 0 L651 211 L702 211 C893 211 958 309 958 414 C958 494 907 560 764 560 L148 560 L48 0 Z M747 482 C837 482 863 446 863 401 C863 343 831 285 711 285 L188 285 L222 482 L747 482 Z M756 806 L690 806 L558 686 L469 806 L408 806 L492 635 L608 635 L756 806 Z " />
<glyph glyph-name="Sacute" unicode="&#x15a;" horiz-adv-x="1158" d="M801 90 L65 90 L48 0 L788 0 C987 0 1068 104 1068 226 C1068 319 1010 391 857 391 L324 391 C230 391 201 431 201 482 C201 549 245 610 363 610 L1099 610 L1116 700 L376 700 C177 700 96 595 96 473 C96 380 154 309 306 309 L840 309 C934 309 963 268 963 217 C963 150 919 90 801 90 L801 90 Z M580 775 L648 775 L831 946 L712 946 L580 775 Z " />
<glyph glyph-name="sacute" unicode="&#x15b;" horiz-adv-x="991" d="M676 77 L49 77 L35 0 L668 0 C844 0 900 89 900 184 C900 258 853 313 725 313 L262 313 C187 313 164 344 164 382 C164 434 195 482 295 482 L922 482 L937 560 L303 560 C127 560 71 471 71 376 C71 302 118 246 246 246 L708 246 C784 246 807 216 807 177 C807 126 776 77 676 77 L676 77 Z M472 635 L540 635 L723 806 L604 806 L472 635 Z " />
<glyph glyph-name="Scircumflex" unicode="&#x15c;" horiz-adv-x="1158" d="M801 90 L65 90 L48 0 L788 0 C987 0 1068 104 1068 226 C1068 319 1010 391 857 391 L324 391 C230 391 201 431 201 482 C201 549 245 610 363 610 L1099 610 L1116 700 L376 700 C177 700 96 595 96 473 C96 380 154 309 306 309 L840 309 C934 309 963 268 963 217 C963 150 919 90 801 90 L801 90 Z M480 775 L545 775 L678 895 L766 775 L828 775 L743 946 L627 946 L480 775 Z " />
<glyph glyph-name="scircumflex" unicode="&#x15d;" horiz-adv-x="991" d="M676 77 L49 77 L35 0 L668 0 C844 0 900 89 900 184 C900 258 853 313 725 313 L262 313 C187 313 164 344 164 382 C164 434 195 482 295 482 L922 482 L937 560 L303 560 C127 560 71 471 71 376 C71 302 118 246 246 246 L708 246 C784 246 807 216 807 177 C807 126 776 77 676 77 L676 77 Z M372 635 L437 635 L570 755 L658 635 L720 635 L635 806 L519 806 L372 635 Z " />
<glyph glyph-name="Scedilla" unicode="&#x15e;" horiz-adv-x="1158" d="M447 -112 L473 -112 C527 -112 557 -123 557 -156 C557 -204 503 -217 453 -217 C417 -217 382 -208 366 -197 L358 -241 C382 -255 424 -267 467 -267 C545 -266 627 -241 627 -150 C627 -85 561 -64 503 -70 L535 0 L788 0 C987 0 1068 104 1068 226 C1068 319 1010 391 857 391 L324 391 C230 391 201 431 201 482 C201 549 245 610 363 610 L1099 610 L1116 700 L376 700 C177 700 96 595 96 473 C96 380 154 309 306 309 L840 309 C934 309 963 268 963 217 C963 150 919 90 801 90 L65 90 L48 0 L497 0 L447 -112 Z " />
<glyph glyph-name="scedilla" unicode="&#x15f;" horiz-adv-x="991" d="M363 -112 L389 -112 C443 -112 473 -123 473 -156 C473 -204 419 -217 369 -217 C333 -217 298 -208 282 -197 L274 -241 C298 -255 340 -267 383 -267 C461 -266 543 -241 543 -150 C543 -85 477 -64 419 -70 L451 0 L668 0 C844 0 900 89 900 184 C900 258 853 313 725 313 L262 313 C187 313 164 344 164 382 C164 434 195 482 295 482 L922 482 L937 560 L303 560 C127 560 71 471 71 376 C71 302 118 246 246 246 L708 246 C784 246 807 216 807 177 C807 126 776 77 676 77 L49 77 L35 0 L413 0 L363 -112 Z " />
<glyph glyph-name="Scaron" unicode="&#x160;" horiz-adv-x="1158" d="M801 90 L65 90 L48 0 L788 0 C987 0 1068 104 1068 226 C1068 319 1010 391 857 391 L324 391 C230 391 201 431 201 482 C201 549 245 610 363 610 L1099 610 L1116 700 L376 700 C177 700 96 595 96 473 C96 380 154 309 306 309 L840 309 C934 309 963 268 963 217 C963 150 919 90 801 90 L801 90 Z M861 946 L795 946 L663 826 L574 946 L513 946 L597 775 L713 775 L861 946 Z " />
<glyph glyph-name="scaron" unicode="&#x161;" horiz-adv-x="991" d="M676 77 L49 77 L35 0 L668 0 C844 0 900 89 900 184 C900 258 853 313 725 313 L262 313 C187 313 164 344 164 382 C164 434 195 482 295 482 L922 482 L937 560 L303 560 C127 560 71 471 71 376 C71 302 118 246 246 246 L708 246 C784 246 807 216 807 177 C807 126 776 77 676 77 L676 77 Z M753 806 L687 806 L555 686 L466 806 L405 806 L489 635 L605 635 L753 806 Z " />
<glyph glyph-name="uni0162" unicode="&#x162;" horiz-adv-x="1136" d="M436 -112 L462 -112 C516 -112 546 -123 546 -156 C546 -204 492 -217 442 -217 C406 -217 371 -208 355 -197 L347 -241 C371 -255 413 -267 456 -267 C534 -266 616 -241 616 -150 C616 -85 550 -64 492 -70 L524 0 L557 0 L666 610 L1155 610 L1172 700 L95 700 L77 610 L567 610 L458 0 L486 0 L436 -112 Z " />
<glyph glyph-name="uni0163" unicode="&#x163;" horiz-adv-x="998" d="M367 -112 L393 -112 C447 -112 477 -123 477 -156 C477 -204 423 -217 373 -217 C337 -217 302 -208 286 -197 L278 -241 C302 -255 344 -267 387 -267 C465 -266 547 -241 547 -150 C547 -85 481 -64 423 -70 L455 0 L484 0 L569 482 L983 482 L997 560 L81 560 L67 482 L480 482 L395 0 L417 0 L367 -112 Z " />
<glyph glyph-name="Tcaron" unicode="&#x164;" horiz-adv-x="1136" d="M77 610 L567 610 L458 0 L557 0 L666 610 L1155 610 L1172 700 L95 700 L77 610 Z M850 946 L784 946 L652 826 L563 946 L502 946 L586 775 L702 775 L850 946 Z " />
<glyph glyph-name="tcaron" unicode="&#x165;" horiz-adv-x="998" d="M67 482 L480 482 L395 0 L484 0 L569 482 L983 482 L997 560 L81 560 L67 482 Z M758 806 L692 806 L560 686 L471 806 L410 806 L494 635 L610 635 L758 806 Z " />
<glyph glyph-name="Tbar" unicode="&#x166;" horiz-adv-x="1136" d="M77 610 L567 610 L527 389 L267 389 L252 311 L513 311 L458 0 L557 0 L612 311 L872 311 L887 389 L626 389 L666 610 L1155 610 L1172 700 L95 700 L77 610 Z " />
<glyph glyph-name="tbar" unicode="&#x167;" horiz-adv-x="998" d="M67 482 L480 482 L449 306 L219 306 L206 239 L437 239 L395 0 L484 0 L526 239 L755 239 L768 306 L538 306 L569 482 L983 482 L997 560 L81 560 L67 482 Z " />
<glyph glyph-name="Utilde" unicode="&#x168;" horiz-adv-x="1223" d="M194 323 L263 700 L164 700 L95 323 C60 130 136 -10 431 -10 L684 -10 C975 -10 1087 118 1121 308 L1191 700 L1092 700 L1025 327 C997 176 912 80 697 80 L443 80 C220 80 169 180 194 323 L194 323 Z M834 932 C819 877 800 866 775 866 C733 866 702 925 640 925 C586 925 545 893 519 788 L569 788 C583 843 603 855 628 855 C670 855 700 795 762 795 C816 795 858 827 884 932 L834 932 Z " />
<glyph glyph-name="utilde" unicode="&#x169;" horiz-adv-x="1050" d="M162 257 L216 560 L128 560 L74 258 C46 104 96 -8 353 -8 L587 -8 C825 -8 916 84 944 241 L1001 560 L913 560 L858 257 C836 139 776 69 595 69 L366 69 C172 69 143 144 162 257 L162 257 Z M724 792 C709 737 690 726 665 726 C623 726 592 785 530 785 C476 785 435 753 409 648 L459 648 C473 703 493 715 518 715 C560 715 590 655 652 655 C706 655 748 687 774 792 L724 792 Z " />
<glyph glyph-name="Umacron" unicode="&#x16a;" horiz-adv-x="1223" d="M194 323 L263 700 L164 700 L95 323 C60 130 136 -10 431 -10 L684 -10 C975 -10 1087 118 1121 308 L1191 700 L1092 700 L1025 327 C997 176 912 80 697 80 L443 80 C220 80 169 180 194 323 L194 323 Z M513 827 L882 827 L893 892 L524 892 L513 827 Z " />
<glyph glyph-name="umacron" unicode="&#x16b;" horiz-adv-x="1050" d="M162 257 L216 560 L128 560 L74 258 C46 104 96 -8 353 -8 L587 -8 C825 -8 916 84 944 241 L1001 560 L913 560 L858 257 C836 139 776 69 595 69 L366 69 C172 69 143 144 162 257 L162 257 Z M403 687 L772 687 L783 752 L414 752 L403 687 Z " />
<glyph glyph-name="Ubreve" unicode="&#x16c;" horiz-adv-x="1223" d="M194 323 L263 700 L164 700 L95 323 C60 130 136 -10 431 -10 L684 -10 C975 -10 1087 118 1121 308 L1191 700 L1092 700 L1025 327 C997 176 912 80 697 80 L443 80 C220 80 169 180 194 323 L194 323 Z M698 848 C622 848 600 888 605 936 L552 936 C543 864 564 784 688 784 C811 784 861 862 879 936 L823 936 C810 888 773 848 698 848 L698 848 Z " />
<glyph glyph-name="ubreve" unicode="&#x16d;" horiz-adv-x="1050" d="M162 257 L216 560 L128 560 L74 258 C46 104 96 -8 353 -8 L587 -8 C825 -8 916 84 944 241 L1001 560 L913 560 L858 257 C836 139 776 69 595 69 L366 69 C172 69 143 144 162 257 L162 257 Z M588 708 C512 708 490 748 495 796 L442 796 C433 724 454 644 578 644 C701 644 751 722 769 796 L713 796 C700 748 663 708 588 708 L588 708 Z " />
<glyph glyph-name="Uring" unicode="&#x16e;" horiz-adv-x="1223" d="M194 323 L263 700 L164 700 L95 323 C60 130 136 -10 431 -10 L684 -10 C975 -10 1087 118 1121 308 L1191 700 L1092 700 L1025 327 C997 176 912 80 697 80 L443 80 C220 80 169 180 194 323 L194 323 Z M641 856 C641 892 673 921 709 921 C740 921 763 897 763 866 C763 829 731 800 696 800 C664 800 641 824 641 856 L641 856 Z M583 851 C582 794 625 749 690 749 C762 749 821 804 821 871 C821 928 778 972 713 972 C641 972 583 919 583 851 L583 851 Z " />
<glyph glyph-name="uring" unicode="&#x16f;" horiz-adv-x="1050" d="M162 257 L216 560 L128 560 L74 258 C46 104 96 -8 353 -8 L587 -8 C825 -8 916 84 944 241 L1001 560 L913 560 L858 257 C836 139 776 69 595 69 L366 69 C172 69 143 144 162 257 L162 257 Z M531 716 C531 752 563 781 599 781 C630 781 653 757 653 726 C653 689 621 660 586 660 C554 660 531 684 531 716 L531 716 Z M473 711 C472 654 515 609 580 609 C652 609 711 664 711 731 C711 788 668 832 603 832 C531 832 473 779 473 711 L473 711 Z " />
<glyph glyph-name="Uhungarumlaut" unicode="&#x170;" horiz-adv-x="1223" d="M194 323 L263 700 L164 700 L95 323 C60 130 136 -10 431 -10 L684 -10 C975 -10 1087 118 1121 308 L1191 700 L1092 700 L1025 327 C997 176 912 80 697 80 L443 80 C220 80 169 180 194 323 L194 323 Z M729 775 L796 775 L979 946 L862 946 L729 775 Z M500 775 L567 775 L750 946 L633 946 L500 775 Z " />
<glyph glyph-name="uhungarumlaut" unicode="&#x171;" horiz-adv-x="1050" d="M162 257 L216 560 L128 560 L74 258 C46 104 96 -8 353 -8 L587 -8 C825 -8 916 84 944 241 L1001 560 L913 560 L858 257 C836 139 776 69 595 69 L366 69 C172 69 143 144 162 257 L162 257 Z M619 635 L686 635 L869 806 L752 806 L619 635 Z M390 635 L457 635 L640 806 L523 806 L390 635 Z " />
<glyph glyph-name="Uogonek" unicode="&#x172;" horiz-adv-x="1223" d="M545 -179 C545 -228 586 -258 651 -258 C690 -258 728 -253 774 -235 L782 -190 C744 -205 723 -209 696 -209 C655 -209 628 -190 628 -154 C628 -88 700 -38 777 -5 C999 20 1091 140 1121 308 L1191 700 L1092 700 L1025 327 C997 176 912 80 697 80 L443 80 C220 80 169 180 194 323 L263 700 L164 700 L95 323 C60 130 136 -10 431 -10 L704 -10 C625 -42 545 -102 545 -179 L545 -179 Z " />
<glyph glyph-name="uogonek" unicode="&#x173;" horiz-adv-x="1050" d="M430 -179 C430 -228 471 -258 536 -258 C575 -258 613 -253 659 -235 L667 -190 C629 -205 608 -209 581 -209 C540 -209 513 -190 513 -154 C513 -88 586 -37 663 -4 C845 14 919 102 944 241 L1001 560 L913 560 L858 257 C836 139 776 69 595 69 L366 69 C172 69 143 144 162 257 L216 560 L128 560 L74 258 C46 104 96 -8 353 -8 L594 -8 C513 -40 430 -100 430 -179 L430 -179 Z " />
<glyph glyph-name="Wcircumflex" unicode="&#x174;" horiz-adv-x="1552" d="M818 577 L1019 0 L1093 0 L1597 700 L1472 700 L1072 123 L873 700 L799 700 L394 123 L200 700 L87 700 L339 0 L413 0 L818 577 Z M677 775 L742 775 L875 895 L963 775 L1025 775 L940 946 L824 946 L677 775 Z " />
<glyph glyph-name="wcircumflex" unicode="&#x175;" horiz-adv-x="1328" d="M684 454 L858 0 L925 0 L1345 560 L1236 560 L906 106 L733 560 L667 560 L334 106 L164 560 L61 560 L284 0 L350 0 L684 454 Z M541 635 L606 635 L739 755 L827 635 L889 635 L804 806 L688 806 L541 635 Z " />
<glyph glyph-name="Ycircumflex" unicode="&#x176;" horiz-adv-x="1197" d="M489 0 L588 0 L625 212 L1263 700 L1111 700 L585 289 L204 700 L66 700 L526 212 L489 0 Z M499 775 L564 775 L697 895 L785 775 L847 775 L762 946 L646 946 L499 775 Z " />
<glyph glyph-name="ycircumflex" unicode="&#x177;" horiz-adv-x="1019" d="M406 0 L495 0 L524 170 L1058 560 L923 560 L487 236 L163 560 L40 560 L435 170 L406 0 Z M387 635 L452 635 L585 755 L673 635 L735 635 L650 806 L534 806 L387 635 Z " />
<glyph glyph-name="Ydieresis" unicode="&#x178;" horiz-adv-x="1197" d="M489 0 L588 0 L625 212 L1263 700 L1111 700 L585 289 L204 700 L66 700 L526 212 L489 0 Z M760 810 L858 810 L875 909 L777 909 L760 810 Z M501 810 L599 810 L616 909 L518 909 L501 810 Z " />
<glyph glyph-name="Zacute" unicode="&#x179;" horiz-adv-x="1147" d="M13 0 L1028 0 L1044 90 L223 90 L1121 629 L1130 700 L145 700 L127 610 L920 610 L22 70 L13 0 Z M575 775 L643 775 L826 946 L707 946 L575 775 Z " />
<glyph glyph-name="zacute" unicode="&#x17a;" horiz-adv-x="983" d="M6 0 L870 0 L884 77 L195 77 L942 499 L950 560 L111 560 L97 482 L759 482 L13 60 L6 0 Z M469 635 L537 635 L720 806 L601 806 L469 635 Z " />
<glyph glyph-name="Zdotaccent" unicode="&#x17b;" horiz-adv-x="1147" d="M13 0 L1028 0 L1044 90 L223 90 L1121 629 L1130 700 L145 700 L127 610 L920 610 L22 70 L13 0 Z M608 810 L705 810 L722 909 L625 909 L608 810 Z " />
<glyph glyph-name="zdotaccent" unicode="&#x17c;" horiz-adv-x="983" d="M6 0 L870 0 L884 77 L195 77 L942 499 L950 560 L111 560 L97 482 L759 482 L13 60 L6 0 Z M502 670 L599 670 L616 769 L519 769 L502 670 Z " />
<glyph glyph-name="Zcaron" unicode="&#x17d;" horiz-adv-x="1147" d="M13 0 L1028 0 L1044 90 L223 90 L1121 629 L1130 700 L145 700 L127 610 L920 610 L22 70 L13 0 Z M856 946 L790 946 L658 826 L569 946 L508 946 L592 775 L708 775 L856 946 Z " />
<glyph glyph-name="zcaron" unicode="&#x17e;" horiz-adv-x="983" d="M6 0 L870 0 L884 77 L195 77 L942 499 L950 560 L111 560 L97 482 L759 482 L13 60 L6 0 Z M750 806 L684 806 L552 686 L463 806 L402 806 L486 635 L602 635 L750 806 Z " />
<glyph glyph-name="uni0186" unicode="&#x186;" horiz-adv-x="1136" d="M967 392 C967 243 878 90 595 90 L32 90 L16 0 L587 0 C933 0 1073 193 1073 404 C1073 570 971 700 703 700 L141 700 L125 610 L687 610 C897 610 967 514 967 392 L967 392 Z " />
<glyph glyph-name="uni0189" unicode="&#x189;" horiz-adv-x="1204" d="M-13 309 L113 309 L58 0 L655 0 C1001 0 1140 193 1140 404 C1140 569 1039 700 771 700 L183 700 L127 391 L3 391 L-13 309 Z M755 610 C964 610 1034 514 1034 392 C1034 243 945 90 662 90 L171 90 L209 309 L607 309 L623 391 L224 391 L263 610 L755 610 Z " />
<glyph glyph-name="uni018E" unicode="&#x18e;" horiz-adv-x="1150" d="M1099 700 L143 700 L125 610 L982 610 L944 391 L185 391 L169 309 L928 309 L890 90 L33 90 L17 0 L973 0 L1099 700 Z " />
<glyph glyph-name="florin" unicode="&#x192;" horiz-adv-x="1245" d="M429 100 C401 1 333 -70 189 -70 L100 -70 L83 -160 L186 -160 C388 -160 484 -59 524 88 L584 307 L889 307 L905 389 L607 389 L621 439 C647 533 716 610 865 610 L1131 610 L1148 700 L875 700 C665 700 564 589 526 452 L508 389 L297 389 L282 307 L486 307 L429 100 Z " />
<glyph glyph-name="Ohorn" unicode="&#x1a0;" horiz-adv-x="1293" d="M730 -10 C1093 -10 1230 186 1230 410 C1230 507 1194 591 1113 646 L1189 646 C1283 646 1356 666 1375 772 C1377 788 1379 806 1379 826 L1289 826 C1289 807 1287 792 1285 778 C1273 712 1234 700 1175 700 L971 700 C935 706 896 710 852 710 L568 710 C208 710 67 517 67 294 C67 122 175 -10 447 -10 L730 -10 Z M466 80 C247 80 173 178 173 306 C173 462 269 620 564 620 L832 620 C1049 620 1124 523 1124 397 C1124 236 1028 80 735 80 L466 80 Z " />
<glyph glyph-name="ohorn" unicode="&#x1a1;" horiz-adv-x="1108" d="M617 -8 C922 -8 1036 152 1038 326 C1038 398 1015 462 957 506 L980 506 C1074 506 1147 526 1166 632 C1168 648 1170 666 1170 686 L1080 686 C1080 667 1078 652 1076 638 C1064 572 1025 560 966 560 L822 560 C792 565 758 568 721 568 L470 568 C165 568 52 408 51 234 C49 99 131 -8 366 -8 L617 -8 Z M381 69 C202 69 144 145 145 240 C145 365 232 490 460 490 L707 490 C886 490 943 414 943 318 C943 196 858 69 628 69 L381 69 Z " />
<glyph glyph-name="uni01A7" unicode="&#x1a7;" horiz-adv-x="1158" d="M1008 90 L270 90 C175 90 146 131 146 181 C146 249 190 309 309 309 L843 309 C1044 309 1123 417 1123 536 C1123 628 1067 700 913 700 L173 700 L156 610 L894 610 C989 610 1018 569 1018 519 C1018 451 974 391 855 391 L321 391 C120 391 41 283 41 163 C41 71 97 0 251 0 L991 0 L1008 90 Z " />
<glyph glyph-name="uni01A8" unicode="&#x1a8;" horiz-adv-x="991" d="M851 77 L220 77 C145 77 122 109 122 146 C122 195 154 246 253 246 L713 246 C888 246 945 333 945 430 C945 504 897 560 770 560 L136 560 L120 482 L751 482 C827 482 850 451 850 413 C850 364 817 313 719 313 L258 313 C83 313 27 226 27 129 C27 56 74 0 202 0 L836 0 L851 77 Z " />
<glyph glyph-name="Uhorn" unicode="&#x1af;" horiz-adv-x="1366" d="M194 323 L263 700 L164 700 L95 323 C60 130 136 -10 431 -10 L684 -10 C975 -10 1087 118 1121 308 L1181 646 L1257 646 C1351 646 1424 666 1443 772 C1445 788 1447 806 1447 826 L1357 826 C1357 807 1355 792 1353 778 C1341 712 1302 700 1243 700 L1092 700 L1025 327 C997 176 912 80 697 80 L443 80 C220 80 169 180 194 323 L194 323 Z " />
<glyph glyph-name="uhorn" unicode="&#x1b0;" horiz-adv-x="1203" d="M162 257 L216 560 L128 560 L74 258 C46 104 96 -8 353 -8 L587 -8 C825 -8 916 84 944 241 L991 506 L1070 506 C1164 506 1237 526 1256 632 C1258 648 1260 666 1260 686 L1170 686 C1170 667 1168 652 1166 638 C1154 572 1115 560 1056 560 L913 560 L858 257 C836 139 776 69 595 69 L366 69 C172 69 143 144 162 257 L162 257 Z " />
<glyph glyph-name="uni01B1" unicode="&#x1b1;" horiz-adv-x="1301" d="M863 624 C1041 591 1113 488 1113 374 C1113 234 1028 80 756 80 L453 80 C254 80 186 169 186 284 C186 430 296 582 546 624 L558 700 L132 700 L115 610 L337 610 C156 531 85 393 85 254 C85 107 180 -10 421 -10 L758 -10 C1078 -10 1207 169 1207 364 C1207 464 1161 559 1056 610 L1283 610 L1300 700 L875 700 L863 624 Z " />
<glyph glyph-name="uni01C0" unicode="&#x1c0;" horiz-adv-x="317" d="M285 800 L201 800 L39 -100 L124 -100 L285 800 Z " />
<glyph glyph-name="uni01C1" unicode="&#x1c1;" horiz-adv-x="619" d="M285 800 L201 800 L39 -100 L124 -100 L285 800 Z M591 800 L506 800 L345 -100 L430 -100 L591 800 Z " />
<glyph glyph-name="uni01C2" unicode="&#x1c2;" horiz-adv-x="704" d="M361 156 L630 156 L643 232 L375 232 L417 468 L685 468 L700 544 L431 544 L477 800 L392 800 L346 544 L78 544 L63 468 L332 468 L290 232 L21 232 L8 156 L277 156 L231 -100 L315 -100 L361 156 Z " />
<glyph glyph-name="uni01C3" unicode="&#x1c3;" horiz-adv-x="330" d="M52 0 L159 0 L179 109 L71 109 L52 0 Z M91 176 L176 176 L280 700 L182 700 L91 176 Z " />
<glyph glyph-name="uni01C4" unicode="&#x1c4;" horiz-adv-x="2351" d="M58 0 L655 0 C1001 0 1140 193 1140 404 C1140 569 1039 700 771 700 L183 700 L58 0 Z M755 610 C964 610 1034 514 1034 392 C1034 243 945 90 662 90 L171 90 L263 610 L755 610 Z M1217 0 L2232 0 L2248 90 L1427 90 L2325 629 L2334 700 L1349 700 L1331 610 L2124 610 L1226 70 L1217 0 Z M2060 946 L1994 946 L1862 826 L1773 946 L1712 946 L1796 775 L1912 775 L2060 946 Z " />
<glyph glyph-name="uni01C5" unicode="&#x1c5;" horiz-adv-x="2187" d="M58 0 L655 0 C1001 0 1140 193 1140 404 C1140 569 1039 700 771 700 L183 700 L58 0 Z M755 610 C964 610 1034 514 1034 392 C1034 243 945 90 662 90 L171 90 L263 610 L755 610 Z M1210 0 L2074 0 L2088 77 L1399 77 L2146 499 L2154 560 L1315 560 L1301 482 L1963 482 L1217 60 L1210 0 Z M1954 806 L1888 806 L1756 686 L1667 806 L1606 806 L1690 635 L1806 635 L1954 806 Z " />
<glyph glyph-name="uni01C6" unicode="&#x1c6;" horiz-adv-x="2019" d="M48 0 L559 0 C860 0 967 160 967 328 C967 457 884 560 660 560 L148 560 L48 0 Z M651 482 C817 482 872 414 872 317 C872 195 786 77 564 77 L151 77 L222 482 L651 482 Z M1043 0 L1907 0 L1921 77 L1232 77 L1979 499 L1987 560 L1148 560 L1134 482 L1796 482 L1050 60 L1043 0 Z M1786 806 L1720 806 L1588 686 L1499 806 L1438 806 L1522 635 L1638 635 L1786 806 Z " />
<glyph glyph-name="uni01C7" unicode="&#x1c7;" horiz-adv-x="2245" d="M1390 -5 L1706 -5 C1998 -5 2107 112 2142 306 L2212 700 L2113 700 L2045 326 C2018 175 1933 85 1719 85 L1408 85 C1230 85 1188 167 1210 273 L1220 324 L1122 324 L1112 275 C1082 123 1148 -5 1390 -5 L1390 -5 Z M282 700 L183 700 L58 0 L995 0 L1010 90 L173 90 L282 700 Z " />
<glyph glyph-name="uni01C8" unicode="&#x1c8;" horiz-adv-x="2083" d="M282 700 L183 700 L58 0 L995 0 L1010 90 L173 90 L282 700 Z M1337 -4 L1621 -4 C1859 -4 1950 88 1978 245 L2034 560 L1945 560 L1891 261 C1870 142 1809 73 1628 73 L1343 73 C1203 73 1174 136 1189 218 L1197 260 L1109 260 L1102 220 C1079 98 1129 -4 1337 -4 L1337 -4 Z " />
<glyph glyph-name="uni01C9" unicode="&#x1c9;" horiz-adv-x="1947" d="M1200 -4 L1484 -4 C1722 -4 1813 88 1841 245 L1897 560 L1808 560 L1754 261 C1733 142 1672 73 1491 73 L1206 73 C1066 73 1037 136 1052 218 L1060 260 L972 260 L965 220 C942 98 992 -4 1200 -4 L1200 -4 Z M236 560 L147 560 L48 0 L845 0 L859 77 L150 77 L236 560 Z " />
<glyph glyph-name="uni01CA" unicode="&#x1ca;" horiz-adv-x="2414" d="M1560 -5 L1876 -5 C2168 -5 2277 112 2312 306 L2382 700 L2283 700 L2215 326 C2188 175 2103 85 1889 85 L1578 85 C1400 85 1358 167 1380 273 L1390 324 L1292 324 L1282 275 C1252 123 1318 -5 1560 -5 L1560 -5 Z M981 0 L1075 0 L1200 700 L1101 700 L996 107 L277 700 L183 700 L58 0 L157 0 L261 592 L981 0 Z " />
<glyph glyph-name="uni01CB" unicode="&#x1cb;" horiz-adv-x="2253" d="M981 0 L1075 0 L1200 700 L1101 700 L996 107 L277 700 L183 700 L58 0 L157 0 L261 592 L981 0 Z M1507 -4 L1791 -4 C2029 -4 2120 88 2148 245 L2204 560 L2115 560 L2061 261 C2040 142 1979 73 1798 73 L1513 73 C1373 73 1344 136 1359 218 L1367 260 L1279 260 L1272 220 C1249 98 1299 -4 1507 -4 L1507 -4 Z " />
<glyph glyph-name="uni01CC" unicode="&#x1cc;" horiz-adv-x="2082" d="M1336 -4 L1620 -4 C1858 -4 1949 88 1977 245 L2033 560 L1944 560 L1890 261 C1869 142 1808 73 1627 73 L1342 73 C1202 73 1173 136 1188 218 L1196 260 L1108 260 L1101 220 C1078 98 1128 -4 1336 -4 L1336 -4 Z M914 0 L1013 560 L924 560 L842 94 L231 560 L147 560 L48 0 L137 0 L219 466 L830 0 L914 0 Z " />
<glyph glyph-name="uni01CD" unicode="&#x1cd;" horiz-adv-x="1222" d="M1037 0 L1153 0 L729 700 L624 700 L-50 0 L76 0 L205 135 L955 135 L1037 0 Z M665 616 L906 217 L283 217 L665 616 Z M893 946 L827 946 L695 826 L606 946 L545 946 L629 775 L745 775 L893 946 Z " />
<glyph glyph-name="uni01CE" unicode="&#x1ce;" horiz-adv-x="1045" d="M869 0 L975 0 L610 560 L515 560 L-49 0 L65 0 L177 112 L796 112 L869 0 Z M553 487 L751 181 L246 181 L553 487 Z M780 806 L714 806 L582 686 L493 806 L432 806 L516 635 L632 635 L780 806 Z " />
<glyph glyph-name="uni01CF" unicode="&#x1cf;" horiz-adv-x="334" d="M58 0 L157 0 L282 700 L183 700 L58 0 Z M449 946 L383 946 L251 826 L162 946 L101 946 L185 775 L301 775 L449 946 Z " />
<glyph glyph-name="uni01D0" unicode="&#x1d0;" horiz-adv-x="304" d="M410 806 L344 806 L212 686 L123 806 L62 806 L146 635 L262 635 L410 806 Z M48 0 L137 0 L236 560 L147 560 L48 0 Z " />
<glyph glyph-name="uni01D1" unicode="&#x1d1;" horiz-adv-x="1293" d="M730 -10 C1093 -10 1230 186 1230 410 C1230 579 1123 710 852 710 L568 710 C208 710 67 517 67 294 C67 122 175 -10 447 -10 L730 -10 Z M466 80 C247 80 173 178 173 306 C173 462 269 620 564 620 L832 620 C1049 620 1124 523 1124 397 C1124 236 1028 80 735 80 L466 80 Z M928 946 L862 946 L730 826 L641 946 L580 946 L664 775 L780 775 L928 946 Z " />
<glyph glyph-name="uni01D2" unicode="&#x1d2;" horiz-adv-x="1108" d="M617 -8 C922 -8 1036 152 1038 326 C1039 461 956 568 721 568 L470 568 C165 568 52 408 51 234 C49 99 131 -8 366 -8 L617 -8 Z M381 69 C202 69 144 145 145 240 C145 365 232 490 460 490 L707 490 C886 490 943 414 943 318 C943 196 858 69 628 69 L381 69 Z M812 806 L746 806 L614 686 L525 806 L464 806 L548 635 L664 635 L812 806 Z " />
<glyph glyph-name="uni01D3" unicode="&#x1d3;" horiz-adv-x="1223" d="M194 323 L263 700 L164 700 L95 323 C60 130 136 -10 431 -10 L684 -10 C975 -10 1087 118 1121 308 L1191 700 L1092 700 L1025 327 C997 176 912 80 697 80 L443 80 C220 80 169 180 194 323 L194 323 Z M894 946 L828 946 L696 826 L607 946 L546 946 L630 775 L746 775 L894 946 Z " />
<glyph glyph-name="uni01D4" unicode="&#x1d4;" horiz-adv-x="1050" d="M162 257 L216 560 L128 560 L74 258 C46 104 96 -8 353 -8 L587 -8 C825 -8 916 84 944 241 L1001 560 L913 560 L858 257 C836 139 776 69 595 69 L366 69 C172 69 143 144 162 257 L162 257 Z M784 806 L718 806 L586 686 L497 806 L436 806 L520 635 L636 635 L784 806 Z " />
<glyph glyph-name="uni01D5" unicode="&#x1d5;" horiz-adv-x="1223" d="M194 323 L263 700 L164 700 L95 323 C60 130 136 -10 431 -10 L684 -10 C975 -10 1087 118 1121 308 L1191 700 L1092 700 L1025 327 C997 176 912 80 697 80 L443 80 C220 80 169 180 194 323 L194 323 Z M543 997 L912 997 L923 1062 L554 1062 L543 997 Z M774 810 L872 810 L889 909 L791 909 L774 810 Z M515 810 L613 810 L630 909 L532 909 L515 810 Z " />
<glyph glyph-name="uni01D6" unicode="&#x1d6;" horiz-adv-x="1050" d="M162 257 L216 560 L128 560 L74 258 C46 104 96 -8 353 -8 L587 -8 C825 -8 916 84 944 241 L1001 560 L913 560 L858 257 C836 139 776 69 595 69 L366 69 C172 69 143 144 162 257 L162 257 Z M432 857 L801 857 L812 922 L443 922 L432 857 Z M664 670 L762 670 L779 769 L681 769 L664 670 Z M405 670 L503 670 L520 769 L422 769 L405 670 Z " />
<glyph glyph-name="uni01D7" unicode="&#x1d7;" horiz-adv-x="1223" d="M194 323 L263 700 L164 700 L95 323 C60 130 136 -10 431 -10 L684 -10 C975 -10 1087 118 1121 308 L1191 700 L1092 700 L1025 327 C997 176 912 80 697 80 L443 80 C220 80 169 180 194 323 L194 323 Z M646 962 L714 962 L897 1133 L778 1133 L646 962 Z M774 810 L872 810 L889 909 L791 909 L774 810 Z M515 810 L613 810 L630 909 L532 909 L515 810 Z " />
<glyph glyph-name="uni01D8" unicode="&#x1d8;" horiz-adv-x="1050" d="M162 257 L216 560 L128 560 L74 258 C46 104 96 -8 353 -8 L587 -8 C825 -8 916 84 944 241 L1001 560 L913 560 L858 257 C836 139 776 69 595 69 L366 69 C172 69 143 144 162 257 L162 257 Z M536 822 L604 822 L787 993 L668 993 L536 822 Z M664 670 L762 670 L779 769 L681 769 L664 670 Z M405 670 L503 670 L520 769 L422 769 L405 670 Z " />
<glyph glyph-name="uni01D9" unicode="&#x1d9;" horiz-adv-x="1223" d="M194 323 L263 700 L164 700 L95 323 C60 130 136 -10 431 -10 L684 -10 C975 -10 1087 118 1121 308 L1191 700 L1092 700 L1025 327 C997 176 912 80 697 80 L443 80 C220 80 169 180 194 323 L194 323 Z M927 1133 L861 1133 L729 1013 L640 1133 L579 1133 L663 962 L779 962 L927 1133 Z M774 810 L872 810 L889 909 L791 909 L774 810 Z M515 810 L613 810 L630 909 L532 909 L515 810 Z " />
<glyph glyph-name="uni01DA" unicode="&#x1da;" horiz-adv-x="1050" d="M162 257 L216 560 L128 560 L74 258 C46 104 96 -8 353 -8 L587 -8 C825 -8 916 84 944 241 L1001 560 L913 560 L858 257 C836 139 776 69 595 69 L366 69 C172 69 143 144 162 257 L162 257 Z M817 993 L751 993 L619 873 L530 993 L469 993 L553 822 L669 822 L817 993 Z M664 670 L762 670 L779 769 L681 769 L664 670 Z M405 670 L503 670 L520 769 L422 769 L405 670 Z " />
<glyph glyph-name="uni01DB" unicode="&#x1db;" horiz-adv-x="1223" d="M194 323 L263 700 L164 700 L95 323 C60 130 136 -10 431 -10 L684 -10 C975 -10 1087 118 1121 308 L1191 700 L1092 700 L1025 327 C997 176 912 80 697 80 L443 80 C220 80 169 180 194 323 L194 323 Z M721 1133 L611 1133 L731 962 L792 962 L721 1133 Z M774 810 L872 810 L889 909 L791 909 L774 810 Z M515 810 L613 810 L630 909 L532 909 L515 810 Z " />
<glyph glyph-name="uni01DC" unicode="&#x1dc;" horiz-adv-x="1050" d="M162 257 L216 560 L128 560 L74 258 C46 104 96 -8 353 -8 L587 -8 C825 -8 916 84 944 241 L1001 560 L913 560 L858 257 C836 139 776 69 595 69 L366 69 C172 69 143 144 162 257 L162 257 Z M611 993 L501 993 L621 822 L682 822 L611 993 Z M664 670 L762 670 L779 769 L681 769 L664 670 Z M405 670 L503 670 L520 769 L422 769 L405 670 Z " />
<glyph glyph-name="uni01DD" unicode="&#x1dd;" horiz-adv-x="992" d="M923 560 L110 560 L96 482 L820 482 L791 314 L150 314 L137 245 L777 245 L749 77 L24 77 L11 0 L824 0 L923 560 Z " />
<glyph glyph-name="uni01DE" unicode="&#x1de;" horiz-adv-x="1222" d="M1037 0 L1153 0 L729 700 L624 700 L-50 0 L76 0 L205 135 L955 135 L1037 0 Z M665 616 L906 217 L283 217 L665 616 Z M543 997 L912 997 L923 1062 L554 1062 L543 997 Z M773 810 L871 810 L888 909 L790 909 L773 810 Z M514 810 L612 810 L629 909 L531 909 L514 810 Z " />
<glyph glyph-name="uni01DF" unicode="&#x1df;" horiz-adv-x="1045" d="M869 0 L975 0 L610 560 L515 560 L-49 0 L65 0 L177 112 L796 112 L869 0 Z M553 487 L751 181 L246 181 L553 487 Z M429 857 L798 857 L809 922 L440 922 L429 857 Z M660 670 L758 670 L775 769 L677 769 L660 670 Z M401 670 L499 670 L516 769 L418 769 L401 670 Z " />
<glyph glyph-name="uni01E0" unicode="&#x1e0;" horiz-adv-x="1222" d="M1037 0 L1153 0 L729 700 L624 700 L-50 0 L76 0 L205 135 L955 135 L1037 0 Z M665 616 L906 217 L283 217 L665 616 Z M543 997 L912 997 L923 1062 L554 1062 L543 997 Z M645 810 L742 810 L759 909 L662 909 L645 810 Z " />
<glyph glyph-name="uni01E1" unicode="&#x1e1;" horiz-adv-x="1045" d="M869 0 L975 0 L610 560 L515 560 L-49 0 L65 0 L177 112 L796 112 L869 0 Z M553 487 L751 181 L246 181 L553 487 Z M429 857 L798 857 L809 922 L440 922 L429 857 Z M532 670 L629 670 L646 769 L549 769 L532 670 Z " />
<glyph glyph-name="uni01E2" unicode="&#x1e2;" horiz-adv-x="1638" d="M670 133 L647 0 L1502 0 L1518 90 L762 90 L800 309 L1458 309 L1474 391 L816 391 L854 610 L1610 610 L1627 700 L719 700 L-50 0 L77 0 L222 133 L670 133 Z M312 215 L756 622 L686 215 L312 215 Z M840 827 L1209 827 L1220 892 L851 892 L840 827 Z " />
<glyph glyph-name="uni01E3" unicode="&#x1e3;" horiz-adv-x="1402" d="M562 105 L544 0 L1273 0 L1286 77 L647 77 L676 245 L1231 245 L1244 314 L689 314 L718 482 L1358 482 L1372 560 L596 560 L-49 0 L66 0 L187 105 L562 105 Z M266 174 L631 490 L575 174 L266 174 Z M708 687 L1077 687 L1088 752 L719 752 L708 687 Z " />
<glyph glyph-name="Gcaron" unicode="&#x1e6;" horiz-adv-x="1205" d="M632 309 L1010 309 L972 90 L452 90 C242 90 173 185 173 308 C173 456 261 610 545 610 L1107 610 L1124 700 L552 700 C206 700 67 507 67 296 C67 130 168 0 436 0 L1052 0 L1121 391 L648 391 L632 309 Z M907 946 L841 946 L709 826 L620 946 L559 946 L643 775 L759 775 L907 946 Z " />
<glyph glyph-name="gcaron" unicode="&#x1e7;" horiz-adv-x="1036" d="M358 0 L890 0 L945 314 L542 314 L528 245 L845 245 L816 77 L367 77 C201 77 146 146 146 242 C146 364 232 482 454 482 L930 482 L944 560 L459 560 C158 560 51 400 51 232 C51 102 133 0 358 0 L358 0 Z M787 806 L721 806 L589 686 L500 806 L439 806 L523 635 L639 635 L787 806 Z " />
<glyph glyph-name="uni01E8" unicode="&#x1e8;" horiz-adv-x="1238" d="M1211 700 L1035 700 L200 247 L280 700 L183 700 L58 0 L155 0 L180 139 L533 331 L1018 0 L1174 0 L621 379 L1211 700 Z M863 946 L797 946 L665 826 L576 946 L515 946 L599 775 L715 775 L863 946 Z " />
<glyph glyph-name="uni01E9" unicode="&#x1e9;" horiz-adv-x="1068" d="M1028 560 L864 560 L172 204 L236 560 L147 560 L48 0 L137 0 L156 108 L452 261 L856 0 L999 0 L532 303 L1028 560 Z M758 806 L692 806 L560 686 L471 806 L410 806 L494 635 L610 635 L758 806 Z " />
<glyph glyph-name="uni01EA" unicode="&#x1ea;" horiz-adv-x="1293" d="M607 -179 C607 -228 648 -258 713 -258 C752 -258 790 -253 836 -235 L844 -190 C806 -205 785 -209 758 -209 C717 -209 690 -190 690 -154 C690 -86 766 -35 845 -2 C1122 35 1230 211 1230 410 C1230 579 1123 710 852 710 L568 710 C208 710 67 517 67 294 C67 122 175 -10 447 -10 L730 -10 C743 -10 756 -10 768 -9 C688 -41 607 -101 607 -179 L607 -179 Z M466 80 C247 80 173 178 173 306 C173 462 269 620 564 620 L832 620 C1049 620 1124 523 1124 397 C1124 236 1028 80 735 80 L466 80 Z " />
<glyph glyph-name="uni01EB" unicode="&#x1eb;" horiz-adv-x="1108" d="M481 -179 C481 -228 522 -258 587 -258 C626 -258 664 -253 710 -235 L718 -190 C680 -205 659 -209 632 -209 C591 -209 564 -190 564 -154 C564 -85 642 -34 722 -1 C948 32 1036 173 1038 326 C1039 461 956 568 721 568 L470 568 C165 568 52 408 51 234 C49 99 131 -8 366 -8 L617 -8 C627 -8 637 -8 647 -7 C566 -39 481 -99 481 -179 L481 -179 Z M381 69 C202 69 144 145 145 240 C145 365 232 490 460 490 L707 490 C886 490 943 414 943 318 C943 196 858 69 628 69 L381 69 Z " />
<glyph glyph-name="uni01EC" unicode="&#x1ec;" horiz-adv-x="1293" d="M607 -179 C607 -228 648 -258 713 -258 C752 -258 790 -253 836 -235 L844 -190 C806 -205 785 -209 758 -209 C717 -209 690 -190 690 -154 C690 -86 766 -35 845 -2 C1122 35 1230 211 1230 410 C1230 579 1123 710 852 710 L568 710 C208 710 67 517 67 294 C67 122 175 -10 447 -10 L730 -10 C743 -10 756 -10 768 -9 C688 -41 607 -101 607 -179 L607 -179 Z M466 80 C247 80 173 178 173 306 C173 462 269 620 564 620 L832 620 C1049 620 1124 523 1124 397 C1124 236 1028 80 735 80 L466 80 Z M547 827 L916 827 L927 892 L558 892 L547 827 Z " />
<glyph glyph-name="uni01ED" unicode="&#x1ed;" horiz-adv-x="1108" d="M481 -179 C481 -228 522 -258 587 -258 C626 -258 664 -253 710 -235 L718 -190 C680 -205 659 -209 632 -209 C591 -209 564 -190 564 -154 C564 -85 642 -34 722 -1 C948 32 1036 173 1038 326 C1039 461 956 568 721 568 L470 568 C165 568 52 408 51 234 C49 99 131 -8 366 -8 L617 -8 C627 -8 637 -8 647 -7 C566 -39 481 -99 481 -179 L481 -179 Z M381 69 C202 69 144 145 145 240 C145 365 232 490 460 490 L707 490 C886 490 943 414 943 318 C943 196 858 69 628 69 L381 69 Z M431 687 L800 687 L811 752 L442 752 L431 687 Z " />
<glyph glyph-name="uni01F0" unicode="&#x1f0;" horiz-adv-x="1000" d="M254 -4 L538 -4 C776 -4 867 88 895 245 L951 560 L862 560 L808 261 C787 142 726 73 545 73 L260 73 C120 73 91 136 106 218 L114 260 L26 260 L19 220 C-4 98 46 -4 254 -4 L254 -4 Z M1099 806 L1033 806 L901 686 L812 806 L751 806 L835 635 L951 635 L1099 806 Z " />
<glyph glyph-name="uni01F1" unicode="&#x1f1;" horiz-adv-x="2351" d="M58 0 L655 0 C1001 0 1140 193 1140 404 C1140 569 1039 700 771 700 L183 700 L58 0 Z M755 610 C964 610 1034 514 1034 392 C1034 243 945 90 662 90 L171 90 L263 610 L755 610 Z M1217 0 L2232 0 L2248 90 L1427 90 L2325 629 L2334 700 L1349 700 L1331 610 L2124 610 L1226 70 L1217 0 Z " />
<glyph glyph-name="uni01F2" unicode="&#x1f2;" horiz-adv-x="2187" d="M58 0 L655 0 C1001 0 1140 193 1140 404 C1140 569 1039 700 771 700 L183 700 L58 0 Z M755 610 C964 610 1034 514 1034 392 C1034 243 945 90 662 90 L171 90 L263 610 L755 610 Z M1210 0 L2074 0 L2088 77 L1399 77 L2146 499 L2154 560 L1315 560 L1301 482 L1963 482 L1217 60 L1210 0 Z " />
<glyph glyph-name="uni01F3" unicode="&#x1f3;" horiz-adv-x="2019" d="M48 0 L559 0 C860 0 967 160 967 328 C967 457 884 560 660 560 L148 560 L48 0 Z M651 482 C817 482 872 414 872 317 C872 195 786 77 564 77 L151 77 L222 482 L651 482 Z M1043 0 L1907 0 L1921 77 L1232 77 L1979 499 L1987 560 L1148 560 L1134 482 L1796 482 L1050 60 L1043 0 Z " />
<glyph glyph-name="uni01F4" unicode="&#x1f4;" horiz-adv-x="1205" d="M632 309 L1010 309 L972 90 L452 90 C242 90 173 185 173 308 C173 456 261 610 545 610 L1107 610 L1124 700 L552 700 C206 700 67 507 67 296 C67 130 168 0 436 0 L1052 0 L1121 391 L648 391 L632 309 Z M626 775 L694 775 L877 946 L758 946 L626 775 Z " />
<glyph glyph-name="uni01F5" unicode="&#x1f5;" horiz-adv-x="1036" d="M358 0 L890 0 L945 314 L542 314 L528 245 L845 245 L816 77 L367 77 C201 77 146 146 146 242 C146 364 232 482 454 482 L930 482 L944 560 L459 560 C158 560 51 400 51 232 C51 102 133 0 358 0 L358 0 Z M506 635 L574 635 L757 806 L638 806 L506 635 Z " />
<glyph glyph-name="uni01F8" unicode="&#x1f8;" horiz-adv-x="1253" d="M981 0 L1075 0 L1200 700 L1101 700 L996 107 L277 700 L183 700 L58 0 L157 0 L261 592 L981 0 Z M702 946 L592 946 L712 775 L773 775 L702 946 Z " />
<glyph glyph-name="uni01F9" unicode="&#x1f9;" horiz-adv-x="1082" d="M914 0 L1013 560 L924 560 L842 94 L231 560 L147 560 L48 0 L137 0 L219 466 L830 0 L914 0 Z M593 806 L483 806 L603 635 L664 635 L593 806 Z " />
<glyph glyph-name="Aringacute" unicode="&#x1fa;" horiz-adv-x="1222" d="M1037 0 L1153 0 L729 700 L624 700 L-50 0 L76 0 L205 135 L955 135 L1037 0 Z M665 616 L906 217 L283 217 L665 616 Z M640 856 C640 892 672 921 708 921 C739 921 762 897 762 866 C762 829 730 800 695 800 C663 800 640 824 640 856 L640 856 Z M582 851 C581 794 624 749 689 749 C761 749 820 804 820 871 C820 928 777 972 712 972 C640 972 582 919 582 851 L582 851 Z M652 1001 L720 1001 L903 1172 L784 1172 L652 1001 Z " />
<glyph glyph-name="aringacute" unicode="&#x1fb;" horiz-adv-x="1045" d="M869 0 L975 0 L610 560 L515 560 L-49 0 L65 0 L177 112 L796 112 L869 0 Z M553 487 L751 181 L246 181 L553 487 Z M527 716 C527 752 559 781 595 781 C626 781 649 757 649 726 C649 689 617 660 582 660 C550 660 527 684 527 716 L527 716 Z M469 711 C468 654 511 609 576 609 C648 609 707 664 707 731 C707 788 664 832 599 832 C527 832 469 779 469 711 L469 711 Z M538 861 L606 861 L789 1032 L670 1032 L538 861 Z " />
<glyph glyph-name="AEacute" unicode="&#x1fc;" horiz-adv-x="1638" d="M670 133 L647 0 L1502 0 L1518 90 L762 90 L800 309 L1458 309 L1474 391 L816 391 L854 610 L1610 610 L1627 700 L719 700 L-50 0 L77 0 L222 133 L670 133 Z M312 215 L756 622 L686 215 L312 215 Z M940 775 L1008 775 L1191 946 L1072 946 L940 775 Z " />
<glyph glyph-name="aeacute" unicode="&#x1fd;" horiz-adv-x="1402" d="M562 105 L544 0 L1273 0 L1286 77 L647 77 L676 245 L1231 245 L1244 314 L689 314 L718 482 L1358 482 L1372 560 L596 560 L-49 0 L66 0 L187 105 L562 105 Z M266 174 L631 490 L575 174 L266 174 Z M808 635 L876 635 L1059 806 L940 806 L808 635 Z " />
<glyph glyph-name="Oslashacute" unicode="&#x1fe;" horiz-adv-x="1293" d="M647 775 L715 775 L898 946 L779 946 L647 775 Z M730 -10 C1093 -10 1230 186 1230 410 C1230 538 1168 645 1019 688 L1123 800 L1009 800 L922 706 C900 708 877 710 852 710 L568 710 C208 710 67 517 67 294 C67 163 129 56 278 12 L174 -100 L289 -100 L375 -6 C398 -8 421 -10 447 -10 L730 -10 Z M173 306 C173 462 269 620 564 620 L842 620 L351 91 C220 120 173 203 173 306 L173 306 Z M455 80 L946 609 C1076 580 1124 497 1124 397 C1124 236 1028 80 735 80 L455 80 Z " />
<glyph glyph-name="oslashacute" unicode="&#x1ff;" horiz-adv-x="1108" d="M514 635 L582 635 L765 806 L646 806 L514 635 Z M617 -8 C922 -8 1038 152 1038 326 C1038 430 989 518 858 552 L943 640 L841 640 L769 566 C754 567 738 568 721 568 L470 568 C165 568 52 408 51 234 C51 130 98 42 228 8 L143 -80 L245 -80 L316 -6 C332 -7 348 -8 366 -8 L617 -8 Z M943 318 C943 196 858 69 628 69 L389 69 L791 483 C904 463 943 397 943 318 L943 318 Z M145 240 C145 365 232 490 460 490 L695 490 L294 76 C183 97 144 162 145 240 L145 240 Z " />
<glyph glyph-name="uni0200" unicode="&#x200;" horiz-adv-x="1222" d="M1037 0 L1153 0 L729 700 L624 700 L-50 0 L76 0 L205 135 L955 135 L1037 0 Z M665 616 L906 217 L283 217 L665 616 Z M777 946 L667 946 L787 775 L848 775 L777 946 Z M567 946 L457 946 L577 775 L638 775 L567 946 Z " />
<glyph glyph-name="uni0201" unicode="&#x201;" horiz-adv-x="1045" d="M869 0 L975 0 L610 560 L515 560 L-49 0 L65 0 L177 112 L796 112 L869 0 Z M553 487 L751 181 L246 181 L553 487 Z M664 806 L554 806 L674 635 L735 635 L664 806 Z M454 806 L344 806 L464 635 L525 635 L454 806 Z " />
<glyph glyph-name="uni0202" unicode="&#x202;" horiz-adv-x="1222" d="M1037 0 L1153 0 L729 700 L624 700 L-50 0 L76 0 L205 135 L955 135 L1037 0 Z M665 616 L906 217 L283 217 L665 616 Z M714 871 C790 871 812 831 807 784 L860 784 C869 856 848 936 724 936 C601 936 551 857 533 784 L589 784 C602 831 639 871 714 871 L714 871 Z " />
<glyph glyph-name="uni0203" unicode="&#x203;" horiz-adv-x="1045" d="M869 0 L975 0 L610 560 L515 560 L-49 0 L65 0 L177 112 L796 112 L869 0 Z M553 487 L751 181 L246 181 L553 487 Z M601 731 C677 731 699 691 694 644 L747 644 C756 716 735 796 611 796 C488 796 438 717 420 644 L476 644 C489 691 526 731 601 731 L601 731 Z " />
<glyph glyph-name="uni0204" unicode="&#x204;" horiz-adv-x="1150" d="M58 0 L1014 0 L1030 90 L173 90 L210 309 L969 309 L985 391 L226 391 L264 610 L1121 610 L1139 700 L183 700 L58 0 Z M751 946 L641 946 L761 775 L822 775 L751 946 Z M541 946 L431 946 L551 775 L612 775 L541 946 Z " />
<glyph glyph-name="uni0205" unicode="&#x205;" horiz-adv-x="992" d="M48 0 L861 0 L875 77 L150 77 L179 245 L820 245 L833 314 L193 314 L222 482 L946 482 L960 560 L147 560 L48 0 Z M649 806 L539 806 L659 635 L720 635 L649 806 Z M439 806 L329 806 L449 635 L510 635 L439 806 Z " />
<glyph glyph-name="uni0206" unicode="&#x206;" horiz-adv-x="1150" d="M58 0 L1014 0 L1030 90 L173 90 L210 309 L969 309 L985 391 L226 391 L264 610 L1121 610 L1139 700 L183 700 L58 0 Z M688 871 C764 871 786 831 781 784 L834 784 C843 856 822 936 698 936 C575 936 525 857 507 784 L563 784 C576 831 613 871 688 871 L688 871 Z " />
<glyph glyph-name="uni0207" unicode="&#x207;" horiz-adv-x="992" d="M48 0 L861 0 L875 77 L150 77 L179 245 L820 245 L833 314 L193 314 L222 482 L946 482 L960 560 L147 560 L48 0 Z M586 731 C662 731 684 691 679 644 L732 644 C741 716 720 796 596 796 C473 796 423 717 405 644 L461 644 C474 691 511 731 586 731 L586 731 Z " />
<glyph glyph-name="uni0208" unicode="&#x208;" horiz-adv-x="334" d="M58 0 L157 0 L282 700 L183 700 L58 0 Z M333 946 L223 946 L343 775 L404 775 L333 946 Z M123 946 L13 946 L133 775 L194 775 L123 946 Z " />
<glyph glyph-name="uni0209" unicode="&#x209;" horiz-adv-x="304" d="M48 0 L137 0 L236 560 L147 560 L48 0 Z M294 806 L184 806 L304 635 L365 635 L294 806 Z M84 806 L-26 806 L94 635 L155 635 L84 806 Z " />
<glyph glyph-name="uni020A" unicode="&#x20a;" horiz-adv-x="334" d="M58 0 L157 0 L282 700 L183 700 L58 0 Z M270 871 C346 871 368 831 363 784 L416 784 C425 856 404 936 280 936 C157 936 107 857 89 784 L145 784 C158 831 195 871 270 871 L270 871 Z " />
<glyph glyph-name="uni020B" unicode="&#x20b;" horiz-adv-x="304" d="M48 0 L137 0 L236 560 L147 560 L48 0 Z M230 731 C306 731 328 691 323 644 L376 644 C385 716 364 796 240 796 C117 796 67 717 49 644 L105 644 C118 691 155 731 230 731 L230 731 Z " />
<glyph glyph-name="uni020C" unicode="&#x20c;" horiz-adv-x="1293" d="M730 -10 C1093 -10 1230 186 1230 410 C1230 579 1123 710 852 710 L568 710 C208 710 67 517 67 294 C67 122 175 -10 447 -10 L730 -10 Z M466 80 C247 80 173 178 173 306 C173 462 269 620 564 620 L832 620 C1049 620 1124 523 1124 397 C1124 236 1028 80 735 80 L466 80 Z M812 946 L702 946 L822 775 L883 775 L812 946 Z M602 946 L492 946 L612 775 L673 775 L602 946 Z " />
<glyph glyph-name="uni020D" unicode="&#x20d;" horiz-adv-x="1108" d="M617 -8 C922 -8 1036 152 1038 326 C1039 461 956 568 721 568 L470 568 C165 568 52 408 51 234 C49 99 131 -8 366 -8 L617 -8 Z M381 69 C202 69 144 145 145 240 C145 365 232 490 460 490 L707 490 C886 490 943 414 943 318 C943 196 858 69 628 69 L381 69 Z M696 806 L586 806 L706 635 L767 635 L696 806 Z M486 806 L376 806 L496 635 L557 635 L486 806 Z " />
<glyph glyph-name="uni020E" unicode="&#x20e;" horiz-adv-x="1293" d="M730 -10 C1093 -10 1230 186 1230 410 C1230 579 1123 710 852 710 L568 710 C208 710 67 517 67 294 C67 122 175 -10 447 -10 L730 -10 Z M466 80 C247 80 173 178 173 306 C173 462 269 620 564 620 L832 620 C1049 620 1124 523 1124 397 C1124 236 1028 80 735 80 L466 80 Z M749 871 C825 871 847 831 842 784 L895 784 C904 856 883 936 759 936 C636 936 586 857 568 784 L624 784 C637 831 674 871 749 871 L749 871 Z " />
<glyph glyph-name="uni020F" unicode="&#x20f;" horiz-adv-x="1108" d="M617 -8 C922 -8 1036 152 1038 326 C1039 461 956 568 721 568 L470 568 C165 568 52 408 51 234 C49 99 131 -8 366 -8 L617 -8 Z M381 69 C202 69 144 145 145 240 C145 365 232 490 460 490 L707 490 C886 490 943 414 943 318 C943 196 858 69 628 69 L381 69 Z M633 731 C709 731 731 691 726 644 L779 644 C788 716 767 796 643 796 C520 796 470 717 452 644 L508 644 C521 691 558 731 633 731 L633 731 Z " />
<glyph glyph-name="uni0210" unicode="&#x210;" horiz-adv-x="1226" d="M58 0 L155 0 L203 266 L616 266 L1007 0 L1161 0 L758 268 L825 268 C1043 268 1133 380 1133 517 C1133 619 1071 700 902 700 L183 700 L58 0 Z M883 610 C993 610 1029 562 1029 503 C1029 423 975 353 834 353 L218 353 L264 610 L883 610 Z M742 946 L632 946 L752 775 L813 775 L742 946 Z M532 946 L422 946 L542 775 L603 775 L532 946 Z " />
<glyph glyph-name="uni0211" unicode="&#x211;" horiz-adv-x="1061" d="M48 0 L137 0 L174 210 L524 210 L847 0 L987 0 L651 211 L702 211 C893 211 958 309 958 414 C958 494 907 560 764 560 L148 560 L48 0 Z M747 482 C837 482 863 446 863 401 C863 343 831 285 711 285 L188 285 L222 482 L747 482 Z M640 806 L530 806 L650 635 L711 635 L640 806 Z M430 806 L320 806 L440 635 L501 635 L430 806 Z " />
<glyph glyph-name="uni0212" unicode="&#x212;" horiz-adv-x="1226" d="M58 0 L155 0 L203 266 L616 266 L1007 0 L1161 0 L758 268 L825 268 C1043 268 1133 380 1133 517 C1133 619 1071 700 902 700 L183 700 L58 0 Z M883 610 C993 610 1029 562 1029 503 C1029 423 975 353 834 353 L218 353 L264 610 L883 610 Z M679 871 C755 871 777 831 772 784 L825 784 C834 856 813 936 689 936 C566 936 516 857 498 784 L554 784 C567 831 604 871 679 871 L679 871 Z " />
<glyph glyph-name="uni0213" unicode="&#x213;" horiz-adv-x="1061" d="M48 0 L137 0 L174 210 L524 210 L847 0 L987 0 L651 211 L702 211 C893 211 958 309 958 414 C958 494 907 560 764 560 L148 560 L48 0 Z M747 482 C837 482 863 446 863 401 C863 343 831 285 711 285 L188 285 L222 482 L747 482 Z M577 731 C653 731 675 691 670 644 L723 644 C732 716 711 796 587 796 C464 796 414 717 396 644 L452 644 C465 691 502 731 577 731 L577 731 Z " />
<glyph glyph-name="uni0214" unicode="&#x214;" horiz-adv-x="1223" d="M194 323 L263 700 L164 700 L95 323 C60 130 136 -10 431 -10 L684 -10 C975 -10 1087 118 1121 308 L1191 700 L1092 700 L1025 327 C997 176 912 80 697 80 L443 80 C220 80 169 180 194 323 L194 323 Z M777 946 L667 946 L787 775 L848 775 L777 946 Z M567 946 L457 946 L577 775 L638 775 L567 946 Z " />
<glyph glyph-name="uni0215" unicode="&#x215;" horiz-adv-x="1050" d="M162 257 L216 560 L128 560 L74 258 C46 104 96 -8 353 -8 L587 -8 C825 -8 916 84 944 241 L1001 560 L913 560 L858 257 C836 139 776 69 595 69 L366 69 C172 69 143 144 162 257 L162 257 Z M667 806 L557 806 L677 635 L738 635 L667 806 Z M457 806 L347 806 L467 635 L528 635 L457 806 Z " />
<glyph glyph-name="uni0216" unicode="&#x216;" horiz-adv-x="1223" d="M194 323 L263 700 L164 700 L95 323 C60 130 136 -10 431 -10 L684 -10 C975 -10 1087 118 1121 308 L1191 700 L1092 700 L1025 327 C997 176 912 80 697 80 L443 80 C220 80 169 180 194 323 L194 323 Z M714 871 C790 871 812 831 807 784 L860 784 C869 856 848 936 724 936 C601 936 551 857 533 784 L589 784 C602 831 639 871 714 871 L714 871 Z " />
<glyph glyph-name="uni0217" unicode="&#x217;" horiz-adv-x="1050" d="M162 257 L216 560 L128 560 L74 258 C46 104 96 -8 353 -8 L587 -8 C825 -8 916 84 944 241 L1001 560 L913 560 L858 257 C836 139 776 69 595 69 L366 69 C172 69 143 144 162 257 L162 257 Z M604 731 C680 731 702 691 697 644 L750 644 C759 716 738 796 614 796 C491 796 441 717 423 644 L479 644 C492 691 529 731 604 731 L604 731 Z " />
<glyph glyph-name="uni0218" unicode="&#x218;" horiz-adv-x="1158" d="M801 90 L65 90 L48 0 L788 0 C987 0 1068 104 1068 226 C1068 319 1010 391 857 391 L324 391 C230 391 201 431 201 482 C201 549 245 610 363 610 L1099 610 L1116 700 L376 700 C177 700 96 595 96 473 C96 380 154 309 306 309 L840 309 C934 309 963 268 963 217 C963 150 919 90 801 90 L801 90 Z M435 -211 L472 -211 L407 -318 L451 -318 L531 -204 L547 -112 L453 -112 L435 -211 Z " />
<glyph glyph-name="uni0219" unicode="&#x219;" horiz-adv-x="991" d="M676 77 L49 77 L35 0 L668 0 C844 0 900 89 900 184 C900 258 853 313 725 313 L262 313 C187 313 164 344 164 382 C164 434 195 482 295 482 L922 482 L937 560 L303 560 C127 560 71 471 71 376 C71 302 118 246 246 246 L708 246 C784 246 807 216 807 177 C807 126 776 77 676 77 L676 77 Z M350 -211 L387 -211 L322 -318 L366 -318 L446 -204 L462 -112 L368 -112 L350 -211 Z " />
<glyph glyph-name="uni021A" unicode="&#x21a;" horiz-adv-x="1136" d="M77 610 L567 610 L458 0 L557 0 L666 610 L1155 610 L1172 700 L95 700 L77 610 Z M423 -211 L460 -211 L395 -318 L439 -318 L519 -204 L535 -112 L441 -112 L423 -211 Z " />
<glyph glyph-name="uni021B" unicode="&#x21b;" horiz-adv-x="998" d="M67 482 L480 482 L395 0 L484 0 L569 482 L983 482 L997 560 L81 560 L67 482 Z M355 -211 L392 -211 L327 -318 L371 -318 L451 -204 L467 -112 L373 -112 L355 -211 Z " />
<glyph glyph-name="uni021E" unicode="&#x21e;" horiz-adv-x="1252" d="M976 0 L1075 0 L1200 700 L1101 700 L1046 395 L227 395 L282 700 L183 700 L58 0 L157 0 L209 305 L1029 305 L976 0 Z M908 946 L842 946 L710 826 L621 946 L560 946 L644 775 L760 775 L908 946 Z " />
<glyph glyph-name="uni021F" unicode="&#x21f;" horiz-adv-x="1081" d="M825 0 L914 0 L1013 560 L924 560 L882 319 L194 319 L236 560 L147 560 L48 0 L137 0 L179 241 L866 241 L825 0 Z M799 806 L733 806 L601 686 L512 806 L451 806 L535 635 L651 635 L799 806 Z " />
<glyph glyph-name="uni0226" unicode="&#x226;" horiz-adv-x="1222" d="M1037 0 L1153 0 L729 700 L624 700 L-50 0 L76 0 L205 135 L955 135 L1037 0 Z M665 616 L906 217 L283 217 L665 616 Z M645 810 L742 810 L759 909 L662 909 L645 810 Z " />
<glyph glyph-name="uni0227" unicode="&#x227;" horiz-adv-x="1045" d="M869 0 L975 0 L610 560 L515 560 L-49 0 L65 0 L177 112 L796 112 L869 0 Z M553 487 L751 181 L246 181 L553 487 Z M532 670 L629 670 L646 769 L549 769 L532 670 Z " />
<glyph glyph-name="uni0228" unicode="&#x228;" horiz-adv-x="1150" d="M58 0 L503 0 L453 -112 L479 -112 C533 -112 563 -123 563 -156 C563 -204 509 -217 459 -217 C423 -217 388 -208 372 -197 L364 -241 C388 -255 430 -267 473 -267 C551 -266 633 -241 633 -150 C633 -85 567 -64 509 -70 L541 0 L1014 0 L1030 90 L173 90 L210 309 L969 309 L985 391 L226 391 L264 610 L1121 610 L1139 700 L183 700 L58 0 Z " />
<glyph glyph-name="uni0229" unicode="&#x229;" horiz-adv-x="992" d="M48 0 L425 0 L375 -112 L401 -112 C455 -112 485 -123 485 -156 C485 -204 431 -217 381 -217 C345 -217 310 -208 294 -197 L286 -241 C310 -255 352 -267 395 -267 C473 -266 555 -241 555 -150 C555 -85 489 -64 431 -70 L463 0 L861 0 L875 77 L150 77 L179 245 L820 245 L833 314 L193 314 L222 482 L946 482 L960 560 L147 560 L48 0 Z " />
<glyph glyph-name="uni022A" unicode="&#x22a;" horiz-adv-x="1293" d="M730 -10 C1093 -10 1230 186 1230 410 C1230 579 1123 710 852 710 L568 710 C208 710 67 517 67 294 C67 122 175 -10 447 -10 L730 -10 Z M466 80 C247 80 173 178 173 306 C173 462 269 620 564 620 L832 620 C1049 620 1124 523 1124 397 C1124 236 1028 80 735 80 L466 80 Z M578 997 L947 997 L958 1062 L589 1062 L578 997 Z M808 810 L906 810 L923 909 L825 909 L808 810 Z M549 810 L647 810 L664 909 L566 909 L549 810 Z " />
<glyph glyph-name="uni022B" unicode="&#x22b;" horiz-adv-x="1108" d="M617 -8 C922 -8 1036 152 1038 326 C1039 461 956 568 721 568 L470 568 C165 568 52 408 51 234 C49 99 131 -8 366 -8 L617 -8 Z M381 69 C202 69 144 145 145 240 C145 365 232 490 460 490 L707 490 C886 490 943 414 943 318 C943 196 858 69 628 69 L381 69 Z M461 857 L830 857 L841 922 L472 922 L461 857 Z M692 670 L790 670 L807 769 L709 769 L692 670 Z M433 670 L531 670 L548 769 L450 769 L433 670 Z " />
<glyph glyph-name="uni022C" unicode="&#x22c;" horiz-adv-x="1293" d="M730 -10 C1093 -10 1230 186 1230 410 C1230 579 1123 710 852 710 L568 710 C208 710 67 517 67 294 C67 122 175 -10 447 -10 L730 -10 Z M466 80 C247 80 173 178 173 306 C173 462 269 620 564 620 L832 620 C1049 620 1124 523 1124 397 C1124 236 1028 80 735 80 L466 80 Z M869 932 C854 877 835 866 810 866 C768 866 737 925 675 925 C621 925 580 893 554 788 L604 788 C618 843 638 855 663 855 C705 855 735 795 797 795 C851 795 893 827 919 932 L869 932 Z M579 1003 L948 1003 L959 1068 L590 1068 L579 1003 Z " />
<glyph glyph-name="uni022D" unicode="&#x22d;" horiz-adv-x="1108" d="M617 -8 C922 -8 1036 152 1038 326 C1039 461 956 568 721 568 L470 568 C165 568 52 408 51 234 C49 99 131 -8 366 -8 L617 -8 Z M381 69 C202 69 144 145 145 240 C145 365 232 490 460 490 L707 490 C886 490 943 414 943 318 C943 196 858 69 628 69 L381 69 Z M753 792 C738 737 719 726 694 726 C652 726 621 785 559 785 C505 785 464 753 438 648 L488 648 C502 703 522 715 547 715 C589 715 619 655 681 655 C735 655 777 687 803 792 L753 792 Z M462 863 L831 863 L842 928 L473 928 L462 863 Z " />
<glyph glyph-name="uni022E" unicode="&#x22e;" horiz-adv-x="1293" d="M730 -10 C1093 -10 1230 186 1230 410 C1230 579 1123 710 852 710 L568 710 C208 710 67 517 67 294 C67 122 175 -10 447 -10 L730 -10 Z M466 80 C247 80 173 178 173 306 C173 462 269 620 564 620 L832 620 C1049 620 1124 523 1124 397 C1124 236 1028 80 735 80 L466 80 Z M680 810 L777 810 L794 909 L697 909 L680 810 Z " />
<glyph glyph-name="uni022F" unicode="&#x22f;" horiz-adv-x="1108" d="M617 -8 C922 -8 1036 152 1038 326 C1039 461 956 568 721 568 L470 568 C165 568 52 408 51 234 C49 99 131 -8 366 -8 L617 -8 Z M381 69 C202 69 144 145 145 240 C145 365 232 490 460 490 L707 490 C886 490 943 414 943 318 C943 196 858 69 628 69 L381 69 Z M564 670 L661 670 L678 769 L581 769 L564 670 Z " />
<glyph glyph-name="uni0230" unicode="&#x230;" horiz-adv-x="1293" d="M730 -10 C1093 -10 1230 186 1230 410 C1230 579 1123 710 852 710 L568 710 C208 710 67 517 67 294 C67 122 175 -10 447 -10 L730 -10 Z M466 80 C247 80 173 178 173 306 C173 462 269 620 564 620 L832 620 C1049 620 1124 523 1124 397 C1124 236 1028 80 735 80 L466 80 Z M578 997 L947 997 L958 1062 L589 1062 L578 997 Z M680 810 L777 810 L794 909 L697 909 L680 810 Z " />
<glyph glyph-name="uni0231" unicode="&#x231;" horiz-adv-x="1108" d="M617 -8 C922 -8 1036 152 1038 326 C1039 461 956 568 721 568 L470 568 C165 568 52 408 51 234 C49 99 131 -8 366 -8 L617 -8 Z M381 69 C202 69 144 145 145 240 C145 365 232 490 460 490 L707 490 C886 490 943 414 943 318 C943 196 858 69 628 69 L381 69 Z M461 857 L830 857 L841 922 L472 922 L461 857 Z M564 670 L661 670 L678 769 L581 769 L564 670 Z " />
<glyph glyph-name="uni0232" unicode="&#x232;" horiz-adv-x="1197" d="M489 0 L588 0 L625 212 L1263 700 L1111 700 L585 289 L204 700 L66 700 L526 212 L489 0 Z M499 827 L868 827 L879 892 L510 892 L499 827 Z " />
<glyph glyph-name="uni0233" unicode="&#x233;" horiz-adv-x="1019" d="M406 0 L495 0 L524 170 L1058 560 L923 560 L487 236 L163 560 L40 560 L435 170 L406 0 Z M387 687 L756 687 L767 752 L398 752 L387 687 Z " />
<glyph glyph-name="uni0237" unicode="&#x237;" horiz-adv-x="1000" d="M254 -4 L538 -4 C776 -4 867 88 895 245 L951 560 L862 560 L808 261 C787 142 726 73 545 73 L260 73 C120 73 91 136 106 218 L114 260 L26 260 L19 220 C-4 98 46 -4 254 -4 L254 -4 Z " />
<glyph glyph-name="uni0256" unicode="&#x256;" horiz-adv-x="1037" d="M-25 245 L91 245 L48 0 L559 0 C860 0 967 160 967 328 C967 457 884 560 660 560 L148 560 L104 314 L-11 314 L-25 245 Z M651 482 C817 482 872 414 872 317 C872 195 786 77 564 77 L151 77 L180 245 L524 245 L538 314 L192 314 L222 482 L651 482 Z " />
<glyph glyph-name="uni02BB" unicode="&#x2bb;" horiz-adv-x="292" d="M245 579 L196 579 L266 700 L220 700 L135 572 L116 469 L225 469 L245 579 Z " />
<glyph glyph-name="uni02BC" unicode="&#x2bc;" horiz-adv-x="292" d="M138 590 L188 590 L118 469 L163 469 L248 597 L267 700 L159 700 L138 590 Z " />
<glyph glyph-name="uni02BD" unicode="&#x2bd;" horiz-adv-x="292" d="M267 700 L159 700 L139 597 L178 469 L224 469 L198 590 L247 590 L267 700 Z " />
<glyph glyph-name="circumflex" unicode="&#x2c6;" horiz-adv-x="480" d="M117 635 L182 635 L315 755 L403 635 L465 635 L380 806 L264 806 L117 635 Z " />
<glyph glyph-name="caron" unicode="&#x2c7;" horiz-adv-x="480" d="M498 806 L432 806 L300 686 L211 806 L150 806 L234 635 L350 635 L498 806 Z " />
<glyph glyph-name="uni02C9" unicode="&#x2c9;" horiz-adv-x="480" d="M117 687 L486 687 L497 752 L128 752 L117 687 Z " />
<glyph glyph-name="uni02CA" unicode="&#x2ca;" horiz-adv-x="480" d="M217 635 L285 635 L468 806 L349 806 L217 635 Z " />
<glyph glyph-name="uni02CB" unicode="&#x2cb;" horiz-adv-x="480" d="M292 806 L182 806 L302 635 L363 635 L292 806 Z " />
<glyph glyph-name="uni02CD" unicode="&#x2cd;" horiz-adv-x="480" d="M-38 -194 L331 -194 L342 -129 L-27 -129 L-38 -194 Z " />
<glyph glyph-name="uni02CE" unicode="&#x2ce;" horiz-adv-x="480" d="M137 -75 L27 -75 L147 -246 L208 -246 L137 -75 Z " />
<glyph glyph-name="uni02CF" unicode="&#x2cf;" horiz-adv-x="480" d="M62 -246 L130 -246 L313 -75 L194 -75 L62 -246 Z " />
<glyph glyph-name="breve" unicode="&#x2d8;" horiz-adv-x="480" d="M303 708 C227 708 205 748 210 796 L157 796 C148 724 169 644 293 644 C416 644 466 722 484 796 L428 796 C415 748 378 708 303 708 L303 708 Z " />
<glyph glyph-name="dotaccent" unicode="&#x2d9;" horiz-adv-x="480" d="M250 670 L347 670 L364 769 L267 769 L250 670 Z " />
<glyph glyph-name="ring" unicode="&#x2da;" horiz-adv-x="480" d="M245 716 C245 752 277 781 313 781 C344 781 367 757 367 726 C367 689 335 660 300 660 C268 660 245 684 245 716 L245 716 Z M187 711 C186 654 229 609 294 609 C366 609 425 664 425 731 C425 788 382 832 317 832 C245 832 187 779 187 711 L187 711 Z " />
<glyph glyph-name="ogonek" unicode="&#x2db;" horiz-adv-x="480" d="M62 -179 C62 -228 103 -258 168 -258 C207 -258 245 -253 291 -235 L299 -190 C261 -205 240 -209 213 -209 C172 -209 145 -190 145 -154 C145 -85 225 -33 306 0 L249 0 C162 -29 62 -93 62 -179 L62 -179 Z " />
<glyph glyph-name="tilde" unicode="&#x2dc;" horiz-adv-x="480" d="M439 792 C424 737 405 726 380 726 C338 726 307 785 245 785 C191 785 150 753 124 648 L174 648 C188 703 208 715 233 715 C275 715 305 655 367 655 C421 655 463 687 489 792 L439 792 Z " />
<glyph glyph-name="hungarumlaut" unicode="&#x2dd;" horiz-adv-x="480" d="M334 635 L401 635 L584 806 L467 806 L334 635 Z M105 635 L172 635 L355 806 L238 806 L105 635 Z " />
<glyph glyph-name="uni02EC" unicode="&#x2ec;" horiz-adv-x="480" d="M343 -75 L277 -75 L145 -195 L56 -75 L-5 -75 L79 -246 L195 -246 L343 -75 Z " />
<glyph glyph-name="uni02EE" unicode="&#x2ee;" horiz-adv-x="511" d="M138 590 L186 590 L116 469 L161 469 L247 597 L266 699 L157 699 L138 590 Z M359 590 L408 590 L338 469 L383 469 L469 597 L487 699 L378 699 L359 590 Z " />
<glyph glyph-name="gravecomb" unicode="&#x300;" d="M-515 806 L-625 806 L-505 635 L-444 635 L-515 806 Z " />
<glyph glyph-name="acutecomb" unicode="&#x301;" d="M-590 635 L-522 635 L-339 806 L-458 806 L-590 635 Z " />
<glyph glyph-name="uni0302" unicode="&#x302;" d="M-690 635 L-625 635 L-492 755 L-404 635 L-342 635 L-427 806 L-543 806 L-690 635 Z " />
<glyph glyph-name="tildecomb" unicode="&#x303;" d="M-368 792 C-383 737 -402 726 -427 726 C-469 726 -500 785 -562 785 C-616 785 -657 753 -683 648 L-633 648 C-619 703 -599 715 -574 715 C-532 715 -502 655 -440 655 C-386 655 -344 687 -318 792 L-368 792 Z " />
<glyph glyph-name="uni0304" unicode="&#x304;" d="M-690 687 L-321 687 L-310 752 L-679 752 L-690 687 Z " />
<glyph glyph-name="uni0306" unicode="&#x306;" d="M-504 708 C-580 708 -602 748 -597 796 L-650 796 C-659 724 -638 644 -514 644 C-391 644 -341 722 -323 796 L-379 796 C-392 748 -429 708 -504 708 L-504 708 Z " />
<glyph glyph-name="uni0307" unicode="&#x307;" d="M-557 670 L-460 670 L-443 769 L-540 769 L-557 670 Z " />
<glyph glyph-name="uni0308" unicode="&#x308;" d="M-429 670 L-331 670 L-314 769 L-412 769 L-429 670 Z M-688 670 L-590 670 L-573 769 L-671 769 L-688 670 Z " />
<glyph glyph-name="hookabovecomb" unicode="&#x309;" d="M-565 629 L-516 629 L-509 668 L-505 668 C-427 668 -341 684 -341 777 C-341 839 -400 855 -465 855 C-514 855 -566 845 -597 832 L-606 785 C-580 796 -540 804 -501 804 C-456 804 -417 798 -417 762 C-417 718 -451 706 -523 706 L-551 706 L-565 629 Z " />
<glyph glyph-name="uni030A" unicode="&#x30a;" d="M-562 716 C-562 752 -530 781 -494 781 C-463 781 -440 757 -440 726 C-440 689 -472 660 -507 660 C-539 660 -562 684 -562 716 L-562 716 Z M-620 711 C-621 654 -578 609 -513 609 C-441 609 -382 664 -382 731 C-382 788 -425 832 -490 832 C-562 832 -620 779 -620 711 L-620 711 Z " />
<glyph glyph-name="uni030B" unicode="&#x30b;" d="M-473 635 L-406 635 L-223 806 L-340 806 L-473 635 Z M-702 635 L-635 635 L-452 806 L-569 806 L-702 635 Z " />
<glyph glyph-name="uni030C" unicode="&#x30c;" d="M-309 806 L-375 806 L-507 686 L-596 806 L-657 806 L-573 635 L-457 635 L-309 806 Z " />
<glyph glyph-name="uni030F" unicode="&#x30f;" d="M-425 806 L-535 806 L-415 635 L-354 635 L-425 806 Z M-635 806 L-745 806 L-625 635 L-564 635 L-635 806 Z " />
<glyph glyph-name="uni0311" unicode="&#x311;" d="M-495 732 C-420 732 -398 692 -402 645 L-349 645 C-341 718 -362 797 -485 797 C-610 797 -660 718 -677 645 L-620 645 C-607 692 -570 732 -495 732 L-495 732 Z " />
<glyph glyph-name="uni0312" unicode="&#x312;" d="M-353 579 L-401 579 L-331 700 L-376 700 L-462 572 L-481 470 L-372 470 L-353 579 Z " />
<glyph glyph-name="uni0313" unicode="&#x313;" d="M-575 590 L-527 590 L-597 469 L-552 469 L-466 597 L-447 699 L-556 699 L-575 590 Z " />
<glyph glyph-name="uni0314" unicode="&#x314;" d="M-327 699 L-436 699 L-454 597 L-414 469 L-369 469 L-395 590 L-347 590 L-327 699 Z " />
<glyph glyph-name="uni0316" unicode="&#x316;" d="M-670 -75 L-780 -75 L-660 -246 L-599 -246 L-670 -75 Z " />
<glyph glyph-name="uni0317" unicode="&#x317;" d="M-745 -246 L-677 -246 L-494 -75 L-613 -75 L-745 -246 Z " />
<glyph glyph-name="uni031B" unicode="&#x31b;" d="M-94 506 L6 506 C100 506 173 526 192 632 C194 648 196 666 196 686 L106 686 C106 667 104 652 102 638 C90 572 51 560 -8 560 L-85 560 L-94 506 Z " />
<glyph glyph-name="uni031C" unicode="&#x31c;" d="M-593 -49 C-659 -49 -716 -98 -727 -160 C-738 -222 -699 -272 -632 -272 L-623 -221 C-656 -221 -677 -194 -672 -160 C-665 -127 -634 -100 -602 -100 L-593 -49 Z " />
<glyph glyph-name="dotbelowcomb" unicode="&#x323;" d="M-712 -211 L-615 -211 L-598 -112 L-695 -112 L-712 -211 Z " />
<glyph glyph-name="uni0324" unicode="&#x324;" d="M-584 -211 L-486 -211 L-469 -112 L-567 -112 L-584 -211 Z M-843 -211 L-745 -211 L-728 -112 L-826 -112 L-843 -211 Z " />
<glyph glyph-name="uni0325" unicode="&#x325;" d="M-717 -165 C-717 -129 -685 -100 -649 -100 C-618 -100 -595 -124 -595 -155 C-595 -192 -627 -221 -662 -221 C-694 -221 -717 -197 -717 -165 L-717 -165 Z M-775 -170 C-776 -227 -733 -272 -668 -272 C-596 -272 -537 -217 -537 -150 C-537 -93 -580 -49 -645 -49 C-717 -49 -775 -102 -775 -170 L-775 -170 Z " />
<glyph glyph-name="uni0326" unicode="&#x326;" d="M-709 -211 L-672 -211 L-737 -318 L-693 -318 L-613 -204 L-597 -112 L-691 -112 L-709 -211 Z " />
<glyph glyph-name="uni0327" unicode="&#x327;" d="M-699 -112 L-673 -112 C-619 -112 -589 -123 -589 -156 C-589 -204 -643 -217 -693 -217 C-729 -217 -764 -208 -780 -197 L-788 -241 C-764 -255 -722 -267 -679 -267 C-601 -266 -519 -241 -519 -150 C-519 -85 -585 -64 -643 -70 L-611 0 L-649 0 L-699 -112 Z " />
<glyph glyph-name="uni0328" unicode="&#x328;" d="M-745 -179 C-745 -228 -704 -258 -639 -258 C-600 -258 -562 -253 -516 -235 L-508 -190 C-546 -205 -567 -209 -594 -209 C-635 -209 -662 -190 -662 -154 C-662 -85 -582 -33 -501 0 L-558 0 C-645 -29 -745 -93 -745 -179 L-745 -179 Z " />
<glyph glyph-name="uni032C" unicode="&#x32c;" d="M-464 -75 L-530 -75 L-662 -195 L-751 -75 L-812 -75 L-728 -246 L-612 -246 L-464 -75 Z " />
<glyph glyph-name="uni032D" unicode="&#x32d;" d="M-845 -246 L-780 -246 L-647 -126 L-559 -246 L-497 -246 L-582 -75 L-698 -75 L-845 -246 Z " />
<glyph glyph-name="uni032E" unicode="&#x32e;" d="M-659 -173 C-735 -173 -757 -133 -752 -85 L-805 -85 C-814 -157 -793 -237 -669 -237 C-546 -237 -496 -159 -478 -85 L-534 -85 C-547 -133 -584 -173 -659 -173 L-659 -173 Z " />
<glyph glyph-name="uni032F" unicode="&#x32f;" d="M-652 -149 C-577 -149 -554 -189 -558 -237 L-505 -237 C-496 -163 -519 -85 -642 -85 C-767 -85 -815 -163 -834 -237 L-776 -237 C-763 -189 -728 -149 -652 -149 L-652 -149 Z " />
<glyph glyph-name="uni0330" unicode="&#x330;" d="M-523 -89 C-538 -144 -557 -155 -582 -155 C-624 -155 -655 -96 -717 -96 C-771 -96 -812 -128 -838 -233 L-788 -233 C-774 -178 -754 -166 -729 -166 C-687 -166 -657 -226 -595 -226 C-541 -226 -499 -194 -473 -89 L-523 -89 Z " />
<glyph glyph-name="uni0331" unicode="&#x331;" d="M-845 -194 L-476 -194 L-465 -129 L-834 -129 L-845 -194 Z " />
<glyph glyph-name="uni0338" unicode="&#x338;" d="M-926 -76 L-837 -76 L-203 776 L-293 776 L-926 -76 Z " />
<glyph glyph-name="uni0339" unicode="&#x339;" d="M-687 -100 C-655 -100 -634 -127 -640 -160 C-646 -194 -677 -221 -709 -221 L-718 -272 C-652 -272 -595 -222 -585 -160 C-573 -98 -613 -49 -678 -49 L-687 -100 Z " />
<glyph glyph-name="uni0340" unicode="&#x340;" d="M-515 806 L-625 806 L-505 635 L-444 635 L-515 806 Z " />
<glyph glyph-name="uni0341" unicode="&#x341;" d="M-590 635 L-522 635 L-339 806 L-458 806 L-590 635 Z " />
<glyph glyph-name="uni0343" unicode="&#x343;" d="M-575 590 L-527 590 L-597 469 L-552 469 L-466 597 L-447 699 L-556 699 L-575 590 Z " />
<glyph glyph-name="uni0344" unicode="&#x344;" d="M-381 672 L-285 672 L-268 769 L-364 769 L-381 672 Z M-731 672 L-635 672 L-618 769 L-714 769 L-731 672 Z M-537 635 L-494 635 L-429 835 L-529 835 L-537 635 Z " />
<glyph glyph-name="uni034F" unicode="&#x34f;" d="" />
<glyph glyph-name="uni0351" unicode="&#x351;" d="M-438 832 C-504 832 -561 783 -571 721 C-583 659 -543 609 -477 609 L-468 660 C-501 660 -522 687 -516 721 C-510 754 -479 781 -446 781 L-438 832 Z " />
<glyph glyph-name="uni0357" unicode="&#x357;" d="M-532 781 C-500 781 -479 754 -484 721 C-491 687 -522 660 -554 660 L-562 609 C-497 609 -440 659 -429 721 C-418 783 -458 832 -523 832 L-532 781 Z " />
<glyph glyph-name="uni0374" unicode="&#x374;" horiz-adv-x="292" d="M113 400 L181 400 L315 700 L198 700 L113 400 Z " />
<glyph glyph-name="uni0375" unicode="&#x375;" horiz-adv-x="292" d="M25 -100 L93 -100 L227 200 L110 200 L25 -100 Z " />
<glyph glyph-name="uni037E" unicode="&#x37e;" horiz-adv-x="292" d="M34 0 L82 0 L12 -121 L57 -121 L143 7 L162 109 L53 109 L34 0 Z M113 450 L222 450 L241 560 L133 560 L113 450 Z " />
<glyph glyph-name="tonos" unicode="&#x384;" horiz-adv-x="480" d="M267 635 L318 635 L383 835 L274 835 L267 635 Z " />
<glyph glyph-name="dieresistonos" unicode="&#x385;" horiz-adv-x="480" d="M427 672 L523 672 L540 769 L444 769 L427 672 Z M77 672 L173 672 L190 769 L94 769 L77 672 Z M271 635 L314 635 L379 835 L279 835 L271 635 Z " />
<glyph glyph-name="Alphatonos" unicode="&#x386;" horiz-adv-x="1222" d="M1037 0 L1153 0 L729 700 L624 700 L-50 0 L76 0 L205 135 L955 135 L1037 0 Z M665 616 L906 217 L283 217 L665 616 Z M184 500 L235 500 L300 700 L191 700 L184 500 Z " />
<glyph glyph-name="anoteleia" unicode="&#x387;" horiz-adv-x="282" d="M75 230 L172 230 L189 329 L92 329 L75 230 Z " />
<glyph glyph-name="Epsilontonos" unicode="&#x388;" horiz-adv-x="1303" d="M210 0 L1166 0 L1182 90 L325 90 L362 309 L1121 309 L1137 391 L378 391 L416 610 L1273 610 L1291 700 L335 700 L210 0 Z M80 500 L131 500 L196 700 L87 700 L80 500 Z " />
<glyph glyph-name="Etatonos" unicode="&#x389;" horiz-adv-x="1404" d="M1128 0 L1227 0 L1352 700 L1253 700 L1198 395 L379 395 L434 700 L335 700 L210 0 L309 0 L361 305 L1181 305 L1128 0 Z M80 500 L131 500 L196 700 L87 700 L80 500 Z " />
<glyph glyph-name="Iotatonos" unicode="&#x38a;" horiz-adv-x="486" d="M210 0 L309 0 L434 700 L335 700 L210 0 Z M80 500 L131 500 L196 700 L87 700 L80 500 Z " />
<glyph glyph-name="Omicrontonos" unicode="&#x38c;" horiz-adv-x="1415" d="M851 -10 C1214 -10 1351 186 1351 410 C1351 579 1244 710 973 710 L689 710 C329 710 188 517 188 294 C188 122 296 -10 568 -10 L851 -10 Z M587 80 C368 80 294 178 294 306 C294 462 390 620 685 620 L953 620 C1170 620 1245 523 1245 397 C1245 236 1149 80 856 80 L587 80 Z M80 500 L131 500 L196 700 L87 700 L80 500 Z " />
<glyph glyph-name="Upsilontonos" unicode="&#x38e;" horiz-adv-x="1370" d="M662 0 L761 0 L798 212 L1436 700 L1284 700 L758 289 L377 700 L239 700 L699 212 L662 0 Z M80 500 L131 500 L196 700 L87 700 L80 500 Z " />
<glyph glyph-name="Omegatonos" unicode="&#x38f;" horiz-adv-x="1411" d="M553 75 C375 108 303 211 303 326 C303 466 388 620 660 620 L962 620 C1162 620 1229 530 1229 415 C1229 270 1119 117 870 75 L858 0 L1284 0 L1300 90 L1079 90 C1260 168 1331 306 1331 446 C1331 593 1236 710 995 710 L658 710 C338 710 208 531 208 335 C208 235 255 140 360 90 L132 90 L116 0 L541 0 L553 75 Z M80 500 L131 500 L196 700 L87 700 L80 500 Z " />
<glyph glyph-name="iotadieresistonos" unicode="&#x390;" horiz-adv-x="304" d="M48 0 L137 0 L236 560 L147 560 L48 0 Z M338 672 L434 672 L451 769 L355 769 L338 672 Z M-12 672 L84 672 L101 769 L5 769 L-12 672 Z M182 635 L225 635 L290 835 L190 835 L182 635 Z " />
<glyph glyph-name="Alpha" unicode="&#x391;" horiz-adv-x="1222" d="M1037 0 L1153 0 L729 700 L624 700 L-50 0 L76 0 L205 135 L955 135 L1037 0 Z M665 616 L906 217 L283 217 L665 616 Z " />
<glyph glyph-name="Beta" unicode="&#x392;" horiz-adv-x="1208" d="M58 0 L848 0 C1034 0 1107 103 1107 215 C1107 284 1070 341 983 359 C1077 393 1120 465 1120 555 C1120 636 1066 700 929 700 L183 700 L58 0 Z M877 309 C973 309 1004 268 1004 218 C1004 153 958 90 840 90 L173 90 L211 309 L877 309 Z M1013 519 C1013 458 971 391 853 391 L226 391 L265 610 L887 610 C981 610 1013 570 1013 519 L1013 519 Z " />
<glyph glyph-name="Gamma" unicode="&#x393;" horiz-adv-x="1083" d="M58 0 L157 0 L264 610 L1102 610 L1120 700 L183 700 L58 0 Z " />
<glyph glyph-name="Delta" unicode="&#x394;" horiz-adv-x="1222" d="M730 700 L623 700 L-50 0 L1153 0 L730 700 Z M667 618 L988 90 L161 90 L667 618 Z " />
<glyph glyph-name="Epsilon" unicode="&#x395;" horiz-adv-x="1150" d="M58 0 L1014 0 L1030 90 L173 90 L210 309 L969 309 L985 391 L226 391 L264 610 L1121 610 L1139 700 L183 700 L58 0 Z " />
<glyph glyph-name="Zeta" unicode="&#x396;" horiz-adv-x="1147" d="M13 0 L1028 0 L1044 90 L223 90 L1121 629 L1130 700 L145 700 L127 610 L920 610 L22 70 L13 0 Z " />
<glyph glyph-name="Eta" unicode="&#x397;" horiz-adv-x="1252" d="M976 0 L1075 0 L1200 700 L1101 700 L1046 395 L227 395 L282 700 L183 700 L58 0 L157 0 L209 305 L1029 305 L976 0 Z " />
<glyph glyph-name="Theta" unicode="&#x398;" horiz-adv-x="1293" d="M346 309 L935 309 L951 391 L362 391 L346 309 Z M730 -10 C1093 -10 1230 186 1230 410 C1230 579 1123 710 852 710 L568 710 C208 710 67 517 67 294 C67 122 175 -10 447 -10 L730 -10 Z M466 80 C247 80 173 178 173 306 C173 462 269 620 564 620 L832 620 C1049 620 1124 523 1124 397 C1124 236 1028 80 735 80 L466 80 Z " />
<glyph glyph-name="Iota" unicode="&#x399;" horiz-adv-x="334" d="M58 0 L157 0 L282 700 L183 700 L58 0 Z " />
<glyph glyph-name="Kappa" unicode="&#x39a;" horiz-adv-x="1238" d="M1211 700 L1035 700 L200 247 L280 700 L183 700 L58 0 L155 0 L180 139 L533 331 L1018 0 L1174 0 L621 379 L1211 700 Z " />
<glyph glyph-name="Lambda" unicode="&#x39b;" horiz-adv-x="1222" d="M623 700 L-50 0 L80 0 L664 616 L1032 0 L1153 0 L730 700 L623 700 Z " />
<glyph glyph-name="Mu" unicode="&#x39c;" horiz-adv-x="1392" d="M1238 700 L658 162 L271 700 L183 700 L58 0 L156 0 L255 563 L640 28 L1213 563 L1115 0 L1214 0 L1339 700 L1238 700 Z " />
<glyph glyph-name="Nu" unicode="&#x39d;" horiz-adv-x="1253" d="M981 0 L1075 0 L1200 700 L1101 700 L996 107 L277 700 L183 700 L58 0 L157 0 L261 592 L981 0 Z " />
<glyph glyph-name="Xi" unicode="&#x39e;" horiz-adv-x="1158" d="M125 610 L1129 610 L1147 700 L143 700 L125 610 Z M1037 90 L33 90 L17 0 L1021 0 L1037 90 Z M159 309 L987 309 L1003 391 L175 391 L159 309 Z " />
<glyph glyph-name="Omicron" unicode="&#x39f;" horiz-adv-x="1293" d="M730 -10 C1093 -10 1230 186 1230 410 C1230 579 1123 710 852 710 L568 710 C208 710 67 517 67 294 C67 122 175 -10 447 -10 L730 -10 Z M466 80 C247 80 173 178 173 306 C173 462 269 620 564 620 L832 620 C1049 620 1124 523 1124 397 C1124 236 1028 80 735 80 L466 80 Z " />
<glyph glyph-name="Pi" unicode="&#x3a0;" horiz-adv-x="1252" d="M976 0 L1075 0 L1200 700 L183 700 L58 0 L157 0 L264 610 L1083 610 L976 0 Z " />
<glyph glyph-name="Rho" unicode="&#x3a1;" horiz-adv-x="1147" d="M58 0 L157 0 L204 265 L838 265 C1059 265 1147 378 1147 516 C1147 618 1086 700 916 700 L183 700 L58 0 Z M897 610 C1007 610 1042 562 1042 502 C1042 424 989 355 851 355 L220 355 L265 610 L897 610 Z " />
<glyph glyph-name="Sigma" unicode="&#x3a3;" horiz-adv-x="1129" d="M128 625 L543 352 L31 75 L17 0 L993 0 L1008 90 L237 90 L715 346 L323 610 L1100 610 L1118 700 L143 700 L128 625 Z " />
<glyph glyph-name="Tau" unicode="&#x3a4;" horiz-adv-x="1136" d="M77 610 L567 610 L458 0 L557 0 L666 610 L1155 610 L1172 700 L95 700 L77 610 Z " />
<glyph glyph-name="Upsilon" unicode="&#x3a5;" horiz-adv-x="1197" d="M489 0 L588 0 L625 212 L1263 700 L1111 700 L585 289 L204 700 L66 700 L526 212 L489 0 Z " />
<glyph glyph-name="Phi" unicode="&#x3a6;" horiz-adv-x="1252" d="M801 62 C1096 62 1207 219 1207 397 C1207 529 1119 638 902 638 L729 638 L749 750 L650 750 L630 638 L456 638 C163 638 51 477 51 301 C51 167 139 62 356 62 L527 62 L507 -50 L606 -50 L626 62 L801 62 Z M888 548 C1049 548 1101 474 1101 381 C1101 261 1011 152 806 152 L643 152 L713 548 L888 548 Z M158 317 C158 436 248 548 452 548 L614 548 L544 152 L370 152 C209 152 158 223 158 317 L158 317 Z " />
<glyph glyph-name="Chi" unicode="&#x3a7;" horiz-adv-x="1178" d="M91 700 L517 351 L-39 0 L125 0 L588 299 L946 0 L1099 0 L668 351 L1219 700 L1054 700 L595 403 L243 700 L91 700 Z " />
<glyph glyph-name="Psi" unicode="&#x3a8;" horiz-adv-x="1243" d="M512 0 L611 0 L637 147 L770 147 C1061 147 1173 275 1207 465 L1249 700 L1150 700 L1111 484 C1083 333 998 237 783 237 L654 237 L736 700 L637 700 L555 237 L433 237 C210 237 159 336 184 480 L224 700 L125 700 L85 480 C49 287 126 147 421 147 L538 147 L512 0 Z " />
<glyph glyph-name="Omega" unicode="&#x3a9;" horiz-adv-x="1301" d="M444 75 C266 108 194 211 194 326 C194 466 279 620 551 620 L853 620 C1053 620 1120 530 1120 415 C1120 270 1010 117 761 75 L749 0 L1175 0 L1191 90 L970 90 C1151 168 1222 306 1222 446 C1222 593 1127 710 886 710 L549 710 C229 710 99 531 99 335 C99 235 146 140 251 90 L23 90 L7 0 L432 0 L444 75 Z " />
<glyph glyph-name="Iotadieresis" unicode="&#x3aa;" horiz-adv-x="334" d="M58 0 L157 0 L282 700 L183 700 L58 0 Z M328 810 L426 810 L443 909 L345 909 L328 810 Z M69 810 L167 810 L184 909 L86 909 L69 810 Z " />
<glyph glyph-name="Upsilondieresis" unicode="&#x3ab;" horiz-adv-x="1197" d="M489 0 L588 0 L625 212 L1263 700 L1111 700 L585 289 L204 700 L66 700 L526 212 L489 0 Z M762 810 L860 810 L877 909 L779 909 L762 810 Z M503 810 L601 810 L618 909 L520 909 L503 810 Z " />
<glyph glyph-name="alphatonos" unicode="&#x3ac;" horiz-adv-x="1045" d="M869 0 L975 0 L610 560 L515 560 L-49 0 L65 0 L177 112 L796 112 L869 0 Z M553 487 L751 181 L246 181 L553 487 Z M120 360 L171 360 L236 560 L127 560 L120 360 Z " />
<glyph glyph-name="epsilontonos" unicode="&#x3ad;" horiz-adv-x="1144" d="M200 0 L1013 0 L1027 77 L302 77 L331 245 L972 245 L985 314 L345 314 L374 482 L1098 482 L1112 560 L299 560 L200 0 Z M55 360 L106 360 L171 560 L62 560 L55 360 Z " />
<glyph glyph-name="etatonos" unicode="&#x3ae;" horiz-adv-x="1234" d="M977 0 L1066 0 L1165 560 L1076 560 L1034 319 L346 319 L388 560 L299 560 L200 0 L289 0 L331 241 L1018 241 L977 0 Z M55 360 L106 360 L171 560 L62 560 L55 360 Z " />
<glyph glyph-name="iotatonos" unicode="&#x3af;" horiz-adv-x="456" d="M200 0 L289 0 L388 560 L299 560 L200 0 Z M55 360 L106 360 L171 560 L62 560 L55 360 Z " />
<glyph glyph-name="upsilondieresistonos" unicode="&#x3b0;" horiz-adv-x="1019" d="M406 0 L495 0 L524 170 L1058 560 L923 560 L487 236 L163 560 L40 560 L435 170 L406 0 Z M698 672 L794 672 L811 769 L715 769 L698 672 Z M348 672 L444 672 L461 769 L365 769 L348 672 Z M542 635 L585 635 L650 835 L550 835 L542 635 Z " />
<glyph glyph-name="alpha" unicode="&#x3b1;" horiz-adv-x="1045" d="M869 0 L975 0 L610 560 L515 560 L-49 0 L65 0 L177 112 L796 112 L869 0 Z M553 487 L751 181 L246 181 L553 487 Z " />
<glyph glyph-name="beta" unicode="&#x3b2;" horiz-adv-x="1040" d="M48 0 L725 0 C887 0 938 84 938 172 C938 227 909 273 835 287 C915 315 945 379 945 442 C945 509 904 560 788 560 L147 560 L48 0 Z M751 482 C827 482 849 454 849 414 C849 366 821 314 724 314 L193 314 L222 482 L751 482 Z M745 245 C821 245 843 217 843 177 C843 129 815 77 718 77 L150 77 L180 245 L745 245 Z " />
<glyph glyph-name="gamma" unicode="&#x3b3;" horiz-adv-x="946" d="M48 0 L137 0 L222 482 L930 482 L944 560 L147 560 L48 0 Z " />
<glyph glyph-name="delta" unicode="&#x3b4;" horiz-adv-x="1045" d="M610 560 L515 560 L-49 0 L975 0 L610 560 Z M553 488 L824 77 L138 77 L553 488 Z " />
<glyph glyph-name="epsilon" unicode="&#x3b5;" horiz-adv-x="992" d="M48 0 L861 0 L875 77 L150 77 L179 245 L820 245 L833 314 L193 314 L222 482 L946 482 L960 560 L147 560 L48 0 Z " />
<glyph glyph-name="zeta" unicode="&#x3b6;" horiz-adv-x="983" d="M6 0 L870 0 L884 77 L195 77 L942 499 L950 560 L111 560 L97 482 L759 482 L13 60 L6 0 Z " />
<glyph glyph-name="eta" unicode="&#x3b7;" horiz-adv-x="1081" d="M825 0 L914 0 L1013 560 L924 560 L882 319 L194 319 L236 560 L147 560 L48 0 L137 0 L179 241 L866 241 L825 0 Z " />
<glyph glyph-name="theta" unicode="&#x3b8;" horiz-adv-x="1108" d="M290 245 L782 245 L795 314 L303 314 L290 245 Z M617 -8 C922 -8 1036 152 1038 326 C1039 461 956 568 721 568 L470 568 C165 568 52 408 51 234 C49 99 131 -8 366 -8 L617 -8 Z M381 69 C202 69 144 145 145 240 C145 365 232 490 460 490 L707 490 C886 490 943 414 943 318 C943 196 858 69 628 69 L381 69 Z " />
<glyph glyph-name="iota" unicode="&#x3b9;" horiz-adv-x="304" d="M48 0 L137 0 L236 560 L147 560 L48 0 Z " />
<glyph glyph-name="kappa" unicode="&#x3ba;" horiz-adv-x="1068" d="M1028 560 L864 560 L172 204 L236 560 L147 560 L48 0 L137 0 L156 108 L452 261 L856 0 L999 0 L532 303 L1028 560 Z " />
<glyph glyph-name="lambda" unicode="&#x3bb;" horiz-adv-x="1045" d="M514 560 L-49 0 L67 0 L552 487 L866 0 L975 0 L609 560 L514 560 Z " />
<glyph glyph-name="mu" unicode="&#x3bc;" horiz-adv-x="1200" d="M1040 560 L559 138 L226 560 L147 560 L48 0 L136 0 L215 441 L543 21 L1021 441 L943 0 L1032 0 L1131 560 L1040 560 Z " />
<glyph glyph-name="nu" unicode="&#x3bd;" horiz-adv-x="1082" d="M914 0 L1013 560 L924 560 L842 94 L231 560 L147 560 L48 0 L137 0 L219 466 L830 0 L914 0 Z " />
<glyph glyph-name="xi" unicode="&#x3be;" horiz-adv-x="994" d="M96 482 L950 482 L964 560 L110 560 L96 482 Z M878 77 L24 77 L11 0 L865 0 L878 77 Z M129 245 L831 245 L845 314 L142 314 L129 245 Z " />
<glyph glyph-name="omicron" unicode="&#x3bf;" horiz-adv-x="1108" d="M617 -8 C922 -8 1036 152 1038 326 C1039 461 956 568 721 568 L470 568 C165 568 52 408 51 234 C49 99 131 -8 366 -8 L617 -8 Z M381 69 C202 69 144 145 145 240 C145 365 232 490 460 490 L707 490 C886 490 943 414 943 318 C943 196 858 69 628 69 L381 69 Z " />
<glyph glyph-name="pi" unicode="&#x3c0;" horiz-adv-x="1081" d="M825 0 L914 0 L1013 560 L147 560 L48 0 L137 0 L222 482 L910 482 L825 0 Z " />
<glyph glyph-name="rho" unicode="&#x3c1;" horiz-adv-x="998" d="M48 0 L137 0 L173 209 L712 209 C905 209 969 308 969 412 C969 494 918 560 775 560 L147 560 L48 0 Z M759 482 C848 482 875 447 875 401 C875 344 840 287 724 287 L188 287 L222 482 L759 482 Z " />
<glyph glyph-name="uni03C2" unicode="&#x3c2;" horiz-adv-x="969" d="M97 495 L450 281 L21 64 L10 0 L839 0 L853 77 L205 77 L603 278 L273 482 L924 482 L938 560 L109 560 L97 495 Z " />
<glyph glyph-name="sigma" unicode="&#x3c3;" horiz-adv-x="969" d="M97 495 L450 281 L21 64 L10 0 L839 0 L853 77 L205 77 L603 278 L273 482 L924 482 L938 560 L109 560 L97 495 Z " />
<glyph glyph-name="tau" unicode="&#x3c4;" horiz-adv-x="998" d="M67 482 L480 482 L395 0 L484 0 L569 482 L983 482 L997 560 L81 560 L67 482 Z " />
<glyph glyph-name="upsilon" unicode="&#x3c5;" horiz-adv-x="1019" d="M406 0 L495 0 L524 170 L1058 560 L923 560 L487 236 L163 560 L40 560 L435 170 L406 0 Z " />
<glyph glyph-name="phi" unicode="&#x3c6;" horiz-adv-x="1083" d="M686 50 C938 50 1024 177 1024 318 C1024 424 955 510 767 510 L617 510 L633 600 L544 600 L528 510 L379 510 C129 510 41 379 41 240 C41 132 109 50 297 50 L446 50 L429 -40 L518 -40 L535 50 L686 50 Z M755 432 C887 432 928 378 928 308 C928 215 867 127 695 127 L549 127 L603 432 L755 432 Z M308 127 C177 127 136 182 136 252 C136 344 197 432 369 432 L514 432 L461 127 L308 127 Z " />
<glyph glyph-name="chi" unicode="&#x3c7;" horiz-adv-x="1021" d="M70 560 L433 282 L-33 0 L115 0 L498 234 L799 0 L935 0 L567 282 L1031 560 L882 560 L504 328 L206 560 L70 560 Z " />
<glyph glyph-name="psi" unicode="&#x3c8;" horiz-adv-x="1069" d="M430 0 L519 0 L539 116 L643 116 C900 116 992 219 1020 374 L1052 560 L963 560 L932 381 C912 268 858 194 657 194 L554 194 L618 560 L529 560 L465 194 L363 194 C166 194 134 271 153 381 L184 560 L96 560 L65 381 C38 227 92 116 350 116 L450 116 L430 0 Z " />
<glyph glyph-name="omega" unicode="&#x3c9;" horiz-adv-x="1121" d="M634 0 L998 0 L1012 77 L829 77 C974 137 1034 245 1034 357 C1034 475 959 568 750 568 L452 568 C177 568 81 423 81 270 C81 192 120 116 208 77 L18 77 L4 0 L367 0 L379 65 C217 89 164 172 164 262 C164 376 245 490 459 490 L723 490 C892 490 944 419 944 330 C944 211 865 103 647 65 L634 0 Z " />
<glyph glyph-name="iotadieresis" unicode="&#x3ca;" horiz-adv-x="304" d="M48 0 L137 0 L236 560 L147 560 L48 0 Z M289 670 L387 670 L404 769 L306 769 L289 670 Z M30 670 L128 670 L145 769 L47 769 L30 670 Z " />
<glyph glyph-name="upsilondieresis" unicode="&#x3cb;" horiz-adv-x="1019" d="M406 0 L495 0 L524 170 L1058 560 L923 560 L487 236 L163 560 L40 560 L435 170 L406 0 Z M649 670 L747 670 L764 769 L666 769 L649 670 Z M390 670 L488 670 L505 769 L407 769 L390 670 Z " />
<glyph glyph-name="omicrontonos" unicode="&#x3cc;" horiz-adv-x="1243" d="M752 -8 C1057 -8 1171 152 1173 326 C1174 461 1091 568 856 568 L605 568 C300 568 187 408 186 234 C184 99 266 -8 501 -8 L752 -8 Z M516 69 C337 69 279 145 280 240 C280 365 367 490 595 490 L842 490 C1021 490 1078 414 1078 318 C1078 196 993 69 763 69 L516 69 Z M55 360 L106 360 L171 560 L62 560 L55 360 Z " />
<glyph glyph-name="upsilontonos" unicode="&#x3cd;" horiz-adv-x="1192" d="M579 0 L668 0 L697 170 L1231 560 L1096 560 L660 236 L336 560 L213 560 L608 170 L579 0 Z M55 360 L106 360 L171 560 L62 560 L55 360 Z " />
<glyph glyph-name="omegatonos" unicode="&#x3ce;" horiz-adv-x="1238" d="M751 0 L1115 0 L1129 77 L946 77 C1091 137 1151 245 1151 357 C1151 475 1076 568 867 568 L569 568 C294 568 198 423 198 270 C198 192 237 116 325 77 L135 77 L121 0 L484 0 L496 65 C334 89 281 172 281 262 C281 376 362 490 576 490 L840 490 C1009 490 1061 419 1061 330 C1061 211 982 103 764 65 L751 0 Z M55 360 L106 360 L171 560 L62 560 L55 360 Z " />
<glyph glyph-name="uni0400" unicode="&#x400;" horiz-adv-x="1150" d="M58 0 L1014 0 L1030 90 L173 90 L210 309 L969 309 L985 391 L226 391 L264 610 L1121 610 L1139 700 L183 700 L58 0 Z M661 946 L551 946 L671 775 L732 775 L661 946 Z " />
<glyph glyph-name="uni0401" unicode="&#x401;" horiz-adv-x="1150" d="M58 0 L1014 0 L1030 90 L173 90 L210 309 L969 309 L985 391 L226 391 L264 610 L1121 610 L1139 700 L183 700 L58 0 Z M747 810 L845 810 L862 909 L764 909 L747 810 Z M488 810 L586 810 L603 909 L505 909 L488 810 Z " />
<glyph glyph-name="uni0402" unicode="&#x402;" horiz-adv-x="1299" d="M655 0 L968 0 C1168 0 1247 106 1247 226 C1247 319 1189 391 1037 391 L436 391 L474 610 L966 610 L983 700 L95 700 L78 610 L375 610 L267 -1 L366 -1 L421 309 L1020 309 C1113 309 1142 268 1142 217 C1142 150 1098 90 980 90 L672 90 L655 0 Z " />
<glyph glyph-name="uni0403" unicode="&#x403;" horiz-adv-x="1083" d="M58 0 L157 0 L264 610 L1102 610 L1120 700 L183 700 L58 0 Z M583 775 L651 775 L834 946 L715 946 L583 775 Z " />
<glyph glyph-name="uni0404" unicode="&#x404;" horiz-adv-x="1136" d="M173 308 L173 309 L955 309 L971 391 L183 391 C213 508 315 610 545 610 L1107 610 L1124 700 L552 700 C206 700 67 507 67 296 C67 130 168 0 436 0 L999 0 L1014 90 L452 90 C242 90 173 185 173 308 L173 308 Z " />
<glyph glyph-name="uni0405" unicode="&#x405;" horiz-adv-x="1158" d="M801 90 L65 90 L48 0 L788 0 C987 0 1068 104 1068 226 C1068 319 1010 391 857 391 L324 391 C230 391 201 431 201 482 C201 549 245 610 363 610 L1099 610 L1116 700 L376 700 C177 700 96 595 96 473 C96 380 154 309 306 309 L840 309 C934 309 963 268 963 217 C963 150 919 90 801 90 L801 90 Z " />
<glyph glyph-name="uni0406" unicode="&#x406;" horiz-adv-x="334" d="M58 0 L157 0 L282 700 L183 700 L58 0 Z " />
<glyph glyph-name="uni0407" unicode="&#x407;" horiz-adv-x="334" d="M58 0 L157 0 L282 700 L183 700 L58 0 Z M328 810 L426 810 L443 909 L345 909 L328 810 Z M69 810 L167 810 L184 909 L86 909 L69 810 Z " />
<glyph glyph-name="uni0408" unicode="&#x408;" horiz-adv-x="1181" d="M307 -5 L623 -5 C915 -5 1024 112 1059 306 L1129 700 L1030 700 L962 326 C935 175 850 85 636 85 L325 85 C147 85 105 167 127 273 L137 324 L39 324 L29 275 C-1 123 65 -5 307 -5 L307 -5 Z " />
<glyph glyph-name="uni0409" unicode="&#x409;" horiz-adv-x="1787" d="M804 0 L1431 0 C1652 0 1740 113 1740 251 C1740 353 1679 435 1509 435 L982 435 L1028 700 L360 700 L204 201 C183 136 140 90 46 90 L-15 90 L-31 0 L29 0 C197 0 266 83 296 181 L430 610 L913 610 L804 0 Z M1444 90 L920 90 L965 345 L1490 345 C1600 345 1635 297 1635 237 C1635 159 1582 90 1444 90 L1444 90 Z " />
<glyph glyph-name="uni040A" unicode="&#x40a;" horiz-adv-x="1800" d="M817 0 L1445 0 C1665 0 1753 114 1753 252 C1753 354 1692 435 1523 435 L995 435 L1042 700 L943 700 L896 435 L235 435 L282 700 L183 700 L58 0 L157 0 L218 345 L880 345 L817 0 Z M979 345 L1503 345 C1614 345 1649 298 1649 238 C1649 160 1595 90 1457 90 L933 90 L979 345 Z " />
<glyph glyph-name="uni040B" unicode="&#x40b;" horiz-adv-x="1328" d="M1208 -1 L1241 187 C1261 301 1225 389 1048 389 L435 389 L473 610 L966 610 L983 700 L95 700 L77 610 L374 610 L266 -1 L365 -1 L418 298 L1032 298 C1135 298 1154 251 1141 181 L1109 -1 L1208 -1 Z " />
<glyph glyph-name="uni040C" unicode="&#x40c;" horiz-adv-x="1237" d="M557 775 L625 775 L808 946 L689 946 L557 775 Z M649 353 L1213 700 L1051 700 L560 395 L227 395 L282 700 L183 700 L58 0 L157 0 L209 305 L558 305 L1016 0 L1173 0 L649 353 Z " />
<glyph glyph-name="uni040D" unicode="&#x40d;" horiz-adv-x="1253" d="M702 946 L592 946 L712 775 L773 775 L702 946 Z M1080 584 L976 0 L1075 0 L1200 700 L1103 700 L177 116 L282 700 L183 700 L58 0 L155 0 L1080 584 Z " />
<glyph glyph-name="uni040E" unicode="&#x40e;" horiz-adv-x="1201" d="M699 848 C623 848 601 888 606 936 L553 936 C544 864 565 784 689 784 C812 784 862 862 880 936 L824 936 C811 888 774 848 699 848 L699 848 Z M376 0 L1269 700 L1120 700 L594 279 L204 700 L68 700 L519 222 L227 0 L376 0 Z " />
<glyph glyph-name="uni040F" unicode="&#x40f;" horiz-adv-x="1252" d="M992 90 L173 90 L282 700 L183 700 L58 0 L517 0 L489 -150 L588 -150 L616 0 L1075 0 L1200 700 L1101 700 L992 90 Z " />
<glyph glyph-name="uni0410" unicode="&#x410;" horiz-adv-x="1222" d="M1037 0 L1153 0 L729 700 L624 700 L-50 0 L76 0 L205 135 L955 135 L1037 0 Z M665 616 L906 217 L283 217 L665 616 Z " />
<glyph glyph-name="uni0411" unicode="&#x411;" horiz-adv-x="1186" d="M58 0 L817 0 C1015 0 1096 104 1096 226 C1096 319 1038 391 886 391 L226 391 L265 610 L1103 610 L1120 700 L183 700 L58 0 Z M212 309 L869 309 C962 309 991 268 991 217 C991 150 947 90 829 90 L174 90 L212 309 Z " />
<glyph glyph-name="uni0412" unicode="&#x412;" horiz-adv-x="1208" d="M58 0 L848 0 C1034 0 1107 103 1107 215 C1107 284 1070 341 983 359 C1077 393 1120 465 1120 555 C1120 636 1066 700 929 700 L183 700 L58 0 Z M877 309 C973 309 1004 268 1004 218 C1004 153 958 90 840 90 L173 90 L211 309 L877 309 Z M1013 519 C1013 458 971 391 853 391 L226 391 L265 610 L887 610 C981 610 1013 570 1013 519 L1013 519 Z " />
<glyph glyph-name="uni0413" unicode="&#x413;" horiz-adv-x="1083" d="M58 0 L157 0 L264 610 L1102 610 L1120 700 L183 700 L58 0 Z " />
<glyph glyph-name="uni0414" unicode="&#x414;" horiz-adv-x="1200" d="M68 0 L978 0 L950 -150 L1049 -150 L1093 90 L1009 90 L1119 700 L360 700 L204 201 C183 134 146 90 50 90 L-15 90 L-58 -150 L41 -150 L68 0 Z M429 610 L1003 610 L910 90 L208 90 C261 114 291 160 307 213 L429 610 Z " />
<glyph glyph-name="uni0415" unicode="&#x415;" horiz-adv-x="1150" d="M58 0 L1014 0 L1030 90 L173 90 L210 309 L969 309 L985 391 L226 391 L264 610 L1121 610 L1139 700 L183 700 L58 0 Z " />
<glyph glyph-name="uni0416" unicode="&#x416;" horiz-adv-x="1561" d="M1087 351 L1554 700 L1411 700 L1003 395 L840 395 L895 700 L796 700 L741 395 L568 395 L269 700 L139 700 L481 351 L-40 0 L113 0 L564 305 L724 305 L671 0 L770 0 L823 305 L997 305 L1342 0 L1483 0 L1087 351 Z " />
<glyph glyph-name="uni0417" unicode="&#x417;" horiz-adv-x="1217" d="M7 0 L858 0 C1043 0 1116 103 1116 215 C1116 284 1079 341 992 359 C1085 393 1129 465 1129 555 C1129 636 1075 700 938 700 L152 700 L135 610 L896 610 C991 610 1022 571 1022 519 C1022 458 979 391 863 391 L180 391 L164 309 L887 309 C982 309 1013 268 1013 218 C1013 152 968 90 849 90 L23 90 L7 0 Z " />
<glyph glyph-name="uni0418" unicode="&#x418;" horiz-adv-x="1253" d="M1080 584 L976 0 L1075 0 L1200 700 L1103 700 L177 116 L282 700 L183 700 L58 0 L155 0 L1080 584 Z " />
<glyph glyph-name="uni0419" unicode="&#x419;" horiz-adv-x="1253" d="M713 848 C637 848 615 888 620 936 L567 936 C558 864 579 784 703 784 C826 784 876 862 894 936 L838 936 C825 888 788 848 713 848 L713 848 Z M1080 584 L976 0 L1075 0 L1200 700 L1103 700 L177 116 L282 700 L183 700 L58 0 L155 0 L1080 584 Z " />
<glyph glyph-name="uni041A" unicode="&#x41a;" horiz-adv-x="1237" d="M649 353 L1213 700 L1051 700 L560 395 L227 395 L282 700 L183 700 L58 0 L157 0 L209 305 L558 305 L1016 0 L1173 0 L649 353 Z " />
<glyph glyph-name="uni041B" unicode="&#x41b;" horiz-adv-x="1207" d="M360 700 L204 201 C183 136 140 90 46 90 L-15 90 L-31 0 L29 0 C197 0 266 83 296 181 L429 610 L1038 610 L930 0 L1029 0 L1154 700 L360 700 Z " />
<glyph glyph-name="uni041C" unicode="&#x41c;" horiz-adv-x="1392" d="M1238 700 L658 162 L271 700 L183 700 L58 0 L156 0 L255 563 L640 28 L1213 563 L1115 0 L1214 0 L1339 700 L1238 700 Z " />
<glyph glyph-name="uni041D" unicode="&#x41d;" horiz-adv-x="1252" d="M976 0 L1075 0 L1200 700 L1101 700 L1046 395 L227 395 L282 700 L183 700 L58 0 L157 0 L209 305 L1029 305 L976 0 Z " />
<glyph glyph-name="uni041E" unicode="&#x41e;" horiz-adv-x="1293" d="M730 -10 C1093 -10 1230 186 1230 410 C1230 579 1123 710 852 710 L568 710 C208 710 67 517 67 294 C67 122 175 -10 447 -10 L730 -10 Z M466 80 C247 80 173 178 173 306 C173 462 269 620 564 620 L832 620 C1049 620 1124 523 1124 397 C1124 236 1028 80 735 80 L466 80 Z " />
<glyph glyph-name="uni041F" unicode="&#x41f;" horiz-adv-x="1252" d="M976 0 L1075 0 L1200 700 L183 700 L58 0 L157 0 L264 610 L1083 610 L976 0 Z " />
<glyph glyph-name="uni0420" unicode="&#x420;" horiz-adv-x="1147" d="M58 0 L157 0 L204 265 L838 265 C1059 265 1147 378 1147 516 C1147 618 1086 700 916 700 L183 700 L58 0 Z M897 610 C1007 610 1042 562 1042 502 C1042 424 989 355 851 355 L220 355 L265 610 L897 610 Z " />
<glyph glyph-name="uni0421" unicode="&#x421;" horiz-adv-x="1136" d="M173 308 C173 456 262 610 545 610 L1107 610 L1124 700 L552 700 C206 700 67 507 67 296 C67 130 168 0 436 0 L999 0 L1014 90 L452 90 C242 90 173 185 173 308 L173 308 Z " />
<glyph glyph-name="uni0422" unicode="&#x422;" horiz-adv-x="1136" d="M77 610 L567 610 L458 0 L557 0 L666 610 L1155 610 L1172 700 L95 700 L77 610 Z " />
<glyph glyph-name="uni0423" unicode="&#x423;" horiz-adv-x="1201" d="M376 0 L1269 700 L1120 700 L594 279 L204 700 L68 700 L519 222 L227 0 L376 0 Z " />
<glyph glyph-name="uni0424" unicode="&#x424;" horiz-adv-x="1252" d="M801 62 C1096 62 1207 219 1207 397 C1207 529 1119 638 902 638 L729 638 L749 750 L650 750 L630 638 L456 638 C163 638 51 477 51 301 C51 167 139 62 356 62 L527 62 L507 -50 L606 -50 L626 62 L801 62 Z M888 548 C1049 548 1101 474 1101 381 C1101 261 1011 152 806 152 L643 152 L713 548 L888 548 Z M158 317 C158 436 248 548 452 548 L614 548 L544 152 L370 152 C209 152 158 223 158 317 L158 317 Z " />
<glyph glyph-name="uni0425" unicode="&#x425;" horiz-adv-x="1178" d="M91 700 L517 351 L-39 0 L125 0 L588 299 L946 0 L1099 0 L668 351 L1219 700 L1054 700 L595 403 L243 700 L91 700 Z " />
<glyph glyph-name="uni0426" unicode="&#x426;" horiz-adv-x="1245" d="M957 90 L173 90 L282 700 L183 700 L58 0 L1023 0 L995 -150 L1094 -150 L1138 90 L1056 90 L1165 700 L1066 700 L957 90 Z " />
<glyph glyph-name="uni0427" unicode="&#x427;" horiz-adv-x="1176" d="M125 699 L82 464 C61 349 98 261 275 261 L946 261 L899 -1 L998 -1 L1124 699 L1025 699 L962 352 L291 352 C187 352 169 399 181 468 L224 699 L125 699 Z " />
<glyph glyph-name="uni0428" unicode="&#x428;" horiz-adv-x="1534" d="M1274 90 L772 90 L881 700 L782 700 L673 90 L173 90 L282 700 L183 700 L58 0 L1357 0 L1483 700 L1384 700 L1274 90 Z " />
<glyph glyph-name="uni0429" unicode="&#x429;" horiz-adv-x="1528" d="M1240 90 L755 90 L864 700 L765 700 L656 90 L173 90 L282 700 L183 700 L58 0 L1307 0 L1279 -150 L1378 -150 L1422 90 L1339 90 L1448 700 L1349 700 L1240 90 Z " />
<glyph glyph-name="uni042A" unicode="&#x42a;" horiz-adv-x="1299" d="M267 0 L943 0 C1163 0 1251 113 1251 251 C1251 353 1190 435 1021 435 L444 435 L491 700 L95 700 L78 610 L375 610 L267 0 Z M428 345 L1001 345 C1112 345 1147 297 1147 237 C1147 159 1093 90 955 90 L383 90 L428 345 Z " />
<glyph glyph-name="uni042B" unicode="&#x42b;" horiz-adv-x="1478" d="M1205 0 L1304 0 L1429 700 L1330 700 L1205 0 Z M58 0 L792 0 C1012 0 1100 113 1100 251 C1100 353 1039 435 870 435 L235 435 L282 700 L183 700 L58 0 Z M218 345 L850 345 C961 345 996 297 996 237 C996 159 942 90 804 90 L174 90 L218 345 Z " />
<glyph glyph-name="uni042C" unicode="&#x42c;" horiz-adv-x="1147" d="M58 0 L792 0 C1012 0 1100 113 1100 251 C1100 353 1039 435 870 435 L235 435 L282 700 L183 700 L58 0 Z M218 345 L850 345 C961 345 996 297 996 237 C996 159 942 90 804 90 L174 90 L218 345 Z " />
<glyph glyph-name="uni042D" unicode="&#x42d;" horiz-adv-x="1136" d="M967 392 L967 391 L184 391 L169 309 L957 309 C927 191 825 90 595 90 L32 90 L16 0 L587 0 C933 0 1073 193 1073 404 C1073 570 971 700 703 700 L141 700 L125 610 L687 610 C897 610 967 514 967 392 L967 392 Z " />
<glyph glyph-name="uni042E" unicode="&#x42e;" horiz-adv-x="1803" d="M1240 -10 C1603 -10 1740 186 1740 410 C1740 579 1633 710 1362 710 L1126 710 C821 710 673 572 634 395 L227 395 L282 700 L183 700 L58 0 L157 0 L209 305 L624 305 L624 294 C624 122 732 -10 1004 -10 L1240 -10 Z M1023 80 C804 80 730 178 730 306 C730 462 827 620 1121 620 L1342 620 C1559 620 1634 523 1634 397 C1634 236 1538 80 1245 80 L1023 80 Z " />
<glyph glyph-name="uni042F" unicode="&#x42f;" horiz-adv-x="1226" d="M1175 700 L455 700 C237 700 147 587 147 450 C147 349 209 268 378 268 L439 268 L-55 0 L113 0 L593 266 L998 266 L950 0 L1049 0 L1175 700 Z M251 461 C251 540 304 610 445 610 L1059 610 L1014 353 L396 353 C286 353 251 401 251 461 L251 461 Z " />
<glyph glyph-name="uni0430" unicode="&#x430;" horiz-adv-x="1045" d="M869 0 L975 0 L610 560 L515 560 L-49 0 L65 0 L177 112 L796 112 L869 0 Z M553 487 L751 181 L246 181 L553 487 Z " />
<glyph glyph-name="uni0431" unicode="&#x431;" horiz-adv-x="1019" d="M48 0 L698 0 C873 0 929 89 929 184 C929 258 883 313 754 313 L193 313 L222 482 L931 482 L946 560 L149 560 L48 0 Z M182 246 L738 246 C813 246 836 216 836 177 C836 126 805 77 706 77 L151 77 L182 246 Z " />
<glyph glyph-name="uni0432" unicode="&#x432;" horiz-adv-x="1040" d="M48 0 L725 0 C887 0 938 84 938 172 C938 227 909 273 835 287 C915 315 945 379 945 442 C945 509 904 560 788 560 L147 560 L48 0 Z M751 482 C827 482 849 454 849 414 C849 366 821 314 724 314 L193 314 L222 482 L751 482 Z M745 245 C821 245 843 217 843 177 C843 129 815 77 718 77 L150 77 L180 245 L745 245 Z " />
<glyph glyph-name="uni0433" unicode="&#x433;" horiz-adv-x="946" d="M48 0 L137 0 L222 482 L930 482 L944 560 L147 560 L48 0 Z " />
<glyph glyph-name="uni0434" unicode="&#x434;" horiz-adv-x="1042" d="M71 0 L835 0 L812 -120 L901 -120 L938 77 L867 77 L952 560 L306 560 L178 160 C162 111 132 77 53 77 L-5 77 L-41 -120 L48 -120 L71 0 Z M369 482 L850 482 L778 77 L195 77 C238 98 258 135 272 177 L369 482 Z " />
<glyph glyph-name="uni0435" unicode="&#x435;" horiz-adv-x="992" d="M48 0 L861 0 L875 77 L150 77 L179 245 L820 245 L833 314 L193 314 L222 482 L946 482 L960 560 L147 560 L48 0 Z " />
<glyph glyph-name="uni0436" unicode="&#x436;" horiz-adv-x="1342" d="M925 280 L1313 560 L1190 560 L857 319 L713 319 L754 560 L667 560 L624 319 L479 319 L230 560 L108 560 L396 280 L-36 0 L97 0 L467 241 L609 241 L567 0 L655 0 L697 241 L842 241 L1129 0 L1260 0 L925 280 Z " />
<glyph glyph-name="uni0437" unicode="&#x437;" horiz-adv-x="1043" d="M16 77 L2 0 L730 0 C892 0 943 84 943 172 C943 227 914 273 840 287 C921 315 950 379 950 442 C950 509 909 560 793 560 L120 560 L104 482 L756 482 C833 482 855 454 855 414 C855 366 826 314 730 314 L146 314 L134 245 L750 245 C827 245 849 217 849 177 C849 129 820 77 724 77 L16 77 Z " />
<glyph glyph-name="uni0438" unicode="&#x438;" horiz-adv-x="1082" d="M906 460 L825 0 L914 0 L1013 560 L925 560 L155 100 L236 560 L147 560 L48 0 L136 0 L906 460 Z " />
<glyph glyph-name="uni0439" unicode="&#x439;" horiz-adv-x="1082" d="M603 708 C527 708 505 748 510 796 L457 796 C448 724 469 644 593 644 C716 644 766 722 784 796 L728 796 C715 748 678 708 603 708 L603 708 Z M906 460 L825 0 L914 0 L1013 560 L925 560 L155 100 L236 560 L147 560 L48 0 L136 0 L906 460 Z " />
<glyph glyph-name="uni043A" unicode="&#x43a;" horiz-adv-x="1069" d="M552 282 L1024 560 L877 560 L471 319 L194 319 L236 560 L147 560 L48 0 L137 0 L179 241 L469 241 L851 0 L998 0 L552 282 Z " />
<glyph glyph-name="uni043B" unicode="&#x43b;" horiz-adv-x="1051" d="M982 560 L306 560 L179 162 C162 109 132 77 56 77 L-5 77 L-18 0 L52 0 C184 0 235 62 262 145 L369 482 L879 482 L794 0 L883 0 L982 560 Z " />
<glyph glyph-name="uni043C" unicode="&#x43c;" horiz-adv-x="1200" d="M1040 560 L559 138 L226 560 L147 560 L48 0 L136 0 L215 441 L543 21 L1021 441 L943 0 L1032 0 L1131 560 L1040 560 Z " />
<glyph glyph-name="uni043D" unicode="&#x43d;" horiz-adv-x="1081" d="M825 0 L914 0 L1013 560 L924 560 L882 319 L194 319 L236 560 L147 560 L48 0 L137 0 L179 241 L866 241 L825 0 Z " />
<glyph glyph-name="uni043E" unicode="&#x43e;" horiz-adv-x="1108" d="M617 -8 C922 -8 1036 152 1038 326 C1039 461 956 568 721 568 L470 568 C165 568 52 408 51 234 C49 99 131 -8 366 -8 L617 -8 Z M381 69 C202 69 144 145 145 240 C145 365 232 490 460 490 L707 490 C886 490 943 414 943 318 C943 196 858 69 628 69 L381 69 Z " />
<glyph glyph-name="uni043F" unicode="&#x43f;" horiz-adv-x="1081" d="M825 0 L914 0 L1013 560 L147 560 L48 0 L137 0 L222 482 L910 482 L825 0 Z " />
<glyph glyph-name="uni0440" unicode="&#x440;" horiz-adv-x="998" d="M48 0 L137 0 L173 209 L712 209 C905 209 969 308 969 412 C969 494 918 560 775 560 L147 560 L48 0 Z M759 482 C848 482 875 447 875 401 C875 344 840 287 724 287 L188 287 L222 482 L759 482 Z " />
<glyph glyph-name="uni0441" unicode="&#x441;" horiz-adv-x="974" d="M146 242 C146 364 232 482 454 482 L931 482 L946 560 L459 560 C158 560 51 400 51 232 C51 102 133 0 358 0 L845 0 L859 77 L367 77 C201 77 146 146 146 242 L146 242 Z " />
<glyph glyph-name="uni0442" unicode="&#x442;" horiz-adv-x="998" d="M67 482 L480 482 L395 0 L484 0 L569 482 L983 482 L997 560 L81 560 L67 482 Z " />
<glyph glyph-name="uni0443" unicode="&#x443;" horiz-adv-x="1023" d="M315 0 L1064 560 L930 560 L496 230 L164 560 L42 560 L428 179 L181 0 L315 0 Z " />
<glyph glyph-name="uni0444" unicode="&#x444;" horiz-adv-x="1083" d="M686 50 C938 50 1024 177 1024 318 C1024 424 955 510 767 510 L617 510 L633 600 L544 600 L528 510 L379 510 C129 510 41 379 41 240 C41 132 109 50 297 50 L446 50 L429 -40 L518 -40 L535 50 L686 50 Z M755 432 C887 432 928 378 928 308 C928 215 867 127 695 127 L549 127 L603 432 L755 432 Z M308 127 C177 127 136 182 136 252 C136 344 197 432 369 432 L514 432 L461 127 L308 127 Z " />
<glyph glyph-name="uni0445" unicode="&#x445;" horiz-adv-x="1021" d="M70 560 L433 282 L-33 0 L115 0 L498 234 L799 0 L935 0 L567 282 L1031 560 L882 560 L504 328 L206 560 L70 560 Z " />
<glyph glyph-name="uni0446" unicode="&#x446;" horiz-adv-x="1072" d="M808 77 L150 77 L236 560 L147 560 L48 0 L865 0 L842 -120 L931 -120 L968 77 L897 77 L982 560 L893 560 L808 77 Z " />
<glyph glyph-name="uni0447" unicode="&#x447;" horiz-adv-x="1015" d="M217 206 L794 206 L757 -1 L846 -1 L946 559 L857 559 L808 284 L232 284 C155 284 143 319 153 373 L185 559 L96 559 L62 367 C46 275 73 206 217 206 L217 206 Z " />
<glyph glyph-name="uni0448" unicode="&#x448;" horiz-adv-x="1321" d="M1079 77 L658 77 L744 560 L655 560 L569 77 L150 77 L236 560 L147 560 L48 0 L1154 0 L1253 560 L1164 560 L1079 77 Z " />
<glyph glyph-name="uni0449" unicode="&#x449;" horiz-adv-x="1313" d="M1049 77 L644 77 L729 560 L640 560 L555 77 L150 77 L236 560 L147 560 L48 0 L1106 0 L1083 -120 L1172 -120 L1209 77 L1138 77 L1223 560 L1134 560 L1049 77 Z " />
<glyph glyph-name="uni044A" unicode="&#x44a;" horiz-adv-x="1136" d="M422 560 L81 560 L67 482 L320 482 L234 0 L812 0 C1005 0 1069 99 1069 203 C1069 285 1018 351 875 351 L385 351 L422 560 Z M824 77 L336 77 L371 273 L859 273 C948 273 975 238 975 191 C975 134 940 77 824 77 L824 77 Z " />
<glyph glyph-name="uni044B" unicode="&#x44b;" horiz-adv-x="1300" d="M1046 0 L1135 0 L1234 560 L1145 560 L1046 0 Z M236 560 L147 560 L48 0 L675 0 C868 0 932 99 932 203 C932 285 881 351 738 351 L199 351 L236 560 Z M185 273 L722 273 C811 273 838 238 838 191 C838 134 803 77 687 77 L150 77 L185 273 Z " />
<glyph glyph-name="uni044C" unicode="&#x44c;" horiz-adv-x="998" d="M236 560 L147 560 L48 0 L675 0 C868 0 932 99 932 203 C932 285 881 351 738 351 L199 351 L236 560 Z M185 273 L722 273 C811 273 838 238 838 191 C838 134 803 77 687 77 L150 77 L185 273 Z " />
<glyph glyph-name="uni044D" unicode="&#x44d;" horiz-adv-x="975" d="M809 318 L809 315 L152 315 L138 246 L798 246 C769 153 678 78 501 78 L24 78 L9 0 L496 0 C797 0 904 160 904 328 C904 458 822 560 597 560 L110 560 L96 483 L588 483 C754 483 809 414 809 318 L809 318 Z " />
<glyph glyph-name="uni044E" unicode="&#x44e;" horiz-adv-x="1546" d="M1055 -8 C1360 -8 1476 152 1476 326 C1476 461 1394 568 1159 568 L948 568 C693 568 572 457 539 319 L194 319 L236 560 L147 560 L48 0 L137 0 L179 241 L529 241 L529 234 C529 99 609 -8 844 -8 L1055 -8 Z M859 69 C680 69 622 145 623 240 C623 365 710 490 938 490 L1145 490 C1324 490 1381 414 1381 318 C1381 196 1296 69 1066 69 L859 69 Z " />
<glyph glyph-name="uni044F" unicode="&#x44f;" horiz-adv-x="1061" d="M994 560 L376 560 C183 560 119 461 119 355 C119 274 177 211 314 211 L362 211 L-46 0 L107 0 L505 210 L841 210 L804 0 L893 0 L994 560 Z M890 482 L855 285 L330 285 C240 285 213 322 213 367 C213 424 249 482 366 482 L890 482 Z " />
<glyph glyph-name="uni0450" unicode="&#x450;" horiz-adv-x="992" d="M48 0 L861 0 L875 77 L150 77 L179 245 L820 245 L833 314 L193 314 L222 482 L946 482 L960 560 L147 560 L48 0 Z M559 806 L449 806 L569 635 L630 635 L559 806 Z " />
<glyph glyph-name="uni0451" unicode="&#x451;" horiz-adv-x="992" d="M48 0 L861 0 L875 77 L150 77 L179 245 L820 245 L833 314 L193 314 L222 482 L946 482 L960 560 L147 560 L48 0 Z M645 670 L743 670 L760 769 L662 769 L645 670 Z M386 670 L484 670 L501 769 L403 769 L386 670 Z " />
<glyph glyph-name="uni0452" unicode="&#x452;" horiz-adv-x="1136" d="M565 0 L835 0 C1010 0 1066 89 1066 184 C1066 258 1020 313 891 313 L379 313 L409 482 L823 482 L838 560 L83 560 L67 482 L320 482 L234 -1 L323 -1 L368 246 L875 246 C950 246 973 216 973 177 C973 126 942 77 843 77 L580 77 L565 0 Z " />
<glyph glyph-name="uni0453" unicode="&#x453;" horiz-adv-x="946" d="M48 0 L137 0 L222 482 L930 482 L944 560 L147 560 L48 0 Z M487 635 L555 635 L738 806 L619 806 L487 635 Z " />
<glyph glyph-name="uni0454" unicode="&#x454;" horiz-adv-x="975" d="M146 242 L146 245 L803 245 L817 314 L156 314 C185 406 276 482 454 482 L931 482 L946 560 L459 560 C158 560 51 400 51 232 C51 102 133 0 358 0 L845 0 L859 77 L367 77 C201 77 146 146 146 242 L146 242 Z " />
<glyph glyph-name="uni0455" unicode="&#x455;" horiz-adv-x="991" d="M676 77 L49 77 L35 0 L668 0 C844 0 900 89 900 184 C900 258 853 313 725 313 L262 313 C187 313 164 344 164 382 C164 434 195 482 295 482 L922 482 L937 560 L303 560 C127 560 71 471 71 376 C71 302 118 246 246 246 L708 246 C784 246 807 216 807 177 C807 126 776 77 676 77 L676 77 Z " />
<glyph glyph-name="uni0456" unicode="&#x456;" horiz-adv-x="304" d="M48 0 L137 0 L236 560 L147 560 L48 0 Z " />
<glyph glyph-name="uni0457" unicode="&#x457;" horiz-adv-x="304" d="M48 0 L137 0 L236 560 L147 560 L48 0 Z M289 670 L387 670 L404 769 L306 769 L289 670 Z M30 670 L128 670 L145 769 L47 769 L30 670 Z " />
<glyph glyph-name="uni0458" unicode="&#x458;" horiz-adv-x="1000" d="M254 -4 L538 -4 C776 -4 867 88 895 245 L951 560 L862 560 L808 261 C787 142 726 73 545 73 L260 73 C120 73 91 136 106 218 L114 260 L26 260 L19 220 C-4 98 46 -4 254 -4 L254 -4 Z " />
<glyph glyph-name="uni0459" unicode="&#x459;" horiz-adv-x="1550" d="M877 560 L306 560 L179 162 C162 109 132 77 56 77 L-5 77 L-18 0 L52 0 C184 0 235 62 262 145 L369 482 L774 482 L689 0 L1227 0 C1420 0 1484 99 1484 203 C1484 285 1433 351 1290 351 L840 351 L877 560 Z M1239 77 L792 77 L827 273 L1274 273 C1363 273 1390 238 1390 191 C1390 134 1355 77 1239 77 L1239 77 Z " />
<glyph glyph-name="uni045A" unicode="&#x45a;" horiz-adv-x="1553" d="M880 560 L791 560 L754 351 L199 351 L236 560 L147 560 L48 0 L137 0 L185 273 L741 273 L692 0 L1230 0 C1423 0 1487 99 1487 203 C1487 285 1436 351 1293 351 L843 351 L880 560 Z M1242 77 L795 77 L829 273 L1277 273 C1366 273 1393 238 1393 191 C1393 134 1358 77 1242 77 L1242 77 Z " />
<glyph glyph-name="uni045B" unicode="&#x45b;" horiz-adv-x="1152" d="M892 235 C969 235 982 200 972 146 L946 -1 L1035 -1 L1062 152 C1079 244 1051 313 908 313 L379 313 L408 482 L822 482 L836 560 L81 560 L67 482 L320 482 L233 -1 L322 -1 L364 236 L892 235 Z " />
<glyph glyph-name="uni045C" unicode="&#x45c;" horiz-adv-x="1069" d="M452 635 L520 635 L703 806 L584 806 L452 635 Z M552 282 L1024 560 L877 560 L471 319 L194 319 L236 560 L147 560 L48 0 L137 0 L179 241 L469 241 L851 0 L998 0 L552 282 Z " />
<glyph glyph-name="uni045D" unicode="&#x45d;" horiz-adv-x="1082" d="M593 806 L483 806 L603 635 L664 635 L593 806 Z M906 460 L825 0 L914 0 L1013 560 L925 560 L155 100 L236 560 L147 560 L48 0 L136 0 L906 460 Z " />
<glyph glyph-name="uni045E" unicode="&#x45e;" horiz-adv-x="1023" d="M584 708 C508 708 486 748 491 796 L438 796 C429 724 450 644 574 644 C697 644 747 722 765 796 L709 796 C696 748 659 708 584 708 L584 708 Z M315 0 L1064 560 L930 560 L496 230 L164 560 L42 560 L428 179 L181 0 L315 0 Z " />
<glyph glyph-name="uni045F" unicode="&#x45f;" horiz-adv-x="1081" d="M838 77 L150 77 L236 560 L147 560 L48 0 L437 0 L413 -120 L502 -120 L525 0 L914 0 L1013 560 L924 560 L838 77 Z " />
<glyph glyph-name="uni0490" unicode="&#x490;" horiz-adv-x="1083" d="M1021 700 L183 700 L58 0 L157 0 L264 610 L1102 610 L1146 850 L1047 850 L1021 700 Z " />
<glyph glyph-name="uni0491" unicode="&#x491;" horiz-adv-x="946" d="M855 560 L147 560 L48 0 L137 0 L222 482 L930 482 L965 680 L876 680 L855 560 Z " />
<glyph glyph-name="uni1E00" unicode="&#x1e00;" horiz-adv-x="1222" d="M1037 0 L1153 0 L729 700 L624 700 L-50 0 L76 0 L205 135 L955 135 L1037 0 Z M665 616 L906 217 L283 217 L665 616 Z M460 -165 C460 -129 492 -100 528 -100 C559 -100 582 -124 582 -155 C582 -192 550 -221 515 -221 C483 -221 460 -197 460 -165 L460 -165 Z M402 -170 C401 -227 444 -272 509 -272 C581 -272 640 -217 640 -150 C640 -93 597 -49 532 -49 C460 -49 402 -102 402 -170 L402 -170 Z " />
<glyph glyph-name="uni1E01" unicode="&#x1e01;" horiz-adv-x="1045" d="M869 0 L975 0 L610 560 L515 560 L-49 0 L65 0 L177 112 L796 112 L869 0 Z M553 487 L751 181 L246 181 L553 487 Z M371 -165 C371 -129 403 -100 439 -100 C470 -100 493 -124 493 -155 C493 -192 461 -221 426 -221 C394 -221 371 -197 371 -165 L371 -165 Z M313 -170 C312 -227 355 -272 420 -272 C492 -272 551 -217 551 -150 C551 -93 508 -49 443 -49 C371 -49 313 -102 313 -170 L313 -170 Z " />
<glyph glyph-name="uni1E02" unicode="&#x1e02;" horiz-adv-x="1208" d="M58 0 L848 0 C1034 0 1107 103 1107 215 C1107 284 1070 341 983 359 C1077 393 1120 465 1120 555 C1120 636 1066 700 929 700 L183 700 L58 0 Z M877 309 C973 309 1004 268 1004 218 C1004 153 958 90 840 90 L173 90 L211 309 L877 309 Z M1013 519 C1013 458 971 391 853 391 L226 391 L265 610 L887 610 C981 610 1013 570 1013 519 L1013 519 Z M614 810 L711 810 L728 909 L631 909 L614 810 Z " />
<glyph glyph-name="uni1E03" unicode="&#x1e03;" horiz-adv-x="1040" d="M48 0 L725 0 C887 0 938 84 938 172 C938 227 909 273 835 287 C915 315 945 379 945 442 C945 509 904 560 788 560 L147 560 L48 0 Z M751 482 C827 482 849 454 849 414 C849 366 821 314 724 314 L193 314 L222 482 L751 482 Z M745 245 C821 245 843 217 843 177 C843 129 815 77 718 77 L150 77 L180 245 L745 245 Z M506 670 L603 670 L620 769 L523 769 L506 670 Z " />
<glyph glyph-name="uni1E04" unicode="&#x1e04;" horiz-adv-x="1208" d="M58 0 L848 0 C1034 0 1107 103 1107 215 C1107 284 1070 341 983 359 C1077 393 1120 465 1120 555 C1120 636 1066 700 929 700 L183 700 L58 0 Z M877 309 C973 309 1004 268 1004 218 C1004 153 958 90 840 90 L173 90 L211 309 L877 309 Z M1013 519 C1013 458 971 391 853 391 L226 391 L265 610 L887 610 C981 610 1013 570 1013 519 L1013 519 Z M473 -211 L570 -211 L587 -112 L490 -112 L473 -211 Z " />
<glyph glyph-name="uni1E05" unicode="&#x1e05;" horiz-adv-x="1040" d="M48 0 L725 0 C887 0 938 84 938 172 C938 227 909 273 835 287 C915 315 945 379 945 442 C945 509 904 560 788 560 L147 560 L48 0 Z M751 482 C827 482 849 454 849 414 C849 366 821 314 724 314 L193 314 L222 482 L751 482 Z M745 245 C821 245 843 217 843 177 C843 129 815 77 718 77 L150 77 L180 245 L745 245 Z M388 -211 L485 -211 L502 -112 L405 -112 L388 -211 Z " />
<glyph glyph-name="uni1E06" unicode="&#x1e06;" horiz-adv-x="1208" d="M58 0 L848 0 C1034 0 1107 103 1107 215 C1107 284 1070 341 983 359 C1077 393 1120 465 1120 555 C1120 636 1066 700 929 700 L183 700 L58 0 Z M877 309 C973 309 1004 268 1004 218 C1004 153 958 90 840 90 L173 90 L211 309 L877 309 Z M1013 519 C1013 458 971 391 853 391 L226 391 L265 610 L887 610 C981 610 1013 570 1013 519 L1013 519 Z M340 -194 L709 -194 L720 -129 L351 -129 L340 -194 Z " />
<glyph glyph-name="uni1E07" unicode="&#x1e07;" horiz-adv-x="1040" d="M48 0 L725 0 C887 0 938 84 938 172 C938 227 909 273 835 287 C915 315 945 379 945 442 C945 509 904 560 788 560 L147 560 L48 0 Z M751 482 C827 482 849 454 849 414 C849 366 821 314 724 314 L193 314 L222 482 L751 482 Z M745 245 C821 245 843 217 843 177 C843 129 815 77 718 77 L150 77 L180 245 L745 245 Z M255 -194 L624 -194 L635 -129 L266 -129 L255 -194 Z " />
<glyph glyph-name="uni1E08" unicode="&#x1e08;" horiz-adv-x="1136" d="M483 -112 L509 -112 C563 -112 593 -123 593 -156 C593 -204 539 -217 489 -217 C453 -217 418 -208 402 -197 L394 -241 C418 -255 460 -267 503 -267 C581 -266 663 -241 663 -150 C663 -85 597 -64 539 -70 L571 0 L999 0 L1014 90 L452 90 C242 90 173 185 173 308 C173 456 262 610 545 610 L1107 610 L1124 700 L552 700 C206 700 67 507 67 296 C67 130 168 0 436 0 L533 0 L483 -112 Z M617 775 L685 775 L868 946 L749 946 L617 775 Z " />
<glyph glyph-name="uni1E09" unicode="&#x1e09;" horiz-adv-x="974" d="M393 -112 L419 -112 C473 -112 503 -123 503 -156 C503 -204 449 -217 399 -217 C363 -217 328 -208 312 -197 L304 -241 C328 -255 370 -267 413 -267 C491 -266 573 -241 573 -150 C573 -85 507 -64 449 -70 L481 0 L845 0 L859 77 L367 77 C201 77 146 146 146 242 C146 364 232 482 454 482 L931 482 L946 560 L459 560 C158 560 51 400 51 232 C51 102 133 0 358 0 L443 0 L393 -112 Z M503 635 L571 635 L754 806 L635 806 L503 635 Z " />
<glyph glyph-name="uni1E0A" unicode="&#x1e0a;" horiz-adv-x="1204" d="M58 0 L655 0 C1001 0 1140 193 1140 404 C1140 569 1039 700 771 700 L183 700 L58 0 Z M755 610 C964 610 1034 514 1034 392 C1034 243 945 90 662 90 L171 90 L263 610 L755 610 Z M622 810 L719 810 L736 909 L639 909 L622 810 Z " />
<glyph glyph-name="uni1E0B" unicode="&#x1e0b;" horiz-adv-x="1037" d="M48 0 L559 0 C860 0 967 160 967 328 C967 457 884 560 660 560 L148 560 L48 0 Z M651 482 C817 482 872 414 872 317 C872 195 786 77 564 77 L151 77 L222 482 L651 482 Z M520 670 L617 670 L634 769 L537 769 L520 670 Z " />
<glyph glyph-name="uni1E0C" unicode="&#x1e0c;" horiz-adv-x="1204" d="M58 0 L655 0 C1001 0 1140 193 1140 404 C1140 569 1039 700 771 700 L183 700 L58 0 Z M755 610 C964 610 1034 514 1034 392 C1034 243 945 90 662 90 L171 90 L263 610 L755 610 Z M442 -211 L539 -211 L556 -112 L459 -112 L442 -211 Z " />
<glyph glyph-name="uni1E0D" unicode="&#x1e0d;" horiz-adv-x="1037" d="M48 0 L559 0 C860 0 967 160 967 328 C967 457 884 560 660 560 L148 560 L48 0 Z M651 482 C817 482 872 414 872 317 C872 195 786 77 564 77 L151 77 L222 482 L651 482 Z M364 -211 L461 -211 L478 -112 L381 -112 L364 -211 Z " />
<glyph glyph-name="uni1E0E" unicode="&#x1e0e;" horiz-adv-x="1204" d="M58 0 L655 0 C1001 0 1140 193 1140 404 C1140 569 1039 700 771 700 L183 700 L58 0 Z M755 610 C964 610 1034 514 1034 392 C1034 243 945 90 662 90 L171 90 L263 610 L755 610 Z M309 -194 L678 -194 L689 -129 L320 -129 L309 -194 Z " />
<glyph glyph-name="uni1E0F" unicode="&#x1e0f;" horiz-adv-x="1037" d="M48 0 L559 0 C860 0 967 160 967 328 C967 457 884 560 660 560 L148 560 L48 0 Z M651 482 C817 482 872 414 872 317 C872 195 786 77 564 77 L151 77 L222 482 L651 482 Z M231 -194 L600 -194 L611 -129 L242 -129 L231 -194 Z " />
<glyph glyph-name="uni1E10" unicode="&#x1e10;" horiz-adv-x="1204" d="M58 0 L655 0 C1001 0 1140 193 1140 404 C1140 569 1039 700 771 700 L183 700 L58 0 Z M755 610 C964 610 1034 514 1034 392 C1034 243 945 90 662 90 L171 90 L263 610 L755 610 Z M445 -211 L482 -211 L417 -318 L461 -318 L541 -204 L557 -112 L463 -112 L445 -211 Z " />
<glyph glyph-name="uni1E11" unicode="&#x1e11;" horiz-adv-x="1037" d="M48 0 L559 0 C860 0 967 160 967 328 C967 457 884 560 660 560 L148 560 L48 0 Z M651 482 C817 482 872 414 872 317 C872 195 786 77 564 77 L151 77 L222 482 L651 482 Z M367 -211 L404 -211 L339 -318 L383 -318 L463 -204 L479 -112 L385 -112 L367 -211 Z " />
<glyph glyph-name="uni1E12" unicode="&#x1e12;" horiz-adv-x="1204" d="M58 0 L655 0 C1001 0 1140 193 1140 404 C1140 569 1039 700 771 700 L183 700 L58 0 Z M755 610 C964 610 1034 514 1034 392 C1034 243 945 90 662 90 L171 90 L263 610 L755 610 Z M309 -246 L374 -246 L507 -126 L595 -246 L657 -246 L572 -75 L456 -75 L309 -246 Z " />
<glyph glyph-name="uni1E13" unicode="&#x1e13;" horiz-adv-x="1037" d="M48 0 L559 0 C860 0 967 160 967 328 C967 457 884 560 660 560 L148 560 L48 0 Z M651 482 C817 482 872 414 872 317 C872 195 786 77 564 77 L151 77 L222 482 L651 482 Z M231 -246 L296 -246 L429 -126 L517 -246 L579 -246 L494 -75 L378 -75 L231 -246 Z " />
<glyph glyph-name="uni1E14" unicode="&#x1e14;" horiz-adv-x="1150" d="M58 0 L1014 0 L1030 90 L173 90 L210 309 L969 309 L985 391 L226 391 L264 610 L1121 610 L1139 700 L183 700 L58 0 Z M693 1128 L583 1128 L703 957 L764 957 L693 1128 Z M486 827 L855 827 L866 892 L497 892 L486 827 Z " />
<glyph glyph-name="uni1E15" unicode="&#x1e15;" horiz-adv-x="992" d="M48 0 L861 0 L875 77 L150 77 L179 245 L820 245 L833 314 L193 314 L222 482 L946 482 L960 560 L147 560 L48 0 Z M591 988 L481 988 L601 817 L662 817 L591 988 Z M384 687 L753 687 L764 752 L395 752 L384 687 Z " />
<glyph glyph-name="uni1E16" unicode="&#x1e16;" horiz-adv-x="1150" d="M58 0 L1014 0 L1030 90 L173 90 L210 309 L969 309 L985 391 L226 391 L264 610 L1121 610 L1139 700 L183 700 L58 0 Z M618 957 L686 957 L869 1128 L750 1128 L618 957 Z M486 827 L855 827 L866 892 L497 892 L486 827 Z " />
<glyph glyph-name="uni1E17" unicode="&#x1e17;" horiz-adv-x="992" d="M48 0 L861 0 L875 77 L150 77 L179 245 L820 245 L833 314 L193 314 L222 482 L946 482 L960 560 L147 560 L48 0 Z M516 817 L584 817 L767 988 L648 988 L516 817 Z M384 687 L753 687 L764 752 L395 752 L384 687 Z " />
<glyph glyph-name="uni1E18" unicode="&#x1e18;" horiz-adv-x="1150" d="M58 0 L1014 0 L1030 90 L173 90 L210 309 L969 309 L985 391 L226 391 L264 610 L1121 610 L1139 700 L183 700 L58 0 Z M306 -246 L371 -246 L504 -126 L592 -246 L654 -246 L569 -75 L453 -75 L306 -246 Z " />
<glyph glyph-name="uni1E19" unicode="&#x1e19;" horiz-adv-x="992" d="M48 0 L861 0 L875 77 L150 77 L179 245 L820 245 L833 314 L193 314 L222 482 L946 482 L960 560 L147 560 L48 0 Z M228 -246 L293 -246 L426 -126 L514 -246 L576 -246 L491 -75 L375 -75 L228 -246 Z " />
<glyph glyph-name="uni1E1A" unicode="&#x1e1a;" horiz-adv-x="1150" d="M58 0 L1014 0 L1030 90 L173 90 L210 309 L969 309 L985 391 L226 391 L264 610 L1121 610 L1139 700 L183 700 L58 0 Z M628 -89 C613 -144 594 -155 569 -155 C527 -155 496 -96 434 -96 C380 -96 339 -128 313 -233 L363 -233 C377 -178 397 -166 422 -166 C464 -166 494 -226 556 -226 C610 -226 652 -194 678 -89 L628 -89 Z " />
<glyph glyph-name="uni1E1B" unicode="&#x1e1b;" horiz-adv-x="992" d="M48 0 L861 0 L875 77 L150 77 L179 245 L820 245 L833 314 L193 314 L222 482 L946 482 L960 560 L147 560 L48 0 Z M550 -89 C535 -144 516 -155 491 -155 C449 -155 418 -96 356 -96 C302 -96 261 -128 235 -233 L285 -233 C299 -178 319 -166 344 -166 C386 -166 416 -226 478 -226 C532 -226 574 -194 600 -89 L550 -89 Z " />
<glyph glyph-name="uni1E1C" unicode="&#x1e1c;" horiz-adv-x="1150" d="M58 0 L503 0 L453 -112 L479 -112 C533 -112 563 -123 563 -156 C563 -204 509 -217 459 -217 C423 -217 388 -208 372 -197 L364 -241 C388 -255 430 -267 473 -267 C551 -266 633 -241 633 -150 C633 -85 567 -64 509 -70 L541 0 L1014 0 L1030 90 L173 90 L210 309 L969 309 L985 391 L226 391 L264 610 L1121 610 L1139 700 L183 700 L58 0 Z M672 848 C596 848 574 888 579 936 L526 936 C517 864 538 784 662 784 C785 784 835 862 853 936 L797 936 C784 888 747 848 672 848 L672 848 Z " />
<glyph glyph-name="uni1E1D" unicode="&#x1e1d;" horiz-adv-x="992" d="M48 0 L425 0 L375 -112 L401 -112 C455 -112 485 -123 485 -156 C485 -204 431 -217 381 -217 C345 -217 310 -208 294 -197 L286 -241 C310 -255 352 -267 395 -267 C473 -266 555 -241 555 -150 C555 -85 489 -64 431 -70 L463 0 L861 0 L875 77 L150 77 L179 245 L820 245 L833 314 L193 314 L222 482 L946 482 L960 560 L147 560 L48 0 Z M570 708 C494 708 472 748 477 796 L424 796 C415 724 436 644 560 644 C683 644 733 722 751 796 L695 796 C682 748 645 708 570 708 L570 708 Z " />
<glyph glyph-name="uni1E1E" unicode="&#x1e1e;" horiz-adv-x="1112" d="M58 0 L157 0 L209 299 L968 299 L985 389 L226 389 L264 610 L1121 610 L1139 700 L183 700 L58 0 Z M609 810 L706 810 L723 909 L626 909 L609 810 Z " />
<glyph glyph-name="uni1E1F" unicode="&#x1e1f;" horiz-adv-x="975" d="M48 0 L137 0 L178 236 L818 236 L833 313 L193 313 L222 482 L946 482 L960 560 L147 560 L48 0 Z M512 670 L609 670 L626 769 L529 769 L512 670 Z " />
<glyph glyph-name="uni1E20" unicode="&#x1e20;" horiz-adv-x="1205" d="M632 309 L1010 309 L972 90 L452 90 C242 90 173 185 173 308 C173 456 261 610 545 610 L1107 610 L1124 700 L552 700 C206 700 67 507 67 296 C67 130 168 0 436 0 L1052 0 L1121 391 L648 391 L632 309 Z M526 827 L895 827 L906 892 L537 892 L526 827 Z " />
<glyph glyph-name="uni1E21" unicode="&#x1e21;" horiz-adv-x="1036" d="M358 0 L890 0 L945 314 L542 314 L528 245 L845 245 L816 77 L367 77 C201 77 146 146 146 242 C146 364 232 482 454 482 L930 482 L944 560 L459 560 C158 560 51 400 51 232 C51 102 133 0 358 0 L358 0 Z M406 687 L775 687 L786 752 L417 752 L406 687 Z " />
<glyph glyph-name="uni1E22" unicode="&#x1e22;" horiz-adv-x="1252" d="M976 0 L1075 0 L1200 700 L1101 700 L1046 395 L227 395 L282 700 L183 700 L58 0 L157 0 L209 305 L1029 305 L976 0 Z M660 810 L757 810 L774 909 L677 909 L660 810 Z " />
<glyph glyph-name="uni1E23" unicode="&#x1e23;" horiz-adv-x="1081" d="M825 0 L914 0 L1013 560 L924 560 L882 319 L194 319 L236 560 L147 560 L48 0 L137 0 L179 241 L866 241 L825 0 Z M551 670 L648 670 L665 769 L568 769 L551 670 Z " />
<glyph glyph-name="uni1E24" unicode="&#x1e24;" horiz-adv-x="1252" d="M976 0 L1075 0 L1200 700 L1101 700 L1046 395 L227 395 L282 700 L183 700 L58 0 L157 0 L209 305 L1029 305 L976 0 Z M480 -211 L577 -211 L594 -112 L497 -112 L480 -211 Z " />
<glyph glyph-name="uni1E25" unicode="&#x1e25;" horiz-adv-x="1081" d="M825 0 L914 0 L1013 560 L924 560 L882 319 L194 319 L236 560 L147 560 L48 0 L137 0 L179 241 L866 241 L825 0 Z M395 -211 L492 -211 L509 -112 L412 -112 L395 -211 Z " />
<glyph glyph-name="uni1E26" unicode="&#x1e26;" horiz-adv-x="1252" d="M976 0 L1075 0 L1200 700 L1101 700 L1046 395 L227 395 L282 700 L183 700 L58 0 L157 0 L209 305 L1029 305 L976 0 Z M788 810 L886 810 L903 909 L805 909 L788 810 Z M529 810 L627 810 L644 909 L546 909 L529 810 Z " />
<glyph glyph-name="uni1E27" unicode="&#x1e27;" horiz-adv-x="1081" d="M825 0 L914 0 L1013 560 L924 560 L882 319 L194 319 L236 560 L147 560 L48 0 L137 0 L179 241 L866 241 L825 0 Z M678 670 L776 670 L793 769 L695 769 L678 670 Z M419 670 L517 670 L534 769 L436 769 L419 670 Z " />
<glyph glyph-name="uni1E28" unicode="&#x1e28;" horiz-adv-x="1252" d="M33 -112 L59 -112 C113 -112 143 -123 143 -156 C143 -204 89 -217 39 -217 C3 -217 -32 -208 -48 -197 L-56 -241 C-32 -255 10 -267 53 -267 C131 -266 213 -241 213 -150 C213 -85 147 -64 89 -70 L121 0 L157 0 L209 305 L1029 305 L976 0 L1075 0 L1200 700 L1101 700 L1046 395 L227 395 L282 700 L183 700 L58 0 L83 0 L33 -112 Z " />
<glyph glyph-name="uni1E29" unicode="&#x1e29;" horiz-adv-x="1081" d="M19 -112 L45 -112 C99 -112 129 -123 129 -156 C129 -204 75 -217 25 -217 C-11 -217 -46 -208 -62 -197 L-70 -241 C-46 -255 -4 -267 39 -267 C117 -266 199 -241 199 -150 C199 -85 133 -64 75 -70 L107 0 L137 0 L179 241 L866 241 L825 0 L914 0 L1013 560 L924 560 L882 319 L194 319 L236 560 L147 560 L48 0 L69 0 L19 -112 Z " />
<glyph glyph-name="uni1E2A" unicode="&#x1e2a;" horiz-adv-x="1252" d="M976 0 L1075 0 L1200 700 L1101 700 L1046 395 L227 395 L282 700 L183 700 L58 0 L157 0 L209 305 L1029 305 L976 0 Z M533 -173 C457 -173 435 -133 440 -85 L387 -85 C378 -157 399 -237 523 -237 C646 -237 696 -159 714 -85 L658 -85 C645 -133 608 -173 533 -173 L533 -173 Z " />
<glyph glyph-name="uni1E2B" unicode="&#x1e2b;" horiz-adv-x="1081" d="M825 0 L914 0 L1013 560 L924 560 L882 319 L194 319 L236 560 L147 560 L48 0 L137 0 L179 241 L866 241 L825 0 Z M447 -173 C371 -173 349 -133 354 -85 L301 -85 C292 -157 313 -237 437 -237 C560 -237 610 -159 628 -85 L572 -85 C559 -133 522 -173 447 -173 L447 -173 Z " />
<glyph glyph-name="uni1E2C" unicode="&#x1e2c;" horiz-adv-x="334" d="M58 0 L157 0 L282 700 L183 700 L58 0 Z M209 -89 C194 -144 175 -155 150 -155 C108 -155 77 -96 15 -96 C-39 -96 -80 -128 -106 -233 L-56 -233 C-42 -178 -22 -166 3 -166 C45 -166 75 -226 137 -226 C191 -226 233 -194 259 -89 L209 -89 Z " />
<glyph glyph-name="uni1E2D" unicode="&#x1e2d;" horiz-adv-x="304" d="M48 0 L137 0 L236 560 L147 560 L48 0 Z M195 -89 C180 -144 161 -155 136 -155 C94 -155 63 -96 1 -96 C-53 -96 -94 -128 -120 -233 L-70 -233 C-56 -178 -36 -166 -11 -166 C31 -166 61 -226 123 -226 C177 -226 219 -194 245 -89 L195 -89 Z " />
<glyph glyph-name="uni1E2E" unicode="&#x1e2e;" horiz-adv-x="334" d="M58 0 L157 0 L282 700 L183 700 L58 0 Z M200 962 L268 962 L451 1133 L332 1133 L200 962 Z M328 810 L426 810 L443 909 L345 909 L328 810 Z M69 810 L167 810 L184 909 L86 909 L69 810 Z " />
<glyph glyph-name="uni1E2F" unicode="&#x1e2f;" horiz-adv-x="304" d="M162 822 L230 822 L413 993 L294 993 L162 822 Z M289 670 L387 670 L404 769 L306 769 L289 670 Z M30 670 L128 670 L145 769 L47 769 L30 670 Z M48 0 L137 0 L236 560 L147 560 L48 0 Z " />
<glyph glyph-name="uni1E30" unicode="&#x1e30;" horiz-adv-x="1238" d="M1211 700 L1035 700 L200 247 L280 700 L183 700 L58 0 L155 0 L180 139 L533 331 L1018 0 L1174 0 L621 379 L1211 700 Z M582 775 L650 775 L833 946 L714 946 L582 775 Z " />
<glyph glyph-name="uni1E31" unicode="&#x1e31;" horiz-adv-x="1068" d="M1028 560 L864 560 L172 204 L236 560 L147 560 L48 0 L137 0 L156 108 L452 261 L856 0 L999 0 L532 303 L1028 560 Z M477 635 L545 635 L728 806 L609 806 L477 635 Z " />
<glyph glyph-name="uni1E32" unicode="&#x1e32;" horiz-adv-x="1238" d="M1211 700 L1035 700 L200 247 L280 700 L183 700 L58 0 L155 0 L180 139 L533 331 L1018 0 L1174 0 L621 379 L1211 700 Z M469 -211 L566 -211 L583 -112 L486 -112 L469 -211 Z " />
<glyph glyph-name="uni1E33" unicode="&#x1e33;" horiz-adv-x="1068" d="M1028 560 L864 560 L172 204 L236 560 L147 560 L48 0 L137 0 L156 108 L452 261 L856 0 L999 0 L532 303 L1028 560 Z M386 -211 L483 -211 L500 -112 L403 -112 L386 -211 Z " />
<glyph glyph-name="uni1E34" unicode="&#x1e34;" horiz-adv-x="1238" d="M1211 700 L1035 700 L200 247 L280 700 L183 700 L58 0 L155 0 L180 139 L533 331 L1018 0 L1174 0 L621 379 L1211 700 Z M336 -194 L705 -194 L716 -129 L347 -129 L336 -194 Z " />
<glyph glyph-name="uni1E35" unicode="&#x1e35;" horiz-adv-x="1068" d="M1028 560 L864 560 L172 204 L236 560 L147 560 L48 0 L137 0 L156 108 L452 261 L856 0 L999 0 L532 303 L1028 560 Z M253 -194 L622 -194 L633 -129 L264 -129 L253 -194 Z " />
<glyph glyph-name="uni1E36" unicode="&#x1e36;" horiz-adv-x="1083" d="M282 700 L183 700 L58 0 L995 0 L1010 90 L173 90 L282 700 Z M436 -211 L533 -211 L550 -112 L453 -112 L436 -211 Z " />
<glyph glyph-name="uni1E37" unicode="&#x1e37;" horiz-adv-x="946" d="M236 560 L147 560 L48 0 L845 0 L859 77 L150 77 L236 560 Z M364 -211 L461 -211 L478 -112 L381 -112 L364 -211 Z " />
<glyph glyph-name="uni1E38" unicode="&#x1e38;" horiz-adv-x="1083" d="M282 700 L183 700 L58 0 L995 0 L1010 90 L173 90 L282 700 Z M96 827 L465 827 L476 892 L107 892 L96 827 Z M436 -211 L533 -211 L550 -112 L453 -112 L436 -211 Z " />
<glyph glyph-name="uni1E39" unicode="&#x1e39;" horiz-adv-x="946" d="M236 560 L147 560 L48 0 L845 0 L859 77 L150 77 L236 560 Z M58 687 L427 687 L438 752 L69 752 L58 687 Z M364 -211 L461 -211 L478 -112 L381 -112 L364 -211 Z " />
<glyph glyph-name="uni1E3A" unicode="&#x1e3a;" horiz-adv-x="1083" d="M282 700 L183 700 L58 0 L995 0 L1010 90 L173 90 L282 700 Z M303 -194 L672 -194 L683 -129 L314 -129 L303 -194 Z " />
<glyph glyph-name="uni1E3B" unicode="&#x1e3b;" horiz-adv-x="946" d="M236 560 L147 560 L48 0 L845 0 L859 77 L150 77 L236 560 Z M231 -194 L600 -194 L611 -129 L242 -129 L231 -194 Z " />
<glyph glyph-name="uni1E3C" unicode="&#x1e3c;" horiz-adv-x="1083" d="M282 700 L183 700 L58 0 L995 0 L1010 90 L173 90 L282 700 Z M303 -246 L368 -246 L501 -126 L589 -246 L651 -246 L566 -75 L450 -75 L303 -246 Z " />
<glyph glyph-name="uni1E3D" unicode="&#x1e3d;" horiz-adv-x="946" d="M236 560 L147 560 L48 0 L845 0 L859 77 L150 77 L236 560 Z M231 -246 L296 -246 L429 -126 L517 -246 L579 -246 L494 -75 L378 -75 L231 -246 Z " />
</font>
</svg>
