<?xml version="1.0" encoding="UTF-8"?>
<svg xmlns="http://www.w3.org/2000/svg" xmlns:xlink="http://www.w3.org/1999/xlink" version="1.2" >
<font id="Stereo Gothic 850">
<font-face  font-family="Stereo Gothic" units-per-em="1000" ascent="700" descent="-300" font-style="normal" font-weight="850" font-stretch="normal" cap-height="700" x-height="560" underline-position="-75" underline-thickness="50" />
<missing-glyph  horiz-adv-x="1000" d="M150 0 L850 0 L850 700 L150 700 L150 0 Z M217 639 L742 639 L217 114 L217 639 Z M258 61 L783 586 L783 61 L258 61 Z " />
<glyph glyph-name="NULL" d="" />
<glyph glyph-name="CR" unicode="&#xd;" horiz-adv-x="250" d="" />
<glyph glyph-name="space" unicode="&#x20;" horiz-adv-x="500" d="" />
<glyph glyph-name="exclam" unicode="&#x21;" horiz-adv-x="407" d="M109 0 L297 0 L297 188 L109 188 L109 0 Z M119 249 L287 249 L296 700 L111 700 L119 249 Z " />
<glyph glyph-name="quotedbl" unicode="&#x22;" horiz-adv-x="663" d="M120 400 L255 400 L282 700 L93 700 L120 400 Z M408 400 L543 400 L570 700 L381 700 L408 400 Z " />
<glyph glyph-name="numbersign" unicode="&#x23;" horiz-adv-x="1298" d="M843 0 L1011 0 L1024 131 L1183 131 L1183 284 L1040 284 L1055 416 L1213 416 L1213 569 L1071 569 L1084 700 L916 700 L903 569 L440 569 L454 700 L286 700 L273 569 L115 569 L115 416 L257 416 L242 284 L85 284 L85 131 L226 131 L213 0 L381 0 L394 131 L857 131 L843 0 Z M424 416 L887 416 L873 284 L410 284 L424 416 Z " />
<glyph glyph-name="dollar" unicode="&#x24;" horiz-adv-x="1298" d="M565 -20 L733 -20 L733 70 L955 70 C1115 70 1178 149 1178 246 C1178 343 1115 417 955 417 L733 417 L733 477 L1146 477 L1146 630 L733 630 L733 721 L565 721 L565 630 L343 630 C183 630 120 551 120 454 C120 357 183 283 343 283 L565 283 L565 223 L152 223 L152 70 L565 70 L565 -20 Z M944 283 C995 283 1001 270 1001 254 C1001 238 996 223 944 223 L733 223 L733 283 L944 283 Z M297 446 C297 462 303 477 354 477 L565 477 L565 417 L354 417 C302 417 297 430 297 446 L297 446 Z " />
<glyph glyph-name="percent" unicode="&#x25;" horiz-adv-x="1298" d="M943 700 L169 0 L355 0 L1128 700 L943 700 Z M589 576 C589 645 544 700 432 700 L246 700 C133 700 90 645 90 576 L90 474 C90 406 133 350 246 350 L432 350 C544 350 589 406 589 474 L589 576 Z M200 564 C200 583 206 600 245 600 L433 600 C473 600 478 583 478 564 L478 485 C478 467 473 450 433 450 L245 450 C206 450 200 467 200 485 L200 564 Z M1208 226 C1208 295 1163 350 1051 350 L865 350 C752 350 709 295 709 226 L709 124 C709 56 752 0 865 0 L1051 0 C1163 0 1208 56 1208 124 L1208 226 Z M819 214 C819 233 825 250 864 250 L1052 250 C1092 250 1097 233 1097 214 L1097 135 C1097 117 1092 100 1052 100 L864 100 C825 100 819 117 819 135 L819 214 Z " />
<glyph glyph-name="ampersand" unicode="&#x26;" horiz-adv-x="1316" d="M322 0 L1005 0 C1147 0 1203 68 1203 156 C1203 203 1186 248 1148 274 L1253 274 L1253 426 L416 426 C340 426 327 452 327 478 C327 505 339 530 415 530 L1026 530 L1026 700 L364 700 C199 700 135 621 135 519 C135 454 162 397 228 364 C127 339 85 270 85 187 C85 84 151 0 322 0 L322 0 Z M922 170 L373 170 C297 170 285 196 285 222 C285 247 295 274 360 274 L934 274 C1000 274 1010 247 1010 222 C1010 196 998 170 922 170 L922 170 Z " />
<glyph glyph-name="quotesingle" unicode="&#x27;" horiz-adv-x="375" d="M120 400 L255 400 L282 700 L93 700 L120 400 Z " />
<glyph glyph-name="parenleft" unicode="&#x28;" horiz-adv-x="518" d="M462 -116 C246 161 246 539 462 815 L308 815 C42 547 42 153 308 -116 L462 -116 Z " />
<glyph glyph-name="parenright" unicode="&#x29;" horiz-adv-x="518" d="M210 -116 C476 153 476 547 210 815 L56 815 C272 539 272 161 56 -116 L210 -116 Z " />
<glyph glyph-name="asterisk" unicode="&#x2a;" horiz-adv-x="601" d="M554 452 L503 617 L350 525 L387 700 L215 700 L253 524 L100 616 L47 452 L222 432 L91 317 L230 215 L301 375 L372 216 L512 317 L380 432 L554 452 Z " />
<glyph glyph-name="plus" unicode="&#x2b;" horiz-adv-x="1298" d="M280 265 L556 265 L556 30 L742 30 L742 265 L1018 265 L1018 435 L742 435 L742 670 L556 670 L556 435 L280 435 L280 265 Z " />
<glyph glyph-name="comma" unicode="&#x2c;" horiz-adv-x="367" d="M90 0 L169 0 L90 -169 L172 -169 L277 15 L277 188 L90 188 L90 0 Z " />
<glyph glyph-name="hyphen" unicode="&#x2d;" horiz-adv-x="570" d="M70 195 L500 195 L500 365 L70 365 L70 195 Z " />
<glyph glyph-name="period" unicode="&#x2e;" horiz-adv-x="367" d="M90 0 L277 0 L277 188 L90 188 L90 0 Z " />
<glyph glyph-name="slash" unicode="&#x2f;" horiz-adv-x="619" d="M-25 -76 L142 -76 L644 777 L477 777 L-25 -76 Z " />
<glyph glyph-name="zero" unicode="0" horiz-adv-x="1298" d="M95 248 C95 111 183 0 407 0 L891 0 C1115 0 1203 111 1203 248 L1203 452 C1203 589 1115 700 891 700 L407 700 C183 700 95 589 95 452 L95 248 Z M898 530 C1000 530 1016 487 1016 444 L1016 256 C1016 213 1000 170 898 170 L400 170 C298 170 282 213 282 256 L282 444 C282 487 298 530 400 530 L898 530 Z " />
<glyph glyph-name="one" unicode="1" horiz-adv-x="1298" d="M374 530 L616 530 L616 170 L224 170 L224 0 L1074 0 L1074 170 L802 170 L802 700 L374 700 L374 530 Z " />
<glyph glyph-name="two" unicode="2" horiz-adv-x="1298" d="M1183 170 L282 170 L282 216 C282 243 298 274 365 274 L938 274 C1136 274 1213 365 1213 487 C1213 606 1136 700 938 700 L135 700 L135 530 L934 530 C1010 530 1018 504 1018 478 C1018 451 1010 426 934 426 L358 426 C172 426 95 340 95 219 L95 0 L1183 0 L1183 170 Z " />
<glyph glyph-name="three" unicode="3" horiz-adv-x="1298" d="M75 0 L971 0 C1142 0 1208 84 1208 187 C1208 270 1167 339 1065 364 C1130 397 1158 454 1158 519 C1158 621 1094 700 929 700 L95 700 L95 530 L878 530 C954 530 966 504 966 477 C966 451 954 426 877 426 L182 426 L182 274 L920 274 C996 274 1008 250 1008 223 C1008 197 996 170 920 170 L75 170 L75 0 Z " />
<glyph glyph-name="four" unicode="4" horiz-adv-x="1298" d="M953 700 L66 252 L66 111 L944 111 L944 0 L1131 0 L1131 111 L1242 111 L1242 280 L1131 280 L1131 700 L953 700 Z M439 280 L944 524 L944 280 L439 280 Z " />
<glyph glyph-name="five" unicode="5" horiz-adv-x="1298" d="M95 274 L934 274 C1010 274 1018 249 1018 222 C1018 196 1010 170 934 170 L113 170 L113 0 L938 0 C1136 0 1213 94 1213 213 C1213 335 1136 426 938 426 L278 426 L287 530 L1173 530 L1173 700 L129 700 L95 274 Z " />
<glyph glyph-name="six" unicode="6" horiz-adv-x="1298" d="M551 530 L1163 530 L1163 700 L535 700 C218 700 94 543 94 350 L94 248 C94 111 182 0 406 0 L953 0 C1151 0 1228 94 1228 213 C1228 335 1151 426 953 426 L443 426 C368 426 316 407 283 378 C297 464 374 530 551 530 L551 530 Z M374 274 L949 274 C1025 274 1033 249 1033 222 C1033 196 1025 170 949 170 L407 170 C319 170 289 199 282 234 C287 256 309 274 374 274 L374 274 Z " />
<glyph glyph-name="seven" unicode="7" horiz-adv-x="1298" d="M595 0 L1213 553 L1213 700 L75 700 L75 530 L936 530 L319 0 L595 0 Z " />
<glyph glyph-name="eight" unicode="8" horiz-adv-x="1298" d="M988 0 C1159 0 1225 84 1225 187 C1225 270 1184 339 1082 364 C1147 397 1175 454 1175 519 C1175 621 1111 700 946 700 L352 700 C187 700 123 621 123 519 C123 454 150 397 216 364 C115 339 73 270 73 187 C73 84 139 0 310 0 L988 0 Z M1025 222 C1025 196 1013 170 937 170 L361 170 C285 170 273 196 273 222 C273 249 285 274 361 274 L937 274 C1013 274 1025 249 1025 222 L1025 222 Z M894 426 L404 426 C328 426 315 452 315 478 C315 505 327 530 403 530 L895 530 C971 530 983 505 983 478 C983 452 971 426 894 426 L894 426 Z " />
<glyph glyph-name="nine" unicode="9" horiz-adv-x="1298" d="M747 170 L135 170 L135 0 L763 0 C1080 0 1204 157 1204 350 L1204 452 C1204 589 1116 700 892 700 L345 700 C147 700 70 606 70 487 C70 365 147 274 345 274 L855 274 C930 274 982 292 1014 322 C1001 235 923 170 747 170 L747 170 Z M924 426 L349 426 C273 426 265 451 265 478 C265 504 273 530 349 530 L891 530 C979 530 1009 501 1015 465 C1010 443 989 426 924 426 L924 426 Z " />
<glyph glyph-name="colon" unicode="&#x3a;" horiz-adv-x="367" d="M90 372 L277 372 L277 560 L90 560 L90 372 Z M90 0 L277 0 L277 188 L90 188 L90 0 Z " />
<glyph glyph-name="semicolon" unicode="&#x3b;" horiz-adv-x="367" d="M90 0 L169 0 L90 -169 L172 -169 L277 15 L277 188 L90 188 L90 0 Z M90 372 L277 372 L277 560 L90 560 L90 372 Z " />
<glyph glyph-name="less" unicode="&#x3c;" horiz-adv-x="1298" d="M1008 182 L522 349 L1008 518 L1008 703 L290 438 L290 261 L1008 -3 L1008 182 Z " />
<glyph glyph-name="equal" unicode="&#x3d;" horiz-adv-x="1298" d="M280 99 L1018 99 L1018 269 L280 269 L280 99 Z M280 431 L1018 431 L1018 601 L280 601 L280 431 Z " />
<glyph glyph-name="greater" unicode="&#x3e;" horiz-adv-x="1298" d="M290 -3 L1008 261 L1008 438 L290 703 L290 518 L776 349 L290 182 L290 -3 Z " />
<glyph glyph-name="question" unicode="&#x3f;" horiz-adv-x="1070" d="M275 249 L444 249 L444 278 L770 278 C968 278 1045 368 1045 489 C1045 608 968 700 770 700 L23 700 L23 530 L761 530 C837 530 847 502 847 476 C847 449 837 422 761 422 L275 422 L275 249 Z M266 0 L454 0 L454 188 L266 188 L266 0 Z " />
<glyph glyph-name="at" unicode="&#x40;" horiz-adv-x="1398" d="M728 420 L636 420 C440 420 364 323 364 205 C364 87 440 -10 636 -10 L728 -10 C812 -10 867 14 901 55 L917 0 L1239 0 C1300 67 1326 154 1326 248 C1326 462 1189 635 838 635 L614 635 C225 635 72 443 72 205 C72 -32 225 -224 614 -224 L781 -224 L781 -93 L615 -93 C320 -93 229 41 229 205 C229 370 324 504 618 504 L834 504 C1090 504 1169 389 1169 248 C1169 206 1166 166 1150 131 L1012 131 L1012 410 L917 410 L902 354 C868 395 813 420 728 420 L728 420 Z M637 121 C535 121 516 159 516 205 C516 251 535 289 637 289 L737 289 C839 289 865 251 865 206 C865 159 840 121 738 121 L637 121 Z " />
<glyph glyph-name="A" unicode="A" horiz-adv-x="1293" d="M1060 0 L1290 0 L746 700 L548 700 L3 0 L233 0 L317 110 L975 110 L1060 0 Z M646 539 L858 263 L434 263 L646 539 Z " />
<glyph glyph-name="B" unicode="B" horiz-adv-x="1259" d="M115 0 L949 0 C1120 0 1186 84 1186 187 C1186 270 1145 339 1043 364 C1108 397 1136 454 1136 519 C1136 621 1072 700 907 700 L115 700 L115 0 Z M898 274 C974 274 986 249 986 222 C986 196 974 170 898 170 L302 170 L302 274 L898 274 Z M944 478 C944 452 932 426 855 426 L302 426 L302 530 L856 530 C932 530 944 505 944 478 L944 478 Z " />
<glyph glyph-name="C" unicode="C" horiz-adv-x="1184" d="M268 350 C268 450 315 530 510 530 L1111 530 L1111 700 L509 700 C192 700 68 543 68 350 C68 157 192 0 509 0 L1111 0 L1111 170 L510 170 C315 170 268 250 268 350 L268 350 Z " />
<glyph glyph-name="D" unicode="D" horiz-adv-x="1255" d="M115 0 L746 0 C1063 0 1187 157 1187 350 C1187 543 1063 700 746 700 L115 700 L115 0 Z M745 530 C940 530 987 450 987 350 C987 250 940 170 745 170 L302 170 L302 530 L745 530 Z " />
<glyph glyph-name="E" unicode="E" horiz-adv-x="1199" d="M115 0 L1126 0 L1126 170 L302 170 L302 274 L1024 274 L1024 426 L302 426 L302 530 L1126 530 L1126 700 L115 700 L115 0 Z " />
<glyph glyph-name="F" unicode="F" horiz-adv-x="1159" d="M115 0 L302 0 L302 252 L1024 252 L1024 422 L302 422 L302 530 L1126 530 L1126 700 L115 700 L115 0 Z " />
<glyph glyph-name="G" unicode="G" horiz-adv-x="1256" d="M657 274 L983 274 L983 170 L510 170 C315 170 268 250 268 350 C268 450 315 530 510 530 L1111 530 L1111 700 L509 700 C192 700 68 543 68 350 C68 157 192 0 509 0 L1166 0 L1166 426 L657 426 L657 274 Z " />
<glyph glyph-name="H" unicode="H" horiz-adv-x="1305" d="M1003 0 L1190 0 L1190 700 L1003 700 L1003 435 L302 435 L302 700 L115 700 L115 0 L302 0 L302 265 L1003 265 L1003 0 Z " />
<glyph glyph-name="I" unicode="I" horiz-adv-x="417" d="M115 0 L302 0 L302 700 L115 700 L115 0 Z " />
<glyph glyph-name="J" unicode="J" horiz-adv-x="1211" d="M378 -5 L695 -5 C1012 -5 1116 132 1116 325 L1116 700 L929 700 L929 325 C929 230 884 165 694 165 L379 165 C250 165 222 215 222 275 L222 340 L35 340 L35 275 C35 121 124 -5 378 -5 L378 -5 Z " />
<glyph glyph-name="K" unicode="K" horiz-adv-x="1302" d="M1213 700 L890 700 L302 326 L302 700 L115 700 L115 0 L302 0 L302 142 L555 297 L991 0 L1304 0 L716 395 L1213 700 Z " />
<glyph glyph-name="L" unicode="L" horiz-adv-x="1129" d="M302 700 L115 700 L115 0 L1106 0 L1106 170 L302 170 L302 700 Z " />
<glyph glyph-name="M" unicode="M" horiz-adv-x="1457" d="M1164 700 L728 271 L293 700 L115 700 L115 0 L302 0 L302 442 L728 17 L1155 442 L1155 0 L1342 0 L1342 700 L1164 700 Z " />
<glyph glyph-name="N" unicode="N" horiz-adv-x="1309" d="M1017 0 L1194 0 L1194 700 L1007 700 L1007 219 L292 700 L115 700 L115 0 L302 0 L302 481 L1017 0 Z " />
<glyph glyph-name="O" unicode="O" horiz-adv-x="1348" d="M826 -10 C1152 -10 1280 151 1280 350 C1280 549 1152 710 826 710 L522 710 C196 710 68 549 68 350 C68 151 196 -10 522 -10 L826 -10 Z M523 160 C319 160 267 244 267 350 C267 456 319 540 524 540 L825 540 C1029 540 1080 456 1080 350 C1080 244 1029 160 825 160 L523 160 Z " />
<glyph glyph-name="P" unicode="P" horiz-adv-x="1196" d="M115 0 L302 0 L302 225 L870 225 C1087 225 1171 329 1171 463 C1171 593 1087 700 870 700 L115 700 L115 0 Z M866 530 C961 530 976 499 976 463 C976 425 961 395 866 395 L302 395 L302 530 L866 530 Z " />
<glyph glyph-name="Q" unicode="Q" horiz-adv-x="1348" d="M826 -10 C852 -10 876 -9 899 -7 L1051 -110 L1351 -110 L1103 46 C1227 110 1280 222 1280 350 C1280 549 1152 710 826 710 L522 710 C196 710 68 549 68 350 C68 151 196 -10 522 -10 L826 -10 Z M522 160 C318 160 267 244 267 350 C267 456 319 540 523 540 L825 540 C1029 540 1080 456 1080 350 C1080 244 1029 160 825 160 L522 160 Z " />
<glyph glyph-name="R" unicode="R" horiz-adv-x="1281" d="M115 0 L302 0 L302 228 L645 228 L976 0 L1283 0 L925 234 C1093 253 1163 349 1163 466 C1163 595 1076 700 861 700 L115 700 L115 0 Z M853 530 C948 530 967 498 967 461 C967 424 948 392 853 392 L302 392 L302 530 L853 530 Z " />
<glyph glyph-name="S" unicode="S" horiz-adv-x="1207" d="M105 0 L867 0 C1065 0 1142 94 1142 213 C1142 335 1065 426 867 426 L344 426 C268 426 260 451 260 478 C260 504 268 530 344 530 L1102 530 L1102 700 L340 700 C142 700 65 606 65 487 C65 365 142 274 340 274 L863 274 C939 274 947 249 947 222 C947 196 939 170 863 170 L105 170 L105 0 Z " />
<glyph glyph-name="T" unicode="T" horiz-adv-x="1184" d="M23 530 L499 530 L499 0 L685 0 L685 530 L1161 530 L1161 700 L23 700 L23 530 Z " />
<glyph glyph-name="U" unicode="U" horiz-adv-x="1275" d="M282 323 L282 700 L95 700 L95 323 C95 130 199 -10 516 -10 L759 -10 C1076 -10 1180 130 1180 323 L1180 700 L993 700 L993 323 C993 228 948 160 758 160 L517 160 C327 160 282 228 282 323 L282 323 Z " />
<glyph glyph-name="V" unicode="V" horiz-adv-x="1293" d="M746 0 L1290 700 L1053 700 L646 161 L241 700 L3 700 L548 0 L746 0 Z " />
<glyph glyph-name="W" unicode="W" horiz-adv-x="1618" d="M809 466 L1064 0 L1202 0 L1603 700 L1378 700 L1131 234 L878 700 L740 700 L487 234 L240 700 L15 700 L416 0 L554 0 L809 466 Z " />
<glyph glyph-name="X" unicode="X" horiz-adv-x="1228" d="M7 700 L463 352 L2 0 L296 0 L614 256 L932 0 L1226 0 L765 352 L1221 700 L927 700 L614 448 L301 700 L7 700 Z " />
<glyph glyph-name="Y" unicode="Y" horiz-adv-x="1257" d="M535 0 L722 0 L722 211 L1264 700 L988 700 L629 362 L269 700 L-7 700 L535 211 L535 0 Z " />
<glyph glyph-name="Z" unicode="Z" horiz-adv-x="1204" d="M65 0 L1149 0 L1149 170 L436 170 L1129 570 L1129 700 L75 700 L75 530 L757 530 L65 130 L65 0 Z " />
<glyph glyph-name="bracketleft" unicode="&#x5b;" horiz-adv-x="518" d="M124 -150 L474 -150 L474 -14 L310 -14 L310 714 L474 714 L474 850 L124 850 L124 -150 Z " />
<glyph glyph-name="backslash" unicode="&#x5c;" horiz-adv-x="619" d="M142 777 L-25 777 L477 -76 L644 -76 L142 777 Z " />
<glyph glyph-name="bracketright" unicode="&#x5d;" horiz-adv-x="518" d="M394 850 L44 850 L44 714 L208 714 L208 -14 L44 -14 L44 -150 L394 -150 L394 850 Z " />
<glyph glyph-name="asciicircum" unicode="&#x5e;" horiz-adv-x="1298" d="M854 350 L1083 350 L749 800 L549 800 L215 350 L444 350 L649 636 L854 350 Z " />
<glyph glyph-name="underscore" unicode="&#x5f;" horiz-adv-x="500" d="M0 -184 L500 -184 L500 -40 L0 -40 L0 -184 Z " />
<glyph glyph-name="grave" unicode="&#x60;" horiz-adv-x="500" d="M259 806 L54 806 L234 635 L355 635 L259 806 Z " />
<glyph glyph-name="a" unicode="a" horiz-adv-x="1105" d="M897 0 L1101 0 L640 560 L465 560 L4 0 L208 0 L283 93 L821 93 L897 0 Z M552 424 L719 218 L385 218 L552 424 Z " />
<glyph glyph-name="b" unicode="b" horiz-adv-x="1082" d="M105 0 L821 0 C967 0 1017 67 1017 150 C1017 216 981 271 896 292 C950 319 974 363 974 415 C974 497 926 560 786 560 L105 560 L105 0 Z M773 218 C833 218 838 200 838 180 C838 162 833 143 773 143 L271 143 L271 218 L773 218 Z M736 342 L271 342 L271 417 L737 417 C797 417 802 399 802 380 C802 360 796 342 736 342 L736 342 Z " />
<glyph glyph-name="c" unicode="c" horiz-adv-x="1014" d="M237 280 C237 356 267 417 428 417 L949 417 L949 560 L428 560 C158 560 61 434 61 280 C61 126 158 0 428 0 L949 0 L949 143 L428 143 C267 143 237 204 237 280 L237 280 Z " />
<glyph glyph-name="d" unicode="d" horiz-adv-x="1079" d="M105 0 L651 0 C920 0 1018 126 1018 280 C1018 434 920 560 651 560 L105 560 L105 0 Z M650 417 C812 417 842 356 842 280 C842 204 812 143 650 143 L271 143 L271 417 L650 417 Z " />
<glyph glyph-name="e" unicode="e" horiz-adv-x="1032" d="M105 0 L966 0 L966 143 L271 143 L271 218 L878 218 L878 342 L271 342 L271 417 L966 417 L966 560 L105 560 L105 0 Z " />
<glyph glyph-name="f" unicode="f" horiz-adv-x="1015" d="M105 0 L271 0 L271 197 L878 197 L878 340 L271 340 L271 417 L966 417 L966 560 L105 560 L105 0 Z " />
<glyph glyph-name="g" unicode="g" horiz-adv-x="1078" d="M561 218 L833 218 L833 143 L428 143 C267 143 237 204 237 280 C237 356 267 417 428 417 L949 417 L949 560 L428 560 C158 560 61 434 61 280 C61 126 158 0 428 0 L995 0 L995 342 L561 342 L561 218 Z " />
<glyph glyph-name="h" unicode="h" horiz-adv-x="1125" d="M854 0 L1020 0 L1020 560 L854 560 L854 352 L271 352 L271 560 L105 560 L105 0 L271 0 L271 208 L854 208 L854 0 Z " />
<glyph glyph-name="i" unicode="i" horiz-adv-x="376" d="M105 0 L271 0 L271 560 L105 560 L105 0 Z " />
<glyph glyph-name="j" unicode="j" horiz-adv-x="1041" d="M321 -4 L606 -4 C875 -4 956 106 956 260 L956 560 L790 560 L790 260 C790 188 761 139 605 139 L322 139 C216 139 201 176 201 220 L201 274 L35 274 L35 220 C35 97 105 -4 321 -4 L321 -4 Z " />
<glyph glyph-name="k" unicode="k" horiz-adv-x="1121" d="M1047 560 L750 560 L271 273 L271 560 L105 560 L105 0 L271 0 L271 112 L482 234 L840 0 L1118 0 L624 316 L1047 560 Z " />
<glyph glyph-name="l" unicode="l" horiz-adv-x="985" d="M271 560 L105 560 L105 0 L949 0 L949 143 L271 143 L271 560 Z " />
<glyph glyph-name="m" unicode="m" horiz-adv-x="1255" d="M991 560 L627 227 L263 560 L105 560 L105 0 L271 0 L271 342 L627 12 L984 342 L984 0 L1150 0 L1150 560 L991 560 Z " />
<glyph glyph-name="n" unicode="n" horiz-adv-x="1129" d="M1024 0 L1024 560 L859 560 L859 185 L262 560 L105 560 L105 0 L271 0 L271 375 L867 0 L1024 0 Z " />
<glyph glyph-name="o" unicode="o" horiz-adv-x="1153" d="M715 -8 C992 -8 1092 121 1092 280 C1092 439 992 568 715 568 L439 568 C162 568 61 439 61 280 C61 121 162 -8 439 -8 L715 -8 Z M440 135 C270 135 236 199 236 280 C236 361 270 425 440 425 L714 425 C882 425 917 361 917 280 C917 199 882 135 714 135 L440 135 Z " />
<glyph glyph-name="p" unicode="p" horiz-adv-x="1039" d="M105 0 L271 0 L271 176 L752 176 C938 176 1004 261 1004 368 C1004 473 938 560 752 560 L105 560 L105 0 Z M748 417 C827 417 831 395 831 368 C831 341 827 320 748 320 L271 320 L271 417 L748 417 Z " />
<glyph glyph-name="q" unicode="q" horiz-adv-x="1153" d="M715 -8 C730 -8 744 -7 758 -7 L882 -88 L1146 -88 L943 35 C1049 86 1092 176 1092 280 C1092 439 992 568 715 568 L439 568 C162 568 61 439 61 280 C61 121 162 -8 439 -8 L715 -8 Z M440 135 C270 135 236 199 236 280 C236 361 270 425 440 425 L714 425 C882 425 917 361 917 280 C917 199 882 135 714 135 L440 135 Z " />
<glyph glyph-name="r" unicode="r" horiz-adv-x="1106" d="M105 0 L271 0 L271 179 L561 179 L835 0 L1099 0 L796 183 C941 198 997 275 997 371 C997 475 928 560 745 560 L105 560 L105 0 Z M738 417 C816 417 824 393 824 367 C824 340 816 317 738 317 L271 317 L271 417 L738 417 Z " />
<glyph glyph-name="s" unicode="s" horiz-adv-x="1031" d="M91 0 L744 0 C914 0 974 75 974 172 C974 270 914 342 744 342 L295 342 C236 342 230 360 230 380 C230 399 235 417 295 417 L940 417 L940 560 L287 560 C117 560 57 485 57 388 C57 290 117 218 287 218 L736 218 C795 218 801 200 801 180 C801 161 796 143 736 143 L91 143 L91 0 Z " />
<glyph glyph-name="t" unicode="t" horiz-adv-x="1039" d="M36 417 L437 417 L437 0 L603 0 L603 417 L1003 417 L1003 560 L36 560 L36 417 Z " />
<glyph glyph-name="u" unicode="u" horiz-adv-x="1093" d="M249 258 L249 560 L85 560 L85 258 C85 104 165 -8 434 -8 L658 -8 C928 -8 1008 104 1008 258 L1008 560 L842 560 L842 258 C842 187 814 135 657 135 L435 135 C278 135 249 187 249 258 L249 258 Z " />
<glyph glyph-name="v" unicode="v" horiz-adv-x="1105" d="M640 0 L1101 560 L892 560 L552 136 L213 560 L4 560 L465 0 L640 0 Z " />
<glyph glyph-name="w" unicode="w" horiz-adv-x="1382" d="M691 363 L904 0 L1026 0 L1367 560 L1168 560 L961 197 L752 560 L629 560 L420 197 L213 560 L15 560 L356 0 L478 0 L691 363 Z " />
<glyph glyph-name="x" unicode="x" horiz-adv-x="1060" d="M9 560 L398 282 L4 0 L271 0 L530 199 L789 0 L1056 0 L661 282 L1052 560 L785 560 L530 365 L276 560 L9 560 Z " />
<glyph glyph-name="y" unicode="y" horiz-adv-x="1069" d="M452 0 L617 0 L617 171 L1076 560 L831 560 L534 294 L238 560 L-7 560 L452 171 L452 0 Z " />
<glyph glyph-name="z" unicode="z" horiz-adv-x="1030" d="M58 0 L982 0 L982 143 L386 143 L965 450 L965 560 L67 560 L67 417 L634 417 L58 110 L58 0 Z " />
<glyph glyph-name="braceleft" unicode="&#x7b;" horiz-adv-x="518" d="M163 457 C163 437 161 418 121 418 L43 418 L43 282 L121 282 C161 282 163 263 163 243 L163 -15 C163 -89 206 -150 329 -150 L475 -150 L475 -14 L391 -14 C350 -14 349 5 349 25 L349 226 C349 281 323 329 258 350 C323 370 349 418 349 474 L349 675 C349 695 350 714 391 714 L475 714 L475 850 L329 850 C206 850 163 789 163 715 L163 457 Z " />
<glyph glyph-name="bar" unicode="&#x7c;" horiz-adv-x="500" d="M172 850 L172 -150 L328 -150 L328 850 L172 850 Z " />
<glyph glyph-name="braceright" unicode="&#x7d;" horiz-adv-x="518" d="M355 715 C355 789 312 850 189 850 L43 850 L43 714 L127 714 C168 714 169 695 169 675 L169 474 C169 418 195 370 260 350 C195 329 169 281 169 226 L169 25 C169 5 168 -14 127 -14 L43 -14 L43 -150 L189 -150 C312 -150 355 -89 355 -15 L355 243 C355 263 357 282 397 282 L475 282 L475 418 L397 418 C357 418 355 437 355 457 L355 715 Z " />
<glyph glyph-name="asciitilde" unicode="&#x7e;" horiz-adv-x="1298" d="M1018 478 C743 255 570 633 280 420 L280 245 C555 468 728 90 1018 303 L1018 478 Z " />
<glyph glyph-name="uni00A0" unicode="&#xa0;" horiz-adv-x="500" d="" />
<glyph glyph-name="exclamdown" unicode="&#xa1;" horiz-adv-x="407" d="M298 700 L110 700 L110 512 L298 512 L298 700 Z M288 451 L120 451 L111 0 L296 0 L288 451 Z " />
<glyph glyph-name="cent" unicode="&#xa2;" horiz-adv-x="1298" d="M1170 279 L744 279 L774 421 L1170 421 L1170 574 L807 574 L838 721 L670 721 L639 574 L409 574 C207 574 127 473 127 350 C127 227 207 126 409 126 L544 126 L513 -20 L681 -20 L712 126 L1170 126 L1170 279 Z M303 350 C303 402 323 421 453 421 L606 421 L576 279 L455 279 C325 279 303 298 303 350 L303 350 Z " />
<glyph glyph-name="sterling" unicode="&#xa3;" horiz-adv-x="1298" d="M763 426 L432 426 L432 444 C432 487 450 530 551 530 L1063 530 L1063 700 L559 700 C335 700 245 589 245 452 L245 426 L115 426 L115 274 L245 274 L245 229 C245 187 220 162 178 162 L115 162 L115 0 L1183 0 L1183 170 L375 170 C410 186 432 221 432 262 L432 274 L763 274 L763 426 Z " />
<glyph glyph-name="currency" unicode="&#xa4;" horiz-adv-x="1298" d="M784 67 C864 67 929 79 981 101 L1087 -10 L1208 110 L1106 207 C1129 249 1140 298 1140 350 C1140 402 1129 450 1106 492 L1208 590 L1087 710 L981 598 C929 620 864 633 784 633 L513 633 C433 633 368 621 316 599 L211 710 L90 590 L191 493 C168 450 157 402 157 350 C157 298 168 249 191 207 L90 110 L211 -10 L316 101 C368 79 433 67 513 67 L784 67 Z M347 350 C347 415 375 469 514 469 L783 469 C922 469 950 415 950 350 C950 284 922 231 783 231 L514 231 C375 231 347 284 347 350 L347 350 Z " />
<glyph glyph-name="yen" unicode="&#xa5;" horiz-adv-x="1298" d="M957 700 L649 416 L341 700 L72 700 L351 465 L99 465 L99 321 L498 321 L556 269 L556 237 L99 237 L99 93 L556 93 L556 0 L742 0 L742 93 L1199 93 L1199 237 L742 237 L742 269 L800 321 L1199 321 L1199 465 L947 465 L1226 700 L957 700 Z " />
<glyph glyph-name="brokenbar" unicode="&#xa6;" horiz-adv-x="500" d="M328 467 L328 850 L172 850 L172 467 L328 467 Z M172 233 L172 -150 L328 -150 L328 233 L172 233 Z " />
<glyph glyph-name="section" unicode="&#xa7;" horiz-adv-x="1226" d="M286 128 L796 128 C864 128 865 111 865 90 C865 72 864 53 797 53 L217 53 L217 -100 L865 -100 C991 -100 1041 -38 1041 39 C1041 76 1030 108 1005 132 C1115 150 1161 218 1161 300 C1161 396 1099 472 940 472 L429 472 C362 472 361 490 361 510 C361 529 362 547 429 547 L1009 547 L1009 700 L361 700 C235 700 185 638 185 561 C185 524 196 492 221 468 C110 450 65 382 65 300 C65 204 127 128 286 128 L286 128 Z M298 261 C235 261 230 280 230 300 C230 321 236 339 298 339 L928 339 C990 339 996 320 996 300 C996 280 991 261 928 261 L298 261 Z " />
<glyph glyph-name="dieresis" unicode="&#xa8;" horiz-adv-x="500" d="M317 637 L483 637 L483 801 L317 801 L317 637 Z M16 637 L182 637 L182 801 L16 801 L16 637 Z " />
<glyph glyph-name="copyright" unicode="&#xa9;" horiz-adv-x="1208" d="M696 -10 C1022 -10 1150 151 1150 350 C1150 549 1022 710 696 710 L512 710 C186 710 58 549 58 350 C58 151 186 -10 512 -10 L696 -10 Z M513 106 C271 106 193 216 193 350 C193 484 271 594 513 594 L695 594 C937 594 1015 484 1015 350 C1015 216 937 106 695 106 L513 106 Z M833 270 L530 270 C439 270 421 306 421 350 C421 394 439 430 530 430 L833 430 L833 525 L530 525 C371 525 309 446 309 350 C309 253 371 175 530 175 L833 175 L833 270 Z " />
<glyph glyph-name="ordfeminine" unicode="&#xaa;" horiz-adv-x="750" d="M187 350 L226 400 L522 400 L561 350 L702 350 L434 700 L314 700 L48 350 L187 350 Z M374 597 L464 478 L284 478 L374 597 Z " />
<glyph glyph-name="guillemotleft" unicode="&#xab;" horiz-adv-x="873" d="M249 560 L74 282 L251 0 L443 0 L266 282 L441 560 L249 560 Z M604 560 L429 282 L606 0 L798 0 L621 282 L796 560 L604 560 Z " />
<glyph glyph-name="logicalnot" unicode="&#xac;" horiz-adv-x="1298" d="M280 265 L831 265 L831 40 L1018 40 L1018 435 L280 435 L280 265 Z " />
<glyph glyph-name="uni00AD" unicode="&#xad;" horiz-adv-x="600" d="M85 208 L515 208 L515 352 L85 352 L85 208 Z " />
<glyph glyph-name="registered" unicode="&#xae;" horiz-adv-x="1208" d="M696 -10 C1022 -10 1150 151 1150 350 C1150 549 1022 710 696 710 L512 710 C186 710 58 549 58 350 C58 151 186 -10 512 -10 L696 -10 Z M513 106 C271 106 193 216 193 350 C193 484 271 594 513 594 L695 594 C937 594 1015 484 1015 350 C1015 216 937 106 695 106 L513 106 Z M340 175 L445 175 L445 285 L636 285 L773 175 L927 175 L772 293 C838 308 865 352 865 406 C865 472 823 525 714 525 L340 525 L340 175 Z M706 430 C746 430 753 418 753 402 C753 386 746 374 706 374 L445 374 L445 430 L706 430 Z " />
<glyph glyph-name="macron" unicode="&#xaf;" horiz-adv-x="500" d="M32 661 L467 661 L467 779 L32 779 L32 661 Z " />
<glyph glyph-name="degree" unicode="&#xb0;" horiz-adv-x="562" d="M72 505 C72 385 168 299 281 299 C394 299 490 385 490 505 C490 624 394 710 281 710 C168 710 72 624 72 505 L72 505 Z M214 505 C214 549 239 581 281 581 C323 581 348 549 348 505 C348 460 323 428 281 428 C239 428 214 460 214 505 L214 505 Z " />
<glyph glyph-name="plusminus" unicode="&#xb1;" horiz-adv-x="1298" d="M280 400 L556 400 L556 270 L742 270 L742 400 L1018 400 L1018 570 L742 570 L742 700 L556 700 L556 570 L280 570 L280 400 Z M280 0 L1018 0 L1018 170 L280 170 L280 0 Z " />
<glyph glyph-name="twosuperior" unicode="&#xb2;" horiz-adv-x="737" d="M501 600 C537 600 540 589 540 576 C540 565 536 554 501 554 L229 554 C130 554 92 513 92 452 L92 350 L638 350 L638 450 L202 450 L202 472 C202 483 209 496 236 496 L517 496 C615 496 654 538 654 598 C654 657 615 700 517 700 L111 700 L111 600 L501 600 Z " />
<glyph glyph-name="threesuperior" unicode="&#xb3;" horiz-adv-x="737" d="M486 496 C522 496 524 485 524 472 C524 460 521 450 486 450 L77 450 L77 350 L526 350 C612 350 645 392 645 443 C645 485 624 520 573 532 C605 549 620 577 620 609 C620 661 588 700 505 700 L88 700 L88 600 L464 600 C500 600 502 589 502 576 C502 565 499 554 464 554 L129 554 L129 496 L486 496 Z " />
<glyph glyph-name="acute" unicode="&#xb4;" horiz-adv-x="500" d="M144 635 L265 635 L445 806 L240 806 L144 635 Z " />
<glyph glyph-name="uni00B5" unicode="&#xb5;" horiz-adv-x="1298" d="M1051 0 L1173 0 L1173 560 L986 560 L986 350 C986 249 914 170 717 170 L405 170 C329 170 312 194 312 221 L312 560 L125 560 L125 -200 L312 -200 L312 48 C334 17 374 0 443 0 L738 0 C863 0 951 37 1007 89 L1051 0 Z " />
<glyph glyph-name="paragraph" unicode="&#xb6;" horiz-adv-x="1199" d="M670 530 L824 530 L824 -100 L1011 -100 L1011 530 L1111 530 L1111 700 L356 700 C139 700 55 593 55 463 C55 329 139 225 356 225 L483 225 L483 -100 L670 -100 L670 530 Z " />
<glyph glyph-name="periodcentered" unicode="&#xb7;" horiz-adv-x="367" d="M90 256 L277 256 L277 444 L90 444 L90 256 Z " />
<glyph glyph-name="cedilla" unicode="&#xb8;" horiz-adv-x="500" d="M173 -143 L217 -143 C265 -144 288 -149 288 -179 C288 -231 148 -221 105 -190 L105 -271 C181 -310 414 -333 414 -184 C414 -95 344 -71 256 -71 L274 0 L210 0 L173 -143 Z " />
<glyph glyph-name="onesuperior" unicode="&#xb9;" horiz-adv-x="737" d="M229 600 L342 600 L342 450 L154 450 L154 350 L582 350 L582 450 L453 450 L453 700 L229 700 L229 600 Z " />
<glyph glyph-name="ordmasculine" unicode="&#xba;" horiz-adv-x="748" d="M449 345 C612 345 676 425 676 525 C676 624 612 705 449 705 L299 705 C136 705 72 624 72 525 C72 425 136 345 299 345 L449 345 Z M300 445 C208 445 182 481 182 525 C182 568 208 605 300 605 L449 605 C540 605 566 568 566 525 C566 481 540 445 449 445 L300 445 Z " />
<glyph glyph-name="guillemotright" unicode="&#xbb;" horiz-adv-x="873" d="M432 560 L607 282 L430 0 L622 0 L799 282 L624 560 L432 560 Z M77 560 L252 282 L75 0 L267 0 L444 282 L269 560 L77 560 Z " />
<glyph glyph-name="onequarter" unicode="&#xbc;" horiz-adv-x="1474" d="M229 600 L342 600 L342 450 L154 450 L154 350 L582 350 L582 450 L453 450 L453 700 L229 700 L229 600 Z M1045 700 L258 0 L431 0 L1217 700 L1045 700 Z M1244 350 L815 138 L815 53 L1238 53 L1238 0 L1348 0 L1348 53 L1406 53 L1406 153 L1348 153 L1348 350 L1244 350 Z M1021 153 L1238 258 L1238 153 L1021 153 Z " />
<glyph glyph-name="onehalf" unicode="&#xbd;" horiz-adv-x="1474" d="M229 600 L342 600 L342 450 L154 450 L154 350 L582 350 L582 450 L453 450 L453 700 L229 700 L229 600 Z M1045 700 L258 0 L431 0 L1217 700 L1045 700 Z M1238 250 C1274 250 1277 239 1277 226 C1277 215 1273 204 1238 204 L966 204 C867 204 829 163 829 102 L829 0 L1375 0 L1375 100 L939 100 L939 122 C939 133 946 146 973 146 L1254 146 C1352 146 1391 188 1391 248 C1391 307 1352 350 1254 350 L848 350 L848 250 L1238 250 Z " />
<glyph glyph-name="threequarters" unicode="&#xbe;" horiz-adv-x="1474" d="M486 496 C522 496 524 485 524 472 C524 460 521 450 486 450 L77 450 L77 350 L526 350 C612 350 645 392 645 443 C645 485 624 520 573 532 C605 549 620 577 620 609 C620 661 588 700 505 700 L88 700 L88 600 L464 600 C500 600 502 589 502 576 C502 565 499 554 464 554 L129 554 L129 496 L486 496 Z M1045 700 L258 0 L431 0 L1217 700 L1045 700 Z M1244 350 L815 138 L815 53 L1238 53 L1238 0 L1348 0 L1348 53 L1406 53 L1406 153 L1348 153 L1348 350 L1244 350 Z M1021 153 L1238 258 L1238 153 L1021 153 Z " />
<glyph glyph-name="questiondown" unicode="&#xbf;" horiz-adv-x="1070" d="M795 451 L626 451 L626 422 L300 422 C102 422 25 332 25 211 C25 92 102 0 300 0 L1047 0 L1047 170 L309 170 C233 170 223 198 223 224 C223 251 233 278 309 278 L795 278 L795 451 Z M804 700 L616 700 L616 512 L804 512 L804 700 Z " />
<glyph glyph-name="Agrave" unicode="&#xc0;" horiz-adv-x="1293" d="M1060 0 L1290 0 L746 700 L548 700 L3 0 L233 0 L317 110 L975 110 L1060 0 Z M646 539 L858 263 L434 263 L646 539 Z M655 946 L450 946 L630 775 L751 775 L655 946 Z " />
<glyph glyph-name="Aacute" unicode="&#xc1;" horiz-adv-x="1293" d="M1060 0 L1290 0 L746 700 L548 700 L3 0 L233 0 L317 110 L975 110 L1060 0 Z M646 539 L858 263 L434 263 L646 539 Z M540 775 L661 775 L841 946 L636 946 L540 775 Z " />
<glyph glyph-name="Acircumflex" unicode="&#xc2;" horiz-adv-x="1293" d="M1060 0 L1290 0 L746 700 L548 700 L3 0 L233 0 L317 110 L975 110 L1060 0 Z M646 539 L858 263 L434 263 L646 539 Z M752 946 L539 946 L430 775 L551 775 L646 858 L741 775 L862 775 L752 946 Z " />
<glyph glyph-name="Atilde" unicode="&#xc3;" horiz-adv-x="1293" d="M1060 0 L1290 0 L746 700 L548 700 L3 0 L233 0 L317 110 L975 110 L1060 0 Z M646 539 L858 263 L434 263 L646 539 Z M746 948 C747 917 738 904 716 904 C684 904 636 942 575 942 C503 942 458 897 455 772 L546 772 C545 802 554 816 576 816 C607 816 655 777 717 777 C789 777 836 821 837 948 L746 948 Z " />
<glyph glyph-name="Adieresis" unicode="&#xc4;" horiz-adv-x="1293" d="M1060 0 L1290 0 L746 700 L548 700 L3 0 L233 0 L317 110 L975 110 L1060 0 Z M646 539 L858 263 L434 263 L646 539 Z M714 777 L880 777 L880 941 L714 941 L714 777 Z M413 777 L579 777 L579 941 L413 941 L413 777 Z " />
<glyph glyph-name="Aring" unicode="&#xc5;" horiz-adv-x="1293" d="M1060 0 L1290 0 L746 700 L548 700 L3 0 L233 0 L317 110 L975 110 L1060 0 Z M646 539 L858 263 L434 263 L646 539 Z M611 861 C611 880 627 896 647 896 C665 896 681 880 681 861 C681 842 665 827 647 827 C627 827 611 842 611 861 L611 861 Z M510 861 C510 794 564 742 647 742 C728 742 782 794 782 861 C782 928 728 980 647 980 C564 980 510 928 510 861 L510 861 Z " />
<glyph glyph-name="AE" unicode="&#xc6;" horiz-adv-x="1725" d="M746 106 L746 0 L1652 0 L1652 170 L933 170 L933 274 L1550 274 L1550 426 L933 426 L933 530 L1652 530 L1652 700 L648 700 L3 0 L238 0 L334 106 L746 106 Z M746 561 L746 258 L468 258 L746 561 Z " />
<glyph glyph-name="Ccedilla" unicode="&#xc7;" horiz-adv-x="1184" d="M566 -143 L610 -143 C658 -144 681 -149 681 -179 C681 -231 541 -221 498 -190 L498 -271 C574 -310 807 -333 807 -184 C807 -95 737 -71 649 -71 L667 0 L1111 0 L1111 170 L510 170 C315 170 268 250 268 350 C268 450 315 530 510 530 L1111 530 L1111 700 L509 700 C192 700 68 543 68 350 C68 157 192 0 509 0 L603 0 L566 -143 Z " />
<glyph glyph-name="Egrave" unicode="&#xc8;" horiz-adv-x="1199" d="M115 0 L1126 0 L1126 170 L302 170 L302 274 L1024 274 L1024 426 L302 426 L302 530 L1126 530 L1126 700 L115 700 L115 0 Z M618 946 L413 946 L593 775 L714 775 L618 946 Z " />
<glyph glyph-name="Eacute" unicode="&#xc9;" horiz-adv-x="1199" d="M115 0 L1126 0 L1126 170 L302 170 L302 274 L1024 274 L1024 426 L302 426 L302 530 L1126 530 L1126 700 L115 700 L115 0 Z M503 775 L624 775 L804 946 L599 946 L503 775 Z " />
<glyph glyph-name="Ecircumflex" unicode="&#xca;" horiz-adv-x="1199" d="M115 0 L1126 0 L1126 170 L302 170 L302 274 L1024 274 L1024 426 L302 426 L302 530 L1126 530 L1126 700 L115 700 L115 0 Z M715 946 L502 946 L393 775 L514 775 L609 858 L704 775 L825 775 L715 946 Z " />
<glyph glyph-name="Edieresis" unicode="&#xcb;" horiz-adv-x="1199" d="M115 0 L1126 0 L1126 170 L302 170 L302 274 L1024 274 L1024 426 L302 426 L302 530 L1126 530 L1126 700 L115 700 L115 0 Z M676 777 L842 777 L842 941 L676 941 L676 777 Z M375 777 L541 777 L541 941 L375 941 L375 777 Z " />
<glyph glyph-name="Igrave" unicode="&#xcc;" horiz-adv-x="417" d="M115 0 L302 0 L302 700 L115 700 L115 0 Z M218 946 L13 946 L193 775 L314 775 L218 946 Z " />
<glyph glyph-name="Iacute" unicode="&#xcd;" horiz-adv-x="417" d="M115 0 L302 0 L302 700 L115 700 L115 0 Z M103 775 L224 775 L404 946 L199 946 L103 775 Z " />
<glyph glyph-name="Icircumflex" unicode="&#xce;" horiz-adv-x="417" d="M115 0 L302 0 L302 700 L115 700 L115 0 Z M315 946 L102 946 L-7 775 L114 775 L209 858 L304 775 L425 775 L315 946 Z " />
<glyph glyph-name="Idieresis" unicode="&#xcf;" horiz-adv-x="417" d="M115 0 L302 0 L302 700 L115 700 L115 0 Z M276 777 L442 777 L442 941 L276 941 L276 777 Z M-25 777 L141 777 L141 941 L-25 941 L-25 777 Z " />
<glyph glyph-name="Eth" unicode="&#xd0;" horiz-adv-x="1255" d="M-15 274 L115 274 L115 0 L746 0 C1063 0 1187 157 1187 350 C1187 543 1063 700 746 700 L115 700 L115 426 L-15 426 L-15 274 Z M745 530 C940 530 987 450 987 350 C987 250 940 170 745 170 L302 170 L302 274 L647 274 L647 426 L302 426 L302 530 L745 530 Z " />
<glyph glyph-name="Ntilde" unicode="&#xd1;" horiz-adv-x="1309" d="M1017 0 L1194 0 L1194 700 L1007 700 L1007 219 L292 700 L115 700 L115 0 L302 0 L302 481 L1017 0 Z M754 948 C755 917 746 904 724 904 C692 904 644 942 583 942 C511 942 466 897 463 772 L554 772 C553 802 562 816 584 816 C615 816 663 777 725 777 C797 777 844 821 845 948 L754 948 Z " />
<glyph glyph-name="Ograve" unicode="&#xd2;" horiz-adv-x="1348" d="M826 -10 C1152 -10 1280 151 1280 350 C1280 549 1152 710 826 710 L522 710 C196 710 68 549 68 350 C68 151 196 -10 522 -10 L826 -10 Z M523 160 C319 160 267 244 267 350 C267 456 319 540 524 540 L825 540 C1029 540 1080 456 1080 350 C1080 244 1029 160 825 160 L523 160 Z M683 946 L478 946 L658 775 L779 775 L683 946 Z " />
<glyph glyph-name="Oacute" unicode="&#xd3;" horiz-adv-x="1348" d="M826 -10 C1152 -10 1280 151 1280 350 C1280 549 1152 710 826 710 L522 710 C196 710 68 549 68 350 C68 151 196 -10 522 -10 L826 -10 Z M523 160 C319 160 267 244 267 350 C267 456 319 540 524 540 L825 540 C1029 540 1080 456 1080 350 C1080 244 1029 160 825 160 L523 160 Z M568 775 L689 775 L869 946 L664 946 L568 775 Z " />
<glyph glyph-name="Ocircumflex" unicode="&#xd4;" horiz-adv-x="1348" d="M826 -10 C1152 -10 1280 151 1280 350 C1280 549 1152 710 826 710 L522 710 C196 710 68 549 68 350 C68 151 196 -10 522 -10 L826 -10 Z M523 160 C319 160 267 244 267 350 C267 456 319 540 524 540 L825 540 C1029 540 1080 456 1080 350 C1080 244 1029 160 825 160 L523 160 Z M780 946 L567 946 L458 775 L579 775 L674 858 L769 775 L890 775 L780 946 Z " />
<glyph glyph-name="Otilde" unicode="&#xd5;" horiz-adv-x="1348" d="M826 -10 C1152 -10 1280 151 1280 350 C1280 549 1152 710 826 710 L522 710 C196 710 68 549 68 350 C68 151 196 -10 522 -10 L826 -10 Z M523 160 C319 160 267 244 267 350 C267 456 319 540 524 540 L825 540 C1029 540 1080 456 1080 350 C1080 244 1029 160 825 160 L523 160 Z M774 948 C775 917 766 904 744 904 C712 904 664 942 603 942 C531 942 486 897 483 772 L574 772 C573 802 582 816 604 816 C635 816 683 777 745 777 C817 777 864 821 865 948 L774 948 Z " />
<glyph glyph-name="Odieresis" unicode="&#xd6;" horiz-adv-x="1348" d="M826 -10 C1152 -10 1280 151 1280 350 C1280 549 1152 710 826 710 L522 710 C196 710 68 549 68 350 C68 151 196 -10 522 -10 L826 -10 Z M523 160 C319 160 267 244 267 350 C267 456 319 540 524 540 L825 540 C1029 540 1080 456 1080 350 C1080 244 1029 160 825 160 L523 160 Z M741 777 L907 777 L907 941 L741 941 L741 777 Z M440 777 L606 777 L606 941 L440 941 L440 777 Z " />
<glyph glyph-name="multiply" unicode="&#xd7;" horiz-adv-x="1298" d="M985 545 L859 671 L646 463 L439 660 L313 534 L522 347 L313 155 L439 29 L647 231 L859 29 L985 155 L769 348 L985 545 Z " />
<glyph glyph-name="Oslash" unicode="&#xd8;" horiz-adv-x="1348" d="M826 -10 C1152 -10 1280 151 1280 350 C1280 504 1203 636 1016 687 L1095 800 L883 800 L820 710 L522 710 C196 710 68 549 68 350 C68 196 144 64 331 13 L252 -100 L464 -100 L527 -10 L826 -10 Z M1080 350 C1080 244 1029 160 825 160 L646 160 L908 534 C1043 513 1080 439 1080 350 L1080 350 Z M267 350 C267 456 319 540 524 540 L701 540 L438 166 C304 187 267 260 267 350 L267 350 Z " />
<glyph glyph-name="Ugrave" unicode="&#xd9;" horiz-adv-x="1275" d="M282 323 L282 700 L95 700 L95 323 C95 130 199 -10 516 -10 L759 -10 C1076 -10 1180 130 1180 323 L1180 700 L993 700 L993 323 C993 228 948 160 758 160 L517 160 C327 160 282 228 282 323 L282 323 Z M646 946 L441 946 L621 775 L742 775 L646 946 Z " />
<glyph glyph-name="Uacute" unicode="&#xda;" horiz-adv-x="1275" d="M282 323 L282 700 L95 700 L95 323 C95 130 199 -10 516 -10 L759 -10 C1076 -10 1180 130 1180 323 L1180 700 L993 700 L993 323 C993 228 948 160 758 160 L517 160 C327 160 282 228 282 323 L282 323 Z M531 775 L652 775 L832 946 L627 946 L531 775 Z " />
<glyph glyph-name="Ucircumflex" unicode="&#xdb;" horiz-adv-x="1275" d="M282 323 L282 700 L95 700 L95 323 C95 130 199 -10 516 -10 L759 -10 C1076 -10 1180 130 1180 323 L1180 700 L993 700 L993 323 C993 228 948 160 758 160 L517 160 C327 160 282 228 282 323 L282 323 Z M743 946 L530 946 L421 775 L542 775 L637 858 L732 775 L853 775 L743 946 Z " />
<glyph glyph-name="Udieresis" unicode="&#xdc;" horiz-adv-x="1275" d="M282 323 L282 700 L95 700 L95 323 C95 130 199 -10 516 -10 L759 -10 C1076 -10 1180 130 1180 323 L1180 700 L993 700 L993 323 C993 228 948 160 758 160 L517 160 C327 160 282 228 282 323 L282 323 Z M705 777 L871 777 L871 941 L705 941 L705 777 Z M404 777 L570 777 L570 941 L404 941 L404 777 Z " />
<glyph glyph-name="Yacute" unicode="&#xdd;" horiz-adv-x="1257" d="M535 0 L722 0 L722 211 L1264 700 L988 700 L629 362 L269 700 L-7 700 L535 211 L535 0 Z M522 775 L643 775 L823 946 L618 946 L522 775 Z " />
<glyph glyph-name="Thorn" unicode="&#xde;" horiz-adv-x="1195" d="M115 0 L302 0 L302 113 L870 113 C1087 113 1171 217 1171 350 C1171 480 1087 587 870 587 L302 587 L302 700 L115 700 L115 0 Z M866 418 C961 418 973 387 973 350 C973 312 961 282 866 282 L302 282 L302 418 L866 418 Z " />
<glyph glyph-name="germandbls" unicode="&#xdf;" horiz-adv-x="1087" d="M464 218 L802 218 C861 218 867 200 867 180 C867 161 862 143 802 143 L395 143 L395 0 L810 0 C980 0 1040 75 1040 172 C1040 270 980 342 810 342 L721 342 L960 450 L960 560 L442 560 C173 560 85 450 85 296 L85 0 L249 0 L249 296 C249 368 286 417 443 417 L644 417 L464 329 L464 218 Z " />
<glyph glyph-name="agrave" unicode="&#xe0;" horiz-adv-x="1105" d="M897 0 L1101 0 L640 560 L465 560 L4 0 L208 0 L283 93 L821 93 L897 0 Z M552 424 L719 218 L385 218 L552 424 Z M561 806 L356 806 L536 635 L657 635 L561 806 Z " />
<glyph glyph-name="aacute" unicode="&#xe1;" horiz-adv-x="1105" d="M897 0 L1101 0 L640 560 L465 560 L4 0 L208 0 L283 93 L821 93 L897 0 Z M552 424 L719 218 L385 218 L552 424 Z M446 635 L567 635 L747 806 L542 806 L446 635 Z " />
<glyph glyph-name="acircumflex" unicode="&#xe2;" horiz-adv-x="1105" d="M897 0 L1101 0 L640 560 L465 560 L4 0 L208 0 L283 93 L821 93 L897 0 Z M552 424 L719 218 L385 218 L552 424 Z M658 806 L445 806 L336 635 L457 635 L552 718 L647 635 L768 635 L658 806 Z " />
<glyph glyph-name="atilde" unicode="&#xe3;" horiz-adv-x="1105" d="M897 0 L1101 0 L640 560 L465 560 L4 0 L208 0 L283 93 L821 93 L897 0 Z M552 424 L719 218 L385 218 L552 424 Z M652 808 C653 777 644 764 622 764 C590 764 542 802 481 802 C409 802 364 757 361 632 L452 632 C451 662 460 676 482 676 C513 676 561 637 623 637 C695 637 742 681 743 808 L652 808 Z " />
<glyph glyph-name="adieresis" unicode="&#xe4;" horiz-adv-x="1105" d="M897 0 L1101 0 L640 560 L465 560 L4 0 L208 0 L283 93 L821 93 L897 0 Z M552 424 L719 218 L385 218 L552 424 Z M620 637 L786 637 L786 801 L620 801 L620 637 Z M319 637 L485 637 L485 801 L319 801 L319 637 Z " />
<glyph glyph-name="aring" unicode="&#xe5;" horiz-adv-x="1105" d="M897 0 L1101 0 L640 560 L465 560 L4 0 L208 0 L283 93 L821 93 L897 0 Z M552 424 L719 218 L385 218 L552 424 Z M517 721 C517 740 533 756 553 756 C571 756 587 740 587 721 C587 702 571 687 553 687 C533 687 517 702 517 721 L517 721 Z M416 721 C416 654 470 602 553 602 C634 602 688 654 688 721 C688 788 634 840 553 840 C470 840 416 788 416 721 L416 721 Z " />
<glyph glyph-name="ae" unicode="&#xe6;" horiz-adv-x="1475" d="M637 83 L637 0 L1409 0 L1409 143 L802 143 L802 218 L1321 218 L1321 342 L802 342 L802 417 L1409 417 L1409 560 L550 560 L4 0 L212 0 L292 83 L637 83 Z M637 442 L637 208 L410 208 L637 442 Z " />
<glyph glyph-name="ccedilla" unicode="&#xe7;" horiz-adv-x="1014" d="M471 -143 L515 -143 C563 -144 586 -149 586 -179 C586 -231 446 -221 403 -190 L403 -271 C479 -310 712 -333 712 -184 C712 -95 642 -71 554 -71 L572 0 L949 0 L949 143 L428 143 C267 143 237 204 237 280 C237 356 267 417 428 417 L949 417 L949 560 L428 560 C158 560 61 434 61 280 C61 126 158 0 428 0 L508 0 L471 -143 Z " />
<glyph glyph-name="egrave" unicode="&#xe8;" horiz-adv-x="1032" d="M105 0 L966 0 L966 143 L271 143 L271 218 L878 218 L878 342 L271 342 L271 417 L966 417 L966 560 L105 560 L105 0 Z M537 806 L332 806 L512 635 L633 635 L537 806 Z " />
<glyph glyph-name="eacute" unicode="&#xe9;" horiz-adv-x="1032" d="M105 0 L966 0 L966 143 L271 143 L271 218 L878 218 L878 342 L271 342 L271 417 L966 417 L966 560 L105 560 L105 0 Z M422 635 L543 635 L723 806 L518 806 L422 635 Z " />
<glyph glyph-name="ecircumflex" unicode="&#xea;" horiz-adv-x="1032" d="M105 0 L966 0 L966 143 L271 143 L271 218 L878 218 L878 342 L271 342 L271 417 L966 417 L966 560 L105 560 L105 0 Z M634 806 L421 806 L312 635 L433 635 L528 718 L623 635 L744 635 L634 806 Z " />
<glyph glyph-name="edieresis" unicode="&#xeb;" horiz-adv-x="1032" d="M105 0 L966 0 L966 143 L271 143 L271 218 L878 218 L878 342 L271 342 L271 417 L966 417 L966 560 L105 560 L105 0 Z M595 637 L761 637 L761 801 L595 801 L595 637 Z M294 637 L460 637 L460 801 L294 801 L294 637 Z " />
<glyph glyph-name="igrave" unicode="&#xec;" horiz-adv-x="376" d="M105 0 L271 0 L271 560 L105 560 L105 0 Z M197 806 L-8 806 L172 635 L293 635 L197 806 Z " />
<glyph glyph-name="iacute" unicode="&#xed;" horiz-adv-x="376" d="M105 0 L271 0 L271 560 L105 560 L105 0 Z M82 635 L203 635 L383 806 L178 806 L82 635 Z " />
<glyph glyph-name="icircumflex" unicode="&#xee;" horiz-adv-x="376" d="M105 0 L271 0 L271 560 L105 560 L105 0 Z M294 806 L81 806 L-28 635 L93 635 L188 718 L283 635 L404 635 L294 806 Z " />
<glyph glyph-name="idieresis" unicode="&#xef;" horiz-adv-x="376" d="M105 0 L271 0 L271 560 L105 560 L105 0 Z M256 637 L422 637 L422 801 L256 801 L256 637 Z M-45 637 L121 637 L121 801 L-45 801 L-45 637 Z " />
<glyph glyph-name="eth" unicode="&#xf0;" horiz-adv-x="1079" d="M-15 218 L105 218 L105 0 L651 0 C920 0 1018 126 1018 280 C1018 434 920 560 651 560 L105 560 L105 342 L-15 342 L-15 218 Z M650 417 C812 417 842 356 842 280 C842 204 812 143 650 143 L271 143 L271 218 L571 218 L571 342 L271 342 L271 417 L650 417 Z " />
<glyph glyph-name="ntilde" unicode="&#xf1;" horiz-adv-x="1129" d="M1024 0 L1024 560 L859 560 L859 185 L262 560 L105 560 L105 0 L271 0 L271 375 L867 0 L1024 0 Z M664 808 C665 777 656 764 634 764 C602 764 554 802 493 802 C421 802 376 757 373 632 L464 632 C463 662 472 676 494 676 C525 676 573 637 635 637 C707 637 754 681 755 808 L664 808 Z " />
<glyph glyph-name="ograve" unicode="&#xf2;" horiz-adv-x="1153" d="M715 -8 C992 -8 1092 121 1092 280 C1092 439 992 568 715 568 L439 568 C162 568 61 439 61 280 C61 121 162 -8 439 -8 L715 -8 Z M440 135 C270 135 236 199 236 280 C236 361 270 425 440 425 L714 425 C882 425 917 361 917 280 C917 199 882 135 714 135 L440 135 Z M585 806 L380 806 L560 635 L681 635 L585 806 Z " />
<glyph glyph-name="oacute" unicode="&#xf3;" horiz-adv-x="1153" d="M715 -8 C992 -8 1092 121 1092 280 C1092 439 992 568 715 568 L439 568 C162 568 61 439 61 280 C61 121 162 -8 439 -8 L715 -8 Z M440 135 C270 135 236 199 236 280 C236 361 270 425 440 425 L714 425 C882 425 917 361 917 280 C917 199 882 135 714 135 L440 135 Z M470 635 L591 635 L771 806 L566 806 L470 635 Z " />
<glyph glyph-name="ocircumflex" unicode="&#xf4;" horiz-adv-x="1153" d="M715 -8 C992 -8 1092 121 1092 280 C1092 439 992 568 715 568 L439 568 C162 568 61 439 61 280 C61 121 162 -8 439 -8 L715 -8 Z M440 135 C270 135 236 199 236 280 C236 361 270 425 440 425 L714 425 C882 425 917 361 917 280 C917 199 882 135 714 135 L440 135 Z M682 806 L469 806 L360 635 L481 635 L576 718 L671 635 L792 635 L682 806 Z " />
<glyph glyph-name="otilde" unicode="&#xf5;" horiz-adv-x="1153" d="M715 -8 C992 -8 1092 121 1092 280 C1092 439 992 568 715 568 L439 568 C162 568 61 439 61 280 C61 121 162 -8 439 -8 L715 -8 Z M440 135 C270 135 236 199 236 280 C236 361 270 425 440 425 L714 425 C882 425 917 361 917 280 C917 199 882 135 714 135 L440 135 Z M676 808 C677 777 668 764 646 764 C614 764 566 802 505 802 C433 802 388 757 385 632 L476 632 C475 662 484 676 506 676 C537 676 585 637 647 637 C719 637 766 681 767 808 L676 808 Z " />
<glyph glyph-name="odieresis" unicode="&#xf6;" horiz-adv-x="1153" d="M715 -8 C992 -8 1092 121 1092 280 C1092 439 992 568 715 568 L439 568 C162 568 61 439 61 280 C61 121 162 -8 439 -8 L715 -8 Z M440 135 C270 135 236 199 236 280 C236 361 270 425 440 425 L714 425 C882 425 917 361 917 280 C917 199 882 135 714 135 L440 135 Z M644 637 L810 637 L810 801 L644 801 L644 637 Z M343 637 L509 637 L509 801 L343 801 L343 637 Z " />
<glyph glyph-name="divide" unicode="&#xf7;" horiz-adv-x="1298" d="M280 265 L1018 265 L1018 435 L280 435 L280 265 Z M555 -5 L743 -5 L743 183 L555 183 L555 -5 Z M555 517 L743 517 L743 705 L555 705 L555 517 Z " />
<glyph glyph-name="oslash" unicode="&#xf8;" horiz-adv-x="1153" d="M715 -8 C992 -8 1092 121 1092 280 C1092 405 1030 511 869 551 L935 640 L748 640 L695 568 L439 568 C162 568 61 439 61 280 C61 155 123 49 283 9 L217 -80 L404 -80 L457 -8 L715 -8 Z M917 280 C917 199 882 135 714 135 L562 135 L774 421 C890 407 917 350 917 280 L917 280 Z M236 280 C236 361 270 425 440 425 L589 425 L378 138 C261 153 236 210 236 280 L236 280 Z " />
<glyph glyph-name="ugrave" unicode="&#xf9;" horiz-adv-x="1093" d="M249 258 L249 560 L85 560 L85 258 C85 104 165 -8 434 -8 L658 -8 C928 -8 1008 104 1008 258 L1008 560 L842 560 L842 258 C842 187 814 135 657 135 L435 135 C278 135 249 187 249 258 L249 258 Z M555 806 L350 806 L530 635 L651 635 L555 806 Z " />
<glyph glyph-name="uacute" unicode="&#xfa;" horiz-adv-x="1093" d="M249 258 L249 560 L85 560 L85 258 C85 104 165 -8 434 -8 L658 -8 C928 -8 1008 104 1008 258 L1008 560 L842 560 L842 258 C842 187 814 135 657 135 L435 135 C278 135 249 187 249 258 L249 258 Z M440 635 L561 635 L741 806 L536 806 L440 635 Z " />
<glyph glyph-name="ucircumflex" unicode="&#xfb;" horiz-adv-x="1093" d="M249 258 L249 560 L85 560 L85 258 C85 104 165 -8 434 -8 L658 -8 C928 -8 1008 104 1008 258 L1008 560 L842 560 L842 258 C842 187 814 135 657 135 L435 135 C278 135 249 187 249 258 L249 258 Z M652 806 L439 806 L330 635 L451 635 L546 718 L641 635 L762 635 L652 806 Z " />
<glyph glyph-name="udieresis" unicode="&#xfc;" horiz-adv-x="1093" d="M249 258 L249 560 L85 560 L85 258 C85 104 165 -8 434 -8 L658 -8 C928 -8 1008 104 1008 258 L1008 560 L842 560 L842 258 C842 187 814 135 657 135 L435 135 C278 135 249 187 249 258 L249 258 Z M614 637 L780 637 L780 801 L614 801 L614 637 Z M313 637 L479 637 L479 801 L313 801 L313 637 Z " />
<glyph glyph-name="yacute" unicode="&#xfd;" horiz-adv-x="1069" d="M452 0 L617 0 L617 171 L1076 560 L831 560 L534 294 L238 560 L-7 560 L452 171 L452 0 Z M429 635 L550 635 L730 806 L525 806 L429 635 Z " />
<glyph glyph-name="thorn" unicode="&#xfe;" horiz-adv-x="1039" d="M105 0 L271 0 L271 88 L752 88 C938 88 1004 172 1004 280 C1004 385 938 472 752 472 L271 472 L271 560 L105 560 L105 0 Z M748 328 C827 328 831 307 831 280 C831 254 827 232 748 232 L271 232 L271 328 L748 328 Z " />
<glyph glyph-name="ydieresis" unicode="&#xff;" horiz-adv-x="1069" d="M452 0 L617 0 L617 171 L1076 560 L831 560 L534 294 L238 560 L-7 560 L452 171 L452 0 Z M602 637 L768 637 L768 801 L602 801 L602 637 Z M301 637 L467 637 L467 801 L301 801 L301 637 Z " />
<glyph glyph-name="Amacron" unicode="&#x100;" horiz-adv-x="1293" d="M1060 0 L1290 0 L746 700 L548 700 L3 0 L233 0 L317 110 L975 110 L1060 0 Z M646 539 L858 263 L434 263 L646 539 Z M429 801 L864 801 L864 919 L429 919 L429 801 Z " />
<glyph glyph-name="amacron" unicode="&#x101;" horiz-adv-x="1105" d="M897 0 L1101 0 L640 560 L465 560 L4 0 L208 0 L283 93 L821 93 L897 0 Z M552 424 L719 218 L385 218 L552 424 Z M335 661 L770 661 L770 779 L335 779 L335 661 Z " />
<glyph glyph-name="Abreve" unicode="&#x102;" horiz-adv-x="1293" d="M1060 0 L1290 0 L746 700 L548 700 L3 0 L233 0 L317 110 L975 110 L1060 0 Z M646 539 L858 263 L434 263 L646 539 Z M646 887 C584 887 556 912 553 948 L451 948 C455 865 491 773 646 773 C800 773 837 865 841 948 L739 948 C735 912 707 887 646 887 L646 887 Z " />
<glyph glyph-name="abreve" unicode="&#x103;" horiz-adv-x="1105" d="M897 0 L1101 0 L640 560 L465 560 L4 0 L208 0 L283 93 L821 93 L897 0 Z M552 424 L719 218 L385 218 L552 424 Z M552 747 C490 747 462 772 459 808 L357 808 C361 725 397 633 552 633 C706 633 743 725 747 808 L645 808 C641 772 613 747 552 747 L552 747 Z " />
<glyph glyph-name="Aogonek" unicode="&#x104;" horiz-adv-x="1293" d="M897 -183 C897 -248 959 -291 1049 -291 C1098 -291 1149 -288 1205 -268 L1205 -187 C1169 -202 1151 -205 1123 -205 C1075 -205 1042 -184 1042 -142 C1042 -79 1094 -35 1152 0 L1290 0 L746 700 L548 700 L3 0 L233 0 L317 110 L975 110 L1060 0 C976 -34 897 -92 897 -183 L897 -183 Z M646 539 L858 263 L434 263 L646 539 Z " />
<glyph glyph-name="aogonek" unicode="&#x105;" horiz-adv-x="1105" d="M734 -183 C734 -248 796 -291 886 -291 C935 -291 986 -288 1042 -268 L1042 -187 C1006 -202 988 -205 960 -205 C912 -205 879 -184 879 -142 C879 -79 931 -35 989 0 L1101 0 L640 560 L465 560 L4 0 L208 0 L283 93 L821 93 L897 0 C813 -34 734 -92 734 -183 L734 -183 Z M552 424 L719 218 L385 218 L552 424 Z " />
<glyph glyph-name="Cacute" unicode="&#x106;" horiz-adv-x="1184" d="M268 350 C268 450 315 530 510 530 L1111 530 L1111 700 L509 700 C192 700 68 543 68 350 C68 157 192 0 509 0 L1111 0 L1111 170 L510 170 C315 170 268 250 268 350 L268 350 Z M536 775 L657 775 L837 946 L632 946 L536 775 Z " />
<glyph glyph-name="cacute" unicode="&#x107;" horiz-adv-x="1014" d="M237 280 C237 356 267 417 428 417 L949 417 L949 560 L428 560 C158 560 61 434 61 280 C61 126 158 0 428 0 L949 0 L949 143 L428 143 C267 143 237 204 237 280 L237 280 Z M441 635 L562 635 L742 806 L537 806 L441 635 Z " />
<glyph glyph-name="Ccircumflex" unicode="&#x108;" horiz-adv-x="1184" d="M268 350 C268 450 315 530 510 530 L1111 530 L1111 700 L509 700 C192 700 68 543 68 350 C68 157 192 0 509 0 L1111 0 L1111 170 L510 170 C315 170 268 250 268 350 L268 350 Z M748 946 L535 946 L426 775 L547 775 L642 858 L737 775 L858 775 L748 946 Z " />
<glyph glyph-name="ccircumflex" unicode="&#x109;" horiz-adv-x="1014" d="M237 280 C237 356 267 417 428 417 L949 417 L949 560 L428 560 C158 560 61 434 61 280 C61 126 158 0 428 0 L949 0 L949 143 L428 143 C267 143 237 204 237 280 L237 280 Z M653 806 L440 806 L331 635 L452 635 L547 718 L642 635 L763 635 L653 806 Z " />
<glyph glyph-name="Cdotaccent" unicode="&#x10a;" horiz-adv-x="1184" d="M268 350 C268 450 315 530 510 530 L1111 530 L1111 700 L509 700 C192 700 68 543 68 350 C68 157 192 0 509 0 L1111 0 L1111 170 L510 170 C315 170 268 250 268 350 L268 350 Z M559 777 L725 777 L725 941 L559 941 L559 777 Z " />
<glyph glyph-name="cdotaccent" unicode="&#x10b;" horiz-adv-x="1014" d="M237 280 C237 356 267 417 428 417 L949 417 L949 560 L428 560 C158 560 61 434 61 280 C61 126 158 0 428 0 L949 0 L949 143 L428 143 C267 143 237 204 237 280 L237 280 Z M464 637 L630 637 L630 801 L464 801 L464 637 Z " />
<glyph glyph-name="Ccaron" unicode="&#x10c;" horiz-adv-x="1184" d="M268 350 C268 450 315 530 510 530 L1111 530 L1111 700 L509 700 C192 700 68 543 68 350 C68 157 192 0 509 0 L1111 0 L1111 170 L510 170 C315 170 268 250 268 350 L268 350 Z M858 946 L737 946 L642 863 L547 946 L426 946 L535 775 L748 775 L858 946 Z " />
<glyph glyph-name="ccaron" unicode="&#x10d;" horiz-adv-x="1014" d="M237 280 C237 356 267 417 428 417 L949 417 L949 560 L428 560 C158 560 61 434 61 280 C61 126 158 0 428 0 L949 0 L949 143 L428 143 C267 143 237 204 237 280 L237 280 Z M763 806 L642 806 L547 723 L452 806 L331 806 L440 635 L653 635 L763 806 Z " />
<glyph glyph-name="Dcaron" unicode="&#x10e;" horiz-adv-x="1255" d="M115 0 L746 0 C1063 0 1187 157 1187 350 C1187 543 1063 700 746 700 L115 700 L115 0 Z M745 530 C940 530 987 450 987 350 C987 250 940 170 745 170 L302 170 L302 530 L745 530 Z M828 946 L707 946 L612 863 L517 946 L396 946 L505 775 L718 775 L828 946 Z " />
<glyph glyph-name="dcaron" unicode="&#x10f;" horiz-adv-x="1079" d="M746 806 L625 806 L530 723 L435 806 L314 806 L423 635 L636 635 L746 806 Z M105 0 L651 0 C920 0 1018 126 1018 280 C1018 434 920 560 651 560 L105 560 L105 0 Z M650 417 C812 417 842 356 842 280 C842 204 812 143 650 143 L271 143 L271 417 L650 417 Z " />
<glyph glyph-name="Dcroat" unicode="&#x110;" horiz-adv-x="1255" d="M-15 274 L115 274 L115 0 L746 0 C1063 0 1187 157 1187 350 C1187 543 1063 700 746 700 L115 700 L115 426 L-15 426 L-15 274 Z M745 530 C940 530 987 450 987 350 C987 250 940 170 745 170 L302 170 L302 274 L647 274 L647 426 L302 426 L302 530 L745 530 Z " />
<glyph glyph-name="dcroat" unicode="&#x111;" horiz-adv-x="1079" d="M-15 218 L105 218 L105 0 L651 0 C920 0 1018 126 1018 280 C1018 434 920 560 651 560 L105 560 L105 342 L-15 342 L-15 218 Z M650 417 C812 417 842 356 842 280 C842 204 812 143 650 143 L271 143 L271 218 L571 218 L571 342 L271 342 L271 417 L650 417 Z " />
<glyph glyph-name="Emacron" unicode="&#x112;" horiz-adv-x="1199" d="M115 0 L1126 0 L1126 170 L302 170 L302 274 L1024 274 L1024 426 L302 426 L302 530 L1126 530 L1126 700 L115 700 L115 0 Z M392 801 L827 801 L827 919 L392 919 L392 801 Z " />
<glyph glyph-name="emacron" unicode="&#x113;" horiz-adv-x="1032" d="M105 0 L966 0 L966 143 L271 143 L271 218 L878 218 L878 342 L271 342 L271 417 L966 417 L966 560 L105 560 L105 0 Z M310 661 L745 661 L745 779 L310 779 L310 661 Z " />
<glyph glyph-name="Ebreve" unicode="&#x114;" horiz-adv-x="1199" d="M115 0 L1126 0 L1126 170 L302 170 L302 274 L1024 274 L1024 426 L302 426 L302 530 L1126 530 L1126 700 L115 700 L115 0 Z M609 887 C547 887 519 912 516 948 L414 948 C418 865 454 773 609 773 C763 773 800 865 804 948 L702 948 C698 912 670 887 609 887 L609 887 Z " />
<glyph glyph-name="ebreve" unicode="&#x115;" horiz-adv-x="1032" d="M105 0 L966 0 L966 143 L271 143 L271 218 L878 218 L878 342 L271 342 L271 417 L966 417 L966 560 L105 560 L105 0 Z M528 747 C466 747 438 772 435 808 L333 808 C337 725 373 633 528 633 C682 633 719 725 723 808 L621 808 C617 772 589 747 528 747 L528 747 Z " />
<glyph glyph-name="Edotaccent" unicode="&#x116;" horiz-adv-x="1199" d="M115 0 L1126 0 L1126 170 L302 170 L302 274 L1024 274 L1024 426 L302 426 L302 530 L1126 530 L1126 700 L115 700 L115 0 Z M526 777 L692 777 L692 941 L526 941 L526 777 Z " />
<glyph glyph-name="edotaccent" unicode="&#x117;" horiz-adv-x="1032" d="M105 0 L966 0 L966 143 L271 143 L271 218 L878 218 L878 342 L271 342 L271 417 L966 417 L966 560 L105 560 L105 0 Z M445 637 L611 637 L611 801 L445 801 L445 637 Z " />
<glyph glyph-name="Eogonek" unicode="&#x118;" horiz-adv-x="1199" d="M115 0 L981 0 C897 -34 818 -92 818 -183 C818 -248 880 -291 970 -291 C1019 -291 1070 -288 1126 -268 L1126 -187 C1090 -202 1072 -205 1044 -205 C996 -205 963 -184 963 -142 C963 -79 1015 -35 1073 0 L1126 0 L1126 170 L302 170 L302 274 L1024 274 L1024 426 L302 426 L302 530 L1126 530 L1126 700 L115 700 L115 0 Z " />
<glyph glyph-name="eogonek" unicode="&#x119;" horiz-adv-x="1032" d="M105 0 L821 0 C737 -34 658 -92 658 -183 C658 -248 720 -291 810 -291 C859 -291 910 -288 966 -268 L966 -187 C930 -202 912 -205 884 -205 C836 -205 803 -184 803 -142 C803 -79 855 -35 913 0 L966 0 L966 143 L271 143 L271 218 L878 218 L878 342 L271 342 L271 417 L966 417 L966 560 L105 560 L105 0 Z " />
<glyph glyph-name="Ecaron" unicode="&#x11a;" horiz-adv-x="1199" d="M115 0 L1126 0 L1126 170 L302 170 L302 274 L1024 274 L1024 426 L302 426 L302 530 L1126 530 L1126 700 L115 700 L115 0 Z M825 946 L704 946 L609 863 L514 946 L393 946 L502 775 L715 775 L825 946 Z " />
<glyph glyph-name="ecaron" unicode="&#x11b;" horiz-adv-x="1032" d="M105 0 L966 0 L966 143 L271 143 L271 218 L878 218 L878 342 L271 342 L271 417 L966 417 L966 560 L105 560 L105 0 Z M744 806 L623 806 L528 723 L433 806 L312 806 L421 635 L634 635 L744 806 Z " />
<glyph glyph-name="Gcircumflex" unicode="&#x11c;" horiz-adv-x="1256" d="M657 274 L983 274 L983 170 L510 170 C315 170 268 250 268 350 C268 450 315 530 510 530 L1111 530 L1111 700 L509 700 C192 700 68 543 68 350 C68 157 192 0 509 0 L1166 0 L1166 426 L657 426 L657 274 Z M758 946 L545 946 L436 775 L557 775 L652 858 L747 775 L868 775 L758 946 Z " />
<glyph glyph-name="gcircumflex" unicode="&#x11d;" horiz-adv-x="1078" d="M561 218 L833 218 L833 143 L428 143 C267 143 237 204 237 280 C237 356 267 417 428 417 L949 417 L949 560 L428 560 C158 560 61 434 61 280 C61 126 158 0 428 0 L995 0 L995 342 L561 342 L561 218 Z M657 806 L444 806 L335 635 L456 635 L551 718 L646 635 L767 635 L657 806 Z " />
<glyph glyph-name="Gbreve" unicode="&#x11e;" horiz-adv-x="1256" d="M657 274 L983 274 L983 170 L510 170 C315 170 268 250 268 350 C268 450 315 530 510 530 L1111 530 L1111 700 L509 700 C192 700 68 543 68 350 C68 157 192 0 509 0 L1166 0 L1166 426 L657 426 L657 274 Z M652 887 C590 887 562 912 559 948 L457 948 C461 865 497 773 652 773 C806 773 843 865 847 948 L745 948 C741 912 713 887 652 887 L652 887 Z " />
<glyph glyph-name="gbreve" unicode="&#x11f;" horiz-adv-x="1078" d="M561 218 L833 218 L833 143 L428 143 C267 143 237 204 237 280 C237 356 267 417 428 417 L949 417 L949 560 L428 560 C158 560 61 434 61 280 C61 126 158 0 428 0 L995 0 L995 342 L561 342 L561 218 Z M551 747 C489 747 461 772 458 808 L356 808 C360 725 396 633 551 633 C705 633 742 725 746 808 L644 808 C640 772 612 747 551 747 L551 747 Z " />
<glyph glyph-name="Gdotaccent" unicode="&#x120;" horiz-adv-x="1256" d="M657 274 L983 274 L983 170 L510 170 C315 170 268 250 268 350 C268 450 315 530 510 530 L1111 530 L1111 700 L509 700 C192 700 68 543 68 350 C68 157 192 0 509 0 L1166 0 L1166 426 L657 426 L657 274 Z M569 777 L735 777 L735 941 L569 941 L569 777 Z " />
<glyph glyph-name="gdotaccent" unicode="&#x121;" horiz-adv-x="1078" d="M561 218 L833 218 L833 143 L428 143 C267 143 237 204 237 280 C237 356 267 417 428 417 L949 417 L949 560 L428 560 C158 560 61 434 61 280 C61 126 158 0 428 0 L995 0 L995 342 L561 342 L561 218 Z M468 637 L634 637 L634 801 L468 801 L468 637 Z " />
<glyph glyph-name="uni0122" unicode="&#x122;" horiz-adv-x="1256" d="M657 274 L983 274 L983 170 L510 170 C315 170 268 250 268 350 C268 450 315 530 510 530 L1111 530 L1111 700 L509 700 C192 700 68 543 68 350 C68 157 192 0 509 0 L1166 0 L1166 426 L657 426 L657 274 Z M581 -244 L639 -244 L559 -384 L641 -384 L747 -229 L747 -80 L581 -80 L581 -244 Z " />
<glyph glyph-name="uni0123" unicode="&#x123;" horiz-adv-x="1078" d="M561 218 L833 218 L833 143 L428 143 C267 143 237 204 237 280 C237 356 267 417 428 417 L949 417 L949 560 L428 560 C158 560 61 434 61 280 C61 126 158 0 428 0 L995 0 L995 342 L561 342 L561 218 Z M481 -244 L539 -244 L459 -384 L541 -384 L647 -229 L647 -80 L481 -80 L481 -244 Z " />
<glyph glyph-name="Hcircumflex" unicode="&#x124;" horiz-adv-x="1305" d="M1003 0 L1190 0 L1190 700 L1003 700 L1003 435 L302 435 L302 700 L115 700 L115 0 L302 0 L302 265 L1003 265 L1003 0 Z M758 946 L545 946 L436 775 L557 775 L652 858 L747 775 L868 775 L758 946 Z " />
<glyph glyph-name="hcircumflex" unicode="&#x125;" horiz-adv-x="1125" d="M854 0 L1020 0 L1020 560 L854 560 L854 352 L271 352 L271 560 L105 560 L105 0 L271 0 L271 208 L854 208 L854 0 Z M668 806 L455 806 L346 635 L467 635 L562 718 L657 635 L778 635 L668 806 Z " />
<glyph glyph-name="Hbar" unicode="&#x126;" horiz-adv-x="1305" d="M15 535 L115 535 L115 0 L302 0 L302 265 L1003 265 L1003 0 L1190 0 L1190 535 L1290 535 L1290 599 L1190 599 L1190 700 L1003 700 L1003 599 L302 599 L302 700 L115 700 L115 599 L15 599 L15 535 Z M302 435 L302 535 L1003 535 L1003 435 L302 435 Z " />
<glyph glyph-name="hbar" unicode="&#x127;" horiz-adv-x="1125" d="M15 424 L105 424 L105 0 L271 0 L271 208 L854 208 L854 0 L1020 0 L1020 424 L1110 424 L1110 488 L1020 488 L1020 560 L854 560 L854 488 L271 488 L271 560 L105 560 L105 488 L15 488 L15 424 Z M271 352 L271 424 L854 424 L854 352 L271 352 Z " />
<glyph glyph-name="Itilde" unicode="&#x128;" horiz-adv-x="417" d="M115 0 L302 0 L302 700 L115 700 L115 0 Z M309 948 C310 917 301 904 279 904 C247 904 199 942 138 942 C66 942 21 897 18 772 L109 772 C108 802 117 816 139 816 C170 816 218 777 280 777 C352 777 399 821 400 948 L309 948 Z " />
<glyph glyph-name="itilde" unicode="&#x129;" horiz-adv-x="376" d="M105 0 L271 0 L271 560 L105 560 L105 0 Z M288 808 C289 777 280 764 258 764 C226 764 178 802 117 802 C45 802 0 757 -3 632 L88 632 C87 662 96 676 118 676 C149 676 197 637 259 637 C331 637 378 681 379 808 L288 808 Z " />
<glyph glyph-name="Imacron" unicode="&#x12a;" horiz-adv-x="417" d="M115 0 L302 0 L302 700 L115 700 L115 0 Z M-9 801 L426 801 L426 919 L-9 919 L-9 801 Z " />
<glyph glyph-name="imacron" unicode="&#x12b;" horiz-adv-x="376" d="M105 0 L271 0 L271 560 L105 560 L105 0 Z M-29 661 L406 661 L406 779 L-29 779 L-29 661 Z " />
<glyph glyph-name="Ibreve" unicode="&#x12c;" horiz-adv-x="417" d="M115 0 L302 0 L302 700 L115 700 L115 0 Z M209 887 C147 887 119 912 116 948 L14 948 C18 865 54 773 209 773 C363 773 400 865 404 948 L302 948 C298 912 270 887 209 887 L209 887 Z " />
<glyph glyph-name="ibreve" unicode="&#x12d;" horiz-adv-x="376" d="M105 0 L271 0 L271 560 L105 560 L105 0 Z M188 747 C126 747 98 772 95 808 L-7 808 C-3 725 33 633 188 633 C342 633 379 725 383 808 L281 808 C277 772 249 747 188 747 L188 747 Z " />
<glyph glyph-name="Iogonek" unicode="&#x12e;" horiz-adv-x="417" d="M0 -168 C0 -256 90 -291 152 -291 C201 -291 252 -288 308 -268 L308 -187 C272 -202 254 -205 226 -205 C166 -205 133 -175 133 -125 C133 -73 156 -30 190 0 L302 0 L302 700 L115 700 L115 0 C55 -31 0 -87 0 -168 L0 -168 Z " />
<glyph glyph-name="iogonek" unicode="&#x12f;" horiz-adv-x="376" d="M105 0 C45 -31 -10 -87 -10 -168 C-10 -256 80 -291 142 -291 C191 -291 242 -288 298 -268 L298 -187 C262 -202 244 -205 216 -205 C156 -205 123 -175 123 -125 C123 -73 146 -30 180 0 L271 0 L271 560 L105 560 L105 0 Z " />
<glyph glyph-name="Idotaccent" unicode="&#x130;" horiz-adv-x="417" d="M115 0 L302 0 L302 700 L115 700 L115 0 Z M126 777 L292 777 L292 941 L126 941 L126 777 Z " />
<glyph glyph-name="dotlessi" unicode="&#x131;" horiz-adv-x="376" d="M105 0 L271 0 L271 560 L105 560 L105 0 Z " />
<glyph glyph-name="IJ" unicode="&#x132;" horiz-adv-x="1271" d="M438 -5 L755 -5 C1072 -5 1176 132 1176 325 L1176 700 L989 700 L989 325 C989 230 944 165 754 165 L439 165 C310 165 282 215 282 275 L282 340 L95 340 L95 275 C95 121 184 -5 438 -5 L438 -5 Z M95 445 L282 445 L282 700 L95 700 L95 445 Z " />
<glyph glyph-name="ij" unicode="&#x133;" horiz-adv-x="1091" d="M85 356 L251 356 L251 560 L85 560 L85 356 Z M371 -4 L656 -4 C925 -4 1006 106 1006 260 L1006 560 L840 560 L840 260 C840 188 811 139 655 139 L372 139 C266 139 251 176 251 220 L251 274 L85 274 L85 220 C85 97 155 -4 371 -4 L371 -4 Z " />
<glyph glyph-name="Jcircumflex" unicode="&#x134;" horiz-adv-x="1211" d="M378 -5 L695 -5 C1012 -5 1116 132 1116 325 L1116 700 L929 700 L929 325 C929 230 884 165 694 165 L379 165 C250 165 222 215 222 275 L222 340 L35 340 L35 275 C35 121 124 -5 378 -5 L378 -5 Z M1099 946 L886 946 L777 775 L898 775 L993 858 L1088 775 L1209 775 L1099 946 Z " />
<glyph glyph-name="jcircumflex" unicode="&#x135;" horiz-adv-x="1041" d="M321 -4 L606 -4 C875 -4 956 106 956 260 L956 560 L790 560 L790 260 C790 188 761 139 605 139 L322 139 C216 139 201 176 201 220 L201 274 L35 274 L35 220 C35 97 105 -4 321 -4 L321 -4 Z M949 806 L736 806 L627 635 L748 635 L843 718 L938 635 L1059 635 L949 806 Z " />
<glyph glyph-name="uni0136" unicode="&#x136;" horiz-adv-x="1302" d="M1213 700 L890 700 L302 326 L302 700 L115 700 L115 0 L302 0 L302 142 L555 297 L991 0 L1304 0 L716 395 L1213 700 Z M558 -244 L616 -244 L536 -384 L618 -384 L724 -229 L724 -80 L558 -80 L558 -244 Z " />
<glyph glyph-name="uni0137" unicode="&#x137;" horiz-adv-x="1121" d="M1047 560 L750 560 L271 273 L271 560 L105 560 L105 0 L271 0 L271 112 L482 234 L840 0 L1118 0 L624 316 L1047 560 Z M471 -244 L529 -244 L449 -384 L531 -384 L637 -229 L637 -80 L471 -80 L471 -244 Z " />
<glyph glyph-name="kgreenlandic" unicode="&#x138;" horiz-adv-x="1280" d="M1228 420 L1170 420 L1250 560 L1168 560 L1062 405 L1062 256 L1228 256 L1228 420 Z M1047 560 L750 560 L271 273 L271 560 L105 560 L105 0 L271 0 L271 112 L482 234 L840 0 L1118 0 L624 316 L1047 560 Z " />
<glyph glyph-name="Lacute" unicode="&#x139;" horiz-adv-x="1129" d="M302 700 L115 700 L115 0 L1106 0 L1106 170 L302 170 L302 700 Z M103 775 L224 775 L404 946 L199 946 L103 775 Z " />
<glyph glyph-name="lacute" unicode="&#x13a;" horiz-adv-x="985" d="M271 560 L105 560 L105 0 L949 0 L949 143 L271 143 L271 560 Z M83 635 L204 635 L384 806 L179 806 L83 635 Z " />
<glyph glyph-name="uni013B" unicode="&#x13b;" horiz-adv-x="1129" d="M302 700 L115 700 L115 0 L1106 0 L1106 170 L302 170 L302 700 Z M533 -244 L591 -244 L511 -384 L593 -384 L699 -229 L699 -80 L533 -80 L533 -244 Z " />
<glyph glyph-name="uni013C" unicode="&#x13c;" horiz-adv-x="985" d="M271 560 L105 560 L105 0 L949 0 L949 143 L271 143 L271 560 Z M457 -244 L515 -244 L435 -384 L517 -384 L623 -229 L623 -80 L457 -80 L457 -244 Z " />
<glyph glyph-name="Lcaron" unicode="&#x13d;" horiz-adv-x="1129" d="M302 700 L115 700 L115 0 L1106 0 L1106 170 L302 170 L302 700 Z M819 512 L898 512 L819 343 L901 343 L1006 527 L1006 700 L819 700 L819 512 Z " />
<glyph glyph-name="lcaron" unicode="&#x13e;" horiz-adv-x="985" d="M271 560 L105 560 L105 0 L949 0 L949 143 L271 143 L271 560 Z M713 396 L771 396 L691 256 L773 256 L879 411 L879 560 L713 560 L713 396 Z " />
<glyph glyph-name="Ldot" unicode="&#x13f;" horiz-adv-x="1129" d="M302 700 L115 700 L115 0 L1106 0 L1106 170 L302 170 L302 700 Z M735 353 L901 353 L901 517 L735 517 L735 353 Z " />
<glyph glyph-name="ldot" unicode="&#x140;" horiz-adv-x="985" d="M271 560 L105 560 L105 0 L949 0 L949 143 L271 143 L271 560 Z M636 268 L802 268 L802 432 L636 432 L636 268 Z " />
<glyph glyph-name="Lslash" unicode="&#x141;" horiz-adv-x="1129" d="M601 612 L302 458 L302 700 L115 700 L115 367 L16 322 L16 133 L115 186 L115 0 L1106 0 L1106 170 L302 170 L302 281 L601 422 L601 612 Z " />
<glyph glyph-name="lslash" unicode="&#x142;" horiz-adv-x="985" d="M520 495 L271 375 L271 560 L105 560 L105 298 L21 262 L21 103 L105 145 L105 0 L949 0 L949 143 L271 143 L271 226 L520 334 L520 495 Z " />
<glyph glyph-name="Nacute" unicode="&#x143;" horiz-adv-x="1309" d="M1017 0 L1194 0 L1194 700 L1007 700 L1007 219 L292 700 L115 700 L115 0 L302 0 L302 481 L1017 0 Z M549 775 L670 775 L850 946 L645 946 L549 775 Z " />
<glyph glyph-name="nacute" unicode="&#x144;" horiz-adv-x="1129" d="M1024 0 L1024 560 L859 560 L859 185 L262 560 L105 560 L105 0 L271 0 L271 375 L867 0 L1024 0 Z M459 635 L580 635 L760 806 L555 806 L459 635 Z " />
<glyph glyph-name="uni0145" unicode="&#x145;" horiz-adv-x="1309" d="M1017 0 L1194 0 L1194 700 L1007 700 L1007 219 L292 700 L115 700 L115 0 L302 0 L302 481 L1017 0 Z M571 -244 L629 -244 L549 -384 L631 -384 L737 -229 L737 -80 L571 -80 L571 -244 Z " />
<glyph glyph-name="uni0146" unicode="&#x146;" horiz-adv-x="1129" d="M1024 0 L1024 560 L859 560 L859 185 L262 560 L105 560 L105 0 L271 0 L271 375 L867 0 L1024 0 Z M481 -244 L539 -244 L459 -384 L541 -384 L647 -229 L647 -80 L481 -80 L481 -244 Z " />
<glyph glyph-name="Ncaron" unicode="&#x147;" horiz-adv-x="1309" d="M1017 0 L1194 0 L1194 700 L1007 700 L1007 219 L292 700 L115 700 L115 0 L302 0 L302 481 L1017 0 Z M870 946 L749 946 L654 863 L559 946 L438 946 L547 775 L760 775 L870 946 Z " />
<glyph glyph-name="ncaron" unicode="&#x148;" horiz-adv-x="1129" d="M1024 0 L1024 560 L859 560 L859 185 L262 560 L105 560 L105 0 L271 0 L271 375 L867 0 L1024 0 Z M780 806 L659 806 L564 723 L469 806 L348 806 L457 635 L670 635 L780 806 Z " />
<glyph glyph-name="napostrophe" unicode="&#x149;" horiz-adv-x="1407" d="M57 536 L115 536 L35 396 L117 396 L223 551 L223 700 L57 700 L57 536 Z M1302 0 L1302 560 L1137 560 L1137 185 L540 560 L383 560 L383 0 L549 0 L549 375 L1145 0 L1302 0 Z " />
<glyph glyph-name="Eng" unicode="&#x14a;" horiz-adv-x="1309" d="M740 -230 L919 -230 C1118 -230 1194 -135 1194 -16 L1194 700 L1008 700 L1008 220 L292 700 L115 700 L115 0 L302 0 L302 481 L1008 7 L1008 -14 C1008 -37 987 -60 915 -60 L740 -60 L740 -230 Z " />
<glyph glyph-name="eng" unicode="&#x14b;" horiz-adv-x="1129" d="M636 -184 L794 -184 C964 -184 1024 -107 1024 -11 L1024 560 L859 560 L859 186 L262 560 L105 560 L105 0 L271 0 L271 375 L859 6 L859 -9 C859 -24 849 -41 790 -41 L636 -41 L636 -184 Z " />
<glyph glyph-name="Omacron" unicode="&#x14c;" horiz-adv-x="1348" d="M826 -10 C1152 -10 1280 151 1280 350 C1280 549 1152 710 826 710 L522 710 C196 710 68 549 68 350 C68 151 196 -10 522 -10 L826 -10 Z M523 160 C319 160 267 244 267 350 C267 456 319 540 524 540 L825 540 C1029 540 1080 456 1080 350 C1080 244 1029 160 825 160 L523 160 Z M456 801 L891 801 L891 919 L456 919 L456 801 Z " />
<glyph glyph-name="omacron" unicode="&#x14d;" horiz-adv-x="1153" d="M715 -8 C992 -8 1092 121 1092 280 C1092 439 992 568 715 568 L439 568 C162 568 61 439 61 280 C61 121 162 -8 439 -8 L715 -8 Z M440 135 C270 135 236 199 236 280 C236 361 270 425 440 425 L714 425 C882 425 917 361 917 280 C917 199 882 135 714 135 L440 135 Z M359 661 L794 661 L794 779 L359 779 L359 661 Z " />
<glyph glyph-name="Obreve" unicode="&#x14e;" horiz-adv-x="1348" d="M826 -10 C1152 -10 1280 151 1280 350 C1280 549 1152 710 826 710 L522 710 C196 710 68 549 68 350 C68 151 196 -10 522 -10 L826 -10 Z M523 160 C319 160 267 244 267 350 C267 456 319 540 524 540 L825 540 C1029 540 1080 456 1080 350 C1080 244 1029 160 825 160 L523 160 Z M674 887 C612 887 584 912 581 948 L479 948 C483 865 519 773 674 773 C828 773 865 865 869 948 L767 948 C763 912 735 887 674 887 L674 887 Z " />
<glyph glyph-name="obreve" unicode="&#x14f;" horiz-adv-x="1153" d="M715 -8 C992 -8 1092 121 1092 280 C1092 439 992 568 715 568 L439 568 C162 568 61 439 61 280 C61 121 162 -8 439 -8 L715 -8 Z M440 135 C270 135 236 199 236 280 C236 361 270 425 440 425 L714 425 C882 425 917 361 917 280 C917 199 882 135 714 135 L440 135 Z M576 747 C514 747 486 772 483 808 L381 808 C385 725 421 633 576 633 C730 633 767 725 771 808 L669 808 C665 772 637 747 576 747 L576 747 Z " />
<glyph glyph-name="Ohungarumlaut" unicode="&#x150;" horiz-adv-x="1348" d="M826 -10 C1152 -10 1280 151 1280 350 C1280 549 1152 710 826 710 L522 710 C196 710 68 549 68 350 C68 151 196 -10 522 -10 L826 -10 Z M523 160 C319 160 267 244 267 350 C267 456 319 540 524 540 L825 540 C1029 540 1080 456 1080 350 C1080 244 1029 160 825 160 L523 160 Z M717 775 L838 775 L1018 946 L813 946 L717 775 Z M420 775 L541 775 L721 946 L516 946 L420 775 Z " />
<glyph glyph-name="ohungarumlaut" unicode="&#x151;" horiz-adv-x="1153" d="M715 -8 C992 -8 1092 121 1092 280 C1092 439 992 568 715 568 L439 568 C162 568 61 439 61 280 C61 121 162 -8 439 -8 L715 -8 Z M440 135 C270 135 236 199 236 280 C236 361 270 425 440 425 L714 425 C882 425 917 361 917 280 C917 199 882 135 714 135 L440 135 Z M619 635 L740 635 L920 806 L715 806 L619 635 Z M322 635 L443 635 L623 806 L418 806 L322 635 Z " />
<glyph glyph-name="OE" unicode="&#x152;" horiz-adv-x="1753" d="M68 350 C68 157 192 0 509 0 L1680 0 L1680 170 L961 170 L961 274 L1578 274 L1578 426 L961 426 L961 530 L1680 530 L1680 700 L509 700 C192 700 68 543 68 350 L68 350 Z M268 350 C268 450 315 530 510 530 L774 530 L774 170 L510 170 C315 170 268 250 268 350 L268 350 Z " />
<glyph glyph-name="oe" unicode="&#x153;" horiz-adv-x="1499" d="M61 280 C61 126 158 0 428 0 L1433 0 L1433 143 L826 143 L826 218 L1345 218 L1345 342 L826 342 L826 417 L1433 417 L1433 560 L428 560 C158 560 61 434 61 280 L61 280 Z M237 280 C237 356 267 417 428 417 L662 417 L662 143 L428 143 C267 143 237 204 237 280 L237 280 Z " />
<glyph glyph-name="Racute" unicode="&#x154;" horiz-adv-x="1281" d="M115 0 L302 0 L302 228 L645 228 L976 0 L1283 0 L925 234 C1093 253 1163 349 1163 466 C1163 595 1076 700 861 700 L115 700 L115 0 Z M853 530 C948 530 967 498 967 461 C967 424 948 392 853 392 L302 392 L302 530 L853 530 Z M497 775 L618 775 L798 946 L593 946 L497 775 Z " />
<glyph glyph-name="racute" unicode="&#x155;" horiz-adv-x="1106" d="M105 0 L271 0 L271 179 L561 179 L835 0 L1099 0 L796 183 C941 198 997 275 997 371 C997 475 928 560 745 560 L105 560 L105 0 Z M738 417 C816 417 824 393 824 367 C824 340 816 317 738 317 L271 317 L271 417 L738 417 Z M415 635 L536 635 L716 806 L511 806 L415 635 Z " />
<glyph glyph-name="uni0156" unicode="&#x156;" horiz-adv-x="1281" d="M115 0 L302 0 L302 228 L645 228 L976 0 L1283 0 L925 234 C1093 253 1163 349 1163 466 C1163 595 1076 700 861 700 L115 700 L115 0 Z M853 530 C948 530 967 498 967 461 C967 424 948 392 853 392 L302 392 L302 530 L853 530 Z M547 -244 L605 -244 L525 -384 L607 -384 L713 -229 L713 -80 L547 -80 L547 -244 Z " />
<glyph glyph-name="uni0157" unicode="&#x157;" horiz-adv-x="1106" d="M105 0 L271 0 L271 179 L561 179 L835 0 L1099 0 L796 183 C941 198 997 275 997 371 C997 475 928 560 745 560 L105 560 L105 0 Z M738 417 C816 417 824 393 824 367 C824 340 816 317 738 317 L271 317 L271 417 L738 417 Z M462 -244 L520 -244 L440 -384 L522 -384 L628 -229 L628 -80 L462 -80 L462 -244 Z " />
<glyph glyph-name="Rcaron" unicode="&#x158;" horiz-adv-x="1281" d="M115 0 L302 0 L302 228 L645 228 L976 0 L1283 0 L925 234 C1093 253 1163 349 1163 466 C1163 595 1076 700 861 700 L115 700 L115 0 Z M853 530 C948 530 967 498 967 461 C967 424 948 392 853 392 L302 392 L302 530 L853 530 Z M819 946 L698 946 L603 863 L508 946 L387 946 L496 775 L709 775 L819 946 Z " />
<glyph glyph-name="rcaron" unicode="&#x159;" horiz-adv-x="1106" d="M105 0 L271 0 L271 179 L561 179 L835 0 L1099 0 L796 183 C941 198 997 275 997 371 C997 475 928 560 745 560 L105 560 L105 0 Z M738 417 C816 417 824 393 824 367 C824 340 816 317 738 317 L271 317 L271 417 L738 417 Z M737 806 L616 806 L521 723 L426 806 L305 806 L414 635 L627 635 L737 806 Z " />
<glyph glyph-name="Sacute" unicode="&#x15a;" horiz-adv-x="1207" d="M105 0 L867 0 C1065 0 1142 94 1142 213 C1142 335 1065 426 867 426 L344 426 C268 426 260 451 260 478 C260 504 268 530 344 530 L1102 530 L1102 700 L340 700 C142 700 65 606 65 487 C65 365 142 274 340 274 L863 274 C939 274 947 249 947 222 C947 196 939 170 863 170 L105 170 L105 0 Z M497 775 L618 775 L798 946 L593 946 L497 775 Z " />
<glyph glyph-name="sacute" unicode="&#x15b;" horiz-adv-x="1031" d="M91 0 L744 0 C914 0 974 75 974 172 C974 270 914 342 744 342 L295 342 C236 342 230 360 230 380 C230 399 235 417 295 417 L940 417 L940 560 L287 560 C117 560 57 485 57 388 C57 290 117 218 287 218 L736 218 C795 218 801 200 801 180 C801 161 796 143 736 143 L91 143 L91 0 Z M409 635 L530 635 L710 806 L505 806 L409 635 Z " />
<glyph glyph-name="Scircumflex" unicode="&#x15c;" horiz-adv-x="1207" d="M105 0 L867 0 C1065 0 1142 94 1142 213 C1142 335 1065 426 867 426 L344 426 C268 426 260 451 260 478 C260 504 268 530 344 530 L1102 530 L1102 700 L340 700 C142 700 65 606 65 487 C65 365 142 274 340 274 L863 274 C939 274 947 249 947 222 C947 196 939 170 863 170 L105 170 L105 0 Z M709 946 L496 946 L387 775 L508 775 L603 858 L698 775 L819 775 L709 946 Z " />
<glyph glyph-name="scircumflex" unicode="&#x15d;" horiz-adv-x="1031" d="M91 0 L744 0 C914 0 974 75 974 172 C974 270 914 342 744 342 L295 342 C236 342 230 360 230 380 C230 399 235 417 295 417 L940 417 L940 560 L287 560 C117 560 57 485 57 388 C57 290 117 218 287 218 L736 218 C795 218 801 200 801 180 C801 161 796 143 736 143 L91 143 L91 0 Z M621 806 L408 806 L299 635 L420 635 L515 718 L610 635 L731 635 L621 806 Z " />
<glyph glyph-name="Scedilla" unicode="&#x15e;" horiz-adv-x="1207" d="M105 0 L564 0 L527 -143 L571 -143 C619 -144 642 -149 642 -179 C642 -231 502 -221 459 -190 L459 -271 C535 -310 768 -333 768 -184 C768 -95 698 -71 610 -71 L628 0 L867 0 C1065 0 1142 94 1142 213 C1142 335 1065 426 867 426 L344 426 C268 426 260 451 260 478 C260 504 268 530 344 530 L1102 530 L1102 700 L340 700 C142 700 65 606 65 487 C65 365 142 274 340 274 L863 274 C939 274 947 249 947 222 C947 196 939 170 863 170 L105 170 L105 0 Z " />
<glyph glyph-name="scedilla" unicode="&#x15f;" horiz-adv-x="1031" d="M91 0 L476 0 L439 -143 L483 -143 C531 -144 554 -149 554 -179 C554 -231 414 -221 371 -190 L371 -271 C447 -310 680 -333 680 -184 C680 -95 610 -71 522 -71 L540 0 L744 0 C914 0 974 75 974 172 C974 270 914 342 744 342 L295 342 C236 342 230 360 230 380 C230 399 235 417 295 417 L940 417 L940 560 L287 560 C117 560 57 485 57 388 C57 290 117 218 287 218 L736 218 C795 218 801 200 801 180 C801 161 796 143 736 143 L91 143 L91 0 Z " />
<glyph glyph-name="Scaron" unicode="&#x160;" horiz-adv-x="1207" d="M105 0 L867 0 C1065 0 1142 94 1142 213 C1142 335 1065 426 867 426 L344 426 C268 426 260 451 260 478 C260 504 268 530 344 530 L1102 530 L1102 700 L340 700 C142 700 65 606 65 487 C65 365 142 274 340 274 L863 274 C939 274 947 249 947 222 C947 196 939 170 863 170 L105 170 L105 0 Z M819 946 L698 946 L603 863 L508 946 L387 946 L496 775 L709 775 L819 946 Z " />
<glyph glyph-name="scaron" unicode="&#x161;" horiz-adv-x="1031" d="M91 0 L744 0 C914 0 974 75 974 172 C974 270 914 342 744 342 L295 342 C236 342 230 360 230 380 C230 399 235 417 295 417 L940 417 L940 560 L287 560 C117 560 57 485 57 388 C57 290 117 218 287 218 L736 218 C795 218 801 200 801 180 C801 161 796 143 736 143 L91 143 L91 0 Z M731 806 L610 806 L515 723 L420 806 L299 806 L408 635 L621 635 L731 806 Z " />
<glyph glyph-name="uni0162" unicode="&#x162;" horiz-adv-x="1184" d="M23 530 L499 530 L499 0 L552 0 L515 -143 L559 -143 C607 -144 630 -149 630 -179 C630 -231 490 -221 447 -190 L447 -271 C523 -310 756 -333 756 -184 C756 -95 686 -71 598 -71 L616 0 L685 0 L685 530 L1161 530 L1161 700 L23 700 L23 530 Z " />
<glyph glyph-name="uni0163" unicode="&#x163;" horiz-adv-x="1039" d="M36 417 L437 417 L437 0 L480 0 L443 -143 L487 -143 C535 -144 558 -149 558 -179 C558 -231 418 -221 375 -190 L375 -271 C451 -310 684 -333 684 -184 C684 -95 614 -71 526 -71 L544 0 L603 0 L603 417 L1003 417 L1003 560 L36 560 L36 417 Z " />
<glyph glyph-name="Tcaron" unicode="&#x164;" horiz-adv-x="1184" d="M23 530 L499 530 L499 0 L685 0 L685 530 L1161 530 L1161 700 L23 700 L23 530 Z M808 946 L687 946 L592 863 L497 946 L376 946 L485 775 L698 775 L808 946 Z " />
<glyph glyph-name="tcaron" unicode="&#x165;" horiz-adv-x="1039" d="M735 806 L614 806 L519 723 L424 806 L303 806 L412 635 L625 635 L735 806 Z M36 417 L437 417 L437 0 L603 0 L603 417 L1003 417 L1003 560 L36 560 L36 417 Z " />
<glyph glyph-name="Tbar" unicode="&#x166;" horiz-adv-x="1184" d="M23 530 L499 530 L499 422 L261 422 L261 278 L499 278 L499 0 L685 0 L685 278 L923 278 L923 422 L685 422 L685 530 L1161 530 L1161 700 L23 700 L23 530 Z " />
<glyph glyph-name="tbar" unicode="&#x167;" horiz-adv-x="1039" d="M36 417 L437 417 L437 325 L226 325 L226 205 L437 205 L437 0 L603 0 L603 205 L812 205 L812 325 L603 325 L603 417 L1003 417 L1003 560 L36 560 L36 417 Z " />
<glyph glyph-name="Utilde" unicode="&#x168;" horiz-adv-x="1275" d="M282 323 L282 700 L95 700 L95 323 C95 130 199 -10 516 -10 L759 -10 C1076 -10 1180 130 1180 323 L1180 700 L993 700 L993 323 C993 228 948 160 758 160 L517 160 C327 160 282 228 282 323 L282 323 Z M737 948 C738 917 729 904 707 904 C675 904 627 942 566 942 C494 942 449 897 446 772 L537 772 C536 802 545 816 567 816 C598 816 646 777 708 777 C780 777 827 821 828 948 L737 948 Z " />
<glyph glyph-name="utilde" unicode="&#x169;" horiz-adv-x="1093" d="M249 258 L249 560 L85 560 L85 258 C85 104 165 -8 434 -8 L658 -8 C928 -8 1008 104 1008 258 L1008 560 L842 560 L842 258 C842 187 814 135 657 135 L435 135 C278 135 249 187 249 258 L249 258 Z M646 808 C647 777 638 764 616 764 C584 764 536 802 475 802 C403 802 358 757 355 632 L446 632 C445 662 454 676 476 676 C507 676 555 637 617 637 C689 637 736 681 737 808 L646 808 Z " />
<glyph glyph-name="Umacron" unicode="&#x16a;" horiz-adv-x="1275" d="M282 323 L282 700 L95 700 L95 323 C95 130 199 -10 516 -10 L759 -10 C1076 -10 1180 130 1180 323 L1180 700 L993 700 L993 323 C993 228 948 160 758 160 L517 160 C327 160 282 228 282 323 L282 323 Z M420 801 L855 801 L855 919 L420 919 L420 801 Z " />
<glyph glyph-name="umacron" unicode="&#x16b;" horiz-adv-x="1093" d="M249 258 L249 560 L85 560 L85 258 C85 104 165 -8 434 -8 L658 -8 C928 -8 1008 104 1008 258 L1008 560 L842 560 L842 258 C842 187 814 135 657 135 L435 135 C278 135 249 187 249 258 L249 258 Z M329 661 L764 661 L764 779 L329 779 L329 661 Z " />
<glyph glyph-name="Ubreve" unicode="&#x16c;" horiz-adv-x="1275" d="M282 323 L282 700 L95 700 L95 323 C95 130 199 -10 516 -10 L759 -10 C1076 -10 1180 130 1180 323 L1180 700 L993 700 L993 323 C993 228 948 160 758 160 L517 160 C327 160 282 228 282 323 L282 323 Z M637 887 C575 887 547 912 544 948 L442 948 C446 865 482 773 637 773 C791 773 828 865 832 948 L730 948 C726 912 698 887 637 887 L637 887 Z " />
<glyph glyph-name="ubreve" unicode="&#x16d;" horiz-adv-x="1093" d="M249 258 L249 560 L85 560 L85 258 C85 104 165 -8 434 -8 L658 -8 C928 -8 1008 104 1008 258 L1008 560 L842 560 L842 258 C842 187 814 135 657 135 L435 135 C278 135 249 187 249 258 L249 258 Z M546 747 C484 747 456 772 453 808 L351 808 C355 725 391 633 546 633 C700 633 737 725 741 808 L639 808 C635 772 607 747 546 747 L546 747 Z " />
<glyph glyph-name="Uring" unicode="&#x16e;" horiz-adv-x="1275" d="M282 323 L282 700 L95 700 L95 323 C95 130 199 -10 516 -10 L759 -10 C1076 -10 1180 130 1180 323 L1180 700 L993 700 L993 323 C993 228 948 160 758 160 L517 160 C327 160 282 228 282 323 L282 323 Z M602 861 C602 880 618 896 638 896 C656 896 672 880 672 861 C672 842 656 827 638 827 C618 827 602 842 602 861 L602 861 Z M501 861 C501 794 555 742 638 742 C719 742 773 794 773 861 C773 928 719 980 638 980 C555 980 501 928 501 861 L501 861 Z " />
<glyph glyph-name="uring" unicode="&#x16f;" horiz-adv-x="1093" d="M249 258 L249 560 L85 560 L85 258 C85 104 165 -8 434 -8 L658 -8 C928 -8 1008 104 1008 258 L1008 560 L842 560 L842 258 C842 187 814 135 657 135 L435 135 C278 135 249 187 249 258 L249 258 Z M511 721 C511 740 527 756 547 756 C565 756 581 740 581 721 C581 702 565 687 547 687 C527 687 511 702 511 721 L511 721 Z M410 721 C410 654 464 602 547 602 C628 602 682 654 682 721 C682 788 628 840 547 840 C464 840 410 788 410 721 L410 721 Z " />
<glyph glyph-name="Uhungarumlaut" unicode="&#x170;" horiz-adv-x="1275" d="M282 323 L282 700 L95 700 L95 323 C95 130 199 -10 516 -10 L759 -10 C1076 -10 1180 130 1180 323 L1180 700 L993 700 L993 323 C993 228 948 160 758 160 L517 160 C327 160 282 228 282 323 L282 323 Z M680 775 L801 775 L981 946 L776 946 L680 775 Z M383 775 L504 775 L684 946 L479 946 L383 775 Z " />
<glyph glyph-name="uhungarumlaut" unicode="&#x171;" horiz-adv-x="1093" d="M249 258 L249 560 L85 560 L85 258 C85 104 165 -8 434 -8 L658 -8 C928 -8 1008 104 1008 258 L1008 560 L842 560 L842 258 C842 187 814 135 657 135 L435 135 C278 135 249 187 249 258 L249 258 Z M589 635 L710 635 L890 806 L685 806 L589 635 Z M292 635 L413 635 L593 806 L388 806 L292 635 Z " />
<glyph glyph-name="Uogonek" unicode="&#x172;" horiz-adv-x="1275" d="M637 -183 C637 -248 699 -291 789 -291 C838 -291 889 -288 945 -268 L945 -187 C909 -202 891 -205 863 -205 C815 -205 782 -184 782 -142 C782 -79 833 -35 891 0 C1105 34 1180 160 1180 323 L1180 700 L993 700 L993 323 C993 228 948 160 758 160 L517 160 C327 160 282 228 282 323 L282 700 L95 700 L95 323 C95 130 199 -10 516 -10 L759 -10 C765 -10 772 -10 778 -9 C702 -44 637 -100 637 -183 L637 -183 Z " />
<glyph glyph-name="uogonek" unicode="&#x173;" horiz-adv-x="1093" d="M516 -183 C516 -248 578 -291 668 -291 C717 -291 768 -288 824 -268 L824 -187 C788 -202 770 -205 742 -205 C694 -205 661 -184 661 -142 C661 -79 713 -35 770 0 C951 28 1008 128 1008 258 L1008 560 L842 560 L842 258 C842 187 814 135 657 135 L435 135 C278 135 249 187 249 258 L249 560 L85 560 L85 258 C85 104 165 -8 434 -8 L660 -8 C583 -43 516 -99 516 -183 L516 -183 Z " />
<glyph glyph-name="Wcircumflex" unicode="&#x174;" horiz-adv-x="1618" d="M809 466 L1064 0 L1202 0 L1603 700 L1378 700 L1131 234 L878 700 L740 700 L487 234 L240 700 L15 700 L416 0 L554 0 L809 466 Z M915 946 L702 946 L593 775 L714 775 L809 858 L904 775 L1025 775 L915 946 Z " />
<glyph glyph-name="wcircumflex" unicode="&#x175;" horiz-adv-x="1382" d="M691 363 L904 0 L1026 0 L1367 560 L1168 560 L961 197 L752 560 L629 560 L420 197 L213 560 L15 560 L356 0 L478 0 L691 363 Z M797 806 L584 806 L475 635 L596 635 L691 718 L786 635 L907 635 L797 806 Z " />
<glyph glyph-name="Ycircumflex" unicode="&#x176;" horiz-adv-x="1257" d="M535 0 L722 0 L722 211 L1264 700 L988 700 L629 362 L269 700 L-7 700 L535 211 L535 0 Z M734 946 L521 946 L412 775 L533 775 L628 858 L723 775 L844 775 L734 946 Z " />
<glyph glyph-name="ycircumflex" unicode="&#x177;" horiz-adv-x="1069" d="M452 0 L617 0 L617 171 L1076 560 L831 560 L534 294 L238 560 L-7 560 L452 171 L452 0 Z M640 806 L427 806 L318 635 L439 635 L534 718 L629 635 L750 635 L640 806 Z " />
<glyph glyph-name="Ydieresis" unicode="&#x178;" horiz-adv-x="1257" d="M535 0 L722 0 L722 211 L1264 700 L988 700 L629 362 L269 700 L-7 700 L535 211 L535 0 Z M696 777 L862 777 L862 941 L696 941 L696 777 Z M395 777 L561 777 L561 941 L395 941 L395 777 Z " />
<glyph glyph-name="Zacute" unicode="&#x179;" horiz-adv-x="1204" d="M65 0 L1149 0 L1149 170 L436 170 L1129 570 L1129 700 L75 700 L75 530 L757 530 L65 130 L65 0 Z M496 775 L617 775 L797 946 L592 946 L496 775 Z " />
<glyph glyph-name="zacute" unicode="&#x17a;" horiz-adv-x="1030" d="M58 0 L982 0 L982 143 L386 143 L965 450 L965 560 L67 560 L67 417 L634 417 L58 110 L58 0 Z M409 635 L530 635 L710 806 L505 806 L409 635 Z " />
<glyph glyph-name="Zdotaccent" unicode="&#x17b;" horiz-adv-x="1204" d="M65 0 L1149 0 L1149 170 L436 170 L1129 570 L1129 700 L75 700 L75 530 L757 530 L65 130 L65 0 Z M519 777 L685 777 L685 941 L519 941 L519 777 Z " />
<glyph glyph-name="zdotaccent" unicode="&#x17c;" horiz-adv-x="1030" d="M58 0 L982 0 L982 143 L386 143 L965 450 L965 560 L67 560 L67 417 L634 417 L58 110 L58 0 Z M432 637 L598 637 L598 801 L432 801 L432 637 Z " />
<glyph glyph-name="Zcaron" unicode="&#x17d;" horiz-adv-x="1204" d="M65 0 L1149 0 L1149 170 L436 170 L1129 570 L1129 700 L75 700 L75 530 L757 530 L65 130 L65 0 Z M818 946 L697 946 L602 863 L507 946 L386 946 L495 775 L708 775 L818 946 Z " />
<glyph glyph-name="zcaron" unicode="&#x17e;" horiz-adv-x="1030" d="M58 0 L982 0 L982 143 L386 143 L965 450 L965 560 L67 560 L67 417 L634 417 L58 110 L58 0 Z M731 806 L610 806 L515 723 L420 806 L299 806 L408 635 L621 635 L731 806 Z " />
<glyph glyph-name="uni0186" unicode="&#x186;" horiz-adv-x="1184" d="M916 350 C916 250 869 170 674 170 L73 170 L73 0 L675 0 C992 0 1116 157 1116 350 C1116 543 992 700 675 700 L73 700 L73 530 L674 530 C869 530 916 450 916 350 L916 350 Z " />
<glyph glyph-name="uni0189" unicode="&#x189;" horiz-adv-x="1255" d="M-15 274 L115 274 L115 0 L746 0 C1063 0 1187 157 1187 350 C1187 543 1063 700 746 700 L115 700 L115 426 L-15 426 L-15 274 Z M745 530 C940 530 987 450 987 350 C987 250 940 170 745 170 L302 170 L302 274 L647 274 L647 426 L302 426 L302 530 L745 530 Z " />
<glyph glyph-name="uni018E" unicode="&#x18e;" horiz-adv-x="1199" d="M1084 700 L73 700 L73 530 L897 530 L897 426 L175 426 L175 274 L897 274 L897 170 L73 170 L73 0 L1084 0 L1084 700 Z " />
<glyph glyph-name="florin" unicode="&#x192;" horiz-adv-x="1298" d="M442 96 C436 43 427 10 334 10 L172 10 L172 -160 L333 -160 C532 -160 612 -59 627 88 L646 269 L944 269 L944 422 L661 422 L664 444 C669 487 689 530 791 530 L1136 530 L1136 700 L800 700 C576 700 493 589 479 452 L476 422 L296 422 L296 269 L460 269 L442 96 Z " />
<glyph glyph-name="Ohorn" unicode="&#x1a0;" horiz-adv-x="1348" d="M826 -10 C1152 -10 1280 151 1280 350 C1280 451 1247 541 1172 607 C1276 607 1363 630 1363 759 C1363 779 1361 801 1357 826 L1181 826 C1184 805 1186 788 1186 773 C1186 710 1155 700 1119 700 L956 700 C916 706 873 710 826 710 L522 710 C196 710 68 549 68 350 C68 151 196 -10 522 -10 L826 -10 Z M523 160 C319 160 267 244 267 350 C267 456 319 540 524 540 L825 540 C1029 540 1080 456 1080 350 C1080 244 1029 160 825 160 L523 160 Z " />
<glyph glyph-name="ohorn" unicode="&#x1a1;" horiz-adv-x="1153" d="M715 -8 C992 -8 1092 121 1092 280 C1092 352 1071 418 1022 469 C1105 476 1168 509 1168 619 C1168 639 1166 661 1162 686 L986 686 C989 665 991 648 991 633 C991 570 960 560 924 560 L824 560 C791 565 755 568 715 568 L439 568 C162 568 61 439 61 280 C61 121 162 -8 439 -8 L715 -8 Z M440 135 C270 135 236 199 236 280 C236 361 270 425 440 425 L714 425 C882 425 917 361 917 280 C917 199 882 135 714 135 L440 135 Z " />
<glyph glyph-name="uni01A7" unicode="&#x1a7;" horiz-adv-x="1207" d="M1102 170 L344 170 C268 170 260 196 260 222 C260 249 268 274 344 274 L867 274 C1065 274 1142 365 1142 487 C1142 606 1065 700 867 700 L105 700 L105 530 L863 530 C939 530 947 504 947 478 C947 451 939 426 863 426 L340 426 C142 426 65 335 65 213 C65 94 142 0 340 0 L1102 0 L1102 170 Z " />
<glyph glyph-name="uni01A8" unicode="&#x1a8;" horiz-adv-x="1031" d="M940 143 L295 143 C235 143 230 161 230 180 C230 200 236 218 295 218 L744 218 C914 218 974 290 974 388 C974 485 914 560 744 560 L91 560 L91 417 L736 417 C796 417 801 399 801 380 C801 360 795 342 736 342 L287 342 C117 342 57 270 57 172 C57 75 117 0 287 0 L940 0 L940 143 Z " />
<glyph glyph-name="Uhorn" unicode="&#x1af;" horiz-adv-x="1425" d="M282 323 L282 700 L95 700 L95 323 C95 130 199 -10 516 -10 L759 -10 C1076 -10 1180 130 1180 323 L1180 607 L1242 607 C1347 607 1435 629 1435 759 C1435 779 1433 801 1429 826 L1253 826 C1256 805 1258 788 1258 773 C1258 710 1227 700 1191 700 L993 700 L993 323 C993 228 948 160 758 160 L517 160 C327 160 282 228 282 323 L282 323 Z " />
<glyph glyph-name="uhorn" unicode="&#x1b0;" horiz-adv-x="1253" d="M249 258 L249 560 L85 560 L85 258 C85 104 165 -8 434 -8 L658 -8 C928 -8 1008 104 1008 258 L1008 467 L1070 467 C1175 467 1263 489 1263 619 C1263 639 1261 661 1257 686 L1081 686 C1084 665 1086 648 1086 633 C1086 570 1055 560 1019 560 L842 560 L842 258 C842 187 814 135 657 135 L435 135 C278 135 249 187 249 258 L249 258 Z " />
<glyph glyph-name="uni01B1" unicode="&#x1b1;" horiz-adv-x="1356" d="M826 560 C1022 537 1081 453 1081 352 C1081 245 1029 160 824 160 L532 160 C327 160 275 245 275 352 C275 453 334 537 530 560 L530 700 L62 700 L62 530 L178 530 C118 470 92 394 92 308 C92 133 206 -10 494 -10 L862 -10 C1150 -10 1264 133 1264 308 C1264 394 1237 470 1178 530 L1294 530 L1294 700 L826 700 L826 560 Z " />
<glyph glyph-name="uni01C0" unicode="&#x1c0;" horiz-adv-x="386" d="M271 800 L115 800 L115 -100 L271 -100 L271 800 Z " />
<glyph glyph-name="uni01C1" unicode="&#x1c1;" horiz-adv-x="772" d="M271 800 L115 800 L115 -100 L271 -100 L271 800 Z M657 800 L501 800 L501 -100 L657 -100 L657 800 Z " />
<glyph glyph-name="uni01C2" unicode="&#x1c2;" horiz-adv-x="718" d="M437 135 L683 135 L683 275 L437 275 L437 425 L683 425 L683 565 L437 565 L437 800 L281 800 L281 565 L35 565 L35 425 L281 425 L281 275 L35 275 L35 135 L281 135 L281 -100 L437 -100 L437 135 Z " />
<glyph glyph-name="uni01C3" unicode="&#x1c3;" horiz-adv-x="407" d="M109 0 L297 0 L297 188 L109 188 L109 0 Z M119 249 L287 249 L296 700 L111 700 L119 249 Z " />
<glyph glyph-name="uni01C4" unicode="&#x1c4;" horiz-adv-x="2459" d="M115 0 L746 0 C1063 0 1187 157 1187 350 C1187 543 1063 700 746 700 L115 700 L115 0 Z M745 530 C940 530 987 450 987 350 C987 250 940 170 745 170 L302 170 L302 530 L745 530 Z M1320 0 L2404 0 L2404 170 L1691 170 L2384 570 L2384 700 L1330 700 L1330 530 L2012 530 L1320 130 L1320 0 Z M2073 946 L1952 946 L1857 863 L1762 946 L1641 946 L1750 775 L1963 775 L2073 946 Z " />
<glyph glyph-name="uni01C5" unicode="&#x1c5;" horiz-adv-x="2285" d="M115 0 L746 0 C1063 0 1187 157 1187 350 C1187 543 1063 700 746 700 L115 700 L115 0 Z M745 530 C940 530 987 450 987 350 C987 250 940 170 745 170 L302 170 L302 530 L745 530 Z M1313 0 L2237 0 L2237 143 L1641 143 L2220 450 L2220 560 L1322 560 L1322 417 L1889 417 L1313 110 L1313 0 Z M1986 806 L1865 806 L1770 723 L1675 806 L1554 806 L1663 635 L1876 635 L1986 806 Z " />
<glyph glyph-name="uni01C6" unicode="&#x1c6;" horiz-adv-x="2109" d="M105 0 L651 0 C920 0 1018 126 1018 280 C1018 434 920 560 651 560 L105 560 L105 0 Z M650 417 C812 417 842 356 842 280 C842 204 812 143 650 143 L271 143 L271 417 L650 417 Z M1137 0 L2061 0 L2061 143 L1465 143 L2044 450 L2044 560 L1146 560 L1146 417 L1713 417 L1137 110 L1137 0 Z M1810 806 L1689 806 L1594 723 L1499 806 L1378 806 L1487 635 L1700 635 L1810 806 Z " />
<glyph glyph-name="uni01C7" unicode="&#x1c7;" horiz-adv-x="2340" d="M302 700 L115 700 L115 0 L1106 0 L1106 170 L302 170 L302 700 Z M1507 -5 L1824 -5 C2141 -5 2245 132 2245 325 L2245 700 L2058 700 L2058 325 C2058 230 2013 165 1823 165 L1508 165 C1379 165 1351 215 1351 275 L1351 340 L1164 340 L1164 275 C1164 121 1253 -5 1507 -5 L1507 -5 Z " />
<glyph glyph-name="uni01C8" unicode="&#x1c8;" horiz-adv-x="2170" d="M302 700 L115 700 L115 0 L1106 0 L1106 170 L302 170 L302 700 Z M1450 -4 L1735 -4 C2004 -4 2085 106 2085 260 L2085 560 L1919 560 L1919 260 C1919 188 1890 139 1734 139 L1451 139 C1345 139 1330 176 1330 220 L1330 274 L1164 274 L1164 220 C1164 97 1234 -4 1450 -4 L1450 -4 Z " />
<glyph glyph-name="uni01C9" unicode="&#x1c9;" horiz-adv-x="2026" d="M271 560 L105 560 L105 0 L949 0 L949 143 L271 143 L271 560 Z M1306 -4 L1591 -4 C1860 -4 1941 106 1941 260 L1941 560 L1775 560 L1775 260 C1775 188 1746 139 1590 139 L1307 139 C1201 139 1186 176 1186 220 L1186 274 L1020 274 L1020 220 C1020 97 1090 -4 1306 -4 L1306 -4 Z " />
<glyph glyph-name="uni01CA" unicode="&#x1ca;" horiz-adv-x="2520" d="M1017 0 L1194 0 L1194 700 L1007 700 L1007 219 L292 700 L115 700 L115 0 L302 0 L302 481 L1017 0 Z M1687 -5 L2004 -5 C2321 -5 2425 132 2425 325 L2425 700 L2238 700 L2238 325 C2238 230 2193 165 2003 165 L1688 165 C1559 165 1531 215 1531 275 L1531 340 L1344 340 L1344 275 C1344 121 1433 -5 1687 -5 L1687 -5 Z " />
<glyph glyph-name="uni01CB" unicode="&#x1cb;" horiz-adv-x="2350" d="M1017 0 L1194 0 L1194 700 L1007 700 L1007 219 L292 700 L115 700 L115 0 L302 0 L302 481 L1017 0 Z M1630 -4 L1915 -4 C2184 -4 2265 106 2265 260 L2265 560 L2099 560 L2099 260 C2099 188 2070 139 1914 139 L1631 139 C1525 139 1510 176 1510 220 L1510 274 L1344 274 L1344 220 C1344 97 1414 -4 1630 -4 L1630 -4 Z " />
<glyph glyph-name="uni01CC" unicode="&#x1cc;" horiz-adv-x="2170" d="M1024 0 L1024 560 L859 560 L859 185 L262 560 L105 560 L105 0 L271 0 L271 375 L867 0 L1024 0 Z M1450 -4 L1735 -4 C2004 -4 2085 106 2085 260 L2085 560 L1919 560 L1919 260 C1919 188 1890 139 1734 139 L1451 139 C1345 139 1330 176 1330 220 L1330 274 L1164 274 L1164 220 C1164 97 1234 -4 1450 -4 L1450 -4 Z " />
<glyph glyph-name="uni01CD" unicode="&#x1cd;" horiz-adv-x="1293" d="M1060 0 L1290 0 L746 700 L548 700 L3 0 L233 0 L317 110 L975 110 L1060 0 Z M646 539 L858 263 L434 263 L646 539 Z M862 946 L741 946 L646 863 L551 946 L430 946 L539 775 L752 775 L862 946 Z " />
<glyph glyph-name="uni01CE" unicode="&#x1ce;" horiz-adv-x="1105" d="M897 0 L1101 0 L640 560 L465 560 L4 0 L208 0 L283 93 L821 93 L897 0 Z M552 424 L719 218 L385 218 L552 424 Z M768 806 L647 806 L552 723 L457 806 L336 806 L445 635 L658 635 L768 806 Z " />
<glyph glyph-name="uni01CF" unicode="&#x1cf;" horiz-adv-x="417" d="M115 0 L302 0 L302 700 L115 700 L115 0 Z M425 946 L304 946 L209 863 L114 946 L-7 946 L102 775 L315 775 L425 946 Z " />
<glyph glyph-name="uni01D0" unicode="&#x1d0;" horiz-adv-x="376" d="M105 0 L271 0 L271 560 L105 560 L105 0 Z M404 806 L283 806 L188 723 L93 806 L-28 806 L81 635 L294 635 L404 806 Z " />
<glyph glyph-name="uni01D1" unicode="&#x1d1;" horiz-adv-x="1348" d="M826 -10 C1152 -10 1280 151 1280 350 C1280 549 1152 710 826 710 L522 710 C196 710 68 549 68 350 C68 151 196 -10 522 -10 L826 -10 Z M523 160 C319 160 267 244 267 350 C267 456 319 540 524 540 L825 540 C1029 540 1080 456 1080 350 C1080 244 1029 160 825 160 L523 160 Z M890 946 L769 946 L674 863 L579 946 L458 946 L567 775 L780 775 L890 946 Z " />
<glyph glyph-name="uni01D2" unicode="&#x1d2;" horiz-adv-x="1153" d="M715 -8 C992 -8 1092 121 1092 280 C1092 439 992 568 715 568 L439 568 C162 568 61 439 61 280 C61 121 162 -8 439 -8 L715 -8 Z M440 135 C270 135 236 199 236 280 C236 361 270 425 440 425 L714 425 C882 425 917 361 917 280 C917 199 882 135 714 135 L440 135 Z M792 806 L671 806 L576 723 L481 806 L360 806 L469 635 L682 635 L792 806 Z " />
<glyph glyph-name="uni01D3" unicode="&#x1d3;" horiz-adv-x="1275" d="M282 323 L282 700 L95 700 L95 323 C95 130 199 -10 516 -10 L759 -10 C1076 -10 1180 130 1180 323 L1180 700 L993 700 L993 323 C993 228 948 160 758 160 L517 160 C327 160 282 228 282 323 L282 323 Z M853 946 L732 946 L637 863 L542 946 L421 946 L530 775 L743 775 L853 946 Z " />
<glyph glyph-name="uni01D4" unicode="&#x1d4;" horiz-adv-x="1093" d="M249 258 L249 560 L85 560 L85 258 C85 104 165 -8 434 -8 L658 -8 C928 -8 1008 104 1008 258 L1008 560 L842 560 L842 258 C842 187 814 135 657 135 L435 135 C278 135 249 187 249 258 L249 258 Z M762 806 L641 806 L546 723 L451 806 L330 806 L439 635 L652 635 L762 806 Z " />
<glyph glyph-name="uni01D5" unicode="&#x1d5;" horiz-adv-x="1275" d="M705 777 L871 777 L871 941 L705 941 L705 777 Z M404 777 L570 777 L570 941 L404 941 L404 777 Z M420 1000 L855 1000 L855 1118 L420 1118 L420 1000 Z M282 323 L282 700 L95 700 L95 323 C95 130 199 -10 516 -10 L759 -10 C1076 -10 1180 130 1180 323 L1180 700 L993 700 L993 323 C993 228 948 160 758 160 L517 160 C327 160 282 228 282 323 L282 323 Z " />
<glyph glyph-name="uni01D6" unicode="&#x1d6;" horiz-adv-x="1093" d="M614 637 L780 637 L780 801 L614 801 L614 637 Z M313 637 L479 637 L479 801 L313 801 L313 637 Z M329 860 L764 860 L764 978 L329 978 L329 860 Z M249 258 L249 560 L85 560 L85 258 C85 104 165 -8 434 -8 L658 -8 C928 -8 1008 104 1008 258 L1008 560 L842 560 L842 258 C842 187 814 135 657 135 L435 135 C278 135 249 187 249 258 L249 258 Z " />
<glyph glyph-name="uni01D7" unicode="&#x1d7;" horiz-adv-x="1275" d="M282 323 L282 700 L95 700 L95 323 C95 130 199 -10 516 -10 L759 -10 C1076 -10 1180 130 1180 323 L1180 700 L993 700 L993 323 C993 228 948 160 758 160 L517 160 C327 160 282 228 282 323 L282 323 Z M705 777 L871 777 L871 941 L705 941 L705 777 Z M404 777 L570 777 L570 941 L404 941 L404 777 Z M532 988 L653 988 L833 1159 L628 1159 L532 988 Z " />
<glyph glyph-name="uni01D8" unicode="&#x1d8;" horiz-adv-x="1093" d="M249 258 L249 560 L85 560 L85 258 C85 104 165 -8 434 -8 L658 -8 C928 -8 1008 104 1008 258 L1008 560 L842 560 L842 258 C842 187 814 135 657 135 L435 135 C278 135 249 187 249 258 L249 258 Z M614 637 L780 637 L780 801 L614 801 L614 637 Z M313 637 L479 637 L479 801 L313 801 L313 637 Z M441 848 L562 848 L742 1019 L537 1019 L441 848 Z " />
<glyph glyph-name="uni01D9" unicode="&#x1d9;" horiz-adv-x="1275" d="M282 323 L282 700 L95 700 L95 323 C95 130 199 -10 516 -10 L759 -10 C1076 -10 1180 130 1180 323 L1180 700 L993 700 L993 323 C993 228 948 160 758 160 L517 160 C327 160 282 228 282 323 L282 323 Z M705 777 L871 777 L871 941 L705 941 L705 777 Z M404 777 L570 777 L570 941 L404 941 L404 777 Z M854 1159 L733 1159 L638 1076 L543 1159 L422 1159 L531 988 L744 988 L854 1159 Z " />
<glyph glyph-name="uni01DA" unicode="&#x1da;" horiz-adv-x="1093" d="M249 258 L249 560 L85 560 L85 258 C85 104 165 -8 434 -8 L658 -8 C928 -8 1008 104 1008 258 L1008 560 L842 560 L842 258 C842 187 814 135 657 135 L435 135 C278 135 249 187 249 258 L249 258 Z M614 637 L780 637 L780 801 L614 801 L614 637 Z M313 637 L479 637 L479 801 L313 801 L313 637 Z M763 1019 L642 1019 L547 936 L452 1019 L331 1019 L440 848 L653 848 L763 1019 Z " />
<glyph glyph-name="uni01DB" unicode="&#x1db;" horiz-adv-x="1275" d="M282 323 L282 700 L95 700 L95 323 C95 130 199 -10 516 -10 L759 -10 C1076 -10 1180 130 1180 323 L1180 700 L993 700 L993 323 C993 228 948 160 758 160 L517 160 C327 160 282 228 282 323 L282 323 Z M705 777 L871 777 L871 941 L705 941 L705 777 Z M404 777 L570 777 L570 941 L404 941 L404 777 Z M647 1159 L442 1159 L622 988 L743 988 L647 1159 Z " />
<glyph glyph-name="uni01DC" unicode="&#x1dc;" horiz-adv-x="1093" d="M249 258 L249 560 L85 560 L85 258 C85 104 165 -8 434 -8 L658 -8 C928 -8 1008 104 1008 258 L1008 560 L842 560 L842 258 C842 187 814 135 657 135 L435 135 C278 135 249 187 249 258 L249 258 Z M614 637 L780 637 L780 801 L614 801 L614 637 Z M313 637 L479 637 L479 801 L313 801 L313 637 Z M556 1019 L351 1019 L531 848 L652 848 L556 1019 Z " />
<glyph glyph-name="uni01DD" unicode="&#x1dd;" horiz-adv-x="1032" d="M927 560 L66 560 L66 417 L761 417 L761 342 L154 342 L154 218 L761 218 L761 143 L66 143 L66 0 L927 0 L927 560 Z " />
<glyph glyph-name="uni01DE" unicode="&#x1de;" horiz-adv-x="1293" d="M714 777 L880 777 L880 941 L714 941 L714 777 Z M413 777 L579 777 L579 941 L413 941 L413 777 Z M429 1000 L864 1000 L864 1118 L429 1118 L429 1000 Z M1060 0 L1290 0 L746 700 L548 700 L3 0 L233 0 L317 110 L975 110 L1060 0 Z M646 539 L858 263 L434 263 L646 539 Z " />
<glyph glyph-name="uni01DF" unicode="&#x1df;" horiz-adv-x="1105" d="M620 637 L786 637 L786 801 L620 801 L620 637 Z M319 637 L485 637 L485 801 L319 801 L319 637 Z M335 860 L770 860 L770 978 L335 978 L335 860 Z M897 0 L1101 0 L640 560 L465 560 L4 0 L208 0 L283 93 L821 93 L897 0 Z M552 424 L719 218 L385 218 L552 424 Z " />
<glyph glyph-name="uni01E0" unicode="&#x1e0;" horiz-adv-x="1293" d="M564 777 L730 777 L730 941 L564 941 L564 777 Z M429 1000 L864 1000 L864 1118 L429 1118 L429 1000 Z M1060 0 L1290 0 L746 700 L548 700 L3 0 L233 0 L317 110 L975 110 L1060 0 Z M646 539 L858 263 L434 263 L646 539 Z " />
<glyph glyph-name="uni01E1" unicode="&#x1e1;" horiz-adv-x="1105" d="M470 637 L636 637 L636 801 L470 801 L470 637 Z M335 860 L770 860 L770 978 L335 978 L335 860 Z M897 0 L1101 0 L640 560 L465 560 L4 0 L208 0 L283 93 L821 93 L897 0 Z M552 424 L719 218 L385 218 L552 424 Z " />
<glyph glyph-name="uni01E2" unicode="&#x1e2;" horiz-adv-x="1725" d="M746 106 L746 0 L1652 0 L1652 170 L933 170 L933 274 L1550 274 L1550 426 L933 426 L933 530 L1652 530 L1652 700 L648 700 L3 0 L238 0 L334 106 L746 106 Z M746 561 L746 258 L468 258 L746 561 Z M778 801 L1213 801 L1213 919 L778 919 L778 801 Z " />
<glyph glyph-name="uni01E3" unicode="&#x1e3;" horiz-adv-x="1475" d="M637 83 L637 0 L1409 0 L1409 143 L802 143 L802 218 L1321 218 L1321 342 L802 342 L802 417 L1409 417 L1409 560 L550 560 L4 0 L212 0 L292 83 L637 83 Z M637 442 L637 208 L410 208 L637 442 Z M663 661 L1098 661 L1098 779 L663 779 L663 661 Z " />
<glyph glyph-name="Gcaron" unicode="&#x1e6;" horiz-adv-x="1256" d="M657 274 L983 274 L983 170 L510 170 C315 170 268 250 268 350 C268 450 315 530 510 530 L1111 530 L1111 700 L509 700 C192 700 68 543 68 350 C68 157 192 0 509 0 L1166 0 L1166 426 L657 426 L657 274 Z M868 946 L747 946 L652 863 L557 946 L436 946 L545 775 L758 775 L868 946 Z " />
<glyph glyph-name="gcaron" unicode="&#x1e7;" horiz-adv-x="1078" d="M561 218 L833 218 L833 143 L428 143 C267 143 237 204 237 280 C237 356 267 417 428 417 L949 417 L949 560 L428 560 C158 560 61 434 61 280 C61 126 158 0 428 0 L995 0 L995 342 L561 342 L561 218 Z M767 806 L646 806 L551 723 L456 806 L335 806 L444 635 L657 635 L767 806 Z " />
<glyph glyph-name="uni01E8" unicode="&#x1e8;" horiz-adv-x="1302" d="M1213 700 L890 700 L302 326 L302 700 L115 700 L115 0 L302 0 L302 142 L555 297 L991 0 L1304 0 L716 395 L1213 700 Z M827 946 L706 946 L611 863 L516 946 L395 946 L504 775 L717 775 L827 946 Z " />
<glyph glyph-name="uni01E9" unicode="&#x1e9;" horiz-adv-x="1121" d="M1047 560 L750 560 L271 273 L271 560 L105 560 L105 0 L271 0 L271 112 L482 234 L840 0 L1118 0 L624 316 L1047 560 Z M741 806 L620 806 L525 723 L430 806 L309 806 L418 635 L631 635 L741 806 Z " />
<glyph glyph-name="uni01EA" unicode="&#x1ea;" horiz-adv-x="1348" d="M826 -10 C831 -10 836 -10 841 -9 C766 -44 701 -100 701 -183 C701 -248 763 -291 853 -291 C902 -291 953 -288 1009 -268 L1009 -187 C973 -202 955 -205 927 -205 C879 -205 846 -184 846 -142 C846 -79 898 -35 956 0 C1186 38 1280 180 1280 350 C1280 549 1152 710 826 710 L522 710 C196 710 68 549 68 350 C68 151 196 -10 522 -10 L826 -10 Z M523 160 C319 160 267 244 267 350 C267 456 319 540 524 540 L825 540 C1029 540 1080 456 1080 350 C1080 244 1029 160 825 160 L523 160 Z " />
<glyph glyph-name="uni01EB" unicode="&#x1eb;" horiz-adv-x="1153" d="M570 -183 C570 -248 632 -291 722 -291 C771 -291 822 -288 878 -268 L878 -187 C842 -202 824 -205 796 -205 C748 -205 715 -184 715 -142 C715 -79 767 -35 825 0 C1019 30 1092 144 1092 280 C1092 439 992 568 715 568 L439 568 C162 568 61 439 61 280 C61 121 162 -8 439 -8 L714 -8 C637 -43 570 -99 570 -183 L570 -183 Z M440 135 C270 135 236 199 236 280 C236 361 270 425 440 425 L714 425 C882 425 917 361 917 280 C917 199 882 135 714 135 L440 135 Z " />
<glyph glyph-name="uni01EC" unicode="&#x1ec;" horiz-adv-x="1348" d="M826 -10 C831 -10 836 -10 841 -9 C766 -44 701 -100 701 -183 C701 -248 763 -291 853 -291 C902 -291 953 -288 1009 -268 L1009 -187 C973 -202 955 -205 927 -205 C879 -205 846 -184 846 -142 C846 -79 898 -35 956 0 C1186 38 1280 180 1280 350 C1280 549 1152 710 826 710 L522 710 C196 710 68 549 68 350 C68 151 196 -10 522 -10 L826 -10 Z M523 160 C319 160 267 244 267 350 C267 456 319 540 524 540 L825 540 C1029 540 1080 456 1080 350 C1080 244 1029 160 825 160 L523 160 Z M456 801 L891 801 L891 919 L456 919 L456 801 Z " />
<glyph glyph-name="uni01ED" unicode="&#x1ed;" horiz-adv-x="1153" d="M570 -183 C570 -248 632 -291 722 -291 C771 -291 822 -288 878 -268 L878 -187 C842 -202 824 -205 796 -205 C748 -205 715 -184 715 -142 C715 -79 767 -35 825 0 C1019 30 1092 144 1092 280 C1092 439 992 568 715 568 L439 568 C162 568 61 439 61 280 C61 121 162 -8 439 -8 L714 -8 C637 -43 570 -99 570 -183 L570 -183 Z M440 135 C270 135 236 199 236 280 C236 361 270 425 440 425 L714 425 C882 425 917 361 917 280 C917 199 882 135 714 135 L440 135 Z M359 661 L794 661 L794 779 L359 779 L359 661 Z " />
<glyph glyph-name="uni01F0" unicode="&#x1f0;" horiz-adv-x="1041" d="M321 -4 L606 -4 C875 -4 956 106 956 260 L956 560 L790 560 L790 260 C790 188 761 139 605 139 L322 139 C216 139 201 176 201 220 L201 274 L35 274 L35 220 C35 97 105 -4 321 -4 L321 -4 Z M1059 806 L938 806 L843 723 L748 806 L627 806 L736 635 L949 635 L1059 806 Z " />
<glyph glyph-name="uni01F1" unicode="&#x1f1;" horiz-adv-x="2459" d="M115 0 L746 0 C1063 0 1187 157 1187 350 C1187 543 1063 700 746 700 L115 700 L115 0 Z M745 530 C940 530 987 450 987 350 C987 250 940 170 745 170 L302 170 L302 530 L745 530 Z M1320 0 L2404 0 L2404 170 L1691 170 L2384 570 L2384 700 L1330 700 L1330 530 L2012 530 L1320 130 L1320 0 Z " />
<glyph glyph-name="uni01F2" unicode="&#x1f2;" horiz-adv-x="2285" d="M115 0 L746 0 C1063 0 1187 157 1187 350 C1187 543 1063 700 746 700 L115 700 L115 0 Z M745 530 C940 530 987 450 987 350 C987 250 940 170 745 170 L302 170 L302 530 L745 530 Z M1313 0 L2237 0 L2237 143 L1641 143 L2220 450 L2220 560 L1322 560 L1322 417 L1889 417 L1313 110 L1313 0 Z " />
<glyph glyph-name="uni01F3" unicode="&#x1f3;" horiz-adv-x="2109" d="M105 0 L651 0 C920 0 1018 126 1018 280 C1018 434 920 560 651 560 L105 560 L105 0 Z M650 417 C812 417 842 356 842 280 C842 204 812 143 650 143 L271 143 L271 417 L650 417 Z M1137 0 L2061 0 L2061 143 L1465 143 L2044 450 L2044 560 L1146 560 L1146 417 L1713 417 L1137 110 L1137 0 Z " />
<glyph glyph-name="uni01F4" unicode="&#x1f4;" horiz-adv-x="1256" d="M657 274 L983 274 L983 170 L510 170 C315 170 268 250 268 350 C268 450 315 530 510 530 L1111 530 L1111 700 L509 700 C192 700 68 543 68 350 C68 157 192 0 509 0 L1166 0 L1166 426 L657 426 L657 274 Z M546 775 L667 775 L847 946 L642 946 L546 775 Z " />
<glyph glyph-name="uni01F5" unicode="&#x1f5;" horiz-adv-x="1078" d="M561 218 L833 218 L833 143 L428 143 C267 143 237 204 237 280 C237 356 267 417 428 417 L949 417 L949 560 L428 560 C158 560 61 434 61 280 C61 126 158 0 428 0 L995 0 L995 342 L561 342 L561 218 Z M445 635 L566 635 L746 806 L541 806 L445 635 Z " />
<glyph glyph-name="uni01F8" unicode="&#x1f8;" horiz-adv-x="1309" d="M1017 0 L1194 0 L1194 700 L1007 700 L1007 219 L292 700 L115 700 L115 0 L302 0 L302 481 L1017 0 Z M663 946 L458 946 L638 775 L759 775 L663 946 Z " />
<glyph glyph-name="uni01F9" unicode="&#x1f9;" horiz-adv-x="1129" d="M1024 0 L1024 560 L859 560 L859 185 L262 560 L105 560 L105 0 L271 0 L271 375 L867 0 L1024 0 Z M573 806 L368 806 L548 635 L669 635 L573 806 Z " />
<glyph glyph-name="Aringacute" unicode="&#x1fa;" horiz-adv-x="1293" d="M1060 0 L1290 0 L746 700 L548 700 L3 0 L233 0 L317 110 L975 110 L1060 0 Z M646 539 L858 263 L434 263 L646 539 Z M611 861 C611 880 627 896 647 896 C665 896 681 880 681 861 C681 842 665 827 647 827 C627 827 611 842 611 861 L611 861 Z M510 861 C510 794 564 742 647 742 C728 742 782 794 782 861 C782 928 728 980 647 980 C564 980 510 928 510 861 L510 861 Z M540 1015 L661 1015 L841 1186 L636 1186 L540 1015 Z " />
<glyph glyph-name="aringacute" unicode="&#x1fb;" horiz-adv-x="1105" d="M897 0 L1101 0 L640 560 L465 560 L4 0 L208 0 L283 93 L821 93 L897 0 Z M552 424 L719 218 L385 218 L552 424 Z M517 721 C517 740 533 756 553 756 C571 756 587 740 587 721 C587 702 571 687 553 687 C533 687 517 702 517 721 L517 721 Z M416 721 C416 654 470 602 553 602 C634 602 688 654 688 721 C688 788 634 840 553 840 C470 840 416 788 416 721 L416 721 Z M446 875 L567 875 L747 1046 L542 1046 L446 875 Z " />
<glyph glyph-name="AEacute" unicode="&#x1fc;" horiz-adv-x="1725" d="M746 106 L746 0 L1652 0 L1652 170 L933 170 L933 274 L1550 274 L1550 426 L933 426 L933 530 L1652 530 L1652 700 L648 700 L3 0 L238 0 L334 106 L746 106 Z M746 561 L746 258 L468 258 L746 561 Z M890 775 L1011 775 L1191 946 L986 946 L890 775 Z " />
<glyph glyph-name="aeacute" unicode="&#x1fd;" horiz-adv-x="1475" d="M637 83 L637 0 L1409 0 L1409 143 L802 143 L802 218 L1321 218 L1321 342 L802 342 L802 417 L1409 417 L1409 560 L550 560 L4 0 L212 0 L292 83 L637 83 Z M637 442 L637 208 L410 208 L637 442 Z M775 635 L896 635 L1076 806 L871 806 L775 635 Z " />
<glyph glyph-name="Oslashacute" unicode="&#x1fe;" horiz-adv-x="1348" d="M568 775 L689 775 L869 946 L664 946 L568 775 Z M826 -10 C1152 -10 1280 151 1280 350 C1280 504 1203 636 1016 687 L1095 800 L883 800 L820 710 L522 710 C196 710 68 549 68 350 C68 196 144 64 331 13 L252 -100 L464 -100 L527 -10 L826 -10 Z M1080 350 C1080 244 1029 160 825 160 L646 160 L908 534 C1043 513 1080 439 1080 350 L1080 350 Z M267 350 C267 456 319 540 524 540 L701 540 L438 166 C304 187 267 260 267 350 L267 350 Z " />
<glyph glyph-name="oslashacute" unicode="&#x1ff;" horiz-adv-x="1153" d="M470 635 L591 635 L771 806 L566 806 L470 635 Z M715 -8 C992 -8 1092 121 1092 280 C1092 405 1030 511 869 551 L935 640 L748 640 L695 568 L439 568 C162 568 61 439 61 280 C61 155 123 49 283 9 L217 -80 L404 -80 L457 -8 L715 -8 Z M917 280 C917 199 882 135 714 135 L562 135 L774 421 C890 407 917 350 917 280 L917 280 Z M236 280 C236 361 270 425 440 425 L589 425 L378 138 C261 153 236 210 236 280 L236 280 Z " />
<glyph glyph-name="uni0200" unicode="&#x200;" horiz-adv-x="1293" d="M507 946 L302 946 L482 775 L603 775 L507 946 Z M804 946 L599 946 L779 775 L900 775 L804 946 Z M1060 0 L1290 0 L746 700 L548 700 L3 0 L233 0 L317 110 L975 110 L1060 0 Z M646 539 L858 263 L434 263 L646 539 Z " />
<glyph glyph-name="uni0201" unicode="&#x201;" horiz-adv-x="1105" d="M413 806 L208 806 L388 635 L509 635 L413 806 Z M710 806 L505 806 L685 635 L806 635 L710 806 Z M897 0 L1101 0 L640 560 L465 560 L4 0 L208 0 L283 93 L821 93 L897 0 Z M552 424 L719 218 L385 218 L552 424 Z " />
<glyph glyph-name="uni0202" unicode="&#x202;" horiz-adv-x="1293" d="M646 834 C707 834 735 809 739 773 L841 773 C837 856 800 948 646 948 C491 948 455 856 451 773 L553 773 C556 809 584 834 646 834 L646 834 Z M1060 0 L1290 0 L746 700 L548 700 L3 0 L233 0 L317 110 L975 110 L1060 0 Z M646 539 L858 263 L434 263 L646 539 Z " />
<glyph glyph-name="uni0203" unicode="&#x203;" horiz-adv-x="1105" d="M552 694 C613 694 641 669 645 633 L747 633 C743 716 706 808 552 808 C397 808 361 716 357 633 L459 633 C462 669 490 694 552 694 L552 694 Z M897 0 L1101 0 L640 560 L465 560 L4 0 L208 0 L283 93 L821 93 L897 0 Z M552 424 L719 218 L385 218 L552 424 Z " />
<glyph glyph-name="uni0204" unicode="&#x204;" horiz-adv-x="1199" d="M115 0 L1126 0 L1126 170 L302 170 L302 274 L1024 274 L1024 426 L302 426 L302 530 L1126 530 L1126 700 L115 700 L115 0 Z M470 946 L265 946 L445 775 L566 775 L470 946 Z M767 946 L562 946 L742 775 L863 775 L767 946 Z " />
<glyph glyph-name="uni0205" unicode="&#x205;" horiz-adv-x="1032" d="M105 0 L966 0 L966 143 L271 143 L271 218 L878 218 L878 342 L271 342 L271 417 L966 417 L966 560 L105 560 L105 0 Z M389 806 L184 806 L364 635 L485 635 L389 806 Z M686 806 L481 806 L661 635 L782 635 L686 806 Z " />
<glyph glyph-name="uni0206" unicode="&#x206;" horiz-adv-x="1199" d="M115 0 L1126 0 L1126 170 L302 170 L302 274 L1024 274 L1024 426 L302 426 L302 530 L1126 530 L1126 700 L115 700 L115 0 Z M609 834 C670 834 698 809 702 773 L804 773 C800 856 763 948 609 948 C454 948 418 856 414 773 L516 773 C519 809 547 834 609 834 L609 834 Z " />
<glyph glyph-name="uni0207" unicode="&#x207;" horiz-adv-x="1032" d="M105 0 L966 0 L966 143 L271 143 L271 218 L878 218 L878 342 L271 342 L271 417 L966 417 L966 560 L105 560 L105 0 Z M528 694 C589 694 617 669 621 633 L723 633 C719 716 682 808 528 808 C373 808 337 716 333 633 L435 633 C438 669 466 694 528 694 L528 694 Z " />
<glyph glyph-name="uni0208" unicode="&#x208;" horiz-adv-x="417" d="M70 946 L-135 946 L45 775 L166 775 L70 946 Z M367 946 L162 946 L342 775 L463 775 L367 946 Z M115 0 L302 0 L302 700 L115 700 L115 0 Z " />
<glyph glyph-name="uni0209" unicode="&#x209;" horiz-adv-x="376" d="M49 806 L-156 806 L24 635 L145 635 L49 806 Z M346 806 L141 806 L321 635 L442 635 L346 806 Z M105 0 L271 0 L271 560 L105 560 L105 0 Z " />
<glyph glyph-name="uni020A" unicode="&#x20a;" horiz-adv-x="417" d="M208 834 C269 834 297 809 301 773 L403 773 C399 856 362 948 208 948 C53 948 17 856 13 773 L115 773 C118 809 146 834 208 834 L208 834 Z M115 0 L302 0 L302 700 L115 700 L115 0 Z " />
<glyph glyph-name="uni020B" unicode="&#x20b;" horiz-adv-x="376" d="M188 694 C249 694 277 669 281 633 L383 633 C379 716 342 808 188 808 C33 808 -3 716 -7 633 L95 633 C98 669 126 694 188 694 L188 694 Z M105 0 L271 0 L271 560 L105 560 L105 0 Z " />
<glyph glyph-name="uni020C" unicode="&#x20c;" horiz-adv-x="1348" d="M535 946 L330 946 L510 775 L631 775 L535 946 Z M832 946 L627 946 L807 775 L928 775 L832 946 Z M826 -10 C1152 -10 1280 151 1280 350 C1280 549 1152 710 826 710 L522 710 C196 710 68 549 68 350 C68 151 196 -10 522 -10 L826 -10 Z M523 160 C319 160 267 244 267 350 C267 456 319 540 524 540 L825 540 C1029 540 1080 456 1080 350 C1080 244 1029 160 825 160 L523 160 Z " />
<glyph glyph-name="uni020D" unicode="&#x20d;" horiz-adv-x="1153" d="M437 806 L232 806 L412 635 L533 635 L437 806 Z M734 806 L529 806 L709 635 L830 635 L734 806 Z M715 -8 C992 -8 1092 121 1092 280 C1092 439 992 568 715 568 L439 568 C162 568 61 439 61 280 C61 121 162 -8 439 -8 L715 -8 Z M440 135 C270 135 236 199 236 280 C236 361 270 425 440 425 L714 425 C882 425 917 361 917 280 C917 199 882 135 714 135 L440 135 Z " />
<glyph glyph-name="uni020E" unicode="&#x20e;" horiz-adv-x="1348" d="M674 834 C735 834 763 809 767 773 L869 773 C865 856 828 948 674 948 C519 948 483 856 479 773 L581 773 C584 809 612 834 674 834 L674 834 Z M826 -10 C1152 -10 1280 151 1280 350 C1280 549 1152 710 826 710 L522 710 C196 710 68 549 68 350 C68 151 196 -10 522 -10 L826 -10 Z M523 160 C319 160 267 244 267 350 C267 456 319 540 524 540 L825 540 C1029 540 1080 456 1080 350 C1080 244 1029 160 825 160 L523 160 Z " />
<glyph glyph-name="uni020F" unicode="&#x20f;" horiz-adv-x="1153" d="M576 694 C637 694 665 669 669 633 L771 633 C767 716 730 808 576 808 C421 808 385 716 381 633 L483 633 C486 669 514 694 576 694 L576 694 Z M715 -8 C992 -8 1092 121 1092 280 C1092 439 992 568 715 568 L439 568 C162 568 61 439 61 280 C61 121 162 -8 439 -8 L715 -8 Z M440 135 C270 135 236 199 236 280 C236 361 270 425 440 425 L714 425 C882 425 917 361 917 280 C917 199 882 135 714 135 L440 135 Z " />
<glyph glyph-name="uni0210" unicode="&#x210;" horiz-adv-x="1281" d="M115 0 L302 0 L302 228 L645 228 L976 0 L1283 0 L925 234 C1093 253 1163 349 1163 466 C1163 595 1076 700 861 700 L115 700 L115 0 Z M853 530 C948 530 967 498 967 461 C967 424 948 392 853 392 L302 392 L302 530 L853 530 Z M464 946 L259 946 L439 775 L560 775 L464 946 Z M761 946 L556 946 L736 775 L857 775 L761 946 Z " />
<glyph glyph-name="uni0211" unicode="&#x211;" horiz-adv-x="1106" d="M105 0 L271 0 L271 179 L561 179 L835 0 L1099 0 L796 183 C941 198 997 275 997 371 C997 475 928 560 745 560 L105 560 L105 0 Z M738 417 C816 417 824 393 824 367 C824 340 816 317 738 317 L271 317 L271 417 L738 417 Z M382 806 L177 806 L357 635 L478 635 L382 806 Z M679 806 L474 806 L654 635 L775 635 L679 806 Z " />
<glyph glyph-name="uni0212" unicode="&#x212;" horiz-adv-x="1281" d="M115 0 L302 0 L302 228 L645 228 L976 0 L1283 0 L925 234 C1093 253 1163 349 1163 466 C1163 595 1076 700 861 700 L115 700 L115 0 Z M853 530 C948 530 967 498 967 461 C967 424 948 392 853 392 L302 392 L302 530 L853 530 Z M603 834 C664 834 692 809 696 773 L798 773 C794 856 757 948 603 948 C448 948 412 856 408 773 L510 773 C513 809 541 834 603 834 L603 834 Z " />
<glyph glyph-name="uni0213" unicode="&#x213;" horiz-adv-x="1106" d="M105 0 L271 0 L271 179 L561 179 L835 0 L1099 0 L796 183 C941 198 997 275 997 371 C997 475 928 560 745 560 L105 560 L105 0 Z M738 417 C816 417 824 393 824 367 C824 340 816 317 738 317 L271 317 L271 417 L738 417 Z M521 694 C582 694 610 669 614 633 L716 633 C712 716 675 808 521 808 C366 808 330 716 326 633 L428 633 C431 669 459 694 521 694 L521 694 Z " />
<glyph glyph-name="uni0214" unicode="&#x214;" horiz-adv-x="1275" d="M498 946 L293 946 L473 775 L594 775 L498 946 Z M795 946 L590 946 L770 775 L891 775 L795 946 Z M282 323 L282 700 L95 700 L95 323 C95 130 199 -10 516 -10 L759 -10 C1076 -10 1180 130 1180 323 L1180 700 L993 700 L993 323 C993 228 948 160 758 160 L517 160 C327 160 282 228 282 323 L282 323 Z " />
<glyph glyph-name="uni0215" unicode="&#x215;" horiz-adv-x="1093" d="M407 806 L202 806 L382 635 L503 635 L407 806 Z M704 806 L499 806 L679 635 L800 635 L704 806 Z M249 258 L249 560 L85 560 L85 258 C85 104 165 -8 434 -8 L658 -8 C928 -8 1008 104 1008 258 L1008 560 L842 560 L842 258 C842 187 814 135 657 135 L435 135 C278 135 249 187 249 258 L249 258 Z " />
<glyph glyph-name="uni0216" unicode="&#x216;" horiz-adv-x="1275" d="M637 834 C698 834 726 809 730 773 L832 773 C828 856 791 948 637 948 C482 948 446 856 442 773 L544 773 C547 809 575 834 637 834 L637 834 Z M282 323 L282 700 L95 700 L95 323 C95 130 199 -10 516 -10 L759 -10 C1076 -10 1180 130 1180 323 L1180 700 L993 700 L993 323 C993 228 948 160 758 160 L517 160 C327 160 282 228 282 323 L282 323 Z " />
<glyph glyph-name="uni0217" unicode="&#x217;" horiz-adv-x="1093" d="M546 694 C607 694 635 669 639 633 L741 633 C737 716 700 808 546 808 C391 808 355 716 351 633 L453 633 C456 669 484 694 546 694 L546 694 Z M249 258 L249 560 L85 560 L85 258 C85 104 165 -8 434 -8 L658 -8 C928 -8 1008 104 1008 258 L1008 560 L842 560 L842 258 C842 187 814 135 657 135 L435 135 C278 135 249 187 249 258 L249 258 Z " />
<glyph glyph-name="uni0218" unicode="&#x218;" horiz-adv-x="1207" d="M105 0 L867 0 C1065 0 1142 94 1142 213 C1142 335 1065 426 867 426 L344 426 C268 426 260 451 260 478 C260 504 268 530 344 530 L1102 530 L1102 700 L340 700 C142 700 65 606 65 487 C65 365 142 274 340 274 L863 274 C939 274 947 249 947 222 C947 196 939 170 863 170 L105 170 L105 0 Z M520 -244 L578 -244 L498 -384 L580 -384 L686 -229 L686 -80 L520 -80 L520 -244 Z " />
<glyph glyph-name="uni0219" unicode="&#x219;" horiz-adv-x="1031" d="M91 0 L744 0 C914 0 974 75 974 172 C974 270 914 342 744 342 L295 342 C236 342 230 360 230 380 C230 399 235 417 295 417 L940 417 L940 560 L287 560 C117 560 57 485 57 388 C57 290 117 218 287 218 L736 218 C795 218 801 200 801 180 C801 161 796 143 736 143 L91 143 L91 0 Z M432 -244 L490 -244 L410 -384 L492 -384 L598 -229 L598 -80 L432 -80 L432 -244 Z " />
<glyph glyph-name="uni021A" unicode="&#x21a;" horiz-adv-x="1184" d="M23 530 L499 530 L499 0 L685 0 L685 530 L1161 530 L1161 700 L23 700 L23 530 Z M509 -244 L567 -244 L487 -384 L569 -384 L675 -229 L675 -80 L509 -80 L509 -244 Z " />
<glyph glyph-name="uni021B" unicode="&#x21b;" horiz-adv-x="1039" d="M436 -244 L494 -244 L414 -384 L496 -384 L602 -229 L602 -80 L436 -80 L436 -244 Z M36 417 L437 417 L437 0 L603 0 L603 417 L1003 417 L1003 560 L36 560 L36 417 Z " />
<glyph glyph-name="uni021E" unicode="&#x21e;" horiz-adv-x="1305" d="M1003 0 L1190 0 L1190 700 L1003 700 L1003 435 L302 435 L302 700 L115 700 L115 0 L302 0 L302 265 L1003 265 L1003 0 Z M868 946 L747 946 L652 863 L557 946 L436 946 L545 775 L758 775 L868 946 Z " />
<glyph glyph-name="uni021F" unicode="&#x21f;" horiz-adv-x="1125" d="M854 0 L1020 0 L1020 560 L854 560 L854 352 L271 352 L271 560 L105 560 L105 0 L271 0 L271 208 L854 208 L854 0 Z M778 806 L657 806 L562 723 L467 806 L346 806 L455 635 L668 635 L778 806 Z " />
<glyph glyph-name="uni0226" unicode="&#x226;" horiz-adv-x="1293" d="M1060 0 L1290 0 L746 700 L548 700 L3 0 L233 0 L317 110 L975 110 L1060 0 Z M646 539 L858 263 L434 263 L646 539 Z M563 777 L729 777 L729 941 L563 941 L563 777 Z " />
<glyph glyph-name="uni0227" unicode="&#x227;" horiz-adv-x="1105" d="M897 0 L1101 0 L640 560 L465 560 L4 0 L208 0 L283 93 L821 93 L897 0 Z M552 424 L719 218 L385 218 L552 424 Z M469 637 L635 637 L635 801 L469 801 L469 637 Z " />
<glyph glyph-name="uni0228" unicode="&#x228;" horiz-adv-x="1199" d="M115 0 L571 0 L534 -143 L578 -143 C626 -144 649 -149 649 -179 C649 -231 509 -221 466 -190 L466 -271 C542 -310 775 -333 775 -184 C775 -95 705 -71 617 -71 L635 0 L1126 0 L1126 170 L302 170 L302 274 L1024 274 L1024 426 L302 426 L302 530 L1126 530 L1126 700 L115 700 L115 0 Z " />
<glyph glyph-name="uni0229" unicode="&#x229;" horiz-adv-x="1032" d="M105 0 L490 0 L453 -143 L497 -143 C545 -144 568 -149 568 -179 C568 -231 428 -221 385 -190 L385 -271 C461 -310 694 -333 694 -184 C694 -95 624 -71 536 -71 L554 0 L966 0 L966 143 L271 143 L271 218 L878 218 L878 342 L271 342 L271 417 L966 417 L966 560 L105 560 L105 0 Z " />
<glyph glyph-name="uni022A" unicode="&#x22a;" horiz-adv-x="1348" d="M741 777 L907 777 L907 941 L741 941 L741 777 Z M440 777 L606 777 L606 941 L440 941 L440 777 Z M456 1000 L891 1000 L891 1118 L456 1118 L456 1000 Z M826 -10 C1152 -10 1280 151 1280 350 C1280 549 1152 710 826 710 L522 710 C196 710 68 549 68 350 C68 151 196 -10 522 -10 L826 -10 Z M523 160 C319 160 267 244 267 350 C267 456 319 540 524 540 L825 540 C1029 540 1080 456 1080 350 C1080 244 1029 160 825 160 L523 160 Z " />
<glyph glyph-name="uni022B" unicode="&#x22b;" horiz-adv-x="1153" d="M644 637 L810 637 L810 801 L644 801 L644 637 Z M343 637 L509 637 L509 801 L343 801 L343 637 Z M359 860 L794 860 L794 978 L359 978 L359 860 Z M715 -8 C992 -8 1092 121 1092 280 C1092 439 992 568 715 568 L439 568 C162 568 61 439 61 280 C61 121 162 -8 439 -8 L715 -8 Z M440 135 C270 135 236 199 236 280 C236 361 270 425 440 425 L714 425 C882 425 917 361 917 280 C917 199 882 135 714 135 L440 135 Z " />
<glyph glyph-name="uni022C" unicode="&#x22c;" horiz-adv-x="1348" d="M774 948 C775 917 766 904 744 904 C712 904 664 942 603 942 C531 942 486 897 483 772 L574 772 C573 802 582 816 604 816 C635 816 683 777 745 777 C817 777 864 821 865 948 L774 948 Z M456 999 L891 999 L891 1117 L456 1117 L456 999 Z M826 -10 C1152 -10 1280 151 1280 350 C1280 549 1152 710 826 710 L522 710 C196 710 68 549 68 350 C68 151 196 -10 522 -10 L826 -10 Z M523 160 C319 160 267 244 267 350 C267 456 319 540 524 540 L825 540 C1029 540 1080 456 1080 350 C1080 244 1029 160 825 160 L523 160 Z " />
<glyph glyph-name="uni022D" unicode="&#x22d;" horiz-adv-x="1153" d="M677 808 C678 777 669 764 647 764 C615 764 567 802 506 802 C434 802 389 757 386 632 L477 632 C476 662 485 676 507 676 C538 676 586 637 648 637 C720 637 767 681 768 808 L677 808 Z M359 859 L794 859 L794 977 L359 977 L359 859 Z M715 -8 C992 -8 1092 121 1092 280 C1092 439 992 568 715 568 L439 568 C162 568 61 439 61 280 C61 121 162 -8 439 -8 L715 -8 Z M440 135 C270 135 236 199 236 280 C236 361 270 425 440 425 L714 425 C882 425 917 361 917 280 C917 199 882 135 714 135 L440 135 Z " />
<glyph glyph-name="uni022E" unicode="&#x22e;" horiz-adv-x="1348" d="M826 -10 C1152 -10 1280 151 1280 350 C1280 549 1152 710 826 710 L522 710 C196 710 68 549 68 350 C68 151 196 -10 522 -10 L826 -10 Z M523 160 C319 160 267 244 267 350 C267 456 319 540 524 540 L825 540 C1029 540 1080 456 1080 350 C1080 244 1029 160 825 160 L523 160 Z M591 777 L757 777 L757 941 L591 941 L591 777 Z " />
<glyph glyph-name="uni022F" unicode="&#x22f;" horiz-adv-x="1153" d="M715 -8 C992 -8 1092 121 1092 280 C1092 439 992 568 715 568 L439 568 C162 568 61 439 61 280 C61 121 162 -8 439 -8 L715 -8 Z M440 135 C270 135 236 199 236 280 C236 361 270 425 440 425 L714 425 C882 425 917 361 917 280 C917 199 882 135 714 135 L440 135 Z M493 637 L659 637 L659 801 L493 801 L493 637 Z " />
<glyph glyph-name="uni0230" unicode="&#x230;" horiz-adv-x="1348" d="M591 777 L757 777 L757 941 L591 941 L591 777 Z M456 1000 L891 1000 L891 1118 L456 1118 L456 1000 Z M826 -10 C1152 -10 1280 151 1280 350 C1280 549 1152 710 826 710 L522 710 C196 710 68 549 68 350 C68 151 196 -10 522 -10 L826 -10 Z M523 160 C319 160 267 244 267 350 C267 456 319 540 524 540 L825 540 C1029 540 1080 456 1080 350 C1080 244 1029 160 825 160 L523 160 Z " />
<glyph glyph-name="uni0231" unicode="&#x231;" horiz-adv-x="1153" d="M494 637 L660 637 L660 801 L494 801 L494 637 Z M359 860 L794 860 L794 978 L359 978 L359 860 Z M715 -8 C992 -8 1092 121 1092 280 C1092 439 992 568 715 568 L439 568 C162 568 61 439 61 280 C61 121 162 -8 439 -8 L715 -8 Z M440 135 C270 135 236 199 236 280 C236 361 270 425 440 425 L714 425 C882 425 917 361 917 280 C917 199 882 135 714 135 L440 135 Z " />
<glyph glyph-name="uni0232" unicode="&#x232;" horiz-adv-x="1257" d="M535 0 L722 0 L722 211 L1264 700 L988 700 L629 362 L269 700 L-7 700 L535 211 L535 0 Z M411 801 L846 801 L846 919 L411 919 L411 801 Z " />
<glyph glyph-name="uni0233" unicode="&#x233;" horiz-adv-x="1069" d="M452 0 L617 0 L617 171 L1076 560 L831 560 L534 294 L238 560 L-7 560 L452 171 L452 0 Z M317 661 L752 661 L752 779 L317 779 L317 661 Z " />
<glyph glyph-name="uni0237" unicode="&#x237;" horiz-adv-x="1041" d="M321 -4 L606 -4 C875 -4 956 106 956 260 L956 560 L790 560 L790 260 C790 188 761 139 605 139 L322 139 C216 139 201 176 201 220 L201 274 L35 274 L35 220 C35 97 105 -4 321 -4 L321 -4 Z " />
<glyph glyph-name="uni0256" unicode="&#x256;" horiz-adv-x="1079" d="M-15 218 L105 218 L105 0 L651 0 C920 0 1018 126 1018 280 C1018 434 920 560 651 560 L105 560 L105 342 L-15 342 L-15 218 Z M650 417 C812 417 842 356 842 280 C842 204 812 143 650 143 L271 143 L271 218 L571 218 L571 342 L271 342 L271 417 L650 417 Z " />
<glyph glyph-name="uni02BB" unicode="&#x2bb;" horiz-adv-x="367" d="M277 531 L198 531 L277 700 L195 700 L90 516 L90 343 L277 343 L277 531 Z " />
<glyph glyph-name="uni02BC" unicode="&#x2bc;" horiz-adv-x="367" d="M90 512 L169 512 L90 343 L172 343 L277 527 L277 700 L90 700 L90 512 Z " />
<glyph glyph-name="uni02BD" unicode="&#x2bd;" horiz-adv-x="367" d="M277 700 L90 700 L90 527 L195 343 L277 343 L198 512 L277 512 L277 700 Z " />
<glyph glyph-name="circumflex" unicode="&#x2c6;" horiz-adv-x="500" d="M356 806 L143 806 L34 635 L155 635 L250 718 L345 635 L466 635 L356 806 Z " />
<glyph glyph-name="caron" unicode="&#x2c7;" horiz-adv-x="500" d="M466 806 L345 806 L250 723 L155 806 L34 806 L143 635 L356 635 L466 806 Z " />
<glyph glyph-name="uni02C9" unicode="&#x2c9;" horiz-adv-x="500" d="M32 661 L467 661 L467 779 L32 779 L32 661 Z " />
<glyph glyph-name="uni02CA" unicode="&#x2ca;" horiz-adv-x="500" d="M144 635 L265 635 L445 806 L240 806 L144 635 Z " />
<glyph glyph-name="uni02CB" unicode="&#x2cb;" horiz-adv-x="500" d="M259 806 L54 806 L234 635 L355 635 L259 806 Z " />
<glyph glyph-name="uni02CD" unicode="&#x2cd;" horiz-adv-x="500" d="M32 -220 L467 -220 L467 -102 L32 -102 L32 -220 Z " />
<glyph glyph-name="uni02CE" unicode="&#x2ce;" horiz-adv-x="500" d="M259 -75 L54 -75 L234 -246 L355 -246 L259 -75 Z " />
<glyph glyph-name="uni02CF" unicode="&#x2cf;" horiz-adv-x="500" d="M144 -246 L265 -246 L445 -75 L240 -75 L144 -246 Z " />
<glyph glyph-name="breve" unicode="&#x2d8;" horiz-adv-x="500" d="M250 747 C188 747 160 772 157 808 L55 808 C59 725 95 633 250 633 C404 633 441 725 445 808 L343 808 C339 772 311 747 250 747 L250 747 Z " />
<glyph glyph-name="dotaccent" unicode="&#x2d9;" horiz-adv-x="500" d="M167 637 L333 637 L333 801 L167 801 L167 637 Z " />
<glyph glyph-name="ring" unicode="&#x2da;" horiz-adv-x="500" d="M215 721 C215 740 231 756 251 756 C269 756 285 740 285 721 C285 702 269 687 251 687 C231 687 215 702 215 721 L215 721 Z M114 721 C114 654 168 602 251 602 C332 602 386 654 386 721 C386 788 332 840 251 840 C168 840 114 788 114 721 L114 721 Z " />
<glyph glyph-name="ogonek" unicode="&#x2db;" horiz-adv-x="500" d="M132 -183 C132 -248 194 -291 284 -291 C333 -291 384 -288 440 -268 L440 -187 C404 -202 386 -205 358 -205 C310 -205 277 -184 277 -142 C277 -79 329 -35 387 0 L295 0 C211 -34 132 -92 132 -183 L132 -183 Z " />
<glyph glyph-name="tilde" unicode="&#x2dc;" horiz-adv-x="500" d="M350 808 C351 777 342 764 320 764 C288 764 240 802 179 802 C107 802 62 757 59 632 L150 632 C149 662 158 676 180 676 C211 676 259 637 321 637 C393 637 440 681 441 808 L350 808 Z " />
<glyph glyph-name="hungarumlaut" unicode="&#x2dd;" horiz-adv-x="500" d="M293 635 L414 635 L594 806 L389 806 L293 635 Z M-4 635 L117 635 L297 806 L92 806 L-4 635 Z " />
<glyph glyph-name="uni02EC" unicode="&#x2ec;" horiz-adv-x="500" d="M466 -75 L345 -75 L250 -158 L155 -75 L34 -75 L143 -246 L356 -246 L466 -75 Z " />
<glyph glyph-name="uni02EE" unicode="&#x2ee;" horiz-adv-x="661" d="M90 512 L169 512 L90 343 L172 343 L277 527 L277 700 L90 700 L90 512 Z M384 512 L463 512 L384 343 L466 343 L571 527 L571 700 L384 700 L384 512 Z " />
<glyph glyph-name="gravecomb" unicode="&#x300;" d="M-596 806 L-801 806 L-621 635 L-500 635 L-596 806 Z " />
<glyph glyph-name="acutecomb" unicode="&#x301;" d="M-711 635 L-590 635 L-410 806 L-615 806 L-711 635 Z " />
<glyph glyph-name="uni0302" unicode="&#x302;" d="M-500 806 L-713 806 L-822 635 L-701 635 L-606 718 L-511 635 L-390 635 L-500 806 Z " />
<glyph glyph-name="tildecomb" unicode="&#x303;" d="M-505 808 C-504 777 -513 764 -535 764 C-567 764 -615 802 -676 802 C-748 802 -793 757 -796 632 L-705 632 C-706 662 -697 676 -675 676 C-644 676 -596 637 -534 637 C-462 637 -415 681 -414 808 L-505 808 Z " />
<glyph glyph-name="uni0304" unicode="&#x304;" d="M-823 661 L-388 661 L-388 779 L-823 779 L-823 661 Z " />
<glyph glyph-name="uni0306" unicode="&#x306;" d="M-606 747 C-668 747 -696 772 -699 808 L-801 808 C-797 725 -761 633 -606 633 C-452 633 -415 725 -411 808 L-513 808 C-517 772 -545 747 -606 747 L-606 747 Z " />
<glyph glyph-name="uni0307" unicode="&#x307;" d="M-689 637 L-523 637 L-523 801 L-689 801 L-689 637 Z " />
<glyph glyph-name="uni0308" unicode="&#x308;" d="M-538 637 L-372 637 L-372 801 L-538 801 L-538 637 Z M-839 637 L-673 637 L-673 801 L-839 801 L-839 637 Z " />
<glyph glyph-name="hookabovecomb" unicode="&#x309;" d="M-671 609 L-588 609 L-588 653 L-586 653 C-502 653 -418 671 -418 762 C-418 851 -499 870 -585 870 C-645 870 -706 858 -742 843 L-742 758 C-718 771 -674 783 -630 783 C-588 783 -550 779 -550 752 C-550 721 -574 719 -625 719 L-671 719 L-671 609 Z " />
<glyph glyph-name="uni030A" unicode="&#x30a;" d="M-641 721 C-641 740 -625 756 -605 756 C-587 756 -571 740 -571 721 C-571 702 -587 687 -605 687 C-625 687 -641 702 -641 721 L-641 721 Z M-742 721 C-742 654 -688 602 -605 602 C-524 602 -470 654 -470 721 C-470 788 -524 840 -605 840 C-688 840 -742 788 -742 721 L-742 721 Z " />
<glyph glyph-name="uni030B" unicode="&#x30b;" d="M-563 635 L-442 635 L-262 806 L-467 806 L-563 635 Z M-860 635 L-739 635 L-559 806 L-764 806 L-860 635 Z " />
<glyph glyph-name="uni030C" unicode="&#x30c;" d="M-390 806 L-511 806 L-606 723 L-701 806 L-822 806 L-713 635 L-500 635 L-390 806 Z " />
<glyph glyph-name="uni030F" unicode="&#x30f;" d="M-745 806 L-950 806 L-770 635 L-649 635 L-745 806 Z M-448 806 L-653 806 L-473 635 L-352 635 L-448 806 Z " />
<glyph glyph-name="uni0311" unicode="&#x311;" d="M-606 694 C-545 694 -517 669 -513 633 L-411 633 C-415 716 -452 808 -606 808 C-761 808 -797 716 -801 633 L-699 633 C-696 669 -668 694 -606 694 L-606 694 Z " />
<glyph glyph-name="uni0312" unicode="&#x312;" d="M-512 531 L-591 531 L-512 700 L-594 700 L-699 516 L-699 343 L-512 343 L-512 531 Z " />
<glyph glyph-name="uni0313" unicode="&#x313;" d="M-699 512 L-620 512 L-699 343 L-617 343 L-512 527 L-512 700 L-699 700 L-699 512 Z " />
<glyph glyph-name="uni0314" unicode="&#x314;" d="M-512 700 L-699 700 L-699 527 L-594 343 L-512 343 L-591 512 L-512 512 L-512 700 Z " />
<glyph glyph-name="uni0316" unicode="&#x316;" d="M-596 -75 L-801 -75 L-621 -246 L-500 -246 L-596 -75 Z " />
<glyph glyph-name="uni0317" unicode="&#x317;" d="M-711 -246 L-590 -246 L-410 -75 L-615 -75 L-711 -246 Z " />
<glyph glyph-name="uni031B" unicode="&#x31b;" d="M-137 467 L-53 467 C52 467 140 489 140 619 C140 639 138 661 134 686 L-42 686 C-39 665 -37 648 -37 633 C-37 570 -68 560 -104 560 L-137 560 L-137 467 Z " />
<glyph glyph-name="uni031C" unicode="&#x31c;" d="M-552 -41 C-635 -41 -689 -93 -689 -160 C-689 -227 -635 -279 -552 -279 L-552 -194 C-572 -194 -588 -179 -588 -160 C-588 -141 -572 -125 -552 -125 L-552 -41 Z " />
<glyph glyph-name="dotbelowcomb" unicode="&#x323;" d="M-689 -244 L-523 -244 L-523 -80 L-689 -80 L-689 -244 Z " />
<glyph glyph-name="uni0324" unicode="&#x324;" d="M-538 -244 L-372 -244 L-372 -80 L-538 -80 L-538 -244 Z M-839 -244 L-673 -244 L-673 -80 L-839 -80 L-839 -244 Z " />
<glyph glyph-name="uni0325" unicode="&#x325;" d="M-641 -160 C-641 -141 -625 -125 -605 -125 C-587 -125 -571 -141 -571 -160 C-571 -179 -587 -194 -605 -194 C-625 -194 -641 -179 -641 -160 L-641 -160 Z M-742 -160 C-742 -227 -688 -279 -605 -279 C-524 -279 -470 -227 -470 -160 C-470 -93 -524 -41 -605 -41 C-688 -41 -742 -93 -742 -160 L-742 -160 Z " />
<glyph glyph-name="uni0326" unicode="&#x326;" d="M-683 -244 L-625 -244 L-705 -384 L-623 -384 L-517 -229 L-517 -80 L-683 -80 L-683 -244 Z " />
<glyph glyph-name="uni0327" unicode="&#x327;" d="M-682 -143 L-638 -143 C-590 -144 -567 -149 -567 -179 C-567 -231 -707 -221 -750 -190 L-750 -271 C-674 -310 -441 -333 -441 -184 C-441 -95 -511 -71 -599 -71 L-581 0 L-645 0 L-682 -143 Z " />
<glyph glyph-name="uni0328" unicode="&#x328;" d="M-724 -183 C-724 -248 -662 -291 -572 -291 C-523 -291 -472 -288 -416 -268 L-416 -187 C-452 -202 -470 -205 -498 -205 C-546 -205 -579 -184 -579 -142 C-579 -79 -527 -35 -469 0 L-561 0 C-645 -34 -724 -92 -724 -183 L-724 -183 Z " />
<glyph glyph-name="uni032C" unicode="&#x32c;" d="M-390 -75 L-511 -75 L-606 -158 L-701 -75 L-822 -75 L-713 -246 L-500 -246 L-390 -75 Z " />
<glyph glyph-name="uni032D" unicode="&#x32d;" d="M-500 -75 L-713 -75 L-822 -246 L-701 -246 L-606 -163 L-511 -246 L-390 -246 L-500 -75 Z " />
<glyph glyph-name="uni032E" unicode="&#x32e;" d="M-606 -134 C-668 -134 -696 -109 -699 -73 L-801 -73 C-797 -156 -761 -248 -606 -248 C-452 -248 -415 -156 -411 -73 L-513 -73 C-517 -109 -545 -134 -606 -134 L-606 -134 Z " />
<glyph glyph-name="uni032F" unicode="&#x32f;" d="M-606 -187 C-545 -187 -517 -212 -513 -248 L-411 -248 C-415 -165 -452 -73 -606 -73 C-761 -73 -797 -165 -801 -248 L-699 -248 C-696 -212 -668 -187 -606 -187 L-606 -187 Z " />
<glyph glyph-name="uni0330" unicode="&#x330;" d="M-505 -73 C-504 -104 -513 -117 -535 -117 C-567 -117 -615 -79 -676 -79 C-748 -79 -793 -124 -796 -249 L-705 -249 C-706 -219 -697 -205 -675 -205 C-644 -205 -596 -244 -534 -244 C-462 -244 -415 -200 -414 -73 L-505 -73 Z " />
<glyph glyph-name="uni0331" unicode="&#x331;" d="M-823 -220 L-388 -220 L-388 -102 L-823 -102 L-823 -220 Z " />
<glyph glyph-name="uni0338" unicode="&#x338;" d="M-940 -76 L-773 -76 L-271 777 L-438 777 L-940 -76 Z " />
<glyph glyph-name="uni0339" unicode="&#x339;" d="M-659 -125 C-639 -125 -623 -141 -623 -160 C-623 -179 -639 -194 -659 -194 L-659 -279 C-576 -279 -522 -227 -522 -160 C-522 -93 -576 -41 -659 -41 L-659 -125 Z " />
<glyph glyph-name="uni0340" unicode="&#x340;" d="M-596 806 L-801 806 L-621 635 L-500 635 L-596 806 Z " />
<glyph glyph-name="uni0341" unicode="&#x341;" d="M-711 635 L-590 635 L-410 806 L-615 806 L-711 635 Z " />
<glyph glyph-name="uni0343" unicode="&#x343;" d="M-699 512 L-620 512 L-699 343 L-617 343 L-512 527 L-512 700 L-699 700 L-699 512 Z " />
<glyph glyph-name="uni0344" unicode="&#x344;" d="M-450 641 L-289 641 L-289 801 L-450 801 L-450 641 Z M-922 641 L-761 641 L-761 801 L-922 801 L-922 641 Z M-647 635 L-566 635 L-515 835 L-696 835 L-647 635 Z " />
<glyph glyph-name="uni034F" unicode="&#x34f;" d="" />
<glyph glyph-name="uni0351" unicode="&#x351;" d="M-552 840 C-635 840 -689 788 -689 721 C-689 654 -635 602 -552 602 L-552 687 C-572 687 -588 702 -588 721 C-588 740 -572 756 -552 756 L-552 840 Z " />
<glyph glyph-name="uni0357" unicode="&#x357;" d="M-659 756 C-639 756 -623 740 -623 721 C-623 702 -639 687 -659 687 L-659 602 C-576 602 -522 654 -522 721 C-522 788 -576 840 -659 840 L-659 756 Z " />
<glyph glyph-name="uni0374" unicode="&#x374;" horiz-adv-x="375" d="M105 400 L227 400 L330 700 L122 700 L105 400 Z " />
<glyph glyph-name="uni0375" unicode="&#x375;" horiz-adv-x="375" d="M105 -100 L227 -100 L330 200 L122 200 L105 -100 Z " />
<glyph glyph-name="uni037E" unicode="&#x37e;" horiz-adv-x="367" d="M90 0 L169 0 L90 -169 L172 -169 L277 15 L277 188 L90 188 L90 0 Z M90 372 L277 372 L277 560 L90 560 L90 372 Z " />
<glyph glyph-name="tonos" unicode="&#x384;" horiz-adv-x="500" d="M201 635 L298 635 L348 835 L151 835 L201 635 Z " />
<glyph glyph-name="dieresistonos" unicode="&#x385;" horiz-adv-x="500" d="M406 641 L567 641 L567 801 L406 801 L406 641 Z M-66 641 L95 641 L95 801 L-66 801 L-66 641 Z M209 635 L290 635 L341 835 L160 835 L209 635 Z " />
<glyph glyph-name="Alphatonos" unicode="&#x386;" horiz-adv-x="1293" d="M1060 0 L1290 0 L746 700 L548 700 L3 0 L233 0 L317 110 L975 110 L1060 0 Z M646 539 L858 263 L434 263 L646 539 Z M146 500 L243 500 L293 700 L96 700 L146 500 Z " />
<glyph glyph-name="anoteleia" unicode="&#x387;" horiz-adv-x="346" d="M90 197 L256 197 L256 361 L90 361 L90 197 Z " />
<glyph glyph-name="Epsilontonos" unicode="&#x388;" horiz-adv-x="1382" d="M43 500 L140 500 L190 700 L-7 700 L43 500 Z M298 0 L1309 0 L1309 170 L485 170 L485 274 L1207 274 L1207 426 L485 426 L485 530 L1309 530 L1309 700 L298 700 L298 0 Z " />
<glyph glyph-name="Etatonos" unicode="&#x389;" horiz-adv-x="1488" d="M43 500 L140 500 L190 700 L-7 700 L43 500 Z M1186 0 L1373 0 L1373 700 L1186 700 L1186 435 L485 435 L485 700 L298 700 L298 0 L485 0 L485 265 L1186 265 L1186 0 Z " />
<glyph glyph-name="Iotatonos" unicode="&#x38a;" horiz-adv-x="600" d="M43 500 L140 500 L190 700 L-7 700 L43 500 Z M298 0 L485 0 L485 700 L298 700 L298 0 Z " />
<glyph glyph-name="Omicrontonos" unicode="&#x38c;" horiz-adv-x="1491" d="M43 500 L140 500 L190 700 L-7 700 L43 500 Z M969 -10 C1295 -10 1423 151 1423 350 C1423 549 1295 710 969 710 L665 710 C339 710 211 549 211 350 C211 151 339 -10 665 -10 L969 -10 Z M666 160 C462 160 410 244 410 350 C410 456 462 540 667 540 L968 540 C1172 540 1223 456 1223 350 C1223 244 1172 160 968 160 L666 160 Z " />
<glyph glyph-name="Upsilontonos" unicode="&#x38e;" horiz-adv-x="1485" d="M43 500 L140 500 L190 700 L-7 700 L43 500 Z M763 0 L950 0 L950 211 L1492 700 L1216 700 L857 362 L497 700 L221 700 L763 211 L763 0 Z " />
<glyph glyph-name="Omegatonos" unicode="&#x38f;" horiz-adv-x="1485" d="M43 500 L140 500 L190 700 L-7 700 L43 500 Z M955 0 L1423 0 L1423 170 L1307 170 C1366 230 1393 306 1393 392 C1393 567 1279 710 991 710 L623 710 C335 710 221 567 221 392 C221 306 247 230 307 170 L191 170 L191 0 L659 0 L659 140 C463 163 404 247 404 348 C404 455 456 540 661 540 L953 540 C1158 540 1210 455 1210 348 C1210 247 1151 163 955 140 L955 0 Z " />
<glyph glyph-name="iotadieresistonos" unicode="&#x390;" horiz-adv-x="376" d="M344 641 L505 641 L505 801 L344 801 L344 641 Z M-128 641 L33 641 L33 801 L-128 801 L-128 641 Z M147 635 L228 635 L279 835 L98 835 L147 635 Z M105 0 L271 0 L271 560 L105 560 L105 0 Z " />
<glyph glyph-name="Alpha" unicode="&#x391;" horiz-adv-x="1293" d="M1060 0 L1290 0 L746 700 L548 700 L3 0 L233 0 L317 110 L975 110 L1060 0 Z M646 539 L858 263 L434 263 L646 539 Z " />
<glyph glyph-name="Beta" unicode="&#x392;" horiz-adv-x="1259" d="M115 0 L949 0 C1120 0 1186 84 1186 187 C1186 270 1145 339 1043 364 C1108 397 1136 454 1136 519 C1136 621 1072 700 907 700 L115 700 L115 0 Z M898 274 C974 274 986 249 986 222 C986 196 974 170 898 170 L302 170 L302 274 L898 274 Z M944 478 C944 452 932 426 855 426 L302 426 L302 530 L856 530 C932 530 944 505 944 478 L944 478 Z " />
<glyph glyph-name="Gamma" unicode="&#x393;" horiz-adv-x="1129" d="M115 0 L302 0 L302 530 L1106 530 L1106 700 L115 700 L115 0 Z " />
<glyph glyph-name="Delta" unicode="&#x394;" horiz-adv-x="1293" d="M746 700 L548 700 L3 0 L1290 0 L746 700 Z M646 544 L936 170 L357 170 L646 544 Z " />
<glyph glyph-name="Epsilon" unicode="&#x395;" horiz-adv-x="1199" d="M115 0 L1126 0 L1126 170 L302 170 L302 274 L1024 274 L1024 426 L302 426 L302 530 L1126 530 L1126 700 L115 700 L115 0 Z " />
<glyph glyph-name="Zeta" unicode="&#x396;" horiz-adv-x="1204" d="M65 0 L1149 0 L1149 170 L436 170 L1129 570 L1129 700 L75 700 L75 530 L757 530 L65 130 L65 0 Z " />
<glyph glyph-name="Eta" unicode="&#x397;" horiz-adv-x="1305" d="M1003 0 L1190 0 L1190 700 L1003 700 L1003 435 L302 435 L302 700 L115 700 L115 0 L302 0 L302 265 L1003 265 L1003 0 Z " />
<glyph glyph-name="Theta" unicode="&#x398;" horiz-adv-x="1348" d="M443 274 L904 274 L904 426 L443 426 L443 274 Z M826 -10 C1152 -10 1280 151 1280 350 C1280 549 1152 710 826 710 L522 710 C196 710 68 549 68 350 C68 151 196 -10 522 -10 L826 -10 Z M523 160 C319 160 267 244 267 350 C267 456 319 540 524 540 L825 540 C1029 540 1080 456 1080 350 C1080 244 1029 160 825 160 L523 160 Z " />
<glyph glyph-name="Iota" unicode="&#x399;" horiz-adv-x="417" d="M115 0 L302 0 L302 700 L115 700 L115 0 Z " />
<glyph glyph-name="Kappa" unicode="&#x39a;" horiz-adv-x="1302" d="M1213 700 L890 700 L302 326 L302 700 L115 700 L115 0 L302 0 L302 142 L555 297 L991 0 L1304 0 L716 395 L1213 700 Z " />
<glyph glyph-name="Lambda" unicode="&#x39b;" horiz-adv-x="1293" d="M548 700 L3 0 L241 0 L646 539 L1053 0 L1290 0 L746 700 L548 700 Z " />
<glyph glyph-name="Mu" unicode="&#x39c;" horiz-adv-x="1457" d="M1164 700 L728 271 L293 700 L115 700 L115 0 L302 0 L302 442 L728 17 L1155 442 L1155 0 L1342 0 L1342 700 L1164 700 Z " />
<glyph glyph-name="Nu" unicode="&#x39d;" horiz-adv-x="1309" d="M1017 0 L1194 0 L1194 700 L1007 700 L1007 219 L292 700 L115 700 L115 0 L302 0 L302 481 L1017 0 Z " />
<glyph glyph-name="Xi" unicode="&#x39e;" horiz-adv-x="1207" d="M73 530 L1134 530 L1134 700 L73 700 L73 530 Z M1134 170 L73 170 L73 0 L1134 0 L1134 170 Z M165 274 L1042 274 L1042 426 L165 426 L165 274 Z " />
<glyph glyph-name="Omicron" unicode="&#x39f;" horiz-adv-x="1348" d="M826 -10 C1152 -10 1280 151 1280 350 C1280 549 1152 710 826 710 L522 710 C196 710 68 549 68 350 C68 151 196 -10 522 -10 L826 -10 Z M523 160 C319 160 267 244 267 350 C267 456 319 540 524 540 L825 540 C1029 540 1080 456 1080 350 C1080 244 1029 160 825 160 L523 160 Z " />
<glyph glyph-name="Pi" unicode="&#x3a0;" horiz-adv-x="1305" d="M1003 0 L1190 0 L1190 700 L115 700 L115 0 L302 0 L302 530 L1003 530 L1003 0 Z " />
<glyph glyph-name="Rho" unicode="&#x3a1;" horiz-adv-x="1196" d="M115 0 L302 0 L302 225 L870 225 C1087 225 1171 329 1171 463 C1171 593 1087 700 870 700 L115 700 L115 0 Z M866 530 C961 530 976 499 976 463 C976 425 961 395 866 395 L302 395 L302 530 L866 530 Z " />
<glyph glyph-name="Sigma" unicode="&#x3a3;" horiz-adv-x="1177" d="M73 561 L497 350 L73 139 L73 0 L1104 0 L1104 170 L459 170 L822 350 L459 530 L1104 530 L1104 700 L73 700 L73 561 Z " />
<glyph glyph-name="Tau" unicode="&#x3a4;" horiz-adv-x="1184" d="M23 530 L499 530 L499 0 L685 0 L685 530 L1161 530 L1161 700 L23 700 L23 530 Z " />
<glyph glyph-name="Upsilon" unicode="&#x3a5;" horiz-adv-x="1257" d="M535 0 L722 0 L722 211 L1264 700 L988 700 L629 362 L269 700 L-7 700 L535 211 L535 0 Z " />
<glyph glyph-name="Phi" unicode="&#x3a6;" horiz-adv-x="1305" d="M891 62 C1155 62 1256 188 1256 350 C1256 508 1155 638 891 638 L745 638 L745 750 L559 750 L559 638 L414 638 C150 638 49 508 49 350 C49 188 150 62 414 62 L559 62 L559 -50 L745 -50 L745 62 L891 62 Z M889 468 C1030 468 1057 415 1057 350 C1057 284 1030 232 889 232 L745 232 L745 468 L889 468 Z M248 350 C248 415 275 468 416 468 L559 468 L559 232 L416 232 C275 232 248 284 248 350 L248 350 Z " />
<glyph glyph-name="Chi" unicode="&#x3a7;" horiz-adv-x="1228" d="M7 700 L463 352 L2 0 L296 0 L614 256 L932 0 L1226 0 L765 352 L1221 700 L927 700 L614 448 L301 700 L7 700 Z " />
<glyph glyph-name="Psi" unicode="&#x3a8;" horiz-adv-x="1296" d="M555 0 L741 0 L741 131 L820 131 C1137 131 1241 268 1241 461 L1241 700 L1054 700 L1054 461 C1054 366 1009 301 819 301 L741 301 L741 700 L555 700 L555 301 L477 301 C287 301 242 366 242 461 L242 700 L55 700 L55 461 C55 268 159 131 476 131 L555 131 L555 0 Z " />
<glyph glyph-name="Omega" unicode="&#x3a9;" horiz-adv-x="1356" d="M826 0 L1294 0 L1294 170 L1178 170 C1237 230 1264 306 1264 392 C1264 567 1150 710 862 710 L494 710 C206 710 92 567 92 392 C92 306 118 230 178 170 L62 170 L62 0 L530 0 L530 140 C334 163 275 247 275 348 C275 455 327 540 532 540 L824 540 C1029 540 1081 455 1081 348 C1081 247 1022 163 826 140 L826 0 Z " />
<glyph glyph-name="Iotadieresis" unicode="&#x3aa;" horiz-adv-x="417" d="M115 0 L302 0 L302 700 L115 700 L115 0 Z M276 777 L442 777 L442 941 L276 941 L276 777 Z M-25 777 L141 777 L141 941 L-25 941 L-25 777 Z " />
<glyph glyph-name="Upsilondieresis" unicode="&#x3ab;" horiz-adv-x="1257" d="M535 0 L722 0 L722 211 L1264 700 L988 700 L629 362 L269 700 L-7 700 L535 211 L535 0 Z M697 777 L863 777 L863 941 L697 941 L697 777 Z M396 777 L562 777 L562 941 L396 941 L396 777 Z " />
<glyph glyph-name="alphatonos" unicode="&#x3ac;" horiz-adv-x="1105" d="M897 0 L1101 0 L640 560 L465 560 L4 0 L208 0 L283 93 L821 93 L897 0 Z M552 424 L719 218 L385 218 L552 424 Z M106 360 L203 360 L253 560 L56 560 L106 360 Z " />
<glyph glyph-name="epsilontonos" unicode="&#x3ad;" horiz-adv-x="1215" d="M43 360 L140 360 L190 560 L-7 560 L43 360 Z M288 0 L1149 0 L1149 143 L454 143 L454 218 L1061 218 L1061 342 L454 342 L454 417 L1149 417 L1149 560 L288 560 L288 0 Z " />
<glyph glyph-name="etatonos" unicode="&#x3ae;" horiz-adv-x="1308" d="M43 360 L140 360 L190 560 L-7 560 L43 360 Z M1037 0 L1203 0 L1203 560 L1037 560 L1037 352 L454 352 L454 560 L288 560 L288 0 L454 0 L454 208 L1037 208 L1037 0 Z " />
<glyph glyph-name="iotatonos" unicode="&#x3af;" horiz-adv-x="559" d="M43 360 L140 360 L190 560 L-7 560 L43 360 Z M288 0 L454 0 L454 560 L288 560 L288 0 Z " />
<glyph glyph-name="upsilondieresistonos" unicode="&#x3b0;" horiz-adv-x="1069" d="M691 641 L852 641 L852 801 L691 801 L691 641 Z M219 641 L380 641 L380 801 L219 801 L219 641 Z M494 635 L575 635 L626 835 L445 835 L494 635 Z M452 0 L617 0 L617 171 L1076 560 L831 560 L534 294 L238 560 L-7 560 L452 171 L452 0 Z " />
<glyph glyph-name="alpha" unicode="&#x3b1;" horiz-adv-x="1105" d="M897 0 L1101 0 L640 560 L465 560 L4 0 L208 0 L283 93 L821 93 L897 0 Z M552 424 L719 218 L385 218 L552 424 Z " />
<glyph glyph-name="beta" unicode="&#x3b2;" horiz-adv-x="1082" d="M105 0 L821 0 C967 0 1017 67 1017 150 C1017 216 981 271 896 292 C950 319 974 363 974 415 C974 497 926 560 786 560 L105 560 L105 0 Z M773 218 C833 218 838 200 838 180 C838 162 833 143 773 143 L271 143 L271 218 L773 218 Z M736 342 L271 342 L271 417 L737 417 C797 417 802 399 802 380 C802 360 796 342 736 342 L736 342 Z " />
<glyph glyph-name="gamma" unicode="&#x3b3;" horiz-adv-x="985" d="M105 0 L271 0 L271 417 L949 417 L949 560 L105 560 L105 0 Z " />
<glyph glyph-name="delta" unicode="&#x3b4;" horiz-adv-x="1105" d="M640 560 L465 560 L4 0 L1101 0 L640 560 Z M552 427 L787 143 L317 143 L552 427 Z " />
<glyph glyph-name="epsilon" unicode="&#x3b5;" horiz-adv-x="1032" d="M105 0 L966 0 L966 143 L271 143 L271 218 L878 218 L878 342 L271 342 L271 417 L966 417 L966 560 L105 560 L105 0 Z " />
<glyph glyph-name="zeta" unicode="&#x3b6;" horiz-adv-x="1030" d="M58 0 L982 0 L982 143 L386 143 L965 450 L965 560 L67 560 L67 417 L634 417 L58 110 L58 0 Z " />
<glyph glyph-name="eta" unicode="&#x3b7;" horiz-adv-x="1125" d="M854 0 L1020 0 L1020 560 L854 560 L854 352 L271 352 L271 560 L105 560 L105 0 L271 0 L271 208 L854 208 L854 0 Z " />
<glyph glyph-name="theta" unicode="&#x3b8;" horiz-adv-x="1153" d="M385 218 L766 218 L766 342 L385 342 L385 218 Z M715 -8 C992 -8 1092 121 1092 280 C1092 439 992 568 715 568 L439 568 C162 568 61 439 61 280 C61 121 162 -8 439 -8 L715 -8 Z M440 135 C270 135 236 199 236 280 C236 361 270 425 440 425 L714 425 C882 425 917 361 917 280 C917 199 882 135 714 135 L440 135 Z " />
<glyph glyph-name="iota" unicode="&#x3b9;" horiz-adv-x="376" d="M105 0 L271 0 L271 560 L105 560 L105 0 Z " />
<glyph glyph-name="kappa" unicode="&#x3ba;" horiz-adv-x="1121" d="M1047 560 L750 560 L271 273 L271 560 L105 560 L105 0 L271 0 L271 112 L482 234 L840 0 L1118 0 L624 316 L1047 560 Z " />
<glyph glyph-name="lambda" unicode="&#x3bb;" horiz-adv-x="1105" d="M465 560 L4 0 L213 0 L552 424 L892 0 L1101 0 L640 560 L465 560 Z " />
<glyph glyph-name="mu" unicode="&#x3bc;" horiz-adv-x="1255" d="M991 560 L627 227 L263 560 L105 560 L105 0 L271 0 L271 342 L627 12 L984 342 L984 0 L1150 0 L1150 560 L991 560 Z " />
<glyph glyph-name="nu" unicode="&#x3bd;" horiz-adv-x="1129" d="M1024 0 L1024 560 L859 560 L859 185 L262 560 L105 560 L105 0 L271 0 L271 375 L867 0 L1024 0 Z " />
<glyph glyph-name="xi" unicode="&#x3be;" horiz-adv-x="1035" d="M66 417 L969 417 L969 560 L66 560 L66 417 Z M969 143 L66 143 L66 0 L969 0 L969 143 Z M145 218 L890 218 L890 342 L145 342 L145 218 Z " />
<glyph glyph-name="omicron" unicode="&#x3bf;" horiz-adv-x="1153" d="M715 -8 C992 -8 1092 121 1092 280 C1092 439 992 568 715 568 L439 568 C162 568 61 439 61 280 C61 121 162 -8 439 -8 L715 -8 Z M440 135 C270 135 236 199 236 280 C236 361 270 425 440 425 L714 425 C882 425 917 361 917 280 C917 199 882 135 714 135 L440 135 Z " />
<glyph glyph-name="pi" unicode="&#x3c0;" horiz-adv-x="1125" d="M854 0 L1020 0 L1020 560 L105 560 L105 0 L271 0 L271 417 L854 417 L854 0 Z " />
<glyph glyph-name="rho" unicode="&#x3c1;" horiz-adv-x="1039" d="M105 0 L271 0 L271 176 L752 176 C938 176 1004 261 1004 368 C1004 473 938 560 752 560 L105 560 L105 0 Z M748 417 C827 417 831 395 831 368 C831 341 827 320 748 320 L271 320 L271 417 L748 417 Z " />
<glyph glyph-name="uni03C2" unicode="&#x3c2;" horiz-adv-x="1008" d="M65 442 L421 280 L65 118 L65 0 L943 0 L943 143 L406 143 L708 280 L406 417 L943 417 L943 560 L65 560 L65 442 Z " />
<glyph glyph-name="sigma" unicode="&#x3c3;" horiz-adv-x="1008" d="M65 442 L421 280 L65 118 L65 0 L943 0 L943 143 L406 143 L708 280 L406 417 L943 417 L943 560 L65 560 L65 442 Z " />
<glyph glyph-name="tau" unicode="&#x3c4;" horiz-adv-x="1039" d="M36 417 L437 417 L437 0 L603 0 L603 417 L1003 417 L1003 560 L36 560 L36 417 Z " />
<glyph glyph-name="upsilon" unicode="&#x3c5;" horiz-adv-x="1069" d="M452 0 L617 0 L617 171 L1076 560 L831 560 L534 294 L238 560 L-7 560 L452 171 L452 0 Z " />
<glyph glyph-name="phi" unicode="&#x3c6;" horiz-adv-x="1127" d="M773 50 C998 50 1077 150 1077 280 C1077 406 998 510 773 510 L646 510 L646 600 L480 600 L480 510 L354 510 C130 510 50 406 50 280 C50 150 130 50 354 50 L480 50 L480 -40 L646 -40 L646 50 L773 50 Z M771 367 C882 367 904 328 904 280 C904 232 882 193 771 193 L646 193 L646 367 L771 367 Z M224 280 C224 328 245 367 356 367 L480 367 L480 193 L356 193 C245 193 224 232 224 280 L224 280 Z " />
<glyph glyph-name="chi" unicode="&#x3c7;" horiz-adv-x="1060" d="M9 560 L398 282 L4 0 L271 0 L530 199 L789 0 L1056 0 L661 282 L1052 560 L785 560 L530 365 L276 560 L9 560 Z " />
<glyph glyph-name="psi" unicode="&#x3c8;" horiz-adv-x="1113" d="M473 0 L639 0 L639 103 L709 103 C979 103 1061 213 1061 367 L1061 560 L895 560 L895 367 C895 295 865 247 708 247 L639 247 L639 560 L473 560 L473 247 L404 247 C247 247 216 295 216 367 L216 560 L52 560 L52 367 C52 213 134 103 403 103 L473 103 L473 0 Z " />
<glyph glyph-name="omega" unicode="&#x3c9;" horiz-adv-x="1167" d="M708 0 L1108 0 L1108 143 L1018 143 C1061 191 1082 248 1082 314 C1082 454 993 568 749 568 L418 568 C174 568 85 454 85 314 C85 248 104 191 149 143 L59 143 L59 0 L459 0 L459 119 C295 135 246 199 246 277 C246 360 281 425 452 425 L715 425 C887 425 921 360 921 277 C921 199 872 135 708 119 L708 0 Z " />
<glyph glyph-name="iotadieresis" unicode="&#x3ca;" horiz-adv-x="376" d="M105 0 L271 0 L271 560 L105 560 L105 0 Z M256 637 L422 637 L422 801 L256 801 L256 637 Z M-45 637 L121 637 L121 801 L-45 801 L-45 637 Z " />
<glyph glyph-name="upsilondieresis" unicode="&#x3cb;" horiz-adv-x="1069" d="M452 0 L617 0 L617 171 L1076 560 L831 560 L534 294 L238 560 L-7 560 L452 171 L452 0 Z M603 637 L769 637 L769 801 L603 801 L603 637 Z M302 637 L468 637 L468 801 L302 801 L302 637 Z " />
<glyph glyph-name="omicrontonos" unicode="&#x3cc;" horiz-adv-x="1318" d="M43 360 L140 360 L190 560 L-7 560 L43 360 Z M880 -8 C1157 -8 1257 121 1257 280 C1257 439 1157 568 880 568 L604 568 C327 568 226 439 226 280 C226 121 327 -8 604 -8 L880 -8 Z M605 135 C435 135 401 199 401 280 C401 361 435 425 605 425 L879 425 C1047 425 1082 361 1082 280 C1082 199 1047 135 879 135 L605 135 Z " />
<glyph glyph-name="upsilontonos" unicode="&#x3cd;" horiz-adv-x="1297" d="M43 360 L140 360 L190 560 L-7 560 L43 360 Z M680 0 L845 0 L845 171 L1304 560 L1059 560 L762 294 L466 560 L221 560 L680 171 L680 0 Z " />
<glyph glyph-name="omegatonos" unicode="&#x3ce;" horiz-adv-x="1313" d="M43 360 L140 360 L190 560 L-7 560 L43 360 Z M854 0 L1254 0 L1254 143 L1164 143 C1207 191 1228 248 1228 314 C1228 454 1139 568 895 568 L564 568 C320 568 231 454 231 314 C231 248 250 191 295 143 L205 143 L205 0 L605 0 L605 119 C441 135 392 199 392 277 C392 360 427 425 598 425 L861 425 C1033 425 1067 360 1067 277 C1067 199 1018 135 854 119 L854 0 Z " />
<glyph glyph-name="uni0400" unicode="&#x400;" horiz-adv-x="1199" d="M115 0 L1126 0 L1126 170 L302 170 L302 274 L1024 274 L1024 426 L302 426 L302 530 L1126 530 L1126 700 L115 700 L115 0 Z M618 946 L413 946 L593 775 L714 775 L618 946 Z " />
<glyph glyph-name="uni0401" unicode="&#x401;" horiz-adv-x="1199" d="M115 0 L1126 0 L1126 170 L302 170 L302 274 L1024 274 L1024 426 L302 426 L302 530 L1126 530 L1126 700 L115 700 L115 0 Z M677 777 L843 777 L843 941 L677 941 L677 777 Z M376 777 L542 777 L542 941 L376 941 L376 777 Z " />
<glyph glyph-name="uni0402" unicode="&#x402;" horiz-adv-x="1354" d="M775 0 L1054 0 C1252 0 1329 94 1329 213 C1329 335 1252 426 1054 426 L520 426 L520 530 L964 530 L964 700 L23 700 L23 530 L333 530 L333 -1 L520 -1 L520 274 L1050 274 C1126 274 1131 249 1131 222 C1131 196 1126 170 1050 170 L775 170 L775 0 Z " />
<glyph glyph-name="uni0403" unicode="&#x403;" horiz-adv-x="1129" d="M115 0 L302 0 L302 530 L1106 530 L1106 700 L115 700 L115 0 Z M504 775 L625 775 L805 946 L600 946 L504 775 Z " />
<glyph glyph-name="uni0404" unicode="&#x404;" horiz-adv-x="1184" d="M1009 274 L1009 426 L268 426 C295 488 367 530 510 530 L1111 530 L1111 700 L509 700 C192 700 68 543 68 350 C68 157 192 0 509 0 L1111 0 L1111 170 L510 170 C367 170 295 211 268 274 L1009 274 Z " />
<glyph glyph-name="uni0405" unicode="&#x405;" horiz-adv-x="1207" d="M105 0 L867 0 C1065 0 1142 94 1142 213 C1142 335 1065 426 867 426 L344 426 C268 426 260 451 260 478 C260 504 268 530 344 530 L1102 530 L1102 700 L340 700 C142 700 65 606 65 487 C65 365 142 274 340 274 L863 274 C939 274 947 249 947 222 C947 196 939 170 863 170 L105 170 L105 0 Z " />
<glyph glyph-name="uni0406" unicode="&#x406;" horiz-adv-x="417" d="M115 0 L302 0 L302 700 L115 700 L115 0 Z " />
<glyph glyph-name="uni0407" unicode="&#x407;" horiz-adv-x="417" d="M115 0 L302 0 L302 700 L115 700 L115 0 Z M276 777 L442 777 L442 941 L276 941 L276 777 Z M-25 777 L141 777 L141 941 L-25 941 L-25 777 Z " />
<glyph glyph-name="uni0408" unicode="&#x408;" horiz-adv-x="1231" d="M378 -5 L695 -5 C1012 -5 1116 132 1116 325 L1116 700 L929 700 L929 325 C929 230 884 165 694 165 L379 165 C250 165 222 215 222 275 L222 340 L35 340 L35 275 C35 121 124 -5 378 -5 L378 -5 Z " />
<glyph glyph-name="uni0409" unicode="&#x409;" horiz-adv-x="1862" d="M293 700 L229 241 C223 201 197 170 126 170 L23 170 L23 0 L111 0 C320 0 396 96 416 241 L456 530 L859 530 L859 0 L1536 0 C1753 0 1837 104 1837 237 C1837 368 1753 475 1536 475 L1045 475 L1045 700 L293 700 Z M1532 305 C1627 305 1639 274 1639 237 C1639 200 1627 170 1532 170 L1045 170 L1045 305 L1532 305 Z " />
<glyph glyph-name="uni040A" unicode="&#x40a;" horiz-adv-x="1876" d="M873 0 L1550 0 C1767 0 1851 104 1851 237 C1851 368 1767 475 1550 475 L1059 475 L1059 700 L873 700 L873 475 L302 475 L302 700 L115 700 L115 0 L302 0 L302 305 L873 305 L873 0 Z M1546 305 C1641 305 1653 274 1653 237 C1653 200 1641 170 1546 170 L1059 170 L1059 305 L1546 305 Z " />
<glyph glyph-name="uni040B" unicode="&#x40b;" horiz-adv-x="1384" d="M1329 -1 L1329 200 C1329 325 1266 422 1061 422 L520 422 L520 530 L964 530 L964 700 L23 700 L23 530 L333 530 L333 -1 L520 -1 L520 251 L1065 251 C1138 251 1142 221 1142 183 L1142 -1 L1329 -1 Z " />
<glyph glyph-name="uni040C" unicode="&#x40c;" horiz-adv-x="1301" d="M750 356 L1209 700 L924 700 L586 435 L302 435 L302 700 L115 700 L115 0 L302 0 L302 265 L585 265 L992 0 L1303 0 L750 356 Z M480 775 L601 775 L781 946 L576 946 L480 775 Z " />
<glyph glyph-name="uni040D" unicode="&#x40d;" horiz-adv-x="1309" d="M1007 481 L1007 0 L1194 0 L1194 700 L1017 700 L302 219 L302 700 L115 700 L115 0 L292 0 L1007 481 Z M663 946 L458 946 L638 775 L759 775 L663 946 Z " />
<glyph glyph-name="uni040E" unicode="&#x40e;" horiz-adv-x="1263" d="M527 0 L1271 700 L1006 700 L648 348 L266 700 L-5 700 L522 229 L262 0 L527 0 Z M649 887 C587 887 559 912 556 948 L454 948 C458 865 494 773 649 773 C803 773 840 865 844 948 L742 948 C738 912 710 887 649 887 L649 887 Z " />
<glyph glyph-name="uni040F" unicode="&#x40f;" horiz-adv-x="1305" d="M1003 170 L302 170 L302 700 L115 700 L115 0 L559 0 L559 -150 L746 -150 L746 0 L1190 0 L1190 700 L1003 700 L1003 170 Z " />
<glyph glyph-name="uni0410" unicode="&#x410;" horiz-adv-x="1293" d="M1060 0 L1290 0 L746 700 L548 700 L3 0 L233 0 L317 110 L975 110 L1060 0 Z M646 539 L858 263 L434 263 L646 539 Z " />
<glyph glyph-name="uni0411" unicode="&#x411;" horiz-adv-x="1236" d="M115 0 L896 0 C1094 0 1171 94 1171 213 C1171 335 1094 426 896 426 L302 426 L302 530 L1106 530 L1106 700 L115 700 L115 0 Z M892 274 C968 274 973 249 973 222 C973 196 968 170 892 170 L302 170 L302 274 L892 274 Z " />
<glyph glyph-name="uni0412" unicode="&#x412;" horiz-adv-x="1259" d="M115 0 L949 0 C1120 0 1186 84 1186 187 C1186 270 1145 339 1043 364 C1108 397 1136 454 1136 519 C1136 621 1072 700 907 700 L115 700 L115 0 Z M898 274 C974 274 986 249 986 222 C986 196 974 170 898 170 L302 170 L302 274 L898 274 Z M944 478 C944 452 932 426 855 426 L302 426 L302 530 L856 530 C932 530 944 505 944 478 L944 478 Z " />
<glyph glyph-name="uni0413" unicode="&#x413;" horiz-adv-x="1129" d="M115 0 L302 0 L302 530 L1106 530 L1106 700 L115 700 L115 0 Z " />
<glyph glyph-name="uni0414" unicode="&#x414;" horiz-adv-x="1251" d="M210 0 L1006 0 L1006 -150 L1193 -150 L1193 170 L1106 170 L1106 700 L293 700 L229 241 C224 203 200 170 138 170 L23 170 L23 -150 L210 -150 L210 0 Z M422 289 L456 530 L919 530 L919 170 L375 170 C401 200 415 240 422 289 L422 289 Z " />
<glyph glyph-name="uni0415" unicode="&#x415;" horiz-adv-x="1199" d="M115 0 L1126 0 L1126 170 L302 170 L302 274 L1024 274 L1024 426 L302 426 L302 530 L1126 530 L1126 700 L115 700 L115 0 Z " />
<glyph glyph-name="uni0416" unicode="&#x416;" horiz-adv-x="1643" d="M1216 352 L1579 700 L1324 700 L1058 435 L914 435 L914 700 L728 700 L728 435 L585 435 L319 700 L64 700 L427 352 L13 0 L282 0 L585 265 L728 265 L728 0 L914 0 L914 265 L1058 265 L1361 0 L1630 0 L1216 352 Z " />
<glyph glyph-name="uni0417" unicode="&#x417;" horiz-adv-x="1269" d="M63 0 L959 0 C1130 0 1196 84 1196 187 C1196 270 1155 339 1053 364 C1118 397 1146 454 1146 519 C1146 621 1082 700 917 700 L83 700 L83 530 L866 530 C942 530 954 504 954 477 C954 451 942 426 865 426 L170 426 L170 274 L908 274 C984 274 996 250 996 223 C996 197 984 170 908 170 L63 170 L63 0 Z " />
<glyph glyph-name="uni0418" unicode="&#x418;" horiz-adv-x="1309" d="M1007 481 L1007 0 L1194 0 L1194 700 L1017 700 L302 219 L302 700 L115 700 L115 0 L292 0 L1007 481 Z " />
<glyph glyph-name="uni0419" unicode="&#x419;" horiz-adv-x="1309" d="M1007 481 L1007 0 L1194 0 L1194 700 L1017 700 L302 219 L302 700 L115 700 L115 0 L292 0 L1007 481 Z M654 887 C592 887 564 912 561 948 L459 948 C463 865 499 773 654 773 C808 773 845 865 849 948 L747 948 C743 912 715 887 654 887 L654 887 Z " />
<glyph glyph-name="uni041A" unicode="&#x41a;" horiz-adv-x="1301" d="M750 356 L1209 700 L924 700 L586 435 L302 435 L302 700 L115 700 L115 0 L302 0 L302 265 L585 265 L992 0 L1303 0 L750 356 Z " />
<glyph glyph-name="uni041B" unicode="&#x41b;" horiz-adv-x="1258" d="M293 700 L229 241 C223 201 197 170 126 170 L23 170 L23 0 L111 0 C320 0 395 95 416 241 L456 530 L956 530 L956 0 L1143 0 L1143 700 L293 700 Z " />
<glyph glyph-name="uni041C" unicode="&#x41c;" horiz-adv-x="1457" d="M1164 700 L728 271 L293 700 L115 700 L115 0 L302 0 L302 442 L728 17 L1155 442 L1155 0 L1342 0 L1342 700 L1164 700 Z " />
<glyph glyph-name="uni041D" unicode="&#x41d;" horiz-adv-x="1305" d="M1003 0 L1190 0 L1190 700 L1003 700 L1003 435 L302 435 L302 700 L115 700 L115 0 L302 0 L302 265 L1003 265 L1003 0 Z " />
<glyph glyph-name="uni041E" unicode="&#x41e;" horiz-adv-x="1348" d="M826 -10 C1152 -10 1280 151 1280 350 C1280 549 1152 710 826 710 L522 710 C196 710 68 549 68 350 C68 151 196 -10 522 -10 L826 -10 Z M523 160 C319 160 267 244 267 350 C267 456 319 540 524 540 L825 540 C1029 540 1080 456 1080 350 C1080 244 1029 160 825 160 L523 160 Z " />
<glyph glyph-name="uni041F" unicode="&#x41f;" horiz-adv-x="1305" d="M1003 0 L1190 0 L1190 700 L115 700 L115 0 L302 0 L302 530 L1003 530 L1003 0 Z " />
<glyph glyph-name="uni0420" unicode="&#x420;" horiz-adv-x="1196" d="M115 0 L302 0 L302 225 L870 225 C1087 225 1171 329 1171 463 C1171 593 1087 700 870 700 L115 700 L115 0 Z M866 530 C961 530 976 499 976 463 C976 425 961 395 866 395 L302 395 L302 530 L866 530 Z " />
<glyph glyph-name="uni0421" unicode="&#x421;" horiz-adv-x="1184" d="M268 350 C268 450 315 530 510 530 L1111 530 L1111 700 L509 700 C192 700 68 543 68 350 C68 157 192 0 509 0 L1111 0 L1111 170 L510 170 C315 170 268 250 268 350 L268 350 Z " />
<glyph glyph-name="uni0422" unicode="&#x422;" horiz-adv-x="1184" d="M23 530 L499 530 L499 0 L685 0 L685 530 L1161 530 L1161 700 L23 700 L23 530 Z " />
<glyph glyph-name="uni0423" unicode="&#x423;" horiz-adv-x="1263" d="M527 0 L1271 700 L1006 700 L648 348 L266 700 L-5 700 L522 229 L262 0 L527 0 Z " />
<glyph glyph-name="uni0424" unicode="&#x424;" horiz-adv-x="1305" d="M891 62 C1155 62 1256 188 1256 350 C1256 508 1155 638 891 638 L745 638 L745 750 L559 750 L559 638 L414 638 C150 638 49 508 49 350 C49 188 150 62 414 62 L559 62 L559 -50 L745 -50 L745 62 L891 62 Z M889 468 C1030 468 1057 415 1057 350 C1057 284 1030 232 889 232 L745 232 L745 468 L889 468 Z M248 350 C248 415 275 468 416 468 L559 468 L559 232 L416 232 C275 232 248 284 248 350 L248 350 Z " />
<glyph glyph-name="uni0425" unicode="&#x425;" horiz-adv-x="1228" d="M7 700 L463 352 L2 0 L296 0 L614 256 L932 0 L1226 0 L765 352 L1221 700 L927 700 L614 448 L301 700 L7 700 Z " />
<glyph glyph-name="uni0426" unicode="&#x426;" horiz-adv-x="1298" d="M966 170 L302 170 L302 700 L115 700 L115 0 L1053 0 L1053 -150 L1240 -150 L1240 170 L1153 170 L1153 700 L966 700 L966 170 Z " />
<glyph glyph-name="uni0427" unicode="&#x427;" horiz-adv-x="1226" d="M55 699 L55 439 C55 315 118 218 323 218 L924 218 L924 -1 L1111 -1 L1111 699 L924 699 L924 389 L319 389 C246 389 242 419 242 456 L242 699 L55 699 Z " />
<glyph glyph-name="uni0428" unicode="&#x428;" horiz-adv-x="1599" d="M1297 170 L892 170 L892 700 L706 700 L706 170 L302 170 L302 700 L115 700 L115 0 L1484 0 L1484 700 L1297 700 L1297 170 Z " />
<glyph glyph-name="uni0429" unicode="&#x429;" horiz-adv-x="1593" d="M1261 170 L874 170 L874 700 L688 700 L688 170 L302 170 L302 700 L115 700 L115 0 L1348 0 L1348 -150 L1535 -150 L1535 170 L1448 170 L1448 700 L1261 700 L1261 170 Z " />
<glyph glyph-name="uni042A" unicode="&#x42a;" horiz-adv-x="1354" d="M23 530 L333 530 L333 0 L1028 0 C1245 0 1329 104 1329 237 C1329 368 1245 475 1028 475 L520 475 L520 700 L23 700 L23 530 Z M1024 305 C1119 305 1131 274 1131 237 C1131 200 1119 170 1024 170 L520 170 L520 305 L1024 305 Z " />
<glyph glyph-name="uni042B" unicode="&#x42b;" horiz-adv-x="1613" d="M115 0 L870 0 C1087 0 1171 103 1171 237 C1171 367 1086 475 870 475 L302 475 L302 700 L115 700 L115 0 Z M866 305 C961 305 973 274 973 237 C973 200 961 170 866 170 L302 170 L302 305 L866 305 Z M1311 0 L1498 0 L1498 700 L1311 700 L1311 0 Z " />
<glyph glyph-name="uni042C" unicode="&#x42c;" horiz-adv-x="1196" d="M115 0 L870 0 C1087 0 1171 103 1171 237 C1171 367 1086 475 870 475 L302 475 L302 700 L115 700 L115 0 Z M866 305 C961 305 973 274 973 237 C973 200 961 170 866 170 L302 170 L302 305 L866 305 Z " />
<glyph glyph-name="uni042D" unicode="&#x42d;" horiz-adv-x="1184" d="M175 274 L915 274 C888 211 817 170 674 170 L73 170 L73 0 L675 0 C992 0 1116 157 1116 350 C1116 543 992 700 675 700 L73 700 L73 530 L674 530 C817 530 888 488 915 426 L175 426 L175 274 Z " />
<glyph glyph-name="uni042E" unicode="&#x42e;" horiz-adv-x="1879" d="M1357 -10 C1683 -10 1811 151 1811 350 C1811 549 1683 710 1357 710 L1103 710 C825 710 690 593 656 435 L302 435 L302 700 L115 700 L115 0 L302 0 L302 265 L656 265 C690 106 825 -10 1103 -10 L1357 -10 Z M1104 160 C900 160 848 244 848 350 C848 456 900 540 1104 540 L1356 540 C1560 540 1611 456 1611 350 C1611 244 1560 160 1356 160 L1104 160 Z " />
<glyph glyph-name="uni042F" unicode="&#x42f;" horiz-adv-x="1281" d="M1166 700 L420 700 C205 700 118 595 118 466 C118 349 188 253 356 234 L-2 0 L305 0 L636 228 L979 228 L979 0 L1166 0 L1166 700 Z M979 530 L979 392 L428 392 C333 392 314 424 314 461 C314 498 333 530 428 530 L979 530 Z " />
<glyph glyph-name="uni0430" unicode="&#x430;" horiz-adv-x="1105" d="M897 0 L1101 0 L640 560 L465 560 L4 0 L208 0 L283 93 L821 93 L897 0 Z M552 424 L719 218 L385 218 L552 424 Z " />
<glyph glyph-name="uni0431" unicode="&#x431;" horiz-adv-x="1061" d="M105 0 L774 0 C944 0 1004 75 1004 172 C1004 270 944 342 774 342 L271 342 L271 417 L949 417 L949 560 L105 560 L105 0 Z M766 218 C825 218 831 200 831 180 C831 161 826 143 766 143 L271 143 L271 218 L766 218 Z " />
<glyph glyph-name="uni0432" unicode="&#x432;" horiz-adv-x="1082" d="M105 0 L821 0 C967 0 1017 67 1017 150 C1017 216 981 271 896 292 C950 319 974 363 974 415 C974 497 926 560 786 560 L105 560 L105 0 Z M773 218 C833 218 838 200 838 180 C838 162 833 143 773 143 L271 143 L271 218 L773 218 Z M736 342 L271 342 L271 417 L737 417 C797 417 802 399 802 380 C802 360 796 342 736 342 L736 342 Z " />
<glyph glyph-name="uni0433" unicode="&#x433;" horiz-adv-x="985" d="M105 0 L271 0 L271 417 L949 417 L949 560 L105 560 L105 0 Z " />
<glyph glyph-name="uni0434" unicode="&#x434;" horiz-adv-x="1085" d="M202 0 L866 0 L866 -120 L1032 -120 L1032 143 L958 143 L958 560 L265 560 L211 196 C207 169 187 143 137 143 L36 143 L36 -120 L202 -120 L202 0 Z M382 238 L408 417 L792 417 L792 143 L344 143 C364 169 376 200 382 238 L382 238 Z " />
<glyph glyph-name="uni0435" unicode="&#x435;" horiz-adv-x="1032" d="M105 0 L966 0 L966 143 L271 143 L271 218 L878 218 L878 342 L271 342 L271 417 L966 417 L966 560 L105 560 L105 0 Z " />
<glyph glyph-name="uni0436" unicode="&#x436;" horiz-adv-x="1412" d="M1050 281 L1351 560 L1129 560 L913 352 L787 352 L787 560 L623 560 L623 352 L499 352 L283 560 L61 560 L362 281 L17 0 L253 0 L498 208 L623 208 L623 0 L787 0 L787 208 L913 208 L1154 0 L1395 0 L1050 281 Z " />
<glyph glyph-name="uni0437" unicode="&#x437;" horiz-adv-x="1086" d="M57 0 L825 0 C971 0 1021 67 1021 150 C1021 216 986 271 900 292 C954 319 978 363 978 415 C978 497 930 560 790 560 L74 560 L74 417 L748 417 C810 417 813 398 813 380 C813 362 810 342 746 342 L148 342 L148 218 L784 218 C845 218 849 199 849 180 C849 163 845 143 784 143 L57 143 L57 0 Z " />
<glyph glyph-name="uni0438" unicode="&#x438;" horiz-adv-x="1129" d="M858 375 L858 0 L1024 0 L1024 560 L867 560 L271 185 L271 560 L105 560 L105 0 L262 0 L858 375 Z " />
<glyph glyph-name="uni0439" unicode="&#x439;" horiz-adv-x="1129" d="M858 375 L858 0 L1024 0 L1024 560 L867 560 L271 185 L271 560 L105 560 L105 0 L262 0 L858 375 Z M564 747 C502 747 474 772 471 808 L369 808 C373 725 409 633 564 633 C718 633 755 725 759 808 L657 808 C653 772 625 747 564 747 L564 747 Z " />
<glyph glyph-name="uni043A" unicode="&#x43a;" horiz-adv-x="1122" d="M653 285 L1035 560 L778 560 L503 352 L271 352 L271 560 L105 560 L105 0 L271 0 L271 208 L509 208 L842 0 L1117 0 L653 285 Z " />
<glyph glyph-name="uni043B" unicode="&#x43b;" horiz-adv-x="1094" d="M265 560 L211 196 C206 166 184 143 127 143 L36 143 L36 0 L114 0 C293 0 358 77 376 196 L408 417 L823 417 L823 0 L989 0 L989 560 L265 560 Z " />
<glyph glyph-name="uni043C" unicode="&#x43c;" horiz-adv-x="1255" d="M991 560 L627 227 L263 560 L105 560 L105 0 L271 0 L271 342 L627 12 L984 342 L984 0 L1150 0 L1150 560 L991 560 Z " />
<glyph glyph-name="uni043D" unicode="&#x43d;" horiz-adv-x="1125" d="M854 0 L1020 0 L1020 560 L854 560 L854 352 L271 352 L271 560 L105 560 L105 0 L271 0 L271 208 L854 208 L854 0 Z " />
<glyph glyph-name="uni043E" unicode="&#x43e;" horiz-adv-x="1153" d="M715 -8 C992 -8 1092 121 1092 280 C1092 439 992 568 715 568 L439 568 C162 568 61 439 61 280 C61 121 162 -8 439 -8 L715 -8 Z M440 135 C270 135 236 199 236 280 C236 361 270 425 440 425 L714 425 C882 425 917 361 917 280 C917 199 882 135 714 135 L440 135 Z " />
<glyph glyph-name="uni043F" unicode="&#x43f;" horiz-adv-x="1125" d="M854 0 L1020 0 L1020 560 L105 560 L105 0 L271 0 L271 417 L854 417 L854 0 Z " />
<glyph glyph-name="uni0440" unicode="&#x440;" horiz-adv-x="1039" d="M105 0 L271 0 L271 176 L752 176 C938 176 1004 261 1004 368 C1004 473 938 560 752 560 L105 560 L105 0 Z M748 417 C827 417 831 395 831 368 C831 341 827 320 748 320 L271 320 L271 417 L748 417 Z " />
<glyph glyph-name="uni0441" unicode="&#x441;" horiz-adv-x="1014" d="M237 280 C237 356 267 417 428 417 L949 417 L949 560 L428 560 C158 560 61 434 61 280 C61 126 158 0 428 0 L949 0 L949 143 L428 143 C267 143 237 204 237 280 L237 280 Z " />
<glyph glyph-name="uni0442" unicode="&#x442;" horiz-adv-x="1039" d="M36 417 L437 417 L437 0 L603 0 L603 417 L1003 417 L1003 560 L36 560 L36 417 Z " />
<glyph glyph-name="uni0443" unicode="&#x443;" horiz-adv-x="1072" d="M453 0 L1082 560 L842 560 L551 287 L235 560 L-5 560 L439 186 L216 0 L453 0 Z " />
<glyph glyph-name="uni0444" unicode="&#x444;" horiz-adv-x="1127" d="M773 50 C998 50 1077 150 1077 280 C1077 406 998 510 773 510 L646 510 L646 600 L480 600 L480 510 L354 510 C130 510 50 406 50 280 C50 150 130 50 354 50 L480 50 L480 -40 L646 -40 L646 50 L773 50 Z M771 367 C882 367 904 328 904 280 C904 232 882 193 771 193 L646 193 L646 367 L771 367 Z M224 280 C224 328 245 367 356 367 L480 367 L480 193 L356 193 C245 193 224 232 224 280 L224 280 Z " />
<glyph glyph-name="uni0445" unicode="&#x445;" horiz-adv-x="1060" d="M9 560 L398 282 L4 0 L271 0 L530 199 L789 0 L1056 0 L661 282 L1052 560 L785 560 L530 365 L276 560 L9 560 Z " />
<glyph glyph-name="uni0446" unicode="&#x446;" horiz-adv-x="1116" d="M823 143 L271 143 L271 560 L105 560 L105 0 L897 0 L897 -120 L1063 -120 L1063 143 L989 143 L989 560 L823 560 L823 143 Z " />
<glyph glyph-name="uni0447" unicode="&#x447;" horiz-adv-x="1056" d="M52 559 L52 349 C52 247 104 171 279 171 L785 171 L785 -1 L951 -1 L951 559 L785 559 L785 314 L273 314 C223 314 218 335 218 363 L218 559 L52 559 Z " />
<glyph glyph-name="uni0448" unicode="&#x448;" horiz-adv-x="1375" d="M1105 143 L770 143 L770 560 L604 560 L604 143 L271 143 L271 560 L105 560 L105 0 L1270 0 L1270 560 L1105 560 L1105 143 Z " />
<glyph glyph-name="uni0449" unicode="&#x449;" horiz-adv-x="1367" d="M1074 143 L755 143 L755 560 L589 560 L589 143 L271 143 L271 560 L105 560 L105 0 L1148 0 L1148 -120 L1314 -120 L1314 143 L1240 143 L1240 560 L1074 560 L1074 143 Z " />
<glyph glyph-name="uni044A" unicode="&#x44a;" horiz-adv-x="1182" d="M36 417 L299 417 L299 0 L895 0 C1081 0 1147 84 1147 192 C1147 297 1082 384 895 384 L465 384 L465 560 L36 560 L36 417 Z M465 143 L465 240 L891 240 C970 240 974 219 974 192 C974 165 970 143 891 143 L465 143 Z " />
<glyph glyph-name="uni044B" unicode="&#x44b;" horiz-adv-x="1415" d="M105 0 L752 0 C938 0 1004 84 1004 192 C1004 297 938 384 752 384 L271 384 L271 560 L105 560 L105 0 Z M748 240 C827 240 831 219 831 192 C831 165 827 143 748 143 L271 143 L271 240 L748 240 Z M1144 0 L1310 0 L1310 560 L1144 560 L1144 0 Z " />
<glyph glyph-name="uni044C" unicode="&#x44c;" horiz-adv-x="1039" d="M105 0 L752 0 C938 0 1004 84 1004 192 C1004 297 938 384 752 384 L271 384 L271 560 L105 560 L105 0 Z M748 240 C827 240 831 219 831 192 C831 165 827 143 748 143 L271 143 L271 240 L748 240 Z " />
<glyph glyph-name="uni044D" unicode="&#x44d;" horiz-adv-x="1015" d="M777 218 C755 173 701 143 587 143 L66 143 L66 0 L587 0 C857 0 954 126 954 280 C954 434 857 560 587 560 L66 560 L66 417 L587 417 C701 417 755 386 777 342 L154 342 L154 218 L777 218 Z " />
<glyph glyph-name="uni044E" unicode="&#x44e;" horiz-adv-x="1609" d="M937 -8 L1170 -8 C1447 -8 1548 121 1548 280 C1548 439 1447 568 1170 568 L937 568 C703 568 595 476 566 352 L271 352 L271 560 L105 560 L105 0 L271 0 L271 208 L566 208 C595 84 703 -8 937 -8 L937 -8 Z M1169 135 L938 135 C768 135 725 199 725 280 C725 361 768 425 938 425 L1169 425 C1339 425 1382 361 1382 280 C1382 199 1339 135 1169 135 L1169 135 Z " />
<glyph glyph-name="uni044F" unicode="&#x44f;" horiz-adv-x="1106" d="M1001 560 L361 560 C178 560 109 475 109 371 C109 275 165 198 310 183 L7 0 L271 0 L545 179 L835 179 L835 0 L1001 0 L1001 560 Z M835 417 L835 317 L368 317 C290 317 282 340 282 367 C282 393 290 417 368 417 L835 417 Z " />
<glyph glyph-name="uni0450" unicode="&#x450;" horiz-adv-x="1032" d="M105 0 L966 0 L966 143 L271 143 L271 218 L878 218 L878 342 L271 342 L271 417 L966 417 L966 560 L105 560 L105 0 Z M537 806 L332 806 L512 635 L633 635 L537 806 Z " />
<glyph glyph-name="uni0451" unicode="&#x451;" horiz-adv-x="1032" d="M105 0 L966 0 L966 143 L271 143 L271 218 L878 218 L878 342 L271 342 L271 417 L966 417 L966 560 L105 560 L105 0 Z M595 637 L761 637 L761 801 L595 801 L595 637 Z M294 637 L460 637 L460 801 L294 801 L294 637 Z " />
<glyph glyph-name="uni0452" unicode="&#x452;" horiz-adv-x="1182" d="M677 0 L917 0 C1087 0 1147 75 1147 172 C1147 270 1087 342 917 342 L465 342 L465 417 L837 417 L837 560 L36 560 L36 417 L299 417 L299 -1 L465 -1 L465 218 L909 218 C968 218 974 200 974 180 C974 161 969 143 909 143 L677 143 L677 0 Z " />
<glyph glyph-name="uni0453" unicode="&#x453;" horiz-adv-x="985" d="M105 0 L271 0 L271 417 L949 417 L949 560 L105 560 L105 0 Z M429 635 L550 635 L730 806 L525 806 L429 635 Z " />
<glyph glyph-name="uni0454" unicode="&#x454;" horiz-adv-x="1015" d="M861 218 L861 342 L238 342 C260 386 314 417 428 417 L949 417 L949 560 L428 560 C158 560 61 434 61 280 C61 126 158 0 428 0 L949 0 L949 143 L428 143 C314 143 260 173 238 218 L861 218 Z " />
<glyph glyph-name="uni0455" unicode="&#x455;" horiz-adv-x="1031" d="M91 0 L744 0 C914 0 974 75 974 172 C974 270 914 342 744 342 L295 342 C236 342 230 360 230 380 C230 399 235 417 295 417 L940 417 L940 560 L287 560 C117 560 57 485 57 388 C57 290 117 218 287 218 L736 218 C795 218 801 200 801 180 C801 161 796 143 736 143 L91 143 L91 0 Z " />
<glyph glyph-name="uni0456" unicode="&#x456;" horiz-adv-x="376" d="M105 0 L271 0 L271 560 L105 560 L105 0 Z " />
<glyph glyph-name="uni0457" unicode="&#x457;" horiz-adv-x="376" d="M105 0 L271 0 L271 560 L105 560 L105 0 Z M256 637 L422 637 L422 801 L256 801 L256 637 Z M-45 637 L121 637 L121 801 L-45 801 L-45 637 Z " />
<glyph glyph-name="uni0458" unicode="&#x458;" horiz-adv-x="1041" d="M321 -4 L606 -4 C875 -4 956 106 956 260 L956 560 L790 560 L790 260 C790 188 761 139 605 139 L322 139 C216 139 201 176 201 220 L201 274 L35 274 L35 220 C35 97 105 -4 321 -4 L321 -4 Z " />
<glyph glyph-name="uni0459" unicode="&#x459;" horiz-adv-x="1614" d="M264 560 L210 196 C205 166 184 143 127 143 L36 143 L36 0 L113 0 C293 0 358 77 375 196 L408 417 L743 417 L743 0 L1327 0 C1513 0 1579 84 1579 192 C1579 297 1514 384 1327 384 L909 384 L909 560 L264 560 Z M1323 240 C1402 240 1406 219 1406 192 C1406 165 1402 143 1323 143 L909 143 L909 240 L1323 240 Z " />
<glyph glyph-name="uni045A" unicode="&#x45a;" horiz-adv-x="1617" d="M746 0 L1330 0 C1516 0 1582 84 1582 192 C1582 297 1516 384 1330 384 L912 384 L912 560 L746 560 L746 384 L271 384 L271 560 L105 560 L105 0 L271 0 L271 240 L746 240 L746 0 Z M1326 240 C1405 240 1409 219 1409 192 C1409 165 1405 143 1326 143 L912 143 L912 240 L1326 240 Z " />
<glyph glyph-name="uni045B" unicode="&#x45b;" horiz-adv-x="1199" d="M1147 -1 L1147 160 C1147 261 1094 339 919 339 L465 339 L465 417 L837 417 L837 560 L36 560 L36 417 L299 417 L299 -1 L465 -1 L465 196 L926 196 C975 196 981 174 981 147 L981 -1 L1147 -1 Z " />
<glyph glyph-name="uni045C" unicode="&#x45c;" horiz-adv-x="1122" d="M653 285 L1035 560 L778 560 L503 352 L271 352 L271 560 L105 560 L105 0 L271 0 L271 208 L509 208 L842 0 L1117 0 L653 285 Z M393 635 L514 635 L694 806 L489 806 L393 635 Z " />
<glyph glyph-name="uni045D" unicode="&#x45d;" horiz-adv-x="1129" d="M858 375 L858 0 L1024 0 L1024 560 L867 560 L271 185 L271 560 L105 560 L105 0 L262 0 L858 375 Z M573 806 L368 806 L548 635 L669 635 L573 806 Z " />
<glyph glyph-name="uni045E" unicode="&#x45e;" horiz-adv-x="1072" d="M453 0 L1082 560 L842 560 L551 287 L235 560 L-5 560 L439 186 L216 0 L453 0 Z M552 747 C490 747 462 772 459 808 L357 808 C361 725 397 633 552 633 C706 633 743 725 747 808 L645 808 C641 772 613 747 552 747 L552 747 Z " />
<glyph glyph-name="uni045F" unicode="&#x45f;" horiz-adv-x="1125" d="M854 143 L271 143 L271 560 L105 560 L105 0 L480 0 L480 -120 L646 -120 L646 0 L1020 0 L1020 560 L854 560 L854 143 Z " />
<glyph glyph-name="uni0490" unicode="&#x490;" horiz-adv-x="1129" d="M919 700 L115 700 L115 0 L302 0 L302 530 L1106 530 L1106 850 L919 850 L919 700 Z " />
<glyph glyph-name="uni0491" unicode="&#x491;" horiz-adv-x="985" d="M783 560 L105 560 L105 0 L271 0 L271 417 L949 417 L949 680 L783 680 L783 560 Z " />
<glyph glyph-name="uni1E00" unicode="&#x1e00;" horiz-adv-x="1293" d="M611 -160 C611 -141 627 -125 647 -125 C665 -125 681 -141 681 -160 C681 -179 665 -194 647 -194 C627 -194 611 -179 611 -160 L611 -160 Z M510 -160 C510 -227 564 -279 647 -279 C728 -279 782 -227 782 -160 C782 -93 728 -41 647 -41 C564 -41 510 -93 510 -160 L510 -160 Z M1060 0 L1290 0 L746 700 L548 700 L3 0 L233 0 L317 110 L975 110 L1060 0 Z M646 539 L858 263 L434 263 L646 539 Z " />
<glyph glyph-name="uni1E01" unicode="&#x1e01;" horiz-adv-x="1105" d="M517 -160 C517 -141 533 -125 553 -125 C571 -125 587 -141 587 -160 C587 -179 571 -194 553 -194 C533 -194 517 -179 517 -160 L517 -160 Z M416 -160 C416 -227 470 -279 553 -279 C634 -279 688 -227 688 -160 C688 -93 634 -41 553 -41 C470 -41 416 -93 416 -160 L416 -160 Z M897 0 L1101 0 L640 560 L465 560 L4 0 L208 0 L283 93 L821 93 L897 0 Z M552 424 L719 218 L385 218 L552 424 Z " />
<glyph glyph-name="uni1E02" unicode="&#x1e02;" horiz-adv-x="1259" d="M115 0 L949 0 C1120 0 1186 84 1186 187 C1186 270 1145 339 1043 364 C1108 397 1136 454 1136 519 C1136 621 1072 700 907 700 L115 700 L115 0 Z M898 274 C974 274 986 249 986 222 C986 196 974 170 898 170 L302 170 L302 274 L898 274 Z M944 478 C944 452 932 426 855 426 L302 426 L302 530 L856 530 C932 530 944 505 944 478 L944 478 Z M521 777 L687 777 L687 941 L521 941 L521 777 Z " />
<glyph glyph-name="uni1E03" unicode="&#x1e03;" horiz-adv-x="1082" d="M105 0 L821 0 C967 0 1017 67 1017 150 C1017 216 981 271 896 292 C950 319 974 363 974 415 C974 497 926 560 786 560 L105 560 L105 0 Z M773 218 C833 218 838 200 838 180 C838 162 833 143 773 143 L271 143 L271 218 L773 218 Z M736 342 L271 342 L271 417 L737 417 C797 417 802 399 802 380 C802 360 796 342 736 342 L736 342 Z M433 637 L599 637 L599 801 L433 801 L433 637 Z " />
<glyph glyph-name="uni1E04" unicode="&#x1e04;" horiz-adv-x="1259" d="M562 -244 L728 -244 L728 -80 L562 -80 L562 -244 Z M115 0 L949 0 C1120 0 1186 84 1186 187 C1186 270 1145 339 1043 364 C1108 397 1136 454 1136 519 C1136 621 1072 700 907 700 L115 700 L115 0 Z M898 274 C974 274 986 249 986 222 C986 196 974 170 898 170 L302 170 L302 274 L898 274 Z M944 478 C944 452 932 426 855 426 L302 426 L302 530 L856 530 C932 530 944 505 944 478 L944 478 Z " />
<glyph glyph-name="uni1E05" unicode="&#x1e05;" horiz-adv-x="1082" d="M473 -244 L639 -244 L639 -80 L473 -80 L473 -244 Z M105 0 L821 0 C967 0 1017 67 1017 150 C1017 216 981 271 896 292 C950 319 974 363 974 415 C974 497 926 560 786 560 L105 560 L105 0 Z M773 218 C833 218 838 200 838 180 C838 162 833 143 773 143 L271 143 L271 218 L773 218 Z M736 342 L271 342 L271 417 L737 417 C797 417 802 399 802 380 C802 360 796 342 736 342 L736 342 Z " />
<glyph glyph-name="uni1E06" unicode="&#x1e06;" horiz-adv-x="1259" d="M427 -220 L862 -220 L862 -102 L427 -102 L427 -220 Z M115 0 L949 0 C1120 0 1186 84 1186 187 C1186 270 1145 339 1043 364 C1108 397 1136 454 1136 519 C1136 621 1072 700 907 700 L115 700 L115 0 Z M898 274 C974 274 986 249 986 222 C986 196 974 170 898 170 L302 170 L302 274 L898 274 Z M944 478 C944 452 932 426 855 426 L302 426 L302 530 L856 530 C932 530 944 505 944 478 L944 478 Z " />
<glyph glyph-name="uni1E07" unicode="&#x1e07;" horiz-adv-x="1082" d="M338 -220 L773 -220 L773 -102 L338 -102 L338 -220 Z M105 0 L821 0 C967 0 1017 67 1017 150 C1017 216 981 271 896 292 C950 319 974 363 974 415 C974 497 926 560 786 560 L105 560 L105 0 Z M773 218 C833 218 838 200 838 180 C838 162 833 143 773 143 L271 143 L271 218 L773 218 Z M736 342 L271 342 L271 417 L737 417 C797 417 802 399 802 380 C802 360 796 342 736 342 L736 342 Z " />
<glyph glyph-name="uni1E08" unicode="&#x1e08;" horiz-adv-x="1184" d="M566 -143 L610 -143 C658 -144 681 -149 681 -179 C681 -231 541 -221 498 -190 L498 -271 C574 -310 807 -333 807 -184 C807 -95 737 -71 649 -71 L667 0 L1111 0 L1111 170 L510 170 C315 170 268 250 268 350 C268 450 315 530 510 530 L1111 530 L1111 700 L509 700 C192 700 68 543 68 350 C68 157 192 0 509 0 L603 0 L566 -143 Z M536 775 L657 775 L837 946 L632 946 L536 775 Z " />
<glyph glyph-name="uni1E09" unicode="&#x1e09;" horiz-adv-x="1014" d="M471 -143 L515 -143 C563 -144 586 -149 586 -179 C586 -231 446 -221 403 -190 L403 -271 C479 -310 712 -333 712 -184 C712 -95 642 -71 554 -71 L572 0 L949 0 L949 143 L428 143 C267 143 237 204 237 280 C237 356 267 417 428 417 L949 417 L949 560 L428 560 C158 560 61 434 61 280 C61 126 158 0 428 0 L508 0 L471 -143 Z M441 635 L562 635 L742 806 L537 806 L441 635 Z " />
<glyph glyph-name="uni1E0A" unicode="&#x1e0a;" horiz-adv-x="1255" d="M115 0 L746 0 C1063 0 1187 157 1187 350 C1187 543 1063 700 746 700 L115 700 L115 0 Z M745 530 C940 530 987 450 987 350 C987 250 940 170 745 170 L302 170 L302 530 L745 530 Z M529 777 L695 777 L695 941 L529 941 L529 777 Z " />
<glyph glyph-name="uni1E0B" unicode="&#x1e0b;" horiz-adv-x="1079" d="M447 637 L613 637 L613 801 L447 801 L447 637 Z M105 0 L651 0 C920 0 1018 126 1018 280 C1018 434 920 560 651 560 L105 560 L105 0 Z M650 417 C812 417 842 356 842 280 C842 204 812 143 650 143 L271 143 L271 417 L650 417 Z " />
<glyph glyph-name="uni1E0C" unicode="&#x1e0c;" horiz-adv-x="1255" d="M115 0 L746 0 C1063 0 1187 157 1187 350 C1187 543 1063 700 746 700 L115 700 L115 0 Z M745 530 C940 530 987 450 987 350 C987 250 940 170 745 170 L302 170 L302 530 L745 530 Z M529 -244 L695 -244 L695 -80 L529 -80 L529 -244 Z " />
<glyph glyph-name="uni1E0D" unicode="&#x1e0d;" horiz-adv-x="1079" d="M105 0 L651 0 C920 0 1018 126 1018 280 C1018 434 920 560 651 560 L105 560 L105 0 Z M650 417 C812 417 842 356 842 280 C842 204 812 143 650 143 L271 143 L271 417 L650 417 Z M447 -244 L613 -244 L613 -80 L447 -80 L447 -244 Z " />
<glyph glyph-name="uni1E0E" unicode="&#x1e0e;" horiz-adv-x="1255" d="M115 0 L746 0 C1063 0 1187 157 1187 350 C1187 543 1063 700 746 700 L115 700 L115 0 Z M745 530 C940 530 987 450 987 350 C987 250 940 170 745 170 L302 170 L302 530 L745 530 Z M394 -220 L829 -220 L829 -102 L394 -102 L394 -220 Z " />
<glyph glyph-name="uni1E0F" unicode="&#x1e0f;" horiz-adv-x="1079" d="M105 0 L651 0 C920 0 1018 126 1018 280 C1018 434 920 560 651 560 L105 560 L105 0 Z M650 417 C812 417 842 356 842 280 C842 204 812 143 650 143 L271 143 L271 417 L650 417 Z M312 -220 L747 -220 L747 -102 L312 -102 L312 -220 Z " />
<glyph glyph-name="uni1E10" unicode="&#x1e10;" horiz-adv-x="1255" d="M115 0 L746 0 C1063 0 1187 157 1187 350 C1187 543 1063 700 746 700 L115 700 L115 0 Z M745 530 C940 530 987 450 987 350 C987 250 940 170 745 170 L302 170 L302 530 L745 530 Z M540 -244 L598 -244 L518 -384 L600 -384 L706 -229 L706 -80 L540 -80 L540 -244 Z " />
<glyph glyph-name="uni1E11" unicode="&#x1e11;" horiz-adv-x="1079" d="M105 0 L651 0 C920 0 1018 126 1018 280 C1018 434 920 560 651 560 L105 560 L105 0 Z M650 417 C812 417 842 356 842 280 C842 204 812 143 650 143 L271 143 L271 417 L650 417 Z M458 -244 L516 -244 L436 -384 L518 -384 L624 -229 L624 -80 L458 -80 L458 -244 Z " />
<glyph glyph-name="uni1E12" unicode="&#x1e12;" horiz-adv-x="1255" d="M115 0 L746 0 C1063 0 1187 157 1187 350 C1187 543 1063 700 746 700 L115 700 L115 0 Z M745 530 C940 530 987 450 987 350 C987 250 940 170 745 170 L302 170 L302 530 L745 530 Z M718 -75 L505 -75 L396 -246 L517 -246 L612 -163 L707 -246 L828 -246 L718 -75 Z " />
<glyph glyph-name="uni1E13" unicode="&#x1e13;" horiz-adv-x="1079" d="M105 0 L651 0 C920 0 1018 126 1018 280 C1018 434 920 560 651 560 L105 560 L105 0 Z M650 417 C812 417 842 356 842 280 C842 204 812 143 650 143 L271 143 L271 417 L650 417 Z M636 -75 L423 -75 L314 -246 L435 -246 L530 -163 L625 -246 L746 -246 L636 -75 Z " />
<glyph glyph-name="uni1E14" unicode="&#x1e14;" horiz-adv-x="1199" d="M115 0 L1126 0 L1126 170 L302 170 L302 274 L1024 274 L1024 426 L302 426 L302 530 L1126 530 L1126 700 L115 700 L115 0 Z M392 801 L827 801 L827 919 L392 919 L392 801 Z M619 1148 L414 1148 L594 977 L715 977 L619 1148 Z " />
<glyph glyph-name="uni1E15" unicode="&#x1e15;" horiz-adv-x="1032" d="M105 0 L966 0 L966 143 L271 143 L271 218 L878 218 L878 342 L271 342 L271 417 L966 417 L966 560 L105 560 L105 0 Z M310 661 L745 661 L745 779 L310 779 L310 661 Z M537 1008 L332 1008 L512 837 L633 837 L537 1008 Z " />
<glyph glyph-name="uni1E16" unicode="&#x1e16;" horiz-adv-x="1199" d="M115 0 L1126 0 L1126 170 L302 170 L302 274 L1024 274 L1024 426 L302 426 L302 530 L1126 530 L1126 700 L115 700 L115 0 Z M392 801 L827 801 L827 919 L392 919 L392 801 Z M504 977 L625 977 L805 1148 L600 1148 L504 977 Z " />
<glyph glyph-name="uni1E17" unicode="&#x1e17;" horiz-adv-x="1032" d="M105 0 L966 0 L966 143 L271 143 L271 218 L878 218 L878 342 L271 342 L271 417 L966 417 L966 560 L105 560 L105 0 Z M310 661 L745 661 L745 779 L310 779 L310 661 Z M422 837 L543 837 L723 1008 L518 1008 L422 837 Z " />
<glyph glyph-name="uni1E18" unicode="&#x1e18;" horiz-adv-x="1199" d="M115 0 L1126 0 L1126 170 L302 170 L302 274 L1024 274 L1024 426 L302 426 L302 530 L1126 530 L1126 700 L115 700 L115 0 Z M715 -75 L502 -75 L393 -246 L514 -246 L609 -163 L704 -246 L825 -246 L715 -75 Z " />
<glyph glyph-name="uni1E19" unicode="&#x1e19;" horiz-adv-x="1032" d="M105 0 L966 0 L966 143 L271 143 L271 218 L878 218 L878 342 L271 342 L271 417 L966 417 L966 560 L105 560 L105 0 Z M634 -75 L421 -75 L312 -246 L433 -246 L528 -163 L623 -246 L744 -246 L634 -75 Z " />
<glyph glyph-name="uni1E1A" unicode="&#x1e1a;" horiz-adv-x="1199" d="M115 0 L1126 0 L1126 170 L302 170 L302 274 L1024 274 L1024 426 L302 426 L302 530 L1126 530 L1126 700 L115 700 L115 0 Z M709 -73 C710 -104 701 -117 679 -117 C647 -117 599 -79 538 -79 C466 -79 421 -124 418 -249 L509 -249 C508 -219 517 -205 539 -205 C570 -205 618 -244 680 -244 C752 -244 799 -200 800 -73 L709 -73 Z " />
<glyph glyph-name="uni1E1B" unicode="&#x1e1b;" horiz-adv-x="1032" d="M105 0 L966 0 L966 143 L271 143 L271 218 L878 218 L878 342 L271 342 L271 417 L966 417 L966 560 L105 560 L105 0 Z M628 -73 C629 -104 620 -117 598 -117 C566 -117 518 -79 457 -79 C385 -79 340 -124 337 -249 L428 -249 C427 -219 436 -205 458 -205 C489 -205 537 -244 599 -244 C671 -244 718 -200 719 -73 L628 -73 Z " />
<glyph glyph-name="uni1E1C" unicode="&#x1e1c;" horiz-adv-x="1199" d="M115 0 L570 0 L533 -143 L577 -143 C625 -144 648 -149 648 -179 C648 -231 508 -221 465 -190 L465 -271 C541 -310 774 -333 774 -184 C774 -95 704 -71 616 -71 L634 0 L1126 0 L1126 170 L302 170 L302 274 L1024 274 L1024 426 L302 426 L302 530 L1126 530 L1126 700 L115 700 L115 0 Z M609 887 C547 887 519 912 516 948 L414 948 C418 865 454 773 609 773 C763 773 800 865 804 948 L702 948 C698 912 670 887 609 887 L609 887 Z " />
<glyph glyph-name="uni1E1D" unicode="&#x1e1d;" horiz-adv-x="1032" d="M105 0 L488 0 L451 -143 L495 -143 C543 -144 566 -149 566 -179 C566 -231 426 -221 383 -190 L383 -271 C459 -310 692 -333 692 -184 C692 -95 622 -71 534 -71 L552 0 L966 0 L966 143 L271 143 L271 218 L878 218 L878 342 L271 342 L271 417 L966 417 L966 560 L105 560 L105 0 Z M528 747 C466 747 438 772 435 808 L333 808 C337 725 373 633 528 633 C682 633 719 725 723 808 L621 808 C617 772 589 747 528 747 L528 747 Z " />
<glyph glyph-name="uni1E1E" unicode="&#x1e1e;" horiz-adv-x="1159" d="M115 0 L302 0 L302 252 L1024 252 L1024 422 L302 422 L302 530 L1126 530 L1126 700 L115 700 L115 0 Z M516 777 L682 777 L682 941 L516 941 L516 777 Z " />
<glyph glyph-name="uni1E1F" unicode="&#x1e1f;" horiz-adv-x="1015" d="M105 0 L271 0 L271 197 L878 197 L878 340 L271 340 L271 417 L966 417 L966 560 L105 560 L105 0 Z M439 637 L605 637 L605 801 L439 801 L439 637 Z " />
<glyph glyph-name="uni1E20" unicode="&#x1e20;" horiz-adv-x="1256" d="M657 274 L983 274 L983 170 L510 170 C315 170 268 250 268 350 C268 450 315 530 510 530 L1111 530 L1111 700 L509 700 C192 700 68 543 68 350 C68 157 192 0 509 0 L1166 0 L1166 426 L657 426 L657 274 Z M434 801 L869 801 L869 919 L434 919 L434 801 Z " />
<glyph glyph-name="uni1E21" unicode="&#x1e21;" horiz-adv-x="1078" d="M561 218 L833 218 L833 143 L428 143 C267 143 237 204 237 280 C237 356 267 417 428 417 L949 417 L949 560 L428 560 C158 560 61 434 61 280 C61 126 158 0 428 0 L995 0 L995 342 L561 342 L561 218 Z M333 661 L768 661 L768 779 L333 779 L333 661 Z " />
<glyph glyph-name="uni1E22" unicode="&#x1e22;" horiz-adv-x="1305" d="M1003 0 L1190 0 L1190 700 L1003 700 L1003 435 L302 435 L302 700 L115 700 L115 0 L302 0 L302 265 L1003 265 L1003 0 Z M569 777 L735 777 L735 941 L569 941 L569 777 Z " />
<glyph glyph-name="uni1E23" unicode="&#x1e23;" horiz-adv-x="1125" d="M854 0 L1020 0 L1020 560 L854 560 L854 352 L271 352 L271 560 L105 560 L105 0 L271 0 L271 208 L854 208 L854 0 Z M479 637 L645 637 L645 801 L479 801 L479 637 Z " />
<glyph glyph-name="uni1E24" unicode="&#x1e24;" horiz-adv-x="1305" d="M569 -244 L735 -244 L735 -80 L569 -80 L569 -244 Z M1003 0 L1190 0 L1190 700 L1003 700 L1003 435 L302 435 L302 700 L115 700 L115 0 L302 0 L302 265 L1003 265 L1003 0 Z " />
<glyph glyph-name="uni1E25" unicode="&#x1e25;" horiz-adv-x="1125" d="M479 -244 L645 -244 L645 -80 L479 -80 L479 -244 Z M854 0 L1020 0 L1020 560 L854 560 L854 352 L271 352 L271 560 L105 560 L105 0 L271 0 L271 208 L854 208 L854 0 Z " />
<glyph glyph-name="uni1E26" unicode="&#x1e26;" horiz-adv-x="1305" d="M1003 0 L1190 0 L1190 700 L1003 700 L1003 435 L302 435 L302 700 L115 700 L115 0 L302 0 L302 265 L1003 265 L1003 0 Z M720 777 L886 777 L886 941 L720 941 L720 777 Z M419 777 L585 777 L585 941 L419 941 L419 777 Z " />
<glyph glyph-name="uni1E27" unicode="&#x1e27;" horiz-adv-x="1125" d="M854 0 L1020 0 L1020 560 L854 560 L854 352 L271 352 L271 560 L105 560 L105 0 L271 0 L271 208 L854 208 L854 0 Z M630 637 L796 637 L796 801 L630 801 L630 637 Z M329 637 L495 637 L495 801 L329 801 L329 637 Z " />
<glyph glyph-name="uni1E28" unicode="&#x1e28;" horiz-adv-x="1305" d="M133 -143 L177 -143 C225 -144 248 -149 248 -179 C248 -231 108 -221 65 -190 L65 -271 C141 -310 374 -333 374 -184 C374 -95 304 -71 216 -71 L234 0 L302 0 L302 265 L1003 265 L1003 0 L1190 0 L1190 700 L1003 700 L1003 435 L302 435 L302 700 L115 700 L115 0 L170 0 L133 -143 Z " />
<glyph glyph-name="uni1E29" unicode="&#x1e29;" horiz-adv-x="1125" d="M112 -143 L156 -143 C204 -144 227 -149 227 -179 C227 -231 87 -221 44 -190 L44 -271 C120 -310 353 -333 353 -184 C353 -95 283 -71 195 -71 L213 0 L271 0 L271 208 L854 208 L854 0 L1020 0 L1020 560 L854 560 L854 352 L271 352 L271 560 L105 560 L105 0 L149 0 L112 -143 Z " />
<glyph glyph-name="uni1E2A" unicode="&#x1e2a;" horiz-adv-x="1305" d="M652 -134 C590 -134 562 -109 559 -73 L457 -73 C461 -156 497 -248 652 -248 C806 -248 843 -156 847 -73 L745 -73 C741 -109 713 -134 652 -134 L652 -134 Z M1003 0 L1190 0 L1190 700 L1003 700 L1003 435 L302 435 L302 700 L115 700 L115 0 L302 0 L302 265 L1003 265 L1003 0 Z " />
<glyph glyph-name="uni1E2B" unicode="&#x1e2b;" horiz-adv-x="1125" d="M562 -134 C500 -134 472 -109 469 -73 L367 -73 C371 -156 407 -248 562 -248 C716 -248 753 -156 757 -73 L655 -73 C651 -109 623 -134 562 -134 L562 -134 Z M854 0 L1020 0 L1020 560 L854 560 L854 352 L271 352 L271 560 L105 560 L105 0 L271 0 L271 208 L854 208 L854 0 Z " />
<glyph glyph-name="uni1E2C" unicode="&#x1e2c;" horiz-adv-x="417" d="M308 -73 C309 -104 300 -117 278 -117 C246 -117 198 -79 137 -79 C65 -79 20 -124 17 -249 L108 -249 C107 -219 116 -205 138 -205 C169 -205 217 -244 279 -244 C351 -244 398 -200 399 -73 L308 -73 Z M115 0 L302 0 L302 700 L115 700 L115 0 Z " />
<glyph glyph-name="uni1E2D" unicode="&#x1e2d;" horiz-adv-x="376" d="M288 -73 C289 -104 280 -117 258 -117 C226 -117 178 -79 117 -79 C45 -79 0 -124 -3 -249 L88 -249 C87 -219 96 -205 118 -205 C149 -205 197 -244 259 -244 C331 -244 378 -200 379 -73 L288 -73 Z M105 0 L271 0 L271 560 L105 560 L105 0 Z " />
<glyph glyph-name="uni1E2E" unicode="&#x1e2e;" horiz-adv-x="417" d="M115 0 L302 0 L302 700 L115 700 L115 0 Z M276 777 L442 777 L442 941 L276 941 L276 777 Z M-25 777 L141 777 L141 941 L-25 941 L-25 777 Z M103 988 L224 988 L404 1159 L199 1159 L103 988 Z " />
<glyph glyph-name="uni1E2F" unicode="&#x1e2f;" horiz-adv-x="376" d="M105 0 L271 0 L271 560 L105 560 L105 0 Z M256 637 L422 637 L422 801 L256 801 L256 637 Z M-45 637 L121 637 L121 801 L-45 801 L-45 637 Z M83 848 L204 848 L384 1019 L179 1019 L83 848 Z " />
<glyph glyph-name="uni1E30" unicode="&#x1e30;" horiz-adv-x="1302" d="M1213 700 L890 700 L302 326 L302 700 L115 700 L115 0 L302 0 L302 142 L555 297 L991 0 L1304 0 L716 395 L1213 700 Z M505 775 L626 775 L806 946 L601 946 L505 775 Z " />
<glyph glyph-name="uni1E31" unicode="&#x1e31;" horiz-adv-x="1121" d="M1047 560 L750 560 L271 273 L271 560 L105 560 L105 0 L271 0 L271 112 L482 234 L840 0 L1118 0 L624 316 L1047 560 Z M419 635 L540 635 L720 806 L515 806 L419 635 Z " />
<glyph glyph-name="uni1E32" unicode="&#x1e32;" horiz-adv-x="1302" d="M1213 700 L890 700 L302 326 L302 700 L115 700 L115 0 L302 0 L302 142 L555 297 L991 0 L1304 0 L716 395 L1213 700 Z M558 -244 L724 -244 L724 -80 L558 -80 L558 -244 Z " />
<glyph glyph-name="uni1E33" unicode="&#x1e33;" horiz-adv-x="1121" d="M1047 560 L750 560 L271 273 L271 560 L105 560 L105 0 L271 0 L271 112 L482 234 L840 0 L1118 0 L624 316 L1047 560 Z M471 -244 L637 -244 L637 -80 L471 -80 L471 -244 Z " />
<glyph glyph-name="uni1E34" unicode="&#x1e34;" horiz-adv-x="1302" d="M1213 700 L890 700 L302 326 L302 700 L115 700 L115 0 L302 0 L302 142 L555 297 L991 0 L1304 0 L716 395 L1213 700 Z M423 -220 L858 -220 L858 -102 L423 -102 L423 -220 Z " />
<glyph glyph-name="uni1E35" unicode="&#x1e35;" horiz-adv-x="1121" d="M1047 560 L750 560 L271 273 L271 560 L105 560 L105 0 L271 0 L271 112 L482 234 L840 0 L1118 0 L624 316 L1047 560 Z M336 -220 L771 -220 L771 -102 L336 -102 L336 -220 Z " />
<glyph glyph-name="uni1E36" unicode="&#x1e36;" horiz-adv-x="1129" d="M302 700 L115 700 L115 0 L1106 0 L1106 170 L302 170 L302 700 Z M533 -244 L699 -244 L699 -80 L533 -80 L533 -244 Z " />
<glyph glyph-name="uni1E37" unicode="&#x1e37;" horiz-adv-x="985" d="M271 560 L105 560 L105 0 L949 0 L949 143 L271 143 L271 560 Z M457 -244 L623 -244 L623 -80 L457 -80 L457 -244 Z " />
<glyph glyph-name="uni1E38" unicode="&#x1e38;" horiz-adv-x="1129" d="M302 700 L115 700 L115 0 L1106 0 L1106 170 L302 170 L302 700 Z M533 -244 L699 -244 L699 -80 L533 -80 L533 -244 Z M21 801 L456 801 L456 919 L21 919 L21 801 Z " />
<glyph glyph-name="uni1E39" unicode="&#x1e39;" horiz-adv-x="985" d="M271 560 L105 560 L105 0 L949 0 L949 143 L271 143 L271 560 Z M457 -244 L623 -244 L623 -80 L457 -80 L457 -244 Z M1 661 L436 661 L436 779 L1 779 L1 661 Z " />
<glyph glyph-name="uni1E3A" unicode="&#x1e3a;" horiz-adv-x="1129" d="M302 700 L115 700 L115 0 L1106 0 L1106 170 L302 170 L302 700 Z M398 -220 L833 -220 L833 -102 L398 -102 L398 -220 Z " />
<glyph glyph-name="uni1E3B" unicode="&#x1e3b;" horiz-adv-x="985" d="M271 560 L105 560 L105 0 L949 0 L949 143 L271 143 L271 560 Z M322 -220 L757 -220 L757 -102 L322 -102 L322 -220 Z " />
<glyph glyph-name="uni1E3C" unicode="&#x1e3c;" horiz-adv-x="1129" d="M302 700 L115 700 L115 0 L1106 0 L1106 170 L302 170 L302 700 Z M722 -75 L509 -75 L400 -246 L521 -246 L616 -163 L711 -246 L832 -246 L722 -75 Z " />
</font>
</svg>
