<?xml version="1.0" encoding="UTF-8"?>
<svg xmlns="http://www.w3.org/2000/svg" xmlns:xlink="http://www.w3.org/1999/xlink" version="1.2" >
<font id="Stereo Gothic 150">
<font-face  font-family="Stereo Gothic" units-per-em="1000" ascent="700" descent="-300" font-style="normal" font-weight="150" font-stretch="normal" cap-height="700" x-height="560" underline-position="-75" underline-thickness="50" />
<missing-glyph  horiz-adv-x="1000" d="M150 0 L850 0 L850 700 L150 700 L150 0 Z M175 677 L810 677 L175 42 L175 677 Z M190 23 L825 658 L825 23 L190 23 Z " />
<glyph glyph-name="NULL" d="" />
<glyph glyph-name="CR" unicode="&#xd;" horiz-adv-x="250" d="" />
<glyph glyph-name="space" unicode="&#x20;" horiz-adv-x="500" d="" />
<glyph glyph-name="exclam" unicode="&#x21;" horiz-adv-x="298" d="M123 0 L174 0 L174 51 L123 51 L123 0 Z M134 121 L163 121 L167 700 L131 700 L134 121 Z " />
<glyph glyph-name="quotedbl" unicode="&#x22;" horiz-adv-x="440" d="M115 400 L139 400 L147 700 L107 700 L115 400 Z M301 400 L325 400 L333 700 L293 700 L301 400 Z " />
<glyph glyph-name="numbersign" unicode="&#x23;" horiz-adv-x="1298" d="M966 0 L997 0 L1019 214 L1169 214 L1169 243 L1022 243 L1045 457 L1199 457 L1199 486 L1048 486 L1070 700 L1039 700 L1017 486 L308 486 L331 700 L300 700 L278 486 L129 486 L129 457 L275 457 L252 243 L99 243 L99 214 L249 214 L227 0 L258 0 L280 214 L989 214 L966 0 Z M305 457 L1014 457 L992 243 L283 243 L305 457 Z " />
<glyph glyph-name="dollar" unicode="&#x24;" horiz-adv-x="1298" d="M633 -20 L665 -20 L665 70 L977 70 C1111 70 1164 136 1164 217 C1164 299 1111 364 977 364 L665 364 L665 601 L1132 601 L1132 630 L665 630 L665 720 L633 720 L633 630 L320 630 C186 630 134 563 134 483 C134 401 186 336 320 336 L633 336 L633 99 L166 99 L166 70 L633 70 L633 -20 Z M975 336 C1088 336 1131 284 1131 218 C1131 152 1085 99 975 99 L665 99 L665 336 L975 336 Z M167 482 C167 548 211 601 322 601 L633 601 L633 364 L322 364 C211 364 167 416 167 482 L167 482 Z " />
<glyph glyph-name="percent" unicode="&#x25;" horiz-adv-x="1298" d="M1072 700 L184 0 L226 0 L1114 700 L1072 700 Z M104 474 C104 405 148 350 260 350 L405 350 C517 350 561 405 561 474 L561 576 C561 645 517 700 405 700 L260 700 C148 700 104 645 104 576 L104 474 Z M407 673 C499 673 532 631 532 575 L532 475 C532 420 499 377 407 377 L260 377 C167 377 133 419 133 475 L133 575 C133 629 168 673 260 673 L407 673 Z M737 124 C737 55 781 0 893 0 L1038 0 C1150 0 1194 55 1194 124 L1194 226 C1194 295 1150 350 1038 350 L893 350 C781 350 737 295 737 226 L737 124 Z M1040 323 C1132 323 1165 281 1165 225 L1165 125 C1165 70 1132 27 1040 27 L893 27 C800 27 766 69 766 125 L766 225 C766 279 801 323 893 323 L1040 323 Z " />
<glyph glyph-name="ampersand" unicode="&#x26;" horiz-adv-x="1316" d="M328 0 L965 0 C1126 0 1189 78 1189 177 C1189 247 1156 308 1076 336 L1239 336 L1239 364 L372 364 C234 364 183 433 183 517 C183 601 236 670 382 670 L1020 670 L1020 700 L377 700 C212 700 149 621 149 522 C149 446 185 380 272 357 C148 341 99 267 99 180 C99 79 162 0 328 0 L328 0 Z M956 30 L333 30 C187 30 134 97 134 183 C134 267 187 336 332 336 L956 336 C1102 336 1155 267 1155 183 C1155 97 1102 30 956 30 L956 30 Z " />
<glyph glyph-name="quotesingle" unicode="&#x27;" horiz-adv-x="254" d="M115 400 L139 400 L147 700 L107 700 L115 400 Z " />
<glyph glyph-name="parenleft" unicode="&#x28;" horiz-adv-x="476" d="M375 -116 C124 154 124 546 375 815 L347 815 C88 547 88 153 347 -116 L375 -116 Z " />
<glyph glyph-name="parenright" unicode="&#x29;" horiz-adv-x="476" d="M129 -116 C388 153 388 547 129 815 L101 815 C352 546 352 154 101 -116 L129 -116 Z " />
<glyph glyph-name="asterisk" unicode="&#x2a;" horiz-adv-x="588" d="M527 516 L518 551 L303 472 L312 700 L276 700 L284 472 L72 552 L61 517 L278 454 L138 277 L167 256 L294 444 L420 255 L449 276 L309 454 L527 516 Z " />
<glyph glyph-name="plus" unicode="&#x2b;" horiz-adv-x="1298" d="M294 335 L633 335 L633 30 L665 30 L665 335 L1004 335 L1004 365 L665 365 L665 670 L633 670 L633 365 L294 365 L294 335 Z " />
<glyph glyph-name="comma" unicode="&#x2c;" horiz-adv-x="258" d="M104 0 L130 0 L106 -85 L125 -85 L154 1 L154 51 L104 51 L104 0 Z " />
<glyph glyph-name="hyphen" unicode="&#x2d;" horiz-adv-x="600" d="M99 265 L501 265 L501 295 L99 295 L99 265 Z " />
<glyph glyph-name="period" unicode="&#x2e;" horiz-adv-x="258" d="M104 0 L154 0 L154 51 L104 51 L104 0 Z " />
<glyph glyph-name="slash" unicode="&#x2f;" horiz-adv-x="511" d="M-11 -75 L20 -75 L522 775 L491 775 L-11 -75 Z " />
<glyph glyph-name="zero" unicode="0" horiz-adv-x="1298" d="M109 248 C109 111 197 0 421 0 L877 0 C1101 0 1189 111 1189 248 L1189 452 C1189 589 1101 700 877 700 L421 700 C197 700 109 589 109 452 L109 248 Z M877 670 C1079 670 1156 572 1156 451 L1156 249 C1156 129 1080 30 877 30 L421 30 C218 30 142 129 142 249 L142 451 C142 571 218 670 421 670 L877 670 Z " />
<glyph glyph-name="one" unicode="1" horiz-adv-x="1298" d="M388 670 L693 670 L693 30 L238 30 L238 0 L1060 0 L1060 30 L725 30 L725 700 L388 700 L388 670 Z " />
<glyph glyph-name="two" unicode="2" horiz-adv-x="1298" d="M1169 30 L142 30 L142 182 C142 268 195 336 341 336 L968 336 C1135 336 1199 415 1199 518 C1199 618 1135 700 968 700 L149 700 L149 670 L966 670 C1112 670 1165 601 1165 517 C1165 431 1112 364 966 364 L339 364 C173 364 109 285 109 183 L109 0 L1169 0 L1169 30 Z " />
<glyph glyph-name="three" unicode="3" horiz-adv-x="1298" d="M89 0 L965 0 C1131 0 1194 79 1194 180 C1194 267 1145 341 1021 357 C1108 380 1144 446 1144 522 C1144 621 1081 700 916 700 L109 700 L109 670 L911 670 C1057 670 1110 601 1110 517 C1110 433 1059 364 921 364 L196 364 L196 336 L960 336 C1106 336 1159 267 1159 183 C1159 97 1106 30 960 30 L89 30 L89 0 Z " />
<glyph glyph-name="four" unicode="4" horiz-adv-x="1298" d="M1085 700 L80 159 L80 132 L1084 132 L1084 0 L1117 0 L1117 132 L1228 132 L1228 161 L1117 161 L1117 700 L1085 700 Z M144 161 L1084 667 L1084 161 L144 161 Z " />
<glyph glyph-name="five" unicode="5" horiz-adv-x="1298" d="M109 336 L966 336 C1112 336 1165 269 1165 183 C1165 99 1112 30 966 30 L127 30 L127 0 L968 0 C1135 0 1199 82 1199 182 C1199 284 1135 364 968 364 L142 364 L166 670 L1159 670 L1159 700 L137 700 L109 336 Z " />
<glyph glyph-name="six" unicode="6" horiz-adv-x="1298" d="M141 350 C141 527 255 670 551 670 L1149 670 L1149 700 L549 700 C232 700 108 543 108 350 L108 248 C108 111 196 0 420 0 L983 0 C1150 0 1214 82 1214 182 C1214 284 1150 364 983 364 L346 364 C231 364 167 324 141 266 L141 350 Z M341 336 L981 336 C1127 336 1180 269 1180 183 C1180 98 1125 30 981 30 L421 30 C238 30 157 109 143 213 C155 284 213 336 341 336 L341 336 Z " />
<glyph glyph-name="seven" unicode="7" horiz-adv-x="1298" d="M468 0 L1199 672 L1199 700 L89 700 L89 670 L1152 670 L421 0 L468 0 Z " />
<glyph glyph-name="eight" unicode="8" horiz-adv-x="1298" d="M982 0 C1148 0 1211 79 1211 180 C1211 267 1162 341 1038 357 C1125 380 1161 446 1161 522 C1161 621 1098 700 933 700 L365 700 C200 700 137 621 137 522 C137 446 173 380 260 357 C136 341 87 267 87 180 C87 79 150 0 316 0 L982 0 Z M1176 183 C1176 97 1123 30 977 30 L321 30 C175 30 122 97 122 183 C122 267 175 336 321 336 L977 336 C1123 336 1176 267 1176 183 L1176 183 Z M938 364 L360 364 C222 364 171 432 171 517 C171 601 224 670 370 670 L928 670 C1074 670 1127 601 1127 517 C1127 433 1076 364 938 364 L938 364 Z " />
<glyph glyph-name="nine" unicode="9" horiz-adv-x="1298" d="M747 30 L149 30 L149 0 L749 0 C1066 0 1190 157 1190 350 L1190 452 C1190 589 1102 700 878 700 L315 700 C148 700 84 618 84 518 C84 416 148 336 315 336 L952 336 C1066 336 1130 375 1157 434 L1157 350 C1157 173 1043 30 747 30 L747 30 Z M957 364 L317 364 C171 364 118 431 118 517 C118 602 173 670 317 670 L877 670 C1058 670 1140 591 1154 486 C1142 415 1084 364 957 364 L957 364 Z " />
<glyph glyph-name="colon" unicode="&#x3a;" horiz-adv-x="258" d="M104 509 L154 509 L154 560 L104 560 L104 509 Z M104 0 L154 0 L154 51 L104 51 L104 0 Z " />
<glyph glyph-name="semicolon" unicode="&#x3b;" horiz-adv-x="258" d="M104 0 L130 0 L106 -85 L125 -85 L154 1 L154 51 L104 51 L104 0 Z M104 509 L154 509 L154 560 L104 560 L104 509 Z " />
<glyph glyph-name="less" unicode="&#x3c;" horiz-adv-x="1298" d="M994 70 L340 350 L994 630 L994 661 L304 365 L304 335 L994 39 L994 70 Z " />
<glyph glyph-name="equal" unicode="&#x3d;" horiz-adv-x="1298" d="M294 184 L1004 184 L1004 214 L294 214 L294 184 Z M294 486 L1004 486 L1004 516 L294 516 L294 486 Z " />
<glyph glyph-name="greater" unicode="&#x3e;" horiz-adv-x="1298" d="M304 39 L994 335 L994 365 L304 661 L304 630 L958 350 L304 70 L304 39 Z " />
<glyph glyph-name="question" unicode="&#x3f;" horiz-adv-x="1070" d="M357 121 L389 121 L389 336 L800 336 C967 336 1031 416 1031 518 C1031 618 967 700 800 700 L37 700 L37 670 L798 670 C944 670 996 601 996 517 C996 431 944 364 798 364 L357 364 L357 121 Z M348 0 L399 0 L399 51 L348 51 L348 0 Z " />
<glyph glyph-name="at" unicode="&#x40;" horiz-adv-x="1398" d="M724 420 L650 420 C454 420 378 323 378 205 C378 87 454 -10 650 -10 L724 -10 C861 -10 937 39 970 110 L972 0 L1224 0 C1285 67 1312 154 1312 248 C1312 462 1175 635 824 635 L628 635 C239 635 86 443 86 205 C86 -32 239 -224 628 -224 L767 -224 L767 -197 L629 -197 C259 -197 118 -17 118 205 C118 428 260 608 629 608 L823 608 C1154 608 1280 447 1280 248 C1280 164 1259 88 1209 27 L998 27 L998 410 L972 410 L970 300 C937 371 861 420 724 420 L724 420 Z M651 17 C474 17 410 102 410 205 C410 308 474 393 651 393 L724 393 C907 393 968 304 968 198 C968 97 896 17 724 17 L651 17 Z " />
<glyph glyph-name="A" unicode="A" horiz-adv-x="1258" d="M1200 0 L1241 0 L648 700 L611 700 L17 0 L58 0 L188 154 L1069 154 L1200 0 Z M629 674 L1045 183 L213 183 L629 674 Z " />
<glyph glyph-name="B" unicode="B" horiz-adv-x="1259" d="M129 0 L943 0 C1109 0 1172 79 1172 180 C1172 267 1123 341 999 357 C1086 380 1122 446 1122 522 C1122 621 1059 700 894 700 L129 700 L129 0 Z M938 336 C1084 336 1137 267 1137 183 C1137 97 1084 30 938 30 L162 30 L162 336 L938 336 Z M1088 517 C1088 433 1037 364 899 364 L162 364 L162 670 L889 670 C1031 670 1088 602 1088 517 L1088 517 Z " />
<glyph glyph-name="C" unicode="C" horiz-adv-x="1184" d="M117 350 C117 527 228 670 524 670 L1097 670 L1097 700 L523 700 C206 700 82 543 82 350 C82 157 206 0 523 0 L1097 0 L1097 30 L524 30 C228 30 117 173 117 350 L117 350 Z " />
<glyph glyph-name="D" unicode="D" horiz-adv-x="1255" d="M129 0 L732 0 C1049 0 1173 157 1173 350 C1173 543 1049 700 732 700 L129 700 L129 0 Z M731 670 C1027 670 1138 527 1138 350 C1138 173 1027 30 731 30 L162 30 L162 670 L731 670 Z " />
<glyph glyph-name="E" unicode="E" horiz-adv-x="1199" d="M129 0 L1112 0 L1112 30 L162 30 L162 336 L1010 336 L1010 364 L162 364 L162 670 L1112 670 L1112 700 L129 700 L129 0 Z " />
<glyph glyph-name="F" unicode="F" horiz-adv-x="1159" d="M129 0 L162 0 L162 334 L1010 334 L1010 364 L162 364 L162 670 L1112 670 L1112 700 L129 700 L129 0 Z " />
<glyph glyph-name="G" unicode="G" horiz-adv-x="1256" d="M671 336 L1119 336 L1119 30 L524 30 C228 30 117 173 117 350 C117 527 228 670 524 670 L1097 670 L1097 700 L523 700 C206 700 82 543 82 350 C82 157 206 0 523 0 L1152 0 L1152 364 L671 364 L671 336 Z " />
<glyph glyph-name="H" unicode="H" horiz-adv-x="1305" d="M1143 0 L1176 0 L1176 700 L1143 700 L1143 365 L162 365 L162 700 L129 700 L129 0 L162 0 L162 335 L1143 335 L1143 0 Z " />
<glyph glyph-name="I" unicode="I" horiz-adv-x="291" d="M129 0 L162 0 L162 700 L129 700 L129 0 Z " />
<glyph glyph-name="J" unicode="J" horiz-adv-x="1211" d="M392 -5 L681 -5 C998 -5 1102 132 1102 325 L1102 700 L1069 700 L1069 325 C1069 149 975 25 680 25 L393 25 C161 25 82 137 82 275 L82 312 L49 312 L49 275 C49 121 138 -5 392 -5 L392 -5 Z " />
<glyph glyph-name="K" unicode="K" horiz-adv-x="1281" d="M1178 700 L1117 700 L162 181 L162 700 L129 700 L129 0 L162 0 L162 147 L541 353 L1206 0 L1269 0 L573 371 L1178 700 Z " />
<glyph glyph-name="L" unicode="L" horiz-adv-x="1129" d="M162 700 L129 700 L129 0 L1092 0 L1092 30 L162 30 L162 700 Z " />
<glyph glyph-name="M" unicode="M" horiz-adv-x="1443" d="M1283 700 L721 81 L160 700 L129 700 L129 0 L162 0 L162 654 L721 37 L1281 654 L1281 0 L1314 0 L1314 700 L1283 700 Z " />
<glyph glyph-name="N" unicode="N" horiz-adv-x="1303" d="M1141 39 L160 700 L129 700 L129 0 L162 0 L162 661 L1143 0 L1174 0 L1174 700 L1141 700 L1141 39 Z " />
<glyph glyph-name="O" unicode="O" horiz-adv-x="1348" d="M812 -10 C1138 -10 1266 151 1266 350 C1266 549 1138 710 812 710 L536 710 C210 710 82 549 82 350 C82 151 210 -10 536 -10 L812 -10 Z M537 20 C232 20 117 167 117 350 C117 533 232 680 537 680 L811 680 C1116 680 1231 533 1231 350 C1231 167 1116 20 811 20 L537 20 Z " />
<glyph glyph-name="P" unicode="P" horiz-adv-x="1196" d="M129 0 L162 0 L162 295 L901 295 C1086 295 1157 383 1157 498 C1157 609 1086 700 901 700 L129 700 L129 0 Z M900 670 C1063 670 1123 592 1123 498 C1123 400 1063 325 900 325 L162 325 L162 670 L900 670 Z " />
<glyph glyph-name="Q" unicode="Q" horiz-adv-x="1348" d="M812 -10 C881 -10 941 -3 993 10 L1268 -110 L1343 -110 L1035 23 C1198 80 1266 205 1266 350 C1266 549 1138 710 812 710 L536 710 C210 710 82 549 82 350 C82 151 210 -10 536 -10 L812 -10 Z M537 20 C232 20 117 167 117 350 C117 533 232 680 537 680 L811 680 C1116 680 1231 533 1231 350 C1231 167 1116 20 811 20 L537 20 Z " />
<glyph glyph-name="R" unicode="R" horiz-adv-x="1275" d="M129 0 L162 0 L162 295 L648 295 L1200 0 L1263 0 L708 295 L882 295 C1067 295 1138 384 1138 498 C1138 609 1067 700 882 700 L129 700 L129 0 Z M880 670 C1043 670 1103 592 1103 497 C1103 400 1043 325 880 325 L162 325 L162 670 L880 670 Z " />
<glyph glyph-name="S" unicode="S" horiz-adv-x="1207" d="M119 0 L897 0 C1064 0 1128 82 1128 182 C1128 284 1064 364 897 364 L311 364 C166 364 113 431 113 517 C113 601 166 670 311 670 L1088 670 L1088 700 L310 700 C143 700 79 618 79 518 C79 416 143 336 310 336 L896 336 C1041 336 1094 269 1094 183 C1094 99 1041 30 896 30 L119 30 L119 0 Z " />
<glyph glyph-name="T" unicode="T" horiz-adv-x="1184" d="M37 670 L576 670 L576 0 L608 0 L608 670 L1147 670 L1147 700 L37 700 L37 670 Z " />
<glyph glyph-name="U" unicode="U" horiz-adv-x="1275" d="M142 323 L142 700 L109 700 L109 323 C109 130 213 -10 530 -10 L745 -10 C1062 -10 1166 130 1166 323 L1166 700 L1133 700 L1133 323 C1133 147 1039 20 744 20 L531 20 C236 20 142 147 142 323 L142 323 Z " />
<glyph glyph-name="V" unicode="V" horiz-adv-x="1258" d="M648 0 L1241 700 L1199 700 L629 26 L60 700 L17 700 L611 0 L648 0 Z " />
<glyph glyph-name="W" unicode="W" horiz-adv-x="1618" d="M809 660 L1175 0 L1201 0 L1589 700 L1550 700 L1188 41 L822 700 L796 700 L430 41 L68 700 L29 700 L417 0 L443 0 L809 660 Z " />
<glyph glyph-name="X" unicode="X" horiz-adv-x="1228" d="M31 700 L586 351 L26 0 L83 0 L614 334 L1145 0 L1202 0 L642 351 L1197 700 L1140 700 L614 368 L88 700 L31 700 Z " />
<glyph glyph-name="Y" unicode="Y" horiz-adv-x="1241" d="M604 0 L637 0 L637 211 L1234 700 L1184 700 L621 236 L57 700 L7 700 L604 211 L604 0 Z " />
<glyph glyph-name="Z" unicode="Z" horiz-adv-x="1190" d="M79 0 L1121 0 L1121 30 L137 30 L1101 675 L1101 700 L89 700 L89 670 L1042 670 L79 25 L79 0 Z " />
<glyph glyph-name="bracketleft" unicode="&#x5b;" horiz-adv-x="476" d="M138 -150 L418 -150 L418 -126 L170 -126 L170 826 L418 826 L418 850 L138 850 L138 -150 Z " />
<glyph glyph-name="backslash" unicode="&#x5c;" horiz-adv-x="511" d="M20 775 L-11 775 L491 -75 L522 -75 L20 775 Z " />
<glyph glyph-name="bracketright" unicode="&#x5d;" horiz-adv-x="476" d="M338 850 L58 850 L58 826 L306 826 L306 -126 L58 -126 L58 -150 L338 -150 L338 850 Z " />
<glyph glyph-name="asciicircum" unicode="&#x5e;" horiz-adv-x="1298" d="M1029 350 L1069 350 L668 800 L630 800 L229 350 L269 350 L649 774 L1029 350 Z " />
<glyph glyph-name="underscore" unicode="&#x5f;" horiz-adv-x="500" d="M0 -124 L500 -124 L500 -94 L0 -94 L0 -124 Z " />
<glyph glyph-name="grave" unicode="&#x60;" horiz-adv-x="500" d="M183 806 L138 806 L278 635 L299 635 L183 806 Z " />
<glyph glyph-name="a" unicode="a" horiz-adv-x="1078" d="M1020 0 L1060 0 L557 560 L521 560 L18 0 L58 0 L171 126 L906 126 L1020 0 Z M539 535 L881 154 L196 154 L539 535 Z " />
<glyph glyph-name="b" unicode="b" horiz-adv-x="1085" d="M119 0 L817 0 C959 0 1006 63 1006 144 C1006 214 970 273 865 286 C939 305 964 356 964 418 C964 497 916 560 776 560 L119 560 L119 0 Z M812 267 C935 267 972 213 972 147 C972 81 935 28 812 28 L151 28 L151 267 L812 267 Z M778 293 L151 293 L151 532 L770 532 C889 532 931 478 931 413 C931 347 894 293 778 293 L778 293 Z " />
<glyph glyph-name="c" unicode="c" horiz-adv-x="1017" d="M108 280 C108 419 193 532 442 532 L938 532 L938 560 L442 560 C172 560 75 434 75 280 C75 126 172 0 442 0 L938 0 L938 28 L442 28 C193 28 108 141 108 280 L108 280 Z " />
<glyph glyph-name="d" unicode="d" horiz-adv-x="1082" d="M119 0 L640 0 C910 0 1007 126 1007 280 C1007 434 910 560 640 560 L119 560 L119 0 Z M640 532 C889 532 974 419 974 280 C974 141 889 28 640 28 L151 28 L151 532 L640 532 Z " />
<glyph glyph-name="e" unicode="e" horiz-adv-x="1035" d="M119 0 L955 0 L955 28 L151 28 L151 267 L868 267 L868 293 L151 293 L151 532 L955 532 L955 560 L119 560 L119 0 Z " />
<glyph glyph-name="f" unicode="f" horiz-adv-x="1018" d="M119 0 L151 0 L151 265 L868 265 L868 293 L151 293 L151 532 L955 532 L955 560 L119 560 L119 0 Z " />
<glyph glyph-name="g" unicode="g" horiz-adv-x="1082" d="M575 267 L953 267 L953 28 L442 28 C193 28 108 141 108 280 C108 419 193 532 442 532 L938 532 L938 560 L442 560 C172 560 75 434 75 280 C75 126 172 0 442 0 L985 0 L985 293 L575 293 L575 267 Z " />
<glyph glyph-name="h" unicode="h" horiz-adv-x="1129" d="M978 0 L1010 0 L1010 560 L978 560 L978 294 L151 294 L151 560 L119 560 L119 0 L151 0 L151 266 L978 266 L978 0 Z " />
<glyph glyph-name="i" unicode="i" horiz-adv-x="270" d="M119 0 L151 0 L151 560 L119 560 L119 0 Z " />
<glyph glyph-name="j" unicode="j" horiz-adv-x="1044" d="M335 -4 L595 -4 C865 -4 945 106 945 260 L945 560 L913 560 L913 260 C913 122 842 24 595 24 L336 24 C141 24 81 112 81 220 L81 251 L49 251 L49 220 C49 97 119 -4 335 -4 L335 -4 Z " />
<glyph glyph-name="k" unicode="k" horiz-adv-x="1107" d="M1018 560 L955 560 L151 148 L151 560 L119 560 L119 0 L151 0 L151 116 L473 281 L1028 0 L1090 0 L503 296 L1018 560 Z " />
<glyph glyph-name="l" unicode="l" horiz-adv-x="988" d="M151 560 L119 560 L119 0 L938 0 L938 28 L151 28 L151 560 Z " />
<glyph glyph-name="m" unicode="m" horiz-adv-x="1247" d="M1097 560 L623 71 L149 560 L119 560 L119 0 L151 0 L151 517 L623 29 L1096 517 L1096 0 L1128 0 L1128 560 L1097 560 Z " />
<glyph glyph-name="n" unicode="n" horiz-adv-x="1126" d="M1007 0 L1007 560 L976 560 L976 37 L149 560 L119 560 L119 0 L151 0 L151 523 L977 0 L1007 0 Z " />
<glyph glyph-name="o" unicode="o" horiz-adv-x="1157" d="M704 -8 C981 -8 1082 121 1082 280 C1082 439 981 568 704 568 L453 568 C176 568 75 439 75 280 C75 121 176 -8 453 -8 L704 -8 Z M454 20 C197 20 108 136 108 280 C108 424 197 540 454 540 L703 540 C960 540 1049 424 1049 280 C1049 136 960 20 703 20 L454 20 Z " />
<glyph glyph-name="p" unicode="p" horiz-adv-x="1043" d="M119 0 L151 0 L151 234 L781 234 C939 234 994 305 994 397 C994 487 939 560 781 560 L119 560 L119 0 Z M780 532 C917 532 961 472 961 397 C961 320 917 262 780 262 L151 262 L151 532 L780 532 Z " />
<glyph glyph-name="q" unicode="q" horiz-adv-x="1157" d="M704 -8 C760 -8 808 -3 851 7 L1077 -88 L1146 -88 L889 17 C1027 63 1082 163 1082 280 C1082 439 981 568 704 568 L453 568 C176 568 75 439 75 280 C75 121 176 -8 453 -8 L704 -8 Z M454 20 C197 20 108 136 108 280 C108 424 197 540 454 540 L703 540 C960 540 1049 424 1049 280 C1049 136 960 20 703 20 L454 20 Z " />
<glyph glyph-name="r" unicode="r" horiz-adv-x="1105" d="M119 0 L151 0 L151 234 L560 234 L1023 0 L1084 0 L618 234 L765 234 C922 234 977 305 977 397 C977 487 922 560 765 560 L119 560 L119 0 Z M763 532 C900 532 944 471 944 397 C944 320 900 262 763 262 L151 262 L151 532 L763 532 Z " />
<glyph glyph-name="s" unicode="s" horiz-adv-x="1034" d="M105 0 L772 0 C914 0 963 66 963 147 C963 229 914 293 772 293 L263 293 C143 293 104 346 104 413 C104 478 143 532 263 532 L929 532 L929 560 L262 560 C120 560 71 494 71 413 C71 331 120 267 262 267 L771 267 C891 267 930 214 930 147 C930 82 891 28 771 28 L105 28 L105 0 Z " />
<glyph glyph-name="t" unicode="t" horiz-adv-x="1043" d="M50 532 L505 532 L505 0 L537 0 L537 532 L993 532 L993 560 L50 560 L50 532 Z " />
<glyph glyph-name="u" unicode="u" horiz-adv-x="1097" d="M130 258 L130 560 L99 560 L99 258 C99 104 179 -8 448 -8 L648 -8 C917 -8 998 104 998 258 L998 560 L966 560 L966 258 C966 120 895 20 647 20 L449 20 C201 20 130 120 130 258 L130 258 Z " />
<glyph glyph-name="v" unicode="v" horiz-adv-x="1078" d="M557 0 L1060 560 L1019 560 L539 25 L59 560 L18 560 L521 0 L557 0 Z " />
<glyph glyph-name="w" unicode="w" horiz-adv-x="1385" d="M693 523 L1001 0 L1026 0 L1356 560 L1318 560 L1013 38 L705 560 L680 560 L372 38 L66 560 L29 560 L360 0 L384 0 L693 523 Z " />
<glyph glyph-name="x" unicode="x" horiz-adv-x="1067" d="M38 560 L508 282 L33 0 L89 0 L534 265 L979 0 L1035 0 L559 282 L1031 560 L975 560 L534 299 L94 560 L38 560 Z " />
<glyph glyph-name="y" unicode="y" horiz-adv-x="1058" d="M514 0 L545 0 L545 169 L1051 560 L1004 560 L529 194 L54 560 L7 560 L514 169 L514 0 Z " />
<glyph glyph-name="z" unicode="z" horiz-adv-x="1021" d="M72 0 L959 0 L959 28 L128 28 L942 537 L942 560 L81 560 L81 532 L884 532 L72 23 L72 0 Z " />
<glyph glyph-name="braceleft" unicode="&#x7b;" horiz-adv-x="476" d="M177 454 C177 402 154 362 69 362 L57 362 L57 338 L69 338 C154 338 177 298 177 246 L177 -42 C177 -103 211 -150 311 -150 L419 -150 L419 -126 L317 -126 C231 -126 209 -86 209 -34 L209 248 C209 296 185 335 126 350 C185 364 209 404 209 452 L209 734 C209 786 231 826 317 826 L419 826 L419 850 L311 850 C211 850 177 803 177 742 L177 454 Z " />
<glyph glyph-name="bar" unicode="&#x7c;" horiz-adv-x="500" d="M235 850 L235 -150 L265 -150 L265 850 L235 850 Z " />
<glyph glyph-name="braceright" unicode="&#x7d;" horiz-adv-x="476" d="M299 742 C299 803 265 850 165 850 L57 850 L57 826 L159 826 C245 826 267 786 267 734 L267 452 C267 404 291 364 350 350 C291 335 267 296 267 248 L267 -34 C267 -86 245 -126 159 -126 L57 -126 L57 -150 L165 -150 C265 -150 299 -103 299 -42 L299 246 C299 298 322 338 407 338 L419 338 L419 362 L407 362 C322 362 299 402 299 454 L299 742 Z " />
<glyph glyph-name="asciitilde" unicode="&#x7e;" horiz-adv-x="1298" d="M1004 408 C729 185 584 563 294 350 L294 315 C569 538 714 160 1004 373 L1004 408 Z " />
<glyph glyph-name="uni00A0" unicode="&#xa0;" horiz-adv-x="500" d="" />
<glyph glyph-name="exclamdown" unicode="&#xa1;" horiz-adv-x="298" d="M175 700 L124 700 L124 649 L175 649 L175 700 Z M164 579 L135 579 L131 0 L167 0 L164 579 Z " />
<glyph glyph-name="cent" unicode="&#xa2;" horiz-adv-x="1298" d="M1152 155 L652 155 L734 545 L1155 545 L1155 574 L741 574 L772 720 L740 720 L709 574 L426 574 C223 574 143 473 143 350 C143 227 223 126 426 126 L614 126 L583 -20 L615 -20 L646 126 L1152 126 L1152 155 Z M176 350 C176 460 246 545 430 545 L702 545 L620 155 L430 155 C247 155 176 240 176 350 L176 350 Z " />
<glyph glyph-name="sterling" unicode="&#xa3;" horiz-adv-x="1298" d="M749 364 L306 364 L306 451 C306 571 356 670 558 670 L1049 670 L1049 700 L559 700 C335 700 273 589 273 452 L273 364 L129 364 L129 336 L273 336 L273 110 C273 64 255 29 199 29 L129 29 L129 0 L1169 0 L1169 30 L260 30 C290 41 306 73 306 108 L306 336 L749 336 L749 364 Z " />
<glyph glyph-name="currency" unicode="&#xa4;" horiz-adv-x="1298" d="M766 92 C874 92 952 116 1004 158 L1172 -10 L1194 11 L1027 178 C1071 223 1091 283 1091 350 C1091 416 1071 476 1027 522 L1194 689 L1172 710 L1004 542 C952 583 874 608 766 608 L530 608 C422 608 345 583 293 542 L126 710 L104 689 L270 523 C225 477 205 417 205 350 C205 283 225 222 270 177 L104 11 L126 -10 L293 157 C345 116 422 92 530 92 L766 92 Z M239 350 C239 477 318 578 531 578 L765 578 C978 578 1057 477 1057 350 C1057 223 978 122 765 122 L531 122 C318 122 239 223 239 350 L239 350 Z " />
<glyph glyph-name="yen" unicode="&#xa5;" horiz-adv-x="1298" d="M1152 700 L649 288 L146 700 L97 700 L497 376 L113 376 L113 349 L527 349 L633 262 L633 202 L113 202 L113 175 L633 175 L633 0 L665 0 L665 175 L1185 175 L1185 202 L665 202 L665 262 L771 349 L1185 349 L1185 376 L802 376 L1201 700 L1152 700 Z " />
<glyph glyph-name="brokenbar" unicode="&#xa6;" horiz-adv-x="500" d="M265 467 L265 850 L235 850 L235 467 L265 467 Z M235 233 L235 -150 L265 -150 L265 233 L235 233 Z " />
<glyph glyph-name="section" unicode="&#xa7;" horiz-adv-x="1226" d="M259 158 L851 158 C954 158 994 106 994 43 C994 -20 954 -71 844 -71 L231 -71 L231 -100 L854 -100 C978 -100 1027 -38 1027 37 C1027 90 1003 136 946 158 L971 158 C1097 159 1147 222 1147 300 C1147 379 1096 442 967 442 L382 442 C274 442 232 490 232 557 C232 620 272 671 382 671 L995 671 L995 700 L372 700 C248 700 199 638 199 563 C199 509 222 464 279 442 L255 442 C129 441 79 378 79 300 C79 221 130 158 259 158 L259 158 Z M262 185 C152 185 111 236 111 300 C111 365 152 415 262 415 L964 415 C1074 415 1115 364 1115 300 C1115 235 1074 185 964 185 L262 185 Z " />
<glyph glyph-name="dieresis" unicode="&#xa8;" horiz-adv-x="500" d="M346 696 L396 696 L396 745 L346 745 L346 696 Z M104 696 L154 696 L154 745 L104 745 L104 696 Z " />
<glyph glyph-name="copyright" unicode="&#xa9;" horiz-adv-x="1208" d="M682 -10 C1008 -10 1136 151 1136 350 C1136 549 1008 710 682 710 L526 710 C200 710 72 549 72 350 C72 151 200 -10 526 -10 L682 -10 Z M527 16 C220 16 102 166 102 350 C102 534 220 684 527 684 L681 684 C988 684 1106 534 1106 350 C1106 166 988 16 681 16 L527 16 Z M821 200 L533 200 C392 200 341 267 341 350 C341 432 392 500 533 500 L821 500 L821 525 L532 525 C373 525 311 446 311 350 C311 253 373 175 532 175 L821 175 L821 200 Z " />
<glyph glyph-name="ordfeminine" unicode="&#xaa;" horiz-adv-x="766" d="M655 350 L691 350 L399 700 L367 700 L74 350 L110 350 L171 423 L595 423 L655 350 Z M383 675 L574 448 L192 448 L383 675 Z " />
<glyph glyph-name="guillemotleft" unicode="&#xab;" horiz-adv-x="735" d="M326 560 L110 281 L328 0 L365 0 L148 281 L363 560 L326 560 Z M585 560 L369 281 L587 0 L624 0 L407 281 L622 560 L585 560 Z " />
<glyph glyph-name="logicalnot" unicode="&#xac;" horiz-adv-x="1298" d="M294 335 L971 335 L971 40 L1004 40 L1004 365 L294 365 L294 335 Z " />
<glyph glyph-name="uni00AD" unicode="&#xad;" horiz-adv-x="600" d="M99 265 L501 265 L501 295 L99 295 L99 265 Z " />
<glyph glyph-name="registered" unicode="&#xae;" horiz-adv-x="1208" d="M682 -10 C1008 -10 1136 151 1136 350 C1136 549 1008 710 682 710 L526 710 C200 710 72 549 72 350 C72 151 200 -10 526 -10 L682 -10 Z M527 16 C220 16 102 166 102 350 C102 534 220 684 527 684 L681 684 C988 684 1105 534 1105 350 C1105 166 988 16 681 16 L527 16 Z M348 175 L377 175 L377 318 L616 318 L872 175 L919 175 L663 318 L724 318 C819 318 856 362 856 421 C856 479 819 525 724 525 L348 525 L348 175 Z M722 500 C799 500 826 465 826 421 C826 376 799 342 722 342 L377 342 L377 500 L722 500 Z " />
<glyph glyph-name="macron" unicode="&#xaf;" horiz-adv-x="500" d="M79 708 L420 708 L420 732 L79 732 L79 708 Z " />
<glyph glyph-name="degree" unicode="&#xb0;" horiz-adv-x="570" d="M86 512 C86 397 176 313 285 313 C394 313 484 397 484 512 C484 626 394 710 285 710 C176 710 86 626 86 512 L86 512 Z M116 512 C116 611 191 683 285 683 C379 683 454 611 454 512 C454 412 379 340 285 340 C191 340 116 412 116 512 L116 512 Z " />
<glyph glyph-name="plusminus" unicode="&#xb1;" horiz-adv-x="1298" d="M294 400 L633 400 L633 130 L665 130 L665 400 L1004 400 L1004 430 L665 430 L665 700 L633 700 L633 430 L294 430 L294 400 Z M294 0 L1004 0 L1004 30 L294 30 L294 0 Z " />
<glyph glyph-name="twosuperior" unicode="&#xb2;" horiz-adv-x="750" d="M638 377 L135 377 L135 445 C135 482 159 513 226 513 L534 513 C620 513 653 554 653 607 C653 658 620 700 534 700 L126 700 L126 673 L532 673 C599 673 623 642 623 605 C623 567 599 537 532 537 L225 537 C139 537 106 496 106 443 L106 350 L638 350 L638 377 Z " />
<glyph glyph-name="threesuperior" unicode="&#xb3;" horiz-adv-x="750" d="M91 350 L531 350 C614 350 645 390 645 440 C645 483 622 520 562 529 C603 541 620 573 620 611 C620 660 589 700 506 700 L101 700 L101 673 L500 673 C567 673 590 642 590 605 C590 568 568 537 504 537 L144 537 L144 513 L524 513 C591 513 614 482 614 445 C614 407 591 377 524 377 L91 377 L91 350 Z " />
<glyph glyph-name="acute" unicode="&#xb4;" horiz-adv-x="500" d="M200 635 L221 635 L361 806 L316 806 L200 635 Z " />
<glyph glyph-name="uni00B5" unicode="&#xb5;" horiz-adv-x="1298" d="M1131 0 L1159 0 L1159 560 L1126 560 L1126 359 C1126 177 1007 30 703 30 L372 30 C227 30 172 93 172 183 L172 560 L139 560 L139 -200 L172 -200 L172 99 C205 18 282 0 376 0 L705 0 C950 0 1081 93 1127 225 L1131 0 Z " />
<glyph glyph-name="paragraph" unicode="&#xb6;" horiz-adv-x="1199" d="M600 670 L964 670 L964 -100 L997 -100 L997 670 L1097 670 L1097 700 L325 700 C140 700 69 609 69 498 C69 383 140 295 325 295 L567 295 L567 -100 L600 -100 L600 670 Z " />
<glyph glyph-name="periodcentered" unicode="&#xb7;" horiz-adv-x="258" d="M104 324 L154 324 L154 375 L104 375 L104 324 Z " />
<glyph glyph-name="cedilla" unicode="&#xb8;" horiz-adv-x="500" d="M215 -88 L229 -88 C303 -88 345 -104 345 -154 C345 -239 193 -223 146 -201 L146 -219 C217 -253 374 -260 374 -154 C374 -82 311 -68 245 -68 L239 -68 L258 0 L240 0 L215 -88 Z " />
<glyph glyph-name="onesuperior" unicode="&#xb9;" horiz-adv-x="750" d="M243 673 L390 673 L390 377 L168 377 L168 350 L581 350 L581 377 L419 377 L419 700 L243 700 L243 673 Z " />
<glyph glyph-name="ordmasculine" unicode="&#xba;" horiz-adv-x="766" d="M453 345 C616 345 680 425 680 525 C680 624 616 705 453 705 L313 705 C150 705 86 624 86 525 C86 425 150 345 313 345 L453 345 Z M313 372 C169 372 116 440 116 525 C116 609 168 678 313 678 L452 678 C596 678 650 609 650 525 C650 440 596 372 452 372 L313 372 Z " />
<glyph glyph-name="guillemotright" unicode="&#xbb;" horiz-adv-x="735" d="M372 560 L587 281 L370 0 L407 0 L625 281 L409 560 L372 560 Z M113 560 L328 281 L111 0 L148 0 L366 281 L150 560 L113 560 Z " />
<glyph glyph-name="onequarter" unicode="&#xbc;" horiz-adv-x="1500" d="M243 673 L390 673 L390 377 L168 377 L168 350 L581 350 L581 377 L419 377 L419 700 L243 700 L243 673 Z M1173 700 L285 0 L327 0 L1215 700 L1173 700 Z M1334 350 L842 86 L842 64 L1333 64 L1333 0 L1362 0 L1362 64 L1418 64 L1418 91 L1362 91 L1362 350 L1334 350 Z M900 91 L1333 321 L1333 91 L900 91 Z " />
<glyph glyph-name="onehalf" unicode="&#xbd;" horiz-adv-x="1500" d="M243 673 L390 673 L390 377 L168 377 L168 350 L581 350 L581 377 L419 377 L419 700 L243 700 L243 673 Z M1173 700 L285 0 L327 0 L1215 700 L1173 700 Z M1388 27 L885 27 L885 95 C885 132 909 163 976 163 L1284 163 C1370 163 1403 204 1403 257 C1403 308 1370 350 1284 350 L876 350 L876 323 L1282 323 C1349 323 1373 292 1373 255 C1373 217 1349 187 1282 187 L975 187 C889 187 856 146 856 93 L856 0 L1388 0 L1388 27 Z " />
<glyph glyph-name="threequarters" unicode="&#xbe;" horiz-adv-x="1500" d="M91 350 L531 350 C614 350 645 390 645 440 C645 483 622 520 562 529 C603 541 620 573 620 611 C620 660 589 700 506 700 L101 700 L101 673 L500 673 C567 673 590 642 590 605 C590 568 568 537 504 537 L144 537 L144 513 L524 513 C591 513 614 482 614 445 C614 407 591 377 524 377 L91 377 L91 350 Z M1173 700 L285 0 L327 0 L1215 700 L1173 700 Z M1334 350 L842 86 L842 64 L1333 64 L1333 0 L1362 0 L1362 64 L1418 64 L1418 91 L1362 91 L1362 350 L1334 350 Z M900 91 L1333 321 L1333 91 L900 91 Z " />
<glyph glyph-name="questiondown" unicode="&#xbf;" horiz-adv-x="1070" d="M713 579 L681 579 L681 364 L270 364 C103 364 39 284 39 182 C39 82 103 0 270 0 L1033 0 L1033 30 L272 30 C126 30 74 99 74 183 C74 269 126 336 272 336 L713 336 L713 579 Z M722 700 L671 700 L671 649 L722 649 L722 700 Z " />
<glyph glyph-name="Agrave" unicode="&#xc0;" horiz-adv-x="1258" d="M1200 0 L1241 0 L648 700 L611 700 L17 0 L58 0 L188 154 L1069 154 L1200 0 Z M629 674 L1045 183 L213 183 L629 674 Z M562 946 L517 946 L657 775 L678 775 L562 946 Z " />
<glyph glyph-name="Aacute" unicode="&#xc1;" horiz-adv-x="1258" d="M1200 0 L1241 0 L648 700 L611 700 L17 0 L58 0 L188 154 L1069 154 L1200 0 Z M629 674 L1045 183 L213 183 L629 674 Z M579 775 L600 775 L740 946 L695 946 L579 775 Z " />
<glyph glyph-name="Acircumflex" unicode="&#xc2;" horiz-adv-x="1258" d="M1200 0 L1241 0 L648 700 L611 700 L17 0 L58 0 L188 154 L1069 154 L1200 0 Z M629 674 L1045 183 L213 183 L629 674 Z M651 946 L605 946 L476 775 L497 775 L628 922 L760 775 L782 775 L651 946 Z " />
<glyph glyph-name="Atilde" unicode="&#xc3;" horiz-adv-x="1258" d="M1200 0 L1241 0 L648 700 L611 700 L17 0 L58 0 L188 154 L1069 154 L1200 0 Z M629 674 L1045 183 L213 183 L629 674 Z M774 921 C765 847 739 838 708 838 C655 838 615 912 550 912 C507 912 476 890 465 800 L484 800 C493 874 519 884 550 884 C603 884 643 810 708 810 C751 810 783 831 793 921 L774 921 Z " />
<glyph glyph-name="Adieresis" unicode="&#xc4;" horiz-adv-x="1258" d="M1200 0 L1241 0 L648 700 L611 700 L17 0 L58 0 L188 154 L1069 154 L1200 0 Z M629 674 L1045 183 L213 183 L629 674 Z M725 836 L775 836 L775 885 L725 885 L725 836 Z M483 836 L533 836 L533 885 L483 885 L483 836 Z " />
<glyph glyph-name="Aring" unicode="&#xc5;" horiz-adv-x="1258" d="M1200 0 L1241 0 L648 700 L611 700 L17 0 L58 0 L188 154 L1069 154 L1200 0 Z M629 674 L1045 183 L213 183 L629 674 Z M547 861 C547 906 583 943 629 943 C675 943 711 906 711 861 C711 815 675 779 629 779 C583 779 547 815 547 861 L547 861 Z M735 861 C735 920 689 966 629 966 C570 966 523 920 523 861 C523 802 570 755 629 755 C689 755 735 802 735 861 L735 861 Z " />
<glyph glyph-name="AE" unicode="&#xc6;" horiz-adv-x="1694" d="M729 154 L729 0 L1607 0 L1607 30 L762 30 L762 336 L1505 336 L1505 364 L762 364 L762 670 L1607 670 L1607 700 L711 700 L17 0 L59 0 L211 154 L729 154 Z M729 678 L729 182 L239 182 L729 678 Z " />
<glyph glyph-name="Ccedilla" unicode="&#xc7;" horiz-adv-x="1184" d="M607 -88 L621 -88 C695 -88 737 -104 737 -154 C737 -239 585 -223 538 -201 L538 -219 C609 -253 766 -260 766 -154 C766 -82 703 -68 637 -68 L631 -68 L650 0 L1097 0 L1097 30 L524 30 C228 30 117 173 117 350 C117 527 228 670 524 670 L1097 670 L1097 700 L523 700 C206 700 82 543 82 350 C82 157 206 0 523 0 L632 0 L607 -88 Z " />
<glyph glyph-name="Egrave" unicode="&#xc8;" horiz-adv-x="1199" d="M129 0 L1112 0 L1112 30 L162 30 L162 336 L1010 336 L1010 364 L162 364 L162 670 L1112 670 L1112 700 L129 700 L129 0 Z M542 946 L497 946 L637 775 L658 775 L542 946 Z " />
<glyph glyph-name="Eacute" unicode="&#xc9;" horiz-adv-x="1199" d="M129 0 L1112 0 L1112 30 L162 30 L162 336 L1010 336 L1010 364 L162 364 L162 670 L1112 670 L1112 700 L129 700 L129 0 Z M559 775 L580 775 L720 946 L675 946 L559 775 Z " />
<glyph glyph-name="Ecircumflex" unicode="&#xca;" horiz-adv-x="1199" d="M129 0 L1112 0 L1112 30 L162 30 L162 336 L1010 336 L1010 364 L162 364 L162 670 L1112 670 L1112 700 L129 700 L129 0 Z M631 946 L585 946 L456 775 L477 775 L608 922 L740 775 L762 775 L631 946 Z " />
<glyph glyph-name="Edieresis" unicode="&#xcb;" horiz-adv-x="1199" d="M129 0 L1112 0 L1112 30 L162 30 L162 336 L1010 336 L1010 364 L162 364 L162 670 L1112 670 L1112 700 L129 700 L129 0 Z M705 836 L755 836 L755 885 L705 885 L705 836 Z M463 836 L513 836 L513 885 L463 885 L463 836 Z " />
<glyph glyph-name="Igrave" unicode="&#xcc;" horiz-adv-x="291" d="M129 0 L162 0 L162 700 L129 700 L129 0 Z M79 946 L34 946 L174 775 L195 775 L79 946 Z " />
<glyph glyph-name="Iacute" unicode="&#xcd;" horiz-adv-x="291" d="M129 0 L162 0 L162 700 L129 700 L129 0 Z M96 775 L117 775 L257 946 L212 946 L96 775 Z " />
<glyph glyph-name="Icircumflex" unicode="&#xce;" horiz-adv-x="291" d="M129 0 L162 0 L162 700 L129 700 L129 0 Z M168 946 L122 946 L-7 775 L14 775 L145 922 L277 775 L299 775 L168 946 Z " />
<glyph glyph-name="Idieresis" unicode="&#xcf;" horiz-adv-x="291" d="M129 0 L162 0 L162 700 L129 700 L129 0 Z M242 836 L292 836 L292 885 L242 885 L242 836 Z M0 836 L50 836 L50 885 L0 885 L0 836 Z " />
<glyph glyph-name="Eth" unicode="&#xd0;" horiz-adv-x="1255" d="M-1 336 L129 336 L129 0 L732 0 C1049 0 1173 157 1173 350 C1173 543 1049 700 732 700 L129 700 L129 364 L-1 364 L-1 336 Z M731 670 C1027 670 1138 527 1138 350 C1138 173 1027 30 731 30 L162 30 L162 336 L632 336 L632 364 L162 364 L162 670 L731 670 Z " />
<glyph glyph-name="Ntilde" unicode="&#xd1;" horiz-adv-x="1303" d="M1141 39 L160 700 L129 700 L129 0 L162 0 L162 661 L1143 0 L1174 0 L1174 700 L1141 700 L1141 39 Z M796 921 C787 847 761 838 730 838 C677 838 637 912 572 912 C529 912 498 890 487 800 L506 800 C515 874 541 884 572 884 C625 884 665 810 730 810 C773 810 805 831 815 921 L796 921 Z " />
<glyph glyph-name="Ograve" unicode="&#xd2;" horiz-adv-x="1348" d="M812 -10 C1138 -10 1266 151 1266 350 C1266 549 1138 710 812 710 L536 710 C210 710 82 549 82 350 C82 151 210 -10 536 -10 L812 -10 Z M537 20 C232 20 117 167 117 350 C117 533 232 680 537 680 L811 680 C1116 680 1231 533 1231 350 C1231 167 1116 20 811 20 L537 20 Z M607 946 L562 946 L702 775 L723 775 L607 946 Z " />
<glyph glyph-name="Oacute" unicode="&#xd3;" horiz-adv-x="1348" d="M812 -10 C1138 -10 1266 151 1266 350 C1266 549 1138 710 812 710 L536 710 C210 710 82 549 82 350 C82 151 210 -10 536 -10 L812 -10 Z M537 20 C232 20 117 167 117 350 C117 533 232 680 537 680 L811 680 C1116 680 1231 533 1231 350 C1231 167 1116 20 811 20 L537 20 Z M624 775 L645 775 L785 946 L740 946 L624 775 Z " />
<glyph glyph-name="Ocircumflex" unicode="&#xd4;" horiz-adv-x="1348" d="M812 -10 C1138 -10 1266 151 1266 350 C1266 549 1138 710 812 710 L536 710 C210 710 82 549 82 350 C82 151 210 -10 536 -10 L812 -10 Z M537 20 C232 20 117 167 117 350 C117 533 232 680 537 680 L811 680 C1116 680 1231 533 1231 350 C1231 167 1116 20 811 20 L537 20 Z M696 946 L650 946 L521 775 L542 775 L673 922 L805 775 L827 775 L696 946 Z " />
<glyph glyph-name="Otilde" unicode="&#xd5;" horiz-adv-x="1348" d="M812 -10 C1138 -10 1266 151 1266 350 C1266 549 1138 710 812 710 L536 710 C210 710 82 549 82 350 C82 151 210 -10 536 -10 L812 -10 Z M537 20 C232 20 117 167 117 350 C117 533 232 680 537 680 L811 680 C1116 680 1231 533 1231 350 C1231 167 1116 20 811 20 L537 20 Z M819 921 C810 847 784 838 753 838 C700 838 660 912 595 912 C552 912 521 890 510 800 L529 800 C538 874 564 884 595 884 C648 884 688 810 753 810 C796 810 828 831 838 921 L819 921 Z " />
<glyph glyph-name="Odieresis" unicode="&#xd6;" horiz-adv-x="1348" d="M812 -10 C1138 -10 1266 151 1266 350 C1266 549 1138 710 812 710 L536 710 C210 710 82 549 82 350 C82 151 210 -10 536 -10 L812 -10 Z M537 20 C232 20 117 167 117 350 C117 533 232 680 537 680 L811 680 C1116 680 1231 533 1231 350 C1231 167 1116 20 811 20 L537 20 Z M770 836 L820 836 L820 885 L770 885 L770 836 Z M528 836 L578 836 L578 885 L528 885 L528 836 Z " />
<glyph glyph-name="multiply" unicode="&#xd7;" horiz-adv-x="1298" d="M942 607 L920 629 L648 370 L377 628 L355 606 L626 350 L355 93 L377 71 L648 329 L920 71 L942 93 L670 350 L942 607 Z " />
<glyph glyph-name="Oslash" unicode="&#xd8;" horiz-adv-x="1348" d="M812 -10 C1138 -10 1266 151 1266 350 C1266 509 1184 644 983 692 L1074 800 L1033 800 L948 699 C907 706 862 710 812 710 L536 710 C210 710 82 549 82 350 C82 190 164 56 364 8 L273 -100 L314 -100 L399 1 C440 -6 486 -10 536 -10 L812 -10 Z M537 20 C495 20 457 23 422 28 L960 665 C1154 624 1231 499 1231 350 C1231 167 1116 20 811 20 L537 20 Z M117 350 C117 533 232 680 537 680 L811 680 C852 680 890 677 925 672 L386 34 C193 76 117 201 117 350 L117 350 Z " />
<glyph glyph-name="Ugrave" unicode="&#xd9;" horiz-adv-x="1275" d="M142 323 L142 700 L109 700 L109 323 C109 130 213 -10 530 -10 L745 -10 C1062 -10 1166 130 1166 323 L1166 700 L1133 700 L1133 323 C1133 147 1039 20 744 20 L531 20 C236 20 142 147 142 323 L142 323 Z M570 946 L525 946 L665 775 L686 775 L570 946 Z " />
<glyph glyph-name="Uacute" unicode="&#xda;" horiz-adv-x="1275" d="M142 323 L142 700 L109 700 L109 323 C109 130 213 -10 530 -10 L745 -10 C1062 -10 1166 130 1166 323 L1166 700 L1133 700 L1133 323 C1133 147 1039 20 744 20 L531 20 C236 20 142 147 142 323 L142 323 Z M587 775 L608 775 L748 946 L703 946 L587 775 Z " />
<glyph glyph-name="Ucircumflex" unicode="&#xdb;" horiz-adv-x="1275" d="M142 323 L142 700 L109 700 L109 323 C109 130 213 -10 530 -10 L745 -10 C1062 -10 1166 130 1166 323 L1166 700 L1133 700 L1133 323 C1133 147 1039 20 744 20 L531 20 C236 20 142 147 142 323 L142 323 Z M659 946 L613 946 L484 775 L505 775 L636 922 L768 775 L790 775 L659 946 Z " />
<glyph glyph-name="Udieresis" unicode="&#xdc;" horiz-adv-x="1275" d="M142 323 L142 700 L109 700 L109 323 C109 130 213 -10 530 -10 L745 -10 C1062 -10 1166 130 1166 323 L1166 700 L1133 700 L1133 323 C1133 147 1039 20 744 20 L531 20 C236 20 142 147 142 323 L142 323 Z M733 836 L783 836 L783 885 L733 885 L733 836 Z M491 836 L541 836 L541 885 L491 885 L491 836 Z " />
<glyph glyph-name="Yacute" unicode="&#xdd;" horiz-adv-x="1241" d="M604 0 L637 0 L637 211 L1234 700 L1184 700 L621 236 L57 700 L7 700 L604 211 L604 0 Z M570 775 L591 775 L731 946 L686 946 L570 775 Z " />
<glyph glyph-name="Thorn" unicode="&#xde;" horiz-adv-x="1195" d="M129 0 L162 0 L162 148 L901 148 C1086 148 1157 236 1157 350 C1157 461 1086 552 901 552 L162 552 L162 700 L129 700 L129 0 Z M899 523 C1063 523 1122 445 1122 350 C1122 252 1062 177 899 177 L162 177 L162 523 L899 523 Z " />
<glyph glyph-name="germandbls" unicode="&#xdf;" horiz-adv-x="1090" d="M507 267 L837 267 C958 267 996 214 996 147 C996 82 958 28 837 28 L341 28 L341 0 L838 0 C980 0 1029 66 1029 147 C1029 229 980 293 838 293 L557 293 L949 537 L949 560 L456 560 C187 560 99 450 99 296 L99 0 L130 0 L130 296 C130 434 209 532 457 532 L893 532 L507 291 L507 267 Z " />
<glyph glyph-name="agrave" unicode="&#xe0;" horiz-adv-x="1078" d="M1020 0 L1060 0 L557 560 L521 560 L18 0 L58 0 L171 126 L906 126 L1020 0 Z M539 535 L881 154 L196 154 L539 535 Z M472 806 L427 806 L567 635 L588 635 L472 806 Z " />
<glyph glyph-name="aacute" unicode="&#xe1;" horiz-adv-x="1078" d="M1020 0 L1060 0 L557 560 L521 560 L18 0 L58 0 L171 126 L906 126 L1020 0 Z M539 535 L881 154 L196 154 L539 535 Z M489 635 L510 635 L650 806 L605 806 L489 635 Z " />
<glyph glyph-name="acircumflex" unicode="&#xe2;" horiz-adv-x="1078" d="M1020 0 L1060 0 L557 560 L521 560 L18 0 L58 0 L171 126 L906 126 L1020 0 Z M539 535 L881 154 L196 154 L539 535 Z M561 806 L515 806 L386 635 L407 635 L538 782 L670 635 L692 635 L561 806 Z " />
<glyph glyph-name="atilde" unicode="&#xe3;" horiz-adv-x="1078" d="M1020 0 L1060 0 L557 560 L521 560 L18 0 L58 0 L171 126 L906 126 L1020 0 Z M539 535 L881 154 L196 154 L539 535 Z M684 781 C675 707 649 698 618 698 C565 698 525 772 460 772 C417 772 386 750 375 660 L394 660 C403 734 429 744 460 744 C513 744 553 670 618 670 C661 670 693 691 703 781 L684 781 Z " />
<glyph glyph-name="adieresis" unicode="&#xe4;" horiz-adv-x="1078" d="M1020 0 L1060 0 L557 560 L521 560 L18 0 L58 0 L171 126 L906 126 L1020 0 Z M539 535 L881 154 L196 154 L539 535 Z M635 696 L685 696 L685 745 L635 745 L635 696 Z M393 696 L443 696 L443 745 L393 745 L393 696 Z " />
<glyph glyph-name="aring" unicode="&#xe5;" horiz-adv-x="1078" d="M1020 0 L1060 0 L557 560 L521 560 L18 0 L58 0 L171 126 L906 126 L1020 0 Z M539 535 L881 154 L196 154 L539 535 Z M457 721 C457 766 493 803 539 803 C585 803 621 766 621 721 C621 675 585 639 539 639 C493 639 457 675 457 721 L457 721 Z M645 721 C645 780 599 826 539 826 C480 826 433 780 433 721 C433 662 480 615 539 615 C599 615 645 662 645 721 L645 721 Z " />
<glyph glyph-name="ae" unicode="&#xe6;" horiz-adv-x="1451" d="M624 121 L624 0 L1371 0 L1371 28 L655 28 L655 267 L1284 267 L1284 293 L655 293 L655 532 L1371 532 L1371 560 L606 560 L18 0 L58 0 L185 121 L624 121 Z M624 536 L624 149 L215 149 L624 536 Z " />
<glyph glyph-name="ccedilla" unicode="&#xe7;" horiz-adv-x="1017" d="M513 -88 L527 -88 C601 -88 643 -104 643 -154 C643 -239 491 -223 444 -201 L444 -219 C515 -253 672 -260 672 -154 C672 -82 609 -68 543 -68 L537 -68 L556 0 L938 0 L938 28 L442 28 C193 28 108 141 108 280 C108 419 193 532 442 532 L938 532 L938 560 L442 560 C172 560 75 434 75 280 C75 126 172 0 442 0 L538 0 L513 -88 Z " />
<glyph glyph-name="egrave" unicode="&#xe8;" horiz-adv-x="1035" d="M119 0 L955 0 L955 28 L151 28 L151 267 L868 267 L868 293 L151 293 L151 532 L955 532 L955 560 L119 560 L119 0 Z M462 806 L417 806 L557 635 L578 635 L462 806 Z " />
<glyph glyph-name="eacute" unicode="&#xe9;" horiz-adv-x="1035" d="M119 0 L955 0 L955 28 L151 28 L151 267 L868 267 L868 293 L151 293 L151 532 L955 532 L955 560 L119 560 L119 0 Z M479 635 L500 635 L640 806 L595 806 L479 635 Z " />
<glyph glyph-name="ecircumflex" unicode="&#xea;" horiz-adv-x="1035" d="M119 0 L955 0 L955 28 L151 28 L151 267 L868 267 L868 293 L151 293 L151 532 L955 532 L955 560 L119 560 L119 0 Z M551 806 L505 806 L376 635 L397 635 L528 782 L660 635 L682 635 L551 806 Z " />
<glyph glyph-name="edieresis" unicode="&#xeb;" horiz-adv-x="1035" d="M119 0 L955 0 L955 28 L151 28 L151 267 L868 267 L868 293 L151 293 L151 532 L955 532 L955 560 L119 560 L119 0 Z M625 696 L675 696 L675 745 L625 745 L625 696 Z M383 696 L433 696 L433 745 L383 745 L383 696 Z " />
<glyph glyph-name="igrave" unicode="&#xec;" horiz-adv-x="270" d="M119 0 L151 0 L151 560 L119 560 L119 0 Z M68 806 L23 806 L163 635 L184 635 L68 806 Z " />
<glyph glyph-name="iacute" unicode="&#xed;" horiz-adv-x="270" d="M119 0 L151 0 L151 560 L119 560 L119 0 Z M85 635 L106 635 L246 806 L201 806 L85 635 Z " />
<glyph glyph-name="icircumflex" unicode="&#xee;" horiz-adv-x="270" d="M119 0 L151 0 L151 560 L119 560 L119 0 Z M157 806 L111 806 L-18 635 L3 635 L134 782 L266 635 L288 635 L157 806 Z " />
<glyph glyph-name="idieresis" unicode="&#xef;" horiz-adv-x="270" d="M119 0 L151 0 L151 560 L119 560 L119 0 Z M231 696 L281 696 L281 745 L231 745 L231 696 Z M-11 696 L39 696 L39 745 L-11 745 L-11 696 Z " />
<glyph glyph-name="eth" unicode="&#xf0;" horiz-adv-x="1082" d="M-1 267 L119 267 L119 0 L640 0 C910 0 1007 126 1007 280 C1007 434 910 560 640 560 L119 560 L119 293 L-1 293 L-1 267 Z M640 532 C889 532 974 419 974 280 C974 141 889 28 640 28 L151 28 L151 267 L559 267 L559 293 L151 293 L151 532 L640 532 Z " />
<glyph glyph-name="ntilde" unicode="&#xf1;" horiz-adv-x="1126" d="M1007 0 L1007 560 L976 560 L976 37 L149 560 L119 560 L119 0 L151 0 L151 523 L977 0 L1007 0 Z M708 781 C699 707 673 698 642 698 C589 698 549 772 484 772 C441 772 410 750 399 660 L418 660 C427 734 453 744 484 744 C537 744 577 670 642 670 C685 670 717 691 727 781 L708 781 Z " />
<glyph glyph-name="ograve" unicode="&#xf2;" horiz-adv-x="1157" d="M704 -8 C981 -8 1082 121 1082 280 C1082 439 981 568 704 568 L453 568 C176 568 75 439 75 280 C75 121 176 -8 453 -8 L704 -8 Z M454 20 C197 20 108 136 108 280 C108 424 197 540 454 540 L703 540 C960 540 1049 424 1049 280 C1049 136 960 20 703 20 L454 20 Z M511 806 L466 806 L606 635 L627 635 L511 806 Z " />
<glyph glyph-name="oacute" unicode="&#xf3;" horiz-adv-x="1157" d="M704 -8 C981 -8 1082 121 1082 280 C1082 439 981 568 704 568 L453 568 C176 568 75 439 75 280 C75 121 176 -8 453 -8 L704 -8 Z M454 20 C197 20 108 136 108 280 C108 424 197 540 454 540 L703 540 C960 540 1049 424 1049 280 C1049 136 960 20 703 20 L454 20 Z M528 635 L549 635 L689 806 L644 806 L528 635 Z " />
<glyph glyph-name="ocircumflex" unicode="&#xf4;" horiz-adv-x="1157" d="M704 -8 C981 -8 1082 121 1082 280 C1082 439 981 568 704 568 L453 568 C176 568 75 439 75 280 C75 121 176 -8 453 -8 L704 -8 Z M454 20 C197 20 108 136 108 280 C108 424 197 540 454 540 L703 540 C960 540 1049 424 1049 280 C1049 136 960 20 703 20 L454 20 Z M600 806 L554 806 L425 635 L446 635 L577 782 L709 635 L731 635 L600 806 Z " />
<glyph glyph-name="otilde" unicode="&#xf5;" horiz-adv-x="1157" d="M704 -8 C981 -8 1082 121 1082 280 C1082 439 981 568 704 568 L453 568 C176 568 75 439 75 280 C75 121 176 -8 453 -8 L704 -8 Z M454 20 C197 20 108 136 108 280 C108 424 197 540 454 540 L703 540 C960 540 1049 424 1049 280 C1049 136 960 20 703 20 L454 20 Z M723 781 C714 707 688 698 657 698 C604 698 564 772 499 772 C456 772 425 750 414 660 L433 660 C442 734 468 744 499 744 C552 744 592 670 657 670 C700 670 732 691 742 781 L723 781 Z " />
<glyph glyph-name="odieresis" unicode="&#xf6;" horiz-adv-x="1157" d="M704 -8 C981 -8 1082 121 1082 280 C1082 439 981 568 704 568 L453 568 C176 568 75 439 75 280 C75 121 176 -8 453 -8 L704 -8 Z M454 20 C197 20 108 136 108 280 C108 424 197 540 454 540 L703 540 C960 540 1049 424 1049 280 C1049 136 960 20 703 20 L454 20 Z M674 696 L724 696 L724 745 L674 745 L674 696 Z M432 696 L482 696 L482 745 L432 745 L432 696 Z " />
<glyph glyph-name="divide" unicode="&#xf7;" horiz-adv-x="1298" d="M294 335 L1004 335 L1004 365 L294 365 L294 335 Z M628 65 L669 65 L669 106 L628 106 L628 65 Z M628 594 L669 594 L669 635 L628 635 L628 594 Z " />
<glyph glyph-name="oslash" unicode="&#xf8;" horiz-adv-x="1157" d="M704 -8 C981 -8 1082 121 1082 280 C1082 409 1015 518 842 555 L919 640 L880 640 L809 560 C777 565 742 568 704 568 L453 568 C176 568 75 439 75 280 C75 151 141 42 313 5 L237 -80 L276 -80 L347 0 C379 -5 414 -8 453 -8 L704 -8 Z M454 20 C423 20 396 22 370 25 L821 530 C988 499 1049 399 1049 280 C1049 136 960 20 703 20 L454 20 Z M108 280 C108 424 197 540 454 540 L703 540 C733 540 761 538 786 535 L335 30 C169 61 108 161 108 280 L108 280 Z " />
<glyph glyph-name="ugrave" unicode="&#xf9;" horiz-adv-x="1097" d="M130 258 L130 560 L99 560 L99 258 C99 104 179 -8 448 -8 L648 -8 C917 -8 998 104 998 258 L998 560 L966 560 L966 258 C966 120 895 20 647 20 L449 20 C201 20 130 120 130 258 L130 258 Z M481 806 L436 806 L576 635 L597 635 L481 806 Z " />
<glyph glyph-name="uacute" unicode="&#xfa;" horiz-adv-x="1097" d="M130 258 L130 560 L99 560 L99 258 C99 104 179 -8 448 -8 L648 -8 C917 -8 998 104 998 258 L998 560 L966 560 L966 258 C966 120 895 20 647 20 L449 20 C201 20 130 120 130 258 L130 258 Z M498 635 L519 635 L659 806 L614 806 L498 635 Z " />
<glyph glyph-name="ucircumflex" unicode="&#xfb;" horiz-adv-x="1097" d="M130 258 L130 560 L99 560 L99 258 C99 104 179 -8 448 -8 L648 -8 C917 -8 998 104 998 258 L998 560 L966 560 L966 258 C966 120 895 20 647 20 L449 20 C201 20 130 120 130 258 L130 258 Z M570 806 L524 806 L395 635 L416 635 L547 782 L679 635 L701 635 L570 806 Z " />
<glyph glyph-name="udieresis" unicode="&#xfc;" horiz-adv-x="1097" d="M130 258 L130 560 L99 560 L99 258 C99 104 179 -8 448 -8 L648 -8 C917 -8 998 104 998 258 L998 560 L966 560 L966 258 C966 120 895 20 647 20 L449 20 C201 20 130 120 130 258 L130 258 Z M644 696 L694 696 L694 745 L644 745 L644 696 Z M402 696 L452 696 L452 745 L402 745 L402 696 Z " />
<glyph glyph-name="yacute" unicode="&#xfd;" horiz-adv-x="1058" d="M514 0 L545 0 L545 169 L1051 560 L1004 560 L529 194 L54 560 L7 560 L514 169 L514 0 Z M479 635 L500 635 L640 806 L595 806 L479 635 Z " />
<glyph glyph-name="thorn" unicode="&#xfe;" horiz-adv-x="1043" d="M119 0 L151 0 L151 117 L781 117 C939 117 994 188 994 280 C994 370 939 443 781 443 L151 443 L151 560 L119 560 L119 0 Z M779 415 C917 415 961 355 961 280 C961 204 916 145 779 145 L151 145 L151 415 L779 415 Z " />
<glyph glyph-name="ydieresis" unicode="&#xff;" horiz-adv-x="1058" d="M514 0 L545 0 L545 169 L1051 560 L1004 560 L529 194 L54 560 L7 560 L514 169 L514 0 Z M625 696 L675 696 L675 745 L625 745 L625 696 Z M383 696 L433 696 L433 745 L383 745 L383 696 Z " />
<glyph glyph-name="Amacron" unicode="&#x100;" horiz-adv-x="1258" d="M1200 0 L1241 0 L648 700 L611 700 L17 0 L58 0 L188 154 L1069 154 L1200 0 Z M629 674 L1045 183 L213 183 L629 674 Z M458 848 L799 848 L799 872 L458 872 L458 848 Z " />
<glyph glyph-name="amacron" unicode="&#x101;" horiz-adv-x="1078" d="M1020 0 L1060 0 L557 560 L521 560 L18 0 L58 0 L171 126 L906 126 L1020 0 Z M539 535 L881 154 L196 154 L539 535 Z M368 708 L709 708 L709 732 L368 732 L368 708 Z " />
<glyph glyph-name="Abreve" unicode="&#x102;" horiz-adv-x="1258" d="M1200 0 L1241 0 L648 700 L611 700 L17 0 L58 0 L188 154 L1069 154 L1200 0 Z M629 674 L1045 183 L213 183 L629 674 Z M629 820 C536 820 503 871 499 928 L478 928 C484 862 521 793 629 793 C736 793 773 862 779 928 L759 928 C753 871 722 820 629 820 L629 820 Z " />
<glyph glyph-name="abreve" unicode="&#x103;" horiz-adv-x="1078" d="M1020 0 L1060 0 L557 560 L521 560 L18 0 L58 0 L171 126 L906 126 L1020 0 Z M539 535 L881 154 L196 154 L539 535 Z M539 680 C446 680 413 731 409 788 L388 788 C394 722 431 653 539 653 C646 653 683 722 689 788 L669 788 C663 731 632 680 539 680 L539 680 Z " />
<glyph glyph-name="Aogonek" unicode="&#x104;" horiz-adv-x="1258" d="M1042 -154 C1042 -205 1081 -233 1142 -233 C1176 -233 1205 -226 1241 -209 L1241 -192 C1204 -208 1178 -212 1150 -212 C1105 -212 1072 -189 1072 -148 C1072 -77 1148 -27 1232 0 L1241 0 L648 700 L611 700 L17 0 L58 0 L188 154 L1069 154 L1200 0 C1128 -20 1042 -79 1042 -154 L1042 -154 Z M629 674 L1045 183 L213 183 L629 674 Z " />
<glyph glyph-name="aogonek" unicode="&#x105;" horiz-adv-x="1078" d="M862 -154 C862 -205 901 -233 962 -233 C996 -233 1025 -226 1061 -209 L1061 -192 C1024 -208 998 -212 970 -212 C925 -212 892 -189 892 -148 C892 -77 968 -27 1052 0 L1060 0 L557 560 L521 560 L18 0 L58 0 L171 126 L906 126 L1020 0 C948 -20 862 -79 862 -154 L862 -154 Z M539 535 L881 154 L196 154 L539 535 Z " />
<glyph glyph-name="Cacute" unicode="&#x106;" horiz-adv-x="1184" d="M117 350 C117 527 228 670 524 670 L1097 670 L1097 700 L523 700 C206 700 82 543 82 350 C82 157 206 0 523 0 L1097 0 L1097 30 L524 30 C228 30 117 173 117 350 L117 350 Z M592 775 L613 775 L753 946 L708 946 L592 775 Z " />
<glyph glyph-name="cacute" unicode="&#x107;" horiz-adv-x="1017" d="M108 280 C108 419 193 532 442 532 L938 532 L938 560 L442 560 C172 560 75 434 75 280 C75 126 172 0 442 0 L938 0 L938 28 L442 28 C193 28 108 141 108 280 L108 280 Z M499 635 L520 635 L660 806 L615 806 L499 635 Z " />
<glyph glyph-name="Ccircumflex" unicode="&#x108;" horiz-adv-x="1184" d="M117 350 C117 527 228 670 524 670 L1097 670 L1097 700 L523 700 C206 700 82 543 82 350 C82 157 206 0 523 0 L1097 0 L1097 30 L524 30 C228 30 117 173 117 350 L117 350 Z M664 946 L618 946 L489 775 L510 775 L641 922 L773 775 L795 775 L664 946 Z " />
<glyph glyph-name="ccircumflex" unicode="&#x109;" horiz-adv-x="1017" d="M108 280 C108 419 193 532 442 532 L938 532 L938 560 L442 560 C172 560 75 434 75 280 C75 126 172 0 442 0 L938 0 L938 28 L442 28 C193 28 108 141 108 280 L108 280 Z M570 806 L524 806 L395 635 L416 635 L547 782 L679 635 L701 635 L570 806 Z " />
<glyph glyph-name="Cdotaccent" unicode="&#x10a;" horiz-adv-x="1184" d="M117 350 C117 527 228 670 524 670 L1097 670 L1097 700 L523 700 C206 700 82 543 82 350 C82 157 206 0 523 0 L1097 0 L1097 30 L524 30 C228 30 117 173 117 350 L117 350 Z M617 836 L667 836 L667 885 L617 885 L617 836 Z " />
<glyph glyph-name="cdotaccent" unicode="&#x10b;" horiz-adv-x="1017" d="M108 280 C108 419 193 532 442 532 L938 532 L938 560 L442 560 C172 560 75 434 75 280 C75 126 172 0 442 0 L938 0 L938 28 L442 28 C193 28 108 141 108 280 L108 280 Z M523 696 L573 696 L573 745 L523 745 L523 696 Z " />
<glyph glyph-name="Ccaron" unicode="&#x10c;" horiz-adv-x="1184" d="M117 350 C117 527 228 670 524 670 L1097 670 L1097 700 L523 700 C206 700 82 543 82 350 C82 157 206 0 523 0 L1097 0 L1097 30 L524 30 C228 30 117 173 117 350 L117 350 Z M795 946 L773 946 L641 799 L510 946 L489 946 L618 775 L664 775 L795 946 Z " />
<glyph glyph-name="ccaron" unicode="&#x10d;" horiz-adv-x="1017" d="M108 280 C108 419 193 532 442 532 L938 532 L938 560 L442 560 C172 560 75 434 75 280 C75 126 172 0 442 0 L938 0 L938 28 L442 28 C193 28 108 141 108 280 L108 280 Z M701 806 L679 806 L547 659 L416 806 L395 806 L524 635 L570 635 L701 806 Z " />
<glyph glyph-name="Dcaron" unicode="&#x10e;" horiz-adv-x="1255" d="M129 0 L732 0 C1049 0 1173 157 1173 350 C1173 543 1049 700 732 700 L129 700 L129 0 Z M731 670 C1027 670 1138 527 1138 350 C1138 173 1027 30 731 30 L162 30 L162 670 L731 670 Z M765 946 L743 946 L611 799 L480 946 L459 946 L588 775 L634 775 L765 946 Z " />
<glyph glyph-name="dcaron" unicode="&#x10f;" horiz-adv-x="1082" d="M685 806 L663 806 L531 659 L400 806 L379 806 L508 635 L554 635 L685 806 Z M119 0 L640 0 C910 0 1007 126 1007 280 C1007 434 910 560 640 560 L119 560 L119 0 Z M640 532 C889 532 974 419 974 280 C974 141 889 28 640 28 L151 28 L151 532 L640 532 Z " />
<glyph glyph-name="Dcroat" unicode="&#x110;" horiz-adv-x="1255" d="M-1 336 L129 336 L129 0 L732 0 C1049 0 1173 157 1173 350 C1173 543 1049 700 732 700 L129 700 L129 364 L-1 364 L-1 336 Z M731 670 C1027 670 1138 527 1138 350 C1138 173 1027 30 731 30 L162 30 L162 336 L632 336 L632 364 L162 364 L162 670 L731 670 Z " />
<glyph glyph-name="dcroat" unicode="&#x111;" horiz-adv-x="1082" d="M-1 267 L119 267 L119 0 L640 0 C910 0 1007 126 1007 280 C1007 434 910 560 640 560 L119 560 L119 293 L-1 293 L-1 267 Z M640 532 C889 532 974 419 974 280 C974 141 889 28 640 28 L151 28 L151 267 L559 267 L559 293 L151 293 L151 532 L640 532 Z " />
<glyph glyph-name="Emacron" unicode="&#x112;" horiz-adv-x="1199" d="M129 0 L1112 0 L1112 30 L162 30 L162 336 L1010 336 L1010 364 L162 364 L162 670 L1112 670 L1112 700 L129 700 L129 0 Z M439 848 L780 848 L780 872 L439 872 L439 848 Z " />
<glyph glyph-name="emacron" unicode="&#x113;" horiz-adv-x="1035" d="M119 0 L955 0 L955 28 L151 28 L151 267 L868 267 L868 293 L151 293 L151 532 L955 532 L955 560 L119 560 L119 0 Z M359 708 L700 708 L700 732 L359 732 L359 708 Z " />
<glyph glyph-name="Ebreve" unicode="&#x114;" horiz-adv-x="1199" d="M129 0 L1112 0 L1112 30 L162 30 L162 336 L1010 336 L1010 364 L162 364 L162 670 L1112 670 L1112 700 L129 700 L129 0 Z M610 820 C517 820 484 871 480 928 L459 928 C465 862 502 793 610 793 C717 793 754 862 760 928 L740 928 C734 871 703 820 610 820 L610 820 Z " />
<glyph glyph-name="ebreve" unicode="&#x115;" horiz-adv-x="1035" d="M119 0 L955 0 L955 28 L151 28 L151 267 L868 267 L868 293 L151 293 L151 532 L955 532 L955 560 L119 560 L119 0 Z M530 680 C437 680 404 731 400 788 L379 788 C385 722 422 653 530 653 C637 653 674 722 680 788 L660 788 C654 731 623 680 530 680 L530 680 Z " />
<glyph glyph-name="Edotaccent" unicode="&#x116;" horiz-adv-x="1199" d="M129 0 L1112 0 L1112 30 L162 30 L162 336 L1010 336 L1010 364 L162 364 L162 670 L1112 670 L1112 700 L129 700 L129 0 Z M584 836 L634 836 L634 885 L584 885 L584 836 Z " />
<glyph glyph-name="edotaccent" unicode="&#x117;" horiz-adv-x="1035" d="M119 0 L955 0 L955 28 L151 28 L151 267 L868 267 L868 293 L151 293 L151 532 L955 532 L955 560 L119 560 L119 0 Z M504 696 L554 696 L554 745 L504 745 L504 696 Z " />
<glyph glyph-name="Eogonek" unicode="&#x118;" horiz-adv-x="1199" d="M129 0 L1071 0 C999 -20 913 -79 913 -154 C913 -205 952 -233 1013 -233 C1047 -233 1076 -226 1112 -209 L1112 -192 C1075 -208 1049 -212 1021 -212 C976 -212 943 -189 943 -148 C943 -77 1019 -27 1103 0 L1112 0 L1112 30 L162 30 L162 336 L1010 336 L1010 364 L162 364 L162 670 L1112 670 L1112 700 L129 700 L129 0 Z " />
<glyph glyph-name="eogonek" unicode="&#x119;" horiz-adv-x="1035" d="M119 0 L914 0 C842 -20 756 -79 756 -154 C756 -205 795 -233 856 -233 C890 -233 919 -226 955 -209 L955 -192 C918 -208 892 -212 864 -212 C819 -212 786 -189 786 -148 C786 -77 862 -27 946 0 L955 0 L955 28 L151 28 L151 267 L868 267 L868 293 L151 293 L151 532 L955 532 L955 560 L119 560 L119 0 Z " />
<glyph glyph-name="Ecaron" unicode="&#x11a;" horiz-adv-x="1199" d="M129 0 L1112 0 L1112 30 L162 30 L162 336 L1010 336 L1010 364 L162 364 L162 670 L1112 670 L1112 700 L129 700 L129 0 Z M762 946 L740 946 L608 799 L477 946 L456 946 L585 775 L631 775 L762 946 Z " />
<glyph glyph-name="ecaron" unicode="&#x11b;" horiz-adv-x="1035" d="M119 0 L955 0 L955 28 L151 28 L151 267 L868 267 L868 293 L151 293 L151 532 L955 532 L955 560 L119 560 L119 0 Z M682 806 L660 806 L528 659 L397 806 L376 806 L505 635 L551 635 L682 806 Z " />
<glyph glyph-name="Gcircumflex" unicode="&#x11c;" horiz-adv-x="1256" d="M671 336 L1119 336 L1119 30 L524 30 C228 30 117 173 117 350 C117 527 228 670 524 670 L1097 670 L1097 700 L523 700 C206 700 82 543 82 350 C82 157 206 0 523 0 L1152 0 L1152 364 L671 364 L671 336 Z M674 946 L628 946 L499 775 L520 775 L651 922 L783 775 L805 775 L674 946 Z " />
<glyph glyph-name="gcircumflex" unicode="&#x11d;" horiz-adv-x="1082" d="M575 267 L953 267 L953 28 L442 28 C193 28 108 141 108 280 C108 419 193 532 442 532 L938 532 L938 560 L442 560 C172 560 75 434 75 280 C75 126 172 0 442 0 L985 0 L985 293 L575 293 L575 267 Z M574 806 L528 806 L399 635 L420 635 L551 782 L683 635 L705 635 L574 806 Z " />
<glyph glyph-name="Gbreve" unicode="&#x11e;" horiz-adv-x="1256" d="M671 336 L1119 336 L1119 30 L524 30 C228 30 117 173 117 350 C117 527 228 670 524 670 L1097 670 L1097 700 L523 700 C206 700 82 543 82 350 C82 157 206 0 523 0 L1152 0 L1152 364 L671 364 L671 336 Z M652 820 C559 820 526 871 522 928 L501 928 C507 862 544 793 652 793 C759 793 796 862 802 928 L782 928 C776 871 745 820 652 820 L652 820 Z " />
<glyph glyph-name="gbreve" unicode="&#x11f;" horiz-adv-x="1082" d="M575 267 L953 267 L953 28 L442 28 C193 28 108 141 108 280 C108 419 193 532 442 532 L938 532 L938 560 L442 560 C172 560 75 434 75 280 C75 126 172 0 442 0 L985 0 L985 293 L575 293 L575 267 Z M552 680 C459 680 426 731 422 788 L401 788 C407 722 444 653 552 653 C659 653 696 722 702 788 L682 788 C676 731 645 680 552 680 L552 680 Z " />
<glyph glyph-name="Gdotaccent" unicode="&#x120;" horiz-adv-x="1256" d="M671 336 L1119 336 L1119 30 L524 30 C228 30 117 173 117 350 C117 527 228 670 524 670 L1097 670 L1097 700 L523 700 C206 700 82 543 82 350 C82 157 206 0 523 0 L1152 0 L1152 364 L671 364 L671 336 Z M627 836 L677 836 L677 885 L627 885 L627 836 Z " />
<glyph glyph-name="gdotaccent" unicode="&#x121;" horiz-adv-x="1082" d="M575 267 L953 267 L953 28 L442 28 C193 28 108 141 108 280 C108 419 193 532 442 532 L938 532 L938 560 L442 560 C172 560 75 434 75 280 C75 126 172 0 442 0 L985 0 L985 293 L575 293 L575 267 Z M527 696 L577 696 L577 745 L527 745 L527 696 Z " />
<glyph glyph-name="uni0122" unicode="&#x122;" horiz-adv-x="1256" d="M671 336 L1119 336 L1119 30 L524 30 C228 30 117 173 117 350 C117 527 228 670 524 670 L1097 670 L1097 700 L523 700 C206 700 82 543 82 350 C82 157 206 0 523 0 L1152 0 L1152 364 L671 364 L671 336 Z M639 -185 L665 -185 L641 -268 L660 -268 L689 -184 L689 -136 L639 -136 L639 -185 Z " />
<glyph glyph-name="uni0123" unicode="&#x123;" horiz-adv-x="1082" d="M575 267 L953 267 L953 28 L442 28 C193 28 108 141 108 280 C108 419 193 532 442 532 L938 532 L938 560 L442 560 C172 560 75 434 75 280 C75 126 172 0 442 0 L985 0 L985 293 L575 293 L575 267 Z M537 -185 L563 -185 L539 -268 L558 -268 L587 -184 L587 -136 L537 -136 L537 -185 Z " />
<glyph glyph-name="Hcircumflex" unicode="&#x124;" horiz-adv-x="1305" d="M1143 0 L1176 0 L1176 700 L1143 700 L1143 365 L162 365 L162 700 L129 700 L129 0 L162 0 L162 335 L1143 335 L1143 0 Z M674 946 L628 946 L499 775 L520 775 L651 922 L783 775 L805 775 L674 946 Z " />
<glyph glyph-name="hcircumflex" unicode="&#x125;" horiz-adv-x="1129" d="M978 0 L1010 0 L1010 560 L978 560 L978 294 L151 294 L151 560 L119 560 L119 0 L151 0 L151 266 L978 266 L978 0 Z M586 806 L540 806 L411 635 L432 635 L563 782 L695 635 L717 635 L586 806 Z " />
<glyph glyph-name="Hbar" unicode="&#x126;" horiz-adv-x="1305" d="M29 520 L129 520 L129 0 L162 0 L162 335 L1143 335 L1143 0 L1176 0 L1176 520 L1276 520 L1276 544 L1176 544 L1176 700 L1143 700 L1143 544 L162 544 L162 700 L129 700 L129 544 L29 544 L29 520 Z M162 365 L162 520 L1143 520 L1143 365 L162 365 Z " />
<glyph glyph-name="hbar" unicode="&#x127;" horiz-adv-x="1129" d="M29 415 L119 415 L119 0 L151 0 L151 266 L978 266 L978 0 L1010 0 L1010 415 L1100 415 L1100 439 L1010 439 L1010 560 L978 560 L978 439 L151 439 L151 560 L119 560 L119 439 L29 439 L29 415 Z M151 294 L151 415 L978 415 L978 294 L151 294 Z " />
<glyph glyph-name="Itilde" unicode="&#x128;" horiz-adv-x="291" d="M129 0 L162 0 L162 700 L129 700 L129 0 Z M291 921 C282 847 256 838 225 838 C172 838 132 912 67 912 C24 912 -7 890 -18 800 L1 800 C10 874 36 884 67 884 C120 884 160 810 225 810 C268 810 300 831 310 921 L291 921 Z " />
<glyph glyph-name="itilde" unicode="&#x129;" horiz-adv-x="270" d="M119 0 L151 0 L151 560 L119 560 L119 0 Z M280 781 C271 707 245 698 214 698 C161 698 121 772 56 772 C13 772 -18 750 -29 660 L-10 660 C-1 734 25 744 56 744 C109 744 149 670 214 670 C257 670 289 691 299 781 L280 781 Z " />
<glyph glyph-name="Imacron" unicode="&#x12a;" horiz-adv-x="291" d="M129 0 L162 0 L162 700 L129 700 L129 0 Z M-25 848 L316 848 L316 872 L-25 872 L-25 848 Z " />
<glyph glyph-name="imacron" unicode="&#x12b;" horiz-adv-x="270" d="M119 0 L151 0 L151 560 L119 560 L119 0 Z M-35 708 L306 708 L306 732 L-35 732 L-35 708 Z " />
<glyph glyph-name="Ibreve" unicode="&#x12c;" horiz-adv-x="291" d="M129 0 L162 0 L162 700 L129 700 L129 0 Z M146 820 C53 820 20 871 16 928 L-5 928 C1 862 38 793 146 793 C253 793 290 862 296 928 L276 928 C270 871 239 820 146 820 L146 820 Z " />
<glyph glyph-name="ibreve" unicode="&#x12d;" horiz-adv-x="270" d="M119 0 L151 0 L151 560 L119 560 L119 0 Z M136 680 C43 680 10 731 6 788 L-15 788 C-9 722 28 653 136 653 C243 653 280 722 286 788 L266 788 C260 731 229 680 136 680 L136 680 Z " />
<glyph glyph-name="Iogonek" unicode="&#x12e;" horiz-adv-x="291" d="M20 -144 C20 -206 68 -233 120 -233 C154 -233 183 -226 219 -209 L219 -192 C182 -208 156 -212 128 -212 C78 -212 49 -185 49 -141 C49 -81 83 -41 151 0 L162 0 L162 700 L129 700 L129 0 C71 -31 20 -82 20 -144 L20 -144 Z " />
<glyph glyph-name="iogonek" unicode="&#x12f;" horiz-adv-x="270" d="M10 -144 C10 -206 58 -233 110 -233 C144 -233 173 -226 209 -209 L209 -192 C172 -208 146 -212 118 -212 C68 -212 39 -185 39 -141 C39 -81 73 -41 141 0 L151 0 L151 560 L119 560 L119 0 C61 -31 10 -82 10 -144 L10 -144 Z " />
<glyph glyph-name="Idotaccent" unicode="&#x130;" horiz-adv-x="291" d="M129 0 L162 0 L162 700 L129 700 L129 0 Z M121 836 L171 836 L171 885 L121 885 L121 836 Z " />
<glyph glyph-name="dotlessi" unicode="&#x131;" horiz-adv-x="270" d="M119 0 L151 0 L151 560 L119 560 L119 0 Z " />
<glyph glyph-name="IJ" unicode="&#x132;" horiz-adv-x="1271" d="M452 -5 L741 -5 C1058 -5 1162 132 1162 325 L1162 700 L1129 700 L1129 325 C1129 149 1035 25 740 25 L453 25 C221 25 142 137 142 275 L142 312 L109 312 L109 275 C109 121 198 -5 452 -5 L452 -5 Z M109 445 L142 445 L142 700 L109 700 L109 445 Z " />
<glyph glyph-name="ij" unicode="&#x133;" horiz-adv-x="1094" d="M99 356 L131 356 L131 560 L99 560 L99 356 Z M385 -4 L645 -4 C915 -4 995 106 995 260 L995 560 L963 560 L963 260 C963 122 892 24 645 24 L386 24 C191 24 131 112 131 220 L131 251 L99 251 L99 220 C99 97 169 -4 385 -4 L385 -4 Z " />
<glyph glyph-name="Jcircumflex" unicode="&#x134;" horiz-adv-x="1211" d="M392 -5 L681 -5 C998 -5 1102 132 1102 325 L1102 700 L1069 700 L1069 325 C1069 149 975 25 680 25 L393 25 C161 25 82 137 82 275 L82 312 L49 312 L49 275 C49 121 138 -5 392 -5 L392 -5 Z M1078 946 L1032 946 L903 775 L924 775 L1055 922 L1187 775 L1209 775 L1078 946 Z " />
<glyph glyph-name="jcircumflex" unicode="&#x135;" horiz-adv-x="1044" d="M335 -4 L595 -4 C865 -4 945 106 945 260 L945 560 L913 560 L913 260 C913 122 842 24 595 24 L336 24 C141 24 81 112 81 220 L81 251 L49 251 L49 220 C49 97 119 -4 335 -4 L335 -4 Z M921 806 L875 806 L746 635 L767 635 L898 782 L1030 635 L1052 635 L921 806 Z " />
<glyph glyph-name="uni0136" unicode="&#x136;" horiz-adv-x="1281" d="M1178 700 L1117 700 L162 181 L162 700 L129 700 L129 0 L162 0 L162 147 L541 353 L1206 0 L1269 0 L573 371 L1178 700 Z M616 -185 L642 -185 L618 -268 L637 -268 L666 -184 L666 -136 L616 -136 L616 -185 Z " />
<glyph glyph-name="uni0137" unicode="&#x137;" horiz-adv-x="1107" d="M1018 560 L955 560 L151 148 L151 560 L119 560 L119 0 L151 0 L151 116 L473 281 L1028 0 L1090 0 L503 296 L1018 560 Z M527 -185 L553 -185 L529 -268 L548 -268 L577 -184 L577 -136 L527 -136 L527 -185 Z " />
<glyph glyph-name="kgreenlandic" unicode="&#x138;" horiz-adv-x="1220" d="M1162 477 L1136 477 L1160 560 L1141 560 L1112 476 L1112 428 L1162 428 L1162 477 Z M1018 560 L955 560 L151 148 L151 560 L119 560 L119 0 L151 0 L151 116 L473 281 L1028 0 L1090 0 L503 296 L1018 560 Z " />
<glyph glyph-name="Lacute" unicode="&#x139;" horiz-adv-x="1129" d="M162 700 L129 700 L129 0 L1092 0 L1092 30 L162 30 L162 700 Z M97 775 L118 775 L258 946 L213 946 L97 775 Z " />
<glyph glyph-name="lacute" unicode="&#x13a;" horiz-adv-x="988" d="M151 560 L119 560 L119 0 L938 0 L938 28 L151 28 L151 560 Z M86 635 L107 635 L247 806 L202 806 L86 635 Z " />
<glyph glyph-name="uni013B" unicode="&#x13b;" horiz-adv-x="1129" d="M162 700 L129 700 L129 0 L1092 0 L1092 30 L162 30 L162 700 Z M577 -185 L603 -185 L579 -268 L598 -268 L627 -184 L627 -136 L577 -136 L577 -185 Z " />
<glyph glyph-name="uni013C" unicode="&#x13c;" horiz-adv-x="988" d="M151 560 L119 560 L119 0 L938 0 L938 28 L151 28 L151 560 Z M503 -185 L529 -185 L505 -268 L524 -268 L553 -184 L553 -136 L503 -136 L503 -185 Z " />
<glyph glyph-name="Lcaron" unicode="&#x13d;" horiz-adv-x="1129" d="M162 700 L129 700 L129 0 L1092 0 L1092 30 L162 30 L162 700 Z M914 649 L940 649 L916 564 L935 564 L964 650 L964 700 L914 700 L914 649 Z " />
<glyph glyph-name="lcaron" unicode="&#x13e;" horiz-adv-x="988" d="M151 560 L119 560 L119 0 L938 0 L938 28 L151 28 L151 560 Z M790 511 L816 511 L792 428 L811 428 L840 512 L840 560 L790 560 L790 511 Z " />
<glyph glyph-name="Ldot" unicode="&#x13f;" horiz-adv-x="1129" d="M162 700 L129 700 L129 0 L1092 0 L1092 30 L162 30 L162 700 Z M716 341 L766 341 L766 390 L716 390 L716 341 Z " />
<glyph glyph-name="ldot" unicode="&#x140;" horiz-adv-x="988" d="M151 560 L119 560 L119 0 L938 0 L938 28 L151 28 L151 560 Z M630 270 L680 270 L680 319 L630 319 L630 270 Z " />
<glyph glyph-name="Lslash" unicode="&#x141;" horiz-adv-x="1129" d="M587 521 L162 301 L162 700 L129 700 L129 284 L30 233 L30 199 L129 250 L129 0 L1092 0 L1092 30 L162 30 L162 268 L587 488 L587 521 Z " />
<glyph glyph-name="lslash" unicode="&#x142;" horiz-adv-x="988" d="M509 420 L151 245 L151 560 L119 560 L119 230 L35 189 L35 157 L119 198 L119 0 L938 0 L938 28 L151 28 L151 215 L509 389 L509 420 Z " />
<glyph glyph-name="Nacute" unicode="&#x143;" horiz-adv-x="1303" d="M1141 39 L160 700 L129 700 L129 0 L162 0 L162 661 L1143 0 L1174 0 L1174 700 L1141 700 L1141 39 Z M602 775 L623 775 L763 946 L718 946 L602 775 Z " />
<glyph glyph-name="nacute" unicode="&#x144;" horiz-adv-x="1126" d="M1007 0 L1007 560 L976 560 L976 37 L149 560 L119 560 L119 0 L151 0 L151 523 L977 0 L1007 0 Z M513 635 L534 635 L674 806 L629 806 L513 635 Z " />
<glyph glyph-name="uni0145" unicode="&#x145;" horiz-adv-x="1303" d="M626 -185 L652 -185 L628 -268 L647 -268 L676 -184 L676 -136 L626 -136 L626 -185 Z M1141 39 L160 700 L129 700 L129 0 L162 0 L162 661 L1143 0 L1174 0 L1174 700 L1141 700 L1141 39 Z " />
<glyph glyph-name="uni0146" unicode="&#x146;" horiz-adv-x="1126" d="M538 -185 L564 -185 L540 -268 L559 -268 L588 -184 L588 -136 L538 -136 L538 -185 Z M1007 0 L1007 560 L976 560 L976 37 L149 560 L119 560 L119 0 L151 0 L151 523 L977 0 L1007 0 Z " />
<glyph glyph-name="Ncaron" unicode="&#x147;" horiz-adv-x="1303" d="M1141 39 L160 700 L129 700 L129 0 L162 0 L162 661 L1143 0 L1174 0 L1174 700 L1141 700 L1141 39 Z M804 946 L782 946 L650 799 L519 946 L498 946 L627 775 L673 775 L804 946 Z " />
<glyph glyph-name="ncaron" unicode="&#x148;" horiz-adv-x="1126" d="M1007 0 L1007 560 L976 560 L976 37 L149 560 L119 560 L119 0 L151 0 L151 523 L977 0 L1007 0 Z M716 806 L694 806 L562 659 L431 806 L410 806 L539 635 L585 635 L716 806 Z " />
<glyph glyph-name="napostrophe" unicode="&#x149;" horiz-adv-x="1275" d="M63 651 L89 651 L65 568 L84 568 L113 652 L113 700 L63 700 L63 651 Z M1156 0 L1156 560 L1125 560 L1125 37 L298 560 L268 560 L268 0 L300 0 L300 523 L1126 0 L1156 0 Z " />
<glyph glyph-name="Eng" unicode="&#x14a;" horiz-adv-x="1302" d="M754 -230 L942 -230 C1110 -230 1173 -148 1173 -48 L1173 700 L1141 700 L1141 38 L160 700 L129 700 L129 0 L162 0 L162 661 L1141 0 L1141 -48 C1141 -131 1087 -200 941 -200 L754 -200 L754 -230 Z " />
<glyph glyph-name="eng" unicode="&#x14b;" horiz-adv-x="1126" d="M650 -184 L816 -184 C959 -184 1007 -118 1007 -37 L1007 560 L976 560 L976 36 L149 560 L119 560 L119 0 L151 0 L151 523 L976 0 L976 -37 C976 -102 938 -156 815 -156 L650 -156 L650 -184 Z " />
<glyph glyph-name="Omacron" unicode="&#x14c;" horiz-adv-x="1348" d="M812 -10 C1138 -10 1266 151 1266 350 C1266 549 1138 710 812 710 L536 710 C210 710 82 549 82 350 C82 151 210 -10 536 -10 L812 -10 Z M537 20 C232 20 117 167 117 350 C117 533 232 680 537 680 L811 680 C1116 680 1231 533 1231 350 C1231 167 1116 20 811 20 L537 20 Z M503 848 L844 848 L844 872 L503 872 L503 848 Z " />
<glyph glyph-name="omacron" unicode="&#x14d;" horiz-adv-x="1157" d="M704 -8 C981 -8 1082 121 1082 280 C1082 439 981 568 704 568 L453 568 C176 568 75 439 75 280 C75 121 176 -8 453 -8 L704 -8 Z M454 20 C197 20 108 136 108 280 C108 424 197 540 454 540 L703 540 C960 540 1049 424 1049 280 C1049 136 960 20 703 20 L454 20 Z M408 708 L749 708 L749 732 L408 732 L408 708 Z " />
<glyph glyph-name="Obreve" unicode="&#x14e;" horiz-adv-x="1348" d="M812 -10 C1138 -10 1266 151 1266 350 C1266 549 1138 710 812 710 L536 710 C210 710 82 549 82 350 C82 151 210 -10 536 -10 L812 -10 Z M537 20 C232 20 117 167 117 350 C117 533 232 680 537 680 L811 680 C1116 680 1231 533 1231 350 C1231 167 1116 20 811 20 L537 20 Z M674 820 C581 820 548 871 544 928 L523 928 C529 862 566 793 674 793 C781 793 818 862 824 928 L804 928 C798 871 767 820 674 820 L674 820 Z " />
<glyph glyph-name="obreve" unicode="&#x14f;" horiz-adv-x="1157" d="M704 -8 C981 -8 1082 121 1082 280 C1082 439 981 568 704 568 L453 568 C176 568 75 439 75 280 C75 121 176 -8 453 -8 L704 -8 Z M454 20 C197 20 108 136 108 280 C108 424 197 540 454 540 L703 540 C960 540 1049 424 1049 280 C1049 136 960 20 703 20 L454 20 Z M579 680 C486 680 453 731 449 788 L428 788 C434 722 471 653 579 653 C686 653 723 722 729 788 L709 788 C703 731 672 680 579 680 L579 680 Z " />
<glyph glyph-name="Ohungarumlaut" unicode="&#x150;" horiz-adv-x="1348" d="M812 -10 C1138 -10 1266 151 1266 350 C1266 549 1138 710 812 710 L536 710 C210 710 82 549 82 350 C82 151 210 -10 536 -10 L812 -10 Z M537 20 C232 20 117 167 117 350 C117 533 232 680 537 680 L811 680 C1116 680 1231 533 1231 350 C1231 167 1116 20 811 20 L537 20 Z M720 775 L741 775 L881 946 L835 946 L720 775 Z M529 775 L550 775 L690 946 L645 946 L529 775 Z " />
<glyph glyph-name="ohungarumlaut" unicode="&#x151;" horiz-adv-x="1157" d="M704 -8 C981 -8 1082 121 1082 280 C1082 439 981 568 704 568 L453 568 C176 568 75 439 75 280 C75 121 176 -8 453 -8 L704 -8 Z M454 20 C197 20 108 136 108 280 C108 424 197 540 454 540 L703 540 C960 540 1049 424 1049 280 C1049 136 960 20 703 20 L454 20 Z M624 635 L645 635 L785 806 L739 806 L624 635 Z M433 635 L454 635 L594 806 L549 806 L433 635 Z " />
<glyph glyph-name="OE" unicode="&#x152;" horiz-adv-x="1739" d="M82 350 C82 157 206 0 523 0 L1652 0 L1652 30 L807 30 L807 336 L1550 336 L1550 364 L807 364 L807 670 L1652 670 L1652 700 L523 700 C206 700 82 543 82 350 L82 350 Z M117 350 C117 527 228 670 524 670 L774 670 L774 30 L524 30 C228 30 117 173 117 350 L117 350 Z " />
<glyph glyph-name="oe" unicode="&#x153;" horiz-adv-x="1491" d="M75 280 C75 126 172 0 442 0 L1411 0 L1411 28 L694 28 L694 267 L1323 267 L1323 293 L694 293 L694 532 L1411 532 L1411 560 L442 560 C172 560 75 434 75 280 L75 280 Z M108 280 C108 419 193 532 442 532 L663 532 L663 28 L442 28 C193 28 108 141 108 280 L108 280 Z " />
<glyph glyph-name="Racute" unicode="&#x154;" horiz-adv-x="1275" d="M129 0 L162 0 L162 295 L648 295 L1200 0 L1263 0 L708 295 L882 295 C1067 295 1138 384 1138 498 C1138 609 1067 700 882 700 L129 700 L129 0 Z M880 670 C1043 670 1103 592 1103 497 C1103 400 1043 325 880 325 L162 325 L162 670 L880 670 Z M546 775 L567 775 L707 946 L662 946 L546 775 Z " />
<glyph glyph-name="racute" unicode="&#x155;" horiz-adv-x="1105" d="M119 0 L151 0 L151 234 L560 234 L1023 0 L1084 0 L618 234 L765 234 C922 234 977 305 977 397 C977 487 922 560 765 560 L119 560 L119 0 Z M763 532 C900 532 944 471 944 397 C944 320 900 262 763 262 L151 262 L151 532 L763 532 Z M466 635 L487 635 L627 806 L582 806 L466 635 Z " />
<glyph glyph-name="uni0156" unicode="&#x156;" horiz-adv-x="1275" d="M129 0 L162 0 L162 295 L648 295 L1200 0 L1263 0 L708 295 L882 295 C1067 295 1138 384 1138 498 C1138 609 1067 700 882 700 L129 700 L129 0 Z M880 670 C1043 670 1103 592 1103 497 C1103 400 1043 325 880 325 L162 325 L162 670 L880 670 Z M613 -185 L639 -185 L615 -268 L634 -268 L663 -184 L663 -136 L613 -136 L613 -185 Z " />
<glyph glyph-name="uni0157" unicode="&#x157;" horiz-adv-x="1105" d="M119 0 L151 0 L151 234 L560 234 L1023 0 L1084 0 L618 234 L765 234 C922 234 977 305 977 397 C977 487 922 560 765 560 L119 560 L119 0 Z M763 532 C900 532 944 471 944 397 C944 320 900 262 763 262 L151 262 L151 532 L763 532 Z M524 -185 L550 -185 L526 -268 L545 -268 L574 -184 L574 -136 L524 -136 L524 -185 Z " />
<glyph glyph-name="Rcaron" unicode="&#x158;" horiz-adv-x="1275" d="M129 0 L162 0 L162 295 L648 295 L1200 0 L1263 0 L708 295 L882 295 C1067 295 1138 384 1138 498 C1138 609 1067 700 882 700 L129 700 L129 0 Z M880 670 C1043 670 1103 592 1103 497 C1103 400 1043 325 880 325 L162 325 L162 670 L880 670 Z M749 946 L727 946 L595 799 L464 946 L443 946 L572 775 L618 775 L749 946 Z " />
<glyph glyph-name="rcaron" unicode="&#x159;" horiz-adv-x="1105" d="M119 0 L151 0 L151 234 L560 234 L1023 0 L1084 0 L618 234 L765 234 C922 234 977 305 977 397 C977 487 922 560 765 560 L119 560 L119 0 Z M763 532 C900 532 944 471 944 397 C944 320 900 262 763 262 L151 262 L151 532 L763 532 Z M669 806 L647 806 L515 659 L384 806 L363 806 L492 635 L538 635 L669 806 Z " />
<glyph glyph-name="Sacute" unicode="&#x15a;" horiz-adv-x="1207" d="M119 0 L897 0 C1064 0 1128 82 1128 182 C1128 284 1064 364 897 364 L311 364 C166 364 113 431 113 517 C113 601 166 670 311 670 L1088 670 L1088 700 L310 700 C143 700 79 618 79 518 C79 416 143 336 310 336 L896 336 C1041 336 1094 269 1094 183 C1094 99 1041 30 896 30 L119 30 L119 0 Z M553 775 L574 775 L714 946 L669 946 L553 775 Z " />
<glyph glyph-name="sacute" unicode="&#x15b;" horiz-adv-x="1034" d="M105 0 L772 0 C914 0 963 66 963 147 C963 229 914 293 772 293 L263 293 C143 293 104 346 104 413 C104 478 143 532 263 532 L929 532 L929 560 L262 560 C120 560 71 494 71 413 C71 331 120 267 262 267 L771 267 C891 267 930 214 930 147 C930 82 891 28 771 28 L105 28 L105 0 Z M467 635 L488 635 L628 806 L583 806 L467 635 Z " />
<glyph glyph-name="Scircumflex" unicode="&#x15c;" horiz-adv-x="1207" d="M119 0 L897 0 C1064 0 1128 82 1128 182 C1128 284 1064 364 897 364 L311 364 C166 364 113 431 113 517 C113 601 166 670 311 670 L1088 670 L1088 700 L310 700 C143 700 79 618 79 518 C79 416 143 336 310 336 L896 336 C1041 336 1094 269 1094 183 C1094 99 1041 30 896 30 L119 30 L119 0 Z M625 946 L579 946 L450 775 L471 775 L602 922 L734 775 L756 775 L625 946 Z " />
<glyph glyph-name="scircumflex" unicode="&#x15d;" horiz-adv-x="1034" d="M105 0 L772 0 C914 0 963 66 963 147 C963 229 914 293 772 293 L263 293 C143 293 104 346 104 413 C104 478 143 532 263 532 L929 532 L929 560 L262 560 C120 560 71 494 71 413 C71 331 120 267 262 267 L771 267 C891 267 930 214 930 147 C930 82 891 28 771 28 L105 28 L105 0 Z M539 806 L493 806 L364 635 L385 635 L516 782 L648 635 L670 635 L539 806 Z " />
<glyph glyph-name="Scedilla" unicode="&#x15e;" horiz-adv-x="1207" d="M119 0 L593 0 L568 -88 L582 -88 C656 -88 698 -104 698 -154 C698 -239 546 -223 499 -201 L499 -219 C570 -253 727 -260 727 -154 C727 -82 664 -68 598 -68 L592 -68 L611 0 L897 0 C1064 0 1128 82 1128 182 C1128 284 1064 364 897 364 L311 364 C166 364 113 431 113 517 C113 601 166 670 311 670 L1088 670 L1088 700 L310 700 C143 700 79 618 79 518 C79 416 143 336 310 336 L896 336 C1041 336 1094 269 1094 183 C1094 99 1041 30 896 30 L119 30 L119 0 Z " />
<glyph glyph-name="scedilla" unicode="&#x15f;" horiz-adv-x="1034" d="M105 0 L507 0 L482 -88 L496 -88 C570 -88 612 -104 612 -154 C612 -239 460 -223 413 -201 L413 -219 C484 -253 641 -260 641 -154 C641 -82 578 -68 512 -68 L506 -68 L525 0 L772 0 C914 0 963 66 963 147 C963 229 914 293 772 293 L263 293 C143 293 104 346 104 413 C104 478 143 532 263 532 L929 532 L929 560 L262 560 C120 560 71 494 71 413 C71 331 120 267 262 267 L771 267 C891 267 930 214 930 147 C930 82 891 28 771 28 L105 28 L105 0 Z " />
<glyph glyph-name="Scaron" unicode="&#x160;" horiz-adv-x="1207" d="M119 0 L897 0 C1064 0 1128 82 1128 182 C1128 284 1064 364 897 364 L311 364 C166 364 113 431 113 517 C113 601 166 670 311 670 L1088 670 L1088 700 L310 700 C143 700 79 618 79 518 C79 416 143 336 310 336 L896 336 C1041 336 1094 269 1094 183 C1094 99 1041 30 896 30 L119 30 L119 0 Z M756 946 L734 946 L602 799 L471 946 L450 946 L579 775 L625 775 L756 946 Z " />
<glyph glyph-name="scaron" unicode="&#x161;" horiz-adv-x="1034" d="M105 0 L772 0 C914 0 963 66 963 147 C963 229 914 293 772 293 L263 293 C143 293 104 346 104 413 C104 478 143 532 263 532 L929 532 L929 560 L262 560 C120 560 71 494 71 413 C71 331 120 267 262 267 L771 267 C891 267 930 214 930 147 C930 82 891 28 771 28 L105 28 L105 0 Z M670 806 L648 806 L516 659 L385 806 L364 806 L493 635 L539 635 L670 806 Z " />
<glyph glyph-name="uni0162" unicode="&#x162;" horiz-adv-x="1184" d="M37 670 L576 670 L576 0 L582 0 L557 -88 L571 -88 C645 -88 687 -104 687 -154 C687 -239 535 -223 488 -201 L488 -219 C559 -253 716 -260 716 -154 C716 -82 653 -68 587 -68 L581 -68 L600 0 L608 0 L608 670 L1147 670 L1147 700 L37 700 L37 670 Z " />
<glyph glyph-name="uni0163" unicode="&#x163;" horiz-adv-x="1043" d="M50 532 L505 532 L505 0 L511 0 L486 -88 L500 -88 C574 -88 616 -104 616 -154 C616 -239 464 -223 417 -201 L417 -219 C488 -253 645 -260 645 -154 C645 -82 582 -68 516 -68 L510 -68 L529 0 L537 0 L537 532 L993 532 L993 560 L50 560 L50 532 Z " />
<glyph glyph-name="Tcaron" unicode="&#x164;" horiz-adv-x="1184" d="M37 670 L576 670 L576 0 L608 0 L608 670 L1147 670 L1147 700 L37 700 L37 670 Z M745 946 L723 946 L591 799 L460 946 L439 946 L568 775 L614 775 L745 946 Z " />
<glyph glyph-name="tcaron" unicode="&#x165;" horiz-adv-x="1043" d="M674 806 L652 806 L520 659 L389 806 L368 806 L497 635 L543 635 L674 806 Z M50 532 L505 532 L505 0 L537 0 L537 532 L993 532 L993 560 L50 560 L50 532 Z " />
<glyph glyph-name="Tbar" unicode="&#x166;" horiz-adv-x="1184" d="M37 670 L576 670 L576 364 L275 364 L275 336 L576 336 L576 0 L608 0 L608 336 L908 336 L908 364 L608 364 L608 670 L1147 670 L1147 700 L37 700 L37 670 Z " />
<glyph glyph-name="tbar" unicode="&#x167;" horiz-adv-x="1043" d="M50 532 L505 532 L505 292 L241 292 L241 266 L505 266 L505 0 L537 0 L537 266 L801 266 L801 292 L537 292 L537 532 L993 532 L993 560 L50 560 L50 532 Z " />
<glyph glyph-name="Utilde" unicode="&#x168;" horiz-adv-x="1275" d="M142 323 L142 700 L109 700 L109 323 C109 130 213 -10 530 -10 L745 -10 C1062 -10 1166 130 1166 323 L1166 700 L1133 700 L1133 323 C1133 147 1039 20 744 20 L531 20 C236 20 142 147 142 323 L142 323 Z M782 921 C773 847 747 838 716 838 C663 838 623 912 558 912 C515 912 484 890 473 800 L492 800 C501 874 527 884 558 884 C611 884 651 810 716 810 C759 810 791 831 801 921 L782 921 Z " />
<glyph glyph-name="utilde" unicode="&#x169;" horiz-adv-x="1097" d="M130 258 L130 560 L99 560 L99 258 C99 104 179 -8 448 -8 L648 -8 C917 -8 998 104 998 258 L998 560 L966 560 L966 258 C966 120 895 20 647 20 L449 20 C201 20 130 120 130 258 L130 258 Z M693 781 C684 707 658 698 627 698 C574 698 534 772 469 772 C426 772 395 750 384 660 L403 660 C412 734 438 744 469 744 C522 744 562 670 627 670 C670 670 702 691 712 781 L693 781 Z " />
<glyph glyph-name="Umacron" unicode="&#x16a;" horiz-adv-x="1275" d="M142 323 L142 700 L109 700 L109 323 C109 130 213 -10 530 -10 L745 -10 C1062 -10 1166 130 1166 323 L1166 700 L1133 700 L1133 323 C1133 147 1039 20 744 20 L531 20 C236 20 142 147 142 323 L142 323 Z M467 848 L808 848 L808 872 L467 872 L467 848 Z " />
<glyph glyph-name="umacron" unicode="&#x16b;" horiz-adv-x="1097" d="M130 258 L130 560 L99 560 L99 258 C99 104 179 -8 448 -8 L648 -8 C917 -8 998 104 998 258 L998 560 L966 560 L966 258 C966 120 895 20 647 20 L449 20 C201 20 130 120 130 258 L130 258 Z M378 708 L719 708 L719 732 L378 732 L378 708 Z " />
<glyph glyph-name="Ubreve" unicode="&#x16c;" horiz-adv-x="1275" d="M142 323 L142 700 L109 700 L109 323 C109 130 213 -10 530 -10 L745 -10 C1062 -10 1166 130 1166 323 L1166 700 L1133 700 L1133 323 C1133 147 1039 20 744 20 L531 20 C236 20 142 147 142 323 L142 323 Z M638 820 C545 820 512 871 508 928 L487 928 C493 862 530 793 638 793 C745 793 782 862 788 928 L768 928 C762 871 731 820 638 820 L638 820 Z " />
<glyph glyph-name="ubreve" unicode="&#x16d;" horiz-adv-x="1097" d="M130 258 L130 560 L99 560 L99 258 C99 104 179 -8 448 -8 L648 -8 C917 -8 998 104 998 258 L998 560 L966 560 L966 258 C966 120 895 20 647 20 L449 20 C201 20 130 120 130 258 L130 258 Z M549 680 C456 680 423 731 419 788 L398 788 C404 722 441 653 549 653 C656 653 693 722 699 788 L679 788 C673 731 642 680 549 680 L549 680 Z " />
<glyph glyph-name="Uring" unicode="&#x16e;" horiz-adv-x="1275" d="M142 323 L142 700 L109 700 L109 323 C109 130 213 -10 530 -10 L745 -10 C1062 -10 1166 130 1166 323 L1166 700 L1133 700 L1133 323 C1133 147 1039 20 744 20 L531 20 C236 20 142 147 142 323 L142 323 Z M555 861 C555 906 591 943 637 943 C683 943 719 906 719 861 C719 815 683 779 637 779 C591 779 555 815 555 861 L555 861 Z M743 861 C743 920 697 966 637 966 C578 966 531 920 531 861 C531 802 578 755 637 755 C697 755 743 802 743 861 L743 861 Z " />
<glyph glyph-name="uring" unicode="&#x16f;" horiz-adv-x="1097" d="M130 258 L130 560 L99 560 L99 258 C99 104 179 -8 448 -8 L648 -8 C917 -8 998 104 998 258 L998 560 L966 560 L966 258 C966 120 895 20 647 20 L449 20 C201 20 130 120 130 258 L130 258 Z M466 721 C466 766 502 803 548 803 C594 803 630 766 630 721 C630 675 594 639 548 639 C502 639 466 675 466 721 L466 721 Z M654 721 C654 780 608 826 548 826 C489 826 442 780 442 721 C442 662 489 615 548 615 C608 615 654 662 654 721 L654 721 Z " />
<glyph glyph-name="Uhungarumlaut" unicode="&#x170;" horiz-adv-x="1275" d="M142 323 L142 700 L109 700 L109 323 C109 130 213 -10 530 -10 L745 -10 C1062 -10 1166 130 1166 323 L1166 700 L1133 700 L1133 323 C1133 147 1039 20 744 20 L531 20 C236 20 142 147 142 323 L142 323 Z M683 775 L704 775 L844 946 L798 946 L683 775 Z M492 775 L513 775 L653 946 L608 946 L492 775 Z " />
<glyph glyph-name="uhungarumlaut" unicode="&#x171;" horiz-adv-x="1097" d="M130 258 L130 560 L99 560 L99 258 C99 104 179 -8 448 -8 L648 -8 C917 -8 998 104 998 258 L998 560 L966 560 L966 258 C966 120 895 20 647 20 L449 20 C201 20 130 120 130 258 L130 258 Z M594 635 L615 635 L755 806 L709 806 L594 635 Z M403 635 L424 635 L564 806 L519 806 L403 635 Z " />
<glyph glyph-name="Uogonek" unicode="&#x172;" horiz-adv-x="1275" d="M689 -154 C689 -205 728 -233 789 -233 C823 -233 852 -226 888 -209 L888 -192 C851 -208 825 -212 797 -212 C752 -212 719 -189 719 -148 C719 -77 795 -27 879 0 C1092 35 1166 160 1166 323 L1166 700 L1133 700 L1133 323 C1133 147 1039 20 744 20 L531 20 C236 20 142 147 142 323 L142 700 L109 700 L109 323 C109 130 213 -10 530 -10 L745 -10 C773 -10 800 -8 826 -6 C759 -31 689 -86 689 -154 L689 -154 Z " />
<glyph glyph-name="uogonek" unicode="&#x173;" horiz-adv-x="1097" d="M571 -154 C571 -205 610 -233 671 -233 C705 -233 734 -226 770 -209 L770 -192 C733 -208 707 -212 679 -212 C634 -212 601 -189 601 -148 C601 -77 677 -27 759 0 C940 28 998 128 998 258 L998 560 L966 560 L966 258 C966 120 895 20 647 20 L449 20 C201 20 130 120 130 258 L130 560 L99 560 L99 258 C99 104 179 -8 448 -8 L648 -8 C670 -8 691 -7 711 -5 C643 -29 571 -85 571 -154 L571 -154 Z " />
<glyph glyph-name="Wcircumflex" unicode="&#x174;" horiz-adv-x="1618" d="M809 660 L1175 0 L1201 0 L1589 700 L1550 700 L1188 41 L822 700 L796 700 L430 41 L68 700 L29 700 L417 0 L443 0 L809 660 Z M831 946 L785 946 L656 775 L677 775 L808 922 L940 775 L962 775 L831 946 Z " />
<glyph glyph-name="wcircumflex" unicode="&#x175;" horiz-adv-x="1385" d="M693 523 L1001 0 L1026 0 L1356 560 L1318 560 L1013 38 L705 560 L680 560 L372 38 L66 560 L29 560 L360 0 L384 0 L693 523 Z M714 806 L668 806 L539 635 L560 635 L691 782 L823 635 L845 635 L714 806 Z " />
<glyph glyph-name="Ycircumflex" unicode="&#x176;" horiz-adv-x="1241" d="M604 0 L637 0 L637 211 L1234 700 L1184 700 L621 236 L57 700 L7 700 L604 211 L604 0 Z M642 946 L596 946 L467 775 L488 775 L619 922 L751 775 L773 775 L642 946 Z " />
<glyph glyph-name="ycircumflex" unicode="&#x177;" horiz-adv-x="1058" d="M514 0 L545 0 L545 169 L1051 560 L1004 560 L529 194 L54 560 L7 560 L514 169 L514 0 Z M551 806 L505 806 L376 635 L397 635 L528 782 L660 635 L682 635 L551 806 Z " />
<glyph glyph-name="Ydieresis" unicode="&#x178;" horiz-adv-x="1241" d="M604 0 L637 0 L637 211 L1234 700 L1184 700 L621 236 L57 700 L7 700 L604 211 L604 0 Z M716 836 L766 836 L766 885 L716 885 L716 836 Z M474 836 L524 836 L524 885 L474 885 L474 836 Z " />
<glyph glyph-name="Zacute" unicode="&#x179;" horiz-adv-x="1190" d="M79 0 L1121 0 L1121 30 L137 30 L1101 675 L1101 700 L89 700 L89 670 L1042 670 L79 25 L79 0 Z M545 775 L566 775 L706 946 L661 946 L545 775 Z " />
<glyph glyph-name="zacute" unicode="&#x17a;" horiz-adv-x="1021" d="M72 0 L959 0 L959 28 L128 28 L942 537 L942 560 L81 560 L81 532 L884 532 L72 23 L72 0 Z M460 635 L481 635 L621 806 L576 806 L460 635 Z " />
<glyph glyph-name="Zdotaccent" unicode="&#x17b;" horiz-adv-x="1190" d="M79 0 L1121 0 L1121 30 L137 30 L1101 675 L1101 700 L89 700 L89 670 L1042 670 L79 25 L79 0 Z M570 836 L620 836 L620 885 L570 885 L570 836 Z " />
<glyph glyph-name="zdotaccent" unicode="&#x17c;" horiz-adv-x="1021" d="M72 0 L959 0 L959 28 L128 28 L942 537 L942 560 L81 560 L81 532 L884 532 L72 23 L72 0 Z M485 696 L535 696 L535 745 L485 745 L485 696 Z " />
<glyph glyph-name="Zcaron" unicode="&#x17d;" horiz-adv-x="1190" d="M79 0 L1121 0 L1121 30 L137 30 L1101 675 L1101 700 L89 700 L89 670 L1042 670 L79 25 L79 0 Z M748 946 L726 946 L594 799 L463 946 L442 946 L571 775 L617 775 L748 946 Z " />
<glyph glyph-name="zcaron" unicode="&#x17e;" horiz-adv-x="1021" d="M72 0 L959 0 L959 28 L128 28 L942 537 L942 560 L81 560 L81 532 L884 532 L72 23 L72 0 Z M663 806 L641 806 L509 659 L378 806 L357 806 L486 635 L532 635 L663 806 Z " />
<glyph glyph-name="uni0186" unicode="&#x186;" horiz-adv-x="1184" d="M1067 350 C1067 173 956 30 660 30 L87 30 L87 0 L661 0 C978 0 1102 157 1102 350 C1102 543 978 700 661 700 L87 700 L87 670 L660 670 C956 670 1067 527 1067 350 L1067 350 Z " />
<glyph glyph-name="uni0189" unicode="&#x189;" horiz-adv-x="1255" d="M-1 336 L129 336 L129 0 L732 0 C1049 0 1173 157 1173 350 C1173 543 1049 700 732 700 L129 700 L129 364 L-1 364 L-1 336 Z M731 670 C1027 670 1138 527 1138 350 C1138 173 1027 30 731 30 L162 30 L162 336 L632 336 L632 364 L162 364 L162 670 L731 670 Z " />
<glyph glyph-name="uni018E" unicode="&#x18e;" horiz-adv-x="1199" d="M1070 700 L87 700 L87 670 L1037 670 L1037 364 L189 364 L189 336 L1037 336 L1037 30 L87 30 L87 0 L1070 0 L1070 700 Z " />
<glyph glyph-name="florin" unicode="&#x192;" horiz-adv-x="1298" d="M532 89 C518 -41 449 -130 249 -130 L186 -130 L186 -160 L249 -160 C469 -160 549 -59 564 88 L590 335 L923 335 L923 364 L593 364 L602 451 C615 571 701 670 904 670 L1122 670 L1122 700 L905 700 C681 700 584 589 570 452 L561 364 L303 364 L303 335 L558 335 L532 89 Z " />
<glyph glyph-name="Ohorn" unicode="&#x1a0;" horiz-adv-x="1348" d="M812 -10 C1138 -10 1266 151 1266 350 C1266 493 1199 617 1040 675 L1196 675 C1289 675 1349 695 1349 781 C1349 795 1348 809 1345 826 L1313 826 C1316 810 1317 797 1317 784 C1317 715 1272 700 1192 700 L942 700 C902 706 859 710 812 710 L536 710 C210 710 82 549 82 350 C82 151 210 -10 536 -10 L812 -10 Z M537 20 C232 20 117 167 117 350 C117 533 232 680 537 680 L811 680 C1116 680 1231 533 1231 350 C1231 167 1116 20 811 20 L537 20 Z " />
<glyph glyph-name="ohorn" unicode="&#x1a1;" horiz-adv-x="1157" d="M704 -8 C981 -8 1082 121 1082 280 C1082 390 1033 486 910 535 L1005 535 C1098 535 1158 555 1158 641 C1158 655 1157 669 1154 686 L1122 686 C1125 670 1126 657 1126 644 C1126 575 1081 560 1001 560 L813 560 C780 565 744 568 704 568 L453 568 C176 568 75 439 75 280 C75 121 176 -8 453 -8 L704 -8 Z M454 20 C197 20 108 136 108 280 C108 424 197 540 454 540 L703 540 C960 540 1049 424 1049 280 C1049 136 960 20 703 20 L454 20 Z " />
<glyph glyph-name="uni01A7" unicode="&#x1a7;" horiz-adv-x="1207" d="M1088 30 L311 30 C166 30 113 99 113 183 C113 269 166 336 311 336 L897 336 C1064 336 1128 416 1128 518 C1128 618 1064 700 897 700 L119 700 L119 670 L896 670 C1041 670 1094 601 1094 517 C1094 431 1041 364 896 364 L310 364 C143 364 79 284 79 182 C79 82 143 0 310 0 L1088 0 L1088 30 Z " />
<glyph glyph-name="uni01A8" unicode="&#x1a8;" horiz-adv-x="1034" d="M929 28 L263 28 C143 28 104 82 104 147 C104 214 143 267 263 267 L772 267 C914 267 963 331 963 413 C963 494 914 560 772 560 L105 560 L105 532 L771 532 C891 532 930 478 930 413 C930 346 891 293 771 293 L262 293 C120 293 71 229 71 147 C71 66 120 0 262 0 L929 0 L929 28 Z " />
<glyph glyph-name="Uhorn" unicode="&#x1af;" horiz-adv-x="1423" d="M142 323 L142 700 L109 700 L109 323 C109 130 213 -10 530 -10 L745 -10 C1062 -10 1166 130 1166 323 L1166 675 L1266 675 C1359 675 1419 695 1419 781 C1419 795 1418 809 1415 826 L1383 826 C1386 810 1387 797 1387 784 C1387 715 1342 700 1262 700 L1133 700 L1133 323 C1133 147 1039 20 744 20 L531 20 C236 20 142 147 142 323 L142 323 Z " />
<glyph glyph-name="uhorn" unicode="&#x1b0;" horiz-adv-x="1255" d="M130 258 L130 560 L99 560 L99 258 C99 104 179 -8 448 -8 L648 -8 C917 -8 998 104 998 258 L998 535 L1098 535 C1191 535 1251 555 1251 641 C1251 655 1250 669 1247 686 L1215 686 C1218 670 1219 657 1219 644 C1219 575 1174 560 1094 560 L966 560 L966 258 C966 120 895 20 647 20 L449 20 C201 20 130 120 130 258 L130 258 Z " />
<glyph glyph-name="uni01B1" unicode="&#x1b1;" horiz-adv-x="1356" d="M858 673 C1117 622 1219 473 1219 315 C1219 152 1116 20 844 20 L512 20 C240 20 137 152 137 315 C137 474 239 622 498 673 L498 700 L76 700 L76 670 L397 670 C189 602 106 459 106 310 C106 133 220 -10 510 -10 L846 -10 C1136 -10 1250 133 1250 310 C1250 459 1165 602 957 670 L1280 670 L1280 700 L858 700 L858 673 Z " />
<glyph glyph-name="uni01C0" unicode="&#x1c0;" horiz-adv-x="288" d="M159 800 L129 800 L129 -100 L159 -100 L159 800 Z " />
<glyph glyph-name="uni01C1" unicode="&#x1c1;" horiz-adv-x="548" d="M159 800 L129 800 L129 -100 L159 -100 L159 800 Z M419 800 L389 800 L389 -100 L419 -100 L419 800 Z " />
<glyph glyph-name="uni01C2" unicode="&#x1c2;" horiz-adv-x="746" d="M388 175 L697 175 L697 203 L388 203 L388 497 L697 497 L697 525 L388 525 L388 800 L358 800 L358 525 L49 525 L49 497 L358 497 L358 203 L49 203 L49 175 L358 175 L358 -100 L388 -100 L388 175 Z " />
<glyph glyph-name="uni01C3" unicode="&#x1c3;" horiz-adv-x="298" d="M123 0 L174 0 L174 51 L123 51 L123 0 Z M134 121 L163 121 L167 700 L131 700 L134 121 Z " />
<glyph glyph-name="uni01C4" unicode="&#x1c4;" horiz-adv-x="2445" d="M129 0 L732 0 C1049 0 1173 157 1173 350 C1173 543 1049 700 732 700 L129 700 L129 0 Z M731 670 C1027 670 1138 527 1138 350 C1138 173 1027 30 731 30 L162 30 L162 670 L731 670 Z M1334 0 L2376 0 L2376 30 L1392 30 L2356 675 L2356 700 L1344 700 L1344 670 L2297 670 L1334 25 L1334 0 Z M2003 946 L1981 946 L1849 799 L1718 946 L1697 946 L1826 775 L1872 775 L2003 946 Z " />
<glyph glyph-name="uni01C5" unicode="&#x1c5;" horiz-adv-x="2276" d="M129 0 L732 0 C1049 0 1173 157 1173 350 C1173 543 1049 700 732 700 L129 700 L129 0 Z M731 670 C1027 670 1138 527 1138 350 C1138 173 1027 30 731 30 L162 30 L162 670 L731 670 Z M1327 0 L2214 0 L2214 28 L1383 28 L2197 537 L2197 560 L1336 560 L1336 532 L2139 532 L1327 23 L1327 0 Z M1918 806 L1896 806 L1764 659 L1633 806 L1612 806 L1741 635 L1787 635 L1918 806 Z " />
<glyph glyph-name="uni01C6" unicode="&#x1c6;" horiz-adv-x="2103" d="M119 0 L640 0 C910 0 1007 126 1007 280 C1007 434 910 560 640 560 L119 560 L119 0 Z M640 532 C889 532 974 419 974 280 C974 141 889 28 640 28 L151 28 L151 532 L640 532 Z M1154 0 L2041 0 L2041 28 L1210 28 L2024 537 L2024 560 L1163 560 L1163 532 L1966 532 L1154 23 L1154 0 Z M1745 806 L1723 806 L1591 659 L1460 806 L1439 806 L1568 635 L1614 635 L1745 806 Z " />
<glyph glyph-name="uni01C7" unicode="&#x1c7;" horiz-adv-x="2340" d="M162 700 L129 700 L129 0 L1092 0 L1092 30 L162 30 L162 700 Z M1521 -5 L1810 -5 C2127 -5 2231 132 2231 325 L2231 700 L2198 700 L2198 325 C2198 149 2104 25 1809 25 L1522 25 C1290 25 1211 137 1211 275 L1211 312 L1178 312 L1178 275 C1178 121 1267 -5 1521 -5 L1521 -5 Z " />
<glyph glyph-name="uni01C8" unicode="&#x1c8;" horiz-adv-x="2173" d="M162 700 L129 700 L129 0 L1092 0 L1092 30 L162 30 L162 700 Z M1464 -4 L1724 -4 C1994 -4 2074 106 2074 260 L2074 560 L2042 560 L2042 260 C2042 122 1971 24 1724 24 L1465 24 C1270 24 1210 112 1210 220 L1210 251 L1178 251 L1178 220 C1178 97 1248 -4 1464 -4 L1464 -4 Z " />
<glyph glyph-name="uni01C9" unicode="&#x1c9;" horiz-adv-x="2032" d="M151 560 L119 560 L119 0 L938 0 L938 28 L151 28 L151 560 Z M1323 -4 L1583 -4 C1853 -4 1933 106 1933 260 L1933 560 L1901 560 L1901 260 C1901 122 1830 24 1583 24 L1324 24 C1129 24 1069 112 1069 220 L1069 251 L1037 251 L1037 220 C1037 97 1107 -4 1323 -4 L1323 -4 Z " />
<glyph glyph-name="uni01CA" unicode="&#x1ca;" horiz-adv-x="2514" d="M1141 39 L160 700 L129 700 L129 0 L162 0 L162 661 L1143 0 L1174 0 L1174 700 L1141 700 L1141 39 Z M1695 -5 L1984 -5 C2301 -5 2405 132 2405 325 L2405 700 L2372 700 L2372 325 C2372 149 2278 25 1983 25 L1696 25 C1464 25 1385 137 1385 275 L1385 312 L1352 312 L1352 275 C1352 121 1441 -5 1695 -5 L1695 -5 Z " />
<glyph glyph-name="uni01CB" unicode="&#x1cb;" horiz-adv-x="2347" d="M1141 39 L160 700 L129 700 L129 0 L162 0 L162 661 L1143 0 L1174 0 L1174 700 L1141 700 L1141 39 Z M1638 -4 L1898 -4 C2168 -4 2248 106 2248 260 L2248 560 L2216 560 L2216 260 C2216 122 2145 24 1898 24 L1639 24 C1444 24 1384 112 1384 220 L1384 251 L1352 251 L1352 220 C1352 97 1422 -4 1638 -4 L1638 -4 Z " />
<glyph glyph-name="uni01CC" unicode="&#x1cc;" horiz-adv-x="2170" d="M1007 0 L1007 560 L976 560 L976 37 L149 560 L119 560 L119 0 L151 0 L151 523 L977 0 L1007 0 Z M1461 -4 L1721 -4 C1991 -4 2071 106 2071 260 L2071 560 L2039 560 L2039 260 C2039 122 1968 24 1721 24 L1462 24 C1267 24 1207 112 1207 220 L1207 251 L1175 251 L1175 220 C1175 97 1245 -4 1461 -4 L1461 -4 Z " />
<glyph glyph-name="uni01CD" unicode="&#x1cd;" horiz-adv-x="1258" d="M1200 0 L1241 0 L648 700 L611 700 L17 0 L58 0 L188 154 L1069 154 L1200 0 Z M629 674 L1045 183 L213 183 L629 674 Z M782 946 L760 946 L628 799 L497 946 L476 946 L605 775 L651 775 L782 946 Z " />
<glyph glyph-name="uni01CE" unicode="&#x1ce;" horiz-adv-x="1078" d="M1020 0 L1060 0 L557 560 L521 560 L18 0 L58 0 L171 126 L906 126 L1020 0 Z M539 535 L881 154 L196 154 L539 535 Z M692 806 L670 806 L538 659 L407 806 L386 806 L515 635 L561 635 L692 806 Z " />
<glyph glyph-name="uni01CF" unicode="&#x1cf;" horiz-adv-x="291" d="M129 0 L162 0 L162 700 L129 700 L129 0 Z M299 946 L277 946 L145 799 L14 946 L-7 946 L122 775 L168 775 L299 946 Z " />
<glyph glyph-name="uni01D0" unicode="&#x1d0;" horiz-adv-x="270" d="M119 0 L151 0 L151 560 L119 560 L119 0 Z M288 806 L266 806 L134 659 L3 806 L-18 806 L111 635 L157 635 L288 806 Z " />
<glyph glyph-name="uni01D1" unicode="&#x1d1;" horiz-adv-x="1348" d="M812 -10 C1138 -10 1266 151 1266 350 C1266 549 1138 710 812 710 L536 710 C210 710 82 549 82 350 C82 151 210 -10 536 -10 L812 -10 Z M537 20 C232 20 117 167 117 350 C117 533 232 680 537 680 L811 680 C1116 680 1231 533 1231 350 C1231 167 1116 20 811 20 L537 20 Z M827 946 L805 946 L673 799 L542 946 L521 946 L650 775 L696 775 L827 946 Z " />
<glyph glyph-name="uni01D2" unicode="&#x1d2;" horiz-adv-x="1157" d="M704 -8 C981 -8 1082 121 1082 280 C1082 439 981 568 704 568 L453 568 C176 568 75 439 75 280 C75 121 176 -8 453 -8 L704 -8 Z M454 20 C197 20 108 136 108 280 C108 424 197 540 454 540 L703 540 C960 540 1049 424 1049 280 C1049 136 960 20 703 20 L454 20 Z M731 806 L709 806 L577 659 L446 806 L425 806 L554 635 L600 635 L731 806 Z " />
<glyph glyph-name="uni01D3" unicode="&#x1d3;" horiz-adv-x="1275" d="M142 323 L142 700 L109 700 L109 323 C109 130 213 -10 530 -10 L745 -10 C1062 -10 1166 130 1166 323 L1166 700 L1133 700 L1133 323 C1133 147 1039 20 744 20 L531 20 C236 20 142 147 142 323 L142 323 Z M790 946 L768 946 L636 799 L505 946 L484 946 L613 775 L659 775 L790 946 Z " />
<glyph glyph-name="uni01D4" unicode="&#x1d4;" horiz-adv-x="1097" d="M130 258 L130 560 L99 560 L99 258 C99 104 179 -8 448 -8 L648 -8 C917 -8 998 104 998 258 L998 560 L966 560 L966 258 C966 120 895 20 647 20 L449 20 C201 20 130 120 130 258 L130 258 Z M701 806 L679 806 L547 659 L416 806 L395 806 L524 635 L570 635 L701 806 Z " />
<glyph glyph-name="uni01D5" unicode="&#x1d5;" horiz-adv-x="1275" d="M734 836 L784 836 L784 885 L734 885 L734 836 Z M492 836 L542 836 L542 885 L492 885 L492 836 Z M467 997 L808 997 L808 1021 L467 1021 L467 997 Z M142 323 L142 700 L109 700 L109 323 C109 130 213 -10 530 -10 L745 -10 C1062 -10 1166 130 1166 323 L1166 700 L1133 700 L1133 323 C1133 147 1039 20 744 20 L531 20 C236 20 142 147 142 323 L142 323 Z " />
<glyph glyph-name="uni01D6" unicode="&#x1d6;" horiz-adv-x="1097" d="M645 696 L695 696 L695 745 L645 745 L645 696 Z M403 696 L453 696 L453 745 L403 745 L403 696 Z M378 857 L719 857 L719 881 L378 881 L378 857 Z M130 258 L130 560 L99 560 L99 258 C99 104 179 -8 448 -8 L648 -8 C917 -8 998 104 998 258 L998 560 L966 560 L966 258 C966 120 895 20 647 20 L449 20 C201 20 130 120 130 258 L130 258 Z " />
<glyph glyph-name="uni01D7" unicode="&#x1d7;" horiz-adv-x="1275" d="M142 323 L142 700 L109 700 L109 323 C109 130 213 -10 530 -10 L745 -10 C1062 -10 1166 130 1166 323 L1166 700 L1133 700 L1133 323 C1133 147 1039 20 744 20 L531 20 C236 20 142 147 142 323 L142 323 Z M734 836 L784 836 L784 885 L734 885 L734 836 Z M492 836 L542 836 L542 885 L492 885 L492 836 Z M588 943 L609 943 L749 1114 L704 1114 L588 943 Z " />
<glyph glyph-name="uni01D8" unicode="&#x1d8;" horiz-adv-x="1097" d="M130 258 L130 560 L99 560 L99 258 C99 104 179 -8 448 -8 L648 -8 C917 -8 998 104 998 258 L998 560 L966 560 L966 258 C966 120 895 20 647 20 L449 20 C201 20 130 120 130 258 L130 258 Z M645 696 L695 696 L695 745 L645 745 L645 696 Z M403 696 L453 696 L453 745 L403 745 L403 696 Z M499 803 L520 803 L660 974 L615 974 L499 803 Z " />
<glyph glyph-name="uni01D9" unicode="&#x1d9;" horiz-adv-x="1275" d="M142 323 L142 700 L109 700 L109 323 C109 130 213 -10 530 -10 L745 -10 C1062 -10 1166 130 1166 323 L1166 700 L1133 700 L1133 323 C1133 147 1039 20 744 20 L531 20 C236 20 142 147 142 323 L142 323 Z M734 836 L784 836 L784 885 L734 885 L734 836 Z M492 836 L542 836 L542 885 L492 885 L492 836 Z M791 1114 L769 1114 L637 967 L506 1114 L485 1114 L614 943 L660 943 L791 1114 Z " />
<glyph glyph-name="uni01DA" unicode="&#x1da;" horiz-adv-x="1097" d="M130 258 L130 560 L99 560 L99 258 C99 104 179 -8 448 -8 L648 -8 C917 -8 998 104 998 258 L998 560 L966 560 L966 258 C966 120 895 20 647 20 L449 20 C201 20 130 120 130 258 L130 258 Z M645 696 L695 696 L695 745 L645 745 L645 696 Z M403 696 L453 696 L453 745 L403 745 L403 696 Z M702 974 L680 974 L548 827 L417 974 L396 974 L525 803 L571 803 L702 974 Z " />
<glyph glyph-name="uni01DB" unicode="&#x1db;" horiz-adv-x="1275" d="M142 323 L142 700 L109 700 L109 323 C109 130 213 -10 530 -10 L745 -10 C1062 -10 1166 130 1166 323 L1166 700 L1133 700 L1133 323 C1133 147 1039 20 744 20 L531 20 C236 20 142 147 142 323 L142 323 Z M734 836 L784 836 L784 885 L734 885 L734 836 Z M492 836 L542 836 L542 885 L492 885 L492 836 Z M571 1114 L526 1114 L666 943 L687 943 L571 1114 Z " />
<glyph glyph-name="uni01DC" unicode="&#x1dc;" horiz-adv-x="1097" d="M130 258 L130 560 L99 560 L99 258 C99 104 179 -8 448 -8 L648 -8 C917 -8 998 104 998 258 L998 560 L966 560 L966 258 C966 120 895 20 647 20 L449 20 C201 20 130 120 130 258 L130 258 Z M645 696 L695 696 L695 745 L645 745 L645 696 Z M403 696 L453 696 L453 745 L403 745 L403 696 Z M482 974 L437 974 L577 803 L598 803 L482 974 Z " />
<glyph glyph-name="uni01DD" unicode="&#x1dd;" horiz-adv-x="1035" d="M916 560 L80 560 L80 532 L884 532 L884 293 L167 293 L167 267 L884 267 L884 28 L80 28 L80 0 L916 0 L916 560 Z " />
<glyph glyph-name="uni01DE" unicode="&#x1de;" horiz-adv-x="1258" d="M725 836 L775 836 L775 885 L725 885 L725 836 Z M483 836 L533 836 L533 885 L483 885 L483 836 Z M458 997 L799 997 L799 1021 L458 1021 L458 997 Z M1200 0 L1241 0 L648 700 L611 700 L17 0 L58 0 L188 154 L1069 154 L1200 0 Z M629 674 L1045 183 L213 183 L629 674 Z " />
<glyph glyph-name="uni01DF" unicode="&#x1df;" horiz-adv-x="1078" d="M635 696 L685 696 L685 745 L635 745 L635 696 Z M393 696 L443 696 L443 745 L393 745 L393 696 Z M368 857 L709 857 L709 881 L368 881 L368 857 Z M1020 0 L1060 0 L557 560 L521 560 L18 0 L58 0 L171 126 L906 126 L1020 0 Z M539 535 L881 154 L196 154 L539 535 Z " />
<glyph glyph-name="uni01E0" unicode="&#x1e0;" horiz-adv-x="1258" d="M604 836 L654 836 L654 885 L604 885 L604 836 Z M458 997 L799 997 L799 1021 L458 1021 L458 997 Z M1200 0 L1241 0 L648 700 L611 700 L17 0 L58 0 L188 154 L1069 154 L1200 0 Z M629 674 L1045 183 L213 183 L629 674 Z " />
<glyph glyph-name="uni01E1" unicode="&#x1e1;" horiz-adv-x="1078" d="M514 696 L564 696 L564 745 L514 745 L514 696 Z M368 857 L709 857 L709 881 L368 881 L368 857 Z M1020 0 L1060 0 L557 560 L521 560 L18 0 L58 0 L171 126 L906 126 L1020 0 Z M539 535 L881 154 L196 154 L539 535 Z " />
<glyph glyph-name="uni01E2" unicode="&#x1e2;" horiz-adv-x="1694" d="M729 154 L729 0 L1607 0 L1607 30 L762 30 L762 336 L1505 336 L1505 364 L762 364 L762 670 L1607 670 L1607 700 L711 700 L17 0 L59 0 L211 154 L729 154 Z M729 678 L729 182 L239 182 L729 678 Z M794 848 L1135 848 L1135 872 L794 872 L794 848 Z " />
<glyph glyph-name="uni01E3" unicode="&#x1e3;" horiz-adv-x="1451" d="M624 121 L624 0 L1371 0 L1371 28 L655 28 L655 267 L1284 267 L1284 293 L655 293 L655 532 L1371 532 L1371 560 L606 560 L18 0 L58 0 L185 121 L624 121 Z M624 536 L624 149 L215 149 L624 536 Z M685 708 L1026 708 L1026 732 L685 732 L685 708 Z " />
<glyph glyph-name="Gcaron" unicode="&#x1e6;" horiz-adv-x="1256" d="M671 336 L1119 336 L1119 30 L524 30 C228 30 117 173 117 350 C117 527 228 670 524 670 L1097 670 L1097 700 L523 700 C206 700 82 543 82 350 C82 157 206 0 523 0 L1152 0 L1152 364 L671 364 L671 336 Z M805 946 L783 946 L651 799 L520 946 L499 946 L628 775 L674 775 L805 946 Z " />
<glyph glyph-name="gcaron" unicode="&#x1e7;" horiz-adv-x="1082" d="M575 267 L953 267 L953 28 L442 28 C193 28 108 141 108 280 C108 419 193 532 442 532 L938 532 L938 560 L442 560 C172 560 75 434 75 280 C75 126 172 0 442 0 L985 0 L985 293 L575 293 L575 267 Z M705 806 L683 806 L551 659 L420 806 L399 806 L528 635 L574 635 L705 806 Z " />
<glyph glyph-name="uni01E8" unicode="&#x1e8;" horiz-adv-x="1281" d="M1178 700 L1117 700 L162 181 L162 700 L129 700 L129 0 L162 0 L162 147 L541 353 L1206 0 L1269 0 L573 371 L1178 700 Z M753 946 L731 946 L599 799 L468 946 L447 946 L576 775 L622 775 L753 946 Z " />
<glyph glyph-name="uni01E9" unicode="&#x1e9;" horiz-adv-x="1107" d="M1018 560 L955 560 L151 148 L151 560 L119 560 L119 0 L151 0 L151 116 L473 281 L1028 0 L1090 0 L503 296 L1018 560 Z M671 806 L649 806 L517 659 L386 806 L365 806 L494 635 L540 635 L671 806 Z " />
<glyph glyph-name="uni01EA" unicode="&#x1ea;" horiz-adv-x="1348" d="M753 -154 C753 -205 792 -233 853 -233 C887 -233 916 -226 952 -209 L952 -192 C915 -208 889 -212 861 -212 C816 -212 783 -189 783 -148 C783 -77 859 -27 942 0 C1172 38 1266 180 1266 350 C1266 549 1138 710 812 710 L536 710 C210 710 82 549 82 350 C82 151 210 -10 536 -10 L812 -10 C839 -10 865 -9 889 -7 C823 -31 753 -86 753 -154 L753 -154 Z M537 20 C232 20 117 167 117 350 C117 533 232 680 537 680 L811 680 C1116 680 1231 533 1231 350 C1231 167 1116 20 811 20 L537 20 Z " />
<glyph glyph-name="uni01EB" unicode="&#x1eb;" horiz-adv-x="1157" d="M624 -154 C624 -205 663 -233 724 -233 C758 -233 787 -226 823 -209 L823 -192 C786 -208 760 -212 732 -212 C687 -212 654 -189 654 -148 C654 -77 730 -27 813 0 C1008 30 1082 144 1082 280 C1082 439 981 568 704 568 L453 568 C176 568 75 439 75 280 C75 121 176 -8 453 -8 L704 -8 C724 -8 744 -7 762 -6 C695 -30 624 -85 624 -154 L624 -154 Z M454 20 C197 20 108 136 108 280 C108 424 197 540 454 540 L703 540 C960 540 1049 424 1049 280 C1049 136 960 20 703 20 L454 20 Z " />
<glyph glyph-name="uni01EC" unicode="&#x1ec;" horiz-adv-x="1348" d="M753 -154 C753 -205 792 -233 853 -233 C887 -233 916 -226 952 -209 L952 -192 C915 -208 889 -212 861 -212 C816 -212 783 -189 783 -148 C783 -77 859 -27 942 0 C1172 38 1266 180 1266 350 C1266 549 1138 710 812 710 L536 710 C210 710 82 549 82 350 C82 151 210 -10 536 -10 L812 -10 C839 -10 865 -9 889 -7 C823 -31 753 -86 753 -154 L753 -154 Z M537 20 C232 20 117 167 117 350 C117 533 232 680 537 680 L811 680 C1116 680 1231 533 1231 350 C1231 167 1116 20 811 20 L537 20 Z M503 848 L844 848 L844 872 L503 872 L503 848 Z " />
<glyph glyph-name="uni01ED" unicode="&#x1ed;" horiz-adv-x="1157" d="M624 -154 C624 -205 663 -233 724 -233 C758 -233 787 -226 823 -209 L823 -192 C786 -208 760 -212 732 -212 C687 -212 654 -189 654 -148 C654 -77 730 -27 813 0 C1008 30 1082 144 1082 280 C1082 439 981 568 704 568 L453 568 C176 568 75 439 75 280 C75 121 176 -8 453 -8 L704 -8 C724 -8 744 -7 762 -6 C695 -30 624 -85 624 -154 L624 -154 Z M454 20 C197 20 108 136 108 280 C108 424 197 540 454 540 L703 540 C960 540 1049 424 1049 280 C1049 136 960 20 703 20 L454 20 Z M408 708 L749 708 L749 732 L408 732 L408 708 Z " />
<glyph glyph-name="uni01F0" unicode="&#x1f0;" horiz-adv-x="1044" d="M335 -4 L595 -4 C865 -4 945 106 945 260 L945 560 L913 560 L913 260 C913 122 842 24 595 24 L336 24 C141 24 81 112 81 220 L81 251 L49 251 L49 220 C49 97 119 -4 335 -4 L335 -4 Z M1052 806 L1030 806 L898 659 L767 806 L746 806 L875 635 L921 635 L1052 806 Z " />
<glyph glyph-name="uni01F1" unicode="&#x1f1;" horiz-adv-x="2445" d="M129 0 L732 0 C1049 0 1173 157 1173 350 C1173 543 1049 700 732 700 L129 700 L129 0 Z M731 670 C1027 670 1138 527 1138 350 C1138 173 1027 30 731 30 L162 30 L162 670 L731 670 Z M1334 0 L2376 0 L2376 30 L1392 30 L2356 675 L2356 700 L1344 700 L1344 670 L2297 670 L1334 25 L1334 0 Z " />
<glyph glyph-name="uni01F2" unicode="&#x1f2;" horiz-adv-x="2276" d="M129 0 L732 0 C1049 0 1173 157 1173 350 C1173 543 1049 700 732 700 L129 700 L129 0 Z M731 670 C1027 670 1138 527 1138 350 C1138 173 1027 30 731 30 L162 30 L162 670 L731 670 Z M1327 0 L2214 0 L2214 28 L1383 28 L2197 537 L2197 560 L1336 560 L1336 532 L2139 532 L1327 23 L1327 0 Z " />
<glyph glyph-name="uni01F3" unicode="&#x1f3;" horiz-adv-x="2103" d="M119 0 L640 0 C910 0 1007 126 1007 280 C1007 434 910 560 640 560 L119 560 L119 0 Z M640 532 C889 532 974 419 974 280 C974 141 889 28 640 28 L151 28 L151 532 L640 532 Z M1154 0 L2041 0 L2041 28 L1210 28 L2024 537 L2024 560 L1163 560 L1163 532 L1966 532 L1154 23 L1154 0 Z " />
<glyph glyph-name="uni01F4" unicode="&#x1f4;" horiz-adv-x="1256" d="M671 336 L1119 336 L1119 30 L524 30 C228 30 117 173 117 350 C117 527 228 670 524 670 L1097 670 L1097 700 L523 700 C206 700 82 543 82 350 C82 157 206 0 523 0 L1152 0 L1152 364 L671 364 L671 336 Z M602 775 L623 775 L763 946 L718 946 L602 775 Z " />
<glyph glyph-name="uni01F5" unicode="&#x1f5;" horiz-adv-x="1082" d="M575 267 L953 267 L953 28 L442 28 C193 28 108 141 108 280 C108 419 193 532 442 532 L938 532 L938 560 L442 560 C172 560 75 434 75 280 C75 126 172 0 442 0 L985 0 L985 293 L575 293 L575 267 Z M502 635 L523 635 L663 806 L618 806 L502 635 Z " />
<glyph glyph-name="uni01F8" unicode="&#x1f8;" horiz-adv-x="1303" d="M1141 39 L160 700 L129 700 L129 0 L162 0 L162 661 L1143 0 L1174 0 L1174 700 L1141 700 L1141 39 Z M584 946 L539 946 L679 775 L700 775 L584 946 Z " />
<glyph glyph-name="uni01F9" unicode="&#x1f9;" horiz-adv-x="1126" d="M1007 0 L1007 560 L976 560 L976 37 L149 560 L119 560 L119 0 L151 0 L151 523 L977 0 L1007 0 Z M496 806 L451 806 L591 635 L612 635 L496 806 Z " />
<glyph glyph-name="Aringacute" unicode="&#x1fa;" horiz-adv-x="1258" d="M1200 0 L1241 0 L648 700 L611 700 L17 0 L58 0 L188 154 L1069 154 L1200 0 Z M629 674 L1045 183 L213 183 L629 674 Z M547 861 C547 906 583 943 629 943 C675 943 711 906 711 861 C711 815 675 779 629 779 C583 779 547 815 547 861 L547 861 Z M735 861 C735 920 689 966 629 966 C570 966 523 920 523 861 C523 802 570 755 629 755 C689 755 735 802 735 861 L735 861 Z M579 992 L600 992 L740 1163 L695 1163 L579 992 Z " />
<glyph glyph-name="aringacute" unicode="&#x1fb;" horiz-adv-x="1078" d="M1020 0 L1060 0 L557 560 L521 560 L18 0 L58 0 L171 126 L906 126 L1020 0 Z M539 535 L881 154 L196 154 L539 535 Z M457 721 C457 766 493 803 539 803 C585 803 621 766 621 721 C621 675 585 639 539 639 C493 639 457 675 457 721 L457 721 Z M645 721 C645 780 599 826 539 826 C480 826 433 780 433 721 C433 662 480 615 539 615 C599 615 645 662 645 721 L645 721 Z M489 852 L510 852 L650 1023 L605 1023 L489 852 Z " />
<glyph glyph-name="AEacute" unicode="&#x1fc;" horiz-adv-x="1694" d="M729 154 L729 0 L1607 0 L1607 30 L762 30 L762 336 L1505 336 L1505 364 L762 364 L762 670 L1607 670 L1607 700 L711 700 L17 0 L59 0 L211 154 L729 154 Z M729 678 L729 182 L239 182 L729 678 Z M915 775 L936 775 L1076 946 L1031 946 L915 775 Z " />
<glyph glyph-name="aeacute" unicode="&#x1fd;" horiz-adv-x="1451" d="M624 121 L624 0 L1371 0 L1371 28 L655 28 L655 267 L1284 267 L1284 293 L655 293 L655 532 L1371 532 L1371 560 L606 560 L18 0 L58 0 L185 121 L624 121 Z M624 536 L624 149 L215 149 L624 536 Z M806 635 L827 635 L967 806 L922 806 L806 635 Z " />
<glyph glyph-name="Oslashacute" unicode="&#x1fe;" horiz-adv-x="1348" d="M624 775 L645 775 L785 946 L740 946 L624 775 Z M812 -10 C1138 -10 1266 151 1266 350 C1266 509 1184 644 983 692 L1074 800 L1033 800 L948 699 C907 706 862 710 812 710 L536 710 C210 710 82 549 82 350 C82 190 164 56 364 8 L273 -100 L314 -100 L399 1 C440 -6 486 -10 536 -10 L812 -10 Z M537 20 C495 20 457 23 422 28 L960 665 C1154 624 1231 499 1231 350 C1231 167 1116 20 811 20 L537 20 Z M117 350 C117 533 232 680 537 680 L811 680 C852 680 890 677 925 672 L386 34 C193 76 117 201 117 350 L117 350 Z " />
<glyph glyph-name="oslashacute" unicode="&#x1ff;" horiz-adv-x="1157" d="M528 635 L549 635 L689 806 L644 806 L528 635 Z M704 -8 C981 -8 1082 121 1082 280 C1082 409 1015 518 842 555 L919 640 L880 640 L809 560 C777 565 742 568 704 568 L453 568 C176 568 75 439 75 280 C75 151 141 42 313 5 L237 -80 L276 -80 L347 0 C379 -5 414 -8 453 -8 L704 -8 Z M454 20 C423 20 396 22 370 25 L821 530 C988 499 1049 399 1049 280 C1049 136 960 20 703 20 L454 20 Z M108 280 C108 424 197 540 454 540 L703 540 C733 540 761 538 786 535 L335 30 C169 61 108 161 108 280 L108 280 Z " />
<glyph glyph-name="uni0200" unicode="&#x200;" horiz-adv-x="1258" d="M468 946 L422 946 L562 775 L583 775 L468 946 Z M658 946 L613 946 L753 775 L774 775 L658 946 Z M1200 0 L1241 0 L648 700 L611 700 L17 0 L58 0 L188 154 L1069 154 L1200 0 Z M629 674 L1045 183 L213 183 L629 674 Z " />
<glyph glyph-name="uni0201" unicode="&#x201;" horiz-adv-x="1078" d="M378 806 L332 806 L472 635 L493 635 L378 806 Z M568 806 L523 806 L663 635 L684 635 L568 806 Z M1020 0 L1060 0 L557 560 L521 560 L18 0 L58 0 L171 126 L906 126 L1020 0 Z M539 535 L881 154 L196 154 L539 535 Z " />
<glyph glyph-name="uni0202" unicode="&#x202;" horiz-adv-x="1258" d="M629 901 C722 901 753 850 759 793 L779 793 C773 859 736 928 629 928 C521 928 484 859 478 793 L499 793 C503 850 536 901 629 901 L629 901 Z M1200 0 L1241 0 L648 700 L611 700 L17 0 L58 0 L188 154 L1069 154 L1200 0 Z M629 674 L1045 183 L213 183 L629 674 Z " />
<glyph glyph-name="uni0203" unicode="&#x203;" horiz-adv-x="1078" d="M539 761 C632 761 663 710 669 653 L689 653 C683 719 646 788 539 788 C431 788 394 719 388 653 L409 653 C413 710 446 761 539 761 L539 761 Z M1020 0 L1060 0 L557 560 L521 560 L18 0 L58 0 L171 126 L906 126 L1020 0 Z M539 535 L881 154 L196 154 L539 535 Z " />
<glyph glyph-name="uni0204" unicode="&#x204;" horiz-adv-x="1199" d="M129 0 L1112 0 L1112 30 L162 30 L162 336 L1010 336 L1010 364 L162 364 L162 670 L1112 670 L1112 700 L129 700 L129 0 Z M448 946 L402 946 L542 775 L563 775 L448 946 Z M638 946 L593 946 L733 775 L754 775 L638 946 Z " />
<glyph glyph-name="uni0205" unicode="&#x205;" horiz-adv-x="1035" d="M119 0 L955 0 L955 28 L151 28 L151 267 L868 267 L868 293 L151 293 L151 532 L955 532 L955 560 L119 560 L119 0 Z M368 806 L322 806 L462 635 L483 635 L368 806 Z M558 806 L513 806 L653 635 L674 635 L558 806 Z " />
<glyph glyph-name="uni0206" unicode="&#x206;" horiz-adv-x="1199" d="M129 0 L1112 0 L1112 30 L162 30 L162 336 L1010 336 L1010 364 L162 364 L162 670 L1112 670 L1112 700 L129 700 L129 0 Z M610 901 C703 901 734 850 740 793 L760 793 C754 859 717 928 610 928 C502 928 465 859 459 793 L480 793 C484 850 517 901 610 901 L610 901 Z " />
<glyph glyph-name="uni0207" unicode="&#x207;" horiz-adv-x="1035" d="M119 0 L955 0 L955 28 L151 28 L151 267 L868 267 L868 293 L151 293 L151 532 L955 532 L955 560 L119 560 L119 0 Z M530 761 C623 761 654 710 660 653 L680 653 C674 719 637 788 530 788 C422 788 385 719 379 653 L400 653 C404 710 437 761 530 761 L530 761 Z " />
<glyph glyph-name="uni0208" unicode="&#x208;" horiz-adv-x="291" d="M-15 946 L-61 946 L79 775 L100 775 L-15 946 Z M175 946 L130 946 L270 775 L291 775 L175 946 Z M129 0 L162 0 L162 700 L129 700 L129 0 Z " />
<glyph glyph-name="uni0209" unicode="&#x209;" horiz-adv-x="270" d="M-26 806 L-72 806 L68 635 L89 635 L-26 806 Z M164 806 L119 806 L259 635 L280 635 L164 806 Z M119 0 L151 0 L151 560 L119 560 L119 0 Z " />
<glyph glyph-name="uni020A" unicode="&#x20a;" horiz-adv-x="291" d="M146 901 C239 901 270 850 276 793 L296 793 C290 859 253 928 146 928 C38 928 1 859 -5 793 L16 793 C20 850 53 901 146 901 L146 901 Z M129 0 L162 0 L162 700 L129 700 L129 0 Z " />
<glyph glyph-name="uni020B" unicode="&#x20b;" horiz-adv-x="270" d="M136 761 C229 761 260 710 266 653 L286 653 C280 719 243 788 136 788 C28 788 -9 719 -15 653 L6 653 C10 710 43 761 136 761 L136 761 Z M119 0 L151 0 L151 560 L119 560 L119 0 Z " />
<glyph glyph-name="uni020C" unicode="&#x20c;" horiz-adv-x="1348" d="M513 946 L467 946 L607 775 L628 775 L513 946 Z M703 946 L658 946 L798 775 L819 775 L703 946 Z M812 -10 C1138 -10 1266 151 1266 350 C1266 549 1138 710 812 710 L536 710 C210 710 82 549 82 350 C82 151 210 -10 536 -10 L812 -10 Z M537 20 C232 20 117 167 117 350 C117 533 232 680 537 680 L811 680 C1116 680 1231 533 1231 350 C1231 167 1116 20 811 20 L537 20 Z " />
<glyph glyph-name="uni020D" unicode="&#x20d;" horiz-adv-x="1157" d="M417 806 L371 806 L511 635 L532 635 L417 806 Z M607 806 L562 806 L702 635 L723 635 L607 806 Z M704 -8 C981 -8 1082 121 1082 280 C1082 439 981 568 704 568 L453 568 C176 568 75 439 75 280 C75 121 176 -8 453 -8 L704 -8 Z M454 20 C197 20 108 136 108 280 C108 424 197 540 454 540 L703 540 C960 540 1049 424 1049 280 C1049 136 960 20 703 20 L454 20 Z " />
<glyph glyph-name="uni020E" unicode="&#x20e;" horiz-adv-x="1348" d="M674 901 C767 901 798 850 804 793 L824 793 C818 859 781 928 674 928 C566 928 529 859 523 793 L544 793 C548 850 581 901 674 901 L674 901 Z M812 -10 C1138 -10 1266 151 1266 350 C1266 549 1138 710 812 710 L536 710 C210 710 82 549 82 350 C82 151 210 -10 536 -10 L812 -10 Z M537 20 C232 20 117 167 117 350 C117 533 232 680 537 680 L811 680 C1116 680 1231 533 1231 350 C1231 167 1116 20 811 20 L537 20 Z " />
<glyph glyph-name="uni020F" unicode="&#x20f;" horiz-adv-x="1157" d="M579 761 C672 761 703 710 709 653 L729 653 C723 719 686 788 579 788 C471 788 434 719 428 653 L449 653 C453 710 486 761 579 761 L579 761 Z M704 -8 C981 -8 1082 121 1082 280 C1082 439 981 568 704 568 L453 568 C176 568 75 439 75 280 C75 121 176 -8 453 -8 L704 -8 Z M454 20 C197 20 108 136 108 280 C108 424 197 540 454 540 L703 540 C960 540 1049 424 1049 280 C1049 136 960 20 703 20 L454 20 Z " />
<glyph glyph-name="uni0210" unicode="&#x210;" horiz-adv-x="1275" d="M129 0 L162 0 L162 295 L648 295 L1200 0 L1263 0 L708 295 L882 295 C1067 295 1138 384 1138 498 C1138 609 1067 700 882 700 L129 700 L129 0 Z M880 670 C1043 670 1103 592 1103 497 C1103 400 1043 325 880 325 L162 325 L162 670 L880 670 Z M435 946 L389 946 L529 775 L550 775 L435 946 Z M625 946 L580 946 L720 775 L741 775 L625 946 Z " />
<glyph glyph-name="uni0211" unicode="&#x211;" horiz-adv-x="1105" d="M119 0 L151 0 L151 234 L560 234 L1023 0 L1084 0 L618 234 L765 234 C922 234 977 305 977 397 C977 487 922 560 765 560 L119 560 L119 0 Z M763 532 C900 532 944 471 944 397 C944 320 900 262 763 262 L151 262 L151 532 L763 532 Z M355 806 L309 806 L449 635 L470 635 L355 806 Z M545 806 L500 806 L640 635 L661 635 L545 806 Z " />
<glyph glyph-name="uni0212" unicode="&#x212;" horiz-adv-x="1275" d="M129 0 L162 0 L162 295 L648 295 L1200 0 L1263 0 L708 295 L882 295 C1067 295 1138 384 1138 498 C1138 609 1067 700 882 700 L129 700 L129 0 Z M880 670 C1043 670 1103 592 1103 497 C1103 400 1043 325 880 325 L162 325 L162 670 L880 670 Z M597 901 C690 901 721 850 727 793 L747 793 C741 859 704 928 597 928 C489 928 452 859 446 793 L467 793 C471 850 504 901 597 901 L597 901 Z " />
<glyph glyph-name="uni0213" unicode="&#x213;" horiz-adv-x="1105" d="M119 0 L151 0 L151 234 L560 234 L1023 0 L1084 0 L618 234 L765 234 C922 234 977 305 977 397 C977 487 922 560 765 560 L119 560 L119 0 Z M763 532 C900 532 944 471 944 397 C944 320 900 262 763 262 L151 262 L151 532 L763 532 Z M517 761 C610 761 641 710 647 653 L667 653 C661 719 624 788 517 788 C409 788 372 719 366 653 L387 653 C391 710 424 761 517 761 L517 761 Z " />
<glyph glyph-name="uni0214" unicode="&#x214;" horiz-adv-x="1275" d="M476 946 L430 946 L570 775 L591 775 L476 946 Z M666 946 L621 946 L761 775 L782 775 L666 946 Z M142 323 L142 700 L109 700 L109 323 C109 130 213 -10 530 -10 L745 -10 C1062 -10 1166 130 1166 323 L1166 700 L1133 700 L1133 323 C1133 147 1039 20 744 20 L531 20 C236 20 142 147 142 323 L142 323 Z " />
<glyph glyph-name="uni0215" unicode="&#x215;" horiz-adv-x="1097" d="M387 806 L341 806 L481 635 L502 635 L387 806 Z M577 806 L532 806 L672 635 L693 635 L577 806 Z M130 258 L130 560 L99 560 L99 258 C99 104 179 -8 448 -8 L648 -8 C917 -8 998 104 998 258 L998 560 L966 560 L966 258 C966 120 895 20 647 20 L449 20 C201 20 130 120 130 258 L130 258 Z " />
<glyph glyph-name="uni0216" unicode="&#x216;" horiz-adv-x="1275" d="M638 901 C731 901 762 850 768 793 L788 793 C782 859 745 928 638 928 C530 928 493 859 487 793 L508 793 C512 850 545 901 638 901 L638 901 Z M142 323 L142 700 L109 700 L109 323 C109 130 213 -10 530 -10 L745 -10 C1062 -10 1166 130 1166 323 L1166 700 L1133 700 L1133 323 C1133 147 1039 20 744 20 L531 20 C236 20 142 147 142 323 L142 323 Z " />
<glyph glyph-name="uni0217" unicode="&#x217;" horiz-adv-x="1097" d="M549 761 C642 761 673 710 679 653 L699 653 C693 719 656 788 549 788 C441 788 404 719 398 653 L419 653 C423 710 456 761 549 761 L549 761 Z M130 258 L130 560 L99 560 L99 258 C99 104 179 -8 448 -8 L648 -8 C917 -8 998 104 998 258 L998 560 L966 560 L966 258 C966 120 895 20 647 20 L449 20 C201 20 130 120 130 258 L130 258 Z " />
<glyph glyph-name="uni0218" unicode="&#x218;" horiz-adv-x="1207" d="M119 0 L897 0 C1064 0 1128 82 1128 182 C1128 284 1064 364 897 364 L311 364 C166 364 113 431 113 517 C113 601 166 670 311 670 L1088 670 L1088 700 L310 700 C143 700 79 618 79 518 C79 416 143 336 310 336 L896 336 C1041 336 1094 269 1094 183 C1094 99 1041 30 896 30 L119 30 L119 0 Z M578 -185 L604 -185 L580 -268 L599 -268 L628 -184 L628 -136 L578 -136 L578 -185 Z " />
<glyph glyph-name="uni0219" unicode="&#x219;" horiz-adv-x="1034" d="M492 -185 L518 -185 L494 -268 L513 -268 L542 -184 L542 -136 L492 -136 L492 -185 Z M105 0 L772 0 C914 0 963 66 963 147 C963 229 914 293 772 293 L263 293 C143 293 104 346 104 413 C104 478 143 532 263 532 L929 532 L929 560 L262 560 C120 560 71 494 71 413 C71 331 120 267 262 267 L771 267 C891 267 930 214 930 147 C930 82 891 28 771 28 L105 28 L105 0 Z " />
<glyph glyph-name="uni021A" unicode="&#x21a;" horiz-adv-x="1184" d="M567 -185 L593 -185 L569 -268 L588 -268 L617 -184 L617 -136 L567 -136 L567 -185 Z M37 670 L576 670 L576 0 L608 0 L608 670 L1147 670 L1147 700 L37 700 L37 670 Z " />
<glyph glyph-name="uni021B" unicode="&#x21b;" horiz-adv-x="1043" d="M496 -185 L522 -185 L498 -268 L517 -268 L546 -184 L546 -136 L496 -136 L496 -185 Z M50 532 L505 532 L505 0 L537 0 L537 532 L993 532 L993 560 L50 560 L50 532 Z " />
<glyph glyph-name="uni021E" unicode="&#x21e;" horiz-adv-x="1305" d="M1143 0 L1176 0 L1176 700 L1143 700 L1143 365 L162 365 L162 700 L129 700 L129 0 L162 0 L162 335 L1143 335 L1143 0 Z M805 946 L783 946 L651 799 L520 946 L499 946 L628 775 L674 775 L805 946 Z " />
<glyph glyph-name="uni021F" unicode="&#x21f;" horiz-adv-x="1129" d="M978 0 L1010 0 L1010 560 L978 560 L978 294 L151 294 L151 560 L119 560 L119 0 L151 0 L151 266 L978 266 L978 0 Z M717 806 L695 806 L563 659 L432 806 L411 806 L540 635 L586 635 L717 806 Z " />
<glyph glyph-name="uni0226" unicode="&#x226;" horiz-adv-x="1258" d="M1200 0 L1241 0 L648 700 L611 700 L17 0 L58 0 L188 154 L1069 154 L1200 0 Z M629 674 L1045 183 L213 183 L629 674 Z M604 836 L654 836 L654 885 L604 885 L604 836 Z " />
<glyph glyph-name="uni0227" unicode="&#x227;" horiz-adv-x="1078" d="M1020 0 L1060 0 L557 560 L521 560 L18 0 L58 0 L171 126 L906 126 L1020 0 Z M539 535 L881 154 L196 154 L539 535 Z M514 696 L564 696 L564 745 L514 745 L514 696 Z " />
<glyph glyph-name="uni0228" unicode="&#x228;" horiz-adv-x="1199" d="M129 0 L599 0 L574 -88 L588 -88 C662 -88 704 -104 704 -154 C704 -239 552 -223 505 -201 L505 -219 C576 -253 733 -260 733 -154 C733 -82 670 -68 604 -68 L598 -68 L617 0 L1112 0 L1112 30 L162 30 L162 336 L1010 336 L1010 364 L162 364 L162 670 L1112 670 L1112 700 L129 700 L129 0 Z " />
<glyph glyph-name="uni0229" unicode="&#x229;" horiz-adv-x="1035" d="M119 0 L519 0 L494 -88 L508 -88 C582 -88 624 -104 624 -154 C624 -239 472 -223 425 -201 L425 -219 C496 -253 653 -260 653 -154 C653 -82 590 -68 524 -68 L518 -68 L537 0 L955 0 L955 28 L151 28 L151 267 L868 267 L868 293 L151 293 L151 532 L955 532 L955 560 L119 560 L119 0 Z " />
<glyph glyph-name="uni022A" unicode="&#x22a;" horiz-adv-x="1348" d="M770 836 L820 836 L820 885 L770 885 L770 836 Z M528 836 L578 836 L578 885 L528 885 L528 836 Z M503 997 L844 997 L844 1021 L503 1021 L503 997 Z M812 -10 C1138 -10 1266 151 1266 350 C1266 549 1138 710 812 710 L536 710 C210 710 82 549 82 350 C82 151 210 -10 536 -10 L812 -10 Z M537 20 C232 20 117 167 117 350 C117 533 232 680 537 680 L811 680 C1116 680 1231 533 1231 350 C1231 167 1116 20 811 20 L537 20 Z " />
<glyph glyph-name="uni022B" unicode="&#x22b;" horiz-adv-x="1157" d="M675 696 L725 696 L725 745 L675 745 L675 696 Z M433 696 L483 696 L483 745 L433 745 L433 696 Z M408 857 L749 857 L749 881 L408 881 L408 857 Z M704 -8 C981 -8 1082 121 1082 280 C1082 439 981 568 704 568 L453 568 C176 568 75 439 75 280 C75 121 176 -8 453 -8 L704 -8 Z M454 20 C197 20 108 136 108 280 C108 424 197 540 454 540 L703 540 C960 540 1049 424 1049 280 C1049 136 960 20 703 20 L454 20 Z " />
<glyph glyph-name="uni022C" unicode="&#x22c;" horiz-adv-x="1348" d="M819 921 C810 847 784 838 753 838 C700 838 660 912 595 912 C552 912 521 890 510 800 L529 800 C538 874 564 884 595 884 C648 884 688 810 753 810 C796 810 828 831 838 921 L819 921 Z M503 1008 L844 1008 L844 1032 L503 1032 L503 1008 Z M812 -10 C1138 -10 1266 151 1266 350 C1266 549 1138 710 812 710 L536 710 C210 710 82 549 82 350 C82 151 210 -10 536 -10 L812 -10 Z M537 20 C232 20 117 167 117 350 C117 533 232 680 537 680 L811 680 C1116 680 1231 533 1231 350 C1231 167 1116 20 811 20 L537 20 Z " />
<glyph glyph-name="uni022D" unicode="&#x22d;" horiz-adv-x="1157" d="M724 781 C715 707 689 698 658 698 C605 698 565 772 500 772 C457 772 426 750 415 660 L434 660 C443 734 469 744 500 744 C553 744 593 670 658 670 C701 670 733 691 743 781 L724 781 Z M408 868 L749 868 L749 892 L408 892 L408 868 Z M704 -8 C981 -8 1082 121 1082 280 C1082 439 981 568 704 568 L453 568 C176 568 75 439 75 280 C75 121 176 -8 453 -8 L704 -8 Z M454 20 C197 20 108 136 108 280 C108 424 197 540 454 540 L703 540 C960 540 1049 424 1049 280 C1049 136 960 20 703 20 L454 20 Z " />
<glyph glyph-name="uni022E" unicode="&#x22e;" horiz-adv-x="1348" d="M812 -10 C1138 -10 1266 151 1266 350 C1266 549 1138 710 812 710 L536 710 C210 710 82 549 82 350 C82 151 210 -10 536 -10 L812 -10 Z M537 20 C232 20 117 167 117 350 C117 533 232 680 537 680 L811 680 C1116 680 1231 533 1231 350 C1231 167 1116 20 811 20 L537 20 Z M649 836 L699 836 L699 885 L649 885 L649 836 Z " />
<glyph glyph-name="uni022F" unicode="&#x22f;" horiz-adv-x="1157" d="M704 -8 C981 -8 1082 121 1082 280 C1082 439 981 568 704 568 L453 568 C176 568 75 439 75 280 C75 121 176 -8 453 -8 L704 -8 Z M454 20 C197 20 108 136 108 280 C108 424 197 540 454 540 L703 540 C960 540 1049 424 1049 280 C1049 136 960 20 703 20 L454 20 Z M553 696 L603 696 L603 745 L553 745 L553 696 Z " />
<glyph glyph-name="uni0230" unicode="&#x230;" horiz-adv-x="1348" d="M649 836 L699 836 L699 885 L649 885 L649 836 Z M503 997 L844 997 L844 1021 L503 1021 L503 997 Z M812 -10 C1138 -10 1266 151 1266 350 C1266 549 1138 710 812 710 L536 710 C210 710 82 549 82 350 C82 151 210 -10 536 -10 L812 -10 Z M537 20 C232 20 117 167 117 350 C117 533 232 680 537 680 L811 680 C1116 680 1231 533 1231 350 C1231 167 1116 20 811 20 L537 20 Z " />
<glyph glyph-name="uni0231" unicode="&#x231;" horiz-adv-x="1157" d="M554 696 L604 696 L604 745 L554 745 L554 696 Z M408 857 L749 857 L749 881 L408 881 L408 857 Z M704 -8 C981 -8 1082 121 1082 280 C1082 439 981 568 704 568 L453 568 C176 568 75 439 75 280 C75 121 176 -8 453 -8 L704 -8 Z M454 20 C197 20 108 136 108 280 C108 424 197 540 454 540 L703 540 C960 540 1049 424 1049 280 C1049 136 960 20 703 20 L454 20 Z " />
<glyph glyph-name="uni0232" unicode="&#x232;" horiz-adv-x="1241" d="M604 0 L637 0 L637 211 L1234 700 L1184 700 L621 236 L57 700 L7 700 L604 211 L604 0 Z M450 848 L791 848 L791 872 L450 872 L450 848 Z " />
<glyph glyph-name="uni0233" unicode="&#x233;" horiz-adv-x="1058" d="M514 0 L545 0 L545 169 L1051 560 L1004 560 L529 194 L54 560 L7 560 L514 169 L514 0 Z M358 708 L699 708 L699 732 L358 732 L358 708 Z " />
<glyph glyph-name="uni0237" unicode="&#x237;" horiz-adv-x="1044" d="M335 -4 L595 -4 C865 -4 945 106 945 260 L945 560 L913 560 L913 260 C913 122 842 24 595 24 L336 24 C141 24 81 112 81 220 L81 251 L49 251 L49 220 C49 97 119 -4 335 -4 L335 -4 Z " />
<glyph glyph-name="uni0256" unicode="&#x256;" horiz-adv-x="1082" d="M-1 267 L119 267 L119 0 L640 0 C910 0 1007 126 1007 280 C1007 434 910 560 640 560 L119 560 L119 293 L-1 293 L-1 267 Z M640 532 C889 532 974 419 974 280 C974 141 889 28 640 28 L151 28 L151 267 L559 267 L559 293 L151 293 L151 532 L640 532 Z " />
<glyph glyph-name="uni02BB" unicode="&#x2bb;" horiz-adv-x="258" d="M154 615 L128 615 L152 700 L133 700 L104 614 L104 564 L154 564 L154 615 Z " />
<glyph glyph-name="uni02BC" unicode="&#x2bc;" horiz-adv-x="258" d="M104 649 L130 649 L106 564 L125 564 L154 650 L154 700 L104 700 L104 649 Z " />
<glyph glyph-name="uni02BD" unicode="&#x2bd;" horiz-adv-x="258" d="M154 700 L104 700 L104 650 L133 564 L152 564 L128 649 L154 649 L154 700 Z " />
<glyph glyph-name="circumflex" unicode="&#x2c6;" horiz-adv-x="500" d="M272 806 L226 806 L97 635 L118 635 L249 782 L381 635 L403 635 L272 806 Z " />
<glyph glyph-name="caron" unicode="&#x2c7;" horiz-adv-x="500" d="M403 806 L381 806 L249 659 L118 806 L97 806 L226 635 L272 635 L403 806 Z " />
<glyph glyph-name="uni02C9" unicode="&#x2c9;" horiz-adv-x="500" d="M79 708 L420 708 L420 732 L79 732 L79 708 Z " />
<glyph glyph-name="uni02CA" unicode="&#x2ca;" horiz-adv-x="500" d="M200 635 L221 635 L361 806 L316 806 L200 635 Z " />
<glyph glyph-name="uni02CB" unicode="&#x2cb;" horiz-adv-x="500" d="M183 806 L138 806 L278 635 L299 635 L183 806 Z " />
<glyph glyph-name="uni02CD" unicode="&#x2cd;" horiz-adv-x="500" d="M79 -173 L420 -173 L420 -149 L79 -149 L79 -173 Z " />
<glyph glyph-name="uni02CE" unicode="&#x2ce;" horiz-adv-x="500" d="M183 -75 L138 -75 L278 -246 L299 -246 L183 -75 Z " />
<glyph glyph-name="uni02CF" unicode="&#x2cf;" horiz-adv-x="500" d="M200 -246 L221 -246 L361 -75 L316 -75 L200 -246 Z " />
<glyph glyph-name="breve" unicode="&#x2d8;" horiz-adv-x="500" d="M250 680 C157 680 124 731 120 788 L99 788 C105 722 142 653 250 653 C357 653 394 722 400 788 L380 788 C374 731 343 680 250 680 L250 680 Z " />
<glyph glyph-name="dotaccent" unicode="&#x2d9;" horiz-adv-x="500" d="M225 696 L275 696 L275 745 L225 745 L225 696 Z " />
<glyph glyph-name="ring" unicode="&#x2da;" horiz-adv-x="500" d="M168 721 C168 766 204 803 250 803 C296 803 332 766 332 721 C332 675 296 639 250 639 C204 639 168 675 168 721 L168 721 Z M356 721 C356 780 310 826 250 826 C191 826 144 780 144 721 C144 662 191 615 250 615 C310 615 356 662 356 721 L356 721 Z " />
<glyph glyph-name="ogonek" unicode="&#x2db;" horiz-adv-x="500" d="M187 -154 C187 -205 226 -233 287 -233 C321 -233 350 -226 386 -209 L386 -192 C349 -208 323 -212 295 -212 C250 -212 217 -189 217 -148 C217 -77 293 -27 377 0 L345 0 C273 -20 187 -79 187 -154 L187 -154 Z " />
<glyph glyph-name="tilde" unicode="&#x2dc;" horiz-adv-x="500" d="M395 781 C386 707 360 698 329 698 C276 698 236 772 171 772 C128 772 97 750 86 660 L105 660 C114 734 140 744 171 744 C224 744 264 670 329 670 C372 670 404 691 414 781 L395 781 Z " />
<glyph glyph-name="hungarumlaut" unicode="&#x2dd;" horiz-adv-x="500" d="M296 635 L317 635 L457 806 L411 806 L296 635 Z M105 635 L126 635 L266 806 L221 806 L105 635 Z " />
<glyph glyph-name="uni02EC" unicode="&#x2ec;" horiz-adv-x="500" d="M403 -75 L381 -75 L249 -222 L118 -75 L97 -75 L226 -246 L272 -246 L403 -75 Z " />
<glyph glyph-name="uni02EE" unicode="&#x2ee;" horiz-adv-x="437" d="M283 649 L309 649 L285 564 L304 564 L333 650 L333 700 L283 700 L283 649 Z M104 649 L130 649 L106 564 L125 564 L154 650 L154 700 L104 700 L104 649 Z " />
<glyph glyph-name="gravecomb" unicode="&#x300;" d="M-646 806 L-691 806 L-551 635 L-530 635 L-646 806 Z " />
<glyph glyph-name="acutecomb" unicode="&#x301;" d="M-629 635 L-608 635 L-468 806 L-513 806 L-629 635 Z " />
<glyph glyph-name="uni0302" unicode="&#x302;" d="M-558 806 L-604 806 L-733 635 L-712 635 L-581 782 L-449 635 L-427 635 L-558 806 Z " />
<glyph glyph-name="tildecomb" unicode="&#x303;" d="M-434 781 C-443 707 -469 698 -500 698 C-553 698 -593 772 -658 772 C-701 772 -732 750 -743 660 L-724 660 C-715 734 -689 744 -658 744 C-605 744 -565 670 -500 670 C-457 670 -425 691 -415 781 L-434 781 Z " />
<glyph glyph-name="uni0304" unicode="&#x304;" d="M-750 708 L-409 708 L-409 732 L-750 732 L-750 708 Z " />
<glyph glyph-name="uni0306" unicode="&#x306;" d="M-579 680 C-672 680 -705 731 -709 788 L-730 788 C-724 722 -687 653 -579 653 C-472 653 -435 722 -429 788 L-449 788 C-455 731 -486 680 -579 680 L-579 680 Z " />
<glyph glyph-name="uni0307" unicode="&#x307;" d="M-605 696 L-555 696 L-555 745 L-605 745 L-605 696 Z " />
<glyph glyph-name="uni0308" unicode="&#x308;" d="M-484 696 L-434 696 L-434 745 L-484 745 L-484 696 Z M-726 696 L-676 696 L-676 745 L-726 745 L-726 696 Z " />
<glyph glyph-name="hookabovecomb" unicode="&#x309;" d="M-616 645 L-592 645 L-592 679 L-585 679 C-521 679 -449 690 -449 762 C-449 828 -511 845 -576 845 C-619 845 -662 837 -689 825 L-689 806 C-664 815 -626 822 -587 822 C-532 822 -479 813 -479 761 C-479 709 -524 697 -602 697 L-616 697 L-616 645 Z " />
<glyph glyph-name="uni030A" unicode="&#x30a;" d="M-662 721 C-662 766 -626 803 -580 803 C-534 803 -498 766 -498 721 C-498 675 -534 639 -580 639 C-626 639 -662 675 -662 721 L-662 721 Z M-474 721 C-474 780 -520 826 -580 826 C-639 826 -686 780 -686 721 C-686 662 -639 615 -580 615 C-520 615 -474 662 -474 721 L-474 721 Z " />
<glyph glyph-name="uni030B" unicode="&#x30b;" d="M-534 635 L-513 635 L-373 806 L-419 806 L-534 635 Z M-725 635 L-704 635 L-564 806 L-609 806 L-725 635 Z " />
<glyph glyph-name="uni030C" unicode="&#x30c;" d="M-427 806 L-449 806 L-581 659 L-712 806 L-733 806 L-604 635 L-558 635 L-427 806 Z " />
<glyph glyph-name="uni030F" unicode="&#x30f;" d="M-741 806 L-787 806 L-647 635 L-626 635 L-741 806 Z M-551 806 L-596 806 L-456 635 L-435 635 L-551 806 Z " />
<glyph glyph-name="uni0311" unicode="&#x311;" d="M-579 761 C-486 761 -455 710 -449 653 L-429 653 C-435 719 -472 788 -579 788 C-687 788 -724 719 -730 653 L-709 653 C-705 710 -672 761 -579 761 L-579 761 Z " />
<glyph glyph-name="uni0312" unicode="&#x312;" d="M-555 615 L-581 615 L-557 700 L-576 700 L-605 614 L-605 564 L-555 564 L-555 615 Z " />
<glyph glyph-name="uni0313" unicode="&#x313;" d="M-605 649 L-579 649 L-603 564 L-584 564 L-555 650 L-555 700 L-605 700 L-605 649 Z " />
<glyph glyph-name="uni0314" unicode="&#x314;" d="M-555 700 L-605 700 L-605 650 L-576 564 L-557 564 L-581 649 L-555 649 L-555 700 Z " />
<glyph glyph-name="uni0316" unicode="&#x316;" d="M-646 -75 L-691 -75 L-551 -246 L-530 -246 L-646 -75 Z " />
<glyph glyph-name="uni0317" unicode="&#x317;" d="M-629 -246 L-608 -246 L-468 -75 L-513 -75 L-629 -246 Z " />
<glyph glyph-name="uni031B" unicode="&#x31b;" d="M-123 535 L-1 535 C92 535 152 555 152 641 C152 655 151 669 148 686 L116 686 C119 670 120 657 120 644 C120 575 75 560 -5 560 L-123 560 L-123 535 Z " />
<glyph glyph-name="uni031C" unicode="&#x31c;" d="M-542 -55 C-601 -55 -648 -101 -648 -160 C-648 -219 -601 -266 -542 -266 L-542 -242 C-588 -242 -624 -206 -624 -160 C-624 -115 -588 -78 -542 -78 L-542 -55 Z " />
<glyph glyph-name="dotbelowcomb" unicode="&#x323;" d="M-605 -185 L-555 -185 L-555 -136 L-605 -136 L-605 -185 Z " />
<glyph glyph-name="uni0324" unicode="&#x324;" d="M-484 -185 L-434 -185 L-434 -136 L-484 -136 L-484 -185 Z M-726 -185 L-676 -185 L-676 -136 L-726 -136 L-726 -185 Z " />
<glyph glyph-name="uni0325" unicode="&#x325;" d="M-662 -160 C-662 -115 -626 -78 -580 -78 C-534 -78 -498 -115 -498 -160 C-498 -206 -534 -242 -580 -242 C-626 -242 -662 -206 -662 -160 L-662 -160 Z M-474 -160 C-474 -101 -520 -55 -580 -55 C-639 -55 -686 -101 -686 -160 C-686 -219 -639 -266 -580 -266 C-520 -266 -474 -219 -474 -160 L-474 -160 Z " />
<glyph glyph-name="uni0326" unicode="&#x326;" d="M-605 -185 L-579 -185 L-603 -268 L-584 -268 L-555 -184 L-555 -136 L-605 -136 L-605 -185 Z " />
<glyph glyph-name="uni0327" unicode="&#x327;" d="M-615 -88 L-601 -88 C-527 -88 -485 -104 -485 -154 C-485 -239 -637 -223 -684 -201 L-684 -219 C-613 -253 -456 -260 -456 -154 C-456 -82 -519 -68 -585 -68 L-591 -68 L-572 0 L-590 0 L-615 -88 Z " />
<glyph glyph-name="uni0328" unicode="&#x328;" d="M-643 -154 C-643 -205 -604 -233 -543 -233 C-509 -233 -480 -226 -444 -209 L-444 -192 C-481 -208 -507 -212 -535 -212 C-580 -212 -613 -189 -613 -148 C-613 -77 -537 -27 -453 0 L-485 0 C-557 -20 -643 -79 -643 -154 L-643 -154 Z " />
<glyph glyph-name="uni032C" unicode="&#x32c;" d="M-427 -75 L-449 -75 L-581 -222 L-712 -75 L-733 -75 L-604 -246 L-558 -246 L-427 -75 Z " />
<glyph glyph-name="uni032D" unicode="&#x32d;" d="M-558 -75 L-604 -75 L-733 -246 L-712 -246 L-581 -99 L-449 -246 L-427 -246 L-558 -75 Z " />
<glyph glyph-name="uni032E" unicode="&#x32e;" d="M-579 -201 C-672 -201 -705 -150 -709 -93 L-730 -93 C-724 -159 -687 -228 -579 -228 C-472 -228 -435 -159 -429 -93 L-449 -93 C-455 -150 -486 -201 -579 -201 L-579 -201 Z " />
<glyph glyph-name="uni032F" unicode="&#x32f;" d="M-579 -120 C-486 -120 -455 -171 -449 -228 L-429 -228 C-435 -162 -472 -93 -579 -93 C-687 -93 -724 -162 -730 -228 L-709 -228 C-705 -171 -672 -120 -579 -120 L-579 -120 Z " />
<glyph glyph-name="uni0330" unicode="&#x330;" d="M-434 -100 C-443 -174 -469 -183 -500 -183 C-553 -183 -593 -109 -658 -109 C-701 -109 -732 -131 -743 -221 L-724 -221 C-715 -147 -689 -137 -658 -137 C-605 -137 -565 -211 -500 -211 C-457 -211 -425 -190 -415 -100 L-434 -100 Z " />
<glyph glyph-name="uni0331" unicode="&#x331;" d="M-750 -173 L-409 -173 L-409 -149 L-750 -149 L-750 -173 Z " />
<glyph glyph-name="uni0338" unicode="&#x338;" d="M-846 -75 L-815 -75 L-313 775 L-344 775 L-846 -75 Z " />
<glyph glyph-name="uni0339" unicode="&#x339;" d="M-618 -78 C-572 -78 -536 -115 -536 -160 C-536 -206 -572 -242 -618 -242 L-618 -266 C-559 -266 -512 -219 -512 -160 C-512 -101 -559 -55 -618 -55 L-618 -78 Z " />
<glyph glyph-name="uni0340" unicode="&#x340;" d="M-646 806 L-691 806 L-551 635 L-530 635 L-646 806 Z " />
<glyph glyph-name="uni0341" unicode="&#x341;" d="M-629 635 L-608 635 L-468 806 L-513 806 L-629 635 Z " />
<glyph glyph-name="uni0343" unicode="&#x343;" d="M-605 649 L-579 649 L-603 564 L-584 564 L-555 650 L-555 700 L-605 700 L-605 649 Z " />
<glyph glyph-name="uni0344" unicode="&#x344;" d="M-467 696 L-418 696 L-418 745 L-467 745 L-467 696 Z M-742 696 L-693 696 L-693 745 L-742 745 L-742 696 Z M-588 635 L-574 635 L-560 835 L-600 835 L-588 635 Z " />
<glyph glyph-name="uni034F" unicode="&#x34f;" d="" />
<glyph glyph-name="uni0351" unicode="&#x351;" d="M-542 826 C-601 826 -648 780 -648 721 C-648 662 -601 615 -542 615 L-542 639 C-588 639 -624 675 -624 721 C-624 766 -588 803 -542 803 L-542 826 Z " />
<glyph glyph-name="uni0357" unicode="&#x357;" d="M-618 803 C-572 803 -536 766 -536 721 C-536 675 -572 639 -618 639 L-618 615 C-559 615 -512 662 -512 721 C-512 780 -559 826 -618 826 L-618 803 Z " />
<glyph glyph-name="uni0374" unicode="&#x374;" horiz-adv-x="259" d="M116 400 L137 400 L202 700 L159 700 L116 400 Z " />
<glyph glyph-name="uni0375" unicode="&#x375;" horiz-adv-x="259" d="M116 -100 L137 -100 L202 200 L159 200 L116 -100 Z " />
<glyph glyph-name="uni037E" unicode="&#x37e;" horiz-adv-x="258" d="M104 0 L130 0 L106 -85 L125 -85 L154 1 L154 51 L104 51 L104 0 Z M104 509 L154 509 L154 560 L104 560 L104 509 Z " />
<glyph glyph-name="tonos" unicode="&#x384;" horiz-adv-x="500" d="M241 635 L257 635 L272 835 L228 835 L241 635 Z " />
<glyph glyph-name="dieresistonos" unicode="&#x385;" horiz-adv-x="500" d="M363 696 L412 696 L412 745 L363 745 L363 696 Z M88 696 L137 696 L137 745 L88 745 L88 696 Z M242 635 L256 635 L270 835 L230 835 L242 635 Z " />
<glyph glyph-name="Alphatonos" unicode="&#x386;" horiz-adv-x="1258" d="M1200 0 L1241 0 L648 700 L611 700 L17 0 L58 0 L188 154 L1069 154 L1200 0 Z M629 674 L1045 183 L213 183 L629 674 Z M172 500 L188 500 L203 700 L159 700 L172 500 Z " />
<glyph glyph-name="anoteleia" unicode="&#x387;" horiz-adv-x="258" d="M104 255 L154 255 L154 304 L104 304 L104 255 Z " />
<glyph glyph-name="Epsilontonos" unicode="&#x388;" horiz-adv-x="1341" d="M62 500 L78 500 L93 700 L49 700 L62 500 Z M271 0 L1254 0 L1254 30 L304 30 L304 336 L1152 336 L1152 364 L304 364 L304 670 L1254 670 L1254 700 L271 700 L271 0 Z " />
<glyph glyph-name="Etatonos" unicode="&#x389;" horiz-adv-x="1447" d="M62 500 L78 500 L93 700 L49 700 L62 500 Z M1285 0 L1318 0 L1318 700 L1285 700 L1285 365 L304 365 L304 700 L271 700 L271 0 L304 0 L304 335 L1285 335 L1285 0 Z " />
<glyph glyph-name="Iotatonos" unicode="&#x38a;" horiz-adv-x="433" d="M62 500 L78 500 L93 700 L49 700 L62 500 Z M271 0 L304 0 L304 700 L271 700 L271 0 Z " />
<glyph glyph-name="Omicrontonos" unicode="&#x38c;" horiz-adv-x="1464" d="M62 500 L78 500 L93 700 L49 700 L62 500 Z M928 -10 C1254 -10 1382 151 1382 350 C1382 549 1254 710 928 710 L652 710 C326 710 198 549 198 350 C198 151 326 -10 652 -10 L928 -10 Z M653 20 C348 20 233 167 233 350 C233 533 348 680 653 680 L927 680 C1232 680 1347 533 1347 350 C1347 167 1232 20 927 20 L653 20 Z " />
<glyph glyph-name="Upsilontonos" unicode="&#x38e;" horiz-adv-x="1386" d="M62 500 L78 500 L93 700 L49 700 L62 500 Z M749 0 L782 0 L782 211 L1379 700 L1329 700 L766 236 L202 700 L152 700 L749 211 L749 0 Z " />
<glyph glyph-name="Omegatonos" unicode="&#x38f;" horiz-adv-x="1458" d="M62 500 L78 500 L93 700 L49 700 L62 500 Z M960 0 L1382 0 L1382 30 L1059 30 C1267 97 1352 241 1352 390 C1352 567 1238 710 948 710 L612 710 C322 710 208 567 208 390 C208 241 291 97 499 30 L178 30 L178 0 L600 0 L600 27 C341 78 239 226 239 385 C239 548 342 680 614 680 L946 680 C1218 680 1321 548 1321 385 C1321 227 1219 78 960 27 L960 0 Z " />
<glyph glyph-name="iotadieresistonos" unicode="&#x390;" horiz-adv-x="270" d="M248 696 L297 696 L297 745 L248 745 L248 696 Z M-27 696 L22 696 L22 745 L-27 745 L-27 696 Z M127 635 L141 635 L155 835 L115 835 L127 635 Z M119 0 L151 0 L151 560 L119 560 L119 0 Z " />
<glyph glyph-name="Alpha" unicode="&#x391;" horiz-adv-x="1258" d="M1200 0 L1241 0 L648 700 L611 700 L17 0 L58 0 L188 154 L1069 154 L1200 0 Z M629 674 L1045 183 L213 183 L629 674 Z " />
<glyph glyph-name="Beta" unicode="&#x392;" horiz-adv-x="1259" d="M129 0 L943 0 C1109 0 1172 79 1172 180 C1172 267 1123 341 999 357 C1086 380 1122 446 1122 522 C1122 621 1059 700 894 700 L129 700 L129 0 Z M938 336 C1084 336 1137 267 1137 183 C1137 97 1084 30 938 30 L162 30 L162 336 L938 336 Z M1088 517 C1088 433 1037 364 899 364 L162 364 L162 670 L889 670 C1031 670 1088 602 1088 517 L1088 517 Z " />
<glyph glyph-name="Gamma" unicode="&#x393;" horiz-adv-x="1129" d="M129 0 L162 0 L162 670 L1092 670 L1092 700 L129 700 L129 0 Z " />
<glyph glyph-name="Delta" unicode="&#x394;" horiz-adv-x="1258" d="M648 700 L611 700 L17 0 L1241 0 L648 700 Z M629 676 L1178 30 L81 30 L629 676 Z " />
<glyph glyph-name="Epsilon" unicode="&#x395;" horiz-adv-x="1199" d="M129 0 L1112 0 L1112 30 L162 30 L162 336 L1010 336 L1010 364 L162 364 L162 670 L1112 670 L1112 700 L129 700 L129 0 Z " />
<glyph glyph-name="Zeta" unicode="&#x396;" horiz-adv-x="1190" d="M79 0 L1121 0 L1121 30 L137 30 L1101 675 L1101 700 L89 700 L89 670 L1042 670 L79 25 L79 0 Z " />
<glyph glyph-name="Eta" unicode="&#x397;" horiz-adv-x="1305" d="M1143 0 L1176 0 L1176 700 L1143 700 L1143 365 L162 365 L162 700 L129 700 L129 0 L162 0 L162 335 L1143 335 L1143 0 Z " />
<glyph glyph-name="Theta" unicode="&#x398;" horiz-adv-x="1348" d="M304 336 L1044 336 L1044 364 L304 364 L304 336 Z M812 -10 C1138 -10 1266 151 1266 350 C1266 549 1138 710 812 710 L536 710 C210 710 82 549 82 350 C82 151 210 -10 536 -10 L812 -10 Z M537 20 C232 20 117 167 117 350 C117 533 232 680 537 680 L811 680 C1116 680 1231 533 1231 350 C1231 167 1116 20 811 20 L537 20 Z " />
<glyph glyph-name="Iota" unicode="&#x399;" horiz-adv-x="291" d="M129 0 L162 0 L162 700 L129 700 L129 0 Z " />
<glyph glyph-name="Kappa" unicode="&#x39a;" horiz-adv-x="1281" d="M1178 700 L1117 700 L162 181 L162 700 L129 700 L129 0 L162 0 L162 147 L541 353 L1206 0 L1269 0 L573 371 L1178 700 Z " />
<glyph glyph-name="Lambda" unicode="&#x39b;" horiz-adv-x="1258" d="M611 700 L17 0 L59 0 L629 674 L1200 0 L1241 0 L648 700 L611 700 Z " />
<glyph glyph-name="Mu" unicode="&#x39c;" horiz-adv-x="1443" d="M1283 700 L721 81 L160 700 L129 700 L129 0 L162 0 L162 654 L721 37 L1281 654 L1281 0 L1314 0 L1314 700 L1283 700 Z " />
<glyph glyph-name="Nu" unicode="&#x39d;" horiz-adv-x="1303" d="M1141 39 L160 700 L129 700 L129 0 L162 0 L162 661 L1143 0 L1174 0 L1174 700 L1141 700 L1141 39 Z " />
<glyph glyph-name="Xi" unicode="&#x39e;" horiz-adv-x="1207" d="M87 670 L1120 670 L1120 700 L87 700 L87 670 Z M1120 30 L87 30 L87 0 L1120 0 L1120 30 Z M179 336 L1028 336 L1028 364 L179 364 L179 336 Z " />
<glyph glyph-name="Omicron" unicode="&#x39f;" horiz-adv-x="1348" d="M812 -10 C1138 -10 1266 151 1266 350 C1266 549 1138 710 812 710 L536 710 C210 710 82 549 82 350 C82 151 210 -10 536 -10 L812 -10 Z M537 20 C232 20 117 167 117 350 C117 533 232 680 537 680 L811 680 C1116 680 1231 533 1231 350 C1231 167 1116 20 811 20 L537 20 Z " />
<glyph glyph-name="Pi" unicode="&#x3a0;" horiz-adv-x="1305" d="M1143 0 L1176 0 L1176 700 L129 700 L129 0 L162 0 L162 670 L1143 670 L1143 0 Z " />
<glyph glyph-name="Rho" unicode="&#x3a1;" horiz-adv-x="1196" d="M129 0 L162 0 L162 295 L901 295 C1086 295 1157 383 1157 498 C1157 609 1086 700 901 700 L129 700 L129 0 Z M900 670 C1063 670 1123 592 1123 498 C1123 400 1063 325 900 325 L162 325 L162 670 L900 670 Z " />
<glyph glyph-name="Sigma" unicode="&#x3a3;" horiz-adv-x="1177" d="M87 673 L620 350 L87 27 L87 0 L1090 0 L1090 30 L148 30 L676 350 L148 670 L1090 670 L1090 700 L87 700 L87 673 Z " />
<glyph glyph-name="Tau" unicode="&#x3a4;" horiz-adv-x="1184" d="M37 670 L576 670 L576 0 L608 0 L608 670 L1147 670 L1147 700 L37 700 L37 670 Z " />
<glyph glyph-name="Upsilon" unicode="&#x3a5;" horiz-adv-x="1241" d="M604 0 L637 0 L637 211 L1234 700 L1184 700 L621 236 L57 700 L7 700 L604 211 L604 0 Z " />
<glyph glyph-name="Phi" unicode="&#x3a6;" horiz-adv-x="1305" d="M877 62 C1141 62 1242 188 1242 350 C1242 508 1141 638 877 638 L668 638 L668 750 L636 750 L636 638 L428 638 C164 638 63 508 63 350 C63 188 164 62 428 62 L636 62 L636 -50 L668 -50 L668 62 L877 62 Z M876 608 C1119 608 1207 492 1207 350 C1207 205 1119 92 876 92 L668 92 L668 608 L876 608 Z M98 350 C98 492 186 608 429 608 L636 608 L636 92 L429 92 C186 92 98 205 98 350 L98 350 Z " />
<glyph glyph-name="Chi" unicode="&#x3a7;" horiz-adv-x="1228" d="M31 700 L586 351 L26 0 L83 0 L614 334 L1145 0 L1202 0 L642 351 L1197 700 L1140 700 L614 368 L88 700 L31 700 Z " />
<glyph glyph-name="Psi" unicode="&#x3a8;" horiz-adv-x="1296" d="M632 0 L664 0 L664 159 L806 159 C1123 159 1227 296 1227 489 L1227 700 L1194 700 L1194 489 C1194 313 1100 189 805 189 L664 189 L664 700 L632 700 L632 189 L491 189 C196 189 102 313 102 489 L102 700 L69 700 L69 489 C69 296 173 159 490 159 L632 159 L632 0 Z " />
<glyph glyph-name="Omega" unicode="&#x3a9;" horiz-adv-x="1356" d="M858 0 L1280 0 L1280 30 L957 30 C1165 97 1250 241 1250 390 C1250 567 1136 710 846 710 L510 710 C220 710 106 567 106 390 C106 241 189 97 397 30 L76 30 L76 0 L498 0 L498 27 C239 78 137 226 137 385 C137 548 240 680 512 680 L844 680 C1116 680 1219 548 1219 385 C1219 227 1117 78 858 27 L858 0 Z " />
<glyph glyph-name="Iotadieresis" unicode="&#x3aa;" horiz-adv-x="291" d="M129 0 L162 0 L162 700 L129 700 L129 0 Z M242 836 L292 836 L292 885 L242 885 L242 836 Z M0 836 L50 836 L50 885 L0 885 L0 836 Z " />
<glyph glyph-name="Upsilondieresis" unicode="&#x3ab;" horiz-adv-x="1241" d="M604 0 L637 0 L637 211 L1234 700 L1184 700 L621 236 L57 700 L7 700 L604 211 L604 0 Z M718 836 L768 836 L768 885 L718 885 L718 836 Z M476 836 L526 836 L526 885 L476 885 L476 836 Z " />
<glyph glyph-name="alphatonos" unicode="&#x3ac;" horiz-adv-x="1078" d="M1020 0 L1060 0 L557 560 L521 560 L18 0 L58 0 L171 126 L906 126 L1020 0 Z M539 535 L881 154 L196 154 L539 535 Z M132 360 L148 360 L163 560 L119 560 L132 360 Z " />
<glyph glyph-name="epsilontonos" unicode="&#x3ad;" horiz-adv-x="1177" d="M62 360 L78 360 L93 560 L49 560 L62 360 Z M261 0 L1097 0 L1097 28 L293 28 L293 267 L1010 267 L1010 293 L293 293 L293 532 L1097 532 L1097 560 L261 560 L261 0 Z " />
<glyph glyph-name="etatonos" unicode="&#x3ae;" horiz-adv-x="1271" d="M62 360 L78 360 L93 560 L49 560 L62 360 Z M1120 0 L1152 0 L1152 560 L1120 560 L1120 294 L293 294 L293 560 L261 560 L261 0 L293 0 L293 266 L1120 266 L1120 0 Z " />
<glyph glyph-name="iotatonos" unicode="&#x3af;" horiz-adv-x="412" d="M62 360 L78 360 L93 560 L49 560 L62 360 Z M261 0 L293 0 L293 560 L261 560 L261 0 Z " />
<glyph glyph-name="upsilondieresistonos" unicode="&#x3b0;" horiz-adv-x="1058" d="M643 696 L692 696 L692 745 L643 745 L643 696 Z M368 696 L417 696 L417 745 L368 745 L368 696 Z M522 635 L536 635 L550 835 L510 835 L522 635 Z M514 0 L545 0 L545 169 L1051 560 L1004 560 L529 194 L54 560 L7 560 L514 169 L514 0 Z " />
<glyph glyph-name="alpha" unicode="&#x3b1;" horiz-adv-x="1078" d="M1020 0 L1060 0 L557 560 L521 560 L18 0 L58 0 L171 126 L906 126 L1020 0 Z M539 535 L881 154 L196 154 L539 535 Z " />
<glyph glyph-name="beta" unicode="&#x3b2;" horiz-adv-x="1085" d="M119 0 L817 0 C959 0 1006 63 1006 144 C1006 214 970 273 865 286 C939 305 964 356 964 418 C964 497 916 560 776 560 L119 560 L119 0 Z M812 267 C935 267 972 213 972 147 C972 81 935 28 812 28 L151 28 L151 267 L812 267 Z M778 293 L151 293 L151 532 L770 532 C889 532 931 478 931 413 C931 347 894 293 778 293 L778 293 Z " />
<glyph glyph-name="gamma" unicode="&#x3b3;" horiz-adv-x="988" d="M119 0 L151 0 L151 532 L938 532 L938 560 L119 560 L119 0 Z " />
<glyph glyph-name="delta" unicode="&#x3b4;" horiz-adv-x="1078" d="M557 560 L521 560 L18 0 L1060 0 L557 560 Z M539 536 L1000 28 L79 28 L539 536 Z " />
<glyph glyph-name="epsilon" unicode="&#x3b5;" horiz-adv-x="1035" d="M119 0 L955 0 L955 28 L151 28 L151 267 L868 267 L868 293 L151 293 L151 532 L955 532 L955 560 L119 560 L119 0 Z " />
<glyph glyph-name="zeta" unicode="&#x3b6;" horiz-adv-x="1021" d="M72 0 L959 0 L959 28 L128 28 L942 537 L942 560 L81 560 L81 532 L884 532 L72 23 L72 0 Z " />
<glyph glyph-name="eta" unicode="&#x3b7;" horiz-adv-x="1129" d="M978 0 L1010 0 L1010 560 L978 560 L978 294 L151 294 L151 560 L119 560 L119 0 L151 0 L151 266 L978 266 L978 0 Z " />
<glyph glyph-name="theta" unicode="&#x3b8;" horiz-adv-x="1157" d="M266 267 L889 267 L889 293 L266 293 L266 267 Z M704 -8 C981 -8 1082 121 1082 280 C1082 439 981 568 704 568 L453 568 C176 568 75 439 75 280 C75 121 176 -8 453 -8 L704 -8 Z M454 20 C197 20 108 136 108 280 C108 424 197 540 454 540 L703 540 C960 540 1049 424 1049 280 C1049 136 960 20 703 20 L454 20 Z " />
<glyph glyph-name="iota" unicode="&#x3b9;" horiz-adv-x="270" d="M119 0 L151 0 L151 560 L119 560 L119 0 Z " />
<glyph glyph-name="kappa" unicode="&#x3ba;" horiz-adv-x="1107" d="M1018 560 L955 560 L151 148 L151 560 L119 560 L119 0 L151 0 L151 116 L473 281 L1028 0 L1090 0 L503 296 L1018 560 Z " />
<glyph glyph-name="lambda" unicode="&#x3bb;" horiz-adv-x="1078" d="M521 560 L18 0 L59 0 L539 535 L1019 0 L1060 0 L557 560 L521 560 Z " />
<glyph glyph-name="mu" unicode="&#x3bc;" horiz-adv-x="1247" d="M1097 560 L623 71 L149 560 L119 560 L119 0 L151 0 L151 517 L623 29 L1096 517 L1096 0 L1128 0 L1128 560 L1097 560 Z " />
<glyph glyph-name="nu" unicode="&#x3bd;" horiz-adv-x="1126" d="M1007 0 L1007 560 L976 560 L976 37 L149 560 L119 560 L119 0 L151 0 L151 523 L977 0 L1007 0 Z " />
<glyph glyph-name="xi" unicode="&#x3be;" horiz-adv-x="1039" d="M80 532 L959 532 L959 560 L80 560 L80 532 Z M959 28 L80 28 L80 0 L959 0 L959 28 Z M159 267 L880 267 L880 293 L159 293 L159 267 Z " />
<glyph glyph-name="omicron" unicode="&#x3bf;" horiz-adv-x="1157" d="M704 -8 C981 -8 1082 121 1082 280 C1082 439 981 568 704 568 L453 568 C176 568 75 439 75 280 C75 121 176 -8 453 -8 L704 -8 Z M454 20 C197 20 108 136 108 280 C108 424 197 540 454 540 L703 540 C960 540 1049 424 1049 280 C1049 136 960 20 703 20 L454 20 Z " />
<glyph glyph-name="pi" unicode="&#x3c0;" horiz-adv-x="1129" d="M978 0 L1010 0 L1010 560 L119 560 L119 0 L151 0 L151 532 L978 532 L978 0 Z " />
<glyph glyph-name="rho" unicode="&#x3c1;" horiz-adv-x="1043" d="M119 0 L151 0 L151 234 L781 234 C939 234 994 305 994 397 C994 487 939 560 781 560 L119 560 L119 0 Z M780 532 C917 532 961 472 961 397 C961 320 917 262 780 262 L151 262 L151 532 L780 532 Z " />
<glyph glyph-name="uni03C2" unicode="&#x3c2;" horiz-adv-x="1011" d="M79 535 L529 280 L79 25 L79 0 L932 0 L932 28 L138 28 L583 280 L138 532 L932 532 L932 560 L79 560 L79 535 Z " />
<glyph glyph-name="sigma" unicode="&#x3c3;" horiz-adv-x="1011" d="M79 535 L529 280 L79 25 L79 0 L932 0 L932 28 L138 28 L583 280 L138 532 L932 532 L932 560 L79 560 L79 535 Z " />
<glyph glyph-name="tau" unicode="&#x3c4;" horiz-adv-x="1043" d="M50 532 L505 532 L505 0 L537 0 L537 532 L993 532 L993 560 L50 560 L50 532 Z " />
<glyph glyph-name="upsilon" unicode="&#x3c5;" horiz-adv-x="1058" d="M514 0 L545 0 L545 169 L1051 560 L1004 560 L529 194 L54 560 L7 560 L514 169 L514 0 Z " />
<glyph glyph-name="phi" unicode="&#x3c6;" horiz-adv-x="1131" d="M763 50 C987 50 1067 150 1067 280 C1067 406 987 510 763 510 L581 510 L581 600 L549 600 L549 510 L368 510 C144 510 64 406 64 280 C64 150 144 50 368 50 L549 50 L549 -40 L581 -40 L581 50 L763 50 Z M762 482 C965 482 1034 391 1034 280 C1034 166 965 78 762 78 L581 78 L581 482 L762 482 Z M97 280 C97 391 166 482 369 482 L549 482 L549 78 L369 78 C166 78 97 166 97 280 L97 280 Z " />
<glyph glyph-name="chi" unicode="&#x3c7;" horiz-adv-x="1067" d="M38 560 L508 282 L33 0 L89 0 L534 265 L979 0 L1035 0 L559 282 L1031 560 L975 560 L534 299 L94 560 L38 560 Z " />
<glyph glyph-name="psi" unicode="&#x3c8;" horiz-adv-x="1117" d="M542 0 L574 0 L574 126 L699 126 C968 126 1051 236 1051 390 L1051 560 L1019 560 L1019 390 C1019 252 945 155 698 155 L574 155 L574 560 L542 560 L542 155 L418 155 C170 155 97 252 97 390 L97 560 L66 560 L66 390 C66 236 148 126 417 126 L542 126 L542 0 Z " />
<glyph glyph-name="omega" unicode="&#x3c9;" horiz-adv-x="1171" d="M737 0 L1098 0 L1098 28 L829 28 C1001 82 1072 195 1072 312 C1072 454 983 568 737 568 L434 568 C188 568 99 454 99 312 C99 195 167 82 340 28 L73 28 L73 0 L433 0 L433 25 C214 65 129 182 129 307 C129 436 207 540 437 540 L734 540 C964 540 1042 436 1042 307 C1042 182 956 65 737 25 L737 0 Z " />
<glyph glyph-name="iotadieresis" unicode="&#x3ca;" horiz-adv-x="270" d="M119 0 L151 0 L151 560 L119 560 L119 0 Z M231 696 L281 696 L281 745 L231 745 L231 696 Z M-11 696 L39 696 L39 745 L-11 745 L-11 696 Z " />
<glyph glyph-name="upsilondieresis" unicode="&#x3cb;" horiz-adv-x="1058" d="M514 0 L545 0 L545 169 L1051 560 L1004 560 L529 194 L54 560 L7 560 L514 169 L514 0 Z M626 696 L676 696 L676 745 L626 745 L626 696 Z M384 696 L434 696 L434 745 L384 745 L384 696 Z " />
<glyph glyph-name="omicrontonos" unicode="&#x3cc;" horiz-adv-x="1281" d="M62 360 L78 360 L93 560 L49 560 L62 360 Z M828 -8 C1105 -8 1206 121 1206 280 C1206 439 1105 568 828 568 L577 568 C300 568 199 439 199 280 C199 121 300 -8 577 -8 L828 -8 Z M578 20 C321 20 232 136 232 280 C232 424 321 540 578 540 L827 540 C1084 540 1173 424 1173 280 C1173 136 1084 20 827 20 L578 20 Z " />
<glyph glyph-name="upsilontonos" unicode="&#x3cd;" horiz-adv-x="1203" d="M62 360 L78 360 L93 560 L49 560 L62 360 Z M659 0 L690 0 L690 169 L1196 560 L1149 560 L674 194 L199 560 L152 560 L659 169 L659 0 Z " />
<glyph glyph-name="omegatonos" unicode="&#x3ce;" horiz-adv-x="1276" d="M62 360 L78 360 L93 560 L49 560 L62 360 Z M842 0 L1203 0 L1203 28 L934 28 C1106 82 1177 195 1177 312 C1177 454 1088 568 842 568 L539 568 C293 568 204 454 204 312 C204 195 272 82 445 28 L178 28 L178 0 L538 0 L538 25 C319 65 234 182 234 307 C234 436 312 540 542 540 L839 540 C1069 540 1147 436 1147 307 C1147 182 1061 65 842 25 L842 0 Z " />
<glyph glyph-name="uni0400" unicode="&#x400;" horiz-adv-x="1199" d="M129 0 L1112 0 L1112 30 L162 30 L162 336 L1010 336 L1010 364 L162 364 L162 670 L1112 670 L1112 700 L129 700 L129 0 Z M542 946 L497 946 L637 775 L658 775 L542 946 Z " />
<glyph glyph-name="uni0401" unicode="&#x401;" horiz-adv-x="1199" d="M129 0 L1112 0 L1112 30 L162 30 L162 336 L1010 336 L1010 364 L162 364 L162 670 L1112 670 L1112 700 L129 700 L129 0 Z M705 836 L755 836 L755 885 L705 885 L705 836 Z M463 836 L513 836 L513 885 L463 885 L463 836 Z " />
<glyph glyph-name="uni0402" unicode="&#x402;" horiz-adv-x="1354" d="M719 0 L1084 0 C1251 0 1315 82 1315 182 C1315 284 1251 364 1084 364 L380 364 L380 670 L950 670 L950 700 L37 700 L37 670 L347 670 L347 0 L380 0 L380 336 L1082 336 C1228 336 1280 269 1280 183 C1280 99 1228 30 1082 30 L719 30 L719 0 Z " />
<glyph glyph-name="uni0403" unicode="&#x403;" horiz-adv-x="1129" d="M129 0 L162 0 L162 670 L1092 670 L1092 700 L129 700 L129 0 Z M553 775 L574 775 L714 946 L669 946 L553 775 Z " />
<glyph glyph-name="uni0404" unicode="&#x404;" horiz-adv-x="1184" d="M524 670 L1097 670 L1097 700 L523 700 C206 700 82 543 82 350 C82 157 206 0 523 0 L1097 0 L1097 30 L524 30 C236 30 122 165 117 336 L995 336 L995 364 L117 364 C122 534 236 670 524 670 L524 670 Z " />
<glyph glyph-name="uni0405" unicode="&#x405;" horiz-adv-x="1207" d="M119 0 L897 0 C1064 0 1128 82 1128 182 C1128 284 1064 364 897 364 L311 364 C166 364 113 431 113 517 C113 601 166 670 311 670 L1088 670 L1088 700 L310 700 C143 700 79 618 79 518 C79 416 143 336 310 336 L896 336 C1041 336 1094 269 1094 183 C1094 99 1041 30 896 30 L119 30 L119 0 Z " />
<glyph glyph-name="uni0406" unicode="&#x406;" horiz-adv-x="291" d="M129 0 L162 0 L162 700 L129 700 L129 0 Z " />
<glyph glyph-name="uni0407" unicode="&#x407;" horiz-adv-x="291" d="M129 0 L162 0 L162 700 L129 700 L129 0 Z M242 836 L292 836 L292 885 L242 885 L242 836 Z M0 836 L50 836 L50 885 L0 885 L0 836 Z " />
<glyph glyph-name="uni0408" unicode="&#x408;" horiz-adv-x="1231" d="M392 -5 L681 -5 C998 -5 1102 132 1102 325 L1102 700 L1069 700 L1069 325 C1069 149 975 25 680 25 L393 25 C161 25 82 137 82 275 L82 312 L49 312 L49 275 C49 121 138 -5 392 -5 L392 -5 Z " />
<glyph glyph-name="uni0409" unicode="&#x409;" horiz-adv-x="1862" d="M320 700 L246 171 C235 91 195 30 63 30 L37 30 L37 0 L62 0 C219 0 265 72 279 171 L349 670 L936 670 L936 0 L1567 0 C1752 0 1823 88 1823 202 C1823 314 1752 405 1567 405 L968 405 L968 700 L320 700 Z M1565 375 C1729 375 1788 297 1788 202 C1788 105 1729 30 1565 30 L968 30 L968 375 L1565 375 Z " />
<glyph glyph-name="uni040A" unicode="&#x40a;" horiz-adv-x="1876" d="M950 0 L1581 0 C1766 0 1837 88 1837 202 C1837 314 1766 405 1581 405 L982 405 L982 700 L950 700 L950 405 L162 405 L162 700 L129 700 L129 0 L162 0 L162 375 L950 375 L950 0 Z M1579 375 C1743 375 1802 297 1802 202 C1802 105 1743 30 1579 30 L982 30 L982 375 L1579 375 Z " />
<glyph glyph-name="uni040B" unicode="&#x40b;" horiz-adv-x="1384" d="M1315 0 L1315 181 C1315 284 1267 364 1099 364 L380 364 L380 670 L950 670 L950 700 L37 700 L37 670 L347 670 L347 0 L380 0 L380 334 L1099 334 C1244 334 1282 267 1282 180 L1282 0 L1315 0 Z " />
<glyph glyph-name="uni040C" unicode="&#x40c;" horiz-adv-x="1280" d="M610 350 L1186 700 L1129 700 L578 365 L162 365 L162 700 L129 700 L129 0 L162 0 L162 335 L575 335 L1205 0 L1268 0 L610 350 Z M525 775 L546 775 L686 946 L641 946 L525 775 Z " />
<glyph glyph-name="uni040D" unicode="&#x40d;" horiz-adv-x="1303" d="M162 700 L129 700 L129 0 L160 0 L1141 661 L1141 0 L1174 0 L1174 700 L1143 700 L162 39 L162 700 Z M584 946 L539 946 L679 775 L700 775 L584 946 Z " />
<glyph glyph-name="uni040E" unicode="&#x40e;" horiz-adv-x="1246" d="M393 0 L1240 700 L1191 700 L627 231 L59 700 L9 700 L605 212 L344 0 L393 0 Z M630 820 C537 820 504 871 500 928 L479 928 C485 862 522 793 630 793 C737 793 774 862 780 928 L760 928 C754 871 723 820 630 820 L630 820 Z " />
<glyph glyph-name="uni040F" unicode="&#x40f;" horiz-adv-x="1305" d="M636 0 L636 -150 L669 -150 L669 0 L1176 0 L1176 700 L1143 700 L1143 30 L162 30 L162 700 L129 700 L129 0 L636 0 Z " />
<glyph glyph-name="uni0410" unicode="&#x410;" horiz-adv-x="1258" d="M1200 0 L1241 0 L648 700 L611 700 L17 0 L58 0 L188 154 L1069 154 L1200 0 Z M629 674 L1045 183 L213 183 L629 674 Z " />
<glyph glyph-name="uni0411" unicode="&#x411;" horiz-adv-x="1236" d="M129 0 L926 0 C1093 0 1157 82 1157 182 C1157 284 1093 364 926 364 L162 364 L162 670 L1092 670 L1092 700 L129 700 L129 0 Z M924 336 C1070 336 1122 269 1122 183 C1122 99 1070 30 924 30 L162 30 L162 336 L924 336 Z " />
<glyph glyph-name="uni0412" unicode="&#x412;" horiz-adv-x="1259" d="M129 0 L943 0 C1109 0 1172 79 1172 180 C1172 267 1123 341 999 357 C1086 380 1122 446 1122 522 C1122 621 1059 700 894 700 L129 700 L129 0 Z M938 336 C1084 336 1137 267 1137 183 C1137 97 1084 30 938 30 L162 30 L162 336 L938 336 Z M1088 517 C1088 433 1037 364 899 364 L162 364 L162 670 L889 670 C1031 670 1088 602 1088 517 L1088 517 Z " />
<glyph glyph-name="uni0413" unicode="&#x413;" horiz-adv-x="1129" d="M129 0 L162 0 L162 670 L1092 670 L1092 700 L129 700 L129 0 Z " />
<glyph glyph-name="uni0414" unicode="&#x414;" horiz-adv-x="1250" d="M70 0 L1145 0 L1145 -150 L1178 -150 L1178 30 L1091 30 L1091 700 L320 700 L246 171 C235 91 196 30 65 30 L37 30 L37 -150 L70 -150 L70 0 Z M279 175 L349 670 L1058 670 L1058 30 L180 30 C246 55 269 109 279 175 L279 175 Z " />
<glyph glyph-name="uni0415" unicode="&#x415;" horiz-adv-x="1199" d="M129 0 L1112 0 L1112 30 L162 30 L162 336 L1010 336 L1010 364 L162 364 L162 670 L1112 670 L1112 700 L129 700 L129 0 Z " />
<glyph glyph-name="uni0416" unicode="&#x416;" horiz-adv-x="1615" d="M1057 350 L1528 700 L1479 700 L1026 365 L823 365 L823 700 L791 700 L791 365 L589 365 L136 700 L87 700 L558 350 L27 0 L80 0 L590 335 L791 335 L791 0 L823 0 L823 335 L1025 335 L1535 0 L1588 0 L1057 350 Z " />
<glyph glyph-name="uni0417" unicode="&#x417;" horiz-adv-x="1269" d="M77 0 L953 0 C1119 0 1182 79 1182 180 C1182 267 1133 341 1009 357 C1096 380 1132 446 1132 522 C1132 621 1069 700 904 700 L97 700 L97 670 L899 670 C1045 670 1098 601 1098 517 C1098 433 1047 364 909 364 L184 364 L184 336 L948 336 C1094 336 1147 267 1147 183 C1147 97 1094 30 948 30 L77 30 L77 0 Z " />
<glyph glyph-name="uni0418" unicode="&#x418;" horiz-adv-x="1303" d="M162 700 L129 700 L129 0 L160 0 L1141 661 L1141 0 L1174 0 L1174 700 L1143 700 L162 39 L162 700 Z " />
<glyph glyph-name="uni0419" unicode="&#x419;" horiz-adv-x="1303" d="M162 700 L129 700 L129 0 L160 0 L1141 661 L1141 0 L1174 0 L1174 700 L1143 700 L162 39 L162 700 Z M652 820 C559 820 526 871 522 928 L501 928 C507 862 544 793 652 793 C759 793 796 862 802 928 L782 928 C776 871 745 820 652 820 L652 820 Z " />
<glyph glyph-name="uni041A" unicode="&#x41a;" horiz-adv-x="1280" d="M610 350 L1186 700 L1129 700 L578 365 L162 365 L162 700 L129 700 L129 0 L162 0 L162 335 L575 335 L1205 0 L1268 0 L610 350 Z " />
<glyph glyph-name="uni041B" unicode="&#x41b;" horiz-adv-x="1257" d="M320 700 L246 171 C235 90 195 30 63 30 L37 30 L37 0 L62 0 C219 0 265 72 279 171 L349 670 L1095 670 L1095 0 L1128 0 L1128 700 L320 700 Z " />
<glyph glyph-name="uni041C" unicode="&#x41c;" horiz-adv-x="1443" d="M1283 700 L721 81 L160 700 L129 700 L129 0 L162 0 L162 654 L721 37 L1281 654 L1281 0 L1314 0 L1314 700 L1283 700 Z " />
<glyph glyph-name="uni041D" unicode="&#x41d;" horiz-adv-x="1305" d="M1143 0 L1176 0 L1176 700 L1143 700 L1143 365 L162 365 L162 700 L129 700 L129 0 L162 0 L162 335 L1143 335 L1143 0 Z " />
<glyph glyph-name="uni041E" unicode="&#x41e;" horiz-adv-x="1348" d="M812 -10 C1138 -10 1266 151 1266 350 C1266 549 1138 710 812 710 L536 710 C210 710 82 549 82 350 C82 151 210 -10 536 -10 L812 -10 Z M537 20 C232 20 117 167 117 350 C117 533 232 680 537 680 L811 680 C1116 680 1231 533 1231 350 C1231 167 1116 20 811 20 L537 20 Z " />
<glyph glyph-name="uni041F" unicode="&#x41f;" horiz-adv-x="1305" d="M1143 0 L1176 0 L1176 700 L129 700 L129 0 L162 0 L162 670 L1143 670 L1143 0 Z " />
<glyph glyph-name="uni0420" unicode="&#x420;" horiz-adv-x="1196" d="M129 0 L162 0 L162 295 L901 295 C1086 295 1157 383 1157 498 C1157 609 1086 700 901 700 L129 700 L129 0 Z M900 670 C1063 670 1123 592 1123 498 C1123 400 1063 325 900 325 L162 325 L162 670 L900 670 Z " />
<glyph glyph-name="uni0421" unicode="&#x421;" horiz-adv-x="1184" d="M117 350 C117 527 228 670 524 670 L1097 670 L1097 700 L523 700 C206 700 82 543 82 350 C82 157 206 0 523 0 L1097 0 L1097 30 L524 30 C228 30 117 173 117 350 L117 350 Z " />
<glyph glyph-name="uni0422" unicode="&#x422;" horiz-adv-x="1184" d="M37 670 L576 670 L576 0 L608 0 L608 670 L1147 670 L1147 700 L37 700 L37 670 Z " />
<glyph glyph-name="uni0423" unicode="&#x423;" horiz-adv-x="1246" d="M393 0 L1240 700 L1191 700 L627 231 L59 700 L9 700 L605 212 L344 0 L393 0 Z " />
<glyph glyph-name="uni0424" unicode="&#x424;" horiz-adv-x="1305" d="M877 62 C1141 62 1242 188 1242 350 C1242 508 1141 638 877 638 L668 638 L668 750 L636 750 L636 638 L428 638 C164 638 63 508 63 350 C63 188 164 62 428 62 L636 62 L636 -50 L668 -50 L668 62 L877 62 Z M876 608 C1119 608 1207 492 1207 350 C1207 205 1119 92 876 92 L668 92 L668 608 L876 608 Z M98 350 C98 492 186 608 429 608 L636 608 L636 92 L429 92 C186 92 98 205 98 350 L98 350 Z " />
<glyph glyph-name="uni0425" unicode="&#x425;" horiz-adv-x="1228" d="M31 700 L586 351 L26 0 L83 0 L614 334 L1145 0 L1202 0 L642 351 L1197 700 L1140 700 L614 368 L88 700 L31 700 Z " />
<glyph glyph-name="uni0426" unicode="&#x426;" horiz-adv-x="1297" d="M1106 30 L162 30 L162 700 L129 700 L129 0 L1192 0 L1192 -150 L1225 -150 L1225 30 L1139 30 L1139 700 L1106 700 L1106 30 Z " />
<glyph glyph-name="uni0427" unicode="&#x427;" horiz-adv-x="1226" d="M69 700 L69 477 C69 375 117 295 285 295 L1064 295 L1064 0 L1097 0 L1097 700 L1064 700 L1064 325 L285 325 C140 325 102 392 102 478 L102 700 L69 700 Z " />
<glyph glyph-name="uni0428" unicode="&#x428;" horiz-adv-x="1599" d="M1437 30 L815 30 L815 700 L783 700 L783 30 L162 30 L162 700 L129 700 L129 0 L1470 0 L1470 700 L1437 700 L1437 30 Z " />
<glyph glyph-name="uni0429" unicode="&#x429;" horiz-adv-x="1593" d="M1401 30 L797 30 L797 700 L765 700 L765 30 L162 30 L162 700 L129 700 L129 0 L1488 0 L1488 -150 L1521 -150 L1521 30 L1434 30 L1434 700 L1401 700 L1401 30 Z " />
<glyph glyph-name="uni042A" unicode="&#x42a;" horiz-adv-x="1354" d="M37 670 L347 670 L347 0 L1059 0 C1244 0 1315 88 1315 202 C1315 315 1244 405 1059 405 L380 405 L380 700 L37 700 L37 670 Z M1057 375 C1221 375 1280 298 1280 202 C1280 105 1220 30 1057 30 L380 30 L380 375 L1057 375 Z " />
<glyph glyph-name="uni042B" unicode="&#x42b;" horiz-adv-x="1487" d="M129 0 L901 0 C1086 0 1157 88 1157 202 C1157 314 1086 405 901 405 L162 405 L162 700 L129 700 L129 0 Z M899 375 C1063 375 1122 297 1122 202 C1122 105 1062 30 899 30 L162 30 L162 375 L899 375 Z M1325 0 L1358 0 L1358 700 L1325 700 L1325 0 Z " />
<glyph glyph-name="uni042C" unicode="&#x42c;" horiz-adv-x="1196" d="M129 0 L901 0 C1086 0 1157 88 1157 202 C1157 314 1086 405 901 405 L162 405 L162 700 L129 700 L129 0 Z M899 375 C1063 375 1122 297 1122 202 C1122 105 1062 30 899 30 L162 30 L162 375 L899 375 Z " />
<glyph glyph-name="uni042D" unicode="&#x42d;" horiz-adv-x="1184" d="M660 670 C948 670 1062 534 1067 364 L189 364 L189 336 L1067 336 C1062 165 948 30 660 30 L87 30 L87 0 L661 0 C978 0 1102 157 1102 350 C1102 543 978 700 661 700 L87 700 L87 670 L660 670 L660 670 Z " />
<glyph glyph-name="uni042E" unicode="&#x42e;" horiz-adv-x="1879" d="M1343 -10 C1669 -10 1797 151 1797 350 C1797 549 1669 710 1343 710 L1117 710 C799 710 669 557 663 365 L162 365 L162 700 L129 700 L129 0 L162 0 L162 335 L663 335 C669 142 799 -10 1117 -10 L1343 -10 Z M1118 20 C813 20 698 167 698 350 C698 533 813 680 1118 680 L1342 680 C1647 680 1762 533 1762 350 C1762 167 1647 20 1342 20 L1118 20 Z " />
<glyph glyph-name="uni042F" unicode="&#x42f;" horiz-adv-x="1275" d="M1148 700 L395 700 C210 700 139 609 139 498 C139 384 210 295 395 295 L569 295 L14 0 L77 0 L629 295 L1115 295 L1115 0 L1148 0 L1148 700 Z M1115 670 L1115 325 L397 325 C234 325 174 400 174 497 C174 592 234 670 397 670 L1115 670 Z " />
<glyph glyph-name="uni0430" unicode="&#x430;" horiz-adv-x="1078" d="M1020 0 L1060 0 L557 560 L521 560 L18 0 L58 0 L171 126 L906 126 L1020 0 Z M539 535 L881 154 L196 154 L539 535 Z " />
<glyph glyph-name="uni0431" unicode="&#x431;" horiz-adv-x="1065" d="M119 0 L802 0 C945 0 994 66 994 147 C994 229 945 293 802 293 L151 293 L151 532 L938 532 L938 560 L119 560 L119 0 Z M800 267 C922 267 961 214 961 147 C961 82 922 28 800 28 L151 28 L151 267 L800 267 Z " />
<glyph glyph-name="uni0432" unicode="&#x432;" horiz-adv-x="1085" d="M119 0 L817 0 C959 0 1006 63 1006 144 C1006 214 970 273 865 286 C939 305 964 356 964 418 C964 497 916 560 776 560 L119 560 L119 0 Z M812 267 C935 267 972 213 972 147 C972 81 935 28 812 28 L151 28 L151 267 L812 267 Z M778 293 L151 293 L151 532 L770 532 C889 532 931 478 931 413 C931 347 894 293 778 293 L778 293 Z " />
<glyph glyph-name="uni0433" unicode="&#x433;" horiz-adv-x="988" d="M119 0 L151 0 L151 532 L938 532 L938 560 L119 560 L119 0 Z " />
<glyph glyph-name="uni0434" unicode="&#x434;" horiz-adv-x="1088" d="M82 0 L989 0 L989 -120 L1021 -120 L1021 28 L947 28 L947 560 L290 560 L227 139 C218 77 185 28 75 28 L50 28 L50 -120 L82 -120 L82 0 Z M259 144 L317 532 L915 532 L915 28 L176 28 C231 49 251 92 259 144 L259 144 Z " />
<glyph glyph-name="uni0435" unicode="&#x435;" horiz-adv-x="1035" d="M119 0 L955 0 L955 28 L151 28 L151 267 L868 267 L868 293 L151 293 L151 532 L955 532 L955 560 L119 560 L119 0 Z " />
<glyph glyph-name="uni0436" unicode="&#x436;" horiz-adv-x="1390" d="M913 280 L1308 560 L1261 560 L885 294 L710 294 L710 560 L679 560 L679 294 L505 294 L129 560 L82 560 L477 280 L31 0 L83 0 L506 266 L679 266 L679 0 L710 0 L710 266 L883 266 L1306 0 L1359 0 L913 280 Z " />
<glyph glyph-name="uni0437" unicode="&#x437;" horiz-adv-x="1090" d="M71 0 L822 0 C963 0 1011 63 1011 144 C1011 214 974 273 870 286 C943 305 968 356 968 418 C968 497 921 560 780 560 L88 560 L88 532 L776 532 C898 532 936 478 936 413 C936 347 900 293 784 293 L162 293 L162 267 L818 267 C940 267 979 213 979 147 C979 81 940 28 818 28 L71 28 L71 0 Z " />
<glyph glyph-name="uni0438" unicode="&#x438;" horiz-adv-x="1126" d="M151 560 L119 560 L119 0 L149 0 L975 523 L975 0 L1007 0 L1007 560 L977 560 L151 37 L151 560 Z " />
<glyph glyph-name="uni0439" unicode="&#x439;" horiz-adv-x="1126" d="M151 560 L119 560 L119 0 L149 0 L975 523 L975 0 L1007 0 L1007 560 L977 560 L151 37 L151 560 Z M563 680 C470 680 437 731 433 788 L412 788 C418 722 455 653 563 653 C670 653 707 722 713 788 L693 788 C687 731 656 680 563 680 L563 680 Z " />
<glyph glyph-name="uni043A" unicode="&#x43a;" horiz-adv-x="1108" d="M531 280 L1018 560 L965 560 L499 294 L151 294 L151 560 L119 560 L119 0 L151 0 L151 266 L498 266 L1028 0 L1089 0 L531 280 Z " />
<glyph glyph-name="uni043B" unicode="&#x43b;" horiz-adv-x="1097" d="M290 560 L227 139 C217 75 185 28 74 28 L50 28 L50 0 L73 0 C207 0 246 58 258 139 L317 532 L946 532 L946 0 L978 0 L978 560 L290 560 Z " />
<glyph glyph-name="uni043C" unicode="&#x43c;" horiz-adv-x="1247" d="M1097 560 L623 71 L149 560 L119 560 L119 0 L151 0 L151 517 L623 29 L1096 517 L1096 0 L1128 0 L1128 560 L1097 560 Z " />
<glyph glyph-name="uni043D" unicode="&#x43d;" horiz-adv-x="1129" d="M978 0 L1010 0 L1010 560 L978 560 L978 294 L151 294 L151 560 L119 560 L119 0 L151 0 L151 266 L978 266 L978 0 Z " />
<glyph glyph-name="uni043E" unicode="&#x43e;" horiz-adv-x="1157" d="M704 -8 C981 -8 1082 121 1082 280 C1082 439 981 568 704 568 L453 568 C176 568 75 439 75 280 C75 121 176 -8 453 -8 L704 -8 Z M454 20 C197 20 108 136 108 280 C108 424 197 540 454 540 L703 540 C960 540 1049 424 1049 280 C1049 136 960 20 703 20 L454 20 Z " />
<glyph glyph-name="uni043F" unicode="&#x43f;" horiz-adv-x="1129" d="M978 0 L1010 0 L1010 560 L119 560 L119 0 L151 0 L151 532 L978 532 L978 0 Z " />
<glyph glyph-name="uni0440" unicode="&#x440;" horiz-adv-x="1043" d="M119 0 L151 0 L151 234 L781 234 C939 234 994 305 994 397 C994 487 939 560 781 560 L119 560 L119 0 Z M780 532 C917 532 961 472 961 397 C961 320 917 262 780 262 L151 262 L151 532 L780 532 Z " />
<glyph glyph-name="uni0441" unicode="&#x441;" horiz-adv-x="1017" d="M108 280 C108 419 193 532 442 532 L938 532 L938 560 L442 560 C172 560 75 434 75 280 C75 126 172 0 442 0 L938 0 L938 28 L442 28 C193 28 108 141 108 280 L108 280 Z " />
<glyph glyph-name="uni0442" unicode="&#x442;" horiz-adv-x="1043" d="M50 532 L505 532 L505 0 L537 0 L537 532 L993 532 L993 560 L50 560 L50 532 Z " />
<glyph glyph-name="uni0443" unicode="&#x443;" horiz-adv-x="1061" d="M338 0 L1057 560 L1010 560 L535 189 L56 560 L9 560 L514 170 L292 0 L338 0 Z " />
<glyph glyph-name="uni0444" unicode="&#x444;" horiz-adv-x="1131" d="M763 50 C987 50 1067 150 1067 280 C1067 406 987 510 763 510 L581 510 L581 600 L549 600 L549 510 L368 510 C144 510 64 406 64 280 C64 150 144 50 368 50 L549 50 L549 -40 L581 -40 L581 50 L763 50 Z M762 482 C965 482 1034 391 1034 280 C1034 166 965 78 762 78 L581 78 L581 482 L762 482 Z M97 280 C97 391 166 482 369 482 L549 482 L549 78 L369 78 C166 78 97 166 97 280 L97 280 Z " />
<glyph glyph-name="uni0445" unicode="&#x445;" horiz-adv-x="1067" d="M38 560 L508 282 L33 0 L89 0 L534 265 L979 0 L1035 0 L559 282 L1031 560 L975 560 L534 299 L94 560 L38 560 Z " />
<glyph glyph-name="uni0446" unicode="&#x446;" horiz-adv-x="1119" d="M946 28 L151 28 L151 560 L119 560 L119 0 L1020 0 L1020 -120 L1052 -120 L1052 28 L978 28 L978 560 L946 560 L946 28 Z " />
<glyph glyph-name="uni0447" unicode="&#x447;" horiz-adv-x="1059" d="M66 560 L66 381 C66 297 104 234 247 234 L908 234 L908 0 L940 0 L940 560 L908 560 L908 262 L248 262 C126 262 98 314 98 382 L98 560 L66 560 Z " />
<glyph glyph-name="uni0448" unicode="&#x448;" horiz-adv-x="1379" d="M1228 28 L705 28 L705 560 L673 560 L673 28 L151 28 L151 560 L119 560 L119 0 L1260 0 L1260 560 L1228 560 L1228 28 Z " />
<glyph glyph-name="uni0449" unicode="&#x449;" horiz-adv-x="1370" d="M1197 28 L690 28 L690 560 L658 560 L658 28 L151 28 L151 560 L119 560 L119 0 L1271 0 L1271 -120 L1303 -120 L1303 28 L1229 28 L1229 560 L1197 560 L1197 28 Z " />
<glyph glyph-name="uni044A" unicode="&#x44a;" horiz-adv-x="1186" d="M50 532 L313 532 L313 0 L924 0 C1082 0 1137 71 1137 163 C1137 253 1082 326 924 326 L345 326 L345 560 L50 560 L50 532 Z M345 28 L345 298 L922 298 C1060 298 1104 238 1104 163 C1104 87 1059 28 922 28 L345 28 Z " />
<glyph glyph-name="uni044B" unicode="&#x44b;" horiz-adv-x="1313" d="M119 0 L781 0 C939 0 994 71 994 163 C994 253 939 326 781 326 L151 326 L151 560 L119 560 L119 0 Z M779 298 C917 298 961 238 961 163 C961 87 916 28 779 28 L151 28 L151 298 L779 298 Z M1162 0 L1194 0 L1194 560 L1162 560 L1162 0 Z " />
<glyph glyph-name="uni044C" unicode="&#x44c;" horiz-adv-x="1043" d="M119 0 L781 0 C939 0 994 71 994 163 C994 253 939 326 781 326 L151 326 L151 560 L119 560 L119 0 Z M779 298 C917 298 961 238 961 163 C961 87 916 28 779 28 L151 28 L151 298 L779 298 Z " />
<glyph glyph-name="uni044D" unicode="&#x44d;" horiz-adv-x="1018" d="M911 267 C906 134 817 28 576 28 L80 28 L80 0 L576 0 C846 0 943 126 943 280 C943 434 846 560 576 560 L80 560 L80 532 L576 532 C817 532 906 426 911 293 L167 293 L167 267 L911 267 Z " />
<glyph glyph-name="uni044E" unicode="&#x44e;" horiz-adv-x="1613" d="M592 294 L151 294 L151 560 L119 560 L119 0 L151 0 L151 266 L592 266 L592 294 Z M951 -8 L1160 -8 C1437 -8 1538 121 1538 280 C1538 439 1437 568 1160 568 L951 568 C674 568 573 439 573 280 C573 121 674 -8 951 -8 L951 -8 Z M1159 540 C1416 540 1505 424 1505 280 C1505 136 1416 20 1159 20 L952 20 C695 20 606 136 606 280 C606 424 695 540 952 540 L1159 540 Z " />
<glyph glyph-name="uni044F" unicode="&#x44f;" horiz-adv-x="1105" d="M986 560 L340 560 C183 560 128 487 128 397 C128 305 183 234 340 234 L487 234 L21 0 L82 0 L545 234 L954 234 L954 0 L986 0 L986 560 Z M954 532 L954 262 L342 262 C205 262 161 320 161 397 C161 471 205 532 342 532 L954 532 Z " />
<glyph glyph-name="uni0450" unicode="&#x450;" horiz-adv-x="1035" d="M119 0 L955 0 L955 28 L151 28 L151 267 L868 267 L868 293 L151 293 L151 532 L955 532 L955 560 L119 560 L119 0 Z M462 806 L417 806 L557 635 L578 635 L462 806 Z " />
<glyph glyph-name="uni0451" unicode="&#x451;" horiz-adv-x="1035" d="M119 0 L955 0 L955 28 L151 28 L151 267 L868 267 L868 293 L151 293 L151 532 L955 532 L955 560 L119 560 L119 0 Z M625 696 L675 696 L675 745 L625 745 L625 696 Z M383 696 L433 696 L433 745 L383 745 L383 696 Z " />
<glyph glyph-name="uni0452" unicode="&#x452;" horiz-adv-x="1186" d="M630 0 L945 0 C1088 0 1137 66 1137 147 C1137 229 1088 293 945 293 L345 293 L345 532 L826 532 L826 560 L50 560 L50 532 L313 532 L313 0 L345 0 L345 267 L943 267 C1065 267 1104 214 1104 147 C1104 82 1065 28 943 28 L630 28 L630 0 Z " />
<glyph glyph-name="uni0453" unicode="&#x453;" horiz-adv-x="988" d="M119 0 L151 0 L151 532 L938 532 L938 560 L119 560 L119 0 Z M479 635 L500 635 L640 806 L595 806 L479 635 Z " />
<glyph glyph-name="uni0454" unicode="&#x454;" horiz-adv-x="1018" d="M851 267 L851 293 L107 293 C112 426 201 532 442 532 L938 532 L938 560 L442 560 C172 560 75 434 75 280 C75 126 172 0 442 0 L938 0 L938 28 L442 28 C201 28 112 134 107 267 L851 267 Z " />
<glyph glyph-name="uni0455" unicode="&#x455;" horiz-adv-x="1034" d="M105 0 L772 0 C914 0 963 66 963 147 C963 229 914 293 772 293 L263 293 C143 293 104 346 104 413 C104 478 143 532 263 532 L929 532 L929 560 L262 560 C120 560 71 494 71 413 C71 331 120 267 262 267 L771 267 C891 267 930 214 930 147 C930 82 891 28 771 28 L105 28 L105 0 Z " />
<glyph glyph-name="uni0456" unicode="&#x456;" horiz-adv-x="270" d="M119 0 L151 0 L151 560 L119 560 L119 0 Z " />
<glyph glyph-name="uni0457" unicode="&#x457;" horiz-adv-x="270" d="M119 0 L151 0 L151 560 L119 560 L119 0 Z M231 696 L281 696 L281 745 L231 745 L231 696 Z M-11 696 L39 696 L39 745 L-11 745 L-11 696 Z " />
<glyph glyph-name="uni0458" unicode="&#x458;" horiz-adv-x="1044" d="M335 -4 L595 -4 C865 -4 945 106 945 260 L945 560 L913 560 L913 260 C913 122 842 24 595 24 L336 24 C141 24 81 112 81 220 L81 251 L49 251 L49 220 C49 97 119 -4 335 -4 L335 -4 Z " />
<glyph glyph-name="uni0459" unicode="&#x459;" horiz-adv-x="1618" d="M290 560 L227 139 C217 76 184 28 74 28 L50 28 L50 0 L73 0 C207 0 246 58 258 139 L317 532 L812 532 L812 0 L1355 0 C1514 0 1569 71 1569 163 C1569 253 1514 326 1355 326 L844 326 L844 560 L290 560 Z M1354 298 C1492 298 1536 238 1536 163 C1536 87 1492 28 1354 28 L844 28 L844 298 L1354 298 Z " />
<glyph glyph-name="uni045A" unicode="&#x45a;" horiz-adv-x="1621" d="M815 0 L1359 0 C1517 0 1572 71 1572 163 C1572 253 1517 326 1359 326 L847 326 L847 560 L815 560 L815 326 L151 326 L151 560 L119 560 L119 0 L151 0 L151 298 L815 298 L815 0 Z M1357 298 C1495 298 1539 238 1539 163 C1539 87 1495 28 1357 28 L847 28 L847 298 L1357 298 Z " />
<glyph glyph-name="uni045B" unicode="&#x45b;" horiz-adv-x="1203" d="M1137 0 L1137 146 C1137 228 1103 293 960 293 L345 293 L345 532 L826 532 L826 560 L50 560 L50 532 L313 532 L313 0 L345 0 L345 265 L960 265 C1081 265 1105 212 1105 145 L1105 0 L1137 0 Z " />
<glyph glyph-name="uni045C" unicode="&#x45c;" horiz-adv-x="1108" d="M531 280 L1018 560 L965 560 L499 294 L151 294 L151 560 L119 560 L119 0 L151 0 L151 266 L498 266 L1028 0 L1089 0 L531 280 Z M442 635 L463 635 L603 806 L558 806 L442 635 Z " />
<glyph glyph-name="uni045D" unicode="&#x45d;" horiz-adv-x="1126" d="M151 560 L119 560 L119 0 L149 0 L975 523 L975 0 L1007 0 L1007 560 L977 560 L151 37 L151 560 Z M496 806 L451 806 L591 635 L612 635 L496 806 Z " />
<glyph glyph-name="uni045E" unicode="&#x45e;" horiz-adv-x="1061" d="M338 0 L1057 560 L1010 560 L535 189 L56 560 L9 560 L514 170 L292 0 L338 0 Z M537 680 C444 680 411 731 407 788 L386 788 C392 722 429 653 537 653 C644 653 681 722 687 788 L667 788 C661 731 630 680 537 680 L537 680 Z " />
<glyph glyph-name="uni045F" unicode="&#x45f;" horiz-adv-x="1129" d="M978 28 L151 28 L151 560 L119 560 L119 0 L549 0 L549 -120 L581 -120 L581 0 L1010 0 L1010 560 L978 560 L978 28 Z " />
<glyph glyph-name="uni0490" unicode="&#x490;" horiz-adv-x="1129" d="M1059 700 L129 700 L129 0 L162 0 L162 670 L1092 670 L1092 850 L1059 850 L1059 700 Z " />
<glyph glyph-name="uni0491" unicode="&#x491;" horiz-adv-x="988" d="M906 560 L119 560 L119 0 L151 0 L151 532 L938 532 L938 680 L906 680 L906 560 Z " />
<glyph glyph-name="uni1E00" unicode="&#x1e00;" horiz-adv-x="1258" d="M547 -160 C547 -115 583 -78 629 -78 C675 -78 711 -115 711 -160 C711 -206 675 -242 629 -242 C583 -242 547 -206 547 -160 L547 -160 Z M735 -160 C735 -101 689 -55 629 -55 C570 -55 523 -101 523 -160 C523 -219 570 -266 629 -266 C689 -266 735 -219 735 -160 L735 -160 Z M1200 0 L1241 0 L648 700 L611 700 L17 0 L58 0 L188 154 L1069 154 L1200 0 Z M629 674 L1045 183 L213 183 L629 674 Z " />
<glyph glyph-name="uni1E01" unicode="&#x1e01;" horiz-adv-x="1078" d="M457 -160 C457 -115 493 -78 539 -78 C585 -78 621 -115 621 -160 C621 -206 585 -242 539 -242 C493 -242 457 -206 457 -160 L457 -160 Z M645 -160 C645 -101 599 -55 539 -55 C480 -55 433 -101 433 -160 C433 -219 480 -266 539 -266 C599 -266 645 -219 645 -160 L645 -160 Z M1020 0 L1060 0 L557 560 L521 560 L18 0 L58 0 L171 126 L906 126 L1020 0 Z M539 535 L881 154 L196 154 L539 535 Z " />
<glyph glyph-name="uni1E02" unicode="&#x1e02;" horiz-adv-x="1259" d="M129 0 L943 0 C1109 0 1172 79 1172 180 C1172 267 1123 341 999 357 C1086 380 1122 446 1122 522 C1122 621 1059 700 894 700 L129 700 L129 0 Z M938 336 C1084 336 1137 267 1137 183 C1137 97 1084 30 938 30 L162 30 L162 336 L938 336 Z M1088 517 C1088 433 1037 364 899 364 L162 364 L162 670 L889 670 C1031 670 1088 602 1088 517 L1088 517 Z M579 836 L629 836 L629 885 L579 885 L579 836 Z " />
<glyph glyph-name="uni1E03" unicode="&#x1e03;" horiz-adv-x="1085" d="M119 0 L817 0 C959 0 1006 63 1006 144 C1006 214 970 273 865 286 C939 305 964 356 964 418 C964 497 916 560 776 560 L119 560 L119 0 Z M812 267 C935 267 972 213 972 147 C972 81 935 28 812 28 L151 28 L151 267 L812 267 Z M778 293 L151 293 L151 532 L770 532 C889 532 931 478 931 413 C931 347 894 293 778 293 L778 293 Z M492 696 L542 696 L542 745 L492 745 L492 696 Z " />
<glyph glyph-name="uni1E04" unicode="&#x1e04;" horiz-adv-x="1259" d="M619 -185 L669 -185 L669 -136 L619 -136 L619 -185 Z M129 0 L943 0 C1109 0 1172 79 1172 180 C1172 267 1123 341 999 357 C1086 380 1122 446 1122 522 C1122 621 1059 700 894 700 L129 700 L129 0 Z M938 336 C1084 336 1137 267 1137 183 C1137 97 1084 30 938 30 L162 30 L162 336 L938 336 Z M1088 517 C1088 433 1037 364 899 364 L162 364 L162 670 L889 670 C1031 670 1088 602 1088 517 L1088 517 Z " />
<glyph glyph-name="uni1E05" unicode="&#x1e05;" horiz-adv-x="1085" d="M532 -185 L582 -185 L582 -136 L532 -136 L532 -185 Z M119 0 L817 0 C959 0 1006 63 1006 144 C1006 214 970 273 865 286 C939 305 964 356 964 418 C964 497 916 560 776 560 L119 560 L119 0 Z M812 267 C935 267 972 213 972 147 C972 81 935 28 812 28 L151 28 L151 267 L812 267 Z M778 293 L151 293 L151 532 L770 532 C889 532 931 478 931 413 C931 347 894 293 778 293 L778 293 Z " />
<glyph glyph-name="uni1E06" unicode="&#x1e06;" horiz-adv-x="1259" d="M473 -173 L814 -173 L814 -149 L473 -149 L473 -173 Z M129 0 L943 0 C1109 0 1172 79 1172 180 C1172 267 1123 341 999 357 C1086 380 1122 446 1122 522 C1122 621 1059 700 894 700 L129 700 L129 0 Z M938 336 C1084 336 1137 267 1137 183 C1137 97 1084 30 938 30 L162 30 L162 336 L938 336 Z M1088 517 C1088 433 1037 364 899 364 L162 364 L162 670 L889 670 C1031 670 1088 602 1088 517 L1088 517 Z " />
<glyph glyph-name="uni1E07" unicode="&#x1e07;" horiz-adv-x="1085" d="M386 -173 L727 -173 L727 -149 L386 -149 L386 -173 Z M119 0 L817 0 C959 0 1006 63 1006 144 C1006 214 970 273 865 286 C939 305 964 356 964 418 C964 497 916 560 776 560 L119 560 L119 0 Z M812 267 C935 267 972 213 972 147 C972 81 935 28 812 28 L151 28 L151 267 L812 267 Z M778 293 L151 293 L151 532 L770 532 C889 532 931 478 931 413 C931 347 894 293 778 293 L778 293 Z " />
<glyph glyph-name="uni1E08" unicode="&#x1e08;" horiz-adv-x="1184" d="M607 -88 L621 -88 C695 -88 737 -104 737 -154 C737 -239 585 -223 538 -201 L538 -219 C609 -253 766 -260 766 -154 C766 -82 703 -68 637 -68 L631 -68 L650 0 L1097 0 L1097 30 L524 30 C228 30 117 173 117 350 C117 527 228 670 524 670 L1097 670 L1097 700 L523 700 C206 700 82 543 82 350 C82 157 206 0 523 0 L632 0 L607 -88 Z M592 775 L613 775 L753 946 L708 946 L592 775 Z " />
<glyph glyph-name="uni1E09" unicode="&#x1e09;" horiz-adv-x="1017" d="M513 -88 L527 -88 C601 -88 643 -104 643 -154 C643 -239 491 -223 444 -201 L444 -219 C515 -253 672 -260 672 -154 C672 -82 609 -68 543 -68 L537 -68 L556 0 L938 0 L938 28 L442 28 C193 28 108 141 108 280 C108 419 193 532 442 532 L938 532 L938 560 L442 560 C172 560 75 434 75 280 C75 126 172 0 442 0 L538 0 L513 -88 Z M499 635 L520 635 L660 806 L615 806 L499 635 Z " />
<glyph glyph-name="uni1E0A" unicode="&#x1e0a;" horiz-adv-x="1255" d="M129 0 L732 0 C1049 0 1173 157 1173 350 C1173 543 1049 700 732 700 L129 700 L129 0 Z M731 670 C1027 670 1138 527 1138 350 C1138 173 1027 30 731 30 L162 30 L162 670 L731 670 Z M587 836 L637 836 L637 885 L587 885 L587 836 Z " />
<glyph glyph-name="uni1E0B" unicode="&#x1e0b;" horiz-adv-x="1082" d="M507 696 L557 696 L557 745 L507 745 L507 696 Z M119 0 L640 0 C910 0 1007 126 1007 280 C1007 434 910 560 640 560 L119 560 L119 0 Z M640 532 C889 532 974 419 974 280 C974 141 889 28 640 28 L151 28 L151 532 L640 532 Z " />
<glyph glyph-name="uni1E0C" unicode="&#x1e0c;" horiz-adv-x="1255" d="M129 0 L732 0 C1049 0 1173 157 1173 350 C1173 543 1049 700 732 700 L129 700 L129 0 Z M731 670 C1027 670 1138 527 1138 350 C1138 173 1027 30 731 30 L162 30 L162 670 L731 670 Z M587 -185 L637 -185 L637 -136 L587 -136 L587 -185 Z " />
<glyph glyph-name="uni1E0D" unicode="&#x1e0d;" horiz-adv-x="1082" d="M119 0 L640 0 C910 0 1007 126 1007 280 C1007 434 910 560 640 560 L119 560 L119 0 Z M640 532 C889 532 974 419 974 280 C974 141 889 28 640 28 L151 28 L151 532 L640 532 Z M507 -185 L557 -185 L557 -136 L507 -136 L507 -185 Z " />
<glyph glyph-name="uni1E0E" unicode="&#x1e0e;" horiz-adv-x="1255" d="M129 0 L732 0 C1049 0 1173 157 1173 350 C1173 543 1049 700 732 700 L129 700 L129 0 Z M731 670 C1027 670 1138 527 1138 350 C1138 173 1027 30 731 30 L162 30 L162 670 L731 670 Z M441 -173 L782 -173 L782 -149 L441 -149 L441 -173 Z " />
<glyph glyph-name="uni1E0F" unicode="&#x1e0f;" horiz-adv-x="1082" d="M119 0 L640 0 C910 0 1007 126 1007 280 C1007 434 910 560 640 560 L119 560 L119 0 Z M640 532 C889 532 974 419 974 280 C974 141 889 28 640 28 L151 28 L151 532 L640 532 Z M361 -173 L702 -173 L702 -149 L361 -149 L361 -173 Z " />
<glyph glyph-name="uni1E10" unicode="&#x1e10;" horiz-adv-x="1255" d="M129 0 L732 0 C1049 0 1173 157 1173 350 C1173 543 1049 700 732 700 L129 700 L129 0 Z M731 670 C1027 670 1138 527 1138 350 C1138 173 1027 30 731 30 L162 30 L162 670 L731 670 Z M587 -185 L613 -185 L589 -268 L608 -268 L637 -184 L637 -136 L587 -136 L587 -185 Z " />
<glyph glyph-name="uni1E11" unicode="&#x1e11;" horiz-adv-x="1082" d="M119 0 L640 0 C910 0 1007 126 1007 280 C1007 434 910 560 640 560 L119 560 L119 0 Z M640 532 C889 532 974 419 974 280 C974 141 889 28 640 28 L151 28 L151 532 L640 532 Z M507 -185 L533 -185 L509 -268 L528 -268 L557 -184 L557 -136 L507 -136 L507 -185 Z " />
<glyph glyph-name="uni1E12" unicode="&#x1e12;" horiz-adv-x="1255" d="M129 0 L732 0 C1049 0 1173 157 1173 350 C1173 543 1049 700 732 700 L129 700 L129 0 Z M731 670 C1027 670 1138 527 1138 350 C1138 173 1027 30 731 30 L162 30 L162 670 L731 670 Z M634 -75 L588 -75 L459 -246 L480 -246 L611 -99 L743 -246 L765 -246 L634 -75 Z " />
<glyph glyph-name="uni1E13" unicode="&#x1e13;" horiz-adv-x="1082" d="M119 0 L640 0 C910 0 1007 126 1007 280 C1007 434 910 560 640 560 L119 560 L119 0 Z M640 532 C889 532 974 419 974 280 C974 141 889 28 640 28 L151 28 L151 532 L640 532 Z M554 -75 L508 -75 L379 -246 L400 -246 L531 -99 L663 -246 L685 -246 L554 -75 Z " />
<glyph glyph-name="uni1E14" unicode="&#x1e14;" horiz-adv-x="1199" d="M129 0 L1112 0 L1112 30 L162 30 L162 336 L1010 336 L1010 364 L162 364 L162 670 L1112 670 L1112 700 L129 700 L129 0 Z M439 848 L780 848 L780 872 L439 872 L439 848 Z M543 1113 L498 1113 L638 942 L659 942 L543 1113 Z " />
<glyph glyph-name="uni1E15" unicode="&#x1e15;" horiz-adv-x="1035" d="M119 0 L955 0 L955 28 L151 28 L151 267 L868 267 L868 293 L151 293 L151 532 L955 532 L955 560 L119 560 L119 0 Z M359 708 L700 708 L700 732 L359 732 L359 708 Z M463 973 L418 973 L558 802 L579 802 L463 973 Z " />
<glyph glyph-name="uni1E16" unicode="&#x1e16;" horiz-adv-x="1199" d="M129 0 L1112 0 L1112 30 L162 30 L162 336 L1010 336 L1010 364 L162 364 L162 670 L1112 670 L1112 700 L129 700 L129 0 Z M439 848 L780 848 L780 872 L439 872 L439 848 Z M560 942 L581 942 L721 1113 L676 1113 L560 942 Z " />
<glyph glyph-name="uni1E17" unicode="&#x1e17;" horiz-adv-x="1035" d="M119 0 L955 0 L955 28 L151 28 L151 267 L868 267 L868 293 L151 293 L151 532 L955 532 L955 560 L119 560 L119 0 Z M359 708 L700 708 L700 732 L359 732 L359 708 Z M480 802 L501 802 L641 973 L596 973 L480 802 Z " />
<glyph glyph-name="uni1E18" unicode="&#x1e18;" horiz-adv-x="1199" d="M129 0 L1112 0 L1112 30 L162 30 L162 336 L1010 336 L1010 364 L162 364 L162 670 L1112 670 L1112 700 L129 700 L129 0 Z M631 -75 L585 -75 L456 -246 L477 -246 L608 -99 L740 -246 L762 -246 L631 -75 Z " />
<glyph glyph-name="uni1E19" unicode="&#x1e19;" horiz-adv-x="1035" d="M119 0 L955 0 L955 28 L151 28 L151 267 L868 267 L868 293 L151 293 L151 532 L955 532 L955 560 L119 560 L119 0 Z M551 -75 L505 -75 L376 -246 L397 -246 L528 -99 L660 -246 L682 -246 L551 -75 Z " />
<glyph glyph-name="uni1E1A" unicode="&#x1e1a;" horiz-adv-x="1199" d="M129 0 L1112 0 L1112 30 L162 30 L162 336 L1010 336 L1010 364 L162 364 L162 670 L1112 670 L1112 700 L129 700 L129 0 Z M754 -100 C745 -174 719 -183 688 -183 C635 -183 595 -109 530 -109 C487 -109 456 -131 445 -221 L464 -221 C473 -147 499 -137 530 -137 C583 -137 623 -211 688 -211 C731 -211 763 -190 773 -100 L754 -100 Z " />
<glyph glyph-name="uni1E1B" unicode="&#x1e1b;" horiz-adv-x="1035" d="M119 0 L955 0 L955 28 L151 28 L151 267 L868 267 L868 293 L151 293 L151 532 L955 532 L955 560 L119 560 L119 0 Z M674 -100 C665 -174 639 -183 608 -183 C555 -183 515 -109 450 -109 C407 -109 376 -131 365 -221 L384 -221 C393 -147 419 -137 450 -137 C503 -137 543 -211 608 -211 C651 -211 683 -190 693 -100 L674 -100 Z " />
<glyph glyph-name="uni1E1C" unicode="&#x1e1c;" horiz-adv-x="1199" d="M129 0 L599 0 L574 -88 L588 -88 C662 -88 704 -104 704 -154 C704 -239 552 -223 505 -201 L505 -219 C576 -253 733 -260 733 -154 C733 -82 670 -68 604 -68 L598 -68 L617 0 L1112 0 L1112 30 L162 30 L162 336 L1010 336 L1010 364 L162 364 L162 670 L1112 670 L1112 700 L129 700 L129 0 Z M610 820 C517 820 484 871 480 928 L459 928 C465 862 502 793 610 793 C717 793 754 862 760 928 L740 928 C734 871 703 820 610 820 L610 820 Z " />
<glyph glyph-name="uni1E1D" unicode="&#x1e1d;" horiz-adv-x="1035" d="M119 0 L519 0 L494 -88 L508 -88 C582 -88 624 -104 624 -154 C624 -239 472 -223 425 -201 L425 -219 C496 -253 653 -260 653 -154 C653 -82 590 -68 524 -68 L518 -68 L537 0 L955 0 L955 28 L151 28 L151 267 L868 267 L868 293 L151 293 L151 532 L955 532 L955 560 L119 560 L119 0 Z M530 680 C437 680 404 731 400 788 L379 788 C385 722 422 653 530 653 C637 653 674 722 680 788 L660 788 C654 731 623 680 530 680 L530 680 Z " />
<glyph glyph-name="uni1E1E" unicode="&#x1e1e;" horiz-adv-x="1159" d="M129 0 L162 0 L162 334 L1010 334 L1010 364 L162 364 L162 670 L1112 670 L1112 700 L129 700 L129 0 Z M574 836 L624 836 L624 885 L574 885 L574 836 Z " />
<glyph glyph-name="uni1E1F" unicode="&#x1e1f;" horiz-adv-x="1018" d="M119 0 L151 0 L151 265 L868 265 L868 293 L151 293 L151 532 L955 532 L955 560 L119 560 L119 0 Z M499 696 L549 696 L549 745 L499 745 L499 696 Z " />
<glyph glyph-name="uni1E20" unicode="&#x1e20;" horiz-adv-x="1256" d="M671 336 L1119 336 L1119 30 L524 30 C228 30 117 173 117 350 C117 527 228 670 524 670 L1097 670 L1097 700 L523 700 C206 700 82 543 82 350 C82 157 206 0 523 0 L1152 0 L1152 364 L671 364 L671 336 Z M481 848 L822 848 L822 872 L481 872 L481 848 Z " />
<glyph glyph-name="uni1E21" unicode="&#x1e21;" horiz-adv-x="1082" d="M575 267 L953 267 L953 28 L442 28 C193 28 108 141 108 280 C108 419 193 532 442 532 L938 532 L938 560 L442 560 C172 560 75 434 75 280 C75 126 172 0 442 0 L985 0 L985 293 L575 293 L575 267 Z M381 708 L722 708 L722 732 L381 732 L381 708 Z " />
<glyph glyph-name="uni1E22" unicode="&#x1e22;" horiz-adv-x="1305" d="M1143 0 L1176 0 L1176 700 L1143 700 L1143 365 L162 365 L162 700 L129 700 L129 0 L162 0 L162 335 L1143 335 L1143 0 Z M627 836 L677 836 L677 885 L627 885 L627 836 Z " />
<glyph glyph-name="uni1E23" unicode="&#x1e23;" horiz-adv-x="1129" d="M978 0 L1010 0 L1010 560 L978 560 L978 294 L151 294 L151 560 L119 560 L119 0 L151 0 L151 266 L978 266 L978 0 Z M539 696 L589 696 L589 745 L539 745 L539 696 Z " />
<glyph glyph-name="uni1E24" unicode="&#x1e24;" horiz-adv-x="1305" d="M627 -185 L677 -185 L677 -136 L627 -136 L627 -185 Z M1143 0 L1176 0 L1176 700 L1143 700 L1143 365 L162 365 L162 700 L129 700 L129 0 L162 0 L162 335 L1143 335 L1143 0 Z " />
<glyph glyph-name="uni1E25" unicode="&#x1e25;" horiz-adv-x="1129" d="M539 -185 L589 -185 L589 -136 L539 -136 L539 -185 Z M978 0 L1010 0 L1010 560 L978 560 L978 294 L151 294 L151 560 L119 560 L119 0 L151 0 L151 266 L978 266 L978 0 Z " />
<glyph glyph-name="uni1E26" unicode="&#x1e26;" horiz-adv-x="1305" d="M1143 0 L1176 0 L1176 700 L1143 700 L1143 365 L162 365 L162 700 L129 700 L129 0 L162 0 L162 335 L1143 335 L1143 0 Z M748 836 L798 836 L798 885 L748 885 L748 836 Z M506 836 L556 836 L556 885 L506 885 L506 836 Z " />
<glyph glyph-name="uni1E27" unicode="&#x1e27;" horiz-adv-x="1129" d="M978 0 L1010 0 L1010 560 L978 560 L978 294 L151 294 L151 560 L119 560 L119 0 L151 0 L151 266 L978 266 L978 0 Z M660 696 L710 696 L710 745 L660 745 L660 696 Z M418 696 L468 696 L468 745 L418 745 L418 696 Z " />
<glyph glyph-name="uni1E28" unicode="&#x1e28;" horiz-adv-x="1305" d="M111 -88 L125 -88 C199 -88 241 -104 241 -154 C241 -239 89 -223 42 -201 L42 -219 C113 -253 270 -260 270 -154 C270 -82 207 -68 141 -68 L135 -68 L154 0 L162 0 L162 335 L1143 335 L1143 0 L1176 0 L1176 700 L1143 700 L1143 365 L162 365 L162 700 L129 700 L129 0 L136 0 L111 -88 Z " />
<glyph glyph-name="uni1E29" unicode="&#x1e29;" horiz-adv-x="1129" d="M100 -88 L114 -88 C188 -88 230 -104 230 -154 C230 -239 78 -223 31 -201 L31 -219 C102 -253 259 -260 259 -154 C259 -82 196 -68 130 -68 L124 -68 L143 0 L151 0 L151 266 L978 266 L978 0 L1010 0 L1010 560 L978 560 L978 294 L151 294 L151 560 L119 560 L119 0 L125 0 L100 -88 Z " />
<glyph glyph-name="uni1E2A" unicode="&#x1e2a;" horiz-adv-x="1305" d="M653 -201 C560 -201 527 -150 523 -93 L502 -93 C508 -159 545 -228 653 -228 C760 -228 797 -159 803 -93 L783 -93 C777 -150 746 -201 653 -201 L653 -201 Z M1143 0 L1176 0 L1176 700 L1143 700 L1143 365 L162 365 L162 700 L129 700 L129 0 L162 0 L162 335 L1143 335 L1143 0 Z " />
<glyph glyph-name="uni1E2B" unicode="&#x1e2b;" horiz-adv-x="1129" d="M565 -201 C472 -201 439 -150 435 -93 L414 -93 C420 -159 457 -228 565 -228 C672 -228 709 -159 715 -93 L695 -93 C689 -150 658 -201 565 -201 L565 -201 Z M978 0 L1010 0 L1010 560 L978 560 L978 294 L151 294 L151 560 L119 560 L119 0 L151 0 L151 266 L978 266 L978 0 Z " />
<glyph glyph-name="uni1E2C" unicode="&#x1e2c;" horiz-adv-x="291" d="M291 -100 C282 -174 256 -183 225 -183 C172 -183 132 -109 67 -109 C24 -109 -7 -131 -18 -221 L1 -221 C10 -147 36 -137 67 -137 C120 -137 160 -211 225 -211 C268 -211 300 -190 310 -100 L291 -100 Z M129 0 L162 0 L162 700 L129 700 L129 0 Z " />
<glyph glyph-name="uni1E2D" unicode="&#x1e2d;" horiz-adv-x="270" d="M280 -100 C271 -174 245 -183 214 -183 C161 -183 121 -109 56 -109 C13 -109 -18 -131 -29 -221 L-10 -221 C-1 -147 25 -137 56 -137 C109 -137 149 -211 214 -211 C257 -211 289 -190 299 -100 L280 -100 Z M119 0 L151 0 L151 560 L119 560 L119 0 Z " />
<glyph glyph-name="uni1E2E" unicode="&#x1e2e;" horiz-adv-x="291" d="M129 0 L162 0 L162 700 L129 700 L129 0 Z M242 836 L292 836 L292 885 L242 885 L242 836 Z M0 836 L50 836 L50 885 L0 885 L0 836 Z M96 943 L117 943 L257 1114 L212 1114 L96 943 Z " />
<glyph glyph-name="uni1E2F" unicode="&#x1e2f;" horiz-adv-x="270" d="M119 0 L151 0 L151 560 L119 560 L119 0 Z M231 696 L281 696 L281 745 L231 745 L231 696 Z M-11 696 L39 696 L39 745 L-11 745 L-11 696 Z M85 803 L106 803 L246 974 L201 974 L85 803 Z " />
<glyph glyph-name="uni1E30" unicode="&#x1e30;" horiz-adv-x="1281" d="M1178 700 L1117 700 L162 181 L162 700 L129 700 L129 0 L162 0 L162 147 L541 353 L1206 0 L1269 0 L573 371 L1178 700 Z M550 775 L571 775 L711 946 L666 946 L550 775 Z " />
<glyph glyph-name="uni1E31" unicode="&#x1e31;" horiz-adv-x="1107" d="M1018 560 L955 560 L151 148 L151 560 L119 560 L119 0 L151 0 L151 116 L473 281 L1028 0 L1090 0 L503 296 L1018 560 Z M468 635 L489 635 L629 806 L584 806 L468 635 Z " />
<glyph glyph-name="uni1E32" unicode="&#x1e32;" horiz-adv-x="1281" d="M1178 700 L1117 700 L162 181 L162 700 L129 700 L129 0 L162 0 L162 147 L541 353 L1206 0 L1269 0 L573 371 L1178 700 Z M616 -185 L666 -185 L666 -136 L616 -136 L616 -185 Z " />
<glyph glyph-name="uni1E33" unicode="&#x1e33;" horiz-adv-x="1107" d="M1018 560 L955 560 L151 148 L151 560 L119 560 L119 0 L151 0 L151 116 L473 281 L1028 0 L1090 0 L503 296 L1018 560 Z M527 -185 L577 -185 L577 -136 L527 -136 L527 -185 Z " />
<glyph glyph-name="uni1E34" unicode="&#x1e34;" horiz-adv-x="1281" d="M1178 700 L1117 700 L162 181 L162 700 L129 700 L129 0 L162 0 L162 147 L541 353 L1206 0 L1269 0 L573 371 L1178 700 Z M470 -173 L811 -173 L811 -149 L470 -149 L470 -173 Z " />
<glyph glyph-name="uni1E35" unicode="&#x1e35;" horiz-adv-x="1107" d="M1018 560 L955 560 L151 148 L151 560 L119 560 L119 0 L151 0 L151 116 L473 281 L1028 0 L1090 0 L503 296 L1018 560 Z M381 -173 L722 -173 L722 -149 L381 -149 L381 -173 Z " />
<glyph glyph-name="uni1E36" unicode="&#x1e36;" horiz-adv-x="1129" d="M162 700 L129 700 L129 0 L1092 0 L1092 30 L162 30 L162 700 Z M577 -185 L627 -185 L627 -136 L577 -136 L577 -185 Z " />
<glyph glyph-name="uni1E37" unicode="&#x1e37;" horiz-adv-x="988" d="M151 560 L119 560 L119 0 L938 0 L938 28 L151 28 L151 560 Z M503 -185 L553 -185 L553 -136 L503 -136 L503 -185 Z " />
<glyph glyph-name="uni1E38" unicode="&#x1e38;" horiz-adv-x="1129" d="M162 700 L129 700 L129 0 L1092 0 L1092 30 L162 30 L162 700 Z M577 -185 L627 -185 L627 -136 L577 -136 L577 -185 Z M6 848 L347 848 L347 872 L6 872 L6 848 Z " />
<glyph glyph-name="uni1E39" unicode="&#x1e39;" horiz-adv-x="988" d="M151 560 L119 560 L119 0 L938 0 L938 28 L151 28 L151 560 Z M503 -185 L553 -185 L553 -136 L503 -136 L503 -185 Z M-5 708 L336 708 L336 732 L-5 732 L-5 708 Z " />
<glyph glyph-name="uni1E3A" unicode="&#x1e3a;" horiz-adv-x="1129" d="M162 700 L129 700 L129 0 L1092 0 L1092 30 L162 30 L162 700 Z M431 -173 L772 -173 L772 -149 L431 -149 L431 -173 Z " />
<glyph glyph-name="uni1E3B" unicode="&#x1e3b;" horiz-adv-x="988" d="M151 560 L119 560 L119 0 L938 0 L938 28 L151 28 L151 560 Z M357 -173 L698 -173 L698 -149 L357 -149 L357 -173 Z " />
<glyph glyph-name="uni1E3C" unicode="&#x1e3c;" horiz-adv-x="1129" d="M162 700 L129 700 L129 0 L1092 0 L1092 30 L162 30 L162 700 Z M624 -75 L578 -75 L449 -246 L470 -246 L601 -99 L733 -246 L755 -246 L624 -75 Z " />
</font>
</svg>
