<?xml version="1.0" encoding="UTF-8"?>
<svg xmlns="http://www.w3.org/2000/svg" xmlns:xlink="http://www.w3.org/1999/xlink" version="1.2" >
<font id="Stereo Gothic 950 Italic">
<font-face  font-family="Stereo Gothic" units-per-em="1000" ascent="700" descent="-300" font-style="italic" font-weight="950" font-stretch="normal" slope="-10" cap-height="700" x-height="560" underline-position="-75" underline-thickness="50" />
<missing-glyph  horiz-adv-x="1000" d="M152 0 L852 0 L852 700 L152 700 L152 0 Z M225 633 L734 633 L225 124 L225 633 Z M270 66 L779 576 L779 66 L270 66 Z " />
<glyph glyph-name="NULL" d="" />
<glyph glyph-name="CR" unicode="&#xd;" horiz-adv-x="250" d="" />
<glyph glyph-name="space" unicode="&#x20;" horiz-adv-x="480" d="" />
<glyph glyph-name="exclam" unicode="&#x21;" horiz-adv-x="403" d="M99 267 L279 267 L370 700 L168 700 L99 267 Z M42 0 L246 0 L282 207 L79 207 L42 0 Z " />
<glyph glyph-name="quotedbl" unicode="&#x22;" horiz-adv-x="666" d="M125 400 L275 400 L357 700 L152 700 L125 400 Z M419 400 L570 400 L654 700 L447 700 L419 400 Z " />
<glyph glyph-name="numbersign" unicode="&#x23;" horiz-adv-x="1245" d="M725 0 L913 0 L944 119 L1099 119 L1127 290 L992 290 L1026 410 L1178 410 L1210 581 L1075 581 L1108 700 L920 700 L889 581 L490 581 L524 700 L337 700 L304 581 L151 581 L119 410 L255 410 L221 290 L68 290 L40 119 L173 119 L142 0 L329 0 L360 119 L758 119 L725 0 Z M443 410 L838 410 L805 290 L407 290 L443 410 Z " />
<glyph glyph-name="dollar" unicode="&#x24;" horiz-adv-x="1245" d="M464 -20 L652 -20 L669 70 L870 70 C1052 70 1120 167 1120 275 C1120 360 1069 414 929 414 L728 414 L737 459 L1121 459 L1155 630 L769 630 L786 721 L598 721 L581 630 L380 630 C197 630 129 531 129 422 C129 340 184 285 323 285 L526 285 L513 241 L129 241 L95 70 L481 70 L464 -20 Z M360 412 C329 412 328 425 328 432 C327 447 336 459 387 459 L552 459 L543 412 L360 412 Z M891 288 C922 288 923 275 923 268 C924 253 915 241 864 241 L699 241 L708 288 L891 288 Z " />
<glyph glyph-name="percent" unicode="&#x25;" horiz-adv-x="1245" d="M948 700 L101 0 L304 0 L1150 700 L948 700 Z M615 576 C627 645 599 700 491 700 L292 700 C184 700 138 654 125 576 L106 474 C93 405 122 350 232 350 L430 350 C538 350 584 395 597 474 L615 576 Z M236 561 C238 582 253 593 279 593 L470 593 C496 593 502 582 498 561 L485 487 C481 466 468 456 441 456 L250 456 C225 456 221 467 224 487 L236 561 Z M1141 226 C1153 295 1125 350 1017 350 L818 350 C710 350 664 304 651 226 L632 124 C619 55 648 0 758 0 L956 0 C1064 0 1110 45 1123 124 L1141 226 Z M762 211 C764 232 779 243 805 243 L996 243 C1022 243 1028 232 1024 211 L1011 137 C1007 116 994 106 967 106 L776 106 C751 106 747 117 750 137 L762 211 Z " />
<glyph glyph-name="ampersand" unicode="&#x26;" horiz-adv-x="1262" d="M248 0 L913 0 C1064 0 1128 82 1128 176 C1128 210 1121 245 1101 265 L1191 265 L1223 434 L428 434 C378 434 368 447 368 464 C368 482 382 510 438 510 L1017 510 L1050 700 L412 700 C229 700 156 600 156 488 C156 438 179 392 216 364 C93 330 49 246 49 159 C49 69 103 0 248 0 L248 0 Z M851 190 L341 190 C292 190 283 201 283 219 C283 236 299 265 353 265 L879 265 C918 265 924 249 924 236 C924 212 909 190 851 190 L851 190 Z " />
<glyph glyph-name="quotesingle" unicode="&#x27;" horiz-adv-x="374" d="M125 400 L275 400 L357 700 L152 700 L125 400 Z " />
<glyph glyph-name="parenleft" unicode="&#x28;" horiz-adv-x="501" d="M377 -116 C227 161 296 538 545 815 L373 815 C68 547 -3 153 206 -116 L377 -116 Z " />
<glyph glyph-name="parenright" unicode="&#x29;" horiz-adv-x="501" d="M134 -116 C439 153 511 547 302 815 L130 815 C282 538 213 161 -38 -116 L134 -116 Z " />
<glyph glyph-name="asterisk" unicode="&#x2a;" horiz-adv-x="579" d="M561 442 L508 626 L363 532 L407 700 L215 700 L255 531 L111 625 L49 442 L219 428 L86 323 L239 209 L305 365 L365 210 L523 323 L394 427 L561 442 Z " />
<glyph glyph-name="plus" unicode="&#x2b;" horiz-adv-x="1245" d="M268 255 L521 255 L521 30 L728 30 L728 255 L982 255 L982 445 L728 445 L728 670 L521 670 L521 445 L268 445 L268 255 Z " />
<glyph glyph-name="comma" unicode="&#x2c;" horiz-adv-x="365" d="M24 0 L110 0 L-11 -181 L79 -181 L233 17 L269 207 L62 207 L24 0 Z " />
<glyph glyph-name="hyphen" unicode="&#x2d;" horiz-adv-x="576" d="M51 185 L469 185 L504 375 L86 375 L51 185 Z " />
<glyph glyph-name="period" unicode="&#x2e;" horiz-adv-x="365" d="M24 0 L230 0 L269 207 L62 207 L24 0 Z " />
<glyph glyph-name="slash" unicode="&#x2f;" horiz-adv-x="606" d="M-101 -76 L81 -76 L719 777 L533 777 L-101 -76 Z " />
<glyph glyph-name="zero" unicode="0" horiz-adv-x="1245" d="M73 248 C49 111 111 0 328 0 L810 0 C1028 0 1117 100 1142 242 L1178 452 C1201 589 1139 700 923 700 L440 700 C221 700 134 599 109 457 L73 248 Z M898 510 C977 510 973 475 967 443 L934 256 C926 219 908 190 838 190 L351 190 C271 190 278 225 283 255 L316 443 C322 480 341 510 412 510 L898 510 Z " />
<glyph glyph-name="one" unicode="1" horiz-adv-x="1245" d="M386 510 L606 510 L550 190 L187 190 L152 0 L974 0 L1009 190 L759 190 L849 700 L422 700 L386 510 Z " />
<glyph glyph-name="two" unicode="2" horiz-adv-x="1245" d="M1112 190 L271 190 L276 220 C281 239 293 265 341 265 L881 265 C1110 265 1198 384 1198 517 C1198 620 1132 700 959 700 L192 700 L156 510 L920 510 C969 510 975 491 975 478 C975 457 963 434 910 434 L365 434 C183 434 88 345 67 222 L29 0 L1078 0 L1112 190 Z " />
<glyph glyph-name="three" unicode="3" horiz-adv-x="1245" d="M9 0 L873 0 C1065 0 1139 106 1139 222 C1139 287 1110 343 1036 366 C1114 406 1151 475 1151 554 C1151 636 1097 700 960 700 L154 700 L118 510 L866 510 C915 510 924 498 924 480 C924 461 909 434 854 434 L191 434 L158 265 L862 265 C912 265 922 248 922 232 C922 216 907 190 852 190 L43 190 L9 0 Z " />
<glyph glyph-name="four" unicode="4" horiz-adv-x="1245" d="M957 700 L48 265 L18 108 L839 108 L822 0 L1028 0 L1045 108 L1152 108 L1185 296 L1079 296 L1153 700 L957 700 Z M467 296 L911 500 L874 296 L467 296 Z " />
<glyph glyph-name="five" unicode="5" horiz-adv-x="1245" d="M74 265 L876 265 C925 265 932 248 932 231 C932 211 918 190 863 190 L80 190 L46 0 L835 0 C1058 0 1149 112 1149 249 C1149 355 1086 434 913 434 L315 434 L333 510 L1158 510 L1194 700 L187 700 L74 265 Z " />
<glyph glyph-name="six" unicode="6" horiz-adv-x="1245" d="M548 510 L1148 510 L1184 700 L566 700 C262 700 127 566 93 366 L73 248 C49 111 111 0 327 0 L850 0 C1072 0 1164 111 1164 249 C1164 356 1099 434 927 434 L462 434 C395 434 344 418 309 391 C348 467 393 510 548 510 L548 510 Z M344 265 L890 265 C938 265 943 248 943 231 C943 212 932 190 877 190 L350 190 C288 190 278 211 280 235 C286 251 297 265 344 265 L344 265 Z " />
<glyph glyph-name="seven" unicode="7" horiz-adv-x="1245" d="M533 0 L1199 536 L1232 700 L135 700 L99 510 L881 510 L217 0 L533 0 Z " />
<glyph glyph-name="eight" unicode="8" horiz-adv-x="1245" d="M236 0 L889 0 C1081 0 1155 106 1155 222 C1155 287 1126 343 1052 366 C1130 406 1167 475 1167 554 C1167 636 1113 700 976 700 L401 700 C217 700 144 600 144 488 C144 438 161 392 204 364 C81 330 37 246 37 159 C37 69 91 0 236 0 L236 0 Z M867 190 L328 190 C279 190 269 201 269 219 C269 236 284 265 340 265 L877 265 C928 265 938 248 938 232 C938 215 924 190 867 190 L867 190 Z M869 435 L414 435 C365 435 355 446 355 464 C355 481 370 510 426 510 L879 510 C930 510 940 493 940 477 C940 460 926 435 869 435 L869 435 Z " />
<glyph glyph-name="nine" unicode="9" horiz-adv-x="1245" d="M703 190 L103 190 L67 0 L685 0 C987 0 1122 133 1158 334 L1178 452 C1201 589 1139 700 924 700 L401 700 C178 700 89 588 86 450 C82 343 151 265 323 265 L788 265 C856 265 906 282 940 308 C901 231 855 190 703 190 L703 190 Z M360 434 C312 434 307 451 307 468 C307 487 318 509 373 509 L900 509 C962 509 972 488 970 464 C964 448 953 434 906 434 L360 434 Z " />
<glyph glyph-name="colon" unicode="&#x3a;" horiz-adv-x="365" d="M84 352 L291 352 L329 560 L123 560 L84 352 Z M24 0 L230 0 L269 207 L62 207 L24 0 Z " />
<glyph glyph-name="semicolon" unicode="&#x3b;" horiz-adv-x="365" d="M24 0 L110 0 L-11 -181 L79 -181 L233 17 L269 207 L62 207 L24 0 Z M84 352 L291 352 L329 560 L123 560 L84 352 Z " />
<glyph glyph-name="less" unicode="&#x3c;" horiz-adv-x="1245" d="M972 198 L538 349 L972 502 L972 709 L278 448 L278 250 L972 -9 L972 198 Z " />
<glyph glyph-name="equal" unicode="&#x3d;" horiz-adv-x="1245" d="M268 87 L982 87 L982 277 L268 277 L268 87 Z M268 423 L982 423 L982 613 L268 613 L268 423 Z " />
<glyph glyph-name="greater" unicode="&#x3e;" horiz-adv-x="1245" d="M278 -9 L972 250 L972 448 L278 709 L278 502 L712 349 L278 198 L278 -9 Z " />
<glyph glyph-name="question" unicode="&#x3f;" horiz-adv-x="1026" d="M239 270 L720 270 C951 270 1035 384 1035 517 C1035 620 969 700 796 700 L85 700 L49 510 L757 510 C805 510 811 490 811 476 C811 454 800 430 742 430 L267 430 L239 270 Z M179 0 L387 0 L424 207 L218 207 L179 0 Z " />
<glyph glyph-name="at" unicode="&#x40;" horiz-adv-x="1341" d="M695 420 L623 420 C405 420 319 298 319 169 C319 69 382 -10 545 -10 L645 -10 C711 -10 769 13 803 47 L818 0 L1132 0 C1226 90 1267 191 1267 309 C1267 492 1154 635 857 635 L641 635 C210 635 34 394 34 129 C34 -69 164 -224 487 -224 L653 -224 L678 -79 L509 -79 C277 -79 211 26 211 157 C211 325 306 489 622 489 L763 489 C961 489 1091 455 1091 289 C1091 225 1069 167 1057 145 L940 145 L988 410 L883 410 L859 357 C834 396 770 420 695 420 L695 420 Z M572 135 C502 135 490 160 490 191 C490 236 521 274 597 274 L696 274 C770 274 788 251 788 219 C788 182 782 135 674 135 L572 135 Z " />
<glyph glyph-name="A" unicode="A" horiz-adv-x="1244" d="M943 0 L1186 0 L798 700 L580 700 L-60 0 L203 0 L295 104 L887 104 L943 0 Z M664 518 L794 274 L447 274 L664 518 Z " />
<glyph glyph-name="B" unicode="B" horiz-adv-x="1208" d="M48 0 L851 0 C1043 0 1117 106 1117 222 C1117 287 1090 343 1015 366 C1094 406 1130 475 1130 554 C1130 636 1076 700 939 700 L173 700 L48 0 Z M840 265 C890 265 900 248 900 232 C900 216 885 190 830 190 L291 190 L302 265 L840 265 Z M903 480 C903 461 888 434 831 434 L334 434 L346 510 L845 510 C894 510 903 498 903 480 L903 480 Z " />
<glyph glyph-name="C" unicode="C" horiz-adv-x="1136" d="M282 321 C282 398 308 510 521 510 L1099 510 L1134 700 L540 700 C194 700 57 507 57 296 C57 130 158 0 426 0 L1009 0 L1042 190 L460 190 C315 190 282 247 282 321 L282 321 Z " />
<glyph glyph-name="D" unicode="D" horiz-adv-x="1204" d="M48 0 L667 0 C1011 0 1150 193 1150 404 C1150 570 1049 700 781 700 L173 700 L48 0 Z M746 510 C891 510 925 453 925 378 C925 301 898 190 685 190 L288 190 L344 510 L746 510 Z " />
<glyph glyph-name="E" unicode="E" horiz-adv-x="1150" d="M48 0 L1024 0 L1059 190 L292 190 L302 265 L971 265 L1003 434 L334 434 L346 510 L1113 510 L1149 700 L173 700 L48 0 Z " />
<glyph glyph-name="F" unicode="F" horiz-adv-x="1112" d="M48 0 L257 0 L299 240 L968 240 L1002 430 L333 430 L346 510 L1113 510 L1149 700 L173 700 L48 0 Z " />
<glyph glyph-name="G" unicode="G" horiz-adv-x="1205" d="M614 265 L907 265 L894 190 L460 190 C315 190 282 247 282 321 C282 398 305 510 521 510 L1099 510 L1134 700 L540 700 C194 700 57 507 57 296 C57 130 158 0 426 0 L1062 0 L1139 434 L647 434 L614 265 Z " />
<glyph glyph-name="H" unicode="H" horiz-adv-x="1252" d="M876 0 L1085 0 L1210 700 L1001 700 L956 445 L336 445 L382 700 L173 700 L48 0 L257 0 L300 255 L920 255 L876 0 Z " />
<glyph glyph-name="I" unicode="I" horiz-adv-x="424" d="M48 0 L257 0 L382 700 L173 700 L48 0 Z " />
<glyph glyph-name="J" unicode="J" horiz-adv-x="1161" d="M296 -5 L651 -5 C925 -5 1034 105 1069 303 L1139 700 L930 700 L862 336 C845 237 791 185 678 185 L329 185 C229 185 217 219 228 275 L240 344 L31 344 L19 275 C-10 124 56 -5 296 -5 L296 -5 Z " />
<glyph glyph-name="K" unicode="K" horiz-adv-x="1251" d="M1234 700 L875 700 L317 354 L378 700 L173 700 L48 0 L253 0 L277 129 L548 291 L880 0 L1197 0 L724 395 L1234 700 Z " />
<glyph glyph-name="L" unicode="L" horiz-adv-x="1083" d="M382 700 L173 700 L48 0 L1005 0 L1039 190 L292 190 L382 700 Z " />
<glyph glyph-name="M" unicode="M" horiz-adv-x="1401" d="M1147 700 L681 299 L360 700 L173 700 L48 0 L257 0 L327 412 L642 14 L1095 412 L1025 0 L1234 0 L1359 700 L1147 700 Z " />
<glyph glyph-name="N" unicode="N" horiz-adv-x="1256" d="M892 0 L1089 0 L1214 700 L1007 700 L923 228 L370 700 L173 700 L48 0 L257 0 L340 472 L892 0 Z " />
<glyph glyph-name="O" unicode="O" horiz-adv-x="1293" d="M737 -10 C1100 -10 1240 175 1240 403 C1240 577 1133 710 861 710 L561 710 C198 710 57 526 57 295 C57 122 167 -10 438 -10 L737 -10 Z M478 180 C324 180 282 240 282 319 C282 408 320 520 546 520 L819 520 C971 520 1015 459 1015 380 C1015 283 967 180 751 180 L478 180 Z " />
<glyph glyph-name="P" unicode="P" horiz-adv-x="1147" d="M48 0 L257 0 L295 215 L808 215 C1052 215 1153 338 1153 496 C1153 609 1085 700 894 700 L173 700 L48 0 Z M854 510 C919 510 932 492 932 465 C932 434 909 405 838 405 L330 405 L346 510 L854 510 Z " />
<glyph glyph-name="Q" unicode="Q" horiz-adv-x="1293" d="M737 -10 C757 -10 777 -10 796 -9 L913 -110 L1218 -110 L1027 45 C1177 117 1240 250 1240 403 C1240 577 1133 710 861 710 L561 710 C198 710 57 526 57 295 C57 122 167 -10 438 -10 L737 -10 Z M478 180 C324 180 282 240 282 319 C282 408 320 520 546 520 L819 520 C971 520 1015 459 1015 380 C1015 283 967 180 751 180 L478 180 Z " />
<glyph glyph-name="R" unicode="R" horiz-adv-x="1229" d="M48 0 L253 0 L293 218 L607 218 L859 0 L1174 0 L892 226 C1068 253 1146 362 1146 497 C1146 610 1074 700 888 700 L173 700 L48 0 Z M849 510 C913 510 926 492 926 466 C926 430 903 401 825 401 L325 401 L344 510 L849 510 Z " />
<glyph glyph-name="S" unicode="S" horiz-adv-x="1158" d="M794 190 L74 190 L38 0 L766 0 C989 0 1081 111 1081 249 C1081 356 1013 434 843 434 L356 434 C308 434 303 452 303 468 C303 489 315 510 369 510 L1090 510 L1126 700 L397 700 C174 700 82 588 82 450 C82 343 148 265 319 265 L807 265 C855 265 860 248 860 231 C860 211 849 190 794 190 L794 190 Z " />
<glyph glyph-name="T" unicode="T" horiz-adv-x="1136" d="M49 510 L494 510 L404 0 L611 0 L703 510 L1147 510 L1182 700 L85 700 L49 510 Z " />
<glyph glyph-name="U" unicode="U" horiz-adv-x="1223" d="M294 323 L363 700 L154 700 L85 323 C50 130 126 -10 408 -10 L711 -10 C985 -10 1097 114 1131 305 L1201 700 L992 700 L926 338 C908 239 853 180 740 180 L431 180 C303 180 280 240 294 323 L294 323 Z " />
<glyph glyph-name="V" unicode="V" horiz-adv-x="1244" d="M675 0 L1312 700 L1039 700 L588 180 L321 700 L65 700 L454 0 L675 0 Z " />
<glyph glyph-name="W" unicode="W" horiz-adv-x="1552" d="M791 439 L940 0 L1094 0 L1607 700 L1343 700 L1051 261 L906 700 L752 700 L454 261 L317 700 L77 700 L339 0 L493 0 L791 439 Z " />
<glyph glyph-name="X" unicode="X" horiz-adv-x="1177" d="M71 700 L437 352 L-59 0 L283 0 L584 241 L799 0 L1119 0 L749 352 L1239 700 L896 700 L599 463 L390 700 L71 700 Z " />
<glyph glyph-name="Y" unicode="Y" horiz-adv-x="1208" d="M440 0 L649 0 L686 213 L1284 700 L967 700 L602 378 L345 700 L56 700 L477 213 L440 0 Z " />
<glyph glyph-name="Z" unicode="Z" horiz-adv-x="1157" d="M5 0 L1048 0 L1083 190 L456 190 L1127 555 L1148 700 L135 700 L99 510 L696 510 L25 144 L5 0 Z " />
<glyph glyph-name="bracketleft" unicode="&#x5b;" horiz-adv-x="501" d="M29 -150 L378 -150 L405 2 L265 2 L386 698 L528 698 L557 850 L207 850 L29 -150 Z " />
<glyph glyph-name="backslash" unicode="&#x5c;" horiz-adv-x="606" d="M228 777 L62 777 L388 -76 L556 -76 L228 777 Z " />
<glyph glyph-name="bracketright" unicode="&#x5d;" horiz-adv-x="501" d="M480 850 L131 850 L104 698 L245 698 L122 2 L-21 2 L-48 -150 L301 -150 L480 850 Z " />
<glyph glyph-name="asciicircum" unicode="&#x5e;" horiz-adv-x="1245" d="M788 350 L1044 350 L736 800 L513 800 L206 350 L461 350 L625 616 L788 350 Z " />
<glyph glyph-name="underscore" unicode="&#x5f;" horiz-adv-x="500" d="M-60 -197 L440 -197 L440 -32 L-60 -32 L-60 -197 Z " />
<glyph glyph-name="grave" unicode="&#x60;" horiz-adv-x="480" d="M343 806 L124 806 L272 635 L401 635 L343 806 Z " />
<glyph glyph-name="a" unicode="a" horiz-adv-x="1063" d="M785 0 L1005 0 L670 560 L475 560 L-59 0 L175 0 L256 88 L734 88 L785 0 Z M551 408 L653 227 L385 227 L551 408 Z " />
<glyph glyph-name="b" unicode="b" horiz-adv-x="1037" d="M38 0 L726 0 C890 0 947 86 947 174 C947 229 920 274 856 294 C919 327 952 379 952 442 C952 510 910 560 795 560 L137 560 L38 0 Z M251 159 L259 211 L712 211 C747 211 753 203 753 193 C753 175 743 159 702 159 L251 159 Z M710 400 C745 400 751 392 751 382 C751 364 741 348 700 348 L284 348 L292 400 L710 400 Z " />
<glyph glyph-name="c" unicode="c" horiz-adv-x="971" d="M238 253 C238 330 306 400 437 400 L923 400 L954 560 L449 560 C148 560 41 400 41 232 C41 102 123 0 348 0 L853 0 L882 159 L368 159 C268 159 238 192 238 253 L238 253 Z " />
<glyph glyph-name="d" unicode="d" horiz-adv-x="1034" d="M38 0 L567 0 C868 0 975 160 975 328 C975 457 891 560 668 560 L139 560 L38 0 Z M648 400 C748 400 778 367 778 307 C778 229 708 159 577 159 L252 159 L293 400 L648 400 Z " />
<glyph glyph-name="e" unicode="e" horiz-adv-x="989" d="M38 0 L869 0 L897 159 L251 159 L259 211 L820 211 L845 348 L284 348 L292 400 L938 400 L968 560 L137 560 L38 0 Z " />
<glyph glyph-name="f" unicode="f" horiz-adv-x="972" d="M38 0 L223 0 L255 187 L816 187 L845 346 L284 346 L292 400 L938 400 L968 560 L137 560 L38 0 Z " />
<glyph glyph-name="g" unicode="g" horiz-adv-x="1033" d="M348 0 L897 0 L957 348 L538 348 L510 211 L752 211 L746 159 L368 159 C268 159 238 192 238 253 C238 330 306 400 437 400 L922 400 L952 560 L449 560 C148 560 41 400 41 232 C41 102 123 0 348 0 L348 0 Z " />
<glyph glyph-name="h" unicode="h" horiz-adv-x="1078" d="M736 0 L921 0 L1020 560 L835 560 L801 360 L287 360 L322 560 L137 560 L38 0 L223 0 L258 200 L769 200 L736 0 Z " />
<glyph glyph-name="i" unicode="i" horiz-adv-x="380" d="M38 0 L223 0 L322 560 L137 560 L38 0 Z " />
<glyph glyph-name="j" unicode="j" horiz-adv-x="997" d="M244 -4 L560 -4 C773 -4 874 84 902 242 L959 560 L774 560 L719 260 C706 185 657 155 571 155 L254 155 C189 155 185 186 190 220 L201 277 L18 277 L9 220 C-12 97 36 -4 244 -4 L244 -4 Z " />
<glyph glyph-name="k" unicode="k" horiz-adv-x="1077" d="M1049 560 L719 560 L273 292 L322 560 L137 560 L38 0 L223 0 L239 96 L463 226 L734 0 L1019 0 L621 315 L1049 560 Z " />
<glyph glyph-name="l" unicode="l" horiz-adv-x="943" d="M322 560 L137 560 L38 0 L853 0 L881 159 L251 159 L322 560 Z " />
<glyph glyph-name="m" unicode="m" horiz-adv-x="1205" d="M960 560 L578 249 L303 560 L137 560 L38 0 L223 0 L277 317 L544 9 L918 317 L863 0 L1048 0 L1147 560 L960 560 Z " />
<glyph glyph-name="n" unicode="n" horiz-adv-x="1083" d="M926 0 L1025 560 L841 560 L778 195 L312 560 L137 560 L38 0 L223 0 L286 365 L751 0 L926 0 Z " />
<glyph glyph-name="o" unicode="o" horiz-adv-x="1105" d="M625 -8 C930 -8 1040 152 1045 326 C1049 461 963 568 729 568 L460 568 C155 568 44 408 41 234 C37 99 121 -8 356 -8 L625 -8 Z M388 151 C264 151 236 196 237 253 C238 322 294 408 430 408 L698 408 C819 408 849 364 849 306 C849 240 791 151 656 151 L388 151 Z " />
<glyph glyph-name="p" unicode="p" horiz-adv-x="995" d="M38 0 L223 0 L251 168 L684 168 C897 168 972 278 972 392 C972 485 916 560 755 560 L137 560 L38 0 Z M720 400 C769 400 776 388 776 371 C776 353 768 328 707 328 L280 328 L292 400 L720 400 Z " />
<glyph glyph-name="q" unicode="q" horiz-adv-x="1105" d="M625 -8 C638 -8 649 -8 660 -8 L750 -88 L1024 -88 L861 36 C989 96 1042 208 1045 326 C1049 461 963 568 729 568 L460 568 C155 568 44 408 41 234 C37 99 121 -8 356 -8 L625 -8 Z M388 151 C264 151 236 196 237 253 C238 322 294 408 430 408 L698 408 C819 408 849 364 849 306 C849 240 791 151 656 151 L388 151 Z " />
<glyph glyph-name="r" unicode="r" horiz-adv-x="1061" d="M38 0 L223 0 L253 171 L516 171 L718 0 L998 0 L768 178 C913 203 970 296 970 394 C970 485 911 560 751 560 L139 560 L38 0 Z M716 400 C768 400 774 383 774 368 C774 351 764 325 701 325 L280 325 L293 400 L716 400 Z " />
<glyph glyph-name="s" unicode="s" horiz-adv-x="988" d="M669 159 L53 159 L25 0 L649 0 C846 0 911 92 911 204 C911 287 856 346 712 346 L292 346 C257 346 251 360 251 369 C251 381 258 400 298 400 L914 400 L945 560 L321 560 C121 560 58 467 58 357 C58 273 111 213 257 213 L678 213 C713 213 718 199 718 190 C718 179 709 159 669 159 L669 159 Z " />
<glyph glyph-name="t" unicode="t" horiz-adv-x="995" d="M40 400 L416 400 L346 0 L531 0 L600 400 L974 400 L1004 560 L71 560 L40 400 Z " />
<glyph glyph-name="u" unicode="u" horiz-adv-x="1047" d="M248 258 L300 560 L118 560 L64 258 C36 104 85 -8 340 -8 L609 -8 C822 -8 923 81 951 238 L1008 560 L824 560 L769 256 C756 181 708 151 622 151 L374 151 C245 151 236 186 248 258 L248 258 Z " />
<glyph glyph-name="v" unicode="v" horiz-adv-x="1063" d="M571 0 L1104 560 L865 560 L494 152 L267 560 L40 560 L376 0 L571 0 Z " />
<glyph glyph-name="w" unicode="w" horiz-adv-x="1325" d="M661 340 L789 0 L925 0 L1353 560 L1125 560 L886 219 L763 560 L627 560 L385 219 L265 560 L51 560 L281 0 L417 0 L661 340 Z " />
<glyph glyph-name="x" unicode="x" horiz-adv-x="1014" d="M50 560 L361 282 L-53 0 L249 0 L492 184 L671 0 L949 0 L634 282 L1045 560 L742 560 L505 378 L329 560 L50 560 Z " />
<glyph glyph-name="y" unicode="y" horiz-adv-x="1026" d="M362 0 L546 0 L576 171 L1076 560 L795 560 L498 307 L285 560 L30 560 L392 171 L362 0 Z " />
<glyph glyph-name="z" unicode="z" horiz-adv-x="989" d="M-2 0 L887 0 L915 159 L397 159 L946 437 L963 560 L101 560 L70 400 L561 400 L14 122 L-2 0 Z " />
<glyph glyph-name="braceleft" unicode="&#x7b;" horiz-adv-x="501" d="M174 457 C170 441 171 426 140 426 L54 426 L26 274 L114 274 C144 274 140 256 137 242 L91 -11 C78 -87 110 -150 232 -150 L380 -150 L406 2 L331 2 C300 2 304 17 307 33 L341 222 C351 278 327 334 263 350 C343 363 373 405 383 463 L419 666 C423 680 421 698 450 698 L530 698 L557 850 L406 850 C282 850 232 787 219 711 L174 457 Z " />
<glyph glyph-name="bar" unicode="&#x7c;" horiz-adv-x="500" d="M164 850 L164 -150 L339 -150 L339 850 L164 850 Z " />
<glyph glyph-name="braceright" unicode="&#x7d;" horiz-adv-x="501" d="M335 242 C336 258 337 274 368 274 L454 274 L482 426 L395 426 C364 426 368 443 372 457 L417 711 C430 787 398 850 276 850 L129 850 L102 698 L178 698 C208 698 204 682 201 666 L167 477 C157 421 181 365 245 350 C166 336 136 294 125 236 L89 33 C86 19 87 2 56 2 L-22 2 L-48 -150 L103 -150 C224 -150 276 -87 289 -11 L335 242 Z " />
<glyph glyph-name="asciitilde" unicode="&#x7e;" horiz-adv-x="1245" d="M982 488 C718 265 547 643 268 430 L268 235 C532 458 704 80 982 293 L982 488 Z " />
<glyph glyph-name="uni00A0" unicode="&#xa0;" horiz-adv-x="480" d="" />
<glyph glyph-name="exclamdown" unicode="&#xa1;" horiz-adv-x="403" d="M374 700 L170 700 L132 492 L337 492 L374 700 Z M317 433 L135 433 L46 0 L248 0 L317 433 Z " />
<glyph glyph-name="cent" unicode="&#xa2;" horiz-adv-x="1245" d="M1120 297 L724 297 L760 403 L1135 403 L1169 574 L830 574 L886 721 L699 721 L643 574 L432 574 C206 574 116 449 116 316 C116 212 191 126 355 126 L471 126 L414 -20 L601 -20 L658 126 L1088 126 L1120 297 Z M315 339 C316 381 355 403 424 403 L574 403 L538 297 L393 297 C336 297 315 306 315 339 L315 339 Z " />
<glyph glyph-name="sterling" unicode="&#xa3;" horiz-adv-x="1245" d="M754 434 L456 434 L458 443 C464 475 478 510 553 510 L1053 510 L1088 700 L567 700 C377 700 276 595 252 463 L247 434 L125 434 L93 265 L216 265 L215 245 C208 204 176 180 138 180 L80 180 L48 0 L1078 0 L1113 190 L357 190 C395 206 426 239 431 284 L425 265 L721 265 L754 434 Z " />
<glyph glyph-name="currency" unicode="&#xa4;" horiz-adv-x="1245" d="M707 63 C779 63 839 75 893 93 L965 -14 L1132 116 L1040 194 C1085 240 1108 322 1109 393 C1112 423 1112 460 1104 488 L1215 558 L1076 710 L986 606 C942 628 882 636 811 636 L543 636 C472 636 408 624 357 607 L283 717 L117 579 L207 499 C146 425 140 344 138 306 C137 275 139 239 146 211 L33 126 L159 -16 L257 92 C303 73 367 63 441 63 L707 63 Z M352 330 C352 371 344 453 507 453 L775 453 C875 453 895 417 895 368 C895 328 903 246 740 246 L472 246 C375 246 352 282 352 330 L352 330 Z " />
<glyph glyph-name="yen" unicode="&#xa5;" horiz-adv-x="1245" d="M935 700 L629 434 L417 700 L129 700 L334 477 L118 477 L88 317 L468 317 L506 269 L502 241 L74 241 L45 81 L470 81 L459 0 L666 0 L679 81 L1107 81 L1136 241 L711 241 L715 269 L769 317 L1149 317 L1179 477 L961 477 L1246 700 L935 700 Z " />
<glyph glyph-name="brokenbar" unicode="&#xa6;" horiz-adv-x="500" d="M339 -150 L339 233 L164 233 L164 -150 L339 -150 Z M164 850 L164 467 L339 467 L339 850 L164 850 Z " />
<glyph glyph-name="section" unicode="&#xa7;" horiz-adv-x="1176" d="M716 124 C762 124 764 116 764 107 C764 95 762 71 709 71 L160 71 L127 -100 L753 -100 C895 -100 951 -22 951 64 C951 87 948 111 940 128 C1062 161 1115 238 1115 332 C1115 411 1059 476 922 476 L447 476 C401 476 399 484 399 492 C399 504 402 529 454 529 L1003 529 L1037 700 L410 700 C269 700 213 622 213 535 C213 513 216 488 224 472 C102 439 49 361 49 267 C49 188 104 124 241 124 L716 124 Z M882 328 C922 328 926 318 926 307 C926 296 921 271 874 271 L281 271 C242 271 237 281 237 292 C237 304 243 328 289 328 L882 328 Z " />
<glyph glyph-name="dieresis" unicode="&#xa8;" horiz-adv-x="480" d="M49 628 L229 628 L263 809 L82 809 L49 628 Z M349 628 L529 628 L561 809 L379 809 L349 628 Z " />
<glyph glyph-name="copyright" unicode="&#xa9;" horiz-adv-x="1159" d="M673 -10 C986 -10 1109 151 1109 350 C1109 549 986 710 673 710 L491 710 C178 710 55 549 55 350 C55 151 178 -10 491 -10 L673 -10 Z M492 118 C272 118 204 223 204 350 C204 476 272 581 492 581 L672 581 C891 581 959 476 959 350 C959 223 891 118 672 118 L492 118 Z M804 280 L510 280 C432 280 421 311 421 350 C421 388 432 420 510 420 L804 420 L804 525 L511 525 C358 525 299 446 299 350 C299 253 358 175 511 175 L804 175 L804 280 Z " />
<glyph glyph-name="ordfeminine" unicode="&#xaa;" horiz-adv-x="715" d="M203 350 L242 399 L505 399 L533 350 L676 350 L484 700 L358 700 L43 350 L203 350 Z M405 589 L464 478 L308 478 L405 589 Z " />
<glyph glyph-name="guillemotleft" unicode="&#xab;" horiz-adv-x="855" d="M264 560 L52 282 L167 0 L373 0 L266 266 L489 560 L264 560 Z M623 560 L413 282 L526 0 L734 0 L627 266 L850 560 L623 560 Z " />
<glyph glyph-name="logicalnot" unicode="&#xac;" horiz-adv-x="1245" d="M268 255 L773 255 L773 40 L982 40 L982 445 L268 445 L268 255 Z " />
<glyph glyph-name="uni00AD" unicode="&#xad;" horiz-adv-x="576" d="M53 198 L471 198 L502 361 L84 361 L53 198 Z " />
<glyph glyph-name="registered" unicode="&#xae;" horiz-adv-x="1159" d="M673 -10 C986 -10 1109 151 1109 350 C1109 549 986 710 673 710 L491 710 C178 710 55 549 55 350 C55 151 178 -10 491 -10 L673 -10 Z M492 118 C272 118 204 223 204 350 C204 476 272 581 492 581 L672 581 C891 581 959 476 959 350 C959 223 891 118 672 118 L492 118 Z M326 175 L443 175 L443 280 L611 280 L725 175 L893 175 L757 292 C811 311 834 353 834 404 C834 471 792 525 685 525 L326 525 L326 175 Z M677 420 C708 420 710 411 710 399 C710 387 708 378 677 378 L443 378 L443 420 L677 420 Z " />
<glyph glyph-name="macron" unicode="&#xaf;" horiz-adv-x="480" d="M107 654 L486 654 L509 785 L130 785 L107 654 Z " />
<glyph glyph-name="degree" unicode="&#xb0;" horiz-adv-x="535" d="M89 504 C89 383 184 297 299 297 C413 297 508 383 508 504 C508 624 413 710 299 710 C184 710 89 624 89 504 L89 504 Z M247 504 C247 540 263 566 299 566 C334 566 350 540 350 504 C350 466 334 440 299 440 C263 440 247 466 247 504 L247 504 Z " />
<glyph glyph-name="plusminus" unicode="&#xb1;" horiz-adv-x="1245" d="M268 400 L521 400 L521 290 L728 290 L728 400 L982 400 L982 590 L728 590 L728 700 L521 700 L521 590 L268 590 L268 400 Z M268 0 L982 0 L982 190 L268 190 L268 0 Z " />
<glyph glyph-name="twosuperior" unicode="&#xb2;" horiz-adv-x="703" d="M519 593 C545 593 551 585 551 575 C551 564 545 552 513 552 L256 552 C160 552 117 512 105 451 L88 350 L613 350 L632 456 L220 456 L224 476 C225 485 235 497 254 497 L524 497 C632 497 676 550 676 616 C676 666 642 700 559 700 L168 700 L149 593 L519 593 Z " />
<glyph glyph-name="threesuperior" unicode="&#xb3;" horiz-adv-x="703" d="M487 497 C512 497 516 488 516 480 C516 467 510 456 477 456 L92 456 L73 350 L506 350 C601 350 638 400 638 459 C638 491 622 520 584 529 C623 549 644 583 644 622 C644 667 617 700 548 700 L147 700 L126 593 L481 593 C507 593 513 585 513 575 C513 564 506 552 474 552 L159 552 L150 497 L487 497 Z " />
<glyph glyph-name="acute" unicode="&#xb4;" horiz-adv-x="480" d="M176 635 L317 635 L529 806 L295 806 L176 635 Z " />
<glyph glyph-name="uni00B5" unicode="&#xb5;" horiz-adv-x="1245" d="M933 0 L1069 0 L1168 560 L959 560 L922 348 C906 258 847 190 686 190 L369 190 C310 190 303 208 305 226 L366 560 L157 560 L20 -200 L229 -200 L271 40 C287 17 325 0 386 0 L691 0 C776 0 852 29 894 71 L933 0 Z " />
<glyph glyph-name="paragraph" unicode="&#xb6;" horiz-adv-x="1150" d="M655 510 L762 510 L762 -100 L971 -100 L971 510 L1067 510 L1067 700 L346 700 C131 700 48 591 48 458 C48 321 131 215 346 215 L446 215 L446 -100 L655 -100 L655 510 Z " />
<glyph glyph-name="periodcentered" unicode="&#xb7;" horiz-adv-x="365" d="M67 246 L274 246 L311 454 L105 454 L67 246 Z " />
<glyph glyph-name="cedilla" unicode="&#xb8;" horiz-adv-x="480" d="M70 -151 L117 -151 C155 -151 174 -156 174 -175 C174 -211 125 -215 80 -215 C45 -215 14 -204 -1 -189 L-19 -279 C9 -294 57 -309 111 -309 C207 -309 311 -281 311 -167 C311 -95 242 -65 174 -72 L207 0 L137 0 L70 -151 Z " />
<glyph glyph-name="onesuperior" unicode="&#xb9;" horiz-adv-x="703" d="M262 593 L366 593 L342 456 L165 456 L147 350 L559 350 L577 456 L457 456 L500 700 L281 700 L262 593 Z " />
<glyph glyph-name="ordmasculine" unicode="&#xba;" horiz-adv-x="714" d="M435 345 C616 345 686 442 686 553 C686 634 632 705 496 705 L347 705 C166 705 97 606 97 496 C97 414 151 345 287 345 L435 345 Z M307 451 C237 451 216 478 216 514 C216 554 240 598 334 598 L476 598 C545 598 568 571 568 535 C568 495 544 451 449 451 L307 451 Z " />
<glyph glyph-name="guillemotright" unicode="&#xbb;" horiz-adv-x="855" d="M218 0 L430 278 L315 560 L109 560 L216 293 L-6 0 L218 0 Z M579 0 L790 278 L676 560 L470 560 L577 293 L355 0 L579 0 Z " />
<glyph glyph-name="onequarter" unicode="&#xbc;" horiz-adv-x="1406" d="M262 593 L366 593 L342 456 L165 456 L147 350 L559 350 L577 456 L457 456 L500 700 L281 700 L262 593 Z M1043 700 L176 0 L368 0 L1234 700 L1043 700 Z M1181 350 L739 143 L724 52 L1123 52 L1114 0 L1227 0 L1235 52 L1292 52 L1311 158 L1256 158 L1289 350 L1181 350 Z M952 158 L1158 255 L1142 158 L952 158 Z " />
<glyph glyph-name="onehalf" unicode="&#xbd;" horiz-adv-x="1406" d="M262 593 L366 593 L342 456 L165 456 L147 350 L559 350 L577 456 L457 456 L500 700 L281 700 L262 593 Z M1043 700 L176 0 L368 0 L1234 700 L1043 700 Z M1160 243 C1186 243 1192 235 1192 225 C1192 214 1186 202 1154 202 L897 202 C801 202 758 162 746 101 L729 0 L1254 0 L1273 106 L861 106 L865 126 C866 135 876 147 895 147 L1165 147 C1273 147 1317 200 1317 266 C1317 316 1283 350 1200 350 L809 350 L790 243 L1160 243 Z " />
<glyph glyph-name="threequarters" unicode="&#xbe;" horiz-adv-x="1406" d="M487 497 C512 497 516 488 516 480 C516 467 510 456 477 456 L92 456 L73 350 L506 350 C601 350 638 400 638 459 C638 491 622 520 584 529 C623 549 644 583 644 622 C644 667 617 700 548 700 L147 700 L126 593 L481 593 C507 593 513 585 513 575 C513 564 506 552 474 552 L159 552 L150 497 L487 497 Z M1043 700 L176 0 L368 0 L1234 700 L1043 700 Z M1181 350 L739 143 L724 52 L1123 52 L1114 0 L1227 0 L1235 52 L1292 52 L1311 158 L1256 158 L1289 350 L1181 350 Z M952 158 L1158 255 L1142 158 L952 158 Z " />
<glyph glyph-name="questiondown" unicode="&#xbf;" horiz-adv-x="1026" d="M794 430 L313 430 C82 430 -3 315 -3 183 C-3 79 63 0 236 0 L948 0 L984 190 L275 190 C228 190 221 209 221 223 C221 245 233 270 290 270 L766 270 L794 430 Z M854 700 L646 700 L608 492 L815 492 L854 700 Z " />
<glyph glyph-name="Agrave" unicode="&#xc0;" horiz-adv-x="1244" d="M943 0 L1186 0 L798 700 L580 700 L-60 0 L203 0 L295 104 L887 104 L943 0 Z M664 518 L794 274 L447 274 L664 518 Z M750 946 L531 946 L679 775 L808 775 L750 946 Z " />
<glyph glyph-name="Aacute" unicode="&#xc1;" horiz-adv-x="1244" d="M943 0 L1186 0 L798 700 L580 700 L-60 0 L203 0 L295 104 L887 104 L943 0 Z M664 518 L794 274 L447 274 L664 518 Z M583 775 L724 775 L936 946 L702 946 L583 775 Z " />
<glyph glyph-name="Acircumflex" unicode="&#xc2;" horiz-adv-x="1244" d="M943 0 L1186 0 L798 700 L580 700 L-60 0 L203 0 L295 104 L887 104 L943 0 Z M664 518 L794 274 L447 274 L664 518 Z M480 775 L616 775 L714 848 L786 775 L915 775 L845 946 L612 946 L480 775 Z " />
<glyph glyph-name="Atilde" unicode="&#xc3;" horiz-adv-x="1244" d="M943 0 L1186 0 L798 700 L580 700 L-60 0 L203 0 L295 104 L887 104 L943 0 Z M664 518 L794 274 L447 274 L664 518 Z M817 952 C816 927 807 913 788 913 C761 913 720 946 661 946 C587 946 532 897 507 768 L609 768 C610 792 616 806 636 806 C662 806 703 772 763 772 C838 772 892 819 918 952 L817 952 Z " />
<glyph glyph-name="Adieresis" unicode="&#xc4;" horiz-adv-x="1244" d="M943 0 L1186 0 L798 700 L580 700 L-60 0 L203 0 L295 104 L887 104 L943 0 Z M664 518 L794 274 L447 274 L664 518 Z M456 768 L636 768 L670 949 L489 949 L456 768 Z M756 768 L936 768 L968 949 L786 949 L756 768 Z " />
<glyph glyph-name="Aring" unicode="&#xc5;" horiz-adv-x="1244" d="M943 0 L1186 0 L798 700 L580 700 L-60 0 L203 0 L295 104 L887 104 L943 0 Z M664 518 L794 274 L447 274 L664 518 Z M574 853 C574 790 622 740 702 740 C790 740 854 797 854 871 C854 934 805 982 726 982 C638 982 574 925 574 853 L574 853 Z M688 859 C688 875 701 887 717 887 C729 887 740 876 740 863 C740 847 726 836 710 836 C696 836 688 847 688 859 L688 859 Z " />
<glyph glyph-name="AE" unicode="&#xc6;" horiz-adv-x="1659" d="M676 99 L659 0 L1534 0 L1569 190 L903 190 L914 265 L1482 265 L1515 434 L947 434 L957 510 L1623 510 L1659 700 L675 700 L-60 0 L208 0 L309 99 L676 99 Z M482 268 L754 536 L707 268 L482 268 Z " />
<glyph glyph-name="Ccedilla" unicode="&#xc7;" horiz-adv-x="1136" d="M446 -151 L493 -151 C531 -151 550 -156 550 -175 C550 -211 501 -215 456 -215 C421 -215 390 -204 375 -189 L357 -279 C385 -294 433 -309 487 -309 C582 -309 687 -281 687 -167 C687 -95 618 -65 550 -72 L583 0 L1009 0 L1042 190 L460 190 C315 190 282 247 282 321 C282 398 308 510 521 510 L1099 510 L1134 700 L540 700 C194 700 57 507 57 296 C57 130 158 0 426 0 L513 0 L446 -151 Z " />
<glyph glyph-name="Egrave" unicode="&#xc8;" horiz-adv-x="1150" d="M48 0 L1024 0 L1059 190 L292 190 L302 265 L971 265 L1003 434 L334 434 L346 510 L1113 510 L1149 700 L173 700 L48 0 Z M712 946 L493 946 L641 775 L770 775 L712 946 Z " />
<glyph glyph-name="Eacute" unicode="&#xc9;" horiz-adv-x="1150" d="M48 0 L1024 0 L1059 190 L292 190 L302 265 L971 265 L1003 434 L334 434 L346 510 L1113 510 L1149 700 L173 700 L48 0 Z M545 775 L686 775 L898 946 L664 946 L545 775 Z " />
<glyph glyph-name="Ecircumflex" unicode="&#xca;" horiz-adv-x="1150" d="M48 0 L1024 0 L1059 190 L292 190 L302 265 L971 265 L1003 434 L334 434 L346 510 L1113 510 L1149 700 L173 700 L48 0 Z M442 775 L578 775 L676 848 L748 775 L877 775 L807 946 L574 946 L442 775 Z " />
<glyph glyph-name="Edieresis" unicode="&#xcb;" horiz-adv-x="1150" d="M48 0 L1024 0 L1059 190 L292 190 L302 265 L971 265 L1003 434 L334 434 L346 510 L1113 510 L1149 700 L173 700 L48 0 Z M418 768 L598 768 L632 949 L451 949 L418 768 Z M718 768 L898 768 L930 949 L748 949 L718 768 Z " />
<glyph glyph-name="Igrave" unicode="&#xcc;" horiz-adv-x="424" d="M48 0 L257 0 L382 700 L173 700 L48 0 Z M336 946 L117 946 L265 775 L394 775 L336 946 Z " />
<glyph glyph-name="Iacute" unicode="&#xcd;" horiz-adv-x="424" d="M48 0 L257 0 L382 700 L173 700 L48 0 Z M169 775 L310 775 L522 946 L288 946 L169 775 Z " />
<glyph glyph-name="Icircumflex" unicode="&#xce;" horiz-adv-x="424" d="M48 0 L257 0 L382 700 L173 700 L48 0 Z M66 775 L202 775 L300 848 L372 775 L501 775 L431 946 L198 946 L66 775 Z " />
<glyph glyph-name="Idieresis" unicode="&#xcf;" horiz-adv-x="424" d="M48 0 L257 0 L382 700 L173 700 L48 0 Z M42 768 L222 768 L256 949 L75 949 L42 768 Z M342 768 L522 768 L554 949 L372 949 L342 768 Z " />
<glyph glyph-name="Eth" unicode="&#xd0;" horiz-adv-x="1204" d="M-31 265 L95 265 L48 0 L667 0 C1011 0 1150 193 1150 404 C1150 570 1049 700 781 700 L173 700 L125 434 L2 434 L-31 265 Z M746 510 C891 510 925 453 925 378 C925 301 898 190 685 190 L288 190 L301 265 L610 265 L642 434 L330 434 L344 510 L746 510 Z " />
<glyph glyph-name="Ntilde" unicode="&#xd1;" horiz-adv-x="1256" d="M892 0 L1089 0 L1214 700 L1007 700 L923 228 L370 700 L173 700 L48 0 L257 0 L340 472 L892 0 Z M822 952 C821 927 812 913 793 913 C766 913 725 946 666 946 C592 946 537 897 512 768 L614 768 C615 792 621 806 641 806 C667 806 708 772 768 772 C843 772 897 819 923 952 L822 952 Z " />
<glyph glyph-name="Ograve" unicode="&#xd2;" horiz-adv-x="1293" d="M737 -10 C1100 -10 1240 175 1240 403 C1240 577 1133 710 861 710 L561 710 C198 710 57 526 57 295 C57 122 167 -10 438 -10 L737 -10 Z M478 180 C324 180 282 240 282 319 C282 408 320 520 546 520 L819 520 C971 520 1015 459 1015 380 C1015 283 967 180 751 180 L478 180 Z M773 946 L554 946 L702 775 L831 775 L773 946 Z " />
<glyph glyph-name="Oacute" unicode="&#xd3;" horiz-adv-x="1293" d="M737 -10 C1100 -10 1240 175 1240 403 C1240 577 1133 710 861 710 L561 710 C198 710 57 526 57 295 C57 122 167 -10 438 -10 L737 -10 Z M478 180 C324 180 282 240 282 319 C282 408 320 520 546 520 L819 520 C971 520 1015 459 1015 380 C1015 283 967 180 751 180 L478 180 Z M606 775 L747 775 L959 946 L725 946 L606 775 Z " />
<glyph glyph-name="Ocircumflex" unicode="&#xd4;" horiz-adv-x="1293" d="M737 -10 C1100 -10 1240 175 1240 403 C1240 577 1133 710 861 710 L561 710 C198 710 57 526 57 295 C57 122 167 -10 438 -10 L737 -10 Z M478 180 C324 180 282 240 282 319 C282 408 320 520 546 520 L819 520 C971 520 1015 459 1015 380 C1015 283 967 180 751 180 L478 180 Z M503 775 L639 775 L737 848 L809 775 L938 775 L868 946 L635 946 L503 775 Z " />
<glyph glyph-name="Otilde" unicode="&#xd5;" horiz-adv-x="1293" d="M737 -10 C1100 -10 1240 175 1240 403 C1240 577 1133 710 861 710 L561 710 C198 710 57 526 57 295 C57 122 167 -10 438 -10 L737 -10 Z M478 180 C324 180 282 240 282 319 C282 408 320 520 546 520 L819 520 C971 520 1015 459 1015 380 C1015 283 967 180 751 180 L478 180 Z M841 952 C840 927 831 913 812 913 C785 913 744 946 685 946 C611 946 556 897 531 768 L633 768 C634 792 640 806 660 806 C686 806 727 772 787 772 C862 772 916 819 942 952 L841 952 Z " />
<glyph glyph-name="Odieresis" unicode="&#xd6;" horiz-adv-x="1293" d="M737 -10 C1100 -10 1240 175 1240 403 C1240 577 1133 710 861 710 L561 710 C198 710 57 526 57 295 C57 122 167 -10 438 -10 L737 -10 Z M478 180 C324 180 282 240 282 319 C282 408 320 520 546 520 L819 520 C971 520 1015 459 1015 380 C1015 283 967 180 751 180 L478 180 Z M479 768 L659 768 L693 949 L512 949 L479 768 Z M779 768 L959 768 L991 949 L809 949 L779 768 Z " />
<glyph glyph-name="multiply" unicode="&#xd7;" horiz-adv-x="1245" d="M956 536 L815 677 L622 476 L435 664 L295 524 L483 346 L295 163 L435 23 L623 217 L815 23 L956 163 L760 348 L956 536 Z " />
<glyph glyph-name="Oslash" unicode="&#xd8;" horiz-adv-x="1293" d="M737 -10 C1100 -10 1240 175 1240 403 C1240 531 1181 637 1042 684 L1137 800 L901 800 L828 710 C785 710 743 710 700 710 L561 710 C198 710 57 526 57 295 C57 168 116 62 255 16 L160 -100 L396 -100 L470 -11 C513 -10 554 -10 597 -10 L737 -10 Z M282 319 C282 408 320 520 546 520 L669 520 L398 187 C308 205 282 257 282 319 L282 319 Z M1015 380 C1015 283 967 180 751 180 L627 180 L899 513 C987 493 1015 443 1015 380 L1015 380 Z " />
<glyph glyph-name="Ugrave" unicode="&#xd9;" horiz-adv-x="1223" d="M294 323 L363 700 L154 700 L85 323 C50 130 126 -10 408 -10 L711 -10 C985 -10 1097 114 1131 305 L1201 700 L992 700 L926 338 C908 239 853 180 740 180 L431 180 C303 180 280 240 294 323 L294 323 Z M739 946 L520 946 L668 775 L797 775 L739 946 Z " />
<glyph glyph-name="Uacute" unicode="&#xda;" horiz-adv-x="1223" d="M294 323 L363 700 L154 700 L85 323 C50 130 126 -10 408 -10 L711 -10 C985 -10 1097 114 1131 305 L1201 700 L992 700 L926 338 C908 239 853 180 740 180 L431 180 C303 180 280 240 294 323 L294 323 Z M572 775 L713 775 L925 946 L691 946 L572 775 Z " />
<glyph glyph-name="Ucircumflex" unicode="&#xdb;" horiz-adv-x="1223" d="M294 323 L363 700 L154 700 L85 323 C50 130 126 -10 408 -10 L711 -10 C985 -10 1097 114 1131 305 L1201 700 L992 700 L926 338 C908 239 853 180 740 180 L431 180 C303 180 280 240 294 323 L294 323 Z M469 775 L605 775 L703 848 L775 775 L904 775 L834 946 L601 946 L469 775 Z " />
<glyph glyph-name="Udieresis" unicode="&#xdc;" horiz-adv-x="1223" d="M294 323 L363 700 L154 700 L85 323 C50 130 126 -10 408 -10 L711 -10 C985 -10 1097 114 1131 305 L1201 700 L992 700 L926 338 C908 239 853 180 740 180 L431 180 C303 180 280 240 294 323 L294 323 Z M445 768 L625 768 L659 949 L478 949 L445 768 Z M745 768 L925 768 L957 949 L775 949 L745 768 Z " />
<glyph glyph-name="Yacute" unicode="&#xdd;" horiz-adv-x="1208" d="M440 0 L649 0 L686 213 L1284 700 L967 700 L602 378 L345 700 L56 700 L477 213 L440 0 Z M562 775 L703 775 L915 946 L681 946 L562 775 Z " />
<glyph glyph-name="Thorn" unicode="&#xde;" horiz-adv-x="1146" d="M48 0 L257 0 L274 108 L787 108 C1036 108 1135 229 1135 387 C1135 502 1066 591 875 591 L362 591 L382 700 L173 700 L48 0 Z M836 403 C902 403 913 383 913 359 C913 326 893 296 820 296 L310 296 L328 403 L836 403 Z " />
<glyph glyph-name="germandbls" unicode="&#xdf;" horiz-adv-x="1041" d="M940 437 L957 560 L463 560 C205 560 99 450 72 296 L19 0 L201 0 L254 296 C265 358 299 400 434 400 L586 400 L435 334 L412 213 L663 213 C698 213 705 199 705 190 C705 179 697 159 656 159 L357 159 L330 0 L636 0 C833 0 898 92 898 204 C898 282 847 341 716 346 L940 437 Z " />
<glyph glyph-name="agrave" unicode="&#xe0;" horiz-adv-x="1063" d="M785 0 L1005 0 L670 560 L475 560 L-59 0 L175 0 L256 88 L734 88 L785 0 Z M551 408 L653 227 L385 227 L551 408 Z M635 806 L416 806 L564 635 L693 635 L635 806 Z " />
<glyph glyph-name="aacute" unicode="&#xe1;" horiz-adv-x="1063" d="M785 0 L1005 0 L670 560 L475 560 L-59 0 L175 0 L256 88 L734 88 L785 0 Z M551 408 L653 227 L385 227 L551 408 Z M468 635 L609 635 L821 806 L587 806 L468 635 Z " />
<glyph glyph-name="acircumflex" unicode="&#xe2;" horiz-adv-x="1063" d="M785 0 L1005 0 L670 560 L475 560 L-59 0 L175 0 L256 88 L734 88 L785 0 Z M551 408 L653 227 L385 227 L551 408 Z M365 635 L501 635 L599 708 L671 635 L800 635 L730 806 L497 806 L365 635 Z " />
<glyph glyph-name="atilde" unicode="&#xe3;" horiz-adv-x="1063" d="M785 0 L1005 0 L670 560 L475 560 L-59 0 L175 0 L256 88 L734 88 L785 0 Z M551 408 L653 227 L385 227 L551 408 Z M702 812 C701 787 692 773 673 773 C646 773 605 806 546 806 C472 806 417 757 392 628 L494 628 C495 652 501 666 521 666 C547 666 588 632 648 632 C723 632 777 679 803 812 L702 812 Z " />
<glyph glyph-name="adieresis" unicode="&#xe4;" horiz-adv-x="1063" d="M785 0 L1005 0 L670 560 L475 560 L-59 0 L175 0 L256 88 L734 88 L785 0 Z M551 408 L653 227 L385 227 L551 408 Z M341 628 L521 628 L555 809 L374 809 L341 628 Z M641 628 L821 628 L853 809 L671 809 L641 628 Z " />
<glyph glyph-name="aring" unicode="&#xe5;" horiz-adv-x="1063" d="M785 0 L1005 0 L670 560 L475 560 L-59 0 L175 0 L256 88 L734 88 L785 0 Z M551 408 L653 227 L385 227 L551 408 Z M459 713 C459 650 507 600 587 600 C675 600 739 657 739 731 C739 794 690 842 611 842 C523 842 459 785 459 713 L459 713 Z M573 719 C573 735 586 747 602 747 C614 747 625 736 625 723 C625 707 611 696 595 696 C581 696 573 707 573 719 L573 719 Z " />
<glyph glyph-name="ae" unicode="&#xe6;" horiz-adv-x="1418" d="M566 77 L554 0 L1300 0 L1328 159 L767 159 L775 211 L1251 211 L1276 348 L800 348 L808 400 L1369 400 L1399 560 L556 560 L-59 0 L178 0 L261 77 L566 77 Z M410 216 L627 420 L592 216 L410 216 Z " />
<glyph glyph-name="ccedilla" unicode="&#xe7;" horiz-adv-x="971" d="M355 -151 L402 -151 C440 -151 459 -156 459 -175 C459 -211 410 -215 365 -215 C330 -215 299 -204 284 -189 L266 -279 C294 -294 342 -309 396 -309 C493 -309 596 -281 596 -167 C596 -95 527 -65 459 -72 L492 0 L853 0 L882 159 L368 159 C268 159 238 192 238 253 C238 330 306 400 437 400 L923 400 L954 560 L449 560 C148 560 41 400 41 232 C41 102 123 0 348 0 L422 0 L355 -151 Z " />
<glyph glyph-name="egrave" unicode="&#xe8;" horiz-adv-x="989" d="M38 0 L869 0 L897 159 L251 159 L259 211 L820 211 L845 348 L284 348 L292 400 L938 400 L968 560 L137 560 L38 0 Z M608 806 L389 806 L537 635 L666 635 L608 806 Z " />
<glyph glyph-name="eacute" unicode="&#xe9;" horiz-adv-x="989" d="M38 0 L869 0 L897 159 L251 159 L259 211 L820 211 L845 348 L284 348 L292 400 L938 400 L968 560 L137 560 L38 0 Z M441 635 L582 635 L794 806 L560 806 L441 635 Z " />
<glyph glyph-name="ecircumflex" unicode="&#xea;" horiz-adv-x="989" d="M38 0 L869 0 L897 159 L251 159 L259 211 L820 211 L845 348 L284 348 L292 400 L938 400 L968 560 L137 560 L38 0 Z M338 635 L474 635 L572 708 L644 635 L773 635 L703 806 L470 806 L338 635 Z " />
<glyph glyph-name="edieresis" unicode="&#xeb;" horiz-adv-x="989" d="M38 0 L869 0 L897 159 L251 159 L259 211 L820 211 L845 348 L284 348 L292 400 L938 400 L968 560 L137 560 L38 0 Z M314 628 L494 628 L528 809 L347 809 L314 628 Z M614 628 L794 628 L826 809 L644 809 L614 628 Z " />
<glyph glyph-name="igrave" unicode="&#xec;" horiz-adv-x="380" d="M291 806 L72 806 L220 635 L349 635 L291 806 Z M38 0 L223 0 L322 560 L137 560 L38 0 Z " />
<glyph glyph-name="iacute" unicode="&#xed;" horiz-adv-x="380" d="M124 635 L265 635 L477 806 L243 806 L124 635 Z M38 0 L223 0 L322 560 L137 560 L38 0 Z " />
<glyph glyph-name="icircumflex" unicode="&#xee;" horiz-adv-x="380" d="M38 0 L223 0 L322 560 L137 560 L38 0 Z M21 635 L157 635 L255 708 L327 635 L456 635 L386 806 L153 806 L21 635 Z " />
<glyph glyph-name="idieresis" unicode="&#xef;" horiz-adv-x="380" d="M-3 628 L177 628 L211 809 L30 809 L-3 628 Z M297 628 L477 628 L509 809 L327 809 L297 628 Z M38 0 L223 0 L322 560 L137 560 L38 0 Z " />
<glyph glyph-name="eth" unicode="&#xf0;" horiz-adv-x="1034" d="M-42 211 L76 211 L38 0 L567 0 C868 0 975 160 975 328 C975 457 891 560 668 560 L139 560 L101 348 L-15 348 L-42 211 Z M648 400 C748 400 778 367 778 307 C778 229 708 159 577 159 L252 159 L261 211 L526 211 L551 348 L284 348 L293 400 L648 400 Z " />
<glyph glyph-name="ntilde" unicode="&#xf1;" horiz-adv-x="1083" d="M926 0 L1025 560 L841 560 L778 195 L312 560 L137 560 L38 0 L223 0 L286 365 L751 0 L926 0 Z M712 812 C711 787 702 773 683 773 C656 773 615 806 556 806 C482 806 427 757 402 628 L504 628 C505 652 511 666 531 666 C557 666 598 632 658 632 C733 632 787 679 813 812 L712 812 Z " />
<glyph glyph-name="ograve" unicode="&#xf2;" horiz-adv-x="1105" d="M625 -8 C930 -8 1040 152 1045 326 C1049 461 963 568 729 568 L460 568 C155 568 44 408 41 234 C37 99 121 -8 356 -8 L625 -8 Z M388 151 C264 151 236 196 237 253 C238 322 294 408 430 408 L698 408 C819 408 849 364 849 306 C849 240 791 151 656 151 L388 151 Z M655 806 L436 806 L584 635 L713 635 L655 806 Z " />
<glyph glyph-name="oacute" unicode="&#xf3;" horiz-adv-x="1105" d="M625 -8 C930 -8 1040 152 1045 326 C1049 461 963 568 729 568 L460 568 C155 568 44 408 41 234 C37 99 121 -8 356 -8 L625 -8 Z M388 151 C264 151 236 196 237 253 C238 322 294 408 430 408 L698 408 C819 408 849 364 849 306 C849 240 791 151 656 151 L388 151 Z M488 635 L629 635 L841 806 L607 806 L488 635 Z " />
<glyph glyph-name="ocircumflex" unicode="&#xf4;" horiz-adv-x="1105" d="M625 -8 C930 -8 1040 152 1045 326 C1049 461 963 568 729 568 L460 568 C155 568 44 408 41 234 C37 99 121 -8 356 -8 L625 -8 Z M388 151 C264 151 236 196 237 253 C238 322 294 408 430 408 L698 408 C819 408 849 364 849 306 C849 240 791 151 656 151 L388 151 Z M385 635 L521 635 L619 708 L691 635 L820 635 L750 806 L517 806 L385 635 Z " />
<glyph glyph-name="otilde" unicode="&#xf5;" horiz-adv-x="1105" d="M625 -8 C930 -8 1040 152 1045 326 C1049 461 963 568 729 568 L460 568 C155 568 44 408 41 234 C37 99 121 -8 356 -8 L625 -8 Z M388 151 C264 151 236 196 237 253 C238 322 294 408 430 408 L698 408 C819 408 849 364 849 306 C849 240 791 151 656 151 L388 151 Z M722 812 C721 787 712 773 693 773 C666 773 625 806 566 806 C492 806 437 757 412 628 L514 628 C515 652 521 666 541 666 C567 666 608 632 668 632 C743 632 797 679 823 812 L722 812 Z " />
<glyph glyph-name="odieresis" unicode="&#xf6;" horiz-adv-x="1105" d="M625 -8 C930 -8 1040 152 1045 326 C1049 461 963 568 729 568 L460 568 C155 568 44 408 41 234 C37 99 121 -8 356 -8 L625 -8 Z M388 151 C264 151 236 196 237 253 C238 322 294 408 430 408 L698 408 C819 408 849 364 849 306 C849 240 791 151 656 151 L388 151 Z M362 628 L542 628 L576 809 L395 809 L362 628 Z M662 628 L842 628 L874 809 L692 809 L662 628 Z " />
<glyph glyph-name="divide" unicode="&#xf7;" horiz-adv-x="1245" d="M268 255 L982 255 L982 445 L268 445 L268 255 Z M520 -15 L729 -15 L729 193 L520 193 L520 -15 Z M520 506 L729 506 L729 715 L520 715 L520 506 Z " />
<glyph glyph-name="oslash" unicode="&#xf8;" horiz-adv-x="1105" d="M625 -8 C930 -8 1040 152 1045 326 C1048 427 1000 513 875 549 L954 640 L747 640 L685 568 L460 568 C155 568 44 408 41 234 C37 132 84 46 207 10 L129 -80 L336 -80 L397 -8 L625 -8 Z M849 306 C849 240 791 151 656 151 L535 151 L751 405 C827 393 849 354 849 306 L849 306 Z M237 253 C238 322 294 408 430 408 L547 408 L332 155 C255 167 236 205 237 253 L237 253 Z " />
<glyph glyph-name="ugrave" unicode="&#xf9;" horiz-adv-x="1047" d="M248 258 L300 560 L118 560 L64 258 C36 104 85 -8 340 -8 L609 -8 C822 -8 923 81 951 238 L1008 560 L824 560 L769 256 C756 181 708 151 622 151 L374 151 C245 151 236 186 248 258 L248 258 Z M628 806 L409 806 L557 635 L686 635 L628 806 Z " />
<glyph glyph-name="uacute" unicode="&#xfa;" horiz-adv-x="1047" d="M248 258 L300 560 L118 560 L64 258 C36 104 85 -8 340 -8 L609 -8 C822 -8 923 81 951 238 L1008 560 L824 560 L769 256 C756 181 708 151 622 151 L374 151 C245 151 236 186 248 258 L248 258 Z M461 635 L602 635 L814 806 L580 806 L461 635 Z " />
<glyph glyph-name="ucircumflex" unicode="&#xfb;" horiz-adv-x="1047" d="M248 258 L300 560 L118 560 L64 258 C36 104 85 -8 340 -8 L609 -8 C822 -8 923 81 951 238 L1008 560 L824 560 L769 256 C756 181 708 151 622 151 L374 151 C245 151 236 186 248 258 L248 258 Z M358 635 L494 635 L592 708 L664 635 L793 635 L723 806 L490 806 L358 635 Z " />
<glyph glyph-name="udieresis" unicode="&#xfc;" horiz-adv-x="1047" d="M248 258 L300 560 L118 560 L64 258 C36 104 85 -8 340 -8 L609 -8 C822 -8 923 81 951 238 L1008 560 L824 560 L769 256 C756 181 708 151 622 151 L374 151 C245 151 236 186 248 258 L248 258 Z M334 628 L514 628 L548 809 L367 809 L334 628 Z M634 628 L814 628 L846 809 L664 809 L634 628 Z " />
<glyph glyph-name="yacute" unicode="&#xfd;" horiz-adv-x="1026" d="M362 0 L546 0 L576 171 L1076 560 L795 560 L498 307 L285 560 L30 560 L392 171 L362 0 Z M448 635 L589 635 L801 806 L567 806 L448 635 Z " />
<glyph glyph-name="thorn" unicode="&#xfe;" horiz-adv-x="995" d="M38 0 L223 0 L238 84 L672 84 C885 84 961 194 961 308 C961 401 903 476 741 476 L309 476 L324 560 L139 560 L38 0 Z M708 315 C757 315 764 304 764 287 C764 269 755 244 696 244 L268 244 L278 315 L708 315 Z " />
<glyph glyph-name="ydieresis" unicode="&#xff;" horiz-adv-x="1026" d="M362 0 L546 0 L576 171 L1076 560 L795 560 L498 307 L285 560 L30 560 L392 171 L362 0 Z M321 628 L501 628 L535 809 L354 809 L321 628 Z M621 628 L801 628 L833 809 L651 809 L621 628 Z " />
<glyph glyph-name="Amacron" unicode="&#x100;" horiz-adv-x="1244" d="M943 0 L1186 0 L798 700 L580 700 L-60 0 L203 0 L295 104 L887 104 L943 0 Z M664 518 L794 274 L447 274 L664 518 Z M514 794 L893 794 L916 925 L537 925 L514 794 Z " />
<glyph glyph-name="amacron" unicode="&#x101;" horiz-adv-x="1063" d="M785 0 L1005 0 L670 560 L475 560 L-59 0 L175 0 L256 88 L734 88 L785 0 Z M551 408 L653 227 L385 227 L551 408 Z M399 654 L778 654 L801 785 L422 785 L399 654 Z " />
<glyph glyph-name="Abreve" unicode="&#x102;" horiz-adv-x="1244" d="M943 0 L1186 0 L798 700 L580 700 L-60 0 L203 0 L295 104 L887 104 L943 0 Z M664 518 L794 274 L447 274 L664 518 Z M717 896 C663 896 642 918 646 949 L535 949 C524 867 541 770 697 770 C853 770 905 864 926 949 L812 949 C802 918 770 896 717 896 L717 896 Z " />
<glyph glyph-name="abreve" unicode="&#x103;" horiz-adv-x="1063" d="M785 0 L1005 0 L670 560 L475 560 L-59 0 L175 0 L256 88 L734 88 L785 0 Z M551 408 L653 227 L385 227 L551 408 Z M602 756 C548 756 527 778 531 809 L420 809 C409 727 426 630 582 630 C738 630 790 724 811 809 L697 809 C687 778 655 756 602 756 L602 756 Z " />
<glyph glyph-name="Aogonek" unicode="&#x104;" horiz-adv-x="1244" d="M750 -200 C750 -259 804 -299 888 -299 C938 -299 992 -297 1052 -277 L1068 -187 C1031 -202 1014 -205 987 -205 C945 -205 918 -187 918 -151 C918 -87 980 -41 1044 0 L1186 0 L798 700 L580 700 L-60 0 L203 0 L295 104 L887 104 L943 0 C845 -39 750 -103 750 -200 L750 -200 Z M664 518 L794 274 L447 274 L664 518 Z " />
<glyph glyph-name="aogonek" unicode="&#x105;" horiz-adv-x="1063" d="M592 -200 C592 -259 646 -299 730 -299 C780 -299 834 -297 894 -277 L910 -187 C873 -202 856 -205 829 -205 C787 -205 760 -187 760 -151 C760 -87 822 -41 886 0 L1005 0 L670 560 L475 560 L-59 0 L175 0 L256 88 L734 88 L785 0 C687 -39 592 -103 592 -200 L592 -200 Z M551 408 L653 227 L385 227 L551 408 Z " />
<glyph glyph-name="Cacute" unicode="&#x106;" horiz-adv-x="1136" d="M282 321 C282 398 308 510 521 510 L1099 510 L1134 700 L540 700 C194 700 57 507 57 296 C57 130 158 0 426 0 L1009 0 L1042 190 L460 190 C315 190 282 247 282 321 L282 321 Z M576 775 L717 775 L929 946 L695 946 L576 775 Z " />
<glyph glyph-name="cacute" unicode="&#x107;" horiz-adv-x="971" d="M238 253 C238 330 306 400 437 400 L923 400 L954 560 L449 560 C148 560 41 400 41 232 C41 102 123 0 348 0 L853 0 L882 159 L368 159 C268 159 238 192 238 253 L238 253 Z M461 635 L602 635 L814 806 L580 806 L461 635 Z " />
<glyph glyph-name="Ccircumflex" unicode="&#x108;" horiz-adv-x="1136" d="M282 321 C282 398 308 510 521 510 L1099 510 L1134 700 L540 700 C194 700 57 507 57 296 C57 130 158 0 426 0 L1009 0 L1042 190 L460 190 C315 190 282 247 282 321 L282 321 Z M473 775 L609 775 L707 848 L779 775 L908 775 L838 946 L605 946 L473 775 Z " />
<glyph glyph-name="ccircumflex" unicode="&#x109;" horiz-adv-x="971" d="M238 253 C238 330 306 400 437 400 L923 400 L954 560 L449 560 C148 560 41 400 41 232 C41 102 123 0 348 0 L853 0 L882 159 L368 159 C268 159 238 192 238 253 L238 253 Z M358 635 L494 635 L592 708 L664 635 L793 635 L723 806 L490 806 L358 635 Z " />
<glyph glyph-name="Cdotaccent" unicode="&#x10a;" horiz-adv-x="1136" d="M282 321 C282 398 308 510 521 510 L1099 510 L1134 700 L540 700 C194 700 57 507 57 296 C57 130 158 0 426 0 L1009 0 L1042 190 L460 190 C315 190 282 247 282 321 L282 321 Z M602 768 L780 768 L814 949 L636 949 L602 768 Z " />
<glyph glyph-name="cdotaccent" unicode="&#x10b;" horiz-adv-x="971" d="M238 253 C238 330 306 400 437 400 L923 400 L954 560 L449 560 C148 560 41 400 41 232 C41 102 123 0 348 0 L853 0 L882 159 L368 159 C268 159 238 192 238 253 L238 253 Z M487 628 L665 628 L699 809 L521 809 L487 628 Z " />
<glyph glyph-name="Ccaron" unicode="&#x10c;" horiz-adv-x="1136" d="M282 321 C282 398 308 510 521 510 L1099 510 L1134 700 L540 700 C194 700 57 507 57 296 C57 130 158 0 426 0 L1009 0 L1042 190 L460 190 C315 190 282 247 282 321 L282 321 Z M941 946 L805 946 L707 872 L635 946 L506 946 L576 775 L810 775 L941 946 Z " />
<glyph glyph-name="ccaron" unicode="&#x10d;" horiz-adv-x="971" d="M238 253 C238 330 306 400 437 400 L923 400 L954 560 L449 560 C148 560 41 400 41 232 C41 102 123 0 348 0 L853 0 L882 159 L368 159 C268 159 238 192 238 253 L238 253 Z M826 806 L690 806 L592 732 L520 806 L391 806 L461 635 L695 635 L826 806 Z " />
<glyph glyph-name="Dcaron" unicode="&#x10e;" horiz-adv-x="1204" d="M48 0 L667 0 C1011 0 1150 193 1150 404 C1150 570 1049 700 781 700 L173 700 L48 0 Z M746 510 C891 510 925 453 925 378 C925 301 898 190 685 190 L288 190 L344 510 L746 510 Z M913 946 L777 946 L679 872 L607 946 L478 946 L548 775 L782 775 L913 946 Z " />
<glyph glyph-name="dcaron" unicode="&#x10f;" horiz-adv-x="1034" d="M38 0 L567 0 C868 0 975 160 975 328 C975 457 891 560 668 560 L139 560 L38 0 Z M648 400 C748 400 778 367 778 307 C778 229 708 159 577 159 L252 159 L293 400 L648 400 Z M810 806 L674 806 L576 732 L504 806 L375 806 L445 635 L679 635 L810 806 Z " />
<glyph glyph-name="Dcroat" unicode="&#x110;" horiz-adv-x="1204" d="M-31 265 L95 265 L48 0 L667 0 C1011 0 1150 193 1150 404 C1150 570 1049 700 781 700 L173 700 L125 434 L2 434 L-31 265 Z M746 510 C891 510 925 453 925 378 C925 301 898 190 685 190 L288 190 L301 265 L610 265 L642 434 L330 434 L344 510 L746 510 Z " />
<glyph glyph-name="dcroat" unicode="&#x111;" horiz-adv-x="1034" d="M-42 211 L76 211 L38 0 L567 0 C868 0 975 160 975 328 C975 457 891 560 668 560 L139 560 L101 348 L-15 348 L-42 211 Z M648 400 C748 400 778 367 778 307 C778 229 708 159 577 159 L252 159 L261 211 L526 211 L551 348 L284 348 L293 400 L648 400 Z " />
<glyph glyph-name="Emacron" unicode="&#x112;" horiz-adv-x="1150" d="M48 0 L1024 0 L1059 190 L292 190 L302 265 L971 265 L1003 434 L334 434 L346 510 L1113 510 L1149 700 L173 700 L48 0 Z M476 794 L855 794 L878 925 L499 925 L476 794 Z " />
<glyph glyph-name="emacron" unicode="&#x113;" horiz-adv-x="989" d="M38 0 L869 0 L897 159 L251 159 L259 211 L820 211 L845 348 L284 348 L292 400 L938 400 L968 560 L137 560 L38 0 Z M372 654 L751 654 L774 785 L395 785 L372 654 Z " />
<glyph glyph-name="Ebreve" unicode="&#x114;" horiz-adv-x="1150" d="M48 0 L1024 0 L1059 190 L292 190 L302 265 L971 265 L1003 434 L334 434 L346 510 L1113 510 L1149 700 L173 700 L48 0 Z M679 896 C625 896 604 918 608 949 L497 949 C486 867 503 770 659 770 C815 770 867 864 888 949 L774 949 C764 918 732 896 679 896 L679 896 Z " />
<glyph glyph-name="ebreve" unicode="&#x115;" horiz-adv-x="989" d="M38 0 L869 0 L897 159 L251 159 L259 211 L820 211 L845 348 L284 348 L292 400 L938 400 L968 560 L137 560 L38 0 Z M576 756 C522 756 501 778 505 809 L394 809 C383 727 400 630 556 630 C712 630 764 724 785 809 L671 809 C661 778 629 756 576 756 L576 756 Z " />
<glyph glyph-name="Edotaccent" unicode="&#x116;" horiz-adv-x="1150" d="M48 0 L1024 0 L1059 190 L292 190 L302 265 L971 265 L1003 434 L334 434 L346 510 L1113 510 L1149 700 L173 700 L48 0 Z M571 768 L749 768 L783 949 L605 949 L571 768 Z " />
<glyph glyph-name="edotaccent" unicode="&#x117;" horiz-adv-x="989" d="M38 0 L869 0 L897 159 L251 159 L259 211 L820 211 L845 348 L284 348 L292 400 L938 400 L968 560 L137 560 L38 0 Z M467 628 L645 628 L679 809 L501 809 L467 628 Z " />
<glyph glyph-name="Eogonek" unicode="&#x118;" horiz-adv-x="1150" d="M48 0 L864 0 C766 -39 671 -103 671 -200 C671 -259 725 -299 809 -299 C859 -299 913 -297 973 -277 L989 -187 C952 -202 935 -205 908 -205 C866 -205 839 -187 839 -151 C839 -87 901 -41 965 0 L1024 0 L1059 190 L292 190 L302 265 L971 265 L1003 434 L334 434 L346 510 L1113 510 L1149 700 L173 700 L48 0 Z " />
<glyph glyph-name="eogonek" unicode="&#x119;" horiz-adv-x="989" d="M38 0 L710 0 C612 -39 517 -103 517 -200 C517 -259 571 -299 655 -299 C705 -299 759 -297 819 -277 L835 -187 C798 -202 781 -205 754 -205 C712 -205 685 -187 685 -151 C685 -87 747 -41 811 0 L869 0 L897 159 L251 159 L259 211 L820 211 L845 348 L284 348 L292 400 L938 400 L968 560 L137 560 L38 0 Z " />
<glyph glyph-name="Ecaron" unicode="&#x11a;" horiz-adv-x="1150" d="M48 0 L1024 0 L1059 190 L292 190 L302 265 L971 265 L1003 434 L334 434 L346 510 L1113 510 L1149 700 L173 700 L48 0 Z M910 946 L774 946 L676 872 L604 946 L475 946 L545 775 L779 775 L910 946 Z " />
<glyph glyph-name="ecaron" unicode="&#x11b;" horiz-adv-x="989" d="M38 0 L869 0 L897 159 L251 159 L259 211 L820 211 L845 348 L284 348 L292 400 L938 400 L968 560 L137 560 L38 0 Z M806 806 L670 806 L572 732 L500 806 L371 806 L441 635 L675 635 L806 806 Z " />
<glyph glyph-name="Gcircumflex" unicode="&#x11c;" horiz-adv-x="1205" d="M614 265 L907 265 L894 190 L460 190 C315 190 282 247 282 321 C282 398 305 510 521 510 L1099 510 L1134 700 L540 700 C194 700 57 507 57 296 C57 130 158 0 426 0 L1062 0 L1139 434 L647 434 L614 265 Z M482 775 L618 775 L716 848 L788 775 L917 775 L847 946 L614 946 L482 775 Z " />
<glyph glyph-name="gcircumflex" unicode="&#x11d;" horiz-adv-x="1033" d="M348 0 L897 0 L957 348 L538 348 L510 211 L752 211 L746 159 L368 159 C268 159 238 192 238 253 C238 330 306 400 437 400 L922 400 L952 560 L449 560 C148 560 41 400 41 232 C41 102 123 0 348 0 L348 0 Z M360 635 L496 635 L594 708 L666 635 L795 635 L725 806 L492 806 L360 635 Z " />
<glyph glyph-name="Gbreve" unicode="&#x11e;" horiz-adv-x="1205" d="M614 265 L907 265 L894 190 L460 190 C315 190 282 247 282 321 C282 398 305 510 521 510 L1099 510 L1134 700 L540 700 C194 700 57 507 57 296 C57 130 158 0 426 0 L1062 0 L1139 434 L647 434 L614 265 Z M720 896 C666 896 645 918 649 949 L538 949 C527 867 544 770 700 770 C856 770 908 864 929 949 L815 949 C805 918 773 896 720 896 L720 896 Z " />
<glyph glyph-name="gbreve" unicode="&#x11f;" horiz-adv-x="1033" d="M348 0 L897 0 L957 348 L538 348 L510 211 L752 211 L746 159 L368 159 C268 159 238 192 238 253 C238 330 306 400 437 400 L922 400 L952 560 L449 560 C148 560 41 400 41 232 C41 102 123 0 348 0 L348 0 Z M598 756 C544 756 523 778 527 809 L416 809 C405 727 422 630 578 630 C734 630 786 724 807 809 L693 809 C683 778 651 756 598 756 L598 756 Z " />
<glyph glyph-name="Gdotaccent" unicode="&#x120;" horiz-adv-x="1205" d="M614 265 L907 265 L894 190 L460 190 C315 190 282 247 282 321 C282 398 305 510 521 510 L1099 510 L1134 700 L540 700 C194 700 57 507 57 296 C57 130 158 0 426 0 L1062 0 L1139 434 L647 434 L614 265 Z M611 768 L789 768 L823 949 L645 949 L611 768 Z " />
<glyph glyph-name="gdotaccent" unicode="&#x121;" horiz-adv-x="1033" d="M348 0 L897 0 L957 348 L538 348 L510 211 L752 211 L746 159 L368 159 C268 159 238 192 238 253 C238 330 306 400 437 400 L922 400 L952 560 L449 560 C148 560 41 400 41 232 C41 102 123 0 348 0 L348 0 Z M489 628 L667 628 L701 809 L523 809 L489 628 Z " />
<glyph glyph-name="uni0122" unicode="&#x122;" horiz-adv-x="1205" d="M614 265 L907 265 L894 190 L460 190 C315 190 282 247 282 321 C282 398 305 510 521 510 L1099 510 L1134 700 L540 700 C194 700 57 507 57 296 C57 130 158 0 426 0 L1062 0 L1139 434 L647 434 L614 265 Z M444 -253 L503 -253 L391 -401 L479 -401 L622 -236 L650 -72 L476 -72 L444 -253 Z " />
<glyph glyph-name="uni0123" unicode="&#x123;" horiz-adv-x="1033" d="M348 0 L897 0 L957 348 L538 348 L510 211 L752 211 L746 159 L368 159 C268 159 238 192 238 253 C238 330 306 400 437 400 L922 400 L952 560 L449 560 C148 560 41 400 41 232 C41 102 123 0 348 0 L348 0 Z M345 -253 L404 -253 L292 -401 L380 -401 L523 -236 L551 -72 L377 -72 L345 -253 Z " />
<glyph glyph-name="Hcircumflex" unicode="&#x124;" horiz-adv-x="1252" d="M876 0 L1085 0 L1210 700 L1001 700 L956 445 L336 445 L382 700 L173 700 L48 0 L257 0 L300 255 L920 255 L876 0 Z M483 775 L619 775 L717 848 L789 775 L918 775 L848 946 L615 946 L483 775 Z " />
<glyph glyph-name="hcircumflex" unicode="&#x125;" horiz-adv-x="1078" d="M736 0 L921 0 L1020 560 L835 560 L801 360 L287 360 L322 560 L137 560 L38 0 L223 0 L258 200 L769 200 L736 0 Z M373 635 L509 635 L607 708 L679 635 L808 635 L738 806 L505 806 L373 635 Z " />
<glyph glyph-name="Hbar" unicode="&#x126;" horiz-adv-x="1252" d="M46 536 L143 536 L48 0 L257 0 L300 255 L920 255 L876 0 L1085 0 L1180 536 L1276 536 L1290 609 L1193 609 L1210 700 L1001 700 L984 609 L365 609 L382 700 L173 700 L156 609 L61 609 L46 536 Z M336 445 L352 536 L971 536 L956 445 L336 445 Z " />
<glyph glyph-name="hbar" unicode="&#x127;" horiz-adv-x="1078" d="M27 422 L112 422 L38 0 L223 0 L258 200 L769 200 L736 0 L921 0 L995 422 L1082 422 L1095 497 L1008 497 L1020 560 L835 560 L825 497 L312 497 L322 560 L137 560 L125 497 L40 497 L27 422 Z M287 360 L298 422 L811 422 L801 360 L287 360 Z " />
<glyph glyph-name="Itilde" unicode="&#x128;" horiz-adv-x="424" d="M48 0 L257 0 L382 700 L173 700 L48 0 Z M403 952 C402 927 393 913 374 913 C347 913 306 946 247 946 C173 946 118 897 93 768 L195 768 C196 792 202 806 222 806 C248 806 289 772 349 772 C424 772 478 819 504 952 L403 952 Z " />
<glyph glyph-name="itilde" unicode="&#x129;" horiz-adv-x="380" d="M38 0 L223 0 L322 560 L137 560 L38 0 Z M358 812 C357 787 348 773 329 773 C302 773 261 806 202 806 C128 806 73 757 48 628 L150 628 C151 652 157 666 177 666 C203 666 244 632 304 632 C379 632 433 679 459 812 L358 812 Z " />
<glyph glyph-name="Imacron" unicode="&#x12a;" horiz-adv-x="424" d="M48 0 L257 0 L382 700 L173 700 L48 0 Z M100 794 L479 794 L502 925 L123 925 L100 794 Z " />
<glyph glyph-name="imacron" unicode="&#x12b;" horiz-adv-x="380" d="M38 0 L223 0 L322 560 L137 560 L38 0 Z M55 654 L434 654 L457 785 L78 785 L55 654 Z " />
<glyph glyph-name="Ibreve" unicode="&#x12c;" horiz-adv-x="424" d="M48 0 L257 0 L382 700 L173 700 L48 0 Z M303 896 C249 896 228 918 232 949 L121 949 C110 867 127 770 283 770 C439 770 491 864 512 949 L398 949 C388 918 356 896 303 896 L303 896 Z " />
<glyph glyph-name="ibreve" unicode="&#x12d;" horiz-adv-x="380" d="M38 0 L223 0 L322 560 L137 560 L38 0 Z M256 756 C202 756 181 778 185 809 L74 809 C63 727 80 630 236 630 C392 630 444 724 465 809 L351 809 C341 778 309 756 256 756 L256 756 Z " />
<glyph glyph-name="Iogonek" unicode="&#x12e;" horiz-adv-x="424" d="M-98 -190 C-98 -268 -20 -299 36 -299 C86 -299 141 -297 200 -277 L219 -187 C180 -202 166 -205 139 -205 C86 -205 60 -179 60 -137 C60 -88 91 -35 128 0 L257 0 L382 700 L173 700 L48 0 C-26 -35 -98 -102 -98 -190 L-98 -190 Z " />
<glyph glyph-name="iogonek" unicode="&#x12f;" horiz-adv-x="380" d="M-108 -190 C-108 -268 -30 -299 26 -299 C76 -299 131 -297 190 -277 L209 -187 C170 -202 156 -205 129 -205 C76 -205 50 -179 50 -137 C50 -88 81 -35 118 0 L223 0 L322 560 L137 560 L38 0 C-36 -35 -108 -102 -108 -190 L-108 -190 Z " />
<glyph glyph-name="Idotaccent" unicode="&#x130;" horiz-adv-x="424" d="M48 0 L257 0 L382 700 L173 700 L48 0 Z M195 768 L373 768 L407 949 L229 949 L195 768 Z " />
<glyph glyph-name="dotlessi" unicode="&#x131;" horiz-adv-x="380" d="M38 0 L223 0 L322 560 L137 560 L38 0 Z " />
<glyph glyph-name="IJ" unicode="&#x132;" horiz-adv-x="1219" d="M108 445 L317 445 L363 700 L154 700 L108 445 Z M354 -5 L709 -5 C983 -5 1092 105 1127 303 L1197 700 L988 700 L920 336 C903 237 849 185 736 185 L387 185 C287 185 275 219 286 275 L298 344 L89 344 L77 275 C48 124 114 -5 354 -5 L354 -5 Z " />
<glyph glyph-name="ij" unicode="&#x133;" horiz-adv-x="1045" d="M82 356 L267 356 L303 560 L118 560 L82 356 Z M292 -4 L608 -4 C821 -4 922 84 950 242 L1007 560 L822 560 L767 260 C754 185 705 155 619 155 L302 155 C237 155 233 186 238 220 L249 277 L66 277 L57 220 C36 97 84 -4 292 -4 L292 -4 Z " />
<glyph glyph-name="Jcircumflex" unicode="&#x134;" horiz-adv-x="1161" d="M296 -5 L651 -5 C925 -5 1034 105 1069 303 L1139 700 L930 700 L862 336 C845 237 791 185 678 185 L329 185 C229 185 217 219 228 275 L240 344 L31 344 L19 275 C-10 124 56 -5 296 -5 L296 -5 Z M802 775 L938 775 L1036 848 L1108 775 L1237 775 L1167 946 L934 946 L802 775 Z " />
<glyph glyph-name="jcircumflex" unicode="&#x135;" horiz-adv-x="997" d="M244 -4 L560 -4 C773 -4 874 84 902 242 L959 560 L774 560 L719 260 C706 185 657 155 571 155 L254 155 C189 155 185 186 190 220 L201 277 L18 277 L9 220 C-12 97 36 -4 244 -4 L244 -4 Z M635 635 L771 635 L869 708 L941 635 L1070 635 L1000 806 L767 806 L635 635 Z " />
<glyph glyph-name="uni0136" unicode="&#x136;" horiz-adv-x="1251" d="M1234 700 L875 700 L317 354 L378 700 L173 700 L48 0 L253 0 L277 129 L548 291 L880 0 L1197 0 L724 395 L1234 700 Z M421 -253 L480 -253 L368 -401 L456 -401 L599 -236 L627 -72 L453 -72 L421 -253 Z " />
<glyph glyph-name="uni0137" unicode="&#x137;" horiz-adv-x="1077" d="M1049 560 L719 560 L273 292 L322 560 L137 560 L38 0 L223 0 L239 96 L463 226 L734 0 L1019 0 L621 315 L1049 560 Z M335 -253 L394 -253 L282 -401 L370 -401 L513 -236 L541 -72 L367 -72 L335 -253 Z " />
<glyph glyph-name="kgreenlandic" unicode="&#x138;" horiz-adv-x="1234" d="M1196 412 L1136 412 L1248 560 L1161 560 L1020 395 L990 231 L1164 231 L1196 412 Z M1049 560 L719 560 L273 292 L322 560 L137 560 L38 0 L223 0 L239 96 L463 226 L734 0 L1019 0 L621 315 L1049 560 Z " />
<glyph glyph-name="Lacute" unicode="&#x139;" horiz-adv-x="1083" d="M382 700 L173 700 L48 0 L1005 0 L1039 190 L292 190 L382 700 Z M169 775 L310 775 L522 946 L288 946 L169 775 Z " />
<glyph glyph-name="lacute" unicode="&#x13a;" horiz-adv-x="943" d="M322 560 L137 560 L38 0 L853 0 L881 159 L251 159 L322 560 Z M124 635 L265 635 L477 806 L243 806 L124 635 Z " />
<glyph glyph-name="uni013B" unicode="&#x13b;" horiz-adv-x="1083" d="M382 700 L173 700 L48 0 L1005 0 L1039 190 L292 190 L382 700 Z M395 -253 L454 -253 L342 -401 L430 -401 L573 -236 L601 -72 L427 -72 L395 -253 Z " />
<glyph glyph-name="uni013C" unicode="&#x13c;" horiz-adv-x="943" d="M322 560 L137 560 L38 0 L853 0 L881 159 L251 159 L322 560 Z M321 -253 L380 -253 L268 -401 L356 -401 L499 -236 L527 -72 L353 -72 L321 -253 Z " />
<glyph glyph-name="Lcaron" unicode="&#x13d;" horiz-adv-x="1083" d="M382 700 L173 700 L48 0 L1005 0 L1039 190 L292 190 L382 700 Z M799 492 L885 492 L764 311 L854 311 L1008 509 L1044 699 L837 699 L799 492 Z " />
<glyph glyph-name="lcaron" unicode="&#x13e;" horiz-adv-x="943" d="M313 560 L136 560 L38 0 L852 0 L879 159 L243 159 L313 560 Z M680 379 L738 379 L630 231 L715 231 L856 396 L886 560 L712 560 L680 379 Z " />
<glyph glyph-name="Ldot" unicode="&#x13f;" horiz-adv-x="1083" d="M382 700 L173 700 L48 0 L1005 0 L1039 190 L292 190 L382 700 Z M709 351 L887 351 L921 532 L743 532 L709 351 Z " />
<glyph glyph-name="ldot" unicode="&#x140;" horiz-adv-x="943" d="M322 560 L137 560 L38 0 L853 0 L881 159 L251 159 L322 560 Z M598 268 L776 268 L810 449 L632 449 L598 268 Z " />
<glyph glyph-name="Lslash" unicode="&#x141;" horiz-adv-x="1083" d="M631 626 L340 482 L378 700 L173 700 L116 381 L13 336 L-26 123 L80 177 L48 0 L1004 0 L1039 190 L288 190 L302 277 L592 412 L631 626 Z " />
<glyph glyph-name="lslash" unicode="&#x142;" horiz-adv-x="943" d="M532 507 L291 395 L318 560 L137 560 L94 310 L7 274 L-28 95 L63 141 L38 0 L852 0 L880 159 L249 159 L257 220 L497 326 L532 507 Z " />
<glyph glyph-name="Nacute" unicode="&#x143;" horiz-adv-x="1256" d="M892 0 L1089 0 L1214 700 L1007 700 L923 228 L370 700 L173 700 L48 0 L257 0 L340 472 L892 0 Z M588 775 L729 775 L941 946 L707 946 L588 775 Z " />
<glyph glyph-name="nacute" unicode="&#x144;" horiz-adv-x="1083" d="M926 0 L1025 560 L841 560 L778 195 L312 560 L137 560 L38 0 L223 0 L286 365 L751 0 L926 0 Z M478 635 L619 635 L831 806 L597 806 L478 635 Z " />
<glyph glyph-name="uni0145" unicode="&#x145;" horiz-adv-x="1256" d="M892 0 L1089 0 L1214 700 L1007 700 L923 228 L370 700 L173 700 L48 0 L257 0 L340 472 L892 0 Z M437 -253 L496 -253 L384 -401 L472 -401 L615 -236 L643 -72 L469 -72 L437 -253 Z " />
<glyph glyph-name="uni0146" unicode="&#x146;" horiz-adv-x="1083" d="M926 0 L1025 560 L841 560 L778 195 L312 560 L137 560 L38 0 L223 0 L286 365 L751 0 L926 0 Z M350 -253 L409 -253 L297 -401 L385 -401 L528 -236 L556 -72 L382 -72 L350 -253 Z " />
<glyph glyph-name="Ncaron" unicode="&#x147;" horiz-adv-x="1256" d="M892 0 L1089 0 L1214 700 L1007 700 L923 228 L370 700 L173 700 L48 0 L257 0 L340 472 L892 0 Z M953 946 L817 946 L719 872 L647 946 L518 946 L588 775 L822 775 L953 946 Z " />
<glyph glyph-name="ncaron" unicode="&#x148;" horiz-adv-x="1083" d="M926 0 L1025 560 L841 560 L778 195 L312 560 L137 560 L38 0 L223 0 L286 365 L751 0 L926 0 Z M843 806 L707 806 L609 732 L537 806 L408 806 L478 635 L712 635 L843 806 Z " />
<glyph glyph-name="napostrophe" unicode="&#x149;" horiz-adv-x="1368" d="M1210 0 L1309 560 L1125 560 L1062 195 L596 560 L421 560 L322 0 L507 0 L570 365 L1035 0 L1210 0 Z M85 519 L144 519 L32 371 L120 371 L263 536 L291 700 L117 700 L85 519 Z " />
<glyph glyph-name="Eng" unicode="&#x14a;" horiz-adv-x="1256" d="M605 -230 L781 -230 C978 -230 1061 -147 1084 -23 L1214 700 L1007 700 L923 228 L370 700 L173 700 L48 0 L257 0 L340 472 L883 7 L882 1 C880 -24 854 -40 800 -40 L641 -40 L605 -230 Z " />
<glyph glyph-name="eng" unicode="&#x14b;" horiz-adv-x="1083" d="M514 -184 L679 -184 C838 -184 905 -121 922 -21 L1025 560 L841 560 L778 195 L312 560 L137 560 L38 0 L223 0 L286 365 L743 6 L742 5 C740 -13 733 -25 690 -25 L545 -25 L514 -184 Z " />
<glyph glyph-name="Omacron" unicode="&#x14c;" horiz-adv-x="1293" d="M737 -10 C1100 -10 1240 175 1240 403 C1240 577 1133 710 861 710 L561 710 C198 710 57 526 57 295 C57 122 167 -10 438 -10 L737 -10 Z M478 180 C324 180 282 240 282 319 C282 408 320 520 546 520 L819 520 C971 520 1015 459 1015 380 C1015 283 967 180 751 180 L478 180 Z M537 794 L916 794 L939 925 L560 925 L537 794 Z " />
<glyph glyph-name="omacron" unicode="&#x14d;" horiz-adv-x="1105" d="M625 -8 C930 -8 1040 152 1045 326 C1049 461 963 568 729 568 L460 568 C155 568 44 408 41 234 C37 99 121 -8 356 -8 L625 -8 Z M388 151 C264 151 236 196 237 253 C238 322 294 408 430 408 L698 408 C819 408 849 364 849 306 C849 240 791 151 656 151 L388 151 Z M419 654 L798 654 L821 785 L442 785 L419 654 Z " />
<glyph glyph-name="Obreve" unicode="&#x14e;" horiz-adv-x="1293" d="M737 -10 C1100 -10 1240 175 1240 403 C1240 577 1133 710 861 710 L561 710 C198 710 57 526 57 295 C57 122 167 -10 438 -10 L737 -10 Z M478 180 C324 180 282 240 282 319 C282 408 320 520 546 520 L819 520 C971 520 1015 459 1015 380 C1015 283 967 180 751 180 L478 180 Z M741 896 C687 896 666 918 670 949 L559 949 C548 867 565 770 721 770 C877 770 929 864 950 949 L836 949 C826 918 794 896 741 896 L741 896 Z " />
<glyph glyph-name="obreve" unicode="&#x14f;" horiz-adv-x="1105" d="M625 -8 C930 -8 1040 152 1045 326 C1049 461 963 568 729 568 L460 568 C155 568 44 408 41 234 C37 99 121 -8 356 -8 L625 -8 Z M388 151 C264 151 236 196 237 253 C238 322 294 408 430 408 L698 408 C819 408 849 364 849 306 C849 240 791 151 656 151 L388 151 Z M622 756 C568 756 547 778 551 809 L440 809 C429 727 446 630 602 630 C758 630 810 724 831 809 L717 809 C707 778 675 756 622 756 L622 756 Z " />
<glyph glyph-name="Ohungarumlaut" unicode="&#x150;" horiz-adv-x="1293" d="M737 -10 C1100 -10 1240 175 1240 403 C1240 577 1133 710 861 710 L561 710 C198 710 57 526 57 295 C57 122 167 -10 438 -10 L737 -10 Z M478 180 C324 180 282 240 282 319 C282 408 320 520 546 520 L819 520 C971 520 1015 459 1015 380 C1015 283 967 180 751 180 L478 180 Z M457 775 L598 775 L808 946 L576 946 L457 775 Z M761 775 L902 775 L1112 946 L882 946 L761 775 Z " />
<glyph glyph-name="ohungarumlaut" unicode="&#x151;" horiz-adv-x="1105" d="M625 -8 C930 -8 1040 152 1045 326 C1049 461 963 568 729 568 L460 568 C155 568 44 408 41 234 C37 99 121 -8 356 -8 L625 -8 Z M388 151 C264 151 236 196 237 253 C238 322 294 408 430 408 L698 408 C819 408 849 364 849 306 C849 240 791 151 656 151 L388 151 Z M338 635 L479 635 L689 806 L457 806 L338 635 Z M642 635 L783 635 L993 806 L763 806 L642 635 Z " />
<glyph glyph-name="OE" unicode="&#x152;" horiz-adv-x="1684" d="M57 296 C54 130 158 0 426 0 L1558 0 L1593 190 L927 190 L938 265 L1506 265 L1539 434 L971 434 L981 510 L1648 510 L1683 700 L551 700 C205 700 60 507 57 296 L57 296 Z M284 321 C286 398 298 510 516 510 L772 510 L718 190 L462 190 C317 190 282 247 284 321 L284 321 Z " />
<glyph glyph-name="oe" unicode="&#x153;" horiz-adv-x="1437" d="M1320 0 L1348 159 L787 159 L794 211 L1271 211 L1296 348 L820 348 L829 400 L1389 400 L1419 560 L449 560 C148 560 41 400 41 232 C41 102 123 0 348 0 L1320 0 Z M238 253 C238 330 306 400 437 400 L644 400 L603 159 L368 159 C268 159 238 192 238 253 L238 253 Z " />
<glyph glyph-name="Racute" unicode="&#x154;" horiz-adv-x="1229" d="M48 0 L253 0 L293 218 L607 218 L859 0 L1174 0 L892 226 C1068 253 1146 362 1146 497 C1146 610 1074 700 888 700 L173 700 L48 0 Z M849 510 C913 510 926 492 926 466 C926 430 903 401 825 401 L325 401 L344 510 L849 510 Z M539 775 L680 775 L892 946 L658 946 L539 775 Z " />
<glyph glyph-name="racute" unicode="&#x155;" horiz-adv-x="1061" d="M38 0 L223 0 L253 171 L516 171 L718 0 L998 0 L768 178 C913 203 970 296 970 394 C970 485 911 560 751 560 L139 560 L38 0 Z M716 400 C768 400 774 383 774 368 C774 351 764 325 701 325 L280 325 L293 400 L716 400 Z M436 635 L577 635 L789 806 L555 806 L436 635 Z " />
<glyph glyph-name="uni0156" unicode="&#x156;" horiz-adv-x="1229" d="M48 0 L253 0 L293 218 L607 218 L859 0 L1174 0 L892 226 C1068 253 1146 362 1146 497 C1146 610 1074 700 888 700 L173 700 L48 0 Z M849 510 C913 510 926 492 926 466 C926 430 903 401 825 401 L325 401 L344 510 L849 510 Z M412 -253 L471 -253 L359 -401 L447 -401 L590 -236 L618 -72 L444 -72 L412 -253 Z " />
<glyph glyph-name="uni0157" unicode="&#x157;" horiz-adv-x="1061" d="M38 0 L223 0 L253 171 L516 171 L718 0 L998 0 L768 178 C913 203 970 296 970 394 C970 485 911 560 751 560 L139 560 L38 0 Z M716 400 C768 400 774 383 774 368 C774 351 764 325 701 325 L280 325 L293 400 L716 400 Z M323 -253 L382 -253 L270 -401 L358 -401 L501 -236 L529 -72 L355 -72 L323 -253 Z " />
<glyph glyph-name="Rcaron" unicode="&#x158;" horiz-adv-x="1229" d="M48 0 L253 0 L293 218 L607 218 L859 0 L1174 0 L892 226 C1068 253 1146 362 1146 497 C1146 610 1074 700 888 700 L173 700 L48 0 Z M849 510 C913 510 926 492 926 466 C926 430 903 401 825 401 L325 401 L344 510 L849 510 Z M904 946 L768 946 L670 872 L598 946 L469 946 L539 775 L773 775 L904 946 Z " />
<glyph glyph-name="rcaron" unicode="&#x159;" horiz-adv-x="1061" d="M38 0 L223 0 L253 171 L516 171 L718 0 L998 0 L768 178 C913 203 970 296 970 394 C970 485 911 560 751 560 L139 560 L38 0 Z M716 400 C768 400 774 383 774 368 C774 351 764 325 701 325 L280 325 L293 400 L716 400 Z M801 806 L665 806 L567 732 L495 806 L366 806 L436 635 L670 635 L801 806 Z " />
<glyph glyph-name="Sacute" unicode="&#x15a;" horiz-adv-x="1158" d="M794 190 L74 190 L38 0 L766 0 C989 0 1081 111 1081 249 C1081 356 1013 434 843 434 L356 434 C308 434 303 452 303 468 C303 489 315 510 369 510 L1090 510 L1126 700 L397 700 C174 700 82 588 82 450 C82 343 148 265 319 265 L807 265 C855 265 860 248 860 231 C860 211 849 190 794 190 L794 190 Z M539 775 L680 775 L892 946 L658 946 L539 775 Z " />
<glyph glyph-name="sacute" unicode="&#x15b;" horiz-adv-x="988" d="M669 159 L53 159 L25 0 L649 0 C846 0 911 92 911 204 C911 287 856 346 712 346 L292 346 C257 346 251 360 251 369 C251 381 258 400 298 400 L914 400 L945 560 L321 560 C121 560 58 467 58 357 C58 273 111 213 257 213 L678 213 C713 213 718 199 718 190 C718 179 709 159 669 159 L669 159 Z M431 635 L572 635 L784 806 L550 806 L431 635 Z " />
<glyph glyph-name="Scircumflex" unicode="&#x15c;" horiz-adv-x="1158" d="M794 190 L74 190 L38 0 L766 0 C989 0 1081 111 1081 249 C1081 356 1013 434 843 434 L356 434 C308 434 303 452 303 468 C303 489 315 510 369 510 L1090 510 L1126 700 L397 700 C174 700 82 588 82 450 C82 343 148 265 319 265 L807 265 C855 265 860 248 860 231 C860 211 849 190 794 190 L794 190 Z M436 775 L572 775 L670 848 L742 775 L871 775 L801 946 L568 946 L436 775 Z " />
<glyph glyph-name="scircumflex" unicode="&#x15d;" horiz-adv-x="988" d="M669 159 L53 159 L25 0 L649 0 C846 0 911 92 911 204 C911 287 856 346 712 346 L292 346 C257 346 251 360 251 369 C251 381 258 400 298 400 L914 400 L945 560 L321 560 C121 560 58 467 58 357 C58 273 111 213 257 213 L678 213 C713 213 718 199 718 190 C718 179 709 159 669 159 L669 159 Z M328 635 L464 635 L562 708 L634 635 L763 635 L693 806 L460 806 L328 635 Z " />
<glyph glyph-name="Scedilla" unicode="&#x15e;" horiz-adv-x="1158" d="M409 -151 L456 -151 C494 -151 513 -156 513 -175 C513 -211 464 -215 419 -215 C384 -215 353 -204 338 -189 L320 -279 C348 -294 396 -310 450 -309 C546 -307 650 -281 650 -167 C650 -95 581 -65 513 -72 L546 0 L766 0 C989 0 1081 111 1081 249 C1081 356 1013 434 843 434 L356 434 C308 434 303 452 303 468 C303 489 315 510 369 510 L1090 510 L1126 700 L397 700 C174 700 82 588 82 450 C82 343 148 265 319 265 L807 265 C855 265 860 248 860 231 C860 211 849 190 794 190 L74 190 L38 0 L476 0 L409 -151 Z " />
<glyph glyph-name="scedilla" unicode="&#x15f;" horiz-adv-x="988" d="M325 -151 L372 -151 C410 -151 429 -156 429 -175 C429 -211 380 -215 335 -215 C300 -215 269 -204 254 -189 L236 -279 C264 -294 312 -310 366 -309 C462 -307 566 -281 566 -167 C566 -95 497 -65 429 -72 L462 0 L649 0 C846 0 911 92 911 204 C911 287 856 346 712 346 L292 346 C257 346 251 360 251 369 C251 381 258 400 298 400 L914 400 L945 560 L321 560 C121 560 58 467 58 357 C58 273 111 213 257 213 L678 213 C713 213 718 199 718 190 C718 179 709 159 669 159 L53 159 L25 0 L392 0 L325 -151 Z " />
<glyph glyph-name="Scaron" unicode="&#x160;" horiz-adv-x="1158" d="M794 190 L74 190 L38 0 L766 0 C989 0 1081 111 1081 249 C1081 356 1013 434 843 434 L356 434 C308 434 303 452 303 468 C303 489 315 510 369 510 L1090 510 L1126 700 L397 700 C174 700 82 588 82 450 C82 343 148 265 319 265 L807 265 C855 265 860 248 860 231 C860 211 849 190 794 190 L794 190 Z M904 946 L768 946 L670 872 L598 946 L469 946 L539 775 L773 775 L904 946 Z " />
<glyph glyph-name="scaron" unicode="&#x161;" horiz-adv-x="988" d="M669 159 L53 159 L25 0 L649 0 C846 0 911 92 911 204 C911 287 856 346 712 346 L292 346 C257 346 251 360 251 369 C251 381 258 400 298 400 L914 400 L945 560 L321 560 C121 560 58 467 58 357 C58 273 111 213 257 213 L678 213 C713 213 718 199 718 190 C718 179 709 159 669 159 L669 159 Z M796 806 L660 806 L562 732 L490 806 L361 806 L431 635 L665 635 L796 806 Z " />
<glyph glyph-name="uni0162" unicode="&#x162;" horiz-adv-x="1136" d="M398 -151 L445 -151 C483 -151 502 -156 502 -175 C502 -211 453 -215 408 -215 C373 -215 342 -204 327 -189 L309 -279 C337 -294 385 -310 439 -309 C535 -307 639 -281 639 -167 C639 -95 570 -65 502 -72 L535 0 L611 0 L703 510 L1147 510 L1182 700 L85 700 L49 510 L494 510 L404 0 L465 0 L398 -151 Z " />
<glyph glyph-name="uni0163" unicode="&#x163;" horiz-adv-x="995" d="M329 -151 L376 -151 C414 -151 433 -156 433 -175 C433 -211 384 -215 339 -215 C304 -215 273 -204 258 -189 L240 -279 C268 -294 316 -310 370 -309 C466 -307 570 -281 570 -167 C570 -95 501 -65 433 -72 L466 0 L531 0 L600 400 L974 400 L1004 560 L71 560 L40 400 L416 400 L346 0 L396 0 L329 -151 Z " />
<glyph glyph-name="Tcaron" unicode="&#x164;" horiz-adv-x="1136" d="M49 510 L494 510 L404 0 L611 0 L703 510 L1147 510 L1182 700 L85 700 L49 510 Z M893 946 L757 946 L659 872 L587 946 L458 946 L528 775 L762 775 L893 946 Z " />
<glyph glyph-name="tcaron" unicode="&#x165;" horiz-adv-x="995" d="M40 400 L416 400 L346 0 L531 0 L600 400 L974 400 L1004 560 L71 560 L40 400 Z M800 806 L664 806 L566 732 L494 806 L365 806 L435 635 L669 635 L800 806 Z " />
<glyph glyph-name="Tbar" unicode="&#x166;" horiz-adv-x="1136" d="M49 510 L494 510 L481 430 L265 430 L234 270 L452 270 L404 0 L611 0 L660 270 L874 270 L905 430 L688 430 L703 510 L1147 510 L1182 700 L85 700 L49 510 Z " />
<glyph glyph-name="tbar" unicode="&#x167;" horiz-adv-x="995" d="M40 400 L416 400 L404 329 L211 329 L187 196 L381 196 L346 0 L531 0 L564 196 L756 196 L780 329 L588 329 L600 400 L974 400 L1004 560 L71 560 L40 400 Z " />
<glyph glyph-name="Utilde" unicode="&#x168;" horiz-adv-x="1223" d="M294 323 L363 700 L154 700 L85 323 C50 130 126 -10 408 -10 L711 -10 C985 -10 1097 114 1131 305 L1201 700 L992 700 L926 338 C908 239 853 180 740 180 L431 180 C303 180 280 240 294 323 L294 323 Z M806 952 C805 927 796 913 777 913 C750 913 709 946 650 946 C576 946 521 897 496 768 L598 768 C599 792 605 806 625 806 C651 806 692 772 752 772 C827 772 881 819 907 952 L806 952 Z " />
<glyph glyph-name="utilde" unicode="&#x169;" horiz-adv-x="1047" d="M248 258 L300 560 L118 560 L64 258 C36 104 85 -8 340 -8 L609 -8 C822 -8 923 81 951 238 L1008 560 L824 560 L769 256 C756 181 708 151 622 151 L374 151 C245 151 236 186 248 258 L248 258 Z M695 812 C694 787 685 773 666 773 C639 773 598 806 539 806 C465 806 410 757 385 628 L487 628 C488 652 494 666 514 666 C540 666 581 632 641 632 C716 632 770 679 796 812 L695 812 Z " />
<glyph glyph-name="Umacron" unicode="&#x16a;" horiz-adv-x="1223" d="M294 323 L363 700 L154 700 L85 323 C50 130 126 -10 408 -10 L711 -10 C985 -10 1097 114 1131 305 L1201 700 L992 700 L926 338 C908 239 853 180 740 180 L431 180 C303 180 280 240 294 323 L294 323 Z M503 794 L882 794 L905 925 L526 925 L503 794 Z " />
<glyph glyph-name="umacron" unicode="&#x16b;" horiz-adv-x="1047" d="M248 258 L300 560 L118 560 L64 258 C36 104 85 -8 340 -8 L609 -8 C822 -8 923 81 951 238 L1008 560 L824 560 L769 256 C756 181 708 151 622 151 L374 151 C245 151 236 186 248 258 L248 258 Z M392 654 L771 654 L794 785 L415 785 L392 654 Z " />
<glyph glyph-name="Ubreve" unicode="&#x16c;" horiz-adv-x="1223" d="M294 323 L363 700 L154 700 L85 323 C50 130 126 -10 408 -10 L711 -10 C985 -10 1097 114 1131 305 L1201 700 L992 700 L926 338 C908 239 853 180 740 180 L431 180 C303 180 280 240 294 323 L294 323 Z M706 896 C652 896 631 918 635 949 L524 949 C513 867 530 770 686 770 C842 770 894 864 915 949 L801 949 C791 918 759 896 706 896 L706 896 Z " />
<glyph glyph-name="ubreve" unicode="&#x16d;" horiz-adv-x="1047" d="M248 258 L300 560 L118 560 L64 258 C36 104 85 -8 340 -8 L609 -8 C822 -8 923 81 951 238 L1008 560 L824 560 L769 256 C756 181 708 151 622 151 L374 151 C245 151 236 186 248 258 L248 258 Z M594 756 C540 756 519 778 523 809 L412 809 C401 727 418 630 574 630 C730 630 782 724 803 809 L689 809 C679 778 647 756 594 756 L594 756 Z " />
<glyph glyph-name="Uring" unicode="&#x16e;" horiz-adv-x="1223" d="M294 323 L363 700 L154 700 L85 323 C50 130 126 -10 408 -10 L711 -10 C985 -10 1097 114 1131 305 L1201 700 L992 700 L926 338 C908 239 853 180 740 180 L431 180 C303 180 280 240 294 323 L294 323 Z M563 853 C563 790 611 740 691 740 C779 740 843 797 843 871 C843 934 794 982 715 982 C627 982 563 925 563 853 L563 853 Z M677 859 C677 875 690 887 706 887 C718 887 729 876 729 863 C729 847 715 836 699 836 C685 836 677 847 677 859 L677 859 Z " />
<glyph glyph-name="uring" unicode="&#x16f;" horiz-adv-x="1047" d="M248 258 L300 560 L118 560 L64 258 C36 104 85 -8 340 -8 L609 -8 C822 -8 923 81 951 238 L1008 560 L824 560 L769 256 C756 181 708 151 622 151 L374 151 C245 151 236 186 248 258 L248 258 Z M452 713 C452 650 500 600 580 600 C668 600 732 657 732 731 C732 794 683 842 604 842 C516 842 452 785 452 713 L452 713 Z M566 719 C566 735 579 747 595 747 C607 747 618 736 618 723 C618 707 604 696 588 696 C574 696 566 707 566 719 L566 719 Z " />
<glyph glyph-name="Uhungarumlaut" unicode="&#x170;" horiz-adv-x="1223" d="M294 323 L363 700 L154 700 L85 323 C50 130 126 -10 408 -10 L711 -10 C985 -10 1097 114 1131 305 L1201 700 L992 700 L926 338 C908 239 853 180 740 180 L431 180 C303 180 280 240 294 323 L294 323 Z M422 775 L563 775 L773 946 L541 946 L422 775 Z M726 775 L867 775 L1077 946 L847 946 L726 775 Z " />
<glyph glyph-name="uhungarumlaut" unicode="&#x171;" horiz-adv-x="1047" d="M248 258 L300 560 L118 560 L64 258 C36 104 85 -8 340 -8 L609 -8 C822 -8 923 81 951 238 L1008 560 L824 560 L769 256 C756 181 708 151 622 151 L374 151 C245 151 236 186 248 258 L248 258 Z M310 635 L451 635 L661 806 L429 806 L310 635 Z M614 635 L755 635 L965 806 L735 806 L614 635 Z " />
<glyph glyph-name="Uogonek" unicode="&#x172;" horiz-adv-x="1223" d="M505 -200 C505 -259 558 -299 642 -299 C692 -299 747 -297 806 -277 L823 -187 C785 -202 769 -205 742 -205 C700 -205 673 -187 673 -151 C673 -90 728 -46 788 -7 C1006 15 1100 134 1131 305 L1201 700 L992 700 L926 338 C908 239 853 180 740 180 L431 180 C303 180 280 240 294 323 L363 700 L154 700 L85 323 C50 130 126 -10 408 -10 L675 -10 C585 -50 505 -111 505 -200 L505 -200 Z " />
<glyph glyph-name="uogonek" unicode="&#x173;" horiz-adv-x="1047" d="M387 -200 C387 -259 441 -299 525 -299 C575 -299 629 -297 689 -277 L705 -187 C668 -202 651 -205 624 -205 C582 -205 555 -187 555 -151 C555 -88 612 -45 673 -5 C842 12 926 98 951 238 L1008 560 L824 560 L769 256 C756 181 708 151 622 151 L374 151 C245 151 236 186 248 258 L300 560 L118 560 L64 258 C36 104 85 -8 340 -8 L561 -8 C470 -48 387 -109 387 -200 L387 -200 Z " />
<glyph glyph-name="Wcircumflex" unicode="&#x174;" horiz-adv-x="1552" d="M791 439 L940 0 L1094 0 L1607 700 L1343 700 L1051 261 L906 700 L752 700 L454 261 L317 700 L77 700 L339 0 L493 0 L791 439 Z M633 775 L769 775 L867 848 L939 775 L1068 775 L998 946 L765 946 L633 775 Z " />
<glyph glyph-name="wcircumflex" unicode="&#x175;" horiz-adv-x="1325" d="M661 340 L789 0 L925 0 L1353 560 L1125 560 L886 219 L763 560 L627 560 L385 219 L265 560 L51 560 L281 0 L417 0 L661 340 Z M496 635 L632 635 L730 708 L802 635 L931 635 L861 806 L628 806 L496 635 Z " />
<glyph glyph-name="Ycircumflex" unicode="&#x176;" horiz-adv-x="1208" d="M440 0 L649 0 L686 213 L1284 700 L967 700 L602 378 L345 700 L56 700 L477 213 L440 0 Z M459 775 L595 775 L693 848 L765 775 L894 775 L824 946 L591 946 L459 775 Z " />
<glyph glyph-name="ycircumflex" unicode="&#x177;" horiz-adv-x="1026" d="M362 0 L546 0 L576 171 L1076 560 L795 560 L498 307 L285 560 L30 560 L392 171 L362 0 Z M345 635 L481 635 L579 708 L651 635 L780 635 L710 806 L477 806 L345 635 Z " />
<glyph glyph-name="Ydieresis" unicode="&#x178;" horiz-adv-x="1208" d="M440 0 L649 0 L686 213 L1284 700 L967 700 L602 378 L345 700 L56 700 L477 213 L440 0 Z M435 768 L615 768 L649 949 L468 949 L435 768 Z M735 768 L915 768 L947 949 L765 949 L735 768 Z " />
<glyph glyph-name="Zacute" unicode="&#x179;" horiz-adv-x="1157" d="M5 0 L1048 0 L1083 190 L456 190 L1127 555 L1148 700 L135 700 L99 510 L696 510 L25 144 L5 0 Z M537 775 L678 775 L890 946 L656 946 L537 775 Z " />
<glyph glyph-name="zacute" unicode="&#x17a;" horiz-adv-x="989" d="M-2 0 L887 0 L915 159 L397 159 L946 437 L963 560 L101 560 L70 400 L561 400 L14 122 L-2 0 Z M430 635 L571 635 L783 806 L549 806 L430 635 Z " />
<glyph glyph-name="Zdotaccent" unicode="&#x17b;" horiz-adv-x="1157" d="M5 0 L1048 0 L1083 190 L456 190 L1127 555 L1148 700 L135 700 L99 510 L696 510 L25 144 L5 0 Z M563 768 L741 768 L775 949 L597 949 L563 768 Z " />
<glyph glyph-name="zdotaccent" unicode="&#x17c;" horiz-adv-x="989" d="M-2 0 L887 0 L915 159 L397 159 L946 437 L963 560 L101 560 L70 400 L561 400 L14 122 L-2 0 Z M456 628 L634 628 L668 809 L490 809 L456 628 Z " />
<glyph glyph-name="Zcaron" unicode="&#x17d;" horiz-adv-x="1157" d="M5 0 L1048 0 L1083 190 L456 190 L1127 555 L1148 700 L135 700 L99 510 L696 510 L25 144 L5 0 Z M902 946 L766 946 L668 872 L596 946 L467 946 L537 775 L771 775 L902 946 Z " />
<glyph glyph-name="zcaron" unicode="&#x17e;" horiz-adv-x="989" d="M-2 0 L887 0 L915 159 L397 159 L946 437 L963 560 L101 560 L70 400 L561 400 L14 122 L-2 0 Z M795 806 L659 806 L561 732 L489 806 L360 806 L430 635 L664 635 L795 806 Z " />
<glyph glyph-name="uni0186" unicode="&#x186;" horiz-adv-x="1136" d="M858 378 C858 301 831 190 618 190 L40 190 L6 0 L599 0 C945 0 1083 193 1083 404 C1083 570 982 700 714 700 L131 700 L97 510 L679 510 C824 510 858 452 858 378 L858 378 Z " />
<glyph glyph-name="uni0189" unicode="&#x189;" horiz-adv-x="1204" d="M-31 265 L95 265 L48 0 L667 0 C1011 0 1150 193 1150 404 C1150 570 1049 700 781 700 L173 700 L125 434 L2 434 L-31 265 Z M746 510 C891 510 925 453 925 378 C925 301 898 190 685 190 L288 190 L301 265 L610 265 L642 434 L330 434 L344 510 L746 510 Z " />
<glyph glyph-name="uni018E" unicode="&#x18e;" horiz-adv-x="1150" d="M1109 700 L133 700 L97 510 L864 510 L853 434 L184 434 L151 265 L820 265 L809 190 L42 190 L7 0 L983 0 L1109 700 Z " />
<glyph glyph-name="florin" unicode="&#x192;" horiz-adv-x="1245" d="M369 117 C353 62 315 30 250 30 L110 30 L73 -160 L246 -160 C432 -160 530 -59 568 88 L616 259 L896 259 L927 430 L663 430 C677 478 703 510 775 510 L1123 510 L1158 700 L797 700 C594 700 500 589 462 452 L455 430 L299 430 L269 259 L408 259 L369 117 Z " />
<glyph glyph-name="Ohorn" unicode="&#x1a0;" horiz-adv-x="1293" d="M737 -10 C1100 -10 1240 175 1240 403 C1240 477 1220 545 1178 597 L1164 597 C1279 597 1387 626 1387 826 L1198 826 C1198 715 1161 700 1124 700 L980 700 C945 706 905 710 861 710 L561 710 C198 710 57 526 57 295 C57 122 167 -10 438 -10 L737 -10 Z M478 180 C324 180 282 240 282 319 C282 408 320 520 546 520 L819 520 C971 520 1015 459 1015 380 C1015 283 967 180 751 180 L478 180 Z " />
<glyph glyph-name="ohorn" unicode="&#x1a1;" horiz-adv-x="1105" d="M625 -8 C930 -8 1040 152 1045 326 C1046 374 1036 421 1012 460 C1086 469 1149 507 1169 615 C1172 637 1174 659 1174 686 L985 686 C985 664 983 645 980 630 C969 569 942 560 911 560 L830 560 C800 565 766 568 729 568 L460 568 C155 568 44 408 41 234 C37 99 121 -8 356 -8 L625 -8 Z M388 151 C264 151 236 196 237 253 C238 322 294 408 430 408 L698 408 C819 408 849 364 849 306 C849 240 791 151 656 151 L388 151 Z " />
<glyph glyph-name="uni01A7" unicode="&#x1a7;" horiz-adv-x="1158" d="M1037 190 L311 190 C262 190 257 208 257 222 C257 242 268 265 321 265 L813 265 C1042 265 1130 384 1130 517 C1130 620 1064 700 891 700 L163 700 L127 510 L852 510 C901 510 907 491 907 478 C907 457 895 434 842 434 L351 434 C121 434 33 315 33 183 C33 79 99 0 272 0 L1001 0 L1037 190 Z " />
<glyph glyph-name="uni01A8" unicode="&#x1a8;" horiz-adv-x="988" d="M873 159 L260 159 C224 159 218 171 218 180 C218 193 225 213 265 213 L685 213 C886 213 948 306 948 417 C948 500 895 560 750 560 L126 560 L96 400 L710 400 C746 400 751 388 751 379 C751 366 744 346 702 346 L281 346 C84 346 19 253 19 142 C19 60 74 0 220 0 L844 0 L873 159 Z " />
<glyph glyph-name="Uhorn" unicode="&#x1af;" horiz-adv-x="1367" d="M294 323 L363 700 L154 700 L85 323 C50 130 126 -10 408 -10 L711 -10 C985 -10 1097 114 1131 305 L1182 597 L1233 597 C1334 597 1427 619 1452 755 C1455 777 1457 799 1457 826 L1268 826 C1268 804 1266 785 1263 770 C1252 709 1224 700 1194 700 L992 700 L926 338 C908 239 853 180 740 180 L431 180 C303 180 280 240 294 323 L294 323 Z " />
<glyph glyph-name="uhorn" unicode="&#x1b0;" horiz-adv-x="1201" d="M248 258 L300 560 L118 560 L64 258 C36 104 85 -8 340 -8 L609 -8 C822 -8 923 81 951 238 L989 457 L1044 457 C1145 457 1238 479 1262 615 C1265 637 1267 659 1267 686 L1078 686 C1078 664 1076 645 1073 630 C1062 569 1035 560 1004 560 L824 560 L769 256 C756 181 708 151 622 151 L374 151 C245 151 236 186 248 258 L248 258 Z " />
<glyph glyph-name="uni01B1" unicode="&#x1b1;" horiz-adv-x="1301" d="M825 544 C958 528 1020 465 1020 385 C1020 301 980 180 759 180 L483 180 C327 180 289 240 289 321 C289 419 367 532 555 544 L580 700 L122 700 L86 510 L153 510 C95 431 75 344 75 254 C75 107 170 -10 410 -10 L769 -10 C1088 -10 1217 170 1217 362 C1217 415 1204 470 1196 510 L1274 510 L1310 700 L852 700 L825 544 Z " />
<glyph glyph-name="uni01C0" unicode="&#x1c0;" horiz-adv-x="384" d="M365 800 L191 800 L29 -100 L204 -100 L365 800 Z " />
<glyph glyph-name="uni01C1" unicode="&#x1c1;" horiz-adv-x="768" d="M365 800 L191 800 L29 -100 L204 -100 L365 800 Z M749 800 L575 800 L413 -100 L588 -100 L749 800 Z " />
<glyph glyph-name="uni01C2" unicode="&#x1c2;" horiz-adv-x="684" d="M391 125 L613 125 L643 281 L418 281 L443 419 L666 419 L693 575 L471 575 L511 800 L338 800 L296 575 L71 575 L44 419 L268 419 L243 281 L21 281 L-9 125 L216 125 L177 -100 L349 -100 L391 125 Z " />
<glyph glyph-name="uni01C3" unicode="&#x1c3;" horiz-adv-x="403" d="M99 267 L279 267 L370 700 L168 700 L99 267 Z M42 0 L246 0 L282 207 L79 207 L42 0 Z " />
<glyph glyph-name="uni01C4" unicode="&#x1c4;" horiz-adv-x="2361" d="M48 0 L667 0 C1011 0 1150 193 1150 404 C1150 570 1049 700 781 700 L173 700 L48 0 Z M746 510 C891 510 925 453 925 378 C925 301 898 190 685 190 L288 190 L344 510 L746 510 Z M1209 0 L2252 0 L2287 190 L1660 190 L2331 555 L2352 700 L1339 700 L1303 510 L1900 510 L1229 144 L1209 0 Z M2106 946 L1970 946 L1872 872 L1800 946 L1671 946 L1741 775 L1975 775 L2106 946 Z " />
<glyph glyph-name="uni01C5" unicode="&#x1c5;" horiz-adv-x="2193" d="M48 0 L667 0 C1011 0 1150 193 1150 404 C1150 570 1049 700 781 700 L173 700 L48 0 Z M746 510 C891 510 925 453 925 378 C925 301 898 190 685 190 L288 190 L344 510 L746 510 Z M1202 0 L2091 0 L2119 159 L1601 159 L2150 437 L2167 560 L1305 560 L1274 400 L1765 400 L1218 122 L1202 0 Z M1999 806 L1863 806 L1765 732 L1693 806 L1564 806 L1634 635 L1868 635 L1999 806 Z " />
<glyph glyph-name="uni01C6" unicode="&#x1c6;" horiz-adv-x="2023" d="M38 0 L567 0 C868 0 975 160 975 328 C975 457 891 560 668 560 L139 560 L38 0 Z M648 400 C748 400 778 367 778 307 C778 229 708 159 577 159 L252 159 L293 400 L648 400 Z M1032 0 L1921 0 L1949 159 L1431 159 L1980 437 L1997 560 L1135 560 L1104 400 L1595 400 L1048 122 L1032 0 Z M1829 806 L1693 806 L1595 732 L1523 806 L1394 806 L1464 635 L1698 635 L1829 806 Z " />
<glyph glyph-name="uni01C7" unicode="&#x1c7;" horiz-adv-x="2244" d="M382 700 L173 700 L48 0 L1005 0 L1039 190 L292 190 L382 700 Z M1379 -5 L1734 -5 C2008 -5 2117 105 2152 303 L2222 700 L2013 700 L1945 336 C1928 237 1874 185 1761 185 L1412 185 C1312 185 1300 219 1311 275 L1323 344 L1114 344 L1102 275 C1073 124 1139 -5 1379 -5 L1379 -5 Z " />
<glyph glyph-name="uni01C8" unicode="&#x1c8;" horiz-adv-x="2080" d="M382 700 L173 700 L48 0 L1005 0 L1039 190 L292 190 L382 700 Z M1327 -4 L1643 -4 C1856 -4 1957 84 1985 242 L2042 560 L1857 560 L1802 260 C1789 185 1740 155 1654 155 L1337 155 C1272 155 1268 186 1273 220 L1284 277 L1101 277 L1092 220 C1071 97 1119 -4 1327 -4 L1327 -4 Z " />
<glyph glyph-name="uni01C9" unicode="&#x1c9;" horiz-adv-x="1940" d="M322 560 L137 560 L38 0 L853 0 L881 159 L251 159 L322 560 Z M1187 -4 L1503 -4 C1716 -4 1817 84 1845 242 L1902 560 L1717 560 L1662 260 C1649 185 1600 155 1514 155 L1197 155 C1132 155 1128 186 1133 220 L1144 277 L961 277 L952 220 C931 97 979 -4 1187 -4 L1187 -4 Z " />
<glyph glyph-name="uni01CA" unicode="&#x1ca;" horiz-adv-x="2417" d="M892 0 L1089 0 L1214 700 L1007 700 L923 228 L370 700 L173 700 L48 0 L257 0 L340 472 L892 0 Z M1552 -5 L1907 -5 C2181 -5 2290 105 2325 303 L2395 700 L2186 700 L2118 336 C2101 237 2047 185 1934 185 L1585 185 C1485 185 1473 219 1484 275 L1496 344 L1287 344 L1275 275 C1246 124 1312 -5 1552 -5 L1552 -5 Z " />
<glyph glyph-name="uni01CB" unicode="&#x1cb;" horiz-adv-x="2253" d="M892 0 L1089 0 L1214 700 L1007 700 L923 228 L370 700 L173 700 L48 0 L257 0 L340 472 L892 0 Z M1500 -4 L1816 -4 C2029 -4 2130 84 2158 242 L2215 560 L2030 560 L1975 260 C1962 185 1913 155 1827 155 L1510 155 C1445 155 1441 186 1446 220 L1457 277 L1274 277 L1265 220 C1244 97 1292 -4 1500 -4 L1500 -4 Z " />
<glyph glyph-name="uni01CC" unicode="&#x1cc;" horiz-adv-x="2080" d="M926 0 L1025 560 L841 560 L778 195 L312 560 L137 560 L38 0 L223 0 L286 365 L751 0 L926 0 Z M1327 -4 L1643 -4 C1856 -4 1957 84 1985 242 L2042 560 L1857 560 L1802 260 C1789 185 1740 155 1654 155 L1337 155 C1272 155 1268 186 1273 220 L1284 277 L1101 277 L1092 220 C1071 97 1119 -4 1327 -4 L1327 -4 Z " />
<glyph glyph-name="uni01CD" unicode="&#x1cd;" horiz-adv-x="1244" d="M943 0 L1186 0 L798 700 L580 700 L-60 0 L203 0 L295 104 L887 104 L943 0 Z M664 518 L794 274 L447 274 L664 518 Z M948 946 L812 946 L714 872 L642 946 L513 946 L583 775 L817 775 L948 946 Z " />
<glyph glyph-name="uni01CE" unicode="&#x1ce;" horiz-adv-x="1063" d="M785 0 L1005 0 L670 560 L475 560 L-59 0 L175 0 L256 88 L734 88 L785 0 Z M551 408 L653 227 L385 227 L551 408 Z M833 806 L697 806 L599 732 L527 806 L398 806 L468 635 L702 635 L833 806 Z " />
<glyph glyph-name="uni01CF" unicode="&#x1cf;" horiz-adv-x="424" d="M48 0 L257 0 L382 700 L173 700 L48 0 Z M534 946 L398 946 L300 872 L228 946 L99 946 L169 775 L403 775 L534 946 Z " />
<glyph glyph-name="uni01D0" unicode="&#x1d0;" horiz-adv-x="380" d="M489 806 L353 806 L255 732 L183 806 L54 806 L124 635 L358 635 L489 806 Z M38 0 L223 0 L322 560 L137 560 L38 0 Z " />
<glyph glyph-name="uni01D1" unicode="&#x1d1;" horiz-adv-x="1293" d="M737 -10 C1100 -10 1240 175 1240 403 C1240 577 1133 710 861 710 L561 710 C198 710 57 526 57 295 C57 122 167 -10 438 -10 L737 -10 Z M478 180 C324 180 282 240 282 319 C282 408 320 520 546 520 L819 520 C971 520 1015 459 1015 380 C1015 283 967 180 751 180 L478 180 Z M971 946 L835 946 L737 872 L665 946 L536 946 L606 775 L840 775 L971 946 Z " />
<glyph glyph-name="uni01D2" unicode="&#x1d2;" horiz-adv-x="1105" d="M625 -8 C930 -8 1040 152 1045 326 C1049 461 963 568 729 568 L460 568 C155 568 44 408 41 234 C37 99 121 -8 356 -8 L625 -8 Z M388 151 C264 151 236 196 237 253 C238 322 294 408 430 408 L698 408 C819 408 849 364 849 306 C849 240 791 151 656 151 L388 151 Z M853 806 L717 806 L619 732 L547 806 L418 806 L488 635 L722 635 L853 806 Z " />
<glyph glyph-name="uni01D3" unicode="&#x1d3;" horiz-adv-x="1223" d="M294 323 L363 700 L154 700 L85 323 C50 130 126 -10 408 -10 L711 -10 C985 -10 1097 114 1131 305 L1201 700 L992 700 L926 338 C908 239 853 180 740 180 L431 180 C303 180 280 240 294 323 L294 323 Z M937 946 L801 946 L703 872 L631 946 L502 946 L572 775 L806 775 L937 946 Z " />
<glyph glyph-name="uni01D4" unicode="&#x1d4;" horiz-adv-x="1047" d="M248 258 L300 560 L118 560 L64 258 C36 104 85 -8 340 -8 L609 -8 C822 -8 923 81 951 238 L1008 560 L824 560 L769 256 C756 181 708 151 622 151 L374 151 C245 151 236 186 248 258 L248 258 Z M826 806 L690 806 L592 732 L520 806 L391 806 L461 635 L695 635 L826 806 Z " />
<glyph glyph-name="uni01D5" unicode="&#x1d5;" horiz-adv-x="1223" d="M294 323 L363 700 L154 700 L85 323 C50 130 126 -10 408 -10 L711 -10 C985 -10 1097 114 1131 305 L1201 700 L992 700 L926 338 C908 239 853 180 740 180 L431 180 C303 180 280 240 294 323 L294 323 Z M540 1000 L919 1000 L942 1131 L563 1131 L540 1000 Z M445 768 L625 768 L659 949 L478 949 L445 768 Z M745 768 L925 768 L957 949 L775 949 L745 768 Z " />
<glyph glyph-name="uni01D6" unicode="&#x1d6;" horiz-adv-x="1047" d="M248 258 L300 560 L118 560 L64 258 C36 104 85 -8 340 -8 L609 -8 C822 -8 923 81 951 238 L1008 560 L824 560 L769 256 C756 181 708 151 622 151 L374 151 C245 151 236 186 248 258 L248 258 Z M426 860 L805 860 L828 991 L449 991 L426 860 Z M334 628 L514 628 L548 809 L367 809 L334 628 Z M634 628 L814 628 L846 809 L664 809 L634 628 Z " />
<glyph glyph-name="uni01D7" unicode="&#x1d7;" horiz-adv-x="1223" d="M294 323 L363 700 L154 700 L85 323 C50 130 126 -10 408 -10 L711 -10 C985 -10 1097 114 1131 305 L1201 700 L992 700 L926 338 C908 239 853 180 740 180 L431 180 C303 180 280 240 294 323 L294 323 Z M611 994 L752 994 L964 1165 L730 1165 L611 994 Z M445 768 L625 768 L659 949 L478 949 L445 768 Z M745 768 L925 768 L957 949 L775 949 L745 768 Z " />
<glyph glyph-name="uni01D8" unicode="&#x1d8;" horiz-adv-x="1047" d="M248 258 L300 560 L118 560 L64 258 C36 104 85 -8 340 -8 L609 -8 C822 -8 923 81 951 238 L1008 560 L824 560 L769 256 C756 181 708 151 622 151 L374 151 C245 151 236 186 248 258 L248 258 Z M498 854 L639 854 L851 1025 L617 1025 L498 854 Z M334 628 L514 628 L548 809 L367 809 L334 628 Z M634 628 L814 628 L846 809 L664 809 L634 628 Z " />
<glyph glyph-name="uni01D9" unicode="&#x1d9;" horiz-adv-x="1223" d="M294 323 L363 700 L154 700 L85 323 C50 130 126 -10 408 -10 L711 -10 C985 -10 1097 114 1131 305 L1201 700 L992 700 L926 338 C908 239 853 180 740 180 L431 180 C303 180 280 240 294 323 L294 323 Z M976 1165 L840 1165 L742 1091 L670 1165 L541 1165 L611 994 L845 994 L976 1165 Z M445 768 L625 768 L659 949 L478 949 L445 768 Z M745 768 L925 768 L957 949 L775 949 L745 768 Z " />
<glyph glyph-name="uni01DA" unicode="&#x1da;" horiz-adv-x="1047" d="M248 258 L300 560 L118 560 L64 258 C36 104 85 -8 340 -8 L609 -8 C822 -8 923 81 951 238 L1008 560 L824 560 L769 256 C756 181 708 151 622 151 L374 151 C245 151 236 186 248 258 L248 258 Z M863 1025 L727 1025 L629 951 L557 1025 L428 1025 L498 854 L732 854 L863 1025 Z M334 628 L514 628 L548 809 L367 809 L334 628 Z M634 628 L814 628 L846 809 L664 809 L634 628 Z " />
<glyph glyph-name="uni01DB" unicode="&#x1db;" horiz-adv-x="1223" d="M294 323 L363 700 L154 700 L85 323 C50 130 126 -10 408 -10 L711 -10 C985 -10 1097 114 1131 305 L1201 700 L992 700 L926 338 C908 239 853 180 740 180 L431 180 C303 180 280 240 294 323 L294 323 Z M778 1165 L559 1165 L707 994 L836 994 L778 1165 Z M445 768 L625 768 L659 949 L478 949 L445 768 Z M745 768 L925 768 L957 949 L775 949 L745 768 Z " />
<glyph glyph-name="uni01DC" unicode="&#x1dc;" horiz-adv-x="1047" d="M248 258 L300 560 L118 560 L64 258 C36 104 85 -8 340 -8 L609 -8 C822 -8 923 81 951 238 L1008 560 L824 560 L769 256 C756 181 708 151 622 151 L374 151 C245 151 236 186 248 258 L248 258 Z M665 1025 L446 1025 L594 854 L723 854 L665 1025 Z M334 628 L514 628 L548 809 L367 809 L334 628 Z M634 628 L814 628 L846 809 L664 809 L634 628 Z " />
<glyph glyph-name="uni01DD" unicode="&#x1dd;" horiz-adv-x="989" d="M931 560 L100 560 L69 400 L717 400 L708 348 L147 348 L120 211 L683 211 L676 159 L28 159 L1 0 L832 0 L931 560 Z " />
<glyph glyph-name="uni01DE" unicode="&#x1de;" horiz-adv-x="1244" d="M943 0 L1186 0 L798 700 L580 700 L-60 0 L203 0 L295 104 L887 104 L943 0 Z M664 518 L794 274 L447 274 L664 518 Z M552 1000 L931 1000 L954 1131 L575 1131 L552 1000 Z M456 768 L636 768 L670 949 L489 949 L456 768 Z M756 768 L936 768 L968 949 L786 949 L756 768 Z " />
<glyph glyph-name="uni01DF" unicode="&#x1df;" horiz-adv-x="1063" d="M785 0 L1005 0 L670 560 L475 560 L-59 0 L175 0 L256 88 L734 88 L785 0 Z M551 408 L653 227 L385 227 L551 408 Z M435 860 L814 860 L837 991 L458 991 L435 860 Z M341 628 L521 628 L555 809 L374 809 L341 628 Z M641 628 L821 628 L853 809 L671 809 L641 628 Z " />
<glyph glyph-name="uni01E0" unicode="&#x1e0;" horiz-adv-x="1244" d="M943 0 L1186 0 L798 700 L580 700 L-60 0 L203 0 L295 104 L887 104 L943 0 Z M664 518 L794 274 L447 274 L664 518 Z M552 1000 L931 1000 L954 1131 L575 1131 L552 1000 Z M609 768 L787 768 L821 949 L643 949 L609 768 Z " />
<glyph glyph-name="uni01E1" unicode="&#x1e1;" horiz-adv-x="1063" d="M785 0 L1005 0 L670 560 L475 560 L-59 0 L175 0 L256 88 L734 88 L785 0 Z M551 408 L653 227 L385 227 L551 408 Z M435 860 L814 860 L837 991 L458 991 L435 860 Z M494 628 L672 628 L706 809 L528 809 L494 628 Z " />
<glyph glyph-name="uni01E2" unicode="&#x1e2;" horiz-adv-x="1659" d="M676 99 L659 0 L1534 0 L1569 190 L903 190 L914 265 L1482 265 L1515 434 L947 434 L957 510 L1623 510 L1659 700 L675 700 L-60 0 L208 0 L309 99 L676 99 Z M482 268 L754 536 L707 268 L482 268 Z M851 794 L1230 794 L1253 925 L874 925 L851 794 Z " />
<glyph glyph-name="uni01E3" unicode="&#x1e3;" horiz-adv-x="1418" d="M566 77 L554 0 L1300 0 L1328 159 L767 159 L775 211 L1251 211 L1276 348 L800 348 L808 400 L1369 400 L1399 560 L556 560 L-59 0 L178 0 L261 77 L566 77 Z M410 216 L627 420 L592 216 L410 216 Z M715 654 L1094 654 L1117 785 L738 785 L715 654 Z " />
<glyph glyph-name="Gcaron" unicode="&#x1e6;" horiz-adv-x="1205" d="M614 265 L907 265 L894 190 L460 190 C315 190 282 247 282 321 C282 398 305 510 521 510 L1099 510 L1134 700 L540 700 C194 700 57 507 57 296 C57 130 158 0 426 0 L1062 0 L1139 434 L647 434 L614 265 Z M950 946 L814 946 L716 872 L644 946 L515 946 L585 775 L819 775 L950 946 Z " />
<glyph glyph-name="gcaron" unicode="&#x1e7;" horiz-adv-x="1033" d="M348 0 L897 0 L957 348 L538 348 L510 211 L752 211 L746 159 L368 159 C268 159 238 192 238 253 C238 330 306 400 437 400 L922 400 L952 560 L449 560 C148 560 41 400 41 232 C41 102 123 0 348 0 L348 0 Z M828 806 L692 806 L594 732 L522 806 L393 806 L463 635 L697 635 L828 806 Z " />
<glyph glyph-name="uni01E8" unicode="&#x1e8;" horiz-adv-x="1251" d="M1234 700 L875 700 L317 354 L378 700 L173 700 L48 0 L253 0 L277 129 L548 291 L880 0 L1197 0 L724 395 L1234 700 Z M913 946 L777 946 L679 872 L607 946 L478 946 L548 775 L782 775 L913 946 Z " />
<glyph glyph-name="uni01E9" unicode="&#x1e9;" horiz-adv-x="1077" d="M1049 560 L719 560 L273 292 L322 560 L137 560 L38 0 L223 0 L239 96 L463 226 L734 0 L1019 0 L621 315 L1049 560 Z M804 806 L668 806 L570 732 L498 806 L369 806 L439 635 L673 635 L804 806 Z " />
<glyph glyph-name="uni01EA" unicode="&#x1ea;" horiz-adv-x="1293" d="M736 -11 C648 -50 567 -111 567 -200 C567 -259 620 -299 704 -299 C754 -299 809 -297 868 -277 L885 -187 C847 -202 831 -205 804 -205 C762 -205 735 -187 735 -151 C735 -87 794 -43 858 -2 C1132 34 1240 202 1240 403 C1240 577 1133 710 861 710 L561 710 C198 710 57 526 57 295 C57 122 167 -10 438 -10 L634 -10 C667 -10 702 -10 736 -11 L736 -11 Z M478 180 C324 180 282 240 282 319 C282 408 320 520 546 520 L819 520 C971 520 1015 459 1015 380 C1015 283 967 180 751 180 L478 180 Z " />
<glyph glyph-name="uni01EB" unicode="&#x1eb;" horiz-adv-x="1105" d="M439 -200 C439 -259 491 -299 577 -299 C627 -299 681 -297 741 -277 L757 -187 C720 -202 703 -205 676 -205 C634 -205 607 -187 607 -151 C607 -87 669 -42 731 -1 C956 32 1040 174 1045 326 C1049 461 963 568 729 568 L460 568 C155 568 44 408 41 234 C37 99 121 -8 356 -8 L522 -8 C553 -8 582 -8 613 -9 C522 -48 439 -109 439 -200 L439 -200 Z M388 151 C264 151 236 196 237 253 C238 322 294 408 430 408 L698 408 C819 408 849 364 849 306 C849 240 791 151 656 151 L388 151 Z " />
<glyph glyph-name="uni01EC" unicode="&#x1ec;" horiz-adv-x="1293" d="M736 -11 C648 -50 567 -111 567 -200 C567 -259 620 -299 704 -299 C754 -299 809 -297 868 -277 L885 -187 C847 -202 831 -205 804 -205 C762 -205 735 -187 735 -151 C735 -87 794 -43 858 -2 C1132 34 1240 202 1240 403 C1240 577 1133 710 861 710 L561 710 C198 710 57 526 57 295 C57 122 167 -10 438 -10 L634 -10 C667 -10 702 -10 736 -11 L736 -11 Z M478 180 C324 180 282 240 282 319 C282 408 320 520 546 520 L819 520 C971 520 1015 459 1015 380 C1015 283 967 180 751 180 L478 180 Z M537 794 L916 794 L939 925 L560 925 L537 794 Z " />
<glyph glyph-name="uni01ED" unicode="&#x1ed;" horiz-adv-x="1105" d="M439 -200 C439 -259 491 -299 577 -299 C627 -299 681 -297 741 -277 L757 -187 C720 -202 703 -205 676 -205 C634 -205 607 -187 607 -151 C607 -87 669 -42 731 -1 C956 32 1040 174 1045 326 C1049 461 963 568 729 568 L460 568 C155 568 44 408 41 234 C37 99 121 -8 356 -8 L522 -8 C553 -8 582 -8 613 -9 C522 -48 439 -109 439 -200 L439 -200 Z M388 151 C264 151 236 196 237 253 C238 322 294 408 430 408 L698 408 C819 408 849 364 849 306 C849 240 791 151 656 151 L388 151 Z M419 654 L798 654 L822 785 L443 785 L419 654 Z " />
<glyph glyph-name="uni01F0" unicode="&#x1f0;" horiz-adv-x="997" d="M244 -4 L560 -4 C773 -4 874 84 902 242 L959 560 L774 560 L719 260 C706 185 657 155 571 155 L254 155 C189 155 185 186 190 220 L201 277 L18 277 L9 220 C-12 97 36 -4 244 -4 L244 -4 Z M1103 806 L967 806 L869 732 L797 806 L668 806 L738 635 L972 635 L1103 806 Z " />
<glyph glyph-name="uni01F1" unicode="&#x1f1;" horiz-adv-x="2361" d="M48 0 L667 0 C1011 0 1150 193 1150 404 C1150 570 1049 700 781 700 L173 700 L48 0 Z M746 510 C891 510 925 453 925 378 C925 301 898 190 685 190 L288 190 L344 510 L746 510 Z M1209 0 L2252 0 L2287 190 L1660 190 L2331 555 L2352 700 L1339 700 L1303 510 L1900 510 L1229 144 L1209 0 Z " />
<glyph glyph-name="uni01F2" unicode="&#x1f2;" horiz-adv-x="2193" d="M48 0 L667 0 C1011 0 1150 193 1150 404 C1150 570 1049 700 781 700 L173 700 L48 0 Z M746 510 C891 510 925 453 925 378 C925 301 898 190 685 190 L288 190 L344 510 L746 510 Z M1202 0 L2091 0 L2119 159 L1601 159 L2150 437 L2167 560 L1305 560 L1274 400 L1765 400 L1218 122 L1202 0 Z " />
<glyph glyph-name="uni01F3" unicode="&#x1f3;" horiz-adv-x="2023" d="M38 0 L567 0 C868 0 975 160 975 328 C975 457 891 560 668 560 L139 560 L38 0 Z M648 400 C748 400 778 367 778 307 C778 229 708 159 577 159 L252 159 L293 400 L648 400 Z M1032 0 L1921 0 L1949 159 L1431 159 L1980 437 L1997 560 L1135 560 L1104 400 L1595 400 L1048 122 L1032 0 Z " />
<glyph glyph-name="uni01F4" unicode="&#x1f4;" horiz-adv-x="1205" d="M614 265 L907 265 L894 190 L460 190 C315 190 282 247 282 321 C282 398 305 510 521 510 L1099 510 L1134 700 L540 700 C194 700 57 507 57 296 C57 130 158 0 426 0 L1062 0 L1139 434 L647 434 L614 265 Z M585 775 L726 775 L938 946 L704 946 L585 775 Z " />
<glyph glyph-name="uni01F5" unicode="&#x1f5;" horiz-adv-x="1033" d="M348 0 L897 0 L957 348 L538 348 L510 211 L752 211 L746 159 L368 159 C268 159 238 192 238 253 C238 330 306 400 437 400 L922 400 L952 560 L449 560 C148 560 41 400 41 232 C41 102 123 0 348 0 L348 0 Z M463 635 L604 635 L816 806 L582 806 L463 635 Z " />
<glyph glyph-name="uni01F8" unicode="&#x1f8;" horiz-adv-x="1256" d="M892 0 L1089 0 L1214 700 L1007 700 L923 228 L370 700 L173 700 L48 0 L257 0 L340 472 L892 0 Z M755 946 L536 946 L684 775 L813 775 L755 946 Z " />
<glyph glyph-name="uni01F9" unicode="&#x1f9;" horiz-adv-x="1083" d="M926 0 L1025 560 L841 560 L778 195 L312 560 L137 560 L38 0 L223 0 L286 365 L751 0 L926 0 Z M645 806 L426 806 L574 635 L703 635 L645 806 Z " />
<glyph glyph-name="Aringacute" unicode="&#x1fa;" horiz-adv-x="1244" d="M943 0 L1186 0 L798 700 L580 700 L-60 0 L203 0 L295 104 L887 104 L943 0 Z M664 518 L794 274 L447 274 L664 518 Z M574 853 C574 790 622 740 702 740 C790 740 854 797 854 871 C854 934 805 982 726 982 C638 982 574 925 574 853 L574 853 Z M688 859 C688 875 701 887 717 887 C729 887 740 876 740 863 C740 847 726 836 710 836 C696 836 688 847 688 859 L688 859 Z M625 1018 L766 1018 L978 1189 L744 1189 L625 1018 Z " />
<glyph glyph-name="aringacute" unicode="&#x1fb;" horiz-adv-x="1063" d="M785 0 L1005 0 L670 560 L475 560 L-59 0 L175 0 L256 88 L734 88 L785 0 Z M551 408 L653 227 L385 227 L551 408 Z M459 713 C459 650 507 600 587 600 C675 600 739 657 739 731 C739 794 690 842 611 842 C523 842 459 785 459 713 L459 713 Z M573 719 C573 735 586 747 602 747 C614 747 625 736 625 723 C625 707 611 696 595 696 C581 696 573 707 573 719 L573 719 Z M509 878 L650 878 L862 1049 L628 1049 L509 878 Z " />
<glyph glyph-name="AEacute" unicode="&#x1fc;" horiz-adv-x="1659" d="M676 99 L659 0 L1534 0 L1569 190 L903 190 L914 265 L1482 265 L1515 434 L947 434 L957 510 L1623 510 L1659 700 L675 700 L-60 0 L208 0 L309 99 L676 99 Z M482 268 L754 536 L707 268 L482 268 Z M920 775 L1061 775 L1273 946 L1039 946 L920 775 Z " />
<glyph glyph-name="aeacute" unicode="&#x1fd;" horiz-adv-x="1418" d="M566 77 L554 0 L1300 0 L1328 159 L767 159 L775 211 L1251 211 L1276 348 L800 348 L808 400 L1369 400 L1399 560 L556 560 L-59 0 L178 0 L261 77 L566 77 Z M410 216 L627 420 L592 216 L410 216 Z M784 635 L925 635 L1137 806 L903 806 L784 635 Z " />
<glyph glyph-name="Oslashacute" unicode="&#x1fe;" horiz-adv-x="1293" d="M606 775 L747 775 L959 946 L725 946 L606 775 Z M737 -10 C1100 -10 1240 175 1240 403 C1240 531 1181 637 1042 684 L1137 800 L901 800 L828 710 C785 710 743 710 700 710 L561 710 C198 710 57 526 57 295 C57 168 116 62 255 16 L160 -100 L396 -100 L470 -11 C513 -10 554 -10 597 -10 L737 -10 Z M282 319 C282 408 320 520 546 520 L669 520 L398 187 C308 205 282 257 282 319 L282 319 Z M1015 380 C1015 283 967 180 751 180 L627 180 L899 513 C987 493 1015 443 1015 380 L1015 380 Z " />
<glyph glyph-name="oslashacute" unicode="&#x1ff;" horiz-adv-x="1105" d="M495 635 L636 635 L848 806 L614 806 L495 635 Z M625 -8 C930 -8 1040 152 1045 326 C1048 427 1000 513 875 549 L954 640 L747 640 L685 568 L460 568 C155 568 44 408 41 234 C37 132 84 46 207 10 L129 -80 L336 -80 L397 -8 L625 -8 Z M849 306 C849 240 791 151 656 151 L535 151 L751 405 C827 393 849 354 849 306 L849 306 Z M237 253 C238 322 294 408 430 408 L547 408 L332 155 C255 167 236 205 237 253 L237 253 Z " />
<glyph glyph-name="uni0200" unicode="&#x200;" horiz-adv-x="1244" d="M943 0 L1186 0 L798 700 L580 700 L-60 0 L203 0 L295 104 L887 104 L943 0 Z M664 518 L794 274 L447 274 L664 518 Z M876 946 L658 946 L805 775 L933 775 L876 946 Z M592 946 L375 946 L521 775 L651 775 L592 946 Z " />
<glyph glyph-name="uni0201" unicode="&#x201;" horiz-adv-x="1063" d="M785 0 L1005 0 L670 560 L475 560 L-59 0 L175 0 L256 88 L734 88 L785 0 Z M551 408 L653 227 L385 227 L551 408 Z M761 806 L543 806 L690 635 L818 635 L761 806 Z M477 806 L260 806 L406 635 L536 635 L477 806 Z " />
<glyph glyph-name="uni0202" unicode="&#x202;" horiz-adv-x="1244" d="M943 0 L1186 0 L798 700 L580 700 L-60 0 L203 0 L295 104 L887 104 L943 0 Z M664 518 L794 274 L447 274 L664 518 Z M722 823 C777 823 796 802 794 770 L903 770 C916 852 899 949 742 949 C585 949 533 855 514 770 L627 770 C636 802 670 823 722 823 L722 823 Z " />
<glyph glyph-name="uni0203" unicode="&#x203;" horiz-adv-x="1063" d="M785 0 L1005 0 L670 560 L475 560 L-59 0 L175 0 L256 88 L734 88 L785 0 Z M551 408 L653 227 L385 227 L551 408 Z M607 683 C662 683 681 662 679 630 L788 630 C801 712 784 809 627 809 C470 809 418 715 399 630 L512 630 C521 662 555 683 607 683 L607 683 Z " />
<glyph glyph-name="uni0204" unicode="&#x204;" horiz-adv-x="1150" d="M48 0 L1024 0 L1059 190 L292 190 L302 265 L971 265 L1003 434 L334 434 L346 510 L1113 510 L1149 700 L173 700 L48 0 Z M838 946 L620 946 L767 775 L895 775 L838 946 Z M554 946 L337 946 L483 775 L613 775 L554 946 Z " />
<glyph glyph-name="uni0205" unicode="&#x205;" horiz-adv-x="989" d="M38 0 L869 0 L897 159 L251 159 L259 211 L820 211 L845 348 L284 348 L292 400 L938 400 L968 560 L137 560 L38 0 Z M734 806 L516 806 L663 635 L791 635 L734 806 Z M450 806 L233 806 L379 635 L509 635 L450 806 Z " />
<glyph glyph-name="uni0206" unicode="&#x206;" horiz-adv-x="1150" d="M48 0 L1024 0 L1059 190 L292 190 L302 265 L971 265 L1003 434 L334 434 L346 510 L1113 510 L1149 700 L173 700 L48 0 Z M684 823 C739 823 758 802 756 770 L865 770 C878 852 861 949 704 949 C547 949 495 855 476 770 L589 770 C598 802 632 823 684 823 L684 823 Z " />
<glyph glyph-name="uni0207" unicode="&#x207;" horiz-adv-x="989" d="M38 0 L869 0 L897 159 L251 159 L259 211 L820 211 L845 348 L284 348 L292 400 L938 400 L968 560 L137 560 L38 0 Z M581 683 C636 683 655 662 653 630 L762 630 C775 712 758 809 601 809 C444 809 392 715 373 630 L486 630 C495 662 529 683 581 683 L581 683 Z " />
<glyph glyph-name="uni0208" unicode="&#x208;" horiz-adv-x="424" d="M48 0 L257 0 L382 700 L173 700 L48 0 Z M462 946 L244 946 L391 775 L519 775 L462 946 Z M178 946 L-39 946 L107 775 L237 775 L178 946 Z " />
<glyph glyph-name="uni0209" unicode="&#x209;" horiz-adv-x="380" d="M38 0 L223 0 L322 560 L137 560 L38 0 Z M417 806 L199 806 L346 635 L474 635 L417 806 Z M133 806 L-84 806 L62 635 L192 635 L133 806 Z " />
<glyph glyph-name="uni020A" unicode="&#x20a;" horiz-adv-x="424" d="M48 0 L257 0 L382 700 L173 700 L48 0 Z M309 823 C364 823 383 802 381 770 L490 770 C503 852 486 949 329 949 C172 949 120 855 101 770 L214 770 C223 802 257 823 309 823 L309 823 Z " />
<glyph glyph-name="uni020B" unicode="&#x20b;" horiz-adv-x="380" d="M38 0 L223 0 L322 560 L137 560 L38 0 Z M261 683 C316 683 335 662 333 630 L442 630 C455 712 438 809 281 809 C124 809 72 715 53 630 L166 630 C175 662 209 683 261 683 L261 683 Z " />
<glyph glyph-name="uni020C" unicode="&#x20c;" horiz-adv-x="1293" d="M737 -10 C1100 -10 1240 175 1240 403 C1240 577 1133 710 861 710 L561 710 C198 710 57 526 57 295 C57 122 167 -10 438 -10 L737 -10 Z M478 180 C324 180 282 240 282 319 C282 408 320 520 546 520 L819 520 C971 520 1015 459 1015 380 C1015 283 967 180 751 180 L478 180 Z M899 946 L681 946 L828 775 L956 775 L899 946 Z M615 946 L398 946 L544 775 L674 775 L615 946 Z " />
<glyph glyph-name="uni020D" unicode="&#x20d;" horiz-adv-x="1105" d="M625 -8 C930 -8 1040 152 1045 326 C1049 461 963 568 729 568 L460 568 C155 568 44 408 41 234 C37 99 121 -8 356 -8 L625 -8 Z M388 151 C264 151 236 196 237 253 C238 322 294 408 430 408 L698 408 C819 408 849 364 849 306 C849 240 791 151 656 151 L388 151 Z M781 806 L563 806 L710 635 L838 635 L781 806 Z M497 806 L280 806 L426 635 L556 635 L497 806 Z " />
<glyph glyph-name="uni020E" unicode="&#x20e;" horiz-adv-x="1293" d="M737 -10 C1100 -10 1240 175 1240 403 C1240 577 1133 710 861 710 L561 710 C198 710 57 526 57 295 C57 122 167 -10 438 -10 L737 -10 Z M478 180 C324 180 282 240 282 319 C282 408 320 520 546 520 L819 520 C971 520 1015 459 1015 380 C1015 283 967 180 751 180 L478 180 Z M746 823 C801 823 820 802 818 770 L927 770 C940 852 923 949 766 949 C609 949 557 855 538 770 L651 770 C660 802 694 823 746 823 L746 823 Z " />
<glyph glyph-name="uni020F" unicode="&#x20f;" horiz-adv-x="1105" d="M625 -8 C930 -8 1040 152 1045 326 C1049 461 963 568 729 568 L460 568 C155 568 44 408 41 234 C37 99 121 -8 356 -8 L625 -8 Z M388 151 C264 151 236 196 237 253 C238 322 294 408 430 408 L698 408 C819 408 849 364 849 306 C849 240 791 151 656 151 L388 151 Z M627 683 C682 683 701 662 699 630 L808 630 C821 712 804 809 647 809 C490 809 438 715 419 630 L532 630 C541 662 575 683 627 683 L627 683 Z " />
<glyph glyph-name="uni0210" unicode="&#x210;" horiz-adv-x="1229" d="M48 0 L253 0 L293 218 L607 218 L859 0 L1174 0 L892 226 C1068 253 1146 362 1146 497 C1146 610 1074 700 888 700 L173 700 L48 0 Z M849 510 C913 510 926 492 926 466 C926 430 903 401 825 401 L325 401 L344 510 L849 510 Z M832 946 L614 946 L761 775 L889 775 L832 946 Z M548 946 L331 946 L477 775 L607 775 L548 946 Z " />
<glyph glyph-name="uni0211" unicode="&#x211;" horiz-adv-x="1061" d="M38 0 L223 0 L253 171 L516 171 L718 0 L998 0 L768 178 C913 203 970 296 970 394 C970 485 911 560 751 560 L139 560 L38 0 Z M716 400 C768 400 774 383 774 368 C774 351 764 325 701 325 L280 325 L293 400 L716 400 Z M729 806 L511 806 L658 635 L786 635 L729 806 Z M445 806 L228 806 L374 635 L504 635 L445 806 Z " />
<glyph glyph-name="uni0212" unicode="&#x212;" horiz-adv-x="1229" d="M48 0 L253 0 L293 218 L607 218 L859 0 L1174 0 L892 226 C1068 253 1146 362 1146 497 C1146 610 1074 700 888 700 L173 700 L48 0 Z M849 510 C913 510 926 492 926 466 C926 430 903 401 825 401 L325 401 L344 510 L849 510 Z M679 823 C734 823 753 802 751 770 L860 770 C873 852 856 949 699 949 C542 949 490 855 471 770 L584 770 C593 802 627 823 679 823 L679 823 Z " />
<glyph glyph-name="uni0213" unicode="&#x213;" horiz-adv-x="1061" d="M38 0 L223 0 L253 171 L516 171 L718 0 L998 0 L768 178 C913 203 970 296 970 394 C970 485 911 560 751 560 L139 560 L38 0 Z M716 400 C768 400 774 383 774 368 C774 351 764 325 701 325 L280 325 L293 400 L716 400 Z M576 683 C631 683 650 662 648 630 L757 630 C770 712 753 809 596 809 C439 809 387 715 368 630 L481 630 C490 662 524 683 576 683 L576 683 Z " />
<glyph glyph-name="uni0214" unicode="&#x214;" horiz-adv-x="1223" d="M294 323 L363 700 L154 700 L85 323 C50 130 126 -10 408 -10 L711 -10 C985 -10 1097 114 1131 305 L1201 700 L992 700 L926 338 C908 239 853 180 740 180 L431 180 C303 180 280 240 294 323 L294 323 Z M864 946 L646 946 L793 775 L921 775 L864 946 Z M580 946 L363 946 L509 775 L639 775 L580 946 Z " />
<glyph glyph-name="uni0215" unicode="&#x215;" horiz-adv-x="1047" d="M248 258 L300 560 L118 560 L64 258 C36 104 85 -8 340 -8 L609 -8 C822 -8 923 81 951 238 L1008 560 L824 560 L769 256 C756 181 708 151 622 151 L374 151 C245 151 236 186 248 258 L248 258 Z M752 806 L534 806 L681 635 L809 635 L752 806 Z M468 806 L251 806 L397 635 L527 635 L468 806 Z " />
<glyph glyph-name="uni0216" unicode="&#x216;" horiz-adv-x="1223" d="M294 323 L363 700 L154 700 L85 323 C50 130 126 -10 408 -10 L711 -10 C985 -10 1097 114 1131 305 L1201 700 L992 700 L926 338 C908 239 853 180 740 180 L431 180 C303 180 280 240 294 323 L294 323 Z M711 823 C766 823 785 802 783 770 L892 770 C905 852 888 949 731 949 C574 949 522 855 503 770 L616 770 C625 802 659 823 711 823 L711 823 Z " />
<glyph glyph-name="uni0217" unicode="&#x217;" horiz-adv-x="1047" d="M248 258 L300 560 L118 560 L64 258 C36 104 85 -8 340 -8 L609 -8 C822 -8 923 81 951 238 L1008 560 L824 560 L769 256 C756 181 708 151 622 151 L374 151 C245 151 236 186 248 258 L248 258 Z M599 683 C654 683 673 662 671 630 L780 630 C793 712 776 809 619 809 C462 809 410 715 391 630 L504 630 C513 662 547 683 599 683 L599 683 Z " />
<glyph glyph-name="uni0218" unicode="&#x218;" horiz-adv-x="1158" d="M794 190 L74 190 L38 0 L766 0 C989 0 1081 111 1081 249 C1081 356 1013 434 843 434 L356 434 C308 434 303 452 303 468 C303 489 315 510 369 510 L1090 510 L1126 700 L397 700 C174 700 82 588 82 450 C82 343 148 265 319 265 L807 265 C855 265 860 248 860 231 C860 211 849 190 794 190 L794 190 Z M386 -253 L445 -253 L333 -401 L421 -401 L564 -236 L592 -72 L418 -72 L386 -253 Z " />
<glyph glyph-name="uni0219" unicode="&#x219;" horiz-adv-x="988" d="M669 159 L53 159 L25 0 L649 0 C846 0 911 92 911 204 C911 287 856 346 712 346 L292 346 C257 346 251 360 251 369 C251 381 258 400 298 400 L914 400 L945 560 L321 560 C121 560 58 467 58 357 C58 273 111 213 257 213 L678 213 C713 213 718 199 718 190 C718 179 709 159 669 159 L669 159 Z M301 -253 L360 -253 L248 -401 L336 -401 L479 -236 L507 -72 L333 -72 L301 -253 Z " />
<glyph glyph-name="uni021A" unicode="&#x21a;" horiz-adv-x="1136" d="M49 510 L494 510 L404 0 L611 0 L703 510 L1147 510 L1182 700 L85 700 L49 510 Z M375 -253 L434 -253 L322 -401 L410 -401 L553 -236 L581 -72 L407 -72 L375 -253 Z " />
<glyph glyph-name="uni021B" unicode="&#x21b;" horiz-adv-x="995" d="M40 400 L416 400 L346 0 L531 0 L600 400 L974 400 L1004 560 L71 560 L40 400 Z M305 -253 L364 -253 L252 -401 L340 -401 L483 -236 L511 -72 L337 -72 L305 -253 Z " />
<glyph glyph-name="uni021E" unicode="&#x21e;" horiz-adv-x="1252" d="M876 0 L1085 0 L1210 700 L1001 700 L956 445 L336 445 L382 700 L173 700 L48 0 L257 0 L300 255 L920 255 L876 0 Z M951 946 L815 946 L717 872 L645 946 L516 946 L586 775 L820 775 L951 946 Z " />
<glyph glyph-name="uni021F" unicode="&#x21f;" horiz-adv-x="1078" d="M736 0 L921 0 L1020 560 L835 560 L801 360 L287 360 L322 560 L137 560 L38 0 L223 0 L258 200 L769 200 L736 0 Z M841 806 L705 806 L607 732 L535 806 L406 806 L476 635 L710 635 L841 806 Z " />
<glyph glyph-name="uni0226" unicode="&#x226;" horiz-adv-x="1244" d="M943 0 L1186 0 L798 700 L580 700 L-60 0 L203 0 L295 104 L887 104 L943 0 Z M664 518 L794 274 L447 274 L664 518 Z M609 768 L787 768 L821 949 L643 949 L609 768 Z " />
<glyph glyph-name="uni0227" unicode="&#x227;" horiz-adv-x="1063" d="M785 0 L1005 0 L670 560 L475 560 L-59 0 L175 0 L256 88 L734 88 L785 0 Z M551 408 L653 227 L385 227 L551 408 Z M494 628 L672 628 L706 809 L528 809 L494 628 Z " />
<glyph glyph-name="uni0228" unicode="&#x228;" horiz-adv-x="1150" d="M48 0 L483 0 L416 -151 L463 -151 C501 -151 520 -156 520 -175 C520 -211 471 -215 426 -215 C391 -215 360 -204 345 -189 L327 -279 C355 -294 403 -310 457 -309 C553 -307 657 -281 657 -167 C657 -95 588 -65 520 -72 L553 0 L1024 0 L1059 190 L292 190 L302 265 L971 265 L1003 434 L334 434 L346 510 L1113 510 L1149 700 L173 700 L48 0 Z " />
<glyph glyph-name="uni0229" unicode="&#x229;" horiz-adv-x="989" d="M38 0 L404 0 L337 -151 L384 -151 C422 -151 441 -156 441 -175 C441 -211 392 -215 347 -215 C312 -215 281 -204 266 -189 L248 -279 C276 -294 324 -310 378 -309 C474 -307 578 -281 578 -167 C578 -95 509 -65 441 -72 L474 0 L869 0 L897 159 L251 159 L259 211 L820 211 L845 348 L284 348 L292 400 L938 400 L968 560 L137 560 L38 0 Z " />
<glyph glyph-name="uni022A" unicode="&#x22a;" horiz-adv-x="1293" d="M737 -10 C1100 -10 1240 175 1240 403 C1240 577 1133 710 861 710 L561 710 C198 710 57 526 57 295 C57 122 167 -10 438 -10 L737 -10 Z M478 180 C324 180 282 240 282 319 C282 408 320 520 546 520 L819 520 C971 520 1015 459 1015 380 C1015 283 967 180 751 180 L478 180 Z M574 1000 L953 1000 L976 1131 L597 1131 L574 1000 Z M479 768 L659 768 L693 949 L512 949 L479 768 Z M779 768 L959 768 L991 949 L809 949 L779 768 Z " />
<glyph glyph-name="uni022B" unicode="&#x22b;" horiz-adv-x="1105" d="M625 -8 C930 -8 1040 152 1045 326 C1049 461 963 568 729 568 L460 568 C155 568 44 408 41 234 C37 99 121 -8 356 -8 L625 -8 Z M388 151 C264 151 236 196 237 253 C238 322 294 408 430 408 L698 408 C819 408 849 364 849 306 C849 240 791 151 656 151 L388 151 Z M454 860 L833 860 L856 991 L477 991 L454 860 Z M361 628 L541 628 L575 809 L394 809 L361 628 Z M661 628 L841 628 L873 809 L691 809 L661 628 Z " />
<glyph glyph-name="uni022C" unicode="&#x22c;" horiz-adv-x="1293" d="M737 -10 C1100 -10 1240 175 1240 403 C1240 577 1133 710 861 710 L561 710 C198 710 57 526 57 295 C57 122 167 -10 438 -10 L737 -10 Z M478 180 C324 180 282 240 282 319 C282 408 320 520 546 520 L819 520 C971 520 1015 459 1015 380 C1015 283 967 180 751 180 L478 180 Z M841 952 C840 927 831 913 812 913 C785 913 744 946 685 946 C611 946 556 897 531 768 L633 768 C634 792 640 806 660 806 C686 806 727 772 787 772 C862 772 916 819 942 952 L841 952 Z M572 997 L951 997 L974 1128 L595 1128 L572 997 Z " />
<glyph glyph-name="uni022D" unicode="&#x22d;" horiz-adv-x="1105" d="M625 -8 C930 -8 1040 152 1045 326 C1049 461 963 568 729 568 L460 568 C155 568 44 408 41 234 C37 99 121 -8 356 -8 L625 -8 Z M388 151 C264 151 236 196 237 253 C238 322 294 408 430 408 L698 408 C819 408 849 364 849 306 C849 240 791 151 656 151 L388 151 Z M723 812 C722 787 713 773 694 773 C667 773 626 806 567 806 C493 806 438 757 413 628 L515 628 C516 652 522 666 542 666 C568 666 609 632 669 632 C744 632 798 679 824 812 L723 812 Z M454 857 L833 857 L856 988 L477 988 L454 857 Z " />
<glyph glyph-name="uni022E" unicode="&#x22e;" horiz-adv-x="1293" d="M737 -10 C1100 -10 1240 175 1240 403 C1240 577 1133 710 861 710 L561 710 C198 710 57 526 57 295 C57 122 167 -10 438 -10 L737 -10 Z M478 180 C324 180 282 240 282 319 C282 408 320 520 546 520 L819 520 C971 520 1015 459 1015 380 C1015 283 967 180 751 180 L478 180 Z M632 768 L810 768 L844 949 L666 949 L632 768 Z " />
<glyph glyph-name="uni022F" unicode="&#x22f;" horiz-adv-x="1105" d="M625 -8 C930 -8 1040 152 1045 326 C1049 461 963 568 729 568 L460 568 C155 568 44 408 41 234 C37 99 121 -8 356 -8 L625 -8 Z M388 151 C264 151 236 196 237 253 C238 322 294 408 430 408 L698 408 C819 408 849 364 849 306 C849 240 791 151 656 151 L388 151 Z M514 628 L692 628 L726 809 L548 809 L514 628 Z " />
<glyph glyph-name="uni0230" unicode="&#x230;" horiz-adv-x="1293" d="M737 -10 C1100 -10 1240 175 1240 403 C1240 577 1133 710 861 710 L561 710 C198 710 57 526 57 295 C57 122 167 -10 438 -10 L737 -10 Z M478 180 C324 180 282 240 282 319 C282 408 320 520 546 520 L819 520 C971 520 1015 459 1015 380 C1015 283 967 180 751 180 L478 180 Z M574 1000 L953 1000 L976 1131 L597 1131 L574 1000 Z M632 768 L810 768 L844 949 L666 949 L632 768 Z " />
<glyph glyph-name="uni0231" unicode="&#x231;" horiz-adv-x="1105" d="M625 -8 C930 -8 1040 152 1045 326 C1049 461 963 568 729 568 L460 568 C155 568 44 408 41 234 C37 99 121 -8 356 -8 L625 -8 Z M388 151 C264 151 236 196 237 253 C238 322 294 408 430 408 L698 408 C819 408 849 364 849 306 C849 240 791 151 656 151 L388 151 Z M454 860 L833 860 L856 991 L477 991 L454 860 Z M514 628 L692 628 L726 809 L548 809 L514 628 Z " />
<glyph glyph-name="uni0232" unicode="&#x232;" horiz-adv-x="1208" d="M440 0 L649 0 L686 213 L1284 700 L967 700 L602 378 L345 700 L56 700 L477 213 L440 0 Z M493 794 L872 794 L895 925 L516 925 L493 794 Z " />
<glyph glyph-name="uni0233" unicode="&#x233;" horiz-adv-x="1026" d="M362 0 L546 0 L576 171 L1076 560 L795 560 L498 307 L285 560 L30 560 L392 171 L362 0 Z M379 654 L758 654 L781 785 L402 785 L379 654 Z " />
<glyph glyph-name="uni0237" unicode="&#x237;" horiz-adv-x="997" d="M244 -4 L560 -4 C773 -4 874 84 902 242 L959 560 L774 560 L719 260 C706 185 657 155 571 155 L254 155 C189 155 185 186 190 220 L201 277 L18 277 L9 220 C-12 97 36 -4 244 -4 L244 -4 Z " />
<glyph glyph-name="uni0256" unicode="&#x256;" horiz-adv-x="1034" d="M-42 211 L76 211 L38 0 L567 0 C868 0 975 160 975 328 C975 457 891 560 668 560 L139 560 L101 348 L-15 348 L-42 211 Z M648 400 C748 400 778 367 778 307 C778 229 708 159 577 159 L252 159 L261 211 L526 211 L551 348 L284 348 L293 400 L648 400 Z " />
<glyph glyph-name="uni02BB" unicode="&#x2bb;" horiz-adv-x="365" d="M322 519 L235 519 L356 700 L264 700 L113 502 L77 311 L283 311 L322 519 Z " />
<glyph glyph-name="uni02BC" unicode="&#x2bc;" horiz-adv-x="365" d="M110 492 L198 492 L77 311 L166 311 L319 509 L355 700 L149 700 L110 492 Z " />
<glyph glyph-name="uni02BD" unicode="&#x2bd;" horiz-adv-x="365" d="M355 700 L149 700 L112 509 L192 311 L284 311 L230 492 L317 492 L355 700 Z " />
<glyph glyph-name="circumflex" unicode="&#x2c6;" horiz-adv-x="480" d="M73 635 L209 635 L307 708 L379 635 L508 635 L438 806 L205 806 L73 635 Z " />
<glyph glyph-name="caron" unicode="&#x2c7;" horiz-adv-x="480" d="M541 806 L405 806 L307 732 L235 806 L106 806 L176 635 L410 635 L541 806 Z " />
<glyph glyph-name="uni02C9" unicode="&#x2c9;" horiz-adv-x="480" d="M107 654 L486 654 L509 785 L130 785 L107 654 Z " />
<glyph glyph-name="uni02CA" unicode="&#x2ca;" horiz-adv-x="480" d="M176 635 L317 635 L529 806 L295 806 L176 635 Z " />
<glyph glyph-name="uni02CB" unicode="&#x2cb;" horiz-adv-x="480" d="M343 806 L124 806 L272 635 L401 635 L343 806 Z " />
<glyph glyph-name="uni02CD" unicode="&#x2cd;" horiz-adv-x="480" d="M-48 -227 L331 -227 L354 -96 L-25 -96 L-48 -227 Z " />
<glyph glyph-name="uni02CE" unicode="&#x2ce;" horiz-adv-x="480" d="M188 -75 L-31 -75 L117 -246 L246 -246 L188 -75 Z " />
<glyph glyph-name="uni02CF" unicode="&#x2cf;" horiz-adv-x="480" d="M21 -246 L162 -246 L374 -75 L140 -75 L21 -246 Z " />
<glyph glyph-name="breve" unicode="&#x2d8;" horiz-adv-x="480" d="M311 756 C257 756 236 778 240 809 L129 809 C118 727 135 630 291 630 C447 630 499 724 520 809 L406 809 C396 778 364 756 311 756 L311 756 Z " />
<glyph glyph-name="dotaccent" unicode="&#x2d9;" horiz-adv-x="480" d="M202 628 L380 628 L414 809 L236 809 L202 628 Z " />
<glyph glyph-name="ring" unicode="&#x2da;" horiz-adv-x="480" d="M167 713 C167 650 215 600 295 600 C383 600 447 657 447 731 C447 794 398 842 319 842 C231 842 167 785 167 713 L167 713 Z M281 719 C281 735 294 747 310 747 C322 747 333 736 333 723 C333 707 319 696 303 696 C289 696 281 707 281 719 L281 719 Z " />
<glyph glyph-name="ogonek" unicode="&#x2db;" horiz-adv-x="480" d="M19 -200 C19 -259 73 -299 157 -299 C207 -299 261 -297 321 -277 L337 -187 C300 -202 283 -205 256 -205 C214 -205 187 -187 187 -151 C187 -87 249 -41 313 0 L212 0 C114 -39 19 -103 19 -200 L19 -200 Z " />
<glyph glyph-name="tilde" unicode="&#x2dc;" horiz-adv-x="480" d="M411 812 C410 787 401 773 382 773 C355 773 314 806 255 806 C181 806 126 757 101 628 L203 628 C204 652 210 666 230 666 C256 666 297 632 357 632 C432 632 486 679 512 812 L411 812 Z " />
<glyph glyph-name="hungarumlaut" unicode="&#x2dd;" horiz-adv-x="480" d="M27 635 L168 635 L378 806 L146 806 L27 635 Z M331 635 L472 635 L682 806 L452 806 L331 635 Z " />
<glyph glyph-name="uni02EC" unicode="&#x2ec;" horiz-adv-x="480" d="M386 -75 L250 -75 L152 -149 L80 -75 L-49 -75 L21 -246 L255 -246 L386 -75 Z " />
<glyph glyph-name="uni02EE" unicode="&#x2ee;" horiz-adv-x="663" d="M110 492 L196 492 L75 311 L165 311 L319 509 L355 699 L148 699 L110 492 Z M413 492 L500 492 L379 311 L468 311 L622 509 L657 699 L451 699 L413 492 Z " />
<glyph glyph-name="gravecomb" unicode="&#x300;" d="M-482 806 L-700 806 L-553 635 L-423 635 L-482 806 Z " />
<glyph glyph-name="acutecomb" unicode="&#x301;" d="M-649 635 L-507 635 L-296 806 L-529 806 L-649 635 Z " />
<glyph glyph-name="uni0302" unicode="&#x302;" d="M-751 635 L-615 635 L-517 708 L-445 635 L-316 635 L-386 806 L-620 806 L-751 635 Z " />
<glyph glyph-name="tildecomb" unicode="&#x303;" d="M-413 812 C-414 787 -423 773 -442 773 C-469 773 -510 806 -570 806 C-644 806 -698 757 -723 628 L-622 628 C-620 652 -614 666 -594 666 C-569 666 -527 632 -468 632 C-393 632 -338 679 -312 812 L-413 812 Z " />
<glyph glyph-name="uni0304" unicode="&#x304;" d="M-718 654 L-339 654 L-315 785 L-694 785 L-718 654 Z " />
<glyph glyph-name="uni0306" unicode="&#x306;" d="M-515 756 C-569 756 -590 778 -586 809 L-697 809 C-708 727 -691 630 -535 630 C-379 630 -327 724 -306 809 L-420 809 C-430 778 -462 756 -515 756 L-515 756 Z " />
<glyph glyph-name="uni0307" unicode="&#x307;" d="M-622 628 L-444 628 L-411 809 L-589 809 L-622 628 Z " />
<glyph glyph-name="uni0308" unicode="&#x308;" d="M-476 628 L-295 628 L-262 809 L-442 809 L-476 628 Z M-776 628 L-595 628 L-563 809 L-745 809 L-776 628 Z " />
<glyph glyph-name="hookabovecomb" unicode="&#x309;" d="M-612 602 L-519 602 L-510 649 L-511 649 C-417 649 -320 671 -320 780 C-320 856 -390 873 -468 873 C-528 873 -596 859 -635 844 L-650 751 C-627 765 -580 776 -538 776 C-500 776 -470 774 -470 752 C-470 729 -485 722 -537 722 L-589 722 L-612 602 Z " />
<glyph glyph-name="uni030A" unicode="&#x30a;" d="M-658 713 C-658 650 -609 600 -530 600 C-441 600 -377 657 -377 731 C-377 794 -426 842 -505 842 C-593 842 -658 785 -658 713 L-658 713 Z M-543 719 C-543 735 -530 747 -514 747 C-502 747 -491 736 -491 723 C-491 707 -505 696 -521 696 C-535 696 -543 707 -543 719 L-543 719 Z " />
<glyph glyph-name="uni030B" unicode="&#x30b;" d="M-495 635 L-354 635 L-144 806 L-376 806 L-495 635 Z M-799 635 L-658 635 L-448 806 L-678 806 L-799 635 Z " />
<glyph glyph-name="uni030C" unicode="&#x30c;" d="M-283 806 L-419 806 L-517 732 L-589 806 L-718 806 L-648 635 L-415 635 L-283 806 Z " />
<glyph glyph-name="uni030F" unicode="&#x30f;" d="M-356 806 L-575 806 L-428 635 L-298 635 L-356 806 Z M-641 806 L-858 806 L-712 635 L-582 635 L-641 806 Z " />
<glyph glyph-name="uni0311" unicode="&#x311;" d="M-522 684 C-469 684 -447 663 -450 631 L-339 631 C-328 716 -344 810 -502 810 C-659 810 -712 716 -730 631 L-614 631 C-605 663 -574 684 -522 684 L-522 684 Z " />
<glyph glyph-name="uni0312" unicode="&#x312;" d="M-335 519 L-421 519 L-300 700 L-390 700 L-544 502 L-580 311 L-373 311 L-335 519 Z " />
<glyph glyph-name="uni0313" unicode="&#x313;" d="M-658 492 L-571 492 L-692 311 L-602 311 L-449 509 L-412 700 L-620 700 L-658 492 Z " />
<glyph glyph-name="uni0314" unicode="&#x314;" d="M-307 700 L-514 700 L-546 509 L-464 311 L-374 311 L-430 492 L-344 492 L-307 700 Z " />
<glyph glyph-name="uni0316" unicode="&#x316;" d="M-637 -75 L-855 -75 L-708 -246 L-578 -246 L-637 -75 Z " />
<glyph glyph-name="uni0317" unicode="&#x317;" d="M-804 -246 L-662 -246 L-451 -75 L-684 -75 L-804 -246 Z " />
<glyph glyph-name="uni031B" unicode="&#x31b;" d="M-113 457 L-38 457 C63 457 156 479 181 615 C184 637 186 659 186 686 L-3 686 C-3 664 -5 645 -8 630 C-19 569 -47 560 -77 560 L-95 560 L-113 457 Z " />
<glyph glyph-name="uni031C" unicode="&#x31c;" d="M-600 -39 C-680 -39 -744 -92 -756 -160 C-767 -229 -723 -281 -642 -281 L-624 -185 C-639 -185 -648 -174 -648 -160 C-644 -146 -631 -134 -615 -134 L-600 -39 Z " />
<glyph glyph-name="dotbelowcomb" unicode="&#x323;" d="M-777 -253 L-599 -253 L-566 -72 L-744 -72 L-777 -253 Z " />
<glyph glyph-name="uni0324" unicode="&#x324;" d="M-631 -253 L-450 -253 L-417 -72 L-597 -72 L-631 -253 Z M-931 -253 L-750 -253 L-718 -72 L-900 -72 L-931 -253 Z " />
<glyph glyph-name="uni0325" unicode="&#x325;" d="M-813 -168 C-813 -231 -764 -281 -685 -281 C-596 -281 -532 -224 -532 -150 C-532 -87 -581 -39 -660 -39 C-748 -39 -813 -96 -813 -168 L-813 -168 Z M-698 -162 C-698 -146 -685 -134 -669 -134 C-657 -134 -646 -145 -646 -158 C-646 -174 -660 -185 -676 -185 C-690 -185 -698 -174 -698 -162 L-698 -162 Z " />
<glyph glyph-name="uni0326" unicode="&#x326;" d="M-771 -253 L-712 -253 L-824 -401 L-736 -401 L-593 -236 L-565 -72 L-739 -72 L-771 -253 Z " />
<glyph glyph-name="uni0327" unicode="&#x327;" d="M-754 -151 L-707 -151 C-669 -151 -650 -156 -650 -175 C-650 -211 -700 -215 -744 -215 C-779 -215 -811 -204 -825 -189 L-843 -279 C-815 -294 -767 -310 -713 -309 C-618 -307 -513 -281 -513 -167 C-513 -95 -583 -65 -651 -72 L-618 0 L-688 0 L-754 -151 Z " />
<glyph glyph-name="uni0328" unicode="&#x328;" d="M-805 -200 C-805 -259 -752 -299 -668 -299 C-618 -299 -563 -297 -504 -277 L-487 -187 C-525 -202 -541 -205 -568 -205 C-610 -205 -637 -187 -637 -151 C-637 -87 -575 -41 -511 0 L-612 0 C-710 -39 -805 -103 -805 -200 L-805 -200 Z " />
<glyph glyph-name="uni032C" unicode="&#x32c;" d="M-438 -75 L-574 -75 L-672 -149 L-744 -75 L-873 -75 L-803 -246 L-570 -246 L-438 -75 Z " />
<glyph glyph-name="uni032D" unicode="&#x32d;" d="M-906 -246 L-770 -246 L-672 -173 L-600 -246 L-471 -246 L-541 -75 L-775 -75 L-906 -246 Z " />
<glyph glyph-name="uni032E" unicode="&#x32e;" d="M-670 -125 C-724 -125 -745 -103 -741 -72 L-852 -72 C-863 -154 -846 -251 -690 -251 C-534 -251 -482 -157 -461 -72 L-575 -72 C-585 -103 -617 -125 -670 -125 L-670 -125 Z " />
<glyph glyph-name="uni032F" unicode="&#x32f;" d="M-679 -197 C-626 -197 -602 -218 -605 -250 L-494 -250 C-480 -164 -501 -71 -659 -71 C-816 -71 -865 -164 -886 -250 L-769 -250 C-760 -218 -731 -197 -679 -197 L-679 -197 Z " />
<glyph glyph-name="uni0330" unicode="&#x330;" d="M-568 -69 C-569 -94 -578 -108 -597 -108 C-624 -108 -665 -75 -725 -75 C-799 -75 -853 -124 -878 -253 L-777 -253 C-775 -229 -769 -215 -749 -215 C-724 -215 -682 -249 -623 -249 C-548 -249 -493 -202 -467 -69 L-568 -69 Z " />
<glyph glyph-name="uni0331" unicode="&#x331;" d="M-873 -227 L-494 -227 L-470 -96 L-849 -96 L-873 -227 Z " />
<glyph glyph-name="uni0338" unicode="&#x338;" d="M-990 -76 L-807 -76 L-169 777 L-356 777 L-990 -76 Z " />
<glyph glyph-name="uni0339" unicode="&#x339;" d="M-721 -134 C-708 -134 -698 -146 -701 -160 C-704 -174 -717 -185 -731 -185 L-748 -281 C-669 -281 -604 -229 -593 -160 C-581 -92 -625 -39 -706 -39 L-721 -134 Z " />
<glyph glyph-name="uni0340" unicode="&#x340;" d="M-482 806 L-700 806 L-553 635 L-423 635 L-482 806 Z " />
<glyph glyph-name="uni0341" unicode="&#x341;" d="M-649 635 L-507 635 L-296 806 L-529 806 L-649 635 Z " />
<glyph glyph-name="uni0343" unicode="&#x343;" d="M-658 492 L-571 492 L-692 311 L-602 311 L-449 509 L-412 700 L-620 700 L-658 492 Z " />
<glyph glyph-name="uni0344" unicode="&#x344;" d="M-376 633 L-200 633 L-167 809 L-343 809 L-376 633 Z M-577 635 L-488 635 L-396 835 L-597 835 L-577 635 Z M-866 633 L-690 633 L-658 809 L-834 809 L-866 633 Z " />
<glyph glyph-name="uni034F" unicode="&#x34f;" d="" />
<glyph glyph-name="uni0351" unicode="&#x351;" d="M-445 842 C-525 842 -589 789 -600 721 C-612 652 -567 600 -486 600 L-469 696 C-484 696 -493 707 -492 721 C-489 735 -476 747 -460 747 L-445 842 Z " />
<glyph glyph-name="uni0357" unicode="&#x357;" d="M-566 747 C-553 747 -543 735 -545 721 C-549 707 -562 696 -576 696 L-592 600 C-511 600 -449 652 -437 721 C-426 789 -470 842 -551 842 L-566 747 Z " />
<glyph glyph-name="uni0374" unicode="&#x374;" horiz-adv-x="374" d="M105 400 L249 400 L408 700 L171 700 L105 400 Z " />
<glyph glyph-name="uni0375" unicode="&#x375;" horiz-adv-x="374" d="M17 -100 L161 -100 L320 200 L83 200 L17 -100 Z " />
<glyph glyph-name="uni037E" unicode="&#x37e;" horiz-adv-x="365" d="M24 0 L110 0 L-11 -181 L79 -181 L233 17 L269 207 L62 207 L24 0 Z M84 352 L291 352 L329 560 L123 560 L84 352 Z " />
<glyph glyph-name="tonos" unicode="&#x384;" horiz-adv-x="480" d="M239 635 L348 635 L437 835 L220 835 L239 635 Z " />
<glyph glyph-name="dieresistonos" unicode="&#x385;" horiz-adv-x="480" d="M449 633 L625 633 L659 809 L483 809 L449 633 Z M-41 633 L135 633 L167 809 L-9 809 L-41 633 Z M248 635 L337 635 L430 835 L229 835 L248 635 Z " />
<glyph glyph-name="Alphatonos" unicode="&#x386;" horiz-adv-x="1244" d="M943 0 L1186 0 L798 700 L580 700 L-60 0 L203 0 L295 104 L887 104 L943 0 Z M664 518 L794 274 L447 274 L664 518 Z M166 500 L275 500 L364 700 L147 700 L166 500 Z " />
<glyph glyph-name="anoteleia" unicode="&#x387;" horiz-adv-x="342" d="M57 189 L235 189 L269 370 L91 370 L57 189 Z " />
<glyph glyph-name="Epsilontonos" unicode="&#x388;" horiz-adv-x="1330" d="M228 0 L1204 0 L1239 190 L472 190 L482 265 L1151 265 L1183 434 L514 434 L526 510 L1293 510 L1329 700 L353 700 L228 0 Z M65 500 L174 500 L263 700 L46 700 L65 500 Z " />
<glyph glyph-name="Etatonos" unicode="&#x389;" horiz-adv-x="1431" d="M1056 0 L1265 0 L1390 700 L1181 700 L1136 445 L516 445 L562 700 L353 700 L228 0 L437 0 L480 255 L1100 255 L1056 0 Z M65 500 L174 500 L263 700 L46 700 L65 500 Z " />
<glyph glyph-name="Iotatonos" unicode="&#x38a;" horiz-adv-x="602" d="M226 0 L435 0 L560 700 L351 700 L226 0 Z M65 500 L174 500 L263 700 L46 700 L65 500 Z " />
<glyph glyph-name="Omicrontonos" unicode="&#x38c;" horiz-adv-x="1432" d="M876 -10 C1239 -10 1379 175 1379 403 C1379 577 1272 710 1000 710 L700 710 C337 710 196 526 196 295 C196 122 306 -10 577 -10 L876 -10 Z M617 180 C463 180 421 240 421 319 C421 408 459 520 685 520 L958 520 C1110 520 1154 459 1154 380 C1154 283 1106 180 890 180 L617 180 Z M65 500 L174 500 L263 700 L46 700 L65 500 Z " />
<glyph glyph-name="Upsilontonos" unicode="&#x38e;" horiz-adv-x="1438" d="M670 0 L879 0 L916 213 L1514 700 L1197 700 L832 378 L575 700 L286 700 L707 213 L670 0 Z M65 500 L174 500 L263 700 L46 700 L65 500 Z " />
<glyph glyph-name="Omegatonos" unicode="&#x38f;" horiz-adv-x="1424" d="M607 156 C474 171 413 234 413 315 C413 398 452 520 673 520 L950 520 C1105 520 1143 460 1143 378 C1143 281 1066 168 878 156 L852 0 L1311 0 L1347 190 L1279 190 C1338 269 1358 356 1358 446 C1358 593 1263 710 1023 710 L664 710 C345 710 216 530 216 337 C216 285 228 230 237 190 L159 190 L123 0 L580 0 L607 156 Z M65 500 L174 500 L263 700 L46 700 L65 500 Z " />
<glyph glyph-name="iotadieresistonos" unicode="&#x390;" horiz-adv-x="380" d="M38 0 L223 0 L322 560 L137 560 L38 0 Z M396 633 L572 633 L606 809 L430 809 L396 633 Z M-94 633 L82 633 L114 809 L-62 809 L-94 633 Z M195 635 L284 635 L377 835 L176 835 L195 635 Z " />
<glyph glyph-name="Alpha" unicode="&#x391;" horiz-adv-x="1244" d="M943 0 L1186 0 L798 700 L580 700 L-60 0 L203 0 L295 104 L887 104 L943 0 Z M664 518 L794 274 L447 274 L664 518 Z " />
<glyph glyph-name="Beta" unicode="&#x392;" horiz-adv-x="1208" d="M48 0 L851 0 C1043 0 1117 106 1117 222 C1117 287 1090 343 1015 366 C1094 406 1130 475 1130 554 C1130 636 1076 700 939 700 L173 700 L48 0 Z M840 265 C890 265 900 248 900 232 C900 216 885 190 830 190 L291 190 L302 265 L840 265 Z M903 480 C903 461 888 434 831 434 L334 434 L346 510 L845 510 C894 510 903 498 903 480 L903 480 Z " />
<glyph glyph-name="Gamma" unicode="&#x393;" horiz-adv-x="1083" d="M48 0 L257 0 L346 510 L1094 510 L1130 700 L173 700 L48 0 Z " />
<glyph glyph-name="Delta" unicode="&#x394;" horiz-adv-x="1244" d="M800 700 L579 700 L-60 0 L1187 0 L800 700 Z M669 525 L840 190 L383 190 L669 525 Z " />
<glyph glyph-name="Epsilon" unicode="&#x395;" horiz-adv-x="1150" d="M48 0 L1024 0 L1059 190 L292 190 L302 265 L971 265 L1003 434 L334 434 L346 510 L1113 510 L1149 700 L173 700 L48 0 Z " />
<glyph glyph-name="Zeta" unicode="&#x396;" horiz-adv-x="1157" d="M5 0 L1048 0 L1083 190 L456 190 L1127 555 L1148 700 L135 700 L99 510 L696 510 L25 144 L5 0 Z " />
<glyph glyph-name="Eta" unicode="&#x397;" horiz-adv-x="1252" d="M876 0 L1085 0 L1210 700 L1001 700 L956 445 L336 445 L382 700 L173 700 L48 0 L257 0 L300 255 L920 255 L876 0 Z " />
<glyph glyph-name="Theta" unicode="&#x398;" horiz-adv-x="1293" d="M438 265 L827 265 L860 434 L470 434 L438 265 Z M737 -10 C1100 -10 1240 175 1240 403 C1240 577 1133 710 861 710 L561 710 C198 710 57 526 57 295 C57 122 167 -10 438 -10 L737 -10 Z M478 180 C324 180 282 240 282 319 C282 408 320 520 546 520 L819 520 C971 520 1015 459 1015 380 C1015 283 967 180 751 180 L478 180 Z " />
<glyph glyph-name="Iota" unicode="&#x399;" horiz-adv-x="424" d="M48 0 L257 0 L382 700 L173 700 L48 0 Z " />
<glyph glyph-name="Kappa" unicode="&#x39a;" horiz-adv-x="1251" d="M1234 700 L875 700 L317 354 L378 700 L173 700 L48 0 L253 0 L277 129 L548 291 L880 0 L1197 0 L724 395 L1234 700 Z " />
<glyph glyph-name="Lambda" unicode="&#x39b;" horiz-adv-x="1244" d="M579 700 L-60 0 L213 0 L662 519 L931 0 L1187 0 L800 700 L579 700 Z " />
<glyph glyph-name="Mu" unicode="&#x39c;" horiz-adv-x="1401" d="M1147 700 L681 299 L360 700 L173 700 L48 0 L257 0 L327 412 L642 14 L1095 412 L1025 0 L1234 0 L1359 700 L1147 700 Z " />
<glyph glyph-name="Nu" unicode="&#x39d;" horiz-adv-x="1256" d="M892 0 L1089 0 L1214 700 L1007 700 L923 228 L370 700 L173 700 L48 0 L257 0 L340 472 L892 0 Z " />
<glyph glyph-name="Xi" unicode="&#x39e;" horiz-adv-x="1158" d="M97 510 L1121 510 L1157 700 L133 700 L97 510 Z M1066 190 L42 190 L7 0 L1031 0 L1066 190 Z M141 265 L989 265 L1022 434 L173 434 L141 265 Z " />
<glyph glyph-name="Omicron" unicode="&#x39f;" horiz-adv-x="1293" d="M737 -10 C1100 -10 1240 175 1240 403 C1240 577 1133 710 861 710 L561 710 C198 710 57 526 57 295 C57 122 167 -10 438 -10 L737 -10 Z M478 180 C324 180 282 240 282 319 C282 408 320 520 546 520 L819 520 C971 520 1015 459 1015 380 C1015 283 967 180 751 180 L478 180 Z " />
<glyph glyph-name="Pi" unicode="&#x3a0;" horiz-adv-x="1252" d="M876 0 L1085 0 L1210 700 L173 700 L48 0 L257 0 L346 510 L965 510 L876 0 Z " />
<glyph glyph-name="Rho" unicode="&#x3a1;" horiz-adv-x="1147" d="M48 0 L257 0 L295 215 L808 215 C1052 215 1153 338 1153 496 C1153 609 1085 700 894 700 L173 700 L48 0 Z M854 510 C919 510 932 492 932 465 C932 434 909 405 838 405 L330 405 L346 510 L854 510 Z " />
<glyph glyph-name="Sigma" unicode="&#x3a3;" horiz-adv-x="1129" d="M104 545 L455 355 L37 155 L7 0 L1003 0 L1037 190 L480 190 L818 344 L524 510 L1092 510 L1128 700 L133 700 L104 545 Z " />
<glyph glyph-name="Tau" unicode="&#x3a4;" horiz-adv-x="1136" d="M49 510 L494 510 L404 0 L611 0 L703 510 L1147 510 L1182 700 L85 700 L49 510 Z " />
<glyph glyph-name="Upsilon" unicode="&#x3a5;" horiz-adv-x="1208" d="M440 0 L649 0 L686 213 L1284 700 L967 700 L602 378 L345 700 L56 700 L477 213 L440 0 Z " />
<glyph glyph-name="Phi" unicode="&#x3a6;" horiz-adv-x="1252" d="M814 62 C1109 62 1217 216 1217 394 C1217 526 1126 638 912 638 L783 638 L803 750 L596 750 L576 638 L443 638 C150 638 41 479 41 303 C41 169 132 62 346 62 L473 62 L453 -50 L660 -50 L680 62 L814 62 Z M884 448 C980 448 992 407 992 360 C992 300 928 252 827 252 L716 252 L749 448 L884 448 Z M268 339 C268 397 329 448 431 448 L540 448 L507 252 L374 252 C279 252 268 290 268 339 L268 339 Z " />
<glyph glyph-name="Chi" unicode="&#x3a7;" horiz-adv-x="1177" d="M71 700 L437 352 L-59 0 L283 0 L584 241 L799 0 L1119 0 L749 352 L1239 700 L896 700 L599 463 L390 700 L71 700 Z " />
<glyph glyph-name="Psi" unicode="&#x3a8;" horiz-adv-x="1243" d="M458 0 L665 0 L688 127 L792 127 C1064 127 1179 251 1213 442 L1259 700 L1050 700 L1008 475 C990 376 935 317 822 317 L724 317 L790 700 L583 700 L515 317 L419 317 C291 317 266 377 281 460 L324 700 L115 700 L72 461 C37 268 113 127 394 127 L479 127 L458 0 Z " />
<glyph glyph-name="Omega" unicode="&#x3a9;" horiz-adv-x="1301" d="M481 156 C348 171 287 234 287 315 C287 398 326 520 547 520 L824 520 C979 520 1017 460 1017 378 C1017 281 940 168 752 156 L726 0 L1185 0 L1221 190 L1153 190 C1212 269 1232 356 1232 446 C1232 593 1137 710 897 710 L538 710 C219 710 90 530 90 337 C90 285 102 230 111 190 L33 190 L-3 0 L454 0 L481 156 Z " />
<glyph glyph-name="Iotadieresis" unicode="&#x3aa;" horiz-adv-x="424" d="M48 0 L257 0 L382 700 L173 700 L48 0 Z M42 768 L222 768 L256 949 L75 949 L42 768 Z M342 768 L522 768 L554 949 L372 949 L342 768 Z " />
<glyph glyph-name="Upsilondieresis" unicode="&#x3ab;" horiz-adv-x="1208" d="M440 0 L649 0 L686 213 L1284 700 L967 700 L602 378 L345 700 L56 700 L477 213 L440 0 Z M439 768 L619 768 L653 949 L472 949 L439 768 Z M739 768 L919 768 L951 949 L769 949 L739 768 Z " />
<glyph glyph-name="alphatonos" unicode="&#x3ac;" horiz-adv-x="1063" d="M785 0 L1005 0 L670 560 L475 560 L-59 0 L175 0 L256 88 L734 88 L785 0 Z M551 408 L653 227 L385 227 L551 408 Z M102 360 L211 360 L300 560 L83 560 L102 360 Z " />
<glyph glyph-name="epsilontonos" unicode="&#x3ad;" horiz-adv-x="1167" d="M218 0 L1049 0 L1077 159 L431 159 L439 211 L1000 211 L1025 348 L464 348 L472 400 L1118 400 L1148 560 L317 560 L218 0 Z M40 360 L149 360 L238 560 L21 560 L40 360 Z " />
<glyph glyph-name="etatonos" unicode="&#x3ae;" horiz-adv-x="1257" d="M916 0 L1101 0 L1200 560 L1015 560 L981 360 L467 360 L502 560 L317 560 L218 0 L403 0 L438 200 L949 200 L916 0 Z M40 360 L149 360 L238 560 L21 560 L40 360 Z " />
<glyph glyph-name="iotatonos" unicode="&#x3af;" horiz-adv-x="561" d="M219 0 L404 0 L503 560 L318 560 L219 0 Z M40 360 L149 360 L238 560 L21 560 L40 360 Z " />
<glyph glyph-name="upsilondieresistonos" unicode="&#x3b0;" horiz-adv-x="1026" d="M362 0 L546 0 L576 171 L1076 560 L795 560 L498 307 L285 560 L30 560 L392 171 L362 0 Z M722 633 L898 633 L932 809 L756 809 L722 633 Z M232 633 L408 633 L440 809 L264 809 L232 633 Z M521 635 L610 635 L703 835 L502 835 L521 635 Z " />
<glyph glyph-name="alpha" unicode="&#x3b1;" horiz-adv-x="1063" d="M785 0 L1005 0 L670 560 L475 560 L-59 0 L175 0 L256 88 L734 88 L785 0 Z M551 408 L653 227 L385 227 L551 408 Z " />
<glyph glyph-name="beta" unicode="&#x3b2;" horiz-adv-x="1037" d="M38 0 L726 0 C890 0 947 86 947 174 C947 229 920 274 856 294 C919 327 952 379 952 442 C952 510 910 560 795 560 L137 560 L38 0 Z M251 159 L259 211 L712 211 C747 211 753 203 753 193 C753 175 743 159 702 159 L251 159 Z M710 400 C745 400 751 392 751 382 C751 364 741 348 700 348 L284 348 L292 400 L710 400 Z " />
<glyph glyph-name="gamma" unicode="&#x3b3;" horiz-adv-x="943" d="M38 0 L223 0 L292 400 L922 400 L952 560 L137 560 L38 0 Z " />
<glyph glyph-name="delta" unicode="&#x3b4;" horiz-adv-x="1063" d="M670 560 L475 560 L-59 0 L1005 0 L670 560 Z M551 410 L691 159 L326 159 L551 410 Z " />
<glyph glyph-name="epsilon" unicode="&#x3b5;" horiz-adv-x="989" d="M38 0 L869 0 L897 159 L251 159 L259 211 L820 211 L845 348 L284 348 L292 400 L938 400 L968 560 L137 560 L38 0 Z " />
<glyph glyph-name="zeta" unicode="&#x3b6;" horiz-adv-x="989" d="M-2 0 L887 0 L915 159 L397 159 L946 437 L963 560 L101 560 L70 400 L561 400 L14 122 L-2 0 Z " />
<glyph glyph-name="eta" unicode="&#x3b7;" horiz-adv-x="1078" d="M736 0 L921 0 L1020 560 L835 560 L801 360 L287 360 L322 560 L137 560 L38 0 L223 0 L258 200 L769 200 L736 0 Z " />
<glyph glyph-name="theta" unicode="&#x3b8;" horiz-adv-x="1105" d="M368 211 L688 211 L713 348 L394 348 L368 211 Z M625 -8 C930 -8 1040 152 1045 326 C1049 461 963 568 729 568 L460 568 C155 568 44 408 41 234 C37 99 121 -8 356 -8 L625 -8 Z M388 151 C264 151 236 196 237 253 C238 322 294 408 430 408 L698 408 C819 408 849 364 849 306 C849 240 791 151 656 151 L388 151 Z " />
<glyph glyph-name="iota" unicode="&#x3b9;" horiz-adv-x="380" d="M38 0 L223 0 L322 560 L137 560 L38 0 Z " />
<glyph glyph-name="kappa" unicode="&#x3ba;" horiz-adv-x="1077" d="M1049 560 L719 560 L273 292 L322 560 L137 560 L38 0 L223 0 L239 96 L463 226 L734 0 L1019 0 L621 315 L1049 560 Z " />
<glyph glyph-name="lambda" unicode="&#x3bb;" horiz-adv-x="1063" d="M474 560 L-59 0 L179 0 L550 408 L777 0 L1005 0 L669 560 L474 560 Z " />
<glyph glyph-name="mu" unicode="&#x3bc;" horiz-adv-x="1205" d="M960 560 L578 249 L303 560 L137 560 L38 0 L223 0 L277 317 L544 9 L918 317 L863 0 L1048 0 L1147 560 L960 560 Z " />
<glyph glyph-name="nu" unicode="&#x3bd;" horiz-adv-x="1083" d="M926 0 L1025 560 L841 560 L778 195 L312 560 L137 560 L38 0 L223 0 L286 365 L751 0 L926 0 Z " />
<glyph glyph-name="xi" unicode="&#x3be;" horiz-adv-x="991" d="M69 400 L941 400 L971 560 L100 560 L69 400 Z M900 159 L28 159 L1 0 L872 0 L900 159 Z M111 211 L831 211 L857 348 L136 348 L111 211 Z " />
<glyph glyph-name="omicron" unicode="&#x3bf;" horiz-adv-x="1105" d="M625 -8 C930 -8 1040 152 1045 326 C1049 461 963 568 729 568 L460 568 C155 568 44 408 41 234 C37 99 121 -8 356 -8 L625 -8 Z M388 151 C264 151 236 196 237 253 C238 322 294 408 430 408 L698 408 C819 408 849 364 849 306 C849 240 791 151 656 151 L388 151 Z " />
<glyph glyph-name="pi" unicode="&#x3c0;" horiz-adv-x="1078" d="M736 0 L921 0 L1020 560 L137 560 L38 0 L223 0 L292 400 L806 400 L736 0 Z " />
<glyph glyph-name="rho" unicode="&#x3c1;" horiz-adv-x="995" d="M38 0 L223 0 L251 168 L684 168 C897 168 972 278 972 392 C972 485 916 560 755 560 L137 560 L38 0 Z M720 400 C769 400 776 388 776 371 C776 353 768 328 707 328 L280 328 L292 400 L720 400 Z " />
<glyph glyph-name="uni03C2" unicode="&#x3c2;" horiz-adv-x="966" d="M75 428 L372 283 L22 131 L0 0 L847 0 L875 159 L413 159 L693 277 L446 400 L916 400 L946 560 L99 560 L75 428 Z " />
<glyph glyph-name="sigma" unicode="&#x3c3;" horiz-adv-x="966" d="M75 428 L372 283 L22 131 L0 0 L847 0 L875 159 L413 159 L693 277 L446 400 L916 400 L946 560 L99 560 L75 428 Z " />
<glyph glyph-name="tau" unicode="&#x3c4;" horiz-adv-x="995" d="M40 400 L416 400 L346 0 L531 0 L600 400 L974 400 L1004 560 L71 560 L40 400 Z " />
<glyph glyph-name="upsilon" unicode="&#x3c5;" horiz-adv-x="1026" d="M362 0 L546 0 L576 171 L1076 560 L795 560 L498 307 L285 560 L30 560 L392 171 L362 0 Z " />
<glyph glyph-name="phi" unicode="&#x3c6;" horiz-adv-x="1080" d="M693 50 C948 50 1031 177 1031 318 C1031 424 962 510 774 510 L664 510 L680 600 L495 600 L479 510 L369 510 C119 510 31 380 31 241 C31 133 100 50 288 50 L397 50 L380 -40 L565 -40 L582 50 L693 50 Z M748 350 C819 350 834 327 834 295 C834 253 796 209 715 209 L611 209 L634 350 L748 350 Z M311 209 C240 209 227 233 227 264 C227 306 266 350 346 350 L450 350 L427 209 L311 209 Z " />
<glyph glyph-name="chi" unicode="&#x3c7;" horiz-adv-x="1014" d="M50 560 L361 282 L-53 0 L249 0 L492 184 L671 0 L949 0 L634 282 L1045 560 L742 560 L505 378 L329 560 L50 560 Z " />
<glyph glyph-name="psi" unicode="&#x3c8;" horiz-adv-x="1066" d="M381 0 L566 0 L581 99 L635 99 C894 99 999 212 1026 366 L1059 560 L874 560 L841 363 C830 301 798 260 665 260 L613 260 L665 560 L480 560 L427 260 L375 260 C240 260 225 301 235 363 L268 560 L86 560 L52 363 C25 209 83 99 342 99 L397 99 L381 0 Z " />
<glyph glyph-name="omega" unicode="&#x3c9;" horiz-adv-x="1118" d="M614 0 L1005 0 L1034 159 L984 159 C1024 217 1041 285 1041 358 C1041 475 968 568 752 568 L441 568 C168 568 71 423 71 271 C71 232 83 188 88 159 L22 159 L-6 0 L386 0 L410 132 C277 138 244 193 244 253 C244 327 312 408 456 408 L690 408 C825 408 854 359 854 300 C854 214 815 145 639 132 L614 0 Z " />
<glyph glyph-name="iotadieresis" unicode="&#x3ca;" horiz-adv-x="380" d="M38 0 L223 0 L322 560 L137 560 L38 0 Z M-3 628 L177 628 L211 809 L30 809 L-3 628 Z M297 628 L477 628 L509 809 L327 809 L297 628 Z " />
<glyph glyph-name="upsilondieresis" unicode="&#x3cb;" horiz-adv-x="1026" d="M362 0 L546 0 L576 171 L1076 560 L795 560 L498 307 L285 560 L30 560 L392 171 L362 0 Z M323 628 L503 628 L537 809 L356 809 L323 628 Z M623 628 L803 628 L835 809 L653 809 L623 628 Z " />
<glyph glyph-name="omicrontonos" unicode="&#x3cc;" horiz-adv-x="1266" d="M787 -8 C1092 -8 1202 152 1207 326 C1211 461 1125 568 891 568 L622 568 C317 568 206 408 203 234 C199 99 283 -8 518 -8 L787 -8 Z M550 151 C426 151 398 196 399 253 C400 322 456 408 592 408 L860 408 C981 408 1011 364 1011 306 C1011 240 953 151 818 151 L550 151 Z M40 360 L149 360 L238 560 L21 560 L40 360 Z " />
<glyph glyph-name="upsilontonos" unicode="&#x3cd;" horiz-adv-x="1257" d="M592 0 L776 0 L806 171 L1306 560 L1025 560 L728 307 L515 560 L260 560 L622 171 L592 0 Z M40 360 L149 360 L238 560 L21 560 L40 360 Z " />
<glyph glyph-name="omegatonos" unicode="&#x3ce;" horiz-adv-x="1261" d="M758 0 L1149 0 L1178 159 L1128 159 C1168 217 1185 285 1185 358 C1185 475 1112 568 896 568 L585 568 C312 568 215 423 215 271 C215 232 227 188 232 159 L166 159 L138 0 L530 0 L554 132 C421 138 388 193 388 253 C388 327 456 408 600 408 L834 408 C969 408 998 359 998 300 C998 214 959 145 783 132 L758 0 Z M40 360 L149 360 L238 560 L21 560 L40 360 Z " />
<glyph glyph-name="uni0400" unicode="&#x400;" horiz-adv-x="1150" d="M48 0 L1024 0 L1059 190 L292 190 L302 265 L971 265 L1003 434 L334 434 L346 510 L1113 510 L1149 700 L173 700 L48 0 Z M712 946 L493 946 L641 775 L770 775 L712 946 Z " />
<glyph glyph-name="uni0401" unicode="&#x401;" horiz-adv-x="1150" d="M48 0 L1024 0 L1059 190 L292 190 L302 265 L971 265 L1003 434 L334 434 L346 510 L1113 510 L1149 700 L173 700 L48 0 Z M418 768 L598 768 L632 949 L451 949 L418 768 Z M718 768 L898 768 L930 949 L748 949 L718 768 Z " />
<glyph glyph-name="uni0402" unicode="&#x402;" horiz-adv-x="1299" d="M695 0 L945 0 C1172 0 1260 115 1260 249 C1260 356 1192 434 1020 434 L545 434 L555 510 L957 510 L993 700 L85 700 L49 510 L346 510 L257 -1 L466 -1 L513 265 L986 265 C1034 265 1039 248 1039 231 C1039 211 1028 190 973 190 L731 190 L695 0 Z " />
<glyph glyph-name="uni0403" unicode="&#x403;" horiz-adv-x="1083" d="M48 0 L257 0 L346 510 L1094 510 L1130 700 L173 700 L48 0 Z M545 775 L686 775 L898 946 L664 946 L545 775 Z " />
<glyph glyph-name="uni0404" unicode="&#x404;" horiz-adv-x="1136" d="M957 265 L990 434 L310 434 C342 477 402 510 521 510 L1099 510 L1134 700 L540 700 C194 700 57 507 57 296 C57 130 158 0 426 0 L1009 0 L1042 190 L460 190 C352 190 306 220 287 265 L957 265 Z " />
<glyph glyph-name="uni0405" unicode="&#x405;" horiz-adv-x="1158" d="M794 190 L74 190 L38 0 L766 0 C989 0 1081 111 1081 249 C1081 356 1013 434 843 434 L356 434 C308 434 303 452 303 468 C303 489 315 510 369 510 L1090 510 L1126 700 L397 700 C174 700 82 588 82 450 C82 343 148 265 319 265 L807 265 C855 265 860 248 860 231 C860 211 849 190 794 190 L794 190 Z " />
<glyph glyph-name="uni0406" unicode="&#x406;" horiz-adv-x="424" d="M48 0 L257 0 L382 700 L173 700 L48 0 Z " />
<glyph glyph-name="uni0407" unicode="&#x407;" horiz-adv-x="424" d="M48 0 L257 0 L382 700 L173 700 L48 0 Z M42 768 L222 768 L256 949 L75 949 L42 768 Z M342 768 L522 768 L554 949 L372 949 L342 768 Z " />
<glyph glyph-name="uni0408" unicode="&#x408;" horiz-adv-x="1181" d="M296 -5 L651 -5 C925 -5 1034 105 1069 303 L1139 700 L930 700 L862 336 C845 237 791 185 678 185 L329 185 C229 185 217 219 228 275 L240 344 L31 344 L19 275 C-10 124 56 -5 296 -5 L296 -5 Z " />
<glyph glyph-name="uni0409" unicode="&#x409;" horiz-adv-x="1786" d="M750 0 L1411 0 C1655 0 1756 123 1756 281 C1756 394 1688 485 1497 485 L1045 485 L1082 700 L341 700 L201 251 C187 212 157 190 113 190 L-5 190 L-41 0 L76 0 C274 0 363 99 397 212 L487 510 L839 510 L750 0 Z M1441 190 L993 190 L1009 295 L1457 295 C1522 295 1535 277 1535 250 C1535 219 1512 190 1441 190 L1441 190 Z " />
<glyph glyph-name="uni040A" unicode="&#x40a;" horiz-adv-x="1800" d="M763 0 L1424 0 C1668 0 1767 123 1767 281 C1767 394 1700 485 1510 485 L1058 485 L1096 700 L889 700 L849 485 L345 485 L382 700 L173 700 L48 0 L257 0 L309 295 L816 295 L763 0 Z M1025 295 L1470 295 C1535 295 1548 277 1548 250 C1548 219 1525 190 1454 190 L1006 190 L1025 295 Z " />
<glyph glyph-name="uni040B" unicode="&#x40b;" horiz-adv-x="1328" d="M1217 -1 L1252 197 C1275 331 1232 430 1028 430 L543 430 L555 510 L957 510 L993 700 L85 700 L49 510 L346 510 L255 -1 L464 -1 L508 239 L998 239 C1042 239 1050 224 1042 183 L1008 -1 L1217 -1 Z " />
<glyph glyph-name="uni040C" unicode="&#x40c;" horiz-adv-x="1250" d="M523 775 L664 775 L876 946 L642 946 L523 775 Z M750 356 L1230 700 L897 700 L567 445 L336 445 L382 700 L173 700 L48 0 L257 0 L300 255 L566 255 L877 0 L1197 0 L750 356 Z " />
<glyph glyph-name="uni040D" unicode="&#x40d;" horiz-adv-x="1256" d="M755 946 L536 946 L684 775 L813 775 L755 946 Z M961 455 L882 0 L1089 0 L1214 700 L1011 700 L300 245 L382 700 L173 700 L48 0 L252 0 L961 455 Z " />
<glyph glyph-name="uni040E" unicode="&#x40e;" horiz-adv-x="1212" d="M719 896 C665 896 644 918 648 949 L537 949 C526 867 543 770 699 770 C855 770 907 864 928 949 L814 949 C804 918 772 896 719 896 L719 896 Z M472 0 L1291 700 L981 700 L615 361 L344 700 L58 700 L459 238 L160 0 L472 0 Z " />
<glyph glyph-name="uni040F" unicode="&#x40f;" horiz-adv-x="1252" d="M911 190 L292 190 L382 700 L173 700 L48 0 L463 0 L435 -150 L642 -150 L670 0 L1085 0 L1210 700 L1001 700 L911 190 Z " />
<glyph glyph-name="uni0410" unicode="&#x410;" horiz-adv-x="1244" d="M943 0 L1186 0 L798 700 L580 700 L-60 0 L203 0 L295 104 L887 104 L943 0 Z M664 518 L794 274 L447 274 L664 518 Z " />
<glyph glyph-name="uni0411" unicode="&#x411;" horiz-adv-x="1185" d="M48 0 L796 0 C1018 0 1110 111 1110 249 C1110 356 1042 434 872 434 L334 434 L346 510 L1094 510 L1130 700 L173 700 L48 0 Z M823 190 L293 190 L303 265 L836 265 C884 265 889 248 889 231 C889 211 878 190 823 190 L823 190 Z " />
<glyph glyph-name="uni0412" unicode="&#x412;" horiz-adv-x="1208" d="M48 0 L851 0 C1043 0 1117 106 1117 222 C1117 287 1090 343 1015 366 C1094 406 1130 475 1130 554 C1130 636 1076 700 939 700 L173 700 L48 0 Z M840 265 C890 265 900 248 900 232 C900 216 885 190 830 190 L291 190 L302 265 L840 265 Z M903 480 C903 461 888 434 831 434 L334 434 L346 510 L845 510 C894 510 903 498 903 480 L903 480 Z " />
<glyph glyph-name="uni0413" unicode="&#x413;" horiz-adv-x="1083" d="M48 0 L257 0 L346 510 L1094 510 L1130 700 L173 700 L48 0 Z " />
<glyph glyph-name="uni0414" unicode="&#x414;" horiz-adv-x="1200" d="M168 0 L879 0 L851 -150 L1060 -150 L1123 190 L1039 190 L1130 700 L341 700 L201 251 C187 207 167 190 121 190 L-6 190 L-68 -150 L141 -150 L168 0 Z M488 510 L885 510 L830 190 L358 190 C386 214 411 247 422 287 L488 510 Z " />
<glyph glyph-name="uni0415" unicode="&#x415;" horiz-adv-x="1150" d="M48 0 L1024 0 L1059 190 L292 190 L302 265 L971 265 L1003 434 L334 434 L346 510 L1113 510 L1149 700 L173 700 L48 0 Z " />
<glyph glyph-name="uni0416" unicode="&#x416;" horiz-adv-x="1580" d="M1200 352 L1591 700 L1294 700 L1030 445 L913 445 L959 700 L752 700 L704 445 L568 445 L393 700 L122 700 L388 352 L-50 0 L264 0 L557 255 L671 255 L627 0 L834 0 L880 255 L1016 255 L1222 0 L1513 0 L1200 352 Z " />
<glyph glyph-name="uni0417" unicode="&#x417;" horiz-adv-x="1217" d="M-3 0 L861 0 C1053 0 1127 106 1127 222 C1127 287 1098 343 1024 366 C1102 406 1139 475 1139 554 C1139 636 1085 700 948 700 L142 700 L106 510 L854 510 C903 510 912 498 912 480 C912 461 897 434 842 434 L179 434 L146 265 L850 265 C900 265 910 248 910 232 C910 216 895 190 840 190 L31 190 L-3 0 Z " />
<glyph glyph-name="uni0418" unicode="&#x418;" horiz-adv-x="1256" d="M961 455 L882 0 L1089 0 L1214 700 L1011 700 L300 245 L382 700 L173 700 L48 0 L252 0 L961 455 Z " />
<glyph glyph-name="uni0419" unicode="&#x419;" horiz-adv-x="1256" d="M722 896 C668 896 647 918 651 949 L540 949 C529 867 546 770 702 770 C858 770 910 864 931 949 L817 949 C807 918 775 896 722 896 L722 896 Z M961 455 L882 0 L1089 0 L1214 700 L1011 700 L300 245 L382 700 L173 700 L48 0 L252 0 L961 455 Z " />
<glyph glyph-name="uni041A" unicode="&#x41a;" horiz-adv-x="1250" d="M750 356 L1230 700 L897 700 L567 445 L336 445 L382 700 L173 700 L48 0 L257 0 L300 255 L566 255 L877 0 L1197 0 L750 356 Z " />
<glyph glyph-name="uni041B" unicode="&#x41b;" horiz-adv-x="1207" d="M341 700 L201 251 C187 212 157 190 112 190 L-6 190 L-41 0 L76 0 C274 0 363 99 397 212 L488 510 L920 510 L831 0 L1040 0 L1165 700 L341 700 Z " />
<glyph glyph-name="uni041C" unicode="&#x41c;" horiz-adv-x="1401" d="M1147 700 L681 299 L360 700 L173 700 L48 0 L257 0 L327 412 L642 14 L1095 412 L1025 0 L1234 0 L1359 700 L1147 700 Z " />
<glyph glyph-name="uni041D" unicode="&#x41d;" horiz-adv-x="1252" d="M876 0 L1085 0 L1210 700 L1001 700 L956 445 L336 445 L382 700 L173 700 L48 0 L257 0 L300 255 L920 255 L876 0 Z " />
<glyph glyph-name="uni041E" unicode="&#x41e;" horiz-adv-x="1293" d="M737 -10 C1100 -10 1240 175 1240 403 C1240 577 1133 710 861 710 L561 710 C198 710 57 526 57 295 C57 122 167 -10 438 -10 L737 -10 Z M478 180 C324 180 282 240 282 319 C282 408 320 520 546 520 L819 520 C971 520 1015 459 1015 380 C1015 283 967 180 751 180 L478 180 Z " />
<glyph glyph-name="uni041F" unicode="&#x41f;" horiz-adv-x="1252" d="M876 0 L1085 0 L1210 700 L173 700 L48 0 L257 0 L346 510 L965 510 L876 0 Z " />
<glyph glyph-name="uni0420" unicode="&#x420;" horiz-adv-x="1147" d="M48 0 L257 0 L295 215 L808 215 C1052 215 1153 338 1153 496 C1153 609 1085 700 894 700 L173 700 L48 0 Z M854 510 C919 510 932 492 932 465 C932 434 909 405 838 405 L330 405 L346 510 L854 510 Z " />
<glyph glyph-name="uni0421" unicode="&#x421;" horiz-adv-x="1136" d="M282 321 C282 398 308 510 521 510 L1099 510 L1134 700 L540 700 C194 700 57 507 57 296 C57 130 158 0 426 0 L1009 0 L1042 190 L460 190 C315 190 282 247 282 321 L282 321 Z " />
<glyph glyph-name="uni0422" unicode="&#x422;" horiz-adv-x="1136" d="M49 510 L494 510 L404 0 L611 0 L703 510 L1147 510 L1182 700 L85 700 L49 510 Z " />
<glyph glyph-name="uni0423" unicode="&#x423;" horiz-adv-x="1212" d="M472 0 L1291 700 L981 700 L615 361 L344 700 L58 700 L459 238 L160 0 L472 0 Z " />
<glyph glyph-name="uni0424" unicode="&#x424;" horiz-adv-x="1252" d="M814 62 C1109 62 1217 216 1217 394 C1217 526 1126 638 912 638 L783 638 L803 750 L596 750 L576 638 L443 638 C150 638 41 479 41 303 C41 169 132 62 346 62 L473 62 L453 -50 L660 -50 L680 62 L814 62 Z M884 448 C980 448 992 407 992 360 C992 300 928 252 827 252 L716 252 L749 448 L884 448 Z M268 339 C268 397 329 448 431 448 L540 448 L507 252 L374 252 C279 252 268 290 268 339 L268 339 Z " />
<glyph glyph-name="uni0425" unicode="&#x425;" horiz-adv-x="1177" d="M71 700 L437 352 L-59 0 L283 0 L584 241 L799 0 L1119 0 L749 352 L1239 700 L896 700 L599 463 L390 700 L71 700 Z " />
<glyph glyph-name="uni0426" unicode="&#x426;" horiz-adv-x="1245" d="M876 190 L292 190 L382 700 L173 700 L48 0 L924 0 L896 -150 L1105 -150 L1168 190 L1085 190 L1175 700 L966 700 L876 190 Z " />
<glyph glyph-name="uni0427" unicode="&#x427;" horiz-adv-x="1176" d="M115 699 L68 441 C42 306 89 207 292 207 L836 207 L798 -1 L1007 -1 L1134 699 L925 699 L870 398 L322 398 C278 398 270 412 278 451 L324 699 L115 699 Z " />
<glyph glyph-name="uni0428" unicode="&#x428;" horiz-adv-x="1534" d="M1193 190 L845 190 L935 700 L728 700 L636 190 L292 190 L382 700 L173 700 L48 0 L1367 0 L1493 700 L1284 700 L1193 190 Z " />
<glyph glyph-name="uni0429" unicode="&#x429;" horiz-adv-x="1528" d="M1159 190 L828 190 L918 700 L711 700 L619 190 L292 190 L382 700 L173 700 L48 0 L1207 0 L1179 -150 L1388 -150 L1451 190 L1368 190 L1458 700 L1249 700 L1159 190 Z " />
<glyph glyph-name="uni042A" unicode="&#x42a;" horiz-adv-x="1299" d="M591 700 L85 700 L49 510 L346 510 L257 0 L922 0 C1166 0 1265 123 1265 281 C1265 394 1198 485 1008 485 L554 485 L591 700 Z M518 295 L968 295 C1033 295 1046 277 1046 250 C1046 219 1023 190 952 190 L502 190 L518 295 Z " />
<glyph glyph-name="uni042B" unicode="&#x42b;" horiz-adv-x="1571" d="M345 485 L382 700 L173 700 L48 0 L771 0 C1015 0 1114 123 1114 281 C1114 394 1047 485 857 485 L345 485 Z M309 295 L817 295 C882 295 895 277 895 250 C895 219 872 190 801 190 L293 190 L309 295 Z M1195 0 L1404 0 L1529 700 L1320 700 L1195 0 Z " />
<glyph glyph-name="uni042C" unicode="&#x42c;" horiz-adv-x="1147" d="M345 485 L382 700 L173 700 L48 0 L771 0 C1015 0 1114 123 1114 281 C1114 394 1047 485 857 485 L345 485 Z M309 295 L817 295 C882 295 895 277 895 250 C895 219 872 190 801 190 L293 190 L309 295 Z " />
<glyph glyph-name="uni042D" unicode="&#x42d;" horiz-adv-x="1136" d="M150 265 L828 265 C797 222 737 190 618 190 L40 190 L6 0 L599 0 C945 0 1083 193 1083 404 C1083 570 982 700 714 700 L131 700 L97 510 L679 510 C786 510 832 480 851 434 L182 434 L150 265 Z " />
<glyph glyph-name="uni042E" unicode="&#x42e;" horiz-adv-x="1803" d="M1247 -10 C1610 -10 1750 175 1750 403 C1750 577 1643 710 1371 710 L1118 710 C838 710 691 601 636 445 L336 445 L382 700 L173 700 L48 0 L257 0 L300 255 L615 255 C633 102 746 -10 995 -10 L1247 -10 Z M1035 180 C881 180 838 240 838 319 C838 408 877 520 1103 520 L1329 520 C1481 520 1525 459 1525 380 C1525 283 1477 180 1261 180 L1035 180 Z " />
<glyph glyph-name="uni042F" unicode="&#x42f;" horiz-adv-x="1229" d="M1188 700 L475 700 C234 700 129 579 129 423 C129 333 175 256 289 227 L-65 0 L276 0 L596 218 L894 218 L853 0 L1062 0 L1188 700 Z M350 444 C350 481 372 510 449 510 L945 510 L926 401 L426 401 C363 401 350 420 350 444 L350 444 Z " />
<glyph glyph-name="uni0430" unicode="&#x430;" horiz-adv-x="1063" d="M785 0 L1005 0 L670 560 L475 560 L-59 0 L175 0 L256 88 L734 88 L785 0 Z M551 408 L653 227 L385 227 L551 408 Z " />
<glyph glyph-name="uni0431" unicode="&#x431;" horiz-adv-x="1016" d="M38 0 L678 0 C875 0 940 92 940 204 C940 288 884 346 741 346 L285 346 L293 400 L923 400 L954 560 L139 560 L38 0 Z M262 213 L707 213 C741 213 747 199 747 190 C747 179 738 159 698 159 L252 159 L262 213 Z " />
<glyph glyph-name="uni0432" unicode="&#x432;" horiz-adv-x="1037" d="M38 0 L726 0 C890 0 947 86 947 174 C947 229 920 274 856 294 C919 327 952 379 952 442 C952 510 910 560 795 560 L137 560 L38 0 Z M251 159 L259 211 L712 211 C747 211 753 203 753 193 C753 175 743 159 702 159 L251 159 Z M710 400 C745 400 751 392 751 382 C751 364 741 348 700 348 L284 348 L292 400 L710 400 Z " />
<glyph glyph-name="uni0433" unicode="&#x433;" horiz-adv-x="943" d="M38 0 L223 0 L292 400 L922 400 L952 560 L137 560 L38 0 Z " />
<glyph glyph-name="uni0434" unicode="&#x434;" horiz-adv-x="1039" d="M157 0 L747 0 L724 -120 L909 -120 L960 159 L889 159 L960 560 L288 560 L172 197 C164 170 149 159 113 159 L-1 159 L-51 -120 L134 -120 L157 0 Z M419 400 L746 400 L705 159 L325 159 C347 181 362 216 373 248 L419 400 Z " />
<glyph glyph-name="uni0435" unicode="&#x435;" horiz-adv-x="989" d="M38 0 L869 0 L897 159 L251 159 L259 211 L820 211 L845 348 L284 348 L292 400 L938 400 L968 560 L137 560 L38 0 Z " />
<glyph glyph-name="uni0436" unicode="&#x436;" horiz-adv-x="1355" d="M1023 281 L1344 560 L1096 560 L884 360 L775 360 L808 560 L627 560 L592 360 L485 360 L342 560 L94 560 L314 281 L-46 0 L219 0 L455 200 L561 200 L527 0 L709 0 L745 200 L852 200 L1019 0 L1286 0 L1023 281 Z " />
<glyph glyph-name="uni0437" unicode="&#x437;" horiz-adv-x="1040" d="M717 211 C752 211 758 203 758 193 C758 175 748 159 707 159 L20 159 L-8 0 L731 0 C895 0 951 86 951 174 C951 229 925 274 861 294 C924 327 957 379 957 442 C957 510 913 560 800 560 L110 560 L80 400 L714 400 C750 400 756 395 756 385 C756 373 746 348 703 348 L143 348 L116 211 L717 211 Z " />
<glyph glyph-name="uni0438" unicode="&#x438;" horiz-adv-x="1083" d="M803 353 L742 0 L926 0 L1025 560 L838 560 L261 206 L322 560 L137 560 L38 0 L224 0 L803 353 Z " />
<glyph glyph-name="uni0439" unicode="&#x439;" horiz-adv-x="1083" d="M612 756 C558 756 537 778 541 809 L430 809 C419 727 436 630 592 630 C748 630 800 724 821 809 L707 809 C697 778 665 756 612 756 L612 756 Z M803 353 L742 0 L926 0 L1025 560 L838 560 L261 206 L322 560 L137 560 L38 0 L224 0 L803 353 Z " />
<glyph glyph-name="uni043A" unicode="&#x43a;" horiz-adv-x="1078" d="M640 285 L1036 560 L739 560 L475 360 L287 360 L322 560 L137 560 L38 0 L223 0 L258 200 L471 200 L723 0 L1018 0 L640 285 Z " />
<glyph glyph-name="uni043B" unicode="&#x43b;" horiz-adv-x="1048" d="M990 560 L288 560 L175 202 C164 169 134 159 105 159 L-1 159 L-28 0 L94 0 C242 0 316 72 348 172 L419 400 L776 400 L706 0 L891 0 L990 560 Z " />
<glyph glyph-name="uni043C" unicode="&#x43c;" horiz-adv-x="1205" d="M960 560 L578 249 L303 560 L137 560 L38 0 L223 0 L277 317 L544 9 L918 317 L863 0 L1048 0 L1147 560 L960 560 Z " />
<glyph glyph-name="uni043D" unicode="&#x43d;" horiz-adv-x="1078" d="M736 0 L921 0 L1020 560 L835 560 L801 360 L287 360 L322 560 L137 560 L38 0 L223 0 L258 200 L769 200 L736 0 Z " />
<glyph glyph-name="uni043E" unicode="&#x43e;" horiz-adv-x="1105" d="M625 -8 C930 -8 1040 152 1045 326 C1049 461 963 568 729 568 L460 568 C155 568 44 408 41 234 C37 99 121 -8 356 -8 L625 -8 Z M388 151 C264 151 236 196 237 253 C238 322 294 408 430 408 L698 408 C819 408 849 364 849 306 C849 240 791 151 656 151 L388 151 Z " />
<glyph glyph-name="uni043F" unicode="&#x43f;" horiz-adv-x="1078" d="M736 0 L921 0 L1020 560 L137 560 L38 0 L223 0 L292 400 L806 400 L736 0 Z " />
<glyph glyph-name="uni0440" unicode="&#x440;" horiz-adv-x="995" d="M38 0 L223 0 L251 168 L684 168 C897 168 972 278 972 392 C972 485 916 560 755 560 L137 560 L38 0 Z M720 400 C769 400 776 388 776 371 C776 353 768 328 707 328 L280 328 L292 400 L720 400 Z " />
<glyph glyph-name="uni0441" unicode="&#x441;" horiz-adv-x="971" d="M238 253 C238 330 306 400 437 400 L923 400 L954 560 L449 560 C148 560 41 400 41 232 C41 102 123 0 348 0 L853 0 L882 159 L368 159 C268 159 238 192 238 253 L238 253 Z " />
<glyph glyph-name="uni0442" unicode="&#x442;" horiz-adv-x="995" d="M40 400 L416 400 L346 0 L531 0 L600 400 L974 400 L1004 560 L71 560 L40 400 Z " />
<glyph glyph-name="uni0443" unicode="&#x443;" horiz-adv-x="1030" d="M397 0 L1082 560 L806 560 L515 299 L285 560 L32 560 L374 194 L121 0 L397 0 Z " />
<glyph glyph-name="uni0444" unicode="&#x444;" horiz-adv-x="1080" d="M693 50 C948 50 1031 177 1031 318 C1031 424 962 510 774 510 L664 510 L680 600 L495 600 L479 510 L369 510 C119 510 31 380 31 241 C31 133 100 50 288 50 L397 50 L380 -40 L565 -40 L582 50 L693 50 Z M748 350 C819 350 834 327 834 295 C834 253 796 209 715 209 L611 209 L634 350 L748 350 Z M311 209 C240 209 227 233 227 264 C227 306 266 350 346 350 L450 350 L427 209 L311 209 Z " />
<glyph glyph-name="uni0445" unicode="&#x445;" horiz-adv-x="1014" d="M50 560 L361 282 L-53 0 L249 0 L492 184 L671 0 L949 0 L634 282 L1045 560 L742 560 L505 378 L329 560 L50 560 Z " />
<glyph glyph-name="uni0446" unicode="&#x446;" horiz-adv-x="1069" d="M735 159 L251 159 L322 560 L137 560 L38 0 L777 0 L754 -120 L939 -120 L990 159 L919 159 L990 560 L805 560 L735 159 Z " />
<glyph glyph-name="uni0447" unicode="&#x447;" horiz-adv-x="1012" d="M224 162 L697 162 L668 -1 L853 -1 L954 559 L769 559 L728 321 L259 321 C239 321 232 336 236 360 L271 559 L86 559 L49 345 C28 237 70 162 224 162 L224 162 Z " />
<glyph glyph-name="uni0448" unicode="&#x448;" horiz-adv-x="1318" d="M1006 159 L719 159 L791 560 L606 560 L536 159 L251 159 L322 560 L137 560 L38 0 L1161 0 L1260 560 L1076 560 L1006 159 Z " />
<glyph glyph-name="uni0449" unicode="&#x449;" horiz-adv-x="1310" d="M976 159 L705 159 L776 560 L591 560 L521 159 L251 159 L322 560 L137 560 L38 0 L1018 0 L995 -120 L1180 -120 L1231 159 L1160 159 L1231 560 L1046 560 L976 159 Z " />
<glyph glyph-name="uni044A" unicode="&#x44a;" horiz-adv-x="1133" d="M224 0 L792 0 C1005 0 1080 110 1080 224 C1080 317 1022 392 862 392 L478 392 L508 560 L71 560 L40 400 L293 400 L224 0 Z M449 232 L828 232 C876 232 884 219 884 202 C884 184 873 159 815 159 L437 159 L449 232 Z " />
<glyph glyph-name="uni044B" unicode="&#x44b;" horiz-adv-x="1375" d="M38 0 L655 0 C868 0 943 110 943 224 C943 317 885 392 725 392 L292 392 L322 560 L137 560 L38 0 Z M678 159 L251 159 L263 232 L691 232 C739 232 747 219 747 202 C747 184 736 159 678 159 L678 159 Z M1033 0 L1218 0 L1317 560 L1132 560 L1033 0 Z " />
<glyph glyph-name="uni044C" unicode="&#x44c;" horiz-adv-x="995" d="M38 0 L655 0 C868 0 943 110 943 224 C943 317 885 392 725 392 L292 392 L322 560 L137 560 L38 0 Z M678 159 L251 159 L263 232 L691 232 C739 232 747 219 747 202 C747 184 736 159 678 159 L678 159 Z " />
<glyph glyph-name="uni044D" unicode="&#x44d;" horiz-adv-x="972" d="M124 211 L678 211 C642 180 587 159 516 159 L30 159 L-1 0 L504 0 C805 0 912 160 912 328 C912 458 830 560 605 560 L100 560 L71 400 L585 400 C660 400 696 382 709 348 L149 348 L124 211 Z " />
<glyph glyph-name="uni044E" unicode="&#x44e;" horiz-adv-x="1543" d="M1063 -8 C1368 -8 1478 152 1483 326 C1487 461 1401 568 1167 568 L938 568 C709 568 589 478 543 360 L287 360 L322 560 L137 560 L38 0 L223 0 L258 200 L519 200 C530 80 618 -8 834 -8 L1063 -8 Z M866 151 C742 151 714 196 715 253 C716 322 772 408 908 408 L1136 408 C1257 408 1287 364 1287 306 C1287 240 1229 151 1094 151 L866 151 Z " />
<glyph glyph-name="uni044F" unicode="&#x44f;" horiz-adv-x="1061" d="M1005 560 L390 560 C179 560 102 450 102 331 C102 258 151 199 246 178 L-56 0 L249 0 L524 171 L749 171 L720 0 L904 0 L1005 560 Z M790 400 L777 325 L357 325 C306 325 297 341 297 355 C297 374 311 400 369 400 L790 400 Z " />
<glyph glyph-name="uni0450" unicode="&#x450;" horiz-adv-x="989" d="M38 0 L869 0 L897 159 L251 159 L259 211 L820 211 L845 348 L284 348 L292 400 L938 400 L968 560 L137 560 L38 0 Z M608 806 L389 806 L537 635 L666 635 L608 806 Z " />
<glyph glyph-name="uni0451" unicode="&#x451;" horiz-adv-x="989" d="M38 0 L869 0 L897 159 L251 159 L259 211 L820 211 L845 348 L284 348 L292 400 L938 400 L968 560 L137 560 L38 0 Z M315 628 L495 628 L529 809 L348 809 L315 628 Z M615 628 L795 628 L827 809 L645 809 L615 628 Z " />
<glyph glyph-name="uni0452" unicode="&#x452;" horiz-adv-x="1133" d="M598 0 L815 0 C1012 0 1077 92 1077 204 C1077 287 1022 346 878 346 L471 346 L479 400 L815 400 L846 560 L73 560 L43 400 L296 400 L224 -1 L409 -1 L448 213 L844 213 C878 213 884 199 884 190 C884 179 875 159 835 159 L629 159 L598 0 Z " />
<glyph glyph-name="uni0453" unicode="&#x453;" horiz-adv-x="943" d="M449 635 L590 635 L802 806 L568 806 L449 635 Z M38 0 L223 0 L292 400 L922 400 L952 560 L137 560 L38 0 Z " />
<glyph glyph-name="uni0454" unicode="&#x454;" horiz-adv-x="972" d="M804 211 L829 348 L276 348 C310 380 365 400 437 400 L923 400 L954 560 L449 560 C148 560 41 400 41 232 C41 102 123 0 348 0 L853 0 L882 159 L368 159 C294 159 256 176 242 211 L804 211 Z " />
<glyph glyph-name="uni0455" unicode="&#x455;" horiz-adv-x="988" d="M669 159 L53 159 L25 0 L649 0 C846 0 911 92 911 204 C911 287 856 346 712 346 L292 346 C257 346 251 360 251 369 C251 381 258 400 298 400 L914 400 L945 560 L321 560 C121 560 58 467 58 357 C58 273 111 213 257 213 L678 213 C713 213 718 199 718 190 C718 179 709 159 669 159 L669 159 Z " />
<glyph glyph-name="uni0456" unicode="&#x456;" horiz-adv-x="380" d="M38 0 L223 0 L322 560 L137 560 L38 0 Z " />
<glyph glyph-name="uni0457" unicode="&#x457;" horiz-adv-x="380" d="M38 0 L223 0 L322 560 L137 560 L38 0 Z M-3 628 L177 628 L211 809 L30 809 L-3 628 Z M297 628 L477 628 L509 809 L327 809 L297 628 Z " />
<glyph glyph-name="uni0458" unicode="&#x458;" horiz-adv-x="997" d="M244 -4 L560 -4 C773 -4 874 84 902 242 L959 560 L774 560 L719 260 C706 185 657 155 571 155 L254 155 C189 155 185 186 190 220 L201 277 L18 277 L9 220 C-12 97 36 -4 244 -4 L244 -4 Z " />
<glyph glyph-name="uni0459" unicode="&#x459;" horiz-adv-x="1547" d="M924 560 L288 560 L175 202 C164 169 134 159 105 159 L-1 159 L-28 0 L94 0 C242 0 316 72 348 172 L419 400 L710 400 L640 0 L1207 0 C1420 0 1495 110 1495 224 C1495 317 1437 392 1277 392 L894 392 L924 560 Z M866 232 L1243 232 C1291 232 1299 219 1299 202 C1299 184 1288 159 1230 159 L853 159 L866 232 Z " />
<glyph glyph-name="uni045A" unicode="&#x45a;" horiz-adv-x="1550" d="M643 0 L1210 0 C1423 0 1498 110 1498 224 C1498 317 1440 392 1280 392 L897 392 L927 560 L742 560 L714 392 L292 392 L322 560 L137 560 L38 0 L223 0 L263 232 L683 232 L643 0 Z M869 232 L1246 232 C1294 232 1302 219 1302 202 C1302 184 1291 159 1233 159 L856 159 L869 232 Z " />
<glyph glyph-name="uni045B" unicode="&#x45b;" horiz-adv-x="1149" d="M862 186 C880 186 889 171 883 147 L856 -1 L1041 -1 L1072 162 C1091 270 1051 345 897 345 L470 345 L478 400 L814 400 L844 560 L71 560 L40 400 L293 400 L222 -1 L405 -1 L441 186 L862 186 Z " />
<glyph glyph-name="uni045C" unicode="&#x45c;" horiz-adv-x="1078" d="M414 635 L555 635 L767 806 L533 806 L414 635 Z M640 285 L1036 560 L739 560 L475 360 L287 360 L322 560 L137 560 L38 0 L223 0 L258 200 L471 200 L723 0 L1018 0 L640 285 Z " />
<glyph glyph-name="uni045D" unicode="&#x45d;" horiz-adv-x="1083" d="M645 806 L426 806 L574 635 L703 635 L645 806 Z M803 353 L742 0 L926 0 L1025 560 L838 560 L261 206 L322 560 L137 560 L38 0 L224 0 L803 353 Z " />
<glyph glyph-name="uni045E" unicode="&#x45e;" horiz-adv-x="1030" d="M602 756 C548 756 527 778 531 809 L420 809 C409 727 426 630 582 630 C738 630 790 724 811 809 L697 809 C687 778 655 756 602 756 L602 756 Z M397 0 L1082 560 L806 560 L515 299 L285 560 L32 560 L374 194 L121 0 L397 0 Z " />
<glyph glyph-name="uni045F" unicode="&#x45f;" horiz-adv-x="1078" d="M765 159 L251 159 L322 560 L137 560 L38 0 L388 0 L364 -120 L549 -120 L572 0 L921 0 L1020 560 L835 560 L765 159 Z " />
<glyph glyph-name="uni0490" unicode="&#x490;" horiz-adv-x="1083" d="M921 700 L173 700 L48 0 L257 0 L346 510 L1094 510 L1156 850 L947 850 L921 700 Z " />
<glyph glyph-name="uni0491" unicode="&#x491;" horiz-adv-x="943" d="M767 560 L137 560 L38 0 L223 0 L292 400 L922 400 L973 680 L788 680 L767 560 Z " />
<glyph glyph-name="uni1E00" unicode="&#x1e00;" horiz-adv-x="1244" d="M943 0 L1186 0 L798 700 L580 700 L-60 0 L203 0 L295 104 L887 104 L943 0 Z M664 518 L794 274 L447 274 L664 518 Z M394 -168 C394 -231 442 -281 522 -281 C610 -281 674 -224 674 -150 C674 -87 625 -39 546 -39 C458 -39 394 -96 394 -168 L394 -168 Z M508 -162 C508 -146 521 -134 537 -134 C549 -134 560 -145 560 -158 C560 -174 546 -185 530 -185 C516 -185 508 -174 508 -162 L508 -162 Z " />
<glyph glyph-name="uni1E01" unicode="&#x1e01;" horiz-adv-x="1063" d="M785 0 L1005 0 L670 560 L475 560 L-59 0 L175 0 L256 88 L734 88 L785 0 Z M551 408 L653 227 L385 227 L551 408 Z M303 -168 C303 -231 351 -281 431 -281 C519 -281 583 -224 583 -150 C583 -87 534 -39 455 -39 C367 -39 303 -96 303 -168 L303 -168 Z M417 -162 C417 -146 430 -134 446 -134 C458 -134 469 -145 469 -158 C469 -174 455 -185 439 -185 C425 -185 417 -174 417 -162 L417 -162 Z " />
<glyph glyph-name="uni1E02" unicode="&#x1e02;" horiz-adv-x="1208" d="M48 0 L851 0 C1043 0 1117 106 1117 222 C1117 287 1090 343 1015 366 C1094 406 1130 475 1130 554 C1130 636 1076 700 939 700 L173 700 L48 0 Z M840 265 C890 265 900 248 900 232 C900 216 885 190 830 190 L291 190 L302 265 L840 265 Z M903 480 C903 461 888 434 831 434 L334 434 L346 510 L845 510 C894 510 903 498 903 480 L903 480 Z M566 768 L744 768 L778 949 L600 949 L566 768 Z " />
<glyph glyph-name="uni1E03" unicode="&#x1e03;" horiz-adv-x="1037" d="M38 0 L726 0 C890 0 947 86 947 174 C947 229 920 274 856 294 C919 327 952 379 952 442 C952 510 910 560 795 560 L137 560 L38 0 Z M251 159 L259 211 L712 211 C747 211 753 203 753 193 C753 175 743 159 702 159 L251 159 Z M710 400 C745 400 751 392 751 382 C751 364 741 348 700 348 L284 348 L292 400 L710 400 Z M457 628 L635 628 L669 809 L491 809 L457 628 Z " />
<glyph glyph-name="uni1E04" unicode="&#x1e04;" horiz-adv-x="1208" d="M48 0 L851 0 C1043 0 1117 106 1117 222 C1117 287 1090 343 1015 366 C1094 406 1130 475 1130 554 C1130 636 1076 700 939 700 L173 700 L48 0 Z M840 265 C890 265 900 248 900 232 C900 216 885 190 830 190 L291 190 L302 265 L840 265 Z M903 480 C903 461 888 434 831 434 L334 434 L346 510 L845 510 C894 510 903 498 903 480 L903 480 Z M425 -253 L603 -253 L637 -72 L459 -72 L425 -253 Z " />
<glyph glyph-name="uni1E05" unicode="&#x1e05;" horiz-adv-x="1037" d="M38 0 L726 0 C890 0 947 86 947 174 C947 229 920 274 856 294 C919 327 952 379 952 442 C952 510 910 560 795 560 L137 560 L38 0 Z M251 159 L259 211 L712 211 C747 211 753 203 753 193 C753 175 743 159 702 159 L251 159 Z M710 400 C745 400 751 392 751 382 C751 364 741 348 700 348 L284 348 L292 400 L710 400 Z M338 -253 L516 -253 L550 -72 L372 -72 L338 -253 Z " />
<glyph glyph-name="uni1E06" unicode="&#x1e06;" horiz-adv-x="1208" d="M48 0 L851 0 C1043 0 1117 106 1117 222 C1117 287 1090 343 1015 366 C1094 406 1130 475 1130 554 C1130 636 1076 700 939 700 L173 700 L48 0 Z M840 265 C890 265 900 248 900 232 C900 216 885 190 830 190 L291 190 L302 265 L840 265 Z M903 480 C903 461 888 434 831 434 L334 434 L346 510 L845 510 C894 510 903 498 903 480 L903 480 Z M330 -227 L709 -227 L732 -96 L353 -96 L330 -227 Z " />
<glyph glyph-name="uni1E07" unicode="&#x1e07;" horiz-adv-x="1037" d="M38 0 L726 0 C890 0 947 86 947 174 C947 229 920 274 856 294 C919 327 952 379 952 442 C952 510 910 560 795 560 L137 560 L38 0 Z M251 159 L259 211 L712 211 C747 211 753 203 753 193 C753 175 743 159 702 159 L251 159 Z M710 400 C745 400 751 392 751 382 C751 364 741 348 700 348 L284 348 L292 400 L710 400 Z M243 -227 L622 -227 L645 -96 L266 -96 L243 -227 Z " />
<glyph glyph-name="uni1E08" unicode="&#x1e08;" horiz-adv-x="1136" d="M446 -151 L493 -151 C531 -151 550 -156 550 -175 C550 -211 501 -215 456 -215 C421 -215 390 -204 375 -189 L357 -279 C385 -294 433 -310 487 -309 C583 -307 687 -281 687 -167 C687 -95 618 -65 550 -72 L583 0 L1009 0 L1042 190 L460 190 C315 190 282 247 282 321 C282 398 308 510 521 510 L1099 510 L1134 700 L540 700 C194 700 57 507 57 296 C57 130 158 0 426 0 L513 0 L446 -151 Z M576 775 L717 775 L929 946 L695 946 L576 775 Z " />
<glyph glyph-name="uni1E09" unicode="&#x1e09;" horiz-adv-x="971" d="M355 -151 L402 -151 C440 -151 459 -156 459 -175 C459 -211 410 -215 365 -215 C330 -215 299 -204 284 -189 L266 -279 C294 -294 342 -310 396 -309 C492 -307 596 -281 596 -167 C596 -95 527 -65 459 -72 L492 0 L853 0 L882 159 L368 159 C268 159 238 192 238 253 C238 330 306 400 437 400 L923 400 L954 560 L449 560 C148 560 41 400 41 232 C41 102 123 0 348 0 L422 0 L355 -151 Z M461 635 L602 635 L814 806 L580 806 L461 635 Z " />
<glyph glyph-name="uni1E0A" unicode="&#x1e0a;" horiz-adv-x="1204" d="M48 0 L667 0 C1011 0 1150 193 1150 404 C1150 570 1049 700 781 700 L173 700 L48 0 Z M746 510 C891 510 925 453 925 378 C925 301 898 190 685 190 L288 190 L344 510 L746 510 Z M574 768 L752 768 L786 949 L608 949 L574 768 Z " />
<glyph glyph-name="uni1E0B" unicode="&#x1e0b;" horiz-adv-x="1034" d="M38 0 L567 0 C868 0 975 160 975 328 C975 457 891 560 668 560 L139 560 L38 0 Z M648 400 C748 400 778 367 778 307 C778 229 708 159 577 159 L252 159 L293 400 L648 400 Z M471 628 L649 628 L683 809 L505 809 L471 628 Z " />
<glyph glyph-name="uni1E0C" unicode="&#x1e0c;" horiz-adv-x="1204" d="M48 0 L667 0 C1011 0 1150 193 1150 404 C1150 570 1049 700 781 700 L173 700 L48 0 Z M746 510 C891 510 925 453 925 378 C925 301 898 190 685 190 L288 190 L344 510 L746 510 Z M394 -253 L572 -253 L606 -72 L428 -72 L394 -253 Z " />
<glyph glyph-name="uni1E0D" unicode="&#x1e0d;" horiz-adv-x="1034" d="M38 0 L567 0 C868 0 975 160 975 328 C975 457 891 560 668 560 L139 560 L38 0 Z M648 400 C748 400 778 367 778 307 C778 229 708 159 577 159 L252 159 L293 400 L648 400 Z M315 -253 L493 -253 L527 -72 L349 -72 L315 -253 Z " />
<glyph glyph-name="uni1E0E" unicode="&#x1e0e;" horiz-adv-x="1204" d="M48 0 L667 0 C1011 0 1150 193 1150 404 C1150 570 1049 700 781 700 L173 700 L48 0 Z M746 510 C891 510 925 453 925 378 C925 301 898 190 685 190 L288 190 L344 510 L746 510 Z M299 -227 L678 -227 L701 -96 L322 -96 L299 -227 Z " />
<glyph glyph-name="uni1E0F" unicode="&#x1e0f;" horiz-adv-x="1034" d="M38 0 L567 0 C868 0 975 160 975 328 C975 457 891 560 668 560 L139 560 L38 0 Z M648 400 C748 400 778 367 778 307 C778 229 708 159 577 159 L252 159 L293 400 L648 400 Z M220 -227 L599 -227 L622 -96 L243 -96 L220 -227 Z " />
<glyph glyph-name="uni1E10" unicode="&#x1e10;" horiz-adv-x="1204" d="M48 0 L667 0 C1011 0 1150 193 1150 404 C1150 570 1049 700 781 700 L173 700 L48 0 Z M746 510 C891 510 925 453 925 378 C925 301 898 190 685 190 L288 190 L344 510 L746 510 Z M407 -253 L466 -253 L354 -401 L442 -401 L585 -236 L613 -72 L439 -72 L407 -253 Z " />
<glyph glyph-name="uni1E11" unicode="&#x1e11;" horiz-adv-x="1034" d="M38 0 L567 0 C868 0 975 160 975 328 C975 457 891 560 668 560 L139 560 L38 0 Z M648 400 C748 400 778 367 778 307 C778 229 708 159 577 159 L252 159 L293 400 L648 400 Z M328 -253 L387 -253 L275 -401 L363 -401 L506 -236 L534 -72 L360 -72 L328 -253 Z " />
<glyph glyph-name="uni1E12" unicode="&#x1e12;" horiz-adv-x="1204" d="M48 0 L667 0 C1011 0 1150 193 1150 404 C1150 570 1049 700 781 700 L173 700 L48 0 Z M746 510 C891 510 925 453 925 378 C925 301 898 190 685 190 L288 190 L344 510 L746 510 Z M265 -246 L401 -246 L499 -173 L571 -246 L700 -246 L630 -75 L397 -75 L265 -246 Z " />
<glyph glyph-name="uni1E13" unicode="&#x1e13;" horiz-adv-x="1034" d="M38 0 L567 0 C868 0 975 160 975 328 C975 457 891 560 668 560 L139 560 L38 0 Z M648 400 C748 400 778 367 778 307 C778 229 708 159 577 159 L252 159 L293 400 L648 400 Z M186 -246 L322 -246 L420 -173 L492 -246 L621 -246 L551 -75 L318 -75 L186 -246 Z " />
<glyph glyph-name="uni1E14" unicode="&#x1e14;" horiz-adv-x="1150" d="M48 0 L1024 0 L1059 190 L292 190 L302 265 L971 265 L1003 434 L334 434 L346 510 L1113 510 L1149 700 L173 700 L48 0 Z M747 1152 L528 1152 L676 981 L805 981 L747 1152 Z M476 794 L855 794 L878 925 L499 925 L476 794 Z " />
<glyph glyph-name="uni1E15" unicode="&#x1e15;" horiz-adv-x="989" d="M38 0 L869 0 L897 159 L251 159 L259 211 L820 211 L845 348 L284 348 L292 400 L938 400 L968 560 L137 560 L38 0 Z M644 1012 L425 1012 L573 841 L702 841 L644 1012 Z M372 654 L751 654 L774 785 L395 785 L372 654 Z " />
<glyph glyph-name="uni1E16" unicode="&#x1e16;" horiz-adv-x="1150" d="M48 0 L1024 0 L1059 190 L292 190 L302 265 L971 265 L1003 434 L334 434 L346 510 L1113 510 L1149 700 L173 700 L48 0 Z M580 981 L721 981 L933 1152 L699 1152 L580 981 Z M476 794 L855 794 L878 925 L499 925 L476 794 Z " />
<glyph glyph-name="uni1E17" unicode="&#x1e17;" horiz-adv-x="989" d="M38 0 L869 0 L897 159 L251 159 L259 211 L820 211 L845 348 L284 348 L292 400 L938 400 L968 560 L137 560 L38 0 Z M477 841 L618 841 L830 1012 L596 1012 L477 841 Z M372 654 L751 654 L774 785 L395 785 L372 654 Z " />
<glyph glyph-name="uni1E18" unicode="&#x1e18;" horiz-adv-x="1150" d="M48 0 L1024 0 L1059 190 L292 190 L302 265 L971 265 L1003 434 L334 434 L346 510 L1113 510 L1149 700 L173 700 L48 0 Z M262 -246 L398 -246 L496 -173 L568 -246 L697 -246 L627 -75 L394 -75 L262 -246 Z " />
<glyph glyph-name="uni1E19" unicode="&#x1e19;" horiz-adv-x="989" d="M38 0 L869 0 L897 159 L251 159 L259 211 L820 211 L845 348 L284 348 L292 400 L938 400 L968 560 L137 560 L38 0 Z M182 -246 L318 -246 L416 -173 L488 -246 L617 -246 L547 -75 L314 -75 L182 -246 Z " />
<glyph glyph-name="uni1E1A" unicode="&#x1e1a;" horiz-adv-x="1150" d="M48 0 L1024 0 L1059 190 L292 190 L302 265 L971 265 L1003 434 L334 434 L346 510 L1113 510 L1149 700 L173 700 L48 0 Z M600 -69 C599 -94 590 -108 571 -108 C544 -108 503 -75 444 -75 C370 -75 315 -124 290 -253 L392 -253 C393 -229 399 -215 419 -215 C445 -215 486 -249 546 -249 C621 -249 675 -202 701 -69 L600 -69 Z " />
<glyph glyph-name="uni1E1B" unicode="&#x1e1b;" horiz-adv-x="989" d="M38 0 L869 0 L897 159 L251 159 L259 211 L820 211 L845 348 L284 348 L292 400 L938 400 L968 560 L137 560 L38 0 Z M520 -69 C519 -94 510 -108 491 -108 C464 -108 423 -75 364 -75 C290 -75 235 -124 210 -253 L312 -253 C313 -229 319 -215 339 -215 C365 -215 406 -249 466 -249 C541 -249 595 -202 621 -69 L520 -69 Z " />
<glyph glyph-name="uni1E1C" unicode="&#x1e1c;" horiz-adv-x="1150" d="M48 0 L483 0 L416 -151 L463 -151 C501 -151 520 -156 520 -175 C520 -211 471 -215 426 -215 C391 -215 360 -204 345 -189 L327 -279 C355 -294 403 -310 457 -309 C553 -307 657 -281 657 -167 C657 -95 588 -65 520 -72 L553 0 L1024 0 L1059 190 L292 190 L302 265 L971 265 L1003 434 L334 434 L346 510 L1113 510 L1149 700 L173 700 L48 0 Z M679 896 C625 896 604 918 608 949 L497 949 C486 867 503 770 659 770 C815 770 867 864 888 949 L774 949 C764 918 732 896 679 896 L679 896 Z " />
<glyph glyph-name="uni1E1D" unicode="&#x1e1d;" horiz-adv-x="989" d="M38 0 L404 0 L337 -151 L384 -151 C422 -151 441 -156 441 -175 C441 -211 392 -215 347 -215 C312 -215 281 -204 266 -189 L248 -279 C276 -294 324 -310 378 -309 C474 -307 578 -281 578 -167 C578 -95 509 -65 441 -72 L474 0 L869 0 L897 159 L251 159 L259 211 L820 211 L845 348 L284 348 L292 400 L938 400 L968 560 L137 560 L38 0 Z M577 756 C522 756 501 778 505 809 L395 809 C383 727 401 630 557 630 C712 630 765 724 786 809 L672 809 C661 778 630 756 577 756 L577 756 Z " />
<glyph glyph-name="uni1E1E" unicode="&#x1e1e;" horiz-adv-x="1112" d="M48 0 L257 0 L299 240 L968 240 L1002 430 L333 430 L346 510 L1113 510 L1149 700 L173 700 L48 0 Z M561 768 L739 768 L773 949 L595 949 L561 768 Z " />
<glyph glyph-name="uni1E1F" unicode="&#x1e1f;" horiz-adv-x="972" d="M38 0 L223 0 L255 187 L816 187 L845 346 L284 346 L292 400 L938 400 L968 560 L137 560 L38 0 Z M464 628 L642 628 L676 809 L498 809 L464 628 Z " />
<glyph glyph-name="uni1E20" unicode="&#x1e20;" horiz-adv-x="1205" d="M614 265 L907 265 L894 190 L460 190 C315 190 282 247 282 321 C282 398 305 510 521 510 L1099 510 L1134 700 L540 700 C194 700 57 507 57 296 C57 130 158 0 426 0 L1062 0 L1139 434 L647 434 L614 265 Z M516 794 L895 794 L918 925 L539 925 L516 794 Z " />
<glyph glyph-name="uni1E21" unicode="&#x1e21;" horiz-adv-x="1033" d="M348 0 L897 0 L957 348 L538 348 L510 211 L752 211 L746 159 L368 159 C268 159 238 192 238 253 C238 330 306 400 437 400 L922 400 L952 560 L449 560 C148 560 41 400 41 232 C41 102 123 0 348 0 L348 0 Z M394 654 L773 654 L796 785 L417 785 L394 654 Z " />
<glyph glyph-name="uni1E22" unicode="&#x1e22;" horiz-adv-x="1252" d="M876 0 L1085 0 L1210 700 L1001 700 L956 445 L336 445 L382 700 L173 700 L48 0 L257 0 L300 255 L920 255 L876 0 Z M612 768 L790 768 L824 949 L646 949 L612 768 Z " />
<glyph glyph-name="uni1E23" unicode="&#x1e23;" horiz-adv-x="1078" d="M736 0 L921 0 L1020 560 L835 560 L801 360 L287 360 L322 560 L137 560 L38 0 L223 0 L258 200 L769 200 L736 0 Z M502 628 L680 628 L714 809 L536 809 L502 628 Z " />
<glyph glyph-name="uni1E24" unicode="&#x1e24;" horiz-adv-x="1252" d="M876 0 L1085 0 L1210 700 L1001 700 L956 445 L336 445 L382 700 L173 700 L48 0 L257 0 L300 255 L920 255 L876 0 Z M432 -253 L610 -253 L644 -72 L466 -72 L432 -253 Z " />
<glyph glyph-name="uni1E25" unicode="&#x1e25;" horiz-adv-x="1078" d="M736 0 L921 0 L1020 560 L835 560 L801 360 L287 360 L322 560 L137 560 L38 0 L223 0 L258 200 L769 200 L736 0 Z M346 -253 L524 -253 L558 -72 L380 -72 L346 -253 Z " />
<glyph glyph-name="uni1E26" unicode="&#x1e26;" horiz-adv-x="1252" d="M876 0 L1085 0 L1210 700 L1001 700 L956 445 L336 445 L382 700 L173 700 L48 0 L257 0 L300 255 L920 255 L876 0 Z M459 768 L639 768 L673 949 L492 949 L459 768 Z M759 768 L939 768 L971 949 L789 949 L759 768 Z " />
<glyph glyph-name="uni1E27" unicode="&#x1e27;" horiz-adv-x="1078" d="M736 0 L921 0 L1020 560 L835 560 L801 360 L287 360 L322 560 L137 560 L38 0 L223 0 L258 200 L769 200 L736 0 Z M349 628 L529 628 L563 809 L382 809 L349 628 Z M649 628 L829 628 L861 809 L679 809 L649 628 Z " />
<glyph glyph-name="uni1E28" unicode="&#x1e28;" horiz-adv-x="1252" d="M39 -151 L86 -151 C124 -151 143 -156 143 -175 C143 -211 93 -215 49 -215 C14 -215 -18 -204 -32 -189 L-50 -279 C-22 -294 26 -310 80 -309 C175 -307 280 -281 280 -167 C280 -95 210 -65 142 -72 L175 0 L257 0 L300 255 L920 255 L876 0 L1085 0 L1210 700 L1001 700 L956 445 L336 445 L382 700 L173 700 L48 0 L105 0 L39 -151 Z " />
<glyph glyph-name="uni1E29" unicode="&#x1e29;" horiz-adv-x="1078" d="M19 -151 L66 -151 C104 -151 123 -156 123 -175 C123 -211 73 -215 29 -215 C-6 -215 -38 -204 -52 -189 L-70 -279 C-42 -294 6 -310 60 -309 C155 -307 260 -281 260 -167 C260 -95 190 -65 122 -72 L155 0 L223 0 L258 200 L769 200 L736 0 L921 0 L1020 560 L835 560 L801 360 L287 360 L322 560 L137 560 L38 0 L85 0 L19 -151 Z " />
<glyph glyph-name="uni1E2A" unicode="&#x1e2a;" horiz-adv-x="1252" d="M876 0 L1085 0 L1210 700 L1001 700 L956 445 L336 445 L382 700 L173 700 L48 0 L257 0 L300 255 L920 255 L876 0 Z M540 -125 C486 -125 465 -103 469 -72 L358 -72 C347 -154 364 -251 520 -251 C676 -251 728 -157 749 -72 L635 -72 C625 -103 593 -125 540 -125 L540 -125 Z " />
<glyph glyph-name="uni1E2B" unicode="&#x1e2b;" horiz-adv-x="1078" d="M736 0 L921 0 L1020 560 L835 560 L801 360 L287 360 L322 560 L137 560 L38 0 L223 0 L258 200 L769 200 L736 0 Z M453 -125 C399 -125 378 -103 382 -72 L271 -72 C260 -154 277 -251 433 -251 C589 -251 641 -157 662 -72 L548 -72 C538 -103 506 -125 453 -125 L453 -125 Z " />
<glyph glyph-name="uni1E2C" unicode="&#x1e2c;" horiz-adv-x="424" d="M48 0 L257 0 L382 700 L173 700 L48 0 Z M223 -69 C222 -94 213 -108 194 -108 C167 -108 126 -75 67 -75 C-7 -75 -62 -124 -87 -253 L15 -253 C16 -229 22 -215 42 -215 C68 -215 109 -249 169 -249 C244 -249 298 -202 324 -69 L223 -69 Z " />
<glyph glyph-name="uni1E2D" unicode="&#x1e2d;" horiz-adv-x="380" d="M38 0 L223 0 L322 560 L137 560 L38 0 Z M203 -69 C202 -94 193 -108 174 -108 C147 -108 106 -75 47 -75 C-27 -75 -82 -124 -107 -253 L-5 -253 C-4 -229 2 -215 22 -215 C48 -215 89 -249 149 -249 C224 -249 278 -202 304 -69 L203 -69 Z " />
<glyph glyph-name="uni1E2E" unicode="&#x1e2e;" horiz-adv-x="424" d="M48 0 L257 0 L382 700 L173 700 L48 0 Z M208 994 L349 994 L561 1165 L327 1165 L208 994 Z M42 768 L222 768 L256 949 L75 949 L42 768 Z M342 768 L522 768 L554 949 L372 949 L342 768 Z " />
<glyph glyph-name="uni1E2F" unicode="&#x1e2f;" horiz-adv-x="380" d="M163 854 L304 854 L516 1025 L282 1025 L163 854 Z M-3 628 L177 628 L211 809 L30 809 L-3 628 Z M297 628 L477 628 L509 809 L327 809 L297 628 Z M38 0 L223 0 L322 560 L137 560 L38 0 Z " />
<glyph glyph-name="uni1E30" unicode="&#x1e30;" horiz-adv-x="1251" d="M1234 700 L875 700 L317 354 L378 700 L173 700 L48 0 L253 0 L277 129 L548 291 L880 0 L1197 0 L724 395 L1234 700 Z M548 775 L689 775 L901 946 L667 946 L548 775 Z " />
<glyph glyph-name="uni1E31" unicode="&#x1e31;" horiz-adv-x="1077" d="M1049 560 L719 560 L273 292 L322 560 L137 560 L38 0 L223 0 L239 96 L463 226 L734 0 L1019 0 L621 315 L1049 560 Z M439 635 L580 635 L792 806 L558 806 L439 635 Z " />
<glyph glyph-name="uni1E32" unicode="&#x1e32;" horiz-adv-x="1251" d="M1234 700 L875 700 L317 354 L378 700 L173 700 L48 0 L253 0 L277 129 L548 291 L880 0 L1197 0 L724 395 L1234 700 Z M421 -253 L599 -253 L633 -72 L455 -72 L421 -253 Z " />
<glyph glyph-name="uni1E33" unicode="&#x1e33;" horiz-adv-x="1077" d="M1049 560 L719 560 L273 292 L322 560 L137 560 L38 0 L223 0 L239 96 L463 226 L734 0 L1019 0 L621 315 L1049 560 Z M331 -253 L509 -253 L543 -72 L365 -72 L331 -253 Z " />
<glyph glyph-name="uni1E34" unicode="&#x1e34;" horiz-adv-x="1251" d="M1234 700 L875 700 L317 354 L378 700 L173 700 L48 0 L253 0 L277 129 L548 291 L880 0 L1197 0 L724 395 L1234 700 Z M326 -227 L705 -227 L728 -96 L349 -96 L326 -227 Z " />
<glyph glyph-name="uni1E35" unicode="&#x1e35;" horiz-adv-x="1077" d="M1049 560 L719 560 L273 292 L322 560 L137 560 L38 0 L223 0 L239 96 L463 226 L734 0 L1019 0 L621 315 L1049 560 Z M236 -227 L615 -227 L638 -96 L259 -96 L236 -227 Z " />
<glyph glyph-name="uni1E36" unicode="&#x1e36;" horiz-adv-x="1083" d="M382 700 L173 700 L48 0 L1005 0 L1039 190 L292 190 L382 700 Z M391 -253 L569 -253 L603 -72 L425 -72 L391 -253 Z " />
<glyph glyph-name="uni1E37" unicode="&#x1e37;" horiz-adv-x="943" d="M322 560 L137 560 L38 0 L853 0 L881 159 L251 159 L322 560 Z M318 -253 L496 -253 L530 -72 L352 -72 L318 -253 Z " />
<glyph glyph-name="uni1E38" unicode="&#x1e38;" horiz-adv-x="1083" d="M382 700 L173 700 L48 0 L1005 0 L1039 190 L292 190 L382 700 Z M128 794 L507 794 L530 925 L151 925 L128 794 Z M391 -253 L569 -253 L603 -72 L425 -72 L391 -253 Z " />
<glyph glyph-name="uni1E39" unicode="&#x1e39;" horiz-adv-x="943" d="M322 560 L137 560 L38 0 L853 0 L881 159 L251 159 L322 560 Z M84 654 L463 654 L486 785 L107 785 L84 654 Z M318 -253 L496 -253 L530 -72 L352 -72 L318 -253 Z " />
<glyph glyph-name="uni1E3A" unicode="&#x1e3a;" horiz-adv-x="1083" d="M382 700 L173 700 L48 0 L1005 0 L1039 190 L292 190 L382 700 Z M296 -227 L675 -227 L698 -96 L319 -96 L296 -227 Z " />
<glyph glyph-name="uni1E3B" unicode="&#x1e3b;" horiz-adv-x="943" d="M322 560 L137 560 L38 0 L853 0 L881 159 L251 159 L322 560 Z M223 -227 L602 -227 L625 -96 L246 -96 L223 -227 Z " />
<glyph glyph-name="uni1E3C" unicode="&#x1e3c;" horiz-adv-x="1083" d="M382 700 L173 700 L48 0 L1005 0 L1039 190 L292 190 L382 700 Z M262 -246 L398 -246 L496 -173 L568 -246 L697 -246 L627 -75 L394 -75 L262 -246 Z " />
</font>
</svg>
