<?xml version="1.0" encoding="UTF-8"?>
<svg xmlns="http://www.w3.org/2000/svg" xmlns:xlink="http://www.w3.org/1999/xlink" version="1.2" >
<font id="Quan Rounded Black">
<font-face  font-family="Quan Rounded" units-per-em="1000" ascent="750" descent="-250" font-style="normal" font-weight="900" font-stretch="normal" cap-height="400" x-height="500" underline-position="-91" underline-thickness="35" />
<missing-glyph  horiz-adv-x="569" d="M539 0 L539 628 L30 628 L30 0 L539 0 Z M76 35 C76 41 73 45 68 46 L76 46 L76 35 L76 35 Z M493 590 C493 585 496 582 501 582 L493 582 L493 590 L493 590 Z M501 46 C496 45 493 42 493 37 L493 46 L501 46 L501 46 Z M68 582 C73 582 75 585 76 590 L76 582 L68 582 L68 582 Z M76 582 L493 582 L493 46 L76 46 L76 582 Z " />
<glyph glyph-name="space" unicode="&#x20;" horiz-adv-x="185" d="" />
<glyph glyph-name="exclam" unicode="&#x21;" horiz-adv-x="227" d="M60 218 C60 199 84 179 114 179 C144 179 167 199 168 218 L177 454 C175 485 140 500 114 500 C80 500 51 478 51 455 C51 455 50 488 60 218 L60 218 Z M173 43 C173 22 147 0 114 0 C81 0 55 22 55 43 L55 92 C55 113 81 135 114 135 C147 135 173 113 173 92 L173 43 Z " />
<glyph glyph-name="quotedbl" unicode="&#x22;" horiz-adv-x="389" d="M339 474 C339 509 312 536 277 536 C243 536 217 509 217 474 L223 391 C223 361 246 338 276 338 C307 338 331 360 331 390 L339 474 Z M172 474 C172 509 145 536 110 536 C76 536 50 509 50 474 L56 391 C56 361 79 338 109 338 C140 338 164 360 164 390 L172 474 Z " />
<glyph glyph-name="numbersign" unicode="&#x23;" horiz-adv-x="593" d="M319 229 L258 229 L273 284 L334 284 L319 229 Z M104 229 C74 229 50 205 50 175 C50 145 74 121 104 121 L87 59 C87 27 115 0 147 0 C173 0 196 19 203 43 L228 121 L288 121 L271 59 C271 27 299 0 331 0 C357 0 380 19 387 43 C396 76 401 86 412 121 L453 121 C483 121 507 145 507 175 C507 205 483 229 453 229 L441 229 L457 284 L489 284 C519 284 543 308 543 338 C543 368 519 392 489 392 L485 392 L499 442 C499 474 471 501 439 501 C413 501 390 482 383 458 L364 392 L303 392 L317 442 C317 474 289 501 257 501 C231 501 208 482 201 458 L181 392 L147 392 C117 392 93 368 93 338 C93 308 117 284 147 284 L151 284 L135 229 L104 229 Z " />
<glyph glyph-name="dollar" unicode="&#x24;" horiz-adv-x="489" d="M439 157 C439 229 366 266 296 293 L296 389 C315 387 335 384 353 380 C357 379 361 379 365 379 C396 379 422 404 422 435 C422 461 404 483 380 489 C352 496 323 501 296 503 L296 519 C296 538 273 557 244 557 C215 557 192 538 192 519 L192 501 C104 490 50 447 50 353 C50 278 123 240 192 213 L192 109 C169 115 144 123 120 134 C116 135 112 135 108 135 C77 135 51 108 51 77 C51 55 66 35 84 26 C117 10 157 2 192 -2 L192 -27 C192 -46 215 -65 244 -65 C273 -65 296 -46 296 -27 L296 -3 C372 3 439 34 439 157 L439 157 Z M169 353 C169 371 177 380 192 385 L192 331 C178 338 169 345 169 353 L169 353 Z M296 110 L296 173 C311 165 320 157 320 147 C320 128 310 117 296 110 L296 110 Z " />
<glyph glyph-name="percent" unicode="&#x25;" horiz-adv-x="657" d="M503 0 C558 0 607 21 607 88 L607 162 C607 223 555 250 503 250 C451 250 398 223 398 162 L398 88 C398 21 447 0 503 0 L503 0 Z M503 166 C515 166 517 162 517 160 L517 90 C517 87 515 85 503 85 C490 85 488 87 488 90 L488 160 C488 162 490 166 503 166 L503 166 Z M155 250 C210 250 259 271 259 338 L259 412 C259 473 207 500 155 500 C103 500 50 473 50 412 L50 338 C50 271 99 250 155 250 L155 250 Z M155 416 C167 416 169 412 169 410 L169 340 C169 337 167 335 155 335 C142 335 140 337 140 340 L140 410 C140 412 142 416 155 416 L155 416 Z M191 86 C188 79 186 71 186 62 C186 29 215 0 248 0 C272 0 294 15 303 37 L470 414 C473 421 475 429 475 438 C475 471 446 500 413 500 C389 500 368 485 358 463 L191 86 Z " />
<glyph glyph-name="ampersand" unicode="&#x26;" horiz-adv-x="524" d="M241 352 C241 377 243 391 259 391 C278 391 279 377 279 352 C279 339 264 327 249 317 C245 329 241 341 241 352 L241 352 Z M246 101 C191 101 169 110 169 149 C169 157 181 171 203 175 L268 108 C261 103 251 101 246 101 L246 101 Z M380 7 C388 3 397 0 406 0 C436 0 461 24 461 54 C461 74 451 91 435 101 C450 127 468 158 474 211 C474 240 451 263 422 263 C393 263 370 240 370 211 C367 192 362 181 354 176 C332 197 319 215 311 224 C326 232 340 241 353 252 C376 275 398 311 398 352 C398 442 375 505 259 505 C144 505 122 442 122 352 C122 325 127 296 139 271 C91 250 50 212 50 149 C50 -5 145 -5 246 -5 C281 -5 315 -4 353 20 L380 7 Z " />
<glyph glyph-name="quotesingle" unicode="&#x27;" horiz-adv-x="222" d="M172 474 C172 509 145 536 110 536 C76 536 50 509 50 474 L56 391 C56 361 79 338 109 338 C140 338 164 360 164 390 L172 474 Z " />
<glyph glyph-name="parenleft" unicode="&#x28;" horiz-adv-x="242" d="M191 8 C176 96 168 196 168 254 C168 328 168 387 190 490 C190 493 191 496 191 499 C191 532 165 558 132 558 C103 558 80 539 74 512 C53 418 50 332 50 254 C50 184 57 75 75 -14 C80 -41 104 -60 133 -60 C166 -60 192 -34 192 -1 C192 2 191 5 191 8 L191 8 Z " />
<glyph glyph-name="parenright" unicode="&#x29;" horiz-adv-x="242" d="M51 8 C51 5 50 2 50 -1 C50 -34 76 -60 109 -60 C138 -60 162 -41 167 -14 C185 75 192 184 192 254 C192 332 189 418 168 512 C162 539 139 558 110 558 C77 558 51 532 51 499 C51 496 52 493 52 490 C74 387 74 328 74 254 C74 196 66 96 51 8 L51 8 Z " />
<glyph glyph-name="asterisk" unicode="&#x2a;" horiz-adv-x="392" d="M218 275 C227 263 242 255 258 255 C287 255 310 277 310 305 C310 319 305 332 296 341 L276 362 L299 365 C323 368 342 388 342 414 C342 442 320 464 292 464 C285 464 277 463 271 460 L240 447 L246 486 C246 513 223 536 196 536 C169 536 146 513 146 486 L152 447 L121 460 C115 463 107 464 100 464 C72 464 50 442 50 414 C50 388 69 368 93 365 L116 362 L96 341 C87 332 82 319 82 305 C82 277 105 255 134 255 C150 255 165 263 174 275 L196 315 L218 275 Z " />
<glyph glyph-name="plus" unicode="&#x2b;" horiz-adv-x="486" d="M183 153 L183 56 C183 35 209 13 242 13 C275 13 301 35 301 56 L301 153 L381 153 C411 153 436 178 436 208 C436 238 411 263 381 263 L301 263 L301 361 C301 382 275 404 242 404 C209 404 183 382 183 361 L183 263 L105 263 C75 263 50 238 50 208 C50 178 75 153 105 153 L183 153 Z " />
<glyph glyph-name="comma" unicode="&#x2c;" horiz-adv-x="166" d="M143 13 C145 19 146 25 146 31 C146 64 120 90 87 90 C58 90 34 70 30 42 L20 -31 C20 -59 42 -83 72 -83 C95 -83 114 -68 121 -47 L143 13 Z " />
<glyph glyph-name="hyphen" unicode="&#x2d;" horiz-adv-x="405" d="M105 263 C75 263 50 238 50 208 C50 178 75 153 105 153 L300 153 C330 153 355 178 355 208 C355 238 330 263 300 263 L105 263 Z " />
<glyph glyph-name="period" unicode="&#x2e;" horiz-adv-x="218" d="M168 92 C168 113 142 135 109 135 C76 135 50 113 50 92 L50 43 C50 22 76 0 109 0 C142 0 168 22 168 43 L168 92 Z " />
<glyph glyph-name="slash" unicode="&#x2f;" horiz-adv-x="345" d="M52 74 C51 69 50 64 50 58 C50 26 76 0 108 0 C133 0 156 16 163 39 L293 484 C294 489 295 494 295 500 C295 532 269 558 237 558 C212 558 189 542 182 519 L52 74 Z " />
<glyph glyph-name="zero" unicode="0" horiz-adv-x="488" d="M245 505 C50 505 50 430 50 311 L50 190 C50 72 50 -5 245 -5 C438 -5 438 72 438 190 L438 311 C438 430 438 505 245 505 L245 505 Z M245 101 C173 101 169 122 169 182 L169 311 C169 370 173 391 245 391 C316 391 319 370 319 311 L319 182 C319 122 316 101 245 101 L245 101 Z " />
<glyph glyph-name="one" unicode="1" horiz-adv-x="309" d="M141 341 L141 43 C141 22 167 0 200 0 C233 0 259 22 259 43 L259 446 C259 476 235 500 205 500 C197 500 179 499 167 497 L27 408 C11 398 0 379 0 357 C0 325 26 299 58 299 C70 299 82 302 91 308 L141 341 Z " />
<glyph glyph-name="two" unicode="2" horiz-adv-x="405" d="M36 386 C35 382 35 378 35 374 C35 340 61 314 95 314 C122 314 145 329 154 351 C158 373 172 391 206 391 C258 391 261 372 261 350 C261 280 39 161 39 60 C39 26 65 0 99 0 L328 0 C356 0 381 24 381 53 C381 81 356 106 328 106 L197 106 C267 181 380 238 380 350 C380 418 377 505 206 505 C81 505 46 447 36 386 L36 386 Z " />
<glyph glyph-name="three" unicode="3" horiz-adv-x="421" d="M197 -5 C368 -5 371 84 371 153 C371 183 367 220 323 250 C369 281 371 318 371 350 C371 418 367 505 196 505 C72 505 36 447 26 386 C25 382 25 378 25 374 C25 340 51 314 85 314 C112 314 135 331 144 353 C148 375 161 391 197 391 C249 391 252 371 252 349 C252 322 251 306 200 301 C173 301 149 277 149 250 C149 223 173 200 200 200 C249 196 252 180 252 152 C252 128 250 102 198 102 C166 102 151 120 145 142 C139 169 115 188 86 188 C52 188 26 161 26 127 C26 29 118 -5 197 -5 L197 -5 Z " />
<glyph glyph-name="four" unicode="4" horiz-adv-x="397" d="M157 230 C177 258 188 276 205 298 L205 230 L157 230 Z M323 419 C323 465 288 500 242 500 C216 500 194 488 180 468 L13 235 C5 223 0 208 0 193 C0 154 31 123 70 123 L205 123 L205 43 C205 22 231 0 264 0 C297 0 323 22 323 43 L323 123 C353 123 377 146 377 176 C377 206 353 230 323 230 L323 419 Z " />
<glyph glyph-name="five" unicode="5" horiz-adv-x="429" d="M171 131 C161 151 140 165 115 165 C81 165 53 137 53 102 C61 44 91 -5 223 -5 C392 -5 395 93 395 162 C395 228 392 328 223 328 C202 328 186 328 170 323 L170 383 L323 383 C356 383 381 408 381 441 C381 474 356 500 323 500 L104 500 C75 500 50 475 50 446 L50 266 C50 225 84 191 125 191 C145 191 163 198 177 211 C188 217 211 219 223 219 C273 219 276 189 276 161 C276 134 273 101 224 101 C187 101 175 112 171 131 L171 131 Z " />
<glyph glyph-name="six" unicode="6" horiz-adv-x="406" d="M328 494 C288 502 249 505 221 505 C111 505 40 464 40 344 L40 162 C40 93 43 -5 212 -5 C383 -5 386 93 386 162 C386 230 383 322 212 322 C194 322 175 321 159 314 L159 349 C159 380 187 391 220 391 C240 391 271 388 306 381 C339 381 365 407 365 439 C365 464 350 485 328 494 L328 494 Z M159 158 C159 188 161 214 212 214 C264 214 267 188 267 161 C267 136 264 101 212 101 C162 101 159 134 159 158 L159 158 Z " />
<glyph glyph-name="seven" unicode="7" horiz-adv-x="357" d="M339 409 C342 422 342 438 342 450 C342 478 320 500 292 500 L59 500 C27 500 0 473 0 441 C0 410 27 383 59 383 L206 383 L113 78 C111 72 110 66 110 59 C110 27 137 0 169 0 C199 0 222 19 228 45 L339 409 Z " />
<glyph glyph-name="eight" unicode="8" horiz-adv-x="426" d="M213 101 C162 101 159 128 159 152 C159 176 163 195 214 195 C263 195 267 176 267 152 C267 128 264 101 213 101 L213 101 Z M213 303 C162 303 159 326 159 349 C159 371 162 391 213 391 C264 391 267 371 267 349 C267 326 264 303 213 303 L213 303 Z M213 -5 C381 -5 386 84 386 153 C386 183 383 220 339 250 C384 280 386 318 386 350 C386 418 382 505 213 505 C44 505 40 418 40 350 C40 318 43 280 87 250 C43 220 40 183 40 153 C40 84 45 -5 213 -5 L213 -5 Z " />
<glyph glyph-name="nine" unicode="9" horiz-adv-x="406" d="M73 7 C112 -1 159 -5 184 -5 C293 -5 366 38 366 157 L366 338 C366 407 363 505 192 505 C23 505 20 407 20 338 C20 270 23 180 192 180 C213 180 231 182 247 185 L247 145 C247 112 219 101 184 101 C166 101 128 105 94 112 C63 112 39 88 39 58 C39 35 53 15 73 7 L73 7 Z M247 342 C247 313 245 288 192 288 C142 288 139 313 139 339 C139 363 142 391 192 391 C244 391 247 364 247 342 L247 342 Z " />
<glyph glyph-name="colon" unicode="&#x3a;" horiz-adv-x="218" d="M168 92 C168 113 142 135 109 135 C76 135 50 113 50 92 L50 43 C50 22 76 0 109 0 C142 0 168 22 168 43 L168 92 Z M168 337 C168 358 142 380 109 380 C76 380 50 358 50 337 L50 288 C50 267 76 245 109 245 C142 245 168 267 168 288 L168 337 Z " />
<glyph glyph-name="semicolon" unicode="&#x3b;" horiz-adv-x="227" d="M177 337 C177 358 151 380 118 380 C85 380 59 358 59 337 L59 288 C59 267 85 245 118 245 C151 245 177 267 177 288 L177 337 Z M173 13 C175 19 176 25 176 31 C176 64 150 90 117 90 C88 90 64 70 60 42 L50 -31 C50 -59 72 -83 102 -83 C125 -83 144 -68 151 -47 L173 13 Z " />
<glyph glyph-name="less" unicode="&#x3c;" horiz-adv-x="446" d="M190 205 L200 205 L357 266 C380 275 396 296 396 321 C396 354 369 381 336 381 C328 381 319 379 312 376 L113 295 C76 280 50 240 50 198 C50 156 76 116 113 101 L312 20 C319 17 328 15 336 15 C369 15 396 42 396 75 C396 100 380 121 357 130 L200 191 L190 191 L190 205 Z " />
<glyph glyph-name="equal" unicode="&#x3d;" horiz-adv-x="405" d="M105 331 C75 331 50 306 50 276 C50 246 75 221 105 221 L300 221 C330 221 355 246 355 276 C355 306 330 331 300 331 L105 331 Z M105 177 C75 177 50 152 50 122 C50 92 75 67 105 67 L300 67 C330 67 355 92 355 122 C355 152 330 177 300 177 L105 177 Z " />
<glyph glyph-name="greater" unicode="&#x3e;" horiz-adv-x="446" d="M256 191 L246 191 L89 130 C66 121 50 100 50 75 C50 42 77 15 110 15 C118 15 127 17 134 20 L333 101 C370 116 396 156 396 198 C396 240 370 280 333 295 L134 376 C127 379 118 381 110 381 C77 381 50 354 50 321 C50 296 66 275 89 266 L246 205 L256 205 L256 191 Z " />
<glyph glyph-name="question" unicode="&#x3f;" horiz-adv-x="385" d="M223 43 C223 22 197 0 164 0 C131 0 105 22 105 43 L105 81 C105 102 131 124 164 124 C197 124 223 102 223 81 L223 43 Z M88 491 C65 483 50 462 50 436 C50 404 75 379 107 379 C115 379 122 381 129 383 C144 388 161 391 176 391 C208 391 216 386 216 376 C216 323 103 325 103 214 L103 192 C103 171 129 149 162 149 C195 149 221 171 221 192 L221 200 C221 267 335 264 335 376 C335 474 280 505 178 505 C152 505 119 501 88 491 L88 491 Z " />
<glyph glyph-name="at" unicode="&#x40;" horiz-adv-x="662" d="M472 63 C460 60 446 59 421 59 C424 59 382 59 279 59 C206 59 143 62 143 125 L143 360 C143 402 181 433 273 433 C366 433 383 433 383 433 C475 433 519 402 519 360 L519 194 C519 167 515 167 498 167 C483 167 475 167 475 194 L475 371 C475 392 450 413 417 413 C385 413 360 397 360 376 L353 376 C334 405 306 409 294 409 C184 409 173 348 173 275 L173 237 C173 164 204 93 293 93 C358 93 389 98 398 129 L411 129 C411 97 467 93 506 93 C535 93 612 107 612 168 L612 360 C612 460 521 516 383 516 C383 516 366 516 273 516 C135 516 50 460 50 360 L50 125 C50 14 136 -24 279 -24 C377 -24 421 -24 421 -24 C458 -24 485 -20 504 -13 C519 -7 530 7 530 24 C530 47 511 66 488 66 C484 66 476 64 472 63 L472 63 Z M360 252 C360 215 360 177 325 177 C288 177 288 215 288 252 L288 261 C288 297 288 326 316 326 C360 326 360 308 360 275 L360 252 Z " />
<glyph glyph-name="A" unicode="A" horiz-adv-x="438" d="M184 254 L219 374 L254 254 L184 254 Z M152 147 L286 147 L317 41 C326 19 349 0 374 0 C406 0 433 27 433 59 C433 63 432 71 431 75 L328 418 C314 465 269 500 219 500 C169 500 124 465 110 418 L7 75 C6 71 5 63 5 59 C5 27 32 0 64 0 C89 0 112 19 121 41 L152 147 Z " />
<glyph glyph-name="B" unicode="B" horiz-adv-x="476" d="M322 345 C322 308 291 301 265 301 L169 301 L169 386 L265 386 C291 386 322 381 322 345 L322 345 Z M265 106 L169 106 L169 195 L265 195 C291 195 322 186 322 151 C322 113 291 106 265 106 L265 106 Z M50 54 C50 25 75 0 104 0 L263 0 C357 0 441 1 441 156 C441 195 427 227 400 250 C430 271 441 299 441 344 C441 500 357 500 263 500 L104 500 C75 500 50 475 50 446 L50 54 Z " />
<glyph glyph-name="C" unicode="C" horiz-adv-x="458" d="M371 114 C328 106 281 101 255 101 C206 101 158 127 158 184 L158 319 C158 365 207 391 256 391 C282 391 325 387 365 379 C368 378 372 378 376 378 C407 378 433 404 433 435 C433 462 414 486 388 491 C340 501 287 505 258 505 C126 505 40 443 40 311 L40 190 C40 43 126 -5 258 -5 C288 -5 342 -4 393 8 C416 14 433 35 433 59 C433 88 408 115 379 115 C376 115 374 114 371 114 L371 114 Z " />
<glyph glyph-name="D" unicode="D" horiz-adv-x="484" d="M230 386 C291 386 325 362 325 314 L325 187 C325 136 286 106 230 106 L169 106 L169 386 L230 386 Z M50 54 C50 25 75 0 104 0 L228 0 C358 0 444 47 444 193 L444 305 C444 453 358 500 228 500 L104 500 C75 500 50 475 50 446 L50 54 Z " />
<glyph glyph-name="E" unicode="E" horiz-adv-x="449" d="M50 54 C50 25 75 0 104 0 L353 0 C382 0 406 24 406 53 C406 82 382 106 353 106 L169 106 L169 196 L324 196 C353 196 377 220 377 249 C377 278 353 302 324 302 L169 302 L169 386 L349 386 C380 386 406 412 406 443 C406 474 380 500 349 500 L104 500 C75 500 50 475 50 446 L50 54 Z " />
<glyph glyph-name="F" unicode="F" horiz-adv-x="426" d="M169 196 L324 196 C353 196 377 220 377 249 C377 278 353 302 324 302 L169 302 L169 386 L349 386 C380 386 406 412 406 443 C406 474 380 500 349 500 L104 500 C75 500 50 475 50 446 L50 43 C50 22 76 0 109 0 C142 0 169 22 169 43 L169 196 Z " />
<glyph glyph-name="G" unicode="G" horiz-adv-x="475" d="M317 176 L317 103 C296 101 274 101 257 101 C207 101 158 127 158 174 L158 318 C158 364 207 391 257 391 C284 391 325 387 364 379 C367 378 371 378 375 378 C406 378 432 404 432 435 C432 462 413 486 387 491 C339 501 288 505 259 505 C127 505 40 434 40 311 L40 190 C40 44 127 -5 259 -5 C291 -5 347 -1 397 9 C419 19 435 41 435 66 L435 235 C435 264 410 289 381 289 L293 289 C262 289 237 263 237 232 C237 201 262 176 293 176 L317 176 Z " />
<glyph glyph-name="H" unicode="H" horiz-adv-x="487" d="M319 304 L168 304 L168 457 C168 478 142 500 109 500 C76 500 50 478 50 457 L50 43 C50 22 76 0 109 0 C142 0 168 22 168 43 L168 198 L319 198 L319 43 C319 22 345 0 378 0 C411 0 437 22 437 43 L437 457 C437 478 411 500 378 500 C345 500 319 478 319 457 L319 304 Z " />
<glyph glyph-name="I" unicode="I" horiz-adv-x="218" d="M50 43 C50 22 76 0 109 0 C142 0 168 22 168 43 L168 457 C168 478 142 500 109 500 C76 500 50 478 50 457 L50 43 Z " />
<glyph glyph-name="J" unicode="J" horiz-adv-x="372" d="M0 120 C0 52 18 -5 154 -5 L167 -5 C303 -5 322 53 322 120 L322 457 C322 478 296 500 263 500 C230 500 204 478 204 457 L204 116 C204 102 188 101 161 101 C133 101 118 102 118 117 L118 144 C118 165 92 187 59 187 C26 187 0 165 0 144 L0 120 Z " />
<glyph glyph-name="K" unicode="K" horiz-adv-x="466" d="M432 383 C445 393 453 410 453 428 C453 462 427 488 393 488 C380 488 368 484 358 477 L168 336 L168 457 C168 478 142 500 109 500 C76 500 50 478 50 457 L50 43 C50 22 76 0 109 0 C142 0 168 22 168 43 L168 190 L228 233 L350 31 C360 12 378 0 402 0 C435 0 461 25 461 59 C461 70 459 79 454 88 L324 303 L432 383 Z " />
<glyph glyph-name="L" unicode="L" horiz-adv-x="409" d="M50 54 C50 25 75 0 104 0 L344 0 C372 0 397 24 397 53 C397 81 372 106 344 106 L168 106 L168 457 C168 478 142 500 109 500 C76 500 50 478 50 457 L50 54 Z " />
<glyph glyph-name="M" unicode="M" horiz-adv-x="614" d="M307 15 C353 17 399 54 407 98 L446 324 L446 43 C446 22 472 0 505 0 C538 0 564 22 564 43 L564 388 C564 449 515 500 454 500 C397 500 349 456 342 401 L307 145 L272 401 C265 456 217 500 160 500 C99 500 50 449 50 388 L50 43 C50 22 76 0 109 0 C142 0 168 22 168 43 L168 324 L207 98 C215 54 261 17 307 15 L307 15 Z " />
<glyph glyph-name="N" unicode="N" horiz-adv-x="523" d="M277 63 C292 26 329 0 371 0 C427 0 473 46 473 102 L473 457 C473 478 447 500 414 500 C381 500 355 478 355 457 L355 164 L248 437 C233 474 194 500 152 500 C96 500 50 454 50 398 L50 43 C50 22 76 0 109 0 C142 0 168 22 168 43 L168 324 L277 63 Z " />
<glyph glyph-name="O" unicode="O" horiz-adv-x="492" d="M245 -5 C451 -5 452 73 452 190 L452 311 C452 429 451 505 245 505 C41 505 40 429 40 311 L40 190 C40 73 41 -5 245 -5 L245 -5 Z M245 391 C323 391 334 369 334 308 L334 183 C334 121 323 101 245 101 C167 101 158 121 158 183 L158 308 C158 369 167 391 245 391 L245 391 Z " />
<glyph glyph-name="P" unicode="P" horiz-adv-x="440" d="M248 260 L168 260 L168 383 L248 383 C274 383 306 380 306 326 C306 271 274 260 248 260 L248 260 Z M50 43 C50 22 76 0 109 0 C142 0 168 22 168 43 L168 154 L247 154 C343 154 425 157 425 326 C425 496 343 500 247 500 L104 500 C75 500 50 475 50 446 L50 43 Z " />
<glyph glyph-name="Q" unicode="Q" horiz-adv-x="492" d="M245 391 C323 391 334 369 334 308 L334 183 C334 121 323 101 245 101 C167 101 158 121 158 183 L158 308 C158 369 167 391 245 391 L245 391 Z M352 -144 C381 -144 406 -121 406 -92 C406 -63 381 -39 352 -39 L307 -39 L307 -2 C451 13 452 86 452 190 L452 311 C452 429 451 505 245 505 C41 505 40 429 40 311 L40 190 C40 85 41 11 189 -2 L189 -81 C189 -115 216 -144 251 -144 L352 -144 Z " />
<glyph glyph-name="R" unicode="R" horiz-adv-x="460" d="M248 260 L168 260 L168 383 L248 383 C273 383 307 380 307 326 C307 271 273 260 248 260 L248 260 Z M296 34 C305 14 325 0 349 0 C382 0 408 26 408 59 C408 65 408 71 406 76 L375 181 C405 205 425 248 425 326 C425 496 342 500 247 500 L109 500 C76 500 50 478 50 457 L50 43 C50 22 76 0 109 0 C142 0 168 22 168 43 L168 154 L260 154 L296 34 Z " />
<glyph glyph-name="S" unicode="S" horiz-adv-x="449" d="M100 134 C96 135 92 135 88 135 C57 135 31 108 31 77 C31 55 46 35 64 26 C117 1 189 -5 229 -5 C321 -5 419 8 419 157 C419 295 149 308 149 353 C149 387 178 391 233 391 C262 391 300 387 333 380 C337 379 341 379 345 379 C376 379 402 404 402 435 C402 461 384 483 360 489 C314 501 263 505 231 505 C108 505 30 466 30 353 C30 208 300 202 300 147 C300 111 264 101 230 101 C204 101 148 112 100 134 L100 134 Z " />
<glyph glyph-name="T" unicode="T" horiz-adv-x="404" d="M341 383 C374 383 399 408 399 441 C399 474 374 500 341 500 L63 500 C30 500 5 474 5 441 C5 408 30 383 63 383 L145 383 L145 43 C145 22 171 0 204 0 C237 0 263 22 263 43 L263 383 L341 383 Z " />
<glyph glyph-name="U" unicode="U" horiz-adv-x="518" d="M350 182 C350 121 336 101 259 101 C182 101 168 121 168 182 L168 457 C168 478 142 500 109 500 C76 500 50 478 50 457 L50 190 C50 73 54 -5 259 -5 C464 -5 468 73 468 190 L468 457 C468 478 442 500 409 500 C376 500 350 478 350 457 L350 182 Z " />
<glyph glyph-name="V" unicode="V" horiz-adv-x="452" d="M226 0 C278 0 322 34 338 85 L441 425 C442 430 442 435 442 440 C442 472 414 500 382 500 C356 500 333 481 324 452 L226 126 L128 452 C119 481 96 500 70 500 C38 500 10 472 10 440 C10 435 10 430 11 425 L114 85 C130 34 174 0 226 0 L226 0 Z " />
<glyph glyph-name="W" unicode="W" horiz-adv-x="622" d="M311 207 L344 65 C358 27 394 0 437 0 C486 0 526 34 534 81 L597 438 C597 472 570 500 537 500 C506 500 481 476 476 446 L430 174 L385 365 C377 398 346 423 311 423 C276 423 245 398 237 365 L192 174 L146 446 C141 476 116 500 85 500 C52 500 25 472 25 438 L88 81 C96 34 136 0 185 0 C228 0 264 27 278 65 L311 207 Z " />
<glyph glyph-name="X" unicode="X" horiz-adv-x="450" d="M337 24 C348 11 364 -2 382 -2 C417 -2 444 25 444 60 C444 71 440 81 435 90 L302 247 L438 408 C443 417 445 427 445 438 C445 473 418 500 383 500 C365 500 354 491 343 478 L225 341 L107 478 C96 491 85 500 67 500 C32 500 5 473 5 438 C5 427 7 417 12 408 L148 247 L15 90 C10 81 6 71 6 60 C6 25 33 -2 68 -2 C86 -2 102 11 113 24 L225 157 L337 24 Z " />
<glyph glyph-name="Y" unicode="Y" horiz-adv-x="424" d="M211 0 C244 0 270 22 270 43 L270 210 L404 406 C409 415 414 428 414 440 C414 474 388 500 354 500 C333 500 315 489 305 473 L212 334 L119 473 C109 489 91 500 70 500 C36 500 10 474 10 440 C10 428 15 415 20 406 L154 210 L154 43 C154 22 180 0 211 0 L211 0 Z " />
<glyph glyph-name="Z" unicode="Z" horiz-adv-x="429" d="M366 0 C394 0 419 24 419 53 C419 81 394 106 366 106 L177 106 C336 313 381 375 396 396 C405 407 411 421 411 437 C411 472 383 500 348 500 L68 500 C36 500 10 473 10 441 C10 408 36 383 68 383 L238 383 L25 104 C16 93 10 79 10 63 C10 28 38 0 73 0 L366 0 Z " />
<glyph glyph-name="bracketleft" unicode="&#x5b;" horiz-adv-x="281" d="M50 -4 C50 -33 75 -58 104 -58 L175 -58 C207 -58 231 -33 231 -2 C231 30 207 54 175 54 L169 54 L169 446 L175 446 C207 446 231 470 231 502 C231 533 207 558 175 558 L104 558 C75 558 50 533 50 504 L50 -4 Z " />
<glyph glyph-name="backslash" unicode="&#x5c;" horiz-adv-x="345" d="M163 519 C156 542 133 558 108 558 C76 558 50 532 50 500 C50 494 51 489 52 484 L182 39 C189 16 212 0 237 0 C269 0 295 26 295 58 C295 64 294 69 293 74 L163 519 Z " />
<glyph glyph-name="bracketright" unicode="&#x5d;" horiz-adv-x="281" d="M231 504 C231 533 206 558 177 558 L106 558 C74 558 50 533 50 502 C50 470 74 446 106 446 L112 446 L112 54 L106 54 C74 54 50 30 50 -2 C50 -33 74 -58 106 -58 L177 -58 C206 -58 231 -33 231 -4 L231 504 Z " />
<glyph glyph-name="asciicircum" unicode="&#x5e;" horiz-adv-x="382" d="M185 361 L197 361 L197 351 L215 266 C221 240 246 220 274 220 C306 220 332 246 332 278 C332 284 331 290 329 296 L294 420 C281 466 240 500 191 500 C142 500 101 466 88 420 L53 296 C51 290 50 284 50 278 C50 246 76 220 108 220 C136 220 161 240 167 266 L185 351 L185 361 Z " />
<glyph glyph-name="underscore" unicode="&#x5f;" horiz-adv-x="487" d="M105 -21 C75 -21 50 -46 50 -76 C50 -106 75 -131 105 -131 L382 -131 C412 -131 437 -106 437 -76 C437 -46 412 -21 382 -21 L105 -21 Z " />
<glyph glyph-name="grave" unicode="&#x60;" horiz-adv-x="231" d="M165 497 C157 520 135 536 109 536 C76 536 50 510 50 477 C50 472 51 467 52 463 L83 373 C91 356 108 345 129 345 C158 345 181 366 181 395 L165 497 Z " />
<glyph glyph-name="a" unicode="a" horiz-adv-x="392" d="M239 133 C222 115 201 101 175 101 C153 101 143 104 143 128 C143 148 181 148 221 148 L239 148 L239 133 Z M95 392 C73 385 56 364 56 338 C56 308 79 286 109 286 C113 286 119 286 123 287 C143 291 161 291 177 291 C209 291 239 285 239 239 L230 239 C206 251 196 255 162 255 C102 255 25 237 25 136 C25 33 68 -5 145 -5 C162 -5 212 -5 239 43 C239 22 265 0 298 0 C331 0 357 22 357 43 L357 249 C357 368 288 405 183 405 C159 405 127 400 95 392 L95 392 Z " />
<glyph glyph-name="b" unicode="b" horiz-adv-x="421" d="M268 159 C268 134 267 101 218 101 C169 101 168 134 168 159 L168 251 C168 270 182 291 225 291 C267 291 268 261 268 236 L268 159 Z M168 48 C184 -5 268 -5 274 -5 C383 -5 386 68 386 163 L386 237 C386 332 385 405 265 405 C255 405 199 405 177 361 L168 361 L168 493 C168 514 142 536 109 536 C76 536 50 514 50 493 L50 43 C50 22 76 0 109 0 C142 0 168 22 168 43 L168 48 Z " />
<glyph glyph-name="c" unicode="c" horiz-adv-x="376" d="M291 109 C259 103 227 101 209 101 C177 101 153 111 153 141 L153 251 C153 281 177 291 209 291 C225 291 253 288 282 283 C285 282 289 282 293 282 C324 282 350 308 350 339 C350 366 330 390 304 395 C269 401 233 405 210 405 C104 405 35 364 35 248 L35 152 C35 36 104 -5 210 -5 C234 -5 274 -1 311 6 C334 12 352 33 352 57 C352 86 328 110 299 110 C296 110 294 109 291 109 L291 109 Z " />
<glyph glyph-name="d" unicode="d" horiz-adv-x="421" d="M153 236 C153 261 154 291 196 291 C239 291 253 270 253 251 L253 159 C253 134 252 101 203 101 C154 101 153 134 153 159 L153 236 Z M253 43 C253 22 279 0 312 0 C345 0 371 22 371 43 L371 493 C371 514 345 536 312 536 C279 536 253 514 253 493 L253 361 L244 361 C222 405 166 405 156 405 C36 405 35 332 35 237 L35 163 C35 68 38 -5 147 -5 C153 -5 237 -5 253 48 L253 43 Z " />
<glyph glyph-name="e" unicode="e" horiz-adv-x="403" d="M368 239 C368 351 346 405 203 405 C65 405 35 354 35 223 L35 152 C35 36 108 -5 213 -5 C238 -5 280 -1 318 6 C341 12 359 33 359 57 C359 86 334 108 305 108 C268 101 230 101 212 101 C180 101 153 116 152 146 L309 146 C342 146 368 172 368 205 L368 239 Z M203 291 C244 291 250 277 250 255 L250 239 L153 239 C156 285 170 291 203 291 L203 291 Z " />
<glyph glyph-name="f" unicode="f" horiz-adv-x="304" d="M252 441 C281 441 305 465 305 493 C305 518 286 540 262 545 C234 550 216 550 207 550 C121 550 81 504 76 400 L60 400 C30 400 5 375 5 345 C5 315 30 291 60 291 L76 291 L76 43 C76 22 102 0 135 0 C168 0 194 22 194 43 L194 291 L254 291 C284 291 309 315 309 345 C309 375 284 400 254 400 L194 400 C195 420 196 442 224 442 C232 442 242 442 252 441 L252 441 Z " />
<glyph glyph-name="g" unicode="g" horiz-adv-x="420" d="M153 234 C153 259 153 291 203 291 C252 291 252 259 252 234 L252 143 C252 123 241 101 194 101 C153 101 153 133 153 158 L153 234 Z M90 -173 C128 -180 167 -184 191 -184 C298 -184 370 -143 370 -25 L370 359 C370 378 344 400 313 400 C283 400 259 381 256 361 L247 361 C231 398 176 405 167 405 C35 405 35 332 35 235 L35 163 C35 67 38 -5 170 -5 C176 -5 229 -5 252 43 L252 -38 C252 -69 226 -79 192 -79 C173 -79 138 -77 103 -69 C74 -69 49 -93 49 -122 C49 -146 67 -167 90 -173 L90 -173 Z " />
<glyph glyph-name="h" unicode="h" horiz-adv-x="435" d="M50 43 C50 22 76 0 109 0 C142 0 168 22 168 43 L168 253 C168 279 181 291 222 291 C266 291 267 258 267 231 L267 43 C267 22 293 0 326 0 C359 0 385 22 385 43 L385 245 C385 336 352 405 250 405 C221 405 188 401 164 361 L155 361 L155 498 C155 516 132 536 102 536 C73 536 50 516 50 498 L50 43 Z " />
<glyph glyph-name="i" unicode="i" horiz-adv-x="218" d="M50 43 C50 22 76 0 109 0 C142 0 168 22 168 43 L168 357 C168 378 142 400 109 400 C76 400 50 378 50 357 L50 43 Z M50 490 C50 469 76 447 109 447 C142 447 168 469 168 490 L168 525 C168 546 142 568 109 568 C76 568 50 546 50 525 L50 490 Z " />
<glyph glyph-name="j" unicode="j" horiz-adv-x="220" d="M52 490 C52 469 78 447 111 447 C144 447 170 469 170 490 L170 525 C170 546 144 568 111 568 C78 568 52 546 52 525 L52 490 Z M-32 -74 C-35 -73 -39 -73 -42 -73 C-71 -73 -95 -97 -95 -126 C-95 -148 -80 -167 -61 -175 C-31 -183 -8 -184 19 -184 C106 -184 169 -154 169 -32 L169 357 C169 378 143 400 110 400 C77 400 51 378 51 357 L51 -41 C51 -70 29 -78 12 -78 C-3 -78 -15 -78 -32 -74 L-32 -74 Z " />
<glyph glyph-name="k" unicode="k" horiz-adv-x="409" d="M385 294 C399 305 408 322 408 340 C408 372 381 399 349 399 C337 399 325 396 316 389 L168 277 L168 493 C168 514 142 536 109 536 C76 536 50 514 50 493 L50 43 C50 22 76 0 109 0 C142 0 168 22 168 43 L168 127 L221 168 L294 31 C304 12 322 0 345 0 C378 0 404 25 404 57 C404 67 402 76 398 84 L316 240 L385 294 Z " />
<glyph glyph-name="l" unicode="l" horiz-adv-x="218" d="M50 43 C50 22 76 0 109 0 C142 0 168 22 168 43 L168 493 C168 514 142 536 109 536 C76 536 50 514 50 493 L50 43 Z " />
<glyph glyph-name="m" unicode="m" horiz-adv-x="578" d="M425 43 C425 22 451 0 484 0 C517 0 543 22 543 43 L543 246 C543 337 513 405 406 405 C396 405 336 405 312 363 C287 398 266 405 237 405 C228 405 188 405 168 361 L159 361 C159 381 134 400 104 400 C75 400 50 380 50 362 L50 43 C50 22 76 0 109 0 C142 0 168 22 168 43 L168 242 C168 269 178 291 211 291 C234 291 243 266 243 230 L243 43 C243 22 269 0 302 0 C335 0 361 22 361 43 L361 244 C361 261 361 271 356 282 C369 289 385 291 397 291 C420 291 425 258 425 230 L425 43 Z " />
<glyph glyph-name="n" unicode="n" horiz-adv-x="435" d="M50 43 C50 22 76 0 109 0 C142 0 168 22 168 43 L168 253 C168 279 181 291 222 291 C266 291 267 258 267 231 L267 43 C267 22 293 0 326 0 C359 0 385 22 385 43 L385 245 C385 336 352 405 250 405 C221 405 188 401 164 361 L155 361 C155 381 132 400 102 400 C73 400 50 380 50 362 L50 43 Z " />
<glyph glyph-name="o" unicode="o" horiz-adv-x="406" d="M203 405 C38 405 35 332 35 236 L35 162 C35 68 38 -5 203 -5 C365 -5 371 68 371 162 L371 236 C371 332 365 405 203 405 L203 405 Z M253 157 C253 133 252 101 203 101 C154 101 153 133 153 157 L153 235 C153 259 154 291 203 291 C252 291 253 259 253 235 L253 157 Z " />
<glyph glyph-name="p" unicode="p" horiz-adv-x="420" d="M267 158 C267 133 267 101 226 101 C179 101 168 123 168 143 L168 234 C168 259 168 291 217 291 C267 291 267 259 267 234 L267 158 Z M50 -141 C50 -162 76 -184 109 -184 C142 -184 168 -162 168 -141 L168 43 C191 -5 244 -5 250 -5 C382 -5 385 67 385 163 L385 235 C385 332 385 405 253 405 C244 405 189 398 173 361 L164 361 C161 381 137 400 107 400 C76 400 50 378 50 359 L50 -141 Z " />
<glyph glyph-name="q" unicode="q" horiz-adv-x="420" d="M153 234 C153 259 153 291 203 291 C252 291 252 259 252 234 L252 143 C252 123 241 101 194 101 C153 101 153 133 153 158 L153 234 Z M370 359 C370 378 344 400 313 400 C283 400 259 381 256 361 L247 361 C231 398 176 405 167 405 C35 405 35 332 35 235 L35 163 C35 67 38 -5 170 -5 C176 -5 229 -5 252 43 L252 -141 C252 -162 278 -184 311 -184 C344 -184 370 -162 370 -141 L370 359 Z " />
<glyph glyph-name="r" unicode="r" horiz-adv-x="317" d="M272 291 C303 291 312 317 312 348 C312 379 303 405 272 405 L259 405 C249 405 193 405 171 361 L162 361 C162 384 137 405 106 405 C75 405 50 384 50 364 L50 43 C50 22 76 0 109 0 C142 0 168 22 168 43 L168 251 C168 270 182 291 225 291 L272 291 Z " />
<glyph glyph-name="s" unicode="s" horiz-adv-x="371" d="M68 12 C109 2 155 -5 184 -5 C299 -5 341 33 341 128 C341 249 144 230 144 274 C144 289 153 291 188 291 C214 291 239 283 265 283 C296 283 322 308 322 338 C322 363 304 386 281 393 C246 401 209 405 186 405 C86 405 25 374 25 280 C25 135 222 159 222 120 C222 113 215 101 184 101 C165 101 116 107 83 114 C54 114 30 91 30 63 C30 40 47 19 68 12 L68 12 Z " />
<glyph glyph-name="t" unicode="t" horiz-adv-x="317" d="M251 0 C280 0 305 24 305 53 C305 82 280 107 251 107 L219 107 C205 107 204 120 204 137 L204 293 L251 293 C280 293 305 317 305 346 C305 375 280 400 251 400 L204 400 L204 476 C204 497 178 519 145 519 C112 519 86 497 86 476 L86 400 L59 400 C30 400 5 375 5 346 C5 317 30 293 59 293 L86 293 L86 137 C86 29 119 0 223 0 L251 0 Z " />
<glyph glyph-name="u" unicode="u" horiz-adv-x="422" d="M267 39 C267 19 290 0 320 0 C349 0 372 20 372 38 L372 357 C372 378 346 400 313 400 C280 400 254 378 254 357 L254 139 C254 113 240 101 199 101 C155 101 153 134 153 161 L153 357 C153 378 127 400 94 400 C61 400 35 378 35 357 L35 155 C35 64 69 -5 171 -5 C200 -5 233 -1 257 39 L267 39 Z " />
<glyph glyph-name="v" unicode="v" horiz-adv-x="408" d="M204 0 C250 0 290 29 305 70 L397 325 C398 330 398 335 398 340 C398 372 370 400 338 400 C312 400 289 381 281 357 L204 124 L127 357 C119 381 96 400 70 400 C38 400 10 372 10 340 C10 335 10 330 11 325 L103 70 C118 29 158 0 204 0 L204 0 Z " />
<glyph glyph-name="w" unicode="w" horiz-adv-x="544" d="M272 225 L292 87 C299 39 340 0 390 0 C439 0 484 40 489 88 L529 341 C529 374 504 400 471 400 C438 400 412 374 412 341 L389 124 L368 285 C362 332 320 369 272 369 C224 369 182 332 176 285 L155 124 L132 341 C132 374 106 400 73 400 C40 400 15 374 15 341 L55 88 C60 40 105 0 154 0 C204 0 245 39 252 87 L272 225 Z " />
<glyph glyph-name="x" unicode="x" horiz-adv-x="382" d="M260 27 C271 14 287 1 305 1 C340 1 367 28 367 63 C367 74 363 84 358 93 L268 199 L358 308 C363 317 365 327 365 338 C365 373 338 400 303 400 C285 400 274 391 263 378 L191 293 L119 378 C108 391 97 400 79 400 C44 400 17 373 17 338 C17 327 19 317 24 308 L114 199 L24 93 C19 84 15 74 15 63 C15 28 42 1 77 1 C95 1 111 14 122 27 L191 109 L260 27 Z " />
<glyph glyph-name="y" unicode="y" horiz-adv-x="391" d="M103 33 C106 20 117 10 130 7 C141 4 150 1 157 0 L161 0 L161 -10 C154 -13 152 -14 149 -25 L124 -108 C122 -114 121 -120 121 -126 C121 -158 147 -184 179 -184 C205 -184 228 -167 235 -142 L376 333 L376 341 C376 373 350 400 318 400 C291 400 268 381 261 356 L196 137 L130 356 C123 381 100 400 73 400 C41 400 15 373 15 341 L15 333 L103 33 Z " />
<glyph glyph-name="z" unicode="z" horiz-adv-x="383" d="M85 400 C55 400 30 374 30 344 C30 313 55 289 85 289 L180 289 L45 104 C36 93 30 79 30 63 C30 28 58 0 93 0 L301 0 C329 0 353 23 353 51 C353 79 329 103 301 103 L194 103 L329 296 C338 307 344 321 344 337 C344 372 316 400 281 400 L85 400 Z " />
<glyph glyph-name="braceleft" unicode="&#x7b;" horiz-adv-x="349" d="M86 307 C65 297 50 276 50 251 C50 226 64 204 86 195 C102 192 110 183 110 159 L110 34 C110 -1 115 -56 185 -56 L243 -56 C275 -56 299 -31 299 0 C299 32 275 52 243 52 C236 53 229 57 229 65 L229 157 C229 200 222 228 194 253 C219 275 229 307 229 349 L229 441 C229 449 236 453 243 454 C275 454 299 474 299 506 C299 537 275 562 243 562 L185 562 C115 562 110 507 110 472 L110 345 C110 319 102 310 86 307 L86 307 Z " />
<glyph glyph-name="bar" unicode="&#x7c;" horiz-adv-x="218" d="M50 -15 C50 -36 76 -58 109 -58 C142 -58 168 -36 168 -15 L168 515 C168 536 142 558 109 558 C76 558 50 536 50 515 L50 -15 Z " />
<glyph glyph-name="braceright" unicode="&#x7d;" horiz-adv-x="349" d="M263 307 C247 310 239 319 239 345 L239 472 C239 507 234 562 164 562 L106 562 C74 562 50 537 50 506 C50 474 74 454 106 454 C113 453 120 449 120 441 L120 349 C120 307 130 275 155 253 C127 228 120 200 120 157 L120 65 C120 57 113 53 106 52 C74 52 50 32 50 0 C50 -31 74 -56 106 -56 L164 -56 C234 -56 239 -1 239 34 L239 159 C239 183 247 192 263 195 C285 204 299 226 299 251 C299 276 284 297 263 307 L263 307 Z " />
<glyph glyph-name="asciitilde" unicode="&#x7e;" horiz-adv-x="482" d="M129 195 C139 200 149 203 156 203 C213 203 259 158 316 158 C348 158 380 167 410 188 C424 198 432 214 432 232 C432 262 408 286 378 286 C370 286 362 284 355 281 C338 271 327 269 316 269 C259 269 212 313 156 313 C127 313 98 305 71 289 C57 279 50 262 50 244 C50 214 74 190 104 190 C112 190 122 192 129 195 L129 195 Z " />
<glyph glyph-name="uni00A0" unicode="&#xa0;" horiz-adv-x="185" d="" />
<glyph glyph-name="exclamdown" unicode="&#xa1;" horiz-adv-x="227" d="M60 200 C50 -70 51 -37 51 -37 C51 -60 80 -82 114 -82 C140 -82 175 -67 177 -36 L168 200 C167 219 144 239 114 239 C84 239 60 219 60 200 L60 200 Z M173 375 C173 396 147 418 114 418 C81 418 55 396 55 375 L55 326 C55 305 81 283 114 283 C147 283 173 305 173 326 L173 375 Z " />
<glyph glyph-name="cent" unicode="&#xa2;" horiz-adv-x="417" d="M314 110 C311 110 309 109 306 109 C274 103 242 101 224 101 C192 101 168 111 168 141 L168 251 C168 281 192 291 224 291 C240 291 268 288 297 283 C300 282 304 282 308 282 C339 282 365 308 365 339 C365 366 345 390 319 395 C301 398 284 400 267 402 L267 427 C267 448 241 470 208 470 C175 470 149 448 149 427 L149 396 C87 378 50 333 50 248 L50 152 C50 67 87 22 149 4 L149 -32 C149 -53 175 -75 208 -75 C241 -75 267 -53 267 -32 L267 -2 C286 -1 306 2 326 6 C349 12 367 33 367 57 C367 86 343 110 314 110 L314 110 Z " />
<glyph glyph-name="sterling" unicode="&#xa3;" horiz-adv-x="515" d="M118 54 C118 25 143 0 172 0 L412 0 C440 0 465 24 465 53 C465 81 440 106 412 106 L237 106 L237 178 L298 178 C326 178 351 204 351 233 C351 261 326 288 298 288 L237 288 L237 362 C237 391 260 399 277 399 C292 399 304 398 320 395 C323 394 327 394 331 394 C359 394 383 418 383 446 C383 471 365 493 341 498 C315 504 294 505 270 505 C183 505 118 475 118 353 L118 288 L103 288 C75 288 50 261 50 233 C50 204 75 178 103 178 L118 178 L118 54 Z " />
<glyph glyph-name="currency" unicode="&#xa4;" horiz-adv-x="496" d="M248 282 C279 282 305 256 305 225 C305 194 279 169 248 169 C217 169 191 194 191 225 C191 256 217 282 248 282 L248 282 Z M248 62 C276 62 304 69 326 81 L352 54 C361 45 374 40 388 40 C418 40 442 64 442 94 C442 108 437 120 429 129 L401 159 C409 178 412 199 412 226 C412 246 408 268 402 287 L433 318 C441 327 446 339 446 353 C446 383 422 407 392 407 C378 407 365 402 356 393 L331 367 C306 379 276 390 248 390 C220 390 190 379 165 367 L140 393 C131 402 118 407 104 407 C74 407 50 383 50 353 C50 339 55 327 63 318 L94 287 C88 268 84 246 84 226 C84 199 87 178 95 159 L67 129 C59 120 54 108 54 94 C54 64 78 40 108 40 C122 40 135 45 144 54 L170 81 C192 69 220 62 248 62 L248 62 Z " />
<glyph glyph-name="yen" unicode="&#xa5;" horiz-adv-x="504" d="M454 440 C454 474 428 500 394 500 C373 500 355 489 345 473 L252 334 L159 473 C149 489 131 500 110 500 C76 500 50 474 50 440 C50 428 55 415 60 406 L143 284 C114 284 93 263 93 237 C93 211 114 190 140 190 L194 190 L194 154 L140 154 C114 154 93 133 93 107 C93 81 114 60 140 60 L194 60 L194 43 C194 22 220 0 251 0 C284 0 310 22 310 43 L310 60 L363 60 C389 60 410 81 410 107 C410 133 389 154 363 154 L310 154 L310 190 L363 190 C389 190 410 211 410 237 C410 263 389 284 363 284 L444 406 C449 415 454 428 454 440 L454 440 Z " />
<glyph glyph-name="brokenbar" unicode="&#xa6;" horiz-adv-x="218" d="M50 362 C50 341 76 319 109 319 C142 319 168 341 168 362 L168 515 C168 536 142 558 109 558 C76 558 50 536 50 515 L50 362 Z M50 -17 C50 -38 76 -60 109 -60 C142 -60 168 -38 168 -17 L168 136 C168 157 142 179 109 179 C76 179 50 157 50 136 L50 -17 Z " />
<glyph glyph-name="section" unicode="&#xa7;" horiz-adv-x="533" d="M325 210 C298 210 169 219 169 245 C169 257 182 268 220 268 C251 268 364 262 364 237 C364 223 357 210 325 210 L325 210 Z M423 509 C386 517 349 521 327 521 C223 521 159 490 159 393 C159 384 159 375 160 368 C100 355 50 319 50 245 C50 168 130 141 193 122 C225 112 255 102 255 91 C255 76 246 63 214 63 C195 63 146 69 114 76 C85 76 59 51 59 23 C59 0 76 -21 97 -28 C137 -38 184 -46 214 -46 C332 -46 374 -8 374 91 L374 106 C452 118 483 155 483 237 C483 319 406 342 343 360 C311 369 278 380 278 393 C278 401 291 405 329 405 C350 405 380 403 407 397 C438 397 464 422 464 452 C464 477 446 502 423 509 L423 509 Z " />
<glyph glyph-name="dieresis" unicode="&#xa8;" horiz-adv-x="399" d="M168 493 C168 514 142 536 109 536 C76 536 50 514 50 493 L50 443 C50 422 76 400 109 400 C142 400 168 422 168 443 L168 493 Z M349 493 C349 514 323 536 290 536 C257 536 231 514 231 493 L231 443 C231 422 257 400 290 400 C323 400 349 422 349 443 L349 493 Z " />
<glyph glyph-name="copyright" unicode="&#xa9;" horiz-adv-x="625" d="M314 520 C167 520 50 400 50 257 C50 111 167 -5 314 -5 C457 -5 575 111 575 257 C575 400 457 520 314 520 L314 520 Z M314 90 C222 90 147 166 147 257 C147 349 222 425 314 425 C405 425 482 349 482 257 C482 166 405 90 314 90 L314 90 Z M372 139 C351 136 326 134 310 134 C241 134 194 159 194 235 L194 278 C194 354 241 379 310 379 C326 379 349 378 371 374 C387 371 399 356 399 339 C399 320 383 305 364 305 C345 307 331 308 320 308 C279 308 274 306 274 262 L274 250 C274 207 279 206 320 206 C332 206 349 206 365 208 C384 208 400 193 400 174 C400 157 388 142 372 139 L372 139 Z " />
<glyph glyph-name="ordfeminine" unicode="&#xaa;" horiz-adv-x="361" d="M169 303 C153 303 152 308 152 318 C152 327 175 329 204 329 L208 329 L208 322 C197 312 183 303 169 303 L169 303 Z M116 519 C94 515 73 494 73 470 C73 444 95 422 121 422 C124 422 129 423 132 423 C146 425 159 426 169 426 C182 426 200 426 203 402 C191 404 180 405 168 405 C105 405 50 379 50 317 C50 247 77 211 150 211 C160 211 189 216 208 242 C212 225 234 209 259 209 C288 209 311 228 311 247 L311 402 C311 497 257 526 174 526 C158 526 137 523 116 519 L116 519 Z " />
<glyph glyph-name="guillemotleft" unicode="&#xab;" horiz-adv-x="516" d="M158 226 L165 226 L240 353 C244 361 246 370 246 379 C246 412 219 439 186 439 C164 439 145 427 135 410 C50 254 50 243 50 220 C50 197 50 186 135 30 C145 13 164 1 186 1 C219 1 246 28 246 61 C246 70 244 79 240 87 L165 214 L158 214 L158 226 Z M378 226 L385 226 L460 353 C464 361 466 370 466 379 C466 412 439 439 406 439 C384 439 365 427 355 410 C270 254 270 243 270 220 C270 197 270 186 355 30 C365 13 384 1 406 1 C439 1 466 28 466 61 C466 70 464 79 460 87 L385 214 L378 214 L378 226 Z " />
<glyph glyph-name="logicalnot" unicode="&#xac;" horiz-adv-x="452" d="M402 216 C402 245 378 269 349 269 L103 269 C74 269 50 245 50 216 C50 187 74 163 103 163 L284 163 L284 94 C284 73 310 51 343 51 C376 51 402 73 402 94 L402 216 Z " />
<glyph glyph-name="uni00AD" unicode="&#xad;" horiz-adv-x="513" d="" />
<glyph glyph-name="registered" unicode="&#xae;" horiz-adv-x="629" d="M326 266 L300 266 L300 309 L326 309 C338 309 348 304 348 288 C348 269 338 266 326 266 L326 266 Z M315 524 C168 524 50 403 50 259 C50 112 168 -5 315 -5 C459 -5 579 112 579 259 C579 403 459 524 315 524 L315 524 Z M315 91 C223 91 148 167 148 259 C148 352 223 428 315 428 C408 428 485 352 485 259 C485 167 408 91 315 91 L315 91 Z M409 209 C422 226 428 251 428 287 C428 366 386 378 332 378 L260 378 C238 378 220 363 220 349 L220 165 C220 151 238 136 260 136 C282 136 300 151 300 165 L300 198 L328 198 L335 168 C339 149 355 136 375 136 C398 136 416 154 416 177 C416 181 415 186 414 190 L409 209 Z " />
<glyph glyph-name="macron" unicode="&#xaf;" horiz-adv-x="438" d="M105 491 C75 491 50 466 50 436 C50 406 75 381 105 381 L333 381 C363 381 388 406 388 436 C388 466 363 491 333 491 L105 491 Z " />
<glyph glyph-name="degree" unicode="&#xb0;" horiz-adv-x="339" d="M169 521 C103 521 50 467 50 401 C50 335 103 282 169 282 C235 282 289 335 289 401 C289 467 235 521 169 521 L169 521 Z M169 374 C154 374 142 386 142 401 C142 416 154 428 169 428 C184 428 196 416 196 401 C196 386 184 374 169 374 L169 374 Z " />
<glyph glyph-name="plusminus" unicode="&#xb1;" horiz-adv-x="486" d="M183 291 L183 194 C183 173 209 151 242 151 C275 151 301 173 301 194 L301 291 L381 291 C411 291 436 316 436 346 C436 376 411 401 381 401 L301 401 L301 499 C301 520 275 542 242 542 C209 542 183 520 183 499 L183 401 L105 401 C75 401 50 376 50 346 C50 316 75 291 105 291 L183 291 Z M105 110 C75 110 50 85 50 55 C50 25 75 0 105 0 L381 0 C411 0 436 25 436 55 C436 85 411 110 381 110 L105 110 Z " />
<glyph glyph-name="twosuperior" unicode="&#xb2;" horiz-adv-x="348" d="M157 412 C159 419 164 423 173 423 C190 423 191 418 191 412 C191 372 99 322 63 278 C55 268 50 255 50 241 C50 210 75 185 106 185 L253 185 C281 185 297 205 297 233 C297 261 281 283 253 283 L216 283 C256 318 298 358 298 413 C298 459 287 521 173 521 C100 521 69 492 56 455 C54 449 51 436 51 430 C51 401 75 377 104 377 C127 377 148 393 157 412 L157 412 Z " />
<glyph glyph-name="threesuperior" unicode="&#xb3;" horiz-adv-x="347" d="M181 312 C190 311 190 306 190 300 C190 288 189 284 171 284 C163 284 159 286 156 290 C146 307 127 321 106 321 C75 321 50 296 50 265 C50 221 89 181 172 181 C288 181 297 243 297 291 C297 310 289 334 262 352 C287 372 297 394 297 413 C297 459 288 521 171 521 C91 521 50 471 50 443 L50 438 C50 407 75 382 106 382 C127 382 146 396 156 413 C159 417 158 418 171 418 C189 418 190 410 190 404 C190 397 190 383 181 383 C160 383 149 367 149 346 C149 326 160 312 181 312 L181 312 Z " />
<glyph glyph-name="acute" unicode="&#xb4;" horiz-adv-x="231" d="M50 395 C50 366 73 345 102 345 C123 345 140 356 148 373 L179 463 C180 467 181 472 181 477 C181 510 155 536 122 536 C96 536 74 520 66 497 L50 395 Z " />
<glyph glyph-name="mu" unicode="&#xb5;" horiz-adv-x="437" d="M50 -137 C50 -158 76 -180 109 -180 C142 -180 168 -158 168 -137 L168 14 L174 14 C179 0 207 -2 222 -2 C237 -2 267 4 278 39 L282 39 C282 19 305 0 335 0 C364 0 387 20 387 38 L387 357 C387 378 361 400 328 400 C295 400 269 378 269 357 L269 139 C269 113 255 101 214 101 C170 101 168 134 168 161 L168 357 C168 378 142 400 109 400 C76 400 50 378 50 357 L50 -137 Z " />
<glyph glyph-name="paragraph" unicode="&#xb6;" horiz-adv-x="528" d="M237 521 C132 508 50 419 50 310 C50 214 117 131 208 107 L208 -140 C208 -161 234 -183 267 -183 C300 -183 326 -161 326 -140 L326 400 L360 400 L360 -140 C360 -161 386 -183 419 -183 C452 -183 478 -161 478 -140 L478 471 C478 498 452 521 419 521 L237 521 Z " />
<glyph glyph-name="periodcentered" unicode="&#xb7;" horiz-adv-x="287" d="M50 195 C50 143 91 103 142 103 C197 103 237 143 237 195 C237 250 197 290 142 290 C91 290 50 250 50 195 L50 195 Z " />
<glyph glyph-name="cedilla" unicode="&#xb8;" horiz-adv-x="231" d="M181 -103 C181 -74 158 -53 129 -53 C108 -53 91 -64 83 -81 L52 -171 C51 -175 50 -180 50 -185 C50 -218 76 -244 109 -244 C135 -244 157 -228 165 -205 L181 -103 Z " />
<glyph glyph-name="onesuperior" unicode="&#xb9;" horiz-adv-x="291" d="M241 478 C241 502 222 521 198 521 C189 521 167 520 153 514 L75 465 C60 456 50 439 50 419 C50 389 73 366 103 366 C112 366 121 368 129 372 L134 375 L134 237 C134 207 157 184 187 184 C217 184 241 207 241 237 L241 478 Z " />
<glyph glyph-name="ordmasculine" unicode="&#xba;" horiz-adv-x="419" d="M209 526 C121 526 50 454 50 366 C50 278 121 207 209 207 C297 207 369 278 369 366 C369 454 297 526 209 526 L209 526 Z M209 316 C181 316 159 338 159 366 C159 394 181 417 209 417 C237 417 260 394 260 366 C260 338 237 316 209 316 L209 316 Z " />
<glyph glyph-name="guillemotright" unicode="&#xbb;" horiz-adv-x="516" d="M358 214 L351 214 L276 87 C272 79 270 70 270 61 C270 28 297 1 330 1 C352 1 371 13 381 30 C466 186 466 197 466 220 C466 243 466 254 381 410 C371 427 352 439 330 439 C297 439 270 412 270 379 C270 370 272 361 276 353 L351 226 L358 226 L358 214 Z M138 214 L131 214 L56 87 C52 79 50 70 50 61 C50 28 77 1 110 1 C132 1 151 13 161 30 C246 186 246 197 246 220 C246 243 246 254 161 410 C151 427 132 439 110 439 C77 439 50 412 50 379 C50 370 52 361 56 353 L131 226 L138 226 L138 214 Z " />
<glyph glyph-name="onequarter" unicode="&#xbc;" horiz-adv-x="797" d="M555 175 L599 223 L599 175 L555 175 Z M241 457 C241 481 222 500 198 500 C189 500 167 499 153 493 L75 444 C60 435 50 418 50 398 C50 368 73 345 103 345 C112 345 121 347 129 351 L134 354 L134 216 C134 186 157 163 187 163 C217 163 241 186 241 216 L241 457 Z M599 83 L599 53 C599 23 622 0 652 0 C682 0 706 23 706 53 L706 83 C732 83 747 102 747 128 C747 154 732 175 706 175 L706 283 C706 313 683 336 653 336 L633 336 C607 336 576 324 562 304 L471 191 C461 179 455 164 455 148 C455 113 485 83 520 83 L599 83 Z M417 468 C427 486 447 499 470 499 C503 499 529 473 529 440 C529 429 527 419 522 410 L348 31 C338 13 318 0 295 0 C262 0 236 26 236 59 C236 70 238 80 243 89 L417 468 Z " />
<glyph glyph-name="onehalf" unicode="&#xbd;" horiz-adv-x="803" d="M241 457 C241 481 222 500 198 500 C189 500 167 499 153 493 L75 444 C60 435 50 418 50 398 C50 368 73 345 103 345 C112 345 121 347 129 351 L134 354 L134 216 C134 186 157 163 187 163 C217 163 241 186 241 216 L241 457 Z M418 468 C428 486 448 499 471 499 C504 499 530 473 530 440 C530 429 528 419 523 410 L349 31 C339 13 319 0 296 0 C263 0 237 26 237 59 C237 70 239 80 244 89 L418 468 Z M612 227 C614 234 619 238 628 238 C645 238 646 233 646 227 C646 187 554 137 518 93 C510 83 505 70 505 56 C505 25 530 0 561 0 L708 0 C736 0 752 20 752 48 C752 76 736 98 708 98 L671 98 C711 133 753 173 753 228 C753 274 742 336 628 336 C555 336 524 307 511 270 C509 264 506 251 506 245 C506 216 530 192 559 192 C582 192 603 208 612 227 L612 227 Z " />
<glyph glyph-name="threequarters" unicode="&#xbe;" horiz-adv-x="821" d="M181 296 C190 295 190 290 190 284 C190 272 189 268 171 268 C163 268 159 270 156 274 C146 291 127 305 106 305 C75 305 50 280 50 249 C50 205 89 165 172 165 C288 165 297 227 297 275 C297 294 289 318 262 336 C287 356 297 378 297 397 C297 443 288 505 171 505 C91 505 50 455 50 427 L50 422 C50 391 75 366 106 366 C127 366 146 380 156 397 C159 401 158 402 171 402 C189 402 190 394 190 388 C190 381 190 367 181 367 C160 367 149 351 149 330 C149 310 160 296 181 296 L181 296 Z M441 468 C451 486 471 499 494 499 C527 499 553 473 553 440 C553 429 551 419 546 410 L372 31 C362 13 342 0 319 0 C286 0 260 26 260 59 C260 70 262 80 267 89 L441 468 Z M579 175 L623 223 L623 175 L579 175 Z M623 83 L623 53 C623 23 646 0 676 0 C706 0 730 23 730 53 L730 83 C756 83 771 102 771 128 C771 154 756 175 730 175 L730 283 C730 313 707 336 677 336 L657 336 C631 336 600 324 586 304 L495 191 C485 179 479 164 479 148 C479 113 509 83 544 83 L623 83 Z " />
<glyph glyph-name="questiondown" unicode="&#xbf;" horiz-adv-x="385" d="M162 424 C162 403 188 381 221 381 C254 381 280 403 280 424 L280 462 C280 483 254 505 221 505 C188 505 162 483 162 462 L162 424 Z M297 14 C320 22 335 43 335 69 C335 101 310 126 278 126 C270 126 263 124 256 122 C241 117 224 114 209 114 C177 114 169 119 169 129 C169 182 282 180 282 291 L282 313 C282 334 256 356 223 356 C190 356 164 334 164 313 L164 305 C164 238 50 241 50 129 C50 31 105 0 207 0 C233 0 266 4 297 14 L297 14 Z " />
<glyph glyph-name="Agrave" unicode="&#xc0;" horiz-adv-x="438" d="M184 254 L219 374 L254 254 L184 254 Z M152 147 L286 147 L317 41 C326 19 349 0 374 0 C406 0 433 27 433 59 C433 63 432 71 431 75 L328 418 C314 465 269 500 219 500 C169 500 124 465 110 418 L7 75 C6 71 5 63 5 59 C5 27 32 0 64 0 C89 0 112 19 121 41 L152 147 Z M242 702 C234 725 212 741 186 741 C153 741 127 715 127 682 C127 677 128 672 129 668 L160 578 C168 561 185 550 206 550 C235 550 258 571 258 600 L242 702 Z " />
<glyph glyph-name="Aacute" unicode="&#xc1;" horiz-adv-x="438" d="M184 254 L219 374 L254 254 L184 254 Z M152 147 L286 147 L317 41 C326 19 349 0 374 0 C406 0 433 27 433 59 C433 63 432 71 431 75 L328 418 C314 465 269 500 219 500 C169 500 124 465 110 418 L7 75 C6 71 5 63 5 59 C5 27 32 0 64 0 C89 0 112 19 121 41 L152 147 Z M163 600 C163 571 186 550 215 550 C236 550 253 561 261 578 L292 668 C293 672 294 677 294 682 C294 715 268 741 235 741 C209 741 187 725 179 702 L163 600 Z " />
<glyph glyph-name="Acircumflex" unicode="&#xc2;" horiz-adv-x="438" d="M184 254 L219 374 L254 254 L184 254 Z M152 147 L286 147 L317 41 C326 19 349 0 374 0 C406 0 433 27 433 59 C433 63 432 71 431 75 L328 418 C314 465 269 500 219 500 C169 500 124 465 110 418 L7 75 C6 71 5 63 5 59 C5 27 32 0 64 0 C89 0 112 19 121 41 L152 147 Z M219 621 L231 584 C238 564 258 550 282 550 C311 550 334 573 334 602 C334 610 333 617 330 624 L305 689 C292 722 257 746 219 746 C181 746 146 722 133 689 L108 624 C105 617 104 610 104 602 C104 573 127 550 156 550 C180 550 200 564 207 584 L219 621 Z " />
<glyph glyph-name="Atilde" unicode="&#xc3;" horiz-adv-x="438" d="M184 254 L219 374 L254 254 L184 254 Z M152 147 L286 147 L317 41 C326 19 349 0 374 0 C406 0 433 27 433 59 C433 63 432 71 431 75 L328 418 C314 465 269 500 219 500 C169 500 124 465 110 418 L7 75 C6 71 5 63 5 59 C5 27 32 0 64 0 C89 0 112 19 121 41 L152 147 Z M338 571 C356 580 369 599 369 621 C369 651 345 675 315 675 C306 675 296 672 288 668 C277 662 270 661 261 661 C229 661 203 685 172 685 C149 685 124 677 103 667 C85 658 72 639 72 617 C72 587 96 563 126 563 C135 563 145 566 153 570 C161 574 167 575 175 575 C207 575 230 550 260 550 C287 550 313 557 338 571 L338 571 Z " />
<glyph glyph-name="Adieresis" unicode="&#xc4;" horiz-adv-x="438" d="M189 642 C189 663 163 685 130 685 C97 685 71 663 71 642 L71 592 C71 571 97 549 130 549 C163 549 189 571 189 592 L189 642 Z M370 642 C370 663 344 685 311 685 C278 685 252 663 252 642 L252 592 C252 571 278 549 311 549 C344 549 370 571 370 592 L370 642 Z M184 254 L219 374 L254 254 L184 254 Z M152 147 L286 147 L317 41 C326 19 349 0 374 0 C406 0 433 27 433 59 C433 63 432 71 431 75 L328 418 C314 465 269 500 219 500 C169 500 124 465 110 418 L7 75 C6 71 5 63 5 59 C5 27 32 0 64 0 C89 0 112 19 121 41 L152 147 Z " />
<glyph glyph-name="Aring" unicode="&#xc5;" horiz-adv-x="438" d="M219 762 C160 762 113 714 113 656 C113 597 160 550 219 550 C277 550 325 597 325 656 C325 714 277 762 219 762 L219 762 Z M219 632 C205 632 195 642 195 656 C195 669 205 680 219 680 C232 680 243 669 243 656 C243 642 232 632 219 632 L219 632 Z M184 254 L219 374 L254 254 L184 254 Z M152 147 L286 147 L317 41 C326 19 349 0 374 0 C406 0 433 27 433 59 C433 63 432 71 431 75 L328 418 C314 465 269 500 219 500 C169 500 124 465 110 418 L7 75 C6 71 5 63 5 59 C5 27 32 0 64 0 C89 0 112 19 121 41 L152 147 Z " />
<glyph glyph-name="AE" unicode="&#xc6;" horiz-adv-x="657" d="M222 241 L258 305 L258 241 L222 241 Z M258 53 C258 24 282 0 311 0 L561 0 C590 0 614 24 614 53 C614 82 590 106 561 106 L377 106 L377 196 L532 196 C561 196 585 220 585 249 C585 278 561 302 532 302 L377 302 L377 386 L557 386 C588 386 614 412 614 443 C614 474 588 500 557 500 L269 500 C235 500 225 485 215 475 L8 90 C3 81 0 70 0 59 C0 26 26 0 59 0 C82 0 102 13 112 31 L166 133 L258 133 L258 53 Z " />
<glyph glyph-name="Ccedilla" unicode="&#xc7;" horiz-adv-x="458" d="M371 114 C328 106 281 101 255 101 C206 101 158 127 158 184 L158 319 C158 365 207 391 256 391 C282 391 325 387 365 379 C368 378 372 378 376 378 C407 378 433 404 433 435 C433 462 414 486 388 491 C340 501 287 505 258 505 C126 505 40 443 40 311 L40 190 C40 43 126 -5 258 -5 C288 -5 342 -4 393 8 C416 14 433 35 433 59 C433 88 408 115 379 115 C376 115 374 114 371 114 L371 114 Z M294 -103 C294 -74 271 -53 242 -53 C221 -53 204 -64 196 -81 L165 -171 C164 -175 163 -180 163 -185 C163 -218 189 -244 222 -244 C248 -244 270 -228 278 -205 L294 -103 Z " />
<glyph glyph-name="Egrave" unicode="&#xc8;" horiz-adv-x="449" d="M50 54 C50 25 75 0 104 0 L353 0 C382 0 406 24 406 53 C406 82 382 106 353 106 L169 106 L169 196 L324 196 C353 196 377 220 377 249 C377 278 353 302 324 302 L169 302 L169 386 L349 386 C380 386 406 412 406 443 C406 474 380 500 349 500 L104 500 C75 500 50 475 50 446 L50 54 Z M257 702 C249 725 227 741 201 741 C168 741 142 715 142 682 C142 677 143 672 144 668 L175 578 C183 561 200 550 221 550 C250 550 273 571 273 600 L257 702 Z " />
<glyph glyph-name="Eacute" unicode="&#xc9;" horiz-adv-x="449" d="M50 54 C50 25 75 0 104 0 L353 0 C382 0 406 24 406 53 C406 82 382 106 353 106 L169 106 L169 196 L324 196 C353 196 377 220 377 249 C377 278 353 302 324 302 L169 302 L169 386 L349 386 C380 386 406 412 406 443 C406 474 380 500 349 500 L104 500 C75 500 50 475 50 446 L50 54 Z M181 600 C181 571 204 550 233 550 C254 550 271 561 279 578 L310 668 C311 672 312 677 312 682 C312 715 286 741 253 741 C227 741 205 725 197 702 L181 600 Z " />
<glyph glyph-name="Ecircumflex" unicode="&#xca;" horiz-adv-x="449" d="M50 54 C50 25 75 0 104 0 L353 0 C382 0 406 24 406 53 C406 82 382 106 353 106 L169 106 L169 196 L324 196 C353 196 377 220 377 249 C377 278 353 302 324 302 L169 302 L169 386 L349 386 C380 386 406 412 406 443 C406 474 380 500 349 500 L104 500 C75 500 50 475 50 446 L50 54 Z M229 621 L241 584 C248 564 268 550 292 550 C321 550 344 573 344 602 C344 610 343 617 340 624 L315 689 C302 722 267 746 229 746 C191 746 156 722 143 689 L118 624 C115 617 114 610 114 602 C114 573 137 550 166 550 C190 550 210 564 217 584 L229 621 Z " />
<glyph glyph-name="Edieresis" unicode="&#xcb;" horiz-adv-x="449" d="M50 54 C50 25 75 0 104 0 L353 0 C382 0 406 24 406 53 C406 82 382 106 353 106 L169 106 L169 196 L324 196 C353 196 377 220 377 249 C377 278 353 302 324 302 L169 302 L169 386 L349 386 C380 386 406 412 406 443 C406 474 380 500 349 500 L104 500 C75 500 50 475 50 446 L50 54 Z M200 642 C200 663 174 685 141 685 C108 685 82 663 82 642 L82 592 C82 571 108 549 141 549 C174 549 200 571 200 592 L200 642 Z M381 642 C381 663 355 685 322 685 C289 685 263 663 263 642 L263 592 C263 571 289 549 322 549 C355 549 381 571 381 592 L381 642 Z " />
<glyph glyph-name="Igrave" unicode="&#xcc;" horiz-adv-x="218" d="M50 457 C50 478 76 500 109 500 C142 500 168 478 168 457 L168 43 C168 22 142 0 109 0 C76 0 50 22 50 43 L50 457 Z M137 702 C129 725 107 741 81 741 C48 741 22 715 22 682 C22 677 23 672 24 668 L55 578 C63 561 80 550 101 550 C130 550 153 571 153 600 L137 702 Z " />
<glyph glyph-name="Iacute" unicode="&#xcd;" horiz-adv-x="218" d="M50 457 C50 478 76 500 109 500 C142 500 168 478 168 457 L168 43 C168 22 142 0 109 0 C76 0 50 22 50 43 L50 457 Z M65 600 C65 571 88 550 117 550 C138 550 155 561 163 578 L194 668 C195 672 196 677 196 682 C196 715 170 741 137 741 C111 741 89 725 81 702 L65 600 Z " />
<glyph glyph-name="Icircumflex" unicode="&#xce;" horiz-adv-x="218" d="M50 457 C50 478 76 500 109 500 C142 500 168 478 168 457 L168 43 C168 22 142 0 109 0 C76 0 50 22 50 43 L50 457 Z M109 621 L121 584 C128 564 148 550 172 550 C201 550 224 573 224 602 C224 610 223 617 220 624 L195 689 C182 722 147 746 109 746 C71 746 36 722 23 689 L-2 624 C-5 617 -6 610 -6 602 C-6 573 17 550 46 550 C70 550 90 564 97 584 L109 621 Z " />
<glyph glyph-name="Idieresis" unicode="&#xcf;" horiz-adv-x="218" d="M50 43 C50 22 76 0 109 0 C142 0 168 22 168 43 L168 457 C168 478 142 500 109 500 C76 500 50 478 50 457 L50 43 Z M80 642 C80 663 54 685 21 685 C-12 685 -38 663 -38 642 L-38 592 C-38 571 -12 549 21 549 C54 549 80 571 80 592 L80 642 Z M251 642 C251 663 225 685 192 685 C159 685 133 663 133 642 L133 592 C133 571 159 549 192 549 C225 549 251 571 251 592 L251 642 Z " />
<glyph glyph-name="Eth" unicode="&#xd0;" horiz-adv-x="494" d="M238 500 L114 500 C85 500 60 475 60 446 L60 291 C30 291 5 266 5 236 C5 206 30 181 60 181 L60 54 C60 25 85 0 114 0 L238 0 C368 0 454 47 454 193 L454 305 C454 453 368 500 238 500 L238 500 Z M335 187 C335 136 296 106 240 106 L179 106 L179 181 L224 181 C254 181 279 206 279 236 C279 266 254 291 224 291 L179 291 L179 386 L240 386 C301 386 335 362 335 314 L335 187 Z " />
<glyph glyph-name="Ntilde" unicode="&#xd1;" horiz-adv-x="523" d="M168 324 L168 43 C168 22 142 0 109 0 C76 0 50 22 50 43 L50 398 C50 454 96 500 152 500 C194 500 233 474 248 437 L355 164 L355 457 C355 478 381 500 414 500 C447 500 473 478 473 457 L473 102 C473 46 427 0 371 0 C329 0 292 26 277 63 L168 324 Z M366 571 C384 580 397 599 397 621 C397 651 373 675 343 675 C334 675 324 672 316 668 C305 662 298 661 289 661 C257 661 231 685 200 685 C177 685 152 677 131 667 C113 658 100 639 100 617 C100 587 124 563 154 563 C163 563 173 566 181 570 C189 574 195 575 203 575 C235 575 258 550 288 550 C315 550 341 557 366 571 L366 571 Z " />
<glyph glyph-name="Ograve" unicode="&#xd2;" horiz-adv-x="492" d="M245 -5 C41 -5 40 73 40 190 L40 311 C40 429 41 505 245 505 C451 505 452 429 452 311 L452 190 C452 73 451 -5 245 -5 L245 -5 Z M245 391 C167 391 158 369 158 308 L158 183 C158 121 167 101 245 101 C323 101 334 121 334 183 L334 308 C334 369 323 391 245 391 L245 391 Z M265 702 C257 725 235 741 209 741 C176 741 150 715 150 682 C150 677 151 672 152 668 L183 578 C191 561 208 550 229 550 C258 550 281 571 281 600 L265 702 Z " />
<glyph glyph-name="Oacute" unicode="&#xd3;" horiz-adv-x="492" d="M245 -5 C41 -5 40 73 40 190 L40 311 C40 429 41 505 245 505 C451 505 452 429 452 311 L452 190 C452 73 451 -5 245 -5 L245 -5 Z M245 391 C167 391 158 369 158 308 L158 183 C158 121 167 101 245 101 C323 101 334 121 334 183 L334 308 C334 369 323 391 245 391 L245 391 Z M204 600 C204 571 227 550 256 550 C277 550 294 561 302 578 L333 668 C334 672 335 677 335 682 C335 715 309 741 276 741 C250 741 228 725 220 702 L204 600 Z " />
<glyph glyph-name="Ocircumflex" unicode="&#xd4;" horiz-adv-x="492" d="M245 -5 C41 -5 40 73 40 190 L40 311 C40 429 41 505 245 505 C451 505 452 429 452 311 L452 190 C452 73 451 -5 245 -5 L245 -5 Z M245 391 C167 391 158 369 158 308 L158 183 C158 121 167 101 245 101 C323 101 334 121 334 183 L334 308 C334 369 323 391 245 391 L245 391 Z M245 621 L257 584 C264 564 284 550 308 550 C337 550 360 573 360 602 C360 610 359 617 356 624 L331 689 C318 722 283 746 245 746 C207 746 172 722 159 689 L134 624 C131 617 130 610 130 602 C130 573 153 550 182 550 C206 550 226 564 233 584 L245 621 Z " />
<glyph glyph-name="Otilde" unicode="&#xd5;" horiz-adv-x="492" d="M245 -5 C41 -5 40 73 40 190 L40 311 C40 429 41 505 245 505 C451 505 452 429 452 311 L452 190 C452 73 451 -5 245 -5 L245 -5 Z M245 391 C167 391 158 369 158 308 L158 183 C158 121 167 101 245 101 C323 101 334 121 334 183 L334 308 C334 369 323 391 245 391 L245 391 Z M363 571 C381 580 394 599 394 621 C394 651 370 675 340 675 C331 675 321 672 313 668 C302 662 295 661 286 661 C254 661 228 685 197 685 C174 685 149 677 128 667 C110 658 97 639 97 617 C97 587 121 563 151 563 C160 563 170 566 178 570 C186 574 192 575 200 575 C232 575 255 550 285 550 C312 550 338 557 363 571 L363 571 Z " />
<glyph glyph-name="Odieresis" unicode="&#xd6;" horiz-adv-x="492" d="M245 -5 C451 -5 452 73 452 190 L452 311 C452 429 451 505 245 505 C41 505 40 429 40 311 L40 190 C40 73 41 -5 245 -5 L245 -5 Z M245 391 C323 391 334 369 334 308 L334 183 C334 121 323 101 245 101 C167 101 158 121 158 183 L158 308 C158 369 167 391 245 391 L245 391 Z M214 642 C214 663 188 685 155 685 C122 685 96 663 96 642 L96 592 C96 571 122 549 155 549 C188 549 214 571 214 592 L214 642 Z M395 642 C395 663 369 685 336 685 C303 685 277 663 277 642 L277 592 C277 571 303 549 336 549 C369 549 395 571 395 592 L395 642 Z " />
<glyph glyph-name="multiply" unicode="&#xd7;" horiz-adv-x="414" d="M207 121 L270 57 C280 47 293 41 309 41 C340 41 364 65 364 96 C364 111 358 124 349 134 L285 197 L349 263 C358 273 364 286 364 301 C364 332 340 356 309 356 C293 356 280 350 270 340 L207 276 L144 340 C134 350 121 356 105 356 C74 356 50 332 50 301 C50 286 56 273 65 263 L129 197 L65 134 C56 124 50 111 50 96 C50 65 74 41 105 41 C121 41 134 47 144 57 L207 121 Z " />
<glyph glyph-name="Oslash" unicode="&#xd8;" horiz-adv-x="492" d="M224 -4 C231 -4 238 -5 245 -5 C451 -5 452 73 452 190 L452 311 C452 398 451 462 370 490 L375 509 C376 513 377 517 377 521 C377 548 354 571 327 571 C306 571 287 556 281 536 L272 505 L245 505 C41 505 40 429 40 311 L40 190 C40 104 40 39 122 11 L119 0 C118 -4 117 -8 117 -12 C117 -39 142 -62 169 -62 C190 -62 211 -47 217 -27 L224 -4 Z M158 183 L158 308 C158 367 166 390 237 391 L161 141 C159 152 158 166 158 183 L158 183 Z M334 183 C334 124 324 103 255 102 L329 353 C333 341 334 327 334 308 L334 183 Z " />
<glyph glyph-name="Ugrave" unicode="&#xd9;" horiz-adv-x="518" d="M350 457 C350 478 376 500 409 500 C442 500 468 478 468 457 L468 190 C468 73 464 -5 259 -5 C54 -5 50 73 50 190 L50 457 C50 478 76 500 109 500 C142 500 168 478 168 457 L168 182 C168 121 182 101 259 101 C336 101 350 121 350 182 L350 457 Z M281 702 C273 725 251 741 225 741 C192 741 166 715 166 682 C166 677 167 672 168 668 L199 578 C207 561 224 550 245 550 C274 550 297 571 297 600 L281 702 Z " />
<glyph glyph-name="Uacute" unicode="&#xda;" horiz-adv-x="518" d="M350 457 C350 478 376 500 409 500 C442 500 468 478 468 457 L468 190 C468 73 464 -5 259 -5 C54 -5 50 73 50 190 L50 457 C50 478 76 500 109 500 C142 500 168 478 168 457 L168 182 C168 121 182 101 259 101 C336 101 350 121 350 182 L350 457 Z M222 600 C222 571 245 550 274 550 C295 550 312 561 320 578 L351 668 C352 672 353 677 353 682 C353 715 327 741 294 741 C268 741 246 725 238 702 L222 600 Z " />
<glyph glyph-name="Ucircumflex" unicode="&#xdb;" horiz-adv-x="518" d="M350 457 C350 478 376 500 409 500 C442 500 468 478 468 457 L468 190 C468 73 464 -5 259 -5 C54 -5 50 73 50 190 L50 457 C50 478 76 500 109 500 C142 500 168 478 168 457 L168 182 C168 121 182 101 259 101 C336 101 350 121 350 182 L350 457 Z M260 621 L272 584 C279 564 299 550 323 550 C352 550 375 573 375 602 C375 610 374 617 371 624 L346 689 C333 722 298 746 260 746 C222 746 187 722 174 689 L149 624 C146 617 145 610 145 602 C145 573 168 550 197 550 C221 550 241 564 248 584 L260 621 Z " />
<glyph glyph-name="Udieresis" unicode="&#xdc;" horiz-adv-x="518" d="M350 182 C350 121 336 101 259 101 C182 101 168 121 168 182 L168 457 C168 478 142 500 109 500 C76 500 50 478 50 457 L50 190 C50 73 54 -5 259 -5 C464 -5 468 73 468 190 L468 457 C468 478 442 500 409 500 C376 500 350 478 350 457 L350 182 Z M226 642 C226 663 200 685 167 685 C134 685 108 663 108 642 L108 592 C108 571 134 549 167 549 C200 549 226 571 226 592 L226 642 Z M407 642 C407 663 381 685 348 685 C315 685 289 663 289 642 L289 592 C289 571 315 549 348 549 C381 549 407 571 407 592 L407 642 Z " />
<glyph glyph-name="Yacute" unicode="&#xdd;" horiz-adv-x="424" d="M211 0 C244 0 270 22 270 43 L270 210 L404 406 C409 415 414 428 414 440 C414 474 388 500 354 500 C333 500 315 489 305 473 L212 334 L119 473 C109 489 91 500 70 500 C36 500 10 474 10 440 C10 428 15 415 20 406 L154 210 L154 43 C154 22 180 0 211 0 L211 0 Z M172 600 C172 571 195 550 224 550 C245 550 262 561 270 578 L301 668 C302 672 303 677 303 682 C303 715 277 741 244 741 C218 741 196 725 188 702 L172 600 Z " />
<glyph glyph-name="Thorn" unicode="&#xde;" horiz-adv-x="440" d="M248 184 L168 184 L168 307 L248 307 C274 307 306 304 306 250 C306 195 274 184 248 184 L248 184 Z M50 43 C50 22 76 0 109 0 C142 0 168 22 168 43 L168 78 L247 78 C343 78 425 81 425 250 C425 420 343 424 247 424 L168 424 L168 475 C168 496 142 518 109 518 C76 518 50 496 50 475 L50 43 Z " />
<glyph glyph-name="germandbls" unicode="&#xdf;" horiz-adv-x="455" d="M266 1 C370 5 412 30 415 144 L415 155 C415 196 405 233 375 260 C405 281 415 312 415 362 C415 471 349 501 230 501 C71 501 50 462 50 302 L50 43 C50 22 76 0 109 0 C142 0 168 22 168 43 L168 303 C168 376 175 384 230 384 C267 384 296 380 296 350 C296 325 287 316 267 314 C236 314 209 287 209 256 C209 224 236 198 267 198 C286 195 296 184 296 154 C296 130 285 119 266 115 C238 115 213 87 213 59 C213 30 238 1 266 1 L266 1 Z " />
<glyph glyph-name="agrave" unicode="&#xe0;" horiz-adv-x="392" d="M239 133 C222 115 201 101 175 101 C153 101 143 104 143 128 C143 148 181 148 221 148 L239 148 L239 133 Z M95 392 C73 385 56 364 56 338 C56 308 79 286 109 286 C113 286 119 286 123 287 C143 291 161 291 177 291 C209 291 239 285 239 239 L230 239 C206 251 196 255 162 255 C102 255 25 237 25 136 C25 33 68 -5 145 -5 C162 -5 212 -5 239 43 C239 22 265 0 298 0 C331 0 357 22 357 43 L357 249 C357 368 288 405 183 405 C159 405 127 400 95 392 L95 392 Z M237 607 C229 630 207 646 181 646 C148 646 122 620 122 587 C122 582 123 577 124 573 L155 483 C163 466 180 455 201 455 C230 455 253 476 253 505 L237 607 Z " />
<glyph glyph-name="aacute" unicode="&#xe1;" horiz-adv-x="392" d="M239 133 C222 115 201 101 175 101 C153 101 143 104 143 128 C143 148 181 148 221 148 L239 148 L239 133 Z M95 392 C73 385 56 364 56 338 C56 308 79 286 109 286 C113 286 119 286 123 287 C143 291 161 291 177 291 C209 291 239 285 239 239 L230 239 C206 251 196 255 162 255 C102 255 25 237 25 136 C25 33 68 -5 145 -5 C162 -5 212 -5 239 43 C239 22 265 0 298 0 C331 0 357 22 357 43 L357 249 C357 368 288 405 183 405 C159 405 127 400 95 392 L95 392 Z M154 505 C154 476 177 455 206 455 C227 455 244 466 252 483 L283 573 C284 577 285 582 285 587 C285 620 259 646 226 646 C200 646 178 630 170 607 L154 505 Z " />
<glyph glyph-name="acircumflex" unicode="&#xe2;" horiz-adv-x="392" d="M239 133 C222 115 201 101 175 101 C153 101 143 104 143 128 C143 148 181 148 221 148 L239 148 L239 133 Z M95 392 C73 385 56 364 56 338 C56 308 79 286 109 286 C113 286 119 286 123 287 C143 291 161 291 177 291 C209 291 239 285 239 239 L230 239 C206 251 196 255 162 255 C102 255 25 237 25 136 C25 33 68 -5 145 -5 C162 -5 212 -5 239 43 C239 22 265 0 298 0 C331 0 357 22 357 43 L357 249 C357 368 288 405 183 405 C159 405 127 400 95 392 L95 392 Z M201 526 L213 489 C220 469 240 455 264 455 C293 455 316 478 316 507 C316 515 315 522 312 529 L287 594 C274 627 239 651 201 651 C163 651 128 627 115 594 L90 529 C87 522 86 515 86 507 C86 478 109 455 138 455 C162 455 182 469 189 489 L201 526 Z " />
<glyph glyph-name="atilde" unicode="&#xe3;" horiz-adv-x="392" d="M239 133 C222 115 201 101 175 101 C153 101 143 104 143 128 C143 148 181 148 221 148 L239 148 L239 133 Z M95 392 C73 385 56 364 56 338 C56 308 79 286 109 286 C113 286 119 286 123 287 C143 291 161 291 177 291 C209 291 239 285 239 239 L230 239 C206 251 196 255 162 255 C102 255 25 237 25 136 C25 33 68 -5 145 -5 C162 -5 212 -5 239 43 C239 22 265 0 298 0 C331 0 357 22 357 43 L357 249 C357 368 288 405 183 405 C159 405 127 400 95 392 L95 392 Z M314 476 C332 485 345 504 345 526 C345 556 321 580 291 580 C282 580 272 577 264 573 C253 567 246 566 237 566 C205 566 179 590 148 590 C125 590 100 582 79 572 C61 563 48 544 48 522 C48 492 72 468 102 468 C111 468 121 471 129 475 C137 479 143 480 151 480 C183 480 206 455 236 455 C263 455 289 462 314 476 L314 476 Z " />
<glyph glyph-name="adieresis" unicode="&#xe4;" horiz-adv-x="392" d="M239 133 C222 115 201 101 175 101 C153 101 143 104 143 128 C143 148 181 148 221 148 L239 148 L239 133 Z M95 392 C73 385 56 364 56 338 C56 308 79 286 109 286 C113 286 119 286 123 287 C143 291 161 291 177 291 C209 291 239 285 239 239 L230 239 C206 251 196 255 162 255 C102 255 25 237 25 136 C25 33 68 -5 145 -5 C162 -5 212 -5 239 43 C239 22 265 0 298 0 C331 0 357 22 357 43 L357 249 C357 368 288 405 183 405 C159 405 127 400 95 392 L95 392 Z M168 548 C168 569 142 591 109 591 C76 591 50 569 50 548 L50 498 C50 477 76 455 109 455 C142 455 168 477 168 498 L168 548 Z M335 548 C335 569 309 591 276 591 C243 591 217 569 217 548 L217 498 C217 477 243 455 276 455 C309 455 335 477 335 498 L335 548 Z " />
<glyph glyph-name="aring" unicode="&#xe5;" horiz-adv-x="392" d="M209 667 C150 667 103 619 103 561 C103 502 150 455 209 455 C267 455 315 502 315 561 C315 619 267 667 209 667 L209 667 Z M209 537 C195 537 185 547 185 561 C185 574 195 585 209 585 C222 585 233 574 233 561 C233 547 222 537 209 537 L209 537 Z M239 133 C222 115 201 101 175 101 C153 101 143 104 143 128 C143 148 181 148 221 148 L239 148 L239 133 Z M95 392 C73 385 56 364 56 338 C56 308 79 286 109 286 C113 286 119 286 123 287 C143 291 161 291 177 291 C209 291 239 285 239 239 L230 239 C206 251 196 255 162 255 C102 255 25 237 25 136 C25 33 68 -5 145 -5 C162 -5 212 -5 239 43 C239 22 265 0 298 0 C331 0 357 22 357 43 L357 249 C357 368 288 405 183 405 C159 405 127 400 95 392 L95 392 Z " />
<glyph glyph-name="ae" unicode="&#xe6;" horiz-adv-x="608" d="M239 133 C222 115 201 101 175 101 C153 101 143 104 143 128 C143 148 181 148 221 148 L239 148 L239 133 Z M455 239 L358 239 C361 285 375 291 408 291 C449 291 455 277 455 255 L455 239 Z M522 6 C545 12 564 33 564 57 C564 86 539 108 510 108 C473 102 434 101 417 101 C385 101 358 116 357 146 L514 146 C547 146 573 172 573 205 L573 239 C573 351 551 405 408 405 C356 405 320 398 294 364 C265 399 227 405 183 405 C159 405 128 400 96 392 C74 385 57 364 57 338 C57 308 80 286 110 286 C114 286 121 286 125 287 C144 291 162 291 177 291 C209 291 239 285 239 239 L230 239 C206 251 196 255 162 255 C102 255 25 237 25 136 C25 33 68 -5 169 -5 C186 -5 271 -5 293 51 C317 4 353 -5 418 -5 C443 -5 484 -1 522 6 L522 6 Z " />
<glyph glyph-name="ccedilla" unicode="&#xe7;" horiz-adv-x="376" d="M291 109 C259 103 227 101 209 101 C177 101 153 111 153 141 L153 251 C153 281 177 291 209 291 C225 291 253 288 282 283 C285 282 289 282 293 282 C324 282 350 308 350 339 C350 366 330 390 304 395 C269 401 233 405 210 405 C104 405 35 364 35 248 L35 152 C35 36 104 -5 210 -5 C234 -5 274 -1 311 6 C334 12 352 33 352 57 C352 86 328 110 299 110 C296 110 294 109 291 109 L291 109 Z M242 -103 C242 -74 219 -53 190 -53 C169 -53 152 -64 144 -81 L113 -171 C112 -175 111 -180 111 -185 C111 -218 137 -244 170 -244 C196 -244 218 -228 226 -205 L242 -103 Z " />
<glyph glyph-name="egrave" unicode="&#xe8;" horiz-adv-x="403" d="M368 239 C368 351 346 405 203 405 C65 405 35 354 35 223 L35 152 C35 36 108 -5 213 -5 C238 -5 280 -1 318 6 C341 12 359 33 359 57 C359 86 334 108 305 108 C268 101 230 101 212 101 C180 101 153 116 152 146 L309 146 C342 146 368 172 368 205 L368 239 Z M203 291 C244 291 250 277 250 255 L250 239 L153 239 C156 285 170 291 203 291 L203 291 Z M237 607 C229 630 207 646 181 646 C148 646 122 620 122 587 C122 582 123 577 124 573 L155 483 C163 466 180 455 201 455 C230 455 253 476 253 505 L237 607 Z " />
<glyph glyph-name="eacute" unicode="&#xe9;" horiz-adv-x="403" d="M368 239 C368 351 346 405 203 405 C65 405 35 354 35 223 L35 152 C35 36 108 -5 213 -5 C238 -5 280 -1 318 6 C341 12 359 33 359 57 C359 86 334 108 305 108 C268 101 230 101 212 101 C180 101 153 116 152 146 L309 146 C342 146 368 172 368 205 L368 239 Z M203 291 C244 291 250 277 250 255 L250 239 L153 239 C156 285 170 291 203 291 L203 291 Z M165 505 C165 476 188 455 217 455 C238 455 255 466 263 483 L294 573 C295 577 296 582 296 587 C296 620 270 646 237 646 C211 646 189 630 181 607 L165 505 Z " />
<glyph glyph-name="ecircumflex" unicode="&#xea;" horiz-adv-x="403" d="M368 239 C368 351 346 405 203 405 C65 405 35 354 35 223 L35 152 C35 36 108 -5 213 -5 C238 -5 280 -1 318 6 C341 12 359 33 359 57 C359 86 334 108 305 108 C268 101 230 101 212 101 C180 101 153 116 152 146 L309 146 C342 146 368 172 368 205 L368 239 Z M203 291 C244 291 250 277 250 255 L250 239 L153 239 C156 285 170 291 203 291 L203 291 Z M204 526 L216 489 C223 469 243 455 267 455 C296 455 319 478 319 507 C319 515 318 522 315 529 L290 594 C277 627 242 651 204 651 C166 651 131 627 118 594 L93 529 C90 522 89 515 89 507 C89 478 112 455 141 455 C165 455 185 469 192 489 L204 526 Z " />
<glyph glyph-name="edieresis" unicode="&#xeb;" horiz-adv-x="403" d="M368 239 C368 351 346 405 203 405 C65 405 35 354 35 223 L35 152 C35 36 108 -5 213 -5 C238 -5 280 -1 318 6 C341 12 359 33 359 57 C359 86 334 108 305 108 C268 101 230 101 212 101 C180 101 153 116 152 146 L309 146 C342 146 368 172 368 205 L368 239 Z M203 291 C244 291 250 277 250 255 L250 239 L153 239 C156 285 170 291 203 291 L203 291 Z M186 548 C186 569 160 591 127 591 C94 591 68 569 68 548 L68 498 C68 477 94 455 127 455 C160 455 186 477 186 498 L186 548 Z M353 548 C353 569 327 591 294 591 C261 591 235 569 235 548 L235 498 C235 477 261 455 294 455 C327 455 353 477 353 498 L353 548 Z " />
<glyph glyph-name="igrave" unicode="&#xec;" horiz-adv-x="218" d="M50 357 C50 378 76 400 109 400 C142 400 168 378 168 357 L168 43 C168 22 142 0 109 0 C76 0 50 22 50 43 L50 357 Z M137 607 C129 630 107 646 81 646 C48 646 22 620 22 587 C22 582 23 577 24 573 L55 483 C63 466 80 455 101 455 C130 455 153 476 153 505 L137 607 Z " />
<glyph glyph-name="iacute" unicode="&#xed;" horiz-adv-x="218" d="M50 357 C50 378 76 400 109 400 C142 400 168 378 168 357 L168 43 C168 22 142 0 109 0 C76 0 50 22 50 43 L50 357 Z M66 505 C66 476 89 455 118 455 C139 455 156 466 164 483 L195 573 C196 577 197 582 197 587 C197 620 171 646 138 646 C112 646 90 630 82 607 L66 505 Z " />
<glyph glyph-name="icircumflex" unicode="&#xee;" horiz-adv-x="218" d="M50 357 C50 378 76 400 109 400 C142 400 168 378 168 357 L168 43 C168 22 142 0 109 0 C76 0 50 22 50 43 L50 357 Z M106 526 L118 489 C125 469 145 455 169 455 C198 455 221 478 221 507 C221 515 220 522 217 529 L192 594 C179 627 144 651 106 651 C68 651 33 627 20 594 L-5 529 C-8 522 -9 515 -9 507 C-9 478 14 455 43 455 C67 455 87 469 94 489 L106 526 Z " />
<glyph glyph-name="idieresis" unicode="&#xef;" horiz-adv-x="218" d="M50 43 C50 22 76 0 109 0 C142 0 168 22 168 43 L168 357 C168 378 142 400 109 400 C76 400 50 378 50 357 L50 43 Z M80 548 C80 569 54 591 21 591 C-12 591 -38 569 -38 548 L-38 498 C-38 477 -12 455 21 455 C54 455 80 477 80 498 L80 548 Z M251 548 C251 569 225 591 192 591 C159 591 133 569 133 548 L133 498 C133 477 159 455 192 455 C225 455 251 477 251 498 L251 548 Z " />
<glyph glyph-name="eth" unicode="&#xf0;" horiz-adv-x="406" d="M253 157 C253 133 252 101 203 101 C154 101 153 133 153 157 L153 235 C153 259 154 291 203 291 C252 291 253 259 253 235 L253 157 Z M123 550 C122 550 102 550 101 549 C85 549 63 520 63 498 C63 470 88 446 116 446 L179 446 L203 405 C38 405 35 332 35 236 L35 162 C35 68 38 -5 203 -5 C365 -5 371 68 371 162 L371 273 C371 321 343 383 313 446 L318 446 C346 446 371 470 371 498 C371 526 346 551 318 551 L256 551 L238 584 C228 604 206 619 182 619 C148 619 118 597 118 563 L123 550 Z " />
<glyph glyph-name="ntilde" unicode="&#xf1;" horiz-adv-x="435" d="M50 43 C50 22 76 0 109 0 C142 0 168 22 168 43 L168 253 C168 279 181 291 222 291 C266 291 267 258 267 231 L267 43 C267 22 293 0 326 0 C359 0 385 22 385 43 L385 245 C385 336 352 405 250 405 C221 405 188 401 164 361 L155 361 C155 381 132 400 102 400 C73 400 50 380 50 362 L50 43 Z M338 476 C356 485 369 504 369 526 C369 556 345 580 315 580 C306 580 296 577 288 573 C277 567 270 566 261 566 C229 566 203 590 172 590 C149 590 124 582 103 572 C85 563 72 544 72 522 C72 492 96 468 126 468 C135 468 145 471 153 475 C161 479 167 480 175 480 C207 480 230 455 260 455 C287 455 313 462 338 476 L338 476 Z " />
<glyph glyph-name="ograve" unicode="&#xf2;" horiz-adv-x="406" d="M203 405 C38 405 35 332 35 236 L35 162 C35 68 38 -5 203 -5 C365 -5 371 68 371 162 L371 236 C371 332 365 405 203 405 L203 405 Z M253 157 C253 133 252 101 203 101 C154 101 153 133 153 157 L153 235 C153 259 154 291 203 291 C252 291 253 259 253 235 L253 157 Z M226 607 C218 630 196 646 170 646 C137 646 111 620 111 587 C111 582 112 577 113 573 L144 483 C152 466 169 455 190 455 C219 455 242 476 242 505 L226 607 Z " />
<glyph glyph-name="oacute" unicode="&#xf3;" horiz-adv-x="406" d="M203 405 C38 405 35 332 35 236 L35 162 C35 68 38 -5 203 -5 C365 -5 371 68 371 162 L371 236 C371 332 365 405 203 405 L203 405 Z M253 157 C253 133 252 101 203 101 C154 101 153 133 153 157 L153 235 C153 259 154 291 203 291 C252 291 253 259 253 235 L253 157 Z M161 505 C161 476 184 455 213 455 C234 455 251 466 259 483 L290 573 C291 577 292 582 292 587 C292 620 266 646 233 646 C207 646 185 630 177 607 L161 505 Z " />
<glyph glyph-name="ocircumflex" unicode="&#xf4;" horiz-adv-x="406" d="M203 405 C38 405 35 332 35 236 L35 162 C35 68 38 -5 203 -5 C365 -5 371 68 371 162 L371 236 C371 332 365 405 203 405 L203 405 Z M253 157 C253 133 252 101 203 101 C154 101 153 133 153 157 L153 235 C153 259 154 291 203 291 C252 291 253 259 253 235 L253 157 Z M203 526 L215 489 C222 469 242 455 266 455 C295 455 318 478 318 507 C318 515 317 522 314 529 L289 594 C276 627 241 651 203 651 C165 651 130 627 117 594 L92 529 C89 522 88 515 88 507 C88 478 111 455 140 455 C164 455 184 469 191 489 L203 526 Z " />
<glyph glyph-name="otilde" unicode="&#xf5;" horiz-adv-x="406" d="M203 405 C38 405 35 332 35 236 L35 162 C35 68 38 -5 203 -5 C365 -5 371 68 371 162 L371 236 C371 332 365 405 203 405 L203 405 Z M253 157 C253 133 252 101 203 101 C154 101 153 133 153 157 L153 235 C153 259 154 291 203 291 C252 291 253 259 253 235 L253 157 Z M322 476 C340 485 353 504 353 526 C353 556 329 580 299 580 C290 580 280 577 272 573 C261 567 254 566 245 566 C213 566 187 590 156 590 C133 590 108 582 87 572 C69 563 56 544 56 522 C56 492 80 468 110 468 C119 468 129 471 137 475 C145 479 151 480 159 480 C191 480 214 455 244 455 C271 455 297 462 322 476 L322 476 Z " />
<glyph glyph-name="odieresis" unicode="&#xf6;" horiz-adv-x="406" d="M203 405 C38 405 35 332 35 236 L35 162 C35 68 38 -5 203 -5 C365 -5 371 68 371 162 L371 236 C371 332 365 405 203 405 L203 405 Z M253 157 C253 133 252 101 203 101 C154 101 153 133 153 157 L153 235 C153 259 154 291 203 291 C252 291 253 259 253 235 L253 157 Z M178 548 C178 569 152 591 119 591 C86 591 60 569 60 548 L60 498 C60 477 86 455 119 455 C152 455 178 477 178 498 L178 548 Z M345 548 C345 569 319 591 286 591 C253 591 227 569 227 548 L227 498 C227 477 253 455 286 455 C319 455 345 477 345 498 L345 548 Z " />
<glyph glyph-name="divide" unicode="&#xf7;" horiz-adv-x="494" d="M105 286 C75 286 50 261 50 231 C50 201 75 176 105 176 L389 176 C419 176 444 201 444 231 C444 261 419 286 389 286 L105 286 Z M190 365 C190 344 216 322 249 322 C282 322 308 344 308 365 L308 415 C308 436 282 458 249 458 C216 458 190 436 190 415 L190 365 Z M190 47 C190 26 216 4 249 4 C282 4 308 26 308 47 L308 97 C308 118 282 140 249 140 C216 140 190 118 190 97 L190 47 Z " />
<glyph glyph-name="oslash" unicode="&#xf8;" horiz-adv-x="429" d="M154 235 C154 255 161 280 191 288 L154 166 L154 235 Z M275 157 C275 138 267 114 240 105 L275 221 L275 157 Z M208 -5 L214 -5 C376 -5 394 68 394 162 L394 236 C394 303 385 359 324 386 L325 390 C326 394 327 398 327 402 C327 429 304 452 277 452 C256 452 237 437 231 417 L227 405 L214 405 C49 405 35 332 35 236 L35 162 C35 95 42 39 106 12 L105 9 C104 5 103 1 103 -3 C103 -30 128 -53 155 -53 C176 -53 198 -38 204 -18 L208 -5 Z " />
<glyph glyph-name="ugrave" unicode="&#xf9;" horiz-adv-x="422" d="M267 39 C267 19 290 0 320 0 C349 0 372 20 372 38 L372 357 C372 378 346 400 313 400 C280 400 254 378 254 357 L254 139 C254 113 240 101 199 101 C155 101 153 134 153 161 L153 357 C153 378 127 400 94 400 C61 400 35 378 35 357 L35 155 C35 64 69 -5 171 -5 C200 -5 233 -1 257 39 L267 39 Z M229 607 C221 630 199 646 173 646 C140 646 114 620 114 587 C114 582 115 577 116 573 L147 483 C155 466 172 455 193 455 C222 455 245 476 245 505 L229 607 Z " />
<glyph glyph-name="uacute" unicode="&#xfa;" horiz-adv-x="422" d="M267 39 C267 19 290 0 320 0 C349 0 372 20 372 38 L372 357 C372 378 346 400 313 400 C280 400 254 378 254 357 L254 139 C254 113 240 101 199 101 C155 101 153 134 153 161 L153 357 C153 378 127 400 94 400 C61 400 35 378 35 357 L35 155 C35 64 69 -5 171 -5 C200 -5 233 -1 257 39 L267 39 Z M161 505 C161 476 184 455 213 455 C234 455 251 466 259 483 L290 573 C291 577 292 582 292 587 C292 620 266 646 233 646 C207 646 185 630 177 607 L161 505 Z " />
<glyph glyph-name="ucircumflex" unicode="&#xfb;" horiz-adv-x="422" d="M267 39 C267 19 290 0 320 0 C349 0 372 20 372 38 L372 357 C372 378 346 400 313 400 C280 400 254 378 254 357 L254 139 C254 113 240 101 199 101 C155 101 153 134 153 161 L153 357 C153 378 127 400 94 400 C61 400 35 378 35 357 L35 155 C35 64 69 -5 171 -5 C200 -5 233 -1 257 39 L267 39 Z M201 526 L213 489 C220 469 240 455 264 455 C293 455 316 478 316 507 C316 515 315 522 312 529 L287 594 C274 627 239 651 201 651 C163 651 128 627 115 594 L90 529 C87 522 86 515 86 507 C86 478 109 455 138 455 C162 455 182 469 189 489 L201 526 Z " />
<glyph glyph-name="udieresis" unicode="&#xfc;" horiz-adv-x="422" d="M267 39 C267 19 290 0 320 0 C349 0 372 20 372 38 L372 357 C372 378 346 400 313 400 C280 400 254 378 254 357 L254 139 C254 113 240 101 199 101 C155 101 153 134 153 161 L153 357 C153 378 127 400 94 400 C61 400 35 378 35 357 L35 155 C35 64 69 -5 171 -5 C200 -5 233 -1 257 39 L267 39 Z M177 548 C177 569 151 591 118 591 C85 591 59 569 59 548 L59 498 C59 477 85 455 118 455 C151 455 177 477 177 498 L177 548 Z M344 548 C344 569 318 591 285 591 C252 591 226 569 226 548 L226 498 C226 477 252 455 285 455 C318 455 344 477 344 498 L344 548 Z " />
<glyph glyph-name="yacute" unicode="&#xfd;" horiz-adv-x="391" d="M103 33 C106 20 117 10 130 7 C141 4 150 1 157 0 L161 0 L161 -10 C154 -13 152 -14 149 -25 L124 -108 C122 -114 121 -120 121 -126 C121 -158 147 -184 179 -184 C205 -184 228 -167 235 -142 L376 333 L376 341 C376 373 350 400 318 400 C291 400 268 381 261 356 L196 137 L130 356 C123 381 100 400 73 400 C41 400 15 373 15 341 L15 333 L103 33 Z M160 505 C160 476 183 455 212 455 C233 455 250 466 258 483 L289 573 C290 577 291 582 291 587 C291 620 265 646 232 646 C206 646 184 630 176 607 L160 505 Z " />
<glyph glyph-name="thorn" unicode="&#xfe;" horiz-adv-x="438" d="M304 172 C304 117 272 106 246 106 L168 106 L168 288 L246 288 C272 288 304 285 304 230 L304 172 Z M50 -141 C50 -162 76 -184 109 -184 C142 -184 168 -162 168 -141 L168 0 L245 0 C342 0 423 4 423 172 L423 231 C423 401 342 405 245 405 L168 405 L168 475 C168 496 142 518 109 518 C76 518 50 496 50 475 L50 -141 Z " />
<glyph glyph-name="ydieresis" unicode="&#xff;" horiz-adv-x="391" d="M103 33 C106 20 117 10 130 7 C141 4 150 1 157 0 L161 0 L161 -10 C154 -13 152 -14 149 -25 L124 -108 C122 -114 121 -120 121 -126 C121 -158 147 -184 179 -184 C205 -184 228 -167 235 -142 L376 333 L376 341 C376 373 350 400 318 400 C291 400 268 381 261 356 L196 137 L130 356 C123 381 100 400 73 400 C41 400 15 373 15 341 L15 333 L103 33 Z M172 548 C172 569 146 591 113 591 C80 591 54 569 54 548 L54 498 C54 477 80 455 113 455 C146 455 172 477 172 498 L172 548 Z M339 548 C339 569 313 591 280 591 C247 591 221 569 221 548 L221 498 C221 477 247 455 280 455 C313 455 339 477 339 498 L339 548 Z " />
<glyph glyph-name="dotlessi" unicode="&#x131;" horiz-adv-x="218" d="M50 43 C50 22 76 0 109 0 C142 0 168 22 168 43 L168 357 C168 378 142 400 109 400 C76 400 50 378 50 357 L50 43 Z " />
<glyph glyph-name="Lslash" unicode="&#x141;" horiz-adv-x="427" d="M70 54 C70 25 95 0 124 0 L364 0 C392 0 417 24 417 53 C417 81 392 106 364 106 L188 106 L188 201 L248 212 C275 217 296 241 296 270 C296 303 269 330 236 330 L188 321 L188 457 C188 478 162 500 129 500 C96 500 70 478 70 457 L70 301 L58 299 C31 294 10 270 10 241 C10 208 37 181 70 181 L70 54 Z " />
<glyph glyph-name="lslash" unicode="&#x142;" horiz-adv-x="255" d="M195 330 L177 327 L177 457 C177 478 151 500 118 500 C85 500 59 478 59 457 L59 301 L48 299 C21 293 0 270 0 241 C0 208 26 182 59 181 L59 43 C59 22 85 0 118 0 C151 0 177 22 177 43 L177 206 L207 212 C234 218 255 241 255 270 C255 303 228 330 195 330 L195 330 Z " />
<glyph glyph-name="OE" unicode="&#x152;" horiz-adv-x="701" d="M255 101 C206 101 158 127 158 184 L158 319 C158 365 207 391 256 391 C268 391 284 390 302 388 L302 104 C283 102 267 101 255 101 L255 101 Z M576 196 C605 196 629 220 629 249 C629 278 605 302 576 302 L421 302 L421 386 L601 386 C632 386 658 412 658 443 C658 474 632 500 601 500 L332 500 C303 503 276 505 258 505 C126 505 40 443 40 311 L40 190 C40 43 126 -5 258 -5 C279 -5 312 -4 348 0 L605 0 C634 0 658 24 658 53 C658 82 634 106 605 106 L421 106 L421 196 L576 196 Z " />
<glyph glyph-name="oe" unicode="&#x153;" horiz-adv-x="626" d="M258 157 C258 133 257 101 208 101 C159 101 158 133 158 157 L158 235 C158 259 159 291 208 291 C257 291 258 259 258 235 L258 157 Z M426 291 C467 291 473 277 473 255 L473 239 L376 239 C379 285 393 291 426 291 L426 291 Z M541 6 C564 12 582 33 582 57 C582 86 556 108 527 108 C490 102 452 101 435 101 C406 101 381 113 376 138 L376 146 L532 146 C565 146 591 172 591 205 L591 239 C591 351 569 405 426 405 C378 405 343 394 318 370 C293 393 258 405 208 405 C43 405 40 332 40 236 L40 162 C40 68 43 -5 208 -5 C263 -5 300 10 325 35 C354 9 392 -5 436 -5 C461 -5 503 -1 541 6 L541 6 Z " />
<glyph glyph-name="Scaron" unicode="&#x160;" horiz-adv-x="449" d="M100 134 C96 135 92 135 88 135 C57 135 31 108 31 77 C31 55 46 35 64 26 C117 1 189 -5 229 -5 C321 -5 419 8 419 157 C419 295 149 308 149 353 C149 387 178 391 233 391 C262 391 300 387 333 380 C337 379 341 379 345 379 C376 379 402 404 402 435 C402 461 384 483 360 489 C314 501 263 505 231 505 C108 505 30 466 30 353 C30 208 300 202 300 147 C300 111 264 101 230 101 C204 101 148 112 100 134 L100 134 Z M223 712 C216 732 196 746 172 746 C143 746 120 723 120 694 C120 686 121 679 124 672 L149 607 C162 574 197 550 235 550 C273 550 308 574 321 607 L346 672 C349 679 350 686 350 694 C350 723 327 746 298 746 C274 746 254 732 247 712 L235 675 L223 712 Z " />
<glyph glyph-name="scaron" unicode="&#x161;" horiz-adv-x="376" d="M73 12 C52 19 35 40 35 63 C35 91 59 114 88 114 C121 107 170 101 189 101 C220 101 227 113 227 120 C227 159 30 135 30 280 C30 374 91 405 191 405 C214 405 251 401 286 393 C309 386 327 363 327 338 C327 308 301 283 270 283 C244 283 219 291 193 291 C158 291 149 289 149 274 C149 230 346 249 346 128 C346 33 304 -5 189 -5 C160 -5 114 2 73 12 L73 12 Z M178 617 C171 637 151 651 127 651 C98 651 75 628 75 599 C75 591 76 584 79 577 L104 512 C117 479 152 455 190 455 C228 455 263 479 276 512 L301 577 C304 584 305 591 305 599 C305 628 282 651 253 651 C229 651 209 637 202 617 L190 580 L178 617 Z " />
<glyph glyph-name="Ydieresis" unicode="&#x178;" horiz-adv-x="424" d="M211 0 C244 0 270 22 270 43 L270 210 L404 406 C409 415 414 428 414 440 C414 474 388 500 354 500 C333 500 315 489 305 473 L212 334 L119 473 C109 489 91 500 70 500 C36 500 10 474 10 440 C10 428 15 415 20 406 L154 210 L154 43 C154 22 180 0 211 0 L211 0 Z M181 642 C181 663 155 685 122 685 C89 685 63 663 63 642 L63 592 C63 571 89 549 122 549 C155 549 181 571 181 592 L181 642 Z M362 642 C362 663 336 685 303 685 C270 685 244 663 244 642 L244 592 C244 571 270 549 303 549 C336 549 362 571 362 592 L362 642 Z " />
<glyph glyph-name="Zcaron" unicode="&#x17d;" horiz-adv-x="429" d="M366 0 C394 0 419 24 419 53 C419 81 394 106 366 106 L177 106 C336 313 381 375 396 396 C405 407 411 421 411 437 C411 472 383 500 348 500 L68 500 C36 500 10 473 10 441 C10 408 36 383 68 383 L238 383 L25 104 C16 93 10 79 10 63 C10 28 38 0 73 0 L366 0 Z M210 712 C203 732 183 746 159 746 C130 746 107 723 107 694 C107 686 108 679 111 672 L136 607 C149 574 184 550 222 550 C260 550 295 574 308 607 L333 672 C336 679 337 686 337 694 C337 723 314 746 285 746 C261 746 241 732 234 712 L222 675 L210 712 Z " />
<glyph glyph-name="zcaron" unicode="&#x17e;" horiz-adv-x="383" d="M85 400 C55 400 30 374 30 344 C30 313 55 289 85 289 L180 289 L45 104 C36 93 30 79 30 63 C30 28 58 0 93 0 L301 0 C329 0 353 23 353 51 C353 79 329 103 301 103 L194 103 L329 296 C338 307 344 321 344 337 C344 372 316 400 281 400 L85 400 Z M186 617 C179 637 159 651 135 651 C106 651 83 628 83 599 C83 591 84 584 87 577 L112 512 C125 479 160 455 198 455 C236 455 271 479 284 512 L309 577 C312 584 313 591 313 599 C313 628 290 651 261 651 C237 651 217 637 210 617 L198 580 L186 617 Z " />
<glyph glyph-name="florin" unicode="&#x192;" horiz-adv-x="313" d="M244 259 C274 259 299 284 299 314 C299 344 274 369 244 369 L202 369 C204 388 205 405 239 405 C244 405 251 404 257 404 C288 404 313 428 313 459 C313 485 295 507 271 513 C242 518 221 519 214 519 C126 519 90 482 79 369 L65 369 C35 369 10 344 10 314 C10 284 35 259 65 259 L71 259 L36 -127 C36 -160 62 -186 95 -186 C126 -186 152 -163 155 -134 L191 259 L244 259 Z " />
<glyph glyph-name="circumflex" unicode="&#x2c6;" horiz-adv-x="330" d="M165 411 L177 374 C184 354 204 340 228 340 C257 340 280 363 280 392 C280 400 279 407 276 414 L251 479 C238 512 203 536 165 536 C127 536 92 512 79 479 L54 414 C51 407 50 400 50 392 C50 363 73 340 102 340 C126 340 146 354 153 374 L165 411 Z " />
<glyph glyph-name="caron" unicode="&#x2c7;" horiz-adv-x="330" d="M153 502 C146 522 126 536 102 536 C73 536 50 513 50 484 C50 476 51 469 54 462 L79 397 C92 364 127 340 165 340 C203 340 238 364 251 397 L276 462 C279 469 280 476 280 484 C280 513 257 536 228 536 C204 536 184 522 177 502 L165 465 L153 502 Z " />
<glyph glyph-name="breve" unicode="&#x2d8;" horiz-adv-x="446" d="M223 320 C338 320 385 335 396 437 C396 472 370 500 335 500 C307 500 284 483 276 458 C270 438 256 426 223 426 C190 426 176 438 170 458 C162 483 139 500 111 500 C76 500 50 472 50 437 C61 335 108 320 223 320 L223 320 Z " />
<glyph glyph-name="dotaccent" unicode="&#x2d9;" horiz-adv-x="218" d="M168 493 C168 514 142 536 109 536 C76 536 50 514 50 493 L50 444 C50 423 76 401 109 401 C142 401 168 423 168 444 L168 493 Z " />
<glyph glyph-name="ring" unicode="&#x2da;" horiz-adv-x="312" d="M156 536 C97 536 50 488 50 430 C50 371 97 324 156 324 C214 324 262 371 262 430 C262 488 214 536 156 536 L156 536 Z M156 406 C142 406 132 416 132 430 C132 443 142 454 156 454 C169 454 180 443 180 430 C180 416 169 406 156 406 L156 406 Z " />
<glyph glyph-name="ogonek" unicode="&#x2db;" horiz-adv-x="231" d="M66 -205 C74 -228 96 -244 122 -244 C155 -244 181 -218 181 -185 C181 -180 180 -175 179 -171 L148 -81 C140 -64 123 -53 102 -53 C73 -53 50 -74 50 -103 L66 -205 Z " />
<glyph glyph-name="tilde" unicode="&#x2dc;" horiz-adv-x="397" d="M316 422 C334 431 347 450 347 472 C347 502 323 526 293 526 C284 526 274 523 266 519 C255 513 248 512 239 512 C207 512 181 536 150 536 C127 536 102 528 81 518 C63 509 50 490 50 468 C50 438 74 414 104 414 C113 414 123 417 131 421 C139 425 145 426 153 426 C185 426 208 401 238 401 C265 401 291 408 316 422 L316 422 Z " />
<glyph glyph-name="hungarumlaut" unicode="&#x2dd;" horiz-adv-x="414" d="M50 395 C50 366 73 345 102 345 C123 345 140 356 148 373 L179 463 C180 467 181 472 181 477 C181 510 155 536 122 536 C96 536 74 520 66 497 L50 395 Z M233 395 C233 366 256 345 285 345 C306 345 323 356 331 373 L362 463 C363 467 364 472 364 477 C364 510 338 536 305 536 C279 536 257 520 249 497 L233 395 Z " />
<glyph glyph-name="pi" unicode="&#x3c0;" horiz-adv-x="546" d="M428 292 L438 292 C469 292 496 319 496 350 C496 382 469 409 438 409 L108 409 C77 409 50 382 50 350 C50 319 77 292 108 292 L116 292 L116 43 C116 22 142 0 175 0 C208 0 234 22 234 43 L234 292 L310 292 L310 43 C310 22 336 0 369 0 C402 0 428 22 428 43 L428 292 Z " />
<glyph glyph-name="nptp3.001march2007p" unicode="&#xe3b;" d="" />
<glyph glyph-name="nptp3.001march2007u" unicode="&#xe3c;" d="" />
<glyph glyph-name="nptp3.001march2007c" unicode="&#xe3d;" d="" />
<glyph glyph-name="nptp3.001march2007r" unicode="&#xe3e;" d="" />
<glyph glyph-name="bahtthai" unicode="&#xe3f;" horiz-adv-x="491" d="M50 54 C50 25 75 0 104 0 L192 0 L192 -27 C192 -46 215 -65 244 -65 C273 -65 296 -46 296 -27 L296 0 C376 2 441 19 441 156 C441 195 427 227 400 250 C430 271 441 299 441 344 C441 481 376 498 296 500 L296 519 C296 538 273 557 244 557 C215 557 192 538 192 519 L192 500 L104 500 C75 500 50 475 50 446 L50 54 Z M169 195 L192 195 L192 106 L169 106 L169 195 Z M169 386 L192 386 L192 301 L169 301 L169 386 Z M322 151 C322 128 310 116 296 110 L296 190 C310 184 322 172 322 151 L322 151 Z M322 345 C322 322 310 311 296 305 L296 382 C311 377 322 367 322 345 L322 345 Z " />
<glyph glyph-name="ZWSP" unicode="&#x200b;" d="" />
<glyph glyph-name="endash" unicode="&#x2013;" horiz-adv-x="518" d="M105 263 C75 263 50 238 50 208 C50 178 75 153 105 153 L413 153 C443 153 468 178 468 208 C468 238 443 263 413 263 L105 263 Z " />
<glyph glyph-name="emdash" unicode="&#x2014;" horiz-adv-x="611" d="M105 263 C75 263 50 238 50 208 C50 178 75 153 105 153 L506 153 C536 153 561 178 561 208 C561 238 536 263 506 263 L105 263 Z " />
<glyph glyph-name="quoteleft" unicode="&#x2018;" horiz-adv-x="231" d="M181 486 C181 515 158 536 129 536 C108 536 91 525 83 508 L52 418 C51 414 50 409 50 404 C50 371 76 345 109 345 C135 345 157 361 165 384 L181 486 Z " />
<glyph glyph-name="quoteright" unicode="&#x2019;" horiz-adv-x="231" d="M50 395 C50 366 73 345 102 345 C123 345 140 356 148 373 L179 463 C180 467 181 472 181 477 C181 510 155 536 122 536 C96 536 74 520 66 497 L50 395 Z " />
<glyph glyph-name="quotesinglbase" unicode="&#x201a;" horiz-adv-x="231" d="M50 -71 C50 -100 73 -121 102 -121 C123 -121 140 -110 148 -93 L179 -3 C180 1 181 6 181 11 C181 44 155 70 122 70 C96 70 74 54 66 31 L50 -71 Z " />
<glyph glyph-name="quotedblleft" unicode="&#x201c;" horiz-adv-x="414" d="M364 486 C364 515 341 536 312 536 C291 536 274 525 266 508 L235 418 C234 414 233 409 233 404 C233 371 259 345 292 345 C318 345 340 361 348 384 L364 486 Z M181 486 C181 515 158 536 129 536 C108 536 91 525 83 508 L52 418 C51 414 50 409 50 404 C50 371 76 345 109 345 C135 345 157 361 165 384 L181 486 Z " />
<glyph glyph-name="quotedblright" unicode="&#x201d;" horiz-adv-x="414" d="M50 395 C50 366 73 345 102 345 C123 345 140 356 148 373 L179 463 C180 467 181 472 181 477 C181 510 155 536 122 536 C96 536 74 520 66 497 L50 395 Z M233 395 C233 366 256 345 285 345 C306 345 323 356 331 373 L362 463 C363 467 364 472 364 477 C364 510 338 536 305 536 C279 536 257 520 249 497 L233 395 Z " />
<glyph glyph-name="quotedblbase" unicode="&#x201e;" horiz-adv-x="414" d="M50 -70 C50 -99 73 -120 102 -120 C123 -120 140 -109 148 -92 L179 -2 C180 2 181 7 181 12 C181 45 155 71 122 71 C96 71 74 55 66 32 L50 -70 Z M233 -70 C233 -99 256 -120 285 -120 C306 -120 323 -109 331 -92 L362 -2 C363 2 364 7 364 12 C364 45 338 71 305 71 C279 71 257 55 249 32 L233 -70 Z " />
<glyph glyph-name="dagger" unicode="&#x2020;" horiz-adv-x="444" d="M281 373 L281 478 C281 499 255 521 222 521 C189 521 163 499 163 478 L163 373 L108 373 C77 373 50 346 50 314 C50 283 77 256 108 256 L163 256 L163 -136 C163 -157 189 -179 222 -179 C255 -179 281 -157 281 -136 L281 256 L336 256 C367 256 394 283 394 314 C394 346 367 373 336 373 L281 373 Z " />
<glyph glyph-name="daggerdbl" unicode="&#x2021;" horiz-adv-x="444" d="M336 0 C367 0 394 27 394 58 C394 90 367 117 336 117 L281 117 L281 256 L336 256 C367 256 394 283 394 314 C394 346 367 373 336 373 L281 373 L281 478 C281 499 255 521 222 521 C189 521 163 499 163 478 L163 373 L108 373 C77 373 50 346 50 314 C50 283 77 256 108 256 L163 256 L163 117 L108 117 C77 117 50 90 50 58 C50 27 77 0 108 0 L163 0 L163 -136 C163 -157 189 -179 222 -179 C255 -179 281 -157 281 -136 L281 0 L336 0 Z " />
<glyph glyph-name="bullet" unicode="&#x2022;" horiz-adv-x="277" d="M50 198 C50 150 91 112 138 112 C186 112 227 150 227 198 C227 249 186 287 138 287 C91 287 50 249 50 198 L50 198 Z " />
<glyph glyph-name="ellipsis" unicode="&#x2026;" horiz-adv-x="658" d="M168 92 C168 113 142 135 109 135 C76 135 50 113 50 92 L50 43 C50 22 76 0 109 0 C142 0 168 22 168 43 L168 92 Z M388 92 C388 113 362 135 329 135 C296 135 270 113 270 92 L270 43 C270 22 296 0 329 0 C362 0 388 22 388 43 L388 92 Z M608 92 C608 113 582 135 549 135 C516 135 490 113 490 92 L490 43 C490 22 516 0 549 0 C582 0 608 22 608 43 L608 92 Z " />
<glyph glyph-name="perthousand" unicode="&#x2030;" horiz-adv-x="903" d="M749 0 C804 0 853 21 853 88 L853 162 C853 223 801 250 749 250 C697 250 644 223 644 162 L644 88 C644 21 693 0 749 0 L749 0 Z M749 166 C761 166 763 162 763 160 L763 90 C763 87 761 85 749 85 C736 85 734 87 734 90 L734 160 C734 162 736 166 749 166 L749 166 Z M503 0 C558 0 607 21 607 88 L607 162 C607 223 555 250 503 250 C451 250 398 223 398 162 L398 88 C398 21 447 0 503 0 L503 0 Z M503 166 C515 166 517 162 517 160 L517 90 C517 87 515 85 503 85 C490 85 488 87 488 90 L488 160 C488 162 490 166 503 166 L503 166 Z M155 250 C210 250 259 271 259 338 L259 412 C259 473 207 500 155 500 C103 500 50 473 50 412 L50 338 C50 271 99 250 155 250 L155 250 Z M155 416 C167 416 169 412 169 410 L169 340 C169 337 167 335 155 335 C142 335 140 337 140 340 L140 410 C140 412 142 416 155 416 L155 416 Z M191 86 C188 79 186 71 186 62 C186 29 215 0 248 0 C272 0 294 15 303 37 L470 414 C473 421 475 429 475 438 C475 471 446 500 413 500 C389 500 368 485 358 463 L191 86 Z " />
<glyph glyph-name="guilsinglleft" unicode="&#x2039;" horiz-adv-x="446" d="M190 205 L200 205 L357 266 C380 275 396 296 396 321 C396 354 369 381 336 381 C328 381 319 379 312 376 L113 295 C76 280 50 240 50 198 C50 156 76 116 113 101 L312 20 C319 17 328 15 336 15 C369 15 396 42 396 75 C396 100 380 121 357 130 L200 191 L190 191 L190 205 Z " />
<glyph glyph-name="guilsinglright" unicode="&#x203a;" horiz-adv-x="446" d="M256 191 L246 191 L89 130 C66 121 50 100 50 75 C50 42 77 15 110 15 C118 15 127 17 134 20 L333 101 C370 116 396 156 396 198 C396 240 370 280 333 295 L134 376 C127 379 118 381 110 381 C77 381 50 354 50 321 C50 296 66 275 89 266 L246 205 L256 205 L256 191 Z " />
<glyph glyph-name="fraction" unicode="&#x2044;" horiz-adv-x="345" d="M52 74 C51 69 50 64 50 58 C50 26 76 0 108 0 C133 0 156 16 163 39 L293 484 C294 489 295 494 295 500 C295 532 269 558 237 558 C212 558 189 542 182 519 L52 74 Z " />
<glyph glyph-name="Euro" unicode="&#x20ac;" horiz-adv-x="552" d="M448 115 C445 115 443 114 440 114 C397 106 350 101 324 101 C294 101 264 111 245 132 L303 132 C330 132 353 155 353 182 C353 210 330 233 303 233 L227 233 L227 258 L303 258 C330 258 353 281 353 308 C353 336 330 359 303 359 L242 359 C261 380 293 391 325 391 C351 391 394 387 434 379 C437 378 441 378 445 378 C476 378 502 404 502 435 C502 462 483 486 457 491 C409 501 356 505 327 505 C212 505 132 458 113 359 L100 359 C73 359 50 336 50 308 C50 281 73 258 100 258 L109 258 L109 233 L100 233 C73 233 50 210 50 182 C50 155 73 132 100 132 L114 132 C135 30 214 -5 327 -5 C357 -5 411 -4 462 8 C485 14 502 35 502 59 C502 88 477 115 448 115 L448 115 Z " />
<glyph glyph-name="trademark" unicode="&#x2122;" horiz-adv-x="738" d="M123 227 C123 210 144 193 169 193 C195 193 216 210 216 227 L216 413 L247 413 C271 413 290 432 290 456 C290 480 271 500 247 500 L93 500 C69 500 50 480 50 456 C50 432 69 413 93 413 L123 413 L123 227 Z M500 209 C537 209 566 233 572 267 L595 410 L595 227 C595 210 616 193 642 193 C667 193 688 210 688 227 L688 411 C688 460 648 500 599 500 C560 500 527 475 515 440 L500 302 L485 440 C473 475 440 500 401 500 C352 500 312 460 312 411 L312 227 C312 210 333 193 358 193 C384 193 405 210 405 227 L405 410 L428 267 C434 233 463 209 500 209 L500 209 Z " />
<glyph glyph-name="Omega" unicode="&#x2126;" horiz-adv-x="618" d="M311 391 C360 391 407 365 407 319 L407 185 C407 156 386 133 366 120 C344 110 329 87 329 62 C329 28 358 0 393 0 L511 0 C542 0 568 26 568 57 C568 88 542 115 511 115 C522 140 526 168 526 202 L526 304 C526 449 440 505 309 505 C178 505 92 449 92 304 L92 202 C92 168 96 140 107 115 C76 115 50 88 50 57 C50 26 76 0 107 0 L225 0 C260 0 289 28 289 62 C289 87 274 110 252 120 C232 133 211 156 211 185 L211 319 C211 365 258 391 311 391 L311 391 Z " />
<glyph glyph-name="partialdiff" unicode="&#x2202;" horiz-adv-x="436" d="M168 169 C168 194 169 224 211 224 C254 224 268 203 268 184 L268 159 C268 134 267 101 218 101 C169 101 168 134 168 159 L168 169 Z M268 294 L259 294 C237 338 181 338 171 338 C51 338 50 265 50 170 L50 163 C50 68 53 -5 162 -5 C168 -5 252 -5 268 48 L268 43 C268 22 294 0 327 0 C360 0 386 22 386 43 L386 349 C386 468 317 505 212 505 C188 505 156 500 124 492 C102 485 85 464 85 438 C85 408 108 386 138 386 C142 386 148 386 152 387 C172 391 190 391 206 391 C238 391 268 385 268 339 L268 294 Z " />
<glyph glyph-name="Delta" unicode="&#x2206;" horiz-adv-x="516" d="M256 317 L328 118 L186 118 L256 317 Z M400 0 C436 0 466 30 466 66 C466 76 464 85 460 94 L329 463 C314 485 288 500 259 500 C230 500 203 484 188 461 L56 94 C52 85 50 76 50 66 C50 30 80 0 116 0 L400 0 Z " />
<glyph glyph-name="product" unicode="&#x220f;" horiz-adv-x="546" d="M428 382 L438 382 C469 382 496 409 496 440 C496 472 469 499 438 499 L108 499 C77 499 50 472 50 440 C50 409 77 382 108 382 L116 382 L116 -137 C116 -158 142 -180 175 -180 C208 -180 234 -158 234 -137 L234 382 L310 382 L310 -137 C310 -158 336 -180 369 -180 C402 -180 428 -158 428 -137 L428 382 Z " />
<glyph glyph-name="summation" unicode="&#x2211;" horiz-adv-x="475" d="M53 -75 C51 -84 50 -93 50 -107 C50 -111 50 -116 51 -121 C58 -145 80 -161 106 -161 L368 -161 C399 -161 425 -135 425 -104 C425 -73 399 -47 368 -47 L194 -47 L273 145 C276 153 278 161 278 170 C278 183 276 189 270 203 C270 204 269 204 194 386 L368 386 C399 386 425 412 425 443 C425 474 399 500 368 500 L106 500 C80 500 58 484 51 460 C50 455 50 450 50 446 C50 432 51 423 53 414 L141 203 C147 189 149 183 149 170 C149 161 147 153 144 145 L53 -75 Z " />
<glyph glyph-name="minus" unicode="&#x2212;" horiz-adv-x="484" d="M105 263 C75 263 50 238 50 208 C50 178 75 153 105 153 L379 153 C409 153 434 178 434 208 C434 238 409 263 379 263 L105 263 Z " />
<glyph glyph-name="radical" unicode="&#x221a;" horiz-adv-x="608" d="M503 521 L421 521 C394 521 371 502 363 478 L244 124 L167 357 C159 381 136 400 110 400 C78 400 50 372 50 340 C50 335 50 330 51 325 L143 70 C158 29 198 0 244 0 C290 0 330 29 345 70 L466 411 L503 411 C533 411 558 436 558 466 C558 496 533 521 503 521 L503 521 Z " />
<glyph glyph-name="infinity" unicode="&#x221e;" horiz-adv-x="860" d="M618 89 C747 89 810 128 810 266 L810 279 C810 417 747 456 618 456 C539 456 480 413 431 362 C382 417 326 456 243 456 C113 456 50 417 50 279 L50 266 C50 128 113 89 243 89 C321 89 381 130 431 185 C482 130 539 89 618 89 L618 89 Z M243 341 C278 341 319 308 356 271 C319 234 279 204 243 204 C196 204 169 216 169 266 L169 279 C169 330 196 341 243 341 L243 341 Z M618 341 C665 341 691 330 691 279 L691 266 C691 216 665 204 618 204 C582 204 541 234 504 271 C538 304 585 341 618 341 L618 341 Z " />
<glyph glyph-name="integral" unicode="&#x222b;" horiz-adv-x="510" d="M196 -41 C196 -70 174 -78 157 -78 C142 -78 130 -78 113 -74 C110 -73 106 -73 103 -73 C74 -73 50 -97 50 -126 C50 -148 65 -167 84 -175 C114 -183 137 -184 164 -184 C251 -184 314 -154 314 -32 L314 378 C314 407 336 415 353 415 C368 415 380 415 397 411 C400 410 404 410 407 410 C436 410 460 434 460 463 C460 485 445 504 426 512 C396 520 373 521 346 521 C259 521 196 491 196 369 L196 -41 Z " />
<glyph glyph-name="approxequal" unicode="&#x2248;" horiz-adv-x="482" d="M129 216 C139 221 149 224 156 224 C213 224 259 179 316 179 C348 179 380 188 410 209 C424 219 432 235 432 253 C432 283 408 307 378 307 C370 307 362 305 355 302 C338 292 327 290 316 290 C259 290 212 334 156 334 C127 334 98 326 71 310 C57 300 50 283 50 265 C50 235 74 211 104 211 C112 211 122 213 129 216 L129 216 Z M129 59 C139 64 149 67 156 67 C213 67 259 22 316 22 C348 22 380 31 410 52 C424 62 432 78 432 96 C432 126 408 150 378 150 C370 150 362 148 355 145 C338 135 327 133 316 133 C259 133 212 177 156 177 C127 177 98 169 71 153 C57 143 50 126 50 108 C50 78 74 54 104 54 C112 54 122 56 129 59 L129 59 Z " />
<glyph glyph-name="notequal" unicode="&#x2260;" horiz-adv-x="413" d="M308 221 C338 221 363 246 363 276 C363 306 338 331 308 331 C308 333 311 344 311 346 C307 376 278 389 247 389 C223 389 204 376 194 357 L186 331 L105 331 C75 331 50 306 50 276 C50 246 75 221 105 221 L152 221 L139 177 L105 177 C75 177 50 152 50 122 C50 92 76 67 106 67 L97 40 C101 10 131 -5 162 -5 C186 -5 208 8 218 27 L232 67 L299 67 C329 67 354 92 354 122 C354 152 329 177 299 177 L264 177 L276 221 L308 221 Z " />
<glyph glyph-name="lessequal" unicode="&#x2264;" horiz-adv-x="446" d="M190 357 L200 357 L357 418 C380 427 396 448 396 473 C396 506 369 533 336 533 C328 533 319 531 312 528 L113 447 C76 432 50 392 50 350 C50 308 76 268 113 253 L312 172 C319 169 328 167 336 167 C369 167 396 194 396 227 C396 252 380 273 357 282 L200 343 L190 343 L190 357 Z M341 110 C371 110 396 85 396 55 C396 25 371 0 341 0 L105 0 C75 0 50 25 50 55 C50 85 75 110 105 110 L341 110 Z " />
<glyph glyph-name="greaterequal" unicode="&#x2265;" horiz-adv-x="446" d="M256 343 L246 343 L89 282 C66 273 50 252 50 227 C50 194 77 167 110 167 C118 167 127 169 134 172 L333 253 C370 268 396 308 396 350 C396 392 370 432 333 447 L134 528 C127 531 118 533 110 533 C77 533 50 506 50 473 C50 448 66 427 89 418 L246 357 L256 357 L256 343 Z M341 110 C371 110 396 85 396 55 C396 25 371 0 341 0 L105 0 C75 0 50 25 50 55 C50 85 75 110 105 110 L341 110 Z " />
<glyph glyph-name="lozenge" unicode="&#x25ca;" horiz-adv-x="384" d="M161 248 L193 326 L223 248 L192 166 L161 248 Z M251 469 C238 487 216 500 192 500 C167 500 145 486 132 467 L55 272 C52 265 50 257 50 249 C50 244 51 240 52 235 L132 33 C145 14 167 0 192 0 C216 0 238 13 251 31 L332 235 C333 240 334 244 334 249 C334 257 332 265 329 272 L251 469 Z " />
<glyph glyph-name="uni25CC" unicode="&#x25cc;" horiz-adv-x="512" d="" />
<glyph glyph-name="fi" unicode="&#xfb01;" horiz-adv-x="521" d="M252 441 C281 441 305 465 305 493 C305 518 286 540 262 545 C234 550 216 550 207 550 C121 550 81 504 76 400 L60 400 C30 400 5 375 5 345 C5 315 30 291 60 291 L76 291 L76 43 C76 22 102 0 135 0 C168 0 194 22 194 43 L194 291 L254 291 C284 291 309 315 309 345 C309 375 284 400 254 400 L194 400 C195 420 196 442 224 442 C232 442 242 442 252 441 L252 441 Z M353 43 C353 22 379 0 412 0 C445 0 471 22 471 43 L471 357 C471 378 445 400 412 400 C379 400 353 378 353 357 L353 43 Z M353 490 C353 469 379 447 412 447 C445 447 471 469 471 490 L471 525 C471 546 445 568 412 568 C379 568 353 546 353 525 L353 490 Z " />
<glyph glyph-name="fl" unicode="&#xfb02;" horiz-adv-x="521" d="M252 441 C281 441 305 465 305 493 C305 518 286 540 262 545 C234 550 216 550 207 550 C121 550 81 504 76 400 L60 400 C30 400 5 375 5 345 C5 315 30 291 60 291 L76 291 L76 43 C76 22 102 0 135 0 C168 0 194 22 194 43 L194 291 L254 291 C284 291 309 315 309 345 C309 375 284 400 254 400 L194 400 C195 420 196 442 224 442 C232 442 242 442 252 441 L252 441 Z M353 493 C353 514 379 536 412 536 C445 536 471 514 471 493 L471 43 C471 22 445 0 412 0 C379 0 353 22 353 43 L353 493 Z " />
</font>
</svg>
