<?xml version="1.0" encoding="UTF-8"?>
<svg xmlns="http://www.w3.org/2000/svg" xmlns:xlink="http://www.w3.org/1999/xlink" version="1.2" >
<font id="Quan Rounded Regular">
<font-face  font-family="Quan Rounded" units-per-em="1000" ascent="750" descent="-250" font-style="normal" font-weight="400" font-stretch="normal" cap-height="400" x-height="500" underline-position="-91" underline-thickness="35" />
<missing-glyph  horiz-adv-x="569" d="M539 0 L539 628 L30 628 L30 0 L539 0 Z M76 35 C76 41 73 45 68 46 L76 46 L76 35 L76 35 Z M493 590 C493 585 496 582 501 582 L493 582 L493 590 L493 590 Z M501 46 C496 45 493 42 493 37 L493 46 L501 46 L501 46 Z M68 582 C73 582 75 585 76 590 L76 582 L68 582 L68 582 Z M76 582 L493 582 L493 46 L76 46 L76 582 Z " />
<glyph glyph-name="space" unicode="&#x20;" horiz-adv-x="185" d="" />
<glyph glyph-name="exclam" unicode="&#x21;" horiz-adv-x="173" d="M107 130 C109 258 110 349 113 474 C113 488 100 500 86 500 C73 500 60 488 60 474 C63 350 62 259 63 130 C63 118 73 108 85 108 C97 108 107 118 107 130 L107 130 Z M110 46 C110 58 99 69 86 69 C74 69 63 58 63 46 L63 23 C63 11 74 0 86 0 C99 0 110 11 110 23 L110 46 Z " />
<glyph glyph-name="quotedbl" unicode="&#x22;" horiz-adv-x="241" d="M95 416 C98 459 101 471 104 514 C104 526 94 536 82 536 C70 536 60 526 60 514 C63 470 65 462 68 416 C68 408 73 403 81 403 C89 403 95 408 95 416 L95 416 Z M172 416 C175 459 178 471 181 514 C181 526 171 536 159 536 C147 536 137 526 137 514 C140 470 142 462 145 416 C145 408 150 403 158 403 C166 403 172 408 172 416 L172 416 Z " />
<glyph glyph-name="numbersign" unicode="&#x23;" horiz-adv-x="607" d="M363 181 L182 181 L230 336 L409 336 L363 181 Z M394 142 L484 142 C495 142 504 151 504 161 C504 172 495 181 484 181 L405 181 L453 336 L527 336 C538 336 547 345 547 356 C547 367 538 376 527 376 L465 376 L494 471 C495 473 495 476 495 479 C495 491 486 500 474 500 C464 500 457 494 454 485 L421 376 L242 376 L271 471 C272 473 272 476 272 479 C272 491 263 500 251 500 C241 500 234 494 231 485 L198 376 L122 376 C111 376 102 367 102 356 C102 345 111 336 122 336 L187 336 L140 181 L80 181 C69 181 60 172 60 161 C60 151 69 142 80 142 L127 142 L92 29 C91 27 91 24 91 21 C91 9 100 0 112 0 C122 0 129 6 132 15 L171 142 L350 142 L315 29 C314 27 314 24 314 21 C314 9 323 0 335 0 C345 0 352 6 355 15 L394 142 Z " />
<glyph glyph-name="dollar" unicode="&#x24;" horiz-adv-x="490" d="M220 504 C122 498 61 463 61 373 C61 293 140 263 220 239 L220 40 C187 42 141 49 94 70 C91 71 87 72 83 72 C69 72 60 62 60 48 C60 39 64 31 71 27 C107 7 172 -1 220 -4 L220 -37 C220 -50 231 -61 244 -61 C257 -61 268 -50 268 -37 L268 -5 C348 -3 430 14 430 140 C430 218 349 247 268 271 L268 459 C306 458 350 454 380 448 L384 448 C397 448 407 458 407 470 C407 481 401 489 391 492 C355 500 307 504 268 505 L268 537 C268 550 257 561 244 561 C231 561 220 550 220 537 L220 504 Z M382 140 C382 56 320 42 268 40 L268 225 C330 206 382 185 382 140 L382 140 Z M109 373 C109 419 144 450 220 457 L220 285 C159 304 109 326 109 373 L109 373 Z " />
<glyph glyph-name="percent" unicode="&#x25;" horiz-adv-x="578" d="M153 266 C203 266 246 284 246 340 L246 426 C246 476 200 500 153 500 C106 500 60 476 60 426 L60 340 C60 284 103 266 153 266 L153 266 Z M153 462 C190 462 202 439 202 426 L202 340 C202 322 190 305 153 305 C116 305 105 322 105 340 L105 426 C105 439 116 462 153 462 L153 462 Z M425 -1 C475 -1 518 17 518 73 L518 159 C518 209 472 233 425 233 C378 233 332 209 332 159 L332 73 C332 17 375 -1 425 -1 L425 -1 Z M425 195 C462 195 474 172 474 159 L474 73 C474 55 462 38 425 38 C388 38 377 55 377 73 L377 159 C377 172 388 195 425 195 L425 195 Z M165 21 C166 9 176 0 188 0 C196 0 204 5 208 12 L410 473 L410 477 C410 490 400 500 387 500 C379 500 371 495 367 488 L165 21 Z " />
<glyph glyph-name="ampersand" unicode="&#x26;" horiz-adv-x="524" d="M420 65 C443 97 459 140 464 193 C464 206 453 217 440 217 C427 217 416 206 416 193 C412 156 401 122 386 95 C337 135 289 184 249 232 C324 261 381 303 381 371 C381 449 362 505 264 505 C166 505 148 449 148 371 C148 333 156 293 181 251 C115 225 60 195 60 128 C60 -5 152 -5 248 -5 C289 -5 340 0 387 35 L417 7 C421 3 427 0 433 0 C445 0 455 10 455 22 C455 29 452 35 447 39 L420 65 Z M196 371 C196 435 197 459 264 459 C333 459 333 435 333 371 C333 317 285 290 226 267 C207 302 196 335 196 371 L196 371 Z M247 40 C149 40 108 40 108 128 C108 171 148 190 205 215 C252 157 305 113 354 64 C314 44 281 40 247 40 L247 40 Z " />
<glyph glyph-name="quotesingle" unicode="&#x27;" horiz-adv-x="164" d="M95 416 C98 459 101 471 104 514 C104 526 94 536 82 536 C70 536 60 526 60 514 C63 470 65 462 68 416 C68 408 73 403 81 403 C89 403 95 408 95 416 L95 416 Z " />
<glyph glyph-name="parenleft" unicode="&#x28;" horiz-adv-x="194" d="M88 -41 C90 -51 98 -58 110 -58 C124 -58 134 -48 134 -34 C117 54 108 174 108 253 C108 346 114 441 134 534 C134 548 124 558 110 558 C98 558 90 551 88 541 C67 449 60 343 60 253 C60 169 69 49 88 -41 L88 -41 Z " />
<glyph glyph-name="parenright" unicode="&#x29;" horiz-adv-x="194" d="M106 -41 C125 49 134 169 134 253 C134 343 127 449 106 541 C104 551 96 558 84 558 C70 558 60 548 60 534 C80 441 86 346 86 253 C86 174 77 54 60 -34 C60 -48 70 -58 84 -58 C96 -58 104 -51 106 -41 L106 -41 Z " />
<glyph glyph-name="asterisk" unicode="&#x2a;" horiz-adv-x="373" d="M232 306 C236 298 243 294 251 294 C265 294 276 305 276 317 C276 323 274 329 270 333 L209 397 L297 414 C307 416 313 424 313 434 C313 448 304 457 290 457 C287 457 284 457 282 456 L201 425 L209 513 C209 526 199 536 186 536 C174 536 164 526 164 513 L172 425 L91 456 C89 457 86 457 83 457 C69 457 60 448 60 434 C60 424 66 416 76 414 L164 397 L103 333 C99 329 97 323 97 317 C97 305 108 294 122 294 C130 294 137 298 141 306 L186 379 L232 306 Z " />
<glyph glyph-name="plus" unicode="&#x2b;" horiz-adv-x="483" d="M265 174 L403 174 C414 174 423 182 423 194 C423 205 414 214 403 214 L265 214 L265 350 C265 363 254 374 241 374 C228 374 218 363 218 350 L218 214 L80 214 C69 214 60 205 60 194 C60 182 69 174 80 174 L218 174 L218 38 C218 25 228 14 241 14 C254 14 265 25 265 38 L265 174 Z " />
<glyph glyph-name="comma" unicode="&#x2c;" horiz-adv-x="177" d="M60 -21 C60 -28 67 -35 75 -35 C81 -35 88 -31 90 -26 L116 41 C117 43 117 45 117 47 C117 58 107 68 96 68 C86 68 77 60 75 51 L60 -21 Z " />
<glyph glyph-name="hyphen" unicode="&#x2d;" horiz-adv-x="379" d="M299 174 C310 174 319 182 319 194 C319 205 310 214 299 214 L80 214 C69 214 60 205 60 194 C60 182 69 174 80 174 L299 174 Z " />
<glyph glyph-name="period" unicode="&#x2e;" horiz-adv-x="167" d="M107 46 C107 58 96 69 83 69 C71 69 60 58 60 46 L60 23 C60 11 71 0 83 0 C96 0 107 11 107 23 L107 46 Z " />
<glyph glyph-name="slash" unicode="&#x2f;" horiz-adv-x="324" d="M264 535 C264 548 253 558 240 558 C230 558 222 551 219 542 L60 23 C60 10 71 0 84 0 C94 0 102 7 105 16 L264 535 Z " />
<glyph glyph-name="zero" unicode="0" horiz-adv-x="486" d="M243 505 C61 505 60 432 60 322 L60 178 C60 68 61 -5 243 -5 C425 -5 426 68 426 178 L426 322 C426 432 425 505 243 505 L243 505 Z M243 40 C108 40 108 73 108 180 L108 320 C108 427 108 460 243 460 C378 460 378 427 378 320 L378 180 C378 73 378 40 243 40 L243 40 Z " />
<glyph glyph-name="one" unicode="1" horiz-adv-x="274" d="M23 408 C16 403 10 394 10 385 C10 372 22 360 35 360 C41 360 47 363 51 366 L166 441 L166 24 C166 11 177 0 190 0 C203 0 214 11 214 24 L214 471 C214 487 201 500 185 500 C182 500 174 499 166 497 L23 408 Z " />
<glyph glyph-name="two" unicode="2" horiz-adv-x="395" d="M337 0 C350 0 360 9 360 22 C360 35 350 45 337 45 L108 45 C165 160 361 235 361 369 C361 429 356 505 201 505 C71 505 49 447 45 393 C47 382 56 375 68 375 C82 375 93 385 93 399 C96 437 113 460 202 460 C313 460 313 424 313 368 C313 275 83 154 55 48 C53 43 52 33 51 29 C51 12 63 0 80 0 L337 0 Z " />
<glyph glyph-name="three" unicode="3" horiz-adv-x="413" d="M204 271 C193 271 184 261 184 250 C184 239 193 229 204 229 C303 223 305 184 305 132 C305 76 305 40 194 40 C145 40 84 49 84 103 C84 115 72 125 60 125 C46 125 36 114 36 101 C41 48 65 -5 193 -5 C347 -5 353 71 353 133 C353 171 350 216 301 250 C349 285 352 330 352 369 C352 429 346 505 192 505 C66 505 40 452 35 400 C35 387 45 375 58 375 C71 375 83 387 83 400 C86 438 104 460 193 460 C304 460 304 424 304 368 C304 314 301 276 204 271 L204 271 Z " />
<glyph glyph-name="four" unicode="4" horiz-adv-x="394" d="M63 203 L252 448 L252 203 L63 203 Z M18 215 C13 209 10 201 10 193 C10 174 26 158 45 158 L252 158 L252 24 C252 11 263 0 276 0 C289 0 300 11 300 24 L300 158 L341 158 C354 158 364 167 364 180 C364 193 354 203 341 203 L300 203 L300 457 C300 481 281 500 257 500 C243 500 230 494 222 483 L18 215 Z " />
<glyph glyph-name="five" unicode="5" horiz-adv-x="422" d="M108 96 C108 109 97 120 84 120 C71 120 61 109 61 96 C67 45 93 -5 218 -5 C373 -5 378 83 378 146 C378 206 373 309 218 309 C177 309 143 309 108 287 L108 455 L337 455 C350 455 360 464 360 477 C360 490 350 500 337 500 L87 500 C72 500 60 488 60 473 L60 255 C60 238 72 226 89 226 C100 226 109 230 114 238 C132 261 185 264 215 264 L220 264 C330 264 330 200 330 145 C330 90 330 40 220 40 C130 40 111 59 108 96 L108 96 Z " />
<glyph glyph-name="six" unicode="6" horiz-adv-x="398" d="M98 142 C98 200 98 250 210 250 C320 250 320 200 320 145 C320 90 320 40 210 40 C100 40 98 87 98 142 L98 142 Z M323 453 C336 453 345 462 345 474 C345 485 339 492 330 495 C295 502 248 505 219 505 C118 505 50 469 50 360 L50 146 C50 83 55 -5 208 -5 C363 -5 368 83 368 146 C368 206 363 295 208 295 C166 295 129 285 98 272 L98 367 C98 442 148 460 218 460 C245 460 290 459 323 453 L323 453 Z " />
<glyph glyph-name="seven" unicode="7" horiz-adv-x="344" d="M32 500 C19 500 10 490 10 477 C10 464 19 455 32 455 L265 455 L139 31 C138 28 138 25 138 22 C138 10 148 0 160 0 C170 0 179 6 182 15 C320 466 317 456 317 456 C318 462 319 467 319 473 C319 488 307 500 292 500 L32 500 Z " />
<glyph glyph-name="eight" unicode="8" horiz-adv-x="419" d="M369 133 C369 171 366 216 317 250 C365 285 368 330 368 369 C368 429 363 505 208 505 C55 505 50 429 50 369 C50 329 52 284 101 249 C53 215 51 171 51 133 C51 71 56 -5 210 -5 C364 -5 369 71 369 133 L369 133 Z M99 132 C99 189 99 227 211 227 C321 227 321 189 321 132 C321 76 321 40 211 40 C99 40 99 76 99 132 L99 132 Z M98 368 C98 424 98 460 210 460 C320 460 320 424 320 368 C320 311 320 273 210 273 C98 273 98 311 98 368 L98 368 Z " />
<glyph glyph-name="nine" unicode="9" horiz-adv-x="398" d="M300 358 C300 300 300 250 188 250 C78 250 78 300 78 355 C78 410 78 460 188 460 C298 460 300 413 300 358 L300 358 Z M75 48 C63 48 53 38 53 26 C53 14 63 4 75 4 C109 -2 152 -5 179 -5 C280 -5 348 31 348 140 L348 354 C348 417 343 505 190 505 C35 505 30 417 30 354 C30 294 35 205 190 205 C232 205 269 215 300 228 L300 133 C300 58 250 40 180 40 C153 40 108 42 75 48 L75 48 Z " />
<glyph glyph-name="colon" unicode="&#x3a;" horiz-adv-x="167" d="M107 46 C107 58 96 69 83 69 C71 69 60 58 60 46 L60 23 C60 11 71 0 83 0 C96 0 107 11 107 23 L107 46 Z M107 330 C107 342 96 353 83 353 C71 353 60 342 60 330 L60 307 C60 295 71 284 83 284 C96 284 107 295 107 307 L107 330 Z " />
<glyph glyph-name="semicolon" unicode="&#x3b;" horiz-adv-x="183" d="M123 330 C123 342 112 353 99 353 C87 353 76 342 76 330 L76 307 C76 295 87 284 99 284 C112 284 123 295 123 307 L123 330 Z M60 -21 C60 -28 67 -35 75 -35 C81 -35 88 -31 90 -26 L116 41 C117 43 117 45 117 47 C117 58 107 68 96 68 C86 68 77 60 75 51 L60 -21 Z " />
<glyph glyph-name="less" unicode="&#x3c;" horiz-adv-x="431" d="M110 185 L361 292 C367 296 371 303 371 310 C371 323 361 333 348 333 C345 333 343 332 340 331 L88 226 C71 217 60 198 60 178 C60 158 71 139 88 130 L340 25 C343 24 345 23 348 23 C361 23 371 33 371 46 C371 53 367 60 361 64 L110 171 L102 171 L102 185 L110 185 Z " />
<glyph glyph-name="equal" unicode="&#x3d;" horiz-adv-x="379" d="M299 244 C310 244 319 252 319 264 C319 275 310 284 299 284 L80 284 C69 284 60 275 60 264 C60 252 69 244 80 244 L299 244 Z M299 93 C310 93 319 101 319 113 C319 124 310 133 299 133 L80 133 C69 133 60 124 60 113 C60 101 69 93 80 93 L299 93 Z " />
<glyph glyph-name="greater" unicode="&#x3e;" horiz-adv-x="431" d="M329 185 L329 171 L321 171 L70 64 C64 60 60 53 60 46 C60 33 70 23 83 23 C86 23 88 24 91 25 L343 130 C360 139 371 158 371 178 C371 198 360 217 343 226 L91 331 C88 332 86 333 83 333 C70 333 60 323 60 310 C60 303 64 296 70 292 L321 185 L329 185 Z " />
<glyph glyph-name="question" unicode="&#x3f;" horiz-adv-x="369" d="M175 205 C175 290 309 292 309 401 C309 479 258 505 166 505 C137 505 102 501 74 491 C66 488 60 480 60 470 C60 458 70 447 82 447 C103 455 132 459 164 459 C247 459 261 446 261 401 C261 312 127 317 127 206 L127 133 C127 120 138 109 151 109 C164 109 175 120 175 133 L175 205 Z M175 46 C175 58 164 69 151 69 C139 69 128 58 128 46 L128 23 C128 11 139 0 151 0 C164 0 175 11 175 23 L175 46 Z " />
<glyph glyph-name="at" unicode="&#x40;" horiz-adv-x="643" d="M504 -16 C511 -12 516 -6 516 2 C516 15 506 25 493 25 C489 25 485 24 482 22 C455 12 419 11 380 11 L263 11 C180 11 108 34 108 107 L108 361 C108 411 158 460 263 460 L380 460 C485 460 535 412 535 362 L535 138 C535 99 515 99 492 99 C471 99 446 99 446 138 L446 367 C446 380 436 390 423 390 C410 390 401 380 401 367 L401 349 L396 349 C377 390 312 390 300 390 C180 390 170 324 170 252 L170 211 C170 140 183 68 308 68 C334 68 394 74 406 114 L412 114 C412 89 426 62 492 62 C560 62 583 82 583 138 L583 362 C583 461 474 505 380 505 L263 505 C169 505 60 460 60 361 L60 107 C60 -2 162 -34 263 -34 L380 -34 C432 -34 474 -32 504 -16 L504 -16 Z M216 252 C216 295 216 345 299 345 C379 345 401 307 401 267 L401 212 C401 170 401 112 308 112 C216 112 216 170 216 212 L216 252 Z " />
<glyph glyph-name="A" unicode="A" horiz-adv-x="418" d="M407 33 L259 458 C251 482 235 500 209 500 C183 500 167 482 159 458 L11 33 C10 30 10 27 10 23 C10 10 20 0 33 0 C44 0 53 6 56 15 L107 164 L311 164 L362 15 C365 6 374 0 385 0 C398 0 408 10 408 23 C408 27 408 30 407 33 L407 33 Z M123 209 L209 459 L295 209 L123 209 Z " />
<glyph glyph-name="B" unicode="B" horiz-adv-x="471" d="M259 0 C348 0 426 1 426 138 C426 190 415 224 384 248 C414 273 426 310 426 363 C426 500 348 500 259 500 L89 500 C74 500 60 486 60 470 L60 30 C60 14 74 0 89 0 L259 0 Z M378 363 C378 275 310 272 258 272 L108 272 L108 455 L258 455 C310 455 378 452 378 363 L378 363 Z M258 45 L108 45 L108 227 L258 227 C310 227 378 227 378 138 C378 49 310 45 258 45 L258 45 Z " />
<glyph glyph-name="C" unicode="C" horiz-adv-x="458" d="M404 8 C414 10 423 21 423 31 C423 43 410 52 398 52 C356 44 296 40 259 40 C157 40 98 79 98 170 L98 330 C98 421 157 460 259 460 C296 460 354 457 395 449 L400 449 C411 449 422 458 422 470 C422 480 413 490 403 492 C358 500 299 505 261 505 C135 505 50 459 50 323 L50 177 C50 41 135 -5 261 -5 C298 -5 359 -1 404 8 L404 8 Z " />
<glyph glyph-name="D" unicode="D" horiz-adv-x="492" d="M230 460 C314 460 394 420 394 328 L394 177 C394 85 314 45 230 45 L108 45 L108 460 L230 460 Z M228 0 C356 0 442 46 442 184 L442 321 C442 459 356 505 228 505 L89 505 C74 505 60 491 60 475 L60 30 C60 14 74 0 89 0 L228 0 Z " />
<glyph glyph-name="E" unicode="E" horiz-adv-x="443" d="M332 227 C345 227 355 236 355 249 C355 262 345 272 332 272 L108 272 L108 455 L367 455 C380 455 390 464 390 477 C390 490 380 500 367 500 L89 500 C74 500 60 486 60 470 L60 30 C60 14 74 0 89 0 L367 0 C380 0 390 9 390 22 C390 35 380 45 367 45 L108 45 L108 227 L332 227 Z " />
<glyph glyph-name="F" unicode="F" horiz-adv-x="420" d="M60 24 C60 11 71 0 84 0 C97 0 108 11 108 24 L108 227 L332 227 C345 227 355 236 355 249 C355 262 345 272 332 272 L108 272 L108 455 L367 455 C380 455 390 464 390 477 C390 490 380 500 367 500 L89 500 C74 500 60 486 60 470 L60 24 Z " />
<glyph glyph-name="G" unicode="G" horiz-adv-x="476" d="M378 213 L378 49 C333 42 289 40 259 40 C158 40 98 79 98 170 L98 330 C98 421 157 460 259 460 C296 460 354 457 395 449 L400 449 C411 449 422 458 422 470 C422 480 413 490 403 492 C358 500 299 505 261 505 C135 505 50 459 50 323 L50 177 C50 41 135 -5 261 -5 C299 -5 360 -1 405 8 C417 11 426 21 426 33 L426 228 C426 244 412 258 397 258 L307 258 C294 258 284 248 284 235 C284 222 294 213 307 213 L378 213 Z " />
<glyph glyph-name="H" unicode="H" horiz-adv-x="489" d="M381 275 L108 275 L108 476 C108 489 97 500 84 500 C71 500 60 489 60 476 L60 24 C60 11 71 0 84 0 C97 0 108 11 108 24 L108 230 L381 230 L381 24 C381 11 392 0 405 0 C418 0 429 11 429 24 L429 476 C429 489 418 500 405 500 C392 500 381 489 381 476 L381 275 Z " />
<glyph glyph-name="I" unicode="I" horiz-adv-x="168" d="M60 24 C60 11 71 0 84 0 C97 0 108 11 108 24 L108 476 C108 489 97 500 84 500 C71 500 60 489 60 476 L60 24 Z " />
<glyph glyph-name="J" unicode="J" horiz-adv-x="362" d="M58 100 C58 113 47 124 34 124 C21 124 10 113 10 100 L10 93 C10 39 28 -5 149 -5 L163 -5 C282 -5 302 40 302 93 L302 476 C302 489 291 500 278 500 C265 500 254 489 254 476 L254 99 C254 40 224 40 156 40 C88 40 58 40 58 100 L58 100 Z " />
<glyph glyph-name="K" unicode="K" horiz-adv-x="484" d="M460 459 C464 463 467 469 467 475 C467 488 456 499 443 499 C439 499 435 499 432 497 L108 257 L108 476 C108 489 97 500 84 500 C71 500 60 489 60 476 L60 24 C60 11 71 0 84 0 C97 0 108 11 108 24 L108 198 L245 299 L425 11 C429 4 436 0 445 0 C458 0 469 10 469 23 C469 28 468 32 465 36 L284 327 L460 459 Z " />
<glyph glyph-name="L" unicode="L" horiz-adv-x="395" d="M60 30 C60 14 74 0 89 0 L352 0 C365 0 375 9 375 22 C375 35 365 45 352 45 L108 45 L108 476 C108 489 97 500 84 500 C71 500 60 489 60 476 L60 30 Z " />
<glyph glyph-name="M" unicode="M" horiz-adv-x="610" d="M305 0 C322 0 336 9 343 22 L502 453 L502 24 C502 11 513 0 526 0 C539 0 550 11 550 24 L550 450 C550 477 528 499 502 499 C480 499 461 485 455 465 L305 55 L155 465 C149 485 130 499 108 499 C82 499 60 477 60 450 L60 24 C60 11 71 0 84 0 C97 0 108 11 108 24 L108 453 L267 22 C274 9 288 0 305 0 L305 0 Z " />
<glyph glyph-name="N" unicode="N" horiz-adv-x="522" d="M369 26 C379 10 394 0 414 0 C445 0 462 25 462 56 L462 476 C462 489 451 500 438 500 C425 500 414 489 414 476 L414 46 L153 474 C143 490 128 500 108 500 C77 500 60 475 60 444 L60 24 C60 11 71 0 84 0 C97 0 108 11 108 24 L108 454 L369 26 Z " />
<glyph glyph-name="O" unicode="O" horiz-adv-x="494" d="M247 -5 C443 -5 444 77 444 187 L444 315 C444 425 443 505 247 505 C51 505 50 425 50 315 L50 187 C50 77 51 -5 247 -5 L247 -5 Z M247 460 C383 460 396 421 396 314 L396 186 C396 79 383 40 247 40 C111 40 98 79 98 186 L98 314 C98 421 111 460 247 460 L247 460 Z " />
<glyph glyph-name="P" unicode="P" horiz-adv-x="439" d="M247 225 L108 225 L108 455 L247 455 C298 455 366 452 366 343 C366 225 298 225 247 225 L247 225 Z M89 500 C74 500 60 486 60 470 L60 24 C60 11 71 0 84 0 C97 0 108 11 108 24 L108 180 L248 180 C335 180 414 189 414 343 C414 496 335 500 248 500 L89 500 Z " />
<glyph glyph-name="Q" unicode="Q" horiz-adv-x="494" d="M396 186 C396 79 383 40 247 40 C111 40 98 79 98 186 L98 314 C98 421 111 460 247 460 C383 460 396 421 396 314 L396 186 Z M374 -94 C387 -94 397 -85 397 -72 C397 -59 387 -49 374 -49 L280 -49 C279 -49 270 -49 266 -54 L266 -5 C443 1 444 81 444 187 L444 315 C444 425 443 505 247 505 C51 505 50 425 50 315 L50 187 C50 83 51 4 218 -4 L218 -64 C218 -80 232 -94 247 -94 L374 -94 Z " />
<glyph glyph-name="R" unicode="R" horiz-adv-x="473" d="M261 225 L108 225 L108 455 L261 455 C313 455 380 452 380 343 C380 234 313 225 261 225 L261 225 Z M359 196 C396 217 428 256 428 343 C428 496 350 500 262 500 L89 500 C74 500 60 486 60 470 L60 25 C60 12 71 1 84 1 C97 1 108 12 108 25 L108 180 L262 180 C278 180 301 180 314 184 L367 16 C370 7 379 0 389 0 C401 0 412 11 412 23 C412 26 412 28 411 31 L359 196 Z " />
<glyph glyph-name="S" unicode="S" horiz-adv-x="452" d="M53 27 C97 3 184 -5 230 -5 C316 -5 412 4 412 140 C412 295 91 256 91 373 C91 426 136 459 235 459 C276 459 328 455 362 448 L366 448 C379 448 389 458 389 470 C389 481 383 489 373 492 C332 501 274 505 233 505 C117 505 43 472 43 373 C43 212 364 253 364 140 C364 45 285 40 230 40 C198 40 139 42 76 70 C73 71 69 72 65 72 C51 72 42 62 42 48 C42 39 46 31 53 27 L53 27 Z " />
<glyph glyph-name="T" unicode="T" horiz-adv-x="390" d="M171 24 C171 11 182 0 195 0 C208 0 219 11 219 24 L219 455 L353 455 C366 455 375 464 375 477 C375 490 366 500 353 500 L37 500 C24 500 15 490 15 477 C15 464 24 455 37 455 L171 455 L171 24 Z " />
<glyph glyph-name="U" unicode="U" horiz-adv-x="522" d="M462 476 C462 489 451 500 438 500 C425 500 414 489 414 476 L414 180 C414 73 397 40 262 40 C126 40 108 73 108 180 L108 476 C108 489 97 500 84 500 C71 500 60 489 60 476 L60 178 C60 68 66 -5 262 -5 C456 -5 462 68 462 178 L462 476 Z " />
<glyph glyph-name="V" unicode="V" horiz-adv-x="418" d="M209 0 C235 0 252 18 260 42 L406 466 C407 469 408 473 408 476 C408 489 397 500 384 500 C375 500 367 495 363 488 L209 42 L55 488 C51 495 43 500 34 500 C21 500 10 489 10 476 C10 473 11 469 12 466 L158 42 C166 18 183 0 209 0 L209 0 Z " />
<glyph glyph-name="W" unicode="W" horiz-adv-x="648" d="M324 336 L437 34 C444 14 464 0 486 0 C508 0 526 13 534 32 L613 476 C613 489 602 500 589 500 C577 500 567 491 565 480 L487 40 L358 385 C353 399 340 409 324 409 C308 409 295 399 290 385 L161 40 L83 480 C81 491 71 500 59 500 C46 500 35 489 35 476 L114 32 C122 13 140 0 162 0 C184 0 204 14 211 34 L324 336 Z " />
<glyph glyph-name="X" unicode="X" horiz-adv-x="442" d="M221 207 L375 11 C379 4 387 0 395 0 C408 0 420 11 420 24 C420 30 417 36 413 41 L251 246 L423 465 C425 468 427 472 427 477 C427 490 417 500 404 500 C399 500 395 499 391 496 L221 283 L51 496 C47 499 43 500 38 500 C25 500 15 490 15 477 C15 472 17 468 19 465 L191 246 L29 41 C25 36 22 30 22 24 C22 11 34 0 47 0 C55 0 63 4 67 11 L221 207 Z " />
<glyph glyph-name="Y" unicode="Y" horiz-adv-x="422" d="M187 24 C187 11 198 0 211 0 C224 0 235 11 235 24 L235 218 L398 462 C400 466 402 470 402 475 C402 489 392 500 378 500 C369 500 361 496 357 489 L211 261 L65 489 C61 496 53 500 44 500 C30 500 20 489 20 475 C20 470 22 466 24 462 L187 218 L187 24 Z " />
<glyph glyph-name="Z" unicode="Z" horiz-adv-x="438" d="M408 445 C414 451 418 459 418 469 C418 487 405 500 387 500 L42 500 C29 500 20 490 20 477 C20 464 29 455 42 455 L357 455 L31 55 C25 49 21 41 21 31 C21 13 34 0 52 0 L380 0 C393 0 402 9 402 22 C402 36 393 46 380 46 L88 46 L408 445 Z " />
<glyph glyph-name="bracketleft" unicode="&#x5b;" horiz-adv-x="226" d="M143 -58 C156 -58 166 -49 166 -36 C166 -23 156 -13 143 -13 L108 -13 L108 513 L143 513 C156 513 166 522 166 535 C166 548 156 558 143 558 L89 558 C74 558 60 544 60 528 L60 -28 C60 -44 74 -58 89 -58 L143 -58 Z " />
<glyph glyph-name="backslash" unicode="&#x5c;" horiz-adv-x="324" d="M219 16 C222 7 230 0 240 0 C253 0 264 10 264 23 L105 542 C102 551 94 558 84 558 C71 558 60 548 60 535 L219 16 Z " />
<glyph glyph-name="bracketright" unicode="&#x5d;" horiz-adv-x="226" d="M137 -58 C152 -58 166 -44 166 -28 L166 528 C166 544 152 558 137 558 L83 558 C70 558 60 548 60 535 C60 522 70 513 83 513 L118 513 L118 -13 L83 -13 C70 -13 60 -23 60 -36 C60 -49 70 -58 83 -58 L137 -58 Z " />
<glyph glyph-name="asciicircum" unicode="&#x5e;" horiz-adv-x="334" d="M162 461 L172 461 L172 455 L231 272 C234 263 242 257 253 257 C265 257 274 266 274 278 L220 462 C212 484 192 500 167 500 C142 500 122 484 114 462 L60 278 C60 266 69 257 81 257 C92 257 100 263 103 272 L162 455 L162 461 Z " />
<glyph glyph-name="underscore" unicode="&#x5f;" horiz-adv-x="488" d="M408 -94 C419 -94 428 -86 428 -74 C428 -63 419 -54 408 -54 L80 -54 C69 -54 60 -63 60 -74 C60 -86 69 -94 80 -94 L408 -94 Z " />
<glyph glyph-name="grave" unicode="&#x60;" horiz-adv-x="183" d="M106 518 C104 529 94 536 83 536 C70 536 60 526 60 513 L90 412 C92 406 100 402 107 402 C116 402 123 408 123 416 L106 518 Z " />
<glyph glyph-name="a" unicode="a" horiz-adv-x="398" d="M172 40 C112 41 83 66 83 120 C83 192 153 192 232 192 C248 192 285 192 305 190 L305 106 C273 69 231 40 172 40 L172 40 Z M90 394 C80 392 72 384 72 373 C72 361 81 352 93 352 C95 352 98 352 100 353 C124 358 148 360 175 360 C245 360 305 337 305 262 L305 218 L298 218 C270 230 226 237 192 237 C115 237 35 207 35 118 C35 26 77 -5 173 -5 C220 -5 264 2 305 53 L305 24 C305 11 316 0 329 0 C342 0 353 11 353 24 L353 261 C353 372 286 405 184 405 C155 405 122 401 90 394 L90 394 Z " />
<glyph glyph-name="b" unicode="b" horiz-adv-x="424" d="M331 154 C331 103 331 40 219 40 C108 40 108 103 108 154 L108 262 C108 312 135 360 232 360 C331 360 331 297 331 245 L331 154 Z M60 24 C60 11 71 0 84 0 C97 0 108 11 108 24 L108 37 C141 -5 187 -5 219 -5 C375 -5 379 66 379 153 L379 246 C379 334 379 405 230 405 C215 405 141 405 116 367 L108 367 L108 512 C108 525 97 536 84 536 C71 536 60 525 60 512 L60 24 Z " />
<glyph glyph-name="c" unicode="c" horiz-adv-x="377" d="M318 49 C284 42 242 40 215 40 C144 40 93 59 93 134 L93 265 C93 340 144 360 215 360 C243 360 288 359 322 353 C333 353 343 363 343 374 C343 383 336 392 327 394 C291 401 245 405 216 405 C114 405 45 369 45 259 L45 141 C45 31 114 -5 216 -5 C245 -5 288 -3 324 3 C334 5 343 16 343 26 C343 38 330 49 318 49 L318 49 Z " />
<glyph glyph-name="d" unicode="d" horiz-adv-x="424" d="M93 245 C93 297 93 360 192 360 C289 360 316 312 316 262 L316 154 C316 103 316 40 205 40 C93 40 93 103 93 154 L93 245 Z M364 512 C364 525 353 536 340 536 C327 536 316 525 316 512 L316 367 L308 367 C283 405 209 405 194 405 C45 405 45 334 45 246 L45 153 C45 66 49 -5 205 -5 C237 -5 283 -5 316 37 L316 24 C316 11 327 0 340 0 C353 0 364 11 364 24 L364 512 Z " />
<glyph glyph-name="e" unicode="e" horiz-adv-x="410" d="M207 405 C78 405 45 356 45 228 L45 141 C45 31 118 -5 220 -5 L224 -5 C253 -5 296 -3 332 3 C342 5 351 16 351 26 C351 38 338 49 326 49 C292 42 250 40 223 40 L219 40 C148 40 93 59 93 134 L93 177 L341 177 C354 177 365 188 365 201 L365 249 C365 352 344 405 207 405 L207 405 Z M317 222 L93 222 C93 326 110 360 207 360 C304 360 317 326 317 270 L317 222 Z " />
<glyph glyph-name="f" unicode="f" horiz-adv-x="255" d="M241 547 C214 552 188 552 180 552 C113 552 86 524 86 417 L86 400 L37 400 C24 400 15 390 15 377 C15 364 24 355 37 355 L86 355 L86 24 C86 11 97 0 110 0 C123 0 134 11 134 24 L134 355 L227 355 C240 355 249 364 249 377 C249 390 240 400 227 400 L134 400 L134 417 C134 492 139 507 189 507 C201 507 215 507 233 505 C245 505 255 515 255 526 C255 536 249 544 241 547 L241 547 Z " />
<glyph glyph-name="g" unicode="g" horiz-adv-x="424" d="M93 245 C93 297 93 360 192 360 C289 360 316 312 316 262 L316 154 C316 103 316 40 205 40 C93 40 93 103 93 154 L93 245 Z M91 -132 C79 -132 70 -142 70 -153 C70 -163 78 -173 88 -175 C123 -182 167 -184 196 -184 C297 -184 364 -147 364 -39 L364 376 C364 389 353 400 340 400 C327 400 316 389 316 376 L316 367 L308 367 C283 405 209 405 194 405 C45 405 45 334 45 246 L45 153 C45 66 49 -5 205 -5 C237 -5 284 -5 316 37 L316 -45 C316 -120 267 -139 197 -139 C169 -139 124 -137 91 -132 L91 -132 Z " />
<glyph glyph-name="h" unicode="h" horiz-adv-x="440" d="M332 24 C332 11 343 0 356 0 C369 0 380 11 380 24 L380 255 C380 340 346 405 239 405 C198 405 148 405 119 367 L108 367 L108 512 C108 525 97 536 84 536 C71 536 60 525 60 512 L60 24 C60 11 71 0 84 0 C97 0 108 11 108 24 L108 262 C108 330 136 360 226 360 C332 360 332 299 332 236 L332 24 Z " />
<glyph glyph-name="i" unicode="i" horiz-adv-x="168" d="M60 24 C60 11 71 0 84 0 C97 0 108 11 108 24 L108 376 C108 389 97 400 84 400 C71 400 60 389 60 376 L60 24 Z M60 483 C60 470 71 459 84 459 C97 459 108 470 108 483 L108 501 C108 514 97 525 84 525 C71 525 60 514 60 501 L60 483 Z " />
<glyph glyph-name="j" unicode="j" horiz-adv-x="168" d="M60 483 C60 470 71 459 84 459 C97 459 108 470 108 483 L108 501 C108 514 97 525 84 525 C71 525 60 514 60 501 L60 483 Z M108 376 C108 389 97 400 84 400 C71 400 60 389 60 376 L60 -48 C60 -123 47 -139 -14 -139 C-37 -139 -50 -139 -65 -137 C-67 -136 -72 -136 -74 -136 C-86 -136 -93 -145 -93 -157 C-93 -165 -88 -173 -81 -176 C-55 -182 -34 -184 -5 -184 C68 -184 108 -156 108 -48 L108 376 Z " />
<glyph glyph-name="k" unicode="k" horiz-adv-x="424" d="M282 278 L390 360 C393 364 396 369 396 375 C396 388 384 400 371 400 C366 400 362 399 358 396 L108 207 L108 512 C108 525 97 536 84 536 C71 536 60 525 60 512 L60 24 C60 11 71 0 84 0 C97 0 108 11 108 24 L108 149 L243 248 L363 12 C367 5 375 0 384 0 C398 0 409 10 409 23 C409 26 409 28 408 30 L282 278 Z " />
<glyph glyph-name="l" unicode="l" horiz-adv-x="168" d="M60 24 C60 11 71 0 84 0 C97 0 108 11 108 24 L108 512 C108 525 97 536 84 536 C71 536 60 525 60 512 L60 24 Z " />
<glyph glyph-name="m" unicode="m" horiz-adv-x="602" d="M60 24 C60 11 71 0 84 0 C97 0 108 11 108 24 L108 262 C108 329 128 360 209 360 C278 360 293 294 293 231 L293 24 C293 11 304 0 317 0 C330 0 341 11 341 24 L341 251 C341 283 341 297 331 325 C376 360 406 360 432 360 C501 360 509 294 509 231 L509 24 C509 11 520 0 533 0 C546 0 557 11 557 24 L557 256 C557 340 532 405 437 405 C425 405 354 404 320 360 C297 388 258 405 216 405 C202 405 150 405 120 368 L111 368 L111 375 C111 389 100 400 85 400 C71 400 60 389 60 375 L60 24 Z " />
<glyph glyph-name="n" unicode="n" horiz-adv-x="430" d="M111 375 C111 389 100 400 85 400 C71 400 60 389 60 375 L60 24 C60 11 71 0 84 0 C97 0 108 11 108 24 L108 262 C108 330 136 360 226 360 C332 360 332 299 332 236 L332 24 C332 11 343 0 356 0 C369 0 380 11 380 24 L380 255 C380 340 346 405 239 405 C198 405 148 405 119 367 L111 367 L111 375 Z " />
<glyph glyph-name="o" unicode="o" horiz-adv-x="410" d="M205 405 C50 405 45 334 45 246 L45 154 C45 66 50 -5 205 -5 C359 -5 365 66 365 154 L365 246 C365 334 359 405 205 405 L205 405 Z M317 155 C317 73 317 40 205 40 C93 40 93 73 93 155 L93 245 C93 329 93 360 205 360 C317 360 317 328 317 245 L317 155 Z " />
<glyph glyph-name="p" unicode="p" horiz-adv-x="424" d="M331 154 C331 103 331 40 219 40 C108 40 108 103 108 154 L108 262 C108 312 135 360 232 360 C331 360 331 297 331 245 L331 154 Z M60 -160 C60 -173 71 -184 84 -184 C97 -184 108 -173 108 -160 L108 37 C140 -5 187 -5 219 -5 C375 -5 379 66 379 153 L379 246 C379 334 379 405 230 405 C215 405 141 405 116 367 L108 367 L108 376 C108 389 97 400 84 400 C71 400 60 389 60 376 L60 -160 Z " />
<glyph glyph-name="q" unicode="q" horiz-adv-x="424" d="M93 245 C93 297 93 360 192 360 C289 360 316 312 316 262 L316 154 C316 103 316 40 205 40 C93 40 93 103 93 154 L93 245 Z M364 376 C364 389 353 400 340 400 C327 400 316 389 316 376 L316 367 L308 367 C283 405 209 405 194 405 C45 405 45 334 45 246 L45 153 C45 66 49 -5 205 -5 C237 -5 284 -5 316 37 L316 -160 C316 -173 327 -184 340 -184 C353 -184 364 -173 364 -160 L364 376 Z " />
<glyph glyph-name="r" unicode="r" horiz-adv-x="262" d="M234 400 C194 400 141 400 116 368 L110 368 L108 376 C108 389 97 400 84 400 C71 400 60 389 60 376 L60 24 C60 11 71 0 84 0 C97 0 108 11 108 24 L108 263 C108 330 136 355 225 355 L234 355 C247 355 257 364 257 377 C257 390 247 400 234 400 L234 400 Z " />
<glyph glyph-name="s" unicode="s" horiz-adv-x="371" d="M69 54 C56 54 46 43 46 31 C46 20 53 11 63 8 C100 0 150 -5 185 -5 C291 -5 331 25 331 110 C331 240 83 219 83 300 C83 345 107 360 189 360 C222 360 261 357 289 352 C301 352 311 362 311 374 C311 384 304 392 295 395 C262 402 219 405 187 405 C95 405 35 379 35 300 C35 173 283 198 283 110 C283 59 267 40 185 40 C159 40 106 44 69 54 L69 54 Z " />
<glyph glyph-name="t" unicode="t" horiz-adv-x="267" d="M96 400 L37 400 C24 400 15 390 15 377 C15 364 24 355 37 355 L96 355 L96 116 C96 25 125 0 212 0 L223 0 C235 0 245 11 245 23 C245 35 235 45 223 45 L211 45 C148 45 144 63 144 116 L144 355 L222 355 C235 355 244 364 244 377 C244 390 235 400 222 400 L144 400 L144 495 C144 508 133 519 120 519 C107 519 96 508 96 495 L96 400 Z " />
<glyph glyph-name="u" unicode="u" horiz-adv-x="425" d="M315 33 C317 11 328 0 341 0 C354 0 365 11 365 24 L365 376 C365 389 354 400 341 400 C328 400 317 389 317 376 L317 138 C317 70 289 40 199 40 C93 40 93 101 93 164 L93 376 C93 389 82 400 69 400 C56 400 45 389 45 376 L45 145 C45 60 79 -5 186 -5 C227 -5 277 -5 306 33 L315 33 Z " />
<glyph glyph-name="v" unicode="v" horiz-adv-x="372" d="M186 0 C213 0 228 18 237 43 L361 369 C362 372 362 373 362 376 C362 390 353 400 339 400 C328 400 319 394 316 385 L186 41 L56 385 C53 394 44 400 33 400 C19 400 10 390 10 376 C10 373 10 372 11 369 L134 43 C143 18 159 0 186 0 L186 0 Z " />
<glyph glyph-name="w" unicode="w" horiz-adv-x="530" d="M344 42 C349 18 367 0 393 0 C420 0 437 19 442 44 L510 376 C510 389 499 400 486 400 C475 400 464 392 462 381 L393 43 L312 340 C306 361 288 375 265 375 C242 375 224 361 218 340 L137 43 L68 381 C66 392 55 400 44 400 C31 400 20 389 20 376 L88 44 C93 19 110 0 137 0 C163 0 181 18 186 42 L264 326 L344 42 Z " />
<glyph glyph-name="x" unicode="x" horiz-adv-x="374" d="M303 9 C307 3 313 0 321 0 C335 0 349 10 349 24 C349 27 349 30 348 32 L217 196 L353 368 C354 370 354 373 354 376 C354 390 344 400 330 400 C322 400 316 397 312 391 L187 233 L62 391 C58 397 52 400 44 400 C30 400 20 390 20 376 C20 373 20 370 21 368 L157 196 L26 32 C25 30 25 27 25 24 C25 10 39 0 53 0 C61 0 67 3 71 9 L187 157 L303 9 Z " />
<glyph glyph-name="y" unicode="y" horiz-adv-x="376" d="M128 -163 C128 -175 137 -184 149 -184 C157 -184 163 -180 167 -174 L355 371 C356 373 356 375 356 377 C356 390 346 400 334 400 C326 400 318 396 314 389 L193 48 L193 40 L184 40 L184 48 L62 389 C58 396 50 400 42 400 C30 400 20 390 20 377 C20 375 20 373 21 371 L143 19 C145 10 153 0 163 0 L192 0 L192 -5 C187 -8 178 -8 169 -37 L128 -163 Z " />
<glyph glyph-name="z" unicode="z" horiz-adv-x="383" d="M334 347 C339 353 343 361 343 370 C343 387 330 400 313 400 L62 400 C49 400 40 390 40 377 C40 364 49 355 62 355 L285 355 L49 53 C44 47 40 39 40 30 C40 13 53 0 70 0 L321 0 C334 0 343 9 343 22 C343 35 334 45 321 45 L103 45 C329 342 334 347 334 347 L334 347 Z " />
<glyph glyph-name="braceleft" unicode="&#x7b;" horiz-adv-x="306" d="M81 270 C70 270 60 260 60 249 C60 237 70 228 81 228 C113 224 125 209 125 137 L125 -11 C125 -29 127 -58 164 -58 L223 -58 C236 -58 246 -49 246 -36 C246 -23 236 -13 223 -13 L205 -13 C186 -13 173 -13 173 15 L173 144 C173 198 162 226 140 250 C161 275 173 309 173 364 L173 485 C173 513 186 513 205 513 L223 513 C236 513 246 522 246 535 C246 548 236 558 223 558 L164 558 C127 558 125 529 125 511 L125 364 C125 293 113 274 81 270 L81 270 Z " />
<glyph glyph-name="bar" unicode="&#x7c;" horiz-adv-x="168" d="M60 -34 C60 -47 71 -58 84 -58 C97 -58 108 -47 108 -34 L108 534 C108 547 97 558 84 558 C71 558 60 547 60 534 L60 -34 Z " />
<glyph glyph-name="braceright" unicode="&#x7d;" horiz-adv-x="306" d="M225 270 C193 274 181 293 181 364 L181 511 C181 529 179 558 142 558 L83 558 C70 558 60 548 60 535 C60 522 70 513 83 513 L101 513 C120 513 133 513 133 485 L133 364 C133 309 145 275 166 250 C144 226 133 198 133 144 L133 15 C133 -13 120 -13 101 -13 L83 -13 C70 -13 60 -23 60 -36 C60 -49 70 -58 83 -58 L142 -58 C179 -58 181 -29 181 -11 L181 137 C181 209 193 224 225 228 C236 228 246 237 246 249 C246 260 236 270 225 270 L225 270 Z " />
<glyph glyph-name="asciitilde" unicode="&#x7e;" horiz-adv-x="467" d="M395 200 C402 203 407 211 407 220 C407 233 398 240 385 240 C367 226 355 222 329 222 C271 222 207 283 140 283 C115 283 93 279 72 267 C65 264 60 256 60 247 C60 234 70 225 83 225 C102 239 113 243 140 243 C199 243 262 182 328 182 C352 182 375 188 395 200 L395 200 Z " />
<glyph glyph-name="uni00A0" unicode="&#xa0;" horiz-adv-x="185" d="" />
<glyph glyph-name="exclamdown" unicode="&#xa1;" horiz-adv-x="173" d="M107 270 C109 142 110 51 113 -74 C113 -88 100 -100 86 -100 C73 -100 60 -88 60 -74 C63 50 62 141 63 270 C63 282 73 292 85 292 C97 292 107 282 107 270 L107 270 Z M110 377 C110 389 99 400 86 400 C74 400 63 389 63 377 L63 354 C63 342 74 331 86 331 C99 331 110 342 110 354 L110 377 Z " />
<glyph glyph-name="cent" unicode="&#xa2;" horiz-adv-x="418" d="M333 49 C299 42 257 40 230 40 C159 40 108 59 108 134 L108 265 C108 340 159 360 230 360 C258 360 303 359 337 353 C348 353 358 363 358 374 C358 383 351 392 342 394 C307 401 263 405 234 405 L234 447 C234 460 223 471 210 471 C197 471 186 460 186 447 L186 402 C109 392 60 352 60 259 L60 141 C60 48 109 8 186 -2 L186 -49 C186 -62 197 -73 210 -73 C223 -73 234 -62 234 -49 L234 -5 C263 -5 304 -3 339 3 C349 5 358 16 358 26 C358 38 345 49 333 49 L333 49 Z " />
<glyph glyph-name="sterling" unicode="&#xa3;" horiz-adv-x="501" d="M126 255 L80 255 C69 255 60 246 60 235 C60 223 69 215 80 215 L126 215 L126 30 C126 14 140 0 155 0 L418 0 C431 0 441 9 441 22 C441 35 431 45 418 45 L174 45 L174 215 L299 215 C310 215 319 223 319 235 C319 246 310 255 299 255 L174 255 L174 369 C174 444 187 460 248 460 C274 460 289 460 306 456 C318 456 327 465 327 477 C327 487 321 495 313 498 C288 504 268 505 239 505 C166 505 126 476 126 368 L126 255 Z " />
<glyph glyph-name="currency" unicode="&#xa4;" horiz-adv-x="498" d="M249 110 C187 110 139 158 139 219 C139 283 187 330 249 330 C311 330 359 283 359 219 C359 158 311 110 249 110 L249 110 Z M249 73 C282 73 316 85 346 108 L399 53 C403 49 408 47 413 47 C425 47 434 56 434 68 C434 71 434 74 432 77 L372 137 C387 163 398 193 398 220 C398 248 388 277 376 301 L436 359 C438 362 438 365 438 368 C438 380 429 389 417 389 C412 389 407 387 403 383 L351 329 C321 355 285 369 249 369 C213 369 177 355 147 329 L95 383 C91 387 86 389 81 389 C69 389 60 380 60 368 C60 365 60 362 62 359 L122 301 C110 277 100 248 100 220 C100 193 111 163 126 137 L66 77 C64 74 64 71 64 68 C64 56 73 47 85 47 C90 47 95 49 99 53 L152 108 C182 85 216 73 249 73 L249 73 Z " />
<glyph glyph-name="yen" unicode="&#xa5;" horiz-adv-x="502" d="M442 475 C442 489 432 500 418 500 C409 500 401 496 397 489 L251 261 L105 489 C101 496 93 500 84 500 C70 500 60 489 60 475 C60 470 62 466 64 462 L226 219 L141 219 C130 219 121 210 121 199 C121 187 130 179 141 179 L227 179 L227 118 L141 118 C130 118 121 109 121 98 C121 86 130 78 141 78 L227 78 L227 24 C227 11 238 0 251 0 C264 0 275 11 275 24 L275 78 L360 78 C371 78 380 86 380 98 C380 109 371 118 360 118 L275 118 L275 179 L360 179 C371 179 380 187 380 199 C380 210 371 219 360 219 L276 219 L438 462 C440 466 442 470 442 475 L442 475 Z " />
<glyph glyph-name="brokenbar" unicode="&#xa6;" horiz-adv-x="168" d="M60 343 C60 330 71 319 84 319 C97 319 108 330 108 343 L108 534 C108 547 97 558 84 558 C71 558 60 547 60 534 L60 343 Z M60 -34 C60 -47 71 -58 84 -58 C97 -58 108 -47 108 -34 L108 157 C108 170 97 181 84 181 C71 181 60 170 60 157 L60 -34 Z " />
<glyph glyph-name="section" unicode="&#xa7;" horiz-adv-x="523" d="M317 156 C292 156 244 159 208 168 C155 186 108 201 108 237 C108 282 132 306 214 306 C252 306 296 302 324 295 C373 279 415 262 415 226 C415 175 399 156 317 156 L317 156 Z M94 -9 C82 -9 71 -18 71 -30 C71 -40 76 -51 85 -54 C122 -63 175 -68 210 -68 C316 -68 356 -38 356 47 C356 74 345 94 328 111 C426 113 463 144 463 226 C463 356 215 335 215 416 C215 461 239 476 321 476 C354 476 393 473 421 468 C433 468 443 478 443 490 C443 500 437 508 428 511 C395 518 351 521 319 521 C227 521 167 495 167 416 C167 387 179 367 198 351 C114 347 60 312 60 237 C60 105 308 149 308 47 C308 -4 292 -23 210 -23 C184 -23 131 -19 94 -9 L94 -9 Z " />
<glyph glyph-name="dieresis" unicode="&#xa8;" horiz-adv-x="302" d="M107 513 C107 525 96 536 83 536 C71 536 60 525 60 513 L60 503 C60 491 71 480 83 480 C96 480 107 491 107 503 L107 513 Z M242 513 C242 525 231 536 218 536 C206 536 195 525 195 513 L195 503 C195 491 206 480 218 480 C231 480 242 491 242 503 L242 513 Z " />
<glyph glyph-name="copyright" unicode="&#xa9;" horiz-adv-x="620" d="M310 505 C169 505 60 391 60 250 C60 109 169 -5 310 -5 C451 -5 560 109 560 250 C560 391 451 505 310 505 L310 505 Z M310 38 C201 38 103 141 103 250 C103 359 201 462 310 462 C419 462 517 359 517 250 C517 141 419 38 310 38 L310 38 Z M393 137 C403 137 412 127 412 117 C412 109 407 102 400 99 C372 93 333 90 310 90 C230 90 178 118 178 204 L178 292 C178 378 230 406 310 406 C331 406 366 404 393 399 C403 399 412 389 412 379 C412 369 403 360 393 360 C368 365 331 366 309 366 C262 366 223 345 223 295 L223 201 C223 151 262 130 309 130 C331 130 368 132 393 137 L393 137 Z " />
<glyph glyph-name="ordfeminine" unicode="&#xaa;" horiz-adv-x="359" d="M166 251 C111 251 100 277 100 311 C100 355 127 366 207 366 C217 366 252 366 259 365 L259 297 C239 273 205 251 166 251 L166 251 Z M101 512 C93 510 85 502 85 493 C85 483 93 475 103 475 C105 475 109 475 111 476 C129 481 147 482 166 482 C212 482 259 465 259 417 L259 387 L250 387 C230 396 203 402 178 402 C119 402 60 378 60 310 C60 238 91 214 165 214 C201 214 239 228 259 256 L259 238 C259 227 268 218 279 218 C290 218 299 227 299 238 L299 411 C299 495 249 521 172 521 C151 521 124 518 101 512 L101 512 Z " />
<glyph glyph-name="guillemotleft" unicode="&#xab;" horiz-adv-x="438" d="M94 207 L94 217 L100 217 C138 281 161 327 198 391 C200 394 200 397 200 401 C200 414 190 424 177 424 C168 424 160 419 157 411 L88 296 C73 271 60 243 60 212 C60 181 73 153 88 128 L157 13 C160 5 168 0 177 0 C190 0 200 10 200 23 C200 27 200 30 198 33 C161 97 138 143 100 207 L94 207 Z M272 207 L272 217 L278 217 C316 281 339 327 376 391 C378 394 378 397 378 401 C378 414 368 424 355 424 C346 424 338 419 335 411 L266 296 C251 271 238 243 238 212 C238 181 251 153 266 128 L335 13 C338 5 346 0 355 0 C368 0 378 10 378 23 C378 27 378 30 376 33 C339 97 316 143 278 207 L272 207 Z " />
<glyph glyph-name="logicalnot" unicode="&#xac;" horiz-adv-x="456" d="M348 97 C348 84 359 73 372 73 C385 73 396 84 396 97 L396 223 C396 236 386 246 374 246 L82 246 C70 246 60 236 60 223 C60 210 70 201 82 201 L348 201 L348 97 Z " />
<glyph glyph-name="uni00AD" unicode="&#xad;" horiz-adv-x="513" d="" />
<glyph glyph-name="registered" unicode="&#xae;" horiz-adv-x="630" d="M315 505 C174 505 60 391 60 250 C60 109 174 -5 315 -5 C456 -5 570 109 570 250 C570 391 456 505 315 505 L315 505 Z M315 38 C206 38 103 141 103 250 C103 359 206 462 315 462 C424 462 527 359 527 250 C527 141 424 38 315 38 L315 38 Z M324 242 L255 242 L255 366 L324 366 C352 366 395 366 395 305 C395 242 352 242 324 242 L324 242 Z M232 406 C219 406 210 397 210 384 L210 124 C210 111 219 102 232 102 C245 102 255 111 255 124 L255 203 L363 203 L392 116 C395 108 402 102 412 102 C424 102 433 111 433 123 C433 126 432 129 431 132 L405 212 C426 224 440 249 440 305 C440 403 396 406 339 406 L232 406 Z " />
<glyph glyph-name="macron" unicode="&#xaf;" horiz-adv-x="455" d="M375 451 C386 451 395 459 395 471 C395 482 386 491 375 491 L80 491 C69 491 60 482 60 471 C60 459 69 451 80 451 L375 451 Z " />
<glyph glyph-name="degree" unicode="&#xb0;" horiz-adv-x="323" d="M161 521 C105 521 60 475 60 419 C60 363 105 318 161 318 C217 318 263 363 263 419 C263 475 217 521 161 521 L161 521 Z M161 359 C128 359 101 386 101 419 C101 453 128 480 161 480 C195 480 222 453 222 419 C222 386 195 359 161 359 L161 359 Z " />
<glyph glyph-name="plusminus" unicode="&#xb1;" horiz-adv-x="483" d="M265 245 L403 245 C414 245 423 253 423 265 C423 276 414 285 403 285 L265 285 L265 421 C265 434 254 445 241 445 C228 445 218 434 218 421 L218 285 L80 285 C69 285 60 276 60 265 C60 253 69 245 80 245 L218 245 L218 109 C218 96 228 85 241 85 C254 85 265 96 265 109 L265 245 Z M403 0 C414 0 423 8 423 20 C423 31 414 40 403 40 L80 40 C69 40 60 31 60 20 C60 8 69 0 80 0 L403 0 Z " />
<glyph glyph-name="twosuperior" unicode="&#xb2;" horiz-adv-x="325" d="M100 453 C104 472 117 485 162 485 C220 485 225 464 225 436 C225 371 85 328 65 253 C64 250 63 244 63 242 C63 229 74 218 87 218 L247 218 C257 218 265 226 265 236 C265 246 257 254 247 254 L106 254 C129 311 265 360 265 437 C265 474 256 521 162 521 C82 521 64 487 60 454 C60 443 69 434 80 434 C90 434 99 443 100 453 L100 453 Z " />
<glyph glyph-name="threesuperior" unicode="&#xb3;" horiz-adv-x="322" d="M163 385 C153 385 143 377 143 367 C143 357 153 349 163 349 C217 346 221 326 221 299 C221 270 216 249 158 249 C114 249 103 262 100 281 C100 292 91 301 80 301 C69 301 61 292 61 281 C64 248 78 213 158 213 C253 213 262 261 262 299 C262 322 254 350 230 367 C254 385 261 412 261 436 C261 473 253 521 157 521 C77 521 63 486 60 453 C60 442 69 433 80 433 C91 433 100 442 100 453 C103 472 113 485 158 485 C216 485 221 464 221 435 C221 408 216 388 163 385 L163 385 Z " />
<glyph glyph-name="acute" unicode="&#xb4;" horiz-adv-x="187" d="M126 502 C127 504 127 507 127 510 C127 525 116 536 101 536 C89 536 78 527 76 515 L60 421 C60 411 69 402 79 402 C87 402 95 408 97 416 L126 502 Z " />
<glyph glyph-name="mu" unicode="&#xb5;" horiz-adv-x="440" d="M380 376 C380 389 369 400 356 400 C343 400 332 389 332 376 L332 138 C332 70 304 40 214 40 C108 40 108 101 108 164 L108 376 C108 389 97 400 84 400 C71 400 60 389 60 376 L60 -156 C60 -169 71 -180 84 -180 C97 -180 108 -169 108 -156 L108 21 L117 21 C139 4 160 -5 201 -5 C242 -5 292 -5 321 33 L330 33 C332 11 343 0 356 0 C369 0 380 11 380 24 L380 376 Z " />
<glyph glyph-name="paragraph" unicode="&#xb6;" horiz-adv-x="498" d="M438 494 C438 507 427 518 414 518 L232 518 C138 502 60 421 60 323 C60 224 139 142 241 129 L241 -159 C241 -172 252 -183 265 -183 C278 -183 289 -172 289 -159 L289 475 L390 475 L390 -159 C390 -172 401 -183 414 -183 C427 -183 438 -172 438 -159 L438 494 Z " />
<glyph glyph-name="periodcentered" unicode="&#xb7;" horiz-adv-x="242" d="M60 193 C60 160 87 132 121 132 C155 132 182 160 182 193 C182 227 155 255 121 255 C87 255 60 227 60 193 L60 193 Z " />
<glyph glyph-name="cedilla" unicode="&#xb8;" horiz-adv-x="187" d="M61 -153 C60 -155 60 -158 60 -161 C60 -176 71 -187 86 -187 C98 -187 109 -178 111 -166 L127 -72 C127 -62 118 -53 108 -53 C100 -53 92 -59 90 -67 L61 -153 Z " />
<glyph glyph-name="onesuperior" unicode="&#xb9;" horiz-adv-x="252" d="M67 464 C63 461 60 455 60 448 C60 438 67 431 77 431 C81 431 86 432 89 434 C110 447 133 463 152 476 L152 238 C152 227 161 218 172 218 C183 218 192 227 192 238 L192 501 C192 512 183 521 172 521 C168 521 160 520 152 519 L67 464 Z " />
<glyph glyph-name="ordmasculine" unicode="&#xba;" horiz-adv-x="399" d="M199 526 C123 526 60 464 60 386 C60 309 123 247 199 247 C277 247 339 309 339 386 C339 464 277 526 199 526 L199 526 Z M199 313 C159 313 127 346 127 386 C127 427 159 460 199 460 C241 460 273 427 273 386 C273 346 241 313 199 313 L199 313 Z " />
<glyph glyph-name="guillemotright" unicode="&#xbb;" horiz-adv-x="438" d="M338 207 C300 143 277 97 240 33 C238 30 238 27 238 23 C238 10 248 0 261 0 C270 0 278 5 281 13 L350 128 C365 153 378 181 378 212 C378 243 365 271 350 296 L281 411 C278 419 270 424 261 424 C248 424 238 414 238 401 C238 397 238 394 240 391 C277 327 300 281 338 217 L344 217 L344 207 L338 207 Z M160 207 C122 143 99 97 62 33 C60 30 60 27 60 23 C60 10 70 0 83 0 C92 0 100 5 103 13 L172 128 C187 153 200 181 200 212 C200 243 187 271 172 296 L103 411 C100 419 92 424 83 424 C70 424 60 414 60 401 C60 397 60 394 62 391 C99 327 122 281 160 217 L166 217 L166 207 L160 207 Z " />
<glyph glyph-name="onequarter" unicode="&#xbc;" horiz-adv-x="595" d="M368 124 L458 259 L458 124 L368 124 Z M67 443 C63 440 60 434 60 427 C60 417 67 410 77 410 C81 410 86 411 89 413 C110 426 133 442 152 455 L152 217 C152 206 161 197 172 197 C183 197 192 206 192 217 L192 480 C192 491 183 500 172 500 C168 500 160 499 152 498 L67 443 Z M381 487 C385 495 392 500 401 500 C413 500 424 489 424 477 C424 474 423 471 422 468 L218 13 C214 5 207 0 198 0 C186 0 175 11 175 23 C175 26 176 29 177 32 L381 487 Z M498 269 C498 288 483 303 464 303 C453 303 443 298 437 290 L326 129 C322 125 320 119 320 112 C320 98 330 88 344 88 L458 88 L458 20 C458 9 467 0 478 0 C489 0 498 9 498 20 L498 88 L517 88 C527 88 535 96 535 106 C535 116 527 124 517 124 L498 124 L498 269 Z " />
<glyph glyph-name="onehalf" unicode="&#xbd;" horiz-adv-x="640" d="M67 443 C63 440 60 434 60 427 C60 417 67 410 77 410 C81 410 86 411 89 413 C110 426 133 442 152 455 L152 217 C152 206 161 197 172 197 C183 197 192 206 192 217 L192 480 C192 491 183 500 172 500 C168 500 160 499 152 498 L67 443 Z M381 487 C385 495 392 500 401 500 C413 500 424 489 424 477 C424 474 423 471 422 468 L218 13 C214 5 207 0 198 0 C186 0 175 11 175 23 C175 26 176 29 177 32 L381 487 Z M415 235 C419 254 432 267 477 267 C535 267 540 246 540 218 C540 153 400 110 380 35 C379 32 378 26 378 24 C378 11 389 0 402 0 L562 0 C572 0 580 8 580 18 C580 28 572 36 562 36 L421 36 C444 93 580 142 580 219 C580 256 571 303 477 303 C397 303 379 269 375 236 C375 225 384 216 395 216 C405 216 414 225 415 235 L415 235 Z " />
<glyph glyph-name="threequarters" unicode="&#xbe;" horiz-adv-x="631" d="M404 124 L494 259 L494 124 L404 124 Z M417 487 C421 495 428 500 437 500 C449 500 460 489 460 477 C460 474 459 471 458 468 L254 13 C250 5 243 0 234 0 C222 0 211 11 211 23 C211 26 212 29 213 32 L417 487 Z M534 269 C534 288 519 303 500 303 C489 303 479 298 473 290 L362 129 C358 125 356 119 356 112 C356 98 366 88 380 88 L494 88 L494 20 C494 9 503 0 514 0 C525 0 534 9 534 20 L534 88 L553 88 C563 88 571 96 571 106 C571 116 563 124 553 124 L534 124 L534 269 Z M163 369 C153 369 143 361 143 351 C143 341 153 333 163 333 C217 330 221 310 221 283 C221 254 216 233 158 233 C114 233 103 246 100 265 C100 276 91 285 80 285 C69 285 61 276 61 265 C64 232 78 197 158 197 C253 197 262 245 262 283 C262 306 254 334 230 351 C254 369 261 396 261 420 C261 457 253 505 157 505 C77 505 63 470 60 437 C60 426 69 417 80 417 C91 417 100 426 100 437 C103 456 113 469 158 469 C216 469 221 448 221 419 C221 392 216 372 163 369 L163 369 Z " />
<glyph glyph-name="questiondown" unicode="&#xbf;" horiz-adv-x="369" d="M194 300 C194 215 60 213 60 104 C60 26 111 0 203 0 C232 0 267 4 295 14 C303 17 309 25 309 35 C309 47 299 58 287 58 C266 50 237 46 205 46 C122 46 108 59 108 104 C108 193 242 188 242 299 L242 372 C242 385 231 396 218 396 C205 396 194 385 194 372 L194 300 Z M194 459 C194 447 205 436 218 436 C230 436 241 447 241 459 L241 482 C241 494 230 505 218 505 C205 505 194 494 194 482 L194 459 Z " />
<glyph glyph-name="Agrave" unicode="&#xc0;" horiz-adv-x="418" d="M407 33 L259 458 C251 482 235 500 209 500 C183 500 167 482 159 458 L11 33 C10 30 10 27 10 23 C10 10 20 0 33 0 C44 0 53 6 56 15 L107 164 L311 164 L362 15 C365 6 374 0 385 0 C398 0 408 10 408 23 C408 27 408 30 407 33 L407 33 Z M123 209 L209 459 L295 209 L123 209 Z M186 564 C188 556 196 550 204 550 C214 550 223 559 223 569 L207 663 C205 675 194 684 182 684 C167 684 156 673 156 658 C156 655 156 652 157 650 L186 564 Z " />
<glyph glyph-name="Aacute" unicode="&#xc1;" horiz-adv-x="418" d="M407 33 L259 458 C251 482 235 500 209 500 C183 500 167 482 159 458 L11 33 C10 30 10 27 10 23 C10 10 20 0 33 0 C44 0 53 6 56 15 L107 164 L311 164 L362 15 C365 6 374 0 385 0 C398 0 408 10 408 23 C408 27 408 30 407 33 L407 33 Z M123 209 L209 459 L295 209 L123 209 Z M256 650 C257 652 257 655 257 658 C257 673 246 684 231 684 C219 684 208 675 206 663 L190 569 C190 559 199 550 209 550 C217 550 225 556 227 564 L256 650 Z " />
<glyph glyph-name="Acircumflex" unicode="&#xc2;" horiz-adv-x="418" d="M407 33 L259 458 C251 482 235 500 209 500 C183 500 167 482 159 458 L11 33 C10 30 10 27 10 23 C10 10 20 0 33 0 C44 0 53 6 56 15 L107 164 L311 164 L362 15 C365 6 374 0 385 0 C398 0 408 10 408 23 C408 27 408 30 407 33 L407 33 Z M123 209 L209 459 L295 209 L123 209 Z M209 661 C218 637 235 594 246 563 C249 555 256 550 265 550 C277 550 285 558 285 570 C285 573 284 576 283 579 L248 667 C242 684 226 695 209 695 C192 695 176 684 170 667 L135 579 C134 576 133 573 133 570 C133 558 141 550 153 550 C162 550 169 555 172 563 C183 594 200 637 209 661 L209 661 Z " />
<glyph glyph-name="Atilde" unicode="&#xc3;" horiz-adv-x="418" d="M407 33 L259 458 C251 482 235 500 209 500 C183 500 167 482 159 458 L11 33 C10 30 10 27 10 23 C10 10 20 0 33 0 C44 0 53 6 56 15 L107 164 L311 164 L362 15 C365 6 374 0 385 0 C398 0 408 10 408 23 C408 27 408 30 407 33 L407 33 Z M123 209 L209 459 L295 209 L123 209 Z M328 573 C333 576 335 583 335 588 C335 598 327 606 317 606 C313 606 309 604 306 602 C292 593 279 590 257 590 C222 590 197 617 164 617 C136 617 114 607 93 590 C88 587 86 580 86 575 C86 565 94 557 104 557 C108 557 112 559 115 561 C129 572 141 577 164 577 C197 577 217 550 255 550 C282 550 306 558 328 573 L328 573 Z " />
<glyph glyph-name="Adieresis" unicode="&#xc4;" horiz-adv-x="418" d="M407 33 L259 458 C251 482 235 500 209 500 C183 500 167 482 159 458 L11 33 C10 30 10 27 10 23 C10 10 20 0 33 0 C44 0 53 6 56 15 L107 164 L311 164 L362 15 C365 6 374 0 385 0 C398 0 408 10 408 23 C408 27 408 30 407 33 L407 33 Z M123 209 L209 459 L295 209 L123 209 Z M165 583 C165 595 154 606 141 606 C129 606 118 595 118 583 L118 573 C118 561 129 550 141 550 C154 550 165 561 165 573 L165 583 Z M300 583 C300 595 289 606 276 606 C264 606 253 595 253 583 L253 573 C253 561 264 550 276 550 C289 550 300 561 300 573 L300 583 Z " />
<glyph glyph-name="Aring" unicode="&#xc5;" horiz-adv-x="418" d="M209 708 C165 708 130 672 130 628 C130 584 165 549 209 549 C253 549 289 584 289 628 C289 672 253 708 209 708 L209 708 Z M209 589 C188 589 172 605 172 626 C172 647 188 664 209 664 C230 664 247 647 247 626 C247 605 230 589 209 589 L209 589 Z M407 33 L259 458 C251 482 235 500 209 500 C183 500 167 482 159 458 L11 33 C10 30 10 27 10 23 C10 10 20 0 33 0 C44 0 53 6 56 15 L107 164 L311 164 L362 15 C365 6 374 0 385 0 C398 0 408 10 408 23 C408 27 408 30 407 33 L407 33 Z M123 209 L209 459 L295 209 L123 209 Z " />
<glyph glyph-name="AE" unicode="&#xc6;" horiz-adv-x="691" d="M162 209 L308 451 L308 209 L162 209 Z M5 38 C2 34 0 29 0 23 C0 10 10 0 23 0 C33 0 41 5 45 12 L136 164 L308 164 L308 30 C308 14 322 0 337 0 L615 0 C628 0 638 9 638 22 C638 35 628 45 615 45 L356 45 L356 227 L580 227 C593 227 603 236 603 249 C603 262 593 272 580 272 L356 272 L356 455 L615 455 C628 455 638 464 638 477 C638 490 628 500 615 500 L297 500 C287 500 278 494 273 486 L5 38 Z " />
<glyph glyph-name="Ccedilla" unicode="&#xc7;" horiz-adv-x="458" d="M404 8 C414 10 423 21 423 31 C423 43 410 52 398 52 C356 44 296 40 259 40 C157 40 98 79 98 170 L98 330 C98 421 157 460 259 460 C296 460 354 457 395 449 L400 449 C411 449 422 458 422 470 C422 480 413 490 403 492 C358 500 299 505 261 505 C135 505 50 459 50 323 L50 177 C50 41 135 -5 261 -5 C298 -5 359 -1 404 8 L404 8 Z M235 -67 C237 -59 245 -53 253 -53 C263 -53 272 -62 272 -72 L256 -166 C254 -178 243 -187 231 -187 C216 -187 205 -176 205 -161 C205 -158 205 -155 206 -153 L235 -67 Z " />
<glyph glyph-name="Egrave" unicode="&#xc8;" horiz-adv-x="443" d="M332 227 C345 227 355 236 355 249 C355 262 345 272 332 272 L108 272 L108 455 L367 455 C380 455 390 464 390 477 C390 490 380 500 367 500 L89 500 C74 500 60 486 60 470 L60 30 C60 14 74 0 89 0 L367 0 C380 0 390 9 390 22 C390 35 380 45 367 45 L108 45 L108 227 L332 227 Z M203 564 C205 556 213 550 221 550 C231 550 240 559 240 569 L224 663 C222 675 211 684 199 684 C184 684 173 673 173 658 C173 655 173 652 174 650 L203 564 Z " />
<glyph glyph-name="Eacute" unicode="&#xc9;" horiz-adv-x="443" d="M332 227 C345 227 355 236 355 249 C355 262 345 272 332 272 L108 272 L108 455 L367 455 C380 455 390 464 390 477 C390 490 380 500 367 500 L89 500 C74 500 60 486 60 470 L60 30 C60 14 74 0 89 0 L367 0 C380 0 390 9 390 22 C390 35 380 45 367 45 L108 45 L108 227 L332 227 Z M284 650 C285 652 285 655 285 658 C285 673 274 684 259 684 C247 684 236 675 234 663 L218 569 C218 559 227 550 237 550 C245 550 253 556 255 564 L284 650 Z " />
<glyph glyph-name="Ecircumflex" unicode="&#xca;" horiz-adv-x="443" d="M332 227 C345 227 355 236 355 249 C355 262 345 272 332 272 L108 272 L108 455 L367 455 C380 455 390 464 390 477 C390 490 380 500 367 500 L89 500 C74 500 60 486 60 470 L60 30 C60 14 74 0 89 0 L367 0 C380 0 390 9 390 22 C390 35 380 45 367 45 L108 45 L108 227 L332 227 Z M227 661 C236 637 253 594 264 563 C267 555 274 550 283 550 C295 550 303 558 303 570 C303 573 302 576 301 579 L266 667 C260 684 244 695 227 695 C210 695 194 684 188 667 L153 579 C152 576 151 573 151 570 C151 558 159 550 171 550 C180 550 187 555 190 563 C201 594 218 637 227 661 L227 661 Z " />
<glyph glyph-name="Edieresis" unicode="&#xcb;" horiz-adv-x="443" d="M332 227 C345 227 355 236 355 249 C355 262 345 272 332 272 L108 272 L108 455 L367 455 C380 455 390 464 390 477 C390 490 380 500 367 500 L89 500 C74 500 60 486 60 470 L60 30 C60 14 74 0 89 0 L367 0 C380 0 390 9 390 22 C390 35 380 45 367 45 L108 45 L108 227 L332 227 Z M174 583 C174 595 163 606 150 606 C138 606 127 595 127 583 L127 573 C127 561 138 550 150 550 C163 550 174 561 174 573 L174 583 Z M321 583 C321 595 310 606 297 606 C285 606 274 595 274 583 L274 573 C274 561 285 550 297 550 C310 550 321 561 321 573 L321 583 Z " />
<glyph glyph-name="Igrave" unicode="&#xcc;" horiz-adv-x="168" d="M60 24 C60 11 71 0 84 0 C97 0 108 11 108 24 L108 476 C108 489 97 500 84 500 C71 500 60 489 60 476 L60 24 Z M64 564 C66 556 74 550 82 550 C92 550 101 559 101 569 L85 663 C83 675 72 684 60 684 C45 684 34 673 34 658 C34 655 34 652 35 650 L64 564 Z " />
<glyph glyph-name="Iacute" unicode="&#xcd;" horiz-adv-x="168" d="M60 24 C60 11 71 0 84 0 C97 0 108 11 108 24 L108 476 C108 489 97 500 84 500 C71 500 60 489 60 476 L60 24 Z M131 650 C132 652 132 655 132 658 C132 673 121 684 106 684 C94 684 83 675 81 663 L65 569 C65 559 74 550 84 550 C92 550 100 556 102 564 L131 650 Z " />
<glyph glyph-name="Icircumflex" unicode="&#xce;" horiz-adv-x="168" d="M60 24 C60 11 71 0 84 0 C97 0 108 11 108 24 L108 476 C108 489 97 500 84 500 C71 500 60 489 60 476 L60 24 Z M84 661 C93 637 110 594 121 563 C124 555 131 550 140 550 C152 550 160 558 160 570 C160 573 159 576 158 579 L123 667 C117 684 101 695 84 695 C67 695 51 684 45 667 L10 579 C9 576 8 573 8 570 C8 558 16 550 28 550 C37 550 44 555 47 563 C58 594 75 637 84 661 L84 661 Z " />
<glyph glyph-name="Idieresis" unicode="&#xcf;" horiz-adv-x="168" d="M60 24 C60 11 71 0 84 0 C97 0 108 11 108 24 L108 476 C108 489 97 500 84 500 C71 500 60 489 60 476 L60 24 Z M60 583 C60 595 49 606 36 606 C24 606 13 595 13 583 L13 573 C13 561 24 550 36 550 C49 550 60 561 60 573 L60 583 Z M155 583 C155 595 144 606 131 606 C119 606 108 595 108 583 L108 573 C108 561 119 550 131 550 C144 550 155 561 155 573 L155 583 Z " />
<glyph glyph-name="Eth" unicode="&#xd0;" horiz-adv-x="497" d="M233 0 C361 0 447 46 447 184 L447 321 C447 459 361 505 233 505 L94 505 C79 505 65 491 65 475 L65 262 L30 262 C19 262 10 253 10 242 C10 230 19 222 30 222 L65 222 L65 30 C65 14 79 0 94 0 L233 0 Z M224 222 C235 222 244 230 244 242 C244 253 235 262 224 262 L113 262 L113 460 L235 460 C319 460 399 420 399 328 L399 177 C399 85 319 45 235 45 L113 45 L113 222 L224 222 Z " />
<glyph glyph-name="Ntilde" unicode="&#xd1;" horiz-adv-x="522" d="M369 26 C379 10 394 0 414 0 C445 0 462 25 462 56 L462 476 C462 489 451 500 438 500 C425 500 414 489 414 476 L414 46 L153 474 C143 490 128 500 108 500 C77 500 60 475 60 444 L60 24 C60 11 71 0 84 0 C97 0 108 11 108 24 L108 454 L369 26 Z M384 573 C389 576 391 583 391 588 C391 598 383 606 373 606 C369 606 365 604 362 602 C348 593 335 590 313 590 C278 590 253 617 220 617 C192 617 170 607 149 590 C144 587 142 580 142 575 C142 565 150 557 160 557 C164 557 168 559 171 561 C185 572 197 577 220 577 C253 577 273 550 311 550 C338 550 362 558 384 573 L384 573 Z " />
<glyph glyph-name="Ograve" unicode="&#xd2;" horiz-adv-x="494" d="M247 -5 C443 -5 444 77 444 187 L444 315 C444 425 443 505 247 505 C51 505 50 425 50 315 L50 187 C50 77 51 -5 247 -5 L247 -5 Z M247 460 C383 460 396 421 396 314 L396 186 C396 79 383 40 247 40 C111 40 98 79 98 186 L98 314 C98 421 111 460 247 460 L247 460 Z M221 564 C223 556 231 550 239 550 C249 550 258 559 258 569 L242 663 C240 675 229 684 217 684 C202 684 191 673 191 658 C191 655 191 652 192 650 L221 564 Z " />
<glyph glyph-name="Oacute" unicode="&#xd3;" horiz-adv-x="494" d="M247 -5 C443 -5 444 77 444 187 L444 315 C444 425 443 505 247 505 C51 505 50 425 50 315 L50 187 C50 77 51 -5 247 -5 L247 -5 Z M247 460 C383 460 396 421 396 314 L396 186 C396 79 383 40 247 40 C111 40 98 79 98 186 L98 314 C98 421 111 460 247 460 L247 460 Z M300 650 C301 652 301 655 301 658 C301 673 290 684 275 684 C263 684 252 675 250 663 L234 569 C234 559 243 550 253 550 C261 550 269 556 271 564 L300 650 Z " />
<glyph glyph-name="Ocircumflex" unicode="&#xd4;" horiz-adv-x="494" d="M247 -5 C51 -5 50 77 50 187 L50 315 C50 425 51 505 247 505 C443 505 444 425 444 315 L444 187 C444 77 443 -5 247 -5 L247 -5 Z M247 460 C111 460 98 421 98 314 L98 186 C98 79 111 40 247 40 C383 40 396 79 396 186 L396 314 C396 421 383 460 247 460 L247 460 Z M247 661 C256 637 273 594 284 563 C287 555 294 550 303 550 C315 550 323 558 323 570 C323 573 322 576 321 579 L286 667 C280 684 264 695 247 695 C230 695 214 684 208 667 L173 579 C172 576 171 573 171 570 C171 558 179 550 191 550 C200 550 207 555 210 563 C221 594 238 637 247 661 L247 661 Z " />
<glyph glyph-name="Otilde" unicode="&#xd5;" horiz-adv-x="494" d="M247 -5 C51 -5 50 77 50 187 L50 315 C50 425 51 505 247 505 C443 505 444 425 444 315 L444 187 C444 77 443 -5 247 -5 L247 -5 Z M247 460 C111 460 98 421 98 314 L98 186 C98 79 111 40 247 40 C383 40 396 79 396 186 L396 314 C396 421 383 460 247 460 L247 460 Z M358 573 C363 576 365 583 365 588 C365 598 357 606 347 606 C343 606 339 604 336 602 C322 593 309 590 287 590 C252 590 227 617 194 617 C166 617 144 607 123 590 C118 587 116 580 116 575 C116 565 124 557 134 557 C138 557 142 559 145 561 C159 572 171 577 194 577 C227 577 247 550 285 550 C312 550 336 558 358 573 L358 573 Z " />
<glyph glyph-name="Odieresis" unicode="&#xd6;" horiz-adv-x="494" d="M247 -5 C51 -5 50 77 50 187 L50 315 C50 425 51 505 247 505 C443 505 444 425 444 315 L444 187 C444 77 443 -5 247 -5 L247 -5 Z M247 460 C111 460 98 421 98 314 L98 186 C98 79 111 40 247 40 C383 40 396 79 396 186 L396 314 C396 421 383 460 247 460 L247 460 Z M203 583 C203 595 192 606 179 606 C167 606 156 595 156 583 L156 573 C156 561 167 550 179 550 C192 550 203 561 203 573 L203 583 Z M338 583 C338 595 327 606 314 606 C302 606 291 595 291 583 L291 573 C291 561 302 550 314 550 C327 550 338 561 338 573 L338 583 Z " />
<glyph glyph-name="multiply" unicode="&#xd7;" horiz-adv-x="402" d="M201 156 L299 59 C303 55 309 52 316 52 C331 52 342 63 342 77 C342 84 340 90 335 95 L234 190 L335 290 C338 294 340 298 340 303 C340 316 329 327 316 327 C311 327 306 325 302 321 L201 223 L100 321 C96 325 91 327 86 327 C73 327 62 316 62 303 C62 298 64 294 67 290 L168 190 L67 95 C62 90 60 84 60 77 C60 63 71 52 86 52 C93 52 99 55 103 59 L201 156 Z " />
<glyph glyph-name="Oslash" unicode="&#xd8;" horiz-adv-x="494" d="M98 186 L98 314 C98 421 111 460 247 460 C261 460 274 459 286 458 L161 49 C105 66 98 108 98 186 L98 186 Z M396 186 C396 79 383 40 247 40 C231 40 218 40 205 41 L331 451 C389 434 396 392 396 314 L396 186 Z M134 -41 C134 -54 144 -64 157 -64 C167 -64 175 -58 178 -48 L192 -3 C208 -4 226 -5 247 -5 C443 -5 444 77 444 187 L444 315 C444 402 443 471 345 495 L360 547 C360 560 350 570 337 570 C327 570 319 564 316 554 L300 502 C284 504 266 505 247 505 C51 505 50 425 50 315 L50 187 C50 100 50 30 147 5 L134 -41 Z " />
<glyph glyph-name="Ugrave" unicode="&#xd9;" horiz-adv-x="522" d="M462 476 C462 489 451 500 438 500 C425 500 414 489 414 476 L414 180 C414 73 397 40 262 40 C126 40 108 73 108 180 L108 476 C108 489 97 500 84 500 C71 500 60 489 60 476 L60 178 C60 68 66 -5 262 -5 C456 -5 462 68 462 178 L462 476 Z M238 564 C240 556 248 550 256 550 C266 550 275 559 275 569 L259 663 C257 675 246 684 234 684 C219 684 208 673 208 658 C208 655 208 652 209 650 L238 564 Z " />
<glyph glyph-name="Uacute" unicode="&#xda;" horiz-adv-x="522" d="M462 476 C462 489 451 500 438 500 C425 500 414 489 414 476 L414 180 C414 73 397 40 262 40 C126 40 108 73 108 180 L108 476 C108 489 97 500 84 500 C71 500 60 489 60 476 L60 178 C60 68 66 -5 262 -5 C456 -5 462 68 462 178 L462 476 Z M316 650 C317 652 317 655 317 658 C317 673 306 684 291 684 C279 684 268 675 266 663 L250 569 C250 559 259 550 269 550 C277 550 285 556 287 564 L316 650 Z " />
<glyph glyph-name="Ucircumflex" unicode="&#xdb;" horiz-adv-x="522" d="M462 178 C462 68 456 -5 262 -5 C66 -5 60 68 60 178 L60 476 C60 489 71 500 84 500 C97 500 108 489 108 476 L108 180 C108 73 126 40 262 40 C397 40 414 73 414 180 L414 476 C414 489 425 500 438 500 C451 500 462 489 462 476 L462 178 Z M262 661 C271 637 288 594 299 563 C302 555 309 550 318 550 C330 550 338 558 338 570 C338 573 337 576 336 579 L301 667 C295 684 279 695 262 695 C245 695 229 684 223 667 L188 579 C187 576 186 573 186 570 C186 558 194 550 206 550 C215 550 222 555 225 563 C236 594 253 637 262 661 L262 661 Z " />
<glyph glyph-name="Udieresis" unicode="&#xdc;" horiz-adv-x="522" d="M462 178 C462 68 456 -5 262 -5 C66 -5 60 68 60 178 L60 476 C60 489 71 500 84 500 C97 500 108 489 108 476 L108 180 C108 73 126 40 262 40 C397 40 414 73 414 180 L414 476 C414 489 425 500 438 500 C451 500 462 489 462 476 L462 178 Z M212 583 C212 595 201 606 188 606 C176 606 165 595 165 583 L165 573 C165 561 176 550 188 550 C201 550 212 561 212 573 L212 583 Z M359 583 C359 595 348 606 335 606 C323 606 312 595 312 583 L312 573 C312 561 323 550 335 550 C348 550 359 561 359 573 L359 583 Z " />
<glyph glyph-name="Yacute" unicode="&#xdd;" horiz-adv-x="422" d="M187 24 C187 11 198 0 211 0 C224 0 235 11 235 24 L235 218 L398 462 C400 466 402 470 402 475 C402 489 392 500 378 500 C369 500 361 496 357 489 L211 261 L65 489 C61 496 53 500 44 500 C30 500 20 489 20 475 C20 470 22 466 24 462 L187 218 L187 24 Z M266 650 C267 652 267 655 267 658 C267 673 256 684 241 684 C229 684 218 675 216 663 L200 569 C200 559 209 550 219 550 C227 550 235 556 237 564 L266 650 Z " />
<glyph glyph-name="Thorn" unicode="&#xde;" horiz-adv-x="439" d="M108 94 L248 94 C335 94 414 103 414 257 C414 410 335 416 248 416 L108 416 L108 494 C108 507 97 518 84 518 C71 518 60 507 60 494 L60 24 C60 11 71 0 84 0 C97 0 108 11 108 24 L108 94 Z M247 139 L108 139 L108 371 L247 371 C298 371 366 366 366 257 C366 139 298 139 247 139 L247 139 Z " />
<glyph glyph-name="germandbls" unicode="&#xdf;" horiz-adv-x="453" d="M278 41 C267 41 257 31 257 20 C257 9 267 0 278 0 C366 3 400 24 403 124 L403 136 C403 192 383 235 342 264 C394 289 403 318 403 383 C403 475 341 501 228 501 C82 501 60 464 60 311 L60 24 C60 11 71 0 84 0 C97 0 108 11 108 24 L108 312 C108 445 120 458 228 458 C303 458 355 457 355 383 C355 294 329 290 252 290 C240 290 231 280 231 268 C231 256 240 247 252 247 C321 244 355 219 355 135 C355 56 335 44 278 41 L278 41 Z " />
<glyph glyph-name="agrave" unicode="&#xe0;" horiz-adv-x="398" d="M172 40 C112 41 83 66 83 120 C83 192 153 192 232 192 C248 192 285 192 305 190 L305 106 C273 69 231 40 172 40 L172 40 Z M90 394 C80 392 72 384 72 373 C72 361 81 352 93 352 C95 352 98 352 100 353 C124 358 148 360 175 360 C245 360 305 337 305 262 L305 218 L298 218 C270 230 226 237 192 237 C115 237 35 207 35 118 C35 26 77 -5 173 -5 C220 -5 264 2 305 53 L305 24 C305 11 316 0 329 0 C342 0 353 11 353 24 L353 261 C353 372 286 405 184 405 C155 405 122 401 90 394 L90 394 Z M191 469 C193 461 201 455 209 455 C219 455 228 464 228 474 L212 568 C210 580 199 589 187 589 C172 589 161 578 161 563 C161 560 161 557 162 555 L191 469 Z " />
<glyph glyph-name="aacute" unicode="&#xe1;" horiz-adv-x="398" d="M172 40 C112 41 83 66 83 120 C83 192 153 192 232 192 C248 192 285 192 305 190 L305 106 C273 69 231 40 172 40 L172 40 Z M90 394 C80 392 72 384 72 373 C72 361 81 352 93 352 C95 352 98 352 100 353 C124 358 148 360 175 360 C245 360 305 337 305 262 L305 218 L298 218 C270 230 226 237 192 237 C115 237 35 207 35 118 C35 26 77 -5 173 -5 C220 -5 264 2 305 53 L305 24 C305 11 316 0 329 0 C342 0 353 11 353 24 L353 261 C353 372 286 405 184 405 C155 405 122 401 90 394 L90 394 Z M270 555 C271 557 271 560 271 563 C271 578 260 589 245 589 C233 589 222 580 220 568 L204 474 C204 464 213 455 223 455 C231 455 239 461 241 469 L270 555 Z " />
<glyph glyph-name="acircumflex" unicode="&#xe2;" horiz-adv-x="398" d="M172 40 C112 41 83 66 83 120 C83 192 153 192 232 192 C248 192 285 192 305 190 L305 106 C273 69 231 40 172 40 L172 40 Z M90 394 C80 392 72 384 72 373 C72 361 81 352 93 352 C95 352 98 352 100 353 C124 358 148 360 175 360 C245 360 305 337 305 262 L305 218 L298 218 C270 230 226 237 192 237 C115 237 35 207 35 118 C35 26 77 -5 173 -5 C220 -5 264 2 305 53 L305 24 C305 11 316 0 329 0 C342 0 353 11 353 24 L353 261 C353 372 286 405 184 405 C155 405 122 401 90 394 L90 394 Z M210 566 C219 542 236 499 247 468 C250 460 257 455 266 455 C278 455 286 463 286 475 C286 478 285 481 284 484 L249 572 C243 589 227 600 210 600 C193 600 177 589 171 572 L136 484 C135 481 134 478 134 475 C134 463 142 455 154 455 C163 455 170 460 173 468 C184 499 201 542 210 566 L210 566 Z " />
<glyph glyph-name="atilde" unicode="&#xe3;" horiz-adv-x="398" d="M172 40 C112 41 83 66 83 120 C83 192 153 192 232 192 C248 192 285 192 305 190 L305 106 C273 69 231 40 172 40 L172 40 Z M90 394 C80 392 72 384 72 373 C72 361 81 352 93 352 C95 352 98 352 100 353 C124 358 148 360 175 360 C245 360 305 337 305 262 L305 218 L298 218 C270 230 226 237 192 237 C115 237 35 207 35 118 C35 26 77 -5 173 -5 C220 -5 264 2 305 53 L305 24 C305 11 316 0 329 0 C342 0 353 11 353 24 L353 261 C353 372 286 405 184 405 C155 405 122 401 90 394 L90 394 Z M323 478 C328 481 330 488 330 493 C330 503 322 511 312 511 C308 511 304 509 301 507 C287 498 274 495 252 495 C217 495 192 522 159 522 C131 522 109 512 88 495 C83 492 81 485 81 480 C81 470 89 462 99 462 C103 462 107 464 110 466 C124 477 136 482 159 482 C192 482 212 455 250 455 C277 455 301 463 323 478 L323 478 Z " />
<glyph glyph-name="adieresis" unicode="&#xe4;" horiz-adv-x="398" d="M172 40 C112 41 83 66 83 120 C83 192 153 192 232 192 C248 192 285 192 305 190 L305 106 C273 69 231 40 172 40 L172 40 Z M90 394 C80 392 72 384 72 373 C72 361 81 352 93 352 C95 352 98 352 100 353 C124 358 148 360 175 360 C245 360 305 337 305 262 L305 218 L298 218 C270 230 226 237 192 237 C115 237 35 207 35 118 C35 26 77 -5 173 -5 C220 -5 264 2 305 53 L305 24 C305 11 316 0 329 0 C342 0 353 11 353 24 L353 261 C353 372 286 405 184 405 C155 405 122 401 90 394 L90 394 Z M163 488 C163 500 152 511 139 511 C127 511 116 500 116 488 L116 478 C116 466 127 455 139 455 C152 455 163 466 163 478 L163 488 Z M310 488 C310 500 299 511 286 511 C274 511 263 500 263 488 L263 478 C263 466 274 455 286 455 C299 455 310 466 310 478 L310 488 Z " />
<glyph glyph-name="aring" unicode="&#xe5;" horiz-adv-x="398" d="M215 614 C171 614 136 578 136 534 C136 490 171 455 215 455 C259 455 295 490 295 534 C295 578 259 614 215 614 L215 614 Z M215 495 C194 495 178 511 178 532 C178 553 194 570 215 570 C236 570 253 553 253 532 C253 511 236 495 215 495 L215 495 Z M172 40 C112 41 83 66 83 120 C83 192 153 192 232 192 C248 192 285 192 305 190 L305 106 C273 69 231 40 172 40 L172 40 Z M90 394 C80 392 72 384 72 373 C72 361 81 352 93 352 C95 352 98 352 100 353 C124 358 148 360 175 360 C245 360 305 337 305 262 L305 218 L298 218 C270 230 226 237 192 237 C115 237 35 207 35 118 C35 26 77 -5 173 -5 C220 -5 264 2 305 53 L305 24 C305 11 316 0 329 0 C342 0 353 11 353 24 L353 261 C353 372 286 405 184 405 C155 405 122 401 90 394 L90 394 Z " />
<glyph glyph-name="ae" unicode="&#xe6;" horiz-adv-x="671" d="M173 40 C113 41 84 66 84 120 C84 192 154 192 233 192 C249 192 286 192 306 190 L306 141 C306 129 307 117 308 107 C276 72 229 40 173 40 L173 40 Z M468 360 C565 360 578 326 578 270 L578 222 L354 222 C354 326 371 360 468 360 L468 360 Z M626 249 C626 352 605 405 468 405 C395 405 352 389 329 352 C301 391 250 405 185 405 C156 405 123 401 91 394 C81 392 73 384 73 373 C73 361 82 352 94 352 C96 352 99 352 101 353 C125 358 149 360 176 360 C246 360 306 337 306 262 L306 218 L299 218 C271 230 227 237 193 237 C116 237 36 207 36 118 C36 26 78 -5 174 -5 C220 -5 284 11 325 60 C353 12 410 -5 481 -5 L485 -5 C514 -5 557 -3 593 3 C603 5 612 16 612 26 C612 38 599 49 587 49 C553 42 511 40 484 40 L480 40 C409 40 354 59 354 134 L354 177 L602 177 C615 177 626 188 626 201 L626 249 Z " />
<glyph glyph-name="ccedilla" unicode="&#xe7;" horiz-adv-x="377" d="M318 49 C284 42 242 40 215 40 C144 40 93 59 93 134 L93 265 C93 340 144 360 215 360 C243 360 288 359 322 353 C333 353 343 363 343 374 C343 383 336 392 327 394 C291 401 245 405 216 405 C114 405 45 369 45 259 L45 141 C45 31 114 -5 216 -5 C245 -5 288 -3 324 3 C334 5 343 16 343 26 C343 38 330 49 318 49 L318 49 Z M168 -153 C167 -155 167 -158 167 -161 C167 -176 178 -187 193 -187 C205 -187 216 -178 218 -166 L234 -72 C234 -62 225 -53 215 -53 C207 -53 199 -59 197 -67 L168 -153 Z " />
<glyph glyph-name="egrave" unicode="&#xe8;" horiz-adv-x="415" d="M212 405 C83 405 50 356 50 228 L50 141 C50 31 123 -5 225 -5 L229 -5 C258 -5 301 -3 337 3 C347 5 356 16 356 26 C356 38 343 49 331 49 C297 42 255 40 228 40 L224 40 C153 40 98 59 98 134 L98 177 L346 177 C359 177 370 188 370 201 L370 249 C370 352 349 405 212 405 L212 405 Z M322 222 L98 222 C98 326 115 360 212 360 C309 360 322 326 322 270 L322 222 Z M187 469 C189 461 197 455 205 455 C215 455 224 464 224 474 L208 568 C206 580 195 589 183 589 C168 589 157 578 157 563 C157 560 157 557 158 555 L187 469 Z " />
<glyph glyph-name="eacute" unicode="&#xe9;" horiz-adv-x="415" d="M212 405 C83 405 50 356 50 228 L50 141 C50 31 123 -5 225 -5 L229 -5 C258 -5 301 -3 337 3 C347 5 356 16 356 26 C356 38 343 49 331 49 C297 42 255 40 228 40 L224 40 C153 40 98 59 98 134 L98 177 L346 177 C359 177 370 188 370 201 L370 249 C370 352 349 405 212 405 L212 405 Z M322 222 L98 222 C98 326 115 360 212 360 C309 360 322 326 322 270 L322 222 Z M270 555 C271 557 271 560 271 563 C271 578 260 589 245 589 C233 589 222 580 220 568 L204 474 C204 464 213 455 223 455 C231 455 239 461 241 469 L270 555 Z " />
<glyph glyph-name="ecircumflex" unicode="&#xea;" horiz-adv-x="415" d="M212 405 C83 405 50 356 50 228 L50 141 C50 31 123 -5 225 -5 L229 -5 C258 -5 301 -3 337 3 C347 5 356 16 356 26 C356 38 343 49 331 49 C297 42 255 40 228 40 L224 40 C153 40 98 59 98 134 L98 177 L346 177 C359 177 370 188 370 201 L370 249 C370 352 349 405 212 405 L212 405 Z M322 222 L98 222 C98 326 115 360 212 360 C309 360 322 326 322 270 L322 222 Z M212 566 C221 542 238 499 249 468 C252 460 259 455 268 455 C280 455 288 463 288 475 C288 478 287 481 286 484 L251 572 C245 589 229 600 212 600 C195 600 179 589 173 572 L138 484 C137 481 136 478 136 475 C136 463 144 455 156 455 C165 455 172 460 175 468 C186 499 203 542 212 566 L212 566 Z " />
<glyph glyph-name="edieresis" unicode="&#xeb;" horiz-adv-x="415" d="M212 405 C83 405 50 356 50 228 L50 141 C50 31 123 -5 225 -5 L229 -5 C258 -5 301 -3 337 3 C347 5 356 16 356 26 C356 38 343 49 331 49 C297 42 255 40 228 40 L224 40 C153 40 98 59 98 134 L98 177 L346 177 C359 177 370 188 370 201 L370 249 C370 352 349 405 212 405 L212 405 Z M322 222 L98 222 C98 326 115 360 212 360 C309 360 322 326 322 270 L322 222 Z M162 488 C162 500 151 511 138 511 C126 511 115 500 115 488 L115 478 C115 466 126 455 138 455 C151 455 162 466 162 478 L162 488 Z M309 488 C309 500 298 511 285 511 C273 511 262 500 262 488 L262 478 C262 466 273 455 285 455 C298 455 309 466 309 478 L309 488 Z " />
<glyph glyph-name="igrave" unicode="&#xec;" horiz-adv-x="168" d="M60 24 C60 11 71 0 84 0 C97 0 108 11 108 24 L108 376 C108 389 97 400 84 400 C71 400 60 389 60 376 L60 24 Z M60 469 C62 461 70 455 78 455 C88 455 97 464 97 474 L81 568 C79 580 68 589 56 589 C41 589 30 578 30 563 C30 560 30 557 31 555 L60 469 Z " />
<glyph glyph-name="iacute" unicode="&#xed;" horiz-adv-x="168" d="M60 24 C60 11 71 0 84 0 C97 0 108 11 108 24 L108 376 C108 389 97 400 84 400 C71 400 60 389 60 376 L60 24 Z M137 555 C138 557 138 560 138 563 C138 578 127 589 112 589 C100 589 89 580 87 568 L71 474 C71 464 80 455 90 455 C98 455 106 461 108 469 L137 555 Z " />
<glyph glyph-name="icircumflex" unicode="&#xee;" horiz-adv-x="168" d="M60 376 C60 389 71 400 84 400 C97 400 108 389 108 376 L108 24 C108 11 97 0 84 0 C71 0 60 11 60 24 L60 376 Z M83 566 C92 542 109 499 120 468 C123 460 130 455 139 455 C151 455 159 463 159 475 C159 478 158 481 157 484 L122 572 C116 589 100 600 83 600 C66 600 50 589 44 572 L9 484 C8 481 7 478 7 475 C7 463 15 455 27 455 C36 455 43 460 46 468 C57 499 74 542 83 566 L83 566 Z " />
<glyph glyph-name="idieresis" unicode="&#xef;" horiz-adv-x="168" d="M60 376 C60 389 71 400 84 400 C97 400 108 389 108 376 L108 24 C108 11 97 0 84 0 C71 0 60 11 60 24 L60 376 Z M60 488 C60 500 49 511 36 511 C24 511 13 500 13 488 L13 478 C13 466 24 455 36 455 C49 455 60 466 60 478 L60 488 Z M155 488 C155 500 144 511 131 511 C119 511 108 500 108 488 L108 478 C108 466 119 455 131 455 C144 455 155 466 155 478 L155 488 Z " />
<glyph glyph-name="eth" unicode="&#xf0;" horiz-adv-x="420" d="M322 155 C322 73 322 40 210 40 C98 40 98 73 98 155 L98 245 C98 329 98 360 210 360 C322 360 322 328 322 245 L322 155 Z M252 559 C248 565 241 570 233 570 C221 570 212 560 212 548 C212 544 213 540 215 537 L230 508 L161 508 C153 508 147 501 147 493 C147 485 153 479 161 479 L247 479 L295 394 C273 401 246 405 210 405 C55 405 50 334 50 246 L50 154 C50 66 55 -5 210 -5 C364 -5 370 66 370 154 L370 284 C370 319 358 368 299 479 L356 479 C364 479 370 485 370 493 C370 501 364 508 356 508 L282 508 L252 559 Z " />
<glyph glyph-name="ntilde" unicode="&#xf1;" horiz-adv-x="430" d="M111 375 C111 389 100 400 85 400 C71 400 60 389 60 375 L60 24 C60 11 71 0 84 0 C97 0 108 11 108 24 L108 262 C108 330 136 360 226 360 C332 360 332 299 332 236 L332 24 C332 11 343 0 356 0 C369 0 380 11 380 24 L380 255 C380 340 346 405 239 405 C198 405 148 405 119 367 L111 367 L111 375 Z M340 478 C345 481 347 488 347 493 C347 503 339 511 329 511 C325 511 321 509 318 507 C304 498 291 495 269 495 C234 495 209 522 176 522 C148 522 126 512 105 495 C100 492 98 485 98 480 C98 470 106 462 116 462 C120 462 124 464 127 466 C141 477 153 482 176 482 C209 482 229 455 267 455 C294 455 318 463 340 478 L340 478 Z " />
<glyph glyph-name="ograve" unicode="&#xf2;" horiz-adv-x="420" d="M210 405 C55 405 50 334 50 246 L50 154 C50 66 55 -5 210 -5 C364 -5 370 66 370 154 L370 246 C370 334 364 405 210 405 L210 405 Z M322 155 C322 73 322 40 210 40 C98 40 98 73 98 155 L98 245 C98 329 98 360 210 360 C322 360 322 328 322 245 L322 155 Z M187 469 C189 461 197 455 205 455 C215 455 224 464 224 474 L208 568 C206 580 195 589 183 589 C168 589 157 578 157 563 C157 560 157 557 158 555 L187 469 Z " />
<glyph glyph-name="oacute" unicode="&#xf3;" horiz-adv-x="420" d="M210 405 C55 405 50 334 50 246 L50 154 C50 66 55 -5 210 -5 C364 -5 370 66 370 154 L370 246 C370 334 364 405 210 405 L210 405 Z M322 155 C322 73 322 40 210 40 C98 40 98 73 98 155 L98 245 C98 329 98 360 210 360 C322 360 322 328 322 245 L322 155 Z M266 555 C267 557 267 560 267 563 C267 578 256 589 241 589 C229 589 218 580 216 568 L200 474 C200 464 209 455 219 455 C227 455 235 461 237 469 L266 555 Z " />
<glyph glyph-name="ocircumflex" unicode="&#xf4;" horiz-adv-x="420" d="M210 405 C55 405 50 334 50 246 L50 154 C50 66 55 -5 210 -5 C364 -5 370 66 370 154 L370 246 C370 334 364 405 210 405 L210 405 Z M322 155 C322 73 322 40 210 40 C98 40 98 73 98 155 L98 245 C98 329 98 360 210 360 C322 360 322 328 322 245 L322 155 Z M210 566 C219 542 236 499 247 468 C250 460 257 455 266 455 C278 455 286 463 286 475 C286 478 285 481 284 484 L249 572 C243 589 227 600 210 600 C193 600 177 589 171 572 L136 484 C135 481 134 478 134 475 C134 463 142 455 154 455 C163 455 170 460 173 468 C184 499 201 542 210 566 L210 566 Z " />
<glyph glyph-name="otilde" unicode="&#xf5;" horiz-adv-x="420" d="M210 405 C55 405 50 334 50 246 L50 154 C50 66 55 -5 210 -5 C364 -5 370 66 370 154 L370 246 C370 334 364 405 210 405 L210 405 Z M322 155 C322 73 322 40 210 40 C98 40 98 73 98 155 L98 245 C98 329 98 360 210 360 C322 360 322 328 322 245 L322 155 Z M328 478 C333 481 335 488 335 493 C335 503 327 511 317 511 C313 511 309 509 306 507 C292 498 279 495 257 495 C222 495 197 522 164 522 C136 522 114 512 93 495 C88 492 86 485 86 480 C86 470 94 462 104 462 C108 462 112 464 115 466 C129 477 141 482 164 482 C197 482 217 455 255 455 C282 455 306 463 328 478 L328 478 Z " />
<glyph glyph-name="odieresis" unicode="&#xf6;" horiz-adv-x="420" d="M210 405 C55 405 50 334 50 246 L50 154 C50 66 55 -5 210 -5 C364 -5 370 66 370 154 L370 246 C370 334 364 405 210 405 L210 405 Z M322 155 C322 73 322 40 210 40 C98 40 98 73 98 155 L98 245 C98 329 98 360 210 360 C322 360 322 328 322 245 L322 155 Z M160 488 C160 500 149 511 136 511 C124 511 113 500 113 488 L113 478 C113 466 124 455 136 455 C149 455 160 466 160 478 L160 488 Z M307 488 C307 500 296 511 283 511 C271 511 260 500 260 488 L260 478 C260 466 271 455 283 455 C296 455 307 466 307 478 L307 488 Z " />
<glyph glyph-name="divide" unicode="&#xf7;" horiz-adv-x="482" d="M402 173 C413 173 422 181 422 193 C422 204 413 213 402 213 L80 213 C69 213 60 204 60 193 C60 181 69 173 80 173 L402 173 Z M264 339 C264 351 253 362 240 362 C228 362 217 351 217 339 L217 316 C217 304 228 293 240 293 C253 293 264 304 264 316 L264 339 Z M264 74 C264 86 253 97 240 97 C228 97 217 86 217 74 L217 51 C217 39 228 28 240 28 C253 28 264 39 264 51 L264 74 Z " />
<glyph glyph-name="oslash" unicode="&#xf8;" horiz-adv-x="420" d="M98 155 L98 245 C98 329 98 360 210 360 C219 360 227 360 235 359 L140 48 C98 62 98 96 98 155 L98 155 Z M322 155 C322 73 322 40 210 40 C201 40 193 40 185 41 L280 352 C322 338 322 305 322 245 L322 155 Z M116 -30 C116 -43 126 -53 139 -53 C149 -53 158 -47 161 -37 L172 -3 C183 -4 196 -5 210 -5 C364 -5 370 66 370 154 L370 246 C370 314 366 372 293 395 L303 429 C303 442 293 452 280 452 C270 452 261 446 258 436 L248 403 C236 404 224 405 210 405 C55 405 50 334 50 246 L50 154 C50 86 53 27 127 5 L116 -30 Z " />
<glyph glyph-name="ugrave" unicode="&#xf9;" horiz-adv-x="430" d="M320 33 C322 11 333 0 346 0 C359 0 370 11 370 24 L370 376 C370 389 359 400 346 400 C333 400 322 389 322 376 L322 138 C322 70 294 40 204 40 C98 40 98 101 98 164 L98 376 C98 389 87 400 74 400 C61 400 50 389 50 376 L50 145 C50 60 84 -5 191 -5 C232 -5 282 -5 311 33 L320 33 Z M186 469 C188 461 196 455 204 455 C214 455 223 464 223 474 L207 568 C205 580 194 589 182 589 C167 589 156 578 156 563 C156 560 156 557 157 555 L186 469 Z " />
<glyph glyph-name="uacute" unicode="&#xfa;" horiz-adv-x="430" d="M320 33 C322 11 333 0 346 0 C359 0 370 11 370 24 L370 376 C370 389 359 400 346 400 C333 400 322 389 322 376 L322 138 C322 70 294 40 204 40 C98 40 98 101 98 164 L98 376 C98 389 87 400 74 400 C61 400 50 389 50 376 L50 145 C50 60 84 -5 191 -5 C232 -5 282 -5 311 33 L320 33 Z M264 555 C265 557 265 560 265 563 C265 578 254 589 239 589 C227 589 216 580 214 568 L198 474 C198 464 207 455 217 455 C225 455 233 461 235 469 L264 555 Z " />
<glyph glyph-name="ucircumflex" unicode="&#xfb;" horiz-adv-x="430" d="M320 33 C322 11 333 0 346 0 C359 0 370 11 370 24 L370 376 C370 389 359 400 346 400 C333 400 322 389 322 376 L322 138 C322 70 294 40 204 40 C98 40 98 101 98 164 L98 376 C98 389 87 400 74 400 C61 400 50 389 50 376 L50 145 C50 60 84 -5 191 -5 C232 -5 282 -5 311 33 L320 33 Z M211 566 C220 542 237 499 248 468 C251 460 258 455 267 455 C279 455 287 463 287 475 C287 478 286 481 285 484 L250 572 C244 589 228 600 211 600 C194 600 178 589 172 572 L137 484 C136 481 135 478 135 475 C135 463 143 455 155 455 C164 455 171 460 174 468 C185 499 202 542 211 566 L211 566 Z " />
<glyph glyph-name="udieresis" unicode="&#xfc;" horiz-adv-x="430" d="M320 33 C322 11 333 0 346 0 C359 0 370 11 370 24 L370 376 C370 389 359 400 346 400 C333 400 322 389 322 376 L322 138 C322 70 294 40 204 40 C98 40 98 101 98 164 L98 376 C98 389 87 400 74 400 C61 400 50 389 50 376 L50 145 C50 60 84 -5 191 -5 C232 -5 282 -5 311 33 L320 33 Z M160 488 C160 500 149 511 136 511 C124 511 113 500 113 488 L113 478 C113 466 124 455 136 455 C149 455 160 466 160 478 L160 488 Z M307 488 C307 500 296 511 283 511 C271 511 260 500 260 488 L260 478 C260 466 271 455 283 455 C296 455 307 466 307 478 L307 488 Z " />
<glyph glyph-name="yacute" unicode="&#xfd;" horiz-adv-x="376" d="M128 -163 C128 -175 137 -184 149 -184 C157 -184 163 -180 167 -174 L355 371 C356 373 356 375 356 377 C356 390 346 400 334 400 C326 400 318 396 314 389 L193 48 L193 40 L184 40 L184 48 L62 389 C58 396 50 400 42 400 C30 400 20 390 20 377 C20 375 20 373 21 371 L143 19 C145 10 153 0 163 0 L192 0 L192 -5 C187 -8 178 -8 169 -37 L128 -163 Z M247 555 C248 557 248 560 248 563 C248 578 237 589 222 589 C210 589 199 580 197 568 L181 474 C181 464 190 455 200 455 C208 455 216 461 218 469 L247 555 Z " />
<glyph glyph-name="thorn" unicode="&#xfe;" horiz-adv-x="439" d="M108 0 L248 0 C335 0 414 9 414 163 L414 246 C414 399 335 405 248 405 L108 405 L108 494 C108 507 97 518 84 518 C71 518 60 507 60 494 L60 -160 C60 -173 71 -184 84 -184 C97 -184 108 -173 108 -160 L108 0 Z M366 163 C366 45 298 45 247 45 L108 45 L108 360 L247 360 C298 360 366 355 366 246 L366 163 Z " />
<glyph glyph-name="ydieresis" unicode="&#xff;" horiz-adv-x="376" d="M169 -37 C178 -8 187 -8 192 -5 L192 0 L163 0 C153 0 145 10 143 19 L21 371 C20 373 20 375 20 377 C20 390 30 400 42 400 C50 400 58 396 62 389 L184 48 L184 40 L193 40 L193 48 L314 389 C318 396 326 400 334 400 C346 400 356 390 356 377 C356 375 356 373 355 371 L167 -174 C163 -180 157 -184 149 -184 C137 -184 128 -175 128 -163 L169 -37 Z M136 488 C136 500 125 511 112 511 C100 511 89 500 89 488 L89 478 C89 466 100 455 112 455 C125 455 136 466 136 478 L136 488 Z M283 488 C283 500 272 511 259 511 C247 511 236 500 236 488 L236 478 C236 466 247 455 259 455 C272 455 283 466 283 478 L283 488 Z " />
<glyph glyph-name="dotlessi" unicode="&#x131;" horiz-adv-x="168" d="M60 24 C60 11 71 0 84 0 C97 0 108 11 108 24 L108 376 C108 389 97 400 84 400 C71 400 60 389 60 376 L60 24 Z " />
<glyph glyph-name="Lslash" unicode="&#x141;" horiz-adv-x="414" d="M228 248 C235 249 242 259 242 267 C242 277 233 286 223 286 L127 268 L127 476 C127 489 116 500 103 500 C90 500 79 489 79 476 L79 259 L34 252 C27 251 20 242 20 234 C20 224 29 215 39 215 L79 222 L79 30 C79 14 93 0 108 0 L371 0 C384 0 394 9 394 22 C394 35 384 45 371 45 L127 45 L127 230 L228 248 Z " />
<glyph glyph-name="lslash" unicode="&#x142;" horiz-adv-x="204" d="M117 268 L117 476 C117 489 106 500 93 500 C80 500 69 489 69 476 L69 259 L28 252 C18 252 10 243 10 233 C10 223 18 215 28 215 L69 221 L69 24 C69 11 80 0 93 0 C106 0 117 11 117 24 L117 229 L175 240 C185 240 194 249 194 259 C194 269 185 279 175 279 L117 268 Z " />
<glyph glyph-name="OE" unicode="&#x152;" horiz-adv-x="716" d="M259 40 C157 40 98 79 98 170 L98 330 C98 421 157 460 259 460 C280 460 306 459 333 457 L333 43 C307 41 280 40 259 40 L259 40 Z M640 0 C653 0 663 9 663 22 C663 35 653 45 640 45 L381 45 L381 227 L605 227 C618 227 628 236 628 249 C628 262 618 272 605 272 L381 272 L381 455 L640 455 C653 455 663 464 663 477 C663 490 653 500 640 500 L345 500 C314 503 284 505 261 505 C135 505 50 459 50 323 L50 177 C50 41 135 -5 261 -5 C284 -5 316 -3 348 0 L640 0 Z " />
<glyph glyph-name="oe" unicode="&#x153;" horiz-adv-x="687" d="M322 155 C322 73 322 40 210 40 C98 40 98 73 98 155 L98 245 C98 329 98 360 210 360 C322 360 322 328 322 245 L322 155 Z M484 360 C581 360 594 326 594 270 L594 222 L370 222 C370 326 387 360 484 360 L484 360 Z M642 249 C642 352 621 405 484 405 C414 405 372 390 349 357 C328 386 288 405 210 405 C55 405 50 334 50 246 L50 154 C50 66 55 -5 210 -5 C291 -5 331 14 351 46 C381 9 433 -5 497 -5 L501 -5 C530 -5 573 -3 609 3 C619 5 628 16 628 26 C628 38 615 49 603 49 C569 42 527 40 500 40 L496 40 C425 40 370 59 370 134 L370 177 L618 177 C631 177 642 188 642 201 L642 249 Z " />
<glyph glyph-name="Scaron" unicode="&#x160;" horiz-adv-x="450" d="M51 27 C44 31 40 39 40 48 C40 62 49 72 63 72 C67 72 71 71 74 70 C137 42 196 40 228 40 C283 40 362 45 362 140 C362 253 41 212 41 373 C41 472 115 505 231 505 C272 505 330 501 371 492 C381 489 387 481 387 470 C387 458 377 448 364 448 L360 448 C326 455 274 459 233 459 C134 459 89 426 89 373 C89 256 410 295 410 140 C410 4 314 -5 228 -5 C182 -5 95 3 51 27 L51 27 Z M221 584 C212 608 195 651 184 682 C181 690 174 695 165 695 C153 695 145 687 145 675 C145 672 146 669 147 666 L182 578 C188 561 204 550 221 550 C238 550 254 561 260 578 L295 666 C296 669 297 672 297 675 C297 687 289 695 277 695 C268 695 261 690 258 682 C247 651 230 608 221 584 L221 584 Z " />
<glyph glyph-name="scaron" unicode="&#x161;" horiz-adv-x="376" d="M74 54 C111 44 164 40 190 40 C272 40 288 59 288 110 C288 198 40 173 40 300 C40 379 100 405 192 405 C224 405 267 402 300 395 C309 392 316 384 316 374 C316 362 306 352 294 352 C266 357 227 360 194 360 C112 360 88 345 88 300 C88 219 336 240 336 110 C336 25 296 -5 190 -5 C155 -5 105 0 68 8 C58 11 51 20 51 31 C51 43 61 54 74 54 L74 54 Z M180 489 C171 513 154 556 143 587 C140 595 133 600 124 600 C112 600 104 592 104 580 C104 577 105 574 106 571 L141 483 C147 466 163 455 180 455 C197 455 213 466 219 483 L254 571 C255 574 256 577 256 580 C256 592 248 600 236 600 C227 600 220 595 217 587 C206 556 189 513 180 489 L180 489 Z " />
<glyph glyph-name="Ydieresis" unicode="&#x178;" horiz-adv-x="422" d="M187 218 L24 462 C22 466 20 470 20 475 C20 489 30 500 44 500 C53 500 61 496 65 489 L211 261 L357 489 C361 496 369 500 378 500 C392 500 402 489 402 475 C402 470 400 466 398 462 L235 218 L235 24 C235 11 224 0 211 0 C198 0 187 11 187 24 L187 218 Z M168 583 C168 595 157 606 144 606 C132 606 121 595 121 583 L121 573 C121 561 132 550 144 550 C157 550 168 561 168 573 L168 583 Z M303 583 C303 595 292 606 279 606 C267 606 256 595 256 583 L256 573 C256 561 267 550 279 550 C292 550 303 561 303 573 L303 583 Z " />
<glyph glyph-name="Zcaron" unicode="&#x17d;" horiz-adv-x="438" d="M408 445 C414 451 418 459 418 469 C418 487 405 500 387 500 L42 500 C29 500 20 490 20 477 C20 464 29 455 42 455 L357 455 L31 55 C25 49 21 41 21 31 C21 13 34 0 52 0 L380 0 C393 0 402 9 402 22 C402 36 393 46 380 46 L88 46 L408 445 Z M213 584 C204 608 187 651 176 682 C173 690 166 695 157 695 C145 695 137 687 137 675 C137 672 138 669 139 666 L174 578 C180 561 196 550 213 550 C230 550 246 561 252 578 L287 666 C288 669 289 672 289 675 C289 687 281 695 269 695 C260 695 253 690 250 682 C239 651 222 608 213 584 L213 584 Z " />
<glyph glyph-name="zcaron" unicode="&#x17e;" horiz-adv-x="383" d="M334 347 C339 353 343 361 343 370 C343 387 330 400 313 400 L62 400 C49 400 40 390 40 377 C40 364 49 355 62 355 L285 355 L49 53 C44 47 40 39 40 30 C40 13 53 0 70 0 L321 0 C334 0 343 9 343 22 C343 35 334 45 321 45 L103 45 C329 342 334 347 334 347 L334 347 Z M191 489 C182 513 165 556 154 587 C151 595 144 600 135 600 C123 600 115 592 115 580 C115 577 116 574 117 571 L152 483 C158 466 174 455 191 455 C208 455 224 466 230 483 L265 571 C266 574 267 577 267 580 C267 592 259 600 247 600 C238 600 231 595 228 587 C217 556 200 513 191 489 L191 489 Z " />
<glyph glyph-name="florin" unicode="&#x192;" horiz-adv-x="287" d="M260 477 C270 477 279 486 279 496 C279 506 270 515 260 515 C237 519 216 519 209 519 C137 519 107 488 96 382 C96 376 95 371 95 368 L40 368 C29 368 20 359 20 348 C20 337 29 329 40 329 L91 329 L47 -162 C47 -175 57 -186 70 -186 C83 -186 94 -175 94 -162 L140 329 L242 329 C253 329 262 337 262 348 C262 359 253 368 242 368 L144 368 L145 384 C150 457 171 479 211 479 C224 479 240 479 260 477 L260 477 Z " />
<glyph glyph-name="circumflex" unicode="&#x2c6;" horiz-adv-x="272" d="M136 509 C145 485 162 442 173 411 C176 403 183 398 192 398 C204 398 212 406 212 418 C212 421 211 424 210 427 L175 515 C169 532 153 543 136 543 C119 543 103 532 97 515 L62 427 C61 424 60 421 60 418 C60 406 68 398 80 398 C89 398 96 403 99 411 C110 442 127 485 136 509 L136 509 Z " />
<glyph glyph-name="caron" unicode="&#x2c7;" horiz-adv-x="272" d="M136 432 C127 456 110 499 99 530 C96 538 89 543 80 543 C68 543 60 535 60 523 C60 520 61 517 62 514 L97 426 C103 409 119 398 136 398 C153 398 169 409 175 426 L210 514 C211 517 212 520 212 523 C212 535 204 543 192 543 C183 543 176 538 173 530 C162 499 145 456 136 432 L136 432 Z " />
<glyph glyph-name="breve" unicode="&#x2d8;" horiz-adv-x="426" d="M213 390 C316 390 358 401 366 476 C366 489 356 500 342 500 C330 500 320 489 318 478 C311 441 283 432 213 432 C143 432 115 441 108 478 C106 489 96 500 84 500 C70 500 60 489 60 476 C68 401 110 390 213 390 L213 390 Z " />
<glyph glyph-name="dotaccent" unicode="&#x2d9;" horiz-adv-x="167" d="M107 513 C107 525 96 536 83 536 C71 536 60 525 60 513 L60 503 C60 491 71 480 83 480 C96 480 107 491 107 503 L107 513 Z " />
<glyph glyph-name="ring" unicode="&#x2da;" horiz-adv-x="279" d="M139 536 C95 536 60 500 60 456 C60 412 95 377 139 377 C183 377 219 412 219 456 C219 500 183 536 139 536 L139 536 Z M139 417 C118 417 102 433 102 454 C102 475 118 492 139 492 C160 492 177 475 177 454 C177 433 160 417 139 417 L139 417 Z " />
<glyph glyph-name="ogonek" unicode="&#x2db;" horiz-adv-x="187" d="M97 -67 C95 -59 87 -53 79 -53 C69 -53 60 -62 60 -72 L76 -166 C78 -178 89 -187 101 -187 C116 -187 127 -176 127 -161 C127 -158 127 -155 126 -153 L97 -67 Z " />
<glyph glyph-name="tilde" unicode="&#x2dc;" horiz-adv-x="369" d="M302 492 C307 495 309 502 309 507 C309 517 301 525 291 525 C287 525 283 523 280 521 C266 512 253 509 231 509 C196 509 171 536 138 536 C110 536 88 526 67 509 C62 506 60 499 60 494 C60 484 68 476 78 476 C82 476 86 478 89 480 C103 491 115 496 138 496 C171 496 191 469 229 469 C256 469 280 477 302 492 L302 492 Z " />
<glyph glyph-name="hungarumlaut" unicode="&#x2dd;" horiz-adv-x="252" d="M112 509 C113 511 113 513 113 516 C113 527 104 536 93 536 C83 536 75 529 73 520 L60 446 C60 438 68 431 75 431 C82 431 88 436 89 442 L112 509 Z M191 509 C192 511 192 513 192 516 C192 527 183 536 172 536 C162 536 154 529 152 520 L139 446 C139 438 147 431 154 431 C161 431 167 436 168 442 L191 509 Z " />
<glyph glyph-name="pi" unicode="&#x3c0;" horiz-adv-x="527" d="M339 24 C339 11 350 0 363 0 C376 0 387 11 387 24 L387 369 L447 369 C458 369 467 377 467 389 C467 400 458 409 447 409 L80 409 C69 409 60 400 60 389 C60 377 69 369 80 369 L140 369 L140 24 C140 11 151 0 164 0 C177 0 188 11 188 24 L188 369 L339 369 L339 24 Z " />
<glyph glyph-name="nptp3.001march2007p" unicode="&#xe3b;" d="" />
<glyph glyph-name="nptp3.001march2007u" unicode="&#xe3c;" d="" />
<glyph glyph-name="nptp3.001march2007c" unicode="&#xe3d;" d="" />
<glyph glyph-name="nptp3.001march2007r" unicode="&#xe3e;" d="" />
<glyph glyph-name="bahtthai" unicode="&#xe3f;" horiz-adv-x="486" d="M384 248 C414 273 426 310 426 363 C426 496 353 500 267 500 L267 537 C267 550 256 561 243 561 C230 561 219 550 219 537 L219 500 L89 500 C74 500 60 486 60 470 L60 30 C60 14 74 0 89 0 L219 0 L219 -37 C219 -50 230 -61 243 -61 C256 -61 267 -50 267 -37 L267 0 C353 0 426 5 426 138 C426 190 415 224 384 248 L384 248 Z M108 455 L219 455 L219 272 L108 272 L108 455 Z M108 45 L108 227 L219 227 L219 45 L108 45 Z M267 45 L267 227 C318 227 378 222 378 138 C378 54 318 46 267 45 L267 45 Z M267 272 L267 455 C318 454 378 447 378 363 C378 280 318 273 267 272 L267 272 Z " />
<glyph glyph-name="ZWSP" unicode="&#x200b;" d="" />
<glyph glyph-name="endash" unicode="&#x2013;" horiz-adv-x="521" d="M441 174 C452 174 461 182 461 194 C461 205 452 214 441 214 L80 214 C69 214 60 205 60 194 C60 182 69 174 80 174 L441 174 Z " />
<glyph glyph-name="emdash" unicode="&#x2014;" horiz-adv-x="619" d="M539 174 C550 174 559 182 559 194 C559 205 550 214 539 214 L80 214 C69 214 60 205 60 194 C60 182 69 174 80 174 L539 174 Z " />
<glyph glyph-name="quoteleft" unicode="&#x2018;" horiz-adv-x="173" d="M61 458 C60 456 60 454 60 451 C60 440 69 431 80 431 C90 431 98 438 100 447 L113 521 C113 529 105 536 98 536 C91 536 85 531 84 525 L61 458 Z " />
<glyph glyph-name="quoteright" unicode="&#x2019;" horiz-adv-x="173" d="M112 509 C113 511 113 513 113 516 C113 527 104 536 93 536 C83 536 75 529 73 520 L60 446 C60 438 68 431 75 431 C82 431 88 436 89 442 L112 509 Z " />
<glyph glyph-name="quotesinglbase" unicode="&#x201a;" horiz-adv-x="173" d="M112 29 C113 31 113 33 113 36 C113 47 104 56 93 56 C83 56 75 49 73 40 L60 -34 C60 -42 68 -49 75 -49 C82 -49 88 -44 89 -38 L112 29 Z " />
<glyph glyph-name="quotedblleft" unicode="&#x201c;" horiz-adv-x="252" d="M140 458 C139 456 139 454 139 451 C139 440 148 431 159 431 C169 431 177 438 179 447 L192 521 C192 529 184 536 177 536 C170 536 164 531 163 525 L140 458 Z M61 458 C60 456 60 454 60 451 C60 440 69 431 80 431 C90 431 98 438 100 447 L113 521 C113 529 105 536 98 536 C91 536 85 531 84 525 L61 458 Z " />
<glyph glyph-name="quotedblright" unicode="&#x201d;" horiz-adv-x="252" d="M112 509 C113 511 113 513 113 516 C113 527 104 536 93 536 C83 536 75 529 73 520 L60 446 C60 438 68 431 75 431 C82 431 88 436 89 442 L112 509 Z M191 509 C192 511 192 513 192 516 C192 527 183 536 172 536 C162 536 154 529 152 520 L139 446 C139 438 147 431 154 431 C161 431 167 436 168 442 L191 509 Z " />
<glyph glyph-name="quotedblbase" unicode="&#x201e;" horiz-adv-x="252" d="M112 29 C113 31 113 33 113 36 C113 47 104 56 93 56 C83 56 75 49 73 40 L60 -34 C60 -42 68 -49 75 -49 C82 -49 88 -44 89 -38 L112 29 Z M191 29 C192 31 192 33 192 36 C192 47 183 56 172 56 C162 56 154 49 152 40 L139 -34 C139 -42 147 -49 154 -49 C161 -49 167 -44 168 -38 L191 29 Z " />
<glyph glyph-name="dagger" unicode="&#x2020;" horiz-adv-x="423" d="M236 497 C236 510 225 521 212 521 C199 521 188 510 188 497 L188 382 L80 382 C69 382 60 373 60 362 C60 350 69 342 80 342 L188 342 L188 -156 C188 -169 199 -180 212 -180 C225 -180 236 -169 236 -156 L236 342 L343 342 C354 342 363 350 363 362 C363 373 354 382 343 382 L236 382 L236 497 Z " />
<glyph glyph-name="daggerdbl" unicode="&#x2021;" horiz-adv-x="423" d="M236 497 C236 510 225 521 212 521 C199 521 188 510 188 497 L188 382 L80 382 C69 382 60 373 60 362 C60 350 69 342 80 342 L188 342 L188 40 L80 40 C69 40 60 31 60 20 C60 8 69 0 80 0 L188 0 L188 -156 C188 -169 199 -180 212 -180 C225 -180 236 -169 236 -156 L236 0 L343 0 C354 0 363 8 363 20 C363 31 354 40 343 40 L236 40 L236 342 L343 342 C354 342 363 350 363 362 C363 373 354 382 343 382 L236 382 L236 497 Z " />
<glyph glyph-name="bullet" unicode="&#x2022;" horiz-adv-x="242" d="M60 184 C60 151 87 123 121 123 C155 123 182 151 182 184 C182 218 155 246 121 246 C87 246 60 218 60 184 L60 184 Z " />
<glyph glyph-name="ellipsis" unicode="&#x2026;" horiz-adv-x="375" d="M107 46 C107 58 96 69 83 69 C71 69 60 58 60 46 L60 23 C60 11 71 0 83 0 C96 0 107 11 107 23 L107 46 Z M211 46 C211 58 200 69 187 69 C175 69 164 58 164 46 L164 23 C164 11 175 0 187 0 C200 0 211 11 211 23 L211 46 Z M315 46 C315 58 304 69 291 69 C279 69 268 58 268 46 L268 23 C268 11 279 0 291 0 C304 0 315 11 315 23 L315 46 Z " />
<glyph glyph-name="perthousand" unicode="&#x2030;" horiz-adv-x="811" d="M658 -1 C708 -1 751 17 751 73 L751 159 C751 209 705 233 658 233 C611 233 565 209 565 159 L565 73 C565 17 608 -1 658 -1 L658 -1 Z M658 195 C695 195 707 172 707 159 L707 73 C707 55 695 38 658 38 C621 38 610 55 610 73 L610 159 C610 172 621 195 658 195 L658 195 Z M153 266 C203 266 246 284 246 340 L246 426 C246 476 200 500 153 500 C106 500 60 476 60 426 L60 340 C60 284 103 266 153 266 L153 266 Z M153 462 C190 462 202 439 202 426 L202 340 C202 322 190 305 153 305 C116 305 105 322 105 340 L105 426 C105 439 116 462 153 462 L153 462 Z M425 -1 C475 -1 518 17 518 73 L518 159 C518 209 472 233 425 233 C378 233 332 209 332 159 L332 73 C332 17 375 -1 425 -1 L425 -1 Z M425 195 C462 195 474 172 474 159 L474 73 C474 55 462 38 425 38 C388 38 377 55 377 73 L377 159 C377 172 388 195 425 195 L425 195 Z M165 21 C166 9 176 0 188 0 C196 0 204 5 208 12 L410 473 L410 477 C410 490 400 500 387 500 C379 500 371 495 367 488 L165 21 Z " />
<glyph glyph-name="guilsinglleft" unicode="&#x2039;" horiz-adv-x="431" d="M110 185 L361 292 C367 296 371 303 371 310 C371 323 361 333 348 333 C345 333 343 332 340 331 L88 226 C71 217 60 198 60 178 C60 158 71 139 88 130 L340 25 C343 24 345 23 348 23 C361 23 371 33 371 46 C371 53 367 60 361 64 L110 171 L102 171 L102 185 L110 185 Z " />
<glyph glyph-name="guilsinglright" unicode="&#x203a;" horiz-adv-x="431" d="M321 171 L70 64 C64 60 60 53 60 46 C60 33 70 23 83 23 C86 23 88 24 91 25 L343 130 C360 139 371 158 371 178 C371 198 360 217 343 226 L91 331 C88 332 86 333 83 333 C70 333 60 323 60 310 C60 303 64 296 70 292 L321 185 L329 185 L329 171 L321 171 Z " />
<glyph glyph-name="fraction" unicode="&#x2044;" horiz-adv-x="324" d="M264 535 C264 548 253 558 240 558 C230 558 222 551 219 542 L60 23 C60 10 71 0 84 0 C94 0 102 7 105 16 L264 535 Z " />
<glyph glyph-name="Euro" unicode="&#x20ac;" horiz-adv-x="566" d="M299 150 C310 150 319 158 319 170 C319 181 310 190 299 190 L181 190 L181 306 L299 306 C310 306 319 314 319 326 C319 337 310 346 299 346 L181 346 C188 425 246 460 342 460 C379 460 437 457 478 449 L483 449 C494 449 505 458 505 470 C505 480 496 490 486 492 C441 500 382 505 344 505 C225 505 143 464 134 346 L80 346 C69 346 60 337 60 326 C60 314 69 306 80 306 L133 306 L133 190 L80 190 C69 190 60 181 60 170 C60 158 69 150 80 150 L134 150 C145 35 227 -5 344 -5 C381 -5 442 -1 487 8 C497 10 506 21 506 31 C506 43 493 52 481 52 C439 44 379 40 342 40 C248 40 190 73 182 150 L299 150 Z " />
<glyph glyph-name="trademark" unicode="&#x2122;" horiz-adv-x="645" d="M76 500 C67 500 60 493 60 484 C60 475 67 468 76 468 L148 468 L148 211 C148 201 156 193 166 193 C176 193 184 201 184 211 L184 468 L255 468 C264 468 271 475 271 484 C271 493 264 500 255 500 L76 500 Z M447 193 C463 193 478 205 481 221 L541 452 L541 458 L549 458 L549 211 C549 201 557 193 567 193 C577 193 585 201 585 211 L585 462 C585 483 569 500 548 500 C531 500 517 489 512 474 L447 222 L382 474 C377 489 363 500 346 500 C325 500 309 483 309 462 L309 211 C309 201 317 193 327 193 C337 193 345 201 345 211 L345 458 L353 458 L353 452 L413 221 C416 205 431 193 447 193 L447 193 Z " />
<glyph glyph-name="Omega" unicode="&#x2126;" horiz-adv-x="560" d="M282 460 C365 460 445 415 445 324 L445 191 C445 121 401 62 365 41 C357 38 352 30 352 21 C352 9 362 0 374 0 L478 0 C491 0 500 9 500 22 C500 35 491 45 478 45 L432 45 C469 85 493 132 493 192 L493 304 C493 441 408 505 280 505 C152 505 67 441 67 304 L67 192 C67 132 91 85 128 45 L82 45 C69 45 60 35 60 22 C60 9 69 0 82 0 L186 0 C198 0 208 9 208 21 C208 30 203 38 195 41 C159 62 115 121 115 191 L115 324 C115 415 195 460 278 460 L282 460 Z " />
<glyph glyph-name="partialdiff" unicode="&#x2202;" horiz-adv-x="439" d="M108 208 C108 260 108 323 207 323 C304 323 331 275 331 225 L331 154 C331 103 331 40 220 40 C108 40 108 103 108 154 L108 208 Z M331 330 L323 330 C298 368 224 368 209 368 C60 368 60 297 60 209 L60 153 C60 66 64 -5 220 -5 C252 -5 298 -5 331 37 L331 24 C331 11 342 0 355 0 C368 0 379 11 379 24 L379 361 C379 472 312 505 210 505 C181 505 148 501 116 494 C106 492 98 484 98 473 C98 461 107 452 119 452 C121 452 124 452 126 453 C150 458 174 460 201 460 C271 460 331 437 331 362 L331 330 Z " />
<glyph glyph-name="Delta" unicode="&#x2206;" horiz-adv-x="528" d="M465 42 L308 471 C300 489 285 501 264 501 C243 501 228 489 220 471 L63 42 C61 38 60 33 60 29 C60 13 73 0 89 0 L439 0 C455 0 468 13 468 29 C468 33 467 38 465 42 L465 42 Z M112 44 L264 459 L416 44 L112 44 Z " />
<glyph glyph-name="product" unicode="&#x220f;" horiz-adv-x="527" d="M339 -156 C339 -169 350 -180 363 -180 C376 -180 387 -169 387 -156 L387 460 L447 460 C458 460 467 468 467 480 C467 491 458 500 447 500 L80 500 C69 500 60 491 60 480 C60 468 69 460 80 460 L140 460 L140 -156 C140 -169 151 -180 164 -180 C177 -180 188 -169 188 -156 L188 460 L339 460 L339 -156 Z " />
<glyph glyph-name="summation" unicode="&#x2211;" horiz-adv-x="453" d="M178 183 C180 179 181 175 181 171 C181 168 180 165 179 162 L62 -116 C60 -120 60 -127 60 -130 C60 -147 72 -160 89 -160 L370 -160 C383 -160 393 -151 393 -138 C393 -125 383 -115 370 -115 L117 -115 L232 162 C233 165 234 168 234 171 C234 175 233 179 231 183 L117 455 L370 455 C383 455 393 464 393 477 C393 490 383 500 370 500 L89 500 C72 500 60 487 60 470 C60 467 60 461 62 457 L178 183 Z " />
<glyph glyph-name="minus" unicode="&#x2212;" horiz-adv-x="482" d="M402 173 C413 173 422 181 422 193 C422 204 413 213 402 213 L80 213 C69 213 60 204 60 193 C60 181 69 173 80 173 L402 173 Z " />
<glyph glyph-name="radical" unicode="&#x221a;" horiz-adv-x="622" d="M542 521 L434 521 C423 521 414 515 411 506 L236 41 L106 385 C103 394 94 400 83 400 C69 400 60 390 60 376 C60 373 60 372 61 369 L184 43 C193 18 209 0 236 0 C263 0 278 18 287 43 L453 481 L542 481 C553 481 562 489 562 501 C562 512 553 521 542 521 L542 521 Z " />
<glyph glyph-name="infinity" unicode="&#x221e;" horiz-adv-x="879" d="M439 236 C500 167 567 113 649 113 C765 113 819 144 819 266 L819 279 C819 400 765 432 649 432 C562 432 497 376 439 307 C382 376 317 432 229 432 C114 432 60 400 60 279 L60 266 C60 144 114 113 229 113 C312 113 386 174 439 236 L439 236 Z M229 389 C290 389 354 335 411 271 C354 206 292 155 229 155 C147 155 108 175 108 266 L108 279 C108 370 147 389 229 389 L229 389 Z M649 389 C732 389 771 370 771 279 L771 266 C771 175 732 155 649 155 C586 155 525 206 467 271 C525 335 589 389 649 389 L649 389 Z " />
<glyph glyph-name="integral" unicode="&#x222b;" horiz-adv-x="474" d="M213 -48 C213 -123 200 -139 139 -139 C116 -139 103 -139 88 -137 C86 -136 81 -136 79 -136 C67 -136 60 -145 60 -157 C60 -165 65 -173 72 -176 C98 -182 119 -184 148 -184 C221 -184 261 -156 261 -48 L261 385 C261 460 274 476 335 476 C358 476 371 476 386 474 C388 473 393 473 395 473 C407 473 414 482 414 494 C414 502 409 510 402 513 C376 519 355 521 326 521 C253 521 213 493 213 385 L213 -48 Z " />
<glyph glyph-name="approxequal" unicode="&#x2248;" horiz-adv-x="467" d="M395 205 C402 208 407 216 407 225 C407 238 398 245 385 245 C367 231 355 227 329 227 C271 227 207 288 140 288 C115 288 93 284 72 272 C65 269 60 261 60 252 C60 239 70 230 83 230 C102 244 113 248 140 248 C199 248 262 187 328 187 C352 187 375 193 395 205 L395 205 Z M395 82 C402 85 407 93 407 102 C407 115 398 122 385 122 C367 108 355 104 329 104 C271 104 207 165 140 165 C115 165 93 161 72 149 C65 146 60 138 60 129 C60 116 70 107 83 107 C102 121 113 125 140 125 C199 125 262 64 328 64 C352 64 375 70 395 82 L395 82 Z " />
<glyph glyph-name="notequal" unicode="&#x2260;" horiz-adv-x="379" d="M181 93 L299 93 C310 93 319 101 319 113 C319 124 310 133 299 133 L194 133 L228 244 L299 244 C310 244 319 252 319 264 C319 275 310 284 299 284 L240 284 L261 350 C262 352 262 355 262 357 C262 370 252 380 239 380 C230 380 221 374 218 365 L193 284 L80 284 C69 284 60 275 60 264 C60 252 69 244 80 244 L181 244 L147 133 L80 133 C69 133 60 124 60 113 C60 101 69 93 80 93 L134 93 L117 38 C116 36 116 33 116 31 C116 18 126 8 139 8 C148 8 157 14 160 23 L181 93 Z " />
<glyph glyph-name="lessequal" unicode="&#x2264;" horiz-adv-x="432" d="M111 257 L362 364 C368 368 372 375 372 382 C372 395 362 405 349 405 C346 405 344 404 341 403 L89 298 C72 289 61 270 61 250 C61 230 72 211 89 202 L341 97 C344 96 346 95 349 95 C362 95 372 105 372 118 C372 125 368 132 362 136 L111 243 L103 243 L103 257 L111 257 Z M352 0 C363 0 372 8 372 20 C372 31 363 40 352 40 L80 40 C69 40 60 31 60 20 C60 8 69 0 80 0 L352 0 Z " />
<glyph glyph-name="greaterequal" unicode="&#x2265;" horiz-adv-x="432" d="M329 257 L329 243 L321 243 L70 136 C64 132 60 125 60 118 C60 105 70 95 83 95 C86 95 88 96 91 97 L343 202 C360 211 371 230 371 250 C371 270 360 289 343 298 L91 403 C88 404 86 405 83 405 C70 405 60 395 60 382 C60 375 64 368 70 364 L321 257 L329 257 Z M352 0 C363 0 372 8 372 20 C372 31 363 40 352 40 L80 40 C69 40 60 31 60 20 C60 8 69 0 80 0 L352 0 Z " />
<glyph glyph-name="lozenge" unicode="&#x25ca;" horiz-adv-x="380" d="M190 500 C172 500 158 491 152 476 L63 263 C61 259 60 255 60 251 C60 248 61 244 62 241 C94 163 121 105 152 27 C158 12 173 0 190 0 C207 0 222 12 228 27 C259 105 286 163 318 241 C319 244 320 248 320 251 C320 255 319 259 317 263 L228 476 C222 491 208 500 190 500 L190 500 Z M190 447 L269 263 C271 259 272 255 272 251 C272 248 271 244 270 241 L190 54 L110 241 C109 244 108 248 108 251 C108 255 109 259 111 263 L190 447 Z " />
<glyph glyph-name="uni25CC" unicode="&#x25cc;" horiz-adv-x="512" d="" />
<glyph glyph-name="fi" unicode="&#xfb01;" horiz-adv-x="422" d="M241 547 C214 552 188 552 180 552 C113 552 86 524 86 417 L86 400 L37 400 C24 400 15 390 15 377 C15 364 24 355 37 355 L86 355 L86 24 C86 11 97 0 110 0 C123 0 134 11 134 24 L134 355 L227 355 C240 355 249 364 249 377 C249 390 240 400 227 400 L134 400 L134 417 C134 492 139 507 189 507 C201 507 215 507 233 505 C245 505 255 515 255 526 C255 536 249 544 241 547 L241 547 Z M315 376 C315 389 326 400 339 400 C352 400 363 389 363 376 L363 24 C363 11 352 0 339 0 C326 0 315 11 315 24 L315 376 Z M315 501 C315 514 326 525 339 525 C352 525 363 514 363 501 L363 483 C363 470 352 459 339 459 C326 459 315 470 315 483 L315 501 Z " />
<glyph glyph-name="fl" unicode="&#xfb02;" horiz-adv-x="422" d="M241 547 C214 552 188 552 180 552 C113 552 86 524 86 417 L86 400 L37 400 C24 400 15 390 15 377 C15 364 24 355 37 355 L86 355 L86 24 C86 11 97 0 110 0 C123 0 134 11 134 24 L134 355 L227 355 C240 355 249 364 249 377 C249 390 240 400 227 400 L134 400 L134 417 C134 492 139 507 189 507 C201 507 215 507 233 505 C245 505 255 515 255 526 C255 536 249 544 241 547 L241 547 Z M315 512 C315 525 326 536 339 536 C352 536 363 525 363 512 L363 24 C363 11 352 0 339 0 C326 0 315 11 315 24 L315 512 Z " />
</font>
</svg>
