<?xml version="1.0" encoding="UTF-8"?>
<svg xmlns="http://www.w3.org/2000/svg" xmlns:xlink="http://www.w3.org/1999/xlink" version="1.2" >
<font id="AntennaCond Light">
<font-face  font-family="AntennaCond" units-per-em="1000" ascent="800" descent="-200" font-style="normal" font-weight="300" font-stretch="normal" cap-height="741" x-height="551" underline-position="-75" underline-thickness="50" />
<missing-glyph  horiz-adv-x="183" d="" />
<glyph glyph-name="NULL" d="" />
<glyph glyph-name="CR" unicode="&#xd;" horiz-adv-x="250" d="" />
<glyph glyph-name="&amp;#x20;" unicode="&#x20;" horiz-adv-x="183" d="" />
<glyph glyph-name="&amp;#xa0;" unicode="&#xa0;" horiz-adv-x="183" d="" />
<glyph glyph-name="exclam" unicode="&#x21;" horiz-adv-x="292" d="M100 0 L192 0 L192 106 L100 106 L100 0 Z M114 204 L179 204 L187 741 L107 741 L114 204 Z " />
<glyph glyph-name="quotedbl" unicode="&#x22;" horiz-adv-x="394" d="M80 456 L147 456 L151 741 L77 741 L80 456 Z M248 456 L314 456 L318 741 L243 741 L248 456 Z " />
<glyph glyph-name="numbersign" unicode="&#x23;" horiz-adv-x="573" d="M102 0 L171 0 L206 233 L325 233 L290 0 L358 0 L394 233 L523 233 L523 301 L404 301 L424 435 L523 435 L523 502 L434 502 L470 741 L401 741 L366 502 L247 502 L283 741 L214 741 L178 502 L50 502 L50 435 L167 435 L147 301 L50 301 L50 233 L137 233 L102 0 Z M211 296 L233 439 L361 439 L338 296 L211 296 Z " />
<glyph glyph-name="dollar" unicode="&#x24;" horiz-adv-x="528" d="M232 -91 L302 -91 L302 0 C426 12 473 83 473 195 C473 319 394 364 298 408 L298 674 C345 670 382 657 412 642 L445 701 C406 721 360 737 302 741 L302 827 L232 827 L232 740 C119 728 77 662 77 557 C77 445 144 406 235 364 L235 63 C165 68 115 94 86 112 L51 57 C91 30 147 5 232 0 L232 -91 Z M401 191 C401 123 373 75 298 64 L298 334 C364 300 401 263 401 191 L401 191 Z M149 559 C149 617 169 661 235 672 L235 438 C178 469 149 501 149 559 L149 559 Z " />
<glyph glyph-name="percent" unicode="&#x25;" horiz-adv-x="887" d="M193 283 C301 283 353 344 353 515 C353 688 301 748 193 748 C87 748 35 688 35 515 C35 344 87 283 193 283 L193 283 Z M194 340 C128 340 101 384 101 514 C101 644 128 688 194 688 C260 688 287 644 287 514 C287 384 260 340 194 340 L194 340 Z M694 -7 C801 -7 853 54 853 226 C853 398 801 459 694 459 C586 459 535 398 535 226 C535 54 586 -7 694 -7 L694 -7 Z M694 51 C628 51 601 95 601 224 C601 354 628 399 694 399 C759 399 787 354 787 224 C787 95 759 51 694 51 L694 51 Z M250 0 L318 0 L639 741 L570 741 L250 0 Z " />
<glyph glyph-name="ampersand" unicode="&#x26;" horiz-adv-x="641" d="M248 -6 C346 -6 411 25 457 78 L521 0 L611 0 L496 138 C539 222 555 334 569 453 L502 461 C489 362 478 268 449 195 L344 323 C320 351 298 377 278 403 C343 453 404 513 404 602 C404 698 362 753 261 753 C160 753 118 698 118 602 C118 536 143 478 181 420 C107 365 41 304 41 198 C41 77 92 -6 248 -6 L248 -6 Z M248 57 C132 57 114 127 114 201 C114 272 163 323 218 369 C239 342 262 314 287 285 L413 130 C378 84 327 57 248 57 L248 57 Z M189 602 C189 654 203 689 261 689 C319 689 334 653 334 602 C334 541 293 496 242 454 C210 503 189 551 189 602 L189 602 Z " />
<glyph glyph-name="quotesingle" unicode="&#x27;" horiz-adv-x="228" d="M80 456 L147 456 L152 741 L77 741 L80 456 Z " />
<glyph glyph-name="parenleft" unicode="&#x28;" horiz-adv-x="382" d="M256 -171 L310 -135 C247 -69 163 78 163 303 C163 528 244 668 310 740 L256 777 C183 704 89 535 89 303 C89 62 183 -99 256 -171 L256 -171 Z " />
<glyph glyph-name="parenright" unicode="&#x29;" horiz-adv-x="382" d="M125 -171 C200 -99 293 71 293 304 C293 544 200 704 125 777 L73 740 C135 674 219 529 219 304 C219 78 138 -62 73 -135 L125 -171 Z " />
<glyph glyph-name="asterisk" unicode="&#x2a;" horiz-adv-x="463" d="M201 320 L261 320 L255 486 L386 400 L418 454 L277 530 L418 608 L386 661 L255 574 L261 742 L201 742 L208 575 L78 660 L46 607 L185 530 L46 454 L78 400 L208 486 L201 320 Z " />
<glyph glyph-name="plus" unicode="&#x2b;" horiz-adv-x="551" d="M241 131 L310 131 L310 319 L467 319 L467 384 L310 384 L310 572 L241 572 L241 384 L85 384 L85 319 L241 319 L241 131 Z " />
<glyph glyph-name="comma" unicode="&#x2c;" horiz-adv-x="200" d="M72 -107 C136 -76 146 -53 146 6 L146 107 L54 107 L54 0 L97 0 C97 -37 91 -45 50 -68 L72 -107 Z " />
<glyph glyph-name="&amp;#x2d;" unicode="&#x2d;" horiz-adv-x="355" d="M40 274 L314 274 L314 342 L40 342 L40 274 Z " />
<glyph glyph-name="&amp;#xad;" unicode="&#xad;" horiz-adv-x="355" d="M40 274 L314 274 L314 342 L40 342 L40 274 Z " />
<glyph glyph-name="period" unicode="&#x2e;" horiz-adv-x="200" d="M54 0 L146 0 L146 107 L54 107 L54 0 Z " />
<glyph glyph-name="slash" unicode="&#x2f;" horiz-adv-x="401" d="M0 0 L73 0 L401 741 L328 741 L0 0 Z " />
<glyph glyph-name="zero" unicode="0" horiz-adv-x="571" d="M286 -8 C473 -8 511 106 511 370 C511 629 472 749 286 749 C96 749 60 631 60 370 C60 108 98 -8 286 -8 L286 -8 Z M286 60 C163 60 135 145 135 370 C135 595 163 678 286 678 C406 678 437 595 437 370 C437 145 408 60 286 60 L286 60 Z " />
<glyph glyph-name="one" unicode="1" horiz-adv-x="295" d="M134 0 L206 0 L206 741 L23 741 L23 674 L134 674 L134 0 Z " />
<glyph glyph-name="two" unicode="2" horiz-adv-x="478" d="M38 0 L427 0 L427 65 L127 65 L248 225 C386 408 420 466 420 572 C420 691 373 749 242 749 C154 749 99 732 50 707 L81 645 C123 666 169 679 232 679 C318 679 346 643 346 563 C346 485 330 446 193 265 L38 60 L38 0 Z " />
<glyph glyph-name="three" unicode="3" horiz-adv-x="475" d="M216 -8 C358 -8 424 48 424 212 C424 334 400 383 326 405 C379 425 407 471 407 571 C407 716 343 749 225 749 C154 749 92 731 45 705 L75 646 C116 665 164 679 215 679 C296 679 335 658 335 556 C335 487 314 431 212 431 L124 431 L124 365 L206 365 C337 365 352 306 352 218 C352 99 312 59 212 59 C150 59 109 73 67 96 L33 36 C83 8 131 -8 216 -8 L216 -8 Z " />
<glyph glyph-name="four" unicode="4" horiz-adv-x="529" d="M39 176 L331 176 L331 0 L400 0 L400 176 L502 176 L502 239 L400 239 L400 473 L346 473 L332 239 L117 239 L375 741 L298 741 L39 236 L39 176 Z " />
<glyph glyph-name="five" unicode="5" horiz-adv-x="494" d="M234 -8 C381 -8 452 38 452 242 C452 433 392 482 262 482 C200 482 158 468 130 449 L141 674 L416 674 L416 741 L78 741 L60 388 L117 371 C143 395 181 415 241 415 C333 415 378 388 378 240 C378 91 332 59 230 59 C157 59 110 76 71 97 L38 37 C85 11 145 -8 234 -8 L234 -8 Z " />
<glyph glyph-name="six" unicode="6" horiz-adv-x="538" d="M282 -8 C451 -8 493 81 493 257 C493 403 464 495 302 495 C219 495 163 472 132 430 C140 580 156 674 363 674 L414 674 L414 741 L367 741 C68 741 57 594 57 294 C57 96 83 -8 282 -8 L282 -8 Z M283 58 C157 58 132 122 132 262 C132 383 197 432 285 432 C396 432 420 371 420 256 C420 125 395 58 283 58 L283 58 Z " />
<glyph glyph-name="seven" unicode="7" horiz-adv-x="421" d="M109 0 L187 0 L408 683 L408 741 L20 741 L20 674 L329 674 L109 0 Z " />
<glyph glyph-name="eight" unicode="8" horiz-adv-x="543" d="M272 -8 C462 -8 492 93 492 210 C492 303 483 380 388 408 C461 434 471 496 471 570 C471 667 438 749 272 749 C106 749 72 667 72 570 C72 496 82 435 156 408 C62 381 51 303 51 210 C51 93 81 -8 272 -8 L272 -8 Z M272 57 C149 57 125 126 125 217 C125 308 149 371 272 371 C395 371 418 308 418 217 C418 126 395 57 272 57 L272 57 Z M272 437 C169 437 144 486 144 560 C144 633 169 684 272 684 C376 684 400 633 400 560 C400 486 376 437 272 437 L272 437 Z " />
<glyph glyph-name="nine" unicode="9" horiz-adv-x="538" d="M123 0 L172 0 C468 0 481 146 481 448 C481 645 455 749 257 749 C87 749 45 657 45 482 C45 337 74 244 236 244 C318 244 376 266 405 309 C398 156 375 65 175 65 L123 65 L123 0 Z M253 307 C142 307 118 368 118 482 C118 615 143 682 255 682 C381 682 406 617 406 477 C406 357 342 307 253 307 L253 307 Z " />
<glyph glyph-name="colon" unicode="&#x3a;" horiz-adv-x="216" d="M62 0 L153 0 L153 105 L62 105 L62 0 Z M62 446 L153 446 L153 551 L62 551 L62 446 Z " />
<glyph glyph-name="semicolon" unicode="&#x3b;" horiz-adv-x="216" d="M62 446 L153 446 L153 551 L62 551 L62 446 Z M80 -107 C144 -76 153 -53 153 6 L153 105 L62 105 L62 0 L105 0 C105 -37 99 -45 58 -68 L80 -107 Z " />
<glyph glyph-name="less" unicode="&#x3c;" horiz-adv-x="549" d="M435 116 L435 188 L155 347 L435 505 L435 576 L83 373 L83 319 L435 116 Z " />
<glyph glyph-name="equal" unicode="&#x3d;" horiz-adv-x="552" d="M88 217 L465 217 L465 285 L88 285 L88 217 Z M88 405 L465 405 L465 472 L88 472 L88 405 Z " />
<glyph glyph-name="greater" unicode="&#x3e;" horiz-adv-x="551" d="M114 116 L467 319 L467 373 L114 576 L114 505 L394 345 L114 188 L114 116 Z " />
<glyph glyph-name="question" unicode="&#x3f;" horiz-adv-x="498" d="M193 199 L264 199 C262 299 267 313 348 400 C401 457 435 500 435 585 C435 679 399 749 256 749 C173 749 107 728 63 706 L95 644 C130 662 185 681 246 681 C341 681 362 635 362 574 C362 517 341 488 287 430 C200 335 191 313 193 199 L193 199 Z M182 0 L273 0 L273 99 L182 99 L182 0 Z " />
<glyph glyph-name="at" unicode="&#x40;" horiz-adv-x="837" d="M419 -165 C521 -165 612 -140 671 -114 L654 -73 C599 -95 511 -119 419 -119 C216 -119 109 -29 109 291 C109 611 216 702 419 702 C622 702 729 611 729 291 C729 118 712 83 654 83 C595 83 592 112 591 198 L591 544 L540 548 L529 490 C508 529 475 550 385 550 C237 550 218 431 218 292 C218 155 236 35 384 35 C474 35 516 58 539 103 C547 53 576 34 648 34 C752 34 779 99 779 291 C779 639 657 748 419 748 C181 748 59 639 59 291 C59 -58 181 -165 419 -165 L419 -165 Z M400 93 C296 93 285 179 285 291 C285 404 296 488 400 488 C512 488 525 419 525 292 C525 180 520 93 400 93 L400 93 Z " />
<glyph glyph-name="A" unicode="A" horiz-adv-x="577" d="M23 0 L96 0 L146 170 L428 170 L479 0 L555 0 L327 746 L250 746 L23 0 Z M166 238 L288 638 L408 238 L166 238 Z " />
<glyph glyph-name="B" unicode="B" horiz-adv-x="554" d="M68 0 L297 0 C429 0 515 48 515 203 C515 318 475 370 407 389 C463 409 500 457 500 556 C500 692 427 741 291 741 L68 741 L68 0 Z M142 65 L142 350 L296 350 C382 350 440 321 440 208 C440 95 382 65 296 65 L142 65 Z M142 418 L142 675 L288 675 C374 675 425 648 425 547 C425 446 374 418 288 418 L142 418 Z " />
<glyph glyph-name="C" unicode="C" horiz-adv-x="505" d="M296 -8 C386 -8 435 11 484 42 L447 100 C406 75 368 60 299 60 C145 60 111 167 111 369 C111 571 146 676 299 676 C364 676 407 659 434 643 L474 705 C437 729 380 749 300 749 C77 749 35 598 35 370 C35 139 81 -8 296 -8 L296 -8 Z " />
<glyph glyph-name="D" unicode="D" horiz-adv-x="585" d="M68 0 L264 0 C504 0 550 128 550 371 C550 609 503 741 270 741 L68 741 L68 0 Z M143 66 L143 672 L273 672 C447 672 474 564 474 370 C474 174 446 66 269 66 L143 66 Z " />
<glyph glyph-name="E" unicode="E" horiz-adv-x="505" d="M68 0 L460 0 L460 68 L141 68 L141 350 L440 350 L440 419 L141 419 L141 672 L457 672 L457 741 L68 741 L68 0 Z " />
<glyph glyph-name="F" unicode="F" horiz-adv-x="483" d="M68 0 L143 0 L143 346 L440 346 L440 414 L143 414 L143 672 L458 672 L458 741 L68 741 L68 0 Z " />
<glyph glyph-name="G" unicode="G" horiz-adv-x="563" d="M294 -8 C483 -8 528 69 528 325 L528 409 L269 409 L269 343 L456 343 L456 315 C456 108 424 58 299 58 C155 58 110 142 110 369 C110 610 167 677 301 677 C376 677 420 657 452 638 L491 700 C446 727 394 749 304 749 C106 749 35 648 35 370 C35 115 92 -8 294 -8 L294 -8 Z " />
<glyph glyph-name="H" unicode="H" horiz-adv-x="614" d="M78 0 L153 0 L153 349 L480 349 L480 0 L555 0 L555 741 L480 741 L480 423 L153 423 L153 741 L78 741 L78 0 Z " />
<glyph glyph-name="I" unicode="I" horiz-adv-x="222" d="M74 0 L149 0 L149 741 L74 741 L74 0 Z " />
<glyph glyph-name="J" unicode="J" horiz-adv-x="341" d="M25 0 L104 0 C221 0 277 50 277 171 L277 741 L202 741 L202 175 C202 104 176 68 94 68 L25 68 L25 0 Z " />
<glyph glyph-name="K" unicode="K" horiz-adv-x="565" d="M68 0 L142 0 L142 266 L251 403 L455 0 L537 0 L302 463 L529 741 L442 741 L142 373 L142 741 L68 741 L68 0 Z " />
<glyph glyph-name="L" unicode="L" horiz-adv-x="470" d="M68 0 L451 0 L451 68 L143 68 L143 741 L68 741 L68 0 Z " />
<glyph glyph-name="M" unicode="M" horiz-adv-x="719" d="M68 0 L135 0 L135 595 L329 0 L385 0 L577 595 L577 0 L651 0 L651 741 L558 741 L359 127 L162 741 L68 741 L68 0 Z " />
<glyph glyph-name="N" unicode="N" horiz-adv-x="611" d="M68 0 L139 0 L139 613 L474 0 L544 0 L544 741 L472 741 L472 149 L150 741 L68 741 L68 0 Z " />
<glyph glyph-name="O" unicode="O" horiz-adv-x="614" d="M308 -8 C551 -8 579 163 579 370 C579 577 551 749 308 749 C63 749 35 577 35 370 C35 163 63 -8 308 -8 L308 -8 Z M308 60 C128 60 111 193 111 368 C111 543 128 677 308 677 C485 677 504 543 504 368 C504 193 486 60 308 60 L308 60 Z " />
<glyph glyph-name="P" unicode="P" horiz-adv-x="554" d="M68 0 L142 0 L142 296 L305 296 C453 296 519 372 519 522 C519 673 453 741 307 741 L68 741 L68 0 Z M142 364 L142 673 L304 673 C400 673 445 634 445 519 C445 404 400 364 304 364 L142 364 Z " />
<glyph glyph-name="Q" unicode="Q" horiz-adv-x="614" d="M406 -165 L472 -165 L472 -100 L413 -100 C356 -100 328 -80 328 -18 L328 -4 C552 4 579 169 579 370 C579 577 551 749 308 749 C63 749 35 577 35 370 C35 179 59 21 255 -2 C254 -10 255 -19 255 -28 C254 -128 308 -165 406 -165 L406 -165 Z M308 60 C128 60 111 193 111 368 C111 543 128 677 308 677 C485 677 504 543 504 368 C504 193 486 60 308 60 L308 60 Z " />
<glyph glyph-name="R" unicode="R" horiz-adv-x="563" d="M428 0 L507 0 L367 305 C470 326 516 400 516 525 C516 673 451 741 305 741 L68 741 L68 0 L142 0 L142 300 L291 300 L428 0 Z M142 368 L142 673 L303 673 C399 673 442 633 442 522 C442 409 399 368 303 368 L142 368 Z " />
<glyph glyph-name="S" unicode="S" horiz-adv-x="523" d="M262 -8 C409 -8 486 65 486 184 C486 313 421 351 279 417 C167 470 135 492 135 566 C135 632 177 678 272 678 C338 678 386 665 425 646 L457 711 C408 734 351 749 271 749 C131 749 61 676 61 564 C61 450 127 407 245 354 C363 300 412 275 412 183 C412 104 361 58 261 58 C170 58 107 88 72 108 L34 50 C80 22 153 -8 262 -8 L262 -8 Z " />
<glyph glyph-name="T" unicode="T" horiz-adv-x="537" d="M230 0 L306 0 L306 672 L517 672 L517 741 L20 741 L20 672 L230 672 L230 0 Z " />
<glyph glyph-name="U" unicode="U" horiz-adv-x="610" d="M306 -9 C496 -9 547 83 547 242 L547 741 L475 741 L475 247 C475 125 440 60 306 60 C172 60 138 126 138 247 L138 741 L63 741 L63 242 C63 82 117 -9 306 -9 L306 -9 Z " />
<glyph glyph-name="V" unicode="V" horiz-adv-x="574" d="M249 -5 L326 -5 L552 741 L477 741 L289 108 L98 741 L23 741 L249 -5 Z " />
<glyph glyph-name="W" unicode="W" horiz-adv-x="847" d="M208 -5 L280 -5 L424 588 L569 -5 L640 -5 L819 741 L748 741 L605 142 L459 741 L394 741 L249 142 L105 741 L29 741 L208 -5 Z " />
<glyph glyph-name="X" unicode="X" horiz-adv-x="561" d="M450 0 L532 0 L321 387 L513 741 L433 741 L284 456 L129 741 L47 741 L239 388 L28 0 L108 0 L276 319 L450 0 Z " />
<glyph glyph-name="Y" unicode="Y" horiz-adv-x="550" d="M238 0 L312 0 L312 273 L540 741 L463 741 L276 356 L90 741 L9 741 L238 273 L238 0 Z " />
<glyph glyph-name="Z" unicode="Z" horiz-adv-x="520" d="M34 0 L483 0 L483 68 L123 68 L474 678 L474 741 L48 741 L48 672 L385 672 L34 60 L34 0 Z " />
<glyph glyph-name="bracketleft" unicode="&#x5b;" horiz-adv-x="376" d="M96 -158 L300 -158 L300 -96 L170 -96 L170 705 L297 705 L297 769 L96 769 L96 -158 Z " />
<glyph glyph-name="backslash" unicode="&#x5c;" horiz-adv-x="401" d="M328 0 L401 0 L73 741 L0 741 L328 0 Z " />
<glyph glyph-name="bracketright" unicode="&#x5d;" horiz-adv-x="376" d="M79 -158 L282 -158 L282 769 L80 769 L80 705 L208 705 L208 -96 L79 -96 L79 -158 Z " />
<glyph glyph-name="asciicircum" unicode="&#x5e;" horiz-adv-x="465" d="M85 604 L146 604 L232 707 L318 604 L381 604 L269 759 L198 759 L85 604 Z " />
<glyph glyph-name="underscore" unicode="&#x5f;" horiz-adv-x="357" d="M-30 -116 L387 -116 L387 -58 L-30 -58 L-30 -116 Z " />
<glyph glyph-name="grave" unicode="&#x60;" horiz-adv-x="465" d="M225 610 L291 610 L178 765 L94 765 L225 610 Z " />
<glyph glyph-name="a" unicode="a" horiz-adv-x="497" d="M196 -6 C266 -6 320 8 354 56 C362 14 380 -1 442 -1 C448 -1 455 -1 461 0 L461 65 C419 65 416 77 416 122 L416 364 C416 498 388 561 244 561 C172 561 113 545 72 524 L103 464 C135 480 182 494 238 494 C326 494 342 450 344 367 L320 367 C134 367 36 327 36 165 C36 55 81 -6 196 -6 L196 -6 Z M210 56 C145 56 106 81 106 171 C106 285 173 304 321 304 L344 304 L344 214 C344 88 279 56 210 56 L210 56 Z " />
<glyph glyph-name="b" unicode="b" horiz-adv-x="514" d="M59 2 L114 -3 L125 59 C152 19 184 -7 292 -7 C456 -7 476 125 476 277 C476 427 457 560 294 560 C200 560 155 537 132 494 L132 769 L59 769 L59 2 Z M274 58 C141 58 132 151 132 274 C132 396 142 492 274 492 C389 492 403 397 403 274 C403 150 388 58 274 58 L274 58 Z " />
<glyph glyph-name="c" unicode="c" horiz-adv-x="410" d="M245 -8 C304 -8 342 5 386 27 L357 84 C329 70 296 57 252 57 C135 57 112 138 112 275 C112 413 137 492 251 492 C287 492 316 485 346 470 L377 534 C342 551 300 560 248 560 C73 560 38 450 38 277 C38 104 73 -8 245 -8 L245 -8 Z " />
<glyph glyph-name="d" unicode="d" horiz-adv-x="514" d="M220 -7 C324 -7 367 21 390 63 L397 -2 L455 3 L455 769 L382 769 L382 498 C359 537 320 560 223 560 C59 560 38 429 38 278 C38 126 57 -7 220 -7 L220 -7 Z M240 58 C125 58 111 153 111 276 C111 399 126 492 240 492 C373 492 382 398 382 276 C382 154 372 58 240 58 L240 58 Z " />
<glyph glyph-name="e" unicode="e" horiz-adv-x="465" d="M246 -7 C327 -7 377 11 416 32 L387 89 C356 74 320 57 249 57 C134 57 111 127 108 246 L429 246 C430 442 429 560 246 560 C74 560 38 446 38 277 C38 105 68 -7 246 -7 L246 -7 Z M245 495 C359 495 358 422 361 313 L108 313 C112 425 137 495 245 495 L245 495 Z " />
<glyph glyph-name="f" unicode="f" horiz-adv-x="317" d="M21 487 L105 487 L105 0 L178 0 L178 487 L306 487 L306 551 L178 551 L178 618 C178 670 190 706 255 706 L306 706 L306 770 C299 771 264 771 249 771 C142 771 105 712 105 624 L105 551 L21 551 L21 487 Z " />
<glyph glyph-name="g" unicode="g" horiz-adv-x="479" d="M232 198 C344 198 416 243 416 378 C416 449 395 495 358 520 L440 520 L440 579 L282 559 C265 561 248 562 232 562 C117 562 47 512 47 378 C47 304 68 257 106 230 C92 210 85 187 85 166 C85 136 95 114 116 100 C46 84 20 33 20 -32 C20 -135 80 -166 233 -166 C380 -166 445 -116 445 -6 C445 94 395 131 237 131 C171 131 151 139 151 170 C151 182 153 194 160 206 C181 200 205 198 232 198 L232 198 Z M232 262 C160 262 119 294 119 377 C119 461 160 495 232 495 C305 495 344 461 344 377 C344 294 305 262 232 262 L232 262 Z M232 -106 C123 -106 92 -88 92 -21 C92 41 124 70 232 70 C346 70 371 49 371 -9 C371 -78 341 -106 232 -106 L232 -106 Z " />
<glyph glyph-name="h" unicode="h" horiz-adv-x="504" d="M59 0 L132 0 L132 285 C132 431 155 491 267 491 C366 491 376 440 376 343 L376 0 L448 0 L448 358 C448 479 434 560 291 560 C190 560 150 531 132 497 L132 769 L59 769 L59 0 Z " />
<glyph glyph-name="i" unicode="i" horiz-adv-x="198" d="M62 0 L135 0 L135 551 L62 551 L62 0 Z M62 625 L136 625 L136 729 L62 729 L62 625 Z " />
<glyph glyph-name="j" unicode="j" horiz-adv-x="198" d="M3 -158 L15 -158 C113 -158 135 -122 135 -33 L135 551 L62 551 L62 -31 C62 -78 56 -97 11 -97 L3 -97 L3 -158 Z M62 625 L136 625 L136 729 L62 729 L62 625 Z " />
<glyph glyph-name="k" unicode="k" horiz-adv-x="445" d="M59 0 L131 0 L131 157 L200 257 L353 0 L431 0 L248 317 L416 551 L337 551 L131 262 L131 769 L59 769 L59 0 Z " />
<glyph glyph-name="l" unicode="l" horiz-adv-x="240" d="M203 0 L203 65 C137 65 135 81 135 127 L135 769 L62 769 L62 119 C62 32 84 -1 179 -1 C193 -1 199 -1 203 0 L203 0 Z " />
<glyph glyph-name="m" unicode="m" horiz-adv-x="789" d="M59 0 L131 0 L131 285 C131 428 150 491 262 491 C362 491 366 440 366 343 L366 0 L438 0 L438 285 C438 430 457 491 568 491 C668 491 672 440 672 343 L672 0 L744 0 L744 358 C744 479 737 560 592 560 C486 560 442 532 420 490 C406 530 383 560 286 560 C181 560 144 532 124 492 L117 551 L59 547 L59 0 Z " />
<glyph glyph-name="n" unicode="n" horiz-adv-x="504" d="M59 0 L132 0 L132 285 C132 422 150 491 267 491 C366 491 376 440 376 343 L376 0 L448 0 L448 358 C448 479 433 560 290 560 C187 560 146 532 124 493 L117 551 L59 547 L59 0 Z " />
<glyph glyph-name="o" unicode="o" horiz-adv-x="500" d="M250 -8 C434 -8 463 115 463 277 C463 434 434 560 250 560 C67 560 38 436 38 277 C38 116 69 -8 250 -8 L250 -8 Z M250 57 C125 57 111 154 111 274 C111 396 125 492 250 492 C376 492 389 396 389 274 C389 154 376 57 250 57 L250 57 Z " />
<glyph glyph-name="p" unicode="p" horiz-adv-x="514" d="M59 -158 L132 -158 L132 56 C156 17 195 -7 292 -7 C455 -7 476 125 476 277 C476 427 457 560 294 560 C191 560 146 531 123 490 L117 551 L59 547 L59 -158 Z M274 58 C142 58 132 151 132 274 C132 396 142 492 274 492 C388 492 403 397 403 274 C403 150 387 58 274 58 L274 58 Z " />
<glyph glyph-name="q" unicode="q" horiz-adv-x="514" d="M382 -158 L455 -158 L455 554 L400 558 L389 496 C366 535 329 560 223 560 C59 560 38 429 38 278 C38 126 57 -7 220 -7 C317 -7 358 19 382 59 L382 -158 Z M240 58 C125 58 111 153 111 276 C111 399 126 492 240 492 C373 492 382 398 382 276 C382 154 372 58 240 58 L240 58 Z " />
<glyph glyph-name="r" unicode="r" horiz-adv-x="287" d="M59 0 L132 0 L132 273 C132 381 139 484 277 487 L277 556 C186 556 144 524 124 485 L116 551 L59 547 L59 0 Z " />
<glyph glyph-name="s" unicode="s" horiz-adv-x="387" d="M189 -7 C296 -7 361 40 361 139 C361 236 307 270 217 312 C139 349 105 370 105 419 C105 467 130 496 197 496 C247 496 283 485 312 473 L340 534 C304 550 265 560 199 560 C93 560 35 513 35 418 C35 332 88 299 176 257 C255 219 292 197 292 139 C292 81 254 54 189 54 C131 54 83 69 48 87 L19 28 C63 6 120 -7 189 -7 L189 -7 Z " />
<glyph glyph-name="t" unicode="t" horiz-adv-x="347" d="M21 487 L104 487 L104 138 C104 43 127 -2 240 -2 C248 -2 298 -1 308 0 L308 65 L247 65 C185 65 177 93 177 145 L177 487 L308 487 L308 551 L177 551 L177 718 L117 705 L105 551 L21 551 L21 487 Z " />
<glyph glyph-name="u" unicode="u" horiz-adv-x="492" d="M247 -8 C408 -8 436 61 436 196 L436 551 L365 551 L365 200 C365 107 353 58 248 58 C141 58 129 107 129 200 L129 551 L56 551 L56 196 C56 61 88 -8 247 -8 L247 -8 Z " />
<glyph glyph-name="v" unicode="v" horiz-adv-x="441" d="M182 -4 L259 -4 L430 551 L358 551 L222 95 L86 551 L11 551 L182 -4 Z " />
<glyph glyph-name="w" unicode="w" horiz-adv-x="697" d="M164 -4 L235 -4 L349 427 L464 -4 L533 -4 L683 551 L614 551 L498 115 L384 551 L317 551 L202 113 L87 551 L14 551 L164 -4 Z " />
<glyph glyph-name="x" unicode="x" horiz-adv-x="437" d="M344 0 L422 0 L259 286 L408 551 L334 551 L223 349 L108 551 L30 551 L178 290 L15 0 L89 0 L214 227 L344 0 Z " />
<glyph glyph-name="y" unicode="y" horiz-adv-x="429" d="M64 -158 L108 -158 C175 -158 208 -141 229 -72 L418 551 L347 551 L216 104 L84 551 L11 551 L178 -2 L163 -57 C154 -86 141 -97 110 -97 L64 -97 L64 -158 Z " />
<glyph glyph-name="z" unicode="z" horiz-adv-x="396" d="M23 0 L373 0 L373 61 L111 61 L365 499 L365 551 L38 551 L38 487 L276 487 L23 53 L23 0 Z " />
<glyph glyph-name="braceleft" unicode="&#x7b;" horiz-adv-x="404" d="M266 -158 L329 -158 L329 -96 L284 -96 C225 -96 196 -76 196 -18 C196 32 237 169 237 235 C237 270 223 293 191 306 C222 317 237 341 237 377 C237 440 196 576 196 629 C196 686 225 705 284 705 L329 705 L329 769 L265 769 C164 769 121 733 121 648 C121 587 164 440 164 386 C164 343 135 337 65 337 L65 274 C138 274 164 266 164 224 C164 175 121 23 121 -37 C121 -122 164 -158 266 -158 L266 -158 Z " />
<glyph glyph-name="bar" unicode="&#x7c;" horiz-adv-x="265" d="M96 -158 L170 -158 L170 769 L96 769 L96 -158 Z " />
<glyph glyph-name="braceright" unicode="&#x7d;" horiz-adv-x="404" d="M76 -158 L139 -158 C241 -158 283 -122 283 -37 C283 23 240 175 240 224 C240 268 269 274 340 274 L340 338 C266 338 240 345 240 386 C240 440 283 587 283 648 C283 733 241 769 140 769 L76 769 L76 705 L121 705 C180 705 209 686 209 629 C209 576 167 439 167 377 C167 341 182 318 213 306 C183 294 167 270 167 235 C167 168 209 32 209 -18 C209 -76 180 -96 121 -96 L76 -96 L76 -158 Z " />
<glyph glyph-name="asciitilde" unicode="&#x7e;" horiz-adv-x="465" d="M123 417 C139 443 154 458 177 458 C210 458 244 419 293 419 C337 419 368 447 391 495 L342 523 C325 496 311 477 287 477 C253 477 221 518 171 518 C129 518 97 492 74 444 L123 417 Z " />
<glyph glyph-name="exclamdown" unicode="&#xa1;" horiz-adv-x="293" d="M106 0 L187 0 L180 538 L114 538 L106 0 Z M101 635 L193 635 L193 741 L101 741 L101 635 Z " />
<glyph glyph-name="cent" unicode="&#xa2;" horiz-adv-x="421" d="M208 -96 L279 -96 L279 -4 C322 -1 355 10 391 29 L363 84 C338 72 310 60 275 57 L275 491 C302 489 327 482 351 470 L382 532 C352 547 319 555 279 557 L279 642 L208 642 L208 555 C72 537 43 434 43 277 C43 119 72 15 208 -2 L208 -96 Z M117 275 C117 392 135 467 212 487 L212 62 C133 82 117 158 117 275 L117 275 Z " />
<glyph glyph-name="sterling" unicode="&#xa3;" horiz-adv-x="477" d="M336 -5 C427 -5 452 38 452 131 L452 192 L387 192 L387 133 C387 86 377 59 328 59 C281 59 235 75 199 95 C202 112 204 133 204 157 C204 202 191 273 176 347 L334 347 L334 408 L164 408 C152 468 143 525 143 562 C143 635 169 681 253 681 C307 681 361 671 403 650 L435 709 C384 735 328 749 253 749 C121 749 71 685 71 569 C71 526 81 468 93 408 L19 408 L19 347 L105 347 C121 271 137 199 137 156 C137 78 113 65 18 65 L18 0 C96 0 145 9 173 40 C219 14 279 -5 336 -5 L336 -5 Z " />
<glyph glyph-name="currency" unicode="&#xa4;" horiz-adv-x="539" d="M30 418 L118 418 L118 334 L30 334 L30 273 L120 273 C131 82 183 -8 338 -8 C411 -8 461 12 503 36 L469 94 C437 77 399 59 342 59 C235 59 201 129 192 273 L414 273 L414 334 L190 334 L190 418 L414 418 L414 479 L193 479 C202 614 236 679 341 679 C397 679 437 667 469 649 L504 710 C462 735 409 749 342 749 C186 749 133 661 121 479 L30 479 L30 418 Z " />
<glyph glyph-name="yen" unicode="&#xa5;" horiz-adv-x="499" d="M53 227 L214 227 L214 143 L53 143 L53 82 L214 82 L214 0 L285 0 L285 82 L447 82 L447 143 L285 143 L285 227 L447 227 L447 288 L285 288 L285 308 L482 741 L407 741 L250 385 L93 741 L16 741 L214 308 L214 288 L53 288 L53 227 Z " />
<glyph glyph-name="brokenbar" unicode="&#xa6;" horiz-adv-x="265" d="M96 -158 L170 -158 L170 226 L96 226 L96 -158 Z M96 385 L170 385 L170 769 L96 769 L96 385 Z " />
<glyph glyph-name="section" unicode="&#xa7;" horiz-adv-x="441" d="M113 -9 C229 -9 253 58 253 146 L253 230 C347 238 391 281 391 373 C391 464 347 507 252 515 L252 596 C252 650 264 687 329 687 L367 687 L367 749 L323 749 C207 749 183 683 183 595 L183 514 C92 506 50 463 50 373 C50 282 92 239 183 230 L183 142 C183 89 172 52 107 52 L70 52 L70 -8 C75 -8 101 -9 113 -9 L113 -9 Z M219 282 C148 282 111 307 111 371 C111 435 148 460 219 460 C291 460 330 435 330 371 C330 307 291 282 219 282 L219 282 Z " />
<glyph glyph-name="dieresis" unicode="&#xa8;" horiz-adv-x="465" d="M115 610 L181 610 L181 705 L115 705 L115 610 Z M285 610 L352 610 L352 705 L285 705 L285 610 Z " />
<glyph glyph-name="copyright" unicode="&#xa9;" horiz-adv-x="667" d="M339 118 C400 118 432 130 467 152 L441 193 C412 175 387 165 341 165 C237 165 215 238 215 373 C215 509 237 581 340 581 C384 581 413 569 431 558 L460 600 C435 616 396 630 341 630 C190 630 163 528 163 375 C163 217 192 118 339 118 L339 118 Z M333 -10 C560 -10 624 145 624 370 C624 596 560 752 333 752 C105 752 43 596 43 370 C43 145 105 -10 333 -10 L333 -10 Z M333 25 C134 25 80 166 80 370 C80 576 134 717 333 717 C533 717 587 576 587 370 C587 166 533 25 333 25 L333 25 Z " />
<glyph glyph-name="ordfeminine" unicode="&#xaa;" horiz-adv-x="436" d="M176 289 C234 289 279 307 304 355 C310 310 325 293 377 293 L396 293 L396 348 C361 348 358 359 358 394 L358 588 C358 697 336 749 219 749 C159 749 111 735 79 720 L104 668 C131 680 170 692 213 692 C284 692 297 657 298 589 L280 589 C129 589 49 560 49 428 C49 339 87 289 176 289 L176 289 Z M191 341 C140 341 109 361 109 433 C109 523 161 538 280 538 L298 538 L298 467 C298 367 247 341 191 341 L191 341 Z M61 152 L368 152 L368 208 L61 208 L61 152 Z " />
<glyph glyph-name="guillemotleft" unicode="&#xab;" horiz-adv-x="546" d="M188 0 L254 0 L139 275 L254 551 L188 551 L69 275 L188 0 Z M393 0 L458 0 L343 275 L458 551 L393 551 L274 275 L393 0 Z " />
<glyph glyph-name="logicalnot" unicode="&#xac;" horiz-adv-x="832" d="M126 120 C126 120 129 123 134 127 C79 193 46 278 46 371 C46 464 79 549 133 615 C129 619 126 621 126 621 C70 554 36 466 36 371 C36 275 70 187 126 120 L126 120 Z M228 211 C230 213 233 215 235 218 C201 259 181 313 181 371 C181 429 202 483 235 524 C232 526 230 529 227 531 C192 487 171 432 171 371 C171 310 193 254 228 211 L228 211 Z M264 243 C267 245 269 248 272 250 C245 283 229 325 229 371 C229 417 245 459 272 492 C269 494 267 497 264 499 C236 464 219 419 219 371 C219 322 236 278 264 243 L264 243 Z M316 289 C319 291 321 294 324 296 C308 317 298 343 298 371 C298 399 308 425 323 445 C321 448 318 450 316 452 C298 430 288 402 288 371 C288 340 298 312 316 289 L316 289 Z M349 320 C352 323 354 325 357 327 C348 340 343 355 343 371 C343 387 348 402 357 415 C354 417 352 420 349 422 C339 408 333 390 333 371 C333 352 339 334 349 320 L349 320 Z M378 346 C382 349 384 351 384 351 C381 357 379 364 379 371 C379 378 381 385 384 391 C384 391 382 393 378 396 C374 389 371 380 371 371 C371 362 374 353 378 346 L378 346 Z M416 60 C493 60 563 89 616 136 C614 139 611 141 609 144 C558 98 490 70 416 70 C342 70 274 98 222 144 C222 145 215 137 215 137 C268 89 338 60 416 60 L416 60 Z M416 324 C426 324 435 327 442 333 C439 337 437 339 437 339 C431 334 424 332 416 332 C408 332 401 335 395 339 C395 339 391 334 389 333 C397 327 406 324 416 324 L416 324 Z M482 319 C493 334 499 352 499 371 C499 390 493 408 482 422 C483 422 475 415 475 415 C484 403 489 388 489 371 C489 355 484 339 475 326 C478 324 480 322 482 319 L482 319 Z M292 269 C295 271 298 274 300 276 C280 302 267 335 267 371 C267 407 280 440 300 466 L293 473 C270 445 257 410 257 371 C257 333 270 297 292 269 L292 269 Z M416 -17 C512 -17 600 19 667 80 C667 80 660 88 660 87 C595 29 510 -7 416 -7 C322 -7 236 29 171 88 L164 80 C231 20 320 -17 416 -17 L416 -17 Z M416 121 C478 121 534 144 576 182 C574 185 571 187 569 190 C529 153 475 131 416 131 C357 131 303 153 262 190 L255 182 C298 144 354 121 416 121 L416 121 Z M416 170 C465 170 510 188 544 218 C542 221 539 223 537 226 C505 197 462 180 416 180 C369 180 327 197 294 226 L287 219 C322 189 367 170 416 170 L416 170 Z M416 209 C455 209 491 224 518 247 C516 250 514 253 512 255 C486 233 452 219 416 219 C380 219 346 233 320 255 L313 247 C341 224 377 209 416 209 L416 209 Z M416 265 C441 265 463 274 481 289 C479 292 476 294 474 297 C458 283 438 275 416 275 C394 275 373 283 357 297 L350 289 C368 274 391 265 416 265 L416 265 Z M358 445 C374 459 394 467 416 467 C438 467 458 459 474 445 L482 453 C464 468 441 477 416 477 C391 477 368 468 350 453 C351 452 354 448 358 445 L358 445 Z M570 552 C572 554 575 557 577 560 C534 598 478 621 416 621 C355 621 299 598 256 560 L263 553 C304 589 357 611 416 611 C475 611 529 589 570 552 L570 552 Z M454 346 C458 353 461 362 461 371 C461 380 458 389 454 396 L448 391 C451 385 453 378 453 371 C453 364 451 357 448 351 C448 351 450 349 454 346 L454 346 Z M468 333 C476 344 480 357 480 371 C480 385 476 398 468 409 L460 402 C466 393 470 382 470 371 C470 360 466 349 460 340 C463 338 465 336 468 333 L468 333 Z M498 306 C511 325 519 347 519 371 C519 395 511 418 497 436 L490 429 C502 413 509 393 509 371 C509 349 502 329 490 313 C492 311 495 308 498 306 L498 306 Z M540 269 C562 297 575 332 575 371 C575 410 562 445 539 473 L531 466 C552 440 565 407 565 371 C565 335 552 302 532 276 C535 274 537 271 540 269 L540 269 Z M568 243 C596 278 613 322 613 371 C613 420 596 464 568 499 L560 492 C587 459 603 417 603 371 C603 325 587 283 560 250 C563 248 566 245 568 243 L568 243 Z M604 211 C640 254 661 310 661 371 C661 432 640 488 604 531 L596 524 C631 483 651 429 651 371 C651 313 631 260 596 218 C601 213 604 211 604 211 L604 211 Z M649 171 C694 225 721 295 721 371 C721 447 694 517 649 571 L641 564 C685 512 711 445 711 371 C711 297 685 230 642 177 C644 175 647 173 649 171 L649 171 Z M706 120 C762 188 796 276 796 371 C796 467 762 555 706 622 L698 615 C753 549 786 464 786 371 C786 278 753 193 698 127 C703 123 706 120 706 120 L706 120 Z M183 170 L190 177 C147 229 121 297 121 371 C121 444 147 512 190 564 C187 567 184 569 182 571 C138 517 111 447 111 371 C111 294 138 225 183 170 L183 170 Z M334 306 L342 314 C330 330 323 350 323 371 C323 393 330 413 342 429 C340 431 337 434 334 436 C321 418 313 395 313 371 C313 346 321 324 334 306 L334 306 Z M364 333 L371 340 C366 349 362 360 362 371 C362 382 366 393 371 402 C369 404 366 406 364 409 C356 398 352 385 352 371 C352 357 356 344 364 333 L364 333 Z M395 403 C401 408 408 410 416 410 C424 410 431 407 437 403 C437 403 439 406 442 409 C435 415 426 418 416 418 C406 418 397 415 390 409 L395 403 Z M384 416 C393 423 404 428 416 428 C428 428 439 424 448 416 C450 419 452 421 454 423 C443 432 430 437 416 437 C401 437 388 432 377 423 L384 416 Z M371 430 C383 441 399 447 416 447 C433 447 449 441 461 430 C461 430 464 434 468 438 C454 450 436 457 416 457 C397 457 378 450 364 438 L371 430 Z M295 516 C327 545 370 562 416 562 C462 562 505 545 538 516 C538 516 545 523 544 523 C510 554 465 572 416 572 C367 572 322 554 288 524 L295 516 Z M416 240 C448 240 476 252 498 271 L491 278 C471 261 445 250 416 250 C388 250 361 261 340 278 L333 270 C355 251 384 240 416 240 L416 240 Z M416 285 C436 285 454 292 468 304 L461 312 C448 301 433 295 416 295 C399 295 383 302 370 312 L363 304 C378 292 396 285 416 285 L416 285 Z M416 305 C430 305 444 310 455 319 L448 326 C439 319 428 314 416 314 C404 314 393 319 383 326 L376 319 C388 310 401 305 416 305 L416 305 Z M341 464 C362 482 388 492 416 492 C445 492 471 481 491 464 L498 472 C476 491 447 502 416 502 C385 502 356 490 334 471 L341 464 Z M320 487 C346 509 380 523 416 523 C453 523 486 510 512 487 L518 494 C491 518 455 533 416 533 C377 533 341 519 313 495 L320 487 Z M610 597 L617 605 C563 653 493 682 416 682 C339 682 269 653 215 605 L222 598 C274 644 342 672 416 672 C491 672 559 644 610 597 L610 597 Z M172 654 C237 713 322 749 416 749 C510 749 596 713 661 654 L668 662 C601 722 512 759 416 759 C320 759 232 723 165 662 L172 654 Z M516 290 C534 312 544 340 544 371 C544 402 534 430 516 453 L508 446 C524 425 534 399 534 371 C534 343 524 317 509 297 L516 290 Z " />
<glyph glyph-name="registered" unicode="&#xae;" horiz-adv-x="667" d="M333 -10 C560 -10 624 145 624 370 C624 596 560 752 333 752 C105 752 43 596 43 370 C43 145 105 -10 333 -10 L333 -10 Z M333 25 C134 25 80 166 80 370 C80 576 134 717 333 717 C533 717 587 576 587 370 C587 166 533 25 333 25 L333 25 Z M438 125 L489 125 L394 333 C467 344 494 391 494 477 C494 576 457 621 354 621 L196 621 L196 125 L247 125 L247 330 L343 330 L438 125 Z M247 373 L247 576 L352 576 C419 576 445 549 445 475 C445 400 419 373 352 373 L247 373 Z " />
<glyph glyph-name="&amp;#xaf;" unicode="&#xaf;" horiz-adv-x="465" d="M88 610 L377 610 L377 671 L88 671 L88 610 Z " />
<glyph glyph-name="&amp;#x2c9;" unicode="&#x2c9;" horiz-adv-x="465" d="M88 610 L377 610 L377 671 L88 671 L88 610 Z " />
<glyph glyph-name="degree" unicode="&#xb0;" horiz-adv-x="451" d="M226 281 C371 281 400 383 400 515 C400 646 371 749 226 749 C82 749 52 646 52 515 C52 383 82 281 226 281 L226 281 Z M226 339 C131 339 114 414 114 514 C114 613 131 687 226 687 C322 687 338 613 338 514 C338 414 322 339 226 339 L226 339 Z " />
<glyph glyph-name="plusminus" unicode="&#xb1;" horiz-adv-x="802" d="M365 0 L438 0 L438 487 L554 487 L554 551 L438 551 L438 618 C438 670 450 706 514 706 L554 706 L554 771 L509 771 C401 771 365 712 365 624 L365 551 L178 551 L178 618 C178 670 190 706 255 706 L294 706 L294 771 L249 771 C142 771 105 712 105 624 L105 551 L21 551 L21 487 L105 487 L105 0 L178 0 L178 487 L365 487 L365 0 Z M765 0 L765 65 C699 65 697 81 697 127 L697 769 L624 769 L624 119 C624 32 646 -1 741 -1 C755 -1 761 -1 765 0 L765 0 Z " />
<glyph glyph-name="twosuperior" unicode="&#xb2;" horiz-adv-x="359" d="M53 291 L305 291 L305 341 L130 341 L193 425 C283 545 299 569 299 632 C299 709 266 746 181 746 C123 746 86 735 55 720 L81 670 C106 683 135 691 173 691 C221 691 240 673 240 624 C240 581 229 565 148 457 L53 332 L53 291 Z " />
<glyph glyph-name="threesuperior" unicode="&#xb3;" horiz-adv-x="361" d="M167 286 C260 286 304 319 304 423 C304 485 298 521 248 538 C285 555 294 590 294 636 C294 727 251 746 172 746 C127 746 82 734 53 719 L77 672 C102 684 134 692 165 692 C213 692 236 683 236 625 C236 585 222 558 161 558 L106 558 L106 506 L159 506 C237 506 246 478 246 428 C246 360 224 338 163 338 C125 338 99 346 73 361 L47 315 C78 296 115 286 167 286 L167 286 Z " />
<glyph glyph-name="acute" unicode="&#xb4;" horiz-adv-x="465" d="M174 610 L240 610 L370 765 L288 765 L174 610 Z " />
<glyph glyph-name="&amp;#xb5;" unicode="&#xb5;" horiz-adv-x="495" d="M59 -158 L132 -158 L132 38 C150 8 192 -8 253 -8 C412 -8 439 61 439 196 L439 551 L368 551 L368 200 C368 107 356 58 251 58 C145 58 132 107 132 200 L132 551 L59 551 L59 -158 Z " />
<glyph glyph-name="&amp;#x3bc;" unicode="&#x3bc;" horiz-adv-x="495" d="M59 -158 L132 -158 L132 38 C150 8 192 -8 253 -8 C412 -8 439 61 439 196 L439 551 L368 551 L368 200 C368 107 356 58 251 58 C145 58 132 107 132 200 L132 551 L59 551 L59 -158 Z " />
<glyph glyph-name="paragraph" unicode="&#xb6;" horiz-adv-x="497" d="M203 0 L274 0 L274 300 L358 300 L358 0 L429 0 L429 741 L259 741 C95 741 39 674 39 521 C39 388 82 319 203 303 L203 0 Z M258 364 C154 364 112 404 112 519 C112 634 153 675 258 675 L358 675 L358 364 L258 364 Z " />
<glyph glyph-name="&amp;#xb7;" unicode="&#xb7;" horiz-adv-x="200" d="M54 279 L146 279 L146 388 L54 388 L54 279 Z " />
<glyph glyph-name="&amp;#x2219;" unicode="&#x2219;" horiz-adv-x="200" d="M54 279 L146 279 L146 388 L54 388 L54 279 Z " />
<glyph glyph-name="cedilla" unicode="&#xb8;" horiz-adv-x="465" d="M250 -212 C333 -212 360 -180 360 -122 C360 -53 314 -41 262 -45 L271 7 L225 7 L211 -62 L232 -77 C287 -74 307 -81 307 -118 C307 -150 294 -167 246 -167 C221 -167 197 -161 174 -153 L156 -192 C184 -204 217 -212 250 -212 L250 -212 Z " />
<glyph glyph-name="onesuperior" unicode="&#xb9;" horiz-adv-x="255" d="M111 291 L172 291 L172 741 L43 741 L43 686 L111 686 L111 291 Z " />
<glyph glyph-name="ordmasculine" unicode="&#xba;" horiz-adv-x="436" d="M218 287 C367 287 391 387 391 518 C391 646 367 749 218 749 C70 749 46 647 46 518 C46 388 70 287 218 287 L218 287 Z M218 342 C118 342 108 420 108 517 C108 613 118 691 218 691 C318 691 328 613 328 517 C328 420 318 342 218 342 L218 342 Z M58 152 L378 152 L378 208 L58 208 L58 152 Z " />
<glyph glyph-name="guillemotright" unicode="&#xbb;" horiz-adv-x="546" d="M87 0 L153 0 L272 276 L153 551 L87 551 L203 276 L87 0 Z M292 0 L358 0 L476 276 L358 551 L292 551 L407 276 L292 0 Z " />
<glyph glyph-name="onequarter" unicode="&#xbc;" horiz-adv-x="708" d="M147 0 L214 0 L534 741 L466 741 L147 0 Z M376 97 L555 97 L555 0 L612 0 L612 97 L673 97 L673 147 L612 147 L612 276 L567 276 L555 147 L439 147 L596 450 L533 450 L376 145 L376 97 Z M121 291 L182 291 L182 741 L53 741 L53 686 L121 686 L121 291 Z " />
<glyph glyph-name="onehalf" unicode="&#xbd;" horiz-adv-x="759" d="M147 0 L214 0 L534 741 L466 741 L147 0 Z M121 291 L182 291 L182 741 L53 741 L53 686 L121 686 L121 291 Z M447 0 L699 0 L699 50 L525 50 L587 134 C677 254 694 279 694 342 C694 418 660 456 575 456 C518 456 481 445 450 429 L476 380 C501 392 530 400 568 400 C616 400 635 383 635 334 C635 290 624 274 543 165 L447 42 L447 0 Z " />
<glyph glyph-name="threequarters" unicode="&#xbe;" horiz-adv-x="776" d="M214 0 L281 0 L601 741 L534 741 L214 0 Z M167 286 C260 286 304 319 304 423 C304 485 298 521 248 538 C285 555 294 590 294 636 C294 727 251 746 172 746 C127 746 82 734 53 719 L77 672 C102 684 134 692 165 692 C213 692 236 683 236 625 C236 585 222 558 161 558 L106 558 L106 506 L159 506 C237 506 246 478 246 428 C246 360 224 338 163 338 C125 338 99 346 73 361 L47 315 C78 296 115 286 167 286 L167 286 Z M444 97 L624 97 L624 0 L680 0 L680 97 L742 97 L742 147 L680 147 L680 276 L636 276 L624 147 L507 147 L665 450 L602 450 L444 145 L444 97 Z " />
<glyph glyph-name="questiondown" unicode="&#xbf;" horiz-adv-x="519" d="M263 -8 C345 -8 413 13 456 35 L423 97 C389 79 334 60 273 60 C178 60 157 106 157 167 C157 224 178 253 231 311 C319 406 328 428 326 542 L255 542 C257 441 252 428 171 341 C118 284 84 241 84 156 C84 62 120 -8 263 -8 L263 -8 Z M245 642 L336 642 L336 741 L245 741 L245 642 Z " />
<glyph glyph-name="Agrave" unicode="&#xc0;" horiz-adv-x="577" d="M23 0 L96 0 L146 170 L428 170 L479 0 L555 0 L327 746 L250 746 L23 0 Z M166 238 L288 638 L408 238 L166 238 Z M280 785 L346 785 L233 940 L149 940 L280 785 Z " />
<glyph glyph-name="Aacute" unicode="&#xc1;" horiz-adv-x="577" d="M23 0 L96 0 L146 170 L428 170 L479 0 L555 0 L327 746 L250 746 L23 0 Z M166 238 L288 638 L408 238 L166 238 Z M229 785 L295 785 L425 940 L343 940 L229 785 Z " />
<glyph glyph-name="Acircumflex" unicode="&#xc2;" horiz-adv-x="577" d="M23 0 L96 0 L146 170 L428 170 L479 0 L555 0 L327 746 L250 746 L23 0 Z M166 238 L288 638 L408 238 L166 238 Z M140 785 L201 785 L287 888 L373 785 L436 785 L324 940 L253 940 L140 785 Z " />
<glyph glyph-name="Atilde" unicode="&#xc3;" horiz-adv-x="577" d="M23 0 L96 0 L146 170 L428 170 L479 0 L555 0 L327 746 L250 746 L23 0 Z M166 238 L288 638 L408 238 L166 238 Z M178 782 C194 808 209 823 232 823 C265 823 299 784 348 784 C392 784 423 812 446 860 L397 888 C380 861 366 842 342 842 C308 842 276 883 226 883 C184 883 152 857 129 809 L178 782 Z " />
<glyph glyph-name="Adieresis" unicode="&#xc4;" horiz-adv-x="577" d="M23 0 L96 0 L146 170 L428 170 L479 0 L555 0 L327 746 L250 746 L23 0 Z M166 238 L288 638 L408 238 L166 238 Z M170 785 L236 785 L236 880 L170 880 L170 785 Z M340 785 L407 785 L407 880 L340 880 L340 785 Z " />
<glyph glyph-name="Aring" unicode="&#xc5;" horiz-adv-x="577" d="M23 0 L96 0 L146 170 L428 170 L479 0 L555 0 L336 714 C371 732 386 770 386 815 C386 878 359 927 288 927 C216 927 190 878 190 815 C190 769 204 730 240 713 L23 0 Z M166 238 L288 638 L408 238 L166 238 Z M288 746 C247 746 233 776 233 815 C233 855 247 885 288 885 C329 885 342 855 342 815 C342 776 329 746 288 746 L288 746 Z " />
<glyph glyph-name="AE" unicode="&#xc6;" horiz-adv-x="850" d="M17 0 L91 0 L174 173 L413 173 L413 0 L805 0 L805 68 L486 68 L486 350 L785 350 L785 418 L486 418 L486 672 L802 672 L802 741 L375 741 L17 0 Z M205 237 L413 667 L413 237 L205 237 Z " />
<glyph glyph-name="Ccedilla" unicode="&#xc7;" horiz-adv-x="505" d="M269 -212 C352 -212 379 -180 379 -122 C379 -53 333 -41 281 -45 L287 -7 C290 -7 293 -8 296 -8 C386 -8 435 11 484 42 L447 100 C406 75 368 60 299 60 C145 60 111 167 111 369 C111 571 146 676 299 676 C364 676 407 659 434 643 L474 705 C437 729 380 749 300 749 C77 749 35 598 35 370 C35 160 73 20 241 -4 L230 -62 L251 -77 C306 -74 326 -81 326 -118 C326 -150 313 -167 265 -167 C240 -167 216 -161 193 -153 L175 -192 C203 -204 236 -212 269 -212 L269 -212 Z " />
<glyph glyph-name="Egrave" unicode="&#xc8;" horiz-adv-x="505" d="M68 0 L460 0 L460 68 L141 68 L141 350 L440 350 L440 419 L141 419 L141 672 L457 672 L457 741 L68 741 L68 0 Z M244 785 L310 785 L197 940 L113 940 L244 785 Z " />
<glyph glyph-name="Eacute" unicode="&#xc9;" horiz-adv-x="505" d="M193 785 L259 785 L389 940 L307 940 L193 785 Z M68 0 L460 0 L460 68 L141 68 L141 350 L440 350 L440 419 L141 419 L141 672 L457 672 L457 741 L68 741 L68 0 Z " />
<glyph glyph-name="Ecircumflex" unicode="&#xca;" horiz-adv-x="505" d="M104 785 L165 785 L251 888 L337 785 L400 785 L288 940 L217 940 L104 785 Z M68 0 L460 0 L460 68 L141 68 L141 350 L440 350 L440 419 L141 419 L141 672 L457 672 L457 741 L68 741 L68 0 Z " />
<glyph glyph-name="Edieresis" unicode="&#xcb;" horiz-adv-x="505" d="M134 785 L200 785 L200 880 L134 880 L134 785 Z M304 785 L371 785 L371 880 L304 880 L304 785 Z M68 0 L460 0 L460 68 L141 68 L141 350 L440 350 L440 419 L141 419 L141 672 L457 672 L457 741 L68 741 L68 0 Z " />
<glyph glyph-name="Igrave" unicode="&#xcc;" horiz-adv-x="222" d="M81 785 L145 785 L55 940 L-26 940 L81 785 Z M74 0 L149 0 L149 741 L74 741 L74 0 Z " />
<glyph glyph-name="Iacute" unicode="&#xcd;" horiz-adv-x="222" d="M77 785 L141 785 L247 940 L166 940 L77 785 Z M74 0 L149 0 L149 741 L74 741 L74 0 Z " />
<glyph glyph-name="Icircumflex" unicode="&#xce;" horiz-adv-x="222" d="M-33 785 L28 785 L110 888 L193 785 L255 785 L146 940 L75 940 L-33 785 Z M74 0 L149 0 L149 741 L74 741 L74 0 Z " />
<glyph glyph-name="Idieresis" unicode="&#xcf;" horiz-adv-x="222" d="M74 0 L149 0 L149 741 L74 741 L74 0 Z M-6 785 L60 785 L60 880 L-6 880 L-6 785 Z M164 785 L231 785 L231 880 L164 880 L164 785 Z " />
<glyph glyph-name="Eth" unicode="&#xd0;" horiz-adv-x="585" d="M1 352 L68 352 L68 0 L264 0 C504 0 550 128 550 371 C550 609 503 741 270 741 L68 741 L68 415 L1 415 L1 352 Z M143 66 L143 352 L272 352 L272 415 L143 415 L143 672 L273 672 C447 672 474 564 474 370 C474 174 446 66 269 66 L143 66 Z " />
<glyph glyph-name="Ntilde" unicode="&#xd1;" horiz-adv-x="611" d="M68 0 L139 0 L139 613 L474 0 L544 0 L544 741 L472 741 L472 149 L150 741 L68 741 L68 0 Z M195 782 C211 808 226 823 249 823 C282 823 316 784 365 784 C409 784 440 812 463 860 L414 888 C397 861 383 842 359 842 C325 842 293 883 243 883 C201 883 169 857 146 809 L195 782 Z " />
<glyph glyph-name="Ograve" unicode="&#xd2;" horiz-adv-x="614" d="M308 -8 C551 -8 579 163 579 370 C579 577 551 749 308 749 C63 749 35 577 35 370 C35 163 63 -8 308 -8 L308 -8 Z M308 60 C128 60 111 193 111 368 C111 543 128 677 308 677 C485 677 504 543 504 368 C504 193 486 60 308 60 L308 60 Z M299 785 L365 785 L252 940 L168 940 L299 785 Z " />
<glyph glyph-name="Oacute" unicode="&#xd3;" horiz-adv-x="614" d="M248 785 L314 785 L444 940 L362 940 L248 785 Z M308 -8 C551 -8 579 163 579 370 C579 577 551 749 308 749 C63 749 35 577 35 370 C35 163 63 -8 308 -8 L308 -8 Z M308 60 C128 60 111 193 111 368 C111 543 128 677 308 677 C485 677 504 543 504 368 C504 193 486 60 308 60 L308 60 Z " />
<glyph glyph-name="Ocircumflex" unicode="&#xd4;" horiz-adv-x="614" d="M159 785 L220 785 L306 888 L392 785 L455 785 L343 940 L272 940 L159 785 Z M308 -8 C551 -8 579 163 579 370 C579 577 551 749 308 749 C63 749 35 577 35 370 C35 163 63 -8 308 -8 L308 -8 Z M308 60 C128 60 111 193 111 368 C111 543 128 677 308 677 C485 677 504 543 504 368 C504 193 486 60 308 60 L308 60 Z " />
<glyph glyph-name="Otilde" unicode="&#xd5;" horiz-adv-x="614" d="M308 -8 C551 -8 579 163 579 370 C579 577 551 749 308 749 C63 749 35 577 35 370 C35 163 63 -8 308 -8 L308 -8 Z M308 60 C128 60 111 193 111 368 C111 543 128 677 308 677 C485 677 504 543 504 368 C504 193 486 60 308 60 L308 60 Z M197 782 C213 808 228 823 251 823 C284 823 318 784 367 784 C411 784 442 812 465 860 L416 888 C399 861 385 842 361 842 C327 842 295 883 245 883 C203 883 171 857 148 809 L197 782 Z " />
<glyph glyph-name="Odieresis" unicode="&#xd6;" horiz-adv-x="614" d="M189 785 L255 785 L255 880 L189 880 L189 785 Z M359 785 L426 785 L426 880 L359 880 L359 785 Z M308 -8 C551 -8 579 163 579 370 C579 577 551 749 308 749 C63 749 35 577 35 370 C35 163 63 -8 308 -8 L308 -8 Z M308 60 C128 60 111 193 111 368 C111 543 128 677 308 677 C485 677 504 543 504 368 C504 193 486 60 308 60 L308 60 Z " />
<glyph glyph-name="multiply" unicode="&#xd7;" horiz-adv-x="551" d="M150 180 L276 306 L402 181 L445 227 L320 352 L446 477 L402 523 L276 397 L150 523 L106 477 L230 352 L106 226 L150 180 Z " />
<glyph glyph-name="Oslash" unicode="&#xd8;" horiz-adv-x="614" d="M104 -41 L175 -41 L196 8 C227 -2 264 -8 308 -8 C551 -8 579 163 579 370 C579 513 565 640 476 704 L511 783 L444 783 L420 733 C389 743 352 749 308 749 C63 749 35 577 35 370 C35 226 48 100 138 36 L104 -41 Z M308 57 C272 57 243 62 219 71 L443 632 C497 578 505 482 505 368 C505 191 488 57 308 57 L308 57 Z M109 368 C109 544 126 679 308 679 C341 679 369 674 392 665 L169 104 C116 158 109 254 109 368 L109 368 Z " />
<glyph glyph-name="Ugrave" unicode="&#xd9;" horiz-adv-x="610" d="M306 -9 C496 -9 547 83 547 242 L547 741 L475 741 L475 247 C475 125 440 60 306 60 C172 60 138 126 138 247 L138 741 L63 741 L63 242 C63 82 117 -9 306 -9 L306 -9 Z M296 785 L362 785 L249 940 L165 940 L296 785 Z " />
<glyph glyph-name="Uacute" unicode="&#xda;" horiz-adv-x="610" d="M245 785 L311 785 L441 940 L359 940 L245 785 Z M306 -9 C496 -9 547 83 547 242 L547 741 L475 741 L475 247 C475 125 440 60 306 60 C172 60 138 126 138 247 L138 741 L63 741 L63 242 C63 82 117 -9 306 -9 L306 -9 Z " />
<glyph glyph-name="Ucircumflex" unicode="&#xdb;" horiz-adv-x="610" d="M156 785 L217 785 L303 888 L389 785 L452 785 L340 940 L269 940 L156 785 Z M306 -9 C496 -9 547 83 547 242 L547 741 L475 741 L475 247 C475 125 440 60 306 60 C172 60 138 126 138 247 L138 741 L63 741 L63 242 C63 82 117 -9 306 -9 L306 -9 Z " />
<glyph glyph-name="Udieresis" unicode="&#xdc;" horiz-adv-x="610" d="M186 785 L252 785 L252 880 L186 880 L186 785 Z M356 785 L423 785 L423 880 L356 880 L356 785 Z M306 -9 C496 -9 547 83 547 242 L547 741 L475 741 L475 247 C475 125 440 60 306 60 C172 60 138 126 138 247 L138 741 L63 741 L63 242 C63 82 117 -9 306 -9 L306 -9 Z " />
<glyph glyph-name="Yacute" unicode="&#xdd;" horiz-adv-x="550" d="M238 0 L312 0 L312 273 L540 741 L463 741 L276 356 L90 741 L9 741 L238 273 L238 0 Z M215 785 L281 785 L411 940 L329 940 L215 785 Z " />
<glyph glyph-name="Thorn" unicode="&#xde;" horiz-adv-x="540" d="M68 0 L142 0 L142 171 L305 171 C460 171 519 243 519 393 C519 545 459 613 307 613 L142 613 L142 741 L68 741 L68 0 Z M142 236 L142 546 L304 546 C402 546 445 506 445 391 C445 277 402 236 304 236 L142 236 Z " />
<glyph glyph-name="germandbls" unicode="&#xdf;" horiz-adv-x="518" d="M59 0 L131 0 L131 578 C131 663 168 704 255 704 C339 704 374 666 374 565 C374 465 340 427 260 427 L239 427 L239 364 L261 364 C377 364 411 318 411 216 C411 111 377 66 257 66 L203 66 L203 0 L257 0 C430 0 483 59 483 207 C483 322 458 383 368 403 C425 426 444 479 444 581 C444 718 389 773 255 773 C113 773 59 704 59 584 L59 0 Z " />
<glyph glyph-name="agrave" unicode="&#xe0;" horiz-adv-x="497" d="M196 -6 C266 -6 320 8 354 56 C362 14 380 -1 442 -1 C448 -1 455 -1 461 0 L461 65 C419 65 416 77 416 122 L416 364 C416 498 388 561 244 561 C172 561 113 545 72 524 L103 464 C135 480 182 494 238 494 C326 494 342 450 344 367 L320 367 C134 367 36 327 36 165 C36 55 81 -6 196 -6 L196 -6 Z M210 56 C145 56 106 81 106 171 C106 285 173 304 321 304 L344 304 L344 214 C344 88 279 56 210 56 L210 56 Z M240 610 L306 610 L193 765 L109 765 L240 610 Z " />
<glyph glyph-name="aacute" unicode="&#xe1;" horiz-adv-x="497" d="M196 -6 C266 -6 320 8 354 56 C362 14 380 -1 442 -1 C448 -1 455 -1 461 0 L461 65 C419 65 416 77 416 122 L416 364 C416 498 388 561 244 561 C172 561 113 545 72 524 L103 464 C135 480 182 494 238 494 C326 494 342 450 344 367 L320 367 C134 367 36 327 36 165 C36 55 81 -6 196 -6 L196 -6 Z M210 56 C145 56 106 81 106 171 C106 285 173 304 321 304 L344 304 L344 214 C344 88 279 56 210 56 L210 56 Z M189 610 L255 610 L385 765 L303 765 L189 610 Z " />
<glyph glyph-name="acircumflex" unicode="&#xe2;" horiz-adv-x="497" d="M196 -6 C266 -6 320 8 354 56 C362 14 380 -1 442 -1 C448 -1 455 -1 461 0 L461 65 C419 65 416 77 416 122 L416 364 C416 498 388 561 244 561 C172 561 113 545 72 524 L103 464 C135 480 182 494 238 494 C326 494 342 450 344 367 L320 367 C134 367 36 327 36 165 C36 55 81 -6 196 -6 L196 -6 Z M210 56 C145 56 106 81 106 171 C106 285 173 304 321 304 L344 304 L344 214 C344 88 279 56 210 56 L210 56 Z M100 610 L161 610 L247 713 L333 610 L396 610 L284 765 L213 765 L100 610 Z " />
<glyph glyph-name="atilde" unicode="&#xe3;" horiz-adv-x="497" d="M196 -6 C266 -6 320 8 354 56 C362 14 380 -1 442 -1 C448 -1 455 -1 461 0 L461 65 C419 65 416 77 416 122 L416 364 C416 498 388 561 244 561 C172 561 113 545 72 524 L103 464 C135 480 182 494 238 494 C326 494 342 450 344 367 L320 367 C134 367 36 327 36 165 C36 55 81 -6 196 -6 L196 -6 Z M210 56 C145 56 106 81 106 171 C106 285 173 304 321 304 L344 304 L344 214 C344 88 279 56 210 56 L210 56 Z M138 607 C154 633 169 648 192 648 C225 648 259 609 308 609 C352 609 383 637 406 685 L357 713 C340 686 326 667 302 667 C268 667 236 708 186 708 C144 708 112 682 89 634 L138 607 Z " />
<glyph glyph-name="adieresis" unicode="&#xe4;" horiz-adv-x="497" d="M196 -6 C266 -6 320 8 354 56 C362 14 380 -1 442 -1 C448 -1 455 -1 461 0 L461 65 C419 65 416 77 416 122 L416 364 C416 498 388 561 244 561 C172 561 113 545 72 524 L103 464 C135 480 182 494 238 494 C326 494 342 450 344 367 L320 367 C134 367 36 327 36 165 C36 55 81 -6 196 -6 L196 -6 Z M210 56 C145 56 106 81 106 171 C106 285 173 304 321 304 L344 304 L344 214 C344 88 279 56 210 56 L210 56 Z M130 610 L196 610 L196 705 L130 705 L130 610 Z M300 610 L367 610 L367 705 L300 705 L300 610 Z " />
<glyph glyph-name="aring" unicode="&#xe5;" horiz-adv-x="497" d="M196 -6 C266 -6 320 8 354 56 C362 14 380 -1 442 -1 C448 -1 455 -1 461 0 L461 65 C419 65 416 77 416 122 L416 364 C416 498 388 561 244 561 C172 561 113 545 72 524 L103 464 C135 480 182 494 238 494 C326 494 342 450 344 367 L320 367 C134 367 36 327 36 165 C36 55 81 -6 196 -6 L196 -6 Z M210 56 C145 56 106 81 106 171 C106 285 173 304 321 304 L344 304 L344 214 C344 88 279 56 210 56 L210 56 Z M248 604 C319 604 346 653 346 715 C346 778 319 827 248 827 C176 827 150 778 150 715 C150 653 176 604 248 604 L248 604 Z M248 646 C207 646 193 676 193 715 C193 755 207 785 248 785 C289 785 302 755 302 715 C302 676 289 646 248 646 L248 646 Z " />
<glyph glyph-name="ae" unicode="&#xe6;" horiz-adv-x="771" d="M551 -7 C632 -7 682 11 721 32 L692 89 C661 74 625 57 555 57 C439 57 416 127 414 246 L734 246 C735 419 741 560 551 560 C471 560 421 534 391 489 C372 537 330 561 244 561 C172 561 113 545 72 524 L103 464 C135 480 182 494 238 494 C327 494 343 450 344 366 L320 366 C134 366 36 327 36 165 C36 55 82 -6 191 -6 C281 -6 343 20 373 93 C399 31 451 -7 551 -7 L551 -7 Z M210 56 C145 56 106 81 106 171 C106 285 173 304 321 304 L344 304 L344 214 C344 88 279 56 210 56 L210 56 Z M550 495 C664 495 664 421 667 312 L414 312 C418 424 441 495 550 495 L550 495 Z " />
<glyph glyph-name="ccedilla" unicode="&#xe7;" horiz-adv-x="410" d="M222 -212 C305 -212 332 -180 332 -122 C332 -53 286 -41 234 -45 L240 -8 L245 -8 C304 -8 342 5 386 27 L357 84 C329 70 296 57 252 57 C135 57 112 138 112 275 C112 413 137 492 251 492 C287 492 316 485 346 470 L377 534 C342 551 300 560 248 560 C73 560 38 450 38 277 C38 122 66 17 194 -4 L183 -62 L204 -77 C259 -74 279 -81 279 -118 C279 -150 266 -167 218 -167 C193 -167 169 -161 146 -153 L128 -192 C156 -204 189 -212 222 -212 L222 -212 Z " />
<glyph glyph-name="egrave" unicode="&#xe8;" horiz-adv-x="465" d="M246 -7 C327 -7 377 11 416 32 L387 89 C356 74 320 57 249 57 C134 57 111 127 108 246 L429 246 C430 442 429 560 246 560 C74 560 38 446 38 277 C38 105 68 -7 246 -7 L246 -7 Z M245 495 C359 495 358 422 361 313 L108 313 C112 425 137 495 245 495 L245 495 Z M225 610 L291 610 L178 765 L94 765 L225 610 Z " />
<glyph glyph-name="eacute" unicode="&#xe9;" horiz-adv-x="465" d="M174 610 L240 610 L370 765 L288 765 L174 610 Z M246 -7 C327 -7 377 11 416 32 L387 89 C356 74 320 57 249 57 C134 57 111 127 108 246 L429 246 C430 442 429 560 246 560 C74 560 38 446 38 277 C38 105 68 -7 246 -7 L246 -7 Z M245 495 C359 495 358 422 361 313 L108 313 C112 425 137 495 245 495 L245 495 Z " />
<glyph glyph-name="ecircumflex" unicode="&#xea;" horiz-adv-x="465" d="M85 610 L146 610 L232 713 L318 610 L381 610 L269 765 L198 765 L85 610 Z M246 -7 C327 -7 377 11 416 32 L387 89 C356 74 320 57 249 57 C134 57 111 127 108 246 L429 246 C430 442 429 560 246 560 C74 560 38 446 38 277 C38 105 68 -7 246 -7 L246 -7 Z M245 495 C359 495 358 422 361 313 L108 313 C112 425 137 495 245 495 L245 495 Z " />
<glyph glyph-name="edieresis" unicode="&#xeb;" horiz-adv-x="465" d="M115 610 L181 610 L181 705 L115 705 L115 610 Z M285 610 L352 610 L352 705 L285 705 L285 610 Z M246 -7 C327 -7 377 11 416 32 L387 89 C356 74 320 57 249 57 C134 57 111 127 108 246 L429 246 C430 442 429 560 246 560 C74 560 38 446 38 277 C38 105 68 -7 246 -7 L246 -7 Z M245 495 C359 495 358 422 361 313 L108 313 C112 425 137 495 245 495 L245 495 Z " />
<glyph glyph-name="igrave" unicode="&#xec;" horiz-adv-x="198" d="M69 610 L133 610 L63 765 L-18 765 L69 610 Z M62 0 L135 0 L135 551 L62 551 L62 0 Z " />
<glyph glyph-name="iacute" unicode="&#xed;" horiz-adv-x="198" d="M64 610 L128 610 L215 765 L134 765 L64 610 Z M62 0 L135 0 L135 551 L62 551 L62 0 Z " />
<glyph glyph-name="icircumflex" unicode="&#xee;" horiz-adv-x="198" d="M-31 610 L30 610 L98 713 L166 610 L230 610 L135 765 L64 765 L-31 610 Z M62 0 L135 0 L135 551 L62 551 L62 0 Z " />
<glyph glyph-name="idieresis" unicode="&#xef;" horiz-adv-x="198" d="M-6 610 L55 610 L55 705 L-6 705 L-6 610 Z M143 610 L203 610 L203 705 L143 705 L143 610 Z M62 0 L135 0 L135 551 L62 551 L62 0 Z " />
<glyph glyph-name="eth" unicode="&#xf0;" horiz-adv-x="501" d="M222 594 L330 624 C353 582 368 538 378 494 C352 525 305 545 235 545 C67 545 38 418 38 270 C38 113 73 -8 250 -8 C440 -8 463 122 463 286 C463 444 443 557 398 644 L465 663 L465 723 L367 695 C346 725 320 752 291 776 L238 737 C261 718 280 697 297 675 L222 654 L222 594 Z M250 57 C125 57 111 155 111 269 C111 383 125 481 250 481 C376 481 389 383 389 269 C389 155 376 57 250 57 L250 57 Z " />
<glyph glyph-name="ntilde" unicode="&#xf1;" horiz-adv-x="504" d="M59 0 L132 0 L132 285 C132 422 150 491 267 491 C366 491 376 440 376 343 L376 0 L448 0 L448 358 C448 479 433 560 290 560 C187 560 146 532 124 493 L117 551 L59 547 L59 0 Z M141 607 C157 633 172 648 195 648 C228 648 262 609 311 609 C355 609 386 637 409 685 L360 713 C343 686 329 667 305 667 C271 667 239 708 189 708 C147 708 115 682 92 634 L141 607 Z " />
<glyph glyph-name="ograve" unicode="&#xf2;" horiz-adv-x="500" d="M250 -8 C434 -8 463 115 463 277 C463 434 434 560 250 560 C67 560 38 436 38 277 C38 116 69 -8 250 -8 L250 -8 Z M250 57 C125 57 111 154 111 274 C111 396 125 492 250 492 C376 492 389 396 389 274 C389 154 376 57 250 57 L250 57 Z M241 610 L307 610 L194 765 L110 765 L241 610 Z " />
<glyph glyph-name="oacute" unicode="&#xf3;" horiz-adv-x="500" d="M190 610 L256 610 L386 765 L304 765 L190 610 Z M250 -8 C434 -8 463 115 463 277 C463 434 434 560 250 560 C67 560 38 436 38 277 C38 116 69 -8 250 -8 L250 -8 Z M250 57 C125 57 111 154 111 274 C111 396 125 492 250 492 C376 492 389 396 389 274 C389 154 376 57 250 57 L250 57 Z " />
<glyph glyph-name="ocircumflex" unicode="&#xf4;" horiz-adv-x="500" d="M101 610 L162 610 L248 713 L334 610 L397 610 L285 765 L214 765 L101 610 Z M250 -8 C434 -8 463 115 463 277 C463 434 434 560 250 560 C67 560 38 436 38 277 C38 116 69 -8 250 -8 L250 -8 Z M250 57 C125 57 111 154 111 274 C111 396 125 492 250 492 C376 492 389 396 389 274 C389 154 376 57 250 57 L250 57 Z " />
<glyph glyph-name="otilde" unicode="&#xf5;" horiz-adv-x="500" d="M250 -8 C434 -8 463 115 463 277 C463 434 434 560 250 560 C67 560 38 436 38 277 C38 116 69 -8 250 -8 L250 -8 Z M250 57 C125 57 111 154 111 274 C111 396 125 492 250 492 C376 492 389 396 389 274 C389 154 376 57 250 57 L250 57 Z M139 607 C155 633 170 648 193 648 C226 648 260 609 309 609 C353 609 384 637 407 685 L358 713 C341 686 327 667 303 667 C269 667 237 708 187 708 C145 708 113 682 90 634 L139 607 Z " />
<glyph glyph-name="odieresis" unicode="&#xf6;" horiz-adv-x="500" d="M131 610 L197 610 L197 705 L131 705 L131 610 Z M301 610 L368 610 L368 705 L301 705 L301 610 Z M250 -8 C434 -8 463 115 463 277 C463 434 434 560 250 560 C67 560 38 436 38 277 C38 116 69 -8 250 -8 L250 -8 Z M250 57 C125 57 111 154 111 274 C111 396 125 492 250 492 C376 492 389 396 389 274 C389 154 376 57 250 57 L250 57 Z " />
<glyph glyph-name="divide" unicode="&#xf7;" horiz-adv-x="551" d="M235 136 L317 136 L317 222 L235 222 L235 136 Z M83 319 L468 319 L468 386 L83 386 L83 319 Z M235 481 L317 481 L317 567 L235 567 L235 481 Z " />
<glyph glyph-name="oslash" unicode="&#xf8;" horiz-adv-x="500" d="M70 -43 L135 -43 L159 6 C184 -3 214 -8 250 -8 C434 -8 463 115 463 277 C463 377 451 465 394 515 L432 593 L366 593 L343 545 C317 555 287 560 250 560 C67 560 38 436 38 277 C38 173 51 85 108 35 L70 -43 Z M109 274 C109 397 124 494 250 494 C276 494 298 490 315 482 L143 101 C114 140 109 203 109 274 L109 274 Z M250 56 C224 56 203 60 185 67 L358 447 C386 407 391 345 391 274 C391 153 377 56 250 56 L250 56 Z " />
<glyph glyph-name="ugrave" unicode="&#xf9;" horiz-adv-x="492" d="M247 -8 C408 -8 436 61 436 196 L436 551 L365 551 L365 200 C365 107 353 58 248 58 C141 58 129 107 129 200 L129 551 L56 551 L56 196 C56 61 88 -8 247 -8 L247 -8 Z M237 610 L303 610 L190 765 L106 765 L237 610 Z " />
<glyph glyph-name="uacute" unicode="&#xfa;" horiz-adv-x="492" d="M186 610 L252 610 L382 765 L300 765 L186 610 Z M247 -8 C408 -8 436 61 436 196 L436 551 L365 551 L365 200 C365 107 353 58 248 58 C141 58 129 107 129 200 L129 551 L56 551 L56 196 C56 61 88 -8 247 -8 L247 -8 Z " />
<glyph glyph-name="ucircumflex" unicode="&#xfb;" horiz-adv-x="492" d="M97 610 L158 610 L244 713 L330 610 L393 610 L281 765 L210 765 L97 610 Z M247 -8 C408 -8 436 61 436 196 L436 551 L365 551 L365 200 C365 107 353 58 248 58 C141 58 129 107 129 200 L129 551 L56 551 L56 196 C56 61 88 -8 247 -8 L247 -8 Z " />
<glyph glyph-name="udieresis" unicode="&#xfc;" horiz-adv-x="492" d="M127 610 L193 610 L193 705 L127 705 L127 610 Z M297 610 L364 610 L364 705 L297 705 L297 610 Z M247 -8 C408 -8 436 61 436 196 L436 551 L365 551 L365 200 C365 107 353 58 248 58 C141 58 129 107 129 200 L129 551 L56 551 L56 196 C56 61 88 -8 247 -8 L247 -8 Z " />
<glyph glyph-name="yacute" unicode="&#xfd;" horiz-adv-x="429" d="M64 -158 L108 -158 C175 -158 208 -141 229 -72 L418 551 L347 551 L216 104 L84 551 L11 551 L178 -2 L163 -57 C154 -86 141 -97 110 -97 L64 -97 L64 -158 Z M156 610 L222 610 L352 765 L270 765 L156 610 Z " />
<glyph glyph-name="thorn" unicode="&#xfe;" horiz-adv-x="514" d="M59 -158 L132 -158 L132 56 C156 17 195 -7 292 -7 C455 -7 476 125 476 277 C476 427 457 560 294 560 C193 560 152 533 132 494 L132 769 L59 769 L59 -158 Z M274 58 C142 58 132 151 132 274 C132 396 142 492 274 492 C388 492 403 397 403 274 C403 150 387 58 274 58 L274 58 Z " />
<glyph glyph-name="ydieresis" unicode="&#xff;" horiz-adv-x="429" d="M64 -158 L108 -158 C175 -158 208 -141 229 -72 L418 551 L347 551 L216 104 L84 551 L11 551 L178 -2 L163 -57 C154 -86 141 -97 110 -97 L64 -97 L64 -158 Z M97 610 L163 610 L163 705 L97 705 L97 610 Z M267 610 L334 610 L334 705 L267 705 L267 610 Z " />
<glyph glyph-name="dotlessi" unicode="&#x131;" horiz-adv-x="198" d="M62 0 L135 0 L135 551 L62 551 L62 0 Z " />
<glyph glyph-name="Lslash" unicode="&#x141;" horiz-adv-x="470" d="M1 313 L68 349 L68 0 L451 0 L451 68 L143 68 L143 389 L271 459 L271 521 L143 452 L143 741 L68 741 L68 412 L1 376 L1 313 Z " />
<glyph glyph-name="lslash" unicode="&#x142;" horiz-adv-x="300" d="M20 408 L102 455 L102 119 C102 32 124 -1 219 -1 C233 -1 239 -1 243 0 L243 65 C177 65 175 81 175 127 L175 497 L266 549 L266 614 L175 561 L175 769 L102 769 L102 519 L20 472 L20 408 Z " />
<glyph glyph-name="OE" unicode="&#x152;" horiz-adv-x="941" d="M511 0 L895 0 L895 68 L577 68 L577 350 L875 350 L875 418 L577 418 L577 672 L893 672 L893 741 L511 741 L511 664 C473 716 410 749 308 749 C63 749 35 577 35 370 C35 163 63 -8 308 -8 C410 -8 473 24 511 76 L511 0 Z M308 60 C128 60 111 193 111 368 C111 543 128 677 308 677 C485 677 504 543 504 368 C504 193 486 60 308 60 L308 60 Z " />
<glyph glyph-name="oe" unicode="&#x153;" horiz-adv-x="818" d="M250 -8 C345 -8 397 26 425 81 C453 26 505 -7 599 -7 C680 -7 730 11 769 32 L740 89 C708 74 672 57 601 57 C487 57 464 127 461 246 L781 246 C782 417 789 560 599 560 C507 560 455 525 426 468 C398 524 346 560 250 560 C67 560 38 436 38 277 C38 116 69 -8 250 -8 L250 -8 Z M250 57 C125 57 111 154 111 274 C111 396 125 492 250 492 C376 492 389 396 389 274 C389 154 376 57 250 57 L250 57 Z M598 495 C711 495 711 421 714 312 L461 312 C465 424 489 495 598 495 L598 495 Z " />
<glyph glyph-name="Scaron" unicode="&#x160;" horiz-adv-x="523" d="M226 785 L297 785 L409 940 L347 940 L262 837 L177 940 L113 940 L226 785 Z M262 -8 C409 -8 486 65 486 184 C486 313 421 351 279 417 C167 470 135 492 135 566 C135 632 177 678 272 678 C338 678 386 665 425 646 L457 711 C408 734 351 749 271 749 C131 749 61 676 61 564 C61 450 127 407 245 354 C363 300 412 275 412 183 C412 104 361 58 261 58 C170 58 107 88 72 108 L34 50 C80 22 153 -8 262 -8 L262 -8 Z " />
<glyph glyph-name="scaron" unicode="&#x161;" horiz-adv-x="387" d="M160 610 L231 610 L343 765 L281 765 L196 662 L111 765 L47 765 L160 610 Z M189 -7 C296 -7 361 40 361 139 C361 236 307 270 217 312 C139 349 105 370 105 419 C105 467 130 496 197 496 C247 496 283 485 312 473 L340 534 C304 550 265 560 199 560 C93 560 35 513 35 418 C35 332 88 299 176 257 C255 219 292 197 292 139 C292 81 254 54 189 54 C131 54 83 69 48 87 L19 28 C63 6 120 -7 189 -7 L189 -7 Z " />
<glyph glyph-name="Ydieresis" unicode="&#x178;" horiz-adv-x="550" d="M238 0 L312 0 L312 273 L540 741 L463 741 L276 356 L90 741 L9 741 L238 273 L238 0 Z M156 785 L222 785 L222 880 L156 880 L156 785 Z M326 785 L393 785 L393 880 L326 880 L326 785 Z " />
<glyph glyph-name="Zcaron" unicode="&#x17d;" horiz-adv-x="520" d="M224 785 L295 785 L407 940 L345 940 L260 837 L175 940 L111 940 L224 785 Z M34 0 L483 0 L483 68 L123 68 L474 678 L474 741 L48 741 L48 672 L385 672 L34 60 L34 0 Z " />
<glyph glyph-name="zcaron" unicode="&#x17e;" horiz-adv-x="396" d="M164 610 L235 610 L347 765 L285 765 L200 662 L115 765 L51 765 L164 610 Z M23 0 L373 0 L373 61 L111 61 L365 499 L365 551 L38 551 L38 487 L276 487 L23 53 L23 0 Z " />
<glyph glyph-name="florin" unicode="&#x192;" horiz-adv-x="426" d="M65 385 L149 385 L68 -158 L141 -158 L223 385 L369 385 L369 450 L233 450 L254 588 C262 638 268 676 331 676 L369 676 L369 740 C363 740 336 741 325 741 C214 741 195 682 181 595 L159 450 L65 450 L65 385 Z " />
<glyph glyph-name="circumflex" unicode="&#x2c6;" horiz-adv-x="465" d="M85 610 L146 610 L232 713 L318 610 L381 610 L269 765 L198 765 L85 610 Z " />
<glyph glyph-name="caron" unicode="&#x2c7;" horiz-adv-x="465" d="M198 610 L269 610 L381 765 L319 765 L234 662 L149 765 L85 765 L198 610 Z " />
<glyph glyph-name="breve" unicode="&#x2d8;" horiz-adv-x="465" d="M233 606 C340 606 370 660 382 736 L326 744 C318 697 299 663 233 663 C166 663 147 697 139 744 L83 735 C94 660 125 606 233 606 L233 606 Z " />
<glyph glyph-name="dotaccent" unicode="&#x2d9;" horiz-adv-x="465" d="M196 610 L270 610 L270 713 L196 713 L196 610 Z " />
<glyph glyph-name="ring" unicode="&#x2da;" horiz-adv-x="465" d="M233 604 C304 604 331 653 331 715 C331 778 304 827 233 827 C161 827 135 778 135 715 C135 653 161 604 233 604 L233 604 Z M233 646 C192 646 178 676 178 715 C178 755 192 785 233 785 C274 785 287 755 287 715 C287 676 274 646 233 646 L233 646 Z " />
<glyph glyph-name="ogonek" unicode="&#x2db;" horiz-adv-x="467" d="M244 -210 L285 -210 L285 -158 L252 -158 C209 -158 197 -142 197 -113 C197 -70 232 -28 287 14 L224 14 C189 -8 133 -55 133 -123 C133 -186 170 -210 244 -210 L244 -210 Z " />
<glyph glyph-name="tilde" unicode="&#x2dc;" horiz-adv-x="465" d="M123 607 C139 633 154 648 177 648 C210 648 244 609 293 609 C337 609 368 637 391 685 L342 713 C325 686 311 667 287 667 C253 667 221 708 171 708 C129 708 97 682 74 634 L123 607 Z " />
<glyph glyph-name="hungarumlaut" unicode="&#x2dd;" horiz-adv-x="465" d="M99 610 L159 610 L289 765 L210 765 L99 610 Z M275 610 L335 610 L464 765 L387 765 L275 610 Z " />
<glyph glyph-name="&amp;#x394;" unicode="&#x394;" horiz-adv-x="500" d="M21 487 L105 487 L105 0 L178 0 L178 487 L294 487 L294 551 L178 551 L178 618 C178 670 190 706 255 706 L294 706 L294 771 L249 771 C142 771 105 712 105 624 L105 551 L21 551 L21 487 Z M306 -158 L317 -158 C415 -158 438 -122 438 -33 L438 551 L365 551 L365 -31 C365 -78 358 -97 313 -97 L306 -97 L306 -158 Z M365 625 L438 625 L438 728 L365 728 L365 625 Z " />
<glyph glyph-name="&amp;#x2206;" unicode="&#x2206;" horiz-adv-x="500" d="M21 487 L105 487 L105 0 L178 0 L178 487 L294 487 L294 551 L178 551 L178 618 C178 670 190 706 255 706 L294 706 L294 771 L249 771 C142 771 105 712 105 624 L105 551 L21 551 L21 487 Z M306 -158 L317 -158 C415 -158 438 -122 438 -33 L438 551 L365 551 L365 -31 C365 -78 358 -97 313 -97 L306 -97 L306 -158 Z M365 625 L438 625 L438 728 L365 728 L365 625 Z " />
<glyph glyph-name="&amp;#x3a9;" unicode="&#x3a9;" horiz-adv-x="832" d="M126 120 C126 120 129 123 134 127 C79 193 46 278 46 371 C46 464 79 549 133 615 C129 619 126 621 126 621 C70 554 36 466 36 371 C36 275 70 187 126 120 L126 120 Z M228 211 C230 213 233 215 235 218 C201 259 181 313 181 371 C181 429 202 483 235 524 C232 526 230 529 227 531 C192 487 171 432 171 371 C171 310 193 254 228 211 L228 211 Z M264 243 C267 245 269 248 272 250 C245 283 229 325 229 371 C229 417 245 459 272 492 C269 494 267 497 264 499 C236 464 219 419 219 371 C219 322 236 278 264 243 L264 243 Z M316 289 C319 291 321 294 324 296 C308 317 298 343 298 371 C298 399 308 425 323 445 C321 448 318 450 316 452 C298 430 288 402 288 371 C288 340 298 312 316 289 L316 289 Z M349 320 C352 323 354 325 357 327 C348 340 343 355 343 371 C343 387 348 402 357 415 C354 417 352 420 349 422 C339 408 333 390 333 371 C333 352 339 334 349 320 L349 320 Z M378 346 C382 349 384 351 384 351 C381 357 379 364 379 371 C379 378 381 385 384 391 C384 391 382 393 378 396 C374 389 371 380 371 371 C371 362 374 353 378 346 L378 346 Z M416 60 C493 60 563 89 616 136 C614 139 611 141 609 144 C558 98 490 70 416 70 C342 70 274 98 222 144 C222 145 215 137 215 137 C268 89 338 60 416 60 L416 60 Z M416 324 C426 324 435 327 442 333 C439 337 437 339 437 339 C431 334 424 332 416 332 C408 332 401 335 395 339 C395 339 391 334 389 333 C397 327 406 324 416 324 L416 324 Z M482 319 C493 334 499 352 499 371 C499 390 493 408 482 422 C483 422 475 415 475 415 C484 403 489 388 489 371 C489 355 484 339 475 326 C478 324 480 322 482 319 L482 319 Z M292 269 C295 271 298 274 300 276 C280 302 267 335 267 371 C267 407 280 440 300 466 L293 473 C270 445 257 410 257 371 C257 333 270 297 292 269 L292 269 Z M416 -17 C512 -17 600 19 667 80 C667 80 660 88 660 87 C595 29 510 -7 416 -7 C322 -7 236 29 171 88 L164 80 C231 20 320 -17 416 -17 L416 -17 Z M416 121 C478 121 534 144 576 182 C574 185 571 187 569 190 C529 153 475 131 416 131 C357 131 303 153 262 190 L255 182 C298 144 354 121 416 121 L416 121 Z M416 170 C465 170 510 188 544 218 C542 221 539 223 537 226 C505 197 462 180 416 180 C369 180 327 197 294 226 L287 219 C322 189 367 170 416 170 L416 170 Z M416 209 C455 209 491 224 518 247 C516 250 514 253 512 255 C486 233 452 219 416 219 C380 219 346 233 320 255 L313 247 C341 224 377 209 416 209 L416 209 Z M416 265 C441 265 463 274 481 289 C479 292 476 294 474 297 C458 283 438 275 416 275 C394 275 373 283 357 297 L350 289 C368 274 391 265 416 265 L416 265 Z M358 445 C374 459 394 467 416 467 C438 467 458 459 474 445 L482 453 C464 468 441 477 416 477 C391 477 368 468 350 453 C351 452 354 448 358 445 L358 445 Z M570 552 C572 554 575 557 577 560 C534 598 478 621 416 621 C355 621 299 598 256 560 L263 553 C304 589 357 611 416 611 C475 611 529 589 570 552 L570 552 Z M454 346 C458 353 461 362 461 371 C461 380 458 389 454 396 L448 391 C451 385 453 378 453 371 C453 364 451 357 448 351 C448 351 450 349 454 346 L454 346 Z M468 333 C476 344 480 357 480 371 C480 385 476 398 468 409 L460 402 C466 393 470 382 470 371 C470 360 466 349 460 340 C463 338 465 336 468 333 L468 333 Z M498 306 C511 325 519 347 519 371 C519 395 511 418 497 436 L490 429 C502 413 509 393 509 371 C509 349 502 329 490 313 C492 311 495 308 498 306 L498 306 Z M540 269 C562 297 575 332 575 371 C575 410 562 445 539 473 L531 466 C552 440 565 407 565 371 C565 335 552 302 532 276 C535 274 537 271 540 269 L540 269 Z M568 243 C596 278 613 322 613 371 C613 420 596 464 568 499 L560 492 C587 459 603 417 603 371 C603 325 587 283 560 250 C563 248 566 245 568 243 L568 243 Z M604 211 C640 254 661 310 661 371 C661 432 640 488 604 531 L596 524 C631 483 651 429 651 371 C651 313 631 260 596 218 C601 213 604 211 604 211 L604 211 Z M649 171 C694 225 721 295 721 371 C721 447 694 517 649 571 L641 564 C685 512 711 445 711 371 C711 297 685 230 642 177 C644 175 647 173 649 171 L649 171 Z M706 120 C762 188 796 276 796 371 C796 467 762 555 706 622 L698 615 C753 549 786 464 786 371 C786 278 753 193 698 127 C703 123 706 120 706 120 L706 120 Z M183 170 L190 177 C147 229 121 297 121 371 C121 444 147 512 190 564 C187 567 184 569 182 571 C138 517 111 447 111 371 C111 294 138 225 183 170 L183 170 Z M334 306 L342 314 C330 330 323 350 323 371 C323 393 330 413 342 429 C340 431 337 434 334 436 C321 418 313 395 313 371 C313 346 321 324 334 306 L334 306 Z M364 333 L371 340 C366 349 362 360 362 371 C362 382 366 393 371 402 C369 404 366 406 364 409 C356 398 352 385 352 371 C352 357 356 344 364 333 L364 333 Z M395 403 C401 408 408 410 416 410 C424 410 431 407 437 403 C437 403 439 406 442 409 C435 415 426 418 416 418 C406 418 397 415 390 409 L395 403 Z M384 416 C393 423 404 428 416 428 C428 428 439 424 448 416 C450 419 452 421 454 423 C443 432 430 437 416 437 C401 437 388 432 377 423 L384 416 Z M371 430 C383 441 399 447 416 447 C433 447 449 441 461 430 C461 430 464 434 468 438 C454 450 436 457 416 457 C397 457 378 450 364 438 L371 430 Z M295 516 C327 545 370 562 416 562 C462 562 505 545 538 516 C538 516 545 523 544 523 C510 554 465 572 416 572 C367 572 322 554 288 524 L295 516 Z M416 240 C448 240 476 252 498 271 L491 278 C471 261 445 250 416 250 C388 250 361 261 340 278 L333 270 C355 251 384 240 416 240 L416 240 Z M416 285 C436 285 454 292 468 304 L461 312 C448 301 433 295 416 295 C399 295 383 302 370 312 L363 304 C378 292 396 285 416 285 L416 285 Z M416 305 C430 305 444 310 455 319 L448 326 C439 319 428 314 416 314 C404 314 393 319 383 326 L376 319 C388 310 401 305 416 305 L416 305 Z M341 464 C362 482 388 492 416 492 C445 492 471 481 491 464 L498 472 C476 491 447 502 416 502 C385 502 356 490 334 471 L341 464 Z M320 487 C346 509 380 523 416 523 C453 523 486 510 512 487 L518 494 C491 518 455 533 416 533 C377 533 341 519 313 495 L320 487 Z M610 597 L617 605 C563 653 493 682 416 682 C339 682 269 653 215 605 L222 598 C274 644 342 672 416 672 C491 672 559 644 610 597 L610 597 Z M172 654 C237 713 322 749 416 749 C510 749 596 713 661 654 L668 662 C601 722 512 759 416 759 C320 759 232 723 165 662 L172 654 Z M516 290 C534 312 544 340 544 371 C544 402 534 430 516 453 L508 446 C524 425 534 399 534 371 C534 343 524 317 509 297 L516 290 Z " />
<glyph glyph-name="&amp;#x2126;" unicode="&#x2126;" horiz-adv-x="832" d="M126 120 C126 120 129 123 134 127 C79 193 46 278 46 371 C46 464 79 549 133 615 C129 619 126 621 126 621 C70 554 36 466 36 371 C36 275 70 187 126 120 L126 120 Z M228 211 C230 213 233 215 235 218 C201 259 181 313 181 371 C181 429 202 483 235 524 C232 526 230 529 227 531 C192 487 171 432 171 371 C171 310 193 254 228 211 L228 211 Z M264 243 C267 245 269 248 272 250 C245 283 229 325 229 371 C229 417 245 459 272 492 C269 494 267 497 264 499 C236 464 219 419 219 371 C219 322 236 278 264 243 L264 243 Z M316 289 C319 291 321 294 324 296 C308 317 298 343 298 371 C298 399 308 425 323 445 C321 448 318 450 316 452 C298 430 288 402 288 371 C288 340 298 312 316 289 L316 289 Z M349 320 C352 323 354 325 357 327 C348 340 343 355 343 371 C343 387 348 402 357 415 C354 417 352 420 349 422 C339 408 333 390 333 371 C333 352 339 334 349 320 L349 320 Z M378 346 C382 349 384 351 384 351 C381 357 379 364 379 371 C379 378 381 385 384 391 C384 391 382 393 378 396 C374 389 371 380 371 371 C371 362 374 353 378 346 L378 346 Z M416 60 C493 60 563 89 616 136 C614 139 611 141 609 144 C558 98 490 70 416 70 C342 70 274 98 222 144 C222 145 215 137 215 137 C268 89 338 60 416 60 L416 60 Z M416 324 C426 324 435 327 442 333 C439 337 437 339 437 339 C431 334 424 332 416 332 C408 332 401 335 395 339 C395 339 391 334 389 333 C397 327 406 324 416 324 L416 324 Z M482 319 C493 334 499 352 499 371 C499 390 493 408 482 422 C483 422 475 415 475 415 C484 403 489 388 489 371 C489 355 484 339 475 326 C478 324 480 322 482 319 L482 319 Z M292 269 C295 271 298 274 300 276 C280 302 267 335 267 371 C267 407 280 440 300 466 L293 473 C270 445 257 410 257 371 C257 333 270 297 292 269 L292 269 Z M416 -17 C512 -17 600 19 667 80 C667 80 660 88 660 87 C595 29 510 -7 416 -7 C322 -7 236 29 171 88 L164 80 C231 20 320 -17 416 -17 L416 -17 Z M416 121 C478 121 534 144 576 182 C574 185 571 187 569 190 C529 153 475 131 416 131 C357 131 303 153 262 190 L255 182 C298 144 354 121 416 121 L416 121 Z M416 170 C465 170 510 188 544 218 C542 221 539 223 537 226 C505 197 462 180 416 180 C369 180 327 197 294 226 L287 219 C322 189 367 170 416 170 L416 170 Z M416 209 C455 209 491 224 518 247 C516 250 514 253 512 255 C486 233 452 219 416 219 C380 219 346 233 320 255 L313 247 C341 224 377 209 416 209 L416 209 Z M416 265 C441 265 463 274 481 289 C479 292 476 294 474 297 C458 283 438 275 416 275 C394 275 373 283 357 297 L350 289 C368 274 391 265 416 265 L416 265 Z M358 445 C374 459 394 467 416 467 C438 467 458 459 474 445 L482 453 C464 468 441 477 416 477 C391 477 368 468 350 453 C351 452 354 448 358 445 L358 445 Z M570 552 C572 554 575 557 577 560 C534 598 478 621 416 621 C355 621 299 598 256 560 L263 553 C304 589 357 611 416 611 C475 611 529 589 570 552 L570 552 Z M454 346 C458 353 461 362 461 371 C461 380 458 389 454 396 L448 391 C451 385 453 378 453 371 C453 364 451 357 448 351 C448 351 450 349 454 346 L454 346 Z M468 333 C476 344 480 357 480 371 C480 385 476 398 468 409 L460 402 C466 393 470 382 470 371 C470 360 466 349 460 340 C463 338 465 336 468 333 L468 333 Z M498 306 C511 325 519 347 519 371 C519 395 511 418 497 436 L490 429 C502 413 509 393 509 371 C509 349 502 329 490 313 C492 311 495 308 498 306 L498 306 Z M540 269 C562 297 575 332 575 371 C575 410 562 445 539 473 L531 466 C552 440 565 407 565 371 C565 335 552 302 532 276 C535 274 537 271 540 269 L540 269 Z M568 243 C596 278 613 322 613 371 C613 420 596 464 568 499 L560 492 C587 459 603 417 603 371 C603 325 587 283 560 250 C563 248 566 245 568 243 L568 243 Z M604 211 C640 254 661 310 661 371 C661 432 640 488 604 531 L596 524 C631 483 651 429 651 371 C651 313 631 260 596 218 C601 213 604 211 604 211 L604 211 Z M649 171 C694 225 721 295 721 371 C721 447 694 517 649 571 L641 564 C685 512 711 445 711 371 C711 297 685 230 642 177 C644 175 647 173 649 171 L649 171 Z M706 120 C762 188 796 276 796 371 C796 467 762 555 706 622 L698 615 C753 549 786 464 786 371 C786 278 753 193 698 127 C703 123 706 120 706 120 L706 120 Z M183 170 L190 177 C147 229 121 297 121 371 C121 444 147 512 190 564 C187 567 184 569 182 571 C138 517 111 447 111 371 C111 294 138 225 183 170 L183 170 Z M334 306 L342 314 C330 330 323 350 323 371 C323 393 330 413 342 429 C340 431 337 434 334 436 C321 418 313 395 313 371 C313 346 321 324 334 306 L334 306 Z M364 333 L371 340 C366 349 362 360 362 371 C362 382 366 393 371 402 C369 404 366 406 364 409 C356 398 352 385 352 371 C352 357 356 344 364 333 L364 333 Z M395 403 C401 408 408 410 416 410 C424 410 431 407 437 403 C437 403 439 406 442 409 C435 415 426 418 416 418 C406 418 397 415 390 409 L395 403 Z M384 416 C393 423 404 428 416 428 C428 428 439 424 448 416 C450 419 452 421 454 423 C443 432 430 437 416 437 C401 437 388 432 377 423 L384 416 Z M371 430 C383 441 399 447 416 447 C433 447 449 441 461 430 C461 430 464 434 468 438 C454 450 436 457 416 457 C397 457 378 450 364 438 L371 430 Z M295 516 C327 545 370 562 416 562 C462 562 505 545 538 516 C538 516 545 523 544 523 C510 554 465 572 416 572 C367 572 322 554 288 524 L295 516 Z M416 240 C448 240 476 252 498 271 L491 278 C471 261 445 250 416 250 C388 250 361 261 340 278 L333 270 C355 251 384 240 416 240 L416 240 Z M416 285 C436 285 454 292 468 304 L461 312 C448 301 433 295 416 295 C399 295 383 302 370 312 L363 304 C378 292 396 285 416 285 L416 285 Z M416 305 C430 305 444 310 455 319 L448 326 C439 319 428 314 416 314 C404 314 393 319 383 326 L376 319 C388 310 401 305 416 305 L416 305 Z M341 464 C362 482 388 492 416 492 C445 492 471 481 491 464 L498 472 C476 491 447 502 416 502 C385 502 356 490 334 471 L341 464 Z M320 487 C346 509 380 523 416 523 C453 523 486 510 512 487 L518 494 C491 518 455 533 416 533 C377 533 341 519 313 495 L320 487 Z M610 597 L617 605 C563 653 493 682 416 682 C339 682 269 653 215 605 L222 598 C274 644 342 672 416 672 C491 672 559 644 610 597 L610 597 Z M172 654 C237 713 322 749 416 749 C510 749 596 713 661 654 L668 662 C601 722 512 759 416 759 C320 759 232 723 165 662 L172 654 Z M516 290 C534 312 544 340 544 371 C544 402 534 430 516 453 L508 446 C524 425 534 399 534 371 C534 343 524 317 509 297 L516 290 Z " />
<glyph glyph-name="pi" unicode="&#x3c0;" horiz-adv-x="667" d="M333 -10 C560 -10 624 145 624 370 C624 596 560 752 333 752 C105 752 43 596 43 370 C43 145 105 -10 333 -10 L333 -10 Z M333 25 C134 25 80 166 80 370 C80 576 134 717 333 717 C533 717 587 576 587 370 C587 166 533 25 333 25 L333 25 Z M202 114 L253 114 L253 321 L364 321 C471 321 509 367 509 471 C509 576 471 620 364 620 L202 620 L202 114 Z M253 364 L253 575 L363 575 C431 575 458 548 458 469 C458 392 431 364 363 364 L253 364 Z " />
<glyph glyph-name="endash" unicode="&#x2013;" horiz-adv-x="555" d="M40 275 L516 275 L516 342 L40 342 L40 275 Z " />
<glyph glyph-name="emdash" unicode="&#x2014;" horiz-adv-x="729" d="M40 275 L690 275 L690 342 L40 342 L40 275 Z " />
<glyph glyph-name="quoteleft" unicode="&#x2018;" horiz-adv-x="200" d="M54 520 L146 520 L146 633 L103 633 C103 668 112 682 150 704 L128 743 C69 714 54 688 54 623 L54 520 Z " />
<glyph glyph-name="quoteright" unicode="&#x2019;" horiz-adv-x="200" d="M72 518 C131 548 146 574 146 639 L146 741 L54 741 L54 629 L97 629 C97 593 88 579 50 557 L72 518 Z " />
<glyph glyph-name="quotesinglbase" unicode="&#x201a;" horiz-adv-x="200" d="M72 -111 C131 -82 146 -56 146 10 L146 112 L54 112 L54 0 L97 0 C97 -36 88 -50 50 -71 L72 -111 Z " />
<glyph glyph-name="quotedblleft" unicode="&#x201c;" horiz-adv-x="352" d="M54 524 L144 524 L144 634 L101 634 C101 670 111 684 148 706 L127 743 C69 714 54 690 54 626 L54 524 Z M208 524 L297 524 L297 634 L255 634 C255 670 264 684 302 706 L280 743 C222 714 208 690 208 626 L208 524 Z " />
<glyph glyph-name="quotedblright" unicode="&#x201d;" horiz-adv-x="351" d="M71 522 C130 550 144 574 144 639 L144 741 L54 741 L54 630 L97 630 C97 595 88 581 50 560 L71 522 Z M225 522 C283 550 297 574 297 639 L297 741 L207 741 L207 630 L250 630 C250 595 241 581 204 560 L225 522 Z " />
<glyph glyph-name="quotedblbase" unicode="&#x201e;" horiz-adv-x="351" d="M71 -108 C130 -79 144 -55 144 10 L144 112 L54 112 L54 1 L97 1 C97 -34 88 -48 50 -70 L71 -108 Z M225 -108 C283 -79 297 -55 297 10 L297 112 L207 112 L207 1 L250 1 C250 -34 241 -48 204 -70 L225 -108 Z " />
<glyph glyph-name="dagger" unicode="&#x2020;" horiz-adv-x="438" d="M183 -158 L255 -158 L255 476 L393 476 L393 544 L255 544 L255 769 L183 769 L183 544 L45 544 L45 476 L183 476 L183 -158 Z " />
<glyph glyph-name="daggerdbl" unicode="&#x2021;" horiz-adv-x="438" d="M183 -158 L255 -158 L255 81 L393 81 L393 149 L255 149 L255 479 L393 479 L393 547 L255 547 L255 769 L183 769 L183 547 L45 547 L45 479 L183 479 L183 149 L45 149 L45 81 L183 81 L183 -158 Z " />
<glyph glyph-name="bullet" unicode="&#x2022;" horiz-adv-x="282" d="M79 226 L203 226 L203 382 L79 382 L79 226 Z " />
<glyph glyph-name="ellipsis" unicode="&#x2026;" horiz-adv-x="569" d="M54 0 L146 0 L146 107 L54 107 L54 0 Z M239 0 L330 0 L330 107 L239 107 L239 0 Z M424 0 L515 0 L515 107 L424 107 L424 0 Z " />
<glyph glyph-name="perthousand" unicode="&#x2030;" horiz-adv-x="1244" d="M193 283 C301 283 353 344 353 515 C353 688 301 748 193 748 C87 748 35 688 35 515 C35 344 87 283 193 283 L193 283 Z M194 340 C128 340 101 384 101 514 C101 644 128 688 194 688 C260 688 287 644 287 514 C287 384 260 340 194 340 L194 340 Z M694 -7 C801 -7 853 54 853 226 C853 398 801 459 694 459 C586 459 535 398 535 226 C535 54 586 -7 694 -7 L694 -7 Z M694 51 C628 51 601 95 601 224 C601 354 628 399 694 399 C759 399 787 354 787 224 C787 95 759 51 694 51 L694 51 Z M250 0 L318 0 L639 741 L570 741 L250 0 Z M1050 -7 C1157 -7 1209 54 1209 226 C1209 398 1157 459 1050 459 C943 459 891 398 891 226 C891 54 943 -7 1050 -7 L1050 -7 Z M1051 51 C985 51 957 95 957 224 C957 354 985 399 1051 399 C1116 399 1143 354 1143 224 C1143 95 1116 51 1051 51 L1051 51 Z " />
<glyph glyph-name="guilsinglleft" unicode="&#x2039;" horiz-adv-x="343" d="M188 0 L255 0 L141 275 L255 551 L188 551 L69 275 L188 0 Z " />
<glyph glyph-name="guilsinglright" unicode="&#x203a;" horiz-adv-x="343" d="M87 0 L155 0 L274 276 L155 551 L87 551 L202 276 L87 0 Z " />
<glyph glyph-name="&amp;#x2044;" unicode="&#x2044;" horiz-adv-x="396" d="M4 0 L71 0 L391 741 L323 741 L4 0 Z " />
<glyph glyph-name="&amp;#x2215;" unicode="&#x2215;" horiz-adv-x="396" d="M4 0 L71 0 L391 741 L323 741 L4 0 Z " />
<glyph glyph-name="Euro" unicode="&#x20ac;" horiz-adv-x="539" d="M30 418 L118 418 L118 334 L30 334 L30 273 L120 273 C131 82 183 -8 338 -8 C411 -8 461 12 503 36 L469 94 C437 77 399 59 342 59 C235 59 201 129 192 273 L414 273 L414 334 L190 334 L190 418 L414 418 L414 479 L193 479 C202 614 236 679 341 679 C397 679 437 667 469 649 L504 710 C462 735 409 749 342 749 C186 749 133 661 121 479 L30 479 L30 418 Z " />
<glyph glyph-name="trademark" unicode="&#x2122;" horiz-adv-x="842" d="M378 282 L430 282 L430 622 L538 282 L576 282 L683 622 L683 282 L738 282 L738 741 L675 741 L558 375 L440 741 L378 741 L378 282 Z M165 282 L222 282 L222 689 L348 689 L348 741 L40 741 L40 689 L165 689 L165 282 Z " />
<glyph glyph-name="partialdiff" unicode="&#x2202;" horiz-adv-x="832" d="M126 120 C126 120 129 123 134 127 C79 193 46 278 46 371 C46 464 79 549 133 615 C129 619 126 621 126 621 C70 554 36 466 36 371 C36 275 70 187 126 120 L126 120 Z M228 211 C230 213 233 215 235 218 C201 259 181 313 181 371 C181 429 202 483 235 524 C232 526 230 529 227 531 C192 487 171 432 171 371 C171 310 193 254 228 211 L228 211 Z M264 243 C267 245 269 248 272 250 C245 283 229 325 229 371 C229 417 245 459 272 492 C269 494 267 497 264 499 C236 464 219 419 219 371 C219 322 236 278 264 243 L264 243 Z M316 289 C319 291 321 294 324 296 C308 317 298 343 298 371 C298 399 308 425 323 445 C321 448 318 450 316 452 C298 430 288 402 288 371 C288 340 298 312 316 289 L316 289 Z M349 320 C352 323 354 325 357 327 C348 340 343 355 343 371 C343 387 348 402 357 415 C354 417 352 420 349 422 C339 408 333 390 333 371 C333 352 339 334 349 320 L349 320 Z M378 346 C382 349 384 351 384 351 C381 357 379 364 379 371 C379 378 381 385 384 391 C384 391 382 393 378 396 C374 389 371 380 371 371 C371 362 374 353 378 346 L378 346 Z M416 60 C493 60 563 89 616 136 C614 139 611 141 609 144 C558 98 490 70 416 70 C342 70 274 98 222 144 C222 145 215 137 215 137 C268 89 338 60 416 60 L416 60 Z M416 324 C426 324 435 327 442 333 C439 337 437 339 437 339 C431 334 424 332 416 332 C408 332 401 335 395 339 C395 339 391 334 389 333 C397 327 406 324 416 324 L416 324 Z M482 319 C493 334 499 352 499 371 C499 390 493 408 482 422 C483 422 475 415 475 415 C484 403 489 388 489 371 C489 355 484 339 475 326 C478 324 480 322 482 319 L482 319 Z M292 269 C295 271 298 274 300 276 C280 302 267 335 267 371 C267 407 280 440 300 466 L293 473 C270 445 257 410 257 371 C257 333 270 297 292 269 L292 269 Z M416 -17 C512 -17 600 19 667 80 C667 80 660 88 660 87 C595 29 510 -7 416 -7 C322 -7 236 29 171 88 L164 80 C231 20 320 -17 416 -17 L416 -17 Z M416 121 C478 121 534 144 576 182 C574 185 571 187 569 190 C529 153 475 131 416 131 C357 131 303 153 262 190 L255 182 C298 144 354 121 416 121 L416 121 Z M416 170 C465 170 510 188 544 218 C542 221 539 223 537 226 C505 197 462 180 416 180 C369 180 327 197 294 226 L287 219 C322 189 367 170 416 170 L416 170 Z M416 209 C455 209 491 224 518 247 C516 250 514 253 512 255 C486 233 452 219 416 219 C380 219 346 233 320 255 L313 247 C341 224 377 209 416 209 L416 209 Z M416 265 C441 265 463 274 481 289 C479 292 476 294 474 297 C458 283 438 275 416 275 C394 275 373 283 357 297 L350 289 C368 274 391 265 416 265 L416 265 Z M358 445 C374 459 394 467 416 467 C438 467 458 459 474 445 L482 453 C464 468 441 477 416 477 C391 477 368 468 350 453 C351 452 354 448 358 445 L358 445 Z M570 552 C572 554 575 557 577 560 C534 598 478 621 416 621 C355 621 299 598 256 560 L263 553 C304 589 357 611 416 611 C475 611 529 589 570 552 L570 552 Z M454 346 C458 353 461 362 461 371 C461 380 458 389 454 396 L448 391 C451 385 453 378 453 371 C453 364 451 357 448 351 C448 351 450 349 454 346 L454 346 Z M468 333 C476 344 480 357 480 371 C480 385 476 398 468 409 L460 402 C466 393 470 382 470 371 C470 360 466 349 460 340 C463 338 465 336 468 333 L468 333 Z M498 306 C511 325 519 347 519 371 C519 395 511 418 497 436 L490 429 C502 413 509 393 509 371 C509 349 502 329 490 313 C492 311 495 308 498 306 L498 306 Z M540 269 C562 297 575 332 575 371 C575 410 562 445 539 473 L531 466 C552 440 565 407 565 371 C565 335 552 302 532 276 C535 274 537 271 540 269 L540 269 Z M568 243 C596 278 613 322 613 371 C613 420 596 464 568 499 L560 492 C587 459 603 417 603 371 C603 325 587 283 560 250 C563 248 566 245 568 243 L568 243 Z M604 211 C640 254 661 310 661 371 C661 432 640 488 604 531 L596 524 C631 483 651 429 651 371 C651 313 631 260 596 218 C601 213 604 211 604 211 L604 211 Z M649 171 C694 225 721 295 721 371 C721 447 694 517 649 571 L641 564 C685 512 711 445 711 371 C711 297 685 230 642 177 C644 175 647 173 649 171 L649 171 Z M706 120 C762 188 796 276 796 371 C796 467 762 555 706 622 L698 615 C753 549 786 464 786 371 C786 278 753 193 698 127 C703 123 706 120 706 120 L706 120 Z M183 170 L190 177 C147 229 121 297 121 371 C121 444 147 512 190 564 C187 567 184 569 182 571 C138 517 111 447 111 371 C111 294 138 225 183 170 L183 170 Z M334 306 L342 314 C330 330 323 350 323 371 C323 393 330 413 342 429 C340 431 337 434 334 436 C321 418 313 395 313 371 C313 346 321 324 334 306 L334 306 Z M364 333 L371 340 C366 349 362 360 362 371 C362 382 366 393 371 402 C369 404 366 406 364 409 C356 398 352 385 352 371 C352 357 356 344 364 333 L364 333 Z M395 403 C401 408 408 410 416 410 C424 410 431 407 437 403 C437 403 439 406 442 409 C435 415 426 418 416 418 C406 418 397 415 390 409 L395 403 Z M384 416 C393 423 404 428 416 428 C428 428 439 424 448 416 C450 419 452 421 454 423 C443 432 430 437 416 437 C401 437 388 432 377 423 L384 416 Z M371 430 C383 441 399 447 416 447 C433 447 449 441 461 430 C461 430 464 434 468 438 C454 450 436 457 416 457 C397 457 378 450 364 438 L371 430 Z M295 516 C327 545 370 562 416 562 C462 562 505 545 538 516 C538 516 545 523 544 523 C510 554 465 572 416 572 C367 572 322 554 288 524 L295 516 Z M416 240 C448 240 476 252 498 271 L491 278 C471 261 445 250 416 250 C388 250 361 261 340 278 L333 270 C355 251 384 240 416 240 L416 240 Z M416 285 C436 285 454 292 468 304 L461 312 C448 301 433 295 416 295 C399 295 383 302 370 312 L363 304 C378 292 396 285 416 285 L416 285 Z M416 305 C430 305 444 310 455 319 L448 326 C439 319 428 314 416 314 C404 314 393 319 383 326 L376 319 C388 310 401 305 416 305 L416 305 Z M341 464 C362 482 388 492 416 492 C445 492 471 481 491 464 L498 472 C476 491 447 502 416 502 C385 502 356 490 334 471 L341 464 Z M320 487 C346 509 380 523 416 523 C453 523 486 510 512 487 L518 494 C491 518 455 533 416 533 C377 533 341 519 313 495 L320 487 Z M610 597 L617 605 C563 653 493 682 416 682 C339 682 269 653 215 605 L222 598 C274 644 342 672 416 672 C491 672 559 644 610 597 L610 597 Z M172 654 C237 713 322 749 416 749 C510 749 596 713 661 654 L668 662 C601 722 512 759 416 759 C320 759 232 723 165 662 L172 654 Z M516 290 C534 312 544 340 544 371 C544 402 534 430 516 453 L508 446 C524 425 534 399 534 371 C534 343 524 317 509 297 L516 290 Z " />
<glyph glyph-name="product" unicode="&#x220f;" horiz-adv-x="832" d="M126 120 C126 120 129 123 134 127 C79 193 46 278 46 371 C46 464 79 549 133 615 C129 619 126 621 126 621 C70 554 36 466 36 371 C36 275 70 187 126 120 L126 120 Z M228 211 C230 213 233 215 235 218 C201 259 181 313 181 371 C181 429 202 483 235 524 C232 526 230 529 227 531 C192 487 171 432 171 371 C171 310 193 254 228 211 L228 211 Z M264 243 C267 245 269 248 272 250 C245 283 229 325 229 371 C229 417 245 459 272 492 C269 494 267 497 264 499 C236 464 219 419 219 371 C219 322 236 278 264 243 L264 243 Z M316 289 C319 291 321 294 324 296 C308 317 298 343 298 371 C298 399 308 425 323 445 C321 448 318 450 316 452 C298 430 288 402 288 371 C288 340 298 312 316 289 L316 289 Z M349 320 C352 323 354 325 357 327 C348 340 343 355 343 371 C343 387 348 402 357 415 C354 417 352 420 349 422 C339 408 333 390 333 371 C333 352 339 334 349 320 L349 320 Z M378 346 C382 349 384 351 384 351 C381 357 379 364 379 371 C379 378 381 385 384 391 C384 391 382 393 378 396 C374 389 371 380 371 371 C371 362 374 353 378 346 L378 346 Z M416 60 C493 60 563 89 616 136 C614 139 611 141 609 144 C558 98 490 70 416 70 C342 70 274 98 222 144 C222 145 215 137 215 137 C268 89 338 60 416 60 L416 60 Z M416 324 C426 324 435 327 442 333 C439 337 437 339 437 339 C431 334 424 332 416 332 C408 332 401 335 395 339 C395 339 391 334 389 333 C397 327 406 324 416 324 L416 324 Z M482 319 C493 334 499 352 499 371 C499 390 493 408 482 422 C483 422 475 415 475 415 C484 403 489 388 489 371 C489 355 484 339 475 326 C478 324 480 322 482 319 L482 319 Z M292 269 C295 271 298 274 300 276 C280 302 267 335 267 371 C267 407 280 440 300 466 L293 473 C270 445 257 410 257 371 C257 333 270 297 292 269 L292 269 Z M416 -17 C512 -17 600 19 667 80 C667 80 660 88 660 87 C595 29 510 -7 416 -7 C322 -7 236 29 171 88 L164 80 C231 20 320 -17 416 -17 L416 -17 Z M416 121 C478 121 534 144 576 182 C574 185 571 187 569 190 C529 153 475 131 416 131 C357 131 303 153 262 190 L255 182 C298 144 354 121 416 121 L416 121 Z M416 170 C465 170 510 188 544 218 C542 221 539 223 537 226 C505 197 462 180 416 180 C369 180 327 197 294 226 L287 219 C322 189 367 170 416 170 L416 170 Z M416 209 C455 209 491 224 518 247 C516 250 514 253 512 255 C486 233 452 219 416 219 C380 219 346 233 320 255 L313 247 C341 224 377 209 416 209 L416 209 Z M416 265 C441 265 463 274 481 289 C479 292 476 294 474 297 C458 283 438 275 416 275 C394 275 373 283 357 297 L350 289 C368 274 391 265 416 265 L416 265 Z M358 445 C374 459 394 467 416 467 C438 467 458 459 474 445 L482 453 C464 468 441 477 416 477 C391 477 368 468 350 453 C351 452 354 448 358 445 L358 445 Z M570 552 C572 554 575 557 577 560 C534 598 478 621 416 621 C355 621 299 598 256 560 L263 553 C304 589 357 611 416 611 C475 611 529 589 570 552 L570 552 Z M454 346 C458 353 461 362 461 371 C461 380 458 389 454 396 L448 391 C451 385 453 378 453 371 C453 364 451 357 448 351 C448 351 450 349 454 346 L454 346 Z M468 333 C476 344 480 357 480 371 C480 385 476 398 468 409 L460 402 C466 393 470 382 470 371 C470 360 466 349 460 340 C463 338 465 336 468 333 L468 333 Z M498 306 C511 325 519 347 519 371 C519 395 511 418 497 436 L490 429 C502 413 509 393 509 371 C509 349 502 329 490 313 C492 311 495 308 498 306 L498 306 Z M540 269 C562 297 575 332 575 371 C575 410 562 445 539 473 L531 466 C552 440 565 407 565 371 C565 335 552 302 532 276 C535 274 537 271 540 269 L540 269 Z M568 243 C596 278 613 322 613 371 C613 420 596 464 568 499 L560 492 C587 459 603 417 603 371 C603 325 587 283 560 250 C563 248 566 245 568 243 L568 243 Z M604 211 C640 254 661 310 661 371 C661 432 640 488 604 531 L596 524 C631 483 651 429 651 371 C651 313 631 260 596 218 C601 213 604 211 604 211 L604 211 Z M649 171 C694 225 721 295 721 371 C721 447 694 517 649 571 L641 564 C685 512 711 445 711 371 C711 297 685 230 642 177 C644 175 647 173 649 171 L649 171 Z M706 120 C762 188 796 276 796 371 C796 467 762 555 706 622 L698 615 C753 549 786 464 786 371 C786 278 753 193 698 127 C703 123 706 120 706 120 L706 120 Z M183 170 L190 177 C147 229 121 297 121 371 C121 444 147 512 190 564 C187 567 184 569 182 571 C138 517 111 447 111 371 C111 294 138 225 183 170 L183 170 Z M334 306 L342 314 C330 330 323 350 323 371 C323 393 330 413 342 429 C340 431 337 434 334 436 C321 418 313 395 313 371 C313 346 321 324 334 306 L334 306 Z M364 333 L371 340 C366 349 362 360 362 371 C362 382 366 393 371 402 C369 404 366 406 364 409 C356 398 352 385 352 371 C352 357 356 344 364 333 L364 333 Z M395 403 C401 408 408 410 416 410 C424 410 431 407 437 403 C437 403 439 406 442 409 C435 415 426 418 416 418 C406 418 397 415 390 409 L395 403 Z M384 416 C393 423 404 428 416 428 C428 428 439 424 448 416 C450 419 452 421 454 423 C443 432 430 437 416 437 C401 437 388 432 377 423 L384 416 Z M371 430 C383 441 399 447 416 447 C433 447 449 441 461 430 C461 430 464 434 468 438 C454 450 436 457 416 457 C397 457 378 450 364 438 L371 430 Z M295 516 C327 545 370 562 416 562 C462 562 505 545 538 516 C538 516 545 523 544 523 C510 554 465 572 416 572 C367 572 322 554 288 524 L295 516 Z M416 240 C448 240 476 252 498 271 L491 278 C471 261 445 250 416 250 C388 250 361 261 340 278 L333 270 C355 251 384 240 416 240 L416 240 Z M416 285 C436 285 454 292 468 304 L461 312 C448 301 433 295 416 295 C399 295 383 302 370 312 L363 304 C378 292 396 285 416 285 L416 285 Z M416 305 C430 305 444 310 455 319 L448 326 C439 319 428 314 416 314 C404 314 393 319 383 326 L376 319 C388 310 401 305 416 305 L416 305 Z M341 464 C362 482 388 492 416 492 C445 492 471 481 491 464 L498 472 C476 491 447 502 416 502 C385 502 356 490 334 471 L341 464 Z M320 487 C346 509 380 523 416 523 C453 523 486 510 512 487 L518 494 C491 518 455 533 416 533 C377 533 341 519 313 495 L320 487 Z M610 597 L617 605 C563 653 493 682 416 682 C339 682 269 653 215 605 L222 598 C274 644 342 672 416 672 C491 672 559 644 610 597 L610 597 Z M172 654 C237 713 322 749 416 749 C510 749 596 713 661 654 L668 662 C601 722 512 759 416 759 C320 759 232 723 165 662 L172 654 Z M516 290 C534 312 544 340 544 371 C544 402 534 430 516 453 L508 446 C524 425 534 399 534 371 C534 343 524 317 509 297 L516 290 Z " />
<glyph glyph-name="summation" unicode="&#x2211;" horiz-adv-x="832" d="M126 120 C126 120 129 123 134 127 C79 193 46 278 46 371 C46 464 79 549 133 615 C129 619 126 621 126 621 C70 554 36 466 36 371 C36 275 70 187 126 120 L126 120 Z M228 211 C230 213 233 215 235 218 C201 259 181 313 181 371 C181 429 202 483 235 524 C232 526 230 529 227 531 C192 487 171 432 171 371 C171 310 193 254 228 211 L228 211 Z M264 243 C267 245 269 248 272 250 C245 283 229 325 229 371 C229 417 245 459 272 492 C269 494 267 497 264 499 C236 464 219 419 219 371 C219 322 236 278 264 243 L264 243 Z M316 289 C319 291 321 294 324 296 C308 317 298 343 298 371 C298 399 308 425 323 445 C321 448 318 450 316 452 C298 430 288 402 288 371 C288 340 298 312 316 289 L316 289 Z M349 320 C352 323 354 325 357 327 C348 340 343 355 343 371 C343 387 348 402 357 415 C354 417 352 420 349 422 C339 408 333 390 333 371 C333 352 339 334 349 320 L349 320 Z M378 346 C382 349 384 351 384 351 C381 357 379 364 379 371 C379 378 381 385 384 391 C384 391 382 393 378 396 C374 389 371 380 371 371 C371 362 374 353 378 346 L378 346 Z M416 60 C493 60 563 89 616 136 C614 139 611 141 609 144 C558 98 490 70 416 70 C342 70 274 98 222 144 C222 145 215 137 215 137 C268 89 338 60 416 60 L416 60 Z M416 324 C426 324 435 327 442 333 C439 337 437 339 437 339 C431 334 424 332 416 332 C408 332 401 335 395 339 C395 339 391 334 389 333 C397 327 406 324 416 324 L416 324 Z M482 319 C493 334 499 352 499 371 C499 390 493 408 482 422 C483 422 475 415 475 415 C484 403 489 388 489 371 C489 355 484 339 475 326 C478 324 480 322 482 319 L482 319 Z M292 269 C295 271 298 274 300 276 C280 302 267 335 267 371 C267 407 280 440 300 466 L293 473 C270 445 257 410 257 371 C257 333 270 297 292 269 L292 269 Z M416 -17 C512 -17 600 19 667 80 C667 80 660 88 660 87 C595 29 510 -7 416 -7 C322 -7 236 29 171 88 L164 80 C231 20 320 -17 416 -17 L416 -17 Z M416 121 C478 121 534 144 576 182 C574 185 571 187 569 190 C529 153 475 131 416 131 C357 131 303 153 262 190 L255 182 C298 144 354 121 416 121 L416 121 Z M416 170 C465 170 510 188 544 218 C542 221 539 223 537 226 C505 197 462 180 416 180 C369 180 327 197 294 226 L287 219 C322 189 367 170 416 170 L416 170 Z M416 209 C455 209 491 224 518 247 C516 250 514 253 512 255 C486 233 452 219 416 219 C380 219 346 233 320 255 L313 247 C341 224 377 209 416 209 L416 209 Z M416 265 C441 265 463 274 481 289 C479 292 476 294 474 297 C458 283 438 275 416 275 C394 275 373 283 357 297 L350 289 C368 274 391 265 416 265 L416 265 Z M358 445 C374 459 394 467 416 467 C438 467 458 459 474 445 L482 453 C464 468 441 477 416 477 C391 477 368 468 350 453 C351 452 354 448 358 445 L358 445 Z M570 552 C572 554 575 557 577 560 C534 598 478 621 416 621 C355 621 299 598 256 560 L263 553 C304 589 357 611 416 611 C475 611 529 589 570 552 L570 552 Z M454 346 C458 353 461 362 461 371 C461 380 458 389 454 396 L448 391 C451 385 453 378 453 371 C453 364 451 357 448 351 C448 351 450 349 454 346 L454 346 Z M468 333 C476 344 480 357 480 371 C480 385 476 398 468 409 L460 402 C466 393 470 382 470 371 C470 360 466 349 460 340 C463 338 465 336 468 333 L468 333 Z M498 306 C511 325 519 347 519 371 C519 395 511 418 497 436 L490 429 C502 413 509 393 509 371 C509 349 502 329 490 313 C492 311 495 308 498 306 L498 306 Z M540 269 C562 297 575 332 575 371 C575 410 562 445 539 473 L531 466 C552 440 565 407 565 371 C565 335 552 302 532 276 C535 274 537 271 540 269 L540 269 Z M568 243 C596 278 613 322 613 371 C613 420 596 464 568 499 L560 492 C587 459 603 417 603 371 C603 325 587 283 560 250 C563 248 566 245 568 243 L568 243 Z M604 211 C640 254 661 310 661 371 C661 432 640 488 604 531 L596 524 C631 483 651 429 651 371 C651 313 631 260 596 218 C601 213 604 211 604 211 L604 211 Z M649 171 C694 225 721 295 721 371 C721 447 694 517 649 571 L641 564 C685 512 711 445 711 371 C711 297 685 230 642 177 C644 175 647 173 649 171 L649 171 Z M706 120 C762 188 796 276 796 371 C796 467 762 555 706 622 L698 615 C753 549 786 464 786 371 C786 278 753 193 698 127 C703 123 706 120 706 120 L706 120 Z M183 170 L190 177 C147 229 121 297 121 371 C121 444 147 512 190 564 C187 567 184 569 182 571 C138 517 111 447 111 371 C111 294 138 225 183 170 L183 170 Z M334 306 L342 314 C330 330 323 350 323 371 C323 393 330 413 342 429 C340 431 337 434 334 436 C321 418 313 395 313 371 C313 346 321 324 334 306 L334 306 Z M364 333 L371 340 C366 349 362 360 362 371 C362 382 366 393 371 402 C369 404 366 406 364 409 C356 398 352 385 352 371 C352 357 356 344 364 333 L364 333 Z M395 403 C401 408 408 410 416 410 C424 410 431 407 437 403 C437 403 439 406 442 409 C435 415 426 418 416 418 C406 418 397 415 390 409 L395 403 Z M384 416 C393 423 404 428 416 428 C428 428 439 424 448 416 C450 419 452 421 454 423 C443 432 430 437 416 437 C401 437 388 432 377 423 L384 416 Z M371 430 C383 441 399 447 416 447 C433 447 449 441 461 430 C461 430 464 434 468 438 C454 450 436 457 416 457 C397 457 378 450 364 438 L371 430 Z M295 516 C327 545 370 562 416 562 C462 562 505 545 538 516 C538 516 545 523 544 523 C510 554 465 572 416 572 C367 572 322 554 288 524 L295 516 Z M416 240 C448 240 476 252 498 271 L491 278 C471 261 445 250 416 250 C388 250 361 261 340 278 L333 270 C355 251 384 240 416 240 L416 240 Z M416 285 C436 285 454 292 468 304 L461 312 C448 301 433 295 416 295 C399 295 383 302 370 312 L363 304 C378 292 396 285 416 285 L416 285 Z M416 305 C430 305 444 310 455 319 L448 326 C439 319 428 314 416 314 C404 314 393 319 383 326 L376 319 C388 310 401 305 416 305 L416 305 Z M341 464 C362 482 388 492 416 492 C445 492 471 481 491 464 L498 472 C476 491 447 502 416 502 C385 502 356 490 334 471 L341 464 Z M320 487 C346 509 380 523 416 523 C453 523 486 510 512 487 L518 494 C491 518 455 533 416 533 C377 533 341 519 313 495 L320 487 Z M610 597 L617 605 C563 653 493 682 416 682 C339 682 269 653 215 605 L222 598 C274 644 342 672 416 672 C491 672 559 644 610 597 L610 597 Z M172 654 C237 713 322 749 416 749 C510 749 596 713 661 654 L668 662 C601 722 512 759 416 759 C320 759 232 723 165 662 L172 654 Z M516 290 C534 312 544 340 544 371 C544 402 534 430 516 453 L508 446 C524 425 534 399 534 371 C534 343 524 317 509 297 L516 290 Z " />
<glyph glyph-name="minus" unicode="&#x2212;" horiz-adv-x="551" d="M85 319 L467 319 L467 384 L85 384 L85 319 Z " />
<glyph glyph-name="radical" unicode="&#x221a;" horiz-adv-x="522" d="M175 -4 L251 -4 L478 741 L407 741 L215 99 L124 409 L48 409 L175 -4 Z " />
<glyph glyph-name="infinity" unicode="&#x221e;" horiz-adv-x="760" d="M365 0 L438 0 L438 487 L554 487 L554 551 L438 551 L438 618 C438 670 450 706 514 706 L554 706 L554 771 L509 771 C401 771 365 712 365 624 L365 551 L178 551 L178 618 C178 670 190 706 255 706 L294 706 L294 771 L249 771 C142 771 105 712 105 624 L105 551 L21 551 L21 487 L105 487 L105 0 L178 0 L178 487 L365 487 L365 0 Z M624 0 L697 0 L697 551 L624 551 L624 0 Z M624 625 L697 625 L697 728 L624 728 L624 625 Z " />
<glyph glyph-name="integral" unicode="&#x222b;" horiz-adv-x="832" d="M126 120 C126 120 129 123 134 127 C79 193 46 278 46 371 C46 464 79 549 133 615 C129 619 126 621 126 621 C70 554 36 466 36 371 C36 275 70 187 126 120 L126 120 Z M228 211 C230 213 233 215 235 218 C201 259 181 313 181 371 C181 429 202 483 235 524 C232 526 230 529 227 531 C192 487 171 432 171 371 C171 310 193 254 228 211 L228 211 Z M264 243 C267 245 269 248 272 250 C245 283 229 325 229 371 C229 417 245 459 272 492 C269 494 267 497 264 499 C236 464 219 419 219 371 C219 322 236 278 264 243 L264 243 Z M316 289 C319 291 321 294 324 296 C308 317 298 343 298 371 C298 399 308 425 323 445 C321 448 318 450 316 452 C298 430 288 402 288 371 C288 340 298 312 316 289 L316 289 Z M349 320 C352 323 354 325 357 327 C348 340 343 355 343 371 C343 387 348 402 357 415 C354 417 352 420 349 422 C339 408 333 390 333 371 C333 352 339 334 349 320 L349 320 Z M378 346 C382 349 384 351 384 351 C381 357 379 364 379 371 C379 378 381 385 384 391 C384 391 382 393 378 396 C374 389 371 380 371 371 C371 362 374 353 378 346 L378 346 Z M416 60 C493 60 563 89 616 136 C614 139 611 141 609 144 C558 98 490 70 416 70 C342 70 274 98 222 144 C222 145 215 137 215 137 C268 89 338 60 416 60 L416 60 Z M416 324 C426 324 435 327 442 333 C439 337 437 339 437 339 C431 334 424 332 416 332 C408 332 401 335 395 339 C395 339 391 334 389 333 C397 327 406 324 416 324 L416 324 Z M482 319 C493 334 499 352 499 371 C499 390 493 408 482 422 C483 422 475 415 475 415 C484 403 489 388 489 371 C489 355 484 339 475 326 C478 324 480 322 482 319 L482 319 Z M292 269 C295 271 298 274 300 276 C280 302 267 335 267 371 C267 407 280 440 300 466 L293 473 C270 445 257 410 257 371 C257 333 270 297 292 269 L292 269 Z M416 -17 C512 -17 600 19 667 80 C667 80 660 88 660 87 C595 29 510 -7 416 -7 C322 -7 236 29 171 88 L164 80 C231 20 320 -17 416 -17 L416 -17 Z M416 121 C478 121 534 144 576 182 C574 185 571 187 569 190 C529 153 475 131 416 131 C357 131 303 153 262 190 L255 182 C298 144 354 121 416 121 L416 121 Z M416 170 C465 170 510 188 544 218 C542 221 539 223 537 226 C505 197 462 180 416 180 C369 180 327 197 294 226 L287 219 C322 189 367 170 416 170 L416 170 Z M416 209 C455 209 491 224 518 247 C516 250 514 253 512 255 C486 233 452 219 416 219 C380 219 346 233 320 255 L313 247 C341 224 377 209 416 209 L416 209 Z M416 265 C441 265 463 274 481 289 C479 292 476 294 474 297 C458 283 438 275 416 275 C394 275 373 283 357 297 L350 289 C368 274 391 265 416 265 L416 265 Z M358 445 C374 459 394 467 416 467 C438 467 458 459 474 445 L482 453 C464 468 441 477 416 477 C391 477 368 468 350 453 C351 452 354 448 358 445 L358 445 Z M570 552 C572 554 575 557 577 560 C534 598 478 621 416 621 C355 621 299 598 256 560 L263 553 C304 589 357 611 416 611 C475 611 529 589 570 552 L570 552 Z M454 346 C458 353 461 362 461 371 C461 380 458 389 454 396 L448 391 C451 385 453 378 453 371 C453 364 451 357 448 351 C448 351 450 349 454 346 L454 346 Z M468 333 C476 344 480 357 480 371 C480 385 476 398 468 409 L460 402 C466 393 470 382 470 371 C470 360 466 349 460 340 C463 338 465 336 468 333 L468 333 Z M498 306 C511 325 519 347 519 371 C519 395 511 418 497 436 L490 429 C502 413 509 393 509 371 C509 349 502 329 490 313 C492 311 495 308 498 306 L498 306 Z M540 269 C562 297 575 332 575 371 C575 410 562 445 539 473 L531 466 C552 440 565 407 565 371 C565 335 552 302 532 276 C535 274 537 271 540 269 L540 269 Z M568 243 C596 278 613 322 613 371 C613 420 596 464 568 499 L560 492 C587 459 603 417 603 371 C603 325 587 283 560 250 C563 248 566 245 568 243 L568 243 Z M604 211 C640 254 661 310 661 371 C661 432 640 488 604 531 L596 524 C631 483 651 429 651 371 C651 313 631 260 596 218 C601 213 604 211 604 211 L604 211 Z M649 171 C694 225 721 295 721 371 C721 447 694 517 649 571 L641 564 C685 512 711 445 711 371 C711 297 685 230 642 177 C644 175 647 173 649 171 L649 171 Z M706 120 C762 188 796 276 796 371 C796 467 762 555 706 622 L698 615 C753 549 786 464 786 371 C786 278 753 193 698 127 C703 123 706 120 706 120 L706 120 Z M183 170 L190 177 C147 229 121 297 121 371 C121 444 147 512 190 564 C187 567 184 569 182 571 C138 517 111 447 111 371 C111 294 138 225 183 170 L183 170 Z M334 306 L342 314 C330 330 323 350 323 371 C323 393 330 413 342 429 C340 431 337 434 334 436 C321 418 313 395 313 371 C313 346 321 324 334 306 L334 306 Z M364 333 L371 340 C366 349 362 360 362 371 C362 382 366 393 371 402 C369 404 366 406 364 409 C356 398 352 385 352 371 C352 357 356 344 364 333 L364 333 Z M395 403 C401 408 408 410 416 410 C424 410 431 407 437 403 C437 403 439 406 442 409 C435 415 426 418 416 418 C406 418 397 415 390 409 L395 403 Z M384 416 C393 423 404 428 416 428 C428 428 439 424 448 416 C450 419 452 421 454 423 C443 432 430 437 416 437 C401 437 388 432 377 423 L384 416 Z M371 430 C383 441 399 447 416 447 C433 447 449 441 461 430 C461 430 464 434 468 438 C454 450 436 457 416 457 C397 457 378 450 364 438 L371 430 Z M295 516 C327 545 370 562 416 562 C462 562 505 545 538 516 C538 516 545 523 544 523 C510 554 465 572 416 572 C367 572 322 554 288 524 L295 516 Z M416 240 C448 240 476 252 498 271 L491 278 C471 261 445 250 416 250 C388 250 361 261 340 278 L333 270 C355 251 384 240 416 240 L416 240 Z M416 285 C436 285 454 292 468 304 L461 312 C448 301 433 295 416 295 C399 295 383 302 370 312 L363 304 C378 292 396 285 416 285 L416 285 Z M416 305 C430 305 444 310 455 319 L448 326 C439 319 428 314 416 314 C404 314 393 319 383 326 L376 319 C388 310 401 305 416 305 L416 305 Z M341 464 C362 482 388 492 416 492 C445 492 471 481 491 464 L498 472 C476 491 447 502 416 502 C385 502 356 490 334 471 L341 464 Z M320 487 C346 509 380 523 416 523 C453 523 486 510 512 487 L518 494 C491 518 455 533 416 533 C377 533 341 519 313 495 L320 487 Z M610 597 L617 605 C563 653 493 682 416 682 C339 682 269 653 215 605 L222 598 C274 644 342 672 416 672 C491 672 559 644 610 597 L610 597 Z M172 654 C237 713 322 749 416 749 C510 749 596 713 661 654 L668 662 C601 722 512 759 416 759 C320 759 232 723 165 662 L172 654 Z M516 290 C534 312 544 340 544 371 C544 402 534 430 516 453 L508 446 C524 425 534 399 534 371 C534 343 524 317 509 297 L516 290 Z " />
<glyph glyph-name="approxequal" unicode="&#x2248;" horiz-adv-x="552" d="M129 391 C144 417 159 433 189 433 C245 433 303 394 368 394 C420 394 452 422 475 471 L425 499 C408 473 393 455 362 455 C306 455 249 495 183 495 C133 495 100 468 76 420 L129 391 Z M129 203 C144 230 159 244 189 244 C245 244 303 205 368 205 C420 205 452 234 475 283 L425 311 C408 285 393 266 362 266 C306 266 249 306 183 306 C133 306 100 280 76 231 L129 203 Z " />
<glyph glyph-name="notequal" unicode="&#x2260;" horiz-adv-x="576" d="M365 0 L438 0 L438 487 L566 487 L566 551 L438 551 L438 618 C438 670 450 706 514 706 L566 706 L566 770 C558 771 524 771 509 771 C401 771 365 712 365 624 L365 551 L178 551 L178 618 C178 670 190 706 255 706 L294 706 L294 771 L249 771 C142 771 105 712 105 624 L105 551 L21 551 L21 487 L105 487 L105 0 L178 0 L178 487 L365 487 L365 0 Z " />
<glyph glyph-name="lessequal" unicode="&#x2264;" horiz-adv-x="551" d="M435 122 L435 194 L155 349 L435 505 L435 576 L83 376 L83 322 L435 122 Z M83 16 L435 16 L435 81 L83 81 L83 16 Z " />
<glyph glyph-name="greaterequal" unicode="&#x2265;" horiz-adv-x="551" d="M116 122 L469 322 L469 376 L116 576 L116 505 L395 349 L116 194 L116 122 Z M116 16 L469 16 L469 81 L116 81 L116 16 Z " />
<glyph glyph-name="lozenge" unicode="&#x25ca;" horiz-adv-x="631" d="M21 487 L105 487 L105 0 L178 0 L178 487 L388 487 L388 138 C388 43 412 -2 525 -2 C532 -2 582 -1 593 0 L593 65 L532 65 C469 65 461 93 461 145 L461 487 L593 487 L593 551 L461 551 L461 718 L402 705 L390 551 L178 551 L178 618 C178 670 190 706 255 706 L294 706 L294 771 L249 771 C142 771 105 712 105 624 L105 551 L21 551 L21 487 Z " />
<glyph glyph-name="apple" unicode="&#xf8ff;" horiz-adv-x="832" d="M126 120 C126 120 129 123 134 127 C79 193 46 278 46 371 C46 464 79 549 133 615 C129 619 126 621 126 621 C70 554 36 466 36 371 C36 275 70 187 126 120 L126 120 Z M228 211 C230 213 233 215 235 218 C201 259 181 313 181 371 C181 429 202 483 235 524 C232 526 230 529 227 531 C192 487 171 432 171 371 C171 310 193 254 228 211 L228 211 Z M264 243 C267 245 269 248 272 250 C245 283 229 325 229 371 C229 417 245 459 272 492 C269 494 267 497 264 499 C236 464 219 419 219 371 C219 322 236 278 264 243 L264 243 Z M316 289 C319 291 321 294 324 296 C308 317 298 343 298 371 C298 399 308 425 323 445 C321 448 318 450 316 452 C298 430 288 402 288 371 C288 340 298 312 316 289 L316 289 Z M349 320 C352 323 354 325 357 327 C348 340 343 355 343 371 C343 387 348 402 357 415 C354 417 352 420 349 422 C339 408 333 390 333 371 C333 352 339 334 349 320 L349 320 Z M378 346 C382 349 384 351 384 351 C381 357 379 364 379 371 C379 378 381 385 384 391 C384 391 382 393 378 396 C374 389 371 380 371 371 C371 362 374 353 378 346 L378 346 Z M416 60 C493 60 563 89 616 136 C614 139 611 141 609 144 C558 98 490 70 416 70 C342 70 274 98 222 144 C222 145 215 137 215 137 C268 89 338 60 416 60 L416 60 Z M416 324 C426 324 435 327 442 333 C439 337 437 339 437 339 C431 334 424 332 416 332 C408 332 401 335 395 339 C395 339 391 334 389 333 C397 327 406 324 416 324 L416 324 Z M482 319 C493 334 499 352 499 371 C499 390 493 408 482 422 C483 422 475 415 475 415 C484 403 489 388 489 371 C489 355 484 339 475 326 C478 324 480 322 482 319 L482 319 Z M292 269 C295 271 298 274 300 276 C280 302 267 335 267 371 C267 407 280 440 300 466 L293 473 C270 445 257 410 257 371 C257 333 270 297 292 269 L292 269 Z M416 -17 C512 -17 600 19 667 80 C667 80 660 88 660 87 C595 29 510 -7 416 -7 C322 -7 236 29 171 88 L164 80 C231 20 320 -17 416 -17 L416 -17 Z M416 121 C478 121 534 144 576 182 C574 185 571 187 569 190 C529 153 475 131 416 131 C357 131 303 153 262 190 L255 182 C298 144 354 121 416 121 L416 121 Z M416 170 C465 170 510 188 544 218 C542 221 539 223 537 226 C505 197 462 180 416 180 C369 180 327 197 294 226 L287 219 C322 189 367 170 416 170 L416 170 Z M416 209 C455 209 491 224 518 247 C516 250 514 253 512 255 C486 233 452 219 416 219 C380 219 346 233 320 255 L313 247 C341 224 377 209 416 209 L416 209 Z M416 265 C441 265 463 274 481 289 C479 292 476 294 474 297 C458 283 438 275 416 275 C394 275 373 283 357 297 L350 289 C368 274 391 265 416 265 L416 265 Z M358 445 C374 459 394 467 416 467 C438 467 458 459 474 445 L482 453 C464 468 441 477 416 477 C391 477 368 468 350 453 C351 452 354 448 358 445 L358 445 Z M570 552 C572 554 575 557 577 560 C534 598 478 621 416 621 C355 621 299 598 256 560 L263 553 C304 589 357 611 416 611 C475 611 529 589 570 552 L570 552 Z M454 346 C458 353 461 362 461 371 C461 380 458 389 454 396 L448 391 C451 385 453 378 453 371 C453 364 451 357 448 351 C448 351 450 349 454 346 L454 346 Z M468 333 C476 344 480 357 480 371 C480 385 476 398 468 409 L460 402 C466 393 470 382 470 371 C470 360 466 349 460 340 C463 338 465 336 468 333 L468 333 Z M498 306 C511 325 519 347 519 371 C519 395 511 418 497 436 L490 429 C502 413 509 393 509 371 C509 349 502 329 490 313 C492 311 495 308 498 306 L498 306 Z M540 269 C562 297 575 332 575 371 C575 410 562 445 539 473 L531 466 C552 440 565 407 565 371 C565 335 552 302 532 276 C535 274 537 271 540 269 L540 269 Z M568 243 C596 278 613 322 613 371 C613 420 596 464 568 499 L560 492 C587 459 603 417 603 371 C603 325 587 283 560 250 C563 248 566 245 568 243 L568 243 Z M604 211 C640 254 661 310 661 371 C661 432 640 488 604 531 L596 524 C631 483 651 429 651 371 C651 313 631 260 596 218 C601 213 604 211 604 211 L604 211 Z M649 171 C694 225 721 295 721 371 C721 447 694 517 649 571 L641 564 C685 512 711 445 711 371 C711 297 685 230 642 177 C644 175 647 173 649 171 L649 171 Z M706 120 C762 188 796 276 796 371 C796 467 762 555 706 622 L698 615 C753 549 786 464 786 371 C786 278 753 193 698 127 C703 123 706 120 706 120 L706 120 Z M183 170 L190 177 C147 229 121 297 121 371 C121 444 147 512 190 564 C187 567 184 569 182 571 C138 517 111 447 111 371 C111 294 138 225 183 170 L183 170 Z M334 306 L342 314 C330 330 323 350 323 371 C323 393 330 413 342 429 C340 431 337 434 334 436 C321 418 313 395 313 371 C313 346 321 324 334 306 L334 306 Z M364 333 L371 340 C366 349 362 360 362 371 C362 382 366 393 371 402 C369 404 366 406 364 409 C356 398 352 385 352 371 C352 357 356 344 364 333 L364 333 Z M395 403 C401 408 408 410 416 410 C424 410 431 407 437 403 C437 403 439 406 442 409 C435 415 426 418 416 418 C406 418 397 415 390 409 L395 403 Z M384 416 C393 423 404 428 416 428 C428 428 439 424 448 416 C450 419 452 421 454 423 C443 432 430 437 416 437 C401 437 388 432 377 423 L384 416 Z M371 430 C383 441 399 447 416 447 C433 447 449 441 461 430 C461 430 464 434 468 438 C454 450 436 457 416 457 C397 457 378 450 364 438 L371 430 Z M295 516 C327 545 370 562 416 562 C462 562 505 545 538 516 C538 516 545 523 544 523 C510 554 465 572 416 572 C367 572 322 554 288 524 L295 516 Z M416 240 C448 240 476 252 498 271 L491 278 C471 261 445 250 416 250 C388 250 361 261 340 278 L333 270 C355 251 384 240 416 240 L416 240 Z M416 285 C436 285 454 292 468 304 L461 312 C448 301 433 295 416 295 C399 295 383 302 370 312 L363 304 C378 292 396 285 416 285 L416 285 Z M416 305 C430 305 444 310 455 319 L448 326 C439 319 428 314 416 314 C404 314 393 319 383 326 L376 319 C388 310 401 305 416 305 L416 305 Z M341 464 C362 482 388 492 416 492 C445 492 471 481 491 464 L498 472 C476 491 447 502 416 502 C385 502 356 490 334 471 L341 464 Z M320 487 C346 509 380 523 416 523 C453 523 486 510 512 487 L518 494 C491 518 455 533 416 533 C377 533 341 519 313 495 L320 487 Z M610 597 L617 605 C563 653 493 682 416 682 C339 682 269 653 215 605 L222 598 C274 644 342 672 416 672 C491 672 559 644 610 597 L610 597 Z M172 654 C237 713 322 749 416 749 C510 749 596 713 661 654 L668 662 C601 722 512 759 416 759 C320 759 232 723 165 662 L172 654 Z M516 290 C534 312 544 340 544 371 C544 402 534 430 516 453 L508 446 C524 425 534 399 534 371 C534 343 524 317 509 297 L516 290 Z " />
<glyph glyph-name="fi" unicode="&#xfb01;" horiz-adv-x="500" d="M21 487 L105 487 L105 0 L178 0 L178 487 L294 487 L294 551 L178 551 L178 618 C178 670 190 706 255 706 L294 706 L294 771 L249 771 C142 771 105 712 105 624 L105 551 L21 551 L21 487 Z M365 0 L438 0 L438 551 L365 551 L365 0 Z M365 625 L438 625 L438 728 L365 728 L365 625 Z " />
<glyph glyph-name="fl" unicode="&#xfb02;" horiz-adv-x="542" d="M21 487 L105 487 L105 0 L178 0 L178 487 L294 487 L294 551 L178 551 L178 618 C178 670 190 706 255 706 L294 706 L294 771 L249 771 C142 771 105 712 105 624 L105 551 L21 551 L21 487 Z M505 0 L505 65 C440 65 438 81 438 127 L438 769 L365 769 L365 119 C365 32 386 -1 481 -1 C495 -1 501 -1 505 0 L505 0 Z " />
</font>
</svg>
