<?xml version="1.0" encoding="UTF-8"?>
<svg xmlns="http://www.w3.org/2000/svg" xmlns:xlink="http://www.w3.org/1999/xlink" version="1.2" >
<font id="AntennaExtraCond Thin">
<font-face  font-family="AntennaExtraCond" units-per-em="1000" ascent="800" descent="-200" font-style="normal" font-weight="100" font-stretch="normal" cap-height="741" x-height="542" underline-position="-75" underline-thickness="50" />
<missing-glyph  horiz-adv-x="136" d="" />
<glyph glyph-name="NULL" d="" />
<glyph glyph-name="CR" unicode="&#xd;" horiz-adv-x="250" d="" />
<glyph glyph-name="&amp;#x20;" unicode="&#x20;" horiz-adv-x="136" d="" />
<glyph glyph-name="&amp;#xa0;" unicode="&#xa0;" horiz-adv-x="136" d="" />
<glyph glyph-name="exclam" unicode="&#x21;" horiz-adv-x="190" d="M77 0 L113 0 L113 61 L77 61 L77 0 Z M86 189 L106 189 L111 741 L81 741 L86 189 Z " />
<glyph glyph-name="quotedbl" unicode="&#x22;" horiz-adv-x="237" d="M62 495 L79 495 L82 741 L58 741 L62 495 Z M158 495 L175 495 L179 741 L155 741 L158 495 Z " />
<glyph glyph-name="numbersign" unicode="&#x23;" horiz-adv-x="363" d="M72 0 L95 0 L126 279 L215 279 L184 0 L207 0 L238 279 L324 279 L324 302 L240 302 L255 440 L324 440 L324 463 L258 463 L289 741 L266 741 L235 463 L146 463 L177 741 L154 741 L123 463 L39 463 L39 440 L120 440 L105 302 L39 302 L39 279 L103 279 L72 0 Z M128 302 L143 440 L232 440 L217 302 L128 302 Z " />
<glyph glyph-name="dollar" unicode="&#x24;" horiz-adv-x="310" d="M139 -90 L163 -90 L163 1 C221 9 274 51 274 132 C274 196 268 214 162 404 L162 718 L167 718 C205 718 225 714 256 703 L264 725 C231 737 209 741 167 741 L163 741 L163 831 L139 831 L139 739 C77 729 42 685 42 620 C42 565 51 546 140 385 L140 23 C85 23 51 32 21 46 L11 25 C43 10 76 0 139 0 L139 -90 Z M250 132 C250 66 209 32 162 24 L162 355 C243 206 250 184 250 132 L250 132 Z M66 620 C66 671 93 706 140 715 L140 433 C72 556 66 580 66 620 L66 620 Z " />
<glyph glyph-name="percent" unicode="&#x25;" horiz-adv-x="535" d="M121 299 C149 299 168 306 182 319 C213 349 213 414 213 522 C213 626 213 690 185 722 C171 738 151 746 121 746 C92 746 72 738 58 723 C29 692 29 628 29 522 C29 412 29 347 61 318 C74 306 94 299 121 299 L121 299 Z M414 -5 C442 -5 461 2 475 15 C506 45 506 110 506 218 C506 322 506 386 478 418 C464 434 444 442 414 442 C385 442 365 434 351 419 C322 388 322 324 322 218 C322 108 322 43 354 14 C367 2 387 -5 414 -5 L414 -5 Z M121 322 C54 322 53 382 53 522 C53 662 54 723 121 723 C188 723 189 662 189 522 C189 382 188 322 121 322 L121 322 Z M414 18 C347 18 346 78 346 218 C346 358 347 419 414 419 C481 419 482 358 482 218 C482 78 481 18 414 18 L414 18 Z M154 0 L178 0 L382 741 L358 741 L154 0 Z " />
<glyph glyph-name="ampersand" unicode="&#x26;" horiz-adv-x="388" d="M165 -8 C233 -8 275 17 301 77 L340 0 L369 0 L313 111 C334 184 340 295 340 455 L316 455 C315 312 311 212 297 143 L207 322 C189 357 173 390 159 421 C209 494 247 556 247 625 C247 696 242 747 164 747 C87 747 82 691 82 620 C82 557 98 500 129 428 C75 348 24 272 24 166 C24 41 59 -8 165 -8 L165 -8 Z M165 15 C77 15 48 59 48 166 C48 260 91 330 141 403 C154 375 168 345 185 312 L287 106 C265 41 228 15 165 15 L165 15 Z M106 620 C106 678 106 724 164 724 C222 724 223 683 223 625 C223 566 192 510 148 446 C122 510 106 567 106 620 L106 620 Z " />
<glyph glyph-name="quotesingle" unicode="&#x27;" horiz-adv-x="140" d="M62 495 L79 495 L82 741 L58 741 L62 495 Z " />
<glyph glyph-name="parenleft" unicode="&#x28;" horiz-adv-x="239" d="M181 -156 L201 -143 C154 -75 90 67 90 303 C90 540 154 683 201 751 L181 764 C132 694 66 547 66 303 C66 60 132 -86 181 -156 L181 -156 Z " />
<glyph glyph-name="parenright" unicode="&#x29;" horiz-adv-x="239" d="M58 -156 C107 -86 173 60 173 303 C173 547 107 694 58 764 L38 751 C85 683 149 540 149 303 C149 67 85 -75 38 -143 L58 -156 Z " />
<glyph glyph-name="asterisk" unicode="&#x2a;" horiz-adv-x="294" d="M136 433 L158 433 L157 571 L259 510 L270 530 L166 587 L270 645 L259 665 L157 602 L158 741 L136 741 L138 603 L36 664 L25 644 L128 587 L25 530 L36 510 L138 572 L136 433 Z " />
<glyph glyph-name="plus" unicode="&#x2b;" horiz-adv-x="359" d="M167 214 L191 214 L191 359 L296 359 L296 382 L191 382 L191 528 L167 528 L167 382 L62 382 L62 359 L167 359 L167 214 Z " />
<glyph glyph-name="comma" unicode="&#x2c;" horiz-adv-x="123" d="M49 -64 C77 -49 79 -38 79 0 L79 61 L44 61 L44 0 L61 0 C61 -35 59 -37 40 -48 L49 -64 Z " />
<glyph glyph-name="&amp;#x2d;" unicode="&#x2d;" horiz-adv-x="253" d="M33 282 L220 282 L220 305 L33 305 L33 282 Z " />
<glyph glyph-name="&amp;#xad;" unicode="&#xad;" horiz-adv-x="253" d="M33 282 L220 282 L220 305 L33 305 L33 282 Z " />
<glyph glyph-name="period" unicode="&#x2e;" horiz-adv-x="123" d="M44 0 L79 0 L79 61 L44 61 L44 0 Z " />
<glyph glyph-name="slash" unicode="&#x2f;" horiz-adv-x="246" d="M0 0 L24 0 L246 741 L222 741 L0 0 Z " />
<glyph glyph-name="zero" unicode="0" horiz-adv-x="358" d="M179 -5 C214 -5 240 3 259 20 C307 63 311 167 311 370 C311 566 308 670 264 716 C245 736 218 746 179 746 C141 746 113 736 94 716 C50 670 47 567 47 370 C47 168 50 65 97 21 C116 3 143 -5 179 -5 L179 -5 Z M179 18 C76 18 71 104 71 370 C71 636 76 723 179 723 C282 723 287 636 287 370 C287 104 282 18 179 18 L179 18 Z " />
<glyph glyph-name="one" unicode="1" horiz-adv-x="189" d="M98 0 L122 0 L122 741 L15 741 L15 718 L98 718 L98 0 Z " />
<glyph glyph-name="two" unicode="2" horiz-adv-x="281" d="M21 0 L245 0 L245 23 L47 23 L208 467 C225 513 246 577 246 633 C246 697 218 746 132 746 C90 746 55 738 25 725 L35 704 C62 716 94 723 132 723 C200 723 222 684 222 633 C222 582 201 520 185 475 L21 23 L21 0 Z " />
<glyph glyph-name="three" unicode="3" horiz-adv-x="275" d="M120 -5 C224 -5 239 68 239 204 C239 328 234 395 162 416 C219 440 229 502 229 592 C229 692 215 746 125 746 C85 746 45 738 19 728 L28 707 C51 716 88 723 125 723 C194 723 205 677 205 592 C205 490 193 425 97 425 L64 425 L64 402 L97 402 C210 402 215 342 215 204 C215 83 203 18 120 18 C80 18 43 28 22 37 L13 16 C36 6 77 -5 120 -5 L120 -5 Z " />
<glyph glyph-name="four" unicode="4" horiz-adv-x="334" d="M31 201 L215 201 L215 0 L239 0 L239 201 L314 201 L314 224 L239 224 L239 459 L221 459 L215 224 L55 224 L235 740 L210 740 L31 224 L31 201 Z " />
<glyph glyph-name="five" unicode="5" horiz-adv-x="284" d="M129 -5 C232 -5 251 49 251 239 C251 432 240 477 139 477 C111 477 80 466 65 453 L72 718 L226 718 L226 741 L49 741 L40 431 L61 424 C77 440 105 454 139 454 C220 454 227 413 227 239 C227 67 214 18 129 18 C86 18 51 30 34 37 L25 16 C46 7 86 -5 129 -5 L129 -5 Z " />
<glyph glyph-name="six" unicode="6" horiz-adv-x="328" d="M170 -5 C208 -5 234 5 252 22 C296 62 294 147 294 272 C294 401 285 481 176 481 C117 481 85 457 69 416 C69 642 74 718 241 718 L243 718 L243 741 L241 741 C168 741 123 727 94 698 C46 650 45 573 45 416 L45 272 C45 149 44 64 86 23 C104 5 131 -5 170 -5 L170 -5 Z M170 18 C72 18 69 89 69 272 C69 438 116 458 176 458 C264 458 270 387 270 272 C270 89 268 18 170 18 L170 18 Z " />
<glyph glyph-name="seven" unicode="7" horiz-adv-x="244" d="M53 0 L77 0 L230 721 L230 741 L5 741 L5 718 L205 718 L53 0 Z " />
<glyph glyph-name="eight" unicode="8" horiz-adv-x="332" d="M166 -5 C207 -5 235 5 254 22 C291 55 294 118 294 204 C294 310 289 378 224 401 C274 426 277 488 277 567 C277 632 275 686 246 717 C230 735 204 746 166 746 C127 746 102 735 85 717 C56 686 54 632 54 567 C54 488 57 426 107 401 C42 378 37 310 37 204 C37 119 40 57 76 24 C95 6 123 -5 166 -5 L166 -5 Z M166 18 C67 18 61 87 61 204 C61 321 67 389 166 389 C264 389 270 321 270 204 C270 87 264 18 166 18 L166 18 Z M166 411 C82 411 78 478 78 567 C78 656 82 723 166 723 C249 723 253 656 253 567 C253 478 249 411 166 411 L166 411 Z " />
<glyph glyph-name="nine" unicode="9" horiz-adv-x="328" d="M85 0 L87 0 C160 0 205 14 234 43 C282 91 283 168 283 325 L283 469 C283 592 284 677 242 718 C224 736 197 746 158 746 C120 746 94 736 76 719 C32 679 34 594 34 469 C34 340 43 260 152 260 C211 260 243 284 259 325 C259 99 254 23 87 23 L85 23 L85 0 Z M152 283 C64 283 58 354 58 469 C58 652 60 723 158 723 C256 723 259 652 259 469 C259 303 212 283 152 283 L152 283 Z " />
<glyph glyph-name="colon" unicode="&#x3a;" horiz-adv-x="143" d="M54 0 L89 0 L89 61 L54 61 L54 0 Z M54 481 L89 481 L89 542 L54 542 L54 481 Z " />
<glyph glyph-name="semicolon" unicode="&#x3b;" horiz-adv-x="143" d="M59 -64 C87 -49 89 -38 89 0 L89 61 L54 61 L54 0 L71 0 C71 -35 69 -37 50 -48 L59 -64 Z M54 481 L89 481 L89 542 L54 542 L54 481 Z " />
<glyph glyph-name="less" unicode="&#x3c;" horiz-adv-x="359" d="M270 209 L270 233 L93 368 L270 503 L270 527 L77 380 L77 356 L270 209 Z " />
<glyph glyph-name="equal" unicode="&#x3d;" horiz-adv-x="359" d="M64 276 L295 276 L295 299 L64 299 L64 276 Z M64 405 L295 405 L295 428 L64 428 L64 405 Z " />
<glyph glyph-name="greater" unicode="&#x3e;" horiz-adv-x="359" d="M89 209 L282 356 L282 380 L89 527 L89 503 L266 368 L89 233 L89 209 Z " />
<glyph glyph-name="question" unicode="&#x3f;" horiz-adv-x="339" d="M146 190 L170 190 C171 295 175 335 196 379 L261 516 C273 542 286 585 286 626 C286 688 260 746 168 746 C124 746 84 736 54 723 L64 702 C91 714 128 723 168 723 C241 723 262 676 262 626 C262 589 253 553 240 526 L175 389 C148 332 147 293 146 190 L146 190 Z M140 0 L175 0 L175 61 L140 61 L140 0 Z " />
<glyph glyph-name="at" unicode="&#x40;" horiz-adv-x="505" d="M381 -152 L381 -129 L253 -129 C63 -129 72 12 72 297 C72 582 63 723 253 723 C442 723 433 582 433 297 L433 140 C433 83 427 62 400 62 C373 62 366 74 366 140 L366 546 L345 547 L342 492 C327 528 301 549 243 549 C211 549 188 540 171 523 C128 480 128 399 128 294 C128 197 128 111 169 68 C186 50 210 40 243 40 C303 40 327 67 343 103 C345 57 366 40 400 40 C444 40 457 66 457 140 L457 297 C457 597 465 746 253 746 C40 746 48 597 48 297 C48 -3 40 -152 253 -152 L381 -152 Z M243 62 C154 62 152 170 152 295 C152 427 154 527 243 527 C340 527 342 452 342 295 C342 138 338 62 243 62 L243 62 Z " />
<glyph glyph-name="A" unicode="A" horiz-adv-x="359" d="M20 0 L42 0 L83 207 L275 207 L316 0 L339 0 L191 743 L168 743 L20 0 Z M88 229 L158 581 L179 690 L200 581 L270 229 L88 229 Z " />
<glyph glyph-name="B" unicode="B" horiz-adv-x="383" d="M53 0 L188 0 C310 0 345 74 345 199 C345 301 325 368 253 386 C318 408 335 469 335 560 C335 677 304 741 185 741 L53 741 L53 0 Z M77 23 L77 373 L182 373 C277 373 321 340 321 199 C321 88 292 23 188 23 L77 23 Z M77 396 L77 718 L185 718 C286 718 311 661 311 560 C311 479 303 396 185 396 L77 396 Z " />
<glyph glyph-name="C" unicode="C" horiz-adv-x="324" d="M199 -5 C241 -5 272 2 301 13 L293 35 C266 25 237 18 199 18 C72 18 59 125 59 370 C59 615 72 723 199 723 C234 723 263 717 291 708 L298 730 C268 740 237 746 199 746 C152 746 118 734 94 710 C42 658 35 548 35 370 C35 192 42 83 94 31 C118 7 152 -5 199 -5 L199 -5 Z " />
<glyph glyph-name="D" unicode="D" horiz-adv-x="387" d="M53 0 L168 0 C230 0 271 13 298 39 C349 87 353 186 353 371 C353 545 349 645 303 696 C276 726 233 741 168 741 L53 741 L53 0 Z M77 23 L77 718 L168 718 C320 718 329 632 329 371 C329 104 320 23 168 23 L77 23 Z " />
<glyph glyph-name="E" unicode="E" horiz-adv-x="330" d="M53 0 L293 0 L293 23 L77 23 L77 373 L284 373 L284 396 L77 396 L77 718 L293 718 L293 741 L53 741 L53 0 Z " />
<glyph glyph-name="F" unicode="F" horiz-adv-x="311" d="M53 0 L77 0 L77 373 L284 373 L284 396 L77 396 L77 718 L294 718 L294 741 L53 741 L53 0 Z " />
<glyph glyph-name="G" unicode="G" horiz-adv-x="371" d="M193 -6 C235 -6 266 3 288 24 C329 64 340 151 340 322 L340 396 L169 396 L169 373 L316 373 L316 322 C316 77 298 17 193 17 C74 17 59 125 59 370 C59 615 72 723 198 723 C249 723 290 712 315 700 L325 722 C298 734 255 746 198 746 C151 746 117 733 93 709 C42 657 35 548 35 370 C35 210 36 80 100 24 C122 4 153 -6 193 -6 L193 -6 Z " />
<glyph glyph-name="H" unicode="H" horiz-adv-x="401" d="M53 0 L77 0 L77 373 L324 373 L324 0 L348 0 L348 741 L324 741 L324 396 L77 396 L77 741 L53 741 L53 0 Z " />
<glyph glyph-name="I" unicode="I" horiz-adv-x="138" d="M57 0 L81 0 L81 741 L57 741 L57 0 Z " />
<glyph glyph-name="J" unicode="J" horiz-adv-x="215" d="M14 0 C32 0 40 0 55 0 C145 0 164 44 164 110 L164 741 L140 741 L140 110 C140 58 125 23 55 23 L14 23 L14 0 Z " />
<glyph glyph-name="K" unicode="K" horiz-adv-x="355" d="M53 0 L77 0 L77 248 L163 423 L310 0 L334 0 L177 452 L319 741 L295 741 L77 294 L77 741 L53 741 L53 0 Z " />
<glyph glyph-name="L" unicode="L" horiz-adv-x="308" d="M53 0 L293 0 L293 23 L77 23 L77 741 L53 741 L53 0 Z " />
<glyph glyph-name="M" unicode="M" horiz-adv-x="472" d="M53 0 L75 0 L75 708 L96 604 L225 0 L246 0 L376 603 L396 699 L396 0 L419 0 L419 741 L385 741 L254 135 L236 47 L218 136 L89 741 L53 741 L53 0 Z " />
<glyph glyph-name="N" unicode="N" horiz-adv-x="388" d="M53 0 L76 0 L76 688 L104 603 L311 0 L335 0 L335 741 L313 741 L313 61 L282 154 L81 741 L53 741 L53 0 Z " />
<glyph glyph-name="O" unicode="O" horiz-adv-x="407" d="M204 -6 C253 -6 288 6 313 30 C366 82 372 192 372 370 C372 544 366 652 317 706 C292 733 256 747 204 747 C152 747 115 733 90 706 C40 652 35 544 35 370 C35 193 41 83 94 31 C119 6 154 -6 204 -6 L204 -6 Z M204 17 C70 17 59 125 59 370 C59 616 70 724 204 724 C337 724 348 616 348 370 C348 125 338 17 204 17 L204 17 Z " />
<glyph glyph-name="P" unicode="P" horiz-adv-x="364" d="M53 0 L77 0 L77 332 L167 332 C297 332 331 392 331 538 C331 685 297 741 165 741 L53 741 L53 0 Z M77 355 L77 718 L165 718 C282 718 307 670 307 538 C307 405 282 355 167 355 L77 355 Z " />
<glyph glyph-name="Q" unicode="Q" horiz-adv-x="407" d="M297 -135 L297 -112 L262 -112 C218 -112 207 -102 207 -5 C254 -4 288 7 313 31 C366 83 372 192 372 370 C372 544 366 652 317 706 C292 733 256 747 204 747 C152 747 115 733 90 706 C40 652 35 544 35 370 C35 193 41 84 94 32 C115 10 144 -1 183 -4 C183 -119 199 -135 262 -135 L297 -135 Z M204 17 C70 17 59 125 59 370 C59 616 70 724 204 724 C337 724 348 616 348 370 C348 125 338 17 204 17 L204 17 Z " />
<glyph glyph-name="R" unicode="R" horiz-adv-x="371" d="M299 0 L323 0 L217 347 C307 362 332 422 332 544 C332 686 298 741 166 741 L53 741 L53 0 L77 0 L77 344 L168 344 C177 344 186 344 194 345 L299 0 Z M77 367 L77 718 L166 718 C283 718 308 671 308 544 C308 416 283 367 168 367 L77 367 Z " />
<glyph glyph-name="S" unicode="S" horiz-adv-x="311" d="M141 -5 C208 -5 274 36 274 127 C274 191 266 208 161 401 C75 559 66 581 66 625 C66 685 104 723 167 723 C205 723 225 719 256 708 L264 730 C231 742 209 746 167 746 C89 746 42 699 42 625 C42 570 52 552 141 388 C241 203 250 184 250 127 C250 52 196 18 141 18 C95 18 63 25 33 39 L23 18 C56 3 88 -5 141 -5 L141 -5 Z " />
<glyph glyph-name="T" unicode="T" horiz-adv-x="336" d="M156 0 L180 0 L180 718 L321 718 L321 741 L15 741 L15 718 L156 718 L156 0 Z " />
<glyph glyph-name="U" unicode="U" horiz-adv-x="394" d="M197 -5 C246 -5 279 6 301 26 C337 59 344 117 344 194 L344 741 L321 741 L321 194 C321 83 303 18 197 18 C92 18 74 83 74 194 L74 741 L50 741 L50 194 C50 116 59 59 95 26 C117 6 150 -5 197 -5 L197 -5 Z " />
<glyph glyph-name="V" unicode="V" horiz-adv-x="359" d="M168 -2 L191 -2 L339 741 L317 741 L198 146 L180 50 L161 149 L43 741 L20 741 L168 -2 Z " />
<glyph glyph-name="W" unicode="W" horiz-adv-x="561" d="M151 -2 L171 -2 L266 584 L281 684 L296 584 L390 -2 L410 -2 L537 741 L516 741 L419 173 L401 63 L384 172 L292 741 L270 741 L178 172 L161 63 L143 173 L46 741 L24 741 L151 -2 Z " />
<glyph glyph-name="X" unicode="X" horiz-adv-x="365" d="M316 0 L340 0 L194 387 L327 741 L304 741 L183 418 L62 741 L38 741 L170 389 L25 0 L48 0 L181 358 L316 0 Z " />
<glyph glyph-name="Y" unicode="Y" horiz-adv-x="350" d="M163 0 L187 0 L187 279 L335 741 L313 741 L175 312 L38 741 L15 741 L163 279 L163 0 Z " />
<glyph glyph-name="Z" unicode="Z" horiz-adv-x="342" d="M31 0 L311 0 L311 23 L55 23 L304 720 L304 741 L40 741 L40 718 L279 718 L31 23 L31 0 Z " />
<glyph glyph-name="bracketleft" unicode="&#x5b;" horiz-adv-x="242" d="M72 -152 L185 -152 L185 -129 L96 -129 L96 740 L183 740 L183 763 L72 763 L72 -152 Z " />
<glyph glyph-name="backslash" unicode="&#x5c;" horiz-adv-x="246" d="M222 0 L246 0 L24 741 L0 741 L222 0 Z " />
<glyph glyph-name="bracketright" unicode="&#x5d;" horiz-adv-x="242" d="M59 -152 L170 -152 L170 763 L57 763 L57 740 L146 740 L146 -129 L59 -129 L59 -152 Z " />
<glyph glyph-name="asciicircum" unicode="&#x5e;" horiz-adv-x="319" d="M68 613 L91 613 L159 719 L227 613 L251 613 L170 741 L149 741 L68 613 Z " />
<glyph glyph-name="underscore" unicode="&#x5f;" horiz-adv-x="244" d="M-20 -95 L264 -95 L264 -72 L-20 -72 L-20 -95 Z " />
<glyph glyph-name="grave" unicode="&#x60;" horiz-adv-x="319" d="M166 603 L189 603 L105 731 L79 731 L166 603 Z " />
<glyph glyph-name="a" unicode="a" horiz-adv-x="328" d="M132 -3 C194 -3 223 22 240 60 C240 16 251 0 297 0 L301 0 L301 23 C268 23 264 35 264 79 L264 370 C264 442 264 493 237 522 C222 538 197 548 159 548 C125 548 85 541 63 533 L71 510 C94 519 132 525 159 525 C240 525 240 470 240 370 L228 370 C85 370 33 339 33 178 C33 49 51 -3 132 -3 L132 -3 Z M132 20 C72 20 57 67 57 178 C57 319 94 347 228 347 L240 347 L240 188 C240 118 239 20 132 20 L132 20 Z " />
<glyph glyph-name="b" unicode="b" horiz-adv-x="336" d="M184 -3 C219 -3 244 7 262 25 C309 71 309 164 309 272 C309 378 309 471 264 518 C246 537 220 548 184 548 C120 548 86 519 71 477 L71 763 L47 763 L47 0 L68 -1 L71 61 C88 21 121 -3 184 -3 L184 -3 Z M184 20 C77 20 71 102 71 272 C71 443 77 525 184 525 C285 525 285 408 285 272 C285 135 285 20 184 20 L184 20 Z " />
<glyph glyph-name="c" unicode="c" horiz-adv-x="242" d="M156 -5 C182 -5 206 1 221 7 L212 28 C200 23 179 18 156 18 C61 18 56 121 56 273 C56 425 61 525 156 525 C178 525 197 521 213 517 L219 539 C201 544 180 548 156 548 C119 548 92 536 74 516 C35 472 32 387 32 273 C32 153 35 63 81 21 C99 5 123 -5 156 -5 L156 -5 Z " />
<glyph glyph-name="d" unicode="d" horiz-adv-x="341" d="M157 -4 C222 -4 254 26 271 69 L274 0 L294 1 L294 763 L270 763 L270 482 C253 522 220 548 157 548 C122 548 97 538 79 520 C32 474 32 381 32 273 C32 167 32 73 77 26 C95 7 121 -4 157 -4 L157 -4 Z M157 19 C56 19 56 137 56 273 C56 410 56 525 157 525 C264 525 270 443 270 273 C270 102 264 19 157 19 L157 19 Z " />
<glyph glyph-name="e" unicode="e" horiz-adv-x="298" d="M156 -5 C200 -5 230 2 261 13 L253 35 C224 25 196 18 156 18 C62 18 56 119 56 268 L269 268 C269 415 266 482 230 521 C214 539 190 548 157 548 C121 548 94 537 76 518 C34 475 32 388 32 273 C32 154 36 63 81 21 C99 5 123 -5 156 -5 L156 -5 Z M157 525 C240 525 244 446 245 291 L56 291 C56 432 65 525 157 525 L157 525 Z " />
<glyph glyph-name="f" unicode="f" horiz-adv-x="202" d="M19 519 L81 519 L81 0 L105 0 L105 519 L192 519 L192 542 L105 542 L105 655 C105 707 116 740 170 740 L192 740 L192 763 L170 763 C100 763 81 721 81 655 L81 542 L19 542 L19 519 Z " />
<glyph glyph-name="g" unicode="g" horiz-adv-x="317" d="M153 192 C251 192 266 263 266 370 C266 442 260 496 227 525 L291 525 L291 548 L190 543 C179 546 167 548 153 548 C54 548 39 478 39 370 C39 295 46 238 83 210 C71 196 65 176 65 155 C65 130 71 110 90 97 C34 79 17 30 17 -27 C17 -120 53 -156 154 -156 C238 -156 293 -125 293 -22 C293 62 271 108 152 108 C101 108 88 119 88 155 C88 169 93 189 102 200 C116 194 133 192 153 192 L153 192 Z M153 215 C75 215 63 277 63 370 C63 464 75 525 153 525 C230 525 242 464 242 370 C242 277 230 215 153 215 L153 215 Z M154 -133 C65 -133 41 -104 41 -27 C41 36 58 85 152 85 C247 85 269 60 269 -22 C269 -109 227 -133 154 -133 L154 -133 Z " />
<glyph glyph-name="h" unicode="h" horiz-adv-x="340" d="M47 0 L71 0 L71 326 C71 448 79 525 184 525 C256 525 271 490 271 370 L271 0 L295 0 L295 370 C295 436 295 490 266 521 C250 538 225 548 186 548 C110 548 83 515 71 483 L71 763 L47 763 L47 0 Z " />
<glyph glyph-name="i" unicode="i" horiz-adv-x="124" d="M50 0 L74 0 L74 542 L50 542 L50 0 Z M50 629 L74 629 L74 711 L50 711 L50 629 Z " />
<glyph glyph-name="j" unicode="j" horiz-adv-x="124" d="M9 -152 C67 -152 74 -124 74 -79 L74 542 L50 542 L50 -81 C50 -116 45 -128 9 -129 L9 -152 Z M50 629 L74 629 L74 711 L50 711 L50 629 Z " />
<glyph glyph-name="k" unicode="k" horiz-adv-x="287" d="M47 0 L71 0 L71 173 L131 291 L251 0 L276 0 L145 318 L258 542 L233 542 L71 224 L71 763 L47 763 L47 0 Z " />
<glyph glyph-name="l" unicode="l" horiz-adv-x="155" d="M121 0 C123 0 124 0 126 0 L126 23 L122 23 C77 23 74 34 74 81 L74 763 L50 763 L50 81 C50 29 53 0 121 0 L121 0 Z " />
<glyph glyph-name="m" unicode="m" horiz-adv-x="532" d="M47 0 L71 0 L71 326 C71 448 76 525 179 525 C248 525 261 490 261 370 L261 0 L285 0 L285 361 C286 462 300 525 393 525 C462 525 475 490 475 370 L475 0 L499 0 L499 370 C499 435 500 489 473 520 C458 538 433 548 395 548 C324 548 292 517 279 476 C271 519 247 548 181 548 C105 548 82 513 70 482 L67 541 L47 540 L47 0 Z " />
<glyph glyph-name="n" unicode="n" horiz-adv-x="340" d="M47 0 L71 0 L71 326 C71 448 79 525 184 525 C256 525 271 490 271 370 L271 0 L295 0 L295 370 C295 436 294 490 265 521 C249 538 224 548 186 548 C108 548 82 513 70 482 L67 541 L47 540 L47 0 Z " />
<glyph glyph-name="o" unicode="o" horiz-adv-x="332" d="M166 -5 C206 -5 234 5 254 24 C297 65 300 149 300 271 C300 392 298 475 256 517 C236 537 208 548 166 548 C125 548 97 537 77 518 C34 477 32 393 32 271 C32 148 35 63 79 23 C99 5 126 -5 166 -5 L166 -5 Z M166 18 C60 18 56 108 56 271 C56 434 60 525 166 525 C272 525 276 434 276 271 C276 108 272 18 166 18 L166 18 Z " />
<glyph glyph-name="p" unicode="p" horiz-adv-x="341" d="M47 -152 L71 -152 L71 63 C88 23 121 -3 184 -3 C219 -3 244 7 262 25 C309 71 309 164 309 272 C309 378 309 471 264 518 C246 537 220 548 184 548 C119 548 87 519 70 476 L67 541 L47 540 L47 -152 Z M184 20 C77 20 71 102 71 272 C71 443 77 525 184 525 C285 525 285 408 285 272 C285 135 285 20 184 20 L184 20 Z " />
<glyph glyph-name="q" unicode="q" horiz-adv-x="341" d="M270 -152 L294 -152 L294 545 L273 546 L270 482 C253 522 220 548 157 548 C122 548 97 538 79 520 C32 474 32 381 32 273 C32 167 32 73 77 26 C95 7 121 -4 157 -4 C220 -4 253 25 270 66 L270 -152 Z M157 19 C56 19 56 137 56 273 C56 410 56 525 157 525 C264 525 270 443 270 273 C270 102 264 19 157 19 L157 19 Z " />
<glyph glyph-name="r" unicode="r" horiz-adv-x="188" d="M47 0 L71 0 L71 307 C71 468 95 510 173 519 L173 542 C115 537 82 511 70 469 L67 541 L47 540 L47 0 Z " />
<glyph glyph-name="s" unicode="s" horiz-adv-x="250" d="M121 -5 C169 -5 218 25 218 91 C218 137 212 151 135 292 C72 406 66 422 66 454 C66 497 93 525 140 525 C158 525 180 522 203 514 L211 536 C187 545 163 548 140 548 C78 548 42 511 42 454 C42 418 56 387 115 280 C184 154 194 131 194 91 C194 41 157 18 121 18 C84 18 57 27 36 37 L26 16 C49 5 75 -5 121 -5 L121 -5 Z " />
<glyph glyph-name="t" unicode="t" horiz-adv-x="217" d="M19 519 L76 519 L76 96 C76 32 89 0 160 0 L191 0 L191 23 L160 23 C107 23 100 47 100 96 L100 519 L191 519 L191 542 L100 542 L100 682 L79 676 L76 542 L19 542 L19 519 Z " />
<glyph glyph-name="u" unicode="u" horiz-adv-x="335" d="M168 -5 C211 -5 238 6 257 24 C283 50 290 91 290 149 L290 542 L267 542 L267 149 C267 65 250 18 168 18 C86 18 69 66 69 147 L69 542 L45 542 L45 147 C45 89 53 46 82 21 C101 4 128 -5 168 -5 L168 -5 Z " />
<glyph glyph-name="v" unicode="v" horiz-adv-x="279" d="M127 -2 L152 -2 L268 542 L245 542 L162 153 L140 44 L118 153 L35 542 L11 542 L127 -2 Z " />
<glyph glyph-name="w" unicode="w" horiz-adv-x="467" d="M118 -2 L141 -2 L218 408 L233 491 L248 407 L326 -2 L349 -2 L456 542 L434 542 L357 151 L338 49 L320 150 L246 542 L222 542 L149 157 L130 49 L110 155 L34 542 L11 542 L118 -2 Z " />
<glyph glyph-name="x" unicode="x" horiz-adv-x="285" d="M244 0 L268 0 L155 285 L256 542 L233 542 L143 314 L53 542 L29 542 L130 287 L17 0 L40 0 L141 257 L244 0 Z " />
<glyph glyph-name="y" unicode="y" horiz-adv-x="279" d="M64 -152 C107 -151 125 -134 132 -97 L268 542 L245 542 L161 147 L140 43 L119 148 L35 542 L11 542 L128 -6 L109 -96 C103 -121 96 -129 64 -129 L40 -129 L40 -152 L64 -152 Z " />
<glyph glyph-name="z" unicode="z" horiz-adv-x="256" d="M22 0 L232 0 L232 23 L47 23 L229 520 L229 542 L33 542 L33 519 L203 519 L22 23 L22 0 Z " />
<glyph glyph-name="braceleft" unicode="&#x7b;" horiz-adv-x="262" d="M180 -152 L205 -152 L205 -129 L180 -129 C128 -129 110 -114 110 -51 C110 13 142 178 142 244 C142 276 131 297 107 305 C131 313 142 335 142 367 C142 433 110 598 110 662 C110 725 128 740 180 740 L205 740 L205 763 L180 763 C113 763 86 743 86 662 C86 593 118 427 118 367 C118 323 99 316 49 316 L49 295 C99 295 118 288 118 244 C118 184 86 18 86 -51 C86 -132 113 -152 180 -152 L180 -152 Z " />
<glyph glyph-name="bar" unicode="&#x7c;" horiz-adv-x="165" d="M70 -152 L94 -152 L94 763 L70 763 L70 -152 Z " />
<glyph glyph-name="braceright" unicode="&#x7d;" horiz-adv-x="262" d="M57 -152 L82 -152 C149 -152 176 -132 176 -51 C176 18 144 184 144 244 C144 288 163 295 213 295 L213 316 C163 316 144 323 144 367 C144 427 176 593 176 662 C176 743 149 763 82 763 L57 763 L57 740 L82 740 C134 740 152 725 152 662 C152 598 120 433 120 367 C120 335 131 313 155 305 C131 297 120 276 120 244 C120 178 152 13 152 -51 C152 -114 134 -129 82 -129 L57 -129 L57 -152 Z " />
<glyph glyph-name="asciitilde" unicode="&#x7e;" horiz-adv-x="319" d="M91 447 C93 469 100 478 119 478 C141 478 171 447 199 447 C230 447 246 464 250 499 L227 501 C225 479 218 470 199 470 C177 470 147 501 119 501 C87 501 72 484 68 449 L91 447 Z " />
<glyph glyph-name="exclamdown" unicode="&#xa1;" horiz-adv-x="190" d="M79 0 L109 0 L104 552 L84 552 L79 0 Z M77 680 L113 680 L113 741 L77 741 L77 680 Z " />
<glyph glyph-name="cent" unicode="&#xa2;" horiz-adv-x="288" d="M149 -97 L173 -97 L173 -5 C197 -4 220 1 234 7 L225 28 C213 23 194 18 172 18 L172 525 C192 524 210 521 226 517 L232 539 C215 543 195 547 173 548 L173 640 L149 640 L149 547 C122 543 101 532 87 516 C48 472 45 387 45 273 C45 153 48 63 94 21 C108 8 126 -1 149 -4 L149 -97 Z M69 273 C69 414 73 510 150 523 L150 19 C73 33 69 132 69 273 L69 273 Z " />
<glyph glyph-name="sterling" unicode="&#xa3;" horiz-adv-x="311" d="M205 -3 C258 -3 277 22 277 87 L277 124 L253 124 L253 87 C253 39 243 20 205 20 C177 20 150 27 122 43 C134 70 131 112 125 168 L102 369 L227 369 L227 392 L100 392 L77 595 C69 663 87 723 157 723 C189 723 225 718 255 706 L264 727 C230 741 191 746 157 746 C66 746 44 672 53 593 L75 392 L22 392 L22 369 L78 369 L101 165 C110 82 123 19 24 23 L24 0 C65 0 92 7 108 23 C139 5 166 -3 205 -3 L205 -3 Z " />
<glyph glyph-name="currency" unicode="&#xa4;" horiz-adv-x="339" d="M23 414 L79 414 L79 343 L23 343 L23 320 L79 320 C79 154 85 63 129 22 C148 4 174 -5 211 -5 C250 -5 277 -1 304 13 L293 34 C269 22 245 18 211 18 C113 18 104 99 103 320 L258 320 L258 343 L103 343 L103 414 L258 414 L258 437 L103 437 C104 645 114 723 211 723 C241 723 272 717 293 708 L302 729 C278 739 253 746 211 746 C171 746 143 736 124 715 C85 674 80 586 79 437 L23 437 L23 414 Z " />
<glyph glyph-name="yen" unicode="&#xa5;" horiz-adv-x="313" d="M39 199 L144 199 L144 128 L39 128 L39 105 L144 105 L144 0 L168 0 L168 105 L274 105 L274 128 L168 128 L168 199 L274 199 L274 222 L168 222 L168 281 L291 741 L269 741 L156 317 L44 741 L21 741 L144 281 L144 222 L39 222 L39 199 Z " />
<glyph glyph-name="brokenbar" unicode="&#xa6;" horiz-adv-x="165" d="M70 -152 L94 -152 L94 236 L70 236 L70 -152 Z M70 375 L94 375 L94 763 L70 763 L70 375 Z " />
<glyph glyph-name="section" unicode="&#xa7;" horiz-adv-x="263" d="M55 0 C125 0 144 42 144 108 L144 178 C215 181 234 218 234 386 C234 553 215 590 144 594 L144 655 C144 707 155 740 209 740 L231 740 L231 763 L209 763 C139 763 120 721 120 655 L120 594 C48 591 29 554 29 386 C29 217 48 181 120 178 L120 108 C120 56 109 23 55 23 L33 23 L33 0 L55 0 Z M131 201 C69 201 53 229 53 386 C53 543 69 571 131 571 C194 571 210 543 210 386 C210 229 194 201 131 201 L131 201 Z " />
<glyph glyph-name="dieresis" unicode="&#xa8;" horiz-adv-x="319" d="M91 603 L115 603 L115 670 L91 670 L91 603 Z M204 603 L228 603 L228 670 L204 670 L204 603 Z " />
<glyph glyph-name="copyright" unicode="&#xa9;" horiz-adv-x="451" d="M230 104 C262 104 284 109 304 118 L296 139 C276 132 257 126 230 126 C146 126 137 199 137 367 C137 534 146 608 230 608 C253 608 273 604 295 597 L302 618 C280 626 258 630 230 630 C197 630 174 622 156 604 C119 567 114 491 114 367 C114 243 119 168 156 130 C174 114 197 104 230 104 L230 104 Z M225 -8 C412 -8 423 117 423 370 C423 623 412 749 225 749 C39 749 28 623 28 370 C28 117 39 -8 225 -8 L225 -8 Z M225 13 C61 13 50 132 50 370 C50 608 61 728 225 728 C390 728 401 608 401 370 C401 132 390 13 225 13 L225 13 Z " />
<glyph glyph-name="ordfeminine" unicode="&#xaa;" horiz-adv-x="303" d="M127 296 C175 296 200 314 214 343 C215 311 230 298 262 298 L265 298 L265 319 C238 319 235 329 235 364 L235 600 C235 660 235 701 213 725 C201 738 180 746 149 746 C121 746 88 741 70 734 L77 713 C95 721 126 726 149 726 C213 726 214 681 214 601 L205 601 C88 601 46 576 46 443 C46 338 60 296 127 296 L127 296 Z M127 316 C79 316 67 352 67 443 C67 557 97 580 205 580 L214 580 L214 441 C214 395 213 316 127 316 L127 316 Z M56 193 L247 193 L247 216 L56 216 L56 193 Z " />
<glyph glyph-name="guillemotleft" unicode="&#xab;" horiz-adv-x="341" d="M136 0 L160 0 L79 271 L160 542 L136 542 L55 271 L136 0 Z M255 0 L279 0 L198 271 L279 542 L255 542 L174 271 L255 0 Z " />
<glyph glyph-name="logicalnot" unicode="&#xac;" horiz-adv-x="832" d="M126 120 C126 120 129 123 134 127 C79 193 46 278 46 371 C46 464 79 549 133 615 C129 619 126 621 126 621 C70 554 36 466 36 371 C36 275 70 187 126 120 L126 120 Z M228 211 C230 213 233 215 235 218 C201 259 181 313 181 371 C181 429 202 483 235 524 C232 526 230 529 227 531 C192 487 171 432 171 371 C171 310 193 254 228 211 L228 211 Z M264 243 C267 245 269 248 272 250 C245 283 229 325 229 371 C229 417 245 459 272 492 C269 494 267 497 264 499 C236 464 219 419 219 371 C219 322 236 278 264 243 L264 243 Z M316 289 C319 291 321 294 324 296 C308 317 298 343 298 371 C298 399 308 425 323 445 C321 448 318 450 316 452 C298 430 288 402 288 371 C288 340 298 312 316 289 L316 289 Z M349 320 C352 323 354 325 357 327 C348 340 343 355 343 371 C343 387 348 402 357 415 C354 417 352 420 349 422 C339 408 333 390 333 371 C333 352 339 334 349 320 L349 320 Z M378 346 C382 349 384 351 384 351 C381 357 379 364 379 371 C379 378 381 385 384 391 C384 391 382 393 378 396 C374 389 371 380 371 371 C371 362 374 353 378 346 L378 346 Z M416 60 C493 60 563 89 616 136 C614 139 611 141 609 144 C558 98 490 70 416 70 C342 70 274 98 222 144 C222 145 215 137 215 137 C268 89 338 60 416 60 L416 60 Z M416 324 C426 324 435 327 442 333 C439 337 437 339 437 339 C431 334 424 332 416 332 C408 332 401 335 395 339 C395 339 391 334 389 333 C397 327 406 324 416 324 L416 324 Z M482 319 C493 334 499 352 499 371 C499 390 493 408 482 422 C483 422 475 415 475 415 C484 403 489 388 489 371 C489 355 484 339 475 326 C478 324 480 322 482 319 L482 319 Z M292 269 C295 271 298 274 300 276 C280 302 267 335 267 371 C267 407 280 440 300 466 L293 473 C270 445 257 410 257 371 C257 333 270 297 292 269 L292 269 Z M416 -17 C512 -17 600 19 667 80 C667 80 660 88 660 87 C595 29 510 -7 416 -7 C322 -7 236 29 171 88 L164 80 C231 20 320 -17 416 -17 L416 -17 Z M416 121 C478 121 534 144 576 182 C574 185 571 187 569 190 C529 153 475 131 416 131 C357 131 303 153 262 190 L255 182 C298 144 354 121 416 121 L416 121 Z M416 170 C465 170 510 188 544 218 C542 221 539 223 537 226 C505 197 462 180 416 180 C369 180 327 197 294 226 L287 219 C322 189 367 170 416 170 L416 170 Z M416 209 C455 209 491 224 518 247 C516 250 514 253 512 255 C486 233 452 219 416 219 C380 219 346 233 320 255 L313 247 C341 224 377 209 416 209 L416 209 Z M416 265 C441 265 463 274 481 289 C479 292 476 294 474 297 C458 283 438 275 416 275 C394 275 373 283 357 297 L350 289 C368 274 391 265 416 265 L416 265 Z M358 445 C374 459 394 467 416 467 C438 467 458 459 474 445 L482 453 C464 468 441 477 416 477 C391 477 368 468 350 453 C351 452 354 448 358 445 L358 445 Z M570 552 C572 554 575 557 577 560 C534 598 478 621 416 621 C355 621 299 598 256 560 L263 553 C304 589 357 611 416 611 C475 611 529 589 570 552 L570 552 Z M454 346 C458 353 461 362 461 371 C461 380 458 389 454 396 L448 391 C451 385 453 378 453 371 C453 364 451 357 448 351 C448 351 450 349 454 346 L454 346 Z M468 333 C476 344 480 357 480 371 C480 385 476 398 468 409 L460 402 C466 393 470 382 470 371 C470 360 466 349 460 340 C463 338 465 336 468 333 L468 333 Z M498 306 C511 325 519 347 519 371 C519 395 511 418 497 436 L490 429 C502 413 509 393 509 371 C509 349 502 329 490 313 C492 311 495 308 498 306 L498 306 Z M540 269 C562 297 575 332 575 371 C575 410 562 445 539 473 L531 466 C552 440 565 407 565 371 C565 335 552 302 532 276 C535 274 537 271 540 269 L540 269 Z M568 243 C596 278 613 322 613 371 C613 420 596 464 568 499 L560 492 C587 459 603 417 603 371 C603 325 587 283 560 250 C563 248 566 245 568 243 L568 243 Z M604 211 C640 254 661 310 661 371 C661 432 640 488 604 531 L596 524 C631 483 651 429 651 371 C651 313 631 260 596 218 C601 213 604 211 604 211 L604 211 Z M649 171 C694 225 721 295 721 371 C721 447 694 517 649 571 L641 564 C685 512 711 445 711 371 C711 297 685 230 642 177 C644 175 647 173 649 171 L649 171 Z M706 120 C762 188 796 276 796 371 C796 467 762 555 706 622 L698 615 C753 549 786 464 786 371 C786 278 753 193 698 127 C703 123 706 120 706 120 L706 120 Z M183 170 L190 177 C147 229 121 297 121 371 C121 444 147 512 190 564 C187 567 184 569 182 571 C138 517 111 447 111 371 C111 294 138 225 183 170 L183 170 Z M334 306 L342 314 C330 330 323 350 323 371 C323 393 330 413 342 429 C340 431 337 434 334 436 C321 418 313 395 313 371 C313 346 321 324 334 306 L334 306 Z M364 333 L371 340 C366 349 362 360 362 371 C362 382 366 393 371 402 C369 404 366 406 364 409 C356 398 352 385 352 371 C352 357 356 344 364 333 L364 333 Z M395 403 C401 408 408 410 416 410 C424 410 431 407 437 403 C437 403 439 406 442 409 C435 415 426 418 416 418 C406 418 397 415 390 409 L395 403 Z M384 416 C393 423 404 428 416 428 C428 428 439 424 448 416 C450 419 452 421 454 423 C443 432 430 437 416 437 C401 437 388 432 377 423 L384 416 Z M371 430 C383 441 399 447 416 447 C433 447 449 441 461 430 C461 430 464 434 468 438 C454 450 436 457 416 457 C397 457 378 450 364 438 L371 430 Z M295 516 C327 545 370 562 416 562 C462 562 505 545 538 516 C538 516 545 523 544 523 C510 554 465 572 416 572 C367 572 322 554 288 524 L295 516 Z M416 240 C448 240 476 252 498 271 L491 278 C471 261 445 250 416 250 C388 250 361 261 340 278 L333 270 C355 251 384 240 416 240 L416 240 Z M416 285 C436 285 454 292 468 304 L461 312 C448 301 433 295 416 295 C399 295 383 302 370 312 L363 304 C378 292 396 285 416 285 L416 285 Z M416 305 C430 305 444 310 455 319 L448 326 C439 319 428 314 416 314 C404 314 393 319 383 326 L376 319 C388 310 401 305 416 305 L416 305 Z M341 464 C362 482 388 492 416 492 C445 492 471 481 491 464 L498 472 C476 491 447 502 416 502 C385 502 356 490 334 471 L341 464 Z M320 487 C346 509 380 523 416 523 C453 523 486 510 512 487 L518 494 C491 518 455 533 416 533 C377 533 341 519 313 495 L320 487 Z M610 597 L617 605 C563 653 493 682 416 682 C339 682 269 653 215 605 L222 598 C274 644 342 672 416 672 C491 672 559 644 610 597 L610 597 Z M172 654 C237 713 322 749 416 749 C510 749 596 713 661 654 L668 662 C601 722 512 759 416 759 C320 759 232 723 165 662 L172 654 Z M516 290 C534 312 544 340 544 371 C544 402 534 430 516 453 L508 446 C524 425 534 399 534 371 C534 343 524 317 509 297 L516 290 Z " />
<glyph glyph-name="registered" unicode="&#xae;" horiz-adv-x="451" d="M225 -8 C412 -8 423 117 423 370 C423 623 412 749 225 749 C39 749 28 623 28 370 C28 117 39 -8 225 -8 L225 -8 Z M225 13 C61 13 50 132 50 370 C50 608 61 728 225 728 C390 728 401 608 401 370 C401 132 390 13 225 13 L225 13 Z M299 124 L320 124 L251 352 C309 362 326 400 326 484 C326 584 302 617 214 617 L136 617 L136 124 L158 124 L158 350 L230 350 L299 124 Z M158 371 L158 596 L214 596 C289 596 304 570 304 484 C304 398 289 371 215 371 L158 371 Z " />
<glyph glyph-name="&amp;#xaf;" unicode="&#xaf;" horiz-adv-x="319" d="M73 603 L246 603 L246 626 L73 626 L73 603 Z " />
<glyph glyph-name="&amp;#x2c9;" unicode="&#x2c9;" horiz-adv-x="319" d="M73 603 L246 603 L246 626 L73 626 L73 603 Z " />
<glyph glyph-name="degree" unicode="&#xb0;" horiz-adv-x="300" d="M150 294 C251 294 253 371 253 520 C253 669 251 746 150 746 C49 746 47 669 47 520 C47 371 49 294 150 294 L150 294 Z M150 317 C71 317 71 386 71 520 C71 654 71 723 150 723 C229 723 229 654 229 520 C229 386 229 317 150 317 L150 317 Z " />
<glyph glyph-name="plusminus" unicode="&#xb1;" horiz-adv-x="528" d="M252 0 L276 0 L276 519 L363 519 L363 542 L276 542 L276 655 C276 707 287 740 341 740 L363 740 L363 763 L341 763 C271 763 252 721 252 655 L252 542 L105 542 L105 655 C105 707 116 740 170 740 L192 740 L192 763 L170 763 C100 763 81 721 81 655 L81 542 L19 542 L19 519 L81 519 L81 0 L105 0 L105 519 L252 519 L252 0 Z M494 0 L499 0 L499 23 L495 23 C450 23 447 34 447 81 L447 763 L423 763 L423 81 C423 29 426 0 494 0 L494 0 Z " />
<glyph glyph-name="twosuperior" unicode="&#xb2;" horiz-adv-x="232" d="M42 312 L182 312 L182 333 L67 333 L159 580 C171 611 181 646 181 679 C181 722 164 745 106 745 C80 745 58 740 40 732 L50 713 C65 720 84 724 106 724 C146 724 158 708 158 679 C158 649 148 616 137 587 L42 332 L42 312 Z " />
<glyph glyph-name="threesuperior" unicode="&#xb3;" horiz-adv-x="228" d="M99 308 C167 308 177 345 177 430 C177 502 175 539 136 553 C166 569 171 603 171 655 C171 719 162 741 102 741 C78 741 53 737 38 731 L46 711 C59 716 81 720 102 720 C142 720 148 704 148 655 C148 596 141 562 86 562 L67 562 L67 541 L86 541 C151 541 154 510 154 430 C154 360 147 329 99 329 C76 329 52 336 40 341 L31 321 C45 315 73 308 99 308 L99 308 Z " />
<glyph glyph-name="acute" unicode="&#xb4;" horiz-adv-x="319" d="M130 603 L153 603 L240 731 L214 731 L130 603 Z " />
<glyph glyph-name="&amp;#xb5;" unicode="&#xb5;" horiz-adv-x="337" d="M47 -152 L71 -152 L71 40 C90 10 121 -5 170 -5 C213 -5 240 6 259 24 C285 50 292 91 292 149 L292 542 L269 542 L269 149 C269 65 252 18 170 18 C88 18 71 66 71 147 L71 542 L47 542 L47 -152 Z " />
<glyph glyph-name="&amp;#x3bc;" unicode="&#x3bc;" horiz-adv-x="337" d="M47 -152 L71 -152 L71 40 C90 10 121 -5 170 -5 C213 -5 240 6 259 24 C285 50 292 91 292 149 L292 542 L269 542 L269 149 C269 65 252 18 170 18 C88 18 71 66 71 147 L71 542 L47 542 L47 -152 Z " />
<glyph glyph-name="paragraph" unicode="&#xb6;" horiz-adv-x="323" d="M148 0 L172 0 L172 333 C180 332 188 332 197 332 L243 332 L243 0 L267 0 L267 741 L199 741 C67 741 33 693 33 538 C33 405 58 348 148 335 L148 0 Z M197 355 C82 355 57 398 57 538 C57 677 82 718 199 718 L243 718 L243 355 L197 355 Z " />
<glyph glyph-name="&amp;#xb7;" unicode="&#xb7;" horiz-adv-x="123" d="M44 275 L79 275 L79 336 L44 336 L44 275 Z " />
<glyph glyph-name="&amp;#x2219;" unicode="&#x2219;" horiz-adv-x="123" d="M44 275 L79 275 L79 336 L44 336 L44 275 Z " />
<glyph glyph-name="cedilla" unicode="&#xb8;" horiz-adv-x="319" d="M163 -183 C214 -183 235 -168 235 -111 C235 -62 216 -47 172 -49 L182 8 L157 8 L146 -58 L162 -70 C201 -67 211 -76 211 -111 C211 -150 200 -160 163 -160 C145 -160 130 -156 116 -150 L106 -171 C125 -180 142 -183 163 -183 L163 -183 Z " />
<glyph glyph-name="onesuperior" unicode="&#xb9;" horiz-adv-x="180" d="M86 312 L109 312 L109 741 L38 741 L38 720 L86 720 L86 312 Z " />
<glyph glyph-name="ordmasculine" unicode="&#xba;" horiz-adv-x="308" d="M154 294 C187 294 210 302 226 318 C261 352 264 420 264 520 C264 619 262 686 228 721 C211 737 189 746 154 746 C120 746 97 737 81 722 C46 688 44 620 44 520 C44 419 46 349 82 317 C99 302 121 294 154 294 L154 294 Z M154 315 C69 315 66 388 66 520 C66 651 69 725 154 725 C239 725 242 651 242 520 C242 388 239 315 154 315 L154 315 Z M54 193 L254 193 L254 216 L54 216 L54 193 Z " />
<glyph glyph-name="guillemotright" unicode="&#xbb;" horiz-adv-x="341" d="M62 0 L86 0 L167 271 L86 542 L62 542 L143 271 L62 0 Z M181 0 L205 0 L286 271 L205 542 L181 542 L262 271 L181 0 Z " />
<glyph glyph-name="onequarter" unicode="&#xbc;" horiz-adv-x="420" d="M82 0 L106 0 L310 741 L286 741 L82 0 Z M213 108 L320 108 L320 0 L342 0 L342 108 L386 108 L386 129 L342 129 L342 266 L324 266 L320 129 L235 129 L340 429 L317 429 L213 129 L213 108 Z M86 312 L109 312 L109 741 L38 741 L38 720 L86 720 L86 312 Z " />
<glyph glyph-name="onehalf" unicode="&#xbd;" horiz-adv-x="460" d="M82 0 L106 0 L310 741 L286 741 L82 0 Z M86 312 L109 312 L109 741 L38 741 L38 720 L86 720 L86 312 Z M263 0 L403 0 L403 21 L288 21 L380 268 C392 299 402 334 402 367 C402 410 385 433 327 433 C301 433 279 428 261 420 L271 401 C286 408 305 412 327 412 C367 412 379 396 379 367 C379 337 369 304 358 275 L263 20 L263 0 Z " />
<glyph glyph-name="threequarters" unicode="&#xbe;" horiz-adv-x="470" d="M132 0 L156 0 L360 741 L336 741 L132 0 Z M103 308 C171 308 181 345 181 430 C181 502 179 539 140 553 C170 569 175 603 175 655 C175 719 166 741 106 741 C82 741 57 737 42 731 L50 711 C63 716 85 720 106 720 C146 720 152 704 152 655 C152 596 145 562 90 562 L71 562 L71 541 L90 541 C155 541 158 510 158 430 C158 360 151 329 103 329 C80 329 56 336 44 341 L35 321 C49 315 77 308 103 308 L103 308 Z M263 108 L370 108 L370 0 L392 0 L392 108 L436 108 L436 129 L392 129 L392 266 L374 266 L370 129 L285 129 L390 429 L367 429 L263 129 L263 108 Z " />
<glyph glyph-name="questiondown" unicode="&#xbf;" horiz-adv-x="339" d="M171 -5 C215 -5 255 5 285 18 L275 39 C248 27 211 18 171 18 C98 18 77 65 77 115 C77 152 86 188 99 215 L164 352 C191 409 192 448 193 551 L169 551 C168 446 164 406 143 362 L78 225 C66 199 53 156 53 115 C53 53 79 -5 171 -5 L171 -5 Z M164 680 L199 680 L199 741 L164 741 L164 680 Z " />
<glyph glyph-name="Agrave" unicode="&#xc0;" horiz-adv-x="359" d="M20 0 L42 0 L83 207 L275 207 L316 0 L339 0 L191 743 L168 743 L20 0 Z M88 229 L158 581 L179 690 L200 581 L270 229 L88 229 Z M186 788 L209 788 L125 916 L99 916 L186 788 Z " />
<glyph glyph-name="Aacute" unicode="&#xc1;" horiz-adv-x="359" d="M20 0 L42 0 L83 207 L275 207 L316 0 L339 0 L191 743 L168 743 L20 0 Z M88 229 L158 581 L179 690 L200 581 L270 229 L88 229 Z M150 788 L173 788 L260 916 L234 916 L150 788 Z " />
<glyph glyph-name="Acircumflex" unicode="&#xc2;" horiz-adv-x="359" d="M20 0 L42 0 L83 207 L275 207 L316 0 L339 0 L191 743 L168 743 L20 0 Z M88 229 L158 581 L179 690 L200 581 L270 229 L88 229 Z M88 788 L111 788 L179 894 L247 788 L271 788 L190 916 L169 916 L88 788 Z " />
<glyph glyph-name="Atilde" unicode="&#xc3;" horiz-adv-x="359" d="M20 0 L42 0 L83 207 L275 207 L316 0 L339 0 L191 743 L168 743 L20 0 Z M88 229 L158 581 L179 690 L200 581 L270 229 L88 229 Z M111 788 C113 810 120 819 139 819 C161 819 191 788 219 788 C250 788 266 805 270 840 L247 842 C245 820 238 811 219 811 C197 811 167 842 139 842 C107 842 92 825 88 790 L111 788 Z " />
<glyph glyph-name="Adieresis" unicode="&#xc4;" horiz-adv-x="359" d="M20 0 L42 0 L83 207 L275 207 L316 0 L339 0 L191 743 L168 743 L20 0 Z M88 229 L158 581 L179 690 L200 581 L270 229 L88 229 Z M111 788 L135 788 L135 855 L111 855 L111 788 Z M224 788 L248 788 L248 855 L224 855 L224 788 Z " />
<glyph glyph-name="Aring" unicode="&#xc5;" horiz-adv-x="359" d="M20 0 L42 0 L83 207 L275 207 L316 0 L339 0 L194 725 C237 731 241 767 241 812 C241 863 236 901 179 901 C122 901 117 863 117 812 C117 766 121 731 164 725 L20 0 Z M88 229 L158 581 L179 690 L200 581 L270 229 L88 229 Z M179 745 C142 745 139 773 139 812 C139 853 142 880 179 880 C216 880 219 853 219 812 C219 772 216 745 179 745 L179 745 Z " />
<glyph glyph-name="AE" unicode="&#xc6;" horiz-adv-x="534" d="M9 0 L34 0 L97 204 L257 204 L257 0 L497 0 L497 23 L281 23 L281 373 L481 373 L481 396 L281 396 L281 718 L495 718 L495 741 L239 741 L9 0 Z M104 227 L257 721 L257 227 L104 227 Z " />
<glyph glyph-name="Ccedilla" unicode="&#xc7;" horiz-adv-x="324" d="M166 -183 C217 -183 238 -168 238 -111 C238 -62 219 -47 175 -49 L183 -4 C188 -5 193 -5 199 -5 C241 -5 272 2 301 13 L293 35 C266 25 237 18 199 18 C72 18 59 125 59 370 C59 615 72 723 199 723 C234 723 263 717 291 708 L298 730 C268 740 237 746 199 746 C152 746 118 734 94 710 C42 658 35 548 35 370 C35 192 42 83 94 31 C110 14 131 3 158 -1 L149 -58 L165 -70 C204 -67 214 -76 214 -111 C214 -150 203 -160 166 -160 C148 -160 133 -156 119 -150 L109 -171 C128 -180 145 -183 166 -183 L166 -183 Z " />
<glyph glyph-name="Egrave" unicode="&#xc8;" horiz-adv-x="330" d="M53 0 L293 0 L293 23 L77 23 L77 373 L284 373 L284 396 L77 396 L77 718 L293 718 L293 741 L53 741 L53 0 Z M172 788 L195 788 L111 916 L85 916 L172 788 Z " />
<glyph glyph-name="Eacute" unicode="&#xc9;" horiz-adv-x="330" d="M53 0 L293 0 L293 23 L77 23 L77 373 L284 373 L284 396 L77 396 L77 718 L293 718 L293 741 L53 741 L53 0 Z M136 788 L159 788 L246 916 L220 916 L136 788 Z " />
<glyph glyph-name="Ecircumflex" unicode="&#xca;" horiz-adv-x="330" d="M53 0 L293 0 L293 23 L77 23 L77 373 L284 373 L284 396 L77 396 L77 718 L293 718 L293 741 L53 741 L53 0 Z M74 788 L97 788 L165 894 L233 788 L257 788 L176 916 L155 916 L74 788 Z " />
<glyph glyph-name="Edieresis" unicode="&#xcb;" horiz-adv-x="330" d="M53 0 L293 0 L293 23 L77 23 L77 373 L284 373 L284 396 L77 396 L77 718 L293 718 L293 741 L53 741 L53 0 Z M97 788 L121 788 L121 855 L97 855 L97 788 Z M210 788 L234 788 L234 855 L210 855 L210 788 Z " />
<glyph glyph-name="Igrave" unicode="&#xcc;" horiz-adv-x="138" d="M58 788 L81 788 L15 916 L-11 916 L58 788 Z M57 0 L81 0 L81 741 L57 741 L57 0 Z " />
<glyph glyph-name="Iacute" unicode="&#xcd;" horiz-adv-x="138" d="M57 788 L80 788 L150 916 L124 916 L57 788 Z M57 0 L81 0 L81 741 L57 741 L57 0 Z " />
<glyph glyph-name="Icircumflex" unicode="&#xce;" horiz-adv-x="138" d="M-12 788 L11 788 L69 894 L127 788 L151 788 L80 916 L59 916 L-12 788 Z M57 0 L81 0 L81 741 L57 741 L57 0 Z " />
<glyph glyph-name="Idieresis" unicode="&#xcf;" horiz-adv-x="138" d="M57 0 L81 0 L81 741 L57 741 L57 0 Z M1 788 L25 788 L25 855 L1 855 L1 788 Z M114 788 L138 788 L138 855 L114 855 L114 788 Z " />
<glyph glyph-name="Eth" unicode="&#xd0;" horiz-adv-x="387" d="M3 373 L53 373 L53 0 L168 0 C230 0 271 13 298 39 C349 87 353 186 353 371 C353 545 349 645 303 696 C276 726 233 741 168 741 L53 741 L53 396 L3 396 L3 373 Z M77 23 L77 373 L190 373 L190 396 L77 396 L77 718 L168 718 C320 718 329 632 329 371 C329 104 320 23 168 23 L77 23 Z " />
<glyph glyph-name="Ntilde" unicode="&#xd1;" horiz-adv-x="388" d="M53 0 L76 0 L76 688 L104 603 L311 0 L335 0 L335 741 L313 741 L313 61 L282 154 L81 741 L53 741 L53 0 Z M126 788 C128 810 135 819 154 819 C176 819 206 788 234 788 C265 788 281 805 285 840 L262 842 C260 820 253 811 234 811 C212 811 182 842 154 842 C122 842 107 825 103 790 L126 788 Z " />
<glyph glyph-name="Ograve" unicode="&#xd2;" horiz-adv-x="407" d="M204 -6 C253 -6 288 6 313 30 C366 82 372 192 372 370 C372 544 366 652 317 706 C292 733 256 747 204 747 C152 747 115 733 90 706 C40 652 35 544 35 370 C35 193 41 83 94 31 C119 6 154 -6 204 -6 L204 -6 Z M204 17 C70 17 59 125 59 370 C59 616 70 724 204 724 C337 724 348 616 348 370 C348 125 338 17 204 17 L204 17 Z M210 788 L233 788 L149 916 L123 916 L210 788 Z " />
<glyph glyph-name="Oacute" unicode="&#xd3;" horiz-adv-x="407" d="M204 -6 C253 -6 288 6 313 30 C366 82 372 192 372 370 C372 544 366 652 317 706 C292 733 256 747 204 747 C152 747 115 733 90 706 C40 652 35 544 35 370 C35 193 41 83 94 31 C119 6 154 -6 204 -6 L204 -6 Z M204 17 C70 17 59 125 59 370 C59 616 70 724 204 724 C337 724 348 616 348 370 C348 125 338 17 204 17 L204 17 Z M174 788 L197 788 L284 916 L258 916 L174 788 Z " />
<glyph glyph-name="Ocircumflex" unicode="&#xd4;" horiz-adv-x="407" d="M204 -6 C253 -6 288 6 313 30 C366 82 372 192 372 370 C372 544 366 652 317 706 C292 733 256 747 204 747 C152 747 115 733 90 706 C40 652 35 544 35 370 C35 193 41 83 94 31 C119 6 154 -6 204 -6 L204 -6 Z M204 17 C70 17 59 125 59 370 C59 616 70 724 204 724 C337 724 348 616 348 370 C348 125 338 17 204 17 L204 17 Z M112 788 L135 788 L203 894 L271 788 L295 788 L214 916 L193 916 L112 788 Z " />
<glyph glyph-name="Otilde" unicode="&#xd5;" horiz-adv-x="407" d="M204 -6 C253 -6 288 6 313 30 C366 82 372 192 372 370 C372 544 366 652 317 706 C292 733 256 747 204 747 C152 747 115 733 90 706 C40 652 35 544 35 370 C35 193 41 83 94 31 C119 6 154 -6 204 -6 L204 -6 Z M204 17 C70 17 59 125 59 370 C59 616 70 724 204 724 C337 724 348 616 348 370 C348 125 338 17 204 17 L204 17 Z M135 788 C137 810 144 819 163 819 C185 819 215 788 243 788 C274 788 290 805 294 840 L271 842 C269 820 262 811 243 811 C221 811 191 842 163 842 C131 842 116 825 112 790 L135 788 Z " />
<glyph glyph-name="Odieresis" unicode="&#xd6;" horiz-adv-x="407" d="M204 -6 C253 -6 288 6 313 30 C366 82 372 192 372 370 C372 544 366 652 317 706 C292 733 256 747 204 747 C152 747 115 733 90 706 C40 652 35 544 35 370 C35 193 41 83 94 31 C119 6 154 -6 204 -6 L204 -6 Z M204 17 C70 17 59 125 59 370 C59 616 70 724 204 724 C337 724 348 616 348 370 C348 125 338 17 204 17 L204 17 Z M135 788 L159 788 L159 855 L135 855 L135 788 Z M248 788 L272 788 L272 855 L248 855 L248 788 Z " />
<glyph glyph-name="multiply" unicode="&#xd7;" horiz-adv-x="359" d="M90 267 L179 355 L268 266 L283 281 L194 370 L283 459 L268 474 L179 385 L90 475 L75 460 L164 370 L75 282 L90 267 Z " />
<glyph glyph-name="Oslash" unicode="&#xd8;" horiz-adv-x="407" d="M91 -41 L115 -41 L127 8 C147 -1 173 -6 204 -6 C253 -6 288 6 313 30 C366 82 372 192 372 370 C372 544 366 652 317 706 C312 711 306 716 300 721 L315 783 L291 783 L279 733 C258 742 234 747 204 747 C152 747 115 733 90 706 C40 652 35 544 35 370 C35 193 41 83 94 31 C98 27 102 23 106 20 L91 -41 Z M204 17 C174 17 151 22 132 33 L293 696 C343 650 348 546 348 370 C348 125 338 17 204 17 L204 17 Z M59 370 C59 616 70 724 204 724 C232 724 255 719 274 709 L113 46 C64 93 59 196 59 370 L59 370 Z " />
<glyph glyph-name="Ugrave" unicode="&#xd9;" horiz-adv-x="394" d="M197 -5 C246 -5 279 6 301 26 C337 59 344 117 344 194 L344 741 L321 741 L321 194 C321 83 303 18 197 18 C92 18 74 83 74 194 L74 741 L50 741 L50 194 C50 116 59 59 95 26 C117 6 150 -5 197 -5 L197 -5 Z M204 788 L227 788 L143 916 L117 916 L204 788 Z " />
<glyph glyph-name="Uacute" unicode="&#xda;" horiz-adv-x="394" d="M197 -5 C246 -5 279 6 301 26 C337 59 344 117 344 194 L344 741 L321 741 L321 194 C321 83 303 18 197 18 C92 18 74 83 74 194 L74 741 L50 741 L50 194 C50 116 59 59 95 26 C117 6 150 -5 197 -5 L197 -5 Z M168 788 L191 788 L278 916 L252 916 L168 788 Z " />
<glyph glyph-name="Ucircumflex" unicode="&#xdb;" horiz-adv-x="394" d="M197 -5 C246 -5 279 6 301 26 C337 59 344 117 344 194 L344 741 L321 741 L321 194 C321 83 303 18 197 18 C92 18 74 83 74 194 L74 741 L50 741 L50 194 C50 116 59 59 95 26 C117 6 150 -5 197 -5 L197 -5 Z M106 788 L129 788 L197 894 L265 788 L289 788 L208 916 L187 916 L106 788 Z " />
<glyph glyph-name="Udieresis" unicode="&#xdc;" horiz-adv-x="394" d="M197 -5 C246 -5 279 6 301 26 C337 59 344 117 344 194 L344 741 L321 741 L321 194 C321 83 303 18 197 18 C92 18 74 83 74 194 L74 741 L50 741 L50 194 C50 116 59 59 95 26 C117 6 150 -5 197 -5 L197 -5 Z M129 788 L153 788 L153 855 L129 855 L129 788 Z M242 788 L266 788 L266 855 L242 855 L242 788 Z " />
<glyph glyph-name="Yacute" unicode="&#xdd;" horiz-adv-x="350" d="M163 0 L187 0 L187 279 L335 741 L313 741 L175 312 L38 741 L15 741 L163 279 L163 0 Z M146 788 L169 788 L256 916 L230 916 L146 788 Z " />
<glyph glyph-name="Thorn" unicode="&#xde;" horiz-adv-x="364" d="M53 0 L77 0 L77 187 L167 187 C297 187 331 239 331 393 C331 548 297 596 165 596 L77 596 L77 741 L53 741 L53 0 Z M77 210 L77 573 L165 573 C282 573 307 532 307 393 C307 253 282 210 167 210 L77 210 Z " />
<glyph glyph-name="germandbls" unicode="&#xdf;" horiz-adv-x="339" d="M47 0 L71 0 L71 604 C71 665 72 740 169 740 C266 740 267 671 267 570 C267 473 265 411 169 411 L158 411 L158 388 L169 388 C272 388 285 349 285 206 C285 58 250 23 169 23 L125 23 L125 0 L169 0 C267 0 309 39 309 206 C309 331 299 384 238 402 C289 428 291 487 291 570 C291 685 290 763 169 763 C48 763 47 675 47 604 L47 0 Z " />
<glyph glyph-name="agrave" unicode="&#xe0;" horiz-adv-x="328" d="M132 -3 C194 -3 223 22 240 60 C240 16 251 0 297 0 L301 0 L301 23 C268 23 264 35 264 79 L264 370 C264 442 264 493 237 522 C222 538 197 548 159 548 C125 548 85 541 63 533 L71 510 C94 519 132 525 159 525 C240 525 240 470 240 370 L228 370 C85 370 33 339 33 178 C33 49 51 -3 132 -3 L132 -3 Z M132 20 C72 20 57 67 57 178 C57 319 94 347 228 347 L240 347 L240 188 C240 118 239 20 132 20 L132 20 Z M171 603 L194 603 L110 731 L84 731 L171 603 Z " />
<glyph glyph-name="aacute" unicode="&#xe1;" horiz-adv-x="328" d="M132 -3 C194 -3 223 22 240 60 C240 16 251 0 297 0 L301 0 L301 23 C268 23 264 35 264 79 L264 370 C264 442 264 493 237 522 C222 538 197 548 159 548 C125 548 85 541 63 533 L71 510 C94 519 132 525 159 525 C240 525 240 470 240 370 L228 370 C85 370 33 339 33 178 C33 49 51 -3 132 -3 L132 -3 Z M132 20 C72 20 57 67 57 178 C57 319 94 347 228 347 L240 347 L240 188 C240 118 239 20 132 20 L132 20 Z M135 603 L158 603 L245 731 L219 731 L135 603 Z " />
<glyph glyph-name="acircumflex" unicode="&#xe2;" horiz-adv-x="328" d="M132 -3 C194 -3 223 22 240 60 C240 16 251 0 297 0 L301 0 L301 23 C268 23 264 35 264 79 L264 370 C264 442 264 493 237 522 C222 538 197 548 159 548 C125 548 85 541 63 533 L71 510 C94 519 132 525 159 525 C240 525 240 470 240 370 L228 370 C85 370 33 339 33 178 C33 49 51 -3 132 -3 L132 -3 Z M132 20 C72 20 57 67 57 178 C57 319 94 347 228 347 L240 347 L240 188 C240 118 239 20 132 20 L132 20 Z M73 603 L96 603 L164 709 L232 603 L256 603 L175 731 L154 731 L73 603 Z " />
<glyph glyph-name="atilde" unicode="&#xe3;" horiz-adv-x="328" d="M132 -3 C194 -3 223 22 240 60 C240 16 251 0 297 0 L301 0 L301 23 C268 23 264 35 264 79 L264 370 C264 442 264 493 237 522 C222 538 197 548 159 548 C125 548 85 541 63 533 L71 510 C94 519 132 525 159 525 C240 525 240 470 240 370 L228 370 C85 370 33 339 33 178 C33 49 51 -3 132 -3 L132 -3 Z M132 20 C72 20 57 67 57 178 C57 319 94 347 228 347 L240 347 L240 188 C240 118 239 20 132 20 L132 20 Z M96 603 C98 625 105 634 124 634 C146 634 176 603 204 603 C235 603 251 620 255 655 L232 657 C230 635 223 626 204 626 C182 626 152 657 124 657 C92 657 77 640 73 605 L96 603 Z " />
<glyph glyph-name="adieresis" unicode="&#xe4;" horiz-adv-x="328" d="M132 -3 C194 -3 223 22 240 60 C240 16 251 0 297 0 L301 0 L301 23 C268 23 264 35 264 79 L264 370 C264 442 264 493 237 522 C222 538 197 548 159 548 C125 548 85 541 63 533 L71 510 C94 519 132 525 159 525 C240 525 240 470 240 370 L228 370 C85 370 33 339 33 178 C33 49 51 -3 132 -3 L132 -3 Z M132 20 C72 20 57 67 57 178 C57 319 94 347 228 347 L240 347 L240 188 C240 118 239 20 132 20 L132 20 Z M96 603 L120 603 L120 670 L96 670 L96 603 Z M209 603 L233 603 L233 670 L209 670 L209 603 Z " />
<glyph glyph-name="aring" unicode="&#xe5;" horiz-adv-x="328" d="M132 -3 C194 -3 223 22 240 60 C240 16 251 0 297 0 L301 0 L301 23 C268 23 264 35 264 79 L264 370 C264 442 264 493 237 522 C222 538 197 548 159 548 C125 548 85 541 63 533 L71 510 C94 519 132 525 159 525 C240 525 240 470 240 370 L228 370 C85 370 33 339 33 178 C33 49 51 -3 132 -3 L132 -3 Z M132 20 C72 20 57 67 57 178 C57 319 94 347 228 347 L240 347 L240 188 C240 118 239 20 132 20 L132 20 Z M164 600 C221 600 226 638 226 688 C226 739 221 777 164 777 C107 777 102 739 102 688 C102 638 107 600 164 600 L164 600 Z M164 621 C127 621 124 649 124 688 C124 729 127 756 164 756 C201 756 204 729 204 688 C204 648 201 621 164 621 L164 621 Z " />
<glyph glyph-name="ae" unicode="&#xe6;" horiz-adv-x="505" d="M363 -5 C407 -5 437 2 468 13 L460 35 C431 25 403 18 363 18 C269 18 263 119 263 268 L476 268 C476 415 473 482 437 521 C421 539 397 548 364 548 C328 548 301 537 283 518 C272 506 263 492 257 475 C254 494 248 510 237 522 C222 538 197 548 159 548 C125 548 85 541 63 533 L71 510 C94 519 132 525 159 525 C240 525 240 470 240 370 L228 370 C85 370 33 339 33 178 C33 49 51 -3 132 -3 C191 -3 230 14 253 87 C260 59 271 36 288 21 C306 5 330 -5 363 -5 L363 -5 Z M132 20 C72 20 57 67 57 178 C57 319 94 347 228 347 L240 347 L240 210 C240 118 239 20 132 20 L132 20 Z M364 525 C447 525 451 446 452 291 L263 291 C263 432 272 525 364 525 L364 525 Z " />
<glyph glyph-name="ccedilla" unicode="&#xe7;" horiz-adv-x="242" d="M125 -183 C176 -183 197 -168 197 -111 C197 -62 178 -47 134 -49 L142 -4 C146 -5 151 -5 156 -5 C182 -5 206 1 221 7 L212 28 C200 23 179 18 156 18 C61 18 56 121 56 273 C56 425 61 525 156 525 C178 525 197 521 213 517 L219 539 C201 544 180 548 156 548 C119 548 92 536 74 516 C35 472 32 387 32 273 C32 153 35 63 81 21 C91 12 103 4 117 0 L108 -58 L124 -70 C163 -67 173 -76 173 -111 C173 -150 162 -160 125 -160 C107 -160 92 -156 78 -150 L68 -171 C87 -180 104 -183 125 -183 L125 -183 Z " />
<glyph glyph-name="egrave" unicode="&#xe8;" horiz-adv-x="298" d="M156 -5 C200 -5 230 2 261 13 L253 35 C224 25 196 18 156 18 C62 18 56 119 56 268 L269 268 C269 415 266 482 230 521 C214 539 190 548 157 548 C121 548 94 537 76 518 C34 475 32 388 32 273 C32 154 36 63 81 21 C99 5 123 -5 156 -5 L156 -5 Z M157 525 C240 525 244 446 245 291 L56 291 C56 432 65 525 157 525 L157 525 Z M156 603 L179 603 L95 731 L69 731 L156 603 Z " />
<glyph glyph-name="eacute" unicode="&#xe9;" horiz-adv-x="298" d="M156 -5 C200 -5 230 2 261 13 L253 35 C224 25 196 18 156 18 C62 18 56 119 56 268 L269 268 C269 415 266 482 230 521 C214 539 190 548 157 548 C121 548 94 537 76 518 C34 475 32 388 32 273 C32 154 36 63 81 21 C99 5 123 -5 156 -5 L156 -5 Z M157 525 C240 525 244 446 245 291 L56 291 C56 432 65 525 157 525 L157 525 Z M120 603 L143 603 L230 731 L204 731 L120 603 Z " />
<glyph glyph-name="ecircumflex" unicode="&#xea;" horiz-adv-x="298" d="M156 -5 C200 -5 230 2 261 13 L253 35 C224 25 196 18 156 18 C62 18 56 119 56 268 L269 268 C269 415 266 482 230 521 C214 539 190 548 157 548 C121 548 94 537 76 518 C34 475 32 388 32 273 C32 154 36 63 81 21 C99 5 123 -5 156 -5 L156 -5 Z M157 525 C240 525 244 446 245 291 L56 291 C56 432 65 525 157 525 L157 525 Z M58 603 L81 603 L149 709 L217 603 L241 603 L160 731 L139 731 L58 603 Z " />
<glyph glyph-name="edieresis" unicode="&#xeb;" horiz-adv-x="298" d="M156 -5 C200 -5 230 2 261 13 L253 35 C224 25 196 18 156 18 C62 18 56 119 56 268 L269 268 C269 415 266 482 230 521 C214 539 190 548 157 548 C121 548 94 537 76 518 C34 475 32 388 32 273 C32 154 36 63 81 21 C99 5 123 -5 156 -5 L156 -5 Z M157 525 C240 525 244 446 245 291 L56 291 C56 432 65 525 157 525 L157 525 Z M81 603 L105 603 L105 670 L81 670 L81 603 Z M194 603 L218 603 L218 670 L194 670 L194 603 Z " />
<glyph glyph-name="igrave" unicode="&#xec;" horiz-adv-x="124" d="M51 603 L74 603 L28 731 L2 731 L51 603 Z M50 0 L74 0 L74 542 L50 542 L50 0 Z " />
<glyph glyph-name="iacute" unicode="&#xed;" horiz-adv-x="124" d="M50 603 L73 603 L123 731 L97 731 L50 603 Z M50 0 L74 0 L74 542 L50 542 L50 0 Z " />
<glyph glyph-name="icircumflex" unicode="&#xee;" horiz-adv-x="124" d="M-19 603 L4 603 L62 709 L120 603 L144 603 L73 731 L52 731 L-19 603 Z M50 0 L74 0 L74 542 L50 542 L50 0 Z " />
<glyph glyph-name="idieresis" unicode="&#xef;" horiz-adv-x="124" d="M4 603 L28 603 L28 670 L4 670 L4 603 Z M97 603 L121 603 L121 670 L97 670 L97 603 Z M50 0 L74 0 L74 542 L50 542 L50 0 Z " />
<glyph glyph-name="eth" unicode="&#xf0;" horiz-adv-x="332" d="M138 632 L215 657 C236 607 250 557 259 510 C239 534 210 548 166 548 C125 548 97 537 77 518 C34 477 32 393 32 271 C32 148 35 63 79 23 C99 5 126 -5 166 -5 C206 -5 234 5 254 24 C297 65 300 149 300 271 L300 316 C299 403 294 531 237 665 L301 686 L301 710 L228 686 C216 712 201 738 185 764 L165 752 C180 727 194 703 205 678 L138 656 L138 632 Z M166 18 C60 18 56 108 56 271 C56 434 60 525 166 525 C272 525 276 434 276 271 C276 108 272 18 166 18 L166 18 Z " />
<glyph glyph-name="ntilde" unicode="&#xf1;" horiz-adv-x="340" d="M47 0 L71 0 L71 326 C71 448 79 525 184 525 C256 525 271 490 271 370 L271 0 L295 0 L295 370 C295 436 294 490 265 521 C249 538 224 548 186 548 C108 548 82 513 70 482 L67 541 L47 540 L47 0 Z M102 603 C104 625 111 634 130 634 C152 634 182 603 210 603 C241 603 257 620 261 655 L238 657 C236 635 229 626 210 626 C188 626 158 657 130 657 C98 657 83 640 79 605 L102 603 Z " />
<glyph glyph-name="ograve" unicode="&#xf2;" horiz-adv-x="332" d="M166 -5 C206 -5 234 5 254 24 C297 65 300 149 300 271 C300 392 298 475 256 517 C236 537 208 548 166 548 C125 548 97 537 77 518 C34 477 32 393 32 271 C32 148 35 63 79 23 C99 5 126 -5 166 -5 L166 -5 Z M166 18 C60 18 56 108 56 271 C56 434 60 525 166 525 C272 525 276 434 276 271 C276 108 272 18 166 18 L166 18 Z M173 603 L196 603 L112 731 L86 731 L173 603 Z " />
<glyph glyph-name="oacute" unicode="&#xf3;" horiz-adv-x="332" d="M166 -5 C206 -5 234 5 254 24 C297 65 300 149 300 271 C300 392 298 475 256 517 C236 537 208 548 166 548 C125 548 97 537 77 518 C34 477 32 393 32 271 C32 148 35 63 79 23 C99 5 126 -5 166 -5 L166 -5 Z M166 18 C60 18 56 108 56 271 C56 434 60 525 166 525 C272 525 276 434 276 271 C276 108 272 18 166 18 L166 18 Z M137 603 L160 603 L247 731 L221 731 L137 603 Z " />
<glyph glyph-name="ocircumflex" unicode="&#xf4;" horiz-adv-x="332" d="M166 -5 C206 -5 234 5 254 24 C297 65 300 149 300 271 C300 392 298 475 256 517 C236 537 208 548 166 548 C125 548 97 537 77 518 C34 477 32 393 32 271 C32 148 35 63 79 23 C99 5 126 -5 166 -5 L166 -5 Z M166 18 C60 18 56 108 56 271 C56 434 60 525 166 525 C272 525 276 434 276 271 C276 108 272 18 166 18 L166 18 Z M75 603 L98 603 L166 709 L234 603 L258 603 L177 731 L156 731 L75 603 Z " />
<glyph glyph-name="otilde" unicode="&#xf5;" horiz-adv-x="332" d="M166 -5 C206 -5 234 5 254 24 C297 65 300 149 300 271 C300 392 298 475 256 517 C236 537 208 548 166 548 C125 548 97 537 77 518 C34 477 32 393 32 271 C32 148 35 63 79 23 C99 5 126 -5 166 -5 L166 -5 Z M166 18 C60 18 56 108 56 271 C56 434 60 525 166 525 C272 525 276 434 276 271 C276 108 272 18 166 18 L166 18 Z M98 603 C100 625 107 634 126 634 C148 634 178 603 206 603 C237 603 253 620 257 655 L234 657 C232 635 225 626 206 626 C184 626 154 657 126 657 C94 657 79 640 75 605 L98 603 Z " />
<glyph glyph-name="odieresis" unicode="&#xf6;" horiz-adv-x="332" d="M166 -5 C206 -5 234 5 254 24 C297 65 300 149 300 271 C300 392 298 475 256 517 C236 537 208 548 166 548 C125 548 97 537 77 518 C34 477 32 393 32 271 C32 148 35 63 79 23 C99 5 126 -5 166 -5 L166 -5 Z M166 18 C60 18 56 108 56 271 C56 434 60 525 166 525 C272 525 276 434 276 271 C276 108 272 18 166 18 L166 18 Z M98 603 L122 603 L122 670 L98 670 L98 603 Z M211 603 L235 603 L235 670 L211 670 L211 603 Z " />
<glyph glyph-name="divide" unicode="&#xf7;" horiz-adv-x="359" d="M164 213 L195 213 L195 266 L164 266 L164 213 Z M62 359 L296 359 L296 382 L62 382 L62 359 Z M164 471 L195 471 L195 524 L164 524 L164 471 Z " />
<glyph glyph-name="oslash" unicode="&#xf8;" horiz-adv-x="332" d="M166 -5 C206 -5 234 5 254 24 C297 65 300 149 300 271 C300 389 298 471 258 514 L281 582 L258 582 L240 529 C222 541 198 548 166 548 C125 548 97 537 77 518 C34 477 32 393 32 271 C32 153 35 70 74 28 L51 -40 L74 -40 L91 13 C110 1 134 -5 166 -5 L166 -5 Z M56 271 C56 434 60 525 166 525 C195 525 217 517 233 504 L84 56 C57 97 56 170 56 271 L56 271 Z M166 18 C136 18 115 25 99 38 L248 486 C274 445 276 372 276 271 C276 108 272 18 166 18 L166 18 Z " />
<glyph glyph-name="ugrave" unicode="&#xf9;" horiz-adv-x="335" d="M168 -5 C211 -5 238 6 257 24 C283 50 290 91 290 149 L290 542 L267 542 L267 149 C267 65 250 18 168 18 C86 18 69 66 69 147 L69 542 L45 542 L45 147 C45 89 53 46 82 21 C101 4 128 -5 168 -5 L168 -5 Z M174 603 L197 603 L113 731 L87 731 L174 603 Z " />
<glyph glyph-name="uacute" unicode="&#xfa;" horiz-adv-x="335" d="M168 -5 C211 -5 238 6 257 24 C283 50 290 91 290 149 L290 542 L267 542 L267 149 C267 65 250 18 168 18 C86 18 69 66 69 147 L69 542 L45 542 L45 147 C45 89 53 46 82 21 C101 4 128 -5 168 -5 L168 -5 Z M138 603 L161 603 L248 731 L222 731 L138 603 Z " />
<glyph glyph-name="ucircumflex" unicode="&#xfb;" horiz-adv-x="335" d="M168 -5 C211 -5 238 6 257 24 C283 50 290 91 290 149 L290 542 L267 542 L267 149 C267 65 250 18 168 18 C86 18 69 66 69 147 L69 542 L45 542 L45 147 C45 89 53 46 82 21 C101 4 128 -5 168 -5 L168 -5 Z M76 603 L99 603 L167 709 L235 603 L259 603 L178 731 L157 731 L76 603 Z " />
<glyph glyph-name="udieresis" unicode="&#xfc;" horiz-adv-x="335" d="M168 -5 C211 -5 238 6 257 24 C283 50 290 91 290 149 L290 542 L267 542 L267 149 C267 65 250 18 168 18 C86 18 69 66 69 147 L69 542 L45 542 L45 147 C45 89 53 46 82 21 C101 4 128 -5 168 -5 L168 -5 Z M99 603 L123 603 L123 670 L99 670 L99 603 Z M212 603 L236 603 L236 670 L212 670 L212 603 Z " />
<glyph glyph-name="yacute" unicode="&#xfd;" horiz-adv-x="279" d="M64 -152 C107 -151 125 -134 132 -97 L268 542 L245 542 L161 147 L140 43 L119 148 L35 542 L11 542 L128 -6 L109 -96 C103 -121 96 -129 64 -129 L40 -129 L40 -152 L64 -152 Z M110 603 L133 603 L220 731 L194 731 L110 603 Z " />
<glyph glyph-name="thorn" unicode="&#xfe;" horiz-adv-x="341" d="M47 -152 L71 -152 L71 63 C88 23 121 -3 184 -3 C219 -3 244 7 262 25 C309 71 309 164 309 272 C309 378 309 471 264 518 C246 537 220 548 184 548 C120 548 88 520 71 478 L71 763 L47 763 L47 -152 Z M184 20 C77 20 71 102 71 272 C71 443 77 525 184 525 C285 525 285 408 285 272 C285 135 285 20 184 20 L184 20 Z " />
<glyph glyph-name="ydieresis" unicode="&#xff;" horiz-adv-x="279" d="M64 -152 C107 -151 125 -134 132 -97 L268 542 L245 542 L161 147 L140 43 L119 148 L35 542 L11 542 L128 -6 L109 -96 C103 -121 96 -129 64 -129 L40 -129 L40 -152 L64 -152 Z M71 603 L95 603 L95 670 L71 670 L71 603 Z M184 603 L208 603 L208 670 L184 670 L184 603 Z " />
<glyph glyph-name="dotlessi" unicode="&#x131;" horiz-adv-x="124" d="M50 0 L74 0 L74 542 L50 542 L50 0 Z " />
<glyph glyph-name="Lslash" unicode="&#x141;" horiz-adv-x="308" d="M3 326 L53 350 L53 0 L293 0 L293 23 L77 23 L77 361 L190 416 L190 439 L77 384 L77 741 L53 741 L53 373 L3 349 L3 326 Z " />
<glyph glyph-name="lslash" unicode="&#x142;" horiz-adv-x="195" d="M1 468 L70 507 L70 81 C70 29 73 0 141 0 L146 0 L146 23 L142 23 C97 23 94 34 94 81 L94 521 L183 572 L183 596 L94 545 L94 763 L70 763 L70 531 L1 492 L1 468 Z " />
<glyph glyph-name="OE" unicode="&#x152;" horiz-adv-x="624" d="M349 0 L587 0 L587 23 L371 23 L371 373 L578 373 L578 396 L371 396 L371 718 L587 718 L587 741 L349 741 L349 641 C341 668 330 689 315 706 C290 733 256 747 204 747 C152 747 115 733 90 706 C40 652 35 544 35 370 C35 193 41 83 94 31 C119 6 154 -6 204 -6 C253 -6 286 6 311 30 C328 47 340 70 349 99 L349 0 Z M204 17 C70 17 59 125 59 370 C59 616 70 724 204 724 C337 724 348 616 348 370 C348 125 338 17 204 17 L204 17 Z " />
<glyph glyph-name="oe" unicode="&#x153;" horiz-adv-x="541" d="M166 -5 C206 -5 234 5 254 24 C271 40 281 63 288 93 C295 62 306 37 324 21 C342 5 366 -5 399 -5 C443 -5 473 2 504 13 L496 35 C467 25 439 18 399 18 C305 18 299 119 299 268 L512 268 C512 415 509 482 473 521 C457 539 433 548 400 548 C364 548 337 537 319 518 C303 502 293 480 287 453 C281 480 271 501 256 517 C236 537 208 548 166 548 C125 548 97 537 77 518 C34 477 32 393 32 271 C32 148 35 63 79 23 C99 5 126 -5 166 -5 L166 -5 Z M166 18 C60 18 56 108 56 271 C56 434 60 525 166 525 C272 525 276 434 276 271 C276 108 272 18 166 18 L166 18 Z M400 525 C483 525 487 446 488 291 L299 291 C299 432 308 525 400 525 L400 525 Z " />
<glyph glyph-name="Scaron" unicode="&#x160;" horiz-adv-x="311" d="M141 -5 C208 -5 274 36 274 127 C274 191 266 208 161 401 C75 559 66 581 66 625 C66 685 104 723 167 723 C205 723 225 719 256 708 L264 730 C231 742 209 746 167 746 C89 746 42 699 42 625 C42 570 52 552 141 388 C241 203 250 184 250 127 C250 52 196 18 141 18 C95 18 63 25 33 39 L23 18 C56 3 88 -5 141 -5 L141 -5 Z M145 788 L166 788 L247 916 L224 916 L156 810 L88 916 L64 916 L145 788 Z " />
<glyph glyph-name="scaron" unicode="&#x161;" horiz-adv-x="250" d="M121 -5 C169 -5 218 25 218 91 C218 137 212 151 135 292 C72 406 66 422 66 454 C66 497 93 525 140 525 C158 525 180 522 203 514 L211 536 C187 545 163 548 140 548 C78 548 42 511 42 454 C42 418 56 387 115 280 C184 154 194 131 194 91 C194 41 157 18 121 18 C84 18 57 27 36 37 L26 16 C49 5 75 -5 121 -5 L121 -5 Z M115 603 L136 603 L217 731 L194 731 L126 625 L58 731 L34 731 L115 603 Z " />
<glyph glyph-name="Ydieresis" unicode="&#x178;" horiz-adv-x="350" d="M163 0 L187 0 L187 279 L335 741 L313 741 L175 312 L38 741 L15 741 L163 279 L163 0 Z M107 788 L131 788 L131 855 L107 855 L107 788 Z M220 788 L244 788 L244 855 L220 855 L220 788 Z " />
<glyph glyph-name="Zcaron" unicode="&#x17d;" horiz-adv-x="342" d="M31 0 L311 0 L311 23 L55 23 L304 720 L304 741 L40 741 L40 718 L279 718 L31 23 L31 0 Z M161 788 L182 788 L263 916 L240 916 L172 810 L104 916 L80 916 L161 788 Z " />
<glyph glyph-name="zcaron" unicode="&#x17e;" horiz-adv-x="256" d="M22 0 L232 0 L232 23 L47 23 L229 520 L229 542 L33 542 L33 519 L203 519 L22 23 L22 0 Z M118 603 L139 603 L220 731 L197 731 L129 625 L61 731 L37 731 L118 603 Z " />
<glyph glyph-name="florin" unicode="&#x192;" horiz-adv-x="287" d="M39 419 L113 419 L57 -153 L81 -153 L137 419 L243 419 L243 442 L139 442 L158 633 C163 685 169 718 223 718 L243 718 L243 741 L223 741 C153 741 140 699 134 633 L115 442 L39 442 L39 419 Z " />
<glyph glyph-name="circumflex" unicode="&#x2c6;" horiz-adv-x="319" d="M68 603 L91 603 L159 709 L227 603 L251 603 L170 731 L149 731 L68 603 Z " />
<glyph glyph-name="caron" unicode="&#x2c7;" horiz-adv-x="319" d="M149 603 L170 603 L251 731 L228 731 L160 625 L92 731 L68 731 L149 603 Z " />
<glyph glyph-name="breve" unicode="&#x2d8;" horiz-adv-x="319" d="M159 600 C229 600 241 646 246 687 L222 690 C218 658 209 623 159 623 C109 623 100 658 96 690 L72 687 C77 646 89 600 159 600 L159 600 Z " />
<glyph glyph-name="dotaccent" unicode="&#x2d9;" horiz-adv-x="319" d="M147 603 L171 603 L171 685 L147 685 L147 603 Z " />
<glyph glyph-name="ring" unicode="&#x2da;" horiz-adv-x="319" d="M159 600 C216 600 221 638 221 688 C221 739 216 777 159 777 C102 777 97 739 97 688 C97 638 102 600 159 600 L159 600 Z M159 621 C122 621 119 649 119 688 C119 729 122 756 159 756 C196 756 199 729 199 688 C199 648 196 621 159 621 L159 621 Z " />
<glyph glyph-name="ogonek" unicode="&#x2db;" horiz-adv-x="319" d="M158 -183 L187 -183 L187 -160 L158 -160 C128 -160 118 -148 118 -120 C118 -79 148 -36 184 5 L154 5 C133 -21 94 -71 94 -120 C94 -160 113 -183 158 -183 L158 -183 Z " />
<glyph glyph-name="tilde" unicode="&#x2dc;" horiz-adv-x="319" d="M91 603 C93 625 100 634 119 634 C141 634 171 603 199 603 C230 603 246 620 250 655 L227 657 C225 635 218 626 199 626 C177 626 147 657 119 657 C87 657 72 640 68 605 L91 603 Z " />
<glyph glyph-name="hungarumlaut" unicode="&#x2dd;" horiz-adv-x="319" d="M85 603 L108 603 L175 731 L149 731 L85 603 Z M194 603 L217 603 L284 731 L258 731 L194 603 Z " />
<glyph glyph-name="&amp;#x394;" unicode="&#x394;" horiz-adv-x="326" d="M19 519 L81 519 L81 0 L105 0 L105 519 L192 519 L192 542 L105 542 L105 655 C105 707 116 740 170 740 L192 740 L192 763 L170 763 C100 763 81 721 81 655 L81 542 L19 542 L19 519 Z M211 -152 C269 -152 276 -124 276 -79 L276 542 L252 542 L252 -81 C252 -116 247 -128 211 -129 L211 -152 Z M252 629 L276 629 L276 711 L252 711 L252 629 Z " />
<glyph glyph-name="&amp;#x2206;" unicode="&#x2206;" horiz-adv-x="326" d="M19 519 L81 519 L81 0 L105 0 L105 519 L192 519 L192 542 L105 542 L105 655 C105 707 116 740 170 740 L192 740 L192 763 L170 763 C100 763 81 721 81 655 L81 542 L19 542 L19 519 Z M211 -152 C269 -152 276 -124 276 -79 L276 542 L252 542 L252 -81 C252 -116 247 -128 211 -129 L211 -152 Z M252 629 L276 629 L276 711 L252 711 L252 629 Z " />
<glyph glyph-name="&amp;#x3a9;" unicode="&#x3a9;" horiz-adv-x="832" d="M126 120 C126 120 129 123 134 127 C79 193 46 278 46 371 C46 464 79 549 133 615 C129 619 126 621 126 621 C70 554 36 466 36 371 C36 275 70 187 126 120 L126 120 Z M228 211 C230 213 233 215 235 218 C201 259 181 313 181 371 C181 429 202 483 235 524 C232 526 230 529 227 531 C192 487 171 432 171 371 C171 310 193 254 228 211 L228 211 Z M264 243 C267 245 269 248 272 250 C245 283 229 325 229 371 C229 417 245 459 272 492 C269 494 267 497 264 499 C236 464 219 419 219 371 C219 322 236 278 264 243 L264 243 Z M316 289 C319 291 321 294 324 296 C308 317 298 343 298 371 C298 399 308 425 323 445 C321 448 318 450 316 452 C298 430 288 402 288 371 C288 340 298 312 316 289 L316 289 Z M349 320 C352 323 354 325 357 327 C348 340 343 355 343 371 C343 387 348 402 357 415 C354 417 352 420 349 422 C339 408 333 390 333 371 C333 352 339 334 349 320 L349 320 Z M378 346 C382 349 384 351 384 351 C381 357 379 364 379 371 C379 378 381 385 384 391 C384 391 382 393 378 396 C374 389 371 380 371 371 C371 362 374 353 378 346 L378 346 Z M416 60 C493 60 563 89 616 136 C614 139 611 141 609 144 C558 98 490 70 416 70 C342 70 274 98 222 144 C222 145 215 137 215 137 C268 89 338 60 416 60 L416 60 Z M416 324 C426 324 435 327 442 333 C439 337 437 339 437 339 C431 334 424 332 416 332 C408 332 401 335 395 339 C395 339 391 334 389 333 C397 327 406 324 416 324 L416 324 Z M482 319 C493 334 499 352 499 371 C499 390 493 408 482 422 C483 422 475 415 475 415 C484 403 489 388 489 371 C489 355 484 339 475 326 C478 324 480 322 482 319 L482 319 Z M292 269 C295 271 298 274 300 276 C280 302 267 335 267 371 C267 407 280 440 300 466 L293 473 C270 445 257 410 257 371 C257 333 270 297 292 269 L292 269 Z M416 -17 C512 -17 600 19 667 80 C667 80 660 88 660 87 C595 29 510 -7 416 -7 C322 -7 236 29 171 88 L164 80 C231 20 320 -17 416 -17 L416 -17 Z M416 121 C478 121 534 144 576 182 C574 185 571 187 569 190 C529 153 475 131 416 131 C357 131 303 153 262 190 L255 182 C298 144 354 121 416 121 L416 121 Z M416 170 C465 170 510 188 544 218 C542 221 539 223 537 226 C505 197 462 180 416 180 C369 180 327 197 294 226 L287 219 C322 189 367 170 416 170 L416 170 Z M416 209 C455 209 491 224 518 247 C516 250 514 253 512 255 C486 233 452 219 416 219 C380 219 346 233 320 255 L313 247 C341 224 377 209 416 209 L416 209 Z M416 265 C441 265 463 274 481 289 C479 292 476 294 474 297 C458 283 438 275 416 275 C394 275 373 283 357 297 L350 289 C368 274 391 265 416 265 L416 265 Z M358 445 C374 459 394 467 416 467 C438 467 458 459 474 445 L482 453 C464 468 441 477 416 477 C391 477 368 468 350 453 C351 452 354 448 358 445 L358 445 Z M570 552 C572 554 575 557 577 560 C534 598 478 621 416 621 C355 621 299 598 256 560 L263 553 C304 589 357 611 416 611 C475 611 529 589 570 552 L570 552 Z M454 346 C458 353 461 362 461 371 C461 380 458 389 454 396 L448 391 C451 385 453 378 453 371 C453 364 451 357 448 351 C448 351 450 349 454 346 L454 346 Z M468 333 C476 344 480 357 480 371 C480 385 476 398 468 409 L460 402 C466 393 470 382 470 371 C470 360 466 349 460 340 C463 338 465 336 468 333 L468 333 Z M498 306 C511 325 519 347 519 371 C519 395 511 418 497 436 L490 429 C502 413 509 393 509 371 C509 349 502 329 490 313 C492 311 495 308 498 306 L498 306 Z M540 269 C562 297 575 332 575 371 C575 410 562 445 539 473 L531 466 C552 440 565 407 565 371 C565 335 552 302 532 276 C535 274 537 271 540 269 L540 269 Z M568 243 C596 278 613 322 613 371 C613 420 596 464 568 499 L560 492 C587 459 603 417 603 371 C603 325 587 283 560 250 C563 248 566 245 568 243 L568 243 Z M604 211 C640 254 661 310 661 371 C661 432 640 488 604 531 L596 524 C631 483 651 429 651 371 C651 313 631 260 596 218 C601 213 604 211 604 211 L604 211 Z M649 171 C694 225 721 295 721 371 C721 447 694 517 649 571 L641 564 C685 512 711 445 711 371 C711 297 685 230 642 177 C644 175 647 173 649 171 L649 171 Z M706 120 C762 188 796 276 796 371 C796 467 762 555 706 622 L698 615 C753 549 786 464 786 371 C786 278 753 193 698 127 C703 123 706 120 706 120 L706 120 Z M183 170 L190 177 C147 229 121 297 121 371 C121 444 147 512 190 564 C187 567 184 569 182 571 C138 517 111 447 111 371 C111 294 138 225 183 170 L183 170 Z M334 306 L342 314 C330 330 323 350 323 371 C323 393 330 413 342 429 C340 431 337 434 334 436 C321 418 313 395 313 371 C313 346 321 324 334 306 L334 306 Z M364 333 L371 340 C366 349 362 360 362 371 C362 382 366 393 371 402 C369 404 366 406 364 409 C356 398 352 385 352 371 C352 357 356 344 364 333 L364 333 Z M395 403 C401 408 408 410 416 410 C424 410 431 407 437 403 C437 403 439 406 442 409 C435 415 426 418 416 418 C406 418 397 415 390 409 L395 403 Z M384 416 C393 423 404 428 416 428 C428 428 439 424 448 416 C450 419 452 421 454 423 C443 432 430 437 416 437 C401 437 388 432 377 423 L384 416 Z M371 430 C383 441 399 447 416 447 C433 447 449 441 461 430 C461 430 464 434 468 438 C454 450 436 457 416 457 C397 457 378 450 364 438 L371 430 Z M295 516 C327 545 370 562 416 562 C462 562 505 545 538 516 C538 516 545 523 544 523 C510 554 465 572 416 572 C367 572 322 554 288 524 L295 516 Z M416 240 C448 240 476 252 498 271 L491 278 C471 261 445 250 416 250 C388 250 361 261 340 278 L333 270 C355 251 384 240 416 240 L416 240 Z M416 285 C436 285 454 292 468 304 L461 312 C448 301 433 295 416 295 C399 295 383 302 370 312 L363 304 C378 292 396 285 416 285 L416 285 Z M416 305 C430 305 444 310 455 319 L448 326 C439 319 428 314 416 314 C404 314 393 319 383 326 L376 319 C388 310 401 305 416 305 L416 305 Z M341 464 C362 482 388 492 416 492 C445 492 471 481 491 464 L498 472 C476 491 447 502 416 502 C385 502 356 490 334 471 L341 464 Z M320 487 C346 509 380 523 416 523 C453 523 486 510 512 487 L518 494 C491 518 455 533 416 533 C377 533 341 519 313 495 L320 487 Z M610 597 L617 605 C563 653 493 682 416 682 C339 682 269 653 215 605 L222 598 C274 644 342 672 416 672 C491 672 559 644 610 597 L610 597 Z M172 654 C237 713 322 749 416 749 C510 749 596 713 661 654 L668 662 C601 722 512 759 416 759 C320 759 232 723 165 662 L172 654 Z M516 290 C534 312 544 340 544 371 C544 402 534 430 516 453 L508 446 C524 425 534 399 534 371 C534 343 524 317 509 297 L516 290 Z " />
<glyph glyph-name="&amp;#x2126;" unicode="&#x2126;" horiz-adv-x="832" d="M126 120 C126 120 129 123 134 127 C79 193 46 278 46 371 C46 464 79 549 133 615 C129 619 126 621 126 621 C70 554 36 466 36 371 C36 275 70 187 126 120 L126 120 Z M228 211 C230 213 233 215 235 218 C201 259 181 313 181 371 C181 429 202 483 235 524 C232 526 230 529 227 531 C192 487 171 432 171 371 C171 310 193 254 228 211 L228 211 Z M264 243 C267 245 269 248 272 250 C245 283 229 325 229 371 C229 417 245 459 272 492 C269 494 267 497 264 499 C236 464 219 419 219 371 C219 322 236 278 264 243 L264 243 Z M316 289 C319 291 321 294 324 296 C308 317 298 343 298 371 C298 399 308 425 323 445 C321 448 318 450 316 452 C298 430 288 402 288 371 C288 340 298 312 316 289 L316 289 Z M349 320 C352 323 354 325 357 327 C348 340 343 355 343 371 C343 387 348 402 357 415 C354 417 352 420 349 422 C339 408 333 390 333 371 C333 352 339 334 349 320 L349 320 Z M378 346 C382 349 384 351 384 351 C381 357 379 364 379 371 C379 378 381 385 384 391 C384 391 382 393 378 396 C374 389 371 380 371 371 C371 362 374 353 378 346 L378 346 Z M416 60 C493 60 563 89 616 136 C614 139 611 141 609 144 C558 98 490 70 416 70 C342 70 274 98 222 144 C222 145 215 137 215 137 C268 89 338 60 416 60 L416 60 Z M416 324 C426 324 435 327 442 333 C439 337 437 339 437 339 C431 334 424 332 416 332 C408 332 401 335 395 339 C395 339 391 334 389 333 C397 327 406 324 416 324 L416 324 Z M482 319 C493 334 499 352 499 371 C499 390 493 408 482 422 C483 422 475 415 475 415 C484 403 489 388 489 371 C489 355 484 339 475 326 C478 324 480 322 482 319 L482 319 Z M292 269 C295 271 298 274 300 276 C280 302 267 335 267 371 C267 407 280 440 300 466 L293 473 C270 445 257 410 257 371 C257 333 270 297 292 269 L292 269 Z M416 -17 C512 -17 600 19 667 80 C667 80 660 88 660 87 C595 29 510 -7 416 -7 C322 -7 236 29 171 88 L164 80 C231 20 320 -17 416 -17 L416 -17 Z M416 121 C478 121 534 144 576 182 C574 185 571 187 569 190 C529 153 475 131 416 131 C357 131 303 153 262 190 L255 182 C298 144 354 121 416 121 L416 121 Z M416 170 C465 170 510 188 544 218 C542 221 539 223 537 226 C505 197 462 180 416 180 C369 180 327 197 294 226 L287 219 C322 189 367 170 416 170 L416 170 Z M416 209 C455 209 491 224 518 247 C516 250 514 253 512 255 C486 233 452 219 416 219 C380 219 346 233 320 255 L313 247 C341 224 377 209 416 209 L416 209 Z M416 265 C441 265 463 274 481 289 C479 292 476 294 474 297 C458 283 438 275 416 275 C394 275 373 283 357 297 L350 289 C368 274 391 265 416 265 L416 265 Z M358 445 C374 459 394 467 416 467 C438 467 458 459 474 445 L482 453 C464 468 441 477 416 477 C391 477 368 468 350 453 C351 452 354 448 358 445 L358 445 Z M570 552 C572 554 575 557 577 560 C534 598 478 621 416 621 C355 621 299 598 256 560 L263 553 C304 589 357 611 416 611 C475 611 529 589 570 552 L570 552 Z M454 346 C458 353 461 362 461 371 C461 380 458 389 454 396 L448 391 C451 385 453 378 453 371 C453 364 451 357 448 351 C448 351 450 349 454 346 L454 346 Z M468 333 C476 344 480 357 480 371 C480 385 476 398 468 409 L460 402 C466 393 470 382 470 371 C470 360 466 349 460 340 C463 338 465 336 468 333 L468 333 Z M498 306 C511 325 519 347 519 371 C519 395 511 418 497 436 L490 429 C502 413 509 393 509 371 C509 349 502 329 490 313 C492 311 495 308 498 306 L498 306 Z M540 269 C562 297 575 332 575 371 C575 410 562 445 539 473 L531 466 C552 440 565 407 565 371 C565 335 552 302 532 276 C535 274 537 271 540 269 L540 269 Z M568 243 C596 278 613 322 613 371 C613 420 596 464 568 499 L560 492 C587 459 603 417 603 371 C603 325 587 283 560 250 C563 248 566 245 568 243 L568 243 Z M604 211 C640 254 661 310 661 371 C661 432 640 488 604 531 L596 524 C631 483 651 429 651 371 C651 313 631 260 596 218 C601 213 604 211 604 211 L604 211 Z M649 171 C694 225 721 295 721 371 C721 447 694 517 649 571 L641 564 C685 512 711 445 711 371 C711 297 685 230 642 177 C644 175 647 173 649 171 L649 171 Z M706 120 C762 188 796 276 796 371 C796 467 762 555 706 622 L698 615 C753 549 786 464 786 371 C786 278 753 193 698 127 C703 123 706 120 706 120 L706 120 Z M183 170 L190 177 C147 229 121 297 121 371 C121 444 147 512 190 564 C187 567 184 569 182 571 C138 517 111 447 111 371 C111 294 138 225 183 170 L183 170 Z M334 306 L342 314 C330 330 323 350 323 371 C323 393 330 413 342 429 C340 431 337 434 334 436 C321 418 313 395 313 371 C313 346 321 324 334 306 L334 306 Z M364 333 L371 340 C366 349 362 360 362 371 C362 382 366 393 371 402 C369 404 366 406 364 409 C356 398 352 385 352 371 C352 357 356 344 364 333 L364 333 Z M395 403 C401 408 408 410 416 410 C424 410 431 407 437 403 C437 403 439 406 442 409 C435 415 426 418 416 418 C406 418 397 415 390 409 L395 403 Z M384 416 C393 423 404 428 416 428 C428 428 439 424 448 416 C450 419 452 421 454 423 C443 432 430 437 416 437 C401 437 388 432 377 423 L384 416 Z M371 430 C383 441 399 447 416 447 C433 447 449 441 461 430 C461 430 464 434 468 438 C454 450 436 457 416 457 C397 457 378 450 364 438 L371 430 Z M295 516 C327 545 370 562 416 562 C462 562 505 545 538 516 C538 516 545 523 544 523 C510 554 465 572 416 572 C367 572 322 554 288 524 L295 516 Z M416 240 C448 240 476 252 498 271 L491 278 C471 261 445 250 416 250 C388 250 361 261 340 278 L333 270 C355 251 384 240 416 240 L416 240 Z M416 285 C436 285 454 292 468 304 L461 312 C448 301 433 295 416 295 C399 295 383 302 370 312 L363 304 C378 292 396 285 416 285 L416 285 Z M416 305 C430 305 444 310 455 319 L448 326 C439 319 428 314 416 314 C404 314 393 319 383 326 L376 319 C388 310 401 305 416 305 L416 305 Z M341 464 C362 482 388 492 416 492 C445 492 471 481 491 464 L498 472 C476 491 447 502 416 502 C385 502 356 490 334 471 L341 464 Z M320 487 C346 509 380 523 416 523 C453 523 486 510 512 487 L518 494 C491 518 455 533 416 533 C377 533 341 519 313 495 L320 487 Z M610 597 L617 605 C563 653 493 682 416 682 C339 682 269 653 215 605 L222 598 C274 644 342 672 416 672 C491 672 559 644 610 597 L610 597 Z M172 654 C237 713 322 749 416 749 C510 749 596 713 661 654 L668 662 C601 722 512 759 416 759 C320 759 232 723 165 662 L172 654 Z M516 290 C534 312 544 340 544 371 C544 402 534 430 516 453 L508 446 C524 425 534 399 534 371 C534 343 524 317 509 297 L516 290 Z " />
<glyph glyph-name="pi" unicode="&#x3c0;" horiz-adv-x="451" d="M225 -8 C412 -8 423 117 423 370 C423 623 412 749 225 749 C39 749 28 623 28 370 C28 117 39 -8 225 -8 L225 -8 Z M225 13 C61 13 50 132 50 370 C50 608 61 728 225 728 C390 728 401 608 401 370 C401 132 390 13 225 13 L225 13 Z M140 103 L163 103 L163 333 L223 333 C314 333 339 370 339 478 C339 587 314 622 221 622 L140 622 L140 103 Z M163 355 L163 600 L221 600 C300 600 316 572 316 478 C316 384 300 355 223 355 L163 355 Z " />
<glyph glyph-name="endash" unicode="&#x2013;" horiz-adv-x="341" d="M33 281 L309 281 L309 304 L33 304 L33 281 Z " />
<glyph glyph-name="emdash" unicode="&#x2014;" horiz-adv-x="482" d="M33 281 L449 281 L449 304 L33 304 L33 281 Z " />
<glyph glyph-name="quoteleft" unicode="&#x2018;" horiz-adv-x="122" d="M44 607 L79 607 L79 668 L62 668 C62 703 64 714 83 725 L74 741 C46 726 44 705 44 665 L44 607 Z " />
<glyph glyph-name="quoteright" unicode="&#x2019;" horiz-adv-x="123" d="M49 607 C77 622 79 643 79 683 L79 741 L44 741 L44 680 L61 680 C61 645 59 634 40 623 L49 607 Z " />
<glyph glyph-name="quotesinglbase" unicode="&#x201a;" horiz-adv-x="123" d="M49 -73 C77 -58 79 -37 79 3 L79 61 L44 61 L44 0 L61 0 C61 -35 59 -46 40 -57 L49 -73 Z " />
<glyph glyph-name="quotedblleft" unicode="&#x201c;" horiz-adv-x="206" d="M44 607 L79 607 L79 668 L62 668 C62 703 64 714 83 725 L74 741 C46 726 44 705 44 665 L44 607 Z M127 607 L162 607 L162 668 L145 668 C145 703 147 714 166 725 L157 741 C129 726 127 705 127 665 L127 607 Z " />
<glyph glyph-name="quotedblright" unicode="&#x201d;" horiz-adv-x="206" d="M49 607 C77 622 79 643 79 683 L79 741 L44 741 L44 680 L61 680 C61 645 59 634 40 623 L49 607 Z M132 607 C160 622 162 643 162 683 L162 741 L127 741 L127 680 L144 680 C144 645 142 634 123 623 L132 607 Z " />
<glyph glyph-name="quotedblbase" unicode="&#x201e;" horiz-adv-x="206" d="M49 -73 C77 -58 79 -37 79 3 L79 61 L44 61 L44 0 L61 0 C61 -35 59 -46 40 -57 L49 -73 Z M132 -73 C160 -58 162 -37 162 3 L162 61 L127 61 L127 0 L144 0 C144 -35 142 -46 123 -57 L132 -73 Z " />
<glyph glyph-name="dagger" unicode="&#x2020;" horiz-adv-x="284" d="M130 -152 L154 -152 L154 519 L248 519 L248 542 L154 542 L154 763 L130 763 L130 542 L36 542 L36 519 L130 519 L130 -152 Z " />
<glyph glyph-name="daggerdbl" unicode="&#x2021;" horiz-adv-x="284" d="M130 -152 L154 -152 L154 75 L248 75 L248 98 L154 98 L154 519 L248 519 L248 542 L154 542 L154 763 L130 763 L130 542 L36 542 L36 519 L130 519 L130 98 L36 98 L36 75 L130 75 L130 -152 Z " />
<glyph glyph-name="bullet" unicode="&#x2022;" horiz-adv-x="181" d="M59 248 L123 248 L123 360 L59 360 L59 248 Z " />
<glyph glyph-name="ellipsis" unicode="&#x2026;" horiz-adv-x="337" d="M43 0 L78 0 L78 61 L43 61 L43 0 Z M152 0 L188 0 L188 61 L152 61 L152 0 Z M258 0 L294 0 L294 61 L258 61 L258 0 Z " />
<glyph glyph-name="perthousand" unicode="&#x2030;" horiz-adv-x="748" d="M121 299 C149 299 168 306 182 319 C213 349 213 414 213 522 C213 626 213 690 185 722 C171 738 151 746 121 746 C92 746 72 738 58 723 C29 692 29 628 29 522 C29 412 29 347 61 318 C74 306 94 299 121 299 L121 299 Z M414 -5 C442 -5 461 2 475 15 C506 45 506 110 506 218 C506 322 506 386 478 418 C464 434 444 442 414 442 C385 442 365 434 351 419 C322 388 322 324 322 218 C322 108 322 43 354 14 C367 2 387 -5 414 -5 L414 -5 Z M627 -5 C655 -5 674 2 688 15 C719 45 719 110 719 218 C719 322 719 386 691 418 C677 434 657 442 627 442 C598 442 578 434 564 419 C535 388 535 324 535 218 C535 108 535 43 567 14 C580 2 600 -5 627 -5 L627 -5 Z M121 322 C54 322 53 382 53 522 C53 662 54 723 121 723 C188 723 189 662 189 522 C189 382 188 322 121 322 L121 322 Z M414 18 C347 18 346 78 346 218 C346 358 347 419 414 419 C481 419 482 358 482 218 C482 78 481 18 414 18 L414 18 Z M627 18 C560 18 559 78 559 218 C559 358 560 419 627 419 C694 419 695 358 695 218 C695 78 694 18 627 18 L627 18 Z M154 0 L178 0 L382 741 L358 741 L154 0 Z " />
<glyph glyph-name="guilsinglleft" unicode="&#x2039;" horiz-adv-x="222" d="M136 0 L160 0 L79 271 L160 542 L136 542 L55 271 L136 0 Z " />
<glyph glyph-name="guilsinglright" unicode="&#x203a;" horiz-adv-x="222" d="M62 0 L86 0 L167 271 L86 542 L62 542 L143 271 L62 0 Z " />
<glyph glyph-name="&amp;#x2044;" unicode="&#x2044;" horiz-adv-x="251" d="M12 0 L36 0 L240 741 L216 741 L12 0 Z " />
<glyph glyph-name="&amp;#x2215;" unicode="&#x2215;" horiz-adv-x="251" d="M12 0 L36 0 L240 741 L216 741 L12 0 Z " />
<glyph glyph-name="Euro" unicode="&#x20ac;" horiz-adv-x="339" d="M23 414 L79 414 L79 343 L23 343 L23 320 L79 320 C79 154 85 63 129 22 C148 4 174 -5 211 -5 C250 -5 277 -1 304 13 L293 34 C269 22 245 18 211 18 C113 18 104 99 103 320 L258 320 L258 343 L103 343 L103 414 L258 414 L258 437 L103 437 C104 645 114 723 211 723 C241 723 272 717 293 708 L302 729 C278 739 253 746 211 746 C171 746 143 736 124 715 C85 674 80 586 79 437 L23 437 L23 414 Z " />
<glyph glyph-name="trademark" unicode="&#x2122;" horiz-adv-x="554" d="M236 285 L257 285 L257 678 L338 285 L360 285 L441 678 L441 285 L463 285 L463 741 L433 741 L349 336 L266 741 L236 741 L236 285 Z M111 285 L134 285 L134 719 L212 719 L212 741 L34 741 L34 719 L111 719 L111 285 Z " />
<glyph glyph-name="partialdiff" unicode="&#x2202;" horiz-adv-x="832" d="M126 120 C126 120 129 123 134 127 C79 193 46 278 46 371 C46 464 79 549 133 615 C129 619 126 621 126 621 C70 554 36 466 36 371 C36 275 70 187 126 120 L126 120 Z M228 211 C230 213 233 215 235 218 C201 259 181 313 181 371 C181 429 202 483 235 524 C232 526 230 529 227 531 C192 487 171 432 171 371 C171 310 193 254 228 211 L228 211 Z M264 243 C267 245 269 248 272 250 C245 283 229 325 229 371 C229 417 245 459 272 492 C269 494 267 497 264 499 C236 464 219 419 219 371 C219 322 236 278 264 243 L264 243 Z M316 289 C319 291 321 294 324 296 C308 317 298 343 298 371 C298 399 308 425 323 445 C321 448 318 450 316 452 C298 430 288 402 288 371 C288 340 298 312 316 289 L316 289 Z M349 320 C352 323 354 325 357 327 C348 340 343 355 343 371 C343 387 348 402 357 415 C354 417 352 420 349 422 C339 408 333 390 333 371 C333 352 339 334 349 320 L349 320 Z M378 346 C382 349 384 351 384 351 C381 357 379 364 379 371 C379 378 381 385 384 391 C384 391 382 393 378 396 C374 389 371 380 371 371 C371 362 374 353 378 346 L378 346 Z M416 60 C493 60 563 89 616 136 C614 139 611 141 609 144 C558 98 490 70 416 70 C342 70 274 98 222 144 C222 145 215 137 215 137 C268 89 338 60 416 60 L416 60 Z M416 324 C426 324 435 327 442 333 C439 337 437 339 437 339 C431 334 424 332 416 332 C408 332 401 335 395 339 C395 339 391 334 389 333 C397 327 406 324 416 324 L416 324 Z M482 319 C493 334 499 352 499 371 C499 390 493 408 482 422 C483 422 475 415 475 415 C484 403 489 388 489 371 C489 355 484 339 475 326 C478 324 480 322 482 319 L482 319 Z M292 269 C295 271 298 274 300 276 C280 302 267 335 267 371 C267 407 280 440 300 466 L293 473 C270 445 257 410 257 371 C257 333 270 297 292 269 L292 269 Z M416 -17 C512 -17 600 19 667 80 C667 80 660 88 660 87 C595 29 510 -7 416 -7 C322 -7 236 29 171 88 L164 80 C231 20 320 -17 416 -17 L416 -17 Z M416 121 C478 121 534 144 576 182 C574 185 571 187 569 190 C529 153 475 131 416 131 C357 131 303 153 262 190 L255 182 C298 144 354 121 416 121 L416 121 Z M416 170 C465 170 510 188 544 218 C542 221 539 223 537 226 C505 197 462 180 416 180 C369 180 327 197 294 226 L287 219 C322 189 367 170 416 170 L416 170 Z M416 209 C455 209 491 224 518 247 C516 250 514 253 512 255 C486 233 452 219 416 219 C380 219 346 233 320 255 L313 247 C341 224 377 209 416 209 L416 209 Z M416 265 C441 265 463 274 481 289 C479 292 476 294 474 297 C458 283 438 275 416 275 C394 275 373 283 357 297 L350 289 C368 274 391 265 416 265 L416 265 Z M358 445 C374 459 394 467 416 467 C438 467 458 459 474 445 L482 453 C464 468 441 477 416 477 C391 477 368 468 350 453 C351 452 354 448 358 445 L358 445 Z M570 552 C572 554 575 557 577 560 C534 598 478 621 416 621 C355 621 299 598 256 560 L263 553 C304 589 357 611 416 611 C475 611 529 589 570 552 L570 552 Z M454 346 C458 353 461 362 461 371 C461 380 458 389 454 396 L448 391 C451 385 453 378 453 371 C453 364 451 357 448 351 C448 351 450 349 454 346 L454 346 Z M468 333 C476 344 480 357 480 371 C480 385 476 398 468 409 L460 402 C466 393 470 382 470 371 C470 360 466 349 460 340 C463 338 465 336 468 333 L468 333 Z M498 306 C511 325 519 347 519 371 C519 395 511 418 497 436 L490 429 C502 413 509 393 509 371 C509 349 502 329 490 313 C492 311 495 308 498 306 L498 306 Z M540 269 C562 297 575 332 575 371 C575 410 562 445 539 473 L531 466 C552 440 565 407 565 371 C565 335 552 302 532 276 C535 274 537 271 540 269 L540 269 Z M568 243 C596 278 613 322 613 371 C613 420 596 464 568 499 L560 492 C587 459 603 417 603 371 C603 325 587 283 560 250 C563 248 566 245 568 243 L568 243 Z M604 211 C640 254 661 310 661 371 C661 432 640 488 604 531 L596 524 C631 483 651 429 651 371 C651 313 631 260 596 218 C601 213 604 211 604 211 L604 211 Z M649 171 C694 225 721 295 721 371 C721 447 694 517 649 571 L641 564 C685 512 711 445 711 371 C711 297 685 230 642 177 C644 175 647 173 649 171 L649 171 Z M706 120 C762 188 796 276 796 371 C796 467 762 555 706 622 L698 615 C753 549 786 464 786 371 C786 278 753 193 698 127 C703 123 706 120 706 120 L706 120 Z M183 170 L190 177 C147 229 121 297 121 371 C121 444 147 512 190 564 C187 567 184 569 182 571 C138 517 111 447 111 371 C111 294 138 225 183 170 L183 170 Z M334 306 L342 314 C330 330 323 350 323 371 C323 393 330 413 342 429 C340 431 337 434 334 436 C321 418 313 395 313 371 C313 346 321 324 334 306 L334 306 Z M364 333 L371 340 C366 349 362 360 362 371 C362 382 366 393 371 402 C369 404 366 406 364 409 C356 398 352 385 352 371 C352 357 356 344 364 333 L364 333 Z M395 403 C401 408 408 410 416 410 C424 410 431 407 437 403 C437 403 439 406 442 409 C435 415 426 418 416 418 C406 418 397 415 390 409 L395 403 Z M384 416 C393 423 404 428 416 428 C428 428 439 424 448 416 C450 419 452 421 454 423 C443 432 430 437 416 437 C401 437 388 432 377 423 L384 416 Z M371 430 C383 441 399 447 416 447 C433 447 449 441 461 430 C461 430 464 434 468 438 C454 450 436 457 416 457 C397 457 378 450 364 438 L371 430 Z M295 516 C327 545 370 562 416 562 C462 562 505 545 538 516 C538 516 545 523 544 523 C510 554 465 572 416 572 C367 572 322 554 288 524 L295 516 Z M416 240 C448 240 476 252 498 271 L491 278 C471 261 445 250 416 250 C388 250 361 261 340 278 L333 270 C355 251 384 240 416 240 L416 240 Z M416 285 C436 285 454 292 468 304 L461 312 C448 301 433 295 416 295 C399 295 383 302 370 312 L363 304 C378 292 396 285 416 285 L416 285 Z M416 305 C430 305 444 310 455 319 L448 326 C439 319 428 314 416 314 C404 314 393 319 383 326 L376 319 C388 310 401 305 416 305 L416 305 Z M341 464 C362 482 388 492 416 492 C445 492 471 481 491 464 L498 472 C476 491 447 502 416 502 C385 502 356 490 334 471 L341 464 Z M320 487 C346 509 380 523 416 523 C453 523 486 510 512 487 L518 494 C491 518 455 533 416 533 C377 533 341 519 313 495 L320 487 Z M610 597 L617 605 C563 653 493 682 416 682 C339 682 269 653 215 605 L222 598 C274 644 342 672 416 672 C491 672 559 644 610 597 L610 597 Z M172 654 C237 713 322 749 416 749 C510 749 596 713 661 654 L668 662 C601 722 512 759 416 759 C320 759 232 723 165 662 L172 654 Z M516 290 C534 312 544 340 544 371 C544 402 534 430 516 453 L508 446 C524 425 534 399 534 371 C534 343 524 317 509 297 L516 290 Z " />
<glyph glyph-name="product" unicode="&#x220f;" horiz-adv-x="832" d="M126 120 C126 120 129 123 134 127 C79 193 46 278 46 371 C46 464 79 549 133 615 C129 619 126 621 126 621 C70 554 36 466 36 371 C36 275 70 187 126 120 L126 120 Z M228 211 C230 213 233 215 235 218 C201 259 181 313 181 371 C181 429 202 483 235 524 C232 526 230 529 227 531 C192 487 171 432 171 371 C171 310 193 254 228 211 L228 211 Z M264 243 C267 245 269 248 272 250 C245 283 229 325 229 371 C229 417 245 459 272 492 C269 494 267 497 264 499 C236 464 219 419 219 371 C219 322 236 278 264 243 L264 243 Z M316 289 C319 291 321 294 324 296 C308 317 298 343 298 371 C298 399 308 425 323 445 C321 448 318 450 316 452 C298 430 288 402 288 371 C288 340 298 312 316 289 L316 289 Z M349 320 C352 323 354 325 357 327 C348 340 343 355 343 371 C343 387 348 402 357 415 C354 417 352 420 349 422 C339 408 333 390 333 371 C333 352 339 334 349 320 L349 320 Z M378 346 C382 349 384 351 384 351 C381 357 379 364 379 371 C379 378 381 385 384 391 C384 391 382 393 378 396 C374 389 371 380 371 371 C371 362 374 353 378 346 L378 346 Z M416 60 C493 60 563 89 616 136 C614 139 611 141 609 144 C558 98 490 70 416 70 C342 70 274 98 222 144 C222 145 215 137 215 137 C268 89 338 60 416 60 L416 60 Z M416 324 C426 324 435 327 442 333 C439 337 437 339 437 339 C431 334 424 332 416 332 C408 332 401 335 395 339 C395 339 391 334 389 333 C397 327 406 324 416 324 L416 324 Z M482 319 C493 334 499 352 499 371 C499 390 493 408 482 422 C483 422 475 415 475 415 C484 403 489 388 489 371 C489 355 484 339 475 326 C478 324 480 322 482 319 L482 319 Z M292 269 C295 271 298 274 300 276 C280 302 267 335 267 371 C267 407 280 440 300 466 L293 473 C270 445 257 410 257 371 C257 333 270 297 292 269 L292 269 Z M416 -17 C512 -17 600 19 667 80 C667 80 660 88 660 87 C595 29 510 -7 416 -7 C322 -7 236 29 171 88 L164 80 C231 20 320 -17 416 -17 L416 -17 Z M416 121 C478 121 534 144 576 182 C574 185 571 187 569 190 C529 153 475 131 416 131 C357 131 303 153 262 190 L255 182 C298 144 354 121 416 121 L416 121 Z M416 170 C465 170 510 188 544 218 C542 221 539 223 537 226 C505 197 462 180 416 180 C369 180 327 197 294 226 L287 219 C322 189 367 170 416 170 L416 170 Z M416 209 C455 209 491 224 518 247 C516 250 514 253 512 255 C486 233 452 219 416 219 C380 219 346 233 320 255 L313 247 C341 224 377 209 416 209 L416 209 Z M416 265 C441 265 463 274 481 289 C479 292 476 294 474 297 C458 283 438 275 416 275 C394 275 373 283 357 297 L350 289 C368 274 391 265 416 265 L416 265 Z M358 445 C374 459 394 467 416 467 C438 467 458 459 474 445 L482 453 C464 468 441 477 416 477 C391 477 368 468 350 453 C351 452 354 448 358 445 L358 445 Z M570 552 C572 554 575 557 577 560 C534 598 478 621 416 621 C355 621 299 598 256 560 L263 553 C304 589 357 611 416 611 C475 611 529 589 570 552 L570 552 Z M454 346 C458 353 461 362 461 371 C461 380 458 389 454 396 L448 391 C451 385 453 378 453 371 C453 364 451 357 448 351 C448 351 450 349 454 346 L454 346 Z M468 333 C476 344 480 357 480 371 C480 385 476 398 468 409 L460 402 C466 393 470 382 470 371 C470 360 466 349 460 340 C463 338 465 336 468 333 L468 333 Z M498 306 C511 325 519 347 519 371 C519 395 511 418 497 436 L490 429 C502 413 509 393 509 371 C509 349 502 329 490 313 C492 311 495 308 498 306 L498 306 Z M540 269 C562 297 575 332 575 371 C575 410 562 445 539 473 L531 466 C552 440 565 407 565 371 C565 335 552 302 532 276 C535 274 537 271 540 269 L540 269 Z M568 243 C596 278 613 322 613 371 C613 420 596 464 568 499 L560 492 C587 459 603 417 603 371 C603 325 587 283 560 250 C563 248 566 245 568 243 L568 243 Z M604 211 C640 254 661 310 661 371 C661 432 640 488 604 531 L596 524 C631 483 651 429 651 371 C651 313 631 260 596 218 C601 213 604 211 604 211 L604 211 Z M649 171 C694 225 721 295 721 371 C721 447 694 517 649 571 L641 564 C685 512 711 445 711 371 C711 297 685 230 642 177 C644 175 647 173 649 171 L649 171 Z M706 120 C762 188 796 276 796 371 C796 467 762 555 706 622 L698 615 C753 549 786 464 786 371 C786 278 753 193 698 127 C703 123 706 120 706 120 L706 120 Z M183 170 L190 177 C147 229 121 297 121 371 C121 444 147 512 190 564 C187 567 184 569 182 571 C138 517 111 447 111 371 C111 294 138 225 183 170 L183 170 Z M334 306 L342 314 C330 330 323 350 323 371 C323 393 330 413 342 429 C340 431 337 434 334 436 C321 418 313 395 313 371 C313 346 321 324 334 306 L334 306 Z M364 333 L371 340 C366 349 362 360 362 371 C362 382 366 393 371 402 C369 404 366 406 364 409 C356 398 352 385 352 371 C352 357 356 344 364 333 L364 333 Z M395 403 C401 408 408 410 416 410 C424 410 431 407 437 403 C437 403 439 406 442 409 C435 415 426 418 416 418 C406 418 397 415 390 409 L395 403 Z M384 416 C393 423 404 428 416 428 C428 428 439 424 448 416 C450 419 452 421 454 423 C443 432 430 437 416 437 C401 437 388 432 377 423 L384 416 Z M371 430 C383 441 399 447 416 447 C433 447 449 441 461 430 C461 430 464 434 468 438 C454 450 436 457 416 457 C397 457 378 450 364 438 L371 430 Z M295 516 C327 545 370 562 416 562 C462 562 505 545 538 516 C538 516 545 523 544 523 C510 554 465 572 416 572 C367 572 322 554 288 524 L295 516 Z M416 240 C448 240 476 252 498 271 L491 278 C471 261 445 250 416 250 C388 250 361 261 340 278 L333 270 C355 251 384 240 416 240 L416 240 Z M416 285 C436 285 454 292 468 304 L461 312 C448 301 433 295 416 295 C399 295 383 302 370 312 L363 304 C378 292 396 285 416 285 L416 285 Z M416 305 C430 305 444 310 455 319 L448 326 C439 319 428 314 416 314 C404 314 393 319 383 326 L376 319 C388 310 401 305 416 305 L416 305 Z M341 464 C362 482 388 492 416 492 C445 492 471 481 491 464 L498 472 C476 491 447 502 416 502 C385 502 356 490 334 471 L341 464 Z M320 487 C346 509 380 523 416 523 C453 523 486 510 512 487 L518 494 C491 518 455 533 416 533 C377 533 341 519 313 495 L320 487 Z M610 597 L617 605 C563 653 493 682 416 682 C339 682 269 653 215 605 L222 598 C274 644 342 672 416 672 C491 672 559 644 610 597 L610 597 Z M172 654 C237 713 322 749 416 749 C510 749 596 713 661 654 L668 662 C601 722 512 759 416 759 C320 759 232 723 165 662 L172 654 Z M516 290 C534 312 544 340 544 371 C544 402 534 430 516 453 L508 446 C524 425 534 399 534 371 C534 343 524 317 509 297 L516 290 Z " />
<glyph glyph-name="summation" unicode="&#x2211;" horiz-adv-x="832" d="M126 120 C126 120 129 123 134 127 C79 193 46 278 46 371 C46 464 79 549 133 615 C129 619 126 621 126 621 C70 554 36 466 36 371 C36 275 70 187 126 120 L126 120 Z M228 211 C230 213 233 215 235 218 C201 259 181 313 181 371 C181 429 202 483 235 524 C232 526 230 529 227 531 C192 487 171 432 171 371 C171 310 193 254 228 211 L228 211 Z M264 243 C267 245 269 248 272 250 C245 283 229 325 229 371 C229 417 245 459 272 492 C269 494 267 497 264 499 C236 464 219 419 219 371 C219 322 236 278 264 243 L264 243 Z M316 289 C319 291 321 294 324 296 C308 317 298 343 298 371 C298 399 308 425 323 445 C321 448 318 450 316 452 C298 430 288 402 288 371 C288 340 298 312 316 289 L316 289 Z M349 320 C352 323 354 325 357 327 C348 340 343 355 343 371 C343 387 348 402 357 415 C354 417 352 420 349 422 C339 408 333 390 333 371 C333 352 339 334 349 320 L349 320 Z M378 346 C382 349 384 351 384 351 C381 357 379 364 379 371 C379 378 381 385 384 391 C384 391 382 393 378 396 C374 389 371 380 371 371 C371 362 374 353 378 346 L378 346 Z M416 60 C493 60 563 89 616 136 C614 139 611 141 609 144 C558 98 490 70 416 70 C342 70 274 98 222 144 C222 145 215 137 215 137 C268 89 338 60 416 60 L416 60 Z M416 324 C426 324 435 327 442 333 C439 337 437 339 437 339 C431 334 424 332 416 332 C408 332 401 335 395 339 C395 339 391 334 389 333 C397 327 406 324 416 324 L416 324 Z M482 319 C493 334 499 352 499 371 C499 390 493 408 482 422 C483 422 475 415 475 415 C484 403 489 388 489 371 C489 355 484 339 475 326 C478 324 480 322 482 319 L482 319 Z M292 269 C295 271 298 274 300 276 C280 302 267 335 267 371 C267 407 280 440 300 466 L293 473 C270 445 257 410 257 371 C257 333 270 297 292 269 L292 269 Z M416 -17 C512 -17 600 19 667 80 C667 80 660 88 660 87 C595 29 510 -7 416 -7 C322 -7 236 29 171 88 L164 80 C231 20 320 -17 416 -17 L416 -17 Z M416 121 C478 121 534 144 576 182 C574 185 571 187 569 190 C529 153 475 131 416 131 C357 131 303 153 262 190 L255 182 C298 144 354 121 416 121 L416 121 Z M416 170 C465 170 510 188 544 218 C542 221 539 223 537 226 C505 197 462 180 416 180 C369 180 327 197 294 226 L287 219 C322 189 367 170 416 170 L416 170 Z M416 209 C455 209 491 224 518 247 C516 250 514 253 512 255 C486 233 452 219 416 219 C380 219 346 233 320 255 L313 247 C341 224 377 209 416 209 L416 209 Z M416 265 C441 265 463 274 481 289 C479 292 476 294 474 297 C458 283 438 275 416 275 C394 275 373 283 357 297 L350 289 C368 274 391 265 416 265 L416 265 Z M358 445 C374 459 394 467 416 467 C438 467 458 459 474 445 L482 453 C464 468 441 477 416 477 C391 477 368 468 350 453 C351 452 354 448 358 445 L358 445 Z M570 552 C572 554 575 557 577 560 C534 598 478 621 416 621 C355 621 299 598 256 560 L263 553 C304 589 357 611 416 611 C475 611 529 589 570 552 L570 552 Z M454 346 C458 353 461 362 461 371 C461 380 458 389 454 396 L448 391 C451 385 453 378 453 371 C453 364 451 357 448 351 C448 351 450 349 454 346 L454 346 Z M468 333 C476 344 480 357 480 371 C480 385 476 398 468 409 L460 402 C466 393 470 382 470 371 C470 360 466 349 460 340 C463 338 465 336 468 333 L468 333 Z M498 306 C511 325 519 347 519 371 C519 395 511 418 497 436 L490 429 C502 413 509 393 509 371 C509 349 502 329 490 313 C492 311 495 308 498 306 L498 306 Z M540 269 C562 297 575 332 575 371 C575 410 562 445 539 473 L531 466 C552 440 565 407 565 371 C565 335 552 302 532 276 C535 274 537 271 540 269 L540 269 Z M568 243 C596 278 613 322 613 371 C613 420 596 464 568 499 L560 492 C587 459 603 417 603 371 C603 325 587 283 560 250 C563 248 566 245 568 243 L568 243 Z M604 211 C640 254 661 310 661 371 C661 432 640 488 604 531 L596 524 C631 483 651 429 651 371 C651 313 631 260 596 218 C601 213 604 211 604 211 L604 211 Z M649 171 C694 225 721 295 721 371 C721 447 694 517 649 571 L641 564 C685 512 711 445 711 371 C711 297 685 230 642 177 C644 175 647 173 649 171 L649 171 Z M706 120 C762 188 796 276 796 371 C796 467 762 555 706 622 L698 615 C753 549 786 464 786 371 C786 278 753 193 698 127 C703 123 706 120 706 120 L706 120 Z M183 170 L190 177 C147 229 121 297 121 371 C121 444 147 512 190 564 C187 567 184 569 182 571 C138 517 111 447 111 371 C111 294 138 225 183 170 L183 170 Z M334 306 L342 314 C330 330 323 350 323 371 C323 393 330 413 342 429 C340 431 337 434 334 436 C321 418 313 395 313 371 C313 346 321 324 334 306 L334 306 Z M364 333 L371 340 C366 349 362 360 362 371 C362 382 366 393 371 402 C369 404 366 406 364 409 C356 398 352 385 352 371 C352 357 356 344 364 333 L364 333 Z M395 403 C401 408 408 410 416 410 C424 410 431 407 437 403 C437 403 439 406 442 409 C435 415 426 418 416 418 C406 418 397 415 390 409 L395 403 Z M384 416 C393 423 404 428 416 428 C428 428 439 424 448 416 C450 419 452 421 454 423 C443 432 430 437 416 437 C401 437 388 432 377 423 L384 416 Z M371 430 C383 441 399 447 416 447 C433 447 449 441 461 430 C461 430 464 434 468 438 C454 450 436 457 416 457 C397 457 378 450 364 438 L371 430 Z M295 516 C327 545 370 562 416 562 C462 562 505 545 538 516 C538 516 545 523 544 523 C510 554 465 572 416 572 C367 572 322 554 288 524 L295 516 Z M416 240 C448 240 476 252 498 271 L491 278 C471 261 445 250 416 250 C388 250 361 261 340 278 L333 270 C355 251 384 240 416 240 L416 240 Z M416 285 C436 285 454 292 468 304 L461 312 C448 301 433 295 416 295 C399 295 383 302 370 312 L363 304 C378 292 396 285 416 285 L416 285 Z M416 305 C430 305 444 310 455 319 L448 326 C439 319 428 314 416 314 C404 314 393 319 383 326 L376 319 C388 310 401 305 416 305 L416 305 Z M341 464 C362 482 388 492 416 492 C445 492 471 481 491 464 L498 472 C476 491 447 502 416 502 C385 502 356 490 334 471 L341 464 Z M320 487 C346 509 380 523 416 523 C453 523 486 510 512 487 L518 494 C491 518 455 533 416 533 C377 533 341 519 313 495 L320 487 Z M610 597 L617 605 C563 653 493 682 416 682 C339 682 269 653 215 605 L222 598 C274 644 342 672 416 672 C491 672 559 644 610 597 L610 597 Z M172 654 C237 713 322 749 416 749 C510 749 596 713 661 654 L668 662 C601 722 512 759 416 759 C320 759 232 723 165 662 L172 654 Z M516 290 C534 312 544 340 544 371 C544 402 534 430 516 453 L508 446 C524 425 534 399 534 371 C534 343 524 317 509 297 L516 290 Z " />
<glyph glyph-name="minus" unicode="&#x2212;" horiz-adv-x="359" d="M62 359 L296 359 L296 382 L62 382 L62 359 Z " />
<glyph glyph-name="radical" unicode="&#x221a;" horiz-adv-x="330" d="M127 -2 L152 -2 L310 741 L287 741 L140 49 L67 387 L43 387 L127 -2 Z " />
<glyph glyph-name="infinity" unicode="&#x221e;" horiz-adv-x="497" d="M252 0 L276 0 L276 519 L363 519 L363 542 L276 542 L276 655 C276 707 287 740 341 740 L363 740 L363 763 L341 763 C271 763 252 721 252 655 L252 542 L105 542 L105 655 C105 707 116 740 170 740 L192 740 L192 763 L170 763 C100 763 81 721 81 655 L81 542 L19 542 L19 519 L81 519 L81 0 L105 0 L105 519 L252 519 L252 0 Z M423 0 L447 0 L447 542 L423 542 L423 0 Z M423 629 L447 629 L447 711 L423 711 L423 629 Z " />
<glyph glyph-name="integral" unicode="&#x222b;" horiz-adv-x="832" d="M126 120 C126 120 129 123 134 127 C79 193 46 278 46 371 C46 464 79 549 133 615 C129 619 126 621 126 621 C70 554 36 466 36 371 C36 275 70 187 126 120 L126 120 Z M228 211 C230 213 233 215 235 218 C201 259 181 313 181 371 C181 429 202 483 235 524 C232 526 230 529 227 531 C192 487 171 432 171 371 C171 310 193 254 228 211 L228 211 Z M264 243 C267 245 269 248 272 250 C245 283 229 325 229 371 C229 417 245 459 272 492 C269 494 267 497 264 499 C236 464 219 419 219 371 C219 322 236 278 264 243 L264 243 Z M316 289 C319 291 321 294 324 296 C308 317 298 343 298 371 C298 399 308 425 323 445 C321 448 318 450 316 452 C298 430 288 402 288 371 C288 340 298 312 316 289 L316 289 Z M349 320 C352 323 354 325 357 327 C348 340 343 355 343 371 C343 387 348 402 357 415 C354 417 352 420 349 422 C339 408 333 390 333 371 C333 352 339 334 349 320 L349 320 Z M378 346 C382 349 384 351 384 351 C381 357 379 364 379 371 C379 378 381 385 384 391 C384 391 382 393 378 396 C374 389 371 380 371 371 C371 362 374 353 378 346 L378 346 Z M416 60 C493 60 563 89 616 136 C614 139 611 141 609 144 C558 98 490 70 416 70 C342 70 274 98 222 144 C222 145 215 137 215 137 C268 89 338 60 416 60 L416 60 Z M416 324 C426 324 435 327 442 333 C439 337 437 339 437 339 C431 334 424 332 416 332 C408 332 401 335 395 339 C395 339 391 334 389 333 C397 327 406 324 416 324 L416 324 Z M482 319 C493 334 499 352 499 371 C499 390 493 408 482 422 C483 422 475 415 475 415 C484 403 489 388 489 371 C489 355 484 339 475 326 C478 324 480 322 482 319 L482 319 Z M292 269 C295 271 298 274 300 276 C280 302 267 335 267 371 C267 407 280 440 300 466 L293 473 C270 445 257 410 257 371 C257 333 270 297 292 269 L292 269 Z M416 -17 C512 -17 600 19 667 80 C667 80 660 88 660 87 C595 29 510 -7 416 -7 C322 -7 236 29 171 88 L164 80 C231 20 320 -17 416 -17 L416 -17 Z M416 121 C478 121 534 144 576 182 C574 185 571 187 569 190 C529 153 475 131 416 131 C357 131 303 153 262 190 L255 182 C298 144 354 121 416 121 L416 121 Z M416 170 C465 170 510 188 544 218 C542 221 539 223 537 226 C505 197 462 180 416 180 C369 180 327 197 294 226 L287 219 C322 189 367 170 416 170 L416 170 Z M416 209 C455 209 491 224 518 247 C516 250 514 253 512 255 C486 233 452 219 416 219 C380 219 346 233 320 255 L313 247 C341 224 377 209 416 209 L416 209 Z M416 265 C441 265 463 274 481 289 C479 292 476 294 474 297 C458 283 438 275 416 275 C394 275 373 283 357 297 L350 289 C368 274 391 265 416 265 L416 265 Z M358 445 C374 459 394 467 416 467 C438 467 458 459 474 445 L482 453 C464 468 441 477 416 477 C391 477 368 468 350 453 C351 452 354 448 358 445 L358 445 Z M570 552 C572 554 575 557 577 560 C534 598 478 621 416 621 C355 621 299 598 256 560 L263 553 C304 589 357 611 416 611 C475 611 529 589 570 552 L570 552 Z M454 346 C458 353 461 362 461 371 C461 380 458 389 454 396 L448 391 C451 385 453 378 453 371 C453 364 451 357 448 351 C448 351 450 349 454 346 L454 346 Z M468 333 C476 344 480 357 480 371 C480 385 476 398 468 409 L460 402 C466 393 470 382 470 371 C470 360 466 349 460 340 C463 338 465 336 468 333 L468 333 Z M498 306 C511 325 519 347 519 371 C519 395 511 418 497 436 L490 429 C502 413 509 393 509 371 C509 349 502 329 490 313 C492 311 495 308 498 306 L498 306 Z M540 269 C562 297 575 332 575 371 C575 410 562 445 539 473 L531 466 C552 440 565 407 565 371 C565 335 552 302 532 276 C535 274 537 271 540 269 L540 269 Z M568 243 C596 278 613 322 613 371 C613 420 596 464 568 499 L560 492 C587 459 603 417 603 371 C603 325 587 283 560 250 C563 248 566 245 568 243 L568 243 Z M604 211 C640 254 661 310 661 371 C661 432 640 488 604 531 L596 524 C631 483 651 429 651 371 C651 313 631 260 596 218 C601 213 604 211 604 211 L604 211 Z M649 171 C694 225 721 295 721 371 C721 447 694 517 649 571 L641 564 C685 512 711 445 711 371 C711 297 685 230 642 177 C644 175 647 173 649 171 L649 171 Z M706 120 C762 188 796 276 796 371 C796 467 762 555 706 622 L698 615 C753 549 786 464 786 371 C786 278 753 193 698 127 C703 123 706 120 706 120 L706 120 Z M183 170 L190 177 C147 229 121 297 121 371 C121 444 147 512 190 564 C187 567 184 569 182 571 C138 517 111 447 111 371 C111 294 138 225 183 170 L183 170 Z M334 306 L342 314 C330 330 323 350 323 371 C323 393 330 413 342 429 C340 431 337 434 334 436 C321 418 313 395 313 371 C313 346 321 324 334 306 L334 306 Z M364 333 L371 340 C366 349 362 360 362 371 C362 382 366 393 371 402 C369 404 366 406 364 409 C356 398 352 385 352 371 C352 357 356 344 364 333 L364 333 Z M395 403 C401 408 408 410 416 410 C424 410 431 407 437 403 C437 403 439 406 442 409 C435 415 426 418 416 418 C406 418 397 415 390 409 L395 403 Z M384 416 C393 423 404 428 416 428 C428 428 439 424 448 416 C450 419 452 421 454 423 C443 432 430 437 416 437 C401 437 388 432 377 423 L384 416 Z M371 430 C383 441 399 447 416 447 C433 447 449 441 461 430 C461 430 464 434 468 438 C454 450 436 457 416 457 C397 457 378 450 364 438 L371 430 Z M295 516 C327 545 370 562 416 562 C462 562 505 545 538 516 C538 516 545 523 544 523 C510 554 465 572 416 572 C367 572 322 554 288 524 L295 516 Z M416 240 C448 240 476 252 498 271 L491 278 C471 261 445 250 416 250 C388 250 361 261 340 278 L333 270 C355 251 384 240 416 240 L416 240 Z M416 285 C436 285 454 292 468 304 L461 312 C448 301 433 295 416 295 C399 295 383 302 370 312 L363 304 C378 292 396 285 416 285 L416 285 Z M416 305 C430 305 444 310 455 319 L448 326 C439 319 428 314 416 314 C404 314 393 319 383 326 L376 319 C388 310 401 305 416 305 L416 305 Z M341 464 C362 482 388 492 416 492 C445 492 471 481 491 464 L498 472 C476 491 447 502 416 502 C385 502 356 490 334 471 L341 464 Z M320 487 C346 509 380 523 416 523 C453 523 486 510 512 487 L518 494 C491 518 455 533 416 533 C377 533 341 519 313 495 L320 487 Z M610 597 L617 605 C563 653 493 682 416 682 C339 682 269 653 215 605 L222 598 C274 644 342 672 416 672 C491 672 559 644 610 597 L610 597 Z M172 654 C237 713 322 749 416 749 C510 749 596 713 661 654 L668 662 C601 722 512 759 416 759 C320 759 232 723 165 662 L172 654 Z M516 290 C534 312 544 340 544 371 C544 402 534 430 516 453 L508 446 C524 425 534 399 534 371 C534 343 524 317 509 297 L516 290 Z " />
<glyph glyph-name="approxequal" unicode="&#x2248;" horiz-adv-x="359" d="M64 399 C72 420 83 437 110 437 C156 437 201 399 249 399 C282 399 300 423 311 454 L295 464 C286 442 276 421 248 421 C201 421 158 460 109 460 C78 460 58 439 48 408 L64 399 Z M64 236 C72 257 83 274 110 274 C156 274 201 236 249 236 C282 236 300 260 311 291 L295 301 C286 279 276 258 248 258 C201 258 158 297 109 297 C78 297 58 276 48 245 L64 236 Z " />
<glyph glyph-name="notequal" unicode="&#x2260;" horiz-adv-x="373" d="M252 0 L276 0 L276 519 L363 519 L363 542 L276 542 L276 655 C276 707 287 740 341 740 L363 740 L363 763 L341 763 C271 763 252 721 252 655 L252 542 L105 542 L105 655 C105 707 116 740 170 740 L192 740 L192 763 L170 763 C100 763 81 721 81 655 L81 542 L19 542 L19 519 L81 519 L81 0 L105 0 L105 519 L252 519 L252 0 Z " />
<glyph glyph-name="lessequal" unicode="&#x2264;" horiz-adv-x="359" d="M270 209 L270 233 L93 368 L270 503 L270 527 L77 380 L77 356 L270 209 Z M77 23 L270 23 L270 46 L77 46 L77 23 Z " />
<glyph glyph-name="greaterequal" unicode="&#x2265;" horiz-adv-x="359" d="M89 209 L282 356 L282 380 L89 527 L89 503 L266 368 L89 233 L89 209 Z M89 23 L282 23 L282 46 L89 46 L89 23 Z " />
<glyph glyph-name="lozenge" unicode="&#x25ca;" horiz-adv-x="388" d="M19 519 L81 519 L81 0 L105 0 L105 519 L247 519 L247 96 C247 32 260 0 331 0 L362 0 L362 23 L331 23 C278 23 271 47 271 96 L271 519 L362 519 L362 542 L271 542 L271 682 L250 676 L247 542 L105 542 L105 655 C105 707 116 740 170 740 L192 740 L192 763 L170 763 C100 763 81 721 81 655 L81 542 L19 542 L19 519 Z " />
<glyph glyph-name="apple" unicode="&#xf8ff;" horiz-adv-x="832" d="M126 120 C126 120 129 123 134 127 C79 193 46 278 46 371 C46 464 79 549 133 615 C129 619 126 621 126 621 C70 554 36 466 36 371 C36 275 70 187 126 120 L126 120 Z M228 211 C230 213 233 215 235 218 C201 259 181 313 181 371 C181 429 202 483 235 524 C232 526 230 529 227 531 C192 487 171 432 171 371 C171 310 193 254 228 211 L228 211 Z M264 243 C267 245 269 248 272 250 C245 283 229 325 229 371 C229 417 245 459 272 492 C269 494 267 497 264 499 C236 464 219 419 219 371 C219 322 236 278 264 243 L264 243 Z M316 289 C319 291 321 294 324 296 C308 317 298 343 298 371 C298 399 308 425 323 445 C321 448 318 450 316 452 C298 430 288 402 288 371 C288 340 298 312 316 289 L316 289 Z M349 320 C352 323 354 325 357 327 C348 340 343 355 343 371 C343 387 348 402 357 415 C354 417 352 420 349 422 C339 408 333 390 333 371 C333 352 339 334 349 320 L349 320 Z M378 346 C382 349 384 351 384 351 C381 357 379 364 379 371 C379 378 381 385 384 391 C384 391 382 393 378 396 C374 389 371 380 371 371 C371 362 374 353 378 346 L378 346 Z M416 60 C493 60 563 89 616 136 C614 139 611 141 609 144 C558 98 490 70 416 70 C342 70 274 98 222 144 C222 145 215 137 215 137 C268 89 338 60 416 60 L416 60 Z M416 324 C426 324 435 327 442 333 C439 337 437 339 437 339 C431 334 424 332 416 332 C408 332 401 335 395 339 C395 339 391 334 389 333 C397 327 406 324 416 324 L416 324 Z M482 319 C493 334 499 352 499 371 C499 390 493 408 482 422 C483 422 475 415 475 415 C484 403 489 388 489 371 C489 355 484 339 475 326 C478 324 480 322 482 319 L482 319 Z M292 269 C295 271 298 274 300 276 C280 302 267 335 267 371 C267 407 280 440 300 466 L293 473 C270 445 257 410 257 371 C257 333 270 297 292 269 L292 269 Z M416 -17 C512 -17 600 19 667 80 C667 80 660 88 660 87 C595 29 510 -7 416 -7 C322 -7 236 29 171 88 L164 80 C231 20 320 -17 416 -17 L416 -17 Z M416 121 C478 121 534 144 576 182 C574 185 571 187 569 190 C529 153 475 131 416 131 C357 131 303 153 262 190 L255 182 C298 144 354 121 416 121 L416 121 Z M416 170 C465 170 510 188 544 218 C542 221 539 223 537 226 C505 197 462 180 416 180 C369 180 327 197 294 226 L287 219 C322 189 367 170 416 170 L416 170 Z M416 209 C455 209 491 224 518 247 C516 250 514 253 512 255 C486 233 452 219 416 219 C380 219 346 233 320 255 L313 247 C341 224 377 209 416 209 L416 209 Z M416 265 C441 265 463 274 481 289 C479 292 476 294 474 297 C458 283 438 275 416 275 C394 275 373 283 357 297 L350 289 C368 274 391 265 416 265 L416 265 Z M358 445 C374 459 394 467 416 467 C438 467 458 459 474 445 L482 453 C464 468 441 477 416 477 C391 477 368 468 350 453 C351 452 354 448 358 445 L358 445 Z M570 552 C572 554 575 557 577 560 C534 598 478 621 416 621 C355 621 299 598 256 560 L263 553 C304 589 357 611 416 611 C475 611 529 589 570 552 L570 552 Z M454 346 C458 353 461 362 461 371 C461 380 458 389 454 396 L448 391 C451 385 453 378 453 371 C453 364 451 357 448 351 C448 351 450 349 454 346 L454 346 Z M468 333 C476 344 480 357 480 371 C480 385 476 398 468 409 L460 402 C466 393 470 382 470 371 C470 360 466 349 460 340 C463 338 465 336 468 333 L468 333 Z M498 306 C511 325 519 347 519 371 C519 395 511 418 497 436 L490 429 C502 413 509 393 509 371 C509 349 502 329 490 313 C492 311 495 308 498 306 L498 306 Z M540 269 C562 297 575 332 575 371 C575 410 562 445 539 473 L531 466 C552 440 565 407 565 371 C565 335 552 302 532 276 C535 274 537 271 540 269 L540 269 Z M568 243 C596 278 613 322 613 371 C613 420 596 464 568 499 L560 492 C587 459 603 417 603 371 C603 325 587 283 560 250 C563 248 566 245 568 243 L568 243 Z M604 211 C640 254 661 310 661 371 C661 432 640 488 604 531 L596 524 C631 483 651 429 651 371 C651 313 631 260 596 218 C601 213 604 211 604 211 L604 211 Z M649 171 C694 225 721 295 721 371 C721 447 694 517 649 571 L641 564 C685 512 711 445 711 371 C711 297 685 230 642 177 C644 175 647 173 649 171 L649 171 Z M706 120 C762 188 796 276 796 371 C796 467 762 555 706 622 L698 615 C753 549 786 464 786 371 C786 278 753 193 698 127 C703 123 706 120 706 120 L706 120 Z M183 170 L190 177 C147 229 121 297 121 371 C121 444 147 512 190 564 C187 567 184 569 182 571 C138 517 111 447 111 371 C111 294 138 225 183 170 L183 170 Z M334 306 L342 314 C330 330 323 350 323 371 C323 393 330 413 342 429 C340 431 337 434 334 436 C321 418 313 395 313 371 C313 346 321 324 334 306 L334 306 Z M364 333 L371 340 C366 349 362 360 362 371 C362 382 366 393 371 402 C369 404 366 406 364 409 C356 398 352 385 352 371 C352 357 356 344 364 333 L364 333 Z M395 403 C401 408 408 410 416 410 C424 410 431 407 437 403 C437 403 439 406 442 409 C435 415 426 418 416 418 C406 418 397 415 390 409 L395 403 Z M384 416 C393 423 404 428 416 428 C428 428 439 424 448 416 C450 419 452 421 454 423 C443 432 430 437 416 437 C401 437 388 432 377 423 L384 416 Z M371 430 C383 441 399 447 416 447 C433 447 449 441 461 430 C461 430 464 434 468 438 C454 450 436 457 416 457 C397 457 378 450 364 438 L371 430 Z M295 516 C327 545 370 562 416 562 C462 562 505 545 538 516 C538 516 545 523 544 523 C510 554 465 572 416 572 C367 572 322 554 288 524 L295 516 Z M416 240 C448 240 476 252 498 271 L491 278 C471 261 445 250 416 250 C388 250 361 261 340 278 L333 270 C355 251 384 240 416 240 L416 240 Z M416 285 C436 285 454 292 468 304 L461 312 C448 301 433 295 416 295 C399 295 383 302 370 312 L363 304 C378 292 396 285 416 285 L416 285 Z M416 305 C430 305 444 310 455 319 L448 326 C439 319 428 314 416 314 C404 314 393 319 383 326 L376 319 C388 310 401 305 416 305 L416 305 Z M341 464 C362 482 388 492 416 492 C445 492 471 481 491 464 L498 472 C476 491 447 502 416 502 C385 502 356 490 334 471 L341 464 Z M320 487 C346 509 380 523 416 523 C453 523 486 510 512 487 L518 494 C491 518 455 533 416 533 C377 533 341 519 313 495 L320 487 Z M610 597 L617 605 C563 653 493 682 416 682 C339 682 269 653 215 605 L222 598 C274 644 342 672 416 672 C491 672 559 644 610 597 L610 597 Z M172 654 C237 713 322 749 416 749 C510 749 596 713 661 654 L668 662 C601 722 512 759 416 759 C320 759 232 723 165 662 L172 654 Z M516 290 C534 312 544 340 544 371 C544 402 534 430 516 453 L508 446 C524 425 534 399 534 371 C534 343 524 317 509 297 L516 290 Z " />
<glyph glyph-name="fi" unicode="&#xfb01;" horiz-adv-x="326" d="M19 519 L81 519 L81 0 L105 0 L105 519 L192 519 L192 542 L105 542 L105 655 C105 707 116 740 170 740 L192 740 L192 763 L170 763 C100 763 81 721 81 655 L81 542 L19 542 L19 519 Z M252 0 L276 0 L276 542 L252 542 L252 0 Z M252 622 L276 622 L276 704 L252 704 L252 622 Z " />
<glyph glyph-name="fl" unicode="&#xfb02;" horiz-adv-x="357" d="M19 519 L81 519 L81 0 L105 0 L105 519 L192 519 L192 542 L105 542 L105 655 C105 707 116 740 170 740 L192 740 L192 763 L170 763 C100 763 81 721 81 655 L81 542 L19 542 L19 519 Z M323 0 L328 0 L328 23 L324 23 C279 23 276 34 276 81 L276 763 L252 763 L252 81 C252 29 255 0 323 0 L323 0 Z " />
</font>
</svg>
