<?xml version="1.0" encoding="UTF-8"?>
<svg xmlns="http://www.w3.org/2000/svg" xmlns:xlink="http://www.w3.org/1999/xlink" version="1.2" >
<font id="AntennaComp ExtraLight">
<font-face  font-family="AntennaComp" units-per-em="1000" ascent="800" descent="-200" font-style="normal" font-weight="200" font-stretch="normal" cap-height="741" x-height="547" underline-position="-75" underline-thickness="50" />
<missing-glyph  horiz-adv-x="84" d="" />
<glyph glyph-name="NULL" d="" />
<glyph glyph-name="CR" unicode="&#xd;" horiz-adv-x="250" d="" />
<glyph glyph-name="&amp;#x20;" unicode="&#x20;" horiz-adv-x="84" d="" />
<glyph glyph-name="&amp;#xa0;" unicode="&#xa0;" horiz-adv-x="84" d="" />
<glyph glyph-name="exclam" unicode="&#x21;" horiz-adv-x="140" d="M53 197 L88 197 L94 741 L48 741 L53 197 Z M46 0 L92 0 L92 77 L46 77 L46 0 Z " />
<glyph glyph-name="quotedbl" unicode="&#x22;" horiz-adv-x="184" d="M40 485 L73 485 L76 741 L36 741 L40 485 Z M111 485 L145 485 L148 741 L108 741 L111 485 Z " />
<glyph glyph-name="numbersign" unicode="&#x23;" horiz-adv-x="232" d="M35 0 L73 0 L93 277 L127 277 L107 0 L146 0 L165 277 L211 277 L211 315 L168 315 L176 417 L211 417 L211 455 L178 455 L199 741 L161 741 L140 455 L106 455 L127 741 L88 741 L67 455 L22 455 L22 417 L65 417 L58 315 L22 315 L22 277 L55 277 L35 0 Z M95 314 L103 419 L139 419 L131 314 L95 314 Z " />
<glyph glyph-name="dollar" unicode="&#x24;" horiz-adv-x="193" d="M78 -91 L114 -91 L114 2 C176 14 185 68 166 155 L69 602 C56 663 64 702 112 702 C127 702 143 700 153 697 L163 735 C151 739 132 741 114 741 L114 829 L78 829 L78 737 C30 723 12 674 31 591 L129 141 C148 53 123 39 84 39 C70 39 46 42 30 45 L22 7 C36 4 59 1 78 0 L78 -91 Z " />
<glyph glyph-name="percent" unicode="&#x25;" horiz-adv-x="368" d="M81 295 C101 295 116 300 126 313 C145 338 145 383 145 522 C145 659 145 702 127 727 C116 740 101 745 81 745 C61 745 47 740 35 727 C17 701 17 659 17 522 C17 382 17 337 36 313 C47 300 62 295 81 295 L81 295 Z M287 -4 C307 -4 322 1 332 15 C351 40 351 85 351 223 C351 360 351 404 333 428 C322 441 307 447 287 447 C267 447 253 441 241 428 C223 403 223 360 223 223 C223 84 223 39 242 14 C253 1 268 -4 287 -4 L287 -4 Z M81 330 C55 330 54 359 54 521 C54 684 55 709 81 709 C107 709 108 684 108 521 C108 359 108 330 81 330 L81 330 Z M287 31 C261 31 261 61 261 223 C261 386 261 411 287 411 C313 411 314 386 314 223 C314 61 314 31 287 31 L287 31 Z M106 0 L144 0 L263 741 L224 741 L106 0 Z " />
<glyph glyph-name="ampersand" unicode="&#x26;" horiz-adv-x="252" d="M102 -4 C154 -4 178 13 193 61 L213 0 L255 0 L208 140 C209 153 212 168 214 191 L229 445 L195 445 L181 219 L146 325 C136 353 127 379 119 403 C154 480 178 545 178 631 C178 707 171 746 108 746 C44 746 37 705 37 630 C37 561 50 496 76 415 C41 339 8 253 8 151 C8 39 21 -4 102 -4 L102 -4 Z M104 34 C53 34 47 68 47 153 C47 232 67 301 92 365 C98 348 104 330 111 312 L173 123 C163 47 144 34 104 34 L104 34 Z M75 630 C75 693 79 709 108 709 C136 709 140 693 140 630 C140 569 126 507 103 455 C84 522 75 574 75 630 L75 630 Z " />
<glyph glyph-name="quotesingle" unicode="&#x27;" horiz-adv-x="113" d="M40 485 L74 485 L77 741 L36 741 L40 485 Z " />
<glyph glyph-name="parenleft" unicode="&#x28;" horiz-adv-x="162" d="M110 -147 L145 -131 C119 -63 80 64 80 306 C80 546 118 671 145 742 L110 758 C82 687 40 551 40 305 C40 56 82 -76 110 -147 L110 -147 Z " />
<glyph glyph-name="parenright" unicode="&#x29;" horiz-adv-x="162" d="M52 -147 C80 -76 122 61 122 306 C122 555 80 687 52 758 L17 742 C43 674 82 547 82 306 C82 65 44 -61 17 -131 L52 -147 Z " />
<glyph glyph-name="asterisk" unicode="&#x2a;" horiz-adv-x="201" d="M83 483 L118 483 L114 589 L181 542 L200 571 L124 611 L201 654 L181 682 L114 634 L118 742 L83 742 L86 634 L23 681 L3 652 L75 610 L3 571 L23 543 L86 590 L83 483 Z " />
<glyph glyph-name="plus" unicode="&#x2b;" horiz-adv-x="231" d="M96 230 L136 230 L136 348 L193 348 L193 387 L136 387 L136 502 L96 502 L96 387 L38 387 L38 348 L96 348 L96 230 Z " />
<glyph glyph-name="comma" unicode="&#x2c;" horiz-adv-x="98" d="M37 -66 C67 -53 72 -41 72 9 L72 78 L26 78 L26 0 L45 0 C45 -31 42 -32 26 -41 L37 -66 Z " />
<glyph glyph-name="&amp;#x2d;" unicode="&#x2d;" horiz-adv-x="157" d="M19 283 L138 283 L138 321 L19 321 L19 283 Z " />
<glyph glyph-name="&amp;#xad;" unicode="&#xad;" horiz-adv-x="157" d="M19 283 L138 283 L138 321 L19 321 L19 283 Z " />
<glyph glyph-name="period" unicode="&#x2e;" horiz-adv-x="98" d="M26 0 L72 0 L72 78 L26 78 L26 0 Z " />
<glyph glyph-name="slash" unicode="&#x2f;" horiz-adv-x="178" d="M0 0 L39 0 L178 741 L139 741 L0 0 Z " />
<glyph glyph-name="zero" unicode="0" horiz-adv-x="223" d="M112 -5 C139 -5 163 2 177 29 C196 67 196 127 196 371 C196 610 196 671 177 710 C163 739 139 745 112 745 C84 745 60 739 47 710 C28 672 27 610 27 371 C27 129 28 68 47 30 C61 2 85 -5 112 -5 L112 -5 Z M112 34 C68 34 68 71 68 370 C68 670 68 706 112 706 C156 706 156 670 156 370 C156 71 156 34 112 34 L112 34 Z " />
<glyph glyph-name="one" unicode="1" horiz-adv-x="139" d="M59 0 L99 0 L99 741 L9 741 L9 702 L59 702 L59 0 Z " />
<glyph glyph-name="two" unicode="2" horiz-adv-x="181" d="M12 0 L165 0 L165 38 L52 38 L158 591 C164 618 167 641 167 663 C167 713 146 745 84 745 C53 745 30 741 12 732 L27 697 C42 703 59 706 81 706 C128 706 134 676 121 604 L12 37 L12 0 Z " />
<glyph glyph-name="three" unicode="3" horiz-adv-x="181" d="M70 -5 C95 -5 116 1 128 14 C156 41 157 95 157 208 C157 376 154 400 119 414 C150 431 152 461 152 584 C152 660 151 706 130 727 C118 740 100 745 74 745 C51 745 30 742 9 735 L20 698 C42 706 59 707 70 707 C112 707 113 672 113 578 C113 449 112 428 51 428 L33 428 L33 389 L48 389 C117 389 118 378 118 209 C118 73 117 34 68 34 C49 34 35 37 16 42 L6 5 C30 -3 50 -5 70 -5 L70 -5 Z " />
<glyph glyph-name="four" unicode="4" horiz-adv-x="218" d="M16 165 L126 165 L126 0 L165 0 L165 165 L207 165 L207 202 L165 202 L165 465 L136 465 L126 202 L55 202 L169 741 L131 741 L16 200 L16 165 Z " />
<glyph glyph-name="five" unicode="5" horiz-adv-x="187" d="M82 -5 C109 -5 127 0 141 13 C169 41 170 84 170 236 C170 382 169 433 149 457 C139 468 122 473 102 473 C72 473 60 467 54 460 L59 702 L154 702 L154 741 L23 741 L16 419 L48 413 C54 424 63 434 89 434 C129 434 130 417 130 236 C130 67 130 34 80 34 C60 34 37 39 26 43 L15 6 C30 1 51 -5 82 -5 L82 -5 Z " />
<glyph glyph-name="six" unicode="6" horiz-adv-x="214" d="M111 -5 C135 -5 162 -1 177 30 C195 66 196 111 196 283 C196 386 196 443 175 467 C164 479 148 484 123 484 C89 484 74 473 68 458 C68 583 68 663 91 686 C104 700 127 702 156 702 C159 702 169 702 170 702 L170 741 C169 741 159 741 157 741 C114 741 83 735 63 715 C27 679 27 631 27 294 C27 124 28 67 48 30 C61 1 90 -5 111 -5 L111 -5 Z M112 34 C73 34 68 62 68 284 C68 420 76 446 114 446 C154 446 156 420 156 283 C156 63 151 34 112 34 L112 34 Z " />
<glyph glyph-name="seven" unicode="7" horiz-adv-x="174" d="M10 702 L119 702 L39 0 L80 0 L160 706 L160 741 L10 741 L10 702 Z " />
<glyph glyph-name="eight" unicode="8" horiz-adv-x="213" d="M107 -5 C134 -5 153 1 165 12 C189 36 190 89 190 205 C190 332 188 390 158 410 C182 428 182 472 182 570 C182 660 182 705 162 726 C152 739 134 745 107 745 C82 745 64 739 53 728 C33 706 32 661 32 570 C32 472 32 428 55 410 C25 390 25 333 25 205 C25 88 25 36 50 12 C62 1 80 -5 107 -5 L107 -5 Z M107 33 C65 33 65 59 65 208 C65 358 65 391 107 391 C148 391 149 358 149 208 C149 59 149 33 107 33 L107 33 Z M107 427 C72 427 71 449 71 565 C71 681 72 708 107 708 C142 708 143 681 143 565 C143 449 142 427 107 427 L107 427 Z " />
<glyph glyph-name="nine" unicode="9" horiz-adv-x="214" d="M44 0 C46 0 56 0 57 0 C101 0 130 6 151 27 C187 62 187 110 187 448 C187 617 186 674 166 711 C152 741 125 745 103 745 C80 745 53 741 38 711 C20 675 19 630 19 458 C19 355 19 298 40 274 C51 261 67 257 91 257 C125 257 140 267 147 283 C147 154 146 78 123 55 C110 41 88 38 59 38 C56 38 46 38 44 38 L44 0 Z M100 295 C61 295 59 320 59 457 C59 677 63 706 102 706 C142 706 146 678 146 457 C146 321 139 295 100 295 L100 295 Z " />
<glyph glyph-name="colon" unicode="&#x3a;" horiz-adv-x="102" d="M29 0 L74 0 L74 78 L29 78 L29 0 Z M29 469 L74 469 L74 547 L29 547 L29 469 Z " />
<glyph glyph-name="semicolon" unicode="&#x3b;" horiz-adv-x="102" d="M29 469 L74 469 L74 547 L29 547 L29 469 Z M39 -66 C70 -53 74 -41 74 9 L74 78 L29 78 L29 0 L47 0 C47 -31 44 -32 28 -41 L39 -66 Z " />
<glyph glyph-name="less" unicode="&#x3c;" horiz-adv-x="231" d="M176 209 L176 259 L73 366 L176 474 L176 524 L37 384 L37 349 L176 209 Z " />
<glyph glyph-name="equal" unicode="&#x3d;" horiz-adv-x="231" d="M38 391 L194 391 L194 429 L38 429 L38 391 Z M38 278 L194 278 L194 316 L38 316 L38 278 Z " />
<glyph glyph-name="greater" unicode="&#x3e;" horiz-adv-x="231" d="M56 209 L195 349 L195 384 L56 524 L56 474 L159 366 L56 258 L56 209 Z " />
<glyph glyph-name="question" unicode="&#x3f;" horiz-adv-x="185" d="M64 197 L103 197 C103 256 102 298 115 363 L157 594 C170 666 178 745 84 745 C45 745 26 738 12 732 L26 697 C37 701 53 706 81 706 C132 706 129 663 119 606 L76 371 C64 306 64 262 64 197 L64 197 Z M63 0 L109 0 L109 74 L63 74 L63 0 Z " />
<glyph glyph-name="at" unicode="&#x40;" horiz-adv-x="350" d="M273 -145 L273 -118 L175 -118 C65 -118 60 -43 60 300 C60 646 65 718 177 718 C285 718 291 647 291 312 L291 103 C291 76 289 66 273 66 C258 66 256 76 256 103 L256 544 L226 545 L222 521 C212 542 191 550 163 550 C144 550 129 544 119 534 C95 508 93 446 93 295 C93 145 94 84 118 59 C127 47 143 41 164 41 C201 41 219 52 227 79 C229 50 239 41 271 41 C312 41 319 64 319 105 L319 312 C319 554 316 664 273 712 C252 735 222 745 177 745 C132 745 102 735 81 714 C34 667 31 555 31 300 C31 42 35 -73 84 -118 C105 -137 134 -145 175 -145 L273 -145 Z M171 75 C139 75 130 83 130 295 C130 506 139 515 171 515 C219 515 219 483 219 295 C219 106 219 75 171 75 L171 75 Z " />
<glyph glyph-name="A" unicode="A" horiz-adv-x="218" d="M7 0 L46 0 L65 193 L151 193 L171 0 L211 0 L131 744 L87 744 L7 0 Z M98 511 L108 642 L119 511 L147 231 L69 231 L98 511 Z " />
<glyph glyph-name="B" unicode="B" horiz-adv-x="226" d="M32 0 L110 0 C195 0 203 67 203 197 C203 307 204 369 154 385 C197 402 198 456 198 556 C198 684 193 741 107 741 L32 741 L32 0 Z M72 38 L72 362 L108 362 C162 362 163 310 163 199 C163 89 162 38 108 38 L72 38 Z M72 400 L72 703 L104 703 C158 703 159 662 159 552 C159 438 154 400 104 400 L72 400 Z " />
<glyph glyph-name="C" unicode="C" horiz-adv-x="176" d="M118 -5 C142 -5 160 1 174 6 L165 41 C154 38 138 35 120 35 C63 35 61 64 61 370 C61 666 61 705 120 705 C136 705 155 703 166 701 L173 739 C162 742 141 745 119 745 C92 745 62 741 43 710 C20 670 20 613 20 371 C20 129 19 75 44 30 C61 1 87 -5 118 -5 L118 -5 Z " />
<glyph glyph-name="D" unicode="D" horiz-adv-x="238" d="M33 0 L121 0 C153 0 178 7 195 36 C218 75 219 129 219 371 C219 611 218 665 196 705 C179 734 154 741 121 741 L33 741 L33 0 Z M73 37 L73 704 L118 704 C179 704 179 661 179 370 C179 78 179 37 118 37 L73 37 Z " />
<glyph glyph-name="E" unicode="E" horiz-adv-x="200" d="M32 0 L177 0 L177 38 L72 38 L72 362 L174 362 L174 401 L72 401 L72 702 L176 702 L176 741 L32 741 L32 0 Z " />
<glyph glyph-name="F" unicode="F" horiz-adv-x="182" d="M32 0 L72 0 L72 360 L172 360 L172 398 L72 398 L72 702 L175 702 L175 741 L32 741 L32 0 Z " />
<glyph glyph-name="G" unicode="G" horiz-adv-x="220" d="M117 -4 C141 -4 171 1 186 30 C203 62 204 108 204 254 L204 402 L98 402 L98 363 L166 363 L166 253 C166 77 166 33 118 33 C60 33 60 79 60 370 C60 666 60 706 121 706 C143 706 162 703 177 700 L186 738 C168 741 147 745 119 745 C90 745 61 739 43 710 C20 671 20 612 20 371 C20 133 19 74 44 29 C60 -1 91 -4 117 -4 L117 -4 Z " />
<glyph glyph-name="H" unicode="H" horiz-adv-x="253" d="M32 0 L72 0 L72 362 L182 362 L182 0 L222 0 L222 741 L182 741 L182 402 L72 402 L72 741 L32 741 L32 0 Z " />
<glyph glyph-name="I" unicode="I" horiz-adv-x="111" d="M35 0 L76 0 L76 741 L35 741 L35 0 Z " />
<glyph glyph-name="J" unicode="J" horiz-adv-x="128" d="M19 0 C88 0 99 35 99 82 L99 741 L58 741 L58 83 C58 54 56 39 13 39 L8 39 L8 0 L19 0 Z " />
<glyph glyph-name="K" unicode="K" horiz-adv-x="211" d="M32 0 L72 0 L72 228 L106 373 L167 0 L207 0 L132 456 L201 741 L162 741 L72 365 L72 741 L32 741 L32 0 Z " />
<glyph glyph-name="L" unicode="L" horiz-adv-x="183" d="M32 0 L176 0 L176 38 L72 38 L72 741 L32 741 L32 0 Z " />
<glyph glyph-name="M" unicode="M" horiz-adv-x="294" d="M32 0 L69 0 L69 598 L76 504 L129 0 L163 0 L217 505 L224 598 L224 0 L263 0 L263 741 L209 741 L153 203 L147 131 L141 203 L86 741 L32 741 L32 0 Z " />
<glyph glyph-name="N" unicode="N" horiz-adv-x="249" d="M32 0 L70 0 L70 617 L83 535 L179 0 L218 0 L218 741 L180 741 L180 175 L165 269 L80 741 L32 741 L32 0 Z " />
<glyph glyph-name="O" unicode="O" horiz-adv-x="238" d="M119 -5 C152 -5 179 2 195 29 C219 69 219 126 219 371 C219 612 219 670 195 711 C179 739 152 745 119 745 C87 745 60 739 43 710 C20 670 20 611 20 371 C20 129 20 70 44 30 C60 2 87 -5 119 -5 L119 -5 Z M119 34 C61 34 60 68 60 370 C60 672 60 705 119 705 C178 705 178 672 178 370 C178 68 178 34 119 34 L119 34 Z " />
<glyph glyph-name="P" unicode="P" horiz-adv-x="222" d="M32 0 L72 0 L72 316 L112 316 C199 316 204 385 204 530 C204 675 199 741 111 741 L32 741 L32 0 Z M72 354 L72 703 L109 703 C163 703 164 654 164 528 C164 403 163 354 109 354 L72 354 Z " />
<glyph glyph-name="Q" unicode="Q" horiz-adv-x="238" d="M180 -125 L180 -88 L174 -88 C141 -88 132 -80 132 -40 L132 -4 C158 -2 181 6 195 30 C219 69 219 126 219 371 C219 612 219 670 195 711 C179 739 152 745 119 745 C87 745 60 739 43 710 C20 670 20 611 20 371 C20 129 20 70 44 30 C55 10 73 1 94 -2 L94 -41 C94 -109 116 -125 172 -125 L180 -125 Z M119 34 C61 34 60 68 60 370 C60 672 60 705 119 705 C178 705 178 672 178 370 C178 68 178 34 119 34 L119 34 Z " />
<glyph glyph-name="R" unicode="R" horiz-adv-x="222" d="M32 0 L71 0 L71 326 L103 326 L154 0 L194 0 L142 330 C199 348 203 412 203 535 C203 675 198 741 111 741 L32 741 L32 0 Z M71 364 L71 703 L108 703 C162 703 163 654 163 534 C163 414 162 364 108 364 L71 364 Z " />
<glyph glyph-name="S" unicode="S" horiz-adv-x="192" d="M84 -6 C172 -6 187 53 165 150 L68 605 C55 666 63 705 111 705 C126 705 142 703 151 700 L162 739 C150 742 129 745 109 745 C37 745 7 693 29 595 L128 136 C147 49 122 34 83 34 C69 34 45 37 29 41 L21 2 C37 -2 64 -6 84 -6 L84 -6 Z " />
<glyph glyph-name="T" unicode="T" horiz-adv-x="193" d="M75 0 L116 0 L116 703 L185 703 L185 741 L8 741 L8 703 L75 703 L75 0 Z " />
<glyph glyph-name="U" unicode="U" horiz-adv-x="252" d="M126 -5 C220 -5 222 65 222 172 L222 741 L183 741 L183 172 C183 75 181 34 127 34 C72 34 71 75 71 172 L71 741 L30 741 L30 172 C30 64 32 -5 126 -5 L126 -5 Z " />
<glyph glyph-name="V" unicode="V" horiz-adv-x="217" d="M87 -3 L131 -3 L210 741 L171 741 L119 223 L110 102 L100 223 L47 741 L7 741 L87 -3 Z " />
<glyph glyph-name="W" unicode="W" horiz-adv-x="330" d="M82 -3 L121 -3 L159 465 L165 576 L172 465 L210 -3 L248 -3 L318 741 L280 741 L237 265 L228 139 L221 265 L185 741 L148 741 L112 266 L104 139 L95 266 L52 741 L12 741 L82 -3 Z " />
<glyph glyph-name="X" unicode="X" horiz-adv-x="213" d="M168 0 L208 0 L127 385 L201 741 L163 741 L109 470 L52 741 L12 741 L86 389 L5 0 L43 0 L104 303 L168 0 Z " />
<glyph glyph-name="Y" unicode="Y" horiz-adv-x="204" d="M81 0 L122 0 L122 257 L202 741 L163 741 L102 343 L42 741 L2 741 L81 263 L81 0 Z " />
<glyph glyph-name="Z" unicode="Z" horiz-adv-x="202" d="M18 0 L185 0 L185 38 L59 38 L180 705 L180 741 L24 741 L24 702 L139 702 L18 35 L18 0 Z " />
<glyph glyph-name="bracketleft" unicode="&#x5b;" horiz-adv-x="175" d="M44 -145 L141 -145 L141 -110 L84 -110 L84 720 L139 720 L139 756 L44 756 L44 -145 Z " />
<glyph glyph-name="backslash" unicode="&#x5c;" horiz-adv-x="178" d="M139 0 L178 0 L39 741 L0 741 L139 0 Z " />
<glyph glyph-name="bracketright" unicode="&#x5d;" horiz-adv-x="175" d="M42 -145 L139 -145 L139 756 L44 756 L44 720 L99 720 L99 -110 L42 -110 L42 -145 Z " />
<glyph glyph-name="asciicircum" unicode="&#x5e;" horiz-adv-x="203" d="M29 605 L64 605 L101 685 L138 605 L173 605 L121 717 L82 717 L29 605 Z " />
<glyph glyph-name="underscore" unicode="&#x5f;" horiz-adv-x="155" d="M-13 -100 L169 -100 L169 -67 L-13 -67 L-13 -100 Z " />
<glyph glyph-name="grave" unicode="&#x60;" horiz-adv-x="203" d="M95 605 L130 605 L87 717 L43 717 L95 605 Z " />
<glyph glyph-name="a" unicode="a" horiz-adv-x="206" d="M85 -4 C107 -4 132 1 144 27 C148 8 158 -1 188 -1 C190 -1 198 -1 199 0 L199 39 C177 39 174 47 174 82 L174 434 C174 513 170 551 102 551 C75 551 47 547 34 543 L43 505 C53 507 81 513 99 513 C135 513 135 491 135 430 L135 396 C25 392 17 348 17 178 C17 53 20 -4 85 -4 L85 -4 Z M92 34 C59 34 56 58 56 179 C56 335 59 356 135 358 L135 182 C135 74 135 34 92 34 L92 34 Z " />
<glyph glyph-name="b" unicode="b" horiz-adv-x="224" d="M127 -5 C151 -5 170 1 183 17 C206 42 206 97 206 275 C206 454 206 506 183 531 C170 546 152 551 128 551 C103 551 78 543 68 523 L68 756 L28 756 L28 1 L60 -2 L64 26 C76 4 99 -5 127 -5 L127 -5 Z M118 33 C70 33 68 65 68 274 C68 472 70 512 118 512 C166 512 166 482 166 274 C166 57 166 33 118 33 L118 33 Z " />
<glyph glyph-name="c" unicode="c" horiz-adv-x="160" d="M104 -4 C125 -4 140 0 153 6 L142 40 C131 36 120 34 107 34 C59 34 58 68 58 275 C58 471 59 512 107 512 C119 512 130 510 141 507 L152 545 C140 549 124 551 105 551 C80 551 58 543 45 528 C18 497 18 445 18 275 C18 103 18 47 45 17 C60 2 82 -4 104 -4 L104 -4 Z " />
<glyph glyph-name="d" unicode="d" horiz-adv-x="224" d="M97 -5 C129 -5 150 6 162 29 L166 -1 L197 2 L197 756 L157 756 L157 527 C146 544 124 551 97 551 C73 551 55 545 42 530 C19 505 18 450 18 272 C18 93 19 42 41 16 C55 1 73 -5 97 -5 L97 -5 Z M107 33 C58 33 58 62 58 271 C58 489 58 512 107 512 C155 512 157 481 157 271 C157 73 155 33 107 33 L107 33 Z " />
<glyph glyph-name="e" unicode="e" horiz-adv-x="186" d="M104 -5 C126 -5 145 1 166 11 L150 45 C135 37 119 34 106 34 C60 34 57 66 57 256 L170 256 L170 275 C170 449 170 503 149 530 C140 543 121 551 94 551 C69 551 50 542 40 529 C18 500 18 449 18 275 C18 102 18 48 45 17 C60 1 81 -5 104 -5 L104 -5 Z M94 513 C132 513 132 488 132 293 L57 293 C57 481 58 513 94 513 L94 513 Z " />
<glyph glyph-name="f" unicode="f" horiz-adv-x="141" d="M11 509 L47 509 L47 0 L87 0 L87 509 L135 509 L135 547 L87 547 L87 660 C87 702 94 717 130 717 L135 717 L135 756 C133 757 129 757 127 757 C66 757 47 729 47 662 L47 547 L11 547 L11 509 Z " />
<glyph glyph-name="g" unicode="g" horiz-adv-x="210" d="M105 194 C178 194 187 233 187 371 C187 450 183 496 168 520 L201 520 L201 555 L131 547 C122 549 113 550 104 550 C31 550 23 509 23 372 C23 276 27 227 53 207 C42 190 38 171 38 153 C38 129 43 113 60 100 C23 74 9 48 9 -19 C9 -103 23 -151 105 -151 C188 -151 201 -103 201 -13 C201 75 179 95 115 114 C81 125 73 134 73 159 C73 173 75 183 83 195 C89 194 97 194 105 194 L105 194 Z M105 231 C65 231 62 261 62 373 C62 484 65 514 105 514 C145 514 148 484 148 373 C148 261 145 231 105 231 L105 231 Z M106 80 C155 65 163 45 163 -16 C163 -81 159 -114 105 -114 C53 -114 47 -79 47 -16 C47 34 55 60 91 84 C95 83 100 81 106 80 L106 80 Z " />
<glyph glyph-name="h" unicode="h" horiz-adv-x="227" d="M28 0 L68 0 L68 408 C68 480 77 512 119 512 C158 512 159 492 159 427 L159 0 L199 0 L199 435 C199 509 198 551 128 551 C97 551 78 541 68 525 L68 756 L28 756 L28 0 Z " />
<glyph glyph-name="i" unicode="i" horiz-adv-x="100" d="M30 0 L70 0 L70 547 L30 547 L30 0 Z M30 627 L70 627 L70 716 L30 716 L30 627 Z " />
<glyph glyph-name="j" unicode="j" horiz-adv-x="100" d="M10 -145 C60 -145 70 -121 70 -82 L70 547 L30 547 L30 -79 C30 -100 29 -106 10 -107 L10 -145 Z M30 627 L70 627 L70 716 L30 716 L30 627 Z " />
<glyph glyph-name="k" unicode="k" horiz-adv-x="192" d="M28 0 L67 0 L67 161 L90 248 L152 0 L192 0 L113 317 L178 547 L140 547 L67 278 L67 756 L28 756 L28 0 Z " />
<glyph glyph-name="l" unicode="l" horiz-adv-x="117" d="M89 -1 C91 -1 98 -1 100 0 L100 39 L96 39 C74 39 70 46 70 80 L70 756 L30 756 L30 80 C30 28 36 -1 89 -1 L89 -1 Z " />
<glyph glyph-name="m" unicode="m" horiz-adv-x="350" d="M28 0 L68 0 L68 408 C68 476 75 512 117 512 C155 512 156 492 156 427 L156 0 L195 0 L195 407 C195 477 203 512 244 512 C282 512 283 492 283 427 L283 0 L323 0 L323 435 C323 509 321 551 253 551 C221 551 197 541 187 519 C177 545 160 551 126 551 C91 551 72 539 63 519 L59 545 L28 543 L28 0 Z " />
<glyph glyph-name="n" unicode="n" horiz-adv-x="227" d="M28 0 L68 0 L68 408 C68 480 77 512 119 512 C158 512 159 492 159 427 L159 0 L199 0 L199 435 C199 509 198 551 128 551 C91 551 72 540 63 519 L59 545 L28 543 L28 0 Z " />
<glyph glyph-name="o" unicode="o" horiz-adv-x="216" d="M108 -5 C135 -5 157 2 171 18 C198 49 198 103 198 275 C198 445 198 498 172 528 C158 544 135 551 108 551 C81 551 60 545 45 529 C18 498 18 445 18 275 C18 104 18 48 45 18 C60 2 82 -5 108 -5 L108 -5 Z M108 33 C58 33 58 60 58 275 C58 480 58 512 108 512 C158 512 158 481 158 275 C158 60 158 33 108 33 L108 33 Z " />
<glyph glyph-name="p" unicode="p" horiz-adv-x="224" d="M28 -145 L68 -145 L68 20 C78 4 100 -4 127 -4 C151 -4 170 2 183 17 C206 43 206 97 206 275 C206 454 206 506 183 531 C170 546 152 551 128 551 C98 551 73 542 63 517 L59 545 L28 543 L28 -145 Z M118 33 C70 33 68 65 68 274 C68 472 70 512 118 512 C166 512 166 482 166 274 C166 57 166 33 118 33 L118 33 Z " />
<glyph glyph-name="q" unicode="q" horiz-adv-x="224" d="M157 -145 L197 -145 L197 544 L165 546 L161 520 C151 545 124 551 98 551 C74 551 55 545 42 530 C19 505 18 450 18 271 C18 80 20 41 41 16 C55 2 73 -5 97 -5 C122 -5 145 4 157 22 L157 -145 Z M107 33 C58 33 58 62 58 271 C58 489 58 512 107 512 C155 512 157 481 157 271 C157 73 155 33 107 33 L107 33 Z " />
<glyph glyph-name="r" unicode="r" horiz-adv-x="132" d="M28 0 L68 0 L68 370 C68 486 82 510 125 510 L125 548 C91 548 72 537 63 513 L59 545 L28 543 L28 0 Z " />
<glyph glyph-name="s" unicode="s" horiz-adv-x="162" d="M67 -5 C145 -5 158 52 137 133 L62 437 C51 480 54 513 94 513 C107 513 122 511 131 509 L140 546 C128 549 109 551 92 551 C23 551 7 499 26 424 L101 120 C117 54 101 33 63 33 C45 33 29 36 18 38 L9 2 C25 -3 45 -5 67 -5 L67 -5 Z " />
<glyph glyph-name="t" unicode="t" horiz-adv-x="148" d="M124 -1 C126 -1 133 -1 135 0 L135 39 L128 39 C94 39 87 50 87 88 L87 509 L135 509 L135 547 L87 547 L87 705 L52 692 L48 547 L11 547 L11 509 L47 509 L47 86 C47 27 63 -1 124 -1 L124 -1 Z " />
<glyph glyph-name="u" unicode="u" horiz-adv-x="221" d="M111 -5 C191 -5 194 41 194 121 L194 547 L156 547 L156 123 C156 59 156 33 111 33 C68 33 68 59 68 123 L68 547 L28 547 L28 121 C28 44 31 -5 111 -5 L111 -5 Z " />
<glyph glyph-name="v" unicode="v" horiz-adv-x="178" d="M67 -2 L111 -2 L173 547 L136 547 L100 196 L90 78 L80 196 L44 547 L5 547 L67 -2 Z " />
<glyph glyph-name="w" unicode="w" horiz-adv-x="297" d="M62 -2 L101 -2 L140 340 L149 436 L158 341 L198 -2 L236 -2 L293 547 L258 547 L223 213 L215 109 L207 213 L169 547 L131 547 L94 215 L84 108 L75 216 L42 547 L5 547 L62 -2 Z " />
<glyph glyph-name="x" unicode="x" horiz-adv-x="182" d="M-1 0 L37 0 L88 220 L142 0 L182 0 L111 291 L173 547 L136 547 L93 362 L48 547 L8 547 L70 293 L-1 0 Z " />
<glyph glyph-name="y" unicode="y" horiz-adv-x="178" d="M29 -145 L35 -145 C78 -145 95 -124 100 -91 L174 547 L137 547 L100 197 L90 92 L81 195 L44 547 L5 547 L71 -24 L65 -82 C63 -100 58 -107 35 -107 L29 -107 L29 -145 Z " />
<glyph glyph-name="z" unicode="z" horiz-adv-x="165" d="M13 0 L152 0 L152 36 L53 36 L152 515 L152 547 L18 547 L18 509 L111 509 L13 32 L13 0 Z " />
<glyph glyph-name="braceleft" unicode="&#x7b;" horiz-adv-x="187" d="M128 -146 L153 -146 L153 -110 L136 -110 C104 -110 94 -103 94 -46 C94 17 113 180 113 246 C113 279 107 298 89 306 C108 315 113 332 113 365 C113 432 94 594 94 656 C94 713 104 720 136 720 L153 720 L153 756 L128 756 C73 756 54 743 54 660 C54 592 74 429 74 370 C74 331 66 324 30 324 L30 287 C66 287 74 281 74 242 C74 182 54 20 54 -50 C54 -132 73 -146 128 -146 L128 -146 Z " />
<glyph glyph-name="bar" unicode="&#x7c;" horiz-adv-x="124" d="M42 -145 L82 -145 L82 757 L42 757 L42 -145 Z " />
<glyph glyph-name="braceright" unicode="&#x7d;" horiz-adv-x="187" d="M34 -146 L59 -146 C114 -146 133 -132 133 -50 C133 20 113 182 113 242 C113 281 121 287 157 287 L157 324 C121 324 113 331 113 370 C113 429 133 592 133 660 C133 743 114 756 59 756 L34 756 L34 720 L52 720 C83 720 93 713 93 656 C93 594 74 432 74 365 C74 332 79 315 98 306 C80 298 74 279 74 246 C74 180 93 17 93 -46 C93 -103 83 -110 52 -110 L34 -110 L34 -146 Z " />
<glyph glyph-name="asciitilde" unicode="&#x7e;" horiz-adv-x="203" d="M28 431 L61 431 C61 452 65 458 72 458 C85 458 113 430 137 430 C162 430 175 440 174 491 L141 491 C141 469 139 463 131 463 C117 463 90 492 66 492 C44 492 28 481 28 431 L28 431 Z " />
<glyph glyph-name="exclamdown" unicode="&#xa1;" horiz-adv-x="140" d="M47 0 L93 0 L87 545 L52 545 L47 0 Z M48 664 L94 664 L94 741 L48 741 L48 664 Z " />
<glyph glyph-name="cent" unicode="&#xa2;" horiz-adv-x="180" d="M88 -97 L124 -97 L124 -3 C138 -2 150 1 160 6 L149 39 C139 35 127 33 114 33 C66 33 66 68 66 275 C66 471 66 512 114 512 C126 512 137 511 148 507 L159 545 C149 548 138 550 124 551 L124 641 L88 641 L88 548 C73 545 60 538 52 528 C25 497 25 445 25 275 C25 103 25 47 52 17 C61 7 74 1 88 -2 L88 -97 Z " />
<glyph glyph-name="sterling" unicode="&#xa3;" horiz-adv-x="213" d="M131 -2 C178 -2 191 18 191 93 L191 131 L154 131 L154 95 C154 45 150 35 126 35 C117 35 107 37 96 41 C102 61 100 89 98 126 L82 362 L150 362 L150 398 L79 398 L63 638 C61 677 67 706 106 706 C124 706 141 704 158 697 L173 733 C152 742 134 745 104 745 C42 745 19 709 24 633 L40 398 L13 398 L13 362 L42 362 L59 124 C64 44 64 38 13 38 L13 0 C43 0 64 4 77 13 C94 2 112 -2 131 -2 L131 -2 Z " />
<glyph glyph-name="currency" unicode="&#xa4;" horiz-adv-x="219" d="M12 393 L53 393 L53 346 L12 346 L12 311 L53 311 C53 135 57 48 91 15 C104 3 124 -4 150 -4 C173 -4 184 -1 197 4 L188 39 C177 36 165 34 152 34 C100 34 93 88 93 311 L175 311 L175 346 L93 346 L93 393 L175 393 L175 428 L93 428 C93 647 99 706 152 706 C163 706 183 705 189 703 L197 741 C186 743 169 745 151 745 C124 745 104 738 91 723 C57 688 53 600 53 428 L12 428 L12 393 Z " />
<glyph glyph-name="yen" unicode="&#xa5;" horiz-adv-x="209" d="M26 193 L85 193 L85 146 L26 146 L26 111 L85 111 L85 0 L124 0 L124 111 L184 111 L184 146 L124 146 L124 193 L184 193 L184 228 L124 228 L124 288 L189 741 L150 741 L105 362 L60 741 L21 741 L85 288 L85 228 L26 228 L26 193 Z " />
<glyph glyph-name="brokenbar" unicode="&#xa6;" horiz-adv-x="124" d="M42 384 L82 384 L82 756 L42 756 L42 384 Z M42 -145 L82 -145 L82 228 L42 228 L42 -145 Z " />
<glyph glyph-name="section" unicode="&#xa7;" horiz-adv-x="216" d="M43 0 C111 0 131 27 131 94 L131 180 C143 182 152 186 160 193 C187 214 189 267 189 385 C189 496 187 548 163 571 C154 579 142 585 127 587 L127 644 C127 688 134 703 175 703 L175 741 C107 741 88 715 88 647 L88 586 C72 584 61 579 52 572 C28 548 27 497 27 385 C27 270 28 216 55 194 C64 186 75 182 91 180 L91 97 C91 53 85 39 43 39 L43 0 Z M108 215 C69 215 66 241 66 385 C66 527 69 552 108 552 C147 552 150 527 150 385 C150 241 147 215 108 215 L108 215 Z " />
<glyph glyph-name="dieresis" unicode="&#xa8;" horiz-adv-x="203" d="M43 605 L80 605 L80 676 L43 676 L43 605 Z M124 605 L160 605 L160 676 L124 676 L124 605 Z " />
<glyph glyph-name="copyright" unicode="&#xa9;" horiz-adv-x="272" d="M145 120 C161 120 172 123 185 127 L177 156 C167 153 155 151 146 151 C113 151 110 189 110 366 C110 538 112 580 145 580 C158 580 166 579 177 577 L184 608 C173 611 159 612 145 612 C127 612 113 607 103 597 C78 571 78 505 78 366 C78 224 79 158 103 134 C112 125 126 120 145 120 L145 120 Z M141 -4 C172 -4 195 3 213 20 C253 58 263 153 263 371 C263 578 254 673 218 715 C201 736 175 745 141 745 C106 745 81 737 63 716 C27 674 18 579 18 371 C18 151 28 56 70 18 C88 3 110 -4 141 -4 L141 -4 Z M141 22 C58 22 45 84 45 371 C45 659 59 719 141 719 C223 719 236 659 236 371 C236 84 223 22 141 22 L141 22 Z " />
<glyph glyph-name="ordfeminine" unicode="&#xaa;" horiz-adv-x="198" d="M81 293 C107 293 123 302 131 325 C133 309 140 295 168 295 C170 295 178 295 179 296 L179 331 C161 331 158 336 158 363 L158 620 C158 678 158 713 142 731 C132 741 119 745 98 745 C78 745 55 742 42 739 L49 706 C64 709 82 711 96 711 C122 711 123 686 123 617 C34 612 28 566 28 435 C28 335 32 293 81 293 L81 293 Z M87 326 C66 326 63 349 63 436 C63 556 66 582 123 586 L123 468 C123 362 123 326 87 326 L87 326 Z M39 202 L161 202 L161 237 L39 237 L39 202 Z " />
<glyph glyph-name="guillemotleft" unicode="&#xab;" horiz-adv-x="238" d="M86 0 L123 0 L73 273 L123 547 L86 547 L36 273 L86 0 Z M164 0 L200 0 L151 273 L200 547 L164 547 L113 273 L164 0 Z " />
<glyph glyph-name="logicalnot" unicode="&#xac;" horiz-adv-x="832" d="M126 120 C126 120 129 123 134 127 C79 193 46 278 46 371 C46 464 79 549 133 615 C129 619 126 621 126 621 C70 554 36 466 36 371 C36 275 70 187 126 120 L126 120 Z M228 211 C230 213 233 215 235 218 C201 259 181 313 181 371 C181 429 202 483 235 524 C232 526 230 529 227 531 C192 487 171 432 171 371 C171 310 193 254 228 211 L228 211 Z M264 243 C267 245 269 248 272 250 C245 283 229 325 229 371 C229 417 245 459 272 492 C269 494 267 497 264 499 C236 464 219 419 219 371 C219 322 236 278 264 243 L264 243 Z M316 289 C319 291 321 294 324 296 C308 317 298 343 298 371 C298 399 308 425 323 445 C321 448 318 450 316 452 C298 430 288 402 288 371 C288 340 298 312 316 289 L316 289 Z M349 320 C352 323 354 325 357 327 C348 340 343 355 343 371 C343 387 348 402 357 415 C354 417 352 420 349 422 C339 408 333 390 333 371 C333 352 339 334 349 320 L349 320 Z M378 346 C382 349 384 351 384 351 C381 357 379 364 379 371 C379 378 381 385 384 391 C384 391 382 393 378 396 C374 389 371 380 371 371 C371 362 374 353 378 346 L378 346 Z M416 60 C493 60 563 89 616 136 C614 139 611 141 609 144 C558 98 490 70 416 70 C342 70 274 98 222 144 C222 145 215 137 215 137 C268 89 338 60 416 60 L416 60 Z M416 324 C426 324 435 327 442 333 C439 337 437 339 437 339 C431 334 424 332 416 332 C408 332 401 335 395 339 C395 339 391 334 389 333 C397 327 406 324 416 324 L416 324 Z M482 319 C493 334 499 352 499 371 C499 390 493 408 482 422 C483 422 475 415 475 415 C484 403 489 388 489 371 C489 355 484 339 475 326 C478 324 480 322 482 319 L482 319 Z M292 269 C295 271 298 274 300 276 C280 302 267 335 267 371 C267 407 280 440 300 466 L293 473 C270 445 257 410 257 371 C257 333 270 297 292 269 L292 269 Z M416 -17 C512 -17 600 19 667 80 C667 80 660 88 660 87 C595 29 510 -7 416 -7 C322 -7 236 29 171 88 L164 80 C231 20 320 -17 416 -17 L416 -17 Z M416 121 C478 121 534 144 576 182 C574 185 571 187 569 190 C529 153 475 131 416 131 C357 131 303 153 262 190 L255 182 C298 144 354 121 416 121 L416 121 Z M416 170 C465 170 510 188 544 218 C542 221 539 223 537 226 C505 197 462 180 416 180 C369 180 327 197 294 226 L287 219 C322 189 367 170 416 170 L416 170 Z M416 209 C455 209 491 224 518 247 C516 250 514 253 512 255 C486 233 452 219 416 219 C380 219 346 233 320 255 L313 247 C341 224 377 209 416 209 L416 209 Z M416 265 C441 265 463 274 481 289 C479 292 476 294 474 297 C458 283 438 275 416 275 C394 275 373 283 357 297 L350 289 C368 274 391 265 416 265 L416 265 Z M358 445 C374 459 394 467 416 467 C438 467 458 459 474 445 L482 453 C464 468 441 477 416 477 C391 477 368 468 350 453 C351 452 354 448 358 445 L358 445 Z M570 552 C572 554 575 557 577 560 C534 598 478 621 416 621 C355 621 299 598 256 560 L263 553 C304 589 357 611 416 611 C475 611 529 589 570 552 L570 552 Z M454 346 C458 353 461 362 461 371 C461 380 458 389 454 396 L448 391 C451 385 453 378 453 371 C453 364 451 357 448 351 C448 351 450 349 454 346 L454 346 Z M468 333 C476 344 480 357 480 371 C480 385 476 398 468 409 L460 402 C466 393 470 382 470 371 C470 360 466 349 460 340 C463 338 465 336 468 333 L468 333 Z M498 306 C511 325 519 347 519 371 C519 395 511 418 497 436 L490 429 C502 413 509 393 509 371 C509 349 502 329 490 313 C492 311 495 308 498 306 L498 306 Z M540 269 C562 297 575 332 575 371 C575 410 562 445 539 473 L531 466 C552 440 565 407 565 371 C565 335 552 302 532 276 C535 274 537 271 540 269 L540 269 Z M568 243 C596 278 613 322 613 371 C613 420 596 464 568 499 L560 492 C587 459 603 417 603 371 C603 325 587 283 560 250 C563 248 566 245 568 243 L568 243 Z M604 211 C640 254 661 310 661 371 C661 432 640 488 604 531 L596 524 C631 483 651 429 651 371 C651 313 631 260 596 218 C601 213 604 211 604 211 L604 211 Z M649 171 C694 225 721 295 721 371 C721 447 694 517 649 571 L641 564 C685 512 711 445 711 371 C711 297 685 230 642 177 C644 175 647 173 649 171 L649 171 Z M706 120 C762 188 796 276 796 371 C796 467 762 555 706 622 L698 615 C753 549 786 464 786 371 C786 278 753 193 698 127 C703 123 706 120 706 120 L706 120 Z M183 170 L190 177 C147 229 121 297 121 371 C121 444 147 512 190 564 C187 567 184 569 182 571 C138 517 111 447 111 371 C111 294 138 225 183 170 L183 170 Z M334 306 L342 314 C330 330 323 350 323 371 C323 393 330 413 342 429 C340 431 337 434 334 436 C321 418 313 395 313 371 C313 346 321 324 334 306 L334 306 Z M364 333 L371 340 C366 349 362 360 362 371 C362 382 366 393 371 402 C369 404 366 406 364 409 C356 398 352 385 352 371 C352 357 356 344 364 333 L364 333 Z M395 403 C401 408 408 410 416 410 C424 410 431 407 437 403 C437 403 439 406 442 409 C435 415 426 418 416 418 C406 418 397 415 390 409 L395 403 Z M384 416 C393 423 404 428 416 428 C428 428 439 424 448 416 C450 419 452 421 454 423 C443 432 430 437 416 437 C401 437 388 432 377 423 L384 416 Z M371 430 C383 441 399 447 416 447 C433 447 449 441 461 430 C461 430 464 434 468 438 C454 450 436 457 416 457 C397 457 378 450 364 438 L371 430 Z M295 516 C327 545 370 562 416 562 C462 562 505 545 538 516 C538 516 545 523 544 523 C510 554 465 572 416 572 C367 572 322 554 288 524 L295 516 Z M416 240 C448 240 476 252 498 271 L491 278 C471 261 445 250 416 250 C388 250 361 261 340 278 L333 270 C355 251 384 240 416 240 L416 240 Z M416 285 C436 285 454 292 468 304 L461 312 C448 301 433 295 416 295 C399 295 383 302 370 312 L363 304 C378 292 396 285 416 285 L416 285 Z M416 305 C430 305 444 310 455 319 L448 326 C439 319 428 314 416 314 C404 314 393 319 383 326 L376 319 C388 310 401 305 416 305 L416 305 Z M341 464 C362 482 388 492 416 492 C445 492 471 481 491 464 L498 472 C476 491 447 502 416 502 C385 502 356 490 334 471 L341 464 Z M320 487 C346 509 380 523 416 523 C453 523 486 510 512 487 L518 494 C491 518 455 533 416 533 C377 533 341 519 313 495 L320 487 Z M610 597 L617 605 C563 653 493 682 416 682 C339 682 269 653 215 605 L222 598 C274 644 342 672 416 672 C491 672 559 644 610 597 L610 597 Z M172 654 C237 713 322 749 416 749 C510 749 596 713 661 654 L668 662 C601 722 512 759 416 759 C320 759 232 723 165 662 L172 654 Z M516 290 C534 312 544 340 544 371 C544 402 534 430 516 453 L508 446 C524 425 534 399 534 371 C534 343 524 317 509 297 L516 290 Z " />
<glyph glyph-name="registered" unicode="&#xae;" horiz-adv-x="272" d="M141 -4 C172 -4 195 3 213 20 C253 58 263 153 263 371 C263 578 254 673 218 715 C201 736 175 745 141 745 C106 745 81 737 63 716 C27 674 18 579 18 371 C18 151 28 56 70 18 C88 3 110 -4 141 -4 L141 -4 Z M141 22 C58 22 45 84 45 371 C45 659 59 719 141 719 C223 719 236 659 236 371 C236 84 223 22 141 22 L141 22 Z M163 128 L194 128 L160 342 C196 355 199 398 199 475 C199 566 196 610 138 610 L85 610 L85 128 L115 128 L115 339 L128 339 L163 128 Z M115 368 L115 580 L136 580 C168 580 169 549 169 474 C169 398 168 368 136 368 L115 368 Z " />
<glyph glyph-name="&amp;#xaf;" unicode="&#xaf;" horiz-adv-x="203" d="M36 605 L167 605 L167 641 L36 641 L36 605 Z " />
<glyph glyph-name="&amp;#x2c9;" unicode="&#x2c9;" horiz-adv-x="203" d="M36 605 L167 605 L167 641 L36 641 L36 605 Z " />
<glyph glyph-name="degree" unicode="&#xb0;" horiz-adv-x="203" d="M102 296 C124 296 142 300 154 313 C174 338 175 381 175 521 C175 660 174 703 154 727 C142 740 124 745 102 745 C79 745 63 740 50 727 C29 702 28 660 28 521 C28 382 29 337 50 313 C62 301 80 296 102 296 L102 296 Z M102 331 C65 331 65 353 65 521 C65 689 65 708 102 708 C138 708 138 689 138 521 C138 353 138 331 102 331 L102 331 Z " />
<glyph glyph-name="plusminus" unicode="&#xb1;" horiz-adv-x="372" d="M166 0 L205 0 L205 509 L250 509 L250 547 L205 547 L205 660 C205 702 213 717 247 717 L250 717 L250 756 C248 757 245 757 243 757 C183 757 166 729 166 662 L166 547 L86 547 L86 660 C86 702 94 717 128 717 L131 717 L131 756 C129 757 126 757 124 757 C64 757 47 729 47 662 L47 547 L10 547 L10 509 L47 509 L47 0 L86 0 L86 509 L166 509 L166 0 Z M344 -1 C346 -1 353 -1 355 0 L355 39 L351 39 C328 39 325 46 325 80 L325 756 L285 756 L285 80 C285 28 291 -1 344 -1 L344 -1 Z " />
<glyph glyph-name="twosuperior" unicode="&#xb2;" horiz-adv-x="179" d="M37 301 L140 301 L140 333 L72 333 L136 648 C139 662 141 675 141 690 C141 725 126 744 81 744 C60 744 45 742 33 736 L47 705 C55 709 66 711 79 711 C99 711 105 701 105 683 C105 676 105 667 103 659 L37 333 L37 301 Z " />
<glyph glyph-name="threesuperior" unicode="&#xb3;" horiz-adv-x="177" d="M73 298 C95 298 109 302 118 311 C134 326 135 359 135 424 C135 502 136 535 116 546 C132 559 132 587 132 647 C132 692 131 717 119 730 C111 739 97 743 76 743 C65 743 51 743 33 737 L42 706 C55 710 66 710 72 710 C97 710 98 699 98 643 C98 568 97 559 67 559 L50 559 L50 526 L64 526 C100 526 101 520 101 425 C101 345 100 331 71 331 C59 331 51 333 40 336 L30 305 C44 300 59 298 73 298 L73 298 Z " />
<glyph glyph-name="acute" unicode="&#xb4;" horiz-adv-x="203" d="M73 605 L108 605 L161 717 L117 717 L73 605 Z " />
<glyph glyph-name="&amp;#xb5;" unicode="&#xb5;" horiz-adv-x="221" d="M28 -145 L68 -145 L68 14 C76 3 92 -5 111 -5 C139 -5 157 3 170 14 C193 35 194 75 194 129 L194 547 L156 547 L156 132 C156 68 153 33 111 33 C70 33 68 68 68 132 L68 547 L28 547 L28 -145 Z " />
<glyph glyph-name="&amp;#x3bc;" unicode="&#x3bc;" horiz-adv-x="221" d="M28 -145 L68 -145 L68 14 C76 3 92 -5 111 -5 C139 -5 157 3 170 14 C193 35 194 75 194 129 L194 547 L156 547 L156 132 C156 68 153 33 111 33 C70 33 68 68 68 132 L68 547 L28 547 L28 -145 Z " />
<glyph glyph-name="paragraph" unicode="&#xb6;" horiz-adv-x="214" d="M83 0 L122 0 L122 319 L144 319 L144 0 L183 0 L183 741 L109 741 C24 741 20 672 20 530 C20 405 23 336 83 322 L83 0 Z M115 354 C60 354 59 404 59 529 C59 654 60 704 115 704 L144 704 L144 354 L115 354 Z " />
<glyph glyph-name="&amp;#xb7;" unicode="&#xb7;" horiz-adv-x="98" d="M26 293 L72 293 L72 370 L26 370 L26 293 Z " />
<glyph glyph-name="&amp;#x2219;" unicode="&#x2219;" horiz-adv-x="98" d="M26 293 L72 293 L72 370 L26 370 L26 293 Z " />
<glyph glyph-name="cedilla" unicode="&#xb8;" horiz-adv-x="203" d="M111 -172 C156 -172 167 -158 167 -98 C167 -53 153 -40 121 -43 L130 8 L103 8 L92 -53 L109 -65 C127 -64 136 -66 136 -97 C136 -136 133 -141 108 -141 C100 -141 87 -139 78 -136 L69 -165 C84 -170 95 -172 111 -172 L111 -172 Z " />
<glyph glyph-name="onesuperior" unicode="&#xb9;" horiz-adv-x="156" d="M66 301 L102 301 L102 741 L35 741 L35 708 L66 708 L66 301 Z " />
<glyph glyph-name="ordmasculine" unicode="&#xba;" horiz-adv-x="198" d="M100 291 C120 291 135 297 147 309 C171 334 174 389 174 520 C174 645 172 700 150 725 C139 739 122 745 100 745 C77 745 60 738 50 726 C27 700 25 646 25 520 C25 390 27 334 52 308 C63 297 79 291 100 291 L100 291 Z M100 325 C63 325 61 353 61 519 C61 685 63 710 100 710 C135 710 138 685 138 519 C138 353 135 325 100 325 L100 325 Z M36 202 L163 202 L163 237 L36 237 L36 202 Z " />
<glyph glyph-name="guillemotright" unicode="&#xbb;" horiz-adv-x="238" d="M38 0 L74 0 L125 273 L74 547 L38 547 L88 273 L38 0 Z M115 0 L152 0 L202 273 L152 547 L115 547 L165 273 L115 0 Z " />
<glyph glyph-name="onequarter" unicode="&#xbc;" horiz-adv-x="300" d="M63 0 L100 0 L219 741 L182 741 L63 0 Z M159 89 L226 89 L226 0 L259 0 L259 89 L285 89 L285 121 L259 121 L259 241 L236 241 L226 121 L192 121 L260 441 L228 441 L159 120 L159 89 Z M50 301 L86 301 L86 741 L19 741 L19 708 L50 708 L50 301 Z " />
<glyph glyph-name="onehalf" unicode="&#xbd;" horiz-adv-x="314" d="M63 0 L100 0 L219 741 L182 741 L63 0 Z M50 301 L86 301 L86 741 L19 741 L19 708 L50 708 L50 301 Z M187 0 L290 0 L290 32 L223 32 L287 348 C290 362 292 375 292 390 C292 425 277 443 232 443 C211 443 196 441 184 435 L198 405 C206 409 217 410 230 410 C250 410 256 401 256 383 C256 376 256 368 253 358 L187 32 L187 0 Z " />
<glyph glyph-name="threequarters" unicode="&#xbe;" horiz-adv-x="328" d="M91 0 L128 0 L247 741 L210 741 L91 0 Z M186 89 L254 89 L254 0 L287 0 L287 89 L313 89 L313 121 L287 121 L287 241 L264 241 L254 121 L220 121 L288 441 L255 441 L186 120 L186 89 Z M57 298 C79 298 93 302 102 311 C118 326 119 359 119 424 C119 502 120 535 100 546 C116 559 116 587 116 647 C116 692 115 717 103 730 C95 739 81 743 59 743 C49 743 35 743 17 737 L26 706 C39 710 49 710 56 710 C81 710 82 699 82 643 C82 568 81 559 50 559 L34 559 L34 526 L48 526 C84 526 85 520 85 425 C85 345 84 331 54 331 C43 331 35 333 24 336 L13 305 C28 300 43 298 57 298 L57 298 Z " />
<glyph glyph-name="questiondown" unicode="&#xbf;" horiz-adv-x="185" d="M102 -4 C140 -4 159 4 173 10 L159 45 C149 41 132 35 104 35 C54 35 56 78 66 136 L109 370 C121 435 121 480 121 545 L82 545 C82 485 83 444 71 379 L29 148 C16 78 7 -4 102 -4 L102 -4 Z M77 667 L122 667 L122 741 L77 741 L77 667 Z " />
<glyph glyph-name="Agrave" unicode="&#xc0;" horiz-adv-x="218" d="M7 0 L46 0 L65 193 L151 193 L171 0 L211 0 L131 744 L87 744 L7 0 Z M98 511 L108 642 L119 511 L147 231 L69 231 L98 511 Z M102 785 L137 785 L94 897 L50 897 L102 785 Z " />
<glyph glyph-name="Aacute" unicode="&#xc1;" horiz-adv-x="218" d="M7 0 L46 0 L65 193 L151 193 L171 0 L211 0 L131 744 L87 744 L7 0 Z M98 511 L108 642 L119 511 L147 231 L69 231 L98 511 Z M80 785 L115 785 L168 897 L124 897 L80 785 Z " />
<glyph glyph-name="Acircumflex" unicode="&#xc2;" horiz-adv-x="218" d="M7 0 L46 0 L65 193 L151 193 L171 0 L211 0 L131 744 L87 744 L7 0 Z M98 511 L108 642 L119 511 L147 231 L69 231 L98 511 Z M36 785 L71 785 L108 865 L145 785 L180 785 L128 897 L89 897 L36 785 Z " />
<glyph glyph-name="Atilde" unicode="&#xc3;" horiz-adv-x="218" d="M7 0 L46 0 L65 193 L151 193 L171 0 L211 0 L131 744 L87 744 L7 0 Z M98 511 L108 642 L119 511 L147 231 L69 231 L98 511 Z M35 785 L68 785 C68 806 72 812 79 812 C92 812 120 784 144 784 C169 784 182 794 181 845 L148 845 C148 823 146 817 138 817 C124 817 97 846 73 846 C51 846 35 835 35 785 L35 785 Z " />
<glyph glyph-name="Adieresis" unicode="&#xc4;" horiz-adv-x="218" d="M7 0 L46 0 L65 193 L151 193 L171 0 L211 0 L131 744 L87 744 L7 0 Z M98 511 L108 642 L119 511 L147 231 L69 231 L98 511 Z M50 785 L87 785 L87 856 L50 856 L50 785 Z M131 785 L167 785 L167 856 L131 856 L131 785 Z " />
<glyph glyph-name="Aring" unicode="&#xc5;" horiz-adv-x="218" d="M7 0 L46 0 L65 193 L151 193 L171 0 L211 0 L132 733 C152 743 155 768 155 802 C155 847 151 876 108 876 C66 876 62 847 62 802 C62 767 64 741 86 732 L7 0 Z M98 511 L108 642 L119 511 L147 231 L69 231 L98 511 Z M108 754 C92 754 89 763 89 801 C89 840 92 850 108 850 C124 850 127 840 127 801 C127 763 124 754 108 754 L108 754 Z " />
<glyph glyph-name="AE" unicode="&#xc6;" horiz-adv-x="316" d="M-2 0 L39 0 L70 197 L149 197 L149 0 L293 0 L293 38 L188 38 L188 362 L284 362 L284 400 L188 400 L188 702 L293 702 L293 741 L120 741 L-2 0 Z M75 231 L149 700 L149 231 L75 231 Z " />
<glyph glyph-name="Ccedilla" unicode="&#xc7;" horiz-adv-x="176" d="M99 -172 C144 -172 155 -158 155 -98 C155 -53 141 -40 109 -43 L115 -5 L118 -5 C142 -5 160 1 174 6 L165 41 C154 38 138 35 120 35 C63 35 61 64 61 370 C61 666 61 705 120 705 C136 705 155 703 166 701 L173 739 C162 742 141 745 119 745 C92 745 62 741 43 710 C20 670 20 613 20 371 C20 129 19 75 44 30 C55 10 71 1 89 -2 L80 -53 L97 -65 C115 -64 124 -66 124 -97 C124 -136 121 -141 96 -141 C88 -141 75 -139 66 -136 L57 -165 C72 -170 83 -172 99 -172 L99 -172 Z " />
<glyph glyph-name="Egrave" unicode="&#xc8;" horiz-adv-x="200" d="M32 0 L177 0 L177 38 L72 38 L72 362 L174 362 L174 401 L72 401 L72 702 L176 702 L176 741 L32 741 L32 0 Z M94 785 L129 785 L86 897 L42 897 L94 785 Z " />
<glyph glyph-name="Eacute" unicode="&#xc9;" horiz-adv-x="200" d="M72 785 L107 785 L160 897 L116 897 L72 785 Z M32 0 L177 0 L177 38 L72 38 L72 362 L174 362 L174 401 L72 401 L72 702 L176 702 L176 741 L32 741 L32 0 Z " />
<glyph glyph-name="Ecircumflex" unicode="&#xca;" horiz-adv-x="200" d="M28 785 L63 785 L100 865 L137 785 L172 785 L120 897 L81 897 L28 785 Z M32 0 L177 0 L177 38 L72 38 L72 362 L174 362 L174 401 L72 401 L72 702 L176 702 L176 741 L32 741 L32 0 Z " />
<glyph glyph-name="Edieresis" unicode="&#xcb;" horiz-adv-x="200" d="M42 785 L79 785 L79 856 L42 856 L42 785 Z M123 785 L159 785 L159 856 L123 856 L123 785 Z M32 0 L177 0 L177 38 L72 38 L72 362 L174 362 L174 401 L72 401 L72 702 L176 702 L176 741 L32 741 L32 0 Z " />
<glyph glyph-name="Igrave" unicode="&#xcc;" horiz-adv-x="111" d="M38 785 L74 785 L41 898 L-5 898 L38 785 Z M35 0 L76 0 L76 741 L35 741 L35 0 Z " />
<glyph glyph-name="Iacute" unicode="&#xcd;" horiz-adv-x="111" d="M36 785 L72 785 L115 898 L70 898 L36 785 Z M35 0 L76 0 L76 741 L35 741 L35 0 Z " />
<glyph glyph-name="Icircumflex" unicode="&#xce;" horiz-adv-x="111" d="M-14 785 L21 785 L55 865 L89 785 L124 785 L75 898 L35 898 L-14 785 Z M35 0 L76 0 L76 741 L35 741 L35 0 Z " />
<glyph glyph-name="Idieresis" unicode="&#xcf;" horiz-adv-x="111" d="M35 0 L76 0 L76 741 L35 741 L35 0 Z M-3 785 L34 785 L34 856 L-3 856 L-3 785 Z M78 785 L114 785 L114 856 L78 856 L78 785 Z " />
<glyph glyph-name="Eth" unicode="&#xd0;" horiz-adv-x="238" d="M5 365 L33 365 L33 0 L121 0 C153 0 178 7 195 36 C218 75 219 129 219 371 C219 611 218 665 196 705 C179 734 154 741 121 741 L33 741 L33 402 L5 402 L5 365 Z M73 37 L73 365 L129 365 L129 402 L73 402 L73 704 L118 704 C179 704 179 661 179 370 C179 78 179 37 118 37 L73 37 Z " />
<glyph glyph-name="Ntilde" unicode="&#xd1;" horiz-adv-x="249" d="M32 0 L70 0 L70 617 L83 535 L179 0 L218 0 L218 741 L180 741 L180 175 L165 269 L80 741 L32 741 L32 0 Z M51 785 L84 785 C84 806 88 812 95 812 C108 812 136 784 160 784 C185 784 198 794 197 845 L164 845 C164 823 162 817 154 817 C140 817 113 846 89 846 C67 846 51 835 51 785 L51 785 Z " />
<glyph glyph-name="Ograve" unicode="&#xd2;" horiz-adv-x="238" d="M119 -5 C152 -5 179 2 195 29 C219 69 219 126 219 371 C219 612 219 670 195 711 C179 739 152 745 119 745 C87 745 60 739 43 710 C20 670 20 611 20 371 C20 129 20 70 44 30 C60 2 87 -5 119 -5 L119 -5 Z M119 34 C61 34 60 68 60 370 C60 672 60 705 119 705 C178 705 178 672 178 370 C178 68 178 34 119 34 L119 34 Z M113 785 L148 785 L105 897 L61 897 L113 785 Z " />
<glyph glyph-name="Oacute" unicode="&#xd3;" horiz-adv-x="238" d="M91 785 L126 785 L179 897 L135 897 L91 785 Z M119 -5 C152 -5 179 2 195 29 C219 69 219 126 219 371 C219 612 219 670 195 711 C179 739 152 745 119 745 C87 745 60 739 43 710 C20 670 20 611 20 371 C20 129 20 70 44 30 C60 2 87 -5 119 -5 L119 -5 Z M119 34 C61 34 60 68 60 370 C60 672 60 705 119 705 C178 705 178 672 178 370 C178 68 178 34 119 34 L119 34 Z " />
<glyph glyph-name="Ocircumflex" unicode="&#xd4;" horiz-adv-x="238" d="M47 785 L82 785 L119 865 L156 785 L191 785 L139 897 L100 897 L47 785 Z M119 -5 C152 -5 179 2 195 29 C219 69 219 126 219 371 C219 612 219 670 195 711 C179 739 152 745 119 745 C87 745 60 739 43 710 C20 670 20 611 20 371 C20 129 20 70 44 30 C60 2 87 -5 119 -5 L119 -5 Z M119 34 C61 34 60 68 60 370 C60 672 60 705 119 705 C178 705 178 672 178 370 C178 68 178 34 119 34 L119 34 Z " />
<glyph glyph-name="Otilde" unicode="&#xd5;" horiz-adv-x="238" d="M119 -5 C152 -5 179 2 195 29 C219 69 219 126 219 371 C219 612 219 670 195 711 C179 739 152 745 119 745 C87 745 60 739 43 710 C20 670 20 611 20 371 C20 129 20 70 44 30 C60 2 87 -5 119 -5 L119 -5 Z M119 34 C61 34 60 68 60 370 C60 672 60 705 119 705 C178 705 178 672 178 370 C178 68 178 34 119 34 L119 34 Z M46 785 L79 785 C79 806 83 812 90 812 C103 812 131 784 155 784 C180 784 193 794 192 845 L159 845 C159 823 157 817 149 817 C135 817 108 846 84 846 C62 846 46 835 46 785 L46 785 Z " />
<glyph glyph-name="Odieresis" unicode="&#xd6;" horiz-adv-x="238" d="M61 785 L98 785 L98 856 L61 856 L61 785 Z M142 785 L178 785 L178 856 L142 856 L142 785 Z M119 -5 C152 -5 179 2 195 29 C219 69 219 126 219 371 C219 612 219 670 195 711 C179 739 152 745 119 745 C87 745 60 739 43 710 C20 670 20 611 20 371 C20 129 20 70 44 30 C60 2 87 -5 119 -5 L119 -5 Z M119 34 C61 34 60 68 60 370 C60 672 60 705 119 705 C178 705 178 672 178 370 C178 68 178 34 119 34 L119 34 Z " />
<glyph glyph-name="multiply" unicode="&#xd7;" horiz-adv-x="231" d="M60 287 L116 343 L173 287 L196 310 L139 366 L196 423 L173 447 L116 390 L60 447 L36 423 L92 366 L36 310 L60 287 Z " />
<glyph glyph-name="Oslash" unicode="&#xd8;" horiz-adv-x="238" d="M50 -41 L81 -41 L86 -2 C96 -4 107 -5 119 -5 C152 -5 179 2 195 29 C219 69 219 126 219 371 C219 612 219 670 195 711 C190 718 185 725 179 729 L187 783 L157 783 L152 742 C142 744 131 745 119 745 C87 745 60 739 43 710 C20 670 20 611 20 371 C20 129 20 70 44 30 C48 23 52 17 57 13 L50 -41 Z M119 33 C107 33 97 34 90 41 L170 664 C180 627 180 537 180 370 C180 68 180 33 119 33 L119 33 Z M59 370 C59 672 59 707 119 707 C131 707 140 705 148 699 L69 81 C60 120 59 210 59 370 L59 370 Z " />
<glyph glyph-name="Ugrave" unicode="&#xd9;" horiz-adv-x="252" d="M126 -5 C220 -5 222 65 222 172 L222 741 L183 741 L183 172 C183 75 181 34 127 34 C72 34 71 75 71 172 L71 741 L30 741 L30 172 C30 64 32 -5 126 -5 L126 -5 Z M119 785 L154 785 L111 897 L67 897 L119 785 Z " />
<glyph glyph-name="Uacute" unicode="&#xda;" horiz-adv-x="252" d="M97 785 L132 785 L185 897 L141 897 L97 785 Z M126 -5 C220 -5 222 65 222 172 L222 741 L183 741 L183 172 C183 75 181 34 127 34 C72 34 71 75 71 172 L71 741 L30 741 L30 172 C30 64 32 -5 126 -5 L126 -5 Z " />
<glyph glyph-name="Ucircumflex" unicode="&#xdb;" horiz-adv-x="252" d="M53 785 L88 785 L125 865 L162 785 L197 785 L145 897 L106 897 L53 785 Z M126 -5 C220 -5 222 65 222 172 L222 741 L183 741 L183 172 C183 75 181 34 127 34 C72 34 71 75 71 172 L71 741 L30 741 L30 172 C30 64 32 -5 126 -5 L126 -5 Z " />
<glyph glyph-name="Udieresis" unicode="&#xdc;" horiz-adv-x="252" d="M67 785 L104 785 L104 856 L67 856 L67 785 Z M148 785 L184 785 L184 856 L148 856 L148 785 Z M126 -5 C220 -5 222 65 222 172 L222 741 L183 741 L183 172 C183 75 181 34 127 34 C72 34 71 75 71 172 L71 741 L30 741 L30 172 C30 64 32 -5 126 -5 L126 -5 Z " />
<glyph glyph-name="Yacute" unicode="&#xdd;" horiz-adv-x="204" d="M81 0 L122 0 L122 257 L202 741 L163 741 L102 343 L42 741 L2 741 L81 263 L81 0 Z M73 785 L108 785 L161 897 L117 897 L73 785 Z " />
<glyph glyph-name="Thorn" unicode="&#xde;" horiz-adv-x="222" d="M32 0 L72 0 L72 177 L112 177 C199 177 204 245 204 389 C204 535 199 601 111 601 L72 601 L72 741 L32 741 L32 0 Z M72 213 L72 563 L109 563 C163 563 164 514 164 387 C164 262 163 213 109 213 L72 213 Z " />
<glyph glyph-name="germandbls" unicode="&#xdf;" horiz-adv-x="219" d="M28 0 L68 0 L68 616 C68 701 73 721 112 721 C152 721 156 702 156 561 C156 417 151 401 112 401 L98 401 L98 367 L112 367 C151 367 165 360 165 201 C165 42 151 37 112 37 L97 37 L97 0 L112 0 C201 0 203 43 203 199 C203 353 194 373 162 389 C187 399 194 429 194 565 C194 731 184 758 112 758 C38 758 28 718 28 617 L28 0 Z " />
<glyph glyph-name="agrave" unicode="&#xe0;" horiz-adv-x="206" d="M85 -4 C107 -4 132 1 144 27 C148 8 158 -1 188 -1 C190 -1 198 -1 199 0 L199 39 C177 39 174 47 174 82 L174 434 C174 513 170 551 102 551 C75 551 47 547 34 543 L43 505 C53 507 81 513 99 513 C135 513 135 491 135 430 L135 396 C25 392 17 348 17 178 C17 53 20 -4 85 -4 L85 -4 Z M92 34 C59 34 56 58 56 179 C56 335 59 356 135 358 L135 182 C135 74 135 34 92 34 L92 34 Z M96 605 L131 605 L88 717 L44 717 L96 605 Z " />
<glyph glyph-name="aacute" unicode="&#xe1;" horiz-adv-x="206" d="M85 -4 C107 -4 132 1 144 27 C148 8 158 -1 188 -1 C190 -1 198 -1 199 0 L199 39 C177 39 174 47 174 82 L174 434 C174 513 170 551 102 551 C75 551 47 547 34 543 L43 505 C53 507 81 513 99 513 C135 513 135 491 135 430 L135 396 C25 392 17 348 17 178 C17 53 20 -4 85 -4 L85 -4 Z M92 34 C59 34 56 58 56 179 C56 335 59 356 135 358 L135 182 C135 74 135 34 92 34 L92 34 Z M74 605 L109 605 L162 717 L118 717 L74 605 Z " />
<glyph glyph-name="acircumflex" unicode="&#xe2;" horiz-adv-x="206" d="M85 -4 C107 -4 132 1 144 27 C148 8 158 -1 188 -1 C190 -1 198 -1 199 0 L199 39 C177 39 174 47 174 82 L174 434 C174 513 170 551 102 551 C75 551 47 547 34 543 L43 505 C53 507 81 513 99 513 C135 513 135 491 135 430 L135 396 C25 392 17 348 17 178 C17 53 20 -4 85 -4 L85 -4 Z M92 34 C59 34 56 58 56 179 C56 335 59 356 135 358 L135 182 C135 74 135 34 92 34 L92 34 Z M30 605 L65 605 L102 685 L139 605 L174 605 L122 717 L83 717 L30 605 Z " />
<glyph glyph-name="atilde" unicode="&#xe3;" horiz-adv-x="206" d="M85 -4 C107 -4 132 1 144 27 C148 8 158 -1 188 -1 C190 -1 198 -1 199 0 L199 39 C177 39 174 47 174 82 L174 434 C174 513 170 551 102 551 C75 551 47 547 34 543 L43 505 C53 507 81 513 99 513 C135 513 135 491 135 430 L135 396 C25 392 17 348 17 178 C17 53 20 -4 85 -4 L85 -4 Z M92 34 C59 34 56 58 56 179 C56 335 59 356 135 358 L135 182 C135 74 135 34 92 34 L92 34 Z M29 605 L62 605 C62 626 66 632 73 632 C86 632 114 604 138 604 C163 604 176 614 175 665 L142 665 C142 643 140 637 132 637 C118 637 91 666 67 666 C45 666 29 655 29 605 L29 605 Z " />
<glyph glyph-name="adieresis" unicode="&#xe4;" horiz-adv-x="206" d="M85 -4 C107 -4 132 1 144 27 C148 8 158 -1 188 -1 C190 -1 198 -1 199 0 L199 39 C177 39 174 47 174 82 L174 434 C174 513 170 551 102 551 C75 551 47 547 34 543 L43 505 C53 507 81 513 99 513 C135 513 135 491 135 430 L135 396 C25 392 17 348 17 178 C17 53 20 -4 85 -4 L85 -4 Z M92 34 C59 34 56 58 56 179 C56 335 59 356 135 358 L135 182 C135 74 135 34 92 34 L92 34 Z M44 605 L81 605 L81 676 L44 676 L44 605 Z M125 605 L161 605 L161 676 L125 676 L125 605 Z " />
<glyph glyph-name="aring" unicode="&#xe5;" horiz-adv-x="206" d="M85 -4 C107 -4 132 1 144 27 C148 8 158 -1 188 -1 C190 -1 198 -1 199 0 L199 39 C177 39 174 47 174 82 L174 434 C174 513 170 551 102 551 C75 551 47 547 34 543 L43 505 C53 507 81 513 99 513 C135 513 135 491 135 430 L135 396 C25 392 17 348 17 178 C17 53 20 -4 85 -4 L85 -4 Z M92 34 C59 34 56 58 56 179 C56 335 59 356 135 358 L135 182 C135 74 135 34 92 34 L92 34 Z M102 603 C145 603 149 632 149 676 C149 721 145 750 102 750 C60 750 56 721 56 676 C56 632 60 603 102 603 L102 603 Z M102 628 C86 628 83 637 83 675 C83 714 86 724 102 724 C118 724 121 714 121 675 C121 637 118 628 102 628 L102 628 Z " />
<glyph glyph-name="ae" unicode="&#xe6;" horiz-adv-x="303" d="M221 -5 C244 -5 263 1 283 11 L268 45 C253 37 237 34 224 34 C177 34 175 66 175 256 L288 256 L288 275 C289 449 288 503 267 530 C257 543 239 551 212 551 C187 551 171 542 161 529 C160 528 160 528 160 527 C150 543 132 551 102 551 C75 551 48 547 34 543 L43 505 C53 507 81 513 99 513 C133 513 135 494 135 431 L135 395 C25 391 17 348 17 178 C17 56 20 -4 85 -4 C116 -4 138 4 151 40 C155 31 159 23 165 17 C180 1 199 -5 221 -5 L221 -5 Z M92 34 C57 34 56 71 56 179 C56 335 59 356 135 358 L135 195 C135 76 135 34 92 34 L92 34 Z M212 513 C249 513 249 489 249 293 L175 293 C175 481 176 513 212 513 L212 513 Z " />
<glyph glyph-name="ccedilla" unicode="&#xe7;" horiz-adv-x="160" d="M91 -172 C136 -172 147 -158 147 -98 C147 -53 133 -40 101 -43 L108 -4 C127 -3 141 0 153 6 L142 40 C131 36 120 34 107 34 C59 34 58 68 58 275 C58 471 59 512 107 512 C119 512 130 510 141 507 L152 545 C140 549 124 551 105 551 C80 551 58 543 45 528 C18 497 18 445 18 275 C18 103 18 47 45 17 C54 7 67 1 81 -2 L72 -53 L89 -65 C107 -64 116 -66 116 -97 C116 -136 113 -141 88 -141 C80 -141 67 -139 58 -136 L49 -165 C64 -170 75 -172 91 -172 L91 -172 Z " />
<glyph glyph-name="egrave" unicode="&#xe8;" horiz-adv-x="186" d="M104 -5 C126 -5 145 1 166 11 L150 45 C135 37 119 34 106 34 C60 34 57 66 57 256 L170 256 L170 275 C170 449 170 503 149 530 C140 543 121 551 94 551 C69 551 50 542 40 529 C18 500 18 449 18 275 C18 102 18 48 45 17 C60 1 81 -5 104 -5 L104 -5 Z M94 513 C132 513 132 488 132 293 L57 293 C57 481 58 513 94 513 L94 513 Z M87 605 L122 605 L79 717 L35 717 L87 605 Z " />
<glyph glyph-name="eacute" unicode="&#xe9;" horiz-adv-x="186" d="M65 605 L100 605 L153 717 L109 717 L65 605 Z M104 -5 C126 -5 145 1 166 11 L150 45 C135 37 119 34 106 34 C60 34 57 66 57 256 L170 256 L170 275 C170 449 170 503 149 530 C140 543 121 551 94 551 C69 551 50 542 40 529 C18 500 18 449 18 275 C18 102 18 48 45 17 C60 1 81 -5 104 -5 L104 -5 Z M94 513 C132 513 132 488 132 293 L57 293 C57 481 58 513 94 513 L94 513 Z " />
<glyph glyph-name="ecircumflex" unicode="&#xea;" horiz-adv-x="186" d="M21 605 L56 605 L93 685 L130 605 L165 605 L113 717 L74 717 L21 605 Z M104 -5 C126 -5 145 1 166 11 L150 45 C135 37 119 34 106 34 C60 34 57 66 57 256 L170 256 L170 275 C170 449 170 503 149 530 C140 543 121 551 94 551 C69 551 50 542 40 529 C18 500 18 449 18 275 C18 102 18 48 45 17 C60 1 81 -5 104 -5 L104 -5 Z M94 513 C132 513 132 488 132 293 L57 293 C57 481 58 513 94 513 L94 513 Z " />
<glyph glyph-name="edieresis" unicode="&#xeb;" horiz-adv-x="186" d="M35 605 L72 605 L72 676 L35 676 L35 605 Z M116 605 L152 605 L152 676 L116 676 L116 605 Z M104 -5 C126 -5 145 1 166 11 L150 45 C135 37 119 34 106 34 C60 34 57 66 57 256 L170 256 L170 275 C170 449 170 503 149 530 C140 543 121 551 94 551 C69 551 50 542 40 529 C18 500 18 449 18 275 C18 102 18 48 45 17 C60 1 81 -5 104 -5 L104 -5 Z M94 513 C132 513 132 488 132 293 L57 293 C57 481 58 513 94 513 L94 513 Z " />
<glyph glyph-name="igrave" unicode="&#xec;" horiz-adv-x="100" d="M33 605 L69 605 L36 717 L-9 717 L33 605 Z M30 0 L70 0 L70 547 L30 547 L30 0 Z " />
<glyph glyph-name="iacute" unicode="&#xed;" horiz-adv-x="100" d="M31 605 L67 605 L108 717 L64 717 L31 605 Z M30 0 L70 0 L70 547 L30 547 L30 0 Z " />
<glyph glyph-name="icircumflex" unicode="&#xee;" horiz-adv-x="100" d="M-16 605 L20 605 L49 683 L79 605 L114 605 L69 717 L30 717 L-16 605 Z M30 0 L70 0 L70 547 L30 547 L30 0 Z " />
<glyph glyph-name="idieresis" unicode="&#xef;" horiz-adv-x="100" d="M-4 613 L31 613 L31 684 L-4 684 L-4 613 Z M68 613 L103 613 L103 684 L68 684 L68 613 Z M30 0 L70 0 L70 547 L30 547 L30 0 Z " />
<glyph glyph-name="eth" unicode="&#xf0;" horiz-adv-x="216" d="M85 612 L131 630 C138 602 145 570 150 535 C140 546 123 550 106 550 C75 550 57 542 45 528 C18 498 18 447 18 275 C18 103 18 48 45 18 C61 1 83 -5 108 -5 C142 -5 162 6 171 18 C198 48 198 110 198 275 L198 309 C198 472 187 567 167 644 L206 660 L206 693 L159 674 C151 703 141 730 130 758 L95 746 C103 725 114 696 124 660 L85 645 L85 612 Z M108 33 C58 33 58 60 58 275 C58 480 58 512 108 512 C158 512 158 481 158 275 C158 60 159 33 108 33 L108 33 Z " />
<glyph glyph-name="ntilde" unicode="&#xf1;" horiz-adv-x="227" d="M28 0 L68 0 L68 408 C68 480 77 512 119 512 C158 512 159 492 159 427 L159 0 L199 0 L199 435 C199 509 198 551 128 551 C91 551 72 540 63 519 L59 545 L28 543 L28 0 Z M40 605 L73 605 C73 626 77 632 84 632 C97 632 125 604 149 604 C174 604 187 614 186 665 L153 665 C153 643 151 637 143 637 C129 637 102 666 78 666 C56 666 40 655 40 605 L40 605 Z " />
<glyph glyph-name="ograve" unicode="&#xf2;" horiz-adv-x="216" d="M108 -5 C135 -5 157 2 171 18 C198 49 198 103 198 275 C198 445 198 498 172 528 C158 544 135 551 108 551 C81 551 60 545 45 529 C18 498 18 445 18 275 C18 104 18 48 45 18 C60 2 82 -5 108 -5 L108 -5 Z M108 33 C58 33 58 60 58 275 C58 480 58 512 108 512 C158 512 158 481 158 275 C158 60 158 33 108 33 L108 33 Z M101 605 L136 605 L93 717 L49 717 L101 605 Z " />
<glyph glyph-name="oacute" unicode="&#xf3;" horiz-adv-x="216" d="M79 605 L114 605 L167 717 L123 717 L79 605 Z M108 -5 C135 -5 157 2 171 18 C198 49 198 103 198 275 C198 445 198 498 172 528 C158 544 135 551 108 551 C81 551 60 545 45 529 C18 498 18 445 18 275 C18 104 18 48 45 18 C60 2 82 -5 108 -5 L108 -5 Z M108 33 C58 33 58 60 58 275 C58 480 58 512 108 512 C158 512 158 481 158 275 C158 60 158 33 108 33 L108 33 Z " />
<glyph glyph-name="ocircumflex" unicode="&#xf4;" horiz-adv-x="216" d="M35 605 L70 605 L107 685 L144 605 L179 605 L127 717 L88 717 L35 605 Z M108 -5 C135 -5 157 2 171 18 C198 49 198 103 198 275 C198 445 198 498 172 528 C158 544 135 551 108 551 C81 551 60 545 45 529 C18 498 18 445 18 275 C18 104 18 48 45 18 C60 2 82 -5 108 -5 L108 -5 Z M108 33 C58 33 58 60 58 275 C58 480 58 512 108 512 C158 512 158 481 158 275 C158 60 158 33 108 33 L108 33 Z " />
<glyph glyph-name="otilde" unicode="&#xf5;" horiz-adv-x="216" d="M108 -5 C135 -5 157 2 171 18 C198 49 198 103 198 275 C198 445 198 498 172 528 C158 544 135 551 108 551 C81 551 60 545 45 529 C18 498 18 445 18 275 C18 104 18 48 45 18 C60 2 82 -5 108 -5 L108 -5 Z M108 33 C58 33 58 60 58 275 C58 480 58 512 108 512 C158 512 158 481 158 275 C158 60 158 33 108 33 L108 33 Z M34 605 L67 605 C67 626 71 632 78 632 C91 632 119 604 143 604 C168 604 181 614 180 665 L147 665 C147 643 145 637 137 637 C123 637 96 666 72 666 C50 666 34 655 34 605 L34 605 Z " />
<glyph glyph-name="odieresis" unicode="&#xf6;" horiz-adv-x="216" d="M49 605 L86 605 L86 676 L49 676 L49 605 Z M130 605 L166 605 L166 676 L130 676 L130 605 Z M108 -5 C135 -5 157 2 171 18 C198 49 198 103 198 275 C198 445 198 498 172 528 C158 544 135 551 108 551 C81 551 60 545 45 529 C18 498 18 445 18 275 C18 104 18 48 45 18 C60 2 82 -5 108 -5 L108 -5 Z M108 33 C58 33 58 60 58 275 C58 480 58 512 108 512 C158 512 158 481 158 275 C158 60 158 33 108 33 L108 33 Z " />
<glyph glyph-name="divide" unicode="&#xf7;" horiz-adv-x="231" d="M98 227 L135 227 L135 285 L98 285 L98 227 Z M38 348 L193 348 L193 386 L38 386 L38 348 Z M98 445 L135 445 L135 504 L98 504 L98 445 Z " />
<glyph glyph-name="oslash" unicode="&#xf8;" horiz-adv-x="216" d="M32 -41 L63 -41 L71 1 C82 -3 94 -5 108 -5 C135 -5 157 2 171 18 C198 49 198 103 198 275 C198 444 198 497 172 527 L184 587 L153 587 L144 545 C133 549 121 551 108 551 C81 551 60 545 45 529 C18 498 18 445 18 275 C18 107 18 50 43 19 L32 -41 Z M108 32 C94 32 83 34 76 42 L157 460 C160 426 160 363 160 275 C160 60 160 32 108 32 L108 32 Z M57 275 C57 480 57 514 108 514 C122 514 132 511 140 504 L60 88 C57 123 57 185 57 275 L57 275 Z " />
<glyph glyph-name="ugrave" unicode="&#xf9;" horiz-adv-x="221" d="M111 -5 C191 -5 194 41 194 121 L194 547 L156 547 L156 123 C156 59 156 33 111 33 C68 33 68 59 68 123 L68 547 L28 547 L28 121 C28 44 31 -5 111 -5 L111 -5 Z M104 605 L139 605 L96 717 L52 717 L104 605 Z " />
<glyph glyph-name="uacute" unicode="&#xfa;" horiz-adv-x="221" d="M82 605 L117 605 L170 717 L126 717 L82 605 Z M111 -5 C191 -5 194 41 194 121 L194 547 L156 547 L156 123 C156 59 156 33 111 33 C68 33 68 59 68 123 L68 547 L28 547 L28 121 C28 44 31 -5 111 -5 L111 -5 Z " />
<glyph glyph-name="ucircumflex" unicode="&#xfb;" horiz-adv-x="221" d="M38 605 L73 605 L110 685 L147 605 L182 605 L130 717 L91 717 L38 605 Z M111 -5 C191 -5 194 41 194 121 L194 547 L156 547 L156 123 C156 59 156 33 111 33 C68 33 68 59 68 123 L68 547 L28 547 L28 121 C28 44 31 -5 111 -5 L111 -5 Z " />
<glyph glyph-name="udieresis" unicode="&#xfc;" horiz-adv-x="221" d="M52 605 L89 605 L89 676 L52 676 L52 605 Z M133 605 L169 605 L169 676 L133 676 L133 605 Z M111 -5 C191 -5 194 41 194 121 L194 547 L156 547 L156 123 C156 59 156 33 111 33 C68 33 68 59 68 123 L68 547 L28 547 L28 121 C28 44 31 -5 111 -5 L111 -5 Z " />
<glyph glyph-name="yacute" unicode="&#xfd;" horiz-adv-x="178" d="M29 -145 L35 -145 C78 -145 95 -124 100 -91 L174 547 L137 547 L100 197 L90 92 L81 195 L44 547 L5 547 L71 -24 L65 -82 C63 -100 58 -107 35 -107 L29 -107 L29 -145 Z M61 605 L96 605 L149 717 L105 717 L61 605 Z " />
<glyph glyph-name="thorn" unicode="&#xfe;" horiz-adv-x="224" d="M28 -145 L68 -145 L68 20 C80 3 100 -4 127 -4 C151 -4 170 2 183 17 C206 42 206 97 206 275 C206 454 206 506 183 531 C170 546 152 551 128 551 C101 551 79 542 68 522 L68 756 L28 756 L28 -145 Z M118 33 C70 33 68 65 68 274 C68 472 70 512 118 512 C166 512 166 482 166 274 C166 57 166 33 118 33 L118 33 Z " />
<glyph glyph-name="ydieresis" unicode="&#xff;" horiz-adv-x="178" d="M29 -145 L35 -145 C78 -145 95 -124 100 -91 L174 547 L137 547 L100 197 L90 92 L81 195 L44 547 L5 547 L71 -24 L65 -82 C63 -100 58 -107 35 -107 L29 -107 L29 -145 Z M31 605 L68 605 L68 676 L31 676 L31 605 Z M112 605 L148 605 L148 676 L112 676 L112 605 Z " />
<glyph glyph-name="dotlessi" unicode="&#x131;" horiz-adv-x="100" d="M30 0 L70 0 L70 547 L30 547 L30 0 Z " />
<glyph glyph-name="Lslash" unicode="&#x141;" horiz-adv-x="183" d="M5 334 L32 350 L32 0 L176 0 L176 38 L72 38 L72 373 L125 404 L125 443 L72 412 L72 741 L32 741 L32 389 L5 373 L5 334 Z " />
<glyph glyph-name="lslash" unicode="&#x142;" horiz-adv-x="157" d="M15 470 L50 490 L50 80 C50 28 56 -1 110 -1 C112 -1 118 -1 120 0 L120 39 L116 39 C94 39 90 46 90 80 L90 514 L134 540 L134 578 L90 552 L90 756 L50 756 L50 529 L15 509 L15 470 Z " />
<glyph glyph-name="OE" unicode="&#x152;" horiz-adv-x="344" d="M129 0 L321 0 L321 38 L216 38 L216 362 L318 362 L318 400 L216 400 L216 702 L320 702 L320 741 L129 741 C96 741 71 734 55 705 C32 665 31 611 31 371 C31 130 32 75 55 36 C72 7 97 0 129 0 L129 0 Z M132 37 C72 37 72 79 72 371 C72 662 72 704 132 704 L177 704 L177 37 L132 37 Z " />
<glyph glyph-name="oe" unicode="&#x153;" horiz-adv-x="325" d="M243 -5 C266 -5 285 1 305 11 L290 45 C275 37 259 34 245 34 C199 34 197 66 197 256 L310 256 L310 275 C310 449 310 503 289 530 C279 543 261 551 234 551 C209 551 191 542 181 529 C179 526 177 524 176 521 C174 523 172 526 170 528 C155 544 135 551 108 551 C81 551 60 545 45 529 C18 498 18 445 18 275 C18 104 18 48 45 18 C60 2 82 -5 108 -5 C135 -5 155 2 170 18 C173 21 176 24 178 28 C180 24 183 20 186 17 C201 1 220 -5 243 -5 L243 -5 Z M108 33 C58 33 58 60 58 275 C58 480 58 512 108 512 C158 512 158 481 158 275 C158 60 158 33 108 33 L108 33 Z M234 513 C271 513 271 489 271 293 L197 293 C197 481 198 513 234 513 L234 513 Z " />
<glyph glyph-name="Scaron" unicode="&#x160;" horiz-adv-x="192" d="M77 785 L116 785 L168 898 L133 898 L96 818 L59 898 L24 898 L77 785 Z M84 -6 C172 -6 187 53 165 150 L68 605 C55 666 63 705 111 705 C126 705 142 703 151 700 L162 739 C150 742 129 745 109 745 C37 745 7 693 29 595 L128 136 C147 49 122 34 83 34 C69 34 45 37 29 41 L21 2 C37 -2 64 -6 84 -6 L84 -6 Z " />
<glyph glyph-name="scaron" unicode="&#x161;" horiz-adv-x="162" d="M62 605 L101 605 L153 718 L118 718 L81 638 L44 718 L9 718 L62 605 Z M67 -5 C145 -5 158 52 137 133 L62 437 C51 480 54 513 94 513 C107 513 122 511 131 509 L140 546 C128 549 109 551 92 551 C23 551 7 499 26 424 L101 120 C117 54 101 33 63 33 C45 33 29 36 18 38 L9 2 C25 -3 45 -5 67 -5 L67 -5 Z " />
<glyph glyph-name="Ydieresis" unicode="&#x178;" horiz-adv-x="204" d="M81 0 L122 0 L122 257 L202 741 L163 741 L102 343 L42 741 L2 741 L81 263 L81 0 Z M43 785 L80 785 L80 856 L43 856 L43 785 Z M124 785 L160 785 L160 856 L124 856 L124 785 Z " />
<glyph glyph-name="Zcaron" unicode="&#x17d;" horiz-adv-x="202" d="M82 785 L121 785 L173 898 L138 898 L101 818 L64 898 L29 898 L82 785 Z M18 0 L185 0 L185 38 L59 38 L180 705 L180 741 L24 741 L24 702 L139 702 L18 35 L18 0 Z " />
<glyph glyph-name="zcaron" unicode="&#x17e;" horiz-adv-x="165" d="M64 605 L103 605 L155 718 L120 718 L83 638 L46 718 L11 718 L64 605 Z M13 0 L152 0 L152 36 L53 36 L152 515 L152 547 L18 547 L18 509 L111 509 L13 32 L13 0 Z " />
<glyph glyph-name="florin" unicode="&#x192;" horiz-adv-x="206" d="M34 408 L77 408 L47 -145 L87 -145 L116 408 L178 408 L178 445 L118 445 L129 644 C131 687 136 702 172 702 L178 702 L178 741 L170 741 C108 741 94 713 90 647 L79 445 L34 445 L34 408 Z " />
<glyph glyph-name="circumflex" unicode="&#x2c6;" horiz-adv-x="203" d="M29 605 L64 605 L101 685 L138 605 L173 605 L121 717 L82 717 L29 605 Z " />
<glyph glyph-name="caron" unicode="&#x2c7;" horiz-adv-x="203" d="M82 605 L121 605 L173 718 L138 718 L101 638 L64 718 L29 718 L82 605 Z " />
<glyph glyph-name="breve" unicode="&#x2d8;" horiz-adv-x="203" d="M101 603 C152 603 159 631 159 688 L126 688 C126 652 124 635 101 635 C79 635 77 652 77 688 L44 688 C44 631 51 603 101 603 L101 603 Z " />
<glyph glyph-name="dotaccent" unicode="&#x2d9;" horiz-adv-x="203" d="M82 605 L122 605 L122 694 L82 694 L82 605 Z " />
<glyph glyph-name="ring" unicode="&#x2da;" horiz-adv-x="203" d="M101 603 C144 603 148 632 148 676 C148 721 144 750 101 750 C59 750 55 721 55 676 C55 632 59 603 101 603 L101 603 Z M101 628 C85 628 82 637 82 675 C82 714 85 724 101 724 C117 724 120 714 120 675 C120 637 117 628 101 628 L101 628 Z " />
<glyph glyph-name="ogonek" unicode="&#x2db;" horiz-adv-x="206" d="M139 -166 L139 -132 L134 -132 C96 -132 87 -123 87 -89 C87 -61 97 -36 133 5 L97 5 C71 -24 52 -58 52 -92 C52 -142 70 -166 130 -166 L139 -166 Z " />
<glyph glyph-name="tilde" unicode="&#x2dc;" horiz-adv-x="203" d="M28 605 L61 605 C61 626 65 632 72 632 C85 632 113 604 137 604 C162 604 175 614 174 665 L141 665 C141 643 139 637 131 637 C117 637 90 666 66 666 C44 666 28 655 28 605 L28 605 Z " />
<glyph glyph-name="hungarumlaut" unicode="&#x2dd;" horiz-adv-x="203" d="M36 605 L70 605 L98 718 L55 718 L36 605 Z M128 605 L162 605 L190 718 L147 718 L128 605 Z " />
<glyph glyph-name="&amp;#x394;" unicode="&#x394;" horiz-adv-x="235" d="M10 509 L47 509 L47 0 L86 0 L86 509 L131 509 L131 547 L86 547 L86 660 C86 702 94 717 128 717 L131 717 L131 756 C129 757 126 757 124 757 C64 757 47 729 47 662 L47 547 L10 547 L10 509 Z M146 -145 C196 -145 206 -121 206 -82 L206 547 L166 547 L166 -79 C166 -100 165 -106 146 -107 L146 -145 Z M166 627 L206 627 L206 716 L166 716 L166 627 Z " />
<glyph glyph-name="&amp;#x2206;" unicode="&#x2206;" horiz-adv-x="235" d="M10 509 L47 509 L47 0 L86 0 L86 509 L131 509 L131 547 L86 547 L86 660 C86 702 94 717 128 717 L131 717 L131 756 C129 757 126 757 124 757 C64 757 47 729 47 662 L47 547 L10 547 L10 509 Z M146 -145 C196 -145 206 -121 206 -82 L206 547 L166 547 L166 -79 C166 -100 165 -106 146 -107 L146 -145 Z M166 627 L206 627 L206 716 L166 716 L166 627 Z " />
<glyph glyph-name="&amp;#x3a9;" unicode="&#x3a9;" horiz-adv-x="832" d="M126 120 C126 120 129 123 134 127 C79 193 46 278 46 371 C46 464 79 549 133 615 C129 619 126 621 126 621 C70 554 36 466 36 371 C36 275 70 187 126 120 L126 120 Z M228 211 C230 213 233 215 235 218 C201 259 181 313 181 371 C181 429 202 483 235 524 C232 526 230 529 227 531 C192 487 171 432 171 371 C171 310 193 254 228 211 L228 211 Z M264 243 C267 245 269 248 272 250 C245 283 229 325 229 371 C229 417 245 459 272 492 C269 494 267 497 264 499 C236 464 219 419 219 371 C219 322 236 278 264 243 L264 243 Z M316 289 C319 291 321 294 324 296 C308 317 298 343 298 371 C298 399 308 425 323 445 C321 448 318 450 316 452 C298 430 288 402 288 371 C288 340 298 312 316 289 L316 289 Z M349 320 C352 323 354 325 357 327 C348 340 343 355 343 371 C343 387 348 402 357 415 C354 417 352 420 349 422 C339 408 333 390 333 371 C333 352 339 334 349 320 L349 320 Z M378 346 C382 349 384 351 384 351 C381 357 379 364 379 371 C379 378 381 385 384 391 C384 391 382 393 378 396 C374 389 371 380 371 371 C371 362 374 353 378 346 L378 346 Z M416 60 C493 60 563 89 616 136 C614 139 611 141 609 144 C558 98 490 70 416 70 C342 70 274 98 222 144 C222 145 215 137 215 137 C268 89 338 60 416 60 L416 60 Z M416 324 C426 324 435 327 442 333 C439 337 437 339 437 339 C431 334 424 332 416 332 C408 332 401 335 395 339 C395 339 391 334 389 333 C397 327 406 324 416 324 L416 324 Z M482 319 C493 334 499 352 499 371 C499 390 493 408 482 422 C483 422 475 415 475 415 C484 403 489 388 489 371 C489 355 484 339 475 326 C478 324 480 322 482 319 L482 319 Z M292 269 C295 271 298 274 300 276 C280 302 267 335 267 371 C267 407 280 440 300 466 L293 473 C270 445 257 410 257 371 C257 333 270 297 292 269 L292 269 Z M416 -17 C512 -17 600 19 667 80 C667 80 660 88 660 87 C595 29 510 -7 416 -7 C322 -7 236 29 171 88 L164 80 C231 20 320 -17 416 -17 L416 -17 Z M416 121 C478 121 534 144 576 182 C574 185 571 187 569 190 C529 153 475 131 416 131 C357 131 303 153 262 190 L255 182 C298 144 354 121 416 121 L416 121 Z M416 170 C465 170 510 188 544 218 C542 221 539 223 537 226 C505 197 462 180 416 180 C369 180 327 197 294 226 L287 219 C322 189 367 170 416 170 L416 170 Z M416 209 C455 209 491 224 518 247 C516 250 514 253 512 255 C486 233 452 219 416 219 C380 219 346 233 320 255 L313 247 C341 224 377 209 416 209 L416 209 Z M416 265 C441 265 463 274 481 289 C479 292 476 294 474 297 C458 283 438 275 416 275 C394 275 373 283 357 297 L350 289 C368 274 391 265 416 265 L416 265 Z M358 445 C374 459 394 467 416 467 C438 467 458 459 474 445 L482 453 C464 468 441 477 416 477 C391 477 368 468 350 453 C351 452 354 448 358 445 L358 445 Z M570 552 C572 554 575 557 577 560 C534 598 478 621 416 621 C355 621 299 598 256 560 L263 553 C304 589 357 611 416 611 C475 611 529 589 570 552 L570 552 Z M454 346 C458 353 461 362 461 371 C461 380 458 389 454 396 L448 391 C451 385 453 378 453 371 C453 364 451 357 448 351 C448 351 450 349 454 346 L454 346 Z M468 333 C476 344 480 357 480 371 C480 385 476 398 468 409 L460 402 C466 393 470 382 470 371 C470 360 466 349 460 340 C463 338 465 336 468 333 L468 333 Z M498 306 C511 325 519 347 519 371 C519 395 511 418 497 436 L490 429 C502 413 509 393 509 371 C509 349 502 329 490 313 C492 311 495 308 498 306 L498 306 Z M540 269 C562 297 575 332 575 371 C575 410 562 445 539 473 L531 466 C552 440 565 407 565 371 C565 335 552 302 532 276 C535 274 537 271 540 269 L540 269 Z M568 243 C596 278 613 322 613 371 C613 420 596 464 568 499 L560 492 C587 459 603 417 603 371 C603 325 587 283 560 250 C563 248 566 245 568 243 L568 243 Z M604 211 C640 254 661 310 661 371 C661 432 640 488 604 531 L596 524 C631 483 651 429 651 371 C651 313 631 260 596 218 C601 213 604 211 604 211 L604 211 Z M649 171 C694 225 721 295 721 371 C721 447 694 517 649 571 L641 564 C685 512 711 445 711 371 C711 297 685 230 642 177 C644 175 647 173 649 171 L649 171 Z M706 120 C762 188 796 276 796 371 C796 467 762 555 706 622 L698 615 C753 549 786 464 786 371 C786 278 753 193 698 127 C703 123 706 120 706 120 L706 120 Z M183 170 L190 177 C147 229 121 297 121 371 C121 444 147 512 190 564 C187 567 184 569 182 571 C138 517 111 447 111 371 C111 294 138 225 183 170 L183 170 Z M334 306 L342 314 C330 330 323 350 323 371 C323 393 330 413 342 429 C340 431 337 434 334 436 C321 418 313 395 313 371 C313 346 321 324 334 306 L334 306 Z M364 333 L371 340 C366 349 362 360 362 371 C362 382 366 393 371 402 C369 404 366 406 364 409 C356 398 352 385 352 371 C352 357 356 344 364 333 L364 333 Z M395 403 C401 408 408 410 416 410 C424 410 431 407 437 403 C437 403 439 406 442 409 C435 415 426 418 416 418 C406 418 397 415 390 409 L395 403 Z M384 416 C393 423 404 428 416 428 C428 428 439 424 448 416 C450 419 452 421 454 423 C443 432 430 437 416 437 C401 437 388 432 377 423 L384 416 Z M371 430 C383 441 399 447 416 447 C433 447 449 441 461 430 C461 430 464 434 468 438 C454 450 436 457 416 457 C397 457 378 450 364 438 L371 430 Z M295 516 C327 545 370 562 416 562 C462 562 505 545 538 516 C538 516 545 523 544 523 C510 554 465 572 416 572 C367 572 322 554 288 524 L295 516 Z M416 240 C448 240 476 252 498 271 L491 278 C471 261 445 250 416 250 C388 250 361 261 340 278 L333 270 C355 251 384 240 416 240 L416 240 Z M416 285 C436 285 454 292 468 304 L461 312 C448 301 433 295 416 295 C399 295 383 302 370 312 L363 304 C378 292 396 285 416 285 L416 285 Z M416 305 C430 305 444 310 455 319 L448 326 C439 319 428 314 416 314 C404 314 393 319 383 326 L376 319 C388 310 401 305 416 305 L416 305 Z M341 464 C362 482 388 492 416 492 C445 492 471 481 491 464 L498 472 C476 491 447 502 416 502 C385 502 356 490 334 471 L341 464 Z M320 487 C346 509 380 523 416 523 C453 523 486 510 512 487 L518 494 C491 518 455 533 416 533 C377 533 341 519 313 495 L320 487 Z M610 597 L617 605 C563 653 493 682 416 682 C339 682 269 653 215 605 L222 598 C274 644 342 672 416 672 C491 672 559 644 610 597 L610 597 Z M172 654 C237 713 322 749 416 749 C510 749 596 713 661 654 L668 662 C601 722 512 759 416 759 C320 759 232 723 165 662 L172 654 Z M516 290 C534 312 544 340 544 371 C544 402 534 430 516 453 L508 446 C524 425 534 399 534 371 C534 343 524 317 509 297 L516 290 Z " />
<glyph glyph-name="&amp;#x2126;" unicode="&#x2126;" horiz-adv-x="832" d="M126 120 C126 120 129 123 134 127 C79 193 46 278 46 371 C46 464 79 549 133 615 C129 619 126 621 126 621 C70 554 36 466 36 371 C36 275 70 187 126 120 L126 120 Z M228 211 C230 213 233 215 235 218 C201 259 181 313 181 371 C181 429 202 483 235 524 C232 526 230 529 227 531 C192 487 171 432 171 371 C171 310 193 254 228 211 L228 211 Z M264 243 C267 245 269 248 272 250 C245 283 229 325 229 371 C229 417 245 459 272 492 C269 494 267 497 264 499 C236 464 219 419 219 371 C219 322 236 278 264 243 L264 243 Z M316 289 C319 291 321 294 324 296 C308 317 298 343 298 371 C298 399 308 425 323 445 C321 448 318 450 316 452 C298 430 288 402 288 371 C288 340 298 312 316 289 L316 289 Z M349 320 C352 323 354 325 357 327 C348 340 343 355 343 371 C343 387 348 402 357 415 C354 417 352 420 349 422 C339 408 333 390 333 371 C333 352 339 334 349 320 L349 320 Z M378 346 C382 349 384 351 384 351 C381 357 379 364 379 371 C379 378 381 385 384 391 C384 391 382 393 378 396 C374 389 371 380 371 371 C371 362 374 353 378 346 L378 346 Z M416 60 C493 60 563 89 616 136 C614 139 611 141 609 144 C558 98 490 70 416 70 C342 70 274 98 222 144 C222 145 215 137 215 137 C268 89 338 60 416 60 L416 60 Z M416 324 C426 324 435 327 442 333 C439 337 437 339 437 339 C431 334 424 332 416 332 C408 332 401 335 395 339 C395 339 391 334 389 333 C397 327 406 324 416 324 L416 324 Z M482 319 C493 334 499 352 499 371 C499 390 493 408 482 422 C483 422 475 415 475 415 C484 403 489 388 489 371 C489 355 484 339 475 326 C478 324 480 322 482 319 L482 319 Z M292 269 C295 271 298 274 300 276 C280 302 267 335 267 371 C267 407 280 440 300 466 L293 473 C270 445 257 410 257 371 C257 333 270 297 292 269 L292 269 Z M416 -17 C512 -17 600 19 667 80 C667 80 660 88 660 87 C595 29 510 -7 416 -7 C322 -7 236 29 171 88 L164 80 C231 20 320 -17 416 -17 L416 -17 Z M416 121 C478 121 534 144 576 182 C574 185 571 187 569 190 C529 153 475 131 416 131 C357 131 303 153 262 190 L255 182 C298 144 354 121 416 121 L416 121 Z M416 170 C465 170 510 188 544 218 C542 221 539 223 537 226 C505 197 462 180 416 180 C369 180 327 197 294 226 L287 219 C322 189 367 170 416 170 L416 170 Z M416 209 C455 209 491 224 518 247 C516 250 514 253 512 255 C486 233 452 219 416 219 C380 219 346 233 320 255 L313 247 C341 224 377 209 416 209 L416 209 Z M416 265 C441 265 463 274 481 289 C479 292 476 294 474 297 C458 283 438 275 416 275 C394 275 373 283 357 297 L350 289 C368 274 391 265 416 265 L416 265 Z M358 445 C374 459 394 467 416 467 C438 467 458 459 474 445 L482 453 C464 468 441 477 416 477 C391 477 368 468 350 453 C351 452 354 448 358 445 L358 445 Z M570 552 C572 554 575 557 577 560 C534 598 478 621 416 621 C355 621 299 598 256 560 L263 553 C304 589 357 611 416 611 C475 611 529 589 570 552 L570 552 Z M454 346 C458 353 461 362 461 371 C461 380 458 389 454 396 L448 391 C451 385 453 378 453 371 C453 364 451 357 448 351 C448 351 450 349 454 346 L454 346 Z M468 333 C476 344 480 357 480 371 C480 385 476 398 468 409 L460 402 C466 393 470 382 470 371 C470 360 466 349 460 340 C463 338 465 336 468 333 L468 333 Z M498 306 C511 325 519 347 519 371 C519 395 511 418 497 436 L490 429 C502 413 509 393 509 371 C509 349 502 329 490 313 C492 311 495 308 498 306 L498 306 Z M540 269 C562 297 575 332 575 371 C575 410 562 445 539 473 L531 466 C552 440 565 407 565 371 C565 335 552 302 532 276 C535 274 537 271 540 269 L540 269 Z M568 243 C596 278 613 322 613 371 C613 420 596 464 568 499 L560 492 C587 459 603 417 603 371 C603 325 587 283 560 250 C563 248 566 245 568 243 L568 243 Z M604 211 C640 254 661 310 661 371 C661 432 640 488 604 531 L596 524 C631 483 651 429 651 371 C651 313 631 260 596 218 C601 213 604 211 604 211 L604 211 Z M649 171 C694 225 721 295 721 371 C721 447 694 517 649 571 L641 564 C685 512 711 445 711 371 C711 297 685 230 642 177 C644 175 647 173 649 171 L649 171 Z M706 120 C762 188 796 276 796 371 C796 467 762 555 706 622 L698 615 C753 549 786 464 786 371 C786 278 753 193 698 127 C703 123 706 120 706 120 L706 120 Z M183 170 L190 177 C147 229 121 297 121 371 C121 444 147 512 190 564 C187 567 184 569 182 571 C138 517 111 447 111 371 C111 294 138 225 183 170 L183 170 Z M334 306 L342 314 C330 330 323 350 323 371 C323 393 330 413 342 429 C340 431 337 434 334 436 C321 418 313 395 313 371 C313 346 321 324 334 306 L334 306 Z M364 333 L371 340 C366 349 362 360 362 371 C362 382 366 393 371 402 C369 404 366 406 364 409 C356 398 352 385 352 371 C352 357 356 344 364 333 L364 333 Z M395 403 C401 408 408 410 416 410 C424 410 431 407 437 403 C437 403 439 406 442 409 C435 415 426 418 416 418 C406 418 397 415 390 409 L395 403 Z M384 416 C393 423 404 428 416 428 C428 428 439 424 448 416 C450 419 452 421 454 423 C443 432 430 437 416 437 C401 437 388 432 377 423 L384 416 Z M371 430 C383 441 399 447 416 447 C433 447 449 441 461 430 C461 430 464 434 468 438 C454 450 436 457 416 457 C397 457 378 450 364 438 L371 430 Z M295 516 C327 545 370 562 416 562 C462 562 505 545 538 516 C538 516 545 523 544 523 C510 554 465 572 416 572 C367 572 322 554 288 524 L295 516 Z M416 240 C448 240 476 252 498 271 L491 278 C471 261 445 250 416 250 C388 250 361 261 340 278 L333 270 C355 251 384 240 416 240 L416 240 Z M416 285 C436 285 454 292 468 304 L461 312 C448 301 433 295 416 295 C399 295 383 302 370 312 L363 304 C378 292 396 285 416 285 L416 285 Z M416 305 C430 305 444 310 455 319 L448 326 C439 319 428 314 416 314 C404 314 393 319 383 326 L376 319 C388 310 401 305 416 305 L416 305 Z M341 464 C362 482 388 492 416 492 C445 492 471 481 491 464 L498 472 C476 491 447 502 416 502 C385 502 356 490 334 471 L341 464 Z M320 487 C346 509 380 523 416 523 C453 523 486 510 512 487 L518 494 C491 518 455 533 416 533 C377 533 341 519 313 495 L320 487 Z M610 597 L617 605 C563 653 493 682 416 682 C339 682 269 653 215 605 L222 598 C274 644 342 672 416 672 C491 672 559 644 610 597 L610 597 Z M172 654 C237 713 322 749 416 749 C510 749 596 713 661 654 L668 662 C601 722 512 759 416 759 C320 759 232 723 165 662 L172 654 Z M516 290 C534 312 544 340 544 371 C544 402 534 430 516 453 L508 446 C524 425 534 399 534 371 C534 343 524 317 509 297 L516 290 Z " />
<glyph glyph-name="pi" unicode="&#x3c0;" horiz-adv-x="272" d="M141 -4 C172 -4 195 3 213 20 C253 58 263 153 263 371 C263 578 254 673 218 715 C201 736 175 745 141 745 C106 745 81 737 63 716 C27 674 18 579 18 371 C18 151 28 56 70 18 C88 3 110 -4 141 -4 L141 -4 Z M141 22 C58 22 45 84 45 371 C45 659 59 719 141 719 C223 719 236 659 236 371 C236 84 223 22 141 22 L141 22 Z M86 123 L118 123 L118 329 L141 329 C201 329 204 374 204 470 C204 566 201 610 141 610 L86 610 L86 123 Z M118 359 L118 580 L140 580 C172 580 173 548 173 469 C173 389 172 359 140 359 L118 359 Z " />
<glyph glyph-name="endash" unicode="&#x2013;" horiz-adv-x="236" d="M19 283 L218 283 L218 321 L19 321 L19 283 Z " />
<glyph glyph-name="emdash" unicode="&#x2014;" horiz-adv-x="312" d="M19 283 L294 283 L294 321 L19 321 L19 283 Z " />
<glyph glyph-name="quoteleft" unicode="&#x2018;" horiz-adv-x="98" d="M26 590 L72 590 L72 677 L54 677 C54 708 56 709 73 718 L61 743 C31 730 26 717 26 668 L26 590 Z " />
<glyph glyph-name="quoteright" unicode="&#x2019;" horiz-adv-x="98" d="M37 589 C67 602 72 614 72 663 L72 741 L26 741 L26 654 L45 654 C45 623 42 623 26 613 L37 589 Z " />
<glyph glyph-name="quotesinglbase" unicode="&#x201a;" horiz-adv-x="98" d="M37 -66 C67 -53 72 -41 72 9 L72 88 L26 88 L26 0 L45 0 C45 -31 42 -32 26 -41 L37 -66 Z " />
<glyph glyph-name="quotedblleft" unicode="&#x201c;" horiz-adv-x="171" d="M26 590 L71 590 L71 677 L53 677 C53 708 56 709 72 718 L61 742 C31 729 26 717 26 668 L26 590 Z M98 590 L144 590 L144 677 L125 677 C125 708 128 709 144 718 L133 742 C103 729 98 717 98 668 L98 590 Z " />
<glyph glyph-name="quotedblright" unicode="&#x201d;" horiz-adv-x="169" d="M37 589 C67 603 71 614 71 663 L71 741 L26 741 L26 654 L45 654 C45 623 42 623 26 613 L37 589 Z M109 589 C139 603 144 614 144 663 L144 741 L98 741 L98 654 L117 654 C117 623 114 623 98 613 L109 589 Z " />
<glyph glyph-name="quotedblbase" unicode="&#x201e;" horiz-adv-x="169" d="M37 -65 C67 -52 71 -41 71 9 L71 88 L26 88 L26 0 L45 0 C45 -31 42 -32 26 -41 L37 -65 Z M109 -65 C139 -52 144 -41 144 9 L144 88 L98 88 L98 0 L117 0 C117 -31 114 -32 98 -41 L109 -65 Z " />
<glyph glyph-name="dagger" unicode="&#x2020;" horiz-adv-x="202" d="M22 505 L82 505 L82 -146 L121 -146 L121 505 L180 505 L180 543 L121 543 L121 756 L82 756 L82 543 L22 543 L22 505 Z " />
<glyph glyph-name="daggerdbl" unicode="&#x2021;" horiz-adv-x="201" d="M82 -146 L121 -146 L121 67 L180 67 L180 106 L121 106 L121 505 L180 505 L180 543 L121 543 L121 756 L82 756 L82 543 L22 543 L22 505 L82 505 L82 106 L22 106 L22 67 L82 67 L82 -146 Z " />
<glyph glyph-name="bullet" unicode="&#x2022;" horiz-adv-x="136" d="M37 239 L99 239 L99 370 L37 370 L37 239 Z " />
<glyph glyph-name="ellipsis" unicode="&#x2026;" horiz-adv-x="268" d="M26 0 L72 0 L72 78 L26 78 L26 0 Z M114 0 L160 0 L160 78 L114 78 L114 0 Z M197 0 L242 0 L242 78 L197 78 L197 0 Z " />
<glyph glyph-name="perthousand" unicode="&#x2030;" horiz-adv-x="519" d="M81 295 C101 295 116 300 126 313 C145 338 145 383 145 522 C145 659 145 702 127 727 C116 740 101 745 81 745 C61 745 47 740 35 727 C17 701 17 659 17 522 C17 382 17 337 36 313 C47 300 62 295 81 295 L81 295 Z M287 -4 C307 -4 322 1 332 15 C351 40 351 85 351 223 C351 360 351 404 333 428 C322 441 307 447 287 447 C267 447 253 441 241 428 C223 403 223 360 223 223 C223 84 223 39 242 14 C253 1 268 -4 287 -4 L287 -4 Z M438 -4 C458 -4 473 1 484 15 C502 40 502 85 502 223 C502 360 502 404 484 428 C474 441 459 447 438 447 C418 447 404 441 393 428 C374 403 374 360 374 223 C374 84 375 39 393 14 C404 1 419 -4 438 -4 L438 -4 Z M81 330 C55 330 54 359 54 521 C54 684 55 709 81 709 C107 709 108 684 108 521 C108 359 108 330 81 330 L81 330 Z M287 31 C261 31 261 61 261 223 C261 386 261 411 287 411 C313 411 314 386 314 223 C314 61 314 31 287 31 L287 31 Z M438 31 C412 31 412 61 412 223 C412 386 412 411 438 411 C464 411 465 386 465 223 C465 61 465 31 438 31 L438 31 Z M106 0 L144 0 L263 741 L224 741 L106 0 Z " />
<glyph glyph-name="guilsinglleft" unicode="&#x2039;" horiz-adv-x="161" d="M86 0 L124 0 L74 273 L124 547 L86 547 L36 273 L86 0 Z " />
<glyph glyph-name="guilsinglright" unicode="&#x203a;" horiz-adv-x="161" d="M38 0 L75 0 L126 273 L75 547 L38 547 L87 273 L38 0 Z " />
<glyph glyph-name="&amp;#x2044;" unicode="&#x2044;" horiz-adv-x="182" d="M0 0 L38 0 L182 741 L145 741 L0 0 Z " />
<glyph glyph-name="&amp;#x2215;" unicode="&#x2215;" horiz-adv-x="182" d="M0 0 L38 0 L182 741 L145 741 L0 0 Z " />
<glyph glyph-name="Euro" unicode="&#x20ac;" horiz-adv-x="219" d="M12 393 L53 393 L53 346 L12 346 L12 311 L53 311 C53 135 57 48 91 15 C104 3 124 -4 150 -4 C173 -4 184 -1 197 4 L188 39 C177 36 165 34 152 34 C100 34 93 88 93 311 L175 311 L175 346 L93 346 L93 393 L175 393 L175 428 L93 428 C93 647 99 706 152 706 C163 706 183 705 189 703 L197 741 C186 743 169 745 151 745 C124 745 104 738 91 723 C57 688 53 600 53 428 L12 428 L12 393 Z " />
<glyph glyph-name="trademark" unicode="&#x2122;" horiz-adv-x="342" d="M61 325 L94 325 L94 710 L134 710 L134 741 L21 741 L21 710 L61 710 L61 325 Z M145 325 L174 325 L174 661 L182 560 L210 325 L236 325 L262 559 L271 660 L271 325 L302 325 L302 741 L260 741 L229 480 L223 406 L217 481 L187 741 L145 741 L145 325 Z " />
<glyph glyph-name="partialdiff" unicode="&#x2202;" horiz-adv-x="832" d="M126 120 C126 120 129 123 134 127 C79 193 46 278 46 371 C46 464 79 549 133 615 C129 619 126 621 126 621 C70 554 36 466 36 371 C36 275 70 187 126 120 L126 120 Z M228 211 C230 213 233 215 235 218 C201 259 181 313 181 371 C181 429 202 483 235 524 C232 526 230 529 227 531 C192 487 171 432 171 371 C171 310 193 254 228 211 L228 211 Z M264 243 C267 245 269 248 272 250 C245 283 229 325 229 371 C229 417 245 459 272 492 C269 494 267 497 264 499 C236 464 219 419 219 371 C219 322 236 278 264 243 L264 243 Z M316 289 C319 291 321 294 324 296 C308 317 298 343 298 371 C298 399 308 425 323 445 C321 448 318 450 316 452 C298 430 288 402 288 371 C288 340 298 312 316 289 L316 289 Z M349 320 C352 323 354 325 357 327 C348 340 343 355 343 371 C343 387 348 402 357 415 C354 417 352 420 349 422 C339 408 333 390 333 371 C333 352 339 334 349 320 L349 320 Z M378 346 C382 349 384 351 384 351 C381 357 379 364 379 371 C379 378 381 385 384 391 C384 391 382 393 378 396 C374 389 371 380 371 371 C371 362 374 353 378 346 L378 346 Z M416 60 C493 60 563 89 616 136 C614 139 611 141 609 144 C558 98 490 70 416 70 C342 70 274 98 222 144 C222 145 215 137 215 137 C268 89 338 60 416 60 L416 60 Z M416 324 C426 324 435 327 442 333 C439 337 437 339 437 339 C431 334 424 332 416 332 C408 332 401 335 395 339 C395 339 391 334 389 333 C397 327 406 324 416 324 L416 324 Z M482 319 C493 334 499 352 499 371 C499 390 493 408 482 422 C483 422 475 415 475 415 C484 403 489 388 489 371 C489 355 484 339 475 326 C478 324 480 322 482 319 L482 319 Z M292 269 C295 271 298 274 300 276 C280 302 267 335 267 371 C267 407 280 440 300 466 L293 473 C270 445 257 410 257 371 C257 333 270 297 292 269 L292 269 Z M416 -17 C512 -17 600 19 667 80 C667 80 660 88 660 87 C595 29 510 -7 416 -7 C322 -7 236 29 171 88 L164 80 C231 20 320 -17 416 -17 L416 -17 Z M416 121 C478 121 534 144 576 182 C574 185 571 187 569 190 C529 153 475 131 416 131 C357 131 303 153 262 190 L255 182 C298 144 354 121 416 121 L416 121 Z M416 170 C465 170 510 188 544 218 C542 221 539 223 537 226 C505 197 462 180 416 180 C369 180 327 197 294 226 L287 219 C322 189 367 170 416 170 L416 170 Z M416 209 C455 209 491 224 518 247 C516 250 514 253 512 255 C486 233 452 219 416 219 C380 219 346 233 320 255 L313 247 C341 224 377 209 416 209 L416 209 Z M416 265 C441 265 463 274 481 289 C479 292 476 294 474 297 C458 283 438 275 416 275 C394 275 373 283 357 297 L350 289 C368 274 391 265 416 265 L416 265 Z M358 445 C374 459 394 467 416 467 C438 467 458 459 474 445 L482 453 C464 468 441 477 416 477 C391 477 368 468 350 453 C351 452 354 448 358 445 L358 445 Z M570 552 C572 554 575 557 577 560 C534 598 478 621 416 621 C355 621 299 598 256 560 L263 553 C304 589 357 611 416 611 C475 611 529 589 570 552 L570 552 Z M454 346 C458 353 461 362 461 371 C461 380 458 389 454 396 L448 391 C451 385 453 378 453 371 C453 364 451 357 448 351 C448 351 450 349 454 346 L454 346 Z M468 333 C476 344 480 357 480 371 C480 385 476 398 468 409 L460 402 C466 393 470 382 470 371 C470 360 466 349 460 340 C463 338 465 336 468 333 L468 333 Z M498 306 C511 325 519 347 519 371 C519 395 511 418 497 436 L490 429 C502 413 509 393 509 371 C509 349 502 329 490 313 C492 311 495 308 498 306 L498 306 Z M540 269 C562 297 575 332 575 371 C575 410 562 445 539 473 L531 466 C552 440 565 407 565 371 C565 335 552 302 532 276 C535 274 537 271 540 269 L540 269 Z M568 243 C596 278 613 322 613 371 C613 420 596 464 568 499 L560 492 C587 459 603 417 603 371 C603 325 587 283 560 250 C563 248 566 245 568 243 L568 243 Z M604 211 C640 254 661 310 661 371 C661 432 640 488 604 531 L596 524 C631 483 651 429 651 371 C651 313 631 260 596 218 C601 213 604 211 604 211 L604 211 Z M649 171 C694 225 721 295 721 371 C721 447 694 517 649 571 L641 564 C685 512 711 445 711 371 C711 297 685 230 642 177 C644 175 647 173 649 171 L649 171 Z M706 120 C762 188 796 276 796 371 C796 467 762 555 706 622 L698 615 C753 549 786 464 786 371 C786 278 753 193 698 127 C703 123 706 120 706 120 L706 120 Z M183 170 L190 177 C147 229 121 297 121 371 C121 444 147 512 190 564 C187 567 184 569 182 571 C138 517 111 447 111 371 C111 294 138 225 183 170 L183 170 Z M334 306 L342 314 C330 330 323 350 323 371 C323 393 330 413 342 429 C340 431 337 434 334 436 C321 418 313 395 313 371 C313 346 321 324 334 306 L334 306 Z M364 333 L371 340 C366 349 362 360 362 371 C362 382 366 393 371 402 C369 404 366 406 364 409 C356 398 352 385 352 371 C352 357 356 344 364 333 L364 333 Z M395 403 C401 408 408 410 416 410 C424 410 431 407 437 403 C437 403 439 406 442 409 C435 415 426 418 416 418 C406 418 397 415 390 409 L395 403 Z M384 416 C393 423 404 428 416 428 C428 428 439 424 448 416 C450 419 452 421 454 423 C443 432 430 437 416 437 C401 437 388 432 377 423 L384 416 Z M371 430 C383 441 399 447 416 447 C433 447 449 441 461 430 C461 430 464 434 468 438 C454 450 436 457 416 457 C397 457 378 450 364 438 L371 430 Z M295 516 C327 545 370 562 416 562 C462 562 505 545 538 516 C538 516 545 523 544 523 C510 554 465 572 416 572 C367 572 322 554 288 524 L295 516 Z M416 240 C448 240 476 252 498 271 L491 278 C471 261 445 250 416 250 C388 250 361 261 340 278 L333 270 C355 251 384 240 416 240 L416 240 Z M416 285 C436 285 454 292 468 304 L461 312 C448 301 433 295 416 295 C399 295 383 302 370 312 L363 304 C378 292 396 285 416 285 L416 285 Z M416 305 C430 305 444 310 455 319 L448 326 C439 319 428 314 416 314 C404 314 393 319 383 326 L376 319 C388 310 401 305 416 305 L416 305 Z M341 464 C362 482 388 492 416 492 C445 492 471 481 491 464 L498 472 C476 491 447 502 416 502 C385 502 356 490 334 471 L341 464 Z M320 487 C346 509 380 523 416 523 C453 523 486 510 512 487 L518 494 C491 518 455 533 416 533 C377 533 341 519 313 495 L320 487 Z M610 597 L617 605 C563 653 493 682 416 682 C339 682 269 653 215 605 L222 598 C274 644 342 672 416 672 C491 672 559 644 610 597 L610 597 Z M172 654 C237 713 322 749 416 749 C510 749 596 713 661 654 L668 662 C601 722 512 759 416 759 C320 759 232 723 165 662 L172 654 Z M516 290 C534 312 544 340 544 371 C544 402 534 430 516 453 L508 446 C524 425 534 399 534 371 C534 343 524 317 509 297 L516 290 Z " />
<glyph glyph-name="product" unicode="&#x220f;" horiz-adv-x="832" d="M126 120 C126 120 129 123 134 127 C79 193 46 278 46 371 C46 464 79 549 133 615 C129 619 126 621 126 621 C70 554 36 466 36 371 C36 275 70 187 126 120 L126 120 Z M228 211 C230 213 233 215 235 218 C201 259 181 313 181 371 C181 429 202 483 235 524 C232 526 230 529 227 531 C192 487 171 432 171 371 C171 310 193 254 228 211 L228 211 Z M264 243 C267 245 269 248 272 250 C245 283 229 325 229 371 C229 417 245 459 272 492 C269 494 267 497 264 499 C236 464 219 419 219 371 C219 322 236 278 264 243 L264 243 Z M316 289 C319 291 321 294 324 296 C308 317 298 343 298 371 C298 399 308 425 323 445 C321 448 318 450 316 452 C298 430 288 402 288 371 C288 340 298 312 316 289 L316 289 Z M349 320 C352 323 354 325 357 327 C348 340 343 355 343 371 C343 387 348 402 357 415 C354 417 352 420 349 422 C339 408 333 390 333 371 C333 352 339 334 349 320 L349 320 Z M378 346 C382 349 384 351 384 351 C381 357 379 364 379 371 C379 378 381 385 384 391 C384 391 382 393 378 396 C374 389 371 380 371 371 C371 362 374 353 378 346 L378 346 Z M416 60 C493 60 563 89 616 136 C614 139 611 141 609 144 C558 98 490 70 416 70 C342 70 274 98 222 144 C222 145 215 137 215 137 C268 89 338 60 416 60 L416 60 Z M416 324 C426 324 435 327 442 333 C439 337 437 339 437 339 C431 334 424 332 416 332 C408 332 401 335 395 339 C395 339 391 334 389 333 C397 327 406 324 416 324 L416 324 Z M482 319 C493 334 499 352 499 371 C499 390 493 408 482 422 C483 422 475 415 475 415 C484 403 489 388 489 371 C489 355 484 339 475 326 C478 324 480 322 482 319 L482 319 Z M292 269 C295 271 298 274 300 276 C280 302 267 335 267 371 C267 407 280 440 300 466 L293 473 C270 445 257 410 257 371 C257 333 270 297 292 269 L292 269 Z M416 -17 C512 -17 600 19 667 80 C667 80 660 88 660 87 C595 29 510 -7 416 -7 C322 -7 236 29 171 88 L164 80 C231 20 320 -17 416 -17 L416 -17 Z M416 121 C478 121 534 144 576 182 C574 185 571 187 569 190 C529 153 475 131 416 131 C357 131 303 153 262 190 L255 182 C298 144 354 121 416 121 L416 121 Z M416 170 C465 170 510 188 544 218 C542 221 539 223 537 226 C505 197 462 180 416 180 C369 180 327 197 294 226 L287 219 C322 189 367 170 416 170 L416 170 Z M416 209 C455 209 491 224 518 247 C516 250 514 253 512 255 C486 233 452 219 416 219 C380 219 346 233 320 255 L313 247 C341 224 377 209 416 209 L416 209 Z M416 265 C441 265 463 274 481 289 C479 292 476 294 474 297 C458 283 438 275 416 275 C394 275 373 283 357 297 L350 289 C368 274 391 265 416 265 L416 265 Z M358 445 C374 459 394 467 416 467 C438 467 458 459 474 445 L482 453 C464 468 441 477 416 477 C391 477 368 468 350 453 C351 452 354 448 358 445 L358 445 Z M570 552 C572 554 575 557 577 560 C534 598 478 621 416 621 C355 621 299 598 256 560 L263 553 C304 589 357 611 416 611 C475 611 529 589 570 552 L570 552 Z M454 346 C458 353 461 362 461 371 C461 380 458 389 454 396 L448 391 C451 385 453 378 453 371 C453 364 451 357 448 351 C448 351 450 349 454 346 L454 346 Z M468 333 C476 344 480 357 480 371 C480 385 476 398 468 409 L460 402 C466 393 470 382 470 371 C470 360 466 349 460 340 C463 338 465 336 468 333 L468 333 Z M498 306 C511 325 519 347 519 371 C519 395 511 418 497 436 L490 429 C502 413 509 393 509 371 C509 349 502 329 490 313 C492 311 495 308 498 306 L498 306 Z M540 269 C562 297 575 332 575 371 C575 410 562 445 539 473 L531 466 C552 440 565 407 565 371 C565 335 552 302 532 276 C535 274 537 271 540 269 L540 269 Z M568 243 C596 278 613 322 613 371 C613 420 596 464 568 499 L560 492 C587 459 603 417 603 371 C603 325 587 283 560 250 C563 248 566 245 568 243 L568 243 Z M604 211 C640 254 661 310 661 371 C661 432 640 488 604 531 L596 524 C631 483 651 429 651 371 C651 313 631 260 596 218 C601 213 604 211 604 211 L604 211 Z M649 171 C694 225 721 295 721 371 C721 447 694 517 649 571 L641 564 C685 512 711 445 711 371 C711 297 685 230 642 177 C644 175 647 173 649 171 L649 171 Z M706 120 C762 188 796 276 796 371 C796 467 762 555 706 622 L698 615 C753 549 786 464 786 371 C786 278 753 193 698 127 C703 123 706 120 706 120 L706 120 Z M183 170 L190 177 C147 229 121 297 121 371 C121 444 147 512 190 564 C187 567 184 569 182 571 C138 517 111 447 111 371 C111 294 138 225 183 170 L183 170 Z M334 306 L342 314 C330 330 323 350 323 371 C323 393 330 413 342 429 C340 431 337 434 334 436 C321 418 313 395 313 371 C313 346 321 324 334 306 L334 306 Z M364 333 L371 340 C366 349 362 360 362 371 C362 382 366 393 371 402 C369 404 366 406 364 409 C356 398 352 385 352 371 C352 357 356 344 364 333 L364 333 Z M395 403 C401 408 408 410 416 410 C424 410 431 407 437 403 C437 403 439 406 442 409 C435 415 426 418 416 418 C406 418 397 415 390 409 L395 403 Z M384 416 C393 423 404 428 416 428 C428 428 439 424 448 416 C450 419 452 421 454 423 C443 432 430 437 416 437 C401 437 388 432 377 423 L384 416 Z M371 430 C383 441 399 447 416 447 C433 447 449 441 461 430 C461 430 464 434 468 438 C454 450 436 457 416 457 C397 457 378 450 364 438 L371 430 Z M295 516 C327 545 370 562 416 562 C462 562 505 545 538 516 C538 516 545 523 544 523 C510 554 465 572 416 572 C367 572 322 554 288 524 L295 516 Z M416 240 C448 240 476 252 498 271 L491 278 C471 261 445 250 416 250 C388 250 361 261 340 278 L333 270 C355 251 384 240 416 240 L416 240 Z M416 285 C436 285 454 292 468 304 L461 312 C448 301 433 295 416 295 C399 295 383 302 370 312 L363 304 C378 292 396 285 416 285 L416 285 Z M416 305 C430 305 444 310 455 319 L448 326 C439 319 428 314 416 314 C404 314 393 319 383 326 L376 319 C388 310 401 305 416 305 L416 305 Z M341 464 C362 482 388 492 416 492 C445 492 471 481 491 464 L498 472 C476 491 447 502 416 502 C385 502 356 490 334 471 L341 464 Z M320 487 C346 509 380 523 416 523 C453 523 486 510 512 487 L518 494 C491 518 455 533 416 533 C377 533 341 519 313 495 L320 487 Z M610 597 L617 605 C563 653 493 682 416 682 C339 682 269 653 215 605 L222 598 C274 644 342 672 416 672 C491 672 559 644 610 597 L610 597 Z M172 654 C237 713 322 749 416 749 C510 749 596 713 661 654 L668 662 C601 722 512 759 416 759 C320 759 232 723 165 662 L172 654 Z M516 290 C534 312 544 340 544 371 C544 402 534 430 516 453 L508 446 C524 425 534 399 534 371 C534 343 524 317 509 297 L516 290 Z " />
<glyph glyph-name="summation" unicode="&#x2211;" horiz-adv-x="832" d="M126 120 C126 120 129 123 134 127 C79 193 46 278 46 371 C46 464 79 549 133 615 C129 619 126 621 126 621 C70 554 36 466 36 371 C36 275 70 187 126 120 L126 120 Z M228 211 C230 213 233 215 235 218 C201 259 181 313 181 371 C181 429 202 483 235 524 C232 526 230 529 227 531 C192 487 171 432 171 371 C171 310 193 254 228 211 L228 211 Z M264 243 C267 245 269 248 272 250 C245 283 229 325 229 371 C229 417 245 459 272 492 C269 494 267 497 264 499 C236 464 219 419 219 371 C219 322 236 278 264 243 L264 243 Z M316 289 C319 291 321 294 324 296 C308 317 298 343 298 371 C298 399 308 425 323 445 C321 448 318 450 316 452 C298 430 288 402 288 371 C288 340 298 312 316 289 L316 289 Z M349 320 C352 323 354 325 357 327 C348 340 343 355 343 371 C343 387 348 402 357 415 C354 417 352 420 349 422 C339 408 333 390 333 371 C333 352 339 334 349 320 L349 320 Z M378 346 C382 349 384 351 384 351 C381 357 379 364 379 371 C379 378 381 385 384 391 C384 391 382 393 378 396 C374 389 371 380 371 371 C371 362 374 353 378 346 L378 346 Z M416 60 C493 60 563 89 616 136 C614 139 611 141 609 144 C558 98 490 70 416 70 C342 70 274 98 222 144 C222 145 215 137 215 137 C268 89 338 60 416 60 L416 60 Z M416 324 C426 324 435 327 442 333 C439 337 437 339 437 339 C431 334 424 332 416 332 C408 332 401 335 395 339 C395 339 391 334 389 333 C397 327 406 324 416 324 L416 324 Z M482 319 C493 334 499 352 499 371 C499 390 493 408 482 422 C483 422 475 415 475 415 C484 403 489 388 489 371 C489 355 484 339 475 326 C478 324 480 322 482 319 L482 319 Z M292 269 C295 271 298 274 300 276 C280 302 267 335 267 371 C267 407 280 440 300 466 L293 473 C270 445 257 410 257 371 C257 333 270 297 292 269 L292 269 Z M416 -17 C512 -17 600 19 667 80 C667 80 660 88 660 87 C595 29 510 -7 416 -7 C322 -7 236 29 171 88 L164 80 C231 20 320 -17 416 -17 L416 -17 Z M416 121 C478 121 534 144 576 182 C574 185 571 187 569 190 C529 153 475 131 416 131 C357 131 303 153 262 190 L255 182 C298 144 354 121 416 121 L416 121 Z M416 170 C465 170 510 188 544 218 C542 221 539 223 537 226 C505 197 462 180 416 180 C369 180 327 197 294 226 L287 219 C322 189 367 170 416 170 L416 170 Z M416 209 C455 209 491 224 518 247 C516 250 514 253 512 255 C486 233 452 219 416 219 C380 219 346 233 320 255 L313 247 C341 224 377 209 416 209 L416 209 Z M416 265 C441 265 463 274 481 289 C479 292 476 294 474 297 C458 283 438 275 416 275 C394 275 373 283 357 297 L350 289 C368 274 391 265 416 265 L416 265 Z M358 445 C374 459 394 467 416 467 C438 467 458 459 474 445 L482 453 C464 468 441 477 416 477 C391 477 368 468 350 453 C351 452 354 448 358 445 L358 445 Z M570 552 C572 554 575 557 577 560 C534 598 478 621 416 621 C355 621 299 598 256 560 L263 553 C304 589 357 611 416 611 C475 611 529 589 570 552 L570 552 Z M454 346 C458 353 461 362 461 371 C461 380 458 389 454 396 L448 391 C451 385 453 378 453 371 C453 364 451 357 448 351 C448 351 450 349 454 346 L454 346 Z M468 333 C476 344 480 357 480 371 C480 385 476 398 468 409 L460 402 C466 393 470 382 470 371 C470 360 466 349 460 340 C463 338 465 336 468 333 L468 333 Z M498 306 C511 325 519 347 519 371 C519 395 511 418 497 436 L490 429 C502 413 509 393 509 371 C509 349 502 329 490 313 C492 311 495 308 498 306 L498 306 Z M540 269 C562 297 575 332 575 371 C575 410 562 445 539 473 L531 466 C552 440 565 407 565 371 C565 335 552 302 532 276 C535 274 537 271 540 269 L540 269 Z M568 243 C596 278 613 322 613 371 C613 420 596 464 568 499 L560 492 C587 459 603 417 603 371 C603 325 587 283 560 250 C563 248 566 245 568 243 L568 243 Z M604 211 C640 254 661 310 661 371 C661 432 640 488 604 531 L596 524 C631 483 651 429 651 371 C651 313 631 260 596 218 C601 213 604 211 604 211 L604 211 Z M649 171 C694 225 721 295 721 371 C721 447 694 517 649 571 L641 564 C685 512 711 445 711 371 C711 297 685 230 642 177 C644 175 647 173 649 171 L649 171 Z M706 120 C762 188 796 276 796 371 C796 467 762 555 706 622 L698 615 C753 549 786 464 786 371 C786 278 753 193 698 127 C703 123 706 120 706 120 L706 120 Z M183 170 L190 177 C147 229 121 297 121 371 C121 444 147 512 190 564 C187 567 184 569 182 571 C138 517 111 447 111 371 C111 294 138 225 183 170 L183 170 Z M334 306 L342 314 C330 330 323 350 323 371 C323 393 330 413 342 429 C340 431 337 434 334 436 C321 418 313 395 313 371 C313 346 321 324 334 306 L334 306 Z M364 333 L371 340 C366 349 362 360 362 371 C362 382 366 393 371 402 C369 404 366 406 364 409 C356 398 352 385 352 371 C352 357 356 344 364 333 L364 333 Z M395 403 C401 408 408 410 416 410 C424 410 431 407 437 403 C437 403 439 406 442 409 C435 415 426 418 416 418 C406 418 397 415 390 409 L395 403 Z M384 416 C393 423 404 428 416 428 C428 428 439 424 448 416 C450 419 452 421 454 423 C443 432 430 437 416 437 C401 437 388 432 377 423 L384 416 Z M371 430 C383 441 399 447 416 447 C433 447 449 441 461 430 C461 430 464 434 468 438 C454 450 436 457 416 457 C397 457 378 450 364 438 L371 430 Z M295 516 C327 545 370 562 416 562 C462 562 505 545 538 516 C538 516 545 523 544 523 C510 554 465 572 416 572 C367 572 322 554 288 524 L295 516 Z M416 240 C448 240 476 252 498 271 L491 278 C471 261 445 250 416 250 C388 250 361 261 340 278 L333 270 C355 251 384 240 416 240 L416 240 Z M416 285 C436 285 454 292 468 304 L461 312 C448 301 433 295 416 295 C399 295 383 302 370 312 L363 304 C378 292 396 285 416 285 L416 285 Z M416 305 C430 305 444 310 455 319 L448 326 C439 319 428 314 416 314 C404 314 393 319 383 326 L376 319 C388 310 401 305 416 305 L416 305 Z M341 464 C362 482 388 492 416 492 C445 492 471 481 491 464 L498 472 C476 491 447 502 416 502 C385 502 356 490 334 471 L341 464 Z M320 487 C346 509 380 523 416 523 C453 523 486 510 512 487 L518 494 C491 518 455 533 416 533 C377 533 341 519 313 495 L320 487 Z M610 597 L617 605 C563 653 493 682 416 682 C339 682 269 653 215 605 L222 598 C274 644 342 672 416 672 C491 672 559 644 610 597 L610 597 Z M172 654 C237 713 322 749 416 749 C510 749 596 713 661 654 L668 662 C601 722 512 759 416 759 C320 759 232 723 165 662 L172 654 Z M516 290 C534 312 544 340 544 371 C544 402 534 430 516 453 L508 446 C524 425 534 399 534 371 C534 343 524 317 509 297 L516 290 Z " />
<glyph glyph-name="minus" unicode="&#x2212;" horiz-adv-x="231" d="M38 348 L193 348 L193 386 L38 386 L38 348 Z " />
<glyph glyph-name="radical" unicode="&#x221a;" horiz-adv-x="208" d="M71 -2 L112 -2 L200 741 L163 741 L92 92 L60 400 L21 400 L71 -2 Z " />
<glyph glyph-name="infinity" unicode="&#x221e;" horiz-adv-x="355" d="M166 0 L206 0 L206 509 L250 509 L250 547 L206 547 L206 660 C206 702 213 717 248 717 L250 717 L250 756 C248 757 246 757 244 757 C183 757 166 729 166 662 L166 547 L87 547 L87 660 C87 702 94 717 129 717 L131 717 L131 756 C129 757 127 757 125 757 C65 757 47 729 47 662 L47 547 L11 547 L11 509 L47 509 L47 0 L87 0 L87 509 L166 509 L166 0 Z M285 0 L325 0 L325 547 L285 547 L285 0 Z M285 627 L325 627 L325 716 L285 716 L285 627 Z " />
<glyph glyph-name="integral" unicode="&#x222b;" horiz-adv-x="832" d="M126 120 C126 120 129 123 134 127 C79 193 46 278 46 371 C46 464 79 549 133 615 C129 619 126 621 126 621 C70 554 36 466 36 371 C36 275 70 187 126 120 L126 120 Z M228 211 C230 213 233 215 235 218 C201 259 181 313 181 371 C181 429 202 483 235 524 C232 526 230 529 227 531 C192 487 171 432 171 371 C171 310 193 254 228 211 L228 211 Z M264 243 C267 245 269 248 272 250 C245 283 229 325 229 371 C229 417 245 459 272 492 C269 494 267 497 264 499 C236 464 219 419 219 371 C219 322 236 278 264 243 L264 243 Z M316 289 C319 291 321 294 324 296 C308 317 298 343 298 371 C298 399 308 425 323 445 C321 448 318 450 316 452 C298 430 288 402 288 371 C288 340 298 312 316 289 L316 289 Z M349 320 C352 323 354 325 357 327 C348 340 343 355 343 371 C343 387 348 402 357 415 C354 417 352 420 349 422 C339 408 333 390 333 371 C333 352 339 334 349 320 L349 320 Z M378 346 C382 349 384 351 384 351 C381 357 379 364 379 371 C379 378 381 385 384 391 C384 391 382 393 378 396 C374 389 371 380 371 371 C371 362 374 353 378 346 L378 346 Z M416 60 C493 60 563 89 616 136 C614 139 611 141 609 144 C558 98 490 70 416 70 C342 70 274 98 222 144 C222 145 215 137 215 137 C268 89 338 60 416 60 L416 60 Z M416 324 C426 324 435 327 442 333 C439 337 437 339 437 339 C431 334 424 332 416 332 C408 332 401 335 395 339 C395 339 391 334 389 333 C397 327 406 324 416 324 L416 324 Z M482 319 C493 334 499 352 499 371 C499 390 493 408 482 422 C483 422 475 415 475 415 C484 403 489 388 489 371 C489 355 484 339 475 326 C478 324 480 322 482 319 L482 319 Z M292 269 C295 271 298 274 300 276 C280 302 267 335 267 371 C267 407 280 440 300 466 L293 473 C270 445 257 410 257 371 C257 333 270 297 292 269 L292 269 Z M416 -17 C512 -17 600 19 667 80 C667 80 660 88 660 87 C595 29 510 -7 416 -7 C322 -7 236 29 171 88 L164 80 C231 20 320 -17 416 -17 L416 -17 Z M416 121 C478 121 534 144 576 182 C574 185 571 187 569 190 C529 153 475 131 416 131 C357 131 303 153 262 190 L255 182 C298 144 354 121 416 121 L416 121 Z M416 170 C465 170 510 188 544 218 C542 221 539 223 537 226 C505 197 462 180 416 180 C369 180 327 197 294 226 L287 219 C322 189 367 170 416 170 L416 170 Z M416 209 C455 209 491 224 518 247 C516 250 514 253 512 255 C486 233 452 219 416 219 C380 219 346 233 320 255 L313 247 C341 224 377 209 416 209 L416 209 Z M416 265 C441 265 463 274 481 289 C479 292 476 294 474 297 C458 283 438 275 416 275 C394 275 373 283 357 297 L350 289 C368 274 391 265 416 265 L416 265 Z M358 445 C374 459 394 467 416 467 C438 467 458 459 474 445 L482 453 C464 468 441 477 416 477 C391 477 368 468 350 453 C351 452 354 448 358 445 L358 445 Z M570 552 C572 554 575 557 577 560 C534 598 478 621 416 621 C355 621 299 598 256 560 L263 553 C304 589 357 611 416 611 C475 611 529 589 570 552 L570 552 Z M454 346 C458 353 461 362 461 371 C461 380 458 389 454 396 L448 391 C451 385 453 378 453 371 C453 364 451 357 448 351 C448 351 450 349 454 346 L454 346 Z M468 333 C476 344 480 357 480 371 C480 385 476 398 468 409 L460 402 C466 393 470 382 470 371 C470 360 466 349 460 340 C463 338 465 336 468 333 L468 333 Z M498 306 C511 325 519 347 519 371 C519 395 511 418 497 436 L490 429 C502 413 509 393 509 371 C509 349 502 329 490 313 C492 311 495 308 498 306 L498 306 Z M540 269 C562 297 575 332 575 371 C575 410 562 445 539 473 L531 466 C552 440 565 407 565 371 C565 335 552 302 532 276 C535 274 537 271 540 269 L540 269 Z M568 243 C596 278 613 322 613 371 C613 420 596 464 568 499 L560 492 C587 459 603 417 603 371 C603 325 587 283 560 250 C563 248 566 245 568 243 L568 243 Z M604 211 C640 254 661 310 661 371 C661 432 640 488 604 531 L596 524 C631 483 651 429 651 371 C651 313 631 260 596 218 C601 213 604 211 604 211 L604 211 Z M649 171 C694 225 721 295 721 371 C721 447 694 517 649 571 L641 564 C685 512 711 445 711 371 C711 297 685 230 642 177 C644 175 647 173 649 171 L649 171 Z M706 120 C762 188 796 276 796 371 C796 467 762 555 706 622 L698 615 C753 549 786 464 786 371 C786 278 753 193 698 127 C703 123 706 120 706 120 L706 120 Z M183 170 L190 177 C147 229 121 297 121 371 C121 444 147 512 190 564 C187 567 184 569 182 571 C138 517 111 447 111 371 C111 294 138 225 183 170 L183 170 Z M334 306 L342 314 C330 330 323 350 323 371 C323 393 330 413 342 429 C340 431 337 434 334 436 C321 418 313 395 313 371 C313 346 321 324 334 306 L334 306 Z M364 333 L371 340 C366 349 362 360 362 371 C362 382 366 393 371 402 C369 404 366 406 364 409 C356 398 352 385 352 371 C352 357 356 344 364 333 L364 333 Z M395 403 C401 408 408 410 416 410 C424 410 431 407 437 403 C437 403 439 406 442 409 C435 415 426 418 416 418 C406 418 397 415 390 409 L395 403 Z M384 416 C393 423 404 428 416 428 C428 428 439 424 448 416 C450 419 452 421 454 423 C443 432 430 437 416 437 C401 437 388 432 377 423 L384 416 Z M371 430 C383 441 399 447 416 447 C433 447 449 441 461 430 C461 430 464 434 468 438 C454 450 436 457 416 457 C397 457 378 450 364 438 L371 430 Z M295 516 C327 545 370 562 416 562 C462 562 505 545 538 516 C538 516 545 523 544 523 C510 554 465 572 416 572 C367 572 322 554 288 524 L295 516 Z M416 240 C448 240 476 252 498 271 L491 278 C471 261 445 250 416 250 C388 250 361 261 340 278 L333 270 C355 251 384 240 416 240 L416 240 Z M416 285 C436 285 454 292 468 304 L461 312 C448 301 433 295 416 295 C399 295 383 302 370 312 L363 304 C378 292 396 285 416 285 L416 285 Z M416 305 C430 305 444 310 455 319 L448 326 C439 319 428 314 416 314 C404 314 393 319 383 326 L376 319 C388 310 401 305 416 305 L416 305 Z M341 464 C362 482 388 492 416 492 C445 492 471 481 491 464 L498 472 C476 491 447 502 416 502 C385 502 356 490 334 471 L341 464 Z M320 487 C346 509 380 523 416 523 C453 523 486 510 512 487 L518 494 C491 518 455 533 416 533 C377 533 341 519 313 495 L320 487 Z M610 597 L617 605 C563 653 493 682 416 682 C339 682 269 653 215 605 L222 598 C274 644 342 672 416 672 C491 672 559 644 610 597 L610 597 Z M172 654 C237 713 322 749 416 749 C510 749 596 713 661 654 L668 662 C601 722 512 759 416 759 C320 759 232 723 165 662 L172 654 Z M516 290 C534 312 544 340 544 371 C544 402 534 430 516 453 L508 446 C524 425 534 399 534 371 C534 343 524 317 509 297 L516 290 Z " />
<glyph glyph-name="approxequal" unicode="&#x2248;" horiz-adv-x="231" d="M38 267 L71 267 C71 289 74 294 81 294 C95 294 132 268 156 268 C181 268 194 276 194 328 L161 328 C161 307 159 303 151 303 C137 303 100 328 75 328 C54 328 38 319 38 267 L38 267 Z M38 377 L71 377 C71 399 74 404 81 404 C95 404 132 378 156 378 C181 378 194 386 194 439 L161 439 C161 417 159 413 151 413 C137 413 100 439 75 439 C54 439 38 429 38 377 L38 377 Z " />
<glyph glyph-name="notequal" unicode="&#x2260;" horiz-adv-x="260" d="M166 0 L205 0 L205 509 L254 509 L254 547 L205 547 L205 660 C205 702 213 717 248 717 L254 717 L254 756 C252 757 247 757 246 757 C184 757 166 729 166 662 L166 547 L86 547 L86 660 C86 702 94 717 128 717 L131 717 L131 756 C129 757 126 757 124 757 C64 757 47 729 47 662 L47 547 L10 547 L10 509 L47 509 L47 0 L86 0 L86 509 L166 509 L166 0 Z " />
<glyph glyph-name="lessequal" unicode="&#x2264;" horiz-adv-x="231" d="M176 214 L176 264 L73 369 L176 474 L176 524 L37 386 L37 351 L176 214 Z M37 128 L176 128 L176 167 L37 167 L37 128 Z " />
<glyph glyph-name="greaterequal" unicode="&#x2265;" horiz-adv-x="231" d="M56 214 L195 351 L195 386 L56 524 L56 474 L159 369 L56 263 L56 214 Z M56 128 L195 128 L195 167 L56 167 L56 128 Z " />
<glyph glyph-name="lozenge" unicode="&#x25ca;" horiz-adv-x="264" d="M47 0 L86 0 L86 509 L164 509 L164 86 C164 27 179 -1 240 -1 C242 -1 249 -1 251 0 L251 39 L244 39 C210 39 203 50 203 88 L203 509 L251 509 L251 547 L203 547 L203 696 L169 683 L165 547 L86 547 L86 660 C86 702 94 717 128 717 L131 717 L131 756 C130 757 125 757 124 757 C64 757 47 729 47 662 L47 547 L10 547 L10 509 L47 509 L47 0 Z " />
<glyph glyph-name="apple" unicode="&#xf8ff;" horiz-adv-x="832" d="M126 120 C126 120 129 123 134 127 C79 193 46 278 46 371 C46 464 79 549 133 615 C129 619 126 621 126 621 C70 554 36 466 36 371 C36 275 70 187 126 120 L126 120 Z M228 211 C230 213 233 215 235 218 C201 259 181 313 181 371 C181 429 202 483 235 524 C232 526 230 529 227 531 C192 487 171 432 171 371 C171 310 193 254 228 211 L228 211 Z M264 243 C267 245 269 248 272 250 C245 283 229 325 229 371 C229 417 245 459 272 492 C269 494 267 497 264 499 C236 464 219 419 219 371 C219 322 236 278 264 243 L264 243 Z M316 289 C319 291 321 294 324 296 C308 317 298 343 298 371 C298 399 308 425 323 445 C321 448 318 450 316 452 C298 430 288 402 288 371 C288 340 298 312 316 289 L316 289 Z M349 320 C352 323 354 325 357 327 C348 340 343 355 343 371 C343 387 348 402 357 415 C354 417 352 420 349 422 C339 408 333 390 333 371 C333 352 339 334 349 320 L349 320 Z M378 346 C382 349 384 351 384 351 C381 357 379 364 379 371 C379 378 381 385 384 391 C384 391 382 393 378 396 C374 389 371 380 371 371 C371 362 374 353 378 346 L378 346 Z M416 60 C493 60 563 89 616 136 C614 139 611 141 609 144 C558 98 490 70 416 70 C342 70 274 98 222 144 C222 145 215 137 215 137 C268 89 338 60 416 60 L416 60 Z M416 324 C426 324 435 327 442 333 C439 337 437 339 437 339 C431 334 424 332 416 332 C408 332 401 335 395 339 C395 339 391 334 389 333 C397 327 406 324 416 324 L416 324 Z M482 319 C493 334 499 352 499 371 C499 390 493 408 482 422 C483 422 475 415 475 415 C484 403 489 388 489 371 C489 355 484 339 475 326 C478 324 480 322 482 319 L482 319 Z M292 269 C295 271 298 274 300 276 C280 302 267 335 267 371 C267 407 280 440 300 466 L293 473 C270 445 257 410 257 371 C257 333 270 297 292 269 L292 269 Z M416 -17 C512 -17 600 19 667 80 C667 80 660 88 660 87 C595 29 510 -7 416 -7 C322 -7 236 29 171 88 L164 80 C231 20 320 -17 416 -17 L416 -17 Z M416 121 C478 121 534 144 576 182 C574 185 571 187 569 190 C529 153 475 131 416 131 C357 131 303 153 262 190 L255 182 C298 144 354 121 416 121 L416 121 Z M416 170 C465 170 510 188 544 218 C542 221 539 223 537 226 C505 197 462 180 416 180 C369 180 327 197 294 226 L287 219 C322 189 367 170 416 170 L416 170 Z M416 209 C455 209 491 224 518 247 C516 250 514 253 512 255 C486 233 452 219 416 219 C380 219 346 233 320 255 L313 247 C341 224 377 209 416 209 L416 209 Z M416 265 C441 265 463 274 481 289 C479 292 476 294 474 297 C458 283 438 275 416 275 C394 275 373 283 357 297 L350 289 C368 274 391 265 416 265 L416 265 Z M358 445 C374 459 394 467 416 467 C438 467 458 459 474 445 L482 453 C464 468 441 477 416 477 C391 477 368 468 350 453 C351 452 354 448 358 445 L358 445 Z M570 552 C572 554 575 557 577 560 C534 598 478 621 416 621 C355 621 299 598 256 560 L263 553 C304 589 357 611 416 611 C475 611 529 589 570 552 L570 552 Z M454 346 C458 353 461 362 461 371 C461 380 458 389 454 396 L448 391 C451 385 453 378 453 371 C453 364 451 357 448 351 C448 351 450 349 454 346 L454 346 Z M468 333 C476 344 480 357 480 371 C480 385 476 398 468 409 L460 402 C466 393 470 382 470 371 C470 360 466 349 460 340 C463 338 465 336 468 333 L468 333 Z M498 306 C511 325 519 347 519 371 C519 395 511 418 497 436 L490 429 C502 413 509 393 509 371 C509 349 502 329 490 313 C492 311 495 308 498 306 L498 306 Z M540 269 C562 297 575 332 575 371 C575 410 562 445 539 473 L531 466 C552 440 565 407 565 371 C565 335 552 302 532 276 C535 274 537 271 540 269 L540 269 Z M568 243 C596 278 613 322 613 371 C613 420 596 464 568 499 L560 492 C587 459 603 417 603 371 C603 325 587 283 560 250 C563 248 566 245 568 243 L568 243 Z M604 211 C640 254 661 310 661 371 C661 432 640 488 604 531 L596 524 C631 483 651 429 651 371 C651 313 631 260 596 218 C601 213 604 211 604 211 L604 211 Z M649 171 C694 225 721 295 721 371 C721 447 694 517 649 571 L641 564 C685 512 711 445 711 371 C711 297 685 230 642 177 C644 175 647 173 649 171 L649 171 Z M706 120 C762 188 796 276 796 371 C796 467 762 555 706 622 L698 615 C753 549 786 464 786 371 C786 278 753 193 698 127 C703 123 706 120 706 120 L706 120 Z M183 170 L190 177 C147 229 121 297 121 371 C121 444 147 512 190 564 C187 567 184 569 182 571 C138 517 111 447 111 371 C111 294 138 225 183 170 L183 170 Z M334 306 L342 314 C330 330 323 350 323 371 C323 393 330 413 342 429 C340 431 337 434 334 436 C321 418 313 395 313 371 C313 346 321 324 334 306 L334 306 Z M364 333 L371 340 C366 349 362 360 362 371 C362 382 366 393 371 402 C369 404 366 406 364 409 C356 398 352 385 352 371 C352 357 356 344 364 333 L364 333 Z M395 403 C401 408 408 410 416 410 C424 410 431 407 437 403 C437 403 439 406 442 409 C435 415 426 418 416 418 C406 418 397 415 390 409 L395 403 Z M384 416 C393 423 404 428 416 428 C428 428 439 424 448 416 C450 419 452 421 454 423 C443 432 430 437 416 437 C401 437 388 432 377 423 L384 416 Z M371 430 C383 441 399 447 416 447 C433 447 449 441 461 430 C461 430 464 434 468 438 C454 450 436 457 416 457 C397 457 378 450 364 438 L371 430 Z M295 516 C327 545 370 562 416 562 C462 562 505 545 538 516 C538 516 545 523 544 523 C510 554 465 572 416 572 C367 572 322 554 288 524 L295 516 Z M416 240 C448 240 476 252 498 271 L491 278 C471 261 445 250 416 250 C388 250 361 261 340 278 L333 270 C355 251 384 240 416 240 L416 240 Z M416 285 C436 285 454 292 468 304 L461 312 C448 301 433 295 416 295 C399 295 383 302 370 312 L363 304 C378 292 396 285 416 285 L416 285 Z M416 305 C430 305 444 310 455 319 L448 326 C439 319 428 314 416 314 C404 314 393 319 383 326 L376 319 C388 310 401 305 416 305 L416 305 Z M341 464 C362 482 388 492 416 492 C445 492 471 481 491 464 L498 472 C476 491 447 502 416 502 C385 502 356 490 334 471 L341 464 Z M320 487 C346 509 380 523 416 523 C453 523 486 510 512 487 L518 494 C491 518 455 533 416 533 C377 533 341 519 313 495 L320 487 Z M610 597 L617 605 C563 653 493 682 416 682 C339 682 269 653 215 605 L222 598 C274 644 342 672 416 672 C491 672 559 644 610 597 L610 597 Z M172 654 C237 713 322 749 416 749 C510 749 596 713 661 654 L668 662 C601 722 512 759 416 759 C320 759 232 723 165 662 L172 654 Z M516 290 C534 312 544 340 544 371 C544 402 534 430 516 453 L508 446 C524 425 534 399 534 371 C534 343 524 317 509 297 L516 290 Z " />
<glyph glyph-name="fi" unicode="&#xfb01;" horiz-adv-x="236" d="M11 509 L47 509 L47 0 L87 0 L87 509 L131 509 L131 547 L87 547 L87 660 C87 702 94 717 129 717 L131 717 L131 756 C129 757 127 757 125 757 C65 757 47 729 47 662 L47 547 L11 547 L11 509 Z M166 0 L206 0 L206 547 L166 547 L166 0 Z M166 627 L206 627 L206 716 L166 716 L166 627 Z " />
<glyph glyph-name="fl" unicode="&#xfb02;" horiz-adv-x="253" d="M11 509 L47 509 L47 0 L87 0 L87 509 L131 509 L131 547 L87 547 L87 660 C87 702 94 717 129 717 L131 717 L131 756 C129 757 127 757 125 757 C65 757 47 729 47 662 L47 547 L11 547 L11 509 Z M226 -1 C228 -1 234 -1 236 0 L236 39 L232 39 C210 39 206 46 206 80 L206 756 L166 756 L166 80 C166 28 172 -1 226 -1 L226 -1 Z " />
</font>
</svg>
