<?xml version="1.0" encoding="UTF-8"?>
<svg xmlns="http://www.w3.org/2000/svg" xmlns:xlink="http://www.w3.org/1999/xlink" version="1.2" >
<font id="Gotham Rounded Bold Italic">
<font-face  font-family="Gotham Rounded" units-per-em="1000" ascent="800" descent="-200" font-style="italic" font-weight="700" font-stretch="normal" slope="-15" cap-height="700" x-height="536" underline-position="-75" underline-thickness="50" />
<missing-glyph  horiz-adv-x="500" d="M0 -200 L500 -200 L500 800 L0 800 L0 -200 Z M71 750 L429 750 L250 360 L71 750 Z M50 -76 L50 676 L222 300 L50 -76 Z M450 676 L450 -76 L278 300 L450 676 Z M250 240 L429 -150 L71 -150 L250 240 Z " />
<glyph glyph-name="NULL" d="" />
<glyph glyph-name="CR" unicode="&#xd;" horiz-adv-x="250" d="" />
<glyph glyph-name="space" unicode="&#x20;" horiz-adv-x="300" d="" />
<glyph glyph-name="exclam" unicode="&#x21;" horiz-adv-x="325" d="M351 652 C361 679 349 703 322 703 L231 703 C204 703 184 681 179 652 L119 281 C114 250 131 232 158 232 C183 232 198 244 208 270 L351 652 Z M198 83 C206 130 175 166 123 166 C72 166 34 132 25 83 L24 77 C16 30 47 -6 99 -6 C150 -6 189 29 197 77 L198 83 Z " />
<glyph glyph-name="quotedbl" unicode="&#x22;" horiz-adv-x="528" d="M195 413 L316 631 C334 663 334 704 288 704 L243 704 C202 704 176 672 166 635 L110 421 C103 395 116 375 141 375 C165 375 184 393 195 413 L195 413 Z M437 413 L558 631 C576 663 576 704 530 704 L485 704 C444 704 418 672 408 635 L352 421 C345 395 358 375 383 375 C407 375 426 393 437 413 L437 413 Z " />
<glyph glyph-name="numbersign" unicode="&#x23;" horiz-adv-x="691" d="M274 278 L325 426 L460 426 L409 278 L274 278 Z M399 637 C412 673 384 706 345 706 C313 706 284 684 273 653 L238 554 L170 554 C135 554 106 525 106 490 C106 455 135 426 170 426 L193 426 L142 278 L86 278 C51 278 22 249 22 214 C22 179 51 150 86 150 L97 150 L67 63 C53 23 82 -6 121 -6 C157 -6 184 21 193 47 L229 150 L364 150 L334 63 C321 26 349 -6 388 -6 C420 -6 450 17 460 47 L496 150 L564 150 C599 150 628 179 628 214 C628 249 599 278 564 278 L541 278 L592 426 L649 426 C684 426 713 455 713 490 C713 525 684 554 649 554 L637 554 L666 637 C679 673 653 706 614 706 C582 706 551 684 540 653 L505 554 L370 554 L399 637 Z " />
<glyph glyph-name="dollar" unicode="&#x24;" horiz-adv-x="636" d="M180 -36 C168 -79 186 -104 221 -104 C248 -104 268 -84 279 -52 L295 0 L296 0 C453 0 577 88 577 220 C577 323 512 370 416 406 L461 555 C481 547 498 538 516 525 C535 512 549 506 567 506 C609 506 643 537 643 578 C643 608 627 625 606 639 C585 654 541 678 503 687 L506 697 C518 740 499 764 464 764 C437 764 417 744 406 712 L402 700 L394 700 C239 700 118 606 118 480 C118 372 190 330 284 295 L237 140 C193 152 167 168 138 192 C128 200 109 212 88 212 C45 212 13 180 13 139 C13 114 28 90 45 77 C75 53 117 27 194 10 L180 -36 Z M329 439 C289 457 276 472 276 496 C276 531 303 564 368 568 L329 439 Z M330 132 L370 262 C406 245 419 229 419 204 C419 162 386 137 330 132 L330 132 Z " />
<glyph glyph-name="percent" unicode="&#x25;" horiz-adv-x="880" d="M238 346 C354 346 432 451 432 554 C432 645 371 708 278 708 C162 708 84 603 84 500 C84 409 145 346 238 346 L238 346 Z M645 -8 C761 -8 839 97 839 200 C839 291 778 354 685 354 C569 354 491 249 491 146 C491 55 552 -8 645 -8 L645 -8 Z M244 433 C206 433 182 460 182 504 C182 557 217 621 272 621 C310 621 334 594 334 550 C334 497 299 433 244 433 L244 433 Z M651 79 C613 79 589 106 589 150 C589 203 624 267 679 267 C717 267 741 240 741 196 C741 143 706 79 651 79 L651 79 Z M790 624 C801 635 807 649 807 662 C807 688 787 706 761 706 C745 706 731 698 720 687 L133 76 C122 65 116 51 116 38 C116 12 136 -6 162 -6 C178 -6 192 2 203 13 L790 624 Z " />
<glyph glyph-name="ampersand" unicode="&#x26;" horiz-adv-x="696" d="M348 436 C325 470 319 495 319 515 C319 555 350 592 400 592 C442 592 463 562 463 535 C463 495 439 469 348 436 L348 436 Z M262 116 C200 116 168 147 168 187 C168 231 203 278 283 309 L391 161 C346 133 301 116 262 116 L262 116 Z M500 16 C514 -3 532 -10 553 -10 C591 -10 619 18 619 56 C619 77 608 91 596 107 L562 154 C599 193 622 224 645 257 C651 266 657 282 657 297 C657 327 632 346 601 346 C574 346 556 324 547 313 C534 297 515 273 490 246 L412 350 C559 400 600 476 600 544 C600 641 522 712 407 712 C270 712 184 620 184 517 C184 479 198 436 221 396 C79 349 23 263 23 178 C23 60 115 -10 245 -10 C322 -10 397 20 463 66 L500 16 Z " />
<glyph glyph-name="quotesingle" unicode="&#x27;" horiz-adv-x="286" d="M195 413 L316 631 C334 663 334 704 288 704 L243 704 C202 704 176 672 166 635 L110 421 C103 395 116 375 141 375 C165 375 184 393 195 413 L195 413 Z " />
<glyph glyph-name="parenleft" unicode="&#x28;" horiz-adv-x="445" d="M309 -16 C251 55 212 126 212 214 C212 354 295 484 471 581 C500 597 513 615 513 643 C513 681 487 707 451 707 C438 707 424 703 414 698 C183 587 58 417 58 209 C58 94 104 -16 206 -113 C218 -124 231 -133 260 -133 C301 -133 328 -104 328 -68 C328 -45 320 -29 309 -16 L309 -16 Z " />
<glyph glyph-name="parenright" unicode="&#x29;" horiz-adv-x="445" d="M146 590 C204 519 243 448 243 360 C243 220 160 90 -16 -7 C-45 -23 -58 -41 -58 -69 C-58 -107 -32 -133 4 -133 C17 -133 31 -129 41 -124 C272 -13 397 157 397 365 C397 480 351 590 249 687 C237 698 224 707 195 707 C154 707 127 678 127 642 C127 619 135 603 146 590 L146 590 Z " />
<glyph glyph-name="asterisk" unicode="&#x2a;" horiz-adv-x="430" d="M294 487 L347 417 C354 407 365 399 380 399 C404 399 419 418 419 437 C419 452 412 461 399 471 L331 524 L419 535 C441 538 455 552 454 576 C453 596 440 610 421 610 C412 610 401 608 391 604 L317 574 L348 650 C361 681 347 705 317 705 C297 705 282 692 279 667 L268 587 L215 657 C208 667 197 675 182 675 C158 675 143 656 143 637 C143 622 150 613 163 603 L231 550 L143 538 C120 535 107 519 108 499 C109 478 125 463 144 463 C153 463 161 466 171 470 L245 500 L213 422 C201 395 217 369 244 369 C265 369 280 382 283 407 L294 487 Z " />
<glyph glyph-name="plus" unicode="&#x2b;" horiz-adv-x="640" d="M395 283 L531 283 C569 283 600 314 600 352 C600 390 569 421 531 421 L432 421 L456 511 C473 574 446 607 400 607 C365 607 332 579 319 530 L290 421 L154 421 C116 421 85 390 85 352 C85 314 116 283 154 283 L253 283 L229 193 C212 130 239 97 285 97 C320 97 353 125 366 174 L395 283 Z " />
<glyph glyph-name="comma" unicode="&#x2c;" horiz-adv-x="319" d="M-32 -94 C-54 -99 -67 -109 -67 -129 C-67 -146 -58 -162 -31 -162 C6 -162 57 -142 93 -112 C138 -75 174 -21 188 49 L189 54 C203 124 177 166 118 166 C71 166 35 133 25 85 L24 80 C15 33 39 9 72 0 C67 -49 31 -81 -32 -94 L-32 -94 Z " />
<glyph glyph-name="hyphen" unicode="&#x2d;" horiz-adv-x="412" d="M305 237 C345 237 378 270 378 310 C378 350 345 383 305 383 L131 383 C91 383 58 350 58 310 C58 270 91 237 131 237 L305 237 Z " />
<glyph glyph-name="period" unicode="&#x2e;" horiz-adv-x="319" d="M196 83 C204 130 173 166 121 166 C70 166 32 132 23 83 L22 77 C14 30 45 -6 97 -6 C148 -6 187 29 195 77 L196 83 Z " />
<glyph glyph-name="slash" unicode="&#x2f;" horiz-adv-x="530" d="M-63 -30 C-73 -44 -85 -60 -85 -84 C-85 -115 -66 -134 -34 -134 C-8 -134 14 -120 33 -94 L617 700 C627 714 639 730 639 754 C639 785 620 804 588 804 C562 804 540 790 521 764 L-63 -30 Z " />
<glyph glyph-name="zero" unicode="0" horiz-adv-x="730" d="M335 -12 C572 -12 710 217 710 421 C710 597 601 712 437 712 C200 712 62 483 62 279 C62 103 171 -12 335 -12 L335 -12 Z M347 127 C270 127 220 179 220 278 C220 408 300 573 425 573 C502 573 552 521 552 422 C552 292 472 127 347 127 L347 127 Z " />
<glyph glyph-name="one" unicode="1" horiz-adv-x="434" d="M415 627 C427 673 402 710 356 710 L355 710 C334 710 309 705 280 697 L158 663 C125 654 104 625 104 594 C104 552 134 531 165 531 C172 531 178 532 183 533 L242 547 L120 94 C103 31 130 -6 181 -6 C221 -6 253 22 266 71 L415 627 Z " />
<glyph glyph-name="two" unicode="2" horiz-adv-x="614" d="M452 0 C489 0 519 29 519 66 C519 103 489 133 452 133 L237 133 L453 281 C578 368 618 431 618 517 C618 630 524 710 379 710 C279 710 200 668 146 618 C131 605 121 585 121 565 C121 526 150 495 189 495 C212 495 230 507 241 517 C273 545 320 572 372 572 C426 572 460 546 460 500 C460 455 426 417 358 370 L25 140 C-2 121 -15 98 -15 68 C-15 22 20 0 68 0 L452 0 Z " />
<glyph glyph-name="three" unicode="3" horiz-adv-x="604" d="M24 67 C69 21 138 -12 242 -12 C409 -12 536 97 536 238 C536 340 475 391 387 412 L577 557 C608 581 630 599 630 637 C630 679 597 700 552 700 L214 700 C178 700 148 670 148 634 C148 598 178 568 214 568 L401 568 L219 422 C195 403 185 386 185 365 C185 329 205 307 241 307 L244 307 C329 307 381 278 381 224 C381 173 324 126 249 126 C187 126 159 143 121 177 C109 187 94 196 72 196 C32 196 -2 162 -2 122 C-2 100 11 80 24 67 L24 67 Z " />
<glyph glyph-name="four" unicode="4" horiz-adv-x="659" d="M211 276 L449 500 L389 276 L211 276 Z M500 151 L554 151 C589 151 617 178 617 213 C617 248 589 276 554 276 L534 276 L629 632 C642 680 609 711 562 711 C517 711 482 690 448 659 L55 301 C29 277 14 250 14 216 C14 175 48 151 89 151 L355 151 L340 94 C323 31 348 -6 397 -6 C435 -6 466 22 479 71 L500 151 Z " />
<glyph glyph-name="five" unicode="5" horiz-adv-x="610" d="M42 61 C97 17 178 -11 250 -11 C441 -11 563 115 563 254 C563 376 473 454 345 454 C321 454 297 451 274 446 L314 565 L555 565 C592 565 623 595 623 632 C623 669 592 700 555 700 L266 700 C227 700 205 676 193 641 L115 406 C107 381 114 356 136 339 C157 322 179 313 198 313 C220 313 242 327 281 327 C364 327 405 287 405 237 C405 178 346 128 263 128 C211 128 168 146 134 173 C116 187 102 194 82 194 C42 194 11 161 11 121 C11 95 25 75 42 61 L42 61 Z " />
<glyph glyph-name="six" unicode="6" horiz-adv-x="643" d="M617 668 C576 692 519 712 450 712 C346 712 259 670 196 607 C106 517 59 382 59 249 C59 161 84 99 131 52 C173 10 239 -12 313 -12 C475 -12 603 119 603 260 C603 385 507 455 390 455 C324 455 259 426 229 396 C244 444 271 489 301 519 C338 556 381 574 437 574 C480 574 509 563 534 550 C545 544 561 534 581 534 C620 534 652 565 652 605 C652 634 640 655 617 668 L617 668 Z M313 118 C277 118 250 129 231 148 C215 164 205 186 205 211 C205 276 260 331 343 331 C405 331 448 296 448 239 C448 179 394 118 313 118 L313 118 Z " />
<glyph glyph-name="seven" unicode="7" horiz-adv-x="609" d="M612 561 C633 587 647 616 647 643 C647 679 623 700 576 700 L201 700 C164 700 134 670 134 633 C134 596 164 567 201 567 L444 567 L92 116 C77 96 68 73 68 53 C68 16 92 -6 133 -6 C163 -6 190 9 216 42 L612 561 Z " />
<glyph glyph-name="eight" unicode="8" horiz-adv-x="662" d="M300 -10 C483 -10 591 92 591 198 C591 272 547 323 484 347 C579 370 637 434 637 522 C637 631 535 710 389 710 C214 710 126 605 126 514 C126 459 156 407 211 379 C109 354 32 295 32 188 C32 68 156 -10 300 -10 L300 -10 Z M378 416 C310 416 267 452 268 498 C269 547 319 584 382 584 C455 584 494 547 493 503 C492 454 443 416 378 416 L378 416 Z M308 114 C232 114 181 151 182 201 C183 253 237 292 314 292 C391 292 442 256 441 206 C440 150 383 114 308 114 L308 114 Z " />
<glyph glyph-name="nine" unicode="9" horiz-adv-x="643" d="M243 -12 C340 -12 424 27 489 92 C579 182 629 311 629 437 C629 540 604 602 557 649 C515 691 441 712 374 712 C212 712 84 589 84 436 C84 305 180 238 297 238 C363 238 426 266 456 296 C442 253 418 213 388 183 C349 144 305 126 251 126 C205 126 172 144 147 157 C136 163 120 173 100 173 C61 173 29 142 29 102 C29 70 46 51 70 36 C108 12 171 -12 243 -12 L243 -12 Z M346 362 C284 362 239 395 239 456 C239 524 293 582 375 582 C411 582 438 571 457 552 C473 536 482 511 482 486 C482 419 428 362 346 362 L346 362 Z " />
<glyph glyph-name="colon" unicode="&#x3a;" horiz-adv-x="319" d="M196 83 C204 130 173 166 121 166 C70 166 32 132 23 83 L22 77 C14 30 45 -6 97 -6 C148 -6 187 29 195 77 L196 83 Z M297 459 C305 506 274 542 222 542 C171 542 133 508 124 459 L123 453 C115 406 146 370 198 370 C249 370 288 405 296 453 L297 459 Z " />
<glyph glyph-name="semicolon" unicode="&#x3b;" horiz-adv-x="319" d="M-32 -94 C-54 -99 -67 -109 -67 -129 C-67 -146 -58 -162 -31 -162 C6 -162 57 -142 93 -112 C138 -75 174 -21 188 49 L189 54 C203 124 177 166 118 166 C71 166 35 133 25 85 L24 80 C15 33 39 9 72 0 C67 -49 31 -81 -32 -94 L-32 -94 Z M297 459 C305 506 274 542 222 542 C171 542 133 508 124 459 L123 453 C115 406 146 370 198 370 C249 370 288 405 296 453 L297 459 Z " />
<glyph glyph-name="less" unicode="&#x3c;" horiz-adv-x="640" d="M152 437 C112 420 84 388 84 342 L84 336 C84 289 114 264 151 244 L426 100 C434 96 448 91 463 91 C502 91 529 122 529 159 C529 187 520 204 488 220 L234 346 L589 487 C614 497 630 517 630 549 C630 583 605 603 573 603 C559 603 544 598 534 594 L152 437 Z " />
<glyph glyph-name="equal" unicode="&#x3d;" horiz-adv-x="640" d="M206 413 L553 413 C591 413 622 444 622 482 C622 520 591 551 553 551 L206 551 C168 551 137 520 137 482 C137 444 168 413 206 413 L206 413 Z M136 153 L483 153 C521 153 552 184 552 222 C552 260 521 291 483 291 L136 291 C98 291 67 260 67 222 C67 184 98 153 136 153 L136 153 Z " />
<glyph glyph-name="greater" unicode="&#x3e;" horiz-adv-x="640" d="M530 267 C570 284 598 316 598 362 L598 368 C598 415 568 440 531 460 L256 604 C248 608 234 613 219 613 C180 613 153 582 153 545 C153 517 162 500 194 484 L448 358 L93 217 C68 207 52 187 52 155 C52 121 77 101 109 101 C123 101 138 106 148 110 L530 267 Z " />
<glyph glyph-name="question" unicode="&#x3f;" horiz-adv-x="544" d="M217 539 C250 557 285 569 320 569 C377 569 403 545 403 507 C403 453 339 423 257 411 C215 405 196 393 192 360 L183 284 C179 252 196 232 225 232 L233 232 C262 232 286 253 297 281 L308 308 C476 334 564 410 564 527 C564 622 482 709 341 709 C255 709 185 680 138 646 C116 630 104 610 104 582 C104 552 129 522 165 522 C182 522 200 530 217 539 L217 539 Z M275 83 C283 130 252 166 200 166 C149 166 111 132 102 83 L101 77 C93 30 124 -6 176 -6 C227 -6 266 29 274 77 L275 83 Z " />
<glyph glyph-name="at" unicode="&#x40;" horiz-adv-x="980" d="M461 165 C409 165 377 198 377 251 C377 338 445 407 512 407 C563 407 599 374 599 324 C599 236 529 165 461 165 L461 165 Z M683 -110 C689 -107 693 -101 693 -93 C693 -83 685 -74 674 -74 C671 -74 665 -76 662 -77 C613 -98 547 -116 471 -116 C250 -116 96 28 96 233 C96 468 291 675 542 675 C767 675 905 533 905 371 C905 202 812 112 741 112 C689 112 660 149 683 221 L749 429 C763 472 735 502 701 502 C666 502 646 480 633 442 L632 439 C606 481 568 509 501 509 C377 509 250 394 250 233 C250 124 323 64 411 64 C481 64 531 101 571 142 C592 95 643 65 710 65 C829 65 947 160 947 371 C947 553 793 715 542 715 C269 715 55 490 55 233 C55 6 226 -155 471 -155 C551 -155 619 -139 683 -110 L683 -110 Z " />
<glyph glyph-name="A" unicode="A" horiz-adv-x="765" d="M303 293 L461 524 L497 293 L303 293 Z M590 638 C582 683 558 711 506 711 L503 711 C454 711 420 687 395 651 L6 105 C-6 89 -12 70 -12 54 C-12 18 11 -6 51 -6 C83 -6 110 15 129 42 L209 157 L519 157 L535 55 C540 20 567 -6 610 -6 C656 -6 689 28 689 68 C689 78 686 94 684 108 L590 638 Z " />
<glyph glyph-name="B" unicode="B" horiz-adv-x="717" d="M274 417 L313 565 L458 565 C526 565 555 538 555 502 C555 444 508 417 429 417 L274 417 Z M198 135 L239 289 L408 289 C471 289 504 264 504 223 C504 169 456 135 379 135 L198 135 Z M356 0 C550 0 657 88 657 213 C657 285 617 328 559 355 C649 375 709 435 709 528 C709 622 637 700 472 700 L265 700 C225 700 192 672 179 623 L39 100 C22 37 50 0 101 0 L356 0 Z " />
<glyph glyph-name="C" unicode="C" horiz-adv-x="726" d="M625 63 C640 76 652 95 652 120 C652 160 622 193 582 193 C563 193 544 184 530 175 C483 145 456 130 398 130 C298 130 227 198 227 299 C227 448 346 570 474 570 C548 570 586 543 623 503 C637 487 655 481 677 481 C722 481 756 517 756 561 C756 590 740 611 724 626 C668 678 597 712 493 712 C257 712 67 516 67 293 C67 106 206 -12 397 -12 C486 -12 572 18 625 63 L625 63 Z " />
<glyph glyph-name="D" unicode="D" horiz-adv-x="777" d="M203 139 L317 561 L392 561 C471 561 522 541 553 510 C579 484 594 447 594 399 C594 331 569 269 524 224 C468 168 383 139 290 139 L203 139 Z M265 700 C225 700 192 672 179 623 L39 100 C22 37 50 0 101 0 L272 0 C434 0 555 45 639 129 C714 204 754 300 754 405 C754 490 730 558 678 610 C625 663 540 700 404 700 L265 700 Z " />
<glyph glyph-name="E" unicode="E" horiz-adv-x="665" d="M495 0 C533 0 564 30 564 68 C564 106 533 137 495 137 L201 137 L241 285 L521 285 C559 285 590 314 590 352 C590 390 559 420 521 420 L278 420 L316 563 L641 563 C679 563 710 593 710 631 C710 669 679 700 641 700 L265 700 C225 700 192 672 179 623 L39 100 C22 37 50 0 101 0 L495 0 Z " />
<glyph glyph-name="F" unicode="F" horiz-adv-x="663" d="M265 700 C225 700 192 672 179 623 L37 94 C20 31 48 -6 99 -6 C139 -6 172 22 185 71 L239 271 L527 271 C566 271 597 302 597 341 C597 380 566 411 527 411 L276 411 L316 560 L650 560 C689 560 720 591 720 630 C720 669 689 700 650 700 L265 700 Z " />
<glyph glyph-name="G" unicode="G" horiz-adv-x="780" d="M720 304 C737 365 709 403 658 403 L477 403 C440 403 410 373 410 336 C410 299 440 270 477 270 L563 270 L530 156 C499 142 459 129 405 129 C306 129 226 188 226 297 C226 443 341 571 491 571 C566 571 608 548 654 512 C665 504 680 496 702 496 C744 496 778 530 778 572 C778 602 763 620 747 634 C705 673 620 712 503 712 C251 712 66 510 66 292 C66 83 235 -12 395 -12 C485 -12 565 11 603 31 C638 50 655 75 665 111 L720 304 Z " />
<glyph glyph-name="H" unicode="H" horiz-adv-x="756" d="M763 606 C780 669 752 706 701 706 C661 706 628 678 615 629 L560 423 L280 423 L329 606 C346 669 318 706 267 706 C227 706 194 678 181 629 L37 94 C20 31 48 -6 99 -6 C139 -6 172 22 185 71 L242 281 L522 281 L471 94 C454 31 482 -6 533 -6 C573 -6 606 22 619 71 L763 606 Z " />
<glyph glyph-name="I" unicode="I" horiz-adv-x="336" d="M336 606 C353 669 325 706 274 706 C234 706 201 678 188 629 L44 94 C27 31 55 -6 106 -6 C146 -6 179 22 192 71 L336 606 Z " />
<glyph glyph-name="J" unicode="J" horiz-adv-x="575" d="M587 606 C604 669 576 706 525 706 C485 706 452 678 439 629 L355 315 C330 221 316 194 294 172 C270 148 235 133 197 133 C162 133 133 143 106 165 C87 180 73 186 53 186 C13 186 -19 153 -19 112 C-19 88 -6 67 9 53 C59 9 129 -10 188 -10 C276 -10 345 13 397 65 C447 115 470 168 499 278 L587 606 Z " />
<glyph glyph-name="K" unicode="K" horiz-adv-x="719" d="M217 191 L368 310 L475 48 C487 18 511 -6 553 -6 C591 -6 630 20 630 63 C630 79 626 94 618 113 L494 396 L719 580 C737 595 746 614 746 637 C746 675 719 706 676 706 C649 706 631 692 612 676 L271 390 L329 606 C346 669 318 706 267 706 C227 706 194 678 181 629 L37 94 C20 31 48 -6 99 -6 C139 -6 172 22 185 71 L217 191 Z " />
<glyph glyph-name="L" unicode="L" horiz-adv-x="626" d="M471 0 C509 0 540 30 540 70 C540 109 509 140 471 140 L204 140 L329 606 C346 669 318 706 267 706 C227 706 194 678 181 629 L39 100 C22 37 50 0 101 0 L471 0 Z " />
<glyph glyph-name="M" unicode="M" horiz-adv-x="868" d="M799 704 C761 704 735 687 708 656 L461 361 L355 641 C340 681 317 704 277 704 L268 704 C221 704 193 675 180 626 L37 94 C20 31 48 -6 99 -6 C139 -6 172 22 185 71 L278 416 L345 240 C359 202 376 184 411 184 C442 184 469 201 495 230 L667 417 L581 94 C564 31 593 -6 644 -6 C684 -6 718 22 731 71 L874 604 C891 667 864 704 813 704 L799 704 Z " />
<glyph glyph-name="N" unicode="N" horiz-adv-x="786" d="M546 255 L368 643 C351 681 323 704 278 704 L271 704 C225 704 193 676 180 627 L37 94 C20 31 47 -6 98 -6 C138 -6 170 22 183 71 L287 459 L474 54 C492 16 513 -4 562 -4 L565 -4 C611 -4 636 23 648 68 L793 606 C810 669 783 706 732 706 C692 706 660 678 647 629 L546 255 Z " />
<glyph glyph-name="O" unicode="O" horiz-adv-x="832" d="M387 -12 C638 -12 808 193 808 402 C808 578 681 712 488 712 C237 712 67 507 67 298 C67 122 194 -12 387 -12 L387 -12 Z M405 130 C290 130 227 204 227 308 C227 429 323 570 470 570 C585 570 648 496 648 392 C648 271 552 130 405 130 L405 130 Z " />
<glyph glyph-name="P" unicode="P" horiz-adv-x="679" d="M223 212 L356 212 C547 212 696 311 696 485 C696 546 678 593 642 629 C591 680 522 700 422 700 L265 700 C225 700 192 672 179 623 L37 94 C20 31 48 -6 99 -6 C139 -6 172 22 185 71 L223 212 Z M259 347 L316 561 L416 561 C462 561 491 551 512 530 C527 515 535 495 535 472 C535 393 466 347 364 347 L259 347 Z " />
<glyph glyph-name="Q" unicode="Q" horiz-adv-x="832" d="M556 313 C543 334 524 344 499 344 C457 344 424 309 424 268 C424 242 438 223 450 206 L493 148 C467 137 437 130 405 130 C290 130 227 204 227 308 C227 429 323 570 470 570 C585 570 648 496 648 392 C648 341 631 287 601 241 L556 313 Z M592 0 C605 -21 626 -33 653 -33 C695 -33 726 -2 726 39 C726 62 719 78 702 98 L689 114 C765 192 808 296 808 402 C808 578 681 712 488 712 C237 712 67 507 67 298 C67 122 194 -12 387 -12 C455 -12 518 3 572 30 L592 0 Z " />
<glyph glyph-name="R" unicode="R" horiz-adv-x="727" d="M226 224 L341 224 L452 45 C470 15 498 -6 542 -6 C577 -6 617 17 617 64 C617 79 613 94 600 113 L514 241 C583 260 628 284 667 323 C708 364 731 422 731 489 C731 546 712 595 677 630 C630 677 559 700 455 700 L265 700 C225 700 192 672 179 623 L37 94 C20 31 48 -6 99 -6 C139 -6 172 22 185 71 L226 224 Z M263 360 L317 561 L446 561 C495 561 529 551 548 532 C563 517 570 500 570 476 C570 447 559 423 541 405 C511 375 460 360 400 360 L263 360 Z " />
<glyph glyph-name="S" unicode="S" horiz-adv-x="636" d="M302 125 C233 125 189 144 130 193 C120 201 102 212 81 212 C38 212 6 178 6 134 C6 107 19 84 36 70 C108 8 212 -10 295 -10 C442 -10 573 76 573 223 C573 325 501 373 405 412 C310 451 282 467 282 504 C282 539 319 575 384 575 C441 575 481 558 527 522 C538 513 553 509 569 509 C611 509 645 541 645 584 C645 615 630 633 609 648 C564 679 505 710 396 710 C246 710 118 622 118 479 C118 376 199 327 290 290 C384 252 409 232 409 198 C409 154 364 125 302 125 L302 125 Z " />
<glyph glyph-name="T" unicode="T" horiz-adv-x="620" d="M463 558 L630 558 C669 558 701 590 701 629 C701 668 669 700 630 700 L181 700 C142 700 110 668 110 629 C110 590 142 558 181 558 L309 558 L184 94 C167 31 195 -6 246 -6 C286 -6 319 22 332 71 L463 558 Z " />
<glyph glyph-name="U" unicode="U" horiz-adv-x="764" d="M776 606 C793 669 765 706 714 706 C674 706 641 678 628 629 L541 305 C526 248 503 205 473 175 C443 146 405 131 359 131 C280 131 237 178 237 247 C237 276 242 299 248 323 L324 606 C341 669 313 706 262 706 C222 706 189 678 176 629 L98 337 C88 298 81 260 81 225 C81 76 181 -11 343 -11 C447 -11 524 18 581 75 C630 124 665 193 689 283 L776 606 Z " />
<glyph glyph-name="V" unicode="V" horiz-adv-x="724" d="M767 605 C774 615 781 635 781 649 C781 688 751 706 711 706 C677 706 651 688 631 657 L338 212 L287 635 C282 679 255 706 206 706 C157 706 125 676 125 636 C125 626 126 611 128 600 L208 57 C215 11 238 -11 280 -11 L287 -11 C329 -11 362 11 389 51 L767 605 Z " />
<glyph glyph-name="W" unicode="W" horiz-adv-x="1108" d="M1151 602 C1157 612 1164 629 1164 643 C1164 682 1134 706 1092 706 C1055 706 1028 685 1010 655 L754 226 L726 647 C723 686 699 708 656 708 L647 708 C606 708 580 684 558 647 L308 226 L282 642 C280 682 251 706 206 706 C159 706 126 675 126 635 C126 625 127 610 128 599 L176 57 C180 12 206 -11 248 -11 L255 -11 C300 -11 333 15 355 51 L595 444 L625 57 C627 11 654 -11 696 -11 L703 -11 C745 -11 779 7 806 51 L1151 602 Z " />
<glyph glyph-name="X" unicode="X" horiz-adv-x="700" d="M469 346 L705 579 C723 597 732 617 732 639 C732 681 700 706 666 706 C632 706 611 689 587 664 L397 467 L308 650 C289 689 263 706 227 706 C183 706 149 673 149 630 C149 608 158 591 168 573 L281 363 L39 124 C22 108 9 84 9 62 C9 18 41 -6 75 -6 C111 -6 130 12 154 36 L357 237 L447 50 C466 11 492 -6 528 -6 C572 -6 606 27 606 70 C606 92 597 109 587 127 L469 346 Z " />
<glyph glyph-name="Y" unicode="Y" horiz-adv-x="650" d="M392 256 L702 583 C715 597 728 620 728 644 C728 683 704 707 664 707 C632 707 607 691 581 663 L347 406 L258 646 C244 685 222 706 183 706 C134 706 100 674 100 633 C100 611 108 592 115 575 L241 270 L194 94 C177 31 205 -6 256 -6 C296 -6 329 22 342 71 L392 256 Z " />
<glyph glyph-name="Z" unicode="Z" horiz-adv-x="689" d="M35 138 C10 114 -7 89 -7 62 L-7 60 C-7 23 19 0 60 0 L521 0 C558 0 589 30 589 67 C589 104 558 135 521 135 L225 135 L694 562 C719 586 736 611 736 638 L736 640 C736 677 710 700 669 700 L224 700 C187 700 156 669 156 632 C156 595 187 565 224 565 L504 565 L35 138 Z " />
<glyph glyph-name="bracketleft" unicode="&#x5b;" horiz-adv-x="465" d="M466 581 C499 581 526 607 526 640 C526 673 499 700 466 700 L284 700 C236 700 203 665 192 623 L11 -53 C0 -94 29 -130 73 -130 L275 -130 C308 -130 335 -103 335 -70 C335 -37 308 -11 275 -11 L168 -11 L327 581 L466 581 Z " />
<glyph glyph-name="backslash" unicode="&#x5c;" horiz-adv-x="530" d="M256 744 C249 779 228 804 191 804 C157 804 133 780 133 748 C133 731 137 715 140 701 L314 -74 C321 -109 342 -134 379 -134 C413 -134 437 -110 437 -78 C437 -61 433 -45 430 -31 L256 744 Z " />
<glyph glyph-name="bracketright" unicode="&#x5d;" horiz-adv-x="465" d="M190 -130 C238 -130 271 -95 282 -53 L463 623 C474 664 445 700 401 700 L199 700 C166 700 139 673 139 640 C139 607 166 581 199 581 L306 581 L147 -11 L8 -11 C-25 -11 -52 -37 -52 -70 C-52 -103 -25 -130 8 -130 L190 -130 Z " />
<glyph glyph-name="asciicircum" unicode="&#x5e;" horiz-adv-x="500" d="M142 552 C130 540 125 530 125 517 C125 502 137 488 160 488 C191 488 211 501 252 540 L325 610 L360 542 C386 491 401 488 437 488 C456 488 470 497 470 512 C470 523 465 536 459 549 L411 656 C397 687 376 702 341 702 L332 702 C297 702 272 683 248 659 L142 552 Z " />
<glyph glyph-name="underscore" unicode="&#x5f;" horiz-adv-x="600" d="M-99 -160 L505 -160 C537 -160 563 -134 563 -102 C563 -70 537 -44 505 -44 L-99 -44 C-131 -44 -157 -70 -157 -102 C-157 -134 -131 -160 -99 -160 L-99 -160 Z " />
<glyph glyph-name="grave" unicode="&#x60;" horiz-adv-x="500" d="M325 622 C346 595 359 589 388 589 C418 589 436 602 436 622 C436 630 435 634 432 643 L402 725 C393 750 377 762 349 762 C312 762 265 737 265 712 C265 700 271 691 279 680 L325 622 Z " />
<glyph glyph-name="a" unicode="a" horiz-adv-x="588" d="M388 -6 C428 -6 460 22 473 71 L533 296 C540 323 545 349 545 377 C545 482 472 542 328 542 C269 542 214 533 164 517 C138 509 118 488 118 458 C118 423 144 397 178 397 C185 397 194 399 203 401 C229 408 265 413 296 413 C371 413 397 387 397 350 C397 334 394 322 391 310 L389 303 C344 317 296 327 238 327 C108 327 7 258 7 134 C7 50 70 -10 163 -10 C226 -10 280 16 323 62 C321 32 329 -6 388 -6 L388 -6 Z M228 94 C185 94 158 118 158 151 C158 203 204 235 267 235 C304 235 341 226 367 216 L363 202 C346 144 291 94 228 94 L228 94 Z " />
<glyph glyph-name="b" unicode="b" horiz-adv-x="674" d="M337 -10 C488 -10 633 126 633 316 C633 461 544 546 427 546 C367 546 322 521 276 478 L318 636 C335 699 308 736 257 736 C217 736 185 708 172 659 L22 94 C5 31 32 -6 83 -6 C129 -6 156 29 167 71 L169 78 C204 25 253 -10 337 -10 L337 -10 Z M317 118 C250 118 202 164 202 232 C202 334 280 418 364 418 C432 418 476 376 476 306 C476 198 399 118 317 118 L317 118 Z " />
<glyph glyph-name="c" unicode="c" horiz-adv-x="560" d="M472 51 C486 63 495 79 495 101 C495 136 469 164 434 164 C417 164 401 155 389 147 C357 125 328 117 297 117 C238 117 192 161 192 230 C192 329 266 416 346 416 C390 416 421 399 444 371 C457 356 472 349 494 349 C535 349 567 381 567 420 C567 446 554 465 539 479 C509 508 457 546 358 546 C187 546 42 405 42 230 C42 84 146 -12 292 -12 C364 -12 419 8 472 51 L472 51 Z " />
<glyph glyph-name="d" unicode="d" horiz-adv-x="674" d="M464 -6 C507 -6 539 22 552 71 L703 636 C720 699 693 736 642 736 C602 736 570 708 557 659 L504 458 C469 511 420 546 336 546 C185 546 40 410 40 220 C40 75 129 -10 246 -10 C306 -10 351 15 397 58 C397 20 420 -6 464 -6 L464 -6 Z M309 118 C241 118 197 160 197 230 C197 338 274 418 356 418 C423 418 471 372 471 304 C471 202 393 118 309 118 L309 118 Z " />
<glyph glyph-name="e" unicode="e" horiz-adv-x="607" d="M306 110 C226 110 189 152 184 215 L499 215 C539 215 562 238 572 282 C576 300 578 320 578 337 C578 456 498 546 359 546 C167 546 41 381 41 226 C41 78 135 -12 289 -12 C356 -12 416 5 463 36 C480 47 492 66 492 87 C492 121 467 145 435 145 C419 145 402 138 389 131 C369 120 339 110 306 110 L306 110 Z M197 310 C222 378 278 424 347 424 C409 424 435 389 435 345 C435 332 433 320 430 310 L197 310 Z " />
<glyph glyph-name="f" unicode="f" horiz-adv-x="411" d="M285 406 L371 406 C406 406 434 434 434 471 C434 508 406 536 371 536 L317 536 L321 551 C332 590 356 609 396 609 C404 609 412 608 420 607 C453 601 487 628 487 676 C487 710 465 729 437 734 C425 736 407 737 391 737 C279 737 205 684 174 565 L167 536 L140 536 C105 536 77 508 77 471 C77 431 107 410 133 406 L48 94 C31 31 58 -6 109 -6 C149 -6 181 22 194 71 L285 406 Z " />
<glyph glyph-name="g" unicode="g" horiz-adv-x="671" d="M302 165 C242 165 200 197 200 260 C200 343 269 419 354 419 C418 419 460 382 460 321 C460 236 386 165 302 165 L302 165 Z M499 453 C471 502 428 546 336 546 C188 546 43 410 43 231 C43 109 139 44 242 44 C308 44 354 65 410 115 L405 97 C393 55 379 24 356 1 C327 -28 291 -42 240 -42 C189 -42 137 -31 83 -4 C67 4 56 8 39 8 C3 8 -24 -22 -24 -58 C-24 -85 -9 -103 19 -116 C89 -147 164 -162 250 -162 C348 -162 415 -137 464 -88 C507 -45 529 -3 558 105 L648 442 C665 505 638 542 587 542 C541 542 514 507 503 465 L499 453 Z " />
<glyph glyph-name="h" unicode="h" horiz-adv-x="622" d="M563 288 C572 322 581 360 581 390 C581 487 519 546 423 546 C363 546 315 514 277 480 L318 636 C335 699 308 736 257 736 C217 736 185 708 172 659 L22 94 C5 31 32 -6 83 -6 C123 -6 155 22 168 71 L230 301 C247 365 286 408 346 408 C393 408 420 385 420 342 C420 329 417 309 413 294 L359 94 C342 31 369 -6 420 -6 C460 -6 492 22 505 71 L563 288 Z " />
<glyph glyph-name="i" unicode="i" horiz-adv-x="302" d="M342 660 L343 665 C351 705 318 735 270 735 C222 735 181 708 172 665 L171 660 C163 620 196 590 244 590 C292 590 333 617 342 660 L342 660 Z M274 442 C291 505 264 542 213 542 C173 542 141 514 128 465 L28 94 C11 31 38 -6 89 -6 C129 -6 161 22 174 71 L274 442 Z " />
<glyph glyph-name="j" unicode="j" horiz-adv-x="301" d="M274 442 C291 505 264 542 213 542 C173 542 141 514 128 465 L10 25 C-2 -21 -15 -42 -43 -42 C-50 -42 -63 -40 -68 -40 C-101 -37 -126 -67 -126 -102 C-126 -144 -95 -163 -46 -163 C46 -163 123 -120 159 13 L274 442 Z M342 660 L343 665 C351 705 318 735 270 735 C222 735 181 708 172 665 L171 660 C163 620 196 590 244 590 C292 590 333 617 342 660 L342 660 Z " />
<glyph glyph-name="k" unicode="k" horiz-adv-x="591" d="M320 636 C337 699 310 736 259 736 C219 736 187 708 174 659 L22 94 C5 31 32 -6 83 -6 C123 -6 155 22 168 71 L191 159 L273 219 L344 49 C356 19 381 -6 423 -6 C461 -6 501 18 501 61 C501 77 496 94 488 113 L405 314 L563 429 C580 441 591 460 591 481 C591 515 566 542 528 542 C504 542 488 529 470 515 L240 340 L320 636 Z " />
<glyph glyph-name="l" unicode="l" horiz-adv-x="302" d="M326 636 C343 699 316 736 265 736 C225 736 193 708 180 659 L28 94 C11 31 38 -6 89 -6 C129 -6 161 22 174 71 L326 636 Z " />
<glyph glyph-name="m" unicode="m" horiz-adv-x="949" d="M354 94 C337 31 364 -6 415 -6 C455 -6 487 22 500 71 L562 301 C579 365 616 408 676 408 C723 408 747 385 747 342 C747 329 744 309 740 294 L686 94 C669 31 696 -6 747 -6 C787 -6 819 22 832 71 L890 288 C899 322 908 360 908 390 C908 487 849 546 753 546 C672 546 608 506 561 449 C540 508 492 546 419 546 C359 546 315 514 277 480 C277 514 253 542 209 542 C166 542 134 514 121 465 L22 94 C5 31 32 -6 83 -6 C123 -6 155 22 168 71 L230 301 C247 365 284 408 344 408 C391 408 415 385 415 342 C415 329 412 309 408 294 L354 94 Z " />
<glyph glyph-name="n" unicode="n" horiz-adv-x="619" d="M209 542 C166 542 134 514 121 465 L22 94 C5 31 32 -6 83 -6 C123 -6 155 22 168 71 L230 301 C247 365 286 408 346 408 C393 408 420 385 420 342 C420 329 417 309 413 294 L359 94 C342 31 369 -6 420 -6 C460 -6 492 22 505 71 L563 288 C572 322 581 360 581 390 C581 487 519 546 423 546 C363 546 315 514 277 480 C277 514 253 542 209 542 L209 542 Z " />
<glyph glyph-name="o" unicode="o" horiz-adv-x="652" d="M300 -12 C472 -12 610 138 610 298 C610 441 511 546 352 546 C180 546 42 396 42 236 C42 93 141 -12 300 -12 L300 -12 Z M307 118 C238 118 191 162 191 240 C191 316 252 416 345 416 C414 416 461 372 461 294 C461 218 400 118 307 118 L307 118 Z " />
<glyph glyph-name="p" unicode="p" horiz-adv-x="674" d="M209 542 C166 542 134 514 121 465 L-21 -66 C-38 -129 -11 -166 40 -166 C80 -166 112 -138 125 -89 L169 78 C204 25 253 -10 337 -10 C488 -10 633 126 633 316 C633 461 544 546 427 546 C367 546 322 521 276 478 C276 516 253 542 209 542 L209 542 Z M364 418 C432 418 476 376 476 306 C476 198 399 118 317 118 C250 118 202 164 202 232 C202 334 280 418 364 418 L364 418 Z " />
<glyph glyph-name="q" unicode="q" horiz-adv-x="674" d="M336 546 C185 546 40 410 40 220 C40 75 129 -10 246 -10 C306 -10 351 15 397 58 L364 -66 C347 -129 374 -166 425 -166 C465 -166 497 -138 510 -89 L651 442 C668 505 641 542 590 542 C544 542 517 507 506 465 L504 458 C469 511 420 546 336 546 L336 546 Z M356 418 C423 418 471 372 471 304 C471 202 393 118 309 118 C241 118 197 160 197 230 C197 338 274 418 356 418 L356 418 Z " />
<glyph glyph-name="r" unicode="r" horiz-adv-x="419" d="M268 451 C281 505 256 542 206 542 C166 542 134 514 121 465 L21 94 C4 31 31 -6 82 -6 C122 -6 154 22 167 71 L200 190 C232 309 292 369 387 396 C433 409 453 434 453 474 C453 517 427 542 388 542 C342 542 301 508 265 439 L268 451 Z " />
<glyph glyph-name="s" unicode="s" horiz-adv-x="500" d="M228 104 C182 104 136 117 85 157 C76 164 62 171 45 171 C11 171 -16 142 -16 107 C-16 85 -7 68 11 55 C65 16 139 -12 217 -12 C345 -12 437 60 437 177 C437 261 360 298 290 329 C245 349 219 364 219 385 C219 413 241 430 278 430 C317 430 354 417 392 392 C406 383 418 377 432 377 C467 377 495 406 495 442 C495 468 481 486 460 498 C418 523 355 546 289 546 C156 546 74 465 74 358 C74 272 146 237 230 201 C267 185 292 171 292 151 C292 121 268 104 228 104 L228 104 Z " />
<glyph glyph-name="t" unicode="t" horiz-adv-x="415" d="M165 536 L137 536 C102 536 74 508 74 471 C74 431 104 410 130 406 L65 163 C59 139 55 118 55 96 C55 37 100 -9 194 -9 C227 -9 255 -6 283 6 C306 16 322 35 322 68 C322 106 298 125 268 125 L256 125 C231 125 218 137 218 157 C218 163 220 173 222 181 L282 406 L368 406 C403 406 431 434 431 471 C431 508 403 536 368 536 L317 536 L329 579 C346 642 319 679 268 679 C228 679 196 651 183 602 L165 536 Z " />
<glyph glyph-name="u" unicode="u" horiz-adv-x="622" d="M413 -6 C456 -6 488 22 501 71 L600 442 C617 505 590 542 539 542 C499 542 467 514 454 465 L392 235 C375 171 336 128 276 128 C229 128 202 151 202 194 C202 207 205 227 209 242 L263 442 C280 505 253 542 202 542 C162 542 130 514 117 465 L59 248 C50 214 41 176 41 146 C41 49 103 -10 199 -10 C259 -10 307 22 345 56 C345 22 369 -6 413 -6 L413 -6 Z " />
<glyph glyph-name="v" unicode="v" horiz-adv-x="592" d="M595 444 C602 454 607 471 607 484 C607 521 582 542 543 542 C508 542 483 524 464 494 L265 179 L235 478 C232 518 202 542 158 542 C119 542 81 513 81 472 C81 462 82 447 84 436 L143 58 C150 12 175 -10 219 -10 L223 -10 C268 -10 295 10 324 52 L595 444 Z " />
<glyph glyph-name="w" unicode="w" horiz-adv-x="857" d="M105 58 C107 12 132 -10 174 -10 L179 -10 C221 -10 256 14 278 52 L438 325 L451 58 C453 13 478 -10 520 -10 L525 -10 C567 -10 601 13 624 52 L859 444 C865 454 871 472 871 485 C871 520 849 542 810 542 C779 542 754 523 739 497 L575 210 L563 482 C561 521 535 543 495 543 L487 543 C447 543 419 519 398 482 L242 211 L235 478 C234 518 203 542 159 542 C120 542 81 511 81 471 C81 461 82 446 83 435 L105 58 Z " />
<glyph glyph-name="x" unicode="x" horiz-adv-x="578" d="M251 487 C231 524 212 544 172 544 C129 544 101 512 101 472 C101 450 108 432 120 414 L207 277 L31 120 C7 98 -3 79 -3 52 C-3 17 23 -8 57 -8 C90 -8 105 9 130 31 L271 168 L335 48 C354 11 374 -9 411 -9 C454 -9 485 20 485 64 C485 83 479 100 466 121 L376 266 L543 416 C561 432 578 455 578 484 C578 521 550 544 517 544 C484 544 468 528 444 505 L312 375 L251 487 Z " />
<glyph glyph-name="y" unicode="y" horiz-adv-x="592" d="M62 -27 C51 -24 41 -20 31 -20 C0 -20 -29 -49 -29 -86 C-29 -123 -6 -142 17 -152 C37 -161 63 -163 89 -163 C176 -163 237 -123 306 -13 L584 431 C597 452 604 470 604 483 C604 520 577 542 538 542 C503 542 477 523 461 494 L273 168 L242 477 C240 517 209 542 168 542 C126 542 92 511 92 471 C92 461 93 446 95 435 L159 -3 C141 -27 125 -35 107 -35 C89 -35 77 -31 62 -27 L62 -27 Z " />
<glyph glyph-name="z" unicode="z" horiz-adv-x="557" d="M165 536 C131 536 103 508 103 474 C103 440 131 413 165 413 L353 413 L23 125 C-4 102 -14 82 -14 57 L-14 56 C-14 21 12 0 54 0 L399 0 C433 0 461 27 461 61 C461 95 433 123 399 123 L199 123 L530 411 C557 434 567 454 567 479 L567 480 C567 515 541 536 499 536 L165 536 Z " />
<glyph glyph-name="braceleft" unicode="&#x7b;" horiz-adv-x="490" d="M111 345 C75 345 49 321 49 287 C49 257 66 237 114 227 C149 218 158 203 158 169 C158 153 152 124 142 98 C128 61 122 35 122 12 C122 -67 171 -109 276 -134 C315 -143 346 -118 346 -81 C346 -51 325 -35 311 -28 C289 -16 267 -2 267 39 C267 62 276 88 284 109 C293 132 302 159 302 186 C302 232 272 267 217 275 C316 285 365 324 380 462 C390 553 412 592 504 608 C532 613 551 631 551 661 C551 695 529 716 484 713 C349 703 267 645 249 498 C234 379 204 345 114 345 L111 345 Z " />
<glyph glyph-name="bar" unicode="&#x7c;" horiz-adv-x="350" d="M132 -74 C132 -107 159 -134 192 -134 C225 -134 252 -107 252 -74 L252 744 C252 777 225 804 192 804 C159 804 132 777 132 744 L132 -74 Z " />
<glyph glyph-name="braceright" unicode="&#x7d;" horiz-adv-x="490" d="M389 229 C425 229 451 253 451 287 C451 317 434 337 386 347 C351 356 342 371 342 405 C342 421 348 450 358 476 C372 513 378 539 378 562 C378 641 329 683 224 708 C185 717 154 692 154 655 C154 625 175 609 189 602 C211 590 233 576 233 535 C233 512 224 486 216 465 C207 442 198 415 198 388 C198 342 228 307 283 299 C184 289 135 250 120 112 C110 21 88 -18 -4 -34 C-32 -39 -51 -57 -51 -87 C-51 -121 -29 -142 16 -139 C151 -129 233 -71 251 76 C266 195 296 229 386 229 L389 229 Z " />
<glyph glyph-name="asciitilde" unicode="&#x7e;" horiz-adv-x="510" d="M106 224 C128 224 139 233 151 247 C169 269 185 279 205 279 C221 279 232 272 258 253 C282 236 302 224 337 224 C393 224 441 267 473 324 C478 333 481 344 481 353 C481 376 463 393 439 393 C417 393 406 384 394 370 C376 348 360 338 340 338 C324 338 313 345 287 364 C264 381 243 393 208 393 C152 393 104 350 72 293 C67 284 64 273 64 264 C64 241 82 224 106 224 L106 224 Z " />
<glyph glyph-name="uni00A0" unicode="&#xa0;" horiz-adv-x="300" d="" />
<glyph glyph-name="exclamdown" unicode="&#xa1;" horiz-adv-x="325" d="M17 48 C7 21 19 -3 46 -3 L137 -3 C164 -3 184 19 189 48 L249 419 C254 450 237 468 210 468 C185 468 170 456 160 430 L17 48 Z M344 623 C352 670 321 706 269 706 C218 706 179 671 171 623 L170 617 C162 570 193 534 245 534 C296 534 334 568 343 617 L344 623 Z " />
<glyph glyph-name="cent" unicode="&#xa2;" horiz-adv-x="586" d="M507 122 C526 134 539 157 539 181 C539 216 515 244 480 244 C463 244 447 238 431 230 C401 215 375 207 341 206 L450 485 C466 475 476 466 487 454 C498 442 512 433 536 433 C577 433 608 465 608 504 C608 530 594 548 579 563 C563 579 540 596 504 612 L517 645 C533 686 511 712 478 712 C451 712 433 693 420 662 L409 633 C400 634 392 634 383 634 C204 634 66 501 66 326 C66 222 117 144 202 104 L183 55 C167 14 190 -12 223 -12 C250 -12 268 7 280 38 L296 79 C311 77 326 76 342 76 C405 76 459 92 507 122 L507 122 Z M215 328 C215 411 275 494 363 503 L257 233 C232 254 215 286 215 328 L215 328 Z " />
<glyph glyph-name="sterling" unicode="&#xa3;" horiz-adv-x="644" d="M450 568 C494 568 515 551 531 535 C542 524 560 513 582 513 C627 513 658 547 658 591 C658 620 642 638 626 653 C591 686 534 710 461 710 C382 710 321 686 274 639 C238 603 211 552 194 488 L169 394 L134 394 C99 394 70 365 70 330 C70 295 99 267 134 267 L135 267 L99 132 L48 116 C16 106 -3 85 -3 56 C-3 25 22 0 59 0 L478 0 C515 0 545 29 545 66 C545 103 515 133 478 133 L253 133 L289 267 L478 267 C513 267 542 295 542 330 C542 365 513 394 478 394 L322 394 L341 462 C350 494 364 522 382 540 C399 557 418 568 450 568 L450 568 Z " />
<glyph glyph-name="yen" unicode="&#xa5;" horiz-adv-x="711" d="M392 441 L309 657 C296 691 272 706 236 706 C193 706 159 675 159 632 C159 610 168 592 175 575 L267 370 L157 370 C127 370 103 346 103 316 C103 286 127 262 157 262 L279 262 L263 200 L112 200 C82 200 58 176 58 146 C58 116 82 92 112 92 L234 92 L233 88 C216 25 245 -6 293 -6 C330 -6 363 22 376 71 L382 92 L533 92 C563 92 587 116 587 146 C587 176 563 200 533 200 L411 200 L427 262 L578 262 C608 262 632 286 632 316 C632 346 608 370 578 370 L495 370 L707 583 C720 597 735 620 735 644 C735 683 712 707 672 707 C643 707 621 688 598 663 L392 441 Z " />
<glyph glyph-name="section" unicode="&#xa7;" horiz-adv-x="632" d="M399 288 C373 288 348 294 299 309 C242 326 213 339 213 366 C213 394 244 415 278 415 C304 415 329 409 378 394 C435 377 464 364 464 337 C464 309 433 288 399 288 L399 288 Z M291 105 C245 105 205 117 154 157 C145 164 129 171 112 171 C78 171 51 143 51 108 C51 86 62 68 75 57 C128 14 202 -9 283 -9 C411 -9 506 57 506 148 C506 185 491 211 470 231 C561 250 606 298 606 363 C606 448 520 478 418 506 C341 527 316 538 316 560 C316 583 343 598 389 598 C433 598 471 581 510 556 C519 550 532 545 546 545 C581 545 610 572 610 608 C610 634 597 650 579 662 C535 691 468 712 399 712 C266 712 171 646 171 555 C171 518 186 492 207 472 C116 453 71 405 71 340 C71 255 157 225 259 197 C336 176 361 165 361 143 C361 120 334 105 291 105 L291 105 Z " />
<glyph glyph-name="dieresis" unicode="&#xa8;" horiz-adv-x="500" d="M326 661 L327 665 C335 704 305 736 261 736 C217 736 179 709 170 665 L169 661 C159 619 189 589 235 589 C280 589 317 616 326 661 L326 661 Z M540 661 L541 665 C549 704 519 736 475 736 C431 736 393 709 384 665 L383 661 C373 619 403 589 449 589 C494 589 531 616 540 661 L540 661 Z " />
<glyph glyph-name="copyright" unicode="&#xa9;" horiz-adv-x="830" d="M435 -12 C638 -12 798 153 798 350 L798 352 C798 549 640 712 437 712 C234 712 74 547 74 350 L74 348 C74 151 232 -12 435 -12 L435 -12 Z M435 28 C253 28 116 171 116 348 L116 350 C116 527 254 672 437 672 C619 672 756 529 756 352 L756 350 C756 173 618 28 435 28 L435 28 Z M440 156 C505 156 545 176 582 209 C589 215 595 225 595 238 C595 260 576 279 554 279 C542 279 534 274 528 269 C503 248 478 236 443 236 C378 236 333 290 333 354 L333 356 C333 421 379 474 443 474 C473 474 501 462 522 446 C531 439 541 435 550 435 C573 435 592 454 592 478 C592 494 584 506 573 514 C541 538 504 554 443 554 C325 554 243 464 243 355 L243 353 C243 243 327 156 440 156 L440 156 Z " />
<glyph glyph-name="ordfeminine" unicode="&#xaa;" horiz-adv-x="390" d="M261 633 C302 633 318 618 318 596 C318 592 317 586 315 579 L313 572 C289 580 261 586 229 586 C158 586 102 548 102 479 C102 433 137 400 188 400 C223 400 252 415 276 440 C273 420 284 402 311 402 C333 402 351 418 358 444 L392 569 C396 583 398 598 398 613 C398 671 358 704 279 704 C245 704 211 698 190 691 C173 685 163 672 163 655 C163 633 176 623 193 623 C199 623 206 625 211 626 C223 629 245 633 261 633 L261 633 Z M81 277 L305 277 C323 277 338 292 338 310 C338 328 323 343 305 343 L81 343 C63 343 48 328 48 310 C48 292 63 277 81 277 L81 277 Z M224 457 C200 457 185 471 185 489 C185 517 209 535 245 535 C266 535 286 530 300 525 L298 517 C290 484 258 457 224 457 L224 457 Z " />
<glyph glyph-name="guillemotleft" unicode="&#xab;" horiz-adv-x="643" d="M73 288 C61 277 53 263 53 247 C53 231 62 217 69 203 L137 68 C149 44 164 31 196 31 C231 31 260 57 260 92 C260 107 257 117 250 131 L190 245 L336 383 C347 393 357 409 357 430 C357 464 334 485 300 485 C277 485 258 470 242 455 L73 288 Z M343 288 C331 277 323 263 323 247 C323 231 332 217 339 203 L407 68 C419 44 434 31 466 31 C501 31 530 57 530 92 C530 107 527 117 520 131 L460 245 L606 383 C617 393 627 409 627 430 C627 464 604 485 570 485 C547 485 528 470 512 455 L343 288 Z " />
<glyph glyph-name="registered" unicode="&#xae;" horiz-adv-x="368" d="M259 360 C356 360 433 440 433 535 L433 536 C433 631 357 710 259 710 C162 710 85 630 85 535 L85 534 C85 439 161 360 259 360 L259 360 Z M259 379 C171 379 105 449 105 534 L105 535 C105 620 172 691 259 691 C347 691 413 621 413 536 L413 535 C413 450 346 379 259 379 L259 379 Z M183 468 C183 454 195 442 209 442 C223 442 235 454 235 468 L235 501 L259 501 L298 452 C303 446 309 442 318 442 C332 442 344 453 344 467 C344 474 342 479 337 485 L314 512 C335 522 348 541 348 567 C348 610 317 630 271 630 L209 630 C195 630 183 618 183 604 L183 468 Z M235 542 L235 586 L268 586 C286 586 296 578 296 564 C296 551 286 542 268 542 L235 542 Z " />
<glyph glyph-name="macron" unicode="&#xaf;" horiz-adv-x="500" d="M486 600 C515 600 539 623 539 652 C539 681 515 705 486 705 L220 705 C191 705 167 681 167 652 C167 623 191 600 220 600 L486 600 Z " />
<glyph glyph-name="degree" unicode="&#xb0;" horiz-adv-x="445" d="M249 363 C356 363 440 455 440 555 C440 644 378 709 279 709 C172 709 88 617 88 517 C88 428 150 363 249 363 L249 363 Z M252 441 C207 441 177 473 177 520 C177 572 217 631 276 631 C321 631 351 599 351 552 C351 500 311 441 252 441 L252 441 Z " />
<glyph glyph-name="plusminus" unicode="&#xb1;" horiz-adv-x="640" d="M417 380 L551 380 C587 380 616 409 616 445 C616 481 587 510 551 510 L453 510 L475 595 C491 655 466 686 422 686 C389 686 358 660 345 613 L318 510 L184 510 C148 510 119 481 119 445 C119 409 148 380 184 380 L282 380 L260 293 C244 233 269 202 313 202 C346 202 377 228 390 275 L417 380 Z M80 0 C45 0 17 28 17 63 C17 98 45 126 80 126 L450 126 C485 126 513 98 513 63 C513 28 485 0 450 0 L80 0 Z " />
<glyph glyph-name="acute" unicode="&#xb4;" horiz-adv-x="500" d="M450 680 C466 692 472 702 472 713 C472 739 424 762 387 762 C362 762 347 747 330 729 L254 645 C245 635 241 627 241 617 C241 599 258 589 283 589 C314 589 341 599 372 622 L450 680 Z " />
<glyph glyph-name="paragraph" unicode="&#xb6;" horiz-adv-x="599" d="M610 623 C621 664 595 700 548 700 L440 700 C200 700 87 579 87 424 C87 283 184 215 346 212 L315 94 C298 31 326 -6 377 -6 C417 -6 450 22 463 71 L610 623 Z " />
<glyph glyph-name="periodcentered" unicode="&#xb7;" horiz-adv-x="319" d="M253 313 C261 360 230 396 178 396 C127 396 89 362 80 313 L79 307 C71 260 102 224 154 224 C205 224 244 259 252 307 L253 313 Z " />
<glyph glyph-name="cedilla" unicode="&#xb8;" horiz-adv-x="500" d="M280 10 L168 10 L78 -84 C67 -96 63 -105 63 -116 C63 -142 103 -167 131 -167 C154 -167 170 -155 183 -135 L280 10 Z " />
<glyph glyph-name="ordmasculine" unicode="&#xba;" horiz-adv-x="402" d="M246 399 C342 399 416 480 416 569 C416 648 361 705 274 705 C178 705 104 624 104 535 C104 456 159 399 246 399 L246 399 Z M249 470 C211 470 186 498 186 538 C186 583 219 634 271 634 C309 634 334 606 334 566 C334 521 301 470 249 470 L249 470 Z M82 277 L316 277 C334 277 349 292 349 310 C349 328 334 343 316 343 L82 343 C64 343 49 328 49 310 C49 292 64 277 82 277 L82 277 Z " />
<glyph glyph-name="guillemotright" unicode="&#xbb;" horiz-adv-x="643" d="M567 238 C579 249 587 263 587 279 C587 295 578 309 571 323 L503 458 C491 482 476 495 444 495 C409 495 380 469 380 434 C380 419 383 409 390 395 L450 281 L304 143 C293 133 283 117 283 96 C283 62 306 41 340 41 C363 41 382 56 398 71 L567 238 Z M297 238 C309 249 317 263 317 279 C317 295 308 309 301 323 L233 458 C221 482 206 495 174 495 C139 495 110 469 110 434 C110 419 113 409 120 395 L180 281 L34 143 C23 133 13 117 13 96 C13 62 36 41 70 41 C93 41 112 56 128 71 L297 238 Z " />
<glyph glyph-name="questiondown" unicode="&#xbf;" horiz-adv-x="544" d="M371 161 C338 143 303 131 268 131 C211 131 185 155 185 193 C185 247 249 277 331 289 C373 295 392 307 396 340 L405 416 C409 448 392 468 363 468 L355 468 C326 468 302 447 291 419 L280 392 C112 366 24 290 24 173 C24 78 106 -9 247 -9 C333 -9 403 20 450 54 C472 70 484 90 484 118 C484 148 459 178 423 178 C406 178 388 170 371 161 L371 161 Z M486 617 L487 623 C495 670 464 706 412 706 C361 706 322 671 314 623 L313 617 C305 570 336 534 388 534 C439 534 477 568 486 617 L486 617 Z " />
<glyph glyph-name="Agrave" unicode="&#xc0;" horiz-adv-x="765" d="M303 293 L461 524 L497 293 L303 293 Z M590 638 C582 683 558 711 506 711 L503 711 C454 711 420 687 395 651 L6 105 C-6 89 -12 70 -12 54 C-12 18 11 -6 51 -6 C83 -6 110 15 129 42 L209 157 L519 157 L535 55 C540 20 567 -6 610 -6 C656 -6 689 28 689 68 C689 78 686 94 684 108 L590 638 Z M442 792 C463 765 476 759 505 759 C535 759 553 772 553 792 C553 800 552 804 549 813 L519 895 C510 920 494 932 466 932 C429 932 382 907 382 882 C382 870 388 861 396 850 L442 792 Z " />
<glyph glyph-name="Aacute" unicode="&#xc1;" horiz-adv-x="765" d="M303 293 L461 524 L497 293 L303 293 Z M590 638 C582 683 558 711 506 711 L503 711 C454 711 420 687 395 651 L6 105 C-6 89 -12 70 -12 54 C-12 18 11 -6 51 -6 C83 -6 110 15 129 42 L209 157 L519 157 L535 55 C540 20 567 -6 610 -6 C656 -6 689 28 689 68 C689 78 686 94 684 108 L590 638 Z M702 850 C718 862 724 872 724 883 C724 909 676 932 639 932 C614 932 599 917 582 899 L506 815 C497 805 493 797 493 787 C493 769 510 759 535 759 C566 759 593 769 624 792 L702 850 Z " />
<glyph glyph-name="Acircumflex" unicode="&#xc2;" horiz-adv-x="765" d="M303 293 L461 524 L497 293 L303 293 Z M590 638 C582 683 558 711 506 711 L503 711 C454 711 420 687 395 651 L6 105 C-6 89 -12 70 -12 54 C-12 18 11 -6 51 -6 C83 -6 110 15 129 42 L209 157 L519 157 L535 55 C540 20 567 -6 610 -6 C656 -6 689 28 689 68 C689 78 686 94 684 108 L590 638 Z M648 889 C636 913 613 927 578 927 L534 927 C499 927 475 912 456 893 L374 814 C363 803 357 793 357 782 C357 767 370 759 389 759 C423 759 449 768 484 792 L541 831 L577 792 C606 760 631 759 665 759 C684 759 699 767 699 783 C699 792 691 806 686 815 L648 889 Z " />
<glyph glyph-name="Atilde" unicode="&#xc3;" horiz-adv-x="765" d="M303 293 L461 524 L497 293 L303 293 Z M590 638 C582 683 558 711 506 711 L503 711 C454 711 420 687 395 651 L6 105 C-6 89 -12 70 -12 54 C-12 18 11 -6 51 -6 C83 -6 110 15 129 42 L209 157 L519 157 L535 55 C540 20 567 -6 610 -6 C656 -6 689 28 689 68 C689 78 686 94 684 108 L590 638 Z M374 762 C396 762 407 771 419 785 C437 807 453 817 473 817 C489 817 500 810 526 791 C550 774 570 762 605 762 C661 762 709 805 741 862 C746 871 749 882 749 891 C749 914 731 931 707 931 C685 931 674 922 662 908 C644 886 628 876 608 876 C592 876 581 883 555 902 C532 919 511 931 476 931 C420 931 372 888 340 831 C335 822 332 811 332 802 C332 779 350 762 374 762 L374 762 Z " />
<glyph glyph-name="Adieresis" unicode="&#xc4;" horiz-adv-x="765" d="M303 293 L461 524 L497 293 L303 293 Z M590 638 C582 683 558 711 506 711 L503 711 C454 711 420 687 395 651 L6 105 C-6 89 -12 70 -12 54 C-12 18 11 -6 51 -6 C83 -6 110 15 129 42 L209 157 L519 157 L535 55 C540 20 567 -6 610 -6 C656 -6 689 28 689 68 C689 78 686 94 684 108 L590 638 Z M512 831 L513 835 C521 874 491 906 447 906 C403 906 365 879 356 835 L355 831 C345 789 375 759 421 759 C466 759 503 786 512 831 L512 831 Z M726 831 L727 835 C735 874 705 906 661 906 C617 906 579 879 570 835 L569 831 C559 789 589 759 635 759 C680 759 717 786 726 831 L726 831 Z " />
<glyph glyph-name="Aring" unicode="&#xc5;" horiz-adv-x="765" d="M51 -6 C83 -6 110 15 129 42 L209 157 L519 157 L535 55 C540 20 567 -6 610 -6 C656 -6 689 28 689 68 C689 78 686 94 684 108 L582 682 C618 706 641 748 641 793 C641 851 599 897 531 897 C456 897 397 835 397 763 C397 735 406 709 424 691 L6 105 C-6 89 -12 70 -12 54 C-12 18 11 -6 51 -6 L51 -6 Z M303 293 L461 524 L497 293 L303 293 Z M509 714 C479 714 461 736 461 764 C461 803 488 842 529 842 C559 842 577 820 577 792 C577 753 550 714 509 714 L509 714 Z " />
<glyph glyph-name="AE" unicode="&#xc6;" horiz-adv-x="1058" d="M340 293 L558 567 L577 567 L504 293 L340 293 Z M561 700 C519 700 485 676 459 644 L26 108 C10 88 3 67 3 49 C3 17 24 -6 62 -6 C93 -6 113 10 136 38 L231 157 L467 157 L451 100 C433 37 462 0 513 0 L888 0 C926 0 957 30 957 68 C957 106 926 137 888 137 L614 137 L654 285 L914 285 C952 285 983 314 983 352 C983 390 952 420 914 420 L691 420 L729 563 L1034 563 C1072 563 1103 593 1103 631 C1103 669 1072 700 1034 700 L561 700 Z " />
<glyph glyph-name="Ccedilla" unicode="&#xc7;" horiz-adv-x="726" d="M625 63 C640 76 652 95 652 120 C652 160 622 193 582 193 C563 193 544 184 530 175 C483 145 456 130 398 130 C298 130 227 198 227 299 C227 448 346 570 474 570 C548 570 586 543 623 503 C637 487 655 481 677 481 C722 481 756 517 756 561 C756 590 740 611 724 626 C668 678 597 712 493 712 C257 712 67 516 67 293 C67 145 154 41 284 3 L201 -84 C190 -96 186 -105 186 -116 C186 -142 226 -167 254 -167 C277 -167 293 -155 306 -135 L388 -12 L397 -12 C486 -12 572 18 625 63 L625 63 Z " />
<glyph glyph-name="Egrave" unicode="&#xc8;" horiz-adv-x="665" d="M495 0 C533 0 564 30 564 68 C564 106 533 137 495 137 L201 137 L241 285 L521 285 C559 285 590 314 590 352 C590 390 559 420 521 420 L278 420 L316 563 L641 563 C679 563 710 593 710 631 C710 669 679 700 641 700 L265 700 C225 700 192 672 179 623 L39 100 C22 37 50 0 101 0 L495 0 Z M395 782 C416 755 429 749 458 749 C488 749 506 762 506 782 C506 790 505 794 502 803 L472 885 C463 910 447 922 419 922 C382 922 335 897 335 872 C335 860 341 851 349 840 L395 782 Z " />
<glyph glyph-name="Eacute" unicode="&#xc9;" horiz-adv-x="665" d="M495 0 C533 0 564 30 564 68 C564 106 533 137 495 137 L201 137 L241 285 L521 285 C559 285 590 314 590 352 C590 390 559 420 521 420 L278 420 L316 563 L641 563 C679 563 710 593 710 631 C710 669 679 700 641 700 L265 700 C225 700 192 672 179 623 L39 100 C22 37 50 0 101 0 L495 0 Z M655 840 C671 852 677 862 677 873 C677 899 629 922 592 922 C567 922 552 907 535 889 L459 805 C450 795 446 787 446 777 C446 759 463 749 488 749 C519 749 546 759 577 782 L655 840 Z " />
<glyph glyph-name="Ecircumflex" unicode="&#xca;" horiz-adv-x="665" d="M495 0 C533 0 564 30 564 68 C564 106 533 137 495 137 L201 137 L241 285 L521 285 C559 285 590 314 590 352 C590 390 559 420 521 420 L278 420 L316 563 L641 563 C679 563 710 593 710 631 C710 669 679 700 641 700 L265 700 C225 700 192 672 179 623 L39 100 C22 37 50 0 101 0 L495 0 Z M600 879 C588 903 565 917 530 917 L486 917 C451 917 427 902 408 883 L326 804 C315 793 309 783 309 772 C309 757 322 749 341 749 C375 749 401 758 436 782 L493 821 L529 782 C558 750 583 749 617 749 C636 749 651 757 651 773 C651 782 643 796 638 805 L600 879 Z " />
<glyph glyph-name="Edieresis" unicode="&#xcb;" horiz-adv-x="665" d="M495 0 C533 0 564 30 564 68 C564 106 533 137 495 137 L201 137 L241 285 L521 285 C559 285 590 314 590 352 C590 390 559 420 521 420 L278 420 L316 563 L641 563 C679 563 710 593 710 631 C710 669 679 700 641 700 L265 700 C225 700 192 672 179 623 L39 100 C22 37 50 0 101 0 L495 0 Z M464 821 L465 825 C473 864 443 896 399 896 C355 896 317 869 308 825 L307 821 C297 779 327 749 373 749 C418 749 455 776 464 821 L464 821 Z M678 821 L679 825 C687 864 657 896 613 896 C569 896 531 869 522 825 L521 821 C511 779 541 749 587 749 C632 749 669 776 678 821 L678 821 Z " />
<glyph glyph-name="Igrave" unicode="&#xcc;" horiz-adv-x="336" d="M336 606 C353 669 325 706 274 706 C234 706 201 678 188 629 L44 94 C27 31 55 -6 106 -6 C146 -6 179 22 192 71 L336 606 Z M218 782 C239 755 252 749 281 749 C311 749 329 762 329 782 C329 790 328 794 325 803 L295 885 C286 910 270 922 242 922 C205 922 158 897 158 872 C158 860 164 851 172 840 L218 782 Z " />
<glyph glyph-name="Iacute" unicode="&#xcd;" horiz-adv-x="336" d="M336 606 C353 669 325 706 274 706 C234 706 201 678 188 629 L44 94 C27 31 55 -6 106 -6 C146 -6 179 22 192 71 L336 606 Z M478 840 C494 852 500 862 500 873 C500 899 452 922 415 922 C390 922 375 907 358 889 L282 805 C273 795 269 787 269 777 C269 759 286 749 311 749 C342 749 369 759 400 782 L478 840 Z " />
<glyph glyph-name="Icircumflex" unicode="&#xce;" horiz-adv-x="336" d="M336 606 C353 669 325 706 274 706 C234 706 201 678 188 629 L44 94 C27 31 55 -6 106 -6 C146 -6 179 22 192 71 L336 606 Z M423 879 C411 903 388 917 353 917 L309 917 C274 917 250 902 231 883 L149 804 C138 793 132 783 132 772 C132 757 145 749 164 749 C198 749 224 758 259 782 L316 821 L352 782 C381 750 406 749 440 749 C459 749 474 757 474 773 C474 782 466 796 461 805 L423 879 Z " />
<glyph glyph-name="Idieresis" unicode="&#xcf;" horiz-adv-x="336" d="M336 606 C353 669 325 706 274 706 C234 706 201 678 188 629 L44 94 C27 31 55 -6 106 -6 C146 -6 179 22 192 71 L336 606 Z M288 821 L289 825 C297 864 267 896 223 896 C179 896 141 869 132 825 L131 821 C121 779 151 749 197 749 C242 749 279 776 288 821 L288 821 Z M502 821 L503 825 C511 864 481 896 437 896 C393 896 355 869 346 825 L345 821 C335 779 365 749 411 749 C456 749 493 776 502 821 L502 821 Z " />
<glyph glyph-name="Eth" unicode="&#xd0;" horiz-adv-x="797" d="M285 700 C245 700 212 672 199 623 L145 420 L105 420 C67 420 37 390 37 352 C37 314 67 284 105 284 L108 284 L59 100 C42 37 70 0 121 0 L292 0 C454 0 575 45 659 129 C734 204 774 300 774 405 C774 490 750 558 698 610 C645 663 560 700 424 700 L285 700 Z M223 139 L262 284 L360 284 C398 284 428 314 428 352 C428 390 398 420 360 420 L299 420 L337 561 L412 561 C491 561 542 541 573 510 C599 484 614 447 614 399 C614 331 589 269 544 224 C488 168 403 139 310 139 L223 139 Z " />
<glyph glyph-name="Ntilde" unicode="&#xd1;" horiz-adv-x="786" d="M546 255 L368 643 C351 681 323 704 278 704 L271 704 C225 704 193 676 180 627 L37 94 C20 31 47 -6 98 -6 C138 -6 170 22 183 71 L287 459 L474 54 C492 16 513 -4 562 -4 L565 -4 C611 -4 636 23 648 68 L793 606 C810 669 783 706 732 706 C692 706 660 678 647 629 L546 255 Z M375 752 C397 752 408 761 420 775 C438 797 454 807 474 807 C490 807 501 800 527 781 C551 764 571 752 606 752 C662 752 710 795 742 852 C747 861 750 872 750 881 C750 904 732 921 708 921 C686 921 675 912 663 898 C645 876 629 866 609 866 C593 866 582 873 556 892 C533 909 512 921 477 921 C421 921 373 878 341 821 C336 812 333 801 333 792 C333 769 351 752 375 752 L375 752 Z " />
<glyph glyph-name="Ograve" unicode="&#xd2;" horiz-adv-x="832" d="M387 -12 C638 -12 808 193 808 402 C808 578 681 712 488 712 C237 712 67 507 67 298 C67 122 194 -12 387 -12 L387 -12 Z M405 130 C290 130 227 204 227 308 C227 429 323 570 470 570 C585 570 648 496 648 392 C648 271 552 130 405 130 L405 130 Z M461 792 C482 765 495 759 524 759 C554 759 572 772 572 792 C572 800 571 804 568 813 L538 895 C529 920 513 932 485 932 C448 932 401 907 401 882 C401 870 407 861 415 850 L461 792 Z " />
<glyph glyph-name="Oacute" unicode="&#xd3;" horiz-adv-x="832" d="M387 -12 C638 -12 808 193 808 402 C808 578 681 712 488 712 C237 712 67 507 67 298 C67 122 194 -12 387 -12 L387 -12 Z M405 130 C290 130 227 204 227 308 C227 429 323 570 470 570 C585 570 648 496 648 392 C648 271 552 130 405 130 L405 130 Z M721 850 C737 862 743 872 743 883 C743 909 695 932 658 932 C633 932 618 917 601 899 L525 815 C516 805 512 797 512 787 C512 769 529 759 554 759 C585 759 612 769 643 792 L721 850 Z " />
<glyph glyph-name="Ocircumflex" unicode="&#xd4;" horiz-adv-x="832" d="M387 -12 C638 -12 808 193 808 402 C808 578 681 712 488 712 C237 712 67 507 67 298 C67 122 194 -12 387 -12 L387 -12 Z M405 130 C290 130 227 204 227 308 C227 429 323 570 470 570 C585 570 648 496 648 392 C648 271 552 130 405 130 L405 130 Z M666 889 C654 913 631 927 596 927 L552 927 C517 927 493 912 474 893 L392 814 C381 803 375 793 375 782 C375 767 388 759 407 759 C441 759 467 768 502 792 L559 831 L595 792 C624 760 649 759 683 759 C702 759 717 767 717 783 C717 792 709 806 704 815 L666 889 Z " />
<glyph glyph-name="Otilde" unicode="&#xd5;" horiz-adv-x="832" d="M387 -12 C638 -12 808 193 808 402 C808 578 681 712 488 712 C237 712 67 507 67 298 C67 122 194 -12 387 -12 L387 -12 Z M405 130 C290 130 227 204 227 308 C227 429 323 570 470 570 C585 570 648 496 648 392 C648 271 552 130 405 130 L405 130 Z M393 762 C415 762 426 771 438 785 C456 807 472 817 492 817 C508 817 519 810 545 791 C569 774 589 762 624 762 C680 762 728 805 760 862 C765 871 768 882 768 891 C768 914 750 931 726 931 C704 931 693 922 681 908 C663 886 647 876 627 876 C611 876 600 883 574 902 C551 919 530 931 495 931 C439 931 391 888 359 831 C354 822 351 811 351 802 C351 779 369 762 393 762 L393 762 Z " />
<glyph glyph-name="Odieresis" unicode="&#xd6;" horiz-adv-x="832" d="M387 -12 C638 -12 808 193 808 402 C808 578 681 712 488 712 C237 712 67 507 67 298 C67 122 194 -12 387 -12 L387 -12 Z M405 130 C290 130 227 204 227 308 C227 429 323 570 470 570 C585 570 648 496 648 392 C648 271 552 130 405 130 L405 130 Z M530 831 L531 835 C539 874 509 906 465 906 C421 906 383 879 374 835 L373 831 C363 789 393 759 439 759 C484 759 521 786 530 831 L530 831 Z M744 831 L745 835 C753 874 723 906 679 906 C635 906 597 879 588 835 L587 831 C577 789 607 759 653 759 C698 759 735 786 744 831 L744 831 Z " />
<glyph glyph-name="multiply" unicode="&#xd7;" horiz-adv-x="640" d="M438 343 L589 460 C605 473 616 489 616 513 C616 549 587 578 551 578 C536 578 522 574 509 563 L361 444 L289 548 C276 567 255 579 231 579 C192 579 161 548 161 509 C161 492 168 476 177 464 L254 361 L103 244 C87 231 76 215 76 191 C76 155 105 126 141 126 C156 126 170 130 183 141 L331 260 L403 156 C416 137 437 125 461 125 C500 125 531 156 531 195 C531 212 524 228 515 240 L438 343 Z " />
<glyph glyph-name="Oslash" unicode="&#xd8;" horiz-adv-x="832" d="M221 308 C221 429 323 577 470 577 C522 577 564 561 594 535 L234 231 C225 254 221 280 221 308 L221 308 Z M405 123 C356 123 317 135 288 157 L644 457 C651 437 654 415 654 392 C654 271 552 123 405 123 L405 123 Z M173 60 C228 15 301 -12 387 -12 C638 -12 808 193 808 402 C808 460 794 513 769 558 L838 618 C855 633 869 648 869 668 C869 692 853 711 824 711 C805 711 789 700 777 690 L709 633 C654 682 578 712 488 712 C237 712 67 507 67 298 C67 236 82 179 111 132 L53 82 C36 67 22 52 22 32 C22 8 38 -11 67 -11 C86 -11 102 0 114 10 L173 60 Z " />
<glyph glyph-name="Ugrave" unicode="&#xd9;" horiz-adv-x="764" d="M776 606 C793 669 765 706 714 706 C674 706 641 678 628 629 L541 305 C526 248 503 205 473 175 C443 146 405 131 359 131 C280 131 237 178 237 247 C237 276 242 299 248 323 L324 606 C341 669 313 706 262 706 C222 706 189 678 176 629 L98 337 C88 298 81 260 81 225 C81 76 181 -11 343 -11 C447 -11 524 18 581 75 C630 124 665 193 689 283 L776 606 Z M426 782 C447 755 460 749 489 749 C519 749 537 762 537 782 C537 790 536 794 533 803 L503 885 C494 910 478 922 450 922 C413 922 366 897 366 872 C366 860 372 851 380 840 L426 782 Z " />
<glyph glyph-name="Uacute" unicode="&#xda;" horiz-adv-x="764" d="M776 606 C793 669 765 706 714 706 C674 706 641 678 628 629 L541 305 C526 248 503 205 473 175 C443 146 405 131 359 131 C280 131 237 178 237 247 C237 276 242 299 248 323 L324 606 C341 669 313 706 262 706 C222 706 189 678 176 629 L98 337 C88 298 81 260 81 225 C81 76 181 -11 343 -11 C447 -11 524 18 581 75 C630 124 665 193 689 283 L776 606 Z M686 840 C702 852 708 862 708 873 C708 899 660 922 623 922 C598 922 583 907 566 889 L490 805 C481 795 477 787 477 777 C477 759 494 749 519 749 C550 749 577 759 608 782 L686 840 Z " />
<glyph glyph-name="Ucircumflex" unicode="&#xdb;" horiz-adv-x="764" d="M776 606 C793 669 765 706 714 706 C674 706 641 678 628 629 L541 305 C526 248 503 205 473 175 C443 146 405 131 359 131 C280 131 237 178 237 247 C237 276 242 299 248 323 L324 606 C341 669 313 706 262 706 C222 706 189 678 176 629 L98 337 C88 298 81 260 81 225 C81 76 181 -11 343 -11 C447 -11 524 18 581 75 C630 124 665 193 689 283 L776 606 Z M631 879 C619 903 596 917 561 917 L517 917 C482 917 458 902 439 883 L357 804 C346 793 340 783 340 772 C340 757 353 749 372 749 C406 749 432 758 467 782 L524 821 L560 782 C589 750 614 749 648 749 C667 749 682 757 682 773 C682 782 674 796 669 805 L631 879 Z " />
<glyph glyph-name="Udieresis" unicode="&#xdc;" horiz-adv-x="764" d="M776 606 C793 669 765 706 714 706 C674 706 641 678 628 629 L541 305 C526 248 503 205 473 175 C443 146 405 131 359 131 C280 131 237 178 237 247 C237 276 242 299 248 323 L324 606 C341 669 313 706 262 706 C222 706 189 678 176 629 L98 337 C88 298 81 260 81 225 C81 76 181 -11 343 -11 C447 -11 524 18 581 75 C630 124 665 193 689 283 L776 606 Z M495 821 L496 825 C504 864 474 896 430 896 C386 896 348 869 339 825 L338 821 C328 779 358 749 404 749 C449 749 486 776 495 821 L495 821 Z M709 821 L710 825 C718 864 688 896 644 896 C600 896 562 869 553 825 L552 821 C542 779 572 749 618 749 C663 749 700 776 709 821 L709 821 Z " />
<glyph glyph-name="Yacute" unicode="&#xdd;" horiz-adv-x="650" d="M392 256 L702 583 C715 597 728 620 728 644 C728 683 704 707 664 707 C632 707 607 691 581 663 L347 406 L258 646 C244 685 222 706 183 706 C134 706 100 674 100 633 C100 611 108 592 115 575 L241 270 L194 94 C177 31 205 -6 256 -6 C296 -6 329 22 342 71 L392 256 Z M621 840 C637 852 643 862 643 873 C643 899 595 922 558 922 C533 922 518 907 501 889 L425 805 C416 795 412 787 412 777 C412 759 429 749 454 749 C485 749 512 759 543 782 L621 840 Z " />
<glyph glyph-name="Thorn" unicode="&#xde;" horiz-adv-x="689" d="M232 245 L289 459 L389 459 C435 459 464 449 485 428 C500 413 508 393 508 370 C508 291 439 245 337 245 L232 245 Z M395 598 L327 598 L329 606 C346 669 318 706 267 706 C227 706 194 678 181 629 L37 94 C20 31 48 -6 99 -6 C139 -6 172 22 185 71 L196 110 L329 110 C520 110 669 209 669 383 C669 444 651 491 615 527 C564 578 495 598 395 598 L395 598 Z " />
<glyph glyph-name="germandbls" unicode="&#xdf;" horiz-adv-x="632" d="M369 415 C333 403 318 382 318 352 C318 318 338 306 367 294 C400 280 424 259 424 222 C424 171 394 124 290 115 C257 112 237 88 237 58 C237 22 257 -3 304 -3 C463 -3 567 95 567 218 C567 292 519 333 463 357 C557 387 617 451 617 548 C617 655 538 737 400 737 C326 737 262 711 219 668 C179 628 152 577 132 503 L22 94 C5 31 32 -6 83 -6 C123 -6 155 22 168 71 L280 495 C299 568 338 609 395 609 C438 609 474 583 474 533 C474 472 429 435 369 415 L369 415 Z " />
<glyph glyph-name="agrave" unicode="&#xe0;" horiz-adv-x="588" d="M388 -6 C428 -6 460 22 473 71 L533 296 C540 323 545 349 545 377 C545 482 472 542 328 542 C269 542 214 533 164 517 C138 509 118 488 118 458 C118 423 144 397 178 397 C185 397 194 399 203 401 C229 408 265 413 296 413 C371 413 397 387 397 350 C397 334 394 322 391 310 L389 303 C344 317 296 327 238 327 C108 327 7 258 7 134 C7 50 70 -10 163 -10 C226 -10 280 16 323 62 C321 32 329 -6 388 -6 L388 -6 Z M228 94 C185 94 158 118 158 151 C158 203 204 235 267 235 C304 235 341 226 367 216 L363 202 C346 144 291 94 228 94 L228 94 Z M294 622 C315 595 328 589 357 589 C387 589 405 602 405 622 C405 630 404 634 401 643 L371 725 C362 750 346 762 318 762 C281 762 234 737 234 712 C234 700 240 691 248 680 L294 622 Z " />
<glyph glyph-name="aacute" unicode="&#xe1;" horiz-adv-x="588" d="M388 -6 C428 -6 460 22 473 71 L533 296 C540 323 545 349 545 377 C545 482 472 542 328 542 C269 542 214 533 164 517 C138 509 118 488 118 458 C118 423 144 397 178 397 C185 397 194 399 203 401 C229 408 265 413 296 413 C371 413 397 387 397 350 C397 334 394 322 391 310 L389 303 C344 317 296 327 238 327 C108 327 7 258 7 134 C7 50 70 -10 163 -10 C226 -10 280 16 323 62 C321 32 329 -6 388 -6 L388 -6 Z M554 680 C570 692 576 702 576 713 C576 739 528 762 491 762 C466 762 451 747 434 729 L358 645 C349 635 345 627 345 617 C345 599 362 589 387 589 C418 589 445 599 476 622 L554 680 Z M228 94 C185 94 158 118 158 151 C158 203 204 235 267 235 C304 235 341 226 367 216 L363 202 C346 144 291 94 228 94 L228 94 Z " />
<glyph glyph-name="acircumflex" unicode="&#xe2;" horiz-adv-x="588" d="M388 -6 C428 -6 460 22 473 71 L533 296 C540 323 545 349 545 377 C545 482 472 542 328 542 C269 542 214 533 164 517 C138 509 118 488 118 458 C118 423 144 397 178 397 C185 397 194 399 203 401 C229 408 265 413 296 413 C371 413 397 387 397 350 C397 334 394 322 391 310 L389 303 C344 317 296 327 238 327 C108 327 7 258 7 134 C7 50 70 -10 163 -10 C226 -10 280 16 323 62 C321 32 329 -6 388 -6 L388 -6 Z M499 719 C487 743 464 757 429 757 L385 757 C350 757 326 742 307 723 L225 644 C214 633 208 623 208 612 C208 597 221 589 240 589 C274 589 300 598 335 622 L392 661 L428 622 C457 590 482 589 516 589 C535 589 550 597 550 613 C550 622 542 636 537 645 L499 719 Z M228 94 C185 94 158 118 158 151 C158 203 204 235 267 235 C304 235 341 226 367 216 L363 202 C346 144 291 94 228 94 L228 94 Z " />
<glyph glyph-name="atilde" unicode="&#xe3;" horiz-adv-x="588" d="M388 -6 C428 -6 460 22 473 71 L533 296 C540 323 545 349 545 377 C545 482 472 542 328 542 C269 542 214 533 164 517 C138 509 118 488 118 458 C118 423 144 397 178 397 C185 397 194 399 203 401 C229 408 265 413 296 413 C371 413 397 387 397 350 C397 334 394 322 391 310 L389 303 C344 317 296 327 238 327 C108 327 7 258 7 134 C7 50 70 -10 163 -10 C226 -10 280 16 323 62 C321 32 329 -6 388 -6 L388 -6 Z M226 592 C248 592 259 601 271 615 C289 637 305 647 325 647 C341 647 352 640 378 621 C402 604 422 592 457 592 C513 592 561 635 593 692 C598 701 601 712 601 721 C601 744 583 761 559 761 C537 761 526 752 514 738 C496 716 480 706 460 706 C444 706 433 713 407 732 C384 749 363 761 328 761 C272 761 224 718 192 661 C187 652 184 641 184 632 C184 609 202 592 226 592 L226 592 Z M228 94 C185 94 158 118 158 151 C158 203 204 235 267 235 C304 235 341 226 367 216 L363 202 C346 144 291 94 228 94 L228 94 Z " />
<glyph glyph-name="adieresis" unicode="&#xe4;" horiz-adv-x="588" d="M388 -6 C428 -6 460 22 473 71 L533 296 C540 323 545 349 545 377 C545 482 472 542 328 542 C269 542 214 533 164 517 C138 509 118 488 118 458 C118 423 144 397 178 397 C185 397 194 399 203 401 C229 408 265 413 296 413 C371 413 397 387 397 350 C397 334 394 322 391 310 L389 303 C344 317 296 327 238 327 C108 327 7 258 7 134 C7 50 70 -10 163 -10 C226 -10 280 16 323 62 C321 32 329 -6 388 -6 L388 -6 Z M228 94 C185 94 158 118 158 151 C158 203 204 235 267 235 C304 235 341 226 367 216 L363 202 C346 144 291 94 228 94 L228 94 Z M363 661 L364 665 C372 704 342 736 298 736 C254 736 216 709 207 665 L206 661 C196 619 226 589 272 589 C317 589 354 616 363 661 L363 661 Z M577 661 L578 665 C586 704 556 736 512 736 C468 736 430 709 421 665 L420 661 C410 619 440 589 486 589 C531 589 568 616 577 661 L577 661 Z " />
<glyph glyph-name="aring" unicode="&#xe5;" horiz-adv-x="588" d="M388 -6 C428 -6 460 22 473 71 L533 296 C540 323 545 349 545 377 C545 482 472 542 328 542 C269 542 214 533 164 517 C138 509 118 488 118 458 C118 423 144 397 178 397 C185 397 194 399 203 401 C229 408 265 413 296 413 C371 413 397 387 397 350 C397 334 394 322 391 310 L389 303 C344 317 296 327 238 327 C108 327 7 258 7 134 C7 50 70 -10 163 -10 C226 -10 280 16 323 62 C321 32 329 -6 388 -6 L388 -6 Z M394 593 C469 593 528 655 528 727 C528 785 486 831 418 831 C343 831 284 769 284 697 C284 639 326 593 394 593 L394 593 Z M228 94 C185 94 158 118 158 151 C158 203 204 235 267 235 C304 235 341 226 367 216 L363 202 C346 144 291 94 228 94 L228 94 Z M396 648 C366 648 348 670 348 698 C348 737 375 776 416 776 C446 776 464 754 464 726 C464 687 437 648 396 648 L396 648 Z " />
<glyph glyph-name="ae" unicode="&#xe6;" horiz-adv-x="940" d="M911 337 C911 456 831 546 697 546 C620 546 553 512 504 463 C475 514 415 542 328 542 C269 542 214 533 164 517 C138 509 118 488 118 458 C118 423 144 397 178 397 C185 397 194 399 203 401 C229 408 265 413 296 413 C371 413 397 387 397 350 C397 334 394 322 391 310 L389 303 C344 317 296 327 238 327 C108 327 7 258 7 134 C7 48 68 -10 178 -10 C275 -10 356 27 418 91 C458 22 531 -12 622 -12 C689 -12 749 5 796 36 C813 47 825 66 825 87 C825 121 800 145 768 145 C752 145 735 138 722 131 C702 120 672 110 639 110 C559 110 522 152 517 215 L832 215 C872 215 895 238 905 282 C909 300 911 320 911 337 L911 337 Z M267 235 C307 235 343 227 386 208 C387 192 389 176 392 162 C348 118 285 94 238 94 C185 94 158 118 158 151 C158 203 204 235 267 235 L267 235 Z M530 310 C555 378 611 424 680 424 C742 424 768 389 768 345 C768 332 766 320 763 310 L530 310 Z " />
<glyph glyph-name="ccedilla" unicode="&#xe7;" horiz-adv-x="560" d="M472 51 C486 63 495 79 495 101 C495 136 469 164 434 164 C417 164 401 155 389 147 C357 125 328 117 297 117 C238 117 192 161 192 230 C192 329 266 416 346 416 C390 416 421 399 444 371 C457 356 472 349 494 349 C535 349 567 381 567 420 C567 446 554 465 539 479 C509 508 457 546 358 546 C187 546 42 405 42 230 C42 119 101 38 194 4 L109 -84 C98 -96 94 -105 94 -116 C94 -142 134 -167 162 -167 C185 -167 201 -155 214 -135 L296 -12 C366 -11 420 9 472 51 L472 51 Z " />
<glyph glyph-name="egrave" unicode="&#xe8;" horiz-adv-x="607" d="M306 110 C226 110 189 152 184 215 L499 215 C539 215 562 238 572 282 C576 300 578 320 578 337 C578 456 498 546 359 546 C167 546 41 381 41 226 C41 78 135 -12 289 -12 C356 -12 416 5 463 36 C480 47 492 66 492 87 C492 121 467 145 435 145 C419 145 402 138 389 131 C369 120 339 110 306 110 L306 110 Z M197 310 C222 378 278 424 347 424 C409 424 435 389 435 345 C435 332 433 320 430 310 L197 310 Z M307 622 C328 595 341 589 370 589 C400 589 418 602 418 622 C418 630 417 634 414 643 L384 725 C375 750 359 762 331 762 C294 762 247 737 247 712 C247 700 253 691 261 680 L307 622 Z " />
<glyph glyph-name="eacute" unicode="&#xe9;" horiz-adv-x="607" d="M306 110 C226 110 189 152 184 215 L499 215 C539 215 562 238 572 282 C576 300 578 320 578 337 C578 456 498 546 359 546 C167 546 41 381 41 226 C41 78 135 -12 289 -12 C356 -12 416 5 463 36 C480 47 492 66 492 87 C492 121 467 145 435 145 C419 145 402 138 389 131 C369 120 339 110 306 110 L306 110 Z M567 680 C583 692 589 702 589 713 C589 739 541 762 504 762 C479 762 464 747 447 729 L371 645 C362 635 358 627 358 617 C358 599 375 589 400 589 C431 589 458 599 489 622 L567 680 Z M197 310 C222 378 278 424 347 424 C409 424 435 389 435 345 C435 332 433 320 430 310 L197 310 Z " />
<glyph glyph-name="ecircumflex" unicode="&#xea;" horiz-adv-x="607" d="M306 110 C226 110 189 152 184 215 L499 215 C539 215 562 238 572 282 C576 300 578 320 578 337 C578 456 498 546 359 546 C167 546 41 381 41 226 C41 78 135 -12 289 -12 C356 -12 416 5 463 36 C480 47 492 66 492 87 C492 121 467 145 435 145 C419 145 402 138 389 131 C369 120 339 110 306 110 L306 110 Z M513 719 C501 743 478 757 443 757 L399 757 C364 757 340 742 321 723 L239 644 C228 633 222 623 222 612 C222 597 235 589 254 589 C288 589 314 598 349 622 L406 661 L442 622 C471 590 496 589 530 589 C549 589 564 597 564 613 C564 622 556 636 551 645 L513 719 Z M197 310 C222 378 278 424 347 424 C409 424 435 389 435 345 C435 332 433 320 430 310 L197 310 Z " />
<glyph glyph-name="edieresis" unicode="&#xeb;" horiz-adv-x="607" d="M306 110 C226 110 189 152 184 215 L499 215 C539 215 562 238 572 282 C576 300 578 320 578 337 C578 456 498 546 359 546 C167 546 41 381 41 226 C41 78 135 -12 289 -12 C356 -12 416 5 463 36 C480 47 492 66 492 87 C492 121 467 145 435 145 C419 145 402 138 389 131 C369 120 339 110 306 110 L306 110 Z M197 310 C222 378 278 424 347 424 C409 424 435 389 435 345 C435 332 433 320 430 310 L197 310 Z M377 661 L378 665 C386 704 356 736 312 736 C268 736 230 709 221 665 L220 661 C210 619 240 589 286 589 C331 589 368 616 377 661 L377 661 Z M591 661 L592 665 C600 704 570 736 526 736 C482 736 444 709 435 665 L434 661 C424 619 454 589 500 589 C545 589 582 616 591 661 L591 661 Z " />
<glyph glyph-name="igrave" unicode="&#xec;" horiz-adv-x="302" d="M274 442 C291 505 264 542 213 542 C173 542 141 514 128 465 L28 94 C11 31 38 -6 89 -6 C129 -6 161 22 174 71 L274 442 Z M158 622 C179 595 192 589 221 589 C251 589 269 602 269 622 C269 630 268 634 265 643 L235 725 C226 750 210 762 182 762 C145 762 98 737 98 712 C98 700 104 691 112 680 L158 622 Z " />
<glyph glyph-name="iacute" unicode="&#xed;" horiz-adv-x="302" d="M274 442 C291 505 264 542 213 542 C173 542 141 514 128 465 L28 94 C11 31 38 -6 89 -6 C129 -6 161 22 174 71 L274 442 Z M418 680 C434 692 440 702 440 713 C440 739 392 762 355 762 C330 762 315 747 298 729 L222 645 C213 635 209 627 209 617 C209 599 226 589 251 589 C282 589 309 599 340 622 L418 680 Z " />
<glyph glyph-name="icircumflex" unicode="&#xee;" horiz-adv-x="302" d="M274 442 C291 505 264 542 213 542 C173 542 141 514 128 465 L28 94 C11 31 38 -6 89 -6 C129 -6 161 22 174 71 L274 442 Z M364 719 C352 743 329 757 294 757 L250 757 C215 757 191 742 172 723 L90 644 C79 633 73 623 73 612 C73 597 86 589 105 589 C139 589 165 598 200 622 L257 661 L293 622 C322 590 347 589 381 589 C400 589 415 597 415 613 C415 622 407 636 402 645 L364 719 Z " />
<glyph glyph-name="idieresis" unicode="&#xef;" horiz-adv-x="302" d="M274 442 C291 505 264 542 213 542 C173 542 141 514 128 465 L28 94 C11 31 38 -6 89 -6 C129 -6 161 22 174 71 L274 442 Z M229 661 L230 665 C238 704 208 736 164 736 C120 736 82 709 73 665 L72 661 C62 619 92 589 138 589 C183 589 220 616 229 661 L229 661 Z M443 661 L444 665 C452 704 422 736 378 736 C334 736 296 709 287 665 L286 661 C276 619 306 589 352 589 C397 589 434 616 443 661 L443 661 Z " />
<glyph glyph-name="eth" unicode="&#xf0;" horiz-adv-x="638" d="M254 613 C232 605 219 589 219 570 C219 546 236 531 258 531 C266 531 276 533 281 535 L384 572 L451 427 C410 465 365 486 300 486 C157 486 38 369 38 223 C38 82 139 -12 286 -12 C480 -12 593 140 593 328 C593 402 578 467 549 533 L511 619 L604 653 C626 661 639 677 639 696 C639 720 622 735 600 735 C592 735 582 733 577 731 L478 695 L474 704 C465 724 444 739 412 739 C374 739 346 712 346 674 C346 663 347 655 349 648 L254 613 Z M295 116 C231 116 183 159 183 232 C183 310 244 378 326 378 C394 378 439 332 439 264 C439 190 381 116 295 116 L295 116 Z " />
<glyph glyph-name="ntilde" unicode="&#xf1;" horiz-adv-x="619" d="M209 542 C166 542 134 514 121 465 L22 94 C5 31 32 -6 83 -6 C123 -6 155 22 168 71 L230 301 C247 365 286 408 346 408 C393 408 420 385 420 342 C420 329 417 309 413 294 L359 94 C342 31 369 -6 420 -6 C460 -6 492 22 505 71 L563 288 C572 322 581 360 581 390 C581 487 519 546 423 546 C363 546 315 514 277 480 C277 514 253 542 209 542 L209 542 Z M241 592 C263 592 274 601 286 615 C304 637 320 647 340 647 C356 647 367 640 393 621 C417 604 437 592 472 592 C528 592 576 635 608 692 C613 701 616 712 616 721 C616 744 598 761 574 761 C552 761 541 752 529 738 C511 716 495 706 475 706 C459 706 448 713 422 732 C399 749 378 761 343 761 C287 761 239 718 207 661 C202 652 199 641 199 632 C199 609 217 592 241 592 L241 592 Z " />
<glyph glyph-name="ograve" unicode="&#xf2;" horiz-adv-x="652" d="M300 -12 C472 -12 610 138 610 298 C610 441 511 546 352 546 C180 546 42 396 42 236 C42 93 141 -12 300 -12 L300 -12 Z M307 118 C238 118 191 162 191 240 C191 316 252 416 345 416 C414 416 461 372 461 294 C461 218 400 118 307 118 L307 118 Z M329 622 C350 595 363 589 392 589 C422 589 440 602 440 622 C440 630 439 634 436 643 L406 725 C397 750 381 762 353 762 C316 762 269 737 269 712 C269 700 275 691 283 680 L329 622 Z " />
<glyph glyph-name="oacute" unicode="&#xf3;" horiz-adv-x="652" d="M300 -12 C472 -12 610 138 610 298 C610 441 511 546 352 546 C180 546 42 396 42 236 C42 93 141 -12 300 -12 L300 -12 Z M307 118 C238 118 191 162 191 240 C191 316 252 416 345 416 C414 416 461 372 461 294 C461 218 400 118 307 118 L307 118 Z M589 680 C605 692 611 702 611 713 C611 739 563 762 526 762 C501 762 486 747 469 729 L393 645 C384 635 380 627 380 617 C380 599 397 589 422 589 C453 589 480 599 511 622 L589 680 Z " />
<glyph glyph-name="ocircumflex" unicode="&#xf4;" horiz-adv-x="652" d="M300 -12 C472 -12 610 138 610 298 C610 441 511 546 352 546 C180 546 42 396 42 236 C42 93 141 -12 300 -12 L300 -12 Z M307 118 C238 118 191 162 191 240 C191 316 252 416 345 416 C414 416 461 372 461 294 C461 218 400 118 307 118 L307 118 Z M535 719 C523 743 500 757 465 757 L421 757 C386 757 362 742 343 723 L261 644 C250 633 244 623 244 612 C244 597 257 589 276 589 C310 589 336 598 371 622 L428 661 L464 622 C493 590 518 589 552 589 C571 589 586 597 586 613 C586 622 578 636 573 645 L535 719 Z " />
<glyph glyph-name="otilde" unicode="&#xf5;" horiz-adv-x="652" d="M300 -12 C472 -12 610 138 610 298 C610 441 511 546 352 546 C180 546 42 396 42 236 C42 93 141 -12 300 -12 L300 -12 Z M307 118 C238 118 191 162 191 240 C191 316 252 416 345 416 C414 416 461 372 461 294 C461 218 400 118 307 118 L307 118 Z M262 592 C284 592 295 601 307 615 C325 637 341 647 361 647 C377 647 388 640 414 621 C438 604 458 592 493 592 C549 592 597 635 629 692 C634 701 637 712 637 721 C637 744 619 761 595 761 C573 761 562 752 550 738 C532 716 516 706 496 706 C480 706 469 713 443 732 C420 749 399 761 364 761 C308 761 260 718 228 661 C223 652 220 641 220 632 C220 609 238 592 262 592 L262 592 Z " />
<glyph glyph-name="odieresis" unicode="&#xf6;" horiz-adv-x="652" d="M300 -12 C472 -12 610 138 610 298 C610 441 511 546 352 546 C180 546 42 396 42 236 C42 93 141 -12 300 -12 L300 -12 Z M307 118 C238 118 191 162 191 240 C191 316 252 416 345 416 C414 416 461 372 461 294 C461 218 400 118 307 118 L307 118 Z M399 661 L400 665 C408 704 378 736 334 736 C290 736 252 709 243 665 L242 661 C232 619 262 589 308 589 C353 589 390 616 399 661 L399 661 Z M613 661 L614 665 C622 704 592 736 548 736 C504 736 466 709 457 665 L456 661 C446 619 476 589 522 589 C567 589 604 616 613 661 L613 661 Z " />
<glyph glyph-name="divide" unicode="&#xf7;" horiz-adv-x="640" d="M147 288 C112 288 83 317 83 352 C83 387 112 416 147 416 L535 416 C570 416 599 387 599 352 C599 317 570 288 535 288 L147 288 Z M368 148 C368 187 337 215 296 215 C246 215 202 174 202 126 C202 87 233 59 274 59 C324 59 368 100 368 148 L368 148 Z M482 578 C482 617 451 645 410 645 C360 645 316 604 316 556 C316 517 347 489 388 489 C438 489 482 530 482 578 L482 578 Z " />
<glyph glyph-name="oslash" unicode="&#xf8;" horiz-adv-x="652" d="M307 113 C280 113 259 118 241 127 L461 338 C464 324 466 310 466 294 C466 212 400 113 307 113 L307 113 Z M186 240 C186 320 252 421 345 421 C368 421 389 417 405 409 L189 202 C187 214 186 226 186 240 L186 240 Z M142 32 C184 4 237 -12 300 -12 C472 -12 610 138 610 298 C610 352 596 400 570 440 L593 461 C605 472 617 486 617 506 C617 529 599 547 572 547 C553 547 536 536 525 526 L503 505 C463 531 412 546 352 546 C180 546 42 396 42 236 C42 185 54 138 78 100 L51 75 C39 64 27 50 27 30 C27 7 45 -11 72 -11 C91 -11 108 0 119 10 L142 32 Z " />
<glyph glyph-name="ugrave" unicode="&#xf9;" horiz-adv-x="622" d="M413 -6 C456 -6 488 22 501 71 L600 442 C617 505 590 542 539 542 C499 542 467 514 454 465 L392 235 C375 171 336 128 276 128 C229 128 202 151 202 194 C202 207 205 227 209 242 L263 442 C280 505 253 542 202 542 C162 542 130 514 117 465 L59 248 C50 214 41 176 41 146 C41 49 103 -10 199 -10 C259 -10 307 22 345 56 C345 22 369 -6 413 -6 L413 -6 Z M315 622 C336 595 349 589 378 589 C408 589 426 602 426 622 C426 630 425 634 422 643 L392 725 C383 750 367 762 339 762 C302 762 255 737 255 712 C255 700 261 691 269 680 L315 622 Z " />
<glyph glyph-name="uacute" unicode="&#xfa;" horiz-adv-x="622" d="M413 -6 C456 -6 488 22 501 71 L600 442 C617 505 590 542 539 542 C499 542 467 514 454 465 L392 235 C375 171 336 128 276 128 C229 128 202 151 202 194 C202 207 205 227 209 242 L263 442 C280 505 253 542 202 542 C162 542 130 514 117 465 L59 248 C50 214 41 176 41 146 C41 49 103 -10 199 -10 C259 -10 307 22 345 56 C345 22 369 -6 413 -6 L413 -6 Z M575 680 C591 692 597 702 597 713 C597 739 549 762 512 762 C487 762 472 747 455 729 L379 645 C370 635 366 627 366 617 C366 599 383 589 408 589 C439 589 466 599 497 622 L575 680 Z " />
<glyph glyph-name="ucircumflex" unicode="&#xfb;" horiz-adv-x="622" d="M413 -6 C456 -6 488 22 501 71 L600 442 C617 505 590 542 539 542 C499 542 467 514 454 465 L392 235 C375 171 336 128 276 128 C229 128 202 151 202 194 C202 207 205 227 209 242 L263 442 C280 505 253 542 202 542 C162 542 130 514 117 465 L59 248 C50 214 41 176 41 146 C41 49 103 -10 199 -10 C259 -10 307 22 345 56 C345 22 369 -6 413 -6 L413 -6 Z M520 719 C508 743 485 757 450 757 L406 757 C371 757 347 742 328 723 L246 644 C235 633 229 623 229 612 C229 597 242 589 261 589 C295 589 321 598 356 622 L413 661 L449 622 C478 590 503 589 537 589 C556 589 571 597 571 613 C571 622 563 636 558 645 L520 719 Z " />
<glyph glyph-name="udieresis" unicode="&#xfc;" horiz-adv-x="622" d="M413 -6 C456 -6 488 22 501 71 L600 442 C617 505 590 542 539 542 C499 542 467 514 454 465 L392 235 C375 171 336 128 276 128 C229 128 202 151 202 194 C202 207 205 227 209 242 L263 442 C280 505 253 542 202 542 C162 542 130 514 117 465 L59 248 C50 214 41 176 41 146 C41 49 103 -10 199 -10 C259 -10 307 22 345 56 C345 22 369 -6 413 -6 L413 -6 Z M598 661 L599 665 C607 704 577 736 533 736 C489 736 451 709 442 665 L441 661 C431 619 461 589 507 589 C552 589 589 616 598 661 L598 661 Z M384 661 L385 665 C393 704 363 736 319 736 C275 736 237 709 228 665 L227 661 C217 619 247 589 293 589 C338 589 375 616 384 661 L384 661 Z " />
<glyph glyph-name="yacute" unicode="&#xfd;" horiz-adv-x="592" d="M62 -27 C51 -24 41 -20 31 -20 C0 -20 -29 -49 -29 -86 C-29 -123 -6 -142 17 -152 C37 -161 63 -163 89 -163 C176 -163 237 -123 306 -13 L584 431 C597 452 604 470 604 483 C604 520 577 542 538 542 C503 542 477 523 461 494 L273 168 L242 477 C240 517 209 542 168 542 C126 542 92 511 92 471 C92 461 93 446 95 435 L159 -3 C141 -27 125 -35 107 -35 C89 -35 77 -31 62 -27 L62 -27 Z M551 680 C567 692 573 702 573 713 C573 739 525 762 488 762 C463 762 448 747 431 729 L355 645 C346 635 342 627 342 617 C342 599 359 589 384 589 C415 589 442 599 473 622 L551 680 Z " />
<glyph glyph-name="thorn" unicode="&#xfe;" horiz-adv-x="674" d="M317 118 C250 118 202 164 202 232 C202 334 280 418 364 418 C432 418 476 376 476 306 C476 198 399 118 317 118 L317 118 Z M-21 -66 C-38 -129 -11 -166 40 -166 C80 -166 112 -138 125 -89 L169 78 C204 25 253 -10 337 -10 C488 -10 633 126 633 316 C633 461 544 546 427 546 C367 546 322 521 276 478 L319 636 C336 699 309 736 258 736 C218 736 186 708 173 659 L-21 -66 Z " />
<glyph glyph-name="ydieresis" unicode="&#xff;" horiz-adv-x="592" d="M62 -27 C51 -24 41 -20 31 -20 C0 -20 -29 -49 -29 -86 C-29 -123 -6 -142 17 -152 C37 -161 63 -163 89 -163 C176 -163 237 -123 306 -13 L584 431 C597 452 604 470 604 483 C604 520 577 542 538 542 C503 542 477 523 461 494 L273 168 L242 477 C240 517 209 542 168 542 C126 542 92 511 92 471 C92 461 93 446 95 435 L159 -3 C141 -27 125 -35 107 -35 C89 -35 77 -31 62 -27 L62 -27 Z M361 661 L362 665 C370 704 340 736 296 736 C252 736 214 709 205 665 L204 661 C194 619 224 589 270 589 C315 589 352 616 361 661 L361 661 Z M575 661 L576 665 C584 704 554 736 510 736 C466 736 428 709 419 665 L418 661 C408 619 438 589 484 589 C529 589 566 616 575 661 L575 661 Z " />
<glyph glyph-name="Amacron" unicode="&#x100;" horiz-adv-x="765" d="M303 293 L461 524 L497 293 L303 293 Z M590 638 C582 683 558 711 506 711 L503 711 C454 711 420 687 395 651 L6 105 C-6 89 -12 70 -12 54 C-12 18 11 -6 51 -6 C83 -6 110 15 129 42 L209 157 L519 157 L535 55 C540 20 567 -6 610 -6 C656 -6 689 28 689 68 C689 78 686 94 684 108 L590 638 Z M671 770 C700 770 724 793 724 822 C724 851 700 875 671 875 L405 875 C376 875 352 851 352 822 C352 793 376 770 405 770 L671 770 Z " />
<glyph glyph-name="amacron" unicode="&#x101;" horiz-adv-x="588" d="M388 -6 C428 -6 460 22 473 71 L533 296 C540 323 545 349 545 377 C545 482 472 542 328 542 C269 542 214 533 164 517 C138 509 118 488 118 458 C118 423 144 397 178 397 C185 397 194 399 203 401 C229 408 265 413 296 413 C371 413 397 387 397 350 C397 334 394 322 391 310 L389 303 C344 317 296 327 238 327 C108 327 7 258 7 134 C7 50 70 -10 163 -10 C226 -10 280 16 323 62 C321 32 329 -6 388 -6 L388 -6 Z M522 600 C551 600 575 623 575 652 C575 681 551 705 522 705 L256 705 C227 705 203 681 203 652 C203 623 227 600 256 600 L522 600 Z M228 94 C185 94 158 118 158 151 C158 203 204 235 267 235 C304 235 341 226 367 216 L363 202 C346 144 291 94 228 94 L228 94 Z " />
<glyph glyph-name="Abreve" unicode="&#x102;" horiz-adv-x="765" d="M303 293 L461 524 L497 293 L303 293 Z M590 638 C582 683 558 711 506 711 L503 711 C454 711 420 687 395 651 L6 105 C-6 89 -12 70 -12 54 C-12 18 11 -6 51 -6 C83 -6 110 15 129 42 L209 157 L519 157 L535 55 C540 20 567 -6 610 -6 C656 -6 689 28 689 68 C689 78 686 94 684 108 L590 638 Z M540 763 C620 763 677 807 711 849 C721 861 725 873 725 885 C725 912 708 928 680 928 C656 928 642 917 628 902 C608 880 581 862 551 862 C515 862 492 877 478 902 C470 917 456 928 430 928 C401 928 378 909 378 882 C378 828 439 763 540 763 L540 763 Z " />
<glyph glyph-name="abreve" unicode="&#x103;" horiz-adv-x="588" d="M388 -6 C428 -6 460 22 473 71 L533 296 C540 323 545 349 545 377 C545 482 472 542 328 542 C269 542 214 533 164 517 C138 509 118 488 118 458 C118 423 144 397 178 397 C185 397 194 399 203 401 C229 408 265 413 296 413 C371 413 397 387 397 350 C397 334 394 322 391 310 L389 303 C344 317 296 327 238 327 C108 327 7 258 7 134 C7 50 70 -10 163 -10 C226 -10 280 16 323 62 C321 32 329 -6 388 -6 L388 -6 Z M392 593 C472 593 529 637 563 679 C573 691 577 703 577 715 C577 742 560 758 532 758 C508 758 494 747 480 732 C460 710 433 692 403 692 C367 692 344 707 330 732 C322 747 308 758 282 758 C253 758 230 739 230 712 C230 658 291 593 392 593 L392 593 Z M228 94 C185 94 158 118 158 151 C158 203 204 235 267 235 C304 235 341 226 367 216 L363 202 C346 144 291 94 228 94 L228 94 Z " />
<glyph glyph-name="Aogonek" unicode="&#x104;" horiz-adv-x="765" d="M595 -168 C647 -168 668 -155 669 -130 C670 -110 659 -102 637 -95 C617 -89 607 -84 607 -69 C607 -48 625 -27 661 10 C680 29 689 45 689 68 C689 78 686 94 684 108 L590 638 C582 683 558 711 506 711 L503 711 C454 711 420 687 395 651 L6 105 C-6 89 -12 70 -12 54 C-12 18 11 -6 51 -6 C83 -6 110 15 129 42 L209 157 L519 157 L535 55 C537 35 547 19 562 8 C520 -27 489 -63 489 -101 C489 -144 530 -168 595 -168 L595 -168 Z M303 293 L461 524 L497 293 L303 293 Z " />
<glyph glyph-name="aogonek" unicode="&#x105;" horiz-adv-x="588" d="M437 10 C456 29 466 44 473 71 L533 296 C540 323 545 349 545 377 C545 482 472 542 328 542 C269 542 214 533 164 517 C138 509 118 488 118 458 C118 423 144 397 178 397 C185 397 194 399 203 401 C229 408 265 413 296 413 C371 413 397 387 397 350 C397 334 394 322 391 310 L389 303 C344 317 296 327 238 327 C108 327 7 258 7 134 C7 50 70 -10 163 -10 C226 -10 280 16 323 62 C322 44 324 23 339 9 C296 -26 265 -63 265 -101 C265 -144 306 -168 371 -168 C423 -168 444 -155 445 -130 C446 -110 435 -102 413 -95 C393 -89 383 -84 383 -69 C383 -48 401 -26 437 10 L437 10 Z M228 94 C185 94 158 118 158 151 C158 203 204 235 267 235 C304 235 341 226 367 216 L363 202 C346 144 291 94 228 94 L228 94 Z " />
<glyph glyph-name="Cacute" unicode="&#x106;" horiz-adv-x="726" d="M625 63 C640 76 652 95 652 120 C652 160 622 193 582 193 C563 193 544 184 530 175 C483 145 456 130 398 130 C298 130 227 198 227 299 C227 448 346 570 474 570 C548 570 586 543 623 503 C637 487 655 481 677 481 C722 481 756 517 756 561 C756 590 740 611 724 626 C668 678 597 712 493 712 C257 712 67 516 67 293 C67 106 206 -12 397 -12 C486 -12 572 18 625 63 L625 63 Z M706 850 C722 862 728 872 728 883 C728 909 680 932 643 932 C618 932 603 917 586 899 L510 815 C501 805 497 797 497 787 C497 769 514 759 539 759 C570 759 597 769 628 792 L706 850 Z " />
<glyph glyph-name="cacute" unicode="&#x107;" horiz-adv-x="560" d="M472 51 C486 63 495 79 495 101 C495 136 469 164 434 164 C417 164 401 155 389 147 C357 125 328 117 297 117 C238 117 192 161 192 230 C192 329 266 416 346 416 C390 416 421 399 444 371 C457 356 472 349 494 349 C535 349 567 381 567 420 C567 446 554 465 539 479 C509 508 457 546 358 546 C187 546 42 405 42 230 C42 84 146 -12 292 -12 C364 -12 419 8 472 51 L472 51 Z M561 680 C577 692 583 702 583 713 C583 739 535 762 498 762 C473 762 458 747 441 729 L365 645 C356 635 352 627 352 617 C352 599 369 589 394 589 C425 589 452 599 483 622 L561 680 Z " />
<glyph glyph-name="Cdotaccent" unicode="&#x10a;" horiz-adv-x="726" d="M625 63 C640 76 652 95 652 120 C652 160 622 193 582 193 C563 193 544 184 530 175 C483 145 456 130 398 130 C298 130 227 198 227 299 C227 448 346 570 474 570 C548 570 586 543 623 503 C637 487 655 481 677 481 C722 481 756 517 756 561 C756 590 740 611 724 626 C668 678 597 712 493 712 C257 712 67 516 67 293 C67 106 206 -12 397 -12 C486 -12 572 18 625 63 L625 63 Z M624 831 L625 835 C633 874 601 906 557 906 C513 906 473 879 464 835 L463 831 C453 789 485 759 531 759 C576 759 615 786 624 831 L624 831 Z " />
<glyph glyph-name="cdotaccent" unicode="&#x10b;" horiz-adv-x="560" d="M472 51 C486 63 495 79 495 101 C495 136 469 164 434 164 C417 164 401 155 389 147 C357 125 328 117 297 117 C238 117 192 161 192 230 C192 329 266 416 346 416 C390 416 421 399 444 371 C457 356 472 349 494 349 C535 349 567 381 567 420 C567 446 554 465 539 479 C509 508 457 546 358 546 C187 546 42 405 42 230 C42 84 146 -12 292 -12 C364 -12 419 8 472 51 L472 51 Z M480 661 L481 665 C489 704 457 736 413 736 C369 736 329 709 320 665 L319 661 C309 619 341 589 387 589 C432 589 471 616 480 661 L480 661 Z " />
<glyph glyph-name="Ccaron" unicode="&#x10c;" horiz-adv-x="726" d="M625 63 C640 76 652 95 652 120 C652 160 622 193 582 193 C563 193 544 184 530 175 C483 145 456 130 398 130 C298 130 227 198 227 299 C227 448 346 570 474 570 C548 570 586 543 623 503 C637 487 655 481 677 481 C722 481 756 517 756 561 C756 590 740 611 724 626 C668 678 597 712 493 712 C257 712 67 516 67 293 C67 106 206 -12 397 -12 C486 -12 572 18 625 63 L625 63 Z M442 798 C454 774 477 760 512 760 L556 760 C591 760 615 775 634 794 L716 873 C727 884 733 894 733 905 C733 920 720 928 701 928 C667 928 641 919 606 895 L549 856 L513 895 C484 927 459 928 425 928 C406 928 391 920 391 904 C391 895 399 881 404 872 L442 798 Z " />
<glyph glyph-name="ccaron" unicode="&#x10d;" horiz-adv-x="560" d="M472 51 C486 63 495 79 495 101 C495 136 469 164 434 164 C417 164 401 155 389 147 C357 125 328 117 297 117 C238 117 192 161 192 230 C192 329 266 416 346 416 C390 416 421 399 444 371 C457 356 472 349 494 349 C535 349 567 381 567 420 C567 446 554 465 539 479 C509 508 457 546 358 546 C187 546 42 405 42 230 C42 84 146 -12 292 -12 C364 -12 419 8 472 51 L472 51 Z M298 628 C310 604 333 590 368 590 L412 590 C447 590 471 605 490 624 L572 703 C583 714 589 724 589 735 C589 750 576 758 557 758 C523 758 497 749 462 725 L405 686 L369 725 C340 757 315 758 281 758 C262 758 247 750 247 734 C247 725 255 711 260 702 L298 628 Z " />
<glyph glyph-name="Dcaron" unicode="&#x10e;" horiz-adv-x="777" d="M203 139 L317 561 L392 561 C471 561 522 541 553 510 C579 484 594 447 594 399 C594 331 569 269 524 224 C468 168 383 139 290 139 L203 139 Z M265 700 C225 700 192 672 179 623 L39 100 C22 37 50 0 101 0 L272 0 C434 0 555 45 639 129 C714 204 754 300 754 405 C754 490 730 558 678 610 C625 663 540 700 404 700 L265 700 Z M399 788 C411 764 434 750 469 750 L513 750 C548 750 572 765 591 784 L673 863 C684 874 690 884 690 895 C690 910 677 918 658 918 C624 918 598 909 563 885 L506 846 L470 885 C441 917 416 918 382 918 C363 918 348 910 348 894 C348 885 356 871 361 862 L399 788 Z " />
<glyph glyph-name="dcaron" unicode="&#x10f;" horiz-adv-x="674" d="M464 -6 C507 -6 539 22 552 71 L703 636 C720 699 693 736 642 736 C602 736 570 708 557 659 L504 458 C469 511 420 546 336 546 C185 546 40 410 40 220 C40 75 129 -10 246 -10 C306 -10 351 15 397 58 C397 20 420 -6 464 -6 L464 -6 Z M309 118 C241 118 197 160 197 230 C197 338 274 418 356 418 C423 418 471 372 471 304 C471 202 393 118 309 118 L309 118 Z M736 553 C735 549 734 543 734 539 C734 526 743 516 760 516 C778 516 790 525 800 543 L872 673 C879 686 884 697 884 708 C884 723 875 731 855 731 L832 731 C800 731 778 712 771 684 L736 553 Z " />
<glyph glyph-name="Dcroat" unicode="&#x110;" horiz-adv-x="797" d="M285 700 C245 700 212 672 199 623 L145 420 L105 420 C67 420 37 390 37 352 C37 314 67 284 105 284 L108 284 L59 100 C42 37 70 0 121 0 L292 0 C454 0 575 45 659 129 C734 204 774 300 774 405 C774 490 750 558 698 610 C645 663 560 700 424 700 L285 700 Z M223 139 L262 284 L360 284 C398 284 428 314 428 352 C428 390 398 420 360 420 L299 420 L337 561 L412 561 C491 561 542 541 573 510 C599 484 614 447 614 399 C614 331 589 269 544 224 C488 168 403 139 310 139 L223 139 Z " />
<glyph glyph-name="dcroat" unicode="&#x111;" horiz-adv-x="674" d="M464 -6 C507 -6 539 22 552 71 L692 594 L735 594 C758 594 777 613 777 636 C777 659 758 678 735 678 L708 678 C705 715 680 736 642 736 C607 736 578 715 563 678 L432 678 C409 678 390 659 390 636 C390 613 409 594 432 594 L540 594 L504 458 C469 511 420 546 336 546 C185 546 40 410 40 220 C40 75 129 -10 246 -10 C306 -10 351 15 397 58 C397 20 420 -6 464 -6 L464 -6 Z M309 118 C241 118 197 160 197 230 C197 338 274 418 356 418 C423 418 471 372 471 304 C471 202 393 118 309 118 L309 118 Z " />
<glyph glyph-name="Emacron" unicode="&#x112;" horiz-adv-x="665" d="M495 0 C533 0 564 30 564 68 C564 106 533 137 495 137 L201 137 L241 285 L521 285 C559 285 590 314 590 352 C590 390 559 420 521 420 L278 420 L316 563 L641 563 C679 563 710 593 710 631 C710 669 679 700 641 700 L265 700 C225 700 192 672 179 623 L39 100 C22 37 50 0 101 0 L495 0 Z M624 760 C653 760 677 783 677 812 C677 841 653 865 624 865 L358 865 C329 865 305 841 305 812 C305 783 329 760 358 760 L624 760 Z " />
<glyph glyph-name="emacron" unicode="&#x113;" horiz-adv-x="607" d="M306 110 C226 110 189 152 184 215 L499 215 C539 215 562 238 572 282 C576 300 578 320 578 337 C578 456 498 546 359 546 C167 546 41 381 41 226 C41 78 135 -12 289 -12 C356 -12 416 5 463 36 C480 47 492 66 492 87 C492 121 467 145 435 145 C419 145 402 138 389 131 C369 120 339 110 306 110 L306 110 Z M536 600 C565 600 589 623 589 652 C589 681 565 705 536 705 L270 705 C241 705 217 681 217 652 C217 623 241 600 270 600 L536 600 Z M197 310 C222 378 278 424 347 424 C409 424 435 389 435 345 C435 332 433 320 430 310 L197 310 Z " />
<glyph glyph-name="Ebreve" unicode="&#x114;" horiz-adv-x="665" d="M495 0 C533 0 564 30 564 68 C564 106 533 137 495 137 L201 137 L241 285 L521 285 C559 285 590 314 590 352 C590 390 559 420 521 420 L278 420 L316 563 L641 563 C679 563 710 593 710 631 C710 669 679 700 641 700 L265 700 C225 700 192 672 179 623 L39 100 C22 37 50 0 101 0 L495 0 Z M493 753 C573 753 630 797 664 839 C674 851 678 863 678 875 C678 902 661 918 633 918 C609 918 595 907 581 892 C561 870 534 852 504 852 C468 852 445 867 431 892 C423 907 409 918 383 918 C354 918 331 899 331 872 C331 818 392 753 493 753 L493 753 Z " />
<glyph glyph-name="ebreve" unicode="&#x115;" horiz-adv-x="607" d="M306 110 C226 110 189 152 184 215 L499 215 C539 215 562 238 572 282 C576 300 578 320 578 337 C578 456 498 546 359 546 C167 546 41 381 41 226 C41 78 135 -12 289 -12 C356 -12 416 5 463 36 C480 47 492 66 492 87 C492 121 467 145 435 145 C419 145 402 138 389 131 C369 120 339 110 306 110 L306 110 Z M406 593 C486 593 543 637 577 679 C587 691 591 703 591 715 C591 742 574 758 546 758 C522 758 508 747 494 732 C474 710 447 692 417 692 C381 692 358 707 344 732 C336 747 322 758 296 758 C267 758 244 739 244 712 C244 658 305 593 406 593 L406 593 Z M197 310 C222 378 278 424 347 424 C409 424 435 389 435 345 C435 332 433 320 430 310 L197 310 Z " />
<glyph glyph-name="Edotaccent" unicode="&#x116;" horiz-adv-x="665" d="M495 0 C533 0 564 30 564 68 C564 106 533 137 495 137 L201 137 L241 285 L521 285 C559 285 590 314 590 352 C590 390 559 420 521 420 L278 420 L316 563 L641 563 C679 563 710 593 710 631 C710 669 679 700 641 700 L265 700 C225 700 192 672 179 623 L39 100 C22 37 50 0 101 0 L495 0 Z M573 821 L574 825 C582 864 550 896 506 896 C462 896 422 869 413 825 L412 821 C402 779 434 749 480 749 C525 749 564 776 573 821 L573 821 Z " />
<glyph glyph-name="edotaccent" unicode="&#x117;" horiz-adv-x="607" d="M306 110 C226 110 189 152 184 215 L499 215 C539 215 562 238 572 282 C576 300 578 320 578 337 C578 456 498 546 359 546 C167 546 41 381 41 226 C41 78 135 -12 289 -12 C356 -12 416 5 463 36 C480 47 492 66 492 87 C492 121 467 145 435 145 C419 145 402 138 389 131 C369 120 339 110 306 110 L306 110 Z M197 310 C222 378 278 424 347 424 C409 424 435 389 435 345 C435 332 433 320 430 310 L197 310 Z M486 661 L487 665 C495 704 463 736 419 736 C375 736 335 709 326 665 L325 661 C315 619 347 589 393 589 C438 589 477 616 486 661 L486 661 Z " />
<glyph glyph-name="Eogonek" unicode="&#x118;" horiz-adv-x="665" d="M526 3 C554 28 564 43 564 68 C564 106 533 137 495 137 L201 137 L241 285 L521 285 C559 285 590 314 590 352 C590 390 559 420 521 420 L278 420 L316 563 L641 563 C679 563 710 593 710 631 C710 669 679 700 641 700 L265 700 C225 700 192 672 179 623 L39 100 C22 37 50 0 101 0 L422 0 C383 -33 355 -66 355 -101 C355 -144 396 -168 461 -168 C513 -168 534 -155 535 -130 C536 -110 525 -102 503 -95 C483 -89 473 -84 473 -69 C473 -50 483 -36 526 3 L526 3 Z " />
<glyph glyph-name="eogonek" unicode="&#x119;" horiz-adv-x="607" d="M417 -2 C433 13 447 24 463 36 C480 49 492 66 492 87 C492 121 467 145 435 145 C419 145 402 138 389 131 C369 120 339 110 306 110 C226 110 189 152 184 215 L499 215 C539 215 562 238 572 282 C576 300 578 320 578 337 C578 456 498 546 359 546 C167 546 41 381 41 226 C41 78 135 -12 289 -12 C295 -12 302 -12 308 -11 C278 -40 258 -70 258 -101 C258 -144 299 -168 364 -168 C416 -168 437 -155 438 -130 C439 -110 428 -102 406 -95 C386 -89 376 -84 376 -69 C376 -48 391 -27 417 -2 L417 -2 Z M197 310 C222 378 278 424 347 424 C409 424 435 389 435 345 C435 332 433 320 430 310 L197 310 Z " />
<glyph glyph-name="Ecaron" unicode="&#x11a;" horiz-adv-x="665" d="M495 0 C533 0 564 30 564 68 C564 106 533 137 495 137 L201 137 L241 285 L521 285 C559 285 590 314 590 352 C590 390 559 420 521 420 L278 420 L316 563 L641 563 C679 563 710 593 710 631 C710 669 679 700 641 700 L265 700 C225 700 192 672 179 623 L39 100 C22 37 50 0 101 0 L495 0 Z M391 788 C403 764 426 750 461 750 L505 750 C540 750 564 765 583 784 L665 863 C676 874 682 884 682 895 C682 910 669 918 650 918 C616 918 590 909 555 885 L498 846 L462 885 C433 917 408 918 374 918 C355 918 340 910 340 894 C340 885 348 871 353 862 L391 788 Z " />
<glyph glyph-name="ecaron" unicode="&#x11b;" horiz-adv-x="607" d="M306 110 C226 110 189 152 184 215 L499 215 C539 215 562 238 572 282 C576 300 578 320 578 337 C578 456 498 546 359 546 C167 546 41 381 41 226 C41 78 135 -12 289 -12 C356 -12 416 5 463 36 C480 47 492 66 492 87 C492 121 467 145 435 145 C419 145 402 138 389 131 C369 120 339 110 306 110 L306 110 Z M304 628 C316 604 339 590 374 590 L418 590 C453 590 477 605 496 624 L578 703 C589 714 595 724 595 735 C595 750 582 758 563 758 C529 758 503 749 468 725 L411 686 L375 725 C346 757 321 758 287 758 C268 758 253 750 253 734 C253 725 261 711 266 702 L304 628 Z M197 310 C222 378 278 424 347 424 C409 424 435 389 435 345 C435 332 433 320 430 310 L197 310 Z " />
<glyph glyph-name="Gbreve" unicode="&#x11e;" horiz-adv-x="780" d="M720 304 C737 365 709 403 658 403 L477 403 C440 403 410 373 410 336 C410 299 440 270 477 270 L563 270 L530 156 C499 142 459 129 405 129 C306 129 226 188 226 297 C226 443 341 571 491 571 C566 571 608 548 654 512 C665 504 680 496 702 496 C744 496 778 530 778 572 C778 602 763 620 747 634 C705 673 620 712 503 712 C251 712 66 510 66 292 C66 83 235 -12 395 -12 C485 -12 565 11 603 31 C638 50 655 75 665 111 L720 304 Z M553 763 C633 763 690 807 724 849 C734 861 738 873 738 885 C738 912 721 928 693 928 C669 928 655 917 641 902 C621 880 594 862 564 862 C528 862 505 877 491 902 C483 917 469 928 443 928 C414 928 391 909 391 882 C391 828 452 763 553 763 L553 763 Z " />
<glyph glyph-name="gbreve" unicode="&#x11f;" horiz-adv-x="671" d="M302 165 C242 165 200 197 200 260 C200 343 269 419 354 419 C418 419 460 382 460 321 C460 236 386 165 302 165 L302 165 Z M499 453 C471 502 428 546 336 546 C188 546 43 410 43 231 C43 109 139 44 242 44 C308 44 354 65 410 115 L405 97 C393 55 379 24 356 1 C327 -28 291 -42 240 -42 C189 -42 137 -31 83 -4 C67 4 56 8 39 8 C3 8 -24 -22 -24 -58 C-24 -85 -9 -103 19 -116 C89 -147 164 -162 250 -162 C348 -162 415 -137 464 -88 C507 -45 529 -3 558 105 L648 442 C665 505 638 542 587 542 C541 542 514 507 503 465 L499 453 Z M440 593 C520 593 577 637 611 679 C621 691 625 703 625 715 C625 742 608 758 580 758 C556 758 542 747 528 732 C508 710 481 692 451 692 C415 692 392 707 378 732 C370 747 356 758 330 758 C301 758 278 739 278 712 C278 658 339 593 440 593 L440 593 Z " />
<glyph glyph-name="Gdotaccent" unicode="&#x120;" horiz-adv-x="780" d="M720 304 C737 365 709 403 658 403 L477 403 C440 403 410 373 410 336 C410 299 440 270 477 270 L563 270 L530 156 C499 142 459 129 405 129 C306 129 226 188 226 297 C226 443 341 571 491 571 C566 571 608 548 654 512 C665 504 680 496 702 496 C744 496 778 530 778 572 C778 602 763 620 747 634 C705 673 620 712 503 712 C251 712 66 510 66 292 C66 83 235 -12 395 -12 C485 -12 565 11 603 31 C638 50 655 75 665 111 L720 304 Z M633 831 L634 835 C642 874 610 906 566 906 C522 906 482 879 473 835 L472 831 C462 789 494 759 540 759 C585 759 624 786 633 831 L633 831 Z " />
<glyph glyph-name="gdotaccent" unicode="&#x121;" horiz-adv-x="671" d="M302 165 C242 165 200 197 200 260 C200 343 269 419 354 419 C418 419 460 382 460 321 C460 236 386 165 302 165 L302 165 Z M499 453 C471 502 428 546 336 546 C188 546 43 410 43 231 C43 109 139 44 242 44 C308 44 354 65 410 115 L405 97 C393 55 379 24 356 1 C327 -28 291 -42 240 -42 C189 -42 137 -31 83 -4 C67 4 56 8 39 8 C3 8 -24 -22 -24 -58 C-24 -85 -9 -103 19 -116 C89 -147 164 -162 250 -162 C348 -162 415 -137 464 -88 C507 -45 529 -3 558 105 L648 442 C665 505 638 542 587 542 C541 542 514 507 503 465 L499 453 Z M520 661 L521 665 C529 704 497 736 453 736 C409 736 369 709 360 665 L359 661 C349 619 381 589 427 589 C472 589 511 616 520 661 L520 661 Z " />
<glyph glyph-name="Gcommaaccent" unicode="&#x122;" horiz-adv-x="780" d="M720 304 C737 365 709 403 658 403 L477 403 C440 403 410 373 410 336 C410 299 440 270 477 270 L563 270 L530 156 C499 142 459 129 405 129 C306 129 226 188 226 297 C226 443 341 571 491 571 C566 571 608 548 654 512 C665 504 680 496 702 496 C744 496 778 530 778 572 C778 602 763 620 747 634 C705 673 620 712 503 712 C251 712 66 510 66 292 C66 83 235 -12 395 -12 C485 -12 565 11 603 31 C638 50 655 75 665 111 L720 304 Z M309 -179 C303 -214 279 -238 224 -248 C203 -252 193 -261 193 -275 C193 -288 201 -297 221 -297 C264 -297 314 -275 351 -238 C381 -208 400 -167 400 -128 C400 -84 374 -58 331 -58 C286 -58 253 -89 253 -127 C253 -157 275 -172 309 -179 L309 -179 Z " />
<glyph glyph-name="gcommaaccent" unicode="&#x123;" horiz-adv-x="671" d="M302 165 C242 165 200 197 200 260 C200 343 269 419 354 419 C418 419 460 382 460 321 C460 236 386 165 302 165 L302 165 Z M499 453 C471 502 428 546 336 546 C188 546 43 410 43 231 C43 109 139 44 242 44 C308 44 354 65 410 115 L405 97 C393 55 379 24 356 1 C327 -28 291 -42 240 -42 C189 -42 137 -31 83 -4 C67 4 56 8 39 8 C3 8 -24 -22 -24 -58 C-24 -85 -9 -103 19 -116 C89 -147 164 -162 250 -162 C348 -162 415 -137 464 -88 C507 -45 529 -3 558 105 L648 442 C665 505 638 542 587 542 C541 542 514 507 503 465 L499 453 Z M452 710 C458 745 482 769 537 779 C558 783 568 792 568 806 C568 819 560 828 540 828 C497 828 447 806 410 769 C380 739 361 698 361 659 C361 615 387 589 430 589 C475 589 508 620 508 658 C508 688 486 703 452 710 L452 710 Z " />
<glyph glyph-name="Hbar" unicode="&#x126;" horiz-adv-x="756" d="M776 512 C805 512 829 535 829 564 C829 593 805 617 776 617 L765 617 C776 673 749 706 701 706 C661 706 628 678 615 629 L612 617 L331 617 C342 673 315 706 267 706 C227 706 194 678 181 629 L178 617 L140 617 C111 617 87 593 87 564 C87 535 111 512 140 512 L149 512 L37 94 C20 31 48 -6 99 -6 C139 -6 172 22 185 71 L242 281 L522 281 L471 94 C454 31 482 -6 533 -6 C573 -6 606 22 619 71 L737 512 L776 512 Z M280 423 L304 512 L584 512 L560 423 L280 423 Z " />
<glyph glyph-name="hbar" unicode="&#x127;" horiz-adv-x="622" d="M563 288 C572 322 581 360 581 390 C581 487 519 546 423 546 C363 546 315 514 277 480 L307 594 L437 594 C460 594 479 613 479 636 C479 659 460 678 437 678 L323 678 C320 715 295 736 257 736 C222 736 193 715 178 678 L134 678 C111 678 92 659 92 636 C92 613 111 594 134 594 L154 594 L22 94 C5 31 32 -6 83 -6 C123 -6 155 22 168 71 L230 301 C247 365 286 408 346 408 C393 408 420 385 420 342 C420 329 417 309 413 294 L359 94 C342 31 369 -6 420 -6 C460 -6 492 22 505 71 L563 288 Z " />
<glyph glyph-name="Imacron" unicode="&#x12a;" horiz-adv-x="336" d="M336 606 C353 669 325 706 274 706 C234 706 201 678 188 629 L44 94 C27 31 55 -6 106 -6 C146 -6 179 22 192 71 L336 606 Z M447 760 C476 760 500 783 500 812 C500 841 476 865 447 865 L181 865 C152 865 128 841 128 812 C128 783 152 760 181 760 L447 760 Z " />
<glyph glyph-name="imacron" unicode="&#x12b;" horiz-adv-x="302" d="M274 442 C291 505 264 542 213 542 C173 542 141 514 128 465 L28 94 C11 31 38 -6 89 -6 C129 -6 161 22 174 71 L274 442 Z M387 600 C416 600 440 623 440 652 C440 681 416 705 387 705 L121 705 C92 705 68 681 68 652 C68 623 92 600 121 600 L387 600 Z " />
<glyph glyph-name="Ibreve" unicode="&#x12c;" horiz-adv-x="336" d="M336 606 C353 669 325 706 274 706 C234 706 201 678 188 629 L44 94 C27 31 55 -6 106 -6 C146 -6 179 22 192 71 L336 606 Z M316 753 C396 753 453 797 487 839 C497 851 501 863 501 875 C501 902 484 918 456 918 C432 918 418 907 404 892 C384 870 357 852 327 852 C291 852 268 867 254 892 C246 907 232 918 206 918 C177 918 154 899 154 872 C154 818 215 753 316 753 L316 753 Z " />
<glyph glyph-name="ibreve" unicode="&#x12d;" horiz-adv-x="302" d="M274 442 C291 505 264 542 213 542 C173 542 141 514 128 465 L28 94 C11 31 38 -6 89 -6 C129 -6 161 22 174 71 L274 442 Z M256 593 C336 593 393 637 427 679 C437 691 441 703 441 715 C441 742 424 758 396 758 C372 758 358 747 344 732 C324 710 297 692 267 692 C231 692 208 707 194 732 C186 747 172 758 146 758 C117 758 94 739 94 712 C94 658 155 593 256 593 L256 593 Z " />
<glyph glyph-name="Iogonek" unicode="&#x12e;" horiz-adv-x="336" d="M89 -168 C141 -168 162 -155 163 -130 C164 -110 153 -102 131 -95 C111 -89 101 -84 101 -69 C101 -48 118 -27 156 10 C175 29 184 43 192 71 L336 606 C353 669 325 706 274 706 C234 706 201 678 188 629 L44 94 C33 55 40 26 58 10 C15 -26 -17 -63 -17 -101 C-17 -144 24 -168 89 -168 L89 -168 Z " />
<glyph glyph-name="iogonek" unicode="&#x12f;" horiz-adv-x="302" d="M342 660 L343 665 C351 705 318 735 270 735 C222 735 181 708 172 665 L171 660 C163 620 196 590 244 590 C292 590 333 617 342 660 L342 660 Z M274 442 C291 505 264 542 213 542 C173 542 141 514 128 465 L28 94 C25 82 23 72 23 59 C23 40 28 24 41 10 C-2 -26 -34 -63 -34 -101 C-34 -144 7 -168 72 -168 C124 -168 145 -155 146 -130 C147 -110 136 -102 114 -95 C94 -89 84 -84 84 -69 C84 -48 102 -26 138 10 C157 29 167 44 174 71 L274 442 Z " />
<glyph glyph-name="Idotaccent" unicode="&#x130;" horiz-adv-x="336" d="M336 606 C353 669 325 706 274 706 C234 706 201 678 188 629 L44 94 C27 31 55 -6 106 -6 C146 -6 179 22 192 71 L336 606 Z M397 821 L398 825 C406 864 374 896 330 896 C286 896 246 869 237 825 L236 821 C226 779 258 749 304 749 C349 749 388 776 397 821 L397 821 Z " />
<glyph glyph-name="dotlessi" unicode="&#x131;" horiz-adv-x="302" d="M274 442 C291 505 264 542 213 542 C173 542 141 514 128 465 L28 94 C11 31 38 -6 89 -6 C129 -6 161 22 174 71 L274 442 Z " />
<glyph glyph-name="Kcommaaccent" unicode="&#x136;" horiz-adv-x="719" d="M217 191 L368 310 L475 48 C487 18 511 -6 553 -6 C591 -6 630 20 630 63 C630 79 626 94 618 113 L494 396 L719 580 C737 595 746 614 746 637 C746 675 719 706 676 706 C649 706 631 692 612 676 L271 390 L329 606 C346 669 318 706 267 706 C227 706 194 678 181 629 L37 94 C20 31 48 -6 99 -6 C139 -6 172 22 185 71 L217 191 Z M283 -169 C277 -204 253 -228 198 -238 C177 -242 167 -251 167 -265 C167 -278 175 -287 195 -287 C238 -287 288 -265 325 -228 C355 -198 374 -157 374 -118 C374 -74 348 -48 305 -48 C260 -48 227 -79 227 -117 C227 -147 249 -162 283 -169 L283 -169 Z " />
<glyph glyph-name="kcommaaccent" unicode="&#x137;" horiz-adv-x="591" d="M320 636 C337 699 310 736 259 736 C219 736 187 708 174 659 L22 94 C5 31 32 -6 83 -6 C123 -6 155 22 168 71 L191 159 L273 219 L344 49 C356 19 381 -6 423 -6 C461 -6 501 18 501 61 C501 77 496 94 488 113 L405 314 L563 429 C580 441 591 460 591 481 C591 515 566 542 528 542 C504 542 488 529 470 515 L240 340 L320 636 Z M196 -174 C190 -209 166 -233 111 -243 C90 -247 80 -256 80 -270 C80 -283 88 -292 108 -292 C151 -292 201 -270 238 -233 C268 -203 287 -162 287 -123 C287 -79 261 -53 218 -53 C173 -53 140 -84 140 -122 C140 -152 162 -167 196 -174 L196 -174 Z " />
<glyph glyph-name="Lacute" unicode="&#x139;" horiz-adv-x="626" d="M471 0 C509 0 540 30 540 70 C540 109 509 140 471 140 L204 140 L329 606 C346 669 318 706 267 706 C227 706 194 678 181 629 L39 100 C22 37 50 0 101 0 L471 0 Z M490 840 C506 852 512 862 512 873 C512 899 464 922 427 922 C402 922 387 907 370 889 L294 805 C285 795 281 787 281 777 C281 759 298 749 323 749 C354 749 381 759 412 782 L490 840 Z " />
<glyph glyph-name="lacute" unicode="&#x13a;" horiz-adv-x="302" d="M326 636 C343 699 316 736 265 736 C225 736 193 708 180 659 L28 94 C11 31 38 -6 89 -6 C129 -6 161 22 174 71 L326 636 Z M468 855 C484 867 490 877 490 888 C490 914 442 937 405 937 C380 937 365 922 348 904 L272 820 C263 810 259 802 259 792 C259 774 276 764 301 764 C332 764 359 774 390 797 L468 855 Z " />
<glyph glyph-name="Lcommaaccent" unicode="&#x13b;" horiz-adv-x="626" d="M471 0 C509 0 540 30 540 70 C540 109 509 140 471 140 L204 140 L329 606 C346 669 318 706 267 706 C227 706 194 678 181 629 L39 100 C22 37 50 0 101 0 L471 0 Z M222 -174 C216 -209 192 -233 137 -243 C116 -247 106 -256 106 -270 C106 -283 114 -292 134 -292 C177 -292 227 -270 264 -233 C294 -203 313 -162 313 -123 C313 -79 287 -53 244 -53 C199 -53 166 -84 166 -122 C166 -152 188 -167 222 -174 L222 -174 Z " />
<glyph glyph-name="lcommaaccent" unicode="&#x13c;" horiz-adv-x="302" d="M326 636 C343 699 316 736 265 736 C225 736 193 708 180 659 L28 94 C11 31 38 -6 89 -6 C129 -6 161 22 174 71 L326 636 Z M46 -174 C40 -209 16 -233 -39 -243 C-60 -247 -70 -256 -70 -270 C-70 -283 -62 -292 -42 -292 C1 -292 51 -270 88 -233 C118 -203 137 -162 137 -123 C137 -79 111 -53 68 -53 C23 -53 -10 -84 -10 -122 C-10 -152 12 -167 46 -174 L46 -174 Z " />
<glyph glyph-name="Lcaron" unicode="&#x13d;" horiz-adv-x="626" d="M471 0 C509 0 540 30 540 70 C540 109 509 140 471 140 L204 140 L329 606 C346 669 318 706 267 706 C227 706 194 678 181 629 L39 100 C22 37 50 0 101 0 L471 0 Z M362 523 C361 519 360 513 360 509 C360 496 369 486 386 486 C404 486 416 495 426 513 L498 643 C505 656 510 667 510 678 C510 693 501 701 481 701 L458 701 C426 701 404 682 397 654 L362 523 Z " />
<glyph glyph-name="lcaron" unicode="&#x13e;" horiz-adv-x="302" d="M326 636 C343 699 316 736 265 736 C225 736 193 708 180 659 L28 94 C11 31 38 -6 89 -6 C129 -6 161 22 174 71 L326 636 Z M359 553 C358 549 357 543 357 539 C357 526 366 516 383 516 C401 516 413 525 423 543 L495 673 C502 686 507 697 507 708 C507 723 498 731 478 731 L455 731 C423 731 401 712 394 684 L359 553 Z " />
<glyph glyph-name="Ldot" unicode="&#x13f;" horiz-adv-x="626" d="M594 381 L595 385 C603 424 571 456 527 456 C483 456 443 429 434 385 L433 381 C423 339 455 309 501 309 C546 309 585 336 594 381 L594 381 Z M471 0 C509 0 540 30 540 70 C540 109 509 140 471 140 L204 140 L329 606 C346 669 318 706 267 706 C227 706 194 678 181 629 L39 100 C22 37 50 0 101 0 L471 0 Z " />
<glyph glyph-name="ldot" unicode="&#x140;" horiz-adv-x="392" d="M440 375 L441 380 C447 417 425 447 385 447 C348 447 322 424 314 383 L313 378 C306 342 329 311 369 311 C406 311 432 334 440 375 L440 375 Z M326 636 C343 699 316 736 265 736 C225 736 193 708 180 659 L28 94 C11 31 38 -6 89 -6 C129 -6 161 22 174 71 L326 636 Z " />
<glyph glyph-name="Lslash" unicode="&#x141;" horiz-adv-x="657" d="M91 388 C63 380 42 358 42 325 C42 287 69 263 107 263 L114 263 L70 100 C53 37 81 0 132 0 L502 0 C540 0 571 30 571 70 C571 109 540 140 502 140 L230 140 L274 306 L455 357 C483 365 504 387 504 420 C504 458 477 482 439 482 C435 482 422 480 414 478 L313 450 L355 606 C372 669 345 706 296 706 C257 706 225 678 212 629 L152 405 L91 388 Z " />
<glyph glyph-name="lslash" unicode="&#x142;" horiz-adv-x="359" d="M94 408 C54 398 37 374 37 340 C37 304 59 279 93 279 C97 279 103 279 108 280 L58 94 C41 31 68 -6 119 -6 C159 -6 191 22 204 71 L272 324 L325 339 C365 349 382 373 382 407 C382 443 360 468 326 468 C321 468 315 468 310 467 L356 636 C373 699 346 736 295 736 C255 736 223 708 210 659 L146 422 L94 408 Z " />
<glyph glyph-name="Nacute" unicode="&#x143;" horiz-adv-x="786" d="M546 255 L368 643 C351 681 323 704 278 704 L271 704 C225 704 193 676 180 627 L37 94 C20 31 47 -6 98 -6 C138 -6 170 22 183 71 L287 459 L474 54 C492 16 513 -4 562 -4 L565 -4 C611 -4 636 23 648 68 L793 606 C810 669 783 706 732 706 C692 706 660 678 647 629 L546 255 Z M703 840 C719 852 725 862 725 873 C725 899 677 922 640 922 C615 922 600 907 583 889 L507 805 C498 795 494 787 494 777 C494 759 511 749 536 749 C567 749 594 759 625 782 L703 840 Z " />
<glyph glyph-name="nacute" unicode="&#x144;" horiz-adv-x="619" d="M209 542 C166 542 134 514 121 465 L22 94 C5 31 32 -6 83 -6 C123 -6 155 22 168 71 L230 301 C247 365 286 408 346 408 C393 408 420 385 420 342 C420 329 417 309 413 294 L359 94 C342 31 369 -6 420 -6 C460 -6 492 22 505 71 L563 288 C572 322 581 360 581 390 C581 487 519 546 423 546 C363 546 315 514 277 480 C277 514 253 542 209 542 L209 542 Z M569 680 C585 692 591 702 591 713 C591 739 543 762 506 762 C481 762 466 747 449 729 L373 645 C364 635 360 627 360 617 C360 599 377 589 402 589 C433 589 460 599 491 622 L569 680 Z " />
<glyph glyph-name="Ncommaaccent" unicode="&#x145;" horiz-adv-x="786" d="M546 255 L368 643 C351 681 323 704 278 704 L271 704 C225 704 193 676 180 627 L37 94 C20 31 47 -6 98 -6 C138 -6 170 22 183 71 L287 459 L474 54 C492 16 513 -4 562 -4 L565 -4 C611 -4 636 23 648 68 L793 606 C810 669 783 706 732 706 C692 706 660 678 647 629 L546 255 Z M289 -169 C283 -204 259 -228 204 -238 C183 -242 173 -251 173 -265 C173 -278 181 -287 201 -287 C244 -287 294 -265 331 -228 C361 -198 380 -157 380 -118 C380 -74 354 -48 311 -48 C266 -48 233 -79 233 -117 C233 -147 255 -162 289 -169 L289 -169 Z " />
<glyph glyph-name="ncommaaccent" unicode="&#x146;" horiz-adv-x="619" d="M209 542 C166 542 134 514 121 465 L22 94 C5 31 32 -6 83 -6 C123 -6 155 22 168 71 L230 301 C247 365 286 408 346 408 C393 408 420 385 420 342 C420 329 417 309 413 294 L359 94 C342 31 369 -6 420 -6 C460 -6 492 22 505 71 L563 288 C572 322 581 360 581 390 C581 487 519 546 423 546 C363 546 315 514 277 480 C277 514 253 542 209 542 L209 542 Z M196 -174 C190 -209 166 -233 111 -243 C90 -247 80 -256 80 -270 C80 -283 88 -292 108 -292 C151 -292 201 -270 238 -233 C268 -203 287 -162 287 -123 C287 -79 261 -53 218 -53 C173 -53 140 -84 140 -122 C140 -152 162 -167 196 -174 L196 -174 Z " />
<glyph glyph-name="Ncaron" unicode="&#x147;" horiz-adv-x="786" d="M546 255 L368 643 C351 681 323 704 278 704 L271 704 C225 704 193 676 180 627 L37 94 C20 31 47 -6 98 -6 C138 -6 170 22 183 71 L287 459 L474 54 C492 16 513 -4 562 -4 L565 -4 C611 -4 636 23 648 68 L793 606 C810 669 783 706 732 706 C692 706 660 678 647 629 L546 255 Z M439 788 C451 764 474 750 509 750 L553 750 C588 750 612 765 631 784 L713 863 C724 874 730 884 730 895 C730 910 717 918 698 918 C664 918 638 909 603 885 L546 846 L510 885 C481 917 456 918 422 918 C403 918 388 910 388 894 C388 885 396 871 401 862 L439 788 Z " />
<glyph glyph-name="ncaron" unicode="&#x148;" horiz-adv-x="619" d="M209 542 C166 542 134 514 121 465 L22 94 C5 31 32 -6 83 -6 C123 -6 155 22 168 71 L230 301 C247 365 286 408 346 408 C393 408 420 385 420 342 C420 329 417 309 413 294 L359 94 C342 31 369 -6 420 -6 C460 -6 492 22 505 71 L563 288 C572 322 581 360 581 390 C581 487 519 546 423 546 C363 546 315 514 277 480 C277 514 253 542 209 542 L209 542 Z M305 628 C317 604 340 590 375 590 L419 590 C454 590 478 605 497 624 L579 703 C590 714 596 724 596 735 C596 750 583 758 564 758 C530 758 504 749 469 725 L412 686 L376 725 C347 757 322 758 288 758 C269 758 254 750 254 734 C254 725 262 711 267 702 L305 628 Z " />
<glyph glyph-name="Omacron" unicode="&#x14c;" horiz-adv-x="832" d="M387 -12 C638 -12 808 193 808 402 C808 578 681 712 488 712 C237 712 67 507 67 298 C67 122 194 -12 387 -12 L387 -12 Z M405 130 C290 130 227 204 227 308 C227 429 323 570 470 570 C585 570 648 496 648 392 C648 271 552 130 405 130 L405 130 Z M689 770 C718 770 742 793 742 822 C742 851 718 875 689 875 L423 875 C394 875 370 851 370 822 C370 793 394 770 423 770 L689 770 Z " />
<glyph glyph-name="omacron" unicode="&#x14d;" horiz-adv-x="652" d="M300 -12 C472 -12 610 138 610 298 C610 441 511 546 352 546 C180 546 42 396 42 236 C42 93 141 -12 300 -12 L300 -12 Z M307 118 C238 118 191 162 191 240 C191 316 252 416 345 416 C414 416 461 372 461 294 C461 218 400 118 307 118 L307 118 Z M558 600 C587 600 611 623 611 652 C611 681 587 705 558 705 L292 705 C263 705 239 681 239 652 C239 623 263 600 292 600 L558 600 Z " />
<glyph glyph-name="Obreve" unicode="&#x14e;" horiz-adv-x="832" d="M387 -12 C638 -12 808 193 808 402 C808 578 681 712 488 712 C237 712 67 507 67 298 C67 122 194 -12 387 -12 L387 -12 Z M405 130 C290 130 227 204 227 308 C227 429 323 570 470 570 C585 570 648 496 648 392 C648 271 552 130 405 130 L405 130 Z M559 763 C639 763 696 807 730 849 C740 861 744 873 744 885 C744 912 727 928 699 928 C675 928 661 917 647 902 C627 880 600 862 570 862 C534 862 511 877 497 902 C489 917 475 928 449 928 C420 928 397 909 397 882 C397 828 458 763 559 763 L559 763 Z " />
<glyph glyph-name="obreve" unicode="&#x14f;" horiz-adv-x="652" d="M300 -12 C472 -12 610 138 610 298 C610 441 511 546 352 546 C180 546 42 396 42 236 C42 93 141 -12 300 -12 L300 -12 Z M307 118 C238 118 191 162 191 240 C191 316 252 416 345 416 C414 416 461 372 461 294 C461 218 400 118 307 118 L307 118 Z M428 593 C508 593 565 637 599 679 C609 691 613 703 613 715 C613 742 596 758 568 758 C544 758 530 747 516 732 C496 710 469 692 439 692 C403 692 380 707 366 732 C358 747 344 758 318 758 C289 758 266 739 266 712 C266 658 327 593 428 593 L428 593 Z " />
<glyph glyph-name="Ohungarumlaut" unicode="&#x150;" horiz-adv-x="832" d="M387 -12 C638 -12 808 193 808 402 C808 578 681 712 488 712 C237 712 67 507 67 298 C67 122 194 -12 387 -12 L387 -12 Z M405 130 C290 130 227 204 227 308 C227 429 323 570 470 570 C585 570 648 496 648 392 C648 271 552 130 405 130 L405 130 Z M543 932 C518 932 503 917 486 899 L410 815 C401 805 397 797 397 787 C397 769 412 759 433 759 C458 759 483 769 514 792 L592 850 C608 862 614 872 614 883 C614 909 580 932 543 932 L543 932 Z M739 932 C714 932 699 917 682 899 L606 815 C597 805 593 797 593 787 C593 769 608 759 629 759 C654 759 679 769 710 792 L788 850 C804 862 810 872 810 883 C810 909 776 932 739 932 L739 932 Z " />
<glyph glyph-name="ohungarumlaut" unicode="&#x151;" horiz-adv-x="652" d="M300 -12 C472 -12 610 138 610 298 C610 441 511 546 352 546 C180 546 42 396 42 236 C42 93 141 -12 300 -12 L300 -12 Z M307 118 C238 118 191 162 191 240 C191 316 252 416 345 416 C414 416 461 372 461 294 C461 218 400 118 307 118 L307 118 Z M411 762 C386 762 371 747 354 729 L278 645 C269 635 265 627 265 617 C265 599 280 589 301 589 C326 589 351 599 382 622 L460 680 C476 692 482 702 482 713 C482 739 448 762 411 762 L411 762 Z M607 762 C582 762 567 747 550 729 L474 645 C465 635 461 627 461 617 C461 599 476 589 497 589 C522 589 547 599 578 622 L656 680 C672 692 678 702 678 713 C678 739 644 762 607 762 L607 762 Z " />
<glyph glyph-name="OE" unicode="&#x152;" horiz-adv-x="1071" d="M429 139 C350 139 299 159 268 190 C242 216 227 253 227 301 C227 369 252 431 297 476 C353 532 438 561 531 561 L588 561 L474 139 L429 139 Z M901 0 C939 0 970 30 970 68 C970 106 939 137 901 137 L627 137 L667 285 L927 285 C965 285 996 314 996 352 C996 390 965 420 927 420 L704 420 L742 563 L1047 563 C1085 563 1116 593 1116 631 C1116 669 1085 700 1047 700 L549 700 C387 700 266 655 182 571 C107 496 67 400 67 295 C67 210 93 140 138 95 C198 35 281 0 417 0 L901 0 Z " />
<glyph glyph-name="oe" unicode="&#x153;" horiz-adv-x="1028" d="M727 110 C647 110 610 152 605 215 L920 215 C960 215 983 238 993 282 C997 300 999 320 999 337 C999 456 919 546 780 546 C684 546 609 503 558 440 C522 505 452 546 351 546 C177 546 42 398 42 236 C42 93 142 -12 301 -12 C388 -12 461 27 511 86 C547 23 615 -12 710 -12 C777 -12 837 5 884 36 C901 47 913 66 913 87 C913 121 888 145 856 145 C840 145 823 138 810 131 C790 120 760 110 727 110 L727 110 Z M306 118 C237 118 191 168 191 241 C191 324 251 416 346 416 C415 416 461 366 461 293 C461 210 401 118 306 118 L306 118 Z M618 310 C643 378 699 424 768 424 C830 424 856 389 856 345 C856 332 854 320 851 310 L618 310 Z " />
<glyph glyph-name="Racute" unicode="&#x154;" horiz-adv-x="727" d="M226 224 L341 224 L452 45 C470 15 498 -6 542 -6 C577 -6 617 17 617 64 C617 79 613 94 600 113 L514 241 C583 260 628 284 667 323 C708 364 731 422 731 489 C731 546 712 595 677 630 C630 677 559 700 455 700 L265 700 C225 700 192 672 179 623 L37 94 C20 31 48 -6 99 -6 C139 -6 172 22 185 71 L226 224 Z M263 360 L317 561 L446 561 C495 561 529 551 548 532 C563 517 570 500 570 476 C570 447 559 423 541 405 C511 375 460 360 400 360 L263 360 Z M644 840 C660 852 666 862 666 873 C666 899 618 922 581 922 C556 922 541 907 524 889 L448 805 C439 795 435 787 435 777 C435 759 452 749 477 749 C508 749 535 759 566 782 L644 840 Z " />
<glyph glyph-name="racute" unicode="&#x155;" horiz-adv-x="419" d="M268 451 C281 505 256 542 206 542 C166 542 134 514 121 465 L21 94 C4 31 31 -6 82 -6 C122 -6 154 22 167 71 L200 190 C232 309 292 369 387 396 C433 409 453 434 453 474 C453 517 427 542 388 542 C342 542 301 508 265 439 L268 451 Z M479 680 C495 692 501 702 501 713 C501 739 453 762 416 762 C391 762 376 747 359 729 L283 645 C274 635 270 627 270 617 C270 599 287 589 312 589 C343 589 370 599 401 622 L479 680 Z " />
<glyph glyph-name="Rcommaaccent" unicode="&#x156;" horiz-adv-x="727" d="M226 224 L341 224 L452 45 C470 15 498 -6 542 -6 C577 -6 617 17 617 64 C617 79 613 94 600 113 L514 241 C583 260 628 284 667 323 C708 364 731 422 731 489 C731 546 712 595 677 630 C630 677 559 700 455 700 L265 700 C225 700 192 672 179 623 L37 94 C20 31 48 -6 99 -6 C139 -6 172 22 185 71 L226 224 Z M263 360 L317 561 L446 561 C495 561 529 551 548 532 C563 517 570 500 570 476 C570 447 559 423 541 405 C511 375 460 360 400 360 L263 360 Z M246 -169 C240 -204 216 -228 161 -238 C140 -242 130 -251 130 -265 C130 -278 138 -287 158 -287 C201 -287 251 -265 288 -228 C318 -198 337 -157 337 -118 C337 -74 311 -48 268 -48 C223 -48 190 -79 190 -117 C190 -147 212 -162 246 -169 L246 -169 Z " />
<glyph glyph-name="rcommaaccent" unicode="&#x157;" horiz-adv-x="419" d="M268 451 C281 505 256 542 206 542 C166 542 134 514 121 465 L21 94 C4 31 31 -6 82 -6 C122 -6 154 22 167 71 L200 190 C232 309 292 369 387 396 C433 409 453 434 453 474 C453 517 427 542 388 542 C342 542 301 508 265 439 L268 451 Z M32 -174 C26 -209 2 -233 -53 -243 C-74 -247 -84 -256 -84 -270 C-84 -283 -76 -292 -56 -292 C-13 -292 37 -270 74 -233 C104 -203 123 -162 123 -123 C123 -79 97 -53 54 -53 C9 -53 -24 -84 -24 -122 C-24 -152 -2 -167 32 -174 L32 -174 Z " />
<glyph glyph-name="Rcaron" unicode="&#x158;" horiz-adv-x="727" d="M226 224 L341 224 L452 45 C470 15 498 -6 542 -6 C577 -6 617 17 617 64 C617 79 613 94 600 113 L514 241 C583 260 628 284 667 323 C708 364 731 422 731 489 C731 546 712 595 677 630 C630 677 559 700 455 700 L265 700 C225 700 192 672 179 623 L37 94 C20 31 48 -6 99 -6 C139 -6 172 22 185 71 L226 224 Z M263 360 L317 561 L446 561 C495 561 529 551 548 532 C563 517 570 500 570 476 C570 447 559 423 541 405 C511 375 460 360 400 360 L263 360 Z M380 788 C392 764 415 750 450 750 L494 750 C529 750 553 765 572 784 L654 863 C665 874 671 884 671 895 C671 910 658 918 639 918 C605 918 579 909 544 885 L487 846 L451 885 C422 917 397 918 363 918 C344 918 329 910 329 894 C329 885 337 871 342 862 L380 788 Z " />
<glyph glyph-name="rcaron" unicode="&#x159;" horiz-adv-x="419" d="M268 451 C281 505 256 542 206 542 C166 542 134 514 121 465 L21 94 C4 31 31 -6 82 -6 C122 -6 154 22 167 71 L200 190 C232 309 292 369 387 396 C433 409 453 434 453 474 C453 517 427 542 388 542 C342 542 301 508 265 439 L268 451 Z M215 628 C227 604 250 590 285 590 L329 590 C364 590 388 605 407 624 L489 703 C500 714 506 724 506 735 C506 750 493 758 474 758 C440 758 414 749 379 725 L322 686 L286 725 C257 757 232 758 198 758 C179 758 164 750 164 734 C164 725 172 711 177 702 L215 628 Z " />
<glyph glyph-name="Sacute" unicode="&#x15a;" horiz-adv-x="636" d="M302 125 C233 125 189 144 130 193 C120 201 102 212 81 212 C38 212 6 178 6 134 C6 107 19 84 36 70 C108 8 212 -10 295 -10 C442 -10 573 76 573 223 C573 325 501 373 405 412 C310 451 282 467 282 504 C282 539 319 575 384 575 C441 575 481 558 527 522 C538 513 553 509 569 509 C611 509 645 541 645 584 C645 615 630 633 609 648 C564 679 505 710 396 710 C246 710 118 622 118 479 C118 376 199 327 290 290 C384 252 409 232 409 198 C409 154 364 125 302 125 L302 125 Z M613 850 C629 862 635 872 635 883 C635 909 587 932 550 932 C525 932 510 917 493 899 L417 815 C408 805 404 797 404 787 C404 769 421 759 446 759 C477 759 504 769 535 792 L613 850 Z " />
<glyph glyph-name="sacute" unicode="&#x15b;" horiz-adv-x="500" d="M228 104 C182 104 136 117 85 157 C76 164 62 171 45 171 C11 171 -16 142 -16 107 C-16 85 -7 68 11 55 C65 16 139 -12 217 -12 C345 -12 437 60 437 177 C437 261 360 298 290 329 C245 349 219 364 219 385 C219 413 241 430 278 430 C317 430 354 417 392 392 C406 383 418 377 432 377 C467 377 495 406 495 442 C495 468 481 486 460 498 C418 523 355 546 289 546 C156 546 74 465 74 358 C74 272 146 237 230 201 C267 185 292 171 292 151 C292 121 268 104 228 104 L228 104 Z M504 680 C520 692 526 702 526 713 C526 739 478 762 441 762 C416 762 401 747 384 729 L308 645 C299 635 295 627 295 617 C295 599 312 589 337 589 C368 589 395 599 426 622 L504 680 Z " />
<glyph glyph-name="Scedilla" unicode="&#x15e;" horiz-adv-x="636" d="M302 125 C233 125 189 144 130 193 C120 201 102 212 81 212 C38 212 6 178 6 134 C6 107 19 84 36 70 C79 32 135 11 190 0 L110 -84 C99 -96 95 -105 95 -116 C95 -142 135 -167 163 -167 C186 -167 202 -155 215 -135 L298 -10 C444 -8 573 77 573 223 C573 325 501 373 405 412 C310 451 282 467 282 504 C282 539 319 575 384 575 C441 575 481 558 527 522 C538 513 553 509 569 509 C611 509 645 541 645 584 C645 615 630 633 609 648 C564 679 505 710 396 710 C246 710 118 622 118 479 C118 376 199 327 290 290 C384 252 409 232 409 198 C409 154 364 125 302 125 L302 125 Z " />
<glyph glyph-name="scedilla" unicode="&#x15f;" horiz-adv-x="500" d="M228 104 C182 104 136 117 85 157 C76 164 62 171 45 171 C11 171 -16 142 -16 107 C-16 85 -7 68 11 55 C43 32 82 13 125 1 L44 -84 C33 -96 29 -105 29 -116 C29 -142 69 -167 97 -167 C120 -167 136 -155 149 -135 L231 -11 C352 -6 437 64 437 177 C437 261 360 298 290 329 C245 349 219 364 219 385 C219 413 241 430 278 430 C317 430 354 417 392 392 C406 383 418 377 432 377 C467 377 495 406 495 442 C495 468 481 486 460 498 C418 523 355 546 289 546 C156 546 74 465 74 358 C74 272 146 237 230 201 C267 185 292 171 292 151 C292 121 268 104 228 104 L228 104 Z " />
<glyph glyph-name="Scaron" unicode="&#x160;" horiz-adv-x="636" d="M302 125 C233 125 189 144 130 193 C120 201 102 212 81 212 C38 212 6 178 6 134 C6 107 19 84 36 70 C108 8 212 -10 295 -10 C442 -10 573 76 573 223 C573 325 501 373 405 412 C310 451 282 467 282 504 C282 539 319 575 384 575 C441 575 481 558 527 522 C538 513 553 509 569 509 C611 509 645 541 645 584 C645 615 630 633 609 648 C564 679 505 710 396 710 C246 710 118 622 118 479 C118 376 199 327 290 290 C384 252 409 232 409 198 C409 154 364 125 302 125 L302 125 Z M349 798 C361 774 384 760 419 760 L463 760 C498 760 522 775 541 794 L623 873 C634 884 640 894 640 905 C640 920 627 928 608 928 C574 928 548 919 513 895 L456 856 L420 895 C391 927 366 928 332 928 C313 928 298 920 298 904 C298 895 306 881 311 872 L349 798 Z " />
<glyph glyph-name="scaron" unicode="&#x161;" horiz-adv-x="500" d="M228 104 C182 104 136 117 85 157 C76 164 62 171 45 171 C11 171 -16 142 -16 107 C-16 85 -7 68 11 55 C65 16 139 -12 217 -12 C345 -12 437 60 437 177 C437 261 360 298 290 329 C245 349 219 364 219 385 C219 413 241 430 278 430 C317 430 354 417 392 392 C406 383 418 377 432 377 C467 377 495 406 495 442 C495 468 481 486 460 498 C418 523 355 546 289 546 C156 546 74 465 74 358 C74 272 146 237 230 201 C267 185 292 171 292 151 C292 121 268 104 228 104 L228 104 Z M241 628 C253 604 276 590 311 590 L355 590 C390 590 414 605 433 624 L515 703 C526 714 532 724 532 735 C532 750 519 758 500 758 C466 758 440 749 405 725 L348 686 L312 725 C283 757 258 758 224 758 C205 758 190 750 190 734 C190 725 198 711 203 702 L241 628 Z " />
<glyph glyph-name="Tcommaaccent" unicode="&#x162;" horiz-adv-x="620" d="M463 558 L630 558 C669 558 701 590 701 629 C701 668 669 700 630 700 L181 700 C142 700 110 668 110 629 C110 590 142 558 181 558 L309 558 L184 94 C167 31 195 -6 246 -6 C286 -6 319 22 332 71 L463 558 Z M203 -174 C197 -209 173 -233 118 -243 C97 -247 87 -256 87 -270 C87 -283 95 -292 115 -292 C158 -292 208 -270 245 -233 C275 -203 294 -162 294 -123 C294 -79 268 -53 225 -53 C180 -53 147 -84 147 -122 C147 -152 169 -167 203 -174 L203 -174 Z " />
<glyph glyph-name="tcommaaccent" unicode="&#x163;" horiz-adv-x="415" d="M165 536 L137 536 C102 536 74 508 74 471 C74 431 104 410 130 406 L65 163 C59 139 55 118 55 96 C55 37 100 -9 194 -9 C227 -9 255 -6 283 6 C306 16 322 35 322 68 C322 106 298 125 268 125 L256 125 C231 125 218 137 218 157 C218 163 220 173 222 181 L282 406 L368 406 C403 406 431 434 431 471 C431 508 403 536 368 536 L317 536 L329 579 C346 642 319 679 268 679 C228 679 196 651 183 602 L165 536 Z M127 -174 C121 -209 97 -233 42 -243 C21 -247 11 -256 11 -270 C11 -283 19 -292 39 -292 C82 -292 132 -270 169 -233 C199 -203 218 -162 218 -123 C218 -79 192 -53 149 -53 C104 -53 71 -84 71 -122 C71 -152 93 -167 127 -174 L127 -174 Z " />
<glyph glyph-name="Tcaron" unicode="&#x164;" horiz-adv-x="620" d="M463 558 L630 558 C669 558 701 590 701 629 C701 668 669 700 630 700 L181 700 C142 700 110 668 110 629 C110 590 142 558 181 558 L309 558 L184 94 C167 31 195 -6 246 -6 C286 -6 319 22 332 71 L463 558 Z M354 788 C366 764 389 750 424 750 L468 750 C503 750 527 765 546 784 L628 863 C639 874 645 884 645 895 C645 910 632 918 613 918 C579 918 553 909 518 885 L461 846 L425 885 C396 917 371 918 337 918 C318 918 303 910 303 894 C303 885 311 871 316 862 L354 788 Z " />
<glyph glyph-name="tcaron" unicode="&#x165;" horiz-adv-x="415" d="M165 536 L137 536 C102 536 74 508 74 471 C74 431 104 410 130 406 L65 163 C59 139 55 118 55 96 C55 37 100 -9 194 -9 C227 -9 255 -6 283 6 C306 16 322 35 322 68 C322 106 298 125 268 125 L256 125 C231 125 218 137 218 157 C218 163 220 173 222 181 L282 406 L368 406 C403 406 431 434 431 471 C431 508 403 536 368 536 L317 536 L329 579 C346 642 319 679 268 679 C228 679 196 651 183 602 L165 536 Z M395 623 C394 619 393 613 393 609 C393 596 402 586 419 586 C437 586 449 595 459 613 L531 743 C538 756 543 767 543 778 C543 793 534 801 514 801 L491 801 C459 801 437 782 430 754 L395 623 Z " />
<glyph glyph-name="Umacron" unicode="&#x16a;" horiz-adv-x="764" d="M776 606 C793 669 765 706 714 706 C674 706 641 678 628 629 L541 305 C526 248 503 205 473 175 C443 146 405 131 359 131 C280 131 237 178 237 247 C237 276 242 299 248 323 L324 606 C341 669 313 706 262 706 C222 706 189 678 176 629 L98 337 C88 298 81 260 81 225 C81 76 181 -11 343 -11 C447 -11 524 18 581 75 C630 124 665 193 689 283 L776 606 Z M654 760 C683 760 707 783 707 812 C707 841 683 865 654 865 L388 865 C359 865 335 841 335 812 C335 783 359 760 388 760 L654 760 Z " />
<glyph glyph-name="umacron" unicode="&#x16b;" horiz-adv-x="622" d="M413 -6 C456 -6 488 22 501 71 L600 442 C617 505 590 542 539 542 C499 542 467 514 454 465 L392 235 C375 171 336 128 276 128 C229 128 202 151 202 194 C202 207 205 227 209 242 L263 442 C280 505 253 542 202 542 C162 542 130 514 117 465 L59 248 C50 214 41 176 41 146 C41 49 103 -10 199 -10 C259 -10 307 22 345 56 C345 22 369 -6 413 -6 L413 -6 Z M543 600 C572 600 596 623 596 652 C596 681 572 705 543 705 L277 705 C248 705 224 681 224 652 C224 623 248 600 277 600 L543 600 Z " />
<glyph glyph-name="Ubreve" unicode="&#x16c;" horiz-adv-x="764" d="M776 606 C793 669 765 706 714 706 C674 706 641 678 628 629 L541 305 C526 248 503 205 473 175 C443 146 405 131 359 131 C280 131 237 178 237 247 C237 276 242 299 248 323 L324 606 C341 669 313 706 262 706 C222 706 189 678 176 629 L98 337 C88 298 81 260 81 225 C81 76 181 -11 343 -11 C447 -11 524 18 581 75 C630 124 665 193 689 283 L776 606 Z M524 753 C604 753 661 797 695 839 C705 851 709 863 709 875 C709 902 692 918 664 918 C640 918 626 907 612 892 C592 870 565 852 535 852 C499 852 476 867 462 892 C454 907 440 918 414 918 C385 918 362 899 362 872 C362 818 423 753 524 753 L524 753 Z " />
<glyph glyph-name="ubreve" unicode="&#x16d;" horiz-adv-x="622" d="M413 -6 C456 -6 488 22 501 71 L600 442 C617 505 590 542 539 542 C499 542 467 514 454 465 L392 235 C375 171 336 128 276 128 C229 128 202 151 202 194 C202 207 205 227 209 242 L263 442 C280 505 253 542 202 542 C162 542 130 514 117 465 L59 248 C50 214 41 176 41 146 C41 49 103 -10 199 -10 C259 -10 307 22 345 56 C345 22 369 -6 413 -6 L413 -6 Z M413 593 C493 593 550 637 584 679 C594 691 598 703 598 715 C598 742 581 758 553 758 C529 758 515 747 501 732 C481 710 454 692 424 692 C388 692 365 707 351 732 C343 747 329 758 303 758 C274 758 251 739 251 712 C251 658 312 593 413 593 L413 593 Z " />
<glyph glyph-name="Uring" unicode="&#x16e;" horiz-adv-x="764" d="M776 606 C793 669 765 706 714 706 C674 706 641 678 628 629 L541 305 C526 248 503 205 473 175 C443 146 405 131 359 131 C280 131 237 178 237 247 C237 276 242 299 248 323 L324 606 C341 669 313 706 262 706 C222 706 189 678 176 629 L98 337 C88 298 81 260 81 225 C81 76 181 -11 343 -11 C447 -11 524 18 581 75 C630 124 665 193 689 283 L776 606 Z M523 748 C598 748 657 810 657 882 C657 940 615 986 547 986 C472 986 413 924 413 852 C413 794 455 748 523 748 L523 748 Z M525 803 C495 803 477 825 477 853 C477 892 504 931 545 931 C575 931 593 909 593 881 C593 842 566 803 525 803 L525 803 Z " />
<glyph glyph-name="uring" unicode="&#x16f;" horiz-adv-x="622" d="M413 -6 C456 -6 488 22 501 71 L600 442 C617 505 590 542 539 542 C499 542 467 514 454 465 L392 235 C375 171 336 128 276 128 C229 128 202 151 202 194 C202 207 205 227 209 242 L263 442 C280 505 253 542 202 542 C162 542 130 514 117 465 L59 248 C50 214 41 176 41 146 C41 49 103 -10 199 -10 C259 -10 307 22 345 56 C345 22 369 -6 413 -6 L413 -6 Z M414 593 C489 593 548 655 548 727 C548 785 506 831 438 831 C363 831 304 769 304 697 C304 639 346 593 414 593 L414 593 Z M416 648 C386 648 368 670 368 698 C368 737 395 776 436 776 C466 776 484 754 484 726 C484 687 457 648 416 648 L416 648 Z " />
<glyph glyph-name="Uhungarumlaut" unicode="&#x170;" horiz-adv-x="764" d="M776 606 C793 669 765 706 714 706 C674 706 641 678 628 629 L541 305 C526 248 503 205 473 175 C443 146 405 131 359 131 C280 131 237 178 237 247 C237 276 242 299 248 323 L324 606 C341 669 313 706 262 706 C222 706 189 678 176 629 L98 337 C88 298 81 260 81 225 C81 76 181 -11 343 -11 C447 -11 524 18 581 75 C630 124 665 193 689 283 L776 606 Z M508 922 C483 922 468 907 451 889 L375 805 C366 795 362 787 362 777 C362 759 377 749 398 749 C423 749 448 759 479 782 L557 840 C573 852 579 862 579 873 C579 899 545 922 508 922 L508 922 Z M704 922 C679 922 664 907 647 889 L571 805 C562 795 558 787 558 777 C558 759 573 749 594 749 C619 749 644 759 675 782 L753 840 C769 852 775 862 775 873 C775 899 741 922 704 922 L704 922 Z " />
<glyph glyph-name="uhungarumlaut" unicode="&#x171;" horiz-adv-x="622" d="M413 -6 C456 -6 488 22 501 71 L600 442 C617 505 590 542 539 542 C499 542 467 514 454 465 L392 235 C375 171 336 128 276 128 C229 128 202 151 202 194 C202 207 205 227 209 242 L263 442 C280 505 253 542 202 542 C162 542 130 514 117 465 L59 248 C50 214 41 176 41 146 C41 49 103 -10 199 -10 C259 -10 307 22 345 56 C345 22 369 -6 413 -6 L413 -6 Z M593 762 C568 762 553 747 536 729 L460 645 C451 635 447 627 447 617 C447 599 462 589 483 589 C508 589 533 599 564 622 L642 680 C658 692 664 702 664 713 C664 739 630 762 593 762 L593 762 Z M397 762 C372 762 357 747 340 729 L264 645 C255 635 251 627 251 617 C251 599 266 589 287 589 C312 589 337 599 368 622 L446 680 C462 692 468 702 468 713 C468 739 434 762 397 762 L397 762 Z " />
<glyph glyph-name="Uogonek" unicode="&#x172;" horiz-adv-x="764" d="M314 -168 C366 -168 387 -155 388 -130 C389 -110 378 -102 356 -95 C336 -89 326 -84 326 -69 C326 -52 337 -35 359 -11 C455 -8 527 21 581 75 C630 124 665 193 689 283 L776 606 C793 669 765 706 714 706 C674 706 641 678 628 629 L541 305 C526 248 503 205 473 175 C443 146 405 131 359 131 C280 131 237 178 237 247 C237 276 242 299 248 323 L324 606 C341 669 313 706 262 706 C222 706 189 678 176 629 L98 337 C88 298 81 260 81 225 C81 101 150 20 267 -3 C232 -35 208 -68 208 -101 C208 -144 249 -168 314 -168 L314 -168 Z " />
<glyph glyph-name="uogonek" unicode="&#x173;" horiz-adv-x="622" d="M600 442 C617 505 590 542 539 542 C499 542 467 514 454 465 L392 235 C375 171 336 128 276 128 C229 128 202 151 202 194 C202 207 205 227 209 242 L263 442 C280 505 253 542 202 542 C162 542 130 514 117 465 L59 248 C50 214 41 176 41 146 C41 49 103 -10 199 -10 C259 -10 307 22 345 56 C345 34 354 19 367 9 C324 -26 293 -63 293 -101 C293 -144 334 -168 399 -168 C451 -168 472 -155 473 -130 C474 -110 463 -102 441 -95 C421 -89 411 -84 411 -69 C411 -48 429 -26 465 10 C484 29 494 44 501 71 L600 442 Z " />
<glyph glyph-name="Wcircumflex" unicode="&#x174;" horiz-adv-x="1108" d="M1151 602 C1157 612 1164 629 1164 643 C1164 682 1134 706 1092 706 C1055 706 1028 685 1010 655 L754 226 L726 647 C723 686 699 708 656 708 L647 708 C606 708 580 684 558 647 L308 226 L282 642 C280 682 251 706 206 706 C159 706 126 675 126 635 C126 625 127 610 128 599 L176 57 C180 12 206 -11 248 -11 L255 -11 C300 -11 333 15 355 51 L595 444 L625 57 C627 11 654 -11 696 -11 L703 -11 C745 -11 779 7 806 51 L1151 602 Z M797 879 C785 903 762 917 727 917 L683 917 C648 917 624 902 605 883 L523 804 C512 793 506 783 506 772 C506 757 519 749 538 749 C572 749 598 758 633 782 L690 821 L726 782 C755 750 780 749 814 749 C833 749 848 757 848 773 C848 782 840 796 835 805 L797 879 Z " />
<glyph glyph-name="wcircumflex" unicode="&#x175;" horiz-adv-x="857" d="M105 58 C107 12 132 -10 174 -10 L179 -10 C221 -10 256 14 278 52 L438 325 L451 58 C453 13 478 -10 520 -10 L525 -10 C567 -10 601 13 624 52 L859 444 C865 454 871 472 871 485 C871 520 849 542 810 542 C779 542 754 523 739 497 L575 210 L563 482 C561 521 535 543 495 543 L487 543 C447 543 419 519 398 482 L242 211 L235 478 C234 518 203 542 159 542 C120 542 81 511 81 471 C81 461 82 446 83 435 L105 58 Z M635 719 C623 743 600 757 565 757 L521 757 C486 757 462 742 443 723 L361 644 C350 633 344 623 344 612 C344 597 357 589 376 589 C410 589 436 598 471 622 L528 661 L564 622 C593 590 618 589 652 589 C671 589 686 597 686 613 C686 622 678 636 673 645 L635 719 Z " />
<glyph glyph-name="Ycircumflex" unicode="&#x176;" horiz-adv-x="650" d="M392 256 L702 583 C715 597 728 620 728 644 C728 683 704 707 664 707 C632 707 607 691 581 663 L347 406 L258 646 C244 685 222 706 183 706 C134 706 100 674 100 633 C100 611 108 592 115 575 L241 270 L194 94 C177 31 205 -6 256 -6 C296 -6 329 22 342 71 L392 256 Z M566 879 C554 903 531 917 496 917 L452 917 C417 917 393 902 374 883 L292 804 C281 793 275 783 275 772 C275 757 288 749 307 749 C341 749 367 758 402 782 L459 821 L495 782 C524 750 549 749 583 749 C602 749 617 757 617 773 C617 782 609 796 604 805 L566 879 Z " />
<glyph glyph-name="ycircumflex" unicode="&#x177;" horiz-adv-x="592" d="M62 -27 C51 -24 41 -20 31 -20 C0 -20 -29 -49 -29 -86 C-29 -123 -6 -142 17 -152 C37 -161 63 -163 89 -163 C176 -163 237 -123 306 -13 L584 431 C597 452 604 470 604 483 C604 520 577 542 538 542 C503 542 477 523 461 494 L273 168 L242 477 C240 517 209 542 168 542 C126 542 92 511 92 471 C92 461 93 446 95 435 L159 -3 C141 -27 125 -35 107 -35 C89 -35 77 -31 62 -27 L62 -27 Z M496 719 C484 743 461 757 426 757 L382 757 C347 757 323 742 304 723 L222 644 C211 633 205 623 205 612 C205 597 218 589 237 589 C271 589 297 598 332 622 L389 661 L425 622 C454 590 479 589 513 589 C532 589 547 597 547 613 C547 622 539 636 534 645 L496 719 Z " />
<glyph glyph-name="Ydieresis" unicode="&#x178;" horiz-adv-x="650" d="M392 256 L702 583 C715 597 728 620 728 644 C728 683 704 707 664 707 C632 707 607 691 581 663 L347 406 L258 646 C244 685 222 706 183 706 C134 706 100 674 100 633 C100 611 108 592 115 575 L241 270 L194 94 C177 31 205 -6 256 -6 C296 -6 329 22 342 71 L392 256 Z M430 821 L431 825 C439 864 409 896 365 896 C321 896 283 869 274 825 L273 821 C263 779 293 749 339 749 C384 749 421 776 430 821 L430 821 Z M644 821 L645 825 C653 864 623 896 579 896 C535 896 497 869 488 825 L487 821 C477 779 507 749 553 749 C598 749 635 776 644 821 L644 821 Z " />
<glyph glyph-name="Zacute" unicode="&#x179;" horiz-adv-x="689" d="M35 138 C10 114 -7 89 -7 62 L-7 60 C-7 23 19 0 60 0 L521 0 C558 0 589 30 589 67 C589 104 558 135 521 135 L225 135 L694 562 C719 586 736 611 736 638 L736 640 C736 677 710 700 669 700 L224 700 C187 700 156 669 156 632 C156 595 187 565 224 565 L504 565 L35 138 Z M643 840 C659 852 665 862 665 873 C665 899 617 922 580 922 C555 922 540 907 523 889 L447 805 C438 795 434 787 434 777 C434 759 451 749 476 749 C507 749 534 759 565 782 L643 840 Z " />
<glyph glyph-name="zacute" unicode="&#x17a;" horiz-adv-x="557" d="M165 536 C131 536 103 508 103 474 C103 440 131 413 165 413 L353 413 L23 125 C-4 102 -14 82 -14 57 L-14 56 C-14 21 12 0 54 0 L399 0 C433 0 461 27 461 61 C461 95 433 123 399 123 L199 123 L530 411 C557 434 567 454 567 479 L567 480 C567 515 541 536 499 536 L165 536 Z M530 680 C546 692 552 702 552 713 C552 739 504 762 467 762 C442 762 427 747 410 729 L334 645 C325 635 321 627 321 617 C321 599 338 589 363 589 C394 589 421 599 452 622 L530 680 Z " />
<glyph glyph-name="Zdotaccent" unicode="&#x17b;" horiz-adv-x="689" d="M35 138 C10 114 -7 89 -7 62 L-7 60 C-7 23 19 0 60 0 L521 0 C558 0 589 30 589 67 C589 104 558 135 521 135 L225 135 L694 562 C719 586 736 611 736 638 L736 640 C736 677 710 700 669 700 L224 700 C187 700 156 669 156 632 C156 595 187 565 224 565 L504 565 L35 138 Z M561 821 L562 825 C570 864 538 896 494 896 C450 896 410 869 401 825 L400 821 C390 779 422 749 468 749 C513 749 552 776 561 821 L561 821 Z " />
<glyph glyph-name="zdotaccent" unicode="&#x17c;" horiz-adv-x="557" d="M165 536 C131 536 103 508 103 474 C103 440 131 413 165 413 L353 413 L23 125 C-4 102 -14 82 -14 57 L-14 56 C-14 21 12 0 54 0 L399 0 C433 0 461 27 461 61 C461 95 433 123 399 123 L199 123 L530 411 C557 434 567 454 567 479 L567 480 C567 515 541 536 499 536 L165 536 Z M449 661 L450 665 C458 704 426 736 382 736 C338 736 298 709 289 665 L288 661 C278 619 310 589 356 589 C401 589 440 616 449 661 L449 661 Z " />
<glyph glyph-name="Zcaron" unicode="&#x17d;" horiz-adv-x="689" d="M35 138 C10 114 -7 89 -7 62 L-7 60 C-7 23 19 0 60 0 L521 0 C558 0 589 30 589 67 C589 104 558 135 521 135 L225 135 L694 562 C719 586 736 611 736 638 L736 640 C736 677 710 700 669 700 L224 700 C187 700 156 669 156 632 C156 595 187 565 224 565 L504 565 L35 138 Z M379 788 C391 764 414 750 449 750 L493 750 C528 750 552 765 571 784 L653 863 C664 874 670 884 670 895 C670 910 657 918 638 918 C604 918 578 909 543 885 L486 846 L450 885 C421 917 396 918 362 918 C343 918 328 910 328 894 C328 885 336 871 341 862 L379 788 Z " />
<glyph glyph-name="zcaron" unicode="&#x17e;" horiz-adv-x="557" d="M165 536 C131 536 103 508 103 474 C103 440 131 413 165 413 L353 413 L23 125 C-4 102 -14 82 -14 57 L-14 56 C-14 21 12 0 54 0 L399 0 C433 0 461 27 461 61 C461 95 433 123 399 123 L199 123 L530 411 C557 434 567 454 567 479 L567 480 C567 515 541 536 499 536 L165 536 Z M267 628 C279 604 302 590 337 590 L381 590 C416 590 440 605 459 624 L541 703 C552 714 558 724 558 735 C558 750 545 758 526 758 C492 758 466 749 431 725 L374 686 L338 725 C309 757 284 758 250 758 C231 758 216 750 216 734 C216 725 224 711 229 702 L267 628 Z " />
<glyph glyph-name="florin" unicode="&#x192;" horiz-adv-x="543" d="M61 -12 C139 -12 207 28 253 132 L347 344 L447 344 C482 344 510 371 510 406 C510 441 482 469 447 469 L403 469 L422 511 C442 556 476 583 516 583 C523 583 538 583 546 582 C577 579 613 602 613 646 C613 680 595 698 562 706 C554 708 529 711 511 711 C418 711 338 656 293 555 L255 469 L202 469 C167 469 139 441 139 406 C139 371 167 344 197 344 L199 344 L125 178 C105 133 81 115 48 114 C18 113 -20 97 -20 53 C-20 7 19 -12 61 -12 L61 -12 Z " />
<glyph glyph-name="Aringacute" unicode="&#x1fa;" horiz-adv-x="765" d="M51 -6 C83 -6 110 15 129 42 L209 157 L519 157 L535 55 C540 20 567 -6 610 -6 C656 -6 689 28 689 68 C689 78 686 94 684 108 L582 682 C618 706 641 748 641 793 C641 851 599 897 531 897 C456 897 397 835 397 763 C397 735 406 709 424 691 L6 105 C-6 89 -12 70 -12 54 C-12 18 11 -6 51 -6 L51 -6 Z M303 293 L461 524 L497 293 L303 293 Z M509 714 C479 714 461 736 461 764 C461 803 488 842 529 842 C559 842 577 820 577 792 C577 753 550 714 509 714 L509 714 Z M734 1005 C750 1017 756 1027 756 1038 C756 1064 708 1087 671 1087 C646 1087 631 1072 614 1054 L538 970 C529 960 525 952 525 942 C525 924 542 914 567 914 C598 914 625 924 656 947 L734 1005 Z " />
<glyph glyph-name="aringacute" unicode="&#x1fb;" horiz-adv-x="588" d="M388 -6 C428 -6 460 22 473 71 L533 296 C540 323 545 349 545 377 C545 482 472 542 328 542 C269 542 214 533 164 517 C138 509 118 488 118 458 C118 423 144 397 178 397 C185 397 194 399 203 401 C229 408 265 413 296 413 C371 413 397 387 397 350 C397 334 394 322 391 310 L389 303 C344 317 296 327 238 327 C108 327 7 258 7 134 C7 50 70 -10 163 -10 C226 -10 280 16 323 62 C321 32 329 -6 388 -6 L388 -6 Z M394 593 C469 593 528 655 528 727 C528 785 486 831 418 831 C343 831 284 769 284 697 C284 639 326 593 394 593 L394 593 Z M608 946 C624 958 630 968 630 979 C630 1005 582 1028 545 1028 C520 1028 505 1013 488 995 L412 911 C403 901 399 893 399 883 C399 865 416 855 441 855 C472 855 499 865 530 888 L608 946 Z M228 94 C185 94 158 118 158 151 C158 203 204 235 267 235 C304 235 341 226 367 216 L363 202 C346 144 291 94 228 94 L228 94 Z M396 648 C366 648 348 670 348 698 C348 737 375 776 416 776 C446 776 464 754 464 726 C464 687 437 648 396 648 L396 648 Z " />
<glyph glyph-name="AEacute" unicode="&#x1fc;" horiz-adv-x="1058" d="M340 293 L558 567 L577 567 L504 293 L340 293 Z M561 700 C519 700 485 676 459 644 L26 108 C10 88 3 67 3 49 C3 17 24 -6 62 -6 C93 -6 113 10 136 38 L231 157 L467 157 L451 100 C433 37 462 0 513 0 L888 0 C926 0 957 30 957 68 C957 106 926 137 888 137 L614 137 L654 285 L914 285 C952 285 983 314 983 352 C983 390 952 420 914 420 L691 420 L729 563 L1034 563 C1072 563 1103 593 1103 631 C1103 669 1072 700 1034 700 L561 700 Z M905 840 C921 852 927 862 927 873 C927 899 879 922 842 922 C817 922 802 907 785 889 L709 805 C700 795 696 787 696 777 C696 759 713 749 738 749 C769 749 796 759 827 782 L905 840 Z " />
<glyph glyph-name="aeacute" unicode="&#x1fd;" horiz-adv-x="940" d="M911 337 C911 456 831 546 697 546 C620 546 553 512 504 463 C475 514 415 542 328 542 C269 542 214 533 164 517 C138 509 118 488 118 458 C118 423 144 397 178 397 C185 397 194 399 203 401 C229 408 265 413 296 413 C371 413 397 387 397 350 C397 334 394 322 391 310 L389 303 C344 317 296 327 238 327 C108 327 7 258 7 134 C7 48 68 -10 178 -10 C275 -10 356 27 418 91 C458 22 531 -12 622 -12 C689 -12 749 5 796 36 C813 47 825 66 825 87 C825 121 800 145 768 145 C752 145 735 138 722 131 C702 120 672 110 639 110 C559 110 522 152 517 215 L832 215 C872 215 895 238 905 282 C909 300 911 320 911 337 L911 337 Z M267 235 C307 235 343 227 386 208 C387 192 389 176 392 162 C348 118 285 94 238 94 C185 94 158 118 158 151 C158 203 204 235 267 235 L267 235 Z M726 680 C742 692 748 702 748 713 C748 739 700 762 663 762 C638 762 623 747 606 729 L530 645 C521 635 517 627 517 617 C517 599 534 589 559 589 C590 589 617 599 648 622 L726 680 Z M530 310 C555 378 611 424 680 424 C742 424 768 389 768 345 C768 332 766 320 763 310 L530 310 Z " />
<glyph glyph-name="Oslashacute" unicode="&#x1fe;" horiz-adv-x="832" d="M221 308 C221 429 323 577 470 577 C522 577 564 561 594 535 L234 231 C225 254 221 280 221 308 L221 308 Z M405 123 C356 123 317 135 288 157 L644 457 C651 437 654 415 654 392 C654 271 552 123 405 123 L405 123 Z M173 60 C228 15 301 -12 387 -12 C638 -12 808 193 808 402 C808 460 794 513 769 558 L838 618 C855 633 869 648 869 668 C869 692 853 711 824 711 C805 711 789 700 777 690 L709 633 C654 682 578 712 488 712 C237 712 67 507 67 298 C67 236 82 179 111 132 L53 82 C36 67 22 52 22 32 C22 8 38 -11 67 -11 C86 -11 102 0 114 10 L173 60 Z M736 850 C752 862 758 872 758 883 C758 909 710 932 673 932 C648 932 633 917 616 899 L540 815 C531 805 527 797 527 787 C527 769 544 759 569 759 C600 759 627 769 658 792 L736 850 Z " />
<glyph glyph-name="oslashacute" unicode="&#x1ff;" horiz-adv-x="652" d="M307 113 C280 113 259 118 241 127 L461 338 C464 324 466 310 466 294 C466 212 400 113 307 113 L307 113 Z M186 240 C186 320 252 421 345 421 C368 421 389 417 405 409 L189 202 C187 214 186 226 186 240 L186 240 Z M142 32 C184 4 237 -12 300 -12 C472 -12 610 138 610 298 C610 352 596 400 570 440 L593 461 C605 472 617 486 617 506 C617 529 599 547 572 547 C553 547 536 536 525 526 L503 505 C463 531 412 546 352 546 C180 546 42 396 42 236 C42 185 54 138 78 100 L51 75 C39 64 27 50 27 30 C27 7 45 -11 72 -11 C91 -11 108 0 119 10 L142 32 Z M589 680 C605 692 611 702 611 713 C611 739 563 762 526 762 C501 762 486 747 469 729 L393 645 C384 635 380 627 380 617 C380 599 397 589 422 589 C453 589 480 599 511 622 L589 680 Z " />
<glyph glyph-name="Scommaaccent" unicode="&#x218;" horiz-adv-x="636" d="M302 125 C233 125 189 144 130 193 C120 201 102 212 81 212 C38 212 6 178 6 134 C6 107 19 84 36 70 C108 8 212 -10 295 -10 C442 -10 573 76 573 223 C573 325 501 373 405 412 C310 451 282 467 282 504 C282 539 319 575 384 575 C441 575 481 558 527 522 C538 513 553 509 569 509 C611 509 645 541 645 584 C645 615 630 633 609 648 C564 679 505 710 396 710 C246 710 118 622 118 479 C118 376 199 327 290 290 C384 252 409 232 409 198 C409 154 364 125 302 125 L302 125 Z M199 -179 C193 -214 169 -238 114 -248 C93 -252 83 -261 83 -275 C83 -288 91 -297 111 -297 C154 -297 204 -275 241 -238 C271 -208 290 -167 290 -128 C290 -84 264 -58 221 -58 C176 -58 143 -89 143 -127 C143 -157 165 -172 199 -179 L199 -179 Z " />
<glyph glyph-name="scommaaccent" unicode="&#x219;" horiz-adv-x="500" d="M228 104 C182 104 136 117 85 157 C76 164 62 171 45 171 C11 171 -16 142 -16 107 C-16 85 -7 68 11 55 C65 16 139 -12 217 -12 C345 -12 437 60 437 177 C437 261 360 298 290 329 C245 349 219 364 219 385 C219 413 241 430 278 430 C317 430 354 417 392 392 C406 383 418 377 432 377 C467 377 495 406 495 442 C495 468 481 486 460 498 C418 523 355 546 289 546 C156 546 74 465 74 358 C74 272 146 237 230 201 C267 185 292 171 292 151 C292 121 268 104 228 104 L228 104 Z M128 -174 C122 -209 98 -233 43 -243 C22 -247 12 -256 12 -270 C12 -283 20 -292 40 -292 C83 -292 133 -270 170 -233 C200 -203 219 -162 219 -123 C219 -79 193 -53 150 -53 C105 -53 72 -84 72 -122 C72 -152 94 -167 128 -174 L128 -174 Z " />
<glyph glyph-name="schwa" unicode="&#x259;" horiz-adv-x="607" d="M301 426 C381 426 418 384 423 321 L108 321 C68 321 45 298 35 254 C31 236 29 216 29 199 C29 80 109 -10 248 -10 C440 -10 566 155 566 310 C566 458 472 548 318 548 C251 548 191 531 144 500 C127 489 115 470 115 449 C115 415 140 391 172 391 C188 391 205 398 218 405 C238 416 268 426 301 426 L301 426 Z M410 226 C385 158 329 112 260 112 C198 112 172 147 172 191 C172 204 174 216 177 226 L410 226 Z " />
<glyph glyph-name="circumflex" unicode="&#x2c6;" horiz-adv-x="500" d="M469 719 C457 743 434 757 399 757 L355 757 C320 757 296 742 277 723 L195 644 C184 633 178 623 178 612 C178 597 191 589 210 589 C244 589 270 598 305 622 L362 661 L398 622 C427 590 452 589 486 589 C505 589 520 597 520 613 C520 622 512 636 507 645 L469 719 Z " />
<glyph glyph-name="caron" unicode="&#x2c7;" horiz-adv-x="500" d="M245 628 C257 604 280 590 315 590 L359 590 C394 590 418 605 437 624 L519 703 C530 714 536 724 536 735 C536 750 523 758 504 758 C470 758 444 749 409 725 L352 686 L316 725 C287 757 262 758 228 758 C209 758 194 750 194 734 C194 725 202 711 207 702 L245 628 Z " />
<glyph glyph-name="breve" unicode="&#x2d8;" horiz-adv-x="500" d="M359 593 C439 593 496 637 530 679 C540 691 544 703 544 715 C544 742 527 758 499 758 C475 758 461 747 447 732 C427 710 400 692 370 692 C334 692 311 707 297 732 C289 747 275 758 249 758 C220 758 197 739 197 712 C197 658 258 593 359 593 L359 593 Z " />
<glyph glyph-name="dotaccent" unicode="&#x2d9;" horiz-adv-x="500" d="M437 661 L438 665 C446 704 414 736 370 736 C326 736 286 709 277 665 L276 661 C266 619 298 589 344 589 C389 589 428 616 437 661 L437 661 Z " />
<glyph glyph-name="ring" unicode="&#x2da;" horiz-adv-x="500" d="M357 593 C432 593 491 655 491 727 C491 785 449 831 381 831 C306 831 247 769 247 697 C247 639 289 593 357 593 L357 593 Z M359 648 C329 648 311 670 311 698 C311 737 338 776 379 776 C409 776 427 754 427 726 C427 687 400 648 359 648 L359 648 Z " />
<glyph glyph-name="ogonek" unicode="&#x2db;" horiz-adv-x="500" d="M190 -168 C242 -168 263 -155 264 -130 C265 -110 254 -102 232 -95 C212 -89 202 -84 202 -69 C202 -48 220 -26 256 10 L159 10 C116 -26 84 -63 84 -101 C84 -144 125 -168 190 -168 L190 -168 Z " />
<glyph glyph-name="tilde" unicode="&#x2dc;" horiz-adv-x="500" d="M191 592 C213 592 224 601 236 615 C254 637 270 647 290 647 C306 647 317 640 343 621 C367 604 387 592 422 592 C478 592 526 635 558 692 C563 701 566 712 566 721 C566 744 548 761 524 761 C502 761 491 752 479 738 C461 716 445 706 425 706 C409 706 398 713 372 732 C349 749 328 761 293 761 C237 761 189 718 157 661 C152 652 149 641 149 632 C149 609 167 592 191 592 L191 592 Z " />
<glyph glyph-name="hungarumlaut" unicode="&#x2dd;" horiz-adv-x="500" d="M300 762 C275 762 260 747 243 729 L167 645 C158 635 154 627 154 617 C154 599 169 589 190 589 C215 589 240 599 271 622 L349 680 C365 692 371 702 371 713 C371 739 337 762 300 762 L300 762 Z M496 762 C471 762 456 747 439 729 L363 645 C354 635 350 627 350 617 C350 599 365 589 386 589 C411 589 436 599 467 622 L545 680 C561 692 567 702 567 713 C567 739 533 762 496 762 L496 762 Z " />
<glyph glyph-name="commaaccent" unicode="&#x326;" horiz-adv-x="500" d="M130 -174 C124 -209 100 -233 45 -243 C24 -247 14 -256 14 -270 C14 -283 22 -292 42 -292 C85 -292 135 -270 172 -233 C202 -203 221 -162 221 -123 C221 -79 195 -53 152 -53 C107 -53 74 -84 74 -122 C74 -152 96 -167 130 -174 L130 -174 Z " />
<glyph glyph-name="Wgrave" unicode="&#x1e80;" horiz-adv-x="1108" d="M1151 602 C1157 612 1164 629 1164 643 C1164 682 1134 706 1092 706 C1055 706 1028 685 1010 655 L754 226 L726 647 C723 686 699 708 656 708 L647 708 C606 708 580 684 558 647 L308 226 L282 642 C280 682 251 706 206 706 C159 706 126 675 126 635 C126 625 127 610 128 599 L176 57 C180 12 206 -11 248 -11 L255 -11 C300 -11 333 15 355 51 L595 444 L625 57 C627 11 654 -11 696 -11 L703 -11 C745 -11 779 7 806 51 L1151 602 Z M592 782 C613 755 626 749 655 749 C685 749 703 762 703 782 C703 790 702 794 699 803 L669 885 C660 910 644 922 616 922 C579 922 532 897 532 872 C532 860 538 851 546 840 L592 782 Z " />
<glyph glyph-name="wgrave" unicode="&#x1e81;" horiz-adv-x="857" d="M105 58 C107 12 132 -10 174 -10 L179 -10 C221 -10 256 14 278 52 L438 325 L451 58 C453 13 478 -10 520 -10 L525 -10 C567 -10 601 13 624 52 L859 444 C865 454 871 472 871 485 C871 520 849 542 810 542 C779 542 754 523 739 497 L575 210 L563 482 C561 521 535 543 495 543 L487 543 C447 543 419 519 398 482 L242 211 L235 478 C234 518 203 542 159 542 C120 542 81 511 81 471 C81 461 82 446 83 435 L105 58 Z M429 622 C450 595 463 589 492 589 C522 589 540 602 540 622 C540 630 539 634 536 643 L506 725 C497 750 481 762 453 762 C416 762 369 737 369 712 C369 700 375 691 383 680 L429 622 Z " />
<glyph glyph-name="Wacute" unicode="&#x1e82;" horiz-adv-x="1108" d="M1151 602 C1157 612 1164 629 1164 643 C1164 682 1134 706 1092 706 C1055 706 1028 685 1010 655 L754 226 L726 647 C723 686 699 708 656 708 L647 708 C606 708 580 684 558 647 L308 226 L282 642 C280 682 251 706 206 706 C159 706 126 675 126 635 C126 625 127 610 128 599 L176 57 C180 12 206 -11 248 -11 L255 -11 C300 -11 333 15 355 51 L595 444 L625 57 C627 11 654 -11 696 -11 L703 -11 C745 -11 779 7 806 51 L1151 602 Z M852 840 C868 852 874 862 874 873 C874 899 826 922 789 922 C764 922 749 907 732 889 L656 805 C647 795 643 787 643 777 C643 759 660 749 685 749 C716 749 743 759 774 782 L852 840 Z " />
<glyph glyph-name="wacute" unicode="&#x1e83;" horiz-adv-x="857" d="M105 58 C107 12 132 -10 174 -10 L179 -10 C221 -10 256 14 278 52 L438 325 L451 58 C453 13 478 -10 520 -10 L525 -10 C567 -10 601 13 624 52 L859 444 C865 454 871 472 871 485 C871 520 849 542 810 542 C779 542 754 523 739 497 L575 210 L563 482 C561 521 535 543 495 543 L487 543 C447 543 419 519 398 482 L242 211 L235 478 C234 518 203 542 159 542 C120 542 81 511 81 471 C81 461 82 446 83 435 L105 58 Z M689 680 C705 692 711 702 711 713 C711 739 663 762 626 762 C601 762 586 747 569 729 L493 645 C484 635 480 627 480 617 C480 599 497 589 522 589 C553 589 580 599 611 622 L689 680 Z " />
<glyph glyph-name="Wdieresis" unicode="&#x1e84;" horiz-adv-x="1108" d="M1151 602 C1157 612 1164 629 1164 643 C1164 682 1134 706 1092 706 C1055 706 1028 685 1010 655 L754 226 L726 647 C723 686 699 708 656 708 L647 708 C606 708 580 684 558 647 L308 226 L282 642 C280 682 251 706 206 706 C159 706 126 675 126 635 C126 625 127 610 128 599 L176 57 C180 12 206 -11 248 -11 L255 -11 C300 -11 333 15 355 51 L595 444 L625 57 C627 11 654 -11 696 -11 L703 -11 C745 -11 779 7 806 51 L1151 602 Z M661 821 L662 825 C670 864 640 896 596 896 C552 896 514 869 505 825 L504 821 C494 779 524 749 570 749 C615 749 652 776 661 821 L661 821 Z M875 821 L876 825 C884 864 854 896 810 896 C766 896 728 869 719 825 L718 821 C708 779 738 749 784 749 C829 749 866 776 875 821 L875 821 Z " />
<glyph glyph-name="wdieresis" unicode="&#x1e85;" horiz-adv-x="857" d="M105 58 C107 12 132 -10 174 -10 L179 -10 C221 -10 256 14 278 52 L438 325 L451 58 C453 13 478 -10 520 -10 L525 -10 C567 -10 601 13 624 52 L859 444 C865 454 871 472 871 485 C871 520 849 542 810 542 C779 542 754 523 739 497 L575 210 L563 482 C561 521 535 543 495 543 L487 543 C447 543 419 519 398 482 L242 211 L235 478 C234 518 203 542 159 542 C120 542 81 511 81 471 C81 461 82 446 83 435 L105 58 Z M499 661 L500 665 C508 704 478 736 434 736 C390 736 352 709 343 665 L342 661 C332 619 362 589 408 589 C453 589 490 616 499 661 L499 661 Z M713 661 L714 665 C722 704 692 736 648 736 C604 736 566 709 557 665 L556 661 C546 619 576 589 622 589 C667 589 704 616 713 661 L713 661 Z " />
<glyph glyph-name="Ygrave" unicode="&#x1ef2;" horiz-adv-x="650" d="M392 256 L702 583 C715 597 728 620 728 644 C728 683 704 707 664 707 C632 707 607 691 581 663 L347 406 L258 646 C244 685 222 706 183 706 C134 706 100 674 100 633 C100 611 108 592 115 575 L241 270 L194 94 C177 31 205 -6 256 -6 C296 -6 329 22 342 71 L392 256 Z M361 782 C382 755 395 749 424 749 C454 749 472 762 472 782 C472 790 471 794 468 803 L438 885 C429 910 413 922 385 922 C348 922 301 897 301 872 C301 860 307 851 315 840 L361 782 Z " />
<glyph glyph-name="ygrave" unicode="&#x1ef3;" horiz-adv-x="592" d="M62 -27 C51 -24 41 -20 31 -20 C0 -20 -29 -49 -29 -86 C-29 -123 -6 -142 17 -152 C37 -161 63 -163 89 -163 C176 -163 237 -123 306 -13 L584 431 C597 452 604 470 604 483 C604 520 577 542 538 542 C503 542 477 523 461 494 L273 168 L242 477 C240 517 209 542 168 542 C126 542 92 511 92 471 C92 461 93 446 95 435 L159 -3 C141 -27 125 -35 107 -35 C89 -35 77 -31 62 -27 L62 -27 Z M291 622 C312 595 325 589 354 589 C384 589 402 602 402 622 C402 630 401 634 398 643 L368 725 C359 750 343 762 315 762 C278 762 231 737 231 712 C231 700 237 691 245 680 L291 622 Z " />
<glyph glyph-name="enspace" unicode="&#x2002;" horiz-adv-x="500" d="" />
<glyph glyph-name="emspace" unicode="&#x2003;" horiz-adv-x="1000" d="" />
<glyph glyph-name="threeperemspace" unicode="&#x2004;" horiz-adv-x="333" d="" />
<glyph glyph-name="fourperemspace" unicode="&#x2005;" horiz-adv-x="250" d="" />
<glyph glyph-name="thinspace" unicode="&#x2009;" horiz-adv-x="133" d="" />
<glyph glyph-name="hairspace" unicode="&#x200a;" horiz-adv-x="75" d="" />
<glyph glyph-name="endash" unicode="&#x2013;" horiz-adv-x="531" d="M131 239 L424 239 C464 239 497 270 497 310 C497 350 464 381 424 381 L131 381 C91 381 58 350 58 310 C58 270 91 239 131 239 L131 239 Z " />
<glyph glyph-name="emdash" unicode="&#x2014;" horiz-adv-x="901" d="M131 239 L794 239 C834 239 867 270 867 310 C867 350 834 381 794 381 L131 381 C91 381 58 350 58 310 C58 270 91 239 131 239 L131 239 Z " />
<glyph glyph-name="quoteleft" unicode="&#x2018;" horiz-adv-x="319" d="M337 638 C359 643 372 653 372 673 C372 690 363 706 336 706 C299 706 248 686 212 656 C167 619 131 565 117 495 L116 490 C102 420 128 378 187 378 C234 378 270 411 280 459 L281 464 C290 511 266 535 233 544 C238 593 274 625 337 638 L337 638 Z " />
<glyph glyph-name="quoteright" unicode="&#x2019;" horiz-adv-x="319" d="M106 446 C84 441 71 431 71 411 C71 394 80 378 107 378 C144 378 195 398 231 428 C276 465 312 519 326 589 L327 594 C341 664 315 706 256 706 C209 706 173 673 163 625 L162 620 C153 573 177 549 210 540 C205 491 169 459 106 446 L106 446 Z " />
<glyph glyph-name="quotesinglbase" unicode="&#x201a;" horiz-adv-x="319" d="M-32 -94 C-54 -99 -67 -109 -67 -129 C-67 -146 -58 -162 -31 -162 C6 -162 57 -142 93 -112 C138 -75 174 -21 188 49 L189 54 C203 124 177 166 118 166 C71 166 35 133 25 85 L24 80 C15 33 39 9 72 0 C67 -49 31 -81 -32 -94 L-32 -94 Z " />
<glyph glyph-name="quotedblleft" unicode="&#x201c;" horiz-adv-x="573" d="M443 377 C490 377 526 410 536 458 L537 463 C546 510 522 534 489 543 C494 592 530 624 593 637 C615 642 628 652 628 672 C628 689 619 705 592 705 C555 705 504 685 468 655 C423 618 387 564 373 494 L372 489 C358 419 384 377 443 377 L443 377 Z M189 377 C236 377 272 410 282 458 L283 463 C292 510 268 534 235 543 C240 592 276 624 339 637 C361 642 374 652 374 672 C374 689 365 705 338 705 C301 705 250 685 214 655 C169 618 133 564 119 494 L118 489 C104 419 130 377 189 377 L189 377 Z " />
<glyph glyph-name="quotedblright" unicode="&#x201d;" horiz-adv-x="573" d="M106 446 C84 441 71 431 71 411 C71 394 80 378 107 378 C144 378 195 398 231 428 C276 465 312 519 326 589 L327 594 C341 664 315 706 256 706 C209 706 173 673 163 625 L162 620 C153 573 177 549 210 540 C205 491 169 459 106 446 L106 446 Z M360 446 C338 441 325 431 325 411 C325 394 334 378 361 378 C398 378 449 398 485 428 C530 465 566 519 580 589 L581 594 C595 664 569 706 510 706 C463 706 427 673 417 625 L416 620 C407 573 431 549 464 540 C459 491 423 459 360 446 L360 446 Z " />
<glyph glyph-name="quotedblbase" unicode="&#x201e;" horiz-adv-x="573" d="M-32 -94 C-54 -99 -67 -109 -67 -129 C-67 -146 -58 -162 -31 -162 C6 -162 57 -142 93 -112 C138 -75 174 -21 188 49 L189 54 C203 124 177 166 118 166 C71 166 35 133 25 85 L24 80 C15 33 39 9 72 0 C67 -49 31 -81 -32 -94 L-32 -94 Z M222 -94 C200 -99 187 -109 187 -129 C187 -146 196 -162 223 -162 C260 -162 311 -142 347 -112 C392 -75 428 -21 442 49 L443 54 C457 124 431 166 372 166 C325 166 289 133 279 85 L278 80 C269 33 293 9 326 0 C321 -49 285 -81 222 -94 L222 -94 Z " />
<glyph glyph-name="dagger" unicode="&#x2020;" horiz-adv-x="412" d="M348 647 C362 684 348 706 316 706 C292 706 274 691 269 661 L254 571 L163 579 C138 581 121 563 121 541 C121 518 138 500 164 502 L238 508 L170 284 C160 251 176 232 203 232 C226 232 241 245 248 273 L302 508 L394 500 C419 498 437 516 437 539 C437 561 419 579 395 577 L320 571 L348 647 Z " />
<glyph glyph-name="daggerdbl" unicode="&#x2021;" horiz-adv-x="412" d="M270 350 L303 508 L394 500 C419 498 437 516 437 539 C437 561 419 579 395 577 L320 571 L348 647 C362 684 348 706 316 706 C292 706 274 691 269 661 L254 571 L163 579 C138 581 121 563 121 541 C121 518 138 500 164 502 L237 508 L186 350 L152 192 L61 200 C36 202 18 184 18 161 C18 139 36 121 60 123 L136 129 L107 53 C93 16 107 -6 139 -6 C163 -6 181 9 186 39 L202 129 L292 121 C317 119 334 137 334 159 C334 182 317 200 291 198 L218 192 L270 350 Z " />
<glyph glyph-name="bullet" unicode="&#x2022;" horiz-adv-x="500" d="M246 200 C346 200 414 299 414 390 C414 460 371 506 298 506 C198 506 130 407 130 316 C130 246 173 200 246 200 L246 200 Z " />
<glyph glyph-name="ellipsis" unicode="&#x2026;" horiz-adv-x="872" d="M195 75 L196 81 C204 128 173 162 121 162 C70 162 31 130 22 81 L21 75 C13 28 44 -6 96 -6 C147 -6 187 27 195 75 L195 75 Z M474 75 L475 81 C483 128 452 162 400 162 C349 162 310 130 301 81 L300 75 C292 28 323 -6 375 -6 C426 -6 466 27 474 75 L474 75 Z M753 75 L754 81 C762 128 731 162 679 162 C628 162 589 130 580 81 L579 75 C571 28 602 -6 654 -6 C705 -6 745 27 753 75 L753 75 Z " />
<glyph glyph-name="perthousand" unicode="&#x2030;" horiz-adv-x="1288" d="M238 346 C354 346 432 451 432 554 C432 645 371 708 278 708 C162 708 84 603 84 500 C84 409 145 346 238 346 L238 346 Z M645 -8 C761 -8 839 97 839 200 C839 291 778 354 685 354 C569 354 491 249 491 146 C491 55 552 -8 645 -8 L645 -8 Z M244 433 C206 433 182 460 182 504 C182 557 217 621 272 621 C310 621 334 594 334 550 C334 497 299 433 244 433 L244 433 Z M651 79 C613 79 589 106 589 150 C589 203 624 267 679 267 C717 267 741 240 741 196 C741 143 706 79 651 79 L651 79 Z M1053 -8 C1169 -8 1247 97 1247 200 C1247 291 1186 354 1093 354 C977 354 899 249 899 146 C899 55 960 -8 1053 -8 L1053 -8 Z M1059 79 C1021 79 997 106 997 150 C997 203 1032 267 1087 267 C1125 267 1149 240 1149 196 C1149 143 1114 79 1059 79 L1059 79 Z M790 624 C801 635 807 649 807 662 C807 688 787 706 761 706 C745 706 731 698 720 687 L133 76 C122 65 116 51 116 38 C116 12 136 -6 162 -6 C178 -6 192 2 203 13 L790 624 Z " />
<glyph glyph-name="guilsinglleft" unicode="&#x2039;" horiz-adv-x="373" d="M73 288 C61 277 53 263 53 247 C53 231 62 217 69 203 L137 68 C149 44 164 31 196 31 C231 31 260 57 260 92 C260 107 257 117 250 131 L190 245 L336 383 C347 393 357 409 357 430 C357 464 334 485 300 485 C277 485 258 470 242 455 L73 288 Z " />
<glyph glyph-name="guilsinglright" unicode="&#x203a;" horiz-adv-x="373" d="M297 238 C309 249 317 263 317 279 C317 295 308 309 301 323 L233 458 C221 482 206 495 174 495 C139 495 110 469 110 434 C110 419 113 409 120 395 L180 281 L34 143 C23 133 13 117 13 96 C13 62 36 41 70 41 C93 41 112 56 128 71 L297 238 Z " />
<glyph glyph-name="fraction" unicode="&#x2044;" horiz-adv-x="520" d="M612 660 C623 673 638 691 638 715 C638 748 616 764 591 764 C566 764 549 749 530 725 L-59 0 C-70 -13 -85 -31 -85 -55 C-85 -88 -63 -104 -38 -104 C-13 -104 4 -89 23 -65 L612 660 Z " />
<glyph glyph-name="Euro" unicode="&#x20ac;" horiz-adv-x="720" d="M341 487 C375 542 424 573 488 573 C559 573 581 544 604 511 C618 491 638 482 662 482 C707 482 740 513 740 555 C740 574 732 591 719 610 C677 670 614 712 496 712 C342 712 227 618 169 487 L127 487 C99 487 76 464 76 436 C76 408 99 386 127 386 L139 386 C133 364 129 342 126 318 L82 318 C54 318 31 295 31 267 C31 239 54 217 82 217 L124 217 C142 77 244 -12 396 -12 C477 -12 545 15 608 69 C623 82 637 101 637 126 C637 166 604 193 564 193 C545 193 529 186 516 174 C479 140 443 127 399 127 C343 127 298 157 285 217 L431 217 C459 217 482 239 482 267 C482 295 459 318 431 318 L286 318 C290 341 295 364 303 386 L476 386 C504 386 527 408 527 436 C527 464 504 487 476 487 L341 487 Z " />
<glyph glyph-name="published" unicode="&#x2117;" horiz-adv-x="830" d="M435 -12 C638 -12 798 153 798 350 L798 352 C798 549 640 712 437 712 C234 712 74 547 74 350 L74 348 C74 151 232 -12 435 -12 L435 -12 Z M435 28 C253 28 116 171 116 348 L116 350 C116 527 254 672 437 672 C619 672 756 529 756 352 L756 350 C756 173 618 28 435 28 L435 28 Z M303 201 C303 177 322 158 346 158 C370 158 389 177 389 201 L389 280 L453 280 C539 280 609 326 609 414 L609 416 C609 495 553 549 461 549 L346 549 C322 549 303 530 303 506 L303 201 Z M389 355 L389 473 L453 473 C495 473 522 452 522 415 L522 413 C522 380 497 355 455 355 L389 355 Z " />
<glyph glyph-name="servicemark" unicode="&#x2120;" horiz-adv-x="703" d="M716 704 C699 704 688 696 676 682 L566 550 L517 678 C511 692 502 704 486 704 L480 704 C462 704 448 691 443 669 L379 432 C371 404 382 388 405 388 C423 388 436 400 442 422 L484 576 L515 495 C521 481 532 474 545 474 C558 474 571 481 581 492 L659 575 L621 432 C613 404 625 388 647 388 C665 388 678 400 684 422 L748 659 C755 687 744 704 722 704 L716 704 Z M104 481 C87 481 73 467 73 450 C73 439 78 431 86 424 C115 401 155 386 200 386 C269 386 324 424 324 489 C324 530 301 550 249 570 C198 590 190 600 190 616 C190 636 209 651 241 651 C269 651 289 641 306 628 C312 623 320 620 328 620 C345 620 358 633 358 650 C358 662 352 670 342 678 C324 692 291 706 248 706 C177 706 124 666 124 605 C124 566 147 544 203 522 C249 504 259 495 259 478 C259 455 237 441 207 441 C176 441 151 452 128 471 C121 477 114 481 104 481 L104 481 Z " />
<glyph glyph-name="trademark" unicode="&#x2122;" horiz-adv-x="700" d="M274 638 L348 638 C366 638 380 651 380 668 C380 686 366 700 348 700 L147 700 C129 700 115 686 115 668 C115 651 129 638 147 638 L204 638 L148 430 C141 402 154 386 176 386 C194 386 210 398 216 420 L274 638 Z M713 704 C696 704 685 696 673 682 L563 550 L514 678 C508 692 499 704 483 704 L477 704 C459 704 445 691 440 669 L376 432 C368 404 379 388 402 388 C420 388 433 400 439 422 L481 576 L512 495 C518 481 529 474 542 474 C555 474 568 481 578 492 L656 575 L618 432 C610 404 622 388 644 388 C662 388 675 400 681 422 L745 659 C752 687 741 704 719 704 L713 704 Z " />
<glyph glyph-name="minus" unicode="&#x2212;" horiz-adv-x="640" d="M528 281 C567 281 599 312 599 351 C599 390 567 422 528 422 L153 422 C114 422 83 390 83 351 C83 312 114 281 153 281 L528 281 Z " />
<glyph glyph-name="f_f" unicode="&#xfb00;" horiz-adv-x="822" d="M285 406 L371 406 C406 406 434 434 434 471 C434 508 406 536 371 536 L317 536 L321 551 C332 590 356 609 396 609 C404 609 412 608 420 607 C453 601 487 628 487 676 C487 710 465 729 437 734 C425 736 407 737 391 737 C279 737 205 684 174 565 L167 536 L140 536 C105 536 77 508 77 471 C77 431 107 410 133 406 L48 94 C31 31 58 -6 109 -6 C149 -6 181 22 194 71 L285 406 Z M696 406 L782 406 C817 406 845 434 845 471 C845 508 817 536 782 536 L728 536 L732 551 C743 590 767 609 807 609 C815 609 823 608 831 607 C864 601 898 628 898 676 C898 710 876 729 848 734 C836 736 818 737 802 737 C690 737 616 684 585 565 L578 536 L551 536 C516 536 488 508 488 471 C488 431 518 410 544 406 L459 94 C442 31 469 -6 520 -6 C560 -6 592 22 605 71 L696 406 Z " />
<glyph glyph-name="fi" unicode="&#xfb01;" horiz-adv-x="713" d="M285 406 L371 406 C406 406 434 434 434 471 C434 508 406 536 371 536 L317 536 L321 551 C332 590 356 609 396 609 C404 609 412 608 420 607 C453 601 487 628 487 676 C487 710 465 729 437 734 C425 736 407 737 391 737 C279 737 205 684 174 565 L167 536 L140 536 C105 536 77 508 77 471 C77 431 107 410 133 406 L48 94 C31 31 58 -6 109 -6 C149 -6 181 22 194 71 L285 406 Z M685 442 C702 505 675 542 624 542 C584 542 552 514 539 465 L439 94 C422 31 449 -6 500 -6 C540 -6 572 22 585 71 L685 442 Z M753 660 L754 665 C762 705 729 735 681 735 C633 735 592 708 583 665 L582 660 C574 620 607 590 655 590 C703 590 744 617 753 660 L753 660 Z " />
<glyph glyph-name="fl" unicode="&#xfb02;" horiz-adv-x="713" d="M285 406 L371 406 C406 406 434 434 434 471 C434 508 406 536 371 536 L317 536 L321 551 C332 590 356 609 396 609 C404 609 412 608 420 607 C453 601 487 628 487 676 C487 710 465 729 437 734 C425 736 407 737 391 737 C279 737 205 684 174 565 L167 536 L140 536 C105 536 77 508 77 471 C77 431 107 410 133 406 L48 94 C31 31 58 -6 109 -6 C149 -6 181 22 194 71 L285 406 Z M737 636 C754 699 727 736 676 736 C636 736 604 708 591 659 L439 94 C422 31 449 -6 500 -6 C540 -6 572 22 585 71 L737 636 Z " />
<glyph glyph-name="f_f_i" unicode="&#xfb03;" horiz-adv-x="1124" d="M285 406 L371 406 C406 406 434 434 434 471 C434 508 406 536 371 536 L317 536 L321 551 C332 590 356 609 396 609 C404 609 412 608 420 607 C453 601 487 628 487 676 C487 710 465 729 437 734 C425 736 407 737 391 737 C279 737 205 684 174 565 L167 536 L140 536 C105 536 77 508 77 471 C77 431 107 410 133 406 L48 94 C31 31 58 -6 109 -6 C149 -6 181 22 194 71 L285 406 Z M696 406 L782 406 C817 406 845 434 845 471 C845 508 817 536 782 536 L728 536 L732 551 C743 590 767 609 807 609 C815 609 823 608 831 607 C864 601 898 628 898 676 C898 710 876 729 848 734 C836 736 818 737 802 737 C690 737 616 684 585 565 L578 536 L551 536 C516 536 488 508 488 471 C488 431 518 410 544 406 L459 94 C442 31 469 -6 520 -6 C560 -6 592 22 605 71 L696 406 Z M1096 442 C1113 505 1086 542 1035 542 C995 542 963 514 950 465 L850 94 C833 31 860 -6 911 -6 C951 -6 983 22 996 71 L1096 442 Z M1164 660 L1165 665 C1173 705 1140 735 1092 735 C1044 735 1003 708 994 665 L993 660 C985 620 1018 590 1066 590 C1114 590 1155 617 1164 660 L1164 660 Z " />
<glyph glyph-name="f_f_l" unicode="&#xfb04;" horiz-adv-x="1124" d="M285 406 L371 406 C406 406 434 434 434 471 C434 508 406 536 371 536 L317 536 L321 551 C332 590 356 609 396 609 C404 609 412 608 420 607 C453 601 487 628 487 676 C487 710 465 729 437 734 C425 736 407 737 391 737 C279 737 205 684 174 565 L167 536 L140 536 C105 536 77 508 77 471 C77 431 107 410 133 406 L48 94 C31 31 58 -6 109 -6 C149 -6 181 22 194 71 L285 406 Z M696 406 L782 406 C817 406 845 434 845 471 C845 508 817 536 782 536 L728 536 L732 551 C743 590 767 609 807 609 C815 609 823 608 831 607 C864 601 898 628 898 676 C898 710 876 729 848 734 C836 736 818 737 802 737 C690 737 616 684 585 565 L578 536 L551 536 C516 536 488 508 488 471 C488 431 518 410 544 406 L459 94 C442 31 469 -6 520 -6 C560 -6 592 22 605 71 L696 406 Z M1148 636 C1165 699 1138 736 1087 736 C1047 736 1015 708 1002 659 L850 94 C833 31 860 -6 911 -6 C951 -6 983 22 996 71 L1148 636 Z " />
</font>
</svg>
