<?xml version="1.0" encoding="UTF-8"?>
<svg xmlns="http://www.w3.org/2000/svg" xmlns:xlink="http://www.w3.org/1999/xlink" version="1.2" >
<font id="Gotham Rounded Regular">
<font-face  font-family="Gotham Rounded" units-per-em="1000" ascent="800" descent="-200" font-style="normal" font-weight="400" font-stretch="normal" cap-height="700" x-height="517" underline-position="-75" underline-thickness="50" />
<missing-glyph  horiz-adv-x="500" d="M0 -200 L500 -200 L500 800 L0 800 L0 -200 Z M71 750 L429 750 L250 360 L71 750 Z M50 -76 L50 676 L222 300 L50 -76 Z M450 676 L450 -76 L278 300 L450 676 Z M250 240 L429 -150 L71 -150 L250 240 Z " />
<glyph glyph-name="NULL" d="" />
<glyph glyph-name="CR" unicode="&#xd;" horiz-adv-x="250" d="" />
<glyph glyph-name="space" unicode="&#x20;" horiz-adv-x="300" d="" />
<glyph glyph-name="exclam" unicode="&#x21;" horiz-adv-x="271" d="M112 217 C113 204 123 194 136 194 C148 194 158 204 159 217 L182 671 C183 689 171 703 153 703 L118 703 C101 703 88 689 89 671 L112 217 Z M88 63 L88 43 C88 16 108 -5 136 -5 C163 -5 183 16 183 43 L183 63 C183 90 163 110 136 110 C108 110 88 90 88 63 L88 63 Z " />
<glyph glyph-name="quotedbl" unicode="&#x22;" horiz-adv-x="440" d="M262 450 C260 432 271 424 284 424 C296 424 303 432 308 447 L371 656 C373 665 376 673 376 679 C376 695 366 703 353 703 L327 703 C304 703 290 688 287 665 L262 450 Z M67 450 C65 432 76 424 89 424 C101 424 108 432 113 447 L176 656 C178 665 181 673 181 679 C181 695 171 703 158 703 L132 703 C109 703 95 688 92 665 L67 450 Z " />
<glyph glyph-name="numbersign" unicode="&#x23;" horiz-adv-x="700" d="M131 37 C128 15 142 -5 165 -5 C184 -5 197 9 200 26 L226 177 L414 177 L389 37 C386 16 400 -5 423 -5 C441 -5 456 8 458 26 L484 177 L585 177 C604 177 620 193 620 212 C620 231 604 246 585 246 L496 246 L533 458 L624 458 C643 458 659 474 659 493 C659 512 643 527 624 527 L545 527 L568 663 C571 684 557 705 534 705 C516 705 502 692 499 674 L474 527 L286 527 L310 663 C313 684 299 705 276 705 C258 705 244 692 241 674 L216 527 L114 527 C95 527 79 511 79 492 C79 473 95 458 114 458 L204 458 L167 246 L75 246 C57 246 41 230 41 211 C41 192 57 177 75 177 L155 177 L131 37 Z M238 246 L275 458 L462 458 L425 246 L238 246 Z " />
<glyph glyph-name="dollar" unicode="&#x24;" horiz-adv-x="636" d="M292 731 L292 700 C169 694 82 618 82 515 C82 410 147 355 295 320 L295 69 C226 77 171 106 118 151 C113 155 105 159 95 159 C75 159 58 143 58 123 C58 109 64 99 75 91 C140 40 210 9 292 2 L292 -71 C292 -88 307 -103 324 -103 C341 -103 356 -88 356 -71 L356 0 C481 8 569 82 569 189 C569 290 505 349 353 383 L353 630 C398 623 441 604 485 572 C493 566 500 565 507 565 C528 565 545 580 545 601 C545 616 536 626 525 634 C474 669 422 691 356 698 L356 731 C356 748 341 763 324 763 C307 763 292 748 292 731 L292 731 Z M492 184 C492 118 439 71 353 66 L353 307 C462 279 492 243 492 184 L492 184 Z M159 520 C159 581 210 629 295 633 L295 397 C186 426 159 462 159 520 L159 520 Z " />
<glyph glyph-name="percent" unicode="&#x25;" horiz-adv-x="834" d="M210 350 C305 350 369 434 369 529 L369 531 C369 625 306 708 212 708 C116 708 52 624 52 529 L52 527 C52 433 115 350 210 350 L210 350 Z M149 23 C149 8 162 -5 178 -5 C188 -5 197 1 203 9 L679 658 C683 664 685 669 685 677 C685 692 672 705 656 705 C646 705 637 699 631 691 L155 42 C151 36 149 31 149 23 L149 23 Z M622 -8 C718 -8 781 76 781 171 L781 173 C781 267 719 350 624 350 C529 350 465 266 465 171 L465 169 C465 75 528 -8 622 -8 L622 -8 Z M212 406 C160 406 119 459 119 529 L119 531 C119 597 155 652 210 652 C261 652 303 599 303 529 L303 527 C303 460 266 406 212 406 L212 406 Z M624 48 C572 48 531 101 531 171 L531 173 C531 239 568 294 622 294 C674 294 715 241 715 171 L715 169 C715 102 679 48 624 48 L624 48 Z " />
<glyph glyph-name="ampersand" unicode="&#x26;" horiz-adv-x="696" d="M618 -9 C639 -9 655 7 655 28 C655 42 649 49 640 59 L543 158 C575 201 604 252 630 307 C633 313 635 320 635 325 C635 345 619 361 599 361 C581 361 571 348 567 340 C545 291 520 246 494 207 L334 370 C436 406 499 463 499 552 L499 554 C499 641 427 712 329 712 C218 712 144 638 144 546 L144 544 C144 489 166 446 214 390 C107 348 45 281 45 188 L45 186 C45 69 139 -10 265 -10 C356 -10 431 31 495 100 L586 5 C596 -4 604 -9 618 -9 L618 -9 Z M290 415 C237 472 220 503 220 544 L220 546 C220 603 263 647 326 647 C383 647 425 606 425 550 L425 548 C425 487 379 445 290 415 L290 415 Z M271 57 C185 57 125 114 125 189 L125 191 C125 250 166 307 259 341 L447 149 C396 92 338 57 271 57 L271 57 Z " />
<glyph glyph-name="quotesingle" unicode="&#x27;" horiz-adv-x="245" d="M67 450 C65 432 75 424 89 424 C102 424 108 432 113 447 L177 656 C179 665 181 673 181 679 C181 695 171 703 158 703 L132 703 C109 703 95 688 92 665 L67 450 Z " />
<glyph glyph-name="parenleft" unicode="&#x28;" horiz-adv-x="434" d="M349 -137 C365 -137 379 -123 379 -107 C379 -94 373 -86 364 -80 C222 13 146 131 146 287 C146 442 222 561 364 654 C373 660 379 668 379 681 C379 697 365 711 349 711 C341 711 333 709 331 707 C163 608 68 467 68 287 C68 107 163 -34 331 -133 C333 -135 341 -137 349 -137 L349 -137 Z " />
<glyph glyph-name="parenright" unicode="&#x29;" horiz-adv-x="434" d="M85 -137 C93 -137 101 -135 103 -133 C271 -34 366 107 366 287 C366 467 271 608 103 707 C101 709 93 711 85 711 C69 711 55 697 55 681 C55 668 61 660 70 654 C212 561 288 443 288 287 C288 132 212 13 70 -80 C61 -86 55 -94 55 -107 C55 -123 69 -137 85 -137 L85 -137 Z " />
<glyph glyph-name="asterisk" unicode="&#x2a;" horiz-adv-x="430" d="M191 420 C189 405 200 392 215 392 C230 392 241 405 239 420 L231 522 L315 463 C322 458 327 455 335 455 C348 455 360 467 360 481 C360 493 351 501 342 504 L245 549 L342 594 C351 598 360 605 360 618 C360 632 349 644 335 644 C328 644 322 641 315 636 L231 577 L239 679 C241 694 230 707 215 707 C200 707 189 694 191 678 L199 577 L115 636 C108 641 103 644 95 644 C82 643 70 632 70 618 C70 607 78 599 88 594 L185 549 L88 504 C79 501 70 492 70 481 C70 467 81 455 95 455 C102 455 108 458 115 463 L199 522 L191 420 Z " />
<glyph glyph-name="plus" unicode="&#x2b;" horiz-adv-x="625" d="M275 143 C275 122 292 106 313 106 C333 106 350 122 350 143 L350 316 L526 316 C546 316 562 332 562 352 C562 372 546 388 526 388 L350 388 L350 561 C350 582 333 598 313 598 C292 598 275 582 275 561 L275 388 L100 388 C80 388 63 372 63 352 C63 332 80 316 100 316 L275 316 L275 143 Z " />
<glyph glyph-name="comma" unicode="&#x2c;" horiz-adv-x="245" d="M45 -100 C45 -112 53 -120 66 -120 C82 -120 113 -105 134 -84 C157 -61 170 -24 170 36 L170 55 C170 88 150 110 121 110 C94 110 75 90 75 64 L75 48 C75 21 93 5 114 0 C116 -39 99 -64 58 -82 C50 -85 45 -92 45 -100 L45 -100 Z " />
<glyph glyph-name="hyphen" unicode="&#x2d;" horiz-adv-x="408" d="M100 260 L308 260 C330 260 348 279 348 301 C348 322 330 341 308 341 L100 341 C78 341 60 322 60 301 C60 279 78 260 100 260 L100 260 Z " />
<glyph glyph-name="period" unicode="&#x2e;" horiz-adv-x="245" d="M75 63 L75 43 C75 16 95 -5 123 -5 C150 -5 170 16 170 43 L170 63 C170 90 150 110 123 110 C95 110 75 90 75 63 L75 63 Z " />
<glyph glyph-name="slash" unicode="&#x2f;" horiz-adv-x="508" d="M-4 -102 C-4 -119 10 -133 28 -133 C41 -133 51 -125 57 -113 L493 755 C495 759 497 766 497 772 C497 789 483 803 466 803 C452 803 442 795 436 783 L1 -85 C-2 -89 -4 -96 -4 -102 L-4 -102 Z " />
<glyph glyph-name="zero" unicode="0" horiz-adv-x="715" d="M357 -12 C537 -12 653 154 653 350 L653 352 C653 548 539 712 359 712 C179 712 62 546 62 350 L62 348 C62 152 176 -12 357 -12 L357 -12 Z M359 60 C228 60 144 197 144 350 L144 352 C144 506 226 640 357 640 C487 640 571 503 571 350 L571 348 C571 195 490 60 359 60 L359 60 Z " />
<glyph glyph-name="one" unicode="1" horiz-adv-x="358" d="M179 35 C179 13 197 -5 218 -5 C240 -5 257 13 257 35 L257 669 C257 690 241 708 218 708 L216 708 C203 708 189 704 173 699 L58 659 C41 653 30 642 30 625 C30 606 46 591 64 591 C69 591 75 592 81 594 L179 626 L179 35 Z " />
<glyph glyph-name="two" unicode="2" horiz-adv-x="599" d="M44 37 C44 15 61 0 84 0 L505 0 C525 0 542 16 542 36 C542 56 525 72 505 72 L166 72 L353 238 C476 345 530 408 530 510 L530 512 C530 626 439 710 313 710 C198 710 134 662 76 581 C71 575 68 567 68 559 C68 539 84 523 104 523 C117 523 127 529 133 537 C183 603 233 639 307 639 C383 639 448 587 448 505 C448 435 410 381 302 285 L63 74 C50 63 44 52 44 37 L44 37 Z " />
<glyph glyph-name="three" unicode="3" horiz-adv-x="613" d="M311 -12 C441 -12 545 74 545 199 L545 201 C545 329 436 388 314 398 L520 627 C531 639 539 650 539 666 C539 686 523 700 501 700 L119 700 C99 700 82 684 82 664 C82 644 99 629 119 629 L429 629 L225 398 C214 387 209 377 209 367 C209 348 225 333 244 333 L269 333 C384 333 465 285 465 198 L465 196 C465 114 397 60 312 60 C233 60 173 91 122 149 C116 155 106 161 93 161 C72 161 54 143 54 122 C54 111 61 100 67 94 C123 31 204 -12 311 -12 L311 -12 Z " />
<glyph glyph-name="four" unicode="4" horiz-adv-x="671" d="M432 33 C432 12 449 -5 470 -5 C492 -5 509 12 509 33 L509 166 L588 166 C606 166 622 180 622 198 C622 217 606 232 588 232 L509 232 L509 669 C509 692 491 710 467 710 C446 710 435 701 423 686 L59 242 C49 229 44 218 44 204 C44 182 61 166 84 166 L432 166 L432 33 Z M138 232 L432 593 L432 232 L138 232 Z " />
<glyph glyph-name="five" unicode="5" horiz-adv-x="612" d="M304 -12 C449 -12 553 83 553 218 L553 220 C553 354 447 434 311 434 C253 434 214 421 173 403 L188 627 L490 627 C510 627 526 643 526 663 C526 684 510 700 490 700 L154 700 C134 700 117 686 116 662 L100 388 C99 370 104 354 117 345 C131 336 142 330 157 330 C175 330 217 364 299 364 C401 364 473 305 473 217 L473 215 C473 124 403 60 305 60 C240 60 180 89 125 139 C118 145 108 149 98 149 C77 149 60 131 60 112 C60 98 65 88 76 79 C133 28 213 -12 304 -12 L304 -12 Z " />
<glyph glyph-name="six" unicode="6" horiz-adv-x="647" d="M333 -12 C475 -12 584 86 584 221 L584 223 C584 354 472 438 342 438 C240 438 181 387 143 331 C142 512 221 640 348 640 C404 640 447 621 493 586 C499 582 507 579 515 579 C536 579 553 596 553 617 C553 632 546 642 534 650 C482 689 425 712 352 712 C169 712 61 545 61 332 L61 330 C61 187 93 115 149 59 C193 15 256 -12 333 -12 L333 -12 Z M334 58 C231 58 157 126 157 215 L157 217 C157 295 227 370 332 370 C433 370 503 306 503 220 L503 218 C503 129 437 58 334 58 L334 58 Z " />
<glyph glyph-name="seven" unicode="7" horiz-adv-x="596" d="M157 32 C157 10 176 -5 197 -5 C214 -5 227 6 235 23 L537 630 C543 641 548 654 548 665 C548 687 532 700 510 700 L100 700 C80 700 63 684 63 664 C63 643 80 628 100 628 L453 628 L163 56 C160 49 157 38 157 32 L157 32 Z " />
<glyph glyph-name="eight" unicode="8" horiz-adv-x="630" d="M315 -10 C464 -10 578 70 578 189 L578 191 C578 274 517 331 434 362 C499 392 554 442 554 523 L554 525 C554 633 443 710 315 710 C187 710 76 633 76 525 L76 523 C76 442 131 392 196 362 C112 332 52 273 52 190 L52 188 C52 71 166 -10 315 -10 L315 -10 Z M315 390 C226 390 155 442 155 518 L155 520 C155 590 224 641 315 641 C406 641 475 589 475 520 L475 518 C475 442 404 390 315 390 L315 390 Z M315 59 C200 59 132 120 132 190 L132 192 C132 270 213 325 315 325 C417 325 498 270 498 192 L498 190 C498 119 430 59 315 59 L315 59 Z " />
<glyph glyph-name="nine" unicode="9" horiz-adv-x="647" d="M295 -12 C468 -12 586 145 586 367 L586 369 C586 509 552 587 499 640 C454 685 395 712 315 712 C166 712 63 607 63 474 L63 472 C63 346 163 255 307 255 C404 255 467 306 505 367 C508 188 423 60 297 60 C242 60 194 80 145 120 C137 125 129 128 120 128 C99 128 82 111 82 90 C82 76 89 66 100 58 C153 18 215 -12 295 -12 L295 -12 Z M316 323 C214 323 144 387 144 476 L144 478 C144 565 207 642 312 642 C417 642 490 572 490 483 L490 481 C490 401 423 323 316 323 L316 323 Z " />
<glyph glyph-name="colon" unicode="&#x3a;" horiz-adv-x="255" d="M80 475 L80 454 C80 427 100 407 128 407 C155 407 175 427 175 454 L175 475 C175 501 155 522 128 522 C100 522 80 501 80 475 L80 475 Z M80 63 L80 43 C80 16 100 -5 128 -5 C155 -5 175 16 175 43 L175 63 C175 90 155 110 128 110 C100 110 80 90 80 63 L80 63 Z " />
<glyph glyph-name="semicolon" unicode="&#x3b;" horiz-adv-x="255" d="M80 475 L80 454 C80 427 100 407 128 407 C155 407 175 427 175 454 L175 475 C175 501 155 522 128 522 C100 522 80 501 80 475 L80 475 Z M50 -100 C50 -112 58 -120 71 -120 C87 -120 118 -105 139 -84 C162 -61 175 -24 175 36 L175 55 C175 88 155 110 126 110 C99 110 80 90 80 64 L80 48 C80 21 98 5 119 0 C121 -39 104 -64 63 -82 C55 -85 50 -92 50 -100 L50 -100 Z " />
<glyph glyph-name="less" unicode="&#x3c;" horiz-adv-x="625" d="M504 101 C524 101 538 116 538 135 C538 151 529 162 515 169 L148 353 L515 535 C529 542 538 553 538 569 C538 588 524 604 506 603 C498 603 491 601 485 598 L90 397 C70 387 61 373 61 354 L61 350 C61 331 70 317 90 307 L485 106 C490 104 498 101 504 101 L504 101 Z " />
<glyph glyph-name="equal" unicode="&#x3d;" horiz-adv-x="625" d="M113 198 L512 198 C533 198 550 214 550 235 C550 255 533 272 512 272 L113 272 C93 272 76 255 76 235 C76 214 93 198 113 198 L113 198 Z M113 432 L512 432 C533 432 550 448 550 469 C550 489 533 506 512 506 L113 506 C93 506 76 489 76 469 C76 448 93 432 113 432 L113 432 Z " />
<glyph glyph-name="greater" unicode="&#x3e;" horiz-adv-x="625" d="M121 603 C102 603 87 588 87 569 C87 553 97 542 110 535 L477 351 L110 169 C97 162 87 151 87 135 C87 116 102 100 120 101 C127 101 134 103 141 106 L535 307 C555 317 565 331 565 350 L565 354 C565 373 555 387 535 397 L141 598 C135 600 128 603 121 603 L121 603 Z " />
<glyph glyph-name="question" unicode="&#x3f;" horiz-adv-x="537" d="M248 193 C262 193 272 204 274 220 L281 306 C395 322 489 384 489 509 L489 511 C489 625 400 709 265 709 C168 709 100 669 47 611 C39 603 35 593 35 584 C35 564 51 549 71 549 C82 549 91 554 98 560 C143 609 196 638 263 638 C353 638 409 580 409 508 L409 506 C409 422 342 375 236 367 C217 365 205 351 207 332 L218 220 C220 204 231 193 244 193 L248 193 Z M197 63 L197 43 C197 16 218 -5 245 -5 C272 -5 293 16 293 43 L293 63 C293 90 272 110 245 110 C218 110 197 90 197 63 L197 63 Z " />
<glyph glyph-name="at" unicode="&#x40;" horiz-adv-x="980" d="M499 -162 C600 -162 683 -135 757 -92 C760 -89 765 -85 765 -78 C765 -70 758 -62 750 -62 C747 -62 742 -63 740 -64 C667 -106 596 -128 499 -128 C259 -128 89 51 89 274 C89 496 261 678 491 678 C720 678 891 500 891 316 C891 174 822 110 751 110 C697 110 666 140 666 191 C666 202 668 224 673 252 L709 454 C713 477 697 496 676 496 C658 496 645 484 641 462 L633 419 C609 461 565 502 487 502 C374 502 256 395 256 253 C256 143 337 71 435 71 C510 71 561 109 600 155 C619 105 667 71 740 71 C832 71 927 146 927 316 C927 525 736 712 491 712 C246 712 53 513 53 274 C53 35 243 -162 499 -162 L499 -162 Z M450 133 C379 133 328 179 328 258 C328 361 408 440 492 440 C562 440 614 386 614 313 C614 219 536 133 450 133 L450 133 Z " />
<glyph glyph-name="A" unicode="A" horiz-adv-x="784" d="M51 31 C51 11 67 -5 87 -5 C105 -5 118 5 125 22 L198 185 L582 185 L655 24 C662 8 675 -5 694 -5 C715 -5 732 12 732 33 C732 39 730 46 727 53 L443 673 C434 695 418 708 394 708 L390 708 C365 708 350 695 340 673 L56 52 C52 44 51 37 51 31 L51 31 Z M229 257 L390 615 L551 257 L229 257 Z " />
<glyph glyph-name="B" unicode="B" horiz-adv-x="722" d="M99 40 C99 18 117 0 138 0 L410 0 C563 0 664 71 664 191 L664 193 C664 289 597 337 514 362 C569 386 625 433 625 524 L625 526 C625 571 609 608 580 638 C540 677 477 700 397 700 L138 700 C117 700 99 682 99 660 L99 40 Z M177 388 L177 629 L390 629 C490 629 545 584 545 515 L545 513 C545 431 479 388 384 388 L177 388 Z M177 71 L177 318 L398 318 C520 318 584 274 584 198 L584 196 C584 118 518 71 412 71 L177 71 Z " />
<glyph glyph-name="C" unicode="C" horiz-adv-x="738" d="M419 -12 C534 -12 610 28 679 91 C686 97 692 107 692 119 C692 139 674 157 654 157 C644 157 635 152 629 146 C569 91 508 61 421 61 C267 61 150 188 150 350 L150 352 C150 513 266 639 421 639 C507 639 568 607 622 559 C628 555 637 550 648 550 C669 550 688 568 688 589 C688 603 680 614 672 621 C607 675 535 712 422 712 C216 712 68 548 68 350 L68 348 C68 147 217 -12 419 -12 L419 -12 Z " />
<glyph glyph-name="D" unicode="D" horiz-adv-x="782" d="M99 40 C99 18 117 0 138 0 L342 0 C562 0 714 153 714 350 L714 352 C714 549 562 700 342 700 L138 700 C117 700 99 682 99 660 L99 40 Z M178 73 L178 627 L342 627 C519 627 632 505 632 350 L632 348 C632 193 519 73 342 73 L178 73 Z " />
<glyph glyph-name="E" unicode="E" horiz-adv-x="670" d="M138 0 L578 0 C598 0 614 16 614 36 C614 56 598 72 578 72 L178 72 L178 317 L528 317 C548 317 564 333 564 353 C564 372 548 389 528 389 L178 389 L178 628 L573 628 C593 628 609 644 609 664 C609 684 593 700 573 700 L138 700 C117 700 99 682 99 660 L99 40 C99 18 117 0 138 0 L138 0 Z " />
<glyph glyph-name="F" unicode="F" horiz-adv-x="656" d="M99 35 C99 13 117 -5 138 -5 C160 -5 178 13 178 35 L178 305 L526 305 C546 305 562 321 562 341 C562 361 546 377 526 377 L178 377 L178 627 L571 627 C591 627 607 644 607 664 C607 684 591 700 571 700 L138 700 C117 700 99 682 99 660 L99 35 Z " />
<glyph glyph-name="G" unicode="G" horiz-adv-x="784" d="M424 -12 C528 -12 614 26 678 73 C696 85 705 102 705 121 L705 334 C705 356 687 374 666 374 L441 374 C422 374 406 358 406 338 C406 319 422 303 441 303 L629 303 L629 129 C581 90 507 59 427 59 C257 59 150 183 150 350 L150 352 C150 508 261 639 416 639 C504 639 560 613 610 575 C618 569 626 565 635 565 C656 565 674 583 674 605 C674 619 667 630 658 637 C594 684 525 712 419 712 C209 712 68 542 68 350 L68 348 C68 148 204 -12 424 -12 L424 -12 Z " />
<glyph glyph-name="H" unicode="H" horiz-adv-x="760" d="M99 35 C99 13 117 -5 138 -5 C160 -5 178 13 178 35 L178 315 L582 315 L582 35 C582 13 600 -5 622 -5 C643 -5 661 13 661 35 L661 665 C661 687 643 705 622 705 C600 705 582 687 582 665 L582 389 L178 389 L178 665 C178 687 160 705 138 705 C117 705 99 687 99 665 L99 35 Z " />
<glyph glyph-name="I" unicode="I" horiz-adv-x="291" d="M106 35 C106 13 124 -5 145 -5 C167 -5 185 13 185 35 L185 665 C185 687 167 705 145 705 C124 705 106 687 106 665 L106 35 Z " />
<glyph glyph-name="J" unicode="J" horiz-adv-x="553" d="M247 -10 C309 -10 362 10 401 48 C441 88 465 150 465 232 L465 665 C465 687 448 705 426 705 C404 705 386 687 386 665 L386 231 C386 120 328 63 249 63 C184 63 143 90 105 142 C99 149 90 156 77 156 C56 156 38 138 38 117 C38 106 43 96 49 90 C92 32 155 -10 247 -10 L247 -10 Z " />
<glyph glyph-name="K" unicode="K" horiz-adv-x="714" d="M99 35 C99 13 117 -5 138 -5 C160 -5 178 13 178 35 L178 187 L329 338 L590 13 C597 3 607 -5 622 -5 C644 -5 662 14 662 35 C662 47 658 55 651 64 L385 392 L633 638 C641 646 646 655 646 666 C646 686 629 705 608 705 C595 705 586 699 577 691 L178 282 L178 665 C178 687 160 705 138 705 C117 705 99 687 99 665 L99 35 Z " />
<glyph glyph-name="L" unicode="L" horiz-adv-x="619" d="M99 40 C99 18 117 0 138 0 L541 0 C561 0 577 16 577 36 C577 56 561 73 541 73 L178 73 L178 665 C178 687 160 705 138 705 C117 705 99 687 99 665 L99 40 Z " />
<glyph glyph-name="M" unicode="M" horiz-adv-x="868" d="M99 34 C99 12 116 -5 137 -5 C159 -5 176 12 176 34 L176 556 L399 228 C408 215 419 208 433 208 C447 208 457 215 466 228 L690 557 L690 35 C690 14 708 -5 730 -5 C751 -5 769 13 769 35 L769 664 C769 685 751 703 730 703 L721 703 C705 703 692 695 684 682 L434 306 L184 682 C176 694 164 703 147 703 L138 703 C117 703 99 685 99 664 L99 34 Z " />
<glyph glyph-name="N" unicode="N" horiz-adv-x="790" d="M99 34 C99 13 116 -5 137 -5 C159 -5 176 13 176 34 L176 576 L610 21 C622 7 634 -3 651 -3 L655 -3 C676 -3 691 13 691 34 L691 666 C691 687 674 705 653 705 C631 705 614 687 614 666 L614 138 L189 680 C178 694 167 703 149 703 L138 703 C117 703 99 685 99 664 L99 34 Z " />
<glyph glyph-name="O" unicode="O" horiz-adv-x="850" d="M424 -12 C637 -12 782 157 782 350 L782 352 C782 545 639 712 426 712 C213 712 68 543 68 350 L68 348 C68 155 211 -12 424 -12 L424 -12 Z M426 61 C266 61 150 191 150 350 L150 352 C150 511 264 639 424 639 C584 639 700 509 700 350 L700 348 C700 189 586 61 426 61 L426 61 Z " />
<glyph glyph-name="P" unicode="P" horiz-adv-x="668" d="M99 35 C99 13 117 -5 138 -5 C160 -5 178 13 178 35 L178 247 L348 247 C497 247 623 325 623 476 L623 478 C623 616 519 700 361 700 L138 700 C117 700 99 682 99 660 L99 35 Z M178 319 L178 627 L355 627 C468 627 543 575 543 475 L543 473 C543 381 467 319 351 319 L178 319 Z " />
<glyph glyph-name="Q" unicode="Q" horiz-adv-x="850" d="M424 -12 C510 -12 585 16 644 62 L712 1 C721 -7 730 -12 742 -12 C764 -12 781 6 781 27 C781 41 775 51 765 60 L699 115 C752 180 782 262 782 350 L782 352 C782 545 639 712 426 712 C213 712 68 543 68 350 L68 348 C68 155 211 -12 424 -12 L424 -12 Z M482 204 L588 113 C544 80 488 61 426 61 C266 61 150 191 150 350 L150 352 C150 511 264 639 424 639 C584 639 700 509 700 350 L700 348 C700 278 679 215 641 165 L534 263 C525 271 517 276 504 276 C483 276 465 258 465 236 C465 222 471 213 482 204 L482 204 Z " />
<glyph glyph-name="R" unicode="R" horiz-adv-x="723" d="M99 35 C99 13 117 -5 138 -5 C160 -5 178 13 178 35 L178 272 L379 272 L576 16 C585 4 597 -5 613 -5 C633 -5 653 13 653 34 C653 45 648 54 640 63 L466 287 C575 308 653 375 653 490 L653 492 C653 547 633 596 599 630 C555 674 486 700 400 700 L138 700 C117 700 99 682 99 660 L99 35 Z M178 343 L178 627 L394 627 C507 627 573 575 573 489 L573 487 C573 397 498 343 393 343 L178 343 Z " />
<glyph glyph-name="S" unicode="S" horiz-adv-x="640" d="M339 -10 C478 -10 578 68 578 188 L578 190 C578 297 506 354 350 388 C196 421 160 458 160 524 L160 526 C160 589 218 639 309 639 C374 639 431 621 490 578 C497 573 504 571 513 571 C534 571 551 588 551 609 C551 624 542 635 534 641 C470 687 403 710 311 710 C178 710 81 629 81 519 L81 517 C81 402 155 350 316 315 C463 284 498 247 498 182 L498 180 C498 111 436 61 342 61 C253 61 187 88 121 144 C116 149 107 153 97 153 C76 153 59 136 59 114 C59 101 65 90 74 84 C152 22 237 -10 339 -10 L339 -10 Z " />
<glyph glyph-name="T" unicode="T" horiz-adv-x="648" d="M284 35 C284 13 302 -5 324 -5 C346 -5 364 13 364 35 L364 627 L567 627 C587 627 604 643 604 663 C604 683 587 700 567 700 L81 700 C61 700 44 683 44 663 C44 643 61 627 81 627 L284 627 L284 35 Z " />
<glyph glyph-name="U" unicode="U" horiz-adv-x="759" d="M379 -11 C554 -11 671 95 671 299 L671 665 C671 687 653 705 632 705 C610 705 592 687 592 665 L592 293 C592 140 510 62 381 62 C248 62 167 147 167 298 L167 665 C167 687 149 705 127 705 C106 705 88 687 88 665 L88 293 C88 95 206 -11 379 -11 L379 -11 Z " />
<glyph glyph-name="V" unicode="V" horiz-adv-x="744" d="M370 -8 L374 -8 C397 -8 411 5 420 25 L691 651 C693 656 694 661 694 667 C694 687 677 705 655 705 C637 705 623 691 616 677 L373 95 L131 675 C124 692 110 705 90 705 C68 705 50 686 50 666 C50 659 51 654 54 648 L324 25 C332 5 347 -8 370 -8 L370 -8 Z " />
<glyph glyph-name="W" unicode="W" horiz-adv-x="1101" d="M281 25 C288 4 302 -9 322 -9 L328 -9 C348 -9 362 5 369 25 L550 563 L732 25 C739 5 753 -9 773 -9 L779 -9 C799 -9 813 5 820 25 L1044 647 C1046 653 1049 660 1049 666 C1049 686 1030 705 1009 705 C990 705 977 692 971 674 L777 116 L594 674 C588 692 575 705 555 705 L550 705 C529 705 517 692 511 674 L328 116 L135 672 C129 690 114 705 94 705 C72 705 53 686 53 665 C53 659 55 653 57 647 L281 25 Z " />
<glyph glyph-name="X" unicode="X" horiz-adv-x="719" d="M66 32 C66 11 83 -5 101 -5 C119 -5 129 5 140 18 L358 302 L579 15 C589 3 598 -5 614 -5 C636 -5 653 13 653 34 C653 45 648 54 640 63 L409 358 L632 640 C639 648 643 658 643 668 C643 689 626 705 607 705 C590 705 580 695 569 682 L361 411 L150 685 C140 697 131 705 115 705 C93 705 76 687 76 667 C76 655 82 646 89 637 L311 357 L77 60 C70 52 66 42 66 32 L66 32 Z " />
<glyph glyph-name="Y" unicode="Y" horiz-adv-x="708" d="M314 35 C314 13 332 -5 354 -5 C376 -5 394 13 394 35 L394 277 L653 637 C658 645 664 656 664 666 C664 687 647 705 625 705 C608 705 598 695 588 681 L355 348 L124 681 C114 695 103 705 86 705 C64 705 45 687 45 666 C45 656 49 647 54 639 L314 275 L314 35 Z " />
<glyph glyph-name="Z" unicode="Z" horiz-adv-x="693" d="M104 0 L596 0 C616 0 632 16 632 36 C632 55 616 71 596 71 L174 71 L613 629 C622 640 627 650 627 664 L627 666 C627 684 610 700 591 700 L114 700 C94 700 78 684 78 664 C78 645 94 629 114 629 L520 629 L81 71 C72 60 67 50 67 36 L67 34 C67 16 84 0 104 0 L104 0 Z " />
<glyph glyph-name="bracketleft" unicode="&#x5b;" horiz-adv-x="439" d="M94 -91 C94 -112 112 -130 133 -130 L355 -130 C371 -130 385 -116 385 -100 C385 -84 371 -70 355 -70 L167 -70 L167 640 L355 640 C371 640 385 654 385 670 C385 686 371 700 355 700 L133 700 C112 700 94 682 94 661 L94 -91 Z " />
<glyph glyph-name="backslash" unicode="&#x5c;" horiz-adv-x="508" d="M512 -102 C512 -96 510 -89 508 -85 L72 783 C66 795 56 803 42 803 C25 803 11 789 11 772 C11 766 13 759 15 755 L451 -113 C457 -125 467 -133 480 -133 C498 -133 512 -119 512 -102 L512 -102 Z " />
<glyph glyph-name="bracketright" unicode="&#x5d;" horiz-adv-x="439" d="M346 661 C346 682 328 700 307 700 L85 700 C68 700 54 686 54 670 C54 654 68 640 85 640 L273 640 L273 -70 L85 -70 C68 -70 54 -84 54 -100 C54 -116 68 -130 85 -130 L307 -130 C328 -130 346 -112 346 -91 L346 661 Z " />
<glyph glyph-name="asciicircum" unicode="&#x5e;" horiz-adv-x="500" d="M249 647 L350 514 C366 494 379 489 401 489 C413 489 421 496 421 503 C421 509 419 515 413 522 L295 681 C283 696 272 706 254 706 L246 706 C228 706 217 696 205 681 L86 522 C81 515 79 509 79 503 C79 496 87 489 98 489 C118 489 132 494 148 514 L249 647 Z " />
<glyph glyph-name="underscore" unicode="&#x5f;" horiz-adv-x="600" d="M-2 -160 L602 -160 C619 -160 634 -146 634 -128 C634 -111 619 -97 602 -97 L-2 -97 C-19 -97 -34 -111 -34 -128 C-34 -146 -19 -160 -2 -160 L-2 -160 Z " />
<glyph glyph-name="grave" unicode="&#x60;" horiz-adv-x="500" d="M289 591 C300 591 308 597 308 605 C308 610 306 616 303 620 L243 711 C233 726 222 734 207 734 C183 734 153 718 153 704 C153 696 159 689 167 681 L242 610 C258 594 270 591 289 591 L289 591 Z " />
<glyph glyph-name="a" unicode="a" horiz-adv-x="579" d="M240 -11 C331 -11 391 31 427 78 L427 31 C427 11 442 -5 464 -5 C485 -5 501 11 501 33 L501 316 C501 382 483 432 448 467 C410 505 354 524 281 524 C215 524 163 511 112 489 C102 485 91 473 91 457 C91 439 107 424 125 424 C129 424 134 425 139 427 C177 444 221 456 273 456 C370 456 427 408 427 315 L427 297 C381 310 334 319 268 319 C137 319 47 261 47 152 L47 150 C47 44 144 -11 240 -11 L240 -11 Z M255 50 C185 50 125 88 125 153 L125 155 C125 220 179 262 276 262 C339 262 390 251 428 240 L428 190 C428 108 350 50 255 50 L255 50 Z " />
<glyph glyph-name="b" unicode="b" horiz-adv-x="664" d="M86 34 C86 13 103 -5 125 -5 C147 -5 163 13 163 34 L163 99 C203 41 265 -11 361 -11 C486 -11 608 89 608 258 L608 260 C608 430 485 528 361 528 C266 528 205 475 163 413 L163 696 C163 718 146 735 124 735 C103 735 86 718 86 696 L86 34 Z M347 58 C251 58 160 138 160 258 L160 260 C160 378 251 459 347 459 C445 459 529 381 529 259 L529 257 C529 132 447 58 347 58 L347 58 Z " />
<glyph glyph-name="c" unicode="c" horiz-adv-x="571" d="M319 -12 C406 -12 465 22 514 71 C520 77 524 86 524 95 C524 113 508 130 489 130 C479 130 472 125 467 120 C429 84 382 57 323 57 C215 57 133 146 133 258 L133 260 C133 371 213 460 318 460 C380 460 422 432 459 398 C465 393 474 389 484 389 C504 389 521 405 521 426 C521 438 515 448 509 453 C463 495 405 528 319 528 C168 528 54 404 54 258 L54 256 C54 111 168 -12 319 -12 L319 -12 Z " />
<glyph glyph-name="d" unicode="d" horiz-adv-x="664" d="M578 696 C578 718 561 735 539 735 C517 735 501 718 501 696 L501 418 C461 476 399 528 303 528 C179 528 56 428 56 259 L56 257 C56 87 179 -11 303 -11 C398 -11 459 42 501 104 L501 34 C501 12 518 -5 540 -5 C561 -5 578 12 578 34 L578 696 Z M317 459 C413 459 504 379 504 260 L504 258 C504 139 413 58 317 58 C220 58 135 136 135 258 L135 260 C135 385 217 459 317 459 L317 459 Z " />
<glyph glyph-name="e" unicode="e" horiz-adv-x="592" d="M132 287 C142 388 210 463 300 463 C403 463 457 381 465 287 L132 287 Z M507 66 C515 73 519 82 519 91 C519 109 504 124 485 124 C476 124 469 120 463 115 C425 80 378 55 314 55 C222 55 143 118 132 230 L506 230 C525 230 542 245 542 266 C542 403 455 528 302 528 C159 528 54 408 54 259 L54 257 C54 97 170 -12 312 -12 C400 -12 458 19 507 66 L507 66 Z " />
<glyph glyph-name="f" unicode="f" horiz-adv-x="367" d="M115 34 C115 13 132 -5 154 -5 C176 -5 192 13 192 34 L192 449 L325 449 C344 449 359 464 359 482 C359 501 344 515 325 515 L191 515 L191 557 C191 631 221 667 281 667 C296 667 310 664 323 662 C343 660 360 675 360 695 C360 712 347 725 332 728 C315 732 296 734 271 734 C224 734 186 720 160 694 C131 665 115 620 115 561 L115 516 L73 516 C55 516 40 501 40 483 C40 464 54 449 73 449 L115 449 L115 34 Z " />
<glyph glyph-name="g" unicode="g" horiz-adv-x="664" d="M315 -162 C397 -162 466 -139 512 -93 C554 -51 578 10 578 90 L578 483 C578 504 561 522 539 522 C517 522 501 504 501 483 L501 424 C459 480 396 528 299 528 C176 528 56 435 56 284 L56 282 C56 133 175 40 299 40 C394 40 457 89 502 149 L502 88 C502 -33 428 -96 314 -96 C247 -96 185 -76 131 -40 C126 -37 121 -35 114 -35 C96 -35 79 -52 79 -69 C79 -83 87 -95 99 -101 C164 -141 236 -162 315 -162 L315 -162 Z M314 108 C218 108 135 180 135 284 L135 286 C135 392 216 460 314 460 C412 460 504 391 504 285 L504 283 C504 179 412 108 314 108 L314 108 Z " />
<glyph glyph-name="h" unicode="h" horiz-adv-x="616" d="M86 34 C86 12 103 -5 125 -5 C147 -5 163 12 163 34 L163 296 C163 393 229 458 318 458 C409 458 461 398 461 302 L461 34 C461 12 478 -5 500 -5 C521 -5 538 12 538 34 L538 321 C538 444 465 528 340 528 C251 528 197 483 163 427 L163 696 C163 717 146 735 124 735 C103 735 86 717 86 696 L86 34 Z " />
<glyph glyph-name="i" unicode="i" horiz-adv-x="263" d="M86 666 C86 642 106 625 131 625 C157 625 177 642 177 666 L177 679 C177 704 157 720 131 720 C106 720 86 704 86 679 L86 666 Z M93 34 C93 12 110 -5 132 -5 C154 -5 170 12 170 34 L170 483 C170 505 153 522 131 522 C110 522 93 504 93 483 L93 34 Z " />
<glyph glyph-name="j" unicode="j" horiz-adv-x="263" d="M86 666 C86 642 106 625 131 625 C157 625 177 642 177 666 L177 679 C177 704 157 720 131 720 C106 720 86 704 86 679 L86 666 Z M47 -163 C122 -163 170 -121 170 -30 L170 483 C170 505 153 522 131 522 C110 522 93 504 93 483 L93 -32 C93 -77 71 -98 39 -98 C34 -98 28 -97 22 -97 C5 -97 -10 -111 -10 -129 C-10 -150 7 -161 29 -162 C34 -163 40 -163 47 -163 L47 -163 Z " />
<glyph glyph-name="k" unicode="k" horiz-adv-x="568" d="M86 34 C86 12 103 -5 125 -5 C147 -5 163 12 163 34 L163 133 L270 239 L449 13 C459 0 468 -5 482 -5 C503 -5 519 10 519 31 C519 41 516 48 509 57 L324 290 L493 456 C503 466 508 474 508 486 C508 505 494 522 473 522 C461 522 452 517 443 507 L163 222 L163 696 C163 717 146 735 124 735 C103 735 86 717 86 696 L86 34 Z " />
<glyph glyph-name="l" unicode="l" horiz-adv-x="263" d="M93 34 C93 12 110 -5 132 -5 C154 -5 170 12 170 34 L170 696 C170 717 153 735 131 735 C110 735 93 717 93 696 L93 34 Z " />
<glyph glyph-name="m" unicode="m" horiz-adv-x="951" d="M86 34 C86 12 103 -5 125 -5 C147 -5 163 12 163 34 L163 295 C163 390 225 458 307 458 C389 458 440 401 440 304 L440 34 C440 12 457 -5 478 -5 C500 -5 517 12 517 34 L517 298 C517 400 581 458 659 458 C743 458 793 402 793 302 L793 34 C793 12 810 -5 832 -5 C853 -5 870 12 870 34 L870 320 C870 448 797 528 678 528 C588 528 533 482 496 425 C468 483 414 528 330 528 C243 528 197 481 163 430 L163 483 C163 505 146 522 124 522 C103 522 86 504 86 483 L86 34 Z " />
<glyph glyph-name="n" unicode="n" horiz-adv-x="616" d="M86 34 C86 12 103 -5 125 -5 C147 -5 163 12 163 34 L163 296 C163 393 229 458 318 458 C409 458 461 398 461 302 L461 34 C461 12 478 -5 500 -5 C521 -5 538 12 538 34 L538 321 C538 444 465 528 340 528 C251 528 197 483 163 427 L163 483 C163 505 146 522 124 522 C103 522 86 504 86 483 L86 34 Z " />
<glyph glyph-name="o" unicode="o" horiz-adv-x="646" d="M322 -12 C478 -12 593 112 593 258 L593 260 C593 406 479 528 324 528 C168 528 54 404 54 258 L54 256 C54 110 167 -12 322 -12 L322 -12 Z M324 57 C215 57 133 147 133 258 L133 260 C133 369 210 460 322 460 C431 460 514 369 514 258 L514 256 C514 147 436 57 324 57 L324 57 Z " />
<glyph glyph-name="p" unicode="p" horiz-adv-x="664" d="M86 -126 C86 -148 103 -165 125 -165 C147 -165 163 -148 163 -126 L163 99 C203 41 265 -11 361 -11 C486 -11 608 89 608 258 L608 260 C608 430 485 528 361 528 C266 528 205 475 163 413 L163 483 C163 505 146 522 124 522 C103 522 86 505 86 483 L86 -126 Z M347 58 C251 58 160 138 160 258 L160 260 C160 378 251 459 347 459 C445 459 529 381 529 259 L529 257 C529 132 447 58 347 58 L347 58 Z " />
<glyph glyph-name="q" unicode="q" horiz-adv-x="664" d="M578 483 C578 504 561 522 539 522 C517 522 501 504 501 483 L501 418 C461 476 399 528 303 528 C179 528 56 428 56 259 L56 257 C56 87 179 -11 303 -11 C398 -11 459 42 501 104 L501 -126 C501 -148 518 -165 540 -165 C561 -165 578 -148 578 -126 L578 483 Z M317 459 C413 459 504 379 504 260 L504 258 C504 139 413 58 317 58 C220 58 135 136 135 258 L135 260 C135 385 217 459 317 459 L317 459 Z " />
<glyph glyph-name="r" unicode="r" horiz-adv-x="405" d="M86 34 C86 12 103 -5 125 -5 C147 -5 163 13 163 34 L163 210 C163 359 245 434 345 446 C365 449 379 464 379 485 C379 507 364 524 341 524 C276 524 201 472 163 386 L163 483 C163 505 146 522 124 522 C103 522 86 504 86 483 L86 34 Z " />
<glyph glyph-name="s" unicode="s" horiz-adv-x="498" d="M257 -10 C360 -10 441 47 441 145 L441 147 C441 240 355 271 275 295 C206 316 142 335 142 384 L142 386 C142 429 181 461 242 461 C286 461 333 446 377 421 C381 419 387 417 394 417 C413 417 428 432 428 450 C428 465 419 476 409 482 C359 509 299 526 244 526 C142 526 68 467 68 378 L68 376 C68 281 158 253 239 230 C307 211 368 191 368 139 L368 137 C368 87 323 55 261 55 C205 55 150 74 97 110 C92 114 85 116 78 116 C59 116 44 101 44 83 C44 70 51 60 58 55 C114 15 189 -10 257 -10 L257 -10 Z " />
<glyph glyph-name="t" unicode="t" horiz-adv-x="404" d="M259 -9 C289 -9 313 -4 335 5 C348 10 357 21 357 35 C357 53 342 68 324 68 C318 68 304 61 277 61 C225 61 190 84 190 147 L190 449 L324 449 C343 449 359 464 359 483 C359 501 343 517 324 517 L190 517 L190 639 C190 660 172 678 151 678 C129 678 113 660 113 639 L113 517 L71 517 C53 517 37 502 37 483 C37 465 53 449 71 449 L113 449 L113 137 C113 32 176 -9 259 -9 L259 -9 Z " />
<glyph glyph-name="u" unicode="u" horiz-adv-x="616" d="M529 483 C529 505 512 522 491 522 C469 522 453 505 453 483 L453 221 C453 124 386 59 298 59 C207 59 155 119 155 215 L155 483 C155 505 137 522 116 522 C94 522 78 505 78 483 L78 196 C78 73 151 -11 276 -11 C365 -11 418 34 453 90 L453 34 C453 12 470 -5 491 -5 C513 -5 529 13 529 34 L529 483 Z " />
<glyph glyph-name="v" unicode="v" horiz-adv-x="584" d="M337 25 L532 465 C534 470 536 477 536 484 C536 505 519 522 498 522 C478 522 467 509 462 494 L292 88 L125 492 C119 509 108 522 86 522 C64 522 47 504 47 484 C47 477 50 470 52 463 L246 25 C255 5 269 -8 290 -8 L294 -8 C315 -8 328 5 337 25 L337 25 Z " />
<glyph glyph-name="w" unicode="w" horiz-adv-x="858" d="M255 -8 L257 -8 C277 -8 292 4 299 27 L429 404 L558 27 C565 4 580 -8 600 -8 L603 -8 C621 -8 637 4 645 27 L803 465 C805 471 808 479 808 486 C808 505 792 522 770 522 C749 522 738 508 733 492 L601 102 L471 491 C465 509 452 522 431 522 L427 522 C407 522 395 509 389 491 L258 102 L128 490 C122 509 109 522 89 522 C66 522 50 504 50 485 C50 478 53 470 55 464 L212 27 C220 4 236 -8 255 -8 L255 -8 Z " />
<glyph glyph-name="x" unicode="x" horiz-adv-x="571" d="M60 30 C60 11 75 -5 95 -5 C109 -5 119 3 128 14 L284 212 L441 13 C450 2 460 -5 475 -5 C495 -5 511 10 511 31 C511 41 507 50 500 59 L332 265 L493 462 C499 469 503 477 503 487 C503 507 488 522 468 522 C454 522 444 514 435 503 L287 315 L138 504 C129 515 119 522 104 522 C84 522 68 508 68 486 C68 476 72 467 80 458 L239 263 L70 55 C63 48 60 40 60 30 L60 30 Z " />
<glyph glyph-name="y" unicode="y" horiz-adv-x="587" d="M161 -163 C239 -163 289 -124 334 -17 L536 465 C538 471 540 478 540 484 C540 505 523 522 502 522 C482 522 471 509 465 493 L305 86 L125 492 C118 509 107 522 86 522 C64 522 47 505 47 484 C47 477 49 470 52 463 L268 5 L264 -3 C236 -66 208 -95 160 -95 C134 -95 119 -91 104 -86 C98 -84 92 -82 85 -82 C68 -82 52 -96 52 -115 C52 -133 64 -143 76 -148 C102 -157 127 -163 161 -163 L161 -163 Z " />
<glyph glyph-name="z" unicode="z" horiz-adv-x="556" d="M93 0 L475 0 C493 0 508 15 508 33 C508 50 493 65 475 65 L160 65 L487 449 C498 461 503 471 503 484 L503 486 C503 503 487 517 466 517 L97 517 C79 517 64 502 64 484 C64 466 79 452 97 452 L399 452 L72 68 C61 56 56 46 56 33 L56 31 C56 14 73 0 93 0 L93 0 Z " />
<glyph glyph-name="braceleft" unicode="&#x7b;" horiz-adv-x="483" d="M398 -137 C416 -141 432 -130 432 -112 C432 -98 422 -89 414 -86 C287 -51 272 -16 272 71 C272 91 273 125 273 146 C273 230 236 265 169 287 C233 307 273 344 273 428 C273 449 272 483 272 503 C272 590 287 625 414 660 C422 663 432 672 432 686 C432 704 416 715 398 711 C234 677 199 614 199 513 C199 498 200 454 200 437 C200 361 175 318 86 317 C64 316 51 304 51 287 C51 270 64 258 86 257 C175 256 200 213 200 137 C200 120 199 76 199 61 C199 -40 234 -103 398 -137 L398 -137 Z " />
<glyph glyph-name="bar" unicode="&#x7c;" horiz-adv-x="303" d="M119 -100 C119 -118 134 -133 152 -133 C169 -133 184 -118 184 -100 L184 770 C184 788 169 803 152 803 C134 803 119 788 119 770 L119 -100 Z " />
<glyph glyph-name="braceright" unicode="&#x7d;" horiz-adv-x="483" d="M85 711 C66 715 51 704 51 686 C51 672 61 663 69 660 C195 625 211 590 211 503 C211 483 210 449 210 428 C210 344 247 309 314 287 C250 267 210 230 210 146 C210 125 211 91 211 71 C211 -16 195 -51 69 -86 C61 -89 51 -98 51 -112 C51 -130 66 -141 85 -137 C248 -103 284 -40 284 61 C284 76 283 120 283 137 C283 213 307 256 397 257 C419 258 431 270 431 287 C431 304 419 316 397 317 C307 318 283 361 283 437 C283 454 284 498 284 513 C284 614 248 677 85 711 L85 711 Z " />
<glyph glyph-name="asciitilde" unicode="&#x7e;" horiz-adv-x="474" d="M126 251 C138 276 149 287 172 287 C206 287 261 246 306 246 C348 246 374 270 394 328 C395 332 396 340 396 344 C396 357 385 367 371 367 C360 367 352 359 347 351 C335 326 324 315 302 315 C267 315 212 356 168 356 C125 356 100 332 80 274 C78 270 77 262 77 258 C77 245 89 235 102 235 C115 235 122 243 126 251 L126 251 Z " />
<glyph glyph-name="uni00A0" unicode="&#xa0;" horiz-adv-x="300" d="" />
<glyph glyph-name="exclamdown" unicode="&#xa1;" horiz-adv-x="271" d="M159 483 C158 496 148 506 136 506 C123 506 113 496 112 483 L89 29 C88 11 101 -3 118 -3 L153 -3 C171 -3 183 11 182 29 L159 483 Z M183 637 L183 658 C183 684 163 705 136 705 C108 705 88 684 88 658 L88 637 C88 610 108 590 136 590 C163 590 183 610 183 637 L183 637 Z " />
<glyph glyph-name="cent" unicode="&#xa2;" horiz-adv-x="581" d="M219 29 C214 7 230 -11 250 -11 C267 -11 278 2 281 15 L295 86 C304 85 313 85 322 85 C408 85 469 120 517 169 C524 175 528 183 528 193 C528 211 513 227 495 227 C484 227 477 223 471 217 C431 179 384 154 326 154 C319 154 312 154 305 155 L381 547 C414 536 441 516 466 494 C472 488 480 484 491 484 C511 484 527 500 527 521 C527 533 521 542 514 549 C482 577 446 602 398 615 L409 671 C414 693 399 711 379 711 C362 711 350 698 347 685 L336 625 L323 625 C173 625 58 501 58 355 L58 353 C58 237 129 137 233 100 L219 29 Z M136 355 L136 357 C136 468 217 556 321 556 L324 556 L250 169 C181 200 136 271 136 355 L136 355 Z " />
<glyph glyph-name="sterling" unicode="&#xa3;" horiz-adv-x="644" d="M63 25 C63 11 74 0 89 0 L554 0 C573 0 590 15 590 35 C590 54 573 70 554 70 L230 70 L230 295 L479 295 C498 295 514 310 514 329 C514 348 498 364 479 364 L230 364 L230 472 C230 527 245 571 273 600 C298 624 330 637 371 637 C438 637 477 609 513 568 C519 562 528 555 542 555 C564 555 581 571 581 593 C581 605 576 614 569 622 C525 672 467 710 372 710 C306 710 252 688 214 650 C173 609 151 546 151 472 L151 364 L98 364 C79 364 63 348 63 329 C63 310 79 295 98 295 L151 295 L151 67 L83 50 C70 46 63 36 63 25 L63 25 Z " />
<glyph glyph-name="yen" unicode="&#xa5;" horiz-adv-x="686" d="M381 266 L560 266 C576 266 591 280 591 297 C591 314 576 328 560 328 L404 328 L625 639 C630 648 635 658 635 668 C635 689 618 705 598 705 C582 705 570 695 561 682 L344 359 L128 681 C119 696 108 705 91 705 C69 705 52 687 52 667 C52 658 55 649 61 639 L280 328 L126 328 C110 328 95 314 95 297 C95 280 110 266 126 266 L305 266 L305 178 L126 178 C110 178 95 164 95 147 C95 130 110 116 126 116 L305 116 L305 34 C305 12 322 -5 343 -5 C364 -5 381 12 381 34 L381 116 L560 116 C576 116 591 130 591 147 C591 164 576 178 560 178 L381 178 L381 266 Z " />
<glyph glyph-name="section" unicode="&#xa7;" horiz-adv-x="632" d="M328 -10 C440 -10 512 43 512 123 L512 125 C512 168 483 204 438 226 C516 239 570 280 570 340 L570 342 C570 411 514 448 362 484 C237 514 199 539 199 576 L199 578 C199 616 233 644 302 644 C367 644 425 618 468 580 C475 574 482 570 493 570 C512 570 528 585 528 605 C528 616 523 626 516 632 C462 679 387 710 304 710 C192 710 120 657 120 577 L120 575 C120 532 149 497 194 474 C116 461 62 421 62 360 L62 358 C62 290 118 252 270 216 C393 187 433 161 433 124 L433 122 C433 85 400 56 330 56 C265 56 207 82 164 120 C157 126 150 130 139 130 C120 130 104 115 104 95 C104 84 109 74 116 68 C170 21 245 -10 328 -10 L328 -10 Z M387 263 C361 263 326 267 278 279 C168 306 136 333 136 366 L136 368 C136 405 180 437 245 437 C271 437 305 433 354 421 C464 394 496 367 496 334 L496 332 C496 295 452 263 387 263 L387 263 Z " />
<glyph glyph-name="dieresis" unicode="&#xa8;" horiz-adv-x="500" d="M339 695 C313 695 292 676 292 650 L292 635 C292 609 313 590 339 590 C365 590 386 609 386 635 L386 650 C386 676 365 695 339 695 L339 695 Z M161 695 C135 695 114 676 114 650 L114 635 C114 609 135 590 161 590 C187 590 208 609 208 635 L208 650 C208 676 187 695 161 695 L161 695 Z " />
<glyph glyph-name="copyright" unicode="&#xa9;" horiz-adv-x="830" d="M414 -12 C617 -12 777 153 777 350 L777 352 C777 549 619 712 416 712 C213 712 53 547 53 350 L53 348 C53 151 211 -12 414 -12 L414 -12 Z M414 19 C227 19 86 167 86 348 L86 350 C86 531 228 681 416 681 C603 681 744 533 744 352 L744 350 C744 169 602 19 414 19 L414 19 Z M419 163 C480 163 518 185 555 217 C560 221 564 228 564 236 C564 250 552 261 538 261 C530 261 525 258 521 255 C491 229 463 214 421 214 C347 214 289 278 289 355 L289 357 C289 433 345 497 420 497 C459 497 489 480 515 458 C521 454 527 450 534 450 C549 450 562 462 562 477 C562 487 556 495 550 500 C518 527 480 547 421 547 C313 547 233 460 233 356 L233 354 C233 249 313 163 419 163 L419 163 Z " />
<glyph glyph-name="ordfeminine" unicode="&#xaa;" horiz-adv-x="390" d="M168 408 C210 408 242 425 264 452 L264 432 C264 419 275 409 288 409 C301 409 313 420 313 433 L313 587 C313 623 303 652 284 671 C262 692 231 703 191 703 C154 703 127 696 98 683 C89 679 83 672 83 662 C83 649 93 640 105 640 C109 640 113 641 118 643 C136 650 160 658 186 658 C235 658 264 633 264 587 L264 582 C242 588 218 593 184 593 C112 593 61 560 61 500 L61 498 C61 438 115 408 168 408 L168 408 Z M177 450 C142 450 113 468 113 500 L113 502 C113 533 141 555 188 555 C220 555 244 550 264 544 L264 520 C264 478 224 450 177 450 L177 450 Z M77 289 L299 289 C311 289 322 299 322 312 C322 325 311 336 299 336 L77 336 C65 336 54 325 54 312 C54 299 65 289 77 289 L77 289 Z " />
<glyph glyph-name="guillemotleft" unicode="&#xab;" horiz-adv-x="550" d="M450 42 C468 42 482 57 482 75 C482 84 480 90 474 98 L355 260 L473 418 C478 425 482 434 482 442 C482 460 468 474 450 474 C438 474 428 468 421 458 L288 286 C280 276 276 268 276 259 C276 249 280 241 288 231 L422 58 C428 49 437 42 450 42 L450 42 Z M227 42 C245 42 260 57 260 75 C260 83 257 91 252 98 L133 260 L251 418 C256 425 260 434 260 442 C260 460 245 474 227 474 C215 474 205 468 198 458 L66 286 C58 276 54 268 54 259 C54 249 58 241 66 231 L199 58 C206 49 215 42 227 42 L227 42 Z " />
<glyph glyph-name="registered" unicode="&#xae;" horiz-adv-x="403" d="M202 360 C299 360 376 440 376 535 L376 536 C376 631 300 710 202 710 C105 710 28 630 28 535 L28 534 C28 439 104 360 202 360 L202 360 Z M202 379 C114 379 48 449 48 534 L48 535 C48 620 115 691 202 691 C290 691 356 621 356 536 L356 535 C356 450 289 379 202 379 L202 379 Z M134 464 C134 454 141 446 151 446 C160 446 168 454 168 464 L168 511 L204 511 L250 455 C254 450 259 446 266 446 C275 446 282 454 282 463 C282 467 281 471 277 476 L243 516 C267 525 282 544 282 571 C282 608 253 627 214 627 L151 627 C141 627 134 619 134 610 L134 464 Z M168 539 L168 597 L211 597 C234 597 247 587 247 568 C247 551 234 539 211 539 L168 539 Z " />
<glyph glyph-name="macron" unicode="&#xaf;" horiz-adv-x="500" d="M382 615 C400 615 414 630 414 647 C414 664 400 679 382 679 L118 679 C100 679 86 664 86 647 C86 630 100 615 118 615 L382 615 Z " />
<glyph glyph-name="degree" unicode="&#xb0;" horiz-adv-x="458" d="M229 400 C311 400 386 471 386 552 L386 554 C386 636 311 706 229 706 C147 706 72 636 72 554 L72 552 C72 471 147 400 229 400 L229 400 Z M229 452 C172 452 130 500 130 552 L130 554 C130 606 172 654 229 654 C286 654 328 606 328 554 L328 552 C328 500 286 452 229 452 L229 452 Z " />
<glyph glyph-name="plusminus" unicode="&#xb1;" horiz-adv-x="625" d="M276 200 C276 180 292 163 313 163 C333 163 349 180 349 200 L349 364 L518 364 C537 364 553 380 553 399 C553 418 537 434 518 434 L349 434 L349 598 C349 618 333 635 313 635 C292 635 276 618 276 598 L276 434 L107 434 C88 434 72 418 72 399 C72 380 88 364 107 364 L276 364 L276 200 Z M107 0 L519 0 C538 0 553 16 553 35 C553 53 538 69 519 69 L107 69 C88 69 72 53 72 35 C72 16 88 0 107 0 L107 0 Z " />
<glyph glyph-name="acute" unicode="&#xb4;" horiz-adv-x="500" d="M211 591 C230 591 242 594 258 610 L333 681 C341 689 347 696 347 704 C347 718 317 734 293 734 C278 734 267 726 257 711 L197 620 C194 616 192 610 192 605 C192 597 200 591 211 591 L211 591 Z " />
<glyph glyph-name="paragraph" unicode="&#xb6;" horiz-adv-x="510" d="M338 35 C338 13 356 -5 379 -5 C401 -5 418 13 418 35 L418 660 C418 682 400 700 378 700 L312 700 C157 700 48 619 48 483 L48 481 C48 341 169 264 327 264 L338 264 L338 35 Z " />
<glyph glyph-name="periodcentered" unicode="&#xb7;" horiz-adv-x="245" d="M75 311 L75 291 C75 264 96 244 123 244 C149 244 170 264 170 291 L170 311 C170 338 149 358 123 358 C96 358 75 338 75 311 L75 311 Z " />
<glyph glyph-name="cedilla" unicode="&#xb8;" horiz-adv-x="500" d="M301 10 L240 10 L165 -99 C161 -106 159 -112 159 -117 C159 -132 188 -149 207 -149 C224 -149 231 -140 238 -126 L301 10 Z " />
<glyph glyph-name="ordmasculine" unicode="&#xba;" horiz-adv-x="390" d="M194 407 C279 407 342 475 342 556 L342 558 C342 638 280 705 196 705 C111 705 48 637 48 556 L48 554 C48 474 110 407 194 407 L194 407 Z M70 289 L320 289 C333 289 344 299 344 312 C344 325 333 336 320 336 L70 336 C57 336 46 325 46 312 C46 299 57 289 70 289 L70 289 Z M196 455 C142 455 102 501 102 556 L102 558 C102 612 139 657 194 657 C248 657 288 612 288 556 L288 554 C288 500 251 455 196 455 L196 455 Z " />
<glyph glyph-name="guillemotright" unicode="&#xbb;" horiz-adv-x="550" d="M323 474 C305 474 290 460 290 442 C290 434 293 426 299 419 L418 257 L299 98 C294 92 290 83 290 75 C290 57 305 42 323 42 C335 42 345 49 352 59 L485 231 C492 241 496 249 496 258 C496 268 492 275 485 285 L351 459 C344 468 335 474 323 474 L323 474 Z M101 474 C82 474 68 460 68 442 C67 433 71 427 76 419 L195 257 L77 98 C72 92 68 83 68 75 C68 57 82 42 100 42 C112 42 122 49 130 59 L262 231 C270 241 274 249 274 258 C274 268 270 275 262 285 L128 459 C122 468 113 474 101 474 L101 474 Z " />
<glyph glyph-name="questiondown" unicode="&#xbf;" horiz-adv-x="537" d="M289 507 C275 507 264 496 263 480 L256 394 C142 378 48 316 48 191 L48 189 C48 75 136 -9 272 -9 C369 -9 437 31 490 89 C498 97 501 107 501 116 C501 136 485 151 466 151 C455 151 446 146 439 140 C393 91 341 62 274 62 C184 62 128 120 128 192 L128 194 C128 278 195 325 300 333 C320 335 332 349 329 368 L319 480 C317 496 306 507 292 507 L289 507 Z M339 637 L339 658 C339 684 319 705 292 705 C264 705 244 684 244 658 L244 637 C244 610 264 590 292 590 C319 590 339 610 339 637 L339 637 Z " />
<glyph glyph-name="Agrave" unicode="&#xc0;" horiz-adv-x="784" d="M51 31 C51 11 67 -5 87 -5 C105 -5 118 5 125 22 L198 185 L582 185 L655 24 C662 8 675 -5 694 -5 C715 -5 732 12 732 33 C732 39 730 46 727 53 L443 673 C434 695 418 708 394 708 L390 708 C365 708 350 695 340 673 L56 52 C52 44 51 37 51 31 L51 31 Z M229 257 L390 615 L551 257 L229 257 Z M393 768 C404 768 412 774 412 782 C412 787 410 793 407 797 L347 888 C337 903 326 911 311 911 C287 911 257 895 257 881 C257 873 263 866 271 858 L346 787 C362 771 374 768 393 768 L393 768 Z " />
<glyph glyph-name="Aacute" unicode="&#xc1;" horiz-adv-x="784" d="M51 31 C51 11 67 -5 87 -5 C105 -5 118 5 125 22 L198 185 L582 185 L655 24 C662 8 675 -5 694 -5 C715 -5 732 12 732 33 C732 39 730 46 727 53 L443 673 C434 695 418 708 394 708 L390 708 C365 708 350 695 340 673 L56 52 C52 44 51 37 51 31 L51 31 Z M229 257 L390 615 L551 257 L229 257 Z M389 768 C408 768 420 771 436 787 L511 858 C519 866 525 873 525 881 C525 895 495 911 471 911 C456 911 445 903 435 888 L375 797 C372 793 370 787 370 782 C370 774 378 768 389 768 L389 768 Z " />
<glyph glyph-name="Acircumflex" unicode="&#xc2;" horiz-adv-x="784" d="M51 31 C51 11 67 -5 87 -5 C105 -5 118 5 125 22 L198 185 L582 185 L655 24 C662 8 675 -5 694 -5 C715 -5 732 12 732 33 C732 39 730 46 727 53 L443 673 C434 695 418 708 394 708 L390 708 C365 708 350 695 340 673 L56 52 C52 44 51 37 51 31 L51 31 Z M229 257 L390 615 L551 257 L229 257 Z M390 839 L449 787 C466 771 479 768 498 768 C509 768 517 774 517 782 C517 787 514 792 510 799 L440 885 C429 898 419 907 400 907 L382 907 C363 907 353 898 342 885 L272 799 C268 792 265 787 265 782 C265 774 272 768 283 768 C302 768 314 771 331 787 L390 839 Z " />
<glyph glyph-name="Atilde" unicode="&#xc3;" horiz-adv-x="784" d="M51 31 C51 11 67 -5 87 -5 C105 -5 118 5 125 22 L198 185 L582 185 L655 24 C662 8 675 -5 694 -5 C715 -5 732 12 732 33 C732 39 730 46 727 53 L443 673 C434 695 418 708 394 708 L390 708 C365 708 350 695 340 673 L56 52 C52 44 51 37 51 31 L51 31 Z M229 257 L390 615 L551 257 L229 257 Z M284 777 C296 802 307 812 330 812 C364 812 419 772 464 772 C507 772 532 795 552 853 C553 858 555 865 555 869 C555 882 543 893 529 893 C518 893 510 884 506 876 C494 851 483 841 460 841 C426 841 371 881 326 881 C283 881 258 858 238 800 C237 796 235 788 235 784 C235 771 247 760 261 760 C273 760 280 769 284 777 L284 777 Z " />
<glyph glyph-name="Adieresis" unicode="&#xc4;" horiz-adv-x="784" d="M51 31 C51 11 67 -5 87 -5 C105 -5 118 5 125 22 L198 185 L582 185 L655 24 C662 8 675 -5 694 -5 C715 -5 732 12 732 33 C732 39 730 46 727 53 L443 673 C434 695 418 708 394 708 L390 708 C365 708 350 695 340 673 L56 52 C52 44 51 37 51 31 L51 31 Z M229 257 L390 615 L551 257 L229 257 Z M480 872 C454 872 433 853 433 827 L433 812 C433 786 454 767 480 767 C506 767 527 786 527 812 L527 827 C527 853 506 872 480 872 L480 872 Z M302 872 C276 872 255 853 255 827 L255 812 C255 786 276 767 302 767 C328 767 349 786 349 812 L349 827 C349 853 328 872 302 872 L302 872 Z " />
<glyph glyph-name="Aring" unicode="&#xc5;" horiz-adv-x="790" d="M444 680 C476 696 499 729 499 766 L499 768 C499 822 450 867 395 867 C340 867 291 822 291 768 L291 766 C291 729 314 696 346 680 L58 49 C56 43 54 38 54 32 C54 13 70 -5 91 -5 C109 -5 122 7 128 22 L201 185 L586 185 L658 24 C666 8 678 -5 696 -5 C718 -5 735 14 735 34 C735 40 734 44 732 50 L444 680 Z M395 705 C362 705 333 733 333 766 L333 768 C333 801 361 829 395 829 C429 829 457 801 457 768 L457 766 C457 733 428 705 395 705 L395 705 Z M232 257 L394 615 L554 257 L232 257 Z " />
<glyph glyph-name="AE" unicode="&#xc6;" horiz-adv-x="1045" d="M34 29 C34 10 51 -5 70 -5 C85 -5 97 2 104 16 L205 185 L491 185 L491 40 C491 18 509 0 531 0 L953 0 C973 0 989 16 989 36 C989 56 973 72 953 72 L571 72 L571 317 L903 317 C923 317 939 333 939 353 C939 372 923 389 903 389 L571 389 L571 628 L948 628 C968 628 984 644 984 664 C984 684 968 700 948 700 L457 700 C436 700 423 690 413 674 L41 51 C38 44 34 36 34 29 L34 29 Z M247 257 L468 630 L491 630 L491 257 L247 257 Z " />
<glyph glyph-name="Ccedilla" unicode="&#xc7;" horiz-adv-x="738" d="M679 91 C686 97 692 107 692 119 C692 139 674 157 654 157 C644 157 635 152 629 146 C569 91 508 61 421 61 C267 61 150 188 150 350 L150 352 C150 513 266 639 421 639 C507 639 568 607 622 559 C628 555 637 550 648 550 C669 550 688 568 688 589 C688 603 680 614 672 621 C607 675 535 712 422 712 C216 712 68 548 68 350 L68 348 C68 163 194 14 371 -9 L309 -99 C305 -106 303 -112 303 -117 C303 -132 332 -149 351 -149 C368 -149 375 -140 382 -126 L435 -12 C541 -8 613 31 679 91 L679 91 Z " />
<glyph glyph-name="Egrave" unicode="&#xc8;" horiz-adv-x="670" d="M138 0 L578 0 C598 0 614 16 614 36 C614 56 598 72 578 72 L178 72 L178 317 L528 317 C548 317 564 333 564 353 C564 372 548 389 528 389 L178 389 L178 628 L573 628 C593 628 609 644 609 664 C609 684 593 700 573 700 L138 700 C117 700 99 682 99 660 L99 40 C99 18 117 0 138 0 L138 0 Z M355 758 C366 758 374 764 374 772 C374 777 372 783 369 787 L309 878 C299 893 288 901 273 901 C249 901 219 885 219 871 C219 863 225 856 233 848 L308 777 C324 761 336 758 355 758 L355 758 Z " />
<glyph glyph-name="Eacute" unicode="&#xc9;" horiz-adv-x="670" d="M351 758 C370 758 382 761 398 777 L473 848 C481 856 487 863 487 871 C487 885 457 901 433 901 C418 901 407 893 397 878 L337 787 C334 783 332 777 332 772 C332 764 340 758 351 758 L351 758 Z M138 0 L578 0 C598 0 614 16 614 36 C614 56 598 72 578 72 L178 72 L178 317 L528 317 C548 317 564 333 564 353 C564 372 548 389 528 389 L178 389 L178 628 L573 628 C593 628 609 644 609 664 C609 684 593 700 573 700 L138 700 C117 700 99 682 99 660 L99 40 C99 18 117 0 138 0 L138 0 Z " />
<glyph glyph-name="Ecircumflex" unicode="&#xca;" horiz-adv-x="670" d="M352 829 L411 777 C428 761 441 758 460 758 C471 758 479 764 479 772 C479 777 476 782 472 789 L402 875 C391 888 381 897 362 897 L344 897 C325 897 315 888 304 875 L234 789 C230 782 227 777 227 772 C227 764 234 758 245 758 C264 758 276 761 293 777 L352 829 Z M138 0 L578 0 C598 0 614 16 614 36 C614 56 598 72 578 72 L178 72 L178 317 L528 317 C548 317 564 333 564 353 C564 372 548 389 528 389 L178 389 L178 628 L573 628 C593 628 609 644 609 664 C609 684 593 700 573 700 L138 700 C117 700 99 682 99 660 L99 40 C99 18 117 0 138 0 L138 0 Z " />
<glyph glyph-name="Edieresis" unicode="&#xcb;" horiz-adv-x="670" d="M442 862 C416 862 395 843 395 817 L395 802 C395 776 416 757 442 757 C468 757 489 776 489 802 L489 817 C489 843 468 862 442 862 L442 862 Z M264 862 C238 862 217 843 217 817 L217 802 C217 776 238 757 264 757 C290 757 311 776 311 802 L311 817 C311 843 290 862 264 862 L264 862 Z M138 0 L578 0 C598 0 614 16 614 36 C614 56 598 72 578 72 L178 72 L178 317 L528 317 C548 317 564 333 564 353 C564 372 548 389 528 389 L178 389 L178 628 L573 628 C593 628 609 644 609 664 C609 684 593 700 573 700 L138 700 C117 700 99 682 99 660 L99 40 C99 18 117 0 138 0 L138 0 Z " />
<glyph glyph-name="Igrave" unicode="&#xcc;" horiz-adv-x="291" d="M106 35 C106 13 124 -5 145 -5 C167 -5 185 13 185 35 L185 665 C185 687 167 705 145 705 C124 705 106 687 106 665 L106 35 Z M148 758 C159 758 167 764 167 772 C167 777 165 783 162 787 L102 878 C92 893 81 901 66 901 C42 901 12 885 12 871 C12 863 18 856 26 848 L101 777 C117 761 129 758 148 758 L148 758 Z " />
<glyph glyph-name="Iacute" unicode="&#xcd;" horiz-adv-x="291" d="M106 35 C106 13 124 -5 145 -5 C167 -5 185 13 185 35 L185 665 C185 687 167 705 145 705 C124 705 106 687 106 665 L106 35 Z M144 758 C163 758 175 761 191 777 L266 848 C274 856 280 863 280 871 C280 885 250 901 226 901 C211 901 200 893 190 878 L130 787 C127 783 125 777 125 772 C125 764 133 758 144 758 L144 758 Z " />
<glyph glyph-name="Icircumflex" unicode="&#xce;" horiz-adv-x="291" d="M106 35 C106 13 124 -5 145 -5 C167 -5 185 13 185 35 L185 665 C185 687 167 705 145 705 C124 705 106 687 106 665 L106 35 Z M145 829 L204 777 C221 761 234 758 253 758 C264 758 272 764 272 772 C272 777 269 782 265 789 L195 875 C184 888 174 897 155 897 L137 897 C118 897 108 888 97 875 L27 789 C23 782 20 777 20 772 C20 764 27 758 38 758 C57 758 69 761 86 777 L145 829 Z " />
<glyph glyph-name="Idieresis" unicode="&#xcf;" horiz-adv-x="291" d="M106 35 C106 13 124 -5 145 -5 C167 -5 185 13 185 35 L185 665 C185 687 167 705 145 705 C124 705 106 687 106 665 L106 35 Z M235 862 C209 862 188 843 188 817 L188 802 C188 776 209 757 235 757 C261 757 282 776 282 802 L282 817 C282 843 261 862 235 862 L235 862 Z M57 862 C31 862 10 843 10 817 L10 802 C10 776 31 757 57 757 C83 757 104 776 104 802 L104 817 C104 843 83 862 57 862 L57 862 Z " />
<glyph glyph-name="Eth" unicode="&#xd0;" horiz-adv-x="812" d="M85 388 C65 388 49 372 49 352 C49 332 65 316 85 316 L129 316 L129 40 C129 18 147 0 168 0 L372 0 C592 0 744 153 744 350 L744 352 C744 549 592 700 372 700 L168 700 C147 700 129 682 129 660 L129 388 L85 388 Z M208 627 L372 627 C549 627 662 505 662 350 L662 348 C662 193 549 73 372 73 L208 73 L208 316 L387 316 C406 316 423 332 423 352 C423 372 406 388 387 388 L208 388 L208 627 Z " />
<glyph glyph-name="Ntilde" unicode="&#xd1;" horiz-adv-x="790" d="M99 34 C99 13 116 -5 137 -5 C159 -5 176 13 176 34 L176 576 L610 21 C622 7 634 -3 651 -3 L655 -3 C676 -3 691 13 691 34 L691 666 C691 687 674 705 653 705 C631 705 614 687 614 666 L614 138 L189 680 C178 694 167 703 149 703 L138 703 C117 703 99 685 99 664 L99 34 Z M287 767 C299 792 310 802 333 802 C367 802 422 762 467 762 C510 762 535 785 555 843 C556 848 558 855 558 859 C558 872 546 883 532 883 C521 883 513 874 509 866 C497 841 486 831 463 831 C429 831 374 871 329 871 C286 871 261 848 241 790 C240 786 238 778 238 774 C238 761 250 750 264 750 C276 750 283 759 287 767 L287 767 Z " />
<glyph glyph-name="Ograve" unicode="&#xd2;" horiz-adv-x="850" d="M424 -12 C637 -12 782 157 782 350 L782 352 C782 545 639 712 426 712 C213 712 68 543 68 350 L68 348 C68 155 211 -12 424 -12 L424 -12 Z M426 61 C266 61 150 191 150 350 L150 352 C150 511 264 639 424 639 C584 639 700 509 700 350 L700 348 C700 189 586 61 426 61 L426 61 Z M427 768 C438 768 446 774 446 782 C446 787 444 793 441 797 L381 888 C371 903 360 911 345 911 C321 911 291 895 291 881 C291 873 297 866 305 858 L380 787 C396 771 408 768 427 768 L427 768 Z " />
<glyph glyph-name="Oacute" unicode="&#xd3;" horiz-adv-x="850" d="M422 768 C441 768 453 771 469 787 L544 858 C552 866 558 873 558 881 C558 895 528 911 504 911 C489 911 478 903 468 888 L408 797 C405 793 403 787 403 782 C403 774 411 768 422 768 L422 768 Z M424 -12 C637 -12 782 157 782 350 L782 352 C782 545 639 712 426 712 C213 712 68 543 68 350 L68 348 C68 155 211 -12 424 -12 L424 -12 Z M426 61 C266 61 150 191 150 350 L150 352 C150 511 264 639 424 639 C584 639 700 509 700 350 L700 348 C700 189 586 61 426 61 L426 61 Z " />
<glyph glyph-name="Ocircumflex" unicode="&#xd4;" horiz-adv-x="850" d="M424 839 L483 787 C500 771 513 768 532 768 C543 768 551 774 551 782 C551 787 548 792 544 799 L474 885 C463 898 453 907 434 907 L416 907 C397 907 387 898 376 885 L306 799 C302 792 299 787 299 782 C299 774 306 768 317 768 C336 768 348 771 365 787 L424 839 Z M424 -12 C637 -12 782 157 782 350 L782 352 C782 545 639 712 426 712 C213 712 68 543 68 350 L68 348 C68 155 211 -12 424 -12 L424 -12 Z M426 61 C266 61 150 191 150 350 L150 352 C150 511 264 639 424 639 C584 639 700 509 700 350 L700 348 C700 189 586 61 426 61 L426 61 Z " />
<glyph glyph-name="Otilde" unicode="&#xd5;" horiz-adv-x="850" d="M424 -12 C637 -12 782 157 782 350 L782 352 C782 545 639 712 426 712 C213 712 68 543 68 350 L68 348 C68 155 211 -12 424 -12 L424 -12 Z M426 61 C266 61 150 191 150 350 L150 352 C150 511 264 639 424 639 C584 639 700 509 700 350 L700 348 C700 189 586 61 426 61 L426 61 Z M317 777 C329 802 340 812 363 812 C397 812 452 772 497 772 C540 772 565 795 585 853 C586 858 588 865 588 869 C588 882 576 893 562 893 C551 893 543 884 539 876 C527 851 516 841 493 841 C459 841 404 881 359 881 C316 881 291 858 271 800 C270 796 268 788 268 784 C268 771 280 760 294 760 C306 760 313 769 317 777 L317 777 Z " />
<glyph glyph-name="Odieresis" unicode="&#xd6;" horiz-adv-x="850" d="M514 872 C488 872 467 853 467 827 L467 812 C467 786 488 767 514 767 C540 767 561 786 561 812 L561 827 C561 853 540 872 514 872 L514 872 Z M336 872 C310 872 289 853 289 827 L289 812 C289 786 310 767 336 767 C362 767 383 786 383 812 L383 827 C383 853 362 872 336 872 L336 872 Z M424 -12 C637 -12 782 157 782 350 L782 352 C782 545 639 712 426 712 C213 712 68 543 68 350 L68 348 C68 155 211 -12 424 -12 L424 -12 Z M426 61 C266 61 150 191 150 350 L150 352 C150 511 264 639 424 639 C584 639 700 509 700 350 L700 348 C700 189 586 61 426 61 L426 61 Z " />
<glyph glyph-name="multiply" unicode="&#xd7;" horiz-adv-x="625" d="M515 505 C522 512 527 521 527 531 C527 550 511 566 492 566 C482 566 473 562 466 555 L314 400 L162 554 C155 561 146 566 135 566 C115 566 98 550 98 530 C98 519 103 509 110 502 L264 351 L110 199 C103 192 98 183 98 173 C98 154 114 138 133 138 C144 138 152 142 160 149 L312 304 L463 150 C470 143 479 138 491 138 C511 138 527 154 527 174 C527 185 522 195 515 202 L361 353 L515 505 Z " />
<glyph glyph-name="Oslash" unicode="&#xd8;" horiz-adv-x="850" d="M424 -12 C637 -12 782 157 782 350 L782 352 C782 443 750 528 694 592 L755 657 C761 663 765 671 765 681 C765 697 753 710 735 710 C725 710 717 705 710 698 L650 635 C591 683 514 712 426 712 C213 712 68 543 68 350 L68 348 C68 257 99 171 155 107 L95 43 C89 37 85 29 85 19 C85 3 97 -10 115 -10 C125 -10 133 -5 140 2 L200 64 C259 17 335 -12 424 -12 L424 -12 Z M150 350 L150 352 C150 511 264 640 424 640 C491 640 551 616 598 577 L211 166 C172 216 150 280 150 350 L150 350 Z M426 60 C358 60 298 83 252 122 L639 534 C678 484 700 419 700 350 L700 348 C700 189 586 60 426 60 L426 60 Z " />
<glyph glyph-name="Ugrave" unicode="&#xd9;" horiz-adv-x="759" d="M379 -11 C554 -11 671 95 671 299 L671 665 C671 687 653 705 632 705 C610 705 592 687 592 665 L592 293 C592 140 510 62 381 62 C248 62 167 147 167 298 L167 665 C167 687 149 705 127 705 C106 705 88 687 88 665 L88 293 C88 95 206 -11 379 -11 L379 -11 Z M381 758 C392 758 400 764 400 772 C400 777 398 783 395 787 L335 878 C325 893 314 901 299 901 C275 901 245 885 245 871 C245 863 251 856 259 848 L334 777 C350 761 362 758 381 758 L381 758 Z " />
<glyph glyph-name="Uacute" unicode="&#xda;" horiz-adv-x="759" d="M377 758 C396 758 408 761 424 777 L499 848 C507 856 513 863 513 871 C513 885 483 901 459 901 C444 901 433 893 423 878 L363 787 C360 783 358 777 358 772 C358 764 366 758 377 758 L377 758 Z M379 -11 C554 -11 671 95 671 299 L671 665 C671 687 653 705 632 705 C610 705 592 687 592 665 L592 293 C592 140 510 62 381 62 C248 62 167 147 167 298 L167 665 C167 687 149 705 127 705 C106 705 88 687 88 665 L88 293 C88 95 206 -11 379 -11 L379 -11 Z " />
<glyph glyph-name="Ucircumflex" unicode="&#xdb;" horiz-adv-x="759" d="M378 829 L437 777 C454 761 467 758 486 758 C497 758 505 764 505 772 C505 777 502 782 498 789 L428 875 C417 888 407 897 388 897 L370 897 C351 897 341 888 330 875 L260 789 C256 782 253 777 253 772 C253 764 260 758 271 758 C290 758 302 761 319 777 L378 829 Z M379 -11 C554 -11 671 95 671 299 L671 665 C671 687 653 705 632 705 C610 705 592 687 592 665 L592 293 C592 140 510 62 381 62 C248 62 167 147 167 298 L167 665 C167 687 149 705 127 705 C106 705 88 687 88 665 L88 293 C88 95 206 -11 379 -11 L379 -11 Z " />
<glyph glyph-name="Udieresis" unicode="&#xdc;" horiz-adv-x="759" d="M468 862 C442 862 421 843 421 817 L421 802 C421 776 442 757 468 757 C494 757 515 776 515 802 L515 817 C515 843 494 862 468 862 L468 862 Z M290 862 C264 862 243 843 243 817 L243 802 C243 776 264 757 290 757 C316 757 337 776 337 802 L337 817 C337 843 316 862 290 862 L290 862 Z M379 -11 C554 -11 671 95 671 299 L671 665 C671 687 653 705 632 705 C610 705 592 687 592 665 L592 293 C592 140 510 62 381 62 C248 62 167 147 167 298 L167 665 C167 687 149 705 127 705 C106 705 88 687 88 665 L88 293 C88 95 206 -11 379 -11 L379 -11 Z " />
<glyph glyph-name="Yacute" unicode="&#xdd;" horiz-adv-x="708" d="M314 35 C314 13 332 -5 354 -5 C376 -5 394 13 394 35 L394 277 L653 637 C658 645 664 656 664 666 C664 687 647 705 625 705 C608 705 598 695 588 681 L355 348 L124 681 C114 695 103 705 86 705 C64 705 45 687 45 666 C45 656 49 647 54 639 L314 275 L314 35 Z M352 758 C371 758 383 761 399 777 L474 848 C482 856 488 863 488 871 C488 885 458 901 434 901 C419 901 408 893 398 878 L338 787 C335 783 333 777 333 772 C333 764 341 758 352 758 L352 758 Z " />
<glyph glyph-name="Thorn" unicode="&#xde;" horiz-adv-x="673" d="M99 35 C99 13 117 -5 138 -5 C160 -5 178 13 178 35 L178 126 L348 126 C497 126 623 205 623 356 L623 358 C623 495 519 580 361 580 L178 580 L178 665 C178 687 160 705 138 705 C117 705 99 687 99 665 L99 35 Z M178 198 L178 507 L355 507 C468 507 543 455 543 355 L543 353 C543 261 467 198 351 198 L178 198 Z " />
<glyph glyph-name="germandbls" unicode="&#xdf;" horiz-adv-x="620" d="M287 30 C287 12 301 -2 321 -2 C454 1 562 66 562 192 L562 194 C562 298 474 351 380 372 C450 402 519 460 519 555 L519 557 C519 658 439 737 313 737 C174 737 86 642 86 501 L86 33 C86 12 102 -5 124 -5 C146 -5 163 12 163 33 L163 502 C163 604 224 669 309 669 C387 669 440 621 440 552 L440 550 C440 473 383 426 310 396 C297 390 287 379 287 362 C287 341 301 331 319 327 C411 312 483 271 483 194 L483 192 C483 110 414 70 317 63 C300 60 287 47 287 30 L287 30 Z " />
<glyph glyph-name="agrave" unicode="&#xe0;" horiz-adv-x="579" d="M240 -11 C331 -11 391 31 427 78 L427 31 C427 11 442 -5 464 -5 C485 -5 501 11 501 33 L501 316 C501 382 483 432 448 467 C410 505 354 524 281 524 C215 524 163 511 112 489 C102 485 91 473 91 457 C91 439 107 424 125 424 C129 424 134 425 139 427 C177 444 221 456 273 456 C370 456 427 408 427 315 L427 297 C381 310 334 319 268 319 C137 319 47 261 47 152 L47 150 C47 44 144 -11 240 -11 L240 -11 Z M255 50 C185 50 125 88 125 153 L125 155 C125 220 179 262 276 262 C339 262 390 251 428 240 L428 190 C428 108 350 50 255 50 L255 50 Z M292 591 C303 591 311 597 311 605 C311 610 309 616 306 620 L246 711 C236 726 225 734 210 734 C186 734 156 718 156 704 C156 696 162 689 170 681 L245 610 C261 594 273 591 292 591 L292 591 Z " />
<glyph glyph-name="aacute" unicode="&#xe1;" horiz-adv-x="579" d="M240 -11 C331 -11 391 31 427 78 L427 31 C427 11 442 -5 464 -5 C485 -5 501 11 501 33 L501 316 C501 382 483 432 448 467 C410 505 354 524 281 524 C215 524 163 511 112 489 C102 485 91 473 91 457 C91 439 107 424 125 424 C129 424 134 425 139 427 C177 444 221 456 273 456 C370 456 427 408 427 315 L427 297 C381 310 334 319 268 319 C137 319 47 261 47 152 L47 150 C47 44 144 -11 240 -11 L240 -11 Z M255 50 C185 50 125 88 125 153 L125 155 C125 220 179 262 276 262 C339 262 390 251 428 240 L428 190 C428 108 350 50 255 50 L255 50 Z M287 591 C306 591 318 594 334 610 L409 681 C417 689 423 696 423 704 C423 718 393 734 369 734 C354 734 343 726 333 711 L273 620 C270 616 268 610 268 605 C268 597 276 591 287 591 L287 591 Z " />
<glyph glyph-name="acircumflex" unicode="&#xe2;" horiz-adv-x="579" d="M240 -11 C331 -11 391 31 427 78 L427 31 C427 11 442 -5 464 -5 C485 -5 501 11 501 33 L501 316 C501 382 483 432 448 467 C410 505 354 524 281 524 C215 524 163 511 112 489 C102 485 91 473 91 457 C91 439 107 424 125 424 C129 424 134 425 139 427 C177 444 221 456 273 456 C370 456 427 408 427 315 L427 297 C381 310 334 319 268 319 C137 319 47 261 47 152 L47 150 C47 44 144 -11 240 -11 L240 -11 Z M255 50 C185 50 125 88 125 153 L125 155 C125 220 179 262 276 262 C339 262 390 251 428 240 L428 190 C428 108 350 50 255 50 L255 50 Z M288 662 L347 610 C364 594 377 591 396 591 C407 591 415 597 415 605 C415 610 412 615 408 622 L338 708 C327 721 317 730 298 730 L280 730 C261 730 251 721 240 708 L170 622 C166 615 163 610 163 605 C163 597 170 591 181 591 C200 591 212 594 229 610 L288 662 Z " />
<glyph glyph-name="atilde" unicode="&#xe3;" horiz-adv-x="579" d="M240 -11 C331 -11 391 31 427 78 L427 31 C427 11 442 -5 464 -5 C485 -5 501 11 501 33 L501 316 C501 382 483 432 448 467 C410 505 354 524 281 524 C215 524 163 511 112 489 C102 485 91 473 91 457 C91 439 107 424 125 424 C129 424 134 425 139 427 C177 444 221 456 273 456 C370 456 427 408 427 315 L427 297 C381 310 334 319 268 319 C137 319 47 261 47 152 L47 150 C47 44 144 -11 240 -11 L240 -11 Z M255 50 C185 50 125 88 125 153 L125 155 C125 220 179 262 276 262 C339 262 390 251 428 240 L428 190 C428 108 350 50 255 50 L255 50 Z M182 600 C194 625 205 635 228 635 C262 635 317 595 362 595 C405 595 430 618 450 676 C451 681 453 688 453 692 C453 705 441 716 427 716 C416 716 408 707 404 699 C392 674 381 664 358 664 C324 664 269 704 224 704 C181 704 156 681 136 623 C135 619 133 611 133 607 C133 594 145 583 159 583 C171 583 178 592 182 600 L182 600 Z " />
<glyph glyph-name="adieresis" unicode="&#xe4;" horiz-adv-x="579" d="M240 -11 C331 -11 391 31 427 78 L427 31 C427 11 442 -5 464 -5 C485 -5 501 11 501 33 L501 316 C501 382 483 432 448 467 C410 505 354 524 281 524 C215 524 163 511 112 489 C102 485 91 473 91 457 C91 439 107 424 125 424 C129 424 134 425 139 427 C177 444 221 456 273 456 C370 456 427 408 427 315 L427 297 C381 310 334 319 268 319 C137 319 47 261 47 152 L47 150 C47 44 144 -11 240 -11 L240 -11 Z M255 50 C185 50 125 88 125 153 L125 155 C125 220 179 262 276 262 C339 262 390 251 428 240 L428 190 C428 108 350 50 255 50 L255 50 Z M378 695 C352 695 331 676 331 650 L331 635 C331 609 352 590 378 590 C404 590 425 609 425 635 L425 650 C425 676 404 695 378 695 L378 695 Z M200 695 C174 695 153 676 153 650 L153 635 C153 609 174 590 200 590 C226 590 247 609 247 635 L247 650 C247 676 226 695 200 695 L200 695 Z " />
<glyph glyph-name="aring" unicode="&#xe5;" horiz-adv-x="579" d="M240 -11 C331 -11 391 31 427 78 L427 31 C427 11 442 -5 464 -5 C485 -5 501 11 501 33 L501 316 C501 382 483 432 448 467 C410 505 354 524 281 524 C215 524 163 511 112 489 C102 485 91 473 91 457 C91 439 107 424 125 424 C129 424 134 425 139 427 C177 444 221 456 273 456 C370 456 427 408 427 315 L427 297 C381 310 334 319 268 319 C137 319 47 261 47 152 L47 150 C47 44 144 -11 240 -11 L240 -11 Z M255 50 C185 50 125 88 125 153 L125 155 C125 220 179 262 276 262 C339 262 390 251 428 240 L428 190 C428 108 350 50 255 50 L255 50 Z M289 593 C344 593 393 638 393 692 L393 694 C393 748 344 793 289 793 C234 793 185 748 185 694 L185 692 C185 638 234 593 289 593 L289 593 Z M289 631 C256 631 227 659 227 692 L227 694 C227 727 255 755 289 755 C323 755 351 727 351 694 L351 692 C351 659 322 631 289 631 L289 631 Z " />
<glyph glyph-name="ae" unicode="&#xe6;" horiz-adv-x="953" d="M493 287 C503 388 571 463 662 463 C764 463 818 381 826 287 L493 287 Z M251 51 C182 51 125 89 125 153 L125 155 C125 220 178 262 272 262 C329 262 378 251 416 241 C418 205 425 173 437 143 C389 89 327 51 251 51 L251 51 Z M869 66 C876 73 880 82 880 91 C880 109 865 124 846 124 C837 124 831 120 825 115 C786 80 740 55 675 55 C584 55 504 118 494 230 L867 230 C887 230 904 245 904 266 C904 403 816 528 664 528 C579 528 507 483 466 413 C440 487 374 524 276 524 C213 524 163 512 112 489 C102 485 91 473 91 457 C91 439 107 424 125 424 C129 424 134 425 139 427 C179 445 219 456 268 456 C363 456 417 408 417 315 L417 297 C371 310 327 319 264 319 C137 319 47 261 47 152 L47 150 C47 44 142 -11 242 -11 C338 -11 413 35 468 92 C514 27 590 -12 673 -12 C761 -12 819 19 869 66 L869 66 Z " />
<glyph glyph-name="ccedilla" unicode="&#xe7;" horiz-adv-x="571" d="M514 71 C520 77 524 86 524 95 C524 113 508 130 489 130 C479 130 472 125 467 120 C429 84 382 57 323 57 C215 57 133 146 133 258 L133 260 C133 371 213 460 318 460 C380 460 422 432 459 398 C465 393 474 389 484 389 C504 389 521 405 521 426 C521 438 515 448 509 453 C463 495 405 528 319 528 C168 528 54 404 54 258 L54 256 C54 127 144 15 271 -7 L208 -99 C204 -106 202 -112 202 -117 C202 -132 231 -149 250 -149 C267 -149 274 -140 281 -126 L334 -11 C413 -8 468 25 514 71 L514 71 Z " />
<glyph glyph-name="egrave" unicode="&#xe8;" horiz-adv-x="592" d="M132 287 C142 388 210 463 300 463 C403 463 457 381 465 287 L132 287 Z M507 66 C515 73 519 82 519 91 C519 109 504 124 485 124 C476 124 469 120 463 115 C425 80 378 55 314 55 C222 55 143 118 132 230 L506 230 C525 230 542 245 542 266 C542 403 455 528 302 528 C159 528 54 408 54 259 L54 257 C54 97 170 -12 312 -12 C400 -12 458 19 507 66 L507 66 Z M303 591 C314 591 322 597 322 605 C322 610 320 616 317 620 L257 711 C247 726 236 734 221 734 C197 734 167 718 167 704 C167 696 173 689 181 681 L256 610 C272 594 284 591 303 591 L303 591 Z " />
<glyph glyph-name="eacute" unicode="&#xe9;" horiz-adv-x="592" d="M299 591 C318 591 330 594 346 610 L421 681 C429 689 435 696 435 704 C435 718 405 734 381 734 C366 734 355 726 345 711 L285 620 C282 616 280 610 280 605 C280 597 288 591 299 591 L299 591 Z M132 287 C142 388 210 463 300 463 C403 463 457 381 465 287 L132 287 Z M507 66 C515 73 519 82 519 91 C519 109 504 124 485 124 C476 124 469 120 463 115 C425 80 378 55 314 55 C222 55 143 118 132 230 L506 230 C525 230 542 245 542 266 C542 403 455 528 302 528 C159 528 54 408 54 259 L54 257 C54 97 170 -12 312 -12 C400 -12 458 19 507 66 L507 66 Z " />
<glyph glyph-name="ecircumflex" unicode="&#xea;" horiz-adv-x="592" d="M300 662 L359 610 C376 594 389 591 408 591 C419 591 427 597 427 605 C427 610 424 615 420 622 L350 708 C339 721 329 730 310 730 L292 730 C273 730 263 721 252 708 L182 622 C178 615 175 610 175 605 C175 597 182 591 193 591 C212 591 224 594 241 610 L300 662 Z M132 287 C142 388 210 463 300 463 C403 463 457 381 465 287 L132 287 Z M507 66 C515 73 519 82 519 91 C519 109 504 124 485 124 C476 124 469 120 463 115 C425 80 378 55 314 55 C222 55 143 118 132 230 L506 230 C525 230 542 245 542 266 C542 403 455 528 302 528 C159 528 54 408 54 259 L54 257 C54 97 170 -12 312 -12 C400 -12 458 19 507 66 L507 66 Z " />
<glyph glyph-name="edieresis" unicode="&#xeb;" horiz-adv-x="592" d="M390 695 C364 695 343 676 343 650 L343 635 C343 609 364 590 390 590 C416 590 437 609 437 635 L437 650 C437 676 416 695 390 695 L390 695 Z M212 695 C186 695 165 676 165 650 L165 635 C165 609 186 590 212 590 C238 590 259 609 259 635 L259 650 C259 676 238 695 212 695 L212 695 Z M132 287 C142 388 210 463 300 463 C403 463 457 381 465 287 L132 287 Z M507 66 C515 73 519 82 519 91 C519 109 504 124 485 124 C476 124 469 120 463 115 C425 80 378 55 314 55 C222 55 143 118 132 230 L506 230 C525 230 542 245 542 266 C542 403 455 528 302 528 C159 528 54 408 54 259 L54 257 C54 97 170 -12 312 -12 C400 -12 458 19 507 66 L507 66 Z " />
<glyph glyph-name="igrave" unicode="&#xec;" horiz-adv-x="263" d="M93 34 C93 12 110 -5 132 -5 C154 -5 170 12 170 34 L170 483 C170 505 153 522 131 522 C110 522 93 504 93 483 L93 34 Z M134 591 C145 591 153 597 153 605 C153 610 151 616 148 620 L88 711 C78 726 67 734 52 734 C28 734 -2 718 -2 704 C-2 696 4 689 12 681 L87 610 C103 594 115 591 134 591 L134 591 Z " />
<glyph glyph-name="iacute" unicode="&#xed;" horiz-adv-x="263" d="M130 591 C149 591 161 594 177 610 L252 681 C260 689 266 696 266 704 C266 718 236 734 212 734 C197 734 186 726 176 711 L116 620 C113 616 111 610 111 605 C111 597 119 591 130 591 L130 591 Z M93 34 C93 12 110 -5 132 -5 C154 -5 170 12 170 34 L170 483 C170 505 153 522 131 522 C110 522 93 504 93 483 L93 34 Z " />
<glyph glyph-name="icircumflex" unicode="&#xee;" horiz-adv-x="263" d="M131 662 L190 610 C207 594 220 591 239 591 C250 591 258 597 258 605 C258 610 255 615 251 622 L181 708 C170 721 160 730 141 730 L123 730 C104 730 94 721 83 708 L13 622 C9 615 6 610 6 605 C6 597 13 591 24 591 C43 591 55 594 72 610 L131 662 Z M93 34 C93 12 110 -5 132 -5 C154 -5 170 12 170 34 L170 483 C170 505 153 522 131 522 C110 522 93 504 93 483 L93 34 Z " />
<glyph glyph-name="idieresis" unicode="&#xef;" horiz-adv-x="263" d="M221 695 C195 695 174 676 174 650 L174 635 C174 609 195 590 221 590 C247 590 268 609 268 635 L268 650 C268 676 247 695 221 695 L221 695 Z M43 695 C17 695 -4 676 -4 650 L-4 635 C-4 609 17 590 43 590 C69 590 90 609 90 635 L90 650 C90 676 69 695 43 695 L43 695 Z M93 34 C93 12 110 -5 132 -5 C154 -5 170 12 170 34 L170 483 C170 505 153 522 131 522 C110 522 93 504 93 483 L93 34 Z " />
<glyph glyph-name="eth" unicode="&#xf0;" horiz-adv-x="633" d="M453 431 C409 462 362 486 291 486 C163 486 54 389 54 246 C54 105 163 -12 312 -12 C475 -12 578 111 578 252 C578 346 546 415 490 496 L389 645 L467 681 C478 686 486 694 486 707 C486 723 473 736 458 736 C454 736 448 735 444 733 L357 692 L340 717 C333 727 323 735 308 735 C287 735 271 719 271 699 C271 690 274 682 279 675 L289 660 L182 610 C172 605 164 597 164 584 C164 568 176 555 192 555 C196 555 201 556 206 558 L322 614 L453 431 Z M499 244 C499 143 426 56 317 56 C209 56 132 145 132 243 C132 345 200 425 309 425 C418 425 499 343 499 244 L499 244 Z " />
<glyph glyph-name="ntilde" unicode="&#xf1;" horiz-adv-x="616" d="M86 34 C86 12 103 -5 125 -5 C147 -5 163 12 163 34 L163 296 C163 393 229 458 318 458 C409 458 461 398 461 302 L461 34 C461 12 478 -5 500 -5 C521 -5 538 12 538 34 L538 321 C538 444 465 528 340 528 C251 528 197 483 163 427 L163 483 C163 505 146 522 124 522 C103 522 86 504 86 483 L86 34 Z M204 600 C216 625 227 635 250 635 C284 635 339 595 384 595 C427 595 452 618 472 676 C473 681 475 688 475 692 C475 705 463 716 449 716 C438 716 430 707 426 699 C414 674 403 664 380 664 C346 664 291 704 246 704 C203 704 178 681 158 623 C157 619 155 611 155 607 C155 594 167 583 181 583 C193 583 200 592 204 600 L204 600 Z " />
<glyph glyph-name="ograve" unicode="&#xf2;" horiz-adv-x="646" d="M322 -12 C478 -12 593 112 593 258 L593 260 C593 406 479 528 324 528 C168 528 54 404 54 258 L54 256 C54 110 167 -12 322 -12 L322 -12 Z M324 57 C215 57 133 147 133 258 L133 260 C133 369 210 460 322 460 C431 460 514 369 514 258 L514 256 C514 147 436 57 324 57 L324 57 Z M325 591 C336 591 344 597 344 605 C344 610 342 616 339 620 L279 711 C269 726 258 734 243 734 C219 734 189 718 189 704 C189 696 195 689 203 681 L278 610 C294 594 306 591 325 591 L325 591 Z " />
<glyph glyph-name="oacute" unicode="&#xf3;" horiz-adv-x="646" d="M321 591 C340 591 352 594 368 610 L443 681 C451 689 457 696 457 704 C457 718 427 734 403 734 C388 734 377 726 367 711 L307 620 C304 616 302 610 302 605 C302 597 310 591 321 591 L321 591 Z M322 -12 C478 -12 593 112 593 258 L593 260 C593 406 479 528 324 528 C168 528 54 404 54 258 L54 256 C54 110 167 -12 322 -12 L322 -12 Z M324 57 C215 57 133 147 133 258 L133 260 C133 369 210 460 322 460 C431 460 514 369 514 258 L514 256 C514 147 436 57 324 57 L324 57 Z " />
<glyph glyph-name="ocircumflex" unicode="&#xf4;" horiz-adv-x="646" d="M322 662 L381 610 C398 594 411 591 430 591 C441 591 449 597 449 605 C449 610 446 615 442 622 L372 708 C361 721 351 730 332 730 L314 730 C295 730 285 721 274 708 L204 622 C200 615 197 610 197 605 C197 597 204 591 215 591 C234 591 246 594 263 610 L322 662 Z M322 -12 C478 -12 593 112 593 258 L593 260 C593 406 479 528 324 528 C168 528 54 404 54 258 L54 256 C54 110 167 -12 322 -12 L322 -12 Z M324 57 C215 57 133 147 133 258 L133 260 C133 369 210 460 322 460 C431 460 514 369 514 258 L514 256 C514 147 436 57 324 57 L324 57 Z " />
<glyph glyph-name="otilde" unicode="&#xf5;" horiz-adv-x="646" d="M322 -12 C478 -12 593 112 593 258 L593 260 C593 406 479 528 324 528 C168 528 54 404 54 258 L54 256 C54 110 167 -12 322 -12 L322 -12 Z M324 57 C215 57 133 147 133 258 L133 260 C133 369 210 460 322 460 C431 460 514 369 514 258 L514 256 C514 147 436 57 324 57 L324 57 Z M215 600 C227 625 238 635 261 635 C295 635 350 595 395 595 C438 595 463 618 483 676 C484 681 486 688 486 692 C486 705 474 716 460 716 C449 716 441 707 437 699 C425 674 414 664 391 664 C357 664 302 704 257 704 C214 704 189 681 169 623 C168 619 166 611 166 607 C166 594 178 583 192 583 C204 583 211 592 215 600 L215 600 Z " />
<glyph glyph-name="odieresis" unicode="&#xf6;" horiz-adv-x="646" d="M412 695 C386 695 365 676 365 650 L365 635 C365 609 386 590 412 590 C438 590 459 609 459 635 L459 650 C459 676 438 695 412 695 L412 695 Z M234 695 C208 695 187 676 187 650 L187 635 C187 609 208 590 234 590 C260 590 281 609 281 635 L281 650 C281 676 260 695 234 695 L234 695 Z M322 -12 C478 -12 593 112 593 258 L593 260 C593 406 479 528 324 528 C168 528 54 404 54 258 L54 256 C54 110 167 -12 322 -12 L322 -12 Z M324 57 C215 57 133 147 133 258 L133 260 C133 369 210 460 322 460 C431 460 514 369 514 258 L514 256 C514 147 436 57 324 57 L324 57 Z " />
<glyph glyph-name="divide" unicode="&#xf7;" horiz-adv-x="625" d="M527 317 C546 317 562 333 562 352 C562 371 546 387 527 387 L98 387 C79 387 63 371 63 352 C63 333 79 317 98 317 L527 317 Z M313 607 C284 607 261 584 261 557 L261 544 C261 517 284 494 313 494 C341 494 364 517 364 544 L364 557 C364 584 341 607 313 607 L313 607 Z M313 210 C284 210 261 187 261 160 L261 147 C261 120 284 97 313 97 C341 97 364 120 364 147 L364 160 C364 187 341 210 313 210 L313 210 Z " />
<glyph glyph-name="oslash" unicode="&#xf8;" horiz-adv-x="646" d="M322 -12 C478 -12 593 112 593 258 L593 260 C593 326 570 387 530 434 L573 479 C579 485 583 493 583 502 C583 517 571 528 556 528 C546 528 537 523 530 516 L489 473 C444 507 388 528 324 528 C168 528 54 404 54 258 L54 256 C54 190 76 129 116 82 L74 39 C67 33 63 25 63 16 C63 1 76 -10 91 -10 C100 -10 109 -5 116 2 L156 43 C201 9 258 -12 322 -12 L322 -12 Z M132 258 L132 260 C132 370 210 461 322 461 C368 461 409 445 441 419 L169 137 C145 171 132 213 132 258 L132 258 Z M324 56 C279 56 238 72 206 98 L477 379 C501 345 515 303 515 258 L515 256 C515 147 437 56 324 56 L324 56 Z " />
<glyph glyph-name="ugrave" unicode="&#xf9;" horiz-adv-x="616" d="M529 483 C529 505 512 522 491 522 C469 522 453 505 453 483 L453 221 C453 124 386 59 298 59 C207 59 155 119 155 215 L155 483 C155 505 137 522 116 522 C94 522 78 505 78 483 L78 196 C78 73 151 -11 276 -11 C365 -11 418 34 453 90 L453 34 C453 12 470 -5 491 -5 C513 -5 529 13 529 34 L529 483 Z M305 591 C316 591 324 597 324 605 C324 610 322 616 319 620 L259 711 C249 726 238 734 223 734 C199 734 169 718 169 704 C169 696 175 689 183 681 L258 610 C274 594 286 591 305 591 L305 591 Z " />
<glyph glyph-name="uacute" unicode="&#xfa;" horiz-adv-x="616" d="M301 591 C320 591 332 594 348 610 L423 681 C431 689 437 696 437 704 C437 718 407 734 383 734 C368 734 357 726 347 711 L287 620 C284 616 282 610 282 605 C282 597 290 591 301 591 L301 591 Z M529 483 C529 505 512 522 491 522 C469 522 453 505 453 483 L453 221 C453 124 386 59 298 59 C207 59 155 119 155 215 L155 483 C155 505 137 522 116 522 C94 522 78 505 78 483 L78 196 C78 73 151 -11 276 -11 C365 -11 418 34 453 90 L453 34 C453 12 470 -5 491 -5 C513 -5 529 13 529 34 L529 483 Z " />
<glyph glyph-name="ucircumflex" unicode="&#xfb;" horiz-adv-x="616" d="M302 662 L361 610 C378 594 391 591 410 591 C421 591 429 597 429 605 C429 610 426 615 422 622 L352 708 C341 721 331 730 312 730 L294 730 C275 730 265 721 254 708 L184 622 C180 615 177 610 177 605 C177 597 184 591 195 591 C214 591 226 594 243 610 L302 662 Z M529 483 C529 505 512 522 491 522 C469 522 453 505 453 483 L453 221 C453 124 386 59 298 59 C207 59 155 119 155 215 L155 483 C155 505 137 522 116 522 C94 522 78 505 78 483 L78 196 C78 73 151 -11 276 -11 C365 -11 418 34 453 90 L453 34 C453 12 470 -5 491 -5 C513 -5 529 13 529 34 L529 483 Z " />
<glyph glyph-name="udieresis" unicode="&#xfc;" horiz-adv-x="616" d="M392 695 C366 695 345 676 345 650 L345 635 C345 609 366 590 392 590 C418 590 439 609 439 635 L439 650 C439 676 418 695 392 695 L392 695 Z M214 695 C188 695 167 676 167 650 L167 635 C167 609 188 590 214 590 C240 590 261 609 261 635 L261 650 C261 676 240 695 214 695 L214 695 Z M529 483 C529 505 512 522 491 522 C469 522 453 505 453 483 L453 221 C453 124 386 59 298 59 C207 59 155 119 155 215 L155 483 C155 505 137 522 116 522 C94 522 78 505 78 483 L78 196 C78 73 151 -11 276 -11 C365 -11 418 34 453 90 L453 34 C453 12 470 -5 491 -5 C513 -5 529 13 529 34 L529 483 Z " />
<glyph glyph-name="yacute" unicode="&#xfd;" horiz-adv-x="587" d="M161 -163 C239 -163 289 -124 334 -17 L536 465 C538 471 540 478 540 484 C540 505 523 522 502 522 C482 522 471 509 465 493 L305 86 L125 492 C118 509 107 522 86 522 C64 522 47 505 47 484 C47 477 49 470 52 463 L268 5 L264 -3 C236 -66 208 -95 160 -95 C134 -95 119 -91 104 -86 C98 -84 92 -82 85 -82 C68 -82 52 -96 52 -115 C52 -133 64 -143 76 -148 C102 -157 127 -163 161 -163 L161 -163 Z M294 591 C313 591 325 594 341 610 L416 681 C424 689 430 696 430 704 C430 718 400 734 376 734 C361 734 350 726 340 711 L280 620 C277 616 275 610 275 605 C275 597 283 591 294 591 L294 591 Z " />
<glyph glyph-name="thorn" unicode="&#xfe;" horiz-adv-x="664" d="M86 -126 C86 -148 103 -165 125 -165 C147 -165 163 -148 163 -126 L163 99 C203 41 265 -11 361 -11 C486 -11 608 89 608 258 L608 260 C608 430 485 528 361 528 C266 528 205 475 163 413 L163 696 C163 718 146 735 124 735 C103 735 86 718 86 696 L86 -126 Z M347 58 C251 58 160 138 160 258 L160 260 C160 378 251 459 347 459 C445 459 529 381 529 259 L529 257 C529 132 447 58 347 58 L347 58 Z " />
<glyph glyph-name="ydieresis" unicode="&#xff;" horiz-adv-x="587" d="M161 -163 C239 -163 289 -124 334 -17 L536 465 C538 471 540 478 540 484 C540 505 523 522 502 522 C482 522 471 509 465 493 L305 86 L125 492 C118 509 107 522 86 522 C64 522 47 505 47 484 C47 477 49 470 52 463 L268 5 L264 -3 C236 -66 208 -95 160 -95 C134 -95 119 -91 104 -86 C98 -84 92 -82 85 -82 C68 -82 52 -96 52 -115 C52 -133 64 -143 76 -148 C102 -157 127 -163 161 -163 L161 -163 Z M385 695 C359 695 338 676 338 650 L338 635 C338 609 359 590 385 590 C411 590 432 609 432 635 L432 650 C432 676 411 695 385 695 L385 695 Z M207 695 C181 695 160 676 160 650 L160 635 C160 609 181 590 207 590 C233 590 254 609 254 635 L254 650 C254 676 233 695 207 695 L207 695 Z " />
<glyph glyph-name="Amacron" unicode="&#x100;" horiz-adv-x="784" d="M51 31 C51 11 67 -5 87 -5 C105 -5 118 5 125 22 L198 185 L582 185 L655 24 C662 8 675 -5 694 -5 C715 -5 732 12 732 33 C732 39 730 46 727 53 L443 673 C434 695 418 708 394 708 L390 708 C365 708 350 695 340 673 L56 52 C52 44 51 37 51 31 L51 31 Z M229 257 L390 615 L551 257 L229 257 Z M523 792 C541 792 555 807 555 824 C555 841 541 856 523 856 L259 856 C241 856 227 841 227 824 C227 807 241 792 259 792 L523 792 Z " />
<glyph glyph-name="amacron" unicode="&#x101;" horiz-adv-x="579" d="M240 -11 C331 -11 391 31 427 78 L427 31 C427 11 442 -5 464 -5 C485 -5 501 11 501 33 L501 316 C501 382 483 432 448 467 C410 505 354 524 281 524 C215 524 163 511 112 489 C102 485 91 473 91 457 C91 439 107 424 125 424 C129 424 134 425 139 427 C177 444 221 456 273 456 C370 456 427 408 427 315 L427 297 C381 310 334 319 268 319 C137 319 47 261 47 152 L47 150 C47 44 144 -11 240 -11 L240 -11 Z M255 50 C185 50 125 88 125 153 L125 155 C125 220 179 262 276 262 C339 262 390 251 428 240 L428 190 C428 108 350 50 255 50 L255 50 Z M421 615 C439 615 453 630 453 647 C453 664 439 679 421 679 L157 679 C139 679 125 664 125 647 C125 630 139 615 157 615 L421 615 Z " />
<glyph glyph-name="Abreve" unicode="&#x102;" horiz-adv-x="784" d="M51 31 C51 11 67 -5 87 -5 C105 -5 118 5 125 22 L198 185 L582 185 L655 24 C662 8 675 -5 694 -5 C715 -5 732 12 732 33 C732 39 730 46 727 53 L443 673 C434 695 418 708 394 708 L390 708 C365 708 350 695 340 673 L56 52 C52 44 51 37 51 31 L51 31 Z M229 257 L390 615 L551 257 L229 257 Z M391 770 C451 770 497 795 523 843 C529 853 533 868 533 878 C533 895 522 908 505 908 C490 908 483 900 477 889 C464 857 438 834 391 834 C344 834 318 857 305 889 C299 900 292 908 277 908 C260 908 249 895 249 878 C249 868 253 853 259 843 C285 795 331 770 391 770 L391 770 Z " />
<glyph glyph-name="abreve" unicode="&#x103;" horiz-adv-x="579" d="M240 -11 C331 -11 391 31 427 78 L427 31 C427 11 442 -5 464 -5 C485 -5 501 11 501 33 L501 316 C501 382 483 432 448 467 C410 505 354 524 281 524 C215 524 163 511 112 489 C102 485 91 473 91 457 C91 439 107 424 125 424 C129 424 134 425 139 427 C177 444 221 456 273 456 C370 456 427 408 427 315 L427 297 C381 310 334 319 268 319 C137 319 47 261 47 152 L47 150 C47 44 144 -11 240 -11 L240 -11 Z M255 50 C185 50 125 88 125 153 L125 155 C125 220 179 262 276 262 C339 262 390 251 428 240 L428 190 C428 108 350 50 255 50 L255 50 Z M289 593 C349 593 395 618 421 666 C427 676 431 691 431 701 C431 718 420 731 403 731 C388 731 381 723 375 712 C362 680 336 657 289 657 C242 657 216 680 203 712 C197 723 190 731 175 731 C158 731 147 718 147 701 C147 691 151 676 157 666 C183 618 229 593 289 593 L289 593 Z " />
<glyph glyph-name="Aogonek" unicode="&#x104;" horiz-adv-x="790" d="M54 31 C54 11 70 -5 91 -5 C108 -5 121 5 128 22 L201 185 L586 185 L666 7 C631 -23 611 -50 611 -84 C611 -150 692 -164 728 -164 C746 -164 756 -155 756 -141 C756 -129 748 -121 727 -117 C696 -111 677 -99 677 -73 C677 -50 690 -30 721 -3 C733 9 737 17 737 29 C737 35 736 41 732 49 L447 673 C437 695 422 708 397 708 L393 708 C369 708 353 695 343 673 L59 52 C56 44 54 37 54 31 L54 31 Z M232 257 L394 615 L554 257 L232 257 Z " />
<glyph glyph-name="aogonek" unicode="&#x105;" horiz-adv-x="579" d="M374 -85 C374 -150 454 -164 491 -164 C508 -164 518 -155 518 -141 C518 -129 510 -121 489 -117 C458 -111 440 -99 440 -73 C440 -49 453 -31 483 -4 C497 8 501 16 501 31 L501 316 C501 382 483 432 448 467 C410 505 354 524 281 524 C215 524 163 511 112 489 C102 485 91 473 91 457 C91 439 107 424 125 424 C129 424 134 425 139 427 C177 444 221 456 273 456 C370 456 427 408 427 315 L427 297 C381 310 334 319 268 319 C137 319 47 261 47 152 L47 150 C47 44 144 -11 240 -11 C331 -11 391 31 427 78 L427 77 C427 73 428 13 432 10 C394 -23 374 -51 374 -85 L374 -85 Z M255 50 C185 50 125 88 125 153 L125 155 C125 220 179 262 276 262 C339 262 390 251 428 240 L428 190 C428 108 350 50 255 50 L255 50 Z " />
<glyph glyph-name="Cacute" unicode="&#x106;" horiz-adv-x="738" d="M412 768 C431 768 443 771 459 787 L534 858 C542 866 548 873 548 881 C548 895 518 911 494 911 C479 911 468 903 458 888 L398 797 C395 793 393 787 393 782 C393 774 401 768 412 768 L412 768 Z M419 -12 C534 -12 610 28 679 91 C686 97 692 107 692 119 C692 139 674 157 654 157 C644 157 635 152 629 146 C569 91 508 61 421 61 C267 61 150 188 150 350 L150 352 C150 513 266 639 421 639 C507 639 568 607 622 559 C628 555 637 550 648 550 C669 550 688 568 688 589 C688 603 680 614 672 621 C607 675 535 712 422 712 C216 712 68 548 68 350 L68 348 C68 147 217 -12 419 -12 L419 -12 Z " />
<glyph glyph-name="cacute" unicode="&#x107;" horiz-adv-x="571" d="M311 591 C330 591 342 594 358 610 L433 681 C441 689 447 696 447 704 C447 718 417 734 393 734 C378 734 367 726 357 711 L297 620 C294 616 292 610 292 605 C292 597 300 591 311 591 L311 591 Z M319 -12 C406 -12 465 22 514 71 C520 77 524 86 524 95 C524 113 508 130 489 130 C479 130 472 125 467 120 C429 84 382 57 323 57 C215 57 133 146 133 258 L133 260 C133 371 213 460 318 460 C380 460 422 432 459 398 C465 393 474 389 484 389 C504 389 521 405 521 426 C521 438 515 448 509 453 C463 495 405 528 319 528 C168 528 54 404 54 258 L54 256 C54 111 168 -12 319 -12 L319 -12 Z " />
<glyph glyph-name="Cdotaccent" unicode="&#x10a;" horiz-adv-x="738" d="M419 -12 C534 -12 610 28 679 91 C686 97 692 107 692 119 C692 139 674 157 654 157 C644 157 635 152 629 146 C569 91 508 61 421 61 C267 61 150 188 150 350 L150 352 C150 513 266 639 421 639 C507 639 568 607 622 559 C628 555 637 550 648 550 C669 550 688 568 688 589 C688 603 680 614 672 621 C607 675 535 712 422 712 C216 712 68 548 68 350 L68 348 C68 147 217 -12 419 -12 L419 -12 Z M462 827 C462 854 441 872 414 872 C387 872 366 854 366 827 L366 813 C366 786 387 767 414 767 C441 767 462 786 462 813 L462 827 Z " />
<glyph glyph-name="cdotaccent" unicode="&#x10b;" horiz-adv-x="571" d="M319 -12 C406 -12 465 22 514 71 C520 77 524 86 524 95 C524 113 508 130 489 130 C479 130 472 125 467 120 C429 84 382 57 323 57 C215 57 133 146 133 258 L133 260 C133 371 213 460 318 460 C380 460 422 432 459 398 C465 393 474 389 484 389 C504 389 521 405 521 426 C521 438 515 448 509 453 C463 495 405 528 319 528 C168 528 54 404 54 258 L54 256 C54 111 168 -12 319 -12 L319 -12 Z M362 650 C362 677 341 695 314 695 C287 695 266 677 266 650 L266 636 C266 609 287 590 314 590 C341 590 362 609 362 636 L362 650 Z " />
<glyph glyph-name="Ccaron" unicode="&#x10c;" horiz-adv-x="738" d="M415 836 L356 889 C339 904 326 907 307 907 C296 907 288 901 288 893 C288 888 291 883 295 877 L365 791 C376 777 386 768 405 768 L423 768 C442 768 452 777 463 791 L533 877 C537 883 540 888 540 893 C540 901 533 907 522 907 C503 907 491 904 474 889 L415 836 Z M419 -12 C534 -12 610 28 679 91 C686 97 692 107 692 119 C692 139 674 157 654 157 C644 157 635 152 629 146 C569 91 508 61 421 61 C267 61 150 188 150 350 L150 352 C150 513 266 639 421 639 C507 639 568 607 622 559 C628 555 637 550 648 550 C669 550 688 568 688 589 C688 603 680 614 672 621 C607 675 535 712 422 712 C216 712 68 548 68 350 L68 348 C68 147 217 -12 419 -12 L419 -12 Z " />
<glyph glyph-name="ccaron" unicode="&#x10d;" horiz-adv-x="571" d="M315 659 L256 712 C239 727 226 730 207 730 C196 730 188 724 188 716 C188 711 191 706 195 700 L265 614 C276 600 286 591 305 591 L323 591 C342 591 352 600 363 614 L433 700 C437 706 440 711 440 716 C440 724 433 730 422 730 C403 730 391 727 374 712 L315 659 Z M319 -12 C406 -12 465 22 514 71 C520 77 524 86 524 95 C524 113 508 130 489 130 C479 130 472 125 467 120 C429 84 382 57 323 57 C215 57 133 146 133 258 L133 260 C133 371 213 460 318 460 C380 460 422 432 459 398 C465 393 474 389 484 389 C504 389 521 405 521 426 C521 438 515 448 509 453 C463 495 405 528 319 528 C168 528 54 404 54 258 L54 256 C54 111 168 -12 319 -12 L319 -12 Z " />
<glyph glyph-name="Dcaron" unicode="&#x10e;" horiz-adv-x="782" d="M376 826 L317 879 C300 894 287 897 268 897 C257 897 249 891 249 883 C249 878 252 873 256 867 L326 781 C337 767 347 758 366 758 L384 758 C403 758 413 767 424 781 L494 867 C498 873 501 878 501 883 C501 891 494 897 483 897 C464 897 452 894 435 879 L376 826 Z M99 40 C99 18 117 0 138 0 L342 0 C562 0 714 153 714 350 L714 352 C714 549 562 700 342 700 L138 700 C117 700 99 682 99 660 L99 40 Z M178 73 L178 627 L342 627 C519 627 632 505 632 350 L632 348 C632 193 519 73 342 73 L178 73 Z " />
<glyph glyph-name="dcaron" unicode="&#x10f;" horiz-adv-x="664" d="M642 586 C640 569 649 563 660 563 C672 563 678 569 682 583 L717 689 C720 698 722 707 722 713 C722 728 713 734 700 734 L685 734 C665 734 653 722 651 702 L642 586 Z M578 696 C578 718 561 735 539 735 C517 735 501 718 501 696 L501 418 C461 476 399 528 303 528 C179 528 56 428 56 259 L56 257 C56 87 179 -11 303 -11 C398 -11 459 42 501 104 L501 34 C501 12 518 -5 540 -5 C561 -5 578 12 578 34 L578 696 Z M317 459 C413 459 504 379 504 260 L504 258 C504 139 413 58 317 58 C220 58 135 136 135 258 L135 260 C135 385 217 459 317 459 L317 459 Z " />
<glyph glyph-name="Dcroat" unicode="&#x110;" horiz-adv-x="812" d="M85 388 C65 388 49 372 49 352 C49 332 65 316 85 316 L129 316 L129 40 C129 18 147 0 168 0 L372 0 C592 0 744 153 744 350 L744 352 C744 549 592 700 372 700 L168 700 C147 700 129 682 129 660 L129 388 L85 388 Z M208 627 L372 627 C549 627 662 505 662 350 L662 348 C662 193 549 73 372 73 L208 73 L208 316 L387 316 C406 316 423 332 423 352 C423 372 406 388 387 388 L208 388 L208 627 Z " />
<glyph glyph-name="dcroat" unicode="&#x111;" horiz-adv-x="664" d="M578 696 C578 718 561 735 539 735 C517 735 501 718 501 696 L501 667 L347 667 C332 667 320 655 320 640 C320 625 332 612 347 612 L501 612 L501 418 C461 476 399 528 303 528 C179 528 56 428 56 259 L56 257 C56 87 179 -11 303 -11 C398 -11 459 42 501 104 L501 34 C501 12 518 -5 540 -5 C561 -5 578 12 578 34 L578 612 L624 612 C639 612 652 625 652 640 C652 655 639 667 624 667 L578 667 L578 696 Z M317 459 C413 459 504 379 504 260 L504 258 C504 139 413 58 317 58 C220 58 135 136 135 258 L135 260 C135 385 217 459 317 459 L317 459 Z " />
<glyph glyph-name="Emacron" unicode="&#x112;" horiz-adv-x="670" d="M138 0 L578 0 C598 0 614 16 614 36 C614 56 598 72 578 72 L178 72 L178 317 L528 317 C548 317 564 333 564 353 C564 372 548 389 528 389 L178 389 L178 628 L573 628 C593 628 609 644 609 664 C609 684 593 700 573 700 L138 700 C117 700 99 682 99 660 L99 40 C99 18 117 0 138 0 L138 0 Z M485 782 C503 782 517 797 517 814 C517 831 503 846 485 846 L221 846 C203 846 189 831 189 814 C189 797 203 782 221 782 L485 782 Z " />
<glyph glyph-name="emacron" unicode="&#x113;" horiz-adv-x="592" d="M132 287 C142 388 210 463 300 463 C403 463 457 381 465 287 L132 287 Z M507 66 C515 73 519 82 519 91 C519 109 504 124 485 124 C476 124 469 120 463 115 C425 80 378 55 314 55 C222 55 143 118 132 230 L506 230 C525 230 542 245 542 266 C542 403 455 528 302 528 C159 528 54 408 54 259 L54 257 C54 97 170 -12 312 -12 C400 -12 458 19 507 66 L507 66 Z M433 615 C451 615 465 630 465 647 C465 664 451 679 433 679 L169 679 C151 679 137 664 137 647 C137 630 151 615 169 615 L433 615 Z " />
<glyph glyph-name="Ebreve" unicode="&#x114;" horiz-adv-x="670" d="M138 0 L578 0 C598 0 614 16 614 36 C614 56 598 72 578 72 L178 72 L178 317 L528 317 C548 317 564 333 564 353 C564 372 548 389 528 389 L178 389 L178 628 L573 628 C593 628 609 644 609 664 C609 684 593 700 573 700 L138 700 C117 700 99 682 99 660 L99 40 C99 18 117 0 138 0 L138 0 Z M353 760 C413 760 459 785 485 833 C491 843 495 858 495 868 C495 885 484 898 467 898 C452 898 445 890 439 879 C426 847 400 824 353 824 C306 824 280 847 267 879 C261 890 254 898 239 898 C222 898 211 885 211 868 C211 858 215 843 221 833 C247 785 293 760 353 760 L353 760 Z " />
<glyph glyph-name="ebreve" unicode="&#x115;" horiz-adv-x="592" d="M132 287 C142 388 210 463 300 463 C403 463 457 381 465 287 L132 287 Z M507 66 C515 73 519 82 519 91 C519 109 504 124 485 124 C476 124 469 120 463 115 C425 80 378 55 314 55 C222 55 143 118 132 230 L506 230 C525 230 542 245 542 266 C542 403 455 528 302 528 C159 528 54 408 54 259 L54 257 C54 97 170 -12 312 -12 C400 -12 458 19 507 66 L507 66 Z M301 593 C361 593 407 618 433 666 C439 676 443 691 443 701 C443 718 432 731 415 731 C400 731 393 723 387 712 C374 680 348 657 301 657 C254 657 228 680 215 712 C209 723 202 731 187 731 C170 731 159 718 159 701 C159 691 163 676 169 666 C195 618 241 593 301 593 L301 593 Z " />
<glyph glyph-name="Edotaccent" unicode="&#x116;" horiz-adv-x="670" d="M138 0 L578 0 C598 0 614 16 614 36 C614 56 598 72 578 72 L178 72 L178 317 L528 317 C548 317 564 333 564 353 C564 372 548 389 528 389 L178 389 L178 628 L573 628 C593 628 609 644 609 664 C609 684 593 700 573 700 L138 700 C117 700 99 682 99 660 L99 40 C99 18 117 0 138 0 L138 0 Z M401 817 C401 844 380 862 353 862 C326 862 305 844 305 817 L305 803 C305 776 326 757 353 757 C380 757 401 776 401 803 L401 817 Z " />
<glyph glyph-name="edotaccent" unicode="&#x117;" horiz-adv-x="592" d="M132 287 C142 388 210 463 300 463 C403 463 457 381 465 287 L132 287 Z M507 66 C515 73 519 82 519 91 C519 109 504 124 485 124 C476 124 469 120 463 115 C425 80 378 55 314 55 C222 55 143 118 132 230 L506 230 C525 230 542 245 542 266 C542 403 455 528 302 528 C159 528 54 408 54 259 L54 257 C54 97 170 -12 312 -12 C400 -12 458 19 507 66 L507 66 Z M349 650 C349 677 328 695 301 695 C274 695 253 677 253 650 L253 636 C253 609 274 590 301 590 C328 590 349 609 349 636 L349 650 Z " />
<glyph glyph-name="Eogonek" unicode="&#x118;" horiz-adv-x="670" d="M138 0 L521 0 C489 -27 470 -54 470 -84 C470 -151 551 -164 587 -164 C605 -164 615 -155 615 -141 C615 -129 607 -121 585 -117 C555 -111 537 -100 537 -74 C537 -47 554 -29 592 2 C606 13 614 22 614 39 C614 58 599 72 577 72 L178 72 L178 317 L528 317 C548 317 564 333 564 353 C564 372 548 389 528 389 L178 389 L178 628 L573 628 C593 628 609 644 609 664 C609 684 593 700 573 700 L138 700 C117 700 99 682 99 660 L99 40 C99 18 117 0 138 0 L138 0 Z " />
<glyph glyph-name="eogonek" unicode="&#x119;" horiz-adv-x="592" d="M542 266 C542 403 455 528 302 528 C159 528 54 408 54 259 L54 257 C54 97 170 -12 312 -12 C334 -12 354 -10 373 -6 C349 -30 337 -54 337 -80 C337 -141 400 -164 454 -164 C471 -164 482 -155 482 -141 C482 -129 474 -121 452 -117 C422 -111 402 -99 402 -67 C402 -40 415 -15 467 30 C484 45 492 51 507 66 C515 73 519 82 519 91 C519 109 504 124 485 124 C476 124 469 120 463 115 C425 80 378 55 314 55 C222 55 143 118 132 230 L506 230 C525 230 542 245 542 266 L542 266 Z M132 287 C142 388 210 463 300 463 C403 463 457 381 465 287 L132 287 Z " />
<glyph glyph-name="Ecaron" unicode="&#x11a;" horiz-adv-x="670" d="M354 826 L295 879 C278 894 265 897 246 897 C235 897 227 891 227 883 C227 878 230 873 234 867 L304 781 C315 767 325 758 344 758 L362 758 C381 758 391 767 402 781 L472 867 C476 873 479 878 479 883 C479 891 472 897 461 897 C442 897 430 894 413 879 L354 826 Z M138 0 L578 0 C598 0 614 16 614 36 C614 56 598 72 578 72 L178 72 L178 317 L528 317 C548 317 564 333 564 353 C564 372 548 389 528 389 L178 389 L178 628 L573 628 C593 628 609 644 609 664 C609 684 593 700 573 700 L138 700 C117 700 99 682 99 660 L99 40 C99 18 117 0 138 0 L138 0 Z " />
<glyph glyph-name="ecaron" unicode="&#x11b;" horiz-adv-x="592" d="M302 659 L243 712 C226 727 213 730 194 730 C183 730 175 724 175 716 C175 711 178 706 182 700 L252 614 C263 600 273 591 292 591 L310 591 C329 591 339 600 350 614 L420 700 C424 706 427 711 427 716 C427 724 420 730 409 730 C390 730 378 727 361 712 L302 659 Z M132 287 C142 388 210 463 300 463 C403 463 457 381 465 287 L132 287 Z M507 66 C515 73 519 82 519 91 C519 109 504 124 485 124 C476 124 469 120 463 115 C425 80 378 55 314 55 C222 55 143 118 132 230 L506 230 C525 230 542 245 542 266 C542 403 455 528 302 528 C159 528 54 408 54 259 L54 257 C54 97 170 -12 312 -12 C400 -12 458 19 507 66 L507 66 Z " />
<glyph glyph-name="Gbreve" unicode="&#x11e;" horiz-adv-x="784" d="M424 -12 C528 -12 614 26 678 73 C696 85 705 102 705 121 L705 334 C705 356 687 374 666 374 L441 374 C422 374 406 358 406 338 C406 319 422 303 441 303 L629 303 L629 129 C581 90 507 59 427 59 C257 59 150 183 150 350 L150 352 C150 508 261 639 416 639 C504 639 560 613 610 575 C618 569 626 565 635 565 C656 565 674 583 674 605 C674 619 667 630 658 637 C594 684 525 712 419 712 C209 712 68 542 68 350 L68 348 C68 148 204 -12 424 -12 L424 -12 Z M412 770 C472 770 518 795 544 843 C550 853 554 868 554 878 C554 895 543 908 526 908 C511 908 504 900 498 889 C485 857 459 834 412 834 C365 834 339 857 326 889 C320 900 313 908 298 908 C281 908 270 895 270 878 C270 868 274 853 280 843 C306 795 352 770 412 770 L412 770 Z " />
<glyph glyph-name="gbreve" unicode="&#x11f;" horiz-adv-x="664" d="M315 -162 C397 -162 466 -139 512 -93 C554 -51 578 10 578 90 L578 483 C578 504 561 522 539 522 C517 522 501 504 501 483 L501 424 C459 480 396 528 299 528 C176 528 56 435 56 284 L56 282 C56 133 175 40 299 40 C394 40 457 89 502 149 L502 88 C502 -33 428 -96 314 -96 C247 -96 185 -76 131 -40 C126 -37 121 -35 114 -35 C96 -35 79 -52 79 -69 C79 -83 87 -95 99 -101 C164 -141 236 -162 315 -162 L315 -162 Z M314 108 C218 108 135 180 135 284 L135 286 C135 392 216 460 314 460 C412 460 504 391 504 285 L504 283 C504 179 412 108 314 108 L314 108 Z M328 593 C388 593 434 618 460 666 C466 676 470 691 470 701 C470 718 459 731 442 731 C427 731 420 723 414 712 C401 680 375 657 328 657 C281 657 255 680 242 712 C236 723 229 731 214 731 C197 731 186 718 186 701 C186 691 190 676 196 666 C222 618 268 593 328 593 L328 593 Z " />
<glyph glyph-name="Gdotaccent" unicode="&#x120;" horiz-adv-x="784" d="M424 -12 C528 -12 614 26 678 73 C696 85 705 102 705 121 L705 334 C705 356 687 374 666 374 L441 374 C422 374 406 358 406 338 C406 319 422 303 441 303 L629 303 L629 129 C581 90 507 59 427 59 C257 59 150 183 150 350 L150 352 C150 508 261 639 416 639 C504 639 560 613 610 575 C618 569 626 565 635 565 C656 565 674 583 674 605 C674 619 667 630 658 637 C594 684 525 712 419 712 C209 712 68 542 68 350 L68 348 C68 148 204 -12 424 -12 L424 -12 Z M460 827 C460 854 439 872 412 872 C385 872 364 854 364 827 L364 813 C364 786 385 767 412 767 C439 767 460 786 460 813 L460 827 Z " />
<glyph glyph-name="gdotaccent" unicode="&#x121;" horiz-adv-x="664" d="M315 -162 C397 -162 466 -139 512 -93 C554 -51 578 10 578 90 L578 483 C578 504 561 522 539 522 C517 522 501 504 501 483 L501 424 C459 480 396 528 299 528 C176 528 56 435 56 284 L56 282 C56 133 175 40 299 40 C394 40 457 89 502 149 L502 88 C502 -33 428 -96 314 -96 C247 -96 185 -76 131 -40 C126 -37 121 -35 114 -35 C96 -35 79 -52 79 -69 C79 -83 87 -95 99 -101 C164 -141 236 -162 315 -162 L315 -162 Z M314 108 C218 108 135 180 135 284 L135 286 C135 392 216 460 314 460 C412 460 504 391 504 285 L504 283 C504 179 412 108 314 108 L314 108 Z M376 650 C376 677 355 695 328 695 C301 695 280 677 280 650 L280 636 C280 609 301 590 328 590 C355 590 376 609 376 636 L376 650 Z " />
<glyph glyph-name="Gcommaaccent" unicode="&#x122;" horiz-adv-x="784" d="M405 -155 C406 -186 391 -202 352 -212 C340 -215 335 -221 335 -229 C335 -236 342 -243 354 -243 C373 -243 407 -232 426 -213 C448 -193 458 -167 458 -123 L458 -118 C458 -86 438 -66 411 -66 C384 -66 365 -85 365 -109 L365 -114 C365 -138 383 -151 405 -155 L405 -155 Z M424 -12 C528 -12 614 26 678 73 C696 85 705 102 705 121 L705 334 C705 356 687 374 666 374 L441 374 C422 374 406 358 406 338 C406 319 422 303 441 303 L629 303 L629 129 C581 90 507 59 427 59 C257 59 150 183 150 350 L150 352 C150 508 261 639 416 639 C504 639 560 613 610 575 C618 569 626 565 635 565 C656 565 674 583 674 605 C674 619 667 630 658 637 C594 684 525 712 419 712 C209 712 68 542 68 350 L68 348 C68 148 204 -12 424 -12 L424 -12 Z " />
<glyph glyph-name="gcommaaccent" unicode="&#x123;" horiz-adv-x="664" d="M334 679 C333 710 348 726 387 736 C399 739 404 745 404 753 C404 760 397 767 385 767 C366 767 332 756 313 737 C291 717 281 691 281 647 L281 642 C281 610 301 590 328 590 C355 590 374 609 374 633 L374 638 C374 662 356 675 334 679 L334 679 Z M315 -162 C397 -162 466 -139 512 -93 C554 -51 578 10 578 90 L578 483 C578 504 561 522 539 522 C517 522 501 504 501 483 L501 424 C459 480 396 528 299 528 C176 528 56 435 56 284 L56 282 C56 133 175 40 299 40 C394 40 457 89 502 149 L502 88 C502 -33 428 -96 314 -96 C247 -96 185 -76 131 -40 C126 -37 121 -35 114 -35 C96 -35 79 -52 79 -69 C79 -83 87 -95 99 -101 C164 -141 236 -162 315 -162 L315 -162 Z M314 108 C218 108 135 180 135 284 L135 286 C135 392 216 460 314 460 C412 460 504 391 504 285 L504 283 C504 179 412 108 314 108 L314 108 Z " />
<glyph glyph-name="Hbar" unicode="&#x126;" horiz-adv-x="804" d="M120 35 C120 13 138 -5 159 -5 C181 -5 199 13 199 35 L199 315 L603 315 L603 35 C603 13 621 -5 643 -5 C664 -5 682 13 682 35 L682 511 L731 511 C747 511 761 524 761 541 C761 557 747 571 731 571 L682 571 L682 665 C682 687 664 705 643 705 C621 705 603 687 603 665 L603 571 L199 571 L199 665 C199 687 181 705 159 705 C138 705 120 687 120 665 L120 571 L73 571 C56 571 42 557 42 541 C42 524 56 511 73 511 L120 511 L120 35 Z M199 389 L199 511 L603 511 L603 389 L199 389 Z " />
<glyph glyph-name="hbar" unicode="&#x127;" horiz-adv-x="616" d="M86 34 C86 12 103 -5 125 -5 C147 -5 163 12 163 34 L163 296 C163 393 229 458 318 458 C409 458 461 398 461 302 L461 34 C461 12 478 -5 500 -5 C521 -5 538 12 538 34 L538 321 C538 444 465 528 340 528 C251 528 197 483 163 427 L163 612 L317 612 C332 612 345 625 345 640 C345 655 332 667 317 667 L163 667 L163 696 C163 717 146 735 124 735 C103 735 86 717 86 696 L86 667 L40 667 C25 667 12 655 12 640 C12 625 25 612 40 612 L86 612 L86 34 Z " />
<glyph glyph-name="Imacron" unicode="&#x12a;" horiz-adv-x="291" d="M106 35 C106 13 124 -5 145 -5 C167 -5 185 13 185 35 L185 665 C185 687 167 705 145 705 C124 705 106 687 106 665 L106 35 Z M278 782 C296 782 310 797 310 814 C310 831 296 846 278 846 L14 846 C-4 846 -18 831 -18 814 C-18 797 -4 782 14 782 L278 782 Z " />
<glyph glyph-name="imacron" unicode="&#x12b;" horiz-adv-x="263" d="M93 34 C93 12 110 -5 132 -5 C154 -5 170 12 170 34 L170 483 C170 505 153 522 131 522 C110 522 93 504 93 483 L93 34 Z M264 615 C282 615 296 630 296 647 C296 664 282 679 264 679 L0 679 C-18 679 -32 664 -32 647 C-32 630 -18 615 0 615 L264 615 Z " />
<glyph glyph-name="Ibreve" unicode="&#x12c;" horiz-adv-x="291" d="M106 35 C106 13 124 -5 145 -5 C167 -5 185 13 185 35 L185 665 C185 687 167 705 145 705 C124 705 106 687 106 665 L106 35 Z M146 760 C206 760 252 785 278 833 C284 843 288 858 288 868 C288 885 277 898 260 898 C245 898 238 890 232 879 C219 847 193 824 146 824 C99 824 73 847 60 879 C54 890 47 898 32 898 C15 898 4 885 4 868 C4 858 8 843 14 833 C40 785 86 760 146 760 L146 760 Z " />
<glyph glyph-name="ibreve" unicode="&#x12d;" horiz-adv-x="263" d="M93 34 C93 12 110 -5 132 -5 C154 -5 170 12 170 34 L170 483 C170 505 153 522 131 522 C110 522 93 504 93 483 L93 34 Z M132 593 C192 593 238 618 264 666 C270 676 274 691 274 701 C274 718 263 731 246 731 C231 731 224 723 218 712 C205 680 179 657 132 657 C85 657 59 680 46 712 C40 723 33 731 18 731 C1 731 -10 718 -10 701 C-10 691 -6 676 0 666 C26 618 72 593 132 593 L132 593 Z " />
<glyph glyph-name="Iogonek" unicode="&#x12e;" horiz-adv-x="291" d="M58 -84 C58 -150 139 -164 176 -164 C193 -164 203 -155 203 -141 C203 -129 195 -121 174 -117 C143 -111 124 -99 124 -73 C124 -49 136 -32 168 -3 C180 8 185 17 185 32 L185 665 C185 687 167 705 145 705 C124 705 106 687 106 665 L106 24 C106 17 108 12 113 8 C77 -23 58 -50 58 -84 L58 -84 Z " />
<glyph glyph-name="iogonek" unicode="&#x12f;" horiz-adv-x="263" d="M170 483 C170 505 153 522 131 522 C110 522 93 504 93 483 L93 25 C93 19 96 13 101 9 C64 -21 43 -49 43 -85 C43 -150 123 -164 160 -164 C177 -164 187 -155 187 -141 C187 -129 179 -121 158 -117 C127 -111 109 -99 109 -73 C109 -49 122 -31 152 -4 C166 8 170 16 170 31 L170 483 Z M86 666 C86 642 106 625 131 625 C157 625 177 642 177 666 L177 679 C177 704 157 720 131 720 C106 720 86 704 86 679 L86 666 Z " />
<glyph glyph-name="Idotaccent" unicode="&#x130;" horiz-adv-x="291" d="M106 35 C106 13 124 -5 145 -5 C167 -5 185 13 185 35 L185 665 C185 687 167 705 145 705 C124 705 106 687 106 665 L106 35 Z M194 817 C194 844 173 862 146 862 C119 862 98 844 98 817 L98 803 C98 776 119 757 146 757 C173 757 194 776 194 803 L194 817 Z " />
<glyph glyph-name="dotlessi" unicode="&#x131;" horiz-adv-x="263" d="M93 34 C93 12 110 -5 132 -5 C154 -5 170 12 170 34 L170 483 C170 505 153 522 131 522 C110 522 93 504 93 483 L93 34 Z " />
<glyph glyph-name="Kcommaaccent" unicode="&#x136;" horiz-adv-x="714" d="M356 -149 C357 -180 342 -196 303 -206 C291 -209 286 -215 286 -223 C286 -230 293 -237 305 -237 C324 -237 358 -226 377 -207 C399 -187 409 -161 409 -117 L409 -112 C409 -80 389 -60 362 -60 C335 -60 316 -79 316 -103 L316 -108 C316 -132 334 -145 356 -149 L356 -149 Z M99 35 C99 13 117 -5 138 -5 C160 -5 178 13 178 35 L178 187 L329 338 L590 13 C597 3 607 -5 622 -5 C644 -5 662 14 662 35 C662 47 658 55 651 64 L385 392 L633 638 C641 646 646 655 646 666 C646 686 629 705 608 705 C595 705 586 699 577 691 L178 282 L178 665 C178 687 160 705 138 705 C117 705 99 687 99 665 L99 35 Z " />
<glyph glyph-name="kcommaaccent" unicode="&#x137;" horiz-adv-x="568" d="M292 -154 C293 -185 278 -201 239 -211 C227 -214 222 -220 222 -228 C222 -235 229 -242 241 -242 C260 -242 294 -231 313 -212 C335 -192 345 -166 345 -122 L345 -117 C345 -85 325 -65 298 -65 C271 -65 252 -84 252 -108 L252 -113 C252 -137 270 -150 292 -154 L292 -154 Z M86 34 C86 12 103 -5 125 -5 C147 -5 163 12 163 34 L163 133 L270 239 L449 13 C459 0 468 -5 482 -5 C503 -5 519 10 519 31 C519 41 516 48 509 57 L324 290 L493 456 C503 466 508 474 508 486 C508 505 494 522 473 522 C461 522 452 517 443 507 L163 222 L163 696 C163 717 146 735 124 735 C103 735 86 717 86 696 L86 34 Z " />
<glyph glyph-name="Lacute" unicode="&#x139;" horiz-adv-x="619" d="M152 758 C171 758 183 761 199 777 L274 848 C282 856 288 863 288 871 C288 885 258 901 234 901 C219 901 208 893 198 878 L138 787 C135 783 133 777 133 772 C133 764 141 758 152 758 L152 758 Z M99 40 C99 18 117 0 138 0 L541 0 C561 0 577 16 577 36 C577 56 561 73 541 73 L178 73 L178 665 C178 687 160 705 138 705 C117 705 99 687 99 665 L99 40 Z " />
<glyph glyph-name="lacute" unicode="&#x13a;" horiz-adv-x="263" d="M132 779 C151 779 163 782 179 798 L254 869 C262 877 268 884 268 892 C268 906 238 922 214 922 C199 922 188 914 178 899 L118 808 C115 804 113 798 113 793 C113 785 121 779 132 779 L132 779 Z M93 34 C93 12 110 -5 132 -5 C154 -5 170 12 170 34 L170 696 C170 717 153 735 131 735 C110 735 93 717 93 696 L93 34 Z " />
<glyph glyph-name="Lcommaaccent" unicode="&#x13b;" horiz-adv-x="619" d="M325 -154 C326 -185 311 -201 272 -211 C260 -214 255 -220 255 -228 C255 -235 262 -242 274 -242 C293 -242 327 -231 346 -212 C368 -192 378 -166 378 -122 L378 -117 C378 -85 358 -65 331 -65 C304 -65 285 -84 285 -108 L285 -113 C285 -137 303 -150 325 -154 L325 -154 Z M99 40 C99 18 117 0 138 0 L541 0 C561 0 577 16 577 36 C577 56 561 73 541 73 L178 73 L178 665 C178 687 160 705 138 705 C117 705 99 687 99 665 L99 40 Z " />
<glyph glyph-name="lcommaaccent" unicode="&#x13c;" horiz-adv-x="263" d="M125 -154 C126 -185 111 -201 72 -211 C60 -214 55 -220 55 -228 C55 -235 62 -242 74 -242 C93 -242 127 -231 146 -212 C168 -192 178 -166 178 -122 L178 -117 C178 -85 158 -65 131 -65 C104 -65 85 -84 85 -108 L85 -113 C85 -137 103 -150 125 -154 L125 -154 Z M93 34 C93 12 110 -5 132 -5 C154 -5 170 12 170 34 L170 696 C170 717 153 735 131 735 C110 735 93 717 93 696 L93 34 Z " />
<glyph glyph-name="Lcaron" unicode="&#x13d;" horiz-adv-x="619" d="M270 554 C268 537 277 531 288 531 C300 531 306 537 310 551 L345 657 C348 666 350 675 350 681 C350 696 341 702 328 702 L313 702 C293 702 281 690 279 670 L270 554 Z M99 40 C99 18 117 0 138 0 L541 0 C561 0 577 16 577 36 C577 56 561 73 541 73 L178 73 L178 665 C178 687 160 705 138 705 C117 705 99 687 99 665 L99 40 Z " />
<glyph glyph-name="lcaron" unicode="&#x13e;" horiz-adv-x="263" d="M236 585 C234 568 243 562 254 562 C266 562 272 568 276 582 L311 688 C314 697 316 706 316 712 C316 727 307 733 294 733 L279 733 C259 733 247 721 245 701 L236 585 Z M93 34 C93 12 110 -5 132 -5 C154 -5 170 12 170 34 L170 696 C170 717 153 735 131 735 C110 735 93 717 93 696 L93 34 Z " />
<glyph glyph-name="Ldot" unicode="&#x13f;" horiz-adv-x="619" d="M99 40 C99 18 117 0 138 0 L541 0 C561 0 577 16 577 36 C577 56 561 73 541 73 L178 73 L178 665 C178 687 160 705 138 705 C117 705 99 687 99 665 L99 40 Z M512 376 C512 403 491 421 464 421 C437 421 416 403 416 376 L416 362 C416 335 437 316 464 316 C491 316 512 335 512 362 L512 376 Z " />
<glyph glyph-name="ldot" unicode="&#x140;" horiz-adv-x="331" d="M341 376 C341 400 323 420 298 420 C274 420 255 400 255 376 L255 362 C255 338 274 318 298 318 C323 318 341 338 341 362 L341 376 Z M93 34 C93 12 110 -5 132 -5 C154 -5 170 12 170 34 L170 696 C170 717 153 735 131 735 C110 735 93 717 93 696 L93 34 Z " />
<glyph glyph-name="Lslash" unicode="&#x141;" horiz-adv-x="649" d="M402 385 C417 389 428 401 428 418 C428 438 413 454 393 454 C389 454 381 452 376 451 L207 399 L207 665 C207 687 190 705 168 705 C146 705 129 687 129 665 L129 375 L75 359 C60 354 49 343 49 325 C49 305 64 290 83 290 C87 290 95 291 100 293 L129 302 L129 40 C129 18 147 0 168 0 L571 0 C591 0 607 16 607 36 C607 56 591 73 571 73 L207 73 L207 325 L402 385 Z " />
<glyph glyph-name="lslash" unicode="&#x142;" horiz-adv-x="323" d="M256 361 C270 366 281 377 281 395 C281 415 266 430 247 430 C243 430 235 429 230 427 L200 418 L200 696 C200 717 183 735 161 735 C140 735 124 717 124 696 L124 395 C93 385 68 378 68 378 C53 373 42 362 42 344 C42 324 57 309 77 309 C81 309 88 310 93 312 L124 321 L124 34 C124 12 140 -5 162 -5 C184 -5 200 12 200 34 L200 344 L256 361 Z " />
<glyph glyph-name="Nacute" unicode="&#x143;" horiz-adv-x="790" d="M392 758 C411 758 423 761 439 777 L514 848 C522 856 528 863 528 871 C528 885 498 901 474 901 C459 901 448 893 438 878 L378 787 C375 783 373 777 373 772 C373 764 381 758 392 758 L392 758 Z M99 34 C99 13 116 -5 137 -5 C159 -5 176 13 176 34 L176 576 L610 21 C622 7 634 -3 651 -3 L655 -3 C676 -3 691 13 691 34 L691 666 C691 687 674 705 653 705 C631 705 614 687 614 666 L614 138 L189 680 C178 694 167 703 149 703 L138 703 C117 703 99 685 99 664 L99 34 Z " />
<glyph glyph-name="nacute" unicode="&#x144;" horiz-adv-x="616" d="M309 591 C328 591 340 594 356 610 L431 681 C439 689 445 696 445 704 C445 718 415 734 391 734 C376 734 365 726 355 711 L295 620 C292 616 290 610 290 605 C290 597 298 591 309 591 L309 591 Z M86 34 C86 12 103 -5 125 -5 C147 -5 163 12 163 34 L163 296 C163 393 229 458 318 458 C409 458 461 398 461 302 L461 34 C461 12 478 -5 500 -5 C521 -5 538 12 538 34 L538 321 C538 444 465 528 340 528 C251 528 197 483 163 427 L163 483 C163 505 146 522 124 522 C103 522 86 504 86 483 L86 34 Z " />
<glyph glyph-name="Ncommaaccent" unicode="&#x145;" horiz-adv-x="790" d="M388 -149 C389 -180 374 -196 335 -206 C323 -209 318 -215 318 -223 C318 -230 325 -237 337 -237 C356 -237 390 -226 409 -207 C431 -187 441 -161 441 -117 L441 -112 C441 -80 421 -60 394 -60 C367 -60 348 -79 348 -103 L348 -108 C348 -132 366 -145 388 -149 L388 -149 Z M99 34 C99 13 116 -5 137 -5 C159 -5 176 13 176 34 L176 576 L610 21 C622 7 634 -3 651 -3 L655 -3 C676 -3 691 13 691 34 L691 666 C691 687 674 705 653 705 C631 705 614 687 614 666 L614 138 L189 680 C178 694 167 703 149 703 L138 703 C117 703 99 685 99 664 L99 34 Z " />
<glyph glyph-name="ncommaaccent" unicode="&#x146;" horiz-adv-x="616" d="M304 -154 C305 -185 290 -201 251 -211 C239 -214 234 -220 234 -228 C234 -235 241 -242 253 -242 C272 -242 306 -231 325 -212 C347 -192 357 -166 357 -122 L357 -117 C357 -85 337 -65 310 -65 C283 -65 264 -84 264 -108 L264 -113 C264 -137 282 -150 304 -154 L304 -154 Z M86 34 C86 12 103 -5 125 -5 C147 -5 163 12 163 34 L163 296 C163 393 229 458 318 458 C409 458 461 398 461 302 L461 34 C461 12 478 -5 500 -5 C521 -5 538 12 538 34 L538 321 C538 444 465 528 340 528 C251 528 197 483 163 427 L163 483 C163 505 146 522 124 522 C103 522 86 504 86 483 L86 34 Z " />
<glyph glyph-name="Ncaron" unicode="&#x147;" horiz-adv-x="790" d="M396 826 L337 879 C320 894 307 897 288 897 C277 897 269 891 269 883 C269 878 272 873 276 867 L346 781 C357 767 367 758 386 758 L404 758 C423 758 433 767 444 781 L514 867 C518 873 521 878 521 883 C521 891 514 897 503 897 C484 897 472 894 455 879 L396 826 Z M99 34 C99 13 116 -5 137 -5 C159 -5 176 13 176 34 L176 576 L610 21 C622 7 634 -3 651 -3 L655 -3 C676 -3 691 13 691 34 L691 666 C691 687 674 705 653 705 C631 705 614 687 614 666 L614 138 L189 680 C178 694 167 703 149 703 L138 703 C117 703 99 685 99 664 L99 34 Z " />
<glyph glyph-name="ncaron" unicode="&#x148;" horiz-adv-x="616" d="M312 659 L253 712 C236 727 223 730 204 730 C193 730 185 724 185 716 C185 711 188 706 192 700 L262 614 C273 600 283 591 302 591 L320 591 C339 591 349 600 360 614 L430 700 C434 706 437 711 437 716 C437 724 430 730 419 730 C400 730 388 727 371 712 L312 659 Z M86 34 C86 12 103 -5 125 -5 C147 -5 163 12 163 34 L163 296 C163 393 229 458 318 458 C409 458 461 398 461 302 L461 34 C461 12 478 -5 500 -5 C521 -5 538 12 538 34 L538 321 C538 444 465 528 340 528 C251 528 197 483 163 427 L163 483 C163 505 146 522 124 522 C103 522 86 504 86 483 L86 34 Z " />
<glyph glyph-name="Omacron" unicode="&#x14c;" horiz-adv-x="850" d="M557 792 C575 792 589 807 589 824 C589 841 575 856 557 856 L293 856 C275 856 261 841 261 824 C261 807 275 792 293 792 L557 792 Z M424 -12 C637 -12 782 157 782 350 L782 352 C782 545 639 712 426 712 C213 712 68 543 68 350 L68 348 C68 155 211 -12 424 -12 L424 -12 Z M426 61 C266 61 150 191 150 350 L150 352 C150 511 264 639 424 639 C584 639 700 509 700 350 L700 348 C700 189 586 61 426 61 L426 61 Z " />
<glyph glyph-name="omacron" unicode="&#x14d;" horiz-adv-x="646" d="M455 615 C473 615 487 630 487 647 C487 664 473 679 455 679 L191 679 C173 679 159 664 159 647 C159 630 173 615 191 615 L455 615 Z M322 -12 C478 -12 593 112 593 258 L593 260 C593 406 479 528 324 528 C168 528 54 404 54 258 L54 256 C54 110 167 -12 322 -12 L322 -12 Z M324 57 C215 57 133 147 133 258 L133 260 C133 369 210 460 322 460 C431 460 514 369 514 258 L514 256 C514 147 436 57 324 57 L324 57 Z " />
<glyph glyph-name="Obreve" unicode="&#x14e;" horiz-adv-x="850" d="M424 -12 C637 -12 782 157 782 350 L782 352 C782 545 639 712 426 712 C213 712 68 543 68 350 L68 348 C68 155 211 -12 424 -12 L424 -12 Z M426 61 C266 61 150 191 150 350 L150 352 C150 511 264 639 424 639 C584 639 700 509 700 350 L700 348 C700 189 586 61 426 61 L426 61 Z M425 770 C485 770 531 795 557 843 C563 853 567 868 567 878 C567 895 556 908 539 908 C524 908 517 900 511 889 C498 857 472 834 425 834 C378 834 352 857 339 889 C333 900 326 908 311 908 C294 908 283 895 283 878 C283 868 287 853 293 843 C319 795 365 770 425 770 L425 770 Z " />
<glyph glyph-name="obreve" unicode="&#x14f;" horiz-adv-x="646" d="M322 -12 C478 -12 593 112 593 258 L593 260 C593 406 479 528 324 528 C168 528 54 404 54 258 L54 256 C54 110 167 -12 322 -12 L322 -12 Z M324 57 C215 57 133 147 133 258 L133 260 C133 369 210 460 322 460 C431 460 514 369 514 258 L514 256 C514 147 436 57 324 57 L324 57 Z M323 593 C383 593 429 618 455 666 C461 676 465 691 465 701 C465 718 454 731 437 731 C422 731 415 723 409 712 C396 680 370 657 323 657 C276 657 250 680 237 712 C231 723 224 731 209 731 C192 731 181 718 181 701 C181 691 185 676 191 666 C217 618 263 593 323 593 L323 593 Z " />
<glyph glyph-name="Ohungarumlaut" unicode="&#x150;" horiz-adv-x="850" d="M493 768 C511 768 522 771 539 787 L613 860 C620 867 625 874 625 882 C625 896 597 911 574 911 C559 911 549 903 540 889 L479 797 C476 793 473 787 473 782 C473 774 481 768 493 768 L493 768 Z M329 768 C347 768 358 771 375 787 L449 860 C456 867 461 874 461 882 C461 896 433 911 410 911 C395 911 385 903 376 889 L315 797 C312 793 309 787 309 782 C309 774 318 768 329 768 L329 768 Z M424 -12 C637 -12 782 157 782 350 L782 352 C782 545 639 712 426 712 C213 712 68 543 68 350 L68 348 C68 155 211 -12 424 -12 L424 -12 Z M426 61 C266 61 150 191 150 350 L150 352 C150 511 264 639 424 639 C584 639 700 509 700 350 L700 348 C700 189 586 61 426 61 L426 61 Z " />
<glyph glyph-name="ohungarumlaut" unicode="&#x151;" horiz-adv-x="646" d="M392 591 C410 591 421 594 438 610 L512 683 C519 690 524 697 524 705 C524 719 496 734 473 734 C458 734 448 726 439 712 L378 620 C375 616 372 610 372 605 C372 597 380 591 392 591 L392 591 Z M228 591 C246 591 257 594 274 610 L348 683 C355 690 360 697 360 705 C360 719 332 734 309 734 C294 734 284 726 275 712 L214 620 C211 616 208 610 208 605 C208 597 217 591 228 591 L228 591 Z M322 -12 C478 -12 593 112 593 258 L593 260 C593 406 479 528 324 528 C168 528 54 404 54 258 L54 256 C54 110 167 -12 322 -12 L322 -12 Z M324 57 C215 57 133 147 133 258 L133 260 C133 369 210 460 322 460 C431 460 514 369 514 258 L514 256 C514 147 436 57 324 57 L324 57 Z " />
<glyph glyph-name="OE" unicode="&#x152;" horiz-adv-x="1131" d="M440 0 L1039 0 C1059 0 1075 16 1075 36 C1075 56 1059 72 1039 72 L657 72 L657 317 L989 317 C1009 317 1025 333 1025 353 C1025 372 1009 389 989 389 L657 389 L657 628 L1034 628 C1054 628 1070 644 1070 664 C1070 684 1054 700 1034 700 L440 700 C220 700 68 547 68 350 L68 348 C68 150 220 0 440 0 L440 0 Z M440 73 C263 73 150 195 150 350 L150 352 C150 507 263 627 440 627 L578 627 L578 73 L440 73 Z " />
<glyph glyph-name="oe" unicode="&#x153;" horiz-adv-x="1049" d="M589 287 C599 388 667 463 758 463 C860 463 914 381 922 287 L589 287 Z M323 57 C215 57 133 147 133 258 L133 260 C133 369 210 460 321 460 C429 460 511 369 511 258 L511 256 C511 147 434 57 323 57 L323 57 Z M965 66 C972 73 976 82 976 91 C976 109 961 124 942 124 C933 124 927 120 921 115 C882 80 836 55 771 55 C680 55 600 118 590 230 L963 230 C982 230 1000 245 1000 266 C1000 403 912 528 760 528 C665 528 587 473 548 391 C506 472 423 528 322 528 C170 528 54 404 54 258 L54 256 C54 110 169 -12 319 -12 C421 -12 505 46 547 127 C589 41 674 -12 770 -12 C857 -12 915 19 965 66 L965 66 Z " />
<glyph glyph-name="Racute" unicode="&#x154;" horiz-adv-x="723" d="M99 35 C99 13 117 -5 138 -5 C160 -5 178 13 178 35 L178 272 L379 272 L576 16 C585 4 597 -5 613 -5 C633 -5 653 13 653 34 C653 45 648 54 640 63 L466 287 C575 308 653 375 653 490 L653 492 C653 547 633 596 599 630 C555 674 486 700 400 700 L138 700 C117 700 99 682 99 660 L99 35 Z M178 343 L178 627 L394 627 C507 627 573 575 573 489 L573 487 C573 397 498 343 393 343 L178 343 Z M355 758 C374 758 386 761 402 777 L477 848 C485 856 491 863 491 871 C491 885 461 901 437 901 C422 901 411 893 401 878 L341 787 C338 783 336 777 336 772 C336 764 344 758 355 758 L355 758 Z " />
<glyph glyph-name="racute" unicode="&#x155;" horiz-adv-x="405" d="M213 591 C232 591 244 594 260 610 L335 681 C343 689 349 696 349 704 C349 718 319 734 295 734 C280 734 269 726 259 711 L199 620 C196 616 194 610 194 605 C194 597 202 591 213 591 L213 591 Z M86 34 C86 12 103 -5 125 -5 C147 -5 163 13 163 34 L163 210 C163 359 245 434 345 446 C365 449 379 464 379 485 C379 507 364 524 341 524 C276 524 201 472 163 386 L163 483 C163 505 146 522 124 522 C103 522 86 504 86 483 L86 34 Z " />
<glyph glyph-name="Rcommaaccent" unicode="&#x156;" horiz-adv-x="723" d="M99 35 C99 13 117 -5 138 -5 C160 -5 178 13 178 35 L178 272 L379 272 L576 16 C585 4 597 -5 613 -5 C633 -5 653 13 653 34 C653 45 648 54 640 63 L466 287 C575 308 653 375 653 490 L653 492 C653 547 633 596 599 630 C555 674 486 700 400 700 L138 700 C117 700 99 682 99 660 L99 35 Z M178 343 L178 627 L394 627 C507 627 573 575 573 489 L573 487 C573 397 498 343 393 343 L178 343 Z M351 -149 C352 -180 337 -196 298 -206 C286 -209 281 -215 281 -223 C281 -230 288 -237 300 -237 C319 -237 353 -226 372 -207 C394 -187 404 -161 404 -117 L404 -112 C404 -80 384 -60 357 -60 C330 -60 311 -79 311 -103 L311 -108 C311 -132 329 -145 351 -149 L351 -149 Z " />
<glyph glyph-name="rcommaaccent" unicode="&#x157;" horiz-adv-x="405" d="M126 -154 C127 -185 112 -201 73 -211 C61 -214 56 -220 56 -228 C56 -235 63 -242 75 -242 C94 -242 128 -231 147 -212 C169 -192 179 -166 179 -122 L179 -117 C179 -85 159 -65 132 -65 C105 -65 86 -84 86 -108 L86 -113 C86 -137 104 -150 126 -154 L126 -154 Z M86 34 C86 12 103 -5 125 -5 C147 -5 163 13 163 34 L163 210 C163 359 245 434 345 446 C365 449 379 464 379 485 C379 507 364 524 341 524 C276 524 201 472 163 386 L163 483 C163 505 146 522 124 522 C103 522 86 504 86 483 L86 34 Z " />
<glyph glyph-name="Rcaron" unicode="&#x158;" horiz-adv-x="723" d="M99 35 C99 13 117 -5 138 -5 C160 -5 178 13 178 35 L178 272 L379 272 L576 16 C585 4 597 -5 613 -5 C633 -5 653 13 653 34 C653 45 648 54 640 63 L466 287 C575 308 653 375 653 490 L653 492 C653 547 633 596 599 630 C555 674 486 700 400 700 L138 700 C117 700 99 682 99 660 L99 35 Z M178 343 L178 627 L394 627 C507 627 573 575 573 489 L573 487 C573 397 498 343 393 343 L178 343 Z M358 826 L299 879 C282 894 269 897 250 897 C239 897 231 891 231 883 C231 878 234 873 238 867 L308 781 C319 767 329 758 348 758 L366 758 C385 758 395 767 406 781 L476 867 C480 873 483 878 483 883 C483 891 476 897 465 897 C446 897 434 894 417 879 L358 826 Z " />
<glyph glyph-name="rcaron" unicode="&#x159;" horiz-adv-x="405" d="M217 659 L158 712 C141 727 128 730 109 730 C98 730 90 724 90 716 C90 711 93 706 97 700 L167 614 C178 600 188 591 207 591 L225 591 C244 591 254 600 265 614 L335 700 C339 706 342 711 342 716 C342 724 335 730 324 730 C305 730 293 727 276 712 L217 659 Z M86 34 C86 12 103 -5 125 -5 C147 -5 163 13 163 34 L163 210 C163 359 245 434 345 446 C365 449 379 464 379 485 C379 507 364 524 341 524 C276 524 201 472 163 386 L163 483 C163 505 146 522 124 522 C103 522 86 504 86 483 L86 34 Z " />
<glyph glyph-name="Sacute" unicode="&#x15a;" horiz-adv-x="640" d="M324 768 C343 768 355 771 371 787 L446 858 C454 866 460 873 460 881 C460 895 430 911 406 911 C391 911 380 903 370 888 L310 797 C307 793 305 787 305 782 C305 774 313 768 324 768 L324 768 Z M339 -10 C478 -10 578 68 578 188 L578 190 C578 297 506 354 350 388 C196 421 160 458 160 524 L160 526 C160 589 218 639 309 639 C374 639 431 621 490 578 C497 573 504 571 513 571 C534 571 551 588 551 609 C551 624 542 635 534 641 C470 687 403 710 311 710 C178 710 81 629 81 519 L81 517 C81 402 155 350 316 315 C463 284 498 247 498 182 L498 180 C498 111 436 61 342 61 C253 61 187 88 121 144 C116 149 107 153 97 153 C76 153 59 136 59 114 C59 101 65 90 74 84 C152 22 237 -10 339 -10 L339 -10 Z " />
<glyph glyph-name="sacute" unicode="&#x15b;" horiz-adv-x="498" d="M250 591 C269 591 281 594 297 610 L372 681 C380 689 386 696 386 704 C386 718 356 734 332 734 C317 734 306 726 296 711 L236 620 C233 616 231 610 231 605 C231 597 239 591 250 591 L250 591 Z M257 -10 C360 -10 441 47 441 145 L441 147 C441 240 355 271 275 295 C206 316 142 335 142 384 L142 386 C142 429 181 461 242 461 C286 461 333 446 377 421 C381 419 387 417 394 417 C413 417 428 432 428 450 C428 465 419 476 409 482 C359 509 299 526 244 526 C142 526 68 467 68 378 L68 376 C68 281 158 253 239 230 C307 211 368 191 368 139 L368 137 C368 87 323 55 261 55 C205 55 150 74 97 110 C92 114 85 116 78 116 C59 116 44 101 44 83 C44 70 51 60 58 55 C114 15 189 -10 257 -10 L257 -10 Z " />
<glyph glyph-name="Scedilla" unicode="&#x15e;" horiz-adv-x="640" d="M578 188 L578 190 C578 297 506 354 350 388 C196 421 160 458 160 524 L160 526 C160 589 218 639 309 639 C374 639 431 621 490 578 C497 573 504 571 513 571 C534 571 551 588 551 609 C551 624 542 635 534 641 C470 687 403 710 311 710 C178 710 81 629 81 519 L81 517 C81 402 155 350 316 315 C463 284 498 247 498 182 L498 180 C498 111 436 61 342 61 C253 61 187 88 121 144 C116 149 107 153 97 153 C76 153 59 136 59 114 C59 101 65 90 74 84 C141 30 213 0 297 -8 L235 -99 C231 -106 229 -112 229 -117 C229 -132 258 -149 277 -149 C294 -149 301 -140 308 -126 L362 -9 C489 -1 578 75 578 188 L578 188 Z " />
<glyph glyph-name="scedilla" unicode="&#x15f;" horiz-adv-x="498" d="M441 145 L441 147 C441 240 355 271 275 295 C206 316 142 335 142 384 L142 386 C142 429 181 461 242 461 C286 461 333 446 377 421 C381 419 387 417 394 417 C413 417 428 432 428 450 C428 465 419 476 409 482 C359 509 299 526 244 526 C142 526 68 467 68 378 L68 376 C68 281 158 253 239 230 C307 211 368 191 368 139 L368 137 C368 87 323 55 261 55 C205 55 150 74 97 110 C92 114 85 116 78 116 C59 116 44 101 44 83 C44 70 51 60 58 55 C102 23 158 1 213 -7 L150 -99 C146 -106 144 -112 144 -117 C144 -132 173 -149 192 -149 C209 -149 216 -140 223 -126 L277 -9 C370 -2 441 53 441 145 L441 145 Z " />
<glyph glyph-name="Scaron" unicode="&#x160;" horiz-adv-x="640" d="M327 836 L268 889 C251 904 238 907 219 907 C208 907 200 901 200 893 C200 888 203 883 207 877 L277 791 C288 777 298 768 317 768 L335 768 C354 768 364 777 375 791 L445 877 C449 883 452 888 452 893 C452 901 445 907 434 907 C415 907 403 904 386 889 L327 836 Z M339 -10 C478 -10 578 68 578 188 L578 190 C578 297 506 354 350 388 C196 421 160 458 160 524 L160 526 C160 589 218 639 309 639 C374 639 431 621 490 578 C497 573 504 571 513 571 C534 571 551 588 551 609 C551 624 542 635 534 641 C470 687 403 710 311 710 C178 710 81 629 81 519 L81 517 C81 402 155 350 316 315 C463 284 498 247 498 182 L498 180 C498 111 436 61 342 61 C253 61 187 88 121 144 C116 149 107 153 97 153 C76 153 59 136 59 114 C59 101 65 90 74 84 C152 22 237 -10 339 -10 L339 -10 Z " />
<glyph glyph-name="scaron" unicode="&#x161;" horiz-adv-x="498" d="M253 659 L194 712 C177 727 164 730 145 730 C134 730 126 724 126 716 C126 711 129 706 133 700 L203 614 C214 600 224 591 243 591 L261 591 C280 591 290 600 301 614 L371 700 C375 706 378 711 378 716 C378 724 371 730 360 730 C341 730 329 727 312 712 L253 659 Z M257 -10 C360 -10 441 47 441 145 L441 147 C441 240 355 271 275 295 C206 316 142 335 142 384 L142 386 C142 429 181 461 242 461 C286 461 333 446 377 421 C381 419 387 417 394 417 C413 417 428 432 428 450 C428 465 419 476 409 482 C359 509 299 526 244 526 C142 526 68 467 68 378 L68 376 C68 281 158 253 239 230 C307 211 368 191 368 139 L368 137 C368 87 323 55 261 55 C205 55 150 74 97 110 C92 114 85 116 78 116 C59 116 44 101 44 83 C44 70 51 60 58 55 C114 15 189 -10 257 -10 L257 -10 Z " />
<glyph glyph-name="Tcommaaccent" unicode="&#x162;" horiz-adv-x="648" d="M317 -154 C318 -185 303 -201 264 -211 C252 -214 247 -220 247 -228 C247 -235 254 -242 266 -242 C285 -242 319 -231 338 -212 C360 -192 370 -166 370 -122 L370 -117 C370 -85 350 -65 323 -65 C296 -65 277 -84 277 -108 L277 -113 C277 -137 295 -150 317 -154 L317 -154 Z M284 35 C284 13 302 -5 324 -5 C346 -5 364 13 364 35 L364 627 L567 627 C587 627 604 643 604 663 C604 683 587 700 567 700 L81 700 C61 700 44 683 44 663 C44 643 61 627 81 627 L284 627 L284 35 Z " />
<glyph glyph-name="tcommaaccent" unicode="&#x163;" horiz-adv-x="404" d="M219 -154 C220 -185 205 -201 166 -211 C154 -214 149 -220 149 -228 C149 -235 156 -242 168 -242 C187 -242 221 -231 240 -212 C262 -192 272 -166 272 -122 L272 -117 C272 -85 252 -65 225 -65 C198 -65 179 -84 179 -108 L179 -113 C179 -137 197 -150 219 -154 L219 -154 Z M259 -9 C289 -9 313 -4 335 5 C348 10 357 21 357 35 C357 53 342 68 324 68 C318 68 304 61 277 61 C225 61 190 84 190 147 L190 449 L324 449 C343 449 359 464 359 483 C359 501 343 517 324 517 L190 517 L190 639 C190 660 172 678 151 678 C129 678 113 660 113 639 L113 517 L71 517 C53 517 37 502 37 483 C37 465 53 449 71 449 L113 449 L113 137 C113 32 176 -9 259 -9 L259 -9 Z " />
<glyph glyph-name="Tcaron" unicode="&#x164;" horiz-adv-x="648" d="M325 826 L266 879 C249 894 236 897 217 897 C206 897 198 891 198 883 C198 878 201 873 205 867 L275 781 C286 767 296 758 315 758 L333 758 C352 758 362 767 373 781 L443 867 C447 873 450 878 450 883 C450 891 443 897 432 897 C413 897 401 894 384 879 L325 826 Z M284 35 C284 13 302 -5 324 -5 C346 -5 364 13 364 35 L364 627 L567 627 C587 627 604 643 604 663 C604 683 587 700 567 700 L81 700 C61 700 44 683 44 663 C44 643 61 627 81 627 L284 627 L284 35 Z " />
<glyph glyph-name="tcaron" unicode="&#x165;" horiz-adv-x="404" d="M295 602 C293 585 302 579 313 579 C325 579 331 585 335 599 L370 705 C373 714 375 723 375 729 C375 744 366 750 353 750 L338 750 C318 750 306 738 304 718 L295 602 Z M259 -9 C289 -9 313 -4 335 5 C348 10 357 21 357 35 C357 53 342 68 324 68 C318 68 304 61 277 61 C225 61 190 84 190 147 L190 449 L324 449 C343 449 359 464 359 483 C359 501 343 517 324 517 L190 517 L190 639 C190 660 172 678 151 678 C129 678 113 660 113 639 L113 517 L71 517 C53 517 37 502 37 483 C37 465 53 449 71 449 L113 449 L113 137 C113 32 176 -9 259 -9 L259 -9 Z " />
<glyph glyph-name="Umacron" unicode="&#x16a;" horiz-adv-x="759" d="M379 -11 C554 -11 671 95 671 299 L671 665 C671 687 653 705 632 705 C610 705 592 687 592 665 L592 293 C592 140 510 62 381 62 C248 62 167 147 167 298 L167 665 C167 687 149 705 127 705 C106 705 88 687 88 665 L88 293 C88 95 206 -11 379 -11 L379 -11 Z M511 782 C529 782 543 797 543 814 C543 831 529 846 511 846 L247 846 C229 846 215 831 215 814 C215 797 229 782 247 782 L511 782 Z " />
<glyph glyph-name="umacron" unicode="&#x16b;" horiz-adv-x="616" d="M529 483 C529 505 512 522 491 522 C469 522 453 505 453 483 L453 221 C453 124 386 59 298 59 C207 59 155 119 155 215 L155 483 C155 505 137 522 116 522 C94 522 78 505 78 483 L78 196 C78 73 151 -11 276 -11 C365 -11 418 34 453 90 L453 34 C453 12 470 -5 491 -5 C513 -5 529 13 529 34 L529 483 Z M435 615 C453 615 467 630 467 647 C467 664 453 679 435 679 L171 679 C153 679 139 664 139 647 C139 630 153 615 171 615 L435 615 Z " />
<glyph glyph-name="Ubreve" unicode="&#x16c;" horiz-adv-x="759" d="M379 -11 C554 -11 671 95 671 299 L671 665 C671 687 653 705 632 705 C610 705 592 687 592 665 L592 293 C592 140 510 62 381 62 C248 62 167 147 167 298 L167 665 C167 687 149 705 127 705 C106 705 88 687 88 665 L88 293 C88 95 206 -11 379 -11 L379 -11 Z M379 758 C439 758 485 783 511 831 C517 841 521 856 521 866 C521 883 510 896 493 896 C478 896 471 888 465 877 C452 845 426 822 379 822 C332 822 306 845 293 877 C287 888 280 896 265 896 C248 896 237 883 237 866 C237 856 241 841 247 831 C273 783 319 758 379 758 L379 758 Z " />
<glyph glyph-name="ubreve" unicode="&#x16d;" horiz-adv-x="616" d="M529 483 C529 505 512 522 491 522 C469 522 453 505 453 483 L453 221 C453 124 386 59 298 59 C207 59 155 119 155 215 L155 483 C155 505 137 522 116 522 C94 522 78 505 78 483 L78 196 C78 73 151 -11 276 -11 C365 -11 418 34 453 90 L453 34 C453 12 470 -5 491 -5 C513 -5 529 13 529 34 L529 483 Z M303 593 C363 593 409 618 435 666 C441 676 445 691 445 701 C445 718 434 731 417 731 C402 731 395 723 389 712 C376 680 350 657 303 657 C256 657 230 680 217 712 C211 723 204 731 189 731 C172 731 161 718 161 701 C161 691 165 676 171 666 C197 618 243 593 303 593 L303 593 Z " />
<glyph glyph-name="Uring" unicode="&#x16e;" horiz-adv-x="759" d="M379 748 C434 748 483 793 483 847 L483 849 C483 903 434 948 379 948 C324 948 275 903 275 849 L275 847 C275 793 324 748 379 748 L379 748 Z M379 786 C346 786 317 814 317 847 L317 849 C317 882 345 910 379 910 C413 910 441 882 441 849 L441 847 C441 814 412 786 379 786 L379 786 Z M379 -11 C554 -11 671 95 671 299 L671 665 C671 687 653 705 632 705 C610 705 592 687 592 665 L592 293 C592 140 510 62 381 62 C248 62 167 147 167 298 L167 665 C167 687 149 705 127 705 C106 705 88 687 88 665 L88 293 C88 95 206 -11 379 -11 L379 -11 Z " />
<glyph glyph-name="uring" unicode="&#x16f;" horiz-adv-x="616" d="M303 590 C358 590 407 635 407 689 L407 691 C407 745 358 790 303 790 C248 790 199 745 199 691 L199 689 C199 635 248 590 303 590 L303 590 Z M303 628 C270 628 241 656 241 689 L241 691 C241 724 269 752 303 752 C337 752 365 724 365 691 L365 689 C365 656 336 628 303 628 L303 628 Z M529 483 C529 505 512 522 491 522 C469 522 453 505 453 483 L453 221 C453 124 386 59 298 59 C207 59 155 119 155 215 L155 483 C155 505 137 522 116 522 C94 522 78 505 78 483 L78 196 C78 73 151 -11 276 -11 C365 -11 418 34 453 90 L453 34 C453 12 470 -5 491 -5 C513 -5 529 13 529 34 L529 483 Z " />
<glyph glyph-name="Uhungarumlaut" unicode="&#x170;" horiz-adv-x="759" d="M379 -11 C554 -11 671 95 671 299 L671 665 C671 687 653 705 632 705 C610 705 592 687 592 665 L592 293 C592 140 510 62 381 62 C248 62 167 147 167 298 L167 665 C167 687 149 705 127 705 C106 705 88 687 88 665 L88 293 C88 95 206 -11 379 -11 L379 -11 Z M448 758 C466 758 477 761 494 777 L568 850 C575 857 580 864 580 872 C580 886 552 901 529 901 C514 901 504 893 495 879 L434 787 C431 783 428 777 428 772 C428 764 436 758 448 758 L448 758 Z M284 758 C302 758 313 761 330 777 L404 850 C411 857 416 864 416 872 C416 886 388 901 365 901 C350 901 340 893 331 879 L270 787 C267 783 264 777 264 772 C264 764 273 758 284 758 L284 758 Z " />
<glyph glyph-name="uhungarumlaut" unicode="&#x171;" horiz-adv-x="616" d="M529 483 C529 505 512 522 491 522 C469 522 453 505 453 483 L453 221 C453 124 386 59 298 59 C207 59 155 119 155 215 L155 483 C155 505 137 522 116 522 C94 522 78 505 78 483 L78 196 C78 73 151 -11 276 -11 C365 -11 418 34 453 90 L453 34 C453 12 470 -5 491 -5 C513 -5 529 13 529 34 L529 483 Z M372 591 C390 591 401 594 418 610 L492 683 C499 690 504 697 504 705 C504 719 476 734 453 734 C438 734 428 726 419 712 L358 620 C355 616 352 610 352 605 C352 597 360 591 372 591 L372 591 Z M208 591 C226 591 237 594 254 610 L328 683 C335 690 340 697 340 705 C340 719 312 734 289 734 C274 734 264 726 255 712 L194 620 C191 616 188 610 188 605 C188 597 197 591 208 591 L208 591 Z " />
<glyph glyph-name="Uogonek" unicode="&#x172;" horiz-adv-x="759" d="M304 -84 C304 -150 385 -164 421 -164 C439 -164 449 -155 449 -141 C449 -129 441 -121 420 -117 C389 -111 370 -99 370 -73 C370 -51 381 -33 407 -10 C566 1 671 106 671 299 L671 665 C671 687 653 705 632 705 C610 705 592 687 592 665 L592 293 C592 140 510 62 381 62 C248 62 167 147 167 298 L167 665 C167 687 149 705 127 705 C106 705 88 687 88 665 L88 293 C88 109 189 5 341 -9 C317 -33 304 -56 304 -84 L304 -84 Z " />
<glyph glyph-name="uogonek" unicode="&#x173;" horiz-adv-x="616" d="M529 483 C529 505 512 522 491 522 C469 522 453 505 453 483 L453 221 C453 124 386 59 298 59 C207 59 155 119 155 215 L155 483 C155 505 137 522 116 522 C94 522 78 505 78 483 L78 196 C78 73 151 -11 276 -11 C365 -11 418 34 453 90 L453 88 C453 82 455 13 460 9 C423 -21 402 -49 402 -85 C402 -150 482 -164 519 -164 C536 -164 546 -155 546 -141 C546 -129 539 -121 517 -117 C487 -111 468 -99 468 -73 C468 -49 481 -31 512 -4 C525 8 529 16 529 31 L529 483 Z " />
<glyph glyph-name="Wcircumflex" unicode="&#x174;" horiz-adv-x="1101" d="M549 829 L608 777 C625 761 638 758 657 758 C668 758 676 764 676 772 C676 777 673 782 669 789 L599 875 C588 888 578 897 559 897 L541 897 C522 897 512 888 501 875 L431 789 C427 782 424 777 424 772 C424 764 431 758 442 758 C461 758 473 761 490 777 L549 829 Z M281 25 C288 4 302 -9 322 -9 L328 -9 C348 -9 362 5 369 25 L550 563 L732 25 C739 5 753 -9 773 -9 L779 -9 C799 -9 813 5 820 25 L1044 647 C1046 653 1049 660 1049 666 C1049 686 1030 705 1009 705 C990 705 977 692 971 674 L777 116 L594 674 C588 692 575 705 555 705 L550 705 C529 705 517 692 511 674 L328 116 L135 672 C129 690 114 705 94 705 C72 705 53 686 53 665 C53 659 55 653 57 647 L281 25 Z " />
<glyph glyph-name="wcircumflex" unicode="&#x175;" horiz-adv-x="858" d="M427 662 L486 610 C503 594 516 591 535 591 C546 591 554 597 554 605 C554 610 551 615 547 622 L477 708 C466 721 456 730 437 730 L419 730 C400 730 390 721 379 708 L309 622 C305 615 302 610 302 605 C302 597 309 591 320 591 C339 591 351 594 368 610 L427 662 Z M255 -8 L257 -8 C277 -8 292 4 299 27 L429 404 L558 27 C565 4 580 -8 600 -8 L603 -8 C621 -8 637 4 645 27 L803 465 C805 471 808 479 808 486 C808 505 792 522 770 522 C749 522 738 508 733 492 L601 102 L471 491 C465 509 452 522 431 522 L427 522 C407 522 395 509 389 491 L258 102 L128 490 C122 509 109 522 89 522 C66 522 50 504 50 485 C50 478 53 470 55 464 L212 27 C220 4 236 -8 255 -8 L255 -8 Z " />
<glyph glyph-name="Ycircumflex" unicode="&#x176;" horiz-adv-x="708" d="M314 35 C314 13 332 -5 354 -5 C376 -5 394 13 394 35 L394 277 L653 637 C658 645 664 656 664 666 C664 687 647 705 625 705 C608 705 598 695 588 681 L355 348 L124 681 C114 695 103 705 86 705 C64 705 45 687 45 666 C45 656 49 647 54 639 L314 275 L314 35 Z M353 829 L412 777 C429 761 442 758 461 758 C472 758 480 764 480 772 C480 777 477 782 473 789 L403 875 C392 888 382 897 363 897 L345 897 C326 897 316 888 305 875 L235 789 C231 782 228 777 228 772 C228 764 235 758 246 758 C265 758 277 761 294 777 L353 829 Z " />
<glyph glyph-name="ycircumflex" unicode="&#x177;" horiz-adv-x="587" d="M161 -163 C239 -163 289 -124 334 -17 L536 465 C538 471 540 478 540 484 C540 505 523 522 502 522 C482 522 471 509 465 493 L305 86 L125 492 C118 509 107 522 86 522 C64 522 47 505 47 484 C47 477 49 470 52 463 L268 5 L264 -3 C236 -66 208 -95 160 -95 C134 -95 119 -91 104 -86 C98 -84 92 -82 85 -82 C68 -82 52 -96 52 -115 C52 -133 64 -143 76 -148 C102 -157 127 -163 161 -163 L161 -163 Z M295 662 L354 610 C371 594 384 591 403 591 C414 591 422 597 422 605 C422 610 419 615 415 622 L345 708 C334 721 324 730 305 730 L287 730 C268 730 258 721 247 708 L177 622 C173 615 170 610 170 605 C170 597 177 591 188 591 C207 591 219 594 236 610 L295 662 Z " />
<glyph glyph-name="Ydieresis" unicode="&#x178;" horiz-adv-x="708" d="M314 35 C314 13 332 -5 354 -5 C376 -5 394 13 394 35 L394 277 L653 637 C658 645 664 656 664 666 C664 687 647 705 625 705 C608 705 598 695 588 681 L355 348 L124 681 C114 695 103 705 86 705 C64 705 45 687 45 666 C45 656 49 647 54 639 L314 275 L314 35 Z M443 862 C417 862 396 843 396 817 L396 802 C396 776 417 757 443 757 C469 757 490 776 490 802 L490 817 C490 843 469 862 443 862 L443 862 Z M265 862 C239 862 218 843 218 817 L218 802 C218 776 239 757 265 757 C291 757 312 776 312 802 L312 817 C312 843 291 862 265 862 L265 862 Z " />
<glyph glyph-name="Zacute" unicode="&#x179;" horiz-adv-x="693" d="M352 758 C371 758 383 761 399 777 L474 848 C482 856 488 863 488 871 C488 885 458 901 434 901 C419 901 408 893 398 878 L338 787 C335 783 333 777 333 772 C333 764 341 758 352 758 L352 758 Z M104 0 L596 0 C616 0 632 16 632 36 C632 55 616 71 596 71 L174 71 L613 629 C622 640 627 650 627 664 L627 666 C627 684 610 700 591 700 L114 700 C94 700 78 684 78 664 C78 645 94 629 114 629 L520 629 L81 71 C72 60 67 50 67 36 L67 34 C67 16 84 0 104 0 L104 0 Z " />
<glyph glyph-name="zacute" unicode="&#x17a;" horiz-adv-x="556" d="M280 591 C299 591 311 594 327 610 L402 681 C410 689 416 696 416 704 C416 718 386 734 362 734 C347 734 336 726 326 711 L266 620 C263 616 261 610 261 605 C261 597 269 591 280 591 L280 591 Z M93 0 L475 0 C493 0 508 15 508 33 C508 50 493 65 475 65 L160 65 L487 449 C498 461 503 471 503 484 L503 486 C503 503 487 517 466 517 L97 517 C79 517 64 502 64 484 C64 466 79 452 97 452 L399 452 L72 68 C61 56 56 46 56 33 L56 31 C56 14 73 0 93 0 L93 0 Z " />
<glyph glyph-name="Zdotaccent" unicode="&#x17b;" horiz-adv-x="693" d="M104 0 L596 0 C616 0 632 16 632 36 C632 55 616 71 596 71 L174 71 L613 629 C622 640 627 650 627 664 L627 666 C627 684 610 700 591 700 L114 700 C94 700 78 684 78 664 C78 645 94 629 114 629 L520 629 L81 71 C72 60 67 50 67 36 L67 34 C67 16 84 0 104 0 L104 0 Z M402 817 C402 844 381 862 354 862 C327 862 306 844 306 817 L306 803 C306 776 327 757 354 757 C381 757 402 776 402 803 L402 817 Z " />
<glyph glyph-name="zdotaccent" unicode="&#x17c;" horiz-adv-x="556" d="M93 0 L475 0 C493 0 508 15 508 33 C508 50 493 65 475 65 L160 65 L487 449 C498 461 503 471 503 484 L503 486 C503 503 487 517 466 517 L97 517 C79 517 64 502 64 484 C64 466 79 452 97 452 L399 452 L72 68 C61 56 56 46 56 33 L56 31 C56 14 73 0 93 0 L93 0 Z M330 650 C330 677 309 695 282 695 C255 695 234 677 234 650 L234 636 C234 609 255 590 282 590 C309 590 330 609 330 636 L330 650 Z " />
<glyph glyph-name="Zcaron" unicode="&#x17d;" horiz-adv-x="693" d="M355 826 L296 879 C279 894 266 897 247 897 C236 897 228 891 228 883 C228 878 231 873 235 867 L305 781 C316 767 326 758 345 758 L363 758 C382 758 392 767 403 781 L473 867 C477 873 480 878 480 883 C480 891 473 897 462 897 C443 897 431 894 414 879 L355 826 Z M104 0 L596 0 C616 0 632 16 632 36 C632 55 616 71 596 71 L174 71 L613 629 C622 640 627 650 627 664 L627 666 C627 684 610 700 591 700 L114 700 C94 700 78 684 78 664 C78 645 94 629 114 629 L520 629 L81 71 C72 60 67 50 67 36 L67 34 C67 16 84 0 104 0 L104 0 Z " />
<glyph glyph-name="zcaron" unicode="&#x17e;" horiz-adv-x="556" d="M283 659 L224 712 C207 727 194 730 175 730 C164 730 156 724 156 716 C156 711 159 706 163 700 L233 614 C244 600 254 591 273 591 L291 591 C310 591 320 600 331 614 L401 700 C405 706 408 711 408 716 C408 724 401 730 390 730 C371 730 359 727 342 712 L283 659 Z M93 0 L475 0 C493 0 508 15 508 33 C508 50 493 65 475 65 L160 65 L487 449 C498 461 503 471 503 484 L503 486 C503 503 487 517 466 517 L97 517 C79 517 64 502 64 484 C64 466 79 452 97 452 L399 452 L72 68 C61 56 56 46 56 33 L56 31 C56 14 73 0 93 0 L93 0 Z " />
<glyph glyph-name="florin" unicode="&#x192;" horiz-adv-x="514" d="M99 -6 C177 -6 224 35 242 128 L287 373 L414 373 C432 373 448 388 448 406 C448 424 432 440 414 440 L299 440 L319 548 C331 613 357 639 409 639 C428 639 444 634 450 634 C468 634 483 649 483 667 C483 685 470 698 453 701 C434 705 418 706 397 706 C306 706 260 659 241 560 L218 440 L138 440 C120 440 104 425 104 406 C104 388 120 373 138 373 L207 373 L163 136 C154 85 129 61 89 60 C65 59 50 47 50 27 C50 8 67 -6 99 -6 L99 -6 Z " />
<glyph glyph-name="Aringacute" unicode="&#x1fa;" horiz-adv-x="790" d="M393 897 C412 897 424 900 440 916 L515 987 C523 995 529 1002 529 1010 C529 1024 499 1040 475 1040 C460 1040 449 1032 439 1017 L379 926 C376 922 374 916 374 911 C374 903 382 897 393 897 L393 897 Z M444 680 C476 696 499 729 499 766 L499 768 C499 822 450 867 395 867 C340 867 291 822 291 768 L291 766 C291 729 314 696 346 680 L58 49 C56 43 54 38 54 32 C54 13 70 -5 91 -5 C109 -5 122 7 128 22 L201 185 L586 185 L658 24 C666 8 678 -5 696 -5 C718 -5 735 14 735 34 C735 40 734 44 732 50 L444 680 Z M395 705 C362 705 333 733 333 766 L333 768 C333 801 361 829 395 829 C429 829 457 801 457 768 L457 766 C457 733 428 705 395 705 L395 705 Z M232 257 L394 615 L554 257 L232 257 Z " />
<glyph glyph-name="aringacute" unicode="&#x1fb;" horiz-adv-x="579" d="M240 -11 C331 -11 391 31 427 78 L427 31 C427 11 442 -5 464 -5 C485 -5 501 11 501 33 L501 316 C501 382 483 432 448 467 C410 505 354 524 281 524 C215 524 163 511 112 489 C102 485 91 473 91 457 C91 439 107 424 125 424 C129 424 134 425 139 427 C177 444 221 456 273 456 C370 456 427 408 427 315 L427 297 C381 310 334 319 268 319 C137 319 47 261 47 152 L47 150 C47 44 144 -11 240 -11 L240 -11 Z M255 50 C185 50 125 88 125 153 L125 155 C125 220 179 262 276 262 C339 262 390 251 428 240 L428 190 C428 108 350 50 255 50 L255 50 Z M289 593 C344 593 393 638 393 692 L393 694 C393 748 344 793 289 793 C234 793 185 748 185 694 L185 692 C185 638 234 593 289 593 L289 593 Z M289 631 C256 631 227 659 227 692 L227 694 C227 727 255 755 289 755 C323 755 351 727 351 694 L351 692 C351 659 322 631 289 631 L289 631 Z M287 827 C306 827 318 830 334 846 L409 917 C417 925 423 932 423 940 C423 954 393 970 369 970 C354 970 343 962 333 947 L273 856 C270 852 268 846 268 841 C268 833 276 827 287 827 L287 827 Z " />
<glyph glyph-name="AEacute" unicode="&#x1fc;" horiz-adv-x="1045" d="M627 758 C646 758 658 761 674 777 L749 848 C757 856 763 863 763 871 C763 885 733 901 709 901 C694 901 683 893 673 878 L613 787 C610 783 608 777 608 772 C608 764 616 758 627 758 L627 758 Z M34 29 C34 10 51 -5 70 -5 C85 -5 97 2 104 16 L205 185 L491 185 L491 40 C491 18 509 0 531 0 L953 0 C973 0 989 16 989 36 C989 56 973 72 953 72 L571 72 L571 317 L903 317 C923 317 939 333 939 353 C939 372 923 389 903 389 L571 389 L571 628 L948 628 C968 628 984 644 984 664 C984 684 968 700 948 700 L457 700 C436 700 423 690 413 674 L41 51 C38 44 34 36 34 29 L34 29 Z M247 257 L468 630 L491 630 L491 257 L247 257 Z " />
<glyph glyph-name="aeacute" unicode="&#x1fd;" horiz-adv-x="953" d="M473 591 C492 591 504 594 520 610 L595 681 C603 689 609 696 609 704 C609 718 579 734 555 734 C540 734 529 726 519 711 L459 620 C456 616 454 610 454 605 C454 597 462 591 473 591 L473 591 Z M493 287 C503 388 571 463 662 463 C764 463 818 381 826 287 L493 287 Z M251 51 C182 51 125 89 125 153 L125 155 C125 220 178 262 272 262 C329 262 378 251 416 241 C418 205 425 173 437 143 C389 89 327 51 251 51 L251 51 Z M869 66 C876 73 880 82 880 91 C880 109 865 124 846 124 C837 124 831 120 825 115 C786 80 740 55 675 55 C584 55 504 118 494 230 L867 230 C887 230 904 245 904 266 C904 403 816 528 664 528 C579 528 507 483 466 413 C440 487 374 524 276 524 C213 524 163 512 112 489 C102 485 91 473 91 457 C91 439 107 424 125 424 C129 424 134 425 139 427 C179 445 219 456 268 456 C363 456 417 408 417 315 L417 297 C371 310 327 319 264 319 C137 319 47 261 47 152 L47 150 C47 44 142 -11 242 -11 C338 -11 413 35 468 92 C514 27 590 -12 673 -12 C761 -12 819 19 869 66 L869 66 Z " />
<glyph glyph-name="Oslashacute" unicode="&#x1fe;" horiz-adv-x="850" d="M424 -12 C637 -12 782 157 782 350 L782 352 C782 443 750 528 694 592 L755 657 C761 663 765 671 765 681 C765 697 753 710 735 710 C725 710 717 705 710 698 L650 635 C591 683 514 712 426 712 C213 712 68 543 68 350 L68 348 C68 257 99 171 155 107 L95 43 C89 37 85 29 85 19 C85 3 97 -10 115 -10 C125 -10 133 -5 140 2 L200 64 C259 17 335 -12 424 -12 L424 -12 Z M150 350 L150 352 C150 511 264 640 424 640 C491 640 551 616 598 577 L211 166 C172 216 150 280 150 350 L150 350 Z M426 60 C358 60 298 83 252 122 L639 534 C678 484 700 419 700 350 L700 348 C700 189 586 60 426 60 L426 60 Z M422 768 C441 768 453 771 469 787 L544 858 C552 866 558 873 558 881 C558 895 528 911 504 911 C489 911 478 903 468 888 L408 797 C405 793 403 787 403 782 C403 774 411 768 422 768 L422 768 Z " />
<glyph glyph-name="oslashacute" unicode="&#x1ff;" horiz-adv-x="646" d="M322 -12 C478 -12 593 112 593 258 L593 260 C593 326 570 387 530 434 L573 479 C579 485 583 493 583 502 C583 517 571 528 556 528 C546 528 537 523 530 516 L489 473 C444 507 388 528 324 528 C168 528 54 404 54 258 L54 256 C54 190 76 129 116 82 L74 39 C67 33 63 25 63 16 C63 1 76 -10 91 -10 C100 -10 109 -5 116 2 L156 43 C201 9 258 -12 322 -12 L322 -12 Z M132 258 L132 260 C132 370 210 461 322 461 C368 461 409 445 441 419 L169 137 C145 171 132 213 132 258 L132 258 Z M324 56 C279 56 238 72 206 98 L477 379 C501 345 515 303 515 258 L515 256 C515 147 437 56 324 56 L324 56 Z M321 591 C340 591 352 594 368 610 L443 681 C451 689 457 696 457 704 C457 718 427 734 403 734 C388 734 377 726 367 711 L307 620 C304 616 302 610 302 605 C302 597 310 591 321 591 L321 591 Z " />
<glyph glyph-name="Scommaaccent" unicode="&#x218;" horiz-adv-x="640" d="M320 -155 C321 -186 306 -202 267 -212 C255 -215 250 -221 250 -229 C250 -236 257 -243 269 -243 C288 -243 322 -232 341 -213 C363 -193 373 -167 373 -123 L373 -118 C373 -86 353 -66 326 -66 C299 -66 280 -85 280 -109 L280 -114 C280 -138 298 -151 320 -155 L320 -155 Z M339 -10 C478 -10 578 68 578 188 L578 190 C578 297 506 354 350 388 C196 421 160 458 160 524 L160 526 C160 589 218 639 309 639 C374 639 431 621 490 578 C497 573 504 571 513 571 C534 571 551 588 551 609 C551 624 542 635 534 641 C470 687 403 710 311 710 C178 710 81 629 81 519 L81 517 C81 402 155 350 316 315 C463 284 498 247 498 182 L498 180 C498 111 436 61 342 61 C253 61 187 88 121 144 C116 149 107 153 97 153 C76 153 59 136 59 114 C59 101 65 90 74 84 C152 22 237 -10 339 -10 L339 -10 Z " />
<glyph glyph-name="scommaaccent" unicode="&#x219;" horiz-adv-x="498" d="M245 -154 C246 -185 231 -201 192 -211 C180 -214 175 -220 175 -228 C175 -235 182 -242 194 -242 C213 -242 247 -231 266 -212 C288 -192 298 -166 298 -122 L298 -117 C298 -85 278 -65 251 -65 C224 -65 205 -84 205 -108 L205 -113 C205 -137 223 -150 245 -154 L245 -154 Z M257 -10 C360 -10 441 47 441 145 L441 147 C441 240 355 271 275 295 C206 316 142 335 142 384 L142 386 C142 429 181 461 242 461 C286 461 333 446 377 421 C381 419 387 417 394 417 C413 417 428 432 428 450 C428 465 419 476 409 482 C359 509 299 526 244 526 C142 526 68 467 68 378 L68 376 C68 281 158 253 239 230 C307 211 368 191 368 139 L368 137 C368 87 323 55 261 55 C205 55 150 74 97 110 C92 114 85 116 78 116 C59 116 44 101 44 83 C44 70 51 60 58 55 C114 15 189 -10 257 -10 L257 -10 Z " />
<glyph glyph-name="schwa" unicode="&#x259;" horiz-adv-x="592" d="M459 230 C449 129 381 54 291 54 C188 54 134 136 126 230 L459 230 Z M84 451 C76 444 72 435 72 426 C72 408 87 393 106 393 C115 393 122 397 128 402 C166 437 213 462 277 462 C369 462 448 399 459 287 L85 287 C66 287 49 272 49 251 C49 114 136 -11 289 -11 C432 -11 537 109 537 258 L537 260 C537 420 421 529 279 529 C191 529 133 498 84 451 L84 451 Z " />
<glyph glyph-name="circumflex" unicode="&#x2c6;" horiz-adv-x="500" d="M249 662 L308 610 C325 594 338 591 357 591 C368 591 376 597 376 605 C376 610 373 615 369 622 L299 708 C288 721 278 730 259 730 L241 730 C222 730 212 721 201 708 L131 622 C127 615 124 610 124 605 C124 597 131 591 142 591 C161 591 173 594 190 610 L249 662 Z " />
<glyph glyph-name="caron" unicode="&#x2c7;" horiz-adv-x="500" d="M251 659 L192 712 C175 727 162 730 143 730 C132 730 124 724 124 716 C124 711 127 706 131 700 L201 614 C212 600 222 591 241 591 L259 591 C278 591 288 600 299 614 L369 700 C373 706 376 711 376 716 C376 724 369 730 358 730 C339 730 327 727 310 712 L251 659 Z " />
<glyph glyph-name="breve" unicode="&#x2d8;" horiz-adv-x="500" d="M250 593 C310 593 356 618 382 666 C388 676 392 691 392 701 C392 718 381 731 364 731 C349 731 342 723 336 712 C323 680 297 657 250 657 C203 657 177 680 164 712 C158 723 151 731 136 731 C119 731 108 718 108 701 C108 691 112 676 118 666 C144 618 190 593 250 593 L250 593 Z " />
<glyph glyph-name="dotaccent" unicode="&#x2d9;" horiz-adv-x="500" d="M298 650 C298 677 277 695 250 695 C223 695 202 677 202 650 L202 636 C202 609 223 590 250 590 C277 590 298 609 298 636 L298 650 Z " />
<glyph glyph-name="ring" unicode="&#x2da;" horiz-adv-x="500" d="M250 593 C305 593 354 638 354 692 L354 694 C354 748 305 793 250 793 C195 793 146 748 146 694 L146 692 C146 638 195 593 250 593 L250 593 Z M250 631 C217 631 188 659 188 692 L188 694 C188 727 216 755 250 755 C284 755 312 727 312 694 L312 692 C312 659 283 631 250 631 L250 631 Z " />
<glyph glyph-name="ogonek" unicode="&#x2db;" horiz-adv-x="500" d="M190 -84 C190 -150 271 -164 307 -164 C325 -164 335 -155 335 -141 C335 -129 327 -121 306 -117 C275 -111 256 -99 256 -73 C256 -47 272 -27 308 3 L255 16 C214 -19 190 -47 190 -84 L190 -84 Z " />
<glyph glyph-name="tilde" unicode="&#x2dc;" horiz-adv-x="500" d="M139 600 C151 625 162 635 185 635 C219 635 274 595 319 595 C362 595 387 618 407 676 C408 681 410 688 410 692 C410 705 398 716 384 716 C373 716 365 707 361 699 C349 674 338 664 315 664 C281 664 226 704 181 704 C138 704 113 681 93 623 C92 619 90 611 90 607 C90 594 102 583 116 583 C128 583 135 592 139 600 L139 600 Z " />
<glyph glyph-name="hungarumlaut" unicode="&#x2dd;" horiz-adv-x="500" d="M278 591 C296 591 307 594 324 610 L398 683 C405 690 410 697 410 705 C410 719 382 734 359 734 C344 734 334 726 325 712 L264 620 C261 616 258 610 258 605 C258 597 266 591 278 591 L278 591 Z M114 591 C132 591 143 594 160 610 L234 683 C241 690 246 697 246 705 C246 719 218 734 195 734 C180 734 170 726 161 712 L100 620 C97 616 94 610 94 605 C94 597 103 591 114 591 L114 591 Z " />
<glyph glyph-name="commaaccent" unicode="&#x326;" horiz-adv-x="500" d="M244 -154 C245 -185 230 -201 191 -211 C179 -214 174 -220 174 -228 C174 -235 181 -242 193 -242 C212 -242 246 -231 265 -212 C287 -192 297 -166 297 -122 L297 -117 C297 -85 277 -65 250 -65 C223 -65 204 -84 204 -108 L204 -113 C204 -137 222 -150 244 -154 L244 -154 Z " />
<glyph glyph-name="Wgrave" unicode="&#x1e80;" horiz-adv-x="1101" d="M281 25 C288 4 302 -9 322 -9 L328 -9 C348 -9 362 5 369 25 L550 563 L732 25 C739 5 753 -9 773 -9 L779 -9 C799 -9 813 5 820 25 L1044 647 C1046 653 1049 660 1049 666 C1049 686 1030 705 1009 705 C990 705 977 692 971 674 L777 116 L594 674 C588 692 575 705 555 705 L550 705 C529 705 517 692 511 674 L328 116 L135 672 C129 690 114 705 94 705 C72 705 53 686 53 665 C53 659 55 653 57 647 L281 25 Z M552 758 C563 758 571 764 571 772 C571 777 569 783 566 787 L506 878 C496 893 485 901 470 901 C446 901 416 885 416 871 C416 863 422 856 430 848 L505 777 C521 761 533 758 552 758 L552 758 Z " />
<glyph glyph-name="wgrave" unicode="&#x1e81;" horiz-adv-x="858" d="M255 -8 L257 -8 C277 -8 292 4 299 27 L429 404 L558 27 C565 4 580 -8 600 -8 L603 -8 C621 -8 637 4 645 27 L803 465 C805 471 808 479 808 486 C808 505 792 522 770 522 C749 522 738 508 733 492 L601 102 L471 491 C465 509 452 522 431 522 L427 522 C407 522 395 509 389 491 L258 102 L128 490 C122 509 109 522 89 522 C66 522 50 504 50 485 C50 478 53 470 55 464 L212 27 C220 4 236 -8 255 -8 L255 -8 Z M430 591 C441 591 449 597 449 605 C449 610 447 616 444 620 L384 711 C374 726 363 734 348 734 C324 734 294 718 294 704 C294 696 300 689 308 681 L383 610 C399 594 411 591 430 591 L430 591 Z " />
<glyph glyph-name="Wacute" unicode="&#x1e82;" horiz-adv-x="1101" d="M548 758 C567 758 579 761 595 777 L670 848 C678 856 684 863 684 871 C684 885 654 901 630 901 C615 901 604 893 594 878 L534 787 C531 783 529 777 529 772 C529 764 537 758 548 758 L548 758 Z M281 25 C288 4 302 -9 322 -9 L328 -9 C348 -9 362 5 369 25 L550 563 L732 25 C739 5 753 -9 773 -9 L779 -9 C799 -9 813 5 820 25 L1044 647 C1046 653 1049 660 1049 666 C1049 686 1030 705 1009 705 C990 705 977 692 971 674 L777 116 L594 674 C588 692 575 705 555 705 L550 705 C529 705 517 692 511 674 L328 116 L135 672 C129 690 114 705 94 705 C72 705 53 686 53 665 C53 659 55 653 57 647 L281 25 Z " />
<glyph glyph-name="wacute" unicode="&#x1e83;" horiz-adv-x="858" d="M426 591 C445 591 457 594 473 610 L548 681 C556 689 562 696 562 704 C562 718 532 734 508 734 C493 734 482 726 472 711 L412 620 C409 616 407 610 407 605 C407 597 415 591 426 591 L426 591 Z M255 -8 L257 -8 C277 -8 292 4 299 27 L429 404 L558 27 C565 4 580 -8 600 -8 L603 -8 C621 -8 637 4 645 27 L803 465 C805 471 808 479 808 486 C808 505 792 522 770 522 C749 522 738 508 733 492 L601 102 L471 491 C465 509 452 522 431 522 L427 522 C407 522 395 509 389 491 L258 102 L128 490 C122 509 109 522 89 522 C66 522 50 504 50 485 C50 478 53 470 55 464 L212 27 C220 4 236 -8 255 -8 L255 -8 Z " />
<glyph glyph-name="Wdieresis" unicode="&#x1e84;" horiz-adv-x="1101" d="M639 862 C613 862 592 843 592 817 L592 802 C592 776 613 757 639 757 C665 757 686 776 686 802 L686 817 C686 843 665 862 639 862 L639 862 Z M461 862 C435 862 414 843 414 817 L414 802 C414 776 435 757 461 757 C487 757 508 776 508 802 L508 817 C508 843 487 862 461 862 L461 862 Z M281 25 C288 4 302 -9 322 -9 L328 -9 C348 -9 362 5 369 25 L550 563 L732 25 C739 5 753 -9 773 -9 L779 -9 C799 -9 813 5 820 25 L1044 647 C1046 653 1049 660 1049 666 C1049 686 1030 705 1009 705 C990 705 977 692 971 674 L777 116 L594 674 C588 692 575 705 555 705 L550 705 C529 705 517 692 511 674 L328 116 L135 672 C129 690 114 705 94 705 C72 705 53 686 53 665 C53 659 55 653 57 647 L281 25 Z " />
<glyph glyph-name="wdieresis" unicode="&#x1e85;" horiz-adv-x="858" d="M517 695 C491 695 470 676 470 650 L470 635 C470 609 491 590 517 590 C543 590 564 609 564 635 L564 650 C564 676 543 695 517 695 L517 695 Z M339 695 C313 695 292 676 292 650 L292 635 C292 609 313 590 339 590 C365 590 386 609 386 635 L386 650 C386 676 365 695 339 695 L339 695 Z M255 -8 L257 -8 C277 -8 292 4 299 27 L429 404 L558 27 C565 4 580 -8 600 -8 L603 -8 C621 -8 637 4 645 27 L803 465 C805 471 808 479 808 486 C808 505 792 522 770 522 C749 522 738 508 733 492 L601 102 L471 491 C465 509 452 522 431 522 L427 522 C407 522 395 509 389 491 L258 102 L128 490 C122 509 109 522 89 522 C66 522 50 504 50 485 C50 478 53 470 55 464 L212 27 C220 4 236 -8 255 -8 L255 -8 Z " />
<glyph glyph-name="Ygrave" unicode="&#x1ef2;" horiz-adv-x="708" d="M314 35 C314 13 332 -5 354 -5 C376 -5 394 13 394 35 L394 277 L653 637 C658 645 664 656 664 666 C664 687 647 705 625 705 C608 705 598 695 588 681 L355 348 L124 681 C114 695 103 705 86 705 C64 705 45 687 45 666 C45 656 49 647 54 639 L314 275 L314 35 Z M356 758 C367 758 375 764 375 772 C375 777 373 783 370 787 L310 878 C300 893 289 901 274 901 C250 901 220 885 220 871 C220 863 226 856 234 848 L309 777 C325 761 337 758 356 758 L356 758 Z " />
<glyph glyph-name="ygrave" unicode="&#x1ef3;" horiz-adv-x="587" d="M161 -163 C239 -163 289 -124 334 -17 L536 465 C538 471 540 478 540 484 C540 505 523 522 502 522 C482 522 471 509 465 493 L305 86 L125 492 C118 509 107 522 86 522 C64 522 47 505 47 484 C47 477 49 470 52 463 L268 5 L264 -3 C236 -66 208 -95 160 -95 C134 -95 119 -91 104 -86 C98 -84 92 -82 85 -82 C68 -82 52 -96 52 -115 C52 -133 64 -143 76 -148 C102 -157 127 -163 161 -163 L161 -163 Z M298 591 C309 591 317 597 317 605 C317 610 315 616 312 620 L252 711 C242 726 231 734 216 734 C192 734 162 718 162 704 C162 696 168 689 176 681 L251 610 C267 594 279 591 298 591 L298 591 Z " />
<glyph glyph-name="enspace" unicode="&#x2002;" horiz-adv-x="500" d="" />
<glyph glyph-name="emspace" unicode="&#x2003;" horiz-adv-x="1000" d="" />
<glyph glyph-name="threeperemspace" unicode="&#x2004;" horiz-adv-x="333" d="" />
<glyph glyph-name="fourperemspace" unicode="&#x2005;" horiz-adv-x="250" d="" />
<glyph glyph-name="thinspace" unicode="&#x2009;" horiz-adv-x="133" d="" />
<glyph glyph-name="hairspace" unicode="&#x200a;" horiz-adv-x="75" d="" />
<glyph glyph-name="endash" unicode="&#x2013;" horiz-adv-x="528" d="M98 262 L430 262 C451 262 468 280 468 301 C468 321 451 339 430 339 L98 339 C77 339 60 321 60 301 C60 280 77 262 98 262 L98 262 Z " />
<glyph glyph-name="emdash" unicode="&#x2014;" horiz-adv-x="898" d="M98 262 L800 262 C821 262 838 280 838 301 C838 321 821 339 800 339 L98 339 C77 339 60 321 60 301 C60 280 77 262 98 262 L98 262 Z " />
<glyph glyph-name="quoteleft" unicode="&#x2018;" horiz-adv-x="245" d="M196 683 C196 696 187 704 174 704 C158 704 127 688 106 667 C83 644 71 608 71 547 L71 528 C71 496 90 473 119 473 C145 473 165 494 165 520 L165 535 C165 562 147 578 127 583 C124 622 142 647 182 665 C190 668 196 675 196 683 L196 683 Z " />
<glyph glyph-name="quoteright" unicode="&#x2019;" horiz-adv-x="245" d="M50 494 C50 482 58 474 71 474 C87 474 118 489 139 511 C162 534 175 570 175 631 L175 650 C175 682 155 705 126 705 C100 705 80 684 80 658 L80 642 C80 616 98 600 119 595 C121 556 104 531 63 513 C55 510 50 503 50 494 L50 494 Z " />
<glyph glyph-name="quotesinglbase" unicode="&#x201a;" horiz-adv-x="245" d="M45 -100 C45 -112 53 -120 66 -120 C82 -120 113 -105 134 -84 C157 -61 170 -24 170 36 L170 55 C170 88 150 110 121 110 C94 110 75 90 75 64 L75 48 C75 21 93 5 114 0 C116 -39 99 -64 58 -82 C50 -85 45 -92 45 -100 L45 -100 Z " />
<glyph glyph-name="quotedblleft" unicode="&#x201c;" horiz-adv-x="445" d="M396 683 C396 696 387 704 374 704 C358 704 327 688 306 667 C283 644 271 608 271 547 L271 528 C271 496 290 473 319 473 C345 473 365 494 365 520 L365 535 C365 562 347 578 327 583 C324 622 342 647 382 665 C390 668 396 675 396 683 L396 683 Z M196 683 C196 696 187 704 174 704 C158 704 127 688 106 667 C83 644 71 608 71 547 L71 528 C71 496 90 473 119 473 C145 473 165 494 165 520 L165 535 C165 562 147 578 127 583 C124 622 142 647 182 665 C190 668 196 675 196 683 L196 683 Z " />
<glyph glyph-name="quotedblright" unicode="&#x201d;" horiz-adv-x="445" d="M50 494 C50 482 58 474 71 474 C87 474 118 489 139 511 C162 534 175 570 175 631 L175 650 C175 682 155 705 126 705 C100 705 80 684 80 658 L80 642 C80 616 98 600 119 595 C121 556 104 531 63 513 C55 510 50 503 50 494 L50 494 Z M250 494 C250 482 258 474 271 474 C287 474 318 489 339 511 C362 534 375 570 375 631 L375 650 C375 682 355 705 326 705 C300 705 280 684 280 658 L280 642 C280 616 298 600 319 595 C321 556 304 531 263 513 C255 510 250 503 250 494 L250 494 Z " />
<glyph glyph-name="quotedblbase" unicode="&#x201e;" horiz-adv-x="445" d="M45 -100 C45 -112 53 -120 66 -120 C82 -120 113 -105 134 -84 C157 -61 170 -24 170 36 L170 55 C170 88 150 110 121 110 C94 110 75 90 75 64 L75 48 C75 21 93 5 114 0 C116 -39 99 -64 58 -82 C50 -85 45 -92 45 -100 L45 -100 Z M245 -100 C245 -112 253 -120 266 -120 C282 -120 313 -105 334 -84 C357 -61 370 -24 370 36 L370 55 C370 87 350 110 321 110 C295 110 275 89 275 64 L275 48 C275 21 293 5 314 0 C316 -39 299 -64 258 -82 C250 -85 245 -92 245 -100 L245 -100 Z " />
<glyph glyph-name="dagger" unicode="&#x2020;" horiz-adv-x="410" d="M178 262 C178 245 190 233 205 233 C220 233 232 245 232 262 L226 520 L326 513 C341 512 354 524 354 539 C354 554 341 567 326 566 L227 559 L234 673 C235 691 222 705 205 705 C188 705 175 691 176 673 L183 559 L84 566 C69 567 56 554 56 539 C56 524 69 512 84 513 L184 520 L178 262 Z " />
<glyph glyph-name="daggerdbl" unicode="&#x2021;" horiz-adv-x="430" d="M186 27 C185 9 198 -5 215 -5 C232 -5 245 9 244 27 L237 141 L336 134 C351 133 364 146 364 161 C364 176 351 188 336 187 L236 180 L242 350 L236 520 L336 513 C351 512 364 524 364 539 C364 554 351 567 336 566 L237 559 L244 673 C245 691 232 705 215 705 C198 705 185 691 186 673 L193 559 L94 566 C79 567 66 554 66 539 C66 524 79 512 94 513 L194 520 L188 350 L194 180 L94 187 C79 188 66 176 66 161 C66 146 79 133 94 134 L193 141 L186 27 Z " />
<glyph glyph-name="bullet" unicode="&#x2022;" horiz-adv-x="478" d="M239 221 C311 221 370 279 370 351 L370 353 C370 425 308 483 239 483 C169 483 108 425 108 353 L108 351 C108 279 167 221 239 221 L239 221 Z " />
<glyph glyph-name="ellipsis" unicode="&#x2026;" horiz-adv-x="723" d="M556 63 L556 43 C556 16 575 -5 602 -5 C629 -5 648 16 648 43 L648 63 C648 90 629 110 602 110 C575 110 556 90 556 63 L556 63 Z M315 63 L315 43 C315 16 334 -5 362 -5 C389 -5 408 16 408 43 L408 63 C408 90 389 110 362 110 C334 110 315 90 315 63 L315 63 Z M75 63 L75 43 C75 16 94 -5 121 -5 C149 -5 168 16 168 43 L168 63 C168 90 149 110 121 110 C94 110 75 90 75 63 L75 63 Z " />
<glyph glyph-name="perthousand" unicode="&#x2030;" horiz-adv-x="1211" d="M210 350 C305 350 369 434 369 529 L369 531 C369 625 306 708 212 708 C116 708 52 624 52 529 L52 527 C52 433 115 350 210 350 L210 350 Z M149 23 C149 8 162 -5 178 -5 C188 -5 197 1 203 9 L679 658 C683 664 685 669 685 677 C685 692 672 705 656 705 C646 705 637 699 631 691 L155 42 C151 36 149 31 149 23 L149 23 Z M999 -8 C1095 -8 1159 76 1159 171 L1159 173 C1159 267 1096 350 1001 350 C906 350 842 266 842 171 L842 169 C842 75 905 -8 999 -8 L999 -8 Z M622 -8 C718 -8 781 76 781 171 L781 173 C781 267 719 350 624 350 C529 350 465 266 465 171 L465 169 C465 75 528 -8 622 -8 L622 -8 Z M212 406 C160 406 119 459 119 529 L119 531 C119 597 155 652 210 652 C261 652 303 599 303 529 L303 527 C303 460 266 406 212 406 L212 406 Z M1001 48 C950 48 908 101 908 171 L908 173 C908 239 945 294 999 294 C1051 294 1092 241 1092 171 L1092 169 C1092 102 1056 48 1001 48 L1001 48 Z M624 48 C572 48 531 101 531 171 L531 173 C531 239 568 294 622 294 C674 294 715 241 715 171 L715 169 C715 102 679 48 624 48 L624 48 Z " />
<glyph glyph-name="guilsinglleft" unicode="&#x2039;" horiz-adv-x="328" d="M227 42 C245 42 260 57 260 75 C260 83 257 91 252 98 L133 260 L251 418 C256 425 260 434 260 442 C260 460 245 474 227 474 C215 474 205 468 198 458 L66 286 C58 276 54 268 54 259 C54 249 58 241 66 231 L199 58 C206 49 215 42 227 42 L227 42 Z " />
<glyph glyph-name="guilsinglright" unicode="&#x203a;" horiz-adv-x="328" d="M101 474 C82 474 68 460 68 442 C67 433 71 427 76 419 L195 257 L77 98 C72 92 68 83 68 75 C68 57 82 42 100 42 C112 42 122 49 130 59 L262 231 C270 241 274 249 274 258 C274 268 270 275 262 285 L128 459 C122 468 113 474 101 474 L101 474 Z " />
<glyph glyph-name="fraction" unicode="&#x2044;" horiz-adv-x="429" d="M-48 -71 C-48 -89 -33 -103 -15 -103 C-1 -103 9 -95 15 -83 L450 712 C453 717 455 724 455 731 C455 749 440 763 422 763 C408 763 398 755 391 743 L-43 -52 C-46 -57 -48 -64 -48 -71 L-48 -71 Z " />
<glyph glyph-name="Euro" unicode="&#x20ac;" horiz-adv-x="720" d="M663 137 C663 157 647 172 627 172 C614 172 605 166 599 158 C556 99 506 59 433 59 C333 59 258 129 228 237 L461 237 C478 237 493 251 493 268 C493 286 478 300 461 300 L216 300 C214 316 214 333 214 351 C214 370 215 389 217 408 L461 408 C478 408 493 422 493 439 C493 456 478 470 461 470 L231 470 C261 572 332 641 422 641 C501 641 548 608 594 547 C600 540 610 533 624 533 C644 533 661 550 661 570 C661 581 656 590 651 596 C599 663 533 712 425 712 C290 712 188 610 150 470 L83 470 C66 470 52 456 52 439 C52 422 66 408 83 408 L138 408 C136 389 135 369 135 349 C135 332 136 316 137 300 L83 300 C66 300 52 286 52 268 C52 251 66 237 83 237 L147 237 C182 89 288 -12 430 -12 C534 -12 602 42 655 115 C659 121 663 129 663 137 L663 137 Z " />
<glyph glyph-name="published" unicode="&#x2117;" horiz-adv-x="830" d="M414 -12 C617 -12 777 153 777 350 L777 352 C777 549 619 712 416 712 C213 712 53 547 53 350 L53 348 C53 151 211 -12 414 -12 L414 -12 Z M414 19 C227 19 86 167 86 348 L86 350 C86 531 228 681 416 681 C603 681 744 533 744 352 L744 350 C744 169 602 19 414 19 L414 19 Z M292 195 C292 180 305 167 320 167 C335 167 348 180 348 195 L348 297 L431 297 C511 297 582 338 582 421 L582 423 C582 499 525 543 438 543 L320 543 C305 543 292 531 292 515 L292 195 Z M348 347 L348 493 L433 493 C490 493 526 470 526 422 L526 420 C526 374 489 347 432 347 L348 347 Z " />
<glyph glyph-name="servicemark" unicode="&#x2120;" horiz-adv-x="707" d="M353 409 C353 397 363 387 374 387 C386 387 396 397 396 409 L396 617 L489 478 C494 470 500 465 509 465 C518 465 524 470 528 478 L621 617 L621 409 C621 397 630 387 642 387 C655 387 665 397 665 409 L665 679 C665 691 655 701 643 701 L638 701 C629 701 623 697 618 690 L509 522 L400 690 C396 697 390 701 380 701 L374 701 C362 701 353 692 353 679 L353 409 Z M35 445 C35 438 38 432 46 427 C78 402 121 387 166 387 C229 387 279 422 279 477 L279 478 C279 528 240 551 172 566 C108 580 91 595 91 621 C91 647 115 667 155 667 C185 667 212 657 234 642 C239 639 243 637 249 637 C260 637 268 646 268 657 C268 665 265 671 257 676 C230 694 196 705 157 705 C92 705 47 668 47 618 L47 617 C47 564 86 543 155 528 C217 514 235 501 235 474 L235 473 C235 445 208 425 167 425 C130 425 99 437 69 460 C65 463 60 465 54 465 C43 465 35 457 35 445 L35 445 Z " />
<glyph glyph-name="trademark" unicode="&#x2122;" horiz-adv-x="690" d="M125 409 C125 397 134 387 146 387 C159 387 169 397 169 409 L169 658 L251 658 C263 658 272 668 272 679 C272 690 263 700 251 700 L42 700 C31 700 21 690 21 679 C21 668 31 658 42 658 L125 658 L125 409 Z M336 409 C336 397 346 387 358 387 C370 387 380 397 380 409 L380 617 L472 478 C477 470 483 465 492 465 C501 465 507 470 512 478 L605 617 L605 409 C605 397 614 387 626 387 C638 387 648 397 648 409 L648 679 C648 691 638 701 627 701 L621 701 C613 701 607 697 602 690 L492 522 L384 690 C379 697 373 701 364 701 L358 701 C345 701 336 692 336 679 L336 409 Z " />
<glyph glyph-name="minus" unicode="&#x2212;" horiz-adv-x="625" d="M525 315 C545 315 562 331 562 352 C562 372 545 389 525 389 L101 389 C80 389 63 372 63 352 C63 331 80 315 101 315 L525 315 Z " />
<glyph glyph-name="f_f" unicode="&#xfb00;" horiz-adv-x="735" d="M115 34 C115 13 132 -5 154 -5 C176 -5 192 13 192 34 L192 449 L325 449 C344 449 359 464 359 482 C359 501 344 515 325 515 L191 515 L191 557 C191 631 221 667 281 667 C296 667 310 664 323 662 C343 660 360 675 360 695 C360 712 347 725 332 728 C315 732 296 734 271 734 C224 734 186 720 160 694 C131 665 115 620 115 561 L115 516 L73 516 C55 516 40 501 40 483 C40 464 54 449 73 449 L115 449 L115 34 Z M482 34 C482 13 499 -5 521 -5 C543 -5 559 13 559 34 L559 449 L692 449 C711 449 726 464 726 482 C726 501 711 515 692 515 L558 515 L558 557 C558 631 588 667 648 667 C663 667 677 664 690 662 C710 660 727 675 727 695 C727 712 714 725 699 728 C682 732 663 734 638 734 C591 734 553 720 527 694 C498 665 482 620 482 561 L482 516 L440 516 C422 516 407 501 407 483 C407 464 421 449 440 449 L482 449 L482 34 Z " />
<glyph glyph-name="fi" unicode="&#xfb01;" horiz-adv-x="631" d="M453 666 C453 642 473 625 498 625 C524 625 544 642 544 666 L544 679 C544 704 524 720 498 720 C473 720 453 704 453 679 L453 666 Z M460 34 C460 12 477 -5 499 -5 C521 -5 537 12 537 34 L537 483 C537 505 520 522 498 522 C477 522 460 504 460 483 L460 34 Z M115 34 C115 13 132 -5 154 -5 C176 -5 192 13 192 34 L192 449 L325 449 C344 449 359 464 359 482 C359 501 344 515 325 515 L191 515 L191 557 C191 631 221 667 281 667 C296 667 310 664 323 662 C343 660 360 675 360 695 C360 712 347 725 332 728 C315 732 296 734 271 734 C224 734 186 720 160 694 C131 665 115 620 115 561 L115 516 L73 516 C55 516 40 501 40 483 C40 464 54 449 73 449 L115 449 L115 34 Z " />
<glyph glyph-name="fl" unicode="&#xfb02;" horiz-adv-x="631" d="M460 34 C460 12 477 -5 499 -5 C521 -5 537 12 537 34 L537 696 C537 717 520 735 498 735 C477 735 460 717 460 696 L460 34 Z M115 34 C115 13 132 -5 154 -5 C176 -5 192 13 192 34 L192 449 L325 449 C344 449 359 464 359 482 C359 501 344 515 325 515 L191 515 L191 557 C191 631 221 667 281 667 C296 667 310 664 323 662 C343 660 360 675 360 695 C360 712 347 725 332 728 C315 732 296 734 271 734 C224 734 186 720 160 694 C131 665 115 620 115 561 L115 516 L73 516 C55 516 40 501 40 483 C40 464 54 449 73 449 L115 449 L115 34 Z " />
<glyph glyph-name="f_f_i" unicode="&#xfb03;" horiz-adv-x="998" d="M820 666 C820 642 840 625 865 625 C891 625 911 642 911 666 L911 679 C911 704 891 720 865 720 C840 720 820 704 820 679 L820 666 Z M827 34 C827 12 844 -5 866 -5 C888 -5 904 12 904 34 L904 483 C904 505 887 522 865 522 C844 522 827 504 827 483 L827 34 Z M115 34 C115 13 132 -5 154 -5 C176 -5 192 13 192 34 L192 449 L325 449 C344 449 359 464 359 482 C359 501 344 515 325 515 L191 515 L191 557 C191 631 221 667 281 667 C296 667 310 664 323 662 C343 660 360 675 360 695 C360 712 347 725 332 728 C315 732 296 734 271 734 C224 734 186 720 160 694 C131 665 115 620 115 561 L115 516 L73 516 C55 516 40 501 40 483 C40 464 54 449 73 449 L115 449 L115 34 Z M482 34 C482 13 499 -5 521 -5 C543 -5 559 13 559 34 L559 449 L692 449 C711 449 726 464 726 482 C726 501 711 515 692 515 L558 515 L558 557 C558 631 588 667 648 667 C663 667 677 664 690 662 C710 660 727 675 727 695 C727 712 714 725 699 728 C682 732 663 734 638 734 C591 734 553 720 527 694 C498 665 482 620 482 561 L482 516 L440 516 C422 516 407 501 407 483 C407 464 421 449 440 449 L482 449 L482 34 Z " />
<glyph glyph-name="f_f_l" unicode="&#xfb04;" horiz-adv-x="997" d="M115 34 C115 13 132 -5 154 -5 C176 -5 192 13 192 34 L192 449 L325 449 C344 449 359 464 359 482 C359 501 344 515 325 515 L191 515 L191 557 C191 631 221 667 281 667 C296 667 310 664 323 662 C343 660 360 675 360 695 C360 712 347 725 332 728 C315 732 296 734 271 734 C224 734 186 720 160 694 C131 665 115 620 115 561 L115 516 L73 516 C55 516 40 501 40 483 C40 464 54 449 73 449 L115 449 L115 34 Z M482 34 C482 13 499 -5 521 -5 C543 -5 559 13 559 34 L559 449 L692 449 C711 449 726 464 726 482 C726 501 711 515 692 515 L558 515 L558 557 C558 631 588 667 648 667 C663 667 677 664 690 662 C710 660 727 675 727 695 C727 712 714 725 699 728 C682 732 663 734 638 734 C591 734 553 720 527 694 C498 665 482 620 482 561 L482 516 L440 516 C422 516 407 501 407 483 C407 464 421 449 440 449 L482 449 L482 34 Z M827 34 C827 12 844 -5 866 -5 C888 -5 904 12 904 34 L904 696 C904 717 887 735 865 735 C844 735 827 717 827 696 L827 34 Z " />
</font>
</svg>
