<?xml version="1.0" encoding="UTF-8"?>
<svg xmlns="http://www.w3.org/2000/svg" xmlns:xlink="http://www.w3.org/1999/xlink" version="1.2" >
<font id="Selfie">
<font-face  font-family="Selfie" units-per-em="1000" ascent="723" descent="-277" font-style="normal" font-weight="400" font-stretch="normal" cap-height="532" x-height="166" underline-position="-75" underline-thickness="50" />
<missing-glyph  horiz-adv-x="500" d="" />
<glyph glyph-name="space" unicode="&#x20;" horiz-adv-x="149" d="" />
<glyph glyph-name="exclam" unicode="&#x21;" horiz-adv-x="211" d="M107 36 C111 56 97 72 77 72 C58 72 38 56 37 36 C33 17 45 1 65 1 C85 1 103 17 107 36 L107 36 Z M330 572 C335 583 332 590 323 593 C314 596 307 593 302 584 L105 144 C100 133 102 125 112 122 C122 119 130 123 135 135 L330 572 Z " />
<glyph glyph-name="quotedbl" unicode="&#x22;" horiz-adv-x="257" d="M253 570 C259 581 257 589 248 594 C239 598 231 594 226 582 L169 463 C159 438 185 428 196 451 L253 570 Z M329 570 C335 581 333 589 324 594 C315 598 307 594 302 582 L245 463 C235 438 261 428 272 451 L329 570 Z " />
<glyph glyph-name="numbersign" unicode="&#x23;" horiz-adv-x="590" d="M256 354 L195 219 L76 219 C66 219 61 214 61 205 C61 196 66 191 76 191 L183 191 L134 82 C129 71 131 63 141 60 C151 57 159 61 164 73 L216 191 L350 191 L301 82 C296 71 298 63 308 60 C318 57 326 61 331 73 L383 191 L512 191 C534 191 534 219 512 219 L396 219 L456 354 L584 354 C606 354 606 382 584 382 L469 382 L526 510 C536 530 507 541 498 522 L435 382 L302 382 L359 510 C364 521 361 528 352 531 C343 534 336 531 331 522 L268 382 L148 382 C138 382 133 377 133 368 C133 359 138 354 148 354 L256 354 Z M423 354 L362 219 L229 219 L289 354 L423 354 Z " />
<glyph glyph-name="dollar" unicode="&#x24;" horiz-adv-x="518" d="M508 572 C512 593 486 603 480 584 L472 566 C464 567 458 568 454 568 C428 568 404 558 382 539 C360 520 349 494 349 462 C349 433 360 402 383 367 L359 312 C343 367 292 403 220 403 C169 403 127 386 95 352 C64 318 48 277 48 230 C48 177 66 133 101 96 C137 60 181 38 234 31 L231 23 C225 2 253 -10 259 14 L265 29 L268 29 C323 29 371 47 413 83 C455 119 476 167 476 228 C476 261 457 304 445 321 C440 330 430 345 416 365 L491 534 C512 523 522 508 522 489 C522 469 507 447 482 446 C475 446 472 442 472 435 C472 426 476 421 484 421 C524 422 548 456 548 491 C545 520 530 542 501 556 L508 572 Z M74 228 C74 312 131 377 220 377 C295 377 338 333 338 273 C338 268 338 265 337 263 L245 56 C199 61 159 79 125 111 C91 143 74 182 74 228 L74 228 Z M448 228 C448 178 431 137 397 106 C363 75 323 58 277 55 L403 338 C433 293 448 257 448 228 L448 228 Z M376 460 C376 511 416 543 457 543 L462 543 L396 396 C383 418 376 439 376 460 L376 460 Z " />
<glyph glyph-name="percent" unicode="&#x25;" horiz-adv-x="506" d="M531 532 C541 552 519 567 506 549 L57 62 C50 53 51 46 59 41 C68 34 77 37 85 48 L531 532 Z M157 359 C188 328 236 328 267 359 C298 390 298 438 267 469 C236 500 188 500 157 469 C126 438 126 390 157 359 L157 359 Z M178 448 C197 467 227 467 246 448 C265 429 265 399 246 380 C227 361 197 361 178 380 C159 399 159 429 178 448 L178 448 Z M349 152 C380 121 428 121 459 152 C490 183 490 231 459 262 C428 293 380 293 349 262 C318 231 318 183 349 152 L349 152 Z M370 241 C389 260 419 260 438 241 C457 222 457 192 438 173 C419 154 389 154 370 173 C351 192 351 222 370 241 L370 241 Z " />
<glyph glyph-name="ampersand" unicode="&#x26;" horiz-adv-x="792" d="M363 529 C354 518 349 502 349 483 C349 420 395 379 466 379 C503 379 534 392 557 417 C580 443 592 473 592 508 C592 551 572 589 532 624 C492 659 442 677 382 677 C317 677 263 659 218 622 C173 585 151 541 151 488 C151 435 184 378 243 353 C195 336 155 307 122 266 C90 225 74 182 74 137 C74 76 98 21 147 -26 C196 -74 267 -98 358 -99 C497 -100 597 -14 631 66 C658 121 658 168 629 220 C664 202 695 193 723 193 C756 193 784 204 805 226 C826 249 837 273 837 300 C837 329 825 350 802 365 C781 373 766 350 786 339 C800 330 807 317 807 300 C807 261 772 223 723 223 C691 223 656 237 611 260 C589 271 571 279 558 284 C539 292 520 296 499 297 L493 297 C450 297 406 272 382 233 C368 206 390 196 405 213 C421 246 458 267 493 267 L499 267 C515 266 528 263 539 260 C574 249 599 225 607 198 C616 173 619 157 619 144 C619 101 594 49 551 5 C508 -38 437 -70 358 -70 C277 -69 214 -48 169 -7 C124 34 102 82 102 137 C102 188 123 234 165 274 C208 315 257 336 313 338 L322 338 C333 338 338 343 338 353 C338 362 333 367 322 367 L315 367 C272 368 238 381 215 405 C192 430 180 457 180 487 C180 533 199 572 238 603 C277 634 325 650 382 650 C435 650 479 635 513 605 C548 576 565 543 565 507 C565 452 525 407 466 407 C417 408 376 438 376 482 C376 491 380 502 387 513 C392 519 392 525 386 530 C379 537 371 536 363 529 L363 529 Z " />
<glyph glyph-name="quotesingle" unicode="&#x27;" horiz-adv-x="184" d="M253 570 C259 581 257 589 248 594 C239 598 231 594 226 582 L169 463 C159 438 185 428 196 451 L253 570 Z " />
<glyph glyph-name="parenleft" unicode="&#x28;" horiz-adv-x="336" d="M190 -133 C168 -96 157 -48 157 12 C157 120 196 245 259 352 C291 405 331 452 379 491 C428 531 479 557 534 569 C560 573 553 603 528 599 C470 586 415 559 363 516 C312 474 269 425 235 369 C168 257 127 125 127 12 C127 -53 139 -106 164 -149 C182 -172 201 -150 190 -133 L190 -133 Z " />
<glyph glyph-name="parenright" unicode="&#x29;" horiz-adv-x="336" d="M257 570 C279 533 290 485 290 425 C290 317 251 192 187 85 C156 32 116 -15 67 -54 C19 -94 -32 -120 -87 -132 C-113 -136 -107 -166 -81 -162 C-23 -149 32 -122 83 -79 C135 -37 178 12 211 68 C279 180 320 312 320 425 C320 490 308 543 283 586 C265 609 246 587 257 570 L257 570 Z " />
<glyph glyph-name="asterisk" unicode="&#x2a;" horiz-adv-x="460" d="M456 446 C458 446 460 446 463 447 C472 450 477 455 478 464 C479 473 474 477 462 477 L335 477 L441 573 C453 584 456 592 449 599 C443 606 434 604 422 593 L297 480 L237 588 C224 610 199 595 212 573 L264 477 L141 478 C129 476 121 470 117 461 C116 451 123 446 136 446 L260 446 L150 346 C138 337 134 327 139 318 C144 310 154 313 167 326 L288 435 L348 326 C363 298 387 323 375 341 L316 446 L456 446 L456 446 Z " />
<glyph glyph-name="plus" unicode="&#x2b;" horiz-adv-x="371" d="M193 238 L84 238 C74 238 69 233 69 224 C69 215 74 210 84 210 L181 210 L139 115 C135 105 137 98 145 94 C154 91 160 94 165 104 L211 210 L322 210 C344 210 344 238 322 238 L223 238 L260 322 C268 340 243 351 235 333 L193 238 Z " />
<glyph glyph-name="comma" unicode="&#x2c;" horiz-adv-x="155" d="M79 72 C60 72 40 56 39 36 C36 19 50 4 67 0 C48 -27 27 -46 4 -55 C-12 -60 -4 -84 16 -73 C53 -51 82 -22 102 15 C118 43 107 72 79 72 L79 72 Z " />
<glyph glyph-name="hyphen" unicode="&#x2d;" horiz-adv-x="327" d="M263 210 C285 210 285 238 263 238 L84 238 C74 238 69 233 69 224 C69 215 74 210 84 210 L263 210 Z " />
<glyph glyph-name="period" unicode="&#x2e;" horiz-adv-x="166" d="M63 0 C86 0 105 29 90 46 C76 64 43 51 41 27 C38 12 47 0 63 0 L63 0 Z " />
<glyph glyph-name="slash" unicode="&#x2f;" horiz-adv-x="362" d="M446 572 C451 583 448 590 439 593 C430 596 423 593 418 584 L67 23 C62 12 64 4 74 1 C84 -2 92 2 97 14 L446 572 L446 572 Z " />
<glyph glyph-name="zero" unicode="0" horiz-adv-x="564" d="M87 305 C75 268 70 227 71 184 C73 121 92 69 127 29 C162 -10 209 -30 266 -30 C325 -30 384 -8 441 36 C499 80 545 136 580 204 C615 273 631 340 629 407 C627 472 608 524 573 563 C538 603 492 623 434 623 C363 623 294 592 226 530 C159 469 112 394 87 305 L87 305 Z M115 295 C139 378 182 448 244 506 C307 564 370 593 435 593 C484 593 523 576 552 541 C582 507 598 462 599 407 C601 349 587 288 556 225 C526 162 484 109 431 65 C378 22 322 0 265 0 C168 0 104 75 101 184 C100 223 104 260 115 295 L115 295 Z " />
<glyph glyph-name="one" unicode="1" horiz-adv-x="255" d="M196 401 C167 383 143 373 123 371 C122 371 120 371 119 370 C106 367 102 361 105 351 C108 342 115 338 127 341 C138 342 154 347 175 356 L20 20 C12 -2 34 -14 47 8 L220 382 C261 411 298 447 330 491 C362 531 378 564 378 590 C378 611 365 627 348 627 C318 627 288 596 257 533 L196 401 Z M284 520 C310 573 330 600 343 600 C348 600 350 597 350 591 C350 567 336 539 309 506 C292 483 271 461 247 439 L284 520 Z " />
<glyph glyph-name="two" unicode="2" horiz-adv-x="535" d="M464 -7 C475 -7 481 -2 481 9 C481 17 475 26 464 26 L162 26 L163 27 L179 34 C306 87 405 153 477 230 C550 307 587 378 590 441 C591 496 575 542 541 578 C507 614 460 632 400 632 C331 632 275 610 230 566 C186 523 163 475 161 422 C160 381 171 341 195 304 C203 293 216 294 221 302 C228 310 228 318 221 326 C200 352 191 384 192 422 C193 467 214 508 253 545 C292 582 341 601 399 601 C450 601 489 585 518 554 C547 523 560 486 558 441 C555 386 523 327 462 262 C401 198 328 144 243 99 C158 54 81 30 12 26 L-3 26 C-27 26 -27 -7 -3 -7 L464 -7 Z " />
<glyph glyph-name="three" unicode="3" horiz-adv-x="519" d="M209 150 C251 150 290 156 325 168 C344 142 354 113 354 81 C354 33 336 -15 299 -64 C262 -113 214 -153 154 -184 C95 -215 34 -231 -27 -231 C-60 -231 -96 -226 -136 -216 C-137 -215 -139 -215 -142 -215 C-151 -215 -160 -225 -160 -234 C-160 -245 -145 -252 -114 -256 C-84 -261 -56 -263 -29 -263 C41 -263 108 -245 173 -210 C238 -175 290 -130 328 -77 C367 -24 386 29 386 81 C386 117 376 150 355 179 C416 206 465 245 501 296 C538 348 556 399 556 449 C556 494 539 534 505 571 C471 608 424 626 364 626 C300 626 246 606 203 566 C160 526 139 480 139 429 C139 390 152 357 177 329 C203 301 236 287 276 287 C316 287 351 300 381 327 C411 354 426 382 426 413 C426 434 421 454 410 471 C398 490 375 479 382 466 C391 450 396 434 396 418 C396 389 384 364 359 345 C335 326 308 317 277 317 C210 317 168 370 168 430 C168 472 186 510 223 544 C260 579 307 596 364 596 C417 596 457 580 484 549 C511 518 525 484 525 449 C525 402 508 354 473 307 C438 260 392 226 334 203 C300 236 260 252 214 252 C167 252 133 226 133 197 C133 172 164 150 209 150 L209 150 Z M209 181 C181 181 163 192 163 201 C164 215 180 222 209 222 C244 222 274 212 300 193 C272 185 242 181 209 181 L209 181 Z " />
<glyph glyph-name="four" unicode="4" horiz-adv-x="491" d="M75 69 C150 138 216 222 272 319 C329 417 357 513 357 608 C357 631 355 650 351 666 C349 679 342 685 331 685 C319 685 312 671 317 659 C322 644 325 624 325 601 C325 521 301 438 252 351 C203 265 144 186 75 114 C46 85 20 60 -5 40 C-34 18 -29 -7 -1 -7 L252 -7 L170 -184 C163 -199 172 -211 183 -211 C189 -211 194 -207 198 -199 L285 -7 L384 -7 C409 -7 410 26 387 26 L303 26 L546 553 C551 570 548 578 535 578 C526 578 519 573 516 564 L269 26 L23 26 C29 28 46 42 75 69 L75 69 Z " />
<glyph glyph-name="five" unicode="5" horiz-adv-x="487" d="M152 320 C163 333 192 339 238 339 C284 339 321 324 349 293 C377 263 391 224 391 177 C391 112 369 47 324 -18 C280 -83 223 -137 153 -178 C84 -219 14 -240 -56 -240 C-89 -240 -125 -235 -164 -225 C-165 -224 -167 -224 -170 -224 C-179 -224 -189 -234 -189 -243 C-190 -254 -175 -261 -144 -265 C-114 -270 -86 -272 -59 -272 C20 -272 97 -249 172 -203 C247 -158 308 -100 354 -30 C400 40 423 109 423 178 C423 234 405 280 370 316 C335 353 293 371 244 371 C221 371 199 368 180 362 C220 429 251 498 274 571 C287 561 308 556 335 556 C346 556 365 560 392 567 C419 575 436 579 445 579 C467 579 480 574 483 563 C489 540 517 554 511 573 C504 597 482 609 446 609 C434 609 415 605 388 597 C362 590 345 586 336 586 C305 586 288 594 285 610 C284 617 279 621 270 622 C261 623 255 619 254 612 C247 579 231 534 205 477 C180 420 155 374 131 339 C122 326 136 309 151 318 L152 320 Z " />
<glyph glyph-name="six" unicode="6" horiz-adv-x="535" d="M181 212 C174 221 171 232 171 243 C171 280 189 312 224 340 C259 369 299 383 344 383 C428 383 484 323 484 243 C484 188 459 136 409 87 C360 38 300 14 229 14 C177 14 136 30 105 62 C75 95 60 135 60 184 C60 454 425 641 657 659 C670 659 676 664 676 674 C676 682 668 689 657 689 C527 683 326 605 187 488 C94 411 28 299 28 186 C28 127 46 78 81 40 C117 2 167 -17 230 -17 C312 -17 380 11 434 67 C489 124 516 186 516 253 C516 298 499 337 466 368 C433 399 393 415 344 415 C288 415 240 396 200 359 C160 322 140 283 140 243 C140 220 145 202 154 190 C168 174 192 194 181 212 L181 212 Z " />
<glyph glyph-name="seven" unicode="7" horiz-adv-x="461" d="M552 610 C546 594 527 586 496 586 C478 586 452 591 418 600 C384 610 356 615 335 615 C278 615 243 601 230 573 C225 564 226 558 233 553 C242 548 249 551 256 563 C262 578 286 585 329 585 C348 585 373 580 406 571 C439 562 464 557 483 556 C390 487 305 401 226 297 C148 193 104 98 94 12 C92 -13 122 -13 124 8 C139 104 190 205 276 312 C363 419 451 503 540 564 C559 571 573 584 581 602 C583 609 580 614 572 618 C561 621 555 619 552 610 L552 610 Z " />
<glyph glyph-name="eight" unicode="8" horiz-adv-x="550" d="M478 699 C437 699 401 685 369 658 C338 631 322 598 322 559 C322 523 336 487 363 452 C338 443 321 437 312 434 C303 431 287 425 264 416 C241 407 224 400 213 395 C203 390 188 382 169 371 C150 361 136 352 127 343 C108 326 77 297 65 269 C53 242 42 207 42 168 C42 113 61 69 98 34 C135 0 184 -17 245 -17 C354 -17 447 40 496 124 C519 160 531 197 531 234 C531 261 527 284 515 307 C507 324 506 330 493 349 C486 358 482 364 480 367 C478 370 473 377 464 387 C456 397 451 403 449 404 C448 406 442 412 433 422 C424 433 419 438 418 439 C534 480 597 521 597 594 C597 653 547 699 478 699 L478 699 Z M465 136 C420 65 337 14 244 14 C194 14 153 28 121 57 C90 86 74 123 74 168 C75 241 114 301 191 347 C226 367 290 393 384 426 C384 425 393 415 412 394 C431 374 443 361 446 356 C450 351 457 340 468 323 C491 291 495 266 495 234 C495 197 485 164 465 136 L465 136 Z M566 594 C566 534 509 500 397 463 C367 499 352 531 352 559 C352 590 365 616 390 637 C415 658 445 669 478 669 C530 669 566 637 566 594 L566 594 Z " />
<glyph glyph-name="nine" unicode="9" horiz-adv-x="544" d="M459 401 C466 392 469 381 469 370 C469 333 451 301 416 272 C381 244 341 230 296 230 C212 230 156 290 156 370 C156 425 181 477 230 526 C280 575 340 599 411 599 C463 599 504 583 534 550 C565 518 580 478 580 429 C580 159 215 -28 -17 -46 C-30 -46 -36 -51 -36 -61 C-36 -69 -28 -76 -17 -76 C113 -71 314 8 453 125 C546 202 612 314 612 427 C612 486 594 535 558 573 C523 611 473 630 410 630 C328 630 260 602 205 545 C151 489 124 427 124 360 C124 315 140 276 173 245 C206 214 247 198 296 198 C352 198 400 217 440 254 C480 291 500 330 500 370 C500 394 495 412 486 423 C472 439 448 419 459 401 L459 401 Z " />
<glyph glyph-name="colon" unicode="&#x3a;" horiz-adv-x="211" d="M220 338 C224 358 210 374 190 374 C171 374 151 358 150 338 C146 319 158 303 178 303 C198 303 216 319 220 338 L220 338 Z M107 36 C111 56 97 72 77 72 C58 72 38 56 37 36 C33 17 45 1 65 1 C85 1 103 17 107 36 L107 36 Z " />
<glyph glyph-name="semicolon" unicode="&#x3b;" horiz-adv-x="211" d="M79 72 C60 72 40 56 39 36 C36 19 50 4 67 0 C48 -27 27 -46 4 -55 C-12 -60 -4 -84 16 -73 C53 -51 82 -22 102 15 C118 43 107 72 79 72 L79 72 Z M221 338 C225 358 211 374 191 374 C172 374 152 358 151 338 C147 319 159 303 179 303 C199 303 217 319 221 338 L221 338 Z " />
<glyph glyph-name="less" unicode="&#x3c;" horiz-adv-x="282" d="M92 228 C80 221 77 212 83 201 L154 71 C166 57 191 67 180 87 L114 207 L258 288 C280 301 270 329 243 316 L92 228 L92 228 Z " />
<glyph glyph-name="equal" unicode="&#x3d;" horiz-adv-x="361" d="M310 210 C332 210 332 238 310 238 L131 238 C121 238 116 233 116 224 C116 215 121 210 131 210 L310 210 Z M273 129 C295 129 295 157 273 157 L94 157 C84 157 79 152 79 143 C79 134 84 129 94 129 L273 129 Z " />
<glyph glyph-name="greater" unicode="&#x3e;" horiz-adv-x="323" d="M249 158 C261 165 264 174 258 185 L187 315 C175 329 150 319 161 299 L227 179 L83 98 C61 85 71 57 98 70 L249 158 L249 158 Z " />
<glyph glyph-name="question" unicode="&#x3f;" horiz-adv-x="325" d="M142 36 C146 56 132 72 112 72 C93 72 73 56 72 36 C68 17 80 1 100 1 C120 1 138 17 142 36 L142 36 Z M314 386 C293 365 268 355 237 355 C178 355 144 401 144 456 C144 491 159 523 190 552 C221 581 261 596 310 596 C363 596 403 580 430 549 C457 518 471 484 471 449 C471 344 368 293 277 250 C217 222 156 187 137 147 C126 123 150 113 159 130 C186 189 309 228 395 280 C456 316 502 374 502 449 C502 494 485 534 451 571 C417 608 370 626 310 626 C254 626 207 609 170 574 C133 539 115 500 115 455 C115 383 164 325 236 325 C274 325 307 339 334 366 C347 379 327 401 314 386 L314 386 Z " />
<glyph glyph-name="at" unicode="&#x40;" horiz-adv-x="853" d="M557 -61 C617 -61 671 -33 719 22 C767 77 791 142 791 217 C791 312 761 390 701 452 C641 514 564 545 471 545 C398 545 328 525 261 486 C194 447 141 395 100 328 C60 262 40 191 40 116 C40 25 71 -51 132 -112 C193 -173 271 -204 364 -204 C436 -204 505 -185 571 -146 C578 -143 581 -139 581 -132 C581 -123 577 -119 568 -119 C565 -119 562 -120 558 -122 C497 -157 434 -174 368 -174 C282 -174 211 -146 155 -90 C99 -34 71 36 71 120 C71 221 112 312 193 393 C275 474 366 515 467 515 C553 515 623 487 678 431 C733 375 761 304 761 218 C761 151 740 93 697 43 C654 -7 608 -32 557 -32 C520 -32 490 -18 469 10 C448 39 446 72 463 110 L531 260 L532 260 C532 261 533 262 534 265 L572 348 C583 369 552 379 544 360 L534 339 C523 363 502 375 469 375 C420 375 381 341 350 273 L276 115 C267 97 263 80 263 64 C263 23 292 0 339 0 C370 0 398 17 423 50 C432 -11 481 -61 557 -61 L557 -61 Z M339 28 C308 28 293 40 293 64 C293 74 297 87 304 103 L376 257 C403 317 434 347 469 347 C500 347 515 335 515 311 C515 302 511 289 504 272 L432 115 L427 105 C402 54 373 28 339 28 L339 28 Z " />
<glyph glyph-name="A" unicode="A" horiz-adv-x="1055" d="M861 51 C826 -24 816 -153 919 -153 C926 -153 934 -152 943 -150 C954 -146 960 -139 960 -128 C959 -119 954 -116 943 -120 C935 -122 928 -123 922 -123 C846 -123 861 -19 889 39 L1083 458 C1142 585 1205 648 1272 648 C1299 647 1319 641 1334 628 C1343 621 1350 621 1356 630 C1362 639 1360 647 1350 654 C1330 669 1302 676 1267 676 C1114 676 986 604 884 500 C813 429 762 355 717 268 C594 56 458 -50 309 -50 C244 -50 186 -28 136 16 C86 61 61 117 61 184 C61 247 83 302 126 348 C170 395 226 418 295 418 C408 418 470 359 470 278 C470 248 458 222 435 201 C414 183 437 165 456 180 C485 208 500 241 500 278 C500 375 428 448 297 448 C220 448 156 422 106 369 C56 316 31 255 31 184 C31 107 58 44 112 -5 C166 -55 232 -80 309 -80 C367 -80 424 -64 479 -33 C534 -2 582 35 621 80 C661 125 698 176 733 235 L945 235 L861 51 Z M1174 638 C1131 602 1089 540 1047 451 L958 262 L748 262 C863 477 1005 602 1174 638 L1174 638 Z " />
<glyph glyph-name="B" unicode="B" horiz-adv-x="807" d="M834 447 C833 511 803 567 743 615 C683 663 606 687 513 688 C360 688 228 632 152 555 C77 479 36 389 36 306 C36 210 84 129 169 97 C174 96 177 95 178 95 C188 95 194 100 195 109 C198 115 194 120 183 123 C107 152 67 222 67 305 C66 452 209 661 516 661 C568 660 615 651 656 633 C638 625 622 611 606 588 C594 572 588 564 576 541 C564 520 560 514 547 487 C541 474 537 464 534 458 C531 453 527 443 520 428 C513 413 509 404 507 399 L440 251 C409 182 380 128 354 88 C329 48 298 17 261 -5 C184 32 125 52 85 54 C37 55 -1 29 -1 -2 C-1 -29 19 -49 48 -57 C77 -66 100 -70 123 -70 C177 -69 224 -59 264 -38 C348 -78 417 -98 471 -98 C550 -98 618 -72 675 -19 C733 33 762 90 762 153 C762 196 747 232 717 262 C785 301 833 366 834 447 L834 447 Z M588 227 C621 226 654 232 688 247 C715 224 729 192 729 153 C729 97 703 46 652 1 C601 -44 539 -67 468 -67 C418 -67 360 -51 293 -20 C318 -3 341 20 363 50 C385 81 402 108 415 133 C428 158 446 195 469 244 L536 388 C538 395 542 402 545 408 C564 451 579 483 590 504 C601 525 615 548 632 572 C650 596 668 612 686 619 C759 578 802 514 802 447 C802 374 755 315 690 283 C661 300 627 309 588 310 C552 309 523 294 523 267 C524 246 552 227 588 227 L588 227 Z M123 -40 C60 -40 28 -27 28 -2 C28 13 48 25 83 26 C120 23 168 8 229 -21 C196 -34 161 -40 123 -40 L123 -40 Z M588 258 C573 258 556 261 558 268 C559 275 570 279 589 280 C610 280 632 276 654 268 C633 261 611 258 588 258 L588 258 Z " />
<glyph glyph-name="C" unicode="C" horiz-adv-x="718" d="M379 -118 C452 -118 514 -93 564 -44 C614 5 639 58 639 115 C639 154 626 186 601 213 C576 240 544 254 504 254 C432 254 383 213 364 164 C356 141 383 129 392 152 C411 201 449 226 504 226 C565 226 609 174 609 111 C609 61 587 15 542 -26 C498 -68 444 -89 379 -89 C300 -89 237 -60 190 -2 C143 55 120 123 120 202 C120 314 189 446 293 536 C364 597 461 636 558 636 C618 636 664 622 696 594 C729 567 745 534 745 497 C745 467 733 440 709 416 C686 393 658 381 626 381 C567 381 540 411 540 450 C540 461 543 473 550 485 C561 502 538 516 525 500 C515 487 510 471 510 451 C510 395 544 352 623 352 C665 352 701 367 730 398 C759 429 774 464 774 503 C774 546 755 583 716 616 C678 649 626 665 560 665 C396 665 254 568 176 448 C120 368 90 280 90 201 C90 113 117 38 170 -24 C223 -87 293 -118 379 -118 L379 -118 Z " />
<glyph glyph-name="D" unicode="D" horiz-adv-x="974" d="M515 688 C324 687 186 607 112 508 C60 441 36 371 36 306 C36 210 84 129 169 97 C174 96 177 95 178 95 C188 95 194 100 195 109 C198 115 194 120 183 123 C107 152 67 222 67 305 C66 450 208 659 515 658 C562 658 608 653 652 642 C635 631 617 610 598 580 C579 551 564 525 553 503 C542 481 528 451 511 412 L440 251 C411 188 385 138 362 101 C339 64 311 35 278 12 C195 45 130 61 85 61 C37 61 -1 37 -1 6 C-1 -21 19 -41 48 -49 C77 -58 100 -62 123 -62 C186 -61 239 -47 284 -20 C317 -34 342 -44 358 -50 C374 -56 395 -62 422 -69 C449 -76 474 -79 496 -79 C758 -80 945 124 946 344 C946 433 908 517 839 581 C770 646 654 688 515 688 L515 688 Z M914 344 C914 238 874 146 794 68 C714 -10 615 -49 496 -49 C453 -49 392 -33 311 -1 C372 48 412 119 469 244 L540 401 C543 406 549 421 559 445 C570 469 577 485 581 493 C585 501 592 514 601 533 C621 570 632 582 652 605 C663 616 674 626 685 633 C760 610 816 572 855 519 C894 466 914 408 914 344 L914 344 Z M123 -32 C60 -32 28 -19 28 6 C28 21 50 34 83 34 C122 34 177 21 247 -6 C212 -23 171 -32 123 -32 L123 -32 Z " />
<glyph glyph-name="E" unicode="E" horiz-adv-x="640" d="M310 -136 C374 -136 433 -113 486 -67 C540 -21 567 32 567 92 C567 132 554 166 528 195 C502 224 468 239 427 239 C387 239 354 228 329 206 C304 184 291 159 290 132 C290 120 295 114 304 114 C312 114 317 120 319 132 C320 172 364 208 427 208 C460 208 486 196 506 173 C527 150 537 123 537 92 C537 42 514 -3 468 -44 C423 -85 370 -106 311 -106 C232 -106 174 -86 136 -47 C98 -8 79 37 79 88 C79 151 111 207 174 256 C238 305 313 330 398 330 L434 330 C446 330 452 335 452 346 C452 357 446 363 433 363 L415 363 C339 363 305 412 305 485 C305 536 329 579 376 616 C423 653 478 672 540 672 C597 672 643 658 678 631 C713 604 731 572 731 536 C731 505 719 477 695 453 C672 429 643 417 609 417 C553 417 524 445 524 484 C524 500 528 514 537 525 C549 543 527 559 512 542 C501 527 495 508 495 484 C495 432 536 388 609 388 C651 388 687 404 716 435 C746 466 761 502 761 541 C761 583 741 620 700 652 C659 684 607 700 542 700 C471 700 409 678 356 635 C303 592 276 540 276 481 C276 430 296 375 345 351 C342 351 331 352 326 352 C242 336 175 302 125 250 C75 199 50 144 50 87 C50 -17 121 -136 310 -136 L310 -136 Z " />
<glyph glyph-name="F" unicode="F" horiz-adv-x="616" d="M120 -46 C63 -46 16 -23 9 9 C6 20 0 24 -9 22 C-19 20 -23 14 -21 3 C-10 -44 49 -76 121 -76 C177 -76 225 -62 261 -45 C298 -29 335 11 358 39 C370 53 383 73 397 99 C412 125 423 147 432 164 C441 182 452 207 467 239 L493 294 L574 294 C584 294 590 299 593 309 C596 318 592 323 583 323 L506 323 L534 383 C586 500 634 571 677 597 C768 571 830 558 862 559 C907 559 944 570 973 592 C1002 614 1018 638 1020 664 C1022 686 991 688 991 667 C987 627 942 588 862 588 C831 588 770 601 679 628 C588 655 522 669 480 671 C356 676 247 645 175 594 C139 569 108 539 82 505 C31 438 9 367 9 296 C9 188 67 93 171 49 C195 38 209 69 183 78 C91 115 39 200 39 297 C39 377 77 461 146 530 C215 599 337 645 480 640 C513 639 568 627 644 606 C603 578 557 507 505 394 L473 323 L433 323 C422 322 415 316 412 307 C411 298 415 294 424 295 L460 295 L438 245 C425 217 415 195 407 178 C399 161 388 141 375 118 C348 71 330 50 298 18 C252 -26 199 -43 120 -46 L120 -46 Z " />
<glyph glyph-name="G" unicode="G" horiz-adv-x="649" d="M489 532 C476 517 469 500 469 479 C469 432 507 391 572 391 C609 391 639 405 664 433 C689 461 702 492 702 527 C701 565 683 598 646 625 C610 653 562 667 501 667 C442 667 386 653 333 626 C280 599 235 564 200 521 C129 437 85 333 85 245 C84 180 105 123 148 74 C191 26 248 2 321 2 C404 2 473 31 530 89 L470 -42 C422 -149 349 -212 274 -212 C214 -212 185 -182 186 -143 C186 -111 211 -76 251 -72 C272 -74 273 -45 252 -45 C223 -46 200 -56 182 -77 C164 -98 155 -120 155 -143 C155 -198 195 -240 274 -240 C367 -240 443 -174 503 -42 L642 265 C645 274 643 280 637 284 C628 287 620 283 614 270 L594 228 C575 185 548 146 504 103 C460 60 393 31 321 31 C257 31 206 52 169 94 C132 136 114 186 114 245 C114 406 274 639 502 639 C555 640 596 629 627 606 C658 583 673 557 673 526 C673 469 629 419 572 419 C523 420 497 446 496 479 C497 494 502 507 511 517 C518 523 518 529 513 535 C506 543 498 542 489 532 L489 532 Z " />
<glyph glyph-name="H" unicode="H" horiz-adv-x="918" d="M146 -40 C89 -40 42 -17 35 15 C32 26 26 30 16 28 C7 26 3 20 5 9 C16 -38 75 -70 147 -70 C242 -76 315 -31 362 19 C377 34 393 56 410 84 C427 113 441 137 451 157 C462 178 475 207 492 244 L517 299 L850 299 L843 283 L760 101 C751 83 747 66 747 49 C747 26 754 10 769 -1 C784 -11 806 5 790 21 C781 28 777 37 777 49 C777 59 781 72 788 89 L877 283 L983 516 C1031 623 1106 686 1179 686 C1239 686 1268 656 1268 617 C1268 585 1242 550 1202 547 C1181 547 1181 519 1202 519 C1231 520 1254 530 1271 551 C1289 572 1298 594 1298 617 C1298 672 1259 714 1179 714 C1087 714 1010 646 947 509 L863 327 L530 327 L559 388 C607 495 649 569 684 612 C729 601 762 595 782 595 C826 595 860 621 860 658 C860 685 832 705 785 705 C750 705 714 686 677 647 C674 648 662 651 640 657 C618 663 603 667 596 668 C589 670 577 673 560 676 C527 683 503 685 478 685 C349 685 236 631 169 554 C104 478 66 388 66 307 C66 199 124 103 228 60 C236 55 254 60 254 72 C254 79 249 84 240 88 C148 125 96 211 96 307 C96 382 131 465 192 534 C253 605 359 654 479 654 C512 654 571 643 654 620 C615 570 574 496 530 399 L497 327 L461 327 C450 326 444 321 441 312 C439 303 443 299 452 299 L484 299 L463 251 C445 211 430 180 419 158 C408 136 392 110 372 81 C352 52 332 29 313 14 C274 -15 215 -40 146 -40 L146 -40 Z M782 626 C769 626 745 630 709 639 C736 664 762 677 786 677 C815 677 830 669 830 654 C830 637 809 626 782 626 L782 626 Z " />
<glyph glyph-name="I" unicode="I" horiz-adv-x="580" d="M578 670 C503 670 439 643 387 590 C335 537 309 472 309 396 C309 369 313 344 321 319 C326 308 331 303 338 303 C350 303 355 315 350 331 C344 351 341 372 341 395 C341 464 363 522 408 569 C453 616 510 639 578 639 C617 639 652 634 683 625 L696 621 C669 599 638 562 602 510 C566 458 536 407 513 357 L473 270 L473 271 C442 207 421 165 380 106 C359 77 338 54 317 35 C276 -1 216 -30 152 -30 C96 -30 52 -8 41 23 C33 46 7 32 13 11 C26 -32 85 -60 152 -60 C207 -60 259 -40 298 -16 C317 -5 337 12 357 34 C377 56 393 75 406 92 C419 109 433 133 450 162 C467 192 479 215 487 232 C496 249 507 273 522 304 C557 379 588 438 617 481 C646 525 680 567 721 606 C726 611 729 618 729 625 C729 636 720 644 702 650 C664 663 623 670 578 670 L578 670 Z " />
<glyph glyph-name="J" unicode="J" horiz-adv-x="580" d="M578 670 C503 670 439 643 387 589 C335 536 309 471 309 395 C309 368 313 343 321 318 C326 308 331 303 336 303 C348 303 357 316 350 331 C344 352 341 373 341 395 C341 464 363 522 408 569 C453 616 510 639 578 639 C621 639 660 633 696 621 C669 599 638 562 601 509 C564 457 535 407 513 358 L419 159 C404 127 389 99 376 74 C363 50 347 24 326 -5 C305 -34 284 -58 263 -76 C222 -113 162 -142 98 -142 C42 -142 -2 -120 -13 -89 C-21 -68 -47 -80 -41 -101 C-26 -144 31 -172 98 -172 C169 -172 236 -140 281 -100 C304 -81 327 -55 350 -22 C373 10 391 39 405 65 C420 91 436 123 453 160 L487 233 C495 249 514 289 522 305 L522 304 C557 379 588 438 617 481 C646 525 680 567 721 606 C726 611 729 618 729 625 C729 636 720 644 702 650 C664 663 623 670 578 670 L578 670 Z " />
<glyph glyph-name="K" unicode="K" horiz-adv-x="861" d="M143 -61 C90 -60 48 -36 37 -3 C33 12 4 3 8 -14 C23 -55 79 -91 143 -92 C176 -91 205 -86 231 -78 C272 -105 316 -125 365 -138 C378 -141 386 -138 389 -128 C392 -119 388 -114 377 -111 C336 -100 298 -85 264 -64 C313 -40 355 -2 391 53 C410 81 425 107 438 131 C451 155 466 185 483 222 C496 253 513 289 532 330 L563 397 C602 484 642 549 684 594 C697 607 694 619 677 630 C628 655 572 667 510 667 C393 667 277 620 194 544 C111 469 57 358 57 242 C57 129 110 19 199 -54 C179 -59 160 -61 143 -61 L143 -61 Z M87 242 C87 316 107 384 146 445 C186 506 238 554 302 587 C367 620 436 637 510 637 C568 637 615 626 652 604 C610 554 571 488 534 407 L454 229 C439 196 426 169 414 146 C403 123 388 98 369 70 C333 15 288 -24 235 -44 C142 25 87 130 87 242 L87 242 Z M560 166 C578 135 602 80 632 1 C645 -33 655 -58 662 -75 C669 -92 680 -116 695 -147 C710 -178 723 -201 734 -217 C745 -234 760 -253 779 -274 C818 -317 852 -335 904 -351 C931 -359 959 -363 989 -363 C1048 -363 1095 -348 1129 -318 C1163 -288 1182 -253 1186 -213 C1191 -162 1174 -125 1137 -100 C1121 -89 1102 -110 1118 -123 C1143 -144 1156 -172 1157 -209 C1152 -242 1134 -271 1105 -296 C1076 -321 1038 -333 989 -333 C937 -333 889 -316 853 -293 C818 -270 781 -226 757 -191 C746 -174 733 -151 720 -124 C707 -97 696 -75 688 -56 C680 -37 670 -13 658 16 C655 22 650 35 642 56 C635 77 629 91 625 100 C618 119 604 152 589 176 C637 188 689 225 740 280 C792 336 826 380 875 448 C900 483 920 512 937 533 C954 554 973 577 995 602 C1039 651 1078 675 1114 675 C1126 675 1138 672 1150 667 C1161 663 1169 666 1174 675 C1177 684 1174 690 1164 694 C1146 701 1129 705 1114 705 C1070 705 1027 681 978 628 C954 601 934 577 917 556 C900 535 878 505 851 466 C828 434 810 409 797 392 C784 375 767 354 745 327 C723 300 704 280 688 265 C656 237 612 209 573 204 C552 201 547 189 560 166 L560 166 Z " />
<glyph glyph-name="L" unicode="L" horiz-adv-x="865" d="M1180 -87 C1208 -112 1220 -141 1217 -174 C1212 -213 1191 -248 1153 -277 C1116 -307 1067 -322 1008 -322 C948 -322 891 -312 835 -285 C807 -272 782 -259 761 -247 C740 -236 715 -219 686 -196 C658 -174 636 -156 620 -143 C604 -130 581 -109 551 -82 C522 -55 501 -37 488 -26 C552 19 607 83 653 165 C750 208 832 271 899 355 C966 440 1001 520 1002 595 C1002 656 982 686 941 686 C895 686 848 640 799 548 C762 595 713 633 653 661 C560 704 455 711 364 686 C273 661 191 597 150 506 C119 437 116 369 141 304 C166 239 214 191 283 160 C384 113 493 109 610 148 C569 82 520 31 464 -6 C363 79 278 127 186 127 C111 129 20 94 20 16 C20 -21 40 -51 80 -74 C120 -97 169 -108 226 -107 C313 -107 391 -86 462 -43 L487 -65 C494 -72 508 -84 529 -103 C550 -122 565 -136 574 -144 C583 -153 598 -166 618 -183 C639 -200 655 -213 666 -221 C678 -230 694 -241 715 -255 C756 -284 780 -294 821 -313 C842 -323 862 -330 880 -334 C917 -343 963 -352 1007 -352 C1076 -352 1131 -334 1174 -299 C1217 -264 1241 -224 1246 -178 C1251 -127 1234 -89 1195 -66 C1180 -57 1163 -74 1180 -87 L1180 -87 Z M298 188 C236 217 193 259 170 316 C147 373 149 432 177 494 C202 548 241 591 292 622 C343 654 398 670 457 671 C516 672 576 660 637 635 C702 603 751 564 784 519 C779 508 758 464 723 386 L653 229 C645 212 639 199 634 191 C515 140 403 139 298 188 L298 188 Z M226 -77 C181 -77 140 -68 105 -51 C70 -34 52 -11 52 17 C51 66 103 97 187 97 C270 97 346 55 438 -22 C373 -59 303 -77 226 -77 L226 -77 Z M750 375 C752 380 759 397 772 425 C785 453 795 474 802 489 C807 477 811 468 813 462 C816 455 820 451 825 451 C832 450 841 458 840 465 C841 470 841 474 839 476 C833 493 826 508 818 521 C863 610 903 655 937 656 C962 655 973 636 972 597 C971 532 943 463 886 388 C829 313 759 254 676 211 L680 219 L750 375 Z " />
<glyph glyph-name="M" unicode="M" horiz-adv-x="846" d="M670 52 C653 17 645 -19 645 -56 C645 -113 671 -153 728 -153 C735 -153 745 -152 757 -149 C776 -145 773 -115 754 -119 C739 -122 732 -123 731 -123 C694 -123 676 -100 676 -55 C676 -26 683 5 698 39 L698 38 L896 468 C903 483 907 500 907 520 C907 565 869 605 810 605 C745 605 700 577 652 524 C645 569 615 605 562 605 C497 605 439 573 389 510 C390 516 390 527 390 543 C390 598 369 642 327 677 C286 712 238 729 184 729 C130 729 82 711 41 674 C0 638 -20 595 -20 545 C-20 502 -5 466 24 436 C53 406 89 391 131 391 C182 391 228 415 245 459 C248 470 241 482 230 482 C224 482 219 477 214 467 C200 436 172 420 131 420 C59 420 10 476 10 545 C10 590 28 626 63 655 C99 684 139 699 184 699 C230 699 271 684 306 655 C342 626 360 588 360 543 C360 505 353 470 339 439 L145 16 C139 1 142 -6 154 -6 C163 -6 171 0 177 11 L351 394 C404 510 490 573 559 573 C595 573 619 549 619 512 C619 500 614 483 604 460 L398 17 C393 2 397 -6 408 -6 C417 -6 425 0 431 11 L431 10 L620 420 C665 519 742 573 806 573 C849 573 873 548 873 515 C873 500 869 482 860 461 L860 462 L670 52 L670 52 Z " />
<glyph glyph-name="N" unicode="N" horiz-adv-x="619" d="M553 604 C500 604 434 562 389 509 C390 517 390 528 390 543 C390 598 369 642 327 677 C286 712 238 729 184 729 C130 729 82 711 41 674 C0 638 -20 595 -20 545 C-20 502 -5 466 24 436 C53 406 89 391 131 391 C182 391 228 415 245 459 C248 470 241 482 230 482 C224 482 219 477 214 467 C200 436 172 420 131 420 C59 420 10 476 10 545 C10 590 28 626 63 655 C99 684 139 699 184 699 C230 699 271 684 306 655 C342 626 360 588 360 543 C360 505 353 470 339 439 L145 16 C139 1 142 -6 154 -6 C163 -6 171 0 177 11 L351 394 C402 506 482 572 551 572 C594 572 618 547 618 514 C618 497 614 479 605 460 L415 51 C398 16 390 -20 390 -57 C390 -114 416 -154 473 -154 C480 -154 490 -153 502 -150 C514 -147 519 -141 518 -131 C517 -121 510 -117 499 -120 C484 -123 477 -124 476 -124 C439 -124 421 -101 421 -56 C421 -27 428 4 443 38 L443 37 L641 467 C648 482 652 499 652 519 C652 564 613 604 553 604 L553 604 Z " />
<glyph glyph-name="O" unicode="O" horiz-adv-x="833" d="M116 306 C109 275 105 246 105 218 C105 136 130 68 180 15 C231 -38 296 -64 376 -64 C469 -64 558 -28 641 43 C724 114 778 200 801 301 C808 333 811 363 811 390 C811 472 786 539 736 592 C686 645 621 672 541 672 C448 672 359 636 276 564 C193 493 139 407 116 306 L116 306 Z M145 301 C167 395 217 475 294 542 C371 609 454 642 541 642 C613 642 671 618 715 571 C759 524 781 463 781 390 C781 363 778 335 771 306 C748 213 697 133 620 66 C543 -1 461 -34 376 -34 C304 -34 246 -10 201 37 C157 84 135 145 135 218 C135 240 138 268 145 301 L145 301 Z " />
<glyph glyph-name="P" unicode="P" horiz-adv-x="812" d="M793 684 C762 684 730 672 699 648 C640 681 573 698 498 698 C325 698 202 624 139 530 C94 466 73 400 73 336 C74 235 126 148 221 109 C243 98 258 127 232 136 C148 171 102 248 103 336 C103 411 136 488 197 555 C258 623 367 670 498 670 C561 670 620 656 675 628 C627 581 580 507 535 406 L454 229 C436 190 421 159 410 136 C399 114 383 88 363 59 C343 30 323 9 304 -6 C265 -37 206 -62 137 -62 C80 -62 33 -40 26 -8 C23 3 17 7 7 5 C-2 4 -6 -3 -4 -14 C7 -61 65 -92 137 -92 C193 -92 241 -79 277 -62 C314 -45 351 -6 374 22 C386 36 399 56 414 81 C429 107 440 129 449 146 C458 164 469 189 484 221 L564 395 C611 498 656 571 701 613 C777 565 822 493 822 413 C822 348 798 293 749 248 C700 203 646 181 587 181 C568 182 543 188 511 201 C502 205 495 203 490 196 C485 187 486 181 493 178 C523 161 554 152 587 152 C654 153 715 178 770 227 C825 277 852 339 852 412 C852 500 805 579 725 632 C748 648 771 656 793 656 C814 656 814 684 793 684 L793 684 Z " />
<glyph glyph-name="Q" unicode="Q" horiz-adv-x="758" d="M475 678 C367 678 270 635 209 571 C148 507 110 424 109 343 C106 281 127 228 170 183 C213 138 267 116 332 116 C395 117 446 135 485 172 C525 209 546 251 547 298 C548 336 540 364 521 383 C503 397 479 381 493 363 C508 344 516 323 516 300 C515 257 497 220 463 190 C429 161 385 146 332 146 C275 146 229 166 192 206 C155 246 138 293 140 346 C141 423 172 493 233 554 C294 616 374 647 474 648 C549 648 611 622 658 571 C706 520 729 457 727 381 C724 290 690 206 625 129 C560 52 480 -4 387 -39 C299 48 226 95 142 95 L141 95 C65 95 26 56 25 12 C24 -17 40 -44 75 -67 C110 -90 158 -102 218 -102 C268 -102 321 -93 377 -74 C386 -84 402 -101 424 -124 C446 -148 463 -166 475 -178 C487 -191 504 -207 527 -228 C550 -249 569 -266 585 -278 C617 -302 672 -337 716 -353 C760 -369 818 -382 877 -382 C945 -382 1001 -364 1044 -329 C1088 -294 1113 -254 1120 -209 C1127 -164 1109 -120 1073 -96 C1058 -88 1041 -103 1056 -118 C1083 -140 1095 -169 1091 -204 C1085 -243 1063 -278 1024 -307 C986 -337 937 -352 878 -352 C827 -352 776 -340 736 -325 C717 -318 695 -308 672 -293 C649 -278 630 -266 615 -255 C600 -245 582 -229 559 -208 C536 -187 520 -172 509 -161 C498 -151 481 -134 457 -109 C434 -85 418 -69 410 -61 C505 -23 586 35 653 114 C720 193 755 282 758 381 C760 466 734 536 681 593 C628 650 559 678 475 678 L475 678 Z M142 66 C207 65 277 27 354 -50 C307 -65 262 -72 219 -72 C172 -73 133 -64 102 -47 C71 -30 56 -11 56 9 C57 40 84 66 140 66 L142 66 Z " />
<glyph glyph-name="R" unicode="R" horiz-adv-x="932" d="M255 -50 C203 -50 159 -26 148 6 C140 27 112 23 118 -1 C133 -46 187 -79 255 -80 C330 -79 395 -48 439 -11 C461 7 483 32 505 64 C527 97 545 126 558 153 C572 180 588 215 607 256 L671 400 C672 402 676 410 683 425 C721 513 755 571 785 598 C863 543 902 474 902 389 C901 318 875 257 824 206 C773 156 717 130 655 129 C639 124 636 113 645 97 C662 70 684 25 711 -38 L710 -38 L718 -56 C736 -98 750 -130 761 -153 C772 -176 789 -204 810 -237 C831 -271 852 -297 873 -314 C914 -350 980 -381 1056 -381 C1113 -381 1158 -366 1193 -335 C1228 -304 1248 -270 1253 -231 C1256 -187 1238 -142 1203 -119 C1188 -111 1173 -128 1185 -141 C1210 -164 1223 -192 1224 -227 C1215 -294 1154 -351 1057 -351 C1008 -351 962 -335 930 -318 C898 -301 861 -255 841 -230 C832 -217 820 -197 805 -170 C791 -143 781 -122 775 -109 C769 -96 759 -74 745 -43 C741 -35 736 -23 729 -7 C708 41 690 77 677 101 C744 110 803 141 855 195 C907 250 933 314 932 388 C932 475 895 548 822 608 C749 668 661 698 558 698 C379 697 259 624 198 531 C155 467 137 402 137 338 C137 231 198 135 299 91 C322 80 332 109 311 119 C268 139 233 169 206 209 C180 250 167 293 167 338 C167 423 205 521 295 592 C354 637 448 668 559 668 C630 668 696 651 758 616 C731 589 697 530 656 439 C653 434 647 416 644 411 L577 262 C560 223 544 191 531 166 C518 141 502 113 481 83 C461 53 441 29 420 12 C380 -23 320 -50 255 -50 L255 -50 Z " />
<glyph glyph-name="S" unicode="S" horiz-adv-x="761" d="M374 -96 C482 -96 586 -48 654 52 C688 103 705 161 705 227 C705 264 695 314 674 377 C653 440 643 487 643 520 C643 561 657 595 686 620 C715 646 745 659 778 659 C830 659 870 623 870 578 C870 546 844 511 804 508 C782 508 782 480 804 480 C833 481 856 491 873 512 C891 533 900 555 900 578 C900 612 887 639 862 658 C837 677 809 687 777 687 C737 687 700 672 665 641 C630 610 613 570 613 520 C613 485 623 436 644 371 C665 306 675 258 675 227 C675 168 659 115 628 69 C597 23 559 -11 514 -33 C469 -55 423 -66 374 -66 C303 -66 240 -43 187 2 C134 47 108 105 108 174 C108 241 130 299 175 347 C220 396 277 420 348 420 C461 420 523 361 523 280 C523 250 511 224 488 203 C467 185 490 167 509 182 C538 210 553 243 553 280 C553 377 481 450 350 450 C271 450 205 423 154 368 C103 313 78 249 78 174 C78 95 107 31 164 -20 C221 -71 291 -96 374 -96 L374 -96 Z " />
<glyph glyph-name="T" unicode="T" horiz-adv-x="585" d="M120 -46 C63 -46 16 -23 9 9 C6 20 0 24 -9 22 C-19 20 -23 14 -21 3 C-10 -44 49 -76 121 -76 C217 -79 289 -36 337 14 C353 30 369 52 385 79 C402 107 415 131 426 152 C437 173 450 202 467 239 L534 383 C587 498 623 563 671 598 C767 571 831 558 862 559 C907 559 944 570 973 592 C1002 614 1018 638 1020 664 C1022 686 991 688 991 667 C987 627 942 588 862 588 C831 588 770 601 679 628 C588 655 522 669 480 671 C356 676 247 645 175 594 C139 569 108 539 82 505 C31 438 9 367 9 296 C9 188 67 93 171 49 C195 38 209 69 183 78 C91 115 39 200 39 297 C39 378 75 462 143 533 C212 604 333 648 480 640 C514 637 567 626 639 607 C602 579 557 508 505 394 L438 245 C423 212 411 186 401 167 C392 148 379 125 364 99 C349 74 334 53 319 38 C274 -9 207 -50 120 -46 L120 -46 Z " />
<glyph glyph-name="U" unicode="U" horiz-adv-x="743" d="M683 -254 C732 -254 769 -239 794 -210 C820 -181 834 -150 835 -117 C836 -92 831 -74 820 -63 C804 -51 781 -71 797 -85 C804 -90 806 -101 805 -117 C804 -143 794 -167 773 -190 C753 -213 723 -224 684 -224 C564 -224 547 -67 559 62 C617 122 666 192 707 273 C748 354 770 423 773 482 C773 513 754 539 729 539 C703 539 673 506 640 441 C607 376 579 297 556 205 C548 176 540 133 533 76 C466 8 404 -26 347 -26 C238 -26 240 79 273 149 L390 404 C447 529 414 634 310 682 C255 707 200 711 143 692 C86 674 46 639 22 587 C5 546 3 505 17 464 C31 424 56 396 93 379 C137 362 185 357 228 381 C250 394 265 411 272 433 C278 452 252 470 243 442 C222 387 148 385 104 404 C75 418 55 442 44 475 C33 508 35 542 50 576 C71 622 106 652 156 667 C206 682 253 678 298 655 C402 608 405 502 364 415 L247 161 C203 67 217 -55 347 -55 C404 -55 464 -25 529 34 C524 -39 529 -100 549 -159 C569 -218 615 -254 683 -254 L683 -254 Z M584 200 C610 288 636 362 662 421 C688 480 710 510 727 510 C736 510 745 501 744 486 C743 436 725 375 690 303 C656 232 614 167 565 110 C570 146 576 176 584 200 L584 200 Z " />
<glyph glyph-name="V" unicode="V" horiz-adv-x="728" d="M742 645 C731 664 712 649 718 634 C733 605 740 568 738 524 C737 480 732 441 725 408 C718 375 709 346 699 322 C662 232 609 151 541 80 C473 9 408 -26 347 -26 C238 -26 240 79 273 149 L404 434 C461 559 428 664 324 712 C269 737 214 741 157 722 C100 704 60 669 36 617 C19 576 17 535 31 494 C45 454 70 426 107 409 C151 392 199 387 242 411 C264 424 279 441 286 463 C292 482 266 500 257 472 C236 417 162 415 118 434 C89 448 69 472 58 505 C47 538 49 572 64 606 C85 652 120 682 170 697 C220 712 267 708 312 685 C416 638 419 532 378 445 L247 161 C203 67 217 -55 347 -55 C414 -55 484 -17 559 59 C634 136 690 221 727 314 C746 362 764 441 764 534 C764 581 757 618 742 645 L742 645 Z " />
<glyph glyph-name="W" unicode="W" horiz-adv-x="980" d="M243 442 C222 387 148 385 104 404 C75 418 55 442 44 475 C33 508 35 542 50 576 C71 622 106 652 156 667 C206 682 253 678 298 655 C403 607 401 497 364 415 L247 161 C203 67 217 -55 347 -55 C406 -55 469 -23 536 41 C553 -15 594 -53 650 -54 C747 -54 825 7 883 130 L1048 485 C1068 529 1128 641 1198 603 C1209 598 1217 599 1222 608 C1227 617 1223 624 1211 629 C1119 682 1042 546 1020 498 L855 140 C838 104 816 72 783 36 C751 0 705 -24 657 -25 C606 -26 572 11 559 64 C616 124 665 194 704 274 C744 354 764 423 765 482 C764 513 744 538 719 539 C687 539 639 483 599 404 C579 365 562 318 548 264 C534 210 527 157 527 106 C527 91 528 79 529 72 C464 7 403 -26 347 -26 C238 -26 240 79 273 149 L390 404 C447 529 414 634 310 682 C255 707 200 711 143 692 C86 674 46 639 22 587 C5 546 3 505 17 464 C31 424 56 396 93 379 C137 362 185 357 228 381 C250 394 265 411 272 433 C278 452 252 470 243 442 L243 442 Z M555 106 C555 161 565 222 586 287 C607 353 630 407 656 448 C682 490 703 511 718 510 C727 511 736 502 736 486 C736 434 719 371 684 297 C649 224 606 158 555 100 L555 106 Z " />
<glyph glyph-name="X" unicode="X" horiz-adv-x="667" d="M20 -45 C-37 -45 -84 -22 -91 10 C-94 21 -100 25 -109 23 C-119 21 -123 15 -121 4 C-110 -43 -51 -75 21 -75 C75 -74 138 -48 211 3 C255 34 314 85 388 157 L473 240 C476 35 504 -112 576 -201 C613 -246 659 -269 714 -269 C763 -269 804 -255 835 -228 C867 -201 886 -171 893 -138 C898 -113 890 -80 877 -65 C861 -46 831 -68 850 -87 C862 -99 867 -122 863 -138 C858 -163 843 -186 818 -207 C793 -228 760 -239 720 -239 C620 -239 554 -145 525 3 C511 77 504 166 504 270 L827 583 C848 604 831 627 807 605 L503 310 C496 571 416 702 263 702 C180 702 108 659 77 586 C61 545 61 505 78 464 C95 423 122 395 159 378 C221 349 315 362 335 432 C337 441 334 449 325 454 C315 459 309 455 306 441 C287 385 214 384 168 403 C139 417 117 441 104 474 C91 507 92 541 105 575 C130 639 193 673 264 673 C405 673 470 541 473 281 L368 179 C214 30 98 -45 20 -45 L20 -45 Z " />
<glyph glyph-name="Y" unicode="Y" horiz-adv-x="719" d="M397 2 C458 2 513 26 562 74 L509 -41 C460 -149 386 -212 313 -211 C253 -212 223 -182 224 -143 C224 -111 249 -75 289 -71 L293 -71 C302 -71 307 -66 306 -57 C305 -48 300 -44 291 -45 C262 -46 238 -56 220 -77 C202 -98 193 -120 194 -143 C194 -198 233 -239 312 -239 C405 -240 481 -174 542 -41 L795 508 C799 518 797 525 788 528 C778 532 770 528 765 515 L633 228 L622 204 C601 160 582 131 546 92 C510 53 458 31 397 31 C287 31 292 136 322 206 L413 405 C472 530 438 634 333 682 C279 707 223 711 166 693 C109 675 69 640 45 587 C28 546 26 505 40 464 C55 424 80 396 116 379 C146 363 181 360 220 369 C259 379 284 400 295 433 C301 452 273 470 267 442 C246 386 170 385 127 404 C98 418 78 442 67 475 C56 509 58 543 74 576 C95 622 130 652 180 667 C230 682 277 678 321 655 C423 608 429 503 387 415 L297 218 C253 124 268 2 397 2 L397 2 Z " />
<glyph glyph-name="Z" unicode="Z" horiz-adv-x="772" d="M495 674 C453 674 413 663 375 642 C338 621 311 593 294 557 C277 516 275 475 289 434 C303 394 328 366 365 349 C409 332 457 327 500 351 C522 364 537 381 544 403 C550 422 524 440 515 412 C494 357 420 355 376 374 C347 388 327 412 316 445 C305 478 307 512 322 546 C350 609 422 644 493 644 C586 644 665 618 756 577 C802 556 835 543 854 536 L451 78 C442 67 428 53 411 36 C330 97 255 127 186 127 C111 129 20 94 20 16 C20 -17 37 -42 70 -61 C103 -80 145 -90 194 -89 C269 -89 341 -60 412 -1 C440 -23 465 -44 487 -65 C494 -72 508 -84 529 -103 C550 -122 565 -136 574 -144 C583 -153 598 -166 618 -183 C639 -200 655 -213 666 -221 C678 -230 694 -241 715 -255 C756 -284 780 -294 821 -313 C842 -323 862 -330 880 -334 C917 -343 963 -352 1007 -352 C1076 -352 1131 -334 1174 -299 C1217 -264 1241 -224 1246 -178 C1251 -127 1234 -89 1195 -66 C1180 -57 1163 -74 1180 -87 C1208 -112 1220 -141 1217 -174 C1212 -213 1191 -248 1153 -277 C1116 -307 1067 -322 1008 -322 C916 -322 829 -294 748 -239 C707 -212 672 -185 641 -160 C610 -135 574 -103 533 -66 C492 -29 459 -1 434 18 C449 31 462 45 473 58 L886 527 C910 521 934 518 959 518 C998 518 1031 527 1057 546 C1084 565 1097 584 1097 604 C1097 636 1075 659 1028 659 C983 659 933 628 880 565 L875 560 C850 567 815 580 770 601 C726 622 681 639 636 653 C591 667 544 674 495 674 L495 674 Z M194 -59 C157 -59 124 -52 95 -38 C66 -25 52 -6 52 17 C51 66 103 97 187 97 C247 97 314 70 388 17 C325 -34 260 -59 194 -59 L194 -59 Z M1028 629 C1054 629 1067 621 1067 604 C1067 577 1020 548 959 548 C940 548 923 549 909 552 C953 603 993 629 1028 629 L1028 629 Z " />
<glyph glyph-name="bracketleft" unicode="&#x5b;" horiz-adv-x="275" d="M10 -118 C5 -130 11 -141 22 -141 L119 -141 C129 -141 134 -136 134 -127 C134 -118 129 -113 119 -113 L46 -113 L349 566 L424 566 C434 566 439 571 439 580 C439 589 434 594 424 594 L340 594 C332 594 327 591 324 584 L10 -118 Z " />
<glyph glyph-name="backslash" unicode="&#x5c;" horiz-adv-x="362" d="M237 15 C240 2 246 -3 255 0 C264 2 268 10 265 23 L165 584 C163 603 134 601 138 578 L237 15 L237 15 Z " />
<glyph glyph-name="bracketright" unicode="&#x5d;" horiz-adv-x="275" d="M280 603 C270 603 265 598 265 589 C265 580 270 575 280 575 L352 575 L49 -104 L-33 -104 C-43 -104 -48 -109 -48 -118 C-48 -127 -43 -132 -33 -132 L57 -132 C65 -133 71 -130 75 -122 L389 580 C394 592 388 603 377 603 L280 603 Z " />
<glyph glyph-name="asciicircum" unicode="&#x5e;" horiz-adv-x="409" d="M291 367 C287 376 279 376 266 367 L95 176 C84 161 102 141 118 159 L274 337 L325 169 C332 149 356 157 350 179 L291 367 L291 367 Z " />
<glyph glyph-name="underscore" unicode="&#x5f;" horiz-adv-x="349" d="M246 -17 C268 -17 268 11 246 11 L67 11 C57 11 52 6 52 -3 C52 -12 57 -17 67 -17 L246 -17 Z " />
<glyph glyph-name="grave" unicode="&#x60;" horiz-adv-x="330" d="M316 474 C325 469 331 470 336 477 C341 484 340 491 331 497 L229 595 C208 605 197 583 214 572 L316 474 L316 474 Z " />
<glyph glyph-name="a" unicode="a" horiz-adv-x="307" d="M214 0 C241 0 265 11 286 34 C307 57 323 80 332 104 C339 121 315 131 307 115 C307 114 306 113 306 112 C280 56 249 28 214 28 C187 28 173 40 173 63 C173 73 177 86 184 103 L296 348 C304 369 276 379 268 360 L258 339 C247 363 226 375 193 375 C144 375 105 341 74 273 L0 115 C-9 97 -13 80 -13 64 C-13 23 16 0 63 0 C93 0 120 15 144 46 C151 15 174 0 214 0 L214 0 Z M63 28 C32 28 17 40 17 64 C17 74 21 87 28 103 L100 257 C127 317 158 347 193 347 C224 347 239 335 239 311 C239 302 235 289 228 272 L151 105 C126 54 97 28 63 28 L63 28 Z " />
<glyph glyph-name="b" unicode="b" horiz-adv-x="276" d="M1 115 C-30 50 -1 0 63 0 C112 0 151 34 182 102 L256 260 C265 278 269 295 269 311 C269 354 245 375 197 375 C180 375 162 368 144 355 L244 572 C255 593 224 603 216 584 L1 115 Z M101 262 L102 262 C119 302 154 347 197 347 C225 347 239 335 239 311 C239 301 235 288 228 272 L156 118 C129 58 98 28 63 28 C32 28 17 40 17 64 C17 74 21 87 28 103 L101 262 Z M184 0 C211 0 235 11 256 34 C277 57 293 80 302 104 C309 121 285 131 277 115 C277 114 276 113 276 112 C250 56 219 28 184 28 C177 28 173 23 173 14 C173 5 177 0 184 0 L184 0 Z " />
<glyph glyph-name="c" unicode="c" horiz-adv-x="232" d="M186 375 C140 375 102 341 71 273 L17 159 C-27 54 13 0 102 0 C135 0 166 10 195 31 C224 52 245 76 257 104 C266 121 240 130 232 115 C221 95 204 75 181 56 C158 37 131 28 102 28 C35 28 12 75 45 147 L97 257 C124 317 153 347 186 347 C220 347 228 326 211 285 C205 272 202 264 201 263 C196 251 199 244 209 242 C220 239 229 244 234 258 L243 280 C267 333 242 375 186 375 L186 375 Z " />
<glyph glyph-name="d" unicode="d" horiz-adv-x="307" d="M214 0 C241 0 265 11 286 34 C307 57 323 80 332 104 C339 121 315 131 307 115 C307 114 306 113 306 112 C280 56 249 28 214 28 C187 28 173 40 173 63 C173 73 177 86 184 103 L399 572 C407 593 379 603 371 584 L258 339 C247 363 226 375 193 375 C144 375 105 341 74 273 L0 115 C-9 97 -13 80 -13 64 C-13 23 16 0 63 0 C93 0 120 15 144 46 C151 15 174 0 214 0 L214 0 Z M151 105 C126 54 97 28 63 28 C32 28 17 40 17 64 C17 74 21 87 28 103 L100 257 C127 317 158 347 193 347 C224 347 239 335 239 311 C239 302 235 289 228 272 L156 115 L151 105 Z " />
<glyph glyph-name="e" unicode="e" horiz-adv-x="232" d="M186 375 C140 375 102 341 71 273 L17 159 C-27 54 13 0 102 0 C135 0 166 10 195 31 C224 52 245 76 257 104 C266 121 240 130 232 115 C221 95 204 75 181 56 C158 37 131 28 102 28 C35 28 12 75 45 147 L63 186 C76 175 93 169 114 169 C173 169 212 203 243 280 C266 333 242 375 186 375 L186 375 Z M211 285 C187 228 158 200 113 200 C98 200 85 204 76 212 L97 257 C124 317 153 347 186 347 C220 347 228 326 211 285 L211 285 Z " />
<glyph glyph-name="f" unicode="f" horiz-adv-x="156" d="M203 342 C212 342 218 347 221 356 C224 365 221 370 212 370 L150 370 L192 461 C241 569 315 631 388 631 C448 631 477 601 477 562 C477 530 451 495 411 492 C390 492 390 464 411 464 C440 465 463 475 480 496 C498 517 507 539 507 562 C507 617 468 659 388 659 C296 659 219 591 156 454 L117 370 L95 370 C84 369 78 364 75 355 C73 346 77 342 86 342 L104 342 L-65 -28 C-113 -135 -188 -198 -261 -198 C-321 -198 -350 -168 -350 -129 C-350 -97 -324 -62 -284 -59 C-263 -59 -263 -31 -284 -31 C-313 -32 -336 -42 -353 -63 C-371 -84 -380 -106 -380 -129 C-380 -184 -341 -226 -261 -226 C-168 -226 -92 -160 -32 -28 L137 342 L203 342 L203 342 Z " />
<glyph glyph-name="g" unicode="g" horiz-adv-x="291" d="M-128 -31 C-157 -32 -180 -42 -197 -63 C-215 -84 -224 -106 -224 -129 C-224 -184 -185 -226 -105 -226 C-12 -226 64 -160 124 -28 L296 348 C304 369 276 379 268 360 L258 339 C247 363 226 375 193 375 C144 375 105 341 74 273 L0 115 C-9 97 -13 80 -13 64 C-13 23 16 0 63 0 C82 0 98 6 111 17 L91 -28 C43 -135 -32 -198 -105 -198 C-165 -198 -194 -168 -194 -129 C-194 -97 -168 -62 -128 -59 C-107 -59 -107 -31 -128 -31 L-128 -31 Z M63 28 C32 28 17 40 17 64 C17 74 21 87 28 103 L100 257 C127 317 158 347 193 347 C224 347 239 335 239 311 C239 302 235 289 228 272 L151 105 C126 54 97 28 63 28 L63 28 Z M198 0 C225 0 249 11 270 34 C291 57 307 80 316 104 C323 121 299 131 291 115 C291 114 290 113 290 112 C264 56 233 28 198 28 C191 28 187 23 187 14 C187 5 191 0 198 0 L198 0 Z " />
<glyph glyph-name="h" unicode="h" horiz-adv-x="306" d="M155 115 C146 97 142 80 142 63 C142 21 166 0 213 0 C240 0 264 11 285 34 C306 57 322 80 331 104 C338 121 314 131 306 115 C306 114 305 113 305 112 C279 56 248 28 213 28 C186 28 172 40 172 63 C172 73 176 86 183 103 L256 260 C265 278 269 295 269 311 C269 352 240 375 193 375 C176 375 160 369 145 357 L243 572 C251 593 223 603 215 584 L0 115 C-27 57 -58 28 -93 28 C-113 28 -115 0 -93 0 C-65 0 -40 11 -19 33 C2 56 18 79 29 104 L106 273 C131 322 160 347 193 347 C224 347 239 335 239 311 C239 301 235 288 228 272 L155 115 L155 115 Z " />
<glyph glyph-name="i" unicode="i" horiz-adv-x="151" d="M58 0 C85 0 109 11 130 34 C151 57 167 80 176 104 C183 121 159 131 151 115 C151 114 150 113 150 112 C124 56 93 28 58 28 C31 28 17 40 17 63 C17 73 21 86 28 103 L140 348 C148 369 120 379 112 360 L0 115 C-9 97 -13 80 -13 63 C-13 21 11 0 58 0 L58 0 Z M167 432 C190 432 209 461 194 478 C180 496 147 483 145 459 C142 444 151 432 167 432 L167 432 Z " />
<glyph glyph-name="j" unicode="j" horiz-adv-x="135" d="M42 0 C69 0 93 11 114 34 C135 57 151 80 160 104 C167 121 143 131 135 115 C135 114 134 113 134 112 C108 56 77 28 42 28 C35 28 31 23 31 14 C31 5 35 0 42 0 L42 0 Z M-284 -31 C-313 -32 -336 -42 -353 -63 C-371 -84 -380 -106 -380 -129 C-380 -184 -341 -226 -261 -226 C-168 -226 -92 -160 -32 -28 L140 348 C148 369 120 379 112 360 L-65 -28 C-113 -135 -188 -198 -261 -198 C-321 -198 -350 -168 -350 -129 C-350 -97 -324 -62 -284 -59 C-263 -59 -263 -31 -284 -31 L-284 -31 Z M164 432 C187 432 206 461 191 478 C177 496 144 483 142 459 C139 444 148 432 164 432 L164 432 Z " />
<glyph glyph-name="k" unicode="k" horiz-adv-x="288" d="M241 299 C238 270 220 242 187 215 C154 188 122 175 90 175 C80 138 65 64 111 20 C143 -7 203 -12 259 35 C287 59 305 82 313 104 C320 121 296 131 288 115 C281 100 266 81 244 60 C223 39 200 29 176 29 C108 29 106 102 113 147 C149 154 183 174 216 205 C249 237 268 268 271 299 C276 347 248 375 201 375 C182 375 162 367 141 350 L243 572 C251 593 223 603 215 584 L0 115 C-27 57 -58 28 -93 28 C-113 28 -115 0 -93 0 C-65 0 -40 11 -19 33 C2 56 18 79 29 104 L104 269 C125 308 161 347 201 347 C232 347 245 331 241 299 L241 299 Z " />
<glyph glyph-name="l" unicode="l" horiz-adv-x="151" d="M0 115 C-9 97 -13 80 -13 63 C-13 21 11 0 58 0 C85 0 109 11 130 34 C151 57 167 80 176 104 C183 121 159 131 151 115 C151 114 150 113 150 112 C124 56 93 28 58 28 C31 28 17 40 17 63 C17 73 21 86 28 103 L243 572 C251 593 223 603 215 584 L0 115 L0 115 Z " />
<glyph glyph-name="m" unicode="m" horiz-adv-x="462" d="M260 269 C285 318 315 344 349 347 C376 350 395 335 395 311 C395 301 391 288 384 272 L311 115 C302 97 298 80 298 63 C298 21 322 0 369 0 C396 0 420 11 441 34 C462 57 478 80 487 104 C494 121 470 131 462 115 C462 114 461 113 461 112 C435 56 404 28 369 28 C342 28 328 40 328 63 C328 73 332 86 339 103 L412 260 C421 278 425 295 425 311 C425 354 396 378 349 375 C321 372 294 355 268 323 C263 358 234 378 193 375 C175 373 158 366 142 353 C144 362 140 367 131 370 C122 373 116 370 113 361 L0 115 C-27 57 -58 28 -93 28 C-113 28 -115 0 -93 0 C-65 0 -40 11 -19 33 C2 56 18 79 29 104 L105 271 C130 318 160 344 193 347 C220 350 239 335 239 311 C239 301 235 288 228 272 L113 21 C110 12 112 7 121 5 C132 4 141 9 146 21 L256 260 L260 269 Z " />
<glyph glyph-name="n" unicode="n" horiz-adv-x="306" d="M155 115 C146 97 142 80 142 63 C142 21 166 0 213 0 C240 0 264 11 285 34 C306 57 322 80 331 104 C338 121 314 131 306 115 C306 114 305 113 305 112 C279 56 248 28 213 28 C186 28 172 40 172 63 C172 73 176 86 183 103 L256 260 C265 278 269 295 269 311 C269 354 240 378 193 375 C175 373 158 366 142 353 C144 362 140 367 131 370 C122 373 116 370 113 361 L0 115 C-27 57 -58 28 -93 28 C-113 28 -115 0 -93 0 C-65 0 -40 11 -19 33 C2 56 18 79 29 104 L105 271 C130 318 160 344 193 347 C220 350 239 335 239 311 C239 301 235 288 228 272 L155 115 L155 115 Z " />
<glyph glyph-name="o" unicode="o" horiz-adv-x="269" d="M63 0 C112 0 151 34 182 102 L256 260 C265 278 269 295 269 311 C269 352 240 375 193 375 C144 375 105 341 74 273 L0 115 C-9 97 -13 80 -13 64 C-13 23 16 0 63 0 L63 0 Z M17 64 C17 74 21 87 28 103 L100 257 C127 317 158 347 193 347 C224 347 239 335 239 311 C239 301 235 288 228 272 L156 118 C129 58 98 28 63 28 C32 28 17 40 17 64 L17 64 Z " />
<glyph glyph-name="p" unicode="p" horiz-adv-x="276" d="M-159 -231 C-167 -252 -139 -262 -131 -243 L-3 36 C7 12 29 0 62 0 C111 0 150 34 181 102 L255 260 C264 278 268 295 268 311 C268 354 244 375 196 375 C178 375 160 368 141 354 C143 370 118 376 112 360 L-159 -231 Z M196 347 C224 347 238 335 238 311 C238 301 234 288 227 272 L155 118 C128 58 97 28 62 28 C31 28 16 40 16 64 C16 69 18 77 21 88 L100 261 C127 318 159 347 196 347 L196 347 Z M183 0 C210 0 234 11 255 34 C276 57 292 80 301 104 C308 121 284 131 276 115 C276 114 275 113 275 112 C249 56 218 28 183 28 C176 28 172 23 172 14 C172 5 176 0 183 0 L183 0 Z " />
<glyph glyph-name="q" unicode="q" horiz-adv-x="291" d="M-3 -231 C-11 -252 17 -262 25 -243 L296 348 C304 369 276 379 268 360 L258 339 C247 363 226 375 193 375 C144 375 105 341 74 273 L0 115 C-9 97 -13 80 -13 64 C-13 23 16 0 63 0 C80 0 96 5 110 16 L-3 -231 Z M63 28 C32 28 17 40 17 64 C17 74 21 87 28 103 L100 257 C127 317 158 347 193 347 C224 347 239 335 239 311 C239 305 236 294 230 277 L150 103 C124 53 95 28 63 28 L63 28 Z M198 0 C225 0 249 11 270 34 C291 57 307 80 316 104 C323 121 299 131 291 115 C291 114 290 113 290 112 C264 56 233 28 198 28 C191 28 187 23 187 14 C187 5 191 0 198 0 L198 0 Z " />
<glyph glyph-name="r" unicode="r" horiz-adv-x="283" d="M133 115 C124 97 120 80 120 63 C120 21 144 0 191 0 C218 0 242 11 263 34 C284 57 300 80 309 104 C316 121 292 131 284 115 C284 114 283 113 283 112 C257 56 226 28 191 28 C164 28 150 40 150 63 C150 73 154 86 161 103 L236 264 C245 282 249 299 249 315 C249 358 225 382 185 379 C166 379 162 393 175 420 C186 439 155 450 147 433 L144 425 L1 115 C-10 90 17 85 26 104 L149 366 C157 356 169 351 185 351 C206 352 219 339 219 315 C219 305 215 292 208 276 L133 115 L133 115 Z " />
<glyph glyph-name="s" unicode="s" horiz-adv-x="254" d="M-16 6 C-2 1 13 -2 28 -2 C69 -2 104 14 134 45 C165 77 182 114 185 155 C186 176 180 207 166 249 C153 291 147 323 149 346 C150 359 153 372 160 387 L165 398 C176 419 145 429 137 410 L1 115 C-8 96 15 83 26 104 L120 303 C122 292 129 269 140 234 C151 200 156 173 155 154 C152 119 139 89 115 64 C92 40 64 28 31 28 C20 28 10 29 2 32 C-10 36 -20 42 -28 51 C-45 63 -62 44 -51 31 C-41 20 -29 12 -16 6 L-16 6 Z M162 0 C189 0 213 11 234 34 C255 57 271 80 280 104 C287 121 263 131 255 115 C255 114 254 113 254 112 C228 56 197 28 162 28 C155 28 151 23 151 14 C151 5 155 0 162 0 L162 0 Z " />
<glyph glyph-name="t" unicode="t" horiz-adv-x="159" d="M192 342 C201 342 207 347 210 356 C213 365 210 370 201 370 L150 370 L193 464 C201 485 173 495 165 476 L116 370 L84 370 C73 369 67 364 64 355 C62 346 66 342 75 342 L104 342 L0 115 C-9 97 -13 80 -13 63 C-13 21 13 0 66 0 C93 0 117 11 138 34 C159 57 175 80 184 104 C191 121 167 131 159 115 C159 114 158 113 158 112 C132 56 101 28 66 28 C33 28 17 40 17 63 C17 73 21 86 28 103 L137 342 L192 342 L192 342 Z " />
<glyph glyph-name="u" unicode="u" horiz-adv-x="307" d="M141 348 C149 369 121 379 113 360 L0 115 C-9 97 -13 80 -13 64 C-13 23 16 0 63 0 C93 0 120 15 144 46 C151 15 174 0 214 0 C241 0 265 11 286 34 C307 57 323 80 332 104 C339 121 315 131 307 115 C307 114 306 113 306 112 C280 56 249 28 214 28 C187 28 173 40 173 63 C173 73 177 86 184 103 L296 348 C304 369 276 379 268 360 L156 115 L151 105 C126 54 97 28 63 28 C32 28 17 40 17 64 C17 74 21 87 28 103 L141 348 L141 348 Z " />
<glyph glyph-name="v" unicode="v" horiz-adv-x="273" d="M224 183 C240 219 247 237 256 272 C265 308 261 339 245 364 C233 376 209 365 221 346 C233 327 236 307 225 272 C220 255 216 242 213 235 C210 228 204 213 195 192 L165 125 C156 105 141 84 121 61 C102 39 80 28 55 28 C30 28 17 40 17 64 C17 74 21 87 28 103 L141 348 C149 369 121 379 113 360 L0 115 C-9 97 -13 80 -13 64 C-13 23 12 0 55 0 C87 0 116 13 142 40 C169 67 187 96 198 125 L224 183 Z " />
<glyph glyph-name="w" unicode="w" horiz-adv-x="428" d="M380 183 C396 219 403 237 412 272 C421 308 417 339 401 364 C389 376 365 365 377 346 C389 327 392 307 381 272 C376 255 372 242 369 235 C366 228 360 213 351 192 L321 125 C312 105 297 84 277 61 C258 39 236 28 211 28 C186 28 173 40 173 64 C173 74 177 87 184 103 L192 121 C193 122 228 197 297 348 C305 369 277 379 269 360 L154 110 C123 55 90 28 55 28 C30 28 17 40 17 64 C17 74 21 87 28 103 L141 348 C149 369 121 379 113 360 L0 115 C-9 97 -13 80 -13 64 C-13 23 12 0 55 0 C86 0 116 17 144 51 C149 17 171 0 211 0 C243 0 272 13 298 40 C325 67 343 96 354 125 L380 183 Z " />
<glyph glyph-name="x" unicode="x" horiz-adv-x="382" d="M225 28 C198 28 185 46 185 82 C185 113 192 144 206 177 L220 209 C257 297 303 351 340 351 C364 351 376 339 376 315 C376 304 372 291 365 276 C356 255 381 245 392 265 C401 283 406 300 406 315 C406 358 384 379 340 379 C307 379 274 356 242 310 C238 349 215 379 168 379 C134 379 107 364 86 333 C65 303 56 271 57 237 C57 220 62 211 73 211 C86 211 91 219 89 236 C87 271 95 299 112 320 C129 341 148 351 167 351 C195 351 214 330 214 302 C214 277 204 244 185 202 L173 176 C134 85 91 28 52 28 C28 28 16 40 16 64 C16 75 19 87 25 102 C30 111 25 122 14 123 C6 123 1 120 -1 113 C-10 88 -14 72 -14 64 C-14 21 8 0 52 0 C87 0 121 25 154 76 C157 31 182 0 225 0 C278 0 318 50 334 103 C340 120 312 130 308 115 C285 57 258 28 225 28 L225 28 Z " />
<glyph glyph-name="y" unicode="y" horiz-adv-x="291" d="M-128 -31 C-157 -32 -180 -42 -197 -63 C-215 -84 -224 -106 -224 -129 C-224 -184 -185 -226 -105 -226 C-12 -226 64 -160 124 -28 L296 348 C304 369 276 379 268 360 L156 115 C129 57 98 28 63 28 C32 28 17 40 17 64 C17 74 21 87 28 103 L141 348 C149 369 121 379 113 360 L0 115 C-9 97 -13 80 -13 64 C-13 23 16 0 63 0 C80 0 95 5 110 14 L91 -28 C43 -135 -32 -198 -105 -198 C-165 -198 -194 -168 -194 -129 C-194 -97 -168 -62 -128 -59 C-107 -59 -107 -31 -128 -31 L-128 -31 Z M198 0 C225 0 249 11 270 34 C291 57 307 80 316 104 C323 121 299 131 291 115 C291 114 290 113 290 112 C264 56 233 28 198 28 C191 28 187 23 187 14 C187 5 191 0 198 0 L198 0 Z " />
<glyph glyph-name="z" unicode="z" horiz-adv-x="299" d="M0 115 C-11 90 16 85 25 104 L150 359 C161 345 176 338 195 338 L261 338 L117 170 L116 170 C113 170 108 169 105 169 C96 167 91 161 90 150 C90 141 93 138 100 140 C107 141 112 142 116 142 C175 142 175 68 116 -43 C63 -144 -12 -198 -88 -198 C-148 -198 -177 -168 -177 -129 C-177 -97 -151 -62 -111 -59 C-90 -59 -90 -31 -111 -31 C-140 -32 -163 -42 -180 -63 C-198 -84 -207 -106 -207 -129 C-207 -184 -168 -226 -88 -226 C4 -226 82 -168 145 -51 C206 62 205 145 148 165 L312 352 C325 369 301 384 288 370 L285 366 L195 366 C175 366 163 376 174 407 C185 426 154 437 146 420 L0 115 Z M206 0 C233 0 257 11 278 34 C299 57 315 80 324 104 C331 121 307 131 299 115 C299 114 298 113 298 112 C272 56 241 28 206 28 C199 28 195 23 195 14 C195 5 199 0 206 0 L206 0 Z " />
<glyph glyph-name="braceleft" unicode="&#x7b;" horiz-adv-x="309" d="M160 -127 C133 -123 103 -74 108 -9 C111 26 129 74 162 135 L161 134 C184 173 197 202 198 221 C199 234 195 247 186 258 C218 266 243 292 260 336 C287 404 322 461 365 506 C408 551 456 574 507 574 C525 574 540 570 552 563 C571 555 590 578 568 589 C550 599 530 604 509 604 C442 604 380 570 335 515 C290 460 260 408 233 345 C213 296 184 275 145 282 C126 284 125 255 142 253 C159 249 169 232 168 219 C167 208 153 175 124 120 C96 65 81 20 78 -13 C75 -53 81 -86 98 -113 C115 -140 134 -154 154 -157 C175 -159 177 -127 160 -127 L160 -127 Z " />
<glyph glyph-name="bar" unicode="&#x7c;" horiz-adv-x="235" d="M330 572 C335 583 332 590 323 593 C314 596 307 593 302 584 L51 25 C46 14 48 6 58 3 C68 0 76 4 81 16 L330 572 L330 572 Z " />
<glyph glyph-name="braceright" unicode="&#x7d;" horiz-adv-x="360" d="M223 572 C250 568 280 519 275 454 C272 421 257 379 230 329 C207 290 195 261 194 243 C193 230 197 217 206 206 C174 198 149 172 132 128 C105 59 68 -1 22 -52 C-24 -103 -73 -129 -124 -129 C-142 -129 -157 -125 -169 -118 C-188 -110 -207 -133 -185 -144 C-167 -154 -147 -159 -126 -159 C-59 -159 5 -120 53 -60 C101 -1 132 55 159 119 C179 168 208 189 247 182 C266 180 267 209 250 211 C233 215 223 232 224 245 C225 256 238 285 263 334 C288 383 302 425 305 458 C308 498 301 531 284 558 C267 585 249 599 229 602 C208 604 206 572 223 572 L223 572 Z " />
<glyph glyph-name="asciitilde" unicode="&#x7e;" horiz-adv-x="897" d="M133 147 C148 182 172 211 205 233 C239 255 275 266 312 266 C363 266 419 232 458 197 C497 164 559 129 622 129 C661 129 702 140 743 163 C784 186 812 215 827 250 C836 269 808 286 799 262 C786 232 762 207 726 188 C691 169 656 159 622 159 C566 159 506 194 467 227 C428 262 369 296 312 296 C269 296 227 283 188 258 C149 233 121 200 105 159 C92 127 125 129 133 147 L133 147 Z " />
<glyph glyph-name="exclamdown" unicode="&#xa1;" horiz-adv-x="233" d="M172 339 C168 319 182 303 202 303 C221 303 241 319 242 339 C246 358 234 374 214 374 C194 374 176 358 172 339 L172 339 Z M-51 -197 C-56 -208 -53 -215 -44 -218 C-35 -221 -28 -218 -23 -209 L174 231 C179 242 177 250 167 253 C157 256 149 252 144 240 L-51 -197 Z " />
<glyph glyph-name="cent" unicode="&#xa2;" horiz-adv-x="581" d="M486 572 C490 593 464 603 458 584 L444 553 C441 554 435 554 428 554 C373 554 318 529 264 480 C211 431 174 371 153 300 C144 269 140 238 141 205 C142 136 172 80 223 55 L209 23 C203 2 231 -10 237 14 L251 45 C262 42 274 41 289 41 C336 41 381 57 424 90 C437 99 441 107 436 116 C432 125 424 125 413 116 C373 85 332 69 289 69 C277 69 268 70 262 71 L463 521 C490 513 511 496 527 470 C533 462 539 461 546 466 C553 474 553 482 547 491 C529 518 505 537 475 547 L486 572 Z M168 205 C168 240 172 269 179 292 C198 357 231 412 280 457 C329 503 378 526 428 526 L432 526 L235 81 C192 104 169 145 168 205 L168 205 Z " />
<glyph glyph-name="sterling" unicode="&#xa3;" horiz-adv-x="669" d="M340 321 L320 275 C289 205 248 158 197 133 C156 160 120 174 90 174 C49 175 11 163 11 131 C11 100 38 84 91 84 C130 84 165 91 195 104 L224 82 C244 68 256 60 260 57 C265 55 276 49 293 38 C311 28 325 21 335 18 C355 13 390 3 422 3 C468 3 505 15 533 38 C561 61 577 88 580 118 C583 149 572 173 547 192 C528 205 516 190 531 178 C548 160 555 141 553 120 C546 72 496 28 423 28 C398 28 371 33 343 44 C316 55 295 64 282 72 C269 81 249 95 220 116 C271 147 313 197 344 268 L368 321 L446 321 C468 321 468 346 446 346 L379 346 L414 424 C457 515 519 577 591 577 C648 577 683 544 683 507 C684 472 657 441 620 441 C587 441 569 458 569 479 C570 488 573 497 579 506 C584 509 585 513 582 516 C577 521 570 521 559 516 C550 507 546 495 546 479 C547 446 573 416 621 417 C672 417 709 461 708 509 C707 558 662 601 591 601 C508 601 435 532 390 431 L351 346 L267 346 C247 346 247 321 267 321 L340 321 Z M91 110 C56 110 38 117 38 131 C37 143 54 149 90 149 C113 149 140 140 169 121 C146 114 120 110 91 110 L91 110 Z " />
<glyph glyph-name="currency" unicode="&#xa4;" horiz-adv-x="677" d="M341 381 C300 381 266 367 237 338 C222 322 240 304 257 320 C278 342 306 353 341 353 C363 353 392 343 428 324 C437 320 439 318 434 314 C409 305 379 273 344 218 C336 204 334 193 339 186 C344 178 353 179 364 188 C387 207 432 207 453 186 C464 176 470 162 470 145 C470 104 447 69 402 42 C357 15 303 1 241 1 C236 1 222 1 222 4 L224 11 C229 28 231 45 231 64 C231 79 229 99 225 126 C221 153 219 172 219 183 C219 215 244 239 277 239 C292 239 303 231 310 216 C318 199 342 208 336 229 C330 256 310 269 277 269 C228 269 189 231 189 183 C189 169 192 148 197 120 C202 98 204 80 204 65 C204 45 198 6 189 9 C184 10 181 11 179 12 L178 12 C167 17 159 14 156 4 C152 -7 157 -15 172 -19 C195 -26 219 -29 246 -29 C313 -29 372 -12 423 21 C474 55 500 96 500 145 C500 196 464 231 411 231 C400 231 392 230 385 228 C417 275 457 306 482 291 C523 268 558 256 589 256 C628 256 658 270 679 297 C687 309 682 318 673 321 C667 322 662 320 657 315 C642 294 620 284 589 284 C563 284 524 299 473 330 C414 364 370 381 341 381 L341 381 Z " />
<glyph glyph-name="yen" unicode="&#xa5;" horiz-adv-x="456" d="M189 210 L166 157 L90 157 C80 157 75 152 75 143 C75 134 80 129 90 129 L153 129 L103 16 C98 5 101 -2 110 -5 C119 -8 126 -5 131 4 L187 129 L269 129 C291 129 291 157 269 157 L199 157 L223 210 L306 210 C328 210 328 238 306 238 L239 238 L516 519 C522 526 522 533 516 540 C507 549 498 548 489 539 L229 271 L184 543 C183 553 177 556 167 553 C157 550 153 544 154 533 L203 240 L202 238 L127 238 C117 238 112 233 112 224 C112 215 117 210 127 210 L189 210 Z " />
<glyph glyph-name="brokenbar" unicode="&#xa6;" horiz-adv-x="235" d="M342 602 C347 613 344 620 335 623 C326 626 319 623 314 614 L197 352 C192 341 194 333 204 330 C214 327 222 331 227 343 L342 602 Z M187 254 C192 265 189 272 180 275 C171 278 164 275 159 266 L42 4 C37 -7 39 -15 49 -18 C59 -21 67 -17 72 -5 L187 254 Z " />
<glyph glyph-name="section" unicode="&#xa7;" horiz-adv-x="677" d="M341 381 C300 381 266 367 237 338 C222 322 240 304 257 320 C278 342 306 353 341 353 C363 353 392 343 428 324 C437 320 439 318 434 314 C409 305 379 273 344 218 C336 204 334 193 339 186 C344 178 353 179 364 188 C387 207 432 207 453 186 C464 176 470 162 470 145 C470 104 447 69 402 42 C357 15 303 1 241 1 C236 1 222 1 222 4 L224 11 C229 28 231 45 231 64 C231 79 229 99 225 126 C221 153 219 172 219 183 C219 215 244 239 277 239 C292 239 303 231 310 216 C318 199 342 208 336 229 C330 256 310 269 277 269 C228 269 189 231 189 183 C189 169 192 148 197 120 C202 98 204 80 204 65 C204 45 198 6 189 9 C184 10 181 11 179 12 L178 12 C167 17 159 14 156 4 C152 -7 157 -15 172 -19 C195 -26 219 -29 246 -29 C313 -29 372 -12 423 21 C474 55 500 96 500 145 C500 196 464 231 411 231 C400 231 392 230 385 228 C417 275 457 306 482 291 C523 268 558 256 589 256 C628 256 658 270 679 297 C687 309 682 318 673 321 C667 322 662 320 657 315 C642 294 620 284 589 284 C563 284 524 299 473 330 C414 364 370 381 341 381 L341 381 Z " />
<glyph glyph-name="dieresis" unicode="&#xa8;" horiz-adv-x="151" d="M130 432 C153 432 172 461 157 478 C143 496 110 483 108 459 C105 444 114 432 130 432 L130 432 Z M219 432 C242 432 261 461 246 478 C232 496 199 483 197 459 C194 444 203 432 219 432 L219 432 Z " />
<glyph glyph-name="copyright" unicode="&#xa9;" horiz-adv-x="506" d="M156 162 C192 127 235 109 286 109 C337 109 380 127 415 162 C451 198 469 241 469 292 C469 343 451 386 415 421 C380 457 337 475 286 475 C235 475 192 457 156 421 C121 386 103 343 103 292 C103 241 121 198 156 162 L156 162 Z M177 400 C207 430 243 445 286 445 C329 445 365 430 394 400 C424 371 439 335 439 292 C439 249 424 213 394 183 C365 154 329 139 286 139 C243 139 207 154 177 183 C148 213 133 249 133 292 C133 335 148 371 177 400 L177 400 Z M290 406 C263 406 239 395 219 373 C200 352 190 326 190 295 C190 264 200 238 219 216 C239 195 263 184 290 184 C311 184 329 190 345 203 C354 210 355 217 350 226 C345 235 339 236 331 229 C319 219 305 214 290 214 C251 214 220 250 220 295 C220 340 251 376 290 376 C305 376 319 371 331 361 C338 354 345 355 350 362 C357 371 355 380 345 387 C329 400 311 406 290 406 L290 406 Z " />
<glyph glyph-name="ordfeminine" unicode="&#xaa;" horiz-adv-x="307" d="M274 297 C295 297 314 306 332 324 C350 342 363 361 372 380 C383 401 361 409 350 391 C325 346 300 323 274 323 C252 323 241 332 241 349 C241 358 244 368 250 380 L338 573 C347 594 324 604 313 584 L306 570 C297 589 281 598 257 598 C220 598 188 571 161 516 L103 391 C96 377 93 363 93 350 C93 315 114 297 155 297 C178 297 199 309 216 334 C222 309 241 297 274 297 L274 297 Z M155 323 C132 323 120 333 120 352 C120 357 123 367 128 382 L185 503 C208 549 232 572 257 572 C279 572 290 563 290 544 C290 539 288 532 285 522 L225 391 C224 388 221 383 220 380 C201 342 180 323 155 323 L155 323 Z " />
<glyph glyph-name="guillemotleft" unicode="&#xab;" horiz-adv-x="453" d="M165 201 C165 204 176 216 198 238 L242 281 C248 287 249 294 244 302 C238 311 231 311 224 304 L148 228 C125 205 126 196 146 176 L219 103 C230 94 246 115 234 129 L201 162 C177 186 165 199 165 201 L165 201 Z M296 201 C296 204 307 216 329 238 L373 281 C379 287 380 294 375 302 C369 311 362 311 355 304 L279 228 C256 205 257 196 277 176 L350 103 C361 94 377 115 365 129 L332 162 C308 186 296 199 296 201 L296 201 Z " />
<glyph glyph-name="logicalnot" unicode="&#xac;" horiz-adv-x="677" d="M341 381 C300 381 266 367 237 338 C222 322 240 304 257 320 C278 342 306 353 341 353 C363 353 392 343 428 324 C437 320 439 318 434 314 C409 305 379 273 344 218 C336 204 334 193 339 186 C344 178 353 179 364 188 C387 207 432 207 453 186 C464 176 470 162 470 145 C470 104 447 69 402 42 C357 15 303 1 241 1 C236 1 222 1 222 4 L224 11 C229 28 231 45 231 64 C231 79 229 99 225 126 C221 153 219 172 219 183 C219 215 244 239 277 239 C292 239 303 231 310 216 C318 199 342 208 336 229 C330 256 310 269 277 269 C228 269 189 231 189 183 C189 169 192 148 197 120 C202 98 204 80 204 65 C204 45 198 6 189 9 C184 10 181 11 179 12 L178 12 C167 17 159 14 156 4 C152 -7 157 -15 172 -19 C195 -26 219 -29 246 -29 C313 -29 372 -12 423 21 C474 55 500 96 500 145 C500 196 464 231 411 231 C400 231 392 230 385 228 C417 275 457 306 482 291 C523 268 558 256 589 256 C628 256 658 270 679 297 C687 309 682 318 673 321 C667 322 662 320 657 315 C642 294 620 284 589 284 C563 284 524 299 473 330 C414 364 370 381 341 381 L341 381 Z " />
<glyph glyph-name="uni00AD" unicode="&#xad;" horiz-adv-x="327" d="M263 210 C285 210 285 238 263 238 L84 238 C74 238 69 233 69 224 C69 215 74 210 84 210 L263 210 Z " />
<glyph glyph-name="registered" unicode="&#xae;" horiz-adv-x="506" d="M156 162 C192 127 235 109 286 109 C337 109 380 127 415 162 C451 198 469 241 469 292 C469 343 451 386 415 421 C380 457 337 475 286 475 C235 475 192 457 156 421 C121 386 103 343 103 292 C103 241 121 198 156 162 L156 162 Z M177 400 C207 430 243 445 286 445 C329 445 365 430 394 400 C424 371 439 335 439 292 C439 249 424 213 394 183 C365 154 329 139 286 139 C243 139 207 154 177 183 C148 213 133 249 133 292 C133 335 148 371 177 400 L177 400 Z M247 365 C256 368 266 370 278 370 C307 370 325 352 325 331 C325 311 310 296 283 296 C276 296 270 296 267 297 C259 297 255 292 254 282 C254 272 258 267 267 267 C269 266 271 266 274 266 C289 217 310 192 339 192 C345 192 352 194 361 197 C370 200 373 207 370 217 C367 228 361 230 352 225 C349 223 344 222 339 222 C325 222 314 237 305 268 C337 276 355 300 355 331 C355 368 327 400 278 400 C251 400 230 393 217 380 L217 208 C217 200 222 196 232 195 C242 195 247 199 247 208 L247 365 Z " />
<glyph glyph-name="overscore" unicode="&#xaf;" horiz-adv-x="272" d="M316 449 C338 449 338 477 316 477 L137 477 C127 477 122 472 122 463 C122 454 127 449 137 449 L316 449 Z " />
<glyph glyph-name="degree" unicode="&#xb0;" horiz-adv-x="267" d="M113 501 C113 466 140 439 176 439 C199 439 221 448 241 467 C262 486 272 508 272 533 C272 569 247 595 211 595 C185 595 162 585 142 566 C123 547 113 525 113 501 L113 501 Z M205 565 C226 565 241 549 241 526 C241 495 211 469 182 469 C159 469 145 484 145 505 C145 538 174 565 205 565 L205 565 Z " />
<glyph glyph-name="plusminus" unicode="&#xb1;" horiz-adv-x="405" d="M227 238 L118 238 C108 238 103 233 103 224 C103 215 108 210 118 210 L215 210 L173 115 C169 105 171 98 179 94 C188 91 194 94 199 104 L245 210 L356 210 C378 210 378 238 356 238 L257 238 L294 322 C302 340 277 351 269 333 L227 238 Z M291 34 C313 34 313 62 291 62 L53 62 C43 62 38 57 38 48 C38 39 43 34 53 34 L291 34 Z " />
<glyph glyph-name="twosuperior" unicode="&#xb2;" horiz-adv-x="493" d="M435 268 C447 268 453 273 453 283 C453 293 447 298 435 298 L264 298 C339 329 398 368 441 416 C484 465 506 509 506 548 C506 619 457 670 381 670 C336 670 301 656 274 627 C247 599 234 567 234 531 C234 503 243 479 261 459 C274 442 302 463 283 480 C270 492 264 511 264 536 C264 562 275 586 297 607 C319 629 347 640 381 640 C442 640 477 603 477 548 C477 499 440 447 367 392 C294 337 224 305 157 298 L148 298 C137 298 131 293 131 283 C131 273 137 268 148 268 L435 268 Z " />
<glyph glyph-name="threesuperior" unicode="&#xb3;" horiz-adv-x="412" d="M241 366 C267 366 290 369 310 376 C320 361 325 344 325 327 C325 281 300 237 250 196 C201 155 147 135 89 135 C72 135 50 138 22 145 L17 145 C8 145 1 137 1 129 C1 121 11 115 31 111 C52 107 71 105 88 105 C156 105 217 129 272 177 C327 225 355 275 355 327 C355 350 349 369 338 386 C377 403 407 429 430 462 C453 495 464 528 464 560 C464 589 453 616 430 640 C408 664 377 676 338 676 C296 676 261 663 233 638 C205 613 191 583 191 550 C191 499 231 458 287 458 C313 458 336 467 356 485 C376 503 386 522 386 543 C386 556 382 569 375 582 C369 591 362 593 355 590 C347 587 345 582 348 575 C354 567 357 557 357 545 C357 512 323 487 287 487 C246 487 219 516 219 551 C219 575 230 597 253 617 C276 637 304 647 338 647 C402 647 435 601 435 560 C435 501 390 437 319 409 C296 430 270 440 241 440 C209 440 185 421 185 400 C185 381 208 366 241 366 L241 366 Z M241 395 C208 395 209 411 238 411 C255 411 271 407 284 399 C273 396 258 395 241 395 L241 395 Z " />
<glyph glyph-name="acute" unicode="&#xb4;" horiz-adv-x="258" d="M347 572 C364 583 353 605 332 595 L193 497 C184 491 182 484 187 477 C192 470 199 469 208 474 L347 572 Z " />
<glyph glyph-name="&amp;#xb5;" unicode="&#xb5;" horiz-adv-x="307" d="M141 348 C149 369 121 379 113 360 L-115 -134 C-123 -155 -95 -165 -87 -146 L-5 31 C6 10 28 0 63 0 C93 0 120 15 144 46 C151 15 174 0 214 0 C241 0 265 11 286 34 C307 57 323 80 332 104 C339 121 315 131 307 115 C307 114 306 113 306 112 C280 56 249 28 214 28 C187 28 173 40 173 63 C173 73 177 86 184 103 L296 348 C304 369 276 379 268 360 L156 115 L151 105 C126 54 97 28 63 28 C32 28 17 40 17 64 C17 74 21 87 28 103 L141 348 L141 348 Z " />
<glyph glyph-name="&amp;#x3bc;" unicode="&#x3bc;" horiz-adv-x="307" d="M141 348 C149 369 121 379 113 360 L-115 -134 C-123 -155 -95 -165 -87 -146 L-5 31 C6 10 28 0 63 0 C93 0 120 15 144 46 C151 15 174 0 214 0 C241 0 265 11 286 34 C307 57 323 80 332 104 C339 121 315 131 307 115 C307 114 306 113 306 112 C280 56 249 28 214 28 C187 28 173 40 173 63 C173 73 177 86 184 103 L296 348 C304 369 276 379 268 360 L156 115 L151 105 C126 54 97 28 63 28 C32 28 17 40 17 64 C17 74 21 87 28 103 L141 348 L141 348 Z " />
<glyph glyph-name="paragraph" unicode="&#xb6;" horiz-adv-x="677" d="M341 381 C300 381 266 367 237 338 C222 322 240 304 257 320 C278 342 306 353 341 353 C363 353 392 343 428 324 C437 320 439 318 434 314 C409 305 379 273 344 218 C336 204 334 193 339 186 C344 178 353 179 364 188 C387 207 432 207 453 186 C464 176 470 162 470 145 C470 104 447 69 402 42 C357 15 303 1 241 1 C236 1 222 1 222 4 L224 11 C229 28 231 45 231 64 C231 79 229 99 225 126 C221 153 219 172 219 183 C219 215 244 239 277 239 C292 239 303 231 310 216 C318 199 342 208 336 229 C330 256 310 269 277 269 C228 269 189 231 189 183 C189 169 192 148 197 120 C202 98 204 80 204 65 C204 45 198 6 189 9 C184 10 181 11 179 12 L178 12 C167 17 159 14 156 4 C152 -7 157 -15 172 -19 C195 -26 219 -29 246 -29 C313 -29 372 -12 423 21 C474 55 500 96 500 145 C500 196 464 231 411 231 C400 231 392 230 385 228 C417 275 457 306 482 291 C523 268 558 256 589 256 C628 256 658 270 679 297 C687 309 682 318 673 321 C667 322 662 320 657 315 C642 294 620 284 589 284 C563 284 524 299 473 330 C414 364 370 381 341 381 L341 381 Z " />
<glyph glyph-name="middot" unicode="&#xb7;" horiz-adv-x="193" d="M124 186 C147 186 166 215 151 232 C137 250 104 237 102 213 C99 198 108 186 124 186 L124 186 Z " />
<glyph glyph-name="cedilla" unicode="&#xb8;" horiz-adv-x="232" d="M41 32 C33 11 30 -3 32 -10 C34 -18 38 -28 44 -41 C50 -54 53 -66 53 -77 C53 -98 36 -115 15 -115 C8 -115 2 -113 -5 -109 C-25 -96 -40 -126 -21 -135 C-10 -142 2 -145 15 -145 C52 -145 83 -114 83 -77 C83 -56 67 -25 62 -10 C60 -3 62 9 69 24 C74 32 72 38 63 43 C53 47 46 43 41 32 L41 32 Z " />
<glyph glyph-name="onesuperior" unicode="&#xb9;" horiz-adv-x="295" d="M221 524 C196 510 174 501 153 497 C136 493 137 468 150 468 C164 468 181 472 202 481 L123 311 C122 310 122 308 122 306 C122 299 127 296 137 296 C143 296 147 298 150 302 L244 505 C277 527 303 551 322 576 C341 599 350 618 350 633 C350 649 338 662 322 662 C298 662 278 644 261 609 L221 524 Z M288 600 C297 620 306 630 315 630 C318 630 319 628 319 625 C319 619 314 608 303 592 C294 580 282 568 267 555 L288 600 Z " />
<glyph glyph-name="ordmasculine" unicode="&#xba;" horiz-adv-x="386" d="M59 477 C50 453 46 427 46 399 C46 327 87 279 154 279 C210 279 262 306 309 361 C356 416 380 474 380 534 C380 610 339 660 270 660 C229 660 188 642 147 606 C106 571 77 528 59 477 L59 477 Z M88 467 C103 512 129 550 164 581 C199 613 234 629 269 629 C318 629 349 590 349 531 C349 482 328 433 287 384 C246 335 202 311 155 311 C107 311 77 347 77 399 C77 424 81 446 88 467 L88 467 Z " />
<glyph glyph-name="guillemotright" unicode="&#xbb;" horiz-adv-x="466" d="M352 201 C352 199 340 186 316 162 L283 129 C271 115 287 94 298 103 L371 176 C391 196 392 205 369 228 L293 304 C286 311 280 310 274 303 C268 295 268 288 275 281 L319 238 C341 216 352 204 352 201 L352 201 Z M221 201 C221 199 209 186 185 162 L152 129 C140 115 156 94 167 103 L240 176 C260 196 261 205 238 228 L162 304 C155 311 149 310 143 303 C137 295 137 288 144 281 L188 238 C210 216 221 204 221 201 L221 201 Z " />
<glyph glyph-name="onequarter" unicode="&#xbc;" horiz-adv-x="734" d="M351 35 C397 80 437 132 470 189 C503 246 520 304 520 361 C520 372 519 385 516 398 C514 409 508 413 498 412 C487 411 482 400 485 391 C488 378 490 366 490 357 C490 310 476 261 447 210 C419 159 385 113 344 71 C334 61 318 47 297 28 C289 21 285 14 285 7 C285 -4 291 -10 303 -10 L440 -10 L393 -115 C388 -125 391 -131 400 -134 C409 -137 417 -133 422 -122 L473 -10 L528 -10 C558 -8 559 20 529 20 L489 20 L629 327 C640 348 612 354 602 338 L458 20 L336 20 L351 35 Z M221 524 C196 510 174 501 153 497 C136 493 137 468 150 468 C164 468 181 472 202 481 L123 311 C118 301 120 295 129 292 C138 289 145 293 150 302 L244 505 C273 524 299 547 322 576 C341 601 350 620 350 633 C350 649 338 662 322 662 C298 662 278 644 261 609 L221 524 Z M288 600 C297 620 306 630 315 630 C318 630 319 628 319 625 C319 619 314 608 303 592 C294 580 282 568 267 555 L288 600 Z M497 572 C502 583 499 590 490 593 C481 596 474 593 469 584 L118 23 C113 12 115 4 125 1 C135 -2 143 2 148 14 L497 572 Z " />
<glyph glyph-name="onehalf" unicode="&#xbd;" horiz-adv-x="734" d="M608 -6 C620 -6 626 -1 626 9 C626 19 620 24 608 24 L436 24 C510 57 569 98 613 145 C657 193 679 236 679 274 C679 345 630 396 554 396 C509 396 474 382 447 353 C420 325 407 293 407 257 C407 235 416 211 434 185 C444 172 470 186 456 206 C443 225 437 243 437 262 C437 288 448 312 470 333 C492 355 520 366 554 366 C615 366 650 329 650 274 C650 225 613 173 540 118 C467 63 397 31 330 24 L321 24 C310 24 304 19 304 9 C304 -1 310 -6 321 -6 L608 -6 Z M221 524 C196 510 174 501 153 497 C136 493 137 468 150 468 C164 468 181 472 202 481 L123 311 C122 310 122 308 122 306 C122 299 127 296 137 296 C143 296 147 298 150 302 L244 505 C277 527 303 551 322 576 C341 599 350 618 350 633 C350 649 338 662 322 662 C298 662 278 644 261 609 L221 524 Z M288 600 C297 620 306 630 315 630 C318 630 319 628 319 625 C319 619 314 608 303 592 C294 580 282 568 267 555 L288 600 Z M497 572 C502 583 499 590 490 593 C481 596 474 593 469 584 L118 23 C113 12 115 4 125 1 C135 -2 143 2 148 14 L497 572 Z " />
<glyph glyph-name="threequarters" unicode="&#xbe;" horiz-adv-x="853" d="M220 366 C245 366 267 369 287 375 C297 362 302 346 302 327 C302 281 277 237 227 196 C178 155 124 135 66 135 C49 135 27 138 -1 145 L-6 145 C-15 145 -22 137 -22 129 C-22 121 -12 115 8 111 C29 107 48 105 65 105 C133 105 194 129 249 177 C304 225 332 275 332 327 C332 349 326 369 315 386 C392 419 441 495 441 560 C441 589 430 616 407 640 C385 664 354 676 315 676 C273 676 238 663 210 638 C182 613 168 583 168 550 C168 499 208 458 264 458 C290 458 313 467 333 485 C353 503 363 522 363 543 C363 556 359 569 352 582 C346 591 339 593 332 590 C324 587 322 582 325 575 C331 567 334 557 334 545 C334 512 300 487 264 487 C223 487 196 516 196 551 C196 575 207 597 230 617 C253 637 281 647 315 647 C379 647 412 601 412 560 C412 501 367 436 296 409 C274 430 248 440 218 440 C186 440 162 421 162 400 C162 381 185 366 220 366 L220 366 Z M469 35 C515 80 555 132 588 189 C621 246 638 304 638 361 C638 372 637 385 634 398 C632 409 626 413 616 412 C605 411 600 400 603 391 C606 378 608 366 608 357 C608 310 594 261 565 210 C537 159 503 113 462 71 C452 61 436 47 415 28 C407 21 403 14 403 7 C403 -4 409 -10 421 -10 L558 -10 L511 -115 C506 -125 509 -131 518 -134 C527 -137 535 -133 540 -122 L591 -10 L646 -10 C676 -8 677 20 647 20 L607 20 L747 327 C758 348 730 354 720 338 L576 20 L454 20 L469 35 Z M220 395 C184 395 186 411 215 411 C232 411 248 407 262 399 C251 396 237 395 220 395 L220 395 Z M616 572 C621 583 618 590 609 593 C600 596 593 593 588 584 L237 23 C232 12 234 4 244 1 C254 -2 262 2 267 14 L616 572 Z " />
<glyph glyph-name="questiondown" unicode="&#xbf;" horiz-adv-x="400" d="M322 339 C318 319 332 303 352 303 C382 303 403 342 386 364 C370 387 328 368 322 339 L322 339 Z M150 -11 C171 10 196 20 227 20 C286 20 320 -26 320 -81 C320 -116 305 -148 274 -177 C243 -206 203 -221 154 -221 C101 -221 60 -205 33 -174 C6 -143 -7 -109 -7 -74 C-9 29 98 84 186 124 C247 153 308 188 327 228 C338 252 314 262 305 245 C278 186 155 147 69 95 C8 59 -38 1 -38 -74 C-38 -119 -21 -159 13 -196 C47 -233 94 -251 154 -251 C210 -251 256 -234 293 -199 C330 -164 349 -125 349 -80 C349 -8 300 50 228 50 C190 50 157 36 130 9 C117 -4 137 -26 150 -11 L150 -11 Z " />
<glyph glyph-name="Agrave" unicode="&#xc0;" horiz-adv-x="1083" d="M861 51 C826 -24 816 -153 919 -153 C926 -153 934 -152 943 -150 C954 -146 960 -139 960 -128 C959 -119 954 -116 943 -120 C935 -122 928 -123 922 -123 C846 -123 861 -19 889 39 L1083 458 C1142 585 1205 648 1272 648 C1299 647 1319 641 1334 628 C1343 621 1350 621 1356 630 C1362 639 1360 647 1350 654 C1330 669 1302 676 1267 676 C1114 676 986 604 884 500 C813 429 762 355 717 268 C594 56 458 -50 309 -50 C244 -50 186 -28 136 16 C86 61 61 117 61 184 C61 247 83 302 126 348 C170 395 226 418 295 418 C408 418 470 359 470 278 C470 248 458 222 435 201 C414 183 437 165 456 180 C485 208 500 241 500 278 C500 375 428 448 297 448 C220 448 156 422 106 369 C56 316 31 255 31 184 C31 107 58 44 112 -5 C166 -55 232 -80 309 -80 C367 -80 424 -64 479 -33 C534 -2 582 35 621 80 C661 125 698 176 733 235 L945 235 L861 51 Z M1174 638 C1131 602 1089 540 1047 451 L958 262 L748 262 C863 477 1005 602 1174 638 L1174 638 Z M1226 767 C1235 762 1241 763 1246 770 C1251 777 1250 784 1241 790 L1139 888 C1118 898 1107 876 1124 865 L1226 767 Z " />
<glyph glyph-name="Aacute" unicode="&#xc1;" horiz-adv-x="1083" d="M861 51 C826 -24 816 -153 919 -153 C926 -153 934 -152 943 -150 C954 -146 960 -139 960 -128 C959 -119 954 -116 943 -120 C935 -122 928 -123 922 -123 C846 -123 861 -19 889 39 L1083 458 C1142 585 1205 648 1272 648 C1299 647 1319 641 1334 628 C1343 621 1350 621 1356 630 C1362 639 1360 647 1350 654 C1330 669 1302 676 1267 676 C1114 676 986 604 884 500 C813 429 762 355 717 268 C594 56 458 -50 309 -50 C244 -50 186 -28 136 16 C86 61 61 117 61 184 C61 247 83 302 126 348 C170 395 226 418 295 418 C408 418 470 359 470 278 C470 248 458 222 435 201 C414 183 437 165 456 180 C485 208 500 241 500 278 C500 375 428 448 297 448 C220 448 156 422 106 369 C56 316 31 255 31 184 C31 107 58 44 112 -5 C166 -55 232 -80 309 -80 C367 -80 424 -64 479 -33 C534 -2 582 35 621 80 C661 125 698 176 733 235 L945 235 L861 51 Z M1174 638 C1131 602 1089 540 1047 451 L958 262 L748 262 C863 477 1005 602 1174 638 L1174 638 Z M1313 865 C1330 876 1319 898 1298 888 L1159 790 C1150 784 1148 777 1153 770 C1158 763 1165 762 1174 767 L1313 865 Z " />
<glyph glyph-name="Acircumflex" unicode="&#xc2;" horiz-adv-x="1083" d="M861 51 C826 -24 816 -153 919 -153 C926 -153 934 -152 943 -150 C954 -146 960 -139 960 -128 C959 -119 954 -116 943 -120 C935 -122 928 -123 922 -123 C846 -123 861 -19 889 39 L1083 458 C1142 585 1205 648 1272 648 C1299 647 1319 641 1334 628 C1343 621 1350 621 1356 630 C1362 639 1360 647 1350 654 C1330 669 1302 676 1267 676 C1114 676 986 604 884 500 C813 429 762 355 717 268 C594 56 458 -50 309 -50 C244 -50 186 -28 136 16 C86 61 61 117 61 184 C61 247 83 302 126 348 C170 395 226 418 295 418 C408 418 470 359 470 278 C470 248 458 222 435 201 C414 183 437 165 456 180 C485 208 500 241 500 278 C500 375 428 448 297 448 C220 448 156 422 106 369 C56 316 31 255 31 184 C31 107 58 44 112 -5 C166 -55 232 -80 309 -80 C367 -80 424 -64 479 -33 C534 -2 582 35 621 80 C661 125 698 176 733 235 L945 235 L861 51 Z M1174 638 C1131 602 1089 540 1047 451 L958 262 L748 262 C863 477 1005 602 1174 638 L1174 638 Z M1285 882 C1282 891 1274 891 1262 882 L1134 791 C1117 780 1128 758 1149 768 L1268 852 L1306 770 C1316 758 1338 771 1329 786 L1285 882 Z " />
<glyph glyph-name="Atilde" unicode="&#xc3;" horiz-adv-x="1083" d="M861 51 C826 -24 816 -153 919 -153 C926 -153 934 -152 943 -150 C954 -146 960 -139 960 -128 C959 -119 954 -116 943 -120 C935 -122 928 -123 922 -123 C846 -123 861 -19 889 39 L1083 458 C1142 585 1205 648 1272 648 C1299 647 1319 641 1334 628 C1343 621 1350 621 1356 630 C1362 639 1360 647 1350 654 C1330 669 1302 676 1267 676 C1114 676 986 604 884 500 C813 429 762 355 717 268 C594 56 458 -50 309 -50 C244 -50 186 -28 136 16 C86 61 61 117 61 184 C61 247 83 302 126 348 C170 395 226 418 295 418 C408 418 470 359 470 278 C470 248 458 222 435 201 C414 183 437 165 456 180 C485 208 500 241 500 278 C500 375 428 448 297 448 C220 448 156 422 106 369 C56 316 31 255 31 184 C31 107 58 44 112 -5 C166 -55 232 -80 309 -80 C367 -80 424 -64 479 -33 C534 -2 582 35 621 80 C661 125 698 176 733 235 L945 235 L861 51 Z M1174 638 C1131 602 1089 540 1047 451 L958 262 L748 262 C863 477 1005 602 1174 638 L1174 638 Z M1171 734 C1217 770 1247 693 1303 734 C1320 746 1309 769 1288 757 C1244 731 1221 804 1155 757 C1133 740 1148 719 1171 734 L1171 734 Z " />
<glyph glyph-name="Adieresis" unicode="&#xc4;" horiz-adv-x="1083" d="M861 51 C826 -24 816 -153 919 -153 C926 -153 934 -152 943 -150 C954 -146 960 -139 960 -128 C959 -119 954 -116 943 -120 C935 -122 928 -123 922 -123 C846 -123 861 -19 889 39 L1083 458 C1142 585 1205 648 1272 648 C1299 647 1319 641 1334 628 C1343 621 1350 621 1356 630 C1362 639 1360 647 1350 654 C1330 669 1302 676 1267 676 C1114 676 986 604 884 500 C813 429 762 355 717 268 C594 56 458 -50 309 -50 C244 -50 186 -28 136 16 C86 61 61 117 61 184 C61 247 83 302 126 348 C170 395 226 418 295 418 C408 418 470 359 470 278 C470 248 458 222 435 201 C414 183 437 165 456 180 C485 208 500 241 500 278 C500 375 428 448 297 448 C220 448 156 422 106 369 C56 316 31 255 31 184 C31 107 58 44 112 -5 C166 -55 232 -80 309 -80 C367 -80 424 -64 479 -33 C534 -2 582 35 621 80 C661 125 698 176 733 235 L945 235 L861 51 Z M1174 638 C1131 602 1089 540 1047 451 L958 262 L748 262 C863 477 1005 602 1174 638 L1174 638 Z M1155 725 C1178 725 1197 754 1182 771 C1168 789 1135 776 1133 752 C1130 737 1139 725 1155 725 L1155 725 Z M1244 725 C1267 725 1286 754 1271 771 C1257 789 1224 776 1222 752 C1219 737 1228 725 1244 725 L1244 725 Z " />
<glyph glyph-name="Aring" unicode="&#xc5;" horiz-adv-x="1083" d="M861 51 C826 -24 816 -153 919 -153 C926 -153 934 -152 943 -150 C954 -146 960 -139 960 -128 C959 -119 954 -116 943 -120 C935 -122 928 -123 922 -123 C846 -123 861 -19 889 39 L1083 458 C1142 585 1205 648 1272 648 C1299 647 1319 641 1334 628 C1343 621 1350 621 1356 630 C1362 639 1360 647 1350 654 C1330 669 1302 676 1267 676 C1114 676 986 604 884 500 C813 429 762 355 717 268 C594 56 458 -50 309 -50 C244 -50 186 -28 136 16 C86 61 61 117 61 184 C61 247 83 302 126 348 C170 395 226 418 295 418 C408 418 470 359 470 278 C470 248 458 222 435 201 C414 183 437 165 456 180 C485 208 500 241 500 278 C500 375 428 448 297 448 C220 448 156 422 106 369 C56 316 31 255 31 184 C31 107 58 44 112 -5 C166 -55 232 -80 309 -80 C367 -80 424 -64 479 -33 C534 -2 582 35 621 80 C661 125 698 176 733 235 L945 235 L861 51 Z M1174 638 C1131 602 1089 540 1047 451 L958 262 L748 262 C863 477 1005 602 1174 638 L1174 638 Z M1187 794 C1187 759 1214 732 1250 732 C1273 732 1295 741 1315 760 C1336 779 1346 801 1346 826 C1346 862 1321 888 1285 888 C1259 888 1236 878 1216 859 C1197 840 1187 818 1187 794 L1187 794 Z M1279 858 C1300 858 1315 842 1315 819 C1315 788 1285 762 1256 762 C1233 762 1219 777 1219 798 C1219 831 1248 858 1279 858 L1279 858 Z " />
<glyph glyph-name="AE" unicode="&#xc6;" horiz-adv-x="255" d="" />
<glyph glyph-name="Ccedilla" unicode="&#xc7;" horiz-adv-x="718" d="M379 -118 C452 -118 514 -93 564 -44 C614 5 639 58 639 115 C639 154 626 186 601 213 C576 240 544 254 504 254 C432 254 383 213 364 164 C356 141 383 129 392 152 C411 201 449 226 504 226 C565 226 609 174 609 111 C609 61 587 15 542 -26 C498 -68 444 -89 379 -89 C300 -89 237 -60 190 -2 C143 55 120 123 120 202 C120 314 189 446 293 536 C364 597 461 636 558 636 C618 636 664 622 696 594 C729 567 745 534 745 497 C745 467 733 440 709 416 C686 393 658 381 626 381 C567 381 540 411 540 450 C540 461 543 473 550 485 C561 502 538 516 525 500 C515 487 510 471 510 451 C510 395 544 352 623 352 C665 352 701 367 730 398 C759 429 774 464 774 503 C774 546 755 583 716 616 C678 649 626 665 560 665 C396 665 254 568 176 448 C120 368 90 280 90 201 C90 128 109 63 147 6 C185 -51 236 -89 300 -107 C295 -122 296 -139 305 -158 C314 -177 318 -192 318 -202 C318 -223 301 -240 280 -240 C273 -240 267 -238 260 -234 C240 -221 225 -251 244 -260 C255 -267 267 -270 280 -270 C317 -270 348 -239 348 -202 C348 -191 344 -176 335 -157 C327 -139 325 -124 328 -113 C346 -116 363 -118 379 -118 L379 -118 Z " />
<glyph glyph-name="Egrave" unicode="&#xc8;" horiz-adv-x="700" d="M310 -136 C374 -136 433 -113 486 -67 C540 -21 567 32 567 92 C567 132 554 166 528 195 C502 224 468 239 427 239 C387 239 354 228 329 206 C304 184 291 159 290 132 C290 120 295 114 304 114 C312 114 317 120 319 132 C320 172 364 208 427 208 C460 208 486 196 506 173 C527 150 537 123 537 92 C537 42 514 -3 468 -44 C423 -85 370 -106 311 -106 C232 -106 174 -86 136 -47 C98 -8 79 37 79 88 C79 151 111 207 174 256 C238 305 313 330 398 330 L434 330 C446 330 452 335 452 346 C452 357 446 363 433 363 L415 363 C339 363 305 412 305 485 C305 536 329 579 376 616 C423 653 478 672 540 672 C597 672 643 658 678 631 C713 604 731 572 731 536 C731 505 719 477 695 453 C672 429 643 417 609 417 C553 417 524 445 524 484 C524 500 528 514 537 525 C549 543 527 559 512 542 C501 527 495 508 495 484 C495 432 536 388 609 388 C651 388 687 404 716 435 C746 466 761 502 761 541 C761 583 741 620 700 652 C659 684 607 700 542 700 C471 700 409 678 356 635 C303 592 276 540 276 481 C276 430 296 375 345 351 C342 351 331 352 326 352 C242 336 175 302 125 250 C75 199 50 144 50 87 C50 -17 121 -136 310 -136 L310 -136 Z M583 767 C592 762 598 763 603 770 C608 777 607 784 598 790 L496 888 C475 898 464 876 481 865 L583 767 Z " />
<glyph glyph-name="Eacute" unicode="&#xc9;" horiz-adv-x="700" d="M310 -136 C374 -136 433 -113 486 -67 C540 -21 567 32 567 92 C567 132 554 166 528 195 C502 224 468 239 427 239 C387 239 354 228 329 206 C304 184 291 159 290 132 C290 120 295 114 304 114 C312 114 317 120 319 132 C320 172 364 208 427 208 C460 208 486 196 506 173 C527 150 537 123 537 92 C537 42 514 -3 468 -44 C423 -85 370 -106 311 -106 C232 -106 174 -86 136 -47 C98 -8 79 37 79 88 C79 151 111 207 174 256 C238 305 313 330 398 330 L434 330 C446 330 452 335 452 346 C452 357 446 363 433 363 L415 363 C339 363 305 412 305 485 C305 536 329 579 376 616 C423 653 478 672 540 672 C597 672 643 658 678 631 C713 604 731 572 731 536 C731 505 719 477 695 453 C672 429 643 417 609 417 C553 417 524 445 524 484 C524 500 528 514 537 525 C549 543 527 559 512 542 C501 527 495 508 495 484 C495 432 536 388 609 388 C651 388 687 404 716 435 C746 466 761 502 761 541 C761 583 741 620 700 652 C659 684 607 700 542 700 C471 700 409 678 356 635 C303 592 276 540 276 481 C276 430 296 375 345 351 C342 351 331 352 326 352 C242 336 175 302 125 250 C75 199 50 144 50 87 C50 -17 121 -136 310 -136 L310 -136 Z M705 865 C722 876 711 898 690 888 L551 790 C542 784 540 777 545 770 C550 763 557 762 566 767 L705 865 Z " />
<glyph glyph-name="Ecircumflex" unicode="&#xca;" horiz-adv-x="700" d="M310 -136 C374 -136 433 -113 486 -67 C540 -21 567 32 567 92 C567 132 554 166 528 195 C502 224 468 239 427 239 C387 239 354 228 329 206 C304 184 291 159 290 132 C290 120 295 114 304 114 C312 114 317 120 319 132 C320 172 364 208 427 208 C460 208 486 196 506 173 C527 150 537 123 537 92 C537 42 514 -3 468 -44 C423 -85 370 -106 311 -106 C232 -106 174 -86 136 -47 C98 -8 79 37 79 88 C79 151 111 207 174 256 C238 305 313 330 398 330 L434 330 C446 330 452 335 452 346 C452 357 446 363 433 363 L415 363 C339 363 305 412 305 485 C305 536 329 579 376 616 C423 653 478 672 540 672 C597 672 643 658 678 631 C713 604 731 572 731 536 C731 505 719 477 695 453 C672 429 643 417 609 417 C553 417 524 445 524 484 C524 500 528 514 537 525 C549 543 527 559 512 542 C501 527 495 508 495 484 C495 432 536 388 609 388 C651 388 687 404 716 435 C746 466 761 502 761 541 C761 583 741 620 700 652 C659 684 607 700 542 700 C471 700 409 678 356 635 C303 592 276 540 276 481 C276 430 296 375 345 351 C342 351 331 352 326 352 C242 336 175 302 125 250 C75 199 50 144 50 87 C50 -17 121 -136 310 -136 L310 -136 Z M645 882 C642 891 634 891 622 882 L494 791 C477 780 488 758 509 768 L628 852 L666 770 C676 758 698 771 689 786 L645 882 Z " />
<glyph glyph-name="Edieresis" unicode="&#xcb;" horiz-adv-x="700" d="M310 -136 C374 -136 433 -113 486 -67 C540 -21 567 32 567 92 C567 132 554 166 528 195 C502 224 468 239 427 239 C387 239 354 228 329 206 C304 184 291 159 290 132 C290 120 295 114 304 114 C312 114 317 120 319 132 C320 172 364 208 427 208 C460 208 486 196 506 173 C527 150 537 123 537 92 C537 42 514 -3 468 -44 C423 -85 370 -106 311 -106 C232 -106 174 -86 136 -47 C98 -8 79 37 79 88 C79 151 111 207 174 256 C238 305 313 330 398 330 L434 330 C446 330 452 335 452 346 C452 357 446 363 433 363 L415 363 C339 363 305 412 305 485 C305 536 329 579 376 616 C423 653 478 672 540 672 C597 672 643 658 678 631 C713 604 731 572 731 536 C731 505 719 477 695 453 C672 429 643 417 609 417 C553 417 524 445 524 484 C524 500 528 514 537 525 C549 543 527 559 512 542 C501 527 495 508 495 484 C495 432 536 388 609 388 C651 388 687 404 716 435 C746 466 761 502 761 541 C761 583 741 620 700 652 C659 684 607 700 542 700 C471 700 409 678 356 635 C303 592 276 540 276 481 C276 430 296 375 345 351 C342 351 331 352 326 352 C242 336 175 302 125 250 C75 199 50 144 50 87 C50 -17 121 -136 310 -136 L310 -136 Z M541 727 C564 727 583 756 568 773 C554 791 521 778 519 754 C516 739 525 727 541 727 L541 727 Z M630 727 C653 727 672 756 657 773 C643 791 610 778 608 754 C605 739 614 727 630 727 L630 727 Z " />
<glyph glyph-name="Igrave" unicode="&#xcc;" horiz-adv-x="580" d="M578 670 C503 670 439 643 387 590 C335 537 309 472 309 396 C309 369 313 344 321 319 C326 308 331 303 338 303 C350 303 355 315 350 331 C344 351 341 372 341 395 C341 464 363 522 408 569 C453 616 510 639 578 639 C617 639 652 634 683 625 L696 621 C669 599 638 562 602 510 C566 458 536 407 513 357 L473 270 L473 271 C442 207 421 165 380 106 C359 77 338 54 317 35 C276 -1 216 -30 152 -30 C96 -30 52 -8 41 23 C33 46 7 32 13 11 C26 -32 85 -60 152 -60 C207 -60 259 -40 298 -16 C317 -5 337 12 357 34 C377 56 393 75 406 92 C419 109 433 133 450 162 C467 192 479 215 487 232 C496 249 507 273 522 304 C557 379 588 438 617 481 C646 525 680 567 721 606 C726 611 729 618 729 625 C729 636 720 644 702 650 C664 663 623 670 578 670 L578 670 Z M733 767 C742 762 748 763 753 770 C758 777 757 784 748 790 L646 888 C625 898 614 876 631 865 L733 767 Z " />
<glyph glyph-name="Iacute" unicode="&#xcd;" horiz-adv-x="580" d="M578 670 C503 670 439 643 387 590 C335 537 309 472 309 396 C309 369 313 344 321 319 C326 308 331 303 338 303 C350 303 355 315 350 331 C344 351 341 372 341 395 C341 464 363 522 408 569 C453 616 510 639 578 639 C617 639 652 634 683 625 L696 621 C669 599 638 562 602 510 C566 458 536 407 513 357 L473 270 L473 271 C442 207 421 165 380 106 C359 77 338 54 317 35 C276 -1 216 -30 152 -30 C96 -30 52 -8 41 23 C33 46 7 32 13 11 C26 -32 85 -60 152 -60 C207 -60 259 -40 298 -16 C317 -5 337 12 357 34 C377 56 393 75 406 92 C419 109 433 133 450 162 C467 192 479 215 487 232 C496 249 507 273 522 304 C557 379 588 438 617 481 C646 525 680 567 721 606 C726 611 729 618 729 625 C729 636 720 644 702 650 C664 663 623 670 578 670 L578 670 Z M864 865 C881 876 870 898 849 888 L710 790 C701 784 699 777 704 770 C709 763 716 762 725 767 L864 865 Z " />
<glyph glyph-name="Icircumflex" unicode="&#xce;" horiz-adv-x="580" d="M578 670 C503 670 439 643 387 590 C335 537 309 472 309 396 C309 369 313 344 321 319 C326 308 331 303 338 303 C350 303 355 315 350 331 C344 351 341 372 341 395 C341 464 363 522 408 569 C453 616 510 639 578 639 C617 639 652 634 683 625 L696 621 C669 599 638 562 602 510 C566 458 536 407 513 357 L473 270 L473 271 C442 207 421 165 380 106 C359 77 338 54 317 35 C276 -1 216 -30 152 -30 C96 -30 52 -8 41 23 C33 46 7 32 13 11 C26 -32 85 -60 152 -60 C207 -60 259 -40 298 -16 C317 -5 337 12 357 34 C377 56 393 75 406 92 C419 109 433 133 450 162 C467 192 479 215 487 232 C496 249 507 273 522 304 C557 379 588 438 617 481 C646 525 680 567 721 606 C726 611 729 618 729 625 C729 636 720 644 702 650 C664 663 623 670 578 670 L578 670 Z M775 882 C772 891 764 891 752 882 L624 791 C607 780 618 758 639 768 L758 852 L796 770 C806 758 828 771 819 786 L775 882 Z " />
<glyph glyph-name="Idieresis" unicode="&#xcf;" horiz-adv-x="580" d="M578 670 C503 670 439 643 387 590 C335 537 309 472 309 396 C309 369 313 344 321 319 C326 308 331 303 338 303 C350 303 355 315 350 331 C344 351 341 372 341 395 C341 464 363 522 408 569 C453 616 510 639 578 639 C617 639 652 634 683 625 L696 621 C669 599 638 562 602 510 C566 458 536 407 513 357 L473 270 L473 271 C442 207 421 165 380 106 C359 77 338 54 317 35 C276 -1 216 -30 152 -30 C96 -30 52 -8 41 23 C33 46 7 32 13 11 C26 -32 85 -60 152 -60 C207 -60 259 -40 298 -16 C317 -5 337 12 357 34 C377 56 393 75 406 92 C419 109 433 133 450 162 C467 192 479 215 487 232 C496 249 507 273 522 304 C557 379 588 438 617 481 C646 525 680 567 721 606 C726 611 729 618 729 625 C729 636 720 644 702 650 C664 663 623 670 578 670 L578 670 Z M628 725 C651 725 670 754 655 771 C641 789 608 776 606 752 C603 737 612 725 628 725 L628 725 Z M717 725 C740 725 759 754 744 771 C730 789 697 776 695 752 C692 737 701 725 717 725 L717 725 Z " />
<glyph glyph-name="Eth" unicode="&#xd0;" horiz-adv-x="974" d="M515 688 C324 687 186 607 112 508 C60 441 36 371 36 306 C36 210 84 129 169 97 C174 96 177 95 178 95 C188 95 194 100 195 109 C198 115 194 120 183 123 C107 152 67 222 67 305 C66 450 208 659 515 658 C561 658 604 653 645 644 C606 599 565 529 522 433 L462 300 L379 300 C369 300 364 295 364 286 C364 277 369 272 379 272 L449 272 L440 251 C411 188 385 138 362 101 C339 64 311 35 278 12 C195 45 130 61 85 61 C37 61 -1 37 -1 6 C-1 -21 19 -41 48 -49 C77 -58 100 -62 123 -62 C186 -61 239 -47 284 -20 C317 -34 342 -44 358 -50 C374 -56 395 -62 422 -69 C449 -76 474 -79 496 -79 C758 -80 945 124 946 344 C946 413 925 477 882 534 C839 592 778 634 698 660 C719 677 740 685 761 686 C770 685 785 681 792 680 C801 674 807 675 812 683 C817 691 816 698 809 703 C784 710 769 714 764 714 C732 714 700 699 668 669 C621 682 570 688 515 688 L515 688 Z M914 344 C914 238 874 146 794 68 C714 -10 615 -49 496 -49 C453 -49 392 -33 311 -1 C372 48 412 119 469 244 L482 272 L558 272 C580 272 580 300 558 300 L495 300 L551 422 C598 527 639 598 674 637 C752 614 811 575 852 522 C893 469 914 409 914 344 L914 344 Z M123 -32 C60 -32 28 -19 28 6 C28 21 50 34 83 34 C122 34 177 21 247 -6 C212 -23 171 -32 123 -32 L123 -32 Z " />
<glyph glyph-name="Ntilde" unicode="&#xd1;" horiz-adv-x="618" d="M553 604 C500 604 434 562 389 509 C390 517 390 528 390 543 C390 598 369 642 327 677 C286 712 238 729 184 729 C130 729 82 711 41 674 C0 638 -20 595 -20 545 C-20 502 -5 466 24 436 C53 406 89 391 131 391 C182 391 228 415 245 459 C248 470 241 482 230 482 C224 482 219 477 214 467 C200 436 172 420 131 420 C59 420 10 476 10 545 C10 590 28 626 63 655 C99 684 139 699 184 699 C230 699 271 684 306 655 C342 626 360 588 360 543 C360 505 353 470 339 439 L145 16 C139 1 142 -6 154 -6 C163 -6 171 0 177 11 L351 394 C402 506 482 572 551 572 C594 572 618 547 618 514 C618 497 614 479 605 460 L415 51 C398 16 390 -20 390 -57 C390 -114 416 -154 473 -154 C480 -154 490 -153 502 -150 C514 -147 519 -141 518 -131 C517 -121 510 -117 499 -120 C484 -123 477 -124 476 -124 C439 -124 421 -101 421 -56 C421 -27 428 4 443 38 L443 37 L641 467 C648 482 652 499 652 519 C652 564 613 604 553 604 L553 604 Z M515 734 C561 770 591 693 647 734 C664 746 653 769 632 757 C588 731 565 804 499 757 C477 740 492 719 515 734 L515 734 Z " />
<glyph glyph-name="Ograve" unicode="&#xd2;" horiz-adv-x="833" d="M116 306 C109 275 105 246 105 218 C105 136 130 68 180 15 C231 -38 296 -64 376 -64 C469 -64 558 -28 641 43 C724 114 778 200 801 301 C808 333 811 363 811 390 C811 472 786 539 736 592 C686 645 621 672 541 672 C448 672 359 636 276 564 C193 493 139 407 116 306 L116 306 Z M145 301 C167 395 217 475 294 542 C371 609 454 642 541 642 C613 642 671 618 715 571 C759 524 781 463 781 390 C781 363 778 335 771 306 C748 213 697 133 620 66 C543 -1 461 -34 376 -34 C304 -34 246 -10 201 37 C157 84 135 145 135 218 C135 240 138 268 145 301 L145 301 Z M600 767 C609 762 615 763 620 770 C625 777 624 784 615 790 L513 888 C492 898 481 876 498 865 L600 767 Z " />
<glyph glyph-name="Oacute" unicode="&#xd3;" horiz-adv-x="833" d="M116 306 C109 275 105 246 105 218 C105 136 130 68 180 15 C231 -38 296 -64 376 -64 C469 -64 558 -28 641 43 C724 114 778 200 801 301 C808 333 811 363 811 390 C811 472 786 539 736 592 C686 645 621 672 541 672 C448 672 359 636 276 564 C193 493 139 407 116 306 L116 306 Z M145 301 C167 395 217 475 294 542 C371 609 454 642 541 642 C613 642 671 618 715 571 C759 524 781 463 781 390 C781 363 778 335 771 306 C748 213 697 133 620 66 C543 -1 461 -34 376 -34 C304 -34 246 -10 201 37 C157 84 135 145 135 218 C135 240 138 268 145 301 L145 301 Z M732 865 C749 876 738 898 717 888 L578 790 C569 784 567 777 572 770 C577 763 584 762 593 767 L732 865 Z " />
<glyph glyph-name="Ocircumflex" unicode="&#xd4;" horiz-adv-x="833" d="M116 306 C109 275 105 246 105 218 C105 136 130 68 180 15 C231 -38 296 -64 376 -64 C469 -64 558 -28 641 43 C724 114 778 200 801 301 C808 333 811 363 811 390 C811 472 786 539 736 592 C686 645 621 672 541 672 C448 672 359 636 276 564 C193 493 139 407 116 306 L116 306 Z M145 301 C167 395 217 475 294 542 C371 609 454 642 541 642 C613 642 671 618 715 571 C759 524 781 463 781 390 C781 363 778 335 771 306 C748 213 697 133 620 66 C543 -1 461 -34 376 -34 C304 -34 246 -10 201 37 C157 84 135 145 135 218 C135 240 138 268 145 301 L145 301 Z M672 882 C669 891 661 891 649 882 L521 791 C504 780 515 758 536 768 L655 852 L693 770 C703 758 725 771 716 786 L672 882 Z " />
<glyph glyph-name="Otilde" unicode="&#xd5;" horiz-adv-x="833" d="M116 306 C109 275 105 246 105 218 C105 136 130 68 180 15 C231 -38 296 -64 376 -64 C469 -64 558 -28 641 43 C724 114 778 200 801 301 C808 333 811 363 811 390 C811 472 786 539 736 592 C686 645 621 672 541 672 C448 672 359 636 276 564 C193 493 139 407 116 306 L116 306 Z M145 301 C167 395 217 475 294 542 C371 609 454 642 541 642 C613 642 671 618 715 571 C759 524 781 463 781 390 C781 363 778 335 771 306 C748 213 697 133 620 66 C543 -1 461 -34 376 -34 C304 -34 246 -10 201 37 C157 84 135 145 135 218 C135 240 138 268 145 301 L145 301 Z M547 734 C593 770 623 693 679 734 C696 746 685 769 664 757 C620 731 597 804 531 757 C509 740 524 719 547 734 L547 734 Z " />
<glyph glyph-name="Odieresis" unicode="&#xd6;" horiz-adv-x="833" d="M116 306 C109 275 105 246 105 218 C105 136 130 68 180 15 C231 -38 296 -64 376 -64 C469 -64 558 -28 641 43 C724 114 778 200 801 301 C808 333 811 363 811 390 C811 472 786 539 736 592 C686 645 621 672 541 672 C448 672 359 636 276 564 C193 493 139 407 116 306 L116 306 Z M145 301 C167 395 217 475 294 542 C371 609 454 642 541 642 C613 642 671 618 715 571 C759 524 781 463 781 390 C781 363 778 335 771 306 C748 213 697 133 620 66 C543 -1 461 -34 376 -34 C304 -34 246 -10 201 37 C157 84 135 145 135 218 C135 240 138 268 145 301 L145 301 Z M552 725 C575 725 594 754 579 771 C565 789 532 776 530 752 C527 737 536 725 552 725 L552 725 Z M641 725 C664 725 683 754 668 771 C654 789 621 776 619 752 C616 737 625 725 641 725 L641 725 Z " />
<glyph glyph-name="multiply" unicode="&#xd7;" horiz-adv-x="677" d="M341 381 C300 381 266 367 237 338 C222 322 240 304 257 320 C278 342 306 353 341 353 C363 353 392 343 428 324 C437 320 439 318 434 314 C409 305 379 273 344 218 C336 204 334 193 339 186 C344 178 353 179 364 188 C387 207 432 207 453 186 C464 176 470 162 470 145 C470 104 447 69 402 42 C357 15 303 1 241 1 C236 1 222 1 222 4 L224 11 C229 28 231 45 231 64 C231 79 229 99 225 126 C221 153 219 172 219 183 C219 215 244 239 277 239 C292 239 303 231 310 216 C318 199 342 208 336 229 C330 256 310 269 277 269 C228 269 189 231 189 183 C189 169 192 148 197 120 C202 98 204 80 204 65 C204 45 198 6 189 9 C184 10 181 11 179 12 L178 12 C167 17 159 14 156 4 C152 -7 157 -15 172 -19 C195 -26 219 -29 246 -29 C313 -29 372 -12 423 21 C474 55 500 96 500 145 C500 196 464 231 411 231 C400 231 392 230 385 228 C417 275 457 306 482 291 C523 268 558 256 589 256 C628 256 658 270 679 297 C687 309 682 318 673 321 C667 322 662 320 657 315 C642 294 620 284 589 284 C563 284 524 299 473 330 C414 364 370 381 341 381 L341 381 Z " />
<glyph glyph-name="Oslash" unicode="&#xd8;" horiz-adv-x="833" d="M116 306 C109 275 105 246 105 218 C105 115 149 28 224 -21 L207 -49 C202 -60 204 -68 214 -71 C224 -74 232 -70 237 -58 L250 -36 C289 -55 331 -64 376 -64 C469 -64 558 -28 641 43 C724 114 778 200 801 301 C808 333 811 363 811 390 C811 502 760 593 673 640 L702 687 C707 698 704 705 695 708 C686 711 679 708 674 699 L645 653 C611 666 576 672 541 672 C448 672 359 636 276 564 C193 493 139 407 116 306 L116 306 Z M781 390 C781 363 778 335 771 306 C748 213 697 133 620 66 C543 -1 461 -34 376 -34 C337 -34 300 -26 266 -10 L657 615 C734 574 781 490 781 390 L781 390 Z M145 301 C167 395 217 475 294 542 C371 609 454 642 541 642 C570 642 599 637 629 627 L240 4 C173 48 135 126 135 218 C135 240 138 268 145 301 L145 301 Z " />
<glyph glyph-name="Ugrave" unicode="&#xd9;" horiz-adv-x="743" d="M683 -254 C732 -254 769 -239 794 -210 C820 -181 834 -150 835 -117 C836 -92 831 -74 820 -63 C804 -51 781 -71 797 -85 C804 -90 806 -101 805 -117 C804 -143 794 -167 773 -190 C753 -213 723 -224 684 -224 C564 -224 547 -67 559 62 C617 122 666 192 707 273 C748 354 770 423 773 482 C773 513 754 539 729 539 C703 539 673 506 640 441 C607 376 579 297 556 205 C548 176 540 133 533 76 C466 8 404 -26 347 -26 C238 -26 240 79 273 149 L390 404 C447 529 414 634 310 682 C255 707 200 711 143 692 C86 674 46 639 22 587 C5 546 3 505 17 464 C31 424 56 396 93 379 C137 362 185 357 228 381 C250 394 265 411 272 433 C278 452 252 470 243 442 C222 387 148 385 104 404 C75 418 55 442 44 475 C33 508 35 542 50 576 C71 622 106 652 156 667 C206 682 253 678 298 655 C402 608 405 502 364 415 L247 161 C203 67 217 -55 347 -55 C404 -55 464 -25 529 34 C524 -39 529 -100 549 -159 C569 -218 615 -254 683 -254 L683 -254 Z M584 200 C610 288 636 362 662 421 C688 480 710 510 727 510 C736 510 745 501 744 486 C743 436 725 375 690 303 C656 232 614 167 565 110 C570 146 576 176 584 200 L584 200 Z M662 767 C671 762 677 763 682 770 C687 777 686 784 677 790 L575 888 C554 898 543 876 560 865 L662 767 Z " />
<glyph glyph-name="Uacute" unicode="&#xda;" horiz-adv-x="743" d="M683 -254 C732 -254 769 -239 794 -210 C820 -181 834 -150 835 -117 C836 -92 831 -74 820 -63 C804 -51 781 -71 797 -85 C804 -90 806 -101 805 -117 C804 -143 794 -167 773 -190 C753 -213 723 -224 684 -224 C564 -224 547 -67 559 62 C617 122 666 192 707 273 C748 354 770 423 773 482 C773 513 754 539 729 539 C703 539 673 506 640 441 C607 376 579 297 556 205 C548 176 540 133 533 76 C466 8 404 -26 347 -26 C238 -26 240 79 273 149 L390 404 C447 529 414 634 310 682 C255 707 200 711 143 692 C86 674 46 639 22 587 C5 546 3 505 17 464 C31 424 56 396 93 379 C137 362 185 357 228 381 C250 394 265 411 272 433 C278 452 252 470 243 442 C222 387 148 385 104 404 C75 418 55 442 44 475 C33 508 35 542 50 576 C71 622 106 652 156 667 C206 682 253 678 298 655 C402 608 405 502 364 415 L247 161 C203 67 217 -55 347 -55 C404 -55 464 -25 529 34 C524 -39 529 -100 549 -159 C569 -218 615 -254 683 -254 L683 -254 Z M584 200 C610 288 636 362 662 421 C688 480 710 510 727 510 C736 510 745 501 744 486 C743 436 725 375 690 303 C656 232 614 167 565 110 C570 146 576 176 584 200 L584 200 Z M781 865 C798 876 787 898 766 888 L627 790 C618 784 616 777 621 770 C626 763 633 762 642 767 L781 865 Z " />
<glyph glyph-name="Ucircumflex" unicode="&#xdb;" horiz-adv-x="743" d="M683 -254 C732 -254 769 -239 794 -210 C820 -181 834 -150 835 -117 C836 -92 831 -74 820 -63 C804 -51 781 -71 797 -85 C804 -90 806 -101 805 -117 C804 -143 794 -167 773 -190 C753 -213 723 -224 684 -224 C564 -224 547 -67 559 62 C617 122 666 192 707 273 C748 354 770 423 773 482 C773 513 754 539 729 539 C703 539 673 506 640 441 C607 376 579 297 556 205 C548 176 540 133 533 76 C466 8 404 -26 347 -26 C238 -26 240 79 273 149 L390 404 C447 529 414 634 310 682 C255 707 200 711 143 692 C86 674 46 639 22 587 C5 546 3 505 17 464 C31 424 56 396 93 379 C137 362 185 357 228 381 C250 394 265 411 272 433 C278 452 252 470 243 442 C222 387 148 385 104 404 C75 418 55 442 44 475 C33 508 35 542 50 576 C71 622 106 652 156 667 C206 682 253 678 298 655 C402 608 405 502 364 415 L247 161 C203 67 217 -55 347 -55 C404 -55 464 -25 529 34 C524 -39 529 -100 549 -159 C569 -218 615 -254 683 -254 L683 -254 Z M584 200 C610 288 636 362 662 421 C688 480 710 510 727 510 C736 510 745 501 744 486 C743 436 725 375 690 303 C656 232 614 167 565 110 C570 146 576 176 584 200 L584 200 Z M707 882 C704 891 696 891 684 882 L556 791 C539 780 550 758 571 768 L690 852 L728 770 C738 758 760 771 751 786 L707 882 Z " />
<glyph glyph-name="Udieresis" unicode="&#xdc;" horiz-adv-x="743" d="M683 -254 C732 -254 769 -239 794 -210 C820 -181 834 -150 835 -117 C836 -92 831 -74 820 -63 C804 -51 781 -71 797 -85 C804 -90 806 -101 805 -117 C804 -143 794 -167 773 -190 C753 -213 723 -224 684 -224 C564 -224 547 -67 559 62 C617 122 666 192 707 273 C748 354 770 423 773 482 C773 513 754 539 729 539 C703 539 673 506 640 441 C607 376 579 297 556 205 C548 176 540 133 533 76 C466 8 404 -26 347 -26 C238 -26 240 79 273 149 L390 404 C447 529 414 634 310 682 C255 707 200 711 143 692 C86 674 46 639 22 587 C5 546 3 505 17 464 C31 424 56 396 93 379 C137 362 185 357 228 381 C250 394 265 411 272 433 C278 452 252 470 243 442 C222 387 148 385 104 404 C75 418 55 442 44 475 C33 508 35 542 50 576 C71 622 106 652 156 667 C206 682 253 678 298 655 C402 608 405 502 364 415 L247 161 C203 67 217 -55 347 -55 C404 -55 464 -25 529 34 C524 -39 529 -100 549 -159 C569 -218 615 -254 683 -254 L683 -254 Z M584 200 C610 288 636 362 662 421 C688 480 710 510 727 510 C736 510 745 501 744 486 C743 436 725 375 690 303 C656 232 614 167 565 110 C570 146 576 176 584 200 L584 200 Z M602 725 C625 725 644 754 629 771 C615 789 582 776 580 752 C577 737 586 725 602 725 L602 725 Z M691 725 C714 725 733 754 718 771 C704 789 671 776 669 752 C666 737 675 725 691 725 L691 725 Z " />
<glyph glyph-name="Yacute" unicode="&#xdd;" horiz-adv-x="719" d="M397 2 C458 2 513 26 562 74 L509 -41 C460 -149 386 -212 313 -211 C253 -212 223 -182 224 -143 C224 -111 249 -75 289 -71 L293 -71 C302 -71 307 -66 306 -57 C305 -48 300 -44 291 -45 C262 -46 238 -56 220 -77 C202 -98 193 -120 194 -143 C194 -198 233 -239 312 -239 C405 -240 481 -174 542 -41 L795 508 C799 518 797 525 788 528 C778 532 770 528 765 515 L633 228 L622 204 C601 160 582 131 546 92 C510 53 458 31 397 31 C287 31 292 136 322 206 L413 405 C472 530 438 634 333 682 C279 707 223 711 166 693 C109 675 69 640 45 587 C28 546 26 505 40 464 C55 424 80 396 116 379 C146 363 181 360 220 369 C259 379 284 400 295 433 C301 452 273 470 267 442 C246 386 170 385 127 404 C98 418 78 442 67 475 C56 509 58 543 74 576 C95 622 130 652 180 667 C230 682 277 678 321 655 C423 608 429 503 387 415 L297 218 C253 124 268 2 397 2 L397 2 Z M806 865 C823 876 812 898 791 888 L652 790 C643 784 641 777 646 770 C651 763 658 762 667 767 L806 865 Z " />
<glyph glyph-name="Thorn" unicode="&#xde;" horiz-adv-x="923" d="M578 670 C503 670 439 643 386 589 C333 536 307 471 307 395 C307 368 311 343 319 318 C324 308 329 303 336 303 C348 303 357 316 350 331 L351 330 C344 351 341 372 341 395 C341 464 363 522 408 569 C453 616 510 639 578 639 C622 639 661 633 696 621 C669 599 638 562 601 509 C564 457 535 407 513 358 L419 159 C404 127 389 99 376 74 C363 50 347 24 326 -5 C305 -34 284 -58 263 -76 C222 -113 162 -142 98 -142 C42 -142 -2 -120 -13 -89 C-22 -65 -47 -79 -41 -101 C-28 -144 31 -172 98 -172 C166 -172 231 -144 275 -105 C298 -86 320 -62 342 -32 C365 -2 383 26 397 51 C412 77 427 107 444 142 C527 283 613 356 702 362 C793 367 843 311 843 235 C843 179 817 128 766 83 C715 38 653 15 582 15 C529 15 481 28 437 54 C416 64 402 37 419 26 C467 -2 522 -16 585 -16 C664 -16 732 10 789 62 C847 115 876 172 876 235 C876 279 861 317 830 349 C800 382 757 396 702 392 C639 388 576 351 511 282 L522 305 L522 304 C557 379 588 438 617 481 C646 525 680 567 721 606 C726 611 729 618 729 625 C729 636 720 644 702 650 C664 663 623 670 578 670 L578 670 Z " />
<glyph glyph-name="germandbls" unicode="&#xdf;" horiz-adv-x="328" d="M191 461 C238 569 312 631 387 631 C447 631 476 601 476 562 C476 498 385 467 307 438 C254 419 203 389 190 352 C181 326 185 291 203 246 C221 201 229 171 228 154 C225 119 212 89 188 64 C165 40 137 28 104 28 C93 28 83 29 75 32 C63 36 53 42 45 51 C28 63 11 44 22 31 C32 20 44 12 57 6 C71 1 86 -2 101 -2 C142 -2 177 14 207 45 C238 77 255 114 258 155 C259 171 251 201 232 244 C214 288 209 320 218 340 C243 400 346 425 417 453 C469 473 506 510 506 562 C506 617 467 659 387 659 C295 659 218 591 155 454 L0 115 C-27 57 -58 28 -93 28 C-113 28 -115 0 -93 0 C-65 0 -40 11 -19 33 C2 56 18 79 29 104 L191 461 Z M235 0 C262 0 286 11 307 34 C328 57 344 80 353 104 C360 121 336 131 328 115 C328 114 327 113 327 112 C301 56 270 28 235 28 C228 28 224 23 224 14 C224 5 228 0 235 0 L235 0 Z " />
<glyph glyph-name="agrave" unicode="&#xe0;" horiz-adv-x="307" d="M214 0 C241 0 265 11 286 34 C307 57 323 80 332 104 C339 121 315 131 307 115 C307 114 306 113 306 112 C280 56 249 28 214 28 C187 28 173 40 173 63 C173 73 177 86 184 103 L296 348 C304 369 276 379 268 360 L258 339 C247 363 226 375 193 375 C144 375 105 341 74 273 L0 115 C-9 97 -13 80 -13 64 C-13 23 16 0 63 0 C93 0 120 15 144 46 C151 15 174 0 214 0 L214 0 Z M63 28 C32 28 17 40 17 64 C17 74 21 87 28 103 L100 257 C127 317 158 347 193 347 C224 347 239 335 239 311 C239 302 235 289 228 272 L151 105 C126 54 97 28 63 28 L63 28 Z M280 474 C289 469 295 470 300 477 C305 484 304 491 295 497 L193 595 C172 605 161 583 178 572 L280 474 Z " />
<glyph glyph-name="aacute" unicode="&#xe1;" horiz-adv-x="307" d="M214 0 C241 0 265 11 286 34 C307 57 323 80 332 104 C339 121 315 131 307 115 C307 114 306 113 306 112 C280 56 249 28 214 28 C187 28 173 40 173 63 C173 73 177 86 184 103 L296 348 C304 369 276 379 268 360 L258 339 C247 363 226 375 193 375 C144 375 105 341 74 273 L0 115 C-9 97 -13 80 -13 64 C-13 23 16 0 63 0 C93 0 120 15 144 46 C151 15 174 0 214 0 L214 0 Z M63 28 C32 28 17 40 17 64 C17 74 21 87 28 103 L100 257 C127 317 158 347 193 347 C224 347 239 335 239 311 C239 302 235 289 228 272 L151 105 C126 54 97 28 63 28 L63 28 Z M344 572 C361 583 350 605 329 595 L190 497 C181 491 179 484 184 477 C189 470 196 469 205 474 L344 572 Z " />
<glyph glyph-name="acircumflex" unicode="&#xe2;" horiz-adv-x="307" d="M214 0 C241 0 265 11 286 34 C307 57 323 80 332 104 C339 121 315 131 307 115 C307 114 306 113 306 112 C280 56 249 28 214 28 C187 28 173 40 173 63 C173 73 177 86 184 103 L296 348 C304 369 276 379 268 360 L258 339 C247 363 226 375 193 375 C144 375 105 341 74 273 L0 115 C-9 97 -13 80 -13 64 C-13 23 16 0 63 0 C93 0 120 15 144 46 C151 15 174 0 214 0 L214 0 Z M63 28 C32 28 17 40 17 64 C17 74 21 87 28 103 L100 257 C127 317 158 347 193 347 C224 347 239 335 239 311 C239 302 235 289 228 272 L151 105 C126 54 97 28 63 28 L63 28 Z M310 589 C307 598 299 598 287 589 L159 498 C142 487 153 465 174 475 L293 559 L331 477 C341 465 363 478 354 493 L310 589 Z " />
<glyph glyph-name="atilde" unicode="&#xe3;" horiz-adv-x="307" d="M214 0 C241 0 265 11 286 34 C307 57 323 80 332 104 C339 121 315 131 307 115 C307 114 306 113 306 112 C280 56 249 28 214 28 C187 28 173 40 173 63 C173 73 177 86 184 103 L296 348 C304 369 276 379 268 360 L258 339 C247 363 226 375 193 375 C144 375 105 341 74 273 L0 115 C-9 97 -13 80 -13 64 C-13 23 16 0 63 0 C93 0 120 15 144 46 C151 15 174 0 214 0 L214 0 Z M63 28 C32 28 17 40 17 64 C17 74 21 87 28 103 L100 257 C127 317 158 347 193 347 C224 347 239 335 239 311 C239 302 235 289 228 272 L151 105 C126 54 97 28 63 28 L63 28 Z M192 441 C238 477 268 400 324 441 C341 453 330 476 309 464 C265 438 242 511 176 464 C154 447 169 426 192 441 L192 441 Z " />
<glyph glyph-name="adieresis" unicode="&#xe4;" horiz-adv-x="307" d="M214 0 C241 0 265 11 286 34 C307 57 323 80 332 104 C339 121 315 131 307 115 C307 114 306 113 306 112 C280 56 249 28 214 28 C187 28 173 40 173 63 C173 73 177 86 184 103 L296 348 C304 369 276 379 268 360 L258 339 C247 363 226 375 193 375 C144 375 105 341 74 273 L0 115 C-9 97 -13 80 -13 64 C-13 23 16 0 63 0 C93 0 120 15 144 46 C151 15 174 0 214 0 L214 0 Z M63 28 C32 28 17 40 17 64 C17 74 21 87 28 103 L100 257 C127 317 158 347 193 347 C224 347 239 335 239 311 C239 302 235 289 228 272 L151 105 C126 54 97 28 63 28 L63 28 Z M196 432 C219 432 238 461 223 478 C209 496 176 483 174 459 C171 444 180 432 196 432 L196 432 Z M285 432 C308 432 327 461 312 478 C298 496 265 483 263 459 C260 444 269 432 285 432 L285 432 Z " />
<glyph glyph-name="aring" unicode="&#xe5;" horiz-adv-x="307" d="M214 0 C241 0 265 11 286 34 C307 57 323 80 332 104 C339 121 315 131 307 115 C307 114 306 113 306 112 C280 56 249 28 214 28 C187 28 173 40 173 63 C173 73 177 86 184 103 L296 348 C304 369 276 379 268 360 L258 339 C247 363 226 375 193 375 C144 375 105 341 74 273 L0 115 C-9 97 -13 80 -13 64 C-13 23 16 0 63 0 C93 0 120 15 144 46 C151 15 174 0 214 0 L214 0 Z M63 28 C32 28 17 40 17 64 C17 74 21 87 28 103 L100 257 C127 317 158 347 193 347 C224 347 239 335 239 311 C239 302 235 289 228 272 L151 105 C126 54 97 28 63 28 L63 28 Z M200 501 C200 466 227 439 263 439 C286 439 308 448 328 467 C349 486 359 508 359 533 C359 569 334 595 298 595 C272 595 249 585 229 566 C210 547 200 525 200 501 L200 501 Z M292 565 C313 565 328 549 328 526 C328 495 298 469 269 469 C246 469 232 484 232 505 C232 538 261 565 292 565 L292 565 Z " />
<glyph glyph-name="ae" unicode="&#xe6;" horiz-adv-x="390" d="M260 0 C293 0 324 10 353 31 C382 52 403 76 415 104 C424 121 398 130 390 115 C379 95 362 75 339 56 C316 37 289 28 260 28 C193 31 170 75 203 147 L221 186 C234 175 251 169 272 169 C331 169 370 203 401 280 C424 333 400 375 344 375 C315 375 288 361 265 334 C256 361 232 375 193 375 C165 375 140 363 117 339 C107 330 105 321 111 312 C116 304 123 304 131 312 C150 335 170 347 193 347 C224 347 239 335 239 311 C239 301 235 288 228 272 L206 225 C198 215 172 210 128 210 C77 210 33 184 12 141 L0 115 C-9 97 -13 80 -13 64 C-13 23 16 0 63 0 C100 0 132 21 158 62 C168 21 202 0 260 0 L260 0 Z M40 128 C57 163 87 180 128 180 C156 180 175 181 186 183 L170 148 L156 118 C129 58 98 28 63 28 C32 28 17 40 17 64 C17 74 21 87 28 103 L40 128 Z M369 285 C345 228 316 200 271 200 C256 200 243 204 234 212 L255 257 C282 317 311 347 344 347 C378 347 386 326 369 285 L369 285 Z " />
<glyph glyph-name="ccedilla" unicode="&#xe7;" horiz-adv-x="232" d="M187 375 C141 375 103 341 72 273 L18 159 C-14 91 -8 43 35 16 C30 1 32 -15 40 -33 C49 -52 53 -66 53 -77 C53 -98 36 -115 15 -115 C8 -115 2 -113 -5 -109 C-25 -96 -40 -126 -21 -135 C-10 -142 2 -145 15 -145 C52 -145 83 -114 83 -77 C83 -66 79 -51 71 -34 C64 -17 61 -4 62 5 C72 2 86 0 103 0 C136 0 167 10 196 31 C225 52 246 76 258 104 C267 121 241 130 233 115 C222 95 205 75 182 56 C159 37 132 28 103 28 C36 28 13 75 46 147 L98 257 C125 317 154 347 187 347 C221 347 229 326 212 285 C206 272 203 264 202 263 C197 251 200 244 210 242 C221 239 230 244 235 258 L244 280 C268 333 243 375 187 375 L187 375 Z " />
<glyph glyph-name="egrave" unicode="&#xe8;" horiz-adv-x="232" d="M186 375 C140 375 102 341 71 273 L17 159 C-27 54 13 0 102 0 C135 0 166 10 195 31 C224 52 245 76 257 104 C266 121 240 130 232 115 C221 95 204 75 181 56 C158 37 131 28 102 28 C35 28 12 75 45 147 L63 186 C76 175 93 169 114 169 C173 169 212 203 243 280 C266 333 242 375 186 375 L186 375 Z M211 285 C187 228 158 200 113 200 C98 200 85 204 76 212 L97 257 C124 317 153 347 186 347 C220 347 228 326 211 285 L211 285 Z M263 474 C272 469 278 470 283 477 C288 484 287 491 278 497 L176 595 C155 605 144 583 161 572 L263 474 Z " />
<glyph glyph-name="eacute" unicode="&#xe9;" horiz-adv-x="232" d="M186 375 C140 375 102 341 71 273 L17 159 C-27 54 13 0 102 0 C135 0 166 10 195 31 C224 52 245 76 257 104 C266 121 240 130 232 115 C221 95 204 75 181 56 C158 37 131 28 102 28 C35 28 12 75 45 147 L63 186 C76 175 93 169 114 169 C173 169 212 203 243 280 C266 333 242 375 186 375 L186 375 Z M211 285 C187 228 158 200 113 200 C98 200 85 204 76 212 L97 257 C124 317 153 347 186 347 C220 347 228 326 211 285 L211 285 Z M340 572 C357 583 346 605 325 595 L186 497 C177 491 175 484 180 477 C185 470 192 469 201 474 L340 572 Z " />
<glyph glyph-name="ecircumflex" unicode="&#xea;" horiz-adv-x="232" d="M186 375 C140 375 102 341 71 273 L17 159 C-27 54 13 0 102 0 C135 0 166 10 195 31 C224 52 245 76 257 104 C266 121 240 130 232 115 C221 95 204 75 181 56 C158 37 131 28 102 28 C35 28 12 75 45 147 L63 186 C76 175 93 169 114 169 C173 169 212 203 243 280 C266 333 242 375 186 375 L186 375 Z M211 285 C187 228 158 200 113 200 C98 200 85 204 76 212 L97 257 C124 317 153 347 186 347 C220 347 228 326 211 285 L211 285 Z M286 589 C283 598 275 598 263 589 L135 498 C118 487 129 465 150 475 L269 559 L307 477 C317 465 339 478 330 493 L286 589 Z " />
<glyph glyph-name="edieresis" unicode="&#xeb;" horiz-adv-x="232" d="M186 375 C140 375 102 341 71 273 L17 159 C-27 54 13 0 102 0 C135 0 166 10 195 31 C224 52 245 76 257 104 C266 121 240 130 232 115 C221 95 204 75 181 56 C158 37 131 28 102 28 C35 28 12 75 45 147 L63 186 C76 175 93 169 114 169 C173 169 212 203 243 280 C266 333 242 375 186 375 L186 375 Z M211 285 C187 228 158 200 113 200 C98 200 85 204 76 212 L97 257 C124 317 153 347 186 347 C220 347 228 326 211 285 L211 285 Z M174 432 C197 432 216 461 201 478 C187 496 154 483 152 459 C149 444 158 432 174 432 L174 432 Z M263 432 C286 432 305 461 290 478 C276 496 243 483 241 459 C238 444 247 432 263 432 L263 432 Z " />
<glyph glyph-name="igrave" unicode="&#xec;" horiz-adv-x="151" d="M58 0 C85 0 109 11 130 34 C151 57 167 80 176 104 C183 121 159 131 151 115 C151 114 150 113 150 112 C124 56 93 28 58 28 C31 28 17 40 17 63 C17 73 21 86 28 103 L140 348 C148 369 120 379 112 360 L0 115 C-9 97 -13 80 -13 63 C-13 21 11 0 58 0 L58 0 Z M190 474 C199 469 205 470 210 477 C215 484 214 491 205 497 L103 595 C82 605 71 583 88 572 L190 474 Z " />
<glyph glyph-name="iacute" unicode="&#xed;" horiz-adv-x="151" d="M58 0 C85 0 109 11 130 34 C151 57 167 80 176 104 C183 121 159 131 151 115 C151 114 150 113 150 112 C124 56 93 28 58 28 C31 28 17 40 17 63 C17 73 21 86 28 103 L140 348 C148 369 120 379 112 360 L0 115 C-9 97 -13 80 -13 63 C-13 21 11 0 58 0 L58 0 Z M328 572 C345 583 334 605 313 595 L174 497 C165 491 163 484 168 477 C173 470 180 469 189 474 L328 572 Z " />
<glyph glyph-name="icircumflex" unicode="&#xee;" horiz-adv-x="151" d="M58 0 C85 0 109 11 130 34 C151 57 167 80 176 104 C183 121 159 131 151 115 C151 114 150 113 150 112 C124 56 93 28 58 28 C31 28 17 40 17 63 C17 73 21 86 28 103 L140 348 C148 369 120 379 112 360 L0 115 C-9 97 -13 80 -13 63 C-13 21 11 0 58 0 L58 0 Z M221 589 C218 598 210 598 198 589 L70 498 C53 487 64 465 85 475 L204 559 L242 477 C252 465 274 478 265 493 L221 589 Z " />
<glyph glyph-name="idieresis" unicode="&#xef;" horiz-adv-x="151" d="M58 0 C85 0 109 11 130 34 C151 57 167 80 176 104 C183 121 159 131 151 115 C151 114 150 113 150 112 C124 56 93 28 58 28 C31 28 17 40 17 63 C17 73 21 86 28 103 L140 348 C148 369 120 379 112 360 L0 115 C-9 97 -13 80 -13 63 C-13 21 11 0 58 0 L58 0 Z M113 432 C136 432 155 461 140 478 C126 496 93 483 91 459 C88 444 97 432 113 432 L113 432 Z M202 432 C225 432 244 461 229 478 C215 496 182 483 180 459 C177 444 186 432 202 432 L202 432 Z " />
<glyph glyph-name="eth" unicode="&#xf0;" horiz-adv-x="269" d="M249 479 C268 407 255 332 224 264 L156 118 C129 58 98 28 63 28 C32 28 17 40 17 64 C17 74 21 87 28 103 L100 257 C127 317 158 347 193 347 C206 347 217 345 224 340 C239 332 252 361 235 367 C222 372 208 375 193 375 C144 375 105 341 74 273 L0 115 C-9 97 -13 80 -13 64 C-13 23 16 0 63 0 C112 0 151 34 182 102 L249 245 C285 321 300 411 276 494 L337 530 C357 541 342 562 323 554 L264 520 C253 541 236 558 215 569 C206 574 199 573 192 565 C184 556 185 549 196 544 C214 534 228 521 238 504 L183 472 C167 460 180 437 197 448 L249 479 Z " />
<glyph glyph-name="ntilde" unicode="&#xf1;" horiz-adv-x="306" d="M163 441 C209 477 239 400 295 441 C312 453 301 476 280 464 C236 438 213 511 147 464 C125 447 140 426 163 441 L163 441 Z M155 115 C146 97 142 80 142 63 C142 21 166 0 213 0 C240 0 264 11 285 34 C306 57 322 80 331 104 C338 121 314 131 306 115 C306 114 305 113 305 112 C279 56 248 28 213 28 C186 28 172 40 172 63 C172 73 176 86 183 103 L256 260 C265 278 269 295 269 311 C269 354 240 378 193 375 C175 373 158 366 142 353 C144 362 140 367 131 370 C122 373 116 370 113 361 L0 115 C-27 57 -58 28 -93 28 C-113 28 -115 0 -93 0 C-65 0 -40 11 -19 33 C2 56 18 79 29 104 L105 271 C130 318 160 344 193 347 C220 350 239 335 239 311 C239 301 235 288 228 272 L155 115 Z " />
<glyph glyph-name="ograve" unicode="&#xf2;" horiz-adv-x="269" d="M63 0 C112 0 151 34 182 102 L256 260 C265 278 269 295 269 311 C269 352 240 375 193 375 C144 375 105 341 74 273 L0 115 C-9 97 -13 80 -13 64 C-13 23 16 0 63 0 L63 0 Z M17 64 C17 74 21 87 28 103 L100 257 C127 317 158 347 193 347 C224 347 239 335 239 311 C239 301 235 288 228 272 L156 118 C129 58 98 28 63 28 C32 28 17 40 17 64 L17 64 Z M280 474 C289 469 295 470 300 477 C305 484 304 491 295 497 L193 595 C172 605 161 583 178 572 L280 474 Z " />
<glyph glyph-name="oacute" unicode="&#xf3;" horiz-adv-x="269" d="M63 0 C112 0 151 34 182 102 L256 260 C265 278 269 295 269 311 C269 352 240 375 193 375 C144 375 105 341 74 273 L0 115 C-9 97 -13 80 -13 64 C-13 23 16 0 63 0 L63 0 Z M17 64 C17 74 21 87 28 103 L100 257 C127 317 158 347 193 347 C224 347 239 335 239 311 C239 301 235 288 228 272 L156 118 C129 58 98 28 63 28 C32 28 17 40 17 64 L17 64 Z M341 572 C358 583 347 605 326 595 L187 497 C178 491 176 484 181 477 C186 470 193 469 202 474 L341 572 Z " />
<glyph glyph-name="ocircumflex" unicode="&#xf4;" horiz-adv-x="269" d="M63 0 C112 0 151 34 182 102 L256 260 C265 278 269 295 269 311 C269 352 240 375 193 375 C144 375 105 341 74 273 L0 115 C-9 97 -13 80 -13 64 C-13 23 16 0 63 0 L63 0 Z M17 64 C17 74 21 87 28 103 L100 257 C127 317 158 347 193 347 C224 347 239 335 239 311 C239 301 235 288 228 272 L156 118 C129 58 98 28 63 28 C32 28 17 40 17 64 L17 64 Z M323 589 C320 598 312 598 300 589 L172 498 C155 487 166 465 187 475 L306 559 L344 477 C354 465 376 478 367 493 L323 589 Z " />
<glyph glyph-name="otilde" unicode="&#xf5;" horiz-adv-x="269" d="M63 0 C112 0 151 34 182 102 L256 260 C265 278 269 295 269 311 C269 352 240 375 193 375 C144 375 105 341 74 273 L0 115 C-9 97 -13 80 -13 64 C-13 23 16 0 63 0 L63 0 Z M17 64 C17 74 21 87 28 103 L100 257 C127 317 158 347 193 347 C224 347 239 335 239 311 C239 301 235 288 228 272 L156 118 C129 58 98 28 63 28 C32 28 17 40 17 64 L17 64 Z M186 441 C232 477 262 400 318 441 C335 453 324 476 303 464 C259 438 236 511 170 464 C148 447 163 426 186 441 L186 441 Z " />
<glyph glyph-name="odieresis" unicode="&#xf6;" horiz-adv-x="269" d="M63 0 C112 0 151 34 182 102 L256 260 C265 278 269 295 269 311 C269 352 240 375 193 375 C144 375 105 341 74 273 L0 115 C-9 97 -13 80 -13 64 C-13 23 16 0 63 0 L63 0 Z M17 64 C17 74 21 87 28 103 L100 257 C127 317 158 347 193 347 C224 347 239 335 239 311 C239 301 235 288 228 272 L156 118 C129 58 98 28 63 28 C32 28 17 40 17 64 L17 64 Z M197 432 C220 432 239 461 224 478 C210 496 177 483 175 459 C172 444 181 432 197 432 L197 432 Z M286 432 C309 432 328 461 313 478 C299 496 266 483 264 459 C261 444 270 432 286 432 L286 432 Z " />
<glyph glyph-name="divide" unicode="&#xf7;" horiz-adv-x="677" d="M341 381 C300 381 266 367 237 338 C222 322 240 304 257 320 C278 342 306 353 341 353 C363 353 392 343 428 324 C437 320 439 318 434 314 C409 305 379 273 344 218 C336 204 334 193 339 186 C344 178 353 179 364 188 C387 207 432 207 453 186 C464 176 470 162 470 145 C470 104 447 69 402 42 C357 15 303 1 241 1 C236 1 222 1 222 4 L224 11 C229 28 231 45 231 64 C231 79 229 99 225 126 C221 153 219 172 219 183 C219 215 244 239 277 239 C292 239 303 231 310 216 C318 199 342 208 336 229 C330 256 310 269 277 269 C228 269 189 231 189 183 C189 169 192 148 197 120 C202 98 204 80 204 65 C204 45 198 6 189 9 C184 10 181 11 179 12 L178 12 C167 17 159 14 156 4 C152 -7 157 -15 172 -19 C195 -26 219 -29 246 -29 C313 -29 372 -12 423 21 C474 55 500 96 500 145 C500 196 464 231 411 231 C400 231 392 230 385 228 C417 275 457 306 482 291 C523 268 558 256 589 256 C628 256 658 270 679 297 C687 309 682 318 673 321 C667 322 662 320 657 315 C642 294 620 284 589 284 C563 284 524 299 473 330 C414 364 370 381 341 381 L341 381 Z " />
<glyph glyph-name="oslash" unicode="&#xf8;" horiz-adv-x="269" d="M63 0 C112 0 151 34 182 102 L256 260 C265 278 269 295 269 311 C269 329 263 344 251 356 L277 397 C282 408 279 415 270 418 C261 421 254 418 249 409 L225 371 C216 374 206 375 193 375 C144 375 105 341 74 273 L0 115 C-9 97 -13 80 -13 64 C-13 43 -7 28 6 17 L-13 -14 C-18 -25 -16 -33 -6 -36 C4 -39 12 -35 17 -23 L33 3 C42 1 52 0 63 0 L63 0 Z M17 64 C17 74 21 87 28 103 L100 257 C127 317 158 347 193 347 C224 347 239 335 239 311 C239 301 235 288 228 272 L156 118 C129 58 98 28 63 28 C32 28 17 40 17 64 L17 64 Z " />
<glyph glyph-name="ugrave" unicode="&#xf9;" horiz-adv-x="307" d="M141 348 C149 369 121 379 113 360 L0 115 C-9 97 -13 80 -13 64 C-13 23 16 0 63 0 C93 0 120 15 144 46 C151 15 174 0 214 0 C241 0 265 11 286 34 C307 57 323 80 332 104 C339 121 315 131 307 115 C307 114 306 113 306 112 C280 56 249 28 214 28 C187 28 173 40 173 63 C173 73 177 86 184 103 L296 348 C304 369 276 379 268 360 L156 115 L151 105 C126 54 97 28 63 28 C32 28 17 40 17 64 C17 74 21 87 28 103 L141 348 Z M264 474 C273 469 279 470 284 477 C289 484 288 491 279 497 L177 595 C156 605 145 583 162 572 L264 474 Z " />
<glyph glyph-name="uacute" unicode="&#xfa;" horiz-adv-x="307" d="M141 348 C149 369 121 379 113 360 L0 115 C-9 97 -13 80 -13 64 C-13 23 16 0 63 0 C93 0 120 15 144 46 C151 15 174 0 214 0 C241 0 265 11 286 34 C307 57 323 80 332 104 C339 121 315 131 307 115 C307 114 306 113 306 112 C280 56 249 28 214 28 C187 28 173 40 173 63 C173 73 177 86 184 103 L296 348 C304 369 276 379 268 360 L156 115 L151 105 C126 54 97 28 63 28 C32 28 17 40 17 64 C17 74 21 87 28 103 L141 348 Z M346 572 C363 583 352 605 331 595 L192 497 C183 491 181 484 186 477 C191 470 198 469 207 474 L346 572 Z " />
<glyph glyph-name="ucircumflex" unicode="&#xfb;" horiz-adv-x="307" d="M141 348 C149 369 121 379 113 360 L0 115 C-9 97 -13 80 -13 64 C-13 23 16 0 63 0 C93 0 120 15 144 46 C151 15 174 0 214 0 C241 0 265 11 286 34 C307 57 323 80 332 104 C339 121 315 131 307 115 C307 114 306 113 306 112 C280 56 249 28 214 28 C187 28 173 40 173 63 C173 73 177 86 184 103 L296 348 C304 369 276 379 268 360 L156 115 L151 105 C126 54 97 28 63 28 C32 28 17 40 17 64 C17 74 21 87 28 103 L141 348 Z M298 589 C295 598 287 598 275 589 L147 498 C130 487 141 465 162 475 L281 559 L319 477 C329 465 351 478 342 493 L298 589 Z " />
<glyph glyph-name="udieresis" unicode="&#xfc;" horiz-adv-x="307" d="M141 348 C149 369 121 379 113 360 L0 115 C-9 97 -13 80 -13 64 C-13 23 16 0 63 0 C93 0 120 15 144 46 C151 15 174 0 214 0 C241 0 265 11 286 34 C307 57 323 80 332 104 C339 121 315 131 307 115 C307 114 306 113 306 112 C280 56 249 28 214 28 C187 28 173 40 173 63 C173 73 177 86 184 103 L296 348 C304 369 276 379 268 360 L156 115 L151 105 C126 54 97 28 63 28 C32 28 17 40 17 64 C17 74 21 87 28 103 L141 348 Z M189 432 C212 432 231 461 216 478 C202 496 169 483 167 459 C164 444 173 432 189 432 L189 432 Z M278 432 C301 432 320 461 305 478 C291 496 258 483 256 459 C253 444 262 432 278 432 L278 432 Z " />
<glyph glyph-name="yacute" unicode="&#xfd;" horiz-adv-x="291" d="M-128 -31 C-157 -32 -180 -42 -197 -63 C-215 -84 -224 -106 -224 -129 C-224 -184 -185 -226 -105 -226 C-12 -226 64 -160 124 -28 L296 348 C304 369 276 379 268 360 L156 115 C129 57 98 28 63 28 C32 28 17 40 17 64 C17 74 21 87 28 103 L141 348 C149 369 121 379 113 360 L0 115 C-9 97 -13 80 -13 64 C-13 23 16 0 63 0 C80 0 95 5 110 14 L91 -28 C43 -135 -32 -198 -105 -198 C-165 -198 -194 -168 -194 -129 C-194 -97 -168 -62 -128 -59 C-107 -59 -107 -31 -128 -31 L-128 -31 Z M198 0 C225 0 249 11 270 34 C291 57 307 80 316 104 C323 121 299 131 291 115 C291 114 290 113 290 112 C264 56 233 28 198 28 C191 28 187 23 187 14 C187 5 191 0 198 0 L198 0 Z M373 572 C390 583 379 605 358 595 L219 497 C210 491 208 484 213 477 C218 470 225 469 234 474 L373 572 Z " />
<glyph glyph-name="thorn" unicode="&#xfe;" horiz-adv-x="276" d="M-159 -231 C-167 -252 -139 -262 -131 -243 L-3 36 C8 12 29 0 62 0 C111 0 150 34 181 102 L255 260 C264 278 268 295 268 311 C268 354 244 375 196 375 C177 375 160 368 143 355 L242 572 C250 593 222 603 214 584 L-159 -231 Z M29 107 L100 262 L104 271 C124 310 157 347 196 347 C224 347 238 335 238 311 C238 301 234 288 227 272 L155 118 C128 58 97 28 62 28 C31 28 16 40 16 64 C16 69 18 77 21 88 L25 97 L29 107 Z M183 0 C210 0 234 11 255 34 C276 57 292 80 301 104 C308 121 284 131 276 115 C276 114 275 113 275 112 C249 56 218 28 183 28 C176 28 172 23 172 14 C172 5 176 0 183 0 L183 0 Z " />
<glyph glyph-name="ydieresis" unicode="&#xff;" horiz-adv-x="291" d="M-128 -31 C-157 -32 -180 -42 -197 -63 C-215 -84 -224 -106 -224 -129 C-224 -184 -185 -226 -105 -226 C-12 -226 64 -160 124 -28 L296 348 C304 369 276 379 268 360 L156 115 C129 57 98 28 63 28 C32 28 17 40 17 64 C17 74 21 87 28 103 L141 348 C149 369 121 379 113 360 L0 115 C-9 97 -13 80 -13 64 C-13 23 16 0 63 0 C80 0 95 5 110 14 L91 -28 C43 -135 -32 -198 -105 -198 C-165 -198 -194 -168 -194 -129 C-194 -97 -168 -62 -128 -59 C-107 -59 -107 -31 -128 -31 L-128 -31 Z M198 0 C225 0 249 11 270 34 C291 57 307 80 316 104 C323 121 299 131 291 115 C291 114 290 113 290 112 C264 56 233 28 198 28 C191 28 187 23 187 14 C187 5 191 0 198 0 L198 0 Z M186 432 C209 432 228 461 213 478 C199 496 166 483 164 459 C161 444 170 432 186 432 L186 432 Z M275 432 C298 432 317 461 302 478 C288 496 255 483 253 459 C250 444 259 432 275 432 L275 432 Z " />
<glyph glyph-name="Amacron" unicode="&#x100;" horiz-adv-x="1083" d="M861 51 C826 -24 816 -153 919 -153 C926 -153 934 -152 943 -150 C954 -146 960 -139 960 -128 C959 -119 954 -116 943 -120 C935 -122 928 -123 922 -123 C846 -123 861 -19 889 39 L1083 458 C1142 585 1205 648 1272 648 C1299 647 1319 641 1334 628 C1343 621 1350 621 1356 630 C1362 639 1360 647 1350 654 C1330 669 1302 676 1267 676 C1114 676 986 604 884 500 C813 429 762 355 717 268 C594 56 458 -50 309 -50 C244 -50 186 -28 136 16 C86 61 61 117 61 184 C61 247 83 302 126 348 C170 395 226 418 295 418 C408 418 470 359 470 278 C470 248 458 222 435 201 C414 183 437 165 456 180 C485 208 500 241 500 278 C500 375 428 448 297 448 C220 448 156 422 106 369 C56 316 31 255 31 184 C31 107 58 44 112 -5 C166 -55 232 -80 309 -80 C367 -80 424 -64 479 -33 C534 -2 582 35 621 80 C661 125 698 176 733 235 L945 235 L861 51 Z M1174 638 C1131 602 1089 540 1047 451 L958 262 L748 262 C863 477 1005 602 1174 638 L1174 638 Z M1251 742 C1273 742 1273 770 1251 770 L1072 770 C1062 770 1057 765 1057 756 C1057 747 1062 742 1072 742 L1251 742 Z " />
<glyph glyph-name="amacron" unicode="&#x101;" horiz-adv-x="307" d="M214 0 C241 0 265 11 286 34 C307 57 323 80 332 104 C339 121 315 131 307 115 C307 114 306 113 306 112 C280 56 249 28 214 28 C187 28 173 40 173 63 C173 73 177 86 184 103 L296 348 C304 369 276 379 268 360 L258 339 C247 363 226 375 193 375 C144 375 105 341 74 273 L0 115 C-9 97 -13 80 -13 64 C-13 23 16 0 63 0 C93 0 120 15 144 46 C151 15 174 0 214 0 L214 0 Z M63 28 C32 28 17 40 17 64 C17 74 21 87 28 103 L100 257 C127 317 158 347 193 347 C224 347 239 335 239 311 C239 302 235 289 228 272 L151 105 C126 54 97 28 63 28 L63 28 Z M331 449 C353 449 353 477 331 477 L152 477 C142 477 137 472 137 463 C137 454 142 449 152 449 L331 449 Z " />
<glyph glyph-name="Abreve" unicode="&#x102;" horiz-adv-x="1083" d="M861 51 C826 -24 816 -153 919 -153 C926 -153 934 -152 943 -150 C954 -146 960 -139 960 -128 C959 -119 954 -116 943 -120 C935 -122 928 -123 922 -123 C846 -123 861 -19 889 39 L1083 458 C1142 585 1205 648 1272 648 C1299 647 1319 641 1334 628 C1343 621 1350 621 1356 630 C1362 639 1360 647 1350 654 C1330 669 1302 676 1267 676 C1114 676 986 604 884 500 C813 429 762 355 717 268 C594 56 458 -50 309 -50 C244 -50 186 -28 136 16 C86 61 61 117 61 184 C61 247 83 302 126 348 C170 395 226 418 295 418 C408 418 470 359 470 278 C470 248 458 222 435 201 C414 183 437 165 456 180 C485 208 500 241 500 278 C500 375 428 448 297 448 C220 448 156 422 106 369 C56 316 31 255 31 184 C31 107 58 44 112 -5 C166 -55 232 -80 309 -80 C367 -80 424 -64 479 -33 C534 -2 582 35 621 80 C661 125 698 176 733 235 L945 235 L861 51 Z M1174 638 C1131 602 1089 540 1047 451 L958 262 L748 262 C863 477 1005 602 1174 638 L1174 638 Z M1205 822 C1217 790 1250 767 1289 767 C1323 767 1356 781 1388 809 C1397 816 1398 824 1393 831 C1388 838 1382 838 1375 831 C1348 808 1321 797 1295 797 C1264 797 1238 814 1229 838 C1226 845 1220 847 1213 844 C1204 840 1202 833 1205 822 L1205 822 Z " />
<glyph glyph-name="abreve" unicode="&#x103;" horiz-adv-x="307" d="M214 0 C241 0 265 11 286 34 C307 57 323 80 332 104 C339 121 315 131 307 115 C307 114 306 113 306 112 C280 56 249 28 214 28 C187 28 173 40 173 63 C173 73 177 86 184 103 L296 348 C304 369 276 379 268 360 L258 339 C247 363 226 375 193 375 C144 375 105 341 74 273 L0 115 C-9 97 -13 80 -13 64 C-13 23 16 0 63 0 C93 0 120 15 144 46 C151 15 174 0 214 0 L214 0 Z M63 28 C32 28 17 40 17 64 C17 74 21 87 28 103 L100 257 C127 317 158 347 193 347 C224 347 239 335 239 311 C239 302 235 289 228 272 L151 105 C126 54 97 28 63 28 L63 28 Z M168 529 C180 497 213 474 252 474 C286 474 319 488 351 516 C360 523 361 531 356 538 C351 545 345 545 338 538 C311 515 284 504 258 504 C227 504 201 521 192 545 C189 552 183 554 176 551 C167 547 165 540 168 529 L168 529 Z " />
<glyph glyph-name="Aogonek" unicode="&#x104;" horiz-adv-x="1083" d="M861 51 C830 -17 818 -131 894 -150 C875 -168 866 -187 866 -207 C866 -244 891 -272 935 -272 C958 -272 979 -263 998 -245 C1005 -238 1006 -231 1002 -223 C997 -214 991 -214 982 -222 C968 -235 952 -242 935 -242 C909 -242 896 -230 896 -207 C896 -184 914 -157 943 -150 C954 -147 960 -139 960 -128 C959 -119 954 -116 943 -120 C935 -122 928 -123 922 -123 C846 -123 861 -19 889 39 L1083 458 C1142 585 1205 648 1272 648 C1299 647 1319 641 1334 628 C1343 621 1350 621 1356 630 C1362 639 1360 647 1350 654 C1330 669 1302 676 1267 676 C1114 676 986 604 884 500 C813 429 762 355 717 268 C594 56 458 -50 309 -50 C244 -50 186 -28 136 16 C86 61 61 117 61 184 C61 247 83 302 126 348 C170 395 226 418 295 418 C408 418 470 359 470 278 C470 248 458 222 435 201 C414 183 437 165 456 180 C485 208 500 241 500 278 C500 375 428 448 297 448 C220 448 156 422 106 369 C56 316 31 255 31 184 C31 107 58 44 112 -5 C166 -55 232 -80 309 -80 C367 -80 424 -64 479 -33 C534 -2 582 35 621 80 C661 125 698 176 733 235 L945 235 L861 51 Z M1174 638 C1131 602 1089 540 1047 451 L958 262 L748 262 C863 477 1005 602 1174 638 L1174 638 Z " />
<glyph glyph-name="aogonek" unicode="&#x105;" horiz-adv-x="307" d="M332 104 C339 121 315 131 307 115 C307 114 306 113 306 112 C280 56 249 28 214 28 C187 28 173 40 173 63 C173 73 177 86 184 103 L296 348 C304 369 276 379 268 360 L258 339 C247 363 226 375 193 375 C144 375 105 341 74 273 L0 115 C-9 97 -13 80 -13 64 C-13 23 16 0 63 0 C93 0 120 15 144 46 C150 20 168 5 197 1 C182 -14 175 -31 175 -49 C175 -86 200 -114 244 -114 C267 -114 288 -105 307 -87 C314 -80 316 -72 311 -65 C306 -56 300 -56 291 -64 C277 -77 261 -84 244 -84 C218 -84 205 -72 205 -49 C205 -26 221 -7 254 10 C288 27 314 59 332 104 L332 104 Z M63 28 C32 28 17 40 17 64 C17 74 21 87 28 103 L100 257 C127 317 158 347 193 347 C224 347 239 335 239 311 C239 302 235 289 228 272 L151 105 C126 54 97 28 63 28 L63 28 Z " />
<glyph glyph-name="Cacute" unicode="&#x106;" horiz-adv-x="718" d="M379 -118 C452 -118 514 -93 564 -44 C614 5 639 58 639 115 C639 154 626 186 601 213 C576 240 544 254 504 254 C432 254 383 213 364 164 C356 141 383 129 392 152 C411 201 449 226 504 226 C565 226 609 174 609 111 C609 61 587 15 542 -26 C498 -68 444 -89 379 -89 C300 -89 237 -60 190 -2 C143 55 120 123 120 202 C120 314 189 446 293 536 C364 597 461 636 558 636 C618 636 664 622 696 594 C729 567 745 534 745 497 C745 467 733 440 709 416 C686 393 658 381 626 381 C567 381 540 411 540 450 C540 461 543 473 550 485 C561 502 538 516 525 500 C515 487 510 471 510 451 C510 395 544 352 623 352 C665 352 701 367 730 398 C759 429 774 464 774 503 C774 546 755 583 716 616 C678 649 626 665 560 665 C396 665 254 568 176 448 C120 368 90 280 90 201 C90 113 117 38 170 -24 C223 -87 293 -118 379 -118 L379 -118 Z M776 865 C793 876 782 898 761 888 L622 790 C613 784 611 777 616 770 C621 763 628 762 637 767 L776 865 Z " />
<glyph glyph-name="cacute" unicode="&#x107;" horiz-adv-x="232" d="M186 375 C140 375 102 341 71 273 L17 159 C-27 54 13 0 102 0 C135 0 166 10 195 31 C224 52 245 76 257 104 C266 121 240 130 232 115 C221 95 204 75 181 56 C158 37 131 28 102 28 C35 28 12 75 45 147 L97 257 C124 317 153 347 186 347 C220 347 228 326 211 285 C205 272 202 264 201 263 C196 251 199 244 209 242 C220 239 229 244 234 258 L243 280 C267 333 242 375 186 375 L186 375 Z M334 572 C351 583 340 605 319 595 L180 497 C171 491 169 484 174 477 C179 470 186 469 195 474 L334 572 Z " />
<glyph glyph-name="Ccaron" unicode="&#x10c;" horiz-adv-x="718" d="M379 -118 C452 -118 514 -93 564 -44 C614 5 639 58 639 115 C639 154 626 186 601 213 C576 240 544 254 504 254 C432 254 383 213 364 164 C356 141 383 129 392 152 C411 201 449 226 504 226 C565 226 609 174 609 111 C609 61 587 15 542 -26 C498 -68 444 -89 379 -89 C300 -89 237 -60 190 -2 C143 55 120 123 120 202 C120 314 189 446 293 536 C364 597 461 636 558 636 C618 636 664 622 696 594 C729 567 745 534 745 497 C745 467 733 440 709 416 C686 393 658 381 626 381 C567 381 540 411 540 450 C540 461 543 473 550 485 C561 502 538 516 525 500 C515 487 510 471 510 451 C510 395 544 352 623 352 C665 352 701 367 730 398 C759 429 774 464 774 503 C774 546 755 583 716 616 C678 649 626 665 560 665 C396 665 254 568 176 448 C120 368 90 280 90 201 C90 113 117 38 170 -24 C223 -87 293 -118 379 -118 L379 -118 Z M621 766 C624 759 630 760 641 767 L771 859 C788 870 777 892 756 882 L637 797 L599 880 C589 892 567 879 576 864 L621 766 Z " />
<glyph glyph-name="ccaron" unicode="&#x10d;" horiz-adv-x="232" d="M186 375 C140 375 102 341 71 273 L17 159 C-27 54 13 0 102 0 C135 0 166 10 195 31 C224 52 245 76 257 104 C266 121 240 130 232 115 C221 95 204 75 181 56 C158 37 131 28 102 28 C35 28 12 75 45 147 L97 257 C124 317 153 347 186 347 C220 347 228 326 211 285 C205 272 202 264 201 263 C196 251 199 244 209 242 C220 239 229 244 234 258 L243 280 C267 333 242 375 186 375 L186 375 Z M229 473 C232 466 238 467 249 474 L379 566 C396 577 385 599 364 589 L245 504 L207 587 C197 599 175 586 184 571 L229 473 Z " />
<glyph glyph-name="Dcaron" unicode="&#x10e;" horiz-adv-x="974" d="M515 688 C324 687 186 607 112 508 C60 441 36 371 36 306 C36 210 84 129 169 97 C174 96 177 95 178 95 C188 95 194 100 195 109 C198 115 194 120 183 123 C107 152 67 222 67 305 C66 450 208 659 515 658 C562 658 608 653 652 642 C635 631 617 610 598 580 C579 551 564 525 553 503 C542 481 528 451 511 412 L440 251 C411 188 385 138 362 101 C339 64 311 35 278 12 C195 45 130 61 85 61 C37 61 -1 37 -1 6 C-1 -21 19 -41 48 -49 C77 -58 100 -62 123 -62 C186 -61 239 -47 284 -20 C317 -34 342 -44 358 -50 C374 -56 395 -62 422 -69 C449 -76 474 -79 496 -79 C758 -80 945 124 946 344 C946 433 908 517 839 581 C770 646 654 688 515 688 L515 688 Z M914 344 C914 238 874 146 794 68 C714 -10 615 -49 496 -49 C453 -49 392 -33 311 -1 C372 48 412 119 469 244 L540 401 C543 406 549 421 559 445 C570 469 577 485 581 493 C585 501 592 514 601 533 C621 570 632 582 652 605 C663 616 674 626 685 633 C760 610 816 572 855 519 C894 466 914 408 914 344 L914 344 Z M123 -32 C60 -32 28 -19 28 6 C28 21 50 34 83 34 C122 34 177 21 247 -6 C212 -23 171 -32 123 -32 L123 -32 Z M713 766 C716 759 722 760 733 767 L863 859 C880 870 869 892 848 882 L729 797 L691 880 C681 892 659 879 668 864 L713 766 Z " />
<glyph glyph-name="dcaron" unicode="&#x10f;" horiz-adv-x="457" d="M214 0 C241 0 265 11 286 34 C307 57 323 80 332 104 C339 121 315 131 307 115 C307 114 306 113 306 112 C280 56 249 28 214 28 C187 28 173 40 173 63 C173 73 177 86 184 103 L399 572 C407 593 379 603 371 584 L258 339 C247 363 226 375 193 375 C144 375 105 341 74 273 L0 115 C-9 97 -13 80 -13 64 C-13 23 16 0 63 0 C93 0 120 15 144 46 C151 15 174 0 214 0 L214 0 Z M151 105 C126 54 97 28 63 28 C32 28 17 40 17 64 C17 74 21 87 28 103 L100 257 C127 317 158 347 193 347 C224 347 239 335 239 311 C239 302 235 289 228 272 L156 115 L151 105 Z M548 595 C529 595 509 579 508 559 C505 542 519 527 536 523 C517 496 496 477 473 468 C457 463 465 439 485 450 C522 472 551 501 571 538 C587 566 576 595 548 595 L548 595 Z " />
<glyph glyph-name="Dcroat" unicode="&#x110;" horiz-adv-x="974" d="M421 210 C374 111 327 45 278 12 C195 45 130 61 85 61 C37 61 -1 37 -1 6 C-1 -21 19 -41 48 -49 C77 -58 100 -62 123 -62 C186 -61 239 -47 284 -20 C317 -34 342 -44 358 -50 C374 -56 395 -62 422 -69 C449 -76 474 -79 496 -79 C758 -80 945 124 946 344 C946 433 908 517 839 581 C770 646 654 688 515 688 C324 687 186 607 112 508 C60 441 36 371 36 306 C36 210 84 129 169 97 C174 96 177 95 178 95 C188 95 194 100 195 109 C198 115 194 120 183 123 C107 152 67 222 67 305 C66 450 208 659 515 658 C562 658 608 653 652 642 C635 631 617 610 598 580 C579 551 564 525 553 503 C542 481 528 451 511 412 L440 251 L434 238 L351 238 C341 238 336 233 336 224 C336 215 341 210 351 210 L421 210 Z M914 344 C914 238 874 146 794 68 C714 -10 615 -49 496 -49 C453 -49 392 -33 311 -1 C358 37 405 107 453 210 L530 210 C552 210 552 238 530 238 L466 238 L469 244 L540 401 C543 406 549 421 559 445 C570 469 577 485 581 493 C585 501 592 514 601 533 C621 570 632 582 652 605 C663 616 674 626 685 633 C760 610 816 572 855 519 C894 466 914 408 914 344 L914 344 Z M123 -32 C60 -32 28 -19 28 6 C28 21 50 34 83 34 C122 34 177 21 247 -6 C212 -23 171 -32 123 -32 L123 -32 Z " />
<glyph glyph-name="dslash" unicode="&#x111;" horiz-adv-x="307" d="M311 454 L258 339 C247 363 226 375 193 375 C144 375 105 341 74 273 L0 115 C-9 97 -13 80 -13 64 C-13 23 16 0 63 0 C93 0 120 15 144 46 C151 15 174 0 214 0 C241 0 265 11 286 34 C307 57 323 80 332 104 C339 121 315 131 307 115 C307 114 306 113 306 112 C280 56 249 28 214 28 C187 28 173 40 173 63 C173 73 177 86 184 103 L344 454 L384 454 L389 455 C399 457 404 462 405 471 C406 478 401 482 392 482 L357 482 L399 572 C407 593 379 603 371 584 L324 482 L284 482 C274 482 268 477 265 468 C262 459 266 454 276 454 L311 454 Z M151 105 C126 54 97 28 63 28 C32 28 17 40 17 64 C17 74 21 87 28 103 L100 257 C127 317 158 347 193 347 C224 347 239 335 239 311 C239 302 235 289 228 272 L156 115 L151 105 Z " />
<glyph glyph-name="Emacron" unicode="&#x112;" horiz-adv-x="700" d="M310 -136 C374 -136 433 -113 486 -67 C540 -21 567 32 567 92 C567 132 554 166 528 195 C502 224 468 239 427 239 C387 239 354 228 329 206 C304 184 291 159 290 132 C290 120 295 114 304 114 C312 114 317 120 319 132 C320 172 364 208 427 208 C460 208 486 196 506 173 C527 150 537 123 537 92 C537 42 514 -3 468 -44 C423 -85 370 -106 311 -106 C232 -106 174 -86 136 -47 C98 -8 79 37 79 88 C79 151 111 207 174 256 C238 305 313 330 398 330 L434 330 C446 330 452 335 452 346 C452 357 446 363 433 363 L415 363 C339 363 305 412 305 485 C305 536 329 579 376 616 C423 653 478 672 540 672 C597 672 643 658 678 631 C713 604 731 572 731 536 C731 505 719 477 695 453 C672 429 643 417 609 417 C553 417 524 445 524 484 C524 500 528 514 537 525 C549 543 527 559 512 542 C501 527 495 508 495 484 C495 432 536 388 609 388 C651 388 687 404 716 435 C746 466 761 502 761 541 C761 583 741 620 700 652 C659 684 607 700 542 700 C471 700 409 678 356 635 C303 592 276 540 276 481 C276 430 296 375 345 351 C342 351 331 352 326 352 C242 336 175 302 125 250 C75 199 50 144 50 87 C50 -17 121 -136 310 -136 L310 -136 Z M668 742 C690 742 690 770 668 770 L489 770 C479 770 474 765 474 756 C474 747 479 742 489 742 L668 742 Z " />
<glyph glyph-name="emacron" unicode="&#x113;" horiz-adv-x="232" d="M186 375 C140 375 102 341 71 273 L17 159 C-27 54 13 0 102 0 C135 0 166 10 195 31 C224 52 245 76 257 104 C266 121 240 130 232 115 C221 95 204 75 181 56 C158 37 131 28 102 28 C35 28 12 75 45 147 L63 186 C76 175 93 169 114 169 C173 169 212 203 243 280 C266 333 242 375 186 375 L186 375 Z M211 285 C187 228 158 200 113 200 C98 200 85 204 76 212 L97 257 C124 317 153 347 186 347 C220 347 228 326 211 285 L211 285 Z M301 449 C323 449 323 477 301 477 L122 477 C112 477 107 472 107 463 C107 454 112 449 122 449 L301 449 Z " />
<glyph glyph-name="Edotaccent" unicode="&#x116;" horiz-adv-x="700" d="M310 -136 C374 -136 433 -113 486 -67 C540 -21 567 32 567 92 C567 132 554 166 528 195 C502 224 468 239 427 239 C387 239 354 228 329 206 C304 184 291 159 290 132 C290 120 295 114 304 114 C312 114 317 120 319 132 C320 172 364 208 427 208 C460 208 486 196 506 173 C527 150 537 123 537 92 C537 42 514 -3 468 -44 C423 -85 370 -106 311 -106 C232 -106 174 -86 136 -47 C98 -8 79 37 79 88 C79 151 111 207 174 256 C238 305 313 330 398 330 L434 330 C446 330 452 335 452 346 C452 357 446 363 433 363 L415 363 C339 363 305 412 305 485 C305 536 329 579 376 616 C423 653 478 672 540 672 C597 672 643 658 678 631 C713 604 731 572 731 536 C731 505 719 477 695 453 C672 429 643 417 609 417 C553 417 524 445 524 484 C524 500 528 514 537 525 C549 543 527 559 512 542 C501 527 495 508 495 484 C495 432 536 388 609 388 C651 388 687 404 716 435 C746 466 761 502 761 541 C761 583 741 620 700 652 C659 684 607 700 542 700 C471 700 409 678 356 635 C303 592 276 540 276 481 C276 430 296 375 345 351 C342 351 331 352 326 352 C242 336 175 302 125 250 C75 199 50 144 50 87 C50 -17 121 -136 310 -136 L310 -136 Z M554 725 C577 725 596 754 581 771 C567 789 534 776 532 752 C529 737 538 725 554 725 L554 725 Z " />
<glyph glyph-name="edotaccent" unicode="&#x117;" horiz-adv-x="232" d="M186 375 C140 375 102 341 71 273 L17 159 C-27 54 13 0 102 0 C135 0 166 10 195 31 C224 52 245 76 257 104 C266 121 240 130 232 115 C221 95 204 75 181 56 C158 37 131 28 102 28 C35 28 12 75 45 147 L63 186 C76 175 93 169 114 169 C173 169 212 203 243 280 C266 333 242 375 186 375 L186 375 Z M211 285 C187 228 158 200 113 200 C98 200 85 204 76 212 L97 257 C124 317 153 347 186 347 C220 347 228 326 211 285 L211 285 Z M215 432 C238 432 257 461 242 478 C228 496 195 483 193 459 C190 444 199 432 215 432 L215 432 Z " />
<glyph glyph-name="Eogonek" unicode="&#x118;" horiz-adv-x="700" d="M567 92 C567 132 554 166 528 195 C502 224 468 239 427 239 C387 239 354 228 329 206 C304 184 291 159 290 132 C290 120 295 114 304 114 C312 114 317 120 319 132 C320 172 364 208 427 208 C460 208 486 196 506 173 C527 150 537 123 537 92 C537 42 514 -3 468 -44 C423 -85 370 -106 311 -106 C232 -106 174 -86 136 -47 C98 -8 79 37 79 88 C79 151 111 207 174 256 C238 305 313 330 398 330 L434 330 C446 330 452 335 452 346 C452 357 446 363 433 363 L415 363 C339 363 305 412 305 485 C305 536 329 579 376 616 C423 653 478 672 540 672 C597 672 643 658 678 631 C713 604 731 572 731 536 C731 505 719 477 695 453 C672 429 643 417 609 417 C553 417 524 445 524 484 C524 500 528 514 537 525 C549 543 527 559 512 542 C501 527 495 508 495 484 C495 432 536 388 609 388 C651 388 687 404 716 435 C746 466 761 502 761 541 C761 583 741 620 700 652 C659 684 607 700 542 700 C471 700 409 678 356 635 C303 592 276 540 276 481 C276 430 296 375 345 351 C342 351 331 352 326 352 C242 336 175 302 125 250 C75 199 50 144 50 87 C50 28 71 -23 112 -67 C154 -111 217 -134 302 -136 C283 -154 274 -173 274 -192 C274 -229 299 -257 343 -257 C366 -257 387 -248 406 -230 C413 -223 414 -216 410 -208 C405 -199 399 -199 390 -207 C376 -220 360 -227 343 -227 C317 -227 304 -215 304 -192 C304 -169 320 -150 353 -133 L356 -131 C413 -120 462 -93 504 -50 C546 -7 567 40 567 92 L567 92 Z " />
<glyph glyph-name="eogonek" unicode="&#x119;" horiz-adv-x="232" d="M186 375 C140 375 102 341 71 273 L17 159 C-27 55 12 1 99 0 C85 -16 78 -32 78 -49 C78 -86 103 -114 147 -114 C170 -114 191 -105 210 -87 C217 -80 219 -72 214 -65 C209 -56 203 -56 194 -64 C180 -77 164 -84 147 -84 C121 -84 108 -72 108 -49 C108 -26 124 -7 157 10 C158 10 158 11 159 11 C203 28 240 65 257 104 C266 121 240 130 232 115 C221 95 204 75 181 56 C158 37 131 28 102 28 C35 28 12 75 45 147 L63 186 C76 175 93 169 114 169 C173 169 212 203 243 280 C266 333 242 375 186 375 L186 375 Z M211 285 C187 228 158 200 113 200 C98 200 85 204 76 212 L97 257 C124 317 153 347 186 347 C220 347 228 326 211 285 L211 285 Z " />
<glyph glyph-name="Ecaron" unicode="&#x11a;" horiz-adv-x="700" d="M310 -136 C374 -136 433 -113 486 -67 C540 -21 567 32 567 92 C567 132 554 166 528 195 C502 224 468 239 427 239 C387 239 354 228 329 206 C304 184 291 159 290 132 C290 120 295 114 304 114 C312 114 317 120 319 132 C320 172 364 208 427 208 C460 208 486 196 506 173 C527 150 537 123 537 92 C537 42 514 -3 468 -44 C423 -85 370 -106 311 -106 C232 -106 174 -86 136 -47 C98 -8 79 37 79 88 C79 151 111 207 174 256 C238 305 313 330 398 330 L434 330 C446 330 452 335 452 346 C452 357 446 363 433 363 L415 363 C339 363 305 412 305 485 C305 536 329 579 376 616 C423 653 478 672 540 672 C597 672 643 658 678 631 C713 604 731 572 731 536 C731 505 719 477 695 453 C672 429 643 417 609 417 C553 417 524 445 524 484 C524 500 528 514 537 525 C549 543 527 559 512 542 C501 527 495 508 495 484 C495 432 536 388 609 388 C651 388 687 404 716 435 C746 466 761 502 761 541 C761 583 741 620 700 652 C659 684 607 700 542 700 C471 700 409 678 356 635 C303 592 276 540 276 481 C276 430 296 375 345 351 C342 351 331 352 326 352 C242 336 175 302 125 250 C75 199 50 144 50 87 C50 -17 121 -136 310 -136 L310 -136 Z M553 766 C556 759 562 760 573 767 L703 859 C720 870 709 892 688 882 L569 797 L531 880 C521 892 499 879 508 864 L553 766 Z " />
<glyph glyph-name="ecaron" unicode="&#x11b;" horiz-adv-x="232" d="M186 375 C140 375 102 341 71 273 L17 159 C-27 54 13 0 102 0 C135 0 166 10 195 31 C224 52 245 76 257 104 C266 121 240 130 232 115 C221 95 204 75 181 56 C158 37 131 28 102 28 C35 28 12 75 45 147 L63 186 C76 175 93 169 114 169 C173 169 212 203 243 280 C266 333 242 375 186 375 L186 375 Z M211 285 C187 228 158 200 113 200 C98 200 85 204 76 212 L97 257 C124 317 153 347 186 347 C220 347 228 326 211 285 L211 285 Z M200 473 C203 466 209 467 220 474 L350 566 C367 577 356 599 335 589 L216 504 L178 587 C168 599 146 586 155 571 L200 473 Z " />
<glyph glyph-name="Gbreve" unicode="&#x11e;" horiz-adv-x="649" d="M489 532 C476 517 469 500 469 479 C469 432 507 391 572 391 C609 391 639 405 664 433 C689 461 702 492 702 527 C701 565 683 598 646 625 C610 653 562 667 501 667 C442 667 386 653 333 626 C280 599 235 564 200 521 C129 437 85 333 85 245 C84 180 105 123 148 74 C191 26 248 2 321 2 C404 2 473 31 530 89 L470 -42 C422 -149 349 -212 274 -212 C214 -212 185 -182 186 -143 C186 -111 211 -76 251 -72 C272 -74 273 -45 252 -45 C223 -46 200 -56 182 -77 C164 -98 155 -120 155 -143 C155 -198 195 -240 274 -240 C367 -240 443 -174 503 -42 L642 265 C645 274 643 280 637 284 C628 287 620 283 614 270 L594 228 C575 185 548 146 504 103 C460 60 393 31 321 31 C257 31 206 52 169 94 C132 136 114 186 114 245 C114 406 274 639 502 639 C555 640 596 629 627 606 C658 583 673 557 673 526 C673 469 629 419 572 419 C523 420 497 446 496 479 C497 494 502 507 511 517 C518 523 518 529 513 535 C506 543 498 542 489 532 L489 532 Z M488 822 C500 790 533 767 572 767 C606 767 639 781 671 809 C680 816 681 824 676 831 C671 838 665 838 658 831 C631 808 604 797 578 797 C547 797 521 814 512 838 C509 845 503 847 496 844 C487 840 485 833 488 822 L488 822 Z " />
<glyph glyph-name="gbreve" unicode="&#x11f;" horiz-adv-x="291" d="M-128 -31 C-157 -32 -180 -42 -197 -63 C-215 -84 -224 -106 -224 -129 C-224 -184 -185 -226 -105 -226 C-12 -226 64 -160 124 -28 L296 348 C304 369 276 379 268 360 L258 339 C247 363 226 375 193 375 C144 375 105 341 74 273 L0 115 C-9 97 -13 80 -13 64 C-13 23 16 0 63 0 C82 0 98 6 111 17 L91 -28 C43 -135 -32 -198 -105 -198 C-165 -198 -194 -168 -194 -129 C-194 -97 -168 -62 -128 -59 C-107 -59 -107 -31 -128 -31 L-128 -31 Z M63 28 C32 28 17 40 17 64 C17 74 21 87 28 103 L100 257 C127 317 158 347 193 347 C224 347 239 335 239 311 C239 302 235 289 228 272 L151 105 C126 54 97 28 63 28 L63 28 Z M198 0 C225 0 249 11 270 34 C291 57 307 80 316 104 C323 121 299 131 291 115 C291 114 290 113 290 112 C264 56 233 28 198 28 C191 28 187 23 187 14 C187 5 191 0 198 0 L198 0 Z M178 529 C190 497 223 474 262 474 C296 474 329 488 361 516 C370 523 371 531 366 538 C361 545 355 545 348 538 C321 515 294 504 268 504 C237 504 211 521 202 545 C199 552 193 554 186 551 C177 547 175 540 178 529 L178 529 Z " />
<glyph glyph-name="Gcommaaccent" unicode="&#x122;" horiz-adv-x="649" d="M227 -285 C208 -285 188 -301 187 -321 C184 -338 198 -353 215 -357 C196 -384 175 -403 152 -412 C136 -417 144 -441 164 -430 C201 -408 230 -379 250 -342 C266 -314 255 -285 227 -285 L227 -285 Z M489 532 C476 517 469 500 469 479 C469 432 507 391 572 391 C609 391 639 405 664 433 C689 461 702 492 702 527 C701 565 683 598 646 625 C610 653 562 667 501 667 C442 667 386 653 333 626 C280 599 235 564 200 521 C129 437 85 333 85 245 C84 180 105 123 148 74 C191 26 248 2 321 2 C404 2 473 31 530 89 L470 -42 C422 -149 349 -212 274 -212 C214 -212 185 -182 186 -143 C186 -111 211 -76 251 -72 C272 -74 273 -45 252 -45 C223 -46 200 -56 182 -77 C164 -98 155 -120 155 -143 C155 -198 195 -240 274 -240 C367 -240 443 -174 503 -42 L642 265 C645 274 643 280 637 284 C628 287 620 283 614 270 L594 228 C575 185 548 146 504 103 C460 60 393 31 321 31 C257 31 206 52 169 94 C132 136 114 186 114 245 C114 406 274 639 502 639 C555 640 596 629 627 606 C658 583 673 557 673 526 C673 469 629 419 572 419 C523 420 497 446 496 479 C497 494 502 507 511 517 C518 523 518 529 513 535 C506 543 498 542 489 532 L489 532 Z " />
<glyph glyph-name="gcommaaccent" unicode="&#x123;" horiz-adv-x="291" d="M-128 -31 C-157 -32 -180 -42 -197 -63 C-215 -84 -224 -106 -224 -129 C-224 -184 -185 -226 -105 -226 C-12 -226 64 -160 124 -28 L296 348 C304 369 276 379 268 360 L258 339 C247 363 226 375 193 375 C144 375 105 341 74 273 L0 115 C-9 97 -13 80 -13 64 C-13 23 16 0 63 0 C82 0 98 6 111 17 L91 -28 C43 -135 -32 -198 -105 -198 C-165 -198 -194 -168 -194 -129 C-194 -97 -168 -62 -128 -59 C-107 -59 -107 -31 -128 -31 L-128 -31 Z M63 28 C32 28 17 40 17 64 C17 74 21 87 28 103 L100 257 C127 317 158 347 193 347 C224 347 239 335 239 311 C239 302 235 289 228 272 L151 105 C126 54 97 28 63 28 L63 28 Z M198 0 C225 0 249 11 270 34 C291 57 307 80 316 104 C323 121 299 131 291 115 C291 114 290 113 290 112 C264 56 233 28 198 28 C191 28 187 23 187 14 C187 5 191 0 198 0 L198 0 Z M239 460 C258 460 278 476 279 496 C282 513 268 528 251 532 C270 559 291 578 314 587 C330 592 322 616 302 605 C265 583 236 554 216 517 C200 489 211 460 239 460 L239 460 Z " />
<glyph glyph-name="Imacron" unicode="&#x12a;" horiz-adv-x="580" d="M578 670 C503 670 439 643 387 590 C335 537 309 472 309 396 C309 369 313 344 321 319 C326 308 331 303 338 303 C350 303 355 315 350 331 C344 351 341 372 341 395 C341 464 363 522 408 569 C453 616 510 639 578 639 C617 639 652 634 683 625 L696 621 C669 599 638 562 602 510 C566 458 536 407 513 357 L473 270 L473 271 C442 207 421 165 380 106 C359 77 338 54 317 35 C276 -1 216 -30 152 -30 C96 -30 52 -8 41 23 C33 46 7 32 13 11 C26 -32 85 -60 152 -60 C207 -60 259 -40 298 -16 C317 -5 337 12 357 34 C377 56 393 75 406 92 C419 109 433 133 450 162 C467 192 479 215 487 232 C496 249 507 273 522 304 C557 379 588 438 617 481 C646 525 680 567 721 606 C726 611 729 618 729 625 C729 636 720 644 702 650 C664 663 623 670 578 670 L578 670 Z M766 742 C788 742 788 770 766 770 L587 770 C577 770 572 765 572 756 C572 747 577 742 587 742 L766 742 Z " />
<glyph glyph-name="imacron" unicode="&#x12b;" horiz-adv-x="151" d="M58 0 C85 0 109 11 130 34 C151 57 167 80 176 104 C183 121 159 131 151 115 C151 114 150 113 150 112 C124 56 93 28 58 28 C31 28 17 40 17 63 C17 73 21 86 28 103 L140 348 C148 369 120 379 112 360 L0 115 C-9 97 -13 80 -13 63 C-13 21 11 0 58 0 L58 0 Z M243 449 C265 449 265 477 243 477 L64 477 C54 477 49 472 49 463 C49 454 54 449 64 449 L243 449 Z " />
<glyph glyph-name="Iogonek" unicode="&#x12e;" horiz-adv-x="580" d="M578 670 C503 670 439 643 387 590 C335 537 309 472 309 396 C309 369 313 344 321 319 C326 308 331 303 338 303 C350 303 355 315 350 331 C344 351 341 372 341 395 C341 464 363 522 408 569 C453 616 510 639 578 639 C617 639 652 634 683 625 L696 621 C669 599 638 562 602 510 C566 458 536 407 513 357 L473 270 L473 271 C442 207 421 165 380 106 C359 77 338 54 317 35 C276 -1 216 -30 152 -30 C96 -30 52 -8 41 23 C33 46 7 32 13 11 C26 -32 85 -60 152 -60 C156 -60 167 -59 171 -59 C156 -74 149 -91 149 -109 C149 -146 174 -174 218 -174 C241 -174 262 -165 281 -147 C288 -140 289 -133 285 -125 C280 -116 274 -116 265 -124 C251 -137 235 -144 218 -144 C192 -144 179 -132 179 -109 C179 -86 195 -67 228 -50 L231 -47 C287 -30 341 15 377 55 C395 76 414 103 434 136 C454 169 469 196 480 217 C491 238 505 267 522 304 C557 379 588 438 617 481 C646 525 680 567 721 606 C726 611 729 618 729 625 C729 636 720 644 702 650 C664 663 623 670 578 670 L578 670 Z " />
<glyph glyph-name="iogonek" unicode="&#x12f;" horiz-adv-x="151" d="M176 104 C183 121 159 131 151 115 C151 114 150 113 150 112 C124 56 93 28 58 28 C31 28 17 40 17 63 C17 73 21 86 28 103 L140 348 C148 369 120 379 112 360 L0 115 C-9 97 -13 80 -13 63 C-13 27 5 6 40 1 C25 -14 18 -31 18 -49 C18 -86 43 -114 87 -114 C110 -114 131 -105 150 -87 C157 -80 159 -72 154 -65 C149 -56 143 -56 134 -64 C120 -77 104 -84 87 -84 C61 -84 48 -72 48 -49 C48 -28 62 -10 90 6 C129 22 161 67 176 104 L176 104 Z M167 432 C190 432 209 461 194 478 C180 496 147 483 145 459 C142 444 151 432 167 432 L167 432 Z " />
<glyph glyph-name="Idot" unicode="&#x130;" horiz-adv-x="580" d="M578 670 C503 670 439 643 387 590 C335 537 309 472 309 396 C309 369 313 344 321 319 C326 308 331 303 338 303 C350 303 355 315 350 331 C344 351 341 372 341 395 C341 464 363 522 408 569 C453 616 510 639 578 639 C617 639 652 634 683 625 L696 621 C669 599 638 562 602 510 C566 458 536 407 513 357 L473 270 L473 271 C442 207 421 165 380 106 C359 77 338 54 317 35 C276 -1 216 -30 152 -30 C96 -30 52 -8 41 23 C33 46 7 32 13 11 C26 -32 85 -60 152 -60 C207 -60 259 -40 298 -16 C317 -5 337 12 357 34 C377 56 393 75 406 92 C419 109 433 133 450 162 C467 192 479 215 487 232 C496 249 507 273 522 304 C557 379 588 438 617 481 C646 525 680 567 721 606 C726 611 729 618 729 625 C729 636 720 644 702 650 C664 663 623 670 578 670 L578 670 Z M681 725 C704 725 723 754 708 771 C694 789 661 776 659 752 C656 737 665 725 681 725 L681 725 Z " />
<glyph glyph-name="dotlessi" unicode="&#x131;" horiz-adv-x="151" d="M58 0 C85 0 109 11 130 34 C151 57 167 80 176 104 C183 121 159 131 151 115 C151 114 150 113 150 112 C124 56 93 28 58 28 C31 28 17 40 17 63 C17 73 21 86 28 103 L140 348 C148 369 120 379 112 360 L0 115 C-9 97 -13 80 -13 63 C-13 21 11 0 58 0 L58 0 Z " />
<glyph glyph-name="Kcommaaccent" unicode="&#x136;" horiz-adv-x="861" d="M492 -66 C473 -66 453 -82 452 -102 C449 -119 463 -134 480 -138 C461 -165 440 -184 417 -193 C401 -198 409 -222 429 -211 C466 -189 495 -160 515 -123 C531 -95 520 -66 492 -66 L492 -66 Z M143 -61 C90 -60 48 -36 37 -3 C33 12 4 3 8 -14 C23 -55 79 -91 143 -92 C176 -91 205 -86 231 -78 C272 -105 316 -125 365 -138 C378 -141 386 -138 389 -128 C392 -119 388 -114 377 -111 C336 -100 298 -85 264 -64 C313 -40 355 -2 391 53 C410 81 425 107 438 131 C451 155 466 185 483 222 C496 253 513 289 532 330 L563 397 C602 484 642 549 684 594 C697 607 694 619 677 630 C628 655 572 667 510 667 C393 667 277 620 194 544 C111 469 57 358 57 242 C57 129 110 19 199 -54 C179 -59 160 -61 143 -61 L143 -61 Z M87 242 C87 316 107 384 146 445 C186 506 238 554 302 587 C367 620 436 637 510 637 C568 637 615 626 652 604 C610 554 571 488 534 407 L454 229 C439 196 426 169 414 146 C403 123 388 98 369 70 C333 15 288 -24 235 -44 C142 25 87 130 87 242 L87 242 Z M560 166 C578 135 602 80 632 1 C645 -33 655 -58 662 -75 C669 -92 680 -116 695 -147 C710 -178 723 -201 734 -217 C745 -234 760 -253 779 -274 C818 -317 852 -335 904 -351 C931 -359 959 -363 989 -363 C1048 -363 1095 -348 1129 -318 C1163 -288 1182 -253 1186 -213 C1191 -162 1174 -125 1137 -100 C1121 -89 1102 -110 1118 -123 C1143 -144 1156 -172 1157 -209 C1152 -242 1134 -271 1105 -296 C1076 -321 1038 -333 989 -333 C937 -333 889 -316 853 -293 C818 -270 781 -226 757 -191 C746 -174 733 -151 720 -124 C707 -97 696 -75 688 -56 C680 -37 670 -13 658 16 C655 22 650 35 642 56 C635 77 629 91 625 100 C618 119 604 152 589 176 C637 188 689 225 740 280 C792 336 826 380 875 448 C900 483 920 512 937 533 C954 554 973 577 995 602 C1039 651 1078 675 1114 675 C1126 675 1138 672 1150 667 C1161 663 1169 666 1174 675 C1177 684 1174 690 1164 694 C1146 701 1129 705 1114 705 C1070 705 1027 681 978 628 C954 601 934 577 917 556 C900 535 878 505 851 466 C828 434 810 409 797 392 C784 375 767 354 745 327 C723 300 704 280 688 265 C656 237 612 209 573 204 C552 201 547 189 560 166 L560 166 Z " />
<glyph glyph-name="kcommaaccent" unicode="&#x137;" horiz-adv-x="288" d="M8 -58 C-11 -58 -31 -74 -32 -94 C-35 -111 -21 -126 -4 -130 C-23 -157 -44 -176 -67 -185 C-83 -190 -75 -214 -55 -203 C-18 -181 11 -152 31 -115 C47 -87 36 -58 8 -58 L8 -58 Z M241 299 C238 270 220 242 187 215 C154 188 122 175 90 175 C80 138 65 64 111 20 C143 -7 203 -12 259 35 C287 59 305 82 313 104 C320 121 296 131 288 115 C281 100 266 81 244 60 C223 39 200 29 176 29 C108 29 106 102 113 147 C149 154 183 174 216 205 C249 237 268 268 271 299 C276 347 248 375 201 375 C182 375 162 367 141 350 L243 572 C251 593 223 603 215 584 L0 115 C-27 57 -58 28 -93 28 C-113 28 -115 0 -93 0 C-65 0 -40 11 -19 33 C2 56 18 79 29 104 L104 269 C125 308 161 347 201 347 C232 347 245 331 241 299 L241 299 Z " />
<glyph glyph-name="Lacute" unicode="&#x139;" horiz-adv-x="865" d="M1180 -87 C1208 -112 1220 -141 1217 -174 C1212 -213 1191 -248 1153 -277 C1116 -307 1067 -322 1008 -322 C948 -322 891 -312 835 -285 C807 -272 782 -259 761 -247 C740 -236 715 -219 686 -196 C658 -174 636 -156 620 -143 C604 -130 581 -109 551 -82 C522 -55 501 -37 488 -26 C552 19 607 83 653 165 C750 208 832 271 899 355 C966 440 1001 520 1002 595 C1002 656 982 686 941 686 C895 686 848 640 799 548 C762 595 713 633 653 661 C560 704 455 711 364 686 C273 661 191 597 150 506 C119 437 116 369 141 304 C166 239 214 191 283 160 C384 113 493 109 610 148 C569 82 520 31 464 -6 C363 79 278 127 186 127 C111 129 20 94 20 16 C20 -21 40 -51 80 -74 C120 -97 169 -108 226 -107 C313 -107 391 -86 462 -43 L487 -65 C494 -72 508 -84 529 -103 C550 -122 565 -136 574 -144 C583 -153 598 -166 618 -183 C639 -200 655 -213 666 -221 C678 -230 694 -241 715 -255 C756 -284 780 -294 821 -313 C842 -323 862 -330 880 -334 C917 -343 963 -352 1007 -352 C1076 -352 1131 -334 1174 -299 C1217 -264 1241 -224 1246 -178 C1251 -127 1234 -89 1195 -66 C1180 -57 1163 -74 1180 -87 L1180 -87 Z M298 188 C236 217 193 259 170 316 C147 373 149 432 177 494 C202 548 241 591 292 622 C343 654 398 670 457 671 C516 672 576 660 637 635 C702 603 751 564 784 519 C779 508 758 464 723 386 L653 229 C645 212 639 199 634 191 C515 140 403 139 298 188 L298 188 Z M226 -77 C181 -77 140 -68 105 -51 C70 -34 52 -11 52 17 C51 66 103 97 187 97 C270 97 346 55 438 -22 C373 -59 303 -77 226 -77 L226 -77 Z M750 375 C752 380 759 397 772 425 C785 453 795 474 802 489 C807 477 811 468 813 462 C816 455 820 451 825 451 C832 450 841 458 840 465 C841 470 841 474 839 476 C833 493 826 508 818 521 C863 610 903 655 937 656 C962 655 973 636 972 597 C971 532 943 463 886 388 C829 313 759 254 676 211 L680 219 L750 375 Z M1056 865 C1073 876 1062 898 1041 888 L902 790 C893 784 891 777 896 770 C901 763 908 762 917 767 L1056 865 Z " />
<glyph glyph-name="lacute" unicode="&#x13a;" horiz-adv-x="151" d="M0 115 C-9 97 -13 80 -13 63 C-13 21 11 0 58 0 C85 0 109 11 130 34 C151 57 167 80 176 104 C183 121 159 131 151 115 C151 114 150 113 150 112 C124 56 93 28 58 28 C31 28 17 40 17 63 C17 73 21 86 28 103 L243 572 C251 593 223 603 215 584 L0 115 Z M412 772 C429 783 418 805 397 795 L258 697 C249 691 247 684 252 677 C257 670 264 669 273 674 L412 772 Z " />
<glyph glyph-name="Lcommaaccent" unicode="&#x13b;" horiz-adv-x="865" d="M452 -146 C433 -146 413 -162 412 -182 C409 -199 423 -214 440 -218 C421 -245 400 -264 377 -273 C361 -278 369 -302 389 -291 C426 -269 455 -240 475 -203 C491 -175 480 -146 452 -146 L452 -146 Z M1180 -87 C1208 -112 1220 -141 1217 -174 C1212 -213 1191 -248 1153 -277 C1116 -307 1067 -322 1008 -322 C948 -322 891 -312 835 -285 C807 -272 782 -259 761 -247 C740 -236 715 -219 686 -196 C658 -174 636 -156 620 -143 C604 -130 581 -109 551 -82 C522 -55 501 -37 488 -26 C552 19 607 83 653 165 C750 208 832 271 899 355 C966 440 1001 520 1002 595 C1002 656 982 686 941 686 C895 686 848 640 799 548 C762 595 713 633 653 661 C560 704 455 711 364 686 C273 661 191 597 150 506 C119 437 116 369 141 304 C166 239 214 191 283 160 C384 113 493 109 610 148 C569 82 520 31 464 -6 C363 79 278 127 186 127 C111 129 20 94 20 16 C20 -21 40 -51 80 -74 C120 -97 169 -108 226 -107 C313 -107 391 -86 462 -43 L487 -65 C494 -72 508 -84 529 -103 C550 -122 565 -136 574 -144 C583 -153 598 -166 618 -183 C639 -200 655 -213 666 -221 C678 -230 694 -241 715 -255 C756 -284 780 -294 821 -313 C842 -323 862 -330 880 -334 C917 -343 963 -352 1007 -352 C1076 -352 1131 -334 1174 -299 C1217 -264 1241 -224 1246 -178 C1251 -127 1234 -89 1195 -66 C1180 -57 1163 -74 1180 -87 L1180 -87 Z M298 188 C236 217 193 259 170 316 C147 373 149 432 177 494 C202 548 241 591 292 622 C343 654 398 670 457 671 C516 672 576 660 637 635 C702 603 751 564 784 519 C779 508 758 464 723 386 L653 229 C645 212 639 199 634 191 C515 140 403 139 298 188 L298 188 Z M226 -77 C181 -77 140 -68 105 -51 C70 -34 52 -11 52 17 C51 66 103 97 187 97 C270 97 346 55 438 -22 C373 -59 303 -77 226 -77 L226 -77 Z M750 375 C752 380 759 397 772 425 C785 453 795 474 802 489 C807 477 811 468 813 462 C816 455 820 451 825 451 C832 450 841 458 840 465 C841 470 841 474 839 476 C833 493 826 508 818 521 C863 610 903 655 937 656 C962 655 973 636 972 597 C971 532 943 463 886 388 C829 313 759 254 676 211 L680 219 L750 375 Z " />
<glyph glyph-name="lcommaaccent" unicode="&#x13c;" horiz-adv-x="151" d="M9 -58 C-10 -58 -30 -74 -31 -94 C-34 -111 -20 -126 -3 -130 C-22 -157 -43 -176 -66 -185 C-82 -190 -74 -214 -54 -203 C-17 -181 12 -152 32 -115 C48 -87 37 -58 9 -58 L9 -58 Z M1 115 C-8 97 -12 80 -12 63 C-12 21 12 0 59 0 C86 0 110 11 131 34 C152 57 168 80 177 104 C184 121 160 131 152 115 C152 114 151 113 151 112 C125 56 94 28 59 28 C32 28 18 40 18 63 C18 73 22 86 29 103 L244 572 C252 593 224 603 216 584 L1 115 Z " />
<glyph glyph-name="Lcaron" unicode="&#x13d;" horiz-adv-x="865" d="M1180 -87 C1208 -112 1220 -141 1217 -174 C1212 -213 1191 -248 1153 -277 C1116 -307 1067 -322 1008 -322 C948 -322 891 -312 835 -285 C807 -272 782 -259 761 -247 C740 -236 715 -219 686 -196 C658 -174 636 -156 620 -143 C604 -130 581 -109 551 -82 C522 -55 501 -37 488 -26 C552 19 607 83 653 165 C750 208 832 271 899 355 C966 440 1001 520 1002 595 C1002 656 982 686 941 686 C895 686 848 640 799 548 C762 595 713 633 653 661 C560 704 455 711 364 686 C273 661 191 597 150 506 C119 437 116 369 141 304 C166 239 214 191 283 160 C384 113 493 109 610 148 C569 82 520 31 464 -6 C363 79 278 127 186 127 C111 129 20 94 20 16 C20 -21 40 -51 80 -74 C120 -97 169 -108 226 -107 C313 -107 391 -86 462 -43 L487 -65 C494 -72 508 -84 529 -103 C550 -122 565 -136 574 -144 C583 -153 598 -166 618 -183 C639 -200 655 -213 666 -221 C678 -230 694 -241 715 -255 C756 -284 780 -294 821 -313 C842 -323 862 -330 880 -334 C917 -343 963 -352 1007 -352 C1076 -352 1131 -334 1174 -299 C1217 -264 1241 -224 1246 -178 C1251 -127 1234 -89 1195 -66 C1180 -57 1163 -74 1180 -87 L1180 -87 Z M298 188 C236 217 193 259 170 316 C147 373 149 432 177 494 C202 548 241 591 292 622 C343 654 398 670 457 671 C516 672 576 660 637 635 C702 603 751 564 784 519 C779 508 758 464 723 386 L653 229 C645 212 639 199 634 191 C515 140 403 139 298 188 L298 188 Z M226 -77 C181 -77 140 -68 105 -51 C70 -34 52 -11 52 17 C51 66 103 97 187 97 C270 97 346 55 438 -22 C373 -59 303 -77 226 -77 L226 -77 Z M750 375 C752 380 759 397 772 425 C785 453 795 474 802 489 C807 477 811 468 813 462 C816 455 820 451 825 451 C832 450 841 458 840 465 C841 470 841 474 839 476 C833 493 826 508 818 521 C863 610 903 655 937 656 C962 655 973 636 972 597 C971 532 943 463 886 388 C829 313 759 254 676 211 L680 219 L750 375 Z M872 888 C853 888 833 872 832 852 C829 835 843 820 860 816 C841 789 820 770 797 761 C781 756 789 732 809 743 C846 765 875 794 895 831 C911 859 900 888 872 888 L872 888 Z " />
<glyph glyph-name="lcaron" unicode="&#x13e;" horiz-adv-x="344" d="M0 115 C-9 97 -13 80 -13 63 C-13 21 11 0 58 0 C85 0 109 11 130 34 C151 57 167 80 176 104 C183 121 159 131 151 115 C151 114 150 113 150 112 C124 56 93 28 58 28 C31 28 17 40 17 63 C17 73 21 86 28 103 L243 572 C251 593 223 603 215 584 L0 115 Z M392 595 C373 595 353 579 352 559 C349 542 363 527 380 523 C361 496 340 477 317 468 C301 463 309 439 329 450 C366 472 395 501 415 538 C431 566 420 595 392 595 L392 595 Z " />
<glyph glyph-name="Lslash" unicode="&#x141;" horiz-adv-x="640" d="M512 269 L485 208 C439 103 376 32 295 -6 C238 29 182 47 128 47 C72 48 18 30 18 -10 C18 -52 55 -72 130 -71 C186 -71 239 -61 288 -41 C315 -59 353 -89 402 -131 C452 -174 495 -209 531 -237 C567 -266 614 -292 672 -316 C730 -340 789 -352 849 -352 C918 -352 973 -334 1016 -299 C1059 -264 1083 -224 1088 -178 C1093 -127 1076 -89 1037 -66 C1022 -57 1005 -74 1022 -87 C1050 -112 1062 -141 1059 -174 C1054 -213 1033 -248 995 -277 C958 -307 909 -322 850 -322 C795 -322 741 -311 688 -288 C635 -266 591 -242 557 -215 C524 -189 483 -155 434 -114 C385 -73 348 -44 322 -25 C401 18 465 93 512 198 L548 277 L684 311 C685 311 685 311 686 312 C699 315 704 322 703 331 C701 341 693 344 678 339 L563 311 L619 434 C651 505 690 562 736 607 C783 652 833 674 887 674 C932 674 968 662 995 639 C1022 616 1035 589 1035 559 C1036 530 1026 505 1005 483 C985 462 960 451 930 451 C875 450 844 481 844 517 C845 531 850 544 859 557 C864 562 865 568 862 573 C855 581 847 581 838 573 C825 560 818 542 818 517 C821 466 860 422 931 423 C969 423 1001 437 1026 466 C1052 495 1064 527 1063 563 C1062 600 1045 632 1013 659 C982 687 940 701 887 701 C766 701 661 600 592 445 L527 302 L424 277 C394 271 402 243 430 249 L512 269 Z M130 -41 C77 -41 50 -30 50 -9 C49 10 73 17 129 17 C170 17 212 4 257 -22 C218 -35 176 -41 130 -41 L130 -41 Z " />
<glyph glyph-name="lslash" unicode="&#x142;" horiz-adv-x="151" d="M62 252 L0 115 C-9 97 -13 80 -13 63 C-13 21 11 0 58 0 C85 0 109 11 130 34 C151 57 167 80 176 104 C183 121 159 131 151 115 C151 114 150 113 150 112 C124 56 93 28 58 28 C31 28 17 40 17 63 C17 73 21 86 28 103 L100 261 L153 274 C154 274 154 274 155 275 C168 278 173 285 172 294 C170 304 162 307 147 302 L116 294 L243 572 C251 593 223 603 215 584 L78 285 L44 277 C14 271 22 243 50 249 L62 252 Z " />
<glyph glyph-name="Nacute" unicode="&#x143;" horiz-adv-x="617" d="M553 604 C500 604 434 562 389 509 C390 517 390 528 390 543 C390 598 369 642 327 677 C286 712 238 729 184 729 C130 729 82 711 41 674 C0 638 -20 595 -20 545 C-20 502 -5 466 24 436 C53 406 89 391 131 391 C182 391 228 415 245 459 C248 470 241 482 230 482 C224 482 219 477 214 467 C200 436 172 420 131 420 C59 420 10 476 10 545 C10 590 28 626 63 655 C99 684 139 699 184 699 C230 699 271 684 306 655 C342 626 360 588 360 543 C360 505 353 470 339 439 L145 16 C139 1 142 -6 154 -6 C163 -6 171 0 177 11 L351 394 C402 506 482 572 551 572 C594 572 618 547 618 514 C618 497 614 479 605 460 L415 51 C398 16 390 -20 390 -57 C390 -114 416 -154 473 -154 C480 -154 490 -153 502 -150 C514 -147 519 -141 518 -131 C517 -121 510 -117 499 -120 C484 -123 477 -124 476 -124 C439 -124 421 -101 421 -56 C421 -27 428 4 443 38 L443 37 L641 467 C648 482 652 499 652 519 C652 564 613 604 553 604 L553 604 Z M675 865 C692 876 681 898 660 888 L521 790 C512 784 510 777 515 770 C520 763 527 762 536 767 L675 865 Z " />
<glyph glyph-name="nacute" unicode="&#x144;" horiz-adv-x="306" d="M155 115 C146 97 142 80 142 63 C142 21 166 0 213 0 C240 0 264 11 285 34 C306 57 322 80 331 104 C338 121 314 131 306 115 C306 114 305 113 305 112 C279 56 248 28 213 28 C186 28 172 40 172 63 C172 73 176 86 183 103 L256 260 C265 278 269 295 269 311 C269 354 240 378 193 375 C175 373 158 366 142 353 C144 362 140 367 131 370 C122 373 116 370 113 361 L0 115 C-27 57 -58 28 -93 28 C-113 28 -115 0 -93 0 C-65 0 -40 11 -19 33 C2 56 18 79 29 104 L105 271 C130 318 160 344 193 347 C220 350 239 335 239 311 C239 301 235 288 228 272 L155 115 Z M370 572 C387 583 376 605 355 595 L216 497 C207 491 205 484 210 477 C215 470 222 469 231 474 L370 572 Z " />
<glyph glyph-name="Ncommaaccent" unicode="&#x145;" horiz-adv-x="619" d="M265 -58 C246 -58 226 -74 225 -94 C222 -111 236 -126 253 -130 C234 -157 213 -176 190 -185 C174 -190 182 -214 202 -203 C239 -181 268 -152 288 -115 C304 -87 293 -58 265 -58 L265 -58 Z M553 604 C500 604 434 562 389 509 C390 517 390 528 390 543 C390 598 369 642 327 677 C286 712 238 729 184 729 C130 729 82 711 41 674 C0 638 -20 595 -20 545 C-20 502 -5 466 24 436 C53 406 89 391 131 391 C182 391 228 415 245 459 C248 470 241 482 230 482 C224 482 219 477 214 467 C200 436 172 420 131 420 C59 420 10 476 10 545 C10 590 28 626 63 655 C99 684 139 699 184 699 C230 699 271 684 306 655 C342 626 360 588 360 543 C360 505 353 470 339 439 L145 16 C139 1 142 -6 154 -6 C163 -6 171 0 177 11 L351 394 C402 506 482 572 551 572 C594 572 618 547 618 514 C618 497 614 479 605 460 L415 51 C398 16 390 -20 390 -57 C390 -114 416 -154 473 -154 C480 -154 490 -153 502 -150 C514 -147 519 -141 518 -131 C517 -121 510 -117 499 -120 C484 -123 477 -124 476 -124 C439 -124 421 -101 421 -56 C421 -27 428 4 443 38 L443 37 L641 467 C648 482 652 499 652 519 C652 564 613 604 553 604 L553 604 Z " />
<glyph glyph-name="ncommaaccent" unicode="&#x146;" horiz-adv-x="306" d="M8 -58 C-11 -58 -31 -74 -32 -94 C-35 -111 -21 -126 -4 -130 C-23 -157 -44 -176 -67 -185 C-83 -190 -75 -214 -55 -203 C-18 -181 11 -152 31 -115 C47 -87 36 -58 8 -58 L8 -58 Z M155 115 C146 97 142 80 142 63 C142 21 166 0 213 0 C240 0 264 11 285 34 C306 57 322 80 331 104 C338 121 314 131 306 115 C306 114 305 113 305 112 C279 56 248 28 213 28 C186 28 172 40 172 63 C172 73 176 86 183 103 L256 260 C265 278 269 295 269 311 C269 354 240 378 193 375 C175 373 158 366 142 353 C144 362 140 367 131 370 C122 373 116 370 113 361 L0 115 C-27 57 -58 28 -93 28 C-113 28 -115 0 -93 0 C-65 0 -40 11 -19 33 C2 56 18 79 29 104 L105 271 C130 318 160 344 193 347 C220 350 239 335 239 311 C239 301 235 288 228 272 L155 115 Z " />
<glyph glyph-name="Ncaron" unicode="&#x147;" horiz-adv-x="619" d="M553 604 C500 604 434 562 389 509 C390 517 390 528 390 543 C390 598 369 642 327 677 C286 712 238 729 184 729 C130 729 82 711 41 674 C0 638 -20 595 -20 545 C-20 502 -5 466 24 436 C53 406 89 391 131 391 C182 391 228 415 245 459 C248 470 241 482 230 482 C224 482 219 477 214 467 C200 436 172 420 131 420 C59 420 10 476 10 545 C10 590 28 626 63 655 C99 684 139 699 184 699 C230 699 271 684 306 655 C342 626 360 588 360 543 C360 505 353 470 339 439 L145 16 C139 1 142 -6 154 -6 C163 -6 171 0 177 11 L351 394 C402 506 482 572 551 572 C594 572 618 547 618 514 C618 497 614 479 605 460 L415 51 C398 16 390 -20 390 -57 C390 -114 416 -154 473 -154 C480 -154 490 -153 502 -150 C514 -147 519 -141 518 -131 C517 -121 510 -117 499 -120 C484 -123 477 -124 476 -124 C439 -124 421 -101 421 -56 C421 -27 428 4 443 38 L443 37 L641 467 C648 482 652 499 652 519 C652 564 613 604 553 604 L553 604 Z M579 766 C582 759 588 760 599 767 L729 859 C746 870 735 892 714 882 L595 797 L557 880 C547 892 525 879 534 864 L579 766 Z " />
<glyph glyph-name="ncaron" unicode="&#x148;" horiz-adv-x="306" d="M155 115 C146 97 142 80 142 63 C142 21 166 0 213 0 C240 0 264 11 285 34 C306 57 322 80 331 104 C338 121 314 131 306 115 C306 114 305 113 305 112 C279 56 248 28 213 28 C186 28 172 40 172 63 C172 73 176 86 183 103 L256 260 C265 278 269 295 269 311 C269 354 240 378 193 375 C175 373 158 366 142 353 C144 362 140 367 131 370 C122 373 116 370 113 361 L0 115 C-27 57 -58 28 -93 28 C-113 28 -115 0 -93 0 C-65 0 -40 11 -19 33 C2 56 18 79 29 104 L105 271 C130 318 160 344 193 347 C220 350 239 335 239 311 C239 301 235 288 228 272 L155 115 Z M231 473 C234 466 240 467 251 474 L381 566 C398 577 387 599 366 589 L247 504 L209 587 C199 599 177 586 186 571 L231 473 Z " />
<glyph glyph-name="Omacron" unicode="&#x14c;" horiz-adv-x="833" d="M116 306 C109 275 105 246 105 218 C105 136 130 68 180 15 C231 -38 296 -64 376 -64 C469 -64 558 -28 641 43 C724 114 778 200 801 301 C808 333 811 363 811 390 C811 472 786 539 736 592 C686 645 621 672 541 672 C448 672 359 636 276 564 C193 493 139 407 116 306 L116 306 Z M145 301 C167 395 217 475 294 542 C371 609 454 642 541 642 C613 642 671 618 715 571 C759 524 781 463 781 390 C781 363 778 335 771 306 C748 213 697 133 620 66 C543 -1 461 -34 376 -34 C304 -34 246 -10 201 37 C157 84 135 145 135 218 C135 240 138 268 145 301 L145 301 Z M701 742 C723 742 723 770 701 770 L522 770 C512 770 507 765 507 756 C507 747 512 742 522 742 L701 742 Z " />
<glyph glyph-name="omacron" unicode="&#x14d;" horiz-adv-x="269" d="M63 0 C112 0 151 34 182 102 L256 260 C265 278 269 295 269 311 C269 352 240 375 193 375 C144 375 105 341 74 273 L0 115 C-9 97 -13 80 -13 64 C-13 23 16 0 63 0 L63 0 Z M17 64 C17 74 21 87 28 103 L100 257 C127 317 158 347 193 347 C224 347 239 335 239 311 C239 301 235 288 228 272 L156 118 C129 58 98 28 63 28 C32 28 17 40 17 64 L17 64 Z M324 449 C346 449 346 477 324 477 L145 477 C135 477 130 472 130 463 C130 454 135 449 145 449 L324 449 Z " />
<glyph glyph-name="Ohungarumlaut" unicode="&#x150;" horiz-adv-x="833" d="M116 306 C109 275 105 246 105 218 C105 136 130 68 180 15 C231 -38 296 -64 376 -64 C469 -64 558 -28 641 43 C724 114 778 200 801 301 C808 333 811 363 811 390 C811 472 786 539 736 592 C686 645 621 672 541 672 C448 672 359 636 276 564 C193 493 139 407 116 306 L116 306 Z M145 301 C167 395 217 475 294 542 C371 609 454 642 541 642 C613 642 671 618 715 571 C759 524 781 463 781 390 C781 363 778 335 771 306 C748 213 697 133 620 66 C543 -1 461 -34 376 -34 C304 -34 246 -10 201 37 C157 84 135 145 135 218 C135 240 138 268 145 301 L145 301 Z M698 865 C715 876 704 898 683 888 L544 790 C535 784 533 777 538 770 C543 763 550 762 559 767 L698 865 Z M797 865 C814 876 803 898 782 888 L643 790 C634 784 632 777 637 770 C642 763 649 762 658 767 L797 865 Z " />
<glyph glyph-name="ohungarumlaut" unicode="&#x151;" horiz-adv-x="269" d="M63 0 C112 0 151 34 182 102 L256 260 C265 278 269 295 269 311 C269 352 240 375 193 375 C144 375 105 341 74 273 L0 115 C-9 97 -13 80 -13 64 C-13 23 16 0 63 0 L63 0 Z M17 64 C17 74 21 87 28 103 L100 257 C127 317 158 347 193 347 C224 347 239 335 239 311 C239 301 235 288 228 272 L156 118 C129 58 98 28 63 28 C32 28 17 40 17 64 L17 64 Z M313 572 C330 583 319 605 298 595 L159 497 C150 491 148 484 153 477 C158 470 165 469 174 474 L313 572 Z M412 572 C429 583 418 605 397 595 L258 497 C249 491 247 484 252 477 C257 470 264 469 273 474 L412 572 Z " />
<glyph glyph-name="OE" unicode="&#x152;" horiz-adv-x="311" d="" />
<glyph glyph-name="oe" unicode="&#x153;" horiz-adv-x="390" d="M260 0 C293 0 324 10 353 31 C382 52 403 76 415 104 C424 121 398 130 390 115 C379 95 362 75 339 56 C316 37 289 28 260 28 C193 31 170 75 203 147 L221 186 C234 175 251 169 272 169 C331 169 370 203 401 280 C424 333 400 375 344 375 C315 375 288 361 265 334 C256 361 232 375 193 375 C144 375 105 341 74 273 L0 115 C-9 97 -13 80 -13 64 C-13 23 16 0 63 0 C100 0 132 21 158 62 C168 21 202 0 260 0 L260 0 Z M17 64 C17 74 21 87 28 103 L100 257 C127 317 158 347 193 347 C224 347 239 335 239 311 C239 301 235 288 228 272 L170 148 L156 118 C129 58 98 28 63 28 C32 28 17 40 17 64 L17 64 Z M369 285 C345 228 316 200 271 200 C256 200 243 204 234 212 L255 257 C282 317 311 347 344 347 C378 347 386 326 369 285 L369 285 Z " />
<glyph glyph-name="Racute" unicode="&#x154;" horiz-adv-x="932" d="M255 -50 C203 -50 159 -26 148 6 C140 27 112 23 118 -1 C133 -46 187 -79 255 -80 C330 -79 395 -48 439 -11 C461 7 483 32 505 64 C527 97 545 126 558 153 C572 180 588 215 607 256 L671 400 C672 402 676 410 683 425 C721 513 755 571 785 598 C863 543 902 474 902 389 C901 318 875 257 824 206 C773 156 717 130 655 129 C639 124 636 113 645 97 C662 70 684 25 711 -38 L710 -38 L718 -56 C736 -98 750 -130 761 -153 C772 -176 789 -204 810 -237 C831 -271 852 -297 873 -314 C914 -350 980 -381 1056 -381 C1113 -381 1158 -366 1193 -335 C1228 -304 1248 -270 1253 -231 C1256 -187 1238 -142 1203 -119 C1188 -111 1173 -128 1185 -141 C1210 -164 1223 -192 1224 -227 C1215 -294 1154 -351 1057 -351 C1008 -351 962 -335 930 -318 C898 -301 861 -255 841 -230 C832 -217 820 -197 805 -170 C791 -143 781 -122 775 -109 C769 -96 759 -74 745 -43 C741 -35 736 -23 729 -7 C708 41 690 77 677 101 C744 110 803 141 855 195 C907 250 933 314 932 388 C932 475 895 548 822 608 C749 668 661 698 558 698 C379 697 259 624 198 531 C155 467 137 402 137 338 C137 231 198 135 299 91 C322 80 332 109 311 119 C268 139 233 169 206 209 C180 250 167 293 167 338 C167 423 205 521 295 592 C354 637 448 668 559 668 C630 668 696 651 758 616 C731 589 697 530 656 439 C653 434 647 416 644 411 L577 262 C560 223 544 191 531 166 C518 141 502 113 481 83 C461 53 441 29 420 12 C380 -23 320 -50 255 -50 L255 -50 Z M1005 865 C1022 876 1011 898 990 888 L851 790 C842 784 840 777 845 770 C850 763 857 762 866 767 L1005 865 Z " />
<glyph glyph-name="racute" unicode="&#x155;" horiz-adv-x="283" d="M133 115 C124 97 120 80 120 63 C120 21 144 0 191 0 C218 0 242 11 263 34 C284 57 300 80 309 104 C316 121 292 131 284 115 C284 114 283 113 283 112 C257 56 226 28 191 28 C164 28 150 40 150 63 C150 73 154 86 161 103 L236 264 C245 282 249 299 249 315 C249 358 225 382 185 379 C166 379 162 393 175 420 C186 439 155 450 147 433 L144 425 L1 115 C-10 90 17 85 26 104 L149 366 C157 356 169 351 185 351 C206 352 219 339 219 315 C219 305 215 292 208 276 L133 115 Z M372 572 C389 583 378 605 357 595 L218 497 C209 491 207 484 212 477 C217 470 224 469 233 474 L372 572 Z " />
<glyph glyph-name="Rcommaaccent" unicode="&#x156;" horiz-adv-x="932" d="M552 -58 C533 -58 513 -74 512 -94 C509 -111 523 -126 540 -130 C521 -157 500 -176 477 -185 C461 -190 469 -214 489 -203 C526 -181 555 -152 575 -115 C591 -87 580 -58 552 -58 L552 -58 Z M255 -50 C203 -50 159 -26 148 6 C140 27 112 23 118 -1 C133 -46 187 -79 255 -80 C330 -79 395 -48 439 -11 C461 7 483 32 505 64 C527 97 545 126 558 153 C572 180 588 215 607 256 L671 400 C672 402 676 410 683 425 C721 513 755 571 785 598 C863 543 902 474 902 389 C901 318 875 257 824 206 C773 156 717 130 655 129 C639 124 636 113 645 97 C662 70 684 25 711 -38 L710 -38 L718 -56 C736 -98 750 -130 761 -153 C772 -176 789 -204 810 -237 C831 -271 852 -297 873 -314 C914 -350 980 -381 1056 -381 C1113 -381 1158 -366 1193 -335 C1228 -304 1248 -270 1253 -231 C1256 -187 1238 -142 1203 -119 C1188 -111 1173 -128 1185 -141 C1210 -164 1223 -192 1224 -227 C1215 -294 1154 -351 1057 -351 C1008 -351 962 -335 930 -318 C898 -301 861 -255 841 -230 C832 -217 820 -197 805 -170 C791 -143 781 -122 775 -109 C769 -96 759 -74 745 -43 C741 -35 736 -23 729 -7 C708 41 690 77 677 101 C744 110 803 141 855 195 C907 250 933 314 932 388 C932 475 895 548 822 608 C749 668 661 698 558 698 C379 697 259 624 198 531 C155 467 137 402 137 338 C137 231 198 135 299 91 C322 80 332 109 311 119 C268 139 233 169 206 209 C180 250 167 293 167 338 C167 423 205 521 295 592 C354 637 448 668 559 668 C630 668 696 651 758 616 C731 589 697 530 656 439 C653 434 647 416 644 411 L577 262 C560 223 544 191 531 166 C518 141 502 113 481 83 C461 53 441 29 420 12 C380 -23 320 -50 255 -50 L255 -50 Z " />
<glyph glyph-name="rcommaaccent" unicode="&#x157;" horiz-adv-x="283" d="M9 -58 C-10 -58 -30 -74 -31 -94 C-34 -111 -20 -126 -3 -130 C-22 -157 -43 -176 -66 -185 C-82 -190 -74 -214 -54 -203 C-17 -181 12 -152 32 -115 C48 -87 37 -58 9 -58 L9 -58 Z M133 115 C124 97 120 80 120 63 C120 21 144 0 191 0 C218 0 242 11 263 34 C284 57 300 80 309 104 C316 121 292 131 284 115 C284 114 283 113 283 112 C257 56 226 28 191 28 C164 28 150 40 150 63 C150 73 154 86 161 103 L236 264 C245 282 249 299 249 315 C249 358 225 382 185 379 C166 379 162 393 175 420 C186 439 155 450 147 433 L144 425 L1 115 C-10 90 17 85 26 104 L149 366 C157 356 169 351 185 351 C206 352 219 339 219 315 C219 305 215 292 208 276 L133 115 Z " />
<glyph glyph-name="Rcaron" unicode="&#x158;" horiz-adv-x="932" d="M255 -50 C203 -50 159 -26 148 6 C140 27 112 23 118 -1 C133 -46 187 -79 255 -80 C330 -79 395 -48 439 -11 C461 7 483 32 505 64 C527 97 545 126 558 153 C572 180 588 215 607 256 L671 400 C672 402 676 410 683 425 C721 513 755 571 785 598 C863 543 902 474 902 389 C901 318 875 257 824 206 C773 156 717 130 655 129 C639 124 636 113 645 97 C662 70 684 25 711 -38 L710 -38 L718 -56 C736 -98 750 -130 761 -153 C772 -176 789 -204 810 -237 C831 -271 852 -297 873 -314 C914 -350 980 -381 1056 -381 C1113 -381 1158 -366 1193 -335 C1228 -304 1248 -270 1253 -231 C1256 -187 1238 -142 1203 -119 C1188 -111 1173 -128 1185 -141 C1210 -164 1223 -192 1224 -227 C1215 -294 1154 -351 1057 -351 C1008 -351 962 -335 930 -318 C898 -301 861 -255 841 -230 C832 -217 820 -197 805 -170 C791 -143 781 -122 775 -109 C769 -96 759 -74 745 -43 C741 -35 736 -23 729 -7 C708 41 690 77 677 101 C744 110 803 141 855 195 C907 250 933 314 932 388 C932 475 895 548 822 608 C749 668 661 698 558 698 C379 697 259 624 198 531 C155 467 137 402 137 338 C137 231 198 135 299 91 C322 80 332 109 311 119 C268 139 233 169 206 209 C180 250 167 293 167 338 C167 423 205 521 295 592 C354 637 448 668 559 668 C630 668 696 651 758 616 C731 589 697 530 656 439 C653 434 647 416 644 411 L577 262 C560 223 544 191 531 166 C518 141 502 113 481 83 C461 53 441 29 420 12 C380 -23 320 -50 255 -50 L255 -50 Z M828 766 C831 759 837 760 848 767 L978 859 C995 870 984 892 963 882 L844 797 L806 880 C796 892 774 879 783 864 L828 766 Z " />
<glyph glyph-name="rcaron" unicode="&#x159;" horiz-adv-x="283" d="M133 115 C124 97 120 80 120 63 C120 21 144 0 191 0 C218 0 242 11 263 34 C284 57 300 80 309 104 C316 121 292 131 284 115 C284 114 283 113 283 112 C257 56 226 28 191 28 C164 28 150 40 150 63 C150 73 154 86 161 103 L236 264 C245 282 249 299 249 315 C249 358 225 382 185 379 C166 379 162 393 175 420 C186 439 155 450 147 433 L144 425 L1 115 C-10 90 17 85 26 104 L149 366 C157 356 169 351 185 351 C206 352 219 339 219 315 C219 305 215 292 208 276 L133 115 Z M232 473 C235 466 241 467 252 474 L382 566 C399 577 388 599 367 589 L248 504 L210 587 C200 599 178 586 187 571 L232 473 Z " />
<glyph glyph-name="Sacute" unicode="&#x15a;" horiz-adv-x="761" d="M374 -96 C482 -96 586 -48 654 52 C688 103 705 161 705 227 C705 264 695 314 674 377 C653 440 643 487 643 520 C643 561 657 595 686 620 C715 646 745 659 778 659 C830 659 870 623 870 578 C870 546 844 511 804 508 C782 508 782 480 804 480 C833 481 856 491 873 512 C891 533 900 555 900 578 C900 612 887 639 862 658 C837 677 809 687 777 687 C737 687 700 672 665 641 C630 610 613 570 613 520 C613 485 623 436 644 371 C665 306 675 258 675 227 C675 168 659 115 628 69 C597 23 559 -11 514 -33 C469 -55 423 -66 374 -66 C303 -66 240 -43 187 2 C134 47 108 105 108 174 C108 241 130 299 175 347 C220 396 277 420 348 420 C461 420 523 361 523 280 C523 250 511 224 488 203 C467 185 490 167 509 182 C538 210 553 243 553 280 C553 377 481 450 350 450 C271 450 205 423 154 368 C103 313 78 249 78 174 C78 95 107 31 164 -20 C221 -71 291 -96 374 -96 L374 -96 Z M935 865 C952 876 941 898 920 888 L781 790 C772 784 770 777 775 770 C780 763 787 762 796 767 L935 865 Z " />
<glyph glyph-name="sacute" unicode="&#x15b;" horiz-adv-x="254" d="M-16 6 C-2 1 13 -2 28 -2 C69 -2 104 14 134 45 C165 77 182 114 185 155 C186 176 180 207 166 249 C153 291 147 323 149 346 C150 359 153 372 160 387 L165 398 C176 419 145 429 137 410 L1 115 C-8 96 15 83 26 104 L120 303 C122 292 129 269 140 234 C151 200 156 173 155 154 C152 119 139 89 115 64 C92 40 64 28 31 28 C20 28 10 29 2 32 C-10 36 -20 42 -28 51 C-45 63 -62 44 -51 31 C-41 20 -29 12 -16 6 L-16 6 Z M162 0 C189 0 213 11 234 34 C255 57 271 80 280 104 C287 121 263 131 255 115 C255 114 254 113 254 112 C228 56 197 28 162 28 C155 28 151 23 151 14 C151 5 155 0 162 0 L162 0 Z M300 572 C317 583 306 605 285 595 L146 497 C137 491 135 484 140 477 C145 470 152 469 161 474 L300 572 Z " />
<glyph glyph-name="Scedilla" unicode="&#x15e;" horiz-adv-x="761" d="M374 -96 C482 -96 586 -48 654 52 C688 103 705 161 705 227 C705 264 695 314 674 377 C653 440 643 487 643 520 C643 561 657 595 686 620 C715 646 745 659 778 659 C830 659 870 623 870 578 C870 546 844 511 804 508 C782 508 782 480 804 480 C833 481 856 491 873 512 C891 533 900 555 900 578 C900 612 887 639 862 658 C837 677 809 687 777 687 C737 687 700 672 665 641 C630 610 613 570 613 520 C613 485 623 436 644 371 C665 306 675 258 675 227 C675 168 659 115 628 69 C597 23 559 -11 514 -33 C469 -55 423 -66 374 -66 C303 -66 240 -43 187 2 C134 47 108 105 108 174 C108 241 130 299 175 347 C220 396 277 420 348 420 C461 420 523 361 523 280 C523 250 511 224 488 203 C467 185 490 167 509 182 C538 210 553 243 553 280 C553 377 481 450 350 450 C271 450 205 423 154 368 C103 313 78 249 78 174 C78 105 100 46 145 -2 C190 -50 248 -80 317 -91 C310 -111 307 -125 309 -132 C311 -140 315 -150 321 -163 C327 -176 330 -187 330 -198 C330 -219 313 -236 292 -236 C285 -236 279 -234 272 -230 C252 -217 237 -247 256 -256 C267 -263 279 -266 292 -266 C329 -266 360 -235 360 -198 C360 -177 344 -146 339 -131 C337 -124 339 -112 346 -97 C346 -96 346 -96 347 -95 C352 -95 367 -96 374 -96 L374 -96 Z " />
<glyph glyph-name="scedilla" unicode="&#x15f;" horiz-adv-x="254" d="M-16 6 C-4 2 5 0 11 -1 C6 -16 7 -33 16 -52 C25 -71 29 -86 29 -96 C29 -117 12 -134 -9 -134 C-16 -134 -22 -132 -29 -128 C-49 -115 -64 -145 -45 -154 C-34 -161 -22 -164 -9 -164 C28 -164 59 -133 59 -96 C59 -85 55 -70 46 -50 C37 -30 36 -14 41 -1 C79 2 112 19 139 50 C166 81 182 116 185 155 C186 176 180 207 166 249 C153 291 147 323 149 346 C150 359 153 372 160 387 L165 398 C176 419 145 429 137 410 L1 115 C-8 96 15 83 26 104 L120 303 C122 292 129 269 140 234 C151 200 156 173 155 154 C152 119 139 89 115 64 C92 40 64 28 31 28 C20 28 10 29 2 32 C-10 36 -20 42 -28 51 C-45 63 -62 44 -51 31 C-41 20 -29 12 -16 6 L-16 6 Z M162 0 C189 0 213 11 234 34 C255 57 271 80 280 104 C287 121 263 131 255 115 C255 114 254 113 254 112 C228 56 197 28 162 28 C155 28 151 23 151 14 C151 5 155 0 162 0 L162 0 Z " />
<glyph glyph-name="Scaron" unicode="&#x160;" horiz-adv-x="761" d="M374 -96 C482 -96 586 -48 654 52 C688 103 705 161 705 227 C705 264 695 314 674 377 C653 440 643 487 643 520 C643 561 657 595 686 620 C715 646 745 659 778 659 C830 659 870 623 870 578 C870 546 844 511 804 508 C782 508 782 480 804 480 C833 481 856 491 873 512 C891 533 900 555 900 578 C900 612 887 639 862 658 C837 677 809 687 777 687 C737 687 700 672 665 641 C630 610 613 570 613 520 C613 485 623 436 644 371 C665 306 675 258 675 227 C675 168 659 115 628 69 C597 23 559 -11 514 -33 C469 -55 423 -66 374 -66 C303 -66 240 -43 187 2 C134 47 108 105 108 174 C108 241 130 299 175 347 C220 396 277 420 348 420 C461 420 523 361 523 280 C523 250 511 224 488 203 C467 185 490 167 509 182 C538 210 553 243 553 280 C553 377 481 450 350 450 C271 450 205 423 154 368 C103 313 78 249 78 174 C78 95 107 31 164 -20 C221 -71 291 -96 374 -96 L374 -96 Z M823 766 C826 759 832 760 843 767 L973 859 C990 870 979 892 958 882 L839 797 L801 880 C791 892 769 879 778 864 L823 766 Z " />
<glyph glyph-name="scaron" unicode="&#x161;" horiz-adv-x="254" d="M-16 6 C-2 1 13 -2 28 -2 C69 -2 104 14 134 45 C165 77 182 114 185 155 C186 176 180 207 166 249 C153 291 147 323 149 346 C150 359 153 372 160 387 L165 398 C176 419 145 429 137 410 L1 115 C-8 96 15 83 26 104 L120 303 C122 292 129 269 140 234 C151 200 156 173 155 154 C152 119 139 89 115 64 C92 40 64 28 31 28 C20 28 10 29 2 32 C-10 36 -20 42 -28 51 C-45 63 -62 44 -51 31 C-41 20 -29 12 -16 6 L-16 6 Z M162 0 C189 0 213 11 234 34 C255 57 271 80 280 104 C287 121 263 131 255 115 C255 114 254 113 254 112 C228 56 197 28 162 28 C155 28 151 23 151 14 C151 5 155 0 162 0 L162 0 Z M166 473 C169 466 175 467 186 474 L316 566 C333 577 322 599 301 589 L182 504 L144 587 C134 599 112 586 121 571 L166 473 Z " />
</font>
</svg>
