<?xml version="1.0" encoding="UTF-8"?>
<svg xmlns="http://www.w3.org/2000/svg" xmlns:xlink="http://www.w3.org/1999/xlink" version="1.2" >
<font id="Eames Century Modern Medium">
<font-face  font-family="Eames Century Modern" units-per-em="1000" ascent="820" descent="-180" font-style="normal" font-weight="500" font-stretch="normal" cap-height="687" x-height="464" underline-position="-75" underline-thickness="50" />
<missing-glyph  horiz-adv-x="500" d="" />
<glyph glyph-name="null" d="" />
<glyph glyph-name="nonmarkingreturn" unicode="&#xd;" horiz-adv-x="250" d="" />
<glyph glyph-name="space" unicode="&#x20;" horiz-adv-x="229" d="" />
<glyph glyph-name="exclam" unicode="&#x21;" horiz-adv-x="260" d="M210 60 Q210 25 188.5 4.5 Q167 -16 130 -16 Q96 -16 74 4 Q52 24 52 62 Q52 97 74 118 Q96 139 130 139 Q167 139 188.5 117 Q210 95 210 60 Z M142 213 Q142 196 128 196 Q114 196 114 213 Q114 269 110 310 Q106 351 98 386.5 Q90 422 79 457 Q68 492 54 537 Q41 578 41 610 Q41 642 51.5 664 Q62 686 81.5 698 Q101 710 128 710 Q154 710 174.5 698 Q195 686 206 664 Q217 642 217 610 Q217 578 203 537 Q187 492 175.5 457.5 Q164 423 156.5 387.5 Q149 352 145.5 311 Q142 270 142 213 Z " />
<glyph glyph-name="quotedbl" unicode="&#x22;" horiz-adv-x="366" d="M120 437 Q120 422 107 422 Q103 422 99.5 425.5 Q96 429 96 437 Q96 495 92.5 536.5 Q89 578 75 612 Q58 654 68.5 681 Q79 708 108 708 Q137 708 148.5 681 Q160 654 140 612 Q124 577 121.5 535.5 Q119 494 120 437 Z M270 437 Q270 422 257 422 Q253 422 249.5 425.5 Q246 429 246 437 Q246 495 242.5 536.5 Q239 578 225 612 Q208 654 218.5 681 Q229 708 258 708 Q287 708 298.5 681 Q310 654 290 612 Q274 577 271.5 535.5 Q269 494 270 437 Z " />
<glyph glyph-name="numbersign" unicode="&#x23;" horiz-adv-x="593" d="M124 0 Q133 42 145 99.5 Q157 157 170 222 Q134 222 103 221.5 Q72 221 48 221 L55 258 Q79 257 110 256.5 Q141 256 176 256 L209 428 Q169 428 134 427.5 Q99 427 73 427 Q74 429 75 434 Q76 439 77.5 445 Q79 451 80 456.5 Q81 462 81 464 Q107 463 141.5 462.5 Q176 462 215 462 Q227 528 236.5 586 Q246 644 253 688 L287 688 Q276 645 264 586.5 Q252 528 239 462 L406 462 Q417 528 426 586.5 Q435 645 441 688 L475 688 Q465 645 454 586.5 Q443 528 430 462 Q464 462 493.5 462.5 Q523 463 546 464 Q546 462 544.5 456.5 Q543 451 542 445 Q541 439 540 434 Q539 429 539 427 Q516 427 486.5 427.5 Q457 428 424 428 Q416 385 408.5 342 Q401 299 393 256 Q427 256 457.5 256.5 Q488 257 511 258 Q510 256 509 250.5 Q508 245 506.5 239 Q505 233 504 228 Q503 223 503 221 Q480 221 450.5 221.5 Q421 222 387 222 Q376 157 367 99.5 Q358 42 352 0 L320 0 Q329 42 340.5 99.5 Q352 157 364 222 L193 222 Q181 157 171.5 99.5 Q162 42 156 0 L124 0 Z M199 256 L370 256 Q378 299 385.5 342.5 Q393 386 400 428 L232 428 L199 256 Z " />
<glyph glyph-name="dollar" unicode="&#x24;" horiz-adv-x="590" d="M262 676 Q276 677 289.5 677.5 Q303 678 320 676 L317 787 L366 787 L363 671 Q440 658 482 621.5 Q524 585 523 531 Q523 502 506.5 483.5 Q490 465 461 465 Q395 465 395 520 Q395 541 409.5 556.5 Q424 572 450 574 Q419 608 362 620 L357 432 Q416 423 456 405.5 Q496 388 520.5 362.5 Q545 337 555.5 304.5 Q566 272 566 232 Q566 147 514 90 Q462 33 363 17 L366 -99 L317 -99 L319 12 Q305 11 290.5 11 Q276 11 262 13 L265 -99 L217 -99 L220 17 Q132 30 81 70.5 Q30 111 30 171 Q30 200 48 219 Q66 238 98 238 Q129 238 146.5 223 Q164 208 164 180 Q164 158 148 143.5 Q132 129 106 127 Q121 104 150 90.5 Q179 77 221 71 L226 284 Q132 303 89.5 352.5 Q47 402 47 472 Q47 549 94.5 601 Q142 653 220 670 L217 787 L265 787 L262 676 Z M471 174 Q471 211 444 232 Q417 253 357 265 L362 73 Q414 84 442.5 111.5 Q471 139 471 174 Z M261 67 Q276 66 291 65.5 Q306 65 321 67 L326 271 Q309 274 291 275 Q273 276 256 279 L261 67 Z M256 445 Q271 443 289 440.5 Q307 438 326 436 L321 625 Q307 626 291 626.5 Q275 627 261 625 L256 445 Z M140 527 Q140 502 158 483 Q176 464 225 451 L221 618 Q180 607 160 582.5 Q140 558 140 527 Z " />
<glyph glyph-name="percent" unicode="&#x25;" horiz-adv-x="600" d="M93 85 Q93 94 102 94 Q110 94 110 85 Q110 77 102 77 Q93 77 93 85 Z M130 139 Q130 144 134 148.5 Q138 153 144 153 Q149 153 153.5 148.5 Q158 144 158 139 Q158 133 153.5 128.5 Q149 124 144 124 Q138 124 134 128.5 Q130 133 130 139 Z M167 192 Q167 200 172.5 205.5 Q178 211 186 211 Q205 211 205 192 Q205 184 199.5 178.5 Q194 173 186 173 Q178 173 172.5 178.5 Q167 184 167 192 Z M205 246 Q205 255 212 261.5 Q219 268 228 268 Q238 268 244.5 261.5 Q251 255 251 246 Q251 236 244.5 229.5 Q238 223 228 223 Q219 223 212 229.5 Q205 236 205 246 Z M245 299 Q245 310 252 317 Q259 324 270 324 Q281 324 288 317 Q295 310 295 299 Q295 288 288 281 Q281 274 270 274 Q259 274 252 281 Q245 288 245 299 Z M286 353 Q286 364 293.5 371 Q301 378 312 378 Q323 378 330.5 371 Q338 364 338 353 Q338 342 330.5 334.5 Q323 327 312 327 Q301 327 293.5 334.5 Q286 342 286 353 Z M329 406 Q329 417 336 424 Q343 431 354 431 Q365 431 372 424 Q379 417 379 406 Q379 395 372 388 Q365 381 354 381 Q343 381 336 388 Q329 395 329 406 Z M373 460 Q373 469 380 475.5 Q387 482 396 482 Q406 482 412.5 475.5 Q419 469 419 460 Q419 450 412.5 443.5 Q406 437 396 437 Q387 437 380 443.5 Q373 450 373 460 Z M419 513 Q419 521 424.5 526.5 Q430 532 438 532 Q457 532 457 513 Q457 505 451.5 499.5 Q446 494 438 494 Q430 494 424.5 499.5 Q419 505 419 513 Z M466 567 Q466 572 470.5 576.5 Q475 581 480 581 Q486 581 490 576.5 Q494 572 494 567 Q494 561 490 556.5 Q486 552 480 552 Q475 552 470.5 556.5 Q466 561 466 567 Z M514 620 Q514 629 522 629 Q531 629 531 620 Q531 612 522 612 Q514 612 514 620 Z M421 6 Q434 6 443.5 11 Q453 16 459 29.5 Q465 43 468 67.5 Q471 92 471 130 Q471 170 468 194.5 Q465 219 458.5 232.5 Q452 246 442.5 251 Q433 256 421 256 Q409 256 399.5 251 Q390 246 383.5 232 Q377 218 373.5 193.5 Q370 169 370 130 Q370 90 373 66 Q376 42 382 28.5 Q388 15 398 10.5 Q408 6 421 6 Z M421 -29 Q361 -29 323 7.5 Q285 44 285 130 Q285 174 296.5 204.5 Q308 235 327.5 254 Q347 273 371.5 281.5 Q396 290 421 290 Q480 290 518.5 253.5 Q557 217 557 130 Q557 87 545.5 56.5 Q534 26 515 7 Q496 -12 471.5 -20.5 Q447 -29 421 -29 Z M189 428 Q202 428 211.5 433 Q221 438 227.5 451.5 Q234 465 237 489.5 Q240 514 240 552 Q240 592 236.5 616.5 Q233 641 226.5 654.5 Q220 668 210.5 673 Q201 678 189 678 Q177 678 167.5 673 Q158 668 151.5 654 Q145 640 141.5 615.5 Q138 591 138 552 Q138 512 141 488 Q144 464 150 450.5 Q156 437 166 432.5 Q176 428 189 428 Z M189 393 Q130 393 92 429.5 Q54 466 54 552 Q54 596 65.5 626.5 Q77 657 96 676 Q115 695 139.5 703.5 Q164 712 189 712 Q248 712 286.5 675.5 Q325 639 325 552 Q325 509 313.5 478.5 Q302 448 283 429 Q264 410 239.5 401.5 Q215 393 189 393 Z " />
<glyph glyph-name="ampersand" unicode="&#x26;" horiz-adv-x="773" d="M754 145 Q752 112 743 83 Q734 54 715 33 Q696 12 665 -0.5 Q634 -13 587 -13 Q540 -13 501.5 -3 Q463 7 426 35 Q395 9 352.5 -5 Q310 -19 253 -19 Q157 -19 98.5 27.5 Q40 74 40 162 Q40 201 54 232.5 Q68 264 91.5 288 Q115 312 145 327.5 Q175 343 206 351 Q185 396 174 436 Q163 476 163 514 Q163 564 177 599 Q191 634 216.5 656.5 Q242 679 277.5 689.5 Q313 700 356 700 Q398 700 428.5 688 Q459 676 479 655.5 Q499 635 509 607.5 Q519 580 519 548 Q519 511 508 479 Q497 447 477.5 420 Q458 393 431.5 373 Q405 353 374 340 Q381 329 388 317 Q395 305 403 293 Q433 245 456.5 211 Q480 177 500 151 Q545 204 548 263 Q550 281 542.5 297 Q535 313 508 313 L481 313 L481 367 Q504 366 526 366 Q546 365 566.5 364.5 Q587 364 604 364 Q621 364 642 364.5 Q663 365 682 366 Q704 366 727 367 L727 313 L689 313 Q657 313 645 299 Q633 285 628 267 Q616 221 593 183 Q570 145 531 113 Q563 79 584 70.5 Q605 62 627 62 Q663 62 685 86 Q707 110 709 152 L754 145 Z M298 58 Q319 58 344 61.5 Q369 65 387 70 Q334 124 271 233 Q260 250 250.5 266.5 Q241 283 233 299 Q207 283 191 256.5 Q175 230 175 196 Q175 133 209 95.5 Q243 58 298 58 Z M301 543 Q301 505 312.5 467 Q324 429 351 379 Q391 404 406.5 444.5 Q422 485 422 543 Q422 591 408 613 Q394 635 362 635 Q329 635 315 613 Q301 591 301 543 Z " />
<glyph glyph-name="quotesingle" unicode="&#x27;" horiz-adv-x="218" d="M121 437 Q121 422 108 422 Q104 422 100.5 425.5 Q97 429 97 437 Q97 495 93.5 536.5 Q90 578 76 612 Q59 654 69.5 681 Q80 708 109 708 Q138 708 149.5 681 Q161 654 141 612 Q125 577 122.5 535.5 Q120 494 121 437 Z " />
<glyph glyph-name="parenleft" unicode="&#x28;" horiz-adv-x="286" d="M153 307 Q153 198 158 123 Q163 48 174.5 -7 Q186 -62 205.5 -102.5 Q225 -143 253 -183 L221 -208 Q179 -174 144 -129 Q109 -84 83.5 -23 Q58 38 44 119 Q30 200 30 307 Q30 414 44 495 Q58 576 83.5 637 Q109 698 144 743 Q179 788 221 822 L253 796 Q225 756 205.5 715 Q186 674 174.5 619 Q163 564 158 489 Q153 414 153 307 Z " />
<glyph glyph-name="parenright" unicode="&#x29;" horiz-adv-x="286" d="M130 307 Q130 414 125 489 Q120 564 108.5 619 Q97 674 78 715 Q59 756 30 796 L62 822 Q104 788 139 743 Q174 698 199.5 637 Q225 576 239 495 Q253 414 253 307 Q253 200 239 119 Q225 38 199.5 -23 Q174 -84 139 -129 Q104 -174 62 -208 L30 -183 Q59 -143 78 -102.5 Q97 -62 108.5 -7 Q120 48 125 123 Q130 198 130 307 Z " />
<glyph glyph-name="asterisk" unicode="&#x2a;" horiz-adv-x="500" d="M271 601 Q265 589 262.5 576.5 Q260 564 259 538 L273 530 Q294 543 303.5 551.5 Q313 560 321 572 Q330 588 336.5 605 Q343 622 364 635 Q386 649 407.5 642 Q429 635 440 617 Q451 597 445.5 575.5 Q440 554 418 542 Q397 531 377.5 534 Q358 537 342 535 Q329 534 317 530 Q305 526 283 515 L282 499 Q304 487 316 482.5 Q328 478 342 478 Q360 478 378 480.5 Q396 483 418 472 Q441 460 446 438.5 Q451 417 440 397 Q429 379 407.5 372.5 Q386 366 364 380 Q344 392 336.5 410 Q329 428 320 442 Q312 453 302.5 461.5 Q293 470 273 483 L259 475 Q259 450 261 437 Q263 424 271 413 Q280 398 292 383.5 Q304 369 304 345 Q304 319 288 304 Q272 289 250 289 Q228 289 212 304 Q196 319 197 345 Q197 368 209.5 383.5 Q222 399 229 414 Q235 425 237.5 437.5 Q240 450 241 475 L226 483 Q206 470 196.5 461.5 Q187 453 180 442 Q171 426 164 409.5 Q157 393 136 380 Q114 366 93 372.5 Q72 379 61 398 Q50 417 55 438.5 Q60 460 83 472 Q104 483 123 480 Q142 477 158 479 Q171 480 183 483.5 Q195 487 217 499 L217 516 Q196 527 184 531.5 Q172 536 158 536 Q141 536 122.5 533.5 Q104 531 83 542 Q60 555 55 576 Q50 597 61 617 Q72 636 93.5 642 Q115 648 136 635 Q156 622 163.5 604 Q171 586 180 572 Q187 561 196.5 552.5 Q206 544 227 531 L241 539 Q240 564 237.5 576.5 Q235 589 228 601 Q220 616 208.5 630.5 Q197 645 196 669 Q195 695 211 710.5 Q227 726 249 726 Q272 726 288 710.5 Q304 695 303 669 Q302 646 290 630.5 Q278 615 271 601 Z " />
<glyph glyph-name="plus" unicode="&#x2b;" horiz-adv-x="600" d="M264 26 Q264 37 265 61 Q266 85 267.5 114 Q269 143 271 173.5 Q273 204 276 227 Q254 224 225.5 222 Q197 220 169 218.5 Q141 217 116.5 216 Q92 215 77 215 L77 286 Q92 286 116.5 285.5 Q141 285 169 283.5 Q197 282 225.5 279.5 Q254 277 276 274 Q273 296 271 324.5 Q269 353 267.5 381.5 Q266 410 265 434.5 Q264 459 264 473 L335 473 Q335 459 334.5 434.5 Q334 410 332.5 381.5 Q331 353 328.5 324.5 Q326 296 323 274 Q345 277 373.5 279.5 Q402 282 430.5 283.5 Q459 285 483.5 285.5 Q508 286 523 286 L523 215 Q508 215 483.5 216 Q459 217 430.5 218.5 Q402 220 373.5 222 Q345 224 323 227 Q326 204 328 173.5 Q330 143 331.5 114 Q333 85 334 61 Q335 37 335 26 L264 26 Z " />
<glyph glyph-name="comma" unicode="&#x2c;" horiz-adv-x="255" d="M30 -102 Q104 -92 138 -52 Q172 -12 167 42 Q153 18 117 18 Q92 18 76.5 33 Q61 48 61 78 Q61 106 79.5 125 Q98 144 131 144 Q163 144 184 121.5 Q205 99 205 46 Q205 22 198.5 -5.5 Q192 -33 173 -57.5 Q154 -82 120.5 -101 Q87 -120 34 -126 L30 -102 Z " />
<glyph glyph-name="hyphen" unicode="&#x2d;" horiz-adv-x="292" d="M21 294 Q44 293 77 293 Q110 293 146 293 Q182 293 215.5 293 Q249 293 272 294 Q272 288 271.5 276 Q271 264 271 251 Q271 238 271.5 226 Q272 214 272 208 Q249 209 215.5 209.5 Q182 210 146 210 Q110 210 77 209.5 Q44 209 21 208 L21 294 Z " />
<glyph glyph-name="period" unicode="&#x2e;" horiz-adv-x="263" d="M213 64 Q213 28 191 7.5 Q169 -13 131 -13 Q96 -13 73 6.5 Q50 26 50 65 Q50 100 73 122 Q96 144 131 144 Q169 144 191 121.5 Q213 99 213 64 Z " />
<glyph glyph-name="slash" unicode="&#x2f;" horiz-adv-x="383" d="M108 -178 Q102 -177 88.5 -177 Q75 -177 61 -177 Q47 -177 33.5 -177 Q20 -177 14 -178 Q31 -126 52.5 -56 Q74 14 98 93.5 Q122 173 147 256 Q172 339 195.5 418.5 Q219 498 239.5 568 Q260 638 275 690 Q283 689 295.5 689 Q308 689 322 689 Q336 689 348.5 689 Q361 689 369 690 Q353 638 331 568 Q309 498 285 418.5 Q261 339 236 256 Q211 173 187.5 93.5 Q164 14 143.5 -56 Q123 -126 108 -178 Z " />
<glyph glyph-name="zero" unicode="0" horiz-adv-x="607" d="M189 274 Q189 202 196 155.5 Q203 109 217.5 82.5 Q232 56 253.5 46 Q275 36 304 36 Q333 36 354.5 46.5 Q376 57 390 84 Q404 111 411 157.5 Q418 204 418 276 Q418 348 411 395.5 Q404 443 389.5 470.5 Q375 498 353.5 509 Q332 520 303 520 Q275 520 253.5 508.5 Q232 497 218 468.5 Q204 440 196.5 393 Q189 346 189 274 Z M41 275 Q41 347 60 402.5 Q79 458 113.5 496.5 Q148 535 196.5 554.5 Q245 574 304 574 Q430 574 498.5 497 Q567 420 567 276 Q567 200 547.5 144.5 Q528 89 493.5 53 Q459 17 410.5 -0.5 Q362 -18 304 -18 Q178 -18 109.5 53.5 Q41 125 41 275 Z " />
<glyph glyph-name="one" unicode="1" horiz-adv-x="435" d="M91 68 Q126 68 137 81.5 Q148 95 148 121 L148 403 Q123 392 94 388.5 Q65 385 43 390 L43 456 L69 456 Q107 455 132 462 Q157 469 173 484.5 Q189 500 197 524 Q205 548 208 581 L293 581 Q292 558 291 536 Q290 516 289 496 Q288 476 288 461 Q288 455 288 429.5 Q288 404 288 368.5 Q288 333 288.5 292.5 Q289 252 289 216.5 Q289 181 289 154.5 Q289 128 289 121 Q289 94 300.5 81 Q312 68 345 68 L398 68 L398 -1 Q365 0 332 1 Q302 1 272 1.5 Q242 2 217 2 Q192 2 161 1.5 Q130 1 102 1 Q69 0 36 -1 L36 68 L91 68 Z " />
<glyph glyph-name="two" unicode="2" horiz-adv-x="535" d="M475 209 Q482 189 486 168.5 Q490 148 490 128 Q490 57 455.5 18.5 Q421 -20 355 -21 Q327 -21 305.5 -16.5 Q284 -12 265 -2 Q246 8 228 21.5 Q210 35 189 53 Q170 70 152 77 Q134 84 118 85 Q105 85 94 81 Q83 77 76 67 Q80 69 85 69.5 Q90 70 95 71 Q117 71 129 58.5 Q141 46 141 26 Q141 6 127.5 -5.5 Q114 -17 91 -17 Q66 -17 51 2 Q36 21 36 55 Q36 121 71 169.5 Q106 218 189 252 Q267 284 298 319.5 Q329 355 329 407 Q329 457 301.5 485 Q274 513 217 513 Q178 513 142.5 496.5 Q107 480 92 442 Q107 449 132 449 Q164 449 183 431.5 Q202 414 202 383 Q202 352 181.5 335 Q161 318 126 318 Q90 318 69.5 341.5 Q49 365 49 407 Q49 446 64.5 477 Q80 508 107.5 529.5 Q135 551 174 562.5 Q213 574 260 574 Q365 574 417.5 532 Q470 490 470 418 Q470 332 410 285 Q350 238 233 215 Q111 190 82 120 Q108 150 156 156.5 Q204 163 266 150 Q295 144 326 138.5 Q357 133 381.5 136 Q406 139 420.5 154 Q435 169 430 203 L475 209 Z " />
<glyph glyph-name="three" unicode="3" horiz-adv-x="583" d="M511 395 Q511 325 471.5 284 Q432 243 373 228 Q457 217 500.5 170 Q544 123 544 52 Q544 0 524.5 -38.5 Q505 -77 469 -102.5 Q433 -128 382.5 -141 Q332 -154 269 -154 Q217 -154 174.5 -141 Q132 -128 102 -105 Q72 -82 55.5 -51 Q39 -20 39 16 Q39 61 63.5 86.5 Q88 112 126 112 Q162 112 182 93.5 Q202 75 202 41 Q202 6 179.5 -10 Q157 -26 125 -26 Q109 -26 94 -21 Q113 -62 154 -80.5 Q195 -99 241 -99 Q317 -99 353 -60.5 Q389 -22 389 54 Q389 125 352 159.5 Q315 194 237 194 L205 194 L205 248 L235 248 Q304 249 335.5 282.5 Q367 316 367 390 Q367 447 337.5 479.5 Q308 512 250 512 Q209 512 171.5 496 Q134 480 116 445 Q122 447 129 448 Q136 449 144 449 Q177 449 197 432 Q217 415 217 383 Q217 353 197.5 335.5 Q178 318 144 318 Q107 318 86.5 339.5 Q66 361 66 401 Q66 436 81.5 467.5 Q97 499 126 522.5 Q155 546 197 560 Q239 574 291 574 Q394 574 452.5 528 Q511 482 511 395 Z " />
<glyph glyph-name="four" unicode="4" horiz-adv-x="580" d="M302 -9 Q303 1 303 25 Q303 49 304 81 Q269 81 230.5 81 Q192 81 155.5 81 Q119 81 86.5 80.5 Q54 80 30 80 L30 127 Q36 136 61 171 Q86 206 121 253.5 Q156 301 195.5 354.5 Q235 408 270 455.5 Q305 503 330 538 Q355 573 360 582 L446 582 Q445 527 444.5 466.5 Q444 406 444 346.5 Q444 287 444 231.5 Q444 176 444 129 L553 131 L553 77 L444 79 Q444 47 444.5 23.5 Q445 0 446 -9 Q448 -33 458.5 -41.5 Q469 -50 499 -50 L538 -50 L538 -118 Q509 -117 480 -117 Q453 -116 425.5 -115.5 Q398 -115 374 -115 Q350 -115 320 -115.5 Q290 -116 264 -117 Q233 -117 202 -118 L202 -50 L248 -50 Q279 -50 290 -42 Q301 -34 302 -9 Z M303 415 Q279 382 248.5 340 Q218 298 188 257.5 Q158 217 132.5 182 Q107 147 94 127 Q138 126 194.5 126 Q251 126 304 126 Q304 161 304 198.5 Q304 236 304 274 Q304 312 303.5 348 Q303 384 303 415 Z " />
<glyph glyph-name="five" unicode="5" horiz-adv-x="575" d="M236 237 Q189 237 155.5 221.5 Q122 206 99 189 L75 212 Q89 244 98.5 290 Q108 336 113.5 386.5 Q119 437 120.5 487 Q122 537 121 576 Q144 568 195.5 560.5 Q247 553 306 553 Q371 553 423 563 Q475 573 505 587 L529 568 Q518 496 462 457 Q406 418 314 418 Q256 418 219 431.5 Q182 445 160 460 Q158 409 150.5 352 Q143 295 129 251 Q161 272 205.5 286.5 Q250 301 304 301 Q422 301 480 244.5 Q538 188 538 78 Q538 -35 463 -94.5 Q388 -154 259 -154 Q206 -154 165 -141 Q124 -128 95.5 -105.5 Q67 -83 52.5 -51.5 Q38 -20 38 16 Q38 62 62.5 87 Q87 112 125 112 Q202 112 202 42 Q202 9 181 -8.5 Q160 -26 125 -26 Q106 -26 92 -19 Q109 -59 148 -78 Q187 -97 238 -97 Q308 -97 347 -58.5 Q386 -20 386 76 Q386 163 347 200 Q308 237 236 237 Z " />
<glyph glyph-name="six" unicode="6" horiz-adv-x="586" d="M338 662 Q298 662 269.5 645.5 Q241 629 222.5 593 Q204 557 195 500 Q186 443 185 362 Q208 397 249.5 417.5 Q291 438 342 438 Q446 438 497 381 Q548 324 548 224 Q548 170 529.5 126 Q511 82 477.5 50.5 Q444 19 396.5 2 Q349 -15 292 -15 Q237 -15 191 3 Q145 21 111 61.5 Q77 102 58 166 Q39 230 39 321 Q39 421 61 494 Q83 567 121 615 Q159 663 209.5 686.5 Q260 710 318 710 Q367 710 404 697.5 Q441 685 466 664 Q491 643 503.5 616 Q516 589 516 559 Q516 518 495.5 495.5 Q475 473 435 473 Q400 473 380.5 491.5 Q361 510 361 540 Q361 574 382.5 590.5 Q404 607 436 607 Q441 607 445.5 606.5 Q450 606 455 605 Q441 633 410.5 647.5 Q380 662 338 662 Z M186 216 Q186 137 211 90.5 Q236 44 303 44 Q360 44 384 90.5 Q408 137 408 216 Q408 300 381.5 339 Q355 378 303 378 Q248 378 217 342.5 Q186 307 186 216 Z " />
<glyph glyph-name="seven" unicode="7" horiz-adv-x="541" d="M105 524 Q122 551 150 565 Q178 579 212 579 Q244 579 273.5 568.5 Q303 558 336 532 Q375 502 399 492 Q423 482 445 482 Q471 482 484 494 L474 494 Q452 494 438 506 Q424 518 424 538 Q424 562 438.5 574 Q453 586 475 586 Q499 586 514 570.5 Q529 555 529 522 Q529 486 511.5 448.5 Q494 411 448 363 Q414 327 385.5 293.5 Q357 260 338.5 215.5 Q320 171 314 109 Q308 47 318 -45 Q322 -71 316.5 -90 Q311 -109 299 -121 Q287 -133 270 -139 Q253 -145 235 -145 Q192 -145 168.5 -118.5 Q145 -92 145 -25 Q145 81 195.5 166 Q246 251 349 324 Q384 350 416 375 Q448 400 471 436 Q442 410 406 399 Q370 388 333 388 Q294 387 265 395 Q236 403 201 420 Q187 426 175 430.5 Q163 435 149 435 Q124 435 111.5 417 Q99 399 100 357 Q90 359 70 359 Q50 359 40 357 Q43 380 44 408.5 Q45 437 44.5 467 Q44 497 42 526.5 Q40 556 37 580 Q47 578 66.5 578 Q86 578 96 580 L105 524 Z " />
<glyph glyph-name="eight" unicode="8" horiz-adv-x="594" d="M519 547 Q519 496 493 460.5 Q467 425 429 402 Q501 373 530 326.5 Q559 280 559 214 Q559 157 539.5 114 Q520 71 485 42.5 Q450 14 400.5 -0.5 Q351 -15 291 -15 Q156 -15 97.5 29.5 Q39 74 39 157 Q39 217 74 255 Q109 293 158 313 Q66 371 66 491 Q66 540 82 580.5 Q98 621 129 649.5 Q160 678 204 694 Q248 710 305 710 Q413 710 466 664 Q519 618 519 547 Z M266 273 Q247 277 230.5 282 Q214 287 199 293 Q165 272 144.5 240 Q124 208 124 163 Q124 111 165.5 80 Q207 49 295 49 Q377 49 420.5 79 Q464 109 464 154 Q464 177 455.5 193.5 Q447 210 424.5 223.5 Q402 237 363.5 248.5 Q325 260 266 273 Z M304 651 Q267 651 241 642.5 Q215 634 198.5 619.5 Q182 605 174.5 586.5 Q167 568 167 548 Q167 525 175 507 Q183 489 202.5 475 Q222 461 255 449.5 Q288 438 337 428 L380 419 Q406 442 422.5 473 Q439 504 439 544 Q439 566 432 585.5 Q425 605 409.5 619.5 Q394 634 368 642.5 Q342 651 304 651 Z " />
<glyph glyph-name="nine" unicode="9" horiz-adv-x="583" d="M233 -111 Q276 -111 307 -94.5 Q338 -78 357.5 -41.5 Q377 -5 386.5 53.5 Q396 112 397 196 Q376 160 337 138.5 Q298 117 244 117 Q140 117 87.5 175 Q35 233 35 330 Q35 385 53.5 430 Q72 475 106 507 Q140 539 186.5 556.5 Q233 574 289 574 Q345 574 392 555 Q439 536 473 494.5 Q507 453 525.5 388.5 Q544 324 544 232 Q544 143 525.5 71.5 Q507 0 470.5 -50 Q434 -100 379 -127 Q324 -154 251 -154 Q200 -154 161 -142 Q122 -130 95.5 -110 Q69 -90 55.5 -62.5 Q42 -35 42 -5 Q42 35 64.5 57.5 Q87 80 125 80 Q159 80 179 62 Q199 44 199 12 Q199 -21 177.5 -38 Q156 -55 121 -55 Q108 -55 97 -52 Q116 -82 151 -96.5 Q186 -111 233 -111 Z M396 346 Q396 429 370.5 475 Q345 521 279 521 Q222 521 198 474.5 Q174 428 174 346 Q174 257 201.5 216.5 Q229 176 280 176 Q307 176 328.5 184.5 Q350 193 365 213 Q380 233 388 265.5 Q396 298 396 346 Z " />
<glyph glyph-name="colon" unicode="&#x3a;" horiz-adv-x="274" d="M204 344 Q204 315 186 298 Q168 281 137 281 Q108 281 89 297.5 Q70 314 70 345 Q70 375 89 392.5 Q108 410 137 410 Q168 410 186 392 Q204 374 204 344 Z M204 122 Q204 93 186 76 Q168 59 137 59 Q108 59 89 75.5 Q70 92 70 123 Q70 153 89 170.5 Q108 188 137 188 Q168 188 186 170 Q204 152 204 122 Z " />
<glyph glyph-name="semicolon" unicode="&#x3b;" horiz-adv-x="280" d="M74 125 Q74 153 92.5 171 Q111 189 142 189 Q178 189 195.5 164 Q213 139 213 99 Q213 33 165.5 -15.5 Q118 -64 37 -82 L30 -57 Q102 -40 140.5 0 Q179 40 177 100 Q164 68 125 68 Q101 68 87.5 82 Q74 96 74 125 Z M210 344 Q210 315 191.5 298 Q173 281 142 281 Q113 281 94.5 297.5 Q76 314 76 345 Q76 375 94.5 392.5 Q113 410 142 410 Q173 410 191.5 392 Q210 374 210 344 Z " />
<glyph glyph-name="less" unicode="&#x3c;" horiz-adv-x="600" d="M139 267 Q164 284 201 308.5 Q238 333 278 360 Q318 387 355.5 412.5 Q393 438 418 456 L453 396 Q428 384 394 365 Q360 346 323.5 325 Q287 304 252 284 Q217 264 191 249 Q217 234 252 214 Q287 194 323.5 173 Q360 152 394 133 Q428 114 453 102 L418 42 Q393 60 355.5 85.5 Q318 111 278 138 Q238 165 201 190 Q164 215 139 231 L139 267 Z " />
<glyph glyph-name="equal" unicode="&#x3d;" horiz-adv-x="600" d="M80 136 Q81 151 81 170.5 Q81 190 80 205 Q122 204 180.5 204 Q239 204 300.5 204 Q362 204 420 204 Q478 204 520 205 Q519 190 519 171 Q519 152 520 136 Q478 137 420 137.5 Q362 138 300.5 138 Q239 138 180.5 137.5 Q122 137 80 136 Z M80 297 Q81 312 81 331.5 Q81 351 80 366 Q122 365 180.5 365 Q239 365 300.5 365 Q362 365 420 365 Q478 365 520 366 Q519 351 519 332 Q519 313 520 297 Q478 298 420 298.5 Q362 299 300.5 299 Q239 299 180.5 298.5 Q122 298 80 297 Z " />
<glyph glyph-name="greater" unicode="&#x3e;" horiz-adv-x="600" d="M451 231 Q426 215 389 190 Q352 165 312 138 Q272 111 234.5 85.5 Q197 60 172 42 L137 102 Q162 114 196 133 Q230 152 266.5 173 Q303 194 338 214 Q373 234 399 249 Q373 264 338 284 Q303 304 266.5 325 Q230 346 196 365 Q162 384 137 396 L172 456 Q197 438 234.5 412.5 Q272 387 312 360 Q352 333 389 308.5 Q426 284 451 267 L451 231 Z " />
<glyph glyph-name="question" unicode="&#x3f;" horiz-adv-x="513" d="M380 243 Q358 224 322 208 Q286 192 246 192 Q211 192 189 209.5 Q167 227 167 258 Q167 285 184 304 Q201 323 234 341 Q254 352 273 367 Q292 382 306 402 Q320 422 328.5 449.5 Q337 477 337 514 Q337 570 307 608 Q277 646 210 646 Q169 646 133 627.5 Q97 609 83 566 Q105 576 128 576 Q163 576 182 556.5 Q201 537 201 503 Q201 471 179 451.5 Q157 432 119 432 Q78 432 56 456.5 Q34 481 34 528 Q34 566 48.5 599 Q63 632 91.5 656.5 Q120 681 163 695.5 Q206 710 263 710 Q379 710 434 658.5 Q489 607 489 521 Q489 479 476 446 Q463 413 437 386.5 Q411 360 372.5 338.5 Q334 317 283 297 Q252 286 240 277.5 Q228 269 228 256 Q228 243 238 237.5 Q248 232 260 232 Q286 232 313.5 241.5 Q341 251 367 271 L380 243 Z M345 61 Q345 25 323.5 4.5 Q302 -16 265 -16 Q230 -16 208 4 Q186 24 186 62 Q186 97 208 118 Q230 139 265 139 Q302 139 323.5 117.5 Q345 96 345 61 Z " />
<glyph glyph-name="at" unicode="&#x40;" horiz-adv-x="826" d="M648 436 Q642 413 634.5 380 Q627 347 619.5 312.5 Q612 278 605.5 245.5 Q599 213 595 190 Q587 147 593.5 118.5 Q600 90 635 90 Q655 90 671.5 101 Q688 112 701 131 Q714 150 723 174 Q732 198 737 224 Q754 306 747.5 371.5 Q741 437 709.5 483 Q678 529 620.5 554 Q563 579 478 579 Q411 579 351.5 559 Q292 539 245.5 499 Q199 459 167 398.5 Q135 338 122 257 Q107 164 119.5 96 Q132 28 166.5 -17 Q201 -62 256 -83.5 Q311 -105 382 -105 Q463 -105 525.5 -82 Q588 -59 624 -29 L644 -50 Q623 -71 594 -88.5 Q565 -106 531 -118.5 Q497 -131 459.5 -138 Q422 -145 385 -145 Q287 -145 216.5 -115.5 Q146 -86 103 -33 Q60 20 46 94.5 Q32 169 47 259 Q61 345 100.5 411.5 Q140 478 197.5 523.5 Q255 569 326.5 593 Q398 617 476 617 Q564 617 631 593 Q698 569 739 520 Q780 471 792 397 Q804 323 783 223 Q766 141 720 91 Q674 41 590 41 Q536 41 503 64 Q470 87 469 135 Q443 85 405 65 Q367 45 328 45 Q301 45 278.5 54.5 Q256 64 241 84 Q226 104 220.5 135.5 Q215 167 221 211 Q230 274 250.5 319.5 Q271 365 298.5 394 Q326 423 358.5 436.5 Q391 450 424 450 Q473 450 496.5 428.5 Q520 407 525 373 Q539 387 553 403.5 Q567 420 573 436 Q579 435 589 435 Q599 435 610.5 435 Q622 435 632 435 Q642 435 648 436 Z M388 106 Q415 106 441 146 Q467 186 486 281 Q498 344 487.5 368 Q477 392 453 392 Q425 392 397 351.5 Q369 311 352 215 Q341 155 352.5 130.5 Q364 106 388 106 Z " />
<glyph glyph-name="A" unicode="A" horiz-adv-x="883" d="M532 213 Q505 214 471.5 214.5 Q438 215 403 215 Q368 215 333.5 214.5 Q299 214 272 214 Q267 200 263.5 189 Q260 178 258 171 Q244 126 253 101.5 Q262 77 307 77 L347 77 Q347 74 347 62.5 Q347 51 346.5 37.5 Q346 24 346 12.5 Q346 1 346 -2 Q317 -1 289 -1 Q263 -1 237 -0.5 Q211 0 189 0 Q168 0 141 -0.5 Q114 -1 90 -1 Q61 -1 32 -2 Q32 1 32.5 12.5 Q33 24 33 37.5 Q33 51 32.5 62.5 Q32 74 32 77 L64 77 Q107 77 129 96 Q151 115 169 163 Q174 174 188 212 Q202 250 221.5 302 Q241 354 263 413.5 Q285 473 305.5 528.5 Q326 584 342.5 629 Q359 674 367 696 Q381 695 394 695 Q407 694 419.5 693.5 Q432 693 442 693 Q452 693 465 693.5 Q478 694 489 695 Q502 695 516 696 Q526 667 543.5 621 Q561 575 581.5 521.5 Q602 468 624 412 Q646 356 665.5 306.5 Q685 257 700.5 218.5 Q716 180 724 162 Q745 114 764.5 95.5 Q784 77 814 77 L851 77 L851 -2 Q815 -1 780 -1 Q748 -1 716 -0.5 Q684 0 658 0 Q632 0 598.5 -0.5 Q565 -1 535 -1 Q500 -1 464 -2 Q464 1 464 12.5 Q464 24 464 37.5 Q464 51 464 62.5 Q464 74 464 77 L506 77 Q543 77 553 101.5 Q563 126 546 173 L532 213 Z M512 269 Q500 304 485 344.5 Q470 385 455 425 Q440 465 425.5 502.5 Q411 540 400 568 Q390 540 376 503 Q362 466 347.5 425.5 Q333 385 318.5 344.5 Q304 304 292 269 Q317 269 345.5 268.5 Q374 268 403 268 Q432 268 460 268.5 Q488 269 512 269 Z " />
<glyph glyph-name="B" unicode="B" horiz-adv-x="705" d="M672 202 Q672 155 659 117.5 Q646 80 613.5 53.5 Q581 27 526.5 13 Q472 -1 389 -1 Q385 -1 359.5 -1 Q334 -1 304 -0.5 Q274 0 247 0 Q220 0 212 0 Q203 0 173.5 0 Q144 0 113 -1 Q76 -1 32 -1 Q32 2 32.5 13.5 Q33 25 33 38 Q33 51 32.5 62.5 Q32 74 32 77 L78 77 Q111 77 123.5 86.5 Q136 96 137 125 Q138 142 138.5 177 Q139 212 139 255.5 Q139 299 139 347 Q139 395 139 437.5 Q139 480 138.5 513 Q138 546 137 560 Q135 590 123.5 601.5 Q112 613 85 613 L32 613 Q32 619 32.5 629.5 Q33 640 33 652 Q33 664 32.5 674.5 Q32 685 32 690 Q38 690 63 689.5 Q88 689 118.5 689 Q149 689 177.5 688.5 Q206 688 219 688 Q236 688 257.5 688 Q279 688 301 688.5 Q323 689 343.5 689 Q364 689 380 689 Q515 689 580.5 644.5 Q646 600 646 515 Q646 453 612.5 414 Q579 375 523 359 Q592 345 632 303.5 Q672 262 672 202 Z M290 326 Q290 292 290 258.5 Q290 225 290 197 Q290 169 290.5 147 Q291 125 292 113 Q293 89 303.5 79.5 Q314 70 332 70 L375 70 Q450 70 478.5 102.5 Q507 135 507 204 Q507 268 468.5 297 Q430 326 347 326 L290 326 Z M292 580 Q291 569 290.5 549 Q290 529 290 502.5 Q290 476 290 445 Q290 414 290 381 L346 381 Q386 381 413 387 Q440 393 456.5 407 Q473 421 480 444.5 Q487 468 487 504 Q487 559 457.5 589.5 Q428 620 362 620 L332 620 Q310 620 301.5 609 Q293 598 292 580 Z " />
<glyph glyph-name="C" unicode="C" horiz-adv-x="732" d="M552 667 Q588 647 600.5 653.5 Q613 660 618 698 Q621 698 631.5 697.5 Q642 697 654.5 697 Q667 697 677.5 697.5 Q688 698 690 698 Q687 679 683.5 647.5 Q680 616 677.5 579.5 Q675 543 674 506.5 Q673 470 674 441 Q655 443 626 443 Q597 443 578 441 Q573 481 563 515.5 Q553 550 533.5 575.5 Q514 601 482 616 Q450 631 401 631 Q354 631 320 615.5 Q286 600 264.5 566 Q243 532 232.5 477.5 Q222 423 222 346 Q222 258 235.5 202 Q249 146 272 114.5 Q295 83 326.5 71 Q358 59 395 59 Q486 59 534 115 Q582 171 586 269 Q595 268 608.5 268 Q622 268 637 268 Q652 268 666 268 Q680 268 689 269 Q686 196 668 142 Q650 88 614 52 Q578 16 521.5 -1.5 Q465 -19 385 -19 Q307 -19 243.5 0.5 Q180 20 136 63.5 Q92 107 68 176.5 Q44 246 44 346 Q44 441 69.5 510 Q95 579 140 623.5 Q185 668 246.5 689 Q308 710 380 710 Q450 710 490.5 694.5 Q531 679 552 667 Z " />
<glyph glyph-name="D" unicode="D" horiz-adv-x="787" d="M399 689 Q579 689 660.5 607 Q742 525 744 350 Q745 253 719 185.5 Q693 118 646.5 77 Q600 36 537 17.5 Q474 -1 401 -1 Q365 -1 330 -1 Q299 0 268.5 0 Q238 0 216 0 Q196 0 164.5 -0.5 Q133 -1 104 -1 Q69 -1 32 -2 Q32 1 32.5 12.5 Q33 24 33 37.5 Q33 51 32.5 62.5 Q32 74 32 77 L77 77 Q112 77 124 86.5 Q136 96 137 125 Q138 142 138.5 176.5 Q139 211 139 255 Q139 299 139 346.5 Q139 394 139 437 Q139 480 138.5 513 Q138 546 137 560 Q135 590 123 601.5 Q111 613 84 613 L32 613 Q32 616 32.5 627.5 Q33 639 33 651.5 Q33 664 32.5 675.5 Q32 687 32 690 Q38 690 60 689.5 Q82 689 110 689 Q138 689 168 688.5 Q198 688 219 688 Q239 688 268.5 688 Q298 688 325.5 688.5 Q353 689 374 689 Q395 689 399 689 Z M292 120 Q293 96 306 84.5 Q319 73 336 73 L377 73 Q430 73 468 85.5 Q506 98 531 129.5 Q556 161 567.5 214.5 Q579 268 579 351 Q579 426 568.5 477 Q558 528 534 559 Q510 590 472 603.5 Q434 617 378 617 L336 617 Q312 617 302.5 605 Q293 593 292 576 Q291 558 290 522 Q289 486 289 441.5 Q289 397 289 348 Q289 299 289.5 254.5 Q290 210 290.5 174 Q291 138 292 120 Z " />
<glyph glyph-name="E" unicode="E" horiz-adv-x="733" d="M442 503 L507 503 Q506 481 505.5 465 Q505 449 504.5 432.5 Q504 416 503.5 396.5 Q503 377 503 350 Q503 322 503 301 Q503 280 503.5 262 Q504 244 505 227.5 Q506 211 507 192 L444 192 L444 210 Q442 270 418 296 Q394 322 329 322 L290 322 Q290 259 290.5 206.5 Q291 154 293 133 Q295 101 310 89 Q325 77 349 77 L471 77 Q513 77 541 87.5 Q569 98 586.5 121 Q604 144 611 180.5 Q618 217 618 269 Q621 269 633 268.5 Q645 268 659 268 Q673 268 685 268.5 Q697 269 700 269 Q697 241 695.5 207 Q694 173 692.5 137 Q691 101 690.5 64.5 Q690 28 690 -5 Q671 -4 643 -3 Q615 -2 586.5 -1 Q558 0 531.5 0 Q505 0 487 0 L213 0 Q193 0 162.5 -0.5 Q132 -1 103.5 -1 Q75 -1 54.5 -1.5 Q34 -2 32 -2 Q32 1 32.5 12.5 Q33 24 33 37.5 Q33 51 32.5 62.5 Q32 74 32 77 L77 77 Q112 77 123.5 93.5 Q135 110 137 139 Q138 153 138.5 185 Q139 217 139.5 258.5 Q140 300 140 346 Q140 392 139.5 434 Q139 476 138.5 509 Q138 542 137 556 Q135 588 122.5 600.5 Q110 613 83 613 L32 613 Q32 616 32.5 627.5 Q33 639 33 651.5 Q33 664 32.5 675.5 Q32 687 32 690 Q38 690 63 689.5 Q88 689 118 689 Q148 689 176 688.5 Q204 688 217 688 Q243 688 313 688.5 Q383 689 477 689 Q493 689 522.5 689 Q552 689 585 689.5 Q618 690 648 691.5 Q678 693 696 695 Q694 668 692.5 634.5 Q691 601 690.5 566.5 Q690 532 690 499 Q690 466 690 439 L615 439 Q615 492 607 525 Q599 558 582 577.5 Q565 597 538 604 Q511 611 472 611 L346 611 Q319 611 307 597.5 Q295 584 293 559 Q291 538 290.5 487.5 Q290 437 290 377 L331 377 Q390 377 416 399.5 Q442 422 442 482 L442 503 Z " />
<glyph glyph-name="F" unicode="F" horiz-adv-x="706" d="M500 502 Q498 459 497 420 Q496 381 496 349 Q496 315 496.5 272 Q497 229 500 191 L437 191 L437 215 Q437 271 410.5 294.5 Q384 318 321 318 L291 318 Q291 261 291.5 211.5 Q292 162 293 140 Q295 110 307 93.5 Q319 77 354 77 L416 77 L416 -2 Q381 -1 346 -1 Q314 -1 282 -0.5 Q250 0 224 0 Q198 0 165 -0.5 Q132 -1 102 -1 Q67 -1 32 -2 Q32 1 32.5 12.5 Q33 24 33 37.5 Q33 51 32.5 62.5 Q32 74 32 77 L79 77 Q112 77 124.5 94 Q137 111 138 140 Q139 157 139.5 190 Q140 223 140 264.5 Q140 306 140 351.5 Q140 397 140 438 Q140 479 139.5 511.5 Q139 544 138 559 Q136 588 124 600.5 Q112 613 85 613 L32 613 Q32 616 32.5 627.5 Q33 639 33 651.5 Q33 664 32.5 675.5 Q32 687 32 690 Q38 690 62.5 689.5 Q87 689 116.5 689 Q146 689 174.5 688.5 Q203 688 217 688 Q231 688 250 688 Q269 688 297 688.5 Q325 689 364 689 Q403 689 455 689 Q471 689 500.5 689 Q530 689 563 689.5 Q596 690 626 691.5 Q656 693 674 695 Q672 668 671 633 Q670 598 669 561.5 Q668 525 668 490 Q668 455 668 428 Q664 428 653 428.5 Q642 429 630 429 Q618 429 607.5 428.5 Q597 428 593 428 Q593 483 585 518.5 Q577 554 559 574.5 Q541 595 512.5 603 Q484 611 444 611 L346 611 Q319 611 307 597.5 Q295 584 293 559 Q292 539 291.5 488.5 Q291 438 291 378 L334 378 Q385 378 410 400.5 Q435 423 435 481 L435 502 L500 502 Z " />
<glyph glyph-name="G" unicode="G" horiz-adv-x="795" d="M380 710 Q425 710 465.5 701.5 Q506 693 552 667 Q588 646 600.5 653 Q613 660 618 698 Q621 698 631.5 697.5 Q642 697 654.5 697 Q667 697 677.5 697.5 Q688 698 690 698 Q687 679 683.5 647.5 Q680 616 677.5 579.5 Q675 543 674 506.5 Q673 470 674 441 Q655 443 626 443 Q597 443 578 441 Q573 481 563 515.5 Q553 550 533.5 575.5 Q514 601 482 616 Q450 631 401 631 Q354 631 320 615.5 Q286 600 264.5 566 Q243 532 232.5 477.5 Q222 423 222 346 Q222 258 236 202 Q250 146 273.5 114.5 Q297 83 328 71 Q359 59 394 59 Q428 59 457 68 Q486 77 507 95.5 Q528 114 540 143.5 Q552 173 552 213 Q552 257 542 277 Q532 297 494 297 L454 297 L454 363 Q484 362 513 362 Q540 361 566.5 360.5 Q593 360 614 360 Q635 360 662 360.5 Q689 361 714 362 Q742 362 771 363 L771 297 L741 297 Q719 297 710.5 285 Q702 273 702 244 Q702 224 702.5 193 Q703 162 703.5 127.5 Q704 93 706 58 Q708 23 711 -5 Q695 -3 668.5 -3 Q642 -3 625 -5 Q621 12 613.5 40 Q606 68 598 95 Q571 44 513 12 Q455 -20 379 -20 Q304 -20 242.5 -0.5 Q181 19 136.5 62.5 Q92 106 68 176 Q44 246 44 346 Q44 441 69.5 510 Q95 579 140 623.5 Q185 668 246.5 689 Q308 710 380 710 Z " />
<glyph glyph-name="H" unicode="H" horiz-adv-x="857" d="M32 -2 Q32 1 32.5 12.5 Q33 24 33 37.5 Q33 51 32.5 62.5 Q32 74 32 77 L79 77 Q113 77 124.5 85 Q136 93 137 122 Q138 139 138.5 174 Q139 209 139 253.5 Q139 298 139 346.5 Q139 395 139 438 Q139 481 138.5 514.5 Q138 548 137 561 Q135 590 123.5 601.5 Q112 613 85 613 L33 613 L33 690 Q66 689 99 689 Q128 688 158 687.5 Q188 687 212 687 Q236 687 265.5 687.5 Q295 688 321 688.5 Q347 689 367 689.5 Q387 690 391 690 L391 613 L341 613 Q314 613 302 601.5 Q290 590 288 561 Q287 552 286.5 533.5 Q286 515 286 490 Q286 465 286 435.5 Q286 406 286 374 Q315 374 351.5 373.5 Q388 373 426.5 373 Q465 373 503 373.5 Q541 374 572 374 Q572 406 572 435.5 Q572 465 572 489.5 Q572 514 571.5 533 Q571 552 570 561 Q568 590 555 601.5 Q542 613 515 613 L466 613 L466 690 Q499 689 532 689 Q561 688 591 687.5 Q621 687 645 687 Q669 687 698.5 687.5 Q728 688 754 688.5 Q780 689 800 689.5 Q820 690 824 690 L824 613 L771 613 Q744 613 732.5 601.5 Q721 590 719 561 Q718 548 717.5 514.5 Q717 481 717 438 Q717 395 717 346.5 Q717 298 717 253.5 Q717 209 717.5 174 Q718 139 719 122 Q721 95 732 86 Q743 77 777 77 L824 77 L824 -2 Q791 -1 759 -1 Q729 -1 699 -0.5 Q669 0 645 0 Q621 0 590 -0.5 Q559 -1 532 -1 Q499 -1 466 -2 L466 77 L512 77 Q546 77 557.5 86.5 Q569 96 570 122 Q570 133 570.5 153 Q571 173 571.5 198.5 Q572 224 572 254.5 Q572 285 572 316 Q541 316 503 316.5 Q465 317 426.5 317 Q388 317 351.5 316.5 Q315 316 286 315 Q286 252 286.5 198.5 Q287 145 288 122 Q290 96 299.5 86.5 Q309 77 344 77 L391 77 L391 -2 Q358 -1 326 -1 Q296 -1 266 -0.5 Q236 0 212 0 Q188 0 157 -0.5 Q126 -1 98 -1 Q65 -1 32 -2 Z " />
<glyph glyph-name="I" unicode="I" horiz-adv-x="428" d="M35 77 L82 77 Q114 77 125 86.5 Q136 96 137 122 Q138 138 138.5 173 Q139 208 139 252.5 Q139 297 139 345.5 Q139 394 139 437.5 Q139 481 138.5 514.5 Q138 548 137 561 Q135 590 123.5 601.5 Q112 613 85 613 L35 613 L35 690 Q68 689 101 689 Q131 688 161 687.5 Q191 687 215 687 Q239 687 268.5 687.5 Q298 688 324 688.5 Q350 689 370 689.5 Q390 690 394 690 L394 613 L344 613 Q317 613 305.5 601.5 Q294 590 292 561 Q291 548 290.5 514.5 Q290 481 289.5 437.5 Q289 394 289 345.5 Q289 297 289.5 252.5 Q290 208 290.5 173 Q291 138 292 122 Q293 96 304.5 86.5 Q316 77 348 77 L394 77 L394 -2 Q361 -1 329 -1 Q299 -1 269 -0.5 Q239 0 215 0 Q191 0 160 -0.5 Q129 -1 101 -1 Q68 -1 35 -2 L35 77 Z " />
<glyph glyph-name="J" unicode="J" horiz-adv-x="588" d="M102 83 Q89 83 78 86 Q94 64 120.5 51 Q147 38 187 38 Q245 38 275 74.5 Q305 111 308 199 Q309 231 309.5 283.5 Q310 336 310 391 Q310 446 309.5 493.5 Q309 541 308 561 Q306 590 295 601.5 Q284 613 256 613 L211 613 L211 690 Q243 689 274 689 Q302 688 331 687.5 Q360 687 383 687 Q406 687 434.5 687.5 Q463 688 488.5 688.5 Q514 689 533 689.5 Q552 690 556 690 Q556 687 555.5 675.5 Q555 664 555 651.5 Q555 639 555.5 627.5 Q556 616 556 613 L516 613 Q490 613 477.5 603 Q465 593 464 561 Q464 550 463.5 523.5 Q463 497 463 462.5 Q463 428 463 389 Q463 350 463 314 Q463 278 463.5 248 Q464 218 464 202 Q464 147 446 105.5 Q428 64 395 36 Q362 8 315 -5.5 Q268 -19 211 -19 Q163 -19 126.5 -6 Q90 7 65.5 29 Q41 51 29 79.5 Q17 108 17 139 Q17 179 40 206 Q63 233 108 233 Q144 233 166 213.5 Q188 194 188 159 Q188 138 180.5 123.5 Q173 109 161 100 Q149 91 133.5 87 Q118 83 102 83 Z " />
<glyph glyph-name="K" unicode="K" horiz-adv-x="841" d="M32 -2 Q32 1 32.5 12.5 Q33 24 33 37.5 Q33 51 32.5 62.5 Q32 74 32 77 L78 77 Q113 77 124 88 Q135 99 137 131 Q138 145 138.5 178.5 Q139 212 139.5 255.5 Q140 299 140 346.5 Q140 394 139.5 437 Q139 480 138.5 513 Q138 546 137 559 Q135 588 123 600.5 Q111 613 80 613 L32 613 Q32 616 32.5 627.5 Q33 639 33 651.5 Q33 664 32.5 675.5 Q32 687 32 690 Q65 689 98 689 Q128 688 158 687.5 Q188 687 212 687 Q236 687 265.5 687.5 Q295 688 321 688.5 Q347 689 367 689.5 Q387 690 391 690 Q391 687 390.5 675.5 Q390 664 390 651.5 Q390 639 390.5 627.5 Q391 616 391 613 L339 613 Q312 613 300.5 600.5 Q289 588 287 559 Q286 549 285.5 527 Q285 505 285 475 Q285 445 285 410.5 Q285 376 285 340 L521 549 Q531 558 534 569 Q537 580 534 589.5 Q531 599 521.5 606 Q512 613 495 613 L451 613 L451 690 Q484 689 517 689 Q546 688 576 687.5 Q606 687 630 687 Q654 687 682 687.5 Q710 688 735 688.5 Q760 689 778.5 689.5 Q797 690 801 690 L801 613 L764 613 Q713 613 678 596.5 Q643 580 603 545 L480 438 Q497 411 527 367 Q557 323 588 278 Q619 233 645.5 195.5 Q672 158 682 145 Q696 128 706.5 115 Q717 102 727.5 93.5 Q738 85 751 81 Q764 77 783 77 L809 77 Q809 74 808.5 62.5 Q808 51 808 38 Q808 25 808.5 13.5 Q809 2 809 -1 Q776 0 743 1 Q713 1 683 1.5 Q653 2 629 2 Q604 2 573 1.5 Q542 1 514 1 Q481 0 448 -1 Q448 2 448.5 13.5 Q449 25 449 38 Q449 51 448.5 62.5 Q448 74 448 77 L479 77 Q512 77 518 95 Q524 113 506 144 Q501 152 485 176 Q469 200 449 230 Q429 260 408 291 Q387 322 370 343 L285 270 Q285 222 285.5 184 Q286 146 287 131 Q289 100 297.5 88.5 Q306 77 339 77 L388 77 L388 -2 Q355 -1 324 -1 Q294 -1 264.5 -0.5 Q235 0 211 0 Q187 0 156 -0.5 Q125 -1 98 -1 Q65 -1 32 -2 Z " />
<glyph glyph-name="L" unicode="L" horiz-adv-x="663" d="M397 690 Q397 687 396.5 675.5 Q396 664 396 651.5 Q396 639 396 627.5 Q396 616 396 613 L345 613 Q316 613 303 601.5 Q290 590 288 558 Q287 544 286.5 511 Q286 478 286 435.5 Q286 393 286 345.5 Q286 298 286 254.5 Q286 211 286.5 175.5 Q287 140 288 123 Q290 95 303.5 86 Q317 77 342 77 L409 77 Q446 77 473.5 84.5 Q501 92 519.5 114 Q538 136 548 176 Q558 216 561 280 Q564 280 575.5 279.5 Q587 279 600 279 Q613 279 624 279.5 Q635 280 638 280 Q636 254 634.5 216 Q633 178 632 137.5 Q631 97 630.5 59.5 Q630 22 631 -4 Q610 -3 583 -2 Q556 -1 528.5 -0.5 Q501 0 476 0 Q451 0 434 0 L204 0 Q189 0 165.5 0 Q142 0 116.5 -0.5 Q91 -1 68.5 -1.5 Q46 -2 32 -2 Q32 1 32.5 12.5 Q33 24 33 37.5 Q33 51 32.5 62.5 Q32 74 32 77 L81 77 Q116 77 126 87.5 Q136 98 138 127 Q139 144 139.5 179 Q140 214 140 257 Q140 300 140 347.5 Q140 395 140 437.5 Q140 480 139.5 512 Q139 544 138 558 Q136 587 124.5 600 Q113 613 86 613 L34 613 L34 690 Q68 689 101 689 Q131 688 161 687.5 Q191 687 216 687 Q240 687 269.5 687.5 Q299 688 325 688.5 Q351 689 371 689.5 Q391 690 397 690 Z " />
<glyph glyph-name="M" unicode="M" horiz-adv-x="988" d="M437 51 Q419 92 391 152.5 Q363 213 332 278.5 Q301 344 270 408 Q239 472 215 520 Q214 487 214 430.5 Q214 374 214 316 Q214 258 214.5 210 Q215 162 216 145 Q218 106 231.5 91.5 Q245 77 280 77 L333 77 L333 -2 Q305 -1 278 -1 Q253 -1 228 -0.5 Q203 0 183 0 Q163 0 137 -0.5 Q111 -1 87 -1 Q60 -1 32 -2 Q32 1 32.5 12.5 Q33 24 33 37.5 Q33 51 32.5 62.5 Q32 74 32 77 L75 77 Q109 77 122.5 90.5 Q136 104 138 145 Q139 158 139.5 189.5 Q140 221 140 262 Q140 303 140 349.5 Q140 396 140 437.5 Q140 479 139.5 511.5 Q139 544 138 557 Q135 613 81 613 L34 613 L34 690 Q60 689 97.5 689 Q135 689 174.5 689 Q214 689 251.5 689 Q289 689 315 690 Q330 654 354 603 Q378 552 404.5 496 Q431 440 458.5 383.5 Q486 327 508 282 Q531 330 557 386.5 Q583 443 608.5 498.5 Q634 554 656 604 Q678 654 693 690 Q717 689 752 689 Q787 689 824 689 Q861 689 896 689 Q931 689 955 690 L955 613 L905 613 Q852 613 849 554 Q848 542 847.5 510.5 Q847 479 847 437.5 Q847 396 847 349.5 Q847 303 847 261 Q847 219 847.5 186.5 Q848 154 849 140 Q851 110 862 93.5 Q873 77 908 77 L955 77 L955 -2 Q921 -1 888 -1 Q858 -1 827 -0.5 Q796 0 771 0 Q746 0 714.5 -0.5 Q683 -1 654 -1 Q621 -1 587 -2 L587 77 L635 77 Q669 77 680.5 94.5 Q692 112 694 141 Q695 159 695.5 207 Q696 255 696 312.5 Q696 370 695.5 427.5 Q695 485 695 521 Q671 472 640.5 408 Q610 344 579.5 278.5 Q549 213 521.5 152.5 Q494 92 476 51 L437 51 Z " />
<glyph glyph-name="N" unicode="N" horiz-adv-x="832" d="M295 690 Q321 650 360 592 Q399 534 442.5 471 Q486 408 528.5 346.5 Q571 285 604 239 Q605 276 605 322.5 Q605 369 605 414 Q605 459 604.5 497 Q604 535 603 555 Q601 589 587.5 601 Q574 613 547 613 L490 613 L490 690 Q495 690 511.5 689.5 Q528 689 551 688.5 Q574 688 599 687.5 Q624 687 645 687 Q666 687 692.5 687.5 Q719 688 743 689 Q771 689 799 690 L799 613 L747 613 Q720 613 706 600.5 Q692 588 690 555 Q689 541 688.5 503.5 Q688 466 688 415 Q688 364 688 305 Q688 246 688 189.5 Q688 133 688.5 83 Q689 33 690 0 Q680 1 664.5 1.5 Q649 2 632.5 2 Q616 2 600.5 1.5 Q585 1 574 0 Q545 45 502.5 108 Q460 171 413 241.5 Q366 312 317.5 383.5 Q269 455 227 515 Q227 465 226.5 405.5 Q226 346 226.5 290.5 Q227 235 227.5 191 Q228 147 229 127 Q231 100 243.5 88.5 Q256 77 291 77 L345 77 L345 -2 Q316 -1 288 -1 Q262 -1 236 -0.5 Q210 0 189 0 Q167 0 140 -0.5 Q113 -1 89 -1 Q61 -1 32 -2 Q32 1 32.5 12.5 Q33 24 33 37.5 Q33 51 32.5 62.5 Q32 74 32 77 L80 77 Q115 77 128 88.5 Q141 100 142 127 Q143 144 143.5 178.5 Q144 213 144.5 256.5 Q145 300 145 347.5 Q145 395 144.5 437 Q144 479 143.5 512 Q143 545 142 558 Q140 587 127 600 Q114 613 86 613 L33 613 Q33 616 33.5 627.5 Q34 639 34 651.5 Q34 664 33.5 675.5 Q33 687 33 690 Q57 689 92 689 Q127 689 164 689 Q201 689 236 689 Q271 689 295 690 Z " />
<glyph glyph-name="O" unicode="O" horiz-adv-x="777" d="M389 57 Q485 57 523 127.5 Q561 198 561 346 Q561 425 551.5 479.5 Q542 534 521.5 568.5 Q501 603 468.5 618.5 Q436 634 389 634 Q299 634 258 564.5 Q217 495 217 345 Q217 267 225.5 212.5 Q234 158 254 123.5 Q274 89 307 73 Q340 57 389 57 Z M389 -19 Q218 -19 131 72.5 Q44 164 44 345 Q44 435 69.5 503.5 Q95 572 140.5 617.5 Q186 663 249.5 686 Q313 709 389 709 Q561 709 647 618 Q733 527 733 346 Q733 255 707 186.5 Q681 118 635 72.5 Q589 27 526 4 Q463 -19 389 -19 Z " />
<glyph glyph-name="P" unicode="P" horiz-adv-x="700" d="M376 238 Q351 238 328.5 238.5 Q306 239 290 240 Q290 205 290.5 177.5 Q291 150 292 136 Q294 102 308.5 89 Q323 76 349 76 L398 76 Q398 73 397.5 61.5 Q397 50 397 37 Q397 24 397.5 12.5 Q398 1 398 -2 Q364 -1 331 -1 Q301 -1 270.5 -0.5 Q240 0 215 0 Q190 0 158.5 -0.5 Q127 -1 99 -1 Q66 -1 32 -2 Q32 1 32.5 12.5 Q33 24 33 37.5 Q33 51 32.5 62.5 Q32 74 32 77 L72 77 Q105 77 120 90.5 Q135 104 137 136 Q138 149 138.5 182 Q139 215 139 258.5 Q139 302 139 350 Q139 398 139 441 Q139 484 138.5 517 Q138 550 137 564 Q135 593 124 603 Q113 613 87 613 L32 613 Q32 619 32.5 629.5 Q33 640 33 652 Q33 664 32.5 674.5 Q32 685 32 690 Q38 690 67.5 689.5 Q97 689 131.5 688.5 Q166 688 196.5 687.5 Q227 687 234 687 Q269 687 306.5 687.5 Q344 688 376 688 Q438 688 490 676 Q542 664 579.5 638 Q617 612 638.5 570 Q660 528 660 469 Q660 410 639 366.5 Q618 323 580.5 294.5 Q543 266 490.5 252 Q438 238 376 238 Z M292 583 Q291 567 290.5 537 Q290 507 289.5 469.5 Q289 432 289 390.5 Q289 349 289 309 Q306 308 324.5 308 Q343 308 345 308 Q429 309 461 347.5 Q493 386 493 467 Q493 547 462.5 583.5 Q432 620 355 620 L328 620 Q308 620 300.5 609.5 Q293 599 292 583 Z " />
<glyph glyph-name="Q" unicode="Q" horiz-adv-x="777" d="M389 -19 Q218 -19 131 72.5 Q44 164 44 345 Q44 435 69.5 503.5 Q95 572 140.5 617.5 Q186 663 249.5 686 Q313 709 389 709 Q561 709 647 618 Q733 527 733 346 Q733 223 688 142.5 Q643 62 565 21 Q579 -53 597 -82.5 Q615 -112 647 -112 Q702 -112 699 -24 L739 -22 Q744 -104 708 -149.5 Q672 -195 591 -195 Q519 -195 478 -149.5 Q437 -104 442 -16 Q415 -19 389 -19 Z M409 228 Q454 228 483.5 207.5 Q513 187 532 146 Q561 214 561 346 Q561 425 551.5 479.5 Q542 534 521.5 568.5 Q501 603 468.5 618.5 Q436 634 389 634 Q299 634 258 564.5 Q217 495 217 345 Q217 224 237.5 158.5 Q258 93 312 70 Q296 92 296 119 Q296 171 327 199.5 Q358 228 409 228 Z M390 57 Q424 57 451 66 Q456 129 439 157 Q422 185 388 185 Q366 185 346.5 171 Q327 157 327 119 Q327 89 347 73 Q367 57 390 57 Z " />
<glyph glyph-name="R" unicode="R" horiz-adv-x="789" d="M622 187 Q627 147 633.5 122 Q640 97 647.5 83.5 Q655 70 664 65.5 Q673 61 684 61 Q713 61 719 100.5 Q725 140 712 204 Q714 204 721.5 204.5 Q729 205 737 206 Q745 207 752 207.5 Q759 208 760 208 Q771 164 771 122.5 Q771 81 756.5 49 Q742 17 711 -2.5 Q680 -22 629 -22 Q578 -22 546 -9 Q514 4 495.5 29 Q477 54 469 90 Q461 126 458 172 Q455 214 446 240 Q437 266 421.5 281 Q406 296 385 301 Q364 306 338 306 L289 306 Q289 248 289.5 200.5 Q290 153 292 136 Q294 104 308.5 90 Q323 76 349 76 L390 76 Q390 73 389.5 61.5 Q389 50 389 37 Q389 24 389.5 12.5 Q390 1 390 -2 Q345 -1 307 -1 Q285 -1 271.5 -0.5 Q258 0 245.5 0 Q233 0 223.5 0 Q214 0 211 0 Q186 0 155.5 -0.5 Q125 -1 97 -1 Q65 -1 32 -2 Q32 1 32.5 12.5 Q33 24 33 37.5 Q33 51 32.5 62.5 Q32 74 32 77 L74 77 Q106 77 120.5 90.5 Q135 104 137 136 Q138 149 138.5 182 Q139 215 139 257.5 Q139 300 139 348 Q139 396 139 438.5 Q139 481 138.5 514.5 Q138 548 137 561 Q135 590 124 601.5 Q113 613 86 613 L32 613 Q32 619 32.5 629.5 Q33 640 33 651.5 Q33 663 32.5 673.5 Q32 684 32 690 Q38 690 64 689.5 Q90 689 120.5 689 Q151 689 179.5 688.5 Q208 688 219 688 Q236 688 260 688 Q284 688 309.5 688.5 Q335 689 361 689 Q387 689 408 689 Q534 689 601 642.5 Q668 596 668 504 Q668 467 655 436 Q642 405 619.5 382.5 Q597 360 566 345.5 Q535 331 499 327 Q562 313 588 278 Q614 243 622 187 Z M292 580 Q291 567 290.5 544.5 Q290 522 289.5 493.5 Q289 465 289 432 Q289 399 289 365 L357 365 Q436 365 467 395 Q498 425 498 495 Q498 562 470 591 Q442 620 373 620 L331 620 Q309 620 301 609.5 Q293 599 292 580 Z " />
<glyph glyph-name="S" unicode="S" horiz-adv-x="671" d="M330 636 Q252 636 216.5 609 Q181 582 181 543 Q181 520 191 504 Q201 488 223.5 476.5 Q246 465 281.5 457.5 Q317 450 368 444 Q509 428 574 374 Q639 320 639 213 Q639 103 566 42 Q493 -19 364 -19 Q303 -19 259 -6.5 Q215 6 172 30 Q156 40 144.5 40 Q133 40 126 34 Q119 28 115 17 Q111 6 109 -7 Q107 -7 97 -6.5 Q87 -6 76 -6 Q65 -6 55 -6.5 Q45 -7 43 -7 Q51 47 54 111.5 Q57 176 52 229 Q54 229 63.5 228.5 Q73 228 84.5 228 Q96 228 105.5 228.5 Q115 229 117 229 Q140 141 199.5 97.5 Q259 54 363 54 Q442 54 485 80.5 Q528 107 528 158 Q528 211 478 234.5 Q428 258 318 270 Q190 284 129 337 Q68 390 68 483 Q68 529 83.5 570 Q99 611 130.5 642 Q162 673 210 691 Q258 709 323 709 Q384 709 424.5 696 Q465 683 485 673 Q504 664 515.5 662.5 Q527 661 533.5 665 Q540 669 543 678 Q546 687 548 698 Q550 698 559.5 697.5 Q569 697 580 697 Q591 697 600.5 697.5 Q610 698 612 698 Q607 676 603.5 648 Q600 620 599 590.5 Q598 561 598.5 532 Q599 503 601 480 L539 480 Q516 561 464.5 598.5 Q413 636 330 636 Z " />
<glyph glyph-name="T" unicode="T" horiz-adv-x="722" d="M435 611 Q435 580 434.5 536.5 Q434 493 434 444.5 Q434 396 434 347 Q434 298 434 255.5 Q434 213 434.5 182 Q435 151 436 139 Q438 110 449 93.5 Q460 77 495 77 L546 77 L546 -2 Q512 -1 479 -1 Q448 -1 417 -0.5 Q386 0 361 0 Q336 0 304 -0.5 Q272 -1 244 -1 Q210 -1 176 -2 L176 77 L224 77 Q258 77 271 93.5 Q284 110 286 139 Q287 151 287.5 182 Q288 213 288 255.5 Q288 298 288 347 Q288 396 288 444.5 Q288 493 287.5 536.5 Q287 580 286 611 L222 611 Q168 611 147.5 586 Q127 561 125 517 L121 424 Q118 424 106 424.5 Q94 425 79.5 425 Q65 425 52.5 424.5 Q40 424 37 424 Q38 448 38 484.5 Q38 521 37.5 559 Q37 597 35.5 633.5 Q34 670 32 694 Q58 692 97 691 Q136 690 203 690 L520 690 Q556 690 582 690 Q608 690 627 690.5 Q646 691 660.5 692 Q675 693 689 694 Q687 670 685.5 633.5 Q684 597 683.5 559 Q683 521 683 484.5 Q683 448 684 424 Q681 424 669 424.5 Q657 425 643 425 Q629 425 617 424.5 Q605 424 602 424 L598 517 Q596 561 575.5 586 Q555 611 501 611 L435 611 Z " />
<glyph glyph-name="U" unicode="U" horiz-adv-x="833" d="M123 274 Q123 281 123.5 316 Q124 351 124 395 Q124 439 124 483 Q124 527 123 552 Q122 585 110.5 599 Q99 613 70 613 L32 613 Q32 616 32.5 627.5 Q33 639 33 651.5 Q33 664 32.5 675.5 Q32 687 32 690 Q64 689 96 689 Q125 688 154 687.5 Q183 687 207 687 Q231 687 259 687.5 Q287 688 313 688.5 Q339 689 358.5 689.5 Q378 690 384 690 L384 613 L342 613 Q313 613 298 600 Q283 587 283 552 Q283 527 282.5 482.5 Q282 438 282 393.5 Q282 349 282.5 313.5 Q283 278 283 271 Q286 160 325 115.5 Q364 71 443 71 Q482 71 512.5 81 Q543 91 563 114 Q583 137 594 175.5 Q605 214 605 271 Q606 332 606.5 405 Q607 478 605 552 Q604 613 547 613 L506 613 L506 690 Q533 689 559 689 Q584 688 608.5 687.5 Q633 687 653 687 Q673 687 696.5 687.5 Q720 688 741 688.5 Q762 689 778.5 689.5 Q795 690 801 690 L801 613 L763 613 Q735 613 722.5 597.5 Q710 582 709 552 Q707 474 708 403.5 Q709 333 709 275 Q709 123 637.5 50.5 Q566 -22 426 -22 Q273 -22 198 47.5 Q123 117 123 274 Z " />
<glyph glyph-name="V" unicode="V" horiz-adv-x="784" d="M298 530 Q308 495 323 443.5 Q338 392 354.5 336.5 Q371 281 388 227 Q405 173 418 133 Q434 175 453 229.5 Q472 284 491 339 Q510 394 525.5 444.5 Q541 495 549 529 Q560 571 552 592 Q544 613 504 613 L476 613 Q476 616 476.5 627.5 Q477 639 477 651.5 Q477 664 476.5 675.5 Q476 687 476 690 Q504 689 531 689 Q556 688 581 687.5 Q606 687 625 687 Q644 687 666 687.5 Q688 688 708.5 688.5 Q729 689 744.5 689.5 Q760 690 766 690 Q766 687 765.5 675.5 Q765 664 765 651.5 Q765 639 765.5 627.5 Q766 616 766 613 L742 613 Q702 613 681 596.5 Q660 580 640 533 Q622 489 595.5 419 Q569 349 541 272 Q513 195 487.5 120.5 Q462 46 446 -6 L303 -6 Q289 44 266 119.5 Q243 195 218 274 Q193 353 169.5 425 Q146 497 130 541 Q123 561 116 574.5 Q109 588 99 596.5 Q89 605 75 609 Q61 613 40 613 L19 613 L19 690 Q52 689 84 689 Q114 688 143.5 687.5 Q173 687 197 687 Q221 687 250 687.5 Q279 688 305 688.5 Q331 689 350.5 689.5 Q370 690 376 690 L376 613 L343 613 Q313 613 300 594 Q287 575 298 530 Z " />
<glyph glyph-name="W" unicode="W" horiz-adv-x="1122" d="M678 -6 Q670 27 654.5 84 Q639 141 621 205 Q603 269 585.5 332 Q568 395 554 439 Q539 395 520 332 Q501 269 482 205 Q463 141 447 84 Q431 27 422 -6 L284 -6 Q271 47 250 123.5 Q229 200 207 279.5 Q185 359 164.5 431 Q144 503 131 546 Q120 581 104.5 597 Q89 613 54 613 L19 613 L19 690 Q52 689 84 689 Q113 688 142.5 687.5 Q172 687 196 687 Q220 687 248.5 687.5 Q277 688 303 688.5 Q329 689 348 689.5 Q367 690 372 690 L372 613 L339 613 Q307 613 298 597.5 Q289 582 297 546 Q305 513 318.5 461 Q332 409 347.5 352.5 Q363 296 378.5 241.5 Q394 187 406 148 Q418 187 434.5 241.5 Q451 296 467 352.5 Q483 409 497 461 Q511 513 518 546 Q526 582 517.5 597.5 Q509 613 474 613 L455 613 Q455 616 455.5 627.5 Q456 639 456 651.5 Q456 664 455.5 675.5 Q455 687 455 690 Q483 689 510 689 Q535 688 560.5 687.5 Q586 687 606 687 Q627 687 651 687.5 Q675 688 697 688.5 Q719 689 735.5 689.5 Q752 690 757 690 L757 613 L728 613 Q673 613 689 550 Q697 516 711 463.5 Q725 411 741 353.5 Q757 296 772.5 240.5 Q788 185 800 146 Q811 184 826 238 Q841 292 856 348 Q871 404 883.5 455 Q896 506 902 538 Q909 575 901 594 Q893 613 854 613 L836 613 L836 690 Q861 689 886 689 Q909 688 931.5 687.5 Q954 687 972 687 Q990 687 1010.5 687.5 Q1031 688 1050 688.5 Q1069 689 1083.5 689.5 Q1098 690 1103 690 L1103 613 L1069 613 Q1034 613 1015 597.5 Q996 582 982 537 Q974 512 961 469 Q948 426 933 374 Q918 322 901.5 265.5 Q885 209 870 157 Q855 105 843.5 62 Q832 19 825 -6 L678 -6 Z " />
<glyph glyph-name="X" unicode="X" horiz-adv-x="820" d="M362 284 Q341 253 319 219 Q297 185 284 166 Q256 124 266 100.5 Q276 77 304 77 L333 77 L333 -2 Q304 -1 277 -1 Q251 -1 226 -0.5 Q201 0 181 0 Q161 0 135 -0.5 Q109 -1 86 -1 Q59 -1 32 -2 Q32 1 32.5 12.5 Q33 24 33 37.5 Q33 51 32.5 62.5 Q32 74 32 77 L53 77 Q85 77 110.5 84 Q136 91 157 105 Q178 119 196.5 139.5 Q215 160 233 187 Q241 199 253.5 217.5 Q266 236 280 256.5 Q294 277 307 297 Q320 317 330 333 Q292 390 254.5 445.5 Q217 501 191 539 Q165 577 138 595 Q111 613 67 613 L42 613 Q42 616 42.5 627.5 Q43 639 43 651.5 Q43 664 42.5 675.5 Q42 687 42 690 Q45 690 68 689.5 Q91 689 122.5 689 Q154 689 188.5 688.5 Q223 688 248 688 Q275 688 307.5 688.5 Q340 689 369 689 Q402 689 436 690 Q436 687 435.5 675.5 Q435 664 435 651.5 Q435 639 435.5 627.5 Q436 616 436 613 L415 613 Q383 613 372 590.5 Q361 568 382 532 Q397 506 420 471 Q443 436 469 396 Q481 413 493.5 432 Q506 451 517.5 469 Q529 487 538.5 503.5 Q548 520 553 530 Q571 570 563 591.5 Q555 613 525 613 L502 613 L502 690 Q527 689 552 689 Q575 689 598 688.5 Q621 688 640 688 Q655 688 678.5 688.5 Q702 689 724 689 Q750 689 778 690 Q778 687 777.5 675.5 Q777 664 777 651.5 Q777 639 777.5 627.5 Q778 616 778 613 L755 613 Q724 613 704 607.5 Q684 602 669 591.5 Q654 581 641.5 564.5 Q629 548 614 526 Q604 512 589 489 Q574 466 558 441 Q542 416 526.5 391.5 Q511 367 499 349 Q537 291 574.5 237 Q612 183 636 148 Q662 110 688.5 93.5 Q715 77 754 77 L787 77 L787 -2 Q750 -1 714 -1 Q681 -1 648 -0.5 Q615 0 587 0 Q560 0 526.5 -0.5 Q493 -1 464 -1 Q430 -1 395 -2 Q395 1 395.5 12.5 Q396 24 396 37.5 Q396 51 395.5 62.5 Q395 74 395 77 L422 77 Q448 77 458.5 98 Q469 119 442 161 L362 284 Z " />
<glyph glyph-name="Y" unicode="Y" horiz-adv-x="824" d="M645 541 Q630 516 609 477 Q588 438 565 395.5 Q542 353 520 311 Q498 269 482 238 L482 130 Q482 101 492 88.5 Q502 76 541 76 L599 76 L599 -2 Q562 -1 527 -1 Q494 -1 461 -0.5 Q428 0 401 0 Q374 0 339.5 -0.5 Q305 -1 275 -1 Q239 -1 202 -2 L202 76 L260 76 Q280 76 291.5 79 Q303 82 308.5 88.5 Q314 95 315.5 105.5 Q317 116 317 130 L317 236 Q301 268 278.5 312 Q256 356 232.5 400.5 Q209 445 187.5 485 Q166 525 151 550 Q131 583 105.5 598 Q80 613 35 613 L19 613 L19 690 Q56 689 92 689 Q124 688 157.5 687.5 Q191 687 218 687 Q245 687 279 687.5 Q313 688 344 689 Q379 689 416 690 L416 613 L375 613 Q336 613 326.5 593 Q317 573 333 537 Q344 514 359.5 484 Q375 454 391.5 423 Q408 392 424 364 Q440 336 452 316 Q464 338 479 366.5 Q494 395 509.5 425.5 Q525 456 539 485 Q553 514 563 537 Q570 553 573.5 567 Q577 581 574 591 Q571 601 559.5 607 Q548 613 526 613 L495 613 L495 690 Q524 689 552 689 Q578 688 604 687.5 Q630 687 651 687 Q672 687 698.5 687.5 Q725 688 749 689 Q776 689 805 690 L805 613 L782 613 Q751 613 729.5 609 Q708 605 693 596 Q678 587 667 573.5 Q656 560 645 541 Z " />
<glyph glyph-name="Z" unicode="Z" horiz-adv-x="669" d="M32 0 Q32 3 32.5 13.5 Q33 24 33 37 Q33 50 32.5 60.5 Q32 71 32 74 Q70 121 123 190.5 Q176 260 232.5 335 Q289 410 343.5 483.5 Q398 557 440 613 L308 613 Q254 613 220 607 Q186 601 166.5 581 Q147 561 139.5 523.5 Q132 486 132 424 Q129 424 118 424.5 Q107 425 93.5 425 Q80 425 69 424.5 Q58 424 55 424 Q57 446 57.5 482.5 Q58 519 58.5 558.5 Q59 598 58.5 634 Q58 670 57 692 Q99 690 156 690 Q213 690 270 690 L630 690 L630 615 Q593 568 540.5 499.5 Q488 431 432 356.5 Q376 282 321 208.5 Q266 135 223 77 L403 77 Q447 77 477 85.5 Q507 94 525.5 116 Q544 138 552 175.5 Q560 213 560 271 L637 271 Q636 247 635 210.5 Q634 174 633.5 134.5 Q633 95 633.5 58 Q634 21 635 -3 Q584 -1 533.5 -0.5 Q483 0 440 0 L32 0 Z " />
<glyph glyph-name="bracketleft" unicode="&#x5b;" horiz-adv-x="300" d="M65 512 Q65 549 63 592 Q61 635 58.5 675.5 Q56 716 53 749.5 Q50 783 48 800 Q67 799 94.5 799 Q122 799 151 799 Q180 799 208 799 Q236 799 255 800 Q255 798 254.5 789 Q254 780 254 769.5 Q254 759 254.5 750 Q255 741 255 739 L223 739 Q196 739 184.5 728.5 Q173 718 171 690 Q171 683 170.5 648 Q170 613 170 560 Q170 507 170 441 Q170 375 170 306.5 Q170 238 170 172 Q170 106 170 53 Q170 0 170.5 -35 Q171 -70 171 -77 Q173 -105 184 -115.5 Q195 -126 230 -126 L255 -126 Q255 -128 254.5 -137 Q254 -146 254 -156.5 Q254 -167 254.5 -176 Q255 -185 255 -187 Q236 -186 208 -186 Q180 -186 151 -186 Q122 -186 94.5 -186 Q67 -186 48 -187 Q50 -170 53 -129.5 Q56 -89 58.5 -40 Q61 9 63 59.5 Q65 110 65 147 L65 512 Z " />
<glyph glyph-name="backslash" unicode="&#x5c;" horiz-adv-x="383" d="M275 -178 Q260 -126 239.5 -56 Q219 14 195.5 93.5 Q172 173 147 256 Q122 339 98 418.5 Q74 498 52 568 Q30 638 14 690 Q22 689 34.5 689 Q47 689 61 689 Q75 689 87.5 689 Q100 689 108 690 Q123 638 143.5 568 Q164 498 187.5 418.5 Q211 339 236 256 Q261 173 285 93.5 Q309 14 330.5 -56 Q352 -126 369 -178 Q363 -177 349.5 -177 Q336 -177 322 -177 Q308 -177 294.5 -177 Q281 -177 275 -178 Z " />
<glyph glyph-name="bracketright" unicode="&#x5d;" horiz-adv-x="300" d="M236 109 Q236 71 238 26.5 Q240 -18 243 -59.5 Q246 -101 249 -135 Q252 -169 254 -187 L46 -187 Q46 -185 46.5 -176 Q47 -167 47 -156.5 Q47 -146 46.5 -137 Q46 -128 46 -126 L71 -126 Q106 -126 118 -115.5 Q130 -105 130 -77 Q130 -75 130 -41.5 Q130 -8 130.5 45.5 Q131 99 131 167.5 Q131 236 131 306.5 Q131 377 131 445.5 Q131 514 130.5 567.5 Q130 621 130 654.5 Q130 688 130 690 Q130 718 117.5 728.5 Q105 739 78 739 L46 739 L46 800 L254 800 Q252 783 249 749 Q246 715 243 673.5 Q240 632 238 587.5 Q236 543 236 505 L236 109 Z " />
<glyph glyph-name="asciicircum" unicode="&#x5e;" horiz-adv-x="600" d="M302 710 Q317 692 345 652.5 Q373 613 404 569.5 Q435 526 461.5 487.5 Q488 449 500 431 L447 398 Q436 413 415 447.5 Q394 482 371.5 523 Q349 564 327.5 605 Q306 646 293 673 Q280 646 259 605.5 Q238 565 215.5 524.5 Q193 484 172.5 449.5 Q152 415 138 398 L86 431 Q101 454 128.5 493.5 Q156 533 185.5 575 Q215 617 242 654.5 Q269 692 284 710 L302 710 Z " />
<glyph glyph-name="underscore" unicode="&#x5f;" horiz-adv-x="500" d="M0 -192 Q0 -185 0.5 -173.5 Q1 -162 1 -149.5 Q1 -137 0.5 -125.5 Q0 -114 0 -106 Q27 -107 66.5 -107 Q106 -107 153 -107 Q200 -107 250 -107.5 Q300 -108 347 -107.5 Q394 -107 434 -107 Q474 -107 500 -106 Q499 -122 499 -149 Q499 -176 500 -192 Q474 -192 434 -191.5 Q394 -191 347 -191 Q300 -191 250 -191 Q200 -191 153 -191 Q106 -191 66 -191.5 Q26 -192 0 -192 Z " />
<glyph glyph-name="grave" unicode="&#x60;" horiz-adv-x="532" d="M364 524 Q344 531 322 540.5 Q300 550 278 561 Q256 572 236.5 583 Q217 594 202 604 Q182 618 178.5 634 Q175 650 183.5 661 Q192 672 209 675 Q226 678 247 665 Q261 655 277 640 Q293 625 309.5 607.5 Q326 590 342 571.5 Q358 553 372 535 L364 524 Z " />
<glyph glyph-name="a" unicode="a" horiz-adv-x="541" d="M434 115 Q434 80 439.5 69 Q445 58 456 58 Q472 58 478.5 87 Q485 116 482 170 L521 172 Q523 129 519.5 94 Q516 59 504 35 Q492 11 470 -2 Q448 -15 413 -15 Q362 -15 336.5 7.5 Q311 30 303 67 Q283 32 248.5 9 Q214 -14 160 -14 Q94 -14 59.5 16.5 Q25 47 25 105 Q25 149 49 178 Q73 207 111.5 225 Q150 243 199 252 Q248 261 299 264 L299 300 Q299 331 295 354.5 Q291 378 279.5 393.5 Q268 409 248 417 Q228 425 195 425 Q178 425 165 423 Q152 421 141 418 Q165 413 178 396.5 Q191 380 191 356 Q191 325 171.5 307.5 Q152 290 117 290 Q84 290 64 308 Q44 326 44 361 Q44 390 60.5 412 Q77 434 105 448.5 Q133 463 168.5 470.5 Q204 478 241 478 Q298 478 335 464.5 Q372 451 394 426 Q416 401 425 365.5 Q434 330 434 286 L434 115 Z M224 59 Q252 59 271 74 Q290 89 299 123 L299 234 Q240 228 205 202.5 Q170 177 170 125 Q170 90 184.5 74.5 Q199 59 224 59 Z " />
<glyph glyph-name="b" unicode="b" horiz-adv-x="587" d="M368 -17 Q311 -17 267.5 11 Q224 39 205 108 Q188 84 175 52.5 Q162 21 159 -8 L80 -8 Q85 31 86.5 70 Q88 109 90 141 Q91 155 91 186.5 Q91 218 91 259.5 Q91 301 91 348 Q91 395 91 439 Q91 483 90.5 520 Q90 557 89 578 Q88 604 78.5 614.5 Q69 625 48 625 L18 625 L18 689 Q35 689 64 689 Q93 689 124.5 689.5 Q156 690 184 690.5 Q212 691 227 692 Q225 616 225 553.5 Q225 491 225 432 L225 371 Q261 478 376 478 Q458 478 502.5 420.5 Q547 363 547 229 Q547 100 500.5 41.5 Q454 -17 368 -17 Z M225 231 Q225 192 229 160 Q233 128 243.5 105.5 Q254 83 272 70.5 Q290 58 318 58 Q339 58 354.5 65 Q370 72 381 90.5 Q392 109 397.5 143 Q403 177 403 231 Q403 269 400.5 300.5 Q398 332 389.5 355 Q381 378 364.5 391 Q348 404 320 404 Q275 404 250 362.5 Q225 321 225 231 Z " />
<glyph glyph-name="c" unicode="c" horiz-adv-x="494" d="M382 146 Q386 146 398 144.5 Q410 143 423.5 141.5 Q437 140 449.5 138.5 Q462 137 466 137 Q454 66 403 24.5 Q352 -17 261 -17 Q149 -17 91 45.5 Q33 108 33 226 Q33 344 96 411 Q159 478 272 478 Q312 478 345.5 469.5 Q379 461 403 445.5 Q427 430 440.5 407.5 Q454 385 454 357 Q454 322 433.5 302 Q413 282 376 282 Q340 282 320 300 Q300 318 300 349 Q300 369 309.5 385.5 Q319 402 339 410 Q326 415 311.5 418.5 Q297 422 279 422 Q225 422 201 380.5 Q177 339 177 235 Q177 183 182.5 148.5 Q188 114 199.5 93 Q211 72 229.5 63.5 Q248 55 274 55 Q329 55 351 80 Q373 105 382 146 Z " />
<glyph glyph-name="d" unicode="d" horiz-adv-x="588" d="M219 478 Q327 478 362 377 L362 577 Q362 626 319 626 L280 626 L280 690 Q299 690 329 690 Q359 690 391 690.5 Q423 691 452 691.5 Q481 692 498 693 Q498 661 497.5 611.5 Q497 562 497 504.5 Q497 447 496.5 386.5 Q496 326 496.5 272 Q497 218 497 175.5 Q497 133 498 112 Q499 65 541 65 L570 65 L570 0 L362 -3 L362 93 Q324 -17 215 -17 Q129 -17 84.5 40 Q40 97 40 232 Q40 298 52.5 344.5 Q65 391 88.5 420.5 Q112 450 145 464 Q178 478 219 478 Z M267 58 Q313 58 337.5 99.5 Q362 141 362 231 Q362 320 342 362 Q322 404 272 404 Q249 404 232.5 397 Q216 390 205 371 Q194 352 189 318.5 Q184 285 184 232 Q184 194 186.5 162 Q189 130 197.5 107 Q206 84 222.5 71 Q239 58 267 58 Z " />
<glyph glyph-name="e" unicode="e" horiz-adv-x="511" d="M388 144 Q392 144 404 142.5 Q416 141 429.5 139.5 Q443 138 455 136.5 Q467 135 471 135 Q458 64 407.5 22.5 Q357 -19 264 -19 Q154 -19 93.5 43 Q33 105 33 226 Q33 287 50 334 Q67 381 98 413 Q129 445 171.5 461.5 Q214 478 265 478 Q324 478 365.5 458 Q407 438 432.5 402.5 Q458 367 468.5 318 Q479 269 475 210 L175 210 Q177 123 202.5 88 Q228 53 281 53 Q333 53 356.5 77.5 Q380 102 388 144 Z M260 413 Q220 413 198.5 377 Q177 341 175 248 L308 248 Q320 248 325.5 252.5 Q331 257 331 277 Q331 347 314 380 Q297 413 260 413 Z " />
<glyph glyph-name="f" unicode="f" horiz-adv-x="346" d="M90 461 L90 477 Q86 592 133 644 Q180 696 273 696 Q342 696 379.5 664 Q417 632 417 586 Q417 554 399 536.5 Q381 519 350 519 Q321 519 303.5 534.5 Q286 550 286 577 Q286 605 303.5 620 Q321 635 351 635 Q354 635 358 635 Q360 634 361 634 Q351 643 337 648.5 Q323 654 305 654 Q261 654 239.5 623.5 Q218 593 223 511 L226 461 L299 464 L299 400 L224 402 Q224 366 223.5 323 Q223 280 223.5 239 Q224 198 224.5 163.5 Q225 129 226 111 Q227 90 235.5 77.5 Q244 65 268 65 L298 65 L298 -3 Q293 -3 277.5 -2.5 Q262 -2 242 -1.5 Q222 -1 199.5 -0.5 Q177 0 158 0 Q139 0 116 -0.5 Q93 -1 72 -1.5 Q51 -2 36 -2.5 Q21 -3 18 -3 L18 65 L47 65 Q69 65 78.5 77.5 Q88 90 90 111 Q91 129 91.5 163 Q92 197 92 237.5 Q92 278 91.5 321.5 Q91 365 91 402 L25 400 Q25 402 25.5 411.5 Q26 421 26 432 Q26 443 25.5 452.5 Q25 462 25 464 L90 461 Z " />
<glyph glyph-name="g" unicode="g" horiz-adv-x="515" d="M225 478 Q285 478 327 463 Q336 498 360 524.5 Q384 551 426 551 Q464 551 485.5 531 Q507 511 507 476 Q507 447 493 431 Q479 415 453 415 Q427 415 412.5 428.5 Q398 442 398 466 Q398 488 413 503 Q391 500 376.5 485.5 Q362 471 354 450 Q428 409 428 306 Q428 263 412.5 229.5 Q397 196 369.5 174 Q342 152 305 140.5 Q268 129 225 129 Q211 129 197.5 130 Q184 131 172 133 Q126 130 126 110 Q126 103 131 97.5 Q136 92 151 88 Q166 84 195 81.5 Q224 79 272 78 Q338 77 380.5 68 Q423 59 447.5 43 Q472 27 481.5 3.5 Q491 -20 491 -50 Q491 -79 476 -107 Q461 -135 430.5 -156.5 Q400 -178 352.5 -191.5 Q305 -205 239 -205 Q115 -205 62.5 -176.5 Q10 -148 10 -101 Q10 -70 35.5 -50.5 Q61 -31 96 -21 Q66 -9 53 10 Q40 29 40 56 Q40 95 66.5 116 Q93 137 129 145 Q80 165 52.5 205 Q25 245 25 306 Q25 349 41 381.5 Q57 414 84 435.5 Q111 457 147.5 467.5 Q184 478 225 478 Z M238 -42 Q212 -41 191 -39.5 Q170 -38 152 -35 Q126 -41 105.5 -53 Q85 -65 85 -88 Q85 -100 92.5 -111 Q100 -122 118 -131 Q136 -140 165.5 -145 Q195 -150 238 -150 Q335 -150 377 -132.5 Q419 -115 419 -89 Q419 -78 410.5 -69.5 Q402 -61 381.5 -55.5 Q361 -50 326 -46.5 Q291 -43 238 -42 Z M227 422 Q189 422 174 395.5 Q159 369 159 305 Q159 238 174 212 Q189 186 227 186 Q266 186 279.5 212.5 Q293 239 293 305 Q293 371 278.5 396.5 Q264 422 227 422 Z " />
<glyph glyph-name="h" unicode="h" horiz-adv-x="625" d="M536 292 Q535 248 535 202.5 Q535 157 536 128 Q538 93 548.5 78.5 Q559 64 591 64 L603 64 L603 -3 Q599 -3 584 -2.5 Q569 -2 549 -1.5 Q529 -1 507.5 -0.5 Q486 0 468 0 Q450 0 427 -0.5 Q404 -1 384 -1.5 Q364 -2 349 -2.5 Q334 -3 332 -3 L332 64 L348 64 Q376 64 387 78 Q398 92 400 127 Q403 198 400 283 Q398 340 381.5 372 Q365 404 321 404 Q268 404 247 355.5 Q226 307 226 217 L226 121 Q226 86 238 75 Q250 64 279 64 L296 64 L296 -3 Q292 -3 276.5 -2.5 Q261 -2 241 -1.5 Q221 -1 198.5 -0.5 Q176 0 158 0 Q139 0 116 -0.5 Q93 -1 72 -1.5 Q51 -2 36 -2.5 Q21 -3 18 -3 L18 64 L37 64 Q68 65 78 75 Q88 85 90 120 Q91 128 91 162 Q91 196 91 243.5 Q91 291 91.5 344.5 Q92 398 91.5 445 Q91 492 91 526.5 Q91 561 90 570 Q88 601 79 613.5 Q70 626 34 626 L19 626 L19 690 Q37 690 66.5 690 Q96 690 127 690.5 Q158 691 186 691.5 Q214 692 229 693 Q227 641 226.5 593.5 Q226 546 226 486 L226 368 Q263 478 380 478 Q465 478 501.5 427 Q538 376 536 292 Z " />
<glyph glyph-name="i" unicode="i" horiz-adv-x="316" d="M226 467 Q226 463 225.5 438.5 Q225 414 225 379.5 Q225 345 225 305 Q225 265 225 228 Q225 191 225.5 162 Q226 133 226 121 Q228 85 240 74.5 Q252 64 281 64 L299 64 L299 -3 Q294 -3 278.5 -2.5 Q263 -2 243 -1.5 Q223 -1 200.5 -0.5 Q178 0 159 0 Q140 0 116.5 -0.5 Q93 -1 72 -1.5 Q51 -2 36 -2.5 Q21 -3 18 -3 L18 64 L37 64 Q68 65 78 75 Q88 85 90 120 Q91 137 91.5 169 Q92 201 92 235.5 Q92 270 91.5 300.5 Q91 331 90 346 Q88 375 78.5 387.5 Q69 400 34 400 L18 400 L18 464 Q37 464 66 464 Q95 464 125 464.5 Q155 465 182.5 465.5 Q210 466 226 467 Z M233 626 Q233 589 210 566.5 Q187 544 151 544 Q116 544 93.5 566.5 Q71 589 71 626 Q71 661 93.5 684 Q116 707 151 707 Q187 707 210 684 Q233 661 233 626 Z " />
<glyph glyph-name="j" unicode="j" horiz-adv-x="300" d="M63 -93 Q63 -103 58.5 -114 Q54 -125 45 -134 Q36 -143 22 -148 Q8 -153 -12 -151 Q6 -163 35 -163 Q70 -163 88 -139.5 Q106 -116 109 -47 Q110 -32 110.5 1.5 Q111 35 111 76.5 Q111 118 111 162.5 Q111 207 111 246 Q111 285 110.5 313.5 Q110 342 110 350 Q108 373 96.5 386.5 Q85 400 60 400 L38 400 L38 464 Q55 464 84.5 464 Q114 464 145.5 464.5 Q177 465 205.5 465.5 Q234 466 249 467 Q248 454 247.5 432.5 Q247 411 246.5 388 Q246 365 246 343.5 Q246 322 246 307 L246 7 Q246 -102 199 -151.5 Q152 -201 67 -201 Q4 -201 -33 -175.5 Q-70 -150 -70 -103 Q-70 -70 -52 -51.5 Q-34 -33 -2 -33 Q28 -33 45.5 -49 Q63 -65 63 -93 Z M253 626 Q253 590 230 567 Q207 544 171 544 Q136 544 113.5 567 Q91 590 91 626 Q91 661 113.5 684 Q136 707 171 707 Q207 707 230 684 Q253 661 253 626 Z " />
<glyph glyph-name="k" unicode="k" horiz-adv-x="624" d="M226 692 Q225 665 224.5 611 Q224 557 224 493 Q224 429 224 362 Q224 295 224 241 L352 342 Q380 363 373 381.5 Q366 400 336 400 L318 400 L318 465 Q343 464 368 464 Q391 463 414 462.5 Q437 462 456 462 Q475 462 497.5 462.5 Q520 463 540.5 463.5 Q561 464 576 464.5 Q591 465 594 465 Q594 462 593.5 452.5 Q593 443 593 432 Q593 421 593.5 411.5 Q594 402 594 400 L575 400 Q552 400 534 396.5 Q516 393 498.5 385 Q481 377 461 364 Q441 351 413 331 L378 307 Q390 288 406 262 Q422 236 438.5 210.5 Q455 185 470 162.5 Q485 140 495 127 Q519 97 540 80.5 Q561 64 593 64 L603 64 L603 -3 Q599 -3 583 -2.5 Q567 -2 546 -1.5 Q525 -1 502 -0.5 Q479 0 459 0 Q440 0 416 -0.5 Q392 -1 371 -1.5 Q350 -2 334.5 -2.5 Q319 -3 316 -3 L316 65 L330 65 Q353 65 355.5 82 Q358 99 341 128 Q327 151 308 180 Q289 209 271 232 L225 200 Q225 174 225 158 Q225 142 226 128 Q228 92 239.5 78 Q251 64 277 64 L292 64 L292 -3 Q288 -3 273 -2.5 Q258 -2 238 -1.5 Q218 -1 196 -0.5 Q174 0 156 0 Q137 0 114 -0.5 Q91 -1 70.5 -1.5 Q50 -2 35.5 -2.5 Q21 -3 18 -3 L18 64 L37 64 Q68 65 78 78.5 Q88 92 90 127 Q91 138 91 172 Q91 206 91 251 Q91 296 91.5 346.5 Q92 397 91.5 442 Q91 487 91 520 Q91 553 90 563 Q88 593 79 609.5 Q70 626 35 626 L19 626 L19 690 Q36 690 65 690 Q94 690 125 690.5 Q156 691 183.5 691.5 Q211 692 226 692 Z " />
<glyph glyph-name="l" unicode="l" horiz-adv-x="315" d="M226 693 Q226 684 225.5 642 Q225 600 225 541 Q225 482 225 415 Q225 348 225 288 Q225 228 225.5 184 Q226 140 226 128 Q228 92 239.5 78 Q251 64 281 64 L299 64 L299 -3 Q294 -3 278.5 -2.5 Q263 -2 243 -1.5 Q223 -1 200.5 -0.5 Q178 0 159 0 Q140 0 116.5 -0.5 Q93 -1 72 -1.5 Q51 -2 36 -2.5 Q21 -3 18 -3 L18 64 L37 64 Q68 65 78 78.5 Q88 92 90 127 Q91 139 91 173 Q91 207 91 252.5 Q91 298 91.5 348.5 Q92 399 91.5 443.5 Q91 488 91 521 Q91 554 90 564 Q88 593 78.5 609.5 Q69 626 34 626 L19 626 L19 690 Q36 690 65 690 Q94 690 125 690.5 Q156 691 183.5 691.5 Q211 692 226 693 Z " />
<glyph glyph-name="m" unicode="m" horiz-adv-x="936" d="M846 292 Q846 256 846 225 Q846 195 846 169 Q846 143 846 128 Q848 93 859 78.5 Q870 64 902 64 L918 64 L918 -3 Q914 -3 898.5 -2.5 Q883 -2 863 -1.5 Q843 -1 821 -0.5 Q799 0 780 0 Q762 0 739 -0.5 Q716 -1 695 -1.5 Q674 -2 659 -2.5 Q644 -3 642 -3 L642 64 L658 64 Q686 64 697 78.5 Q708 93 710 127 Q712 162 712 203.5 Q712 245 710 283 Q708 340 691.5 372 Q675 404 631 404 Q576 404 556 353.5 Q536 303 536 217 L536 128 Q536 93 547 78.5 Q558 64 590 64 L606 64 Q606 58 605.5 48 Q605 38 605 27.5 Q605 17 605.5 8.5 Q606 0 606 -3 Q602 -3 586.5 -2.5 Q571 -2 551 -1.5 Q531 -1 509 -0.5 Q487 0 469 0 Q451 0 428 -0.5 Q405 -1 384.5 -1.5 Q364 -2 349 -2.5 Q334 -3 332 -3 L332 64 L348 64 Q375 64 386.5 78 Q398 92 400 127 Q403 201 400 283 Q398 340 381.5 372 Q365 404 321 404 Q273 404 248.5 360 Q224 316 225 217 L226 128 Q227 92 238.5 78 Q250 64 279 64 L296 64 L296 -3 Q292 -3 276.5 -2.5 Q261 -2 241 -1.5 Q221 -1 198.5 -0.5 Q176 0 158 0 Q139 0 116 -0.5 Q93 -1 72 -1.5 Q51 -2 36 -2.5 Q21 -3 18 -3 L18 64 L37 64 Q68 65 77.5 78.5 Q87 92 90 127 Q92 145 92 175 Q92 205 92 236.5 Q92 268 91.5 296 Q91 324 90 339 Q88 368 79 384 Q70 400 34 400 L19 400 L19 464 Q36 464 65 464 Q94 464 125 464.5 Q156 465 183.5 465.5 Q211 466 226 467 L226 373 Q246 427 284.5 452.5 Q323 478 380 478 Q449 478 484.5 444.5 Q520 411 531 354 Q548 418 587.5 448 Q627 478 690 478 Q776 478 812 427 Q848 376 846 292 Z " />
<glyph glyph-name="n" unicode="n" horiz-adv-x="626" d="M536 292 Q535 248 535 202.5 Q535 157 536 128 Q538 92 549 78 Q560 64 592 64 L605 64 Q605 58 604.5 48 Q604 38 604 27.5 Q604 17 604.5 8.5 Q605 0 605 -3 Q601 -3 585.5 -2.5 Q570 -2 550 -1.5 Q530 -1 508 -0.5 Q486 0 468 0 Q450 0 427 -0.5 Q404 -1 384 -1.5 Q364 -2 349 -2.5 Q334 -3 332 -3 L332 64 L348 64 Q375 64 386.5 78 Q398 92 400 127 Q403 198 400 283 Q398 340 381.5 372 Q365 404 321 404 Q268 404 247 357.5 Q226 311 226 217 L226 128 Q226 92 238 78 Q250 64 279 64 L296 64 L296 -3 Q292 -3 276.5 -2.5 Q261 -2 241 -1.5 Q221 -1 198.5 -0.5 Q176 0 158 0 Q139 0 116 -0.5 Q93 -1 72 -1.5 Q51 -2 36 -2.5 Q21 -3 18 -3 L18 64 L37 64 Q68 65 78 78.5 Q88 92 90 127 Q91 147 91.5 177 Q92 207 92 238.5 Q92 270 91.5 297.5 Q91 325 90 339 Q88 368 79 384 Q70 400 34 400 L19 400 L19 464 Q36 464 65 464 Q94 464 125 464.5 Q156 465 183.5 465.5 Q211 466 226 467 L226 367 Q245 424 283.5 451 Q322 478 380 478 Q466 478 502 427 Q538 376 536 292 Z " />
<glyph glyph-name="o" unicode="o" horiz-adv-x="539" d="M35 226 Q35 291 52 338 Q69 385 99.5 416.5 Q130 448 173.5 463 Q217 478 270 478 Q323 478 366.5 463 Q410 448 441 417 Q472 386 488.5 338.5 Q505 291 505 226 Q505 165 488 119 Q471 73 440.5 42 Q410 11 366.5 -4 Q323 -19 270 -19 Q162 -19 98.5 42.5 Q35 104 35 226 Z M181 226 Q181 168 187.5 132 Q194 96 205.5 76.5 Q217 57 233.5 50.5 Q250 44 270 44 Q290 44 306 50.5 Q322 57 334 76.5 Q346 96 352.5 132 Q359 168 359 226 Q359 284 352.5 321 Q346 358 334 379 Q322 400 305.5 408 Q289 416 269 416 Q249 416 232.5 408 Q216 400 204.5 379 Q193 358 187 321 Q181 284 181 226 Z " />
<glyph glyph-name="p" unicode="p" horiz-adv-x="588" d="M371 -17 Q261 -17 226 82 L226 -48 Q226 -112 285 -112 L303 -112 Q303 -114 302.5 -124 Q302 -134 302 -145 Q302 -156 302.5 -166 Q303 -176 303 -178 Q298 -178 282.5 -177.5 Q267 -177 246 -177 Q225 -177 202 -176.5 Q179 -176 160 -176 Q141 -176 117.5 -176.5 Q94 -177 72.5 -177 Q51 -177 36 -177.5 Q21 -178 18 -178 L18 -112 L36 -112 Q65 -112 76.5 -96 Q88 -80 90 -48 Q91 -38 91 -8.5 Q91 21 91 60.5 Q91 100 91.5 143.5 Q92 187 91.5 226.5 Q91 266 91 296.5 Q91 327 90 338 Q88 372 76.5 386 Q65 400 33 400 L19 400 L19 464 Q36 464 65 464 Q94 464 125 464.5 Q156 465 183.5 465.5 Q211 466 226 467 L226 368 Q261 478 377 478 Q465 478 506.5 417.5 Q548 357 548 229 Q548 101 502 42 Q456 -17 371 -17 Z M226 231 Q226 192 230 160 Q234 128 244.5 105.5 Q255 83 273 70.5 Q291 58 319 58 Q340 58 356 65 Q372 72 382.5 91 Q393 110 398.5 144 Q404 178 404 231 Q404 269 401.5 300.5 Q399 332 390.5 355 Q382 378 365.5 391 Q349 404 321 404 Q276 404 251 363 Q226 322 226 231 Z " />
<glyph glyph-name="q" unicode="q" horiz-adv-x="584" d="M224 478 Q284 478 323.5 453.5 Q363 429 383 374 Q402 396 417 425.5 Q432 455 438 491 Q441 491 451 490.5 Q461 490 471.5 490 Q482 490 492 490.5 Q502 491 505 491 Q503 474 501 449.5 Q499 425 498 398.5 Q497 372 496 347 Q495 322 495 304 Q494 262 493.5 208.5 Q493 155 493.5 103.5 Q494 52 494.5 8 Q495 -36 496 -60 Q497 -83 506 -97.5 Q515 -112 541 -112 L573 -112 Q573 -117 572.5 -127.5 Q572 -138 572 -148.5 Q572 -159 572.5 -167.5 Q573 -176 573 -178 Q568 -178 552 -177.5 Q536 -177 514 -177 Q492 -177 468.5 -176.5 Q445 -176 425 -176 Q405 -176 380 -176.5 Q355 -177 333 -177 Q311 -177 295 -177.5 Q279 -178 276 -178 Q276 -176 276.5 -167.5 Q277 -159 277 -148.5 Q277 -138 276.5 -127.5 Q276 -117 276 -112 L309 -112 Q333 -112 346.5 -97.5 Q360 -83 360 -60 L360 91 Q323 -17 208 -17 Q120 -17 80 41 Q40 99 40 230 Q40 361 87.5 419.5 Q135 478 224 478 Z M360 230 Q360 310 340.5 356.5 Q321 403 267 403 Q244 403 228 396 Q212 389 202.5 370 Q193 351 188.5 317 Q184 283 184 230 Q184 193 186.5 161.5 Q189 130 197 107 Q205 84 221 71 Q237 58 265 58 Q360 58 360 230 Z " />
<glyph glyph-name="r" unicode="r" horiz-adv-x="452" d="M325 431 Q277 431 252 387.5 Q227 344 227 253 L227 122 Q227 87 239 75.5 Q251 64 283 64 L310 64 Q310 58 309.5 48 Q309 38 309 27.5 Q309 17 309.5 8.5 Q310 0 310 -3 Q305 -3 289 -2.5 Q273 -2 252 -1.5 Q231 -1 207.5 -0.5 Q184 0 164 0 Q145 0 120.5 -0.5 Q96 -1 74.5 -1.5 Q53 -2 37 -2.5 Q21 -3 18 -3 Q18 0 18.5 8.5 Q19 17 19 27.5 Q19 38 18.5 48.5 Q18 59 18 64 L37 64 Q69 65 79.5 76 Q90 87 91 121 Q92 138 92 170 Q92 202 92 236 Q92 270 91.5 300 Q91 330 91 343 Q89 372 79.5 386 Q70 400 35 400 L19 400 Q20 411 20 432 Q20 453 19 464 Q36 464 63 464 Q90 464 118.5 464.5 Q147 465 173 465.5 Q199 466 214 467 L205 355 Q231 478 337 478 Q388 478 415.5 451 Q443 424 443 376 Q443 335 422.5 313 Q402 291 365 291 Q333 291 314.5 308 Q296 325 296 354 Q296 388 319.5 404.5 Q343 421 372 419 Q353 431 325 431 Z " />
<glyph glyph-name="s" unicode="s" horiz-adv-x="466" d="M225 416 Q176 416 156 399 Q136 382 136 362 Q136 349 141 339 Q146 329 160 321.5 Q174 314 198.5 309 Q223 304 263 299 Q358 289 397.5 247.5 Q437 206 437 141 Q437 66 392.5 23.5 Q348 -19 253 -19 Q181 -19 119 24 Q95 41 87 29.5 Q79 18 76 -5 Q67 -4 51.5 -4 Q36 -4 28 -5 Q33 37 35 80.5 Q37 124 34 168 Q43 167 58 167 Q73 167 81 168 Q102 112 142.5 77 Q183 42 246 42 Q292 42 313.5 58.5 Q335 75 335 100 Q335 111 330.5 120.5 Q326 130 313 137.5 Q300 145 277.5 150.5 Q255 156 219 160 Q166 165 130 180 Q94 195 72.5 217 Q51 239 42 265.5 Q33 292 33 320 Q33 355 47 384.5 Q61 414 86.5 435 Q112 456 148 467.5 Q184 479 228 478 Q264 477 288.5 468.5 Q313 460 333 446 Q352 434 358.5 439 Q365 444 370 471 Q378 470 392 470 Q406 470 414 471 Q410 428 409 395.5 Q408 363 409 321 Q400 323 385.5 323 Q371 323 362 321 Q344 376 308 396 Q272 416 225 416 Z " />
<glyph glyph-name="t" unicode="t" horiz-adv-x="338" d="M323 161 Q326 124 323 92 Q320 60 306 36 Q292 12 266.5 -1.5 Q241 -15 199 -15 Q129 -15 97 24.5 Q65 64 66 140 Q66 170 66.5 207 Q67 244 67.5 280.5 Q68 317 68 349 Q68 381 68 401 L16 400 L16 453 Q82 457 116.5 503.5 Q151 550 163 642 L219 642 Q217 624 215 601.5 Q213 579 212 554 Q211 529 210 504.5 Q209 480 209 459 L312 465 Q312 462 311.5 452.5 Q311 443 311 432 Q311 421 311.5 411.5 Q312 402 312 400 L208 401 Q208 373 208 339 Q208 305 208 271.5 Q208 238 208.5 208.5 Q209 179 209 159 Q210 97 218 75.5 Q226 54 246 54 Q269 54 278 79.5 Q287 105 283 160 L323 161 Z " />
<glyph glyph-name="u" unicode="u" horiz-adv-x="618" d="M535 467 Q533 429 532.5 389 Q532 349 531 322 Q531 309 531 282 Q531 255 531 225 Q531 195 531.5 167.5 Q532 140 532 125 Q533 96 544.5 80 Q556 64 583 65 L601 65 L601 0 Q584 0 555.5 0 Q527 0 496.5 -0.5 Q466 -1 438.5 -1.5 Q411 -2 396 -3 L396 91 Q379 40 342.5 10.5 Q306 -19 243 -19 Q211 -19 182 -9.5 Q153 0 131.5 22.5 Q110 45 97.5 81 Q85 117 86 170 Q86 186 86.5 209.5 Q87 233 87 257 Q87 281 87 302.5 Q87 324 86 337 Q85 369 75 384.5 Q65 400 34 400 L17 400 L17 465 Q42 465 64 465 Q83 464 98.5 464 Q114 464 119 464 Q134 464 150.5 464.5 Q167 465 181.5 465.5 Q196 466 207.5 466.5 Q219 467 225 467 Q223 426 222.5 388.5 Q222 351 222 320 L222 180 Q222 140 230.5 115.5 Q239 91 251 77.5 Q263 64 276.5 60 Q290 56 301 56 Q352 56 374 104 Q396 152 396 257 L396 341 Q396 373 381 386.5 Q366 400 325 400 L313 400 L313 465 Q343 465 368 465 Q391 464 409 464 Q427 464 432 464 Q462 464 492.5 464.5 Q523 465 535 467 Z " />
<glyph glyph-name="v" unicode="v" horiz-adv-x="560" d="M535 400 Q520 400 507.5 398 Q495 396 484.5 389 Q474 382 464.5 368 Q455 354 446 331 Q433 297 415 251.5 Q397 206 379 158 Q361 110 344.5 64.5 Q328 19 317 -15 Q312 -15 298.5 -14.5 Q285 -14 270.5 -14 Q256 -14 243 -14.5 Q230 -15 225 -15 Q213 20 196.5 66.5 Q180 113 161.5 161 Q143 209 125.5 254.5 Q108 300 95 333 Q89 349 83.5 361.5 Q78 374 70.5 382.5 Q63 391 51 395.5 Q39 400 19 400 L6 400 L6 465 Q31 464 56 464 Q78 464 100.5 463.5 Q123 463 140 463 Q158 463 184 463.5 Q210 464 234 464 Q262 464 292 465 L292 400 L273 400 Q250 400 239.5 385.5 Q229 371 237 342 Q242 325 250.5 297 Q259 269 269 237 Q279 205 290 173 Q301 141 310 115 Q320 141 331.5 173 Q343 205 354.5 237 Q366 269 375 297 Q384 325 389 342 Q396 365 390.5 382.5 Q385 400 356 400 L334 400 L334 465 Q355 464 375 464 Q393 464 411 463.5 Q429 463 442 463 Q456 463 475 463.5 Q494 464 512 464 Q532 464 554 465 L554 400 L535 400 Z " />
<glyph glyph-name="w" unicode="w" horiz-adv-x="844" d="M501 -15 Q494 12 482 50.5 Q470 89 457 131 Q444 173 430.5 214 Q417 255 406 286 Q395 255 381 214 Q367 173 353.5 131 Q340 89 328 50.5 Q316 12 308 -15 Q304 -15 291 -14.5 Q278 -14 263 -14 Q248 -14 235 -14.5 Q222 -15 217 -15 Q210 10 195 55 Q180 100 163.5 150.5 Q147 201 130.5 250.5 Q114 300 102 333 Q89 370 76 385 Q63 400 28 400 L17 400 L17 465 Q42 464 67 464 Q90 463 112.5 462.5 Q135 462 153 462 Q171 462 195 462.5 Q219 463 240 464 Q265 464 290 465 Q290 462 289.5 452.5 Q289 443 289 432 Q289 421 289.5 411.5 Q290 402 290 400 L279 400 Q260 400 248.5 387.5 Q237 375 245 343 Q250 325 258 296 Q266 267 275.5 234.5 Q285 202 295 170.5 Q305 139 313 116 Q321 139 331.5 169 Q342 199 352 230 Q362 261 370 289 Q378 317 382 335 Q387 361 381.5 380.5 Q376 400 344 400 L330 400 L330 465 Q351 464 372 464 Q392 463 412 462.5 Q432 462 450 462 Q468 462 489 462.5 Q510 463 529 464 Q551 464 573 465 L573 400 L562 400 Q537 400 529 384.5 Q521 369 528 343 Q532 326 540 297.5 Q548 269 557.5 237 Q567 205 577 173 Q587 141 595 117 Q603 140 613 171 Q623 202 632 232.5 Q641 263 649 290.5 Q657 318 661 334 Q669 364 663 382 Q657 400 629 400 L613 400 L613 465 Q634 464 653 464 Q671 463 689 462.5 Q707 462 720 462 Q733 462 751.5 462.5 Q770 463 787 464 Q806 464 827 465 L827 400 L807 400 Q772 400 753 384 Q734 368 717 322 Q705 290 688.5 242.5 Q672 195 655.5 145.5 Q639 96 624.5 52.5 Q610 9 603 -15 Q598 -15 583.5 -14.5 Q569 -14 552.5 -14 Q536 -14 521 -14.5 Q506 -15 501 -15 Z " />
<glyph glyph-name="x" unicode="x" horiz-adv-x="601" d="M259 189 L203 119 Q185 96 191.5 80.5 Q198 65 224 65 L239 65 L239 -2 Q218 -1 198 -1 Q180 -1 162 -0.5 Q144 0 131 0 Q117 0 97.5 -0.5 Q78 -1 60 -1 Q39 -1 17 -2 L17 65 L37 65 Q72 65 94.5 77 Q117 89 144 115 Q150 121 161.5 133 Q173 145 186.5 159 Q200 173 214 188 Q228 203 239 215 L129 351 Q108 377 91 388.5 Q74 400 40 400 L27 400 L27 465 Q54 464 81 464 Q105 464 129 463.5 Q153 463 173 463 Q194 463 221 463.5 Q248 464 273 464 Q301 464 331 465 Q331 462 330.5 452.5 Q330 443 330 432 Q330 421 330.5 411.5 Q331 402 331 400 L314 400 Q285 400 280 384.5 Q275 369 293 342 Q299 333 313 314.5 Q327 296 346 273 L410 347 Q426 366 421 383 Q416 400 387 400 L368 400 L368 465 Q386 464 404 464 Q420 464 436 463.5 Q452 463 464 463 Q477 463 496 463.5 Q515 464 533 464 Q553 464 575 465 Q575 462 574.5 452.5 Q574 443 574 432 Q574 421 574.5 411.5 Q575 402 575 400 L550 400 Q537 400 527 397.5 Q517 395 507 388 Q497 381 485.5 370.5 Q474 360 458 343 Q451 335 439.5 323.5 Q428 312 415 299 Q402 286 389.5 272.5 Q377 259 366 248 L480 107 Q498 85 521 75 Q544 65 569 65 L584 65 L584 -2 Q555 -1 527 -1 Q502 -1 476.5 -0.5 Q451 0 431 0 Q411 0 384.5 -0.5 Q358 -1 334 -1 Q305 -1 276 -2 L276 65 L293 65 Q319 65 324 82.5 Q329 100 311 123 L259 189 Z " />
<glyph glyph-name="y" unicode="y" horiz-adv-x="578" d="M391 346 Q398 370 389.5 385 Q381 400 357 400 L338 400 L338 465 Q356 464 376 464 Q394 463 414 462.5 Q434 462 454 462 Q473 462 492 462.5 Q511 463 526 464 Q544 464 561 465 Q561 462 560.5 452.5 Q560 443 560 432 Q560 421 560.5 411.5 Q561 402 561 400 L541 400 Q504 400 487 386 Q470 372 458 345 Q446 317 429.5 274.5 Q413 232 395 184.5 Q377 137 360 89 Q343 41 329 2 Q295 -97 248.5 -144 Q202 -191 125 -191 Q68 -191 41 -164.5 Q14 -138 14 -100 Q14 -59 37.5 -39.5 Q61 -20 91 -20 Q161 -20 161 -84 Q161 -111 140 -131.5 Q119 -152 83 -150 Q91 -153 100.5 -155 Q110 -157 123 -157 Q150 -157 172.5 -147.5 Q195 -138 214.5 -116 Q234 -94 251 -58 Q268 -22 284 31 Q275 31 263.5 31.5 Q252 32 241.5 32 Q231 32 222.5 31.5 Q214 31 211 31 Q202 61 186 104 Q170 147 153 192.5 Q136 238 120 279 Q104 320 94 345 Q82 374 67 387 Q52 400 24 400 L10 400 L10 465 Q33 464 57 464 Q79 463 103 462.5 Q127 462 152 462 Q177 462 202.5 462.5 Q228 463 249 464 Q273 464 296 465 L296 400 L278 400 Q228 400 243 346 Q248 329 256.5 303.5 Q265 278 275.5 248.5 Q286 219 297.5 188.5 Q309 158 319 132 Q330 163 342 197.5 Q354 232 364 262.5 Q374 293 381.5 316 Q389 339 391 346 Z " />
<glyph glyph-name="z" unicode="z" horiz-adv-x="479" d="M22 0 Q22 3 22.5 11 Q23 19 23 28 Q23 37 22.5 44.5 Q22 52 22 55 Q46 87 79.5 132.5 Q113 178 149 228 Q185 278 219 326.5 Q253 375 278 412 L207 412 Q179 412 158 406 Q137 400 122 385 Q107 370 99 345 Q91 320 88 281 L37 281 Q42 320 43 372 Q44 424 40 469 Q43 469 57.5 468 Q72 467 94.5 466.5 Q117 466 145.5 465.5 Q174 465 207 465 L445 465 Q445 462 445.5 454.5 Q446 447 446 438 Q446 429 446.5 421.5 Q447 414 447 411 Q423 379 389 333 Q355 287 319 237 Q283 187 248.5 138.5 Q214 90 188 52 L291 52 Q314 52 334 59.5 Q354 67 369.5 83.5 Q385 100 395 127 Q405 154 407 193 L458 193 Q452 149 450.5 97 Q449 45 454 -3 Q431 -2 405 -2 Q381 -1 352 -0.5 Q323 0 291 0 L22 0 Z " />
<glyph glyph-name="braceleft" unicode="&#x7b;" horiz-adv-x="296" d="M34 326 L45 326 Q79 326 91 347 Q103 368 101.5 399 Q100 430 90.5 465.5 Q81 501 72 529 Q34 657 81.5 724.5 Q129 792 260 798 L262 754 Q232 749 212 739 Q192 729 182 705.5 Q172 682 171.5 641 Q171 600 179 533 Q185 492 187.5 452.5 Q190 413 182.5 382 Q175 351 153 330.5 Q131 310 87 307 Q130 303 152 283 Q174 263 182 233 Q190 203 188 166 Q186 129 181 91 Q174 32 172.5 -10 Q171 -52 179 -80 Q187 -108 206.5 -122.5 Q226 -137 262 -141 L260 -185 Q208 -182 163.5 -169 Q119 -156 91 -125.5 Q63 -95 56.5 -44 Q50 7 72 84 Q82 117 92 153 Q102 189 103 219 Q104 249 92 268.5 Q80 288 45 288 L34 288 L34 326 Z " />
<glyph glyph-name="bar" unicode="&#x7c;" horiz-adv-x="300" d="M141 -119 Q141 -110 150 -110 Q160 -110 160 -119 Q160 -129 150 -129 Q141 -129 141 -119 Z M135 -43 Q135 -37 139.5 -32.5 Q144 -28 150 -28 Q156 -28 160.5 -32.5 Q165 -37 165 -43 Q165 -49 160.5 -53.5 Q156 -58 150 -58 Q144 -58 139.5 -53.5 Q135 -49 135 -43 Z M130 33 Q130 41 136 47 Q142 53 150 53 Q158 53 164 47 Q170 41 170 33 Q170 25 164 19 Q158 13 150 13 Q142 13 136 19 Q130 25 130 33 Z M126 109 Q126 119 133 125.5 Q140 132 150 132 Q161 132 167.5 125.5 Q174 119 174 109 Q174 99 167.5 92 Q161 85 150 85 Q140 85 133 92 Q126 99 126 109 Z M123 185 Q123 196 131 203.5 Q139 211 150 211 Q161 211 169 203.5 Q177 196 177 185 Q177 174 169 166 Q161 158 150 158 Q139 158 131 166 Q123 174 123 185 Z M121 261 Q121 273 129.5 281 Q138 289 150 289 Q162 289 170.5 281 Q179 273 179 261 Q179 249 170.5 240.5 Q162 232 150 232 Q138 232 129.5 240.5 Q121 249 121 261 Z M121 337 Q121 349 129.5 357.5 Q138 366 150 366 Q163 366 171 357.5 Q179 349 179 337 Q179 324 171 315.5 Q163 307 150 307 Q138 307 129.5 315.5 Q121 324 121 337 Z M121 412 Q121 425 129.5 433 Q138 441 150 441 Q162 441 170.5 433 Q179 425 179 412 Q179 401 170.5 392.5 Q162 384 150 384 Q138 384 129.5 392.5 Q121 401 121 412 Z M123 488 Q123 500 131 507.5 Q139 515 150 515 Q161 515 169 507.5 Q177 500 177 488 Q177 477 169 469.5 Q161 462 150 462 Q139 462 131 469.5 Q123 477 123 488 Z M126 564 Q126 575 133 581.5 Q140 588 150 588 Q161 588 167.5 581.5 Q174 575 174 564 Q174 555 167.5 548 Q161 541 150 541 Q140 541 133 548 Q126 555 126 564 Z M130 640 Q130 648 136 654 Q142 660 150 660 Q158 660 164 654 Q170 648 170 640 Q170 632 164 626 Q158 620 150 620 Q142 620 136 626 Q130 632 130 640 Z M135 716 Q135 722 139.5 726.5 Q144 731 150 731 Q156 731 160.5 726.5 Q165 722 165 716 Q165 710 160.5 705.5 Q156 701 150 701 Q144 701 139.5 705.5 Q135 710 135 716 Z M141 792 Q141 802 150 802 Q160 802 160 792 Q160 783 150 783 Q141 783 141 792 Z " />
<glyph glyph-name="braceright" unicode="&#x7d;" horiz-adv-x="284" d="M257 288 L246 288 Q212 288 199.5 268.5 Q187 249 188 219 Q189 189 199 153 Q209 117 219 84 Q241 7 234.5 -44 Q228 -95 200.5 -125.5 Q173 -156 129.5 -169 Q86 -182 33 -185 L31 -141 Q67 -137 86.5 -122.5 Q106 -108 114 -80 Q122 -52 120.5 -10 Q119 32 112 91 Q108 129 105.5 166 Q103 203 111 233 Q119 263 141 283 Q163 303 206 307 Q163 310 140.5 330.5 Q118 351 110.5 382 Q103 413 105.5 452.5 Q108 492 114 533 Q123 600 122 641 Q121 682 111 705.5 Q101 729 81 739 Q61 749 31 754 L33 798 Q164 792 210.5 724.5 Q257 657 219 529 Q210 501 200.5 465.5 Q191 430 189.5 399 Q188 368 200 347 Q212 326 246 326 L257 326 L257 288 Z " />
<glyph glyph-name="asciitilde" unicode="&#x7e;" horiz-adv-x="532" d="M444 699 Q458 656 454 624 Q450 592 434 571 Q418 550 392.5 540 Q367 530 338 530 Q296 530 271 548.5 Q246 567 226 597 Q206 626 193.5 639 Q181 652 160 652 Q137 652 125.5 628.5 Q114 605 128 549 L100 541 Q86 585 89.5 617 Q93 649 109.5 670 Q126 691 151.5 701 Q177 711 207 711 Q241 711 266.5 696 Q292 681 318 645 Q336 617 350.5 603 Q365 589 385 589 Q409 589 420 613 Q431 637 418 692 L444 699 Z " />
<glyph glyph-name="exclamdown" unicode="&#xa1;" horiz-adv-x="260" d="M49 403 Q49 439 70.5 458.5 Q92 478 129 478 Q164 478 186 458.5 Q208 439 208 401 Q208 365 186 344.5 Q164 324 129 324 Q92 324 70.5 345 Q49 366 49 403 Z M117 250 Q117 267 131 267 Q146 267 146 250 Q146 194 150 153 Q154 112 162 76.5 Q170 41 181 5.5 Q192 -30 206 -75 Q219 -115 219 -147 Q219 -179 208.5 -201.5 Q198 -224 178 -236 Q158 -248 131 -248 Q105 -248 85 -236 Q65 -224 54 -201.5 Q43 -179 43 -147 Q43 -115 57 -75 Q72 -30 83.5 5 Q95 40 102.5 75 Q110 110 113.5 151.5 Q117 193 117 250 Z " />
<glyph glyph-name="cent" unicode="&#xa2;" horiz-adv-x="536" d="M265 358 Q264 352 260.5 332.5 Q257 313 252.5 285.5 Q248 258 243 225 Q238 192 233 158 Q253 152 276 152 Q301 152 323 158.5 Q345 165 362 175 Q341 181 331 196 Q321 211 321 231 Q321 258 338.5 274 Q356 290 389 290 Q419 290 437.5 273 Q456 256 456 221 Q456 195 442.5 170.5 Q429 146 403.5 127.5 Q378 109 341.5 97.5 Q305 86 258 86 Q249 86 240 86.5 Q231 87 223 88 Q219 61 215.5 38 Q212 15 209 -3 Q206 -24 204 -41 L162 -33 Q165 -16 169 4 Q173 22 177.5 44.5 Q182 67 188 93 Q110 112 69 172.5 Q28 233 28 331 Q28 389 44.5 435.5 Q61 482 91.5 514 Q122 546 166 563.5 Q210 581 264 581 L275 581 Q279 607 282 630 Q285 653 288 670 Q291 691 293 708 L335 701 Q331 684 327 665 Q323 647 318.5 625 Q314 603 309 578 Q372 569 410 539 Q448 509 448 466 Q448 434 429 417 Q410 400 378 400 Q346 400 329.5 417 Q313 434 313 460 Q313 477 321 490.5 Q329 504 346 511 Q327 518 298 521 Q292 493 286.5 466 Q281 439 276.5 417 Q272 395 269 379.5 Q266 364 265 358 Z M166 334 Q166 271 175 233.5 Q184 196 204 176 Q211 208 217 238.5 Q223 269 228.5 294 Q234 319 237.5 337 Q241 355 242 362 L266 521 Q214 518 190 476.5 Q166 435 166 334 Z " />
<glyph glyph-name="sterling" unicode="&#xa3;" horiz-adv-x="578" d="M85 302 Q99 300 117 299.5 Q135 299 155 299 Q127 340 104 387 Q81 434 81 495 Q81 545 99.5 584 Q118 623 149.5 649.5 Q181 676 223 690 Q265 704 312 704 Q362 704 398.5 692 Q435 680 458.5 660 Q482 640 493.5 614 Q505 588 505 559 Q505 460 420 460 Q391 460 373 476 Q355 492 355 519 Q355 545 374 561 Q393 577 425 574 Q442 573 455 566 Q450 595 422.5 617.5 Q395 640 344 640 Q284 640 251.5 602 Q219 564 220 487 Q220 440 234.5 393.5 Q249 347 265 299 Q300 299 332 299.5 Q364 300 384 302 L384 250 Q369 250 340 251 Q311 252 279 253 Q287 226 292 199 Q297 172 297 145 Q297 142 296.5 139 Q296 136 296 133 Q326 120 354.5 109.5 Q383 99 419 99 Q460 99 487 111.5 Q514 124 522 156 L564 150 Q567 120 561 90 Q555 60 537.5 36 Q520 12 489.5 -3 Q459 -18 414 -18 Q360 -18 323.5 -2.5 Q287 13 259 33 Q216 -15 129 -15 Q74 -15 47.5 9.5 Q21 34 21 72 Q21 96 30.5 114 Q40 132 55.5 144.5 Q71 157 91 163.5 Q111 170 133 170 Q183 170 222 159 Q218 185 208 208 Q198 231 184 254 Q154 253 128 252 Q102 251 85 250 L85 302 Z M126 19 Q192 19 214 70 Q193 87 172.5 99 Q152 111 126 111 Q94 111 79 98 Q64 85 64 64 Q64 47 79.5 33 Q95 19 126 19 Z " />
<glyph glyph-name="yen" unicode="&#xa5;" horiz-adv-x="630" d="M187 368 Q169 416 150.5 461.5 Q132 507 118 539 Q100 580 83.5 596.5 Q67 613 30 613 L16 613 Q16 616 16.5 627.5 Q17 639 17 651.5 Q17 664 16.5 675.5 Q16 687 16 690 Q43 689 70 689 Q95 688 120 687.5 Q145 687 166 687 Q187 687 213 687.5 Q239 688 263 689 Q291 689 319 690 L319 613 L303 613 Q272 613 264.5 593.5 Q257 574 267 542 Q273 521 283 495.5 Q293 470 304 443 Q315 416 326.5 390 Q338 364 348 343 Q357 365 368 391.5 Q379 418 389.5 444.5 Q400 471 409 496.5 Q418 522 424 543 Q428 558 430 571 Q432 584 429.5 593 Q427 602 418.5 607.5 Q410 613 393 613 L376 613 Q376 616 376.5 627.5 Q377 639 377 651.5 Q377 664 376.5 675.5 Q376 687 376 690 Q400 689 423 689 Q445 688 465.5 687.5 Q486 687 502 687 Q518 687 537.5 687.5 Q557 688 574 689 Q594 689 614 690 Q614 687 613.5 675.5 Q613 664 613 651.5 Q613 639 613.5 627.5 Q614 616 614 613 L597 613 Q576 613 562.5 610 Q549 607 538.5 599.5 Q528 592 520.5 579 Q513 566 504 547 L423 368 L515 371 Q515 367 514.5 357.5 Q514 348 514 337.5 Q514 327 514.5 318 Q515 309 515 304 L396 309 Q392 299 388 290 Q384 281 381 273 L381 240 L515 244 Q515 240 514.5 231 Q514 222 514 211.5 Q514 201 514.5 191.5 Q515 182 515 177 L381 182 L381 130 Q381 101 391 88.5 Q401 76 439 76 L472 76 L472 -1 Q444 0 415 1 Q389 1 361 1.5 Q333 2 307 2 Q281 2 252 1.5 Q223 1 199 1 Q169 0 141 -1 L141 76 L173 76 Q193 76 204.5 79 Q216 82 221.5 88.5 Q227 95 228.5 105.5 Q230 116 230 130 L230 182 L99 177 L99 244 L229 240 L229 261 L211 309 L99 304 L99 371 L187 368 Z " />
<glyph glyph-name="brokenbar" unicode="&#xa6;" horiz-adv-x="300" d="M141 -119 Q141 -110 150 -110 Q160 -110 160 -119 Q160 -129 150 -129 Q141 -129 141 -119 Z M135 -43 Q135 -37 139.5 -32.5 Q144 -28 150 -28 Q156 -28 160.5 -32.5 Q165 -37 165 -43 Q165 -49 160.5 -53.5 Q156 -58 150 -58 Q144 -58 139.5 -53.5 Q135 -49 135 -43 Z M130 33 Q130 41 136 47 Q142 53 150 53 Q158 53 164 47 Q170 41 170 33 Q170 25 164 19 Q158 13 150 13 Q142 13 136 19 Q130 25 130 33 Z M126 109 Q126 119 133 125.5 Q140 132 150 132 Q161 132 167.5 125.5 Q174 119 174 109 Q174 99 167.5 92 Q161 85 150 85 Q140 85 133 92 Q126 99 126 109 Z M123 185 Q123 196 131 203.5 Q139 211 150 211 Q161 211 169 203.5 Q177 196 177 185 Q177 174 169 166 Q161 158 150 158 Q139 158 131 166 Q123 174 123 185 Z M121 261 Q121 273 129.5 281 Q138 289 150 289 Q162 289 170.5 281 Q179 273 179 261 Q179 249 170.5 240.5 Q162 232 150 232 Q138 232 129.5 240.5 Q121 249 121 261 Z M121 412 Q121 425 129.5 433 Q138 441 150 441 Q162 441 170.5 433 Q179 425 179 412 Q179 401 170.5 392.5 Q162 384 150 384 Q138 384 129.5 392.5 Q121 401 121 412 Z M123 488 Q123 500 131 507.5 Q139 515 150 515 Q161 515 169 507.5 Q177 500 177 488 Q177 477 169 469.5 Q161 462 150 462 Q139 462 131 469.5 Q123 477 123 488 Z M126 564 Q126 575 133 581.5 Q140 588 150 588 Q161 588 167.5 581.5 Q174 575 174 564 Q174 555 167.5 548 Q161 541 150 541 Q140 541 133 548 Q126 555 126 564 Z M130 640 Q130 648 136 654 Q142 660 150 660 Q158 660 164 654 Q170 648 170 640 Q170 632 164 626 Q158 620 150 620 Q142 620 136 626 Q130 632 130 640 Z M135 716 Q135 722 139.5 726.5 Q144 731 150 731 Q156 731 160.5 726.5 Q165 722 165 716 Q165 710 160.5 705.5 Q156 701 150 701 Q144 701 139.5 705.5 Q135 710 135 716 Z M141 792 Q141 802 150 802 Q160 802 160 792 Q160 783 150 783 Q141 783 141 792 Z " />
<glyph glyph-name="section" unicode="&#xa7;" horiz-adv-x="815" d="M530 644 Q503 616 481.5 587.5 Q460 559 442 513.5 Q424 468 408 397.5 Q392 327 374 214 Q352 73 319.5 -10 Q287 -93 251 -136.5 Q215 -180 178 -192.5 Q141 -205 109 -205 Q80 -205 59.5 -195 Q39 -185 27 -169 Q15 -153 11 -132 Q7 -111 10 -89 Q12 -76 17.5 -63 Q23 -50 32.5 -39 Q42 -28 56 -21 Q70 -14 89 -14 Q115 -14 132.5 -28 Q150 -42 145 -73 Q140 -102 115 -117 Q90 -132 52 -119 Q54 -137 67 -150.5 Q80 -164 111 -164 Q138 -164 160.5 -148.5 Q183 -133 203 -90 Q223 -47 241 28.5 Q259 104 277 224 Q294 336 320.5 409.5 Q347 483 379 531 Q411 579 448 607 Q485 635 523 655 L530 644 Z M287 -140 Q314 -112 335 -83.5 Q356 -55 374 -9.5 Q392 36 408.5 107 Q425 178 443 290 Q465 430 496.5 513 Q528 596 563.5 639.5 Q599 683 635.5 696 Q672 709 705 709 Q736 709 757 699 Q778 689 790 672.5 Q802 656 805.5 635 Q809 614 806 593 Q804 580 799 566.5 Q794 553 784.5 542.5 Q775 532 761 525 Q747 518 727 518 Q702 518 684 532.5 Q666 547 671 577 Q675 606 700.5 621 Q726 636 763 623 Q761 642 748 655 Q735 668 708 668 Q680 668 657 652.5 Q634 637 613.5 594.5 Q593 552 575 476.5 Q557 401 539 280 Q523 168 496.5 94.5 Q470 21 437.5 -27 Q405 -75 368 -103 Q331 -131 293 -151 L287 -140 Z " />
<glyph glyph-name="dieresis" unicode="&#xa8;" horiz-adv-x="533" d="M235 592 Q235 567 219.5 551.5 Q204 536 178 536 Q153 536 137 551.5 Q121 567 121 592 Q121 617 137 632.5 Q153 648 178 648 Q204 648 219.5 632.5 Q235 617 235 592 Z M406 592 Q406 567 390.5 551.5 Q375 536 349 536 Q324 536 308 551.5 Q292 567 292 592 Q292 617 308 632.5 Q324 648 349 648 Q375 648 390.5 632.5 Q406 617 406 592 Z " />
<glyph glyph-name="copyright" unicode="&#xa9;" horiz-adv-x="839" d="M420 33 Q499 33 556.5 56 Q614 79 651 120.5 Q688 162 705.5 219 Q723 276 723 344 Q723 412 704.5 469 Q686 526 648 567.5 Q610 609 553.5 632.5 Q497 656 420 656 Q343 656 286 632.5 Q229 609 191 567.5 Q153 526 134.5 469 Q116 412 116 344 Q116 276 134.5 219 Q153 162 191 120.5 Q229 79 286 56 Q343 33 420 33 Z M420 -16 Q330 -16 261.5 9.5 Q193 35 146.5 82 Q100 129 76.5 195.5 Q53 262 53 344 Q53 426 79 492.5 Q105 559 153 606.5 Q201 654 268.5 679.5 Q336 705 420 705 Q507 705 575 679.5 Q643 654 690 606.5 Q737 559 762 492.5 Q787 426 787 344 Q787 262 763.5 195.5 Q740 129 693.5 82 Q647 35 578.5 9.5 Q510 -16 420 -16 Z M416 565 Q450 565 478 555 Q506 545 530 528 Q542 520 552 523.5 Q562 527 564 553 Q570 552 585.5 552 Q601 552 608 553 Q606 540 604 520.5 Q602 501 600.5 480.5 Q599 460 598.5 440.5 Q598 421 598 409 Q571 411 543 409 Q535 457 505 481.5 Q475 506 434 506 Q377 506 354 469.5 Q331 433 331 345 Q331 296 338.5 265 Q346 234 359.5 216.5 Q373 199 391 192.5 Q409 186 429 186 Q485 186 510.5 216 Q536 246 539 300 Q551 298 573.5 298 Q596 298 608 300 Q604 215 562 171.5 Q520 128 423 128 Q374 128 335 139.5 Q296 151 269 177 Q242 203 228 244.5 Q214 286 214 345 Q214 401 229 442 Q244 483 270.5 510.5 Q297 538 334 551.5 Q371 565 416 565 Z " />
<glyph glyph-name="ordfeminine" unicode="&#xaa;" horiz-adv-x="491" d="M357 446 Q357 421 361 414 Q365 407 373 407 Q384 407 388.5 427 Q393 447 390 485 L418 486 Q421 424 406 389.5 Q391 355 342 355 Q306 355 288 371 Q270 387 265 413 Q251 388 226.5 372 Q202 356 165 356 Q119 356 94.5 377 Q70 398 70 439 Q70 470 86.5 490 Q103 510 130.5 523 Q158 536 192.5 542 Q227 548 263 550 L263 575 Q263 619 249 641 Q235 663 189 662 Q167 662 149 657 Q166 654 176.5 643 Q187 632 187 615 Q187 594 173 581.5 Q159 569 135 569 Q112 569 98 582 Q84 595 84 618 Q84 638 95.5 653.5 Q107 669 126.5 679.5 Q146 690 171 695 Q196 700 222 700 Q262 700 288 690.5 Q314 681 329.5 663.5 Q345 646 351 621 Q357 596 357 565 L357 446 Z M56 294 Q79 293 129.5 293 Q180 293 236.5 293 Q293 293 344 293 Q395 293 418 294 L418 208 Q395 209 344 209.5 Q293 210 236.5 210 Q180 210 129.5 209.5 Q79 209 56 208 L56 294 Z M210 407 Q230 407 246.5 423.5 Q263 440 263 472 L263 528 Q221 524 197 507 Q173 490 173 453 Q173 407 210 407 Z " />
<glyph glyph-name="guillemotleft" unicode="&#xab;" horiz-adv-x="420" d="M231 418 Q224 400 211.5 377.5 Q199 355 184.5 331.5 Q170 308 154.5 286.5 Q139 265 125 250 Q139 235 154.5 213.5 Q170 192 184.5 168.5 Q199 145 211.5 123 Q224 101 231 85 L219 75 Q203 88 179.5 108 Q156 128 130.5 149 Q105 170 80.5 190 Q56 210 39 223 L39 281 Q56 294 80 313.5 Q104 333 129.5 354 Q155 375 179 395 Q203 415 219 428 L231 418 Z M389 418 Q382 400 369.5 377.5 Q357 355 342.5 331.5 Q328 308 312.5 286.5 Q297 265 283 250 Q297 235 312.5 213.5 Q328 192 342.5 168.5 Q357 145 369.5 123 Q382 101 389 85 L377 75 Q361 88 337.5 108 Q314 128 288.5 149 Q263 170 238.5 190 Q214 210 197 223 L197 281 Q214 294 238 313.5 Q262 333 287.5 354 Q313 375 337 395 Q361 415 377 428 L389 418 Z " />
<glyph glyph-name="registered" unicode="&#xae;" horiz-adv-x="839" d="M420 33 Q499 33 556.5 56 Q614 79 651 120.5 Q688 162 705.5 219 Q723 276 723 344 Q723 412 704.5 469 Q686 526 648 567.5 Q610 609 553.5 632.5 Q497 656 420 656 Q343 656 286 632.5 Q229 609 191 567.5 Q153 526 134.5 469 Q116 412 116 344 Q116 276 134.5 219 Q153 162 191 120.5 Q229 79 286 56 Q343 33 420 33 Z M420 -16 Q330 -16 261.5 9.5 Q193 35 146.5 82 Q100 129 76.5 195.5 Q53 262 53 344 Q53 426 79 492.5 Q105 559 153 606.5 Q201 654 268.5 679.5 Q336 705 420 705 Q507 705 575 679.5 Q643 654 690 606.5 Q737 559 762 492.5 Q787 426 787 344 Q787 262 763.5 195.5 Q740 129 693.5 82 Q647 35 578.5 9.5 Q510 -16 420 -16 Z M579 261 Q587 223 594.5 208.5 Q602 194 615 194 Q629 194 631 218 Q633 242 626 271 Q626 271 631.5 271.5 Q637 272 643 272.5 Q649 273 654 273.5 Q659 274 659 274 Q665 249 664.5 225 Q664 201 655 182 Q646 163 627.5 151.5 Q609 140 578 140 Q546 140 525.5 147.5 Q505 155 493 169 Q481 183 476.5 203.5 Q472 224 470 250 Q467 300 448 315 Q429 330 396 330 L372 330 Q372 298 372.5 272 Q373 246 374 238 Q375 203 408 203 L430 203 L430 150 Q410 151 390 151 Q372 151 353.5 151.5 Q335 152 320 152 Q305 152 286 151.5 Q267 151 250 151 Q229 151 209 150 L209 203 L233 203 Q251 203 260 210.5 Q269 218 271 237 Q271 248 271.5 282 Q272 316 272 355 Q272 394 271.5 428.5 Q271 463 271 473 Q269 490 262.5 497.5 Q256 505 239 505 L209 505 L209 557 Q215 557 232 556.5 Q249 556 268.5 555.5 Q288 555 304.5 555 Q321 555 327 555 L433 555 Q605 555 605 447 Q605 402 577.5 376 Q550 350 511 342 Q543 333 557.5 312.5 Q572 292 579 261 Z M374 484 Q373 471 372.5 437 Q372 403 372 364 L412 364 Q459 364 476.5 382.5 Q494 401 494 439 Q494 474 478 491 Q462 508 420 508 L398 508 Q384 508 379 501.5 Q374 495 374 484 Z " />
<glyph glyph-name="macron" unicode="&#xaf;" horiz-adv-x="532" d="M124 562 Q125 577 125 598 Q125 619 124 635 Q147 634 183 634 Q219 634 257 634 Q295 634 331 634 Q367 634 390 635 Q389 619 389 598.5 Q389 578 390 562 Q367 563 331 563.5 Q295 564 257 564 Q219 564 183 563.5 Q147 563 124 562 Z " />
<glyph glyph-name="degree" unicode="&#xb0;" horiz-adv-x="337" d="M168 408 Q208 408 232.5 435 Q257 462 257 532 Q257 569 250.5 593 Q244 617 232 631.5 Q220 646 203.5 651.5 Q187 657 168 657 Q150 657 134 651 Q118 645 106 630.5 Q94 616 87 592 Q80 568 80 532 Q80 495 86.5 471 Q93 447 104.5 433 Q116 419 132 413.5 Q148 408 168 408 Z M168 373 Q104 373 67 411.5 Q30 450 30 532 Q30 574 40.5 604 Q51 634 70 653.5 Q89 673 114 682.5 Q139 692 168 692 Q233 692 270 654 Q307 616 307 532 Q307 491 296.5 461 Q286 431 267 411.5 Q248 392 222.5 382.5 Q197 373 168 373 Z " />
<glyph glyph-name="plusminus" unicode="&#xb1;" horiz-adv-x="600" d="M80 0 Q81 15 81 34.5 Q81 54 80 69 Q116 68 164 67.5 Q212 67 265 67 Q266 102 268.5 148 Q271 194 276 227 Q254 224 225.5 222 Q197 220 169 218.5 Q141 217 116.5 216 Q92 215 77 215 L77 286 Q92 286 116.5 285.5 Q141 285 169 283.5 Q197 282 225.5 279.5 Q254 277 276 274 Q273 296 271 324.5 Q269 353 267.5 381.5 Q266 410 265 434.5 Q264 459 264 473 L335 473 Q335 459 334.5 434.5 Q334 410 332.5 381.5 Q331 353 328.5 324.5 Q326 296 323 274 Q345 277 373.5 279.5 Q402 282 430.5 283.5 Q459 285 483.5 285.5 Q508 286 523 286 L523 215 Q508 215 483.5 216 Q459 217 430.5 218.5 Q402 220 373.5 222 Q345 224 323 227 Q327 194 329.5 148 Q332 102 334 67 Q387 67 435.5 67.5 Q484 68 520 69 Q519 54 519 35 Q519 16 520 0 Q478 1 420 1.5 Q362 2 300.5 2 Q239 2 180.5 1.5 Q122 1 80 0 Z " />
<glyph glyph-name="acute" unicode="&#xb4;" horiz-adv-x="532" d="M161 535 Q175 553 190.5 571.5 Q206 590 222.5 607.5 Q239 625 255.5 640 Q272 655 286 665 Q307 678 324 675 Q341 672 349.5 661 Q358 650 354.5 634 Q351 618 331 604 Q316 594 296.5 583 Q277 572 255 561 Q233 550 211 540.5 Q189 531 169 524 L161 535 Z " />
<glyph glyph-name="paragraph" unicode="&#xb6;" horiz-adv-x="547" d="M292 -13 Q292 -9 292.5 21.5 Q293 52 293 90 Q293 128 293 166 Q293 204 293 223 Q170 226 109 285.5 Q48 345 48 457 Q48 519 68 563 Q88 607 124.5 635 Q161 663 213.5 675.5 Q266 688 330 688 L500 688 L500 625 L473 625 Q448 625 435.5 615 Q423 605 423 576 L424 12 Q424 -101 379 -151 Q334 -201 247 -201 Q210 -201 183.5 -192.5 Q157 -184 140.5 -170.5 Q124 -157 116.5 -139 Q109 -121 109 -102 Q109 -64 129 -48 Q149 -32 175 -32 Q206 -32 222.5 -48 Q239 -64 239 -92 Q239 -112 226 -131 Q213 -150 184 -159 Q200 -166 214 -166 Q234 -166 248 -159 Q262 -152 271.5 -134.5 Q281 -117 286 -87.5 Q291 -58 292 -13 Z " />
<glyph glyph-name="periodcentered" unicode="&#xb7;" horiz-adv-x="278" d="M221 243 Q221 207 199 186.5 Q177 166 139 166 Q104 166 81 185.5 Q58 205 58 244 Q58 279 81 301 Q104 323 139 323 Q177 323 199 300.5 Q221 278 221 243 Z " />
<glyph glyph-name="cedilla" unicode="&#xb8;" horiz-adv-x="532" d="M201 -92 Q236 -73 252 -50.5 Q268 -28 272 7 L299 1 Q301 -17 293 -38 Q285 -59 267 -76 Q288 -73 308 -76.5 Q328 -80 344 -89.5 Q360 -99 370 -115 Q380 -131 380 -154 Q380 -199 348.5 -224 Q317 -249 261 -249 Q218 -249 192 -230 Q166 -211 155 -189 L177 -171 Q190 -188 205.5 -197.5 Q221 -207 244 -207 Q273 -207 287 -192.5 Q301 -178 301 -153 Q301 -122 274.5 -110.5 Q248 -99 213 -113 L201 -92 Z " />
<glyph glyph-name="ordmasculine" unicode="&#xba;" horiz-adv-x="453" d="M58 208 Q58 214 58.5 226 Q59 238 59 251 Q59 264 58.5 276 Q58 288 58 294 Q81 293 128 293 Q175 293 227 293 Q279 293 326 293 Q373 293 396 294 Q396 288 395.5 276 Q395 264 395 251 Q395 238 395.5 226 Q396 214 396 208 Q373 209 326 209.5 Q279 210 227 210 Q175 210 128 209.5 Q81 209 58 208 Z M64 523 Q64 614 109 657 Q154 700 229 700 Q304 700 349 657 Q394 614 394 523 Q394 437 349 394.5 Q304 352 229 352 Q153 352 108.5 394.5 Q64 437 64 523 Z M168 523 Q168 482 172 457 Q176 432 184 418.5 Q192 405 203.5 400.5 Q215 396 229 396 Q243 396 254 400.5 Q265 405 273.5 418.5 Q282 432 286.5 457 Q291 482 291 523 Q291 564 286.5 590 Q282 616 274 630.5 Q266 645 254 650.5 Q242 656 228 656 Q214 656 203 650.5 Q192 645 184 630.5 Q176 616 172 590 Q168 564 168 523 Z " />
<glyph glyph-name="guillemotright" unicode="&#xbb;" horiz-adv-x="420" d="M44 428 Q61 415 85.5 395 Q110 375 135.5 354 Q161 333 184.5 313.5 Q208 294 224 281 L224 223 Q207 210 182.5 190 Q158 170 132.5 149 Q107 128 83 108 Q59 88 44 75 L32 85 Q39 101 51 123 Q63 145 78 168.5 Q93 192 108.5 213.5 Q124 235 137 250 Q124 265 108 286.5 Q92 308 77.5 331.5 Q63 355 50.5 377.5 Q38 400 31 418 L44 428 Z M202 428 Q219 415 243.5 395 Q268 375 293.5 354 Q319 333 342.5 313.5 Q366 294 382 281 L382 223 Q365 210 340.5 190 Q316 170 290.5 149 Q265 128 241 108 Q217 88 202 75 L190 85 Q197 101 209 123 Q221 145 236 168.5 Q251 192 266.5 213.5 Q282 235 295 250 Q282 265 266 286.5 Q250 308 235.5 331.5 Q221 355 208.5 377.5 Q196 400 189 418 L202 428 Z " />
<glyph glyph-name="onequarter" unicode="&#xbc;" horiz-adv-x="378" d="M11 344 Q11 352 16.5 358.5 Q22 365 32 365 Q40 365 46.5 358.5 Q53 352 53 344 Q53 334 46.5 328.5 Q40 323 32 323 Q11 323 11 344 Z M76 344 Q76 352 81 357 Q86 362 95 362 Q103 362 108 357 Q113 352 113 344 Q113 335 108 330 Q103 325 95 325 Q76 325 76 344 Z M141 344 Q141 360 158 360 Q174 360 174 344 Q174 327 158 327 Q141 327 141 344 Z M204 344 Q204 360 221 360 Q237 360 237 344 Q237 327 221 327 Q204 327 204 344 Z M265 344 Q265 352 270 357 Q275 362 284 362 Q292 362 297 357 Q302 352 302 344 Q302 335 297 330 Q292 325 284 325 Q265 325 265 344 Z M326 344 Q326 352 331.5 358.5 Q337 365 347 365 Q355 365 361.5 358.5 Q368 352 368 344 Q368 334 361.5 328.5 Q355 323 347 323 Q326 323 326 344 Z M117 440 Q134 440 140.5 447.5 Q147 455 147 466 L147 610 L88 609 Q88 611 88.5 617 Q89 623 89 630 Q89 637 88.5 643.5 Q88 650 88 651 L106 651 Q149 651 166.5 667.5 Q184 684 189 710 L236 710 Q235 691 235 671 Q234 652 233.5 631 Q233 610 233 588 L233 466 Q233 455 239 447.5 Q245 440 262 440 L296 440 L296 400 Q276 401 257 401 Q239 401 221.5 401.5 Q204 402 189 402 Q174 402 155.5 401.5 Q137 401 121 401 Q102 401 82 400 L82 440 L117 440 Z M160 15 Q174 15 180 19 Q186 23 186 34 L186 50 L51 50 L51 73 L217 286 L275 286 L275 74 L327 75 L327 49 L275 49 L275 35 Q275 24 280.5 19.5 Q286 15 301 15 L325 15 L325 -22 Q307 -21 290 -21 Q274 -21 258.5 -20.5 Q243 -20 230 -20 Q217 -20 200.5 -20.5 Q184 -21 170 -21 Q153 -21 135 -22 L135 15 L160 15 Z M186 73 L186 205 L89 73 L186 73 Z " />
<glyph glyph-name="onehalf" unicode="&#xbd;" horiz-adv-x="378" d="M11 344 Q11 352 16.5 358.5 Q22 365 32 365 Q40 365 46.5 358.5 Q53 352 53 344 Q53 334 46.5 328.5 Q40 323 32 323 Q11 323 11 344 Z M76 344 Q76 352 81 357 Q86 362 95 362 Q103 362 108 357 Q113 352 113 344 Q113 335 108 330 Q103 325 95 325 Q76 325 76 344 Z M141 344 Q141 360 158 360 Q174 360 174 344 Q174 327 158 327 Q141 327 141 344 Z M204 344 Q204 360 221 360 Q237 360 237 344 Q237 327 221 327 Q204 327 204 344 Z M265 344 Q265 352 270 357 Q275 362 284 362 Q292 362 297 357 Q302 352 302 344 Q302 335 297 330 Q292 325 284 325 Q265 325 265 344 Z M326 344 Q326 352 331.5 358.5 Q337 365 347 365 Q355 365 361.5 358.5 Q368 352 368 344 Q368 334 361.5 328.5 Q355 323 347 323 Q326 323 326 344 Z M307 77 Q315 59 315.5 40 Q316 21 308 5.5 Q300 -10 283.5 -20 Q267 -30 241 -30 Q210 -30 191.5 -20.5 Q173 -11 155 0 Q133 14 114.5 15 Q96 16 85 7 Q96 8 104.5 2.5 Q113 -3 113 -11 Q113 -30 91 -30 Q80 -30 71 -22.5 Q62 -15 62 5 Q62 50 88.5 76.5 Q115 103 155 125 Q188 143 204 159.5 Q220 176 220 201 Q220 226 207 241 Q194 256 162 256 Q142 256 122.5 249 Q103 242 95 225 Q101 227 107.5 228 Q114 229 121 229 Q138 229 148.5 221 Q159 213 159 197 Q159 183 148 173.5 Q137 164 115 164 Q95 164 82.5 175 Q70 186 70 208 Q70 247 102.5 268.5 Q135 290 186 290 Q251 290 278.5 265.5 Q306 241 306 206 Q306 160 277.5 139 Q249 118 196 104 Q154 93 126 76.5 Q98 60 88 34 Q103 51 133 55.5 Q163 60 198 52 Q214 48 230.5 46 Q247 44 259.5 45.5 Q272 47 279 53.5 Q286 60 283 75 L307 77 Z M117 440 Q134 440 140.5 447.5 Q147 455 147 466 L147 610 L88 609 Q88 611 88.5 617 Q89 623 89 630 Q89 637 88.5 643.5 Q88 650 88 651 L106 651 Q149 651 166.5 667.5 Q184 684 189 710 L236 710 Q235 691 235 671 Q234 652 233.5 631 Q233 610 233 588 L233 466 Q233 455 239 447.5 Q245 440 262 440 L296 440 L296 400 Q276 401 257 401 Q239 401 221.5 401.5 Q204 402 189 402 Q174 402 155.5 401.5 Q137 401 121 401 Q102 401 82 400 L82 440 L117 440 Z " />
<glyph glyph-name="threequarters" unicode="&#xbe;" horiz-adv-x="378" d="M11 344 Q11 352 16.5 358.5 Q22 365 32 365 Q40 365 46.5 358.5 Q53 352 53 344 Q53 334 46.5 328.5 Q40 323 32 323 Q11 323 11 344 Z M76 344 Q76 352 81 357 Q86 362 95 362 Q103 362 108 357 Q113 352 113 344 Q113 335 108 330 Q103 325 95 325 Q76 325 76 344 Z M141 344 Q141 360 158 360 Q174 360 174 344 Q174 327 158 327 Q141 327 141 344 Z M204 344 Q204 360 221 360 Q237 360 237 344 Q237 327 221 327 Q204 327 204 344 Z M265 344 Q265 352 270 357 Q275 362 284 362 Q292 362 297 357 Q302 352 302 344 Q302 335 297 330 Q292 325 284 325 Q265 325 265 344 Z M326 344 Q326 352 331.5 358.5 Q337 365 347 365 Q355 365 361.5 358.5 Q368 352 368 344 Q368 334 361.5 328.5 Q355 323 347 323 Q326 323 326 344 Z M307 631 Q307 601 288 584.5 Q269 568 241 560 Q281 554 301.5 533.5 Q322 513 322 484 Q322 435 282.5 414 Q243 393 177 393 Q123 393 90 415 Q57 437 57 471 Q58 492 71 504 Q84 516 104 516 Q126 516 137.5 506 Q149 496 149 482 Q149 466 137.5 456.5 Q126 447 108 447 Q100 447 90 449 Q101 436 119.5 430 Q138 424 158 424 Q228 424 228 485 Q228 543 156 543 L141 543 L141 570 L155 570 Q220 570 220 627 Q220 649 207 663.5 Q194 678 163 678 Q143 678 125.5 671 Q108 664 99 650 Q104 652 109.5 653 Q115 654 123 654 Q142 654 151 645 Q160 636 160 622 Q160 609 150 599 Q140 589 117 589 Q97 589 84 600.5 Q71 612 71 634 Q71 668 104 690 Q137 712 190 712 Q245 712 276 690.5 Q307 669 307 631 Z M160 15 Q174 15 180 19 Q186 23 186 34 L186 50 L51 50 L51 73 L217 286 L275 286 L275 74 L327 75 L327 49 L275 49 L275 35 Q275 24 280.5 19.5 Q286 15 301 15 L325 15 L325 -22 Q307 -21 290 -21 Q274 -21 258.5 -20.5 Q243 -20 230 -20 Q217 -20 200.5 -20.5 Q184 -21 170 -21 Q153 -21 135 -22 L135 15 L160 15 Z M186 73 L186 205 L89 73 L186 73 Z " />
<glyph glyph-name="questiondown" unicode="&#xbf;" horiz-adv-x="513" d="M141 220 Q164 239 200 255 Q236 271 276 271 Q311 271 332.5 253.5 Q354 236 354 205 Q354 178 337 159.5 Q320 141 287 122 Q267 111 248.5 96.5 Q230 82 216 61.5 Q202 41 193.5 13.5 Q185 -14 185 -51 Q185 -108 215 -145.5 Q245 -183 312 -183 Q353 -183 388.5 -164.5 Q424 -146 438 -104 Q428 -108 416.5 -110.5 Q405 -113 394 -113 Q359 -113 340 -94 Q321 -75 321 -41 Q321 -9 343 11 Q365 31 403 31 Q444 31 465.5 6 Q487 -19 487 -65 Q487 -103 473 -136 Q459 -169 430.5 -194 Q402 -219 359 -233.5 Q316 -248 259 -248 Q144 -248 88.5 -196 Q33 -144 33 -58 Q33 27 84 78 Q135 129 238 166 Q270 177 282 185 Q294 193 294 206 Q294 220 284 225.5 Q274 231 262 231 Q206 231 155 192 L141 220 Z M177 402 Q177 438 198.5 458 Q220 478 256 478 Q291 478 313.5 458.5 Q336 439 336 401 Q336 366 313.5 345 Q291 324 256 324 Q220 324 198.5 345.5 Q177 367 177 402 Z " />
<glyph glyph-name="Agrave" unicode="&#xc0;" horiz-adv-x="883" d="M532 213 Q505 214 471.5 214.5 Q438 215 403 215 Q368 215 333.5 214.5 Q299 214 272 214 Q267 200 263.5 189 Q260 178 258 171 Q244 126 253 101.5 Q262 77 307 77 L347 77 Q347 74 347 62.5 Q347 51 346.5 37.5 Q346 24 346 12.5 Q346 1 346 -2 Q317 -1 289 -1 Q263 -1 237 -0.5 Q211 0 189 0 Q168 0 141 -0.5 Q114 -1 90 -1 Q61 -1 32 -2 Q32 1 32.5 12.5 Q33 24 33 37.5 Q33 51 32.5 62.5 Q32 74 32 77 L64 77 Q107 77 129 96 Q151 115 169 163 Q174 174 188 212 Q202 250 221.5 302 Q241 354 263 413.5 Q285 473 305.5 528.5 Q326 584 342.5 629 Q359 674 367 696 Q381 695 394 695 Q407 694 419.5 693.5 Q432 693 442 693 Q452 693 465 693.5 Q478 694 489 695 Q502 695 516 696 Q526 667 543.5 621 Q561 575 581.5 521.5 Q602 468 624 412 Q646 356 665.5 306.5 Q685 257 700.5 218.5 Q716 180 724 162 Q745 114 764.5 95.5 Q784 77 814 77 L851 77 L851 -2 Q815 -1 780 -1 Q748 -1 716 -0.5 Q684 0 658 0 Q632 0 598.5 -0.5 Q565 -1 535 -1 Q500 -1 464 -2 Q464 1 464 12.5 Q464 24 464 37.5 Q464 51 464 62.5 Q464 74 464 77 L506 77 Q543 77 553 101.5 Q563 126 546 173 L532 213 Z M512 269 Q500 304 485 344.5 Q470 385 455 425 Q440 465 425.5 502.5 Q411 540 400 568 Q390 540 376 503 Q362 466 347.5 425.5 Q333 385 318.5 344.5 Q304 304 292 269 Q317 269 345.5 268.5 Q374 268 403 268 Q432 268 460 268.5 Q488 269 512 269 Z M492 744 Q472 751 450 760.5 Q428 770 406 781 Q384 792 364.5 803 Q345 814 330 824 Q310 838 306.5 854 Q303 870 311.5 881 Q320 892 337 895 Q354 898 375 885 Q389 875 405 860 Q421 845 437.5 827.5 Q454 810 470 791.5 Q486 773 500 755 L492 744 Z " />
<glyph glyph-name="Aacute" unicode="&#xc1;" horiz-adv-x="883" d="M532 213 Q505 214 471.5 214.5 Q438 215 403 215 Q368 215 333.5 214.5 Q299 214 272 214 Q267 200 263.5 189 Q260 178 258 171 Q244 126 253 101.5 Q262 77 307 77 L347 77 Q347 74 347 62.5 Q347 51 346.5 37.5 Q346 24 346 12.5 Q346 1 346 -2 Q317 -1 289 -1 Q263 -1 237 -0.5 Q211 0 189 0 Q168 0 141 -0.5 Q114 -1 90 -1 Q61 -1 32 -2 Q32 1 32.5 12.5 Q33 24 33 37.5 Q33 51 32.5 62.5 Q32 74 32 77 L64 77 Q107 77 129 96 Q151 115 169 163 Q174 174 188 212 Q202 250 221.5 302 Q241 354 263 413.5 Q285 473 305.5 528.5 Q326 584 342.5 629 Q359 674 367 696 Q381 695 394 695 Q407 694 419.5 693.5 Q432 693 442 693 Q452 693 465 693.5 Q478 694 489 695 Q502 695 516 696 Q526 667 543.5 621 Q561 575 581.5 521.5 Q602 468 624 412 Q646 356 665.5 306.5 Q685 257 700.5 218.5 Q716 180 724 162 Q745 114 764.5 95.5 Q784 77 814 77 L851 77 L851 -2 Q815 -1 780 -1 Q748 -1 716 -0.5 Q684 0 658 0 Q632 0 598.5 -0.5 Q565 -1 535 -1 Q500 -1 464 -2 Q464 1 464 12.5 Q464 24 464 37.5 Q464 51 464 62.5 Q464 74 464 77 L506 77 Q543 77 553 101.5 Q563 126 546 173 L532 213 Z M512 269 Q500 304 485 344.5 Q470 385 455 425 Q440 465 425.5 502.5 Q411 540 400 568 Q390 540 376 503 Q362 466 347.5 425.5 Q333 385 318.5 344.5 Q304 304 292 269 Q317 269 345.5 268.5 Q374 268 403 268 Q432 268 460 268.5 Q488 269 512 269 Z M399 755 Q413 773 428.5 791.5 Q444 810 460.5 827.5 Q477 845 493.5 860 Q510 875 524 885 Q545 898 562 895 Q579 892 587.5 881 Q596 870 592.5 854 Q589 838 569 824 Q554 814 534.5 803 Q515 792 493 781 Q471 770 449 760.5 Q427 751 407 744 L399 755 Z " />
<glyph glyph-name="Acircumflex" unicode="&#xc2;" horiz-adv-x="883" d="M532 213 Q505 214 471.5 214.5 Q438 215 403 215 Q368 215 333.5 214.5 Q299 214 272 214 Q267 200 263.5 189 Q260 178 258 171 Q244 126 253 101.5 Q262 77 307 77 L347 77 Q347 74 347 62.5 Q347 51 346.5 37.5 Q346 24 346 12.5 Q346 1 346 -2 Q317 -1 289 -1 Q263 -1 237 -0.5 Q211 0 189 0 Q168 0 141 -0.5 Q114 -1 90 -1 Q61 -1 32 -2 Q32 1 32.5 12.5 Q33 24 33 37.5 Q33 51 32.5 62.5 Q32 74 32 77 L64 77 Q107 77 129 96 Q151 115 169 163 Q174 174 188 212 Q202 250 221.5 302 Q241 354 263 413.5 Q285 473 305.5 528.5 Q326 584 342.5 629 Q359 674 367 696 Q381 695 394 695 Q407 694 419.5 693.5 Q432 693 442 693 Q452 693 465 693.5 Q478 694 489 695 Q502 695 516 696 Q526 667 543.5 621 Q561 575 581.5 521.5 Q602 468 624 412 Q646 356 665.5 306.5 Q685 257 700.5 218.5 Q716 180 724 162 Q745 114 764.5 95.5 Q784 77 814 77 L851 77 L851 -2 Q815 -1 780 -1 Q748 -1 716 -0.5 Q684 0 658 0 Q632 0 598.5 -0.5 Q565 -1 535 -1 Q500 -1 464 -2 Q464 1 464 12.5 Q464 24 464 37.5 Q464 51 464 62.5 Q464 74 464 77 L506 77 Q543 77 553 101.5 Q563 126 546 173 L532 213 Z M512 269 Q500 304 485 344.5 Q470 385 455 425 Q440 465 425.5 502.5 Q411 540 400 568 Q390 540 376 503 Q362 466 347.5 425.5 Q333 385 318.5 344.5 Q304 304 292 269 Q317 269 345.5 268.5 Q374 268 403 268 Q432 268 460 268.5 Q488 269 512 269 Z M580 735 Q565 741 546.5 751.5 Q528 762 508.5 774 Q489 786 471 799 Q453 812 440 824 Q427 813 409 800 Q391 787 371.5 774.5 Q352 762 334 752 Q316 742 302 736 L294 746 Q303 766 317.5 786.5 Q332 807 348.5 826 Q365 845 382 861.5 Q399 878 412 890 L471 890 Q485 879 501 863 Q517 847 533 828 Q549 809 563.5 788 Q578 767 588 746 L580 735 Z " />
<glyph glyph-name="Atilde" unicode="&#xc3;" horiz-adv-x="883" d="M532 213 Q505 214 471.5 214.5 Q438 215 403 215 Q368 215 333.5 214.5 Q299 214 272 214 Q267 200 263.5 189 Q260 178 258 171 Q244 126 253 101.5 Q262 77 307 77 L347 77 Q347 74 347 62.5 Q347 51 346.5 37.5 Q346 24 346 12.5 Q346 1 346 -2 Q317 -1 289 -1 Q263 -1 237 -0.5 Q211 0 189 0 Q168 0 141 -0.5 Q114 -1 90 -1 Q61 -1 32 -2 Q32 1 32.5 12.5 Q33 24 33 37.5 Q33 51 32.5 62.5 Q32 74 32 77 L64 77 Q107 77 129 96 Q151 115 169 163 Q174 174 188 212 Q202 250 221.5 302 Q241 354 263 413.5 Q285 473 305.5 528.5 Q326 584 342.5 629 Q359 674 367 696 Q381 695 394 695 Q407 694 419.5 693.5 Q432 693 442 693 Q452 693 465 693.5 Q478 694 489 695 Q502 695 516 696 Q526 667 543.5 621 Q561 575 581.5 521.5 Q602 468 624 412 Q646 356 665.5 306.5 Q685 257 700.5 218.5 Q716 180 724 162 Q745 114 764.5 95.5 Q784 77 814 77 L851 77 L851 -2 Q815 -1 780 -1 Q748 -1 716 -0.5 Q684 0 658 0 Q632 0 598.5 -0.5 Q565 -1 535 -1 Q500 -1 464 -2 Q464 1 464 12.5 Q464 24 464 37.5 Q464 51 464 62.5 Q464 74 464 77 L506 77 Q543 77 553 101.5 Q563 126 546 173 L532 213 Z M512 269 Q500 304 485 344.5 Q470 385 455 425 Q440 465 425.5 502.5 Q411 540 400 568 Q390 540 376 503 Q362 466 347.5 425.5 Q333 385 318.5 344.5 Q304 304 292 269 Q317 269 345.5 268.5 Q374 268 403 268 Q432 268 460 268.5 Q488 269 512 269 Z M586 888 Q598 852 594.5 825 Q591 798 577.5 780 Q564 762 542 753.5 Q520 745 496 745 Q461 745 440 760.5 Q419 776 402 802 Q385 827 374.5 837.5 Q364 848 346 848 Q326 848 317 828.5 Q308 809 319 761 L296 755 Q284 792 287 819 Q290 846 303.5 863.5 Q317 881 339 889.5 Q361 898 386 898 Q415 898 436.5 885.5 Q458 873 479 842 Q495 819 507 807 Q519 795 536 795 Q556 795 565.5 815 Q575 835 564 882 L586 888 Z " />
<glyph glyph-name="Adieresis" unicode="&#xc4;" horiz-adv-x="883" d="M532 213 Q505 214 471.5 214.5 Q438 215 403 215 Q368 215 333.5 214.5 Q299 214 272 214 Q267 200 263.5 189 Q260 178 258 171 Q244 126 253 101.5 Q262 77 307 77 L347 77 Q347 74 347 62.5 Q347 51 346.5 37.5 Q346 24 346 12.5 Q346 1 346 -2 Q317 -1 289 -1 Q263 -1 237 -0.5 Q211 0 189 0 Q168 0 141 -0.5 Q114 -1 90 -1 Q61 -1 32 -2 Q32 1 32.5 12.5 Q33 24 33 37.5 Q33 51 32.5 62.5 Q32 74 32 77 L64 77 Q107 77 129 96 Q151 115 169 163 Q174 174 188 212 Q202 250 221.5 302 Q241 354 263 413.5 Q285 473 305.5 528.5 Q326 584 342.5 629 Q359 674 367 696 Q381 695 394 695 Q407 694 419.5 693.5 Q432 693 442 693 Q452 693 465 693.5 Q478 694 489 695 Q502 695 516 696 Q526 667 543.5 621 Q561 575 581.5 521.5 Q602 468 624 412 Q646 356 665.5 306.5 Q685 257 700.5 218.5 Q716 180 724 162 Q745 114 764.5 95.5 Q784 77 814 77 L851 77 L851 -2 Q815 -1 780 -1 Q748 -1 716 -0.5 Q684 0 658 0 Q632 0 598.5 -0.5 Q565 -1 535 -1 Q500 -1 464 -2 Q464 1 464 12.5 Q464 24 464 37.5 Q464 51 464 62.5 Q464 74 464 77 L506 77 Q543 77 553 101.5 Q563 126 546 173 L532 213 Z M512 269 Q500 304 485 344.5 Q470 385 455 425 Q440 465 425.5 502.5 Q411 540 400 568 Q390 540 376 503 Q362 466 347.5 425.5 Q333 385 318.5 344.5 Q304 304 292 269 Q317 269 345.5 268.5 Q374 268 403 268 Q432 268 460 268.5 Q488 269 512 269 Z M413 812 Q413 787 397.5 771.5 Q382 756 356 756 Q331 756 315 771.5 Q299 787 299 812 Q299 837 315 852.5 Q331 868 356 868 Q382 868 397.5 852.5 Q413 837 413 812 Z M584 812 Q584 787 568.5 771.5 Q553 756 527 756 Q502 756 486 771.5 Q470 787 470 812 Q470 837 486 852.5 Q502 868 527 868 Q553 868 568.5 852.5 Q584 837 584 812 Z " />
<glyph glyph-name="Aring" unicode="&#xc5;" horiz-adv-x="883" d="M532 213 Q505 214 471.5 214.5 Q438 215 403 215 Q368 215 333.5 214.5 Q299 214 272 214 Q267 200 263.5 189 Q260 178 258 171 Q244 126 253 101.5 Q262 77 307 77 L347 77 Q347 74 347 62.5 Q347 51 346.5 37.5 Q346 24 346 12.5 Q346 1 346 -2 Q317 -1 289 -1 Q263 -1 237 -0.5 Q211 0 189 0 Q168 0 141 -0.5 Q114 -1 90 -1 Q61 -1 32 -2 Q32 1 32.5 12.5 Q33 24 33 37.5 Q33 51 32.5 62.5 Q32 74 32 77 L64 77 Q107 77 129 96 Q151 115 169 163 Q174 174 188 212 Q202 250 221.5 302 Q241 354 263 413.5 Q285 473 305.5 528.5 Q326 584 342.5 629 Q359 674 367 696 Q381 695 394 695 Q407 694 419.5 693.5 Q432 693 442 693 Q452 693 465 693.5 Q478 694 489 695 Q502 695 516 696 Q526 667 543.5 621 Q561 575 581.5 521.5 Q602 468 624 412 Q646 356 665.5 306.5 Q685 257 700.5 218.5 Q716 180 724 162 Q745 114 764.5 95.5 Q784 77 814 77 L851 77 L851 -2 Q815 -1 780 -1 Q748 -1 716 -0.5 Q684 0 658 0 Q632 0 598.5 -0.5 Q565 -1 535 -1 Q500 -1 464 -2 Q464 1 464 12.5 Q464 24 464 37.5 Q464 51 464 62.5 Q464 74 464 77 L506 77 Q543 77 553 101.5 Q563 126 546 173 L532 213 Z M512 269 Q500 304 485 344.5 Q470 385 455 425 Q440 465 425.5 502.5 Q411 540 400 568 Q390 540 376 503 Q362 466 347.5 425.5 Q333 385 318.5 344.5 Q304 304 292 269 Q317 269 345.5 268.5 Q374 268 403 268 Q432 268 460 268.5 Q488 269 512 269 Z M490 833 Q490 857 477 869.5 Q464 882 443 882 Q421 882 408.5 869.5 Q396 857 396 833 Q396 808 408.5 794.5 Q421 781 443 781 Q464 781 477 794.5 Q490 808 490 833 Z M529 833 Q529 793 505.5 769 Q482 745 443 745 Q404 745 380 769 Q356 793 356 833 Q356 872 379 895.5 Q402 919 442 919 Q481 919 505 895.5 Q529 872 529 833 Z " />
<glyph glyph-name="AE" unicode="&#xc6;" horiz-adv-x="1084" d="M1051 269 Q1048 241 1046.5 207 Q1045 173 1043.5 137 Q1042 101 1041.5 64.5 Q1041 28 1041 -5 Q1023 -4 996.5 -3 Q970 -2 941.5 -1.5 Q913 -1 886.5 -1 Q860 -1 844 -1 Q769 -1 709 -1 Q672 0 650.5 0 Q629 0 610 0 Q591 0 577 0 Q563 0 560 0 Q544 0 518.5 0 Q493 0 466.5 -0.5 Q440 -1 416.5 -1.5 Q393 -2 382 -2 Q382 1 382.5 12.5 Q383 24 383 37.5 Q383 51 382.5 62.5 Q382 74 382 77 L429 77 Q464 77 476.5 93.5 Q489 110 489 139 Q489 149 489.5 167.5 Q490 186 491 212 Q446 213 396.5 213 Q347 213 305 212 Q299 199 294 189 Q289 179 286 171 Q266 128 269.5 102.5 Q273 77 317 77 L348 77 Q348 74 347.5 62.5 Q347 51 347 37.5 Q347 24 347 12.5 Q347 1 347 -2 Q318 -1 289 -1 Q263 -1 237 -0.5 Q211 0 189 0 Q168 0 141 -0.5 Q114 -1 90 -1 Q61 -1 32 -2 Q32 1 32.5 12.5 Q33 24 33 37.5 Q33 51 32.5 62.5 Q32 74 32 77 L63 77 Q106 77 132 96.5 Q158 116 186 163 Q198 182 223.5 223.5 Q249 265 281 318 Q313 371 348 431.5 Q383 492 414 549 Q431 581 421.5 600 Q412 619 379 619 L357 619 L357 693 Q379 691 410 690 Q441 689 472 688.5 Q503 688 529.5 688 Q556 688 568 688 Q594 688 658 688.5 Q722 689 828 689 Q844 689 873.5 689 Q903 689 936 689.5 Q969 690 999 691.5 Q1029 693 1047 695 Q1045 668 1044 634.5 Q1043 601 1042 567 Q1041 533 1041 500 Q1041 467 1041 440 Q1038 440 1027 440 Q1016 440 1003.5 440 Q991 440 980 440 Q969 440 966 440 L966 446 Q966 496 957.5 528 Q949 560 932 578.5 Q915 597 888 604 Q861 611 823 611 L697 611 Q670 611 658.5 597.5 Q647 584 645 559 Q643 538 642.5 487.5 Q642 437 642 377 L693 377 Q747 377 770 401 Q793 425 793 482 L793 503 L859 503 Q858 481 857.5 465 Q857 449 856.5 432.5 Q856 416 855.5 396.5 Q855 377 855 350 Q855 322 855 301 Q855 280 855.5 262 Q856 244 857 227.5 Q858 211 859 192 L795 192 L795 210 Q794 270 769.5 296 Q745 322 680 322 L642 322 Q642 259 642.5 206.5 Q643 154 645 133 Q647 101 661.5 89 Q676 77 701 77 L822 77 Q904 77 936.5 119.5 Q969 162 969 258 L969 269 Q972 269 984 268.5 Q996 268 1010 268 Q1024 268 1036 268.5 Q1048 269 1051 269 Z M334 267 Q372 266 412.5 266 Q453 266 491 267 Q491 305 491 346 Q491 387 491 425.5 Q491 464 490 495.5 Q489 527 488 545 Q447 477 406.5 402 Q366 327 334 267 Z " />
<glyph glyph-name="Ccedilla" unicode="&#xc7;" horiz-adv-x="732" d="M306 -92 Q334 -77 349.5 -60 Q365 -43 372 -19 Q296 -18 235.5 3 Q175 24 132.5 67.5 Q90 111 67 179.5 Q44 248 44 346 Q44 441 69.5 510 Q95 579 140 623.5 Q185 668 246.5 689 Q308 710 380 710 Q450 710 490.5 694.5 Q531 679 552 667 Q588 647 600.5 653.5 Q613 660 618 698 Q621 698 631.5 697.5 Q642 697 654.5 697 Q667 697 677.5 697.5 Q688 698 690 698 Q687 679 683.5 647.5 Q680 616 677.5 579.5 Q675 543 674 506.5 Q673 470 674 441 Q655 443 626 443 Q597 443 578 441 Q573 481 563 515.5 Q553 550 533.5 575.5 Q514 601 482 616 Q450 631 401 631 Q354 631 320 615.5 Q286 600 264.5 566 Q243 532 232.5 477.5 Q222 423 222 346 Q222 258 235.5 202 Q249 146 272 114.5 Q295 83 326.5 71 Q358 59 395 59 Q486 59 534 115 Q582 171 586 269 Q595 268 608.5 268 Q622 268 637 268 Q652 268 666 268 Q680 268 689 269 Q686 198 669 144.5 Q652 91 618 55.5 Q584 20 531 1.5 Q478 -17 403 -19 Q400 -33 392.5 -48 Q385 -63 372 -76 Q393 -73 413 -76.5 Q433 -80 449 -89.5 Q465 -99 475 -115 Q485 -131 485 -154 Q485 -199 453.5 -224 Q422 -249 366 -249 Q323 -249 297 -230 Q271 -211 260 -189 L282 -171 Q295 -188 310.5 -197.5 Q326 -207 349 -207 Q378 -207 392 -192.5 Q406 -178 406 -153 Q406 -122 379.5 -110.5 Q353 -99 318 -113 L306 -92 Z " />
<glyph glyph-name="Egrave" unicode="&#xc8;" horiz-adv-x="733" d="M442 503 L507 503 Q506 481 505.5 465 Q505 449 504.5 432.5 Q504 416 503.5 396.5 Q503 377 503 350 Q503 322 503 301 Q503 280 503.5 262 Q504 244 505 227.5 Q506 211 507 192 L444 192 L444 210 Q442 270 418 296 Q394 322 329 322 L290 322 Q290 259 290.5 206.5 Q291 154 293 133 Q295 101 310 89 Q325 77 349 77 L471 77 Q513 77 541 87.5 Q569 98 586.5 121 Q604 144 611 180.5 Q618 217 618 269 Q621 269 633 268.5 Q645 268 659 268 Q673 268 685 268.5 Q697 269 700 269 Q697 241 695.5 207 Q694 173 692.5 137 Q691 101 690.5 64.5 Q690 28 690 -5 Q671 -4 643 -3 Q615 -2 586.5 -1 Q558 0 531.5 0 Q505 0 487 0 L213 0 Q193 0 162.5 -0.5 Q132 -1 103.5 -1 Q75 -1 54.5 -1.5 Q34 -2 32 -2 Q32 1 32.5 12.5 Q33 24 33 37.5 Q33 51 32.5 62.5 Q32 74 32 77 L77 77 Q112 77 123.5 93.5 Q135 110 137 139 Q138 153 138.5 185 Q139 217 139.5 258.5 Q140 300 140 346 Q140 392 139.5 434 Q139 476 138.5 509 Q138 542 137 556 Q135 588 122.5 600.5 Q110 613 83 613 L32 613 Q32 616 32.5 627.5 Q33 639 33 651.5 Q33 664 32.5 675.5 Q32 687 32 690 Q38 690 63 689.5 Q88 689 118 689 Q148 689 176 688.5 Q204 688 217 688 Q243 688 313 688.5 Q383 689 477 689 Q493 689 522.5 689 Q552 689 585 689.5 Q618 690 648 691.5 Q678 693 696 695 Q694 668 692.5 634.5 Q691 601 690.5 566.5 Q690 532 690 499 Q690 466 690 439 L615 439 Q615 492 607 525 Q599 558 582 577.5 Q565 597 538 604 Q511 611 472 611 L346 611 Q319 611 307 597.5 Q295 584 293 559 Q291 538 290.5 487.5 Q290 437 290 377 L331 377 Q390 377 416 399.5 Q442 422 442 482 L442 503 Z M451 744 Q431 751 409 760.5 Q387 770 365 781 Q343 792 323.5 803 Q304 814 289 824 Q269 838 265.5 854 Q262 870 270.5 881 Q279 892 296 895 Q313 898 334 885 Q348 875 364 860 Q380 845 396.5 827.5 Q413 810 429 791.5 Q445 773 459 755 L451 744 Z " />
<glyph glyph-name="Eacute" unicode="&#xc9;" horiz-adv-x="733" d="M338 755 Q352 773 367.5 791.5 Q383 810 399.5 827.5 Q416 845 432.5 860 Q449 875 463 885 Q484 898 501 895 Q518 892 526.5 881 Q535 870 531.5 854 Q528 838 508 824 Q493 814 473.5 803 Q454 792 432 781 Q410 770 388 760.5 Q366 751 346 744 L338 755 Z M442 503 L507 503 Q506 481 505.5 465 Q505 449 504.5 432.5 Q504 416 503.5 396.5 Q503 377 503 350 Q503 322 503 301 Q503 280 503.5 262 Q504 244 505 227.5 Q506 211 507 192 L444 192 L444 210 Q442 270 418 296 Q394 322 329 322 L290 322 Q290 259 290.5 206.5 Q291 154 293 133 Q295 101 310 89 Q325 77 349 77 L471 77 Q513 77 541 87.5 Q569 98 586.5 121 Q604 144 611 180.5 Q618 217 618 269 Q621 269 633 268.5 Q645 268 659 268 Q673 268 685 268.5 Q697 269 700 269 Q697 241 695.5 207 Q694 173 692.5 137 Q691 101 690.5 64.5 Q690 28 690 -5 Q671 -4 643 -3 Q615 -2 586.5 -1 Q558 0 531.5 0 Q505 0 487 0 L213 0 Q193 0 162.5 -0.5 Q132 -1 103.5 -1 Q75 -1 54.5 -1.5 Q34 -2 32 -2 Q32 1 32.5 12.5 Q33 24 33 37.5 Q33 51 32.5 62.5 Q32 74 32 77 L77 77 Q112 77 123.5 93.5 Q135 110 137 139 Q138 153 138.5 185 Q139 217 139.5 258.5 Q140 300 140 346 Q140 392 139.5 434 Q139 476 138.5 509 Q138 542 137 556 Q135 588 122.5 600.5 Q110 613 83 613 L32 613 Q32 616 32.5 627.5 Q33 639 33 651.5 Q33 664 32.5 675.5 Q32 687 32 690 Q38 690 63 689.5 Q88 689 118 689 Q148 689 176 688.5 Q204 688 217 688 Q243 688 313 688.5 Q383 689 477 689 Q493 689 522.5 689 Q552 689 585 689.5 Q618 690 648 691.5 Q678 693 696 695 Q694 668 692.5 634.5 Q691 601 690.5 566.5 Q690 532 690 499 Q690 466 690 439 L615 439 Q615 492 607 525 Q599 558 582 577.5 Q565 597 538 604 Q511 611 472 611 L346 611 Q319 611 307 597.5 Q295 584 293 559 Q291 538 290.5 487.5 Q290 437 290 377 L331 377 Q390 377 416 399.5 Q442 422 442 482 L442 503 Z " />
<glyph glyph-name="Ecircumflex" unicode="&#xca;" horiz-adv-x="733" d="M530 735 Q515 741 496.5 751.5 Q478 762 458.5 774 Q439 786 421 799 Q403 812 390 824 Q377 813 359 800 Q341 787 321.5 774.5 Q302 762 284 752 Q266 742 252 736 L244 746 Q253 766 267.5 786.5 Q282 807 298.5 826 Q315 845 332 861.5 Q349 878 362 890 L421 890 Q435 879 451 863 Q467 847 483 828 Q499 809 513.5 788 Q528 767 538 746 L530 735 Z M442 503 L507 503 Q506 481 505.5 465 Q505 449 504.5 432.5 Q504 416 503.5 396.5 Q503 377 503 350 Q503 322 503 301 Q503 280 503.5 262 Q504 244 505 227.5 Q506 211 507 192 L444 192 L444 210 Q442 270 418 296 Q394 322 329 322 L290 322 Q290 259 290.5 206.5 Q291 154 293 133 Q295 101 310 89 Q325 77 349 77 L471 77 Q513 77 541 87.5 Q569 98 586.5 121 Q604 144 611 180.5 Q618 217 618 269 Q621 269 633 268.5 Q645 268 659 268 Q673 268 685 268.5 Q697 269 700 269 Q697 241 695.5 207 Q694 173 692.5 137 Q691 101 690.5 64.5 Q690 28 690 -5 Q671 -4 643 -3 Q615 -2 586.5 -1 Q558 0 531.5 0 Q505 0 487 0 L213 0 Q193 0 162.5 -0.5 Q132 -1 103.5 -1 Q75 -1 54.5 -1.5 Q34 -2 32 -2 Q32 1 32.5 12.5 Q33 24 33 37.5 Q33 51 32.5 62.5 Q32 74 32 77 L77 77 Q112 77 123.5 93.5 Q135 110 137 139 Q138 153 138.5 185 Q139 217 139.5 258.5 Q140 300 140 346 Q140 392 139.5 434 Q139 476 138.5 509 Q138 542 137 556 Q135 588 122.5 600.5 Q110 613 83 613 L32 613 Q32 616 32.5 627.5 Q33 639 33 651.5 Q33 664 32.5 675.5 Q32 687 32 690 Q38 690 63 689.5 Q88 689 118 689 Q148 689 176 688.5 Q204 688 217 688 Q243 688 313 688.5 Q383 689 477 689 Q493 689 522.5 689 Q552 689 585 689.5 Q618 690 648 691.5 Q678 693 696 695 Q694 668 692.5 634.5 Q691 601 690.5 566.5 Q690 532 690 499 Q690 466 690 439 L615 439 Q615 492 607 525 Q599 558 582 577.5 Q565 597 538 604 Q511 611 472 611 L346 611 Q319 611 307 597.5 Q295 584 293 559 Q291 538 290.5 487.5 Q290 437 290 377 L331 377 Q390 377 416 399.5 Q442 422 442 482 L442 503 Z " />
<glyph glyph-name="Edieresis" unicode="&#xcb;" horiz-adv-x="733" d="M364 812 Q364 787 348.5 771.5 Q333 756 307 756 Q282 756 266 771.5 Q250 787 250 812 Q250 837 266 852.5 Q282 868 307 868 Q333 868 348.5 852.5 Q364 837 364 812 Z M535 812 Q535 787 519.5 771.5 Q504 756 478 756 Q453 756 437 771.5 Q421 787 421 812 Q421 837 437 852.5 Q453 868 478 868 Q504 868 519.5 852.5 Q535 837 535 812 Z M442 503 L507 503 Q506 481 505.5 465 Q505 449 504.5 432.5 Q504 416 503.5 396.5 Q503 377 503 350 Q503 322 503 301 Q503 280 503.5 262 Q504 244 505 227.5 Q506 211 507 192 L444 192 L444 210 Q442 270 418 296 Q394 322 329 322 L290 322 Q290 259 290.5 206.5 Q291 154 293 133 Q295 101 310 89 Q325 77 349 77 L471 77 Q513 77 541 87.5 Q569 98 586.5 121 Q604 144 611 180.5 Q618 217 618 269 Q621 269 633 268.5 Q645 268 659 268 Q673 268 685 268.5 Q697 269 700 269 Q697 241 695.5 207 Q694 173 692.5 137 Q691 101 690.5 64.5 Q690 28 690 -5 Q671 -4 643 -3 Q615 -2 586.5 -1 Q558 0 531.5 0 Q505 0 487 0 L213 0 Q193 0 162.5 -0.5 Q132 -1 103.5 -1 Q75 -1 54.5 -1.5 Q34 -2 32 -2 Q32 1 32.5 12.5 Q33 24 33 37.5 Q33 51 32.5 62.5 Q32 74 32 77 L77 77 Q112 77 123.5 93.5 Q135 110 137 139 Q138 153 138.5 185 Q139 217 139.5 258.5 Q140 300 140 346 Q140 392 139.5 434 Q139 476 138.5 509 Q138 542 137 556 Q135 588 122.5 600.5 Q110 613 83 613 L32 613 Q32 616 32.5 627.5 Q33 639 33 651.5 Q33 664 32.5 675.5 Q32 687 32 690 Q38 690 63 689.5 Q88 689 118 689 Q148 689 176 688.5 Q204 688 217 688 Q243 688 313 688.5 Q383 689 477 689 Q493 689 522.5 689 Q552 689 585 689.5 Q618 690 648 691.5 Q678 693 696 695 Q694 668 692.5 634.5 Q691 601 690.5 566.5 Q690 532 690 499 Q690 466 690 439 L615 439 Q615 492 607 525 Q599 558 582 577.5 Q565 597 538 604 Q511 611 472 611 L346 611 Q319 611 307 597.5 Q295 584 293 559 Q291 538 290.5 487.5 Q290 437 290 377 L331 377 Q390 377 416 399.5 Q442 422 442 482 L442 503 Z " />
<glyph glyph-name="Igrave" unicode="&#xcc;" horiz-adv-x="428" d="M35 77 L82 77 Q114 77 125 86.5 Q136 96 137 122 Q138 138 138.5 173 Q139 208 139 252.5 Q139 297 139 345.5 Q139 394 139 437.5 Q139 481 138.5 514.5 Q138 548 137 561 Q135 590 123.5 601.5 Q112 613 85 613 L35 613 L35 690 Q68 689 101 689 Q131 688 161 687.5 Q191 687 215 687 Q239 687 268.5 687.5 Q298 688 324 688.5 Q350 689 370 689.5 Q390 690 394 690 L394 613 L344 613 Q317 613 305.5 601.5 Q294 590 292 561 Q291 548 290.5 514.5 Q290 481 289.5 437.5 Q289 394 289 345.5 Q289 297 289.5 252.5 Q290 208 290.5 173 Q291 138 292 122 Q293 96 304.5 86.5 Q316 77 348 77 L394 77 L394 -2 Q361 -1 329 -1 Q299 -1 269 -0.5 Q239 0 215 0 Q191 0 160 -0.5 Q129 -1 101 -1 Q68 -1 35 -2 L35 77 Z M265 744 Q245 751 223 760.5 Q201 770 179 781 Q157 792 137.5 803 Q118 814 103 824 Q83 838 79.5 854 Q76 870 84.5 881 Q93 892 110 895 Q127 898 148 885 Q162 875 178 860 Q194 845 210.5 827.5 Q227 810 243 791.5 Q259 773 273 755 L265 744 Z " />
<glyph glyph-name="Iacute" unicode="&#xcd;" horiz-adv-x="428" d="M35 77 L82 77 Q114 77 125 86.5 Q136 96 137 122 Q138 138 138.5 173 Q139 208 139 252.5 Q139 297 139 345.5 Q139 394 139 437.5 Q139 481 138.5 514.5 Q138 548 137 561 Q135 590 123.5 601.5 Q112 613 85 613 L35 613 L35 690 Q68 689 101 689 Q131 688 161 687.5 Q191 687 215 687 Q239 687 268.5 687.5 Q298 688 324 688.5 Q350 689 370 689.5 Q390 690 394 690 L394 613 L344 613 Q317 613 305.5 601.5 Q294 590 292 561 Q291 548 290.5 514.5 Q290 481 289.5 437.5 Q289 394 289 345.5 Q289 297 289.5 252.5 Q290 208 290.5 173 Q291 138 292 122 Q293 96 304.5 86.5 Q316 77 348 77 L394 77 L394 -2 Q361 -1 329 -1 Q299 -1 269 -0.5 Q239 0 215 0 Q191 0 160 -0.5 Q129 -1 101 -1 Q68 -1 35 -2 L35 77 Z M172 755 Q186 773 201.5 791.5 Q217 810 233.5 827.5 Q250 845 266.5 860 Q283 875 297 885 Q318 898 335 895 Q352 892 360.5 881 Q369 870 365.5 854 Q362 838 342 824 Q327 814 307.5 803 Q288 792 266 781 Q244 770 222 760.5 Q200 751 180 744 L172 755 Z " />
<glyph glyph-name="Icircumflex" unicode="&#xce;" horiz-adv-x="428" d="M35 77 L82 77 Q114 77 125 86.5 Q136 96 137 122 Q138 138 138.5 173 Q139 208 139 252.5 Q139 297 139 345.5 Q139 394 139 437.5 Q139 481 138.5 514.5 Q138 548 137 561 Q135 590 123.5 601.5 Q112 613 85 613 L35 613 L35 690 Q68 689 101 689 Q131 688 161 687.5 Q191 687 215 687 Q239 687 268.5 687.5 Q298 688 324 688.5 Q350 689 370 689.5 Q390 690 394 690 L394 613 L344 613 Q317 613 305.5 601.5 Q294 590 292 561 Q291 548 290.5 514.5 Q290 481 289.5 437.5 Q289 394 289 345.5 Q289 297 289.5 252.5 Q290 208 290.5 173 Q291 138 292 122 Q293 96 304.5 86.5 Q316 77 348 77 L394 77 L394 -2 Q361 -1 329 -1 Q299 -1 269 -0.5 Q239 0 215 0 Q191 0 160 -0.5 Q129 -1 101 -1 Q68 -1 35 -2 L35 77 Z M353 735 Q338 741 319.5 751.5 Q301 762 281.5 774 Q262 786 244 799 Q226 812 213 824 Q200 813 182 800 Q164 787 144.5 774.5 Q125 762 107 752 Q89 742 75 736 L67 746 Q76 766 90.5 786.5 Q105 807 121.5 826 Q138 845 155 861.5 Q172 878 185 890 L244 890 Q258 879 274 863 Q290 847 306 828 Q322 809 336.5 788 Q351 767 361 746 L353 735 Z " />
<glyph glyph-name="Idieresis" unicode="&#xcf;" horiz-adv-x="428" d="M35 77 L82 77 Q114 77 125 86.5 Q136 96 137 122 Q138 138 138.5 173 Q139 208 139 252.5 Q139 297 139 345.5 Q139 394 139 437.5 Q139 481 138.5 514.5 Q138 548 137 561 Q135 590 123.5 601.5 Q112 613 85 613 L35 613 L35 690 Q68 689 101 689 Q131 688 161 687.5 Q191 687 215 687 Q239 687 268.5 687.5 Q298 688 324 688.5 Q350 689 370 689.5 Q390 690 394 690 L394 613 L344 613 Q317 613 305.5 601.5 Q294 590 292 561 Q291 548 290.5 514.5 Q290 481 289.5 437.5 Q289 394 289 345.5 Q289 297 289.5 252.5 Q290 208 290.5 173 Q291 138 292 122 Q293 96 304.5 86.5 Q316 77 348 77 L394 77 L394 -2 Q361 -1 329 -1 Q299 -1 269 -0.5 Q239 0 215 0 Q191 0 160 -0.5 Q129 -1 101 -1 Q68 -1 35 -2 L35 77 Z M185 812 Q185 787 169.5 771.5 Q154 756 128 756 Q103 756 87 771.5 Q71 787 71 812 Q71 837 87 852.5 Q103 868 128 868 Q154 868 169.5 852.5 Q185 837 185 812 Z M356 812 Q356 787 340.5 771.5 Q325 756 299 756 Q274 756 258 771.5 Q242 787 242 812 Q242 837 258 852.5 Q274 868 299 868 Q325 868 340.5 852.5 Q356 837 356 812 Z " />
<glyph glyph-name="Eth" unicode="&#xd0;" horiz-adv-x="787" d="M399 689 Q579 689 660.5 607 Q742 525 744 350 Q745 253 719 185.5 Q693 118 646.5 77 Q600 36 537 17.5 Q474 -1 401 -1 Q365 -1 330 -1 Q299 0 268.5 0 Q238 0 216 0 Q196 0 164.5 -0.5 Q133 -1 104 -1 Q69 -1 32 -2 Q32 1 32.5 12.5 Q33 24 33 37.5 Q33 51 32.5 62.5 Q32 74 32 77 L77 77 Q112 77 124 86.5 Q136 96 137 125 Q138 148 138.5 201 Q139 254 139 317 Q115 317 95 316.5 Q75 316 63 316 L63 390 Q75 389 95 388.5 Q115 388 139 388 Q139 446 138.5 494 Q138 542 137 560 Q135 590 123 601.5 Q111 613 84 613 L32 613 Q32 616 32.5 627.5 Q33 639 33 651.5 Q33 664 32.5 675.5 Q32 687 32 690 Q38 690 60 689.5 Q82 689 110 689 Q138 689 168 688.5 Q198 688 219 688 Q239 688 268.5 688 Q298 688 325.5 688.5 Q353 689 374 689 Q395 689 399 689 Z M292 120 Q293 96 306 84.5 Q319 73 336 73 L377 73 Q430 73 468 85.5 Q506 98 531 129.5 Q556 161 567.5 214.5 Q579 268 579 351 Q579 426 568.5 477 Q558 528 534 559 Q510 590 472 603.5 Q434 617 378 617 L336 617 Q312 617 302.5 605 Q293 593 292 576 Q290 553 289.5 501 Q289 449 289 388 Q323 388 351 388.5 Q379 389 396 390 L396 316 Q379 316 351 316.5 Q323 317 289 317 Q289 253 289.5 198.5 Q290 144 292 120 Z " />
<glyph glyph-name="Ntilde" unicode="&#xd1;" horiz-adv-x="832" d="M295 690 Q321 650 360 592 Q399 534 442.5 471 Q486 408 528.5 346.5 Q571 285 604 239 Q605 276 605 322.5 Q605 369 605 414 Q605 459 604.5 497 Q604 535 603 555 Q601 589 587.5 601 Q574 613 547 613 L490 613 L490 690 Q495 690 511.5 689.5 Q528 689 551 688.5 Q574 688 599 687.5 Q624 687 645 687 Q666 687 692.5 687.5 Q719 688 743 689 Q771 689 799 690 L799 613 L747 613 Q720 613 706 600.5 Q692 588 690 555 Q689 541 688.5 503.5 Q688 466 688 415 Q688 364 688 305 Q688 246 688 189.5 Q688 133 688.5 83 Q689 33 690 0 Q680 1 664.5 1.5 Q649 2 632.5 2 Q616 2 600.5 1.5 Q585 1 574 0 Q545 45 502.5 108 Q460 171 413 241.5 Q366 312 317.5 383.5 Q269 455 227 515 Q227 465 226.5 405.5 Q226 346 226.5 290.5 Q227 235 227.5 191 Q228 147 229 127 Q231 100 243.5 88.5 Q256 77 291 77 L345 77 L345 -2 Q316 -1 288 -1 Q262 -1 236 -0.5 Q210 0 189 0 Q167 0 140 -0.5 Q113 -1 89 -1 Q61 -1 32 -2 Q32 1 32.5 12.5 Q33 24 33 37.5 Q33 51 32.5 62.5 Q32 74 32 77 L80 77 Q115 77 128 88.5 Q141 100 142 127 Q143 144 143.5 178.5 Q144 213 144.5 256.5 Q145 300 145 347.5 Q145 395 144.5 437 Q144 479 143.5 512 Q143 545 142 558 Q140 587 127 600 Q114 613 86 613 L33 613 Q33 616 33.5 627.5 Q34 639 34 651.5 Q34 664 33.5 675.5 Q33 687 33 690 Q57 689 92 689 Q127 689 164 689 Q201 689 236 689 Q271 689 295 690 Z M545 888 Q557 852 553.5 825 Q550 798 536.5 780 Q523 762 501 753.5 Q479 745 455 745 Q420 745 399 760.5 Q378 776 361 802 Q344 827 333.5 837.5 Q323 848 305 848 Q285 848 276 828.5 Q267 809 278 761 L255 755 Q243 792 246 819 Q249 846 262.5 863.5 Q276 881 298 889.5 Q320 898 345 898 Q374 898 395.5 885.5 Q417 873 438 842 Q454 819 466 807 Q478 795 495 795 Q515 795 524.5 815 Q534 835 523 882 L545 888 Z " />
<glyph glyph-name="Ograve" unicode="&#xd2;" horiz-adv-x="777" d="M389 57 Q485 57 523 127.5 Q561 198 561 346 Q561 425 551.5 479.5 Q542 534 521.5 568.5 Q501 603 468.5 618.5 Q436 634 389 634 Q299 634 258 564.5 Q217 495 217 345 Q217 267 225.5 212.5 Q234 158 254 123.5 Q274 89 307 73 Q340 57 389 57 Z M389 -19 Q218 -19 131 72.5 Q44 164 44 345 Q44 435 69.5 503.5 Q95 572 140.5 617.5 Q186 663 249.5 686 Q313 709 389 709 Q561 709 647 618 Q733 527 733 346 Q733 255 707 186.5 Q681 118 635 72.5 Q589 27 526 4 Q463 -19 389 -19 Z M439 744 Q419 751 397 760.5 Q375 770 353 781 Q331 792 311.5 803 Q292 814 277 824 Q257 838 253.5 854 Q250 870 258.5 881 Q267 892 284 895 Q301 898 322 885 Q336 875 352 860 Q368 845 384.5 827.5 Q401 810 417 791.5 Q433 773 447 755 L439 744 Z " />
<glyph glyph-name="Oacute" unicode="&#xd3;" horiz-adv-x="777" d="M346 755 Q360 773 375.5 791.5 Q391 810 407.5 827.5 Q424 845 440.5 860 Q457 875 471 885 Q492 898 509 895 Q526 892 534.5 881 Q543 870 539.5 854 Q536 838 516 824 Q501 814 481.5 803 Q462 792 440 781 Q418 770 396 760.5 Q374 751 354 744 L346 755 Z M389 57 Q485 57 523 127.5 Q561 198 561 346 Q561 425 551.5 479.5 Q542 534 521.5 568.5 Q501 603 468.5 618.5 Q436 634 389 634 Q299 634 258 564.5 Q217 495 217 345 Q217 267 225.5 212.5 Q234 158 254 123.5 Q274 89 307 73 Q340 57 389 57 Z M389 -19 Q218 -19 131 72.5 Q44 164 44 345 Q44 435 69.5 503.5 Q95 572 140.5 617.5 Q186 663 249.5 686 Q313 709 389 709 Q561 709 647 618 Q733 527 733 346 Q733 255 707 186.5 Q681 118 635 72.5 Q589 27 526 4 Q463 -19 389 -19 Z " />
<glyph glyph-name="Ocircumflex" unicode="&#xd4;" horiz-adv-x="777" d="M527 735 Q512 741 493.5 751.5 Q475 762 455.5 774 Q436 786 418 799 Q400 812 387 824 Q374 813 356 800 Q338 787 318.5 774.5 Q299 762 281 752 Q263 742 249 736 L241 746 Q250 766 264.5 786.5 Q279 807 295.5 826 Q312 845 329 861.5 Q346 878 359 890 L418 890 Q432 879 448 863 Q464 847 480 828 Q496 809 510.5 788 Q525 767 535 746 L527 735 Z M389 57 Q485 57 523 127.5 Q561 198 561 346 Q561 425 551.5 479.5 Q542 534 521.5 568.5 Q501 603 468.5 618.5 Q436 634 389 634 Q299 634 258 564.5 Q217 495 217 345 Q217 267 225.5 212.5 Q234 158 254 123.5 Q274 89 307 73 Q340 57 389 57 Z M389 -19 Q218 -19 131 72.5 Q44 164 44 345 Q44 435 69.5 503.5 Q95 572 140.5 617.5 Q186 663 249.5 686 Q313 709 389 709 Q561 709 647 618 Q733 527 733 346 Q733 255 707 186.5 Q681 118 635 72.5 Q589 27 526 4 Q463 -19 389 -19 Z " />
<glyph glyph-name="Otilde" unicode="&#xd5;" horiz-adv-x="777" d="M389 57 Q485 57 523 127.5 Q561 198 561 346 Q561 425 551.5 479.5 Q542 534 521.5 568.5 Q501 603 468.5 618.5 Q436 634 389 634 Q299 634 258 564.5 Q217 495 217 345 Q217 267 225.5 212.5 Q234 158 254 123.5 Q274 89 307 73 Q340 57 389 57 Z M389 -19 Q218 -19 131 72.5 Q44 164 44 345 Q44 435 69.5 503.5 Q95 572 140.5 617.5 Q186 663 249.5 686 Q313 709 389 709 Q561 709 647 618 Q733 527 733 346 Q733 255 707 186.5 Q681 118 635 72.5 Q589 27 526 4 Q463 -19 389 -19 Z M533 888 Q545 852 541.5 825 Q538 798 524.5 780 Q511 762 489 753.5 Q467 745 443 745 Q408 745 387 760.5 Q366 776 349 802 Q332 827 321.5 837.5 Q311 848 293 848 Q273 848 264 828.5 Q255 809 266 761 L243 755 Q231 792 234 819 Q237 846 250.5 863.5 Q264 881 286 889.5 Q308 898 333 898 Q362 898 383.5 885.5 Q405 873 426 842 Q442 819 454 807 Q466 795 483 795 Q503 795 512.5 815 Q522 835 511 882 L533 888 Z " />
<glyph glyph-name="Odieresis" unicode="&#xd6;" horiz-adv-x="777" d="M368 812 Q368 787 352.5 771.5 Q337 756 311 756 Q286 756 270 771.5 Q254 787 254 812 Q254 837 270 852.5 Q286 868 311 868 Q337 868 352.5 852.5 Q368 837 368 812 Z M539 812 Q539 787 523.5 771.5 Q508 756 482 756 Q457 756 441 771.5 Q425 787 425 812 Q425 837 441 852.5 Q457 868 482 868 Q508 868 523.5 852.5 Q539 837 539 812 Z M389 57 Q485 57 523 127.5 Q561 198 561 346 Q561 425 551.5 479.5 Q542 534 521.5 568.5 Q501 603 468.5 618.5 Q436 634 389 634 Q299 634 258 564.5 Q217 495 217 345 Q217 267 225.5 212.5 Q234 158 254 123.5 Q274 89 307 73 Q340 57 389 57 Z M389 -19 Q218 -19 131 72.5 Q44 164 44 345 Q44 435 69.5 503.5 Q95 572 140.5 617.5 Q186 663 249.5 686 Q313 709 389 709 Q561 709 647 618 Q733 527 733 346 Q733 255 707 186.5 Q681 118 635 72.5 Q589 27 526 4 Q463 -19 389 -19 Z " />
<glyph glyph-name="multiply" unicode="&#xd7;" horiz-adv-x="600" d="M433 66 Q426 74 409.5 91.5 Q393 109 373 130.5 Q353 152 333 175.5 Q313 199 299 217 Q285 199 266.5 177.5 Q248 156 229.5 135 Q211 114 194 96 Q177 78 167 67 L116 118 Q126 128 144 145 Q162 162 183 180.5 Q204 199 226 218 Q248 237 266 250 Q248 264 226.5 282.5 Q205 301 184 319.5 Q163 338 145 355 Q127 372 116 382 L167 432 Q177 422 194 404 Q211 386 229.5 365 Q248 344 267 322.5 Q286 301 299 283 Q313 301 331.5 323 Q350 345 368.5 366 Q387 387 404.5 405 Q422 423 432 433 L482 383 Q472 373 454 356 Q436 339 415 319.5 Q394 300 372.5 281.5 Q351 263 333 250 Q351 236 374 216 Q397 196 419 176 Q441 156 458.5 139.5 Q476 123 483 116 L433 66 Z " />
<glyph glyph-name="Oslash" unicode="&#xd8;" horiz-adv-x="777" d="M389 -19 Q255 -19 172 38 L92 -42 L67 -23 L134 71 Q44 163 44 345 Q44 435 69.5 503.5 Q95 572 140.5 617.5 Q186 663 249.5 686 Q313 709 389 709 Q526 709 611 648 L695 735 L717 718 L647 616 Q733 525 733 346 Q733 255 707 186.5 Q681 118 635 72.5 Q589 27 526 4 Q463 -19 389 -19 Z M217 345 Q217 295 220 255 Q223 215 231 183 L380 355 L531 550 Q511 595 476.5 614.5 Q442 634 389 634 Q299 634 258 564.5 Q217 495 217 345 Z M389 57 Q485 57 523 127.5 Q561 198 561 346 Q561 440 548 499 L407 340 L248 134 Q268 93 301.5 75 Q335 57 389 57 Z " />
<glyph glyph-name="Ugrave" unicode="&#xd9;" horiz-adv-x="833" d="M123 274 Q123 281 123.5 316 Q124 351 124 395 Q124 439 124 483 Q124 527 123 552 Q122 585 110.5 599 Q99 613 70 613 L32 613 Q32 616 32.5 627.5 Q33 639 33 651.5 Q33 664 32.5 675.5 Q32 687 32 690 Q64 689 96 689 Q125 688 154 687.5 Q183 687 207 687 Q231 687 259 687.5 Q287 688 313 688.5 Q339 689 358.5 689.5 Q378 690 384 690 L384 613 L342 613 Q313 613 298 600 Q283 587 283 552 Q283 527 282.5 482.5 Q282 438 282 393.5 Q282 349 282.5 313.5 Q283 278 283 271 Q284 160 324 115.5 Q364 71 443 71 Q482 71 512.5 81 Q543 91 563 114 Q583 137 594 175.5 Q605 214 605 271 Q606 332 606.5 405 Q607 478 605 552 Q604 613 547 613 L506 613 L506 690 Q533 689 559 689 Q584 688 608.5 687.5 Q633 687 653 687 Q673 687 696.5 687.5 Q720 688 741 688.5 Q762 689 778.5 689.5 Q795 690 801 690 L801 613 L763 613 Q735 613 722.5 597.5 Q710 582 709 552 Q707 474 708 403.5 Q709 333 709 275 Q709 123 637.5 50.5 Q566 -22 426 -22 Q273 -22 198 47.5 Q123 117 123 274 Z M469 744 Q449 751 427 760.5 Q405 770 383 781 Q361 792 341.5 803 Q322 814 307 824 Q287 838 283.5 854 Q280 870 288.5 881 Q297 892 314 895 Q331 898 352 885 Q366 875 382 860 Q398 845 414.5 827.5 Q431 810 447 791.5 Q463 773 477 755 L469 744 Z " />
<glyph glyph-name="Uacute" unicode="&#xda;" horiz-adv-x="833" d="M424 755 Q438 773 453.5 791.5 Q469 810 485.5 827.5 Q502 845 518.5 860 Q535 875 549 885 Q570 898 587 895 Q604 892 612.5 881 Q621 870 617.5 854 Q614 838 594 824 Q579 814 559.5 803 Q540 792 518 781 Q496 770 474 760.5 Q452 751 432 744 L424 755 Z M123 274 Q123 281 123.5 316 Q124 351 124 395 Q124 439 124 483 Q124 527 123 552 Q122 585 110.5 599 Q99 613 70 613 L32 613 Q32 616 32.5 627.5 Q33 639 33 651.5 Q33 664 32.5 675.5 Q32 687 32 690 Q64 689 96 689 Q125 688 154 687.5 Q183 687 207 687 Q231 687 259 687.5 Q287 688 313 688.5 Q339 689 358.5 689.5 Q378 690 384 690 L384 613 L342 613 Q313 613 298 600 Q283 587 283 552 Q283 527 282.5 482.5 Q282 438 282 393.5 Q282 349 282.5 313.5 Q283 278 283 271 Q284 160 324 115.5 Q364 71 443 71 Q482 71 512.5 81 Q543 91 563 114 Q583 137 594 175.5 Q605 214 605 271 Q606 332 606.5 405 Q607 478 605 552 Q604 613 547 613 L506 613 L506 690 Q533 689 559 689 Q584 688 608.5 687.5 Q633 687 653 687 Q673 687 696.5 687.5 Q720 688 741 688.5 Q762 689 778.5 689.5 Q795 690 801 690 L801 613 L763 613 Q735 613 722.5 597.5 Q710 582 709 552 Q707 474 708 403.5 Q709 333 709 275 Q709 123 637.5 50.5 Q566 -22 426 -22 Q273 -22 198 47.5 Q123 117 123 274 Z " />
<glyph glyph-name="Ucircumflex" unicode="&#xdb;" horiz-adv-x="833" d="M584 735 Q569 741 550.5 751.5 Q532 762 512.5 774 Q493 786 475 799 Q457 812 444 824 Q431 813 413 800 Q395 787 375.5 774.5 Q356 762 338 752 Q320 742 306 736 L298 746 Q307 766 321.5 786.5 Q336 807 352.5 826 Q369 845 386 861.5 Q403 878 416 890 L475 890 Q489 879 505 863 Q521 847 537 828 Q553 809 567.5 788 Q582 767 592 746 L584 735 Z M123 274 Q123 281 123.5 316 Q124 351 124 395 Q124 439 124 483 Q124 527 123 552 Q122 585 110.5 599 Q99 613 70 613 L32 613 Q32 616 32.5 627.5 Q33 639 33 651.5 Q33 664 32.5 675.5 Q32 687 32 690 Q64 689 96 689 Q125 688 154 687.5 Q183 687 207 687 Q231 687 259 687.5 Q287 688 313 688.5 Q339 689 358.5 689.5 Q378 690 384 690 L384 613 L342 613 Q313 613 298 600 Q283 587 283 552 Q283 527 282.5 482.5 Q282 438 282 393.5 Q282 349 282.5 313.5 Q283 278 283 271 Q286 160 325 115.5 Q364 71 443 71 Q482 71 512.5 81 Q543 91 563 114 Q583 137 594 175.5 Q605 214 605 271 Q606 332 606.5 405 Q607 478 605 552 Q604 613 547 613 L506 613 L506 690 Q533 689 559 689 Q584 688 608.5 687.5 Q633 687 653 687 Q673 687 696.5 687.5 Q720 688 741 688.5 Q762 689 778.5 689.5 Q795 690 801 690 L801 613 L763 613 Q735 613 722.5 597.5 Q710 582 709 552 Q707 474 708 403.5 Q709 333 709 275 Q709 123 637.5 50.5 Q566 -22 426 -22 Q273 -22 198 47.5 Q123 117 123 274 Z " />
<glyph glyph-name="Udieresis" unicode="&#xdc;" horiz-adv-x="833" d="M416 812 Q416 787 400.5 771.5 Q385 756 359 756 Q334 756 318 771.5 Q302 787 302 812 Q302 837 318 852.5 Q334 868 359 868 Q385 868 400.5 852.5 Q416 837 416 812 Z M587 812 Q587 787 571.5 771.5 Q556 756 530 756 Q505 756 489 771.5 Q473 787 473 812 Q473 837 489 852.5 Q505 868 530 868 Q556 868 571.5 852.5 Q587 837 587 812 Z M123 274 Q123 281 123.5 316 Q124 351 124 395 Q124 439 124 483 Q124 527 123 552 Q122 585 110.5 599 Q99 613 70 613 L32 613 Q32 616 32.5 627.5 Q33 639 33 651.5 Q33 664 32.5 675.5 Q32 687 32 690 Q64 689 96 689 Q125 688 154 687.5 Q183 687 207 687 Q231 687 259 687.5 Q287 688 313 688.5 Q339 689 358.5 689.5 Q378 690 384 690 L384 613 L342 613 Q313 613 298 600 Q283 587 283 552 Q283 527 282.5 482.5 Q282 438 282 393.5 Q282 349 282.5 313.5 Q283 278 283 271 Q284 160 324 115.5 Q364 71 443 71 Q482 71 512.5 81 Q543 91 563 114 Q583 137 594 175.5 Q605 214 605 271 Q606 332 606.5 405 Q607 478 605 552 Q604 613 547 613 L506 613 L506 690 Q533 689 559 689 Q584 688 608.5 687.5 Q633 687 653 687 Q673 687 696.5 687.5 Q720 688 741 688.5 Q762 689 778.5 689.5 Q795 690 801 690 L801 613 L763 613 Q735 613 722.5 597.5 Q710 582 709 552 Q707 474 708 403.5 Q709 333 709 275 Q709 123 637.5 50.5 Q566 -22 426 -22 Q273 -22 198 47.5 Q123 117 123 274 Z " />
<glyph glyph-name="Yacute" unicode="&#xdd;" horiz-adv-x="824" d="M645 541 Q630 516 609 477 Q588 438 565 395.5 Q542 353 520 311 Q498 269 482 238 L482 130 Q482 101 492 88.5 Q502 76 541 76 L599 76 L599 -2 Q562 -1 527 -1 Q494 -1 461 -0.5 Q428 0 401 0 Q374 0 339.5 -0.5 Q305 -1 275 -1 Q239 -1 202 -2 L202 76 L260 76 Q280 76 291.5 79 Q303 82 308.5 88.5 Q314 95 315.5 105.5 Q317 116 317 130 L317 236 Q301 268 278.5 312 Q256 356 232.5 400.5 Q209 445 187.5 485 Q166 525 151 550 Q131 583 105.5 598 Q80 613 35 613 L19 613 L19 690 Q56 689 92 689 Q124 688 157.5 687.5 Q191 687 218 687 Q245 687 279 687.5 Q313 688 344 689 Q379 689 416 690 L416 613 L375 613 Q336 613 326.5 593 Q317 573 333 537 Q344 514 359.5 484 Q375 454 391.5 423 Q408 392 424 364 Q440 336 452 316 Q464 338 479 366.5 Q494 395 509.5 425.5 Q525 456 539 485 Q553 514 563 537 Q570 553 573.5 567 Q577 581 574 591 Q571 601 559.5 607 Q548 613 526 613 L495 613 L495 690 Q524 689 552 689 Q578 688 604 687.5 Q630 687 651 687 Q672 687 698.5 687.5 Q725 688 749 689 Q776 689 805 690 L805 613 L782 613 Q751 613 729.5 609 Q708 605 693 596 Q678 587 667 573.5 Q656 560 645 541 Z M439 755 Q453 773 468.5 791.5 Q484 810 500.5 827.5 Q517 845 533.5 860 Q550 875 564 885 Q585 898 602 895 Q619 892 627.5 881 Q636 870 632.5 854 Q629 838 609 824 Q594 814 574.5 803 Q555 792 533 781 Q511 770 489 760.5 Q467 751 447 744 L439 755 Z " />
<glyph glyph-name="Thorn" unicode="&#xde;" horiz-adv-x="706" d="M31 77 L78 77 Q110 77 121 86.5 Q132 96 133 122 Q134 138 134.5 173 Q135 208 135 252.5 Q135 297 135 345.5 Q135 394 135 437.5 Q135 481 134.5 514.5 Q134 548 133 561 Q131 590 119.5 601.5 Q108 613 81 613 L31 613 L31 690 Q64 689 97 689 Q127 688 157 687.5 Q187 687 211 687 Q235 687 264.5 687.5 Q294 688 320 688.5 Q346 689 366 689.5 Q386 690 390 690 L390 613 L340 613 Q311 613 299 596 Q287 579 287 547 Q307 551 330.5 553.5 Q354 556 380 556 Q460 556 515 541.5 Q570 527 603.5 500 Q637 473 651.5 434.5 Q666 396 666 347 Q666 298 650 260 Q634 222 597.5 195.5 Q561 169 503 155.5 Q445 142 361 142 Q319 142 287 145 Q287 138 287 132.5 Q287 127 288 122 Q289 96 300.5 86.5 Q312 77 344 77 L390 77 L390 -2 Q357 -1 325 -1 Q295 -1 265 -0.5 Q235 0 211 0 Q187 0 156 -0.5 Q125 -1 97 -1 Q64 -1 31 -2 L31 77 Z M335 486 Q321 486 309 485.5 Q297 485 286 484 Q286 455 285.5 419.5 Q285 384 285 347.5 Q285 311 285.5 275 Q286 239 286 208 Q297 207 309.5 206.5 Q322 206 336 206 Q426 206 459.5 241 Q493 276 492 347 Q492 382 485 408 Q478 434 460 451.5 Q442 469 412 477.5 Q382 486 335 486 Z " />
<glyph glyph-name="germandbls" unicode="&#xdf;" horiz-adv-x="644" d="M90 461 L90 468 Q88 530 105 573.5 Q122 617 152.5 644 Q183 671 224.5 683.5 Q266 696 314 696 Q368 696 408 682.5 Q448 669 474.5 645 Q501 621 514 588 Q527 555 527 516 Q527 456 502 416 Q477 376 419 359 Q465 356 497.5 341 Q530 326 550 302 Q570 278 579.5 246 Q589 214 589 177 Q589 74 544 29.5 Q499 -15 410 -15 Q374 -15 346 -5 Q318 5 301 26 Q284 47 279 80.5 Q274 114 283 162 L323 162 Q309 42 378 42 Q410 42 425 73 Q440 104 440 181 Q440 263 410.5 295.5 Q381 328 305 324 Q305 326 305 333.5 Q305 341 305 350 Q305 359 305 367 Q305 375 305 376 Q348 376 369.5 409 Q391 442 391 516 Q391 552 385 576 Q379 600 368.5 614.5 Q358 629 342.5 634.5 Q327 640 309 640 Q291 640 275 634 Q259 628 248 611.5 Q237 595 230.5 567 Q224 539 224 495 L224 116 Q224 103 224 92 Q224 81 224.5 68 Q225 55 225 39 Q225 23 225 0 Q203 1 185 2 Q168 2 154.5 2.5 Q141 3 136 3 Q118 4 98 3.5 Q78 3 61.5 2.5 Q45 2 33 1 Q21 0 18 0 Q18 3 18.5 12.5 Q19 22 19 32.5 Q19 43 18.5 52.5 Q18 62 18 65 L47 65 Q71 65 80 80 Q89 95 90 116 Q91 138 91.5 172.5 Q92 207 92 246.5 Q92 286 91.5 327 Q91 368 91 402 L27 400 L27 464 L90 461 Z " />
<glyph glyph-name="agrave" unicode="&#xe0;" horiz-adv-x="541" d="M434 115 Q434 80 439.5 69 Q445 58 456 58 Q472 58 478.5 87 Q485 116 482 170 L521 172 Q523 129 519.5 94 Q516 59 504 35 Q492 11 470 -2 Q448 -15 413 -15 Q362 -15 336.5 7.5 Q311 30 303 67 Q283 32 248.5 9 Q214 -14 160 -14 Q94 -14 59.5 16.5 Q25 47 25 105 Q25 149 49 178 Q73 207 111.5 225 Q150 243 199 252 Q248 261 299 264 L299 300 Q299 331 295 354.5 Q291 378 279.5 393.5 Q268 409 248 417 Q228 425 195 425 Q178 425 165 423 Q152 421 141 418 Q165 413 178 396.5 Q191 380 191 356 Q191 325 171.5 307.5 Q152 290 117 290 Q84 290 64 308 Q44 326 44 361 Q44 390 60.5 412 Q77 434 105 448.5 Q133 463 168.5 470.5 Q204 478 241 478 Q298 478 335 464.5 Q372 451 394 426 Q416 401 425 365.5 Q434 330 434 286 L434 115 Z M224 59 Q252 59 271 74 Q290 89 299 123 L299 234 Q240 228 205 202.5 Q170 177 170 125 Q170 90 184.5 74.5 Q199 59 224 59 Z M310 519 Q290 526 268 535.5 Q246 545 224 556 Q202 567 182.5 578 Q163 589 148 599 Q128 613 124.5 629 Q121 645 129.5 656 Q138 667 155 670 Q172 673 193 660 Q207 650 223 635 Q239 620 255.5 602.5 Q272 585 288 566.5 Q304 548 318 530 L310 519 Z " />
<glyph glyph-name="aacute" unicode="&#xe1;" horiz-adv-x="541" d="M434 115 Q434 80 439.5 69 Q445 58 456 58 Q472 58 478.5 87 Q485 116 482 170 L521 172 Q523 129 519.5 94 Q516 59 504 35 Q492 11 470 -2 Q448 -15 413 -15 Q362 -15 336.5 7.5 Q311 30 303 67 Q283 32 248.5 9 Q214 -14 160 -14 Q94 -14 59.5 16.5 Q25 47 25 105 Q25 149 49 178 Q73 207 111.5 225 Q150 243 199 252 Q248 261 299 264 L299 300 Q299 331 295 354.5 Q291 378 279.5 393.5 Q268 409 248 417 Q228 425 195 425 Q178 425 165 423 Q152 421 141 418 Q165 413 178 396.5 Q191 380 191 356 Q191 325 171.5 307.5 Q152 290 117 290 Q84 290 64 308 Q44 326 44 361 Q44 390 60.5 412 Q77 434 105 448.5 Q133 463 168.5 470.5 Q204 478 241 478 Q298 478 335 464.5 Q372 451 394 426 Q416 401 425 365.5 Q434 330 434 286 L434 115 Z M224 59 Q252 59 271 74 Q290 89 299 123 L299 234 Q240 228 205 202.5 Q170 177 170 125 Q170 90 184.5 74.5 Q199 59 224 59 Z M212 530 Q226 548 241.5 566.5 Q257 585 273.5 602.5 Q290 620 306.5 635 Q323 650 337 660 Q358 673 375 670 Q392 667 400.5 656 Q409 645 405.5 629 Q402 613 382 599 Q367 589 347.5 578 Q328 567 306 556 Q284 545 262 535.5 Q240 526 220 519 L212 530 Z " />
<glyph glyph-name="acircumflex" unicode="&#xe2;" horiz-adv-x="541" d="M434 115 Q434 80 439.5 69 Q445 58 456 58 Q472 58 478.5 87 Q485 116 482 170 L521 172 Q523 129 519.5 94 Q516 59 504 35 Q492 11 470 -2 Q448 -15 413 -15 Q362 -15 336.5 7.5 Q311 30 303 67 Q283 32 248.5 9 Q214 -14 160 -14 Q94 -14 59.5 16.5 Q25 47 25 105 Q25 149 49 178 Q73 207 111.5 225 Q150 243 199 252 Q248 261 299 264 L299 300 Q299 331 295 354.5 Q291 378 279.5 393.5 Q268 409 248 417 Q228 425 195 425 Q178 425 165 423 Q152 421 141 418 Q165 413 178 396.5 Q191 380 191 356 Q191 325 171.5 307.5 Q152 290 117 290 Q84 290 64 308 Q44 326 44 361 Q44 390 60.5 412 Q77 434 105 448.5 Q133 463 168.5 470.5 Q204 478 241 478 Q298 478 335 464.5 Q372 451 394 426 Q416 401 425 365.5 Q434 330 434 286 L434 115 Z M224 59 Q252 59 271 74 Q290 89 299 123 L299 234 Q240 228 205 202.5 Q170 177 170 125 Q170 90 184.5 74.5 Q199 59 224 59 Z M389 517 Q374 523 355.5 533.5 Q337 544 317.5 556 Q298 568 280 581 Q262 594 249 606 Q236 595 218 582 Q200 569 180.5 556.5 Q161 544 143 534 Q125 524 111 518 L103 528 Q112 548 126.5 568.5 Q141 589 157.5 608 Q174 627 191 643.5 Q208 660 221 672 L280 672 Q294 661 310 645 Q326 629 342 610 Q358 591 372.5 570 Q387 549 397 528 L389 517 Z " />
<glyph glyph-name="atilde" unicode="&#xe3;" horiz-adv-x="541" d="M434 115 Q434 80 439.5 69 Q445 58 456 58 Q472 58 478.5 87 Q485 116 482 170 L521 172 Q523 129 519.5 94 Q516 59 504 35 Q492 11 470 -2 Q448 -15 413 -15 Q362 -15 336.5 7.5 Q311 30 303 67 Q283 32 248.5 9 Q214 -14 160 -14 Q94 -14 59.5 16.5 Q25 47 25 105 Q25 149 49 178 Q73 207 111.5 225 Q150 243 199 252 Q248 261 299 264 L299 300 Q299 331 295 354.5 Q291 378 279.5 393.5 Q268 409 248 417 Q228 425 195 425 Q178 425 165 423 Q152 421 141 418 Q165 413 178 396.5 Q191 380 191 356 Q191 325 171.5 307.5 Q152 290 117 290 Q84 290 64 308 Q44 326 44 361 Q44 390 60.5 412 Q77 434 105 448.5 Q133 463 168.5 470.5 Q204 478 241 478 Q298 478 335 464.5 Q372 451 394 426 Q416 401 425 365.5 Q434 330 434 286 L434 115 Z M224 59 Q252 59 271 74 Q290 89 299 123 L299 234 Q240 228 205 202.5 Q170 177 170 125 Q170 90 184.5 74.5 Q199 59 224 59 Z M390 663 Q402 627 398.5 600 Q395 573 381.5 555 Q368 537 346 528.5 Q324 520 300 520 Q265 520 244 535.5 Q223 551 206 577 Q189 602 178.5 612.5 Q168 623 150 623 Q130 623 121 603.5 Q112 584 123 536 L100 530 Q88 567 91 594 Q94 621 107.5 638.5 Q121 656 143 664.5 Q165 673 190 673 Q219 673 240.5 660.5 Q262 648 283 617 Q299 594 311 582 Q323 570 340 570 Q360 570 369.5 590 Q379 610 368 657 L390 663 Z " />
<glyph glyph-name="adieresis" unicode="&#xe4;" horiz-adv-x="541" d="M434 115 Q434 80 439.5 69 Q445 58 456 58 Q472 58 478.5 87 Q485 116 482 170 L521 172 Q523 129 519.5 94 Q516 59 504 35 Q492 11 470 -2 Q448 -15 413 -15 Q362 -15 336.5 7.5 Q311 30 303 67 Q283 32 248.5 9 Q214 -14 160 -14 Q94 -14 59.5 16.5 Q25 47 25 105 Q25 149 49 178 Q73 207 111.5 225 Q150 243 199 252 Q248 261 299 264 L299 300 Q299 331 295 354.5 Q291 378 279.5 393.5 Q268 409 248 417 Q228 425 195 425 Q178 425 165 423 Q152 421 141 418 Q165 413 178 396.5 Q191 380 191 356 Q191 325 171.5 307.5 Q152 290 117 290 Q84 290 64 308 Q44 326 44 361 Q44 390 60.5 412 Q77 434 105 448.5 Q133 463 168.5 470.5 Q204 478 241 478 Q298 478 335 464.5 Q372 451 394 426 Q416 401 425 365.5 Q434 330 434 286 L434 115 Z M224 59 Q252 59 271 74 Q290 89 299 123 L299 234 Q240 228 205 202.5 Q170 177 170 125 Q170 90 184.5 74.5 Q199 59 224 59 Z M224 587 Q224 562 208.5 546.5 Q193 531 167 531 Q142 531 126 546.5 Q110 562 110 587 Q110 612 126 627.5 Q142 643 167 643 Q193 643 208.5 627.5 Q224 612 224 587 Z M395 587 Q395 562 379.5 546.5 Q364 531 338 531 Q313 531 297 546.5 Q281 562 281 587 Q281 612 297 627.5 Q313 643 338 643 Q364 643 379.5 627.5 Q395 612 395 587 Z " />
<glyph glyph-name="aring" unicode="&#xe5;" horiz-adv-x="541" d="M434 115 Q434 80 439.5 69 Q445 58 456 58 Q472 58 478.5 87 Q485 116 482 170 L521 172 Q523 129 519.5 94 Q516 59 504 35 Q492 11 470 -2 Q448 -15 413 -15 Q362 -15 336.5 7.5 Q311 30 303 67 Q283 32 248.5 9 Q214 -14 160 -14 Q94 -14 59.5 16.5 Q25 47 25 105 Q25 149 49 178 Q73 207 111.5 225 Q150 243 199 252 Q248 261 299 264 L299 300 Q299 331 295 354.5 Q291 378 279.5 393.5 Q268 409 248 417 Q228 425 195 425 Q178 425 165 423 Q152 421 141 418 Q165 413 178 396.5 Q191 380 191 356 Q191 325 171.5 307.5 Q152 290 117 290 Q84 290 64 308 Q44 326 44 361 Q44 390 60.5 412 Q77 434 105 448.5 Q133 463 168.5 470.5 Q204 478 241 478 Q298 478 335 464.5 Q372 451 394 426 Q416 401 425 365.5 Q434 330 434 286 L434 115 Z M224 59 Q252 59 271 74 Q290 89 299 123 L299 234 Q240 228 205 202.5 Q170 177 170 125 Q170 90 184.5 74.5 Q199 59 224 59 Z M293 612 Q293 636 280 648.5 Q267 661 246 661 Q224 661 211.5 648.5 Q199 636 199 612 Q199 587 211.5 573.5 Q224 560 246 560 Q267 560 280 573.5 Q293 587 293 612 Z M332 612 Q332 572 308.5 548 Q285 524 246 524 Q207 524 183 548 Q159 572 159 612 Q159 651 182 674.5 Q205 698 245 698 Q284 698 308 674.5 Q332 651 332 612 Z " />
<glyph glyph-name="ae" unicode="&#xe6;" horiz-adv-x="771" d="M731 137 Q718 67 667.5 25 Q617 -17 524 -17 Q375 -17 323 80 Q304 36 264.5 11 Q225 -14 165 -14 Q25 -14 25 108 Q25 150 48 178.5 Q71 207 109.5 225 Q148 243 197 252 Q246 261 298 264 L298 304 Q298 360 277 392 Q256 424 210 424 Q172 424 142 415 Q190 406 190 356 Q190 324 170 307 Q150 290 118 290 Q85 290 65 308.5 Q45 327 45 361 Q45 391 61.5 413 Q78 435 105.5 449.5 Q133 464 168.5 471 Q204 478 241 478 Q294 478 327.5 465 Q361 452 384 431 Q410 454 447 466 Q484 478 526 478 Q585 478 626.5 458 Q668 438 693.5 402 Q719 366 729.5 317 Q740 268 736 210 L443 210 Q445 124 467 89.5 Q489 55 541 55 Q593 55 616.5 79.5 Q640 104 649 146 Q653 146 664.5 144.5 Q676 143 689.5 141.5 Q703 140 715 138.5 Q727 137 731 137 Z M520 413 Q501 413 487 405 Q473 397 463.5 378 Q454 359 449 327 Q444 295 443 248 L567 248 Q580 248 584 253 Q588 258 588 274 Q588 341 571.5 377 Q555 413 520 413 Z M301 148 Q298 171 298 194 L298 234 Q239 228 204.5 203 Q170 178 170 125 Q170 90 183.5 76 Q197 62 222 62 Q254 62 274.5 82 Q295 102 301 148 Z " />
<glyph glyph-name="ccedilla" unicode="&#xe7;" horiz-adv-x="494" d="M187 -92 Q215 -76 230.5 -59 Q246 -42 253 -17 Q144 -15 88.5 47 Q33 109 33 226 Q33 344 96 411 Q159 478 272 478 Q312 478 345.5 469.5 Q379 461 403 445.5 Q427 430 440.5 407.5 Q454 385 454 357 Q454 322 433.5 302 Q413 282 376 282 Q340 282 320 300 Q300 318 300 349 Q300 369 309.5 385.5 Q319 402 339 410 Q326 415 311.5 418.5 Q297 422 279 422 Q225 422 201 380.5 Q177 339 177 235 Q177 183 182.5 148.5 Q188 114 199.5 93 Q211 72 229.5 63.5 Q248 55 274 55 Q329 55 351 80 Q373 105 382 146 Q386 146 398 144.5 Q410 143 423.5 141.5 Q437 140 449.5 138.5 Q462 137 466 137 Q455 71 410 30.5 Q365 -10 284 -16 Q281 -48 253 -76 Q274 -73 294 -76.5 Q314 -80 330 -89.5 Q346 -99 356 -115 Q366 -131 366 -154 Q366 -199 334.5 -224 Q303 -249 247 -249 Q204 -249 178 -230 Q152 -211 141 -189 L163 -171 Q176 -188 191.5 -197.5 Q207 -207 230 -207 Q259 -207 273 -192.5 Q287 -178 287 -153 Q287 -122 260.5 -110.5 Q234 -99 199 -113 L187 -92 Z " />
<glyph glyph-name="egrave" unicode="&#xe8;" horiz-adv-x="511" d="M388 144 Q392 144 404 142.5 Q416 141 429.5 139.5 Q443 138 455 136.5 Q467 135 471 135 Q458 64 407.5 22.5 Q357 -19 264 -19 Q154 -19 93.5 43 Q33 105 33 226 Q33 287 50 334 Q67 381 98 413 Q129 445 171.5 461.5 Q214 478 265 478 Q324 478 365.5 458 Q407 438 432.5 402.5 Q458 367 468.5 318 Q479 269 475 210 L175 210 Q177 123 202.5 88 Q228 53 281 53 Q333 53 356.5 77.5 Q380 102 388 144 Z M260 413 Q220 413 198.5 377 Q177 341 175 248 L308 248 Q320 248 325.5 252.5 Q331 257 331 277 Q331 347 314 380 Q297 413 260 413 Z M321 519 Q301 526 279 535.5 Q257 545 235 556 Q213 567 193.5 578 Q174 589 159 599 Q139 613 135.5 629 Q132 645 140.5 656 Q149 667 166 670 Q183 673 204 660 Q218 650 234 635 Q250 620 266.5 602.5 Q283 585 299 566.5 Q315 548 329 530 L321 519 Z " />
<glyph glyph-name="eacute" unicode="&#xe9;" horiz-adv-x="511" d="M219 530 Q233 548 248.5 566.5 Q264 585 280.5 602.5 Q297 620 313.5 635 Q330 650 344 660 Q365 673 382 670 Q399 667 407.5 656 Q416 645 412.5 629 Q409 613 389 599 Q374 589 354.5 578 Q335 567 313 556 Q291 545 269 535.5 Q247 526 227 519 L219 530 Z M388 144 Q392 144 404 142.5 Q416 141 429.5 139.5 Q443 138 455 136.5 Q467 135 471 135 Q458 64 407.5 22.5 Q357 -19 264 -19 Q154 -19 93.5 43 Q33 105 33 226 Q33 287 50 334 Q67 381 98 413 Q129 445 171.5 461.5 Q214 478 265 478 Q324 478 365.5 458 Q407 438 432.5 402.5 Q458 367 468.5 318 Q479 269 475 210 L175 210 Q177 123 202.5 88 Q228 53 281 53 Q333 53 356.5 77.5 Q380 102 388 144 Z M260 413 Q220 413 198.5 377 Q177 341 175 248 L308 248 Q320 248 325.5 252.5 Q331 257 331 277 Q331 347 314 380 Q297 413 260 413 Z " />
<glyph glyph-name="ecircumflex" unicode="&#xea;" horiz-adv-x="511" d="M407 517 Q392 523 373.5 533.5 Q355 544 335.5 556 Q316 568 298 581 Q280 594 267 606 Q254 595 236 582 Q218 569 198.5 556.5 Q179 544 161 534 Q143 524 129 518 L121 528 Q130 548 144.5 568.5 Q159 589 175.5 608 Q192 627 209 643.5 Q226 660 239 672 L298 672 Q312 661 328 645 Q344 629 360 610 Q376 591 390.5 570 Q405 549 415 528 L407 517 Z M388 144 Q392 144 404 142.5 Q416 141 429.5 139.5 Q443 138 455 136.5 Q467 135 471 135 Q458 64 407.5 22.5 Q357 -19 264 -19 Q154 -19 93.5 43 Q33 105 33 226 Q33 287 50 334 Q67 381 98 413 Q129 445 171.5 461.5 Q214 478 265 478 Q324 478 365.5 458 Q407 438 432.5 402.5 Q458 367 468.5 318 Q479 269 475 210 L175 210 Q177 123 202.5 88 Q228 53 281 53 Q333 53 356.5 77.5 Q380 102 388 144 Z M260 413 Q220 413 198.5 377 Q177 341 175 248 L308 248 Q320 248 325.5 252.5 Q331 257 331 277 Q331 347 314 380 Q297 413 260 413 Z " />
<glyph glyph-name="edieresis" unicode="&#xeb;" horiz-adv-x="511" d="M230 587 Q230 562 214.5 546.5 Q199 531 173 531 Q148 531 132 546.5 Q116 562 116 587 Q116 612 132 627.5 Q148 643 173 643 Q199 643 214.5 627.5 Q230 612 230 587 Z M401 587 Q401 562 385.5 546.5 Q370 531 344 531 Q319 531 303 546.5 Q287 562 287 587 Q287 612 303 627.5 Q319 643 344 643 Q370 643 385.5 627.5 Q401 612 401 587 Z M388 144 Q392 144 404 142.5 Q416 141 429.5 139.5 Q443 138 455 136.5 Q467 135 471 135 Q458 64 407.5 22.5 Q357 -19 264 -19 Q154 -19 93.5 43 Q33 105 33 226 Q33 287 50 334 Q67 381 98 413 Q129 445 171.5 461.5 Q214 478 265 478 Q324 478 365.5 458 Q407 438 432.5 402.5 Q458 367 468.5 318 Q479 269 475 210 L175 210 Q177 123 202.5 88 Q228 53 281 53 Q333 53 356.5 77.5 Q380 102 388 144 Z M260 413 Q220 413 198.5 377 Q177 341 175 248 L308 248 Q320 248 325.5 252.5 Q331 257 331 277 Q331 347 314 380 Q297 413 260 413 Z " />
<glyph glyph-name="igrave" unicode="&#xec;" horiz-adv-x="316" d="M226 467 Q226 463 225.5 438.5 Q225 414 225 379.5 Q225 345 225 305 Q225 265 225 228 Q225 191 225.5 162 Q226 133 226 121 Q228 85 240 74.5 Q252 64 281 64 L299 64 L299 -2 Q293 -2 276 -1.5 Q259 -1 238 -0.5 Q217 0 196 0.5 Q175 1 160 1 Q145 1 122 0.5 Q99 0 77.5 -0.5 Q56 -1 39 -1.5 Q22 -2 18 -2 L18 64 L37 64 Q68 65 78 75 Q88 85 90 120 Q91 137 91.5 169 Q92 201 92 235.5 Q92 270 91.5 300.5 Q91 331 90 346 Q88 375 78.5 387.5 Q69 400 34 400 L18 400 L18 464 Q37 464 66 464 Q95 464 125 464.5 Q155 465 182.5 465.5 Q210 466 226 467 Z M196 519 Q176 526 154 535.5 Q132 545 110 556 Q88 567 68.5 578 Q49 589 34 599 Q14 613 10.5 629 Q7 645 15.5 656 Q24 667 41 670 Q58 673 79 660 Q93 650 109 635 Q125 620 141.5 602.5 Q158 585 174 566.5 Q190 548 204 530 L196 519 Z " />
<glyph glyph-name="iacute" unicode="&#xed;" horiz-adv-x="316" d="M108 530 Q122 548 137.5 566.5 Q153 585 169.5 602.5 Q186 620 202.5 635 Q219 650 233 660 Q254 673 271 670 Q288 667 296.5 656 Q305 645 301.5 629 Q298 613 278 599 Q263 589 243.5 578 Q224 567 202 556 Q180 545 158 535.5 Q136 526 116 519 L108 530 Z M226 467 Q226 463 225.5 438.5 Q225 414 225 379.5 Q225 345 225 305 Q225 265 225 228 Q225 191 225.5 162 Q226 133 226 121 Q228 85 240 74.5 Q252 64 281 64 L299 64 L299 -2 Q293 -2 276 -1.5 Q259 -1 238 -0.5 Q217 0 196 0.5 Q175 1 160 1 Q145 1 122 0.5 Q99 0 77.5 -0.5 Q56 -1 39 -1.5 Q22 -2 18 -2 L18 64 L37 64 Q68 65 78 75 Q88 85 90 120 Q91 137 91.5 169 Q92 201 92 235.5 Q92 270 91.5 300.5 Q91 331 90 346 Q88 375 78.5 387.5 Q69 400 34 400 L18 400 L18 464 Q37 464 66 464 Q95 464 125 464.5 Q155 465 182.5 465.5 Q210 466 226 467 Z " />
<glyph glyph-name="icircumflex" unicode="&#xee;" horiz-adv-x="316" d="M279 517 Q264 523 245.5 533.5 Q227 544 207.5 556 Q188 568 170 581 Q152 594 139 606 Q126 595 108 582 Q90 569 70.5 556.5 Q51 544 33 534 Q15 524 1 518 L-7 528 Q2 548 16.5 568.5 Q31 589 47.5 608 Q64 627 81 643.5 Q98 660 111 672 L170 672 Q184 661 200 645 Q216 629 232 610 Q248 591 262.5 570 Q277 549 287 528 L279 517 Z M226 467 Q226 463 225.5 438.5 Q225 414 225 379.5 Q225 345 225 305 Q225 265 225 228 Q225 191 225.5 162 Q226 133 226 121 Q228 85 240 74.5 Q252 64 281 64 L299 64 L299 -2 Q293 -2 276 -1.5 Q259 -1 238 -0.5 Q217 0 196 0.5 Q175 1 160 1 Q145 1 122 0.5 Q99 0 77.5 -0.5 Q56 -1 39 -1.5 Q22 -2 18 -2 L18 64 L37 64 Q68 65 78 75 Q88 85 90 120 Q91 137 91.5 169 Q92 201 92 235.5 Q92 270 91.5 300.5 Q91 331 90 346 Q88 375 78.5 387.5 Q69 400 34 400 L18 400 L18 464 Q37 464 66 464 Q95 464 125 464.5 Q155 465 182.5 465.5 Q210 466 226 467 Z " />
<glyph glyph-name="idieresis" unicode="&#xef;" horiz-adv-x="316" d="M111 587 Q111 562 95.5 546.5 Q80 531 54 531 Q29 531 13 546.5 Q-3 562 -3 587 Q-3 612 13 627.5 Q29 643 54 643 Q80 643 95.5 627.5 Q111 612 111 587 Z M282 587 Q282 562 266.5 546.5 Q251 531 225 531 Q200 531 184 546.5 Q168 562 168 587 Q168 612 184 627.5 Q200 643 225 643 Q251 643 266.5 627.5 Q282 612 282 587 Z M226 467 Q226 463 225.5 438.5 Q225 414 225 379.5 Q225 345 225 305 Q225 265 225 228 Q225 191 225.5 162 Q226 133 226 121 Q228 85 240 74.5 Q252 64 281 64 L299 64 L299 -2 Q293 -2 276 -1.5 Q259 -1 238 -0.5 Q217 0 196 0.5 Q175 1 160 1 Q145 1 122 0.5 Q99 0 77.5 -0.5 Q56 -1 39 -1.5 Q22 -2 18 -2 L18 64 L37 64 Q68 65 78 75 Q88 85 90 120 Q91 137 91.5 169 Q92 201 92 235.5 Q92 270 91.5 300.5 Q91 331 90 346 Q88 375 78.5 387.5 Q69 400 34 400 L18 400 L18 464 Q37 464 66 464 Q95 464 125 464.5 Q155 465 182.5 465.5 Q210 466 226 467 Z " />
<glyph glyph-name="eth" unicode="&#xf0;" horiz-adv-x="535" d="M176 556 L254 606 Q213 636 150 645 L159 690 Q249 684 313 648 Q323 656 335 665 Q347 674 358.5 682.5 Q370 691 379.5 699 Q389 707 395 711 L418 677 Q408 670 385 656 Q362 642 342 630 Q383 601 413 561 Q443 521 462.5 474 Q482 427 491.5 374 Q501 321 501 267 Q501 191 483 137 Q465 83 433.5 48.5 Q402 14 359 -2.5 Q316 -19 265 -19 Q160 -19 96.5 42 Q33 103 33 226 Q33 292 51 339.5 Q69 387 100.5 417.5 Q132 448 175.5 463 Q219 478 270 478 Q300 478 331 465 Q316 544 277 585 L199 522 L176 556 Z M176 226 Q176 168 183 132 Q190 96 202.5 76.5 Q215 57 232.5 50.5 Q250 44 270 44 Q290 44 306 51 Q322 58 333 78 Q344 98 350.5 133.5 Q357 169 357 226 Q357 284 351 321 Q345 358 333.5 379 Q322 400 305.5 408 Q289 416 269 416 Q249 416 232 408 Q215 400 202.5 379 Q190 358 183 321 Q176 284 176 226 Z " />
<glyph glyph-name="ntilde" unicode="&#xf1;" horiz-adv-x="626" d="M536 292 Q535 248 535 202.5 Q535 157 536 128 Q538 92 549 78 Q560 64 592 64 L605 64 Q605 58 604.5 48 Q604 38 604 27.5 Q604 17 604.5 8.5 Q605 0 605 -3 Q601 -3 585.5 -2.5 Q570 -2 550 -1.5 Q530 -1 508 -0.5 Q486 0 468 0 Q450 0 427 -0.5 Q404 -1 384 -1.5 Q364 -2 349 -2.5 Q334 -3 332 -3 L332 64 L348 64 Q375 64 386.5 78 Q398 92 400 127 Q403 198 400 283 Q398 340 381.5 372 Q365 404 321 404 Q268 404 247 357.5 Q226 311 226 217 L226 128 Q226 92 238 78 Q250 64 279 64 L296 64 L296 -3 Q292 -3 276.5 -2.5 Q261 -2 241 -1.5 Q221 -1 198.5 -0.5 Q176 0 158 0 Q139 0 116 -0.5 Q93 -1 72 -1.5 Q51 -2 36 -2.5 Q21 -3 18 -3 L18 64 L37 64 Q68 65 78 78.5 Q88 92 90 127 Q91 147 91.5 177 Q92 207 92 238.5 Q92 270 91.5 297.5 Q91 325 90 339 Q88 368 79 384 Q70 400 34 400 L19 400 L19 464 Q36 464 65 464 Q94 464 125 464.5 Q156 465 183.5 465.5 Q211 466 226 467 L226 367 Q245 424 283.5 451 Q322 478 380 478 Q466 478 502 427 Q538 376 536 292 Z M448 663 Q460 627 456.5 600 Q453 573 439.5 555 Q426 537 404 528.5 Q382 520 358 520 Q323 520 302 535.5 Q281 551 264 577 Q247 602 236.5 612.5 Q226 623 208 623 Q188 623 179 603.5 Q170 584 181 536 L158 530 Q146 567 149 594 Q152 621 165.5 638.5 Q179 656 201 664.5 Q223 673 248 673 Q277 673 298.5 660.5 Q320 648 341 617 Q357 594 369 582 Q381 570 398 570 Q418 570 427.5 590 Q437 610 426 657 L448 663 Z " />
<glyph glyph-name="ograve" unicode="&#xf2;" horiz-adv-x="539" d="M35 226 Q35 291 52 338 Q69 385 99.5 416.5 Q130 448 173.5 463 Q217 478 270 478 Q323 478 366.5 463 Q410 448 441 417 Q472 386 488.5 338.5 Q505 291 505 226 Q505 165 488 119 Q471 73 440.5 42 Q410 11 366.5 -4 Q323 -19 270 -19 Q162 -19 98.5 42.5 Q35 104 35 226 Z M181 226 Q181 168 187.5 132 Q194 96 205.5 76.5 Q217 57 233.5 50.5 Q250 44 270 44 Q290 44 306 50.5 Q322 57 334 76.5 Q346 96 352.5 132 Q359 168 359 226 Q359 284 352.5 321 Q346 358 334 379 Q322 400 305.5 408 Q289 416 269 416 Q249 416 232.5 408 Q216 400 204.5 379 Q193 358 187 321 Q181 284 181 226 Z M325 519 Q305 526 283 535.5 Q261 545 239 556 Q217 567 197.5 578 Q178 589 163 599 Q143 613 139.5 629 Q136 645 144.5 656 Q153 667 170 670 Q187 673 208 660 Q222 650 238 635 Q254 620 270.5 602.5 Q287 585 303 566.5 Q319 548 333 530 L325 519 Z " />
<glyph glyph-name="oacute" unicode="&#xf3;" horiz-adv-x="539" d="M227 530 Q241 548 256.5 566.5 Q272 585 288.5 602.5 Q305 620 321.5 635 Q338 650 352 660 Q373 673 390 670 Q407 667 415.5 656 Q424 645 420.5 629 Q417 613 397 599 Q382 589 362.5 578 Q343 567 321 556 Q299 545 277 535.5 Q255 526 235 519 L227 530 Z M35 226 Q35 291 52 338 Q69 385 99.5 416.5 Q130 448 173.5 463 Q217 478 270 478 Q323 478 366.5 463 Q410 448 441 417 Q472 386 488.5 338.5 Q505 291 505 226 Q505 165 488 119 Q471 73 440.5 42 Q410 11 366.5 -4 Q323 -19 270 -19 Q162 -19 98.5 42.5 Q35 104 35 226 Z M181 226 Q181 168 187.5 132 Q194 96 205.5 76.5 Q217 57 233.5 50.5 Q250 44 270 44 Q290 44 306 50.5 Q322 57 334 76.5 Q346 96 352.5 132 Q359 168 359 226 Q359 284 352.5 321 Q346 358 334 379 Q322 400 305.5 408 Q289 416 269 416 Q249 416 232.5 408 Q216 400 204.5 379 Q193 358 187 321 Q181 284 181 226 Z " />
<glyph glyph-name="ocircumflex" unicode="&#xf4;" horiz-adv-x="539" d="M411 517 Q396 523 377.5 533.5 Q359 544 339.5 556 Q320 568 302 581 Q284 594 271 606 Q258 595 240 582 Q222 569 202.5 556.5 Q183 544 165 534 Q147 524 133 518 L125 528 Q134 548 148.5 568.5 Q163 589 179.5 608 Q196 627 213 643.5 Q230 660 243 672 L302 672 Q316 661 332 645 Q348 629 364 610 Q380 591 394.5 570 Q409 549 419 528 L411 517 Z M35 226 Q35 291 52 338 Q69 385 99.5 416.5 Q130 448 173.5 463 Q217 478 270 478 Q323 478 366.5 463 Q410 448 441 417 Q472 386 488.5 338.5 Q505 291 505 226 Q505 165 488 119 Q471 73 440.5 42 Q410 11 366.5 -4 Q323 -19 270 -19 Q162 -19 98.5 42.5 Q35 104 35 226 Z M181 226 Q181 168 187.5 132 Q194 96 205.5 76.5 Q217 57 233.5 50.5 Q250 44 270 44 Q290 44 306 50.5 Q322 57 334 76.5 Q346 96 352.5 132 Q359 168 359 226 Q359 284 352.5 321 Q346 358 334 379 Q322 400 305.5 408 Q289 416 269 416 Q249 416 232.5 408 Q216 400 204.5 379 Q193 358 187 321 Q181 284 181 226 Z " />
<glyph glyph-name="otilde" unicode="&#xf5;" horiz-adv-x="539" d="M35 226 Q35 291 52 338 Q69 385 99.5 416.5 Q130 448 173.5 463 Q217 478 270 478 Q323 478 366.5 463 Q410 448 441 417 Q472 386 488.5 338.5 Q505 291 505 226 Q505 165 488 119 Q471 73 440.5 42 Q410 11 366.5 -4 Q323 -19 270 -19 Q162 -19 98.5 42.5 Q35 104 35 226 Z M181 226 Q181 168 187.5 132 Q194 96 205.5 76.5 Q217 57 233.5 50.5 Q250 44 270 44 Q290 44 306 50.5 Q322 57 334 76.5 Q346 96 352.5 132 Q359 168 359 226 Q359 284 352.5 321 Q346 358 334 379 Q322 400 305.5 408 Q289 416 269 416 Q249 416 232.5 408 Q216 400 204.5 379 Q193 358 187 321 Q181 284 181 226 Z M411 663 Q423 627 419.5 600 Q416 573 402.5 555 Q389 537 367 528.5 Q345 520 321 520 Q286 520 265 535.5 Q244 551 227 577 Q210 602 199.5 612.5 Q189 623 171 623 Q151 623 142 603.5 Q133 584 144 536 L121 530 Q109 567 112 594 Q115 621 128.5 638.5 Q142 656 164 664.5 Q186 673 211 673 Q240 673 261.5 660.5 Q283 648 304 617 Q320 594 332 582 Q344 570 361 570 Q381 570 390.5 590 Q400 610 389 657 L411 663 Z " />
<glyph glyph-name="odieresis" unicode="&#xf6;" horiz-adv-x="539" d="M244 587 Q244 562 228.5 546.5 Q213 531 187 531 Q162 531 146 546.5 Q130 562 130 587 Q130 612 146 627.5 Q162 643 187 643 Q213 643 228.5 627.5 Q244 612 244 587 Z M415 587 Q415 562 399.5 546.5 Q384 531 358 531 Q333 531 317 546.5 Q301 562 301 587 Q301 612 317 627.5 Q333 643 358 643 Q384 643 399.5 627.5 Q415 612 415 587 Z M35 226 Q35 291 52 338 Q69 385 99.5 416.5 Q130 448 173.5 463 Q217 478 270 478 Q323 478 366.5 463 Q410 448 441 417 Q472 386 488.5 338.5 Q505 291 505 226 Q505 165 488 119 Q471 73 440.5 42 Q410 11 366.5 -4 Q323 -19 270 -19 Q162 -19 98.5 42.5 Q35 104 35 226 Z M181 226 Q181 168 187.5 132 Q194 96 205.5 76.5 Q217 57 233.5 50.5 Q250 44 270 44 Q290 44 306 50.5 Q322 57 334 76.5 Q346 96 352.5 132 Q359 168 359 226 Q359 284 352.5 321 Q346 358 334 379 Q322 400 305.5 408 Q289 416 269 416 Q249 416 232.5 408 Q216 400 204.5 379 Q193 358 187 321 Q181 284 181 226 Z " />
<glyph glyph-name="divide" unicode="&#xf7;" horiz-adv-x="600" d="M362 114 Q362 87 345.5 71.5 Q329 56 300 56 Q273 56 255 70.5 Q237 85 237 115 Q237 141 255.5 157.5 Q274 174 300 174 Q329 174 345.5 157 Q362 140 362 114 Z M92 286 Q109 286 136.5 285 Q164 284 194 282 Q224 280 252.5 277 Q281 274 300 270 Q319 274 348 277 Q377 280 407 282 Q437 284 464.5 285 Q492 286 508 286 L508 215 Q492 215 464 216 Q436 217 406 219 Q376 221 347.5 224 Q319 227 300 231 Q281 227 252.5 224 Q224 221 194 219 Q164 217 136.5 216 Q109 215 92 215 L92 286 Z M362 385 Q362 358 345.5 342.5 Q329 327 300 327 Q273 327 255 341.5 Q237 356 237 386 Q237 412 255.5 429 Q274 446 300 446 Q329 446 345.5 428.5 Q362 411 362 385 Z " />
<glyph glyph-name="oslash" unicode="&#xf8;" horiz-adv-x="539" d="M35 226 Q35 291 52 338 Q69 385 99.5 416.5 Q130 448 173.5 463 Q217 478 270 478 Q357 478 415 438 L476 505 L492 492 L442 416 Q472 384 488.5 337.5 Q505 291 505 226 Q505 165 488 119 Q471 73 440.5 42 Q410 11 366.5 -4 Q323 -19 270 -19 Q184 -19 126 19 L125 18 L66 -43 L49 -29 L98 42 Q35 105 35 226 Z M359 226 Q359 251 357.5 272 Q356 293 354 310 L279 223 L192 108 Q203 68 223 56 Q243 44 270 44 Q290 44 306 50.5 Q322 57 334 76.5 Q346 96 352.5 132 Q359 168 359 226 Z M181 226 Q181 202 182 182 Q183 162 185 145 L264 239 L346 349 Q335 388 315 402 Q295 416 269 416 Q249 416 232.5 408 Q216 400 204.5 379 Q193 358 187 321 Q181 284 181 226 Z " />
<glyph glyph-name="ugrave" unicode="&#xf9;" horiz-adv-x="618" d="M535 467 Q533 429 532.5 389 Q532 349 531 322 Q531 309 531 282 Q531 255 531 225 Q531 195 531.5 167.5 Q532 140 532 125 Q533 96 544.5 80 Q556 64 583 65 L601 65 L601 0 Q584 0 555.5 0 Q527 0 496.5 -0.5 Q466 -1 438.5 -1.5 Q411 -2 396 -3 L396 91 Q379 40 342.5 10.5 Q306 -19 243 -19 Q211 -19 182 -9.5 Q153 0 131.5 22.5 Q110 45 97.5 81 Q85 117 86 170 Q86 186 86.5 209.5 Q87 233 87 257 Q87 281 87 302.5 Q87 324 86 337 Q85 369 75 384.5 Q65 400 34 400 L17 400 L17 465 Q42 465 64 465 Q83 464 98.5 464 Q114 464 119 464 Q134 464 150.5 464.5 Q167 465 181.5 465.5 Q196 466 207.5 466.5 Q219 467 225 467 Q223 426 222.5 388.5 Q222 351 222 320 L222 180 Q222 140 230.5 115.5 Q239 91 251 77.5 Q263 64 276.5 60 Q290 56 301 56 Q352 56 374 104 Q396 152 396 257 L396 341 Q396 373 381 386.5 Q366 400 325 400 L313 400 L313 465 Q343 465 368 465 Q391 464 409 464 Q427 464 432 464 Q462 464 492.5 464.5 Q523 465 535 467 Z M329 519 Q309 526 287 535.5 Q265 545 243 556 Q221 567 201.5 578 Q182 589 167 599 Q147 613 143.5 629 Q140 645 148.5 656 Q157 667 174 670 Q191 673 212 660 Q226 650 242 635 Q258 620 274.5 602.5 Q291 585 307 566.5 Q323 548 337 530 L329 519 Z " />
<glyph glyph-name="uacute" unicode="&#xfa;" horiz-adv-x="618" d="M272 530 Q286 548 301.5 566.5 Q317 585 333.5 602.5 Q350 620 366.5 635 Q383 650 397 660 Q418 673 435 670 Q452 667 460.5 656 Q469 645 465.5 629 Q462 613 442 599 Q427 589 407.5 578 Q388 567 366 556 Q344 545 322 535.5 Q300 526 280 519 L272 530 Z M535 467 Q533 429 532.5 389 Q532 349 531 322 Q531 309 531 282 Q531 255 531 225 Q531 195 531.5 167.5 Q532 140 532 125 Q533 96 544.5 80 Q556 64 583 65 L601 65 L601 0 Q584 0 555.5 0 Q527 0 496.5 -0.5 Q466 -1 438.5 -1.5 Q411 -2 396 -3 L396 91 Q379 40 342.5 10.5 Q306 -19 243 -19 Q211 -19 182 -9.5 Q153 0 131.5 22.5 Q110 45 97.5 81 Q85 117 86 170 Q86 186 86.5 209.5 Q87 233 87 257 Q87 281 87 302.5 Q87 324 86 337 Q85 369 75 384.5 Q65 400 34 400 L17 400 L17 465 Q42 465 64 465 Q83 464 98.5 464 Q114 464 119 464 Q134 464 150.5 464.5 Q167 465 181.5 465.5 Q196 466 207.5 466.5 Q219 467 225 467 Q223 426 222.5 388.5 Q222 351 222 320 L222 180 Q222 140 230.5 115.5 Q239 91 251 77.5 Q263 64 276.5 60 Q290 56 301 56 Q352 56 374 104 Q396 152 396 257 L396 341 Q396 373 381 386.5 Q366 400 325 400 L313 400 L313 465 Q343 465 368 465 Q391 464 409 464 Q427 464 432 464 Q462 464 492.5 464.5 Q523 465 535 467 Z " />
<glyph glyph-name="ucircumflex" unicode="&#xfb;" horiz-adv-x="618" d="M428 517 Q413 523 394.5 533.5 Q376 544 356.5 556 Q337 568 319 581 Q301 594 288 606 Q275 595 257 582 Q239 569 219.5 556.5 Q200 544 182 534 Q164 524 150 518 L142 528 Q151 548 165.5 568.5 Q180 589 196.5 608 Q213 627 230 643.5 Q247 660 260 672 L319 672 Q333 661 349 645 Q365 629 381 610 Q397 591 411.5 570 Q426 549 436 528 L428 517 Z M535 467 Q533 429 532.5 389 Q532 349 531 322 Q531 309 531 282 Q531 255 531 225 Q531 195 531.5 167.5 Q532 140 532 125 Q533 96 544.5 80 Q556 64 583 65 L601 65 L601 0 Q584 0 555.5 0 Q527 0 496.5 -0.5 Q466 -1 438.5 -1.5 Q411 -2 396 -3 L396 91 Q379 40 342.5 10.5 Q306 -19 243 -19 Q211 -19 182 -9.5 Q153 0 131.5 22.5 Q110 45 97.5 81 Q85 117 86 170 Q86 186 86.5 209.5 Q87 233 87 257 Q87 281 87 302.5 Q87 324 86 337 Q85 369 75 384.5 Q65 400 34 400 L17 400 L17 465 Q42 465 64 465 Q83 464 98.5 464 Q114 464 119 464 Q134 464 150.5 464.5 Q167 465 181.5 465.5 Q196 466 207.5 466.5 Q219 467 225 467 Q223 426 222.5 388.5 Q222 351 222 320 L222 180 Q222 140 230.5 115.5 Q239 91 251 77.5 Q263 64 276.5 60 Q290 56 301 56 Q352 56 374 104 Q396 152 396 257 L396 341 Q396 373 381 386.5 Q366 400 325 400 L313 400 L313 465 Q343 465 368 465 Q391 464 409 464 Q427 464 432 464 Q462 464 492.5 464.5 Q523 465 535 467 Z " />
<glyph glyph-name="udieresis" unicode="&#xfc;" horiz-adv-x="618" d="M260 587 Q260 562 244.5 546.5 Q229 531 203 531 Q178 531 162 546.5 Q146 562 146 587 Q146 612 162 627.5 Q178 643 203 643 Q229 643 244.5 627.5 Q260 612 260 587 Z M431 587 Q431 562 415.5 546.5 Q400 531 374 531 Q349 531 333 546.5 Q317 562 317 587 Q317 612 333 627.5 Q349 643 374 643 Q400 643 415.5 627.5 Q431 612 431 587 Z M535 467 Q533 429 532.5 389 Q532 349 531 322 Q531 309 531 282 Q531 255 531 225 Q531 195 531.5 167.5 Q532 140 532 125 Q533 96 544.5 80 Q556 64 583 65 L601 65 L601 0 Q584 0 555.5 0 Q527 0 496.5 -0.5 Q466 -1 438.5 -1.5 Q411 -2 396 -3 L396 91 Q379 40 342.5 10.5 Q306 -19 243 -19 Q211 -19 182 -9.5 Q153 0 131.5 22.5 Q110 45 97.5 81 Q85 117 86 170 Q86 186 86.5 209.5 Q87 233 87 257 Q87 281 87 302.5 Q87 324 86 337 Q85 369 75 384.5 Q65 400 34 400 L17 400 L17 465 Q42 465 64 465 Q83 464 98.5 464 Q114 464 119 464 Q134 464 150.5 464.5 Q167 465 181.5 465.5 Q196 466 207.5 466.5 Q219 467 225 467 Q223 426 222.5 388.5 Q222 351 222 320 L222 180 Q222 140 230.5 115.5 Q239 91 251 77.5 Q263 64 276.5 60 Q290 56 301 56 Q352 56 374 104 Q396 152 396 257 L396 341 Q396 373 381 386.5 Q366 400 325 400 L313 400 L313 465 Q343 465 368 465 Q391 464 409 464 Q427 464 432 464 Q462 464 492.5 464.5 Q523 465 535 467 Z " />
<glyph glyph-name="yacute" unicode="&#xfd;" horiz-adv-x="578" d="M391 346 Q398 370 389.5 385 Q381 400 357 400 L338 400 L338 465 Q356 464 376 464 Q394 463 414 462.5 Q434 462 454 462 Q473 462 492 462.5 Q511 463 526 464 Q544 464 561 465 Q561 462 560.5 452.5 Q560 443 560 432 Q560 421 560.5 411.5 Q561 402 561 400 L541 400 Q504 400 487 386 Q470 372 458 345 Q446 317 429.5 274.5 Q413 232 395 184.5 Q377 137 360 89 Q343 41 329 2 Q295 -97 248.5 -144 Q202 -191 125 -191 Q68 -191 41 -164.5 Q14 -138 14 -100 Q14 -59 37.5 -39.5 Q61 -20 91 -20 Q161 -20 161 -84 Q161 -111 140 -131.5 Q119 -152 83 -150 Q91 -153 100.5 -155 Q110 -157 123 -157 Q150 -157 172.5 -147.5 Q195 -138 214.5 -116 Q234 -94 251 -58 Q268 -22 284 31 Q275 31 263.5 31.5 Q252 32 241.5 32 Q231 32 222.5 31.5 Q214 31 211 31 Q202 61 186 104 Q170 147 153 192.5 Q136 238 120 279 Q104 320 94 345 Q82 374 67 387 Q52 400 24 400 L10 400 L10 465 Q33 464 57 464 Q79 463 103 462.5 Q127 462 152 462 Q177 462 202.5 462.5 Q228 463 249 464 Q273 464 296 465 L296 400 L278 400 Q228 400 243 346 Q248 329 256.5 303.5 Q265 278 275.5 248.5 Q286 219 297.5 188.5 Q309 158 319 132 Q330 163 342 197.5 Q354 232 364 262.5 Q374 293 381.5 316 Q389 339 391 346 Z M307 530 Q321 548 336.5 566.5 Q352 585 368.5 602.5 Q385 620 401.5 635 Q418 650 432 660 Q453 673 470 670 Q487 667 495.5 656 Q504 645 500.5 629 Q497 613 477 599 Q462 589 442.5 578 Q423 567 401 556 Q379 545 357 535.5 Q335 526 315 519 L307 530 Z " />
<glyph glyph-name="thorn" unicode="&#xfe;" horiz-adv-x="588" d="M371 -17 Q261 -17 226 83 L226 -48 Q226 -112 285 -112 L303 -112 Q303 -114 302.5 -123.5 Q302 -133 302 -144 Q302 -155 302.5 -164.5 Q303 -174 303 -176 Q297 -176 281 -175.5 Q265 -175 244.5 -174.5 Q224 -174 201.5 -173.5 Q179 -173 160 -173 Q141 -173 118 -173.5 Q95 -174 74 -174.5 Q53 -175 37.5 -175.5 Q22 -176 18 -176 L18 -112 L36 -112 Q65 -112 76.5 -96 Q88 -80 90 -48 Q91 -35 91.5 11.5 Q92 58 92 121.5 Q92 185 92 257 Q92 329 92 393 Q92 457 91.5 504 Q91 551 90 564 Q88 598 76.5 612 Q65 626 33 626 L19 626 L19 690 Q36 690 65 690 Q94 690 125 690.5 Q156 691 183.5 691.5 Q211 692 226 693 L226 366 Q262 478 378 478 Q466 478 507 419 Q548 360 548 229 Q548 -17 371 -17 Z M226 231 Q226 193 230 161.5 Q234 130 244 107 Q254 84 272.5 71.5 Q291 59 319 59 Q342 59 358 66 Q374 73 384.5 92.5 Q395 112 399.5 145.5 Q404 179 404 231 Q404 268 401.5 299.5 Q399 331 391 354.5 Q383 378 366.5 391 Q350 404 321 404 Q275 404 250.5 362.5 Q226 321 226 231 Z " />
<glyph glyph-name="ydieresis" unicode="&#xff;" horiz-adv-x="578" d="M391 346 Q398 370 389.5 385 Q381 400 357 400 L338 400 L338 465 Q356 464 376 464 Q394 463 414 462.5 Q434 462 454 462 Q473 462 492 462.5 Q511 463 526 464 Q544 464 561 465 Q561 462 560.5 452.5 Q560 443 560 432 Q560 421 560.5 411.5 Q561 402 561 400 L541 400 Q504 400 487 386 Q470 372 458 345 Q446 317 429.5 274.5 Q413 232 395 184.5 Q377 137 360 89 Q343 41 329 2 Q295 -97 248.5 -144 Q202 -191 125 -191 Q68 -191 41 -164.5 Q14 -138 14 -100 Q14 -59 37.5 -39.5 Q61 -20 91 -20 Q161 -20 161 -84 Q161 -111 140 -131.5 Q119 -152 83 -150 Q91 -153 100.5 -155 Q110 -157 123 -157 Q150 -157 172.5 -147.5 Q195 -138 214.5 -116 Q234 -94 251 -58 Q268 -22 284 31 Q275 31 263.5 31.5 Q252 32 241.5 32 Q231 32 222.5 31.5 Q214 31 211 31 Q202 61 186 104 Q170 147 153 192.5 Q136 238 120 279 Q104 320 94 345 Q82 374 67 387 Q52 400 24 400 L10 400 L10 465 Q33 464 57 464 Q79 463 103 462.5 Q127 462 152 462 Q177 462 202.5 462.5 Q228 463 249 464 Q273 464 296 465 L296 400 L278 400 Q228 400 243 346 Q248 329 256.5 303.5 Q265 278 275.5 248.5 Q286 219 297.5 188.5 Q309 158 319 132 Q330 163 342 197.5 Q354 232 364 262.5 Q374 293 381.5 316 Q389 339 391 346 Z M291 587 Q291 562 275.5 546.5 Q260 531 234 531 Q209 531 193 546.5 Q177 562 177 587 Q177 612 193 627.5 Q209 643 234 643 Q260 643 275.5 627.5 Q291 612 291 587 Z M462 587 Q462 562 446.5 546.5 Q431 531 405 531 Q380 531 364 546.5 Q348 562 348 587 Q348 612 364 627.5 Q380 643 405 643 Q431 643 446.5 627.5 Q462 612 462 587 Z " />
<glyph glyph-name="Amacron" unicode="&#x100;" horiz-adv-x="883" d="M532 213 Q505 214 471.5 214.5 Q438 215 403 215 Q368 215 333.5 214.5 Q299 214 272 214 Q267 200 263.5 189 Q260 178 258 171 Q244 126 253 101.5 Q262 77 307 77 L347 77 Q347 74 347 62.5 Q347 51 346.5 37.5 Q346 24 346 12.5 Q346 1 346 -2 Q317 -1 289 -1 Q263 -1 237 -0.5 Q211 0 189 0 Q168 0 141 -0.5 Q114 -1 90 -1 Q61 -1 32 -2 Q32 1 32.5 12.5 Q33 24 33 37.5 Q33 51 32.5 62.5 Q32 74 32 77 L64 77 Q107 77 129 96 Q151 115 169 163 Q174 174 188 212 Q202 250 221.5 302 Q241 354 263 413.5 Q285 473 305.5 528.5 Q326 584 342.5 629 Q359 674 367 696 Q381 695 394 695 Q407 694 419.5 693.5 Q432 693 442 693 Q452 693 465 693.5 Q478 694 489 695 Q502 695 516 696 Q526 667 543.5 621 Q561 575 581.5 521.5 Q602 468 624 412 Q646 356 665.5 306.5 Q685 257 700.5 218.5 Q716 180 724 162 Q745 114 764.5 95.5 Q784 77 814 77 L851 77 L851 -2 Q815 -1 780 -1 Q748 -1 716 -0.5 Q684 0 658 0 Q632 0 598.5 -0.5 Q565 -1 535 -1 Q500 -1 464 -2 Q464 1 464 12.5 Q464 24 464 37.5 Q464 51 464 62.5 Q464 74 464 77 L506 77 Q543 77 553 101.5 Q563 126 546 173 L532 213 Z M512 269 Q500 304 485 344.5 Q470 385 455 425 Q440 465 425.5 502.5 Q411 540 400 568 Q390 540 376 503 Q362 466 347.5 425.5 Q333 385 318.5 344.5 Q304 304 292 269 Q317 269 345.5 268.5 Q374 268 403 268 Q432 268 460 268.5 Q488 269 512 269 Z M313 761 Q314 776 314 797 Q314 818 313 834 Q336 833 372 833 Q408 833 446 833 Q484 833 520 833 Q556 833 579 834 Q578 818 578 797.5 Q578 777 579 761 Q556 762 520 762.5 Q484 763 446 763 Q408 763 372 762.5 Q336 762 313 761 Z " />
<glyph glyph-name="amacron" unicode="&#x101;" horiz-adv-x="541" d="M434 115 Q434 80 439.5 69 Q445 58 456 58 Q472 58 478.5 87 Q485 116 482 170 L521 172 Q523 129 519.5 94 Q516 59 504 35 Q492 11 470 -2 Q448 -15 413 -15 Q362 -15 336.5 7.5 Q311 30 303 67 Q283 32 248.5 9 Q214 -14 160 -14 Q94 -14 59.5 16.5 Q25 47 25 105 Q25 149 49 178 Q73 207 111.5 225 Q150 243 199 252 Q248 261 299 264 L299 300 Q299 331 295 354.5 Q291 378 279.5 393.5 Q268 409 248 417 Q228 425 195 425 Q178 425 165 423 Q152 421 141 418 Q165 413 178 396.5 Q191 380 191 356 Q191 325 171.5 307.5 Q152 290 117 290 Q84 290 64 308 Q44 326 44 361 Q44 390 60.5 412 Q77 434 105 448.5 Q133 463 168.5 470.5 Q204 478 241 478 Q298 478 335 464.5 Q372 451 394 426 Q416 401 425 365.5 Q434 330 434 286 L434 115 Z M224 59 Q252 59 271 74 Q290 89 299 123 L299 234 Q240 228 205 202.5 Q170 177 170 125 Q170 90 184.5 74.5 Q199 59 224 59 Z M108 538 Q109 553 109 574 Q109 595 108 611 Q131 610 167 610 Q203 610 241 610 Q279 610 315 610 Q351 610 374 611 Q373 595 373 574.5 Q373 554 374 538 Q351 539 315 539.5 Q279 540 241 540 Q203 540 167 539.5 Q131 539 108 538 Z " />
<glyph glyph-name="Abreve" unicode="&#x102;" horiz-adv-x="883" d="M532 213 Q505 214 471.5 214.5 Q438 215 403 215 Q368 215 333.5 214.5 Q299 214 272 214 Q267 200 263.5 189 Q260 178 258 171 Q244 126 253 101.5 Q262 77 307 77 L347 77 Q347 74 347 62.5 Q347 51 346.5 37.5 Q346 24 346 12.5 Q346 1 346 -2 Q317 -1 289 -1 Q263 -1 237 -0.5 Q211 0 189 0 Q168 0 141 -0.5 Q114 -1 90 -1 Q61 -1 32 -2 Q32 1 32.5 12.5 Q33 24 33 37.5 Q33 51 32.5 62.5 Q32 74 32 77 L64 77 Q107 77 129 96 Q151 115 169 163 Q174 174 188 212 Q202 250 221.5 302 Q241 354 263 413.5 Q285 473 305.5 528.5 Q326 584 342.5 629 Q359 674 367 696 Q381 695 394 695 Q407 694 419.5 693.5 Q432 693 442 693 Q452 693 465 693.5 Q478 694 489 695 Q502 695 516 696 Q526 667 543.5 621 Q561 575 581.5 521.5 Q602 468 624 412 Q646 356 665.5 306.5 Q685 257 700.5 218.5 Q716 180 724 162 Q745 114 764.5 95.5 Q784 77 814 77 L851 77 L851 -2 Q815 -1 780 -1 Q748 -1 716 -0.5 Q684 0 658 0 Q632 0 598.5 -0.5 Q565 -1 535 -1 Q500 -1 464 -2 Q464 1 464 12.5 Q464 24 464 37.5 Q464 51 464 62.5 Q464 74 464 77 L506 77 Q543 77 553 101.5 Q563 126 546 173 L532 213 Z M512 269 Q500 304 485 344.5 Q470 385 455 425 Q440 465 425.5 502.5 Q411 540 400 568 Q390 540 376 503 Q362 466 347.5 425.5 Q333 385 318.5 344.5 Q304 304 292 269 Q317 269 345.5 268.5 Q374 268 403 268 Q432 268 460 268.5 Q488 269 512 269 Z M442 748 Q405 748 377.5 759.5 Q350 771 332.5 790.5 Q315 810 308 836.5 Q301 863 305 893 L324 895 Q327 852 359 838.5 Q391 825 442 825 Q493 825 525 838.5 Q557 852 560 895 L579 893 Q583 863 576 836.5 Q569 810 552 790.5 Q535 771 507.5 759.5 Q480 748 442 748 Z " />
<glyph glyph-name="abreve" unicode="&#x103;" horiz-adv-x="541" d="M434 115 Q434 80 439.5 69 Q445 58 456 58 Q472 58 478.5 87 Q485 116 482 170 L521 172 Q523 129 519.5 94 Q516 59 504 35 Q492 11 470 -2 Q448 -15 413 -15 Q362 -15 336.5 7.5 Q311 30 303 67 Q283 32 248.5 9 Q214 -14 160 -14 Q94 -14 59.5 16.5 Q25 47 25 105 Q25 149 49 178 Q73 207 111.5 225 Q150 243 199 252 Q248 261 299 264 L299 300 Q299 331 295 354.5 Q291 378 279.5 393.5 Q268 409 248 417 Q228 425 195 425 Q178 425 165 423 Q152 421 141 418 Q165 413 178 396.5 Q191 380 191 356 Q191 325 171.5 307.5 Q152 290 117 290 Q84 290 64 308 Q44 326 44 361 Q44 390 60.5 412 Q77 434 105 448.5 Q133 463 168.5 470.5 Q204 478 241 478 Q298 478 335 464.5 Q372 451 394 426 Q416 401 425 365.5 Q434 330 434 286 L434 115 Z M224 59 Q252 59 271 74 Q290 89 299 123 L299 234 Q240 228 205 202.5 Q170 177 170 125 Q170 90 184.5 74.5 Q199 59 224 59 Z M246 528 Q209 528 181.5 539.5 Q154 551 136.5 570.5 Q119 590 112 616.5 Q105 643 109 673 L128 675 Q131 632 163 618.5 Q195 605 246 605 Q297 605 329 618.5 Q361 632 364 675 L383 673 Q387 643 380 616.5 Q373 590 356 570.5 Q339 551 311.5 539.5 Q284 528 246 528 Z " />
<glyph glyph-name="Aogonek" unicode="&#x104;" horiz-adv-x="883" d="M793 -77 Q792 -138 764.5 -172 Q737 -206 674 -206 Q626 -206 596 -182 Q566 -158 567 -114 Q569 -73 592.5 -45 Q616 -17 652 0 Q626 0 593.5 -0.5 Q561 -1 532 -1 Q498 -1 464 -2 Q464 1 464 12.5 Q464 24 464 37.5 Q464 51 464 62.5 Q464 74 464 77 L506 77 Q543 77 553 101.5 Q563 126 546 173 L532 213 Q505 214 471.5 214.5 Q438 215 403 215 Q368 215 333.5 214.5 Q299 214 272 214 Q267 200 263.5 189 Q260 178 258 171 Q244 126 253 101.5 Q262 77 307 77 L347 77 Q347 74 347 62.5 Q347 51 346.5 37.5 Q346 24 346 12.5 Q346 1 346 -2 Q317 -1 289 -1 Q263 -1 237 -0.5 Q211 0 189 0 Q168 0 141 -0.5 Q114 -1 90 -1 Q61 -1 32 -2 Q32 1 32.5 12.5 Q33 24 33 37.5 Q33 51 32.5 62.5 Q32 74 32 77 L64 77 Q107 77 129 96 Q151 115 169 163 Q174 174 188 212 Q202 250 221.5 302 Q241 354 263 413.5 Q285 473 305.5 528.5 Q326 584 342.5 629 Q359 674 367 696 Q381 695 394 695 Q407 694 419.5 693.5 Q432 693 442 693 Q452 693 465 693.5 Q478 694 489 695 Q502 695 516 696 Q526 667 543.5 621 Q561 575 581.5 521.5 Q602 468 624 412 Q646 356 665.5 306.5 Q685 257 700.5 218.5 Q716 180 724 162 Q745 114 764.5 95.5 Q784 77 814 77 L851 77 L851 -2 Q827 -1 801 -1 Q777 -1 751.5 -0.5 Q726 0 700 0 Q673 -14 657.5 -35 Q642 -56 642 -84 Q642 -113 659 -126 Q676 -139 699 -139 Q726 -139 743 -122 Q760 -105 765 -72 L793 -77 Z M512 269 Q500 304 485 344.5 Q470 385 455 425 Q440 465 425.5 502.5 Q411 540 400 568 Q390 540 376 503 Q362 466 347.5 425.5 Q333 385 318.5 344.5 Q304 304 292 269 Q317 269 345.5 268.5 Q374 268 403 268 Q432 268 460 268.5 Q488 269 512 269 Z " />
<glyph glyph-name="aogonek" unicode="&#x105;" horiz-adv-x="541" d="M592 -77 Q590 -135 561 -170.5 Q532 -206 466 -206 Q421 -206 392 -182 Q363 -158 365 -113 Q367 -81 384.5 -56 Q402 -31 432 -14 Q428 -15 423 -15 Q418 -15 413 -15 Q362 -15 336.5 7.5 Q311 30 303 67 Q283 32 248.5 9 Q214 -14 160 -14 Q94 -14 59.5 16.5 Q25 47 25 105 Q25 149 49 178 Q73 207 111.5 225 Q150 243 199 252 Q248 261 299 264 L299 300 Q299 331 295 354.5 Q291 378 279.5 393.5 Q268 409 248 417 Q228 425 195 425 Q178 425 165 423 Q152 421 141 418 Q165 413 178 396.5 Q191 380 191 356 Q191 325 171.5 307.5 Q152 290 117 290 Q84 290 64 308 Q44 326 44 361 Q44 390 60.5 412 Q77 434 105 448.5 Q133 463 168.5 470.5 Q204 478 241 478 Q298 478 335 464.5 Q372 451 394 426 Q416 401 425 365.5 Q434 330 434 286 L434 115 Q434 80 439.5 69 Q445 58 456 58 Q472 58 478.5 87 Q485 116 482 170 L521 172 Q524 112 517 76 Q510 40 487 9 Q465 -20 452 -40 Q439 -60 439 -86 Q439 -113 454.5 -126 Q470 -139 493 -139 Q548 -139 563 -72 L592 -77 Z M224 59 Q252 59 271 74 Q290 89 299 123 L299 234 Q240 228 205 202.5 Q170 177 170 125 Q170 90 184.5 74.5 Q199 59 224 59 Z " />
<glyph glyph-name="Cacute" unicode="&#x106;" horiz-adv-x="732" d="M362 755 Q376 773 391.5 791.5 Q407 810 423.5 827.5 Q440 845 456.5 860 Q473 875 487 885 Q508 898 525 895 Q542 892 550.5 881 Q559 870 555.5 854 Q552 838 532 824 Q517 814 497.5 803 Q478 792 456 781 Q434 770 412 760.5 Q390 751 370 744 L362 755 Z M552 667 Q588 647 600.5 653.5 Q613 660 618 698 Q621 698 631.5 697.5 Q642 697 654.5 697 Q667 697 677.5 697.5 Q688 698 690 698 Q687 679 683.5 647.5 Q680 616 677.5 579.5 Q675 543 674 506.5 Q673 470 674 441 Q655 443 626 443 Q597 443 578 441 Q573 481 563 515.5 Q553 550 533.5 575.5 Q514 601 482 616 Q450 631 401 631 Q354 631 320 615.5 Q286 600 264.5 566 Q243 532 232.5 477.5 Q222 423 222 346 Q222 258 235.5 202 Q249 146 272 114.5 Q295 83 326.5 71 Q358 59 395 59 Q486 59 534 115 Q582 171 586 269 Q595 268 608.5 268 Q622 268 637 268 Q652 268 666 268 Q680 268 689 269 Q686 196 668 142 Q650 88 614 52 Q578 16 521.5 -1.5 Q465 -19 385 -19 Q307 -19 243.5 0.5 Q180 20 136 63.5 Q92 107 68 176.5 Q44 246 44 346 Q44 441 69.5 510 Q95 579 140 623.5 Q185 668 246.5 689 Q308 710 380 710 Q450 710 490.5 694.5 Q531 679 552 667 Z " />
<glyph glyph-name="cacute" unicode="&#x107;" horiz-adv-x="494" d="M247 530 Q261 548 276.5 566.5 Q292 585 308.5 602.5 Q325 620 341.5 635 Q358 650 372 660 Q393 673 410 670 Q427 667 435.5 656 Q444 645 440.5 629 Q437 613 417 599 Q402 589 382.5 578 Q363 567 341 556 Q319 545 297 535.5 Q275 526 255 519 L247 530 Z M382 146 Q386 146 398 144.5 Q410 143 423.5 141.5 Q437 140 449.5 138.5 Q462 137 466 137 Q454 66 403 24.5 Q352 -17 261 -17 Q149 -17 91 45.5 Q33 108 33 226 Q33 344 96 411 Q159 478 272 478 Q312 478 345.5 469.5 Q379 461 403 445.5 Q427 430 440.5 407.5 Q454 385 454 357 Q454 322 433.5 302 Q413 282 376 282 Q340 282 320 300 Q300 318 300 349 Q300 369 309.5 385.5 Q319 402 339 410 Q326 415 311.5 418.5 Q297 422 279 422 Q225 422 201 380.5 Q177 339 177 235 Q177 183 182.5 148.5 Q188 114 199.5 93 Q211 72 229.5 63.5 Q248 55 274 55 Q329 55 351 80 Q373 105 382 146 Z " />
<glyph glyph-name="Ccircumflex" unicode="&#x108;" horiz-adv-x="732" d="M521 735 Q506 741 487.5 751.5 Q469 762 449.5 774 Q430 786 412 799 Q394 812 381 824 Q368 813 350 800 Q332 787 312.5 774.5 Q293 762 275 752 Q257 742 243 736 L235 746 Q244 766 258.5 786.5 Q273 807 289.5 826 Q306 845 323 861.5 Q340 878 353 890 L412 890 Q426 879 442 863 Q458 847 474 828 Q490 809 504.5 788 Q519 767 529 746 L521 735 Z M552 667 Q588 647 600.5 653.5 Q613 660 618 698 Q621 698 631.5 697.5 Q642 697 654.5 697 Q667 697 677.5 697.5 Q688 698 690 698 Q687 679 683.5 647.5 Q680 616 677.5 579.5 Q675 543 674 506.5 Q673 470 674 441 Q655 443 626 443 Q597 443 578 441 Q573 481 563 515.5 Q553 550 533.5 575.5 Q514 601 482 616 Q450 631 401 631 Q354 631 320 615.5 Q286 600 264.5 566 Q243 532 232.5 477.5 Q222 423 222 346 Q222 258 235.5 202 Q249 146 272 114.5 Q295 83 326.5 71 Q358 59 395 59 Q486 59 534 115 Q582 171 586 269 Q595 268 608.5 268 Q622 268 637 268 Q652 268 666 268 Q680 268 689 269 Q686 196 668 142 Q650 88 614 52 Q578 16 521.5 -1.5 Q465 -19 385 -19 Q307 -19 243.5 0.5 Q180 20 136 63.5 Q92 107 68 176.5 Q44 246 44 346 Q44 441 69.5 510 Q95 579 140 623.5 Q185 668 246.5 689 Q308 710 380 710 Q450 710 490.5 694.5 Q531 679 552 667 Z " />
<glyph glyph-name="ccircumflex" unicode="&#x109;" horiz-adv-x="494" d="M413 517 Q398 523 379.5 533.5 Q361 544 341.5 556 Q322 568 304 581 Q286 594 273 606 Q260 595 242 582 Q224 569 204.5 556.5 Q185 544 167 534 Q149 524 135 518 L127 528 Q136 548 150.5 568.5 Q165 589 181.5 608 Q198 627 215 643.5 Q232 660 245 672 L304 672 Q318 661 334 645 Q350 629 366 610 Q382 591 396.5 570 Q411 549 421 528 L413 517 Z M382 146 Q386 146 398 144.5 Q410 143 423.5 141.5 Q437 140 449.5 138.5 Q462 137 466 137 Q454 66 403 24.5 Q352 -17 261 -17 Q149 -17 91 45.5 Q33 108 33 226 Q33 344 96 411 Q159 478 272 478 Q312 478 345.5 469.5 Q379 461 403 445.5 Q427 430 440.5 407.5 Q454 385 454 357 Q454 322 433.5 302 Q413 282 376 282 Q340 282 320 300 Q300 318 300 349 Q300 369 309.5 385.5 Q319 402 339 410 Q326 415 311.5 418.5 Q297 422 279 422 Q225 422 201 380.5 Q177 339 177 235 Q177 183 182.5 148.5 Q188 114 199.5 93 Q211 72 229.5 63.5 Q248 55 274 55 Q329 55 351 80 Q373 105 382 146 Z " />
<glyph glyph-name="Cdotaccent" unicode="&#x10a;" horiz-adv-x="732" d="M552 667 Q588 647 600.5 653.5 Q613 660 618 698 Q621 698 631.5 697.5 Q642 697 654.5 697 Q667 697 677.5 697.5 Q688 698 690 698 Q687 679 683.5 647.5 Q680 616 677.5 579.5 Q675 543 674 506.5 Q673 470 674 441 Q655 443 626 443 Q597 443 578 441 Q573 481 563 515.5 Q553 550 533.5 575.5 Q514 601 482 616 Q450 631 401 631 Q354 631 320 615.5 Q286 600 264.5 566 Q243 532 232.5 477.5 Q222 423 222 346 Q222 258 235.5 202 Q249 146 272 114.5 Q295 83 326.5 71 Q358 59 395 59 Q486 59 534 115 Q582 171 586 269 Q595 268 608.5 268 Q622 268 637 268 Q652 268 666 268 Q680 268 689 269 Q686 196 668 142 Q650 88 614 52 Q578 16 521.5 -1.5 Q465 -19 385 -19 Q307 -19 243.5 0.5 Q180 20 136 63.5 Q92 107 68 176.5 Q44 246 44 346 Q44 441 69.5 510 Q95 579 140 623.5 Q185 668 246.5 689 Q308 710 380 710 Q450 710 490.5 694.5 Q531 679 552 667 Z M442 829 Q442 803 425 786 Q408 769 382 769 Q357 769 340.5 786 Q324 803 324 829 Q324 855 340.5 871.5 Q357 888 382 888 Q408 888 425 871.5 Q442 855 442 829 Z " />
<glyph glyph-name="cdotaccent" unicode="&#x10b;" horiz-adv-x="494" d="M382 146 Q386 146 398 144.5 Q410 143 423.5 141.5 Q437 140 449.5 138.5 Q462 137 466 137 Q454 66 403 24.5 Q352 -17 261 -17 Q149 -17 91 45.5 Q33 108 33 226 Q33 344 96 411 Q159 478 272 478 Q312 478 345.5 469.5 Q379 461 403 445.5 Q427 430 440.5 407.5 Q454 385 454 357 Q454 322 433.5 302 Q413 282 376 282 Q340 282 320 300 Q300 318 300 349 Q300 369 309.5 385.5 Q319 402 339 410 Q326 415 311.5 418.5 Q297 422 279 422 Q225 422 201 380.5 Q177 339 177 235 Q177 183 182.5 148.5 Q188 114 199.5 93 Q211 72 229.5 63.5 Q248 55 274 55 Q329 55 351 80 Q373 105 382 146 Z M327 604 Q327 578 310 561 Q293 544 267 544 Q242 544 225.5 561 Q209 578 209 604 Q209 630 225.5 646.5 Q242 663 267 663 Q293 663 310 646.5 Q327 630 327 604 Z " />
<glyph glyph-name="Ccaron" unicode="&#x10c;" horiz-adv-x="732" d="M243 907 Q258 901 277 890.5 Q296 880 315.5 868 Q335 856 353 843 Q371 830 384 819 Q396 830 414 843 Q432 856 451.5 868.5 Q471 881 489.5 891 Q508 901 521 907 L529 897 Q520 877 505.5 856 Q491 835 474.5 816 Q458 797 441.5 781 Q425 765 411 753 L352 753 Q339 764 322.5 780 Q306 796 290 815 Q274 834 259.5 855 Q245 876 235 897 L243 907 Z M552 667 Q588 647 600.5 653.5 Q613 660 618 698 Q621 698 631.5 697.5 Q642 697 654.5 697 Q667 697 677.5 697.5 Q688 698 690 698 Q687 679 683.5 647.5 Q680 616 677.5 579.5 Q675 543 674 506.5 Q673 470 674 441 Q655 443 626 443 Q597 443 578 441 Q573 481 563 515.5 Q553 550 533.5 575.5 Q514 601 482 616 Q450 631 401 631 Q354 631 320 615.5 Q286 600 264.5 566 Q243 532 232.5 477.5 Q222 423 222 346 Q222 258 235.5 202 Q249 146 272 114.5 Q295 83 326.5 71 Q358 59 395 59 Q486 59 534 115 Q582 171 586 269 Q595 268 608.5 268 Q622 268 637 268 Q652 268 666 268 Q680 268 689 269 Q686 196 668 142 Q650 88 614 52 Q578 16 521.5 -1.5 Q465 -19 385 -19 Q307 -19 243.5 0.5 Q180 20 136 63.5 Q92 107 68 176.5 Q44 246 44 346 Q44 441 69.5 510 Q95 579 140 623.5 Q185 668 246.5 689 Q308 710 380 710 Q450 710 490.5 694.5 Q531 679 552 667 Z " />
<glyph glyph-name="ccaron" unicode="&#x10d;" horiz-adv-x="494" d="M138 682 Q153 676 172 665.5 Q191 655 210.5 643 Q230 631 248 618 Q266 605 279 594 Q291 605 309 618 Q327 631 346.5 643.5 Q366 656 384.5 666 Q403 676 416 682 L424 672 Q415 652 400.5 631 Q386 610 369.5 591 Q353 572 336.5 556 Q320 540 306 528 L247 528 Q234 539 217.5 555 Q201 571 185 590 Q169 609 154.5 630 Q140 651 130 672 L138 682 Z M382 146 Q386 146 398 144.5 Q410 143 423.5 141.5 Q437 140 449.5 138.5 Q462 137 466 137 Q454 66 403 24.5 Q352 -17 261 -17 Q149 -17 91 45.5 Q33 108 33 226 Q33 344 96 411 Q159 478 272 478 Q312 478 345.5 469.5 Q379 461 403 445.5 Q427 430 440.5 407.5 Q454 385 454 357 Q454 322 433.5 302 Q413 282 376 282 Q340 282 320 300 Q300 318 300 349 Q300 369 309.5 385.5 Q319 402 339 410 Q326 415 311.5 418.5 Q297 422 279 422 Q225 422 201 380.5 Q177 339 177 235 Q177 183 182.5 148.5 Q188 114 199.5 93 Q211 72 229.5 63.5 Q248 55 274 55 Q329 55 351 80 Q373 105 382 146 Z " />
</font>
</svg>
