<?xml version="1.0" encoding="UTF-8"?>
<svg xmlns="http://www.w3.org/2000/svg" xmlns:xlink="http://www.w3.org/1999/xlink" version="1.2" >
<font id="Eames Century Modern Book">
<font-face  font-family="Eames Century Modern" units-per-em="1000" ascent="820" descent="-180" font-style="normal" font-weight="450" font-stretch="normal" cap-height="687" x-height="459" underline-position="-75" underline-thickness="50" />
<missing-glyph  horiz-adv-x="500" d="" />
<glyph glyph-name="NULL" d="" />
<glyph glyph-name="CR" unicode="&#xd;" horiz-adv-x="250" d="" />
<glyph glyph-name="space" unicode="&#x20;" horiz-adv-x="235" d="" />
<glyph glyph-name="exclam" unicode="&#x21;" horiz-adv-x="239" d="M190 55 C190 97 162 125 119 125 C79 125 49 98 49 56 C49 10 79 -13 119 -13 C162 -13 190 12 190 55 L190 55 Z M130 203 C130 356 145 425 181 552 C212 661 171 710 117 710 C62 710 25 661 53 552 C85 426 104 353 104 203 C104 195 107 191 117 191 C126 191 130 196 130 203 L130 203 Z " />
<glyph glyph-name="quotedbl" unicode="&#x22;" horiz-adv-x="369" d="M121 449 C119 521 117 572 139 622 C163 675 144 710 109 710 C74 710 57 675 79 622 C99 574 99 521 99 449 C99 439 103 435 109 435 C116 435 121 439 121 449 L121 449 Z M271 449 C269 521 267 572 289 622 C313 675 294 710 259 710 C224 710 207 675 229 622 C249 574 249 521 249 449 C249 439 253 435 259 435 C266 435 271 439 271 449 L271 449 Z " />
<glyph glyph-name="numbersign" unicode="&#x23;" horiz-adv-x="595" d="M155 0 C163 57 177 138 193 225 C251 225 313 226 370 225 C355 138 340 57 328 0 L357 0 C365 57 377 138 392 225 C436 225 476 224 506 224 L513 257 C482 256 441 255 397 255 C406 313 416 373 427 431 C471 431 511 430 542 430 C542 433 548 460 548 463 C517 462 477 461 432 461 C448 549 464 630 476 688 L445 688 C437 630 425 549 410 461 L237 461 C254 549 271 630 284 688 L253 688 C244 630 231 549 215 461 C164 461 116 462 82 463 L75 430 C110 430 157 431 210 431 L177 255 C130 255 88 256 56 257 L49 224 C81 224 124 225 172 225 C155 138 138 57 126 0 L155 0 Z M231 431 L406 431 L376 255 L198 255 L231 431 Z " />
<glyph glyph-name="dollar" unicode="&#x24;" horiz-adv-x="590" d="M259 787 L212 787 L215 667 C120 647 50 579 50 482 C50 398 101 332 221 305 L215 60 C154 70 113 92 96 128 C134 128 161 148 161 178 C161 216 137 237 96 237 C55 237 30 208 30 172 C30 92 103 35 214 17 L212 -99 L259 -99 L256 12 C276 10 297 10 317 11 L315 -99 L362 -99 L359 15 C490 35 561 116 561 223 C561 325 512 392 353 416 L358 626 C402 618 433 600 453 571 L452 571 C415 571 390 547 390 518 C390 482 413 462 457 462 C494 462 518 490 518 527 C518 600 461 651 359 668 L362 787 L315 787 L317 672 C299 674 275 675 256 673 L259 787 Z M485 177 C485 122 437 75 358 59 L353 283 C445 264 485 233 485 177 L485 177 Z M250 299 C275 295 299 292 323 289 L318 54 C297 53 276 53 255 55 L250 299 Z M250 431 L255 632 C275 634 299 634 318 631 L323 420 C322 420 321 421 320 421 C293 424 270 427 250 431 L250 431 Z M126 523 C126 570 153 611 216 626 L220 438 C143 458 126 489 126 523 L126 523 Z " />
<glyph glyph-name="percent" unicode="&#x25;" horiz-adv-x="600" d="M189 418 C146 418 129 439 129 551 C129 659 151 686 189 686 C229 686 249 663 249 551 C249 444 231 418 189 418 L189 418 Z M189 392 C256 392 321 438 321 551 C321 664 266 711 189 711 C123 711 58 665 58 551 C58 439 112 392 189 392 L189 392 Z M95 85 C95 80 98 77 103 77 C108 77 111 80 111 85 C111 90 108 93 103 93 C98 93 95 90 95 85 L95 85 Z M132 139 C132 131 138 125 145 125 C152 125 158 131 158 139 C158 146 152 152 145 152 C138 152 132 146 132 139 L132 139 Z M169 192 C169 182 177 174 187 174 C197 174 205 182 205 192 C205 202 197 210 187 210 C177 210 169 202 169 192 L169 192 Z M207 246 C207 234 217 224 229 224 C241 224 251 234 251 246 C251 257 241 267 229 267 C217 267 207 257 207 246 L207 246 Z M247 299 C247 286 258 275 271 275 C284 275 295 286 295 299 C295 312 284 323 271 323 C258 323 247 312 247 299 L247 299 Z M288 353 C288 339 299 328 313 328 C327 328 338 339 338 353 C338 366 327 377 313 377 C299 377 288 366 288 353 L288 353 Z M331 406 C331 393 342 382 355 382 C368 382 379 393 379 406 C379 419 368 430 355 430 C342 430 331 419 331 406 L331 406 Z M375 460 C375 448 385 438 397 438 C409 438 419 448 419 460 C419 471 409 481 397 481 C385 481 375 471 375 460 L375 460 Z M421 513 C421 503 429 495 439 495 C449 495 457 503 457 513 C457 523 449 531 439 531 C429 531 421 523 421 513 L421 513 Z M468 567 C468 559 474 553 481 553 C488 553 494 559 494 567 C494 574 488 580 481 580 C474 580 468 574 468 567 L468 567 Z M515 620 C515 615 518 612 523 612 C528 612 531 615 531 620 C531 625 528 628 523 628 C518 628 515 625 515 620 L515 620 Z M422 -3 C379 -3 362 18 362 130 C362 238 384 265 422 265 C462 265 482 242 482 130 C482 23 464 -3 422 -3 L422 -3 Z M422 -29 C489 -29 554 17 554 130 C554 243 499 290 422 290 C356 290 291 244 291 130 C291 18 345 -29 422 -29 L422 -29 Z " />
<glyph glyph-name="ampersand" unicode="&#x26;" horiz-adv-x="750" d="M735 138 L702 144 C702 80 666 38 612 38 C580 38 551 42 500 102 C557 150 589 207 603 273 C607 293 617 318 665 318 L706 318 L706 365 C706 365 627 362 582 362 C537 362 458 365 458 365 L458 318 L489 318 C529 318 534 289 532 265 C528 218 513 170 477 130 C448 167 414 218 370 290 L339 340 C430 373 494 454 494 553 C494 633 442 700 338 700 C226 700 158 645 158 525 C158 468 173 413 206 344 C125 324 43 262 43 159 C43 45 128 -20 256 -20 C330 -20 386 1 427 32 C475 -2 522 -12 578 -12 C704 -12 728 61 735 138 L735 138 Z M287 39 C207 38 156 91 156 180 C156 233 186 278 227 303 C236 286 247 268 258 249 C309 159 353 99 394 60 C365 47 330 39 287 39 L287 39 Z M265 547 C265 621 287 652 338 652 C389 652 410 621 410 547 C410 466 392 406 322 371 C281 446 265 494 265 547 L265 547 Z " />
<glyph glyph-name="quotesingle" unicode="&#x27;" horiz-adv-x="221" d="M122 449 C120 521 118 572 140 622 C164 675 145 710 110 710 C75 710 58 675 80 622 C100 574 100 521 100 449 C100 439 104 435 110 435 C117 435 122 439 122 449 L122 449 Z " />
<glyph glyph-name="parenleft" unicode="&#x28;" horiz-adv-x="270" d="M130 307 C130 603 156 693 235 807 L211 827 C107 722 30 580 30 307 C30 34 107 -108 211 -213 L235 -194 C156 -79 130 11 130 307 L130 307 Z " />
<glyph glyph-name="parenright" unicode="&#x29;" horiz-adv-x="270" d="M135 307 C135 11 109 -79 30 -194 L54 -213 C158 -108 235 34 235 307 C235 580 158 722 54 827 L30 807 C109 693 135 603 135 307 L135 307 Z " />
<glyph glyph-name="asterisk" unicode="&#x2a;" horiz-adv-x="500" d="M269 605 C278 627 298 643 299 674 C300 707 274 726 249 726 C223 726 198 707 199 674 C200 643 219 627 230 605 C238 589 240 574 241 539 L227 531 C196 549 185 559 175 573 C161 592 157 617 130 634 C102 651 73 638 60 617 C47 594 51 563 80 547 C108 533 131 542 156 540 C173 539 186 533 217 516 L217 499 C185 481 171 477 155 475 C132 472 108 481 80 467 C51 451 48 419 60 398 C73 375 102 363 130 380 C157 397 161 421 175 442 C184 456 195 466 225 484 L241 475 C240 439 236 425 230 409 C221 387 201 371 200 340 C199 307 225 288 250 288 C276 288 301 307 300 340 C299 371 280 387 269 409 C261 425 258 439 258 474 L273 483 C303 464 314 454 325 441 C339 422 343 397 370 380 C398 363 427 376 440 397 C453 420 449 451 420 467 C392 481 369 473 344 474 C326 475 313 480 282 497 L283 515 C314 532 328 536 345 539 C368 542 392 533 420 547 C449 563 452 595 440 617 C427 639 398 651 370 634 C343 617 339 593 325 572 C315 557 304 548 274 530 L258 539 C259 575 262 589 269 605 L269 605 Z " />
<glyph glyph-name="plus" unicode="&#x2b;" horiz-adv-x="600" d="M328 26 C327 55 325 173 317 233 C375 225 485 223 523 222 L523 279 C485 279 375 276 317 268 C325 326 328 435 328 473 L271 473 C272 435 274 326 282 268 C224 276 114 279 77 279 L77 222 C114 223 223 225 282 233 C274 173 272 55 271 26 L328 26 Z " />
<glyph glyph-name="comma" unicode="&#x2c;" horiz-adv-x="248" d="M20 -116 L22 -140 C178 -124 198 -24 198 30 C198 101 167 125 130 125 C92 125 66 99 66 65 C66 28 87 11 117 11 C139 11 155 19 162 32 C174 -40 126 -104 20 -116 L20 -116 Z " />
<glyph glyph-name="hyphen" unicode="&#x2d;" horiz-adv-x="304" d="M24 216 C85 218 218 218 280 216 L280 285 C218 283 85 283 24 285 L24 216 Z " />
<glyph glyph-name="period" unicode="&#x2e;" horiz-adv-x="241" d="M191 55 C191 97 163 125 120 125 C80 125 50 98 50 56 C50 10 80 -13 120 -13 C163 -13 191 12 191 55 L191 55 Z " />
<glyph glyph-name="slash" unicode="&#x2f;" horiz-adv-x="385" d="M94 -180 C158 29 302 481 370 690 C353 688 308 688 291 690 C227 481 83 29 15 -180 C32 -178 77 -178 94 -180 L94 -180 Z " />
<glyph glyph-name="zero" unicode="0" horiz-adv-x="596" d="M163 272 C163 465 211 524 297 524 C385 524 433 470 433 273 C433 78 387 26 298 26 C208 26 163 73 163 272 L163 272 Z M44 272 C44 78 137 -17 298 -17 C446 -17 552 76 552 273 C552 457 457 567 298 567 C148 567 44 458 44 272 L44 272 Z " />
<glyph glyph-name="one" unicode="1" horiz-adv-x="424" d="M99 54 L38 54 L38 0 C38 0 149 3 211 3 C273 3 384 0 384 0 L384 54 L325 54 C279 54 266 73 266 107 L266 461 C266 500 270 577 270 577 L215 577 C206 487 184 447 82 447 L47 447 L47 400 C75 394 122 399 158 415 L158 107 C158 73 145 54 99 54 L99 54 Z " />
<glyph glyph-name="two" unicode="2" horiz-adv-x="524" d="M462 193 L423 189 C436 93 333 120 259 138 C175 158 108 148 75 107 C91 157 135 191 220 211 C374 248 452 300 452 415 C452 507 387 567 251 567 C137 567 52 505 52 403 C52 351 78 320 122 320 C164 320 190 342 190 379 C190 417 163 439 126 439 C110 439 98 436 87 431 C104 496 166 520 225 520 C303 520 341 478 341 408 C341 339 305 294 197 250 C83 204 37 140 37 49 C37 8 57 -17 89 -17 C119 -17 138 -1 138 24 C138 61 107 76 72 66 C80 80 96 86 115 86 C135 85 160 75 184 55 C240 8 271 -18 345 -17 C429 -16 474 35 472 124 C471 145 468 168 462 193 L462 193 Z " />
<glyph glyph-name="three" unicode="3" horiz-adv-x="574" d="M496 392 C496 507 414 567 285 567 C153 567 72 489 72 396 C72 346 99 320 143 320 C183 320 209 342 209 379 C209 418 182 439 141 439 C130 439 122 437 115 435 C139 496 205 519 263 519 C344 519 386 473 386 392 C386 291 351 244 245 242 L212 242 L212 196 L245 196 C363 196 411 147 411 47 C411 -57 363 -114 251 -114 C179 -114 105 -83 83 -15 C93 -20 105 -24 123 -24 C158 -24 192 -6 192 36 C192 77 167 101 122 101 C76 101 42 68 42 11 C42 -82 134 -158 267 -158 C422 -158 532 -92 532 49 C532 141 467 213 358 226 C438 246 496 302 496 392 L496 392 Z " />
<glyph glyph-name="four" unicode="4" horiz-adv-x="566" d="M322 -28 C321 -61 309 -67 263 -67 L212 -67 L212 -120 C212 -120 315 -117 374 -117 C433 -117 527 -120 527 -120 L527 -67 L483 -67 C439 -67 428 -62 426 -28 C425 -12 424 25 424 76 L545 74 L545 123 L424 120 C424 244 424 417 426 578 L384 578 L30 121 L30 77 C98 78 228 79 323 78 C323 32 322 -13 322 -28 L322 -28 Z M323 119 C246 118 144 118 82 119 L321 418 C322 328 323 215 323 119 L323 119 Z " />
<glyph glyph-name="five" unicode="5" horiz-adv-x="561" d="M253 248 C352 248 411 204 411 75 C411 -70 349 -114 250 -114 C168 -114 100 -82 81 -14 C91 -20 104 -24 123 -24 C163 -24 192 -3 192 37 C192 78 168 101 121 101 C75 101 41 68 41 11 C41 -82 118 -158 251 -158 C410 -158 522 -80 522 71 C522 219 445 295 293 295 C224 295 169 272 129 244 C148 310 157 403 160 480 C188 459 234 438 306 438 C429 438 495 496 518 564 L497 581 C457 562 389 546 301 546 C223 546 152 559 121 570 C123 469 113 292 78 210 L101 190 C134 216 185 248 253 248 L253 248 Z " />
<glyph glyph-name="six" unicode="6" horiz-adv-x="574" d="M321 671 C388 671 439 644 453 593 C447 595 440 596 433 596 C394 596 366 576 366 537 C366 500 392 477 432 477 C479 477 504 507 504 556 C504 633 441 710 314 710 C166 710 42 587 42 321 C42 75 151 -15 287 -15 C432 -15 533 82 533 226 C533 350 466 438 321 438 C255 438 190 409 156 360 C158 580 206 671 321 671 L321 671 Z M158 217 C158 348 213 392 299 392 C380 392 424 335 424 217 C424 107 387 31 299 31 C192 31 158 106 158 217 L158 217 Z " />
<glyph glyph-name="seven" unicode="7" horiz-adv-x="534" d="M84 575 C71 573 48 573 35 575 C45 511 48 437 38 372 C51 374 77 374 90 372 C89 434 106 457 138 457 C156 457 171 450 188 442 C241 417 277 407 332 408 C381 408 432 420 468 453 C437 398 385 365 339 326 C216 221 157 98 157 -39 C157 -125 183 -152 230 -152 C269 -152 301 -125 296 -78 C266 208 349 276 441 374 C502 440 519 482 519 521 C519 563 499 580 469 580 C445 580 423 567 423 535 C423 511 443 494 471 494 L480 494 C470 487 458 483 440 483 C411 483 383 492 330 528 C282 561 243 573 202 573 C159 573 118 555 95 524 L84 575 Z " />
<glyph glyph-name="eight" unicode="8" horiz-adv-x="578" d="M503 545 C503 639 440 710 298 710 C159 710 75 626 75 502 C75 427 103 369 164 331 C94 301 42 245 42 162 C42 47 108 -15 289 -15 C434 -15 540 56 540 203 C540 288 503 350 405 388 C458 421 503 471 503 545 L503 545 Z M268 290 C425 255 471 226 471 157 C471 88 402 36 288 36 C160 36 104 88 104 163 C104 236 144 283 197 313 C218 303 241 296 268 290 L268 290 Z M298 662 C406 662 442 609 442 546 C442 484 410 436 366 401 C353 404 339 408 324 411 C191 438 149 476 149 546 C149 604 187 662 298 662 L298 662 Z " />
<glyph glyph-name="nine" unicode="9" horiz-adv-x="570" d="M240 -123 C165 -123 109 -97 88 -40 C96 -43 105 -45 116 -45 C155 -45 182 -24 182 14 C182 52 155 74 116 74 C71 74 42 44 42 -5 C42 -86 114 -158 246 -158 C414 -158 528 -25 528 231 C528 477 419 567 283 567 C143 567 37 473 37 326 C37 202 104 114 249 114 C321 114 382 141 414 193 C412 -34 361 -123 240 -123 L240 -123 Z M412 335 C412 204 357 160 272 160 C193 160 146 217 146 335 C146 445 183 521 271 521 C375 521 412 446 412 335 L412 335 Z " />
<glyph glyph-name="colon" unicode="&#x3a;" horiz-adv-x="283" d="M206 345 C206 383 180 409 141 409 C105 409 77 384 77 346 C77 305 104 283 141 283 C180 283 206 307 206 345 L206 345 Z M206 121 C206 159 180 185 141 185 C105 185 77 160 77 122 C77 81 104 59 141 59 C180 59 206 83 206 121 L206 121 Z " />
<glyph glyph-name="semicolon" unicode="&#x3b;" horiz-adv-x="283" d="M76 125 C76 88 95 71 125 71 C149 71 167 83 175 102 C180 20 118 -33 30 -58 L37 -82 C147 -55 208 18 208 99 C208 148 187 185 140 185 C102 185 76 159 76 125 L76 125 Z M206 345 C206 383 180 409 141 409 C105 409 77 384 77 346 C77 305 104 283 141 283 C180 283 206 307 206 345 L206 345 Z " />
<glyph glyph-name="less" unicode="&#x3c;" horiz-adv-x="600" d="M138 236 C207 189 352 89 417 42 L450 92 C377 130 245 210 178 249 C245 288 377 368 450 406 L417 456 C352 409 207 309 138 262 L138 236 Z " />
<glyph glyph-name="equal" unicode="&#x3d;" horiz-adv-x="600" d="M80 142 C191 144 410 144 520 142 C519 159 519 184 520 200 C410 198 191 198 80 200 C81 184 81 158 80 142 L80 142 Z M80 302 C191 304 410 304 520 302 C519 319 519 344 520 360 C410 358 191 358 80 360 C81 344 81 318 80 302 L80 302 Z " />
<glyph glyph-name="greater" unicode="&#x3e;" horiz-adv-x="600" d="M448 262 C379 309 234 409 169 456 L136 406 C209 368 341 288 408 249 C341 210 209 130 136 92 L169 42 C234 89 379 189 448 236 L448 262 Z " />
<glyph glyph-name="question" unicode="&#x3f;" horiz-adv-x="500" d="M357 267 C322 237 284 223 244 223 C228 223 210 230 210 251 C210 270 227 278 269 295 C412 354 473 416 473 524 C473 639 401 710 258 710 C104 710 37 625 37 533 C37 474 66 442 114 442 C160 442 189 469 189 507 C189 549 165 574 123 574 C108 574 92 570 79 563 C95 635 157 662 218 662 C314 662 354 599 354 522 C354 408 302 360 239 328 C196 306 170 284 170 249 C170 210 200 186 240 186 C293 186 343 214 370 241 L357 267 Z M330 55 C330 97 302 125 259 125 C219 125 189 98 189 56 C189 10 219 -13 259 -13 C302 -13 330 12 330 55 L330 55 Z " />
<glyph glyph-name="at" unicode="&#x40;" horiz-adv-x="833" d="M643 436 C630 435 591 435 578 436 C570 415 550 390 533 370 C528 416 495 449 433 449 C346 449 256 376 233 212 C216 96 266 47 339 47 C390 47 446 73 479 139 C479 73 526 42 596 42 C710 42 757 118 780 223 C838 492 718 617 480 617 C279 617 96 489 56 262 C13 17 136 -145 394 -145 C487 -145 587 -109 640 -57 L622 -37 C579 -73 492 -107 391 -107 C198 -107 87 6 128 260 C163 475 305 581 482 581 C705 581 794 452 743 224 C727 153 693 87 634 87 C582 87 578 133 590 194 C601 255 627 374 643 436 L643 436 Z M389 101 C351 101 332 134 346 216 C369 347 414 398 457 398 C494 398 515 367 498 282 C473 152 430 101 389 101 L389 101 Z " />
<glyph glyph-name="A" unicode="A" horiz-adv-x="882" d="M574 155 C597 93 580 59 532 59 L488 59 L487 -2 C487 -2 602 0 666 0 C730 0 844 -2 844 -2 L844 59 L799 59 C758 59 738 82 712 141 C686 200 535 578 495 696 C495 696 459 693 439 693 C419 693 382 696 382 696 C340 579 202 203 178 142 C154 81 131 59 75 59 L38 59 L38 -2 C38 -2 137 0 192 0 C247 0 346 -2 346 -2 L347 59 L304 59 C239 59 233 97 250 153 C253 164 261 187 271 215 C347 217 479 217 552 215 L574 155 Z M533 267 C464 266 360 266 289 267 C327 374 381 523 409 594 C438 523 494 374 533 267 L533 267 Z " />
<glyph glyph-name="B" unicode="B" horiz-adv-x="688" d="M650 200 C650 279 593 336 509 357 C584 381 625 441 625 515 C625 631 531 689 363 689 C321 689 259 688 213 688 C191 688 54 690 38 690 L38 631 L102 631 C138 631 152 621 154 582 C157 522 157 174 154 100 C153 65 141 59 95 59 L38 59 L38 0 L372 0 C591 0 650 78 650 200 L650 200 Z M340 330 C465 330 520 287 520 197 C520 99 482 50 366 50 L312 50 C290 50 276 57 275 90 C273 129 273 228 273 330 L340 330 Z M275 600 C276 624 286 640 314 640 L352 640 C456 640 498 590 498 513 C498 410 457 378 338 378 L273 378 C273 473 273 565 275 600 L275 600 Z " />
<glyph glyph-name="C" unicode="C" horiz-adv-x="735" d="M552 669 C531 680 481 710 387 710 C199 710 50 603 50 346 C50 83 182 -20 387 -20 C590 -20 669 79 682 268 C665 266 630 266 613 268 C605 129 532 35 388 35 C276 35 192 96 192 346 C192 559 252 655 396 655 C551 655 584 558 603 447 C623 449 649 449 669 447 C664 527 675 649 684 700 L624 700 C618 648 606 640 552 669 L552 669 Z " />
<glyph glyph-name="D" unicode="D" horiz-adv-x="781" d="M384 689 C384 689 260 688 215 688 C167 688 54 690 38 690 L38 631 L102 631 C138 631 152 621 154 582 C157 522 157 172 154 100 C153 65 141 59 95 59 L38 59 L38 -2 C38 -2 167 0 211 0 L384 0 C579 0 735 90 732 350 C729 583 624 689 384 689 L384 689 Z M275 101 C272 172 270 522 275 594 C277 620 289 639 321 639 L372 639 C544 639 598 563 598 351 C598 114 533 50 371 50 L321 50 C299 50 277 64 275 101 L275 101 Z " />
<glyph glyph-name="E" unicode="E" horiz-adv-x="732" d="M452 491 C452 401 410 375 323 375 L273 375 C273 467 274 554 276 581 C278 609 290 628 323 628 L473 628 C593 628 629 589 629 444 L683 444 C682 516 683 622 689 695 C642 689 525 689 482 689 C342 689 232 688 213 688 C194 688 54 690 38 690 L38 631 L101 631 C137 631 150 620 153 581 C157 522 157 174 153 119 C150 84 140 59 94 59 L38 59 L38 -2 C38 -2 161 0 208 0 L495 0 C538 0 636 0 683 -4 C683 82 686 190 693 264 L632 264 C632 122 596 59 471 59 L328 59 C300 59 278 73 276 111 C274 140 273 232 273 327 L320 327 C417 327 452 290 454 204 L454 192 L507 192 C504 243 504 278 504 352 C504 425 506 448 507 506 L452 506 L452 491 Z " />
<glyph glyph-name="F" unicode="F" horiz-adv-x="699" d="M443 504 L443 482 C443 398 397 376 313 376 L274 376 C274 466 274 553 276 581 C277 609 290 628 323 628 L436 628 C552 628 600 590 600 443 L655 443 C654 515 655 622 661 695 C614 689 496 689 453 689 C313 689 232 688 213 688 C194 688 54 690 38 690 L38 631 L102 631 C138 631 152 620 154 581 C157 522 157 194 154 120 C153 85 141 59 95 59 L38 59 L38 -2 C38 -2 156 0 222 0 C288 0 406 -2 406 -2 L406 59 L335 59 C289 59 277 85 276 120 C274 152 274 235 274 322 L324 322 C409 319 445 286 445 210 L445 190 L497 190 C494 241 494 306 494 350 C494 393 495 448 497 504 L443 504 Z " />
<glyph glyph-name="G" unicode="G" horiz-adv-x="802" d="M388 710 C200 710 50 603 50 346 C50 83 184 -20 386 -20 C489 -20 573 35 609 105 C620 66 632 18 637 -7 C653 -5 688 -5 704 -7 C698 66 698 195 698 248 C698 286 709 301 738 301 L772 301 L772 358 C772 358 673 355 618 355 C563 355 464 358 464 358 L464 301 L507 301 C563 301 571 273 571 208 C571 88 491 35 388 35 C280 35 192 96 192 346 C192 559 252 655 396 655 C551 655 584 558 603 447 C623 449 649 449 669 447 C664 527 675 649 684 700 L624 700 C618 648 606 640 552 669 C487 703 442 710 388 710 L388 710 Z " />
<glyph glyph-name="H" unicode="H" horiz-adv-x="862" d="M38 -2 C38 -2 150 0 212 0 C274 0 385 -2 385 -2 L385 59 L328 59 C282 59 271 65 270 99 C268 133 268 225 268 320 C355 322 500 322 595 321 C595 225 594 133 593 99 C592 65 580 59 534 59 L477 59 L477 -2 C477 -2 589 0 651 0 C713 0 824 -2 824 -2 L824 59 L767 59 C721 59 709 65 708 99 C705 174 705 522 708 581 C710 620 724 631 760 631 L824 631 L824 690 C808 690 713 687 651 687 C589 687 477 690 477 690 L477 631 L540 631 C576 631 590 620 593 581 C595 554 595 466 595 373 C500 372 355 372 268 373 C268 466 268 554 270 581 C272 620 286 631 322 631 L385 631 L385 690 C369 690 274 687 212 687 C150 687 39 690 39 690 L39 631 L102 631 C138 631 152 620 154 581 C157 522 157 174 154 99 C153 64 141 59 95 59 L38 59 L38 -2 Z " />
<glyph glyph-name="I" unicode="I" horiz-adv-x="428" d="M41 -2 C41 -2 153 0 215 0 C277 0 388 -2 388 -2 L388 59 L334 59 C288 59 276 65 275 99 C272 174 271 522 275 581 C278 620 291 631 327 631 L388 631 L388 690 C372 690 277 687 215 687 C153 687 41 690 41 690 L41 631 L102 631 C138 631 152 620 154 581 C157 522 157 174 154 99 C153 65 141 59 96 59 L41 59 L41 -2 Z " />
<glyph glyph-name="J" unicode="J" horiz-adv-x="586" d="M101 93 C131 93 175 108 175 161 C175 201 145 226 102 226 C48 226 19 186 19 139 C19 61 78 -20 202 -20 C347 -20 448 51 446 202 C445 289 443 522 446 581 C448 621 462 631 498 631 L548 631 L548 690 C532 690 443 687 384 687 C325 687 220 690 220 690 L220 631 L271 631 C307 631 321 620 323 581 C326 522 326 289 323 201 C319 85 278 32 194 32 C128 32 91 59 72 98 C80 95 90 93 101 93 L101 93 Z " />
<glyph glyph-name="K" unicode="K" horiz-adv-x="843" d="M38 -2 C38 -2 150 0 212 0 C274 0 385 -2 385 -2 L385 59 L324 59 C274 59 272 68 270 111 C269 133 268 195 268 265 L365 351 C418 283 512 146 531 115 C551 81 542 59 496 59 L458 59 L458 0 C458 0 570 3 632 3 C694 3 805 0 805 0 L805 59 L775 59 C716 59 704 84 663 132 C624 177 504 342 449 427 L604 565 C653 609 693 631 758 631 L795 631 L795 690 C779 690 694 687 632 687 C570 687 458 690 458 690 L458 631 L510 631 C553 631 558 592 537 573 L268 329 C268 437 268 549 270 579 C272 618 286 631 322 631 L385 631 L385 690 C369 690 274 687 212 687 C150 687 38 690 38 690 L38 631 L99 631 C138 631 152 618 154 579 C157 522 158 174 154 111 C151 65 141 59 95 59 L38 59 L38 -2 Z " />
<glyph glyph-name="L" unicode="L" horiz-adv-x="662" d="M386 690 C365 690 275 687 213 687 C151 687 39 690 39 690 L39 631 L102 631 C138 631 152 620 154 581 C157 522 157 174 154 100 C153 65 142 59 96 59 L38 59 L38 -2 C64 -1 168 0 208 0 L437 0 C480 0 577 0 624 -4 C622 61 628 201 634 266 L573 266 C563 95 514 59 403 59 L319 59 C288 59 271 68 270 99 C267 174 267 522 270 581 C272 620 286 631 323 631 L386 631 L386 690 Z " />
<glyph glyph-name="M" unicode="M" horiz-adv-x="987" d="M447 48 L480 48 C532 170 648 425 716 565 C718 456 717 168 715 118 C713 83 702 59 656 59 L599 59 L599 -2 C599 -2 711 0 774 0 C837 0 948 -2 948 -2 L948 59 L892 59 C846 59 835 83 833 118 C830 174 830 522 833 575 C835 614 852 631 888 631 L948 631 L948 690 C891 688 767 688 710 690 C665 581 568 365 502 225 C438 359 336 581 290 690 C229 688 101 688 40 690 L40 631 L94 631 C128 631 147 616 149 579 C152 522 152 174 149 124 C146 68 132 59 86 59 L38 59 L38 -2 C38 -2 133 0 186 0 C239 0 334 -2 334 -2 L334 59 L273 59 C227 59 214 71 211 124 C208 169 207 463 210 563 C277 425 394 170 447 48 L447 48 Z " />
<glyph glyph-name="N" unicode="N" horiz-adv-x="833" d="M272 690 C216 688 95 688 39 690 L39 631 L102 631 C138 631 152 620 155 581 C159 522 158 174 155 100 C154 66 141 59 95 59 L38 59 L38 -2 C38 -2 136 0 191 0 C246 0 344 -2 344 -2 L344 59 L286 59 C240 59 227 66 226 100 C223 159 223 391 224 549 C345 377 516 127 601 0 C619 2 660 2 678 0 C675 120 675 522 678 580 C680 620 695 631 731 631 L795 631 L795 690 C795 690 698 687 643 687 C588 687 506 690 490 690 L490 631 L554 631 C590 631 605 620 607 580 C610 526 610 335 607 209 C513 339 347 576 272 690 L272 690 Z " />
<glyph glyph-name="O" unicode="O" horiz-adv-x="770" d="M385 35 C235 35 185 126 185 346 C185 555 249 656 385 656 C527 656 586 569 586 347 C586 140 533 35 385 35 L385 35 Z M385 -20 C579 -20 720 113 720 347 C720 579 607 710 385 710 C191 710 50 581 50 346 C50 115 164 -20 385 -20 L385 -20 Z " />
<glyph glyph-name="P" unicode="P" horiz-adv-x="691" d="M363 240 C519 240 643 310 643 470 C643 631 518 688 363 688 C321 688 275 687 229 687 C210 687 54 690 38 690 L38 631 L102 631 C139 631 152 620 154 582 C157 522 157 174 154 118 C152 74 132 59 86 59 L38 59 L38 -2 C38 -2 148 0 210 0 C272 0 381 -2 381 -2 L381 57 L332 57 C298 57 277 72 275 117 C274 135 273 183 272 243 C294 241 327 240 363 240 L363 240 Z M275 600 C276 622 285 640 314 640 L346 640 C466 640 507 585 507 471 C507 357 465 300 341 300 L272 300 C272 418 272 554 275 600 L275 600 Z " />
<glyph glyph-name="Q" unicode="Q" horiz-adv-x="770" d="M385 -20 C405 -20 425 -18 444 -15 C437 -132 492 -201 590 -201 C684 -201 738 -144 731 -31 L690 -34 C693 -94 673 -118 636 -118 C588 -118 566 -78 547 17 C652 71 720 185 720 347 C720 579 607 710 385 710 C191 710 50 581 50 346 C50 115 164 -20 385 -20 L385 -20 Z M398 219 C329 219 281 178 281 105 C281 82 289 63 302 47 C216 79 185 172 185 346 C185 555 249 656 385 656 C527 656 586 569 586 347 C586 231 569 147 529 96 C505 177 467 219 398 219 L398 219 Z M385 35 C347 35 313 61 313 105 C313 162 350 177 380 177 C430 177 457 141 450 43 C430 38 409 35 385 35 L385 35 Z " />
<glyph glyph-name="R" unicode="R" horiz-adv-x="778" d="M595 191 C586 262 559 306 482 326 C572 337 646 405 646 505 C646 628 551 689 382 689 C340 689 259 688 213 688 C194 688 54 690 38 690 L38 631 L102 631 C138 631 152 620 154 581 C157 522 157 174 154 118 C152 74 131 59 86 59 L38 59 L38 -2 C38 -2 147 0 209 0 C262 0 380 -2 380 -2 L380 57 L332 57 C297 57 278 74 275 117 C273 141 272 223 272 311 L342 311 C409 311 458 290 464 179 C471 54 498 -20 631 -20 C756 -20 772 93 745 211 L699 206 C716 113 711 46 665 46 C631 46 611 66 595 191 L595 191 Z M275 600 C276 625 285 640 314 640 L366 640 C472 640 513 604 513 503 C513 401 472 359 353 359 L272 359 C272 460 273 562 275 600 L275 600 Z " />
<glyph glyph-name="S" unicode="S" horiz-adv-x="657" d="M317 655 C435 655 503 601 533 477 L582 477 C575 540 578 641 595 700 L542 700 C538 672 527 650 475 676 C455 686 399 710 322 710 C152 710 78 609 78 495 C78 380 156 312 310 292 C464 271 537 241 537 157 C537 78 467 35 354 35 C212 35 140 102 111 230 L58 230 C65 155 62 66 48 -7 L101 -7 C106 25 118 59 167 30 C226 -5 280 -20 355 -20 C515 -20 618 65 618 202 C618 330 561 404 364 430 C220 449 159 477 159 548 C159 609 211 655 317 655 L317 655 Z " />
<glyph glyph-name="T" unicode="T" horiz-adv-x="711" d="M493 631 C571 631 596 595 599 537 L603 438 L667 438 C664 499 667 633 672 694 C635 691 607 690 518 690 L194 690 C119 690 67 691 38 694 C43 633 46 499 43 438 L109 438 L113 537 C116 595 141 631 219 631 L298 631 C301 499 301 172 298 119 C296 81 282 59 238 59 L181 59 L181 -2 C181 -2 293 0 356 0 C419 0 530 -2 530 -2 L530 59 L469 59 C424 59 415 81 413 119 C410 172 410 499 412 631 L493 631 Z " />
<glyph glyph-name="U" unicode="U" horiz-adv-x="843" d="M136 282 C136 66 237 -21 431 -21 C617 -21 706 82 706 281 C706 357 704 459 706 571 C707 610 722 631 758 631 L805 631 L805 690 C789 690 714 687 662 687 C610 687 518 690 518 690 L518 631 L564 631 C600 631 621 611 622 572 C624 459 622 358 622 273 C622 102 557 51 440 51 C322 51 259 108 259 273 L259 572 C259 619 278 631 318 631 L364 631 L364 690 C348 690 260 687 201 687 C142 687 38 690 38 690 L38 631 L84 631 C123 631 135 615 136 572 C138 510 136 282 136 282 L136 282 Z " />
<glyph glyph-name="V" unicode="V" horiz-adv-x="763" d="M258 552 C244 607 266 631 306 631 L344 631 L344 690 C329 690 239 687 181 687 C123 687 20 690 20 690 L20 631 L41 631 C97 631 111 611 129 562 C179 427 272 130 312 -6 L409 -6 C454 128 563 419 620 551 C646 611 667 631 720 631 L743 631 L743 690 C727 690 659 687 611 687 C563 687 468 690 468 690 L468 631 L498 631 C554 631 562 605 548 551 C521 445 446 235 396 100 C352 230 286 445 258 552 L258 552 Z " />
<glyph glyph-name="W" unicode="W" horiz-adv-x="1102" d="M794 -6 C829 128 918 418 961 552 C980 611 1000 631 1045 631 L1082 631 L1082 690 C1069 690 1001 687 955 687 C909 687 822 690 822 690 L822 631 L840 631 C894 631 903 605 893 553 C873 451 815 242 777 121 C739 245 680 463 652 568 C641 610 653 631 693 631 L725 631 L725 690 C712 690 635 687 584 687 C533 687 443 690 443 690 L443 631 L463 631 C512 631 520 612 509 564 C485 457 421 242 381 119 C344 242 283 458 257 563 C244 612 258 631 302 631 L340 631 L340 690 C327 690 238 687 180 687 C122 687 20 690 20 690 L20 631 L59 631 C105 631 119 611 133 563 C173 425 259 131 294 -6 L395 -6 C427 112 501 357 548 498 C591 357 662 112 692 -6 L794 -6 Z " />
<glyph glyph-name="X" unicode="X" horiz-adv-x="816" d="M482 136 C516 86 492 59 454 59 L423 59 L423 -2 C423 -2 529 0 595 0 C661 0 777 -2 777 -2 L777 59 L742 59 C692 59 660 80 625 130 C588 184 527 267 470 351 C507 407 571 499 609 551 C652 609 668 631 743 631 L768 631 L768 690 C768 690 666 688 625 688 C574 688 483 690 483 690 L483 631 L511 631 C556 631 566 598 546 553 C528 512 479 445 441 394 C399 456 360 515 335 555 C307 599 333 631 377 631 L402 631 L402 690 C402 690 301 688 238 688 C178 688 49 690 49 690 L49 631 L75 631 C133 631 161 605 192 560 C231 506 291 418 349 333 C317 280 261 201 231 157 C188 95 138 59 59 59 L38 59 L38 -2 C38 -2 135 0 190 0 C245 0 348 -2 348 -2 L348 59 L313 59 C272 59 254 93 286 142 L380 287 L482 136 Z " />
<glyph glyph-name="Y" unicode="Y" horiz-adv-x="805" d="M626 561 C657 614 680 631 759 631 L785 631 L785 690 C785 690 688 687 633 687 C578 687 480 690 480 690 L480 631 L516 631 C581 631 577 602 560 564 C529 497 467 375 427 302 C385 371 311 505 282 564 C264 603 274 631 332 631 L382 631 L382 690 C382 690 266 687 201 687 C136 687 20 690 20 690 L20 631 L36 631 C97 631 125 612 152 567 C197 489 282 333 331 236 L331 110 C331 71 326 58 271 58 L204 58 L204 -2 C204 -2 323 0 390 0 C457 0 575 -2 575 -2 L575 58 L507 58 C453 58 448 69 448 110 L448 237 C497 332 581 485 626 561 L626 561 Z " />
<glyph glyph-name="Z" unicode="Z" horiz-adv-x="663" d="M38 0 L431 0 C506 0 574 0 623 -2 C619 57 621 193 625 252 L561 252 C561 97 532 59 409 59 L184 59 C301 215 510 495 619 631 L619 690 L279 690 C197 690 120 690 67 692 C70 639 69 491 64 438 L129 438 C129 613 160 631 311 631 L472 631 C358 478 147 193 38 58 L38 0 Z " />
<glyph glyph-name="bracketleft" unicode="&#x5b;" horiz-adv-x="292" d="M70 147 C70 55 57 -125 50 -187 C96 -185 196 -185 242 -187 L242 -138 L212 -138 C166 -138 155 -126 153 -89 C151 -52 151 665 153 702 C155 739 169 751 205 751 L242 751 L242 800 C196 798 96 798 50 800 C57 738 70 604 70 512 L70 147 Z " />
<glyph glyph-name="backslash" unicode="&#x5c;" horiz-adv-x="385" d="M291 -180 C308 -178 353 -178 370 -180 C302 29 158 481 94 690 C77 688 32 688 15 690 C83 481 227 29 291 -180 L291 -180 Z " />
<glyph glyph-name="bracketright" unicode="&#x5d;" horiz-adv-x="292" d="M222 502 C222 604 235 738 242 800 L50 800 L50 751 L87 751 C123 751 139 739 139 702 L139 -89 C139 -126 126 -138 80 -138 L50 -138 L50 -187 L242 -187 C235 -125 222 8 222 110 L222 502 Z " />
<glyph glyph-name="asciicircum" unicode="&#x5e;" horiz-adv-x="600" d="M282 710 C244 657 126 492 84 431 L125 400 C166 444 258 609 291 682 C322 609 422 438 456 400 L498 431 C466 478 338 657 300 710 L282 710 Z " />
<glyph glyph-name="underscore" unicode="&#x5f;" horiz-adv-x="500" d="M0 -197 C106 -195 394 -195 500 -197 C499 -176 499 -142 500 -121 C394 -123 106 -123 0 -121 C1 -142 1 -177 0 -197 L0 -197 Z " />
<glyph glyph-name="grave" unicode="&#x60;" horiz-adv-x="532" d="M363 526 C323 573 275 631 240 658 C198 688 158 640 199 609 C233 582 301 543 355 516 L363 526 Z " />
<glyph glyph-name="a" unicode="a" horiz-adv-x="527" d="M413 288 C413 396 376 473 233 473 C141 473 46 437 46 365 C46 320 73 298 114 298 C156 298 181 321 181 359 C181 390 163 411 131 417 C148 425 170 430 201 431 C290 432 308 389 308 297 L308 266 C174 257 30 224 30 107 C30 32 72 -13 166 -13 C238 -13 283 27 309 77 C314 25 342 -14 411 -14 C491 -14 509 46 506 157 L467 154 C470 79 459 41 437 41 C424 41 413 48 413 92 L413 288 Z M211 43 C173 43 149 66 149 112 C149 191 212 229 308 240 L308 185 C308 87 271 43 211 43 L211 43 Z " />
<glyph glyph-name="b" unicode="b" horiz-adv-x="584" d="M353 -17 C469 -17 534 62 534 228 C534 398 472 473 363 473 C287 473 235 437 208 366 L208 432 C208 536 208 594 210 692 C171 689 66 689 21 689 L21 639 L58 639 C87 639 101 625 102 593 C104 522 104 174 102 123 C101 86 100 41 93 -10 L142 -10 C147 28 167 78 190 114 C215 17 275 -17 353 -17 L353 -17 Z M208 228 C208 345 249 414 320 414 C409 414 417 324 417 228 C417 76 382 42 318 42 C226 42 208 128 208 228 L208 228 Z " />
<glyph glyph-name="c" unicode="c" horiz-adv-x="487" d="M402 133 C386 76 358 37 272 37 C191 37 157 79 157 227 C157 377 188 431 271 431 C300 431 324 425 343 415 C314 406 304 382 304 358 C304 322 329 298 371 298 C414 298 440 321 440 363 C440 429 365 473 269 473 C129 473 40 377 40 226 C40 75 114 -17 258 -17 C377 -17 431 45 454 121 L402 133 Z " />
<glyph glyph-name="d" unicode="d" horiz-adv-x="584" d="M231 473 C120 473 50 398 50 228 C50 58 107 -17 226 -17 C297 -17 349 18 376 90 L376 -3 L563 0 L563 50 L526 50 C498 50 483 65 482 97 C480 174 480 568 482 693 C443 690 329 690 284 690 L284 640 L332 640 C360 640 376 625 376 593 L376 375 C351 441 304 473 231 473 L231 473 Z M376 228 C376 114 337 42 264 42 C175 42 167 132 167 228 C167 380 200 414 269 414 C354 414 376 332 376 228 L376 228 Z " />
<glyph glyph-name="e" unicode="e" horiz-adv-x="509" d="M411 130 C396 74 364 34 282 34 C199 34 160 81 157 211 L466 211 C476 362 413 473 264 473 C137 473 40 386 40 226 C40 71 121 -20 263 -20 C370 -20 436 33 460 118 L411 130 Z M259 426 C318 426 344 372 344 270 C344 249 339 245 324 245 L157 245 C160 377 196 426 259 426 L259 426 Z " />
<glyph glyph-name="f" unicode="f" horiz-adv-x="346" d="M31 459 L31 409 L103 411 C104 312 104 157 102 99 C101 71 88 50 56 50 L21 50 L21 -3 C31 -3 107 0 155 0 C203 0 272 -3 289 -3 L289 50 L252 50 C216 50 209 71 208 99 C206 158 207 312 207 411 L289 409 L289 459 L208 456 L208 523 C209 629 240 658 295 658 C322 658 341 647 353 632 C311 634 288 612 288 578 C288 544 312 523 348 523 C387 523 411 547 411 587 C411 644 361 695 277 695 C167 695 97 638 102 479 L102 456 L31 459 Z " />
<glyph glyph-name="g" unicode="g" horiz-adv-x="510" d="M214 473 C119 473 26 419 26 305 C26 220 69 166 134 143 C88 133 48 108 48 62 C48 28 64 2 111 -13 C56 -26 10 -56 10 -100 C10 -164 79 -207 236 -207 C404 -207 479 -127 479 -55 C479 24 434 67 263 71 C132 74 125 91 125 107 C125 124 149 132 198 131 L214 131 C317 131 405 190 405 305 C405 364 388 407 354 434 C362 466 380 492 413 494 C402 484 396 469 396 452 C396 421 417 402 451 402 C485 402 505 425 505 463 C505 510 475 539 425 539 C371 539 340 497 329 450 C299 465 261 473 214 473 L214 473 Z M235 -30 C383 -33 418 -58 418 -91 C418 -132 366 -158 235 -158 C120 -158 83 -124 83 -88 C83 -46 135 -31 178 -26 C195 -28 214 -29 235 -30 L235 -30 Z M216 430 C273 430 295 396 295 303 C295 212 277 174 216 174 C157 174 136 210 136 303 C136 392 159 430 216 430 L216 430 Z " />
<glyph glyph-name="h" unicode="h" horiz-adv-x="620" d="M518 285 C520 395 479 473 362 473 C286 473 234 439 208 364 L208 524 C208 585 208 631 210 693 C169 691 70 690 21 690 L21 640 L40 640 C94 640 100 625 102 583 C104 547 104 141 102 108 C99 57 90 50 45 49 L21 49 L21 -3 C31 -3 108 0 156 0 C204 0 273 -3 290 -3 L290 49 L268 49 C225 49 208 57 208 109 L208 187 C208 324 236 414 320 414 C387 414 409 360 412 271 C414 208 414 169 412 118 C410 67 394 49 352 49 L332 49 L332 -3 C341 -3 416 0 463 0 C510 0 578 -3 594 -3 L594 49 L579 49 C531 49 520 67 518 119 C516 171 517 207 518 285 L518 285 Z " />
<glyph glyph-name="i" unicode="i" horiz-adv-x="310" d="M208 462 C169 459 66 459 21 459 L21 409 L40 409 C94 409 100 393 102 352 C104 311 104 159 102 108 C100 57 90 50 45 49 L21 49 L21 -3 C31 -3 108 0 156 0 C204 0 273 -3 290 -3 L290 49 L268 49 C225 49 210 57 208 109 C206 161 208 462 208 462 L208 462 Z M216 628 C216 667 185 698 146 698 C108 698 77 667 77 628 C77 589 108 558 146 558 C185 558 216 589 216 628 L216 628 Z " />
<glyph glyph-name="j" unicode="j" horiz-adv-x="290" d="M62 -96 C62 -61 37 -38 -1 -38 C-42 -38 -67 -63 -67 -105 C-67 -165 -15 -201 61 -201 C161 -201 222 -145 222 0 L222 308 C222 342 223 433 226 462 C187 459 79 459 34 459 L34 409 L62 409 C99 409 114 389 116 357 C118 323 116 19 116 -36 C116 -141 88 -164 41 -164 C19 -164 4 -159 -9 -151 C45 -156 62 -119 62 -96 L62 -96 Z M230 628 C230 667 199 698 160 698 C122 698 91 667 91 628 C91 589 122 558 160 558 C199 558 230 589 230 628 L230 628 Z " />
<glyph glyph-name="k" unicode="k" horiz-adv-x="610" d="M208 692 C169 691 66 690 21 690 L21 640 L40 640 C94 640 100 615 102 573 C104 531 104 166 102 118 C100 67 90 50 45 49 L21 49 L21 -3 C31 -3 106 0 154 0 C202 0 269 -3 286 -3 L286 49 L268 49 C225 49 210 67 208 119 C207 129 207 159 207 195 L259 234 C289 196 317 154 340 119 C366 78 364 50 331 50 L313 50 L313 -3 C323 -3 400 0 449 0 C498 0 569 -3 585 -3 L585 50 L573 50 C523 50 495 75 461 119 C430 157 376 236 340 294 L382 326 C468 392 493 409 558 409 L574 409 L574 459 C565 459 491 456 444 456 C397 456 314 459 314 459 L314 409 L334 409 C373 409 391 379 354 349 L206 227 C206 374 206 621 208 692 L208 692 Z " />
<glyph glyph-name="l" unicode="l" horiz-adv-x="310" d="M208 693 C169 690 66 690 21 690 L21 640 L40 640 C94 640 100 615 102 573 C104 531 104 169 102 118 C100 67 90 50 45 49 L21 49 L21 -3 C31 -3 108 0 156 0 C204 0 273 -3 290 -3 L290 49 L268 49 C225 49 210 67 208 119 C206 171 208 693 208 693 L208 693 Z " />
<glyph glyph-name="m" unicode="m" horiz-adv-x="930" d="M828 285 C830 395 789 473 672 473 C590 473 537 434 513 348 C499 423 455 473 362 473 C287 473 235 440 208 368 L208 462 C169 459 66 459 21 459 L21 409 L40 409 C94 409 100 384 102 342 C104 300 106 169 102 118 C98 67 90 50 45 49 L21 49 L21 -3 C31 -3 108 0 156 0 C204 0 273 -3 290 -3 L290 49 L268 49 C225 49 209 67 208 119 L207 187 C205 336 243 414 320 414 C387 414 409 360 412 271 C414 213 414 169 412 118 C410 67 394 49 352 49 L332 49 L332 -3 C341 -3 418 0 466 0 C514 0 583 -3 599 -3 L599 49 L579 49 C531 49 518 67 518 119 L518 187 C518 322 546 414 630 414 C697 414 719 360 722 271 C724 216 724 169 722 118 C720 67 704 49 662 49 L642 49 L642 -3 C651 -3 728 0 776 0 C824 0 893 -3 909 -3 L909 49 L889 49 C841 49 830 67 828 119 C826 171 828 285 828 285 L828 285 Z " />
<glyph glyph-name="n" unicode="n" horiz-adv-x="620" d="M518 285 C520 395 479 473 362 473 C286 473 234 439 208 364 L208 462 C169 459 66 459 21 459 L21 409 L40 409 C94 409 100 384 102 342 C104 301 104 175 102 118 C100 67 90 50 45 49 L21 49 L21 -3 C31 -3 108 0 156 0 C204 0 273 -3 290 -3 L290 49 L268 49 C225 49 208 67 208 119 L208 187 C208 332 236 414 320 414 C387 414 409 360 412 271 C414 208 414 169 412 118 C410 67 394 49 352 49 L332 49 L332 -3 C341 -3 416 0 463 0 C510 0 578 -3 594 -3 L594 49 L579 49 C531 49 520 67 518 119 C516 171 517 207 518 285 L518 285 Z " />
<glyph glyph-name="o" unicode="o" horiz-adv-x="534" d="M40 223 C40 66 131 -20 267 -20 C400 -20 494 66 494 223 C494 394 400 473 267 473 C134 473 40 394 40 223 L40 223 Z M162 223 C162 391 204 430 266 430 C328 430 374 391 374 223 C374 52 328 23 267 23 C204 23 162 52 162 223 L162 223 Z " />
<glyph glyph-name="p" unicode="p" horiz-adv-x="584" d="M353 -17 C467 -17 534 62 534 228 C534 388 482 473 363 473 C285 473 234 437 208 364 L208 462 C169 459 66 459 21 459 L21 409 L38 409 C87 409 100 392 102 341 C104 290 104 -14 102 -58 C100 -102 84 -127 44 -127 L21 -127 L21 -180 C31 -180 109 -177 158 -177 C207 -177 278 -180 295 -180 L295 -127 L274 -127 C226 -127 208 -101 208 -58 L208 79 C233 16 280 -17 353 -17 L353 -17 Z M208 228 C208 345 249 414 320 414 C409 414 417 324 417 228 C417 78 383 42 318 42 C226 42 208 128 208 228 L208 228 Z " />
<glyph glyph-name="q" unicode="q" horiz-adv-x="579" d="M228 473 C109 473 50 398 50 228 C50 58 99 -17 218 -17 C293 -17 346 18 373 90 L373 -78 C373 -106 354 -127 323 -127 L282 -127 L282 -180 C292 -180 373 -177 424 -177 C475 -177 549 -180 566 -180 L566 -127 L526 -127 C490 -127 480 -106 479 -78 C477 6 474 164 478 314 C479 351 481 445 487 490 L449 490 C439 432 411 387 385 356 C361 438 308 473 228 473 L228 473 Z M373 228 C373 114 334 42 261 42 C172 42 167 132 167 228 C167 380 194 413 263 413 C355 413 373 318 373 228 L373 228 Z " />
<glyph glyph-name="r" unicode="r" horiz-adv-x="436" d="M310 432 C334 432 350 426 361 418 C326 420 291 401 291 358 C291 321 315 298 355 298 C400 298 427 327 427 376 C427 437 389 473 326 473 C263 473 219 440 199 361 L208 462 C169 459 66 459 21 459 L21 409 L40 409 C94 409 100 388 102 346 C104 303 104 162 102 112 C100 61 90 50 45 49 L21 49 L21 -3 C31 -3 111 0 161 0 C211 0 283 -3 300 -3 L300 49 L268 49 C225 49 208 61 208 113 L208 228 C208 365 244 432 310 432 L310 432 Z " />
<glyph glyph-name="s" unicode="s" horiz-adv-x="446" d="M210 420 C279 420 330 395 351 313 C360 314 378 314 387 313 C385 372 385 404 390 467 C381 466 363 466 354 467 C349 427 343 427 325 440 C299 458 273 471 221 473 C111 477 37 412 37 323 C37 259 73 186 213 171 C313 160 337 134 337 101 C337 62 303 34 240 34 C153 34 101 92 75 176 C66 175 46 175 37 176 C42 114 40 53 33 -7 C42 -6 63 -6 72 -7 C76 25 81 47 109 26 C150 -5 192 -20 238 -20 C355 -20 411 38 411 135 C411 212 368 270 243 285 C136 298 113 318 113 358 C113 389 142 420 210 420 L210 420 Z " />
<glyph glyph-name="t" unicode="t" horiz-adv-x="323" d="M271 141 C276 61 261 36 228 37 C197 38 187 62 186 146 C185 222 184 331 185 410 L291 409 L291 459 L186 453 C188 510 191 597 197 642 L152 642 C137 509 100 457 18 449 L18 409 L75 410 C76 347 76 215 75 140 C73 38 108 -14 197 -14 C297 -14 314 62 307 143 L271 141 Z " />
<glyph glyph-name="u" unicode="u" horiz-adv-x="620" d="M521 462 C499 459 467 459 431 459 L319 459 L319 409 L334 409 C392 409 412 394 412 349 L412 245 C412 102 375 39 300 39 C272 39 208 51 208 177 L208 325 C208 369 208 409 211 462 C191 460 151 459 113 459 L21 459 L21 409 L41 409 C89 409 100 390 102 349 C104 304 103 230 102 173 C99 23 179 -20 257 -20 C342 -20 388 24 412 91 L412 -3 C451 0 554 0 599 0 L599 50 L577 50 C536 49 519 71 518 107 C517 159 516 279 517 325 C518 359 518 416 521 462 L521 462 Z " />
<glyph glyph-name="v" unicode="v" horiz-adv-x="551" d="M546 409 L546 459 C546 459 470 457 434 457 C399 457 331 459 331 459 L331 409 L357 409 C400 409 401 380 392 350 C374 295 332 184 303 114 C275 184 235 294 218 350 C206 391 224 409 258 409 L281 409 L281 459 C281 459 185 457 137 457 C91 457 5 459 5 459 L5 409 L20 409 C78 409 86 381 99 353 C138 264 213 72 244 -17 L291 -17 C321 71 396 262 434 350 C457 402 483 409 522 409 L546 409 Z " />
<glyph glyph-name="w" unicode="w" horiz-adv-x="829" d="M514 -17 L572 -17 C597 68 661 253 694 338 C714 391 740 409 786 409 L809 409 L809 459 C809 459 737 456 703 456 C670 456 598 459 598 459 L598 409 L617 409 C657 409 664 381 652 339 C637 287 603 181 578 115 C552 184 517 295 501 350 C491 386 503 409 539 409 L551 409 L551 459 C551 459 480 456 435 456 C390 456 323 459 323 459 L323 409 L340 409 C388 409 388 372 380 340 C367 286 329 177 304 111 C278 180 241 293 225 350 C213 394 237 409 263 409 L275 409 L275 459 C275 459 193 456 147 456 C102 456 20 459 20 459 L20 409 L32 409 C82 409 95 389 109 353 C144 264 211 72 238 -17 L296 -17 C318 58 373 219 404 300 C436 219 492 58 514 -17 L514 -17 Z " />
<glyph glyph-name="x" unicode="x" horiz-adv-x="592" d="M335 109 C357 83 352 50 313 50 L292 50 L292 -2 C292 -2 386 0 434 0 C480 0 572 -2 572 -2 L572 50 L556 50 C527 50 495 64 473 88 C460 102 392 182 335 251 C367 283 416 332 444 358 C485 396 503 409 535 409 L563 409 L563 459 C563 459 480 457 444 457 C409 457 344 459 344 459 L344 409 L367 409 C410 409 412 382 392 358 L317 273 C287 310 262 340 254 352 C229 386 234 409 278 409 L299 409 L299 459 C299 459 205 457 157 457 C111 457 30 459 30 459 L30 409 L40 409 C79 409 95 394 124 362 C141 343 202 270 254 207 C219 170 158 107 137 89 C107 63 78 50 39 50 L20 50 L20 -2 C20 -2 101 0 137 0 C172 0 248 -2 248 -2 L248 50 L228 50 C193 50 182 74 206 104 C214 115 249 155 273 184 L335 109 Z " />
<glyph glyph-name="y" unicode="y" horiz-adv-x="571" d="M389 355 C383 335 339 213 308 126 C278 197 238 301 221 355 C210 390 220 409 258 409 L279 409 L279 459 C279 459 212 456 144 456 C77 456 10 459 10 459 L10 409 L25 409 C62 409 84 395 102 354 C136 276 203 109 230 32 L275 32 C228 -121 172 -158 110 -158 C95 -158 83 -156 74 -154 C116 -149 135 -118 135 -89 C135 -49 111 -30 70 -30 C40 -30 2 -50 2 -105 C2 -150 33 -191 106 -191 C212 -191 258 -119 296 -17 C329 71 402 264 441 353 C458 390 477 409 530 409 L551 409 L551 459 C551 459 500 456 447 456 C389 456 329 459 329 459 L329 409 L351 409 C386 409 398 386 389 355 L389 355 Z " />
<glyph glyph-name="z" unicode="z" horiz-adv-x="474" d="M292 0 C378 0 445 -3 445 -3 C437 64 440 128 449 188 L406 188 C400 84 352 44 292 44 L160 44 C232 146 368 334 438 424 L436 459 L208 459 C123 459 49 464 49 464 C56 400 53 336 46 283 L89 283 C96 386 133 414 208 414 L299 414 C229 311 95 126 27 37 L27 0 L292 0 Z " />
<glyph glyph-name="braceleft" unicode="&#x7b;" horiz-adv-x="286" d="M35 290 L45 290 C137 290 97 165 73 84 C16 -113 108 -178 249 -187 L251 -149 C148 -135 143 -73 162 89 C173 182 187 297 77 307 C188 316 174 434 160 533 C138 718 163 745 251 762 L249 800 C78 790 25 692 73 529 C95 457 136 324 45 324 L35 324 L35 290 Z " />
<glyph glyph-name="bar" unicode="&#x7c;" horiz-adv-x="300" d="M141 -119 C141 -124 145 -128 150 -128 C155 -128 159 -124 159 -119 C159 -114 155 -110 150 -110 C145 -110 141 -114 141 -119 L141 -119 Z M136 -43 C136 -51 142 -57 150 -57 C158 -57 164 -51 164 -43 C164 -35 158 -29 150 -29 C142 -29 136 -35 136 -43 L136 -43 Z M131 33 C131 22 140 14 150 14 C160 14 169 22 169 33 C169 43 160 52 150 52 C140 52 131 43 131 33 L131 33 Z M127 109 C127 96 137 86 150 86 C163 86 173 96 173 109 C173 121 163 131 150 131 C137 131 127 121 127 109 L127 109 Z M124 185 C124 170 136 159 150 159 C164 159 176 170 176 185 C176 199 164 210 150 210 C136 210 124 199 124 185 L124 185 Z M122 261 C122 245 135 233 150 233 C165 233 178 245 178 261 C178 276 165 288 150 288 C135 288 122 276 122 261 L122 261 Z M122 337 C122 321 134 308 150 308 C166 308 178 321 178 337 C178 352 166 365 150 365 C134 365 122 352 122 337 L122 337 Z M122 412 C122 397 135 385 150 385 C165 385 178 397 178 412 C178 428 165 440 150 440 C135 440 122 428 122 412 L122 412 Z M124 488 C124 474 136 463 150 463 C164 463 176 474 176 488 C176 503 164 514 150 514 C136 514 124 503 124 488 L124 488 Z M127 564 C127 552 137 542 150 542 C163 542 173 552 173 564 C173 577 163 587 150 587 C137 587 127 577 127 564 L127 564 Z M131 640 C131 630 140 621 150 621 C160 621 169 630 169 640 C169 651 160 659 150 659 C140 659 131 651 131 640 L131 640 Z M136 716 C136 708 142 702 150 702 C158 702 164 708 164 716 C164 724 158 730 150 730 C142 730 136 724 136 716 L136 716 Z M141 792 C141 787 145 783 150 783 C155 783 159 787 159 792 C159 797 155 801 150 801 C145 801 141 797 141 792 L141 792 Z " />
<glyph glyph-name="braceright" unicode="&#x7d;" horiz-adv-x="273" d="M247 324 L237 324 C146 324 187 457 209 529 C257 692 204 790 33 800 L31 762 C119 745 144 718 122 533 C108 434 94 316 205 307 C95 297 109 182 120 89 C139 -73 134 -135 31 -149 L33 -187 C174 -178 266 -113 209 84 C185 165 145 290 237 290 L247 290 L247 324 Z " />
<glyph glyph-name="asciitilde" unicode="&#x7e;" horiz-adv-x="532" d="M424 695 C439 615 422 582 387 582 C355 582 339 606 310 647 C278 693 251 710 208 710 C129 710 68 659 104 542 L126 546 C111 626 127 659 162 659 C194 659 206 640 236 595 C260 559 285 531 342 531 C416 531 482 582 446 699 L424 695 Z " />
<glyph glyph-name="exclamdown" unicode="&#xa1;" horiz-adv-x="239" d="M47 405 C47 363 75 335 118 335 C158 335 188 362 188 404 C188 450 158 473 118 473 C75 473 47 448 47 405 L47 405 Z M107 257 C107 104 92 35 56 -92 C25 -201 66 -250 120 -250 C175 -250 212 -201 184 -92 C152 34 133 107 133 257 C133 265 130 269 120 269 C111 269 107 264 107 257 L107 257 Z " />
<glyph glyph-name="cent" unicode="&#xa2;" horiz-adv-x="538" d="M257 367 L289 528 C310 526 328 522 344 515 C317 508 306 487 306 465 C306 433 326 409 366 409 C402 409 428 430 428 470 C428 520 374 563 298 574 L324 701 L286 708 L266 577 C116 577 30 481 30 330 C30 205 81 120 180 95 L154 -37 L192 -44 L213 89 C224 87 236 87 248 87 C367 87 439 154 439 215 C439 257 413 276 379 276 C338 276 318 254 318 222 C318 198 330 176 359 169 C334 153 299 141 262 141 C247 141 234 142 222 145 L257 367 Z M146 331 C146 479 177 529 259 530 L235 371 L193 159 C161 184 146 235 146 331 L146 331 Z " />
<glyph glyph-name="sterling" unicode="&#xa3;" horiz-adv-x="571" d="M89 248 C113 249 146 251 186 251 C205 217 221 182 225 144 C197 153 164 159 124 159 C70 159 20 126 20 68 C20 21 53 -15 121 -15 C182 -15 228 2 253 38 C289 9 334 -17 409 -17 C530 -17 565 69 560 138 L529 143 C519 94 473 77 415 77 C365 77 323 99 277 123 C277 165 268 208 255 250 C299 250 343 248 366 248 L366 292 C339 291 291 290 243 290 C220 358 195 424 195 490 C194 602 241 658 328 658 C411 658 451 608 453 564 C443 573 430 578 414 578 C376 578 354 558 354 527 C354 494 377 474 412 474 C465 474 490 504 490 568 C490 637 435 705 308 705 C191 705 87 634 87 497 C87 413 125 350 162 290 C135 290 109 290 89 292 L89 248 Z M123 15 C79 15 55 41 55 66 C55 97 78 119 123 119 C162 119 189 97 217 70 C204 36 174 15 123 15 L123 15 Z " />
<glyph glyph-name="yen" unicode="&#xa5;" horiz-adv-x="640" d="M111 349 C112 341 112 300 111 292 L239 296 L248 275 L248 219 L111 223 C112 215 112 175 111 166 L248 171 L249 110 C249 71 244 58 189 58 L152 58 L152 0 C152 0 241 3 308 3 C375 3 463 0 463 0 L463 58 L425 58 C371 58 366 69 366 110 L366 171 L504 166 C503 175 503 215 504 223 L366 218 L366 274 L375 296 L504 292 C503 300 503 341 504 349 L397 346 C431 420 471 502 499 561 C524 614 536 631 600 631 L620 631 L620 690 C620 690 549 687 505 687 C461 687 372 690 372 690 L372 631 L391 631 C443 631 437 602 426 564 C408 502 370 405 339 334 C307 404 261 510 244 564 C232 603 238 631 284 631 L304 631 L304 690 C304 690 211 687 159 687 C107 687 20 690 20 690 L20 631 L33 631 C83 631 99 612 120 567 C148 507 186 422 218 346 L111 349 Z " />
<glyph glyph-name="brokenbar" unicode="&#xa6;" horiz-adv-x="300" d="M141 -119 C141 -124 145 -128 150 -128 C155 -128 159 -124 159 -119 C159 -114 155 -110 150 -110 C145 -110 141 -114 141 -119 L141 -119 Z M136 -43 C136 -51 142 -57 150 -57 C158 -57 164 -51 164 -43 C164 -35 158 -29 150 -29 C142 -29 136 -35 136 -43 L136 -43 Z M131 33 C131 22 140 14 150 14 C160 14 169 22 169 33 C169 43 160 52 150 52 C140 52 131 43 131 33 L131 33 Z M127 109 C127 96 137 86 150 86 C163 86 173 96 173 109 C173 121 163 131 150 131 C137 131 127 121 127 109 L127 109 Z M124 185 C124 170 136 159 150 159 C164 159 176 170 176 185 C176 199 164 210 150 210 C136 210 124 199 124 185 L124 185 Z M122 261 C122 245 135 233 150 233 C165 233 178 245 178 261 C178 276 165 288 150 288 C135 288 122 276 122 261 L122 261 Z M122 412 C122 397 135 385 150 385 C165 385 178 397 178 412 C178 428 165 440 150 440 C135 440 122 428 122 412 L122 412 Z M124 488 C124 474 136 463 150 463 C164 463 176 474 176 488 C176 503 164 514 150 514 C136 514 124 503 124 488 L124 488 Z M127 564 C127 552 137 542 150 542 C163 542 173 552 173 564 C173 577 163 587 150 587 C137 587 127 577 127 564 L127 564 Z M131 640 C131 630 140 621 150 621 C160 621 169 630 169 640 C169 651 160 659 150 659 C140 659 131 651 131 640 L131 640 Z M136 716 C136 708 142 702 150 702 C158 702 164 708 164 716 C164 724 158 730 150 730 C142 730 136 724 136 716 L136 716 Z M141 792 C141 787 145 783 150 783 C155 783 159 787 159 792 C159 797 155 801 150 801 C145 801 141 797 141 792 L141 792 Z " />
<glyph glyph-name="section" unicode="&#xa7;" horiz-adv-x="787" d="M506 652 C406 589 327 512 282 222 C233 -94 177 -173 104 -173 C57 -173 48 -143 49 -117 C92 -135 132 -116 139 -75 C145 -37 116 -20 88 -20 C34 -20 18 -65 13 -92 C3 -145 25 -206 103 -206 C185 -206 296 -155 357 222 C404 516 441 565 514 642 L506 652 Z M282 -150 C382 -87 461 -10 506 280 C555 596 611 675 684 675 C731 675 739 645 738 619 C696 637 655 618 649 577 C643 539 672 522 700 522 C754 522 770 567 775 594 C784 647 763 708 685 708 C603 708 492 657 431 280 C384 -14 347 -63 274 -140 L282 -150 Z " />
<glyph glyph-name="dieresis" unicode="&#xa8;" horiz-adv-x="533" d="M231 582 C231 612 209 636 176 636 C143 636 121 612 121 582 C121 552 143 528 176 528 C209 528 231 552 231 582 L231 582 Z M401 582 C401 612 379 636 346 636 C313 636 291 612 291 582 C291 552 313 528 346 528 C379 528 401 552 401 582 L401 582 Z " />
<glyph glyph-name="copyright" unicode="&#xa9;" horiz-adv-x="834" d="M417 29 C207 29 110 167 110 344 C110 521 207 660 417 660 C627 660 724 521 724 344 C724 167 637 29 417 29 L417 29 Z M417 -16 C658 -16 784 130 784 344 C784 558 647 705 417 705 C199 705 50 558 50 344 C50 130 176 -16 417 -16 L417 -16 Z M421 567 C299 567 209 496 209 344 C209 186 291 124 420 124 C548 124 597 184 605 297 C593 296 567 296 555 297 C549 219 512 168 422 168 C357 168 305 200 305 344 C305 468 333 521 427 521 C487 521 543 485 558 416 C571 418 583 418 598 416 C596 448 601 524 607 557 C601 556 575 556 570 557 C569 520 554 516 539 527 C504 552 466 567 421 567 L421 567 Z " />
<glyph glyph-name="ordfeminine" unicode="&#xaa;" horiz-adv-x="486" d="M346 571 C346 648 320 702 219 702 C154 702 87 676 87 625 C87 595 107 578 135 578 C164 578 183 596 183 621 C183 643 169 658 147 662 C159 667 173 670 195 671 C257 672 270 642 270 578 L270 556 C176 550 75 526 75 445 C75 392 105 361 171 361 C221 361 252 388 270 423 C274 387 295 360 343 360 C400 360 413 403 411 482 L383 480 C386 427 378 401 363 401 C354 401 346 406 346 437 L346 571 Z M57 216 C118 218 351 218 413 216 L413 285 C351 283 118 283 57 285 L57 216 Z M204 402 C178 402 162 418 162 450 C162 505 204 531 270 537 L270 499 C270 432 245 402 204 402 L204 402 Z " />
<glyph glyph-name="guillemotleft" unicode="&#xab;" horiz-adv-x="401" d="M214 426 C173 390 80 312 35 276 L35 227 C80 191 173 112 214 76 L226 85 C203 127 143 213 106 250 C143 287 202 370 226 417 L214 426 Z M364 426 C323 390 230 312 185 276 L185 227 C230 191 323 112 364 76 L376 85 C353 127 293 213 256 250 C293 287 352 370 376 417 L364 426 Z " />
<glyph glyph-name="registered" unicode="&#xae;" horiz-adv-x="834" d="M417 -16 C658 -16 784 130 784 344 C784 558 647 705 417 705 C199 705 50 558 50 344 C50 130 176 -16 417 -16 L417 -16 Z M417 29 C207 29 110 167 110 344 C110 521 207 660 417 660 C627 660 724 521 724 344 C724 167 637 29 417 29 L417 29 Z M562 262 C553 303 538 331 493 343 C548 351 593 389 593 450 C593 523 534 559 425 559 L319 559 C307 559 217 560 207 560 L207 519 L245 519 C267 519 276 511 277 487 C279 459 279 253 277 224 C276 198 263 189 236 189 L207 189 L207 147 C207 147 277 149 316 149 C355 149 424 147 424 147 L424 189 L396 189 C374 189 361 199 360 225 C359 237 358 283 358 332 L397 332 C440 332 469 319 473 253 C477 180 495 139 579 139 C659 139 669 207 655 274 L623 271 C632 223 628 182 606 182 C586 182 577 200 562 262 L562 262 Z M360 499 C361 514 366 523 385 523 L414 523 C478 523 502 501 502 446 C502 388 478 363 406 363 L358 363 C358 423 359 482 360 499 L360 499 Z " />
<glyph glyph-name="macron" unicode="&#xaf;" horiz-adv-x="532" d="M129 565 C190 567 324 567 385 565 C384 586 384 606 385 627 C324 625 190 625 129 627 C130 606 130 585 129 565 L129 565 Z " />
<glyph glyph-name="degree" unicode="&#xb0;" horiz-adv-x="331" d="M165 405 C112 405 75 429 75 531 C75 629 117 659 165 659 C215 659 255 633 255 531 C255 434 217 405 165 405 L165 405 Z M165 372 C237 372 301 418 301 531 C301 644 247 691 165 691 C94 691 30 645 30 531 C30 419 83 372 165 372 L165 372 Z " />
<glyph glyph-name="plusminus" unicode="&#xb1;" horiz-adv-x="600" d="M80 0 C191 2 410 2 520 0 C519 17 519 42 520 58 C471 57 400 56 327 56 C326 104 323 186 317 233 C375 225 485 223 523 222 L523 279 C485 279 375 276 317 268 C325 326 328 435 328 473 L271 473 C272 435 274 326 282 268 C224 276 114 279 77 279 L77 222 C114 223 223 225 282 233 C275 186 273 104 271 56 C199 56 129 57 80 58 C81 42 81 16 80 0 L80 0 Z " />
<glyph glyph-name="acute" unicode="&#xb4;" horiz-adv-x="532" d="M173 516 C227 543 294 582 329 609 C370 640 330 688 288 658 C253 631 204 573 165 526 L173 516 Z " />
<glyph glyph-name="paragraph" unicode="&#xb6;" horiz-adv-x="532" d="M298 0 C293 -139 272 -169 221 -169 C213 -169 204 -167 194 -162 C228 -145 239 -117 239 -94 C239 -59 217 -36 177 -36 C147 -36 114 -54 114 -105 C114 -150 146 -201 243 -201 C347 -201 401 -146 401 0 L400 590 C400 628 416 639 450 639 L482 639 L482 687 L319 687 C159 687 50 632 50 465 C50 322 132 245 299 240 C299 179 299 14 298 0 L298 0 Z " />
<glyph glyph-name="periodcentered" unicode="&#xb7;" horiz-adv-x="261" d="M201 243 C201 285 173 313 130 313 C90 313 60 286 60 244 C60 198 90 175 130 175 C173 175 201 200 201 243 L201 243 Z " />
<glyph glyph-name="cedilla" unicode="&#xb8;" horiz-adv-x="532" d="M213 -115 C259 -97 305 -114 305 -158 C305 -193 284 -214 246 -214 C214 -214 194 -200 178 -177 L157 -192 C169 -223 203 -254 257 -254 C330 -254 375 -219 375 -158 C375 -95 313 -71 258 -81 C286 -57 297 -22 295 1 L272 7 C266 -40 249 -67 201 -97 L213 -115 Z " />
<glyph glyph-name="ordmasculine" unicode="&#xba;" horiz-adv-x="453" d="M67 526 C67 416 131 356 227 356 C321 356 387 416 387 526 C387 646 321 702 227 702 C133 702 67 646 67 526 L67 526 Z M156 526 C156 643 184 669 226 669 C269 669 300 643 300 526 C300 408 269 388 227 388 C184 388 156 408 156 526 L156 526 Z M60 216 C121 218 331 218 393 216 L393 285 C331 283 121 283 60 285 L60 216 Z " />
<glyph glyph-name="guillemotright" unicode="&#xbb;" horiz-adv-x="401" d="M25 417 C49 370 108 287 145 250 C108 213 48 127 25 85 L37 76 C78 112 171 191 216 227 L216 276 C175 312 82 390 37 426 L25 417 Z M175 417 C199 370 258 287 295 250 C258 213 198 127 175 85 L187 76 C228 112 321 191 366 227 L366 276 C325 312 232 390 187 426 L175 417 Z " />
<glyph glyph-name="onequarter" unicode="&#xbc;" horiz-adv-x="378" d="M12 344 C12 332 20 324 32 324 C42 324 51 332 51 344 C51 354 42 363 32 363 C20 363 12 354 12 344 L12 344 Z M77 344 C77 333 84 326 95 326 C104 326 112 333 112 344 C112 353 104 361 95 361 C84 361 77 353 77 344 L77 344 Z M142 344 C142 334 148 328 158 328 C166 328 173 334 173 344 C173 352 166 359 158 359 C148 359 142 352 142 344 L142 344 Z M205 344 C205 334 211 328 221 328 C229 328 236 334 236 344 C236 352 229 359 221 359 C211 359 205 352 205 344 L205 344 Z M266 344 C266 333 273 326 284 326 C293 326 301 333 301 344 C301 353 293 361 284 361 C273 361 266 353 266 344 L266 344 Z M327 344 C327 332 335 324 347 324 C357 324 366 332 366 344 C366 354 357 363 347 363 C335 363 327 354 327 344 L327 344 Z M125 431 L88 431 L88 399 C88 399 152 401 189 401 C225 401 290 399 290 399 L290 431 L253 431 C230 431 224 441 224 456 L224 595 C224 653 226 710 226 710 L190 710 C184 676 167 650 111 650 L94 650 L94 616 L155 618 L155 456 C155 441 148 431 125 431 L125 431 Z M169 10 L144 10 L144 -22 C144 -22 201 -20 232 -20 C263 -20 319 -22 319 -22 L319 10 L295 10 C273 10 266 13 266 28 L266 46 L323 46 L323 70 L266 69 L266 286 L233 286 L55 69 L55 47 L198 47 L198 28 C198 12 191 10 169 10 L169 10 Z M87 69 L198 207 L198 69 L87 69 Z " />
<glyph glyph-name="onehalf" unicode="&#xbd;" horiz-adv-x="378" d="M12 344 C12 332 20 324 32 324 C42 324 51 332 51 344 C51 354 42 363 32 363 C20 363 12 354 12 344 L12 344 Z M77 344 C77 333 84 326 95 326 C104 326 112 333 112 344 C112 353 104 361 95 361 C84 361 77 353 77 344 L77 344 Z M142 344 C142 334 148 328 158 328 C166 328 173 334 173 344 C173 352 166 359 158 359 C148 359 142 352 142 344 L142 344 Z M205 344 C205 334 211 328 221 328 C229 328 236 334 236 344 C236 352 229 359 221 359 C211 359 205 352 205 344 L205 344 Z M266 344 C266 333 273 326 284 326 C293 326 301 333 301 344 C301 353 293 361 284 361 C273 361 266 353 266 344 L266 344 Z M327 344 C327 332 335 324 347 324 C357 324 366 332 366 344 C366 354 357 363 347 363 C335 363 327 354 327 344 L327 344 Z M125 431 L88 431 L88 399 C88 399 152 401 189 401 C225 401 290 399 290 399 L290 431 L253 431 C230 431 224 441 224 456 L224 595 C224 653 226 710 226 710 L190 710 C184 676 167 650 111 650 L94 650 L94 616 L155 618 L155 456 C155 441 148 431 125 431 L125 431 Z M304 70 L283 68 C290 27 235 36 196 45 C150 55 105 49 86 27 C98 62 136 90 196 106 C269 126 300 153 300 207 C300 254 268 290 185 290 C119 290 74 258 74 210 C74 182 92 168 116 168 C143 168 156 183 156 198 C156 219 142 230 120 230 C112 230 104 229 97 226 C107 252 141 262 171 262 C216 262 232 238 232 204 C232 167 206 147 159 122 C100 91 68 59 68 2 C68 -22 82 -30 95 -30 C107 -30 116 -23 116 -12 C116 0 101 7 86 5 C100 20 130 17 156 1 C181 -15 200 -30 238 -30 C298 -30 322 17 304 70 L304 70 Z " />
<glyph glyph-name="threequarters" unicode="&#xbe;" horiz-adv-x="378" d="M12 344 C12 332 20 324 32 324 C42 324 51 332 51 344 C51 354 42 363 32 363 C20 363 12 354 12 344 L12 344 Z M77 344 C77 333 84 326 95 326 C104 326 112 333 112 344 C112 353 104 361 95 361 C84 361 77 353 77 344 L77 344 Z M142 344 C142 334 148 328 158 328 C166 328 173 334 173 344 C173 352 166 359 158 359 C148 359 142 352 142 344 L142 344 Z M205 344 C205 334 211 328 221 328 C229 328 236 334 236 344 C236 352 229 359 221 359 C211 359 205 352 205 344 L205 344 Z M266 344 C266 333 273 326 284 326 C293 326 301 333 301 344 C301 353 293 361 284 361 C273 361 266 353 266 344 L266 344 Z M327 344 C327 332 335 324 347 324 C357 324 366 332 366 344 C366 354 357 363 347 363 C335 363 327 354 327 344 L327 344 Z M300 631 C300 683 258 711 189 711 C120 711 75 675 75 634 C75 607 94 591 117 591 C146 591 158 607 158 623 C158 640 146 655 122 655 C113 655 106 653 100 651 C113 672 143 683 171 683 C212 683 230 661 230 629 C230 588 211 570 162 569 L146 569 L146 545 L163 545 C217 545 241 525 241 483 C241 439 219 418 166 418 C135 418 103 428 88 450 C94 448 100 447 108 447 C132 447 145 461 145 480 C145 498 130 512 103 512 C78 512 60 496 60 469 C60 426 110 392 178 392 C260 392 318 419 318 483 C318 522 288 552 237 560 C273 571 300 593 300 631 L300 631 Z M169 10 L144 10 L144 -22 C144 -22 201 -20 232 -20 C263 -20 319 -22 319 -22 L319 10 L295 10 C273 10 266 13 266 28 L266 46 L323 46 L323 70 L266 69 L266 286 L233 286 L55 69 L55 47 L198 47 L198 28 C198 12 191 10 169 10 L169 10 Z M87 69 L198 207 L198 69 L87 69 Z " />
<glyph glyph-name="questiondown" unicode="&#xbf;" horiz-adv-x="500" d="M153 193 C188 223 226 237 266 237 C282 237 300 230 300 209 C300 190 283 182 241 165 C98 106 37 44 37 -64 C37 -179 109 -250 252 -250 C406 -250 473 -165 473 -73 C473 -14 444 18 396 18 C350 18 321 -9 321 -47 C321 -89 345 -114 387 -114 C402 -114 417 -110 431 -103 C414 -175 353 -202 292 -202 C196 -202 156 -139 156 -62 C156 52 208 100 271 132 C314 154 340 176 340 211 C340 250 310 274 270 274 C217 274 167 246 140 219 L153 193 Z M180 405 C180 363 208 335 251 335 C291 335 321 362 321 404 C321 450 291 473 251 473 C208 473 180 448 180 405 L180 405 Z " />
<glyph glyph-name="Agrave" unicode="&#xc0;" horiz-adv-x="882" d="M574 155 C597 93 580 59 532 59 L488 59 L487 -2 C487 -2 602 0 666 0 C730 0 844 -2 844 -2 L844 59 L799 59 C758 59 738 82 712 141 C686 200 535 578 495 696 C495 696 459 693 439 693 C419 693 382 696 382 696 C340 579 202 203 178 142 C154 81 131 59 75 59 L38 59 L38 -2 C38 -2 137 0 192 0 C247 0 346 -2 346 -2 L347 59 L304 59 C239 59 233 97 250 153 C253 164 261 187 271 215 C347 217 479 217 552 215 L574 155 Z M533 267 C464 266 360 266 289 267 C327 374 381 523 409 594 C438 523 494 374 533 267 L533 267 Z M492 756 C452 803 404 861 369 888 C327 918 287 870 328 839 C362 812 430 773 484 746 L492 756 Z " />
<glyph glyph-name="Aacute" unicode="&#xc1;" horiz-adv-x="882" d="M574 155 C597 93 580 59 532 59 L488 59 L487 -2 C487 -2 602 0 666 0 C730 0 844 -2 844 -2 L844 59 L799 59 C758 59 738 82 712 141 C686 200 535 578 495 696 C495 696 459 693 439 693 C419 693 382 696 382 696 C340 579 202 203 178 142 C154 81 131 59 75 59 L38 59 L38 -2 C38 -2 137 0 192 0 C247 0 346 -2 346 -2 L347 59 L304 59 C239 59 233 97 250 153 C253 164 261 187 271 215 C347 217 479 217 552 215 L574 155 Z M533 267 C464 266 360 266 289 267 C327 374 381 523 409 594 C438 523 494 374 533 267 L533 267 Z M412 746 C466 773 533 812 568 839 C609 870 569 918 527 888 C492 861 443 803 404 756 L412 746 Z " />
<glyph glyph-name="Acircumflex" unicode="&#xc2;" horiz-adv-x="882" d="M574 155 C597 93 580 59 532 59 L488 59 L487 -2 C487 -2 602 0 666 0 C730 0 844 -2 844 -2 L844 59 L799 59 C758 59 738 82 712 141 C686 200 535 578 495 696 C495 696 459 693 439 693 C419 693 382 696 382 696 C340 579 202 203 178 142 C154 81 131 59 75 59 L38 59 L38 -2 C38 -2 137 0 192 0 C247 0 346 -2 346 -2 L347 59 L304 59 C239 59 233 97 250 153 C253 164 261 187 271 215 C347 217 479 217 552 215 L574 155 Z M533 267 C464 266 360 266 289 267 C327 374 381 523 409 594 C438 523 494 374 533 267 L533 267 Z M586 746 C560 797 500 859 465 887 L416 887 C381 857 319 796 294 746 L302 736 C337 755 408 805 439 836 C470 805 539 756 578 736 L586 746 Z " />
<glyph glyph-name="Atilde" unicode="&#xc3;" horiz-adv-x="882" d="M574 155 C597 93 580 59 532 59 L488 59 L487 -2 C487 -2 602 0 666 0 C730 0 844 -2 844 -2 L844 59 L799 59 C758 59 738 82 712 141 C686 200 535 578 495 696 C495 696 459 693 439 693 C419 693 382 696 382 696 C340 579 202 203 178 142 C154 81 131 59 75 59 L38 59 L38 -2 C38 -2 137 0 192 0 C247 0 346 -2 346 -2 L347 59 L304 59 C239 59 233 97 250 153 C253 164 261 187 271 215 C347 217 479 217 552 215 L574 155 Z M533 267 C464 266 360 266 289 267 C327 374 381 523 409 594 C438 523 494 374 533 267 L533 267 Z M566 889 C579 822 564 794 535 794 C508 794 494 814 470 849 C443 888 420 902 384 902 C317 902 266 859 296 760 L315 764 C302 831 316 859 345 859 C372 859 382 843 408 805 C428 775 449 751 497 751 C559 751 615 794 585 893 L566 889 Z " />
<glyph glyph-name="Adieresis" unicode="&#xc4;" horiz-adv-x="882" d="M574 155 C597 93 580 59 532 59 L488 59 L487 -2 C487 -2 602 0 666 0 C730 0 844 -2 844 -2 L844 59 L799 59 C758 59 738 82 712 141 C686 200 535 578 495 696 C495 696 459 693 439 693 C419 693 382 696 382 696 C340 579 202 203 178 142 C154 81 131 59 75 59 L38 59 L38 -2 C38 -2 137 0 192 0 C247 0 346 -2 346 -2 L347 59 L304 59 C239 59 233 97 250 153 C253 164 261 187 271 215 C347 217 479 217 552 215 L574 155 Z M533 267 C464 266 360 266 289 267 C327 374 381 523 409 594 C438 523 494 374 533 267 L533 267 Z M411 812 C411 842 389 866 356 866 C323 866 301 842 301 812 C301 782 323 758 356 758 C389 758 411 782 411 812 L411 812 Z M581 812 C581 842 559 866 526 866 C493 866 471 842 471 812 C471 782 493 758 526 758 C559 758 581 782 581 812 L581 812 Z " />
<glyph glyph-name="Aring" unicode="&#xc5;" horiz-adv-x="882" d="M574 155 C597 93 580 59 532 59 L488 59 L487 -2 C487 -2 602 0 666 0 C730 0 844 -2 844 -2 L844 59 L799 59 C758 59 738 82 712 141 C686 200 535 578 495 696 C495 696 459 693 439 693 C419 693 382 696 382 696 C340 579 202 203 178 142 C154 81 131 59 75 59 L38 59 L38 -2 C38 -2 137 0 192 0 C247 0 346 -2 346 -2 L347 59 L304 59 C239 59 233 97 250 153 C253 164 261 187 271 215 C347 217 479 217 552 215 L574 155 Z M533 267 C464 266 360 266 289 267 C327 374 381 523 409 594 C438 523 494 374 533 267 L533 267 Z M489 830 C489 797 470 778 442 778 C413 778 395 797 395 830 C395 863 413 880 442 880 C470 880 489 863 489 830 L489 830 Z M525 830 C525 879 490 913 441 913 C391 913 358 879 358 830 C358 781 393 746 442 746 C491 746 525 781 525 830 L525 830 Z " />
<glyph glyph-name="AE" unicode="&#xc6;" horiz-adv-x="1076" d="M1037 264 L976 264 L976 253 C976 122 935 59 815 59 L672 59 C644 59 622 73 620 111 C618 140 617 232 617 327 L671 327 C762 325 796 288 798 204 L798 192 L851 192 C848 243 848 278 848 352 C848 425 850 448 851 506 L796 506 L796 491 C796 405 758 377 679 375 L617 375 C617 467 618 554 620 581 C622 609 634 628 667 628 L817 628 C932 628 973 589 973 450 L973 444 L1027 445 C1026 517 1027 622 1033 695 C986 689 869 689 826 689 C686 689 576 688 557 688 C538 688 428 688 379 693 L379 639 L404 639 C447 639 464 612 439 565 C354 404 225 193 194 142 C158 81 130 59 74 59 L38 59 L38 -2 C38 -2 137 0 192 0 C247 0 346 -2 346 -2 L347 59 L314 59 C249 59 254 97 280 153 L305 205 C364 207 437 207 499 206 C499 164 498 132 497 119 C494 84 484 59 438 59 L382 59 L382 -2 C422 0 519 0 552 0 L839 0 C882 0 980 0 1027 -4 C1027 82 1030 190 1037 264 L1037 264 Z M332 257 C377 343 441 462 498 559 C500 499 500 364 500 257 C446 256 385 256 332 257 L332 257 Z " />
<glyph glyph-name="Ccedilla" unicode="&#xc7;" horiz-adv-x="735" d="M324 -115 C370 -97 416 -114 416 -158 C416 -193 395 -214 357 -214 C325 -214 305 -200 289 -177 L268 -192 C280 -223 314 -254 368 -254 C441 -254 486 -219 486 -158 C486 -95 424 -71 369 -81 C389 -63 400 -40 404 -20 C594 -14 669 84 682 268 C665 266 630 266 613 268 C605 129 532 35 388 35 C276 35 192 96 192 346 C192 559 252 655 396 655 C551 655 584 558 603 447 C623 449 649 449 669 447 C664 527 675 649 684 700 L624 700 C618 648 606 640 552 669 C531 680 481 710 387 710 C199 710 50 603 50 346 C50 87 178 -17 377 -20 C368 -51 350 -73 312 -97 L324 -115 Z " />
<glyph glyph-name="Egrave" unicode="&#xc8;" horiz-adv-x="732" d="M452 491 C452 401 410 375 323 375 L273 375 C273 467 274 554 276 581 C278 609 290 628 323 628 L473 628 C593 628 629 589 629 444 L683 444 C682 516 683 622 689 695 C642 689 525 689 482 689 C342 689 232 688 213 688 C194 688 54 690 38 690 L38 631 L101 631 C137 631 150 620 153 581 C157 522 157 174 153 119 C150 84 140 59 94 59 L38 59 L38 -2 C38 -2 161 0 208 0 L495 0 C538 0 636 0 683 -4 C683 82 686 190 693 264 L632 264 C632 122 596 59 471 59 L328 59 C300 59 278 73 276 111 C274 140 273 232 273 327 L320 327 C417 327 452 290 454 204 L454 192 L507 192 C504 243 504 278 504 352 C504 425 506 448 507 506 L452 506 L452 491 Z M456 756 C416 803 368 861 333 888 C291 918 251 870 292 839 C326 812 394 773 448 746 L456 756 Z " />
<glyph glyph-name="Eacute" unicode="&#xc9;" horiz-adv-x="732" d="M452 491 C452 401 410 375 323 375 L273 375 C273 467 274 554 276 581 C278 609 290 628 323 628 L473 628 C593 628 629 589 629 444 L683 444 C682 516 683 622 689 695 C642 689 525 689 482 689 C342 689 232 688 213 688 C194 688 54 690 38 690 L38 631 L101 631 C137 631 150 620 153 581 C157 522 157 174 153 119 C150 84 140 59 94 59 L38 59 L38 -2 C38 -2 161 0 208 0 L495 0 C538 0 636 0 683 -4 C683 82 686 190 693 264 L632 264 C632 122 596 59 471 59 L328 59 C300 59 278 73 276 111 C274 140 273 232 273 327 L320 327 C417 327 452 290 454 204 L454 192 L507 192 C504 243 504 278 504 352 C504 425 506 448 507 506 L452 506 L452 491 Z M356 746 C410 773 477 812 512 839 C553 870 513 918 471 888 C436 861 387 803 348 756 L356 746 Z " />
<glyph glyph-name="Ecircumflex" unicode="&#xca;" horiz-adv-x="732" d="M452 491 C452 401 410 375 323 375 L273 375 C273 467 274 554 276 581 C278 609 290 628 323 628 L473 628 C593 628 629 589 629 444 L683 444 C682 516 683 622 689 695 C642 689 525 689 482 689 C342 689 232 688 213 688 C194 688 54 690 38 690 L38 631 L101 631 C137 631 150 620 153 581 C157 522 157 174 153 119 C150 84 140 59 94 59 L38 59 L38 -2 C38 -2 161 0 208 0 L495 0 C538 0 636 0 683 -4 C683 82 686 190 693 264 L632 264 C632 122 596 59 471 59 L328 59 C300 59 278 73 276 111 C274 140 273 232 273 327 L320 327 C417 327 452 290 454 204 L454 192 L507 192 C504 243 504 278 504 352 C504 425 506 448 507 506 L452 506 L452 491 Z M541 746 C515 797 455 859 420 887 L371 887 C336 857 274 796 249 746 L257 736 C292 755 363 805 394 836 C425 805 494 756 533 736 L541 746 Z " />
<glyph glyph-name="Edieresis" unicode="&#xcb;" horiz-adv-x="732" d="M452 491 C452 401 410 375 323 375 L273 375 C273 467 274 554 276 581 C278 609 290 628 323 628 L473 628 C593 628 629 589 629 444 L683 444 C682 516 683 622 689 695 C642 689 525 689 482 689 C342 689 232 688 213 688 C194 688 54 690 38 690 L38 631 L101 631 C137 631 150 620 153 581 C157 522 157 174 153 119 C150 84 140 59 94 59 L38 59 L38 -2 C38 -2 161 0 208 0 L495 0 C538 0 636 0 683 -4 C683 82 686 190 693 264 L632 264 C632 122 596 59 471 59 L328 59 C300 59 278 73 276 111 C274 140 273 232 273 327 L320 327 C417 327 452 290 454 204 L454 192 L507 192 C504 243 504 278 504 352 C504 425 506 448 507 506 L452 506 L452 491 Z M368 812 C368 842 346 866 313 866 C280 866 258 842 258 812 C258 782 280 758 313 758 C346 758 368 782 368 812 L368 812 Z M538 812 C538 842 516 866 483 866 C450 866 428 842 428 812 C428 782 450 758 483 758 C516 758 538 782 538 812 L538 812 Z " />
<glyph glyph-name="Igrave" unicode="&#xcc;" horiz-adv-x="428" d="M41 -2 C41 -2 153 0 215 0 C277 0 388 -2 388 -2 L388 59 L334 59 C288 59 276 65 275 99 C272 174 271 522 275 581 C278 620 291 631 327 631 L388 631 L388 690 C372 690 277 687 215 687 C153 687 41 690 41 690 L41 631 L102 631 C138 631 152 620 154 581 C157 522 157 174 154 99 C153 65 141 59 96 59 L41 59 L41 -2 Z M265 756 C225 803 177 861 142 888 C100 918 60 870 101 839 C135 812 203 773 257 746 L265 756 Z " />
<glyph glyph-name="Iacute" unicode="&#xcd;" horiz-adv-x="428" d="M41 -2 C41 -2 153 0 215 0 C277 0 388 -2 388 -2 L388 59 L334 59 C288 59 276 65 275 99 C272 174 271 522 275 581 C278 620 291 631 327 631 L388 631 L388 690 C372 690 277 687 215 687 C153 687 41 690 41 690 L41 631 L102 631 C138 631 152 620 154 581 C157 522 157 174 154 99 C153 65 141 59 96 59 L41 59 L41 -2 Z M185 746 C239 773 306 812 341 839 C382 870 342 918 300 888 C265 861 216 803 177 756 L185 746 Z " />
<glyph glyph-name="Icircumflex" unicode="&#xce;" horiz-adv-x="428" d="M41 -2 C41 -2 153 0 215 0 C277 0 388 -2 388 -2 L388 59 L334 59 C288 59 276 65 275 99 C272 174 271 522 275 581 C278 620 291 631 327 631 L388 631 L388 690 C372 690 277 687 215 687 C153 687 41 690 41 690 L41 631 L102 631 C138 631 152 620 154 581 C157 522 157 174 154 99 C153 65 141 59 96 59 L41 59 L41 -2 Z M360 746 C334 797 274 859 239 887 L190 887 C155 857 93 796 68 746 L76 736 C111 755 182 805 213 836 C244 805 313 756 352 736 L360 746 Z " />
<glyph glyph-name="Idieresis" unicode="&#xcf;" horiz-adv-x="428" d="M41 -2 C41 -2 153 0 215 0 C277 0 388 -2 388 -2 L388 59 L334 59 C288 59 276 65 275 99 C272 174 271 522 275 581 C278 620 291 631 327 631 L388 631 L388 690 C372 690 277 687 215 687 C153 687 41 690 41 690 L41 631 L102 631 C138 631 152 620 154 581 C157 522 157 174 154 99 C153 65 141 59 96 59 L41 59 L41 -2 Z M184 812 C184 842 162 866 129 866 C96 866 74 842 74 812 C74 782 96 758 129 758 C162 758 184 782 184 812 L184 812 Z M354 812 C354 842 332 866 299 866 C266 866 244 842 244 812 C244 782 266 758 299 758 C332 758 354 782 354 812 L354 812 Z " />
<glyph glyph-name="Eth" unicode="&#xd0;" horiz-adv-x="781" d="M384 689 C384 689 260 688 215 688 C167 688 54 690 38 690 L38 631 L102 631 C138 631 152 621 154 582 C155 556 156 473 156 384 C120 384 88 385 69 386 L69 326 C88 326 120 327 156 327 C156 230 155 134 154 100 C153 65 141 59 95 59 L38 59 L38 -2 C38 -2 167 0 211 0 L384 0 C579 0 735 90 732 350 C729 583 624 689 384 689 L384 689 Z M275 101 C273 134 272 229 272 327 C319 327 362 327 385 326 L385 386 C362 385 319 384 272 384 C272 476 273 562 275 594 C277 620 289 639 321 639 L372 639 C544 639 598 563 598 351 C598 114 533 50 371 50 L321 50 C299 50 277 64 275 101 L275 101 Z " />
<glyph glyph-name="Ntilde" unicode="&#xd1;" horiz-adv-x="833" d="M272 690 C216 688 95 688 39 690 L39 631 L102 631 C138 631 152 620 155 581 C159 522 158 174 155 100 C154 66 141 59 95 59 L38 59 L38 -2 C38 -2 136 0 191 0 C246 0 344 -2 344 -2 L344 59 L286 59 C240 59 227 66 226 100 C223 159 223 391 224 549 C345 377 516 127 601 0 C619 2 660 2 678 0 C675 120 675 522 678 580 C680 620 695 631 731 631 L795 631 L795 690 C795 690 698 687 643 687 C588 687 506 690 490 690 L490 631 L554 631 C590 631 605 620 607 580 C610 526 610 335 607 209 C513 339 347 576 272 690 L272 690 Z M521 889 C534 822 519 794 490 794 C463 794 449 814 425 849 C398 888 375 902 339 902 C272 902 221 859 251 760 L270 764 C257 831 271 859 300 859 C327 859 337 843 363 805 C383 775 404 751 452 751 C514 751 570 794 540 893 L521 889 Z " />
<glyph glyph-name="Ograve" unicode="&#xd2;" horiz-adv-x="770" d="M385 35 C235 35 185 126 185 346 C185 555 249 656 385 656 C527 656 586 569 586 347 C586 140 533 35 385 35 L385 35 Z M385 -20 C579 -20 720 113 720 347 C720 579 607 710 385 710 C191 710 50 581 50 346 C50 115 164 -20 385 -20 L385 -20 Z M436 756 C396 803 348 861 313 888 C271 918 231 870 272 839 C306 812 374 773 428 746 L436 756 Z " />
<glyph glyph-name="Oacute" unicode="&#xd3;" horiz-adv-x="770" d="M385 35 C235 35 185 126 185 346 C185 555 249 656 385 656 C527 656 586 569 586 347 C586 140 533 35 385 35 L385 35 Z M385 -20 C579 -20 720 113 720 347 C720 579 607 710 385 710 C191 710 50 581 50 346 C50 115 164 -20 385 -20 L385 -20 Z M356 746 C410 773 477 812 512 839 C553 870 513 918 471 888 C436 861 387 803 348 756 L356 746 Z " />
<glyph glyph-name="Ocircumflex" unicode="&#xd4;" horiz-adv-x="770" d="M385 35 C235 35 185 126 185 346 C185 555 249 656 385 656 C527 656 586 569 586 347 C586 140 533 35 385 35 L385 35 Z M385 -20 C579 -20 720 113 720 347 C720 579 607 710 385 710 C191 710 50 581 50 346 C50 115 164 -20 385 -20 L385 -20 Z M531 746 C505 797 445 859 410 887 L361 887 C326 857 264 796 239 746 L247 736 C282 755 353 805 384 836 C415 805 484 756 523 736 L531 746 Z " />
<glyph glyph-name="Otilde" unicode="&#xd5;" horiz-adv-x="770" d="M385 35 C235 35 185 126 185 346 C185 555 249 656 385 656 C527 656 586 569 586 347 C586 140 533 35 385 35 L385 35 Z M385 -20 C579 -20 720 113 720 347 C720 579 607 710 385 710 C191 710 50 581 50 346 C50 115 164 -20 385 -20 L385 -20 Z M510 889 C523 822 508 794 479 794 C452 794 438 814 414 849 C387 888 364 902 328 902 C261 902 210 859 240 760 L259 764 C246 831 260 859 289 859 C316 859 326 843 352 805 C372 775 393 751 441 751 C503 751 559 794 529 893 L510 889 Z " />
<glyph glyph-name="Odieresis" unicode="&#xd6;" horiz-adv-x="770" d="M385 35 C235 35 185 126 185 346 C185 555 249 656 385 656 C527 656 586 569 586 347 C586 140 533 35 385 35 L385 35 Z M385 -20 C579 -20 720 113 720 347 C720 579 607 710 385 710 C191 710 50 581 50 346 C50 115 164 -20 385 -20 L385 -20 Z M366 812 C366 842 344 866 311 866 C278 866 256 842 256 812 C256 782 278 758 311 758 C344 758 366 782 366 812 L366 812 Z M536 812 C536 842 514 866 481 866 C448 866 426 842 426 812 C426 782 448 758 481 758 C514 758 536 782 536 812 L536 812 Z " />
<glyph glyph-name="multiply" unicode="&#xd7;" horiz-adv-x="600" d="M478 111 C457 131 371 213 324 250 C370 285 450 362 477 388 L437 428 C410 401 335 322 299 274 C263 321 188 401 162 427 L121 387 C149 361 227 285 274 249 C228 214 148 139 121 113 L162 72 C188 100 263 178 299 225 C335 177 418 92 438 71 L478 111 Z " />
<glyph glyph-name="Oslash" unicode="&#xd8;" horiz-adv-x="770" d="M385 -20 C579 -20 720 113 720 347 C720 459 693 548 641 609 L715 716 L692 734 L606 643 C551 687 478 710 385 710 C191 710 50 581 50 346 C50 229 79 136 136 74 L65 -23 L90 -43 L172 41 C226 1 297 -20 385 -20 L385 -20 Z M185 346 C185 555 249 656 385 656 C462 656 515 630 547 571 L378 354 L207 156 C191 203 185 266 185 346 L185 346 Z M385 35 C308 35 258 58 227 110 L401 333 L567 521 C580 476 586 418 586 347 C586 140 533 35 385 35 L385 35 Z " />
<glyph glyph-name="Ugrave" unicode="&#xd9;" horiz-adv-x="843" d="M136 282 C136 66 237 -21 431 -21 C617 -21 706 82 706 281 C706 357 704 459 706 571 C707 610 722 631 758 631 L805 631 L805 690 C789 690 714 687 662 687 C610 687 518 690 518 690 L518 631 L564 631 C600 631 621 611 622 572 C624 459 622 358 622 273 C622 102 557 51 440 51 C322 51 259 108 259 273 L259 572 C259 619 278 631 318 631 L364 631 L364 690 C348 690 260 687 201 687 C142 687 38 690 38 690 L38 631 L84 631 C123 631 135 615 136 572 C138 510 136 282 136 282 L136 282 Z M472 756 C432 803 384 861 349 888 C307 918 267 870 308 839 C342 812 410 773 464 746 L472 756 Z " />
<glyph glyph-name="Uacute" unicode="&#xda;" horiz-adv-x="843" d="M136 282 C136 66 237 -21 431 -21 C617 -21 706 82 706 281 C706 357 704 459 706 571 C707 610 722 631 758 631 L805 631 L805 690 C789 690 714 687 662 687 C610 687 518 690 518 690 L518 631 L564 631 C600 631 621 611 622 572 C624 459 622 358 622 273 C622 102 557 51 440 51 C322 51 259 108 259 273 L259 572 C259 619 278 631 318 631 L364 631 L364 690 C348 690 260 687 201 687 C142 687 38 690 38 690 L38 631 L84 631 C123 631 135 615 136 572 C138 510 136 282 136 282 L136 282 Z M442 746 C496 773 563 812 598 839 C639 870 599 918 557 888 C522 861 473 803 434 756 L442 746 Z " />
<glyph glyph-name="Ucircumflex" unicode="&#xdb;" horiz-adv-x="843" d="M136 282 C136 66 237 -21 431 -21 C617 -21 706 82 706 281 C706 357 704 459 706 571 C707 610 722 631 758 631 L805 631 L805 690 C789 690 714 687 662 687 C610 687 518 690 518 690 L518 631 L564 631 C600 631 621 611 622 572 C624 459 622 358 622 273 C622 102 557 51 440 51 C322 51 259 108 259 273 L259 572 C259 619 278 631 318 631 L364 631 L364 690 C348 690 260 687 201 687 C142 687 38 690 38 690 L38 631 L84 631 C123 631 135 615 136 572 C138 510 136 282 136 282 L136 282 Z M587 746 C561 797 501 859 466 887 L417 887 C382 857 320 796 295 746 L303 736 C338 755 409 805 440 836 C471 805 540 756 579 736 L587 746 Z " />
<glyph glyph-name="Udieresis" unicode="&#xdc;" horiz-adv-x="843" d="M136 282 C136 66 237 -21 431 -21 C617 -21 706 82 706 281 C706 357 704 459 706 571 C707 610 722 631 758 631 L805 631 L805 690 C789 690 714 687 662 687 C610 687 518 690 518 690 L518 631 L564 631 C600 631 621 611 622 572 C624 459 622 358 622 273 C622 102 557 51 440 51 C322 51 259 108 259 273 L259 572 C259 619 278 631 318 631 L364 631 L364 690 C348 690 260 687 201 687 C142 687 38 690 38 690 L38 631 L84 631 C123 631 135 615 136 572 C138 510 136 282 136 282 L136 282 Z M412 812 C412 842 390 866 357 866 C324 866 302 842 302 812 C302 782 324 758 357 758 C390 758 412 782 412 812 L412 812 Z M582 812 C582 842 560 866 527 866 C494 866 472 842 472 812 C472 782 494 758 527 758 C560 758 582 782 582 812 L582 812 Z " />
<glyph glyph-name="Yacute" unicode="&#xdd;" horiz-adv-x="805" d="M626 561 C657 614 680 631 759 631 L785 631 L785 690 C785 690 688 687 633 687 C578 687 480 690 480 690 L480 631 L516 631 C581 631 577 602 560 564 C529 497 467 375 427 302 C385 371 311 505 282 564 C264 603 274 631 332 631 L382 631 L382 690 C382 690 266 687 201 687 C136 687 20 690 20 690 L20 631 L36 631 C97 631 125 612 152 567 C197 489 282 333 331 236 L331 110 C331 71 326 58 271 58 L204 58 L204 -2 C204 -2 323 0 390 0 C457 0 575 -2 575 -2 L575 58 L507 58 C453 58 448 69 448 110 L448 237 C497 332 581 485 626 561 L626 561 Z M433 746 C487 773 554 812 589 839 C630 870 590 918 548 888 C513 861 464 803 425 756 L433 746 Z " />
<glyph glyph-name="Thorn" unicode="&#xde;" horiz-adv-x="709" d="M38 -2 C38 -2 150 0 212 0 C274 0 385 -2 385 -2 L385 59 L331 59 C285 59 274 65 272 99 C271 108 271 123 271 140 C294 137 323 135 358 135 C580 135 661 212 661 348 C661 481 590 563 365 563 C331 563 298 558 270 551 C271 564 271 574 272 581 C275 620 288 631 324 631 L385 631 L385 690 C369 690 274 687 212 687 C150 687 38 690 38 690 L38 631 L99 631 C135 631 149 620 151 581 C154 522 154 174 151 99 C150 65 138 59 93 59 L38 59 L38 -2 Z M341 508 C486 508 525 456 525 348 C525 242 485 185 341 185 C313 185 289 186 270 188 C269 282 269 417 270 504 C290 506 313 508 341 508 L341 508 Z " />
<glyph glyph-name="germandbls" unicode="&#xdf;" horiz-adv-x="632" d="M30 459 L30 409 L103 411 C104 313 104 158 102 99 C101 71 88 50 56 50 L21 50 L21 0 C31 0 84 5 132 3 L213 0 C208 64 208 71 207 99 C205 174 207 413 207 493 C207 622 248 649 304 649 C360 649 398 620 398 521 C398 425 367 378 302 378 L303 330 C416 335 450 293 450 181 C450 72 423 33 378 33 C325 33 305 80 310 157 L271 154 C255 37 307 -14 398 -14 C513 -14 572 39 572 182 C572 276 528 355 404 364 C482 387 512 441 512 521 C512 617 448 695 311 695 C201 695 102 641 102 477 L102 456 L30 459 Z " />
<glyph glyph-name="agrave" unicode="&#xe0;" horiz-adv-x="527" d="M413 288 C413 396 376 473 233 473 C141 473 46 437 46 365 C46 320 73 298 114 298 C156 298 181 321 181 359 C181 390 163 411 131 417 C148 425 170 430 201 431 C290 432 308 389 308 297 L308 266 C174 257 30 224 30 107 C30 32 72 -13 166 -13 C238 -13 283 27 309 77 C314 25 342 -14 411 -14 C491 -14 509 46 506 157 L467 154 C470 79 459 41 437 41 C424 41 413 48 413 92 L413 288 Z M211 43 C173 43 149 66 149 112 C149 191 212 229 308 240 L308 185 C308 87 271 43 211 43 L211 43 Z M300 526 C260 573 212 631 177 658 C135 688 95 640 136 609 C170 582 238 543 292 516 L300 526 Z " />
<glyph glyph-name="aacute" unicode="&#xe1;" horiz-adv-x="527" d="M413 288 C413 396 376 473 233 473 C141 473 46 437 46 365 C46 320 73 298 114 298 C156 298 181 321 181 359 C181 390 163 411 131 417 C148 425 170 430 201 431 C290 432 308 389 308 297 L308 266 C174 257 30 224 30 107 C30 32 72 -13 166 -13 C238 -13 283 27 309 77 C314 25 342 -14 411 -14 C491 -14 509 46 506 157 L467 154 C470 79 459 41 437 41 C424 41 413 48 413 92 L413 288 Z M211 43 C173 43 149 66 149 112 C149 191 212 229 308 240 L308 185 C308 87 271 43 211 43 L211 43 Z M210 516 C264 543 331 582 366 609 C407 640 367 688 325 658 C290 631 241 573 202 526 L210 516 Z " />
<glyph glyph-name="acircumflex" unicode="&#xe2;" horiz-adv-x="527" d="M413 288 C413 396 376 473 233 473 C141 473 46 437 46 365 C46 320 73 298 114 298 C156 298 181 321 181 359 C181 390 163 411 131 417 C148 425 170 430 201 431 C290 432 308 389 308 297 L308 266 C174 257 30 224 30 107 C30 32 72 -13 166 -13 C238 -13 283 27 309 77 C314 25 342 -14 411 -14 C491 -14 509 46 506 157 L467 154 C470 79 459 41 437 41 C424 41 413 48 413 92 L413 288 Z M211 43 C173 43 149 66 149 112 C149 191 212 229 308 240 L308 185 C308 87 271 43 211 43 L211 43 Z M383 526 C357 577 297 639 262 667 L213 667 C178 637 116 576 91 526 L99 516 C134 535 205 585 236 616 C267 585 336 536 375 516 L383 526 Z " />
<glyph glyph-name="atilde" unicode="&#xe3;" horiz-adv-x="527" d="M413 288 C413 396 376 473 233 473 C141 473 46 437 46 365 C46 320 73 298 114 298 C156 298 181 321 181 359 C181 390 163 411 131 417 C148 425 170 430 201 431 C290 432 308 389 308 297 L308 266 C174 257 30 224 30 107 C30 32 72 -13 166 -13 C238 -13 283 27 309 77 C314 25 342 -14 411 -14 C491 -14 509 46 506 157 L467 154 C470 79 459 41 437 41 C424 41 413 48 413 92 L413 288 Z M211 43 C173 43 149 66 149 112 C149 191 212 229 308 240 L308 185 C308 87 271 43 211 43 L211 43 Z M363 659 C376 592 361 564 332 564 C305 564 291 584 267 619 C240 658 217 672 181 672 C114 672 63 629 93 530 L112 534 C99 601 113 629 142 629 C169 629 179 613 205 575 C225 545 246 521 294 521 C356 521 412 564 382 663 L363 659 Z " />
<glyph glyph-name="adieresis" unicode="&#xe4;" horiz-adv-x="527" d="M413 288 C413 396 376 473 233 473 C141 473 46 437 46 365 C46 320 73 298 114 298 C156 298 181 321 181 359 C181 390 163 411 131 417 C148 425 170 430 201 431 C290 432 308 389 308 297 L308 266 C174 257 30 224 30 107 C30 32 72 -13 166 -13 C238 -13 283 27 309 77 C314 25 342 -14 411 -14 C491 -14 509 46 506 157 L467 154 C470 79 459 41 437 41 C424 41 413 48 413 92 L413 288 Z M211 43 C173 43 149 66 149 112 C149 191 212 229 308 240 L308 185 C308 87 271 43 211 43 L211 43 Z M210 582 C210 612 188 636 155 636 C122 636 100 612 100 582 C100 552 122 528 155 528 C188 528 210 552 210 582 L210 582 Z M380 582 C380 612 358 636 325 636 C292 636 270 612 270 582 C270 552 292 528 325 528 C358 528 380 552 380 582 L380 582 Z " />
<glyph glyph-name="aring" unicode="&#xe5;" horiz-adv-x="527" d="M413 288 C413 396 376 473 233 473 C141 473 46 437 46 365 C46 320 73 298 114 298 C156 298 181 321 181 359 C181 390 163 411 131 417 C148 425 170 430 201 431 C290 432 308 389 308 297 L308 266 C174 257 30 224 30 107 C30 32 72 -13 166 -13 C238 -13 283 27 309 77 C314 25 342 -14 411 -14 C491 -14 509 46 506 157 L467 154 C470 79 459 41 437 41 C424 41 413 48 413 92 L413 288 Z M211 43 C173 43 149 66 149 112 C149 191 212 229 308 240 L308 185 C308 87 271 43 211 43 L211 43 Z M281 605 C281 572 262 553 234 553 C205 553 187 572 187 605 C187 638 205 655 234 655 C262 655 281 638 281 605 L281 605 Z M317 605 C317 654 282 688 233 688 C183 688 150 654 150 605 C150 556 185 521 234 521 C283 521 317 556 317 605 L317 605 Z " />
<glyph glyph-name="ae" unicode="&#xe6;" horiz-adv-x="765" d="M716 121 L667 133 C652 77 620 37 538 37 C455 37 425 81 423 211 L722 211 C732 362 669 473 520 473 C464 473 408 454 376 418 C348 451 306 473 233 473 C141 473 47 439 47 365 C47 322 75 298 115 298 C151 298 180 320 180 359 C180 391 164 411 130 416 C152 426 181 431 212 431 C275 431 306 381 306 298 L306 266 C173 256 30 224 30 107 C30 32 72 -13 166 -13 C252 -13 303 27 325 83 C355 19 420 -17 519 -17 C626 -17 692 36 716 121 L716 121 Z M515 426 C571 426 596 362 596 270 C596 249 591 245 576 245 L423 245 C425 379 455 426 515 426 L515 426 Z M306 191 C306 86 266 46 208 46 C170 46 149 66 149 112 C149 191 211 229 306 240 L306 191 Z " />
<glyph glyph-name="ccedilla" unicode="&#xe7;" horiz-adv-x="487" d="M201 -115 C247 -97 293 -114 293 -158 C293 -193 272 -214 234 -214 C202 -214 182 -200 166 -177 L145 -192 C157 -223 191 -254 245 -254 C318 -254 363 -219 363 -158 C363 -95 301 -71 246 -81 C267 -62 279 -37 282 -16 C384 -8 432 50 454 121 L402 133 C386 76 358 37 272 37 C191 37 157 79 157 227 C157 377 188 431 271 431 C300 431 324 425 343 415 C314 406 304 382 304 358 C304 322 329 298 371 298 C414 298 440 321 440 363 C440 429 365 473 269 473 C129 473 40 377 40 226 C40 76 113 -16 255 -17 C247 -50 228 -72 189 -97 L201 -115 Z " />
<glyph glyph-name="egrave" unicode="&#xe8;" horiz-adv-x="509" d="M411 130 C396 74 364 34 282 34 C199 34 160 81 157 211 L466 211 C476 362 413 473 264 473 C137 473 40 386 40 226 C40 71 121 -20 263 -20 C370 -20 436 33 460 118 L411 130 Z M259 426 C318 426 344 372 344 270 C344 249 339 245 324 245 L157 245 C160 377 196 426 259 426 L259 426 Z M325 526 C285 573 237 631 202 658 C160 688 120 640 161 609 C195 582 263 543 317 516 L325 526 Z " />
<glyph glyph-name="eacute" unicode="&#xe9;" horiz-adv-x="509" d="M411 130 C396 74 364 34 282 34 C199 34 160 81 157 211 L466 211 C476 362 413 473 264 473 C137 473 40 386 40 226 C40 71 121 -20 263 -20 C370 -20 436 33 460 118 L411 130 Z M259 426 C318 426 344 372 344 270 C344 249 339 245 324 245 L157 245 C160 377 196 426 259 426 L259 426 Z M224 516 C278 543 345 582 380 609 C421 640 381 688 339 658 C304 631 255 573 216 526 L224 516 Z " />
<glyph glyph-name="ecircumflex" unicode="&#xea;" horiz-adv-x="509" d="M411 130 C396 74 364 34 282 34 C199 34 160 81 157 211 L466 211 C476 362 413 473 264 473 C137 473 40 386 40 226 C40 71 121 -20 263 -20 C370 -20 436 33 460 118 L411 130 Z M259 426 C318 426 344 372 344 270 C344 249 339 245 324 245 L157 245 C160 377 196 426 259 426 L259 426 Z M411 526 C385 577 325 639 290 667 L241 667 C206 637 144 576 119 526 L127 516 C162 535 233 585 264 616 C295 585 364 536 403 516 L411 526 Z " />
<glyph glyph-name="edieresis" unicode="&#xeb;" horiz-adv-x="509" d="M411 130 C396 74 364 34 282 34 C199 34 160 81 157 211 L466 211 C476 362 413 473 264 473 C137 473 40 386 40 226 C40 71 121 -20 263 -20 C370 -20 436 33 460 118 L411 130 Z M259 426 C318 426 344 372 344 270 C344 249 339 245 324 245 L157 245 C160 377 196 426 259 426 L259 426 Z M224 582 C224 612 202 636 169 636 C136 636 114 612 114 582 C114 552 136 528 169 528 C202 528 224 552 224 582 L224 582 Z M394 582 C394 612 372 636 339 636 C306 636 284 612 284 582 C284 552 306 528 339 528 C372 528 394 552 394 582 L394 582 Z " />
<glyph glyph-name="igrave" unicode="&#xec;" horiz-adv-x="310" d="M208 462 C169 459 66 459 21 459 L21 409 L40 409 C94 409 100 393 102 352 C104 311 104 159 102 108 C100 57 90 50 45 49 L21 49 L21 -3 C31 -3 108 0 156 0 C204 0 273 -3 290 -3 L290 49 L268 49 C225 49 210 57 208 109 C206 161 208 462 208 462 L208 462 Z M196 526 C156 573 108 631 73 658 C31 688 -9 640 32 609 C66 582 134 543 188 516 L196 526 Z " />
<glyph glyph-name="iacute" unicode="&#xed;" horiz-adv-x="310" d="M208 462 C169 459 66 459 21 459 L21 409 L40 409 C94 409 100 393 102 352 C104 311 104 159 102 108 C100 57 90 50 45 49 L21 49 L21 -3 C31 -3 108 0 156 0 C204 0 273 -3 290 -3 L290 49 L268 49 C225 49 210 57 208 109 C206 161 208 462 208 462 L208 462 Z M116 516 C170 543 237 582 272 609 C313 640 273 688 231 658 C196 631 147 573 108 526 L116 516 Z " />
<glyph glyph-name="icircumflex" unicode="&#xee;" horiz-adv-x="310" d="M208 462 C169 459 66 459 21 459 L21 409 L40 409 C94 409 100 393 102 352 C104 311 104 159 102 108 C100 57 90 50 45 49 L21 49 L21 -3 C31 -3 108 0 156 0 C204 0 273 -3 290 -3 L290 49 L268 49 C225 49 210 57 208 109 C206 161 208 462 208 462 L208 462 Z M281 526 C255 577 195 639 160 667 L111 667 C76 637 14 576 -11 526 L-3 516 C32 535 103 585 134 616 C165 585 234 536 273 516 L281 526 Z " />
<glyph glyph-name="idieresis" unicode="&#xef;" horiz-adv-x="310" d="M208 462 C169 459 66 459 21 459 L21 409 L40 409 C94 409 100 393 102 352 C104 311 104 159 102 108 C100 57 90 50 45 49 L21 49 L21 -3 C31 -3 108 0 156 0 C204 0 273 -3 290 -3 L290 49 L268 49 C225 49 210 57 208 109 C206 161 208 462 208 462 L208 462 Z M104 582 C104 612 82 636 49 636 C16 636 -6 612 -6 582 C-6 552 16 528 49 528 C82 528 104 552 104 582 L104 582 Z M274 582 C274 612 252 636 219 636 C186 636 164 612 164 582 C164 552 186 528 219 528 C252 528 274 552 274 582 L274 582 Z " />
<glyph glyph-name="eth" unicode="&#xf0;" horiz-adv-x="534" d="M200 521 C216 532 261 566 290 588 C318 555 335 509 345 451 C323 465 292 473 270 473 C137 473 40 394 40 223 C40 66 134 -20 266 -20 C389 -20 492 66 492 267 C492 407 446 545 345 624 L436 676 L412 712 C395 700 343 663 315 644 C273 669 223 686 165 691 L161 653 C205 647 239 633 266 612 L176 557 L200 521 Z M158 223 C158 391 207 430 269 430 C331 430 374 391 374 223 C374 59 331 23 270 23 C207 23 158 52 158 223 L158 223 Z " />
<glyph glyph-name="ntilde" unicode="&#xf1;" horiz-adv-x="620" d="M518 285 C520 395 479 473 362 473 C286 473 234 439 208 364 L208 462 C169 459 66 459 21 459 L21 409 L40 409 C94 409 100 384 102 342 C104 301 104 175 102 118 C100 67 90 50 45 49 L21 49 L21 -3 C31 -3 108 0 156 0 C204 0 273 -3 290 -3 L290 49 L268 49 C225 49 208 67 208 119 L208 187 C208 332 236 414 320 414 C387 414 409 360 412 271 C414 208 414 169 412 118 C410 67 394 49 352 49 L332 49 L332 -3 C341 -3 416 0 463 0 C510 0 578 -3 594 -3 L594 49 L579 49 C531 49 520 67 518 119 C516 171 517 207 518 285 L518 285 Z M422 659 C435 592 420 564 391 564 C364 564 350 584 326 619 C299 658 276 672 240 672 C173 672 122 629 152 530 L171 534 C158 601 172 629 201 629 C228 629 238 613 264 575 C284 545 305 521 353 521 C415 521 471 564 441 663 L422 659 Z " />
<glyph glyph-name="ograve" unicode="&#xf2;" horiz-adv-x="534" d="M40 223 C40 66 131 -20 267 -20 C400 -20 494 66 494 223 C494 394 400 473 267 473 C134 473 40 394 40 223 L40 223 Z M162 223 C162 391 204 430 266 430 C328 430 374 391 374 223 C374 52 328 23 267 23 C204 23 162 52 162 223 L162 223 Z M328 526 C288 573 240 631 205 658 C163 688 123 640 164 609 C198 582 266 543 320 516 L328 526 Z " />
<glyph glyph-name="oacute" unicode="&#xf3;" horiz-adv-x="534" d="M40 223 C40 66 131 -20 267 -20 C400 -20 494 66 494 223 C494 394 400 473 267 473 C134 473 40 394 40 223 L40 223 Z M162 223 C162 391 204 430 266 430 C328 430 374 391 374 223 C374 52 328 23 267 23 C204 23 162 52 162 223 L162 223 Z M238 516 C292 543 359 582 394 609 C435 640 395 688 353 658 C318 631 269 573 230 526 L238 516 Z " />
<glyph glyph-name="ocircumflex" unicode="&#xf4;" horiz-adv-x="534" d="M40 223 C40 66 131 -20 267 -20 C400 -20 494 66 494 223 C494 394 400 473 267 473 C134 473 40 394 40 223 L40 223 Z M162 223 C162 391 204 430 266 430 C328 430 374 391 374 223 C374 52 328 23 267 23 C204 23 162 52 162 223 L162 223 Z M413 526 C387 577 327 639 292 667 L243 667 C208 637 146 576 121 526 L129 516 C164 535 235 585 266 616 C297 585 366 536 405 516 L413 526 Z " />
<glyph glyph-name="otilde" unicode="&#xf5;" horiz-adv-x="534" d="M40 223 C40 66 131 -20 267 -20 C400 -20 494 66 494 223 C494 394 400 473 267 473 C134 473 40 394 40 223 L40 223 Z M162 223 C162 391 204 430 266 430 C328 430 374 391 374 223 C374 52 328 23 267 23 C204 23 162 52 162 223 L162 223 Z M392 659 C405 592 390 564 361 564 C334 564 320 584 296 619 C269 658 246 672 210 672 C143 672 92 629 122 530 L141 534 C128 601 142 629 171 629 C198 629 208 613 234 575 C254 545 275 521 323 521 C385 521 441 564 411 663 L392 659 Z " />
<glyph glyph-name="odieresis" unicode="&#xf6;" horiz-adv-x="534" d="M40 223 C40 66 131 -20 267 -20 C400 -20 494 66 494 223 C494 394 400 473 267 473 C134 473 40 394 40 223 L40 223 Z M162 223 C162 391 204 430 266 430 C328 430 374 391 374 223 C374 52 328 23 267 23 C204 23 162 52 162 223 L162 223 Z M237 582 C237 612 215 636 182 636 C149 636 127 612 127 582 C127 552 149 528 182 528 C215 528 237 552 237 582 L237 582 Z M407 582 C407 612 385 636 352 636 C319 636 297 612 297 582 C297 552 319 528 352 528 C385 528 407 552 407 582 L407 582 Z " />
<glyph glyph-name="divide" unicode="&#xf7;" horiz-adv-x="600" d="M358 118 C358 151 336 175 300 175 C267 175 241 152 241 119 C241 81 266 63 300 63 C335 63 358 84 358 118 L358 118 Z M97 222 C139 223 249 226 300 236 C350 226 461 223 503 222 L503 279 C461 279 351 275 300 265 C250 275 139 279 97 279 L97 222 Z M358 381 C358 414 336 438 300 438 C267 438 241 415 241 382 C241 344 266 326 300 326 C335 326 358 347 358 381 L358 381 Z " />
<glyph glyph-name="oslash" unicode="&#xf8;" horiz-adv-x="534" d="M40 223 C40 146 62 85 100 44 L99 43 L47 -29 L64 -43 L123 19 L125 22 C163 -5 211 -20 267 -20 C400 -20 494 66 494 223 C494 306 472 367 434 408 L488 488 L472 501 L408 431 C370 459 322 473 267 473 C134 473 40 394 40 223 L40 223 Z M374 223 C374 52 328 23 267 23 C226 23 194 35 176 90 L275 221 L366 326 C371 299 374 265 374 223 L374 223 Z M162 223 C162 391 204 430 266 430 C304 430 337 415 356 363 L261 236 L168 126 C164 151 162 183 162 223 L162 223 Z " />
<glyph glyph-name="ugrave" unicode="&#xf9;" horiz-adv-x="620" d="M521 462 C499 459 467 459 431 459 L319 459 L319 409 L334 409 C392 409 412 394 412 349 L412 245 C412 102 375 39 300 39 C272 39 208 51 208 177 L208 325 C208 369 208 409 211 462 C191 460 151 459 113 459 L21 459 L21 409 L41 409 C89 409 100 390 102 349 C104 304 103 230 102 173 C99 23 179 -20 257 -20 C342 -20 388 24 412 91 L412 -3 C451 0 554 0 599 0 L599 50 L577 50 C536 49 519 71 518 107 C517 159 516 279 517 325 C518 359 518 416 521 462 L521 462 Z M341 526 C301 573 253 631 218 658 C176 688 136 640 177 609 C211 582 279 543 333 516 L341 526 Z " />
<glyph glyph-name="uacute" unicode="&#xfa;" horiz-adv-x="620" d="M521 462 C499 459 467 459 431 459 L319 459 L319 409 L334 409 C392 409 412 394 412 349 L412 245 C412 102 375 39 300 39 C272 39 208 51 208 177 L208 325 C208 369 208 409 211 462 C191 460 151 459 113 459 L21 459 L21 409 L41 409 C89 409 100 390 102 349 C104 304 103 230 102 173 C99 23 179 -20 257 -20 C342 -20 388 24 412 91 L412 -3 C451 0 554 0 599 0 L599 50 L577 50 C536 49 519 71 518 107 C517 159 516 279 517 325 C518 359 518 416 521 462 L521 462 Z M281 516 C335 543 402 582 437 609 C478 640 438 688 396 658 C361 631 312 573 273 526 L281 516 Z " />
<glyph glyph-name="ucircumflex" unicode="&#xfb;" horiz-adv-x="620" d="M521 462 C499 459 467 459 431 459 L319 459 L319 409 L334 409 C392 409 412 394 412 349 L412 245 C412 102 375 39 300 39 C272 39 208 51 208 177 L208 325 C208 369 208 409 211 462 C191 460 151 459 113 459 L21 459 L21 409 L41 409 C89 409 100 390 102 349 C104 304 103 230 102 173 C99 23 179 -20 257 -20 C342 -20 388 24 412 91 L412 -3 C451 0 554 0 599 0 L599 50 L577 50 C536 49 519 71 518 107 C517 159 516 279 517 325 C518 359 518 416 521 462 L521 462 Z M436 526 C410 577 350 639 315 667 L266 667 C231 637 169 576 144 526 L152 516 C187 535 258 585 289 616 C320 585 389 536 428 516 L436 526 Z " />
<glyph glyph-name="udieresis" unicode="&#xfc;" horiz-adv-x="620" d="M521 462 C499 459 467 459 431 459 L319 459 L319 409 L334 409 C392 409 412 394 412 349 L412 245 C412 102 375 39 300 39 C272 39 208 51 208 177 L208 325 C208 369 208 409 211 462 C191 460 151 459 113 459 L21 459 L21 409 L41 409 C89 409 100 390 102 349 C104 304 103 230 102 173 C99 23 179 -20 257 -20 C342 -20 388 24 412 91 L412 -3 C451 0 554 0 599 0 L599 50 L577 50 C536 49 519 71 518 107 C517 159 516 279 517 325 C518 359 518 416 521 462 L521 462 Z M260 582 C260 612 238 636 205 636 C172 636 150 612 150 582 C150 552 172 528 205 528 C238 528 260 552 260 582 L260 582 Z M430 582 C430 612 408 636 375 636 C342 636 320 612 320 582 C320 552 342 528 375 528 C408 528 430 552 430 582 L430 582 Z " />
<glyph glyph-name="yacute" unicode="&#xfd;" horiz-adv-x="571" d="M389 355 C383 335 339 213 308 126 C278 197 238 301 221 355 C210 390 220 409 258 409 L279 409 L279 459 C279 459 212 456 144 456 C77 456 10 459 10 459 L10 409 L25 409 C62 409 84 395 102 354 C136 276 203 109 230 32 L275 32 C228 -121 172 -158 110 -158 C95 -158 83 -156 74 -154 C116 -149 135 -118 135 -89 C135 -49 111 -30 70 -30 C40 -30 2 -50 2 -105 C2 -150 33 -191 106 -191 C212 -191 258 -119 296 -17 C329 71 402 264 441 353 C458 390 477 409 530 409 L551 409 L551 459 C551 459 500 456 447 456 C389 456 329 459 329 459 L329 409 L351 409 C386 409 398 386 389 355 L389 355 Z M307 516 C361 543 428 582 463 609 C504 640 464 688 422 658 C387 631 338 573 299 526 L307 516 Z " />
<glyph glyph-name="thorn" unicode="&#xfe;" horiz-adv-x="584" d="M353 -17 C472 -17 534 68 534 228 C534 388 482 473 363 473 C285 473 234 437 208 364 L208 693 C169 690 66 690 21 690 L21 640 L38 640 C87 640 100 623 102 572 C104 521 104 -14 102 -58 C100 -102 84 -127 44 -127 L21 -127 L21 -177 C31 -177 109 -174 158 -174 C207 -174 278 -177 295 -177 L295 -127 L274 -127 C226 -127 208 -101 208 -58 L208 79 C233 16 280 -17 353 -17 L353 -17 Z M208 228 C208 345 249 414 320 414 C409 414 417 324 417 228 C417 76 387 43 318 43 C226 43 208 128 208 228 L208 228 Z " />
<glyph glyph-name="ydieresis" unicode="&#xff;" horiz-adv-x="571" d="M389 355 C383 335 339 213 308 126 C278 197 238 301 221 355 C210 390 220 409 258 409 L279 409 L279 459 C279 459 212 456 144 456 C77 456 10 459 10 459 L10 409 L25 409 C62 409 84 395 102 354 C136 276 203 109 230 32 L275 32 C228 -121 172 -158 110 -158 C95 -158 83 -156 74 -154 C116 -149 135 -118 135 -89 C135 -49 111 -30 70 -30 C40 -30 2 -50 2 -105 C2 -150 33 -191 106 -191 C212 -191 258 -119 296 -17 C329 71 402 264 441 353 C458 390 477 409 530 409 L551 409 L551 459 C551 459 500 456 447 456 C389 456 329 459 329 459 L329 409 L351 409 C386 409 398 386 389 355 L389 355 Z M276 582 C276 612 254 636 221 636 C188 636 166 612 166 582 C166 552 188 528 221 528 C254 528 276 552 276 582 L276 582 Z M446 582 C446 612 424 636 391 636 C358 636 336 612 336 582 C336 552 358 528 391 528 C424 528 446 552 446 582 L446 582 Z " />
<glyph glyph-name="Amacron" unicode="&#x100;" horiz-adv-x="882" d="M574 155 C597 93 580 59 532 59 L488 59 L487 -2 C487 -2 602 0 666 0 C730 0 844 -2 844 -2 L844 59 L799 59 C758 59 738 82 712 141 C686 200 535 578 495 696 C495 696 459 693 439 693 C419 693 382 696 382 696 C340 579 202 203 178 142 C154 81 131 59 75 59 L38 59 L38 -2 C38 -2 137 0 192 0 C247 0 346 -2 346 -2 L347 59 L304 59 C239 59 233 97 250 153 C253 164 261 187 271 215 C347 217 479 217 552 215 L574 155 Z M533 267 C464 266 360 266 289 267 C327 374 381 523 409 594 C438 523 494 374 533 267 L533 267 Z M317 763 C378 765 512 765 573 763 C572 784 572 804 573 825 C512 823 378 823 317 825 C318 804 318 783 317 763 L317 763 Z " />
<glyph glyph-name="amacron" unicode="&#x101;" horiz-adv-x="527" d="M413 288 C413 396 376 473 233 473 C141 473 46 437 46 365 C46 320 73 298 114 298 C156 298 181 321 181 359 C181 390 163 411 131 417 C148 425 170 430 201 431 C290 432 308 389 308 297 L308 266 C174 257 30 224 30 107 C30 32 72 -13 166 -13 C238 -13 283 27 309 77 C314 25 342 -14 411 -14 C491 -14 509 46 506 157 L467 154 C470 79 459 41 437 41 C424 41 413 48 413 92 L413 288 Z M211 43 C173 43 149 66 149 112 C149 191 212 229 308 240 L308 185 C308 87 271 43 211 43 L211 43 Z M104 537 C165 539 299 539 360 537 C359 558 359 578 360 599 C299 597 165 597 104 599 C105 578 105 557 104 537 L104 537 Z " />
<glyph glyph-name="Abreve" unicode="&#x102;" horiz-adv-x="882" d="M574 155 C597 93 580 59 532 59 L488 59 L487 -2 C487 -2 602 0 666 0 C730 0 844 -2 844 -2 L844 59 L799 59 C758 59 738 82 712 141 C686 200 535 578 495 696 C495 696 459 693 439 693 C419 693 382 696 382 696 C340 579 202 203 178 142 C154 81 131 59 75 59 L38 59 L38 -2 C38 -2 137 0 192 0 C247 0 346 -2 346 -2 L347 59 L304 59 C239 59 233 97 250 153 C253 164 261 187 271 215 C347 217 479 217 552 215 L574 155 Z M533 267 C464 266 360 266 289 267 C327 374 381 523 409 594 C438 523 494 374 533 267 L533 267 Z M441 751 C538 751 589 816 578 896 L564 898 C560 832 510 820 441 820 C372 820 322 832 318 898 L304 896 C293 816 344 751 441 751 L441 751 Z " />
<glyph glyph-name="abreve" unicode="&#x103;" horiz-adv-x="527" d="M413 288 C413 396 376 473 233 473 C141 473 46 437 46 365 C46 320 73 298 114 298 C156 298 181 321 181 359 C181 390 163 411 131 417 C148 425 170 430 201 431 C290 432 308 389 308 297 L308 266 C174 257 30 224 30 107 C30 32 72 -13 166 -13 C238 -13 283 27 309 77 C314 25 342 -14 411 -14 C491 -14 509 46 506 157 L467 154 C470 79 459 41 437 41 C424 41 413 48 413 92 L413 288 Z M211 43 C173 43 149 66 149 112 C149 191 212 229 308 240 L308 185 C308 87 271 43 211 43 L211 43 Z M238 526 C335 526 386 591 375 671 L361 673 C357 607 307 595 238 595 C169 595 119 607 115 673 L101 671 C90 591 141 526 238 526 L238 526 Z " />
<glyph glyph-name="Aogonek" unicode="&#x104;" horiz-adv-x="882" d="M801 -84 L776 -80 C770 -124 747 -151 708 -151 C677 -151 649 -133 649 -93 C649 -53 674 -21 711 0 C772 0 844 -2 844 -2 L844 59 L799 59 C758 59 738 82 712 141 C686 200 535 578 495 696 C495 696 459 693 439 693 C419 693 382 696 382 696 C340 579 202 203 178 142 C154 81 131 59 75 59 L38 59 L38 -2 C38 -2 137 0 192 0 C247 0 346 -2 346 -2 L347 59 L304 59 C239 59 233 97 250 153 C253 164 261 187 271 215 C347 217 479 217 552 215 L574 155 C597 93 580 59 532 59 L488 59 L487 -2 C487 -2 602 0 666 0 C618 -25 582 -59 580 -114 C578 -171 623 -206 683 -206 C758 -206 797 -168 801 -84 L801 -84 Z M533 267 C464 266 360 266 289 267 C327 374 381 523 409 594 C438 523 494 374 533 267 L533 267 Z " />
<glyph glyph-name="aogonek" unicode="&#x105;" horiz-adv-x="527" d="M581 -84 L556 -80 C546 -124 522 -151 483 -151 C452 -151 426 -133 426 -93 C426 -55 448 -35 475 6 C501 46 508 81 506 157 L467 154 C470 79 459 41 437 41 C424 41 413 48 413 92 L413 288 C413 396 376 473 233 473 C141 473 46 437 46 365 C46 320 73 298 114 298 C156 298 181 321 181 359 C181 390 163 411 131 417 C148 425 170 430 201 431 C290 432 308 389 308 297 L308 266 C174 257 30 224 30 107 C30 32 72 -13 166 -13 C238 -13 283 27 309 77 C314 25 342 -14 411 -14 C418 -14 425 -14 430 -13 C390 -35 362 -69 359 -114 C356 -171 396 -206 456 -206 C532 -206 575 -163 581 -84 L581 -84 Z M211 43 C173 43 149 66 149 112 C149 191 212 229 308 240 L308 185 C308 87 271 43 211 43 L211 43 Z " />
<glyph glyph-name="Cacute" unicode="&#x106;" horiz-adv-x="735" d="M552 669 C531 680 481 710 387 710 C199 710 50 603 50 346 C50 83 182 -20 387 -20 C590 -20 669 79 682 268 C665 266 630 266 613 268 C605 129 532 35 388 35 C276 35 192 96 192 346 C192 559 252 655 396 655 C551 655 584 558 603 447 C623 449 649 449 669 447 C664 527 675 649 684 700 L624 700 C618 648 606 640 552 669 L552 669 Z M378 746 C432 773 499 812 534 839 C575 870 535 918 493 888 C458 861 409 803 370 756 L378 746 Z " />
<glyph glyph-name="cacute" unicode="&#x107;" horiz-adv-x="487" d="M402 133 C386 76 358 37 272 37 C191 37 157 79 157 227 C157 377 188 431 271 431 C300 431 324 425 343 415 C314 406 304 382 304 358 C304 322 329 298 371 298 C414 298 440 321 440 363 C440 429 365 473 269 473 C129 473 40 377 40 226 C40 75 114 -17 258 -17 C377 -17 431 45 454 121 L402 133 Z M258 516 C312 543 379 582 414 609 C455 640 415 688 373 658 C338 631 289 573 250 526 L258 516 Z " />
<glyph glyph-name="Ccircumflex" unicode="&#x108;" horiz-adv-x="735" d="M552 669 C531 680 481 710 387 710 C199 710 50 603 50 346 C50 83 182 -20 387 -20 C590 -20 669 79 682 268 C665 266 630 266 613 268 C605 129 532 35 388 35 C276 35 192 96 192 346 C192 559 252 655 396 655 C551 655 584 558 603 447 C623 449 649 449 669 447 C664 527 675 649 684 700 L624 700 C618 648 606 640 552 669 L552 669 Z M533 746 C507 797 447 859 412 887 L363 887 C328 857 266 796 241 746 L249 736 C284 755 355 805 386 836 C417 805 486 756 525 736 L533 746 Z " />
<glyph glyph-name="ccircumflex" unicode="&#x109;" horiz-adv-x="487" d="M402 133 C386 76 358 37 272 37 C191 37 157 79 157 227 C157 377 188 431 271 431 C300 431 324 425 343 415 C314 406 304 382 304 358 C304 322 329 298 371 298 C414 298 440 321 440 363 C440 429 365 473 269 473 C129 473 40 377 40 226 C40 75 114 -17 258 -17 C377 -17 431 45 454 121 L402 133 Z M423 526 C397 577 337 639 302 667 L253 667 C218 637 156 576 131 526 L139 516 C174 535 245 585 276 616 C307 585 376 536 415 516 L423 526 Z " />
<glyph glyph-name="Cdotaccent" unicode="&#x10a;" horiz-adv-x="735" d="M552 669 C531 680 481 710 387 710 C199 710 50 603 50 346 C50 83 182 -20 387 -20 C590 -20 669 79 682 268 C665 266 630 266 613 268 C605 129 532 35 388 35 C276 35 192 96 192 346 C192 559 252 655 396 655 C551 655 584 558 603 447 C623 449 649 449 669 447 C664 527 675 649 684 700 L624 700 C618 648 606 640 552 669 L552 669 Z M441 831 C441 861 417 885 387 885 C358 885 334 861 334 831 C334 801 358 777 387 777 C417 777 441 801 441 831 L441 831 Z " />
<glyph glyph-name="cdotaccent" unicode="&#x10b;" horiz-adv-x="487" d="M402 133 C386 76 358 37 272 37 C191 37 157 79 157 227 C157 377 188 431 271 431 C300 431 324 425 343 415 C314 406 304 382 304 358 C304 322 329 298 371 298 C414 298 440 321 440 363 C440 429 365 473 269 473 C129 473 40 377 40 226 C40 75 114 -17 258 -17 C377 -17 431 45 454 121 L402 133 Z M321 601 C321 631 297 655 267 655 C238 655 214 631 214 601 C214 571 238 547 267 547 C297 547 321 571 321 601 L321 601 Z " />
<glyph glyph-name="Ccaron" unicode="&#x10c;" horiz-adv-x="735" d="M552 669 C531 680 481 710 387 710 C199 710 50 603 50 346 C50 83 182 -20 387 -20 C590 -20 669 79 682 268 C665 266 630 266 613 268 C605 129 532 35 388 35 C276 35 192 96 192 346 C192 559 252 655 396 655 C551 655 584 558 603 447 C623 449 649 449 669 447 C664 527 675 649 684 700 L624 700 C618 648 606 640 552 669 L552 669 Z M241 897 C267 846 327 784 362 756 L411 756 C446 786 508 847 533 897 L525 907 C490 888 419 838 388 807 C357 838 288 887 249 907 L241 897 Z " />
<glyph glyph-name="ccaron" unicode="&#x10d;" horiz-adv-x="487" d="M402 133 C386 76 358 37 272 37 C191 37 157 79 157 227 C157 377 188 431 271 431 C300 431 324 425 343 415 C314 406 304 382 304 358 C304 322 329 298 371 298 C414 298 440 321 440 363 C440 429 365 473 269 473 C129 473 40 377 40 226 C40 75 114 -17 258 -17 C377 -17 431 45 454 121 L402 133 Z M131 667 C157 616 217 554 252 526 L301 526 C336 556 398 617 423 667 L415 677 C380 658 309 608 278 577 C247 608 178 657 139 677 L131 667 Z " />
<glyph glyph-name="Dcaron" unicode="&#x10e;" horiz-adv-x="781" d="M384 689 C384 689 260 688 215 688 C167 688 54 690 38 690 L38 631 L102 631 C138 631 152 621 154 582 C157 522 157 172 154 100 C153 65 141 59 95 59 L38 59 L38 -2 C38 -2 167 0 211 0 L384 0 C579 0 735 90 732 350 C729 583 624 689 384 689 L384 689 Z M275 101 C272 172 270 522 275 594 C277 620 289 639 321 639 L372 639 C544 639 598 563 598 351 C598 114 533 50 371 50 L321 50 C299 50 277 64 275 101 L275 101 Z M219 897 C245 846 305 784 340 756 L389 756 C424 786 486 847 511 897 L503 907 C468 888 397 838 366 807 C335 838 266 887 227 907 L219 897 Z " />
<glyph glyph-name="dcaron" unicode="&#x10f;" horiz-adv-x="699" d="M231 473 C120 473 50 398 50 228 C50 58 107 -17 226 -17 C297 -17 349 18 376 90 L376 -3 L563 0 L563 50 L526 50 C498 50 483 65 482 97 C480 174 480 568 482 693 C443 690 329 690 284 690 L284 640 L332 640 C360 640 376 625 376 593 L376 375 C351 441 304 473 231 473 L231 473 Z M376 228 C376 114 337 42 264 42 C175 42 167 132 167 228 C167 380 200 414 269 414 C354 414 376 332 376 228 L376 228 Z M537 521 L543 501 C632 524 671 582 671 648 C671 687 655 718 613 718 C579 718 556 694 556 664 C556 631 572 616 599 616 C621 616 638 627 645 645 C647 581 607 540 537 521 L537 521 Z " />
<glyph glyph-name="Dcroat" unicode="&#x110;" horiz-adv-x="781" d="M384 689 C384 689 260 688 215 688 C167 688 54 690 38 690 L38 631 L102 631 C138 631 152 621 154 582 C155 556 156 473 156 384 C120 384 88 385 69 386 L69 326 C88 326 120 327 156 327 C156 230 155 134 154 100 C153 65 141 59 95 59 L38 59 L38 -2 C38 -2 167 0 211 0 L384 0 C579 0 735 90 732 350 C729 583 624 689 384 689 L384 689 Z M275 101 C273 134 272 229 272 327 C319 327 362 327 385 326 L385 386 C362 385 319 384 272 384 C272 476 273 562 275 594 C277 620 289 639 321 639 L372 639 C544 639 598 563 598 351 C598 114 533 50 371 50 L321 50 C299 50 277 64 275 101 L275 101 Z " />
<glyph glyph-name="dcroat" unicode="&#x111;" horiz-adv-x="584" d="M292 522 C312 522 342 523 376 523 L376 375 C351 441 304 473 231 473 C120 473 50 398 50 228 C50 58 107 -17 226 -17 C297 -17 349 18 376 90 L376 -3 L563 0 L563 50 L526 50 C498 50 483 65 482 97 C480 151 480 360 480 523 C514 523 544 522 565 522 L565 568 C544 567 514 566 480 566 C480 617 481 664 482 693 C443 690 329 690 284 690 L284 640 L332 640 C360 640 376 625 376 593 L376 566 C342 566 312 567 292 568 L292 522 Z M376 228 C376 114 337 42 264 42 C175 42 167 132 167 228 C167 380 200 414 269 414 C354 414 376 332 376 228 L376 228 Z " />
<glyph glyph-name="Emacron" unicode="&#x112;" horiz-adv-x="732" d="M452 491 C452 401 410 375 323 375 L273 375 C273 467 274 554 276 581 C278 609 290 628 323 628 L473 628 C593 628 629 589 629 444 L683 444 C682 516 683 622 689 695 C642 689 525 689 482 689 C342 689 232 688 213 688 C194 688 54 690 38 690 L38 631 L101 631 C137 631 150 620 153 581 C157 522 157 174 153 119 C150 84 140 59 94 59 L38 59 L38 -2 C38 -2 161 0 208 0 L495 0 C538 0 636 0 683 -4 C683 82 686 190 693 264 L632 264 C632 122 596 59 471 59 L328 59 C300 59 278 73 276 111 C274 140 273 232 273 327 L320 327 C417 327 452 290 454 204 L454 192 L507 192 C504 243 504 278 504 352 C504 425 506 448 507 506 L452 506 L452 491 Z M271 763 C332 765 466 765 527 763 C526 784 526 804 527 825 C466 823 332 823 271 825 C272 804 272 783 271 763 L271 763 Z " />
<glyph glyph-name="emacron" unicode="&#x113;" horiz-adv-x="509" d="M411 130 C396 74 364 34 282 34 C199 34 160 81 157 211 L466 211 C476 362 413 473 264 473 C137 473 40 386 40 226 C40 71 121 -20 263 -20 C370 -20 436 33 460 118 L411 130 Z M259 426 C318 426 344 372 344 270 C344 249 339 245 324 245 L157 245 C160 377 196 426 259 426 L259 426 Z M139 537 C200 539 334 539 395 537 C394 558 394 578 395 599 C334 597 200 597 139 599 C140 578 140 557 139 537 L139 537 Z " />
<glyph glyph-name="Ebreve" unicode="&#x114;" horiz-adv-x="732" d="M452 491 C452 401 410 375 323 375 L273 375 C273 467 274 554 276 581 C278 609 290 628 323 628 L473 628 C593 628 629 589 629 444 L683 444 C682 516 683 622 689 695 C642 689 525 689 482 689 C342 689 232 688 213 688 C194 688 54 690 38 690 L38 631 L101 631 C137 631 150 620 153 581 C157 522 157 174 153 119 C150 84 140 59 94 59 L38 59 L38 -2 C38 -2 161 0 208 0 L495 0 C538 0 636 0 683 -4 C683 82 686 190 693 264 L632 264 C632 122 596 59 471 59 L328 59 C300 59 278 73 276 111 C274 140 273 232 273 327 L320 327 C417 327 452 290 454 204 L454 192 L507 192 C504 243 504 278 504 352 C504 425 506 448 507 506 L452 506 L452 491 Z M406 751 C503 751 554 816 543 896 L529 898 C525 832 475 820 406 820 C337 820 287 832 283 898 L269 896 C258 816 309 751 406 751 L406 751 Z " />
<glyph glyph-name="ebreve" unicode="&#x115;" horiz-adv-x="509" d="M411 130 C396 74 364 34 282 34 C199 34 160 81 157 211 L466 211 C476 362 413 473 264 473 C137 473 40 386 40 226 C40 71 121 -20 263 -20 C370 -20 436 33 460 118 L411 130 Z M259 426 C318 426 344 372 344 270 C344 249 339 245 324 245 L157 245 C160 377 196 426 259 426 L259 426 Z M265 526 C362 526 413 591 402 671 L388 673 C384 607 334 595 265 595 C196 595 146 607 142 673 L128 671 C117 591 168 526 265 526 L265 526 Z " />
<glyph glyph-name="Edotaccent" unicode="&#x116;" horiz-adv-x="732" d="M452 491 C452 401 410 375 323 375 L273 375 C273 467 274 554 276 581 C278 609 290 628 323 628 L473 628 C593 628 629 589 629 444 L683 444 C682 516 683 622 689 695 C642 689 525 689 482 689 C342 689 232 688 213 688 C194 688 54 690 38 690 L38 631 L101 631 C137 631 150 620 153 581 C157 522 157 174 153 119 C150 84 140 59 94 59 L38 59 L38 -2 C38 -2 161 0 208 0 L495 0 C538 0 636 0 683 -4 C683 82 686 190 693 264 L632 264 C632 122 596 59 471 59 L328 59 C300 59 278 73 276 111 C274 140 273 232 273 327 L320 327 C417 327 452 290 454 204 L454 192 L507 192 C504 243 504 278 504 352 C504 425 506 448 507 506 L452 506 L452 491 Z M449 831 C449 861 425 885 395 885 C366 885 342 861 342 831 C342 801 366 777 395 777 C425 777 449 801 449 831 L449 831 Z " />
<glyph glyph-name="edotaccent" unicode="&#x117;" horiz-adv-x="509" d="M411 130 C396 74 364 34 282 34 C199 34 160 81 157 211 L466 211 C476 362 413 473 264 473 C137 473 40 386 40 226 C40 71 121 -20 263 -20 C370 -20 436 33 460 118 L411 130 Z M259 426 C318 426 344 372 344 270 C344 249 339 245 324 245 L157 245 C160 377 196 426 259 426 L259 426 Z M318 601 C318 631 294 655 264 655 C235 655 211 631 211 601 C211 571 235 547 264 547 C294 547 318 571 318 601 L318 601 Z " />
<glyph glyph-name="Eogonek" unicode="&#x118;" horiz-adv-x="732" d="M710 -84 L685 -80 C679 -124 656 -151 617 -151 C586 -151 558 -133 558 -93 C558 -53 582 -22 619 -1 C643 -1 666 -2 683 -4 C683 82 686 190 693 264 L632 264 C632 122 596 59 471 59 L328 59 C300 59 278 73 276 111 C274 140 273 232 273 327 L320 327 C417 327 452 290 454 204 L454 192 L507 192 C504 243 504 278 504 352 C504 425 506 448 507 506 L452 506 L452 491 C452 401 410 375 323 375 L273 375 C273 467 274 554 276 581 C278 609 290 628 323 628 L473 628 C593 628 629 589 629 444 L683 444 C682 516 683 622 689 695 C642 689 525 689 482 689 C342 689 232 688 213 688 C194 688 54 690 38 690 L38 631 L101 631 C137 631 150 620 153 581 C157 522 157 174 153 119 C150 84 140 59 94 59 L38 59 L38 -2 C38 -2 161 0 208 0 L574 0 C527 -25 491 -60 489 -114 C487 -171 532 -206 592 -206 C667 -206 706 -168 710 -84 L710 -84 Z " />
<glyph glyph-name="eogonek" unicode="&#x119;" horiz-adv-x="509" d="M482 -84 L457 -80 C447 -124 423 -151 384 -151 C353 -151 327 -133 327 -93 C327 -55 347 -28 381 4 C417 38 446 69 460 118 L411 130 C396 74 364 34 282 34 C199 34 160 81 157 211 L466 211 C476 362 413 473 264 473 C137 473 40 386 40 226 C40 71 121 -20 263 -20 C290 -20 314 -17 332 -13 C283 -42 262 -78 260 -114 C257 -171 297 -206 357 -206 C433 -206 476 -163 482 -84 L482 -84 Z M259 426 C318 426 344 372 344 270 C344 249 339 245 324 245 L157 245 C160 377 196 426 259 426 L259 426 Z " />
<glyph glyph-name="Ecaron" unicode="&#x11a;" horiz-adv-x="732" d="M452 491 C452 401 410 375 323 375 L273 375 C273 467 274 554 276 581 C278 609 290 628 323 628 L473 628 C593 628 629 589 629 444 L683 444 C682 516 683 622 689 695 C642 689 525 689 482 689 C342 689 232 688 213 688 C194 688 54 690 38 690 L38 631 L101 631 C137 631 150 620 153 581 C157 522 157 174 153 119 C150 84 140 59 94 59 L38 59 L38 -2 C38 -2 161 0 208 0 L495 0 C538 0 636 0 683 -4 C683 82 686 190 693 264 L632 264 C632 122 596 59 471 59 L328 59 C300 59 278 73 276 111 C274 140 273 232 273 327 L320 327 C417 327 452 290 454 204 L454 192 L507 192 C504 243 504 278 504 352 C504 425 506 448 507 506 L452 506 L452 491 Z M239 897 C265 846 325 784 360 756 L409 756 C444 786 506 847 531 897 L523 907 C488 888 417 838 386 807 C355 838 286 887 247 907 L239 897 Z " />
<glyph glyph-name="ecaron" unicode="&#x11b;" horiz-adv-x="509" d="M411 130 C396 74 364 34 282 34 C199 34 160 81 157 211 L466 211 C476 362 413 473 264 473 C137 473 40 386 40 226 C40 71 121 -20 263 -20 C370 -20 436 33 460 118 L411 130 Z M259 426 C318 426 344 372 344 270 C344 249 339 245 324 245 L157 245 C160 377 196 426 259 426 L259 426 Z M118 667 C144 616 204 554 239 526 L288 526 C323 556 385 617 410 667 L402 677 C367 658 296 608 265 577 C234 608 165 657 126 677 L118 667 Z " />
<glyph glyph-name="Gcircumflex" unicode="&#x11c;" horiz-adv-x="802" d="M388 710 C200 710 50 603 50 346 C50 83 184 -20 386 -20 C489 -20 573 35 609 105 C620 66 632 18 637 -7 C653 -5 688 -5 704 -7 C698 66 698 195 698 248 C698 286 709 301 738 301 L772 301 L772 358 C772 358 673 355 618 355 C563 355 464 358 464 358 L464 301 L507 301 C563 301 571 273 571 208 C571 88 491 35 388 35 C280 35 192 96 192 346 C192 559 252 655 396 655 C551 655 584 558 603 447 C623 449 649 449 669 447 C664 527 675 649 684 700 L624 700 C618 648 606 640 552 669 C487 703 442 710 388 710 L388 710 Z M527 745 C501 796 441 858 406 886 L357 886 C322 856 260 795 235 745 L243 735 C278 754 349 804 380 835 C411 804 480 755 519 735 L527 745 Z " />
<glyph glyph-name="gcircumflex" unicode="&#x11d;" horiz-adv-x="510" d="M214 473 C119 473 26 419 26 305 C26 220 69 166 134 143 C88 133 48 108 48 62 C48 28 64 2 111 -13 C56 -26 10 -56 10 -100 C10 -164 79 -207 236 -207 C404 -207 479 -127 479 -55 C479 24 434 67 263 71 C132 74 125 91 125 107 C125 124 149 132 198 131 L214 131 C317 131 405 190 405 305 C405 364 388 407 354 434 C362 466 380 492 413 494 C402 484 396 469 396 452 C396 421 417 402 451 402 C485 402 505 425 505 463 C505 510 475 539 425 539 C371 539 340 497 329 450 C299 465 261 473 214 473 L214 473 Z M235 -30 C383 -33 418 -58 418 -91 C418 -132 366 -158 235 -158 C120 -158 83 -124 83 -88 C83 -46 135 -31 178 -26 C195 -28 214 -29 235 -30 L235 -30 Z M216 430 C273 430 295 396 295 303 C295 212 277 174 216 174 C157 174 136 210 136 303 C136 392 159 430 216 430 L216 430 Z M358 526 C332 577 272 639 237 667 L188 667 C153 637 91 576 66 526 L74 516 C109 535 180 585 211 616 C242 585 311 536 350 516 L358 526 Z " />
<glyph glyph-name="Gbreve" unicode="&#x11e;" horiz-adv-x="802" d="M388 710 C200 710 50 603 50 346 C50 83 184 -20 386 -20 C489 -20 573 35 609 105 C620 66 632 18 637 -7 C653 -5 688 -5 704 -7 C698 66 698 195 698 248 C698 286 709 301 738 301 L772 301 L772 358 C772 358 673 355 618 355 C563 355 464 358 464 358 L464 301 L507 301 C563 301 571 273 571 208 C571 88 491 35 388 35 C280 35 192 96 192 346 C192 559 252 655 396 655 C551 655 584 558 603 447 C623 449 649 449 669 447 C664 527 675 649 684 700 L624 700 C618 648 606 640 552 669 C487 703 442 710 388 710 L388 710 Z M381 751 C478 751 529 816 518 896 L504 898 C500 832 450 820 381 820 C312 820 262 832 258 898 L244 896 C233 816 284 751 381 751 L381 751 Z " />
<glyph glyph-name="gbreve" unicode="&#x11f;" horiz-adv-x="510" d="M214 473 C119 473 26 419 26 305 C26 220 69 166 134 143 C88 133 48 108 48 62 C48 28 64 2 111 -13 C56 -26 10 -56 10 -100 C10 -164 79 -207 236 -207 C404 -207 479 -127 479 -55 C479 24 434 67 263 71 C132 74 125 91 125 107 C125 124 149 132 198 131 L214 131 C317 131 405 190 405 305 C405 364 388 407 354 434 C362 466 380 492 413 494 C402 484 396 469 396 452 C396 421 417 402 451 402 C485 402 505 425 505 463 C505 510 475 539 425 539 C371 539 340 497 329 450 C299 465 261 473 214 473 L214 473 Z M235 -30 C383 -33 418 -58 418 -91 C418 -132 366 -158 235 -158 C120 -158 83 -124 83 -88 C83 -46 135 -31 178 -26 C195 -28 214 -29 235 -30 L235 -30 Z M216 430 C273 430 295 396 295 303 C295 212 277 174 216 174 C157 174 136 210 136 303 C136 392 159 430 216 430 L216 430 Z M209 526 C306 526 357 591 346 671 L332 673 C328 607 278 595 209 595 C140 595 90 607 86 673 L72 671 C61 591 112 526 209 526 L209 526 Z " />
<glyph glyph-name="Gdotaccent" unicode="&#x120;" horiz-adv-x="802" d="M388 710 C200 710 50 603 50 346 C50 83 184 -20 386 -20 C489 -20 573 35 609 105 C620 66 632 18 637 -7 C653 -5 688 -5 704 -7 C698 66 698 195 698 248 C698 286 709 301 738 301 L772 301 L772 358 C772 358 673 355 618 355 C563 355 464 358 464 358 L464 301 L507 301 C563 301 571 273 571 208 C571 88 491 35 388 35 C280 35 192 96 192 346 C192 559 252 655 396 655 C551 655 584 558 603 447 C623 449 649 449 669 447 C664 527 675 649 684 700 L624 700 C618 648 606 640 552 669 C487 703 442 710 388 710 L388 710 Z M435 831 C435 861 411 885 381 885 C352 885 328 861 328 831 C328 801 352 777 381 777 C411 777 435 801 435 831 L435 831 Z " />
<glyph glyph-name="gdotaccent" unicode="&#x121;" horiz-adv-x="510" d="M214 473 C119 473 26 419 26 305 C26 220 69 166 134 143 C88 133 48 108 48 62 C48 28 64 2 111 -13 C56 -26 10 -56 10 -100 C10 -164 79 -207 236 -207 C404 -207 479 -127 479 -55 C479 24 434 67 263 71 C132 74 125 91 125 107 C125 124 149 132 198 131 L214 131 C317 131 405 190 405 305 C405 364 388 407 354 434 C362 466 380 492 413 494 C402 484 396 469 396 452 C396 421 417 402 451 402 C485 402 505 425 505 463 C505 510 475 539 425 539 C371 539 340 497 329 450 C299 465 261 473 214 473 L214 473 Z M235 -30 C383 -33 418 -58 418 -91 C418 -132 366 -158 235 -158 C120 -158 83 -124 83 -88 C83 -46 135 -31 178 -26 C195 -28 214 -29 235 -30 L235 -30 Z M216 430 C273 430 295 396 295 303 C295 212 277 174 216 174 C157 174 136 210 136 303 C136 392 159 430 216 430 L216 430 Z M280 601 C280 631 256 655 226 655 C197 655 173 631 173 601 C173 571 197 547 226 547 C256 547 280 571 280 601 L280 601 Z " />
<glyph glyph-name="Gcommaaccent" unicode="&#x122;" horiz-adv-x="802" d="M388 710 C200 710 50 603 50 346 C50 83 184 -20 386 -20 C489 -20 573 35 609 105 C620 66 632 18 637 -7 C653 -5 688 -5 704 -7 C698 66 698 195 698 248 C698 286 709 301 738 301 L772 301 L772 358 C772 358 673 355 618 355 C563 355 464 358 464 358 L464 301 L507 301 C563 301 571 273 571 208 C571 88 491 35 388 35 C280 35 192 96 192 346 C192 559 252 655 396 655 C551 655 584 558 603 447 C623 449 649 449 669 447 C664 527 675 649 684 700 L624 700 C618 648 606 640 552 669 C487 703 442 710 388 710 L388 710 Z M297 -269 L303 -289 C392 -266 431 -208 431 -142 C431 -103 415 -72 373 -72 C339 -72 316 -96 316 -126 C316 -159 332 -174 359 -174 C381 -174 398 -163 405 -145 C407 -209 367 -250 297 -269 L297 -269 Z " />
<glyph glyph-name="gcommaaccent" unicode="&#x123;" horiz-adv-x="510" d="M214 473 C119 473 26 419 26 305 C26 220 69 166 134 143 C88 133 48 108 48 62 C48 28 64 2 111 -13 C56 -26 10 -56 10 -100 C10 -164 79 -207 236 -207 C404 -207 479 -127 479 -55 C479 24 434 67 263 71 C132 74 125 91 125 107 C125 124 149 132 198 131 L214 131 C317 131 405 190 405 305 C405 364 388 407 354 434 C362 466 380 492 413 494 C402 484 396 469 396 452 C396 421 417 402 451 402 C485 402 505 425 505 463 C505 510 475 539 425 539 C371 539 340 497 329 450 C299 465 261 473 214 473 L214 473 Z M235 -30 C383 -33 418 -58 418 -91 C418 -132 366 -158 235 -158 C120 -158 83 -124 83 -88 C83 -46 135 -31 178 -26 C195 -28 214 -29 235 -30 L235 -30 Z M216 430 C273 430 295 396 295 303 C295 212 277 174 216 174 C157 174 136 210 136 303 C136 392 159 430 216 430 L216 430 Z M302 737 L296 757 C207 734 168 676 168 610 C168 571 184 540 226 540 C260 540 283 564 283 594 C283 627 267 642 240 642 C218 642 201 631 194 613 C192 677 232 718 302 737 L302 737 Z " />
<glyph glyph-name="Hcircumflex" unicode="&#x124;" horiz-adv-x="862" d="M38 -2 C38 -2 150 0 212 0 C274 0 385 -2 385 -2 L385 59 L328 59 C282 59 271 65 270 99 C268 133 268 225 268 320 C355 322 500 322 595 321 C595 225 594 133 593 99 C592 65 580 59 534 59 L477 59 L477 -2 C477 -2 589 0 651 0 C713 0 824 -2 824 -2 L824 59 L767 59 C721 59 709 65 708 99 C705 174 705 522 708 581 C710 620 724 631 760 631 L824 631 L824 690 C808 690 713 687 651 687 C589 687 477 690 477 690 L477 631 L540 631 C576 631 590 620 593 581 C595 554 595 466 595 373 C500 372 355 372 268 373 C268 466 268 554 270 581 C272 620 286 631 322 631 L385 631 L385 690 C369 690 274 687 212 687 C150 687 39 690 39 690 L39 631 L102 631 C138 631 152 620 154 581 C157 522 157 174 154 99 C153 64 141 59 95 59 L38 59 L38 -2 Z M577 746 C551 797 491 859 456 887 L407 887 C372 857 310 796 285 746 L293 736 C328 755 399 805 430 836 C461 805 530 756 569 736 L577 746 Z " />
<glyph glyph-name="hcircumflex" unicode="&#x125;" horiz-adv-x="620" d="M518 285 C520 395 479 473 362 473 C286 473 234 439 208 364 L208 524 C208 585 208 631 210 693 C169 691 70 690 21 690 L21 640 L40 640 C94 640 100 625 102 583 C104 547 104 141 102 108 C99 57 90 50 45 49 L21 49 L21 -3 C31 -3 108 0 156 0 C204 0 273 -3 290 -3 L290 49 L268 49 C225 49 208 57 208 109 L208 187 C208 324 236 414 320 414 C387 414 409 360 412 271 C414 208 414 169 412 118 C410 67 394 49 352 49 L332 49 L332 -3 C341 -3 416 0 463 0 C510 0 578 -3 594 -3 L594 49 L579 49 C531 49 520 67 518 119 C516 171 517 207 518 285 L518 285 Z M281 746 C255 797 195 859 160 887 L111 887 C76 857 14 796 -11 746 L-3 736 C32 755 103 805 134 836 C165 805 234 756 273 736 L281 746 Z " />
<glyph glyph-name="Hbar" unicode="&#x126;" horiz-adv-x="862" d="M38 -2 C38 -2 150 0 212 0 C274 0 385 -2 385 -2 L385 59 L328 59 C282 59 271 65 270 99 C268 133 268 225 268 320 C355 322 500 322 595 321 C595 225 594 133 593 99 C592 65 580 59 534 59 L477 59 L477 -2 C477 -2 589 0 651 0 C713 0 824 -2 824 -2 L824 59 L767 59 C721 59 709 65 708 99 C706 152 705 342 706 470 C736 470 758 469 768 469 L768 519 C758 518 736 518 706 518 C707 547 707 569 708 581 C710 620 724 631 760 631 L824 631 L824 690 C808 690 713 687 651 687 C589 687 477 690 477 690 L477 631 L540 631 C576 631 590 620 593 581 C594 569 594 546 595 517 L268 517 C268 546 269 569 270 581 C272 620 286 631 322 631 L385 631 L385 690 C369 690 274 687 212 687 C150 687 39 690 39 690 L39 631 L102 631 C138 631 152 620 154 581 C154 569 155 547 155 518 C130 518 110 518 102 519 L102 469 C110 469 130 470 156 470 C157 342 156 152 154 99 C153 64 141 59 95 59 L38 59 L38 -2 Z M268 373 L268 470 C368 471 493 471 595 470 L595 373 C500 372 355 372 268 373 L268 373 Z " />
<glyph glyph-name="hbar" unicode="&#x127;" horiz-adv-x="620" d="M21 522 C41 522 70 523 103 523 C104 401 103 134 102 108 C99 57 90 50 45 49 L21 49 L21 -3 C31 -3 108 0 156 0 C204 0 273 -3 290 -3 L290 49 L268 49 C225 49 208 57 208 109 L208 187 C208 324 236 414 320 414 C387 414 409 360 412 271 C414 208 414 169 412 118 C410 67 394 49 352 49 L332 49 L332 -3 C341 -3 416 0 463 0 C510 0 578 -3 594 -3 L594 49 L579 49 C531 49 520 67 518 119 C516 171 517 207 518 285 C520 395 479 473 362 473 C286 473 234 439 208 364 L208 523 C242 523 273 522 294 522 L294 568 C273 567 242 566 208 566 C208 608 208 646 210 693 C169 691 70 690 21 690 L21 640 L40 640 C94 640 100 625 102 583 L102 566 C70 566 40 567 21 568 L21 522 Z " />
<glyph glyph-name="Itilde" unicode="&#x128;" horiz-adv-x="428" d="M41 -2 C41 -2 153 0 215 0 C277 0 388 -2 388 -2 L388 59 L334 59 C288 59 276 65 275 99 C272 174 271 522 275 581 C278 620 291 631 327 631 L388 631 L388 690 C372 690 277 687 215 687 C153 687 41 690 41 690 L41 631 L102 631 C138 631 152 620 154 581 C157 522 157 174 154 99 C153 65 141 59 96 59 L41 59 L41 -2 Z M340 889 C353 822 338 794 309 794 C282 794 268 814 244 849 C217 888 194 902 158 902 C91 902 40 859 70 760 L89 764 C76 831 90 859 119 859 C146 859 156 843 182 805 C202 775 223 751 271 751 C333 751 389 794 359 893 L340 889 Z " />
<glyph glyph-name="itilde" unicode="&#x129;" horiz-adv-x="310" d="M208 462 C169 459 66 459 21 459 L21 409 L40 409 C94 409 100 393 102 352 C104 311 104 159 102 108 C100 57 90 50 45 49 L21 49 L21 -3 C31 -3 108 0 156 0 C204 0 273 -3 290 -3 L290 49 L268 49 C225 49 210 57 208 109 C206 161 208 462 208 462 L208 462 Z M271 659 C284 592 269 564 240 564 C213 564 199 584 175 619 C148 658 125 672 89 672 C22 672 -29 629 1 530 L20 534 C7 601 21 629 50 629 C77 629 87 613 113 575 C133 545 154 521 202 521 C264 521 320 564 290 663 L271 659 Z " />
<glyph glyph-name="Imacron" unicode="&#x12a;" horiz-adv-x="428" d="M41 -2 C41 -2 153 0 215 0 C277 0 388 -2 388 -2 L388 59 L334 59 C288 59 276 65 275 99 C272 174 271 522 275 581 C278 620 291 631 327 631 L388 631 L388 690 C372 690 277 687 215 687 C153 687 41 690 41 690 L41 631 L102 631 C138 631 152 620 154 581 C157 522 157 174 154 99 C153 65 141 59 96 59 L41 59 L41 -2 Z M90 763 C151 765 285 765 346 763 C345 784 345 804 346 825 C285 823 151 823 90 825 C91 804 91 783 90 763 L90 763 Z " />
<glyph glyph-name="imacron" unicode="&#x12b;" horiz-adv-x="310" d="M208 462 C169 459 66 459 21 459 L21 409 L40 409 C94 409 100 393 102 352 C104 311 104 159 102 108 C100 57 90 50 45 49 L21 49 L21 -3 C31 -3 108 0 156 0 C204 0 273 -3 290 -3 L290 49 L268 49 C225 49 210 57 208 109 C206 161 208 462 208 462 L208 462 Z M9 537 C70 539 204 539 265 537 C264 558 264 578 265 599 C204 597 70 597 9 599 C10 578 10 557 9 537 L9 537 Z " />
<glyph glyph-name="Ibreve" unicode="&#x12c;" horiz-adv-x="428" d="M41 -2 C41 -2 153 0 215 0 C277 0 388 -2 388 -2 L388 59 L334 59 C288 59 276 65 275 99 C272 174 271 522 275 581 C278 620 291 631 327 631 L388 631 L388 690 C372 690 277 687 215 687 C153 687 41 690 41 690 L41 631 L102 631 C138 631 152 620 154 581 C157 522 157 174 154 99 C153 65 141 59 96 59 L41 59 L41 -2 Z M214 751 C311 751 362 816 351 896 L337 898 C333 832 283 820 214 820 C145 820 95 832 91 898 L77 896 C66 816 117 751 214 751 L214 751 Z " />
<glyph glyph-name="ibreve" unicode="&#x12d;" horiz-adv-x="310" d="M208 462 C169 459 66 459 21 459 L21 409 L40 409 C94 409 100 393 102 352 C104 311 104 159 102 108 C100 57 90 50 45 49 L21 49 L21 -3 C31 -3 108 0 156 0 C204 0 273 -3 290 -3 L290 49 L268 49 C225 49 210 57 208 109 C206 161 208 462 208 462 L208 462 Z M132 526 C229 526 280 591 269 671 L255 673 C251 607 201 595 132 595 C63 595 13 607 9 673 L-5 671 C-16 591 35 526 132 526 L132 526 Z " />
<glyph glyph-name="Iogonek" unicode="&#x12e;" horiz-adv-x="428" d="M337 -84 L312 -80 C306 -124 283 -151 244 -151 C213 -151 185 -133 185 -93 C185 -53 210 -21 247 0 C309 0 388 -2 388 -2 L388 59 L334 59 C288 59 276 65 275 99 C272 174 271 522 275 581 C278 620 291 631 327 631 L388 631 L388 690 C372 690 277 687 215 687 C153 687 41 690 41 690 L41 631 L102 631 C138 631 152 620 154 581 C157 522 157 174 154 99 C153 65 141 59 96 59 L41 59 L41 -2 C41 -2 138 0 202 0 C154 -25 118 -59 116 -114 C114 -171 159 -206 219 -206 C294 -206 333 -168 337 -84 L337 -84 Z " />
<glyph glyph-name="iogonek" unicode="&#x12f;" horiz-adv-x="310" d="M275 -84 L250 -80 C244 -124 221 -151 182 -151 C151 -151 123 -133 123 -93 C123 -53 148 -21 185 0 C228 -1 276 -3 290 -3 L290 49 L268 49 C225 49 210 57 208 109 C206 161 208 462 208 462 C169 459 66 459 21 459 L21 409 L40 409 C94 409 100 393 102 352 C104 311 104 159 102 108 C100 57 90 50 45 49 L21 49 L21 -3 C30 -3 92 0 140 0 C92 -25 56 -59 54 -114 C52 -171 97 -206 157 -206 C232 -206 271 -168 275 -84 L275 -84 Z M216 628 C216 667 185 698 146 698 C108 698 77 667 77 628 C77 589 108 558 146 558 C185 558 216 589 216 628 L216 628 Z " />
<glyph glyph-name="Idotaccent" unicode="&#x130;" horiz-adv-x="428" d="M41 -2 C41 -2 153 0 215 0 C277 0 388 -2 388 -2 L388 59 L334 59 C288 59 276 65 275 99 C272 174 271 522 275 581 C278 620 291 631 327 631 L388 631 L388 690 C372 690 277 687 215 687 C153 687 41 690 41 690 L41 631 L102 631 C138 631 152 620 154 581 C157 522 157 174 154 99 C153 65 141 59 96 59 L41 59 L41 -2 Z M268 831 C268 861 244 885 214 885 C185 885 161 861 161 831 C161 801 185 777 214 777 C244 777 268 801 268 831 L268 831 Z " />
<glyph glyph-name="dotlessi" unicode="&#x131;" horiz-adv-x="310" d="M208 462 C169 459 66 459 21 459 L21 409 L40 409 C94 409 100 393 102 352 C104 311 104 159 102 108 C100 57 90 50 45 49 L21 49 L21 -3 C31 -3 108 0 156 0 C204 0 273 -3 290 -3 L290 49 L268 49 C225 49 210 57 208 109 C206 161 208 462 208 462 L208 462 Z " />
<glyph glyph-name="IJ" unicode="&#x132;" horiz-adv-x="964" d="M41 -2 C41 -2 153 0 215 0 C277 0 388 -2 388 -2 L388 59 L334 59 C288 59 276 65 275 99 C272 174 271 522 275 581 C278 620 291 631 327 631 L388 631 L388 690 C372 690 277 687 215 687 C153 687 41 690 41 690 L41 631 L102 631 C138 631 152 620 154 581 C157 522 157 174 154 99 C153 65 141 59 96 59 L41 59 L41 -2 Z M479 93 C509 93 553 108 553 161 C553 201 523 226 480 226 C426 226 397 186 397 139 C397 61 456 -20 580 -20 C725 -20 826 51 824 202 C823 289 821 522 824 581 C826 621 840 631 876 631 L926 631 L926 690 C910 690 821 687 762 687 C703 687 598 690 598 690 L598 631 L649 631 C685 631 699 620 701 581 C704 522 704 289 701 201 C697 85 656 32 572 32 C506 32 469 59 450 98 C458 95 468 93 479 93 L479 93 Z " />
<glyph glyph-name="ij" unicode="&#x133;" horiz-adv-x="577" d="M208 462 C169 459 66 459 21 459 L21 409 L40 409 C94 409 100 393 102 352 C104 311 104 159 102 108 C100 57 90 50 45 49 L21 49 L21 -3 C31 -3 108 0 156 0 C204 0 273 -3 290 -3 L290 49 L268 49 C225 49 210 57 208 109 C206 161 208 462 208 462 L208 462 Z M216 628 C216 667 185 698 146 698 C108 698 77 667 77 628 C77 589 108 558 146 558 C185 558 216 589 216 628 L216 628 Z M349 -96 C349 -61 324 -38 286 -38 C245 -38 220 -63 220 -105 C220 -165 272 -201 348 -201 C448 -201 509 -145 509 0 L509 308 C509 342 510 433 513 462 C474 459 366 459 321 459 L321 409 L349 409 C386 409 401 389 403 357 C405 323 403 19 403 -36 C403 -141 375 -164 328 -164 C306 -164 291 -159 278 -151 C332 -156 349 -119 349 -96 L349 -96 Z M517 628 C517 667 486 698 447 698 C409 698 378 667 378 628 C378 589 409 558 447 558 C486 558 517 589 517 628 L517 628 Z " />
<glyph glyph-name="Jcircumflex" unicode="&#x134;" horiz-adv-x="586" d="M101 93 C131 93 175 108 175 161 C175 201 145 226 102 226 C48 226 19 186 19 139 C19 61 78 -20 202 -20 C347 -20 448 51 446 202 C445 289 443 522 446 581 C448 621 462 631 498 631 L548 631 L548 690 C532 690 443 687 384 687 C325 687 220 690 220 690 L220 631 L271 631 C307 631 321 620 323 581 C326 522 326 289 323 201 C319 85 278 32 194 32 C128 32 91 59 72 98 C80 95 90 93 101 93 L101 93 Z M523 746 C497 797 437 859 402 887 L353 887 C318 857 256 796 231 746 L239 736 C274 755 345 805 376 836 C407 805 476 756 515 736 L523 746 Z " />
<glyph glyph-name="jcircumflex" unicode="&#x135;" horiz-adv-x="290" d="M59 -99 C59 -64 36 -43 0 -43 C-41 -43 -65 -66 -65 -105 C-65 -165 -15 -201 61 -201 C161 -201 222 -145 222 0 C222 146 219 383 222 462 C183 459 79 459 34 459 L34 409 L62 409 C99 409 114 389 116 357 C118 323 116 19 116 -36 C116 -141 88 -164 41 -164 C18 -164 2 -159 -11 -150 C42 -157 59 -122 59 -99 L59 -99 Z M296 526 C270 577 210 639 175 667 L126 667 C91 637 29 576 4 526 L12 516 C47 535 118 585 149 616 C180 585 249 536 288 516 L296 526 Z " />
<glyph glyph-name="Kcommaaccent" unicode="&#x136;" horiz-adv-x="843" d="M38 -2 C38 -2 150 0 212 0 C274 0 385 -2 385 -2 L385 59 L324 59 C274 59 272 68 270 111 C269 133 268 195 268 265 L365 351 C418 283 512 146 531 115 C551 81 542 59 496 59 L458 59 L458 0 C458 0 570 3 632 3 C694 3 805 0 805 0 L805 59 L775 59 C716 59 704 84 663 132 C624 177 504 342 449 427 L604 565 C653 609 693 631 758 631 L795 631 L795 690 C779 690 694 687 632 687 C570 687 458 690 458 690 L458 631 L510 631 C553 631 558 592 537 573 L268 329 C268 437 268 549 270 579 C272 618 286 631 322 631 L385 631 L385 690 C369 690 274 687 212 687 C150 687 38 690 38 690 L38 631 L99 631 C138 631 152 618 154 579 C157 522 158 174 154 111 C151 65 141 59 95 59 L38 59 L38 -2 Z M349 -259 L355 -279 C444 -256 483 -198 483 -132 C483 -93 467 -62 425 -62 C391 -62 368 -86 368 -116 C368 -149 384 -164 411 -164 C433 -164 450 -153 457 -135 C459 -199 419 -240 349 -259 L349 -259 Z " />
<glyph glyph-name="kcommaaccent" unicode="&#x137;" horiz-adv-x="610" d="M208 692 C169 691 66 690 21 690 L21 640 L40 640 C94 640 100 615 102 573 C104 531 104 166 102 118 C100 67 90 50 45 49 L21 49 L21 -3 C31 -3 106 0 154 0 C202 0 269 -3 286 -3 L286 49 L268 49 C225 49 210 67 208 119 C207 129 207 159 207 195 L259 234 C289 196 317 154 340 119 C366 78 364 50 331 50 L313 50 L313 -3 C323 -3 400 0 449 0 C498 0 569 -3 585 -3 L585 50 L573 50 C523 50 495 75 461 119 C430 157 376 236 340 294 L382 326 C468 392 493 409 558 409 L574 409 L574 459 C565 459 491 456 444 456 C397 456 314 459 314 459 L314 409 L334 409 C373 409 391 379 354 349 L206 227 C206 374 206 621 208 692 L208 692 Z M225 -259 L231 -279 C320 -256 359 -198 359 -132 C359 -93 343 -62 301 -62 C267 -62 244 -86 244 -116 C244 -149 260 -164 287 -164 C309 -164 326 -153 333 -135 C335 -199 295 -240 225 -259 L225 -259 Z " />
<glyph glyph-name="kgreenlandic" unicode="&#x138;" horiz-adv-x="610" d="M208 461 C169 460 66 459 21 459 L21 409 L40 409 C94 409 100 384 102 342 C104 300 104 166 102 118 C100 67 90 50 45 49 L21 49 L21 -3 C31 -3 106 0 154 0 C202 0 269 -3 286 -3 L286 49 L268 49 C225 49 210 67 208 119 C207 134 206 161 206 195 L259 234 C289 196 317 154 340 119 C366 78 364 50 331 50 L313 50 L313 -3 C323 -3 400 0 449 0 C498 0 569 -3 585 -3 L585 50 L573 50 C523 50 495 75 461 119 C430 157 376 236 340 294 L382 326 C468 392 493 409 558 409 L574 409 L574 459 C565 459 491 456 444 456 C397 456 314 459 314 459 L314 409 L334 409 C373 409 391 379 354 349 L206 227 C206 305 207 401 208 461 L208 461 Z " />
<glyph glyph-name="Lacute" unicode="&#x139;" horiz-adv-x="662" d="M386 690 C365 690 275 687 213 687 C151 687 39 690 39 690 L39 631 L102 631 C138 631 152 620 154 581 C157 522 157 174 154 100 C153 65 142 59 96 59 L38 59 L38 -2 C64 -1 168 0 208 0 L437 0 C480 0 577 0 624 -4 C622 61 628 201 634 266 L573 266 C563 95 514 59 403 59 L319 59 C288 59 271 68 270 99 C267 174 267 522 270 581 C272 620 286 631 323 631 L386 631 L386 690 Z M197 746 C251 773 318 812 353 839 C394 870 354 918 312 888 C277 861 228 803 189 756 L197 746 Z " />
<glyph glyph-name="lacute" unicode="&#x13a;" horiz-adv-x="310" d="M208 693 C169 690 66 690 21 690 L21 640 L40 640 C94 640 100 615 102 573 C104 531 104 169 102 118 C100 67 90 50 45 49 L21 49 L21 -3 C31 -3 108 0 156 0 C204 0 273 -3 290 -3 L290 49 L268 49 C225 49 210 67 208 119 C206 171 208 693 208 693 L208 693 Z M136 712 C190 739 257 778 292 805 C333 836 293 884 251 854 C216 827 167 769 128 722 L136 712 Z " />
<glyph glyph-name="Lcommaaccent" unicode="&#x13b;" horiz-adv-x="662" d="M386 690 C365 690 275 687 213 687 C151 687 39 690 39 690 L39 631 L102 631 C138 631 152 620 154 581 C157 522 157 174 154 100 C153 65 142 59 96 59 L38 59 L38 -2 C64 -1 168 0 208 0 L437 0 C480 0 577 0 624 -4 C622 61 628 201 634 266 L573 266 C563 95 514 59 403 59 L319 59 C288 59 271 68 270 99 C267 174 267 522 270 581 C272 620 286 631 323 631 L386 631 L386 690 Z M254 -259 L260 -279 C349 -256 388 -198 388 -132 C388 -93 372 -62 330 -62 C296 -62 273 -86 273 -116 C273 -149 289 -164 316 -164 C338 -164 355 -153 362 -135 C364 -199 324 -240 254 -259 L254 -259 Z " />
<glyph glyph-name="lcommaaccent" unicode="&#x13c;" horiz-adv-x="310" d="M208 693 C169 690 66 690 21 690 L21 640 L40 640 C94 640 100 615 102 573 C104 531 104 169 102 118 C100 67 90 50 45 49 L21 49 L21 -3 C31 -3 108 0 156 0 C204 0 273 -3 290 -3 L290 49 L268 49 C225 49 210 67 208 119 C206 171 208 693 208 693 L208 693 Z M83 -259 L89 -279 C178 -256 217 -198 217 -132 C217 -93 201 -62 159 -62 C125 -62 102 -86 102 -116 C102 -149 118 -164 145 -164 C167 -164 184 -153 191 -135 C193 -199 153 -240 83 -259 L83 -259 Z " />
<glyph glyph-name="Lcaron" unicode="&#x13d;" horiz-adv-x="662" d="M386 690 C365 690 275 687 213 687 C151 687 39 690 39 690 L39 631 L102 631 C138 631 152 620 154 581 C157 522 157 174 154 100 C153 65 142 59 96 59 L38 59 L38 -2 C64 -1 168 0 208 0 L437 0 C480 0 577 0 624 -4 C622 61 628 201 634 266 L573 266 C563 95 514 59 403 59 L319 59 C288 59 271 68 270 99 C267 174 267 522 270 581 C272 620 286 631 323 631 L386 631 L386 690 Z M461 521 L467 501 C556 524 595 582 595 648 C595 687 579 718 537 718 C503 718 480 694 480 664 C480 631 496 616 523 616 C545 616 562 627 569 645 C571 581 531 540 461 521 L461 521 Z " />
<glyph glyph-name="lcaron" unicode="&#x13e;" horiz-adv-x="409" d="M208 693 C169 690 66 690 21 690 L21 640 L40 640 C94 640 100 615 102 573 C104 531 104 169 102 118 C100 67 90 50 45 49 L21 49 L21 -3 C31 -3 108 0 156 0 C204 0 273 -3 290 -3 L290 49 L268 49 C225 49 210 67 208 119 C206 171 208 693 208 693 L208 693 Z M255 493 L261 473 C350 496 389 554 389 620 C389 659 373 690 331 690 C297 690 274 666 274 636 C274 603 290 588 317 588 C339 588 356 599 363 617 C365 553 325 512 255 493 L255 493 Z " />
<glyph glyph-name="Ldot" unicode="&#x13f;" horiz-adv-x="662" d="M386 690 C365 690 275 687 213 687 C151 687 39 690 39 690 L39 631 L102 631 C138 631 152 620 154 581 C157 522 157 174 154 100 C153 65 142 59 96 59 L38 59 L38 -2 C64 -1 168 0 208 0 L437 0 C480 0 577 0 624 -4 C622 61 628 201 634 266 L573 266 C563 95 514 59 403 59 L319 59 C288 59 271 68 270 99 C267 174 267 522 270 581 C272 620 286 631 323 631 L386 631 L386 690 Z M522 356 C522 386 498 410 468 410 C439 410 415 386 415 356 C415 326 439 302 468 302 C498 302 522 326 522 356 L522 356 Z " />
<glyph glyph-name="ldot" unicode="&#x140;" horiz-adv-x="417" d="M208 693 C169 690 66 690 21 690 L21 640 L40 640 C94 640 100 615 102 573 C104 531 104 169 102 118 C100 67 90 50 45 49 L21 49 L21 -3 C31 -3 108 0 156 0 C204 0 273 -3 290 -3 L290 49 L268 49 C225 49 210 67 208 119 C206 171 208 693 208 693 L208 693 Z M411 324 C411 354 387 378 357 378 C328 378 304 354 304 324 C304 294 328 270 357 270 C387 270 411 294 411 324 L411 324 Z " />
<glyph glyph-name="Lslash" unicode="&#x141;" horiz-adv-x="662" d="M386 690 C365 690 275 687 213 687 C151 687 39 690 39 690 L39 631 L102 631 C138 631 152 620 154 581 C155 552 156 454 156 353 C128 339 102 327 86 320 L108 275 L156 300 C156 213 155 131 154 100 C153 65 142 59 96 59 L38 59 L38 -2 C64 -1 168 0 208 0 L437 0 C480 0 577 0 624 -4 C622 61 628 201 634 266 L573 266 C563 95 514 59 403 59 L319 59 C288 59 271 68 270 99 C268 138 268 248 268 355 C308 375 346 393 369 403 L347 448 C329 438 300 424 268 408 C268 486 269 558 270 581 C272 620 286 631 323 631 L386 631 L386 690 Z " />
<glyph glyph-name="lslash" unicode="&#x142;" horiz-adv-x="310" d="M208 693 C169 690 66 690 21 690 L21 640 L40 640 C94 640 100 615 102 573 C103 552 103 452 103 351 L48 321 L73 278 L103 296 C103 214 103 139 102 118 C100 67 90 50 45 49 L21 49 L21 -3 C31 -3 108 0 156 0 C204 0 273 -3 290 -3 L290 49 L268 49 C225 49 210 67 208 119 C207 140 207 245 207 357 C237 374 265 390 286 401 L261 444 L207 411 C207 553 208 693 208 693 L208 693 Z " />
<glyph glyph-name="Nacute" unicode="&#x143;" horiz-adv-x="833" d="M272 690 C216 688 95 688 39 690 L39 631 L102 631 C138 631 152 620 155 581 C159 522 158 174 155 100 C154 66 141 59 95 59 L38 59 L38 -2 C38 -2 136 0 191 0 C246 0 344 -2 344 -2 L344 59 L286 59 C240 59 227 66 226 100 C223 159 223 391 224 549 C345 377 516 127 601 0 C619 2 660 2 678 0 C675 120 675 522 678 580 C680 620 695 631 731 631 L795 631 L795 690 C795 690 698 687 643 687 C588 687 506 690 490 690 L490 631 L554 631 C590 631 605 620 607 580 C610 526 610 335 607 209 C513 339 347 576 272 690 L272 690 Z M407 746 C461 773 528 812 563 839 C604 870 564 918 522 888 C487 861 438 803 399 756 L407 746 Z " />
<glyph glyph-name="nacute" unicode="&#x144;" horiz-adv-x="620" d="M518 285 C520 395 479 473 362 473 C286 473 234 439 208 364 L208 462 C169 459 66 459 21 459 L21 409 L40 409 C94 409 100 384 102 342 C104 301 104 175 102 118 C100 67 90 50 45 49 L21 49 L21 -3 C31 -3 108 0 156 0 C204 0 273 -3 290 -3 L290 49 L268 49 C225 49 208 67 208 119 L208 187 C208 332 236 414 320 414 C387 414 409 360 412 271 C414 208 414 169 412 118 C410 67 394 49 352 49 L332 49 L332 -3 C341 -3 416 0 463 0 C510 0 578 -3 594 -3 L594 49 L579 49 C531 49 520 67 518 119 C516 171 517 207 518 285 L518 285 Z M298 516 C352 543 419 582 454 609 C495 640 455 688 413 658 C378 631 329 573 290 526 L298 516 Z " />
<glyph glyph-name="Ncommaaccent" unicode="&#x145;" horiz-adv-x="833" d="M272 690 C216 688 95 688 39 690 L39 631 L102 631 C138 631 152 620 155 581 C159 522 158 174 155 100 C154 66 141 59 95 59 L38 59 L38 -2 C38 -2 136 0 191 0 C246 0 344 -2 344 -2 L344 59 L286 59 C240 59 227 66 226 100 C223 159 223 391 224 549 C345 377 516 127 601 0 C619 2 660 2 678 0 C675 120 675 522 678 580 C680 620 695 631 731 631 L795 631 L795 690 C795 690 698 687 643 687 C588 687 506 690 490 690 L490 631 L554 631 C590 631 605 620 607 580 C610 526 610 335 607 209 C513 339 347 576 272 690 L272 690 Z M354 -259 L360 -279 C449 -256 488 -198 488 -132 C488 -93 472 -62 430 -62 C396 -62 373 -86 373 -116 C373 -149 389 -164 416 -164 C438 -164 455 -153 462 -135 C464 -199 424 -240 354 -259 L354 -259 Z " />
<glyph glyph-name="ncommaaccent" unicode="&#x146;" horiz-adv-x="620" d="M518 285 C520 395 479 473 362 473 C286 473 234 439 208 364 L208 462 C169 459 66 459 21 459 L21 409 L40 409 C94 409 100 384 102 342 C104 301 104 175 102 118 C100 67 90 50 45 49 L21 49 L21 -3 C31 -3 108 0 156 0 C204 0 273 -3 290 -3 L290 49 L268 49 C225 49 208 67 208 119 L208 187 C208 332 236 414 320 414 C387 414 409 360 412 271 C414 208 414 169 412 118 C410 67 394 49 352 49 L332 49 L332 -3 C341 -3 416 0 463 0 C510 0 578 -3 594 -3 L594 49 L579 49 C531 49 520 67 518 119 C516 171 517 207 518 285 L518 285 Z M235 -259 L241 -279 C330 -256 369 -198 369 -132 C369 -93 353 -62 311 -62 C277 -62 254 -86 254 -116 C254 -149 270 -164 297 -164 C319 -164 336 -153 343 -135 C345 -199 305 -240 235 -259 L235 -259 Z " />
<glyph glyph-name="Ncaron" unicode="&#x147;" horiz-adv-x="833" d="M272 690 C216 688 95 688 39 690 L39 631 L102 631 C138 631 152 620 155 581 C159 522 158 174 155 100 C154 66 141 59 95 59 L38 59 L38 -2 C38 -2 136 0 191 0 C246 0 344 -2 344 -2 L344 59 L286 59 C240 59 227 66 226 100 C223 159 223 391 224 549 C345 377 516 127 601 0 C619 2 660 2 678 0 C675 120 675 522 678 580 C680 620 695 631 731 631 L795 631 L795 690 C795 690 698 687 643 687 C588 687 506 690 490 690 L490 631 L554 631 C590 631 605 620 607 580 C610 526 610 335 607 209 C513 339 347 576 272 690 L272 690 Z M290 897 C316 846 376 784 411 756 L460 756 C495 786 557 847 582 897 L574 907 C539 888 468 838 437 807 C406 838 337 887 298 907 L290 897 Z " />
<glyph glyph-name="ncaron" unicode="&#x148;" horiz-adv-x="620" d="M518 285 C520 395 479 473 362 473 C286 473 234 439 208 364 L208 462 C169 459 66 459 21 459 L21 409 L40 409 C94 409 100 384 102 342 C104 301 104 175 102 118 C100 67 90 50 45 49 L21 49 L21 -3 C31 -3 108 0 156 0 C204 0 273 -3 290 -3 L290 49 L268 49 C225 49 208 67 208 119 L208 187 C208 332 236 414 320 414 C387 414 409 360 412 271 C414 208 414 169 412 118 C410 67 394 49 352 49 L332 49 L332 -3 C341 -3 416 0 463 0 C510 0 578 -3 594 -3 L594 49 L579 49 C531 49 520 67 518 119 C516 171 517 207 518 285 L518 285 Z M151 667 C177 616 237 554 272 526 L321 526 C356 556 418 617 443 667 L435 677 C400 658 329 608 298 577 C267 608 198 657 159 677 L151 667 Z " />
<glyph glyph-name="napostrophe" unicode="&#x149;" horiz-adv-x="620" d="M518 285 C520 395 479 473 362 473 C286 473 234 439 208 364 L208 462 C169 459 66 459 21 459 L21 409 L40 409 C94 409 100 384 102 342 C104 301 104 175 102 118 C100 67 90 50 45 49 L21 49 L21 -3 C31 -3 108 0 156 0 C204 0 273 -3 290 -3 L290 49 L268 49 C225 49 208 67 208 119 L208 187 C208 332 236 414 320 414 C387 414 409 360 412 271 C414 208 414 169 412 118 C410 67 394 49 352 49 L332 49 L332 -3 C341 -3 416 0 463 0 C510 0 578 -3 594 -3 L594 49 L579 49 C531 49 520 67 518 119 C516 171 517 207 518 285 L518 285 Z M31 518 L37 498 C126 521 165 579 165 645 C165 684 149 715 107 715 C73 715 50 691 50 661 C50 628 66 613 93 613 C115 613 132 624 139 642 C141 578 101 537 31 518 L31 518 Z " />
<glyph glyph-name="Eng" unicode="&#x14a;" horiz-adv-x="833" d="M272 690 C216 688 95 688 39 690 L39 631 L102 631 C138 631 152 620 155 581 C159 522 158 174 155 100 C154 66 141 59 95 59 L38 59 L38 -2 C38 -2 136 0 191 0 C246 0 344 -2 344 -2 L344 59 L286 59 C240 59 227 66 226 100 C223 159 223 391 224 549 C345 377 516 127 601 0 C603 0 606 1 609 1 L608 -46 C606 -151 545 -164 497 -164 C475 -164 460 -159 447 -151 C501 -156 518 -119 518 -96 C518 -61 493 -38 455 -38 C414 -38 389 -63 389 -105 C389 -165 441 -201 513 -201 C619 -201 675 -126 678 0 C675 120 675 522 678 580 C680 620 695 631 731 631 L795 631 L795 690 C795 690 698 687 643 687 C588 687 506 690 490 690 L490 631 L554 631 C590 631 605 620 607 580 C610 526 610 335 607 209 C513 339 347 576 272 690 L272 690 Z " />
<glyph glyph-name="eng" unicode="&#x14b;" horiz-adv-x="579" d="M518 285 C518 395 479 473 362 473 C286 473 234 439 208 364 L208 462 C169 459 66 459 21 459 L21 409 L40 409 C94 409 100 384 102 342 C104 301 104 175 102 118 C100 67 90 50 45 49 L21 49 L21 -3 C31 -3 108 0 156 0 C204 0 273 -3 290 -3 L290 49 L268 49 C225 49 208 67 208 119 L208 187 C208 324 232 414 320 414 C387 414 412 360 412 271 L412 -36 C412 -141 384 -164 337 -164 C315 -164 300 -159 287 -151 C341 -156 358 -119 358 -96 C358 -61 333 -38 295 -38 C254 -38 229 -63 229 -105 C229 -165 281 -201 357 -201 C457 -201 518 -145 518 0 L518 285 Z " />
<glyph glyph-name="Omacron" unicode="&#x14c;" horiz-adv-x="770" d="M385 35 C235 35 185 126 185 346 C185 555 249 656 385 656 C527 656 586 569 586 347 C586 140 533 35 385 35 L385 35 Z M385 -20 C579 -20 720 113 720 347 C720 579 607 710 385 710 C191 710 50 581 50 346 C50 115 164 -20 385 -20 L385 -20 Z M261 763 C322 765 456 765 517 763 C516 784 516 804 517 825 C456 823 322 823 261 825 C262 804 262 783 261 763 L261 763 Z " />
<glyph glyph-name="omacron" unicode="&#x14d;" horiz-adv-x="534" d="M40 223 C40 66 131 -20 267 -20 C400 -20 494 66 494 223 C494 394 400 473 267 473 C134 473 40 394 40 223 L40 223 Z M162 223 C162 391 204 430 266 430 C328 430 374 391 374 223 C374 52 328 23 267 23 C204 23 162 52 162 223 L162 223 Z M153 537 C214 539 348 539 409 537 C408 558 408 578 409 599 C348 597 214 597 153 599 C154 578 154 557 153 537 L153 537 Z " />
<glyph glyph-name="Obreve" unicode="&#x14e;" horiz-adv-x="770" d="M385 35 C235 35 185 126 185 346 C185 555 249 656 385 656 C527 656 586 569 586 347 C586 140 533 35 385 35 L385 35 Z M385 -20 C579 -20 720 113 720 347 C720 579 607 710 385 710 C191 710 50 581 50 346 C50 115 164 -20 385 -20 L385 -20 Z M395 751 C492 751 543 816 532 896 L518 898 C514 832 464 820 395 820 C326 820 276 832 272 898 L258 896 C247 816 298 751 395 751 L395 751 Z " />
<glyph glyph-name="obreve" unicode="&#x14f;" horiz-adv-x="534" d="M40 223 C40 66 131 -20 267 -20 C400 -20 494 66 494 223 C494 394 400 473 267 473 C134 473 40 394 40 223 L40 223 Z M162 223 C162 391 204 430 266 430 C328 430 374 391 374 223 C374 52 328 23 267 23 C204 23 162 52 162 223 L162 223 Z M273 526 C370 526 421 591 410 671 L396 673 C392 607 342 595 273 595 C204 595 154 607 150 673 L136 671 C125 591 176 526 273 526 L273 526 Z " />
<glyph glyph-name="Ohungarumlaut" unicode="&#x150;" horiz-adv-x="770" d="M385 35 C235 35 185 126 185 346 C185 555 249 656 385 656 C527 656 586 569 586 347 C586 140 533 35 385 35 L385 35 Z M385 -20 C579 -20 720 113 720 347 C720 579 607 710 385 710 C191 710 50 581 50 346 C50 115 164 -20 385 -20 L385 -20 Z M290 750 C340 784 401 832 431 863 C468 900 420 943 384 906 C353 874 313 809 281 758 L290 750 Z M454 750 C504 784 565 832 595 863 C632 900 585 942 548 906 C517 875 477 810 445 758 L454 750 Z " />
<glyph glyph-name="ohungarumlaut" unicode="&#x151;" horiz-adv-x="534" d="M40 223 C40 66 131 -20 267 -20 C400 -20 494 66 494 223 C494 394 400 473 267 473 C134 473 40 394 40 223 L40 223 Z M162 223 C162 391 204 430 266 430 C328 430 374 391 374 223 C374 52 328 23 267 23 C204 23 162 52 162 223 L162 223 Z M183 520 C233 554 294 602 324 633 C361 670 313 713 277 676 C246 644 206 579 174 528 L183 520 Z M347 520 C397 554 458 602 488 633 C525 670 478 712 441 676 C410 645 370 580 338 528 L347 520 Z " />
<glyph glyph-name="OE" unicode="&#x152;" horiz-adv-x="1112" d="M832 491 C832 401 790 375 703 375 L653 375 C653 467 654 554 656 581 C658 609 670 628 703 628 L853 628 C968 628 1009 589 1009 450 L1009 444 L1063 445 C1062 517 1063 622 1069 695 C1022 689 905 689 862 689 C722 689 612 688 593 688 C588 688 553 689 521 689 C481 703 436 710 385 710 C191 710 50 591 50 346 C50 105 164 -20 385 -20 C429 -20 471 -13 509 0 L875 0 C918 0 1016 0 1063 -4 C1063 82 1066 189 1073 264 L1012 264 L1012 253 C1012 122 971 59 851 59 L708 59 C680 59 658 73 656 111 C654 140 653 232 653 327 L700 327 C797 327 832 290 834 204 L834 192 L887 192 C884 243 884 278 884 352 C884 425 886 448 887 506 L832 506 L832 491 Z M385 35 C235 35 185 116 185 346 C185 565 249 655 385 655 C442 655 529 647 533 581 C537 522 537 174 533 119 C525 45 442 35 385 35 L385 35 Z " />
<glyph glyph-name="oe" unicode="&#x153;" horiz-adv-x="837" d="M788 121 L739 133 C724 77 692 37 610 37 C527 37 497 81 495 211 L794 211 C804 362 741 473 592 473 C528 473 473 450 433 408 C395 449 341 473 267 473 C127 473 40 387 40 226 C40 61 131 -20 267 -20 C333 -20 389 1 429 40 C467 0 522 -20 591 -20 C698 -20 764 36 788 121 L788 121 Z M162 226 C162 394 204 430 266 430 C328 430 374 394 374 226 C374 55 328 23 267 23 C204 23 162 55 162 226 L162 226 Z M587 426 C643 426 668 362 668 270 C668 249 663 245 648 245 L495 245 C497 379 527 426 587 426 L587 426 Z " />
<glyph glyph-name="Racute" unicode="&#x154;" horiz-adv-x="778" d="M595 191 C586 262 559 306 482 326 C572 337 646 405 646 505 C646 628 551 689 382 689 C340 689 259 688 213 688 C194 688 54 690 38 690 L38 631 L102 631 C138 631 152 620 154 581 C157 522 157 174 154 118 C152 74 131 59 86 59 L38 59 L38 -2 C38 -2 147 0 209 0 C262 0 380 -2 380 -2 L380 57 L332 57 C297 57 278 74 275 117 C273 141 272 223 272 311 L342 311 C409 311 458 290 464 179 C471 54 498 -20 631 -20 C756 -20 772 93 745 211 L699 206 C716 113 711 46 665 46 C631 46 611 66 595 191 L595 191 Z M275 600 C276 625 285 640 314 640 L366 640 C472 640 513 604 513 503 C513 401 472 359 353 359 L272 359 C272 460 273 562 275 600 L275 600 Z M358 746 C412 773 479 812 514 839 C555 870 515 918 473 888 C438 861 389 803 350 756 L358 746 Z " />
<glyph glyph-name="racute" unicode="&#x155;" horiz-adv-x="436" d="M310 432 C334 432 350 426 361 418 C326 420 291 401 291 358 C291 321 315 298 355 298 C400 298 427 327 427 376 C427 437 389 473 326 473 C263 473 219 440 199 361 L208 462 C169 459 66 459 21 459 L21 409 L40 409 C94 409 100 388 102 346 C104 303 104 162 102 112 C100 61 90 50 45 49 L21 49 L21 -3 C31 -3 111 0 161 0 C211 0 283 -3 300 -3 L300 49 L268 49 C225 49 208 61 208 113 L208 228 C208 365 244 432 310 432 L310 432 Z M215 516 C269 543 336 582 371 609 C412 640 372 688 330 658 C295 631 246 573 207 526 L215 516 Z " />
<glyph glyph-name="Rcommaaccent" unicode="&#x156;" horiz-adv-x="778" d="M595 191 C586 262 559 306 482 326 C572 337 646 405 646 505 C646 628 551 689 382 689 C340 689 259 688 213 688 C194 688 54 690 38 690 L38 631 L102 631 C138 631 152 620 154 581 C157 522 157 174 154 118 C152 74 131 59 86 59 L38 59 L38 -2 C38 -2 147 0 209 0 C262 0 380 -2 380 -2 L380 57 L332 57 C297 57 278 74 275 117 C273 141 272 223 272 311 L342 311 C409 311 458 290 464 179 C471 54 498 -20 631 -20 C756 -20 772 93 745 211 L699 206 C716 113 711 46 665 46 C631 46 611 66 595 191 L595 191 Z M275 600 C276 625 285 640 314 640 L366 640 C472 640 513 604 513 503 C513 401 472 359 353 359 L272 359 C272 460 273 562 275 600 L275 600 Z M335 -259 L341 -279 C430 -256 469 -198 469 -132 C469 -93 453 -62 411 -62 C377 -62 354 -86 354 -116 C354 -149 370 -164 397 -164 C419 -164 436 -153 443 -135 C445 -199 405 -240 335 -259 L335 -259 Z " />
<glyph glyph-name="rcommaaccent" unicode="&#x157;" horiz-adv-x="436" d="M310 432 C334 432 350 426 361 418 C326 420 291 401 291 358 C291 321 315 298 355 298 C400 298 427 327 427 376 C427 437 389 473 326 473 C263 473 219 440 199 361 L208 462 C169 459 66 459 21 459 L21 409 L40 409 C94 409 100 388 102 346 C104 303 104 162 102 112 C100 61 90 50 45 49 L21 49 L21 -3 C31 -3 111 0 161 0 C211 0 283 -3 300 -3 L300 49 L268 49 C225 49 208 61 208 113 L208 228 C208 365 244 432 310 432 L310 432 Z M72 -259 L78 -279 C167 -256 206 -198 206 -132 C206 -93 190 -62 148 -62 C114 -62 91 -86 91 -116 C91 -149 107 -164 134 -164 C156 -164 173 -153 180 -135 C182 -199 142 -240 72 -259 L72 -259 Z " />
<glyph glyph-name="Rcaron" unicode="&#x158;" horiz-adv-x="778" d="M595 191 C586 262 559 306 482 326 C572 337 646 405 646 505 C646 628 551 689 382 689 C340 689 259 688 213 688 C194 688 54 690 38 690 L38 631 L102 631 C138 631 152 620 154 581 C157 522 157 174 154 118 C152 74 131 59 86 59 L38 59 L38 -2 C38 -2 147 0 209 0 C262 0 380 -2 380 -2 L380 57 L332 57 C297 57 278 74 275 117 C273 141 272 223 272 311 L342 311 C409 311 458 290 464 179 C471 54 498 -20 631 -20 C756 -20 772 93 745 211 L699 206 C716 113 711 46 665 46 C631 46 611 66 595 191 L595 191 Z M275 600 C276 625 285 640 314 640 L366 640 C472 640 513 604 513 503 C513 401 472 359 353 359 L272 359 C272 460 273 562 275 600 L275 600 Z M231 897 C257 846 317 784 352 756 L401 756 C436 786 498 847 523 897 L515 907 C480 888 409 838 378 807 C347 838 278 887 239 907 L231 897 Z " />
<glyph glyph-name="rcaron" unicode="&#x159;" horiz-adv-x="436" d="M310 432 C334 432 350 426 361 418 C326 420 291 401 291 358 C291 321 315 298 355 298 C400 298 427 327 427 376 C427 437 389 473 326 473 C263 473 219 440 199 361 L208 462 C169 459 66 459 21 459 L21 409 L40 409 C94 409 100 388 102 346 C104 303 104 162 102 112 C100 61 90 50 45 49 L21 49 L21 -3 C31 -3 111 0 161 0 C211 0 283 -3 300 -3 L300 49 L268 49 C225 49 208 61 208 113 L208 228 C208 365 244 432 310 432 L310 432 Z M68 667 C94 616 154 554 189 526 L238 526 C273 556 335 617 360 667 L352 677 C317 658 246 608 215 577 C184 608 115 657 76 677 L68 667 Z " />
<glyph glyph-name="Sacute" unicode="&#x15a;" horiz-adv-x="657" d="M317 655 C435 655 503 601 533 477 L582 477 C575 540 578 641 595 700 L542 700 C538 672 527 650 475 676 C455 686 399 710 322 710 C152 710 78 609 78 495 C78 380 156 312 310 292 C464 271 537 241 537 157 C537 78 467 35 354 35 C212 35 140 102 111 230 L58 230 C65 155 62 66 48 -7 L101 -7 C106 25 118 59 167 30 C226 -5 280 -20 355 -20 C515 -20 618 65 618 202 C618 330 561 404 364 430 C220 449 159 477 159 548 C159 609 211 655 317 655 L317 655 Z M323 746 C377 773 444 812 479 839 C520 870 480 918 438 888 C403 861 354 803 315 756 L323 746 Z " />
<glyph glyph-name="sacute" unicode="&#x15b;" horiz-adv-x="446" d="M210 420 C279 420 330 395 351 313 C360 314 378 314 387 313 C385 372 385 404 390 467 C381 466 363 466 354 467 C349 427 343 427 325 440 C299 458 273 471 221 473 C111 477 37 412 37 323 C37 259 73 186 213 171 C313 160 337 134 337 101 C337 62 303 34 240 34 C153 34 101 92 75 176 C66 175 46 175 37 176 C42 114 40 53 33 -7 C42 -6 63 -6 72 -7 C76 25 81 47 109 26 C150 -5 192 -20 238 -20 C355 -20 411 38 411 135 C411 212 368 270 243 285 C136 298 113 318 113 358 C113 389 142 420 210 420 L210 420 Z M204 516 C258 543 325 582 360 609 C401 640 361 688 319 658 C284 631 235 573 196 526 L204 516 Z " />
<glyph glyph-name="Scircumflex" unicode="&#x15c;" horiz-adv-x="657" d="M317 655 C435 655 503 601 533 477 L582 477 C575 540 578 641 595 700 L542 700 C538 672 527 650 475 676 C455 686 399 710 322 710 C152 710 78 609 78 495 C78 380 156 312 310 292 C464 271 537 241 537 157 C537 78 467 35 354 35 C212 35 140 102 111 230 L58 230 C65 155 62 66 48 -7 L101 -7 C106 25 118 59 167 30 C226 -5 280 -20 355 -20 C515 -20 618 65 618 202 C618 330 561 404 364 430 C220 449 159 477 159 548 C159 609 211 655 317 655 L317 655 Z M468 746 C442 797 382 859 347 887 L298 887 C263 857 201 796 176 746 L184 736 C219 755 290 805 321 836 C352 805 421 756 460 736 L468 746 Z " />
<glyph glyph-name="scircumflex" unicode="&#x15d;" horiz-adv-x="446" d="M210 420 C279 420 330 395 351 313 C360 314 378 314 387 313 C385 372 385 404 390 467 C381 466 363 466 354 467 C349 427 343 427 325 440 C299 458 273 471 221 473 C111 477 37 412 37 323 C37 259 73 186 213 171 C313 160 337 134 337 101 C337 62 303 34 240 34 C153 34 101 92 75 176 C66 175 46 175 37 176 C42 114 40 53 33 -7 C42 -6 63 -6 72 -7 C76 25 81 47 109 26 C150 -5 192 -20 238 -20 C355 -20 411 38 411 135 C411 212 368 270 243 285 C136 298 113 318 113 358 C113 389 142 420 210 420 L210 420 Z M370 526 C344 577 284 639 249 667 L200 667 C165 637 103 576 78 526 L86 516 C121 535 192 585 223 616 C254 585 323 536 362 516 L370 526 Z " />
<glyph glyph-name="Scedilla" unicode="&#x15e;" horiz-adv-x="657" d="M275 -115 C321 -97 367 -114 367 -158 C367 -193 346 -214 308 -214 C276 -214 256 -200 240 -177 L219 -192 C231 -223 265 -254 319 -254 C392 -254 437 -219 437 -158 C437 -95 375 -71 320 -81 C340 -63 351 -40 355 -20 C515 -20 618 65 618 202 C618 330 561 404 364 430 C220 449 159 477 159 548 C159 609 211 655 317 655 C435 655 503 601 533 477 L582 477 C575 540 578 641 595 700 L542 700 C538 672 527 650 475 676 C455 686 399 710 322 710 C152 710 78 609 78 495 C78 380 156 312 310 292 C464 271 537 241 537 157 C537 78 467 35 354 35 C212 35 140 102 111 230 L58 230 C65 155 62 66 48 -7 L101 -7 C106 25 118 59 167 30 C219 -1 267 -16 329 -19 C320 -51 301 -73 263 -97 L275 -115 Z " />
<glyph glyph-name="scedilla" unicode="&#x15f;" horiz-adv-x="446" d="M162 -115 C208 -97 254 -114 254 -158 C254 -193 233 -214 195 -214 C163 -214 143 -200 127 -177 L106 -192 C118 -223 152 -254 206 -254 C279 -254 324 -219 324 -158 C324 -95 262 -71 207 -81 C227 -63 238 -40 242 -20 C356 -18 411 39 411 135 C411 212 368 270 243 285 C136 298 113 318 113 358 C113 389 142 420 210 420 C279 420 330 395 351 313 C360 314 378 314 387 313 C385 372 385 404 390 467 C381 466 363 466 354 467 C349 427 343 427 325 440 C299 458 273 471 221 473 C111 477 37 412 37 323 C37 259 73 186 213 171 C313 160 337 134 337 101 C337 62 303 34 240 34 C153 34 101 92 75 176 C66 175 46 175 37 176 C42 114 40 53 33 -7 C42 -6 63 -6 72 -7 C76 25 81 47 109 26 C143 0 178 -15 216 -19 C207 -51 188 -73 150 -97 L162 -115 Z " />
<glyph glyph-name="Scaron" unicode="&#x160;" horiz-adv-x="657" d="M317 655 C435 655 503 601 533 477 L582 477 C575 540 578 641 595 700 L542 700 C538 672 527 650 475 676 C455 686 399 710 322 710 C152 710 78 609 78 495 C78 380 156 312 310 292 C464 271 537 241 537 157 C537 78 467 35 354 35 C212 35 140 102 111 230 L58 230 C65 155 62 66 48 -7 L101 -7 C106 25 118 59 167 30 C226 -5 280 -20 355 -20 C515 -20 618 65 618 202 C618 330 561 404 364 430 C220 449 159 477 159 548 C159 609 211 655 317 655 L317 655 Z M186 897 C212 846 272 784 307 756 L356 756 C391 786 453 847 478 897 L470 907 C435 888 364 838 333 807 C302 838 233 887 194 907 L186 897 Z " />
<glyph glyph-name="scaron" unicode="&#x161;" horiz-adv-x="446" d="M210 420 C279 420 330 395 351 313 C360 314 378 314 387 313 C385 372 385 404 390 467 C381 466 363 466 354 467 C349 427 343 427 325 440 C299 458 273 471 221 473 C111 477 37 412 37 323 C37 259 73 186 213 171 C313 160 337 134 337 101 C337 62 303 34 240 34 C153 34 101 92 75 176 C66 175 46 175 37 176 C42 114 40 53 33 -7 C42 -6 63 -6 72 -7 C76 25 81 47 109 26 C150 -5 192 -20 238 -20 C355 -20 411 38 411 135 C411 212 368 270 243 285 C136 298 113 318 113 358 C113 389 142 420 210 420 L210 420 Z M67 667 C93 616 153 554 188 526 L237 526 C272 556 334 617 359 667 L351 677 C316 658 245 608 214 577 C183 608 114 657 75 677 L67 667 Z " />
<glyph glyph-name="Tcommaaccent" unicode="&#x162;" horiz-adv-x="711" d="M302 -115 C348 -97 394 -114 394 -158 C394 -193 373 -214 335 -214 C303 -214 283 -200 267 -177 L246 -192 C258 -223 292 -254 346 -254 C419 -254 464 -219 464 -158 C464 -95 402 -71 347 -81 C374 -57 385 -23 384 0 C447 0 530 -2 530 -2 L530 59 L469 59 C424 59 415 81 413 119 C410 172 410 499 412 631 L493 631 C571 631 596 595 599 537 L603 438 L667 438 C664 499 667 633 672 694 C635 691 607 690 518 690 L194 690 C119 690 67 691 38 694 C43 633 46 499 43 438 L109 438 L113 537 C116 595 141 631 219 631 L298 631 C301 499 301 172 298 119 C296 81 282 59 238 59 L181 59 L181 -2 C181 -2 293 0 356 0 L360 0 C353 -43 335 -68 290 -97 L302 -115 Z " />
<glyph glyph-name="tcommaaccent" unicode="&#x163;" horiz-adv-x="323" d="M123 -115 C169 -97 215 -114 215 -158 C215 -193 194 -214 156 -214 C124 -214 104 -200 88 -177 L67 -192 C79 -223 113 -254 167 -254 C240 -254 285 -219 285 -158 C285 -95 223 -71 168 -81 C190 -62 202 -35 204 -14 C298 -10 314 64 307 143 L271 141 C276 61 261 36 228 37 C197 38 187 62 186 146 C185 222 184 331 185 410 L291 409 L291 459 L186 453 C188 510 191 597 197 642 L152 642 C137 509 100 457 18 449 L18 409 L75 410 C76 347 76 215 75 140 C73 45 103 -6 178 -13 C170 -48 152 -71 111 -97 L123 -115 Z " />
<glyph glyph-name="Tcaron" unicode="&#x164;" horiz-adv-x="711" d="M493 631 C571 631 596 595 599 537 L603 438 L667 438 C664 499 667 633 672 694 C635 691 607 690 518 690 L194 690 C119 690 67 691 38 694 C43 633 46 499 43 438 L109 438 L113 537 C116 595 141 631 219 631 L298 631 C301 499 301 172 298 119 C296 81 282 59 238 59 L181 59 L181 -2 C181 -2 293 0 356 0 C419 0 530 -2 530 -2 L530 59 L469 59 C424 59 415 81 413 119 C410 172 410 499 412 631 L493 631 Z M209 897 C235 846 295 784 330 756 L379 756 C414 786 476 847 501 897 L493 907 C458 888 387 838 356 807 C325 838 256 887 217 907 L209 897 Z " />
<glyph glyph-name="tcaron" unicode="&#x165;" horiz-adv-x="428" d="M271 141 C276 61 261 36 228 37 C197 38 187 62 186 146 C185 222 184 331 185 410 L291 409 L291 459 L186 453 C188 510 191 597 197 642 L152 642 C137 509 100 457 18 449 L18 409 L75 410 C76 347 76 215 75 140 C73 38 108 -14 197 -14 C297 -14 314 62 307 143 L271 141 Z M266 513 L272 493 C361 516 400 574 400 640 C400 679 384 710 342 710 C308 710 285 686 285 656 C285 623 301 608 328 608 C350 608 367 619 374 637 C376 573 336 532 266 513 L266 513 Z " />
<glyph glyph-name="Tbar" unicode="&#x166;" horiz-adv-x="711" d="M493 631 C571 631 596 595 599 537 L603 438 L667 438 C664 499 667 633 672 694 C635 691 607 690 518 690 L194 690 C119 690 67 691 38 694 C43 633 46 499 43 438 L109 438 L113 537 C116 595 141 631 219 631 L298 631 C299 558 300 428 300 315 C243 319 192 321 171 321 L171 269 C192 269 243 271 300 274 C299 201 299 139 298 119 C296 81 282 59 238 59 L181 59 L181 -2 C181 -2 293 0 356 0 C419 0 530 -2 530 -2 L530 59 L469 59 C424 59 415 81 413 119 C412 139 411 200 410 274 C467 271 517 269 540 269 L540 321 L410 315 C410 428 411 558 412 631 L493 631 Z " />
<glyph glyph-name="tbar" unicode="&#x167;" horiz-adv-x="323" d="M271 141 C276 61 261 36 228 37 C197 38 187 62 186 146 C185 184 184 231 184 278 C225 276 270 274 291 272 L291 323 C270 321 224 320 184 318 C184 350 184 382 185 410 L291 409 L291 459 L186 453 C188 510 191 597 197 642 L152 642 C137 509 100 457 18 449 L18 409 L75 410 C75 387 76 353 76 319 C55 321 36 322 18 323 L18 272 L76 276 C76 227 75 176 75 140 C75 38 108 -14 197 -14 C297 -14 314 62 307 143 L271 141 Z " />
<glyph glyph-name="Utilde" unicode="&#x168;" horiz-adv-x="843" d="M136 282 C136 66 237 -21 431 -21 C617 -21 706 82 706 281 C706 357 704 459 706 571 C707 610 722 631 758 631 L805 631 L805 690 C789 690 714 687 662 687 C610 687 518 690 518 690 L518 631 L564 631 C600 631 621 611 622 572 C624 459 622 358 622 273 C622 102 557 51 440 51 C322 51 259 108 259 273 L259 572 C259 619 278 631 318 631 L364 631 L364 690 C348 690 260 687 201 687 C142 687 38 690 38 690 L38 631 L84 631 C123 631 135 615 136 572 C138 510 136 282 136 282 L136 282 Z M557 889 C570 822 555 794 526 794 C499 794 485 814 461 849 C434 888 411 902 375 902 C308 902 257 859 287 760 L306 764 C293 831 307 859 336 859 C363 859 373 843 399 805 C419 775 440 751 488 751 C550 751 606 794 576 893 L557 889 Z " />
<glyph glyph-name="utilde" unicode="&#x169;" horiz-adv-x="620" d="M521 462 C499 459 467 459 431 459 L319 459 L319 409 L334 409 C392 409 412 394 412 349 L412 245 C412 102 375 39 300 39 C272 39 208 51 208 177 L208 325 C208 369 208 409 211 462 C191 460 151 459 113 459 L21 459 L21 409 L41 409 C89 409 100 390 102 349 C104 304 103 230 102 173 C99 23 179 -20 257 -20 C342 -20 388 24 412 91 L412 -3 C451 0 554 0 599 0 L599 50 L577 50 C536 49 519 71 518 107 C517 159 516 279 517 325 C518 359 518 416 521 462 L521 462 Z M425 659 C438 592 423 564 394 564 C367 564 353 584 329 619 C302 658 279 672 243 672 C176 672 125 629 155 530 L174 534 C161 601 175 629 204 629 C231 629 241 613 267 575 C287 545 308 521 356 521 C418 521 474 564 444 663 L425 659 Z " />
<glyph glyph-name="Umacron" unicode="&#x16a;" horiz-adv-x="843" d="M136 282 C136 66 237 -21 431 -21 C617 -21 706 82 706 281 C706 357 704 459 706 571 C707 610 722 631 758 631 L805 631 L805 690 C789 690 714 687 662 687 C610 687 518 690 518 690 L518 631 L564 631 C600 631 621 611 622 572 C624 459 622 358 622 273 C622 102 557 51 440 51 C322 51 259 108 259 273 L259 572 C259 619 278 631 318 631 L364 631 L364 690 C348 690 260 687 201 687 C142 687 38 690 38 690 L38 631 L84 631 C123 631 135 615 136 572 C138 510 136 282 136 282 L136 282 Z M323 763 C384 765 518 765 579 763 C578 784 578 804 579 825 C518 823 384 823 323 825 C324 804 324 783 323 763 L323 763 Z " />
<glyph glyph-name="umacron" unicode="&#x16b;" horiz-adv-x="620" d="M521 462 C499 459 467 459 431 459 L319 459 L319 409 L334 409 C392 409 412 394 412 349 L412 245 C412 102 375 39 300 39 C272 39 208 51 208 177 L208 325 C208 369 208 409 211 462 C191 460 151 459 113 459 L21 459 L21 409 L41 409 C89 409 100 390 102 349 C104 304 103 230 102 173 C99 23 179 -20 257 -20 C342 -20 388 24 412 91 L412 -3 C451 0 554 0 599 0 L599 50 L577 50 C536 49 519 71 518 107 C517 159 516 279 517 325 C518 359 518 416 521 462 L521 462 Z M166 537 C227 539 361 539 422 537 C421 558 421 578 422 599 C361 597 227 597 166 599 C167 578 167 557 166 537 L166 537 Z " />
<glyph glyph-name="Ubreve" unicode="&#x16c;" horiz-adv-x="843" d="M136 282 C136 66 237 -21 431 -21 C617 -21 706 82 706 281 C706 357 704 459 706 571 C707 610 722 631 758 631 L805 631 L805 690 C789 690 714 687 662 687 C610 687 518 690 518 690 L518 631 L564 631 C600 631 621 611 622 572 C624 459 622 358 622 273 C622 102 557 51 440 51 C322 51 259 108 259 273 L259 572 C259 619 278 631 318 631 L364 631 L364 690 C348 690 260 687 201 687 C142 687 38 690 38 690 L38 631 L84 631 C123 631 135 615 136 572 C138 510 136 282 136 282 L136 282 Z M447 751 C544 751 595 816 584 896 L570 898 C566 832 516 820 447 820 C378 820 328 832 324 898 L310 896 C299 816 350 751 447 751 L447 751 Z " />
<glyph glyph-name="ubreve" unicode="&#x16d;" horiz-adv-x="620" d="M521 462 C499 459 467 459 431 459 L319 459 L319 409 L334 409 C392 409 412 394 412 349 L412 245 C412 102 375 39 300 39 C272 39 208 51 208 177 L208 325 C208 369 208 409 211 462 C191 460 151 459 113 459 L21 459 L21 409 L41 409 C89 409 100 390 102 349 C104 304 103 230 102 173 C99 23 179 -20 257 -20 C342 -20 388 24 412 91 L412 -3 C451 0 554 0 599 0 L599 50 L577 50 C536 49 519 71 518 107 C517 159 516 279 517 325 C518 359 518 416 521 462 L521 462 Z M280 526 C377 526 428 591 417 671 L403 673 C399 607 349 595 280 595 C211 595 161 607 157 673 L143 671 C132 591 183 526 280 526 L280 526 Z " />
<glyph glyph-name="Uring" unicode="&#x16e;" horiz-adv-x="843" d="M136 282 C136 66 237 -21 431 -21 C617 -21 706 82 706 281 C706 357 704 459 706 571 C707 610 722 631 758 631 L805 631 L805 690 C789 690 714 687 662 687 C610 687 518 690 518 690 L518 631 L564 631 C600 631 621 611 622 572 C624 459 622 358 622 273 C622 102 557 51 440 51 C322 51 259 108 259 273 L259 572 C259 619 278 631 318 631 L364 631 L364 690 C348 690 260 687 201 687 C142 687 38 690 38 690 L38 631 L84 631 C123 631 135 615 136 572 C138 510 136 282 136 282 L136 282 Z M493 830 C493 797 474 778 446 778 C417 778 399 797 399 830 C399 863 417 880 446 880 C474 880 493 863 493 830 L493 830 Z M529 830 C529 879 494 913 445 913 C395 913 362 879 362 830 C362 781 397 746 446 746 C495 746 529 781 529 830 L529 830 Z " />
<glyph glyph-name="uring" unicode="&#x16f;" horiz-adv-x="620" d="M521 462 C499 459 467 459 431 459 L319 459 L319 409 L334 409 C392 409 412 394 412 349 L412 245 C412 102 375 39 300 39 C272 39 208 51 208 177 L208 325 C208 369 208 409 211 462 C191 460 151 459 113 459 L21 459 L21 409 L41 409 C89 409 100 390 102 349 C104 304 103 230 102 173 C99 23 179 -20 257 -20 C342 -20 388 24 412 91 L412 -3 C451 0 554 0 599 0 L599 50 L577 50 C536 49 519 71 518 107 C517 159 516 279 517 325 C518 359 518 416 521 462 L521 462 Z M318 605 C318 572 299 553 271 553 C242 553 224 572 224 605 C224 638 242 655 271 655 C299 655 318 638 318 605 L318 605 Z M354 605 C354 654 319 688 270 688 C220 688 187 654 187 605 C187 556 222 521 271 521 C320 521 354 556 354 605 L354 605 Z " />
<glyph glyph-name="Uhungarumlaut" unicode="&#x170;" horiz-adv-x="843" d="M136 282 C136 66 237 -21 431 -21 C617 -21 706 82 706 281 C706 357 704 459 706 571 C707 610 722 631 758 631 L805 631 L805 690 C789 690 714 687 662 687 C610 687 518 690 518 690 L518 631 L564 631 C600 631 621 611 622 572 C624 459 622 358 622 273 C622 102 557 51 440 51 C322 51 259 108 259 273 L259 572 C259 619 278 631 318 631 L364 631 L364 690 C348 690 260 687 201 687 C142 687 38 690 38 690 L38 631 L84 631 C123 631 135 615 136 572 C138 510 136 282 136 282 L136 282 Z M366 750 C416 784 477 832 507 863 C544 900 496 943 460 906 C429 874 389 809 357 758 L366 750 Z M530 750 C580 784 641 832 671 863 C708 900 661 942 624 906 C593 875 553 810 521 758 L530 750 Z " />
<glyph glyph-name="uhungarumlaut" unicode="&#x171;" horiz-adv-x="620" d="M521 462 C499 459 467 459 431 459 L319 459 L319 409 L334 409 C392 409 412 394 412 349 L412 245 C412 102 375 39 300 39 C272 39 208 51 208 177 L208 325 C208 369 208 409 211 462 C191 460 151 459 113 459 L21 459 L21 409 L41 409 C89 409 100 390 102 349 C104 304 103 230 102 173 C99 23 179 -20 257 -20 C342 -20 388 24 412 91 L412 -3 C451 0 554 0 599 0 L599 50 L577 50 C536 49 519 71 518 107 C517 159 516 279 517 325 C518 359 518 416 521 462 L521 462 Z M195 520 C245 554 306 602 336 633 C373 670 325 713 289 676 C258 644 218 579 186 528 L195 520 Z M359 520 C409 554 470 602 500 633 C537 670 490 712 453 676 C422 645 382 580 350 528 L359 520 Z " />
<glyph glyph-name="Uogonek" unicode="&#x172;" horiz-adv-x="843" d="M564 -84 L539 -80 C533 -124 510 -151 471 -151 C440 -151 412 -133 412 -93 C412 -64 424 -40 445 -21 C622 -16 706 87 706 281 C706 357 704 459 706 571 C707 610 722 631 758 631 L805 631 L805 690 C789 690 714 687 662 687 C610 687 518 690 518 690 L518 631 L564 631 C600 631 621 611 622 572 C624 459 622 358 622 273 C622 102 557 51 440 51 C322 51 259 108 259 273 L259 572 C259 619 278 631 318 631 L364 631 L364 690 C348 690 260 687 201 687 C142 687 38 690 38 690 L38 631 L84 631 C123 631 135 615 136 572 C138 510 136 282 136 282 C136 79 225 -10 397 -20 C366 -43 344 -72 343 -114 C341 -171 386 -206 446 -206 C521 -206 560 -168 564 -84 L564 -84 Z " />
<glyph glyph-name="uogonek" unicode="&#x173;" horiz-adv-x="620" d="M638 -84 L613 -80 C607 -124 584 -151 545 -151 C514 -151 486 -133 486 -93 C486 -53 511 -21 548 0 L599 0 L599 50 L577 50 C536 49 519 71 518 107 C517 159 516 279 517 325 C518 359 518 416 521 462 C499 459 467 459 431 459 L319 459 L319 409 L334 409 C392 409 412 394 412 349 L412 245 C412 102 375 39 300 39 C272 39 208 51 208 177 L208 325 C208 369 208 409 211 462 C191 460 151 459 113 459 L21 459 L21 409 L41 409 C89 409 100 390 102 349 C104 304 103 230 102 173 C99 23 179 -20 257 -20 C342 -20 388 24 412 91 L412 -3 C431 -1 466 0 502 0 C455 -25 419 -60 417 -114 C415 -171 460 -206 520 -206 C595 -206 634 -168 638 -84 L638 -84 Z " />
<glyph glyph-name="Wcircumflex" unicode="&#x174;" horiz-adv-x="1102" d="M794 -6 C829 128 918 418 961 552 C980 611 1000 631 1045 631 L1082 631 L1082 690 C1069 690 1001 687 955 687 C909 687 822 690 822 690 L822 631 L840 631 C894 631 903 605 893 553 C873 451 815 242 777 121 C739 245 680 463 652 568 C641 610 653 631 693 631 L725 631 L725 690 C712 690 635 687 584 687 C533 687 443 690 443 690 L443 631 L463 631 C512 631 520 612 509 564 C485 457 421 242 381 119 C344 242 283 458 257 563 C244 612 258 631 302 631 L340 631 L340 690 C327 690 238 687 180 687 C122 687 20 690 20 690 L20 631 L59 631 C105 631 119 611 133 563 C173 425 259 131 294 -6 L395 -6 C427 112 501 357 548 498 C591 357 662 112 692 -6 L794 -6 Z M727 756 C701 807 641 869 606 897 L557 897 C522 867 460 806 435 756 L443 746 C478 765 549 815 580 846 C611 815 680 766 719 746 L727 756 Z " />
<glyph glyph-name="wcircumflex" unicode="&#x175;" horiz-adv-x="829" d="M514 -17 L572 -17 C597 68 661 253 694 338 C714 391 740 409 786 409 L809 409 L809 459 C809 459 737 456 703 456 C670 456 598 459 598 459 L598 409 L617 409 C657 409 664 381 652 339 C637 287 603 181 578 115 C552 184 517 295 501 350 C491 386 503 409 539 409 L551 409 L551 459 C551 459 480 456 435 456 C390 456 323 459 323 459 L323 409 L340 409 C388 409 388 372 380 340 C367 286 329 177 304 111 C278 180 241 293 225 350 C213 394 237 409 263 409 L275 409 L275 459 C275 459 193 456 147 456 C102 456 20 459 20 459 L20 409 L32 409 C82 409 95 389 109 353 C144 264 211 72 238 -17 L296 -17 C318 58 373 219 404 300 C436 219 492 58 514 -17 L514 -17 Z M580 526 C554 577 494 639 459 667 L410 667 C375 637 313 576 288 526 L296 516 C331 535 402 585 433 616 C464 585 533 536 572 516 L580 526 Z " />
<glyph glyph-name="Ycircumflex" unicode="&#x176;" horiz-adv-x="805" d="M626 561 C657 614 680 631 759 631 L785 631 L785 690 C785 690 688 687 633 687 C578 687 480 690 480 690 L480 631 L516 631 C581 631 577 602 560 564 C529 497 467 375 427 302 C385 371 311 505 282 564 C264 603 274 631 332 631 L382 631 L382 690 C382 690 266 687 201 687 C136 687 20 690 20 690 L20 631 L36 631 C97 631 125 612 152 567 C197 489 282 333 331 236 L331 110 C331 71 326 58 271 58 L204 58 L204 -2 C204 -2 323 0 390 0 C457 0 575 -2 575 -2 L575 58 L507 58 C453 58 448 69 448 110 L448 237 C497 332 581 485 626 561 L626 561 Z M575 756 C549 807 489 869 454 897 L405 897 C370 867 308 806 283 756 L291 746 C326 765 397 815 428 846 C459 815 528 766 567 746 L575 756 Z " />
<glyph glyph-name="ycircumflex" unicode="&#x177;" horiz-adv-x="571" d="M389 355 C383 335 339 213 308 126 C278 197 238 301 221 355 C210 390 220 409 258 409 L279 409 L279 459 C279 459 212 456 144 456 C77 456 10 459 10 459 L10 409 L25 409 C62 409 84 395 102 354 C136 276 203 109 230 32 L275 32 C228 -121 172 -158 110 -158 C95 -158 83 -156 74 -154 C116 -149 135 -118 135 -89 C135 -49 111 -30 70 -30 C40 -30 2 -50 2 -105 C2 -150 33 -191 106 -191 C212 -191 258 -119 296 -17 C329 71 402 264 441 353 C458 390 477 409 530 409 L551 409 L551 459 C551 459 500 456 447 456 C389 456 329 459 329 459 L329 409 L351 409 C386 409 398 386 389 355 L389 355 Z M451 526 C425 577 365 639 330 667 L281 667 C246 637 184 576 159 526 L167 516 C202 535 273 585 304 616 C335 585 404 536 443 516 L451 526 Z " />
<glyph glyph-name="Ydieresis" unicode="&#x178;" horiz-adv-x="805" d="M626 561 C657 614 680 631 759 631 L785 631 L785 690 C785 690 688 687 633 687 C578 687 480 690 480 690 L480 631 L516 631 C581 631 577 602 560 564 C529 497 467 375 427 302 C385 371 311 505 282 564 C264 603 274 631 332 631 L382 631 L382 690 C382 690 266 687 201 687 C136 687 20 690 20 690 L20 631 L36 631 C97 631 125 612 152 567 C197 489 282 333 331 236 L331 110 C331 71 326 58 271 58 L204 58 L204 -2 C204 -2 323 0 390 0 C457 0 575 -2 575 -2 L575 58 L507 58 C453 58 448 69 448 110 L448 237 C497 332 581 485 626 561 L626 561 Z M402 812 C402 842 380 866 347 866 C314 866 292 842 292 812 C292 782 314 758 347 758 C380 758 402 782 402 812 L402 812 Z M572 812 C572 842 550 866 517 866 C484 866 462 842 462 812 C462 782 484 758 517 758 C550 758 572 782 572 812 L572 812 Z " />
<glyph glyph-name="Zacute" unicode="&#x179;" horiz-adv-x="663" d="M38 0 L431 0 C506 0 574 0 623 -2 C619 57 621 193 625 252 L561 252 C561 97 532 59 409 59 L184 59 C301 215 510 495 619 631 L619 690 L279 690 C197 690 120 690 67 692 C70 639 69 491 64 438 L129 438 C129 613 160 631 311 631 L472 631 C358 478 147 193 38 58 L38 0 Z M302 746 C356 773 423 812 458 839 C499 870 459 918 417 888 C382 861 333 803 294 756 L302 746 Z " />
<glyph glyph-name="zacute" unicode="&#x17a;" horiz-adv-x="474" d="M292 0 C378 0 445 -3 445 -3 C437 64 440 128 449 188 L406 188 C400 84 352 44 292 44 L160 44 C232 146 368 334 438 424 L436 459 L208 459 C123 459 49 464 49 464 C56 400 53 336 46 283 L89 283 C96 386 133 414 208 414 L299 414 C229 311 95 126 27 37 L27 0 L292 0 Z M239 516 C293 543 360 582 395 609 C436 640 396 688 354 658 C319 631 270 573 231 526 L239 516 Z " />
<glyph glyph-name="Zdotaccent" unicode="&#x17b;" horiz-adv-x="663" d="M38 0 L431 0 C506 0 574 0 623 -2 C619 57 621 193 625 252 L561 252 C561 97 532 59 409 59 L184 59 C301 215 510 495 619 631 L619 690 L279 690 C197 690 120 690 67 692 C70 639 69 491 64 438 L129 438 C129 613 160 631 311 631 L472 631 C358 478 147 193 38 58 L38 0 Z M405 831 C405 861 381 885 351 885 C322 885 298 861 298 831 C298 801 322 777 351 777 C381 777 405 801 405 831 L405 831 Z " />
<glyph glyph-name="zdotaccent" unicode="&#x17c;" horiz-adv-x="474" d="M292 0 C378 0 445 -3 445 -3 C437 64 440 128 449 188 L406 188 C400 84 352 44 292 44 L160 44 C232 146 368 334 438 424 L436 459 L208 459 C123 459 49 464 49 464 C56 400 53 336 46 283 L89 283 C96 386 133 414 208 414 L299 414 C229 311 95 126 27 37 L27 0 L292 0 Z M302 601 C302 631 278 655 248 655 C219 655 195 631 195 601 C195 571 219 547 248 547 C278 547 302 571 302 601 L302 601 Z " />
<glyph glyph-name="Zcaron" unicode="&#x17d;" horiz-adv-x="663" d="M38 0 L431 0 C506 0 574 0 623 -2 C619 57 621 193 625 252 L561 252 C561 97 532 59 409 59 L184 59 C301 215 510 495 619 631 L619 690 L279 690 C197 690 120 690 67 692 C70 639 69 491 64 438 L129 438 C129 613 160 631 311 631 L472 631 C358 478 147 193 38 58 L38 0 Z M205 897 C231 846 291 784 326 756 L375 756 C410 786 472 847 497 897 L489 907 C454 888 383 838 352 807 C321 838 252 887 213 907 L205 897 Z " />
<glyph glyph-name="zcaron" unicode="&#x17e;" horiz-adv-x="474" d="M292 0 C378 0 445 -3 445 -3 C437 64 440 128 449 188 L406 188 C400 84 352 44 292 44 L160 44 C232 146 368 334 438 424 L436 459 L208 459 C123 459 49 464 49 464 C56 400 53 336 46 283 L89 283 C96 386 133 414 208 414 L299 414 C229 311 95 126 27 37 L27 0 L292 0 Z M112 667 C138 616 198 554 233 526 L282 526 C317 556 379 617 404 667 L396 677 C361 658 290 608 259 577 C228 608 159 657 120 677 L112 667 Z " />
<glyph glyph-name="longs" unicode="&#x17f;" horiz-adv-x="346" d="M289 50 L252 50 C216 50 209 71 208 99 L208 523 C209 629 240 658 295 658 C322 658 341 647 353 632 L348 632 C311 632 288 612 288 578 C288 544 312 523 348 523 C387 523 411 547 411 587 C411 644 361 695 277 695 C167 695 97 638 102 479 C104 409 105 174 102 99 C101 71 88 50 56 50 L21 50 L21 -3 C31 -3 107 0 155 0 C203 0 272 -3 289 -3 L289 50 Z " />
<glyph glyph-name="florin" unicode="&#x192;" horiz-adv-x="539" d="M109 373 L211 376 C211 367 211 359 212 350 C232 74 209 15 119 15 C76 15 54 31 45 52 C52 50 59 49 68 49 C100 49 122 67 122 99 C122 130 100 148 68 148 C27 148 5 118 5 79 C5 28 42 -20 123 -20 C243 -20 344 58 329 376 L443 373 L443 418 L327 414 C316 648 364 668 432 668 C464 668 485 654 495 631 C488 633 482 634 476 634 C435 634 413 615 413 579 C413 545 438 525 474 525 C516 525 540 551 540 599 C540 657 501 707 415 707 C321 707 214 663 211 414 L109 417 L109 373 Z " />
<glyph glyph-name="uni01B5" unicode="&#x1b5;" horiz-adv-x="663" d="M38 0 L431 0 C506 0 574 0 623 -2 C619 57 621 193 625 252 L561 252 C561 97 532 59 409 59 L184 59 L368 304 C425 301 480 296 511 296 L511 350 C486 349 444 346 398 343 C481 453 563 561 619 631 L619 690 L279 690 C197 690 120 690 67 692 C70 639 69 491 64 438 L129 438 C129 613 160 631 311 631 L472 631 C416 555 336 448 257 343 C197 347 129 350 112 350 L112 296 C131 296 178 299 226 302 C155 208 86 118 38 58 L38 0 Z " />
<glyph glyph-name="uni01B6" unicode="&#x1b6;" horiz-adv-x="474" d="M292 0 C378 0 445 -3 445 -3 C437 64 440 128 449 188 L406 188 C400 84 352 44 292 44 L160 44 C191 88 234 149 279 210 C330 218 385 228 408 232 L401 272 C384 268 345 258 305 246 C355 314 404 380 438 424 L436 459 L208 459 C123 459 49 464 49 464 C56 400 53 336 46 283 L89 283 C96 386 133 414 208 414 L299 414 C262 360 209 285 156 212 L45 196 L52 156 C65 158 95 165 129 174 L27 37 L27 0 L292 0 Z " />
<glyph glyph-name="uni01FA" unicode="&#x1fa;" horiz-adv-x="882" d="M574 155 C597 93 580 59 532 59 L488 59 L487 -2 C487 -2 602 0 666 0 C730 0 844 -2 844 -2 L844 59 L799 59 C758 59 738 82 712 141 C686 200 535 578 495 696 C495 696 459 693 439 693 C419 693 382 696 382 696 C340 579 202 203 178 142 C154 81 131 59 75 59 L38 59 L38 -2 C38 -2 137 0 192 0 C247 0 346 -2 346 -2 L347 59 L304 59 C239 59 233 97 250 153 C253 164 261 187 271 215 C347 217 479 217 552 215 L574 155 Z M533 267 C464 266 360 266 289 267 C327 374 381 523 409 594 C438 523 494 374 533 267 L533 267 Z M488 830 C488 797 469 778 441 778 C412 778 394 797 394 830 C394 863 412 880 441 880 C469 880 488 863 488 830 L488 830 Z M524 830 C524 879 489 913 440 913 C390 913 357 879 357 830 C357 781 392 746 441 746 C490 746 524 781 524 830 L524 830 Z M378 935 C432 962 499 1001 534 1028 C575 1059 535 1107 493 1077 C458 1050 409 992 370 945 L378 935 Z " />
<glyph glyph-name="aringacute" unicode="&#x1fb;" horiz-adv-x="527" d="M413 288 C413 396 376 473 233 473 C141 473 46 437 46 365 C46 320 73 298 114 298 C156 298 181 321 181 359 C181 390 163 411 131 417 C148 425 170 430 201 431 C290 432 308 389 308 297 L308 266 C174 257 30 224 30 107 C30 32 72 -13 166 -13 C238 -13 283 27 309 77 C314 25 342 -14 411 -14 C491 -14 509 46 506 157 L467 154 C470 79 459 41 437 41 C424 41 413 48 413 92 L413 288 Z M211 43 C173 43 149 66 149 112 C149 191 212 229 308 240 L308 185 C308 87 271 43 211 43 L211 43 Z M281 605 C281 572 262 553 234 553 C205 553 187 572 187 605 C187 638 205 655 234 655 C262 655 281 638 281 605 L281 605 Z M317 605 C317 654 282 688 233 688 C183 688 150 654 150 605 C150 556 185 521 234 521 C283 521 317 556 317 605 L317 605 Z M184 711 C238 738 305 777 340 804 C381 835 341 883 299 853 C264 826 215 768 176 721 L184 711 Z " />
<glyph glyph-name="AEacute" unicode="&#x1fc;" horiz-adv-x="1076" d="M1037 264 L976 264 L976 253 C976 122 935 59 815 59 L672 59 C644 59 622 73 620 111 C618 140 617 232 617 327 L671 327 C762 325 796 288 798 204 L798 192 L851 192 C848 243 848 278 848 352 C848 425 850 448 851 506 L796 506 L796 491 C796 405 758 377 679 375 L617 375 C617 467 618 554 620 581 C622 609 634 628 667 628 L817 628 C932 628 973 589 973 450 L973 444 L1027 445 C1026 517 1027 622 1033 695 C986 689 869 689 826 689 C686 689 576 688 557 688 C538 688 428 688 379 693 L379 639 L404 639 C447 639 464 612 439 565 C354 404 225 193 194 142 C158 81 130 59 74 59 L38 59 L38 -2 C38 -2 137 0 192 0 C247 0 346 -2 346 -2 L347 59 L314 59 C249 59 254 97 280 153 L305 205 C364 207 437 207 499 206 C499 164 498 132 497 119 C494 84 484 59 438 59 L382 59 L382 -2 C422 0 519 0 552 0 L839 0 C882 0 980 0 1027 -4 C1027 82 1030 190 1037 264 L1037 264 Z M332 257 C377 343 441 462 498 559 C500 499 500 364 500 257 C446 256 385 256 332 257 L332 257 Z M673 746 C727 773 794 812 829 839 C870 870 830 918 788 888 C753 861 704 803 665 756 L673 746 Z " />
<glyph glyph-name="aeacute" unicode="&#x1fd;" horiz-adv-x="765" d="M716 121 L667 133 C652 77 620 37 538 37 C455 37 425 81 423 211 L722 211 C732 362 669 473 520 473 C464 473 408 454 376 418 C348 451 306 473 233 473 C141 473 47 439 47 365 C47 322 75 298 115 298 C151 298 180 320 180 359 C180 391 164 411 130 416 C152 426 181 431 212 431 C275 431 306 381 306 298 L306 266 C173 256 30 224 30 107 C30 32 72 -13 166 -13 C252 -13 303 27 325 83 C355 19 420 -17 519 -17 C626 -17 692 36 716 121 L716 121 Z M515 426 C571 426 596 362 596 270 C596 249 591 245 576 245 L423 245 C425 379 455 426 515 426 L515 426 Z M306 191 C306 86 266 46 208 46 C170 46 149 66 149 112 C149 191 211 229 306 240 L306 191 Z M338 516 C392 543 459 582 494 609 C535 640 495 688 453 658 C418 631 369 573 330 526 L338 516 Z " />
<glyph glyph-name="Oslashacute" unicode="&#x1fe;" horiz-adv-x="770" d="M385 -20 C579 -20 720 113 720 347 C720 459 693 548 641 609 L715 716 L692 734 L606 643 C551 687 478 710 385 710 C191 710 50 581 50 346 C50 229 79 136 136 74 L65 -23 L90 -43 L172 41 C226 1 297 -20 385 -20 L385 -20 Z M185 346 C185 555 249 656 385 656 C462 656 515 630 547 571 L378 354 L207 156 C191 203 185 266 185 346 L185 346 Z M385 35 C308 35 258 58 227 110 L401 333 L567 521 C580 476 586 418 586 347 C586 140 533 35 385 35 L385 35 Z M356 746 C410 773 477 812 512 839 C553 870 513 918 471 888 C436 861 387 803 348 756 L356 746 Z " />
<glyph glyph-name="oslashacute" unicode="&#x1ff;" horiz-adv-x="534" d="M40 223 C40 146 62 85 100 44 L99 43 L47 -29 L64 -43 L123 19 L125 22 C163 -5 211 -20 267 -20 C400 -20 494 66 494 223 C494 306 472 367 434 408 L488 488 L472 501 L408 431 C370 459 322 473 267 473 C134 473 40 394 40 223 L40 223 Z M374 223 C374 52 328 23 267 23 C226 23 194 35 176 90 L275 221 L366 326 C371 299 374 265 374 223 L374 223 Z M162 223 C162 391 204 430 266 430 C304 430 337 415 356 363 L261 236 L168 126 C164 151 162 183 162 223 L162 223 Z M240 516 C294 543 361 582 396 609 C437 640 397 688 355 658 C320 631 271 573 232 526 L240 516 Z " />
<glyph glyph-name="Scommaaccent" unicode="&#x218;" horiz-adv-x="657" d="M317 655 C435 655 503 601 533 477 L582 477 C575 540 578 641 595 700 L542 700 C538 672 527 650 475 676 C455 686 399 710 322 710 C152 710 78 609 78 495 C78 380 156 312 310 292 C464 271 537 241 537 157 C537 78 467 35 354 35 C212 35 140 102 111 230 L58 230 C65 155 62 66 48 -7 L101 -7 C106 25 118 59 167 30 C226 -5 280 -20 355 -20 C515 -20 618 65 618 202 C618 330 561 404 364 430 C220 449 159 477 159 548 C159 609 211 655 317 655 L317 655 Z M270 -259 L276 -279 C365 -256 404 -198 404 -132 C404 -93 388 -62 346 -62 C312 -62 289 -86 289 -116 C289 -149 305 -164 332 -164 C354 -164 371 -153 378 -135 C380 -199 340 -240 270 -259 L270 -259 Z " />
<glyph glyph-name="scommaaccent" unicode="&#x219;" horiz-adv-x="446" d="M210 420 C279 420 330 395 351 313 C360 314 378 314 387 313 C385 372 385 404 390 467 C381 466 363 466 354 467 C349 427 343 427 325 440 C299 458 273 471 221 473 C111 477 37 412 37 323 C37 259 73 186 213 171 C313 160 337 134 337 101 C337 62 303 34 240 34 C153 34 101 92 75 176 C66 175 46 175 37 176 C42 114 40 53 33 -7 C42 -6 63 -6 72 -7 C76 25 81 47 109 26 C150 -5 192 -20 238 -20 C355 -20 411 38 411 135 C411 212 368 270 243 285 C136 298 113 318 113 358 C113 389 142 420 210 420 L210 420 Z M151 -259 L157 -279 C246 -256 285 -198 285 -132 C285 -93 269 -62 227 -62 C193 -62 170 -86 170 -116 C170 -149 186 -164 213 -164 C235 -164 252 -153 259 -135 C261 -199 221 -240 151 -259 L151 -259 Z " />
<glyph glyph-name="uni021A" unicode="&#x21a;" horiz-adv-x="711" d="M493 631 C571 631 596 595 599 537 L603 438 L667 438 C664 499 667 633 672 694 C635 691 607 690 518 690 L194 690 C119 690 67 691 38 694 C43 633 46 499 43 438 L109 438 L113 537 C116 595 141 631 219 631 L298 631 C301 499 301 172 298 119 C296 81 282 59 238 59 L181 59 L181 -2 C181 -2 293 0 356 0 C419 0 530 -2 530 -2 L530 59 L469 59 C424 59 415 81 413 119 C410 172 410 499 412 631 L493 631 Z M277 -249 L283 -269 C372 -246 411 -188 411 -122 C411 -83 395 -52 353 -52 C319 -52 296 -76 296 -106 C296 -139 312 -154 339 -154 C361 -154 378 -143 385 -125 C387 -189 347 -230 277 -249 L277 -249 Z " />
<glyph glyph-name="uni021B" unicode="&#x21b;" horiz-adv-x="323" d="M271 141 C276 61 261 36 228 37 C197 38 187 62 186 146 C185 222 184 331 185 410 L291 409 L291 459 L186 453 C188 510 191 597 197 642 L152 642 C137 509 100 457 18 449 L18 409 L75 410 C76 347 76 215 75 140 C73 38 108 -14 197 -14 C297 -14 314 62 307 143 L271 141 Z M100 -259 L106 -279 C195 -256 234 -198 234 -132 C234 -93 218 -62 176 -62 C142 -62 119 -86 119 -116 C119 -149 135 -164 162 -164 C184 -164 201 -153 208 -135 C210 -199 170 -240 100 -259 L100 -259 Z " />
<glyph glyph-name="uni0237" unicode="&#x237;" horiz-adv-x="302" d="M59 -99 C59 -64 36 -43 0 -43 C-41 -43 -65 -66 -65 -105 C-65 -165 -15 -201 61 -201 C161 -201 222 -145 222 0 C222 146 219 383 222 462 C183 459 79 459 34 459 L34 409 L62 409 C99 409 114 389 116 357 C118 323 116 19 116 -36 C116 -141 88 -164 41 -164 C18 -164 2 -159 -11 -150 C42 -157 59 -122 59 -99 L59 -99 Z " />
<glyph glyph-name="circumflex" unicode="&#x2c6;" horiz-adv-x="532" d="M400 526 C374 577 314 639 279 667 L230 667 C195 637 133 576 108 526 L116 516 C151 535 222 585 253 616 C284 585 353 536 392 516 L400 526 Z " />
<glyph glyph-name="caron" unicode="&#x2c7;" horiz-adv-x="532" d="M108 667 C134 616 194 554 229 526 L278 526 C313 556 375 617 400 667 L392 677 C357 658 286 608 255 577 C224 608 155 657 116 677 L108 667 Z " />
<glyph glyph-name="breve" unicode="&#x2d8;" horiz-adv-x="532" d="M257 526 C354 526 405 591 394 671 L380 673 C376 607 326 595 257 595 C188 595 138 607 134 673 L120 671 C109 591 160 526 257 526 L257 526 Z " />
<glyph glyph-name="dotaccent" unicode="&#x2d9;" horiz-adv-x="532" d="M328 601 C328 631 304 655 274 655 C245 655 221 631 221 601 C221 571 245 547 274 547 C304 547 328 571 328 601 L328 601 Z " />
<glyph glyph-name="ring" unicode="&#x2da;" horiz-adv-x="532" d="M319 600 C319 567 300 548 272 548 C243 548 225 567 225 600 C225 633 243 650 272 650 C300 650 319 633 319 600 L319 600 Z M355 600 C355 649 320 683 271 683 C221 683 188 649 188 600 C188 551 223 516 272 516 C321 516 355 551 355 600 L355 600 Z " />
<glyph glyph-name="ogonek" unicode="&#x2db;" horiz-adv-x="532" d="M396 -84 L371 -80 C365 -124 342 -151 303 -151 C272 -151 244 -133 244 -93 C244 -38 291 0 352 20 L333 30 C256 3 178 -34 175 -114 C173 -171 218 -206 278 -206 C353 -206 392 -168 396 -84 L396 -84 Z " />
<glyph glyph-name="tilde" unicode="&#x2dc;" horiz-adv-x="532" d="M386 659 C399 592 384 564 355 564 C328 564 314 584 290 619 C263 658 240 672 204 672 C137 672 86 629 116 530 L135 534 C122 601 136 629 165 629 C192 629 202 613 228 575 C248 545 269 521 317 521 C379 521 435 564 405 663 L386 659 Z " />
<glyph glyph-name="hungarumlaut" unicode="&#x2dd;" horiz-adv-x="532" d="M116 520 C166 554 227 602 257 633 C294 670 246 713 210 676 C179 644 139 579 107 528 L116 520 Z M280 520 C330 554 391 602 421 633 C458 670 411 712 374 676 C343 645 303 580 271 528 L280 520 Z " />
<glyph glyph-name="Wgrave" unicode="&#x1e80;" horiz-adv-x="1102" d="M794 -6 C829 128 918 418 961 552 C980 611 1000 631 1045 631 L1082 631 L1082 690 C1069 690 1001 687 955 687 C909 687 822 690 822 690 L822 631 L840 631 C894 631 903 605 893 553 C873 451 815 242 777 121 C739 245 680 463 652 568 C641 610 653 631 693 631 L725 631 L725 690 C712 690 635 687 584 687 C533 687 443 690 443 690 L443 631 L463 631 C512 631 520 612 509 564 C485 457 421 242 381 119 C344 242 283 458 257 563 C244 612 258 631 302 631 L340 631 L340 690 C327 690 238 687 180 687 C122 687 20 690 20 690 L20 631 L59 631 C105 631 119 611 133 563 C173 425 259 131 294 -6 L395 -6 C427 112 501 357 548 498 C591 357 662 112 692 -6 L794 -6 Z M629 762 C589 809 541 867 506 894 C464 924 424 876 465 845 C499 818 567 779 621 752 L629 762 Z " />
<glyph glyph-name="wgrave" unicode="&#x1e81;" horiz-adv-x="829" d="M514 -17 L572 -17 C597 68 661 253 694 338 C714 391 740 409 786 409 L809 409 L809 459 C809 459 737 456 703 456 C670 456 598 459 598 459 L598 409 L617 409 C657 409 664 381 652 339 C637 287 603 181 578 115 C552 184 517 295 501 350 C491 386 503 409 539 409 L551 409 L551 459 C551 459 480 456 435 456 C390 456 323 459 323 459 L323 409 L340 409 C388 409 388 372 380 340 C367 286 329 177 304 111 C278 180 241 293 225 350 C213 394 237 409 263 409 L275 409 L275 459 C275 459 193 456 147 456 C102 456 20 459 20 459 L20 409 L32 409 C82 409 95 389 109 353 C144 264 211 72 238 -17 L296 -17 C318 58 373 219 404 300 C436 219 492 58 514 -17 L514 -17 Z M490 526 C450 573 402 631 367 658 C325 688 285 640 326 609 C360 582 428 543 482 516 L490 526 Z " />
<glyph glyph-name="Wacute" unicode="&#x1e82;" horiz-adv-x="1102" d="M794 -6 C829 128 918 418 961 552 C980 611 1000 631 1045 631 L1082 631 L1082 690 C1069 690 1001 687 955 687 C909 687 822 690 822 690 L822 631 L840 631 C894 631 903 605 893 553 C873 451 815 242 777 121 C739 245 680 463 652 568 C641 610 653 631 693 631 L725 631 L725 690 C712 690 635 687 584 687 C533 687 443 690 443 690 L443 631 L463 631 C512 631 520 612 509 564 C485 457 421 242 381 119 C344 242 283 458 257 563 C244 612 258 631 302 631 L340 631 L340 690 C327 690 238 687 180 687 C122 687 20 690 20 690 L20 631 L59 631 C105 631 119 611 133 563 C173 425 259 131 294 -6 L395 -6 C427 112 501 357 548 498 C591 357 662 112 692 -6 L794 -6 Z M515 752 C569 779 636 818 671 845 C712 876 672 924 630 894 C595 867 546 809 507 762 L515 752 Z " />
<glyph glyph-name="wacute" unicode="&#x1e83;" horiz-adv-x="829" d="M514 -17 L572 -17 C597 68 661 253 694 338 C714 391 740 409 786 409 L809 409 L809 459 C809 459 737 456 703 456 C670 456 598 459 598 459 L598 409 L617 409 C657 409 664 381 652 339 C637 287 603 181 578 115 C552 184 517 295 501 350 C491 386 503 409 539 409 L551 409 L551 459 C551 459 480 456 435 456 C390 456 323 459 323 459 L323 409 L340 409 C388 409 388 372 380 340 C367 286 329 177 304 111 C278 180 241 293 225 350 C213 394 237 409 263 409 L275 409 L275 459 C275 459 193 456 147 456 C102 456 20 459 20 459 L20 409 L32 409 C82 409 95 389 109 353 C144 264 211 72 238 -17 L296 -17 C318 58 373 219 404 300 C436 219 492 58 514 -17 L514 -17 Z M393 516 C447 543 514 582 549 609 C590 640 550 688 508 658 C473 631 424 573 385 526 L393 516 Z " />
<glyph glyph-name="Wdieresis" unicode="&#x1e84;" horiz-adv-x="1102" d="M794 -6 C829 128 918 418 961 552 C980 611 1000 631 1045 631 L1082 631 L1082 690 C1069 690 1001 687 955 687 C909 687 822 690 822 690 L822 631 L840 631 C894 631 903 605 893 553 C873 451 815 242 777 121 C739 245 680 463 652 568 C641 610 653 631 693 631 L725 631 L725 690 C712 690 635 687 584 687 C533 687 443 690 443 690 L443 631 L463 631 C512 631 520 612 509 564 C485 457 421 242 381 119 C344 242 283 458 257 563 C244 612 258 631 302 631 L340 631 L340 690 C327 690 238 687 180 687 C122 687 20 690 20 690 L20 631 L59 631 C105 631 119 611 133 563 C173 425 259 131 294 -6 L395 -6 C427 112 501 357 548 498 C591 357 662 112 692 -6 L794 -6 Z M551 812 C551 842 529 866 496 866 C463 866 441 842 441 812 C441 782 463 758 496 758 C529 758 551 782 551 812 L551 812 Z M721 812 C721 842 699 866 666 866 C633 866 611 842 611 812 C611 782 633 758 666 758 C699 758 721 782 721 812 L721 812 Z " />
</font>
</svg>
