<?xml version="1.0" encoding="UTF-8"?>
<svg xmlns="http://www.w3.org/2000/svg" xmlns:xlink="http://www.w3.org/1999/xlink" version="1.2" >
<font id="Eames Century Modern Black">
<font-face  font-family="Eames Century Modern" units-per-em="1000" ascent="820" descent="-180" font-style="normal" font-weight="900" font-stretch="normal" cap-height="687" x-height="479" underline-position="-75" underline-thickness="50" />
<missing-glyph  horiz-adv-x="500" d="" />
<glyph glyph-name="NULL" d="" />
<glyph glyph-name="CR" unicode="&#xd;" horiz-adv-x="250" d="" />
<glyph glyph-name="space" unicode="&#x20;" horiz-adv-x="210" d="" />
<glyph glyph-name="exclam" unicode="&#x21;" horiz-adv-x="324" d="M271 75 C271 138 228 179 164 179 C104 179 60 138 60 78 C60 16 104 -23 164 -23 C228 -23 271 16 271 75 L271 75 Z M179 243 C179 396 210 394 267 492 C328 596 278 710 162 710 C41 710 -1 596 55 492 C108 394 143 393 143 243 C143 219 147 211 162 211 C176 211 179 219 179 243 L179 243 Z " />
<glyph glyph-name="quotedbl" unicode="&#x22;" horiz-adv-x="358" d="M118 401 C118 490 124 542 143 582 C175 648 152 701 105 701 C53 701 36 648 64 582 C80 547 89 491 89 401 C89 387 98 383 103 383 C111 383 118 387 118 401 L118 401 Z M268 401 C268 490 274 542 293 582 C325 648 302 701 255 701 C203 701 186 648 214 582 C230 547 239 491 239 401 C239 387 248 383 253 383 C261 383 268 387 268 401 L268 401 Z " />
<glyph glyph-name="numbersign" unicode="&#x23;" horiz-adv-x="588" d="M159 0 C166 54 178 129 193 211 L342 211 C326 129 310 54 297 0 L337 0 C344 54 357 129 372 211 C419 211 462 210 494 210 C495 219 501 250 503 260 C471 259 428 258 380 258 C390 311 401 365 412 418 C457 418 498 417 529 417 C530 426 536 457 538 467 C507 466 466 465 422 465 C440 552 458 631 472 688 L430 688 C421 631 408 552 392 465 L243 465 C261 552 279 631 294 688 L252 688 C243 631 229 552 213 465 C161 465 113 466 78 467 C76 457 71 426 68 417 C103 417 151 418 204 418 C194 365 184 311 173 258 C127 258 84 259 53 260 C51 250 46 219 43 210 C74 210 117 211 164 211 L119 0 L159 0 Z M233 418 L383 418 L352 258 L201 258 C211 311 222 365 233 418 L233 418 Z " />
<glyph glyph-name="dollar" unicode="&#x24;" horiz-adv-x="590" d="M279 787 L226 787 L229 678 C95 653 32 555 32 443 C32 323 100 238 236 221 L232 104 C192 108 154 116 126 128 C153 137 166 158 166 185 C166 220 140 242 100 242 C55 242 26 212 25 167 C23 91 98 29 229 16 L226 -99 L279 -99 L275 14 C275 14 301 14 323 16 L319 -99 L372 -99 L368 21 C500 46 574 129 574 259 C574 377 514 464 362 482 L366 599 C393 595 419 588 441 579 C416 571 404 551 404 527 C404 494 429 474 467 474 C507 474 533 498 534 544 C535 609 473 664 368 680 L372 787 L319 787 L322 684 C316 685 309 685 303 685 C293 685 285 684 276 684 L279 787 Z M268 218 C289 217 309 218 329 217 L326 106 C326 106 300 103 272 103 L268 218 Z M270 487 L273 600 C287 602 301 603 324 603 L328 485 C308 486 288 485 270 487 L270 487 Z M424 165 C424 140 403 122 365 112 L362 214 C406 209 424 191 424 165 L424 165 Z M177 539 C177 563 198 581 232 592 L235 491 C200 497 177 511 177 539 L177 539 Z " />
<glyph glyph-name="percent" unicode="&#x25;" horiz-adv-x="600" d="M89 85 C89 80 94 75 99 75 C104 75 109 80 109 85 C109 90 104 95 99 95 C94 95 89 90 89 85 L89 85 Z M125 139 C125 130 132 122 141 122 C150 122 157 130 157 139 C157 147 150 155 141 155 C132 155 125 147 125 139 L125 139 Z M161 192 C161 180 171 170 183 170 C195 170 205 180 205 192 C205 204 195 214 183 214 C171 214 161 204 161 192 L161 192 Z M199 246 C199 231 211 220 225 220 C239 220 251 231 251 246 C251 260 239 271 225 271 C211 271 199 260 199 246 L199 246 Z M238 299 C238 283 251 270 267 270 C283 270 296 283 296 299 C296 315 283 328 267 328 C251 328 238 315 238 299 L238 299 Z M279 353 C279 336 293 323 309 323 C325 323 339 336 339 353 C339 369 325 382 309 382 C293 382 279 369 279 353 L279 353 Z M322 406 C322 390 335 377 351 377 C367 377 380 390 380 406 C380 422 367 435 351 435 C335 435 322 422 322 406 L322 406 Z M367 460 C367 445 379 434 393 434 C407 434 419 445 419 460 C419 474 407 485 393 485 C379 485 367 474 367 460 L367 460 Z M413 513 C413 501 423 491 435 491 C447 491 457 501 457 513 C457 525 447 535 435 535 C423 535 413 525 413 513 L413 513 Z M461 567 C461 558 468 550 477 550 C486 550 493 558 493 567 C493 575 486 583 477 583 C468 583 461 575 461 567 L461 567 Z M509 620 C509 615 514 610 519 610 C524 610 529 615 529 620 C529 625 524 630 519 630 C514 630 509 625 509 620 L509 620 Z M414 32 C399 32 390 43 390 130 C390 216 400 227 414 227 C428 227 437 216 437 130 C437 44 428 32 414 32 L414 32 Z M414 -29 C489 -29 562 5 562 130 C562 255 500 290 414 290 C340 290 266 255 266 130 C266 5 328 -29 414 -29 L414 -29 Z M186 457 C171 457 162 468 162 555 C162 641 172 652 186 652 C200 652 209 641 209 555 C209 469 200 457 186 457 L186 457 Z M186 396 C261 396 334 430 334 555 C334 680 272 715 186 715 C112 715 38 680 38 555 C38 430 100 396 186 396 L186 396 Z " />
<glyph glyph-name="ampersand" unicode="&#x26;" horiz-adv-x="840" d="M809 165 L728 175 C719 148 702 135 670 135 C654 135 642 138 628 148 C661 172 684 204 703 248 C720 286 734 296 762 296 L791 296 L791 372 C791 372 714 370 671 370 C628 370 551 372 551 372 L551 296 L564 296 C589 296 597 281 597 257 C597 240 589 222 576 203 C557 227 534 258 503 300 L475 338 C536 375 593 440 593 533 C593 632 541 700 411 700 C284 700 176 651 176 482 C176 448 186 411 202 373 C112 349 30 279 30 169 C30 46 115 -17 242 -17 C320 -17 382 4 422 44 C474 -1 528 -17 613 -17 C732 -17 812 44 809 165 L809 165 Z M233 244 C233 262 239 274 248 283 C267 249 288 216 310 183 C328 156 345 132 361 112 C298 102 233 178 233 244 L233 244 Z M407 530 C407 562 412 584 433 584 C452 584 457 561 457 532 C457 479 446 441 432 416 C414 456 407 492 407 530 L407 530 Z " />
<glyph glyph-name="quotesingle" unicode="&#x27;" horiz-adv-x="208" d="M118 401 C118 490 124 542 143 582 C175 648 152 701 105 701 C53 701 36 648 64 582 C80 547 89 491 89 401 C89 387 98 383 103 383 C111 383 118 387 118 401 L118 401 Z " />
<glyph glyph-name="parenleft" unicode="&#x28;" horiz-adv-x="335" d="M220 306 C220 558 239 679 305 762 L251 806 C113 752 30 629 30 306 C30 -17 113 -140 251 -194 L305 -150 C239 -67 220 30 220 306 L220 306 Z " />
<glyph glyph-name="parenright" unicode="&#x29;" horiz-adv-x="335" d="M115 306 C115 30 96 -67 30 -150 L84 -194 C222 -140 305 -17 305 306 C305 629 222 752 84 806 L30 762 C96 679 115 558 115 306 L115 306 Z " />
<glyph glyph-name="asterisk" unicode="&#x2a;" horiz-adv-x="500" d="M276 587 C285 599 314 622 314 655 C314 690 292 724 250 724 C212 724 186 693 186 655 C186 619 209 604 222 589 C235 573 238 562 239 537 L228 531 C208 544 200 552 194 570 C188 583 182 620 154 636 C124 654 83 652 62 616 C43 583 57 545 90 526 C121 508 145 520 165 524 C185 527 196 524 218 512 L218 500 C197 489 186 487 168 490 C153 491 118 505 90 488 C60 471 41 435 62 399 C81 366 121 359 154 378 C185 396 186 423 193 442 C199 461 208 469 229 482 L240 476 C239 452 236 442 224 427 C215 415 186 392 186 359 C186 324 208 290 250 290 C288 290 314 321 314 359 C314 395 291 410 278 425 C264 440 261 452 261 476 L272 482 C292 470 299 461 306 444 C312 431 318 394 346 378 C376 360 417 362 438 398 C457 431 443 469 410 488 C379 506 355 494 335 490 C315 486 304 489 283 501 L283 514 C303 524 314 527 332 524 C347 523 382 509 410 526 C440 543 459 579 438 616 C419 648 379 655 346 636 C315 618 314 591 307 572 C300 552 291 545 271 532 L260 538 C261 562 264 572 276 587 L276 587 Z " />
<glyph glyph-name="plus" unicode="&#x2b;" horiz-adv-x="600" d="M357 26 C356 51 351 144 342 207 C400 198 482 193 523 193 L523 308 C482 308 401 303 343 294 C352 352 357 432 357 473 L242 473 C242 433 246 352 255 294 C197 303 117 308 77 308 L77 193 C117 193 198 198 256 207 C247 144 243 51 242 26 L357 26 Z " />
<glyph glyph-name="comma" unicode="&#x2c;" horiz-adv-x="261" d="M55 -60 L64 -85 C165 -65 221 5 221 95 C221 160 186 200 130 200 C69 200 40 161 40 115 C40 66 71 37 114 37 C140 37 164 47 176 70 C169 -1 127 -43 55 -60 L55 -60 Z " />
<glyph glyph-name="hyphen" unicode="&#x2d;" horiz-adv-x="256" d="M10 183 C67 185 189 185 246 183 C245 216 245 286 246 319 C189 317 67 317 10 319 C11 286 11 215 10 183 L10 183 Z " />
<glyph glyph-name="period" unicode="&#x2e;" horiz-adv-x="328" d="M278 92 C278 152 240 200 164 200 C97 200 50 155 50 93 C50 20 96 -14 164 -14 C239 -14 278 27 278 92 L278 92 Z " />
<glyph glyph-name="slash" unicode="&#x2f;" horiz-adv-x="375" d="M149 -173 C193 36 305 481 365 690 C332 688 259 688 226 690 C182 481 70 36 10 -173 C27 -171 132 -171 149 -173 L149 -173 Z " />
<glyph glyph-name="zero" unicode="0" horiz-adv-x="641" d="M268 280 C268 466 279 509 320 509 C364 509 372 466 372 284 C372 104 361 67 320 67 C278 67 268 104 268 280 L268 280 Z M30 284 C30 67 134 -20 320 -20 C496 -20 611 66 611 284 C611 497 513 594 320 594 C140 594 30 493 30 284 L30 284 Z " />
<glyph glyph-name="one" unicode="1" horiz-adv-x="469" d="M116 164 C114 130 113 108 67 108 L30 108 C31 82 31 24 30 -2 C30 -2 161 0 235 0 C309 0 439 -2 439 -2 C438 24 438 82 439 108 L405 108 C367 108 357 122 356 164 C354 263 353 363 355 462 C356 506 361 594 361 594 C319 592 227 592 185 594 C180 510 125 474 30 482 C31 455 31 387 30 360 C61 352 94 357 117 368 C118 280 117 190 116 164 L116 164 Z " />
<glyph glyph-name="two" unicode="2" horiz-adv-x="566" d="M512 255 L451 245 C461 167 375 176 288 186 C220 194 155 195 114 169 C145 199 200 221 272 227 C429 240 522 314 522 426 C522 529 435 594 286 594 C130 594 38 528 38 417 C38 351 78 312 138 312 C200 312 237 343 237 395 C237 445 206 479 148 479 C141 479 135 478 135 478 C153 486 173 491 194 491 C260 491 292 459 292 403 C292 325 241 290 165 259 C68 220 31 152 31 71 C31 15 61 -17 98 -17 C131 -17 150 1 150 30 C150 54 137 75 106 75 C101 75 96 74 96 74 C105 79 117 82 128 82 C151 82 174 73 205 48 C261 5 309 -32 383 -32 C480 -32 542 32 542 141 C542 182 532 222 512 255 L512 255 Z " />
<glyph glyph-name="three" unicode="3" horiz-adv-x="611" d="M556 402 C556 517 467 594 309 594 C143 594 48 510 48 417 C48 354 84 312 147 312 C205 312 242 344 242 396 C242 446 207 479 153 479 L147 479 C164 486 184 491 211 491 C275 491 311 444 311 383 C311 295 255 264 203 264 L185 264 L185 189 L214 189 C276 189 321 152 321 74 C321 -16 279 -52 211 -52 C181 -52 156 -48 134 -31 C196 -29 233 1 233 57 C233 111 196 143 137 143 C73 143 29 94 29 30 C29 -72 118 -141 273 -141 C478 -141 581 -69 581 61 C581 156 532 218 424 233 C500 254 556 303 556 402 L556 402 Z " />
<glyph glyph-name="four" unicode="4" horiz-adv-x="620" d="M243 49 C240 15 229 0 201 0 L172 0 C173 -28 173 -84 172 -112 C172 -112 293 -109 372 -109 C451 -109 571 -112 571 -112 C570 -84 570 -28 571 0 L546 0 C518 0 510 22 507 50 C506 54 506 67 505 86 L577 84 C576 101 576 139 577 156 L505 154 C504 281 505 490 507 594 C454 592 339 592 286 594 C205 444 119 293 30 145 L30 88 C82 89 164 89 244 89 C244 69 243 55 243 49 L243 49 Z M244 395 C245 323 245 225 245 150 C205 150 165 150 130 151 C166 231 204 313 244 395 L244 395 Z " />
<glyph glyph-name="five" unicode="5" horiz-adv-x="616" d="M184 205 C271 205 310 150 310 79 C310 4 275 -44 200 -44 C181 -44 161 -39 144 -30 C201 -26 233 5 233 58 C233 112 195 143 138 143 C75 143 29 102 29 32 C29 -77 119 -141 283 -141 C492 -141 586 -53 586 97 C586 237 506 320 337 320 C261 320 180 303 131 277 C147 310 157 358 160 398 C188 382 242 356 336 356 C455 356 571 404 560 580 L527 603 C489 588 402 573 320 573 C242 573 151 583 120 594 C125 476 114 307 65 216 L92 186 C114 197 139 205 184 205 L184 205 Z " />
<glyph glyph-name="six" unicode="6" horiz-adv-x="622" d="M389 636 C397 636 410 635 416 634 C372 627 345 598 345 550 C345 499 377 460 444 460 C515 460 551 498 551 569 C551 653 471 710 336 710 C149 710 30 581 30 321 C30 82 130 -15 305 -15 C488 -15 592 74 592 231 C592 382 520 438 405 438 C340 438 294 413 270 377 C273 571 305 636 389 636 L389 636 Z M271 212 C271 303 279 337 316 337 C346 337 359 303 359 212 C359 124 353 82 316 82 C279 82 271 124 271 212 L271 212 Z " />
<glyph glyph-name="seven" unicode="7" horiz-adv-x="560" d="M130 594 C117 592 56 592 43 594 C48 525 49 357 45 313 C58 315 118 315 131 313 C129 345 145 367 180 367 C201 367 219 360 238 352 C264 341 292 328 335 328 C375 328 419 339 457 367 C437 348 413 334 378 319 C205 244 110 170 110 18 C110 -80 161 -124 250 -124 C329 -124 407 -80 385 53 C365 174 379 245 467 329 C530 389 557 451 557 524 C557 576 531 605 491 605 C449 605 427 580 427 548 C427 514 452 494 483 494 C489 494 496 495 500 496 C490 484 476 479 459 479 C430 479 402 487 353 542 C322 577 288 597 243 597 C195 597 155 574 136 529 L130 594 Z " />
<glyph glyph-name="eight" unicode="8" horiz-adv-x="640" d="M566 554 C566 651 476 710 326 710 C139 710 39 609 39 456 C39 371 71 307 134 266 C78 247 30 211 30 143 C30 41 119 -15 297 -15 C502 -15 614 76 614 247 C614 338 587 403 504 444 C541 467 566 503 566 554 L566 554 Z M259 220 C419 192 442 178 442 144 C442 114 408 86 317 86 C234 86 185 111 185 162 C185 186 192 212 210 231 C224 227 241 223 259 220 L259 220 Z M323 617 C402 617 431 579 431 537 C431 512 425 491 415 474 C415 474 395 479 377 482 C252 503 219 517 219 555 C219 593 262 617 323 617 L323 617 Z " />
<glyph glyph-name="nine" unicode="9" horiz-adv-x="622" d="M213 -74 C206 -74 196 -73 196 -73 C230 -61 249 -34 249 7 C249 64 213 96 151 96 C82 96 41 59 41 -3 C41 -85 123 -141 265 -141 C541 -141 592 55 592 233 C592 474 497 594 307 594 C130 594 30 484 30 341 C30 196 111 126 227 126 C281 126 326 149 347 195 C345 -15 307 -74 213 -74 L213 -74 Z M347 379 C347 259 335 222 302 222 C272 222 259 259 259 379 C259 486 268 520 303 520 C337 520 347 486 347 379 L347 379 Z " />
<glyph glyph-name="colon" unicode="&#x3a;" horiz-adv-x="248" d="M198 342 C198 386 170 413 124 413 C78 413 50 387 50 343 C50 301 78 275 124 275 C170 275 198 300 198 342 L198 342 Z M198 126 C198 170 170 197 124 197 C78 197 50 171 50 127 C50 85 78 59 124 59 C170 59 198 84 198 126 L198 126 Z " />
<glyph glyph-name="semicolon" unicode="&#x3b;" horiz-adv-x="277" d="M67 126 C67 80 91 58 127 58 C152 58 174 71 182 93 C181 20 141 -36 30 -55 L37 -81 C156 -65 227 5 227 99 C227 162 197 200 146 200 C97 200 67 172 67 126 L67 126 Z M220 342 C220 386 192 413 146 413 C100 413 72 387 72 343 C72 301 100 275 146 275 C192 275 220 300 220 342 L220 342 Z " />
<glyph glyph-name="less" unicode="&#x3c;" horiz-adv-x="600" d="M140 215 C200 181 347 94 419 42 L461 131 C416 149 304 208 231 249 C304 290 416 348 461 367 L419 456 C347 404 200 317 140 283 L140 215 Z " />
<glyph glyph-name="equal" unicode="&#x3d;" horiz-adv-x="600" d="M80 118 C195 120 405 120 520 118 C518 151 518 186 520 219 C405 217 195 217 80 219 C82 186 82 150 80 118 L80 118 Z M80 283 C195 285 405 285 520 283 C518 316 518 351 520 384 C405 382 195 382 80 384 C82 351 82 315 80 283 L80 283 Z " />
<glyph glyph-name="greater" unicode="&#x3e;" horiz-adv-x="600" d="M461 283 C401 317 254 404 182 456 L140 367 C185 348 297 290 370 249 C297 208 185 149 140 131 L182 42 C254 94 401 181 461 215 L461 283 Z " />
<glyph glyph-name="question" unicode="&#x3f;" horiz-adv-x="550" d="M397 282 C364 266 329 257 306 257 C290 257 280 265 280 272 C280 283 286 292 326 303 C441 334 536 382 536 511 C536 624 463 710 278 710 C131 710 26 636 26 512 C26 443 62 402 132 402 C196 402 235 438 235 491 C235 546 199 581 142 581 C132 581 122 580 115 579 C134 590 160 597 185 597 C253 597 286 560 286 489 C286 438 249 400 220 378 C176 344 159 322 159 284 C159 237 198 209 264 209 C316 209 375 229 411 248 L397 282 Z M388 78 C388 141 349 179 284 179 C217 179 177 141 177 78 C177 15 217 -23 284 -23 C349 -23 388 15 388 78 L388 78 Z " />
<glyph glyph-name="at" unicode="&#x40;" horiz-adv-x="806" d="M662 434 C637 432 584 432 559 434 C550 414 523 396 501 384 C493 421 466 452 397 452 C307 452 211 392 186 206 C170 88 221 38 294 38 C348 38 404 56 440 122 C447 65 498 38 571 38 C679 38 767 99 792 224 C845 483 688 617 463 617 C231 617 53 482 18 250 C-16 26 87 -145 357 -145 C476 -145 589 -102 654 -30 L628 -4 C568 -56 483 -99 356 -99 C175 -99 70 19 104 246 C137 465 277 574 465 574 C704 574 750 411 719 224 C709 162 676 99 636 99 C607 99 604 134 611 179 C620 240 646 372 662 434 L662 434 Z M385 122 C372 122 356 136 370 210 C392 329 416 375 440 375 C457 375 465 354 451 279 C428 160 405 122 385 122 L385 122 Z " />
<glyph glyph-name="A" unicode="A" horiz-adv-x="886" d="M428 131 L393 131 C394 100 394 29 393 -2 C393 -2 546 0 632 0 C718 0 871 -2 871 -2 C870 29 870 100 871 131 L857 131 C821 131 794 145 761 224 C714 337 621 581 580 695 C580 695 498 693 451 693 C404 693 321 695 321 695 C262 538 202 381 141 224 C115 157 89 131 29 131 L15 131 C16 100 16 29 15 -2 C15 -2 121 0 181 0 C241 0 347 -2 347 -2 C346 29 346 100 347 131 L315 131 C277 131 260 149 275 206 C335 207 408 207 468 206 C479 156 474 131 428 131 L428 131 Z M447 276 C401 275 346 275 299 275 C318 331 348 414 373 484 C399 413 428 331 447 276 L447 276 Z " />
<glyph glyph-name="B" unicode="B" horiz-adv-x="754" d="M739 206 C737 284 687 343 581 360 C653 377 710 421 710 515 C710 618 641 689 430 689 C388 689 281 688 235 688 C168 688 31 690 15 690 C16 659 16 590 15 559 L32 559 C69 559 84 537 87 493 C90 449 90 251 87 200 C84 149 64 131 26 131 L15 131 C16 100 16 29 15 -2 C15 -2 116 0 213 0 C293 0 392 -2 439 -2 C668 -2 742 75 739 206 L739 206 Z M368 315 C431 315 469 295 469 224 C469 153 448 131 401 131 L391 131 C361 131 343 151 341 182 C340 195 339 252 339 315 L368 315 Z M341 521 C343 543 354 559 384 559 L392 559 C432 559 453 538 453 476 C453 406 435 391 368 391 L339 391 C339 455 340 512 341 521 L341 521 Z " />
<glyph glyph-name="C" unicode="C" horiz-adv-x="724" d="M550 662 C503 692 449 710 360 710 C159 710 25 590 25 346 C25 72 156 -15 377 -15 C627 -15 713 59 708 270 C665 268 546 268 503 270 C508 169 466 131 414 131 C358 131 313 157 313 346 C313 529 348 559 415 559 C475 559 502 513 502 423 C543 425 647 425 688 423 C691 487 702 646 708 690 C682 688 626 688 600 690 C595 642 583 641 550 662 L550 662 Z " />
<glyph glyph-name="D" unicode="D" horiz-adv-x="804" d="M15 690 C16 659 16 590 15 559 L29 559 C65 559 84 537 87 493 C90 449 90 252 87 200 C84 148 70 131 24 131 L15 131 C16 100 16 29 15 -2 C15 -2 148 0 232 0 C311 0 405 -2 452 -2 C647 -2 781 90 778 350 C775 583 683 689 443 689 C372 689 301 688 230 688 C148 688 31 690 15 690 L15 690 Z M341 177 C339 251 338 450 341 520 C342 535 350 552 381 552 L394 552 C471 552 521 518 521 351 C521 177 473 141 393 141 L381 141 C353 141 342 158 341 177 L341 177 Z " />
<glyph glyph-name="E" unicode="E" horiz-adv-x="734" d="M410 456 C410 397 399 382 354 382 L342 382 C342 424 343 464 344 493 C346 541 369 558 413 558 L468 558 C521 558 572 549 572 423 C605 425 676 425 709 423 C708 495 711 622 715 695 C668 689 504 688 461 688 L228 688 C151 688 31 690 15 690 C16 659 16 590 15 559 L27 559 C66 559 87 537 90 482 C93 427 92 248 89 200 C86 152 72 131 26 131 L15 131 C16 100 16 29 15 -2 C31 -2 151 0 228 0 L461 0 C522 0 642 -2 709 -6 C709 80 712 208 719 282 C684 280 610 280 575 282 C575 152 543 131 470 131 L412 131 C367 131 347 145 344 200 C343 221 342 262 342 306 L354 306 C402 306 412 290 412 229 L412 193 C460 194 508 193 508 193 C503 244 500 270 500 344 C500 417 503 437 508 495 C508 495 459 494 410 495 L410 456 Z " />
<glyph glyph-name="F" unicode="F" horiz-adv-x="727" d="M446 131 L412 131 C362 131 346 145 343 200 C342 221 341 261 341 306 L353 306 C402 306 412 287 412 230 L412 193 C459 194 508 193 508 193 C503 244 500 299 500 344 C500 388 503 437 508 494 C508 494 458 493 410 494 L410 478 C410 405 399 382 353 382 L341 382 C341 429 342 473 343 493 C346 541 369 558 413 558 L469 558 C547 559 572 527 571 382 C611 385 660 385 706 383 C705 455 710 622 712 695 C665 689 505 689 462 689 C322 689 318 688 230 688 C137 688 31 690 15 690 C16 659 16 590 15 559 L32 559 C68 559 88 532 90 493 C93 426 93 247 90 199 C87 151 70 131 30 131 L15 131 C16 100 16 29 15 -2 C15 -2 153 0 231 0 C309 0 446 -2 446 -2 C445 29 445 99 446 131 L446 131 Z " />
<glyph glyph-name="G" unicode="G" horiz-adv-x="772" d="M357 710 C155 710 25 590 25 346 C25 61 165 -20 357 -20 C452 -20 530 13 566 69 C576 43 585 16 590 0 C629 2 694 2 733 0 C719 81 715 177 715 230 C715 268 721 283 750 283 L767 283 C766 328 767 377 767 377 C767 377 661 374 601 374 C541 374 425 377 425 377 C425 377 426 328 425 283 L454 283 C486 283 496 264 496 227 C496 157 466 131 413 131 C363 131 313 157 313 346 C313 529 348 559 415 559 C475 559 502 513 502 423 C543 425 647 425 688 423 C691 487 702 646 708 690 C682 688 626 688 600 690 C595 642 582 637 550 660 C503 693 431 710 357 710 L357 710 Z " />
<glyph glyph-name="H" unicode="H" horiz-adv-x="840" d="M15 -3 C15 -3 141 0 212 0 C283 0 408 -3 408 -3 C407 28 407 100 408 131 L393 131 C347 131 342 156 340 190 C339 207 338 252 338 302 C384 303 450 303 501 302 C501 251 500 207 499 190 C497 148 484 131 446 131 L431 131 C432 100 432 28 431 -3 C431 -3 556 0 627 0 C698 0 823 -3 823 -3 C822 28 822 100 823 131 L806 131 C764 131 756 150 753 190 C750 232 750 463 753 500 C756 539 769 559 805 559 L823 559 C822 590 822 659 823 690 C823 690 698 688 627 688 C556 688 431 690 431 690 C432 659 432 590 431 559 L440 559 C476 559 497 539 500 500 C501 483 501 433 501 378 C450 377 384 377 338 378 C338 433 338 483 340 500 C343 539 363 559 399 559 L408 559 C407 590 407 659 408 690 C408 690 283 688 212 688 C141 688 15 690 15 690 C16 659 16 590 15 559 L35 559 C71 559 84 539 87 500 C90 461 90 234 87 189 C84 144 74 131 32 131 L15 131 C16 100 16 28 15 -3 L15 -3 Z " />
<glyph glyph-name="I" unicode="I" horiz-adv-x="428" d="M17 -3 C17 -3 143 0 214 0 C285 0 411 -3 411 -3 C410 28 410 100 411 131 L390 131 C354 131 344 156 341 190 C338 224 338 461 341 500 C344 539 357 559 393 559 L412 559 C411 590 411 659 412 690 C412 690 286 688 215 688 C144 688 17 690 17 690 C18 659 18 590 17 559 L35 559 C71 559 84 539 87 500 C90 461 90 224 87 190 C84 156 78 131 38 131 L17 131 C18 100 18 28 17 -3 L17 -3 Z " />
<glyph glyph-name="J" unicode="J" horiz-adv-x="593" d="M226 152 C227 215 187 253 125 253 C53 253 10 209 10 140 C10 39 92 -15 237 -15 C416 -15 517 63 517 201 L517 500 C517 548 537 559 569 559 L578 559 C577 590 577 659 578 690 C578 690 452 688 381 688 C310 688 184 690 184 690 C185 659 185 590 184 559 L211 559 C249 559 260 537 263 500 C266 463 266 266 263 191 C258 75 222 55 166 55 C158 55 148 56 142 57 C196 65 226 102 226 152 L226 152 Z " />
<glyph glyph-name="K" unicode="K" horiz-adv-x="834" d="M15 -2 C15 -2 138 0 207 0 C276 0 398 -2 398 -2 C397 29 397 100 398 131 L384 131 C357 131 342 156 339 190 C338 201 337 239 337 283 L380 316 C397 288 414 259 431 229 C466 168 466 131 429 131 L419 131 C420 100 420 29 419 -2 C419 -2 547 0 619 0 C691 0 819 -2 819 -2 C818 29 818 100 819 131 L805 131 C780 131 764 141 740 182 L577 467 L601 486 C662 532 707 559 783 559 L818 559 C817 590 817 659 818 690 C818 690 694 688 624 688 C554 688 429 690 429 690 C430 659 430 590 429 559 L451 559 C497 559 514 509 474 477 C429 441 382 405 337 370 C337 428 337 483 339 500 C342 539 355 559 391 559 L407 559 C406 590 406 659 407 690 C407 690 282 688 211 688 C140 688 15 690 15 690 C16 659 16 590 15 559 L24 559 C70 559 83 539 86 500 C89 461 89 224 86 190 C83 156 73 131 27 131 L15 131 C16 100 16 29 15 -2 L15 -2 Z " />
<glyph glyph-name="L" unicode="L" horiz-adv-x="665" d="M428 690 C428 690 298 688 224 688 C150 688 19 690 19 690 C20 659 20 590 19 559 L37 559 C73 559 86 529 89 490 C92 451 92 258 89 209 C86 160 83 131 37 131 L15 131 C16 100 16 30 15 -1 C78 0 150 0 193 0 L424 0 C477 0 571 0 650 -4 C649 74 649 242 650 320 C620 318 556 318 526 320 C526 150 491 131 427 131 L411 131 C371 131 346 141 343 196 C340 251 340 441 343 490 C346 539 368 559 412 559 L427 559 C425 590 425 658 428 690 L428 690 Z " />
<glyph glyph-name="M" unicode="M" horiz-adv-x="990" d="M408 59 L464 59 C500 138 579 297 632 398 C632 340 633 242 631 208 C628 158 613 131 572 131 L549 131 C550 100 550 29 549 -2 C549 -2 685 0 762 0 C839 0 975 -2 975 -2 C974 29 974 100 975 131 L956 131 C910 131 900 152 897 207 C894 262 894 452 897 491 C900 530 920 559 956 559 L975 559 C974 590 974 659 975 690 C895 688 721 688 641 690 C616 632 566 529 522 443 C476 522 416 633 388 690 C296 688 107 688 15 690 C16 659 16 590 15 559 L42 559 C82 559 102 535 105 491 C108 447 108 256 105 208 C102 160 82 131 41 131 L15 131 C16 100 16 29 15 -2 C15 -2 115 0 172 0 C229 0 329 -2 329 -2 C328 29 328 100 329 131 L299 131 C253 131 233 158 230 208 C228 245 229 344 229 394 C283 298 369 138 408 59 L408 59 Z " />
<glyph glyph-name="N" unicode="N" horiz-adv-x="827" d="M365 690 C281 688 100 688 16 690 C17 659 17 590 16 559 L36 559 C76 559 101 529 104 490 C107 451 107 253 104 209 C101 165 82 131 36 131 L15 131 C16 100 16 29 15 -2 C15 -2 121 0 181 0 C241 0 347 -2 347 -2 C346 29 346 100 347 131 L307 131 C261 131 242 165 239 209 C237 238 237 341 238 408 C318 284 437 94 494 -1 C550 1 671 1 727 -1 C724 164 724 425 727 481 C730 537 757 559 793 559 L812 559 C811 590 811 659 812 690 C812 690 708 687 650 687 C592 687 488 690 488 690 C489 659 489 590 488 559 L526 559 C562 559 589 539 592 481 C594 440 593 369 593 328 C524 431 415 605 365 690 L365 690 Z " />
<glyph glyph-name="O" unicode="O" horiz-adv-x="797" d="M399 122 C326 122 313 173 313 343 C313 515 329 567 399 567 C474 567 484 515 484 344 C484 174 469 122 399 122 L399 122 Z M399 -15 C610 -15 772 73 772 344 C772 608 647 705 399 705 C169 705 25 600 25 343 C25 75 158 -15 399 -15 L399 -15 Z " />
<glyph glyph-name="P" unicode="P" horiz-adv-x="725" d="M416 233 C612 233 710 313 710 465 C710 615 604 689 414 689 C372 689 294 688 248 688 C229 688 31 690 15 690 C16 659 16 590 15 559 L42 559 C72 559 84 546 87 510 C90 474 90 234 87 191 C84 148 67 131 30 131 L15 131 C16 100 16 29 15 -2 C15 -2 153 0 231 0 C309 0 447 -2 447 -2 C446 29 446 100 447 131 L398 131 C363 131 344 148 341 191 C340 206 340 220 340 235 C360 234 389 233 416 233 L416 233 Z M341 530 C342 549 353 559 370 559 L382 559 C428 559 449 537 449 455 C449 366 432 334 355 333 C350 333 338 334 338 334 C338 410 338 490 341 530 L341 530 Z " />
<glyph glyph-name="Q" unicode="Q" horiz-adv-x="797" d="M399 -15 C409 -15 420 -15 430 -14 C429 -126 501 -175 593 -175 C745 -175 768 -92 764 7 L724 5 C723 -50 714 -95 679 -95 C652 -95 639 -76 621 33 C713 84 772 181 772 344 C772 608 647 705 399 705 C169 705 25 600 25 343 C25 75 158 -15 399 -15 L399 -15 Z M440 254 C375 254 339 216 339 162 C339 156 340 149 341 145 C318 174 313 234 313 343 C313 515 329 567 399 567 C474 567 484 515 484 344 C484 307 483 276 481 250 C470 252 455 254 440 254 L440 254 Z M368 162 C368 195 387 209 412 209 C442 209 455 184 455 145 C443 130 428 122 407 122 C384 122 368 135 368 162 L368 162 Z " />
<glyph glyph-name="R" unicode="R" horiz-adv-x="821" d="M703 176 C690 255 654 319 554 330 C678 343 734 412 734 501 C734 621 645 689 487 689 C384 689 284 688 238 688 C175 688 31 690 15 690 C16 659 16 590 15 559 L37 559 C74 559 84 539 87 500 C90 461 90 232 87 190 C84 148 70 131 38 131 L15 131 C16 100 16 29 15 -2 C15 -2 144 0 217 0 C290 0 418 -2 418 -2 C417 29 417 100 418 131 L398 131 C363 131 344 148 341 191 C340 206 339 245 339 289 C403 286 431 259 438 151 C445 37 482 -26 624 -26 C795 -26 834 80 805 200 C793 198 769 196 751 197 C766 135 758 106 740 106 C721 106 712 121 703 176 L703 176 Z M341 519 C342 544 354 559 380 559 L392 559 C442 559 453 524 453 469 C453 406 432 381 369 381 L339 381 C339 439 339 494 341 519 L341 519 Z " />
<glyph glyph-name="S" unicode="S" horiz-adv-x="711" d="M367 577 C454 577 527 550 558 488 C580 490 636 489 658 487 C656 547 658 637 661 690 C643 688 585 688 567 690 C558 654 558 642 516 663 C471 686 418 705 327 705 C139 705 39 598 39 445 C39 299 127 214 343 203 C462 197 499 188 499 159 C499 131 470 111 388 111 C264 111 169 145 133 225 C111 223 57 223 35 225 C37 170 31 60 27 -5 C47 -3 111 -3 131 -5 C138 36 156 46 188 30 C237 6 292 -15 391 -15 C596 -15 701 71 701 244 C701 433 542 481 381 487 C271 491 247 498 247 529 C247 553 273 577 367 577 L367 577 Z " />
<glyph glyph-name="T" unicode="T" horiz-adv-x="754" d="M525 550 C573 550 590 515 593 457 L597 382 C630 384 701 384 734 382 C731 457 734 617 739 692 C704 690 645 688 525 688 L229 688 C97 688 66 689 15 692 C20 617 23 457 20 382 C53 384 124 384 157 382 L161 457 C164 515 181 550 229 550 L252 550 C254 448 253 236 251 200 C248 158 228 131 182 131 L161 131 C162 100 162 29 161 -2 C161 -2 299 0 377 0 C455 0 593 -2 593 -2 C592 29 592 100 593 131 L572 131 C524 131 507 160 504 200 C501 234 501 447 503 550 L525 550 Z " />
<glyph glyph-name="U" unicode="U" horiz-adv-x="803" d="M83 250 C83 62 177 -25 411 -25 C597 -25 718 46 718 257 C718 337 715 414 718 493 C720 539 738 559 776 559 L788 559 C787 590 787 659 788 690 C772 690 683 688 624 688 C565 688 469 690 469 690 C470 659 470 590 469 559 L496 559 C532 559 552 539 554 493 C557 437 557 333 554 266 C550 168 521 131 453 131 C385 131 357 168 353 266 C350 342 350 417 353 493 C355 539 379 559 415 559 L444 559 C443 590 443 659 444 690 C428 690 300 688 225 688 C150 688 15 690 15 690 C16 659 16 590 15 559 L26 559 C62 559 82 539 84 493 C87 404 83 327 83 250 L83 250 Z " />
<glyph glyph-name="V" unicode="V" horiz-adv-x="848" d="M419 464 C402 534 415 559 453 559 L472 559 C471 590 471 659 472 690 C456 690 326 688 244 688 C162 688 15 690 15 690 C16 659 16 590 15 559 L37 559 C92 559 113 537 134 478 C155 419 243 121 275 -6 C342 -4 488 -4 555 -6 C595 149 675 407 701 478 C727 549 756 559 808 559 L833 559 C832 590 832 659 833 690 C817 690 727 688 667 688 C607 688 501 690 501 690 C502 659 502 590 501 559 L520 559 C566 559 566 523 553 463 C543 417 504 292 486 237 C469 290 432 411 419 464 L419 464 Z " />
<glyph glyph-name="W" unicode="W" horiz-adv-x="1181" d="M916 -6 L1046 493 C1061 550 1091 559 1141 559 L1166 559 C1165 590 1165 659 1166 690 C1150 690 1073 688 1021 688 C969 688 876 690 876 690 C877 659 877 590 876 559 L895 559 C940 559 935 534 929 493 C924 459 882 288 867 231 C851 289 807 454 800 494 C791 543 799 559 833 559 L852 559 C851 590 851 659 852 690 C837 690 737 688 672 688 C607 688 492 690 492 690 C493 659 493 590 492 559 L506 559 C545 559 552 539 545 493 C539 456 498 299 481 236 C464 297 421 457 415 493 C407 538 413 559 450 559 L468 559 C467 590 467 659 468 690 C453 690 324 688 242 688 C160 688 15 690 15 690 C16 659 16 590 15 559 L37 559 C90 559 110 536 124 493 C138 450 219 147 253 -6 C313 -4 442 -4 502 -6 C524 83 547 171 571 260 C594 171 616 83 637 -6 C704 -4 849 -4 916 -6 L916 -6 Z " />
<glyph glyph-name="X" unicode="X" horiz-adv-x="831" d="M321 236 C361 157 350 131 327 131 L312 131 C313 100 313 29 312 -2 C312 -2 473 0 564 0 C655 0 816 -2 816 -2 C815 29 815 100 816 131 L790 131 C730 131 701 151 670 201 C652 229 615 293 583 349 L629 452 C661 523 693 559 792 559 L806 559 C804 590 804 659 806 690 C806 690 727 688 683 688 C639 688 559 690 559 690 C560 659 560 590 559 559 L567 559 C590 559 607 538 572 462 L549 412 C538 432 528 449 522 463 C494 524 494 559 529 559 L536 559 C535 590 535 659 536 690 C536 690 372 688 279 688 C186 688 52 690 22 690 C23 659 23 590 22 559 L42 559 C102 559 143 546 186 476 C212 432 243 381 271 329 L240 278 C178 176 141 131 34 131 L15 131 C16 100 16 29 15 -2 C15 -2 103 0 152 0 C201 0 289 -2 289 -2 C288 29 288 100 289 131 L277 131 C253 131 229 157 279 236 L302 272 L321 236 Z " />
<glyph glyph-name="Y" unicode="Y" horiz-adv-x="879" d="M702 480 C728 526 752 559 851 559 L864 559 L864 690 C864 690 761 688 703 688 C645 688 541 690 541 690 L541 559 L555 559 C597 559 597 513 572 454 C558 422 542 388 528 360 C520 375 505 405 485 454 C454 530 470 559 504 559 L518 559 L518 690 C518 690 358 688 267 688 C176 688 15 690 15 690 L15 559 L32 559 C89 559 122 541 147 497 C166 462 244 304 276 238 L276 190 C276 156 273 131 226 131 L196 131 C197 100 197 29 196 -2 C196 -2 348 0 433 0 C518 0 669 -2 669 -2 C670 29 670 100 669 131 L642 131 C596 131 583 156 583 190 L583 237 C611 297 681 443 702 480 L702 480 Z " />
<glyph glyph-name="Z" unicode="Z" horiz-adv-x="687" d="M15 0 L468 0 C468 0 544 -1 672 -4 C670 75 670 249 672 328 C644 326 585 326 557 328 C557 171 484 131 385 131 L341 131 C441 271 585 466 662 568 C661 597 661 659 662 688 L244 688 C186 688 86 691 26 692 C28 618 28 457 26 383 C54 385 113 385 141 383 C141 521 178 559 300 559 L343 559 C246 425 94 223 15 121 C16 92 16 29 15 0 L15 0 Z " />
<glyph glyph-name="bracketleft" unicode="&#x5b;" horiz-adv-x="322" d="M50 147 C50 25 40 -187 40 -187 C108 -185 224 -185 292 -187 C291 -161 291 -114 292 -88 L282 -88 C236 -88 225 -76 223 -39 C221 -2 221 615 223 652 C225 689 239 701 275 701 L292 701 C291 727 291 774 292 800 C224 798 108 798 40 800 C40 800 50 630 50 512 L50 147 Z " />
<glyph glyph-name="backslash" unicode="&#x5c;" horiz-adv-x="375" d="M226 -173 C243 -171 348 -171 365 -173 C305 36 193 481 149 690 C116 688 43 688 10 690 C70 481 182 36 226 -173 L226 -173 Z " />
<glyph glyph-name="bracketright" unicode="&#x5d;" horiz-adv-x="322" d="M277 512 C277 614 289 800 289 800 C221 798 103 798 35 800 L35 701 L52 701 C88 701 102 689 104 652 C106 615 106 -2 104 -39 C102 -76 91 -88 45 -88 L35 -88 C36 -114 36 -161 35 -187 C103 -185 221 -185 289 -187 C289 -185 277 5 277 107 L277 512 Z " />
<glyph glyph-name="asciicircum" unicode="&#x5e;" horiz-adv-x="600" d="M290 710 C247 672 129 492 92 431 L177 391 C196 436 256 574 299 647 C340 574 403 436 421 391 L506 431 C479 478 351 672 308 710 L290 710 Z " />
<glyph glyph-name="underscore" unicode="&#x5f;" horiz-adv-x="500" d="M0 -177 C106 -175 394 -175 500 -177 C499 -156 499 -82 500 -61 C394 -63 106 -63 0 -61 C1 -82 1 -157 0 -177 L0 -177 Z " />
<glyph glyph-name="grave" unicode="&#x60;" horiz-adv-x="532" d="M397 561 C369 607 315 663 266 687 C172 731 116 640 209 590 C263 560 340 544 389 548 L397 561 Z " />
<glyph glyph-name="a" unicode="a" horiz-adv-x="582" d="M497 278 C497 427 440 493 264 493 C140 493 38 442 38 350 C38 296 71 267 125 267 C185 267 221 297 221 348 C221 370 212 392 197 404 C260 397 272 358 272 308 L272 257 C124 255 10 214 10 97 C10 16 74 -17 142 -17 C212 -17 261 6 290 48 C310 5 351 -17 420 -17 C551 -17 581 84 566 216 L525 216 C533 158 531 108 513 108 C495 108 497 126 497 182 L497 278 Z M274 109 C274 109 269 108 263 108 C246 108 232 114 232 162 C232 205 244 214 272 216 L272 146 C272 133 273 117 274 109 L274 109 Z " />
<glyph glyph-name="b" unicode="b" horiz-adv-x="596" d="M413 -17 C522 -17 586 42 586 231 C586 430 528 493 417 493 C335 493 288 450 276 374 L276 432 C276 432 276 583 278 693 C239 690 53 690 8 690 L8 582 L17 582 C43 582 48 571 50 534 C57 405 54 263 52 194 C50 132 46 54 41 -2 C81 0 169 0 209 -2 C210 37 226 70 251 93 C278 13 343 -17 413 -17 L413 -17 Z M276 238 C275 355 288 372 321 372 C351 372 360 355 360 238 C360 121 347 105 317 105 C295 105 277 116 276 238 L276 238 Z " />
<glyph glyph-name="c" unicode="c" horiz-adv-x="514" d="M320 186 C320 136 312 108 278 108 C244 108 237 152 237 258 C237 362 265 395 304 395 C312 395 321 394 327 392 C303 379 289 354 289 321 C289 267 325 235 389 235 C458 235 496 276 496 337 C496 437 419 493 281 493 C102 493 10 396 10 224 C10 50 107 -17 269 -17 C396 -17 508 35 503 186 C459 184 363 184 320 186 L320 186 Z " />
<glyph glyph-name="d" unicode="d" horiz-adv-x="599" d="M182 492 C80 492 10 434 10 245 C10 38 76 -17 174 -17 C251 -17 305 21 320 114 L320 -1 C381 -1 522 0 591 0 C590 26 590 82 591 108 L586 108 C556 108 546 121 545 155 C543 265 543 561 544 692 C482 692 337 690 267 690 C268 664 268 609 267 583 L278 583 C306 583 319 569 319 529 L319 382 C304 449 258 492 182 492 L182 492 Z M320 245 C320 135 311 105 278 105 C243 105 236 133 236 245 C236 355 251 372 279 372 C304 372 320 365 320 245 L320 245 Z " />
<glyph glyph-name="e" unicode="e" horiz-adv-x="515" d="M320 186 C319 129 307 108 278 108 C244 108 232 135 229 207 C244 207 412 208 502 207 C513 383 450 493 269 493 C103 493 10 397 10 224 C10 49 109 -17 265 -17 C438 -17 507 66 502 186 C458 184 363 184 320 186 L320 186 Z M262 372 C280 372 292 362 292 297 C292 258 279 255 258 255 L229 255 C230 359 242 372 262 372 L262 372 Z " />
<glyph glyph-name="f" unicode="f" horiz-adv-x="345" d="M335 641 C301 634 279 612 279 573 C279 530 307 506 354 506 C404 506 434 529 434 582 C434 657 371 700 262 700 C101 700 49 610 51 478 L8 479 C9 453 9 398 8 372 L54 374 C55 281 54 167 52 147 C49 119 41 108 19 108 L8 108 C9 82 9 24 8 -2 C8 -2 109 0 166 0 C223 0 324 -2 324 -2 C324 24 323 82 324 108 L314 108 C294 108 281 119 278 147 C275 169 273 292 275 374 L329 372 C328 398 328 453 329 479 L266 477 C238 593 267 642 335 641 L335 641 Z " />
<glyph glyph-name="g" unicode="g" horiz-adv-x="531" d="M256 493 C105 493 20 427 20 309 C20 235 53 181 115 151 C58 143 14 109 14 36 C14 1 28 -25 53 -42 C28 -53 10 -73 10 -102 C10 -161 60 -200 249 -200 C444 -200 528 -126 528 -33 C528 49 492 100 299 100 C179 100 130 96 130 117 C130 127 138 133 152 137 C182 128 217 124 256 124 C409 124 495 190 495 309 C495 400 443 461 348 483 C357 505 376 525 411 532 C407 525 405 516 405 506 C405 473 424 454 458 454 C494 454 514 476 514 513 C514 559 482 585 427 585 C367 585 327 545 317 489 C295 492 277 493 256 493 L256 493 Z M246 -79 C369 -79 422 -62 422 -81 C422 -96 366 -124 247 -124 C133 -124 92 -109 92 -86 C92 -78 98 -70 107 -66 C144 -75 190 -79 246 -79 L246 -79 Z M258 397 C285 397 288 383 288 309 C288 235 284 220 258 220 C238 220 228 235 228 309 C228 383 232 397 258 397 L258 397 Z " />
<glyph glyph-name="h" unicode="h" horiz-adv-x="639" d="M590 314 C590 429 534 493 434 493 C350 493 297 454 280 384 C280 510 280 605 286 693 C247 690 57 690 12 690 C13 664 13 608 12 582 L17 582 C45 582 51 567 54 532 C57 497 57 189 54 155 C51 121 43 108 14 108 L8 108 C9 82 9 24 8 -2 C8 -2 107 0 162 0 C217 0 315 -2 315 -2 C314 24 314 82 315 108 L311 108 C286 108 280 125 280 155 L280 307 C280 357 297 372 325 372 C356 372 363 353 364 317 C365 281 366 189 364 155 C362 121 357 108 334 108 L330 108 C331 82 331 24 330 -2 C330 -2 427 0 481 0 C535 0 631 -2 631 -2 C630 24 630 82 631 108 L627 108 C601 108 590 123 590 155 L590 314 Z " />
<glyph glyph-name="i" unicode="i" horiz-adv-x="334" d="M282 618 C282 692 240 734 166 734 C92 734 51 692 51 618 C51 542 92 500 166 500 C240 500 282 542 282 618 L282 618 Z M280 481 C219 481 77 479 8 479 C9 453 9 398 8 372 L16 372 C40 372 52 362 54 328 C56 294 55 188 53 155 C51 122 43 108 12 108 L8 108 C9 82 9 24 8 -2 C8 -2 110 0 167 0 C224 0 326 -2 326 -2 C325 24 325 82 326 108 L321 108 C291 108 281 122 279 155 C277 188 277 408 280 481 L280 481 Z " />
<glyph glyph-name="j" unicode="j" horiz-adv-x="328" d="M64 -83 C64 -41 40 -17 -3 -17 C-54 -17 -80 -45 -80 -96 C-80 -163 -17 -200 86 -200 C237 -200 316 -118 316 27 L316 302 C316 356 316 423 319 482 C280 479 93 479 48 479 C49 453 49 398 48 372 L52 372 C76 372 88 358 90 328 C92 298 94 3 89 -80 C86 -131 62 -161 18 -161 C1 -161 -15 -156 -25 -148 C30 -161 64 -124 64 -83 L64 -83 Z M320 618 C320 692 278 734 204 734 C131 734 89 692 89 618 C89 543 131 500 204 500 C278 500 320 543 320 618 L320 618 Z " />
<glyph glyph-name="k" unicode="k" horiz-adv-x="664" d="M280 693 C241 690 57 690 12 690 C13 664 13 609 12 583 L18 583 C44 583 51 568 54 534 C57 500 56 190 54 155 C52 120 42 108 12 108 L8 108 C9 82 9 24 8 -2 C8 -2 105 0 160 0 C215 0 311 -2 311 -2 C310 24 310 82 311 108 L305 108 C291 108 282 120 280 155 C279 170 279 195 279 212 L303 226 C317 204 336 171 345 153 C357 127 351 108 328 108 L323 108 C324 82 324 24 323 -2 C323 -2 430 0 490 0 C550 0 656 -2 656 -2 C655 24 655 81 656 107 L651 107 C631 107 618 120 597 149 C579 173 517 297 495 340 L505 346 C539 366 571 372 626 372 L652 372 C651 398 651 456 652 482 C645 482 549 479 491 479 C433 479 330 482 330 482 C331 456 331 398 330 372 L341 372 C385 372 384 345 347 322 L278 279 C278 412 278 612 280 693 L280 693 Z " />
<glyph glyph-name="l" unicode="l" horiz-adv-x="331" d="M279 692 C240 691 56 690 11 690 C12 664 12 609 11 583 L15 583 C42 583 51 565 53 535 C55 505 55 189 53 155 C51 121 41 108 11 108 L7 108 C9 82 9 24 7 -2 C7 -2 109 0 166 0 C223 0 325 -2 325 -2 C324 24 324 82 325 108 L320 108 C290 108 281 120 279 155 C277 190 276 549 279 692 L279 692 Z " />
<glyph glyph-name="m" unicode="m" horiz-adv-x="954" d="M900 314 C900 429 854 493 744 493 C656 493 600 452 584 378 C568 452 521 493 434 493 C350 493 297 454 280 384 L280 482 C240 479 57 479 12 479 C13 453 13 398 12 372 L16 372 C44 372 51 357 54 328 C57 299 57 192 54 155 C51 118 43 108 12 108 L8 108 C9 82 9 24 8 -2 C8 -2 107 0 162 0 C217 0 315 -2 315 -2 C313 24 313 82 315 108 L310 108 C289 108 280 117 280 155 L280 307 C280 359 297 372 325 372 C356 372 362 353 364 317 C366 281 366 193 364 155 C362 117 353 108 334 108 L330 108 C332 82 332 24 330 -2 C330 -2 425 0 478 0 C531 0 625 -2 625 -2 C624 24 624 82 625 108 L621 108 C598 108 590 122 590 155 L590 307 C590 359 607 372 635 372 C666 372 672 353 674 317 C676 281 676 185 674 155 C672 125 667 108 644 108 L640 108 C641 82 641 24 640 -2 C640 -2 738 0 793 0 C848 0 946 -2 946 -2 C945 24 945 82 946 108 L941 108 C911 108 900 122 900 155 L900 314 Z " />
<glyph glyph-name="n" unicode="n" horiz-adv-x="644" d="M590 314 C590 429 544 493 434 493 C352 493 297 453 280 382 L280 482 C240 479 57 479 12 479 C13 453 13 398 12 372 L16 372 C44 372 51 357 54 328 C57 299 57 192 54 155 C51 118 43 108 12 108 L8 108 C9 82 9 24 8 -2 C8 -2 107 0 162 0 C217 0 315 -2 315 -2 C313 24 313 82 315 108 L310 108 C289 108 280 117 280 155 L280 307 C280 356 296 372 325 372 C356 372 362 353 364 317 C366 281 366 188 364 155 C362 122 353 108 335 108 L330 108 C331 82 331 24 330 -2 C330 -2 428 0 483 0 C538 0 636 -2 636 -2 C635 24 635 82 636 108 L631 108 C601 108 590 119 590 155 L590 314 Z " />
<glyph glyph-name="o" unicode="o" horiz-adv-x="554" d="M18 235 C18 52 111 -17 277 -17 C444 -17 536 51 536 233 C536 412 448 493 277 493 C115 493 18 411 18 235 L18 235 Z M239 233 C239 351 249 372 276 372 C305 372 315 351 315 233 C315 123 304 108 277 108 C250 108 239 123 239 233 L239 233 Z " />
<glyph glyph-name="p" unicode="p" horiz-adv-x="600" d="M424 -17 C530 -17 590 51 590 231 C590 429 528 493 423 493 C343 493 298 460 280 377 L280 482 C241 479 57 479 12 479 C13 453 13 398 12 372 L16 372 C40 372 51 357 54 328 C57 299 57 19 54 -17 C51 -53 43 -65 12 -65 L8 -65 C9 -91 9 -147 8 -173 C8 -173 110 -171 167 -171 C224 -171 325 -173 325 -173 C324 -147 324 -91 325 -65 L318 -65 C297 -65 280 -52 280 -17 L280 88 C297 14 349 -17 424 -17 L424 -17 Z M280 238 C280 358 291 372 325 372 C355 372 364 355 364 238 C364 124 351 105 323 105 C293 105 280 133 280 238 L280 238 Z " />
<glyph glyph-name="q" unicode="q" horiz-adv-x="600" d="M10 235 C10 44 65 -17 176 -17 C260 -17 306 25 320 111 L320 -6 C320 -44 303 -65 268 -65 L259 -65 C260 -91 260 -147 259 -173 C259 -173 366 -171 426 -171 C486 -171 592 -173 592 -173 C591 -147 591 -91 592 -65 L587 -65 C555 -65 546 -44 546 -6 L546 272 C546 351 552 448 558 493 C522 491 442 491 406 493 C401 468 391 446 377 426 C345 474 294 493 221 493 C78 493 10 406 10 235 L10 235 Z M320 235 C320 124 309 105 278 105 C249 105 236 123 236 235 C236 347 242 372 279 372 C307 372 320 361 320 235 L320 235 Z " />
<glyph glyph-name="r" unicode="r" horiz-adv-x="498" d="M10 108 C11 82 11 24 10 -2 C10 -2 115 0 174 0 C233 0 338 -2 338 -2 C337 24 337 82 338 108 L329 108 C288 108 283 117 282 147 C280 207 280 268 282 328 C284 393 316 426 369 426 C379 426 390 424 398 421 C351 422 310 394 310 342 C310 296 341 270 396 270 C456 270 490 307 490 374 C490 450 447 493 369 493 C292 493 245 441 231 376 L229 376 L233 481 C194 479 59 478 14 479 C15 453 15 398 14 372 L18 372 C46 372 53 357 56 328 C59 299 59 192 56 155 C53 118 45 108 14 108 L10 108 Z " />
<glyph glyph-name="s" unicode="s" horiz-adv-x="525" d="M269 402 C310 402 360 392 396 346 C415 348 455 348 474 346 C476 387 481 443 487 482 C470 480 433 480 416 482 C408 460 404 440 358 465 C327 482 283 493 247 493 C105 493 22 416 22 311 C22 203 89 135 235 126 C320 121 330 113 330 96 C330 81 318 67 264 67 C192 67 131 100 99 144 C81 142 44 142 26 144 C26 97 19 43 13 0 C31 2 68 2 86 0 C92 27 105 42 148 19 C195 -6 244 -17 299 -17 C449 -17 516 55 516 160 C516 270 450 332 322 342 C220 350 203 355 203 375 C203 389 215 402 269 402 L269 402 Z " />
<glyph glyph-name="t" unicode="t" horiz-adv-x="383" d="M317 216 C325 163 324 106 298 106 C286 106 278 118 278 197 L278 373 L373 372 C372 398 372 456 373 482 L278 479 C278 533 280 592 286 642 C264 640 217 640 195 642 C178 552 115 462 8 463 C9 442 9 395 8 374 L45 374 C45 289 39 200 39 141 C39 40 98 -17 203 -17 C349 -17 387 60 371 215 L317 216 Z " />
<glyph glyph-name="u" unicode="u" horiz-adv-x="613" d="M577 482 C577 482 485 479 435 479 C385 479 295 482 295 482 C296 456 296 398 295 372 L298 372 C341 372 348 354 348 317 L348 260 C348 155 346 105 303 105 C272 105 266 133 264 189 C263 215 263 263 263 305 C263 338 264 423 267 482 C267 482 182 479 135 479 C88 479 5 482 5 482 C6 456 6 398 5 372 L11 372 C32 372 38 348 38 301 L38 162 C38 47 89 -17 199 -17 C284 -17 332 29 348 98 L348 -2 C387 0 561 0 606 0 C605 26 605 82 606 108 L602 108 C579 108 574 132 574 177 L574 311 C574 356 574 418 577 482 L577 482 Z " />
<glyph glyph-name="v" unicode="v" horiz-adv-x="587" d="M579 372 C578 398 578 456 579 482 C579 482 503 480 467 480 C432 480 343 482 343 482 C344 456 344 398 343 372 L351 372 C377 372 386 352 379 317 C375 297 352 213 333 147 C316 213 296 297 293 317 C288 352 294 372 318 372 L326 372 C325 398 325 456 326 482 C326 482 198 480 150 480 C104 480 8 482 8 482 C9 456 9 398 8 372 L14 372 C52 372 58 357 84 274 C110 191 137 100 167 -7 C221 -5 340 -5 394 -7 C419 89 450 178 482 272 C514 366 526 372 575 372 L579 372 Z " />
<glyph glyph-name="w" unicode="w" horiz-adv-x="890" d="M460 -7 C517 -5 640 -5 697 -7 C697 -7 758 188 786 274 C814 360 824 372 870 372 L882 372 C881 398 881 456 882 482 C882 482 810 479 769 479 C728 479 656 482 656 482 C657 456 657 398 656 372 L663 372 C691 372 692 353 687 320 C683 298 662 201 647 136 C632 202 610 303 608 323 C604 353 608 372 632 372 L639 372 C638 398 638 456 639 482 C639 482 547 479 495 479 C443 479 350 482 350 482 C351 456 351 398 350 372 L355 372 C384 372 392 361 386 320 C382 293 357 200 341 141 C327 201 306 294 303 320 C298 359 303 372 328 372 L333 372 C332 398 332 456 333 482 C333 482 230 479 171 479 C113 479 8 482 8 482 C9 456 9 398 8 372 L14 372 C49 372 57 359 81 274 C105 189 154 -7 154 -7 C200 -5 299 -5 345 -7 C359 50 387 155 408 231 C426 154 449 48 460 -7 L460 -7 Z " />
<glyph glyph-name="x" unicode="x" horiz-adv-x="627" d="M237 165 C262 118 250 108 234 108 L227 108 C228 82 228 24 227 -2 C227 -2 352 0 423 0 C494 0 619 -2 619 -2 C618 24 618 82 619 108 L608 108 C563 108 530 120 502 163 L457 234 L498 296 C544 365 554 372 595 372 L609 372 C608 398 608 456 609 482 C609 482 555 480 525 480 C495 480 440 482 440 482 C441 456 441 398 440 372 L445 372 C474 372 485 346 462 312 L435 271 C426 285 417 301 411 313 C389 352 403 372 421 372 L425 372 C424 398 424 456 425 482 C425 482 295 480 222 480 C149 480 18 482 18 482 C19 456 19 398 18 372 L40 372 C103 372 116 358 144 317 C157 298 176 268 192 241 L163 194 C120 124 96 108 30 108 L8 108 C9 82 9 24 8 -2 C8 -2 74 0 111 0 C148 0 213 -2 213 -2 C212 24 212 82 213 108 L210 108 C181 108 173 130 194 165 L216 202 C223 191 230 178 237 165 L237 165 Z " />
<glyph glyph-name="y" unicode="y" horiz-adv-x="597" d="M398 320 C393 301 371 223 350 155 C332 221 313 297 309 320 C303 352 314 372 338 372 L346 372 C347 398 347 456 346 482 C346 482 238 479 177 479 C116 479 8 482 8 482 C9 456 9 398 8 372 L21 372 C57 372 60 352 71 319 C82 286 133 111 152 28 C189 29 263 30 311 29 C278 -82 263 -152 162 -152 C134 -152 111 -142 96 -123 C112 -135 137 -142 157 -142 C205 -142 239 -112 239 -67 C239 -17 209 12 152 12 C84 12 50 -32 50 -84 C50 -153 98 -191 183 -191 C276 -191 358 -164 426 58 C474 216 498 286 510 319 C522 353 538 372 575 372 L589 372 C588 398 587 456 589 482 C589 482 517 479 476 479 C435 479 363 482 363 482 C364 456 364 398 363 372 L373 372 C398 372 406 354 398 320 L398 320 Z " />
<glyph glyph-name="z" unicode="z" horiz-adv-x="492" d="M287 0 C374 0 480 -3 480 -3 C478 48 479 157 484 208 C466 206 429 206 411 208 C405 104 347 74 287 74 L266 74 C327 166 422 302 473 372 C472 398 472 456 473 482 L203 482 C111 482 48 481 11 485 C12 434 12 324 11 273 C29 275 66 275 84 273 C91 376 128 404 203 404 L213 404 C156 318 59 177 8 108 C9 82 9 26 8 0 L287 0 Z " />
<glyph glyph-name="braceleft" unicode="&#x7b;" horiz-adv-x="326" d="M30 282 L45 282 C137 282 100 195 68 84 C1 -148 157 -177 294 -177 L296 -115 C220 -115 222 -46 238 98 C252 223 248 293 117 307 C249 316 257 389 235 533 C212 690 239 728 296 728 L294 790 C111 790 10 714 68 529 C96 439 136 331 45 331 L30 331 L30 282 Z " />
<glyph glyph-name="bar" unicode="&#x7c;" horiz-adv-x="300" d="M139 -119 C139 -125 144 -130 150 -130 C156 -130 161 -125 161 -119 C161 -113 156 -108 150 -108 C144 -108 139 -113 139 -119 L139 -119 Z M133 -43 C133 -52 141 -60 150 -60 C159 -60 167 -52 167 -43 C167 -34 159 -26 150 -26 C141 -26 133 -34 133 -43 L133 -43 Z M128 33 C128 21 138 11 150 11 C162 11 172 21 172 33 C172 45 162 55 150 55 C138 55 128 45 128 33 L128 33 Z M123 109 C123 94 135 82 150 82 C165 82 177 94 177 109 C177 123 165 135 150 135 C135 135 123 123 123 109 L123 109 Z M120 185 C120 168 133 154 150 154 C167 154 180 168 180 185 C180 201 167 215 150 215 C133 215 120 201 120 185 L120 185 Z M118 261 C118 243 132 228 150 228 C168 228 182 243 182 261 C182 278 168 293 150 293 C132 293 118 278 118 261 L118 261 Z M117 337 C117 318 132 303 150 303 C168 303 183 318 183 337 C183 355 168 370 150 370 C132 370 117 355 117 337 L117 337 Z M118 412 C118 395 132 380 150 380 C168 380 182 395 182 412 C182 430 168 445 150 445 C132 445 118 430 118 412 L118 412 Z M120 488 C120 472 133 458 150 458 C167 458 180 472 180 488 C180 505 167 519 150 519 C133 519 120 505 120 488 L120 488 Z M123 564 C123 550 135 538 150 538 C165 538 177 550 177 564 C177 579 165 591 150 591 C135 591 123 579 123 564 L123 564 Z M128 640 C128 628 138 618 150 618 C162 618 172 628 172 640 C172 652 162 662 150 662 C138 662 128 652 128 640 L128 640 Z M133 716 C133 707 141 699 150 699 C159 699 167 707 167 716 C167 725 159 733 150 733 C141 733 133 725 133 716 L133 716 Z M139 792 C139 786 144 781 150 781 C156 781 161 786 161 792 C161 798 156 803 150 803 C144 803 139 798 139 792 L139 792 Z " />
<glyph glyph-name="braceright" unicode="&#x7d;" horiz-adv-x="316" d="M286 331 L271 331 C180 331 220 439 248 529 C306 714 215 790 32 790 L30 728 C87 728 114 690 91 533 C69 389 77 316 209 307 C78 293 74 223 88 98 C104 -46 106 -115 30 -115 L32 -177 C169 -177 315 -148 248 84 C216 195 179 282 271 282 L286 282 L286 331 Z " />
<glyph glyph-name="asciitilde" unicode="&#x7e;" horiz-adv-x="532" d="M403 686 C425 630 404 610 379 610 C367 610 354 615 340 637 C303 694 260 714 207 714 C126 714 48 655 93 542 L132 555 C107 614 134 631 156 631 C172 631 183 623 195 604 C230 547 274 527 328 527 C416 527 486 592 442 700 L403 686 Z " />
<glyph glyph-name="exclamdown" unicode="&#xa1;" horiz-adv-x="324" d="M56 395 C56 328 94 291 163 291 C230 291 267 327 267 392 C267 457 230 493 163 493 C94 493 56 458 56 395 L56 395 Z M148 227 C148 74 117 76 60 -22 C-1 -126 49 -240 165 -240 C286 -240 328 -126 272 -22 C219 76 184 77 184 227 C184 248 177 259 165 259 C154 259 148 248 148 227 L148 227 Z " />
<glyph glyph-name="cent" unicode="&#xa2;" horiz-adv-x="528" d="M288 331 C296 377 308 437 321 496 C332 496 343 495 352 494 C339 481 333 464 333 445 C333 400 362 371 414 371 C473 371 506 401 506 454 C506 530 448 577 342 590 C356 653 367 700 367 700 L315 709 C315 709 308 648 301 593 C133 601 20 512 20 335 C20 190 94 113 212 91 C200 36 186 -22 186 -22 L238 -31 C238 -31 243 19 252 86 C262 85 277 84 288 84 C429 84 508 140 508 240 C508 299 476 332 418 332 C365 332 328 307 328 259 C328 228 341 206 366 194 C352 189 336 186 319 186 C297 186 281 191 267 201 L288 331 Z M225 341 C225 435 249 478 287 491 C279 436 270 375 263 335 C257 301 250 266 243 231 C230 258 225 294 225 341 L225 341 Z " />
<glyph glyph-name="sterling" unicode="&#xa3;" horiz-adv-x="600" d="M72 256 L183 261 C196 242 208 221 215 198 C199 200 181 201 161 201 C89 201 24 160 24 84 C24 24 65 -16 151 -16 C200 -16 242 -2 275 21 C315 0 362 -20 428 -20 C546 -20 596 73 575 185 L502 195 C492 173 472 164 430 164 C402 164 378 167 355 172 C356 184 357 196 357 209 C357 226 355 243 352 259 L438 256 C437 281 437 305 438 330 C417 328 377 327 333 326 C315 377 295 426 295 479 C295 551 336 586 391 586 C421 586 443 576 456 561 C399 574 359 543 359 494 C359 449 391 419 442 419 C506 419 548 458 548 533 C548 629 480 700 325 700 C171 700 64 612 64 488 C64 416 95 369 129 326 C106 327 86 328 72 330 C73 305 73 281 72 256 L72 256 Z M136 29 C103 29 89 42 89 59 C89 77 103 88 136 88 C159 88 180 79 203 66 C187 41 163 29 136 29 L136 29 Z " />
<glyph glyph-name="yen" unicode="&#xa5;" horiz-adv-x="599" d="M61 438 L61 341 L140 344 L151 305 L61 308 L61 211 L173 216 L173 190 C173 156 170 131 125 131 L106 131 C107 99 107 30 106 -2 C106 -2 232 0 303 0 C374 0 499 -2 499 -2 C498 30 498 99 499 131 L482 131 C439 131 426 156 426 190 L426 215 L547 211 C546 234 546 285 547 308 L438 305 C443 318 449 331 454 345 L547 341 C546 364 546 415 547 438 L491 436 L520 505 C538 545 560 559 587 559 L594 559 C593 590 593 659 594 690 C594 690 529 688 492 688 C455 688 389 690 389 690 C390 659 390 590 389 559 L397 559 C426 559 426 524 417 479 C410 444 391 400 375 365 C366 387 351 427 337 477 C321 532 332 559 358 559 L364 559 C363 590 363 659 364 690 C364 690 250 688 185 688 C120 688 5 690 5 690 C6 659 6 590 5 559 L21 559 C65 559 82 537 110 453 L115 436 L61 438 Z " />
<glyph glyph-name="brokenbar" unicode="&#xa6;" horiz-adv-x="300" d="M139 -119 C139 -125 144 -130 150 -130 C156 -130 161 -125 161 -119 C161 -113 156 -108 150 -108 C144 -108 139 -113 139 -119 L139 -119 Z M133 -43 C133 -52 141 -60 150 -60 C159 -60 167 -52 167 -43 C167 -34 159 -26 150 -26 C141 -26 133 -34 133 -43 L133 -43 Z M128 33 C128 21 138 11 150 11 C162 11 172 21 172 33 C172 45 162 55 150 55 C138 55 128 45 128 33 L128 33 Z M123 109 C123 94 135 82 150 82 C165 82 177 94 177 109 C177 123 165 135 150 135 C135 135 123 123 123 109 L123 109 Z M120 185 C120 168 133 154 150 154 C167 154 180 168 180 185 C180 201 167 215 150 215 C133 215 120 201 120 185 L120 185 Z M118 261 C118 243 132 228 150 228 C168 228 182 243 182 261 C182 278 168 293 150 293 C132 293 118 278 118 261 L118 261 Z M118 412 C118 395 132 380 150 380 C168 380 182 395 182 412 C182 430 168 445 150 445 C132 445 118 430 118 412 L118 412 Z M120 488 C120 472 133 458 150 458 C167 458 180 472 180 488 C180 505 167 519 150 519 C133 519 120 505 120 488 L120 488 Z M123 564 C123 550 135 538 150 538 C165 538 177 550 177 564 C177 579 165 591 150 591 C135 591 123 579 123 564 L123 564 Z M128 640 C128 628 138 618 150 618 C162 618 172 628 172 640 C172 652 162 662 150 662 C138 662 128 652 128 640 L128 640 Z M133 716 C133 707 141 699 150 699 C159 699 167 707 167 716 C167 725 159 733 150 733 C141 733 133 725 133 716 L133 716 Z M139 792 C139 786 144 781 150 781 C156 781 161 786 161 792 C161 798 156 803 150 803 C144 803 139 798 139 792 L139 792 Z " />
<glyph glyph-name="section" unicode="&#xa7;" horiz-adv-x="899" d="M326 -153 C429 -130 596 -40 637 280 C681 618 704 646 778 646 C790 646 803 642 815 635 C764 637 739 605 736 576 C731 529 760 504 807 504 C853 504 892 532 898 590 C905 656 861 710 763 710 C664 710 530 680 477 320 C430 1 396 -75 324 -140 L326 -153 Z M574 663 C471 640 305 550 263 230 C220 -103 202 -136 130 -136 C111 -136 96 -132 84 -125 C135 -127 160 -96 164 -66 C170 -18 143 6 93 6 C49 6 8 -23 2 -80 C-6 -158 53 -200 126 -200 C226 -200 368 -184 423 190 C470 509 504 585 576 650 L574 663 Z " />
<glyph glyph-name="dieresis" unicode="&#xa8;" horiz-adv-x="534" d="M247 621 C247 663 219 685 183 685 C149 685 120 663 120 621 C120 579 149 558 183 558 C219 558 247 579 247 621 L247 621 Z M422 621 C422 663 393 685 358 685 C323 685 295 663 295 621 C295 579 323 558 358 558 C393 558 422 579 422 621 L422 621 Z " />
<glyph glyph-name="copyright" unicode="&#xa9;" horiz-adv-x="854" d="M427 45 C240 45 135 152 135 344 C135 536 240 644 427 644 C614 644 719 536 719 344 C719 152 614 45 427 45 L427 45 Z M427 -16 C662 -16 794 113 794 344 C794 575 662 705 427 705 C192 705 60 575 60 344 C60 113 192 -16 427 -16 L427 -16 Z M404 555 C295 555 229 482 229 349 C229 192 293 143 428 143 C560 143 618 193 613 307 C586 305 520 305 493 307 C497 254 477 235 448 235 C421 235 402 250 402 349 C402 447 424 463 455 463 C489 463 507 435 505 388 C530 389 571 389 596 388 C598 424 604 503 608 540 C592 539 561 539 544 540 C537 515 523 520 506 531 C479 547 448 555 404 555 L404 555 Z " />
<glyph glyph-name="ordfeminine" unicode="&#xaa;" horiz-adv-x="507" d="M53 183 C110 185 376 185 433 183 C432 216 432 286 433 319 C376 317 110 317 53 319 C54 286 54 215 53 183 L53 183 Z M390 546 C390 648 351 695 230 695 C145 695 74 660 74 597 C74 561 97 540 134 540 C175 540 199 561 199 595 C199 614 190 628 175 636 C230 634 240 606 240 566 L240 532 C137 529 55 502 55 420 C55 363 99 339 148 339 C197 339 231 356 251 386 C264 355 292 339 340 339 C429 339 449 408 440 499 L411 498 C416 457 414 423 402 423 C389 423 390 435 390 473 L390 546 Z M241 426 C241 426 236 423 228 423 C215 423 204 428 204 461 C204 493 216 502 240 504 L240 450 C240 441 240 433 241 426 L241 426 Z " />
<glyph glyph-name="guillemotleft" unicode="&#xab;" horiz-adv-x="476" d="M233 432 C187 399 92 329 50 296 L50 210 C96 177 190 105 232 72 L245 83 C239 130 214 200 182 248 C216 300 242 373 246 421 L233 432 Z M413 432 C367 399 272 329 230 296 L230 210 C276 177 370 105 412 72 L425 83 C419 130 394 200 362 248 C396 300 422 373 426 421 L413 432 Z " />
<glyph glyph-name="registered" unicode="&#xae;" horiz-adv-x="854" d="M427 45 C240 45 135 152 135 344 C135 536 240 644 427 644 C614 644 719 536 719 344 C719 152 614 45 427 45 L427 45 Z M427 -16 C662 -16 794 113 794 344 C794 575 662 705 427 705 C192 705 60 575 60 344 C60 113 192 -16 427 -16 L427 -16 Z M618 255 C612 294 594 326 555 337 C599 351 633 379 633 432 C633 508 583 538 452 538 L346 538 C325 538 246 539 215 540 C216 521 216 480 215 461 L224 461 C245 461 250 450 253 428 C254 406 254 293 253 270 C250 247 243 238 226 238 L215 238 C216 219 216 176 215 158 C215 158 289 159 330 159 C372 159 445 158 445 158 C444 176 444 219 445 238 L436 238 C416 238 410 247 409 271 C408 279 407 298 407 320 C440 315 454 293 458 240 C461 183 483 144 573 144 C662 144 682 205 664 270 C662 270 634 267 630 267 C637 253 644 223 633 223 C626 223 621 235 618 255 L618 255 Z M409 439 C409 452 414 461 430 461 L433 461 C464 461 467 440 467 415 C467 384 460 360 426 360 L407 360 C407 392 408 424 409 439 L409 439 Z " />
<glyph glyph-name="macron" unicode="&#xaf;" horiz-adv-x="532" d="M109 553 C170 555 344 555 405 553 C404 574 404 638 405 659 C344 657 170 657 109 659 C110 638 110 573 109 553 L109 553 Z " />
<glyph glyph-name="degree" unicode="&#xb0;" horiz-adv-x="356" d="M178 417 C123 417 94 448 94 535 C94 621 124 652 178 652 C232 652 261 621 261 535 C261 449 232 417 178 417 L178 417 Z M178 376 C273 376 326 433 326 535 C326 638 273 695 178 695 C83 695 30 638 30 535 C30 433 83 376 178 376 L178 376 Z " />
<glyph glyph-name="plusminus" unicode="&#xb1;" horiz-adv-x="600" d="M80 0 C195 2 405 2 520 0 C518 33 518 68 520 101 C475 100 415 99 353 99 C350 134 346 174 342 207 C400 198 482 193 523 193 L523 308 C482 308 401 303 343 294 C352 352 357 432 357 473 L242 473 C242 433 246 352 255 294 C197 303 117 308 77 308 L77 193 C117 193 198 198 256 207 C251 174 248 134 245 99 C183 99 124 100 80 101 C82 68 82 32 80 0 L80 0 Z " />
<glyph glyph-name="acute" unicode="&#xb4;" horiz-adv-x="532" d="M157 548 C205 546 283 560 337 590 C426 639 379 733 283 688 C234 664 177 607 150 561 L157 548 Z " />
<glyph glyph-name="paragraph" unicode="&#xb6;" horiz-adv-x="593" d="M194 -156 C179 -156 167 -154 158 -151 C206 -151 237 -123 237 -86 C237 -44 213 -21 170 -21 C119 -21 92 -47 92 -94 C92 -162 151 -200 257 -200 C408 -200 493 -112 493 46 L492 534 C492 570 511 583 541 583 L553 583 C552 614 552 659 553 690 L361 690 C155 690 40 597 40 431 C40 266 123 173 272 173 L275 173 L275 -50 C275 -116 251 -156 194 -156 L194 -156 Z " />
<glyph glyph-name="periodcentered" unicode="&#xb7;" horiz-adv-x="328" d="M278 245 C278 305 240 353 164 353 C97 353 50 308 50 246 C50 173 96 139 164 139 C239 139 278 180 278 245 L278 245 Z " />
<glyph glyph-name="cedilla" unicode="&#xb8;" horiz-adv-x="532" d="M213 -105 C259 -87 288 -107 288 -138 C288 -165 276 -184 238 -184 C215 -184 193 -173 174 -152 L149 -178 C168 -203 207 -234 273 -234 C350 -234 395 -196 395 -141 C395 -85 345 -59 290 -60 C305 -44 311 -24 309 0 L270 7 C268 -40 240 -66 201 -77 L213 -105 Z " />
<glyph glyph-name="ordmasculine" unicode="&#xba;" horiz-adv-x="453" d="M53 183 C110 185 346 185 403 183 C402 216 402 286 403 319 C346 317 110 317 53 319 C54 286 54 215 53 183 L53 183 Z M53 515 C53 388 118 339 232 339 C347 339 412 388 412 513 C412 638 350 695 232 695 C121 695 53 638 53 515 L53 515 Z M202 513 C202 599 211 615 232 615 C254 615 263 599 263 513 C263 433 253 421 232 421 C211 421 202 433 202 513 L202 513 Z " />
<glyph glyph-name="guillemotright" unicode="&#xbb;" horiz-adv-x="476" d="M50 421 C54 373 80 300 114 248 C82 200 57 130 51 83 L64 72 C106 105 200 177 246 210 L246 296 C204 329 109 399 63 432 L50 421 Z M230 421 C234 373 260 300 294 248 C262 200 237 130 231 83 L244 72 C286 105 380 177 426 210 L426 296 C384 329 289 399 243 432 L230 421 Z " />
<glyph glyph-name="onequarter" unicode="&#xbc;" horiz-adv-x="378" d="M6 344 C6 327 15 318 32 318 C46 318 57 327 57 344 C57 358 46 369 32 369 C15 369 6 358 6 344 L6 344 Z M72 344 C72 329 80 321 95 321 C108 321 117 329 117 344 C117 357 108 366 95 366 C80 366 72 357 72 344 L72 344 Z M137 344 C137 330 144 323 158 323 C169 323 178 330 178 344 C178 355 169 364 158 364 C144 364 137 355 137 344 L137 344 Z M200 344 C200 330 207 323 221 323 C232 323 241 330 241 344 C241 355 232 364 221 364 C207 364 200 355 200 344 L200 344 Z M261 344 C261 329 269 321 284 321 C297 321 306 329 306 344 C306 357 297 366 284 366 C269 366 261 357 261 344 L261 344 Z M321 344 C321 327 330 318 347 318 C361 318 372 327 372 344 C372 358 361 369 347 369 C330 369 321 358 321 344 L321 344 Z M94 466 L64 466 C65 451 65 418 64 403 C64 403 145 405 190 405 C235 405 315 403 315 403 C314 418 314 451 315 466 L289 466 C265 466 258 480 258 495 L258 567 C258 626 266 710 266 710 C247 708 204 708 185 710 C180 676 150 654 89 654 L71 654 C72 638 72 602 71 586 L124 587 L124 495 C124 480 117 466 94 466 L94 466 Z M132 31 L106 31 C107 18 107 -10 106 -22 C106 -22 182 -20 224 -20 C267 -20 342 -22 342 -22 C341 -10 341 18 342 31 L319 31 C306 31 301 42 301 54 L301 57 L338 56 C337 72 338 89 338 89 L301 88 L301 286 C270 284 202 284 170 286 L37 83 L37 58 C64 59 108 59 151 59 L151 53 C151 38 144 31 132 31 L132 31 Z M94 86 L151 192 L151 86 L94 86 Z " />
<glyph glyph-name="onehalf" unicode="&#xbd;" horiz-adv-x="378" d="M6 344 C6 327 15 318 32 318 C46 318 57 327 57 344 C57 358 46 369 32 369 C15 369 6 358 6 344 L6 344 Z M72 344 C72 329 80 321 95 321 C108 321 117 329 117 344 C117 357 108 366 95 366 C80 366 72 357 72 344 L72 344 Z M137 344 C137 330 144 323 158 323 C169 323 178 330 178 344 C178 355 169 364 158 364 C144 364 137 355 137 344 L137 344 Z M200 344 C200 330 207 323 221 323 C232 323 241 330 241 344 C241 355 232 364 221 364 C207 364 200 355 200 344 L200 344 Z M261 344 C261 329 269 321 284 321 C297 321 306 329 306 344 C306 357 297 366 284 366 C269 366 261 357 261 344 L261 344 Z M321 344 C321 327 330 318 347 318 C361 318 372 327 372 344 C372 358 361 369 347 369 C330 369 321 358 321 344 L321 344 Z M316 99 L283 94 C288 61 259 58 204 71 C161 81 122 78 98 61 C120 83 160 89 197 97 C255 109 324 122 324 201 C324 251 285 290 188 290 C118 290 56 265 56 203 C56 171 77 152 112 152 C147 152 167 167 167 192 C167 214 151 227 123 227 C111 227 101 225 92 221 C101 232 119 238 135 238 C167 238 185 223 185 192 C185 169 176 154 143 135 C103 111 44 79 44 14 C44 -16 59 -30 78 -30 C94 -30 104 -22 104 -9 C104 1 96 9 82 10 C98 18 115 19 153 -2 C173 -13 201 -30 248 -30 C346 -30 347 62 316 99 L316 99 Z M94 466 L64 466 C65 451 65 418 64 403 C64 403 145 405 190 405 C235 405 315 403 315 403 C314 418 314 451 315 466 L289 466 C265 466 258 480 258 495 L258 567 C258 626 266 710 266 710 C247 708 204 708 185 710 C180 676 150 654 89 654 L71 654 C72 638 72 602 71 586 L124 587 L124 495 C124 480 117 466 94 466 L94 466 Z " />
<glyph glyph-name="threequarters" unicode="&#xbe;" horiz-adv-x="378" d="M6 344 C6 327 15 318 32 318 C46 318 57 327 57 344 C57 358 46 369 32 369 C15 369 6 358 6 344 L6 344 Z M72 344 C72 329 80 321 95 321 C108 321 117 329 117 344 C117 357 108 366 95 366 C80 366 72 357 72 344 L72 344 Z M137 344 C137 330 144 323 158 323 C169 323 178 330 178 344 C178 355 169 364 158 364 C144 364 137 355 137 344 L137 344 Z M200 344 C200 330 207 323 221 323 C232 323 241 330 241 344 C241 355 232 364 221 364 C207 364 200 355 200 344 L200 344 Z M261 344 C261 329 269 321 284 321 C297 321 306 329 306 344 C306 357 297 366 284 366 C269 366 261 357 261 344 L261 344 Z M321 344 C321 327 330 318 347 318 C361 318 372 327 372 344 C372 358 361 369 347 369 C330 369 321 358 321 344 L321 344 Z M324 629 C324 679 275 715 192 715 C117 715 57 689 57 632 C57 598 80 581 114 581 C147 581 165 598 165 618 C165 638 153 651 123 651 C113 651 103 650 95 647 C104 657 118 663 137 663 C176 663 186 641 186 620 C186 589 163 571 132 571 L124 571 L124 536 L131 536 C167 536 186 517 186 489 C186 455 164 440 132 440 C120 440 108 442 98 447 C140 446 160 463 160 488 C160 511 139 527 105 527 C70 527 48 508 47 477 C46 427 90 395 172 395 C272 395 333 417 333 486 C333 523 309 548 254 557 C294 567 324 585 324 629 L324 629 Z M132 31 L106 31 C107 18 107 -10 106 -22 C106 -22 182 -20 224 -20 C267 -20 342 -22 342 -22 C341 -10 341 18 342 31 L319 31 C306 31 301 42 301 54 L301 57 L338 56 C337 72 338 89 338 89 L301 88 L301 286 C270 284 202 284 170 286 L37 83 L37 58 C64 59 108 59 151 59 L151 53 C151 38 144 31 132 31 L132 31 Z M94 86 L151 192 L151 86 L94 86 Z " />
<glyph glyph-name="questiondown" unicode="&#xbf;" horiz-adv-x="550" d="M159 188 C192 204 227 213 250 213 C266 213 276 205 276 198 C276 187 270 178 230 167 C115 136 20 88 20 -41 C20 -154 93 -240 278 -240 C425 -240 530 -166 530 -42 C530 27 494 68 424 68 C360 68 321 32 321 -21 C321 -76 357 -111 414 -111 C424 -111 434 -110 441 -109 C422 -120 396 -127 371 -127 C303 -127 270 -90 270 -19 C270 32 307 70 336 92 C380 126 397 148 397 186 C397 233 358 261 292 261 C240 261 181 241 145 222 L159 188 Z M168 392 C168 329 207 291 272 291 C339 291 379 329 379 392 C379 455 339 493 272 493 C207 493 168 455 168 392 L168 392 Z " />
<glyph glyph-name="Agrave" unicode="&#xc0;" horiz-adv-x="886" d="M428 131 L393 131 C394 100 394 29 393 -2 C393 -2 546 0 632 0 C718 0 871 -2 871 -2 C870 29 870 100 871 131 L857 131 C821 131 794 145 761 224 C714 337 621 581 580 695 C580 695 498 693 451 693 C404 693 321 695 321 695 C262 538 202 381 141 224 C115 157 89 131 29 131 L15 131 C16 100 16 29 15 -2 C15 -2 121 0 181 0 C241 0 347 -2 347 -2 C346 29 346 100 347 131 L315 131 C277 131 260 149 275 206 C335 207 408 207 468 206 C479 156 474 131 428 131 L428 131 Z M447 276 C401 275 346 275 299 275 C318 331 348 414 373 484 C399 413 428 331 447 276 L447 276 Z M523 751 C495 797 441 853 392 877 C298 921 242 830 335 780 C389 750 466 734 515 738 L523 751 Z " />
<glyph glyph-name="Aacute" unicode="&#xc1;" horiz-adv-x="886" d="M428 131 L393 131 C394 100 394 29 393 -2 C393 -2 546 0 632 0 C718 0 871 -2 871 -2 C870 29 870 100 871 131 L857 131 C821 131 794 145 761 224 C714 337 621 581 580 695 C580 695 498 693 451 693 C404 693 321 695 321 695 C262 538 202 381 141 224 C115 157 89 131 29 131 L15 131 C16 100 16 29 15 -2 C15 -2 121 0 181 0 C241 0 347 -2 347 -2 C346 29 346 100 347 131 L315 131 C277 131 260 149 275 206 C335 207 408 207 468 206 C479 156 474 131 428 131 L428 131 Z M447 276 C401 275 346 275 299 275 C318 331 348 414 373 484 C399 413 428 331 447 276 L447 276 Z M393 738 C441 736 519 750 573 780 C662 829 615 923 519 878 C470 854 413 797 386 751 L393 738 Z " />
<glyph glyph-name="Acircumflex" unicode="&#xc2;" horiz-adv-x="886" d="M428 131 L393 131 C394 100 394 29 393 -2 C393 -2 546 0 632 0 C718 0 871 -2 871 -2 C870 29 870 100 871 131 L857 131 C821 131 794 145 761 224 C714 337 621 581 580 695 C580 695 498 693 451 693 C404 693 321 695 321 695 C262 538 202 381 141 224 C115 157 89 131 29 131 L15 131 C16 100 16 29 15 -2 C15 -2 121 0 181 0 C241 0 347 -2 347 -2 C346 29 346 100 347 131 L315 131 C277 131 260 149 275 206 C335 207 408 207 468 206 C479 156 474 131 428 131 L428 131 Z M447 276 C401 275 346 275 299 275 C318 331 348 414 373 484 C399 413 428 331 447 276 L447 276 Z M593 742 C565 811 526 865 488 895 L400 895 C360 861 313 807 293 743 L302 732 C341 737 400 758 440 785 C483 756 544 735 584 731 L593 742 Z " />
<glyph glyph-name="Atilde" unicode="&#xc3;" horiz-adv-x="886" d="M428 131 L393 131 C394 100 394 29 393 -2 C393 -2 546 0 632 0 C718 0 871 -2 871 -2 C870 29 870 100 871 131 L857 131 C821 131 794 145 761 224 C714 337 621 581 580 695 C580 695 498 693 451 693 C404 693 321 695 321 695 C262 538 202 381 141 224 C115 157 89 131 29 131 L15 131 C16 100 16 29 15 -2 C15 -2 121 0 181 0 C241 0 347 -2 347 -2 C346 29 346 100 347 131 L315 131 C277 131 260 149 275 206 C335 207 408 207 468 206 C479 156 474 131 428 131 L428 131 Z M447 276 C401 275 346 275 299 275 C318 331 348 414 373 484 C399 413 428 331 447 276 L447 276 Z M556 862 C575 815 557 798 536 798 C526 798 515 802 503 821 C472 869 436 886 391 886 C323 886 257 836 295 741 L328 752 C307 801 330 816 348 816 C362 816 371 809 381 793 C411 745 448 728 493 728 C567 728 626 783 589 874 L556 862 Z " />
<glyph glyph-name="Adieresis" unicode="&#xc4;" horiz-adv-x="886" d="M428 131 L393 131 C394 100 394 29 393 -2 C393 -2 546 0 632 0 C718 0 871 -2 871 -2 C870 29 870 100 871 131 L857 131 C821 131 794 145 761 224 C714 337 621 581 580 695 C580 695 498 693 451 693 C404 693 321 695 321 695 C262 538 202 381 141 224 C115 157 89 131 29 131 L15 131 C16 100 16 29 15 -2 C15 -2 121 0 181 0 C241 0 347 -2 347 -2 C346 29 346 100 347 131 L315 131 C277 131 260 149 275 206 C335 207 408 207 468 206 C479 156 474 131 428 131 L428 131 Z M447 276 C401 275 346 275 299 275 C318 331 348 414 373 484 C399 413 428 331 447 276 L447 276 Z M419 811 C419 853 391 875 355 875 C321 875 292 853 292 811 C292 769 321 748 355 748 C391 748 419 769 419 811 L419 811 Z M594 811 C594 853 565 875 530 875 C495 875 467 853 467 811 C467 769 495 748 530 748 C565 748 594 769 594 811 L594 811 Z " />
<glyph glyph-name="Aring" unicode="&#xc5;" horiz-adv-x="886" d="M428 131 L393 131 C394 100 394 29 393 -2 C393 -2 546 0 632 0 C718 0 871 -2 871 -2 C870 29 870 100 871 131 L857 131 C821 131 794 145 761 224 C714 337 621 581 580 695 C580 695 498 693 451 693 C404 693 321 695 321 695 C262 538 202 381 141 224 C115 157 89 131 29 131 L15 131 C16 100 16 29 15 -2 C15 -2 121 0 181 0 C241 0 347 -2 347 -2 C346 29 346 100 347 131 L315 131 C277 131 260 149 275 206 C335 207 408 207 468 206 C479 156 474 131 428 131 L428 131 Z M447 276 C401 275 346 275 299 275 C318 331 348 414 373 484 C399 413 428 331 447 276 L447 276 Z M489 840 C489 809 473 791 444 791 C415 791 398 809 398 840 C398 870 415 887 444 887 C473 887 489 870 489 840 L489 840 Z M540 840 C540 902 505 936 442 936 C381 936 347 902 347 840 C347 778 382 743 444 743 C506 743 540 778 540 840 L540 840 Z " />
<glyph glyph-name="AE" unicode="&#xc6;" horiz-adv-x="1108" d="M338 296 C370 354 412 426 458 497 C465 452 466 356 465 297 C426 296 380 296 338 296 L338 296 Z M728 306 C776 306 786 290 786 229 L786 193 C834 194 882 193 882 193 C877 244 874 270 874 344 C874 417 877 437 882 495 C882 495 833 494 784 495 L784 456 C784 397 773 382 728 382 L716 382 C716 424 717 464 718 493 C720 541 743 558 787 558 L842 558 C895 558 946 550 946 435 L946 426 C979 428 1050 428 1083 426 C1082 498 1085 622 1089 695 C1042 689 878 689 835 689 C695 689 683 688 602 688 C525 688 380 686 290 694 L290 558 L303 558 C351 558 354 526 338 499 C264 375 198 278 162 224 C121 162 89 131 30 131 L15 131 C16 100 16 29 15 -2 C15 -2 121 0 181 0 C241 0 349 -2 349 -2 C348 29 348 100 349 131 L324 131 C283 131 277 165 302 224 L305 231 L464 231 C464 231 464 214 463 200 C460 152 446 131 400 131 L383 131 C384 100 384 29 383 -2 C383 -2 512 0 582 0 C655 0 858 -2 858 -2 C901 -2 1036 -2 1083 -6 C1083 80 1086 208 1093 282 C1058 280 984 280 949 282 L949 273 C949 152 917 131 844 131 L786 131 C741 131 721 145 718 200 C717 221 716 262 716 306 L728 306 Z " />
<glyph glyph-name="Ccedilla" unicode="&#xc7;" horiz-adv-x="724" d="M299 -105 C345 -87 374 -107 374 -138 C374 -165 362 -184 324 -184 C301 -184 279 -173 260 -152 L235 -178 C254 -203 293 -234 359 -234 C436 -234 481 -196 481 -141 C481 -85 431 -59 376 -60 C387 -47 394 -32 395 -15 C631 -11 713 64 708 270 C665 268 546 268 503 270 C508 169 466 131 414 131 C358 131 313 157 313 346 C313 529 348 559 415 559 C475 559 502 513 502 423 C543 425 647 425 688 423 C691 487 702 646 708 690 C682 688 626 688 600 690 C595 642 583 641 550 662 C503 692 449 710 360 710 C159 710 25 590 25 346 C25 82 146 -8 353 -15 C344 -48 319 -68 287 -77 L299 -105 Z " />
<glyph glyph-name="Egrave" unicode="&#xc8;" horiz-adv-x="734" d="M410 456 C410 397 399 382 354 382 L342 382 C342 424 343 464 344 493 C346 541 369 558 413 558 L468 558 C521 558 572 549 572 423 C605 425 676 425 709 423 C708 495 711 622 715 695 C668 689 504 688 461 688 L228 688 C151 688 31 690 15 690 C16 659 16 590 15 559 L27 559 C66 559 87 537 90 482 C93 427 92 248 89 200 C86 152 72 131 26 131 L15 131 C16 100 16 29 15 -2 C31 -2 151 0 228 0 L461 0 C522 0 642 -2 709 -6 C709 80 712 208 719 282 C684 280 610 280 575 282 C575 152 543 131 470 131 L412 131 C367 131 347 145 344 200 C343 221 342 262 342 306 L354 306 C402 306 412 290 412 229 L412 193 C460 194 508 193 508 193 C503 244 500 270 500 344 C500 417 503 437 508 495 C508 495 459 494 410 495 L410 456 Z M467 751 C439 797 385 853 336 877 C242 921 186 830 279 780 C333 750 410 734 459 738 L467 751 Z " />
<glyph glyph-name="Eacute" unicode="&#xc9;" horiz-adv-x="734" d="M317 738 C365 736 443 750 497 780 C586 829 539 923 443 878 C394 854 337 797 310 751 L317 738 Z M410 456 C410 397 399 382 354 382 L342 382 C342 424 343 464 344 493 C346 541 369 558 413 558 L468 558 C521 558 572 549 572 423 C605 425 676 425 709 423 C708 495 711 622 715 695 C668 689 504 688 461 688 L228 688 C151 688 31 690 15 690 C16 659 16 590 15 559 L27 559 C66 559 87 537 90 482 C93 427 92 248 89 200 C86 152 72 131 26 131 L15 131 C16 100 16 29 15 -2 C31 -2 151 0 228 0 L461 0 C522 0 642 -2 709 -6 C709 80 712 208 719 282 C684 280 610 280 575 282 C575 152 543 131 470 131 L412 131 C367 131 347 145 344 200 C343 221 342 262 342 306 L354 306 C402 306 412 290 412 229 L412 193 C460 194 508 193 508 193 C503 244 500 270 500 344 C500 417 503 437 508 495 C508 495 459 494 410 495 L410 456 Z " />
<glyph glyph-name="Ecircumflex" unicode="&#xca;" horiz-adv-x="734" d="M527 742 C499 811 460 865 422 895 L334 895 C294 861 247 807 227 743 L236 732 C275 737 334 758 374 785 C417 756 478 735 518 731 L527 742 Z M410 456 C410 397 399 382 354 382 L342 382 C342 424 343 464 344 493 C346 541 369 558 413 558 L468 558 C521 558 572 549 572 423 C605 425 676 425 709 423 C708 495 711 622 715 695 C668 689 504 688 461 688 L228 688 C151 688 31 690 15 690 C16 659 16 590 15 559 L27 559 C66 559 87 537 90 482 C93 427 92 248 89 200 C86 152 72 131 26 131 L15 131 C16 100 16 29 15 -2 C31 -2 151 0 228 0 L461 0 C522 0 642 -2 709 -6 C709 80 712 208 719 282 C684 280 610 280 575 282 C575 152 543 131 470 131 L412 131 C367 131 347 145 344 200 C343 221 342 262 342 306 L354 306 C402 306 412 290 412 229 L412 193 C460 194 508 193 508 193 C503 244 500 270 500 344 C500 417 503 437 508 495 C508 495 459 494 410 495 L410 456 Z " />
<glyph glyph-name="Edieresis" unicode="&#xcb;" horiz-adv-x="734" d="M353 811 C353 853 325 875 289 875 C255 875 226 853 226 811 C226 769 255 748 289 748 C325 748 353 769 353 811 L353 811 Z M528 811 C528 853 499 875 464 875 C429 875 401 853 401 811 C401 769 429 748 464 748 C499 748 528 769 528 811 L528 811 Z M410 456 C410 397 399 382 354 382 L342 382 C342 424 343 464 344 493 C346 541 369 558 413 558 L468 558 C521 558 572 549 572 423 C605 425 676 425 709 423 C708 495 711 622 715 695 C668 689 504 688 461 688 L228 688 C151 688 31 690 15 690 C16 659 16 590 15 559 L27 559 C66 559 87 537 90 482 C93 427 92 248 89 200 C86 152 72 131 26 131 L15 131 C16 100 16 29 15 -2 C31 -2 151 0 228 0 L461 0 C522 0 642 -2 709 -6 C709 80 712 208 719 282 C684 280 610 280 575 282 C575 152 543 131 470 131 L412 131 C367 131 347 145 344 200 C343 221 342 262 342 306 L354 306 C402 306 412 290 412 229 L412 193 C460 194 508 193 508 193 C503 244 500 270 500 344 C500 417 503 437 508 495 C508 495 459 494 410 495 L410 456 Z " />
<glyph glyph-name="Igrave" unicode="&#xcc;" horiz-adv-x="428" d="M17 -3 C17 -3 143 0 214 0 C285 0 411 -3 411 -3 C410 28 410 100 411 131 L390 131 C354 131 344 156 341 190 C338 224 338 461 341 500 C344 539 357 559 393 559 L412 559 C411 590 411 659 412 690 C412 690 286 688 215 688 C144 688 17 690 17 690 C18 659 18 590 17 559 L35 559 C71 559 84 539 87 500 C90 461 90 224 87 190 C84 156 78 131 38 131 L17 131 C18 100 18 28 17 -3 L17 -3 Z M294 751 C266 797 212 853 163 877 C69 921 13 830 106 780 C160 750 237 734 286 738 L294 751 Z " />
<glyph glyph-name="Iacute" unicode="&#xcd;" horiz-adv-x="428" d="M17 -3 C17 -3 143 0 214 0 C285 0 411 -3 411 -3 C410 28 410 100 411 131 L390 131 C354 131 344 156 341 190 C338 224 338 461 341 500 C344 539 357 559 393 559 L412 559 C411 590 411 659 412 690 C412 690 286 688 215 688 C144 688 17 690 17 690 C18 659 18 590 17 559 L35 559 C71 559 84 539 87 500 C90 461 90 224 87 190 C84 156 78 131 38 131 L17 131 C18 100 18 28 17 -3 L17 -3 Z M164 738 C212 736 290 750 344 780 C433 829 386 923 290 878 C241 854 184 797 157 751 L164 738 Z " />
<glyph glyph-name="Icircumflex" unicode="&#xce;" horiz-adv-x="428" d="M17 -3 C17 -3 143 0 214 0 C285 0 411 -3 411 -3 C410 28 410 100 411 131 L390 131 C354 131 344 156 341 190 C338 224 338 461 341 500 C344 539 357 559 393 559 L412 559 C411 590 411 659 412 690 C412 690 286 688 215 688 C144 688 17 690 17 690 C18 659 18 590 17 559 L35 559 C71 559 84 539 87 500 C90 461 90 224 87 190 C84 156 78 131 38 131 L17 131 C18 100 18 28 17 -3 L17 -3 Z M364 742 C336 811 297 865 259 895 L171 895 C131 861 84 807 64 743 L73 732 C112 737 171 758 211 785 C254 756 315 735 355 731 L364 742 Z " />
<glyph glyph-name="Idieresis" unicode="&#xcf;" horiz-adv-x="428" d="M17 -3 C17 -3 143 0 214 0 C285 0 411 -3 411 -3 C410 28 410 100 411 131 L390 131 C354 131 344 156 341 190 C338 224 338 461 341 500 C344 539 357 559 393 559 L412 559 C411 590 411 659 412 690 C412 690 286 688 215 688 C144 688 17 690 17 690 C18 659 18 590 17 559 L35 559 C71 559 84 539 87 500 C90 461 90 224 87 190 C84 156 78 131 38 131 L17 131 C18 100 18 28 17 -3 L17 -3 Z M190 811 C190 853 162 875 126 875 C92 875 63 853 63 811 C63 769 92 748 126 748 C162 748 190 769 190 811 L190 811 Z M365 811 C365 853 336 875 301 875 C266 875 238 853 238 811 C238 769 266 748 301 748 C336 748 365 769 365 811 L365 811 Z " />
<glyph glyph-name="Eth" unicode="&#xd0;" horiz-adv-x="804" d="M15 690 C16 659 16 590 15 559 L29 559 C65 559 84 537 87 493 C88 477 89 427 89 402 C77 402 60 402 44 403 C46 382 46 307 43 287 C60 288 79 288 89 288 C89 267 88 217 87 200 C84 148 70 131 24 131 L15 131 C16 100 16 29 15 -2 C15 -2 148 0 232 0 C311 0 405 -2 452 -2 C647 -2 781 90 778 350 C775 583 683 689 443 689 C372 689 301 688 230 688 C148 688 31 690 15 690 L15 690 Z M341 177 C340 202 339 243 339 288 C378 288 412 287 429 287 C427 312 427 378 429 403 C412 402 368 401 339 401 C339 450 340 494 341 520 C342 535 350 552 381 552 L394 552 C471 552 521 518 521 351 C521 177 473 141 393 141 L381 141 C358 141 342 153 341 177 L341 177 Z " />
<glyph glyph-name="Ntilde" unicode="&#xd1;" horiz-adv-x="827" d="M365 690 C281 688 100 688 16 690 C17 659 17 590 16 559 L36 559 C76 559 101 529 104 490 C107 451 107 253 104 209 C101 165 82 131 36 131 L15 131 C16 100 16 29 15 -2 C15 -2 121 0 181 0 C241 0 347 -2 347 -2 C346 29 346 100 347 131 L307 131 C261 131 242 165 239 209 C237 238 237 341 238 408 C318 284 437 94 494 -1 C550 1 671 1 727 -1 C724 164 724 425 727 481 C730 537 757 559 793 559 L812 559 C811 590 811 659 812 690 C812 690 708 687 650 687 C592 687 488 690 488 690 C489 659 489 590 488 559 L526 559 C562 559 589 539 592 481 C594 440 593 369 593 328 C524 431 415 605 365 690 L365 690 Z M526 862 C545 815 527 798 506 798 C496 798 485 802 473 821 C442 869 406 886 361 886 C293 886 227 836 265 741 L298 752 C277 801 300 816 318 816 C332 816 341 809 351 793 C381 745 418 728 463 728 C537 728 596 783 559 874 L526 862 Z " />
<glyph glyph-name="Ograve" unicode="&#xd2;" horiz-adv-x="797" d="M399 122 C326 122 313 173 313 343 C313 515 329 567 399 567 C474 567 484 515 484 344 C484 174 469 122 399 122 L399 122 Z M399 -15 C610 -15 772 73 772 344 C772 608 647 705 399 705 C169 705 25 600 25 343 C25 75 158 -15 399 -15 L399 -15 Z M478 751 C450 797 396 853 347 877 C253 921 197 830 290 780 C344 750 421 734 470 738 L478 751 Z " />
<glyph glyph-name="Oacute" unicode="&#xd3;" horiz-adv-x="797" d="M348 738 C396 736 474 750 528 780 C617 829 570 923 474 878 C425 854 368 797 341 751 L348 738 Z M399 122 C326 122 313 173 313 343 C313 515 329 567 399 567 C474 567 484 515 484 344 C484 174 469 122 399 122 L399 122 Z M399 -15 C610 -15 772 73 772 344 C772 608 647 705 399 705 C169 705 25 600 25 343 C25 75 158 -15 399 -15 L399 -15 Z " />
<glyph glyph-name="Ocircumflex" unicode="&#xd4;" horiz-adv-x="797" d="M548 742 C520 811 481 865 443 895 L355 895 C315 861 268 807 248 743 L257 732 C296 737 355 758 395 785 C438 756 499 735 539 731 L548 742 Z M399 122 C326 122 313 173 313 343 C313 515 329 567 399 567 C474 567 484 515 484 344 C484 174 469 122 399 122 L399 122 Z M399 -15 C610 -15 772 73 772 344 C772 608 647 705 399 705 C169 705 25 600 25 343 C25 75 158 -15 399 -15 L399 -15 Z " />
<glyph glyph-name="Otilde" unicode="&#xd5;" horiz-adv-x="797" d="M399 122 C326 122 313 173 313 343 C313 515 329 567 399 567 C474 567 484 515 484 344 C484 174 469 122 399 122 L399 122 Z M399 -15 C610 -15 772 73 772 344 C772 608 647 705 399 705 C169 705 25 600 25 343 C25 75 158 -15 399 -15 L399 -15 Z M511 862 C530 815 512 798 491 798 C481 798 470 802 458 821 C427 869 391 886 346 886 C278 886 212 836 250 741 L283 752 C262 801 285 816 303 816 C317 816 326 809 336 793 C366 745 403 728 448 728 C522 728 581 783 544 874 L511 862 Z " />
<glyph glyph-name="Odieresis" unicode="&#xd6;" horiz-adv-x="797" d="M374 811 C374 853 346 875 310 875 C276 875 247 853 247 811 C247 769 276 748 310 748 C346 748 374 769 374 811 L374 811 Z M549 811 C549 853 520 875 485 875 C450 875 422 853 422 811 C422 769 450 748 485 748 C520 748 549 769 549 811 L549 811 Z M399 122 C326 122 313 173 313 343 C313 515 329 567 399 567 C474 567 484 515 484 344 C484 174 469 122 399 122 L399 122 Z M399 -15 C610 -15 772 73 772 344 C772 608 647 705 399 705 C169 705 25 600 25 343 C25 75 158 -15 399 -15 L399 -15 Z " />
<glyph glyph-name="multiply" unicode="&#xd7;" horiz-adv-x="600" d="M498 132 C480 149 411 211 360 249 C408 284 469 338 498 367 L416 449 C388 420 333 359 299 312 C264 359 210 419 182 448 L101 367 C129 338 189 285 237 250 C189 215 129 161 101 133 L182 52 C210 80 264 141 299 188 C337 137 399 69 417 50 L498 132 Z " />
<glyph glyph-name="Oslash" unicode="&#xd8;" horiz-adv-x="797" d="M399 -15 C610 -15 772 73 772 344 C772 484 736 577 666 633 L724 722 L702 739 L622 662 C564 692 490 705 399 705 C169 705 25 600 25 343 C25 205 60 115 126 59 L74 -22 L97 -40 L170 30 C229 -1 306 -15 399 -15 L399 -15 Z M399 122 C348 122 326 147 318 218 L421 352 L483 422 C484 399 484 373 484 344 C484 174 469 122 399 122 L399 122 Z M314 276 C313 296 313 318 313 343 C313 515 329 567 399 567 C449 567 470 544 479 477 L397 371 L314 276 Z " />
<glyph glyph-name="Ugrave" unicode="&#xd9;" horiz-adv-x="803" d="M83 250 C83 62 177 -25 411 -25 C597 -25 718 46 718 257 C718 337 715 414 718 493 C720 539 738 559 776 559 L788 559 C787 590 787 659 788 690 C772 690 683 688 624 688 C565 688 469 690 469 690 C470 659 470 590 469 559 L496 559 C532 559 552 539 554 493 C557 437 557 333 554 266 C550 168 521 131 453 131 C385 131 357 168 353 266 C350 342 350 417 353 493 C355 539 379 559 415 559 L444 559 C443 590 443 659 444 690 C428 690 300 688 225 688 C150 688 15 690 15 690 C16 659 16 590 15 559 L26 559 C62 559 82 539 84 493 C87 404 83 327 83 250 L83 250 Z M491 751 C463 797 409 853 360 877 C266 921 210 830 303 780 C357 750 434 734 483 738 L491 751 Z " />
<glyph glyph-name="Uacute" unicode="&#xda;" horiz-adv-x="803" d="M401 738 C449 736 527 750 581 780 C670 829 623 923 527 878 C478 854 421 797 394 751 L401 738 Z M83 250 C83 62 177 -25 411 -25 C597 -25 718 46 718 257 C718 337 715 414 718 493 C720 539 738 559 776 559 L788 559 C787 590 787 659 788 690 C772 690 683 688 624 688 C565 688 469 690 469 690 C470 659 470 590 469 559 L496 559 C532 559 552 539 554 493 C557 437 557 333 554 266 C550 168 521 131 453 131 C385 131 357 168 353 266 C350 342 350 417 353 493 C355 539 379 559 415 559 L444 559 C443 590 443 659 444 690 C428 690 300 688 225 688 C150 688 15 690 15 690 C16 659 16 590 15 559 L26 559 C62 559 82 539 84 493 C87 404 83 327 83 250 L83 250 Z " />
<glyph glyph-name="Ucircumflex" unicode="&#xdb;" horiz-adv-x="803" d="M605 742 C577 811 538 865 500 895 L412 895 C372 861 325 807 305 743 L314 732 C353 737 412 758 452 785 C495 756 556 735 596 731 L605 742 Z M83 250 C83 62 177 -25 411 -25 C597 -25 718 46 718 257 C718 337 715 414 718 493 C720 539 738 559 776 559 L788 559 C787 590 787 659 788 690 C772 690 683 688 624 688 C565 688 469 690 469 690 C470 659 470 590 469 559 L496 559 C532 559 552 539 554 493 C557 437 557 333 554 266 C550 168 521 131 453 131 C385 131 357 168 353 266 C350 342 350 417 353 493 C355 539 379 559 415 559 L444 559 C443 590 443 659 444 690 C428 690 300 688 225 688 C150 688 15 690 15 690 C16 659 16 590 15 559 L26 559 C62 559 82 539 84 493 C87 404 83 327 83 250 L83 250 Z " />
<glyph glyph-name="Udieresis" unicode="&#xdc;" horiz-adv-x="803" d="M427 811 C427 853 399 875 363 875 C329 875 300 853 300 811 C300 769 329 748 363 748 C399 748 427 769 427 811 L427 811 Z M602 811 C602 853 573 875 538 875 C503 875 475 853 475 811 C475 769 503 748 538 748 C573 748 602 769 602 811 L602 811 Z M83 250 C83 62 177 -25 411 -25 C597 -25 718 46 718 257 C718 337 715 414 718 493 C720 539 738 559 776 559 L788 559 C787 590 787 659 788 690 C772 690 683 688 624 688 C565 688 469 690 469 690 C470 659 470 590 469 559 L496 559 C532 559 552 539 554 493 C557 437 557 333 554 266 C550 168 521 131 453 131 C385 131 357 168 353 266 C350 342 350 417 353 493 C355 539 379 559 415 559 L444 559 C443 590 443 659 444 690 C428 690 300 688 225 688 C150 688 15 690 15 690 C16 659 16 590 15 559 L26 559 C62 559 82 539 84 493 C87 404 83 327 83 250 L83 250 Z " />
<glyph glyph-name="Yacute" unicode="&#xdd;" horiz-adv-x="879" d="M702 480 C728 526 752 559 851 559 L864 559 L864 690 C864 690 761 688 703 688 C645 688 541 690 541 690 L541 559 L555 559 C597 559 597 513 572 454 C558 422 542 388 528 360 C520 375 505 405 485 454 C454 530 470 559 504 559 L518 559 L518 690 C518 690 358 688 267 688 C176 688 15 690 15 690 L15 559 L32 559 C89 559 122 541 147 497 C166 462 244 304 276 238 L276 190 C276 156 273 131 226 131 L196 131 C197 100 197 29 196 -2 C196 -2 348 0 433 0 C518 0 669 -2 669 -2 C670 29 670 100 669 131 L642 131 C596 131 583 156 583 190 L583 237 C611 297 681 443 702 480 L702 480 Z M489 738 C537 736 615 750 669 780 C758 829 711 923 615 878 C566 854 509 797 482 751 L489 738 Z " />
<glyph glyph-name="Thorn" unicode="&#xde;" horiz-adv-x="695" d="M12 -3 C12 -3 138 0 209 0 C280 0 406 -3 406 -3 C405 28 405 100 406 131 L385 131 C360 131 348 143 341 161 L370 161 C599 161 680 226 680 342 C680 464 605 533 425 533 C395 533 364 531 341 529 C348 549 362 559 388 559 L407 559 C406 590 406 659 407 690 C407 690 281 688 210 688 C139 688 12 690 12 690 C13 659 13 590 12 559 L30 559 C66 559 79 539 82 500 C85 461 85 224 82 190 C79 156 73 131 33 131 L12 131 C13 100 13 28 12 -3 L12 -3 Z M394 342 C395 285 372 272 334 270 C333 316 333 371 334 418 C380 414 394 388 394 342 L394 342 Z " />
<glyph glyph-name="germandbls" unicode="&#xdf;" horiz-adv-x="681" d="M18 479 C19 453 19 398 18 372 L55 373 C56 305 56 221 53 166 C51 138 53 108 21 108 L10 108 C12 82 12 26 10 0 C10 0 97 3 146 3 C195 3 262 0 262 0 C277 54 273 111 273 165 C273 242 274 403 274 500 C274 581 294 612 322 612 C352 612 371 593 371 500 C371 396 346 371 312 371 C314 356 314 320 312 305 C374 310 410 280 410 181 C410 100 410 69 378 69 C357 69 339 93 363 177 L319 185 C268 28 331 -17 446 -17 C571 -17 641 48 641 163 C641 269 592 332 477 345 C543 369 572 423 572 500 C572 627 482 698 322 698 C158 698 63 626 53 478 L18 479 Z " />
<glyph glyph-name="agrave" unicode="&#xe0;" horiz-adv-x="582" d="M497 278 C497 427 440 493 264 493 C140 493 38 442 38 350 C38 296 71 267 125 267 C185 267 221 297 221 348 C221 370 212 392 197 404 C260 397 272 358 272 308 L272 257 C124 255 10 214 10 97 C10 16 74 -17 142 -17 C212 -17 261 6 290 48 C310 5 351 -17 420 -17 C551 -17 581 84 566 216 L525 216 C533 158 531 108 513 108 C495 108 497 126 497 182 L497 278 Z M274 109 C274 109 269 108 263 108 C246 108 232 114 232 162 C232 205 244 214 272 216 L272 146 C272 133 273 117 274 109 L274 109 Z M371 541 C343 587 289 643 240 667 C146 711 90 620 183 570 C237 540 314 524 363 528 L371 541 Z " />
<glyph glyph-name="aacute" unicode="&#xe1;" horiz-adv-x="582" d="M497 278 C497 427 440 493 264 493 C140 493 38 442 38 350 C38 296 71 267 125 267 C185 267 221 297 221 348 C221 370 212 392 197 404 C260 397 272 358 272 308 L272 257 C124 255 10 214 10 97 C10 16 74 -17 142 -17 C212 -17 261 6 290 48 C310 5 351 -17 420 -17 C551 -17 581 84 566 216 L525 216 C533 158 531 108 513 108 C495 108 497 126 497 182 L497 278 Z M274 109 C274 109 269 108 263 108 C246 108 232 114 232 162 C232 205 244 214 272 216 L272 146 C272 133 273 117 274 109 L274 109 Z M250 528 C298 526 376 540 430 570 C519 619 472 713 376 668 C327 644 270 587 243 541 L250 528 Z " />
<glyph glyph-name="acircumflex" unicode="&#xe2;" horiz-adv-x="582" d="M497 278 C497 427 440 493 264 493 C140 493 38 442 38 350 C38 296 71 267 125 267 C185 267 221 297 221 348 C221 370 212 392 197 404 C260 397 272 358 272 308 L272 257 C124 255 10 214 10 97 C10 16 74 -17 142 -17 C212 -17 261 6 290 48 C310 5 351 -17 420 -17 C551 -17 581 84 566 216 L525 216 C533 158 531 108 513 108 C495 108 497 126 497 182 L497 278 Z M274 109 C274 109 269 108 263 108 C246 108 232 114 232 162 C232 205 244 214 272 216 L272 146 C272 133 273 117 274 109 L274 109 Z M440 532 C412 601 373 655 335 685 L247 685 C207 651 160 597 140 533 L149 522 C188 527 247 548 287 575 C330 546 391 525 431 521 L440 532 Z " />
<glyph glyph-name="atilde" unicode="&#xe3;" horiz-adv-x="582" d="M497 278 C497 427 440 493 264 493 C140 493 38 442 38 350 C38 296 71 267 125 267 C185 267 221 297 221 348 C221 370 212 392 197 404 C260 397 272 358 272 308 L272 257 C124 255 10 214 10 97 C10 16 74 -17 142 -17 C212 -17 261 6 290 48 C310 5 351 -17 420 -17 C551 -17 581 84 566 216 L525 216 C533 158 531 108 513 108 C495 108 497 126 497 182 L497 278 Z M274 109 C274 109 269 108 263 108 C246 108 232 114 232 162 C232 205 244 214 272 216 L272 146 C272 133 273 117 274 109 L274 109 Z M384 652 C403 605 385 588 364 588 C354 588 343 592 331 611 C300 659 264 676 219 676 C151 676 85 626 123 531 L156 542 C135 591 158 606 176 606 C190 606 199 599 209 583 C239 535 276 518 321 518 C395 518 454 573 417 664 L384 652 Z " />
<glyph glyph-name="adieresis" unicode="&#xe4;" horiz-adv-x="582" d="M497 278 C497 427 440 493 264 493 C140 493 38 442 38 350 C38 296 71 267 125 267 C185 267 221 297 221 348 C221 370 212 392 197 404 C260 397 272 358 272 308 L272 257 C124 255 10 214 10 97 C10 16 74 -17 142 -17 C212 -17 261 6 290 48 C310 5 351 -17 420 -17 C551 -17 581 84 566 216 L525 216 C533 158 531 108 513 108 C495 108 497 126 497 182 L497 278 Z M274 109 C274 109 269 108 263 108 C246 108 232 114 232 162 C232 205 244 214 272 216 L272 146 C272 133 273 117 274 109 L274 109 Z M266 601 C266 643 238 665 202 665 C168 665 139 643 139 601 C139 559 168 538 202 538 C238 538 266 559 266 601 L266 601 Z M441 601 C441 643 412 665 377 665 C342 665 314 643 314 601 C314 559 342 538 377 538 C412 538 441 559 441 601 L441 601 Z " />
<glyph glyph-name="aring" unicode="&#xe5;" horiz-adv-x="582" d="M497 278 C497 427 440 493 264 493 C140 493 38 442 38 350 C38 296 71 267 125 267 C185 267 221 297 221 348 C221 370 212 392 197 404 C260 397 272 358 272 308 L272 257 C124 255 10 214 10 97 C10 16 74 -17 142 -17 C212 -17 261 6 290 48 C310 5 351 -17 420 -17 C551 -17 581 84 566 216 L525 216 C533 158 531 108 513 108 C495 108 497 126 497 182 L497 278 Z M274 109 C274 109 269 108 263 108 C246 108 232 114 232 162 C232 205 244 214 272 216 L272 146 C272 133 273 117 274 109 L274 109 Z M326 630 C326 599 310 581 281 581 C252 581 235 599 235 630 C235 660 252 677 281 677 C310 677 326 660 326 630 L326 630 Z M377 630 C377 692 342 726 279 726 C218 726 184 692 184 630 C184 568 219 533 281 533 C343 533 377 568 377 630 L377 630 Z " />
<glyph glyph-name="ae" unicode="&#xe6;" horiz-adv-x="788" d="M775 186 C731 184 636 184 593 186 C592 129 580 108 551 108 C517 108 505 135 502 207 L776 207 C786 370 723 493 542 493 C491 493 447 484 411 466 C375 484 327 493 264 493 C140 493 38 442 38 350 C38 297 69 267 125 267 C187 267 221 296 221 348 C221 373 211 392 193 404 C255 407 272 372 272 321 L272 257 C104 255 10 202 10 110 C10 16 74 -17 163 -17 C220 -17 285 3 318 67 C364 8 442 -17 538 -17 C711 -17 780 66 775 186 L775 186 Z M535 372 C553 372 565 364 565 286 C565 263 562 255 541 255 L502 255 C503 359 515 372 535 372 L535 372 Z M288 122 C283 111 274 108 263 108 C246 108 232 114 232 162 C232 207 244 215 272 216 C273 180 278 149 288 122 L288 122 Z " />
<glyph glyph-name="ccedilla" unicode="&#xe7;" horiz-adv-x="514" d="M194 -105 C240 -87 269 -107 269 -138 C269 -165 257 -184 219 -184 C196 -184 174 -173 155 -152 L130 -178 C149 -203 188 -234 254 -234 C331 -234 376 -196 376 -141 C376 -85 326 -59 271 -60 C282 -48 288 -33 290 -16 C408 -11 507 43 503 186 C459 184 363 184 320 186 C320 136 312 108 278 108 C244 108 237 152 237 258 C237 362 265 395 304 395 C312 395 321 394 327 392 C303 379 289 354 289 321 C289 267 325 235 389 235 C458 235 496 276 496 337 C496 437 419 493 281 493 C102 493 10 396 10 224 C10 58 98 -10 247 -16 C238 -49 214 -68 182 -77 L194 -105 Z " />
<glyph glyph-name="egrave" unicode="&#xe8;" horiz-adv-x="515" d="M320 186 C319 129 307 108 278 108 C244 108 232 135 229 207 C244 207 412 208 502 207 C513 383 450 493 269 493 C103 493 10 397 10 224 C10 49 109 -17 265 -17 C438 -17 507 66 502 186 C458 184 363 184 320 186 L320 186 Z M262 372 C280 372 292 362 292 297 C292 258 279 255 258 255 L229 255 C230 359 242 372 262 372 L262 372 Z M338 541 C310 587 256 643 207 667 C113 711 57 620 150 570 C204 540 281 524 330 528 L338 541 Z " />
<glyph glyph-name="eacute" unicode="&#xe9;" horiz-adv-x="515" d="M237 528 C285 526 363 540 417 570 C506 619 459 713 363 668 C314 644 257 587 230 541 L237 528 Z M320 186 C319 129 307 108 278 108 C244 108 232 135 229 207 C244 207 412 208 502 207 C513 383 450 493 269 493 C103 493 10 397 10 224 C10 49 109 -17 265 -17 C438 -17 507 66 502 186 C458 184 363 184 320 186 L320 186 Z M262 372 C280 372 292 362 292 297 C292 258 279 255 258 255 L229 255 C230 359 242 372 262 372 L262 372 Z " />
<glyph glyph-name="ecircumflex" unicode="&#xea;" horiz-adv-x="515" d="M427 532 C399 601 360 655 322 685 L234 685 C194 651 147 597 127 533 L136 522 C175 527 234 548 274 575 C317 546 378 525 418 521 L427 532 Z M320 186 C319 129 307 108 278 108 C244 108 232 135 229 207 C244 207 412 208 502 207 C513 383 450 493 269 493 C103 493 10 397 10 224 C10 49 109 -17 265 -17 C438 -17 507 66 502 186 C458 184 363 184 320 186 L320 186 Z M262 372 C280 372 292 362 292 297 C292 258 279 255 258 255 L229 255 C230 359 242 372 262 372 L262 372 Z " />
<glyph glyph-name="edieresis" unicode="&#xeb;" horiz-adv-x="515" d="M250 601 C250 643 222 665 186 665 C152 665 123 643 123 601 C123 559 152 538 186 538 C222 538 250 559 250 601 L250 601 Z M425 601 C425 643 396 665 361 665 C326 665 298 643 298 601 C298 559 326 538 361 538 C396 538 425 559 425 601 L425 601 Z M320 186 C319 129 307 108 278 108 C244 108 232 135 229 207 C244 207 412 208 502 207 C513 383 450 493 269 493 C103 493 10 397 10 224 C10 49 109 -17 265 -17 C438 -17 507 66 502 186 C458 184 363 184 320 186 L320 186 Z M262 372 C280 372 292 362 292 297 C292 258 279 255 258 255 L229 255 C230 359 242 372 262 372 L262 372 Z " />
<glyph glyph-name="igrave" unicode="&#xec;" horiz-adv-x="334" d="M280 481 C219 481 77 479 8 479 C9 453 9 398 8 372 L16 372 C40 372 52 362 54 328 C56 294 55 188 53 155 C51 122 43 108 12 108 L8 108 C9 82 9 26 8 0 C18 0 151 2 170 2 C189 2 309 0 326 0 C325 26 325 82 326 108 L321 108 C291 108 281 122 279 155 C277 188 277 408 280 481 L280 481 Z M227 541 C199 587 145 643 96 667 C2 711 -54 620 39 570 C93 540 170 524 219 528 L227 541 Z " />
<glyph glyph-name="iacute" unicode="&#xed;" horiz-adv-x="334" d="M117 528 C165 526 243 540 297 570 C386 619 339 713 243 668 C194 644 137 587 110 541 L117 528 Z M280 481 C219 481 77 479 8 479 C9 453 9 398 8 372 L16 372 C40 372 52 362 54 328 C56 294 55 188 53 155 C51 122 43 108 12 108 L8 108 C9 82 9 26 8 0 C18 0 151 2 170 2 C189 2 309 0 326 0 C325 26 325 82 326 108 L321 108 C291 108 281 122 279 155 C277 188 277 408 280 481 L280 481 Z " />
<glyph glyph-name="icircumflex" unicode="&#xee;" horiz-adv-x="334" d="M307 532 C279 601 240 655 202 685 L114 685 C74 651 27 597 7 533 L16 522 C55 527 114 548 154 575 C197 546 258 525 298 521 L307 532 Z M280 481 C219 481 77 479 8 479 C9 453 9 398 8 372 L16 372 C40 372 52 362 54 328 C56 294 55 188 53 155 C51 122 43 108 12 108 L8 108 C9 82 9 26 8 0 C18 0 151 2 170 2 C189 2 309 0 326 0 C325 26 325 82 326 108 L321 108 C291 108 281 122 279 155 C277 188 277 408 280 481 L280 481 Z " />
<glyph glyph-name="idieresis" unicode="&#xef;" horiz-adv-x="334" d="M133 601 C133 643 105 665 69 665 C35 665 6 643 6 601 C6 559 35 538 69 538 C105 538 133 559 133 601 L133 601 Z M308 601 C308 643 279 665 244 665 C209 665 181 643 181 601 C181 559 209 538 244 538 C279 538 308 559 308 601 L308 601 Z M280 481 C219 481 77 479 8 479 C9 453 9 398 8 372 L16 372 C40 372 52 362 54 328 C56 294 55 188 53 155 C51 122 43 108 12 108 L8 108 C9 82 9 26 8 0 C18 0 151 2 170 2 C189 2 309 0 326 0 C325 26 325 82 326 108 L321 108 C291 108 281 122 279 155 C277 188 277 408 280 481 L280 481 Z " />
<glyph glyph-name="eth" unicode="&#xf0;" horiz-adv-x="537" d="M197 525 L242 572 C264 552 280 527 291 492 C291 492 276 493 269 493 C121 493 10 423 10 235 C10 48 96 -17 261 -17 C431 -17 527 62 527 267 C527 429 466 579 327 648 L364 679 L343 706 L298 661 C253 678 201 688 141 688 L115 622 C156 616 191 606 220 588 L176 552 L197 525 Z M231 233 C231 351 241 372 268 372 C297 372 307 351 307 233 C307 123 296 108 269 108 C242 108 231 123 231 233 L231 233 Z " />
<glyph glyph-name="ntilde" unicode="&#xf1;" horiz-adv-x="644" d="M590 314 C590 429 544 493 434 493 C352 493 297 453 280 382 L280 482 C240 479 57 479 12 479 C13 453 13 398 12 372 L16 372 C44 372 51 357 54 328 C57 299 57 192 54 155 C51 118 43 108 12 108 L8 108 C9 82 9 24 8 -2 C8 -2 107 0 162 0 C217 0 315 -2 315 -2 C313 24 313 82 315 108 L310 108 C289 108 280 117 280 155 L280 307 C280 356 296 372 325 372 C356 372 362 353 364 317 C366 281 366 188 364 155 C362 122 353 108 335 108 L330 108 C331 82 331 24 330 -2 C330 -2 428 0 483 0 C538 0 636 -2 636 -2 C635 24 635 82 636 108 L631 108 C601 108 590 119 590 155 L590 314 Z M435 652 C454 605 436 588 415 588 C405 588 394 592 382 611 C351 659 315 676 270 676 C202 676 136 626 174 531 L207 542 C186 591 209 606 227 606 C241 606 250 599 260 583 C290 535 327 518 372 518 C446 518 505 573 468 664 L435 652 Z " />
<glyph glyph-name="ograve" unicode="&#xf2;" horiz-adv-x="554" d="M18 235 C18 52 111 -17 277 -17 C444 -17 536 51 536 233 C536 412 448 493 277 493 C115 493 18 411 18 235 L18 235 Z M239 233 C239 351 249 372 276 372 C305 372 315 351 315 233 C315 123 304 108 277 108 C250 108 239 123 239 233 L239 233 Z M347 541 C319 587 265 643 216 667 C122 711 66 620 159 570 C213 540 290 524 339 528 L347 541 Z " />
<glyph glyph-name="oacute" unicode="&#xf3;" horiz-adv-x="554" d="M227 528 C275 526 353 540 407 570 C496 619 449 713 353 668 C304 644 247 587 220 541 L227 528 Z M18 235 C18 52 111 -17 277 -17 C444 -17 536 51 536 233 C536 412 448 493 277 493 C115 493 18 411 18 235 L18 235 Z M239 233 C239 351 249 372 276 372 C305 372 315 351 315 233 C315 123 304 108 277 108 C250 108 239 123 239 233 L239 233 Z " />
<glyph glyph-name="ocircumflex" unicode="&#xf4;" horiz-adv-x="554" d="M437 532 C409 601 370 655 332 685 L244 685 C204 651 157 597 137 533 L146 522 C185 527 244 548 284 575 C327 546 388 525 428 521 L437 532 Z M18 235 C18 52 111 -17 277 -17 C444 -17 536 51 536 233 C536 412 448 493 277 493 C115 493 18 411 18 235 L18 235 Z M239 233 C239 351 249 372 276 372 C305 372 315 351 315 233 C315 123 304 108 277 108 C250 108 239 123 239 233 L239 233 Z " />
<glyph glyph-name="otilde" unicode="&#xf5;" horiz-adv-x="554" d="M18 235 C18 52 111 -17 277 -17 C444 -17 536 51 536 233 C536 412 448 493 277 493 C115 493 18 411 18 235 L18 235 Z M239 233 C239 351 249 372 276 372 C305 372 315 351 315 233 C315 123 304 108 277 108 C250 108 239 123 239 233 L239 233 Z M380 652 C399 605 381 588 360 588 C350 588 339 592 327 611 C296 659 260 676 215 676 C147 676 81 626 119 531 L152 542 C131 591 154 606 172 606 C186 606 195 599 205 583 C235 535 272 518 317 518 C391 518 450 573 413 664 L380 652 Z " />
<glyph glyph-name="odieresis" unicode="&#xf6;" horiz-adv-x="554" d="M263 601 C263 643 235 665 199 665 C165 665 136 643 136 601 C136 559 165 538 199 538 C235 538 263 559 263 601 L263 601 Z M438 601 C438 643 409 665 374 665 C339 665 311 643 311 601 C311 559 339 538 374 538 C409 538 438 559 438 601 L438 601 Z M18 235 C18 52 111 -17 277 -17 C444 -17 536 51 536 233 C536 412 448 493 277 493 C115 493 18 411 18 235 L18 235 Z M239 233 C239 351 249 372 276 372 C305 372 315 351 315 233 C315 123 304 108 277 108 C250 108 239 123 239 233 L239 233 Z " />
<glyph glyph-name="divide" unicode="&#xf7;" horiz-adv-x="600" d="M374 101 C374 139 349 172 300 172 C257 172 226 141 226 102 C226 55 256 34 300 34 C348 34 374 60 374 101 L374 101 Z M77 193 C129 193 249 201 300 216 C350 201 471 193 523 193 L523 308 C471 308 351 300 300 285 C250 300 129 308 77 308 L77 193 Z M374 397 C374 435 349 468 300 468 C257 468 226 437 226 398 C226 351 256 330 300 330 C348 330 374 356 374 397 L374 397 Z " />
<glyph glyph-name="oslash" unicode="&#xf8;" horiz-adv-x="554" d="M18 235 C18 138 44 73 93 34 L55 -29 L72 -43 L128 12 C168 -7 217 -17 277 -17 C444 -17 536 51 536 233 C536 326 512 393 465 435 L503 502 L487 515 L433 458 C393 481 341 493 277 493 C115 493 18 411 18 235 L18 235 Z M239 233 C239 351 249 372 276 372 C298 372 310 359 313 297 L274 243 L239 203 L239 233 Z M277 108 C257 108 246 116 241 163 L289 227 L315 257 L315 233 C315 123 304 108 277 108 L277 108 Z " />
<glyph glyph-name="ugrave" unicode="&#xf9;" horiz-adv-x="613" d="M577 482 C577 482 485 479 435 479 C385 479 295 482 295 482 C296 456 296 398 295 372 L298 372 C341 372 348 354 348 317 L348 260 C348 155 346 105 303 105 C272 105 266 133 264 189 C263 215 263 263 263 305 C263 338 264 423 267 482 C267 482 182 479 135 479 C88 479 5 482 5 482 C6 456 6 398 5 372 L11 372 C32 372 38 348 38 301 L38 162 C38 47 89 -17 199 -17 C284 -17 332 29 348 98 L348 -2 C387 0 561 0 606 0 C605 26 605 82 606 108 L602 108 C579 108 574 132 574 177 L574 311 C574 356 574 418 577 482 L577 482 Z M325 541 C297 587 243 643 194 667 C100 711 44 620 137 570 C191 540 268 524 317 528 L325 541 Z " />
<glyph glyph-name="uacute" unicode="&#xfa;" horiz-adv-x="613" d="M275 528 C323 526 401 540 455 570 C544 619 497 713 401 668 C352 644 295 587 268 541 L275 528 Z M577 482 C577 482 485 479 435 479 C385 479 295 482 295 482 C296 456 296 398 295 372 L298 372 C341 372 348 354 348 317 L348 260 C348 155 346 105 303 105 C272 105 266 133 264 189 C263 215 263 263 263 305 C263 338 264 423 267 482 C267 482 182 479 135 479 C88 479 5 482 5 482 C6 456 6 398 5 372 L11 372 C32 372 38 348 38 301 L38 162 C38 47 89 -17 199 -17 C284 -17 332 29 348 98 L348 -2 C387 0 561 0 606 0 C605 26 605 82 606 108 L602 108 C579 108 574 132 574 177 L574 311 C574 356 574 418 577 482 L577 482 Z " />
<glyph glyph-name="ucircumflex" unicode="&#xfb;" horiz-adv-x="613" d="M435 532 C407 601 368 655 330 685 L242 685 C202 651 155 597 135 533 L144 522 C183 527 242 548 282 575 C325 546 386 525 426 521 L435 532 Z M577 482 C577 482 485 479 435 479 C385 479 295 482 295 482 C296 456 296 398 295 372 L298 372 C341 372 348 354 348 317 L348 260 C348 155 346 105 303 105 C272 105 266 133 264 189 C263 215 263 263 263 305 C263 338 264 423 267 482 C267 482 182 479 135 479 C88 479 5 482 5 482 C6 456 6 398 5 372 L11 372 C32 372 38 348 38 301 L38 162 C38 47 89 -17 199 -17 C284 -17 332 29 348 98 L348 -2 C387 0 561 0 606 0 C605 26 605 82 606 108 L602 108 C579 108 574 132 574 177 L574 311 C574 356 574 418 577 482 L577 482 Z " />
<glyph glyph-name="udieresis" unicode="&#xfc;" horiz-adv-x="613" d="M261 601 C261 643 233 665 197 665 C163 665 134 643 134 601 C134 559 163 538 197 538 C233 538 261 559 261 601 L261 601 Z M436 601 C436 643 407 665 372 665 C337 665 309 643 309 601 C309 559 337 538 372 538 C407 538 436 559 436 601 L436 601 Z M577 482 C577 482 485 479 435 479 C385 479 295 482 295 482 C296 456 296 398 295 372 L298 372 C341 372 348 354 348 317 L348 260 C348 155 346 105 303 105 C272 105 266 133 264 189 C263 215 263 263 263 305 C263 338 264 423 267 482 C267 482 182 479 135 479 C88 479 5 482 5 482 C6 456 6 398 5 372 L11 372 C32 372 38 348 38 301 L38 162 C38 47 89 -17 199 -17 C284 -17 332 29 348 98 L348 -2 C387 0 561 0 606 0 C605 26 605 82 606 108 L602 108 C579 108 574 132 574 177 L574 311 C574 356 574 418 577 482 L577 482 Z " />
<glyph glyph-name="yacute" unicode="&#xfd;" horiz-adv-x="597" d="M398 320 C393 301 371 223 350 155 C332 221 313 297 309 320 C303 352 314 372 338 372 L346 372 C347 398 347 456 346 482 C346 482 238 479 177 479 C116 479 8 482 8 482 C9 456 9 398 8 372 L21 372 C57 372 60 352 71 319 C82 286 133 111 152 28 C189 29 263 30 311 29 C278 -82 263 -152 162 -152 C134 -152 111 -142 96 -123 C112 -135 137 -142 157 -142 C205 -142 239 -112 239 -67 C239 -17 209 12 152 12 C84 12 50 -32 50 -84 C50 -153 98 -191 183 -191 C276 -191 358 -164 426 58 C474 216 498 286 510 319 C522 353 538 372 575 372 L589 372 C588 398 587 456 589 482 C589 482 517 479 476 479 C435 479 363 482 363 482 C364 456 364 398 363 372 L373 372 C398 372 406 354 398 320 L398 320 Z M338 528 C386 526 464 540 518 570 C607 619 560 713 464 668 C415 644 358 587 331 541 L338 528 Z " />
<glyph glyph-name="thorn" unicode="&#xfe;" horiz-adv-x="600" d="M424 -17 C536 -17 590 55 590 231 C590 436 534 493 434 493 C349 493 296 451 280 358 L280 693 C241 690 57 690 12 690 C13 664 13 609 12 583 L16 583 C40 583 51 568 54 539 C60 479 60 54 54 -17 C51 -53 43 -65 12 -65 L8 -65 C9 -91 9 -147 8 -173 C18 -173 110 -170 167 -170 C224 -170 308 -173 325 -173 C324 -147 324 -91 325 -65 L318 -65 C297 -65 280 -52 280 -17 L280 96 C294 17 347 -17 424 -17 L424 -17 Z M280 238 L280 263 C281 354 294 372 325 372 C355 372 365 355 365 238 C365 124 351 105 323 105 C293 105 280 133 280 238 L280 238 Z " />
<glyph glyph-name="ydieresis" unicode="&#xff;" horiz-adv-x="597" d="M398 320 C393 301 371 223 350 155 C332 221 313 297 309 320 C303 352 314 372 338 372 L346 372 C347 398 347 456 346 482 C346 482 238 479 177 479 C116 479 8 482 8 482 C9 456 9 398 8 372 L21 372 C57 372 60 352 71 319 C82 286 133 111 152 28 C189 29 263 30 311 29 C278 -82 263 -152 162 -152 C134 -152 111 -142 96 -123 C112 -135 137 -142 157 -142 C205 -142 239 -112 239 -67 C239 -17 209 12 152 12 C84 12 50 -32 50 -84 C50 -153 98 -191 183 -191 C276 -191 358 -164 426 58 C474 216 498 286 510 319 C522 353 538 372 575 372 L589 372 C588 398 587 456 589 482 C589 482 517 479 476 479 C435 479 363 482 363 482 C364 456 364 398 363 372 L373 372 C398 372 406 354 398 320 L398 320 Z M336 601 C336 643 308 665 272 665 C238 665 209 643 209 601 C209 559 238 538 272 538 C308 538 336 559 336 601 L336 601 Z M511 601 C511 643 482 665 447 665 C412 665 384 643 384 601 C384 559 412 538 447 538 C482 538 511 559 511 601 L511 601 Z " />
<glyph glyph-name="Amacron" unicode="&#x100;" horiz-adv-x="886" d="M428 131 L393 131 C394 100 394 29 393 -2 C393 -2 546 0 632 0 C718 0 871 -2 871 -2 C870 29 870 100 871 131 L857 131 C821 131 794 145 761 224 C714 337 621 581 580 695 C580 695 498 693 451 693 C404 693 321 695 321 695 C262 538 202 381 141 224 C115 157 89 131 29 131 L15 131 C16 100 16 29 15 -2 C15 -2 121 0 181 0 C241 0 347 -2 347 -2 C346 29 346 100 347 131 L315 131 C277 131 260 149 275 206 C335 207 408 207 468 206 C479 156 474 131 428 131 L428 131 Z M447 276 C401 275 346 275 299 275 C318 331 348 414 373 484 C399 413 428 331 447 276 L447 276 Z M301 753 C362 755 536 755 597 753 C596 774 596 838 597 859 C536 857 362 857 301 859 C302 838 302 773 301 753 L301 753 Z " />
<glyph glyph-name="amacron" unicode="&#x101;" horiz-adv-x="582" d="M497 278 C497 427 440 493 264 493 C140 493 38 442 38 350 C38 296 71 267 125 267 C185 267 221 297 221 348 C221 370 212 392 197 404 C260 397 272 358 272 308 L272 257 C124 255 10 214 10 97 C10 16 74 -17 142 -17 C212 -17 261 6 290 48 C310 5 351 -17 420 -17 C551 -17 581 84 566 216 L525 216 C533 158 531 108 513 108 C495 108 497 126 497 182 L497 278 Z M274 109 C274 109 269 108 263 108 C246 108 232 114 232 162 C232 205 244 214 272 216 L272 146 C272 133 273 117 274 109 L274 109 Z M122 543 C183 545 357 545 418 543 C417 564 417 628 418 649 C357 647 183 647 122 649 C123 628 123 563 122 543 L122 543 Z " />
<glyph glyph-name="Abreve" unicode="&#x102;" horiz-adv-x="886" d="M428 131 L393 131 C394 100 394 29 393 -2 C393 -2 546 0 632 0 C718 0 871 -2 871 -2 C870 29 870 100 871 131 L857 131 C821 131 794 145 761 224 C714 337 621 581 580 695 C580 695 498 693 451 693 C404 693 321 695 321 695 C262 538 202 381 141 224 C115 157 89 131 29 131 L15 131 C16 100 16 29 15 -2 C15 -2 121 0 181 0 C241 0 347 -2 347 -2 C346 29 346 100 347 131 L315 131 C277 131 260 149 275 206 C335 207 408 207 468 206 C479 156 474 131 428 131 L428 131 Z M447 276 C401 275 346 275 299 275 C318 331 348 414 373 484 C399 413 428 331 447 276 L447 276 Z M443 739 C550 739 591 804 580 884 L545 885 C541 857 506 841 443 841 C380 841 345 857 341 885 L306 884 C295 804 336 739 443 739 L443 739 Z " />
<glyph glyph-name="abreve" unicode="&#x103;" horiz-adv-x="582" d="M497 278 C497 427 440 493 264 493 C140 493 38 442 38 350 C38 296 71 267 125 267 C185 267 221 297 221 348 C221 370 212 392 197 404 C260 397 272 358 272 308 L272 257 C124 255 10 214 10 97 C10 16 74 -17 142 -17 C212 -17 261 6 290 48 C310 5 351 -17 420 -17 C551 -17 581 84 566 216 L525 216 C533 158 531 108 513 108 C495 108 497 126 497 182 L497 278 Z M274 109 C274 109 269 108 263 108 C246 108 232 114 232 162 C232 205 244 214 272 216 L272 146 C272 133 273 117 274 109 L274 109 Z M270 534 C377 534 418 599 407 679 L372 680 C368 652 333 636 270 636 C207 636 172 652 168 680 L133 679 C122 599 163 534 270 534 L270 534 Z " />
<glyph glyph-name="Aogonek" unicode="&#x104;" horiz-adv-x="886" d="M771 -54 L731 -48 C725 -92 700 -101 671 -101 C643 -101 623 -90 623 -58 C623 -29 638 -8 674 0 C760 0 871 -2 871 -2 C870 29 870 100 871 131 L857 131 C821 131 794 145 761 224 C714 337 621 581 580 695 C580 695 498 693 451 693 C404 693 321 695 321 695 C262 538 202 381 141 224 C115 157 89 131 29 131 L15 131 C16 100 16 29 15 -2 C15 -2 121 0 181 0 C241 0 347 -2 347 -2 C346 29 346 100 347 131 L315 131 C277 131 260 149 275 206 C335 207 408 207 468 206 C479 156 474 131 428 131 L393 131 C394 100 394 29 393 -2 C393 -2 518 0 606 0 C559 -18 527 -57 527 -109 C527 -176 575 -206 647 -206 C756 -206 778 -128 771 -54 L771 -54 Z M447 276 C401 275 346 275 299 275 C318 331 348 414 373 484 C399 413 428 331 447 276 L447 276 Z " />
<glyph glyph-name="aogonek" unicode="&#x105;" horiz-adv-x="582" d="M420 -17 C432 -17 442 -16 442 -16 C398 -41 383 -73 382 -109 C381 -176 437 -206 496 -206 C620 -206 629 -128 625 -54 L585 -48 C575 -92 557 -101 523 -101 C495 -101 478 -87 478 -63 C478 -40 489 -15 523 17 C568 60 576 128 566 216 L525 216 C533 158 531 108 513 108 C495 108 497 126 497 182 L497 278 C497 427 440 493 264 493 C140 493 38 442 38 350 C38 296 71 267 125 267 C185 267 221 297 221 348 C221 370 212 392 197 404 C260 397 272 358 272 308 L272 257 C124 255 10 214 10 97 C10 16 74 -17 142 -17 C212 -17 261 6 290 48 C310 5 351 -17 420 -17 L420 -17 Z M274 109 C274 109 269 108 263 108 C246 108 232 114 232 162 C232 205 244 214 272 216 L272 146 C272 133 273 117 274 109 L274 109 Z " />
<glyph glyph-name="Cacute" unicode="&#x106;" horiz-adv-x="724" d="M346 738 C394 736 472 750 526 780 C615 829 568 923 472 878 C423 854 366 797 339 751 L346 738 Z M550 662 C503 692 449 710 360 710 C159 710 25 590 25 346 C25 72 156 -15 377 -15 C627 -15 713 59 708 270 C665 268 546 268 503 270 C508 169 466 131 414 131 C358 131 313 157 313 346 C313 529 348 559 415 559 C475 559 502 513 502 423 C543 425 647 425 688 423 C691 487 702 646 708 690 C682 688 626 688 600 690 C595 642 583 641 550 662 L550 662 Z " />
<glyph glyph-name="cacute" unicode="&#x107;" horiz-adv-x="514" d="M246 528 C294 526 372 540 426 570 C515 619 468 713 372 668 C323 644 266 587 239 541 L246 528 Z M320 186 C320 136 312 108 278 108 C244 108 237 152 237 258 C237 362 265 395 304 395 C312 395 321 394 327 392 C303 379 289 354 289 321 C289 267 325 235 389 235 C458 235 496 276 496 337 C496 437 419 493 281 493 C102 493 10 396 10 224 C10 50 107 -17 269 -17 C396 -17 508 35 503 186 C459 184 363 184 320 186 L320 186 Z " />
<glyph glyph-name="Ccircumflex" unicode="&#x108;" horiz-adv-x="724" d="M516 742 C488 811 449 865 411 895 L323 895 C283 861 236 807 216 743 L225 732 C264 737 323 758 363 785 C406 756 467 735 507 731 L516 742 Z M550 662 C503 692 449 710 360 710 C159 710 25 590 25 346 C25 72 156 -15 377 -15 C627 -15 713 59 708 270 C665 268 546 268 503 270 C508 169 466 131 414 131 C358 131 313 157 313 346 C313 529 348 559 415 559 C475 559 502 513 502 423 C543 425 647 425 688 423 C691 487 702 646 708 690 C682 688 626 688 600 690 C595 642 583 641 550 662 L550 662 Z " />
<glyph glyph-name="ccircumflex" unicode="&#x109;" horiz-adv-x="514" d="M416 532 C388 601 349 655 311 685 L223 685 C183 651 136 597 116 533 L125 522 C164 527 223 548 263 575 C306 546 367 525 407 521 L416 532 Z M320 186 C320 136 312 108 278 108 C244 108 237 152 237 258 C237 362 265 395 304 395 C312 395 321 394 327 392 C303 379 289 354 289 321 C289 267 325 235 389 235 C458 235 496 276 496 337 C496 437 419 493 281 493 C102 493 10 396 10 224 C10 50 107 -17 269 -17 C396 -17 508 35 503 186 C459 184 363 184 320 186 L320 186 Z " />
<glyph glyph-name="Cdotaccent" unicode="&#x10a;" horiz-adv-x="724" d="M550 662 C503 692 449 710 360 710 C159 710 25 590 25 346 C25 72 156 -15 377 -15 C627 -15 713 59 708 270 C665 268 546 268 503 270 C508 169 466 131 414 131 C358 131 313 157 313 346 C313 529 348 559 415 559 C475 559 502 513 502 423 C543 425 647 425 688 423 C691 487 702 646 708 690 C682 688 626 688 600 690 C595 642 583 641 550 662 L550 662 Z M442 821 C442 869 414 896 366 896 C319 896 291 869 291 821 C291 772 319 744 366 744 C414 744 442 773 442 821 L442 821 Z " />
<glyph glyph-name="cdotaccent" unicode="&#x10b;" horiz-adv-x="514" d="M320 186 C320 136 312 108 278 108 C244 108 237 152 237 258 C237 362 265 395 304 395 C312 395 321 394 327 392 C303 379 289 354 289 321 C289 267 325 235 389 235 C458 235 496 276 496 337 C496 437 419 493 281 493 C102 493 10 396 10 224 C10 50 107 -17 269 -17 C396 -17 508 35 503 186 C459 184 363 184 320 186 L320 186 Z M343 611 C343 659 315 686 267 686 C220 686 192 659 192 611 C192 562 220 534 267 534 C315 534 343 563 343 611 L343 611 Z " />
<glyph glyph-name="Ccaron" unicode="&#x10c;" horiz-adv-x="724" d="M216 897 C244 828 283 774 321 744 L409 744 C449 778 496 832 516 896 L507 907 C468 902 409 881 369 854 C326 883 265 904 225 908 L216 897 Z M550 662 C503 692 449 710 360 710 C159 710 25 590 25 346 C25 72 156 -15 377 -15 C627 -15 713 59 708 270 C665 268 546 268 503 270 C508 169 466 131 414 131 C358 131 313 157 313 346 C313 529 348 559 415 559 C475 559 502 513 502 423 C543 425 647 425 688 423 C691 487 702 646 708 690 C682 688 626 688 600 690 C595 642 583 641 550 662 L550 662 Z " />
<glyph glyph-name="ccaron" unicode="&#x10d;" horiz-adv-x="514" d="M126 687 C154 618 193 564 231 534 L319 534 C359 568 406 622 426 686 L417 697 C378 692 319 671 279 644 C236 673 175 694 135 698 L126 687 Z M320 186 C320 136 312 108 278 108 C244 108 237 152 237 258 C237 362 265 395 304 395 C312 395 321 394 327 392 C303 379 289 354 289 321 C289 267 325 235 389 235 C458 235 496 276 496 337 C496 437 419 493 281 493 C102 493 10 396 10 224 C10 50 107 -17 269 -17 C396 -17 508 35 503 186 C459 184 363 184 320 186 L320 186 Z " />
<glyph glyph-name="Dcaron" unicode="&#x10e;" horiz-adv-x="804" d="M236 897 C264 828 303 774 341 744 L429 744 C469 778 516 832 536 896 L527 907 C488 902 429 881 389 854 C346 883 285 904 245 908 L236 897 Z M15 690 C16 659 16 590 15 559 L29 559 C65 559 84 537 87 493 C90 449 90 252 87 200 C84 148 70 131 24 131 L15 131 C16 100 16 29 15 -2 C15 -2 148 0 232 0 C311 0 405 -2 452 -2 C647 -2 781 90 778 350 C775 583 683 689 443 689 C372 689 301 688 230 688 C148 688 31 690 15 690 L15 690 Z M341 177 C339 251 338 450 341 520 C342 535 350 552 381 552 L394 552 C471 552 521 518 521 351 C521 177 473 141 393 141 L381 141 C353 141 342 158 341 177 L341 177 Z " />
<glyph glyph-name="dcaron" unicode="&#x10f;" horiz-adv-x="764" d="M576 485 L581 465 C661 475 735 521 735 608 C735 660 709 692 666 692 C622 692 595 666 595 623 C595 582 616 560 650 560 C671 560 687 568 697 581 C688 534 653 498 576 485 L576 485 Z M182 492 C80 492 10 434 10 245 C10 38 76 -17 174 -17 C251 -17 305 21 320 114 L320 -1 C381 -1 522 0 591 0 C590 26 590 82 591 108 L586 108 C556 108 546 121 545 155 C543 265 543 561 544 692 C482 692 337 690 267 690 C268 664 268 609 267 583 L278 583 C306 583 319 569 319 529 L319 382 C304 449 258 492 182 492 L182 492 Z M320 245 C320 135 311 105 278 105 C243 105 236 133 236 245 C236 355 251 372 279 372 C304 372 320 365 320 245 L320 245 Z " />
<glyph glyph-name="Dcroat" unicode="&#x110;" horiz-adv-x="804" d="M15 690 C16 659 16 590 15 559 L29 559 C65 559 84 537 87 493 C88 477 89 427 89 402 C77 402 60 402 44 403 C46 382 46 307 43 287 C60 288 79 288 89 288 C89 267 88 217 87 200 C84 148 70 131 24 131 L15 131 C16 100 16 29 15 -2 C15 -2 148 0 232 0 C311 0 405 -2 452 -2 C647 -2 781 90 778 350 C775 583 683 689 443 689 C372 689 301 688 230 688 C148 688 31 690 15 690 L15 690 Z M341 177 C340 202 339 243 339 288 C378 288 412 287 429 287 C427 312 427 378 429 403 C412 402 368 401 339 401 C339 450 340 494 341 520 C342 535 350 552 381 552 L394 552 C471 552 521 518 521 351 C521 177 473 141 393 141 L381 141 C358 141 342 153 341 177 L341 177 Z " />
<glyph glyph-name="dcroat" unicode="&#x111;" horiz-adv-x="599" d="M182 492 C80 492 10 434 10 245 C10 38 76 -17 174 -17 C251 -17 305 21 320 114 L320 -1 C381 -1 522 0 591 0 C590 26 590 82 591 108 L586 108 C556 108 546 121 545 155 C543 226 543 365 543 497 L580 496 L580 548 L543 547 C543 600 543 656 544 692 C482 692 337 690 267 690 C268 664 268 609 267 583 L278 583 C301 583 314 573 318 547 L277 548 L277 496 L319 497 L319 382 C304 449 258 492 182 492 L182 492 Z M320 245 C320 135 311 105 278 105 C243 105 236 133 236 245 C236 355 251 372 279 372 C304 372 320 365 320 245 L320 245 Z " />
<glyph glyph-name="Emacron" unicode="&#x112;" horiz-adv-x="734" d="M410 456 C410 397 399 382 354 382 L342 382 C342 424 343 464 344 493 C346 541 369 558 413 558 L468 558 C521 558 572 549 572 423 C605 425 676 425 709 423 C708 495 711 622 715 695 C668 689 504 688 461 688 L228 688 C151 688 31 690 15 690 C16 659 16 590 15 559 L27 559 C66 559 87 537 90 482 C93 427 92 248 89 200 C86 152 72 131 26 131 L15 131 C16 100 16 29 15 -2 C31 -2 151 0 228 0 L461 0 C522 0 642 -2 709 -6 C709 80 712 208 719 282 C684 280 610 280 575 282 C575 152 543 131 470 131 L412 131 C367 131 347 145 344 200 C343 221 342 262 342 306 L354 306 C402 306 412 290 412 229 L412 193 C460 194 508 193 508 193 C503 244 500 270 500 344 C500 417 503 437 508 495 C508 495 459 494 410 495 L410 456 Z M239 753 C300 755 474 755 535 753 C534 774 534 838 535 859 C474 857 300 857 239 859 C240 838 240 773 239 753 L239 753 Z " />
<glyph glyph-name="emacron" unicode="&#x113;" horiz-adv-x="515" d="M320 186 C319 129 307 108 278 108 C244 108 232 135 229 207 C244 207 412 208 502 207 C513 383 450 493 269 493 C103 493 10 397 10 224 C10 49 109 -17 265 -17 C438 -17 507 66 502 186 C458 184 363 184 320 186 L320 186 Z M262 372 C280 372 292 362 292 297 C292 258 279 255 258 255 L229 255 C230 359 242 372 262 372 L262 372 Z M119 543 C180 545 354 545 415 543 C414 564 414 628 415 649 C354 647 180 647 119 649 C120 628 120 563 119 543 L119 543 Z " />
<glyph glyph-name="Ebreve" unicode="&#x114;" horiz-adv-x="734" d="M410 456 C410 397 399 382 354 382 L342 382 C342 424 343 464 344 493 C346 541 369 558 413 558 L468 558 C521 558 572 549 572 423 C605 425 676 425 709 423 C708 495 711 622 715 695 C668 689 504 688 461 688 L228 688 C151 688 31 690 15 690 C16 659 16 590 15 559 L27 559 C66 559 87 537 90 482 C93 427 92 248 89 200 C86 152 72 131 26 131 L15 131 C16 100 16 29 15 -2 C31 -2 151 0 228 0 L461 0 C522 0 642 -2 709 -6 C709 80 712 208 719 282 C684 280 610 280 575 282 C575 152 543 131 470 131 L412 131 C367 131 347 145 344 200 C343 221 342 262 342 306 L354 306 C402 306 412 290 412 229 L412 193 C460 194 508 193 508 193 C503 244 500 270 500 344 C500 417 503 437 508 495 C508 495 459 494 410 495 L410 456 Z M377 739 C484 739 525 804 514 884 L479 885 C475 857 440 841 377 841 C314 841 279 857 275 885 L240 884 C229 804 270 739 377 739 L377 739 Z " />
<glyph glyph-name="ebreve" unicode="&#x115;" horiz-adv-x="515" d="M320 186 C319 129 307 108 278 108 C244 108 232 135 229 207 C244 207 412 208 502 207 C513 383 450 493 269 493 C103 493 10 397 10 224 C10 49 109 -17 265 -17 C438 -17 507 66 502 186 C458 184 363 184 320 186 L320 186 Z M262 372 C280 372 292 362 292 297 C292 258 279 255 258 255 L229 255 C230 359 242 372 262 372 L262 372 Z M267 534 C374 534 415 599 404 679 L369 680 C365 652 330 636 267 636 C204 636 169 652 165 680 L130 679 C119 599 160 534 267 534 L267 534 Z " />
<glyph glyph-name="Edotaccent" unicode="&#x116;" horiz-adv-x="734" d="M410 456 C410 397 399 382 354 382 L342 382 C342 424 343 464 344 493 C346 541 369 558 413 558 L468 558 C521 558 572 549 572 423 C605 425 676 425 709 423 C708 495 711 622 715 695 C668 689 504 688 461 688 L228 688 C151 688 31 690 15 690 C16 659 16 590 15 559 L27 559 C66 559 87 537 90 482 C93 427 92 248 89 200 C86 152 72 131 26 131 L15 131 C16 100 16 29 15 -2 C31 -2 151 0 228 0 L461 0 C522 0 642 -2 709 -6 C709 80 712 208 719 282 C684 280 610 280 575 282 C575 152 543 131 470 131 L412 131 C367 131 347 145 344 200 C343 221 342 262 342 306 L354 306 C402 306 412 290 412 229 L412 193 C460 194 508 193 508 193 C503 244 500 270 500 344 C500 417 503 437 508 495 C508 495 459 494 410 495 L410 456 Z M443 821 C443 869 415 896 367 896 C320 896 292 869 292 821 C292 772 320 744 367 744 C415 744 443 773 443 821 L443 821 Z " />
<glyph glyph-name="edotaccent" unicode="&#x117;" horiz-adv-x="515" d="M320 186 C319 129 307 108 278 108 C244 108 232 135 229 207 C244 207 412 208 502 207 C513 383 450 493 269 493 C103 493 10 397 10 224 C10 49 109 -17 265 -17 C438 -17 507 66 502 186 C458 184 363 184 320 186 L320 186 Z M262 372 C280 372 292 362 292 297 C292 258 279 255 258 255 L229 255 C230 359 242 372 262 372 L262 372 Z M344 611 C344 659 316 686 268 686 C221 686 193 659 193 611 C193 562 221 534 268 534 C316 534 344 563 344 611 L344 611 Z " />
<glyph glyph-name="Eogonek" unicode="&#x118;" horiz-adv-x="734" d="M410 456 C410 397 399 382 354 382 L342 382 C342 424 343 464 344 493 C346 541 369 558 413 558 L468 558 C521 558 572 549 572 423 C605 425 676 425 709 423 C708 495 711 622 715 695 C668 689 504 688 461 688 L228 688 C151 688 31 690 15 690 C16 659 16 590 15 559 L27 559 C66 559 87 537 90 482 C93 427 92 248 89 200 C86 152 72 131 26 131 L15 131 C16 100 16 29 15 -2 C31 -2 151 0 228 0 L553 0 C507 -19 476 -58 476 -109 C476 -176 524 -206 596 -206 C705 -206 727 -128 720 -54 L680 -48 C674 -92 649 -101 620 -101 C592 -101 572 -90 572 -58 C572 -31 585 -11 616 -2 C650 -3 683 -4 709 -6 C709 80 712 208 719 282 C684 280 610 280 575 282 C575 152 543 131 470 131 L412 131 C367 131 347 145 344 200 C343 221 342 262 342 306 L354 306 C402 306 412 290 412 229 L412 193 C460 194 508 193 508 193 C503 244 500 270 500 344 C500 417 503 437 508 495 C508 495 459 494 410 495 L410 456 Z " />
<glyph glyph-name="eogonek" unicode="&#x119;" horiz-adv-x="515" d="M515 -54 L475 -48 C465 -92 447 -101 413 -101 C385 -101 368 -86 368 -63 C368 -33 380 -13 427 22 C479 60 505 109 502 186 C458 184 363 184 320 186 C319 129 307 108 278 108 C244 108 232 135 229 207 C244 207 412 208 502 207 C513 383 450 493 269 493 C103 493 10 397 10 224 C10 49 109 -17 265 -17 C300 -17 322 -15 344 -10 C295 -34 273 -67 272 -109 C271 -176 327 -206 386 -206 C510 -206 519 -128 515 -54 L515 -54 Z M262 372 C280 372 292 362 292 297 C292 258 279 255 258 255 L229 255 C230 359 242 372 262 372 L262 372 Z " />
<glyph glyph-name="Ecaron" unicode="&#x11a;" horiz-adv-x="734" d="M217 897 C245 828 284 774 322 744 L410 744 C450 778 497 832 517 896 L508 907 C469 902 410 881 370 854 C327 883 266 904 226 908 L217 897 Z M410 456 C410 397 399 382 354 382 L342 382 C342 424 343 464 344 493 C346 541 369 558 413 558 L468 558 C521 558 572 549 572 423 C605 425 676 425 709 423 C708 495 711 622 715 695 C668 689 504 688 461 688 L228 688 C151 688 31 690 15 690 C16 659 16 590 15 559 L27 559 C66 559 87 537 90 482 C93 427 92 248 89 200 C86 152 72 131 26 131 L15 131 C16 100 16 29 15 -2 C31 -2 151 0 228 0 L461 0 C522 0 642 -2 709 -6 C709 80 712 208 719 282 C684 280 610 280 575 282 C575 152 543 131 470 131 L412 131 C367 131 347 145 344 200 C343 221 342 262 342 306 L354 306 C402 306 412 290 412 229 L412 193 C460 194 508 193 508 193 C503 244 500 270 500 344 C500 417 503 437 508 495 C508 495 459 494 410 495 L410 456 Z " />
<glyph glyph-name="ecaron" unicode="&#x11b;" horiz-adv-x="515" d="M117 687 C145 618 184 564 222 534 L310 534 C350 568 397 622 417 686 L408 697 C369 692 310 671 270 644 C227 673 166 694 126 698 L117 687 Z M320 186 C319 129 307 108 278 108 C244 108 232 135 229 207 C244 207 412 208 502 207 C513 383 450 493 269 493 C103 493 10 397 10 224 C10 49 109 -17 265 -17 C438 -17 507 66 502 186 C458 184 363 184 320 186 L320 186 Z M262 372 C280 372 292 362 292 297 C292 258 279 255 258 255 L229 255 C230 359 242 372 262 372 L262 372 Z " />
<glyph glyph-name="Gcircumflex" unicode="&#x11c;" horiz-adv-x="772" d="M526 742 C498 811 459 865 421 895 L333 895 C293 861 246 807 226 743 L235 732 C274 737 333 758 373 785 C416 756 477 735 517 731 L526 742 Z M357 710 C155 710 25 590 25 346 C25 61 165 -20 357 -20 C452 -20 530 13 566 69 C576 43 585 16 590 0 C629 2 694 2 733 0 C719 81 715 177 715 230 C715 268 721 283 750 283 L767 283 C766 328 767 377 767 377 C767 377 661 374 601 374 C541 374 425 377 425 377 C425 377 426 328 425 283 L454 283 C486 283 496 264 496 227 C496 157 466 131 413 131 C363 131 313 157 313 346 C313 529 348 559 415 559 C475 559 502 513 502 423 C543 425 647 425 688 423 C691 487 702 646 708 690 C682 688 626 688 600 690 C595 642 582 637 550 660 C503 693 431 710 357 710 L357 710 Z " />
<glyph glyph-name="gcircumflex" unicode="&#x11d;" horiz-adv-x="531" d="M256 493 C105 493 20 427 20 309 C20 235 53 181 115 151 C58 143 14 109 14 36 C14 1 28 -25 53 -42 C28 -53 10 -73 10 -102 C10 -161 60 -200 249 -200 C444 -200 528 -126 528 -33 C528 49 492 100 299 100 C179 100 130 96 130 117 C130 127 138 133 152 137 C182 128 217 124 256 124 C409 124 495 190 495 309 C495 400 443 461 348 483 C357 505 376 525 411 532 C407 525 405 516 405 506 C405 473 424 454 458 454 C494 454 514 476 514 513 C514 559 482 585 427 585 C419 585 412 584 405 583 C380 628 352 663 324 685 L236 685 C196 651 149 597 129 533 L138 522 C177 527 236 548 276 575 C295 562 317 551 339 542 C328 527 320 509 317 489 C295 492 277 493 256 493 L256 493 Z M246 -79 C369 -79 422 -62 422 -81 C422 -96 366 -124 247 -124 C133 -124 92 -109 92 -86 C92 -78 98 -70 107 -66 C144 -75 190 -79 246 -79 L246 -79 Z M258 397 C285 397 288 383 288 309 C288 235 284 220 258 220 C238 220 228 235 228 309 C228 383 232 397 258 397 L258 397 Z " />
<glyph glyph-name="Gbreve" unicode="&#x11e;" horiz-adv-x="772" d="M357 710 C155 710 25 590 25 346 C25 61 165 -20 357 -20 C452 -20 530 13 566 69 C576 43 585 16 590 0 C629 2 694 2 733 0 C719 81 715 177 715 230 C715 268 721 283 750 283 L767 283 C766 328 767 377 767 377 C767 377 661 374 601 374 C541 374 425 377 425 377 C425 377 426 328 425 283 L454 283 C486 283 496 264 496 227 C496 157 466 131 413 131 C363 131 313 157 313 346 C313 529 348 559 415 559 C475 559 502 513 502 423 C543 425 647 425 688 423 C691 487 702 646 708 690 C682 688 626 688 600 690 C595 642 582 637 550 660 C503 693 431 710 357 710 L357 710 Z M366 739 C473 739 514 804 503 884 L468 885 C464 857 429 841 366 841 C303 841 268 857 264 885 L229 884 C218 804 259 739 366 739 L366 739 Z " />
<glyph glyph-name="gbreve" unicode="&#x11f;" horiz-adv-x="531" d="M256 493 C105 493 20 427 20 309 C20 235 53 181 115 151 C58 143 14 109 14 36 C14 1 28 -25 53 -42 C28 -53 10 -73 10 -102 C10 -161 60 -200 249 -200 C444 -200 528 -126 528 -33 C528 49 492 100 299 100 C179 100 130 96 130 117 C130 127 138 133 152 137 C182 128 217 124 256 124 C409 124 495 190 495 309 C495 400 443 461 348 483 C357 505 376 525 411 532 C407 525 405 516 405 506 C405 473 424 454 458 454 C494 454 514 476 514 513 C514 559 482 585 427 585 C367 585 327 545 317 489 C295 492 277 493 256 493 L256 493 Z M246 -79 C369 -79 422 -62 422 -81 C422 -96 366 -124 247 -124 C133 -124 92 -109 92 -86 C92 -78 98 -70 107 -66 C144 -75 190 -79 246 -79 L246 -79 Z M258 397 C285 397 288 383 288 309 C288 235 284 220 258 220 C238 220 228 235 228 309 C228 383 232 397 258 397 L258 397 Z M239 534 C346 534 387 599 376 679 L341 680 C337 652 302 636 239 636 C176 636 141 652 137 680 L102 679 C91 599 132 534 239 534 L239 534 Z " />
<glyph glyph-name="Gdotaccent" unicode="&#x120;" horiz-adv-x="772" d="M357 710 C155 710 25 590 25 346 C25 61 165 -20 357 -20 C452 -20 530 13 566 69 C576 43 585 16 590 0 C629 2 694 2 733 0 C719 81 715 177 715 230 C715 268 721 283 750 283 L767 283 C766 328 767 377 767 377 C767 377 661 374 601 374 C541 374 425 377 425 377 C425 377 426 328 425 283 L454 283 C486 283 496 264 496 227 C496 157 466 131 413 131 C363 131 313 157 313 346 C313 529 348 559 415 559 C475 559 502 513 502 423 C543 425 647 425 688 423 C691 487 702 646 708 690 C682 688 626 688 600 690 C595 642 582 637 550 660 C503 693 431 710 357 710 L357 710 Z M432 821 C432 869 404 896 356 896 C309 896 281 869 281 821 C281 772 309 744 356 744 C404 744 432 773 432 821 L432 821 Z " />
<glyph glyph-name="gdotaccent" unicode="&#x121;" horiz-adv-x="531" d="M256 493 C105 493 20 427 20 309 C20 235 53 181 115 151 C58 143 14 109 14 36 C14 1 28 -25 53 -42 C28 -53 10 -73 10 -102 C10 -161 60 -200 249 -200 C444 -200 528 -126 528 -33 C528 49 492 100 299 100 C179 100 130 96 130 117 C130 127 138 133 152 137 C182 128 217 124 256 124 C409 124 495 190 495 309 C495 400 443 461 348 483 C357 505 376 525 411 532 C407 525 405 516 405 506 C405 473 424 454 458 454 C494 454 514 476 514 513 C514 559 482 585 427 585 C367 585 327 545 317 489 C295 492 277 493 256 493 L256 493 Z M246 -79 C369 -79 422 -62 422 -81 C422 -96 366 -124 247 -124 C133 -124 92 -109 92 -86 C92 -78 98 -70 107 -66 C144 -75 190 -79 246 -79 L246 -79 Z M258 397 C285 397 288 383 288 309 C288 235 284 220 258 220 C238 220 228 235 228 309 C228 383 232 397 258 397 L258 397 Z M329 611 C329 659 301 686 253 686 C206 686 178 659 178 611 C178 562 206 534 253 534 C301 534 329 563 329 611 L329 611 Z " />
<glyph glyph-name="Gcommaaccent" unicode="&#x122;" horiz-adv-x="772" d="M277 -260 L282 -280 C362 -270 436 -224 436 -137 C436 -85 410 -53 367 -53 C323 -53 296 -79 296 -122 C296 -163 317 -185 351 -185 C372 -185 388 -177 398 -164 C389 -211 354 -247 277 -260 L277 -260 Z M357 710 C155 710 25 590 25 346 C25 61 165 -20 357 -20 C452 -20 530 13 566 69 C576 43 585 16 590 0 C629 2 694 2 733 0 C719 81 715 177 715 230 C715 268 721 283 750 283 L767 283 C766 328 767 377 767 377 C767 377 661 374 601 374 C541 374 425 377 425 377 C425 377 426 328 425 283 L454 283 C486 283 496 264 496 227 C496 157 466 131 413 131 C363 131 313 157 313 346 C313 529 348 559 415 559 C475 559 502 513 502 423 C543 425 647 425 688 423 C691 487 702 646 708 690 C682 688 626 688 600 690 C595 642 582 637 550 660 C503 693 431 710 357 710 L357 710 Z " />
<glyph glyph-name="gcommaaccent" unicode="&#x123;" horiz-adv-x="531" d="M348 767 L343 787 C263 777 189 731 189 644 C189 592 215 560 258 560 C302 560 329 586 329 629 C329 670 308 692 274 692 C253 692 237 684 227 671 C236 718 271 754 348 767 L348 767 Z M256 493 C105 493 20 427 20 309 C20 235 53 181 115 151 C58 143 14 109 14 36 C14 1 28 -25 53 -42 C28 -53 10 -73 10 -102 C10 -161 60 -200 249 -200 C444 -200 528 -126 528 -33 C528 49 492 100 299 100 C179 100 130 96 130 117 C130 127 138 133 152 137 C182 128 217 124 256 124 C409 124 495 190 495 309 C495 400 443 461 348 483 C357 505 376 525 411 532 C407 525 405 516 405 506 C405 473 424 454 458 454 C494 454 514 476 514 513 C514 559 482 585 427 585 C367 585 327 545 317 489 C295 492 277 493 256 493 L256 493 Z M246 -79 C369 -79 422 -62 422 -81 C422 -96 366 -124 247 -124 C133 -124 92 -109 92 -86 C92 -78 98 -70 107 -66 C144 -75 190 -79 246 -79 L246 -79 Z M258 397 C285 397 288 383 288 309 C288 235 284 220 258 220 C238 220 228 235 228 309 C228 383 232 397 258 397 L258 397 Z " />
<glyph glyph-name="Hcircumflex" unicode="&#x124;" horiz-adv-x="840" d="M569 742 C541 811 502 865 464 895 L376 895 C336 861 289 807 269 743 L278 732 C317 737 376 758 416 785 C459 756 520 735 560 731 L569 742 Z M15 -3 C15 -3 141 0 212 0 C283 0 408 -3 408 -3 C407 28 407 100 408 131 L393 131 C347 131 342 156 340 190 C339 207 338 252 338 302 C384 303 450 303 501 302 C501 251 500 207 499 190 C497 148 484 131 446 131 L431 131 C432 100 432 28 431 -3 C431 -3 556 0 627 0 C698 0 823 -3 823 -3 C822 28 822 100 823 131 L806 131 C764 131 756 150 753 190 C750 232 750 463 753 500 C756 539 769 559 805 559 L823 559 C822 590 822 659 823 690 C823 690 698 688 627 688 C556 688 431 690 431 690 C432 659 432 590 431 559 L440 559 C476 559 497 539 500 500 C501 483 501 433 501 378 C450 377 384 377 338 378 C338 433 338 483 340 500 C343 539 363 559 399 559 L408 559 C407 590 407 659 408 690 C408 690 283 688 212 688 C141 688 15 690 15 690 C16 659 16 590 15 559 L35 559 C71 559 84 539 87 500 C90 461 90 234 87 189 C84 144 74 131 32 131 L15 131 C16 100 16 28 15 -3 L15 -3 Z " />
<glyph glyph-name="hcircumflex" unicode="&#x125;" horiz-adv-x="639" d="M297 728 C269 797 230 851 192 881 L104 881 C64 847 17 793 -3 729 L6 718 C45 723 104 744 144 771 C187 742 248 721 288 717 L297 728 Z M590 314 C590 429 534 493 434 493 C350 493 297 454 280 384 C280 510 280 605 286 693 C247 690 57 690 12 690 C13 664 13 608 12 582 L17 582 C45 582 51 567 54 532 C57 497 57 189 54 155 C51 121 43 108 14 108 L8 108 C9 82 9 24 8 -2 C8 -2 107 0 162 0 C217 0 315 -2 315 -2 C314 24 314 82 315 108 L311 108 C286 108 280 125 280 155 L280 307 C280 357 297 372 325 372 C356 372 363 353 364 317 C365 281 366 189 364 155 C362 121 357 108 334 108 L330 108 C331 82 331 24 330 -2 C330 -2 427 0 481 0 C535 0 631 -2 631 -2 C630 24 630 82 631 108 L627 108 C601 108 590 123 590 155 L590 314 Z " />
<glyph glyph-name="Hbar" unicode="&#x126;" horiz-adv-x="840" d="M15 -3 C15 -3 141 0 212 0 C283 0 408 -3 408 -3 C407 28 407 100 408 131 L393 131 C347 131 342 156 340 190 C339 207 338 252 338 302 C384 303 450 303 501 302 C501 251 500 207 499 190 C497 148 484 131 446 131 L431 131 C432 100 432 28 431 -3 C431 -3 556 0 627 0 C698 0 823 -3 823 -3 C822 28 822 100 823 131 L806 131 C764 131 756 150 753 190 C751 219 750 339 751 422 L801 421 L801 488 L752 487 C753 543 773 559 805 559 L823 559 C822 590 822 659 823 690 C823 690 698 688 627 688 C556 688 431 690 431 690 C432 659 432 590 431 559 L440 559 C482 559 500 533 500 487 L339 487 C340 536 359 559 399 559 L408 559 C407 590 407 659 408 690 C408 690 283 688 212 688 C141 688 15 690 15 690 C16 659 16 590 15 559 L35 559 C73 559 88 535 88 487 L38 488 L38 421 L89 422 C90 339 89 220 87 189 C84 144 74 131 32 131 L15 131 C16 100 16 28 15 -3 L15 -3 Z M501 422 L501 378 C450 377 384 377 338 378 L338 422 L501 422 Z " />
<glyph glyph-name="hbar" unicode="&#x127;" horiz-adv-x="639" d="M19 496 C39 497 55 497 55 497 C57 406 56 183 54 155 C51 121 43 108 14 108 L8 108 C9 82 9 24 8 -2 C8 -2 107 0 162 0 C217 0 315 -2 315 -2 C314 24 314 82 315 108 L311 108 C286 108 280 125 280 155 L280 307 C280 357 297 372 325 372 C356 372 363 353 364 317 C365 281 366 189 364 155 C362 121 357 108 334 108 L330 108 C331 82 331 24 330 -2 C330 -2 427 0 481 0 C535 0 631 -2 631 -2 C630 24 630 82 631 108 L627 108 C601 108 590 123 590 155 L590 314 C590 429 534 493 434 493 C350 493 297 454 280 384 L280 497 C280 497 302 497 322 496 C321 522 322 548 322 548 C303 547 280 547 280 547 C281 599 283 647 286 693 C247 690 57 690 12 690 C13 664 13 608 12 582 L17 582 C40 582 49 571 52 547 C52 547 38 547 19 548 C19 548 20 522 19 496 L19 496 Z " />
<glyph glyph-name="Itilde" unicode="&#x128;" horiz-adv-x="428" d="M17 -3 C17 -3 143 0 214 0 C285 0 411 -3 411 -3 C410 28 410 100 411 131 L390 131 C354 131 344 156 341 190 C338 224 338 461 341 500 C344 539 357 559 393 559 L412 559 C411 590 411 659 412 690 C412 690 286 688 215 688 C144 688 17 690 17 690 C18 659 18 590 17 559 L35 559 C71 559 84 539 87 500 C90 461 90 224 87 190 C84 156 78 131 38 131 L17 131 C18 100 18 28 17 -3 L17 -3 Z M329 862 C348 815 330 798 309 798 C299 798 288 802 276 821 C245 869 209 886 164 886 C96 886 30 836 68 741 L101 752 C80 801 103 816 121 816 C135 816 144 809 154 793 C184 745 221 728 266 728 C340 728 399 783 362 874 L329 862 Z " />
<glyph glyph-name="itilde" unicode="&#x129;" horiz-adv-x="334" d="M280 481 C219 481 77 479 8 479 C9 453 9 398 8 372 L16 372 C40 372 52 362 54 328 C56 294 55 188 53 155 C51 122 43 108 12 108 L8 108 C9 82 9 26 8 0 C18 0 151 2 170 2 C189 2 309 0 326 0 C325 26 325 82 326 108 L321 108 C291 108 281 122 279 155 C277 188 277 408 280 481 L280 481 Z M272 652 C291 605 273 588 252 588 C242 588 231 592 219 611 C188 659 152 676 107 676 C39 676 -27 626 11 531 L44 542 C23 591 46 606 64 606 C78 606 87 599 97 583 C127 535 164 518 209 518 C283 518 342 573 305 664 L272 652 Z " />
<glyph glyph-name="Imacron" unicode="&#x12a;" horiz-adv-x="428" d="M17 -3 C17 -3 143 0 214 0 C285 0 411 -3 411 -3 C410 28 410 100 411 131 L390 131 C354 131 344 156 341 190 C338 224 338 461 341 500 C344 539 357 559 393 559 L412 559 C411 590 411 659 412 690 C412 690 286 688 215 688 C144 688 17 690 17 690 C18 659 18 590 17 559 L35 559 C71 559 84 539 87 500 C90 461 90 224 87 190 C84 156 78 131 38 131 L17 131 C18 100 18 28 17 -3 L17 -3 Z M66 753 C127 755 301 755 362 753 C361 774 361 838 362 859 C301 857 127 857 66 859 C67 838 67 773 66 753 L66 753 Z " />
<glyph glyph-name="imacron" unicode="&#x12b;" horiz-adv-x="334" d="M280 481 C219 481 77 479 8 479 C9 453 9 398 8 372 L16 372 C40 372 52 362 54 328 C56 294 55 188 53 155 C51 122 43 108 12 108 L8 108 C9 82 9 26 8 0 C18 0 151 2 170 2 C189 2 309 0 326 0 C325 26 325 82 326 108 L321 108 C291 108 281 122 279 155 C277 188 277 408 280 481 L280 481 Z M11 543 C72 545 246 545 307 543 C306 564 306 628 307 649 C246 647 72 647 11 649 C12 628 12 563 11 543 L11 543 Z " />
<glyph glyph-name="Ibreve" unicode="&#x12c;" horiz-adv-x="428" d="M17 -3 C17 -3 143 0 214 0 C285 0 411 -3 411 -3 C410 28 410 100 411 131 L390 131 C354 131 344 156 341 190 C338 224 338 461 341 500 C344 539 357 559 393 559 L412 559 C411 590 411 659 412 690 C412 690 286 688 215 688 C144 688 17 690 17 690 C18 659 18 590 17 559 L35 559 C71 559 84 539 87 500 C90 461 90 224 87 190 C84 156 78 131 38 131 L17 131 C18 100 18 28 17 -3 L17 -3 Z M214 739 C321 739 362 804 351 884 L316 885 C312 857 277 841 214 841 C151 841 116 857 112 885 L77 884 C66 804 107 739 214 739 L214 739 Z " />
<glyph glyph-name="ibreve" unicode="&#x12d;" horiz-adv-x="334" d="M280 481 C219 481 77 479 8 479 C9 453 9 398 8 372 L16 372 C40 372 52 362 54 328 C56 294 55 188 53 155 C51 122 43 108 12 108 L8 108 C9 82 9 26 8 0 C18 0 151 2 170 2 C189 2 309 0 326 0 C325 26 325 82 326 108 L321 108 C291 108 281 122 279 155 C277 188 277 408 280 481 L280 481 Z M155 534 C262 534 303 599 292 679 L257 680 C253 652 218 636 155 636 C92 636 57 652 53 680 L18 679 C7 599 48 534 155 534 L155 534 Z " />
<glyph glyph-name="Iogonek" unicode="&#x12e;" horiz-adv-x="428" d="M362 -54 L322 -48 C316 -92 291 -101 262 -101 C234 -101 214 -90 214 -58 C214 -29 229 -8 264 0 C332 -1 411 -3 411 -3 C410 28 410 100 411 131 L390 131 C354 131 344 156 341 190 C338 224 338 461 341 500 C344 539 357 559 393 559 L412 559 C411 590 411 659 412 690 C412 690 286 688 215 688 C144 688 17 690 17 690 C18 659 18 590 17 559 L35 559 C71 559 84 539 87 500 C90 461 90 224 87 190 C84 156 78 131 38 131 L17 131 C18 100 18 28 17 -3 C17 -3 124 0 197 0 C150 -18 118 -57 118 -109 C118 -176 166 -206 238 -206 C347 -206 369 -128 362 -54 L362 -54 Z " />
<glyph glyph-name="iogonek" unicode="&#x12f;" horiz-adv-x="334" d="M307 -54 L267 -48 C261 -92 236 -101 207 -101 C179 -101 159 -90 159 -58 C159 -29 174 -8 210 0 C264 0 326 -2 326 -2 C325 24 325 82 326 108 L321 108 C291 108 281 122 279 155 C277 188 277 408 280 481 C219 481 77 479 8 479 C9 453 9 398 8 372 L16 372 C40 372 52 362 54 328 C56 294 55 188 53 155 C51 122 43 108 12 108 L8 108 C9 82 9 24 8 -2 C8 -2 84 0 142 0 C95 -18 63 -57 63 -109 C63 -176 111 -206 183 -206 C292 -206 314 -128 307 -54 L307 -54 Z M282 618 C282 692 240 734 166 734 C92 734 51 692 51 618 C51 542 92 500 166 500 C240 500 282 542 282 618 L282 618 Z " />
<glyph glyph-name="Idotaccent" unicode="&#x130;" horiz-adv-x="428" d="M17 -3 C17 -3 143 0 214 0 C285 0 411 -3 411 -3 C410 28 410 100 411 131 L390 131 C354 131 344 156 341 190 C338 224 338 461 341 500 C344 539 357 559 393 559 L412 559 C411 590 411 659 412 690 C412 690 286 688 215 688 C144 688 17 690 17 690 C18 659 18 590 17 559 L35 559 C71 559 84 539 87 500 C90 461 90 224 87 190 C84 156 78 131 38 131 L17 131 C18 100 18 28 17 -3 L17 -3 Z M290 821 C290 869 262 896 214 896 C167 896 139 869 139 821 C139 772 167 744 214 744 C262 744 290 773 290 821 L290 821 Z " />
<glyph glyph-name="dotlessi" unicode="&#x131;" horiz-adv-x="334" d="M280 481 C219 481 77 479 8 479 C9 453 9 398 8 372 L16 372 C40 372 52 362 54 328 C56 294 55 188 53 155 C51 122 43 108 12 108 L8 108 C9 82 9 26 8 0 C18 0 151 2 170 2 C189 2 309 0 326 0 C325 26 325 82 326 108 L321 108 C291 108 281 122 279 155 C277 188 277 408 280 481 L280 481 Z " />
<glyph glyph-name="IJ" unicode="&#x132;" horiz-adv-x="1021" d="M654 152 C655 215 615 253 553 253 C481 253 438 209 438 140 C438 39 520 -15 665 -15 C844 -15 945 63 945 201 L945 500 C945 548 965 559 997 559 L1006 559 C1005 590 1005 659 1006 690 C1006 690 880 688 809 688 C738 688 612 690 612 690 C613 659 613 590 612 559 L639 559 C677 559 688 537 691 500 C694 463 694 266 691 191 C686 75 650 55 594 55 C586 55 576 56 570 57 C624 65 654 102 654 152 L654 152 Z M17 -3 C17 -3 143 0 214 0 C285 0 411 -3 411 -3 C410 28 410 100 411 131 L390 131 C354 131 344 156 341 190 C338 224 338 461 341 500 C344 539 357 559 393 559 L412 559 C411 590 411 659 412 690 C412 690 286 688 215 688 C144 688 17 690 17 690 C18 659 18 590 17 559 L35 559 C71 559 84 539 87 500 C90 461 90 224 87 190 C84 156 78 131 38 131 L17 131 C18 100 18 28 17 -3 L17 -3 Z " />
<glyph glyph-name="ij" unicode="&#x133;" horiz-adv-x="586" d="M282 618 C282 692 240 734 166 734 C92 734 51 692 51 618 C51 542 92 500 166 500 C240 500 282 542 282 618 L282 618 Z M280 481 C219 481 77 479 8 479 C9 453 9 398 8 372 L16 372 C40 372 52 362 54 328 C56 294 55 188 53 155 C51 122 43 108 12 108 L8 108 C9 82 9 24 8 -2 C8 -2 110 0 167 0 C224 0 326 -2 326 -2 C325 24 325 82 326 108 L321 108 C291 108 281 122 279 155 C277 188 277 408 280 481 L280 481 Z M322 -83 C322 -41 298 -17 255 -17 C204 -17 178 -45 178 -96 C178 -163 241 -200 344 -200 C495 -200 574 -118 574 27 L574 302 C574 356 574 423 577 482 C538 479 351 479 306 479 C307 453 307 398 306 372 L310 372 C334 372 346 358 348 328 C350 298 352 3 347 -80 C344 -131 320 -161 276 -161 C259 -161 243 -156 233 -148 C288 -161 322 -124 322 -83 L322 -83 Z M578 618 C578 692 536 734 462 734 C389 734 347 692 347 618 C347 543 389 500 462 500 C536 500 578 543 578 618 L578 618 Z " />
<glyph glyph-name="Jcircumflex" unicode="&#x134;" horiz-adv-x="593" d="M226 152 C227 215 187 253 125 253 C53 253 10 209 10 140 C10 39 92 -15 237 -15 C416 -15 517 63 517 201 L517 500 C517 548 537 559 569 559 L578 559 C577 590 577 659 578 690 C578 690 452 688 381 688 C310 688 184 690 184 690 C185 659 185 590 184 559 L211 559 C249 559 260 537 263 500 C266 463 266 266 263 191 C258 75 222 55 166 55 C158 55 148 56 142 57 C196 65 226 102 226 152 L226 152 Z M530 742 C502 811 463 865 425 895 L337 895 C297 861 250 807 230 743 L239 732 C278 737 337 758 377 785 C420 756 481 735 521 731 L530 742 Z " />
<glyph glyph-name="jcircumflex" unicode="&#x135;" horiz-adv-x="328" d="M64 -83 C64 -41 40 -17 -3 -17 C-54 -17 -80 -45 -80 -96 C-80 -163 -17 -200 86 -200 C237 -200 316 -118 316 27 L316 302 C316 356 316 423 319 482 C280 479 93 479 48 479 C49 453 49 398 48 372 L52 372 C76 372 88 358 90 328 C92 298 94 3 89 -80 C86 -131 62 -161 18 -161 C1 -161 -15 -156 -25 -148 C30 -161 64 -124 64 -83 L64 -83 Z M332 532 C304 601 265 655 227 685 L139 685 C99 651 52 597 32 533 L41 522 C80 527 139 548 179 575 C222 546 283 525 323 521 L332 532 Z " />
<glyph glyph-name="Kcommaaccent" unicode="&#x136;" horiz-adv-x="834" d="M15 -2 C15 -2 138 0 207 0 C276 0 398 -2 398 -2 C397 29 397 100 398 131 L384 131 C357 131 342 156 339 190 C338 201 337 239 337 283 L380 316 C397 288 414 259 431 229 C466 168 466 131 429 131 L419 131 C420 100 420 29 419 -2 C419 -2 547 0 619 0 C691 0 819 -2 819 -2 C818 29 818 100 819 131 L805 131 C780 131 764 141 740 182 L577 467 L601 486 C662 532 707 559 783 559 L818 559 C817 590 817 659 818 690 C818 690 694 688 624 688 C554 688 429 690 429 690 C430 659 430 590 429 559 L451 559 C497 559 514 509 474 477 C429 441 382 405 337 370 C337 428 337 483 339 500 C342 539 355 559 391 559 L407 559 C406 590 406 659 407 690 C407 690 282 688 211 688 C140 688 15 690 15 690 C16 659 16 590 15 559 L24 559 C70 559 83 539 86 500 C89 461 89 224 86 190 C83 156 73 131 27 131 L15 131 C16 100 16 29 15 -2 L15 -2 Z M328 -260 L333 -280 C413 -270 487 -224 487 -137 C487 -85 461 -53 418 -53 C374 -53 347 -79 347 -122 C347 -163 368 -185 402 -185 C423 -185 439 -177 449 -164 C440 -211 405 -247 328 -260 L328 -260 Z " />
<glyph glyph-name="kcommaaccent" unicode="&#x137;" horiz-adv-x="664" d="M229 -260 L234 -280 C314 -270 388 -224 388 -137 C388 -85 362 -53 319 -53 C275 -53 248 -79 248 -122 C248 -163 269 -185 303 -185 C324 -185 340 -177 350 -164 C341 -211 306 -247 229 -260 L229 -260 Z M280 693 C241 690 57 690 12 690 C13 664 13 609 12 583 L18 583 C44 583 51 568 54 534 C57 500 56 190 54 155 C52 120 42 108 12 108 L8 108 C9 82 9 24 8 -2 C8 -2 105 0 160 0 C215 0 311 -2 311 -2 C310 24 310 82 311 108 L305 108 C291 108 282 120 280 155 C279 170 279 195 279 212 L303 226 C317 204 336 171 345 153 C357 127 351 108 328 108 L323 108 C324 82 324 24 323 -2 C323 -2 430 0 490 0 C550 0 656 -2 656 -2 C655 24 655 81 656 107 L651 107 C631 107 618 120 597 149 C579 173 517 297 495 340 L505 346 C539 366 571 372 626 372 L652 372 C651 398 651 456 652 482 C645 482 549 479 491 479 C433 479 330 482 330 482 C331 456 331 398 330 372 L341 372 C385 372 384 345 347 322 L278 279 C278 412 278 612 280 693 L280 693 Z " />
<glyph glyph-name="kgreenlandic" unicode="&#x138;" horiz-adv-x="664" d="M280 482 C241 479 57 479 12 479 C13 453 13 398 12 372 L18 372 C44 372 51 357 54 323 C57 289 56 190 54 155 C52 120 42 108 12 108 L8 108 C9 82 9 24 8 -2 C8 -2 105 0 160 0 C215 0 311 -2 311 -2 C310 24 310 82 311 108 L305 108 C291 108 283 120 280 155 C279 164 278 195 278 212 L303 227 C317 204 336 171 345 153 C357 127 351 108 328 108 L323 108 C324 82 324 24 323 -2 C323 -2 430 0 490 0 C550 0 656 -2 656 -2 C655 24 655 81 656 107 L651 107 C631 107 618 120 597 149 C579 174 517 296 495 340 L505 346 C539 366 571 372 626 372 L652 372 C651 398 651 456 652 482 C645 482 549 479 491 479 C433 479 330 482 330 482 C331 456 331 398 330 372 L341 372 C385 372 384 344 347 322 L278 279 C278 344 279 418 280 482 L280 482 Z " />
<glyph glyph-name="Lacute" unicode="&#x139;" horiz-adv-x="665" d="M206 738 C254 736 332 750 386 780 C475 829 428 923 332 878 C283 854 226 797 199 751 L206 738 Z M428 690 C428 690 298 688 224 688 C150 688 19 690 19 690 C20 659 20 590 19 559 L37 559 C73 559 86 529 89 490 C92 451 92 258 89 209 C86 160 83 131 37 131 L15 131 C16 100 16 30 15 -1 C78 0 150 0 193 0 L424 0 C477 0 571 0 650 -4 C649 74 649 242 650 320 C620 318 556 318 526 320 C526 150 491 131 427 131 L411 131 C371 131 346 141 343 196 C340 251 340 441 343 490 C346 539 368 559 412 559 L427 559 C425 590 425 658 428 690 L428 690 Z " />
<glyph glyph-name="lacute" unicode="&#x13a;" horiz-adv-x="331" d="M116 724 C164 722 242 736 296 766 C385 815 338 909 242 864 C193 840 136 783 109 737 L116 724 Z M279 692 C240 691 56 690 11 690 C12 664 12 609 11 583 L15 583 C42 583 51 565 53 535 C55 505 55 189 53 155 C51 121 41 108 11 108 L7 108 C9 82 9 24 7 -2 C7 -2 109 0 166 0 C223 0 325 -2 325 -2 C324 24 324 82 325 108 L320 108 C290 108 281 120 279 155 C277 190 276 549 279 692 L279 692 Z " />
<glyph glyph-name="Lcommaaccent" unicode="&#x13b;" horiz-adv-x="665" d="M233 -260 L238 -280 C318 -270 392 -224 392 -137 C392 -85 366 -53 323 -53 C279 -53 252 -79 252 -122 C252 -163 273 -185 307 -185 C328 -185 344 -177 354 -164 C345 -211 310 -247 233 -260 L233 -260 Z M428 690 C428 690 298 688 224 688 C150 688 19 690 19 690 C20 659 20 590 19 559 L37 559 C73 559 86 529 89 490 C92 451 92 258 89 209 C86 160 83 131 37 131 L15 131 C16 100 16 30 15 -1 C78 0 150 0 193 0 L424 0 C477 0 571 0 650 -4 C649 74 649 242 650 320 C620 318 556 318 526 320 C526 150 491 131 427 131 L411 131 C371 131 346 141 343 196 C340 251 340 441 343 490 C346 539 368 559 412 559 L427 559 C425 590 425 658 428 690 L428 690 Z " />
<glyph glyph-name="lcommaaccent" unicode="&#x13c;" horiz-adv-x="331" d="M77 -260 L82 -280 C162 -270 236 -224 236 -137 C236 -85 210 -53 167 -53 C123 -53 96 -79 96 -122 C96 -163 117 -185 151 -185 C172 -185 188 -177 198 -164 C189 -211 154 -247 77 -260 L77 -260 Z M279 692 C240 691 56 690 11 690 C12 664 12 609 11 583 L15 583 C42 583 51 565 53 535 C55 505 55 189 53 155 C51 121 41 108 11 108 L7 108 C9 82 9 24 7 -2 C7 -2 109 0 166 0 C223 0 325 -2 325 -2 C324 24 324 82 325 108 L320 108 C290 108 281 120 279 155 C277 190 276 549 279 692 L279 692 Z " />
<glyph glyph-name="Lcaron" unicode="&#x13d;" horiz-adv-x="665" d="M490 484 L495 464 C575 474 649 520 649 607 C649 659 623 691 580 691 C536 691 509 665 509 622 C509 581 530 559 564 559 C585 559 601 567 611 580 C602 533 567 497 490 484 L490 484 Z M428 690 C428 690 298 688 224 688 C150 688 19 690 19 690 C20 659 20 590 19 559 L37 559 C73 559 86 529 89 490 C92 451 92 258 89 209 C86 160 83 131 37 131 L15 131 C16 100 16 30 15 -1 C78 0 150 0 193 0 L424 0 C477 0 571 0 650 -4 C649 74 649 242 650 320 C620 318 556 318 526 320 C526 150 491 131 427 131 L411 131 C371 131 346 141 343 196 C340 251 340 441 343 490 C346 539 368 559 412 559 L427 559 C425 590 425 658 428 690 L428 690 Z " />
<glyph glyph-name="lcaron" unicode="&#x13e;" horiz-adv-x="479" d="M300 485 L305 465 C385 475 459 521 459 608 C459 660 433 692 390 692 C346 692 319 666 319 623 C319 582 340 560 374 560 C395 560 411 568 421 581 C412 534 377 498 300 485 L300 485 Z M279 692 C240 691 56 690 11 690 C12 664 12 609 11 583 L15 583 C42 583 51 565 53 535 C55 505 55 189 53 155 C51 121 41 108 11 108 L7 108 C9 82 9 24 7 -2 C7 -2 109 0 166 0 C223 0 325 -2 325 -2 C324 24 324 82 325 108 L320 108 C290 108 281 120 279 155 C277 190 276 549 279 692 L279 692 Z " />
<glyph glyph-name="Ldot" unicode="&#x13f;" horiz-adv-x="665" d="M428 690 C428 690 298 688 224 688 C150 688 19 690 19 690 C20 659 20 590 19 559 L37 559 C73 559 86 529 89 490 C92 451 92 258 89 209 C86 160 83 131 37 131 L15 131 C16 100 16 30 15 -1 C78 0 150 0 193 0 L424 0 C477 0 571 0 650 -4 C649 74 649 242 650 320 C620 318 556 318 526 320 C526 150 491 131 427 131 L411 131 C371 131 346 141 343 196 C340 251 340 441 343 490 C346 539 368 559 412 559 L427 559 C425 590 425 658 428 690 L428 690 Z M557 432 C557 480 529 507 481 507 C434 507 406 480 406 432 C406 383 434 355 481 355 C529 355 557 384 557 432 L557 432 Z " />
<glyph glyph-name="ldot" unicode="&#x140;" horiz-adv-x="460" d="M279 692 C240 691 56 690 11 690 C12 664 12 609 11 583 L15 583 C42 583 51 565 53 535 C55 505 55 189 53 155 C51 121 41 108 11 108 L7 108 C9 82 9 24 7 -2 C7 -2 109 0 166 0 C223 0 325 -2 325 -2 C324 24 324 82 325 108 L320 108 C290 108 281 120 279 155 C277 190 276 549 279 692 L279 692 Z M470 336 C470 384 442 411 394 411 C347 411 319 384 319 336 C319 287 347 259 394 259 C442 259 470 288 470 336 L470 336 Z " />
<glyph glyph-name="Lslash" unicode="&#x141;" horiz-adv-x="665" d="M428 690 C428 690 298 688 224 688 C150 688 19 690 19 690 C20 659 20 590 19 559 L37 559 C73 559 86 529 89 490 C90 469 91 403 91 339 L31 320 L47 256 L91 272 C91 256 90 225 89 209 C86 160 83 131 37 131 L15 131 C16 100 16 30 15 -1 C78 0 150 0 193 0 L424 0 C477 0 571 0 650 -4 C649 74 649 242 650 320 C620 318 556 318 526 320 C526 150 491 131 427 131 L411 131 C371 131 346 141 343 196 C341 225 341 294 341 359 C391 376 434 390 457 397 L441 461 L341 425 C341 453 342 477 343 490 C346 539 368 559 412 559 L427 559 C425 590 425 658 428 690 L428 690 Z " />
<glyph glyph-name="lslash" unicode="&#x142;" horiz-adv-x="331" d="M279 692 C240 691 56 690 11 690 C12 664 12 609 11 583 L15 583 C42 583 51 565 53 535 C54 520 54 434 54 348 L19 337 L35 273 L54 280 C54 219 54 167 53 155 C50 121 41 108 11 108 L7 108 C9 82 9 24 7 -2 C7 -2 109 0 166 0 C223 0 325 -2 325 -2 C324 24 324 82 325 108 L320 108 C290 108 281 120 279 155 C278 171 277 256 277 356 L322 370 L306 434 C297 430 287 427 277 423 C277 524 277 629 279 692 L279 692 Z " />
<glyph glyph-name="Nacute" unicode="&#x143;" horiz-adv-x="827" d="M443 738 C491 736 569 750 623 780 C712 829 665 923 569 878 C520 854 463 797 436 751 L443 738 Z M365 690 C281 688 100 688 16 690 C17 659 17 590 16 559 L36 559 C76 559 101 529 104 490 C107 451 107 253 104 209 C101 165 82 131 36 131 L15 131 C16 100 16 29 15 -2 C15 -2 121 0 181 0 C241 0 347 -2 347 -2 C346 29 346 100 347 131 L307 131 C261 131 242 165 239 209 C237 238 237 341 238 408 C318 284 437 94 494 -1 C550 1 671 1 727 -1 C724 164 724 425 727 481 C730 537 757 559 793 559 L812 559 C811 590 811 659 812 690 C812 690 708 687 650 687 C592 687 488 690 488 690 C489 659 489 590 488 559 L526 559 C562 559 589 539 592 481 C594 440 593 369 593 328 C524 431 415 605 365 690 L365 690 Z " />
<glyph glyph-name="nacute" unicode="&#x144;" horiz-adv-x="644" d="M322 528 C370 526 448 540 502 570 C591 619 544 713 448 668 C399 644 342 587 315 541 L322 528 Z M590 314 C590 429 544 493 434 493 C352 493 297 453 280 382 L280 482 C240 479 57 479 12 479 C13 453 13 398 12 372 L16 372 C44 372 51 357 54 328 C57 299 57 192 54 155 C51 118 43 108 12 108 L8 108 C9 82 9 24 8 -2 C8 -2 107 0 162 0 C217 0 315 -2 315 -2 C313 24 313 82 315 108 L310 108 C289 108 280 117 280 155 L280 307 C280 356 296 372 325 372 C356 372 362 353 364 317 C366 281 366 188 364 155 C362 122 353 108 335 108 L330 108 C331 82 331 24 330 -2 C330 -2 428 0 483 0 C538 0 636 -2 636 -2 C635 24 635 82 636 108 L631 108 C601 108 590 119 590 155 L590 314 Z " />
<glyph glyph-name="Ncommaaccent" unicode="&#x145;" horiz-adv-x="827" d="M324 -260 L329 -280 C409 -270 483 -224 483 -137 C483 -85 457 -53 414 -53 C370 -53 343 -79 343 -122 C343 -163 364 -185 398 -185 C419 -185 435 -177 445 -164 C436 -211 401 -247 324 -260 L324 -260 Z M365 690 C281 688 100 688 16 690 C17 659 17 590 16 559 L36 559 C76 559 101 529 104 490 C107 451 107 253 104 209 C101 165 82 131 36 131 L15 131 C16 100 16 29 15 -2 C15 -2 121 0 181 0 C241 0 347 -2 347 -2 C346 29 346 100 347 131 L307 131 C261 131 242 165 239 209 C237 238 237 341 238 408 C318 284 437 94 494 -1 C550 1 671 1 727 -1 C724 164 724 425 727 481 C730 537 757 559 793 559 L812 559 C811 590 811 659 812 690 C812 690 708 687 650 687 C592 687 488 690 488 690 C489 659 489 590 488 559 L526 559 C562 559 589 539 592 481 C594 440 593 369 593 328 C524 431 415 605 365 690 L365 690 Z " />
<glyph glyph-name="ncommaaccent" unicode="&#x146;" horiz-adv-x="644" d="M233 -260 L238 -280 C318 -270 392 -224 392 -137 C392 -85 366 -53 323 -53 C279 -53 252 -79 252 -122 C252 -163 273 -185 307 -185 C328 -185 344 -177 354 -164 C345 -211 310 -247 233 -260 L233 -260 Z M590 314 C590 429 544 493 434 493 C352 493 297 453 280 382 L280 482 C240 479 57 479 12 479 C13 453 13 398 12 372 L16 372 C44 372 51 357 54 328 C57 299 57 192 54 155 C51 118 43 108 12 108 L8 108 C9 82 9 24 8 -2 C8 -2 107 0 162 0 C217 0 315 -2 315 -2 C313 24 313 82 315 108 L310 108 C289 108 280 117 280 155 L280 307 C280 356 296 372 325 372 C356 372 362 353 364 317 C366 281 366 188 364 155 C362 122 353 108 335 108 L330 108 C331 82 331 24 330 -2 C330 -2 428 0 483 0 C538 0 636 -2 636 -2 C635 24 635 82 636 108 L631 108 C601 108 590 119 590 155 L590 314 Z " />
<glyph glyph-name="Ncaron" unicode="&#x147;" horiz-adv-x="827" d="M283 897 C311 828 350 774 388 744 L476 744 C516 778 563 832 583 896 L574 907 C535 902 476 881 436 854 C393 883 332 904 292 908 L283 897 Z M365 690 C281 688 100 688 16 690 C17 659 17 590 16 559 L36 559 C76 559 101 529 104 490 C107 451 107 253 104 209 C101 165 82 131 36 131 L15 131 C16 100 16 29 15 -2 C15 -2 121 0 181 0 C241 0 347 -2 347 -2 C346 29 346 100 347 131 L307 131 C261 131 242 165 239 209 C237 238 237 341 238 408 C318 284 437 94 494 -1 C550 1 671 1 727 -1 C724 164 724 425 727 481 C730 537 757 559 793 559 L812 559 C811 590 811 659 812 690 C812 690 708 687 650 687 C592 687 488 690 488 690 C489 659 489 590 488 559 L526 559 C562 559 589 539 592 481 C594 440 593 369 593 328 C524 431 415 605 365 690 L365 690 Z " />
<glyph glyph-name="ncaron" unicode="&#x148;" horiz-adv-x="644" d="M182 687 C210 618 249 564 287 534 L375 534 C415 568 462 622 482 686 L473 697 C434 692 375 671 335 644 C292 673 231 694 191 698 L182 687 Z M590 314 C590 429 544 493 434 493 C352 493 297 453 280 382 L280 482 C240 479 57 479 12 479 C13 453 13 398 12 372 L16 372 C44 372 51 357 54 328 C57 299 57 192 54 155 C51 118 43 108 12 108 L8 108 C9 82 9 24 8 -2 C8 -2 107 0 162 0 C217 0 315 -2 315 -2 C313 24 313 82 315 108 L310 108 C289 108 280 117 280 155 L280 307 C280 356 296 372 325 372 C356 372 362 353 364 317 C366 281 366 188 364 155 C362 122 353 108 335 108 L330 108 C331 82 331 24 330 -2 C330 -2 428 0 483 0 C538 0 636 -2 636 -2 C635 24 635 82 636 108 L631 108 C601 108 590 119 590 155 L590 314 Z " />
<glyph glyph-name="napostrophe" unicode="&#x149;" horiz-adv-x="644" d="M20 528 L25 508 C105 518 179 564 179 651 C179 703 153 735 110 735 C66 735 39 709 39 666 C39 625 60 603 94 603 C115 603 131 611 141 624 C132 577 97 541 20 528 L20 528 Z M590 314 C590 429 544 493 434 493 C352 493 297 453 280 382 L280 482 C240 479 57 479 12 479 C13 453 13 398 12 372 L16 372 C44 372 51 357 54 328 C57 299 57 192 54 155 C51 118 43 108 12 108 L8 108 C9 82 9 24 8 -2 C8 -2 107 0 162 0 C217 0 315 -2 315 -2 C313 24 313 82 315 108 L310 108 C289 108 280 117 280 155 L280 307 C280 356 296 372 325 372 C356 372 362 353 364 317 C366 281 366 188 364 155 C362 122 353 108 335 108 L330 108 C331 82 331 24 330 -2 C330 -2 428 0 483 0 C538 0 636 -2 636 -2 C635 24 635 82 636 108 L631 108 C601 108 590 119 590 155 L590 314 Z " />
<glyph glyph-name="Eng" unicode="&#x14a;" horiz-adv-x="827" d="M365 690 C281 688 100 688 16 690 C17 659 17 590 16 559 L36 559 C76 559 101 529 104 490 C107 451 107 253 104 209 C101 165 82 131 36 131 L15 131 C16 100 16 29 15 -2 C15 -2 121 0 181 0 C241 0 347 -2 347 -2 C346 29 346 100 347 131 L307 131 C261 131 242 165 239 209 C237 238 237 341 238 408 C318 284 437 94 494 -1 C511 0 535 0 562 0 L562 -33 C561 -146 490 -161 442 -161 C415 -161 396 -156 382 -146 C443 -157 470 -120 470 -81 C470 -39 444 -13 401 -13 C351 -13 322 -44 322 -94 C322 -161 384 -200 488 -200 C639 -200 727 -142 727 -1 C724 164 724 425 727 481 C730 537 757 559 793 559 L812 559 C811 590 811 659 812 690 C812 690 708 687 650 687 C592 687 488 690 488 690 C489 659 489 590 488 559 L526 559 C562 559 589 539 592 481 C594 440 593 369 593 328 C524 431 415 605 365 690 L365 690 Z " />
<glyph glyph-name="eng" unicode="&#x14b;" horiz-adv-x="598" d="M590 314 C590 429 544 493 434 493 C352 493 297 453 280 382 L280 482 C240 479 57 479 12 479 C13 453 13 398 12 372 L16 372 C44 372 51 357 54 328 C57 299 57 192 54 155 C51 118 43 108 12 108 L8 108 C9 82 9 24 8 -2 C8 -2 107 0 162 0 C217 0 315 -2 315 -2 C313 24 313 82 315 108 L310 108 C289 108 280 117 280 155 L280 311 C280 355 297 372 325 372 C356 372 362 353 364 317 C366 279 366 -37 364 -80 C362 -131 336 -161 292 -161 C275 -161 259 -156 249 -148 C305 -157 330 -123 330 -88 C330 -49 306 -25 267 -25 C221 -25 194 -54 194 -100 C194 -161 256 -200 360 -200 C511 -200 590 -118 590 27 L590 314 Z " />
<glyph glyph-name="Omacron" unicode="&#x14c;" horiz-adv-x="797" d="M262 753 C323 755 497 755 558 753 C557 774 557 838 558 859 C497 857 323 857 262 859 C263 838 263 773 262 753 L262 753 Z M399 122 C326 122 313 173 313 343 C313 515 329 567 399 567 C474 567 484 515 484 344 C484 174 469 122 399 122 L399 122 Z M399 -15 C610 -15 772 73 772 344 C772 608 647 705 399 705 C169 705 25 600 25 343 C25 75 158 -15 399 -15 L399 -15 Z " />
<glyph glyph-name="omacron" unicode="&#x14d;" horiz-adv-x="554" d="M129 543 C190 545 364 545 425 543 C424 564 424 628 425 649 C364 647 190 647 129 649 C130 628 130 563 129 543 L129 543 Z M18 235 C18 52 111 -17 277 -17 C444 -17 536 51 536 233 C536 412 448 493 277 493 C115 493 18 411 18 235 L18 235 Z M239 233 C239 351 249 372 276 372 C305 372 315 351 315 233 C315 123 304 108 277 108 C250 108 239 123 239 233 L239 233 Z " />
<glyph glyph-name="Obreve" unicode="&#x14e;" horiz-adv-x="797" d="M399 122 C326 122 313 173 313 343 C313 515 329 567 399 567 C474 567 484 515 484 344 C484 174 469 122 399 122 L399 122 Z M399 -15 C610 -15 772 73 772 344 C772 608 647 705 399 705 C169 705 25 600 25 343 C25 75 158 -15 399 -15 L399 -15 Z M418 739 C525 739 566 804 555 884 L520 885 C516 857 481 841 418 841 C355 841 320 857 316 885 L281 884 C270 804 311 739 418 739 L418 739 Z " />
<glyph glyph-name="obreve" unicode="&#x14f;" horiz-adv-x="554" d="M18 235 C18 52 111 -17 277 -17 C444 -17 536 51 536 233 C536 412 448 493 277 493 C115 493 18 411 18 235 L18 235 Z M239 233 C239 351 249 372 276 372 C305 372 315 351 315 233 C315 123 304 108 277 108 C250 108 239 123 239 233 L239 233 Z M275 534 C382 534 423 599 412 679 L377 680 C373 652 338 636 275 636 C212 636 177 652 173 680 L138 679 C127 599 168 534 275 534 L275 534 Z " />
<glyph glyph-name="Ohungarumlaut" unicode="&#x150;" horiz-adv-x="797" d="M327 741 C370 752 433 787 471 828 C536 897 463 961 394 896 C357 861 327 798 316 750 L327 741 Z M491 741 C534 752 597 787 635 828 C700 897 627 961 558 896 C521 861 491 798 480 750 L491 741 Z M399 122 C326 122 313 173 313 343 C313 515 329 567 399 567 C474 567 484 515 484 344 C484 174 469 122 399 122 L399 122 Z M399 -15 C610 -15 772 73 772 344 C772 608 647 705 399 705 C169 705 25 600 25 343 C25 75 158 -15 399 -15 L399 -15 Z " />
<glyph glyph-name="ohungarumlaut" unicode="&#x151;" horiz-adv-x="554" d="M176 531 C219 542 282 577 320 618 C385 687 312 751 243 686 C206 651 176 588 165 540 L176 531 Z M340 531 C383 542 446 577 484 618 C549 687 476 751 407 686 C370 651 340 588 329 540 L340 531 Z M18 235 C18 52 111 -17 277 -17 C444 -17 536 51 536 233 C536 412 448 493 277 493 C115 493 18 411 18 235 L18 235 Z M239 233 C239 351 249 372 276 372 C305 372 315 351 315 233 C315 123 304 108 277 108 C250 108 239 123 239 233 L239 233 Z " />
<glyph glyph-name="OE" unicode="&#x152;" horiz-adv-x="1127" d="M735 382 C735 424 736 464 737 493 C739 541 762 558 806 558 L861 558 C914 558 965 550 965 435 L965 426 C998 428 1069 428 1102 426 C1101 498 1104 622 1108 695 C1061 689 897 689 854 689 C597 689 578 689 558 690 C512 704 461 710 399 710 C169 710 25 600 25 343 C25 75 158 -20 399 -20 C452 -20 503 -13 548 1 C618 2 863 0 877 0 C920 0 1055 0 1102 -4 C1102 82 1105 208 1112 282 C1077 280 1003 280 968 282 L968 273 C968 152 936 131 863 131 L805 131 C760 131 740 145 737 200 C736 221 735 262 735 306 L747 306 C795 306 805 290 805 229 L805 193 C853 194 901 193 901 193 C896 244 893 270 893 344 C893 417 896 437 901 495 C901 495 852 494 803 495 L803 456 C803 397 792 382 747 382 L735 382 Z M399 122 C326 122 313 173 313 343 C313 515 329 567 399 567 C434 567 460 555 474 527 C488 499 490 187 474 160 C459 134 431 122 399 122 L399 122 Z " />
<glyph glyph-name="oe" unicode="&#x153;" horiz-adv-x="820" d="M807 186 C763 184 668 184 625 186 C624 129 612 108 583 108 C549 108 537 135 534 207 L808 207 C818 370 755 493 574 493 C517 493 469 481 430 460 C390 482 338 493 277 493 C115 493 18 411 18 235 C18 52 111 -17 277 -17 C337 -17 387 -9 426 10 C466 -8 514 -17 570 -17 C743 -17 812 66 807 186 L807 186 Z M239 233 C239 351 249 372 276 372 C305 372 315 351 315 233 C315 123 304 108 277 108 C250 108 239 123 239 233 L239 233 Z M567 372 C585 372 597 364 597 286 C597 263 594 255 573 255 L534 255 C535 359 547 372 567 372 L567 372 Z " />
<glyph glyph-name="Racute" unicode="&#x154;" horiz-adv-x="821" d="M350 738 C398 736 476 750 530 780 C619 829 572 923 476 878 C427 854 370 797 343 751 L350 738 Z M703 176 C690 255 654 319 554 330 C678 343 734 412 734 501 C734 621 645 689 487 689 C384 689 284 688 238 688 C175 688 31 690 15 690 C16 659 16 590 15 559 L37 559 C74 559 84 539 87 500 C90 461 90 232 87 190 C84 148 70 131 38 131 L15 131 C16 100 16 29 15 -2 C15 -2 144 0 217 0 C290 0 418 -2 418 -2 C417 29 417 100 418 131 L398 131 C363 131 344 148 341 191 C340 206 339 245 339 289 C403 286 431 259 438 151 C445 37 482 -26 624 -26 C795 -26 834 80 805 200 C793 198 769 196 751 197 C766 135 758 106 740 106 C721 106 712 121 703 176 L703 176 Z M341 519 C342 544 354 559 380 559 L392 559 C442 559 453 524 453 469 C453 406 432 381 369 381 L339 381 C339 439 339 494 341 519 L341 519 Z " />
<glyph glyph-name="racute" unicode="&#x155;" horiz-adv-x="498" d="M200 528 C248 526 326 540 380 570 C469 619 422 713 326 668 C277 644 220 587 193 541 L200 528 Z M10 108 C11 82 11 24 10 -2 C10 -2 115 0 174 0 C233 0 338 -2 338 -2 C337 24 337 82 338 108 L329 108 C288 108 283 117 282 147 C280 207 280 268 282 328 C284 393 316 426 369 426 C379 426 390 424 398 421 C351 422 310 394 310 342 C310 296 341 270 396 270 C456 270 490 307 490 374 C490 450 447 493 369 493 C292 493 245 441 231 376 L229 376 L233 481 C194 479 59 478 14 479 C15 453 15 398 14 372 L18 372 C46 372 53 357 56 328 C59 299 59 192 56 155 C53 118 45 108 14 108 L10 108 Z " />
<glyph glyph-name="Rcommaaccent" unicode="&#x156;" horiz-adv-x="821" d="M321 -260 L326 -280 C406 -270 480 -224 480 -137 C480 -85 454 -53 411 -53 C367 -53 340 -79 340 -122 C340 -163 361 -185 395 -185 C416 -185 432 -177 442 -164 C433 -211 398 -247 321 -260 L321 -260 Z M703 176 C690 255 654 319 554 330 C678 343 734 412 734 501 C734 621 645 689 487 689 C384 689 284 688 238 688 C175 688 31 690 15 690 C16 659 16 590 15 559 L37 559 C74 559 84 539 87 500 C90 461 90 232 87 190 C84 148 70 131 38 131 L15 131 C16 100 16 29 15 -2 C15 -2 144 0 217 0 C290 0 418 -2 418 -2 C417 29 417 100 418 131 L398 131 C363 131 344 148 341 191 C340 206 339 245 339 289 C403 286 431 259 438 151 C445 37 482 -26 624 -26 C795 -26 834 80 805 200 C793 198 769 196 751 197 C766 135 758 106 740 106 C721 106 712 121 703 176 L703 176 Z M341 519 C342 544 354 559 380 559 L392 559 C442 559 453 524 453 469 C453 406 432 381 369 381 L339 381 C339 439 339 494 341 519 L341 519 Z " />
<glyph glyph-name="rcommaaccent" unicode="&#x157;" horiz-adv-x="498" d="M81 -260 L86 -280 C166 -270 240 -224 240 -137 C240 -85 214 -53 171 -53 C127 -53 100 -79 100 -122 C100 -163 121 -185 155 -185 C176 -185 192 -177 202 -164 C193 -211 158 -247 81 -260 L81 -260 Z M10 108 C11 82 11 24 10 -2 C10 -2 115 0 174 0 C233 0 338 -2 338 -2 C337 24 337 82 338 108 L329 108 C288 108 283 117 282 147 C280 207 280 268 282 328 C284 393 316 426 369 426 C379 426 390 424 398 421 C351 422 310 394 310 342 C310 296 341 270 396 270 C456 270 490 307 490 374 C490 450 447 493 369 493 C292 493 245 441 231 376 L229 376 L233 481 C194 479 59 478 14 479 C15 453 15 398 14 372 L18 372 C46 372 53 357 56 328 C59 299 59 192 56 155 C53 118 45 108 14 108 L10 108 Z " />
<glyph glyph-name="Rcaron" unicode="&#x158;" horiz-adv-x="821" d="M220 897 C248 828 287 774 325 744 L413 744 C453 778 500 832 520 896 L511 907 C472 902 413 881 373 854 C330 883 269 904 229 908 L220 897 Z M703 176 C690 255 654 319 554 330 C678 343 734 412 734 501 C734 621 645 689 487 689 C384 689 284 688 238 688 C175 688 31 690 15 690 C16 659 16 590 15 559 L37 559 C74 559 84 539 87 500 C90 461 90 232 87 190 C84 148 70 131 38 131 L15 131 C16 100 16 29 15 -2 C15 -2 144 0 217 0 C290 0 418 -2 418 -2 C417 29 417 100 418 131 L398 131 C363 131 344 148 341 191 C340 206 339 245 339 289 C403 286 431 259 438 151 C445 37 482 -26 624 -26 C795 -26 834 80 805 200 C793 198 769 196 751 197 C766 135 758 106 740 106 C721 106 712 121 703 176 L703 176 Z M341 519 C342 544 354 559 380 559 L392 559 C442 559 453 524 453 469 C453 406 432 381 369 381 L339 381 C339 439 339 494 341 519 L341 519 Z " />
<glyph glyph-name="rcaron" unicode="&#x159;" horiz-adv-x="498" d="M100 687 C128 618 167 564 205 534 L293 534 C333 568 380 622 400 686 L391 697 C352 692 293 671 253 644 C210 673 149 694 109 698 L100 687 Z M10 108 C11 82 11 24 10 -2 C10 -2 115 0 174 0 C233 0 338 -2 338 -2 C337 24 337 82 338 108 L329 108 C288 108 283 117 282 147 C280 207 280 268 282 328 C284 393 316 426 369 426 C379 426 390 424 398 421 C351 422 310 394 310 342 C310 296 341 270 396 270 C456 270 490 307 490 374 C490 450 447 493 369 493 C292 493 245 441 231 376 L229 376 L233 481 C194 479 59 478 14 479 C15 453 15 398 14 372 L18 372 C46 372 53 357 56 328 C59 299 59 192 56 155 C53 118 45 108 14 108 L10 108 Z " />
<glyph glyph-name="Sacute" unicode="&#x15a;" horiz-adv-x="711" d="M341 738 C389 736 467 750 521 780 C610 829 563 923 467 878 C418 854 361 797 334 751 L341 738 Z M367 577 C454 577 527 550 558 488 C580 490 636 489 658 487 C656 547 658 637 661 690 C643 688 585 688 567 690 C558 654 558 642 516 663 C471 686 418 705 327 705 C139 705 39 598 39 445 C39 299 127 214 343 203 C462 197 499 188 499 159 C499 131 470 111 388 111 C264 111 169 145 133 225 C111 223 57 223 35 225 C37 170 31 60 27 -5 C47 -3 111 -3 131 -5 C138 36 156 46 188 30 C237 6 292 -15 391 -15 C596 -15 701 71 701 244 C701 433 542 481 381 487 C271 491 247 498 247 529 C247 553 273 577 367 577 L367 577 Z " />
<glyph glyph-name="sacute" unicode="&#x15b;" horiz-adv-x="525" d="M214 528 C262 526 340 540 394 570 C483 619 436 713 340 668 C291 644 234 587 207 541 L214 528 Z M269 402 C310 402 360 392 396 346 C415 348 455 348 474 346 C476 387 481 443 487 482 C470 480 433 480 416 482 C408 460 404 440 358 465 C327 482 283 493 247 493 C105 493 22 416 22 311 C22 203 89 135 235 126 C320 121 330 113 330 96 C330 81 318 67 264 67 C192 67 131 100 99 144 C81 142 44 142 26 144 C26 97 19 43 13 0 C31 2 68 2 86 0 C92 27 105 42 148 19 C195 -6 244 -17 299 -17 C449 -17 516 55 516 160 C516 270 450 332 322 342 C220 350 203 355 203 375 C203 389 215 402 269 402 L269 402 Z " />
<glyph glyph-name="Scircumflex" unicode="&#x15c;" horiz-adv-x="711" d="M491 742 C463 811 424 865 386 895 L298 895 C258 861 211 807 191 743 L200 732 C239 737 298 758 338 785 C381 756 442 735 482 731 L491 742 Z M367 577 C454 577 527 550 558 488 C580 490 636 489 658 487 C656 547 658 637 661 690 C643 688 585 688 567 690 C558 654 558 642 516 663 C471 686 418 705 327 705 C139 705 39 598 39 445 C39 299 127 214 343 203 C462 197 499 188 499 159 C499 131 470 111 388 111 C264 111 169 145 133 225 C111 223 57 223 35 225 C37 170 31 60 27 -5 C47 -3 111 -3 131 -5 C138 36 156 46 188 30 C237 6 292 -15 391 -15 C596 -15 701 71 701 244 C701 433 542 481 381 487 C271 491 247 498 247 529 C247 553 273 577 367 577 L367 577 Z " />
<glyph glyph-name="scircumflex" unicode="&#x15d;" horiz-adv-x="525" d="M414 532 C386 601 347 655 309 685 L221 685 C181 651 134 597 114 533 L123 522 C162 527 221 548 261 575 C304 546 365 525 405 521 L414 532 Z M269 402 C310 402 360 392 396 346 C415 348 455 348 474 346 C476 387 481 443 487 482 C470 480 433 480 416 482 C408 460 404 440 358 465 C327 482 283 493 247 493 C105 493 22 416 22 311 C22 203 89 135 235 126 C320 121 330 113 330 96 C330 81 318 67 264 67 C192 67 131 100 99 144 C81 142 44 142 26 144 C26 97 19 43 13 0 C31 2 68 2 86 0 C92 27 105 42 148 19 C195 -6 244 -17 299 -17 C449 -17 516 55 516 160 C516 270 450 332 322 342 C220 350 203 355 203 375 C203 389 215 402 269 402 L269 402 Z " />
<glyph glyph-name="Scedilla" unicode="&#x15e;" horiz-adv-x="711" d="M312 -105 C358 -87 387 -107 387 -138 C387 -165 375 -184 337 -184 C314 -184 292 -173 273 -152 L248 -178 C267 -203 306 -234 372 -234 C449 -234 494 -196 494 -141 C494 -85 444 -59 389 -60 C400 -47 407 -32 408 -15 C602 -10 701 76 701 244 C701 433 542 481 381 487 C271 491 247 498 247 529 C247 553 273 577 367 577 C454 577 527 550 558 488 C580 490 636 489 658 487 C656 547 658 637 661 690 C643 688 585 688 567 690 C558 654 558 642 516 663 C471 686 418 705 327 705 C139 705 39 598 39 445 C39 299 127 214 343 203 C462 197 499 188 499 159 C499 131 470 111 388 111 C264 111 169 145 133 225 C111 223 57 223 35 225 C37 170 31 60 27 -5 C47 -3 111 -3 131 -5 C138 36 156 46 188 30 C232 8 282 -11 366 -14 C357 -48 332 -68 300 -77 L312 -105 Z " />
<glyph glyph-name="scedilla" unicode="&#x15f;" horiz-adv-x="525" d="M203 -105 C249 -87 278 -107 278 -138 C278 -165 266 -184 228 -184 C205 -184 183 -173 164 -152 L139 -178 C158 -203 197 -234 263 -234 C340 -234 385 -196 385 -141 C385 -85 335 -59 280 -60 C291 -48 297 -33 299 -17 C449 -17 516 55 516 160 C516 270 450 332 322 342 C220 350 203 355 203 375 C203 389 215 402 269 402 C310 402 360 392 396 346 C415 348 455 348 474 346 C476 387 481 443 487 482 C470 480 433 480 416 482 C408 460 404 440 358 465 C327 482 283 493 247 493 C105 493 22 416 22 311 C22 203 89 135 235 126 C320 121 330 113 330 96 C330 81 318 67 264 67 C192 67 131 100 99 144 C81 142 44 142 26 144 C26 97 19 43 13 0 C31 2 68 2 86 0 C92 27 105 42 148 19 C183 0 218 -10 257 -15 C248 -48 223 -68 191 -77 L203 -105 Z " />
<glyph glyph-name="Scaron" unicode="&#x160;" horiz-adv-x="711" d="M201 897 C229 828 268 774 306 744 L394 744 C434 778 481 832 501 896 L492 907 C453 902 394 881 354 854 C311 883 250 904 210 908 L201 897 Z M367 577 C454 577 527 550 558 488 C580 490 636 489 658 487 C656 547 658 637 661 690 C643 688 585 688 567 690 C558 654 558 642 516 663 C471 686 418 705 327 705 C139 705 39 598 39 445 C39 299 127 214 343 203 C462 197 499 188 499 159 C499 131 470 111 388 111 C264 111 169 145 133 225 C111 223 57 223 35 225 C37 170 31 60 27 -5 C47 -3 111 -3 131 -5 C138 36 156 46 188 30 C237 6 292 -15 391 -15 C596 -15 701 71 701 244 C701 433 542 481 381 487 C271 491 247 498 247 529 C247 553 273 577 367 577 L367 577 Z " />
<glyph glyph-name="scaron" unicode="&#x161;" horiz-adv-x="525" d="M124 687 C152 618 191 564 229 534 L317 534 C357 568 404 622 424 686 L415 697 C376 692 317 671 277 644 C234 673 173 694 133 698 L124 687 Z M269 402 C310 402 360 392 396 346 C415 348 455 348 474 346 C476 387 481 443 487 482 C470 480 433 480 416 482 C408 460 404 440 358 465 C327 482 283 493 247 493 C105 493 22 416 22 311 C22 203 89 135 235 126 C320 121 330 113 330 96 C330 81 318 67 264 67 C192 67 131 100 99 144 C81 142 44 142 26 144 C26 97 19 43 13 0 C31 2 68 2 86 0 C92 27 105 42 148 19 C195 -6 244 -17 299 -17 C449 -17 516 55 516 160 C516 270 450 332 322 342 C220 350 203 355 203 375 C203 389 215 402 269 402 L269 402 Z " />
<glyph glyph-name="Tcommaaccent" unicode="&#x162;" horiz-adv-x="754" d="M306 -104 C352 -86 381 -106 381 -137 C381 -164 369 -183 331 -183 C308 -183 286 -172 267 -151 L242 -177 C261 -202 300 -233 366 -233 C443 -233 488 -195 488 -140 C488 -84 438 -58 383 -59 C398 -43 404 -23 402 0 C481 0 593 -2 593 -2 C592 29 592 100 593 131 L572 131 C524 131 507 160 504 200 C501 234 501 447 503 550 L525 550 C573 550 590 515 593 457 L597 382 C630 384 701 384 734 382 C731 457 734 617 739 692 C704 690 645 688 525 688 L229 688 C97 688 66 689 15 692 C20 617 23 457 20 382 C53 384 124 384 157 382 L161 457 C164 515 181 550 229 550 L252 550 C254 448 253 236 251 200 C248 158 228 131 182 131 L161 131 C162 100 162 29 161 -2 C161 -2 283 0 362 0 C358 -42 331 -65 294 -76 L306 -104 Z " />
<glyph glyph-name="tcommaaccent" unicode="&#x163;" horiz-adv-x="383" d="M132 -105 C178 -87 207 -107 207 -138 C207 -165 195 -184 157 -184 C134 -184 112 -173 93 -152 L68 -178 C87 -203 126 -234 192 -234 C269 -234 314 -196 314 -141 C314 -85 264 -59 209 -60 C220 -47 226 -33 228 -16 C353 -7 386 69 371 215 L317 216 C325 163 324 106 298 106 C286 106 278 118 278 197 L278 373 L373 372 C372 398 372 456 373 482 L278 479 C278 533 280 592 286 642 C264 640 217 640 195 642 C178 552 115 462 8 463 C9 442 9 395 8 374 L45 374 C45 289 39 200 39 141 C39 45 91 -10 185 -16 C176 -49 152 -68 120 -77 L132 -105 Z " />
<glyph glyph-name="Tcaron" unicode="&#x164;" horiz-adv-x="754" d="M227 897 C255 828 294 774 332 744 L420 744 C460 778 507 832 527 896 L518 907 C479 902 420 881 380 854 C337 883 276 904 236 908 L227 897 Z M525 550 C573 550 590 515 593 457 L597 382 C630 384 701 384 734 382 C731 457 734 617 739 692 C704 690 645 688 525 688 L229 688 C97 688 66 689 15 692 C20 617 23 457 20 382 C53 384 124 384 157 382 L161 457 C164 515 181 550 229 550 L252 550 C254 448 253 236 251 200 C248 158 228 131 182 131 L161 131 C162 100 162 29 161 -2 C161 -2 299 0 377 0 C455 0 593 -2 593 -2 C592 29 592 100 593 131 L572 131 C524 131 507 160 504 200 C501 234 501 447 503 550 L525 550 Z " />
<glyph glyph-name="tcaron" unicode="&#x165;" horiz-adv-x="515" d="M327 523 L332 503 C412 513 486 559 486 646 C486 698 460 730 417 730 C373 730 346 704 346 661 C346 620 367 598 401 598 C422 598 438 606 448 619 C439 572 404 536 327 523 L327 523 Z M317 216 C325 163 324 106 298 106 C286 106 278 118 278 197 L278 373 L373 372 C372 398 372 456 373 482 L278 479 C278 533 280 592 286 642 C264 640 217 640 195 642 C178 552 115 462 8 463 C9 442 9 395 8 374 L45 374 C45 289 39 200 39 141 C39 40 98 -17 203 -17 C349 -17 387 60 371 215 L317 216 Z " />
<glyph glyph-name="Tbar" unicode="&#x166;" horiz-adv-x="754" d="M525 550 C573 550 590 515 593 457 L597 382 C630 384 701 384 734 382 C731 457 734 617 739 692 C704 690 645 688 525 688 L229 688 C97 688 66 689 15 692 C20 617 23 457 20 382 C53 384 124 384 157 382 L161 457 C164 515 181 550 229 550 L252 550 C253 491 253 398 253 321 L157 326 L157 259 L252 264 C252 233 251 210 251 200 C248 158 228 131 182 131 L161 131 C162 100 162 29 161 -2 C161 -2 299 0 377 0 C455 0 593 -2 593 -2 C592 29 592 100 593 131 L572 131 C524 131 507 160 504 200 C503 209 502 232 502 263 L596 259 L596 326 L501 321 C501 398 502 491 503 550 L525 550 Z " />
<glyph glyph-name="tbar" unicode="&#x167;" horiz-adv-x="383" d="M10 269 L43 271 C41 222 39 176 39 141 C39 40 98 -17 203 -17 C349 -17 387 60 371 215 L317 216 C325 163 324 106 298 106 C286 106 278 118 278 197 L278 274 L363 269 L363 336 L278 331 L278 373 L373 372 C372 398 372 456 373 482 L278 479 C278 533 280 592 286 642 C264 640 217 640 195 642 C178 552 115 462 8 463 C9 442 9 395 8 374 L45 374 C45 360 45 347 44 333 L10 336 L10 269 Z " />
<glyph glyph-name="Utilde" unicode="&#x168;" horiz-adv-x="803" d="M83 250 C83 62 177 -25 411 -25 C597 -25 718 46 718 257 C718 337 715 414 718 493 C720 539 738 559 776 559 L788 559 C787 590 787 659 788 690 C772 690 683 688 624 688 C565 688 469 690 469 690 C470 659 470 590 469 559 L496 559 C532 559 552 539 554 493 C557 437 557 333 554 266 C550 168 521 131 453 131 C385 131 357 168 353 266 C350 342 350 417 353 493 C355 539 379 559 415 559 L444 559 C443 590 443 659 444 690 C428 690 300 688 225 688 C150 688 15 690 15 690 C16 659 16 590 15 559 L26 559 C62 559 82 539 84 493 C87 404 83 327 83 250 L83 250 Z M541 862 C560 815 542 798 521 798 C511 798 500 802 488 821 C457 869 421 886 376 886 C308 886 242 836 280 741 L313 752 C292 801 315 816 333 816 C347 816 356 809 366 793 C396 745 433 728 478 728 C552 728 611 783 574 874 L541 862 Z " />
<glyph glyph-name="utilde" unicode="&#x169;" horiz-adv-x="613" d="M577 482 C577 482 485 479 435 479 C385 479 295 482 295 482 C296 456 296 398 295 372 L298 372 C341 372 348 354 348 317 L348 260 C348 155 346 105 303 105 C272 105 266 133 264 189 C263 215 263 263 263 305 C263 338 264 423 267 482 C267 482 182 479 135 479 C88 479 5 482 5 482 C6 456 6 398 5 372 L11 372 C32 372 38 348 38 301 L38 162 C38 47 89 -17 199 -17 C284 -17 332 29 348 98 L348 -2 C387 0 561 0 606 0 C605 26 605 82 606 108 L602 108 C579 108 574 132 574 177 L574 311 C574 356 574 418 577 482 L577 482 Z M421 652 C440 605 422 588 401 588 C391 588 380 592 368 611 C337 659 301 676 256 676 C188 676 122 626 160 531 L193 542 C172 591 195 606 213 606 C227 606 236 599 246 583 C276 535 313 518 358 518 C432 518 491 573 454 664 L421 652 Z " />
<glyph glyph-name="Umacron" unicode="&#x16a;" horiz-adv-x="803" d="M83 250 C83 62 177 -25 411 -25 C597 -25 718 46 718 257 C718 337 715 414 718 493 C720 539 738 559 776 559 L788 559 C787 590 787 659 788 690 C772 690 683 688 624 688 C565 688 469 690 469 690 C470 659 470 590 469 559 L496 559 C532 559 552 539 554 493 C557 437 557 333 554 266 C550 168 521 131 453 131 C385 131 357 168 353 266 C350 342 350 417 353 493 C355 539 379 559 415 559 L444 559 C443 590 443 659 444 690 C428 690 300 688 225 688 C150 688 15 690 15 690 C16 659 16 590 15 559 L26 559 C62 559 82 539 84 493 C87 404 83 327 83 250 L83 250 Z M311 753 C372 755 546 755 607 753 C606 774 606 838 607 859 C546 857 372 857 311 859 C312 838 312 773 311 753 L311 753 Z " />
<glyph glyph-name="umacron" unicode="&#x16b;" horiz-adv-x="613" d="M577 482 C577 482 485 479 435 479 C385 479 295 482 295 482 C296 456 296 398 295 372 L298 372 C341 372 348 354 348 317 L348 260 C348 155 346 105 303 105 C272 105 266 133 264 189 C263 215 263 263 263 305 C263 338 264 423 267 482 C267 482 182 479 135 479 C88 479 5 482 5 482 C6 456 6 398 5 372 L11 372 C32 372 38 348 38 301 L38 162 C38 47 89 -17 199 -17 C284 -17 332 29 348 98 L348 -2 C387 0 561 0 606 0 C605 26 605 82 606 108 L602 108 C579 108 574 132 574 177 L574 311 C574 356 574 418 577 482 L577 482 Z M157 543 C218 545 392 545 453 543 C452 564 452 628 453 649 C392 647 218 647 157 649 C158 628 158 563 157 543 L157 543 Z " />
<glyph glyph-name="Ubreve" unicode="&#x16c;" horiz-adv-x="803" d="M83 250 C83 62 177 -25 411 -25 C597 -25 718 46 718 257 C718 337 715 414 718 493 C720 539 738 559 776 559 L788 559 C787 590 787 659 788 690 C772 690 683 688 624 688 C565 688 469 690 469 690 C470 659 470 590 469 559 L496 559 C532 559 552 539 554 493 C557 437 557 333 554 266 C550 168 521 131 453 131 C385 131 357 168 353 266 C350 342 350 417 353 493 C355 539 379 559 415 559 L444 559 C443 590 443 659 444 690 C428 690 300 688 225 688 C150 688 15 690 15 690 C16 659 16 590 15 559 L26 559 C62 559 82 539 84 493 C87 404 83 327 83 250 L83 250 Z M455 739 C562 739 603 804 592 884 L557 885 C553 857 518 841 455 841 C392 841 357 857 353 885 L318 884 C307 804 348 739 455 739 L455 739 Z " />
<glyph glyph-name="ubreve" unicode="&#x16d;" horiz-adv-x="613" d="M577 482 C577 482 485 479 435 479 C385 479 295 482 295 482 C296 456 296 398 295 372 L298 372 C341 372 348 354 348 317 L348 260 C348 155 346 105 303 105 C272 105 266 133 264 189 C263 215 263 263 263 305 C263 338 264 423 267 482 C267 482 182 479 135 479 C88 479 5 482 5 482 C6 456 6 398 5 372 L11 372 C32 372 38 348 38 301 L38 162 C38 47 89 -17 199 -17 C284 -17 332 29 348 98 L348 -2 C387 0 561 0 606 0 C605 26 605 82 606 108 L602 108 C579 108 574 132 574 177 L574 311 C574 356 574 418 577 482 L577 482 Z M305 534 C412 534 453 599 442 679 L407 680 C403 652 368 636 305 636 C242 636 207 652 203 680 L168 679 C157 599 198 534 305 534 L305 534 Z " />
<glyph glyph-name="Uring" unicode="&#x16e;" horiz-adv-x="803" d="M499 840 C499 809 483 791 454 791 C425 791 408 809 408 840 C408 870 425 887 454 887 C483 887 499 870 499 840 L499 840 Z M550 840 C550 902 515 936 452 936 C391 936 357 902 357 840 C357 778 392 743 454 743 C516 743 550 778 550 840 L550 840 Z M83 250 C83 62 177 -25 411 -25 C597 -25 718 46 718 257 C718 337 715 414 718 493 C720 539 738 559 776 559 L788 559 C787 590 787 659 788 690 C772 690 683 688 624 688 C565 688 469 690 469 690 C470 659 470 590 469 559 L496 559 C532 559 552 539 554 493 C557 437 557 333 554 266 C550 168 521 131 453 131 C385 131 357 168 353 266 C350 342 350 417 353 493 C355 539 379 559 415 559 L444 559 C443 590 443 659 444 690 C428 690 300 688 225 688 C150 688 15 690 15 690 C16 659 16 590 15 559 L26 559 C62 559 82 539 84 493 C87 404 83 327 83 250 L83 250 Z " />
<glyph glyph-name="uring" unicode="&#x16f;" horiz-adv-x="613" d="M321 630 C321 599 305 581 276 581 C247 581 230 599 230 630 C230 660 247 677 276 677 C305 677 321 660 321 630 L321 630 Z M372 630 C372 692 337 726 274 726 C213 726 179 692 179 630 C179 568 214 533 276 533 C338 533 372 568 372 630 L372 630 Z M577 482 C577 482 485 479 435 479 C385 479 295 482 295 482 C296 456 296 398 295 372 L298 372 C341 372 348 354 348 317 L348 260 C348 155 346 105 303 105 C272 105 266 133 264 189 C263 215 263 263 263 305 C263 338 264 423 267 482 C267 482 182 479 135 479 C88 479 5 482 5 482 C6 456 6 398 5 372 L11 372 C32 372 38 348 38 301 L38 162 C38 47 89 -17 199 -17 C284 -17 332 29 348 98 L348 -2 C387 0 561 0 606 0 C605 26 605 82 606 108 L602 108 C579 108 574 132 574 177 L574 311 C574 356 574 418 577 482 L577 482 Z " />
<glyph glyph-name="Uhungarumlaut" unicode="&#x170;" horiz-adv-x="803" d="M83 250 C83 62 177 -25 411 -25 C597 -25 718 46 718 257 C718 337 715 414 718 493 C720 539 738 559 776 559 L788 559 C787 590 787 659 788 690 C772 690 683 688 624 688 C565 688 469 690 469 690 C470 659 470 590 469 559 L496 559 C532 559 552 539 554 493 C557 437 557 333 554 266 C550 168 521 131 453 131 C385 131 357 168 353 266 C350 342 350 417 353 493 C355 539 379 559 415 559 L444 559 C443 590 443 659 444 690 C428 690 300 688 225 688 C150 688 15 690 15 690 C16 659 16 590 15 559 L26 559 C62 559 82 539 84 493 C87 404 83 327 83 250 L83 250 Z M360 741 C403 752 466 787 504 828 C569 897 496 961 427 896 C390 861 360 798 349 750 L360 741 Z M524 741 C567 752 630 787 668 828 C733 897 660 961 591 896 C554 861 524 798 513 750 L524 741 Z " />
<glyph glyph-name="uhungarumlaut" unicode="&#x171;" horiz-adv-x="613" d="M577 482 C577 482 485 479 435 479 C385 479 295 482 295 482 C296 456 296 398 295 372 L298 372 C341 372 348 354 348 317 L348 260 C348 155 346 105 303 105 C272 105 266 133 264 189 C263 215 263 263 263 305 C263 338 264 423 267 482 C267 482 182 479 135 479 C88 479 5 482 5 482 C6 456 6 398 5 372 L11 372 C32 372 38 348 38 301 L38 162 C38 47 89 -17 199 -17 C284 -17 332 29 348 98 L348 -2 C387 0 561 0 606 0 C605 26 605 82 606 108 L602 108 C579 108 574 132 574 177 L574 311 C574 356 574 418 577 482 L577 482 Z M194 531 C237 542 300 577 338 618 C403 687 330 751 261 686 C224 651 194 588 183 540 L194 531 Z M358 531 C401 542 464 577 502 618 C567 687 494 751 425 686 C388 651 358 588 347 540 L358 531 Z " />
<glyph glyph-name="Uogonek" unicode="&#x172;" horiz-adv-x="803" d="M83 250 C83 76 163 -11 361 -23 C337 -44 322 -73 322 -109 C322 -176 370 -206 442 -206 C551 -206 573 -128 566 -54 L526 -48 C520 -92 495 -101 466 -101 C438 -101 418 -90 418 -58 C418 -45 421 -34 427 -25 C604 -21 718 52 718 257 C718 337 715 414 718 493 C720 539 738 559 776 559 L788 559 C787 590 787 659 788 690 C772 690 683 688 624 688 C565 688 469 690 469 690 C470 659 470 590 469 559 L496 559 C532 559 552 539 554 493 C557 437 557 333 554 266 C550 168 521 131 453 131 C385 131 357 168 353 266 C350 342 350 417 353 493 C355 539 379 559 415 559 L444 559 C443 590 443 659 444 690 C428 690 300 688 225 688 C150 688 15 690 15 690 C16 659 16 590 15 559 L26 559 C62 559 82 539 84 493 C87 404 83 327 83 250 L83 250 Z " />
<glyph glyph-name="uogonek" unicode="&#x173;" horiz-adv-x="613" d="M577 482 C577 482 485 479 435 479 C385 479 295 482 295 482 C296 456 296 398 295 372 L298 372 C341 372 348 354 348 317 L348 260 C348 155 346 105 303 105 C272 105 266 133 264 189 C263 215 263 263 263 305 C263 338 264 423 267 482 C267 482 182 479 135 479 C88 479 5 482 5 482 C6 456 6 398 5 372 L11 372 C32 372 38 348 38 301 L38 162 C38 47 89 -17 199 -17 C284 -17 332 29 348 98 L348 -2 C364 -1 407 0 452 0 C406 -18 374 -57 374 -109 C374 -176 422 -206 494 -206 C603 -206 625 -128 618 -54 L578 -48 C572 -92 547 -101 518 -101 C490 -101 470 -90 470 -58 C470 -29 485 -8 521 0 L606 0 C605 26 605 82 606 108 L602 108 C579 108 574 132 574 177 L574 311 C574 356 574 418 577 482 L577 482 Z " />
<glyph glyph-name="Wcircumflex" unicode="&#x174;" horiz-adv-x="1181" d="M820 742 C792 811 753 865 715 895 L627 895 C587 861 540 807 520 743 L529 732 C568 737 627 758 667 785 C710 756 771 735 811 731 L820 742 Z M916 -6 L1046 493 C1061 550 1091 559 1141 559 L1166 559 C1165 590 1165 659 1166 690 C1150 690 1073 688 1021 688 C969 688 876 690 876 690 C877 659 877 590 876 559 L895 559 C940 559 935 534 929 493 C924 459 882 288 867 231 C851 289 807 454 800 494 C791 543 799 559 833 559 L852 559 C851 590 851 659 852 690 C837 690 737 688 672 688 C607 688 492 690 492 690 C493 659 493 590 492 559 L506 559 C545 559 552 539 545 493 C539 456 498 299 481 236 C464 297 421 457 415 493 C407 538 413 559 450 559 L468 559 C467 590 467 659 468 690 C453 690 324 688 242 688 C160 688 15 690 15 690 C16 659 16 590 15 559 L37 559 C90 559 110 536 124 493 C138 450 219 147 253 -6 C313 -4 442 -4 502 -6 C524 83 547 171 571 260 C594 171 616 83 637 -6 C704 -4 849 -4 916 -6 L916 -6 Z " />
<glyph glyph-name="wcircumflex" unicode="&#x175;" horiz-adv-x="890" d="M646 532 C618 601 579 655 541 685 L453 685 C413 651 366 597 346 533 L355 522 C394 527 453 548 493 575 C536 546 597 525 637 521 L646 532 Z M460 -7 C517 -5 640 -5 697 -7 C697 -7 758 188 786 274 C814 360 824 372 870 372 L882 372 C881 398 881 456 882 482 C882 482 810 479 769 479 C728 479 656 482 656 482 C657 456 657 398 656 372 L663 372 C691 372 692 353 687 320 C683 298 662 201 647 136 C632 202 610 303 608 323 C604 353 608 372 632 372 L639 372 C638 398 638 456 639 482 C639 482 547 479 495 479 C443 479 350 482 350 482 C351 456 351 398 350 372 L355 372 C384 372 392 361 386 320 C382 293 357 200 341 141 C327 201 306 294 303 320 C298 359 303 372 328 372 L333 372 C332 398 332 456 333 482 C333 482 230 479 171 479 C113 479 8 482 8 482 C9 456 9 398 8 372 L14 372 C49 372 57 359 81 274 C105 189 154 -7 154 -7 C200 -5 299 -5 345 -7 C359 50 387 155 408 231 C426 154 449 48 460 -7 L460 -7 Z " />
<glyph glyph-name="Ycircumflex" unicode="&#x176;" horiz-adv-x="879" d="M702 480 C728 526 752 559 851 559 L864 559 L864 690 C864 690 761 688 703 688 C645 688 541 690 541 690 L541 559 L555 559 C597 559 597 513 572 454 C558 422 542 388 528 360 C520 375 505 405 485 454 C454 530 470 559 504 559 L518 559 L518 690 C518 690 358 688 267 688 C176 688 15 690 15 690 L15 559 L32 559 C89 559 122 541 147 497 C166 462 244 304 276 238 L276 190 C276 156 273 131 226 131 L196 131 C197 100 197 29 196 -2 C196 -2 348 0 433 0 C518 0 669 -2 669 -2 C670 29 670 100 669 131 L642 131 C596 131 583 156 583 190 L583 237 C611 297 681 443 702 480 L702 480 Z M651 742 C623 811 584 865 546 895 L458 895 C418 861 371 807 351 743 L360 732 C399 737 458 758 498 785 C541 756 602 735 642 731 L651 742 Z " />
<glyph glyph-name="ycircumflex" unicode="&#x177;" horiz-adv-x="597" d="M398 320 C393 301 371 223 350 155 C332 221 313 297 309 320 C303 352 314 372 338 372 L346 372 C347 398 347 456 346 482 C346 482 238 479 177 479 C116 479 8 482 8 482 C9 456 9 398 8 372 L21 372 C57 372 60 352 71 319 C82 286 133 111 152 28 C189 29 263 30 311 29 C278 -82 263 -152 162 -152 C134 -152 111 -142 96 -123 C112 -135 137 -142 157 -142 C205 -142 239 -112 239 -67 C239 -17 209 12 152 12 C84 12 50 -32 50 -84 C50 -153 98 -191 183 -191 C276 -191 358 -164 426 58 C474 216 498 286 510 319 C522 353 538 372 575 372 L589 372 C588 398 587 456 589 482 C589 482 517 479 476 479 C435 479 363 482 363 482 C364 456 364 398 363 372 L373 372 C398 372 406 354 398 320 L398 320 Z M478 532 C450 601 411 655 373 685 L285 685 C245 651 198 597 178 533 L187 522 C226 527 285 548 325 575 C368 546 429 525 469 521 L478 532 Z " />
<glyph glyph-name="Ydieresis" unicode="&#x178;" horiz-adv-x="879" d="M702 480 C728 526 752 559 851 559 L864 559 L864 690 C864 690 761 688 703 688 C645 688 541 690 541 690 L541 559 L555 559 C597 559 597 513 572 454 C558 422 542 388 528 360 C520 375 505 405 485 454 C454 530 470 559 504 559 L518 559 L518 690 C518 690 358 688 267 688 C176 688 15 690 15 690 L15 559 L32 559 C89 559 122 541 147 497 C166 462 244 304 276 238 L276 190 C276 156 273 131 226 131 L196 131 C197 100 197 29 196 -2 C196 -2 348 0 433 0 C518 0 669 -2 669 -2 C670 29 670 100 669 131 L642 131 C596 131 583 156 583 190 L583 237 C611 297 681 443 702 480 L702 480 Z M681 811 C681 853 652 875 617 875 C582 875 554 853 554 811 C554 769 582 748 617 748 C652 748 681 769 681 811 L681 811 Z M506 811 C506 853 478 875 442 875 C408 875 379 853 379 811 C379 769 408 748 442 748 C478 748 506 769 506 811 L506 811 Z " />
<glyph glyph-name="Zacute" unicode="&#x179;" horiz-adv-x="687" d="M363 738 C411 736 489 750 543 780 C632 829 585 923 489 878 C440 854 383 797 356 751 L363 738 Z M15 0 L468 0 C468 0 544 -1 672 -4 C670 75 670 249 672 328 C644 326 585 326 557 328 C557 171 484 131 385 131 L341 131 C441 271 585 466 662 568 C661 597 661 659 662 688 L244 688 C186 688 86 691 26 692 C28 618 28 457 26 383 C54 385 113 385 141 383 C141 521 178 559 300 559 L343 559 C246 425 94 223 15 121 C16 92 16 29 15 0 L15 0 Z " />
<glyph glyph-name="zacute" unicode="&#x17a;" horiz-adv-x="492" d="M196 528 C244 526 322 540 376 570 C465 619 418 713 322 668 C273 644 216 587 189 541 L196 528 Z M287 0 C374 0 480 -3 480 -3 C478 48 479 157 484 208 C466 206 429 206 411 208 C405 104 347 74 287 74 L266 74 C327 166 422 302 473 372 C472 398 472 456 473 482 L203 482 C111 482 48 481 11 485 C12 434 12 324 11 273 C29 275 66 275 84 273 C91 376 128 404 203 404 L213 404 C156 318 59 177 8 108 C9 82 9 26 8 0 L287 0 Z " />
<glyph glyph-name="Zdotaccent" unicode="&#x17b;" horiz-adv-x="687" d="M15 0 L468 0 C468 0 544 -1 672 -4 C670 75 670 249 672 328 C644 326 585 326 557 328 C557 171 484 131 385 131 L341 131 C441 271 585 466 662 568 C661 597 661 659 662 688 L244 688 C186 688 86 691 26 692 C28 618 28 457 26 383 C54 385 113 385 141 383 C141 521 178 559 300 559 L343 559 C246 425 94 223 15 121 C16 92 16 29 15 0 L15 0 Z M439 821 C439 869 411 896 363 896 C316 896 288 869 288 821 C288 772 316 744 363 744 C411 744 439 773 439 821 L439 821 Z " />
<glyph glyph-name="zdotaccent" unicode="&#x17c;" horiz-adv-x="492" d="M287 0 C374 0 480 -3 480 -3 C478 48 479 157 484 208 C466 206 429 206 411 208 C405 104 347 74 287 74 L266 74 C327 166 422 302 473 372 C472 398 472 456 473 482 L203 482 C111 482 48 481 11 485 C12 434 12 324 11 273 C29 275 66 275 84 273 C91 376 128 404 203 404 L213 404 C156 318 59 177 8 108 C9 82 9 26 8 0 L287 0 Z M322 611 C322 659 294 686 246 686 C199 686 171 659 171 611 C171 562 199 534 246 534 C294 534 322 563 322 611 L322 611 Z " />
<glyph glyph-name="Zcaron" unicode="&#x17d;" horiz-adv-x="687" d="M213 897 C241 828 280 774 318 744 L406 744 C446 778 493 832 513 896 L504 907 C465 902 406 881 366 854 C323 883 262 904 222 908 L213 897 Z M15 0 L468 0 C468 0 544 -1 672 -4 C670 75 670 249 672 328 C644 326 585 326 557 328 C557 171 484 131 385 131 L341 131 C441 271 585 466 662 568 C661 597 661 659 662 688 L244 688 C186 688 86 691 26 692 C28 618 28 457 26 383 C54 385 113 385 141 383 C141 521 178 559 300 559 L343 559 C246 425 94 223 15 121 C16 92 16 29 15 0 L15 0 Z " />
<glyph glyph-name="zcaron" unicode="&#x17e;" horiz-adv-x="492" d="M106 687 C134 618 173 564 211 534 L299 534 C339 568 386 622 406 686 L397 697 C358 692 299 671 259 644 C216 673 155 694 115 698 L106 687 Z M287 0 C374 0 480 -3 480 -3 C478 48 479 157 484 208 C466 206 429 206 411 208 C405 104 347 74 287 74 L266 74 C327 166 422 302 473 372 C472 398 472 456 473 482 L203 482 C111 482 48 481 11 485 C12 434 12 324 11 273 C29 275 66 275 84 273 C91 376 128 404 203 404 L213 404 C156 318 59 177 8 108 C9 82 9 26 8 0 L287 0 Z " />
<glyph glyph-name="longs" unicode="&#x17f;" horiz-adv-x="345" d="M324 108 L314 108 C294 108 281 119 278 147 C275 175 272 369 278 430 L267 474 C238 589 263 636 332 640 C300 633 279 611 279 573 C279 530 307 506 354 506 C404 506 434 529 434 582 C434 657 371 700 262 700 C98 700 47 607 52 470 C55 390 55 175 52 147 C49 119 41 108 19 108 L8 108 C9 82 9 24 8 -2 C8 -2 109 0 166 0 C223 0 324 -2 324 -2 C324 24 323 82 324 108 L324 108 Z " />
<glyph glyph-name="florin" unicode="&#x192;" horiz-adv-x="583" d="M187 321 C227 96 195 41 129 41 C112 41 96 46 84 53 C84 53 92 52 97 52 C141 52 166 73 166 110 C166 147 140 168 94 168 C40 168 10 139 10 87 C10 15 66 -25 167 -25 C300 -25 425 52 390 321 L467 319 C465 358 467 399 467 399 L377 397 C341 607 390 633 454 633 C468 633 484 629 497 622 L491 622 C442 622 418 597 418 560 C418 522 444 501 490 501 C543 501 573 531 573 585 C573 665 510 710 397 710 C273 710 148 619 175 397 L111 399 C111 399 113 359 111 319 L187 321 Z " />
<glyph glyph-name="uni01B5" unicode="&#x1b5;" horiz-adv-x="687" d="M66 262 L125 265 C83 209 44 158 15 121 C16 92 16 29 15 0 L468 0 C468 0 544 -1 672 -4 C670 75 670 249 672 328 C644 326 585 326 557 328 C557 171 484 131 385 131 L341 131 L438 266 L525 262 L525 319 L475 316 C546 412 616 507 662 568 C661 597 661 659 662 688 L244 688 C186 688 86 691 26 692 C28 618 28 457 26 383 C54 385 113 385 141 383 C141 521 178 559 300 559 L343 559 C292 488 225 398 162 314 L66 319 L66 262 Z " />
<glyph glyph-name="uni01B6" unicode="&#x1b6;" horiz-adv-x="492" d="M24 193 L76 203 C50 166 26 132 8 108 C9 82 9 26 8 0 L287 0 C374 0 480 -3 480 -3 C478 48 479 157 484 208 C466 206 429 206 411 208 C405 104 347 74 287 74 L266 74 C299 124 343 188 384 246 L460 252 L456 293 L410 284 L473 372 C472 398 472 456 473 482 L203 482 C111 482 48 481 11 485 C12 434 12 324 11 273 C29 275 66 275 84 273 C91 376 128 404 203 404 L213 404 L103 241 L20 234 L24 193 Z " />
<glyph glyph-name="uni01FA" unicode="&#x1fa;" horiz-adv-x="886" d="M428 131 L393 131 C394 100 394 29 393 -2 C393 -2 546 0 632 0 C718 0 871 -2 871 -2 C870 29 870 100 871 131 L857 131 C821 131 794 145 761 224 C714 337 621 581 580 695 C580 695 498 693 451 693 C404 693 321 695 321 695 C262 538 202 381 141 224 C115 157 89 131 29 131 L15 131 C16 100 16 29 15 -2 C15 -2 121 0 181 0 C241 0 347 -2 347 -2 C346 29 346 100 347 131 L315 131 C277 131 260 149 275 206 C335 207 408 207 468 206 C479 156 474 131 428 131 L428 131 Z M447 276 C401 275 346 275 299 275 C318 331 348 414 373 484 C399 413 428 331 447 276 L447 276 Z M383 962 C431 960 509 974 563 1004 C652 1053 605 1147 509 1102 C460 1078 403 1021 376 975 L383 962 Z M488 840 C488 809 472 791 443 791 C414 791 397 809 397 840 C397 870 414 887 443 887 C472 887 488 870 488 840 L488 840 Z M539 840 C539 902 504 936 441 936 C380 936 346 902 346 840 C346 778 381 743 443 743 C505 743 539 778 539 840 L539 840 Z " />
<glyph glyph-name="aringacute" unicode="&#x1fb;" horiz-adv-x="582" d="M497 278 C497 427 440 493 264 493 C140 493 38 442 38 350 C38 296 71 267 125 267 C185 267 221 297 221 348 C221 370 212 392 197 404 C260 397 272 358 272 308 L272 257 C124 255 10 214 10 97 C10 16 74 -17 142 -17 C212 -17 261 6 290 48 C310 5 351 -17 420 -17 C551 -17 581 84 566 216 L525 216 C533 158 531 108 513 108 C495 108 497 126 497 182 L497 278 Z M274 109 C274 109 269 108 263 108 C246 108 232 114 232 162 C232 205 244 214 272 216 L272 146 C272 133 273 117 274 109 L274 109 Z M235 751 C283 749 361 763 415 793 C504 842 457 936 361 891 C312 867 255 810 228 764 L235 751 Z M336 630 C336 599 320 581 291 581 C262 581 245 599 245 630 C245 660 262 677 291 677 C320 677 336 660 336 630 L336 630 Z M387 630 C387 692 352 726 289 726 C228 726 194 692 194 630 C194 568 229 533 291 533 C353 533 387 568 387 630 L387 630 Z " />
</font>
</svg>
